<?xml version="1.0" encoding="UTF-8" standalone="no"?>
<svg
   width="537.92999"
   height="133.94"
   version="1.1"
   id="svg24"
   sodipodi:docname="americangolf.svg"
   inkscape:export-filename="..\Documents\GitHub\MapIcons\brands_2023\shops\americangolf.svg"
   inkscape:export-xdpi="5.7339106"
   inkscape:export-ydpi="5.7339106"
   xmlns:inkscape="http://www.inkscape.org/namespaces/inkscape"
   xmlns:sodipodi="http://sodipodi.sourceforge.net/DTD/sodipodi-0.dtd"
   xmlns="http://www.w3.org/2000/svg"
   xmlns:svg="http://www.w3.org/2000/svg">
  <defs
     id="defs28" />
  <sodipodi:namedview
     id="namedview26"
     pagecolor="#ffffff"
     bordercolor="#000000"
     borderopacity="0.25"
     inkscape:showpageshadow="2"
     inkscape:pageopacity="0.0"
     inkscape:pagecheckerboard="0"
     inkscape:deskcolor="#d1d1d1"
     showgrid="false" />
  <g
     fill="#211f5e"
     id="g6">
    <path
       d="M 19.16,112.92 C 6.15,112.92 0,105.36 0,97.8 0,87 7.76,81.64 17.5,81.64 h 14 v -4.45 c 0,-5.18 -3.83,-7.67 -10.15,-7.67 -6.11,0 -9.17,1.37 -11.38,4.46 l -7.36,-5.6 c 3.62,-5.59 9,-8.8 18.53,-8.8 12.1,0 20.86,4.87 20.86,17.19 v 13.1 c 0,17.73 -6.52,23 -22.79,23 M 31.48,90.24 H 18.23 c -6.53,0 -8.39,3.52 -8.39,6.21 0,3.62 2.48,6.94 9.84,6.94 13,0 11.8,-6.32 11.8,-11 z m 273.09,22.68 c -13,0 -19.16,-7.56 -19.16,-15.12 0,-10.78 7.76,-16.16 17.5,-16.16 h 14 v -4.45 c 0,-5.18 -3.83,-7.67 -10.15,-7.67 -6.11,0 -9.17,1.37 -11.39,4.46 L 288,68.38 c 3.63,-5.59 9,-8.8 18.54,-8.8 12.12,0 20.82,4.87 20.82,17.19 v 13.1 c 0,17.73 -6.52,23 -22.78,23 M 316.9,90.19 h -13.27 c -6.52,0 -8.39,3.52 -8.39,6.21 0,3.62 2.49,6.94 9.84,6.94 12.95,0 11.81,-6.32 11.81,-11 z M 111.55,111.88 V 81.33 c 0,-6.63 -3.23,-11.19 -9.55,-11.19 -7.53,0 -11.07,6 -11.07,12 v 29.72 H 80.47 V 81.33 c 0,-6.63 -3.93,-11.19 -10.26,-11.19 -7.95,0 -10.35,6 -10.35,12 v 29.72 H 49.4 v -28 c 0,-23.41 18.25,-24.34 22.47,-24.34 6.84,0 12.95,2.69 16.27,7.87 1.14,-1.39 5.94,-7.81 14.86,-7.81 10.46,0 19,6.32 19,18.13 v 34.17 z M 154.63,91 H 141 v 2.8 c 0,5.17 5.17,9.22 11.49,9.22 6.11,0 10.09,-2 12.31,-5 l 7.06,5.22 c -3.63,5.59 -9.63,9.73 -19.16,9.73 -14,0 -22.17,-8.07 -22.17,-19 v -10 c 0,-24.6 19.17,-24.34 22.48,-24.34 11.6,0 19.37,6.93 19.37,16 0,10.35 -1.66,15.43 -17.71,15.43 m -1.86,-21.75 c -8.92,0 -11.81,6.73 -11.81,11 v 2.17 h 13.25 c 7.94,0 9.2,-2.24 9.2,-6.21 0,-3.52 -3.71,-6.94 -10.64,-6.94"
       id="path2" />
    <path
       d="m 208.05,72.31 a 14.07,14.07 0 0 0 -7.85,-1.76 c -5.08,0 -10.15,5.6 -10.15,12.74 v 28.59 h -10.46 v -28 c 0,-22 19.16,-24.34 22.47,-24.34 6,0 9.74,1.76 12.64,4 z m 11,39.57 V 69.73 a 10.8,10.8 0 0 1 10.46,-10.15 v 52.3 z m 42.25,1.03 c -10.36,0 -23.61,-5.48 -23.61,-23.3 v -5.7 c 0,-23.64 19.78,-24.33 23.09,-24.33 7.57,0 13.57,2.07 18.65,7.87 l -6,7.32 c -3.64,-2.85 -7.36,-4.73 -11.71,-4.73 -8.49,0 -13.57,4.87 -13.57,16.26 0,11.39 5.08,16.16 13.57,16.16 A 15,15 0 0 0 273,97.56 l 7.5,5.72 c -5,6.43 -10.25,9.63 -19.16,9.63 m 104.37,-1.03 V 81.33 c 0,-6.63 -1.58,-11.19 -10.25,-11.19 -8.11,0 -10.17,4.94 -10.36,12 v 29.72 h -10.45 v -28 c 0,-24.28 14.6,-24.34 22.47,-24.34 10.46,0 19.06,6.32 19.06,18.13 v 34.17 z"
       id="path4" />
  </g>
  <path
     d="m 402.67,133.94 c -9.53,0 -15.54,-4.14 -19.16,-9.73 l 7.06,-5.12 c 2.69,3.32 6.19,4.91 12.31,4.91 6.31,0 11.49,-4 11.49,-9.22 v -7.4 c -3.31,3.63 -8.08,4.5 -13.46,4.5 -14.39,0 -17.71,-11.18 -17.71,-22.27 v -5.69 c 0,-12.74 4.14,-24.34 19.16,-24.34 3.32,0 7.25,0.72 9.84,2.9 a 44.83,44.83 0 0 1 11.19,14.4 13.34,13.34 0 0 1 1.45,7 V 115 c 0,10.87 -8.19,19 -22.17,19 m 9.63,-59.86 a 10.22,10.22 0 0 0 -8.3,-4 c -9.95,0 -10.36,7.46 -10.36,14.4 v 3.73 c 0,7 1.34,14.19 9.74,14.19 a 11.43,11.43 0 0 0 8.9,-4.56 c 1.66,-2.38 2.07,-4.35 2.07,-11.6 0,-7.25 -0.51,-10.25 -2.07,-12.22 m 57.19,32.1 a 22,22 0 0 1 -15.74,6.74 c -7.46,0 -12.84,-3 -16.06,-6.53 -4.55,-5.07 -5.38,-11 -5.38,-20.19 v -2.28 a 13.41,13.41 0 0 1 1.45,-7 44.77,44.77 0 0 1 11.18,-14.39 c 2.6,-2.18 6.53,-2.9 9.84,-2.9 a 19.72,19.72 0 0 1 14.71,6.63 c 4,4.45 5.7,8.8 5.7,20 0,9.74 -1.87,15.74 -5.7,20 m -7.35,-32.41 c -1.56,-2.18 -4.77,-3.73 -8.39,-3.73 -3.62,0 -6.94,1.55 -8.49,3.73 -2,2.8 -2.49,5 -2.49,12.43 0,7.43 0.52,9.63 2.49,12.42 1.55,2.18 4.87,3.84 8.49,3.84 a 10.47,10.47 0 0 0 8.39,-3.84 c 2,-2.79 2.59,-4.87 2.59,-12.32 0,-7.45 -0.62,-9.73 -2.59,-12.53 m 34.28,38.03 c -8.5,0 -13.26,-7.56 -13.26,-14.19 V 48.91 A 10.8,10.8 0 0 1 493.6,38.76 V 97 c 0,2.59 2,5.08 4.25,5.08 h 3.31 v 9.84 z M 531.09,48.91 A 11.91,11.91 0 0 0 528.2,48.5 c -5.8,0 -8.08,7 -8.08,10.87 v 9.42 h 10.46 v 8 H 520.12 V 111.9 H 509.65 V 76.77 h -5.17 v -8 h 5.17 v -6.5 c 0,-22.66 19.17,-24.34 22.48,-24.34 a 10.16,10.16 0 0 1 5.8,1.86 z"
     fill="#cc0839"
     id="path8" />
  <g
     fill="#211f5e"
     id="g22">
    <path
       d="m 422.67,1.31 c -1.95,0.32 -3.09,0.31 -2.58,0 a 15.22,15.22 0 0 1 3.67,-1 c 1.66,-0.27 2.94,-0.3 2.83,-0.11 -0.11,0.19 -1.91,0.76 -3.92,1.08 M 433.3,1.07 c -2,-0.23 -3.74,-0.6 -3.79,-0.91 -0.05,-0.31 1.29,-0.23 3,0 a 13,13 0 0 1 3.64,0.82 c 0.43,0.3 -0.84,0.36 -2.85,0.12 m -26.11,8.6 c -1.07,0.79 -1.16,0.55 -0.28,-0.41 a 26,26 0 0 1 3.25,-2.95 c 1.11,-0.85 1.51,-0.89 0.77,0 a 26.21,26.21 0 0 1 -3.74,3.38 m 8.14,-3.8 c -1.95,0.58 -2.85,0.21 -2.07,-0.77 a 10,10 0 0 1 4.21,-2.52 c 1.78,-0.58 3,-0.41 2.56,0.4 -0.48,1 -2.62,2.26 -4.7,2.89"
       id="path10" />
    <path
       d="m 427.37,4.09 c -2.51,0.07 -4.29,-0.63 -4,-1.62 0.23,-0.78 2.12,-1.5 4.23,-1.57 2.11,-0.07 3.92,0.56 4.06,1.33 0.15,1 -1.79,1.79 -4.31,1.86 m 12.54,1.19 c -2.23,-0.52 -4.36,-1.71 -4.73,-2.69 -0.27,-0.79 1,-1.07 2.94,-0.57 a 9,9 0 0 1 4.35,2.35 c 0.69,1 -0.43,1.39 -2.56,0.91 m 9.17,3.49 a 17.93,17.93 0 0 1 -4,-3.33 c -0.7,-0.85 -0.16,-0.85 1.13,0 a 20.73,20.73 0 0 1 3.51,2.91 c 0.87,1 0.63,1.21 -0.63,0.45 m -46.94,8.26 c -0.66,0.6 -0.56,-0.1 0.18,-1.5 a 19.49,19.49 0 0 1 2.48,-3.69 c 0.79,-0.86 0.92,-0.45 0.19,1 a 17.86,17.86 0 0 1 -2.85,4.18"
       id="path12" />
    <path
       d="m 408.31,13.7 c -1.64,0.59 -2.28,-0.32 -1.51,-2 a 9.48,9.48 0 0 1 4,-4 c 1.68,-0.75 2.65,-0.14 2.08,1.46 a 8.62,8.62 0 0 1 -4.59,4.49 m 11.85,-2.47 c -2.68,0.3 -4.39,-1 -3.86,-2.83 0.47,-1.63 2.69,-3.2 5.06,-3.55 2.37,-0.35 4.34,0.7 4.22,2.35 -0.14,1.91 -2.61,3.73 -5.42,4 M 435.16,11 c -2.89,-0.22 -5.28,-2 -5.33,-3.88 0,-1.65 1.94,-2.8 4.45,-2.53 2.51,0.27 4.72,1.74 5.12,3.41 0.44,1.86 -1.44,3.23 -4.24,3 m 12.64,2.19 A 8,8 0 0 1 443,8.73 c -0.51,-1.63 0.57,-2.32 2.42,-1.58 a 8.89,8.89 0 0 1 4.27,3.95 c 0.75,1.69 -0.06,2.66 -1.9,2.09"
       id="path14" />
    <path
       d="m 454.89,16.52 a 14.47,14.47 0 0 1 -3.12,-4.27 c -0.71,-1.49 -0.5,-1.93 0.43,-1.07 a 16.68,16.68 0 0 1 2.73,3.82 c 0.73,1.43 0.75,2.17 0,1.56 m -52.49,6.85 c -1,0.31 -1.49,-1.1 -1,-3.13 0.49,-2.03 1.72,-3.92 2.81,-4.54 1.09,-0.62 1.88,0.49 1.4,2.71 -0.48,2.22 -2,4.6 -3.23,5"
       id="path16" />
    <path
       d="m 411.69,21.8 c -2.33,0.26 -3.79,-1.58 -3.3,-4.1 a 6.77,6.77 0 0 1 4.74,-5.08 c 2.37,-0.52 4.13,1.1 3.84,3.65 a 6.47,6.47 0 0 1 -5.28,5.53 M 426.93,21 c -3.24,0 -5.69,-2.23 -5.48,-5.09 0.16,-2.6 2.68,-4.76 5.65,-4.82 2.97,-0.06 5.52,2 5.61,4.65 0.11,2.85 -2.51,5.23 -5.78,5.26 M 443,21.51 a 6.28,6.28 0 0 1 -5.59,-5.51 3.5,3.5 0 0 1 4.35,-3.88 6.67,6.67 0 0 1 5.12,5.1 3.51,3.51 0 0 1 -3.9,4.33 M 453.74,23 c -1.55,-0.35 -3.21,-2.65 -3.7,-5.13 -0.46,-2.31 0.39,-3.6 1.89,-2.91 1.31,0.61 2.73,2.71 3.24,4.72 0.51,2.01 -0.17,3.64 -1.43,3.32"
       id="path18" />
    <path
       d="m 399.87,32.3 c -0.56,-0.09 -1,-1.75 -0.89,-3.75 0.11,-2 0.67,-3.77 1.25,-4 0.58,-0.23 1.23,1.32 1.13,3.67 -0.1,2.35 -0.75,4.24 -1.49,4.11 m 6.22,0.54 c -1.71,-0.1 -3,-2.24 -2.9,-4.83 0.1,-2.59 1.55,-4.83 3.27,-5.12 2,-0.31 3.49,1.81 3.41,4.76 -0.08,2.95 -1.8,5.3 -3.78,5.19 M 419,33.31 a 5.48,5.48 0 0 1 -5.26,-5.76 6,6 0 0 1 5.44,-5.87 5.49,5.49 0 0 1 5.65,5.68 5.88,5.88 0 0 1 -5.83,6 m 17,-0.01 a 5.9,5.9 0 0 1 -5.93,-6 5.64,5.64 0 0 1 5.8,-5.79 6.07,6.07 0 0 1 5.7,5.92 5.68,5.68 0 0 1 -5.57,5.87 M 449.93,33 c -2.2,0.1 -4.07,-2.26 -4.15,-5.35 -0.08,-3.09 1.61,-5.23 3.8,-4.94 1.92,0.28 3.58,2.64 3.67,5.28 0.09,2.64 -1.39,4.9 -3.32,5 m 7.26,-0.6 c -0.91,0.12 -1.7,-1.77 -1.8,-4.28 -0.1,-2.51 0.51,-4.19 1.43,-3.85 0.73,0.28 1.44,2.17 1.52,4.22 0.08,2.05 -0.45,3.81 -1.15,3.91 m -57.42,6.36 a 7.73,7.73 0 0 1 -1,-3.63 c 0,-1.67 -0.24,-2.92 -0.06,-2.84 0.18,0.08 0.71,1.89 1,3.88 0.29,1.99 0.29,3.08 0,2.59 m 3.52,2.52 c -1.06,-0.47 -2.17,-2.49 -2.49,-4.62 -0.32,-2.13 0.25,-3.86 1.3,-3.74 1.26,0.13 2.56,2.39 2.9,5 0.34,2.61 -0.46,4 -1.71,3.41 m 9.08,2.44 c -2.26,-0.39 -4.29,-2.77 -4.61,-5.41 -0.32,-2.64 1.28,-4.92 3.66,-4.82 2.6,0.11 5,2.74 5.16,5.78 0.16,3.04 -1.73,4.87 -4.21,4.45 M 427,45 a 5.86,5.86 0 0 1 -5.85,-5.45 5.54,5.54 0 0 1 5.73,-5.71 5.86,5.86 0 0 1 6,5.82 A 5.63,5.63 0 0 1 427,45 m 15.45,-0.81 c -2.72,0.36 -4.85,-1.69 -4.7,-4.68 a 6.06,6.06 0 0 1 5.51,-5.86 c 2.65,-0.08 4.54,2.21 4.26,5.05 a 6.31,6.31 0 0 1 -5.07,5.49 M 453,41.87 c -1.52,0.55 -2.5,-1 -2.21,-3.64 0.29,-2.64 1.83,-5 3.4,-5.17 1.3,-0.11 2.1,1.69 1.77,4 -0.33,2.31 -1.64,4.37 -3,4.84 m -49.53,4.49 a 13.77,13.77 0 0 1 -2.28,-3.94 c -0.63,-1.59 -0.66,-2.59 0,-2.1 a 12,12 0 0 1 2.62,4.43 c 0.65,1.73 0.48,2.4 -0.3,1.61 m 6.08,3.85 a 8.11,8.11 0 0 1 -4,-4.43 c -0.69,-2 0.06,-3.26 1.76,-2.78 a 7.64,7.64 0 0 1 4.55,5 c 0.51,2 -0.57,2.95 -2.33,2.21 m 11.21,2.83 c -2.52,-0.33 -4.86,-2.19 -5.29,-4.26 -0.49,-2.26 1.35,-4 4.21,-3.73 2.86,0.27 5.52,2.44 5.67,4.81 0.12,2.11 -2,3.53 -4.59,3.18 m 13.98,0.25 c -2.68,0.25 -4.86,-1.22 -4.82,-3.36 0,-2.38 2.53,-4.52 5.62,-4.7 3.09,-0.18 5,1.6 4.59,3.91 -0.37,2.06 -2.77,3.9 -5.39,4.15 m 11.91,-2.5 c -1.93,0.69 -3.19,-0.31 -2.69,-2.35 a 7.3,7.3 0 0 1 4.81,-5 c 1.88,-0.45 2.84,0.9 2.15,2.91 a 7.92,7.92 0 0 1 -4.27,4.47 M 453.57,47 c -0.91,0.81 -1.21,0.12 -0.55,-1.69 0.66,-1.81 2,-4 2.9,-4.55 0.9,-0.55 0.84,0.54 0.19,2.19 A 12,12 0 0 1 453.57,47 m -44.87,5.81 a 16.79,16.79 0 0 1 -3.24,-3.38 c -0.85,-1.22 -0.76,-1.72 0.33,-1 a 15.9,15.9 0 0 1 3.77,3.9 c 0.72,1.18 0.29,1.33 -0.86,0.47 m 7.75,3.82 A 8.61,8.61 0 0 1 412,53.5 c -0.75,-1.32 0.2,-2 2.29,-1.46 2.09,0.54 4.47,2.24 5,3.6 0.4,1.17 -0.9,1.58 -2.81,1 m 11.02,1.78 c -2.29,-0.07 -4.34,-1.05 -4.6,-2.22 -0.31,-1.37 1.61,-2.45 4.35,-2.39 2.74,0.06 4.82,1.26 4.69,2.64 -0.14,1.14 -2.14,2 -4.44,2 M 439,57.26 c -2.06,0.5 -3.53,0 -3.22,-1.17 0.34,-1.38 2.59,-2.93 5,-3.43 2.26,-0.47 3.49,0.28 2.81,1.62 -0.6,1.17 -2.64,2.5 -4.62,3 M 423.26,60 a 9.25,9.25 0 0 1 -4,-1.42 c -0.54,-0.58 0.68,-0.81 2.83,-0.48 2.15,0.33 4.13,1.06 4.27,1.64 0.14,0.58 -1.28,0.56 -3.1,0.26 m 9.62,0.17 c -1.85,0.22 -3.33,0 -3.3,-0.41 0,-0.58 1.88,-1.2 4.15,-1.46 2.27,-0.26 3.6,0 3.12,0.61 -0.48,0.61 -2.15,1 -4,1.26 m -20.42,-5.05 c -1.48,-0.72 -1.87,-0.69 -1,0 0.09,0.08 0.2,0.16 0.31,0.24 a 30.51,30.51 0 0 0 4.69,2.58 c 0.39,0.12 0.49,0.06 0.17,-0.24 a 25.73,25.73 0 0 0 -4.13,-2.55 m 31.44,0.58 a 17.35,17.35 0 0 0 -4.22,2.43 c -0.15,0.14 -0.17,0.23 -0.11,0.27 a 30.7,30.7 0 0 0 6,-3.13 c -0.07,-0.14 -0.65,0 -1.69,0.43 m 6.53,-6.41 a 12.78,12.78 0 0 0 -4.08,3.89 c -0.7,1.19 -0.09,1.37 1.24,0.54 0.17,-0.1 0.34,-0.22 0.52,-0.35 a 29.41,29.41 0 0 0 2.63,-2.48 l 0.42,-0.55 c 0.84,-1.25 0.57,-1.76 -0.73,-1 m 8.17,-16.96 c -0.46,0.14 -1,2 -1.36,4.11 -0.36,2.11 -0.19,3.28 0.27,2.77 l 0.13,-0.19 a 30,30 0 0 0 1.21,-6.1 c 0,-0.4 -0.12,-0.63 -0.25,-0.6 m -0.37,-7.72 c 0.13,0.11 0.2,0 0.21,-0.28 a 28.81,28.81 0 0 0 -1.77,-5.93 l -0.12,-0.19 c -0.5,-0.65 -0.52,0.31 0,2.2 0.52,1.89 1.26,3.86 1.72,4.2 m -19.59,-23.22 0.09,0.2 c 0.56,0.33 2.36,1.18 3.94,1.88 1.13,0.49 1.4,0.8 1.46,0.5 a 29.62,29.62 0 0 0 -5.49,-2.58 m -24.96,2.67 3.89,-2 c 0.11,-0.06 0.13,-0.18 0.08,-0.33 a 31.06,31.06 0 0 0 -5.45,2.78 c 0.2,0.25 0.61,0 1.48,-0.43 M 399.09,25 a 18.71,18.71 0 0 0 1.37,-4 c 0.46,-1.8 0.56,-2.68 0.22,-2.07 a 4.86,4.86 0 0 1 -0.62,0.81 30.12,30.12 0 0 0 -1.22,4.38 c 0,0.66 0.12,1 0.25,0.86"
       id="path20" />
  </g>
</svg>
