<?xml version="1.0" encoding="UTF-8" standalone="no"?>
<!-- Generator: Gravit.io -->

<svg
   style="isolation:isolate"
   viewBox="0 0 14.007371 14.012499"
   width="14.007371pt"
   height="14.012499pt"
   version="1.1"
   id="svg8326"
   xmlns="http://www.w3.org/2000/svg"
   xmlns:svg="http://www.w3.org/2000/svg">
  <defs
     id="defs8303">
    <clipPath
       id="_clipPath_BSyztZ5o38Owhn53NJXi2rPCBZFBeYX6">
      <rect
         width="24"
         height="24"
         id="rect8300"
         x="0"
         y="0" />
    </clipPath>
  </defs>
  <g
     clip-path="url(#_clipPath_BSyztZ5o38Owhn53NJXi2rPCBZFBeYX6)"
     id="g8324"
     transform="translate(-5.0236273,-3.0344999)">
    <clipPath
       id="_clipPath_6sh8Acr3YsoacQF0ixAdFpIznK0Kbn1y">
      <rect
         x="4.5760002"
         y="2.592"
         width="14.455"
         height="14.455"
         fill="#ffffff"
         id="rect8307" />
    </clipPath>
    <g
       clip-path="url(#_clipPath_6sh8Acr3YsoacQF0ixAdFpIznK0Kbn1y)"
       id="g8322">
      <g
         id="g8320">
        <circle
           vector-effect="non-scaling-stroke"
           cx="12.027362"
           cy="10.043729"
           r="7.0037346"
           fill="#423a92"
           id="circle8310" />
        <g
           id="g8318">
          <path
             d="M 16.439,4.599 Q 16.273,4.463 15.973,4.252 l -2.582,3.467 c 0.036,-0.002 0.073,-0.003 0.11,-0.003 0.155,0 0.28,0.016 0.383,0.048 l 2.92,-2.84 Q 16.605,4.735 16.439,4.599 Z M 14.994,3.695 Q 14.822,3.615 14.548,3.507 L 12.524,7.943 C 12.649,7.884 12.779,7.834 12.912,7.797 L 15.45,3.925 Q 15.167,3.775 14.994,3.695 Z M 8.796,8.361 9.011,8.486 C 9.103,8.471 9.196,8.462 9.289,8.462 c 0.114,0 0.224,0.007 0.33,0.02 L 8.863,7.905 C 8.844,8.036 8.822,8.187 8.796,8.361 Z m 4.53,-5.21 Q 13.498,3.184 12.859,3.09 L 11.96,8.045 c 0.06,0.037 0.115,0.082 0.161,0.136 C 12.14,8.167 12.158,8.154 12.178,8.14 L 13.816,3.272 Q 13.153,3.118 13.326,3.151 Z m 4.359,2.722 q -0.107,-0.15 -0.34,-0.392 l -3.122,2.508 c 0.014,0.018 0.03,0.038 0.043,0.058 0.307,-0.294 0.819,-0.633 1.544,-0.633 0.055,0 0.11,0.002 0.163,0.006 L 17.948,6.3 Q 17.792,6.023 17.685,5.873 Z M 8.425,4.017 Q 8.277,4.109 7.987,4.331 L 10.6,8.432 C 10.669,8.389 10.739,8.346 10.81,8.304 L 8.863,3.782 Q 8.574,3.925 8.425,4.017 Z M 6.092,6.326 Q 6.014,6.454 5.916,6.646 L 6.508,7.023 C 6.667,6.839 6.929,6.715 7.185,6.623 L 6.335,5.977 Q 6.17,6.199 6.092,6.326 Z M 7.094,5.076 Q 6.992,5.174 6.802,5.37 L 7.873,6.432 C 8.019,6.403 8.151,6.383 8.241,6.383 c 0.676,0 0.728,0.53 0.728,0.692 0,0.05 -0.011,0.153 -0.042,0.382 l 1.176,1.146 c 0.05,0.02 0.1,0.04 0.148,0.064 0.01,-0.008 0.019,-0.016 0.029,-0.023 0.002,-0.002 0.047,-0.035 0.124,-0.086 L 7.386,4.801 Q 7.195,4.978 7.094,5.076 Z m 4.366,2.926 c 0.077,-0.024 0.15,-0.038 0.209,-0.038 0.005,0 0.007,10e-4 0.011,10e-4 l 0.372,-4.923 q -0.132,-0.015 -0.383,0 -0.25,0.016 -0.446,0.048 z M 9.892,3.367 Q 10.032,3.321 9.467,3.53 l 1.602,4.635 c 0.059,-0.03 0.119,-0.059 0.179,-0.084 L 10.303,3.252 Q 9.751,3.414 9.892,3.367 Z m 5.208,8.026 c 0,-0.04 0,-0.093 0.002,-0.157 l -0.264,-0.081 c -0.004,0.199 -0.008,0.344 -0.01,0.44 l 0.324,0.145 C 15.119,11.647 15.1,11.534 15.1,11.393 Z m -2.371,-0.776 c 0.001,-0.037 0.003,-0.075 0.003,-0.112 L 12.47,10.423 c -0.001,0.04 -0.002,0.081 -0.004,0.122 l 0.262,0.115 c 10e-4,-0.014 10e-4,-0.029 10e-4,-0.043 z m 2.4,-0.283 -0.272,-0.017 c -0.003,0.137 -0.005,0.262 -0.008,0.377 l 0.267,0.049 c 0.003,-0.13 0.009,-0.268 0.013,-0.409 z m -2.406,0.472 -0.26,-0.157 c -0.003,0.045 -0.004,0.091 -0.005,0.136 l 0.257,0.204 c 0.002,-0.06 0.005,-0.121 0.008,-0.183 z M 6.712,7.931 C 6.694,7.922 6.671,7.908 6.65,7.894 L 5.527,7.417 Q 5.447,7.652 5.404,7.779 5.36,7.906 5.28,8.14 L 6.579,8.554 C 6.622,8.346 6.666,8.138 6.712,7.931 Z m 6.051,1.62 -0.268,0.119 c -10e-4,0.027 -10e-4,0.058 -0.003,0.096 l 0.269,-0.083 c 0,-0.054 0.002,-0.099 0.002,-0.132 z M 6.45,9.181 5.112,8.994 Q 5.059,9.243 5.044,9.38 5.029,9.517 5.026,9.766 L 6.335,9.799 C 6.372,9.593 6.411,9.385 6.45,9.181 Z m 2.524,1.777 -0.582,0.18 c -0.03,0.23 -0.046,0.369 -0.056,0.452 l 0.479,-0.214 c 0.064,-0.117 0.12,-0.256 0.159,-0.418 z m 6.181,-1.343 c 0.003,-0.068 0.006,-0.13 0.008,-0.187 l -0.288,0.051 -0.002,0.086 c -0.003,0.1 -0.004,0.196 -0.006,0.289 L 15.148,9.837 C 15.151,9.76 15.154,9.686 15.155,9.615 Z m -6.13,0.907 c 0,-0.087 -0.004,-0.161 -0.011,-0.224 l -0.506,0.028 c -0.002,0.005 -0.004,0.011 -0.004,0.016 -0.02,0.137 -0.038,0.26 -0.053,0.371 l 0.57,-0.1 c 10e-4,-0.029 0.004,-0.06 0.004,-0.091 z m 3.684,0.666 -0.256,-0.26 c -0.003,0.078 -0.006,0.156 -0.008,0.233 -10e-4,0.006 -10e-4,0.011 -10e-4,0.017 l 0.254,0.333 c 0.003,-0.092 0.007,-0.202 0.011,-0.323 z M 8.92,9.953 c -10e-4,0 -0.006,0 -0.013,-10e-4 C 8.897,9.954 8.887,9.957 8.878,9.96 L 8.929,9.963 C 8.926,9.96 8.923,9.956 8.92,9.953 Z m 3.835,-0.096 -0.267,0.048 c -10e-4,0.029 -0.002,0.06 -0.003,0.091 L 12.75,9.98 c 0.002,-0.043 0.003,-0.084 0.005,-0.123 z m -0.011,0.327 -0.265,-0.017 c -10e-4,0.031 -10e-4,0.063 -0.003,0.096 l 0.264,0.047 c 0,-0.043 0.003,-0.085 0.004,-0.126 z m -6.625,1.661 -0.798,0.252 q 0.083,0.23 0.131,0.359 0.048,0.128 0.131,0.358 L 6.314,12.495 C 6.195,12.291 6.137,12.066 6.119,11.845 Z m 8.267,0.464 2.895,2.37 q 0.223,-0.262 0.332,-0.412 0.109,-0.151 0.25,-0.343 l -3.102,-1.882 c -0.069,0.131 -0.194,0.22 -0.375,0.267 z m -8.158,-1.857 -1.184,0.07 q 0.019,0.25 0.034,0.386 0.015,0.135 0.053,0.386 l 1.012,-0.18 c 0.02,-0.204 0.05,-0.427 0.085,-0.662 z m 6.53,1.67 -0.329,-0.519 C 12.422,11.827 12.416,12 12.416,12.027 v 0.005 c 0,0.028 -0.001,0.054 -0.003,0.079 l 2.155,4.453 q 0.26,-0.099 0.402,-0.163 0.143,-0.065 0.388,-0.203 l -2.499,-3.915 c -0.04,-0.042 -0.074,-0.095 -0.101,-0.161 z m 0.902,0.286 c -0.113,0.014 -0.196,0.025 -0.252,0.032 l 2.565,3.385 q 0.207,-0.142 0.348,-0.254 0.141,-0.113 0.388,-0.314 l -2.827,-2.878 c -0.074,0.009 -0.147,0.019 -0.222,0.029 z m 3.594,-1.43 c 0.053,0.041 0.12,0.101 0.17,0.184 l 1.463,0.284 q 0.066,-0.243 0.086,-0.439 0.02,-0.196 0.045,-0.396 l -1.772,-0.143 c 0,0.206 0.002,0.39 0.008,0.51 z m -0.43,-3.227 c 0.173,0.149 0.298,0.342 0.372,0.572 l 1.5,-0.418 Q 18.609,7.644 18.54,7.475 18.47,7.306 18.364,7.075 Z m 0.433,1.609 c 0,0.118 -0.001,0.235 -0.004,0.352 L 19.018,9.615 Q 19.004,9.335 18.98,9.181 18.956,9.028 18.919,8.798 L 17.264,9.054 C 17.262,9.145 17.26,9.248 17.257,9.36 Z m -0.731,2.657 c -0.21,0.033 -0.425,0.061 -0.571,0.08 l 2.331,1.069 q 0.17,-0.276 0.231,-0.44 0.062,-0.164 0.135,-0.417 l -1.485,-0.436 c -0.17,0.069 -0.394,0.104 -0.641,0.144 z m -4.591,0.62 0.863,4.371 q 0.363,-0.045 0.555,-0.083 0.193,-0.038 0.48,-0.121 l -1.552,-4.361 c -0.082,0.095 -0.2,0.163 -0.346,0.194 z m -5.077,0.366 -0.883,0.555 0.198,0.355 0.277,0.354 1.227,-1.033 C 7.339,13.197 7.071,13.115 6.858,13.003 Z m 3.552,-0.416 c -0.037,-0.04 -0.069,-0.083 -0.092,-0.126 -0.085,0.081 -0.176,0.156 -0.271,0.225 l -1.98,3.12 q 0.204,0.148 0.353,0.235 0.149,0.087 0.395,0.236 L 10.471,12.64 C 10.45,12.624 10.429,12.607 10.41,12.587 Z m -1.965,0.658 -1.587,1.541 q 0.437,0.406 0.324,0.301 -0.114,-0.105 0.322,0.301 l 1.791,-2.317 c -0.263,0.09 -0.547,0.149 -0.85,0.174 z m 2.467,-0.497 c -0.019,0.003 -0.056,0.006 -0.097,0.006 -0.021,0 -0.043,-10e-4 -0.063,-0.003 l -1.285,3.813 q 0.283,0.111 0.448,0.162 0.165,0.05 0.489,0.126 l 0.733,-4.126 c -0.02,0.002 -0.04,0.004 -0.059,0.006 -0.084,0.008 -0.147,0.013 -0.166,0.016 z m 0.454,-0.044 -0.247,4.282 q 0.256,0.044 0.411,0.054 0.153,0.01 0.405,0 l -0.208,-4.373 c -0.12,0.013 -0.241,0.025 -0.361,0.037 z"
             fill="#df8f2f"
             id="path8312" />
          <path
             d="m 16.84,11.215 c -0.071,-0.089 -0.017,-1.936 -0.017,-2.417 0,-0.48 -0.249,-0.941 -1.013,-0.941 -1.013,0 -1.511,0.835 -1.511,0.835 0,0 -0.23,-0.533 -0.798,-0.533 -0.925,0 -1.529,0.746 -1.529,0.746 0,0 -0.107,-0.498 -0.303,-0.498 -0.195,0 -0.958,0.463 -1.118,0.587 C 10.464,9.062 10.46,9.263 10.477,9.431 10.196,9.024 9.724,8.905 9.289,8.905 8.896,8.905 8.486,9.109 8.212,9.28 8.369,8.214 8.526,7.18 8.526,7.075 8.526,6.862 8.419,6.826 8.241,6.826 c -0.23,0 -1.439,0.284 -1.439,0.587 0,0.159 0.445,0.159 0.373,0.48 -0.071,0.319 -0.622,2.753 -0.622,3.766 0,1.012 0.853,1.155 1.563,1.155 1.422,0 2.24,-0.774 2.511,-1.703 0.033,0.454 0.061,0.865 0.057,0.966 -0.01,0.248 0.098,0.239 0.179,0.231 0.079,-0.009 0.772,-0.072 0.95,-0.098 0.176,-0.027 0.159,-0.116 0.159,-0.187 0,-0.071 0.071,-2.016 0.08,-2.39 0.009,-0.373 0.453,-0.701 0.746,-0.701 0.295,0 0.408,0.319 0.408,0.577 0,0.257 -0.07,1.99 -0.07,2.248 0,0.257 0.07,0.257 0.168,0.249 0.098,-0.009 0.605,-0.08 0.864,-0.107 0.256,-0.026 0.203,-0.071 0.212,-0.196 0.009,-0.124 0.044,-1.874 0.053,-2.3 0.008,-0.427 0.471,-0.8 0.763,-0.8 0.294,0 0.426,0.302 0.419,0.586 -0.01,0.285 -0.072,1.866 -0.072,2.204 0,0.213 0.035,0.301 0.195,0.284 0.161,-0.018 1.316,-0.16 1.316,-0.249 0,-0.089 -0.142,-0.125 -0.214,-0.213 z m -8.403,1.048 c -0.321,0 -0.551,-0.178 -0.551,-0.569 0,-0.137 0.079,-0.721 0.181,-1.431 0.112,-0.541 0.644,-0.754 0.831,-0.754 0.267,0 0.569,0.16 0.569,1.013 0,1.084 -0.71,1.741 -1.03,1.741 z"
             fill="#ffffff"
             id="path8314" />
          <path
             d="m 11.466,11.339 c -0.021,-0.036 -0.117,-0.131 -0.243,-0.259 0.117,-0.137 0.199,-0.298 0.199,-0.469 0,-0.258 -0.045,-0.382 -0.178,-0.382 -0.132,0 -0.24,0.115 -0.24,0.196 0,0.08 0.133,0.159 0.115,0.266 -0.006,0.038 -0.03,0.12 -0.074,0.209 -0.334,-0.345 -0.742,-0.801 -0.742,-1.063 0,-0.283 0.115,-0.301 0.222,-0.301 0.105,0 0.149,0.142 0.257,0.142 0.089,0 0.204,-0.053 0.204,-0.142 0,-0.089 -0.161,-0.249 -0.426,-0.249 -0.266,0 -0.613,0.16 -0.613,0.613 0,0.108 0.07,0.254 0.174,0.414 -0.139,0.096 -0.388,0.306 -0.388,0.581 0,0.382 0.383,0.631 0.685,0.631 0.139,0 0.365,-0.088 0.567,-0.232 0.097,0.093 0.162,0.152 0.162,0.152 h 0.249 c 0.097,0 0.15,0.027 0.07,-0.107 z m -1.333,-0.506 c 0,-0.139 0.059,-0.261 0.115,-0.346 0.179,0.235 0.406,0.478 0.589,0.66 -0.08,0.056 -0.18,0.094 -0.304,0.094 -0.222,0 -0.4,-0.151 -0.4,-0.408 z"
             fill="#df8f2f"
             id="path8316" />
        </g>
      </g>
    </g>
  </g>
</svg>
