<?xml version="1.0" encoding="UTF-8" standalone="no"?>
<svg
   viewBox="0 0 18.040001 21.999998"
   width="18.040001pt"
   height="21.999998pt"
   version="1.1"
   id="svg1230"
   xmlns="http://www.w3.org/2000/svg"
   xmlns:svg="http://www.w3.org/2000/svg">
  <defs
     id="defs1234" />
  <path
     d="M 15.239,15.551 C 16.916,13.836 18.04,11.588 18.04,9.02 18.04,4.042 13.998,0 9.02,0 4.042,0 -1.9073488e-8,4.042 -1.9073488e-8,9.02 -1.9073488e-8,11.62 1.027,13.787 2.864,15.61 v 0 L 8.653,22 15.25,15.551 Z"
     fill="#FF69B4"
     id="path1228"
     style="fill:#e32712;fill-opacity:1" />
  <path
     d="m 13.885894,7.8523308 c 0,0.7034778 -0.02595,0.7504999 -0.325952,0.5898831 -0.988814,-0.5290409 -2.202119,0.1473022 -2.202119,1.2278001 0,1.143699 1.070217,1.879031 2.034591,1.397855 0.271515,-0.135337 0.49348,-0.176123 0.49348,-0.09051 0,0.08545 0.151683,0.15556 0.337075,0.15556 0.318369,0 0.337076,-0.112415 0.337076,-2.022457 0,-1.9100411 -0.674151,-1.9100411 -0.674151,-1.258136 M 1.4140794,7.846426 c 0,0.3557839 -0.078707,0.4213451 -0.50561472,0.4213451 -0.4269062,0 -0.5056138,0.065561 -0.5056138,0.421345 0,0.3557829 0.078707,0.4213449 0.5056138,0.4213449 H 1.4140794 v 1.011232 c 0,0.898813 0.037418,1.011228 0.3370757,1.011228 0.3166826,0 0.3370764,-0.112415 0.3370764,-1.853919 0,-1.7415028 -0.020398,-1.8539177 -0.3370764,-1.8539177 -0.247245,0 -0.3370757,0.1124149 -0.3370757,0.4213451 M 2.7623836,9.700348 c 0,1.320158 0.026456,1.432573 0.3370757,1.432573 0.2817954,0 0.3370765,-0.112415 0.3370765,-0.685276 0,-0.85078 0.2474133,-1.337181 0.6800507,-1.337181 0.2408412,0 0.331177,-0.1149423 0.331177,-0.4213441 0,-0.4560643 -0.1759534,-0.5194345 -0.6852752,-0.2469086 -0.2246612,0.1203362 -0.3259525,0.1203362 -0.3259525,0 0,-0.095898 -0.1516849,-0.1744369 -0.3370765,-0.1744369 -0.3106155,0 -0.3370757,0.1124149 -0.3370757,1.4325736 M 5.0526462,8.7863691 C 4.3147868,9.663272 4.5642235,10.692534 5.6207879,11.130227 6.179492,11.361629 6.9362275,11.165617 7.333809,10.686298 7.647795,10.308099 7.245329,9.977596 6.8054418,10.252313 c -0.3911767,0.244211 -1.1779124,0.275222 -1.1779124,0.04635 0,-0.08797 0.4550528,-0.249605 1.0112285,-0.358986 C 7.777907,9.715517 7.858973,9.553215 7.213641,8.7863662 6.8666208,8.3737855 6.6454996,8.2677749 6.1331441,8.2677749 c -0.5123562,0 -0.7334779,0.1060106 -1.0804979,0.5185913 M 8.099478,8.3801919 C 8.037628,8.4418769 7.987062,9.086535 7.987062,9.812765 c 0,1.29589 0.0078,1.320159 0.421345,1.320159 0.396402,0 0.421345,-0.05275 0.421345,-0.893251 0,-0.931004 0.19837,-1.2977436 0.701962,-1.2977436 0.412749,0 0.646343,0.5137036 0.646343,1.4214496 0,0.65713 0.04922,0.769545 0.337076,0.769545 0.302525,0 0.337076,-0.112415 0.337076,-1.095497 0,-0.870837 -0.0691,-1.1645988 -0.337076,-1.4325739 C 10.146034,8.2357548 9.655758,8.1745756 9.165986,8.4368207 c -0.211009,0.1129205 -0.350391,0.1129205 -0.420165,0 C 8.626832,8.2443503 8.266836,8.2128337 8.099478,8.3801917 m 6.797644,0.117134 c 0,0.1264035 0.227526,0.7815123 0.505614,1.4558323 0.278088,0.674321 0.505614,1.290159 0.505614,1.368191 0,0.07821 -0.189605,0.189774 -0.421345,0.24792 -0.263594,0.06623 -0.421345,0.225167 -0.421345,0.424547 0,0.452693 0.697242,0.415278 1.12516,-0.06033 0.279941,-0.311122 1.571448,-3.2650886 1.571448,-3.5942431 0,-0.052247 -0.166347,-0.070618 -0.369604,-0.041123 -0.269661,0.039438 -0.467524,0.2979753 -0.731624,0.9564541 l -0.362019,0.902688 -0.383424,-0.944824 c -0.274886,-0.6771889 -0.473424,-0.9446589 -0.70095,-0.9446589 -0.174606,0 -0.317525,0.103314 -0.317525,0.2295489 M 5.6696642,9.053501 c -0.3246037,0.130955 -0.2494357,0.394043 0.1125836,0.394043 0.4767938,0 0.8679707,-0.18219 0.761286,-0.354773 C 6.4442648,8.9323223 6.0176953,8.9131091 5.6696642,9.053504 m 6.5418038,0.204943 c -0.257189,0.48067 -0.222808,0.771736 0.128763,1.089936 0.415447,0.376008 0.92224,0.351401 1.297406,-0.0632 C 13.882691,10.01451 13.913871,9.847152 13.78713,9.484627 13.657861,9.114685 13.507694,9.016259 13.00899,8.9746301 12.53169,8.9346891 12.350175,8.9992341 12.211468,9.258449"
     style="fill:#b2b2b2;fill-rule:evenodd;stroke:none;stroke-width:0.168538"
     id="path11482" />
</svg>
