<?xml version="1.0" encoding="UTF-8" standalone="no"?>
<svg
   viewBox="0 0 18.040001 21.999998"
   width="18.040001pt"
   height="21.999998pt"
   version="1.1"
   id="svg1230"
   xmlns="http://www.w3.org/2000/svg"
   xmlns:svg="http://www.w3.org/2000/svg">
  <defs
     id="defs1234" />
  <path
     d="M 15.239,15.551 C 16.916,13.836 18.04,11.588 18.04,9.02 18.04,4.042 13.998,0 9.02,0 4.042,0 -1.9073488e-8,4.042 -1.9073488e-8,9.02 -1.9073488e-8,11.62 1.027,13.787 2.864,15.61 v 0 L 8.653,22 15.25,15.551 Z"
     fill="#FF69B4"
     id="path1228"
     style="fill:#e32712;fill-opacity:1" />
  <path
     d="M 4.3112904,3.5256618 C 4.1786566,3.5513398 3.9412432,3.7255374 3.7836928,3.9129004 3.5518284,4.1883958 3.5088502,4.3272315 3.5586832,4.6402648 c 0.080407,0.5057277 0.5063805,0.8764279 1.0069944,0.8764279 0.5229189,0 0.7931917,-0.1679956 0.9766377,-0.6071344 C 5.7612319,4.3855513 5.5280615,3.8314051 4.9950239,3.6086803 4.7853558,3.521092 4.5999513,3.4560263 4.5830865,3.4641867 4.5662215,3.4723467 4.4439243,3.4999837 4.3112904,3.5256617 M 11.534013,7.1907732 C 11.2447,7.2713982 10.791851,7.4897706 10.527563,7.6760455 L 10.047078,8.014757 V 7.636114 7.2575798 H 9.067829 8.08858 v 3.8625932 3.862594 h 0.979249 0.979249 v -2.317992 c 0,-2.268702 0.0058,-2.329742 0.278434,-2.876707 0.220875,-0.443164 0.382015,-0.608875 0.77872,-0.801026 0.463402,-0.224248 0.532385,-0.230776 0.935727,-0.08813 0.23959,0.08465 0.537934,0.292034 0.662952,0.4609 0.213803,0.288443 0.22947,0.466667 0.260153,2.964949 l 0.03254,2.658008 h 0.973917 0.973809 l -0.0026,-2.747338 C 14.93793,9.334134 14.86934,8.743647 14.46382,8.1265022 13.940029,7.3293915 12.587033,6.8972162 11.534013,7.1907733 M 2.7571134,8.0644811 V 8.768888 l 0.516826,0.03318 0.5168258,0.03319 0.028942,3.073754 0.028833,3.073754 H 4.7731696 5.6976895 L 5.6690737,11.201778 5.6404579,7.420788 4.1987856,7.3904313 2.7571134,7.3600746 v 0.7044065"
     stroke="none"
     fill="#ffffff"
     fill-rule="evenodd"
     id="path9472"
     style="stroke-width:0.108806" />
</svg>
