<?xml version="1.0" encoding="UTF-8" standalone="no"?>
<svg
   viewBox="0 0 18.040001 21.999998"
   width="18.040001pt"
   height="21.999998pt"
   version="1.1"
   id="svg18"
   xmlns="http://www.w3.org/2000/svg"
   xmlns:svg="http://www.w3.org/2000/svg">
  <defs
     id="defs22" />
  <path
     d="M 15.239,15.551 C 16.916,13.836 18.04,11.588 18.04,9.02 18.04,4.042 13.998,0 9.02,0 4.042,0 -1.9073488e-8,4.042 -1.9073488e-8,9.02 -1.9073488e-8,11.62 1.027,13.787 2.864,15.61 v 0 L 8.653,22 15.25,15.551 Z"
     fill="#FF69B4"
     id="path16"
     style="fill:#02275a;fill-opacity:1" />
  <g
     transform="matrix(0.02740226,0,0,0.02740226,-9.9313695,1.8090027)"
     id="layer1">
    <g
       id="g2451">
      <path
         d="m 817.01601,187.99314 c 0,0 13.95415,23.89767 33.45467,30.01737 l -14.21616,-30.01737 z"
         id="path3"
         style="fill:#e20177" />
      <path
         d="m 792.65268,187.99314 -8.02577,37.77788 h -13.94377 c -14.18244,0.0882 -26.33232,6.46991 -34.85942,17.83506 -7.79035,10.33784 -12.88988,26.12413 -12.88988,39.31818 0,20.0427 12.71671,31.45455 33.07591,31.45455 0.47733,0 29.18464,0 29.18464,0 L 811.8659,187.99314 Z m -373.88756,15.403 -13.29522,62.99016 c -0.1816,0.73935 -9.49084,47.99251 29.02249,47.99251 h 19.61856 l 2.8374,-13.45736 h -31.77883 c -1.62915,-0.0908 -6.31685,-0.89175 -5.18837,-7.37722 l 19.13214,-90.14809 z m 86.33787,22.37488 c -1.35427,-0.0245 -2.4327,0.0441 -2.99953,0.0811 -8.44668,0.76529 -15.60146,2.82962 -20.75352,4.78304 l -1.94564,9.2418 h 31.69775 c 0,0 8.13797,0.0402 6.48548,7.94471 l -2.02672,8.83645 c -26.62157,2.53972 -49.7546,9.12053 -54.55904,31.69776 -3.41914,16.1151 5.63847,25.54822 27.7254,26.02296 h 32.75164 l 10.45783,-49.2896 c 7.89022,-35.46516 -17.35377,-39.14638 -26.83365,-39.31819 z m 80.98735,0 c -17.16057,0 -30.25149,6.8117 -38.99391,18.72681 -7.62692,10.33006 -12.88988,26.93352 -12.88988,39.96673 0,18.43691 10.87744,29.91425 27.88754,29.91425 6.83829,0 12.2316,-1.16479 15.88941,-2.91846 l -0.97282,4.37769 c -2.38665,10.64655 -9.84495,18.88894 -23.67198,18.88894 -7.80851,0 -15.17666,-1.86198 -19.53749,-4.13449 l -2.99953,14.18698 c 6.1145,2.32439 14.40359,3.78946 23.1045,3.81021 9.65038,-0.2205 35.69605,-4.15394 43.1284,-38.34536 l 16.21368,-78.63637 c -5.24544,-3.18826 -15.07937,-5.83693 -27.15792,-5.83693 z m 64.6926,0 c -1.35435,-0.0245 -2.35163,0.0441 -2.91846,0.0811 -8.4441,0.76529 -15.60146,2.82962 -20.75352,4.78304 l -2.02671,9.2418 h 31.69776 c -10e-6,0 8.13797,0.0402 6.48547,7.94471 l -1.94564,8.83645 c -26.61899,2.53972 -49.7598,9.12053 -54.55905,31.69776 -3.42174,16.1151 5.55481,25.54822 27.64433,26.02296 h 32.75164 l 10.5389,-49.2896 c 7.88569,-35.46744 -17.43427,-39.14635 -26.91472,-39.31819 z m 79.77133,0 c -10.15776,0.14309 -38.09113,4.55491 -47.01969,47.42503 l -8.83645,41.18276 h 18.15932 l 13.78164,-66.96252 c 1.47868,-6.44915 6.32203,-7.34934 7.78256,-7.45829 h 16.86224 l 2.99953,-14.02484 c 0,0 -1.38507,-0.19516 -3.72915,-0.16214 z m 115.60357,0 c -14.30958,0 -26.4322,6.72544 -34.69729,18.64574 -7.15474,10.33785 -11.75492,25.46392 -11.75492,38.18323 0,20.82875 12.71153,31.77882 32.75165,31.77882 8.70091,0 16.55352,-1.52863 22.69915,-3.64808 l 3.0806,-14.59232 c -4.88747,2.30883 -13.03645,4.94518 -21.8074,4.94518 -15.58589,0 -19.35201,-11.03893 -18.07826,-24.07732 l 53.9105,-7.4583 c 1.27115,-5.56453 1.86457,-10.6258 1.86457,-15.24086 3e-5,-18.60293 -10.47858,-28.53609 -27.9686,-28.53609 z m 78.06889,0 c -10.15776,0.14309 -38.01007,4.55491 -46.93862,47.42503 l -8.83645,41.18276 h 18.15932 l 13.78163,-66.96252 c 1.48129,-6.44915 6.32204,-7.34934 7.78257,-7.45829 h 16.86223 l 2.99954,-14.02484 c 0,0 -1.46611,-0.19516 -3.81022,-0.16214 z m 36.80506,0 c -14.30952,0 -26.34853,6.72544 -34.61621,18.64574 -7.15478,10.33785 -11.75492,25.46392 -11.75492,38.18323 0,20.82875 12.71412,31.77882 32.75164,31.77882 8.70091,0 16.47505,-1.52863 22.61809,-3.64808 l 3.16167,-14.59232 c -4.88746,2.30883 -13.03645,4.94518 -21.80741,4.94518 -15.58846,0 -19.43307,-11.03893 -18.15933,-24.07732 l 53.9105,-7.4583 c 1.27118,-5.56453 1.86458,-10.6258 1.86458,-15.24086 2e-5,-18.60293 -10.47339,-28.53609 -27.96861,-28.53609 z M 773.3584,236.95847 c 0.18162,0 8.91752,0 8.91752,0 l -13.8627,65.26008 h -11.0253 c -10.69585,-0.358 -15.24087,-7.8163 -15.24087,-19.13215 0,-10.17961 3.35299,-23.68106 8.59326,-32.26523 5.09501,-8.43112 12.4333,-13.8627 22.61809,-13.8627 z m 70.77273,0 c 8.10944,0 12.64667,5.14103 12.64667,15.15979 3e-5,2.86399 -0.33854,6.47186 -1.13496,9.97142 l -36.80506,5.10731 c 1.27115,-6.20011 3.12211,-11.4313 5.35052,-15.72728 4.93155,-9.22234 12.15248,-14.51124 19.94283,-14.51124 z m 114.87395,0 c 8.10946,0 12.72774,5.14103 12.72774,15.15979 3e-5,2.86399 -0.33854,6.15277 -1.13495,9.64714 l -36.88614,5.43159 c 1.27635,-6.20011 3.20059,-11.4313 5.43159,-15.72728 4.92636,-9.22234 12.07141,-14.51124 19.86176,-14.51124 z m -375.50893,0.0811 c 4.92378,0 7.81759,0.75555 9.56608,1.70243 l -12.72775,61.612 c -3.02223,1.59283 -7.14115,2.75633 -11.59278,2.75633 -10.8074,0 -15.56514,-6.22735 -15.56514,-17.34864 0,-10.01617 3.49567,-24.73625 8.26898,-33.48126 5.4011,-9.85533 12.51437,-15.24086 22.05061,-15.24086 z m -69.88098,28.86035 -7.7015,36.31866 h -13.13308 c -10.24964,-0.43064 -15.63064,-3.90361 -13.37629,-14.51125 3.31019,-15.5833 15.45488,-19.579 34.21087,-21.80741 z m 145.76103,0 -7.7015,36.31866 h -11.67386 c -0.51625,-10e-6 -1.5403,0 -1.5403,0 -10.24965,-0.43064 -15.54957,-3.90361 -13.29522,-14.51125 3.30759,-15.5833 15.45229,-19.579 34.21088,-21.80741 z"
         id="path5"
         style="fill:#ffffff" />
    </g>
  </g>
</svg>
