<?xml version="1.0" encoding="UTF-8" standalone="no"?>
<svg
   viewBox="0 0 16.051565 8.6443319"
   width="16.051565pt"
   height="8.6443319pt"
   version="1.1"
   id="svg1247"
   xmlns="http://www.w3.org/2000/svg"
   xmlns:svg="http://www.w3.org/2000/svg">
  <defs
     id="defs1251" />
  <path
     d="m 13.133547,0.04525119 c -0.13998,0.053073 -0.296149,0.1607692 -0.423361,0.2919626 -0.05222,0.05387 -0.102205,0.092996 -0.11106,0.08696 -0.0338,-0.0230231 -0.637584,-0.1232609 -1.002618,-0.1664389 C 11.106374,0.19974759 10.009923,0.17689779 9.4846919,0.21371689 8.2469489,0.30046099 7.1399199,0.53592339 5.7599508,1.0059434 4.7372136,1.3542973 3.7787863,1.7827132 2.7976772,2.3300784 1.7999092,2.8867344 0.89824411,3.5248961 0.20691001,4.1637043 l -0.1955296,0.1806663 -0.00569,0.178424 L 4.1348266e-7,4.7012186 0.19799371,4.5272996 C 0.80912161,3.9905618 1.6220164,3.4252399 2.4946063,2.9301495 4.4564912,1.8170529 6.5596659,1.1573993 8.7407989,0.97108569 c 0.334883,-0.028606 1.249316,-0.028692 1.5554381,-1.295e-4 0.668516,0.062342 1.298316,0.18719761 1.849808,0.36672101 l 0.129147,0.042036 0.01139,0.1455286 c 0.03148,0.4022677 0.202471,0.6900699 0.469134,0.7896398 0.154976,0.057858 0.573429,0.028261 0.594547,-0.042036 0.01,-0.033176 -0.213499,-0.315136 -0.405685,-0.5118615 -0.174999,-0.1791569 -0.167216,-0.1835112 0.08226,-0.046066 0.936255,0.5158494 1.533168,1.3456061 1.689532,2.3486347 0.04868,0.3122468 0.04452,0.75571 -0.0098,1.045495 -0.16051,0.856099 -0.64638,1.812953 -1.403824,2.764634 -0.101435,0.127443 -0.187767,0.231733 -0.191833,0.231733 -0.0041,0 0.07862,-0.191983 0.183739,-0.426605 0.105137,-0.234644 0.223588,-0.516021 0.263261,-0.625293 l 0.07212,-0.198687 V 5.6693688 4.4839066 h -0.527929 -0.527931 v 2.0802122 2.080211 h 0.545821 0.545802 l 0.258861,-0.274846 c 0.998688,-1.060348 1.749071,-2.304595 2.011667,-3.335626 0.09595,-0.3766792 0.124436,-0.6408562 0.112782,-1.0454515 -0.0082,-0.2823055 -0.0205,-0.4007805 -0.05976,-0.5723926 C 15.858565,2.8440955 15.638849,2.3861903 15.277294,1.9321005 15.030966,1.62272 14.618789,1.2684374 14.310558,1.1011582 l -0.127095,-0.068981 -0.0226,-0.20286921 c -0.04749,-0.4259585 -0.201164,-0.6790761 -0.477233,-0.7860615 -0.150812,-0.0584184 -0.393013,-0.0575562 -0.550083,0.0020055 M 3.0844991,4.4188926 c -0.2457995,0.049 -0.4415444,0.178078 -0.5850045,0.385733 L 2.4066176,4.9390738 V 4.7222786 4.5054626 H 1.8884645 1.3703111 v 2.0694342 2.069433 h 0.537198 0.5371785 l 0.00541,-1.492794 c 0.00506,-1.400446 0.00763,-1.497732 0.041453,-1.572705 0.072952,-0.16176 0.1729849,-0.235894 0.3186157,-0.236132 0.1125075,-1.71e-4 0.1944934,0.05313 0.246387,0.16021 l 0.044185,0.09116 0.00556,1.525129 0.00556,1.525129 h 0.5370806 0.5370805 v -1.421679 c 0,-0.932538 0.00728,-1.458842 0.021017,-1.529721 0.043735,-0.224834 0.1686622,-0.346759 0.3553342,-0.346759 0.1055657,0 0.1223631,0.0066 0.1808453,0.07107 0.035452,0.03908 0.074126,0.109426 0.085919,0.156285 0.014628,0.05805 0.021509,0.560881 0.021563,1.578009 l 1.166e-4,1.492794 h 0.5377066 0.537706 v -1.688744 c 0,-1.600297 -0.002,-1.697301 -0.03789,-1.852121 C 5.8167371,4.7948126 5.7074523,4.6339786 5.4901219,4.5174226 5.2253548,4.3754076 4.8379517,4.3651686 4.583783,4.4934526 c -0.1232813,0.06223 -0.293646,0.233199 -0.3796983,0.3810122 -0.033687,0.05788 -0.067363,0.10524 -0.074832,0.10524 -0.00749,0 -0.024388,-0.03287 -0.037539,-0.07303 C 4.029657,4.7174626 3.8519643,4.5416036 3.6452888,4.4648406 3.5103541,4.4147216 3.2234145,4.3912036 3.0845879,4.4188816 m 5.560666,0.01233 c -0.250277,0.05982 -0.475704,0.231863 -0.588876,0.4493912 l -0.05715,0.109874 -1.96e-4,-0.2425122 -1.77e-4,-0.242511 h -0.518152 -0.518154 v 2.0694332 2.069433 h 0.536944 0.536943 l 0.0057,-1.471237 0.0057,-1.471238 0.05866,-0.128369 c 0.06641,-0.145336 0.128171,-0.204012 0.237412,-0.225591 0.153648,-0.03035 0.271826,0.0371 0.337035,0.192286 0.0281,0.06687 0.03234,0.247555 0.03744,1.589798 l 0.0058,1.514351 h 0.536845 0.536847 v -1.462011 c 0,-1.614007 -0.0019,-1.587212 0.122637,-1.727654 0.07481,-0.08436 0.1340541,-0.111777 0.2418101,-0.111961 0.112508,-1.73e-4 0.194493,0.05313 0.246388,0.160208 l 0.0442,0.09117 0.0056,1.52513 0.0056,1.525129 h 0.537843 0.537843 l -0.0061,-1.729917 c -0.0068,-1.884671 -0.002,-1.801399 -0.117787,-2.053266 C 11.29255,4.5927036 11.062528,4.4439846 10.716734,4.4091486 10.324071,4.3695686 10.019143,4.5272146 9.8070329,4.8794278 l -0.07289,0.121019 -0.05455,-0.127184 c -0.10848,-0.2528812 -0.319671,-0.4092312 -0.611499,-0.4527752 -0.192616,-0.02871 -0.265412,-0.02688 -0.422715,0.01073"
     stroke="none"
     fill="#fffcfc"
     fill-rule="evenodd"
     id="path12"
     style="stroke-width:0.0205304" />
</svg>
