<?xml version="1.0" encoding="UTF-8" standalone="no"?>
<svg
   viewBox="0 0 18.040001 21.999998"
   width="18.040001pt"
   height="21.999998pt"
   version="1.1"
   id="svg1230"
   xmlns="http://www.w3.org/2000/svg"
   xmlns:svg="http://www.w3.org/2000/svg">
  <defs
     id="defs1234" />
  <path
     d="M 15.239,15.551 C 16.916,13.836 18.04,11.588 18.04,9.02 18.04,4.042 13.998,0 9.02,0 4.042,0 -1.9073488e-8,4.042 -1.9073488e-8,9.02 -1.9073488e-8,11.62 1.027,13.787 2.864,15.61 v 0 L 8.653,22 15.25,15.551 Z"
     fill="#FF69B4"
     id="path1228"
     style="fill:#c8255c;fill-opacity:1" />
  <path
     d="M 8.833577,4.2541719 C 8.613472,4.3101446 6.3583457,5.6307748 6.1602512,5.8196861 6.0936383,5.8832359 6.4581943,6.6266394 6.5535244,6.621538 6.600753,6.6190814 6.7705683,6.5176075 6.9309098,6.3960399 7.217629,6.1788498 7.223605,6.2037762 7.295321,7.8917315 l 0.07289,1.7163805 1.239,-0.04665 C 9.288661,9.535812 9.875948,9.485522 9.912389,9.449808 9.948689,9.414248 9.981479,8.3325215 9.985269,7.0461471 9.991769,4.760558 9.984069,4.7010863 9.647825,4.4277777 9.458623,4.2739953 9.26184,4.1557803 9.21053,4.1651093 9.15936,4.1744393 8.989696,4.2145263 8.833582,4.2541713 M 5.1655565,9.312647 c -0.1451811,0.37826 0.05816,0.69078 0.41645,0.639907 0.2408036,-0.03425 0.3285542,-0.14387 0.3285542,-0.411057 0,-0.267186 -0.087751,-0.376801 -0.3285542,-0.411056 -0.1972194,-0.02798 -0.3638284,0.0449 -0.41645,0.182206 m 7.0857725,0.884791 c 0,0.120256 -0.0656,0.218648 -0.145765,0.218648 -0.08017,0 -0.145765,0.09839 -0.145765,0.218648 0,0.120254 0.06559,0.218647 0.145765,0.218647 0.08017,0 0.146784,0.311644 0.147951,0.692382 0.0013,0.380738 0.05991,0.78334 0.130314,0.894558 0.0704,0.111074 0.462948,0.234245 0.872256,0.273601 0.678389,0.06515 0.744421,0.04475 0.744421,-0.229726 0,-0.24299 -0.105826,-0.310041 -0.546618,-0.346627 -0.533062,-0.04402 -0.546618,-0.05977 -0.546618,-0.628247 0,-0.568483 0.01356,-0.584226 0.546618,-0.628246 0.735384,-0.06094 0.763078,-0.46499 0.03192,-0.46499 -0.32316,0 -0.546035,-0.08148 -0.598656,-0.218648 -0.04621,-0.120255 -0.208152,-0.218647 -0.359894,-0.218647 -0.15174,0 -0.275932,0.0984 -0.275932,0.218647 M 1.3189701,11.582204 c 0,1.059418 0.026094,1.166118 0.2845331,1.166118 0.2473628,0 0.2903629,-0.119382 0.3279707,-0.911029 0.039068,-0.818324 0.076818,-0.91584 0.3714085,-0.957676 0.3085835,-0.04373 0.3279708,0.0046 0.3279708,0.822551 0,0.660023 0.055827,0.890624 0.2317656,0.958112 0.3950227,0.151596 0.4970578,-0.04344 0.4970578,-0.951115 0,-0.825175 0.019092,-0.873422 0.3279709,-0.829548 0.2878856,0.04096 0.3335096,0.144308 0.3731581,0.845145 0.040811,0.719786 0.1857039,1.014814 0.5014306,1.021374 0.1841009,0.0036 0.1241916,-1.965347 -0.065591,-2.155132 C 4.383238,10.4776 3.7937656,10.416086 2.8203484,10.416086 H 1.3189713 v 1.166118 m 3.9356486,0 c 0,1.068893 0.024344,1.166118 0.2915298,1.166118 0.2671863,0 0.291529,-0.09723 0.291529,-1.166118 0,-1.068893 -0.024343,-1.166118 -0.291529,-1.166118 -0.267187,0 -0.2915298,0.09723 -0.2915298,1.166118 m 1.1964372,-0.03644 c 0.038338,1.018313 0.071281,1.129677 0.3340935,1.129677 0.2558164,0 0.2967774,-0.111653 0.3349664,-0.91103 0.04285,-0.901992 0.04767,-0.91103 0.473736,-0.91103 0.42782,0 0.430298,0.0049 0.430298,0.858993 0,0.650694 0.05627,0.880564 0.231766,0.947908 0.393564,0.151013 0.497057,-0.04271 0.497057,-0.930563 0,-1.141192 -0.183955,-1.313632 -1.401236,-1.313632 H 6.4084938 l 0.042561,1.129677 M 9.336031,11.33557 c 0,1.179091 0.163257,1.338558 1.370043,1.339286 l 0.889311,5.83e-4 0.04256,-1.129677 c 0.04242,-1.123992 0.04067,-1.129677 -0.327971,-1.129677 -0.355666,0 -0.370533,0.03498 -0.370533,0.87459 0,0.871236 -0.0016,0.874588 -0.430006,0.874588 -0.421261,0 -0.430881,-0.01706 -0.473736,-0.838148 -0.03877,-0.742525 -0.08119,-0.843394 -0.371701,-0.884792 -0.311061,-0.04417 -0.32797,0.0021 -0.32797,0.893247 m 5.276684,-0.744566 c -0.09621,0.09621 -0.174917,0.521108 -0.174917,0.944118 0,0.652735 0.05335,0.804184 0.352459,1.000092 0.454349,0.297797 1.615365,0.241386 1.615365,-0.07842 0,-0.151158 -0.202467,-0.241095 -0.655941,-0.291529 -0.837564,-0.093 -0.847039,-0.342693 -0.01662,-0.437294 0.746461,-0.08513 1.084489,-0.462074 0.882022,-0.983913 -0.111653,-0.28803 -0.2306,-0.327971 -0.977353,-0.327971 -0.467467,0 -0.928813,0.07871 -1.025019,0.174919 m 0.505368,0.359602 c -0.222874,0.222874 -0.06792,0.355665 0.365287,0.31281 0.603173,-0.05948 0.737277,-0.410037 0.156987,-0.410037 -0.233807,0 -0.468925,0.04373 -0.522274,0.09723"
     style="fill:#ffffff;fill-rule:evenodd;stroke:none;stroke-width:0.145765"
     id="path12391" />
</svg>
