<?xml version="1.0" encoding="UTF-8" standalone="no"?>
<!-- Generator: Adobe Illustrator 19.2.1, SVG Export Plug-In . SVG Version: 6.00 Build 0)  -->

<svg
   version="1.1"
   id="layer"
   x="0px"
   y="0px"
   viewBox="0 0 198.5 184.2229"
   xml:space="preserve"
   sodipodi:docname="baa-baa-bs.svg"
   width="198.5"
   height="184.2229"
   inkscape:version="1.1.2 (0a00cf5339, 2022-02-04)"
   xmlns:inkscape="http://www.inkscape.org/namespaces/inkscape"
   xmlns:sodipodi="http://sodipodi.sourceforge.net/DTD/sodipodi-0.dtd"
   xmlns="http://www.w3.org/2000/svg"
   xmlns:svg="http://www.w3.org/2000/svg"><defs
   id="defs7" /><sodipodi:namedview
   id="namedview5"
   pagecolor="#ffffff"
   bordercolor="#666666"
   borderopacity="1.0"
   inkscape:pageshadow="2"
   inkscape:pageopacity="0.0"
   inkscape:pagecheckerboard="0"
   showgrid="false"
   inkscape:zoom="1.1027607"
   inkscape:cx="98.38943"
   inkscape:cy="102.4701"
   inkscape:window-width="1720"
   inkscape:window-height="1403"
   inkscape:window-x="0"
   inkscape:window-y="0"
   inkscape:window-maximized="1"
   inkscape:current-layer="layer" />
<path
   d="m 66.4,7.4451205 c 0,0.7 1,-0.3 1,0.7 0.3,-0.3 0.7,0 0.7,-0.7 1,0.7 1.7,0.7 2.7,0.3 0.7,0.7 1.3,0.3 2.3,1 0.3,-0.3 0,-0.7 0.7,-0.7 -0.3,1 0.3,0 0.7,0 0.7,-1 3,-2 3.3,-3 0.3,-0.3 1.7,-1 1.3,-1 4,-3.70000005 12.7,-5.7 18.3,-2.3 1.7,0.3 3.3,0.7 4.3,2 0.7,-0.3 0.7,0.3 2,0.7 0.3,-0.3 1,0 0.7,-0.7 4.3,0 8.7,-0.3 13,2 1.3,0.7 2.7,1.7 4,2.3 2.3,1.3 4.3,3.2999995 6.3,5.2999995 1.7,1.7 4.3,4 5.3,6.7 h -0.3 c 0.7,2 2,3.3 2.3,5.3 0,0.3 0.3,0.3 0.7,0.3 -0.3,0.3 0.3,0.3 -0.3,0.7 0.7,0.7 1.3,2.7 0.7,3 1.3,1.7 1.3,5.3 1.3,6.7 0.7,0.7 0.3,1.3 0.7,2 1,0.7 3.7,0.7 4.3,0.3 0.3,0 0.3,0.7 0.7,0.3 0.3,0 0,-0.3 0,-0.7 1.3,-0.3 1.7,0 2.3,0.3 0.3,-0.3 -0.3,-0.7 -0.3,-0.3 0,-0.3 1,0 1,0.3 0.7,-0.3 1.7,-0.7 2,0 -0.3,-1 0.3,0.3 1.3,-0.7 0.3,0 0.3,0.3 0.3,0.7 l 0.3,-0.3 c 1,0.3 1,0.3 2,0.7 0.7,0 0,-0.7 0.7,-0.7 0,0.7 0.7,0 1,0 0.3,0.3 1,1 1.3,0.7 0.3,0 0,-0.7 0,-1 1.3,0.7 3.3,1.3 5,0.7 1.7,1 3.7,0.7 5.3,1 10.3,1.7 19.7,7.7 25.3,17 0.7,1.3 2,2.3 2.7,3.7 2,3.7 1,7.3 1.3,10.3 -0.7,5 -4.3,9.7 -9.7,12 0,0 -0.7,0.3 -0.7,1 -4,1.7 -8.7,3.3 -12.3,5 -3,0 -6,1 -9,2 0.7,1.7 1.7,3.7 2.7,5.3 0.3,0.7 1.7,2 2.3,3 1,1.7 2.3,4.3 1.7,4.7 0.7,0.7 1.3,2.7 1,3 0.3,0.3 0.7,1 1,1.3 -0.7,0 -0.3,0.7 -1,0.3 0.3,0.7 1.3,1.7 0.3,1 0.3,0.3 0.7,0.3 1,0 0,0.3 0,0.7 0.3,0.7 -0.3,0 -0.7,0.3 -0.7,1 0,0.3 0.3,0.3 0.7,0.3 0,0.3 -0.3,0 -0.7,0.3 0,0 0.3,0.3 0.7,0.3 0,0.3 -0.3,0 -0.3,0 0.3,0.3 0.7,0.7 0.7,0.7 0,0.7 -0.7,-0.7 -1,-0.3 -0.3,0.7 0.7,0.3 0.3,1 0.7,0 -0.7,0 0,-0.3 l -0.3,0.3 c 0.3,0.3 0.7,0.7 0,0.7 0,0.7 0.3,0.3 0.7,0.3 -0.3,0.3 0,1.3 -0.7,1 -0.3,0 0.3,0.7 0.3,0.7 -0.7,0.3 -0.3,1 0.3,1.7 -0.3,0.3 -0.3,-0.7 -1,0 0.7,0.7 0,0 0,1 -0.7,-0.3 -0.7,0 -0.7,0.3 0,0 0,0 0.3,0 v 0 c 0.7,-0.7 1.7,1.7 1.7,1.3 -1,1 -1,1.7 -0.3,4 -1,-0.3 -0.3,1 -1.3,1 0,0.3 0.7,0 0.7,0.3 -0.7,0 0,1.3 0.3,1.7 -0.3,0.7 -1.7,0.7 -0.7,1 0,0.3 0,0 -0.3,0 -0.3,0 0,0 0,0.3 -0.3,0 0,0 0,-0.3 -1,0.3 0.7,1 -0.7,1.3 0.7,0.3 0.7,0.3 1,1.3 l 0.3,-0.3 c 0,0.3 0.3,0.7 0.7,0.3 0,0.3 0,0.3 -0.3,0.3 0.3,0.3 0.7,0 1,-0.3 -0.3,0.3 0.3,0.7 0,1 0,0.3 0.7,-0.3 0.3,0.3 0,0.3 0.3,-0.3 0.3,-0.3 0,-0.7 0.3,0.3 0,0.3 0.3,0.3 1,-0.3 1.3,0.7 0.3,-0.3 0.3,-0.3 0.3,0 0.3,0 0.7,-0.3 0.3,-0.7 0.3,0 0.3,1 1,0.7 0,0.3 0,0.7 0.3,1 0.3,0 0.3,-0.3 0.3,-0.7 0.3,0 1.3,0.3 1,1 0.3,-0.7 0.7,-0.3 0.7,0.3 0.7,-0.3 0.3,-0.7 0,-1 0.3,0 0.3,1 1,0.7 0,0.3 0.3,1 -0.3,1 0.3,0.3 0.7,0 1,-0.3 0.3,0.7 0.7,0.3 0.7,1 0.3,-0.7 1.3,0.3 1.7,1 l 0.3,-0.3 c 0,0.7 2,1.3 1.7,2 0.7,0 1.7,0.3 1.7,1 1,0.3 3,1.7 3.3,3 0,0.3 0.3,0 0.7,0 2.3,2.7 4.7,5.3 6.7,8.3 0,0.3 0,0.7 -0.3,0.7 1.3,0 0.7,2 1.3,2.3 -0.3,0 -0.3,0.3 -0.7,0.3 0.7,0.3 0,1.7 1,2 -0.3,0.3 -1,0 -1.3,0.7 0,0 0,0.3 0.3,0.7 0.7,0 0,-0.7 0.7,-0.7 0,0.3 0,0.7 0,1 -0.7,-0.3 -0.7,0 -1.3,0.3 0,0.3 0.7,0 0.7,0.3 -0.3,0 -0.7,0.3 -1,1 0.3,0.7 1,1.3 0,1.3 v 0.3 c 0.3,0.3 0.3,-0.3 0.7,-0.3 -0.3,0.3 0,0.3 0.3,1 -0.7,0 -0.7,0.3 -1,0 0.3,0.3 0.3,1.7 -0.3,1.7 0,0.7 0.7,0 0.7,0.7 -0.7,0.3 -1,-0.7 -0.7,-1 -0.7,0 -1,1 -1.7,0 0.7,1 0,2 -1,2.7 0.3,0.3 0.7,1.7 1.3,1.3 0,0.7 -0.7,0 -1,0.3 0,-0.7 0,-0.7 -0.7,-1.3 -0.7,1 -1.7,0.3 -1,1.7 -0.3,0 -1,0 -1,-0.7 -1,0.3 0.3,1 -0.3,1.3 0.3,0.3 0.3,0.3 0.7,0 v 0.3 c 0,0 0,0 0,0.3 -0.3,0 0,-0.3 0,-0.3 0,0.7 -0.7,-0.3 -0.7,0.3 -0.7,0 0,-0.7 -0.3,-1 -0.3,0.3 0,1.3 -1,1.7 0,0.3 1,0.3 0.3,0.7 -0.3,-0.3 -0.3,-1 -1,-1 0.3,0.3 0,1 -0.7,0 -0.3,1 1,1 0.3,1.7 0.3,0 0.3,0.7 0.7,0.7 0,0.3 -1,-0.7 -1.3,-0.3 0,-0.3 0,-1.3 -0.7,-1.3 0,0.7 0,0.3 -0.3,1 -0.3,0 -0.3,-1 -0.7,-1 -0.3,0.3 0.3,1 0.3,1.7 -0.7,-0.3 -1,0 -1.7,0.7 -0.7,-0.7 -1,0 -1.3,-0.7 -0.3,0.7 -1.3,0.7 -1.7,0 -0.3,0.3 -0.3,0.3 -0.3,0.7 -1,-0.7 -2.3,0 -3,-1 -1.7,1 -3.3,-0.3 -5,-0.7 -2,-0.7 -4.7,-1 -6.7,-1.7 -0.3,0 -0.7,-0.7 -1,-0.7 -1.7,-0.3 -3.7,-1 -5.3,-1.7 -1.3,-0.7 -2.7,-1.7 -4.3,-1.7 -0.7,1 0,2.7 -1.3,3.7 0,0.3 0.3,0.7 0.3,1 -0.3,0.7 -0.7,1 -1,1.7 v 0 0 c -0.3,0.3 -0.3,0.3 -0.7,0.7 v 0 0 c -1.3,1.3 -2.7,2.3 -4.3,3 v 0 c -5.3,3.3 -12.7,7.3 -18.7,8.7 -2.7,0 -6,1.3 -8.7,0 -0.3,0.7 -0.7,-0.3 -1.3,0.3 -0.3,-0.7 -2,-0.7 -2,-0.3 -0.3,-0.3 -1,-0.3 -1.3,-1 -0.7,0.7 -0.3,-0.3 -1,0.7 0.3,-1.3 -2,0.3 -2.3,-1.7 0,1 -0.7,0.7 0,1.3 -0.3,0 -0.7,-0.3 -1,-0.7 0.3,-0.3 0.3,0 0.7,0 0,-0.3 -0.3,-0.3 -0.7,-0.7 -0.3,0.3 -0.7,0.3 -1,-0.3 -0.7,0 0,1 -0.3,1 0,-0.3 -0.3,-0.3 -0.7,-1 0,0 -0.3,0.3 -0.3,0 -0.3,0.3 0.3,0.3 0.3,0.7 -0.7,-0.3 -0.7,-0.7 -1.3,0 0,-0.7 -0.3,-0.3 0,-0.7 -0.3,-0.3 -0.7,0.3 -0.3,-0.3 0,-0.3 -0.3,0 -0.7,-0.3 0.3,0.7 -0.7,0.3 -1,0.3 -0.3,0 -1,0 -1.7,-1 -0.7,0.3 -0.3,0.3 -0.7,0 -0.3,0.3 0.3,0.3 0.3,1 -1,0 -0.7,-1 -1.3,-1 0.3,0.7 -0.3,-0.3 -1,-0.3 0,0 0,-0.3 0.3,-0.3 -0.7,0 -1,-0.3 -1.7,-0.3 0.3,-0.3 -0.3,-0.7 0,-0.7 -0.3,-0.3 -0.3,0.3 -1,0 0,0.3 0.7,0.3 0.7,1 -0.3,0.3 -0.3,-0.7 -0.7,-0.3 0,-0.3 0,-0.3 0.3,-0.3 -0.3,-0.3 -0.7,-0.3 -1,-0.3 0.3,0.7 0.7,0.7 1,1 -1,1 -1,-1.3 -1.7,-0.7 0,-0.7 -0.3,-1 -0.7,-1 0,0.3 0,0.3 -0.3,1 -1,-0.7 -1,-0.7 -1,-1.3 0.3,0 0.3,0.7 0.7,0.3 0,-0.3 -1,-1 -1,-1 -0.3,0.3 0,0.3 0.3,0.7 -0.7,0 -0.7,0 -1,0.3 -0.3,-0.3 -0.7,-1 -1.3,-1 0,1 0,0.3 -0.7,0.3 0.3,-0.3 -0.3,-1 -1,-2 0,0.3 -0.3,0.3 -0.7,0.3 0.7,0.7 1,0.7 1,1.3 0,-0.7 -1.7,0 -1.3,0 0,0.3 -0.7,-0.3 -1,-0.7 0.3,0 0.3,0 0.7,-0.3 -1,0 -1,-2 -2,-2 0,0.3 1,1.7 1,2 0,1 -1.3,-2 -2,-1.3 0.7,-0.7 0,-1 -0.7,-1 -0.3,1 1,1 1.3,2 -0.3,-0.3 -1.3,-1 -1,-1 -0.7,-0.3 -1,-1.7 -1.7,-2.3 -0.3,0.3 0,1 0.3,1.3 -0.7,0.3 -2,0.3 -2.3,-0.3 -0.7,0.3 0,0.7 0.3,0.7 0,0.3 -0.7,0 -0.7,0 0.3,-0.7 0,-1.7 -0.7,-2 0.7,0 0,-1.3 0,-0.3 0,-0.7 -0.7,-0.3 -1,-1 0,0.7 -0.7,0.3 -1,1 -0.7,0 -0.3,-1.3 -1.3,-1 -0.3,-0.3 -0.3,-0.7 -1,-1 0,0.3 -0.3,0.3 -0.7,0.3 -0.3,-1 -1.3,0 -1,-1.3 -0.7,-0.7 -0.7,-0.3 -1.7,-1 v 0.3 c -3.3,-1.7 -6.3,-6.3 -9.3,-11 -1.3,-2 -3,-4.7 -3.3,-6 -0.3,-1 -1,-3 -1.7,-3.7 0,2.3 -0.3,4 0,5.3 -0.3,0 -0.3,-0.3 -0.7,-0.7 -0.3,0 0,0.7 0.3,1 -0.7,-0.3 -0.7,0.3 -0.3,0.7 -1,-0.3 0,0.7 -0.7,0 0,0.7 -0.7,1 -1.3,1.3 0.3,0 0.3,0 0.7,0.3 -0.7,0 0.3,0.3 -0.3,1 -0.7,0 -0.3,-1 -1,-1 -0.3,0.3 0.3,0.3 0.7,1 -0.7,0 -1,-0.7 -1.7,-1 0.3,1.3 1.7,2.3 0,1 0,0.3 0.3,1 0.7,1 0,0.3 -0.3,0 -0.3,0.3 -0.7,0 -0.3,-0.3 -0.7,-0.7 -0.3,0.3 0,1.3 0,1.3 -0.3,0.7 -0.3,-0.7 -0.7,-0.7 -0.3,1 -1.3,0 -1.7,1 0.3,0.3 1,0.3 1,-0.3 0.7,0 0.3,1 0,0.7 0,0.3 0.3,0.3 0.3,0 0.3,0.3 -1,0.7 -0.3,1 -0.7,0.3 -0.3,-0.3 -0.3,-0.7 -0.3,0.7 -1,1 -1.3,1.3 -0.3,-0.3 0,-0.3 -0.7,-0.7 0,0.3 -0.3,0.3 0.3,1 -0.3,0 -0.7,-0.3 -0.7,0 0,0.3 0.7,-0.3 0.3,0 v 0.3 c -0.7,0 -0.7,-0.3 -0.7,-1 0,-0.3 -0.3,-0.3 -0.7,0 h 0.3 c 0,0.3 -0.3,1 0,1 -0.7,1 -1.3,1.7 -2,2 0,0.3 0.7,0 0.7,0.3 0,0 -1,0.3 -1,-0.3 -0.3,0.3 -0.3,0 -0.7,0 0.7,0.7 -0.3,1 0.7,1.3 0,0.3 0,0.3 -0.3,0 -0.3,0 0,0 0,0.3 -1,-1.3 -0.3,-1.3 -1,-1.7 0.3,0.3 -0.7,0.7 0,0.7 0,0.7 -1,0.3 -1.3,0.7 0.3,0.3 1,0 1.3,0.3 0,0.3 -0.3,0.3 0,0.3 0,0.3 -0.3,0 -0.3,-0.3 0,-0.3 -0.3,0 -0.3,-0.3 0,0.3 -0.7,0.7 -0.3,1 0.3,0 0,0 -0.3,0 -0.3,-0.7 0.3,-1 -0.7,-1.3 -0.7,0.3 0.3,1 -0.7,1.3 0,-0.7 -0.3,-0.7 -1,-1 -0.3,0 0.7,0.7 -0.3,0.3 1,0.3 1.7,1.7 1.7,2.7 -0.7,-1 -1,-0.7 -1.7,-1 0.3,-0.3 0.7,0 1,0 -0.7,-0.7 -0.7,-1 -1.3,-1.7 0,0.3 0.7,0.7 0.3,1.3 -0.3,0 -0.3,-0.3 -0.7,-0.7 -0.3,0 0,0.3 0,0.7 -0.3,0.3 -0.3,-0.3 -0.7,-0.3 0.3,0 0,-1 -0.3,-1 -0.3,0 0,0.3 0,0.3 0,0.3 -0.7,0.3 0,0.3 -0.3,0.7 -1,-0.3 -0.7,-0.3 -0.3,-0.3 -0.3,0.3 -1,0 1,0 0,1 0.3,1 -0.3,1 -1,-0.7 0,-0.3 -0.7,-0.3 -0.3,-0.3 -0.7,-1 -0.3,0.3 0,0.7 -0.3,1 -0.3,0 -0.3,0 -0.3,-0.3 -0.3,0.3 0,0.3 0,0.7 0.3,0 0.3,-0.3 0.3,-0.7 0.3,0 -0.3,0.7 0.3,1 0.7,0 0.7,-0.7 0.7,-1 0.3,-0.7 0,1 0.7,0 0.3,0 0.3,1 1,1 0.3,0.7 -0.3,0.7 0,1.3 -0.3,0 -0.3,0 -0.7,0 v 0.3 c -0.7,-0.3 0.7,-1 -0.3,-1.7 -1,0.3 -0.7,0 -1.3,-0.3 -0.3,0 0.3,0.3 0.3,1 -0.7,0.3 -1,-0.7 -1.7,-0.7 0,-0.3 0,-0.7 -0.3,-0.7 l -0.3,0.3 c -0.7,0 0.3,-0.7 0,-1 -0.3,-0.3 -0.7,0.3 -1.3,0 0.3,0 1,1 0.3,1 l 0.3,0.3 c 0,0.3 -0.3,0 -0.7,0.3 0.3,0.3 0.3,1 0.7,1 -0.3,0.3 -1,-0.7 -1.3,-1.3 -0.3,0 -0.3,0.3 -0.7,0.3 0.3,0.3 0.7,0 1,0.7 0.7,0.3 -0.3,0 -0.7,-0.3 -0.3,0.3 0.3,0.3 0.3,0.7 -1.7,-0.3 -0.3,-1.3 -1.7,-0.7 0,-0.3 0,-0.3 0,-0.3 0.3,-0.3 -0.7,-0.7 -1,-1 0.3,0.7 -0.7,0.7 0,1 0,0.3 -0.3,0.3 -0.7,0.7 0,-0.7 -0.3,-1 -1,-0.7 H 33 c 0,0.3 -0.3,0.3 -0.3,0.3 -0.3,-0.3 -0.3,-0.3 -1,-0.3 0.7,0.7 0.3,0 0.3,1 -0.3,0 -1,0 -0.3,0 -1,0.3 -1.3,-1 -2.3,-2.3 0,0 0,0.3 -0.3,0.3 h 0.3 c -0.3,0.7 0,0.7 0.3,1.3 -0.3,0 -0.3,-0.3 -0.7,-0.3 -0.3,0.3 0.7,1 0.3,1.3 -0.7,0.3 -1,-0.3 -1,-1 -0.3,1 0,1 -0.7,0.3 -0.3,0 0,0.3 0,0.7 -0.3,0.3 -0.3,-0.3 -0.7,-0.3 -0.3,0 0,0.3 0,0.7 -0.7,-0.3 -1.3,-1.3 -2,-2 0.7,0.7 0.3,-0.3 0.7,0.3 0.3,-0.7 -1,-0.7 -1.3,-0.7 0,-0.3 0,-0.3 -0.3,-0.7 0.3,-0.3 0.3,-0.3 0.7,-0.3 -0.3,0 -0.3,-0.7 -0.7,-0.3 -0.3,0.3 0.7,0.3 -0.3,0.3 0.7,1 0.7,2 2,2.3 0,0.3 -0.3,0 -0.7,0.3 0.3,0.3 0.3,0.3 0.7,0.3 0.3,0.3 -1,-0.3 -1.7,-0.3 0,0.3 0.3,0.7 0.3,0.7 -0.3,1 -0.3,-0.7 -0.7,-0.3 0,-0.3 0.3,-0.3 1,-0.7 3,2.7 2.3,2.7 2,2.3 0.3,0.7 -0.7,1 0.7,2.3 -0.7,0 -0.3,-1 -1,-0.7 0,0.7 -0.3,-0.7 0.3,-0.3 -0.3,-0.3 -1,0 -1,-0.7 0.3,-0.7 0.3,-0.3 0.3,-0.7 -0.7,-0.7 -0.7,0.7 -1.7,0.3 0,-0.7 0.3,0 0.7,-0.3 -0.3,0 -0.3,0 -0.7,0 0,-0.3 0.7,-0.3 1,-0.3 -0.7,-0.3 -0.3,-1 -0.7,-2 0,0 -0.7,0.7 0,0.7 0,0.3 -0.7,-0.3 -0.7,-0.3 -0.3,0.3 -0.3,0.7 -0.7,0.3 -0.3,0.7 1,0.3 1,1 h -0.3 c -0.3,0.3 0.7,0.3 0.3,0.7 -0.3,0 -0.7,-0.3 -1,0 -0.3,-1 -0.7,-1 -1.3,-1.7 0.3,0 0.3,0 0.3,0 0,-0.3 -1,-0.3 -0.3,-0.7 -0.3,0 -0.7,-0.3 -1,-0.3 -0.3,0.3 0.3,0.3 0,0.3 -0.3,0.7 -0.7,-1 -0.7,-0.3 0,0 -1.7,-1.3 -1,-2 -0.3,0 -0.3,-0.3 -0.7,-0.3 0,-0.3 0,0 0.3,0 -0.3,-1 -0.3,-1.3 -0.7,-1 -0.3,0 0.3,0.7 0.3,0.7 0,0.7 -1,0 -0.7,-0.3 -0.3,0.3 -0.3,0.3 -1,0.3 0,-0.7 -0.3,-0.3 -0.3,-1.3 0.3,0.3 0.7,0.3 1,0.7 0.3,-0.7 -0.3,-1 -0.3,-1.3 -0.7,-0.3 0.7,-0.7 0.7,0.3 0.3,0 0,-0.3 0,-0.7 0.3,0 0.7,0.7 1,0.3 0.3,-0.7 -1,-0.7 -1,-1.3 0,-0.3 0.3,0 0.7,-0.3 0,-0.3 -0.7,0 -0.7,-0.3 -0.3,-0.3 0.3,-0.3 0.3,-1 -0.3,-0.3 -0.7,-0.3 -1,-1 0.3,0 0.7,0 0.7,0 -0.3,0.7 0.7,1.3 1,2.3 0.7,-0.3 -0.3,-1.3 -0.7,-1 0,-0.3 0,-0.7 0.3,-1 -0.3,0 -0.7,-0.3 -1,-0.3 0,-0.7 -0.7,-0.7 -0.3,-1.3 0.7,0.7 0.3,-0.3 0,-1 0.3,-0.3 0.7,0 0.7,0.3 0.3,0 -0.3,-0.7 0.3,-0.7 0,0 -0.3,0 -0.7,-0.3 0.3,0 0.7,0.3 1,0.3 0.3,-0.7 -1,-1 -1.7,-0.3 0,-0.3 0.3,-0.3 0.3,-0.3 l -0.3,-0.3 c 0,-0.7 0.3,0.3 0.7,0 0.3,-0.3 -0.3,-0.3 0.3,-0.7 -0.7,0 -0.3,-0.7 -0.7,-0.7 0,-0.7 0.3,-0.3 0.7,-0.3 -0.3,-0.7 -0.3,-1.7 -0.7,-1 -0.3,0.3 0,-0.3 0.3,-0.3 -0.3,-0.3 -0.7,0 -1,-1 0.3,0 0.3,1 1,0.3 -0.7,0 0,-0.3 -0.7,-0.7 0,-0.3 0.7,-0.7 0,-1.3 0.3,-0.3 0,-0.7 0.7,-0.3 0,-0.7 -0.3,-0.3 -0.7,-0.7 0.3,0 0.7,0.3 0.7,0 -0.3,-0.7 -1.3,-1 -0.7,-1.3 -0.3,0 -0.3,-0.7 -0.7,-1 0.7,0 0.3,-0.3 1,-0.7 0.3,0.7 -0.7,0.3 0.3,0.7 0.7,-0.3 0,-0.7 -0.3,-1 0,-0.3 0.3,-0.3 0,-0.3 0,-0.3 0.7,0 0.7,0 -0.7,-0.3 -0.7,-0.3 -1,-1.3 0.3,-0.3 0,-0.7 0.7,-0.7 -0.3,0 -0.3,-1 0,-0.7 -0.7,-0.3 -0.3,-0.7 -0.7,-1 0.7,0 0.7,0.3 1.3,-0.3 0,-0.3 -0.3,0 -0.3,0 -0.7,0.3 0,-0.7 -0.3,-0.3 0,-0.7 0.7,0 0.7,0 0.3,-1 -1,-1 -1,-1.7 0.3,0 0.3,0 0.3,0 0.3,0 0.3,0.3 0.3,1 0,0.3 0.3,0 0.3,0.3 0.3,0 0,-0.3 -0.3,-0.3 0,-0.3 0.3,-0.3 0.3,-0.3 -0.3,0 -0.3,-0.7 -0.7,-1 0.3,-0.3 0.3,0 0.7,0 -0.7,-0.7 0,-0.3 -1,-1.3 0.7,0 0,-0.7 0.7,-0.3 -0.3,0 -0.3,-0.7 -0.7,-0.7 0,-0.3 0.7,0 0,-0.7 0.3,0 0.3,0.7 0.7,0.3 -0.3,-0.7 -1.3,-1.3 -0.3,-2 -0.3,0.3 0.3,0.3 0.3,1 0,0 0,-0.3 0.3,-0.3 -0.7,-0.3 0,-0.7 -0.7,-1.7 0.3,0 0.7,0 0.7,0 0,-0.3 0,-0.7 0.7,-1 -0.3,0 -0.3,-0.3 -0.7,-0.7 0.3,0 0.7,-0.7 0,-0.7 0.3,0 1,-1 0.3,-1 0.3,-0.3 0.7,-0.3 0.3,-1 0.3,0 0.7,0 0.7,0 -0.3,-0.3 -0.7,-0.3 -0.7,-1 0.3,0 0.3,0 0.3,-0.3 0.3,-0.3 0.3,0 0.7,0.3 0.7,-0.3 -0.7,-0.7 -0.3,-1 0.3,-0.3 0.3,0 0.7,0 -0.7,-0.3 0,-1 -0.3,-1.7 0.3,0 0.7,-0.3 0.7,0.3 0.3,-0.7 0,-0.7 -0.3,-1 0.3,0 0.3,0 0.7,0 -1,-0.3 0.7,-1 0,-1.3 0,-0.3 0.7,-0.3 0.7,0 0.3,0 -0.3,-0.7 -0.3,-1 1,-0.7 1,-1.7 1.7,-3.3 0.3,0 0.3,0 0.3,0.3 0.3,-2 2,-3 2.7,-4.7 0,-0.3 -0.3,-0.3 -0.7,0 -1,-1 -2.3,-1.7 -4,-1.7 -2.3,-2 -5,-3.3 -7.7,-5 -5,-6.3 -8.7,-14.3 -8.7,-21 0.3,-0.3 0.3,-0.7 0.7,-1 0,-0.3 0,-0.7 -0.3,-0.7 0.7,-1 0.3,-2.3 1,-3.7 -2.3,-4.7 -5.7,-8.7 -5.3,-13.3 -0.3,0 -0.3,-0.7 -0.7,-1.3 0,-6 1.3,-11.7 3,-17 1.3,-1 2.7,-3.7 3,-5.3 0.3,0 0.7,0 0.7,0 0.3,0 0,-0.3 0,-0.7 0.7,0 1,-0.7 1,-1.3 1,0.7 0.7,-1.3 1.3,-0.3 0,0 0,-1 0,-0.7 0,-0.3 1,0.3 0.7,-0.7 0.3,0 0.7,0 0.7,0 0,-0.3 0.3,-0.7 0.3,-1 0.3,0 0,0.3 0.3,0.3 0,-0.7 1,-1.7 0.7,-1.7 0,-0.7 0.7,0.3 1,0.3 0,-1 0.3,-0.7 0.3,-1.3 0.7,-0.3 1,-0.3 1.7,-0.3 0.3,-0.3 -0.7,-0.3 0,-1 0.3,0 0.7,0.3 0.7,0.7 0.3,-0.7 0,-0.7 0,-1.3 0.7,-0.3 2,-0.3 1.3,-1 0.3,-0.3 0.7,0.3 1,0.3 -0.3,-0.7 0.7,-1 1.3,-1 -1,-0.7 1.3,-1 1.3,-1.7 0.7,0 1,0 1.7,-0.3 0.3,-0.3 1.3,-1.3 2.3,-1.7 0.3,-0.3 1,0.3 1.3,-0.3 2.3,0 4.3,-0.3 6.7,-1.7 -0.3,-0.3 -0.7,-0.3 -1,-1.3 1,-1 1.7,-2 2.3,-3 4,-4 11,-10.3 17.7,-12.6999995 0.7,0 1,-0.3 1.7,-0.3 3.7,-0.7 7,-1.3 10,-1 2.8,-1.1 3.4,-0.4 3.4,-1.1 z"
   id="path845" /><path
   d="m 120.79674,94.65032 c 0,1 1.3,1.3 1,1.7 -0.7,0.3 -1.3,0 -1.3,0.7 8,1.7 21.7,-2.3 27,-9.3 -0.7,0.3 -1.3,0.7 -2,0.7 1.3,-0.7 3.3,-1 3.3,-2 -6.7,3 -18.3,7 -26.3,10 -0.7,-0.8 -1,-1.5 -1.7,-1.8 z"
   id="path813"
   style="fill:#ffffff" /><path
   d="m 38.90001,118.34512 c 2,-0.7 2.7,-0.7 3.7,-1.7 0.3,0.3 1,0.3 1.3,0.3 1.3,-1 5.3,-1.3 6.7,-2.7 1.7,-0.3 2,-1 4.7,-1.7 -0.3,0 -1.7,0.3 -1,0.7 3,-0.7 5,-2 8.7,-3 -1.3,0.3 -1.7,0.7 -3,1 0.3,1 1.7,-0.7 2,-0.3 -1,0.3 -1,1.3 -1.7,2 0.7,0 1.3,0 2,0.3 -7.7,2.7 -13.7,5.3 -22.3,8.3 3.3,5.7 10,5 15,7.7 2.7,1.7 4.7,4.3 7.3,5.7 4,2 10,1 14.7,-1.3 9.99999,-5.3 14.29999,-16.3 17.29999,-24.7 0.7,0.3 0.3,-0.3 1.3,-0.3 0,-0.7 -0.7,0 -0.7,-0.7 0.3,0 0.7,0 0.3,-0.7 -0.3,-0.7 0,0.3 -0.3,0.3 0,-0.3 -0.3,-0.7 -0.3,-0.7 0.3,0 0.3,0 0.7,0 -0.3,-0.3 -0.3,-1 -0.7,-1 0,0.3 -0.3,0.7 -0.3,0.3 0,-0.3 0,-0.7 0.7,-0.7 0.3,0 0.3,0.7 0.7,0.3 -0.3,-0.7 -1.3,-1 -0.3,-1.3 1,1 1,1.3 1.7,2 0.7,-1.3 -1,-1.3 -1,-2.7 0.3,0.7 0.7,1 1.3,0.7 -1.3,-1.3 -1.3,-2.7 -1.3,-4.3 -0.7,0.7 -1,0.3 -2.3,1 0,-0.3 0.3,-0.3 0,-0.7 -0.3,0.3 -1,-0.7 -1,0.3 0,0.7 0.3,-0.7 0.7,0 -0.7,0.3 -4.3,2.7 -6.3,2.3 0.3,0 0.3,0 0.3,-0.3 -0.3,0 -1,0 -1.3,-0.3 0.3,0 0.3,0 0.3,-0.3 -0.3,-0.3 -0.3,0.3 -1,-0.3 1,-0.3 1,0 1.7,0 -0.3,0 -0.3,0.3 -0.3,0.7 0.3,-0.3 1,0 1,-0.3 -0.3,-0.3 -1,-1 -1,-1.3 0.3,0 0.7,0.7 0.7,0 0,0 -0.7,-0.3 -0.3,-0.3 2.3,-1 6.3,-2 8.7,-3.3 -1.7,-4.7 -5,-10 -2.7,-13.3 3.7,4.3 7.7,7.7 12,10 1,-0.3 2.3,-1 3.3,-1.3 0.7,0.7 1.7,1.7 1.7,2.7 -1,-0.3 -0.7,0.7 -1.7,0 0.3,1 1.7,1 2.3,1.3 1,0.3 1.7,1 2.7,1 1.3,-0.3 3,-1.3 5,-2 0.3,0 0.3,1 0.7,0.3 0,-0.3 -0.3,-0.7 0,-0.7 4,-0.7 7.3,-3.7 11,-4 1.3,-1.7 4,-1 4.7,-2.7 0.3,1 2.3,-1 1.3,0.3 2.3,-1 5,-1.7 7.3,-3 0.7,-0.3 2,-0.7 3.7,-1.3 -0.3,0 -1.3,0.3 -0.7,0.7 0.7,-0.3 1.7,-0.7 2.3,-1 0.7,-2.3 0.7,-7.3 -3.3,-5.7 -0.7,-1 -1.3,-2 -2.3,-2.7 0.7,-0.7 1.7,-1.3 3.3,-2 0.3,0.3 0.7,1 1.7,0.7 0,-0.3 -0.3,-0.7 -0.3,-1 -0.3,0 -1,0.3 -1.3,0 -0.3,-0.7 0.7,-0.7 1,-1.3 0,-1.7 0,-3 0,-4.7 -0.7,0 -1.3,0.3 -1.7,0 -0.3,-0.7 0,-1 -0.3,-1.3 0.7,-0.3 1,-1.7 3,-2 0.7,-0.7 0.7,-1.7 1.7,-1.3 0.7,-3 -0.7,-6 -1.7,-7.7 -2.7,-4.7 -7.7,-4.7 -11.7,-5 -1,0 -3,0.3 -4.3,1 -6,2.3 -12.3,5 -18.7,7 -0.3,-0.3 -0.3,-1 -1,-1 0,0.3 1,0.7 0.7,1 -1.7,0.7 -4.3,1.3 -5.7,2 -4.7,2 -11.3,8.3 -13.3,11.7 -2,3.3 -1,8.7 -6.3,10 -4,1 -7.7,-1.3 -12.29999,0 -12,3.7 -21.7,10.7 -28.3,18 -4.5,5.7 -8.9,12 -8.9,18.3 z"
   id="path797"
   style="fill:#ffffff" />
</svg>
