<?xml version="1.0" encoding="UTF-8" standalone="no"?>
<svg
   viewBox="0 0 24 24"
   width="24pt"
   height="24pt"
   version="1.1"
   id="svg134"
   xml:space="preserve"
   sodipodi:docname="black_sheep.svg"
   inkscape:version="1.4 (86a8ad7, 2024-10-11)"
   xmlns:inkscape="http://www.inkscape.org/namespaces/inkscape"
   xmlns:sodipodi="http://sodipodi.sourceforge.net/DTD/sodipodi-0.dtd"
   xmlns="http://www.w3.org/2000/svg"
   xmlns:svg="http://www.w3.org/2000/svg"><sodipodi:namedview
     id="namedview1"
     pagecolor="#ffffff"
     bordercolor="#000000"
     borderopacity="0.25"
     inkscape:showpageshadow="2"
     inkscape:pageopacity="0.0"
     inkscape:pagecheckerboard="0"
     inkscape:deskcolor="#d1d1d1"
     inkscape:document-units="pt"
     inkscape:zoom="32.59375"
     inkscape:cx="16"
     inkscape:cy="16.889741"
     inkscape:window-width="2400"
     inkscape:window-height="1261"
     inkscape:window-x="2"
     inkscape:window-y="-9"
     inkscape:window-maximized="1"
     inkscape:current-layer="svg134" /><defs
     id="defs138" /><g
     transform="matrix(7.3931491e-4,0,0,-7.3931491e-4,3.3352683,19.331449)"
     fill="#000000"
     stroke="none"
     id="g395"
     style="fill:#000000;fill-opacity:1"><path
       d="m 11445,22079 c -235,-39 -447,-236 -544,-506 -53,-145 -72,-258 -78,-468 -6,-223 8,-347 63,-538 41,-143 143,-359 230,-489 52,-76 304,-382 536,-651 101,-117 143,-181 184,-281 72,-177 84,-383 30,-501 -34,-74 -62,-113 -99,-135 -29,-18 -31,-18 -66,0 -84,43 -114,94 -181,312 -52,167 -68,243 -85,391 -9,82 -18,124 -30,137 -25,28 -81,33 -165,15 -41,-9 -142,-23 -223,-31 -81,-8 -158,-19 -170,-23 -49,-19 -50,-28 -38,-209 23,-348 125,-713 261,-936 124,-203 258,-314 445,-367 105,-30 324,-33 425,-6 145,38 300,137 383,242 90,115 173,312 212,500 36,174 29,441 -16,650 -74,344 -271,675 -624,1044 -173,182 -253,293 -334,461 -76,158 -98,316 -70,489 38,236 204,285 278,83 24,-67 66,-316 85,-504 11,-116 15,-133 35,-149 28,-23 79,-24 147,-5 27,8 110,31 185,50 169,44 246,72 259,95 16,31 -27,407 -66,579 -86,374 -258,624 -494,716 -106,42 -335,59 -475,35 z"
       id="path345"
       style="fill:#000000;fill-opacity:1" /><path
       d="m 13791,21881 c -10,-10 -26,-43 -34,-72 -47,-162 -454,-1632 -562,-2029 -70,-256 -214,-779 -321,-1163 -107,-384 -194,-711 -194,-726 0,-15 8,-35 18,-44 9,-8 76,-32 147,-52 72,-20 178,-52 237,-71 169,-54 202,-46 232,57 48,169 247,891 316,1150 116,437 108,412 128,405 9,-3 109,-33 221,-66 112,-33 206,-62 208,-64 2,-2 -91,-343 -206,-757 -246,-882 -235,-842 -227,-874 8,-33 23,-40 204,-91 87,-24 195,-55 241,-69 46,-14 93,-25 105,-25 28,0 59,34 75,80 7,19 230,820 497,1780 267,960 507,1823 535,1919 49,174 57,227 39,260 -11,21 -122,58 -378,126 -95,26 -182,43 -192,40 -28,-9 -33,-22 -74,-175 -19,-74 -93,-340 -164,-590 -71,-250 -153,-549 -182,-664 -32,-123 -59,-210 -67,-213 -7,-3 -64,11 -126,30 -61,20 -148,43 -192,52 -43,10 -94,24 -112,33 -32,15 -32,15 -14,39 11,12 27,56 36,95 10,40 58,217 107,393 195,692 287,1035 295,1097 5,35 3,38 -37,58 -23,12 -118,41 -211,65 -93,24 -199,53 -235,65 -81,25 -89,25 -113,1 z"
       id="path347"
       style="fill:#000000;fill-opacity:1" /><path
       d="m 7930,21266 c -25,-13 -85,-45 -135,-73 -49,-27 -130,-67 -179,-88 -106,-47 -156,-89 -156,-131 0,-16 4,-65 10,-109 5,-44 16,-190 25,-325 28,-440 36,-553 46,-658 6,-57 9,-105 6,-108 -5,-6 -275,507 -397,757 -50,103 -102,197 -115,209 -33,31 -90,21 -196,-35 -46,-25 -140,-72 -208,-106 -131,-64 -171,-95 -171,-130 0,-31 519,-1051 1057,-2077 344,-658 739,-1429 775,-1517 33,-80 62,-115 94,-115 27,0 493,236 512,258 6,9 12,28 12,43 0,17 -116,254 -286,585 -157,307 -290,569 -296,583 -5,14 -11,62 -14,106 l -4,80 552,-552 c 347,-346 562,-554 578,-557 19,-5 94,29 312,139 305,154 310,158 294,219 -3,13 -166,180 -373,382 -203,197 -550,537 -773,754 -223,218 -457,445 -520,504 -63,60 -125,118 -137,130 -25,23 -28,58 -107,1131 -45,599 -50,655 -70,693 -14,27 -22,32 -54,32 -20,0 -57,-11 -82,-24 z"
       id="path349"
       style="fill:#000000;fill-opacity:1" /><path
       d="m 16933,20713 c -12,-10 -116,-160 -231,-333 -115,-173 -424,-635 -688,-1025 -263,-391 -540,-804 -614,-918 -150,-232 -428,-650 -628,-946 -141,-208 -150,-230 -109,-275 12,-13 277,-198 590,-410 592,-403 602,-408 649,-373 9,7 104,129 212,270 207,272 217,291 177,334 -11,11 -48,38 -83,59 -74,45 -607,401 -626,419 -12,10 32,82 247,403 143,215 265,393 270,396 10,6 264,-161 391,-257 91,-69 150,-95 184,-79 25,11 370,512 388,563 8,23 7,35 -5,53 -9,13 -98,78 -199,145 -101,66 -210,139 -243,162 -33,22 -66,44 -73,48 -10,6 55,112 253,410 171,257 271,399 278,394 54,-32 568,-378 625,-421 71,-53 131,-74 158,-55 23,16 384,567 384,586 0,10 -13,31 -29,45 -16,15 -269,188 -562,385 -294,197 -555,374 -581,393 -58,44 -105,53 -135,27 z"
       id="path351"
       style="fill:#000000;fill-opacity:1" /><path
       d="m 5062,19379 c -140,-21 -267,-86 -377,-194 -115,-113 -196,-247 -231,-385 -13,-52 -15,-96 -11,-220 8,-240 51,-373 190,-583 78,-118 108,-150 905,-952 454,-456 852,-854 886,-883 139,-122 303,-213 456,-253 120,-31 328,-38 436,-14 91,20 215,75 300,132 375,255 421,844 101,1277 -64,86 -507,545 -548,567 -16,10 -38,15 -49,12 -11,-3 -112,-96 -225,-207 -187,-183 -206,-204 -205,-234 0,-31 22,-56 230,-262 264,-262 286,-292 278,-403 -5,-75 -30,-130 -72,-160 -44,-31 -182,-32 -241,0 -37,19 -230,211 -1331,1323 -242,244 -379,390 -393,418 -49,97 -36,200 33,268 31,32 51,43 86,48 52,7 147,-14 196,-45 18,-11 118,-107 222,-214 179,-185 190,-195 226,-195 36,0 50,12 234,192 109,105 201,202 206,215 6,14 6,32 0,48 -14,38 -406,429 -497,497 -227,168 -530,246 -805,207 z"
       id="path353"
       style="fill:#000000;fill-opacity:1" /><path
       d="m 19263,18886 c -17,-8 -80,-56 -140,-108 -59,-51 -344,-289 -632,-528 -1091,-905 -1301,-1081 -1491,-1245 -107,-93 -310,-264 -450,-379 -140,-116 -299,-248 -352,-294 -93,-79 -98,-85 -98,-122 0,-42 -46,17 673,-860 115,-140 219,-260 231,-267 48,-28 67,-18 332,177 142,105 267,201 278,214 27,35 11,72 -72,164 -38,43 -162,189 -276,326 -166,200 -205,251 -194,261 21,19 567,475 651,544 42,35 79,62 80,60 13,-19 93,-117 142,-174 33,-38 95,-116 137,-172 104,-136 143,-162 201,-132 38,21 494,407 501,424 3,9 6,27 6,39 0,22 -126,185 -260,336 -36,41 -83,97 -104,124 l -39,48 34,27 c 19,14 149,123 289,241 396,335 410,345 425,334 17,-11 457,-541 500,-601 32,-44 72,-73 102,-73 15,0 395,306 509,409 42,39 47,64 20,104 -13,19 -201,247 -418,508 -217,261 -414,501 -437,533 -36,48 -92,97 -111,96 -3,-1 -19,-7 -37,-14 z"
       id="path355"
       style="fill:#000000;fill-opacity:1" /><path
       d="m 3080,16873 c -28,-49 -87,-160 -132,-248 -44,-88 -99,-188 -121,-223 -39,-62 -57,-135 -40,-157 22,-28 408,-309 1258,-915 1084,-773 1568,-1121 1580,-1136 6,-6 126,-98 269,-204 262,-194 293,-211 330,-181 14,12 161,281 246,450 57,115 57,118 -87,214 -213,143 -623,434 -623,442 0,15 43,96 90,170 32,51 66,115 75,143 l 17,51 50,-25 c 28,-14 142,-59 253,-99 112,-41 261,-97 332,-126 70,-28 151,-58 178,-65 46,-13 52,-12 75,5 34,25 279,486 280,527 0,19 -8,38 -20,49 -11,10 -82,39 -158,65 -75,25 -324,114 -552,198 -228,83 -662,241 -965,351 -302,109 -730,265 -950,346 -220,81 -562,204 -760,275 -198,71 -390,140 -428,154 -37,14 -85,26 -106,26 -39,0 -40,-1 -91,-87 z m 1630,-1135 c 96,-39 231,-90 300,-113 69,-24 142,-50 162,-59 l 38,-16 -47,-95 c -26,-52 -50,-90 -54,-84 -3,6 -10,11 -15,11 -5,0 -25,11 -44,24 -19,14 -92,64 -162,112 -70,48 -208,143 -307,211 -100,68 -181,125 -181,127 0,4 104,-35 310,-118 z"
       id="path357"
       style="fill:#000000;fill-opacity:1" /><path
       d="m 20915,16284 c -55,-25 -152,-65 -215,-89 -153,-58 -339,-131 -995,-390 -302,-119 -980,-385 -1505,-591 -1007,-395 -1010,-396 -1010,-457 0,-24 23,-88 68,-187 16,-36 37,-90 47,-120 53,-165 88,-220 140,-220 17,0 105,30 195,67 91,36 395,157 676,268 l 512,201 32,-85 c 46,-121 122,-266 175,-333 82,-102 235,-200 385,-247 115,-35 182,-45 320,-45 227,1 335,29 776,205 311,124 394,163 520,247 170,115 280,234 354,385 62,126 84,228 77,362 -6,133 -31,220 -145,515 -44,113 -83,216 -87,230 -20,65 -128,306 -143,318 -28,22 -75,13 -177,-34 z m -279,-887 c 13,-31 35,-83 49,-114 31,-73 33,-148 5,-204 -28,-54 -101,-100 -286,-178 -82,-35 -205,-87 -274,-116 -173,-73 -229,-88 -309,-83 -118,9 -197,70 -226,176 -9,31 -25,81 -37,111 -12,30 -17,56 -12,58 5,2 243,96 529,208 286,112 524,203 528,202 5,-1 19,-28 33,-60 z"
       id="path359"
       style="fill:#000000;fill-opacity:1" /><path
       d="m 10763,16086 c -254,-49 -753,-271 -889,-396 -23,-21 -60,-50 -83,-65 -46,-31 -46,-30 -27,-66 13,-26 13,-27 -16,-33 -44,-9 -215,-7 -266,3 -23,5 -45,5 -48,0 -2,-5 -17,-6 -32,-3 -18,4 -50,-5 -95,-25 -38,-17 -83,-31 -100,-31 -36,0 -117,-29 -117,-41 0,-5 -8,-9 -18,-9 -10,0 -23,-5 -30,-12 -9,-9 -15,-9 -24,0 -16,16 -28,15 -28,-3 0,-9 -9,-15 -24,-15 -37,0 -56,-10 -56,-30 0,-27 -17,-33 -23,-9 -6,23 -27,17 -27,-7 0,-9 -11,-14 -33,-14 -23,0 -41,-8 -57,-25 -21,-23 -24,-23 -36,-7 -12,16 -15,14 -48,-17 -22,-21 -36,-29 -36,-21 0,9 -6,6 -16,-8 -8,-12 -24,-22 -35,-22 -10,0 -19,-4 -19,-10 0,-5 -6,-10 -14,-10 -8,0 -17,-7 -20,-16 -4,-9 -9,-14 -13,-10 -3,3 -17,-1 -31,-10 -13,-8 -26,-13 -29,-10 -3,3 -14,-6 -25,-19 -11,-14 -26,-25 -34,-25 -8,0 -14,-7 -14,-16 0,-11 -6,-15 -18,-12 -14,4 -26,-6 -46,-37 -14,-24 -64,-78 -109,-121 -67,-63 -95,-100 -142,-183 -90,-161 -180,-355 -224,-484 -43,-125 -44,-134 -43,-397 0,-91 6,-126 42,-265 70,-263 68,-239 22,-334 -23,-45 -39,-88 -36,-95 3,-7 -6,-26 -19,-42 -38,-45 -51,-151 -44,-352 6,-189 33,-337 93,-526 61,-189 82,-225 195,-344 56,-59 120,-131 143,-160 25,-33 60,-63 89,-78 26,-14 65,-43 86,-64 21,-22 44,-40 50,-40 6,0 11,-4 11,-10 0,-11 -101,-110 -112,-110 -4,0 -20,-18 -34,-40 -15,-22 -32,-40 -39,-40 -7,0 -29,-22 -49,-50 -19,-27 -47,-57 -61,-66 -17,-11 -24,-22 -20,-34 5,-15 2,-17 -17,-13 -13,3 -20,2 -16,-2 4,-4 -4,-21 -17,-37 -14,-16 -25,-41 -25,-56 0,-20 -3,-23 -12,-14 -20,20 -28,14 -28,-22 0,-25 -5,-35 -20,-39 -17,-4 -20,-11 -15,-34 5,-22 4,-25 -4,-13 -10,13 -12,13 -21,0 -6,-8 -8,-23 -6,-32 2,-10 0,-18 -5,-18 -14,0 -46,-35 -42,-47 2,-5 -3,-16 -12,-23 -8,-7 -15,-19 -15,-26 0,-8 -4,-14 -10,-14 -5,0 -10,-11 -10,-23 0,-25 -28,-57 -48,-57 -7,0 -12,-18 -13,-47 -1,-35 -3,-41 -8,-24 -5,20 -8,21 -18,9 -9,-10 -10,-24 -3,-49 13,-44 13,-44 -7,-28 -11,10 -14,10 -9,2 4,-7 3,-13 -3,-13 -6,0 -8,-7 -5,-15 4,-8 1,-22 -6,-30 -9,-11 -9,-22 -1,-45 9,-26 8,-30 -6,-28 -12,2 -16,-7 -19,-37 -5,-64 -5,-69 -10,-84 -3,-11 -7,-11 -19,-1 -13,10 -15,8 -15,-13 0,-20 -4,-24 -20,-20 -18,5 -19,3 -11,-20 7,-17 7,-28 0,-32 -5,-4 -7,-10 -4,-15 3,-5 -4,-14 -16,-20 -16,-9 -20,-19 -17,-44 2,-19 -2,-38 -10,-46 -10,-9 -11,-15 -3,-23 14,-14 14,-37 0,-37 -5,0 -7,5 -3,11 4,7 2,9 -7,5 -8,-3 -21,-9 -30,-12 -17,-6 -19,-64 -4,-112 6,-18 4,-21 -9,-16 -11,4 -15,2 -11,-8 3,-8 -1,-21 -10,-28 -8,-7 -15,-21 -15,-31 0,-10 -5,-21 -10,-24 -6,-3 -7,-18 -4,-33 7,-27 7,-27 -15,-8 -11,11 -21,14 -21,8 0,-6 5,-14 11,-17 6,-4 8,-13 5,-21 -3,-8 1,-14 9,-14 9,0 15,-10 15,-25 0,-18 -4,-23 -16,-18 -12,4 -15,0 -14,-18 4,-41 0,-51 -14,-46 -9,4 -13,1 -10,-6 2,-7 18,-18 34,-24 17,-6 30,-16 30,-22 0,-7 -10,-5 -26,5 -25,17 -26,17 -22,-2 2,-13 -2,-18 -14,-16 -13,2 -18,-4 -18,-23 0,-14 -4,-25 -10,-25 -19,0 -10,-51 13,-73 28,-26 25,-45 -9,-57 -28,-11 -31,-28 -8,-37 12,-5 13,-7 3,-14 -11,-6 -8,-13 9,-32 36,-38 27,-62 -12,-32 -32,24 -43,18 -38,-17 5,-30 3,-32 -12,-19 -15,13 -16,11 -14,-18 2,-21 7,-31 19,-31 9,0 22,-7 29,-15 7,-8 16,-12 22,-9 5,3 4,12 -3,20 -14,16 -6,30 11,19 7,-5 9,-26 5,-62 -5,-48 -2,-61 20,-99 15,-25 32,-44 38,-43 27,3 35,-2 40,-28 10,-52 32,-103 44,-103 6,0 18,-3 27,-6 23,-9 20,10 -8,44 -21,24 -22,29 -8,29 9,0 25,-7 35,-16 14,-11 18,-12 15,-2 -2,7 2,15 8,18 8,2 11,-12 10,-42 -1,-38 -4,-45 -21,-45 -17,0 -17,-2 -5,-10 10,-6 11,-10 3,-10 -7,0 -13,-5 -13,-10 0,-7 13,-8 35,-4 38,7 41,4 23,-27 -11,-17 -10,-22 5,-33 10,-8 15,-20 11,-30 -3,-9 -2,-16 3,-16 6,0 15,18 22,40 10,35 14,39 31,30 30,-16 31,-26 5,-38 -17,-8 -22,-16 -18,-31 6,-24 23,-28 23,-6 0,19 14,19 30,0 7,-8 18,-15 24,-14 7,0 6,2 -1,6 -7,2 -13,9 -13,14 0,6 6,7 13,3 6,-4 4,2 -6,13 -10,11 -22,34 -27,52 -9,34 3,41 41,21 21,-12 26,-31 7,-28 -15,3 -13,-11 7,-59 8,-19 19,-32 24,-29 5,4 12,2 16,-4 10,-16 25,-12 26,8 0,11 2,12 6,4 4,-10 8,-10 19,-1 11,9 14,8 14,-4 0,-17 27,-30 35,-17 3,5 3,21 -1,36 -5,20 -4,25 5,20 9,-6 11,3 8,33 -5,54 5,44 32,-29 19,-51 26,-60 47,-60 22,0 30,13 25,43 -1,4 11,4 25,1 19,-5 25,-4 20,5 -4,6 -2,11 4,11 7,0 14,-9 17,-20 7,-27 22,-25 33,4 5,13 13,27 18,30 13,8 35,-20 27,-34 -3,-6 3,-10 14,-10 12,0 21,-6 21,-14 0,-7 8,-20 17,-27 15,-12 16,-12 10,5 -6,16 -5,17 8,6 11,-9 15,-9 15,-1 0,6 -7,14 -15,17 -18,7 -10,24 11,24 8,0 14,-6 14,-14 0,-8 9,-24 21,-37 l 20,-24 -4,28 c -3,17 0,27 8,27 8,0 11,11 9,29 -2,20 2,31 13,35 19,8 40,-8 24,-18 -17,-11 -13,-26 4,-20 8,4 15,1 15,-4 0,-16 45,-62 60,-62 7,0 10,8 7,20 -6,23 8,27 17,5 3,-8 14,-15 25,-15 27,0 33,-13 16,-36 -19,-24 -19,-35 -1,-28 20,8 31,61 16,79 -8,9 -9,25 -4,42 4,16 6,32 5,36 -1,5 4,7 11,5 7,-3 14,-13 14,-24 1,-10 2,-25 3,-31 1,-7 6,-13 12,-13 6,0 8,8 5,18 -4,10 1,8 14,-8 l 21,-25 -6,35 c -7,40 8,22 19,-22 5,-23 4,-26 -11,-21 -13,4 -11,-1 7,-18 l 25,-24 3,32 c 2,17 -4,45 -12,62 -22,42 -21,54 4,41 11,-6 20,-18 20,-26 0,-8 5,-12 10,-9 6,3 10,15 10,26 0,12 5,19 13,16 7,-2 11,-18 10,-38 -2,-28 -1,-30 7,-13 5,12 13,25 19,29 6,3 9,11 6,16 -3,5 2,6 11,2 11,-4 23,2 34,17 22,30 40,18 40,-26 0,-19 4,-34 8,-34 5,0 9,13 9,30 0,39 9,47 31,27 10,-10 25,-17 33,-17 10,1 9,4 -4,14 -16,13 -14,16 28,41 30,17 50,38 57,56 12,35 31,39 22,5 -3,-13 -1,-27 6,-31 7,-4 10,0 8,11 -2,13 2,18 14,16 12,-2 16,2 12,12 -3,8 -1,17 5,21 6,3 11,-1 11,-9 0,-21 6,-20 41,5 24,16 29,18 29,5 0,-11 6,-9 25,8 14,13 25,32 25,43 0,16 -5,19 -31,15 -24,-4 -30,-1 -27,9 3,8 18,14 34,14 16,0 35,4 42,8 8,6 12,1 12,-17 0,-37 16,-32 25,7 6,30 7,31 15,10 6,-15 15,-21 24,-17 13,5 13,9 -2,32 -15,24 -15,26 0,14 14,-12 15,-9 8,23 -10,44 -3,44 33,3 26,-30 28,-26 11,17 -3,8 -1,15 5,15 6,0 11,-9 11,-21 0,-12 5,-19 13,-17 6,3 12,9 12,14 0,5 4,14 8,21 4,6 1,14 -5,16 -7,3 -3,6 8,6 12,1 33,10 46,21 14,10 28,16 32,13 3,-3 6,-1 6,6 0,7 5,9 10,6 6,-3 10,3 10,14 0,12 5,21 10,21 6,0 10,8 10,18 0,14 2,15 10,2 5,-8 10,-12 12,-10 2,3 21,59 43,125 l 39,120 13,-45 c 8,-25 18,-85 22,-135 14,-140 148,-560 236,-740 52,-106 136,-228 154,-222 10,3 61,-57 61,-73 0,-18 52,-55 72,-52 13,2 20,-5 24,-26 4,-18 14,-32 25,-35 11,-3 19,-14 19,-25 0,-30 13,-34 49,-16 28,14 32,14 55,-3 23,-18 26,-30 27,-110 0,-27 5,-43 15,-47 7,-3 14,-1 14,4 0,6 -4,10 -10,10 -5,0 -10,5 -10,11 0,6 14,-1 31,-15 17,-14 43,-26 58,-26 25,0 27,3 23,31 -3,22 -1,30 7,25 6,-4 11,-15 11,-24 0,-36 22,-93 45,-119 31,-35 32,-14 3,37 -13,21 -19,42 -16,46 11,10 40,-17 34,-33 -3,-7 1,-13 10,-13 8,0 24,-21 36,-47 23,-51 37,-44 19,9 -14,39 -14,66 -2,52 15,-15 40,-95 34,-110 -8,-22 17,-47 33,-33 8,6 25,9 39,7 27,-6 33,10 13,30 -8,8 -9,15 -2,22 10,10 16,-3 40,-89 2,-7 11,-11 19,-7 10,3 20,-5 30,-23 11,-23 19,-27 40,-24 14,3 25,10 25,17 1,14 40,-32 40,-47 0,-6 -7,-2 -15,9 -14,18 -14,18 -15,-7 0,-15 7,-33 16,-40 14,-11 18,-11 29,4 18,24 21,22 46,-29 13,-25 27,-48 32,-51 15,-9 20,6 7,22 -7,9 -10,18 -7,21 10,10 27,-6 27,-27 0,-10 5,-19 11,-19 7,0 9,10 5,25 -4,14 -2,25 4,25 9,0 14,-14 11,-32 0,-5 3,-8 9,-8 5,0 25,-17 45,-37 20,-21 41,-38 46,-38 5,0 15,-11 22,-24 7,-14 18,-26 25,-29 11,-3 12,0 3,16 -9,18 -8,19 11,14 12,-3 33,-18 46,-33 14,-18 39,-31 65,-37 23,-5 41,-14 39,-20 -1,-7 2,-12 7,-12 5,0 7,-10 3,-22 -4,-15 -2,-19 7,-14 7,5 21,0 33,-11 20,-16 21,-17 15,0 -11,29 19,20 33,-10 l 12,-28 11,25 c 8,21 11,22 14,8 3,-10 12,-18 22,-18 17,0 41,-18 41,-32 0,-4 -7,-5 -15,-2 -18,7 -20,-17 -3,-34 17,-17 25,-15 32,11 l 6,22 13,-24 c 7,-15 29,-30 55,-39 23,-7 42,-17 42,-21 0,-5 11,-6 25,-3 18,3 25,0 25,-11 0,-18 36,-41 50,-32 12,7 80,-21 80,-33 0,-6 16,-13 35,-16 19,-4 58,-18 87,-31 29,-13 91,-29 138,-35 47,-6 120,-16 163,-22 180,-25 514,27 892,139 66,19 131,37 145,39 90,16 225,74 303,131 37,28 47,41 47,64 0,22 7,32 33,45 17,9 53,32 78,50 26,19 53,34 60,34 8,0 43,45 78,100 35,55 93,134 130,174 43,49 117,157 216,319 82,135 181,284 220,331 52,63 77,104 99,163 29,77 208,384 252,433 12,14 24,34 26,45 2,13 10,19 22,17 11,-2 15,1 11,8 -4,6 6,15 25,21 23,8 30,16 25,28 -14,36 -17,71 -6,71 6,0 11,5 11,10 0,6 -7,10 -15,10 -10,0 -7,7 9,25 13,14 29,25 35,25 9,0 10,10 6,30 -9,42 2,85 32,120 23,27 24,33 13,66 -7,21 -21,39 -31,41 -25,7 -24,19 2,26 15,4 20,11 16,21 -8,19 4,21 22,4 10,-11 12,-7 10,17 -2,17 0,35 4,42 4,6 4,18 1,27 -3,9 -2,16 3,16 6,0 15,10 20,23 9,19 8,26 -6,35 -15,10 -14,11 2,11 14,1 17,6 12,23 -6,17 -4,20 9,15 19,-7 21,4 4,21 -18,18 3,14 24,-5 19,-17 26,-5 6,15 -8,8 -8,15 0,25 9,10 9,16 0,25 -9,9 -5,19 15,40 30,31 34,44 12,36 -9,-4 -15,0 -15,9 0,9 -3,22 -6,31 -4,10 2,17 19,22 23,5 25,9 17,30 -6,14 -9,46 -8,72 2,64 -18,232 -37,315 -9,38 -33,112 -54,165 -38,95 -98,328 -88,339 10,9 370,6 407,-4 23,-6 61,-5 110,3 42,7 159,22 260,34 243,28 290,36 314,58 12,10 59,29 106,41 210,54 391,189 484,361 32,59 95,307 103,407 7,87 -10,179 -44,248 -14,27 -43,97 -65,155 -153,412 -401,727 -741,943 -89,57 -243,131 -335,162 -45,15 -96,38 -111,51 -16,13 -38,24 -48,24 -36,0 -118,29 -165,59 -44,28 -48,29 -48,11 0,-27 -16,-25 -46,5 -14,14 -31,25 -37,25 -7,0 -18,5 -23,10 -8,8 -15,6 -23,-4 -12,-14 -18,-12 -55,13 -22,15 -47,26 -53,24 -7,-3 -13,0 -13,5 0,11 -44,21 -116,26 -28,2 -60,9 -72,15 -29,15 -37,14 -22,-4 18,-21 0,-19 -24,4 -12,10 -36,22 -53,26 -28,5 -33,4 -33,-12 -1,-16 -2,-16 -13,-2 -7,9 -36,21 -65,28 -30,6 -76,21 -103,32 l -49,21 v 64 c 0,35 7,89 15,121 10,35 16,99 15,163 0,58 2,119 6,135 3,17 1,50 -5,74 -6,28 -6,51 0,62 6,11 5,20 -1,24 -5,3 -10,25 -10,48 0,23 -9,83 -20,134 -10,50 -16,107 -13,126 10,66 -40,181 -174,399 -99,161 -177,260 -302,381 -109,105 -202,171 -301,212 -93,37 -350,103 -385,98 -23,-3 -36,2 -54,21 -14,14 -30,26 -37,26 -6,0 -23,15 -37,33 -14,18 -54,48 -89,67 -34,18 -90,53 -123,78 -75,56 -158,95 -260,123 -65,18 -108,22 -230,23 -162,0 -241,-13 -338,-58 -29,-13 -63,-27 -77,-31 -14,-4 -32,-13 -40,-20 -8,-8 -46,-25 -84,-39 -38,-15 -74,-30 -80,-35 -22,-18 -90,-8 -132,19 -22,15 -57,30 -78,33 -21,3 -50,14 -65,24 -14,9 -34,16 -45,14 -10,-1 -22,3 -27,10 -4,7 -27,13 -52,15 -24,1 -68,10 -98,18 -152,46 -480,68 -616,42 z m 3388,-3007 c 134,-40 272,-105 330,-157 51,-46 99,-128 125,-217 33,-112 19,-344 -21,-329 -7,3 -29,-8 -48,-25 -22,-20 -46,-31 -64,-31 -43,0 -113,-55 -113,-89 0,-36 17,-51 58,-51 h 34 l -6,-47 c -23,-162 -26,-171 -62,-192 -48,-29 -45,-47 8,-42 17,2 34,-32 23,-49 -10,-16 -24,-12 -49,15 -22,24 -27,25 -72,15 -46,-11 -114,-38 -114,-46 0,-3 16,-27 35,-56 19,-28 38,-62 41,-75 5,-19 11,-23 28,-19 41,10 95,-12 113,-47 31,-60 7,-234 -37,-257 -10,-5 -61,-15 -112,-20 -51,-5 -121,-17 -156,-25 -101,-24 -322,-58 -392,-60 -36,-1 -75,-7 -87,-13 -11,-6 -58,-16 -102,-21 -45,-5 -92,-16 -106,-25 -15,-10 -45,-16 -78,-16 -30,0 -126,-18 -216,-41 -89,-22 -189,-43 -224,-47 -50,-6 -62,-11 -61,-25 2,-22 -12,-22 -25,0 -9,16 -17,16 -130,-10 -137,-30 -147,-29 -231,32 -24,17 -48,31 -55,31 -14,0 -65,38 -65,49 0,3 55,14 123,24 67,10 381,69 697,132 316,63 601,117 633,121 57,7 58,8 52,33 -3,14 -17,44 -30,67 l -24,40 -533,-102 c -293,-57 -650,-126 -794,-153 -143,-28 -268,-51 -276,-51 -15,0 -182,149 -176,156 2,1 116,21 253,44 321,52 606,105 673,125 l 52,16 -40,59 c -34,50 -45,59 -63,55 -34,-8 -973,-175 -983,-175 -12,0 -120,147 -169,230 -22,36 -40,67 -42,69 -1,2 -10,-2 -18,-9 -46,-38 -68,-143 -55,-261 6,-51 5,-76 -3,-81 -6,-3 -37,-9 -68,-13 -66,-8 -72,-12 -128,-83 -36,-47 -57,-103 -32,-88 6,4 253,56 266,56 6,0 38,-170 33,-176 -11,-10 -113,-34 -233,-54 -195,-33 -218,-39 -203,-58 11,-13 10,-15 -4,-9 -22,8 -22,4 -3,-33 15,-29 15,-30 -6,-30 -15,0 -19,5 -15,15 4,11 -3,19 -20,25 -30,12 -50,13 -40,3 4,-5 13,-8 18,-8 6,0 13,-6 16,-12 2,-7 -1,-13 -8,-13 -6,0 -8,-4 -5,-10 3,-5 15,-10 26,-10 11,0 19,-7 19,-16 0,-15 9,-16 68,-11 37,4 99,16 137,27 39,12 105,23 147,26 l 78,5 -6,-58 c -4,-40 -1,-71 10,-102 18,-50 16,-60 -8,-36 -22,22 -20,12 4,-27 11,-18 20,-39 20,-45 0,-27 -16,-11 -38,37 -13,29 -30,50 -39,50 -15,0 -15,-3 -1,-50 3,-8 3,-12 1,-7 -5,7 -43,10 -43,3 0,-2 -3,-12 -7,-22 -5,-13 -3,-16 10,-11 9,3 17,5 17,3 0,-3 3,-12 6,-20 5,-12 2,-15 -9,-10 -12,4 -14,1 -10,-15 6,-23 19,-27 26,-8 3,7 6,5 6,-5 1,-10 -4,-18 -10,-18 -8,0 -8,-4 0,-14 9,-11 7,-15 -11,-21 -13,-4 -27,-8 -32,-9 -5,0 -50,-67 -100,-149 -134,-216 -256,-376 -391,-512 -134,-134 -238,-212 -371,-280 -181,-92 -357,-132 -548,-122 -249,12 -356,72 -528,294 -125,162 -146,177 -438,332 -110,58 -161,91 -213,141 -63,58 -127,148 -127,176 0,6 34,17 78,24 134,21 1055,189 1059,194 2,2 -13,7 -34,11 -21,4 -41,9 -45,11 -5,3 13,23 38,45 l 46,40 -53,-5 -54,-5 70,19 c 67,18 68,19 20,14 -27,-3 -114,-16 -191,-30 -78,-13 -157,-23 -175,-22 -40,3 -148,-17 -239,-42 -36,-11 -96,-22 -135,-25 -38,-3 -98,-11 -132,-17 -48,-9 -65,-9 -76,1 -12,9 -22,8 -48,-8 -19,-10 -62,-22 -96,-26 l -62,-7 15,57 c 63,240 284,496 644,747 424,295 928,497 1388,559 144,19 223,9 401,-51 148,-50 158,-52 241,-48 148,7 198,50 307,262 40,80 83,148 111,178 91,97 303,243 490,337 124,62 240,97 386,115 71,9 135,21 141,26 7,5 14,8 17,5 6,-6 213,30 653,115 198,38 371,71 385,73 58,10 92,5 191,-24 z m -1241,-140 c 0,-6 -4,-7 -10,-4 -5,3 -10,11 -10,16 0,6 5,7 10,4 6,-3 10,-11 10,-16 z m 1310,-1749 c 0,-14 -35,-30 -103,-46 l -62,-14 50,4 50,4 -30,-24 c -51,-42 -165,-106 -253,-141 -194,-78 -399,-116 -637,-115 -160,0 -293,18 -400,55 -48,17 -58,37 -17,37 40,0 45,8 21,42 -12,16 -19,32 -16,35 5,5 42,-48 50,-70 1,-4 35,-1 76,8 40,8 287,53 550,100 262,46 528,95 591,109 140,29 130,28 130,16 z m -2715,-109 c 3,-5 1,-12 -5,-16 -5,-3 -10,1 -10,9 0,18 6,21 15,7 z M 7460,9394 c 0,-8 -4,-14 -10,-14 -5,0 -10,4 -10,9 0,5 -3,18 -7,28 -6,16 -5,16 10,4 9,-7 17,-20 17,-27 z m 324,-473 c 3,-5 -3,-11 -13,-14 -14,-3 -18,-1 -14,9 6,16 19,18 27,5 z m 699,-138 c -3,-14 -1,-23 6,-23 6,0 13,11 17,25 7,30 34,34 34,5 0,-11 -5,-20 -11,-20 -5,0 -7,6 -4,13 4,6 -2,1 -13,-12 -26,-32 -55,-22 -48,16 2,16 5,33 5,38 1,6 6,3 11,-5 5,-8 7,-25 3,-37 z m -39,11 c 3,-8 2,-12 -4,-9 -6,3 -10,10 -10,16 0,14 7,11 14,-7 z"
       id="path361"
       style="fill:#000000;fill-opacity:1" /><path
       d="m 11435,10853 c -54,-7 -102,-16 -105,-19 -3,-3 4,-12 14,-19 19,-14 31,-75 15,-75 -5,0 -9,9 -9,20 0,19 -14,25 -50,22 -8,-1 -32,5 -53,13 -75,30 -198,14 -305,-38 -70,-34 -132,-97 -132,-135 0,-20 4,-23 28,-18 15,3 45,8 67,10 l 40,6 -45,-14 c -25,-8 -38,-14 -30,-15 22,-1 252,37 360,60 162,34 182,41 171,52 -19,19 -12,24 32,20 67,-6 74,5 50,70 -15,41 -17,54 -7,50 8,-3 14,-13 14,-22 0,-32 13,-31 41,6 16,20 29,37 29,39 0,5 -7,4 -125,-13 z m -190,-179 c -49,-8 -94,-13 -100,-11 -13,5 110,24 155,25 19,0 -5,-7 -55,-14 z m -122,-21 c -7,-2 -19,-2 -25,0 -7,3 -2,5 12,5 14,0 19,-2 13,-5 z m -50,-10 c -7,-2 -19,-2 -25,0 -7,3 -2,5 12,5 14,0 19,-2 13,-5 z m -96,-19 c -3,-3 -12,-4 -19,-1 -8,3 -5,6 6,6 11,1 17,-2 13,-5 z"
       id="path363"
       style="fill:#000000;fill-opacity:1" /><path
       d="m 5489,13673 c -60,-9 -64,-22 -123,-398 -61,-387 -71,-443 -80,-452 -3,-3 -756,119 -1673,271 -918,152 -1678,276 -1690,276 -48,0 -64,-41 -88,-216 -8,-60 -23,-153 -35,-208 -29,-143 -28,-172 12,-196 39,-23 56,-27 403,-80 149,-23 385,-61 525,-85 140,-25 494,-83 785,-129 570,-91 1628,-267 2049,-341 305,-53 329,-54 351,-21 10,16 47,212 101,533 47,279 95,564 109,633 13,69 27,157 30,196 7,65 5,72 -16,97 -23,24 -41,29 -314,72 -159,25 -297,48 -305,49 -8,2 -27,1 -41,-1 z"
       id="path365"
       style="fill:#000000;fill-opacity:1" /><path
       d="m 19772,12518 c -16,-16 -15,-48 3,-92 9,-20 13,-41 10,-46 -11,-18 -35,-10 -35,10 0,14 -7,20 -22,20 -49,0 -51,-12 -14,-93 28,-62 40,-78 62,-83 23,-6 31,-2 50,22 19,24 24,26 29,12 8,-21 -1,-38 -21,-38 -19,0 -18,-3 12,-47 14,-21 23,-45 21,-54 -3,-11 18,-43 55,-84 103,-117 203,-246 271,-351 36,-56 73,-104 81,-107 9,-4 13,-13 10,-22 -3,-8 -1,-15 5,-15 7,0 45,-51 85,-112 128,-197 171,-298 206,-483 51,-271 86,-356 167,-406 19,-12 43,-35 53,-51 16,-27 24,-30 81,-34 81,-6 186,13 211,38 10,10 23,16 29,12 6,-3 21,-3 35,0 20,5 24,12 24,46 0,38 2,40 30,40 17,0 45,7 61,16 24,12 34,13 45,4 21,-18 43,-5 60,35 12,31 19,35 49,35 44,0 47,22 8,62 -15,15 -22,28 -16,28 7,0 21,-14 33,-30 17,-24 25,-28 36,-19 11,9 11,16 -1,46 -30,72 -6,101 35,42 21,-29 23,-29 41,-13 28,25 23,62 -17,126 -19,32 -37,70 -38,84 -2,16 -14,32 -33,44 -36,21 -63,57 -63,82 0,13 8,16 35,15 19,-2 40,-8 47,-15 17,-17 28,-15 28,7 0,16 5,17 38,11 21,-4 44,-10 50,-14 20,-12 13,-36 -10,-36 -39,0 -53,-15 -41,-42 6,-14 9,-36 6,-51 -5,-24 -2,-27 20,-27 20,0 24,4 20,19 -3,14 2,20 26,24 l 31,7 v 69 c 0,48 -4,72 -15,81 -11,9 -12,17 -4,32 13,24 -1,98 -43,223 -56,166 -136,302 -243,412 -33,34 -65,70 -71,80 -6,10 -20,23 -31,28 -12,6 -46,35 -77,65 -32,30 -69,61 -84,69 -15,8 -45,30 -67,50 -22,20 -73,52 -112,71 -40,19 -74,42 -78,51 -6,17 -225,104 -290,115 -22,4 -52,16 -66,27 -15,10 -53,22 -85,26 -33,4 -68,12 -79,18 -11,6 -37,13 -58,17 -31,6 -42,4 -52,-11 -13,-17 -16,-16 -60,15 l -47,33 -29,-27 c -47,-45 -34,-91 17,-57 25,16 27,16 40,-2 24,-33 16,-42 -38,-48 -29,-2 -55,-3 -58,0 -2,2 -5,22 -5,44 0,41 2,40 -60,43 -16,1 -19,7 -17,34 3,28 0,32 -20,32 -13,0 -38,-9 -57,-21 l -33,-20 -22,20 c -26,24 -28,25 -44,9 z"
       id="path367"
       style="fill:#000000;fill-opacity:1" /><path
       d="m 19309,12029 c -47,-51 -59,-59 -81,-54 -23,6 -24,4 -20,-24 4,-27 8,-31 36,-31 17,0 37,-4 45,-9 22,-14 -20,-31 -78,-31 -42,0 -51,-3 -51,-17 0,-10 -9,-31 -20,-48 -27,-41 -26,-57 4,-49 31,7 45,-14 22,-32 -10,-7 -23,-11 -30,-8 -25,9 -40,-49 -42,-154 0,-56 -3,-104 -5,-106 -11,-11 0,-301 15,-381 38,-214 119,-463 187,-579 23,-39 62,-109 87,-155 27,-50 52,-86 64,-89 10,-2 26,-19 35,-36 33,-65 87,-128 147,-170 93,-67 204,-120 243,-118 19,2 44,-4 56,-13 12,-8 32,-15 46,-15 24,0 24,0 5,21 -21,24 -26,24 46,3 11,-3 20,-9 20,-13 0,-4 45,-7 99,-7 87,1 102,4 123,22 13,12 38,25 56,29 28,6 32,10 32,39 0,36 15,54 69,81 28,14 38,15 57,4 21,-11 26,-9 43,12 11,13 23,32 26,42 4,11 17,17 36,17 32,0 36,12 14,50 -22,38 -18,43 15,19 24,-18 32,-20 45,-9 8,7 15,21 15,31 0,10 9,27 21,38 24,22 22,53 -13,180 -16,60 -31,87 -81,150 -34,42 -66,79 -72,82 -170,106 -316,208 -321,224 -3,11 -23,32 -45,48 -24,16 -59,58 -87,104 -26,42 -72,106 -102,142 -108,128 -143,185 -312,506 -49,93 -119,212 -156,263 l -66,93 -19,-25 c -10,-14 -25,-26 -32,-26 -20,0 -29,20 -16,33 13,13 15,27 4,27 -5,0 -33,-28 -64,-61 z"
       id="path369"
       style="fill:#000000;fill-opacity:1" /><path
       d="m 4720,11874 c -215,-30 -456,-97 -584,-161 -142,-71 -305,-207 -346,-288 -8,-17 -15,-32 -16,-33 -1,-2 -26,15 -54,37 -163,129 -424,188 -717,162 -571,-50 -952,-273 -1088,-636 -72,-192 -77,-374 -22,-801 21,-155 37,-304 38,-330 1,-68 20,-116 52,-132 30,-14 243,9 957,103 286,38 2798,346 3052,374 49,6 98,17 113,27 30,20 32,50 10,229 -8,66 -26,226 -40,355 -50,465 -68,554 -142,668 -48,76 -83,117 -157,180 -142,124 -293,198 -486,238 -110,22 -437,27 -570,8 z m 324,-710 c 127,-33 210,-99 240,-193 15,-48 25,-185 14,-196 -3,-4 -80,-13 -170,-21 -164,-14 -196,-18 -607,-74 -124,-16 -234,-30 -246,-30 -18,0 -22,9 -33,70 -25,143 -11,208 60,285 62,68 155,116 280,145 185,42 337,46 462,14 z m -1739,-259 c 143,-38 186,-97 213,-292 l 8,-60 -210,-22 c -314,-33 -662,-78 -677,-87 -8,-5 -23,129 -21,184 6,130 125,229 329,272 111,23 277,26 358,5 z"
       id="path371"
       style="fill:#000000;fill-opacity:1" /><path
       d="m 7670,10435 c 0,-7 7,-18 15,-25 13,-10 15,-9 15,12 0,15 -6,25 -15,25 -8,0 -15,-6 -15,-12 z"
       id="path373"
       style="fill:#000000;fill-opacity:1" /><path
       d="m 17553,9723 c -14,-16 -172,-305 -352,-643 -179,-338 -343,-642 -363,-675 -71,-117 -61,-160 54,-220 262,-137 1410,-748 2083,-1110 44,-24 256,-133 470,-242 350,-179 717,-374 970,-515 110,-62 155,-71 186,-36 12,14 166,294 341,624 395,741 418,786 418,815 0,42 -28,68 -123,116 -51,25 -150,78 -222,118 -267,149 -302,160 -351,114 -14,-13 -47,-67 -73,-119 -94,-192 -374,-710 -382,-710 -15,0 -819,423 -847,446 -2,1 8,20 21,41 14,22 49,87 77,144 29,57 83,156 120,219 85,143 107,207 88,246 -15,32 -32,42 -367,219 -251,133 -281,143 -318,103 -12,-13 -65,-106 -118,-208 -100,-192 -188,-356 -203,-378 -6,-9 -30,-1 -98,36 -49,27 -199,107 -334,177 -135,70 -286,150 -337,178 l -92,51 28,51 c 16,27 93,172 171,320 79,149 165,307 192,352 52,88 67,138 49,170 -6,12 -113,75 -248,147 -131,70 -267,142 -302,161 -77,42 -105,44 -138,8 z"
       id="path375"
       style="fill:#000000;fill-opacity:1" /><path
       d="m 7390,9487 c 0,-8 7,-21 16,-28 14,-11 15,-10 12,11 -3,26 -28,41 -28,17 z"
       id="path377"
       style="fill:#000000;fill-opacity:1" /><path
       d="m 8788,8774 c 4,-22 6,-24 14,-10 9,16 3,36 -11,36 -5,0 -6,-12 -3,-26 z"
       id="path379"
       style="fill:#000000;fill-opacity:1" /><path
       d="m 4825,8405 c -5,-2 -43,-13 -83,-25 -63,-20 -71,-25 -60,-38 10,-12 10,-16 1,-19 -7,-3 -23,-13 -36,-24 l -25,-19 19,-37 c 27,-52 24,-59 -23,-71 -121,-29 -202,-41 -209,-31 -13,21 -37,3 -129,-96 -181,-197 -290,-333 -290,-364 0,-17 -17,-54 -43,-92 -26,-39 -64,-121 -96,-209 -30,-80 -62,-162 -72,-182 -11,-21 -19,-57 -19,-81 0,-28 -7,-53 -19,-68 -15,-19 -20,-49 -26,-154 -11,-218 16,-401 81,-544 19,-41 34,-88 34,-106 0,-22 12,-48 36,-79 36,-48 42,-49 88,-30 16,6 18,4 13,-9 -8,-21 2,-27 29,-17 l 21,8 -26,56 c -26,56 -26,57 -63,50 -30,-4 -38,-3 -38,9 0,22 61,71 70,56 5,-7 21,2 50,30 23,22 46,38 51,35 16,-9 10,-73 -10,-113 -12,-22 -16,-42 -11,-47 5,-5 10,-34 12,-64 3,-49 6,-55 26,-58 18,-3 22,-8 16,-20 -4,-9 -8,-33 -8,-52 -1,-31 2,-35 27,-38 20,-3 27,1 27,15 1,10 7,29 15,43 15,27 13,29 37,-50 10,-34 18,-45 33,-45 11,0 26,-4 33,-9 18,-11 29,1 14,16 -18,18 -15,25 19,37 37,13 89,15 89,3 0,-5 -16,-22 -35,-39 -19,-17 -35,-37 -35,-44 0,-7 10,-3 24,10 15,14 26,19 31,12 9,-16 50,-13 64,3 7,8 33,19 59,25 26,5 54,13 63,16 12,5 20,-2 27,-24 8,-23 17,-31 34,-31 13,0 29,5 35,11 5,5 32,11 59,13 59,2 151,43 211,92 35,29 43,42 43,68 0,18 8,48 18,67 13,26 17,58 16,139 0,100 -3,112 -56,271 -31,91 -64,205 -72,255 -24,135 -31,316 -16,404 7,41 13,88 12,103 -1,15 3,39 8,52 6,15 6,27 -1,30 -5,4 -7,11 -4,16 14,22 -81,6 -227,-38 l -87,-26 -18,22 c -16,19 -22,21 -50,10 -18,-6 -33,-15 -33,-20 0,-5 -19,-9 -43,-9 -45,0 -100,-13 -304,-73 -117,-35 -253,-60 -253,-47 0,12 96,98 125,113 17,8 47,17 68,21 20,4 37,11 37,16 0,6 17,10 37,10 20,0 62,5 94,12 51,10 60,10 86,-7 23,-15 26,-16 14,-2 -12,15 -9,19 23,32 21,9 60,20 88,25 29,6 59,16 67,24 19,16 76,28 148,32 29,1 62,9 74,18 13,8 55,23 95,31 71,16 72,17 78,53 10,62 9,65 -21,58 l -28,-6 28,15 c 15,9 27,20 27,25 0,13 8,15 -130,-25 -111,-33 -123,-34 -134,-20 -8,11 -23,15 -41,13 -25,-2 -30,-7 -28,-28 2,-21 1,-23 -8,-7 -5,9 -21,17 -34,17 -16,0 -22,5 -21,18 2,9 -5,23 -16,30 -18,13 -52,81 -44,89 2,3 26,5 53,6 32,1 52,8 60,19 7,9 32,19 55,23 24,3 51,9 61,11 12,4 17,0 17,-15 0,-12 7,-21 15,-21 11,0 15,12 15,50 0,52 6,58 42,39 12,-6 18,-7 14,-1 -13,21 71,63 132,66 36,1 52,18 52,54 0,19 -4,22 -21,17 -16,-5 -19,-4 -14,6 6,9 3,11 -9,6 -10,-4 -23,-7 -29,-8 -7,0 -3,-5 8,-10 16,-7 14,-8 -10,-4 -16,3 -61,-4 -100,-15 -86,-25 -85,-25 -85,0 0,11 -12,43 -27,70 -24,43 -26,52 -13,60 23,15 37,12 43,-10 3,-11 11,-20 19,-20 10,0 12,13 9,51 -3,50 -3,51 25,47 18,-2 36,4 47,15 9,9 32,17 50,17 17,1 54,9 81,18 l 48,17 4,58 c 4,51 3,57 -15,57 -11,0 -31,-4 -46,-10 -22,-8 -24,-13 -15,-29 7,-13 7,-22 0,-26 -15,-9 -30,4 -30,25 0,17 -4,18 -26,10 -14,-6 -33,-10 -42,-9 -9,1 0,5 20,11 38,10 61,39 30,37 -9,0 -21,-2 -27,-4 z m -455,-635 c -13,-9 -13,-12 3,-24 9,-7 17,-19 17,-27 -1,-8 -11,-1 -24,15 -22,26 -28,28 -70,24 -51,-6 -58,-2 -23,12 32,13 117,13 97,0 z m 445,-110 c -11,-5 -31,-8 -45,-8 h -25 l 25,8 c 14,4 34,8 45,8 l 20,1 z"
       id="path381"
       style="fill:#000000;fill-opacity:1" /><path
       d="m 5587,8248 c -13,-14 -26,-18 -43,-14 -17,5 -33,0 -50,-13 -14,-11 -46,-23 -72,-27 -74,-10 -85,-19 -80,-65 2,-21 -1,-39 -6,-39 -5,0 -7,-2 -5,-5 3,-2 32,4 64,14 103,32 138,35 152,12 11,-18 7,-21 -57,-40 -38,-12 -72,-26 -76,-33 -5,-7 -2,-9 9,-5 11,4 17,-1 19,-16 2,-12 10,-22 18,-22 10,0 14,8 12,25 -2,14 -1,22 4,17 4,-4 8,-15 10,-25 9,-79 9,-79 107,-83 16,-1 25,-5 20,-10 -8,-8 -140,-47 -230,-69 l -52,-12 7,-46 c 3,-26 7,-59 7,-75 0,-19 5,-26 15,-24 8,2 14,8 13,14 -3,14 43,26 70,17 12,-3 29,-13 38,-21 15,-12 17,-11 24,9 6,20 8,17 17,-22 5,-25 11,-46 13,-48 2,-2 19,0 39,3 31,6 34,10 25,26 -6,13 -6,19 1,19 5,0 10,-7 10,-15 0,-19 9,-19 77,1 30,9 56,14 59,11 3,-3 -283,-94 -390,-124 -16,-4 -18,-12 -13,-59 7,-71 -7,-267 -32,-434 -11,-74 -25,-175 -31,-225 -10,-80 -18,-102 -69,-200 -74,-138 -125,-269 -145,-364 -15,-74 -15,-75 15,-185 33,-122 50,-156 77,-156 10,0 29,-11 42,-25 32,-34 48,-31 66,10 16,40 26,45 24,13 -5,-52 0,-68 19,-68 10,0 24,6 30,14 10,12 18,11 48,-10 45,-30 65,-30 78,-1 20,45 144,28 160,-22 5,-16 11,-18 28,-12 12,5 45,6 73,4 63,-6 113,17 202,95 42,37 62,49 62,38 0,-26 34,-3 59,39 11,20 33,40 49,46 19,6 44,35 80,92 78,125 103,194 109,307 4,64 10,101 21,113 13,14 14,42 9,180 -12,278 -59,538 -137,745 -44,116 -126,262 -148,262 -7,0 -11,4 -8,8 7,12 -79,179 -124,238 -48,64 -70,77 -103,65 -27,-10 -53,1 -43,18 4,6 18,11 32,11 31,0 31,15 -2,37 -15,10 -38,29 -52,42 l -26,24 -47,-27 c -26,-14 -57,-26 -70,-26 -21,0 -22,1 -4,20 10,11 26,22 35,25 16,5 16,10 7,40 -12,40 -15,41 -40,13 z m -14,-301 c -8,-5 -17,-6 -20,-3 -4,3 -1,6 6,6 7,0 9,10 6,28 l -6,27 15,-25 c 13,-22 13,-26 -1,-33 z m 74,17 c -3,-3 -12,-4 -19,-1 -8,3 -5,6 6,6 11,1 17,-2 13,-5 z"
       id="path383"
       style="fill:#000000;fill-opacity:1" /><path
       d="m 16590,7983 c -25,-21 -256,-235 -515,-477 -258,-241 -497,-461 -530,-488 -76,-63 -105,-103 -105,-146 0,-29 17,-52 133,-175 246,-262 950,-1020 1192,-1282 298,-323 505,-543 750,-795 176,-181 522,-554 708,-761 91,-101 120,-118 166,-95 30,16 1037,946 1139,1052 80,85 78,97 -58,239 -60,64 -155,167 -210,230 -55,62 -113,123 -129,134 -55,40 -128,19 -188,-54 -16,-18 -140,-137 -278,-265 -137,-128 -268,-250 -291,-272 l -41,-39 -284,303 c -156,166 -305,325 -331,354 l -48,51 42,34 c 23,18 87,76 143,129 55,53 136,127 180,165 121,104 156,155 140,204 -9,29 -444,493 -477,509 -19,9 -33,9 -54,2 -33,-13 -133,-100 -304,-265 -69,-66 -144,-137 -167,-159 l -41,-38 -69,73 c -37,40 -160,170 -272,288 -111,119 -229,245 -261,282 l -59,65 231,215 c 127,117 263,243 302,278 169,151 186,173 168,220 -4,11 -88,107 -187,214 -99,106 -196,211 -216,233 -77,86 -112,94 -179,37 z"
       id="path385"
       style="fill:#000000;fill-opacity:1" /><path
       d="m 14615,6496 c -357,-166 -666,-308 -686,-315 -62,-20 -129,-68 -130,-93 -2,-49 4,-75 36,-138 18,-36 260,-553 538,-1150 1047,-2248 1167,-2504 1191,-2541 42,-63 76,-58 276,35 74,35 182,85 238,112 111,52 132,71 132,119 0,18 -136,322 -356,793 -195,420 -353,766 -351,768 5,5 208,97 365,165 235,102 279,134 269,194 -8,47 -274,608 -298,628 -33,26 -68,21 -165,-27 -269,-130 -507,-237 -514,-229 -18,18 -400,837 -400,857 0,11 595,293 755,358 96,39 129,70 121,116 -7,45 -265,598 -293,628 -13,15 -33,24 -50,24 -15,0 -320,-137 -678,-304 z"
       id="path387"
       style="fill:#000000;fill-opacity:1" /><path
       d="m 8541,6749 c -29,-5 -92,-23 -140,-39 -47,-17 -93,-32 -101,-33 -8,-1 -17,-5 -20,-8 -3,-3 -35,-22 -71,-42 -229,-127 -377,-298 -531,-617 -50,-102 -152,-318 -228,-480 -76,-162 -254,-536 -395,-830 -141,-294 -279,-585 -306,-646 -107,-243 -144,-501 -101,-704 58,-277 183,-466 408,-617 306,-204 734,-173 1077,79 153,113 231,227 430,625 164,327 177,362 152,400 -20,30 -553,293 -595,293 -15,0 -36,-10 -47,-22 -20,-22 -179,-350 -239,-493 -36,-89 -128,-188 -189,-204 -131,-35 -223,5 -265,116 -30,82 -26,153 14,243 28,65 920,1932 977,2047 53,105 143,166 245,165 132,-1 214,-107 201,-261 -5,-59 -17,-89 -126,-307 -133,-264 -140,-289 -93,-331 38,-35 539,-273 574,-273 38,0 64,28 105,118 20,43 75,160 124,262 143,301 164,385 157,639 -6,179 -22,258 -88,413 -117,274 -347,446 -677,503 -94,16 -169,17 -252,4 z"
       id="path389"
       style="fill:#000000;fill-opacity:1" /><path
       d="m 12800,5949 c -366,-65 -705,-123 -753,-129 -149,-18 -179,-46 -160,-153 206,-1162 715,-4029 719,-4049 3,-14 15,-36 25,-47 27,-29 115,-28 272,3 67,13 171,32 230,42 169,27 195,56 167,187 -12,57 -280,1566 -280,1578 0,5 17,11 38,14 20,3 96,17 167,30 72,14 183,31 249,40 141,18 160,22 208,47 25,12 40,28 44,45 8,31 -100,664 -118,693 -26,42 -57,44 -210,15 -245,-46 -513,-92 -517,-89 -8,7 -175,944 -169,949 7,5 826,145 853,145 52,1 112,34 119,67 7,29 -96,636 -116,686 -13,33 -36,47 -75,46 -15,0 -327,-54 -693,-120 z"
       id="path391"
       style="fill:#000000;fill-opacity:1" /><path
       d="m 10545,5956 c -267,-61 -531,-279 -667,-551 -81,-160 -106,-262 -147,-590 -45,-357 -187,-1381 -231,-1665 -54,-350 -60,-405 -60,-556 0,-265 67,-465 225,-676 74,-98 188,-191 315,-257 122,-64 180,-76 370,-75 150,0 173,3 253,27 267,82 481,266 612,527 70,140 100,253 130,490 32,255 167,1194 210,1467 77,480 98,662 98,828 0,161 -10,235 -49,360 -88,276 -236,465 -464,589 -114,62 -224,88 -390,92 -100,3 -164,-1 -205,-10 z m 272,-812 c 21,-17 52,-50 68,-73 30,-43 30,-44 29,-174 -1,-93 -9,-180 -28,-292 -15,-88 -85,-574 -157,-1080 -71,-506 -135,-936 -141,-957 -15,-51 -77,-129 -123,-155 -87,-50 -208,-20 -270,66 -65,89 -69,193 -20,491 14,85 84,569 156,1075 71,506 136,940 144,965 21,63 65,113 127,145 44,22 63,26 115,23 51,-3 69,-9 100,-34 z"
       id="path393"
       style="fill:#000000;fill-opacity:1" /></g></svg>
