<?xml version="1.0" encoding="UTF-8" standalone="no"?>
<svg
   viewBox="0 0 24 24"
   width="24pt"
   height="24pt"
   version="1.1"
   id="svg440"
   sodipodi:docname="costa_grey.svg"
   inkscape:version="1.3 (0e150ed6c4, 2023-07-21)"
   xmlns:inkscape="http://www.inkscape.org/namespaces/inkscape"
   xmlns:sodipodi="http://sodipodi.sourceforge.net/DTD/sodipodi-0.dtd"
   xmlns:xlink="http://www.w3.org/1999/xlink"
   xmlns="http://www.w3.org/2000/svg"
   xmlns:svg="http://www.w3.org/2000/svg">
  <defs
     id="defs444">
    <clipPath
       id="SVGID_2_">
      <use
         xlink:href="#SVGID_1_"
         overflow="visible"
         id="use5" />
    </clipPath>
    <rect
       id="SVGID_1_"
       width="24"
       height="24"
       x="0"
       y="0" />
  </defs>
  <sodipodi:namedview
     id="namedview442"
     pagecolor="#ffffff"
     bordercolor="#000000"
     borderopacity="0.25"
     inkscape:showpageshadow="2"
     inkscape:pageopacity="0.0"
     inkscape:pagecheckerboard="0"
     inkscape:deskcolor="#d1d1d1"
     inkscape:document-units="pt"
     showgrid="false"
     inkscape:zoom="12.5625"
     inkscape:cx="5.4925373"
     inkscape:cy="3.9402985"
     inkscape:window-width="1920"
     inkscape:window-height="974"
     inkscape:window-x="-11"
     inkscape:window-y="1609"
     inkscape:window-maximized="1"
     inkscape:current-layer="g134" />
  <g
     id="g140"
     transform="matrix(0.83547494,0,0,0.83547494,2.8801443,0.99235276)">
    <g
       id="g138">
      <defs
         id="defs3" />
      <clipPath
         id="clipPath6582">
        <use
           xlink:href="#SVGID_1_"
           overflow="visible"
           id="use6580" />
      </clipPath>
      <g
         clip-path="url(#SVGID_2_)"
         id="g136">
        <g
           id="g134">
          <g
             id="g1">
            <path
               style="fill:#666666;fill-opacity:1;stroke-width:3.10232"
               id="path2106"
               sodipodi:type="arc"
               sodipodi:cx="12.434189"
               sodipodi:cy="9.9417114"
               sodipodi:rx="8.1108599"
               sodipodi:ry="8.0463591"
               sodipodi:start="0"
               sodipodi:end="6.2753717"
               sodipodi:open="true"
               sodipodi:arc-type="arc"
               d="M 20.545049,9.9417114 A 8.1108599,8.0463591 0 0 1 12.450033,17.988055 8.1108599,8.0463591 0 0 1 4.3233909,9.9731469 8.1108599,8.0463591 0 0 1 12.386658,1.8954905 8.1108599,8.0463591 0 0 1 20.544801,9.878841"
               inkscape:label="path2106"
               transform="matrix(1.196924,0,0,1.196924,-3.4473138,-1.1877708)" />
            <line
               fill="none"
               x1="0.68800002"
               y1="3.25"
               x2="0.68800002"
               y2="16.281"
               id="line86" />
            <g
               id="g118">
              <g
                 id="g114">
                <path
                   fill="#9d0028"
                   d="m 9.346,9.14 c -0.367,0 -0.668,0.299 -0.668,0.666 0,0.367 0.298,0.666 0.668,0.666 0.37,0 0.668,-0.298 0.668,-0.666 0,-0.368 -0.299,-0.666 -0.668,-0.666"
                   id="path88" />
                <path
                   fill="#9d0028"
                   d="m 6.412,10.473 c 0.185,0 0.351,-0.073 0.471,-0.194 l 0.604,0.604 c -0.274,0.275 -0.656,0.446 -1.075,0.446 -0.841,0 -1.521,-0.68 -1.521,-1.521 0,-0.838 0.68,-1.519 1.521,-1.519 0.424,0 0.805,0.171 1.08,0.451 L 6.889,9.343 C 6.768,9.22 6.597,9.144 6.41,9.144 c -0.367,0 -0.666,0.298 -0.666,0.666 0.002,0.367 0.3,0.663 0.668,0.663"
                   id="path90" />
                <path
                   fill="#9d0028"
                   d="m 9.346,11.329 c -0.839,0 -1.519,-0.68 -1.519,-1.521 0,-0.838 0.68,-1.519 1.519,-1.519 0.841,0 1.521,0.681 1.521,1.519 0,0.839 -0.68,1.521 -1.521,1.521"
                   id="path92" />
                <path
                   fill="#9d0028"
                   d="m 12.887,9.995 c 0.24,0.364 0.336,0.661 0.258,0.976 -0.08,0.322 -0.389,0.645 -0.678,0.82 l -0.953,-0.26 c 0.311,-0.207 0.55,-0.475 0.545,-0.794 -0.007,-0.253 -0.153,-0.44 -0.303,-0.654 -0.183,-0.26 -0.268,-0.461 -0.273,-0.737 -0.002,-0.298 0.152,-0.729 0.564,-1.033 0,0 0.957,-0.002 1.125,-0.002 -0.355,0.223 -0.592,0.515 -0.605,0.879 -0.01,0.279 0.089,0.459 0.32,0.805"
                   id="path94" />
                <polygon
                   fill="#9d0028"
                   points="13.791,9.121 13.791,8.357 15.879,8.357 15.879,9.121 15.273,9.121 15.273,11.246 14.393,11.246 14.393,9.121 "
                   id="polygon96" />
                <polygon
                   fill="#9d0028"
                   points="17.111,8.357 18.172,8.357 19.109,11.246 18.137,11.246 18.02,10.777 17.256,10.777 17.137,11.246 16.197,11.246 "
                   id="polygon98" />
                <path
                   fill="#ffffff"
                   d="m 17.639,9.18 0.215,0.907 h -0.44 L 17.633,9.18 Z"
                   id="path100" />
                <polygon
                   fill="#fcfcfc"
                   points="15.879,9.121 15.879,8.357 13.791,8.357 13.791,9.121 14.393,9.121 14.393,11.246 15.273,11.246 15.273,9.121 "
                   id="polygon102" />
                <path
                   fill="#ffffff"
                   d="m 17.111,8.357 -0.914,2.889 h 0.939 l 0.12,-0.469 h 0.763 l 0.117,0.469 h 0.973 L 18.171,8.357 Z m 0.299,1.73 0.217,-0.907 h 0.01 l 0.213,0.907 z"
                   id="path104" />
                <path
                   fill="#fcfcfc"
                   d="m 9.346,8.289 c -0.839,0 -1.519,0.681 -1.519,1.519 0,0.842 0.68,1.521 1.519,1.521 0.841,0 1.521,-0.68 1.521,-1.521 0,-0.839 -0.68,-1.519 -1.521,-1.519"
                   id="path106" />
                <path
                   fill="#730723"
                   d="m 9.346,10.473 c -0.367,0 -0.668,-0.298 -0.668,-0.666 0,-0.368 0.298,-0.666 0.668,-0.666 0.37,0 0.668,0.298 0.668,0.666 0,0.368 -0.299,0.666 -0.668,0.666"
                   id="path108"
                   style="fill:#666666" />
                <path
                   fill="#fcfcfc"
                   d="m 6.412,9.142 c 0.185,0 0.355,0.075 0.479,0.199 L 7.495,8.739 C 7.217,8.462 6.836,8.289 6.414,8.289 c -0.841,0 -1.521,0.681 -1.521,1.519 0,0.842 0.68,1.521 1.521,1.521 0.42,0 0.801,-0.17 1.076,-0.446 L 6.886,10.279 C 6.763,10.4 6.599,10.473 6.414,10.473 6.047,10.473 5.748,10.175 5.748,9.807 5.746,9.44 6.044,9.142 6.412,9.142"
                   id="path110" />
                <path
                   fill="#fcfcfc"
                   d="m 13.172,8.313 c -0.168,0 -1.125,0.002 -1.125,0.002 -0.412,0.304 -0.569,0.735 -0.564,1.034 0.005,0.275 0.09,0.476 0.273,0.737 0.149,0.213 0.296,0.401 0.303,0.654 0.005,0.32 -0.232,0.588 -0.545,0.794 l 0.953,0.261 c 0.291,-0.178 0.598,-0.498 0.678,-0.82 0.078,-0.318 -0.018,-0.611 -0.258,-0.977 -0.229,-0.348 -0.33,-0.526 -0.32,-0.803 0.016,-0.366 0.249,-0.66 0.605,-0.882"
                   id="path112" />
              </g>
              <polygon
                 fill="#730723"
                 points="17.85,10.087 17.631,9.18 17.41,10.087 "
                 id="polygon116"
                 style="fill:#808080" />
            </g>
            <path
               fill="#fcfcfc"
               d="m 10.086,12.656 c 0.141,0.021 0.266,0.076 0.369,0.178 0.132,0.129 0.194,0.289 0.194,0.477 0,0.01 0,0.021 0,0.035 -0.008,0.014 0,0.027 -0.007,0.041 -0.017,0.064 -0.033,0.129 -0.063,0.188 -0.077,0.146 -0.19,0.25 -0.344,0.313 -0.041,0.014 -0.084,0.02 -0.125,0.03 -0.014,0.009 -0.029,0 -0.042,0.009 -0.097,0 -0.192,-0.003 -0.284,-0.039 C 9.637,13.828 9.525,13.736 9.449,13.597 9.411,13.523 9.386,13.451 9.378,13.371 9.371,13.354 9.38,13.336 9.372,13.317 c 0,-0.018 0,-0.041 0,-0.063 0.008,-0.016 -10e-4,-0.035 0.006,-0.051 0.016,-0.141 0.078,-0.264 0.176,-0.365 0.089,-0.092 0.201,-0.148 0.328,-0.174 0.017,-0.004 0.036,-0.008 0.053,-0.01 0.02,-0.008 0.04,0 0.059,-0.008 0.014,0.004 0.026,0.004 0.04,0 0.018,0.01 0.035,0.002 0.052,0.01 z"
               id="path120" />
            <path
               fill="#fcfcfc"
               d="m 15.096,13.9 c 0,-0.406 0,-0.818 0,-1.226 0.008,-0.01 0.022,-0.006 0.036,-0.006 0.279,0 0.562,0 0.847,0 0.028,-0.002 0.043,0.009 0.039,0.041 -0.004,0.069 0.006,0.14 -0.004,0.207 -0.203,0 -0.402,0 -0.604,0 -0.009,0 -0.015,0.002 -0.022,0.004 -0.007,0.076 -0.007,0.156 0,0.235 v 0 c 0.014,0.009 0.026,0.005 0.043,0.005 0.151,0.002 0.305,0.002 0.457,0 0.03,0 0.038,0.008 0.036,0.036 -0.004,0.06 -0.002,0.115 -0.002,0.177 0,0.013 0.007,0.024 -0.004,0.037 -0.174,0 -0.349,0 -0.519,-0.002 -0.006,0 -0.01,0.002 -0.014,0.002 -0.006,0.082 -0.006,0.161 0,0.241 0.1,0 0.199,0.002 0.295,0.002 0.109,0 0.215,0.002 0.324,0 0.027,-0.002 0.039,0.007 0.037,0.041 -0.002,0.066 0,0.136 0,0.201 -0.008,0.013 -0.02,0.008 -0.027,0.008 -0.299,0 -0.598,0 -0.896,0 -0.009,0.003 -0.016,0.005 -0.022,-0.003 z"
               id="path122" />
            <path
               fill="#fcfcfc"
               d="m 14.639,12.676 c 0,0.068 0,0.141 0,0.209 0.002,0.027 -0.002,0.035 -0.031,0.035 -0.188,-0.002 -0.375,0 -0.563,-0.002 -0.03,0 -0.041,0.006 -0.039,0.039 0.004,0.066 -0.004,0.133 0.002,0.201 0.015,0.008 0.031,0.004 0.043,0.004 0.15,0.002 0.302,0 0.453,0.002 0.015,0 0.029,-0.006 0.041,0.002 0,0.07 -0.002,0.141 0,0.207 0,0.031 -0.006,0.039 -0.037,0.039 -0.153,-0.002 -0.309,0 -0.465,-0.002 -0.03,-0.002 -0.039,0.008 -0.037,0.037 0.002,0.059 0.002,0.115 0,0.17 -0.002,0.031 0.004,0.041 0.037,0.041 0.194,-0.002 0.39,0 0.588,-0.002 0.027,-0.002 0.035,0.006 0.033,0.039 0,0.068 0,0.137 0,0.205 -0.015,0.01 -0.024,0.006 -0.037,0.006 -0.291,0 -0.58,0 -0.867,0 -0.034,0 -0.043,-0.008 -0.041,-0.039 0,-0.387 0,-0.771 0,-1.156 0,-0.029 0.005,-0.043 0.037,-0.043 0.285,0.002 0.568,0.002 0.853,0.002 0.009,0 0.023,-0.004 0.03,0.006 z"
               id="path124" />
            <path
               fill="#fcfcfc"
               d="m 8.568,12.928 c -0.147,-0.002 -0.295,0.109 -0.336,0.268 -0.051,0.193 0.058,0.388 0.252,0.447 0.153,0.049 0.293,-0.01 0.396,-0.135 0.02,-0.021 0.024,-0.014 0.036,0 0.052,0.051 0.103,0.102 0.155,0.154 0.013,0.012 0.016,0.021 0.002,0.037 -0.071,0.08 -0.157,0.145 -0.255,0.186 -0.087,0.033 -0.18,0.047 -0.275,0.041 C 8.407,13.918 8.287,13.873 8.185,13.787 8.066,13.693 7.989,13.564 7.962,13.412 7.956,13.381 7.958,13.353 7.951,13.322 c -0.004,-0.021 -0.004,-0.047 0,-0.07 0.002,-0.086 0.023,-0.172 0.063,-0.25 0.097,-0.184 0.249,-0.301 0.459,-0.336 0.014,-0.004 0.028,-0.008 0.042,-0.01 0.047,-0.006 0.095,-0.006 0.143,0 0.145,0.023 0.273,0.078 0.377,0.184 0.018,0.016 0.023,0.027 10e-4,0.049 -0.052,0.043 -0.098,0.096 -0.147,0.146 -0.014,0.014 -0.019,0.024 -0.043,0 -0.052,-0.052 -0.114,-0.095 -0.191,-0.103 -0.014,0 -0.025,-0.012 -0.04,-0.004 -0.016,-0.006 -0.032,-0.006 -0.047,0 z"
               id="path126" />
            <path
               fill="#fcfcfc"
               d="m 12.379,13.898 c 0,-0.404 0.002,-0.816 0.002,-1.224 0.007,-0.01 0.019,-0.006 0.029,-0.006 0.294,0 0.589,0 0.882,0 0.011,0 0.022,-0.006 0.03,0.009 0,0.065 -0.004,0.133 -0.002,0.2 0.002,0.031 -0.008,0.041 -0.041,0.041 -0.19,-0.002 -0.381,0 -0.573,-0.002 -0.029,0 -0.039,0.008 -0.037,0.039 0.006,0.065 -0.006,0.133 0.006,0.2 0.013,0.009 0.027,0.005 0.041,0.005 0.154,0.002 0.306,0 0.459,0.002 0.015,0 0.025,-0.009 0.035,0.004 0,0.069 -0.002,0.14 -0.002,0.205 0.002,0.026 -0.008,0.039 -0.033,0.037 -0.157,-0.003 -0.313,0.002 -0.469,-0.003 -0.029,0 -0.037,0.009 -0.037,0.039 0.002,0.142 0.002,0.277 0.002,0.416 0,0.013 0.002,0.023 0.004,0.033 -0.004,0.01 -0.012,0.01 -0.016,0.01 -0.091,0 -0.178,0 -0.264,0 -0.007,0.003 -0.01,10e-4 -0.016,-0.005 z"
               id="path128" />
            <path
               fill="#fcfcfc"
               d="m 11.99,12.678 c 0,0.063 -0.003,0.131 0,0.195 0.002,0.041 -0.012,0.047 -0.048,0.047 -0.188,-0.002 -0.378,0 -0.567,-0.002 -0.029,0 -0.042,0.008 -0.039,0.039 0.005,0.066 -0.006,0.133 0.005,0.201 0.013,0.008 0.027,0.004 0.042,0.004 0.152,0.002 0.303,0 0.458,0.002 0.013,0 0.026,-0.006 0.038,0.004 0,0.068 -0.002,0.135 0,0.201 0,0.031 -0.01,0.043 -0.042,0.043 -0.154,-0.004 -0.31,-0.002 -0.463,-0.002 -0.027,-0.002 -0.04,0.002 -0.039,0.033 0.002,0.154 0.002,0.305 0.004,0.455 -0.004,0.008 -0.011,0.008 -0.017,0.008 -0.088,0 -0.176,0 -0.264,0 -0.006,0 -0.009,-0.002 -0.013,-0.008 0,-0.236 10e-4,-0.478 10e-4,-0.717 0,-0.168 0,-0.336 -10e-4,-0.504 0.007,-0.015 0.019,-0.009 0.029,-0.009 0.294,0 0.589,0 0.884,0 0.014,0.002 0.025,-0.004 0.032,0.01 z"
               id="path130" />
            <path
               fill="#730723"
               d="m 9.648,13.283 c 0.003,-0.203 0.168,-0.365 0.369,-0.361 0.204,0.002 0.367,0.17 0.364,0.375 -0.003,0.197 -0.171,0.359 -0.369,0.357 C 9.808,13.652 9.645,13.486 9.648,13.283 Z"
               id="path132"
               style="fill:#808080" />
          </g>
        </g>
      </g>
    </g>
  </g>
</svg>
