<?xml version="1.0" encoding="UTF-8" standalone="no"?>
<svg
   viewBox="0 0 18.040001 21.999998"
   width="18.040001pt"
   height="21.999998pt"
   version="1.1"
   id="svg1230"
   xmlns="http://www.w3.org/2000/svg"
   xmlns:svg="http://www.w3.org/2000/svg">
  <defs
     id="defs1234" />
  <path
     d="M 15.239,15.551 C 16.916,13.836 18.04,11.588 18.04,9.02 18.04,4.042 13.998,0 9.02,0 4.042,0 -1.9073488e-8,4.042 -1.9073488e-8,9.02 -1.9073488e-8,11.62 1.027,13.787 2.864,15.61 v 0 L 8.653,22 15.25,15.551 Z"
     fill="#FF69B4"
     id="path1228"
     style="fill:#73243d;fill-opacity:1" />
  <path
     class="st0"
     d="m 4.4831265,9.320141 c 0.0032,-0.5601416 0.07996,-1.0175496 0.243876,-1.434598 0.204696,-0.5210048 0.492551,-0.8964707 0.86916,-1.1031604 0.146326,-0.079496 0.297449,-0.1223016 0.453371,-0.1320857 0.389402,-0.02446 0.738026,0.147985 1.0458705,0.5099977 0.226285,0.2666175 0.395799,0.6041698 0.510941,1.0053191 0.07116,0.2482722 0.119939,0.5051055 0.13833,0.7741691 0.04158,0.6078392 -0.03358,1.1777642 -0.243077,1.7024382 -0.180708,0.451293 -0.427783,0.790068 -0.7436235,1.005319 -0.179909,0.123525 -0.370213,0.188345 -0.568512,0.200575 -0.287055,0.01835 -0.557318,-0.0746 -0.811589,-0.280071 -0.231083,-0.187121 -0.420588,-0.446401 -0.572511,-0.7705 C 4.6494415,10.463661 4.5510915,10.093087 4.5079135,9.689492 4.4927215,9.545176 4.4879235,9.395968 4.4831265,9.320141 Z m 1.635172,-1.2083401 c -0.135932,-0.00734 -0.262268,0.048921 -0.373411,0.1651072 -0.263867,0.2739556 -0.374211,0.6592056 -0.335031,1.1410739 0.03838,0.469638 0.265466,0.852442 0.565314,0.945391 0.265466,0.08317 0.49495,-0.03669 0.673259,-0.347336 0.181508,-0.316761 0.229484,-0.688558 0.157521,-1.0958225 -0.08076,-0.461077 -0.371013,-0.8243128 -0.687652,-0.8084136 z m 7.1507795,3.6140131 c 0.01279,-0.06727 0.02319,-0.123525 0.03438,-0.178561 0.111943,-0.562588 0.224686,-1.125175 0.337429,-1.687762 0.131134,-0.654314 0.262267,-1.3074043 0.392601,-1.9617179 0.06877,-0.3424444 0.13753,-0.6848888 0.203098,-1.0285563 0.01279,-0.06482 0.03119,-0.091726 0.07676,-0.090503 0.348623,0.00489 0.698046,0.00612 1.047469,0.00612 0.03038,0 0.03838,0.022014 0.04558,0.057482 0.05278,0.2629484 0.106346,0.5246738 0.15912,0.7863992 0.11834,0.5833787 0.237479,1.1655342 0.355819,1.748913 0.114342,0.566256 0.227885,1.132513 0.342227,1.698769 0.03998,0.196906 0.08076,0.392588 0.120739,0.588271 0.004,0.01835 0.0072,0.03791 0.01199,0.06482 -0.02479,0.0012 -0.04558,0.0049 -0.06637,0.0049 -0.299848,-0.0024 -0.599697,-0.0049 -0.899545,-0.0061 -0.07357,0 -0.07437,0 -0.09196,-0.110072 -0.03358,-0.211581 -0.06797,-0.423163 -0.09995,-0.634745 -0.0064,-0.04158 -0.01679,-0.05748 -0.04478,-0.05748 -0.222287,0 -0.444574,-0.0037 -0.667661,-0.0049 -0.01359,0 -0.02639,0.0037 -0.03998,0.0049 -0.08316,0.0098 -0.08316,0.0098 -0.103148,0.135755 -0.03278,0.203021 -0.06717,0.406041 -0.09835,0.610285 -0.008,0.05014 -0.02159,0.06237 -0.05517,0.05993 -0.09436,-0.0061 -0.188704,-0.0049 -0.283857,-0.0061 z m 1.7783,-1.98251 C 14.970618,9.2223 14.894655,8.7110788 14.819493,8.2010812 c -0.004,0.00122 -0.0072,0.00122 -0.01119,0.00245 -0.07756,0.5124436 -0.155921,1.0236648 -0.234281,1.5409998 0.159119,-0.0012 0.313441,-0.0012 0.47336,-0.0012 z M 4.1968709,7.4146819 C 3.9809802,7.7583494 3.7674883,8.0971248 3.5531967,8.4383462 3.5156158,8.3918716 3.4820328,8.347843 3.446051,8.3062605 3.1741887,7.9956145 2.7831865,8.0482041 2.5401096,8.4151089 2.2706461,8.8223732 2.2354639,9.519492 2.4857371,9.984238 c 0.2654657,0.492876 0.7204353,0.534458 1.019484,0.127194 0.011994,-0.0159 0.024787,-0.03058 0.03998,-0.05014 0.072763,0.116187 0.1439271,0.229927 0.2158908,0.343668 0.1335323,0.212804 0.2662651,0.425609 0.4005971,0.637191 0.023188,0.03547 0.018391,0.05748 -0.0024,0.08928 C 3.9250085,11.490994 3.6443506,11.717252 3.3181158,11.806533 2.9415065,11.909266 2.5840874,11.818763 2.2506562,11.526462 1.8780448,11.201139 1.6261723,10.716825 1.4902412,10.097979 1.3479132,9.451003 1.3687027,8.806474 1.5430144,8.1778438 1.6325691,7.8549676 1.7621035,7.5724509 1.9268201,7.3302938 2.148308,7.0037485 2.4105752,6.7872747 2.7128222,6.6918795 3.080636,6.5744699 3.4332575,6.6551895 3.7674883,6.9144684 3.920211,7.0331009 4.0545429,7.192093 4.176881,7.3755454 c 0.0064,0.00978 0.011195,0.020791 0.01999,0.039136 z M 8.389149,12.210128 C 8.486699,12.079265 8.58505,11.964302 8.671406,11.82977 8.823329,11.59495 8.933673,11.323441 8.958461,10.984665 8.975251,10.752292 8.946471,10.530927 8.875301,10.329129 8.799341,10.112655 8.710586,9.907188 8.62423,9.699276 8.511487,9.428989 8.409938,9.151365 8.369159,8.8309343 8.323579,8.4713676 8.345969,8.1228081 8.428329,7.7803636 8.513889,7.425689 8.648218,7.1236041 8.826527,6.8631017 c 0.02799,-0.040359 0.05757,-0.078273 0.08636,-0.1174095 0.02479,-0.034244 0.05357,-0.046475 0.08716,-0.046475 0.366215,0.00122 0.733229,0.00122 1.099444,0.00122 0.01279,0 0.02559,0.00122 0.04158,0.014676 -0.03758,0.041583 -0.07596,0.081942 -0.112743,0.1259706 C 9.858813,7.0428814 9.708489,7.2715854 9.614137,7.5724473 9.478205,8.005395 9.462213,8.4505728 9.596547,8.8884124 9.674107,9.141577 9.773258,9.380065 9.866811,9.619776 c 0.119939,0.304531 0.227884,0.6164 0.271062,0.971075 0.04078,0.335106 0.01359,0.656759 -0.08316,0.963736 -0.125536,0.397481 -0.313441,0.714242 -0.542125,0.97719 -0.11754,0.134532 -0.11754,0.127194 -0.260668,0.06237 -0.273462,-0.123525 -0.546923,-0.242157 -0.821184,-0.362013 -0.01199,-0.0073 -0.02719,-0.0159 -0.04158,-0.02201 z m 3.016073,-2.306609 c 0,-0.566256 0.0016,-1.1325124 -8e-4,-1.6999918 -7.99e-4,-0.1406469 0.01439,-0.1210786 -0.07756,-0.1223016 -0.17751,-0.00122 -0.35422,-0.00122 -0.531731,-0.00122 -0.02399,0 -0.04318,0.00245 -0.04318,-0.05259 0.0024,-0.3974801 0.0032,-0.7949603 0.0032,-1.1924405 0,-0.048921 0.0104,-0.062374 0.04158,-0.062374 0.718037,0.00245 1.436074,0.00367 2.15411,0.00367 0.03838,0 0.04878,0.017122 0.04878,0.075827 -0.0016,0.3889191 -0.0016,0.7778381 0,1.1679802 0,0.055036 -0.01119,0.068489 -0.04558,0.068489 -0.186305,-0.00245 -0.37341,0 -0.559716,-0.00245 -0.03518,0 -0.04478,0.014676 -0.04478,0.068489 8e-4,0.5051056 -0.0016,1.0102117 -0.0016,1.5165397 0,0.27151 8e-4,0.541796 0,0.813306 -7.99e-4,0.272732 -0.0032,0.545465 -0.004,0.81942 0,0.119856 0.0016,0.239712 0.004,0.36079 0.0016,0.04892 -0.0104,0.06237 -0.04158,0.06237 -0.247874,-0.0025 -0.495749,-0.0037 -0.743623,-0.0049 -0.04238,0 -0.08556,0.0012 -0.127936,0.0037 -0.02399,0.0012 -0.03278,-0.01101 -0.03278,-0.04892 8e-4,-0.38525 0,-0.7705 0,-1.15575 V 9.903515 Z"
     id="path4"
     style="fill:#ffffff;stroke-width:0.00988897" />
</svg>
