<?xml version="1.0" encoding="UTF-8" standalone="no"?>
<svg
   viewBox="0 0 14.862474 7.7722821"
   width="14.862474pt"
   height="7.7722821pt"
   version="1.1"
   id="svg18"
   sodipodi:docname="pink_master_pin.svg"
   xmlns:inkscape="http://www.inkscape.org/namespaces/inkscape"
   xmlns:sodipodi="http://sodipodi.sourceforge.net/DTD/sodipodi-0.dtd"
   xmlns="http://www.w3.org/2000/svg"
   xmlns:svg="http://www.w3.org/2000/svg">
  <defs
     id="defs22" />
  <sodipodi:namedview
     id="namedview20"
     pagecolor="#505050"
     bordercolor="#eeeeee"
     borderopacity="1"
     inkscape:showpageshadow="0"
     inkscape:pageopacity="0"
     inkscape:pagecheckerboard="0"
     inkscape:deskcolor="#505050"
     inkscape:document-units="pt"
     showgrid="false" />
  <path
     d="m 13.107067,0.04245057 c -0.349501,0.1301826 -0.526178,0.2928522 -0.683752,0.6293988 l -0.109251,0.2333247 V 2.6365358 c 0,2.0147598 -10e-4,2.0077558 0.347635,2.3564018 0.247565,0.247566 0.500188,0.341759 0.916844,0.341759 0.418095,0 0.669123,-0.094 0.919409,-0.344288 0.162671,-0.16267 0.217957,-0.25344 0.283322,-0.465055 0.07676,-0.248577 0.0812,-0.350436 0.0812,-1.8693639 0,-1.4899835 -0.0056,-1.6244846 -0.07688,-1.85531993 -0.09443,-0.3057701 -0.28873,-0.5427521 -0.559717,-0.6827398 -0.169675,-0.087622 -0.25877,-0.1051267 -0.588974,-0.1155929 -0.258965,-0.0082 -0.436148,0.00518 -0.529836,0.040111 M 1.0996582e-6,2.5422616 v 2.512498 L 0.1137261,5.1684846 0.2274514,5.2822086 H 1.1253083 2.023165 v -0.38907 -0.38907 H 1.4590136 0.8948621 V 3.7842896 3.0645104 H 1.400653 1.906444 V 2.6754425 2.2863725 H 1.4006524 0.8948614 V 1.5471402 0.80790687 h 0.5641515 0.5641515 v -0.2316141 c 0,-0.1273805 -0.020934,-0.2775227 -0.046494,-0.333627 -0.088553,-0.1943791 -0.1859367,-0.212899 -1.1187708,-0.212899 H 1.996582e-7 V 2.5422637 M 3.6961651,0.32332007 c 0,0.2598204 0.010972,0.3045642 0.095517,0.38907 0.085556,0.085594 0.128043,0.095517 0.4085235,0.095517 H 4.5132122 V 2.8712229 c 0,2.1985947 0.00576,2.2710397 0.1886992,2.3689687 0.043188,0.02311 0.228501,0.04202 0.411791,0.04202 h 0.333278 V 3.0450586 0.80790687 h 0.408523 0.408524 v -0.2753452 c 0,-0.252428 -0.0095,-0.2847986 -0.113725,-0.38907 L 6.0365764,0.02976677 H 4.866371 3.6961653 v 0.2935533 M 7.9759354,2.5422637 v 2.5124979 l 0.113725,0.113725 c 0.108006,0.108005 0.130494,0.113725 0.44743,0.113725 h 0.333706 l 0.0022,-1.274205 0.0022,-1.2742035 0.396578,1.1866635 c 0.472604,1.414191 0.433891,1.361745 1.0053966,1.361745 h 0.344408 v -2.468766 c 0,-1.83119703 -0.01203,-2.49510523 -0.0465,-2.57077983 -0.07163,-0.1571841 -0.221809,-0.212899 -0.574072,-0.212899 H 9.6878064 l -0.0025,1.23529703 -0.0026,1.235297 -0.359618,-1.0893956 C 9.1252604,0.81179717 8.9420094,0.28235117 8.9158634,0.23441707 8.8343894,0.08505347 8.6703614,0.02976677 8.3084484,0.02976677 H 7.9757924 V 2.5422637 M 13.341961,0.88272507 13.228237,0.99644997 V 2.6354853 c 0,1.3623663 0.0096,1.6575933 0.05693,1.7490633 0.0619,0.119717 0.130182,0.15843 0.279545,0.15843 0.122595,0 0.247799,0.06373 0.333822,0.169907 0.06393,0.07891 0.06723,-0.0058 0.06785,-1.7261875 3.24e-4,-1.1277188 -0.01447,-1.8636841 -0.03953,-1.9539472 -0.0777,-0.27970253 -0.378137,-0.35677813 -0.584888,-0.15002583 M 2.5686095,6.1103076 c -0.1671444,0.08458 -0.1941069,0.197842 -0.1947293,0.817669 -7.773e-4,0.764951 0.037856,0.844282 0.4111301,0.844282 0.2456199,0 0.3275192,-0.09298 0.3275192,-0.371951 v -0.216361 l -0.1459012,0.0121 c -0.1420105,0.01175 -0.1462125,0.01653 -0.1580014,0.179869 -0.00779,0.108393 -0.02844,0.162359 -0.058361,0.152397 -0.067581,-0.02252 -0.065325,-1.163318 0.00236,-1.185885 0.032877,-0.01097 0.048633,0.02895 0.048633,0.123218 0,0.13672 0.00304,0.139405 0.1556281,0.139405 h 0.1556279 v -0.176833 c 0,-0.306977 -0.2624278,-0.460308 -0.54392,-0.317909 m 3.2094775,-0.0013 c -0.0091,0.02677 -0.05248,0.36378 -0.09637,0.74896 -0.04389,0.385178 -0.08797,0.748492 -0.09797,0.80732 -0.01755,0.103498 -0.01241,0.106993 0.155978,0.106993 h 0.174109 v -0.175082 c 0,-0.145512 0.01237,-0.175081 0.07327,-0.175081 0.07466,0 0.119756,0.09804 0.120728,0.262623 4.54e-4,0.0761 0.02089,0.08753 0.156174,0.08753 0.116603,0 0.155627,-0.01556 0.155627,-0.06218 0,-0.09034 -0.155394,-1.458779 -0.177376,-1.562194 -0.01661,-0.07793 -0.04214,-0.08754 -0.233093,-0.08754 -0.136835,0 -0.220486,0.01762 -0.231068,0.04863 m 3.092678,0.805609 v 0.857665 h 0.155627 0.155628 v -0.369616 -0.369616 h 0.116722 c 0.108161,0 0.116721,-0.01035 0.116721,-0.140571 0,-0.134113 -0.0054,-0.139833 -0.116721,-0.123492 l -0.116722,0.01716 v -0.226712 -0.22671 h 0.138627 c 0.132984,0 0.138158,-0.0052 0.126447,-0.126448 l -0.01218,-0.126448 -0.282075,-0.01144 -0.282076,-0.01143 v 0.857666 m 3.0217896,-0.828291 c -0.01428,0.01424 -0.02595,0.399419 -0.02595,0.855954 v 0.830002 h 0.311256 0.311256 v -0.136174 c 0,-0.129676 -0.0065,-0.136175 -0.136175,-0.136175 H 12.2168 v -0.233442 -0.233441 h 0.116721 c 0.107456,0 0.116721,-0.01082 0.116721,-0.136175 0,-0.125358 -0.0093,-0.136174 -0.116721,-0.136174 -0.115554,0 -0.116721,-0.0022 -0.116721,-0.213989 v -0.214033 h 0.136174 c 0.129678,0 0.136175,-0.0065 0.136175,-0.136174 v -0.136175 h -0.285306 c -0.15695,0 -0.297015,0.01167 -0.311255,0.02595 m -5.9125006,0.631481 c -0.03856,0.351368 -0.03435,0.431983 0.02261,0.431983 0.0372,0 0.04657,-0.07174 0.03689,-0.282075 -0.01871,-0.404944 -0.02871,-0.430157 -0.05949,-0.149908"
     stroke="none"
     fill="#040404"
     fill-rule="evenodd"
     id="path1230"
     style="fill:#ffffff;stroke-width:0.0389069" />
</svg>
