<?xml version="1.0" encoding="UTF-8" standalone="no"?>
<svg
   viewBox="0 0 18.040001 21.999998"
   width="18.040001pt"
   height="21.999998pt"
   version="1.1"
   id="svg1230"
   xmlns="http://www.w3.org/2000/svg"
   xmlns:svg="http://www.w3.org/2000/svg">
  <defs
     id="defs1234" />
  <path
     d="M 15.239,15.551 C 16.916,13.836 18.04,11.588 18.04,9.02 18.04,4.042 13.998,0 9.02,0 4.042,0 -1.9073488e-8,4.042 -1.9073488e-8,9.02 -1.9073488e-8,11.62 1.027,13.787 2.864,15.61 v 0 L 8.653,22 15.25,15.551 Z"
     fill="#FF69B4"
     id="path1228"
     style="fill:#ffb015;fill-opacity:1" />
  <g
     id="g13337"
     transform="matrix(0.09610043,0,0,0.09610043,-0.75617732,-0.43360513)">
    <path
       d="m 94.93,122.584 c -0.723,0.871 -1.507,4.246 -1.742,7.5 -0.36,4.971 -0.729,5.916 -2.308,5.916 -1.034,0 -1.88,0.675 -1.88,1.5 0,0.833 0.889,1.5 2,1.5 1.924,0 2,0.667 2,17.5 0,14.889 0.224,17.5 1.5,17.5 1.276,0 1.5,-2.611 1.5,-17.5 V 139 h 2.5 c 1.556,0 2.5,-0.567 2.5,-1.5 0,-0.933 -0.944,-1.5 -2.5,-1.5 -2.257,0 -2.5,-0.396 -2.5,-4.066 0,-5.048 1.468,-7.934 4.035,-7.934 1.081,0 1.965,-0.675 1.965,-1.5 0,-2.043 -5.357,-1.98 -7.07,0.084 m 13.627,0.639 c -0.932,1.329 -1.557,4.341 -1.557,7.5 0,4.61 -0.253,5.277 -2,5.277 -1.111,0 -2,0.667 -2,1.5 0,0.833 0.889,1.5 2,1.5 1.924,0 2,0.667 2,17.5 0,14.889 0.224,17.5 1.5,17.5 1.276,0 1.5,-2.611 1.5,-17.5 V 139 h 2.5 c 1.556,0 2.5,-0.567 2.5,-1.5 0,-0.933 -0.944,-1.5 -2.5,-1.5 -2.257,0 -2.5,-0.396 -2.5,-4.066 0,-5.048 1.468,-7.934 4.035,-7.934 1.081,0 1.965,-0.675 1.965,-1.5 0,-2.444 -5.607,-1.9 -7.443,0.723 M 51.455,138.455 C 49.076,140.833 49,141.356 49,155.263 c 0,9.913 0.387,14.879 1.25,16.05 2.81,3.809 11.424,3.808 14.313,-0.002 C 66.518,168.733 66.469,160 64.5,160 63.447,160 63,161.063 63,163.566 63,168.698 61.463,171 58.036,171 52.676,171 52,169.217 52,155.084 c 0,-11.105 0.239,-12.99 1.829,-14.429 3.879,-3.51 8.311,-0.979 8.611,4.919 0.239,4.702 2.876,5.534 3.387,1.069 1.005,-8.791 -8.408,-14.153 -14.372,-8.188 m 20,0 c -2.381,2.38 -2.455,2.892 -2.455,16.961 0,13.635 0.131,14.629 2.189,16.545 3.354,3.125 10.058,2.812 12.738,-0.596 1.876,-2.384 2.073,-3.983 2.073,-16.826 0,-13.54 -0.106,-14.29 -2.314,-16.365 -3.266,-3.068 -9.015,-2.936 -12.231,0.281 m 48,0 c -2.371,2.37 -2.455,2.929 -2.455,16.365 0,12.558 0.201,14.166 2.073,16.545 1.672,2.126 2.913,2.635 6.427,2.635 3.514,0 4.755,-0.509 6.427,-2.635 2.52,-3.203 2.916,-10.365 0.573,-10.365 -1.019,0 -1.51,1.042 -1.532,3.25 -0.041,4.199 -2.028,6.75 -5.257,6.75 -4.186,0 -5.711,-2.423 -5.711,-9.071 V 156 h 7.106 7.106 l -0.368,-8.098 c -0.32,-7.05 -0.672,-8.344 -2.717,-10 -3.355,-2.717 -8.654,-2.466 -11.672,0.553 m 20.406,-0.543 c -2.294,1.857 -2.361,2.345 -2.361,17.088 0,14.743 0.067,15.231 2.361,17.088 3.313,2.683 9.474,2.542 12.1,-0.277 2.537,-2.722 2.94,-10.811 0.539,-10.811 -1.007,0 -1.5,1.007 -1.5,3.066 0,4.653 -1.638,6.934 -4.978,6.934 -4.041,0 -6.022,-3.199 -6.022,-9.723 0,-5.258 0.012,-5.277 3.25,-5.417 1.787,-0.077 4.938,-0.038 7,0.086 l 3.75,0.226 v -7.451 c 0,-6.024 -0.397,-7.956 -2.073,-10.086 -2.579,-3.279 -8.474,-3.632 -12.066,-0.723 M 74,141 c -1.785,1.785 -2,3.333 -2,14.429 C 72,168.845 72.75,171 77.416,171 82.056,171 83,168.362 83,155.394 83,146.198 82.641,142.933 81.443,141.223 79.511,138.464 76.623,138.377 74,141 m 47.557,0.223 c -0.882,1.258 -1.557,4.294 -1.557,7 V 153 h 5.5 5.5 v -4.777 c 0,-5.642 -2.136,-9.223 -5.5,-9.223 -1.333,0 -3.074,0.982 -3.943,2.223 m 20.393,-0.662 c -0.713,0.858 -1.498,4.008 -1.747,7 L 139.752,153 h 5.624 5.624 v -4.777 c 0,-2.706 -0.675,-5.742 -1.557,-7 -1.806,-2.579 -5.623,-2.916 -7.493,-0.662"
       stroke="none"
       fill="#535353"
       fill-rule="evenodd"
       id="path12826" />
    <g
       id="g13319">
      <path
         d="m 57.241,29.995 c -5.744,3.502 -7.233,7.225 -7.237,18.101 -0.004,10.597 1.25,14.456 5.807,17.868 1.479,1.108 3.188,2.428 3.798,2.933 0.61,0.505 3.074,1.921 5.475,3.146 2.401,1.225 5.615,3.564 7.141,5.198 C 74.826,80.025 75,80.767 75,89.071 75,98.856 74.283,100 68.148,100 63.272,100 62,99.078 62,95.542 62,91.065 60.193,86.298 58.18,85.465 55.392,84.311 49.007,83.755 48.901,84.657 48.288,89.89 48.427,95.309 49.269,99 52.8,114.478 78.941,116.439 86.589,101.8 87.544,99.972 88,95.685 88,88.53 88,79.014 87.754,77.57 85.532,74.05 82.966,69.986 77.691,65.629 69.124,60.5 63.51,57.139 62,54.701 62,49 c 0,-7.661 3.852,-11.246 9.222,-8.583 1.699,0.843 2.354,2.141 2.578,5.106 0.513,6.8 3.53,9.038 11.575,8.583 1.712,-0.097 1.838,-0.828 1.441,-8.356 C 86.315,36.26 84.926,33.451 79.123,30.189 73.788,27.191 62.011,27.086 57.241,29.995 m 47.238,0.153 c -2.212,1.114 -5.025,3.555 -6.25,5.424 C 96.043,38.907 96,39.578 96,70.486 c 0,17.333 0.338,31.517 0.75,31.52 0.412,0.004 1.47,1.272 2.35,2.82 0.88,1.547 3.687,3.794 6.239,4.993 8.372,3.936 19.231,2.411 25.176,-3.534 4.423,-4.423 4.707,-7.148 4.307,-41.387 L 134.5,37.297 131,33.821 c -1.925,-1.912 -5.03,-4.004 -6.899,-4.649 -5.333,-1.839 -14.983,-1.359 -19.622,0.976 M 145,32.29 c -2.214,1.116 -2.54,2.002 -2.847,7.735 -0.19,3.561 0.219,15.16 0.91,25.775 1.103,16.96 1.479,19.42 3.096,20.285 1.21,0.648 2.475,0.646 3.692,-0.005 1.979,-1.059 2.288,-4.324 3.814,-40.33 l 0.626,-14.75 -3.396,0.015 c -1.867,0.008 -4.52,0.582 -5.895,1.275 m -32.697,6.932 C 108.554,40.99 108,45.047 108,70.715 c 0,23.963 0.41,27.523 3.4,29.52 1.859,1.241 6.039,0.846 8.377,-0.792 2.208,-1.546 2.223,-1.745 2.223,-29.877 0,-21.465 -0.303,-28.559 -1.25,-29.306 -2.081,-1.639 -6.12,-2.135 -8.447,-1.038 m 32.307,62.154 c -2.285,4.367 -2.606,5.762 -1.713,7.432 2.1,3.924 7.478,4.024 9.876,0.183 1.083,-1.734 0.876,-2.834 -1.414,-7.511 -1.476,-3.014 -2.965,-5.48 -3.31,-5.48 -0.345,0 -1.892,2.419 -3.439,5.376 M 96.232,130 c 0,1.925 0.206,2.713 0.457,1.75 0.252,-0.963 0.252,-2.537 0,-3.5 -0.251,-0.963 -0.457,-0.175 -0.457,1.75 m 43.926,32 c 0,1.375 0.227,1.938 0.504,1.25 0.278,-0.687 0.278,-1.812 0,-2.5 -0.277,-0.687 -0.504,-0.125 -0.504,1.25"
         stroke="none"
         fill="#ffa80d"
         fill-rule="evenodd"
         id="path12828"
         style="fill:#ffffff" />
    </g>
  </g>
</svg>
