<?xml version="1.0" encoding="UTF-8" standalone="no"?><!-- Generator: Gravit.io --><svg xmlns="http://www.w3.org/2000/svg" xmlns:xlink="http://www.w3.org/1999/xlink" style="isolation:isolate" viewBox="0 0 24 24" width="24pt" height="24pt"><defs><clipPath id="_clipPath_9YEti0FF23ApkgS905k28hMREqFDRnhx"><rect width="24" height="24"/></clipPath></defs><g clip-path="url(#_clipPath_9YEti0FF23ApkgS905k28hMREqFDRnhx)"><clipPath id="_clipPath_t6xz351d7NTxcSpRZe3Bfa86aJfEzlsc"><rect x="0" y="0" width="24" height="24" transform="matrix(1,0,0,1,0,0)" fill="rgb(255,255,255)"/></clipPath><g clip-path="url(#_clipPath_t6xz351d7NTxcSpRZe3Bfa86aJfEzlsc)"><g><clipPath id="_clipPath_xFcn0CCeopbvmjemztUAMb0uUUJMZBRq"><rect x="0" y="0" width="24" height="24" transform="matrix(1,0,0,1,0,0)" fill="rgb(255,255,255)"/></clipPath><g clip-path="url(#_clipPath_xFcn0CCeopbvmjemztUAMb0uUUJMZBRq)"><g><g><clipPath id="_clipPath_cIXTaICpsf3rgjb7sRDV0lrXeemedi7l"><rect x="0" y="-0.5" width="25" height="25" transform="matrix(1,0,0,1,0,0)" fill="rgb(255,255,255)"/></clipPath><g clip-path="url(#_clipPath_cIXTaICpsf3rgjb7sRDV0lrXeemedi7l)"><g><g><g><clipPath id="_clipPath_6lgQwE4a0YTPLN9JZOCXPdYzy9eSwThU"><rect x="3.104" y="0.542" width="18.792" height="22.917" transform="matrix(1,0,0,1,0,0)" fill="rgb(255,255,255)"/></clipPath><g clip-path="url(#_clipPath_6lgQwE4a0YTPLN9JZOCXPdYzy9eSwThU)"><g><g><g><g><clipPath id="_clipPath_hRyZdBBB4rJ9cjKywYzHXnVrg8gqXfAX"><rect x="3.104" y="0.542" width="18.792" height="22.917" transform="matrix(1,0,0,1,0,0)" fill="rgb(255,255,255)"/></clipPath><g clip-path="url(#_clipPath_hRyZdBBB4rJ9cjKywYzHXnVrg8gqXfAX)"><g><g><g><g><g><path d=" M 18.978 16.741 C 20.725 14.954 21.896 12.613 21.896 9.938 C 21.896 4.752 17.685 0.542 12.5 0.542 C 7.315 0.542 3.104 4.752 3.104 9.938 C 3.104 12.646 4.174 14.903 6.088 16.802 L 6.088 16.802 L 12.118 23.458 L 18.99 16.741 L 18.978 16.741 L 18.978 16.741 L 18.978 16.741 L 18.978 16.741 Z " fill="rgb(223,3,223)"/></g></g></g></g></g></g><clipPath id="_clipPath_EarXrIomi8d9cXsCZHULqhAEpYjrhkLN"><rect x="3.104" y="0.542" width="18.792" height="22.917" transform="matrix(1,0,0,1,0,0)" fill="rgb(255,255,255)"/></clipPath><g clip-path="url(#_clipPath_EarXrIomi8d9cXsCZHULqhAEpYjrhkLN)"><g><g><g><g><g><ellipse vector-effect="non-scaling-stroke" cx="12.499999999999996" cy="9.675781250000004" rx="6.840367797996368" ry="6.764322916666668" fill="rgb(255,255,255)"/></g></g></g></g></g></g><rect x="6.763" y="4.539" width="11.237" height="9" transform="matrix(1,0,0,1,0,0)" fill="none"/></g></g></g></g></g></g></g></g></g></g></g></g></g></g><g><g><g><path d=" M 14.2 10.026 L 11.938 5.891 L 13.563 4.91 L 16.375 10.026 L 14.2 10.026 Z " fill="rgb(223,3,223)"/><path d=" M 8.175 9.447 L 9.8 8.458 L 10.66 10.026 L 8.49 10.026 L 8.175 9.447 Z " fill="rgb(223,3,223)"/><path d=" M 11.364 12.663 L 11.826 12.663 L 11.826 10.696 L 11.364 10.696 L 11.364 12.663 Z " fill="rgb(223,3,223)"/><path d=" M 17.159 12.71 C 16.642 12.71 16.331 12.429 16.314 12.033 L 16.802 12.033 C 16.802 12.157 16.875 12.338 17.191 12.345 C 17.401 12.345 17.5 12.215 17.5 12.117 C 17.487 11.963 17.302 11.949 17.105 11.916 C 16.907 11.883 16.739 11.845 16.617 11.779 C 16.461 11.695 16.356 11.514 16.356 11.306 C 16.356 10.954 16.646 10.676 17.13 10.676 C 17.599 10.676 17.895 10.934 17.926 11.319 L 17.456 11.319 C 17.451 11.215 17.432 11.052 17.155 11.052 C 16.968 11.052 16.844 11.091 16.833 11.229 C 16.833 11.43 17.222 11.416 17.525 11.5 C 17.815 11.578 18 11.768 18 12.033 C 18 12.522 17.624 12.71 17.159 12.71" fill="rgb(223,3,223)"/><path d=" M 10.079 7.691 L 11.704 6.705 L 13.527 10.026 L 11.826 10.026 L 11.826 10.512 L 11.364 10.512 L 11.364 10.024 L 10.079 7.691 Z " fill="rgb(223,3,223)"/><path d=" M 10.122 12.71 C 9.583 12.71 9.146 12.248 9.146 11.688 C 9.146 11.122 9.583 10.676 10.122 10.676 C 10.325 10.676 10.51 10.733 10.672 10.85 L 10.672 10.026 L 11.135 10.026 L 11.135 12.663 L 10.672 12.663 L 10.672 12.533 C 10.51 12.643 10.325 12.71 10.122 12.71 L 10.122 12.71 Z  M 9.59 11.688 C 9.59 11.993 9.838 12.248 10.134 12.248 C 10.424 12.248 10.672 11.993 10.672 11.688 C 10.672 11.383 10.424 11.122 10.134 11.122 C 9.838 11.122 9.59 11.383 9.59 11.688" fill-rule="evenodd" fill="rgb(223,3,223)"/><path d=" M 13.539 10.026 L 13.996 10.026 L 13.996 12.663 L 13.539 12.663 L 13.539 12.533 C 13.384 12.643 13.193 12.71 12.982 12.71 C 12.451 12.71 12.013 12.248 12.013 11.688 C 12.013 11.122 12.451 10.676 12.982 10.676 C 13.193 10.676 13.378 10.733 13.539 10.85 L 13.539 10.026 L 13.539 10.026 Z  M 12.463 11.688 C 12.463 11.993 12.711 12.248 12.995 12.248 C 13.291 12.248 13.539 11.993 13.539 11.688 C 13.539 11.383 13.291 11.122 12.995 11.122 C 12.711 11.122 12.463 11.383 12.463 11.688 Z " fill-rule="evenodd" fill="rgb(223,3,223)"/><path d=" M 15.12 12.71 C 14.59 12.71 14.151 12.248 14.151 11.688 C 14.151 11.122 14.59 10.676 15.12 10.676 C 15.324 10.676 15.515 10.733 15.671 10.85 L 15.671 10.693 L 16.133 10.693 L 16.133 12.663 L 15.671 12.663 L 15.671 12.533 C 15.515 12.643 15.33 12.71 15.12 12.71 Z  M 14.601 11.688 C 14.601 11.993 14.849 12.248 15.139 12.248 C 15.429 12.248 15.671 11.993 15.671 11.688 C 15.671 11.383 15.429 11.122 15.139 11.122 C 14.849 11.122 14.601 11.383 14.601 11.688 Z " fill-rule="evenodd" fill="rgb(223,3,223)"/><path d=" M 7.446 11.688 C 7.446 11.993 7.694 12.248 7.984 12.248 C 8.28 12.248 8.528 11.993 8.528 11.688 C 8.528 11.383 8.28 11.122 7.984 11.122 C 7.694 11.122 7.446 11.383 7.446 11.688 L 7.446 11.688 Z  M 7.971 12.71 C 7.439 12.71 7 12.248 7 11.688 C 7 11.122 7.439 10.676 7.971 10.676 C 8.175 10.676 8.366 10.733 8.528 10.85 L 8.528 10.693 L 8.984 10.693 L 8.984 12.663 L 8.528 12.663 L 8.528 12.533 C 8.373 12.643 8.181 12.71 7.971 12.71 Z " fill-rule="evenodd" fill="rgb(223,3,223)"/></g></g></g></g></svg>