<?xml version="1.0" encoding="UTF-8" standalone="no"?><!-- Generator: Gravit.io --><svg xmlns="http://www.w3.org/2000/svg" xmlns:xlink="http://www.w3.org/1999/xlink" style="isolation:isolate" viewBox="0 0 24 24" width="24pt" height="24pt"><defs><clipPath id="_clipPath_xx8QPysVQdO7dqJzKmucAkLm84wBMXMC"><rect width="24" height="24"/></clipPath></defs><g clip-path="url(#_clipPath_xx8QPysVQdO7dqJzKmucAkLm84wBMXMC)"><clipPath id="_clipPath_80mkMkChWvCgEuPscILgwEYzvMxVXsXX"><rect x="0" y="-0.5" width="25" height="25" transform="matrix(1,0,0,1,0,0)" fill="rgb(255,255,255)"/></clipPath><g clip-path="url(#_clipPath_80mkMkChWvCgEuPscILgwEYzvMxVXsXX)"><g><clipPath id="_clipPath_461IVEM3xtkwf7xaA2M3JwJBcfAgUEwx"><rect x="3.104" y="0.542" width="18.792" height="22.917" transform="matrix(1,0,0,1,0,0)" fill="rgb(255,255,255)"/></clipPath><g clip-path="url(#_clipPath_461IVEM3xtkwf7xaA2M3JwJBcfAgUEwx)"><g><g><clipPath id="_clipPath_DllJa3mZPJfb7IIdWJjkLKngXFl1CYyp"><rect x="3.104" y="0.542" width="18.792" height="22.917" transform="matrix(1,0,0,1,0,0)" fill="rgb(255,255,255)"/></clipPath><g clip-path="url(#_clipPath_DllJa3mZPJfb7IIdWJjkLKngXFl1CYyp)"><g><g><g><path d=" M 18.978 16.741 C 20.725 14.954 21.896 12.612 21.896 9.938 C 21.896 4.752 17.685 0.542 12.5 0.542 C 7.315 0.542 3.104 4.752 3.104 9.938 C 3.104 12.646 4.174 14.903 6.088 16.802 L 6.088 16.802 L 12.118 23.458 L 18.99 16.741 L 18.978 16.741 L 18.978 16.741 Z " fill="rgb(0,0,0)"/></g></g></g></g><clipPath id="_clipPath_HD9mYfHWaoZOUipeuqLRpjPwS4sjNR4t"><rect x="3.104" y="0.542" width="18.792" height="22.917" transform="matrix(1,0,0,1,0,0)" fill="rgb(255,255,255)"/></clipPath><g clip-path="url(#_clipPath_HD9mYfHWaoZOUipeuqLRpjPwS4sjNR4t)"><g><g><g><ellipse vector-effect="non-scaling-stroke" cx="12.499999999999996" cy="9.675781250000004" rx="6.840367797996368" ry="6.764322916666668" fill="rgb(255,255,255)"/></g></g></g></g><rect x="6.762" y="4.539" width="10.73" height="9.05" transform="matrix(1,0,0,1,0,0)" fill="none"/></g></g></g><g><g><g><path d=" M 14.271 9.832 L 11.915 5.692 L 13.607 4.708 L 16.536 9.832 L 14.271 9.832 Z " fill="rgb(0,0,0)"/><path d=" M 7.995 9.252 L 9.688 8.263 L 10.583 9.832 L 8.323 9.832 L 7.995 9.252 Z " fill="rgb(0,0,0)"/><path d=" M 11.317 12.474 L 11.798 12.474 L 11.798 10.503 L 11.317 10.503 L 11.317 12.474 Z " fill="rgb(0,0,0)"/><path d=" M 17.353 12.521 C 16.815 12.521 16.491 12.24 16.473 11.843 L 16.981 11.843 C 16.981 11.968 17.057 12.149 17.386 12.155 C 17.605 12.155 17.708 12.025 17.708 11.927 C 17.695 11.772 17.502 11.759 17.297 11.726 C 17.091 11.693 16.916 11.655 16.789 11.589 C 16.626 11.504 16.517 11.323 16.517 11.115 C 16.517 10.763 16.819 10.483 17.323 10.483 C 17.811 10.483 18.12 10.743 18.152 11.128 L 17.663 11.128 C 17.657 11.024 17.638 10.86 17.349 10.86 C 17.154 10.86 17.025 10.9 17.014 11.038 C 17.014 11.239 17.419 11.225 17.734 11.309 C 18.036 11.388 18.229 11.577 18.229 11.843 C 18.229 12.332 17.838 12.521 17.353 12.521 Z " fill="rgb(0,0,0)"/><path d=" M 9.978 7.494 L 11.671 6.506 L 13.57 9.832 L 11.798 9.832 L 11.798 10.32 L 11.317 10.32 L 11.317 9.83 L 9.978 7.494 Z " fill="rgb(0,0,0)"/><path d=" M 10.023 12.521 C 9.461 12.521 9.006 12.058 9.006 11.498 C 9.006 10.931 9.461 10.483 10.023 10.483 C 10.234 10.483 10.427 10.541 10.596 10.658 L 10.596 9.832 L 11.078 9.832 L 11.078 12.474 L 10.596 12.474 L 10.596 12.344 C 10.427 12.454 10.234 12.521 10.023 12.521 L 10.023 12.521 Z  M 9.469 11.498 C 9.469 11.803 9.727 12.058 10.035 12.058 C 10.338 12.058 10.596 11.803 10.596 11.498 C 10.596 11.192 10.338 10.931 10.035 10.931 C 9.727 10.931 9.469 11.192 9.469 11.498 Z " fill-rule="evenodd" fill="rgb(0,0,0)"/><path d=" M 13.582 9.832 L 14.058 9.832 L 14.058 12.474 L 13.582 12.474 L 13.582 12.344 C 13.421 12.454 13.222 12.521 13.002 12.521 C 12.449 12.521 11.993 12.058 11.993 11.498 C 11.993 10.931 12.449 10.483 13.002 10.483 C 13.222 10.483 13.415 10.541 13.582 10.658 L 13.582 9.832 L 13.582 9.832 Z  M 12.461 11.498 C 12.461 11.803 12.72 12.058 13.016 12.058 C 13.324 12.058 13.582 11.803 13.582 11.498 C 13.582 11.192 13.324 10.931 13.016 10.931 C 12.72 10.931 12.461 11.192 12.461 11.498 Z " fill-rule="evenodd" fill="rgb(0,0,0)"/><path d=" M 15.229 12.521 C 14.677 12.521 14.22 12.058 14.22 11.498 C 14.22 10.931 14.677 10.483 15.229 10.483 C 15.442 10.483 15.641 10.541 15.803 10.658 L 15.803 10.501 L 16.284 10.501 L 16.284 12.474 L 15.803 12.474 L 15.803 12.344 C 15.641 12.454 15.448 12.521 15.229 12.521 Z  M 14.689 11.498 C 14.689 11.803 14.947 12.058 15.249 12.058 C 15.551 12.058 15.803 11.803 15.803 11.498 C 15.803 11.192 15.551 10.931 15.249 10.931 C 14.947 10.931 14.689 11.192 14.689 11.498 Z " fill-rule="evenodd" fill="rgb(0,0,0)"/><path d=" M 7.235 11.498 C 7.235 11.803 7.494 12.058 7.796 12.058 C 8.104 12.058 8.363 11.803 8.363 11.498 C 8.363 11.192 8.104 10.931 7.796 10.931 C 7.494 10.931 7.235 11.192 7.235 11.498 L 7.235 11.498 Z  M 7.782 12.521 C 7.228 12.521 6.771 12.058 6.771 11.498 C 6.771 10.931 7.228 10.483 7.782 10.483 C 7.995 10.483 8.194 10.541 8.363 10.658 L 8.363 10.501 L 8.838 10.501 L 8.838 12.474 L 8.363 12.474 L 8.363 12.344 C 8.201 12.454 8.001 12.521 7.782 12.521 Z " fill-rule="evenodd" fill="rgb(0,0,0)"/></g></g></g></g></g></g></svg>