<?xml version="1.0" encoding="UTF-8" standalone="no"?><!-- Generator: Gravit.io --><svg xmlns="http://www.w3.org/2000/svg" xmlns:xlink="http://www.w3.org/1999/xlink" style="isolation:isolate" viewBox="0 0 24 24" width="24pt" height="24pt"><defs><clipPath id="_clipPath_SrLQeDeBayYhsKXVGq5l5LmY8cvRppUG"><rect width="24" height="24"/></clipPath></defs><g clip-path="url(#_clipPath_SrLQeDeBayYhsKXVGq5l5LmY8cvRppUG)"><clipPath id="_clipPath_o6c0QSTkbAb1aySGcs5OswY8jjkDAd11"><rect x="0" y="0" width="24" height="24" transform="matrix(1,0,0,1,0,0)" fill="rgb(255,255,255)"/></clipPath><g clip-path="url(#_clipPath_o6c0QSTkbAb1aySGcs5OswY8jjkDAd11)"><g><clipPath id="_clipPath_Jube0pt0d5RRAGlKUyu2IwUBBfF4lwY0"><rect x="0" y="-0.5" width="25" height="25" transform="matrix(1,0,0,1,0,0)" fill="rgb(255,255,255)"/></clipPath><g clip-path="url(#_clipPath_Jube0pt0d5RRAGlKUyu2IwUBBfF4lwY0)"><g><g><clipPath id="_clipPath_ZkNZxdv2t0yrXgii0ytHsAhyUi2LNz6E"><rect x="3.104" y="0.542" width="18.792" height="22.917" transform="matrix(1,0,0,1,0,0)" fill="rgb(255,255,255)"/></clipPath><g clip-path="url(#_clipPath_ZkNZxdv2t0yrXgii0ytHsAhyUi2LNz6E)"><g><g><g><clipPath id="_clipPath_UuCFSn9dWlMp9PZsXizNHmaaduntjaqP"><rect x="3.104" y="0.542" width="18.792" height="22.917" transform="matrix(1,0,0,1,0,0)" fill="rgb(255,255,255)"/></clipPath><g clip-path="url(#_clipPath_UuCFSn9dWlMp9PZsXizNHmaaduntjaqP)"><g><g><g><g><path d=" M 18.978 16.741 C 20.725 14.954 21.896 12.613 21.896 9.938 C 21.896 4.752 17.685 0.542 12.5 0.542 C 7.315 0.542 3.104 4.752 3.104 9.938 C 3.104 12.646 4.174 14.903 6.088 16.802 L 6.088 16.802 L 12.118 23.458 L 18.99 16.741 L 18.978 16.741 L 18.978 16.741 L 18.978 16.741 Z " fill="rgb(185,41,41)"/></g></g></g></g></g><clipPath id="_clipPath_0LyxMeHU9CvdkNfpODJiOksCEStd3I6S"><rect x="3.104" y="0.542" width="18.792" height="22.917" transform="matrix(1,0,0,1,0,0)" fill="rgb(255,255,255)"/></clipPath><g clip-path="url(#_clipPath_0LyxMeHU9CvdkNfpODJiOksCEStd3I6S)"><g><g><g><g><ellipse vector-effect="non-scaling-stroke" cx="12.499999999999996" cy="9.675781250000004" rx="6.840367797996368" ry="6.764322916666669" fill="rgb(255,255,255)"/><g><g><g><path d=" M 14.2 9.976 L 11.938 5.979 L 13.563 5.029 L 16.375 9.976 L 14.2 9.976 Z " fill="rgb(185,41,41)"/><path d=" M 8.175 9.416 L 9.8 8.46 L 10.66 9.976 L 8.49 9.976 L 8.175 9.416 Z " fill="rgb(185,41,41)"/><path d=" M 11.364 12.526 L 11.826 12.526 L 11.826 10.624 L 11.364 10.624 L 11.364 12.526 Z " fill="rgb(185,41,41)"/><path d=" M 17.159 12.571 C 16.642 12.571 16.331 12.3 16.314 11.917 L 16.802 11.917 C 16.802 12.037 16.875 12.212 17.191 12.219 C 17.401 12.219 17.5 12.092 17.5 11.998 C 17.487 11.849 17.302 11.836 17.105 11.804 C 16.907 11.772 16.739 11.735 16.617 11.671 C 16.461 11.59 16.356 11.415 16.356 11.214 C 16.356 10.874 16.646 10.605 17.13 10.605 C 17.599 10.605 17.895 10.855 17.926 11.227 L 17.456 11.227 C 17.451 11.126 17.432 10.968 17.155 10.968 C 16.968 10.968 16.844 11.006 16.833 11.139 C 16.833 11.333 17.222 11.321 17.525 11.402 C 17.815 11.477 18 11.661 18 11.917 C 18 12.39 17.624 12.571 17.159 12.571" fill="rgb(185,41,41)"/><path d=" M 10.079 7.719 L 11.704 6.765 L 13.527 9.976 L 11.826 9.976 L 11.826 10.446 L 11.364 10.446 L 11.364 9.974 L 10.079 7.719 Z " fill="rgb(185,41,41)"/><path d=" M 10.122 12.571 C 9.583 12.571 9.146 12.124 9.146 11.584 C 9.146 11.036 9.583 10.605 10.122 10.605 C 10.325 10.605 10.51 10.66 10.672 10.773 L 10.672 9.976 L 11.135 9.976 L 11.135 12.526 L 10.672 12.526 L 10.672 12.4 C 10.51 12.507 10.325 12.571 10.122 12.571 L 10.122 12.571 Z  M 9.59 11.584 C 9.59 11.879 9.838 12.124 10.134 12.124 C 10.424 12.124 10.672 11.879 10.672 11.584 C 10.672 11.289 10.424 11.036 10.134 11.036 C 9.838 11.036 9.59 11.289 9.59 11.584" fill-rule="evenodd" fill="rgb(185,41,41)"/><path d=" M 13.539 9.976 L 13.996 9.976 L 13.996 12.526 L 13.539 12.526 L 13.539 12.4 C 13.384 12.507 13.193 12.571 12.982 12.571 C 12.451 12.571 12.013 12.124 12.013 11.584 C 12.013 11.036 12.451 10.605 12.982 10.605 C 13.193 10.605 13.378 10.66 13.539 10.773 L 13.539 9.976 L 13.539 9.976 Z  M 12.463 11.584 C 12.463 11.879 12.711 12.124 12.995 12.124 C 13.291 12.124 13.539 11.879 13.539 11.584 C 13.539 11.289 13.291 11.036 12.995 11.036 C 12.711 11.036 12.463 11.289 12.463 11.584 Z " fill-rule="evenodd" fill="rgb(185,41,41)"/><path d=" M 15.12 12.571 C 14.59 12.571 14.151 12.124 14.151 11.584 C 14.151 11.036 14.59 10.605 15.12 10.605 C 15.324 10.605 15.515 10.66 15.671 10.773 L 15.671 10.622 L 16.133 10.622 L 16.133 12.526 L 15.671 12.526 L 15.671 12.4 C 15.515 12.507 15.33 12.571 15.12 12.571 Z  M 14.601 11.584 C 14.601 11.879 14.849 12.124 15.139 12.124 C 15.429 12.124 15.671 11.879 15.671 11.584 C 15.671 11.289 15.429 11.036 15.139 11.036 C 14.849 11.036 14.601 11.289 14.601 11.584 Z " fill-rule="evenodd" fill="rgb(185,41,41)"/><path d=" M 7.446 11.584 C 7.446 11.879 7.694 12.124 7.984 12.124 C 8.28 12.124 8.528 11.879 8.528 11.584 C 8.528 11.289 8.28 11.036 7.984 11.036 C 7.694 11.036 7.446 11.289 7.446 11.584 L 7.446 11.584 Z  M 7.971 12.571 C 7.439 12.571 7 12.124 7 11.584 C 7 11.036 7.439 10.605 7.971 10.605 C 8.175 10.605 8.366 10.66 8.528 10.773 L 8.528 10.622 L 8.984 10.622 L 8.984 12.526 L 8.528 12.526 L 8.528 12.4 C 8.373 12.507 8.181 12.571 7.971 12.571 Z " fill-rule="evenodd" fill="rgb(185,41,41)"/></g></g></g></g></g></g></g></g><rect x="6.763" y="4.539" width="11.237" height="9" transform="matrix(1,0,0,1,0,0)" fill="none"/></g></g></g></g></g></g></g></g></g></g></svg>