<?xml version="1.0" encoding="UTF-8" standalone="no"?><!-- Generator: Gravit.io --><svg xmlns="http://www.w3.org/2000/svg" xmlns:xlink="http://www.w3.org/1999/xlink" style="isolation:isolate" viewBox="0 0 24 24" width="24pt" height="24pt"><defs><clipPath id="_clipPath_Y9VXgfi6Q3VsRuDeawe8a7CkNnl6xbNf"><rect width="24" height="24"/></clipPath></defs><g clip-path="url(#_clipPath_Y9VXgfi6Q3VsRuDeawe8a7CkNnl6xbNf)"><clipPath id="_clipPath_XvfUTBqBvtXTxZS2HdO0MXGCjRJKjLA3"><rect x="0" y="0" width="24" height="24" transform="matrix(1,0,0,1,0,0)" fill="rgb(255,255,255)"/></clipPath><g clip-path="url(#_clipPath_XvfUTBqBvtXTxZS2HdO0MXGCjRJKjLA3)"><g><clipPath id="_clipPath_5zA4LXiX3YpWpaftLeQ5h2E9ANUGGaHV"><rect x="0.24" y="0" width="23.52" height="24" transform="matrix(1,0,0,1,0,0)" fill="rgb(255,255,255)"/></clipPath><g clip-path="url(#_clipPath_5zA4LXiX3YpWpaftLeQ5h2E9ANUGGaHV)"><g><g><path d=" M 18.095 16.551 C 19.738 14.836 20.84 12.588 20.84 10.02 C 20.84 5.042 16.878 1 12 1 C 7.122 1 3.16 5.042 3.16 10.02 C 3.16 12.62 4.167 14.787 5.967 16.61 L 5.967 16.61 L 11.64 23 L 18.105 16.551 L 18.095 16.551 L 18.095 16.551 Z " fill="rgb(110,3,181)"/></g></g></g><path d=" M 10.821 13.073 L 11.291 13.073 L 11.291 12.541 L 10.821 12.541 L 10.821 13.073 L 10.821 13.073 Z  M 10.821 15.327 L 11.291 15.327 L 11.291 13.218 L 10.821 13.218 L 10.821 15.327 L 10.821 15.327 Z  M 15.632 13.421 C 15.457 13.292 15.235 13.215 14.996 13.215 C 14.396 13.215 13.909 13.692 13.909 14.278 C 13.909 14.867 14.396 15.344 14.996 15.344 C 15.235 15.344 15.457 15.269 15.632 15.138 L 15.637 15.327 L 16.103 15.327 L 16.103 13.218 L 15.632 13.218 L 15.632 13.421 L 15.632 13.421 Z  M 15.01 14.872 L 15.007 14.872 C 14.673 14.872 14.405 14.609 14.405 14.278 C 14.405 13.95 14.673 13.685 15.007 13.685 C 15.339 13.685 15.61 13.95 15.61 14.278 C 15.612 14.604 15.343 14.87 15.01 14.872 Z  M 17.359 14.038 C 17.263 14.032 16.87 14.012 16.87 13.787 C 16.87 13.635 17.129 13.596 17.248 13.596 C 17.475 13.596 17.618 13.721 17.645 13.895 L 18.117 13.892 C 18.105 13.484 17.741 13.204 17.26 13.206 C 16.68 13.21 16.386 13.501 16.386 13.87 C 16.386 14.075 16.503 14.195 16.639 14.301 C 16.762 14.401 17.056 14.452 17.21 14.47 C 17.484 14.498 17.674 14.541 17.674 14.741 C 17.674 14.867 17.49 14.975 17.231 14.975 C 17.088 14.975 16.834 14.887 16.808 14.649 L 16.345 14.649 C 16.401 15.152 16.82 15.375 17.234 15.375 C 17.421 15.375 17.726 15.332 17.875 15.227 C 18.05 15.101 18.172 14.924 18.172 14.687 C 18.172 14.367 17.989 14.095 17.359 14.038 L 17.359 14.038 L 17.359 14.038 Z  M 7.638 13.421 C 7.463 13.292 7.241 13.215 7.002 13.215 C 6.402 13.215 5.916 13.692 5.916 14.278 C 5.916 14.867 6.402 15.344 7.002 15.344 C 7.241 15.344 7.463 15.269 7.638 15.138 L 7.643 15.327 L 8.11 15.327 L 8.11 13.218 L 7.638 13.218 L 7.638 13.421 L 7.638 13.421 Z  M 7.016 14.872 L 7.014 14.872 C 6.679 14.872 6.411 14.609 6.411 14.278 C 6.411 13.95 6.679 13.685 7.014 13.685 C 7.345 13.685 7.616 13.95 7.616 14.278 C 7.618 14.604 7.349 14.87 7.016 14.872 Z  M 13.239 12.544 L 13.239 13.421 C 13.064 13.292 12.842 13.215 12.603 13.215 C 12.003 13.215 11.517 13.692 11.517 14.278 C 11.517 14.867 12.003 15.344 12.603 15.344 C 12.842 15.344 13.064 15.269 13.239 15.138 L 13.244 15.327 L 13.71 15.327 L 13.71 12.544 L 13.239 12.544 L 13.239 12.544 L 13.239 12.544 Z  M 12.617 14.872 L 12.615 14.872 C 12.28 14.872 12.012 14.609 12.012 14.278 C 12.012 13.95 12.28 13.685 12.615 13.685 C 12.946 13.685 13.217 13.95 13.217 14.278 C 13.219 14.604 12.95 14.87 12.617 14.872 Z  M 10.044 12.544 L 10.044 13.421 C 9.869 13.292 9.648 13.215 9.408 13.215 C 8.808 13.215 8.322 13.692 8.322 14.278 C 8.322 14.867 8.808 15.344 9.408 15.344 C 9.648 15.344 9.869 15.269 10.044 15.138 L 10.05 15.327 L 10.516 15.327 L 10.516 12.544 L 10.044 12.544 L 10.044 12.544 L 10.044 12.544 Z  M 9.422 14.872 L 9.42 14.872 C 9.085 14.872 8.817 14.609 8.817 14.278 C 8.817 13.95 9.085 13.685 9.42 13.685 C 9.751 13.685 10.022 13.95 10.022 14.278 C 10.024 14.604 9.755 14.87 9.422 14.872 Z  M 12.096 8.594 L 13.645 8.594 C 13.682 8.319 13.702 8.039 13.702 7.755 C 13.702 6.148 13.095 4.682 12.096 3.562 C 11.097 4.682 10.49 6.148 10.49 7.755 C 10.49 8.039 10.51 8.319 10.547 8.594 L 12.096 8.594 L 12.096 8.594 Z  M 11.355 10.929 C 11.568 11.293 11.816 11.634 12.096 11.948 C 12.375 11.634 12.623 11.293 12.836 10.929 L 12.096 10.929 L 11.355 10.929 L 11.355 10.929 Z  M 9.767 7.957 C 8.76 6.821 7.409 6.149 5.995 5.958 C 5.987 6.858 6.188 7.76 6.601 8.594 L 10.258 8.594 C 10.109 8.371 9.945 8.158 9.767 7.957 Z  M 8.674 10.929 C 9.456 11.445 10.338 11.768 11.247 11.89 C 11.25 11.569 11.225 11.248 11.175 10.929 L 8.674 10.929 L 8.674 10.929 Z  M 14.425 7.957 C 14.247 8.158 14.083 8.371 13.934 8.594 L 17.59 8.594 C 18.003 7.76 18.204 6.858 18.197 5.958 C 16.783 6.149 15.431 6.821 14.425 7.957 L 14.425 7.957 L 14.425 7.957 Z  M 12.944 11.89 C 13.853 11.768 14.736 11.445 15.518 10.929 L 13.017 10.929 C 12.966 11.248 12.941 11.569 12.944 11.89 L 12.944 11.89 L 12.944 11.89 Z  M 12.096 10.031 L 7.605 10.031 C 7.743 10.178 7.889 10.318 8.041 10.45 L 16.15 10.45 C 16.303 10.318 16.448 10.178 16.586 10.031 L 15.099 10.031 L 12.096 10.031 L 12.096 10.031 Z  M 12.096 9.073 L 6.868 9.073 C 6.97 9.238 7.08 9.397 7.198 9.552 L 16.993 9.552 C 17.111 9.397 17.221 9.238 17.324 9.073 L 14.475 9.073 L 12.096 9.073 L 12.096 9.073 Z " fill="rgb(255,255,255)"/></g></g></g></svg>