<?xml version="1.0" encoding="UTF-8" standalone="no"?><!-- Generator: Gravit.io --><svg xmlns="http://www.w3.org/2000/svg" xmlns:xlink="http://www.w3.org/1999/xlink" style="isolation:isolate" viewBox="0 0 24 24" width="24pt" height="24pt"><defs><clipPath id="_clipPath_LHGUgA0MmRNsQK1byrcLegXt21ILaubV"><rect width="24" height="24"/></clipPath></defs><g clip-path="url(#_clipPath_LHGUgA0MmRNsQK1byrcLegXt21ILaubV)"><rect x="0" y="0" width="24" height="24" transform="matrix(1,0,0,1,0,0)" fill="none"/><clipPath id="_clipPath_RBclgTGkKlvWCEtzcYwoy0RuStv6WnPu"><rect x="0" y="0" width="24" height="24" transform="matrix(1,0,0,1,0,0)" fill="rgb(255,255,255)"/></clipPath><g clip-path="url(#_clipPath_RBclgTGkKlvWCEtzcYwoy0RuStv6WnPu)"><g><clipPath id="_clipPath_EL8ti5w5ibAtLoHmfrn0yz0RrRcz9lxY"><rect x="0" y="0" width="24" height="24" transform="matrix(1,0,0,1,0,0)" fill="rgb(255,255,255)"/></clipPath><g clip-path="url(#_clipPath_EL8ti5w5ibAtLoHmfrn0yz0RrRcz9lxY)"><g><g><clipPath id="_clipPath_azLiyLxHfzFeVAe5h6sYcW24kKU167Je"><rect x="2.98" y="1" width="18.04" height="22" transform="matrix(1,0,0,1,0,0)" fill="rgb(255,255,255)"/></clipPath><g clip-path="url(#_clipPath_azLiyLxHfzFeVAe5h6sYcW24kKU167Je)"><g><g><g><clipPath id="_clipPath_5s5PVhFeT1Iiep5fPOJCTFrelWqVNrpD"><rect x="2.98" y="1" width="18.04" height="22" transform="matrix(1,0,0,1,0,0)" fill="rgb(255,255,255)"/></clipPath><g clip-path="url(#_clipPath_5s5PVhFeT1Iiep5fPOJCTFrelWqVNrpD)"><g><g><g><g><path d=" M 18.219 16.551 C 19.896 14.836 21.02 12.588 21.02 10.02 C 21.02 5.042 16.978 1 12 1 C 7.022 1 2.98 5.042 2.98 10.02 C 2.98 12.62 4.007 14.787 5.844 16.61 L 5.844 16.61 L 11.633 23 L 18.23 16.551 L 18.219 16.551 L 18.219 16.551 L 18.219 16.551 L 18.219 16.551 Z " fill="rgb(255,153,0)"/></g></g></g></g></g><clipPath id="_clipPath_hQjZV755h5ZJUDVJoP5Ui6xr05MOYKU2"><rect x="2.98" y="1" width="18.04" height="22" transform="matrix(1,0,0,1,0,0)" fill="rgb(255,255,255)"/></clipPath><g clip-path="url(#_clipPath_hQjZV755h5ZJUDVJoP5Ui6xr05MOYKU2)"><g><g><g><g><ellipse vector-effect="non-scaling-stroke" cx="11.999999999999996" cy="9.76875" rx="6.566753086076513" ry="6.493750000000002" fill="rgb(255,255,255)"/></g></g></g></g></g></g></g></g></g></g></g></g></g></g><g><g><g><path d=" M 13.545 10.091 L 11.489 6.381 L 12.966 5.5 L 15.523 10.091 L 13.545 10.091 Z " fill="rgb(255,153,0)"/><path d=" M 8.068 9.571 L 9.545 8.685 L 10.327 10.091 L 8.355 10.091 L 8.068 9.571 Z " fill="rgb(255,153,0)"/><path d=" M 10.967 12.458 L 11.388 12.458 L 11.388 10.692 L 10.967 10.692 L 10.967 12.458 Z " fill="rgb(255,153,0)"/><path d=" M 16.236 12.5 C 15.766 12.5 15.483 12.248 15.467 11.893 L 15.911 11.893 C 15.911 12.004 15.978 12.167 16.264 12.173 C 16.455 12.173 16.545 12.056 16.545 11.968 C 16.534 11.829 16.366 11.817 16.186 11.788 C 16.006 11.758 15.853 11.724 15.743 11.665 C 15.601 11.589 15.506 11.427 15.506 11.24 C 15.506 10.925 15.769 10.675 16.209 10.675 C 16.635 10.675 16.904 10.907 16.933 11.252 L 16.505 11.252 C 16.501 11.159 16.484 11.012 16.232 11.012 C 16.062 11.012 15.949 11.048 15.939 11.171 C 15.939 11.351 16.293 11.339 16.568 11.415 C 16.832 11.484 17 11.655 17 11.893 C 17 12.331 16.658 12.5 16.236 12.5" fill="rgb(255,153,0)"/><path d=" M 9.8 7.996 L 11.277 7.111 L 12.933 10.091 L 11.388 10.091 L 11.388 10.528 L 10.967 10.528 L 10.967 10.089 L 9.8 7.996 Z " fill="rgb(255,153,0)"/><path d=" M 9.838 12.5 C 9.349 12.5 8.951 12.085 8.951 11.583 C 8.951 11.075 9.349 10.675 9.838 10.675 C 10.023 10.675 10.191 10.726 10.338 10.831 L 10.338 10.091 L 10.759 10.091 L 10.759 12.458 L 10.338 12.458 L 10.338 12.341 C 10.191 12.44 10.023 12.5 9.838 12.5 L 9.838 12.5 Z  M 9.354 11.583 C 9.354 11.857 9.58 12.085 9.849 12.085 C 10.113 12.085 10.338 11.857 10.338 11.583 C 10.338 11.31 10.113 11.075 9.849 11.075 C 9.58 11.075 9.354 11.31 9.354 11.583" fill-rule="evenodd" fill="rgb(255,153,0)"/><path d=" M 12.945 10.091 L 13.36 10.091 L 13.36 12.458 L 12.945 12.458 L 12.945 12.341 C 12.804 12.44 12.63 12.5 12.439 12.5 C 11.955 12.5 11.558 12.085 11.558 11.583 C 11.558 11.075 11.955 10.675 12.439 10.675 C 12.63 10.675 12.798 10.726 12.945 10.831 L 12.945 10.091 L 12.945 10.091 Z  M 11.967 11.583 C 11.967 11.857 12.192 12.085 12.45 12.085 C 12.719 12.085 12.945 11.857 12.945 11.583 C 12.945 11.31 12.719 11.075 12.45 11.075 C 12.192 11.075 11.967 11.31 11.967 11.583 Z " fill-rule="evenodd" fill="rgb(255,153,0)"/><path d=" M 14.382 12.5 C 13.9 12.5 13.501 12.085 13.501 11.583 C 13.501 11.075 13.9 10.675 14.382 10.675 C 14.567 10.675 14.741 10.726 14.883 10.831 L 14.883 10.69 L 15.303 10.69 L 15.303 12.458 L 14.883 12.458 L 14.883 12.341 C 14.741 12.44 14.573 12.5 14.382 12.5 Z  M 13.91 11.583 C 13.91 11.857 14.135 12.085 14.399 12.085 C 14.663 12.085 14.883 11.857 14.883 11.583 C 14.883 11.31 14.663 11.075 14.399 11.075 C 14.135 11.075 13.91 11.31 13.91 11.583 Z " fill-rule="evenodd" fill="rgb(255,153,0)"/><path d=" M 7.405 11.583 C 7.405 11.857 7.631 12.085 7.894 12.085 C 8.164 12.085 8.389 11.857 8.389 11.583 C 8.389 11.31 8.164 11.075 7.894 11.075 C 7.631 11.075 7.405 11.31 7.405 11.583 L 7.405 11.583 Z  M 7.883 12.5 C 7.399 12.5 7 12.085 7 11.583 C 7 11.075 7.399 10.675 7.883 10.675 C 8.068 10.675 8.242 10.726 8.389 10.831 L 8.389 10.69 L 8.804 10.69 L 8.804 12.458 L 8.389 12.458 L 8.389 12.341 C 8.248 12.44 8.074 12.5 7.883 12.5 Z " fill-rule="evenodd" fill="rgb(255,153,0)"/></g></g></g></g></svg>