<?xml version="1.0" encoding="UTF-8" standalone="no"?><!-- Generator: Gravit.io --><svg xmlns="http://www.w3.org/2000/svg" xmlns:xlink="http://www.w3.org/1999/xlink" style="isolation:isolate" viewBox="0 0 24 24" width="24pt" height="24pt"><defs><clipPath id="_clipPath_5fW5fRuTwXy7JA1yDNrDFfnwOmN5ugIH"><rect width="24" height="24"/></clipPath></defs><g clip-path="url(#_clipPath_5fW5fRuTwXy7JA1yDNrDFfnwOmN5ugIH)"><clipPath id="_clipPath_nEZMjvrC5wqm0OoZwh7KbLHYqbuSPz5F"><rect x="2.98" y="1" width="18.04" height="22" transform="matrix(1,0,0,1,0,0)" fill="rgb(255,255,255)"/></clipPath><g clip-path="url(#_clipPath_nEZMjvrC5wqm0OoZwh7KbLHYqbuSPz5F)"><g><clipPath id="_clipPath_jjFN553UagS9wKWZuvDpJsyU1y0kkkdy"><rect x="2.98" y="1" width="18.04" height="22" transform="matrix(1,0,0,1,0,0)" fill="rgb(255,255,255)"/></clipPath><g clip-path="url(#_clipPath_jjFN553UagS9wKWZuvDpJsyU1y0kkkdy)"><g><g><path d=" M 18.219 16.551 C 19.896 14.836 21.02 12.588 21.02 10.02 C 21.02 5.042 16.978 1 12 1 C 7.022 1 2.98 5.042 2.98 10.02 C 2.98 12.62 4.007 14.787 5.844 16.61 L 5.844 16.61 L 11.633 23 L 18.23 16.551 L 18.219 16.551 L 18.219 16.551 Z " fill="rgb(0,0,0)"/></g></g></g><clipPath id="_clipPath_xY9G4dEECnmOL1TjOGxZI0nipVrdWnIg"><rect x="2.98" y="1" width="18.04" height="22" transform="matrix(1,0,0,1,0,0)" fill="rgb(255,255,255)"/></clipPath><g clip-path="url(#_clipPath_xY9G4dEECnmOL1TjOGxZI0nipVrdWnIg)"><g><g><ellipse vector-effect="non-scaling-stroke" cx="11.999999999999996" cy="9.76875" rx="6.566753086076512" ry="6.493750000000001" fill="rgb(255,255,255)"/></g></g></g><rect x="6.492" y="4.837" width="10.301" height="8.688" transform="matrix(1,0,0,1,0,0)" fill="none"/></g></g><g><g><g><path d=" M 13.7 9.919 L 11.438 5.944 L 13.063 5 L 15.875 9.919 L 13.7 9.919 Z " fill="rgb(0,0,0)"/><path d=" M 7.675 9.362 L 9.3 8.412 L 10.16 9.919 L 7.99 9.919 L 7.675 9.362 Z " fill="rgb(0,0,0)"/><path d=" M 10.864 12.455 L 11.326 12.455 L 11.326 10.563 L 10.864 10.563 L 10.864 12.455 Z " fill="rgb(0,0,0)"/><path d=" M 16.659 12.5 C 16.142 12.5 15.831 12.23 15.814 11.849 L 16.302 11.849 C 16.302 11.969 16.375 12.143 16.691 12.149 C 16.901 12.149 17 12.024 17 11.93 C 16.987 11.781 16.802 11.769 16.605 11.737 C 16.407 11.705 16.239 11.669 16.117 11.605 C 15.961 11.524 15.856 11.35 15.856 11.15 C 15.856 10.812 16.146 10.544 16.63 10.544 C 17.099 10.544 17.395 10.793 17.426 11.163 L 16.956 11.163 C 16.951 11.063 16.932 10.906 16.655 10.906 C 16.468 10.906 16.344 10.944 16.333 11.076 C 16.333 11.269 16.722 11.256 17.025 11.337 C 17.315 11.412 17.5 11.594 17.5 11.849 C 17.5 12.319 17.124 12.5 16.659 12.5" fill="rgb(0,0,0)"/><path d=" M 9.579 7.674 L 11.204 6.726 L 13.027 9.919 L 11.326 9.919 L 11.326 10.387 L 10.864 10.387 L 10.864 9.917 L 9.579 7.674 Z " fill="rgb(0,0,0)"/><path d=" M 9.622 12.5 C 9.083 12.5 8.646 12.056 8.646 11.518 C 8.646 10.974 9.083 10.544 9.622 10.544 C 9.825 10.544 10.01 10.599 10.172 10.712 L 10.172 9.919 L 10.635 9.919 L 10.635 12.455 L 10.172 12.455 L 10.172 12.33 C 10.01 12.436 9.825 12.5 9.622 12.5 L 9.622 12.5 Z  M 9.09 11.518 C 9.09 11.811 9.338 12.056 9.634 12.056 C 9.924 12.056 10.172 11.811 10.172 11.518 C 10.172 11.224 9.924 10.974 9.634 10.974 C 9.338 10.974 9.09 11.224 9.09 11.518" fill-rule="evenodd" fill="rgb(0,0,0)"/><path d=" M 13.039 9.919 L 13.496 9.919 L 13.496 12.455 L 13.039 12.455 L 13.039 12.33 C 12.884 12.436 12.693 12.5 12.482 12.5 C 11.951 12.5 11.513 12.056 11.513 11.518 C 11.513 10.974 11.951 10.544 12.482 10.544 C 12.693 10.544 12.878 10.599 13.039 10.712 L 13.039 9.919 L 13.039 9.919 Z  M 11.963 11.518 C 11.963 11.811 12.211 12.056 12.495 12.056 C 12.791 12.056 13.039 11.811 13.039 11.518 C 13.039 11.224 12.791 10.974 12.495 10.974 C 12.211 10.974 11.963 11.224 11.963 11.518 Z " fill-rule="evenodd" fill="rgb(0,0,0)"/><path d=" M 14.62 12.5 C 14.09 12.5 13.651 12.056 13.651 11.518 C 13.651 10.974 14.09 10.544 14.62 10.544 C 14.824 10.544 15.015 10.599 15.171 10.712 L 15.171 10.561 L 15.633 10.561 L 15.633 12.455 L 15.171 12.455 L 15.171 12.33 C 15.015 12.436 14.83 12.5 14.62 12.5 Z  M 14.101 11.518 C 14.101 11.811 14.349 12.056 14.639 12.056 C 14.929 12.056 15.171 11.811 15.171 11.518 C 15.171 11.224 14.929 10.974 14.639 10.974 C 14.349 10.974 14.101 11.224 14.101 11.518 Z " fill-rule="evenodd" fill="rgb(0,0,0)"/><path d=" M 6.946 11.518 C 6.946 11.811 7.194 12.056 7.484 12.056 C 7.78 12.056 8.028 11.811 8.028 11.518 C 8.028 11.224 7.78 10.974 7.484 10.974 C 7.194 10.974 6.946 11.224 6.946 11.518 L 6.946 11.518 Z  M 7.471 12.5 C 6.939 12.5 6.5 12.056 6.5 11.518 C 6.5 10.974 6.939 10.544 7.471 10.544 C 7.675 10.544 7.866 10.599 8.028 10.712 L 8.028 10.561 L 8.484 10.561 L 8.484 12.455 L 8.028 12.455 L 8.028 12.33 C 7.873 12.436 7.681 12.5 7.471 12.5 Z " fill-rule="evenodd" fill="rgb(0,0,0)"/></g></g></g></g></svg>