<?xml version="1.0" encoding="UTF-8" standalone="no"?><!-- Generator: Gravit.io --><svg xmlns="http://www.w3.org/2000/svg" xmlns:xlink="http://www.w3.org/1999/xlink" style="isolation:isolate" viewBox="0 0 24 24" width="24pt" height="24pt"><defs><clipPath id="_clipPath_fNLIw5cKLVcR47yIPZMSJ4Cfp3mwJYCF"><rect width="24" height="24"/></clipPath></defs><g clip-path="url(#_clipPath_fNLIw5cKLVcR47yIPZMSJ4Cfp3mwJYCF)"><clipPath id="_clipPath_6RLBwlI5qwlkyoJTK91ASZ7JTk1UZufy"><rect x="0" y="-0.582" width="24" height="24" transform="matrix(1,0,0,1,0,0)" fill="rgb(255,255,255)"/></clipPath><g clip-path="url(#_clipPath_6RLBwlI5qwlkyoJTK91ASZ7JTk1UZufy)"><g><clipPath id="_clipPath_G12m2nWZu08siOcjZFMzxxlwnR1eVzzi"><rect x="0" y="-1.082" width="25" height="25" transform="matrix(1,0,0,1,0,0)" fill="rgb(255,255,255)"/></clipPath><g clip-path="url(#_clipPath_G12m2nWZu08siOcjZFMzxxlwnR1eVzzi)"><g><g><clipPath id="_clipPath_1Yb65PPICu4CIZFltlJaIA8wY20298JR"><rect x="3.104" y="-0.04" width="18.792" height="22.917" transform="matrix(1,0,0,1,0,0)" fill="rgb(255,255,255)"/></clipPath><g clip-path="url(#_clipPath_1Yb65PPICu4CIZFltlJaIA8wY20298JR)"><g><g><g><clipPath id="_clipPath_TNVMEQnsOsBS2aHCDuDoIkEJX7foEc4T"><rect x="3.104" y="-0.04" width="18.792" height="22.917" transform="matrix(1,0,0,1,0,0)" fill="rgb(255,255,255)"/></clipPath><g clip-path="url(#_clipPath_TNVMEQnsOsBS2aHCDuDoIkEJX7foEc4T)"><g><g><g><g><path d=" M 18.978 16.159 C 20.725 14.372 21.896 12.031 21.896 9.356 C 21.896 4.17 17.685 -0.04 12.5 -0.04 C 7.315 -0.04 3.104 4.17 3.104 9.356 C 3.104 12.064 4.174 14.321 6.088 16.22 L 6.088 16.22 L 12.118 22.876 L 18.99 16.159 L 18.978 16.159 L 18.978 16.159 Z " fill="rgb(153,126,126)"/></g></g></g></g></g><clipPath id="_clipPath_KH0QkzqKoB4biCH5RrP14urvfB8vcnrr"><rect x="3.104" y="-0.04" width="18.792" height="22.917" transform="matrix(1,0,0,1,0,0)" fill="rgb(255,255,255)"/></clipPath><g clip-path="url(#_clipPath_KH0QkzqKoB4biCH5RrP14urvfB8vcnrr)"><g><g><g><g><ellipse vector-effect="non-scaling-stroke" cx="12.499999999999996" cy="9.093841450668899" rx="6.840367797996368" ry="6.76432291666667" fill="rgb(255,255,255)"/></g></g></g></g></g><rect x="6.763" y="3.957" width="10.73" height="9.05" transform="matrix(1,0,0,1,0,0)" fill="none"/></g></g></g></g></g></g></g></g></g><path d=" M 6.086 6.695 C 6.062 6.747 6.056 6.769 6.067 6.776 C 6.071 6.777 6.096 6.85 6.123 6.939 C 6.151 7.026 6.184 7.131 6.196 7.169 C 6.235 7.289 6.248 7.333 6.253 7.355 C 6.256 7.368 6.287 7.467 6.322 7.576 C 6.357 7.684 6.387 7.774 6.387 7.776 C 6.387 7.778 6.412 7.856 6.443 7.95 C 6.473 8.044 6.506 8.152 6.517 8.188 C 6.526 8.226 6.571 8.366 6.614 8.501 C 6.714 8.809 6.762 8.96 6.777 9.014 C 6.789 9.059 6.89 9.376 6.937 9.519 L 6.965 9.607 L 6.965 10.662 L 6.966 11.719 L 6.992 11.759 L 7.018 11.799 L 7.258 11.799 L 7.498 11.799 L 7.524 11.759 L 7.55 11.719 L 7.55 10.675 L 7.55 9.631 L 7.572 9.56 C 7.585 9.521 7.617 9.416 7.644 9.329 C 7.671 9.24 7.725 9.068 7.764 8.946 C 7.803 8.823 7.852 8.668 7.871 8.602 C 7.89 8.537 7.927 8.418 7.952 8.341 C 8.066 7.987 8.129 7.789 8.129 7.785 C 8.129 7.778 8.163 7.667 8.193 7.574 C 8.318 7.187 8.448 6.768 8.448 6.752 C 8.448 6.748 8.439 6.726 8.428 6.703 C 8.418 6.681 8.409 6.658 8.409 6.652 C 8.409 6.645 8.327 6.642 8.141 6.642 C 7.914 6.642 7.873 6.644 7.865 6.656 C 7.86 6.664 7.851 6.673 7.847 6.677 C 7.838 6.684 7.813 6.757 7.749 6.962 C 7.73 7.021 7.697 7.123 7.675 7.188 C 7.635 7.311 7.596 7.437 7.596 7.446 C 7.596 7.449 7.583 7.49 7.567 7.538 C 7.552 7.586 7.519 7.689 7.493 7.767 C 7.468 7.844 7.42 7.994 7.387 8.101 C 7.353 8.207 7.309 8.346 7.29 8.409 L 7.256 8.522 L 7.227 8.432 C 7.121 8.095 7.065 7.918 7.05 7.861 C 7.04 7.824 7.012 7.734 6.988 7.659 C 6.964 7.583 6.922 7.452 6.896 7.367 C 6.869 7.281 6.838 7.184 6.827 7.15 C 6.817 7.116 6.798 7.053 6.785 7.009 C 6.773 6.965 6.745 6.874 6.723 6.805 C 6.691 6.703 6.681 6.679 6.665 6.669 C 6.655 6.664 6.647 6.655 6.647 6.651 C 6.647 6.646 6.528 6.642 6.379 6.642 L 6.11 6.643 L 6.086 6.695 Z " fill="rgb(153,126,126)"/><path d=" M 8.914 6.684 L 8.89 6.724 L 8.89 9.222 L 8.89 11.719 L 8.916 11.759 L 8.942 11.799 L 9.9 11.799 L 10.858 11.799 L 10.888 11.76 L 10.918 11.72 L 10.918 11.381 L 10.918 11.041 L 10.89 11.006 L 10.86 10.971 L 10.168 10.971 L 9.475 10.971 L 9.475 10.303 L 9.475 9.635 L 10.114 9.635 L 10.753 9.635 L 10.784 9.59 L 10.814 9.544 L 10.814 9.215 L 10.814 8.886 L 10.783 8.841 L 10.752 8.797 L 10.113 8.797 L 9.475 8.797 L 9.475 8.134 L 9.475 7.47 L 10.169 7.47 L 10.863 7.469 L 10.891 7.432 L 10.918 7.394 L 10.918 7.057 L 10.918 6.721 L 10.888 6.682 L 10.858 6.642 L 9.898 6.643 L 8.938 6.644 L 8.914 6.684 Z " fill="rgb(153,126,126)"/><path d=" M 11.476 6.684 L 11.451 6.724 L 11.451 9.222 L 11.452 11.719 L 11.478 11.759 L 11.504 11.799 L 12.465 11.799 L 13.426 11.799 L 13.453 11.761 L 13.48 11.722 L 13.48 11.381 L 13.48 11.039 L 13.452 11.005 L 13.425 10.971 L 12.731 10.971 L 12.036 10.971 L 12.036 10.303 L 12.036 9.635 L 12.675 9.635 L 13.315 9.635 L 13.342 9.594 L 13.369 9.554 L 13.369 9.215 L 13.369 8.876 L 13.341 8.837 L 13.313 8.797 L 12.675 8.797 L 12.036 8.797 L 12.036 8.134 L 12.036 7.47 L 12.729 7.47 L 13.423 7.47 L 13.451 7.436 L 13.48 7.403 L 13.48 7.061 L 13.48 6.718 L 13.452 6.681 L 13.424 6.643 L 12.462 6.643 L 11.5 6.644 L 11.476 6.684 Z " fill="rgb(153,126,126)"/><path d=" M 14.092 6.683 L 14.065 6.722 L 14.065 7.064 L 14.065 7.404 L 14.091 7.44 L 14.119 7.475 L 14.719 7.48 L 15.319 7.484 L 15.293 7.55 C 15.278 7.586 15.247 7.671 15.223 7.739 C 15.169 7.896 15.078 8.143 15.011 8.322 C 14.951 8.48 14.915 8.581 14.913 8.595 C 14.912 8.601 14.895 8.648 14.874 8.701 L 14.837 8.797 L 14.552 8.797 L 14.268 8.797 L 14.241 8.841 L 14.214 8.885 L 14.214 9.22 L 14.214 9.554 L 14.242 9.594 L 14.269 9.635 L 14.405 9.635 L 14.54 9.635 L 14.509 9.717 C 14.493 9.763 14.468 9.827 14.455 9.861 C 14.441 9.895 14.405 9.991 14.376 10.077 C 14.345 10.163 14.281 10.336 14.234 10.463 C 14.186 10.59 14.12 10.77 14.088 10.863 C 14.055 10.956 14.022 11.047 14.014 11.065 C 14 11.097 14 11.107 14 11.409 L 14 11.719 L 14.026 11.76 L 14.052 11.799 L 15.041 11.799 L 16.029 11.799 L 16.058 11.76 L 16.087 11.721 L 16.087 11.379 L 16.087 11.037 L 16.06 11.001 L 16.033 10.966 L 15.364 10.962 L 14.695 10.957 L 14.757 10.792 C 14.791 10.702 14.844 10.558 14.874 10.472 C 14.943 10.273 15.058 9.956 15.117 9.8 C 15.143 9.732 15.165 9.668 15.167 9.656 L 15.171 9.635 L 15.462 9.635 L 15.753 9.635 L 15.78 9.594 L 15.807 9.554 L 15.807 9.221 L 15.807 8.887 L 15.78 8.842 L 15.754 8.797 L 15.612 8.795 L 15.47 8.793 L 15.522 8.651 C 15.551 8.573 15.596 8.451 15.624 8.378 C 15.651 8.306 15.695 8.183 15.723 8.106 C 15.75 8.027 15.807 7.871 15.849 7.757 C 15.892 7.643 15.946 7.495 15.971 7.428 L 16.015 7.306 L 16.015 7.014 L 16.015 6.722 L 15.989 6.682 L 15.963 6.642 L 15.041 6.642 L 14.12 6.643 L 14.092 6.683 Z " fill="rgb(153,126,126)"/><path d=" M 16.517 6.692 C 16.505 6.719 16.496 6.747 16.496 6.752 C 16.496 6.758 16.503 6.785 16.512 6.812 C 16.52 6.841 16.539 6.904 16.553 6.953 C 16.568 7.002 16.596 7.093 16.617 7.155 C 16.637 7.217 16.668 7.314 16.686 7.371 C 16.704 7.428 16.731 7.513 16.747 7.56 C 16.762 7.606 16.781 7.67 16.791 7.701 C 16.84 7.865 16.89 8.024 17.023 8.435 C 17.038 8.481 17.061 8.555 17.073 8.6 C 17.086 8.644 17.127 8.775 17.164 8.891 C 17.267 9.211 17.339 9.439 17.345 9.464 C 17.347 9.478 17.36 9.517 17.371 9.554 L 17.393 9.62 L 17.393 10.67 L 17.394 11.719 L 17.42 11.759 L 17.446 11.799 L 17.686 11.799 L 17.927 11.799 L 17.949 11.764 L 17.971 11.729 L 17.972 10.682 L 17.972 9.637 L 18.004 9.539 C 18.067 9.345 18.156 9.065 18.164 9.033 C 18.173 8.996 18.223 8.835 18.248 8.758 C 18.276 8.678 18.425 8.202 18.434 8.167 C 18.439 8.149 18.468 8.054 18.5 7.957 C 18.531 7.859 18.557 7.778 18.557 7.776 C 18.557 7.774 18.584 7.691 18.616 7.591 C 18.649 7.491 18.683 7.383 18.691 7.351 C 18.7 7.319 18.728 7.225 18.756 7.141 C 18.782 7.057 18.804 6.988 18.804 6.986 C 18.804 6.984 18.822 6.928 18.843 6.863 L 18.883 6.746 L 18.866 6.719 C 18.857 6.705 18.846 6.683 18.841 6.668 L 18.834 6.642 L 18.566 6.642 C 18.418 6.642 18.297 6.646 18.297 6.65 C 18.297 6.654 18.29 6.663 18.281 6.668 C 18.264 6.68 18.212 6.825 18.17 6.976 C 18.161 7.012 18.138 7.086 18.12 7.141 C 18.102 7.196 18.072 7.289 18.053 7.348 C 18.035 7.407 18.003 7.505 17.983 7.564 C 17.933 7.718 17.9 7.821 17.898 7.833 C 17.896 7.844 17.889 7.867 17.824 8.073 C 17.795 8.163 17.753 8.295 17.73 8.364 C 17.707 8.434 17.687 8.498 17.685 8.506 C 17.681 8.519 17.637 8.393 17.624 8.335 C 17.622 8.323 17.593 8.23 17.561 8.129 C 17.448 7.775 17.366 7.512 17.348 7.447 C 17.338 7.41 17.312 7.323 17.289 7.254 C 17.267 7.184 17.226 7.054 17.198 6.967 C 17.17 6.878 17.139 6.778 17.128 6.743 C 17.114 6.701 17.102 6.675 17.091 6.668 C 17.082 6.663 17.075 6.654 17.075 6.65 C 17.075 6.646 16.954 6.642 16.806 6.642 L 16.538 6.642 L 16.517 6.692 Z " fill="rgb(153,126,126)"/></g></svg>