<?xml version="1.0" encoding="UTF-8" standalone="no"?><!-- Generator: Gravit.io --><svg xmlns="http://www.w3.org/2000/svg" xmlns:xlink="http://www.w3.org/1999/xlink" style="isolation:isolate" viewBox="0 0 24 24" width="24pt" height="24pt"><defs><clipPath id="_clipPath_MSJsIpvmkFflmq9EZgW0yVt1oGyvpGhb"><rect width="24" height="24"/></clipPath></defs><g clip-path="url(#_clipPath_MSJsIpvmkFflmq9EZgW0yVt1oGyvpGhb)"><clipPath id="_clipPath_KdoyMsxaAzuHPHljsNoUZkPidBM11iad"><rect x="0" y="-0.5" width="25" height="25" transform="matrix(1,0,0,1,0,0)" fill="rgb(255,255,255)"/></clipPath><g clip-path="url(#_clipPath_KdoyMsxaAzuHPHljsNoUZkPidBM11iad)"><g><clipPath id="_clipPath_keKc04Vib9YwN1BG1ruSnSFH2L5YcND7"><rect x="0.25" y="-0.5" width="24.5" height="25" transform="matrix(1,0,0,1,0,0)" fill="rgb(255,255,255)"/></clipPath><g clip-path="url(#_clipPath_keKc04Vib9YwN1BG1ruSnSFH2L5YcND7)"><g><g><path d=" M 18.849 16.741 C 20.56 14.954 21.708 12.612 21.708 9.937 C 21.708 4.752 17.581 0.542 12.5 0.542 C 7.419 0.542 3.292 4.752 3.292 9.937 C 3.292 12.646 4.341 14.903 6.216 16.802 L 6.216 16.802 L 12.125 23.458 L 18.859 16.741 L 18.849 16.741 Z " fill="rgb(3,129,237)"/></g></g></g><path d=" M 11.272 13.118 L 11.761 13.118 L 11.761 12.564 L 11.272 12.564 L 11.272 13.118 Z  M 11.272 15.466 L 11.761 15.466 L 11.761 13.269 L 11.272 13.269 L 11.272 15.466 Z  M 16.283 13.48 C 16.101 13.346 15.87 13.266 15.621 13.266 C 14.996 13.266 14.489 13.763 14.489 14.373 C 14.489 14.986 14.996 15.483 15.621 15.483 C 15.87 15.483 16.101 15.405 16.283 15.269 L 16.289 15.466 L 16.774 15.466 L 16.774 13.269 L 16.283 13.269 L 16.283 13.48 Z  M 15.635 14.992 L 15.632 14.992 C 15.284 14.992 15.005 14.718 15.005 14.373 C 15.005 14.031 15.284 13.755 15.632 13.755 C 15.978 13.755 16.26 14.031 16.26 14.373 C 16.263 14.712 15.982 14.99 15.635 14.992 Z  M 18.082 14.123 C 17.982 14.117 17.573 14.096 17.573 13.861 C 17.573 13.703 17.843 13.663 17.967 13.663 C 18.203 13.663 18.352 13.793 18.38 13.974 L 18.872 13.971 C 18.859 13.546 18.48 13.254 17.979 13.256 C 17.375 13.26 17.069 13.564 17.069 13.948 C 17.069 14.161 17.191 14.286 17.332 14.397 C 17.46 14.501 17.767 14.554 17.927 14.573 C 18.213 14.602 18.41 14.647 18.41 14.855 C 18.41 14.986 18.219 15.099 17.949 15.099 C 17.8 15.099 17.535 15.007 17.508 14.759 L 17.026 14.759 C 17.084 15.283 17.521 15.516 17.952 15.516 C 18.147 15.516 18.465 15.471 18.62 15.361 C 18.802 15.23 18.929 15.046 18.929 14.799 C 18.929 14.466 18.739 14.182 18.082 14.123 L 18.082 14.123 Z  M 7.956 13.48 C 7.774 13.346 7.543 13.266 7.294 13.266 C 6.669 13.266 6.163 13.763 6.163 14.373 C 6.163 14.986 6.669 15.483 7.294 15.483 C 7.543 15.483 7.774 15.405 7.956 15.269 L 7.961 15.466 L 8.448 15.466 L 8.448 13.269 L 7.956 13.269 L 7.956 13.48 Z  M 7.308 14.992 L 7.306 14.992 C 6.957 14.992 6.678 14.718 6.678 14.373 C 6.678 14.031 6.957 13.755 7.306 13.755 C 7.651 13.755 7.933 14.031 7.933 14.373 C 7.935 14.712 7.655 14.99 7.308 14.992 Z  M 13.791 12.567 L 13.791 13.48 C 13.608 13.346 13.377 13.266 13.128 13.266 C 12.503 13.266 11.997 13.763 11.997 14.373 C 11.997 14.986 12.503 15.483 13.128 15.483 C 13.377 15.483 13.608 15.405 13.791 15.269 L 13.796 15.466 L 14.281 15.466 L 14.281 12.567 L 13.791 12.567 L 13.791 12.567 Z  M 13.143 14.992 L 13.141 14.992 C 12.792 14.992 12.513 14.718 12.513 14.373 C 12.513 14.031 12.792 13.755 13.141 13.755 C 13.485 13.755 13.768 14.031 13.768 14.373 C 13.77 14.712 13.49 14.99 13.143 14.992 Z  M 10.463 12.567 L 10.463 13.48 C 10.28 13.346 10.05 13.266 9.8 13.266 C 9.175 13.266 8.669 13.763 8.669 14.373 C 8.669 14.986 9.175 15.483 9.8 15.483 C 10.05 15.483 10.28 15.405 10.463 15.269 L 10.469 15.466 L 10.954 15.466 L 10.954 12.567 L 10.463 12.567 L 10.463 12.567 Z  M 9.815 14.992 L 9.813 14.992 C 9.464 14.992 9.184 14.718 9.184 14.373 C 9.184 14.031 9.464 13.755 9.813 13.755 C 10.157 13.755 10.44 14.031 10.44 14.373 C 10.442 14.712 10.161 14.99 9.815 14.992 Z  M 12.6 8.452 L 14.214 8.452 C 14.252 8.166 14.273 7.874 14.273 7.578 C 14.273 5.904 13.641 4.377 12.6 3.21 C 11.559 4.377 10.927 5.904 10.927 7.578 C 10.927 7.874 10.948 8.166 10.986 8.452 L 12.6 8.452 Z  M 11.828 10.884 C 12.05 11.264 12.308 11.619 12.6 11.946 C 12.891 11.619 13.149 11.264 13.371 10.884 L 12.6 10.884 L 11.828 10.884 Z  M 10.174 7.789 C 9.125 6.605 7.718 5.905 6.245 5.706 C 6.236 6.644 6.446 7.583 6.876 8.452 L 10.685 8.452 C 10.53 8.22 10.359 7.998 10.174 7.789 Z  M 9.035 10.884 C 9.85 11.422 10.769 11.758 11.716 11.885 C 11.719 11.551 11.693 11.217 11.641 10.884 L 9.035 10.884 Z  M 15.026 7.789 C 14.841 7.998 14.67 8.22 14.515 8.452 L 18.323 8.452 C 18.753 7.583 18.963 6.644 18.955 5.706 C 17.482 5.905 16.074 6.605 15.026 7.789 L 15.026 7.789 Z  M 13.483 11.885 C 14.43 11.758 15.35 11.422 16.165 10.884 L 13.559 10.884 C 13.506 11.217 13.48 11.551 13.483 11.885 L 13.483 11.885 Z  M 12.6 9.949 L 7.922 9.949 C 8.066 10.102 8.218 10.248 8.376 10.385 L 16.823 10.385 C 16.982 10.248 17.133 10.102 17.277 9.949 L 15.728 9.949 L 12.6 9.949 Z  M 12.6 8.951 L 7.154 8.951 C 7.26 9.123 7.375 9.289 7.498 9.45 L 17.701 9.45 C 17.824 9.289 17.939 9.123 18.046 8.951 L 15.078 8.951 L 12.6 8.951 Z " fill="rgb(255,255,255)"/></g></g></g></svg>