<?xml version="1.0" encoding="UTF-8" standalone="no"?><!-- Generator: Gravit.io --><svg xmlns="http://www.w3.org/2000/svg" xmlns:xlink="http://www.w3.org/1999/xlink" style="isolation:isolate" viewBox="0 0 24 24" width="24pt" height="24pt"><defs><clipPath id="_clipPath_ix9d2d8SmmmOmDmPoA7LI53kEwpxkvFk"><rect width="24" height="24"/></clipPath></defs><g clip-path="url(#_clipPath_ix9d2d8SmmmOmDmPoA7LI53kEwpxkvFk)"><clipPath id="_clipPath_XzG9s5sfP5ujQWEBac8leYCXAH2RX54m"><rect x="0" y="0" width="24" height="24" transform="matrix(1,0,0,1,0,0)" fill="rgb(255,255,255)"/></clipPath><g clip-path="url(#_clipPath_XzG9s5sfP5ujQWEBac8leYCXAH2RX54m)"><g><path d=" M 18.593 16.825 C 20.37 15.006 21.563 12.624 21.563 9.901 C 21.563 4.623 17.278 0.338 12 0.338 C 6.722 0.338 2.438 4.623 2.438 9.901 C 2.438 12.657 3.526 14.954 5.474 16.888 L 5.473 16.888 L 11.611 23.662 L 18.605 16.825 L 18.593 16.825 L 18.593 16.825 Z " fill="rgb(192,0,0)"/></g></g><path d=" M 7.044 12.998 C 6.627 12.978 6.286 12.84 6.019 12.585 C 5.968 12.537 5.847 12.391 5.806 12.329 C 5.698 12.166 5.624 12.006 5.575 11.83 C 5.424 11.286 5.502 10.572 5.797 9.789 C 6.051 9.118 6.441 8.453 7.122 7.532 C 7.223 7.396 7.522 7 7.523 7 C 7.524 7 7.508 7.034 7.487 7.075 C 7.31 7.432 7.159 7.852 7.076 8.216 C 6.943 8.8 6.959 9.301 7.123 9.69 C 7.236 9.957 7.429 10.189 7.647 10.317 C 8.027 10.541 8.584 10.56 9.265 10.371 C 9.312 10.358 11.634 9.617 14.425 8.724 C 17.216 7.831 19.5 7.101 19.5 7.102 C 19.501 7.103 13.016 10.44 9.649 12.171 C 9.116 12.445 8.974 12.514 8.723 12.62 C 8.082 12.891 7.508 13.02 7.044 12.998 L 7.044 12.998 Z " fill="rgb(255,255,255)"/></g></svg>