<?xml version="1.0" encoding="UTF-8" standalone="no"?><!-- Generator: Gravit.io --><svg xmlns="http://www.w3.org/2000/svg" xmlns:xlink="http://www.w3.org/1999/xlink" style="isolation:isolate" viewBox="0 0 24 24" width="24pt" height="24pt"><defs><clipPath id="_clipPath_kd9i5aOB8QTQoT7VQ7rzI5l3cRIed5KP"><rect width="24" height="24"/></clipPath></defs><g clip-path="url(#_clipPath_kd9i5aOB8QTQoT7VQ7rzI5l3cRIed5KP)"><clipPath id="_clipPath_5m9cyCvrv7js1GGhQWO4XDFRF96w8L8x"><rect x="0" y="0" width="24" height="24" transform="matrix(1,0,0,1,0,0)" fill="rgb(255,255,255)"/></clipPath><g clip-path="url(#_clipPath_5m9cyCvrv7js1GGhQWO4XDFRF96w8L8x)"><g><path d=" M 18.399 16.688 C 20.124 14.921 21.282 12.606 21.282 9.961 C 21.282 4.832 17.122 0.669 12 0.669 C 6.877 0.669 2.719 4.832 2.719 9.961 C 2.719 12.638 3.775 14.87 5.665 16.749 L 5.664 16.749 L 11.622 23.331 L 18.41 16.688 L 18.399 16.688 Z " fill="rgb(255,255,255)" vector-effect="non-scaling-stroke" stroke-width="0.5" stroke="rgb(0,0,0)" stroke-linejoin="miter" stroke-linecap="butt" stroke-miterlimit="4"/></g></g><path d=" M 12.519 3.818 C 12.514 3.791 12.511 3.764 12.509 3.737 C 12.485 3.358 12.751 3.028 13.105 3.002 C 13.46 2.975 13.767 3.261 13.791 3.641 C 13.816 4.021 13.55 4.35 13.195 4.377 C 13.173 4.378 13.151 4.379 13.129 4.378 C 13.115 4.382 13.106 4.384 13.094 4.395 C 13.057 4.456 13.187 4.445 13.099 4.711 C 13.099 4.711 13.098 4.74 13.088 4.769 C 13.081 4.872 13.045 5.174 13.04 5.336 C 13.058 5.359 13.063 5.37 13.061 5.427 C 13.053 5.504 13.037 5.691 13.01 5.812 C 12.988 5.915 12.949 5.934 12.917 5.96 C 12.873 6.173 12.861 6.35 12.747 6.609 C 12.736 6.806 12.723 6.859 12.685 6.955 C 12.681 7.245 12.699 7.288 12.517 7.746 C 12.47 7.961 12.515 8.109 12.565 8.332 C 12.615 8.561 12.756 8.656 12.777 8.891 C 12.827 9.443 12.814 9.819 12.704 10.252 L 12.8 10.497 C 12.92 10.556 13.217 10.716 13.052 10.971 C 13.284 11.102 13.634 11.241 13.923 11.506 C 14.04 11.609 14.162 11.723 14.273 11.855 C 14.482 11.89 14.46 11.908 14.616 12.011 C 15.073 12.311 15.806 12.907 16.231 13.329 C 16.304 13.375 16.334 13.408 16.393 13.442 C 16.403 13.461 16.405 13.465 16.403 13.47 C 16.383 13.525 16.383 13.527 16.365 13.571 C 16.388 13.598 16.431 13.623 16.456 13.647 C 16.48 13.655 16.48 13.643 16.521 13.632 C 16.575 13.686 16.641 13.729 16.664 13.726 C 16.737 13.706 16.724 13.723 16.786 13.649 C 16.808 13.625 16.844 13.65 16.844 13.65 C 16.867 13.621 16.917 13.563 16.983 13.521 C 17.035 13.488 17.135 13.485 17.135 13.485 C 17.169 13.485 17.162 13.522 17.16 13.534 C 17.122 13.555 17.041 13.578 16.996 13.613 C 16.898 13.722 16.821 13.869 16.821 13.869 C 17.019 13.84 17.14 13.893 17.305 13.873 C 17.395 13.867 17.461 13.873 17.556 13.8 C 17.556 13.8 17.646 13.731 17.728 13.694 C 17.806 13.657 17.881 13.677 17.951 13.731 C 18 13.79 18.029 13.791 17.955 13.874 C 17.928 13.907 17.889 13.943 17.839 13.996 C 17.752 14.088 17.634 14.211 17.513 14.313 C 17.39 14.416 17.25 14.509 17.163 14.551 C 16.943 14.721 16.995 14.677 16.822 14.845 C 16.8 14.866 16.742 14.903 16.714 14.923 C 16.645 14.971 16.624 14.931 16.58 14.843 C 16.58 14.843 16.559 14.81 16.526 14.74 C 16.489 14.663 16.461 14.576 16.473 14.577 C 16.432 14.572 16.247 14.34 16.246 14.29 C 16.207 14.28 16.041 14.108 16.035 14.075 L 15.887 13.948 C 15.719 13.985 15.68 13.873 15.234 13.534 C 15.183 13.533 15.105 13.504 14.992 13.414 C 14.791 13.242 14.309 12.851 14.227 12.806 C 14.139 12.758 14.034 12.713 13.97 12.656 C 13.873 12.637 13.82 12.626 13.772 12.612 C 13.723 12.597 13.678 12.579 13.553 12.561 C 13.35 12.534 13.139 12.443 12.939 12.336 C 12.844 12.288 12.761 12.263 12.679 12.225 C 12.496 12.142 12.339 12.068 12.217 12.037 C 12.17 12.032 11.949 11.961 11.833 11.889 C 11.793 11.867 11.77 11.845 11.744 11.839 C 11.683 11.824 11.644 11.85 11.616 11.86 C 11.468 11.943 11.328 12.014 11.2 12.089 C 11.08 12.157 10.97 12.228 10.853 12.301 C 10.748 12.366 10.626 12.427 10.501 12.491 C 10.501 12.491 10.144 12.683 9.949 12.757 C 9.78 12.905 9.435 13.161 9.224 13.288 C 9.119 13.341 8.916 13.479 8.823 13.51 C 8.769 13.556 8.579 13.702 8.43 13.822 C 8.315 13.914 8.228 13.992 8.228 13.992 C 8.161 14.056 8.166 14.086 8.039 14.029 C 8.003 14.06 7.976 14.079 7.954 14.097 C 7.862 14.168 7.854 14.151 7.82 14.149 C 7.756 14.209 7.748 14.178 7.692 14.246 C 7.656 14.307 7.693 14.293 7.616 14.322 C 7.599 14.329 7.592 14.35 7.579 14.362 C 7.517 14.417 7.516 14.572 7.367 14.583 C 7.281 14.649 7.303 14.729 7.237 14.726 C 7.241 14.794 7.12 14.894 7.098 14.894 C 6.908 14.964 6.895 14.814 6.666 14.926 C 6.637 14.941 6.593 14.981 6.536 14.993 C 6.436 15.013 6.314 14.992 6.24 14.93 C 6.124 14.834 6.017 14.648 6.017 14.648 C 5.98 14.554 6.001 14.495 6.117 14.406 C 6.165 14.373 6.174 14.349 6.255 14.343 C 6.295 14.326 6.284 14.351 6.356 14.324 C 6.397 14.308 6.397 14.319 6.481 14.311 C 6.5 14.298 6.527 14.293 6.564 14.28 C 6.63 14.257 6.694 14.23 6.694 14.23 C 6.694 14.23 6.711 14.212 6.775 14.219 C 6.829 14.195 6.884 14.16 6.913 14.149 C 6.906 14.058 6.915 14.062 6.955 14.025 C 7.004 13.979 7.013 13.987 7.05 14.015 C 7.065 14.005 7.072 14.002 7.071 13.988 C 7.065 13.941 7.027 13.918 7.038 13.813 C 7.021 13.771 6.996 13.719 7.002 13.687 C 7.01 13.654 7.017 13.637 7.037 13.626 C 7.057 13.615 7.064 13.63 7.075 13.644 C 7.094 13.668 7.11 13.74 7.11 13.74 C 7.117 13.821 7.14 13.926 7.215 13.867 C 7.259 13.819 7.268 13.691 7.358 13.718 L 7.422 13.778 C 7.477 13.723 7.479 13.723 7.512 13.701 C 7.512 13.701 7.461 13.646 7.506 13.603 C 7.537 13.574 7.574 13.553 7.639 13.475 C 7.82 13.261 7.913 13.166 8.108 12.994 C 8.497 12.651 8.94 12.41 9.222 12.29 C 9.314 12.165 9.403 12.082 9.607 12.061 C 9.849 11.623 10.313 11.231 10.419 11.169 C 10.506 11 10.543 11.018 10.657 10.984 C 10.747 10.907 10.767 10.907 10.807 10.827 C 10.846 10.66 10.717 10.216 11.047 10.193 C 11.117 10.087 11.099 10.112 11.177 10.012 C 11.125 9.873 11.103 9.756 11.088 9.655 C 11.086 9.643 10.958 9.546 10.994 9.42 C 10.94 9.35 10.838 9.188 10.806 9.112 C 10.791 9.112 10.779 9.107 10.763 9.104 C 10.746 9.101 10.726 9.102 10.702 9.1 C 10.651 9.242 10.595 9.253 10.504 9.284 C 10.341 9.657 10.283 9.814 9.822 10.122 C 9.639 10.342 9.581 10.587 9.581 10.583 C 9.55 10.656 9.561 10.757 9.578 10.812 C 9.554 10.892 9.56 10.9 9.56 10.9 C 9.57 10.931 9.596 10.971 9.628 10.98 C 9.684 10.995 9.739 10.993 9.736 11.059 C 9.728 11.142 9.627 11.128 9.579 11.119 C 9.395 11.088 9.453 10.959 9.335 11.002 C 9.244 11.065 9.211 11.252 9.063 11.228 C 9.044 11.214 9.05 11.173 9.063 11.144 C 9.083 11.097 9.12 11.059 9.098 11.042 C 9.002 11.075 8.906 11.109 8.81 11.143 C 8.72 11.169 8.621 11.121 8.71 11.057 C 8.751 11.04 8.81 11.018 8.883 10.968 C 8.883 10.968 8.921 10.913 8.849 10.941 C 8.77 10.971 8.654 10.99 8.571 10.98 C 8.571 10.98 8.398 10.956 8.376 10.941 C 8.354 10.927 8.333 10.869 8.387 10.87 C 8.456 10.87 8.627 10.849 8.759 10.811 C 8.823 10.784 8.945 10.707 9.013 10.671 C 9.013 10.671 9.087 10.555 9.128 10.532 C 9.196 10.448 9.254 10.399 9.314 10.313 C 9.373 10.183 9.434 9.977 9.628 9.657 C 9.719 9.51 9.83 9.339 9.971 9.186 C 9.971 9.186 10.008 8.941 10.191 8.766 C 10.232 8.664 10.293 8.544 10.354 8.432 C 10.377 8.39 10.4 8.353 10.422 8.312 C 10.479 8.216 10.539 8.038 10.76 8.01 C 10.76 8.01 10.855 7.935 10.891 7.882 C 10.948 7.83 10.935 7.749 10.981 7.692 C 10.911 7.618 10.73 7.479 10.713 7.286 C 10.694 7.082 10.762 6.913 10.877 6.789 C 11.005 6.652 11.14 6.583 11.304 6.594 C 11.509 6.626 11.548 6.699 11.613 6.771 C 11.675 6.839 11.698 6.795 11.725 6.875 C 11.897 6.924 11.887 6.902 11.886 7.038 C 11.912 7.076 11.956 7.111 11.956 7.19 C 12.013 7.062 12.025 7.038 12.179 6.897 C 12.215 6.782 12.24 6.67 12.272 6.555 C 12.302 6.449 12.339 6.339 12.368 6.257 C 12.338 6.025 12.401 5.987 12.485 5.784 C 12.47 5.756 12.473 5.748 12.48 5.702 C 12.512 5.567 12.563 5.389 12.594 5.273 C 12.594 5.273 12.604 5.227 12.648 5.224 C 12.687 5.077 12.745 4.804 12.754 4.748 C 12.794 4.595 12.768 4.546 12.738 4.459 C 12.728 4.431 12.733 4.39 12.716 4.359 C 12.668 4.27 12.616 4.153 12.581 4.07 C 12.559 4.017 12.523 3.818 12.523 3.818 C 12.492 3.716 12.519 3.818 12.519 3.818" fill="rgb(0,0,0)"/></g></svg>