<?xml version="1.0" encoding="UTF-8" standalone="no"?>
<svg
   viewBox="0 0 25.384331 30.575188"
   width="25.384331pt"
   height="30.575188pt"
   version="1.1"
   id="svg133"
   xmlns="http://www.w3.org/2000/svg"
   xmlns:svg="http://www.w3.org/2000/svg">
  <defs
     id="defs137" />
  <path
     d="M 21.443006,21.612491 C 23.802736,19.229014 25.38433,16.104787 25.38433,12.535828 25.38433,5.6174962 19.696779,0 12.692165,0 5.6875539,0 0,5.6174962 0,12.535828 c 0,3.613431 1.4451059,6.62509 4.0299738,9.158658 v 0 l 8.1457812,8.880703 9.282728,-8.962698 z"
     fill="#ff69b4"
     id="path2"
     style="stroke-width:1.39843" />
  <path
     style="fill:#ffffff;fill-opacity:1;stroke-width:1.92193"
     id="path2045-9"
     d="M 23.86194,12.418174 A 11.205658,11.081947 15.61835 0 1 12.751719,23.509117 11.205658,11.081947 15.61835 0 1 1.4691771,12.461506 11.205658,11.081947 15.61835 0 1 12.535317,1.3274054 11.205658,11.081947 15.61835 0 1 23.861095,12.331516" />
</svg>
