<?xml version="1.0" encoding="UTF-8" standalone="no"?>
<svg
   viewBox="0 0 29.254608 36.697266"
   width="29.254608pt"
   height="36.697266pt"
   version="1.1"
   id="svg133"
   xmlns="http://www.w3.org/2000/svg"
   xmlns:svg="http://www.w3.org/2000/svg">
  <defs
     id="defs137" />
  <path
     style="fill:#FF69B4;fill-opacity:1;stroke-width:4.88552"
     id="path2106-6"
     d="M 27.349562,14.555734 A 12.722008,12.722009 0 0 1 14.652403,27.277717 12.722008,12.722009 0 0 1 1.9056455,14.605436 12.722008,12.722009 0 0 1 14.553001,1.8339443 12.722008,12.722009 0 0 1 27.349176,14.45633" />
  <path
     style="fill:#ffffff;fill-opacity:1;stroke-width:1.89716"
     id="path2045"
     d="M 25.753845,14.46084 A 11,11 0 0 1 14.775332,25.460821 11,11 0 0 1 3.7539291,14.503815 11,11 0 0 1 14.689383,3.4610301 11,11 0 0 1 25.753509,14.374892" />
</svg>
