<?xml version="1.0" encoding="UTF-8" standalone="no"?>
<svg
   viewBox="0 0 24 24"
   width="24pt"
   height="24pt"
   version="1.1"
   id="svg1"
   sodipodi:docname="everest.svg"
   xml:space="preserve"
   inkscape:version="1.4 (86a8ad7, 2024-10-11)"
   xmlns:inkscape="http://www.inkscape.org/namespaces/inkscape"
   xmlns:sodipodi="http://sodipodi.sourceforge.net/DTD/sodipodi-0.dtd"
   xmlns="http://www.w3.org/2000/svg"
   xmlns:svg="http://www.w3.org/2000/svg"><defs
     id="defs1" /><sodipodi:namedview
     id="namedview1"
     pagecolor="#ffffff"
     bordercolor="#000000"
     borderopacity="0.25"
     inkscape:showpageshadow="2"
     inkscape:pageopacity="0.0"
     inkscape:pagecheckerboard="0"
     inkscape:deskcolor="#d1d1d1"
     inkscape:document-units="pt"
     inkscape:zoom="22.96875"
     inkscape:cx="13.823129"
     inkscape:cy="15.869388"
     inkscape:window-width="1920"
     inkscape:window-height="974"
     inkscape:window-x="-11"
     inkscape:window-y="1609"
     inkscape:window-maximized="1"
     inkscape:current-layer="g1" /><path
     d=" M 18.219 16.551 C 19.896 14.836 21.02 12.588 21.02 10.02 C 21.02 5.042 16.978 1 12 1 C 7.022 1 2.98 5.042 2.98 10.02 C 2.98 12.62 4.007 14.787 5.844 16.61 L 5.844 16.61 L 11.633 23 L 18.23 16.551 L 18.219 16.551 Z"
     fill="#FF69B4"
     id="path1"
     style="fill:#db2016;fill-opacity:1" /><g
     id="g1"
     transform="matrix(0.01925268,0,0,0.01925268,2.5376659,8.5037719)"><path
       d="m 0,0 c 41.085,0.495 41.085,0.495 83,1 0,0.66 0,1.32 0,2 1.175625,0.103125 2.35125,0.20625 3.5625,0.3125 10.231232,1.343857 19.83313,7.774994 26.19531,15.808594 5.80786,8.784836 7.62361,18.399778 7.55469,28.753906 -0.006,0.884055 -0.0113,1.76811 -0.0171,2.678955 -0.21221,11.382793 -3.1686,20.260205 -11.32275,28.49292 C 101.25814,86 101.25814,86 96,86 c 0,0.66 0,1.32 0,2 1.082813,0.37125 1.082813,0.37125 2.1875,0.75 5.23322,2.325876 8.58628,5.285135 10.96875,10.597656 2.7675,8.699674 2.83072,18.133124 3.07813,27.183594 0.0182,0.66305 0.0364,1.3261 0.0551,2.00925 0.0884,3.34649 0.15499,6.69048 0.19364,10.03811 0.0249,1.24508 0.0498,2.49015 0.0754,3.77295 0.0202,1.66797 0.0202,1.66797 0.0408,3.36963 0.33771,4.03272 0.33771,4.03272 3.40063,10.27881 8.91,0 17.82,0 27,0 1.83361,-6.30567 1.83361,-6.30567 2.25397,-12.43973 0.006,-1.02892 0.0113,-2.05785 0.0171,-3.11795 -0.004,-1.10777 -0.008,-2.21553 -0.0123,-3.35687 0.004,-1.18293 0.007,-2.36585 0.0106,-3.58463 0.007,-3.22714 0.006,-6.45412 -7.6e-4,-9.68127 -0.005,-3.38491 -3.6e-4,-6.76981 0.003,-10.15472 0.004,-5.68078 -0.001,-11.3615 -0.0107,-17.042271 -0.0109,-6.561487 -0.007,-13.12285 0.004,-19.684334 0.009,-5.643496 0.0104,-11.286954 0.005,-16.930454 -0.003,-3.366413 -0.004,-6.732766 0.003,-10.099175 0.005,-3.751031 -0.003,-7.501822 -0.0138,-11.252834 0.006,-1.667725 0.006,-1.667725 0.0123,-3.369141 -0.008,-1.534926 -0.008,-1.534926 -0.0171,-3.100861 -7.6e-4,-0.885969 -0.002,-1.771938 -0.002,-2.684755 C 144.9706,26.707824 144.15222,24.54755 143,22 c -0.95262,-0.03738 -1.90523,-0.07477 -2.88672,-0.113281 -1.25426,-0.06574 -2.50851,-0.131485 -3.80078,-0.199219 -1.24137,-0.05801 -2.48273,-0.116016 -3.76172,-0.175781 C 128.91948,20.988396 126.88405,20.233347 124,18 c 0,-0.66 0,-1.32 0,-2 -0.66,0 -1.32,0 -2,0 -0.13631,-1.560024 -0.23259,-3.123572 -0.3125,-4.6875 -0.058,-0.870117 -0.11602,-1.7402344 -0.17578,-2.6367187 C 122.22822,4.7493795 123.84347,3.3642378 127,1 c 3.38281,-0.5234375 3.38281,-0.5234375 7.125,-0.375 1.21945,0.0335156 2.43891,0.0670312 3.69531,0.1015625 3.02896,0.16713091 6.03148,0.4659478 9.0481,0.7822266 6.80773,0.6223013 13.58492,0.6349295 20.41675,0.6240234 1.35037,6.759e-4 2.70075,0.00165 4.05113,0.0029 2.81117,0.00146 5.62231,-6.324e-4 8.43349,-0.00534 3.57584,-0.0057 7.15161,-0.00241 10.72745,0.00357 2.78235,0.00364 5.56469,0.00245 8.34704,-1.278e-4 1.95068,-9.769e-4 3.90136,0.00202 5.85203,0.00513 C 211.53264,2.1210637 218.21406,1.8244827 225,1 c 8.7931,-0.8045977 8.7931,-0.8045977 13,2 4.72247,7.083706 4.31961,15.160489 4.33594,23.382812 0.01,1.759556 0.01,1.759556 0.0202,3.554657 0.0101,2.469233 0.0148,4.938493 0.0145,7.407746 0.004,3.774705 0.0408,7.548254 0.0786,11.322754 0.006,2.404944 0.01,4.809893 0.0117,7.214843 0.0144,1.12512 0.0287,2.25024 0.0436,3.409455 C 242.46463,66.124357 241.93702,70.06298 237,75 c -2.10938,0.308594 -2.10938,0.308594 -4.75,0.4375 -0.86109,0.06059 -1.72219,0.121172 -2.60938,0.183594 -3.23017,-0.759759 -4.54897,-2.254488 -6.58032,-4.812882 -1.81996,-3.103723 -1.72715,-6.3176 -1.66186,-9.804306 -0.008,-0.75177 -0.016,-1.50354 -0.0243,-2.278091 -0.023,-2.388329 -0.0137,-4.774943 8.2e-4,-7.163315 0.004,-2.38448 2.7e-4,-4.768206 -0.0206,-7.152603 -0.012,-1.478095 -0.01,-2.956402 0.01,-4.434418 C 221.33659,34.851711 220.36942,31.451843 218,27 c -7.65701,-5.104676 -17.05304,-4.246984 -25.90479,-4.295166 -1.48382,-0.01159 -2.96759,-0.03214 -4.45117,-0.06152 -2.15507,-0.04261 -4.30891,-0.05883 -6.46435,-0.06909 -1.28149,-0.01458 -2.56298,-0.02916 -3.8833,-0.04419 -3.28495,0.251386 -3.28495,0.251386 -5.71411,1.916016 -2.39159,3.860265 -2.13593,7.385843 -2.07837,11.843017 -10e-4,0.899635 -0.003,1.79927 -0.004,2.726166 0.002,1.897952 0.0132,3.795917 0.0339,5.693756 0.029,2.912686 0.0206,5.823559 0.008,8.736328 0.006,1.843759 0.0146,3.687513 0.0254,5.53125 -0.003,0.873955 -0.006,1.747909 -0.009,2.648346 0.007,2.699879 0.007,2.699879 0.44249,6.375092 3.75284,2.501894 5.89807,2.299307 10.375,2.3125 1.96066,0.02514 1.96066,0.02514 3.96094,0.05078 C 188.1631,69.983829 190.07384,69.469634 193,67 c 0.84892,-2.077591 0.84892,-2.077591 0.875,-4.375 0.0477,-0.799219 0.0954,-1.598438 0.14453,-2.421875 C 193.99721,57.68527 193.5796,55.447204 193,53 c -0.42893,-6.005016 0.54805,-9.021597 4.32812,-13.613281 2.6856,-2.227537 5.14831,-1.860162 8.51172,-1.734375 C 208,38 208,38 210.5,39.625 c 3.07111,4.862593 2.65696,10.656528 2.625,16.25 0.004,0.669023 0.008,1.338047 0.0117,2.027344 -0.008,4.005397 -0.33737,7.841976 -0.88281,11.816894 -0.54617,4.90605 -0.63653,9.850274 -0.81641,14.780762 -0.0648,1.662891 -0.0648,1.662891 -0.13086,3.359375 C 211.20138,90.572815 211.09924,93.286334 211,96 c 0.66,0 1.32,0 2,0 0.0875,3.228994 0.14056,6.45768 0.1875,9.6875 0.0251,0.91201 0.0503,1.82402 0.0762,2.76367 0.0936,8.58113 0.0936,8.58113 -3.26367,12.54883 -3.53431,2.3562 -4.83571,2.48992 -9,2 -3.20206,-1.66261 -5.37655,-2.93007 -7.21094,-6.07812 -1.29837,-4.80784 -0.44163,-9.51601 0.10938,-14.41602 0.53437,-4.856974 0.53437,-4.856974 -1.875,-8.939454 C 191.3557,93.049492 190.68797,92.532578 190,92 c 0,-0.66 0,-1.32 0,-2 -2.39591,-0.02712 -4.79151,-0.0469 -7.1875,-0.0625 -0.67354,-0.0084 -1.34707,-0.01676 -2.04102,-0.02539 C 177.02862,89.893851 173.64759,90.204412 170,91 c -0.0464,7.328224 -0.0819,14.65642 -0.10362,21.98476 -0.0104,3.40324 -0.0245,6.80639 -0.0473,10.20958 -0.026,3.91698 -0.0356,7.83392 -0.0444,11.75097 -0.0103,1.21584 -0.0206,2.43168 -0.0313,3.68436 -2.3e-4,1.71109 -2.3e-4,1.71109 -4.6e-4,3.45676 -0.004,0.99927 -0.009,1.99855 -0.0135,3.0281 0.27246,3.26877 0.93019,5.8781 2.24051,8.88547 5.23454,1.74485 10.868,1.18591 16.34888,1.1853 2.18144,0.002 4.36235,0.0203 6.5437,0.0393 7.56803,0.0304 14.74689,-0.27959 22.10742,-2.22461 0.7226,-0.13511 1.4452,-0.27022 2.1897,-0.40942 0.5974,-0.19489 1.1948,-0.38978 1.8103,-0.59058 1.2329,-2.45705 1.2329,-2.45705 2,-5 0.33,-0.33 0.66,-0.66 1,-1 0.0985,-2.8125 0.13714,-5.60493 0.14062,-8.41797 0.0183,-1.74676 0.0379,-3.4935 0.0586,-5.24023 0.0289,-2.76072 0.0508,-5.52062 0.0513,-8.2815 0.003,-2.66015 0.038,-5.31844 0.0776,-7.97827 -0.007,-0.81897 -0.0141,-1.63794 -0.0214,-2.48173 0.0876,-4.14627 0.44777,-6.82198 3.07904,-10.12032 C 230,101 230,101 232.5,100.23828 c 4.56729,0.13559 6.81293,0.24291 10.5625,3.07422 2.75083,3.81566 3.05879,6.46217 3.00684,11.04175 -0.0104,1.09511 -0.0208,2.19023 -0.0316,3.31853 -0.0176,1.18435 -0.0352,2.3687 -0.0534,3.58894 -0.0247,1.82964 -0.0247,1.82964 -0.05,3.69624 -0.0375,2.58494 -0.0781,5.16984 -0.1214,7.75469 -0.0625,3.94143 -0.10408,7.88275 -0.14502,11.82446 -0.0391,2.51239 -0.0794,5.02476 -0.1211,7.53711 -0.01,1.17423 -0.0191,2.34846 -0.0289,3.55827 -0.15541,7.49864 -0.85068,13.14883 -4.92838,19.59816 -4.28097,2.92495 -8.72463,1.90429 -13.73953,1.52106 -2.27895,-0.13306 -4.55816,-0.26169 -6.83759,-0.38626 -1.75147,-0.0996 -1.75147,-0.0996 -3.53832,-0.20116 -5.34246,-0.25264 -10.67606,-0.26612 -16.02351,-0.24608 -1.57561,0.004 -1.57561,0.004 -3.18306,0.008 -2.17097,0.008 -4.34193,0.0173 -6.51288,0.0289 -3.46524,0.0178 -6.93043,0.0278 -10.3957,0.0359 -9.82969,0.0241 -19.65931,0.0604 -29.48892,0.10463 -6.06532,0.0268 -12.1306,0.0438 -18.19597,0.0549 -2.29408,0.006 -4.58816,0.0162 -6.88221,0.0301 -3.19062,0.0192 -6.38105,0.0261 -9.57173,0.0303 -0.93608,0.009 -1.87217,0.0175 -2.83662,0.0265 -5.73263,-0.009 -11.5312,-0.0572 -16.274215,-3.68304 -0.672891,-0.83145 -0.672891,-0.83145 -1.359375,-1.67969 -0.458906,-0.53883 -0.917812,-1.07766 -1.390625,-1.63281 -3.272666,-5.39802 -4.73337,-11.05467 -5.421875,-17.30469 -0.07742,-0.68828 -0.154849,-1.37656 -0.234619,-2.08569 -0.540189,-5.18113 -0.867892,-10.37066 -1.163819,-15.57056 -0.05978,-1.02389 -0.05978,-1.02389 -0.120773,-2.06847 -0.200176,-3.44867 -0.385666,-6.89701 -0.545486,-10.34779 C 86.50033,115.03347 86.171925,109.13043 83,103 75.110486,96.116517 64.761789,96.606084 54.875,96.8125 53.632344,96.82604 52.389687,96.83957 51.109375,96.85352 48.072452,96.888557 45.036465,96.937686 42,97 c 0.107534,7.24977 0.220175,14.49945 0.339339,21.74904 0.05517,3.36626 0.108583,6.73252 0.157975,10.09886 0.05765,3.8698 0.121362,7.73945 0.18628,11.60913 0.01671,1.20945 0.03343,2.4189 0.05064,3.66499 0.01994,1.12094 0.03989,2.24188 0.06044,3.39678 0.02332,1.48226 0.02332,1.48226 0.0471,2.99446 C 42.902138,153.132 42.902138,153.132 44,156 c 1.024805,-0.0348 2.049609,-0.0696 3.105469,-0.10547 1.36066,-0.0282 2.721339,-0.0555 4.082031,-0.082 0.673535,-0.0251 1.34707,-0.0503 2.041016,-0.0762 C 57.697954,155.67092 60.508399,156.15948 64,159 c 2.010611,2.90289 2.243556,5.02844 1.875,8.5 -0.06445,0.75281 -0.128906,1.50562 -0.195313,2.28125 C 64.753496,172.80468 63.451616,174.014 61,176 c -2.807861,0.50793 -2.807861,0.50793 -6.082031,0.51758 -1.228074,0.0126 -2.456148,0.0252 -3.721436,0.0382 -1.33635,-0.007 -2.672695,-0.0154 -4.009033,-0.0245 -1.374759,0.003 -2.749515,0.007 -4.124268,0.0116 -2.878358,0.006 -5.75622,-0.003 -8.634521,-0.0214 -3.685751,-0.0228 -7.370337,-0.01 -11.056046,0.0143 -2.837964,0.0145 -5.675653,0.01 -8.513626,-5.1e-4 -1.358745,-0.003 -2.717516,6e-4 -4.076233,0.01 -1.900253,0.0102 -3.8005942,-0.008 -5.7007748,-0.0276 -1.6207141,-0.005 -1.6207141,-0.005 -3.2741699,-0.01 C -1.6846218,175.87615 -2.8410947,174.7656 -5,172 c -1.201909,-3.60573 -1.3267031,-6.21024 -1,-10 2.1367928,-3.3894 3.1774767,-4.72583 7,-6 2.5726582,-0.0703 5.1164143,-0.0937 7.6875,-0.0625 0.7018945,0.005 1.403789,0.009 2.126953,0.0137 1.728552,0.0118 3.457061,0.0297 5.185547,0.0488 0.93708,-3.17474 1.125655,-6.02241 1.126984,-9.32693 0.0028,-1.07962 0.0056,-2.15924 0.0085,-3.27158 -0.002,-1.17937 -0.004,-2.35874 -0.0061,-3.57385 0.0018,-1.24583 0.0035,-2.49166 0.0053,-3.77524 0.0036,-3.41303 0.0028,-6.82601 -3.8e-4,-10.23904 -0.0025,-3.57051 -1.83e-4,-7.14101 0.0014,-10.71152 0.0018,-5.99375 -5.78e-4,-11.98749 -0.0053,-17.981235 -0.0054,-6.934652 -0.0037,-13.869275 0.0018,-20.803926 0.0045,-5.951658 0.0052,-11.903306 0.0026,-17.854965 -0.0016,-3.555817 -0.0018,-7.111621 0.0015,-10.667437 0.0034,-3.960246 -0.0013,-7.920459 -0.0069,-11.880703 0.002,-1.18342 0.004,-2.366839 0.0061,-3.58612 -0.0028,-1.073981 -0.0056,-2.147961 -0.0085,-3.254486 -3.77e-4,-0.936878 -7.54e-4,-1.873755 -0.0011,-2.839022 C 17.145812,23.961457 17.145812,23.961457 16,22 12.681136,21.80299 9.4013953,21.731362 6.078125,21.785156 3.0573346,21.712968 0.85876985,21.640049 -1.6132812,19.797607 -4.4654947,16.635084 -5.6569991,14.03185 -5.5,9.8125 -5.4896875,8.9733203 -5.479375,8.1341406 -5.46875,7.2695312 -4.9148087,4.5875322 -4.1689941,3.6320617 -2,2 -1.34,2 -0.68,2 0,2 0,1.34 0,0.68 0,0 Z"
       fill="#fefbfb"
       transform="translate(438,37)"
       id="path2" /><path
       d="m 0,0 c 0.97262787,0.00444122 1.9452557,0.00888245 2.9473572,0.01345825 1.6514854,2.2659e-4 1.6514854,2.2659e-4 3.3363342,4.5777e-4 1.1927353,0.01032257 2.3854706,0.02064514 3.6143494,0.03128051 1.2179522,0.0028299 2.4359052,0.0056598 3.6907652,0.0085754 3.902656,0.0112245 7.805085,0.03633334 11.707672,0.06173706 2.640622,0.0100269 5.281247,0.0191532 7.921875,0.0273438 6.484453,0.0220904 12.968773,0.0555903 19.453125,0.0976563 0,0.66 0,1.32000001 0,2.00000001 0.639375,0.309375 1.27875,0.61875 1.9375,0.9375 2.0625,1.0625 2.0625,1.0625 3.0625,2.0625 0.456615,4.2500251 0.422021,7.9560539 -1.1875,11.9374999 -4.163534,4.737815 -10.880909,4.979841 -16.8125,6.0625 -0.475287,6.957398 1.29103,13.275323 2.9375,20 0.31548,1.315285 0.629987,2.630803 0.943604,3.946533 0.502728,2.108739 1.006037,4.217323 1.512069,6.325272 1.87343,7.807262 3.677627,15.630217 5.477952,23.454605 0.566789,2.462889 1.134686,4.92552 1.70285,7.388092 3.002726,13.019581 5.982962,26.044289 8.951172,39.071779 0.239697,1.05109 0.239697,1.05109 0.484237,2.12341 0.428842,1.88066 0.857208,3.76143 1.285538,5.64221 0.54513,2.35663 1.114144,4.70281 1.705078,7.0481 0.162956,-0.7355 0.325912,-1.471 0.493805,-2.22879 3.554657,-15.99803 7.234865,-31.96053 11.092133,-47.888398 0.195144,-0.806735 0.390289,-1.613469 0.591347,-2.444649 1.808202,-7.474237 3.620999,-14.94735 5.441368,-22.418633 1.011326,-4.151888 2.017219,-8.305062 3.019764,-12.459079 0.376674,-1.556077 0.75538,-3.111664 1.136283,-4.66671 2.81994,-11.326251 2.81994,-11.326251 4.2253,-22.893742 -1.61278,-1.61278 -3.525476,-1.23679 -5.75,-1.375 -4.128849,-0.372128 -6.940194,-0.955802 -10.25,-3.625 -1.293766,-2.587532 -1.168324,-4.54959 -1.1875,-7.4375 C 73.469799,9.8349231 73.455619,8.8668372 73.44101,7.8694153 73.671478,5.240509 73.671478,5.240509 75.671478,2.240509 79.156392,1.0788712 82.030061,1.0289765 85.706635,0.92410278 c 1.054125,-0.0313076 1.054125,-0.0313076 2.129547,-0.0632477 2.299153,-0.0662838 4.598414,-0.12511551 6.897796,-0.18284607 0.781948,-0.0208466 1.563895,-0.0416931 2.369538,-0.0631714 C 107.5214,0.33843468 117.93714,0.1407657 128.35898,0.11550899 c 1.03584,-0.004592 2.07168,-0.009185 3.13891,-0.013916 0.96865,0.002014 1.9373,0.004028 2.93531,0.006104 0.82459,0.001128 1.64919,0.002256 2.49878,0.003418 2.7395,0.12939453 2.7395,0.12939453 6.14917,0.62939453 6.39162,0.83638148 12.83994,0.64361118 19.27392,0.63281248 1.42432,6.751e-4 2.84865,0.00165 4.27297,0.0029 2.97453,0.00147 5.94903,-6.481e-4 8.92357,-0.00534 3.79013,-0.00569 7.5802,-0.00242 11.37034,0.00357 2.93844,0.00363 5.87687,0.00245 8.81531,-1.278e-4 1.39648,-6.616e-4 2.79296,1.318e-4 4.18943,0.00248 7.33492,0.00963 14.47289,-0.1558257 21.74479,-1.13629528 4.26076,-0.32391719 7.83159,-0.43180184 11.875,1.06249998 4.51041,4.1124359 5.30011,8.9168841 5.60498,14.7775881 0.0614,2.293824 0.10622,4.588132 0.13721,6.882568 0.0251,1.218844 0.0501,2.437688 0.076,3.693466 0.0488,2.569257 0.0904,5.13866 0.12522,7.708146 0.0565,3.928736 0.1449,7.855874 0.23633,11.783935 0.0436,2.500618 0.0853,5.00127 0.125,7.501953 0.0279,1.172005 0.0559,2.344009 0.0847,3.551529 0.0995,10.346188 0.0995,10.346188 -3.26437,15.038315 -2.99682,1.997881 -3.94085,2.359352 -7.375,2.5 -0.75024,0.05156 -1.50047,0.103125 -2.27344,0.15625 -3.62241,-1.010904 -5.51925,-3.512397 -7.35156,-6.65625 -0.68125,-2.859322 -0.67576,-5.609628 -0.63672,-8.539062 -0.0104,-0.803278 -0.0208,-1.606555 -0.0315,-2.434174 -0.0296,-2.551029 -0.0263,-5.100595 -0.0193,-7.651764 -0.009,-2.557899 -0.0249,-5.11541 -0.0515,-7.673187 -0.0149,-1.587031 -0.0188,-3.174214 -0.0102,-4.761292 0.005,-5.300905 0.005,-5.300905 -2.25081,-9.940521 -8.40919,-5.660033 -17.04094,-5.241475 -26.90479,-5.295166 -1.48382,-0.01159 -2.96759,-0.03214 -4.45117,-0.06152 -2.15507,-0.04261 -4.30892,-0.05883 -6.46435,-0.06909 -1.28149,-0.01458 -2.56298,-0.02916 -3.88331,-0.04419 -3.28494,0.251386 -3.28494,0.251386 -5.71411,1.916016 -2.39158,3.860265 -2.13593,7.385843 -2.07837,11.843018 -0.001,0.899634 -0.003,1.799269 -0.004,2.726165 0.002,1.897952 0.0132,3.795917 0.034,5.693756 0.029,2.912686 0.0206,5.82356 0.008,8.736329 0.006,1.843758 0.0146,3.687512 0.0254,5.53125 -0.003,0.873954 -0.006,1.747908 -0.009,2.648345 0.007,2.699879 0.007,2.699879 0.44249,6.375092 3.74263,2.495089 5.90869,2.331127 10.375,2.375 1.30711,0.02836 2.61422,0.05672 3.96094,0.08594 3.64212,-0.275856 3.64212,-0.275856 6.63671,-1.800782 3.22266,-4.228568 2.40006,-8.45745 2.08985,-13.597656 -0.57813,-10.200254 -0.57813,-10.200254 1.80859,-14.191406 3.31482,-2.913395 5.66279,-3.204309 10.08985,-3.164063 3.1704,0.455519 4.8583,2.046126 7.03906,4.292969 1.61003,3.220058 1.14281,6.716782 1.125,10.25 0.004,0.751523 0.008,1.503047 0.0117,2.277344 -0.007,4.267982 -0.29342,8.269534 -1.13672,12.472656 -0.66,0 -1.32,0 -2,0 0.1401,4.000222 0.28812,8.000115 0.4375,12 0.0393,1.125352 0.0786,2.250703 0.11914,3.410156 0.25359,6.931686 0.25359,6.931686 0.95117,13.828125 0.56664,4.330723 0.82363,8.586333 0.92969,12.949223 0.0458,0.78053 0.0915,1.56105 0.13867,2.36523 0.1084,5.55677 0.1084,5.55677 -1.8374,8.08789 -2.49282,2.16513 -4.50206,3.31006 -7.73877,3.98438 -4.19978,-0.87495 -5.93868,-2.63487 -9,-5.625 -1.25437,-2.50873 -1.05336,-4.10285 -0.95703,-6.90234 0.0213,-0.9726 0.0425,-1.9452 0.0644,-2.94727 0.0533,-2.05503 0.11836,-4.10979 0.19531,-6.16406 0.0174,-0.97389 0.0348,-1.947779 0.0527,-2.951178 0.0273,-0.893239 0.0546,-1.786479 0.0828,-2.706787 -0.26529,-2.392734 -0.26529,-2.392734 -1.85107,-4.131347 -4.03615,-1.867439 -7.95233,-1.510821 -12.33716,-1.384522 -0.88817,0.01353 -1.77633,0.02707 -2.69141,0.04102 -2.18682,0.03527 -4.37239,0.08456 -6.55859,0.146484 -0.0464,7.62353 -0.0819,15.24705 -0.10363,22.87068 -0.0104,3.54007 -0.0246,7.08003 -0.0472,10.62004 -0.0259,4.07081 -0.0356,8.14152 -0.0444,12.2124 -0.0103,1.26991 -0.0206,2.53982 -0.0313,3.84821 -2.3e-4,1.77138 -2.3e-4,1.77138 -4.6e-4,3.57855 -0.004,1.03925 -0.009,2.07849 -0.0135,3.14923 0.24548,2.77712 0.72104,4.40147 2.24051,6.72089 4.48282,2.24141 10.60487,1.22737 15.59082,1.24023 2.24095,0.01 4.48094,0.0405 6.72168,0.0723 14.81314,0.44423 14.81314,0.44423 27.47534,-5.92896 2.71651,-3.54338 2.91115,-7.03131 2.84888,-11.37963 0.0104,-0.75177 0.0207,-1.50355 0.0315,-2.2781 0.0295,-2.38824 0.0263,-4.77492 0.0193,-7.16331 0.009,-2.38438 0.025,-4.76835 0.0515,-7.1526 0.0147,-1.47807 0.0188,-2.9563 0.0102,-4.43442 0.0288,-5.26182 0.51562,-10.45766 3.56721,-14.88564 3.48166,-2.25378 7.72414,-1.680513 11.6836,-1.08984 3.34221,2.28248 4.25775,4.13596 5,8 0.0997,1.7488 0.14813,3.50085 0.16113,5.25244 0.01,1.04854 0.0192,2.09708 0.0291,3.1774 0.006,1.69375 0.006,1.69375 0.0129,3.42172 0.006,1.16921 0.0114,2.33842 0.0173,3.54306 0.009,2.47636 0.016,4.95273 0.0198,7.42911 0.01,3.76601 0.0407,7.53148 0.0723,11.29736 0.007,2.41016 0.0118,4.82031 0.0156,7.23047 0.0185,1.67554 0.0185,1.67554 0.0374,3.38492 -0.0198,7.0264 -0.078,15.28994 -4.78223,20.97583 -4.00374,3.25619 -8.67635,2.14094 -13.47784,1.83847 -11.75351,-0.62344 -23.4766,-0.58684 -35.24219,-0.50781 -1.91969,0.0107 -3.83938,0.0211 -5.75906,0.0313 -7.9653,0.0443 -15.93045,0.0932 -23.89548,0.17258 -4.92833,0.0484 -9.85645,0.0775 -14.78498,0.0937 -1.86399,0.01 -3.72795,0.0271 -5.5918,0.0518 -2.58578,0.0336 -5.17055,0.0426 -7.75652,0.0459 -0.763,0.016 -1.526,0.0319 -2.31212,0.0483 -3.49509,-0.0201 -5.40518,-0.21684 -8.23483,-2.34794 -1.93155,-2.70259 -2.06477,-4.3377 -2.02849,-7.63863 -0.0155,-1.40766 -0.0155,-1.40766 -0.0312,-2.84375 0.70508,-3.5254 1.56226,-4.62091 4.53125,-6.65625 2.86596,-0.44889 5.38151,-0.69425 8.25,-0.75 0.74508,-0.0297 1.49015,-0.0593 2.25781,-0.0898 1.83015,-0.0704 3.66118,-0.11758 5.49219,-0.16016 3.44864,-6.38747 3.42031,-12.07571 3.37231,-19.23755 0.004,-1.21701 0.007,-2.43401 0.0111,-3.6879 0.007,-3.32007 2e-5,-6.63957 -0.0133,-9.95958 -0.0113,-3.4784 -0.007,-6.95679 -0.005,-10.43521 8.8e-4,-5.83463 -0.0102,-11.66914 -0.0286,-17.503735 -0.0212,-6.749004 -0.0247,-13.497838 -0.0184,-20.246869 0.006,-6.49643 6e-5,-12.992799 -0.0112,-19.48922 -0.005,-2.764326 -0.006,-5.528614 -0.003,-8.292942 0.002,-3.852204 -0.0122,-7.704245 -0.0285,-11.556418 0.002,-1.150654 0.005,-2.301309 0.007,-3.486831 -0.007,-1.044403 -0.0142,-2.088805 -0.0215,-3.164856 -0.002,-0.910858 -0.004,-1.821716 -0.006,-2.760175 -0.0506,-2.388426 -0.0506,-2.388426 -2.25447,-4.178714 -2.32454,-0.37052 -2.32454,-0.37052 -5.00781,-0.414062 -0.98614,-0.03867 -1.97227,-0.07734 -2.98829,-0.117188 -1.03253,-0.03094 -2.06507,-0.06188 -3.1289,-0.09375 -1.04028,-0.03867 -2.08055,-0.07734 -3.15235,-0.117187 -2.57403,-0.09446 -5.14806,-0.180025 -7.72265,-0.257813 -2.06295,5.966396 -3.86387,11.949741 -5.4375,18.0625 -0.19143,0.731543 -0.38285,1.463086 -0.58008,2.216797 -1.253,4.813288 -2.46302,9.636891 -3.66602,14.462891 -1.93164,7.748612 -3.89162,15.48996 -5.85546,23.230468 -0.24207,0.95421 -0.24207,0.95421 -0.48903,1.927697 -1.91356,7.542109 -3.830956,15.083232 -5.752429,22.623327 -0.717819,2.8176 -1.435477,5.63523 -2.153076,8.45288 -0.176648,0.6934 -0.353295,1.3868 -0.535296,2.10122 -1.998677,7.84836 -3.981172,15.70026 -5.918623,23.56402 -0.891653,3.61817 -1.792541,7.234 -2.694458,10.84962 -0.398683,1.61051 -0.792412,3.22225 -1.180786,4.83527 -4.337774,18.00828 -4.337774,18.00828 -11.123962,23.66159 -3.288461,1.27311 -5.909451,1.30577 -9.425782,1.19922 -1.742168,-0.0406 -1.742168,-0.0406 -3.519531,-0.082 -0.88043,-0.0348 -1.760859,-0.0696 -2.667969,-0.10547 0,-0.66 0,-1.32 0,-2 -0.609323,-0.11247 -1.218647,-0.22494 -1.846435,-0.34082 -2.937373,-0.8991 -4.218079,-2.6166 -5.886475,-5.12207 -2.606389,-5.21881 -3.927453,-10.93369 -5.379639,-16.56006 -0.570898,-2.21135 -1.161688,-4.41658 -1.756591,-6.62158 -5.13086,-19.21645 -5.13086,-19.21645 -5.13086,-27.35547 -0.66,0 -1.32,0 -2,0 -0.101005,-0.62398 -0.20201,-1.24796 -0.306076,-1.89085 -1.374889,-8.04382 -3.347554,-15.88466 -5.432205,-23.769306 -0.36663,-1.398389 -0.73293,-2.796864 -1.098923,-4.19542 -0.764896,-2.919492 -1.532448,-5.838268 -2.3022,-8.756485 C 25.560221,76.943936 24.59305,73.258216 23.627577,69.572027 20.38162,57.180224 17.133303,44.787984 13.75351,32.431915 13.56512,31.733158 13.376731,31.0344 13.182632,30.314468 11.902747,25.572307 11.902747,25.572307 9.6714783,21.240509 c -3.0042359,-0.776667 -3.0042359,-0.776667 -6.4375,-1 C -2.8637898,19.695457 -2.8637898,19.695457 -5.1839905,17.424103 -6.9393092,14.075218 -7.4709759,11.011797 -7.3285217,7.240509 -5.7223281,3.7221801 -4.099313,0.42341104 0,0 Z"
       fill="#fefcfb"
       transform="translate(179.32852,37.759491)"
       id="path3" /><path
       d="m 0,0 c 1.2078516,0.03351562 2.4157031,0.06703125 3.6601563,0.1015625 2.2809905,0.12495949 4.5476498,0.29901377 6.8220977,0.51422119 7.886939,0.74497681 15.70076,0.90494501 23.619308,0.89202881 1.313263,9.567e-4 2.626526,0.00191 3.979584,0.0029 2.75812,0.00146 5.516207,-6.268e-4 8.274323,-0.00534 3.507435,-0.00571 7.014794,-0.0024 10.522226,0.00357 3.387128,0.00451 6.774237,0.00134 10.161367,-0.00113 1.245044,0.00202 2.490087,0.00405 3.772858,0.00613 C 77.587116,1.495875 84.212608,1.1999994 90.9375,0.375 c 8.75286,-0.90389016 8.75286,-0.90389016 11.70313,1.234375 3.5824,4.1588783 4.41479,7.8266825 4.5498,13.135742 0.0296,1.098342 0.0593,2.196684 0.0898,3.328308 0.0261,1.187489 0.0523,2.374977 0.0792,3.59845 0.0279,1.222132 0.0558,2.444264 0.0845,3.70343 0.0564,2.589033 0.11004,5.178128 0.16107,7.767273 0.0819,3.952962 0.18551,7.90499 0.28955,11.857422 0.0521,2.515597 0.10296,5.031222 0.15235,7.546875 0.0342,1.179391 0.0684,2.358783 0.10369,3.573914 0.0954,6.229512 -0.0863,10.798909 -3.21307,16.254211 -2,2 -2,2 -4.46094,2.152344 C 92.566581,73.944168 92.566581,73.944168 89.3125,71 87.016028,66.615826 86.848579,63.480513 86.945312,58.582031 c 0.01753,-1.366529 0.03444,-2.733066 0.05078,-4.099609 0.0308,-2.14159 0.06614,-4.282766 0.112793,-6.424072 C 87.454706,36.847485 87.454706,36.847485 83.9375,26.375 76.360952,21.1556 66.79589,22.18872 57.977783,22.189697 c -2.231716,-0.0022 -4.46295,-0.02043 -6.69458,-0.03931 -1.421222,-0.0029 -2.842447,-0.0049 -4.263672,-0.0059 -1.286726,-0.0041 -2.573452,-0.0082 -3.89917,-0.01245 -3.339377,-0.0065 -3.339377,-0.0065 -6.182861,2.24292 -0.436364,1.972551 -0.436364,1.972551 -0.340576,4.266113 2.26e-4,0.880762 4.53e-4,1.761524 6.86e-4,2.668976 0.01548,0.952124 0.03097,1.904248 0.04692,2.885223 0.0064,1.460695 0.0064,1.460695 0.01286,2.950898 0.01683,3.118208 0.05449,6.235776 0.09261,9.35379 0.01504,2.110668 0.02873,4.221346 0.04102,6.332031 0.03312,5.181209 0.08336,10.362043 0.146484,15.542969 3.002997,1.501498 6.084767,1.184384 9.375,1.1875 0.672891,0.01225 1.345781,0.02449 2.039062,0.03711 3.68201,0.01087 6.538163,-0.05072 9.585938,-2.224609 2.089622,-3.134434 2.253676,-3.870037 2.1875,-7.4375 -0.0064,-0.761836 -0.01289,-1.523672 -0.01953,-2.308594 -0.164043,-2.201116 -0.60664,-4.125113 -1.167974,-6.253864 -0.528296,-5.705598 0.39061,-8.541342 4,-13 3.192699,-1.596349 6.526476,-1.372163 10,-1 2.932867,1.389253 3.746542,2.463161 5.125,5.382812 1.255888,5.19175 0.818265,10.064772 0.5,15.367188 -0.112045,2.243358 -0.221402,4.486851 -0.328125,6.730469 -0.0535,1.103921 -0.106992,2.207842 -0.162109,3.345215 -0.187368,4.413324 -0.256916,8.819878 -0.259766,13.236816 -0.0065,1.040757 -0.0065,1.040757 -0.01318,2.102539 0.01071,3.978678 0.36675,7.818009 0.902344,11.75708 0.425605,3.749816 0.460556,7.494941 0.48584,11.265381 0.02062,0.78053 0.04125,1.56105 0.0625,2.36523 0.03164,4.66273 -0.319185,7.64159 -3.3125,11.44727 -3.209374,2.32403 -6.11506,2.47571 -10,2 -2.699907,-1.79994 -4.541886,-3.08377 -6,-6 -0.0254,-1.62241 0.01029,-3.246 0.07813,-4.86719 0.02578,-0.96808 0.05156,-1.93617 0.07813,-2.93359 0.06228,-2.04221 0.140296,-4.08401 0.234375,-6.125 0.272922,-5.887716 0.272922,-5.887716 -2.71875,-10.707033 C 53.53018,89.65488 50.534026,89.238791 46,89.25 c -1.040273,-0.0026 -2.080547,-0.0052 -3.152344,-0.0078 -2.505649,0.114352 -4.511211,0.484032 -6.910156,1.132813 0.06119,7.901852 0.138279,15.803317 0.235715,23.704797 0.04474,3.66893 0.08399,7.33776 0.110721,11.00687 0.026,3.54043 0.06637,7.08043 0.11675,10.6206 0.02482,2.00904 0.03472,4.01825 0.04446,6.02743 0.01979,1.22103 0.03959,2.44207 0.05998,3.70011 0.0111,1.077 0.02221,2.154 0.03365,3.26363 0.191265,2.68544 0.191265,2.68544 1.727035,4.52356 2.765998,1.90777 5.458172,1.54278 8.761536,1.55144 0.699764,0.003 1.399529,0.006 2.120498,0.009 1.485314,0.002 2.970655,-0.004 4.455918,-0.016 2.232334,-0.0158 4.462796,-2.7e-4 6.695068,0.019 8.276228,0.0141 16.947189,0.0196 24.638672,-3.41016 2.140894,-2.33925 2.9892,-3.9676 4,-7 0.66,0 1.32,0 2,0 -0.02618,-1.11971 -0.05237,-2.23942 -0.07935,-3.39307 -0.09078,-4.17069 -0.148005,-8.3413 -0.195312,-12.51269 -0.02508,-1.80223 -0.05915,-3.60437 -0.102539,-5.40625 -0.06094,-2.59677 -0.08908,-5.19219 -0.111084,-7.78955 -0.02581,-0.80024 -0.05161,-1.60047 -0.0782,-2.42496 -0.002,-4.1191 0.325444,-6.70328 2.940751,-9.97983 2.822129,-2.68017 3.808424,-3.315222 7.625731,-3.243647 1.2375,-0.0232 1.2375,-0.0232 2.5,-0.04687 2.94655,0.939217 4.52068,2.323307 6.43704,4.730747 2.2784,4.42865 1.70459,9.50385 1.62155,14.36691 -0.003,1.78642 -0.003,1.78642 -0.007,3.60893 -0.01,2.51577 -0.0315,5.03151 -0.0645,7.54708 -0.0493,3.83179 -0.0615,7.6623 -0.0671,11.49438 -0.0141,2.44989 -0.0303,4.89976 -0.0488,7.34961 -0.008,1.70668 -0.008,1.70668 -0.0162,3.44783 -0.23042,15.58142 -0.23042,15.58142 -4.38316,21.82195 -3.63628,2.97277 -5.16579,2.94848 -9.690978,2.59791 -0.9331,-0.0981 -1.8662,-0.19627 -2.827576,-0.29738 -11.846471,-0.86154 -23.596937,-0.96217 -35.46875,-0.89843 -1.896686,0.007 -3.793374,0.0126 -5.690063,0.0182 -7.855972,0.0247 -15.711864,0.0611 -23.56775,0.10514 -4.864636,0.0267 -9.729229,0.0438 -14.593925,0.0549 -1.838828,0.006 -3.677648,0.0162 -5.5164337,0.0301 -2.549535,0.0192 -5.0988327,0.0261 -7.6484299,0.0303 -0.7520773,0.009 -1.50415463,0.0175 -2.27902218,0.0265 -3.69562042,-0.007 -6.61376972,-0.0525 -9.68875122,-2.23773 -1.350211,-2.70042 -1.24311,-4.92452 -1.3125,-7.9375 -0.03738,-1.0609 -0.07477,-2.1218 -0.113281,-3.21484 0.425781,-2.84766 0.425781,-2.84766 1.9687497,-4.69141 3.3191565,-1.56196 6.4796396,-1.64629 10.0820313,-1.71875 5.166172,0.13879 5.166172,0.13879 9.375,-2.4375 1.055276,-3.07971 1.127778,-5.96856 1.133713,-9.20631 0.0043,-1.05294 0.0085,-2.10587 0.01292,-3.19071 -6.8e-4,-1.72462 -6.8e-4,-1.72462 -0.0014,-3.48408 0.0034,-1.21497 0.0067,-2.42993 0.01018,-3.68171 0.0079,-3.32839 0.01118,-6.65671 0.01182,-9.98511 9.5e-4,-2.77852 0.0046,-5.55703 0.0082,-8.33554 0.0081,-6.55309 0.01059,-13.10617 0.0099,-19.659267 -6.02e-4,-6.763108 0.01,-13.526137 0.02574,-20.289225 0.01307,-5.806452 0.01844,-11.612879 0.0178,-17.419346 -2.55e-4,-3.468124 0.0026,-6.936176 0.01318,-10.404285 0.01146,-3.864268 0.0069,-7.728427 8.95e-4,-11.59271 0.0056,-1.151772 0.01124,-2.303545 0.01703,-3.490219 -0.0042,-1.050113 -0.0084,-2.100225 -0.01271,-3.18216 8.17e-4,-1.370748 8.17e-4,-1.370748 0.0017,-2.769188 C 11.087939,24.099745 11.087939,24.099745 8.9375,21.375 6.4435327,21.094613 4.1217508,20.954161 1.625,20.9375 -5.3356553,20.835238 -5.3356553,20.835238 -8.9804688,18.527344 -12.220847,15.177534 -12.248867,12.031657 -12.585938,7.5078125 -10.974201,0.9405861 -6.0107752,-0.24017819 0,0 Z"
       fill="#fefbfa"
       transform="translate(54.0625,37.625)"
       id="path4" /><path
       d="M 0,0 C 1.2239648,0.01353516 1.2239648,0.01353516 2.4726563,0.02734375 7.6822302,0.28626889 11.060233,2.7188138 15.117188,5.7226562 16.896642,7.1871391 16.896642,7.1871391 19,7 c 1.048922,-1.6363189 2.049067,-3.3048586 3,-5 1.7931,-1.79309961 4.32376,-1.29807043 6.75,-1.375 1.046719,-0.0489844 2.093437,-0.0979688 3.171875,-0.1484375 3.18477,0.5415725 4.81424,1.2855661 7.028809,3.6434326 2.431251,4.3559451 1.754187,9.7788869 1.713378,14.6260989 0.0048,1.24387 0.0096,2.487739 0.0145,3.769302 0.0043,3.300856 -0.01581,6.600531 -0.04379,9.90123 -0.0098,2.017839 -4.5e-5,4.034589 0.01709,6.052368 0.03093,3.884544 0.02714,7.767488 0.01221,11.6521 0.01518,1.800228 0.01518,1.800228 0.03067,3.636825 -0.13021,9.290918 -0.13021,9.290918 -3.064118,13.001602 -3.816652,3.250619 -6.281081,2.970988 -11.095459,2.705323 C 24,69 24,69 21.375,67.1875 19.373404,64.003143 18.883042,61.577275 19.007812,57.902344 19.604928,42.648972 19.604928,42.648972 13.3125,29.125 7.5830414,23.256814 2.2599768,21.578001 -5.9375,21.375 c -6.027738,0.04513 -10.588687,0.936593 -15.359375,4.769531 -6.002521,6.539444 -7.003857,13.975402 -6.917969,22.554688 0.368665,5.664026 1.823076,9.499669 5.339844,14.050781 7.37919,5.775018 16.5371516,7.641875 25.4375,10 15.397849,4.251929 31.573059,9.156484 41.1875,22.875 7.684521,13.67584 8.260281,29.37565 4.625,44.375 -4.530603,14.73238 -12.18915,25.06689 -25.542969,32.78516 C 19.942762,174.02455 18.10177,174.26651 15,174 c 0,0.66 0,1.32 0,2 -5.3207426,1.18715 -10.4437313,1.2213 -15.875,1.25 -1.4521289,0.0309 -1.4521289,0.0309 -2.9335938,0.0625 C -9.7235334,177.34469 -13.755728,176.75241 -19,174 c -0.75668,-0.35063 -1.513359,-0.70125 -2.292969,-1.0625 C -24.780504,171.21171 -27.990867,169.50761 -31,167 c -0.4125,1.09312 -0.825,2.18625 -1.25,3.3125 -1.245202,3.29979 -2.701542,4.88221 -5.75,6.6875 -2.4375,0.50391 -2.4375,0.50391 -5,0.5625 -1.268437,0.0638 -1.268437,0.0638 -2.5625,0.12891 C -49.313031,176.62755 -50.140343,174.32368 -52,171 c -0.552628,-3.18677 -0.552628,-3.18677 -0.625244,-6.64453 -0.05379,-1.95233 -0.05379,-1.95233 -0.108658,-3.94409 -0.01826,-1.40795 -0.03531,-2.81591 -0.05125,-4.22388 -0.02771,-1.45681 -0.05641,-2.91359 -0.08604,-4.37036 -0.05722,-3.0461 -0.09978,-6.09197 -0.132461,-9.13843 -0.04335,-3.89463 -0.12744,-7.78715 -0.223092,-11.6808 -0.06859,-3.00591 -0.113332,-6.01183 -0.151204,-9.01827 -0.02133,-1.43538 -0.05047,-2.87066 -0.08776,-4.30572 -0.307494,-12.59721 -0.307494,-12.59721 2.86635,-16.5372 3.905413,-3.210312 6.392184,-3.52795 11.337646,-3.496095 3.586928,0.569944 5.130108,2.561635 7.261719,5.359375 1.252076,2.50415 1.158122,4.29307 1.210938,7.09375 0.02836,1.03125 0.05672,2.0625 0.08594,3.125 0.05134,2.15609 0.09582,4.31236 0.132813,6.46875 0.316604,10.65902 2.347122,20.13804 9.570312,28.3125 5.97247,4.73952 11.172072,6.19469 18.75,6.25 0.6909375,0.0206 1.381875,0.0412 2.09375,0.0625 7.7713808,0.0584 13.727453,-2.93495 19.355469,-8.19141 6.222044,-7.32878 6.243392,-16.19882 6.234375,-25.32421 C 24.816272,115.39114 23.331013,110.4914 19,106.875 10.482813,100.26412 0.43621461,97.932822 -9.7941894,95.228271 -23.959645,91.460055 -38.459124,86.838173 -47,74 -53.679057,62.36694 -54.729994,47.877885 -51.875,34.9375 -49.064772,24.996646 -44.510938,16.160427 -37,9 -36.502422,8.5191797 -36.004844,8.0383594 -35.492187,7.5429687 -25.650766,-0.64173134 -12.093225,-0.62254281 0,0 Z"
       fill="#fefafa"
       transform="translate(748,38)"
       id="path5" /><path
       d="M 0,0 C 1.0841016,0.01417969 2.1682031,0.02835938 3.2851563,0.04296875 4.3460547,0.04941406 5.4069531,0.05585937 6.5,0.0625 9.4882549,0.19295174 12.396949,0.42726774 15.368164,0.73266602 21.212258,1.271454 27.001451,1.3752386 32.867187,1.3632812 c 1.061035,9.568e-4 2.122069,0.00191 3.215256,0.0029 2.229437,6.759e-4 4.458876,-0.00114 6.688309,-0.00534 3.370082,-0.00534 6.74003,-4.29e-5 10.110107,0.00635 9.915497,0.00298 19.771799,-0.018645 29.65503,-0.8918457 12.725319,-1.10823091 12.725319,-1.10823091 18.436771,1.2551269 5.93998,6.2526128 4.74266,16.3398496 4.8164,24.4140626 0.0104,0.987241 0.0104,0.987241 0.0209,1.994427 0.0356,3.475818 0.0593,6.951478 0.0731,10.427448 0.0166,3.576049 0.0752,7.150145 0.14314,10.725535 0.0448,2.765935 0.0583,5.531402 0.0635,8.29767 0.0117,1.955551 0.0567,3.910811 0.10236,5.865864 -0.0426,8.597914 -0.0426,8.597914 -2.32414,11.94754 -3.20724,2.920519 -4.77753,3.802277 -9.207734,3.952454 -3.610841,-1.226324 -5.078752,-2.063938 -7.3125,-5.125 -2.19561,-5.150656 -2.249018,-9.706092 -2.160156,-15.195313 0.0052,-0.869865 0.0104,-1.739731 0.01576,-2.635956 0.01773,-2.764751 0.0489,-5.529123 0.08189,-8.293731 0.02766,-2.771712 0.05237,-5.543369 0.07118,-8.315155 0.01221,-1.720691 0.02976,-3.441354 0.05331,-5.161927 0.0065,-0.781161 0.01306,-1.562323 0.01979,-2.367157 0.01238,-1.025424 0.01238,-1.025424 0.02501,-2.071563 -0.11654,-2.137941 -0.39839,-3.935967 -1.106797,-5.959198 -5.171368,-2.795334 -12.288766,-3.099201 -18,-2 -2.878942,1.734786 -2.878942,1.734786 -5,5 -0.737979,3.95886 -0.641539,7.870461 -0.583496,11.886963 -0.0035,1.805621 -0.0035,1.805621 -0.0071,3.64772 -0.0013,3.293861 0.01955,6.586149 0.05067,9.879768 0.02759,3.449418 0.02754,6.898839 0.03072,10.348351 0.0092,5.791217 0.03671,11.582104 0.07706,17.373184 0.05683,8.164224 0.07916,16.328281 0.09529,24.492671 0.01246,5.65931 0.03313,11.31859 0.05538,16.97786 0.0054,1.37112 0.0105,2.74224 0.01541,4.11335 0.01652,4.50759 0.04252,9.01504 0.07318,13.52256 0.0043,1.13726 0.0085,2.27451 0.01291,3.44623 0.0086,1.04163 0.0172,2.08325 0.02606,3.15645 0.0056,0.90423 0.01114,1.80847 0.01689,2.74011 0.128934,2.27236 0.500166,4.23583 1.137014,6.41478 1.241367,0.0258 2.482735,0.0516 3.761719,0.0781 1.641962,0.0563 3.283887,0.11365 4.925781,0.17188 0.816621,0.0142 1.633242,0.0284 2.47461,0.043 4.004815,0.16214 6.354579,0.41879 9.857421,2.50781 2.570344,2.85425 2.872112,4.52039 3.121094,8.23437 -0.21237,2.96729 -1.272535,4.69645 -3.140625,6.96485 -3.082921,2.05528 -3.796928,2.25749 -7.293457,2.31885 -0.865857,0.0199 -1.731714,0.0397 -2.62381,0.0602 -0.93738,0.0115 -1.87476,0.0231 -2.840545,0.035 -1.464682,0.029 -1.464682,0.029 -2.958954,0.0587 -3.135988,0.0598 -6.27202,0.10601 -9.408234,0.15225 -2.058609,0.0382 -4.117204,0.0773 -6.175781,0.11719 -4.017245,0.0764 -8.034007,0.13181 -12.051758,0.17285 -3.591302,0.0398 -7.168735,0.14281 -10.755859,0.31836 -0.7781,0.0279 -1.556201,0.0558 -2.35788,0.0846 -2.056126,0.0748 -4.111208,0.17683 -6.166046,0.28116 -3.548701,-0.63133 -4.062978,-0.90305 -6.283691,-3.47534 -1.966773,-2.94809 -2.770831,-4.22909 -2.708985,-7.68628 -0.01289,-0.72317 -0.02578,-1.44633 -0.03906,-2.19141 1.048632,-3.54684 2.740968,-5.02592 5.664062,-7.24609 2.898005,-0.41896 5.305816,-0.61205 8.1875,-0.5625 2.701462,0.0313 5.109567,-0.10451 7.8125,-0.4375 2.090856,-2.96566 2.252548,-5.55684 2.260697,-9.11693 0.01063,-1.54982 0.01063,-1.54982 0.02147,-3.13095 -0.0025,-1.1279 -0.005,-2.25581 -0.0075,-3.41789 0.0051,-1.19224 0.01022,-2.38449 0.01549,-3.61286 0.01152,-3.26657 0.01397,-6.53298 0.01144,-9.79957 -0.0011,-2.72863 0.0038,-5.45723 0.0086,-8.18586 0.01109,-6.43812 0.01153,-12.87618 0.0055,-19.314306 -0.006,-6.63815 0.0063,-13.276088 0.02757,-19.914202 0.01762,-5.702885 0.02362,-11.405703 0.02036,-17.108615 -0.0018,-3.404501 8.16e-4,-6.80885 0.01472,-10.213327 0.01231,-3.79694 0.0056,-7.593389 -0.006,-11.390321 0.0076,-1.125881 0.01529,-2.251761 0.02316,-3.411759 -0.01052,-1.55405 -0.01052,-1.55405 -0.02126,-3.139496 2.52e-4,-1.34586 2.52e-4,-1.34586 5.08e-4,-2.718909 -0.463623,-3.123978 -1.495888,-5.001883 -3.37473,-7.525002 -5.514562,-1.838188 -11.686411,-1.879164 -17.125,0.1875 -2.693937,2.604139 -2.803077,5.063518 -2.954681,8.750152 -0.03274,2.340241 -0.03178,4.678924 -0.02579,7.019379 -0.01346,1.770194 -0.02848,3.540378 -0.04492,5.310547 -0.0228,2.771642 -0.03712,5.541997 -0.02466,8.313721 0.0089,2.688669 -0.02018,5.374823 -0.05542,8.063232 0.01223,0.817976 0.02446,1.635951 0.03706,2.478714 -0.118059,5.665182 -1.673512,8.906161 -5.1732482,13.339691 -1.6333466,1.537064 -1.6333466,1.537064 -5.1958466,2.724564 -3.953728,-0.215658 -5.5162237,-0.509664 -8.4374999,-3.1875 -3.5159083,-7.106197 -3.3729313,-13.620949 -3.2148438,-21.441407 0.016954,-1.281645 0.033908,-2.56329 0.051376,-3.883773 0.037828,-2.700735 0.087232,-5.400948 0.1446686,-8.101334 0.072093,-3.445006 0.1123983,-6.889541 0.1436854,-10.33513 0.035028,-3.310292 0.099144,-6.619849 0.1602697,-9.929763 0.01064,-1.229327 0.02128,-2.458655 0.032242,-3.725234 C -9.1667954,12.209027 -8.6651046,0.75293251 0,0 Z"
       fill="#fefafa"
       transform="translate(811.65234,37.769531)"
       id="path6" /><path
       d="M 0,0 C 1.0164258,-0.01224609 2.0328516,-0.02449219 3.0800781,-0.03710938 11.790589,-0.05397931 21.121696,0.5559484 27.667969,7.0195312 34.743538,14.882896 36.216908,21.476414 36.085937,32.019531 35.498228,38.828568 33.616971,45.024828 28.4375,49.6875 c -9.868286,7.291218 -19.6246847,7.8258 -31.5,7.75 -1.2349219,0.0077 -2.4698437,0.01547 -3.7421875,0.02344 -1.175625,-0.0026 -2.35125,-0.0052 -3.5625005,-0.0078 -1.06976,-0.0023 -2.139521,-0.0045 -3.241699,-0.0068 C -16.1875,57.1875 -16.1875,57.1875 -18.1875,55.1875 c -0.267426,-2.156479 -0.267426,-2.156479 -0.290527,-4.861084 -0.01276,-1.011224 -0.02552,-2.022448 -0.03867,-3.064316 -0.0022,-1.095829 -0.0045,-2.191658 -0.0067,-3.320694 -0.0067,-1.122053 -0.01331,-2.244107 -0.02017,-3.400161 -0.01014,-2.376444 -0.01482,-4.752915 -0.0145,-7.12938 -0.0044,-3.643623 -0.04068,-7.286035 -0.07861,-10.929443 -0.0059,-2.305335 -0.0098,-4.610675 -0.01172,-6.916016 -0.01437,-1.093805 -0.02874,-2.187609 -0.04355,-3.31456 0.0092,-1.521564 0.0092,-1.521564 0.01865,-3.0738675 -0.0028,-0.8933153 -0.0057,-1.7866305 -0.0086,-2.707016 C -18.1875,4.1875 -18.1875,4.1875 -16.344635,2.4380951 -11.134495,-0.582474 -5.8449186,0.00363716 0,0 Z"
       fill="#da2820"
       transform="translate(498.1875,56.8125)"
       id="path7" /><path
       d="M 0,0 C 0.33,0.66 0.66,1.32 1,2 -1.9806207,3.3548276 -4.4148273,4.0562478 -7.6875,4.5 -11.07132,4.6755544 -11.07132,4.6755544 -13,7 c -0.460063,2.2025099 -0.460063,2.2025099 -0.625,4.625 -0.07477,0.817266 -0.149531,1.634531 -0.226563,2.476563 C -13.900547,14.728047 -13.949531,15.354531 -14,16 -16.109203,12.184947 -16.405718,9.3817592 -16,5 -12.867166,2.9114439 -11.091328,2.5164688 -7.4375,1.9375 -3.5905357,1.366701 -3.5905357,1.366701 0,0 Z"
       fill="#e3655e"
       transform="translate(234,56)"
       id="path18" /><path
       d="M 0,0 C 0.66,0.33 1.32,0.66 2,1 -1.96,4.96 -5.92,8.92 -10,13 -10,8.4177146 -7.0838803,6.1816619 -4,3 -1.625,1.0625 -1.625,1.0625 0,0 Z"
       fill="#f7d6d5"
       transform="translate(715,44)"
       id="path20" /></g></svg>
