<?xml version="1.0" encoding="UTF-8" standalone="no"?>
<svg
   viewBox="0 0 24 24"
   width="24pt"
   height="24pt"
   version="1.1"
   id="svg1"
   sodipodi:docname="jackaroo.svg"
   xml:space="preserve"
   inkscape:version="1.4 (86a8ad7, 2024-10-11)"
   xmlns:inkscape="http://www.inkscape.org/namespaces/inkscape"
   xmlns:sodipodi="http://sodipodi.sourceforge.net/DTD/sodipodi-0.dtd"
   xmlns="http://www.w3.org/2000/svg"
   xmlns:svg="http://www.w3.org/2000/svg"><defs
     id="defs1" /><sodipodi:namedview
     id="namedview1"
     pagecolor="#ffffff"
     bordercolor="#000000"
     borderopacity="0.25"
     inkscape:showpageshadow="2"
     inkscape:pageopacity="0.0"
     inkscape:pagecheckerboard="0"
     inkscape:deskcolor="#d1d1d1"
     inkscape:document-units="pt"
     showgrid="false"
     inkscape:zoom="22.96875"
     inkscape:cx="9.6870748"
     inkscape:cy="15.651701"
     inkscape:window-width="1920"
     inkscape:window-height="974"
     inkscape:window-x="-11"
     inkscape:window-y="1609"
     inkscape:window-maximized="1"
     inkscape:current-layer="svg1" /><path
     d=" M 18.219 16.551 C 19.896 14.836 21.02 12.588 21.02 10.02 C 21.02 5.042 16.978 1 12 1 C 7.022 1 2.98 5.042 2.98 10.02 C 2.98 12.62 4.007 14.787 5.844 16.61 L 5.844 16.61 L 11.633 23 L 18.23 16.551 L 18.219 16.551 Z"
     fill="#FF69B4"
     id="path1"
     style="fill:#ffffff" /><g
     id="g1"
     transform="matrix(0.14527647,0,0,0.14527647,-5.7247962,51.49437)"><g
       id="g2"
       transform="matrix(2.6131654,0,0,2.6131654,-773.00575,-800.08018)"><path
         d="m 345.40965,180.7029 c 0.33334,0.25018 0.33334,0.25018 0.51076,0.42759 0.85686,-0.0635 1.15023,-0.0857 1.77413,-0.70966 1.5222,0 3.04441,0 4.61274,0 0,5.03499 0,10.06997 0,15.25753 -2.45895,0 -4.91789,0 -7.45136,0 -0.0182,-0.67328 -0.0366,-1.34656 -0.0555,-2.04025 -0.0426,-3.33579 -0.0426,-3.33579 -1.36387,-6.29816 -0.61939,-0.41293 -0.86794,-0.44408 -1.59671,-0.35484 -0.90483,0.5946 -1.08278,1.68219 -1.33579,2.67471 -0.11479,0.71294 -0.10967,1.41182 -0.1093,2.13282 -4e-4,0.1611 -9.5e-4,0.32219 -9.5e-4,0.48818 -9.6e-4,0.53213 -0.002,1.06425 -0.002,1.59638 -3.9e-4,0.37151 -9.5e-4,0.74302 -9.5e-4,1.11453 -9.6e-4,0.77923 -9.6e-4,1.55846 -9.6e-4,2.33771 3e-5,0.99396 -0.002,1.98794 -0.006,2.9819 -0.002,0.76789 -0.002,1.53578 -0.002,2.30367 -1.9e-4,0.36616 -9.6e-4,0.73231 -0.002,1.09847 -0.13396,3.63682 -0.13396,3.63682 1.28483,6.86757 0.19244,0.22917 0.19244,0.22917 0.65421,0.23286 0.73165,-0.0691 1.08205,-0.31159 1.65216,-0.76509 0.43,-0.64502 0.40052,-0.95585 0.40196,-1.72354 3.4e-4,-0.1157 7.4e-4,-0.2314 9.5e-4,-0.35061 1.8e-4,-0.24441 -3.5e-4,-0.48883 -0.002,-0.73323 -0.002,-0.37303 -2e-5,-0.7459 0.002,-1.11892 -1.7e-4,-0.23782 -7.4e-4,-0.47565 -9.5e-4,-0.71347 -4.2e-4,-0.32381 -4.2e-4,-0.32381 -9.6e-4,-0.65416 -0.0148,-0.60864 -0.0148,-0.60864 -0.40074,-1.27036 -0.52692,-0.17563 -1.05383,-0.35128 -1.59672,-0.53223 0,-1.87349 0,-3.74697 0,-5.67723 4.37872,-0.13119 8.74758,-0.19558 13.12857,-0.17741 0,1.99058 0,3.98115 0,6.03206 -0.40982,0.17563 -0.81965,0.35127 -1.24189,0.53223 -0.71366,0.76123 -0.73389,1.4797 -0.74608,2.49119 -9.5e-4,0.12639 -0.004,0.25279 -0.006,0.38302 -0.006,0.41757 -0.01,0.83514 -0.0143,1.25272 -0.004,0.2896 -0.008,0.57921 -0.0112,0.86883 -0.01,0.7621 -0.0186,1.52421 -0.0271,2.28635 -0.009,0.77773 -0.0188,1.55546 -0.0287,2.33319 -0.019,1.52591 -0.0371,3.05183 -0.0544,4.57774 -0.51034,0.024 -1.01954,0.0416 -1.53018,0.0555 -0.21509,0.0111 -0.21509,0.0111 -0.43453,0.0226 -0.76146,0.0155 -1.24037,-0.007 -1.83165,-0.51387 -0.15232,-0.14888 -0.30462,-0.29775 -0.46155,-0.45115 -1.03307,-0.34436 -1.83381,-0.21575 -2.78594,0.24671 -0.11251,0.0577 -0.22504,0.11526 -0.34097,0.17465 -0.43572,0.21523 -0.872,0.42927 -1.30842,0.64312 -0.2144,0.10562 -0.2144,0.10562 -0.43313,0.21344 -2.32454,0.72398 -5.30908,0.018 -7.45066,-0.97853 -0.87645,-0.48154 -1.65126,-1.06515 -2.40617,-1.71869 -0.12052,-0.10361 -0.24105,-0.20721 -0.36522,-0.31395 -2.6766,-2.47833 -3.96686,-6.30053 -4.45819,-9.82077 -0.0437,-0.29331 -0.0437,-0.29331 -0.0884,-0.59255 -0.97053,-6.62473 -0.80704,-14.27842 2.91589,-20.09549 0.2925,-0.39271 0.59906,-0.75221 0.93142,-1.1116 0.11594,-0.13196 0.23189,-0.26391 0.35135,-0.39987 2.80859,-3.02345 7.94685,-4.84348 11.73421,-2.51152 z"
         fill="#ed1c2e"
         id="path5"
         style="stroke-width:0.177413" /><path
         d="M 0,0 C 5.2106597,4.3580063 0,0 0,0 Z"
         fill="#030303"
         transform="translate(595,353)"
         id="path17"
         sodipodi:nodetypes="cc" /></g></g></svg>
