<?xml version="1.0" encoding="UTF-8" standalone="no"?>
<svg
   viewBox="0 0 26.28233 31.66716"
   width="26.28233pt"
   height="31.66716pt"
   version="1.1"
   id="svg4"
   xml:space="preserve"
   sodipodi:docname="pizzapizza.svg"
   inkscape:version="1.4 (86a8ad7, 2024-10-11)"
   xmlns:inkscape="http://www.inkscape.org/namespaces/inkscape"
   xmlns:sodipodi="http://sodipodi.sourceforge.net/DTD/sodipodi-0.dtd"
   xmlns="http://www.w3.org/2000/svg"
   xmlns:svg="http://www.w3.org/2000/svg"><sodipodi:namedview
     id="namedview1"
     pagecolor="#505050"
     bordercolor="#eeeeee"
     borderopacity="1"
     inkscape:showpageshadow="0"
     inkscape:pageopacity="0"
     inkscape:pagecheckerboard="0"
     inkscape:deskcolor="#505050"
     inkscape:document-units="pt"
     inkscape:zoom="8"
     inkscape:cx="-30.5625"
     inkscape:cy="2"
     inkscape:window-width="1920"
     inkscape:window-height="991"
     inkscape:window-x="-9"
     inkscape:window-y="-9"
     inkscape:window-maximized="1"
     inkscape:current-layer="svg4" /><defs
     id="defs8" /><path
     style="fill:#fa7e29;fill-opacity:1;fill-rule:evenodd;stroke-width:0.0641546"
     d="M 11.092722,30.060584 C 6.836977,25.454174 3.5530008,21.852534 2.9127749,21.089381 1.5535344,19.469155 0.57586453,17.442163 0.19601499,15.456755 -0.07164535,14.057734 -0.07141167,11.842745 0.19654184,10.475309 0.72962421,7.7548474 2.2751433,5.1050234 4.4124859,3.2469849 6.0036204,1.8637753 7.9995168,0.83021047 10.04409,0.33068436 c 1.876346,-0.45842407 4.297881,-0.46669683 6.094684,-0.0208253 2.499554,0.62026394 4.986557,2.04957264 6.625919,3.80798634 3.683598,3.9511088 4.565659,9.6359926 2.230144,14.3732696 -0.491571,0.997086 -1.119276,1.960837 -1.817638,2.790724 -0.684202,0.813059 -5.646302,5.69567 -10.286124,10.121347 l -0.29659,0.282901 z"
     id="path6" /><path
     d="M 3.7572776,6.4956492 C 2.3609915,6.8273574 2.1326003,7.381549 2.1326003,10.43796 c 0,2.524699 0.078675,2.834361 0.7204773,2.834361 0.6340205,0 0.7204771,-0.3209 0.7204771,-2.675999 0,-2.0311721 0.024929,-2.2481795 0.2881913,-2.5114424 0.6413701,-0.6413693 1.873242,-0.1170058 1.873242,0.7974253 0,0.6835892 -0.4556303,1.0758179 -1.2497404,1.0758179 H 3.866357 l 0.040496,0.6039042 c 0.035597,0.532577 0.090494,0.617305 0.466006,0.718892 0.9701957,0.262542 2.0971669,-0.281562 2.5146122,-1.214005 l 0.2711873,-0.6056328 0.044678,0.7840238 c 0.0386,0.678978 0.096684,0.813131 0.4331507,1.00132 0.3603825,0.20159 0.4125465,0.194817 0.7204774,-0.09294 0.2953962,-0.276231 0.3628333,-0.287614 0.6116857,-0.104474 0.2051932,0.150869 0.7333039,0.205769 1.9813147,0.205769 1.443981,0 1.701625,-0.03401 1.701625,-0.224357 0,-0.20303 0.0304,-0.20303 0.320326,0 0.245825,0.172195 0.714426,0.224357 2.017336,0.224357 h 1.697015 v -0.581138 -0.581281 l 0.502172,0.502317 c 0.534451,0.534306 1.096279,0.710392 2.025839,0.634597 0.559091,-0.04567 0.570909,-0.05821 0.614282,-0.658949 l 0.04438,-0.6124058 h -0.591224 c -1.014432,0 -1.663295,-1.0312926 -1.118035,-1.7769876 0.270465,-0.3697489 1.176683,-0.4724891 1.617903,-0.1834333 0.343235,0.2249334 0.362978,0.3082205 0.362978,1.5281333 0,1.2227954 0.01918,1.3027694 0.366145,1.5301514 0.293235,0.19208 0.436756,0.207785 0.720479,0.07838 0.343957,-0.156633 0.354332,-0.206057 0.354332,-1.6912502 0,-1.7586866 -0.179111,-2.2272849 -1.015441,-2.656834 -1.209394,-0.6210519 -2.308409,-0.5373324 -3.170535,0.2415045 -0.661685,0.5978528 -0.917311,1.3514723 -0.776674,2.289679 l 0.09611,0.6406486 h -0.97812 -0.978121 l 0.28228,-0.3242145 c 0.155189,-0.1782459 0.587909,-0.6618312 0.961693,-1.0745205 0.53128,-0.5866133 0.679556,-0.8578008 0.679556,-1.2432568 0,-0.7281149 -0.242803,-0.8448322 -1.761283,-0.8474263 -2.154948,-0.00345 -1.985204,-0.061528 -1.985204,0.6795549 v 0.6484304 h 0.876532 c 0.482145,0 0.855064,0.057495 0.828552,0.1278126 -0.02637,0.070321 -0.469465,0.572924 -0.984606,1.1167409 l -0.936622,0.9889284 -0.900597,-0.042938 c -0.495257,-0.023483 -0.90031,-0.088332 -0.900167,-0.1440963 2.88e-4,-0.055627 0.389347,-0.5504442 0.864574,-1.0994492 0.60477,-0.6985754 0.864141,-1.1173165 0.864141,-1.3947006 0,-0.5003004 -0.340497,-0.8474262 -0.83878,-0.8549192 C 10.558309,6.4750412 9.2408437,6.4702857 9.0852206,6.4839699 8.9702333,6.4940622 8.905101,6.7339764 8.905101,7.1482505 v 0.6484308 h 0.8645735 c 0.4755155,0 0.8645735,0.038621 0.8645735,0.085592 0,0.047122 -0.358941,0.4593768 -0.7977133,0.91616 C 9.3979083,9.255222 8.9460245,9.7516312 8.8324773,9.901491 8.6494759,10.143427 8.6255563,9.9859347 8.6215222,8.5099592 8.6166094,6.7194271 8.5373731,6.4998256 7.8964323,6.4998256 c -0.5454023,0 -0.7190385,0.2546169 -0.7322946,1.0735119 L 7.1524874,8.3010197 6.955361,7.8517295 C 6.6990132,7.2671338 6.0075004,6.6932009 5.3342855,6.5061648 4.7306694,6.3384379 4.4272037,6.3364204 3.7573029,6.4956514 m 3.0107335,5.4704446 c -0.6334437,0.160811 -1.2885036,0.805495 -1.4654524,1.44211 -0.07824,0.281849 -0.1426548,1.468909 -0.1430871,2.637957 -7.313e-4,1.933907 0.02507,2.151347 0.2873265,2.4136 0.3269531,0.326954 0.4781084,0.350873 0.8740833,0.139061 0.2564897,-0.13732 0.2786829,-0.32119 0.2786829,-2.315039 0,-2.600352 0.1386248,-3.004106 1.0328772,-3.009294 0.5840184,-0.0032 0.8297014,0.135453 1.0732227,0.606499 0.1827135,0.353465 0.1910709,0.504623 0.04698,0.852612 -0.213549,0.515574 -0.5317125,0.700162 -1.2069459,0.700162 H 7.0318757 v 0.664713 0.664712 l 1.0037696,-0.05678 c 0.8745173,-0.04944 1.0609758,-0.111397 1.4462886,-0.48056 0.2433767,-0.233146 0.4795503,-0.571626 0.5247951,-0.752035 0.140638,-0.560387 0.339346,-0.361104 0.339346,0.340356 0,0.987485 0.569754,1.355361 1.169769,0.755348 0.245682,-0.245685 0.328825,-0.266721 0.42681,-0.108077 0.08964,0.145393 0.595836,0.209659 1.928287,0.244963 1.580297,0.04179 1.818198,0.01758 1.898748,-0.192224 0.07336,-0.190926 0.116434,-0.200725 0.210669,-0.04784 0.08631,0.140057 0.627966,0.205047 1.997309,0.239632 l 1.878716,0.04755 V 16.22671 15.699753 l 0.423642,0.423641 c 0.624943,0.624942 1.860562,0.804486 2.661446,0.386753 0.389058,-0.202887 0.441795,-0.197701 0.729844,0.07292 0.384735,0.361535 0.680562,0.369893 0.989936,0.0281 0.18747,-0.207065 0.238478,-0.562982 0.238478,-1.664161 0,-1.603494 -0.152885,-2.023246 -0.961262,-2.639829 -0.47321,-0.36096 -0.646123,-0.403756 -1.632459,-0.403756 -0.975816,0 -1.161842,0.04482 -1.611998,0.388193 -0.690073,0.526236 -0.981721,1.198732 -0.981721,2.263308 v 0.878831 h -0.864573 c -0.475516,0 -0.864141,-0.04871 -0.863711,-0.108076 4.42e-4,-0.05938 0.275943,-0.399865 0.612407,-0.756645 1.34715,-1.428564 1.526116,-1.875693 0.956796,-2.391122 -0.25995,-0.235459 -0.532002,-0.274508 -1.909267,-0.274508 h -1.60609 v 0.64843 0.648429 l 0.83806,0.04351 c 0.460963,0.02392 0.817596,0.09727 0.792524,0.16297 -0.02507,0.06571 -0.448568,0.548572 -0.94123,1.073224 l -0.8957,0.953771 h -0.953479 c -0.524508,0 -0.93201,-0.05979 -0.905498,-0.132997 0.02637,-0.0732 0.309518,-0.413699 0.629268,-0.756502 1.255215,-1.346429 1.459829,-1.874684 0.916735,-2.366337 -0.259949,-0.235455 -0.532001,-0.274503 -1.909267,-0.274503 h -1.606089 v 0.648429 0.648431 l 0.888781,0.07205 0.888639,0.07205 -0.99671,1.043828 -0.996853,1.043686 v -1.449458 c 0,-1.880303 -0.240496,-2.326423 -1.082015,-2.006532 -0.309517,0.117725 -0.358942,0.226231 -0.358942,0.788491 0,0.758807 -0.127241,0.819184 -0.4773878,0.226662 -0.5429519,-0.919339 -1.834482,-1.346292 -3.1006493,-1.024959 m 15.4755771,1.116884 c -0.04379,0.114117 -0.144959,0.167295 -0.224788,0.117879 -0.08602,-0.05316 -0.145105,0.101445 -0.145105,0.37998 0,0.337472 -0.04395,0.425659 -0.1562,0.313408 -0.236029,-0.236029 -0.686183,-0.05691 -0.737913,0.29338 -0.05388,0.36413 0.644827,1.102042 1.043397,1.102042 0.158071,0 0.287903,0.129248 0.325365,0.324214 l 0.06254,0.324217 0.01959,-0.324217 c 0.01319,-0.218592 0.111096,-0.324214 0.300296,-0.324214 0.396551,0 1.063715,-0.662407 1.081725,-1.073799 0.01685,-0.387619 -0.499579,-0.588776 -0.795407,-0.309662 -0.126806,0.119464 -0.153461,0.04958 -0.108203,-0.283725 0.04755,-0.350152 -0.0074,-0.474219 -0.262831,-0.594827 -0.251013,-0.118439 -0.340497,-0.10619 -0.402457,0.05532"
     stroke="none"
     fill="#faf4e9"
     fill-rule="evenodd"
     id="path1-7"
     style="stroke-width:0.144097" /></svg>
