<?xml version="1.0" encoding="UTF-8" standalone="no"?>
<svg
   viewBox="0 0 25.384331 30.575188"
   width="25.384331pt"
   height="30.575188pt"
   version="1.1"
   id="svg133"
   sodipodi:docname="pink_master_pin_2_layers_foreground.svg"
   xml:space="preserve"
   xmlns:inkscape="http://www.inkscape.org/namespaces/inkscape"
   xmlns:sodipodi="http://sodipodi.sourceforge.net/DTD/sodipodi-0.dtd"
   xmlns="http://www.w3.org/2000/svg"
   xmlns:svg="http://www.w3.org/2000/svg"><sodipodi:namedview
     id="namedview1"
     pagecolor="#ffffff"
     bordercolor="#000000"
     borderopacity="0.25"
     inkscape:showpageshadow="2"
     inkscape:pageopacity="0.0"
     inkscape:pagecheckerboard="0"
     inkscape:deskcolor="#d1d1d1"
     inkscape:document-units="pt"><inkscape:page
       x="0"
       y="0"
       width="25.384331"
       height="30.575188"
       id="page2"
       margin="0"
       bleed="0" /></sodipodi:namedview><defs
     id="defs137" /><path
     style="fill:#ffffff;fill-opacity:1;stroke-width:3.8402"
     id="path2106"
     d="M 22.679787,12.35478 A 10.000001,10.000002 0 0 1 12.699319,22.354761 10.000001,10.000002 0 0 1 2.6798636,12.393848 10.000001,10.000002 0 0 1 12.621185,2.354951 10.000001,10.000002 0 0 1 22.679482,12.276645" /><g
     id="g2"
     transform="matrix(0.06181071,0,0,0.12538813,3.6011093,5.8349222)"><path
       d="m 0,0 c 6.625,0.75 6.625,0.75 10,3 4.161919,1.6647674 7.525217,2.2130849 12,2 0.495,0.99 0.495,0.99 1,2 5.483938,2.0366244 11.125868,3.476281 17,3 -0.0651,2.018229 -0.130208,4.036458 -0.195313,6.054687 0.012,2.183949 0.012,2.183949 2.195313,3.945313 2.662428,0.462902 2.662428,0.462902 5.625,0.625 1.504336,0.112148 1.504336,0.112148 3.039062,0.226562 C 51.434922,20.900547 52.205781,20.949531 53,21 c 0.02506,0.857549 0.05011,1.715098 0.07593,2.598633 0.09531,3.190711 0.19453,6.381269 0.296386,9.571777 0.04323,1.379184 0.08491,2.758417 0.125,4.137695 0.05799,1.985964 0.122063,3.971748 0.18628,5.95752 0.03666,1.193994 0.07332,2.387988 0.111084,3.618164 C 53.96209,49.424633 54.263179,51.577142 55,54 c -1.258125,0.02063 -2.51625,0.04125 -3.8125,0.0625 -0.707695,0.0116 -1.415391,0.0232 -2.144531,0.03516 C 47,54 47,54 44,53 c -0.825,0.33 -1.65,0.66 -2.5,1 -4.28033,1.222952 -7.63599,0.80955 -12.011719,0.289062 C 26.920843,53.942303 26.920843,53.942303 24,54 23.731875,53.4225 23.46375,52.845 23.1875,52.25 22.054758,49.95659 22.054758,49.95659 20.4375,47.9375 17.001489,43.306355 17.313151,37.502098 18,32 c 1.334151,-3.251409 3.004035,-6.112979 5,-9 -3.093546,-0.994354 -4.902792,-0.87841 -8,0 0.01571,1.130186 0.03142,2.260371 0.04761,3.424805 0.05434,4.196867 0.08876,8.393704 0.117188,12.59082 0.01508,1.815808 0.03554,3.63158 0.06152,5.447266 0.03643,2.611419 0.05342,5.222357 0.06665,7.833984 0.01548,0.810558 0.03097,1.621117 0.04692,2.456238 9.98e-4,3.351852 -0.0729,5.771376 -1.733201,8.728332 C 12,65 12,65 10,66 6.04,65.67 2.08,65.34 -2,65 -2,52.46 -2,39.92 -2,27 -5.7010234,25.766326 -8.7641819,26.062473 -12.625,26.257812 -15,26 -15,26 -16.707031,24.660156 -19.972447,20.467402 -21.672669,16.432382 -21.496094,11.03125 -20.561224,7.2034377 -17.877129,4.5715268 -15,2 -12.115841,0.55792059 -9.5827847,0.90605113 -6.375,0.9375 -5.1864844,0.946523 -3.9979688,0.9555469 -2.7734375,0.9648438 -1.8582031,0.97644531 -0.94296875,0.98804687 0,1 0,0.67 0,0.34 0,0 Z m 28,18 c 4,1 4,1 4,1 z m 4,1 c 0,0.33 0,0.66 0,1 1.65,0 3.3,0 5,0 0,-0.33 0,-0.66 0,-1 -1.65,0 -3.3,0 -5,0 z m -12,1 c 4,1 4,1 4,1 z m 8,0 c 4,1 4,1 4,1 z m 11,13 c 0,2.31 0,4.62 0,7 0.33,0 0.66,0 1,0 0,-2.31 0,-4.62 0,-7 -0.33,0 -0.66,0 -1,0 z m -8,0 c 0,2.97 0,5.94 0,9 2.31,-0.66 4.62,-1.32 7,-2 0,-1.98 0,-3.96 0,-6 -0.78375,0.02063 -1.5675,0.04125 -2.375,0.0625 C 33,34 33,34 31,33 Z"
       fill="#e80141"
       transform="translate(24,20)"
       id="path1-8" /><path
       d="M 0,0 C 2.875,1.4375 2.875,1.4375 5,3 6.11375,3.2475 6.11375,3.2475 7.25,3.5 7.8275,3.665 8.405,3.83 9,4 9.33,4.99 9.66,5.98 10,7 10.33,5.68 10.66,4.36 11,3 16.445,2.01 16.445,2.01 22,1 22.66,2.32 23.32,3.64 24,5 26.055902,4.1583882 26.055902,4.1583882 27.125,2.5 30.11725,0.10620007 33.228617,0.30912972 37,0 c 0,0.66 0,1.32 0,2 2.31,0.33 4.62,0.66 7,1 0.12375,0.556875 0.2475,1.11375 0.375,1.6875 0.570372,2.3515028 0.570372,2.3515028 1.651855,4.5983887 1.078114,3.0068703 1.202523,5.2672243 1.168457,8.4523923 -0.0064,1.066699 -0.01289,2.133399 -0.01953,3.232422 -0.02514,1.65419 -0.02514,1.65419 -0.05078,3.341797 -0.009,1.122129 -0.01805,2.244258 -0.02734,3.400391 C 47.074145,30.475479 47.041282,33.237629 47,36 46.373516,35.9884 45.747031,35.9768 45.101562,35.96484 43.875664,35.95131 43.875664,35.95131 42.625,35.9375 41.406836,35.9201 41.406836,35.9201 40.164062,35.90234 37.950629,35.855337 37.950629,35.855337 36,37 33.650791,32.311132 33.569541,27.822565 33.375,22.6875 33.316992,21.433564 33.316992,21.433564 33.257812,20.154297 33.164048,18.103207 33.080958,16.051635 33,14 c -0.66,0.99 -1.32,1.98 -2,3 -0.99,-0.66 -1.98,-1.32 -3,-2 -0.03758,0.900934 -0.03758,0.900934 -0.07593,1.820068 -0.115625,2.706046 -0.238501,5.411715 -0.361572,8.117432 -0.03932,0.945527 -0.07863,1.891055 -0.119141,2.865234 -0.06284,1.348682 -0.06284,1.348682 -0.126953,2.72461 -0.03666,0.832654 -0.07332,1.665307 -0.111084,2.523193 C 27,35 27,35 26,36 c -1.997996,0.09874 -3.999572,0.129718 -6,0.125 -1.093125,0.0026 -2.18625,0.0052 -3.3125,0.0078 C 14,36 14,36 13,35 12.545401,32.345369 12.297568,29.678109 12,27 9.3240313,30.895406 9.3240313,30.895406 7,35 2.0055272,36.011619 -2.8549767,36.107478 -7.9375,36.0625 -8.6213477,36.058 -9.3051953,36.0535 -10.009766,36.04883 -11.673216,36.037196 -13.336621,36.019267 -15,36 c -0.33,-0.66 -0.66,-1.32 -1,-2 -0.66,-0.33 -1.32,-0.66 -2,-1 -5.102271,-6.452872 -4.62656,-13.041756 -4,-21 0.51931,-3.4411388 1.331052,-6.0983744 3.4375,-8.9375 C -17,2 -17,2 -14,2 -13.069941,1.514668 -13.069941,1.514668 -12.121094,1.0195312 -8.2904442,-0.82172018 -4.1543799,-0.45934607 0,0 Z m -9,1 c 0,0.33 0,0.66 0,1 2.64,0 5.28,0 8,0 0,-0.33 0,-0.66 0,-1 -2.64,0 -5.28,0 -8,0 z m -11,6 c 1,2 1,2 1,2 z m 31,0 c 1,2 1,2 1,2 z m 1,2 c -1.223291,3.669872 -0.88021,6.339678 -0.5625,10.1875 0.101836,1.272305 0.203672,2.544609 0.308594,3.855469 C 11.829883,24.018789 11.913672,24.994609 12,26 c 0.33,0 0.66,0 1,0 0,-5.61 0,-11.22 0,-17 -0.33,0 -0.66,0 -1,0 z m -21,6 c 0,2.64 0,5.28 0,8 0.33,0 0.66,0 1,0 0,-2.64 0,-5.28 0,-8 -0.33,0 -0.66,0 -1,0 z m 2,1 c 0,2.31 0,4.62 0,7 1.6561466,0.382188 3.3245702,0.713951 5,1 1.20561184,-0.982679 1.20561184,-0.982679 1.09765625,-2.847656 C -0.91394531,20.421445 -0.92554688,19.690547 -0.9375,18.9375 -0.958125,17.638125 -0.97875,16.33875 -1,15 c -0.99,0 -1.98,0 -3,0 -1.2236068,-0.07454 -1.2236068,-0.07454 -3,1 z"
       fill="#ea0141"
       transform="translate(213,38)"
       id="path2-2" /><path
       d="m 0,0 c 1.5,2.375 1.5,2.375 2,5 -1.0625,2.25 -1.0625,2.25 -3,4 -2.6875,0.75 -2.6875,0.75 -5,1 0.495,0.721875 0.99,1.44375 1.5,2.1875 2.5951097,5.177862 2.0437798,11.195827 1.5,16.8125 -1.375,3.5625 -1.375,3.5625 -3,6 -0.391875,0.78375 -0.78375,1.5675 -1.1875,2.375 C -7.455625,37.91125 -7.72375,38.4475 -8,39 c -1.98,0 -3.96,0 -6,0 0.675469,0.08637 1.350938,0.172734 2.046875,0.261719 7.2084284,1.135431 7.2084284,1.135431 10.578125,3.863281 2.11311595,4.418333 2.04301855,8.244035 0.8671875,12.875 -1.070018,2.951774 -1.9096232,4.695993 -4.7331543,6.169434 -3.0046225,0.904497 -5.5819102,1.148193 -8.7160642,1.244628 -1.111817,0.03867 -2.223633,0.07734 -3.369141,0.117188 -1.150488,0.03094 -2.300976,0.06188 -3.486328,0.09375 -1.169824,0.03867 -2.339648,0.07734 -3.544922,0.117187 C -27.238126,63.836251 -30.118827,63.921899 -33,64 -33.474375,63.195625 -33.94875,62.39125 -34.4375,61.5625 -35.769002,59.152465 -35.769002,59.152465 -37,58 c -0.472906,-7.211823 -0.472906,-7.211823 1.5,-10.5 0.495,-0.495 0.99,-0.99 1.5,-1.5 -0.33,-0.33 -0.66,-0.66 -1,-1 -0.235294,-7.294118 -0.235294,-7.294118 1,-11 -0.466641,-0.569766 -0.933281,-1.139531 -1.414062,-1.726563 C -37.669854,29.039767 -37.39837,26.527791 -37.375,22.625 -37.3827,21.338516 -37.39047,20.052031 -37.39844,18.726562 -36.847012,13.569113 -34.835759,10.253639 -32,6 c 1.9375,-0.5625 1.9375,-0.5625 4,-1 0.99,-0.66 1.98,-1.32 3,-2 3.050724,-0.060071 6.045089,0.131666 9.089844,0.3203125 C -12.268652,2.9195026 -11.323343,1.7296678 -9,-1 c 3.4752776,-1.5694802 5.7525789,-0.8800859 9,1 z m -24,4 c 0,0.33 0,0.66 0,1 2.64,0 5.28,0 8,0 0,-0.33 0,-0.66 0,-1 -2.64,0 -5.28,0 -8,0 z m 6,13 c 0,0.66 0,1.32 0,2 -0.99,-0.33 -1.98,-0.66 -3,-1 -0.99,0 -1.98,0 -3,0 0,2.64 0,5.28 0,8 2.484116,1.242058 4.251991,1.140924 7,1 1.392878,-1.170363 1.392878,-1.170363 1.1875,-4.4375 C -15.604351,18.949673 -15.604351,18.949673 -18,17 Z m -4,33 c -0.33,0.66 -0.66,1.32 -1,2 2.916522,0.166811 2.916522,0.166811 6,0 0.66,-0.66 1.32,-1.32 2,-2 -2.31,0 -4.62,0 -7,0 z m -3,1 c 1,2 1,2 1,2 z m 1,2 c 0,0.33 0,0.66 0,1 2.64,0 5.28,0 8,0 0,-0.33 0,-0.66 0,-1 -2.64,0 -5.28,0 -8,0 z"
       fill="#eb0143"
       transform="translate(193,35)"
       id="path3-4" /><path
       d="m 0,0 c 2.97,0 5.94,0 9,0 0.66,0.99 1.32,1.98 2,3 0.33,-0.99 0.66,-1.98 1,-3 7.75,-0.125 7.75,-0.125 10,1 0.33,0.66 0.66,1.32 1,2 0,-0.66 0,-1.32 0,-2 8.38633,-1.08210708 16.395881,-1.29269912 24.820312,-0.4921875 1.462039,0.13752686 1.462039,0.13752686 2.953614,0.27783203 C 51.875833,0.89175049 51.875833,0.89175049 53,1 c 0.02506,0.8680225 0.05011,1.7360449 0.07593,2.6303711 0.09507,3.2167605 0.194304,6.4333569 0.296386,9.6499019 0.04334,1.392853 0.08502,2.785758 0.125,4.178711 0.05771,2.000783 0.121905,4.001375 0.18628,6.001953 0.05499,1.806702 0.05499,1.806702 0.111084,3.649903 C 53.81053,29.939964 53.81053,29.939964 55,32 c 0.04022,2.332987 0.0432,4.667067 0,7 -0.33,-0.99 -0.66,-1.98 -1,-3 -1.0725,0.04125 -2.145,0.0825 -3.25,0.125 C 47.143658,36.004789 46.046026,35.523013 43,34 42.269102,34.161133 41.538203,34.322266 40.785156,34.488281 34.371984,35.666578 27.346639,33.782213 21.25,31.75 19,30 19,30 18.125,27.4375 17.987064,23.644261 17.971748,19.868796 18.0625,16.074219 18.237461,14.008965 18.237461,14.008965 17,13 16.67,14.32 16.34,15.64 16,17 15.34,16.67 14.68,16.34 14,16 13.67,21.94 13.34,27.88 13,34 8.71,34 4.42,34 0,34 0,22.78 0,11.56 0,0 Z m 39,13 c 0,2.31 0,4.62 0,7 0.33,0 0.66,0 1,0 0,-2.31 0,-4.62 0,-7 -0.33,0 -0.66,0 -1,0 z m -8,0 c -0.684934,2.85778 -0.684934,2.85778 -1,6 0.99,1.485 0.99,1.485 2,3 1.65,-0.33 3.3,-0.66 5,-1 0,-2.31 0,-4.62 0,-7 -2.97,-0.495 -2.97,-0.495 -6,-1 z m 7,7 c 1,2 1,2 1,2 z m 4,10 c -0.33,0.66 -0.66,1.32 -1,2 0.66,0 1.32,0 2,0 -0.33,-0.66 -0.66,-1.32 -1,-2 z"
       fill="#ea0142"
       transform="translate(102,40)"
       id="path4-5" /><path
       d="M 0,0 C 1.5140039,0.01740234 1.5140039,0.01740234 3.0585938,0.03515625 4.0705078,0.04417969 5.0824219,0.05320313 6.125,0.0625 c 0.7824609,0.01160156 1.5649219,0.02320313 2.3710938,0.03515625 0.025056,0.88260498 0.050112,1.76520995 0.075928,2.67456055 0.095408,3.2895056 0.1946242,6.5788513 0.2963867,9.8681642 0.043184,1.420853 0.08487,2.841753 0.125,4.262695 0.058107,2.048075 0.1216819,4.09592 0.1862793,6.143799 0.054987,1.845978 0.054987,1.845978 0.111084,3.729248 0.1780165,2.879803 0.5514133,5.517404 1.2053222,8.321533 -1.5830664,0.169183 -3.1664671,0.33524 -4.75,0.5 -0.8817187,0.09281 -1.7634374,0.185625 -2.6718749,0.28125 -3.58127723,0.303866 -7.1071958,0.216988 -10.6875,0 -0.7541016,-0.04512 -1.5082032,-0.09023 -2.2851563,-0.136719 -0.7773048,-0.0477 -1.5546098,-0.09539 -2.3554688,-0.144531 -0.792774,-0.04769 -1.585547,-0.09539 -2.402344,-0.144531 -1.949283,-0.117427 -3.898479,-0.236305 -5.847656,-0.355469 -0.268125,-0.556875 -0.53625,-1.11375 -0.8125,-1.6875 -1.151054,-2.372041 -1.151054,-2.372041 -2.792969,-4.597656 -1.817047,-3.537388 -1.758868,-6.192841 -1.707031,-10.152344 0.0039,-1.277461 0.0077,-2.554922 0.01172,-3.871093 0.293277,-3.59932 0.854917,-6.3886981 2.300781,-9.6914068 2.5625,-1.2499999 2.5625,-1.2499999 5,-1.9999999 0.33,-0.6600001 0.66,-1.3200001 1,-2.0000001 0.999023,0.011602 1.998047,0.023203 3.027343,0.035156 1.290352,0.00902 2.580704,0.018047 3.910157,0.027344 1.9316602,0.017402 1.9316602,0.017402 3.9023438,0.035156 C -3.2402164,1.0895076 -3.190754,0.12444438 0,0 Z m -9.5039063,13.097656 c 1.32,0.33 2.64,0.66 4.0000001,1 0,2.64 0,5.28 0,8 0.33,0 0.66,0 1,0 0,-2.97 0,-5.94 0,-9 -1.6500001,0 -3.3,0 -5.0000001,0 z m -2.9999997,1 c -1.415775,1.184244 -1.415775,1.184244 -1.0625,4.5625 0.02063,1.134375 0.04125,2.26875 0.0625,3.4375 2.666642,1.333321 4.1668028,0.671021 6.9999998,0 0,-2.31 0,-4.62 0,-7 -1.9914057,-0.381333 -3.9927908,-0.713256 -5.9999998,-1 z"
       fill="#ea0142"
       transform="translate(286.50391,38.902344)"
       id="path5-5" /><path
       d="m 0,0 c 0.78375,0.04125 1.5675,0.0825 2.375,0.125 1.1687481,3.5062443 1.1251427,6.6477866 1.0976563,10.292969 -0.00142,0.706028 -0.00283,1.412057 -0.00429,2.13948 -0.00559,2.251727 -0.018142,4.503354 -0.030868,6.755051 -0.00502,1.527993 -0.00958,3.055988 -0.013672,4.583984 -0.011017,3.742877 -0.028275,7.48568 -0.048828,11.228516 -0.33,0 -0.66,0 -1,0 0,-5.94 0,-11.88 0,-18 -1.32,-0.66 -2.64,-1.32 -4,-2 -0.66,6.6 -1.32,13.2 -2,20 -0.33,0 -0.66,0 -1,0 0,-5.28 0,-10.56 0,-16 -0.33,5.61 -0.66,11.22 -1,17 -9.2773443,0.09766 -9.2773443,0.09766 -12.0000003,0 -1,-1 -1,-1 -1.113525,-4.051025 1.59e-4,-1.348888 0.0058,-2.697781 0.01587,-4.046631 0.0014,-0.708859 0.0028,-1.417717 0.0043,-2.148056 0.0056,-2.272305 0.01817,-4.544513 0.03087,-6.816788 0.005,-1.537108 0.0096,-3.074217 0.01367,-4.611328 0.01105,-3.775428 0.02832,-7.5507837 0.04883,-11.326172 3.442366,-0.7681313 5.616328,-1.050105 9.0000003,0 2.2108185,0.1054093 2.2108185,0.1054093 5,-1 2,-2 2,-2 4.625,-2.125 z"
       fill="#e80243"
       transform="translate(97.625,37.875)"
       id="path6-1" /><path
       d="M 0,0 C 0.33,0 0.66,0 1,0 1,5.61 1,11.22 1,17 0.67,17 0.34,17 0,17 0,11.39 0,5.78 0,0 Z"
       fill="#f70363"
       transform="translate(116,56)"
       id="path10-5" /><path
       d="M 0,0 C 0.66,0.33 1.32,0.66 2,1 1.1875,3.4375 1.1875,3.4375 0,6 -0.99,6.33 -1.98,6.66 -3,7 -1.125,1.125 -1.125,1.125 0,0 Z"
       fill="#e4043b"
       transform="translate(161,41)"
       id="path11-2" /><path
       d="m 0,0 c 5.28,0 10.56,0 16,0 0,0.33 0,0.66 0,1 C 10.72,1 5.44,1 0,1 0,0.67 0,0.34 0,0 Z"
       fill="#cc1043"
       transform="translate(164,99)"
       id="path12-7" /><path
       d="M 0,0 C 0.33,0 0.66,0 1,0 1,1.98 1,3.96 1,6 0.67,6 0.34,6 0,6 0,4.02 0,2.04 0,0 Z"
       fill="#f5002f"
       transform="translate(274,55)"
       id="path37-3" /><path
       d="M 0,0 C 0.99,1.485 0.99,1.485 2,3 1.01,3.495 1.01,3.495 0,4 0,2.68 0,1.36 0,0 Z"
       fill="#e50232"
       transform="translate(156,66)"
       id="path41-1" /><path
       d="M 0,0 C 0.33,0 0.66,0 1,0 1,1.65 1,3.3 1,5 0.67,5 0.34,5 0,5 0,3.35 0,1.7 0,0 Z"
       fill="#fe0044"
       transform="translate(118,59)"
       id="path42-3" /><path
       d="M 0,0 C 1.32,0.33 2.64,0.66 4,1 3.01,1.33 2.02,1.66 1,2 0.67,1.34 0.34,0.68 0,0 Z"
       fill="#f00146"
       transform="translate(187,45)"
       id="path43-8" /><path
       d="M 0,0 C 1,4 1,4 1,4 Z"
       fill="#be0626"
       transform="translate(40,77)"
       id="path45-4" /><path
       d="M 0,0 C 0.99,0.495 0.99,0.495 2,1 1.34,1.66 0.68,2.32 0,3 0,2.01 0,1.02 0,0 Z"
       fill="#f20433"
       transform="translate(260,47)"
       id="path46-2" /><path
       d="M 0,0 C 4,1 4,1 4,1 Z"
       fill="#800618"
       transform="translate(103,38)"
       id="path47-7" /><path
       d="M 0,0 C 4,1 4,1 4,1 Z"
       fill="#891b1a"
       transform="translate(80,38)"
       id="path48-7" /><path
       d="M 0,0 C 3,1 3,1 3,1 Z"
       fill="#d80627"
       transform="translate(182,98)"
       id="path49-9" /><path
       d=""
       fill="#b91452"
       id="path50-3" /><path
       d=""
       fill="#a11420"
       id="path51-1" /><path
       d="M 0,0 C 3,1 3,1 3,1 Z"
       fill="#d6053c"
       transform="translate(271,39)"
       id="path53-8" /><path
       d="M 0,0 C 3,1 3,1 3,1 Z"
       fill="#db0427"
       transform="translate(250,39)"
       id="path54-6" /><path
       d="M 0,0 C 3,1 3,1 3,1 Z"
       fill="#da074c"
       transform="translate(224,39)"
       id="path55-5" /><path
       d="M 0,0 C 3,1 3,1 3,1 Z"
       fill="#d70334"
       transform="translate(139,39)"
       id="path56-0" /><path
       d=""
       fill="#af0433"
       id="path57-2" /><path
       d="M 0,0 C 3,1 3,1 3,1 Z"
       fill="#b10033"
       transform="translate(184,32)"
       id="path58-8" /><path
       d="M 0,0 C 3,1 3,1 3,1 Z"
       fill="#d60f33"
       transform="translate(54,28)"
       id="path59-6" /><path
       d="M 0,0 C 3,1 3,1 3,1 Z"
       fill="#df0938"
       transform="translate(51,27)"
       id="path60-0" /><path
       d="M 0,0 C 3,1 3,1 3,1 Z"
       fill="#c71635"
       transform="translate(48,26)"
       id="path61-2" /><path
       d=""
       fill="#fe0038"
       id="path62-4" /><path
       d=""
       fill="#cd1036"
       id="path63-8" /><path
       d="M 0,0 C 2,1 2,1 2,1 Z"
       fill="#7d091d"
       transform="translate(268,74)"
       id="path64-6" /><path
       d="M 0,0 C 2,1 2,1 2,1 Z"
       fill="#d40855"
       transform="translate(200,74)"
       id="path65-5" /><path
       d="M 0,0 C 2,1 2,1 2,1 Z"
       fill="#a00d42"
       transform="translate(187,74)"
       id="path66-0" /><path
       d="M 0,0 C 2,1 2,1 2,1 Z"
       fill="#bd043d"
       transform="translate(127,74)"
       id="path67-9" /><path
       d="M 0,0 C 2,1 2,1 2,1 Z"
       fill="#920e35"
       transform="translate(69,74)"
       id="path68-0" /><path
       d=""
       fill="#fa0227"
       id="path69-0" /><path
       d=""
       fill="#cb0a35"
       id="path70-6" /><path
       d=""
       fill="#d80c4a"
       id="path71-1" /><path
       d=""
       fill="#970b2e"
       id="path72-3" /><path
       d=""
       fill="#e60243"
       id="path73-8" /><path
       d=""
       fill="#e00a4e"
       id="path74-9" /><path
       d=""
       fill="#db053f"
       id="path75-3" /><path
       d=""
       fill="#f0034a"
       id="path76-4" /><path
       d=""
       fill="#da0e40"
       id="path77-4" /><path
       d=""
       fill="#e80422"
       id="path78-6" /><path
       d="M 0,0 C 2,1 2,1 2,1 Z"
       fill="#db023b"
       transform="translate(11,46)"
       id="path79-0" /><path
       d="M 0,0 C 2,1 2,1 2,1 Z"
       fill="#ee0141"
       transform="translate(237,42)"
       id="path80-6" /><path
       d="M 0,0 C 2,1 2,1 2,1 Z"
       fill="#dd073e"
       transform="translate(163,40)"
       id="path81-6" /><path
       d=""
       fill="#e00c21"
       id="path82-1" /><path
       d="M 0,0 C 2,1 2,1 2,1 Z"
       fill="#c4072f"
       transform="translate(116,39)"
       id="path83-8" /><path
       d="M 0,0 C 2,1 2,1 2,1 Z"
       fill="#e00037"
       transform="translate(107,39)"
       id="path84-4" /><path
       d="M 0,0 C 2,1 2,1 2,1 Z"
       fill="#dd013f"
       transform="translate(84,39)"
       id="path85-9" /><path
       d=""
       fill="#d90b47"
       id="path86-6" /><path
       d=""
       fill="#ca0e53"
       id="path87-3" /><path
       d="M 0,0 C 2,1 2,1 2,1 Z"
       fill="#780f28"
       transform="translate(190,32)"
       id="path88-7" /><path
       d="M 0,0 C 2,1 2,1 2,1 Z"
       fill="#f40161"
       transform="translate(59,29)"
       id="path89-8" /><path
       d=""
       fill="#df0c3a"
       id="path90-8" /><path
       d="M 0,0 C 2,1 2,1 2,1 Z"
       fill="#be154f"
       transform="translate(9,20)"
       id="path91-2" /><path
       d=""
       fill="#da1045"
       id="path92-9" /><path
       d=""
       fill="#dd0e36"
       id="path93-1" /><path
       d=""
       fill="#dd0b3b"
       id="path94-3" /><path
       d=""
       fill="#d10f3a"
       id="path95-5" /><path
       d=""
       fill="#d70850"
       id="path96-9" /><path
       d=""
       fill="#d31052"
       id="path97-8" /><path
       d=""
       fill="#c31343"
       id="path98-4" /><path
       d=""
       fill="#f40058"
       id="path99-0" /><path
       d=""
       fill="#cd122d"
       id="path100-7" /><path
       d=""
       fill="#cd0848"
       id="path101-6" /><path
       d=""
       fill="#ee0229"
       id="path102-3" /><path
       d=""
       fill="#a70029"
       id="path103-6" /><path
       d=""
       fill="#eb003e"
       id="path104-1" /><path
       d=""
       fill="#d3203a"
       id="path105-5" /><path
       d=""
       fill="#f40039"
       id="path106-4" /><path
       d=""
       fill="#bf0c3f"
       id="path107-2" /><path
       d=""
       fill="#cd1241"
       id="path108-0" /><path
       d=""
       fill="#d31341"
       id="path109-9" /><path
       d=""
       fill="#d5144a"
       id="path110-7" /><path
       d=""
       fill="#9e062e"
       id="path111-3" /><path
       d=""
       fill="#e60749"
       id="path112-7" /><path
       d=""
       fill="#f20c45"
       id="path113-2" /><path
       d=""
       fill="#ab005c"
       id="path114-6" /><path
       d=""
       fill="#f70042"
       id="path115-0" /><path
       d=""
       fill="#f8051e"
       id="path116-1" /><path
       d=""
       fill="#e7004c"
       id="path117-6" /><path
       d=""
       fill="#d70955"
       id="path118-5" /><path
       d=""
       fill="#d1053c"
       id="path119-7" /><path
       d=""
       fill="#f50249"
       id="path120-5" /><path
       d=""
       fill="#e31050"
       id="path121-4" /><path
       d=""
       fill="#d50a2a"
       id="path122-1" /><path
       d=""
       fill="#cc113e"
       id="path123-2" /><path
       d=""
       fill="#f50761"
       id="path124-0" /><path
       d=""
       fill="#d00c3a"
       id="path125-0" /><path
       d=""
       fill="#d21228"
       id="path126-1" /><path
       d=""
       fill="#ed081d"
       id="path127-4" /><path
       d=""
       fill="#ec0241"
       id="path128-6" /><path
       d=""
       fill="#d21420"
       id="path129-0" /><path
       d=""
       fill="#b4002e"
       id="path130-7" /><path
       d=""
       fill="#ec0334"
       id="path131-1" /><path
       d=""
       fill="#da0a49"
       id="path132-7" /><path
       d=""
       fill="#ed0346"
       id="path133-7" /><path
       d=""
       fill="#f00146"
       id="path134-7" /><path
       d=""
       fill="#d50949"
       id="path135-7" /><path
       d=""
       fill="#c40f3e"
       id="path136-3" /><path
       d=""
       fill="#d6074f"
       id="path137-3" /><path
       d=""
       fill="#f60035"
       id="path138-5" /><path
       d=""
       fill="#bf1142"
       id="path139-9" /><path
       d=""
       fill="#d90c29"
       id="path140-9" /><path
       d=""
       fill="#c32079"
       id="path141-8" /><path
       d=""
       fill="#ef052b"
       id="path142-1" /><path
       d=""
       fill="#fa001e"
       id="path143-8" /><path
       d=""
       fill="#ea005d"
       id="path144-2" /><path
       d=""
       fill="#f41022"
       id="path145-6" /><path
       d=""
       fill="#c6172e"
       id="path146-6" /><path
       d=""
       fill="#db003b"
       id="path147-0" /><path
       d=""
       fill="#d00e4d"
       id="path148-3" /><path
       d=""
       fill="#d8064d"
       id="path149-8" /><path
       d=""
       fill="#df093f"
       id="path150-0" /><path
       d=""
       fill="#e90062"
       id="path151-1" /><path
       d=""
       fill="#fc0528"
       id="path152-2" /><path
       d=""
       fill="#df064f"
       id="path153-5" /><path
       d=""
       fill="#d10029"
       id="path154-0" /><path
       d=""
       fill="#df064d"
       id="path155-9" /><path
       d=""
       fill="#ea0555"
       id="path156-4" /><path
       d=""
       fill="#d60c3e"
       id="path157-7" /><path
       d=""
       fill="#d70b40"
       id="path158-8" /><path
       d=""
       fill="#d40e3a"
       id="path159-3" /><path
       d=""
       fill="#d71318"
       id="path160-5" /><path
       d=""
       fill="#d61318"
       id="path161-1" /><path
       d=""
       fill="#b30f2d"
       id="path162-2" /></g></svg>
