<?xml version="1.0" encoding="iso-8859-1"?>
<!-- Generator: Adobe Illustrator 19.0.0, SVG Export Plug-In . SVG Version: 6.00 Build 0)  -->
<svg version="1.1" id="Layer_1" xmlns="http://www.w3.org/2000/svg" xmlns:xlink="http://www.w3.org/1999/xlink" x="0px" y="0px"
	 viewBox="0 0 236.725 236.725" style="enable-background:new 0 0 236.725 236.725;" xml:space="preserve">
<g>
	<path style="fill:#F8BE66;" d="M217.452,84.959c0.402,0.683,1.447,0.241,1.246-0.522c-0.683-2.934-2.291-5.787-3.496-8.56
		c-0.322-0.683-1.487-0.201-1.206,0.522C215.041,79.213,215.885,82.388,217.452,84.959z M228.222,111.803
		c-10.087-12.578-31.586-15.713-43.802-4.862c12.337-28.451,1.286-69.079-23.187-88.851
		C198.725,34.567,224.082,71.216,228.222,111.803z M212.83,78.972c0.563-3.536-1.969-6.952-4.461-9.122
		c-0.402-0.362-1.005,0.201-0.603,0.603c1.165,1.206,2.049,2.773,2.572,4.38c0.482,1.366,0.482,2.773,0.844,4.139
		C211.384,79.735,212.71,79.856,212.83,78.972z"/>
	<path style="fill:#FFED33;" d="M182.972,104.048c-5.988-22.464-39.945-28.009-56.863-13.101
		c8.801-25.317,19.651-50.393,20.374-77.558c0.08,0.04,0.12,0.121,0.201,0.161C178.231,26.65,192.296,71.859,182.972,104.048z
		 M148.533,76.882c1.969-0.844,4.019-1.406,6.189-1.487c1.808-0.04,3.496,0.442,5.264,0.482c0.804,0.04,1.085-1.085,0.402-1.447
		c-3.657-2.13-9.162-0.844-12.618,1.206C146.966,76.119,147.689,77.284,148.533,76.882z M157.013,78.731
		c-4.139-2.813-11.172-1.246-15.311,0.764c-1.005,0.482-0.281,2.09,0.764,1.768c2.411-0.723,4.822-1.286,7.354-1.407
		c2.29-0.08,4.541,0.603,6.791,0.362C157.374,80.137,157.696,79.213,157.013,78.731z"/>
	<path style="fill:#EF67AC;" d="M131.856,50.44c1.607-2.934,3.577-6.068,4.38-9.323c0.201-0.723-0.764-1.085-1.165-0.482
		c-1.889,2.773-2.893,6.309-4.059,9.444C130.811,50.601,131.615,50.922,131.856,50.44z M131.897,44.412
		c1.005-2.733,2.009-5.546,2.692-8.359c0.161-0.763-0.884-1.045-1.165-0.321c-1.005,2.733-1.688,5.626-2.371,8.439
		C130.932,44.734,131.696,44.934,131.897,44.412z M142.787,13.791c-0.804,26.121-11.774,49.428-18.365,74.263
		c-2.692-9.042-7.876-17.802-17.199-20.977c-10.047-3.456-23.83-1.165-32.43,5.184c-0.08-0.643-0.241-1.286-0.362-1.929
		c0.121,0.08,0.161,0.12,0.281,0.201c0.362,0.241,0.723-0.281,0.442-0.563c-1.286-1.447,20.012-26.281,22.504-29.014
		C109.995,27.494,124.824,17.126,142.787,13.791z"/>
	<path style="fill:#66C5EE;" d="M53.615,33.883c0.522-0.482-0.201-1.447-0.804-1.045c-2.773,1.808-5.305,3.818-7.756,5.947
		c-0.563,0.482,0.161,1.487,0.804,1.045C48.551,38.023,51.163,36.094,53.615,33.883z M61.089,32.678
		c-3.416,1.527-6.751,3.335-10.006,5.184c-0.683,0.402-0.08,1.326,0.563,1.005c3.456-1.567,6.831-3.215,10.087-5.104
		C62.456,33.361,61.813,32.316,61.089,32.678z M34.687,45.377c27.688-26.804,66.226-41.633,104.282-34.239
		c-29.336,6.992-48.544,31.385-65.382,55.617C68.644,50.118,51.485,39.55,34.687,45.377z"/>
	<path style="fill:#99D9F1;" d="M127.918,93.84c-11.051,31.787-23.067,63.855-31.184,96.446c-2.049-0.241-4.099-0.362-6.108-0.201
		c10.73-33.153,21.218-67.11,29.898-100.866c0.563,1.688,1.085,3.416,1.607,5.104c0.201,0.683,0.643,1.045,1.125,1.206
		c0.482,0.723,1.447,1.045,2.291,0.281C126.311,95.086,127.114,94.483,127.918,93.84z"/>
	<path style="fill:#B17F4A;" d="M151.467,220.747c1.929,2.572,1.728,6.43-0.924,8.439c-0.764,0.603-0.121,1.768,0.763,1.326
		c3.898-2.049,4.702-7.796,1.326-10.689C152.03,219.3,150.904,220.023,151.467,220.747z M17.448,225.408
		c-1.447-1.246-1.889-3.295-0.844-4.943c0.442-0.683-0.603-1.527-1.125-0.884c-1.849,2.291-1.527,5.465,0.964,7.153
		C17.207,227.257,18.171,226.051,17.448,225.408z M68.041,229.065c2.291,0.643,5.184,0.563,7.314-0.603
		c0.804-0.442,0.241-1.648-0.603-1.447c-2.25,0.522-4.219,1.005-6.55,0.884C67.559,227.9,67.439,228.864,68.041,229.065z
		 M71.538,225.73c2.813,0.08,5.626,0.241,8.439,0.12c0.844-0.04,0.844-1.286,0-1.326c-2.813-0.161-5.626,0-8.439,0.08
		C70.854,224.645,70.854,225.69,71.538,225.73z M66.956,208.329c0-3.295-3.376-5.586-6.51-4.782
		c-0.844,0.241-0.482,1.527,0.362,1.326c2.331-0.563,4.461,1.165,4.742,3.456C65.63,209.254,66.956,209.294,66.956,208.329z
		 M106.017,211.102c0.241,0.964,1.688,0.764,1.688-0.241c-0.04-3.456-2.572-6.148-5.626-7.434c-0.683-0.281-1.125,0.804-0.522,1.165
		C104.168,206.039,105.294,208.329,106.017,211.102z M105.977,203.547c0.241,0.924,1.808,0.764,1.728-0.241
		c-0.442-3.938-3.858-6.47-7.756-5.907c-0.964,0.161-0.723,1.688,0.201,1.688C102.923,199.006,105.294,200.895,105.977,203.547z
		 M83.312,232.843c-12.458,0-67.713,6.349-76.232-7.475c-0.603-4.461,1.969-9.524,6.711-10.288
		c4.501-0.723,8.318,2.371,10.046,6.309c0.442,1.045,1.808,0.241,1.688-0.723c-0.161-0.924-0.442-1.768-0.844-2.612
		c-0.402-6.59,2.572-13.543,9.243-15.914c8.158-2.893,15.11,2.492,14.909,10.73c-1.326,0.241-2.652,0.603-3.697,0.964
		c-1.527,0.563-0.924,2.612,0.643,2.371c1.688-0.241,3.335-0.522,5.063-0.563c1.567-0.04,3.175,0.281,4.702,0.08
		c1.607-0.201,2.049-2.29,0.402-2.853c-1.165-0.402-2.572-0.442-3.978-0.402v-0.04c0.362-0.08,0.683-0.322,0.643-0.804
		c-0.563-4.38,1.688-9.243,6.269-10.408c4.661-1.165,7.716,2.049,10.448,5.184c0.442,0.563,1.567,0.161,1.487-0.603
		c-0.04-0.281-0.161-0.563-0.241-0.844c16.396-18.485,41.632-13.864,48.785,10.448c0.362,1.326,2.411,1.286,2.733,0.08
		c2.17-3.295,6.188-5.505,10.127-3.978c4.26,1.607,5.144,5.947,4.461,9.926c0,0.08,0,0.161,0,0.201
		c-1.607-0.241-3.215-0.241-4.782,0.08c-1.125,0.201-0.884,2.09,0.241,1.969c1.648-0.12,3.295,0.04,4.862,0.603
		c0.201,0.08,0.402,0.201,0.603,0.281c0.201,0.402,0.603,0.643,1.045,0.603c0.764,0.522,1.527,1.005,2.411,1.206
		c1.085,0.201,1.808-0.804,1.366-1.768c-0.281-0.643-0.804-1.125-1.406-1.527c3.496-3.135,8.278-5.224,12.859-3.054
		c5.425,2.532,6.189,10.971-0.563,12.337c-0.442,0.08-0.723,0.322-0.924,0.603C129.365,232.883,106.338,232.883,83.312,232.843z
		 M11.058,218.577c-2.049,2.21-1.527,5.907,1.165,7.314c0.844,0.402,1.648-0.603,1.005-1.286c-1.246-1.447-1.567-3.255-0.764-4.983
		C12.826,218.778,11.782,217.773,11.058,218.577z"/>
	<path style="fill:#1D1D1B;" d="M218.698,84.437c0.201,0.764-0.844,1.206-1.246,0.522c-1.567-2.572-2.411-5.747-3.456-8.56
		c-0.281-0.723,0.884-1.206,1.206-0.522C216.407,78.65,218.014,81.503,218.698,84.437z"/>
	<path style="fill:#1D1D1B;" d="M208.37,69.85c2.492,2.17,5.023,5.586,4.461,9.122c-0.121,0.884-1.447,0.763-1.648,0
		c-0.362-1.366-0.362-2.773-0.844-4.139c-0.522-1.607-1.407-3.175-2.572-4.38C207.365,70.051,207.968,69.488,208.37,69.85z"/>
	<path style="fill:#1D1D1B;" d="M150.543,229.186c2.652-2.009,2.853-5.867,0.924-8.439c-0.563-0.723,0.563-1.447,1.165-0.924
		c3.376,2.893,2.572,8.64-1.326,10.689C150.422,230.954,149.779,229.789,150.543,229.186z"/>
	<path style="fill:#1D1D1B;" d="M154.722,75.395c-2.17,0.08-4.219,0.643-6.189,1.487c-0.844,0.402-1.567-0.763-0.764-1.246
		c3.456-2.049,8.961-3.335,12.618-1.206c0.683,0.362,0.402,1.487-0.402,1.447C158.218,75.837,156.53,75.355,154.722,75.395z"/>
	<path style="fill:#1D1D1B;" d="M141.702,79.494c4.139-2.009,11.172-3.576,15.311-0.764c0.683,0.482,0.362,1.407-0.402,1.487
		c-2.25,0.241-4.501-0.442-6.791-0.362c-2.532,0.121-4.943,0.683-7.354,1.407C141.421,81.584,140.697,79.976,141.702,79.494z"/>
	<path style="fill:#1D1D1B;" d="M136.237,41.117c-0.804,3.255-2.773,6.389-4.38,9.323c-0.241,0.482-1.045,0.161-0.844-0.362
		c1.165-3.135,2.17-6.671,4.059-9.444C135.473,40.032,136.437,40.394,136.237,41.117z"/>
	<path style="fill:#1D1D1B;" d="M134.589,36.053c-0.683,2.813-1.688,5.626-2.692,8.359c-0.201,0.522-0.965,0.322-0.844-0.241
		c0.683-2.813,1.366-5.706,2.371-8.439C133.705,35.009,134.75,35.29,134.589,36.053z"/>
	<path style="fill:#1D1D1B;" d="M102.079,203.427c3.054,1.286,5.586,3.978,5.626,7.434c0,1.005-1.447,1.206-1.688,0.241
		c-0.723-2.773-1.849-5.063-4.461-6.51C100.954,204.23,101.396,203.145,102.079,203.427z"/>
	<path style="fill:#1D1D1B;" d="M99.949,197.399c3.898-0.563,7.314,1.969,7.756,5.907c0.08,1.005-1.487,1.165-1.728,0.241
		c-0.683-2.652-3.054-4.541-5.827-4.461C99.226,199.087,98.984,197.56,99.949,197.399z"/>
	<path style="fill:#1D1D1B;" d="M79.977,225.85c-2.813,0.121-5.626-0.04-8.439-0.12c-0.683-0.04-0.683-1.085,0-1.125
		c2.813-0.08,5.626-0.241,8.439-0.08C80.821,224.564,80.821,225.81,79.977,225.85z"/>
	<path style="fill:#1D1D1B;" d="M68.202,227.9c2.331,0.121,4.3-0.362,6.55-0.884c0.844-0.201,1.407,1.005,0.603,1.447
		c-2.13,1.165-5.023,1.246-7.314,0.603C67.439,228.864,67.559,227.9,68.202,227.9z"/>
	<path style="fill:#1D1D1B;" d="M65.55,208.329c-0.281-2.291-2.411-4.019-4.742-3.456c-0.844,0.201-1.206-1.085-0.362-1.326
		c3.134-0.804,6.51,1.487,6.51,4.782C66.956,209.294,65.63,209.254,65.55,208.329z"/>
	<path style="fill:#1D1D1B;" d="M51.083,37.862c3.255-1.849,6.59-3.657,10.006-5.184c0.723-0.362,1.366,0.683,0.643,1.085
		c-3.255,1.889-6.631,3.536-10.087,5.104C51.003,39.188,50.4,38.264,51.083,37.862z"/>
	<path style="fill:#1D1D1B;" d="M52.811,32.839c0.603-0.402,1.326,0.563,0.804,1.045c-2.451,2.21-5.063,4.139-7.756,5.947
		c-0.643,0.442-1.366-0.563-0.804-1.045C47.507,36.656,50.038,34.647,52.811,32.839z"/>
	<path style="fill:#1D1D1B;" d="M16.604,220.466c-1.045,1.648-0.603,3.697,0.844,4.943c0.723,0.643-0.241,1.849-1.005,1.326
		c-2.492-1.688-2.813-4.862-0.964-7.153C16.001,218.938,17.046,219.782,16.604,220.466z"/>
	<path style="fill:#1D1D1B;" d="M12.224,225.891c-2.692-1.407-3.215-5.104-1.165-7.314c0.723-0.804,1.768,0.201,1.406,1.045
		c-0.804,1.728-0.482,3.536,0.764,4.983C13.871,225.288,13.067,226.292,12.224,225.891z"/>
	<path style="fill:#1D1D1B;" d="M150.462,9.37c1.206-2.009,0.804-5.345-1.889-5.948c-2.612-0.603-4.822,2.652-4.34,5.023
		c2.009,0.442,4.019,0.884,5.988,1.487C150.261,9.732,150.342,9.531,150.462,9.37z M182.972,104.048
		c9.323-32.189-4.742-77.398-36.288-90.498c-0.08-0.04-0.121-0.121-0.201-0.161c-0.723,27.166-11.574,52.241-20.374,77.558
		C143.028,76.038,176.985,81.584,182.972,104.048z M184.419,106.941c12.216-10.85,33.716-7.716,43.802,4.862
		c-4.139-40.588-29.496-77.237-66.99-93.713C185.705,37.862,196.756,78.49,184.419,106.941z M73.587,66.755
		c16.838-24.232,36.047-48.625,65.382-55.617c-38.056-7.394-76.594,7.434-104.282,34.238C51.485,39.55,68.644,50.118,73.587,66.755z
		 M107.223,67.077c9.323,3.175,14.507,11.935,17.199,20.977c6.59-24.835,17.561-48.143,18.365-74.263
		c-17.963,3.335-32.791,13.703-45.128,27.166c-2.492,2.733-23.79,27.567-22.504,29.014c0.281,0.281-0.08,0.804-0.442,0.563
		c-0.12-0.08-0.161-0.12-0.281-0.201c0.121,0.643,0.281,1.286,0.362,1.929C83.392,65.911,97.176,63.621,107.223,67.077z
		 M96.734,190.286c8.118-32.591,20.133-64.659,31.184-96.446c-0.804,0.643-1.608,1.246-2.371,1.969
		c-0.844,0.763-1.808,0.442-2.291-0.281c-0.482-0.161-0.924-0.522-1.125-1.206c-0.522-1.688-1.045-3.416-1.607-5.104
		c-8.68,33.756-19.169,67.713-29.898,100.866C92.635,189.924,94.685,190.045,96.734,190.286z M47.949,235.495
		c-10.689-0.04-39.784,6.108-42.798-8.72c-0.121-0.12-0.281-0.201-0.362-0.442c-2.049-5.787,1.487-12.458,7.434-14.105
		c3.617-1.005,7.555,0.201,10.207,2.692c0.04-7.917,5.505-15.351,13.784-16.557c5.988-0.884,12.096,2.291,14.668,7.314
		c1.005-3.376,3.617-6.269,7.233-7.233c4.019-1.045,9.243,0.683,11.533,4.26c4.179-7.033,10.689-10.93,17.722-12.176
		c8.64-35.042,19.128-71.008,31.867-104.804c-2.532-6.43-6.108-12.096-13.342-14.828c-9.444-3.496-23.147-1.085-31.345,4.581
		c-0.764,0.522-1.648-0.12-1.808-0.884c-0.763-0.161-1.487-0.723-1.607-1.728c-2.09-20.615-22.022-29.858-40.387-22.986
		c-1.326,0.522-2.13-1.407-1.206-2.21c0.04-0.201,0.121-0.402,0.241-0.603c26.121-32.631,71.329-47.58,112.038-39.221
		c-0.723-3.978,2.572-8.359,6.952-7.796c4.782,0.643,7.515,7.113,4.541,10.89c1.808,0.603,3.617,1.165,5.385,1.849
		c43.682,16.878,72.214,60.158,73.821,106.372c0.08,2.25-3.094,2.371-3.617,0.442c-5.787-7.033-11.292-12.739-20.776-14.387
		c-9.404-1.607-16.637,2.09-24.433,6.51c-0.844,1.567-3.697,1.165-3.858-1.005c-1.889-22.906-29.536-29.054-47.419-19.771
		c-11.212,33.113-20.816,67.15-33.435,99.741c10.609,2.21,20.213,9.886,22.624,21.58c2.612-3.617,7.555-5.304,11.855-3.697
		c4.621,1.688,7.635,7.274,6.55,12.056c4.862-4.782,12.297-6.791,18.083-1.688c5.425,4.822,4.019,14.025-2.933,16.275
		c-0.201,0.362-0.563,0.603-1.125,0.603C118.675,235.776,83.312,235.535,47.949,235.495z M13.791,215.081
		c-4.742,0.764-7.314,5.827-6.711,10.288c8.519,13.824,63.775,7.475,76.232,7.475c23.026,0.04,46.053,0.04,69.079,0.121
		c0.201-0.281,0.482-0.522,0.924-0.603c6.751-1.366,5.988-9.805,0.563-12.337c-4.581-2.17-9.363-0.08-12.859,3.054
		c0.603,0.402,1.125,0.884,1.406,1.527c0.442,0.964-0.281,1.969-1.366,1.768c-0.884-0.201-1.648-0.683-2.411-1.206
		c-0.442,0.04-0.844-0.201-1.045-0.603c-0.201-0.08-0.402-0.201-0.603-0.281c-1.567-0.563-3.215-0.723-4.862-0.603
		c-1.125,0.121-1.366-1.768-0.241-1.969c1.567-0.322,3.175-0.322,4.782-0.08c0-0.04,0-0.12,0-0.201
		c0.683-3.978-0.201-8.318-4.461-9.926c-3.938-1.527-7.957,0.683-10.127,3.978c-0.321,1.206-2.371,1.246-2.733-0.08
		c-7.153-24.312-32.39-28.934-48.785-10.448c0.08,0.281,0.201,0.563,0.241,0.844c0.08,0.764-1.045,1.165-1.487,0.603
		c-2.733-3.134-5.787-6.349-10.448-5.184c-4.581,1.165-6.832,6.028-6.269,10.408c0.04,0.482-0.281,0.723-0.643,0.804v0.04
		c1.406-0.04,2.813,0,3.978,0.402c1.648,0.563,1.206,2.652-0.402,2.853c-1.527,0.201-3.135-0.12-4.702-0.08
		c-1.728,0.04-3.376,0.322-5.063,0.563c-1.567,0.241-2.17-1.808-0.643-2.371c1.045-0.362,2.371-0.723,3.697-0.964
		c0.201-8.238-6.751-13.623-14.909-10.73c-6.671,2.371-9.645,9.323-9.243,15.914c0.402,0.844,0.683,1.688,0.844,2.612
		c0.121,0.964-1.246,1.768-1.688,0.723C22.109,217.452,18.292,214.357,13.791,215.081z"/>
</g>
<g>
</g>
<g>
</g>
<g>
</g>
<g>
</g>
<g>
</g>
<g>
</g>
<g>
</g>
<g>
</g>
<g>
</g>
<g>
</g>
<g>
</g>
<g>
</g>
<g>
</g>
<g>
</g>
<g>
</g>
</svg>
