<?xml version="1.0" encoding="UTF-8" standalone="no"?>
<!-- Uploaded to: SVG Repo, www.svgrepo.com, Generator: SVG Repo Mixer Tools -->

<svg
   width="24.00001"
   height="25.839813"
   viewBox="0 0 0.72000029 0.7751944"
   fill="none"
   version="1.1"
   id="svg4597"
   xmlns="http://www.w3.org/2000/svg"
   xmlns:svg="http://www.w3.org/2000/svg">
  <path
     d="m 0.34365028,0.54286769 c -0.047113,0.00632 -0.062409,0.012849 -0.090553,0.017949 -0.028145,0.0051 -0.116046,0.028146 -0.116046,0.067506 0,0.039567 0.080355,0.070157 0.1286909,0.070157 0.048335,0 0.090553,0.010197 0.1313409,0.034467 0.040791,0.02427 0.0981,0.044667 0.1286902,0.042015 0.030594,-0.00265 0.056088,-0.039567 0.063836,-0.050988 0.00775,-0.011421 0.043443,-0.047112 0.075258,-0.066281 0.031815,-0.019173 0.068933,-0.061185 0.049764,-0.1007514 -0.019173,-0.039567 -0.3709805,-0.014073 -0.370981,-0.0140736 z"
     fill="#80dafe"
     id="path4029"
     style="stroke-width:0.0356908" />
  <path
     d="m 0.71463078,0.55692629 c -0.0101969,-0.021211 -0.1162484,-0.0236558 -0.2123065,-0.0214145 l -0.2074162,0.033246 c -0.045684,0.00734 -0.089941,0.021004 -0.1319537,0.040381 -0.00102,0.00326 -0.00163,0.00652 -0.00163,0.010197 0,0.00469 8.155e-4,0.00959 0.00245,0.014276 0.02223,0.032836 0.067914,0.068933 0.1350128,0.046705 0.08892,-0.029573 0.096262,0.00959 0.1572431,0.035284 0.060778,0.025901 0.1354215,0.00775 0.2129204,-0.078316 0.019173,-0.021211 0.035487,-0.034877 0.049153,-0.043239 0.00306,-0.012031 0.00265,-0.024677 -0.00347,-0.037118 z"
     fill="url(#paint0_radial)"
     id="path4031"
     style="fill:url(#paint0_radial);stroke-width:0.0356908" />
  <path
     d="m 0.31897368,0.55509889 c -0.065876,0.00571 -0.063225,0.02019 -0.092797,0.02488 -0.029572,0.00469 -0.079336,0.01917 -0.052618,0.05935 0.026717,0.040177 0.1360321,0.033446 0.1841647,0.01917 0.048133,-0.014276 0.1180864,0.015297 0.1494943,0.040177 0.031408,0.024884 0.1080895,-0.010604 0.1301178,-0.048743 0.022025,-0.038139 0.054453,-0.062409 0.075461,-0.068526 0.021004,-0.00612 -0.010607,-0.04038 -0.010607,-0.04038 l -0.2420833,0.00734 z"
     fill="url(#paint1_radial)"
     id="path4033"
     style="fill:url(#paint1_radial);stroke-width:0.0356908" />
  <path
     d="m 0.45153988,0.49249019 c -0.02876,0 -0.070161,0.00897 -0.1242039,0.052212 -0.054047,0.043236 -0.14358,0.042829 -0.14358,0.068323 0,0.02549 0.030592,0.040787 0.083414,0.040787 0.052821,0 0.1076844,-0.019783 0.15561,-0.019783 0.05874,0 0.08423,0.037529 0.1274695,0.037529 0.043236,0 0.077702,-0.047112 0.08423,-0.057923 0.00632,-0.010811 0.036301,-0.031204 0.056084,-0.036301 0.019783,-0.0051 0.038953,-0.016521 0.014683,-0.040791 -0.02427,-0.02427 -0.082189,-0.033856 -0.102586,-0.033856 -0.037729,0 -0.057512,-0.010197 -0.1511218,-0.010197 z"
     fill="url(#paint2_linear)"
     id="path4035"
     style="fill:url(#paint2_linear);stroke-width:0.0356908" />
  <path
     d="m 0.69056448,0.57733779 c 0.019783,-0.0051 0.038953,-0.016521 0.014683,-0.040791 -0.00347,-0.00347 -0.00775,-0.00673 -0.012438,-0.00959 -0.00428,0.00225 -0.011014,0.00408 -0.020601,0.00551 -0.06934,0.00979 -0.064447,0.084434 -0.1250176,0.062612 -0.060574,-0.021821 -0.1252246,-0.015704 -0.2282174,0.0155 -0.047928,0.014683 -0.075869,8.138e-4 -0.081784,-0.025494 -0.02998,0.00877 -0.053434,0.014887 -0.053434,0.027942 0,0.02549 0.030592,0.040787 0.083414,0.040787 0.052821,0 0.1076844,-0.019783 0.15561,-0.019783 0.05874,0 0.08423,0.037529 0.1274695,0.037529 0.043439,0 0.077702,-0.047112 0.08423,-0.057923 0.00632,-0.010811 0.036301,-0.031204 0.056084,-0.036301 z"
     fill="url(#paint3_radial)"
     id="path4037"
     style="fill:url(#paint3_radial);stroke-width:0.0356908" />
  <path
     d="m 0.55024978,0.67176489 c 0.043439,0 0.077702,-0.047112 0.08423,-0.057923 0.00632,-0.010807 0.036301,-0.031204 0.056084,-0.036301 0.019783,-0.0051 0.038953,-0.016521 0.014683,-0.040791 -8.138e-4,-8.137e-4 -0.00163,-0.00143 -0.00245,-0.00224 -0.010807,0.022635 -0.032425,0.036301 -0.055881,0.038953 -0.034467,0.00388 -0.039156,0.073623 -0.089941,0.061185 -0.050781,-0.012442 -0.086675,-0.030594 -0.1676431,-0.011421 -0.080968,0.01917 -0.1211452,0.023859 -0.1499019,0.00286 -0.028757,-0.021008 0.059553,-0.024473 0.071789,-0.069954 -0.054045,0.032632 -0.1276705,0.03406 -0.1276705,0.057309 0,0.025494 0.030592,0.040787 0.083414,0.040787 0.052822,0 0.1076858,-0.01978 0.1556113,-0.01978 0.058736,-4.105e-4 0.08423,0.037322 0.127673,0.037322 z"
     fill="url(#paint4_radial)"
     id="path4039"
     style="fill:url(#paint4_radial);stroke-width:0.0356908" />
  <path
     d="m 0.35506778,0.52471539 -0.092184,0.090144 0.1915077,-0.010607 c 0,0 0.1766157,-0.013459 0.1880368,-0.04915 0.00163,-0.0053 -0.022639,-0.051191 -0.1068689,-0.05894 -0.017131,-0.00163 -0.038749,-0.00327 -0.068933,-0.00367 l -0.039156,0.00122 c -0.027125,0.00102 -0.053026,0.012031 -0.072402,0.031001 z"
     fill="url(#paint5_linear)"
     id="path4041"
     style="fill:url(#paint5_linear);stroke-width:0.0356908" />
  <path
     d="m 0.25615578,0.62179779 c 0.00191,0 0.00347,-0.00155 0.00347,-0.00347 0,-0.00192 -0.00155,-0.00347 -0.00347,-0.00347 -0.00191,0 -0.00347,0.00155 -0.00347,0.00347 0,0.00191 0.00155,0.00347 0.00347,0.00347 z"
     fill="url(#paint6_radial)"
     id="path4043"
     style="fill:url(#paint6_radial);stroke-width:0.0356908" />
  <path
     d="m 0.39667608,0.52878769 c 0.00191,0 0.00347,-0.00155 0.00347,-0.00347 0,-0.00191 -0.00155,-0.00347 -0.00347,-0.00347 -0.00192,0 -0.00347,0.00155 -0.00347,0.00347 0,0.00192 0.00155,0.00347 0.00347,0.00347 z"
     fill="url(#paint7_radial)"
     id="path4045"
     style="fill:url(#paint7_radial);stroke-width:0.0356908" />
  <path
     d="m 0.34589518,0.56326499 c 0.00169,0 0.00306,-0.00137 0.00306,-0.00306 0,-0.00169 -0.00137,-0.00306 -0.00306,-0.00306 -0.00169,0 -0.00306,0.00137 -0.00306,0.00306 0,0.00169 0.00137,0.00306 0.00306,0.00306 z"
     fill="url(#paint8_radial)"
     id="path4047"
     style="fill:url(#paint8_radial);stroke-width:0.0356908" />
  <path
     d="m 0.44684658,0.60915969 c 0.00101,0 0.00183,-8.209e-4 0.00183,-0.00183 0,-0.00101 -8.209e-4,-0.00184 -0.00183,-0.00184 -0.00101,0 -0.00183,8.245e-4 -0.00183,0.00184 0,0.00101 8.208e-4,0.00183 0.00183,0.00183 z"
     fill="url(#paint9_radial)"
     id="path4049"
     style="fill:url(#paint9_radial);stroke-width:0.0356908" />
  <path
     d="m 0.32590478,0.63055989 c 0.00158,0 0.00286,-0.00128 0.00286,-0.00286 0,-0.00158 -0.00128,-0.00286 -0.00286,-0.00286 -0.00157,0 -0.00286,0.00128 -0.00286,0.00286 0,0.00158 0.00128,0.00286 0.00286,0.00286 z"
     fill="url(#paint10_radial)"
     id="path4051"
     style="fill:url(#paint10_radial);stroke-width:0.0356908" />
  <path
     d="m 0.41992498,0.58099609 c 0.00101,0 0.00183,-8.208e-4 0.00183,-0.00183 0,-0.00101 -8.209e-4,-0.00183 -0.00183,-0.00183 -0.00101,0 -0.00183,8.209e-4 -0.00183,0.00183 0,0.00101 8.209e-4,0.00183 0.00183,0.00183 z"
     fill="url(#paint11_radial)"
     id="path4053"
     style="fill:url(#paint11_radial);stroke-width:0.0356908" />
  <path
     d="m 0.46030558,0.57264809 c 0.0018,0 0.00327,-0.00146 0.00327,-0.00327 0,-0.0018 -0.00146,-0.00326 -0.00327,-0.00326 -0.0018,0 -0.00326,0.00146 -0.00326,0.00326 0,0.0018 0.00146,0.00327 0.00326,0.00327 z"
     fill="url(#paint12_radial)"
     id="path4055"
     style="fill:url(#paint12_radial);stroke-width:0.0356908" />
  <path
     d="m 0.37261328,0.59324519 c 0.0018,0 0.00326,-0.00146 0.00326,-0.00326 0,-0.0018 -0.00146,-0.00327 -0.00326,-0.00327 -0.0018,0 -0.00326,0.00146 -0.00326,0.00327 0,0.0018 0.00146,0.00326 0.00326,0.00326 z"
     fill="url(#paint13_radial)"
     id="path4057"
     style="fill:url(#paint13_radial);stroke-width:0.0356908" />
  <path
     d="m 0.48804438,0.60528009 c 0.00282,0 0.0051,-0.00228 0.0051,-0.0051 0,-0.00282 -0.00228,-0.0051 -0.0051,-0.0051 -0.00282,0 -0.0051,0.00228 -0.0051,0.0051 0,0.00282 0.00228,0.0051 0.0051,0.0051 z"
     fill="url(#paint14_radial)"
     id="path4059"
     style="fill:url(#paint14_radial);stroke-width:0.0356908" />
  <path
     d="m 0.53821488,0.53613999 c 0.00101,0 0.00184,-8.209e-4 0.00184,-0.00183 0,-0.00101 -8.245e-4,-0.00184 -0.00184,-0.00184 -0.00101,0 -0.00183,8.245e-4 -0.00183,0.00184 0,0.00101 8.209e-4,0.00183 0.00183,0.00183 z"
     fill="url(#paint15_radial)"
     id="path4061"
     style="fill:url(#paint15_radial);stroke-width:0.0356908" />
  <path
     d="m 0.53943908,0.57264449 c 0.00124,0 0.00224,-0.001 0.00224,-0.00224 0,-0.00124 -0.00101,-0.00224 -0.00224,-0.00224 -0.00124,0 -0.00224,0.00101 -0.00224,0.00224 0,0.00124 0.00101,0.00224 0.00224,0.00224 z"
     fill="url(#paint16_radial)"
     id="path4063"
     style="fill:url(#paint16_radial);stroke-width:0.0356908" />
  <path
     d="m 0.53332168,0.61669049 c 7.888e-4,0 0.00143,-6.389e-4 0.00143,-0.00143 0,-7.887e-4 -6.388e-4,-0.00143 -0.00143,-0.00143 -7.888e-4,0 -0.00143,6.389e-4 -0.00143,0.00143 0,7.888e-4 6.388e-4,0.00143 0.00143,0.00143 z"
     fill="url(#paint17_radial)"
     id="path4065"
     style="fill:url(#paint17_radial);stroke-width:0.0356908" />
  <path
     d="m 0.57961978,0.61771479 c 0.00158,0 0.00286,-0.00128 0.00286,-0.00286 0,-0.00157 -0.00128,-0.00286 -0.00286,-0.00286 -0.00158,0 -0.00286,0.00128 -0.00286,0.00286 0,0.00158 0.00128,0.00286 0.00286,0.00286 z"
     fill="url(#paint18_radial)"
     id="path4067"
     style="fill:url(#paint18_radial);stroke-width:0.0356908" />
  <path
     d="m 0.57676088,0.52207429 c 0.0018,0 0.00326,-0.00146 0.00326,-0.00327 0,-0.0018 -0.00146,-0.00326 -0.00326,-0.00326 -0.0018,0 -0.00327,0.00146 -0.00327,0.00326 0,0.0018 0.00146,0.00327 0.00327,0.00327 z"
     fill="url(#paint19_radial)"
     id="path4069"
     style="fill:url(#paint19_radial);stroke-width:0.0356908" />
  <path
     d="m 0.67200168,0.53695369 c 0.00124,0 0.00224,-0.001 0.00224,-0.00224 0,-0.00124 -0.00101,-0.00225 -0.00224,-0.00225 -0.00124,0 -0.00224,0.00101 -0.00224,0.00225 0,0.00124 0.001,0.00224 0.00224,0.00224 z"
     fill="url(#paint20_radial)"
     id="path4071"
     style="fill:url(#paint20_radial);stroke-width:0.0356908" />
  <path
     d="m 0.61367588,0.57916879 c 7.888e-4,0 0.00143,-6.389e-4 0.00143,-0.00143 0,-7.851e-4 -6.388e-4,-0.00143 -0.00143,-0.00143 -7.852e-4,0 -0.00143,6.425e-4 -0.00143,0.00143 0,7.888e-4 6.424e-4,0.00143 0.00143,0.00143 z"
     fill="url(#paint21_radial)"
     id="path4073"
     style="fill:url(#paint21_radial);stroke-width:0.0356908" />
  <path
     d="m 0.62325888,0.54612979 c 0.00191,0 0.00347,-0.00155 0.00347,-0.00347 0,-0.00191 -0.00155,-0.00347 -0.00347,-0.00347 -0.00192,0 -0.00347,0.00155 -0.00347,0.00347 0,0.00192 0.00155,0.00347 0.00347,0.00347 z"
     fill="url(#paint22_radial)"
     id="path4075"
     style="fill:url(#paint22_radial);stroke-width:0.0356908" />
  <path
     d="m 0.36751668,0.61366029 c -0.00592,0.00102 -0.00816,0.00734 -0.014276,0.00612 0.00244,-0.00714 0.00612,-0.00898 0.014276,-0.00612 z"
     fill="#faaf5c"
     id="path4077"
     style="stroke-width:0.0356908" />
  <path
     d="m 0.60837228,0.60895989 c -0.00183,-0.00367 -0.00449,-0.00714 -2.035e-4,-0.011014 0.00102,-0.00102 0.00102,-0.00326 0.00163,-0.0053 0.0053,0.00632 -8.138e-4,0.011011 -0.00143,0.016314 z"
     fill="#faaf5c"
     id="path4079"
     style="stroke-width:0.0356908" />
  <path
     d="m 0.54575988,0.51941529 c 0.00265,0.00183 0.00449,0.00326 0.00652,0.00449 -0.00163,0.00163 -0.00347,0.00326 -0.0051,0.0051 -0.00224,-0.00367 -0.00224,-0.00367 -0.00143,-0.00959 z"
     fill="#faaf5c"
     id="path4081"
     style="stroke-width:0.0356908" />
  <path
     d="m 0.51394518,0.57937939 c -6.103e-4,4.068e-4 -0.00143,0.00102 -0.00224,0.00143 -0.00204,0.00102 -0.00449,0.00286 -0.00632,4.069e-4 -0.00163,-0.00224 0.00122,-0.00306 0.00245,-0.00428 0.00225,-0.00286 0.00408,-0.00102 0.00571,0.00102 2.035e-4,2.035e-4 2.035e-4,6.103e-4 4.069e-4,0.00143 z"
     fill="#faaf5c"
     id="path4083"
     style="stroke-width:0.0356908" />
  <path
     d="m 0.37954448,0.58243089 c 0,0.00265 -2.034e-4,0.00428 0,0.00612 2.034e-4,0.00163 8.173e-4,0.00306 0.00122,0.00449 -0.00143,8.138e-4 -0.00306,0.00183 -0.00469,0.00265 -2.034e-4,-0.00877 -2.034e-4,-0.00877 0.00347,-0.013259 z"
     fill="#faaf5c"
     id="path4085"
     style="stroke-width:0.0356908" />
  <path
     d="m 0.26818998,0.61526999 c 0.00143,-0.00306 0.00286,-0.00592 0.00408,-0.00877 4.079e-4,2.07e-4 8.159e-4,4.104e-4 0.00102,4.104e-4 -0.00102,0.00347 -0.00184,0.00714 -0.00306,0.011421 -0.00245,-8.173e-4 -0.00489,-0.00143 -0.00755,-0.00225 0,-4.068e-4 2.042e-4,-8.137e-4 2.042e-4,-0.00122 0.00204,2.035e-4 0.00387,4.105e-4 0.0053,4.105e-4 z"
     fill="#faaf5c"
     id="path4087"
     style="stroke-width:0.0356908" />
  <path
     d="m 0.39687588,0.57367949 c 0.00653,-6.138e-4 0.00265,-0.00755 0.00714,-0.00979 6.139e-4,0.00143 0.00184,0.00306 0.00143,0.00428 -4.069e-4,0.00204 -0.00163,0.00388 -0.00286,0.00551 -0.00122,0.00224 -0.00326,0.00204 -0.00571,0 z"
     fill="#faaf5c"
     id="path4089"
     style="stroke-width:0.0356908" />
  <path
     d="m 0.62815918,0.51554639 c 0.00265,0.00183 0.00347,0.00469 0.00143,0.00653 -0.00163,0.00163 -0.00469,0.00183 -0.00714,-0.00102 0.00204,-0.00163 0.00388,-0.00347 0.00571,-0.00551 z"
     fill="#faaf5c"
     id="path4091"
     style="stroke-width:0.0356908" />
  <path
     d="m 0.34670538,0.54225739 c 0.00163,-0.00122 0.00327,-0.00245 0.0051,-0.00367 0.00163,0.00265 0.00306,0.0049 0.00449,0.00714 4.068e-4,-2.035e-4 0.00102,-4.069e-4 0.00143,-6.103e-4 -0.00122,2.034e-4 -0.00265,0.00102 -0.00326,6.103e-4 -0.00224,-0.00163 -0.00449,-0.00347 -0.00816,-4.069e-4 0,-0.00102 2.035e-4,-0.00204 4.069e-4,-0.00306 z"
     fill="#faaf5c"
     id="path4093"
     style="stroke-width:0.0356908" />
  <path
     d="m 0.57594718,0.55083749 c -0.00143,0.00204 -0.00286,0.00408 -0.00469,0.00673 -0.00122,-0.00102 -0.00244,-0.00183 -0.00367,-0.00265 0.00347,-0.0055 0.00347,-0.0055 0.00836,-0.00408 z"
     fill="#faaf5c"
     id="path4095"
     style="stroke-width:0.0356908" />
  <path
     d="m 0.69729218,0.55245779 c -0.00245,-0.00327 -0.0049,-0.00653 -0.00816,-0.011014 0.00408,0.00102 0.00714,4.069e-4 0.00734,0.00489 0,0.00163 0.00143,0.00327 0.00204,0.0049 -4.104e-4,4.069e-4 -8.173e-4,8.138e-4 -0.00122,0.00122 z"
     fill="#faaf5c"
     id="path4097"
     style="stroke-width:0.0356908" />
  <path
     d="m 0.57736768,0.57326549 c 0.00428,0.00836 0.00428,0.00836 0,0.010604 0,-0.00347 0,-0.00714 0,-0.010604 z"
     fill="#faaf5c"
     id="path4099"
     style="stroke-width:0.0356908" />
  <path
     d="m 0.68403668,0.53674319 c -0.00224,-0.00163 -0.00387,-0.00225 -0.00428,-0.00326 -8.138e-4,-0.00224 -0.00122,-0.00469 -0.00163,-0.00714 -2.034e-4,-8.173e-4 2.034e-4,-0.00163 4.069e-4,-0.00245 8.173e-4,4.069e-4 0.00204,8.173e-4 0.00245,0.00163 0.00102,0.00306 0.00183,0.00632 0.00306,0.011218 z"
     fill="#faaf5c"
     id="path4101"
     style="stroke-width:0.0356908" />
  <path
     d="m 0.37872718,0.53022599 c -0.00286,-0.00591 -0.00286,-0.00591 6.103e-4,-0.00938 0.00367,0.00408 0.00367,0.00408 -6.103e-4,0.00938 z"
     fill="#faaf5c"
     id="path4103"
     style="stroke-width:0.0356908" />
  <path
     d="m 0.31000098,0.63077409 c 4.069e-4,0.00367 -0.00163,0.00591 -0.00428,0.00755 -8.174e-4,6.139e-4 -0.00225,6.139e-4 -0.00326,4.104e-4 -6.139e-4,-2.034e-4 -0.00123,-0.00183 -8.173e-4,-0.00224 4.069e-4,-8.138e-4 0.00163,-0.00122 0.00245,-0.00143 0.00265,-0.00102 0.00265,-8.137e-4 0.00591,-0.00428 z"
     fill="#faaf5c"
     id="path4105"
     style="stroke-width:0.0356908" />
  <path
     d="m 0.54984298,0.59792779 c -0.00367,-0.0051 -0.00306,-0.00673 0.00387,-0.010807 -0.00143,0.00367 -0.00265,0.00693 -0.00387,0.010807 z"
     fill="#faaf5c"
     id="path4107"
     style="stroke-width:0.0356908" />
  <path
     d="m 0.41013498,0.59426599 c 4.069e-4,-8.173e-4 4.069e-4,-0.00102 6.104e-4,-0.00102 0.00265,-0.00143 0.0049,-0.00102 0.00632,0.00163 2.034e-4,4.104e-4 -2.035e-4,0.00143 -6.139e-4,0.00184 -0.00286,0.00183 -0.00449,-4.105e-4 -0.00632,-0.00245 z"
     fill="#faaf5c"
     id="path4109"
     style="stroke-width:0.0356908" />
  <path
     d="m 0.57655388,0.58997949 c -6.103e-4,0.00326 -6.103e-4,0.00571 -0.00367,0.00652 -8.173e-4,2.034e-4 -0.00224,0 -0.00245,-2.035e-4 -2.034e-4,-0.00102 -4.068e-4,-0.00265 2.035e-4,-0.00306 0.00143,-0.00143 0.00347,-0.00204 0.00591,-0.00326 z"
     fill="#faaf5c"
     id="path4111"
     style="stroke-width:0.0356908" />
  <path
     d="m 0.51150038,0.62119469 c -0.0051,0.00326 -0.00612,0.00286 -0.00836,-0.00326 0.00306,0.00122 0.00571,0.00224 0.00836,0.00326 z"
     fill="#faaf5c"
     id="path4113"
     style="stroke-width:0.0356908" />
  <path
     d="m 0.65935648,0.58324819 c 0,0.00122 2.07e-4,0.00265 0,0.00388 -2.034e-4,0.00122 -6.103e-4,0.00224 -0.00122,0.00347 0,0 -0.00163,-2.034e-4 -0.00184,-4.069e-4 -4.069e-4,-0.00122 -0.00102,-0.00265 -8.137e-4,-0.00367 4.068e-4,-0.00143 0.00143,-0.00286 0.00224,-0.00408 6.139e-4,0 0.00102,4.105e-4 0.00163,8.173e-4 z"
     fill="#faaf5c"
     id="path4115"
     style="stroke-width:0.0356908" />
  <path
     d="m 0.51149678,0.58507919 c 0.00143,0.00265 0.00265,0.0051 0.00388,0.00735 -0.0049,6.103e-4 -0.00612,-0.00163 -0.00388,-0.00735 z"
     fill="#faaf5c"
     id="path4117"
     style="stroke-width:0.0356908" />
  <path
     d="m 0.60817238,0.52390519 c -6.139e-4,-0.00102 -0.00163,-0.00204 -0.00143,-0.00286 2.034e-4,-0.00122 0.00183,-0.00306 0.00204,-0.00286 0.00163,6.103e-4 0.00306,0.00183 0.00449,0.00286 -0.00163,8.138e-4 -0.00306,0.00163 -0.0051,0.00286 z"
     fill="#faaf5c"
     id="path4119"
     style="stroke-width:0.0356908" />
  <path
     d="m 0.71238578,0.55756159 c -0.00184,8.173e-4 -0.00347,0.00184 -0.0053,0.00265 -8.173e-4,-0.00102 -0.00265,-0.00245 -4.105e-4,-0.00388 0.00204,-0.00122 0.0049,-0.00306 0.00571,0.00122 z"
     fill="#faaf5c"
     id="path4121"
     style="stroke-width:0.0356908" />
  <path
     d="m 0.64977348,0.56551349 c 6.139e-4,6.139e-4 0.00163,0.00102 0.00183,0.00183 2.07e-4,0.00122 0,0.00245 0,0.00367 -0.00102,0 -0.00224,2.034e-4 -0.00306,-4.069e-4 -0.00183,-0.00102 -0.00143,-0.00265 0,-0.00388 4.105e-4,-4.069e-4 0.00102,-8.173e-4 0.00122,-0.00122 0,0 2.035e-4,-2.034e-4 0,0 z"
     fill="#faaf5c"
     id="path4123"
     style="stroke-width:0.0356908" />
  <path
     d="m 0.30490438,0.60731809 c 0.00183,0.00183 0.00265,0.00286 0.00387,0.00408 -8.137e-4,6.103e-4 -0.00163,0.00163 -0.00224,0.00163 -0.00102,2.034e-4 -0.00204,-4.069e-4 -0.00327,-6.103e-4 6.138e-4,-0.00143 0.00102,-0.00306 0.00163,-0.0051 z"
     fill="#faaf5c"
     id="path4125"
     style="stroke-width:0.0356908" />
  <path
     d="m 0.49518258,0.59916269 c 0.00163,4.069e-4 0.00245,2.035e-4 0.00306,6.104e-4 0.00122,0.00102 0.00224,0.00224 0.00327,0.00367 0,0 -6.139e-4,0.00102 -8.173e-4,8.138e-4 -0.00163,-6.103e-4 -0.00306,-0.00122 -0.00449,-0.00224 -4.069e-4,-2.034e-4 -4.069e-4,-0.00143 -0.00102,-0.00286 z"
     fill="#faaf5c"
     id="path4127"
     style="stroke-width:0.0356908" />
  <path
     d="m 0.59960298,0.64117789 c 0.00102,-0.00428 0.00102,-0.00428 0.00591,-0.0049 -0.00265,0.00204 -0.00428,0.00347 -0.00591,0.0049 z"
     fill="#faaf5c"
     id="path4129"
     style="stroke-width:0.0356908" />
  <path
     d="m 0.50027918,0.50657019 c -0.00122,-0.00143 -0.00224,-0.00244 -0.00265,-0.00347 -2.071e-4,-4.068e-4 0.00122,-0.00204 0.00183,-0.00204 8.137e-4,0 0.00265,8.173e-4 0.00265,0.00122 -2.035e-4,0.00122 -0.00102,0.00245 -0.00184,0.00428 z"
     fill="#faaf5c"
     id="path4131"
     style="stroke-width:0.0356908" />
  <path
     d="m 0.54514958,0.60752869 c 0.00265,0.00428 -6.103e-4,0.00632 -0.00347,0.00836 0.00122,-0.00265 0.00224,-0.0053 0.00347,-0.00836 z"
     fill="#faaf5c"
     id="path4133"
     style="stroke-width:0.0356908" />
  <path
     d="m 0.61224828,0.62833639 c -0.00122,0.00143 -0.00204,0.00245 -0.00306,0.00327 -8.173e-4,-6.139e-4 -0.00225,-0.00163 -0.00204,-0.00204 2.035e-4,-0.00102 0.00122,-0.00224 0.00204,-0.00286 4.068e-4,-2.034e-4 0.00163,8.173e-4 0.00306,0.00163 z"
     fill="#faaf5c"
     id="path4135"
     style="stroke-width:0.0356908" />
  <path
     d="m 0.64998048,0.55960309 c -2.034e-4,-0.00286 0.00143,-0.00347 0.00347,-0.00224 0.00183,0.00102 0.00326,0.00306 0.00571,0.00551 -0.00408,-0.00143 -0.00673,-0.00245 -0.00918,-0.00326 z"
     fill="#faaf5c"
     id="path4137"
     style="stroke-width:0.0356908" />
  <path
     d="m 0.69647848,0.56346839 c -0.00347,4.069e-4 -0.00408,-0.00204 -0.00551,-0.00489 0.00388,2.034e-4 0.00571,0.00163 0.0053,0.0051 z"
     fill="#faaf5c"
     id="path4139"
     style="stroke-width:0.0356908" />
  <path
     d="m 0.55330848,0.55450649 c -0.00367,0.00163 -0.00449,-0.00102 -0.00632,-0.00367 0.00388,6.103e-4 0.00388,6.103e-4 0.00632,0.00367 z"
     fill="#faaf5c"
     id="path4141"
     style="stroke-width:0.0356908" />
  <path
     d="m 0.54698408,0.50576359 c -6.138e-4,2.034e-4 -0.00143,4.069e-4 -0.00204,2.034e-4 -0.00122,-4.104e-4 -0.00224,-0.00122 -0.00326,-0.00204 -2.034e-4,0 4.069e-4,-0.00122 4.069e-4,-0.00122 0.00122,2.07e-4 0.00245,4.105e-4 0.00367,8.173e-4 6.104e-4,2.035e-4 0.00122,6.103e-4 0.00183,8.174e-4 0,6.103e-4 -2.035e-4,0.00102 -6.104e-4,0.00143 z"
     fill="#faaf5c"
     id="path4143"
     style="stroke-width:0.0356908" />
  <path
     d="m 0.54270118,0.66259589 c 4.105e-4,6.139e-4 8.174e-4,6.139e-4 8.174e-4,8.174e-4 -2.035e-4,0.00163 -6.139e-4,0.00326 -0.00102,0.00489 -4.069e-4,-2.035e-4 -0.00102,-2.035e-4 -0.00122,-4.069e-4 -0.00122,-0.00183 -0.00122,-0.00367 0.00143,-0.0053 z"
     fill="#faaf5c"
     id="path4145"
     style="stroke-width:0.0356908" />
  <path
     d="m 0.42645638,0.59407319 c -0.00102,0.00183 -0.00204,0.00367 -0.00286,0.00571 -6.139e-4,-0.00265 -0.00204,-0.00571 0.00286,-0.00571 z"
     fill="#faaf5c"
     id="path4147"
     style="stroke-width:0.0356908" />
  <path
     d="m 0.33569478,0.58937279 c 2.035e-4,-4.069e-4 2.035e-4,-8.138e-4 6.103e-4,-0.00102 0.00143,-0.00102 0.00306,-0.00184 0.00449,-0.00286 2.07e-4,4.069e-4 6.138e-4,0.00102 6.138e-4,0.00122 -0.00143,0.00143 -0.00306,0.00265 -0.00469,0.00408 -4.105e-4,-6.103e-4 -8.173e-4,-0.00102 -0.00102,-0.00143 z"
     fill="#faaf5c"
     id="path4149"
     style="stroke-width:0.0356908" />
  <path
     d="m 0.64059388,0.58958329 c -2.035e-4,0 -4.069e-4,2.035e-4 -6.103e-4,2.035e-4 -0.00122,-0.00102 -0.00265,-0.00204 -0.00388,-0.00306 0,0 6.104e-4,-0.00102 8.174e-4,-0.00102 0.00143,8.173e-4 0.00306,0.00163 0.00449,0.00245 -2.034e-4,6.103e-4 -4.105e-4,0.00102 -8.173e-4,0.00143 z"
     fill="#faaf5c"
     id="path4151"
     style="stroke-width:0.0356908" />
  <path
     d="m 0.31693218,0.60181809 c -4.069e-4,6.103e-4 -4.069e-4,0.00102 -6.103e-4,0.00102 -0.00163,4.105e-4 -0.00306,6.139e-4 -0.00469,0.00102 0,-4.069e-4 -2.034e-4,-0.00102 -2.034e-4,-0.00122 0.00143,-0.00224 0.00306,-0.00265 0.0055,-8.138e-4 z"
     fill="#faaf5c"
     id="path4153"
     style="stroke-width:0.0356908" />
  <path
     d="m 0.56636068,0.63567079 c -0.00204,0.00183 -0.00388,0.00347 -0.00673,0.00591 6.103e-4,-0.00449 0.00367,-0.0053 0.0051,-0.00734 6.139e-4,6.103e-4 0.00122,0.00102 0.00163,0.00143 z"
     fill="#faaf5c"
     id="path4155"
     style="stroke-width:0.0356908" />
  <path
     d="m 0.45438798,0.60425219 c -2.034e-4,0.00286 -4.069e-4,0.00489 -6.103e-4,0.00816 -0.00347,-0.00387 -0.00347,-0.00591 6.103e-4,-0.00816 z"
     fill="#faaf5c"
     id="path4157"
     style="stroke-width:0.0356908" />
  <path
     d="m 0.47825438,0.57366529 c 0,0.00184 2.035e-4,0.00367 0,0.00551 0,6.139e-4 -0.00143,0.00102 -0.00224,0.00163 -4.105e-4,-0.00102 -0.00143,-0.00224 -0.00102,-0.00265 8.173e-4,-0.00163 0.00225,-0.00286 0.00326,-0.00449 z"
     fill="#faaf5c"
     id="path4159"
     style="stroke-width:0.0356908" />
  <path
     d="m 0.68383678,0.57816229 c 0.00143,-0.00245 0.00286,-0.00489 0.00428,-0.00754 l -2.07e-4,2.034e-4 c 6.139e-4,8.138e-4 0.00143,0.00163 0.00204,0.00245 -0.00204,0.00143 -0.00428,0.00306 -0.00632,0.00449 z"
     fill="#faaf5c"
     id="path4161"
     style="stroke-width:0.0356908" />
  <path
     d="m 0.60001348,0.62955339 c -0.00143,0.00102 -0.00245,0.00183 -0.00347,0.00265 -4.068e-4,-8.138e-4 -0.00122,-0.00163 -0.00102,-0.00224 4.069e-4,-0.00102 0.00143,-0.00163 0.00224,-0.00224 2.035e-4,-2.035e-4 0.00102,8.173e-4 0.00224,0.00184 z"
     fill="#faaf5c"
     id="path4163"
     style="stroke-width:0.0356908" />
  <path
     d="m 0.43664608,0.62547399 c -0.00102,0.00143 -0.00204,0.00286 -0.00367,0.0049 -0.00102,-0.00388 2.035e-4,-0.0053 0.00367,-0.0049 z"
     fill="#faaf5c"
     id="path4165"
     style="stroke-width:0.0356908" />
  <path
     d="m 0.40075188,0.51430799 c 8.138e-4,0.00102 0.00163,0.00163 0.00204,0.00265 0,2.034e-4 -0.00102,0.00122 -0.00102,0.00122 -0.00102,-6.103e-4 -0.00183,-0.00143 -0.00286,-0.00224 6.139e-4,-4.105e-4 0.00102,-8.173e-4 0.00184,-0.00163 z"
     fill="#faaf5c"
     id="path4167"
     style="stroke-width:0.0356908" />
  <path
     d="m 0.60164098,0.51695979 c -0.00102,-0.00122 -0.00224,-0.00244 -0.00326,-0.00367 0,0 4.069e-4,-6.139e-4 6.103e-4,-0.00102 0.00143,0.00102 0.00286,0.00204 0.00428,0.00306 -4.068e-4,4.105e-4 -0.00102,0.00102 -0.00163,0.00163 z"
     fill="#faaf5c"
     id="path4169"
     style="stroke-width:0.0356908" />
  <path
     d="m 0.55718098,0.51859799 c 0,0.00183 0,0.00387 0,0.00571 -0.00245,-0.00286 -0.00245,-0.00286 0,-0.00571 z"
     fill="#faaf5c"
     id="path4171"
     style="stroke-width:0.0356908" />
  <path
     d="m 0.44113598,0.55469919 c 0.00163,-0.00143 0.00286,-0.00245 0.00428,-0.00367 4.105e-4,8.173e-4 8.174e-4,0.00122 8.174e-4,0.00163 -6.139e-4,0.00224 -0.00143,0.00428 -0.0051,0.00204 z"
     fill="#faaf5c"
     id="path4173"
     style="stroke-width:0.0356908" />
  <path
     d="m 0.47845788,0.57386869 c -2.035e-4,-8.173e-4 -8.173e-4,-0.00183 -6.139e-4,-0.00265 0,-0.00102 6.139e-4,-0.00183 0.00122,-0.00265 2.034e-4,-2.035e-4 0.00183,4.104e-4 0.00183,6.138e-4 2.07e-4,0.00102 0,0.00224 -4.069e-4,0.00306 -4.069e-4,6.103e-4 -0.00143,0.00102 -0.00204,0.00163 z"
     fill="#faaf5c"
     id="path4175"
     style="stroke-width:0.0356908" />
  <path
     d="m 0.64059738,0.57591379 c -0.00102,-0.00204 -0.00204,-0.00408 -0.00367,-0.00755 0.00388,0.00204 0.0051,0.00388 0.0053,0.00652 -6.103e-4,4.105e-4 -0.00102,8.173e-4 -0.00163,0.00102 z"
     fill="#faaf5c"
     id="path4177"
     style="stroke-width:0.0356908" />
  <path
     d="m 0.39055508,0.54369569 c -0.00102,-0.00163 -0.00183,-0.00245 -0.00183,-0.00326 0,-6.139e-4 8.173e-4,-0.00143 0.00143,-0.00204 6.103e-4,8.173e-4 0.00163,0.00163 0.00183,0.00245 2.035e-4,4.068e-4 -6.103e-4,0.00122 -0.00143,0.00286 z"
     fill="#faaf5c"
     id="path4179"
     style="stroke-width:0.0356908" />
  <path
     d="m 0.51496238,0.61771119 c 6.139e-4,-0.00163 6.139e-4,-0.00286 0.00122,-0.00326 8.173e-4,-6.139e-4 0.00224,-4.104e-4 0.00326,-6.139e-4 -4.069e-4,0.00102 -4.069e-4,0.00204 -0.00122,0.00286 -4.069e-4,6.139e-4 -0.00163,6.139e-4 -0.00326,0.00102 z"
     fill="#faaf5c"
     id="path4181"
     style="stroke-width:0.0356908" />
  <path
     d="m 0.28123888,0.61548059 c -0.00143,-2.035e-4 -0.00286,-4.069e-4 -0.00408,-6.104e-4 -2.042e-4,0 -2.042e-4,-0.00122 -2.042e-4,-0.00183 0.00163,0 0.00326,0 0.00469,0 0,8.138e-4 -2.038e-4,0.00163 -4.08e-4,0.00244 z"
     fill="#faaf5c"
     id="path4183"
     style="stroke-width:0.0356908" />
  <path
     d="m 0.33671558,0.54695789 c 0.00102,-0.00122 0.00183,-0.00265 0.00285,-0.00388 0.00204,8.138e-4 0.00163,0.00163 -0.00285,0.00388 z"
     fill="#faaf5c"
     id="path4185"
     style="stroke-width:0.0356908" />
  <path
     d="m 0.44521548,0.57305499 c -0.00143,0.00306 -0.00204,0.00449 -0.00326,0.00714 -2.035e-4,-0.00428 -2.035e-4,-0.00428 0.00326,-0.00714 z"
     fill="#faaf5c"
     id="path4187"
     style="stroke-width:0.0356908" />
  <path
     d="m 0.56269158,0.52900899 c 0.00163,-0.00143 0.00326,-0.00306 0.00469,-0.00449 4.105e-4,2.034e-4 6.139e-4,6.103e-4 0.00102,8.137e-4 -0.00163,0.00163 -0.00306,0.00306 -0.00469,0.00469 -4.104e-4,-4.104e-4 -8.173e-4,-8.173e-4 -0.00102,-0.00102 z"
     fill="#faaf5c"
     id="path4189"
     style="stroke-width:0.0356908" />
  <path
     d="m 0.60918598,0.56958939 c -4.069e-4,0.00122 -8.173e-4,0.00245 -0.00122,0.00367 0,0 -0.00143,-4.069e-4 -0.00224,-6.139e-4 6.103e-4,-0.00122 0.00143,-0.00244 0.00204,-0.00367 4.068e-4,2.034e-4 0.00102,4.068e-4 0.00143,6.103e-4 z"
     fill="#faaf5c"
     id="path4191"
     style="stroke-width:0.0356908" />
  <path
     d="m 0.52005898,0.55796129 c 0.00163,-0.00265 0.00265,-0.00408 0.00408,-0.00632 6.139e-4,0.00408 6.139e-4,0.00408 -0.00408,0.00632 z"
     fill="#faaf5c"
     id="path4193"
     style="stroke-width:0.0356908" />
  <path
     d="m 0.67587778,0.55062689 c 0.00408,0.00245 4.068e-4,0.00408 0,0.00591 0,-0.00204 0,-0.00387 0,-0.00591 z"
     fill="#faaf5c"
     id="path4195"
     style="stroke-width:0.0356908" />
  <path
     d="m 0.64243188,0.55510609 c 0.00102,0.00102 0.00204,0.00224 0.00327,0.00326 -6.139e-4,2.07e-4 -0.00143,0.00102 -0.00163,8.173e-4 -0.00102,-8.173e-4 -0.00204,-0.00163 -0.00286,-0.00265 2.07e-4,-4.069e-4 8.173e-4,-8.173e-4 0.00122,-0.00143 z"
     fill="#faaf5c"
     id="path4197"
     style="stroke-width:0.0356908" />
  <path
     d="m 0.61061718,0.56122349 c -0.00102,0.00183 -0.00224,0.00367 -0.00326,0.00551 -6.103e-4,-0.00367 -6.103e-4,-0.00367 0.00326,-0.00551 0,0 0,2.034e-4 0,0 z"
     fill="#faaf5c"
     id="path4199"
     style="stroke-width:0.0356908" />
  <path
     d="m 0.26349808,0.63933269 c 0.00204,-8.173e-4 0.00367,-0.00122 0.00551,-0.00204 -0.00184,0.00306 -0.00184,0.00306 -0.00551,0.00204 z"
     fill="#faaf5c"
     id="path4201"
     style="stroke-width:0.0356908" />
  <path
     d="m 0.22658418,0.60019059 c 0.00163,0.00102 0.00347,0.00224 0.00551,0.00367 -0.00408,0.00143 -0.00489,-8.137e-4 -0.00632,-0.00244 2.038e-4,-4.104e-4 4.08e-4,-8.173e-4 8.159e-4,-0.00122 z"
     fill="#faaf5c"
     id="path4203"
     style="stroke-width:0.0356908" />
  <path
     d="m 0.65323908,0.53024029 c -8.173e-4,-0.00184 -0.00571,-0.00306 -4.069e-4,-0.00612 0,0.00245 2.035e-4,0.00428 4.069e-4,0.00612 z"
     fill="#faaf5c"
     id="path4205"
     style="stroke-width:0.0356908" />
  <path
     d="m 0.58206098,0.59569359 c 0,0.00163 -2.034e-4,0.00326 -2.034e-4,0.00571 -0.00286,-0.00245 -0.00306,-0.00408 2.034e-4,-0.00571 z"
     fill="#faaf5c"
     id="path4207"
     style="stroke-width:0.0356908" />
  <path
     d="m 0.58573358,0.63178769 c -0.00122,6.103e-4 -0.00244,0.00122 -0.00367,0.00183 0,0 -0.00102,-0.00163 -8.173e-4,-0.00163 0.00102,-8.173e-4 0.00224,-0.00143 0.00347,-0.00224 2.035e-4,6.138e-4 6.103e-4,0.00143 0.00102,0.00204 z"
     fill="#faaf5c"
     id="path4209"
     style="stroke-width:0.0356908" />
  <path
     d="m 0.31244588,0.62382859 c 0.00102,-0.00143 0.00204,-0.00286 0.00306,-0.00449 4.104e-4,2.034e-4 0.00102,8.173e-4 0.00102,8.173e-4 -8.173e-4,0.00143 -0.00163,0.00306 -0.00265,0.00449 -6.103e-4,-2.034e-4 -0.00102,-6.138e-4 -0.00143,-8.173e-4 z"
     fill="#faaf5c"
     id="path4211"
     style="stroke-width:0.0356908" />
  <path
     d="m 0.61143448,0.55164049 c 2.035e-4,-0.00143 4.069e-4,-0.00306 6.139e-4,-0.00469 0.00204,0.00183 0.00204,0.00183 -6.139e-4,0.00469 z"
     fill="#faaf5c"
     id="path4213"
     style="stroke-width:0.0356908" />
  <path
     d="m 0.62101748,0.53921299 c 4.069e-4,0.00143 8.173e-4,0.00224 6.139e-4,0.00286 -2.07e-4,6.103e-4 -0.00102,0.00102 -0.00163,0.00163 -4.068e-4,-6.103e-4 -0.00122,-0.00143 -0.00102,-0.00204 0,-6.139e-4 8.138e-4,-0.00122 0.00204,-0.00245 z"
     fill="#faaf5c"
     id="path4215"
     style="stroke-width:0.0356908" />
  <path
     d="m 0.63019358,0.54124729 c -0.00163,-2.07e-4 -0.00306,-4.104e-4 -0.00469,-6.138e-4 0.00224,-0.00306 0.00224,-0.00306 0.00469,6.138e-4 z"
     fill="#faaf5c"
     id="path4217"
     style="stroke-width:0.0356908" />
  <path
     d="m 0.67771578,0.54041929 c -6.138e-4,-0.00163 -0.00143,-0.00306 -0.00204,-0.00489 8.173e-4,-2.034e-4 0.00143,-4.104e-4 0.00143,-4.104e-4 6.138e-4,0.00163 0.00102,0.00327 0.00163,0.0049 -2.07e-4,2.035e-4 -6.139e-4,2.035e-4 -0.00102,4.069e-4 z"
     fill="#faaf5c"
     id="path4219"
     style="stroke-width:0.0356908" />
  <path
     d="m 0.57247448,0.53716079 c -0.00122,-4.069e-4 -0.00224,-0.00102 -0.00347,-0.00163 0,0 4.069e-4,-0.00102 6.103e-4,-0.00163 0.00122,6.103e-4 0.00224,0.00122 0.00347,0.00163 -2.035e-4,6.103e-4 -4.069e-4,0.00122 -6.139e-4,0.00163 z"
     fill="#faaf5c"
     id="path4221"
     style="stroke-width:0.0356908" />
  <path
     d="m 0.51598308,0.53593659 c -8.137e-4,-8.138e-4 -0.00183,-0.00143 -0.00163,-0.00163 4.104e-4,-8.138e-4 0.00102,-0.00163 0.00163,-0.00245 4.105e-4,4.104e-4 0.00143,8.173e-4 0.00143,0.00102 -4.069e-4,0.00102 -8.138e-4,0.00204 -0.00143,0.00306 z"
     fill="#faaf5c"
     id="path4223"
     style="stroke-width:0.0356908" />
  <path
     d="m 0.61224828,0.52880909 c -0.00102,8.173e-4 -0.00163,0.00143 -0.00225,0.00204 -6.103e-4,-8.138e-4 -0.00143,-0.00163 -0.00183,-0.00244 -2.034e-4,-4.104e-4 8.138e-4,-0.00122 0.00143,-0.00163 8.138e-4,4.068e-4 0.00163,0.00102 0.00265,0.00204 z"
     fill="#faaf5c"
     id="path4225"
     style="stroke-width:0.0356908" />
  <path
     d="m 0.56411568,0.61771839 c 0.00143,0 0.00306,-2.07e-4 0.0049,-2.07e-4 -0.00224,0.00245 -0.00224,0.00245 -0.0049,2.07e-4 z"
     fill="#faaf5c"
     id="path4227"
     style="stroke-width:0.0356908" />
  <path
     d="m 0.55188088,0.57468599 c -0.00224,6.139e-4 -0.00408,0.00122 -0.00673,0.00183 0.00204,-0.00306 0.00388,-0.00408 0.00673,-0.00183 z"
     fill="#faaf5c"
     id="path4229"
     style="stroke-width:0.0356908" />
  <path
     d="m 0.31265288,0.59508689 c 0.00143,-4.069e-4 0.00265,-8.138e-4 0.00408,-0.00122 2.07e-4,4.104e-4 2.07e-4,0.00102 4.104e-4,0.00143 -0.00122,4.104e-4 -0.00265,0.00102 -0.00388,0.00143 -2.035e-4,-4.068e-4 -4.069e-4,-0.00102 -6.103e-4,-0.00163 z"
     fill="#faaf5c"
     id="path4231"
     style="stroke-width:0.0356908" />
  <path
     d="m 0.37159258,0.58182059 c -8.173e-4,0.00102 -0.00122,0.00163 -0.00163,0.00225 -4.104e-4,-4.105e-4 -0.00122,-8.174e-4 -0.00122,-0.00122 0,-8.174e-4 4.069e-4,-0.00163 8.138e-4,-0.00245 6.139e-4,4.068e-4 0.00102,8.173e-4 0.00204,0.00143 z"
     fill="#faaf5c"
     id="path4233"
     style="stroke-width:0.0356908" />
  <path
     d="m 0.46172958,0.59568999 c -4.069e-4,8.174e-4 -6.103e-4,0.00143 -0.00102,0.00163 -8.138e-4,6.139e-4 -0.00163,0.00122 -0.00244,0.00183 -2.034e-4,-4.069e-4 -8.173e-4,-0.00102 -6.138e-4,-0.00102 8.173e-4,-8.173e-4 0.00184,-0.00163 0.00286,-0.00245 2.035e-4,-2.034e-4 4.105e-4,-2.034e-4 0.00122,0 z"
     fill="#faaf5c"
     id="path4235"
     style="stroke-width:0.0356908" />
  <path
     d="m 0.57105398,0.64974369 c -0.00327,-0.00204 -0.00306,-0.00449 -8.173e-4,-0.00857 2.034e-4,0.00367 4.068e-4,0.00632 8.173e-4,0.00857 0,0 -2.07e-4,2.034e-4 0,0 z"
     fill="#faaf5c"
     id="path4237"
     style="stroke-width:0.0356908" />
  <path
     d="m 0.37832028,0.61874979 c 0.00122,-0.00102 0.00265,-0.00204 0.00449,-0.00347 -2.034e-4,0.00122 0,0.00204 -4.068e-4,0.00224 -0.00102,8.174e-4 -0.00224,0.00163 -0.00347,0.00225 -2.035e-4,-4.105e-4 -4.105e-4,-8.173e-4 -6.132e-4,-0.00102 z"
     fill="#faaf5c"
     id="path4239"
     style="stroke-width:0.0356908" />
  <path
     d="m 0.48233388,0.60874929 c -0.00122,-4.069e-4 -0.00224,-6.103e-4 -0.00347,-0.00102 2.035e-4,-6.103e-4 4.069e-4,-0.00122 6.103e-4,-0.00163 0.00102,4.068e-4 0.00225,8.173e-4 0.00326,0.00122 0,4.068e-4 -2.035e-4,0.00102 -4.069e-4,0.00143 z"
     fill="#faaf5c"
     id="path4241"
     style="stroke-width:0.0356908" />
  <path
     d="m 0.57084698,0.64995069 c 0.00224,-2.034e-4 0.00449,-4.069e-4 0.0053,0.00326 -0.00245,-2.034e-4 -0.00388,-0.00163 -0.0053,-0.00326 z"
     fill="#faaf5c"
     id="path4243"
     style="stroke-width:0.0356908" />
  <path
     d="m 0.59450278,0.60507669 c -0.00122,8.138e-4 -0.00204,0.00143 -0.00286,0.00204 0,0 -0.00102,-0.00102 -0.00102,-0.00122 4.069e-4,-0.00102 0.00102,-0.00183 0.00163,-0.00265 6.139e-4,4.105e-4 0.00122,8.173e-4 0.00224,0.00184 z"
     fill="#faaf5c"
     id="path4245"
     style="stroke-width:0.0356908" />
  <path
     d="m 0.59185458,0.57304779 c 4.104e-4,-0.00224 6.138e-4,-0.00449 0.00102,-0.00653 4.069e-4,0 8.173e-4,2.034e-4 0.00143,2.034e-4 -2.035e-4,0.00225 -6.104e-4,0.00428 -8.174e-4,0.00653 -8.137e-4,-2.035e-4 -0.00122,-2.035e-4 -0.00163,-2.035e-4 z"
     fill="#faaf5c"
     id="path4247"
     style="stroke-width:0.0356908" />
  <path
     d="m 0.60245468,0.61323559 c 0.00122,-4.104e-4 0.00265,-6.139e-4 0.00388,-0.00102 2.035e-4,4.068e-4 2.035e-4,8.173e-4 4.069e-4,0.00143 -0.00122,4.069e-4 -0.00244,8.173e-4 -0.00367,0.00122 -2.034e-4,-4.069e-4 -4.104e-4,-0.00102 -6.139e-4,-0.00163 z"
     fill="#faaf5c"
     id="path4249"
     style="stroke-width:0.0356908" />
  <path
     d="m 0.50354128,0.63729119 c -0.00122,4.104e-4 -0.00204,8.173e-4 -0.00224,6.139e-4 -6.103e-4,-8.174e-4 -0.00102,-0.00163 -0.00163,-0.00265 6.139e-4,0 0.00143,-4.068e-4 0.00184,-2.034e-4 8.137e-4,4.069e-4 0.00122,0.00122 0.00204,0.00224 z"
     fill="#faaf5c"
     id="path4251"
     style="stroke-width:0.0356908" />
  <path
     d="m 0.34201918,0.62423909 c 0,0.00122 2.035e-4,0.00265 2.035e-4,0.00388 -4.069e-4,0 -0.00122,0 -0.00122,-2.034e-4 -2.035e-4,-0.00122 -4.069e-4,-0.00245 -4.069e-4,-0.00367 4.069e-4,2.034e-4 8.173e-4,0 0.00143,0 z"
     fill="#faaf5c"
     id="path4253"
     style="stroke-width:0.0356908" />
  <path
     d="m 0.40442448,0.63058129 c -0.00122,6.139e-4 -0.00224,0.00143 -0.00347,0.00204 -2.035e-4,-4.104e-4 -4.069e-4,-6.138e-4 -6.103e-4,-0.00102 0.00102,-8.173e-4 0.00224,-0.00163 0.00326,-0.00245 2.034e-4,4.069e-4 6.139e-4,0.00102 8.173e-4,0.00143 z"
     fill="#faaf5c"
     id="path4255"
     style="stroke-width:0.0356908" />
  <path
     d="m 0.50619668,0.62711569 c 8.174e-4,0.00224 0.00122,0.00367 0.00225,0.00612 -0.00286,-0.00183 -0.00367,-0.00326 -0.00225,-0.00612 z"
     fill="#faaf5c"
     id="path4257"
     style="stroke-width:0.0356908" />
  <path
     d="m 0.35098828,0.53471589 c 6.103e-4,-0.00122 0.00122,-0.00224 0.00183,-0.00347 4.069e-4,2.07e-4 0.00102,6.139e-4 0.00102,6.139e-4 -4.105e-4,0.00122 -0.00102,0.00224 -0.00163,0.00347 -4.068e-4,-2.034e-4 -8.137e-4,-4.068e-4 -0.00122,-6.103e-4 z"
     fill="#faaf5c"
     id="path4259"
     style="stroke-width:0.0356908" />
  <path
     d="m 0.61061718,0.56143399 c 0,-0.00204 0,-0.00408 0,-0.00591 4.069e-4,0 8.137e-4,-2.035e-4 0.00102,-2.035e-4 4.104e-4,0.00102 0.00122,0.00204 0.00102,0.00265 -2.034e-4,0.00102 -0.00143,0.00204 -0.00204,0.00347 z"
     fill="#faaf5c"
     id="path4261"
     style="stroke-width:0.0356908" />
  <path
     d="m 0.49110308,0.55531659 c -8.173e-4,-6.138e-4 -0.00122,-0.00102 -0.00163,-0.00143 8.138e-4,-6.139e-4 0.00163,-0.00102 0.00265,-0.00143 2.034e-4,-2.035e-4 8.137e-4,2.034e-4 0.00122,4.069e-4 -8.138e-4,6.138e-4 -0.00143,0.00143 -0.00224,0.00245 z"
     fill="#faaf5c"
     id="path4263"
     style="stroke-width:0.0356908" />
  <path
     d="m 0.62937978,0.55062689 c 0,0.00143 0,0.00265 0,0.00408 -4.068e-4,0 -6.103e-4,0 -0.00102,0 0,-0.00143 0,-0.00265 0,-0.00408 4.069e-4,0 8.138e-4,0 0.00102,0 z"
     fill="#faaf5c"
     id="path4265"
     style="stroke-width:0.0356908" />
  <path
     d="m 0.63835248,0.55735099 c -0.00102,6.139e-4 -0.00163,0.00163 -0.00184,0.00143 -8.137e-4,-6.103e-4 -0.00163,-0.00122 -0.00244,-0.00204 4.069e-4,-4.069e-4 0.00102,-0.00143 0.00122,-0.00122 0.00102,4.069e-4 0.00183,0.00102 0.00306,0.00183 z"
     fill="#faaf5c"
     id="path4267"
     style="stroke-width:0.0356908" />
  <path
     d="m 0.33222918,0.57121329 c -0.00102,-0.00102 -0.00184,-0.00204 -0.00286,-0.00306 6.103e-4,-6.103e-4 0.00102,-0.00102 0.00163,-0.00163 8.137e-4,0.00122 0.00143,0.00245 0.00224,0.00367 -4.068e-4,4.068e-4 -8.137e-4,8.137e-4 -0.00102,0.00102 z"
     fill="#faaf5c"
     id="path4269"
     style="stroke-width:0.0356908" />
  <path
     d="m 0.61305838,0.51145629 c -8.137e-4,8.173e-4 -0.00143,0.00122 -0.00204,0.00184 -4.069e-4,-8.173e-4 -0.00122,-0.00143 -0.00122,-0.00224 0,-4.069e-4 8.173e-4,-0.00102 0.00122,-0.00143 6.103e-4,6.103e-4 0.00122,0.00102 0.00204,0.00183 z"
     fill="#faaf5c"
     id="path4271"
     style="stroke-width:0.0356908" />
  <path
     d="m 0.23412778,0.58959049 c -6.117e-4,2.034e-4 -0.00122,6.139e-4 -0.00163,6.139e-4 -4.079e-4,0 -6.121e-4,-8.174e-4 -8.159e-4,-0.00122 6.118e-4,-2.035e-4 0.00122,-4.069e-4 0.00184,-4.069e-4 2.038e-4,-2.07e-4 4.079e-4,4.069e-4 6.117e-4,0.00102 z"
     fill="#faaf5c"
     id="path4273"
     style="stroke-width:0.0356908" />
  <path
     d="m 0.62978668,0.59284189 c -8.137e-4,-8.173e-4 -0.00163,-0.00122 -0.00163,-0.00163 0,-6.138e-4 4.105e-4,-0.00143 0.00102,-0.00184 2.034e-4,-2.035e-4 0.00143,4.104e-4 0.00143,8.173e-4 0,8.137e-4 -4.068e-4,0.00143 -8.173e-4,0.00265 z"
     fill="#faaf5c"
     id="path4275"
     style="stroke-width:0.0356908" />
  <path
     d="m 0.58634388,0.60181099 c 4.105e-4,0.00102 8.173e-4,0.00204 0.00143,0.00326 -6.103e-4,2.035e-4 -0.00122,4.105e-4 -0.00163,6.139e-4 -2.035e-4,-0.00122 -4.069e-4,-0.00224 -6.103e-4,-0.00347 2.034e-4,-2.035e-4 4.068e-4,-2.035e-4 8.137e-4,-4.069e-4 z"
     fill="#faaf5c"
     id="path4277"
     style="stroke-width:0.0356908" />
  <path
     d="m 0.48519268,0.60650429 c -4.104e-4,-0.00122 -0.00102,-0.00204 -8.173e-4,-0.00224 4.069e-4,-6.139e-4 0.00122,-0.00122 0.00183,-0.00163 2.034e-4,4.105e-4 8.173e-4,0.00122 8.173e-4,0.00143 -4.068e-4,8.138e-4 -0.00102,0.00122 -0.00183,0.00244 z"
     fill="#faaf5c"
     id="path4279"
     style="stroke-width:0.0356908" />
  <path
     d="m 0.56350178,0.57224119 c -0.00102,8.173e-4 -0.00163,0.00122 -0.00244,0.00163 -4.104e-4,-4.069e-4 -0.00102,-0.00122 -8.173e-4,-0.00122 4.069e-4,-6.103e-4 0.00102,-0.00122 0.00163,-0.00163 2.034e-4,0 8.173e-4,8.173e-4 0.00163,0.00122 z"
     fill="#faaf5c"
     id="path4281"
     style="stroke-width:0.0356908" />
  <path
     d="m 0.48865468,0.56408229 c 0.00102,2.034e-4 0.00183,6.103e-4 0.00286,8.137e-4 -2.035e-4,4.105e-4 -4.069e-4,0.00102 -4.069e-4,0.00102 -0.00102,-2.034e-4 -0.00184,-4.069e-4 -0.00286,-8.173e-4 0,-2.035e-4 2.034e-4,-6.103e-4 4.068e-4,-0.00102 z"
     fill="#faaf5c"
     id="path4283"
     style="stroke-width:0.0356908" />
  <path
     d="m 0.34405358,0.56511019 c 4.069e-4,6.103e-4 8.173e-4,0.00122 0.00122,0.00163 -6.139e-4,4.068e-4 -0.00102,0.00102 -0.00143,0.00102 -4.069e-4,0 -8.174e-4,-8.173e-4 -0.00122,-0.00122 4.068e-4,-4.069e-4 8.173e-4,-8.173e-4 0.00143,-0.00143 z"
     fill="#faaf5c"
     id="path4285"
     style="stroke-width:0.0356908" />
  <path
     d="m 0.43114258,0.56693759 c 2.07e-4,0.00102 4.105e-4,0.00163 2.07e-4,0.00224 -2.07e-4,4.069e-4 -0.00102,8.173e-4 -0.00143,0.00102 -2.034e-4,-6.139e-4 -6.103e-4,-0.00122 -4.068e-4,-0.00183 2.034e-4,-4.105e-4 8.173e-4,-8.174e-4 0.00163,-0.00143 z"
     fill="#faaf5c"
     id="path4287"
     style="stroke-width:0.0356908" />
  <path
     d="m 0.29164238,0.58040009 c -0.00102,0.00102 -0.00204,0.00204 -0.00306,0.00286 -4.079e-4,-4.105e-4 -0.00102,-8.173e-4 -0.00143,-0.00122 8.159e-4,-0.00122 0.00184,-0.00225 0.00265,-0.00347 6.117e-4,6.139e-4 0.00122,0.00122 0.00184,0.00184 z"
     fill="#faaf5c"
     id="path4289"
     style="stroke-width:0.0356908" />
  <path
     d="m 0.45867808,0.63443949 c -4.105e-4,-0.00122 -8.174e-4,-0.00224 -0.00122,-0.00347 6.103e-4,-2.034e-4 0.00122,-4.069e-4 0.00163,-4.069e-4 2.035e-4,0.00122 4.069e-4,0.00244 6.103e-4,0.00367 -2.034e-4,0 -6.103e-4,0 -0.00102,2.034e-4 z"
     fill="#faaf5c"
     id="path4291"
     style="stroke-width:0.0356908" />
  <path
     d="m 0.28450208,0.63526399 c 8.159e-4,-0.00102 0.00184,-0.00204 0.00265,-0.00306 2.038e-4,2.034e-4 6.117e-4,4.068e-4 8.155e-4,6.103e-4 -8.155e-4,0.00102 -0.00163,0.00224 -0.00224,0.00326 -4.08e-4,-2.034e-4 -8.159e-4,-6.103e-4 -0.00122,-8.137e-4 z"
     fill="#faaf5c"
     id="path4293"
     style="stroke-width:0.0356908" />
  <path
     d="m 0.21801768,0.62322189 c 0.00122,-4.105e-4 0.00245,-8.173e-4 0.00367,-0.00102 0,0 2.042e-4,8.138e-4 4.08e-4,0.00122 -0.00122,2.035e-4 -0.00245,4.069e-4 -0.00367,6.103e-4 -4.08e-4,-2.034e-4 -4.08e-4,-4.068e-4 -4.08e-4,-8.137e-4 z"
     fill="#faaf5c"
     id="path4295"
     style="stroke-width:0.0356908" />
  <path
     d="m 0.22046428,0.60609749 c 0.00102,0.00122 0.00163,0.00163 0.00163,0.00204 0,8.137e-4 -4.079e-4,0.00163 -8.159e-4,0.00244 -4.079e-4,-4.069e-4 -0.00122,-8.138e-4 -0.00122,-0.00143 0,-8.138e-4 2.037e-4,-0.00163 4.075e-4,-0.00306 z"
     fill="#faaf5c"
     id="path4297"
     style="stroke-width:0.0356908" />
  <path
     d="m 0.53596998,0.60589399 c 4.104e-4,-8.137e-4 8.173e-4,-0.00122 0.00102,-0.00183 4.069e-4,2.035e-4 0.00122,6.103e-4 0.00122,0.00102 0,4.068e-4 -4.069e-4,0.00102 -6.139e-4,0.00163 -4.068e-4,-2.034e-4 -8.137e-4,-6.138e-4 -0.00163,-8.173e-4 z"
     fill="#faaf5c"
     id="path4299"
     style="stroke-width:0.0356908" />
  <path
     d="m 0.57288488,0.61282519 c 8.173e-4,0.00122 0.00163,0.00183 0.00163,0.00245 0,6.103e-4 -8.138e-4,0.00143 -0.00122,0.00204 -4.105e-4,-8.173e-4 -8.173e-4,-0.00163 -0.00102,-0.00245 -2.034e-4,-2.034e-4 2.035e-4,-8.137e-4 6.1e-4,-0.00204 z"
     fill="#faaf5c"
     id="path4301"
     style="stroke-width:0.0356908" />
  <path
     d="m 0.53271138,0.51452209 c -8.173e-4,4.069e-4 -0.00143,6.103e-4 -0.00143,6.103e-4 -4.105e-4,-8.137e-4 -8.173e-4,-0.00143 -0.00122,-0.00224 4.069e-4,-2.034e-4 0.00102,-6.138e-4 0.00102,-4.068e-4 6.103e-4,6.103e-4 0.00122,0.00143 0.00163,0.00204 z"
     fill="#faaf5c"
     id="path4303"
     style="stroke-width:0.0356908" />
  <path
     d="m 0.65282868,0.55308599 c 0,0.00204 0,0.00408 0,0.00591 l 2.034e-4,-2.034e-4 c -0.00326,-0.00265 -0.00326,-0.00286 -2.034e-4,-0.00571 z"
     fill="#faaf5c"
     id="path4305"
     style="stroke-width:0.0356908" />
  <path
     d="m 0.38035818,0.55917479 c -4.068e-4,-6.103e-4 -0.00122,-0.00122 -0.00122,-0.00163 0,-6.103e-4 8.173e-4,-0.00102 0.00143,-0.00143 4.104e-4,4.105e-4 0.00122,0.00102 0.00122,0.00122 0,6.139e-4 -8.138e-4,0.00102 -0.00143,0.00183 z"
     fill="#faaf5c"
     id="path4307"
     style="stroke-width:0.0356908" />
  <path
     d="m 0.64590108,0.54388489 c -6.139e-4,-2.034e-4 -0.00102,-4.069e-4 -0.00143,-4.069e-4 4.068e-4,-8.173e-4 8.137e-4,-0.00143 0.00143,-0.00224 0,0 8.137e-4,2.034e-4 0.00102,4.104e-4 -4.069e-4,8.138e-4 -8.138e-4,0.00163 -0.00102,0.00224 z"
     fill="#faaf5c"
     id="path4309"
     style="stroke-width:0.0356908" />
  <path
     d="m 0.53311468,0.64852309 c -4.069e-4,4.068e-4 -8.137e-4,0.00102 -0.00122,0.00163 -2.034e-4,-4.104e-4 -0.00102,-0.00102 -8.137e-4,-0.00143 4.068e-4,-8.173e-4 0.00102,-0.00122 0.00163,-0.00204 0,8.173e-4 0,0.00122 4.069e-4,0.00184 z"
     fill="#faaf5c"
     id="path4311"
     style="stroke-width:0.0356908" />
  <path
     d="m 0.55840878,0.55083389 c -8.174e-4,-8.173e-4 -0.00102,-0.00122 -0.00122,-0.00143 6.103e-4,-4.069e-4 0.00102,-0.00102 0.00163,-0.00143 2.035e-4,4.069e-4 6.139e-4,8.173e-4 4.069e-4,0.00102 0,6.103e-4 -4.069e-4,0.00122 -8.137e-4,0.00183 z"
     fill="#faaf5c"
     id="path4313"
     style="stroke-width:0.0356908" />
  <path
     d="m 0.56676398,0.54716129 c 4.068e-4,8.138e-4 0.00102,0.00143 8.173e-4,0.00183 -2.035e-4,4.069e-4 -8.173e-4,8.138e-4 -0.00143,0.00102 -2.034e-4,-4.105e-4 -6.138e-4,-8.174e-4 -6.138e-4,-0.00102 2.034e-4,-4.069e-4 6.138e-4,-0.00102 0.00122,-0.00183 z"
     fill="#faaf5c"
     id="path4315"
     style="stroke-width:0.0356908" />
  <path
     d="m 0.45520888,0.55510959 c -4.104e-4,4.069e-4 -8.173e-4,6.139e-4 -0.00102,8.174e-4 -2.035e-4,-6.139e-4 -6.139e-4,-0.00102 -6.139e-4,-0.00163 0,0 2.07e-4,-4.105e-4 4.104e-4,-4.105e-4 4.069e-4,4.105e-4 8.138e-4,8.174e-4 0.00122,0.00122 z"
     fill="#faaf5c"
     id="path4317"
     style="stroke-width:0.0356908" />
  <path
     d="m 0.62999008,0.54144359 c 0.00122,2.035e-4 0.00245,6.104e-4 0.00367,8.138e-4 -2.034e-4,4.104e-4 -2.034e-4,8.173e-4 -4.104e-4,0.00122 -0.00102,-8.138e-4 -0.00204,-0.00143 -0.00326,-0.00204 z"
     fill="#faaf5c"
     id="path4319"
     style="stroke-width:0.0356908" />
  <path
     d="m 0.32101158,0.57142749 c -4.104e-4,4.104e-4 -0.00102,8.173e-4 -0.00143,0.00102 -2.07e-4,-6.103e-4 -8.173e-4,-0.00122 -6.139e-4,-0.00163 2.035e-4,-4.068e-4 0.00102,-6.103e-4 0.00163,-0.00102 2.034e-4,6.139e-4 4.104e-4,0.00102 4.104e-4,0.00163 z"
     fill="#faaf5c"
     id="path4321"
     style="stroke-width:0.0356908" />
  <path
     d="m 0.46520228,0.57021399 c 6.139e-4,2.07e-4 0.00143,4.104e-4 0.00143,6.138e-4 0,6.104e-4 -2.035e-4,0.00122 -4.069e-4,0.00183 -4.069e-4,-2.035e-4 -0.00102,-4.069e-4 -0.00102,-6.104e-4 -2.034e-4,-6.138e-4 0,-0.00122 0,-0.00184 z"
     fill="#faaf5c"
     id="path4323"
     style="stroke-width:0.0356908" />
  <path
     d="m 0.66914648,0.56958939 c 6.139e-4,8.137e-4 0.00102,0.00183 0.00163,0.00265 -2.07e-4,2.034e-4 -4.104e-4,2.034e-4 -6.139e-4,4.069e-4 -8.137e-4,-6.139e-4 -0.00163,-0.00122 -0.00245,-0.00204 6.138e-4,-4.069e-4 0.00102,-8.138e-4 0.00143,-0.00102 z"
     fill="#faaf5c"
     id="path4325"
     style="stroke-width:0.0356908" />
  <path
     d="m 0.68016418,0.57264809 c -8.137e-4,2.034e-4 -0.00163,6.139e-4 -0.00224,6.139e-4 l -4.082e-4,-0.001021 c 6.103e-4,-4.069e-4 0.00143,-8.173e-4 0.00204,-0.00122 0,4.069e-4 2.034e-4,8.173e-4 6.103e-4,0.00163 z"
     fill="#faaf5c"
     id="path4327"
     style="stroke-width:0.0356908" />
  <path
     d="m 0.65997038,0.57468959 c -6.103e-4,6.103e-4 -0.00102,8.137e-4 -0.00143,0.00122 -4.069e-4,-4.069e-4 -0.00122,-0.00102 -0.00102,-0.00143 0,-4.069e-4 8.173e-4,-8.138e-4 0.00122,-0.00143 2.034e-4,6.138e-4 6.139e-4,0.00102 0.00122,0.00163 z"
     fill="#faaf5c"
     id="path4329"
     style="stroke-width:0.0356908" />
  <path
     d="m 0.56819518,0.56776559 c -6.104e-4,2.034e-4 -0.00102,4.069e-4 -0.00122,4.069e-4 -2.035e-4,-6.139e-4 -4.069e-4,-0.00122 -4.069e-4,-0.00183 0,-2.07e-4 8.173e-4,-2.07e-4 0.00102,-4.104e-4 2.035e-4,6.139e-4 4.069e-4,0.00122 6.104e-4,0.00184 z"
     fill="#faaf5c"
     id="path4331"
     style="stroke-width:0.0356908" />
  <path
     d="m 0.52393498,0.56794759 c -4.068e-4,4.104e-4 -6.103e-4,0.00102 -0.00102,0.00143 -2.034e-4,-6.103e-4 -6.103e-4,-0.00102 -6.103e-4,-0.00163 0,-4.069e-4 6.103e-4,-8.138e-4 0.00102,-0.00122 2.035e-4,6.139e-4 4.069e-4,8.173e-4 6.103e-4,0.00143 z"
     fill="#faaf5c"
     id="path4333"
     style="stroke-width:0.0356908" />
  <path
     d="m 0.31285268,0.56429289 c -0.00102,-2.035e-4 -0.00224,-4.069e-4 -0.00327,-4.069e-4 0,-2.034e-4 0,-6.103e-4 0,-8.138e-4 0.00122,0 0.00225,2.035e-4 0.00347,2.035e-4 0,2.034e-4 0,6.103e-4 -2.035e-4,0.00102 z"
     fill="#faaf5c"
     id="path4335"
     style="stroke-width:0.0356908" />
  <path
     d="m 0.55126348,0.51227359 c -6.139e-4,4.069e-4 -0.00122,0.00102 -0.00184,0.00143 -2.035e-4,-4.069e-4 -6.103e-4,-0.00102 -6.103e-4,-0.00102 4.068e-4,-6.104e-4 0.00102,-0.00122 0.00163,-0.00163 2.035e-4,2.034e-4 4.069e-4,4.104e-4 8.174e-4,0.00122 z"
     fill="#faaf5c"
     id="path4337"
     style="stroke-width:0.0356908" />
  <path
     d="m 0.61163438,0.53410559 c 4.104e-4,0.00122 6.139e-4,0.00224 0.00102,0.00347 -4.068e-4,0 -6.103e-4,2.034e-4 -0.00102,2.034e-4 -4.069e-4,-0.00122 -6.103e-4,-0.00224 -0.00102,-0.00347 2.034e-4,0 6.103e-4,0 0.00102,-2.034e-4 z"
     fill="#faaf5c"
     id="path4339"
     style="stroke-width:0.0356908" />
  <path
     d="m 0.59307878,0.53880249 c -6.104e-4,-2.034e-4 -0.00122,-4.068e-4 -0.00122,-8.173e-4 0,-6.103e-4 2.034e-4,-0.00102 4.104e-4,-0.00163 4.069e-4,2.035e-4 0.00102,2.035e-4 0.00102,4.069e-4 0,8.173e-4 -2.034e-4,0.00143 -2.034e-4,0.00204 z"
     fill="#faaf5c"
     id="path4341"
     style="stroke-width:0.0356908" />
  <path
     d="m 0.60204778,0.53736419 c 0.00102,4.104e-4 0.00204,6.139e-4 0.00286,0.00102 0,0 -2.034e-4,6.139e-4 -2.034e-4,0.00102 -0.00102,-4.069e-4 -0.00204,-8.173e-4 -0.00306,-0.00122 2.034e-4,-2.034e-4 4.068e-4,-6.103e-4 4.068e-4,-8.173e-4 z"
     fill="#faaf5c"
     id="path4343"
     style="stroke-width:0.0356908" />
  <path
     d="m 0.53454228,0.62384289 c -4.068e-4,-6.139e-4 -8.173e-4,-0.00122 -6.138e-4,-0.00143 4.104e-4,-4.105e-4 8.173e-4,-8.173e-4 0.00143,-0.00122 2.07e-4,4.069e-4 6.139e-4,8.137e-4 6.139e-4,0.00122 -4.069e-4,6.103e-4 -0.00102,0.00102 -0.00143,0.00143 z"
     fill="#faaf5c"
     id="path4345"
     style="stroke-width:0.0356908" />
  <path
     d="m 0.56309488,0.65769199 c -8.173e-4,4.105e-4 -0.00143,6.139e-4 -0.00224,0.00102 -2.034e-4,-4.069e-4 -4.069e-4,-0.00102 -4.069e-4,-0.00122 6.103e-4,-6.103e-4 0.00143,-0.00102 0.00204,-0.00143 2.07e-4,6.138e-4 4.104e-4,0.00102 6.138e-4,0.00163 z"
     fill="#faaf5c"
     id="path4347"
     style="stroke-width:0.0356908" />
  <path
     d="m 0.34385018,0.61262889 c 4.068e-4,-2.035e-4 0.00102,-6.103e-4 0.00163,-8.138e-4 2.035e-4,4.069e-4 6.139e-4,0.00122 6.139e-4,0.00143 -4.104e-4,4.069e-4 -0.00102,6.104e-4 -0.00163,8.138e-4 -2.035e-4,-4.069e-4 -4.069e-4,-8.138e-4 -6.103e-4,-0.00143 z"
     fill="#faaf5c"
     id="path4349"
     style="stroke-width:0.0356908" />
  <path
     d="m 0.48029238,0.61425639 c -6.103e-4,6.103e-4 -0.00122,0.00143 -0.00183,0.00183 -2.035e-4,2.034e-4 -6.139e-4,-2.035e-4 -0.00102,-4.069e-4 4.069e-4,-6.139e-4 8.173e-4,-0.00143 0.00143,-0.00204 2.035e-4,0 8.174e-4,4.104e-4 0.00143,6.139e-4 z"
     fill="#faaf5c"
     id="path4351"
     style="stroke-width:0.0356908" />
  <path
     d="m 0.25941758,0.59365209 c -2.038e-4,-8.173e-4 -6.117e-4,-0.00143 -6.117e-4,-0.00183 0,-4.105e-4 8.158e-4,-6.139e-4 0.00122,-0.00102 2.038e-4,4.069e-4 8.155e-4,0.00102 8.155e-4,0.00143 -2.038e-4,4.068e-4 -8.155e-4,8.173e-4 -0.00143,0.00143 z"
     fill="#faaf5c"
     id="path4353"
     style="stroke-width:0.0356908" />
  <path
     d="m 0.60327558,0.58549679 c -8.137e-4,2.034e-4 -0.00143,6.138e-4 -0.00224,8.173e-4 -2.034e-4,0 -6.139e-4,-8.173e-4 -6.139e-4,-8.173e-4 6.139e-4,-4.069e-4 0.00122,-0.00102 0.00204,-0.00143 2.034e-4,2.035e-4 4.068e-4,6.139e-4 8.139e-4,0.00143 z"
     fill="#faaf5c"
     id="path4355"
     style="stroke-width:0.0356908" />
  <path
     d="m 0.62285198,0.59017939 c -6.103e-4,-4.069e-4 -0.00102,-6.103e-4 -0.00122,-8.138e-4 4.068e-4,-6.139e-4 8.137e-4,-0.00122 0.00122,-0.00163 2.07e-4,-2.035e-4 8.173e-4,0 0.00102,0 -2.034e-4,8.137e-4 -6.103e-4,0.00163 -0.00102,0.00244 z"
     fill="#faaf5c"
     id="path4357"
     style="stroke-width:0.0356908" />
  <path
     d="m 0.56697098,0.59019369 c -6.139e-4,2.034e-4 -8.174e-4,4.068e-4 -0.00122,6.103e-4 -2.035e-4,-6.103e-4 -6.103e-4,-0.00122 -8.173e-4,-0.00163 6.138e-4,-2.034e-4 0.00102,-4.069e-4 0.00163,-8.173e-4 0,6.139e-4 2.034e-4,0.00122 4.069e-4,0.00184 z"
     fill="#faaf5c"
     id="path4359"
     style="stroke-width:0.0356908" />
  <path
     d="m 0.38974128,0.57673469 c -8.173e-4,6.103e-4 -0.00122,0.00122 -0.00163,0.00122 -6.139e-4,0 -0.00102,-6.139e-4 -0.00163,-8.174e-4 6.139e-4,-6.103e-4 0.00102,-0.00122 0.00163,-0.00163 2.034e-4,-2.035e-4 8.137e-4,6.103e-4 0.00163,0.00122 z"
     fill="#faaf5c"
     id="path4361"
     style="stroke-width:0.0356908" />
  <path
     d="m 0.57166428,0.58182059 c 8.138e-4,6.139e-4 0.00122,0.00102 0.00163,0.00143 -4.069e-4,4.105e-4 -8.173e-4,0.00102 -0.00122,0.00122 -2.035e-4,0 -0.00102,-4.068e-4 -0.00102,-8.137e-4 0,-4.105e-4 2.07e-4,-0.00102 6.139e-4,-0.00184 z"
     fill="#faaf5c"
     id="path4363"
     style="stroke-width:0.0356908" />
  <path
     d="m 0.35221248,0.58407269 c -4.069e-4,4.104e-4 -0.00102,8.173e-4 -0.00122,8.173e-4 -4.105e-4,-6.139e-4 -8.173e-4,-0.00122 -0.00122,-0.00163 4.069e-4,-2.034e-4 8.137e-4,-4.068e-4 0.00102,-4.068e-4 6.139e-4,2.034e-4 8.173e-4,8.137e-4 0.00143,0.00122 z"
     fill="#faaf5c"
     id="path4365"
     style="stroke-width:0.0356908" />
  <path
     d="m 0.55677408,0.58244159 c -4.069e-4,4.069e-4 -8.137e-4,0.00102 -0.00122,0.00143 -4.069e-4,-4.069e-4 -0.00102,-0.00102 -0.00102,-0.00122 2.035e-4,-6.104e-4 8.138e-4,-8.174e-4 0.00122,-0.00122 4.104e-4,2.034e-4 6.138e-4,6.138e-4 0.00102,0.00102 z"
     fill="#faaf5c"
     id="path4367"
     style="stroke-width:0.0356908" />
  <path
     d="m 0.65936008,0.55002369 c 0.00163,-0.00122 0.00245,-0.00183 0.00306,-0.00244 -2.035e-4,8.137e-4 -4.069e-4,0.00143 -8.173e-4,0.00224 0,0 -6.104e-4,-2.035e-4 -0.00224,2.034e-4 z"
     fill="#faaf5c"
     id="path4369"
     style="stroke-width:0.0356908" />
  <path
     d="m 0.61897598,0.60202159 c 4.069e-4,0.00102 8.173e-4,0.00163 8.173e-4,0.00204 -2.07e-4,4.069e-4 -0.00102,6.103e-4 -0.00143,0.00102 -2.07e-4,-4.105e-4 -6.139e-4,-8.173e-4 -6.139e-4,-0.00122 0,-4.069e-4 6.139e-4,-0.00102 0.00122,-0.00183 z"
     fill="#faaf5c"
     id="path4371"
     style="stroke-width:0.0356908" />
  <path
     d="m 0.39973478,0.60528009 c 0.00102,0 0.00204,0 0.00306,0 0,2.035e-4 0,6.104e-4 0,8.138e-4 -0.00102,0 -0.00204,2.034e-4 -0.00306,2.034e-4 0,-4.068e-4 0,-6.103e-4 0,-0.00102 z"
     fill="#faaf5c"
     id="path4373"
     style="stroke-width:0.0356908" />
  <path
     d="m 0.62897298,0.60956299 c -6.139e-4,2.07e-4 -0.00143,6.139e-4 -0.00204,8.174e-4 0,-4.069e-4 0,-0.00102 2.035e-4,-0.00122 4.104e-4,-4.069e-4 0.00102,-6.104e-4 0.00163,-0.00102 -2.035e-4,4.104e-4 0,6.139e-4 2.07e-4,0.00143 z"
     fill="#faaf5c"
     id="path4375"
     style="stroke-width:0.0356908" />
  <path
     d="m 0.53025938,0.59201749 c 4.069e-4,8.137e-4 8.138e-4,0.00143 8.138e-4,0.00183 -2.034e-4,4.068e-4 -0.00102,8.173e-4 -0.00163,0.00102 -2.034e-4,0 -0.00102,-0.00102 -8.137e-4,-0.00122 0,-6.103e-4 8.137e-4,-0.00102 0.00163,-0.00163 z"
     fill="#faaf5c"
     id="path4377"
     style="stroke-width:0.0356908" />
  <path
     d="m 0.44113598,0.59630749 c -6.138e-4,4.069e-4 -0.00102,0.00102 -0.00143,0.00122 -2.034e-4,2.07e-4 -8.173e-4,-4.069e-4 -0.00122,-4.069e-4 4.069e-4,-4.068e-4 8.138e-4,-0.00102 0.00122,-0.00122 4.069e-4,-4.068e-4 8.138e-4,0 0.00143,4.105e-4 z"
     fill="#faaf5c"
     id="path4379"
     style="stroke-width:0.0356908" />
  <path
     d="m 0.56452608,0.50290479 c -4.104e-4,4.068e-4 -8.173e-4,0.00102 -8.173e-4,0.00102 -6.103e-4,-2.034e-4 -0.00102,-6.103e-4 -0.00163,-0.00102 4.068e-4,-4.105e-4 8.137e-4,-0.00102 0.00102,-0.00102 4.069e-4,0 8.138e-4,6.103e-4 0.00143,0.00102 z"
     fill="#faaf5c"
     id="path4381"
     style="stroke-width:0.0356908" />
  <path
     d="m 0.29633428,0.01872319 c 0,0 -0.00388,0.00367 -0.00428,0.00551 -6.118e-4,0.00347 0.00224,0.00591 0.00224,0.00591 0,0 0.02692,-0.00571 0.05058,-0.016112 l -0.00408,-0.00122 c -0.032836,0.00693 -0.044461,0.00591 -0.044461,0.00591 z"
     fill="url(#paint23_linear)"
     id="path4383"
     style="fill:url(#paint23_linear);stroke-width:0.0356908" />
  <path
     d="m 0.29633608,0.01873419 -0.050579,0.017947 c 0.015908,-4.079e-4 0.037322,-0.00816 0.048539,-0.00653 6.117e-4,-0.010809 0.00204,-0.011421 0.00204,-0.011421 z"
     fill="url(#paint24_linear)"
     id="path4385"
     style="fill:url(#paint24_linear);stroke-width:0.0356908" />
  <path
     d="m 0.29449908,0.03014239 c -0.04446,-0.00591 -0.1900786,0.05527 -0.2502429,0.150105 0.057105,-0.04446 0.1888548,-0.1337893 0.2565655,-0.1517368 z"
     fill="url(#paint25_linear)"
     id="path4387"
     style="fill:url(#paint25_linear);stroke-width:0.0356908" />
  <path
     d="m 0.29225628,0.03075879 c -0.1282829,0.0358946 -0.2694142,0.1119669 -0.292256297547607,0.254322 0,0 0.06444699754761,-0.00265 0.108091997547607,0.062002 0.051395,-0.02937 0.1841643,-0.3163237 0.1841643,-0.316324 z"
     fill="url(#paint26_linear)"
     id="path4389"
     style="fill:url(#paint26_linear);stroke-width:0.0356908" />
  <path
     d="m 0.40035218,0.56449989 -0.07852,-0.3597611 0.02427,-0.0053 0.07852,0.359764 c -0.00632,0.00612 -0.015704,0.00816 -0.02427,0.0053 z"
     fill="#e89043"
     id="path4391"
     style="stroke-width:0.0356908" />
  <path
     d="m 0.33447058,0.20206729 -0.012438,0.00265 0.07852,0.3597632 c 0.00347,0.00122 0.00714,0.00163 0.010604,0.00102 -0.0301845,-0.1095184 -0.0709754,-0.3312094 -0.076686,-0.3634332 z"
     fill="url(#paint27_linear)"
     id="path4393"
     style="fill:url(#paint27_linear);stroke-width:0.0356908" />
  <path
     d="m 0.34630208,0.19943579 -0.02427,0.0053 0.038546,0.1772314 c 0.00775,0.0051 0.023046,0.00143 0.024677,-0.00347 z"
     fill="url(#paint28_linear)"
     id="path4395"
     style="fill:url(#paint28_linear);stroke-width:0.0356908" />
  <path
     d="m 0.36302318,0.32382989 c 0,0 0.1441907,-0.1046246 0.2392317,-0.094019 0,0 0.010811,-0.092184 0.067709,-0.1093158 0,0 -0.1164518,-0.1592827 -0.3691431,-0.092184 -0.1303224,0.034875 0.062202,0.2955191 0.0622024,0.2955188 z"
     fill="url(#paint29_linear)"
     id="path4397"
     style="fill:url(#paint29_linear);stroke-width:0.0356908" />
  <path
     d="m 0.30082238,0.02831079 c 0.082191,-0.021822 0.2408617,0.035079 0.2949082,0.047928 l 0.030387,0.00204 c -0.1647877,-0.1411325 -0.3318216,-0.0483366 -0.3318216,-0.0483366 z"
     fill="url(#paint30_linear)"
     id="path4399"
     style="fill:url(#paint30_linear);stroke-width:0.0356908" />
  <path
     d="m 0.29449948,0.03014879 c -0.1813091,0.0732171 -0.1864079,0.3169337 -0.1864079,0.3169337 0.0887173,-0.0505785 0.2549352,-0.023249 0.2549352,-0.023249 z"
     fill="url(#paint31_linear)"
     id="path4401"
     style="fill:url(#paint31_linear);stroke-width:0.0356908" />
  <path
     d="m 0.66996738,0.12049499 c 0,0 -0.1164519,-0.1592827 -0.3691442,-0.092184 -0.00204,6.121e-4 -0.00428,0.00122 -0.00632,0.00184 0.2243411,0.01754 0.3077575,0.1996645 0.3077575,0.1996645 0,0 0.010807,-0.092184 0.067709,-0.1093158 z"
     fill="url(#paint32_linear)"
     id="path4403"
     style="fill:url(#paint32_linear);stroke-width:0.0356908" />
  <path
     d="m 0.29449948,0.03014879 c -0.1813091,0.0732171 -0.1864079,0.3169337 -0.1864079,0.3169337 0.0887173,-0.0505785 0.2549352,-0.023249 0.2549352,-0.023249 z"
     fill="url(#paint33_linear)"
     id="path4405"
     style="fill:url(#paint33_linear);stroke-width:0.0356908" />
  <path
     d="m 0.29670198,0.03764069 c 0.00934,-0.00331 0.015762,-0.00926 0.014334,-0.013293 -0.00143,-0.00404 -0.010161,-0.00463 -0.019505,-0.00132 -0.00934,0.00331 -0.015761,0.00926 -0.014333,0.013293 0.00143,0.00404 0.01016,0.00463 0.019504,0.00132 z"
     fill="#391838"
     id="path4407"
     style="stroke-width:0.0356908" />
  <defs
     id="defs4595">
    <radialGradient
       id="paint0_radial"
       cx="0"
       cy="0"
       r="1"
       gradientUnits="userSpaceOnUse"
       gradientTransform="matrix(0.29239414,-0.00708908,0.00182102,0.07510948,0.43686378,0.63350789)">
      <stop
         stop-color="white"
         id="stop4409" />
      <stop
         offset="1"
         stop-color="white"
         stop-opacity="0"
         id="stop4411" />
    </radialGradient>
    <radialGradient
       id="paint1_radial"
       cx="0"
       cy="0"
       r="1"
       gradientUnits="userSpaceOnUse"
       gradientTransform="matrix(-0.00541166,0.08922354,-0.71554824,-0.04340004,0.54031348,0.61810379)">
      <stop
         stop-color="white"
         stop-opacity="0.5"
         id="stop4414" />
      <stop
         offset="1"
         stop-color="white"
         stop-opacity="0"
         id="stop4416" />
    </radialGradient>
    <linearGradient
       id="paint2_linear"
       x1="15.1418"
       y1="19.291"
       x2="13.5881"
       y2="16.5854"
       gradientUnits="userSpaceOnUse"
       gradientTransform="matrix(0.03569076,0,0,0.03569076,-0.05506552,-0.04062271)">
      <stop
         stop-color="#FFD87C"
         id="stop4419" />
      <stop
         offset="0.343"
         stop-color="#FFD981"
         id="stop4421" />
      <stop
         offset="0.7666"
         stop-color="#FFDE90"
         id="stop4423" />
      <stop
         offset="1"
         stop-color="#FFE19C"
         id="stop4425" />
    </linearGradient>
    <radialGradient
       id="paint3_radial"
       cx="0"
       cy="0"
       r="1"
       gradientUnits="userSpaceOnUse"
       gradientTransform="matrix(0.0214175,0.10882908,-0.21089002,0.04150304,0.45847098,0.53017959)">
      <stop
         stop-color="#FFCB4B"
         id="stop4428" />
      <stop
         offset="1"
         stop-color="#FFA754"
         stop-opacity="0"
         id="stop4430" />
    </radialGradient>
    <radialGradient
       id="paint4_radial"
       cx="0"
       cy="0"
       r="1"
       gradientUnits="userSpaceOnUse"
       gradientTransform="matrix(0.26310885,-0.00637906,0.00318346,0.13130413,0.45011578,0.57367599)">
      <stop
         stop-color="#FFCB4B"
         id="stop4433" />
      <stop
         offset="1"
         stop-color="#FFA754"
         stop-opacity="0"
         id="stop4435" />
    </radialGradient>
    <linearGradient
       id="paint5_linear"
       x1="13.7401"
       y1="14.4596"
       x2="14.5819"
       y2="19.730101"
       gradientUnits="userSpaceOnUse"
       gradientTransform="matrix(0.03569076,0,0,0.03569076,-0.05506552,-0.04062271)">
      <stop
         stop-color="#FFCB4B"
         id="stop4438" />
      <stop
         offset="1"
         stop-color="#FFA754"
         stop-opacity="0"
         id="stop4440" />
    </linearGradient>
    <radialGradient
       id="paint6_radial"
       cx="0"
       cy="0"
       r="1"
       gradientUnits="userSpaceOnUse"
       gradientTransform="matrix(0.00403563,0,0,0.00403563,0.25625108,0.61831079)">
      <stop
         stop-color="#FFA754"
         id="stop4443" />
      <stop
         offset="1"
         stop-color="#FFA754"
         stop-opacity="0"
         id="stop4445" />
    </radialGradient>
    <radialGradient
       id="paint7_radial"
       cx="0"
       cy="0"
       r="1"
       gradientUnits="userSpaceOnUse"
       gradientTransform="matrix(0.0040358,0,0,0.0040358,0.39665098,0.52540059)">
      <stop
         stop-color="#FFA754"
         id="stop4448" />
      <stop
         offset="1"
         stop-color="#FFA754"
         stop-opacity="0"
         id="stop4450" />
    </radialGradient>
    <radialGradient
       id="paint8_radial"
       cx="0"
       cy="0"
       r="1"
       gradientUnits="userSpaceOnUse"
       gradientTransform="matrix(0.00348383,0,0,0.00348383,0.34595938,0.56029909)">
      <stop
         stop-color="#FFA754"
         id="stop4453" />
      <stop
         offset="1"
         stop-color="#FFA754"
         stop-opacity="0"
         id="stop4455" />
    </radialGradient>
    <radialGradient
       id="paint9_radial"
       cx="0"
       cy="0"
       r="1"
       gradientUnits="userSpaceOnUse"
       gradientTransform="matrix(-0.0022076,-1.0681102e-4,1.0681102e-4,-0.0022076,0.44712128,0.60818889)">
      <stop
         stop-color="#FFA754"
         id="stop4458" />
      <stop
         offset="1"
         stop-color="#FFA754"
         stop-opacity="0"
         id="stop4460" />
    </radialGradient>
    <radialGradient
       id="paint10_radial"
       cx="0"
       cy="0"
       r="1"
       gradientUnits="userSpaceOnUse"
       gradientTransform="matrix(0.00322347,0,0,0.00322347,0.32585478,0.62771529)">
      <stop
         stop-color="#FFA754"
         id="stop4463" />
      <stop
         offset="1"
         stop-color="#FFA754"
         stop-opacity="0"
         id="stop4465" />
    </radialGradient>
    <radialGradient
       id="paint11_radial"
       cx="0"
       cy="0"
       r="1"
       gradientUnits="userSpaceOnUse"
       gradientTransform="matrix(0.00219183,0,0,0.00219183,0.41990358,0.57925799)">
      <stop
         stop-color="#FFA754"
         id="stop4468" />
      <stop
         offset="1"
         stop-color="#FFA754"
         stop-opacity="0"
         id="stop4470" />
    </radialGradient>
    <radialGradient
       id="paint12_radial"
       cx="0"
       cy="0"
       r="1"
       gradientUnits="userSpaceOnUse"
       gradientTransform="matrix(0.0038299,0,0,0.0038299,0.46039118,0.56948589)">
      <stop
         stop-color="#FFA754"
         id="stop4473" />
      <stop
         offset="1"
         stop-color="#FFA754"
         stop-opacity="0"
         id="stop4475" />
    </radialGradient>
    <radialGradient
       id="paint13_radial"
       cx="0"
       cy="0"
       r="1"
       gradientUnits="userSpaceOnUse"
       gradientTransform="matrix(-0.00382604,-1.8504945e-4,1.8504945e-4,-0.00382604,0.37229208,0.58945129)">
      <stop
         stop-color="#FFA754"
         id="stop4478" />
      <stop
         offset="1"
         stop-color="#FFA754"
         stop-opacity="0"
         id="stop4480" />
    </radialGradient>
    <radialGradient
       id="paint14_radial"
       cx="0"
       cy="0"
       r="1"
       gradientUnits="userSpaceOnUse"
       gradientTransform="matrix(0.00584493,0,0,0.00584493,0.48810498,0.60012989)">
      <stop
         stop-color="#FFA754"
         id="stop4483" />
      <stop
         offset="1"
         stop-color="#FFA754"
         stop-opacity="0"
         id="stop4485" />
    </radialGradient>
    <radialGradient
       id="paint15_radial"
       cx="0"
       cy="0"
       r="1"
       gradientUnits="userSpaceOnUse"
       gradientTransform="matrix(0.00219173,0,0,0.00219173,0.53828268,0.53429479)">
      <stop
         stop-color="#FFA754"
         id="stop4488" />
      <stop
         offset="1"
         stop-color="#FFA754"
         stop-opacity="0"
         id="stop4490" />
    </radialGradient>
    <radialGradient
       id="paint16_radial"
       cx="0"
       cy="0"
       r="1"
       gradientUnits="userSpaceOnUse"
       gradientTransform="matrix(0.00259665,0,0,0.00259665,0.53988518,0.57142029)">
      <stop
         stop-color="#FFA754"
         id="stop4493" />
      <stop
         offset="1"
         stop-color="#FFA754"
         stop-opacity="0"
         id="stop4495" />
    </radialGradient>
    <radialGradient
       id="paint17_radial"
       cx="0"
       cy="0"
       r="1"
       gradientUnits="userSpaceOnUse"
       gradientTransform="matrix(0.00164363,0,0,0.00164363,0.53366788,0.61610509)">
      <stop
         stop-color="#FFA754"
         id="stop4498" />
      <stop
         offset="1"
         stop-color="#FFA754"
         stop-opacity="0"
         id="stop4500" />
    </radialGradient>
    <radialGradient
       id="paint18_radial"
       cx="0"
       cy="0"
       r="1"
       gradientUnits="userSpaceOnUse"
       gradientTransform="matrix(0.00330347,0,0,0.00330347,0.57956968,0.61489159)">
      <stop
         stop-color="#FFA754"
         id="stop4503" />
      <stop
         offset="1"
         stop-color="#FFA754"
         stop-opacity="0"
         id="stop4505" />
    </radialGradient>
    <radialGradient
       id="paint19_radial"
       cx="0"
       cy="0"
       r="1"
       gradientUnits="userSpaceOnUse"
       gradientTransform="matrix(0.00383001,0,0,0.00383001,0.57672518,0.51897629)">
      <stop
         stop-color="#FFA754"
         id="stop4508" />
      <stop
         offset="1"
         stop-color="#FFA754"
         stop-opacity="0"
         id="stop4510" />
    </radialGradient>
    <radialGradient
       id="paint20_radial"
       cx="0"
       cy="0"
       r="1"
       gradientUnits="userSpaceOnUse"
       gradientTransform="matrix(0.00266644,0,0,0.00266644,0.67197668,0.53441969)">
      <stop
         stop-color="#FFA754"
         id="stop4513" />
      <stop
         offset="1"
         stop-color="#FFA754"
         stop-opacity="0"
         id="stop4515" />
    </radialGradient>
    <radialGradient
       id="paint21_radial"
       cx="0"
       cy="0"
       r="1"
       gradientUnits="userSpaceOnUse"
       gradientTransform="matrix(0.00154193,0,0,0.00154193,0.61383638,0.57827649)">
      <stop
         stop-color="#FFA754"
         id="stop4518" />
      <stop
         offset="1"
         stop-color="#FFA754"
         stop-opacity="0"
         id="stop4520" />
    </radialGradient>
    <radialGradient
       id="paint22_radial"
       cx="0"
       cy="0"
       r="1"
       gradientUnits="userSpaceOnUse"
       gradientTransform="matrix(0.00385892,0,0,0.00385892,0.62325168,0.54271069)">
      <stop
         stop-color="#FFA754"
         id="stop4523" />
      <stop
         offset="1"
         stop-color="#FFA754"
         stop-opacity="0"
         id="stop4525" />
    </radialGradient>
    <linearGradient
       id="paint23_linear"
       x1="9.7262802"
       y1="1.73936"
       x2="11.2086"
       y2="1.73936"
       gradientUnits="userSpaceOnUse"
       gradientTransform="matrix(0.03569076,0,0,0.03569076,-0.05506552,-0.04062271)">
      <stop
         stop-color="#FCD2A8"
         id="stop4528" />
      <stop
         offset="0.926"
         stop-color="white"
         id="stop4530" />
    </linearGradient>
    <linearGradient
       id="paint24_linear"
       x1="9.0137196"
       y1="1.6623"
       x2="9.5049105"
       y2="2.6447001"
       gradientUnits="userSpaceOnUse"
       gradientTransform="matrix(0.03569076,0,0,0.03569076,-0.05506552,-0.04062271)">
      <stop
         stop-color="#FF0000"
         id="stop4533"
         offset="0"
         style="stop-color:#00b3ff;stop-opacity:1;" />
      <stop
         offset="1"
         stop-color="#860805"
         id="stop4535"
         style="stop-color:#240586;stop-opacity:1;" />
    </linearGradient>
    <linearGradient
       id="paint25_linear"
       x1="7.0058999"
       y1="1.46777"
       x2="6.4879999"
       y2="3.6108301"
       gradientUnits="userSpaceOnUse"
       gradientTransform="matrix(0.03569076,0,0,0.03569076,-0.05506552,-0.04062271)">
      <stop
         stop-color="white"
         id="stop4538" />
      <stop
         offset="1"
         stop-color="#FCD2A8"
         id="stop4540" />
    </linearGradient>
    <linearGradient
       id="paint26_linear"
       x1="1.54285"
       y1="6.4310198"
       x2="9.7286301"
       y2="6.4310198"
       gradientUnits="userSpaceOnUse"
       gradientTransform="matrix(0.03569076,0,0,0.03569076,-0.05506552,-0.04062271)">
      <stop
         stop-color="#FF0000"
         id="stop4543"
         offset="0"
         style="stop-color:#00e8ff;stop-opacity:1;" />
      <stop
         offset="1"
         stop-color="#860805"
         id="stop4545"
         style="stop-color:#1b0586;stop-opacity:1;" />
    </linearGradient>
    <linearGradient
       id="paint27_linear"
       x1="11.8106"
       y1="13.5654"
       x2="11.8106"
       y2="17.047899"
       gradientUnits="userSpaceOnUse"
       gradientTransform="matrix(0.03569076,0,0,0.03569076,-0.05506552,-0.04062271)">
      <stop
         stop-color="#C86F34"
         id="stop4548" />
      <stop
         offset="1"
         stop-color="#A3541E"
         id="stop4550" />
    </linearGradient>
    <linearGradient
       id="paint28_linear"
       x1="12.0262"
       y1="13.1154"
       x2="11.3297"
       y2="8.5078402"
       gradientUnits="userSpaceOnUse"
       gradientTransform="matrix(0.03569076,0,0,0.03569076,-0.05506552,-0.04062271)">
      <stop
         stop-color="#C86F34"
         id="stop4553" />
      <stop
         offset="1"
         stop-color="#A3541E"
         stop-opacity="0"
         id="stop4555" />
    </linearGradient>
    <linearGradient
       id="paint29_linear"
       x1="8.1262503"
       y1="10.4286"
       x2="17.734301"
       y2="1.1777101"
       gradientUnits="userSpaceOnUse"
       gradientTransform="matrix(0.03569076,0,0,0.03569076,-0.05506552,-0.04062271)">
      <stop
         stop-color="#BD2719"
         id="stop4558"
         offset="0"
         style="stop-color:#0c15ca;stop-opacity:1;" />
      <stop
         offset="0.36912018"
         stop-color="#FF0000"
         id="stop4560"
         style="stop-color:#0028ff;stop-opacity:1;" />
      <stop
         offset="0.53939998"
         stop-color="#FF0000"
         id="stop4562"
         style="stop-color:#00c3ff;stop-opacity:1;" />
      <stop
         offset="1"
         stop-color="#860805"
         id="stop4564" />
    </linearGradient>
    <linearGradient
       id="paint30_linear"
       x1="16.4552"
       y1="3.2937801"
       x2="9.1330996"
       y2="0.114907"
       gradientUnits="userSpaceOnUse"
       gradientTransform="matrix(0.03569076,0,0,0.03569076,-0.05506552,-0.04062271)">
      <stop
         stop-color="#FF0000"
         id="stop4567"
         offset="0"
         style="stop-color:#0015ff;stop-opacity:1;" />
      <stop
         offset="1"
         stop-color="#860805"
         id="stop4569"
         style="stop-color:#051986;stop-opacity:1;" />
    </linearGradient>
    <linearGradient
       id="paint31_linear"
       x1="5.3565102"
       y1="6.3294201"
       x2="12.3157"
       y2="6.68328"
       gradientUnits="userSpaceOnUse"
       gradientTransform="matrix(0.03569076,0,0,0.03569076,-0.05506552,-0.04062271)">
      <stop
         stop-color="#FCD2A8"
         id="stop4572" />
      <stop
         offset="0.3776"
         stop-color="white"
         id="stop4574" />
      <stop
         offset="0.7039"
         stop-color="white"
         id="stop4576" />
      <stop
         offset="1"
         stop-color="#FCD2A8"
         id="stop4578" />
    </linearGradient>
    <linearGradient
       id="paint32_linear"
       x1="17.576799"
       y1="7.6196899"
       x2="12.8621"
       y2="-0.55071801"
       gradientUnits="userSpaceOnUse"
       gradientTransform="matrix(0.03569076,0,0,0.03569076,-0.05506552,-0.04062271)">
      <stop
         stop-color="#FCD2A8"
         id="stop4581" />
      <stop
         offset="0.3776"
         stop-color="white"
         id="stop4583" />
      <stop
         offset="0.7039"
         stop-color="white"
         id="stop4585" />
      <stop
         offset="1"
         stop-color="#FCD2A8"
         id="stop4587" />
    </linearGradient>
    <linearGradient
       id="paint33_linear"
       x1="9.7410202"
       y1="0.79745299"
       x2="7.0354099"
       y2="16.816799"
       gradientUnits="userSpaceOnUse"
       gradientTransform="matrix(0.03569076,0,0,0.03569076,-0.05506552,-0.04062271)">
      <stop
         stop-color="white"
         stop-opacity="0"
         id="stop4590" />
      <stop
         offset="1"
         stop-color="#FCD2A8"
         id="stop4592" />
    </linearGradient>
  </defs>
</svg>
