<?xml version="1.0" encoding="UTF-8" standalone="no"?>
<!-- Created with Inkscape (http://www.inkscape.org/) -->

<svg
   width="3.1749535mm"
   height="2.1707649mm"
   viewBox="0 0 3.1749535 2.1707649"
   version="1.1"
   id="svg5696"
   xmlns="http://www.w3.org/2000/svg"
   xmlns:svg="http://www.w3.org/2000/svg">
  <defs
     id="defs5693" />
  <g
     id="layer1"
     transform="translate(-27.882909,-32.977832)">
    <path
       d="m 28.763952,33.055253 h 2.144322 a 0.14984425,0.14984425 0 0 1 0.149586,0.149586 v 1.588349 a 0.14881084,0.14881084 0 0 1 -0.02583,0.08396 0.0599377,0.0599377 0 0 1 -0.01421,0.02119 0.05683748,0.05683748 0 0 1 -0.01395,0.0098 0.14932755,0.14932755 0 0 1 -0.09559,0.03488 h -1.26877 a 0.39889572,0.39889572 0 0 0 0.01085,-0.114967 h 1.219939 l -0.796758,-0.836803 -0.263003,0.22425 v 0 a 0.05735418,0.05735418 0 0 1 -0.07337,0 l -0.27592,-0.22425 v 0 l -0.250343,0.25086 a 0.32035668,0.32035668 0 0 0 -0.113934,-0.04831 l 0.274887,-0.275403 -0.509729,-0.415689 a 0.36169303,0.36169303 0 0 0 -0.01757,-0.08836 l -0.02041,-0.09016 0.94841,0.773248 1.087921,-0.926968 h -2.070692 z m -0.430157,0.723386 a 1.5878324,1.5878324 0 0 0 0.122201,0.385204 1.3405894,1.3405894 0 0 0 0.269203,0.376419 0.03797777,0.03797777 0 0 0 0.03023,0.01163 0.137185,0.137185 0 0 0 0.05167,-0.01731 0.46270873,0.46270873 0 0 0 0.05425,-0.03514 c 0.08112,-0.05632 0.180847,-0.126334 0.265845,-0.0478 0.0021,0.0018 0.0031,0.0036 0.0052,0.0052 l 0.270494,0.29788 a 0.02919379,0.02919379 0 0 1 0.0026,0.0034 0.15733646,0.15733646 0 0 1 0.02041,0.149069 0.36970194,0.36970194 0 0 1 -0.101789,0.148811 0.35549257,0.35549257 0 0 1 -0.205132,0.08939 0.76988944,0.76988944 0 0 1 -0.213915,-0.01033 0.70168446,0.70168446 0 0 1 -0.292197,-0.1222 1.3992353,1.3992353 0 0 1 -0.254735,-0.243626 l -0.0062,-0.0075 c -0.03927,-0.0465 -0.08164,-0.09636 -0.121167,-0.151911 a 2.0337482,2.0337482 0 0 1 -0.322165,-0.744829 c -0.04444,-0.226058 -0.0354,-0.451858 0.0602,-0.638646 0.05167,-0.103341 0.130726,-0.186014 0.232516,-0.224508 0.08887,-0.0341 0.194023,-0.03462 0.313382,0.01628 a 0.04314481,0.04314481 0 0 1 0.02584,0.03204 l 0.09637,0.428348 a 0.11806694,0.11806694 0 0 1 -0.02119,0.126076 0.24362609,0.24362609 0 0 1 -0.110833,0.06459 c -0.01447,0.0062 -0.03126,0.01163 -0.04909,0.01731 -0.05865,0.01912 -0.125559,0.04159 -0.1222,0.0943 v 0 z m 1.827067,0.137702 0.781773,0.819752 v -1.485009 l -0.781773,0.666032 z"
       id="path5176"
       style="stroke-width:0.0258352" />
  </g>
</svg>
