<?xml version="1.0" encoding="UTF-8" standalone="no"?>
<svg
   id="Layer_1"
   data-name="Layer 1"
   viewBox="0 0 1474.56 689.50304"
   version="1.1"
   width="1474.5599"
   height="689.50305"
   xmlns="http://www.w3.org/2000/svg"
   xmlns:svg="http://www.w3.org/2000/svg">
  <defs
     id="defs5181" />
  <title
     id="title5174">call-message</title>
  <path
     d="M 2.6310923,0.24495549 H 10.73562 a 0.56634049,0.56634049 0 0 1 0.565364,0.56536404 V 6.8135287 a 0.56243469,0.56243469 0 0 1 -0.09764,0.317346 0.2265362,0.2265362 0 0 1 -0.0537,0.080069 0.21481881,0.21481881 0 0 1 -0.05273,0.037105 0.56438759,0.56438759 0 0 1 -0.361286,0.1318206 H 5.9402784 a 1.5076374,1.5076374 0 0 0 0.041011,-0.43452 H 10.592082 L 7.5807129,3.7826306 6.5866877,4.6301885 v 0 a 0.2167717,0.2167717 0 0 1 -0.2773116,0 L 5.2665285,3.7826306 v 0 L 4.3203493,4.7307627 A 1.2107969,1.2107969 0 0 0 3.8897352,4.5481668 L 4.9286771,3.507272 3.002143,1.9361654 A 1.3670288,1.3670288 0 0 0 2.9357444,1.6022198 L 2.8586049,1.261439 6.4431497,4.1839512 10.554977,0.6804518 H 2.7287372 Z M 1.0053045,2.979013 A 6.0012563,6.0012563 0 0 0 1.4671649,4.4348987 5.0667945,5.0667945 0 0 0 2.4846249,5.857585 0.14353802,0.14353802 0 0 0 2.5988695,5.901525 0.51849448,0.51849448 0 0 0 2.7941593,5.836103 1.7488204,1.7488204 0 0 0 2.9992136,5.703306 C 3.3058186,5.4904402 3.682728,5.2258224 4.0039798,5.522663 c 0.00781,0.00684 0.011717,0.01367 0.019529,0.019529 l 1.0223423,1.1258458 a 0.11033875,0.11033875 0 0 1 0.00976,0.012694 A 0.59465751,0.59465751 0 0 1 5.1327501,7.244143 1.3972987,1.3972987 0 0 1 4.748034,7.8065775 1.343594,1.343594 0 0 1 3.9727334,8.1444289 2.9098184,2.9098184 0 0 1 3.1642335,8.1053709 2.6520358,2.6520358 0 0 1 2.0598696,7.6435105 5.2884484,5.2884484 0 0 1 1.0970907,6.7227189 L 1.073656,6.6944019 C 0.92523572,6.5186411 0.76509802,6.3301864 0.61570132,6.1202498 A 7.6866075,7.6866075 0 0 1 -0.60193071,3.305147 C -0.76987996,2.450754 -0.73570424,1.5973375 -0.37441807,0.89136481 -0.17912825,0.50078516 0.11966518,0.18832144 0.50438612,0.04283052 0.84028462,-0.08606076 1.2376994,-0.08801366 1.6888189,0.10434682 a 0.163067,0.163067 0 0 1 0.097645,0.12107969 L 2.1506793,1.8443791 A 0.44623725,0.44623725 0 0 1 2.0706105,2.3208863 0.92079152,0.92079152 0 0 1 1.6517138,2.5649986 c -0.054681,0.023435 -0.1181503,0.04394 -0.1855253,0.065422 -0.221654,0.072257 -0.47455428,0.1572083 -0.4618604,0.3564039 v 0 z M 7.9107527,3.4994604 10.865488,6.5977335 V 0.9851039 L 7.9107527,3.5023897 Z"
     id="path5176"
     style="stroke-width:0.0976449" />
</svg>
