<?xml version="1.0" encoding="UTF-8" standalone="no"?>
<!-- Generator: Adobe Illustrator 19.0.0, SVG Export Plug-In . SVG Version: 6.00 Build 0)  -->

<svg
   xmlns:dc="http://purl.org/dc/elements/1.1/"
   xmlns:cc="http://creativecommons.org/ns#"
   xmlns:rdf="http://www.w3.org/1999/02/22-rdf-syntax-ns#"
   xmlns:svg="http://www.w3.org/2000/svg"
   xmlns="http://www.w3.org/2000/svg"
   xmlns:sodipodi="http://sodipodi.sourceforge.net/DTD/sodipodi-0.dtd"
   xmlns:inkscape="http://www.inkscape.org/namespaces/inkscape"
   version="1.1"
   id="Layer_1"
   x="0px"
   y="0px"
   viewBox="0 0 300 300"
   xml:space="preserve"
   inkscape:version="0.91 r13725"
   sodipodi:docname="dental_surgery.svg"
   width="300"
   height="300"><metadata
     id="metadata49"><rdf:RDF><cc:Work
         rdf:about=""><dc:format>image/svg+xml</dc:format><dc:type
           rdf:resource="http://purl.org/dc/dcmitype/StillImage" /><dc:title></dc:title></cc:Work></rdf:RDF></metadata><defs
     id="defs47" /><sodipodi:namedview
     pagecolor="#ffffff"
     bordercolor="#666666"
     borderopacity="1"
     objecttolerance="10"
     gridtolerance="10000"
     guidetolerance="10"
     inkscape:pageopacity="0"
     inkscape:pageshadow="2"
     inkscape:window-width="1536"
     inkscape:window-height="801"
     id="namedview45"
     showgrid="true"
     inkscape:zoom="1.98"
     inkscape:cx="126.19597"
     inkscape:cy="132.95759"
     inkscape:window-x="-8"
     inkscape:window-y="-8"
     inkscape:window-maximized="1"
     inkscape:current-layer="Layer_1"
     showguides="false"><inkscape:grid
       type="xygrid"
       id="grid4163"
       dotted="true" /></sodipodi:namedview><g
     id="g3"
     transform="scale(1.0093056,1.010101)"><g
       id="g5"><circle
         style="fill:#17ab93"
         cx="148.5"
         cy="148.5"
         r="148.5"
         id="circle7" /></g><path
       style="fill:#118972"
       d="M 297.23405,149.22096 218.78755,62.693646 136.34045,118.50321 101.3681,247.5451 150.848,296.97 c 93.92417,-2.79005 145.39939,-79.05858 146.38605,-147.74904 z"
       id="path9"
       inkscape:connector-curvature="0"
       sodipodi:nodetypes="cccccc" /><path
       style="fill:#ffffff"
       d="m 148.5,182.929 c 21.75,0 26.245,37.492 30.24,59.816 1.125,6.285 14.643,8.191 18.52,3.118 48.336,-63.25 43.98,-132.524 39.929,-151.622 -4.479,-21.116 -17.017,-38.009 -38.009,-38.009 -20.99,0 -35.839,7.135 -50.679,21.976 -14.84,-14.841 -29.689,-21.976 -50.679,-21.976 -20.992,0 -33.53,16.893 -38.009,38.009 -4.051,19.098 -8.408,88.372 39.929,151.622 3.877,5.073 17.395,3.168 18.52,-3.118 3.993,-22.324 8.488,-59.816 30.238,-59.816 z"
       id="path11"
       inkscape:connector-curvature="0" /><path
       style="fill:#edeceb"
       d="m 237.188,94.241 c -4.479,-21.116 -17.017,-38.009 -38.009,-38.009 -20.99,0 -35.839,7.135 -50.679,21.976 -0.111,-0.111 -0.222,-0.212 -0.333,-0.322 l 0,105.062 c 0.113,-0.002 0.219,-0.018 0.333,-0.018 21.75,0 26.245,37.492 30.24,59.816 1.125,6.285 14.643,8.191 18.52,3.117 48.336,-63.25 43.98,-132.524 39.928,-151.622 z"
       id="path13"
       inkscape:connector-curvature="0" /></g><g
     id="g15"
     transform="scale(1.0093056,1.010101)" /><g
     id="g17"
     transform="scale(1.0093056,1.010101)" /><g
     id="g19"
     transform="scale(1.0093056,1.010101)" /><g
     id="g21"
     transform="scale(1.0093056,1.010101)" /><g
     id="g23"
     transform="scale(1.0093056,1.010101)" /><g
     id="g25"
     transform="scale(1.0093056,1.010101)" /><g
     id="g27"
     transform="scale(1.0093056,1.010101)" /><g
     id="g29"
     transform="scale(1.0093056,1.010101)" /><g
     id="g31"
     transform="scale(1.0093056,1.010101)" /><g
     id="g33"
     transform="scale(1.0093056,1.010101)" /><g
     id="g35"
     transform="scale(1.0093056,1.010101)" /><g
     id="g37"
     transform="scale(1.0093056,1.010101)" /><g
     id="g39"
     transform="scale(1.0093056,1.010101)" /><g
     id="g41"
     transform="scale(1.0093056,1.010101)" /><g
     id="g43"
     transform="scale(1.0093056,1.010101)" /></svg>