<?xml version="1.0" encoding="UTF-8" standalone="no"?>
<!-- Generator: Adobe Illustrator 19.0.0, SVG Export Plug-In . SVG Version: 6.00 Build 0)  -->

<svg
   xmlns:dc="http://purl.org/dc/elements/1.1/"
   xmlns:cc="http://creativecommons.org/ns#"
   xmlns:rdf="http://www.w3.org/1999/02/22-rdf-syntax-ns#"
   xmlns:svg="http://www.w3.org/2000/svg"
   xmlns="http://www.w3.org/2000/svg"
   xmlns:sodipodi="http://sodipodi.sourceforge.net/DTD/sodipodi-0.dtd"
   xmlns:inkscape="http://www.inkscape.org/namespaces/inkscape"
   version="1.1"
   id="Layer_1"
   x="0px"
   y="0px"
   viewBox="0 0 297 297"
   style="enable-background:new 0 0 297 297;"
   xml:space="preserve"
   inkscape:version="0.91 r13725"
   sodipodi:docname="dentist.svg"><metadata
     id="metadata49"><rdf:RDF><cc:Work
         rdf:about=""><dc:format>image/svg+xml</dc:format><dc:type
           rdf:resource="http://purl.org/dc/dcmitype/StillImage" /></cc:Work></rdf:RDF></metadata><defs
     id="defs47" /><sodipodi:namedview
     pagecolor="#ffffff"
     bordercolor="#666666"
     borderopacity="1"
     objecttolerance="10"
     gridtolerance="10"
     guidetolerance="10"
     inkscape:pageopacity="0"
     inkscape:pageshadow="2"
     inkscape:window-width="1920"
     inkscape:window-height="1017"
     id="namedview45"
     showgrid="false"
     inkscape:zoom="1.98"
     inkscape:cx="148.5"
     inkscape:cy="138.23292"
     inkscape:window-x="-8"
     inkscape:window-y="-8"
     inkscape:window-maximized="1"
     inkscape:current-layer="Layer_1" /><g
     id="g3"><g
       id="g5"><circle
         style="fill:#17AB93;"
         cx="148.5"
         cy="148.5"
         r="148.5"
         id="circle7" /></g><path
       style="fill:#118972"
       d="M 297.23405,149.22096 218.78755,62.693646 136.34045,118.50321 101.3681,247.5451 150.848,296.97 c 93.92417,-2.79005 145.39939,-79.05858 146.38605,-147.74904 z"
       id="path9"
       inkscape:connector-curvature="0"
       sodipodi:nodetypes="cccccc" /><path
       style="fill:#FFFFFF;"
       d="M148.5,182.929c21.75,0,26.245,37.492,30.24,59.816c1.125,6.285,14.643,8.191,18.52,3.118   c48.336-63.25,43.98-132.524,39.929-151.622c-4.479-21.116-17.017-38.009-38.009-38.009c-20.99,0-35.839,7.135-50.679,21.976   c-14.84-14.841-29.689-21.976-50.679-21.976c-20.992,0-33.53,16.893-38.009,38.009c-4.051,19.098-8.408,88.372,39.929,151.622   c3.877,5.073,17.395,3.168,18.52-3.118C122.255,220.421,126.75,182.929,148.5,182.929z"
       id="path11" /><path
       style="fill:#EDECEB;"
       d="M237.188,94.241c-4.479-21.116-17.017-38.009-38.009-38.009c-20.99,0-35.839,7.135-50.679,21.976   c-0.111-0.111-0.222-0.212-0.333-0.322v105.062c0.113-0.002,0.219-0.018,0.333-0.018c21.75,0,26.245,37.492,30.24,59.816   c1.125,6.285,14.643,8.191,18.52,3.117C245.596,182.613,241.24,113.339,237.188,94.241z"
       id="path13" /></g><g
     id="g15" /><g
     id="g17" /><g
     id="g19" /><g
     id="g21" /><g
     id="g23" /><g
     id="g25" /><g
     id="g27" /><g
     id="g29" /><g
     id="g31" /><g
     id="g33" /><g
     id="g35" /><g
     id="g37" /><g
     id="g39" /><g
     id="g41" /><g
     id="g43" /></svg>