<?xml version="1.0" encoding="UTF-8" standalone="no"?>
<svg
   viewBox="0 0 24 24"
   width="24pt"
   height="24pt"
   version="1.1"
   id="svg808"
   sodipodi:docname="fandb_white.svg"
   inkscape:version="1.2.2 (732a01da63, 2022-12-09)"
   xmlns:inkscape="http://www.inkscape.org/namespaces/inkscape"
   xmlns:sodipodi="http://sodipodi.sourceforge.net/DTD/sodipodi-0.dtd"
   xmlns="http://www.w3.org/2000/svg"
   xmlns:svg="http://www.w3.org/2000/svg">
  <defs
     id="defs812" />
  <sodipodi:namedview
     id="namedview810"
     pagecolor="#ffffff"
     bordercolor="#000000"
     borderopacity="0.25"
     inkscape:showpageshadow="2"
     inkscape:pageopacity="0.0"
     inkscape:pagecheckerboard="0"
     inkscape:deskcolor="#d1d1d1"
     inkscape:document-units="pt"
     showgrid="false"
     inkscape:zoom="12.125"
     inkscape:cx="-10.474227"
     inkscape:cy="18.061856"
     inkscape:window-width="1920"
     inkscape:window-height="974"
     inkscape:window-x="-11"
     inkscape:window-y="-11"
     inkscape:window-maximized="1"
     inkscape:current-layer="svg808" />
  <path
     d="m 8.3057777,4.1750783 c -0.038044,0.061643 0.5412649,0.7201861 1.2874987,1.4635562 1.2862716,1.2813613 1.5764736,1.6975721 1.1835816,1.6975721 -0.09519,0 -0.7820985,-0.6113605 -1.5264236,-1.3585487 C 8.1755416,4.8988098 7.8586107,4.6510201 7.7105096,4.7737557 7.5602261,4.8985373 7.7896055,5.1948759 8.8961372,6.305226 9.6506895,7.06237 10.268051,7.7574631 10.268051,7.8499245 c 0,0.3877086 -0.4211205,0.09287 -1.6994818,-1.1904008 C 7.4936759,5.5806755 7.1767451,5.3328857 7.0286438,5.4556214 6.8783604,5.580403 7.1077401,5.8767417 8.2142715,6.9870917 8.9688234,7.744235 9.586185,8.4393288 9.586185,8.5317902 c 0,0.387981 -0.4213927,0.092597 -1.702482,-1.1934014 C 5.8352425,5.2822916 5.8464254,5.9173813 7.9014303,8.3490504 8.9030904,9.534405 9.6782355,9.981437 10.53575,9.868382 11.332714,9.763376 11.97585,9.1612888 12.096403,8.4075544 12.266733,7.34248 11.469087,6.247404 9.3816242,4.6803406 8.5297015,4.0407502 8.4204664,3.9894742 8.3057762,4.1750783 m 4.9023408,4.2229296 c -2.029504,2.0091851 -4.3192093,4.2417481 -5.0879441,4.9613891 -1.4619197,1.368369 -1.6606157,1.740531 -1.1835825,2.2177 0.2221518,0.222016 0.8415585,0.284884 1.0833481,0.109917 0.076096,-0.05509 1.0789841,-1.12726 2.2287455,-2.382437 1.846765,-2.016278 2.12142,-2.265704 2.357483,-2.139286 0.147009,0.07869 0.351024,0.123826 0.453303,0.100235 0.219153,-0.05032 3.599569,-3.83754 4.098967,-4.5920923 0.683229,-1.0324807 0.699049,-1.9283157 0.03382,-1.9283157 -0.201969,0 -1.449646,1.1440335 -3.984141,3.6528899 m 0.461351,3.0790311 -0.48508,0.451396 1.851811,1.948499 c 1.499149,1.577428 1.922588,1.948499 2.223427,1.948499 0.517264,0 0.781691,-0.263609 0.781691,-0.779372 0,-0.387573 -0.222833,-0.649955 -1.896677,-2.233383 -1.043255,-0.986932 -1.917679,-1.792762 -1.943317,-1.790715 -0.02564,0.002 -0.264973,0.206877 -0.531855,0.455076"
     stroke="none"
     fill="#090909"
     fill-rule="evenodd"
     id="path140"
     style="fill:#ffffff;stroke-width:0.136373" />
</svg>
