<?xml version="1.0" encoding="UTF-8" standalone="no"?>
<svg
   viewBox="0 0 24 24"
   width="24pt"
   height="24pt"
   version="1.1"
   id="svg1"
   sodipodi:docname="giraffas.svg"
   xml:space="preserve"
   inkscape:version="1.4 (86a8ad7, 2024-10-11)"
   xmlns:inkscape="http://www.inkscape.org/namespaces/inkscape"
   xmlns:sodipodi="http://sodipodi.sourceforge.net/DTD/sodipodi-0.dtd"
   xmlns="http://www.w3.org/2000/svg"
   xmlns:svg="http://www.w3.org/2000/svg"><defs
     id="defs1" /><sodipodi:namedview
     id="namedview1"
     pagecolor="#ffffff"
     bordercolor="#000000"
     borderopacity="0.25"
     inkscape:showpageshadow="2"
     inkscape:pageopacity="0.0"
     inkscape:pagecheckerboard="0"
     inkscape:deskcolor="#d1d1d1"
     inkscape:document-units="pt"
     showgrid="false"
     inkscape:zoom="16.241359"
     inkscape:cx="10.066892"
     inkscape:cy="19.856713"
     inkscape:window-width="1920"
     inkscape:window-height="974"
     inkscape:window-x="-11"
     inkscape:window-y="1609"
     inkscape:window-maximized="1"
     inkscape:current-layer="svg1"><inkscape:page
       x="0"
       y="0"
       width="24"
       height="24"
       id="page2"
       margin="0"
       bleed="0" /></sodipodi:namedview><g
     id="g2"
     transform="matrix(0.75,0,0,0.75,-455.07843,-172.41478)"><g
       id="g28"
       transform="matrix(0.06290887,0,0,0.06290887,606.467,231.80089)"><ellipse
         style="fill:#ffffff;stroke-width:1.12062"
         id="path28"
         cx="260.49243"
         cy="197.08824"
         rx="166.85922"
         ry="162.13992" /><path
         d="M 0,0 C 1.1625732,0.42539062 1.1625732,0.42539062 2.3486328,0.859375 19.821678,7.2950187 35.203945,15.720701 50,27 c 1.397988,1.059609 1.397988,1.059609 2.824219,2.140625 32.495006,25.616501 53.721311,62.194755 61.717771,102.579585 0.30976,1.54185 0.64451,3.07886 1.00196,4.61036 1.96125,9.11332 1.8528,18.26645 1.83105,27.54443 -8.2e-4,1.30308 -8.2e-4,1.30308 -0.002,2.63248 -0.0378,13.23239 -0.79592,25.68963 -4.373,38.49252 -0.32146,1.22759 -0.32146,1.22759 -0.64941,2.47998 C 105.84488,232.18178 95.247392,255.88546 78,275 c -0.692227,0.79922 -1.384453,1.59844 -2.097656,2.42187 C 73.646246,279.99325 71.338793,282.50358 69,285 c -0.703345,0.75434 -0.703345,0.75434 -1.420898,1.52393 -10.349041,11.00883 -21.75402,19.69006 -34.641602,27.53857 -0.606987,0.37028 -1.213975,0.74057 -1.839355,1.12207 C 27.376425,317.38184 24.198819,318.60039 20,320 c 0,-45.87 0,-91.74 0,-139 19,9 19,9 23,11 0.06059,-0.99902 0.121172,-1.99805 0.183594,-3.02734 0.08379,-1.29036 0.167578,-2.58071 0.253906,-3.91016 0.08121,-1.28777 0.162422,-2.57555 0.246094,-3.90234 C 44,178 44,178 45,177 c 1.666171,-0.0406 3.333881,-0.0427 5,0 -0.01571,0.57444 -0.03142,1.14888 -0.04761,1.74072 -0.06275,2.62799 -0.101508,5.25583 -0.139893,7.88428 -0.02514,0.90363 -0.05027,1.80727 -0.07617,2.73828 -0.06877,6.28138 0.532127,10.73483 5.017578,15.5 0.596836,0.47824 1.193672,0.95649 1.808594,1.44922 0.599414,0.49113 1.198828,0.98227 1.816406,1.48828 C 62.966555,211.19454 68.524018,210.41315 74,210 c 2.611729,-0.74166 4.580578,-1.71307 7,-3 0.99,-0.33 1.98,-0.66 3,-1 1.119351,-1.6463 1.119351,-1.6463 2,-4 0.390586,-0.85465 0.390586,-0.85465 0.789062,-1.72656 C 90.58696,191.36435 89.501754,183.06961 85.96875,174.1543 82.042843,165.4239 76.880641,157.21884 72,149 c -0.419751,-0.70947 -0.839502,-1.41894 -1.271973,-2.1499 -1.772173,-2.98857 -3.561701,-5.96601 -5.364746,-8.93604 -3.497002,-5.76922 -6.903762,-11.5923 -10.326904,-17.40552 -2.81939,-4.78074 -5.657768,-9.54834 -8.536377,-14.2937 -0.834708,-1.37829 -0.834708,-1.37829 -1.686279,-2.78442 -1.065397,-1.75604 -2.13444,-3.509875 -3.20752,-5.261231 C 41.131584,97.386326 40.656968,96.603462 40.167969,95.796875 39.747976,95.109482 39.327983,94.42209 38.895264,93.713867 38,92 38,92 38,90 23.15,90 8.3,90 -7,90 -5.8932487,75.612233 -5.8932487,75.612233 -4.4375,68.875 -2.516806,59.488843 -2.516806,59.488843 -3,50 c -2.6172772,-3.47916 -5.8768972,-3.988673 -10,-5 -0.103044,0.69988 -0.206089,1.399761 -0.312256,2.12085 -1.443529,9.603069 -3.095005,19.165788 -4.774414,28.72998 -0.480365,2.737513 -0.957704,5.475542 -1.434814,8.213623 -0.306462,1.750683 -0.613096,3.501335 -0.919922,5.251953 -0.141681,0.813525 -0.283362,1.627049 -0.429337,2.465225 C -21.476639,95.221481 -22.12401,98.619117 -23,102 c -8.817957,-1.37844 -17.529425,-3.105854 -26.25,-5 -1.214297,-0.260391 -2.428594,-0.520781 -3.679687,-0.789063 C -58.981253,94.905698 -65.006451,93.55057 -71,92 c 2.217264,10.49145 4.530287,20.17967 13.546875,26.74609 8.470011,4.32942 16.081784,4.63701 25.515625,4.44141 1.247168,-0.0135 2.494336,-0.0271 3.779297,-0.041 3.053193,-0.0351 6.105463,-0.0843 9.158203,-0.14648 -2.019348,3.66474 -3.981998,7.01248 -6.621094,10.25781 -3.24099,4.46427 -3.718227,9.25405 -4.441406,14.61719 -0.15791,1.04938 -0.31582,2.09875 -0.478516,3.17993 -0.332192,2.20833 -0.65711,4.41776 -0.975097,6.62818 -0.767538,5.26123 -1.631851,10.50631 -2.483887,15.75439 -0.334151,2.09232 -0.667481,4.18477 -1,6.27734 -1.151922,7.24339 -2.311536,14.48553 -3.471161,21.72768 -0.81126,5.06816 -1.621426,10.13648 -2.427765,15.20543 -1.793158,11.26031 -3.613432,22.51579 -5.468261,33.76611 -0.20265,1.22936 -0.4053,2.45872 -0.61409,3.72533 -0.417516,2.53227 -0.835063,5.06453 -1.25264,7.59679 -3.47632,21.08744 -6.911266,42.17846 -10.052704,63.319 -0.111569,0.74305 -0.223139,1.48611 -0.338089,2.25169 -0.292668,1.95092 -0.58135,3.90245 -0.869675,5.85402 C -60,336 -60,336 -61,338 c -7.676264,0.26085 -14.984753,-0.49509 -22.5625,-1.6875 -1.137356,-0.17717 -2.274712,-0.35433 -3.446533,-0.53687 C -98.901809,333.83009 -109.94716,330.78932 -121,326 c 0.65344,-18.19858 1.48113,-36.38389 2.41016,-54.57031 0.13323,-2.63084 0.26632,-5.26169 0.39927,-7.89255 0.31037,-6.13679 0.62232,-12.27349 0.93488,-18.41016 0.35679,-7.00646 0.71174,-14.013 1.06656,-21.01955 0.72772,-14.36925 1.45765,-28.73838 2.18913,-43.10743 1.42742,0.46986 2.85432,0.94127 4.28101,1.41333 1.19199,0.39352 1.19199,0.39352 2.40806,0.795 3.01483,1.03281 5.94136,2.2322 8.87343,3.47917 1.032539,0.43699 2.065078,0.87398 3.128906,1.32422 0.761836,0.32613 1.523672,0.65226 2.308594,0.98828 0.06059,-0.91523 0.121172,-1.83047 0.183594,-2.77344 0.08379,-1.18851 0.167578,-2.37703 0.253906,-3.60156 0.121816,-1.77504 0.121816,-1.77504 0.246094,-3.58594 C -92,176 -92,176 -91,174 c 3.0625,-0.625 3.0625,-0.625 6,-1 -0.165,0.9075 -0.33,1.815 -0.5,2.75 -1.16527,8.5743 -1.949936,17.02255 3.5,24.25 4.288911,4.59442 8.533677,6.75337 14.75,7.375 5.542073,-0.16762 10.6527,-2.13073 14.859375,-5.76563 5.301938,-5.92569 5.930767,-12.58203 5.742188,-20.21093 -1.286335,-12.43457 -10.062941,-23.3474 -16.588868,-33.61524 -2.830328,-4.46894 -5.607892,-8.97022 -8.387695,-13.4707 -0.538586,-0.86963 -1.077173,-1.73927 -1.63208,-2.63525 -3.948594,-6.37772 -7.86244,-12.77612 -11.766113,-19.1814 C -89.622356,104.95982 -94.304438,97.476231 -99,90 c -0.627532,0.03029 -1.25506,0.06059 -1.90161,0.0918 -13.7105,0.649369 -27.37258,1.053875 -41.09839,0.9082 -0.15197,-9.813948 0.31803,-19.530306 1,-29.3125 0.0967,-1.434218 0.19311,-2.868463 0.28906,-4.302734 C -140.47849,53.922859 -140.24077,50.461339 -140,47 c -1.4401,0.256622 -2.87707,0.530908 -4.3125,0.8125 -0.80051,0.15082 -1.60102,0.301641 -2.42578,0.457031 -2.60391,0.840986 -3.54918,1.620516 -5.26172,3.730469 -0.53576,2.008906 -0.53576,2.008906 -0.6001,4.252686 -0.0566,0.854865 -0.11321,1.709729 -0.17154,2.590499 -0.047,0.921866 -0.094,1.843732 -0.14242,2.793534 -0.06,0.953407 -0.11995,1.906815 -0.18173,2.889114 -0.18952,3.053259 -0.35996,6.107223 -0.52921,9.161667 -0.18032,3.036242 -0.36455,6.072215 -0.55063,9.108109 -0.11443,1.888573 -0.22486,3.777395 -0.33063,5.666473 C -154.80778,93.680746 -155.29091,98.82047 -156,104 c -6.6213,-1.80181 -12.62212,-4.099567 -18.75,-7.207031 -4.75657,-1.160558 -8.56581,0.06239 -13.25,1.207031 -1.78214,0.365238 -3.56603,0.722039 -5.35156,1.070312 -1.30518,0.261036 -1.30518,0.261036 -2.63672,0.527344 -4.00391,0.800784 -8.00781,1.601564 -12.01172,2.402344 2.90594,6.77606 5.68721,11.98391 12,16 0.63809,0.4125 1.27617,0.825 1.93359,1.25 10.22367,5.24851 25.26961,4.09131 36.07398,1.07666 2.28291,-0.37428 3.8067,-0.0249 5.99243,0.67334 -0.67402,0.84643 -1.34804,1.69286 -2.04248,2.56494 -7.87393,10.44631 -10.20586,20.04363 -12.08252,32.81006 -0.31482,1.94534 -0.63392,3.89 -0.95703,5.83398 -0.49653,2.99151 -0.99028,5.98319 -1.47052,8.97736 -1.44176,8.98243 -3.15755,17.89795 -4.94708,26.81662 -3.50317,17.4823 -6.73274,35.01136 -9.88709,52.55954 -0.31633,1.75913 -0.63273,3.51824 -0.94922,5.27734 -0.14822,0.82403 -0.29644,1.64805 -0.44916,2.49704 -1.00592,5.56854 -2.07067,11.1211 -3.2149,16.66312 -0.66,0 -1.32,0 -2,0 -1.18579,-1.30664 -1.18579,-1.30664 -2.50391,-3.15625 -0.48895,-0.68457 -0.97791,-1.36915 -1.48169,-2.07446 -0.52037,-0.74887 -1.04075,-1.49773 -1.5769,-2.26929 -0.53649,-0.76885 -1.07298,-1.53769 -1.62573,-2.32983 -20.31126,-29.54008 -32.23056,-63.83023 -32.12744,-99.80371 0.003,-2.29907 -0.0204,-4.59685 -0.0457,-6.89576 -0.0434,-10.15515 1.12625,-19.57387 3.36133,-29.4707 0.29016,-1.34083 0.29016,-1.34083 0.58618,-2.70874 C -218.44361,95.326744 -203.33443,68.300103 -182,45 c 0.8598,-0.943594 1.71961,-1.887188 2.60547,-2.859375 C -134.93795,-4.4009122 -60.56519,-22.861391 0,0 Z"
         fill="#f29101"
         transform="translate(315,20)"
         id="path2" /><path
         d="M 0,0 C 2.1892208,1.4638854 4.3003331,2.9783968 6.3825684,4.592041 7.1469824,5.1772754 7.9113965,5.7625098 8.6989746,6.3654785 11.620998,8.916195 13.476971,10.896636 14.4646,14.69751 c 0.281283,4.533245 0.26226,7.378041 -2.636719,11.027344 -2.575774,2.309584 -5.2665455,4.384148 -8.0078126,6.492187 -0.5246485,0.623906 -1.0492969,1.247813 -1.5898438,1.890625 -2.13203212,2.527728 -4.2692043,3.932859 -7.564209,4.442627 -0.7522485,0.0099 -1.504497,0.01982 -2.279541,0.03003 -1.2249316,0.01921 -1.2249316,0.01921 -2.4746096,0.03882 -3.706124,-0.03971 -7.391349,-0.190646 -11.091797,-0.4021 -8.048358,-11.454084 -8.048358,-11.454084 -7.933593,-17.496094 1.105299,-4.362461 2.43423,-7.754861 4.933593,-11.503906 3.480495,-2.0570802 7.196239,-3.6413982 10.875,-5.3125 1.006758,-0.4801758 2.013516,-0.9603515 3.050782,-1.4550781 1.4559957,-0.6661231 1.4559957,-0.6661231 2.9414059,-1.3457031 0.8880029,-0.41032474 1.7760058,-0.82064945 2.6909179,-1.24340824 C -2.1799316,-0.78295898 -2.1799316,-0.78295898 0,0 Z"
         fill="#f29204"
         transform="translate(307.17993,309.78296)"
         id="path3" /><path
         d="M 0,0 C 3.043129,2.3215198 4.8551502,3.7807347 6.1796875,7.3945312 6.7870039,16.467838 2.0025616,23.421916 -2.8125,30.6875 c -3.8746008,0.145847 -7.748491,0.234254 -11.625,0.3125 -1.641621,0.06284 -1.641621,0.06284 -3.316406,0.126953 -9.127622,0.138297 -9.127622,0.138297 -12.832031,-2.537109 -2.783118,-3.627818 -2.784851,-5.166104 -2.226563,-9.652344 0.12375,-1.149844 0.2475,-2.299688 0.375,-3.484375 0.20625,-1.242656 0.4125,-2.485312 0.625,-3.765625 0.06083,-0.763608 0.121655,-1.527217 0.184326,-2.3139648 0.312235,-2.5107491 0.695868,-4.412205 1.815674,-6.6860352 2.866244,-2.13483722 5.916237,-3.09475821 9.3125,-4.125 1.282939,-0.4524609 1.282939,-0.4524609 2.591797,-0.9140625 C -10.509823,-4.8272404 -6.6437791,-4.2957769 0,0 Z"
         fill="#f29203"
         transform="translate(179.8125,286.3125)"
         id="path4" /><path
         d="m 0,0 c 1.3674661,0.39396726 2.7205437,0.83886837 4.0625,1.3125 2.1645027,0.5297547 4.3313158,1.0501325 6.5,1.5625 1.834539,0.4745281 3.668307,0.9521013 5.5,1.4375 1.350239,15.90282 1.350239,15.90282 -1.652344,20.566406 C 10.36857,27.826636 6.8343532,28.651151 1.875,28.3125 c -2.35546875,-0.375 -2.35546875,-0.375 -4.8125,-1 C -4.4495703,26.952852 -4.4495703,26.952852 -5.9921875,26.585937 -9.6724637,24.994731 -10.797374,23.328986 -12.875,19.9375 -13.482148,18.981016 -14.089297,18.024531 -14.714844,17.039062 -15.9375,14.3125 -15.9375,14.3125 -15.945313,12.292969 -12.963554,6.4334672 -6.5532522,0.52009938 0,0 Z"
         fill="#f29203"
         transform="translate(298.9375,250.6875)"
         id="path5" /><path
         d="m 0,0 c 0.6123863,7.5935901 -0.78907657,12.622182 -5,19 -5.379414,5.879825 -11.882028,7.375648 -19.503906,8.53125 C -28,27 -28,27 -29.417725,25.637451 -30.765143,23.713345 -31.892961,21.758919 -33,19.6875 -33.406055,18.997207 -33.812109,18.306914 -34.230469,17.595703 -35.375,15.574219 -35.375,15.574219 -37,12 c 0.33,-0.99 0.66,-1.98 1,-3 2.248678,-0.9950914 4.368536,-1.7825021 6.703125,-2.515625 0.674804,-0.2200873 1.349608,-0.4401746 2.044861,-0.6669312 1.430559,-0.4630114 2.863112,-0.9199032 4.297424,-1.3711547 2.187643,-0.6909367 4.365911,-1.4068717 6.544434,-2.1259766 1.391435,-0.4468477 2.783348,-0.8922088 4.175781,-1.3359375 0.649144,-0.21448792 1.298287,-0.42897583 1.967102,-0.64996338 C -6.4780033,-0.83607504 -3.8154356,-1.1626435 0,0 Z"
         fill="#fefbf7"
         transform="translate(404,111)"
         id="path6" /><path
         d="M 0,0 C 1.2380014,0.64192667 2.4685408,1.2984385 3.6914063,1.96875 4.3275586,2.3026172 4.9637109,2.6364844 5.6191406,2.9804688 7.1708373,3.7971512 8.713382,4.6311834 10.253906,5.46875 9.7059773,10.087008 7.6642614,13.450246 5.1914062,17.28125 4.8143555,17.87873 4.4373047,18.476211 4.0488281,19.091797 3.1240106,20.555116 2.1898856,22.012545 1.2539062,23.46875 -13.741609,24.201485 -13.741609,24.201485 -18.65625,19.953125 c -1.94629,-2.755183 -3.616316,-5.452404 -5.089844,-8.484375 1.461584,-3.3699725 3.338089,-5.6074513 5.9375,-8.1875 0.689649,-0.6948047 1.379297,-1.3896094 2.089844,-2.1054688 C -11.158761,-2.7701893 -5.2514057,-2.4492831 0,0 Z"
         fill="#f29204"
         transform="translate(172.74609,234.53125)"
         id="path7" /><path
         d="m 0,0 c 2.3125,0.12890625 2.3125,0.12890625 5,1 1.5625,2.6523438 1.5625,2.6523438 3,5.9375 2.124175,3.98815 3.048912,5.709875 7.339844,7.300781 C 18.589056,14.700439 21.719722,14.980269 25,15 c 0,3.1875 0,3.1875 -1,7 -1.500488,1.279297 -1.500488,1.279297 -3.445313,2.40625 -0.722197,0.42241 -1.444394,0.844819 -2.188476,1.280029 C 14.307734,27.939546 10.236743,30.157666 6.125,32.3125 5.2716406,32.766895 4.4182812,33.221289 3.5390625,33.689453 2.724375,34.118066 1.9096875,34.54668 1.0703125,34.988281 -0.03159424,35.568964 -0.03159424,35.568964 -1.1557617,36.161377 -3,37 -3,37 -5,37 -3.7397175,24.589924 -2.0462219,12.304614 0,0 Z"
         fill="#f29305"
         transform="translate(274,276)"
         id="path8" /><path
         d="M 0,0 C 3.0215589,0.92465765 4.6346115,1.4498986 6.4140625,4.1289062 6.8136719,4.9319922 7.2132812,5.7350781 7.625,6.5625 c 1.8841768,3.0940167 2.673429,4.235944 6.203125,5.25 C 16.582053,12.038463 19.240768,12.122742 22,12 c -0.604651,5.44186 -0.604651,5.44186 -2.0625,7.5 -2.904925,2.248975 -6.220398,3.400045 -9.625,4.6875 C 9.2596582,24.596455 9.2596582,24.596455 8.1855469,25.013672 6.4597576,25.682855 4.7302304,26.342385 3,27 2.9394141,27.626484 2.8788281,28.252969 2.8164063,28.898437 2.7326172,29.715703 2.6488281,30.532969 2.5625,31.375 2.4812891,32.187109 2.4000781,32.999219 2.3164063,33.835937 2,36 2,36 1,38 c -2.6486043,0.593556 -5.2919732,0.742093 -8,1 0.6257875,-8.107217 1.9926199,-16.015192 3.5,-24 0.2255859,-1.225898 0.4511719,-2.451797 0.6835937,-3.714844 C -1.1316689,2.2633377 -1.1316689,2.2633377 0,0 Z"
         fill="#f29409"
         transform="translate(141,255)"
         id="path9" /><path
         d="M 0,0 C 1.125835,0.06622559 1.125835,0.06622559 2.2744141,0.13378906 3.2523291,0.19131348 3.2523291,0.19131348 4.25,0.25 3.6424595,9.0740438 2.5302921,17.759989 1.1875,26.5 1.0012305,27.733633 0.81496094,28.967266 0.62304688,30.238281 0.16888445,33.24274 -0.28885157,36.246607 -0.75,39.25 -2.3546345,38.939911 -3.9586923,38.626837 -5.5625,38.3125 -6.4558203,38.138477 -7.3491406,37.964453 -8.2695313,37.785156 -10.75,37.25 -10.75,37.25 -13.75,36.25 -11.156941,7.3602674 -11.156941,7.3602674 -6.9453125,1.9179687 -4.359695,-0.04654848 -3.1954296,-0.18796644 0,0 Z"
         fill="#fefbf7"
         transform="translate(201.75,66.75)"
         id="path10" /><path
         d="m 0,0 c 3.25,0.3125 3.25,0.3125 6.125,1.6875 3.2150565,3.9715404 2.4629378,7.6699562 2.125,12.625 -0.5296247,4.234973 -1.2447221,8.425042 -2,12.625 C 6.0592188,28.03707 5.8684375,29.136641 5.671875,30.269531 5.2053721,32.951923 4.7312961,35.632731 4.25,38.3125 2.4576766,38.003789 0.66615679,37.690409 -1.125,37.375 -2.1227344,37.200977 -3.1204688,37.026953 -4.1484375,36.847656 -6.75,36.3125 -6.75,36.3125 -8.75,35.3125 -8.1049245,27.725436 -7.0140982,20.256728 -5.75,12.75 -5.5721094,11.658809 -5.3942187,10.567617 -5.2109375,9.4433594 -5.0382031,8.4088867 -4.8654687,7.3744141 -4.6875,6.3085937 -4.5315234,5.3720093 -4.3755469,4.4354248 -4.2148437,3.470459 -3.5281604,0.28264714 -3.3277384,0.3781521 0,0 Z"
         fill="#fefbf6"
         transform="translate(334.75,66.6875)"
         id="path11" /><path
         d="m 0,0 c 0,13.2 0,26.4 0,40 -1.65,0.66 -3.3,1.32 -5,2 -2.1933509,-1.638988 -4.3499111,-3.305855 -6.5,-5 -0.620039,-0.457617 -1.240078,-0.915234 -1.878906,-1.386719 -2.497496,-2.003485 -4.291216,-3.524121 -5.236084,-6.643799 C -18.777344,26.855469 -18.777344,26.855469 -18,23 c 2.589844,-2.074219 2.589844,-2.074219 5.9375,-3.6875 4.8432252,-2.733369 4.8432252,-2.733369 6.9414063,-7.636719 C -4.9479207,8.1544843 -4.9479207,8.1544843 -5.1875,4.7578125 -5.125625,3.8477344 -5.06375,2.9376563 -5,2 -3.2947994,0.78298184 -2.1347394,0 0,0 Z"
         fill="#f29305"
         transform="translate(328,267)"
         id="path12" /><path
         d="m 0,0 c 2.64,0 5.28,0 8,0 1.3725748,2.2195465 2.722592,4.4483541 4.0625,6.6875 0.584912,0.9387598 0.584912,0.9387598 1.181641,1.8964844 1.771724,2.9946836 2.804254,4.8524046 2.501953,8.3730466 C 15.499883,17.631211 15.253672,18.305391 15,19 13.966172,19.050273 12.932344,19.100547 11.867188,19.152344 7.2653236,20.161035 5.1516646,22.176525 2.125,25.5625 0.42664018,27.385075 -1.2819949,29.195797 -3,31 -3.33,31 -3.66,31 -4,31 -3.4622528,20.504659 -1.8437444,10.331926 0,0 Z"
         fill="#f29509"
         transform="translate(283,220)"
         id="path13" /><path
         d="M 0,0 C 0.99,0.66 1.98,1.32 3,2 3.3405762,4.1547852 3.3405762,4.1547852 3.2929688,6.7890625 3.2833008,7.7300781 3.2736328,8.6710938 3.2636719,9.640625 3.2385352,10.625469 3.2133984,11.610312 3.1875,12.625 3.1671973,14.113867 3.1671973,14.113867 3.1464844,15.632813 3.1110574,18.089081 3.061662,20.544273 3,23 1.5620661,22.689503 0.1246682,22.376522 -1.3125,22.0625 -2.1130078,21.888477 -2.9135156,21.714453 -3.7382813,21.535156 -8.7718234,20.344145 -8.7718234,20.344145 -10.421875,17.855469 -10.860156,16.975039 -11.298438,16.094609 -11.75,15.1875 -12.198594,14.314805 -12.647187,13.442109 -13.109375,12.542969 -14.085428,9.7560816 -14.029154,8.7073768 -13,6 -12.7525,5.29875 -12.505,4.5975 -12.25,3.875 -9.429777,-0.35533452 -4.6980097,-0.40852258 0,0 Z"
         fill="#f29407"
         transform="translate(325,226)"
         id="path14" /><path
         d="M 0,0 C 1.1462632,0.97866338 2.2919979,1.9579459 3.4375,2.9375 4.3946289,3.7554102 4.3946289,3.7554102 5.3710937,4.5898437 7.9808408,6.8491212 7.9808408,6.8491212 8.5,10.9375 8.2055805,13.79889 7.6151595,15.427471 5.4921875,17.40332 -5.8357598,26 -5.8357598,26 -9,26 -8.6457966,19.905259 -7.9311167,13.929832 -6.75,7.9375 -6.5385938,6.8533984 -6.3271875,5.7692969 -6.109375,4.6523437 -5,2 -5,2 -2.390625,0.62890625 -1.2072656,0.31759766 -1.2072656,0.31759766 0,0 Z"
         fill="#f29408"
         transform="translate(155,207)"
         id="path15" /><path
         d="M 0,0 C 0.99386719,0.02707031 1.9877344,0.05414063 3.0117188,0.08203125 4.1506055,0.13423828 4.1506055,0.13423828 5.3125,0.1875 5.8478282,1.7450934 6.3651538,3.3088805 6.875,4.875 7.1650391,5.7451172 7.4550781,6.6152344 7.7539062,7.5117187 8.5159257,11.161952 8.1062581,13.86457 6.1875,17.0625 c -3.0962977,1.857779 -5.47609832,0.945425 -8.875,0.125 -2.875,-0.875 -2.875,-0.875 -5,-3 -0.9159974,-3.675298 -1.363991,-7.2235936 -1,-11 C -6.4578895,-0.38139863 -3.9696997,-0.14010705 0,0 Z"
         fill="#f29408"
         transform="translate(184.6875,212.8125)"
         id="path16" /><path
         d="M 0,0 C 0.66,0 1.32,0 2,0 2.1921972,9.6952782 1.5958132,19.328674 1,29 -3.7990969,28.212583 -6.8791494,26.504831 -11,24 -11.67817,17.458667 -9.6720497,13.972846 -6.0625,8.625 -5.5939258,7.9018359 -5.1253516,7.1786719 -4.6425781,6.4335937 -1.287441,1.287441 -1.287441,1.287441 0,0 Z"
         fill="#f29306"
         transform="translate(190,250)"
         id="path17" /><path
         d="M 0,0 C 2.8515625,0.63671875 2.8515625,0.63671875 6,2 7.4609375,4.6445312 7.4609375,4.6445312 8.375,7.8125 8.6921094,8.8501953 9.0092188,9.8878906 9.3359375,10.957031 9.9597868,13.815729 10.327049,16.096197 10,19 7.3866342,21.940037 5.7529911,23.748675 1.8203125,24.3125 -0.12258607,24.3125 -2.0642809,24.166872 -4,24 -3.3841513,18.867928 -2.7059105,13.745485 -2,8.625 -1.835,7.4210156 -1.67,6.2170312 -1.5,4.9765625 -1,2 -1,2 0,0 Z"
         fill="#f2970f"
         transform="translate(265,334)"
         id="path18" /><path
         d="m 0,0 c 3.3254155,0.32145683 4.3150318,0.71392804 7,2.875 1.7298395,3.5348893 1.7424551,6.0493227 1.4375,9.9375 -1.432945,0.841142 -2.8715441,1.672657 -4.3125,2.5 C 3.3244922,15.776563 2.5239844,16.240625 1.6992187,16.71875 -0.5625,17.8125 -0.5625,17.8125 -3.5625,17.8125 -5.1679687,15.84375 -5.1679687,15.84375 -6.75,13.3125 -7.544707,12.059531 -7.544707,12.059531 -8.3554688,10.78125 -8.9529492,9.8067188 -8.9529492,9.8067188 -9.5625,8.8125 -7.3977452,3.9390821 -5.7478204,0.25609101 0,0 Z"
         fill="#f29407"
         transform="translate(307.5625,203.1875)"
         id="path19" /><path
         d="M 0,0 C 1.32,0 2.64,0 4,0 4,7.92 4,15.84 4,24 0.018235,22.672745 -3.20252,21.556063 -6.8125,19.625 -7.9668555,19.025586 -7.9668555,19.025586 -9.1445313,18.414062 -11,17 -11,17 -12,13 -9.03,12.34 -6.06,11.68 -3,11 -2.01,7.37 -1.02,3.74 0,0 Z"
         fill="#f2950b"
         transform="translate(184,319)"
         id="path20" /><path
         d="M 0,0 C 4.6485395,1.1621349 4.6485395,1.1621349 6.5,3.875 6.7929687,7.2304687 6.7929687,7.2304687 6.6875,11.0625 6.66043,12.334805 6.633359,13.607109 6.605469,14.917969 6.570664,15.893789 6.535859,16.869609 6.5,17.875 c -3.375,0.625 -3.375,0.625 -7,1 -2,-2 -2,-2 -2.25,-4.875 0.2384775,-2.980968 0.7049266,-4.6142558 2.25,-7.125 -2.31,0 -4.62,0 -7,0 C -7.1130131,4.6304759 -6.5803534,3.0044582 -5.375,1.0625 -3.5,-0.125 -3.5,-0.125 0,0 Z"
         fill="#f29409"
         transform="translate(341.5,140.125)"
         id="path21" /><path
         d="M 0,0 C 3.625,0.375 3.625,0.375 5.828125,2.015625 8.1237527,5.029884 8.1013527,6.749952 8,10.5 7.9871094,11.554453 7.9742188,12.608906 7.9609375,13.695313 7.625,16.375 7.625,16.375 5.625,18.375 c -2.5,0.25 -2.5,0.25 -5,0 -2,-2 -2,-2 -2.2304687,-3.875 0.02127,-1.051875 0.02127,-1.051875 0.042969,-2.125 0.00967,-1.051875 0.00967,-1.051875 0.019531,-2.125 C -1.375,8.375 -1.375,8.375 -0.375,6.375 c -1.98,0 -3.96,0 -6,0 C -5.5000384,2.0001921 -4.7123705,0.52359672 0,0 Z"
         fill="#f29305"
         transform="translate(206.375,140.625)"
         id="path22" /><path
         d="M 0,0 C 4,1.3333333 8,2.6666667 12,4 10.432343,7.8478858 8.206709,10.376329 5,13 2,13.6875 2,13.6875 -1,13 -3.0353557,11.15113 -4.3927508,9.2690577 -6,7 -4.02,4.69 -2.04,2.38 0,0 Z"
         fill="#f29407"
         transform="translate(169,192)"
         id="path23" /><path
         d="M 0,0 C -0.66,1.65 -1.32,3.3 -2,5 -2.6522656,4.9535937 -3.3045313,4.9071875 -3.9765625,4.859375 -9.9292275,4.6135422 -13.288572,4.9780495 -18,9 c -1.793944,1.623511 -1.793944,1.623511 -3,3 -2.475,-0.99 -2.475,-0.99 -5,-2 5.623376,-10.07521463 14.844908,-13.7183641 26,-10 z"
         fill="#f29810"
         transform="translate(348,130)"
         id="path24" /><path
         d="M 0,0 C 1.1466211,-0.00386719 1.1466211,-0.00386719 2.3164063,-0.0078125 4.4375,0.125 4.4375,0.125 7.4375,1.125 c -0.3125,1.9375 -0.3125,1.9375 -1,4 -3,1 -3,1 -6.8125,0.8125 -4.3997225,-0.064821 -6.7846349,1.351779 -10.1875,4.1875 -0.99,1.485 -0.99,1.485 -2,3 -1.65,-0.33 -3.3,-0.66 -5,-1 0,-2.125 0,-2.125 1,-5 C -11.469994,2.2539074 -7.0425084,-0.02383252 0,0 Z"
         fill="#f2970e"
         transform="translate(206.5625,128.875)"
         id="path25" /><path
         d="M 0,0 C 3.6785233,0.25080841 5.5559901,0.61441247 8.375,3.0625 10.645431,7.1667414 10.592279,9.3358031 10,14 8,16.5 8,16.5 6,18 3.9899637,14.984945 3.0082846,12.425038 1.875,9 1.5217969,7.948125 1.1685938,6.89625 0.8046875,5.8125 0,3 0,3 0,0 Z"
         fill="#f29810"
         transform="translate(387,198)"
         id="path26" /><path
         d="M 0,0 C 3.4353384,0.29445758 5.0229828,1.0173648 7.8125,3.125 10,6 10,6 10.5625,9.5 9.9205823,13.494155 8.8801461,15.204564 6,18 5.34,18 4.68,18 4,18 3.3287387,15.563681 2.6628365,13.126111 2,10.6875 1.7138281,9.6520606 1.7138281,9.6520606 1.421875,8.5957031 0.62283816,5.6421205 0,3.0744078 0,0 Z"
         fill="#f29811"
         transform="translate(252,194)"
         id="path27" /></g></g></svg>
