<?xml version="1.0" encoding="UTF-8" standalone="no"?>
<svg
   viewBox="0 0 24 24"
   width="24pt"
   height="24pt"
   version="1.1"
   id="svg891"
   sodipodi:docname="golf.svg"
   xml:space="preserve"
   inkscape:version="1.2.2 (732a01da63, 2022-12-09)"
   inkscape:export-filename="golf.svg"
   inkscape:export-xdpi="96"
   inkscape:export-ydpi="96"
   xmlns:inkscape="http://www.inkscape.org/namespaces/inkscape"
   xmlns:sodipodi="http://sodipodi.sourceforge.net/DTD/sodipodi-0.dtd"
   xmlns="http://www.w3.org/2000/svg"
   xmlns:svg="http://www.w3.org/2000/svg"><defs
     id="defs895"><clipPath
       id="_clipPath_MNMT1INcHFLH52zpSUAzJtlu2c8y1EjG"><rect
         width="400"
         height="520"
         id="rect1065" /></clipPath><filter
       id="tirkvqGzo0e1OzCcegk616Rx5GUgzioC"
       x="-0.07926663"
       y="-0.25548749"
       width="1.1585333"
       height="1.510975"
       filterUnits="objectBoundingBox"
       color-interpolation-filters="sRGB"><feGaussianBlur
         stdDeviation="4.293609062839028"
         id="feGaussianBlur1077" /></filter><filter
       id="Ou9WrYpsWBQJsN8wm05cvttyRaeeVLne"
       x="-0.0083926437"
       y="-0.0062099716"
       width="1.0112464"
       height="1.0083216"
       filterUnits="objectBoundingBox"
       color-interpolation-filters="sRGB"><feGaussianBlur
         stdDeviation="0.42936090628390283"
         id="feGaussianBlur1093" /></filter></defs><sodipodi:namedview
     id="namedview893"
     pagecolor="#ffffff"
     bordercolor="#000000"
     borderopacity="0.25"
     inkscape:showpageshadow="2"
     inkscape:pageopacity="0.0"
     inkscape:pagecheckerboard="0"
     inkscape:deskcolor="#d1d1d1"
     inkscape:document-units="pt"
     showgrid="false"
     inkscape:zoom="8.5736697"
     inkscape:cx="-8.3978042"
     inkscape:cy="12.363434"
     inkscape:window-width="1920"
     inkscape:window-height="974"
     inkscape:window-x="-11"
     inkscape:window-y="-11"
     inkscape:window-maximized="1"
     inkscape:current-layer="svg891" /><g
     style="fill:#ffffff"
     id="g1216"
     transform="matrix(0.03022094,0,0,0.03022094,4.527176,4.491616)"><g
       transform="translate(0,-540.36)"
       id="g1198"
       style="fill:#ffffff">
	<g
   id="g1196"
   style="fill:#ffffff">
		<g
   id="g1194"
   style="fill:#ffffff">
			<circle
   cx="193.535"
   cy="848.72302"
   r="7.5"
   id="circle1178"
   style="fill:#ffffff" />
			<circle
   cx="160.33501"
   cy="832.12299"
   r="7.5"
   id="circle1180"
   style="fill:#ffffff" />
			<circle
   cx="160.33501"
   cy="865.323"
   r="7.5"
   id="circle1182"
   style="fill:#ffffff" />
			<circle
   cx="226.63499"
   cy="832.12299"
   r="7.5"
   id="circle1184"
   style="fill:#ffffff" />
			<circle
   cx="226.63499"
   cy="865.323"
   r="7.5"
   id="circle1186"
   style="fill:#ffffff" />
			<circle
   cx="193.13499"
   cy="881.92297"
   r="7.5"
   id="circle1188"
   style="fill:#ffffff" />
			<circle
   cx="193.13499"
   cy="815.42297"
   r="7.5"
   id="circle1190"
   style="fill:#ffffff" />
			<path
   d="m 416.23,551.125 v 0 l -127.1,176 c -7.5,10.6 -21.1,14.5 -32.4,9.5 l -193.9,-75.5 -0.7,-0.1 c -3.6,-0.7 -5.3,-0.8 -8.5,-0.8 -16.2,0 -31,9.5 -37.6,24.2 l -0.7,1.4 -0.8,1.6 c -16.1,38.6 -18.7,77.7 -8.4,126.7 1.2,5.8 5.2,11.2 11.2,15.3 11.7,8 20.8,11.9 33.6,14.5 l 68.3,12.3 c 2.4,24.5 16.3,45.2 36.6,56.7 6.3,10.4 13.7,24.7 15.7,28.6 l 8.9,55.7 h 26.2 l 8.9,-55.7 c 2,-3.9 9.4,-18.2 15.7,-28.6 22.3,-12.7 36.9,-36.4 36.9,-64.1 0,-3.2 -0.2,-6.3 -0.6,-9.4 l 26.3,-7.7 0.4,-0.2 c 18.2,-7.9 28.7,-22.1 28.7,-38.8 v -1.8 c 8.1,-0.3 16.8,-5.9 20.6,-13.3 l 124.1,-226.5 z m -214.7,384.6 v 0 l -0.5,1 -7.2,45.4 h -0.6 l -7.2,-45.3 -0.5,-1 c -0.3,-0.5 -3.5,-6.9 -7.7,-14.6 5.1,1 10.3,1.6 15.7,1.6 5.4,0 10.7,-0.6 15.7,-1.6 -4.2,7.6 -7.4,14 -7.7,14.5 z m 51.2,-79.3 c -2,14.8 -9.3,27.9 -20.1,37.1 v 0 c -1.4,-1.5 -3.3,-2.5 -5.6,-2.5 -4.1,0 -7.5,3.4 -7.5,7.5 0,1.1 0.2,2.1 0.7,3.1 -8,3.9 -17,6.1 -26.7,6.1 -9.4,0 -18.2,-2.1 -26.1,-5.7 0.5,-1 0.8,-2.2 0.8,-3.4 0,-4.1 -3.4,-7.5 -7.5,-7.5 -2.4,0 -4.5,1.1 -5.9,2.9 -11.1,-9.2 -18.6,-22.5 -20.5,-37.7 3.9,-0.2 7,-3.5 7,-7.5 0,-4 -3.1,-7.2 -7,-7.5 1.8,-15 9.2,-28.1 20,-37.3 1.3,2.1 3.7,3.6 6.4,3.6 4.1,0 7.5,-3.4 7.5,-7.5 0,-1.6 -0.5,-3 -1.3,-4.3 8,-3.8 17,-6 26.6,-6 9.9,0 19.1,2.3 27.2,6.3 -0.7,1.2 -1.1,2.5 -1.1,4 0,4.1 3.4,7.5 7.5,7.5 2.5,0 4.7,-1.2 6.1,-3.1 10.6,9.2 17.7,22.1 19.5,36.9 -3.9,0.2 -7,3.5 -7,7.5 0,4 3.1,7.2 7,7.5 z m 77.6,-86 -0.1,0.2 c -1.5,2.9 -5.6,5.2 -8.1,5.2 h -14.2 v 16.8 c 0,13.4 -10.4,20.9 -19.2,24.8 l -24.5,7.2 c -9.9,-29.3 -37.4,-49.9 -70.7,-49.9 -39.2,0 -70.4,28.5 -74.2,66.2 l -65.6,-11.8 c -11.6,-2.6 -18.1,-5.3 -28,-12.1 -2.7,-1.8 -4.6,-4.1 -4.9,-6 -9.6,-45.7 -7.3,-81.8 7.6,-117.5 l 0.9,-2 0.4,-0.9 c 4.2,-9.4 13.7,-15.5 24,-15.5 2,0 2.8,0 4.9,0.4 l 192.2,74.8 c 17.8,7.9 39.1,1.8 50.6,-14.5 l 122.5,-169.7 h 18.4 z"
   id="path1192"
   style="fill:#ffffff" />
		</g>
	</g>
</g></g></svg>
