<?xml version="1.0" encoding="iso-8859-1"?>
<!-- Generator: Adobe Illustrator 19.0.0, SVG Export Plug-In . SVG Version: 6.00 Build 0)  -->
<svg version="1.1" id="Layer_1" xmlns="http://www.w3.org/2000/svg" xmlns:xlink="http://www.w3.org/1999/xlink" x="0px" y="0px"
	 viewBox="0 0 297 297" style="enable-background:new 0 0 297 297;" xml:space="preserve">
<g>
	<g>
		<g>
			<g>
				<circle style="fill:#D0D5D9;" cx="148.5" cy="148.5" r="148.5"/>
			</g>
		</g>
	</g>
	<path style="fill:#A1A5A8;" d="M223.864,83.253L91.667,242.75l54.217,54.217c0.871,0.015,1.741,0.033,2.616,0.033
		c79.434,0,144.301-62.369,148.304-140.808L223.864,83.253z"/>
	<path style="fill:#C0392B;" d="M148.5,54.25c-54.676,0-99,36.937-99,82.5c0,27.939,16.668,52.63,42.167,67.555v38.445
		l37.594-25.062c6.224,1.022,12.656,1.562,19.24,1.562c54.676,0,99-36.937,99-82.5S203.176,54.25,148.5,54.25z"/>
	<path style="fill:#A02D27;" d="M148.5,54.25c-0.446,0-0.889,0.009-1.333,0.014v164.958c0.446,0.005,0.886,0.027,1.333,0.027
		c54.676,0,99-36.937,99-82.5S203.176,54.25,148.5,54.25z"/>
	<polygon style="fill:#FFFFFF;" points="181.5,129.001 159.5,129 159.5,107.001 137.5,107.001 137.5,129 115.5,129 115.5,151 
		137.5,151 137.5,173 159.5,173 159.5,151 181.5,151 	"/>
	<polygon style="fill:#E3E5E4;" points="159.5,129 159.5,107.001 147.167,107.001 147.167,173 159.5,173 159.5,151 181.5,151 
		181.5,129.001 	"/>
</g>
<g>
</g>
<g>
</g>
<g>
</g>
<g>
</g>
<g>
</g>
<g>
</g>
<g>
</g>
<g>
</g>
<g>
</g>
<g>
</g>
<g>
</g>
<g>
</g>
<g>
</g>
<g>
</g>
<g>
</g>
</svg>
