<svg xmlns="http://www.w3.org/2000/svg" viewBox="0 0 300 300" width="300" height="300"><g transform="scale(1.010101 1.010101)"><circle cx="148.5" cy="148.5" r="148.5" fill="#d0d5d9"/><path d="M223.9 83.3 91.7 242.8l54.2 54.2c0.9 0 1.7 0 2.6 0 79.4 0 144.3-62.4 148.3-140.8l-72.9-72.9z" fill="#a1a5a8"/><path d="m148.5 54.3c-54.7 0-99 36.9-99 82.5 0 27.9 16.7 52.6 42.2 67.6l0 38.4 37.6-25.1c6.2 1 12.7 1.6 19.2 1.6 54.7 0 99-36.9 99-82.5 0-45.6-44.3-82.5-99-82.5z" fill="#c0392b"/><path d="m148.5 54.3c-0.4 0-0.9 0-1.3 0l0 165c0.4 0 0.9 0 1.3 0 54.7 0 99-36.9 99-82.5 0-45.6-44.3-82.5-99-82.5z" fill="#a02d27"/><polygon points="137.5 173 159.5 173 159.5 151 181.5 151 181.5 129 159.5 129 159.5 107 137.5 107 137.5 129 115.5 129 115.5 151 137.5 151 " fill="#fff"/><polygon points="159.5 129 159.5 107 147.2 107 147.2 173 159.5 173 159.5 151 181.5 151 181.5 129 " fill="#e3e5e4"/></g></svg>
