<svg xmlns="http://www.w3.org/2000/svg" width="163.971" height="23.97" viewBox="0 0 163.971 23.97">
  <g id="Group_1151" data-name="Group 1151" transform="translate(-1400.515 69.122)">
    <g id="Group_1150" data-name="Group 1150" transform="translate(1347 -96)">
      <path id="Path_4361" data-name="Path 4361" d="M102.972.774h5.107l1.97,7.647L112,.774h5.1V13.341h-3.18V3.757l-2.451,9.584H108.6l-2.446-9.584v9.584h-3.18Z" transform="translate(-49.457 26.319)" fill="#fff"/>
      <path id="Path_4362" data-name="Path 4362" d="M164.929,11.267h-4.409l-.613,2.075h-3.965L160.667.774H164.9l4.722,12.567h-4.066Zm-.806-2.717-1.387-4.518-1.373,4.518Z" transform="translate(-87.759 26.319)" fill="#fff"/>
      <path id="Path_4363" data-name="Path 4363" d="M207.582,13.341V.774h6.472a9.4,9.4,0,0,1,2.752.308,2.933,2.933,0,0,1,1.535,1.145,3.471,3.471,0,0,1,.583,2.036,3.5,3.5,0,0,1-.446,1.8,3.486,3.486,0,0,1-1.227,1.23,4.694,4.694,0,0,1-1.364.5,3.876,3.876,0,0,1,1.011.463,3.928,3.928,0,0,1,.621.661,4.952,4.952,0,0,1,.544.781l1.88,3.642h-4.388L213.48,9.5a2.928,2.928,0,0,0-.7-.969,1.631,1.631,0,0,0-.951-.291h-.343v5.1Zm3.9-7.475h1.637a5.845,5.845,0,0,0,1.029-.171,1.028,1.028,0,0,0,.63-.394,1.162,1.162,0,0,0,.244-.729,1.156,1.156,0,0,0-.385-.934,2.336,2.336,0,0,0-1.449-.326h-1.706Z" transform="translate(-125.098 26.319)" fill="#fff"/>
      <path id="Path_4364" data-name="Path 4364" d="M262.312.774h3.875V8.261a6.3,6.3,0,0,1-.347,2.1A4.541,4.541,0,0,1,264.75,12.1a4.345,4.345,0,0,1-1.556,1.041,7.833,7.833,0,0,1-2.717.42,17.127,17.127,0,0,1-2-.128,5.24,5.24,0,0,1-1.813-.51,4.539,4.539,0,0,1-1.333-1.084,3.976,3.976,0,0,1-.827-1.448,7.5,7.5,0,0,1-.36-2.124V.774h3.875V8.44a2.188,2.188,0,0,0,.57,1.606,2.454,2.454,0,0,0,3.154.009,2.183,2.183,0,0,0,.57-1.614Z" transform="translate(-158.764 26.319)" fill="#fff"/>
      <path id="Path_4365" data-name="Path 4365" d="M307.232,8.23V5.615h6v5.358a12.292,12.292,0,0,1-3.048,1.6,10.35,10.35,0,0,1-3.142.424,7.637,7.637,0,0,1-3.648-.763,5.221,5.221,0,0,1-2.186-2.272,7.466,7.466,0,0,1-.776-3.463,7.231,7.231,0,0,1,.849-3.579,5.5,5.5,0,0,1,2.486-2.31A8.09,8.09,0,0,1,307.206,0a9.648,9.648,0,0,1,3.116.377,4.046,4.046,0,0,1,1.715,1.17,5.2,5.2,0,0,1,1.024,2.01l-3.747.668a2.026,2.026,0,0,0-.784-1.089,2.449,2.449,0,0,0-1.41-.377,2.542,2.542,0,0,0-2.036.887,4.272,4.272,0,0,0-.759,2.807,4.4,4.4,0,0,0,.767,2.915,2.7,2.7,0,0,0,2.139.875,4.069,4.069,0,0,0,1.243-.189,6.716,6.716,0,0,0,1.354-.643V8.23Z" transform="translate(-192.237 26.878)" fill="#fff"/>
      <path id="Path_4366" data-name="Path 4366" d="M357.322,11.267h-4.409l-.613,2.075h-3.965L353.059.774H357.3l4.722,12.567h-4.066Zm-.806-2.717L355.13,4.031l-1.373,4.518Z" transform="translate(-226.874 26.319)" fill="#fff"/>
      <path id="Path_4367" data-name="Path 4367" d="M400.523.774h5.107l1.97,7.647L409.555.774h5.1V13.341h-3.18V3.757l-2.45,9.584h-2.879L403.7,3.757v9.584h-3.181Z" transform="translate(-264.609 26.319)" fill="#fff"/>
      <path id="Path_4368" data-name="Path 4368" d="M455.92.774h10.407V3.457h-6.515v2h6.044V8.018h-6.044V10.5h6.7v2.846h-10.6Z" transform="translate(-304.665 26.319)" fill="#fff"/>
      <path id="Path_4369" data-name="Path 4369" d="M518.284.774h3.875V8.261a6.306,6.306,0,0,1-.347,2.1,4.547,4.547,0,0,1-1.089,1.731,4.348,4.348,0,0,1-1.556,1.041,7.835,7.835,0,0,1-2.718.42,17.123,17.123,0,0,1-2-.128,5.24,5.24,0,0,1-1.813-.51,4.536,4.536,0,0,1-1.333-1.084,3.983,3.983,0,0,1-.827-1.448,7.512,7.512,0,0,1-.36-2.124V.774h3.875V8.44a2.189,2.189,0,0,0,.57,1.606,2.455,2.455,0,0,0,3.155.009,2.183,2.183,0,0,0,.57-1.614Z" transform="translate(-343.851 26.319)" fill="#fff"/>
      <path id="Path_4370" data-name="Path 4370" d="M557.691.774h5.77a6.913,6.913,0,0,1,2.756.463,4.483,4.483,0,0,1,1.736,1.329,5.5,5.5,0,0,1,.994,2.015,9.351,9.351,0,0,1,.309,2.435,8.453,8.453,0,0,1-.458,3.125A5.172,5.172,0,0,1,567.524,12a4.155,4.155,0,0,1-1.749,1,9.005,9.005,0,0,1-2.314.343h-5.77Zm3.883,2.846v6.867h.952a4,4,0,0,0,1.731-.27,1.832,1.832,0,0,0,.806-.943,5.924,5.924,0,0,0,.291-2.182,4.238,4.238,0,0,0-.651-2.735,2.758,2.758,0,0,0-2.16-.737Z" transform="translate(-378.253 26.319)" fill="#fff"/>
      <path id="Path_4371" data-name="Path 4371" d="M601.567,6.507a6.477,6.477,0,0,1,1.714-4.792A6.454,6.454,0,0,1,608.056,0a6.57,6.57,0,0,1,4.835,1.685,6.351,6.351,0,0,1,1.7,4.719,7.739,7.739,0,0,1-.742,3.613,5.287,5.287,0,0,1-2.143,2.195,7.075,7.075,0,0,1-3.493.784,8.039,8.039,0,0,1-3.519-.677,5.3,5.3,0,0,1-2.259-2.143,7.117,7.117,0,0,1-.866-3.669m3.883.017a4.213,4.213,0,0,0,.707,2.735,2.677,2.677,0,0,0,3.862.017,4.649,4.649,0,0,0,.686-2.923,3.885,3.885,0,0,0-.716-2.593,2.448,2.448,0,0,0-1.942-.819,2.36,2.36,0,0,0-1.886.831,4.227,4.227,0,0,0-.711,2.752" transform="translate(-409.979 26.878)" fill="#fff"/>
      <path id="Path_4372" data-name="Path 4372" d="M651.544.774h3.626L659.9,7.727V.774h3.66V13.341H659.9l-4.706-6.9v6.9h-3.652Z" transform="translate(-446.116 26.319)" fill="#fff"/>
    </g>
    <path id="Path_4373" data-name="Path 4373" d="M106.358,58.256h.764v5.161a5.073,5.073,0,0,1-.184,1.655,1.545,1.545,0,0,1-.616.743,1.889,1.889,0,0,1-1.045.278,2.44,2.44,0,0,1-.912-.179,3.858,3.858,0,0,1-1-.631l.405-.608a5.977,5.977,0,0,0,.995.592,1.261,1.261,0,0,0,.51.115.983.983,0,0,0,.6-.2,1.033,1.033,0,0,0,.375-.525,4.862,4.862,0,0,0,.107-1.268Z" transform="translate(1297.255 -111.245)" fill="#fff"/>
    <path id="Path_4374" data-name="Path 4374" d="M123.076,58.257l3.565,7.645h-.826l-1.2-2.515H121.32L120.129,65.9h-.852l3.612-7.645Zm-.1,1.624-1.31,2.767h2.613Z" transform="translate(1285.753 -111.246)" fill="#fff"/>
    <path id="Path_4375" data-name="Path 4375" d="M149.438,58.257h1.523a8.8,8.8,0,0,1,1.767.114,1.962,1.962,0,0,1,1.071.663,2.139,2.139,0,0,1,.01,2.52,1.993,1.993,0,0,1-1.117.668,9.889,9.889,0,0,1-1.944.125H150.2V65.9h-.764Zm.764.748V61.6l1.294.016a3.381,3.381,0,0,0,1.148-.143,1.179,1.179,0,0,0,.572-.462,1.278,1.278,0,0,0,.208-.713,1.262,1.262,0,0,0-.208-.7,1.148,1.148,0,0,0-.549-.454,3.3,3.3,0,0,0-1.115-.135Z" transform="translate(1263.945 -111.246)" fill="#fff"/>
    <path id="Path_4376" data-name="Path 4376" d="M169.718,58.257l3.565,7.645h-.826l-1.2-2.515h-3.293L166.771,65.9h-.852l3.612-7.645Zm-.1,1.624-1.31,2.767h2.613Z" transform="translate(1252.028 -111.246)" fill="#fff"/>
    <path id="Path_4377" data-name="Path 4377" d="M196.81,65.9V58.257h.166l5.088,5.86v-5.86h.754V65.9h-.171L197.6,60.113V65.9Z" transform="translate(1229.691 -111.246)" fill="#fff"/>
    <path id="Path_4378" data-name="Path 4378" d="M224.282,58.256h4.381V59h-3.617v2.4h3.586v.749h-3.586v3h3.586V65.9h-4.35Z" transform="translate(1209.827 -111.245)" fill="#fff"/>
    <path id="Path_4379" data-name="Path 4379" d="M244.477,63.975l.65-.39q.686,1.263,1.585,1.263a1.518,1.518,0,0,0,.722-.179,1.272,1.272,0,0,0,.514-.481,1.246,1.246,0,0,0,.177-.639,1.3,1.3,0,0,0-.26-.754,6.222,6.222,0,0,0-1.309-1.226,6.694,6.694,0,0,1-1.19-1.045,1.911,1.911,0,0,1-.405-1.169,1.773,1.773,0,0,1,.239-.909,1.708,1.708,0,0,1,.673-.647,1.94,1.94,0,0,1,.943-.236,2.011,2.011,0,0,1,1.011.268,3.466,3.466,0,0,1,1,.985l-.624.473a2.99,2.99,0,0,0-.736-.754,1.266,1.266,0,0,0-.662-.182,1.049,1.049,0,0,0-.756.281.919.919,0,0,0-.294.691,1.18,1.18,0,0,0,.1.484,1.781,1.781,0,0,0,.379.509q.151.146.988.764a5.567,5.567,0,0,1,1.362,1.3,2.1,2.1,0,0,1,.369,1.148,1.949,1.949,0,0,1-.631,1.445,2.122,2.122,0,0,1-1.536.613,2.253,2.253,0,0,1-1.263-.372,3.4,3.4,0,0,1-1.044-1.245" transform="translate(1195.224 -110.743)" fill="#fff"/>
    <path id="Path_4380" data-name="Path 4380" d="M265.53,58.256h4.381V59h-3.617v2.4h3.586v.749h-3.586v3h3.586V65.9h-4.35Z" transform="translate(1180.002 -111.245)" fill="#fff"/>
    <path id="Path_4381" data-name="Path 4381" d="M296.777,65.9V58.257h.166l5.088,5.86v-5.86h.754V65.9h-.171l-5.046-5.789V65.9Z" transform="translate(1157.408 -111.246)" fill="#fff"/>
    <path id="Path_4382" data-name="Path 4382" d="M327.949,57.562a3.966,3.966,0,0,1,2.907,1.159,4.019,4.019,0,0,1-2.845,6.871,3.914,3.914,0,0,1-2.871-1.164,3.827,3.827,0,0,1-1.17-2.817,4.069,4.069,0,0,1,.533-2.042,3.935,3.935,0,0,1,3.445-2.006m.034.743a3.149,3.149,0,0,0-1.609.442,3.18,3.18,0,0,0-1.187,1.191,3.314,3.314,0,0,0-.427,1.67,3.216,3.216,0,0,0,3.222,3.24,3.27,3.27,0,0,0,1.647-.432,3.094,3.094,0,0,0,1.182-1.181,3.32,3.32,0,0,0,.424-1.665,3.237,3.237,0,0,0-.424-1.646,3.168,3.168,0,0,0-1.195-1.178,3.23,3.23,0,0,0-1.634-.442" transform="translate(1137.744 -110.743)" fill="#fff"/>
    <path id="Path_4383" data-name="Path 4383" d="M361.355,57.562a3.966,3.966,0,0,1,2.907,1.159,4.019,4.019,0,0,1-2.844,6.871,3.914,3.914,0,0,1-2.871-1.164,3.826,3.826,0,0,1-1.17-2.817,4.069,4.069,0,0,1,.533-2.042,3.936,3.936,0,0,1,3.445-2.006m.034.743a3.149,3.149,0,0,0-1.609.442,3.183,3.183,0,0,0-1.187,1.191,3.314,3.314,0,0,0-.427,1.67,3.216,3.216,0,0,0,3.222,3.24,3.271,3.271,0,0,0,1.647-.432,3.1,3.1,0,0,0,1.182-1.181,3.319,3.319,0,0,0,.424-1.665,3.236,3.236,0,0,0-.424-1.646,3.167,3.167,0,0,0-1.195-1.178,3.231,3.231,0,0,0-1.634-.442" transform="translate(1113.589 -110.743)" fill="#fff"/>
    <path id="Path_4384" data-name="Path 4384" d="M392,65.9V58.257h1.585a8.1,8.1,0,0,1,2.49.275,3.33,3.33,0,0,1,1.738,1.351,4.1,4.1,0,0,1,.626,2.292,4.017,4.017,0,0,1-.5,2.022,3.179,3.179,0,0,1-1.289,1.289,4.853,4.853,0,0,1-2.221.416Zm.733-.722h.883a8.225,8.225,0,0,0,2.2-.2,2.536,2.536,0,0,0,1.356-1.01,3.11,3.11,0,0,0,.494-1.784,3.274,3.274,0,0,0-.535-1.89,2.7,2.7,0,0,0-1.492-1.075,9.017,9.017,0,0,0-2.365-.218h-.54Z" transform="translate(1088.552 -111.246)" fill="#fff"/>
    <path id="Path_4385" data-name="Path 4385" d="M419.643,58.256h.764v6.907h2.941V65.9h-3.706Z" transform="translate(1068.566 -111.245)" fill="#fff"/>
    <path id="Path_4386" data-name="Path 4386" d="M437.415,58.256H441.8V59h-3.617v2.4h3.586v.749h-3.586v3h3.586V65.9h-4.35Z" transform="translate(1055.715 -111.245)" fill="#fff"/>
    <path id="Path_4387" data-name="Path 4387" d="M457.073,63.975l.65-.39q.686,1.263,1.585,1.263a1.519,1.519,0,0,0,.723-.179,1.271,1.271,0,0,0,.514-.481,1.244,1.244,0,0,0,.177-.639,1.3,1.3,0,0,0-.26-.754,6.227,6.227,0,0,0-1.31-1.226,6.706,6.706,0,0,1-1.19-1.045,1.911,1.911,0,0,1-.405-1.169,1.775,1.775,0,0,1,.239-.909,1.708,1.708,0,0,1,.673-.647,1.94,1.94,0,0,1,.943-.236,2.013,2.013,0,0,1,1.011.268,3.465,3.465,0,0,1,.995.985l-.623.473a3,3,0,0,0-.736-.754,1.266,1.266,0,0,0-.662-.182,1.05,1.05,0,0,0-.756.281.919.919,0,0,0-.294.691,1.176,1.176,0,0,0,.1.484,1.781,1.781,0,0,0,.379.509q.151.146.988.764a5.557,5.557,0,0,1,1.362,1.3,2.1,2.1,0,0,1,.369,1.148,1.949,1.949,0,0,1-.631,1.445,2.121,2.121,0,0,1-1.536.613,2.252,2.252,0,0,1-1.263-.372,3.392,3.392,0,0,1-1.045-1.245" transform="translate(1041.501 -110.743)" fill="#fff"/>
    <path id="Path_4388" data-name="Path 4388" d="M495.493,63.793l.518.549a11.833,11.833,0,0,1-.947.762q.312.287.814.789.4.394.681.727h-1.066l-1.014-1.045a6.556,6.556,0,0,1-1.553,1,3.437,3.437,0,0,1-1.263.234,1.98,1.98,0,0,1-1.419-.507,1.672,1.672,0,0,1-.535-1.266,2.141,2.141,0,0,1,.361-1.146,6.711,6.711,0,0,1,1.472-1.453,6.906,6.906,0,0,1-.807-1.12,1.548,1.548,0,0,1-.179-.688,1.186,1.186,0,0,1,.442-.945,1.88,1.88,0,0,1,1.268-.436,1.967,1.967,0,0,1,.873.192,1.447,1.447,0,0,1,.6.517,1.259,1.259,0,0,1,.208.689,1.562,1.562,0,0,1-.27.819,5.479,5.479,0,0,1-1.067,1.109l1.159,1.216.759.77a11.925,11.925,0,0,0,.963-.77m-3.447-.776a6.187,6.187,0,0,0-1.276,1.167,1.435,1.435,0,0,0-.3.8,1.016,1.016,0,0,0,.37.772,1.3,1.3,0,0,0,.906.335,2.018,2.018,0,0,0,.8-.166,6.444,6.444,0,0,0,1.408-.9l-1.206-1.242q-.312-.327-.7-.769m.093-1.012a3.83,3.83,0,0,0,.838-.847.981.981,0,0,0,.2-.525.56.56,0,0,0-.258-.457,1.121,1.121,0,0,0-.685-.192,1.052,1.052,0,0,0-.662.2.58.58,0,0,0-.256.468.771.771,0,0,0,.1.39,6.162,6.162,0,0,0,.72.967" transform="translate(1017.903 -111.965)" fill="#fff"/>
    <path id="Path_4389" data-name="Path 4389" d="M526.7,59v-.748h4.189V59h-1.7v6.9h-.78V59Z" transform="translate(991.157 -111.246)" fill="#fff"/>
    <path id="Path_4390" data-name="Path 4390" d="M546.513,58.256h4.381V59h-3.617v2.4h3.586v.749h-3.586v3h3.586V65.9h-4.35Z" transform="translate(976.829 -111.245)" fill="#fff"/>
    <path id="Path_4391" data-name="Path 4391" d="M566.305,65.9l1.095-7.645h.124l3.108,6.273,3.078-6.273h.122l1.1,7.645h-.749l-.755-5.467-2.7,5.467h-.2l-2.735-5.509-.751,5.509Z" transform="translate(962.518 -111.246)" fill="#fff"/>
    <path id="Path_4392" data-name="Path 4392" d="M601.9,58.257h1.522a8.8,8.8,0,0,1,1.767.114,1.962,1.962,0,0,1,1.071.663,1.908,1.908,0,0,1,.416,1.26,1.927,1.927,0,0,1-.405,1.26,2,2,0,0,1-1.117.668,9.886,9.886,0,0,1-1.943.125h-.546V65.9H601.9Zm.764.748V61.6l1.294.016a3.38,3.38,0,0,0,1.148-.143,1.177,1.177,0,0,0,.572-.462,1.277,1.277,0,0,0,.208-.713,1.261,1.261,0,0,0-.208-.7,1.148,1.148,0,0,0-.549-.454,3.3,3.3,0,0,0-1.115-.135Z" transform="translate(936.778 -111.246)" fill="#fff"/>
    <path id="Path_4393" data-name="Path 4393" d="M623.493,58.256h.764v4.615a9.549,9.549,0,0,0,.031,1.024,1.7,1.7,0,0,0,.265.756,1.563,1.563,0,0,0,.64.509,2,2,0,0,0,.868.205,1.711,1.711,0,0,0,.727-.161,1.616,1.616,0,0,0,.582-.447,1.823,1.823,0,0,0,.343-.691,5.723,5.723,0,0,0,.078-1.2V58.256h.764v4.615a5.632,5.632,0,0,1-.2,1.655,2.253,2.253,0,0,1-.8,1.1,2.29,2.29,0,0,1-1.453.468,2.785,2.785,0,0,1-1.585-.442,2.128,2.128,0,0,1-.883-1.169,6.193,6.193,0,0,1-.14-1.611Z" transform="translate(921.167 -111.245)" fill="#fff"/>
    <path id="Path_4394" data-name="Path 4394" d="M647.755,58.257h1.522a9.215,9.215,0,0,1,1.726.1,1.97,1.97,0,0,1,1.107.668,1.908,1.908,0,0,1,.426,1.262,2.037,2.037,0,0,1-.294,1.1,1.83,1.83,0,0,1-.839.716,3.849,3.849,0,0,1-1.507.247l2.749,3.55H651.7l-2.749-3.55h-.432V65.9h-.764Zm.764.748v2.6l1.317.011a3.276,3.276,0,0,0,1.132-.146,1.178,1.178,0,0,0,.573-.465,1.3,1.3,0,0,0,.206-.715,1.241,1.241,0,0,0-.208-.7,1.16,1.16,0,0,0-.546-.449,3.327,3.327,0,0,0-1.125-.135Z" transform="translate(903.624 -111.246)" fill="#fff"/>
    <path id="Path_4395" data-name="Path 4395" d="M672.292,58.257l3.565,7.645h-.825l-1.2-2.515h-3.293L669.345,65.9h-.852l3.612-7.645Zm-.1,1.624-1.31,2.767H673.5Z" transform="translate(888.629 -111.246)" fill="#fff"/>
  </g>
</svg>
