<svg xmlns="http://www.w3.org/2000/svg" width="50.373" height="50.372" viewBox="0 0 50.373 50.372">
  <g id="Logo_-_no_text" data-name="Logo - no text" transform="translate(0 0)">
    <path id="Path_4404" data-name="Path 4404" d="M1654.208,18.251s.529-9.717.578-11.586a12.409,12.409,0,0,0-.5-3.726A5.651,5.651,0,0,0,1650.048.4c-2.32,0-12.622.347-12.622.347s-4.222.387-6.077.437c-3.449-.057-9.624-.641-9.624-.641s-9.527-.088-10.718.006a27.059,27.059,0,0,0-4.65.879,5.587,5.587,0,0,0-1.873,4.462c0,.972.223,9.964.451,13.013-.009,3.535.046,10.852.046,10.852a48.075,48.075,0,0,0-.568,5.114c.051,4.929.129,10.251.221,11.3a5.712,5.712,0,0,0,1.656,3.737,11.372,11.372,0,0,0,4.5.778c.784,0,10.182.209,15.687-.236a79.53,79.53,0,0,1,9.008-.36,102.269,102.269,0,0,0,14.761.6,5.988,5.988,0,0,0,3.522-1.841,14.1,14.1,0,0,0,.866-3.531c.168-1.116.105-5.87.068-11.825-.029-4.666-.5-15.237-.5-15.237" transform="translate(-1604.413 -0.397)" fill="#c52433"/>
    <path id="Path_4405" data-name="Path 4405" d="M1632.574,24.041a1.984,1.984,0,0,1-1.077,1.653,3.465,3.465,0,0,1-1.88.6,5.256,5.256,0,0,1-1.465-.324,6.625,6.625,0,0,1-3.964-3.219,7.1,7.1,0,0,1-.94-3.539,26.919,26.919,0,0,1,.363-4.668,5.64,5.64,0,0,0-1.854-.239,7.617,7.617,0,0,0-1.194.095,17.761,17.761,0,0,1-1.26,3.832,9.27,9.27,0,0,1,1.992,5.165,1.939,1.939,0,0,1-.387,1.222q-.755,0-1.49-1.532-.415-.813-.662-1.2a3.482,3.482,0,0,0-.966-.959,22.24,22.24,0,0,1-2.2,3.352,5.438,5.438,0,0,1-3.3,2.032c-1.562-.4-2.336-1.011-2.336-1.841,0-.651.529-1.109,1.578-1.363a9.784,9.784,0,0,0,2.707-.982,4.431,4.431,0,0,0,1.72-2.441,2.535,2.535,0,0,0-.322-.022,2.039,2.039,0,0,0-2,1.007q-1.075-.269-1.074-1.94a1.429,1.429,0,0,1,1.008-1.458,5.567,5.567,0,0,1,1.835-.216,5.778,5.778,0,0,1,1.58.26,9.12,9.12,0,0,0,1.051-2.727,2.284,2.284,0,0,0-.617-.067,7.832,7.832,0,0,0-3.825,1.264q-.667-.407-.667-2.034a4.579,4.579,0,0,1,.044-.644,5.321,5.321,0,0,1,2.182-.839c.764-.126,1.535-.248,2.313-.357.229-.05.58-.1,1.055-.168a6.294,6.294,0,0,1,.068-.79,1.154,1.154,0,0,0-.162-.48l-.092-.215c-.1-.192-.219-.42-.342-.693a1.613,1.613,0,0,1,.619-.874,2.165,2.165,0,0,1,1.01-.469,2.77,2.77,0,0,1,1.6,1.844,3.5,3.5,0,0,0-.6,1.486c.6-.031,1.164-.047,1.695-.047a12.255,12.255,0,0,1,2.546.238,2.205,2.205,0,0,0,.616-.623,1.072,1.072,0,0,1,.757-.455,5.3,5.3,0,0,1,1.1.789,2.254,2.254,0,0,1,.755,1.125,4.559,4.559,0,0,1-1.111,1.2,4.593,4.593,0,0,0-1.226,1.437,5.386,5.386,0,0,0-.414,1.844c-.016.3-.047.787-.091,1.458-.047.432-.069.6-.069.5q0,1.7,2.384,2.825c.4.19,1.667.62,3.808,1.294a2.1,2.1,0,0,1,1.19.907" transform="translate(-1606.681 -3.6)" fill="#fff"/>
    <path id="Path_4406" data-name="Path 4406" d="M1664.133,14.214c-.375,0-.918.017-1.64.037h-1.475v-.738h2.625a6.737,6.737,0,0,1,1.926.184l.069.965a1.949,1.949,0,0,0-1.5-.447m4.757,10.3a14.649,14.649,0,0,0-1.48.149c-2.063.242-3.457.36-4.174.36a5.249,5.249,0,0,1-1.415-.191c-.642-.17-.966-.425-.966-.77l.139-.064a9.508,9.508,0,0,1,1.68-.082h2.355a11.527,11.527,0,0,1,2.267.191,2.884,2.884,0,0,0,1.137-1.183,3.254,3.254,0,0,0,.435-1.55,5.533,5.533,0,0,0-.066-.722,5.1,5.1,0,0,1-.068-.7,1.651,1.651,0,0,1,.156-.565,1.629,1.629,0,0,0,.158-.607l-1.033-.619a1.579,1.579,0,0,0-1.122.385,24.576,24.576,0,0,0-4.668-.32,11.871,11.871,0,0,0-1.207.045v-.557c1-.017,1.857-.021,2.847-.021a8.055,8.055,0,0,0,2.826-.408,2.755,2.755,0,0,0,.675-.521,1.032,1.032,0,0,0,.38-.649c0-.185-.014-.541-.045-1.064-.012-.471-.021-.839-.021-1.111a4.491,4.491,0,0,1,.155-1.067,1.388,1.388,0,0,0-.47-.49,1.661,1.661,0,0,0-.651-.32,4.521,4.521,0,0,0-.808.448,15.454,15.454,0,0,0-2.85-.278q-.81,0-1.908.084a13.694,13.694,0,0,1,1.726-.958c.318-.185.555-.326.72-.426l.021-.171c0-.385-.4-.881-1.211-1.493V8.8a2.869,2.869,0,0,0-.943-.512,3.353,3.353,0,0,0-1.031-.279,1.516,1.516,0,0,0-.875.2q-.719.509-1.054.786a11.474,11.474,0,0,1-4.087,1.493c-.448.043-.9.087-1.369.127a2.26,2.26,0,0,0-1.19.524,1.572,1.572,0,0,0-.471.8,1.138,1.138,0,0,0,.541.661h.672a9.206,9.206,0,0,0,1.034-.064,1.605,1.605,0,0,0-.719.791c.165.467.294.836.383,1.108a10.321,10.321,0,0,0-.359,2.942c.014.042.045.158.088.341l.113.36a.751.751,0,0,0,.225.047,3.506,3.506,0,0,0,.81-.131c.416-.112.679-.175.783-.192a24.237,24.237,0,0,1,3.656-.255v.7c-1.8.115-2.879.187-3.388.214q-1.952.066-2.941.106l-.6-.212a.858.858,0,0,0-.505.394,1.068,1.068,0,0,0-.258.588,2.426,2.426,0,0,0,.12.639,2.269,2.269,0,0,1,.125.64q0,.533-.067,1.665c0,.14-.024.467-.066.98-.044.412-.068.741-.068.98a.839.839,0,0,0,.292.5.785.785,0,0,0,.517.309,2.416,2.416,0,0,0,.74-.318,5.318,5.318,0,0,1,.741-.363q.985-.105,1.5-.1c1.257-.057,2.5-.11,3.858-.151a3.487,3.487,0,0,0,.225,1.023c.583,1.509,2.92,2.261,6.869,2.261a6.253,6.253,0,0,0,2.717-.513,4.184,4.184,0,0,0,1.885-1.876c-.212-.327-.681-.489-1.416-.489m-7.872-8.18v-.782l3.2.063a1.763,1.763,0,0,0,1.413-.685l.134,1.3c-1.018-.043-2.6-.009-4.891.1m-2.176-4.1c-1.811.172-3.165.311-4.062.426l-.382-.232a16.984,16.984,0,0,0,3.588-1.154q2.359-1.089,2.47-1.131l.271.429c-1.093.936-1.724,1.492-1.885,1.661m2.315,7.99v-.691a3.667,3.667,0,0,1,.938-.129,17.822,17.822,0,0,1,4.443.693V20.5c-2.484-.19-4.278-.279-5.52-.279m-5.809-5.388.089-.927a29.5,29.5,0,0,0,3.452-.481v.7a11.023,11.023,0,0,0-3.609.7M1665.95,22.5c-.434,0-1.089-.013-1.962-.052s-1.532-.048-1.964-.048a3.921,3.921,0,0,0-1.006.1v-.935l.689-.04c.782,0,1.948.063,3.5.173a6.217,6.217,0,0,1,1.19-.8l.045,1.575a2.536,2.536,0,0,1-.494.03M1657,16.337a14.082,14.082,0,0,0-2.149.39l.067-.685a13.97,13.97,0,0,1,3.7-.324v.519c-.735.065-1.224.1-1.615.1m-3.921,4.656.09-.771a20.059,20.059,0,0,1,5.446-.577v.7a21.312,21.312,0,0,0-5.743.651m4.645,1.613c-.374,0-1.791.207-4.663.626l.136-1.049a36.031,36.031,0,0,1,5.625-.349v.838a9.018,9.018,0,0,0-1.1-.067" transform="translate(-1623.446 -3.513)" fill="#fff"/>
    <path id="Path_4407" data-name="Path 4407" d="M1666.378,57.5a5.587,5.587,0,0,1-.872-.065c-.056-1-.084-1.966-.084-2.914s.015-1.666.04-2.125l.251-.4a1.909,1.909,0,0,1,.606.066q.063,2.435.06,3.852Zm.21-10.457a25.237,25.237,0,0,0-2.6-.146,30.435,30.435,0,0,0-5.375.313l-.562-.084a3.4,3.4,0,0,0-.4.5,4.089,4.089,0,0,0-1.5-.188c-.333,0-.661.007-1.116.023a2.36,2.36,0,0,0,.038-.418,1.8,1.8,0,0,0-.06-.491c-.042-.144-.318-.3-.7-.467a3.921,3.921,0,0,0-.832-.25c-.638.193-1.028.415-1.028.666a1.3,1.3,0,0,0,.179.489,1.327,1.327,0,0,1,.176.512.373.373,0,0,1-.022.105c-1.345.166-1.936.249-1.908.249a2.987,2.987,0,0,1-.353-.03,2.691,2.691,0,0,0-.353-.035.351.351,0,0,0-.232.086,2.479,2.479,0,0,0-.292.937c0,.305.147.3.437.557a20.614,20.614,0,0,1,2.7-.605v.7c-.819.17-1.574.35-2.41.544a1.438,1.438,0,0,0-.228.784c0,.4.1.835.334.693a4.8,4.8,0,0,1,2.3-.665V51.5a14.094,14.094,0,0,0-2.972.853l-.249-.06c-.152-.03-.236-.043-.25-.043a.715.715,0,0,0-.73.6c-.026.36-.062.716-.105,1.061l.355.792a14.208,14.208,0,0,1,4.665-1.562,4.971,4.971,0,0,0-1.019.563v.52a6.906,6.906,0,0,1-2,1.834,9.106,9.106,0,0,1-.814.416,3.523,3.523,0,0,0-.751.478.635.635,0,0,0-.248.439.676.676,0,0,0,.385.571,1.358,1.358,0,0,0,.7.24,3.592,3.592,0,0,0,1.209-.375c.251.139.492.271.728.4a1.612,1.612,0,0,1,.584.6,6.789,6.789,0,0,1-1.417,1.22,5.584,5.584,0,0,1-.978.426q-.605.167-1.187.333a1.068,1.068,0,0,0-.69.958,1.414,1.414,0,0,0,.69.792,1.908,1.908,0,0,0,1,.272,3.709,3.709,0,0,0,2.313-1.148c.208-.191.841-.852,1.9-1.975a19.941,19.941,0,0,0,4.331,2.392,32.042,32.042,0,0,0,4.833,1.333,26.815,26.815,0,0,0,2.936.52,16.282,16.282,0,0,0,1.584-1.374A4.644,4.644,0,0,0,1668.816,61c-.181-.209-.749-.312-1.706-.312a46.465,46.465,0,0,1-4.957-.208q-1.755-.3-2.6-.458a5.908,5.908,0,0,1,3.04-.79,14.329,14.329,0,0,1,3.977.6,1.741,1.741,0,0,0,.709-.522,1.766,1.766,0,0,1,.46-.437,16.147,16.147,0,0,0,.1-2.143c0-.476-.018-1.183-.063-2.128s-.061-1.651-.061-2.124a2.386,2.386,0,0,1,.436-1.147,2.618,2.618,0,0,0-.653-.844,2.372,2.372,0,0,0-.887-.549,6.924,6.924,0,0,0-.6.375c-.639-.154-1.352-.3-2.143-.44a2.592,2.592,0,0,1-.065-.581,2.369,2.369,0,0,1,.065-.562,4.138,4.138,0,0,1,.414-.021,6.485,6.485,0,0,1,3.147.873,2.8,2.8,0,0,0,1.018-.821,2.6,2.6,0,0,0,.625-1.135,6.789,6.789,0,0,0-2.478-.583m-4.311,5.729v-.918a6.865,6.865,0,0,1,1.063-.082,6.281,6.281,0,0,1,.75.043v.914c-.628,0-1.229.016-1.813.044m0,2.375v-.919a8.924,8.924,0,0,1,1.186-.08c.211,0,.418.005.628.02v.874a15.6,15.6,0,0,0-1.813.105m0,2.249V56.335a7.7,7.7,0,0,1,.978-.062c.279,0,.557.015.836.042v1c-.628,0-1.229.029-1.813.086m-1.518-.021a1.92,1.92,0,0,1-1.063.268q.039-2.27.291-5.413a1.127,1.127,0,0,1,.685-.188l.206.168c.03.331.044.728.044,1.185q0,1.98-.164,3.98m-.981-6.77-.414-.4a3.376,3.376,0,0,0-1.315.607v.122a2.064,2.064,0,0,0,.376,1.084V52.3a27.378,27.378,0,0,1-.145,3.206c-.126,1.471-.189,2.535-.189,3.187a1.64,1.64,0,0,0,.272,1.04,14.546,14.546,0,0,1-3.439-1.478,4.9,4.9,0,0,1,1.042-1.438c.224-.2.444-.38.668-.561.318-.294.479-.515.479-.668,0-.526-.355-.909-1.063-1.144a4.627,4.627,0,0,1-.79.083,1.409,1.409,0,0,1-.461-.064l.169-.437a1.226,1.226,0,0,0-.522-.5,2.67,2.67,0,0,1-.541-.356,1.567,1.567,0,0,0-.23-.021c.194-.014.384-.018.563-.018a5.327,5.327,0,0,1,1.135.176,5.238,5.238,0,0,0,1.135.176c.249,0,.531-.216.842-.656a1.867,1.867,0,0,0,.45-1.051v-.126a10.322,10.322,0,0,0-3.307-.249v-.562c.388.027.606.041.785.041a2.4,2.4,0,0,0,1.25-.159,1.058,1.058,0,0,0,.561-.959,7.7,7.7,0,0,0-2.2-.353l-.023-.6a1.148,1.148,0,0,1,.2-.022,5.356,5.356,0,0,1,.6.053,4.6,4.6,0,0,0,.6.053c.529,0,.936-.029,1.229-.64a2.39,2.39,0,0,0,.23.895,1.076,1.076,0,0,0,.581.664,3.465,3.465,0,0,1,1.812-.976,17.94,17.94,0,0,1,2.064-.147,7.076,7.076,0,0,1,.1,1.271c-.945.234-1.786.451-2.52.646m-6.27,6.83-1.04-.686a8.055,8.055,0,0,0,1.229-1.376,3.892,3.892,0,0,0,.812.649,9.053,9.053,0,0,1-1,1.413" transform="translate(-1622.256 -18.996)" fill="#fff"/>
    <path id="Path_4408" data-name="Path 4408" d="M1631.282,62.236c-.108-.125-.474-.35-2.42-.85a19.622,19.622,0,0,1-2.721-.845l-1.926-.852c.2-.082.755-.3.755-.3a.881.881,0,0,0,.662-.824l-.066-.278s-.031-.115-.056-.2l.951.178c1.084.253,1.875.412,2.349.468l.02,0,.018-.009c1.513-.74,2.25-1.405,2.25-2.033V56.66l-.02-.019a1.142,1.142,0,0,0-.335-.2,16.3,16.3,0,0,0-4.478-.682c-.646-.039-1.305-.068-1.97-.092-1.008-.037-2.031-.058-3.076-.059,0-.006-.015-.011-.033-.016a1.846,1.846,0,0,0-.28-.871,3.03,3.03,0,0,0,.087-.9v-.394l-.638-.5-.568.089q-.389,0-1.054-.065c-.547-.048-.851-.07-1.013-.089v-.721h.126a5.61,5.61,0,0,1,1.119.111,4.749,4.749,0,0,0,1.076.083,1.382,1.382,0,0,0,.942-.354,1.541,1.541,0,0,0,.552-.879c-.157-.181-.768-.248-1.833-.34-.509-.044-1.111-.054-1.981-.054v-.678a2.042,2.042,0,0,1,.489-.054,16.1,16.1,0,0,1,1.817.125c.259-.125.5-.5.719-1.225.086-.33.216-.719.357-1.444-.038-.168-.2-.305-.476-.405-.368-.176-.573-.26-.6-.276a1.945,1.945,0,0,0-1.082.7,1.465,1.465,0,0,0,.07.259,3.351,3.351,0,0,1,.189.655v.189c-.594-.078-1.04-.119-1.483-.149a2.434,2.434,0,0,1,.383-1.206.934.934,0,0,0-.452-.633c-.044-.03-.271-.146-.665-.344a2.8,2.8,0,0,0-1.406.6v.092a1.112,1.112,0,0,0,.137.6,1.659,1.659,0,0,1,.2.519c0,.018-.015.189-.032.5a9.592,9.592,0,0,0-1.391.237v-.148a6.7,6.7,0,0,1,.21-1.3,1.68,1.68,0,0,0-1.168-.541,1.516,1.516,0,0,0-.807.493,3.005,3.005,0,0,1,.243,1.1,3.118,3.118,0,0,1-.308,1.09,1.348,1.348,0,0,0,.579,1.01,4.337,4.337,0,0,1,2.551-.421v.613a32.531,32.531,0,0,0-3.844.516,1.572,1.572,0,0,0-.492.973,2.024,2.024,0,0,0,.254.681,14.329,14.329,0,0,1,4.082-.722v.8l-1.816.341a11.023,11.023,0,0,0-1.1-.175l-.794.5a3.286,3.286,0,0,0,.167.822c-.076.722-.108.884-.108.889a2.365,2.365,0,0,0,.46,1.241l-.108.028c-.36.087-.687.176-.957.265a3.473,3.473,0,0,0-.943-.146h-.031l-.021.025a2.759,2.759,0,0,0-.375.848,3.394,3.394,0,0,0-.177.932,1.423,1.423,0,0,0,.224.711.4.4,0,0,0,.218.191.575.575,0,0,0,.423.2,5.957,5.957,0,0,1,2.568-1.085,20.073,20.073,0,0,1,2.226-.4,6.493,6.493,0,0,1-1.9,1.316l-1.392.318c-.675.192-1.04.428-1.165.7l0,.027a1.3,1.3,0,0,0,.631,1.05,2.141,2.141,0,0,0,1.233.577,4.084,4.084,0,0,0,1.962-.91l.026.288a5.05,5.05,0,0,1-.14,1.125.534.534,0,0,1-.126.329c-.181.155-.3.295-.3.467a.925.925,0,0,0,.963,1.047,1.28,1.28,0,0,0,.751-.33,4.393,4.393,0,0,1,1.217-.559,17.219,17.219,0,0,1,2.974-.515.939.939,0,0,0,.949-.973.718.718,0,0,0-.791-.756,20.342,20.342,0,0,0-3.642.616,14.489,14.489,0,0,0,.1-1.765,2.37,2.37,0,0,0-.089-.438l.307-.234.009-.013a.682.682,0,0,0,.092-.35,2.4,2.4,0,0,0-.575-1.155c.227-.011,3.853-.105,3.853-.105,1.113-.05,2.293-.014,2.922.012a27.667,27.667,0,0,1-3.374,1.463.85.85,0,0,0-.557.687.756.756,0,0,0,.86.734,4.172,4.172,0,0,0,1.533-.341c.031.019.1.057.1.057a9.126,9.126,0,0,1,1.385.756,13.532,13.532,0,0,1,1.392.843l.523.364,1.3.923a15.174,15.174,0,0,0,1.922,1.215l.025.012.027-.009a3.81,3.81,0,0,0,2.663-2.294l.01-.031Zm-13.565-7.948a8.217,8.217,0,0,1,1.667.154,2.134,2.134,0,0,1-.314.646l.145.539c-.059.008-.092.018-.09.027l-.164.015-.269.024-1.077.1c.053-.66.085-1.16.1-1.5m-1.927.062a4.178,4.178,0,0,0,.092,1.56c-1.134.16-1.964.326-2.727.5a4.425,4.425,0,0,0,.662-1.816,14.327,14.327,0,0,1,1.974-.241" transform="translate(-1606.693 -19.154)" fill="#fff"/>
    <path id="Path_4409" data-name="Path 4409" d="M1626.889,69.588s0-.013,0-.026,0-.035,0-.054Z" transform="translate(-1613.612 -28.684)" fill="#fff"/>
    <path id="Path_4410" data-name="Path 4410" d="M1631.3,54.3l-.013.024.008.025c.307.857,1.51,1.18,3.47,1.18a5.4,5.4,0,0,0,.817-.043,2.393,2.393,0,0,0,1.2-.66,2.105,2.105,0,0,0,.731-1.16,11.987,11.987,0,0,0,.043-1.337l-.022-1.021c-.013-.593-.013-1.067,0-1.412a3.034,3.034,0,0,1,.079-.848,3.1,3.1,0,0,0,.452-1.1l0-.034-.027-.022a3.039,3.039,0,0,0-1.654-.867,4.12,4.12,0,0,0-1.046.422l-.045.02.327,1.776v0c0,.06.021,1.57.021,1.57l.021,1.6a1.027,1.027,0,0,1-.6.943,2.4,2.4,0,0,1-1.242.3l-.462-.022h-.534c-.787,0-1.3.223-1.522.66" transform="translate(-1615.413 -19.48)" fill="#fff"/>
    <path id="Path_4411" data-name="Path 4411" d="M1630.973,50.395V51.84a2.321,2.321,0,0,0,.334,1.382l.02.023h.028c.656,0,1.078-.5,1.253-1.477a8.081,8.081,0,0,0,.084-2.268,3.2,3.2,0,0,0-.544-1.664l-.011-.012-.632-.255a.85.85,0,0,0-.69.415,1.263,1.263,0,0,0-.31.738,2.228,2.228,0,0,0,.239.707,2.349,2.349,0,0,1,.229.966" transform="translate(-1615.093 -19.704)" fill="#fff"/>
  </g>
</svg>
