<?xml version="1.0" encoding="UTF-8" standalone="no"?><!-- Generator: Gravit.io --><svg xmlns="http://www.w3.org/2000/svg" xmlns:xlink="http://www.w3.org/1999/xlink" style="isolation:isolate" viewBox="0 0 24 24" width="24pt" height="24pt"><defs><clipPath id="_clipPath_ULAJRjwDmAjdSdJ5wlJOHAD4tKO5MLTj"><rect width="24" height="24"/></clipPath></defs><g clip-path="url(#_clipPath_ULAJRjwDmAjdSdJ5wlJOHAD4tKO5MLTj)"><clipPath id="_clipPath_Sz3FHe5YRAvp0IfDP2snT2vvFBUATnHW"><rect x="2.98" y="1" width="18.04" height="22" transform="matrix(1,0,0,1,0,0)" fill="rgb(255,255,255)"/></clipPath><g clip-path="url(#_clipPath_Sz3FHe5YRAvp0IfDP2snT2vvFBUATnHW)"><g><path d=" M 18.219 16.551 C 19.896 14.836 21.02 12.588 21.02 10.02 C 21.02 5.042 16.978 1 12 1 C 7.022 1 2.98 5.042 2.98 10.02 C 2.98 12.62 4.007 14.787 5.844 16.61 L 5.844 16.61 L 11.633 23 L 18.23 16.551 L 18.219 16.551 Z " fill="rgb(213,166,126)"/></g></g><clipPath id="_clipPath_MsNGOG19mf9wbRwESvFPmetFhPsEcLLZ"><rect x="2.98" y="1" width="18.04" height="22" transform="matrix(1,0,0,1,0,0)" fill="rgb(255,255,255)"/></clipPath><g clip-path="url(#_clipPath_MsNGOG19mf9wbRwESvFPmetFhPsEcLLZ)"><g><ellipse vector-effect="non-scaling-stroke" cx="12.062500000000004" cy="9.624999999999996" rx="7.1875" ry="6.9375000000000036" fill="rgb(255,255,255)"/></g></g><g><path d=" M 9.777 5.105 L 10.186 5.017 L 9.781 4.928 L 9.936 4.67 L 9.706 4.845 L 9.626 4.246 L 9.545 4.845 L 9.316 4.67 L 9.471 4.928 L 9.067 5.017 L 9.474 5.105 L 9.316 5.371 L 9.545 5.195 L 9.626 5.813 L 9.706 5.195 L 9.936 5.371 L 9.777 5.105 Z " fill="rgb(0,0,0)"/><path d=" M 13.973 4.443 L 14.243 4.383 L 13.976 4.325 L 14.078 4.154 L 13.926 4.269 L 13.874 3.874 L 13.819 4.269 L 13.667 4.154 L 13.77 4.325 L 13.503 4.383 L 13.773 4.443 L 13.667 4.618 L 13.819 4.502 L 13.874 4.91 L 13.926 4.502 L 14.078 4.618 L 13.973 4.443 Z " fill="rgb(0,0,0)"/><path d=" M 8.101 6.685 L 8.355 6.631 L 8.104 6.575 L 8.2 6.414 L 8.058 6.524 L 8.007 6.15 L 7.956 6.524 L 7.813 6.414 L 7.909 6.575 L 7.658 6.631 L 7.913 6.685 L 7.813 6.851 L 7.957 6.741 L 8.007 7.125 L 8.056 6.741 L 8.2 6.851 L 8.101 6.685 Z " fill="rgb(0,0,0)"/><path d=" M 15.047 5.937 L 15.434 5.852 L 15.05 5.769 L 15.197 5.524 L 14.98 5.69 L 14.903 5.123 L 14.826 5.69 L 14.609 5.524 L 14.756 5.769 L 14.372 5.852 L 14.759 5.937 L 14.609 6.188 L 14.826 6.022 L 14.903 6.607 L 14.98 6.022 L 15.197 6.188 L 15.047 5.937 Z " fill="rgb(0,0,0)"/><g><path d=" M 16.695 8.862 C 16.754 8.867 16.825 8.927 16.881 8.952 C 17.01 9.012 17.157 9.057 17.296 9.012 C 17.317 9.004 17.319 8.97 17.296 8.963 C 17.172 8.927 17.055 8.892 16.938 8.827 C 16.913 8.813 16.881 8.806 16.86 8.784 C 16.825 8.746 16.86 8.734 16.897 8.735 C 17.007 8.743 17.106 8.761 17.215 8.732 C 17.24 8.724 17.242 8.679 17.215 8.674 C 17.106 8.652 16.973 8.649 16.873 8.6 C 16.772 8.551 16.945 8.539 16.972 8.533 C 17.026 8.522 17.079 8.506 17.13 8.484 C 17.149 8.475 17.149 8.441 17.125 8.443 C 17.087 8.445 16.842 8.465 16.852 8.405 C 16.86 8.356 16.959 8.365 16.991 8.358 C 17.049 8.344 17.106 8.326 17.16 8.3 C 17.186 8.289 17.186 8.243 17.154 8.243 C 17.087 8.244 17.018 8.248 16.951 8.25 C 16.917 8.252 16.834 8.259 16.866 8.196 C 16.901 8.123 16.726 8.14 16.697 8.136 C 16.668 8.134 16.599 8.141 16.59 8.096 C 16.58 8.049 16.686 8.04 16.716 8.026 C 16.738 8.015 16.727 7.975 16.703 7.975 C 16.571 7.979 16.436 8.004 16.304 8.004 C 16.273 8.004 16.238 7.984 16.27 7.954 C 16.289 7.934 16.326 7.934 16.35 7.927 C 16.395 7.912 16.438 7.896 16.481 7.878 C 16.516 7.863 16.513 7.8 16.471 7.802 C 16.369 7.807 16.267 7.82 16.166 7.833 C 16.113 7.84 16.062 7.845 16.009 7.853 C 15.984 7.856 15.917 7.876 15.899 7.845 C 15.87 7.797 15.984 7.804 16.003 7.802 C 16.059 7.797 16.113 7.791 16.169 7.786 C 16.219 7.78 16.22 7.701 16.169 7.701 C 16.134 7.701 15.834 7.708 15.851 7.654 C 15.854 7.645 15.877 7.645 15.883 7.643 C 15.914 7.634 15.918 7.576 15.883 7.571 C 15.808 7.558 15.733 7.551 15.658 7.548 C 15.626 7.546 15.575 7.555 15.544 7.542 C 15.468 7.508 15.611 7.468 15.626 7.464 C 15.661 7.454 15.655 7.392 15.618 7.394 C 15.536 7.4 15.456 7.412 15.375 7.414 C 15.332 7.416 15.272 7.423 15.233 7.405 C 15.153 7.367 15.343 7.331 15.282 7.279 C 15.247 7.248 15.177 7.268 15.135 7.266 C 15.109 7.264 14.98 7.27 14.974 7.241 C 14.967 7.215 15.015 7.179 15.028 7.163 C 15.044 7.14 15.022 7.112 15.001 7.111 C 14.953 7.105 14.906 7.122 14.858 7.125 C 14.799 7.131 14.737 7.125 14.678 7.122 C 14.662 7.12 14.646 7.12 14.63 7.118 C 14.673 7.098 14.713 7.073 14.748 7.038 C 14.764 7.022 14.748 6.99 14.727 6.999 C 14.699 7.01 14.488 7.053 14.499 6.999 C 14.504 6.977 14.572 6.954 14.59 6.934 C 14.607 6.916 14.598 6.883 14.575 6.876 C 14.478 6.844 14.345 6.881 14.243 6.885 C 14.209 6.887 14.174 6.887 14.141 6.887 C 14.206 6.871 14.269 6.845 14.325 6.802 C 14.341 6.791 14.344 6.759 14.328 6.746 C 14.309 6.732 14.264 6.75 14.241 6.75 C 14.176 6.75 14.161 6.699 14.12 6.658 C 14.074 6.614 13.997 6.634 13.942 6.64 C 13.91 6.643 13.864 6.665 13.869 6.614 C 13.872 6.582 13.91 6.594 13.915 6.558 C 13.918 6.535 13.898 6.51 13.875 6.51 C 13.824 6.508 13.723 6.526 13.69 6.475 C 13.669 6.445 13.682 6.367 13.632 6.372 C 13.517 6.381 13.396 6.372 13.277 6.351 C 13.338 6.331 13.397 6.306 13.45 6.273 C 13.477 6.255 13.464 6.212 13.434 6.21 C 13.364 6.206 13.293 6.208 13.223 6.212 C 13.185 6.214 13.148 6.215 13.11 6.219 C 13.089 6.221 13.049 6.233 13.033 6.215 C 12.994 6.174 13.094 6.165 13.086 6.12 C 13.084 6.109 13.074 6.1 13.065 6.096 C 13.039 6.087 13.001 6.096 12.972 6.096 C 12.939 6.094 12.905 6.091 12.871 6.093 C 12.799 6.094 12.728 6.093 12.657 6.089 C 12.729 6.067 12.799 6.044 12.871 6.022 C 12.903 6.013 12.894 5.964 12.863 5.963 C 12.756 5.955 12.651 5.964 12.545 5.979 C 12.569 5.961 12.592 5.943 12.614 5.925 C 12.646 5.898 12.609 5.852 12.579 5.858 C 12.528 5.867 12.467 5.896 12.416 5.896 C 12.371 5.896 12.409 5.876 12.43 5.862 C 12.462 5.84 12.446 5.791 12.413 5.789 C 12.371 5.786 12.329 5.789 12.29 5.791 C 12.304 5.771 12.293 5.739 12.266 5.735 C 12.242 5.732 12.218 5.728 12.195 5.721 L 12.061 6.75 C 12.058 6.779 12.035 6.798 12.011 6.798 C 11.986 6.798 11.965 6.777 11.962 6.75 L 11.824 5.695 C 11.818 5.697 11.81 5.701 11.804 5.703 C 11.732 5.726 11.653 5.735 11.578 5.748 C 11.527 5.755 11.591 5.813 11.588 5.827 C 11.58 5.852 11.529 5.858 11.509 5.862 C 11.447 5.874 11.381 5.872 11.319 5.876 C 11.292 5.878 11.286 5.921 11.313 5.928 C 11.378 5.946 11.385 5.986 11.31 5.995 C 11.247 6.002 11.185 6.006 11.121 6.004 C 11.102 6.004 11.049 5.99 11.043 6.02 C 11.027 6.094 11.17 6.055 11.175 6.102 C 11.178 6.14 11.091 6.138 11.071 6.14 C 10.975 6.152 10.88 6.136 10.784 6.145 C 10.761 6.147 10.755 6.176 10.772 6.19 C 10.814 6.223 10.864 6.242 10.916 6.251 C 10.915 6.251 10.915 6.251 10.913 6.251 C 10.844 6.266 10.779 6.286 10.71 6.297 C 10.645 6.307 10.577 6.304 10.515 6.324 C 10.486 6.333 10.486 6.371 10.507 6.389 C 10.55 6.425 10.603 6.437 10.657 6.441 C 10.518 6.468 10.379 6.493 10.24 6.52 C 10.213 6.526 10.111 6.526 10.125 6.58 C 10.131 6.603 10.171 6.605 10.157 6.638 C 10.146 6.661 10.109 6.674 10.087 6.681 C 10.031 6.699 9.973 6.697 9.916 6.706 C 9.826 6.721 9.738 6.733 9.647 6.739 C 9.613 6.741 9.61 6.788 9.639 6.8 C 9.681 6.818 9.722 6.834 9.765 6.844 C 9.786 6.847 9.898 6.844 9.852 6.878 C 9.823 6.899 9.751 6.894 9.717 6.898 C 9.673 6.903 9.626 6.907 9.581 6.91 C 9.506 6.919 9.423 6.918 9.358 6.961 C 9.342 6.972 9.34 7.001 9.358 7.011 C 9.417 7.044 9.482 7.042 9.546 7.04 C 9.561 7.04 9.575 7.04 9.589 7.04 C 9.554 7.047 9.519 7.055 9.482 7.06 C 9.399 7.075 9.313 7.078 9.23 7.078 C 9.161 7.078 9.084 7.064 9.019 7.089 C 8.998 7.096 8.987 7.127 9.006 7.145 C 9.049 7.188 9.11 7.21 9.174 7.221 C 9.049 7.226 8.924 7.23 8.8 7.239 C 8.747 7.242 8.789 7.291 8.808 7.304 C 8.816 7.309 8.825 7.316 8.83 7.325 C 8.865 7.39 8.723 7.39 8.699 7.394 C 8.622 7.407 8.546 7.425 8.47 7.446 C 8.442 7.454 8.44 7.504 8.47 7.511 C 8.536 7.526 8.603 7.535 8.672 7.54 C 8.627 7.548 8.582 7.553 8.538 7.558 C 8.458 7.567 8.378 7.575 8.296 7.582 C 8.231 7.587 8.165 7.587 8.1 7.598 C 8.047 7.605 8.037 7.622 8.045 7.683 C 8.05 7.715 8.044 7.732 8.013 7.744 C 7.976 7.759 7.94 7.759 7.903 7.766 C 7.821 7.779 7.741 7.795 7.662 7.816 C 7.638 7.822 7.636 7.865 7.662 7.871 C 7.737 7.885 7.813 7.894 7.889 7.896 C 7.929 7.898 7.968 7.896 8.008 7.896 C 8.013 7.896 8.096 7.892 8.093 7.901 C 8.076 7.945 8.005 7.928 7.97 7.934 C 7.914 7.943 7.857 7.948 7.801 7.957 C 7.689 7.972 7.575 7.988 7.465 8.019 C 7.435 8.028 7.439 8.069 7.465 8.08 C 7.529 8.107 7.596 8.123 7.663 8.129 C 7.502 8.168 7.334 8.192 7.171 8.203 C 7.152 8.205 7.147 8.235 7.166 8.241 C 7.272 8.268 7.377 8.286 7.484 8.288 C 7.34 8.344 7.195 8.398 7.043 8.405 C 7.04 8.405 7.037 8.405 7.035 8.407 C 7.035 8.407 7.035 8.405 7.033 8.405 C 7.032 8.405 7.032 8.407 7.033 8.407 C 7.017 8.416 7.019 8.441 7.037 8.45 C 7.134 8.493 7.238 8.486 7.34 8.461 C 7.299 8.486 7.257 8.51 7.214 8.531 C 7.115 8.582 7.008 8.607 6.909 8.656 C 6.886 8.667 6.891 8.71 6.915 8.714 C 6.993 8.73 7.075 8.723 7.155 8.699 C 7.027 8.786 6.896 8.865 6.763 8.943 C 6.736 8.959 6.755 9.001 6.782 8.995 C 6.886 8.975 6.987 8.941 7.084 8.896 C 7.118 8.88 7.204 8.809 7.243 8.833 C 7.281 8.856 7.177 8.939 7.163 8.956 C 7.12 9.001 7.076 9.046 7.035 9.093 C 7.011 9.118 7.041 9.158 7.07 9.141 C 7.169 9.087 7.26 9.019 7.347 8.945 C 7.379 8.916 7.409 8.885 7.441 8.858 C 7.491 8.815 7.524 8.831 7.47 8.887 C 7.422 8.936 7.374 8.984 7.326 9.033 C 7.295 9.064 7.335 9.118 7.369 9.096 C 7.479 9.022 7.586 8.943 7.689 8.858 C 7.622 8.956 7.559 9.057 7.499 9.16 C 7.473 9.201 7.534 9.237 7.559 9.197 C 7.638 9.08 7.721 8.966 7.807 8.856 L 7.873 8.925 C 7.868 8.937 7.861 8.95 7.857 8.965 C 7.839 9.006 7.895 9.042 7.913 9.001 C 7.916 8.993 7.919 8.986 7.922 8.977 L 8.429 9.499 L 8.488 10.055 L 8.501 10.808 L 8.525 11.56 L 8.533 11.726 C 8.53 11.726 8.528 11.725 8.525 11.725 C 8.51 11.721 8.37 11.703 8.37 11.692 C 8.312 11.683 8.255 11.676 8.197 11.68 C 8.144 11.681 8.092 11.685 8.04 11.692 C 7.962 11.701 7.889 11.716 7.815 11.748 C 7.805 11.752 7.797 11.755 7.789 11.761 C 7.781 11.759 7.775 11.761 7.767 11.763 C 7.724 11.782 7.684 11.811 7.652 11.853 C 7.634 11.876 7.628 11.918 7.652 11.941 C 7.673 11.961 7.695 11.974 7.719 11.981 C 7.71 11.977 7.682 12.149 7.681 12.165 C 7.676 12.217 7.671 12.245 7.646 12.291 C 7.591 12.391 7.516 12.468 7.484 12.582 C 7.483 12.589 7.479 12.598 7.478 12.607 C 7.47 12.647 7.467 12.687 7.463 12.728 C 7.457 12.808 7.452 12.887 7.446 12.968 C 7.444 12.979 7.443 12.995 7.439 13.012 C 7.225 12.995 7.19 12.945 6.971 13.088 C 6.774 13.214 6.744 13.281 6.939 13.407 C 7.147 13.541 7.812 13.45 8.069 13.45 C 8.686 13.45 9.305 13.45 9.922 13.45 C 11.434 13.45 12.945 13.45 14.457 13.45 C 15.154 13.45 15.851 13.443 16.548 13.45 C 16.756 13.452 16.972 13.559 17.149 13.454 C 17.157 13.449 17.165 13.445 17.173 13.44 C 17.349 13.315 17.36 13.109 17.13 13.026 C 17.116 13.021 17.101 13.017 17.088 13.014 C 17.087 12.994 17.082 12.972 17.082 12.959 C 17.076 12.878 17.069 12.795 17.065 12.714 C 17.061 12.672 17.058 12.631 17.05 12.591 C 17.049 12.582 17.047 12.575 17.044 12.566 C 17.012 12.449 16.933 12.369 16.877 12.266 C 16.852 12.219 16.847 12.19 16.842 12.136 C 16.841 12.12 16.812 11.945 16.802 11.947 C 16.828 11.939 16.85 11.925 16.871 11.905 C 16.897 11.882 16.89 11.838 16.871 11.813 C 16.839 11.772 16.799 11.743 16.753 11.721 C 16.745 11.717 16.737 11.717 16.73 11.717 C 16.722 11.714 16.713 11.708 16.705 11.705 C 16.628 11.672 16.553 11.658 16.473 11.647 C 16.419 11.64 16.366 11.636 16.312 11.634 C 16.252 11.633 16.193 11.638 16.134 11.647 C 16.134 11.658 15.99 11.676 15.976 11.68 C 15.947 11.687 15.918 11.692 15.888 11.694 C 15.842 11.696 15.8 11.701 15.754 11.692 C 15.709 11.683 15.664 11.669 15.619 11.665 C 15.562 11.66 15.52 11.633 15.485 11.578 C 15.469 11.553 15.455 11.528 15.439 11.503 L 15.471 10.806 L 15.471 10.053 L 15.474 9.548 L 16.024 8.981 C 16.037 9.002 16.049 9.022 16.062 9.044 C 16.08 9.073 16.125 9.055 16.115 9.019 C 16.107 8.992 16.093 8.957 16.08 8.921 L 16.134 8.865 C 16.16 8.909 16.18 8.956 16.206 8.999 C 16.24 9.055 16.272 9.113 16.304 9.17 C 16.328 9.212 16.392 9.185 16.377 9.136 C 16.366 9.096 16.353 9.057 16.337 9.019 C 16.324 8.984 16.302 8.954 16.304 8.914 C 16.321 8.907 16.34 8.921 16.355 8.936 C 16.463 9.042 16.569 9.151 16.67 9.268 C 16.697 9.3 16.746 9.259 16.726 9.221 C 16.705 9.183 16.682 9.147 16.658 9.113 C 16.641 9.086 16.59 9.04 16.593 9.006 C 16.593 9.006 16.713 9.071 16.726 9.076 C 16.759 9.089 16.807 9.1 16.815 9.048 C 16.817 9.035 16.81 9.017 16.794 9.019 C 16.788 9.019 16.745 8.966 16.735 8.957 C 16.713 8.925 16.623 8.856 16.695 8.862 Z  M 15.527 8.748 C 15.543 8.773 15.57 8.784 15.595 8.766 C 15.627 8.744 15.605 8.714 15.621 8.69 C 15.629 8.678 15.672 8.724 15.715 8.779 L 15.474 9.028 L 15.479 8.669 C 15.495 8.697 15.511 8.723 15.527 8.748 Z  M 13.004 7.744 C 13.205 7.575 13.3 7.571 13.367 7.396 C 13.38 7.414 13.394 7.434 13.409 7.452 C 13.421 7.468 13.439 7.504 13.456 7.513 C 13.508 7.54 13.516 7.466 13.525 7.436 C 13.528 7.425 13.532 7.416 13.54 7.409 C 13.548 7.401 13.559 7.398 13.567 7.403 C 13.572 7.407 13.576 7.412 13.58 7.418 C 13.604 7.459 13.621 7.504 13.644 7.544 C 13.674 7.594 13.706 7.645 13.736 7.696 C 13.749 7.715 13.776 7.724 13.794 7.706 C 13.811 7.688 13.799 7.641 13.839 7.65 C 13.888 7.661 13.936 7.77 13.963 7.809 C 14.01 7.876 14.059 7.78 14.107 7.78 C 14.118 7.78 14.128 7.784 14.139 7.788 C 14.227 7.829 14.293 7.948 14.355 8.024 C 14.4 8.076 14.409 7.979 14.441 7.966 C 14.476 7.954 14.507 8.001 14.523 8.026 C 14.555 8.08 14.588 8.134 14.62 8.188 C 14.654 8.246 14.737 8.196 14.705 8.134 C 14.697 8.12 14.691 8.105 14.683 8.091 C 14.687 8.093 14.692 8.096 14.697 8.098 C 14.739 8.158 14.78 8.215 14.823 8.273 C 14.743 8.317 14.651 8.356 14.521 8.356 C 14.163 8.356 14.163 8.261 13.803 8.261 C 13.445 8.261 13.445 8.259 13.086 8.259 C 12.772 8.259 12.732 8.329 12.491 8.347 C 12.515 8.311 12.545 8.27 12.585 8.224 C 12.796 7.986 12.763 7.946 13.004 7.744 Z  M 12.206 7.223 C 12.206 7.089 12.224 7.004 12.235 6.932 C 12.256 6.961 12.277 6.986 12.304 7.01 C 12.331 7.033 12.369 7.019 12.373 6.979 C 12.374 6.943 12.369 6.909 12.361 6.874 C 12.353 6.844 12.331 6.791 12.349 6.76 C 12.371 6.717 12.4 6.773 12.409 6.8 C 12.448 6.901 12.517 6.988 12.569 7.082 C 12.584 7.107 12.616 7.107 12.635 7.089 C 12.659 7.066 12.654 7.019 12.657 6.986 C 12.659 6.968 12.664 6.946 12.68 6.945 C 12.688 6.943 12.696 6.948 12.702 6.952 C 12.777 7.004 12.819 7.123 12.859 7.206 C 12.865 7.221 12.879 7.23 12.894 7.232 C 12.865 7.304 12.828 7.385 12.751 7.474 C 12.539 7.714 12.537 7.712 12.326 7.95 C 12.275 8.008 12.227 8.048 12.184 8.076 C 12.17 8.024 12.16 7.965 12.16 7.891 C 12.155 7.557 12.206 7.557 12.206 7.223 Z  M 11.167 7.235 C 11.215 7.165 11.265 7.096 11.318 7.029 C 11.345 6.995 11.374 6.963 11.399 6.927 C 11.412 6.909 11.474 6.829 11.468 6.898 C 11.466 6.923 11.436 6.954 11.425 6.973 C 11.409 7.002 11.396 7.033 11.385 7.066 C 11.369 7.111 11.429 7.131 11.45 7.096 C 11.524 6.983 11.644 6.901 11.741 6.813 C 11.749 6.918 11.805 7.017 11.839 7.221 C 11.891 7.549 11.829 7.557 11.829 7.891 C 11.829 7.963 11.823 8.02 11.813 8.069 C 11.765 8.037 11.711 7.995 11.65 7.927 C 11.437 7.687 11.455 7.668 11.244 7.428 C 11.188 7.365 11.153 7.307 11.127 7.255 C 11.14 7.257 11.158 7.25 11.167 7.235 Z  M 9.219 8.163 C 9.263 8.141 9.292 8.073 9.316 8.03 C 9.326 8.013 9.345 7.965 9.362 7.959 C 9.402 7.943 9.382 8.013 9.375 8.033 C 9.364 8.067 9.358 8.104 9.356 8.14 C 9.356 8.145 9.356 8.149 9.358 8.152 C 9.377 8.194 9.426 8.183 9.446 8.149 C 9.511 8.035 9.583 7.927 9.66 7.824 C 9.682 7.795 9.706 7.77 9.73 7.741 C 9.749 7.719 9.767 7.683 9.796 7.677 C 9.84 7.67 9.754 7.874 9.748 7.894 C 9.733 7.934 9.786 7.95 9.805 7.921 C 9.853 7.847 9.898 7.771 9.946 7.697 C 9.978 7.645 10.021 7.54 10.09 7.544 C 10.091 7.6 10.082 7.658 10.063 7.712 C 10.053 7.759 10.109 7.786 10.133 7.744 C 10.171 7.679 10.213 7.616 10.256 7.557 C 10.278 7.526 10.301 7.497 10.323 7.468 C 10.331 7.459 10.37 7.407 10.382 7.409 C 10.387 7.41 10.389 7.416 10.39 7.421 C 10.397 7.475 10.365 7.542 10.405 7.587 C 10.445 7.632 10.488 7.576 10.512 7.54 C 10.539 7.497 10.566 7.452 10.597 7.41 C 10.665 7.549 10.769 7.569 10.964 7.724 C 11.21 7.921 11.206 7.927 11.417 8.167 C 11.468 8.224 11.501 8.28 11.525 8.331 C 11.284 8.331 11.242 8.335 10.931 8.335 C 10.573 8.335 10.573 8.241 10.213 8.241 C 9.855 8.241 9.855 8.277 9.495 8.277 C 9.281 8.277 9.166 8.188 9.043 8.159 C 9.103 8.154 9.171 8.187 9.219 8.163 Z  M 8.392 8.539 C 8.434 8.521 8.426 8.567 8.418 8.595 C 8.394 8.676 8.354 8.755 8.336 8.838 C 8.327 8.883 8.384 8.912 8.407 8.871 C 8.415 8.856 8.422 8.842 8.43 8.827 L 8.421 8.983 L 8.237 8.793 C 8.255 8.759 8.272 8.723 8.29 8.688 C 8.315 8.64 8.346 8.56 8.392 8.539 Z  M 8.122 8.62 C 8.136 8.607 8.156 8.6 8.175 8.604 C 8.176 8.643 8.165 8.672 8.152 8.705 L 8.096 8.647 C 8.104 8.638 8.112 8.629 8.122 8.62 Z  M 7.692 12.523 C 7.714 12.488 7.783 12.429 7.817 12.486 C 7.841 12.528 7.807 12.607 7.81 12.654 C 7.815 12.701 7.829 12.745 7.847 12.786 C 7.874 12.849 7.909 12.909 7.93 12.976 C 7.826 12.983 7.753 12.994 7.564 12.994 C 7.58 12.938 7.575 12.873 7.58 12.817 C 7.591 12.698 7.63 12.618 7.692 12.523 Z  M 8.058 12.97 C 8.052 12.912 8.04 12.858 8.021 12.802 C 7.996 12.725 7.975 12.678 8.026 12.607 C 8.05 12.575 8.082 12.539 8.096 12.501 C 8.101 12.486 8.114 12.418 8.122 12.394 C 8.219 12.445 8.314 12.485 8.429 12.481 C 8.472 12.479 8.514 12.476 8.555 12.47 L 8.547 12.949 C 8.451 12.958 8.373 12.968 8.186 12.968 C 8.136 12.968 8.095 12.968 8.058 12.97 Z  M 10.889 12.992 C 10.955 12.97 11.031 12.936 11.06 12.866 C 11.1 12.766 11.119 12.681 11.091 12.573 C 11.055 12.436 10.969 12.329 10.881 12.237 C 10.836 12.19 10.788 12.147 10.74 12.102 C 10.72 12.084 10.688 12.064 10.673 12.039 C 10.635 11.979 10.75 11.945 10.772 11.916 C 10.79 11.893 10.803 11.855 10.835 11.874 C 10.851 11.884 10.86 11.903 10.868 11.923 C 10.876 11.943 10.883 11.963 10.897 11.977 C 10.902 11.983 10.907 11.986 10.912 11.988 C 10.921 11.992 10.932 11.99 10.942 11.985 C 10.964 11.972 10.977 11.945 10.982 11.916 C 10.991 11.856 10.969 11.808 10.963 11.75 C 10.956 11.676 10.955 11.602 10.951 11.528 C 10.95 11.499 10.948 11.47 10.943 11.441 C 10.935 11.393 10.916 11.351 10.94 11.302 C 10.961 11.261 11.001 11.239 11.025 11.201 C 11.068 11.136 11.068 11.059 11.052 10.981 C 11.047 10.961 11.038 10.939 11.022 10.943 C 11.017 10.945 11.014 10.947 11.009 10.95 C 10.98 10.972 10.967 11.019 10.937 11.037 C 10.918 11.048 10.899 11.041 10.881 11.057 C 10.849 11.086 10.852 11.152 10.838 11.194 C 10.822 11.239 10.788 11.241 10.758 11.263 C 10.723 11.286 10.691 11.338 10.662 11.373 C 10.648 11.389 10.63 11.407 10.611 11.403 C 10.603 11.385 10.605 11.364 10.608 11.344 C 10.621 11.244 10.627 11.131 10.664 11.041 C 10.685 10.99 10.691 10.876 10.75 10.869 C 10.792 10.864 10.822 10.907 10.862 10.905 C 10.915 10.902 10.934 10.818 10.98 10.82 C 11.031 10.822 11.015 10.73 11.025 10.692 C 11.046 10.611 11.086 10.546 11.099 10.461 C 11.102 10.438 11.1 10.411 11.091 10.391 C 11.075 10.36 11.081 10.326 11.067 10.293 C 11.054 10.261 11.03 10.23 11.003 10.214 C 10.875 10.14 10.694 10.133 10.589 10.259 C 10.577 10.272 10.568 10.291 10.555 10.302 C 10.536 10.318 10.539 10.309 10.517 10.317 C 10.507 10.32 10.501 10.329 10.499 10.34 C 10.497 10.351 10.502 10.364 10.509 10.371 C 10.426 10.454 10.357 10.569 10.29 10.672 C 10.254 10.725 10.224 10.784 10.186 10.833 C 10.147 10.88 10.112 10.93 10.08 10.985 C 10.047 11.042 10.016 11.104 9.991 11.167 C 9.952 11.257 9.925 11.328 9.863 11.394 C 9.816 11.445 9.756 11.503 9.754 11.586 C 9.754 11.624 9.762 11.669 9.788 11.696 C 9.82 11.73 9.861 11.717 9.855 11.788 C 9.853 11.811 9.845 11.835 9.837 11.856 C 9.824 11.896 9.812 11.936 9.8 11.977 C 9.794 12.003 9.788 12.028 9.788 12.055 C 9.789 12.106 9.82 12.109 9.845 12.14 C 9.88 12.181 9.858 12.236 9.85 12.288 C 9.837 12.378 9.812 12.465 9.775 12.544 C 9.762 12.573 9.743 12.625 9.716 12.634 C 9.682 12.645 9.645 12.616 9.609 12.631 C 9.588 12.64 9.569 12.654 9.551 12.671 C 9.506 12.714 9.468 12.768 9.434 12.826 C 9.409 12.871 9.356 12.938 9.346 12.99 C 9.346 12.994 9.345 12.997 9.345 13.001 C 9.259 12.995 9.175 12.981 9.091 12.967 C 9.068 12.869 9.073 12.772 9.115 12.674 C 9.142 12.611 9.147 12.55 9.158 12.481 C 9.164 12.445 9.169 12.405 9.187 12.375 C 9.206 12.34 9.23 12.31 9.247 12.273 C 9.284 12.199 9.313 12.118 9.329 12.035 C 9.342 11.968 9.351 11.894 9.383 11.835 C 9.425 11.761 9.479 11.797 9.542 11.779 C 9.546 11.777 9.55 11.775 9.554 11.773 C 9.604 11.75 9.637 11.701 9.626 11.64 C 9.621 11.613 9.609 11.586 9.593 11.566 C 9.583 11.553 9.569 11.55 9.559 11.539 C 9.53 11.508 9.527 11.47 9.51 11.434 C 9.49 11.394 9.462 11.362 9.43 11.335 C 9.394 11.304 9.35 11.288 9.305 11.293 C 9.247 11.3 9.223 11.237 9.171 11.235 C 9.15 11.235 9.126 11.241 9.116 11.261 C 9.1 11.291 9.113 11.335 9.118 11.367 C 9.126 11.412 9.123 11.42 9.096 11.452 C 9.067 11.486 9.044 11.528 9.02 11.568 L 9.019 11.541 L 8.966 10.791 L 8.94 10.039 L 8.883 9.288 L 8.912 8.77 C 9.126 8.878 9.187 8.782 9.497 8.739 C 9.853 8.688 9.856 8.788 10.216 8.788 C 10.574 8.788 10.574 8.726 10.934 8.726 C 11.292 8.726 11.292 8.734 11.652 8.734 C 12.01 8.734 12.01 8.708 12.369 8.708 C 12.728 8.708 12.728 8.797 13.087 8.797 C 13.445 8.797 13.445 8.741 13.805 8.741 C 14.163 8.741 14.163 8.723 14.523 8.723 C 14.747 8.723 14.838 8.789 14.95 8.791 L 14.969 9.286 L 14.946 10.039 L 14.943 10.791 L 14.943 11.4 C 14.93 11.43 14.924 11.463 14.9 11.488 C 14.89 11.499 14.874 11.504 14.865 11.515 C 14.847 11.537 14.834 11.564 14.83 11.591 C 14.818 11.654 14.852 11.705 14.903 11.728 C 14.908 11.73 14.911 11.732 14.916 11.734 C 14.926 11.737 14.934 11.737 14.943 11.739 L 14.946 12.295 L 14.906 12.994 C 14.847 12.995 14.79 12.999 14.703 12.999 C 14.703 12.994 14.703 12.99 14.703 12.985 C 14.703 12.93 14.684 12.88 14.667 12.831 C 14.582 12.6 14.48 12.367 14.425 12.124 C 14.42 12.102 14.382 11.788 14.444 11.815 C 14.468 11.826 14.473 11.86 14.496 11.867 C 14.504 11.869 14.512 11.864 14.521 11.865 C 14.536 11.869 14.553 11.88 14.568 11.874 C 14.588 11.867 14.583 11.844 14.59 11.824 C 14.599 11.799 14.614 11.782 14.614 11.752 C 14.614 11.725 14.603 11.701 14.599 11.674 C 14.596 11.643 14.614 11.638 14.622 11.613 C 14.625 11.606 14.625 11.598 14.625 11.589 C 14.623 11.564 14.617 11.541 14.607 11.517 C 14.593 11.479 14.568 11.448 14.583 11.407 C 14.588 11.393 14.596 11.378 14.598 11.364 C 14.601 11.342 14.59 11.322 14.58 11.304 C 14.516 11.205 14.475 11.087 14.446 10.968 C 14.44 10.943 14.43 10.916 14.425 10.891 C 14.42 10.864 14.427 10.833 14.424 10.806 C 14.422 10.775 14.416 10.746 14.408 10.717 C 14.406 10.71 14.376 10.642 14.376 10.64 C 14.4 10.604 14.396 10.553 14.39 10.51 C 14.369 10.38 14.328 10.257 14.281 10.138 C 14.262 10.087 14.237 10.039 14.211 9.994 C 14.197 9.968 14.182 9.945 14.165 9.921 C 14.158 9.912 14.118 9.874 14.117 9.864 C 14.115 9.802 14.114 9.739 14.107 9.678 C 14.102 9.638 14.086 9.598 14.072 9.564 C 14.045 9.497 14.026 9.432 14.013 9.358 C 14.005 9.318 13.998 9.277 13.989 9.237 C 13.984 9.221 13.978 9.205 13.976 9.187 C 13.974 9.17 13.981 9.154 13.968 9.14 C 13.963 9.134 13.958 9.131 13.954 9.127 C 13.942 9.116 13.936 9.089 13.928 9.075 C 13.918 9.057 13.906 9.04 13.893 9.026 C 13.866 8.997 13.832 8.979 13.797 8.972 C 13.69 8.95 13.56 9.026 13.524 9.172 C 13.519 9.194 13.517 9.219 13.509 9.239 C 13.504 9.25 13.493 9.255 13.488 9.266 C 13.476 9.293 13.504 9.311 13.509 9.338 C 13.512 9.362 13.506 9.383 13.509 9.407 C 13.522 9.495 13.556 9.578 13.551 9.67 C 13.549 9.701 13.546 9.73 13.552 9.759 C 13.557 9.784 13.568 9.808 13.564 9.833 C 13.552 9.887 13.506 9.925 13.48 9.968 C 13.431 10.055 13.405 10.154 13.383 10.253 C 13.372 10.304 13.362 10.355 13.349 10.403 C 13.343 10.429 13.33 10.508 13.306 10.519 C 13.297 10.522 13.287 10.513 13.279 10.504 C 13.231 10.447 13.188 10.385 13.122 10.353 C 13.122 10.335 13.122 10.317 13.122 10.299 C 13.121 10.187 13.122 10.077 13.143 9.968 C 13.161 9.873 13.212 9.797 13.253 9.714 C 13.321 9.582 13.321 9.432 13.228 9.317 C 13.153 9.221 13.028 9.225 12.945 9.299 C 12.907 9.333 12.883 9.398 12.879 9.452 C 12.875 9.535 12.959 9.645 12.902 9.712 C 12.865 9.755 12.923 9.822 12.959 9.779 C 12.994 9.739 13.012 9.694 13.006 9.636 C 12.999 9.566 12.95 9.515 12.963 9.441 C 12.978 9.34 13.071 9.318 13.142 9.36 C 13.217 9.405 13.228 9.517 13.207 9.6 C 13.188 9.678 13.135 9.746 13.102 9.817 C 13.068 9.887 13.055 9.966 13.046 10.046 C 13.033 10.149 13.033 10.255 13.034 10.36 C 13.033 10.362 13.031 10.362 13.03 10.364 C 12.98 10.409 13.01 10.447 13.015 10.506 C 13.017 10.522 13.014 10.539 13.014 10.557 C 13.014 10.596 13.025 10.629 13.042 10.658 C 13.044 10.82 13.047 10.983 13.049 11.145 C 13.034 11.279 13.028 11.416 13.055 11.55 C 13.062 11.95 13.066 12.351 13.073 12.752 C 12.999 12.792 12.958 12.891 12.884 12.934 C 12.854 12.952 12.857 12.995 12.875 13.023 C 12.819 13.024 12.751 13.024 12.654 13.024 C 12.656 13.012 12.654 12.999 12.651 12.983 C 12.616 12.866 12.568 12.752 12.505 12.653 C 12.477 12.606 12.421 12.56 12.4 12.51 C 12.384 12.474 12.369 12.438 12.358 12.4 C 12.365 12.398 12.371 12.394 12.377 12.393 C 12.379 12.393 12.382 12.391 12.382 12.389 C 12.384 12.387 12.384 12.384 12.385 12.38 C 12.387 12.358 12.385 12.333 12.39 12.313 C 12.392 12.308 12.411 12.272 12.411 12.27 C 12.443 12.31 12.467 12.378 12.478 12.405 C 12.483 12.414 12.488 12.439 12.501 12.436 C 12.534 12.429 12.512 12.277 12.512 12.25 C 12.512 12.243 12.512 12.236 12.513 12.23 C 12.526 12.198 12.574 12.268 12.584 12.282 C 12.59 12.291 12.6 12.311 12.611 12.313 C 12.641 12.317 12.63 12.254 12.628 12.234 C 12.625 12.21 12.611 12.19 12.609 12.165 C 12.608 12.122 12.64 12.147 12.66 12.162 C 12.713 12.198 12.763 12.237 12.807 12.286 C 12.811 12.29 12.814 12.293 12.819 12.291 C 12.823 12.29 12.825 12.284 12.825 12.279 C 12.828 12.252 12.815 12.226 12.803 12.203 C 12.795 12.189 12.787 12.172 12.777 12.158 C 12.769 12.145 12.758 12.134 12.774 12.129 C 12.783 12.125 12.807 12.136 12.817 12.14 C 12.833 12.145 12.849 12.151 12.863 12.156 C 12.87 12.158 12.878 12.16 12.879 12.152 C 12.881 12.151 12.879 12.147 12.879 12.143 C 12.875 12.122 12.863 12.102 12.849 12.086 C 12.843 12.078 12.836 12.073 12.83 12.068 C 12.811 12.051 12.783 12.046 12.764 12.03 C 12.756 12.023 12.745 12.013 12.745 12.001 C 12.742 11.952 12.803 11.992 12.817 11.972 C 12.827 11.959 12.804 11.92 12.796 11.911 C 12.783 11.893 12.767 11.878 12.75 11.864 C 12.707 11.828 12.659 11.8 12.614 11.77 C 12.587 11.752 12.558 11.728 12.604 11.708 C 12.622 11.701 12.644 11.703 12.628 11.676 C 12.62 11.661 12.596 11.656 12.584 11.651 C 12.553 11.638 12.521 11.636 12.489 11.636 C 12.501 11.591 12.507 11.542 12.507 11.492 C 12.507 11.192 12.294 10.947 12.032 10.947 C 11.77 10.947 11.557 11.19 11.557 11.492 C 11.557 11.557 11.567 11.618 11.585 11.674 C 11.495 11.689 11.385 11.73 11.31 11.779 C 11.284 11.795 11.22 11.842 11.222 11.882 C 11.223 11.916 11.263 11.9 11.284 11.903 C 11.313 11.909 11.329 11.925 11.308 11.958 C 11.286 11.99 11.255 12.015 11.234 12.051 C 11.214 12.087 11.199 12.129 11.196 12.172 C 11.196 12.18 11.194 12.189 11.199 12.194 C 11.204 12.201 11.215 12.201 11.222 12.196 C 11.228 12.19 11.233 12.181 11.238 12.174 C 11.252 12.147 11.27 12.124 11.289 12.102 C 11.3 12.089 11.313 12.068 11.33 12.08 C 11.345 12.089 11.324 12.12 11.319 12.133 C 11.308 12.165 11.302 12.198 11.297 12.232 C 11.289 12.301 11.295 12.371 11.316 12.436 C 11.326 12.438 11.334 12.43 11.338 12.421 C 11.343 12.412 11.343 12.402 11.343 12.391 C 11.346 12.337 11.358 12.266 11.378 12.219 C 11.391 12.19 11.405 12.196 11.405 12.23 C 11.404 12.299 11.401 12.364 11.415 12.432 C 11.418 12.449 11.421 12.472 11.428 12.486 C 11.431 12.495 11.445 12.51 11.453 12.501 C 11.461 12.494 11.457 12.452 11.457 12.439 C 11.457 12.358 11.469 12.288 11.521 12.228 C 11.581 12.16 11.583 12.358 11.593 12.391 C 11.596 12.402 11.597 12.416 11.605 12.423 C 11.613 12.43 11.621 12.432 11.628 12.43 C 11.624 12.463 11.615 12.492 11.596 12.514 C 11.557 12.559 11.517 12.597 11.484 12.647 C 11.418 12.745 11.369 12.873 11.337 12.99 C 11.332 13.005 11.332 13.019 11.335 13.032 C 11.196 13.032 11.057 13.021 10.921 12.995 C 10.913 12.995 10.9 12.994 10.889 12.992 Z  M 13.225 12.317 C 13.229 12.38 13.226 12.486 13.269 12.535 C 13.274 12.541 13.282 12.544 13.29 12.542 C 13.293 12.541 13.297 12.539 13.301 12.539 C 13.308 12.541 13.309 12.55 13.311 12.557 C 13.314 12.607 13.319 12.683 13.271 12.705 C 13.245 12.716 13.217 12.712 13.19 12.716 C 13.18 12.717 13.17 12.719 13.161 12.721 C 13.156 12.405 13.151 12.087 13.146 11.772 C 13.148 11.773 13.15 11.777 13.151 11.779 C 13.161 11.793 13.175 11.802 13.19 11.804 C 13.207 11.806 13.207 11.793 13.218 11.811 C 13.226 11.826 13.228 11.869 13.229 11.885 C 13.234 11.941 13.229 11.997 13.226 12.055 C 13.22 12.143 13.218 12.23 13.225 12.317 Z  M 12.274 11.557 C 12.218 11.503 12.168 11.436 12.099 11.402 C 11.967 11.335 11.842 11.434 11.759 11.551 C 11.733 11.587 11.704 11.622 11.671 11.647 C 11.655 11.6 11.647 11.548 11.647 11.495 C 11.647 11.252 11.82 11.053 12.032 11.053 C 12.245 11.053 12.417 11.252 12.417 11.495 C 12.417 11.544 12.411 11.589 12.398 11.633 C 12.355 11.622 12.318 11.6 12.274 11.557 Z  M 11.914 12.977 C 11.783 12.983 11.655 13.012 11.522 13.026 C 11.559 12.894 11.602 12.764 11.696 12.678 C 11.882 12.508 12.126 12.474 12.302 12.681 C 12.382 12.775 12.424 12.891 12.461 13.014 C 12.278 12.999 12.096 12.97 11.914 12.977 Z  M 16.689 12.467 C 16.722 12.409 16.793 12.468 16.817 12.504 C 16.882 12.602 16.921 12.683 16.932 12.808 C 16.937 12.862 16.932 12.929 16.948 12.986 C 16.881 12.99 16.814 12.999 16.746 13.003 C 16.686 13.005 16.625 13.008 16.564 13.01 C 16.58 12.925 16.625 12.853 16.658 12.775 C 16.678 12.732 16.692 12.687 16.697 12.64 C 16.7 12.589 16.665 12.508 16.689 12.467 Z  M 15.75 12.642 C 15.752 12.591 15.75 12.539 15.754 12.488 C 15.755 12.47 15.754 12.436 15.763 12.42 C 15.776 12.396 15.776 12.403 15.8 12.412 C 15.886 12.447 15.969 12.458 16.061 12.461 C 16.177 12.465 16.276 12.423 16.376 12.373 C 16.384 12.394 16.396 12.467 16.401 12.481 C 16.417 12.521 16.449 12.557 16.475 12.591 C 16.527 12.663 16.507 12.712 16.479 12.792 C 16.455 12.864 16.443 12.934 16.438 13.01 C 16.38 13.008 16.323 13.003 16.267 12.994 C 16.129 12.968 15.99 12.921 15.85 12.921 C 15.811 12.921 15.776 12.923 15.746 12.925 C 15.749 12.829 15.747 12.737 15.75 12.642 Z  M 15.525 12.55 C 15.573 12.638 15.6 12.737 15.618 12.837 C 15.623 12.867 15.631 12.902 15.634 12.934 C 15.583 12.941 15.539 12.952 15.495 12.961 C 15.506 12.9 15.512 12.838 15.507 12.772 C 15.504 12.723 15.487 12.674 15.482 12.625 C 15.477 12.593 15.483 12.472 15.525 12.55 Z " fill="rgb(0,0,0)"/><path d=" M 11.668 5.158 L 11.314 5.748 L 11.826 5.356 L 12.005 6.73 L 12.184 5.356 L 12.696 5.748 L 12.342 5.158 L 13.25 4.961 L 12.352 4.766 L 12.697 4.19 L 12.187 4.58 L 12.005 3.246 L 11.824 4.58 L 11.314 4.19 L 11.66 4.766 L 10.76 4.961 L 11.668 5.158 Z  M 11.693 4.616 L 11.901 4.775 L 12.005 4.002 L 12.109 4.775 L 12.317 4.616 L 12.181 4.843 L 12.715 4.959 L 12.171 5.078 L 12.317 5.322 L 12.107 5.161 L 12.005 5.946 L 11.903 5.161 L 11.693 5.322 L 11.839 5.078 L 11.295 4.959 L 11.829 4.843 L 11.693 4.616 Z " fill="rgb(0,0,0)"/></g></g></g></svg>