<?xml version="1.0" encoding="iso-8859-1"?>
<!-- Uploaded to: SVG Repo, www.svgrepo.com, Generator: SVG Repo Mixer Tools -->
<svg fill="#000000" height="800px" width="800px" version="1.1" id="Layer_1" xmlns="http://www.w3.org/2000/svg" xmlns:xlink="http://www.w3.org/1999/xlink" 
	 viewBox="0 0 512 512" xml:space="preserve">
<g>
	<g>
		<path d="M281.6,51.2H102.4c-14.14,0-25.6,11.46-25.6,25.6v128c0,14.14,11.46,25.6,25.6,25.6h179.2c14.14,0,25.6-11.46,25.6-25.6
			v-128C307.2,62.66,295.74,51.2,281.6,51.2z M281.6,204.8H102.4v-128h179.2V204.8z"/>
	</g>
</g>
<g>
	<g>
		<path d="M402.423,39.697c-6.272-3.021-14.003-0.503-17.126,5.871c-3.098,6.323-0.478,14.003,5.871,17.126
			c12.297,6.033,27.785,15.505,41.088,26.121c-0.256-0.051-0.657-0.145-0.888-0.196c-7.074-1.476-13.679,3.123-15.053,10.052
			c-1.374,6.946,3.123,13.679,10.052,15.053c14.942,2.978,31.479,9.83,34.398,14.157c0.008,0.043,0.034,0.077,0.034,0.119v217.6
			c0,14.123-11.477,25.6-25.6,25.6c-14.123,0-25.6-11.477-25.6-25.6V166.4c0-28.228-22.972-51.2-51.2-51.2V25.6
			c0-14.14-11.46-25.6-25.6-25.6H51.2C37.06,0,25.6,11.46,25.6,25.6v460.8c0,14.14,11.46,25.6,25.6,25.6h281.6
			c14.14,0,25.6-11.46,25.6-25.6V140.8c14.123,0,25.6,11.477,25.6,25.6v179.2c0,28.228,22.972,51.2,51.2,51.2s51.2-22.972,51.2-51.2
			V128C486.4,82.15,411.025,43.904,402.423,39.697z M332.8,486.4H51.2V25.6h281.6V486.4z"/>
	</g>
</g>
</svg>