<?xml version="1.0" encoding="UTF-8" standalone="no" ?>
<!DOCTYPE svg PUBLIC "-//W3C//DTD SVG 1.1//EN" "http://www.w3.org/Graphics/SVG/1.1/DTD/svg11.dtd">
<svg xmlns="http://www.w3.org/2000/svg" xmlns:xlink="http://www.w3.org/1999/xlink" version="1.1" width="24" height="24" viewBox="0 0 24 24" xml:space="preserve">
<desc>Created with Fabric.js 4.6.0</desc>
<defs>
</defs>
<g transform="matrix(1.58 0 0 1.58 11.83 12)" id="xUpxFyWJNtM2XagVagZZo"  >
<g style="" vector-effect="non-scaling-stroke"   >
		<g transform="matrix(1.33 0 0 1.33 0 0.05)" id="7DW_0DMVlONIDf0vmhEBg"  >
<path style="stroke: none; stroke-width: 1; stroke-dasharray: none; stroke-linecap: butt; stroke-dashoffset: 0; stroke-linejoin: miter; stroke-miterlimit: 4; fill: rgb(255,255,255); fill-rule: nonzero; opacity: 1;" vector-effect="non-scaling-stroke"  transform=" translate(-4.1, -4.1)" d="M 0 4.09913 C 0 1.8352499999999998 1.83524 0 4.09913 0 C 6.363009999999999 0 8.19826 1.83524 8.19826 4.09913 C 8.19826 6.363009999999999 6.36302 8.19826 4.09913 8.19826 C 1.8352499999999998 8.19826 0 6.36302 0 4.09913 z" stroke-linecap="round" />
</g>
		<g transform="matrix(1.33 0 0 1.33 0.11 0)" id="D5m4wtYvSbT0SIORQsoNB" clip-path="url(#CLIPPATH_6)"  >
<clipPath id="CLIPPATH_6" >
	<rect transform="matrix(1 0 0 1 -0.08 1.84)" id="_clipPath_OFL3c2R2vYtlhdccAR2eVAhWthTGhn17" x="-12" y="-12" rx="0" ry="0" width="24" height="24" />
</clipPath>
<path style="stroke: none; stroke-width: 1; stroke-dasharray: none; stroke-linecap: butt; stroke-dashoffset: 0; stroke-linejoin: miter; stroke-miterlimit: 4; fill: rgb(238,58,67); fill-rule: nonzero; opacity: 1;" vector-effect="non-scaling-stroke"  transform=" translate(-12.08, -10.16)" d="M 11.995 5.023 C 11.858 5.041 11.69 5.068 11.62 5.083 C 11.496 5.108 11.283 5.153 10.946 5.223 C 10.721 5.268 10.239 5.415 10.047 5.495 C 9.964 5.528 9.869 5.565 9.834 5.575 C 9.645 5.635 9.055 5.932 8.823 6.085 C 8.448 6.334 8.393 6.374 8.236 6.509 C 7.521 7.121 7.032 7.866 6.794 8.697 C 6.685 9.085 6.66 9.282 6.662 9.784 C 6.662 10.296 6.687 10.483 6.772 10.596 C 6.922 10.791 7.037 10.716 7.037 10.424 C 7.037 9.879 7.157 9.215 7.351 8.685 C 7.711 7.706 8.431 6.896 9.365 6.417 C 9.752 6.22 9.867 6.177 10.309 6.062 C 10.449 6.025 10.539 6.03 10.529 6.075 C 10.524 6.1 10.334 6.197 10.042 6.322 C 9.235 6.672 8.99 6.824 8.578 7.229 C 8.003 7.791 7.674 8.34 7.459 9.095 C 7.356 9.452 7.326 9.862 7.344 10.646 C 7.364 11.475 7.391 11.735 7.489 12.032 C 7.574 12.289 7.789 12.742 7.916 12.929 C 8.066 13.144 8.603 13.678 8.825 13.831 C 8.855 13.851 8.968 13.931 9.075 14.006 C 9.485 14.29 9.877 14.493 10.197 14.578 C 10.431 14.643 10.864 14.73 10.946 14.73 C 11.026 14.73 11.076 14.792 11.033 14.842 C 10.998 14.885 10.774 14.892 10.584 14.857 C 10.029 14.755 9.622 14.623 9.172 14.403 C 8.675 14.158 8.133 13.683 7.691 13.101 C 7.379 12.692 7.299 12.619 7.227 12.682 C 7.087 12.797 7.224 13.244 7.534 13.681 C 7.811 14.071 8.378 14.578 8.773 14.787 C 9.597 15.227 10.616 15.407 11.62 15.292 C 12.42 15.197 13.122 14.985 13.844 14.613 C 14.001 14.533 14.063 14.493 14.313 14.325 C 14.353 14.298 14.433 14.243 14.496 14.2 C 14.668 14.083 15.157 13.603 15.322 13.389 C 15.949 12.567 16.287 11.832 16.406 11.033 C 16.474 10.588 16.431 9.519 16.327 8.947 C 16.214 8.35 16.114 8.078 15.847 7.643 C 15.667 7.354 15.632 7.309 15.377 7.054 C 14.815 6.492 13.934 5.99 13.379 5.912 C 12.894 5.845 12.837 5.832 12.784 5.785 C 12.667 5.675 12.744 5.603 12.962 5.62 C 13.511 5.665 13.951 5.805 14.518 6.12 C 15.14 6.462 15.625 6.837 15.919 7.204 C 16.356 7.746 16.691 8.665 16.781 9.559 C 16.826 10.001 16.796 10.981 16.731 11.295 C 16.591 11.96 16.499 12.245 16.277 12.692 C 15.859 13.528 15.242 14.153 14.161 14.827 C 14.021 14.917 13.968 14.985 13.991 15.047 C 14.003 15.08 14.033 15.085 14.138 15.072 C 14.391 15.045 14.735 14.86 15.15 14.558 C 15.428 14.355 15.429 14.345 15.6 14.2 C 15.736 14.085 16.351 13.491 16.534 13.256 C 16.901 12.779 17.101 12.402 17.251 11.902 C 17.441 11.258 17.521 10.543 17.496 9.697 C 17.486 9.422 17.468 9.152 17.456 9.097 C 17.443 9.042 17.411 8.885 17.381 8.747 C 17.213 7.961 16.811 7.121 16.317 6.524 C 15.66 5.732 14.823 5.283 13.556 5.046 C 13.292 4.998 12.312 4.983 11.995 5.023 Z M 13.147 7.056 C 13.197 7.089 13.229 7.174 13.259 7.351 C 13.274 7.446 13.309 7.578 13.332 7.648 L 13.374 7.773 L 13.896 7.951 C 14.436 8.133 14.511 8.163 14.895 8.35 C 15.175 8.485 15.242 8.55 15.217 8.658 C 15.197 8.747 15.08 8.822 14.998 8.8 C 14.97 8.792 14.506 8.797 13.971 8.812 C 13.062 8.835 12.005 8.9 11.595 8.96 C 11.501 8.975 11.291 9.002 11.133 9.022 C 10.831 9.06 10.536 9.1 9.934 9.185 C 9.734 9.212 9.487 9.247 9.385 9.26 C 9.282 9.274 9.093 9.302 8.965 9.324 C 8.753 9.359 8.725 9.359 8.67 9.322 C 8.603 9.279 8.605 9.279 8.625 9.225 C 8.673 9.1 9.575 8.588 10.209 8.323 C 10.366 8.255 10.511 8.193 10.529 8.178 C 10.546 8.165 10.669 7.993 10.799 7.796 C 10.961 7.551 11.056 7.434 11.091 7.426 C 11.121 7.421 11.348 7.374 11.595 7.324 C 11.843 7.274 12.08 7.229 12.12 7.221 C 12.162 7.214 12.342 7.176 12.52 7.136 C 12.959 7.039 13.097 7.021 13.147 7.056 Z M 11.503 9.217 C 11.508 9.242 11.486 9.304 11.453 9.354 C 11.418 9.404 11.358 9.497 11.318 9.559 C 11.213 9.719 11.066 9.859 11.003 9.859 C 10.931 9.859 10.859 9.789 10.859 9.717 C 10.859 9.559 11.031 9.357 11.271 9.237 C 11.433 9.152 11.491 9.15 11.503 9.217 Z M 14.625 9.589 C 14.668 9.632 14.663 9.729 14.605 9.894 C 14.555 10.031 14.555 10.041 14.595 10.086 C 14.618 10.114 14.663 10.134 14.693 10.134 C 14.768 10.134 14.868 10.216 14.843 10.256 C 14.81 10.309 14.625 10.384 14.523 10.384 C 14.468 10.384 14.388 10.366 14.341 10.344 C 14.263 10.306 14.253 10.306 14.183 10.356 C 14.021 10.474 13.796 10.561 13.676 10.553 C 13.614 10.551 13.546 10.561 13.526 10.576 C 13.369 10.703 13.149 10.758 12.772 10.761 C 12.632 10.761 12.467 10.771 12.402 10.781 C 12.2 10.813 12.155 10.733 12.272 10.548 C 12.327 10.464 12.647 10.169 12.882 9.986 C 12.917 9.959 12.939 9.934 12.932 9.926 C 12.924 9.919 12.842 9.926 12.744 9.939 C 12.65 9.951 12.535 9.956 12.487 9.946 C 12.39 9.929 12.307 9.854 12.307 9.787 C 12.307 9.697 12.375 9.659 12.54 9.659 C 12.625 9.659 12.772 9.642 12.869 9.622 C 12.964 9.602 13.112 9.584 13.192 9.584 C 13.371 9.584 13.431 9.627 13.431 9.752 C 13.431 9.829 13.396 9.874 13.129 10.146 C 12.964 10.316 12.837 10.459 12.849 10.466 C 12.892 10.488 13.272 10.506 13.354 10.488 L 13.441 10.469 L 13.434 10.331 C 13.429 10.211 13.439 10.179 13.514 10.071 C 13.624 9.909 13.854 9.724 14.031 9.654 C 14.106 9.624 14.253 9.592 14.356 9.584 C 14.458 9.574 14.555 9.567 14.57 9.564 C 14.583 9.562 14.608 9.572 14.625 9.589 Z M 10.114 9.637 C 10.267 9.697 10.399 9.812 10.449 9.926 C 10.469 9.971 10.484 10.074 10.484 10.154 C 10.484 10.444 10.262 10.716 9.912 10.853 C 9.647 10.958 9.55 10.973 9.47 10.921 C 9.435 10.898 9.402 10.883 9.4 10.888 C 9.395 10.893 9.37 10.958 9.34 11.033 C 8.98 11.955 8.88 12.127 8.755 12.015 C 8.71 11.975 8.705 11.95 8.718 11.782 C 8.745 11.41 9 10.686 9.262 10.239 C 9.33 10.126 9.385 10.029 9.385 10.026 C 9.385 10.021 9.347 10.024 9.3 10.029 C 9.232 10.036 9.207 10.029 9.185 9.986 C 9.147 9.916 9.167 9.859 9.262 9.769 C 9.437 9.602 9.857 9.534 10.114 9.637 Z M 12.235 9.936 C 12.3 10.001 12.285 10.079 12.175 10.231 C 12.088 10.351 12.053 10.391 11.79 10.661 L 11.61 10.846 L 11.89 10.848 C 12.045 10.848 12.317 10.856 12.495 10.861 C 12.725 10.868 12.854 10.861 12.939 10.836 C 13.159 10.773 13.157 10.908 12.937 11.016 C 12.764 11.103 12.577 11.13 12.045 11.143 C 11.733 11.153 11.511 11.17 11.396 11.198 C 11.028 11.285 10.958 11.273 10.958 11.12 C 10.958 11.016 11.061 10.891 11.443 10.533 C 11.793 10.209 11.818 10.176 11.7 10.211 C 11.588 10.244 11.348 10.239 11.271 10.204 C 11.236 10.189 11.201 10.146 11.191 10.114 C 11.163 10.004 11.243 9.969 11.563 9.946 C 11.718 9.936 11.895 9.919 11.958 9.909 C 12.142 9.879 12.18 9.881 12.235 9.936 Z M 11.033 10.049 C 11.091 10.199 11.041 10.411 10.849 10.816 C 10.771 10.978 10.709 11.128 10.709 11.153 C 10.709 11.268 10.574 11.293 10.481 11.193 C 10.429 11.138 10.421 11.105 10.421 10.951 C 10.421 10.788 10.431 10.753 10.519 10.596 C 10.624 10.406 10.876 10.034 10.921 10.004 C 10.968 9.969 11.011 9.984 11.033 10.049 Z M 13.906 11.033 C 13.906 11.073 13.886 11.145 13.864 11.195 C 13.841 11.243 13.829 11.29 13.839 11.298 C 13.846 11.308 13.948 11.29 14.063 11.263 C 14.336 11.193 14.543 11.168 14.565 11.203 C 14.598 11.255 14.408 11.345 13.769 11.588 C 13.679 11.623 13.666 11.64 13.619 11.785 C 13.589 11.872 13.546 11.99 13.521 12.045 C 13.496 12.1 13.449 12.232 13.416 12.339 C 13.284 12.754 13.222 12.837 13.157 12.682 C 13.112 12.574 13.139 12.252 13.214 11.957 C 13.279 11.707 13.274 11.682 13.162 11.682 C 13.084 11.682 12.977 11.573 12.999 11.515 C 13.032 11.42 13.062 11.408 13.242 11.408 L 13.424 11.408 L 13.541 11.223 C 13.686 10.991 13.789 10.898 13.859 10.933 C 13.889 10.951 13.906 10.986 13.906 11.033 Z M 11.675 11.348 C 11.683 11.37 11.66 11.508 11.623 11.655 C 11.543 11.972 11.54 12.02 11.603 11.995 C 11.625 11.985 11.673 11.97 11.703 11.962 C 11.795 11.942 11.765 12.055 11.658 12.125 C 11.506 12.227 11.488 12.252 11.471 12.374 C 11.461 12.439 11.438 12.557 11.421 12.632 C 11.403 12.707 11.381 12.799 11.373 12.837 C 11.346 12.954 11.241 13.056 11.143 13.056 C 11.001 13.056 10.951 12.894 11.008 12.607 C 11.018 12.544 11.026 12.492 11.021 12.487 C 11.018 12.484 10.904 12.517 10.769 12.564 L 10.521 12.647 L 10.444 12.959 C 10.356 13.309 10.314 13.404 10.219 13.479 C 10.134 13.546 10.054 13.546 9.994 13.479 C 9.934 13.411 9.934 13.126 9.994 12.949 C 10.062 12.752 10.052 12.717 9.929 12.699 C 9.794 12.682 9.695 12.582 9.734 12.507 C 9.769 12.439 9.869 12.392 10.054 12.354 C 10.189 12.327 10.214 12.312 10.227 12.257 C 10.247 12.172 10.489 11.707 10.584 11.57 C 10.726 11.363 10.836 11.3 10.871 11.405 C 10.891 11.468 10.806 11.817 10.724 12.03 C 10.686 12.12 10.659 12.202 10.659 12.215 C 10.659 12.24 10.779 12.222 10.988 12.165 C 11.128 12.127 11.128 12.127 11.186 11.972 C 11.278 11.725 11.421 11.45 11.496 11.375 C 11.573 11.3 11.65 11.288 11.675 11.348 Z M 12.937 11.615 C 12.944 11.648 12.932 11.797 12.914 11.947 C 12.894 12.097 12.884 12.289 12.892 12.374 C 12.902 12.499 12.897 12.529 12.864 12.542 C 12.799 12.567 12.677 12.477 12.615 12.359 C 12.582 12.297 12.552 12.245 12.547 12.24 C 12.542 12.232 12.482 12.287 12.417 12.357 C 12.205 12.584 11.965 12.664 11.833 12.554 C 11.78 12.509 11.77 12.482 11.773 12.359 C 11.773 12.277 11.798 12.155 11.833 12.06 L 11.893 11.9 L 11.835 11.855 C 11.765 11.797 11.793 11.747 11.91 11.722 C 12.025 11.7 12.105 11.73 12.145 11.81 C 12.187 11.89 12.195 12.075 12.157 12.167 C 12.125 12.257 12.152 12.25 12.315 12.122 C 12.467 12.005 12.6 11.857 12.702 11.695 C 12.774 11.58 12.799 11.558 12.872 11.558 C 12.909 11.558 12.929 11.575 12.937 11.615 Z" stroke-linecap="round" />
</g>
		<g transform="matrix(1.33 0 0 1.33 2.74 -0.17)" id="lWTCJ8Q3c3ojyBs3TyTvw" clip-path="url(#CLIPPATH_7)"  >
<clipPath id="CLIPPATH_7" >
	<rect transform="matrix(1 0 0 1 -2.05 1.97)" id="_clipPath_OFL3c2R2vYtlhdccAR2eVAhWthTGhn17" x="-12" y="-12" rx="0" ry="0" width="24" height="24" />
</clipPath>
<path style="stroke: none; stroke-width: 1; stroke-dasharray: none; stroke-linecap: butt; stroke-dashoffset: 0; stroke-linejoin: miter; stroke-miterlimit: 4; fill: rgb(238,58,67); fill-rule: nonzero; opacity: 1;" vector-effect="non-scaling-stroke"  transform=" translate(-14.05, -10.03)" d="M 14.118 9.906 C 14.021 9.949 13.831 10.134 13.831 10.184 C 13.831 10.224 13.876 10.214 14.046 10.134 C 14.171 10.076 14.208 10.046 14.221 9.991 C 14.231 9.954 14.248 9.906 14.263 9.889 C 14.298 9.844 14.238 9.852 14.118 9.906 Z" stroke-linecap="round" />
</g>
		<g transform="matrix(1.33 0 0 1.33 -2.96 0.33)" id="SN45sKfrE_Wakq_txNYK0" clip-path="url(#CLIPPATH_8)"  >
<clipPath id="CLIPPATH_8" >
	<rect transform="matrix(1 0 0 1 2.22 1.59)" id="_clipPath_OFL3c2R2vYtlhdccAR2eVAhWthTGhn17" x="-12" y="-12" rx="0" ry="0" width="24" height="24" />
</clipPath>
<path style="stroke: none; stroke-width: 1; stroke-dasharray: none; stroke-linecap: butt; stroke-dashoffset: 0; stroke-linejoin: miter; stroke-miterlimit: 4; fill: rgb(238,58,67); fill-rule: nonzero; opacity: 1;" vector-effect="non-scaling-stroke"  transform=" translate(-9.78, -10.41)" d="M 9.672 9.979 C 9.665 9.986 9.66 10.026 9.66 10.066 C 9.66 10.106 9.61 10.289 9.547 10.474 C 9.42 10.848 9.417 10.868 9.48 10.836 C 9.502 10.823 9.595 10.783 9.682 10.743 C 9.879 10.653 10.069 10.476 10.107 10.346 C 10.127 10.269 10.124 10.236 10.084 10.161 C 10.059 10.109 10.007 10.054 9.967 10.034 C 9.887 9.996 9.692 9.961 9.672 9.979 Z" stroke-linecap="round" />
</g>
		<g transform="matrix(1.33 0 0 1.33 -6.91 2.06)" id="x6rc-tEBXOFgf_Nqn8H7c" clip-path="url(#CLIPPATH_9)"  >
<clipPath id="CLIPPATH_9" >
	<rect transform="matrix(1 0 0 1 5.18 0.29)" id="_clipPath_OFL3c2R2vYtlhdccAR2eVAhWthTGhn17" x="-12" y="-12" rx="0" ry="0" width="24" height="24" />
</clipPath>
<path style="stroke: none; stroke-width: 1; stroke-dasharray: none; stroke-linecap: butt; stroke-dashoffset: 0; stroke-linejoin: miter; stroke-miterlimit: 4; fill: rgb(238,58,67); fill-rule: nonzero; opacity: 1;" vector-effect="non-scaling-stroke"  transform=" translate(-6.82, -11.71)" d="M 6.592 11.203 C 6.507 11.293 6.482 11.44 6.512 11.655 C 6.56 11.99 6.637 12.137 6.812 12.225 C 6.947 12.294 7.039 12.297 7.099 12.232 C 7.139 12.19 7.139 12.162 7.114 11.927 C 7.099 11.785 7.079 11.608 7.072 11.533 C 7.044 11.27 6.962 11.16 6.777 11.14 C 6.675 11.128 6.657 11.133 6.592 11.203 Z" stroke-linecap="round" />
</g>
		<g transform="matrix(1.33 0 0 1.33 5.29 5.52)" id="ak0vfEY-UkryBH1m2P2On" clip-path="url(#CLIPPATH_10)"  >
<clipPath id="CLIPPATH_10" >
	<rect transform="matrix(1 0 0 1 -3.97 -2.3)" id="_clipPath_OFL3c2R2vYtlhdccAR2eVAhWthTGhn17" x="-12" y="-12" rx="0" ry="0" width="24" height="24" />
</clipPath>
<path style="stroke: none; stroke-width: 1; stroke-dasharray: none; stroke-linecap: butt; stroke-dashoffset: 0; stroke-linejoin: miter; stroke-miterlimit: 4; fill: rgb(238,58,67); fill-rule: nonzero; opacity: 1;" vector-effect="non-scaling-stroke"  transform=" translate(-15.97, -14.3)" d="M 15.951 14.418 L 15.951 14.213 L 15.873 14.213 L 15.873 14.186 L 16.062 14.186 L 16.062 14.213 L 15.983 14.213 L 15.983 14.418 L 15.951 14.418 Z" stroke-linecap="round" />
</g>
		<g transform="matrix(1.33 0 0 1.33 5.61 5.52)" id="CNIaSCRxKrUCbwCXnJaG8" clip-path="url(#CLIPPATH_11)"  >
<clipPath id="CLIPPATH_11" >
	<rect transform="matrix(1 0 0 1 -4.21 -2.3)" id="_clipPath_OFL3c2R2vYtlhdccAR2eVAhWthTGhn17" x="-12" y="-12" rx="0" ry="0" width="24" height="24" />
</clipPath>
<path style="stroke: none; stroke-width: 1; stroke-dasharray: none; stroke-linecap: butt; stroke-dashoffset: 0; stroke-linejoin: miter; stroke-miterlimit: 4; fill: rgb(238,58,67); fill-rule: nonzero; opacity: 1;" vector-effect="non-scaling-stroke"  transform=" translate(-16.21, -14.3)" d="M 16.093 14.418 L 16.093 14.186 L 16.14 14.186 L 16.197 14.35 C 16.202 14.366 16.206 14.377 16.208 14.385 C 16.211 14.376 16.215 14.364 16.221 14.347 L 16.278 14.186 L 16.32 14.186 L 16.32 14.418 L 16.29 14.418 L 16.29 14.224 L 16.221 14.418 L 16.192 14.418 L 16.123 14.22 L 16.123 14.418 L 16.093 14.418 Z" stroke-linecap="round" />
</g>
</g>
</g>
</svg>
