<svg xmlns="http://www.w3.org/2000/svg" width="1587" height="1123" viewBox="0 0 1587 1123" version="1.1"><path d="M 389 553.364 L 389 581 393 581 L 397 581 397 570 L 397 559 407.250 558.978 L 417.500 558.956 421.729 557.036 L 425.959 555.116 427.976 551.808 L 429.993 548.500 429.993 542.500 L 429.993 536.500 427.974 533.190 L 425.956 529.880 422.228 528.298 L 418.500 526.716 403.750 526.222 L 389 525.728 389 553.364 M 438 553.500 L 438 581 441.500 581 L 445 581 445 553.500 L 445 526 441.500 526 L 438 526 438 553.500 M 638.006 545.750 L 638.011 565.500 639.118 569.488 L 640.226 573.477 643.608 576.666 L 646.990 579.856 652.665 581.034 L 658.341 582.212 663.327 581.551 C 669.477 580.735, 673.006 578.970, 676.292 575.065 L 678.822 572.058 679.911 566.980 L 681 561.902 681 543.951 L 681 526 677.090 526 L 673.181 526 672.826 545.750 L 672.472 565.500 670.811 568.555 L 669.150 571.611 666.528 572.805 L 663.906 574 658.675 574 L 653.445 574 651.217 572.439 C 649.991 571.581, 648.316 569.578, 647.494 567.989 L 646 565.099 646 545.550 L 646 526 642 526 L 638 526 638.006 545.750 M 732 553.500 L 732 581 736 581 L 740 581 740 553.500 L 740 526 736 526 L 732 526 732 553.500 M 857 534.914 L 857 543.828 852.143 541.776 L 847.286 539.724 843.893 540.365 C 842.027 540.717, 839.011 541.914, 837.192 543.024 L 833.884 545.041 831.964 549.271 L 830.044 553.500 830.022 560.782 L 830 568.064 831.351 571.298 C 832.094 573.076, 834.325 575.956, 836.309 577.698 L 839.916 580.865 844.444 581.544 L 848.972 582.223 852.986 580.237 L 857 578.251 857 579.625 L 857 581 860.500 581 L 864 581 864 553.500 L 864 526 860.500 526 L 857 526 857 534.914 M 1000 553.500 L 1000 581 1004 581 L 1008 581 1008 553.500 L 1008 526 1004 526 L 1000 526 1000 553.500 M 397 543 L 397 552 405.032 552 L 413.064 552 416.452 550.585 C 420.362 548.951, 422 546.423, 422 542.020 L 422 538.909 419.545 536.455 L 417.091 534 407.045 534 L 397 534 397 543 M 464.256 541.062 L 461.013 542.054 457.654 545.413 L 454.295 548.772 453.147 553.329 C 451.709 559.043, 451.696 564.364, 453.109 569.453 L 454.206 573.406 457.413 576.613 L 460.621 579.821 465.050 581.013 L 469.479 582.206 473.869 581.604 C 481.090 580.615, 488 574.796, 488 569.705 L 488 568.219 484.426 567.802 L 480.853 567.384 479.416 570.163 C 477.641 573.595, 475.135 575, 470.788 575 L 467.445 575 465.217 573.439 C 462.778 571.731, 460 566.997, 460 564.550 L 460 563 474.629 563 L 489.258 563 488.575 557.855 C 488.200 555.025, 487.031 551.020, 485.977 548.956 L 484.062 545.202 480.600 543.062 L 477.138 540.922 472.319 540.496 L 467.500 540.069 464.256 541.062 M 505.313 541.096 L 501.126 542.093 498.063 545.581 C 496.378 547.500, 495 549.906, 495 550.928 L 495 552.786 496.582 553.393 C 499.059 554.343, 502 554.105, 502 552.955 C 502 552.380, 503.105 550.805, 504.455 549.455 L 506.909 547 511.232 547 L 515.555 547 517.777 548.557 L 520 550.113 520 553.057 C 520 554.676, 519.663 556.002, 519.250 556.004 C 518.837 556.006, 514.531 556.652, 509.680 557.439 C 500.822 558.877, 498.965 559.681, 495.772 563.457 L 494.044 565.500 494.022 570.115 L 494 574.730 496.054 577.341 L 498.107 579.952 502.233 581.063 L 506.358 582.173 510.461 581.558 C 512.718 581.220, 515.989 580.077, 517.730 579.018 L 520.895 577.093 521.515 579.047 L 522.135 581 526.174 581 L 530.214 581 529.412 579.250 C 528.972 578.288, 528.343 570.750, 528.016 562.500 C 527.354 545.809, 527.035 544.587, 522.766 542.379 L 519.775 540.832 514.637 540.466 C 511.812 540.264, 507.616 540.548, 505.313 541.096 M 544.500 541.102 C 538.759 542.866, 536 546.500, 536 552.299 L 536 555.730 538.062 558.352 L 540.124 560.974 548.812 563.603 C 558.466 566.525, 560 567.411, 560 570.066 L 560 571.887 557.777 573.443 L 555.555 575 551.712 575 C 546.701 575, 544.561 573.769, 542.994 569.986 L 541.714 566.896 540.275 567.448 C 539.484 567.752, 537.917 568, 536.793 568 L 534.750 568 535.372 571.250 L 535.995 574.500 539.400 577.674 L 542.805 580.848 547.367 581.532 L 551.929 582.216 556.958 581.010 L 561.988 579.804 564.494 576.825 C 568.672 571.860, 568.976 565.866, 565.261 561.743 L 563.678 559.986 553.942 556.982 L 544.205 553.977 543.579 552.344 L 542.952 550.711 544.631 548.855 L 546.310 547 550.655 547 L 555 547 556.875 548.875 C 557.906 549.906, 558.938 551.313, 559.167 552 L 559.583 553.250 562.792 552.546 L 566 551.841 566 549.936 L 566 548.032 563.250 544.963 L 560.500 541.894 556.500 540.971 C 551.644 539.850, 548.462 539.885, 544.500 541.102 M 584.784 541.195 L 581.068 542.183 577.642 545.975 L 574.216 549.767 573.076 555.081 L 571.937 560.394 572.587 564.947 C 572.944 567.451, 574.179 571.210, 575.330 573.299 L 577.424 577.099 580.897 579.245 L 584.370 581.392 590.935 581.446 L 597.500 581.500 600.895 579.500 C 604.532 577.358, 607.455 573.822, 608.449 570.363 L 609.063 568.226 605.281 567.769 L 601.500 567.312 601.087 568.396 C 600.859 568.993, 599.431 570.723, 597.913 572.240 L 595.154 575 591.542 575 L 587.930 575 585.550 573.441 L 583.170 571.881 581.585 567.920 C 580.713 565.742, 580 563.744, 580 563.480 C 580 563.216, 586.525 563, 594.500 563 L 609 563 608.994 559.750 C 608.991 557.962, 608.495 554.721, 607.891 552.547 L 606.794 548.594 603.600 545.400 L 600.406 542.206 596.453 541.109 C 591.848 539.830, 589.861 539.845, 584.784 541.195 M 701.711 541.892 L 698 543.784 698 542.392 L 698 541 694.500 541 L 691 541 691 568.500 L 691 596 694.500 596 L 698 596 698 587.108 L 698 578.216 701.711 580.108 C 710.326 584.500, 720.706 579.482, 724.066 569.301 L 725.245 565.726 724.781 558.487 L 724.316 551.248 722.120 547.695 L 719.925 544.142 715.647 542.071 C 710.336 539.500, 706.500 539.451, 701.711 541.892 M 758.951 541.327 C 754.005 542.962, 751.563 544.931, 748.915 549.419 L 746.632 553.290 746.632 560.931 L 746.632 568.572 749.028 572.835 L 751.424 577.099 754.462 578.965 C 756.133 579.992, 759.175 581.143, 761.223 581.522 L 764.946 582.212 769.795 581.049 L 774.643 579.886 777.313 577.411 C 778.781 576.050, 780.737 573.488, 781.659 571.718 L 783.337 568.500 783.372 561 L 783.407 553.500 781.694 550.282 C 780.752 548.512, 778.792 545.961, 777.337 544.612 L 774.693 542.160 770.404 541.080 C 765.209 539.772, 763.546 539.808, 758.951 541.327 M 798.809 541.583 L 794.117 543.026 792.190 545.763 C 791.130 547.268, 789.956 549.488, 789.581 550.695 L 788.900 552.891 792.650 553.594 L 796.401 554.298 796.767 553.199 C 796.968 552.595, 798.036 550.953, 799.139 549.550 L 801.145 547 806.073 547 L 811 547 813.061 549.061 L 815.123 551.123 814.811 553.311 L 814.500 555.500 808.500 556.640 C 805.200 557.267, 800.793 558.078, 798.706 558.443 L 794.912 559.107 791.921 561.804 L 788.931 564.500 788.356 568.118 L 787.781 571.736 789.482 575.320 L 791.182 578.904 795.549 580.572 L 799.916 582.240 804.290 581.584 C 806.696 581.223, 810.269 580.068, 812.229 579.017 L 815.795 577.106 816.304 579.053 L 816.813 581 821.013 581 L 825.214 581 824.413 579.250 C 823.973 578.288, 823.343 570.628, 823.013 562.229 L 822.413 546.959 819.864 544.410 L 817.315 541.860 813.407 540.954 C 808.078 539.718, 804.348 539.879, 798.809 541.583 M 904.275 540.971 C 902.501 541.392, 899.876 542.506, 898.442 543.446 L 895.833 545.156 894.342 548.723 L 892.852 552.290 894.176 553.130 C 894.904 553.592, 896.737 553.976, 898.250 553.985 L 901 554 901 552.500 C 901 551.675, 901.900 550.100, 903 549 L 905 547 909.811 547 L 914.623 547 916.869 549.092 L 919.115 551.185 918.807 553.342 L 918.500 555.500 912.500 556.640 C 909.200 557.267, 904.732 558.090, 902.571 558.469 L 898.642 559.158 895.321 562.479 L 892 565.800 892 569.450 C 892 574.162, 894.121 578.192, 897.571 580.035 L 900.313 581.500 905.906 581.438 L 911.500 581.375 915.642 579.222 L 919.785 577.069 920.299 579.035 L 920.813 581 924.523 581 L 928.233 581 927.586 578.750 C 927.231 577.513, 926.658 569.806, 926.313 561.624 L 925.687 546.747 923.593 544.321 L 921.500 541.895 917.500 540.972 C 912.846 539.897, 908.797 539.897, 904.275 540.971 M 946.750 542.290 L 942 544.728 942 542.864 L 942 541 939 541 L 936 541 936 561 L 936 581 939.500 581 L 943 581 943.006 569.250 L 943.011 557.500 944.052 553.752 L 945.093 550.003 947.997 548.502 C 951.551 546.663, 955.043 546.580, 957.364 548.277 L 959.110 549.554 960.031 553.527 C 960.538 555.712, 960.963 562.788, 960.976 569.250 L 961 581 964.500 581 L 968 581 967.985 565.250 L 967.971 549.500 966.735 547.096 C 966.056 545.774, 964.375 543.865, 963 542.852 L 960.500 541.011 956 540.431 L 951.500 539.851 946.750 542.290 M 1032.500 540.733 C 1031.400 541.008, 1029.263 542.112, 1027.750 543.185 L 1025 545.136 1025 543.068 L 1025 541 1022 541 L 1019 541 1019 561 L 1019 581 1022.500 581 L 1026 581 1026.006 569.250 L 1026.011 557.500 1027.044 553.779 L 1028.078 550.059 1030.261 548.529 C 1031.462 547.688, 1033.625 547, 1035.068 547 L 1037.690 547 1039.595 549.102 L 1041.500 551.204 1041.822 566.102 L 1042.144 581 1045.572 581 L 1049 581 1049 568.468 L 1049 555.936 1050.415 552.548 C 1051.968 548.833, 1054.566 547, 1058.279 547 L 1060.690 547 1062.591 549.100 L 1064.491 551.200 1064.855 566.100 L 1065.218 581 1068.609 581 L 1072 581 1071.998 565.250 L 1071.997 549.500 1070.248 546.025 L 1068.500 542.550 1064.793 541.155 L 1061.086 539.761 1057.644 540.407 C 1055.750 540.762, 1052.615 542.129, 1050.676 543.445 L 1047.151 545.837 1046.590 544.373 C 1045.428 541.347, 1037.859 539.391, 1032.500 540.733 M 1093.500 540.491 C 1092.950 540.675, 1091.297 541.089, 1089.827 541.412 C 1088.357 541.735, 1085.819 543.123, 1084.186 544.497 L 1081.218 546.994 1080.551 549.652 L 1079.884 552.310 1081.192 553.140 C 1081.911 553.596, 1083.524 553.976, 1084.775 553.985 L 1087.050 554 1087.977 551.561 C 1090.407 545.169, 1102.637 545.286, 1105.085 551.724 L 1106.074 554.326 1105.287 555.107 C 1104.854 555.536, 1101.350 556.371, 1097.500 556.962 C 1093.650 557.552, 1089.261 558.289, 1087.747 558.598 L 1084.994 559.160 1081.997 562.157 L 1079 565.154 1079 569.942 L 1079 574.730 1081.054 577.341 L 1083.107 579.952 1087.233 581.063 L 1091.358 582.173 1095.461 581.558 C 1097.718 581.220, 1101.051 580.039, 1102.867 578.935 L 1106.168 576.927 1106.701 578.964 L 1107.233 581 1111.233 581 L 1115.233 581 1114.481 578.750 C 1114.068 577.513, 1113.453 569.597, 1113.115 561.160 L 1112.500 545.821 1110.170 543.935 C 1106.481 540.950, 1097.616 539.119, 1093.500 540.491 M 1131.619 541.034 C 1127.697 542.209, 1124.103 545.705, 1121.890 550.500 L 1120.044 554.500 1120.022 560.554 L 1120 566.607 1122.559 571.743 L 1125.119 576.879 1129.628 579.062 L 1134.137 581.245 1138.609 580.741 L 1143.081 580.237 1145.041 578.463 L 1147 576.690 1147 580.422 L 1147 584.154 1144.077 587.077 L 1141.154 590 1137.299 590 L 1133.445 590 1131.223 588.443 C 1130 587.587, 1129 586.293, 1129 585.568 L 1129 584.250 1125.875 583.625 C 1124.156 583.281, 1122.356 583, 1121.875 583 C 1120.502 583, 1120.849 586.808, 1122.517 590.033 L 1124.034 592.966 1127.252 594.630 L 1130.469 596.294 1137.141 596.294 L 1143.812 596.294 1147.120 594.362 L 1150.429 592.429 1152.465 588.965 L 1154.500 585.500 1154.819 563.250 L 1155.137 541 1151.569 541 L 1148 541 1148 542.451 L 1148 543.902 1143.750 541.973 C 1139.186 539.901, 1136.180 539.669, 1131.619 541.034 M 1173.684 541.449 C 1168.701 543.226, 1166.132 545.598, 1163.881 550.500 L 1162.044 554.500 1162.022 561.282 L 1162 568.064 1163.364 571.329 C 1165.161 575.629, 1170.098 579.680, 1175.224 581.060 L 1179.358 582.173 1183.461 581.558 C 1190.352 580.525, 1197.981 574.122, 1197.996 569.359 L 1198 568.219 1194.250 567.765 L 1190.500 567.312 1190.154 568.193 C 1189.964 568.677, 1188.687 570.407, 1187.315 572.037 L 1184.822 575 1180.811 575 L 1176.800 575 1173.400 571.600 L 1170 568.200 1170 565.600 L 1170 563 1184 563 L 1198 563 1198 558.468 L 1198 553.936 1196.623 550.718 C 1192.932 542.090, 1183.064 538.103, 1173.684 541.449 M 705.463 547.040 C 704.383 547.448, 702.388 548.977, 701.030 550.439 L 698.560 553.097 698.176 559.897 L 697.791 566.696 699.406 569.818 C 704.419 579.512, 715.210 575.915, 717.398 563.820 L 718.064 560.141 716.934 555.653 L 715.804 551.164 713.652 549.220 C 711.019 546.841, 708.068 546.056, 705.463 547.040 M 465.217 548.561 C 463.273 549.922, 460 554.872, 460 556.450 C 460 556.753, 464.755 557, 470.567 557 L 481.135 557 480.489 554.750 C 480.134 553.513, 478.522 551.263, 476.906 549.750 L 473.968 547 470.707 547 L 467.445 547 465.217 548.561 M 583.923 549.923 L 581 552.846 581 554.923 L 581 557 591 557 L 601 557 601 555.950 C 601 551.194, 596.074 547, 590.489 547 L 586.846 547 583.923 549.923 M 758.044 549.802 L 755.243 552.603 754.534 556.802 L 753.824 561 754.534 565.198 L 755.243 569.397 758.044 572.198 L 760.846 575 765 575 L 769.154 575 771.956 572.198 L 774.757 569.397 775.466 565.198 L 776.176 561 775.502 557.014 L 774.829 553.028 772.013 550.014 L 769.198 547 765.022 547 L 760.846 547 758.044 549.802 M 841.009 549.837 L 838.171 552.675 837.457 557.437 L 836.743 562.199 837.948 566.222 C 838.611 568.434, 840.224 571.314, 841.531 572.622 L 843.909 575 847.267 575 L 850.626 575 853.479 572.022 L 856.332 569.044 856.780 563.634 L 857.229 558.224 856.042 554.628 L 854.855 551.031 852.293 549.016 L 849.730 547 846.788 547 L 843.846 547 841.009 549.837 M 1132.750 548.080 C 1131.787 548.641, 1130.325 550.405, 1129.500 552 L 1128 554.901 1128 560.500 L 1128 566.099 1129.510 569.020 C 1131.371 572.619, 1133.822 574, 1138.345 574 L 1141.822 574 1144.351 570.995 L 1146.879 567.990 1147.526 563.674 L 1148.173 559.358 1147.063 555.233 L 1145.952 551.107 1143.341 549.054 L 1140.730 547 1137.615 547.030 C 1135.902 547.047, 1133.712 547.519, 1132.750 548.080 M 1174.367 548.772 C 1172.149 550.569, 1170 554.093, 1170 555.934 L 1170 557 1180 557 L 1190 557 1190 554.923 L 1190 552.846 1187.077 549.923 L 1184.154 547 1180.327 547.022 L 1176.500 547.044 1174.367 548.772 M 511.622 563.601 C 507.839 564.352, 504.104 565.499, 503.321 566.149 L 501.898 567.330 502.199 570.408 L 502.500 573.486 505.229 574.787 L 507.957 576.089 511.925 575.020 L 515.893 573.952 517.946 571.341 L 520 568.730 520 565.365 C 520 563.514, 519.663 562.053, 519.250 562.117 C 518.837 562.181, 515.405 562.849, 511.622 563.601 M 806.622 563.554 L 799.745 564.921 797.872 566.615 C 795.437 568.820, 795.499 571.236, 798.050 573.545 L 800.099 575.400 803.492 575.400 C 807.916 575.400, 811.821 573.247, 813.585 569.835 C 815.084 566.938, 815.513 561.936, 814.250 562.094 C 813.837 562.146, 810.405 562.803, 806.622 563.554 M 910.009 563.619 L 903.518 565.037 901.628 566.928 L 899.738 568.818 900.368 571.331 L 900.999 573.845 904.414 574.972 L 907.828 576.099 911.164 574.687 C 915.642 572.793, 917.965 569.989, 918.674 565.624 L 919.262 562 917.881 562.100 C 917.121 562.156, 913.579 562.839, 910.009 563.619 M 1097.500 563.442 C 1094.200 564.104, 1090.461 565.205, 1089.192 565.889 L 1086.883 567.133 1087.192 570.309 L 1087.500 573.486 1090.301 574.822 L 1093.102 576.158 1097.212 574.829 L 1101.322 573.500 1103.059 571 C 1104.015 569.625, 1105.056 567.038, 1105.374 565.250 L 1105.950 562 1104.725 562.119 C 1104.051 562.185, 1100.800 562.780, 1097.500 563.442" stroke="none" fill="#7c7c7c" fill-rule="evenodd"/></svg>