<?xml version="1.0" encoding="UTF-8" standalone="no"?>
<svg
   width="1587"
   height="1123"
   viewBox="0 0 1587 1123"
   version="1.1"
   id="svg4"
   sodipodi:docname="placeholder_image.svg"
   inkscape:version="1.2.2 (732a01da63, 2022-12-09)"
   xmlns:inkscape="http://www.inkscape.org/namespaces/inkscape"
   xmlns:sodipodi="http://sodipodi.sourceforge.net/DTD/sodipodi-0.dtd"
   xmlns="http://www.w3.org/2000/svg"
   xmlns:svg="http://www.w3.org/2000/svg">
  <defs
     id="defs8" />
  <sodipodi:namedview
     id="namedview6"
     pagecolor="#ffffff"
     bordercolor="#000000"
     borderopacity="0.25"
     inkscape:showpageshadow="2"
     inkscape:pageopacity="0.0"
     inkscape:pagecheckerboard="0"
     inkscape:deskcolor="#d1d1d1"
     showgrid="false"
     inkscape:zoom="0.37088157"
     inkscape:cx="76.843938"
     inkscape:cy="295.2425"
     inkscape:window-width="1920"
     inkscape:window-height="991"
     inkscape:window-x="918"
     inkscape:window-y="2151"
     inkscape:window-maximized="1"
     inkscape:current-layer="svg4" />
  <path
     d="m 215.0817,550.56495 v 39.51777 h 5.71975 5.71975 V 574.3534 558.62408 l 14.65687,-0.0315 14.65687,-0.0315 6.0472,-2.74548 6.04864,-2.74548 2.88419,-4.73024 2.88418,-4.73023 v -8.57963 -8.57963 l -2.88704,-4.73309 -2.88562,-4.7331 -5.33081,-2.26216 -5.33081,-2.26216 -21.09158,-0.70639 -21.09159,-0.70631 v 39.51777 m 70.06697,0.19447 v 39.3233 h 5.00478 5.00478 v -39.3233 -39.3233 h -5.00478 -5.00478 v 39.3233 m 285.9962,-11.08201 0.007,28.24127 1.58294,5.70259 1.58437,5.70402 4.83605,4.56007 4.83605,4.56151 8.1149,1.68446 8.11633,1.68447 7.12967,-0.94519 c 8.79412,-1.16683 13.84037,-3.69067 18.53915,-9.27458 l 3.61774,-4.29982 1.5572,-7.26122 1.55721,-7.26122 v -25.66882 -25.66882 h -5.59106 -5.58963 l -0.50763,28.24128 -0.5062,28.24127 -2.37512,4.36847 -2.37513,4.36989 -3.7493,1.70734 -3.7493,1.70878 h -7.48 -7.47858 l -3.1859,-2.23213 c -1.7531,-1.22689 -4.14825,-4.09106 -5.32366,-6.36323 l -2.13633,-4.13252 v -27.95386 -27.95529 h -5.71975 -5.71975 l 0.009,28.24128 m 134.4056,11.08202 v 39.3233 h 5.71975 5.71976 v -39.3233 -39.3233 h -5.71976 -5.71975 v 39.3233 M 884.2927,524.18259 v 12.74647 l -6.9452,-2.93424 -6.9452,-2.93423 -4.8518,0.91659 c -2.6682,0.50334 -6.9809,2.21498 -9.582,3.80221 l -4.7302,2.88418 -2.7455,6.04864 -2.7455,6.04721 -0.031,10.41281 -0.031,10.41281 1.9319,4.62442 c 1.0624,2.54243 4.2526,6.66065 7.0896,9.1516 l 5.1578,4.52861 6.4747,0.97093 6.4748,0.97093 5.7398,-2.83987 5.7397,-2.83984 v 1.96473 1.96617 h 5.0048 5.0048 v -39.3233 -39.3233 h -5.0048 -5.0048 v 12.74647 m 204.4812,26.57683 v 39.3233 h 5.7197 5.7198 v -39.3233 -39.3233 h -5.7198 -5.7197 v 39.3233 M 226.5212,535.74507 v 12.86944 h 11.48527 11.48526 l 4.84463,-2.02336 c 5.59106,-2.33652 7.9333,-5.9514 7.9333,-12.24742 v -4.44854 l -3.5105,-3.50907 -3.50907,-3.51049 H 240.88493 226.5212 v 12.86944 m 96.17192,-2.77122 -4.63729,1.4185 -4.80316,4.80316 -4.80316,4.80316 -1.64157,6.51623 c -2.05625,8.17067 -2.07484,15.77937 -0.0543,23.05632 l 1.56864,5.65255 4.58582,4.58581 4.58724,4.58724 6.33319,1.70449 6.3332,1.70591 6.27743,-0.86082 c 10.32558,-1.41421 20.20645,-9.73502 20.20645,-17.01483 v -2.12489 l -5.1106,-0.59629 -5.10917,-0.59771 -2.05482,3.9738 c -2.53814,4.90754 -6.12156,6.91661 -12.3375,6.91661 h -4.78029 l -3.1859,-2.23214 c -3.48762,-2.44233 -7.45998,-9.21166 -7.45998,-12.71072 v -2.2164 h 20.91856 20.91856 l -0.97664,-7.35703 c -0.53623,-4.04673 -2.20783,-9.77363 -3.71498,-12.72502 l -2.73833,-5.36799 -4.95045,-3.06007 -4.95045,-3.06006 -6.89087,-0.60916 -6.89087,-0.61058 -4.63872,1.41993 m 58.70897,0.0486 -5.98715,1.42564 -4.3799,4.98763 c -2.40945,2.74405 -4.3799,6.18448 -4.3799,7.64588 v 2.65682 l 2.26216,0.86798 c 3.54196,1.35844 7.74741,1.01811 7.74741,-0.62632 0,-0.82221 1.58008,-3.07436 3.51049,-5.00478 l 3.50907,-3.5105 h 6.18162 6.18163 l 3.17732,2.22641 3.17875,2.22499 v 4.20974 c 0,2.31507 -0.48189,4.21116 -1.07245,4.21402 -0.59057,0.003 -6.74788,0.9266 -13.68451,2.05196 -12.66639,2.05626 -15.32179,3.20593 -19.88758,8.60537 l -2.47093,2.92137 -0.0315,6.59916 -0.0315,6.59916 2.93709,3.73357 2.93567,3.73357 5.89992,1.58866 5.8985,1.58723 5.86703,-0.87941 c 3.22737,-0.48332 7.9047,-2.11774 10.39422,-3.63204 l 4.52576,-2.75263 0.88656,2.7941 0.88656,2.79267 h 5.77552 5.77695 l -1.14681,-2.5024 c -0.62917,-1.3756 -1.5286,-12.15447 -1.99619,-23.95146 -0.94662,-23.8671 -1.40277,-25.61448 -7.50718,-28.77178 l -4.27694,-2.21212 -7.34703,-0.52335 c -4.03957,-0.28885 -10.03959,0.11725 -13.33274,0.90086 m 56.03499,0.009 c -8.20928,2.52241 -12.15448,7.7188 -12.15448,16.01101 v 4.90612 l 2.94853,3.7493 2.94854,3.7493 12.4233,3.7593 c 13.80462,4.17828 15.99815,5.44521 15.99815,9.24169 v 2.60392 l -3.17876,2.22498 -3.17732,2.22642 h -5.49525 c -7.16542,0 -10.22549,-1.76026 -12.4662,-7.16971 l -1.83032,-4.41851 -2.05768,0.78933 c -1.13108,0.4347 -3.3718,0.78932 -4.97905,0.78932 h -2.92136 l 0.88942,4.6473 0.89085,4.6473 4.86894,4.53862 4.86894,4.53863 6.52338,0.97807 6.52338,0.97808 7.19115,-1.7245 7.19259,-1.72451 3.58343,-4.25978 c 5.97428,-7.09965 6.40898,-15.6707 1.09676,-21.56633 l -2.26359,-2.5124 -13.92188,-4.29554 -13.92331,-4.29696 -0.89514,-2.33509 -0.89657,-2.33509 2.40087,-2.65396 2.40086,-2.65254 h 6.21308 6.21309 l 2.68113,2.68113 c 1.47427,1.47427 2.94996,3.48619 3.27742,4.46856 l 0.59485,1.78742 4.58867,-1.00667 4.58724,-1.00811 v -2.72403 -2.7226 l -3.93233,-4.38848 -3.93232,-4.38848 -5.71976,-1.31984 c -6.94378,-1.60296 -11.49384,-1.55291 -17.15925,0.18733 m 57.60362,0.13298 -5.31365,1.41278 -4.89897,5.42232 -4.89896,5.42233 -1.63013,7.59869 -1.6287,7.59726 0.92946,6.51051 c 0.51048,3.58057 2.27646,8.9557 3.92232,11.94284 l 2.99429,5.43377 4.96617,3.06865 4.96618,3.07007 9.38754,0.0772 9.38755,0.0772 4.85463,-2.85988 c 5.20069,-3.06293 9.3804,-8.11919 10.80176,-13.06535 l 0.87798,-3.05577 -5.40803,-0.65348 -5.40659,-0.65349 -0.59057,1.55006 c -0.32602,0.85367 -2.36797,3.32746 -4.53862,5.49668 l -3.9452,3.94663 h -5.16494 -5.16493 l -3.40326,-2.22928 -3.40325,-2.2307 -2.26645,-5.66398 c -1.24691,-3.11441 -2.26645,-5.97143 -2.26645,-6.34893 0,-0.3775 9.33034,-0.68637 20.7341,-0.68637 h 20.7341 l -0.009,-4.6473 c -0.004,-2.55673 -0.71354,-7.19116 -1.57722,-10.29984 l -1.56864,-5.65255 -4.56722,-4.56722 -4.56722,-4.56722 -5.65255,-1.56864 c -6.58487,-1.8289 -9.42615,-1.80745 -16.68595,0.12297 m 167.19838,0.99667 -5.30651,2.70544 v -1.99047 -1.99048 h -5.00478 -5.00478 v 39.3233 39.3233 h 5.00478 5.00478 v -12.71501 -12.71501 l 5.30651,2.70544 c 12.31891,6.28029 27.16167,-0.89514 31.96626,-15.45334 l 1.6859,-5.11203 -0.66349,-10.35132 -0.66492,-10.35132 -3.14015,-5.08057 -3.13871,-5.08057 -6.11728,-2.9614 c -7.5944,-3.67637 -13.07964,-3.74644 -19.92761,-0.25596 m 81.84965,-0.80792 c -7.07247,2.33795 -10.56438,5.1535 -14.35086,11.57106 l -3.26455,5.53529 v 10.92616 10.92616 l 3.42614,6.09582 3.42613,6.09726 4.34415,2.66826 c 2.38943,1.46855 6.7393,3.11441 9.66781,3.65635 l 5.32366,0.98666 6.93377,-1.66302 6.93234,-1.66301 3.81794,-3.5391 c 2.09914,-1.94615 4.8961,-5.60965 6.21451,-8.14064 l 2.39943,-4.60154 0.05,-10.72454 0.0501,-10.72453 -2.44949,-4.60154 c -1.347,-2.53099 -4.14968,-6.17876 -6.23024,-8.10775 l -3.78075,-3.50621 -6.13301,-1.54433 c -7.42853,-1.87036 -9.80651,-1.81888 -16.37708,0.35319 m 56.99448,0.36607 -6.70927,2.0634 -2.7555,3.91374 c -1.51573,2.15205 -3.19448,5.32652 -3.7307,7.05245 l -0.97379,3.14015 5.36227,1.00524 5.36369,1.00668 0.52336,-1.5715 c 0.28742,-0.86369 1.81459,-3.21164 3.39181,-5.21785 l 2.86846,-3.64634 h 7.04674 7.0453 l 2.9471,2.9471 2.94854,2.94854 -0.44615,3.1287 -0.44471,3.13013 -8.57962,1.63013 c -4.7188,0.89658 -11.02054,2.05626 -14.00482,2.57818 l -5.42518,0.94948 -4.27695,3.85654 -4.27551,3.85512 -0.82222,5.17351 -0.82221,5.17352 2.43232,5.1249 2.4309,5.1249 6.24454,2.38513 6.24454,2.38514 6.25455,-0.93804 c 3.44043,-0.51621 8.5496,-2.16779 11.35227,-3.67065 l 5.09916,-2.73261 0.72783,2.78409 0.7278,2.78409 h 6.0058 6.0071 l -1.1454,-2.5024 c -0.6291,-1.3756 -1.53,-12.32892 -2.0019,-24.33897 l -0.8579,-21.83516 -3.6449,-3.64491 -3.645,-3.64634 -5.58812,-1.29552 c -7.62014,-1.76741 -12.95381,-1.53719 -20.87423,0.89943 m 150.80985,-0.87513 c -2.5368,0.60201 -6.2903,2.19496 -8.3409,3.5391 l -3.7307,2.4452 -2.132,5.10058 -2.1306,5.10059 1.8932,1.20115 c 1.041,0.66063 3.6621,1.20973 5.8256,1.2226 l 3.9323,0.0214 v -2.14491 c 0,-1.1797 1.287,-3.43185 2.8599,-5.00478 l 2.8599,-2.85988 h 6.8794 6.8809 l 3.2116,2.99143 3.2116,2.99286 -0.4404,3.08438 -0.439,3.0858 -8.5796,1.63013 c -4.7188,0.89658 -11.1078,2.07341 -14.1979,2.61536 l -5.6182,0.98523 -4.7488,4.74882 -4.7488,4.74883 v 5.21927 c 0,6.73787 3.0329,12.50052 7.9662,15.1359 l 3.9208,2.09486 7.9977,-0.0887 7.9991,-0.0901 5.9228,-3.07865 5.9242,-3.07866 0.735,2.81126 0.735,2.80983 h 5.305 5.3051 l -0.9252,-3.21736 c -0.5076,-1.76884 -1.3269,-12.78937 -1.8203,-24.48912 l -0.8951,-21.27319 -2.9943,-3.46903 -2.9929,-3.46903 -5.7197,-1.31984 c -6.6549,-1.53718 -12.4448,-1.53718 -18.9109,-10e-4 m 60.7366,1.88609 -6.7922,3.48619 v -2.6654 -2.66541 h -4.2898 -4.2899 v 28.59876 28.59877 h 5.0048 5.0048 l 0.01,-16.80178 0.01,-16.80177 1.4886,-5.35941 1.4886,-5.36083 4.1525,-2.14634 c 5.082,-2.62966 10.0754,-2.74834 13.3942,-0.32174 l 2.4967,1.82603 1.317,5.68115 c 0.725,3.12441 1.3327,13.24265 1.3513,22.48291 l 0.034,16.80178 h 5.0048 5.0048 l -0.021,-22.52153 -0.02,-22.52152 -1.7674,-3.43757 c -0.9709,-1.89038 -3.3747,-4.62013 -5.3408,-6.06866 l -3.5749,-2.63252 -6.4347,-0.82936 -6.4347,-0.82937 -6.7922,3.48762 m 122.6172,-2.22641 c -1.573,0.39323 -4.6287,1.97188 -6.7922,3.50621 l -3.9324,2.78981 v -2.95712 -2.95711 h -4.2898 -4.2898 v 28.59876 28.59877 h 5.0048 5.0048 l 0.01,-16.80178 0.01,-16.80177 1.4771,-5.3208 1.4786,-5.31937 3.1215,-2.1878 c 1.7174,-1.20258 4.8104,-2.18638 6.8738,-2.18638 h 3.7493 l 2.724,3.00573 2.724,3.00573 0.4605,21.30322 0.4604,21.30322 h 4.9018 4.9018 v -17.91999 -17.91998 l 2.0234,-4.84463 c 2.2207,-5.31222 5.9357,-7.93331 11.245,-7.93331 h 3.4476 l 2.7183,3.00288 2.7169,3.00287 0.5205,21.30608 0.5191,21.30607 h 4.8489 4.8489 v -22.52153 -22.52152 l -2.5009,-4.96903 -2.4996,-4.96903 -5.3007,-1.99477 -5.3008,-1.99333 -4.9219,0.92373 c -2.7083,0.50763 -7.1911,2.46235 -9.9638,4.34415 l -5.0405,3.42041 -0.8022,-2.09343 c -1.6616,-4.32699 -12.4848,-7.12395 -20.1478,-5.20497 m 87.2262,-0.34605 c -0.7865,0.26311 -3.1502,0.85511 -5.2522,1.31698 -2.102,0.46187 -5.7312,2.44662 -8.0662,4.41136 l -4.2441,3.57055 -0.9538,3.80078 -0.9537,3.80077 1.8703,1.18685 c 1.0281,0.65205 3.3346,1.19543 5.1235,1.2083 l 3.2531,0.0214 1.3255,-3.48762 c 3.4748,-9.14017 20.9629,-8.97286 24.4634,0.23308 l 1.4142,3.7207 -1.1253,1.11678 c -0.6192,0.61344 -5.6297,1.80744 -11.135,2.65253 -5.5052,0.84367 -11.7812,1.89753 -13.9461,2.33938 l -3.9367,0.80363 -4.2855,4.28552 -4.2855,4.28553 v 6.84654 6.84654 l 2.9371,3.73357 2.9356,3.73357 5.9,1.58866 5.8985,1.58723 5.867,-0.87941 c 3.2274,-0.48332 7.9934,-2.17207 10.5901,-3.75073 l 4.7203,-2.87131 0.7621,2.91278 0.7607,2.91136 h 5.7198 5.7197 l -1.0753,-3.21736 c -0.5905,-1.76884 -1.4699,-13.08823 -1.9533,-25.15262 l -0.8794,-21.93382 -3.3317,-2.69686 c -5.2751,-4.26836 -17.9515,-6.88658 -23.8371,-4.92471 m 54.5078,0.77646 c -5.6082,1.68018 -10.7474,6.67924 -13.9119,13.53579 l -2.6396,5.71976 -0.032,8.65684 -0.031,8.65542 3.6592,7.34416 3.6606,7.34416 6.4476,3.12156 6.4476,3.12155 6.3947,-0.72069 6.3947,-0.72069 2.8026,-2.53671 2.8013,-2.53528 v 5.33653 5.33654 l -4.1797,4.17971 -4.1797,4.17971 h -5.5124 -5.511 l -3.1773,-2.22641 c -1.7489,-1.22403 -3.1788,-3.07438 -3.1788,-4.11108 v -1.88465 l -4.4686,-0.89372 c -2.458,-0.49189 -5.0319,-0.89372 -5.7197,-0.89372 -1.9633,0 -1.4671,5.44521 0.918,10.05677 l 2.1692,4.19401 4.6016,2.37941 4.6001,2.37942 h 9.5405 9.5391 l 4.7303,-2.76264 4.7316,-2.76407 2.9114,-4.95331 2.9099,-4.95473 0.4562,-31.81612 0.4547,-31.81613 h -5.102 -5.1035 v 2.07484 2.07484 l -6.0772,-2.75835 c -6.5263,-2.96283 -10.8246,-3.29458 -17.3466,-1.34271 m 60.1504,0.59342 c -7.1254,2.541 -10.7989,5.93282 -14.0177,12.94237 l -2.6268,5.71976 -0.032,9.69784 -0.031,9.69784 1.9504,4.66875 c 2.5696,6.14873 9.6292,11.94141 16.9591,13.91472 l 5.9113,1.59152 5.8671,-0.87941 c 9.8537,-1.47712 20.7627,-10.63302 20.7841,-17.44381 l 0.01,-1.63013 -5.3622,-0.64919 -5.3623,-0.64777 -0.4948,1.25978 c -0.2717,0.69209 -2.0977,3.16588 -4.0596,5.49668 l -3.5648,4.23691 h -5.7355 -5.7355 l -4.8617,-4.8618 -4.8618,-4.86179 v -3.71784 -3.71784 h 20.0191 20.0191 v -6.48048 -6.48048 l -1.969,-4.60154 c -5.2779,-12.33751 -19.3885,-18.03867 -32.8013,-13.2541 m -669.52706,7.99479 c -1.54433,0.58341 -4.39706,2.76979 -6.33891,4.86036 l -3.53195,3.80077 -0.5491,9.72358 -0.55052,9.72215 2.30935,4.46427 c 7.16828,13.86182 22.59874,8.71833 25.72744,-8.57677 l 0.95234,-5.26074 -1.61583,-6.41756 -1.61583,-6.419 -3.07722,-2.7798 c -3.76503,-3.40182 -7.98478,-4.52432 -11.70977,-3.11726 m -343.53691,2.17493 c -2.7798,1.94615 -7.45998,9.02434 -7.45998,11.28079 0,0.43327 6.79935,0.78646 15.11015,0.78646 h 15.11159 l -0.92374,-3.21736 c -0.50763,-1.76883 -2.81269,-4.98619 -5.12347,-7.14969 l -4.20116,-3.93233 h -4.66303 -4.66446 l -3.1859,2.23213 m 169.74224,1.94758 -4.17971,4.17971 v 2.96998 2.96998 h 14.29938 14.29938 v -1.50143 c 0,-6.80079 -7.04388,-12.79795 -15.03008,-12.79795 h -5.20927 l -4.1797,4.17971 m 248.98225,-0.17302 -4.00526,4.00525 -1.01382,6.00431 -1.01526,6.00288 1.01526,6.00288 1.01382,6.00431 4.00526,4.00526 4.00668,4.0067 h 5.93997 5.93996 l 4.00669,-4.0067 4.00525,-4.00526 1.01383,-6.00431 1.01526,-6.00288 -0.96378,-5.69973 -0.96235,-5.69973 -4.02671,-4.30984 -4.02527,-4.30983 h -5.97142 -5.97143 l -4.00668,4.00669 m 118.63478,0.0501 -4.0582,4.05816 -1.0209,6.80937 -1.021,6.80936 1.7231,5.75264 c 0.948,3.16302 3.2545,7.28125 5.1234,9.15161 l 3.4004,3.40039 h 4.8017 4.8032 l 4.0796,-4.25836 4.0796,-4.25835 0.6406,-7.73597 0.6421,-7.73596 -1.6973,-5.14206 -1.6974,-5.14349 -3.6635,-2.88132 -3.6649,-2.88276 H 869.7069 865.5 l -4.0567,4.05674 m 417.1716,-2.51241 c -1.3771,0.8022 -3.4676,3.32461 -4.6473,5.60536 l -2.1449,4.14825 v 8.00623 8.00622 l 2.1592,4.17685 c 2.6611,5.14635 6.1659,7.12109 12.6335,7.12109 h 4.9719 l 3.6163,-4.29696 3.6149,-4.29697 0.9251,-6.17161 0.9252,-6.17161 -1.5872,-5.8985 -1.5887,-5.89992 -3.7336,-2.93567 -3.7335,-2.93709 -4.4543,0.0429 c -2.4495,0.0243 -5.581,0.69924 -6.9566,1.50143 m 59.5097,0.98952 c -3.1716,2.5696 -6.2445,7.6087 -6.2445,10.24122 v 1.52431 h 14.2993 14.2994 v -2.96998 -2.96998 l -4.1797,-4.17971 -4.1797,-4.17971 -5.4724,0.0315 -5.4723,0.0315 -3.0501,2.47093 m -947.68429,21.20455 c -5.40946,1.07389 -10.75027,2.71403 -11.86992,3.64349 l -2.0348,1.68875 0.43041,4.40135 0.43042,4.40135 3.9023,1.86035 3.90087,1.86178 5.67399,-1.5286 5.674,-1.52718 2.93566,-3.73357 2.93709,-3.73356 v -4.81175 c 0,-2.64681 -0.48189,-4.73595 -1.07245,-4.64443 -0.59057,0.0915 -5.49811,1.04671 -10.90757,2.12202 m 421.83174,-0.0672 -9.83368,1.95472 -2.67828,2.42232 c -3.4819,3.15301 -3.39324,6.60774 0.25453,9.90947 l 2.92995,2.65253 h 4.85178 c 6.32604,0 11.90995,-3.07865 14.43236,-7.9576 2.14348,-4.14253 2.75692,-11.29508 0.95091,-11.06915 -0.59056,0.0743 -5.49811,1.01382 -10.90757,2.08771 m 147.83695,0.0929 -9.2817,2.02765 -2.7026,2.70402 -2.7026,2.70258 0.9009,3.59344 0.9023,3.59486 4.8832,1.61154 4.8818,1.61154 4.7703,-2.01907 c 6.4033,-2.70831 9.725,-6.71785 10.7388,-12.95953 l 0.8408,-5.1821 -1.9747,0.143 c -1.0868,0.0801 -6.1516,1.05672 -11.2565,2.17207 m 268.1005,-0.2531 c -4.7187,0.94662 -10.0653,2.52098 -11.8799,3.49906 l -3.3017,1.77884 0.4418,4.54149 0.4405,4.54291 4.0052,1.9104 4.0053,1.9104 5.877,-1.90039 5.8771,-1.90039 2.4838,-3.57484 c 1.367,-1.96617 2.8556,-5.66542 3.3103,-8.22215 l 0.8236,-4.6473 -1.7516,0.17017 c -0.9638,0.0944 -5.6126,0.94518 -10.3314,1.8918"
     stroke="none"
     fill="#7c7c7c"
     fill-rule="evenodd"
     id="path2"
     style="stroke-width:1.42994" />
</svg>
