<svg xmlns="http://www.w3.org/2000/svg" viewBox="0 0 300 300" width="300" height="300"><circle cx="150" cy="150" r="150" fill="#5e4534"/><path d="M299 145 236 83 95 187 198 291C258 272 299 214 299 150c0-1 0-3 0-4z" fill="#443124"/><path d="m50 118c0-28 22-50 50-50 28 0 50 22 50 50 0-28 22-50 50-50 28 0 50 22 50 50 0 52-101 118-101 118 0 0-101-64-101-118z" fill="#f86e51"/><path d="m252 118c0-28-22-50-50-50-26 0-47 19-50 44l0 123c7-4 101-66 101-117z" fill="#dd5c47"/><path d="m159 192c-3 0-5-2-7-4l-27-53-10 20c-1 3-4 4-7 4l-67 0c-4 0-8-3-8-8 0-4 3-8 8-8l62 0 15-29c1-3 4-4 7-4 3 0 5 2 7 4l27 53 10-20c1-3 4-4 7-4l84 0c4 0 8 3 8 8 0 4-3 8-8 8l-79 0-15 29c-1 3-4 4-7 4z" fill="#fff"/><path d="m260 143-84 0c-3 0-5 2-7 4l-10 20-8-16 0 34 1 2c1 3 4 4 7 4 3 0 5-2 7-4l15-28 80 0c4 0 8-3 8-8 0-4-3-8-8-8z" fill="#edeceb"/></svg>
