<svg xmlns="http://www.w3.org/2000/svg" viewBox="0 0 300 300" width="300" height="300"><circle r="149" cy="149" cx="149" fill="#17ab93"/><path d="M298 150 219 64 137 119 102 248 151 298C245 294 297 218 298 150Z" fill="#118972"/><path d="m150 185c22 0 27 38 31 60 1 6 15 8 19 3 49-64 44-134 40-153-4-21-17-38-38-38-21 0-36 7-51 22-15-15-30-22-51-22-21 0-34 17-38 38-4 19-8 89 40 153 4 5 18 3 19-3 4-22 9-60 31-60z" fill="#fff"/><path d="m240 95c-4-21-17-38-38-38-21 0-36 7-51 22 0 0 0 0 0 0l0 106c0 0 0 0 0 0 22 0 27 38 31 60 1 6 15 8 19 3 49-64 44-134 40-153z" fill="#edeceb"/></svg>