<?xml version="1.0" standalone="no"?><!-- Generator: Gravit.io --><svg xmlns="http://www.w3.org/2000/svg" xmlns:xlink="http://www.w3.org/1999/xlink" style="isolation:isolate" viewBox="0 0 500 500" width="500" height="500"><defs><clipPath id="_clipPath_11VLg7oewyY7CIXCGkCMuc9IMy7rXZAE"><rect width="500" height="500"/></clipPath></defs><g clip-path="url(#_clipPath_11VLg7oewyY7CIXCGkCMuc9IMy7rXZAE)"><g><path d=" M 60 189.049 C 60 87.505 142.188 5.317 243.433 5.317 C 344.828 5.317 427.016 87.505 427.016 189.049 C 427.016 243.543 403.193 292.677 365.375 326.326 C 363.29 328.113 291.227 395.262 242.987 498.146 C 224.822 425.338 154.397 355.36 122.087 326.773 C 83.971 292.974 60 243.84 60 189.049 Z  M 129.979 189.049 C 129.979 251.732 180.899 302.503 243.433 302.503 C 306.116 302.503 356.888 251.732 356.888 189.049 C 356.888 126.217 306.116 75.445 243.433 75.445 C 180.899 75.445 129.979 126.217 129.979 189.049 Z " fill="rgb(247,135,100)" vector-effect="non-scaling-stroke" stroke-width="0.021" stroke="rgb(0,0,0)" stroke-linejoin="miter" stroke-linecap="butt" stroke-miterlimit="4"/><circle vector-effect="non-scaling-stroke" cx="243.50784745220102" cy="188.2460762738995" r="148.24607627389952" fill="rgb(130,129,129)" stroke-width="10" stroke="rgb(255,255,255)" stroke-linejoin="miter" stroke-linecap="butt" stroke-miterlimit="4"/></g><g><rect x="133.426" y="120" width="220.164" height="140" transform="matrix(1,0,0,1,0,0)" fill="rgb(130,129,129)" vector-effect="non-scaling-stroke" stroke-width="10" stroke="rgb(241,241,225)" stroke-linejoin="miter" stroke-linecap="square" stroke-miterlimit="2"/><path d=" M 133.587 154.821 C 152.949 154.908 168.641 170.654 168.641 190.036 C 168.641 209.448 152.899 225.213 133.496 225.251 L 133.426 190.036 L 133.587 154.821 Z " fill="rgb(130,129,129)" vector-effect="non-scaling-stroke" stroke-width="10" stroke="rgb(241,241,225)" stroke-linejoin="miter" stroke-linecap="square" stroke-miterlimit="3"/><path d=" M 353.429 225.251 C 334.067 225.164 318.375 209.418 318.375 190.036 C 318.375 170.624 334.116 154.859 353.52 154.821 L 353.59 190.036 L 353.429 225.251 Z " fill="rgb(130,129,129)" vector-effect="non-scaling-stroke" stroke-width="10" stroke="rgb(241,241,225)" stroke-linejoin="miter" stroke-linecap="square" stroke-miterlimit="3"/><circle vector-effect="non-scaling-stroke" cx="243.50784745220113" cy="189.99999999999991" r="35.25051124744374" fill="rgb(130,129,129)" stroke-width="10" stroke="rgb(241,241,225)" stroke-linejoin="miter" stroke-linecap="square" stroke-miterlimit="3"/><line x1="243.508" y1="122.865" x2="243.508" y2="260" vector-effect="non-scaling-stroke" stroke-width="10" stroke="rgb(241,241,225)" stroke-linejoin="miter" stroke-linecap="square" stroke-miterlimit="3"/></g></g></svg>