<?xml version="1.0" encoding="UTF-8" standalone="no"?>
<svg
   xmlns:dc="http://purl.org/dc/elements/1.1/"
   xmlns:cc="http://creativecommons.org/ns#"
   xmlns:rdf="http://www.w3.org/1999/02/22-rdf-syntax-ns#"
   xmlns:svg="http://www.w3.org/2000/svg"
   xmlns="http://www.w3.org/2000/svg"
   xmlns:sodipodi="http://sodipodi.sourceforge.net/DTD/sodipodi-0.dtd"
   xmlns:inkscape="http://www.inkscape.org/namespaces/inkscape"
   height="300"
   width="300"
   viewBox="0 0 300 300"
   id="svg2"
   version="1.1"
   inkscape:version="0.91 r13725"
   sodipodi:docname="poi_cinema.svg">
  <metadata
     id="metadata56">
    <rdf:RDF>
      <cc:Work
         rdf:about="">
        <dc:format>image/svg+xml</dc:format>
        <dc:type
           rdf:resource="http://purl.org/dc/dcmitype/StillImage" />
        <dc:title></dc:title>
      </cc:Work>
    </rdf:RDF>
  </metadata>
  <defs
     id="defs54" />
  <sodipodi:namedview
     pagecolor="#ffffff"
     bordercolor="#666666"
     borderopacity="1"
     objecttolerance="10"
     gridtolerance="10"
     guidetolerance="10"
     inkscape:pageopacity="0"
     inkscape:pageshadow="2"
     inkscape:window-width="1600"
     inkscape:window-height="837"
     id="namedview52"
     showgrid="false"
     inkscape:zoom="1.1125147"
     inkscape:cx="328.04704"
     inkscape:cy="114.39956"
     inkscape:window-x="-8"
     inkscape:window-y="-8"
     inkscape:window-maximized="1"
     inkscape:current-layer="svg2" />
  <style
     id="style4">  .a{fill:#495054;}.b{fill:#384044;}.c{fill:#ecf0f1;}.d{fill:#d0d5d9;}</style>
  <circle
     style="fill:#17ab93"
     id="circle8"
     cy="150"
     cx="150"
     r="150" />
  <path
     style="fill:#0a7c66;fill-rule:nonzero;opacity:1"
     inkscape:connector-curvature="0"
     id="path10"
     d="M 298.9899,165.65656 250.50505,117.17172 54.545454,244.44444 102.0202,291.91919 C 117.17172,296.96969 133.33333,300 150.50505,300 228.28283,300 291.91919,241.41414 300,165.65656 Z" />
  <path
     style="fill:#32373b;fill-opacity:1"
     inkscape:connector-curvature="0"
     id="path12"
     d="m 233.33333,250.50505 -166.666664,0 c -9.090909,0 -16.161616,-8.08081 -16.161616,-17.17172 l 0,-116.16161 200,0 0,116.16161 c 0,9.09091 -7.07071,17.17172 -17.17172,17.17172 z" />
  <path
     style="fill:#32373b;fill-opacity:1"
     inkscape:connector-curvature="0"
     id="path16"
     class="a"
     d="M 249.49495,97.979797 50.50505,117.17172 47.474747,91.919191 c 0,-5.050505 3.030303,-9.090909 8.080808,-9.090909 L 237.37373,65.656565 c 5.05051,0 9.09091,3.030303 10.10101,8.080808 l 2.02021,24.242424 z" />
  <path
     style="fill:#ecf0f1;fill-opacity:1"
     d="m 83.838383,117.17172 16.161616,0 -16.161616,33.33333 -17.171717,0 z"
     id="polygon24"
     inkscape:connector-curvature="0" />
  <path
     style="fill:#ecf0f1;fill-opacity:1"
     d="m 117.17172,117.17172 16.16161,0 -16.16161,33.33333 -17.171721,0 z"
     id="polygon26"
     inkscape:connector-curvature="0" />
  <path
     style="fill:#ecf0f1;fill-opacity:1"
     d="m 183.83838,117.17172 16.16162,0 -16.16162,33.33333 -17.17172,0 z"
     id="polygon28"
     inkscape:connector-curvature="0" />
  <path
     style="fill:#ecf0f1;fill-opacity:1"
     d="m 217.17171,117.17172 16.16162,0 -16.16162,33.33333 -17.17171,0 z"
     id="polygon30"
     inkscape:connector-curvature="0" />
  <path
     style="fill:#ecf0f1;fill-opacity:1"
     d="m 79.956877,80.569733 17.012819,-1.781855 -14.061965,35.296832 -16.161616,1.5435 z"
     id="polygon32"
     inkscape:connector-curvature="0"
     sodipodi:nodetypes="ccccc" />
  <path
     style="fill:#ecf0f1;fill-opacity:1"
     d="m 113.44911,77.482718 16.85392,-1.725143 -13.34692,34.979025 -16.63831,1.54351 z"
     id="polygon34"
     inkscape:connector-curvature="0"
     sodipodi:nodetypes="ccccc" />
  <path
     style="fill:#ecf0f1;fill-opacity:1"
     d="m 179.87742,71.104315 16.08217,-1.407346 -12.81351,34.581781 -16.47942,1.78185 z"
     id="polygon36"
     inkscape:connector-curvature="0"
     sodipodi:nodetypes="ccccc" />
  <path
     style="fill:#ecf0f1;fill-opacity:1"
     d="m 213.52855,67.994564 15.84382,-1.464059 -12.97241,34.559035 -17.09227,1.56626 z"
     id="polygon38"
     inkscape:connector-curvature="0"
     sodipodi:nodetypes="ccccc" />
  <path
     style="fill:#ecf0f1;fill-opacity:1"
     d="m 150.50505,117.17172 16.16161,0 -16.16161,33.33333 -17.17172,0 z"
     id="polygon40"
     inkscape:connector-curvature="0" />
  <path
     style="fill:#ecf0f1;fill-opacity:1"
     d="m 146.3852,74.134618 16.24106,-1.407346 -12.81351,34.740678 -16.47942,1.62296 z"
     id="polygon42"
     inkscape:connector-curvature="0"
     sodipodi:nodetypes="ccccc" />
  <rect
     style="fill:#ecf0f1;fill-opacity:1"
     id="rect48"
     height="50.505051"
     width="133.33333"
     y="166.66667"
     x="83.838387" />
</svg>
