<svg xmlns="http://www.w3.org/2000/svg" viewBox="0 0 300 300" width="300" height="300"><style>.a{fill:#fe843f;}.b{fill:#ffe278;}.c{fill:#ffc85f;}.d{fill:#ffae46;}</style><g transform="scale(0.65217391 0.65217391)"><path d="M150.1 445.7 455.3 183.7C433.9 78.9 341.2 0 230 0 103 0 0 103 0 230 0 328.9 62.5 413.3 150.1 445.7Z" fill="#db3916"/><path d="m460 230c0-15.9-1.6-31.3-4.7-46.3L380 108.4 70 365.6 150.1 445.7C175 455 201.9 460 230 460 357 460 460 357 460 230Z" fill="#6e1d0b"/><rect x="107.5" y="158.4" width="245" height="157.3" class="a"/><rect x="90" y="158.4" width="40" height="157.3" class="b"/><rect x="170" y="158.4" width="40" height="157.3" class="b"/><rect x="250" y="158.4" width="40" height="157.3" class="c"/><rect x="330" y="158.4" width="40" height="157.3" class="c"/><polygon points="230 365.6 70 365.6 70 335.6 80 335.6 230 335.6 240 350.6 " class="d"/><polygon points="80 335.6 80 305.6 230 305.6 240 320.6 230 335.6 " class="c"/><polygon points="80 168.4 80 148.4 230 148.4 240 158 230 168.4 " class="c"/><polygon points="80 148.4 80 108.4 230 68.4 240 108.4 230 148.4 " class="b"/><rect x="230" y="148.4" width="150" height="20" class="d"/><polygon points="380 108.4 380 148.4 230 148.4 230 68.4 " class="c"/><polygon points="230 335.6 380 335.6 390 335.6 390 365.6 230 365.6 " class="a"/><rect x="230" y="305.6" width="150" height="30" class="d"/></g></svg>
