<svg xmlns="http://www.w3.org/2000/svg" viewBox="0 0 300 300" width="300" height="300"><style>  .a{fill:#7fb21e;}.b{fill:#ff984c;}.c{fill:#ff6e36;}.d{fill:#ff5347;}.e{fill:#fff;}.f{fill:#ff1909;}.g{fill:#aa1106;}.h{fill:#064855;}</style><g transform="scale(0.65217391 0.65217391)"><circle cx="230" cy="230" r="230" class="a"/><path d="M189 456 456 273C459 259 460 245 460 230 460 103 357 0 230 0 103 0 0 103 0 230 0 343 81 437 189 456Z" class="a"/><path d="M456 273 240 58 50 318 189 456C202 459 216 460 230 460 342 460 436 380 456 273Z" fill="#557714"/><polygon points="130 58 130 88 194 98 184 58 " fill="#ffc240"/><polygon points="240 58 184 58 184 98 240 88 " class="b"/><polygon points="104 88 104 133 194 133 184 88 " class="b"/><rect x="186" y="88" width="78" height="45" class="c"/><rect x="144" y="48" width="20" height="85" class="c"/><rect x="204" y="48" width="20" height="85" class="d"/><polygon points="50 288 40 288 40 268 50 268 60 278 " class="c"/><polygon points="420 288 410 273 420 258 430 258 430 288 " class="e"/><polygon points="50 298 184 305 194 214 184 123 76 123 50 238 " class="d"/><polygon points="293 123 184 123 184 305 235 308 420 298 420 238 313 210 " class="f"/><polygon points="194 210 292 210 277 143 194 143 " fill="#fff0cf"/><polygon points="174 143 92 143 77 210 174 210 " class="e"/><polygon points="195 308 185 298 50 298 50 318 185 318 " class="f"/><rect x="185" y="298" width="235" height="20" class="g"/><path d="m118 258c-33 0-60 27-60 60l120 0c0-33-27-60-60-60z" class="f"/><path d="m353 258c-33 0-60 27-60 60l120 0c0-33-27-60-60-60z" class="g"/><path d="m78 318c0 22 18 40 40 40l10-40-10-40c-22 0-40 18-40 40z" fill="#096c80"/><path d="m118 278 0 80c22 0 40-18 40-40 0-22-18-40-40-40z" class="h"/><path d="m98 318c0 11 9 20 20 20l10-20-10-20c-11 0-20 9-20 20z" class="e"/><path d="m118 298 0 40c11 0 20-9 20-20 0-11-9-20-20-20z" fill="#89ebff"/><path d="m313 318c0 22 18 40 40 40l10-40-10-40c-22 0-40 18-40 40z" class="h"/><path d="m353 278 0 80c22 0 40-18 40-40 0-22-18-40-40-40z" fill="#03242b"/><path d="m333 318c0 11 9 20 20 20l10-20-10-20c-11 0-20 9-20 20z" fill="#c4f5ff"/><path d="m353 298 0 40c11 0 20-9 20-20 0-11-9-20-20-20z" fill="#4de1ff"/></g></svg>
