<svg xmlns="http://www.w3.org/2000/svg" viewBox="0 0 300 300" width="300" height="300"><style>  .a{fill:#fff;}.b{fill:#fff2d4;}</style><g transform="scale(0.65217391 0.65217391)"><path d="M445 148C412 61 328 0 230 0 103 0 0 103 0 230 0 328 61 412 148 445L445 148Z" fill="#ffae46"/><path d="m460 230c0-29-5-57-15-82l-66-66-297 297 66 66C173 455 201 460 230 460 357 460 460 357 460 230Z" fill="#fe843f"/><path d="M379 82C352 74 325 71 298 72l-44 5c-43 9-83 30-115 62-33 33-54 74-62 118l-5 41c-1 27 2 54 10 80L237 237 379 82Z" fill="#db3916"/><path d="m379 82c7 27 11 54 10 80l-5 44c-9 43-30 83-62 115-33 33-74 54-118 62l-41 5c-27 1-54-2-80-10L379 82Z" fill="#6e1d0b"/><path d="M318 142 254 77c15-3 29-5 44-5l45 45-5 19-19 5z" class="a"/><path d="M142 318 77 254c-3 15-5 29-5 44l45 45 19-5 5-19z" class="a"/><polygon points="187 259 173 245 159 259 180 280 194 280 280 194 280 180 259 159 245 173 259 187 230 216 216 202 202 216 216 230 " class="a"/><path d="m318 142 65 65c3-14 5-29 5-44l-45-45-25 25z" class="b"/><rect x="188" y="269" transform="matrix(-0.7071 0.7071 -0.7071 -0.7071 537.7219 344.7755)" width="20" height="30" class="b"/><rect x="231" y="226" transform="matrix(-0.7071 0.7071 -0.7071 -0.7071 580.8713 240.6088)" width="20" height="30" class="b"/><rect x="274" y="183" transform="matrix(-0.7071 0.7071 -0.7071 -0.7071 624.0183 136.443)" width="20" height="30" class="b"/><path d="m142 318 65 65c-14 3-29 5-44 5l-45-45 25-25z" class="b"/></g></svg>
