<svg xmlns="http://www.w3.org/2000/svg" viewBox="0 0 300 300" width="300" height="300"><style>.a{fill:#fe843f;}.b{fill:#ffe278;}.c{fill:#ffc85f;}.d{fill:#ffae46;}</style><style>    .a{fill:#fe843f;}.b{fill:#ffe278;}.c{fill:#ffc85f;}.d{fill:#ffae46;}</style><circle cx="150" cy="150" r="150" fill="#db3916"/><path d="m300 150c0-10-1-20-3-30L248 70 46 239 98 291C114 297 132 300 150 300c83 0 150-67 150-150z" fill="#6e1d0b"/><rect class="a" height="102" width="160" y="103" x="70" class="a"/><rect class="b" height="102" width="26" y="103" x="59" class="b"/><rect class="b" height="102" width="26" y="103" x="111" class="b"/><rect class="c" height="102" width="26" y="103" x="163" class="c"/><rect class="c" height="102" width="26" y="103" x="215" class="c"/><polygon class="d" points="70 336 80 336 230 336 240 351 230 366 70 366 " transform="scale(0.65217391 0.65217391)" class="d"/><polygon class="c" points="230 306 240 321 230 336 80 336 80 306 " transform="scale(0.65217391 0.65217391)" class="c"/><polygon class="c" points="230 148 240 158 230 168 80 168 80 148 " transform="scale(0.65217391 0.65217391)" class="c"/><polygon class="b" points="230 68 240 108 230 148 80 148 80 108 " transform="scale(0.65217391 0.65217391)" class="b"/><rect class="d" height="13" width="98" y="97" x="150" class="d"/><polygon class="c" points="230 148 230 68 380 108 380 148 " transform="scale(0.65217391 0.65217391)" class="c"/><polygon class="a" points="390 336 390 366 230 366 230 336 380 336 " transform="scale(0.65217391 0.65217391)" class="a"/><rect class="d" height="20" width="98" y="200" x="150" class="d"/></svg>
