<svg xmlns="http://www.w3.org/2000/svg" viewBox="0 0 300 300" width="300" height="300"><circle cx="150" cy="150" r="150" fill="#5e4534"/><path d="M299 145 235.6 82.6 94.6 187.2 198.3 290.9C257.7 271.8 299 214.4 299 150c0-1 0-3 0-4z" fill="#443124"/><path d="m50.3 117.8c0-28.2 22.1-50.3 50.3-50.3 28.2 0 50.3 22.1 50.3 50.3 0-28.2 22.1-50.3 50.3-50.3 28.2 0 50.3 22.1 50.3 50.3 0 52.3-100.7 117.8-100.7 117.8 0 0-100.7-64.4-100.7-117.8z" fill="#f86e51"/><path d="m251.7 117.8c0-28.2-22.1-50.3-50.3-50.3-26.2 0-47.3 19.1-50.3 44.3l0 122.8c7-4 100.7-66.4 100.7-116.8z" fill="#dd5c47"/><path d="m159.1 192.3c-3 0-5-2-7-4l-27.2-53.4-10.1 20.1c-1 3-4 4-7 4l-67.4 0c-4 0-8.1-3-8.1-8.1 0-4 3-8.1 8.1-8.1l62.4 0 15.1-29.2c1-3 4-4 7-4 3 0 5 2 7 4l27.2 53.4 10.1-20.1c1-3 4-4 7-4l83.6 0c4 0 8.1 3 8.1 8.1 0 4-3 8.1-8.1 8.1l-79.5 0-15.1 29.2c-1 3-4 4-7 4z" fill="#fff"/><path d="m259.7 143-83.6 0c-3 0-5 2-7 4l-10.1 20.1-8.1-16.1 0 34.2 1 2c1 3 4 4 7 4 3 0 5-2 7-4l15.1-28.2 79.5 0c4 0 8.1-3 8.1-8.1 0-4-3-8.1-8.1-8.1z" fill="#edeceb"/></svg>
