<svg xmlns="http://www.w3.org/2000/svg" viewBox="0 0 300 300" width="300" height="300"><style>  .a{fill:#1a6fb0;}.b{fill:#ebe5dd;}.c{fill:#d9ccbc;}</style><style>    .a{fill:#1a6fb0;}.b{fill:#ebe5dd;}.c{fill:#d9ccbc;}</style><polygon points="248 70 248 0 0 0 0 495 248 495 248 425 70 425 70 70 " transform="scale(0.60606061 0.60606061)" fill="#3d9ae2"/><polygon class="a" points="425 70 425 425 248 425 248 495 495 495 495 0 248 0 248 70 " transform="scale(0.60606061 0.60606061)"/><rect class="b" height="35" width="25" y="109" x="125"/><path class="c" d="m175 127c0-10-8-17-17-17l-8 0 0 35 8 0c10 0 18-8 18-17z"/><path class="c" d="m158 85c23 0 42 19 42 42 0 23-19 42-42 42l-8 0 0 89 108 0 0-215-108 0 0 42 8 0z"/><rect width="108" height="215" x="42" y="42" fill="#ebe5dd"/><path class="a" d="m200 127c0-23-19-42-42-42l-57 0 0 130 24 0 0-47 33 0c23 0 42-19 42-42zM125 144l0-35 33 0c10 0 18 8 18 18 0 10-8 18-17 18l-33 0z"/></svg>
