<svg xmlns="http://www.w3.org/2000/svg" viewBox="0 0 300 300" width="300" height="300"><style>.a{fill:#ffd170;}.b{fill:#0c8faa;}.c{fill:#2db8d4;}.d{fill:#096c80;}.e{fill:#ffe1a0;}.f{fill:#064855;}.g{fill:#ff984c;}.h{fill:#4de1ff;}</style><path d="M150 0C67 0 0 67 0 150 0 214 40 269 97 290L290 95C268 40 214 0 150 0Z" fill="#aa1106"/><path d="m300 150c0-19-4-38-10-55l-45-45 0 58-16 13L188 81 118 112 55 50l0 58-16 13 17 17-11 101 51 51C113 297 131 300 150 300c83 0 150-67 150-150z" fill="#550803"/><rect height="34" width="13" y="49" x="143" class="a"/><rect height="39" width="91" y="135" x="150" class="b"/><rect height="39" width="91" y="135" x="59" class="c"/><path d="M204 119 150 119 150 65c30 0 54 24 54 54z" class="d"/><path d="m150 65 0 54-54 0C96 89 120 65 150 65Z" class="b"/><polygon points="313 267 220 267 230 182 313 182 " transform="scale(0.65217391 0.65217391)" class="a"/><rect height="55" width="54" y="119" x="96" class="e"/><path d="M176 161 150 161 150 135c14 0 26 12 26 26z" class="f"/><path d="m150 135 1 26-27 0C124 147 136 135 150 135Z" class="d"/><path d="m111 150-15 8-15-8c0-8 7-15 15-15 8 0 15 7 15 15z" class="d"/><rect height="24" width="29" y="150" x="82" class="a"/><path d="m189 150 15 8 15-8c0-8-7-15-15-15-8 0-15 7-15 15z" class="f"/><rect height="24" width="29" y="150" x="189" class="g"/><polygon points="220 307 230 247 370 247 370 307 " transform="scale(0.65217391 0.65217391)" class="c"/><rect height="39" width="91" y="161" x="59" class="h"/><polygon points="230 287 260 287 270 297 280 287 310 287 320 297 330 287 380 287 360 367 330 367 320 357 310 367 280 367 270 357 260 367 230 367 210 327 " transform="scale(0.65217391 0.65217391)" class="g"/><polygon points="130 287 140 297 150 287 180 287 190 297 200 287 230 287 230 367 200 367 190 357 180 367 150 367 140 357 130 367 100 367 80 287 " transform="scale(0.65217391 0.65217391)" class="a"/><polygon points="100 127 85 117 70 127 70 367 100 367 " transform="scale(0.65217391 0.65217391)" fill="#c4f5ff"/><polygon points="70 127 100 127 85 77 " transform="scale(0.65217391 0.65217391)" class="b"/><rect height="13" width="33" y="108" x="39" class="h"/><polygon points="360 127 375 117 390 127 390 367 360 367 " transform="scale(0.65217391 0.65217391)" fill="#89ebff"/><polygon points="390 127 360 127 375 77 " transform="scale(0.65217391 0.65217391)" class="d"/><rect height="13" width="33" y="108" x="228" class="c"/><rect height="52" width="13" y="187" x="117" class="e"/><rect height="52" width="13" y="187" x="85" class="e"/><rect height="52" width="13" y="187" x="170" class="a"/><rect height="52" width="13" y="187" x="202" class="a"/></svg>
