<?xml version="1.0" encoding="UTF-8" standalone="no"?>
<!-- Created with Inkscape (http://www.inkscape.org/) -->

<svg
   xmlns:dc="http://purl.org/dc/elements/1.1/"
   xmlns:cc="http://creativecommons.org/ns#"
   xmlns:rdf="http://www.w3.org/1999/02/22-rdf-syntax-ns#"
   xmlns:svg="http://www.w3.org/2000/svg"
   xmlns="http://www.w3.org/2000/svg"
   xmlns:sodipodi="http://sodipodi.sourceforge.net/DTD/sodipodi-0.dtd"
   xmlns:inkscape="http://www.inkscape.org/namespaces/inkscape"
   width="300"
   height="300"
   viewBox="0 0 300 300"
   id="svg3487"
   version="1.1"
   inkscape:version="0.91 r13725"
   inkscape:export-filename="C:\Users\Kerst\Desktop\path3495.png"
   inkscape:export-xdpi="90"
   inkscape:export-ydpi="90"
   sodipodi:docname="public_transport_rail_nonatocstation.svg">
  <defs
     id="defs3489">
    <inkscape:perspective
       inkscape:persp3d-origin="290 : 193.33333 : 1"
       id="perspective2441"
       sodipodi:type="inkscape:persp3d"
       inkscape:vp_x="0 : 289.99999 : 1"
       inkscape:vp_y="0 : 999.99998 : 0"
       inkscape:vp_z="580 : 290 : 1" />
    <inkscape:perspective
       inkscape:persp3d-origin="30 : 20 : 1"
       id="perspective3452"
       sodipodi:type="inkscape:persp3d"
       inkscape:vp_x="0 : 29.999999 : 1"
       inkscape:vp_y="0 : 999.99998 : 0"
       inkscape:vp_z="60 : 30 : 1" />
    <inkscape:perspective
       inkscape:persp3d-origin="372.04724 : 350.78738 : 1"
       id="perspective4471"
       sodipodi:type="inkscape:persp3d"
       inkscape:vp_x="0 : 526.18108 : 1"
       inkscape:vp_y="0 : 999.99998 : 0"
       inkscape:vp_z="744.09448 : 526.18108 : 1" />
    <inkscape:perspective
       inkscape:persp3d-origin="6 : 3.9999999 : 1"
       id="perspective4668"
       sodipodi:type="inkscape:persp3d"
       inkscape:vp_x="0 : 5.9999999 : 1"
       inkscape:vp_y="0 : 999.99998 : 0"
       inkscape:vp_z="12 : 5.9999999 : 1" />
    <inkscape:perspective
       inkscape:persp3d-origin="16 : 10.666667 : 1"
       id="perspective4904"
       sodipodi:type="inkscape:persp3d"
       inkscape:vp_x="0 : 16 : 1"
       inkscape:vp_y="0 : 999.99998 : 0"
       inkscape:vp_z="32 : 16 : 1" />
    <inkscape:perspective
       inkscape:persp3d-origin="8 : 5.3333333 : 1"
       id="perspective3435"
       sodipodi:type="inkscape:persp3d"
       inkscape:vp_x="0 : 8 : 1"
       inkscape:vp_y="0 : 1000 : 0"
       inkscape:vp_z="16 : 8 : 1" />
    <inkscape:perspective
       inkscape:persp3d-origin="8 : 5.3333333 : 1"
       id="perspective3435-5"
       sodipodi:type="inkscape:persp3d"
       inkscape:vp_x="0 : 8 : 1"
       inkscape:vp_y="0 : 1000 : 0"
       inkscape:vp_z="16 : 8 : 1" />
    <inkscape:perspective
       inkscape:persp3d-origin="8 : 5.3333333 : 1"
       id="perspective3435-7"
       sodipodi:type="inkscape:persp3d"
       inkscape:vp_x="0 : 8 : 1"
       inkscape:vp_y="0 : 1000 : 0"
       inkscape:vp_z="16 : 8 : 1" />
    <inkscape:perspective
       inkscape:persp3d-origin="290 : 193.33333 : 1"
       id="perspective2441-0"
       sodipodi:type="inkscape:persp3d"
       inkscape:vp_x="0 : 290 : 1"
       inkscape:vp_y="0 : 1000 : 0"
       inkscape:vp_z="580 : 290 : 1" />
    <inkscape:perspective
       inkscape:persp3d-origin="30 : 20 : 1"
       id="perspective3452-9"
       sodipodi:type="inkscape:persp3d"
       inkscape:vp_x="0 : 30 : 1"
       inkscape:vp_y="0 : 1000 : 0"
       inkscape:vp_z="60 : 30 : 1" />
    <inkscape:perspective
       inkscape:persp3d-origin="372.04724 : 350.78739 : 1"
       id="perspective4471-9"
       sodipodi:type="inkscape:persp3d"
       inkscape:vp_x="0 : 526.18109 : 1"
       inkscape:vp_y="0 : 1000 : 0"
       inkscape:vp_z="744.09448 : 526.18109 : 1" />
    <inkscape:perspective
       inkscape:persp3d-origin="6 : 4 : 1"
       id="perspective4668-5"
       sodipodi:type="inkscape:persp3d"
       inkscape:vp_x="0 : 6 : 1"
       inkscape:vp_y="0 : 1000 : 0"
       inkscape:vp_z="12 : 6 : 1" />
    <inkscape:perspective
       inkscape:persp3d-origin="16 : 10.666667 : 1"
       id="perspective4904-7"
       sodipodi:type="inkscape:persp3d"
       inkscape:vp_x="0 : 16 : 1"
       inkscape:vp_y="0 : 1000 : 0"
       inkscape:vp_z="32 : 16 : 1" />
    <inkscape:perspective
       inkscape:persp3d-origin="16 : 10.666667 : 1"
       id="perspective5233"
       sodipodi:type="inkscape:persp3d"
       inkscape:vp_x="0 : 16 : 1"
       inkscape:vp_y="0 : 1000 : 0"
       inkscape:vp_z="32 : 16 : 1" />
    <inkscape:perspective
       inkscape:persp3d-origin="250 : 166.66667 : 1"
       id="perspective5412"
       sodipodi:type="inkscape:persp3d"
       inkscape:vp_x="0 : 250 : 1"
       inkscape:vp_y="0 : 1000 : 0"
       inkscape:vp_z="500 : 250 : 1" />
    <inkscape:perspective
       inkscape:persp3d-origin="202.85715 : 136.19048 : 1"
       id="perspective5571"
       sodipodi:type="inkscape:persp3d"
       inkscape:vp_x="0 : 204.28572 : 1"
       inkscape:vp_y="0 : 1000 : 0"
       inkscape:vp_z="405.71429 : 204.28572 : 1" />
    <inkscape:perspective
       inkscape:persp3d-origin="64 : 42.666667 : 1"
       id="perspective6552"
       sodipodi:type="inkscape:persp3d"
       inkscape:vp_x="0 : 64 : 1"
       inkscape:vp_y="0 : 1000 : 0"
       inkscape:vp_z="128 : 64 : 1" />
    <inkscape:perspective
       inkscape:persp3d-origin="238.5 : 114.33333 : 1"
       id="perspective8761"
       sodipodi:type="inkscape:persp3d"
       inkscape:vp_x="0 : 171.5 : 1"
       inkscape:vp_y="0 : 1000 : 0"
       inkscape:vp_z="477 : 171.5 : 1" />
    <inkscape:perspective
       inkscape:persp3d-origin="52.830002 : 33.539668 : 1"
       id="perspective10479"
       sodipodi:type="inkscape:persp3d"
       inkscape:vp_x="0 : 50.309502 : 1"
       inkscape:vp_y="0 : 1000 : 0"
       inkscape:vp_z="105.66 : 50.309502 : 1" />
    <inkscape:perspective
       inkscape:persp3d-origin="223.9745 : 153.55566 : 1"
       id="perspective10853"
       sodipodi:type="inkscape:persp3d"
       inkscape:vp_x="0 : 230.3335 : 1"
       inkscape:vp_y="0 : 1000 : 0"
       inkscape:vp_z="447.94901 : 230.3335 : 1" />
    <inkscape:perspective
       inkscape:persp3d-origin="370 : 120 : 1"
       id="perspective10973"
       sodipodi:type="inkscape:persp3d"
       inkscape:vp_x="0 : 180 : 1"
       inkscape:vp_y="0 : 1000 : 0"
       inkscape:vp_z="740 : 180 : 1" />
    <inkscape:perspective
       inkscape:persp3d-origin="290 : 193.33333 : 1"
       id="perspective2441-2"
       sodipodi:type="inkscape:persp3d"
       inkscape:vp_x="0 : 290 : 1"
       inkscape:vp_y="0 : 1000 : 0"
       inkscape:vp_z="580 : 290 : 1" />
    <inkscape:perspective
       inkscape:persp3d-origin="30 : 20 : 1"
       id="perspective3452-4"
       sodipodi:type="inkscape:persp3d"
       inkscape:vp_x="0 : 30 : 1"
       inkscape:vp_y="0 : 1000 : 0"
       inkscape:vp_z="60 : 30 : 1" />
    <inkscape:perspective
       inkscape:persp3d-origin="372.04724 : 350.78739 : 1"
       id="perspective4471-6"
       sodipodi:type="inkscape:persp3d"
       inkscape:vp_x="0 : 526.18109 : 1"
       inkscape:vp_y="0 : 1000 : 0"
       inkscape:vp_z="744.09448 : 526.18109 : 1" />
    <inkscape:perspective
       inkscape:persp3d-origin="6 : 4 : 1"
       id="perspective4668-57"
       sodipodi:type="inkscape:persp3d"
       inkscape:vp_x="0 : 6 : 1"
       inkscape:vp_y="0 : 1000 : 0"
       inkscape:vp_z="12 : 6 : 1" />
    <inkscape:perspective
       inkscape:persp3d-origin="225 : 120 : 1"
       id="perspective2469"
       sodipodi:type="inkscape:persp3d"
       inkscape:vp_x="0 : 180 : 1"
       inkscape:vp_y="0 : 1000 : 0"
       inkscape:vp_z="450 : 180 : 1" />
  </defs>
  <sodipodi:namedview
     id="base"
     pagecolor="#ffffff"
     bordercolor="#666666"
     borderopacity="1.0"
     inkscape:pageopacity="0.0"
     inkscape:pageshadow="2"
     inkscape:zoom="1"
     inkscape:cx="108.20389"
     inkscape:cy="109.2558"
     inkscape:document-units="px"
     inkscape:current-layer="layer1"
     showgrid="true"
     inkscape:window-width="1536"
     inkscape:window-height="801"
     inkscape:window-x="-8"
     inkscape:window-y="-8"
     inkscape:window-maximized="1"
     units="px">
    <inkscape:grid
       type="xygrid"
       id="grid4166" />
  </sodipodi:namedview>
  <metadata
     id="metadata3492">
    <rdf:RDF>
      <cc:Work
         rdf:about="">
        <dc:format>image/svg+xml</dc:format>
        <dc:type
           rdf:resource="http://purl.org/dc/dcmitype/StillImage" />
        <dc:title></dc:title>
      </cc:Work>
    </rdf:RDF>
  </metadata>
  <g
     inkscape:label="Layer 1"
     inkscape:groupmode="layer"
     id="layer1"
     transform="translate(0,-752.36216)">
    <circle
       style="fill:#ff2a7f;fill-rule:evenodd;stroke:none;stroke-width:1px;stroke-linecap:butt;stroke-linejoin:miter;stroke-opacity:1"
       id="path3495"
       cx="150"
       cy="902.36218"
       r="150" />
    <g
       id="g3501"
       transform="matrix(0.41756236,0,0,0.41756236,27.614415,781.05716)"
       style="fill:#000000">
      <g
         display="none"
         inkscape:label="Layout"
         transform="matrix(48.14969,0,0,48.14969,-536.27327,-33.306752)"
         id="layer3"
         style="display:none;fill:#000000">
        <rect
           height="10"
           width="10"
           display="inline"
           y="1"
           x="1"
           id="rect4134"
           style="display:inline;fill:#000000;stroke:#757575;stroke-width:0.24190424" />
        <rect
           height="8"
           width="8"
           display="inline"
           y="2"
           x="2"
           id="rect4136"
           style="display:inline;fill:#000000;stroke:#757575;stroke-width:0.24190424" />
      </g>
      <path
         id="path3490"
         d="m 565.453,347.664 0,-22.279 -3.158,-1.006 C 453.714,289.791 377.457,220.073 335.667,117.219 326.868,94.664 309.641,81.405 287.157,79.883 l -0.153,-0.01 -193.65,0 c -14.958,0 -21.598,13.604 -25.165,20.913 l -0.111,0.247 c -3.361,8.078 -6.756,15.828 -10.04,23.322 -14.707,33.569 -28.599,65.276 -34.218,115.414 l -0.026,0.356 c -0.296,9.023 -0.625,18.031 -0.954,27.039 -1.204,33.011 -2.45,67.146 -2.013,101.546 0,13.318 7.354,30.636 19.191,45.194 12.751,15.683 27.543,24.678 40.584,24.678 l 484.851,0 0,-56.27 -2.86,-0.699 0,-34.499 2.86,0.55 z M 285.074,318.397 c 0,9.756 -7.937,17.692 -17.693,17.692 -9.756,0 -17.693,-7.937 -17.693,-17.692 0,-9.43 7.373,-17.189 16.79,-17.665 l 0.144,-0.003 0.759,0.009 c 9.756,-10e-4 17.693,7.921 17.693,17.659 z m -202.066,-17.665 0.144,-0.003 0.759,0.009 c 9.756,0 17.693,7.922 17.693,17.659 0,4.724 -1.841,9.166 -5.184,12.509 -3.343,3.343 -7.786,5.184 -12.509,5.184 -9.756,0 -17.693,-7.937 -17.693,-17.692 0,-9.431 7.373,-17.191 16.79,-17.666 z M 61.947,197.711 c -1.042,-0.52 -3.049,-5.817 -1.323,-13.166 3.967,-7.907 8.121,-18.337 12.141,-28.43 3.777,-9.484 7.682,-19.291 11.323,-26.715 4.897,-9.984 7.382,-11.612 7.896,-11.856 l 186.804,0 c 0.031,0 3.206,0.151 8.988,13.245 4.057,9.186 7.875,21.134 11.567,32.688 2.406,7.527 4.678,14.637 6.856,20.461 2.055,5.608 0.283,12.749 -1.166,13.756 l -243.086,0.017 z m 294.957,27.294 c 1.997,2.089 3.996,4.215 5.966,6.311 8.676,9.225 17.623,18.739 25.966,24.745 l 0,71.364 -28.226,-12.93 c -2.813,-28.541 -3.443,-56.802 -3.706,-89.49 z m 61.993,79.806 c 0.092,-6.268 0.193,-13.175 0.195,-22.701 5.986,4.678 10.605,7.74 15.418,10.931 3.182,2.109 6.457,4.281 10.312,7.043 l 0.47,53.03 -26.297,-11.021 c -0.389,-17.589 -0.254,-26.754 -0.098,-37.282 z m 53.236,56.712 0,-45.962 25.496,10.396 0,42.943 c -9.893,-1.454 -18.293,-3.886 -25.496,-7.377 z m 48.865,13.572 0,-39.445 18.397,4.732 0,38.03 c -5.839,-0.43 -12.175,-1.293 -18.397,-3.317 z"
         stroke-width="param(outline-width)"
         stroke-opacity="param(outline-opacity)"
         stroke="param(outline)"
         fill-opacity="param(fill-opacity)"
         inkscape:connector-curvature="0"
         style="fill:#000000" />
      <path
         id="path3492"
         d="m 242.914,468.335 -101.867,0 0,-22.847 -69.507,0 0,23.123 -46.143,0 -0.069,32.531 324.725,0 c 45.694,-20.581 125.525,-46.529 210.866,-50.119 l 0,-5.604 -318.005,0 0,22.916 z"
         stroke-width="param(outline-width)"
         stroke-opacity="param(outline-opacity)"
         stroke="param(outline)"
         fill-opacity="param(fill-opacity)"
         inkscape:connector-curvature="0"
         style="fill:#000000" />
    </g>
  </g>
</svg>
