<?xml version="1.0" encoding="UTF-8" standalone="no"?>
<!-- Created with Inkscape (http://www.inkscape.org/) -->

<svg
   xmlns:dc="http://purl.org/dc/elements/1.1/"
   xmlns:cc="http://creativecommons.org/ns#"
   xmlns:rdf="http://www.w3.org/1999/02/22-rdf-syntax-ns#"
   xmlns:svg="http://www.w3.org/2000/svg"
   xmlns="http://www.w3.org/2000/svg"
   xmlns:sodipodi="http://sodipodi.sourceforge.net/DTD/sodipodi-0.dtd"
   xmlns:inkscape="http://www.inkscape.org/namespaces/inkscape"
   width="300"
   height="300"
   viewBox="0 0 300 300"
   id="svg3487"
   version="1.1"
   inkscape:version="0.91 r13725"
   inkscape:export-filename="C:\Users\Kerst\Desktop\path3495.png"
   inkscape:export-xdpi="90"
   inkscape:export-ydpi="90"
   sodipodi:docname="school.svg">
  <defs
     id="defs3489">
    <inkscape:perspective
       inkscape:persp3d-origin="290 : 193.33333 : 1"
       id="perspective2441"
       sodipodi:type="inkscape:persp3d"
       inkscape:vp_x="0 : 289.99999 : 1"
       inkscape:vp_y="0 : 999.99998 : 0"
       inkscape:vp_z="580 : 290 : 1" />
    <inkscape:perspective
       inkscape:persp3d-origin="30 : 20 : 1"
       id="perspective3452"
       sodipodi:type="inkscape:persp3d"
       inkscape:vp_x="0 : 29.999999 : 1"
       inkscape:vp_y="0 : 999.99998 : 0"
       inkscape:vp_z="60 : 30 : 1" />
    <inkscape:perspective
       inkscape:persp3d-origin="372.04724 : 350.78738 : 1"
       id="perspective4471"
       sodipodi:type="inkscape:persp3d"
       inkscape:vp_x="0 : 526.18108 : 1"
       inkscape:vp_y="0 : 999.99998 : 0"
       inkscape:vp_z="744.09448 : 526.18108 : 1" />
    <inkscape:perspective
       inkscape:persp3d-origin="6 : 3.9999999 : 1"
       id="perspective4668"
       sodipodi:type="inkscape:persp3d"
       inkscape:vp_x="0 : 5.9999999 : 1"
       inkscape:vp_y="0 : 999.99998 : 0"
       inkscape:vp_z="12 : 5.9999999 : 1" />
    <inkscape:perspective
       inkscape:persp3d-origin="16 : 10.666667 : 1"
       id="perspective4904"
       sodipodi:type="inkscape:persp3d"
       inkscape:vp_x="0 : 16 : 1"
       inkscape:vp_y="0 : 999.99998 : 0"
       inkscape:vp_z="32 : 16 : 1" />
    <inkscape:perspective
       inkscape:persp3d-origin="290 : 193.33333 : 1"
       id="perspective2441-4"
       sodipodi:type="inkscape:persp3d"
       inkscape:vp_x="0 : 290 : 1"
       inkscape:vp_y="0 : 1000 : 0"
       inkscape:vp_z="580 : 290 : 1" />
    <inkscape:perspective
       inkscape:persp3d-origin="30 : 20 : 1"
       id="perspective3452-6"
       sodipodi:type="inkscape:persp3d"
       inkscape:vp_x="0 : 30 : 1"
       inkscape:vp_y="0 : 1000 : 0"
       inkscape:vp_z="60 : 30 : 1" />
    <inkscape:perspective
       inkscape:persp3d-origin="372.04724 : 350.78739 : 1"
       id="perspective4471-8"
       sodipodi:type="inkscape:persp3d"
       inkscape:vp_x="0 : 526.18109 : 1"
       inkscape:vp_y="0 : 1000 : 0"
       inkscape:vp_z="744.09448 : 526.18109 : 1" />
    <inkscape:perspective
       inkscape:persp3d-origin="6 : 4 : 1"
       id="perspective4668-0"
       sodipodi:type="inkscape:persp3d"
       inkscape:vp_x="0 : 6 : 1"
       inkscape:vp_y="0 : 1000 : 0"
       inkscape:vp_z="12 : 6 : 1" />
    <inkscape:perspective
       inkscape:persp3d-origin="306.082 : 204.39034 : 1"
       id="perspective2510"
       sodipodi:type="inkscape:persp3d"
       inkscape:vp_x="0 : 306.58551 : 1"
       inkscape:vp_y="0 : 1000 : 0"
       inkscape:vp_z="612.164 : 306.58551 : 1" />
    <inkscape:perspective
       inkscape:persp3d-origin="306.082 : 204.39034 : 1"
       id="perspective2605"
       sodipodi:type="inkscape:persp3d"
       inkscape:vp_x="0 : 306.58551 : 1"
       inkscape:vp_y="0 : 1000 : 0"
       inkscape:vp_z="612.164 : 306.58551 : 1" />
    <inkscape:perspective
       inkscape:persp3d-origin="372.04724 : 350.78739 : 1"
       id="perspective2656"
       sodipodi:type="inkscape:persp3d"
       inkscape:vp_x="0 : 526.18109 : 1"
       inkscape:vp_y="0 : 1000 : 0"
       inkscape:vp_z="744.09448 : 526.18109 : 1" />
  </defs>
  <sodipodi:namedview
     id="base"
     pagecolor="#ffffff"
     bordercolor="#666666"
     borderopacity="1.0"
     inkscape:pageopacity="0.0"
     inkscape:pageshadow="2"
     inkscape:zoom="1.4142136"
     inkscape:cx="160.72567"
     inkscape:cy="129.54941"
     inkscape:document-units="px"
     inkscape:current-layer="layer1"
     showgrid="true"
     inkscape:window-width="1536"
     inkscape:window-height="801"
     inkscape:window-x="-8"
     inkscape:window-y="-8"
     inkscape:window-maximized="1"
     units="px">
    <inkscape:grid
       type="xygrid"
       id="grid4156" />
  </sodipodi:namedview>
  <metadata
     id="metadata3492">
    <rdf:RDF>
      <cc:Work
         rdf:about="">
        <dc:format>image/svg+xml</dc:format>
        <dc:type
           rdf:resource="http://purl.org/dc/dcmitype/StillImage" />
        <dc:title></dc:title>
      </cc:Work>
    </rdf:RDF>
  </metadata>
  <g
     inkscape:label="Layer 1"
     inkscape:groupmode="layer"
     id="layer1"
     transform="translate(0,-752.36216)">
    <g
       style="display:none"
       id="layer3"
       transform="matrix(22.146818,0,0,25.399142,-230.42036,724.08515)"
       inkscape:label="Layout"
       display="none">
      <rect
         style="display:inline;fill:none;stroke:#757575;stroke-width:0.1"
         id="rect4134"
         x="1"
         y="1"
         display="inline"
         width="10"
         height="10" />
      <rect
         style="display:inline;fill:none;stroke:#757575;stroke-width:0.1"
         id="rect4136"
         x="2"
         y="2"
         display="inline"
         width="8"
         height="8" />
    </g>
    <g
       id="g3414"
       transform="matrix(1.010101,0,0,1.010101,266.41497,-17.772378)">
      <g
         transform="translate(-263.04371,7.7781744)"
         id="g3408">
        <circle
           style="fill:#ffcc00;fill-rule:evenodd;stroke:none;stroke-width:1px;stroke-linecap:butt;stroke-linejoin:miter;stroke-opacity:1"
           id="path3495"
           cx="147.79289"
           cy="903.15503"
           r="148.5" />
        <g
           style="opacity:0.75"
           id="path3526"
           enable-background="new    "
           transform="matrix(0.45995765,0,0,0.52750374,19.071062,743.06881)">
          <path
             inkscape:connector-curvature="0"
             fill="param(fill)"
             fill-opacity="param(fill-opacity)"
             stroke="param(outline)"
             stroke-opacity="param(outline-opacity)"
             stroke-width="param(outline-width)"
             d="m 109.528,524.094 c -1.958,0 -3.949,-0.376 -5.871,-1.17 -7.858,-3.245 -11.597,-12.246 -8.351,-20.104 l 46.837,-113.395 64.201,-37.026 1.574,-141.631 19.781,-42.999 47.162,-111.661 c 2.698,-6.389 9.205,-10.003 15.761,-9.327 6.552,-0.679 13.051,2.932 15.754,9.312 l 43.009,101.521 -4.084,89.685 106.264,172.301 34.373,83.22 c 3.245,7.858 -0.493,16.859 -8.351,20.104 -7.856,3.244 -16.858,-0.493 -20.104,-8.351 L 424.057,433.647 314.114,255.38 318.313,163.19 290.641,97.874 255.769,180.416 238.63,217.672 236.934,370.297 166.6,410.86 123.762,514.573 c -2.452,5.936 -8.188,9.521 -14.234,9.521 z"
             id="path3354" />
        </g>
        <path
           style="fill:#0000aa"
           id="path3362"
           d="m 251.28651,822.34355 -201.346,0 c -2.60658,0 -4.720085,2.42388 -4.720085,5.41325 l 0,144.52917 c 0,2.98989 2.113505,5.41377 4.720085,5.41377 l 201.346,0 c 2.60704,0 4.72055,-2.42388 4.72055,-5.41377 l 0,-144.52917 c -4.6e-4,-2.98989 -2.11351,-5.41325 -4.72055,-5.41325 z M 89.613697,855.83793 c -0.955332,-1.06028 -2.641076,-1.59042 -5.044815,-1.59042 -3.081716,0 -5.392084,0.56073 -6.932942,1.6917 -1.201869,0.88357 -2.181119,2.55154 -2.920731,4.99019 l -17.981124,-2.18228 c 0.677977,-3.60497 1.656307,-6.44135 2.93545,-8.50917 1.278682,-2.06728 3.127712,-3.85974 5.53145,-5.37948 1.725761,-1.09563 4.089944,-1.93647 7.110026,-2.53782 3.020082,-0.60083 6.2959,-0.91364 9.809516,-0.91364 5.639541,0 10.164604,0.37506 13.58531,1.09932 3.420705,0.72479 6.274743,2.23662 8.555213,4.53389 1.60249,1.59043 2.86645,3.83443 3.79097,6.74994 0.92451,2.91604 1.38631,5.70601 1.38631,8.35672 l 0,24.8507 c 0,2.6507 0.14995,4.74015 0.44248,6.24195 0.29253,1.50233 0.93142,3.41928 1.91756,5.7519 l -17.656389,0 c -0.708795,-1.44905 -1.171053,-2.55576 -1.386773,-3.31589 -0.21572,-0.7596 -0.43328,-1.9602 -0.649,-3.5865 -2.465373,2.7214 -4.925687,4.66999 -7.360702,5.83631 -3.328254,1.55508 -7.186839,2.33473 -11.594153,2.33473 -5.855261,0 -10.298912,-1.55878 -13.334632,-4.66894 -3.035721,-3.11016 -4.55818,-6.94459 -4.55818,-11.5038 0,-4.27647 1.101598,-7.79914 3.289157,-10.55588 2.188018,-2.75673 6.224147,-4.79764 12.110225,-6.1412 7.05713,-1.62576 11.62267,-2.76306 13.718237,-3.41717 2.095567,-0.6541 4.324981,-1.51129 6.667546,-2.57158 4.6e-4,-2.64859 -0.474677,-4.5033 -1.430009,-5.56358 z m 62.616333,49.31211 c 2.3881,-1.13097 5.02412,-1.69118 7.92139,-1.69171 5.97853,5.3e-4 10.92538,2.46239 14.83916,7.39349 3.91378,4.93005 5.8709,12.00599 5.8709,21.22992 0,6.15017 -0.89738,11.57396 -2.68478,16.25714 -1.78739,4.68318 -4.26104,8.17367 -7.41957,10.48888 -3.15853,2.31522 -6.66479,3.48416 -10.51694,3.48416 -3.29789,0 -6.31429,-0.82659 -9.05702,-2.45236 -2.06475,-1.27234 -4.30612,-3.65718 -6.74068,-7.15559 l 0,8.32296 -17.61224,0 0,-77.71608 18.99901,0 0,26.93171 c 1.87893,-2.26247 4.01267,-3.96103 6.40077,-5.09252 z m 52.08469,-22.92162 c 1.91066,2.4033 4.3581,3.62025 7.31654,3.62025 2.46538,0 4.53059,-0.73323 6.20989,-2.18228 1.67931,-1.44905 2.94373,-3.67775 3.77625,-6.68189 l 17.87764,2.33473 c -0.98615,4.27648 -2.60336,7.98641 -4.85302,11.11451 -2.24965,3.12757 -5.11656,5.55936 -8.61454,7.29115 -3.49798,1.7318 -7.94163,2.58846 -13.33463,2.58846 -5.20811,0 -9.54275,-0.56126 -13.00991,-1.67482 -3.46716,-1.11356 -6.45734,-2.90496 -8.95353,-5.39636 -2.49665,-2.4914 -4.45331,-5.42221 -5.8709,-8.77978 -1.41805,-3.35756 -2.12409,-7.81496 -2.12409,-13.3643 0,-5.79621 0.85506,-10.61127 2.58129,-14.46363 1.26304,-2.82742 2.98926,-5.3684 5.17728,-7.6124 2.18802,-2.24453 4.44457,-3.91197 6.75586,-5.0076 3.6677,-1.73179 8.36985,-2.60534 14.10184,-2.60534 8.01246,0 14.1138,1.65267 18.32011,4.93955 4.20677,3.28687 7.17028,8.08663 8.86523,14.41298 l -17.71573,2.70662 c -0.55471,-2.4033 -1.56064,-4.21106 -3.02376,-5.43012 -1.46405,-1.21959 -3.43497,-1.82675 -5.90034,-1.82675 -3.11299,0 -5.6262,1.27762 -7.55251,3.84023 -1.9263,2.56261 -2.89083,6.44346 -2.89083,11.63884 4.6e-4,4.62832 0.95119,8.13411 2.86186,10.53795 z"
           stroke-width="param(outline-width)"
           stroke-opacity="param(outline-opacity)"
           stroke="param(outline)"
           fill-opacity="param(fill-opacity)"
           inkscape:connector-curvature="0" />
      </g>
      <path
         inkscape:connector-curvature="0"
         fill-opacity="param(fill-opacity)"
         stroke="param(outline)"
         stroke-opacity="param(outline-opacity)"
         stroke-width="param(outline-width)"
         d="m -189.47609,885.5943 c -1.04779,1.16631 -1.5634,2.49087 -1.5634,3.9758 0,1.69645 0.51653,3.08326 1.54868,4.16147 1.0326,1.07822 2.53988,1.62419 4.543,1.62419 2.09557,0 4.05315,-0.59344 5.85618,-1.75923 1.80257,-1.16631 3.07988,-2.58424 3.83513,-4.26328 0.75525,-1.67905 1.13563,-3.8608 1.13563,-6.54685 l 0,-3.45093 c -2.58864,1.06028 -5.29365,1.99555 -8.09801,2.8079 -3.82133,1.16631 -6.24025,2.31996 -7.25721,3.45093 z"
         id="path3360"
         style="fill:#0000aa" />
      <path
         inkscape:connector-curvature="0"
         fill-opacity="param(fill-opacity)"
         stroke="param(outline)"
         stroke-opacity="param(outline-opacity)"
         stroke-width="param(outline-width)"
         d="m -110.02332,951.73216 c 1.58685,2.17385 3.58399,3.26472 6.01808,3.26472 2.24965,0 4.138691,-1.07558 5.663911,-3.21408 1.52522,-2.1385 2.30117,-5.73871 2.30117,-10.79272 0,-4.45319 -0.74743,-7.70947 -2.2423,-9.79469 -1.4944,-2.08522 -3.316281,-3.13021 -5.442661,-3.13021 -2.55829,0 -4.63638,1.07453 -6.25451,3.24837 -1.61813,2.17331 -2.43409,5.47813 -2.43409,9.89597 9.2e-4,4.84248 0.80308,8.34933 2.3904,10.52264 z"
         id="path3358"
         style="fill:#0000aa" />
    </g>
  </g>
</svg>
