<svg xmlns="http://www.w3.org/2000/svg" viewBox="0 0 300 300" width="300" height="300"><style>.a{fill:#7fb21e;}.b{fill:#ff984c;}.c{fill:#ff6e36;}.d{fill:#ff5347;}.e{fill:#fff;}.f{fill:#ff1909;}.g{fill:#aa1106;}.h{fill:#064855;}</style><g transform="scale(0.65217391 0.65217391)"><circle cx="230" cy="230" r="230" class="a"/><path d="M188.8 456.3 456 273.1C458.6 259.1 460 244.7 460 230 460 103 357 0 230 0 103 0 0 103 0 230 0 343 81.4 436.9 188.8 456.3Z" class="a"/><path d="M456 273.1 240.4 57.5 50 317.5 188.8 456.3C202.2 458.7 215.9 460 230 460 342.3 460 435.8 379.5 456 273.1Z" fill="#557714"/><polygon points="130.4 57.5 130.4 87.5 194.4 97.5 184.4 57.5 " fill="#ffc240"/><polygon points="240.4 57.5 184.4 57.5 184.4 97.5 240.4 87.5 " class="b"/><polygon points="104.4 87.5 104.4 132.5 194.4 132.5 184.4 87.5 " class="b"/><rect x="186.4" y="87.5" width="78" height="45" class="c"/><rect x="144.4" y="47.5" width="20" height="85" class="c"/><rect x="204.4" y="47.5" width="20" height="85" class="d"/><polygon points="50 287.5 40 287.5 40 267.5 50 267.5 60 277.5 " class="c"/><polygon points="420 287.5 410 272.5 420 257.5 430 257.5 430 287.5 " class="e"/><polygon points="50 297.5 184.4 304.8 194.4 213.6 184.4 122.5 76.3 122.5 50 237.5 " class="d"/><polygon points="292.5 122.5 184.4 122.5 184.4 304.8 235 307.5 420 297.5 420 237.5 312.5 210 " class="f"/><polygon points="194.4 210 292 210 276.6 142.5 194.4 142.5 " fill="#fff0cf"/><polygon points="174.4 142.5 92.2 142.5 76.8 210 174.4 210 " class="e"/><polygon points="195 307.5 185 297.5 50 297.5 50 317.5 185 317.5 " class="f"/><rect x="185" y="297.5" width="235" height="20" class="g"/><path d="m117.5 257.5c-33.1 0-60 26.9-60 60l120 0c0-33.1-26.9-60-60-60z" class="f"/><path d="m352.5 257.5c-33.1 0-60 26.9-60 60l120 0c0-33.1-26.9-60-60-60z" class="g"/><path d="m77.5 317.5c0 22.1 17.9 40 40 40l10-40-10-40c-22.1 0-40 17.9-40 40z" fill="#096c80"/><path d="m117.5 277.5 0 80c22.1 0 40-17.9 40-40 0-22.1-17.9-40-40-40z" class="h"/><path d="m97.5 317.5c0 11 9 20 20 20l10-20-10-20c-11 0-20 9-20 20z" class="e"/><path d="m117.5 297.5 0 40c11 0 20-9 20-20 0-11-9-20-20-20z" fill="#89ebff"/><path d="m312.5 317.5c0 22.1 17.9 40 40 40l10-40-10-40c-22.1 0-40 17.9-40 40z" class="h"/><path d="m352.5 277.5 0 80c22.1 0 40-17.9 40-40 0-22.1-17.9-40-40-40z" fill="#03242b"/><path d="m332.5 317.5c0 11 9 20 20 20l10-20-10-20c-11 0-20 9-20 20z" fill="#c4f5ff"/><path d="m352.5 297.5 0 40c11 0 20-9 20-20 0-11-9-20-20-20z" fill="#4de1ff"/></g></svg>
