<svg xmlns="http://www.w3.org/2000/svg" viewBox="0 0 300 300" width="300" height="300"><style>.a{fill:#fff;}.b{fill:#fff2d4;}</style><g transform="scale(0.65217391 0.65217391)"><path d="M444.9 147.9C411.8 61.4 328.1 0 230 0 103 0 0 103 0 230 0 328.1 61.4 411.8 147.9 444.9L444.9 147.9Z" fill="#ffae46"/><path d="m460 230c0-28.9-5.4-56.6-15.1-82.1l-66.4-66.4-297 297 66.4 66.4C173.4 454.6 201.1 460 230 460 357 460 460 357 460 230Z" fill="#fe843f"/><path d="M378.5 81.5C351.9 74.3 324.7 71 298.1 71.9l-44.2 5.3c-42.9 9.1-82.8 29.6-115 61.8-33 33-53.7 74.1-62.4 118.2l-4.6 41c-0.8 26.6 2.4 53.7 9.6 80.3L237.1 237.1 378.5 81.5Z" fill="#db3916"/><path d="m378.5 81.5c7.2 26.6 10.5 53.8 9.6 80.3l-5.3 44.2c-9.1 42.9-29.6 82.8-61.8 115-33 33-74.1 53.7-118.2 62.4l-41 4.6c-26.6 0.8-53.7-2.4-80.3-9.6L378.5 81.5Z" fill="#6e1d0b"/><path d="M318.4 141.6 253.9 77.2c14.5-3.1 29.3-4.8 44.2-5.3l45 45-5.3 19.4-19.4 5.3z" class="a"/><path d="M141.6 318.4 77.2 253.9c-3.1 14.5-4.8 29.3-5.3 44.2l45 45 19.4-5.3 5.3-19.4z" class="a"/><polygon points="186.9 259 172.7 244.9 158.6 259 179.8 280.2 193.9 280.2 280.2 193.9 280.2 179.8 259 158.6 244.9 172.7 259 186.9 230 215.9 215.9 201.7 201.7 215.9 215.9 230 " class="a"/><path d="m318.4 141.6 64.5 64.5c3.1-14.5 4.8-29.3 5.3-44.2l-45-45-24.7 24.7z" class="b"/><rect x="187.5" y="268.8" transform="matrix(-0.7071 0.7071 -0.7071 -0.7071 537.7219 344.7755)" width="20" height="30" class="b"/><rect x="230.6" y="225.6" transform="matrix(-0.7071 0.7071 -0.7071 -0.7071 580.8713 240.6088)" width="20" height="30" class="b"/><rect x="273.8" y="182.5" transform="matrix(-0.7071 0.7071 -0.7071 -0.7071 624.0183 136.443)" width="20" height="30" class="b"/><path d="m141.6 318.4 64.5 64.5c-14.5 3.1-29.3 4.8-44.2 5.3l-45-45 24.7-24.7z" class="b"/></g></svg>
