<?xml version="1.0" encoding="UTF-8" standalone="no"?>
<!-- Created with Inkscape (http://www.inkscape.org/) -->

<svg
   xmlns:dc="http://purl.org/dc/elements/1.1/"
   xmlns:cc="http://creativecommons.org/ns#"
   xmlns:rdf="http://www.w3.org/1999/02/22-rdf-syntax-ns#"
   xmlns:svg="http://www.w3.org/2000/svg"
   xmlns="http://www.w3.org/2000/svg"
   xmlns:sodipodi="http://sodipodi.sourceforge.net/DTD/sodipodi-0.dtd"
   xmlns:inkscape="http://www.inkscape.org/namespaces/inkscape"
   width="300"
   height="300"
   viewBox="0 0 300 300"
   id="svg3487"
   version="1.1"
   inkscape:version="0.91 r13725"
   inkscape:export-filename="C:\Users\Kerst\Desktop\path3495.png"
   inkscape:export-xdpi="90"
   inkscape:export-ydpi="90"
   sodipodi:docname="university.svg">
  <defs
     id="defs3489">
    <inkscape:perspective
       inkscape:persp3d-origin="290 : 193.33333 : 1"
       id="perspective2441"
       sodipodi:type="inkscape:persp3d"
       inkscape:vp_x="0 : 289.99999 : 1"
       inkscape:vp_y="0 : 999.99998 : 0"
       inkscape:vp_z="580 : 290 : 1" />
    <inkscape:perspective
       inkscape:persp3d-origin="30 : 20 : 1"
       id="perspective3452"
       sodipodi:type="inkscape:persp3d"
       inkscape:vp_x="0 : 29.999999 : 1"
       inkscape:vp_y="0 : 999.99998 : 0"
       inkscape:vp_z="60 : 30 : 1" />
    <inkscape:perspective
       inkscape:persp3d-origin="372.04724 : 350.78738 : 1"
       id="perspective4471"
       sodipodi:type="inkscape:persp3d"
       inkscape:vp_x="0 : 526.18108 : 1"
       inkscape:vp_y="0 : 999.99998 : 0"
       inkscape:vp_z="744.09448 : 526.18108 : 1" />
    <inkscape:perspective
       inkscape:persp3d-origin="6 : 3.9999999 : 1"
       id="perspective4668"
       sodipodi:type="inkscape:persp3d"
       inkscape:vp_x="0 : 5.9999999 : 1"
       inkscape:vp_y="0 : 999.99998 : 0"
       inkscape:vp_z="12 : 5.9999999 : 1" />
    <inkscape:perspective
       inkscape:persp3d-origin="16 : 10.666667 : 1"
       id="perspective4904"
       sodipodi:type="inkscape:persp3d"
       inkscape:vp_x="0 : 16 : 1"
       inkscape:vp_y="0 : 999.99998 : 0"
       inkscape:vp_z="32 : 16 : 1" />
    <inkscape:perspective
       inkscape:persp3d-origin="290 : 193.33333 : 1"
       id="perspective2441-7"
       sodipodi:type="inkscape:persp3d"
       inkscape:vp_x="0 : 290 : 1"
       inkscape:vp_y="0 : 1000 : 0"
       inkscape:vp_z="580 : 290 : 1" />
    <inkscape:perspective
       inkscape:persp3d-origin="30 : 20 : 1"
       id="perspective3452-5"
       sodipodi:type="inkscape:persp3d"
       inkscape:vp_x="0 : 30 : 1"
       inkscape:vp_y="0 : 1000 : 0"
       inkscape:vp_z="60 : 30 : 1" />
    <inkscape:perspective
       inkscape:persp3d-origin="372.04724 : 350.78739 : 1"
       id="perspective4471-0"
       sodipodi:type="inkscape:persp3d"
       inkscape:vp_x="0 : 526.18109 : 1"
       inkscape:vp_y="0 : 1000 : 0"
       inkscape:vp_z="744.09448 : 526.18109 : 1" />
    <inkscape:perspective
       inkscape:persp3d-origin="6 : 4 : 1"
       id="perspective4668-0"
       sodipodi:type="inkscape:persp3d"
       inkscape:vp_x="0 : 6 : 1"
       inkscape:vp_y="0 : 1000 : 0"
       inkscape:vp_z="12 : 6 : 1" />
    <inkscape:perspective
       inkscape:persp3d-origin="306.082 : 204.39034 : 1"
       id="perspective2510"
       sodipodi:type="inkscape:persp3d"
       inkscape:vp_x="0 : 306.58551 : 1"
       inkscape:vp_y="0 : 1000 : 0"
       inkscape:vp_z="612.164 : 306.58551 : 1" />
    <inkscape:perspective
       inkscape:persp3d-origin="306.082 : 204.39034 : 1"
       id="perspective2605"
       sodipodi:type="inkscape:persp3d"
       inkscape:vp_x="0 : 306.58551 : 1"
       inkscape:vp_y="0 : 1000 : 0"
       inkscape:vp_z="612.164 : 306.58551 : 1" />
    <inkscape:perspective
       inkscape:persp3d-origin="372.04724 : 350.78739 : 1"
       id="perspective2656"
       sodipodi:type="inkscape:persp3d"
       inkscape:vp_x="0 : 526.18109 : 1"
       inkscape:vp_y="0 : 1000 : 0"
       inkscape:vp_z="744.09448 : 526.18109 : 1" />
  </defs>
  <sodipodi:namedview
     id="base"
     pagecolor="#ffffff"
     bordercolor="#666666"
     borderopacity="1.0"
     inkscape:pageopacity="0.0"
     inkscape:pageshadow="2"
     inkscape:zoom="2.0000001"
     inkscape:cx="144.81818"
     inkscape:cy="146.87426"
     inkscape:document-units="px"
     inkscape:current-layer="layer1"
     showgrid="true"
     inkscape:window-width="1536"
     inkscape:window-height="801"
     inkscape:window-x="-8"
     inkscape:window-y="-8"
     inkscape:window-maximized="1"
     units="px">
    <inkscape:grid
       type="xygrid"
       id="grid4154" />
  </sodipodi:namedview>
  <metadata
     id="metadata3492">
    <rdf:RDF>
      <cc:Work
         rdf:about="">
        <dc:format>image/svg+xml</dc:format>
        <dc:type
           rdf:resource="http://purl.org/dc/dcmitype/StillImage" />
        <dc:title></dc:title>
      </cc:Work>
    </rdf:RDF>
  </metadata>
  <g
     inkscape:label="Layer 1"
     inkscape:groupmode="layer"
     id="layer1"
     transform="translate(0,-752.36216)">
    <g
       id="g3376"
       transform="matrix(1.010101,0,0,1.010101,2.8570002,-12.058413)">
      <circle
         r="148.5"
         cy="905.27637"
         cx="145.67157"
         id="path3495"
         style="fill:#71c837;fill-rule:evenodd;stroke:none;stroke-width:1px;stroke-linecap:butt;stroke-linejoin:miter;stroke-opacity:1" />
      <g
         transform="matrix(0.39143874,0,0,0.50823763,31.360671,760.94614)"
         id="g3368">
        <g
           style="display:none"
           id="layer3"
           transform="matrix(48.14969,0,0,48.14969,-536.27327,-33.306752)"
           inkscape:label="Layout"
           display="none">
          <rect
             style="display:inline;fill:none;stroke:#757575;stroke-width:0.1"
             id="rect4134"
             x="1"
             y="1"
             display="inline"
             width="10"
             height="10" />
          <rect
             style="display:inline;fill:none;stroke:#757575;stroke-width:0.1"
             id="rect4136"
             x="2"
             y="2"
             display="inline"
             width="8"
             height="8" />
        </g>
        <path
           inkscape:connector-curvature="0"
           fill="param(fill)"
           fill-opacity="param(fill-opacity)"
           stroke="param(outline)"
           stroke-opacity="param(outline-opacity)"
           stroke-width="param(outline-width)"
           d="m 564.379,145.711 c -0.496,-2.211 -2.417,-3.813 -4.682,-3.902 L 273.084,130.495 c -0.843,-0.029 -1.685,0.148 -2.441,0.528 L 22.311,255.739 c -2.06,1.035 -3.145,3.343 -2.629,5.589 0.517,2.246 2.501,3.848 4.806,3.879 l 309.486,4.15 c 0.022,0 0.045,0 0.067,0 0.805,0 1.598,-0.194 2.312,-0.566 L 561.812,151.238 c 2.009,-1.048 3.063,-3.316 2.567,-5.527 z"
           id="path3353" />
        <path
           inkscape:connector-curvature="0"
           fill="param(fill)"
           fill-opacity="param(fill-opacity)"
           stroke="param(outline)"
           stroke-opacity="param(outline-opacity)"
           stroke-width="param(outline-width)"
           d="m 469.386,220.385 c -1.538,-1.785 -4.111,-2.254 -6.18,-1.129 l -123.318,67.133 -185.646,-5.293 c -2.207,-0.068 -4.174,1.315 -4.879,3.395 l -26.833,79.282 c -0.577,1.705 -0.193,3.588 1.006,4.932 0.959,1.075 2.322,1.671 3.73,1.671 0.351,0 0.705,-0.037 1.055,-0.112 1.166,-0.252 2.401,-0.826 6.128,-2.604 14.139,-6.744 57.806,-27.583 114.475,-26.623 34.573,0.582 110.847,26.867 111.614,27.133 1.933,0.67 4.075,0.096 5.414,-1.448 0.351,-0.404 35.372,-40.612 61.807,-57.035 26.116,-16.224 87.577,-23.163 88.194,-23.231 1.845,-0.204 3.425,-1.412 4.104,-3.139 0.679,-1.727 0.348,-3.688 -0.863,-5.094 l -49.808,-57.838 z"
           id="path3355" />
        <path
           inkscape:connector-curvature="0"
           fill="param(fill)"
           fill-opacity="param(fill-opacity)"
           stroke="param(outline)"
           stroke-opacity="param(outline-opacity)"
           stroke-width="param(outline-width)"
           d="m 97.547,405.486 c 1.229,-12.576 2.897,-27.579 5.172,-45.205 2.165,-16.78 5.905,-33.92 10.156,-47.656 4.251,-13.736 10.178,-24.521 11.688,-26 3.537,-3.463 6.616,-5.202 8.625,-6.094 0.448,-0.199 0.781,-0.324 1.063,-0.438 l -30.031,0.438 c -4.19,6.984 -7.209,15.754 -10.438,26.188 -4.652,15.033 -8.59,33.048 -10.906,51 -2.208,17.115 -3.858,31.895 -5.092,44.438 -14.289,2.261 -25.402,14.169 -26.454,28.82 -0.115,0.359 -0.202,0.732 -0.233,1.125 l -4.286,53.223 c -0.011,0.137 -0.017,0.273 -0.017,0.408 0.001,2.579 1.984,4.767 4.599,4.977 0.137,0.012 0.272,0.017 0.407,0.017 2.249,0 4.199,-1.508 4.802,-3.629 l -0.188,2.335 c -0.011,0.137 -0.017,0.273 -0.017,0.408 0.001,2.579 1.984,4.767 4.599,4.977 0.137,0.012 0.272,0.017 0.407,0.017 1.094,0 2.106,-0.372 2.939,-0.983 0.398,1.826 1.797,3.357 3.739,3.81 0.381,0.089 0.763,0.132 1.139,0.132 2.271,0 4.327,-1.559 4.865,-3.866 l 1.297,-5.565 c 0.063,0.014 0.125,0.031 0.188,0.045 l -1.224,5.251 c -0.089,0.382 -0.131,0.764 -0.131,1.141 0,2.271 1.559,4.326 3.866,4.863 0.381,0.089 0.763,0.132 1.139,0.132 1.88,0 3.599,-1.078 4.445,-2.755 0.222,1.918 1.538,3.617 3.502,4.214 0.484,0.147 0.974,0.217 1.455,0.217 2.144,0 4.127,-1.39 4.782,-3.548 l 8.287,-27.288 c 7.82,-13.112 12.511,-29.813 12.511,-37.382 -0.001,-12.005 -6.753,-22.456 -16.655,-27.767 z m -11.36,81.419 c 0.044,-0.022 0.087,-0.046 0.131,-0.068 l -0.497,1.637 0.366,-1.569 z"
           id="path3357" />
      </g>
    </g>
  </g>
</svg>
