<?xml version="1.0" encoding="UTF-8" standalone="no"?>
<!-- Generator: Gravit.io -->

<svg
   style="isolation:isolate"
   viewBox="0 0 24 24"
   width="24pt"
   height="24pt"
   version="1.1"
   id="svg166"
   xmlns="http://www.w3.org/2000/svg"
   xmlns:svg="http://www.w3.org/2000/svg">
  <defs
     id="defs154">
    <clipPath
       id="_clipPath_WsnGQD829xePcOgI2xCV9cn6q1tjQBI3">
      <rect
         width="24"
         height="24"
         id="rect151"
         x="0"
         y="0" />
    </clipPath>
  </defs>
  <g
     clip-path="url(#_clipPath_WsnGQD829xePcOgI2xCV9cn6q1tjQBI3)"
     id="g164">
    <path
       d="M 11.862,5.025 C 11.805,5.042 10.659,5.404 9.315,5.825 7.971,6.247 6.634,6.668 6.342,6.76 4.684,7.279 4.771,7.246 4.749,7.369 4.719,7.524 4.778,7.578 5.074,7.67 5.203,7.71 5.589,7.832 5.933,7.939 6.277,8.047 6.651,8.164 6.764,8.198 6.875,8.233 6.968,8.266 6.968,8.273 6.968,8.278 6.938,8.332 6.9,8.39 6.622,8.831 6.449,9.398 6.385,10.078 c -0.023,0.254 -0.024,0.263 -0.071,0.296 -0.132,0.094 -0.219,0.194 -0.282,0.32 -0.064,0.13 -0.064,0.132 -0.064,0.349 0,0.219 0,0.219 0.066,0.351 0.047,0.098 0.094,0.16 0.174,0.235 l 0.109,0.101 -0.014,0.104 c -0.085,0.626 -0.13,0.958 -0.198,1.461 -0.043,0.325 -0.094,0.708 -0.113,0.852 -0.043,0.327 -0.045,0.376 -0.005,0.435 0.061,0.092 0.09,0.095 0.772,0.095 0.683,0 0.711,-0.003 0.774,-0.097 C 7.576,14.514 7.574,14.488 7.474,13.747 7.425,13.392 7.366,12.947 7.34,12.756 7.314,12.565 7.272,12.255 7.246,12.069 L 7.199,11.73 7.298,11.64 c 0.189,-0.173 0.261,-0.338 0.261,-0.6 0,-0.266 -0.091,-0.458 -0.287,-0.611 C 7.161,10.344 7.162,10.349 7.201,10.033 7.253,9.612 7.355,9.254 7.508,8.957 7.597,8.781 7.76,8.567 7.818,8.548 7.839,8.543 8.47,8.734 9.484,9.054 11.398,9.657 11.796,9.783 11.916,9.819 12.024,9.85 11.769,9.923 14.271,9.137 15.29,8.816 16.236,8.518 16.375,8.475 16.514,8.431 16.709,8.371 16.809,8.339 16.91,8.308 17.11,8.245 17.253,8.2 17.397,8.155 17.595,8.092 17.696,8.061 17.797,8.028 18.07,7.943 18.305,7.87 19.23,7.581 19.213,7.588 19.246,7.499 19.273,7.43 19.253,7.324 19.204,7.273 19.159,7.228 18.947,7.16 16.297,6.331 15.658,6.131 14.554,5.785 13.245,5.373 12.608,5.173 12.061,5.004 12.028,5.001 11.995,4.997 11.92,5.008 11.862,5.025 Z"
       fill="#ff9900"
       id="path158" />
    <path
       d="M 8.073,9.569 C 8.066,9.63 8.047,9.96 8.028,10.304 c -0.019,0.344 -0.041,0.758 -0.052,0.922 -0.021,0.403 0,0.501 0.162,0.713 0.144,0.191 0.37,0.354 0.734,0.53 0.591,0.287 1.382,0.478 2.304,0.558 0.283,0.026 1.25,0.032 1.53,0.011 1.638,-0.122 2.942,-0.626 3.251,-1.254 0.089,-0.181 0.089,-0.141 -0.001,-1.697 C 15.935,9.748 15.917,9.468 15.914,9.464 15.912,9.463 15.688,9.53 15.417,9.616 c -0.272,0.085 -0.908,0.285 -1.416,0.445 -0.791,0.248 -1.563,0.492 -1.737,0.547 -0.083,0.028 -0.309,0.039 -0.421,0.021 C 11.755,10.614 10.831,10.329 9.211,9.814 9.014,9.753 8.729,9.663 8.576,9.614 8.423,9.567 8.251,9.513 8.195,9.494 8.138,9.476 8.091,9.461 8.087,9.461 8.086,9.461 8.079,9.51 8.073,9.569 Z"
       fill="#ff9900"
       id="path160" />
  </g>
</svg>
