<?xml version="1.0" encoding="UTF-8" standalone="no"?><!-- Generator: Gravit.io --><svg xmlns="http://www.w3.org/2000/svg" xmlns:xlink="http://www.w3.org/1999/xlink" style="isolation:isolate" viewBox="0 0 24 24" width="24pt" height="24pt"><defs><clipPath id="_clipPath_buASQY9APlzd6YZNnqdqQurjs28r6TOi"><rect width="24" height="24"/></clipPath></defs><g clip-path="url(#_clipPath_buASQY9APlzd6YZNnqdqQurjs28r6TOi)"><path d=" M 18.219 16.551 C 19.896 14.836 21.02 12.588 21.02 10.02 C 21.02 5.042 16.978 1 12 1 C 7.022 1 2.98 5.042 2.98 10.02 C 2.98 12.62 4.007 14.787 5.844 16.61 L 5.844 16.61 L 11.633 23 L 18.23 16.551 L 18.219 16.551 Z " fill="rgb(67,56,113)"/><g><g><g><path d=" M 17.451 7.999 C 17.4 7.612 17.392 6.946 17.751 6.723 C 17.758 6.719 17.763 6.713 17.768 6.708 C 18.062 6.614 18.265 6.482 18.105 6.305 L 13.775 5 L 6.764 5.975 C 6.764 5.975 5.961 6.09 6.032 7.337 C 6.071 8.016 6.284 8.349 6.471 8.513 L 5.895 8.687 C 5.736 8.864 5.939 8.996 6.232 9.09 C 6.238 9.095 6.243 9.101 6.249 9.105 C 6.608 9.329 6.601 9.994 6.549 10.381 C 5.26 10.747 5.723 10.866 5.723 10.866 L 6.006 10.935 C 5.807 11.114 5.609 11.455 5.646 12.102 C 5.718 13.349 6.378 13.435 6.378 13.435 L 10.966 14.926 L 17.891 13.249 C 17.891 13.249 18.354 13.129 17.065 12.763 C 17.013 12.377 17.006 11.712 17.366 11.487 C 17.372 11.483 17.377 11.477 17.382 11.472 C 17.676 11.378 17.879 11.247 17.719 11.069 L 17.418 10.979 C 17.619 10.858 17.921 10.541 17.968 9.719 C 18 9.154 17.853 8.823 17.682 8.628 L 18.277 8.484 C 18.277 8.484 18.74 8.365 17.451 7.999 Z  M 11.658 7.983 L 12.823 7.743 L 16.759 6.935 L 17.345 6.814 C 17.158 7.157 17.165 7.626 17.196 7.928 C 17.203 7.996 17.211 8.058 17.219 8.106 L 16.577 8.265 L 11.609 9.501 L 11.658 7.983 Z  M 6.656 9.196 L 7.242 9.317 L 11.022 10.094 L 11.352 10.162 L 11.352 10.162 L 11.352 10.162 L 12.342 10.365 L 12.391 11.884 L 7.285 10.613 L 6.782 10.488 C 6.789 10.441 6.797 10.379 6.804 10.31 C 6.835 10.009 6.843 9.539 6.656 9.196 Z  M 6.428 7.277 C 6.421 6.945 6.48 6.705 6.599 6.583 C 6.675 6.505 6.765 6.489 6.827 6.489 C 6.859 6.489 6.883 6.494 6.884 6.494 L 9.905 7.479 L 11.413 7.97 L 11.363 9.499 L 7.135 8.313 L 6.911 8.251 C 6.903 8.249 6.892 8.247 6.884 8.247 C 6.866 8.245 6.448 8.207 6.428 7.277 Z  M 10.977 14.264 L 6.525 13.016 C 6.517 13.013 6.506 13.012 6.498 13.011 C 6.48 13.01 6.062 12.972 6.041 12.042 C 6.034 11.71 6.094 11.47 6.213 11.348 C 6.289 11.27 6.379 11.254 6.44 11.254 C 6.473 11.254 6.496 11.258 6.498 11.258 C 6.498 11.258 6.498 11.258 6.498 11.258 L 11.026 12.735 L 10.977 14.264 Z  M 16.81 12.693 C 16.817 12.761 16.825 12.823 16.832 12.871 L 11.223 14.266 L 11.272 12.748 L 12.471 12.501 L 12.648 12.544 L 13.312 12.328 L 16.372 11.699 L 16.959 11.579 C 16.771 11.922 16.779 12.391 16.81 12.693 Z  M 17.119 10.629 C 17.109 10.629 17.099 10.631 17.089 10.634 L 16.666 10.752 L 12.638 11.882 L 12.588 10.353 L 13.91 9.922 L 17.11 8.878 C 17.111 8.878 17.278 8.84 17.402 8.966 C 17.521 9.088 17.58 9.328 17.573 9.659 C 17.552 10.589 17.134 10.628 17.119 10.629 Z " fill="rgb(221,221,102)"/></g></g></g></g></svg>