<?xml version="1.0" encoding="UTF-8" standalone="no"?>
<svg
   viewBox="0 0 24 24"
   width="24pt"
   height="24pt"
   version="1.1"
   id="svg1"
   sodipodi:docname="wilko.svg"
   xml:space="preserve"
   inkscape:version="1.4 (86a8ad7, 2024-10-11)"
   inkscape:export-filename="brands_2024\wilko.svg"
   inkscape:export-xdpi="96"
   inkscape:export-ydpi="96"
   xmlns:inkscape="http://www.inkscape.org/namespaces/inkscape"
   xmlns:sodipodi="http://sodipodi.sourceforge.net/DTD/sodipodi-0.dtd"
   xmlns="http://www.w3.org/2000/svg"
   xmlns:svg="http://www.w3.org/2000/svg"><defs
     id="defs1" /><sodipodi:namedview
     id="namedview1"
     pagecolor="#ffffff"
     bordercolor="#000000"
     borderopacity="0.25"
     inkscape:showpageshadow="2"
     inkscape:pageopacity="0.0"
     inkscape:pagecheckerboard="0"
     inkscape:deskcolor="#d1d1d1"
     inkscape:document-units="pt"
     inkscape:zoom="22.96875"
     inkscape:cx="14.99864"
     inkscape:cy="16.217687"
     inkscape:window-width="1920"
     inkscape:window-height="974"
     inkscape:window-x="-11"
     inkscape:window-y="1609"
     inkscape:window-maximized="1"
     inkscape:current-layer="svg1" /><g
     id="g1"
     transform="matrix(0.08614274,0,0,0.08614274,-177.55886,-44.232111)"
     style="fill:#ffffff"><g
       id="g2"
       transform="matrix(0.89225627,0,0,0.89225627,2103.4502,596.14049)"
       style="fill:#ffffff"><path
         fill="#fdd150"
         d="m 101.8965,11.2946 c 0,6.2201 -5.0743,11.2945 -11.2945,11.2945 -6.2202,0 -11.2946,-5.0744 -11.2946,-11.2945 C 79.3074,5.0744 84.3818,0 90.602,0 c 6.2202,0 11.2945,5.0744 11.2945,11.2946 M 90.602,5.238 c -3.4375,0 -6.0565,2.7827 -6.0565,6.0565 0,3.2737 2.7827,6.0565 6.0565,6.0565 3.4375,0 6.0565,-2.7828 6.0565,-6.0565 0,-3.2738 -2.619,-6.0565 -6.0565,-6.0565"
         id="path1-0"
         style="fill:#ffffff" /><path
         fill="#b3163b"
         d="M 97.8862,78.8327 H 83.1542 V 29.5623 h 14.732 z M 126.2044,0.262 h 14.732 v 47.3062 h 0.1637 l 13.5862,-18.0058 h 17.351 L 153.5405,51.333 171.5463,78.8328 H 155.0137 L 141.1001,55.2616 h -0.1637 v 23.5712 h -14.732 z m -21.4433,0 h 14.732 v 78.5708 h -14.732 z M 15.878,29.5623 25.2082,55.4252 34.2112,29.726 h 12.113 l 8.8392,25.5355 9.494,-25.6992 H 80.044 L 60.7287,78.8327 H 49.5978 L 39.6128,51.824 30.1188,78.8327 H 18.988 L 0,29.5623 Z m 202.1562,24.717 c 0,14.241 -11.4583,25.6993 -25.6992,25.6993 -14.241,0 -25.6993,-11.4583 -25.6993,-25.6992 0,-14.241 11.4583,-25.6993 25.6993,-25.6993 14.241,0.1637 25.6992,11.622 25.6992,25.6993 M 192.335,42.1664 c -6.7113,0 -12.113,5.4017 -12.113,12.113 0,6.7112 5.4017,12.113 12.113,12.113 6.7112,0 12.113,-5.4018 12.113,-12.113 0.1636,-6.7113 -5.4018,-12.113 -12.113,-12.113"
         id="path2"
         style="fill:#ffffff" /></g></g></svg>
