<?xml version="1.0" encoding="UTF-8" standalone="no"?>
<svg
   viewBox="0 0 24 24"
   width="24pt"
   height="24pt"
   version="1.1"
   id="svg956"
   sodipodi:docname="yoga.svg"
   xml:space="preserve"
   inkscape:export-filename="..\yoga.svg"
   inkscape:export-xdpi="96"
   inkscape:export-ydpi="96"
   inkscape:version="1.2.2 (732a01da63, 2022-12-09)"
   xmlns:inkscape="http://www.inkscape.org/namespaces/inkscape"
   xmlns:sodipodi="http://sodipodi.sourceforge.net/DTD/sodipodi-0.dtd"
   xmlns="http://www.w3.org/2000/svg"
   xmlns:svg="http://www.w3.org/2000/svg"><defs
     id="defs960" /><sodipodi:namedview
     id="namedview958"
     pagecolor="#ffffff"
     bordercolor="#000000"
     borderopacity="0.25"
     inkscape:showpageshadow="2"
     inkscape:pageopacity="0.0"
     inkscape:pagecheckerboard="0"
     inkscape:deskcolor="#d1d1d1"
     inkscape:document-units="pt"
     showgrid="false"
     inkscape:zoom="17.876543"
     inkscape:cx="11.859116"
     inkscape:cy="19.187155"
     inkscape:window-width="1920"
     inkscape:window-height="974"
     inkscape:window-x="-11"
     inkscape:window-y="1609"
     inkscape:window-maximized="1"
     inkscape:current-layer="svg956" /><g
     style="fill:none"
     id="g1123"
     transform="matrix(0.70094517,0,0,0.70094517,3.8007632,1.4893929)"><path
       d="m 14.5714,15.0036 0.8572,1.845 c 0,0 3.8571,0.8192 3.8571,2.7676 C 19.2857,21 17.5714,21 17.5714,21 H 13 l -2.25,-1.25"
       stroke="#000000"
       stroke-width="1.5"
       stroke-linecap="round"
       stroke-linejoin="round"
       id="path1105"
       style="fill:none" /><path
       d="m 9.42864,15.0036 -0.85714,1.845 c 0,0 -3.85714,0.8192 -3.85714,2.7676 C 4.71436,21 6.42864,21 6.42864,21 h 2.07143 l 2.25003,-1.25 2.75,-1.75"
       stroke="#000000"
       stroke-width="1.5"
       stroke-linecap="round"
       stroke-linejoin="round"
       id="path1107"
       style="fill:none" /><path
       d="m 3,15.9261 c 0,0 2.14286,-0.4612 3.42857,-0.9225 C 7.71429,8.54595 11.5714,9.00721 12,9.00721 c 0.4286,0 4.2857,-0.46126 5.5714,5.99639 C 18.8571,15.4649 21,15.9261 21,15.9261"
       stroke="#000000"
       stroke-width="1.5"
       stroke-linecap="round"
       stroke-linejoin="round"
       id="path1109"
       style="fill:none" /><path
       d="m 12,7 c 1.1046,0 2,-0.89543 2,-2 0,-1.10457 -0.8954,-2 -2,-2 -1.1046,0 -2,0.89543 -2,2 0,1.10457 0.8954,2 2,2 z"
       stroke="#000000"
       stroke-width="1.5"
       stroke-linecap="round"
       stroke-linejoin="round"
       id="path1111"
       style="fill:none" /></g></svg>
