<?xml version="1.0" encoding="UTF-8" standalone="no"?>
<svg
   viewBox="0 0 30 30"
   width="30pt"
   height="30pt"
   version="1.1"
   id="svg133"
   xml:space="preserve"
   xmlns="http://www.w3.org/2000/svg"
   xmlns:svg="http://www.w3.org/2000/svg"><defs
     id="defs137" /><g
     id="g153"
     transform="matrix(0.00592387,0,0,0.00592387,3.4614909,5.5247883)"><path
       d="m 1648.5,543.111 c -7.7,2.152 -21.425,5.966 -30.5,8.477 -49.664,13.741 -116.383,34.298 -155.187,47.815 -30.805,10.73 -49.222,17.687 -84.488,31.918 -211.61,85.39 -387.469,183.264 -518.825,288.752 -34.906,28.032 -61.697,52.245 -93.012,84.062 -38.861,39.483 -66.643,73.185 -92.704,112.456 -49.524,74.629 -77.473,149.487 -85.278,228.409 -1.669,16.875 -2.268,57.235 -1.047,70.5 2.37,25.735 4.492,41.4 8.127,60 2.818,14.413 9.225,38.776 13.282,50.5 44.809,129.485 179.08,229.686 387.132,288.901 70.888,20.176 157.67,36.29 240,44.566 8.525,0.857 17.525,1.777 20,2.044 7.533,0.812 41.813,3.376 53.5,4.001 6.05,0.323 12.8,0.77 15,0.992 2.2,0.223 13,0.695 24,1.05 11,0.354 21.35,0.804 23,1 4.001,0.474 117.89,0.471 123,0 2.2,-0.204 13.225,-0.669 24.5,-1.032 11.275,-0.363 22.075,-0.831 24,-1.04 1.925,-0.209 9.125,-0.643 16,-0.966 6.875,-0.322 21.725,-1.25 33,-2.062 19.073,-1.374 24.24,-1.798 36,-2.959 2.475,-0.244 7.425,-0.699 11,-1.01 61.651,-5.368 143.702,-16.843 215,-30.068 149.409,-27.713 307.098,-72.97 453.5,-130.155 126.552,-49.432 250.98,-110.313 363,-177.612 131.294,-78.878 253.232,-170.745 340.5,-256.529 l 18.5,-18.186 -16.5,12.363 c -117.003,87.672 -314.66,200.78 -493.5,282.403 -260.186,118.751 -514.772,191.303 -729,207.751 -11,0.845 -22.25,1.744 -25,1.999 -2.75,0.254 -10.4,0.735 -17,1.068 -6.6,0.332 -13.575,0.78 -15.5,0.995 -1.925,0.215 -11.825,0.686 -22,1.047 -10.175,0.361 -20.75,0.827 -23.5,1.037 -10.597,0.807 -109.902,1.096 -127,0.37 -46.191,-1.961 -48.68,-2.113 -83,-5.075 -83.143,-7.175 -159.366,-21.539 -230,-43.342 -8.25,-2.547 -15.767,-4.861 -16.705,-5.142 -1.373,-0.413 -2.095,0.812 -3.709,6.291 -2.84,9.641 -3.244,12.394 -3.667,24.988 -0.556,16.535 1.596,21.542 11.081,25.786 9.154,4.095 13.857,11.07 13.844,20.529 -0.015,10.609 -6.288,18.078 -18.794,22.378 -3.877,1.333 -13.35,4.674 -21.05,7.424 -60.933,21.761 -63.049,22.317 -83,21.788 -20.582,-0.546 -33.499,-5.628 -45.887,-18.054 -3.818,-3.83 -7.88,-7.091 -9.027,-7.246 -13.552,-1.839 -24.823,-7.441 -34.689,-17.239 -12.578,-12.492 -17.553,-25.381 -18.544,-48.051 -0.921,-21.081 0.338,-26.5 18.551,-79.848 8.76,-25.659 16.211,-47.367 16.557,-48.241 0.462,-1.166 -3.103,-4.702 -13.375,-13.269 -85.632,-71.413 -136.542,-165.654 -147.551,-273.137 -1.511,-14.752 -1.748,-53.018 -0.421,-68.005 8.776,-99.111 58.873,-202.53 149.086,-307.771 38.382,-44.777 101.163,-108.141 146.8,-148.167 97.355,-85.383 266.37,-178.796 472,-260.87 8.979,-3.584 5.939,-3.173 -10.5,1.419 m 105,379.637 c -18.451,2.05 -38.528,8.115 -55.362,16.726 -46.527,23.799 -67.543,54.056 -67.391,97.026 0.095,27.141 8.281,44.41 22.496,47.459 9.097,1.951 10.333,5.376 3.507,9.713 -17.002,10.804 -22.354,14.874 -31.294,23.8 -32.274,32.22 -57.145,77.009 -60.665,109.248 -2.105,19.278 1.765,40.649 10.644,58.78 12.529,25.583 32.688,41.589 61.378,48.73 15.668,3.899 46.555,2.541 75.075,-3.301 65.533,-13.426 119.658,-48.607 152.523,-99.142 31.123,-47.855 37.475,-107.114 15.09,-140.785 -5.816,-8.749 -12.867,-14.951 -22.137,-19.472 -26.24,-12.794 -66.678,-8.462 -100.864,10.805 -30.236,17.042 -58.612,50.684 -67.932,80.541 -9.742,31.209 2.717,56.319 31.639,63.763 12.554,3.231 34.448,-0.066 45.793,-6.896 16.503,-9.936 27.45,-28.91 28.731,-49.798 0.883,-14.402 -2.949,-23.34 -12.107,-28.239 -5.967,-3.192 -22.543,-3.099 -30.864,0.173 -15.095,5.936 -26.908,20.26 -32.197,39.042 -3.133,11.128 -5.52,10.215 -5.549,-2.122 -0.065,-26.915 20.112,-48.976 56.486,-61.762 17.271,-6.071 28.605,-7.383 38.472,-4.453 10.639,3.16 16.73,8.985 21.197,20.271 1.978,4.997 2.226,7.367 2.161,20.645 -0.062,12.712 -0.46,16.467 -2.611,24.619 -4.772,18.088 -12.04,31.055 -24.941,44.492 -17.682,18.418 -42.143,30.593 -67.614,33.653 -11.513,1.383 -31.967,-0.221 -43.164,-3.386 -20.007,-5.655 -33.018,-17.979 -36.939,-34.99 -0.557,-2.413 -1.023,-9.435 -1.037,-15.603 -0.07,-32.467 14.374,-66.728 40.89,-96.989 15.633,-17.841 42.051,-38.646 61.737,-48.62 5.2,-2.634 9.349,-6.777 9.349,-9.336 0,-2.956 -4.914,-3.496 -12.922,-1.42 -16.233,4.208 -28.122,3.63 -39.623,-1.924 -11.979,-5.785 -19.118,-16.495 -20.157,-30.24 -1.045,-13.81 3.632,-26.117 14.306,-37.646 12.968,-14.006 37.046,-27.11 49.815,-27.11 6.526,0 14.037,1.833 17.74,4.328 6.535,4.404 8.605,12.123 3.923,14.628 -1.416,0.758 -3.094,0.484 -6.643,-1.086 -3.969,-1.756 -6.156,-2.028 -13.343,-1.664 -10.192,0.517 -14.855,2.562 -22.648,9.932 -10.016,9.472 -14.383,26.167 -9.491,36.274 2.973,6.141 10.026,12.165 16.708,14.271 11.773,3.712 28.018,-1.702 40.532,-13.508 25.436,-23.995 32.308,-60.67 14.672,-78.306 -7.412,-7.412 -17.951,-10.876 -34.164,-11.231 -5.613,-0.123 -11.555,-0.073 -13.205,0.11"
       stroke="none"
       fill="#f15d22"
       fill-rule="evenodd"
       id="path129" /><path
       d="M 2316.57,23.021 C 2118.387,30.17 1895.792,74.348 1638,157.698 c -183.772,59.418 -352.991,134.086 -518,228.57 -76.067,43.555 -174.219,107.57 -210.5,137.289 -36.73,30.086 -59.619,65.9 -68.667,107.443 -1.998,9.173 -2.29,13.343 -2.31,33 -0.02,19.471 0.281,24.001 2.238,33.648 1.808,8.917 5.472,21.454 9.336,31.946 0.222,0.602 -5.222,5.288 -12.097,10.414 -32.91,24.536 -72.896,57.841 -111.5,92.87 -21.394,19.412 -85.561,83.671 -103.419,103.568 -66.801,74.424 -114.893,139.8 -153.979,209.318 -45.855,81.558 -74.289,162.733 -84.148,240.236 -5.345,42.019 -4.815,89.097 1.469,130.5 27.557,181.574 164.261,316.035 404.577,397.941 122.278,41.675 273.938,68.704 421.633,75.144 l 15.132,0.66 1.225,7.627 c 1.685,10.498 7.109,26.605 12.995,38.593 22.407,45.636 64.788,78.488 119.274,92.456 25.785,6.611 43.275,8.42 82.241,8.507 30.876,0.069 91.838,-1.116 98,-1.905 1.65,-0.212 9.75,-0.66 18,-0.997 93.151,-3.803 208.467,-19.311 309.444,-41.615 80.445,-17.769 148.306,-36.342 307.056,-84.038 106.414,-31.972 136.073,-41.673 188.5,-61.654 173.816,-66.246 395.132,-185.499 543.963,-293.108 46.429,-33.569 61.345,-48.899 75.516,-77.611 9.966,-20.193 14.384,-35.288 16.977,-58 2.76,-24.177 -0.514,-60.991 -7.358,-82.728 l -1.489,-4.727 4.196,-3.355 c 2.307,-1.845 9.82,-7.785 16.695,-13.199 102.167,-80.454 195.097,-170.903 265.374,-258.291 92.959,-115.591 151.297,-230.979 172.503,-341.2 6.548,-34.031 8.836,-57.742 9.024,-93.5 0.239,-45.555 -4.173,-81.103 -15.391,-124 -26.4,-100.954 -86.025,-182.76 -183.01,-251.094 -60.704,-42.77 -140.084,-80.771 -229.5,-109.865 -118.3,-38.493 -269.923,-65.216 -403.5,-71.117 -8.25,-0.364 -15.277,-0.946 -15.615,-1.293 -0.338,-0.347 -1.144,-3.42 -1.79,-6.828 -2.638,-13.915 -11.676,-36.032 -20.339,-49.771 -22.31,-35.384 -57.309,-60.643 -101.756,-73.438 -19.788,-5.696 -36.583,-8.429 -62,-10.089 -21.366,-1.395 -83.642,-1.95 -110.43,-0.984 M 2213,77.736 c -6.347,0.525 -30.328,4.38 -40,6.43 -22.374,4.741 -35.48,13.161 -38.021,24.426 -1.013,4.492 1.075,19.685 3.29,23.945 2.175,4.183 5.477,7.012 11.243,9.631 4.213,1.914 6.62,2.256 15.488,2.2 19.388,-0.123 46.872,-6.322 53.128,-11.984 1.534,-1.388 1.734,-1.273 2.26,1.297 1.597,7.807 2.553,16.31 1.995,17.763 -1.079,2.813 -5.78,4.443 -19.298,6.692 -14.512,2.415 -17.315,2.02 -19.106,-2.691 -0.68,-1.789 -1.516,-2.425 -2.73,-2.074 -0.962,0.277 -9.547,1.76 -19.079,3.293 l -17.329,2.789 0.667,4.524 c 1.652,11.195 9.191,16.071 26.006,16.819 11.272,0.501 38.271,-3.106 55.486,-7.412 22.027,-5.511 31.995,-14.419 33.618,-30.041 0.768,-7.394 -3.812,-39.113 -6.801,-47.104 -2.923,-7.81 -9.856,-14.613 -17.015,-16.694 -5.256,-1.528 -16.693,-2.397 -23.802,-1.809 m -120.32,20.611 -19.821,4.153 -9.429,7.901 c -5.187,4.345 -9.42,8.395 -9.407,9 0.013,0.604 3.538,4.903 7.834,9.553 l 7.81,8.453 6.783,-5.754 c 3.73,-3.164 6.931,-5.606 7.111,-5.425 0.181,0.181 3.124,15.616 6.54,34.3 3.416,18.685 6.282,34.076 6.37,34.204 0.283,0.411 37.459,-7.329 38.053,-7.923 0.45,-0.449 -13.797,-80.88 -16.041,-90.559 -0.697,-3.008 -1.919,-2.908 -25.803,2.097 m 99.815,2.064 c -18.698,3.244 -19.891,4.159 -18.355,14.089 1.451,9.38 3.256,9.909 22.36,6.556 21.209,-3.724 21.129,-3.671 20.15,-13.294 -0.731,-7.185 -2.902,-9.81 -8.011,-9.685 -1.726,0.043 -8.991,1.093 -16.144,2.334 m -187.36,15.662 c -8.878,1.08 -35.558,7.173 -46.635,10.65 -19.868,6.238 -31.365,15.314 -32.78,25.878 -0.467,3.485 1.788,15.978 3.717,20.595 3.704,8.864 11.822,13.206 24.563,13.137 9.081,-0.048 13.751,-0.83 32.261,-5.4 11.582,-2.859 17.93,-5.405 22.624,-9.07 1.312,-1.025 2.697,-1.863 3.08,-1.863 0.849,0 4.035,14.47 4.035,18.329 0,3.619 -4.331,5.591 -20.238,9.218 -12.971,2.957 -16.399,2.747 -17.355,-1.062 -0.343,-1.367 -1.1,-2.485 -1.682,-2.485 -2.044,0 -36.232,8.207 -36.867,8.85 -0.353,0.357 -0.056,2.9 0.659,5.65 3.88,14.923 21.045,17.218 59.983,8.017 23.679,-5.595 33.362,-9.105 41.36,-14.993 12.02,-8.849 14.192,-19.907 8.744,-44.524 -3.88,-17.528 -5.197,-21.759 -8.641,-27.764 -6.46,-11.262 -18.137,-15.435 -36.828,-13.163 m -9.635,21.592 c -23.979,5.189 -30.004,7.198 -31.001,10.338 -0.716,2.255 1.25,10.693 3.232,13.874 1.313,2.107 2.008,2.314 6.125,1.821 7.289,-0.871 29.283,-6.559 31.837,-8.233 2.596,-1.7 2.832,-3.916 1.222,-11.426 -1.397,-6.514 -4.014,-7.976 -11.415,-6.374 m -107.229,7.161 -21.23,5.674 -9.02,8.979 c -4.962,4.939 -9.021,9.296 -9.021,9.683 0,0.387 3.343,4.537 7.428,9.223 l 7.429,8.52 7.196,-6.452 c 3.958,-3.549 7.484,-6.453 7.837,-6.453 0.352,0 4.398,15.075 8.991,33.5 4.593,18.425 8.636,33.505 8.985,33.51 2.85,0.047 36.459,-9.693 36.835,-10.674 0.777,-2.023 -21.814,-91.346 -23.08,-91.26 -0.617,0.041 -10.674,2.629 -22.35,5.75 M 1694,200.834 c -17.875,5.87 -42.062,13.745 -53.75,17.501 -13.424,4.315 -21.25,7.314 -21.25,8.144 0,1.088 7.96,27.357 24.627,81.271 1.403,4.538 2.842,8.25 3.199,8.25 1.416,0 110.733,-35.371 111.561,-36.097 0.713,-0.625 -1.319,-8.787 -4.867,-19.549 -0.248,-0.754 -7.161,1.053 -20.199,5.279 -10.901,3.533 -27.346,8.835 -36.542,11.782 l -16.722,5.358 -2.48,-8.102 c -1.364,-4.456 -2.374,-8.208 -2.244,-8.338 0.13,-0.129 15.436,-5.161 34.015,-11.181 18.578,-6.019 34.013,-11.18 34.3,-11.467 1.028,-1.027 -4.735,-17.866 -5.956,-17.406 -5.395,2.032 -67.939,21.801 -68.173,21.548 -0.166,-0.18 -1.236,-3.46 -2.377,-7.289 -1.36,-4.563 -1.719,-7.181 -1.044,-7.599 0.567,-0.35 16.19,-5.492 34.717,-11.425 18.527,-5.934 34.03,-11.094 34.451,-11.467 0.421,-0.373 -0.535,-4.924 -2.124,-10.113 -2.244,-7.33 -3.307,-9.472 -4.765,-9.603 -1.032,-0.092 -16.502,4.634 -34.377,10.503 m 783.808,17.637 c -0.169,0.139 -19.658,0.544 -43.308,0.9 -23.65,0.356 -44.35,0.837 -46,1.069 -1.65,0.232 -9.75,0.693 -18,1.025 -19.523,0.785 -53.059,3.05 -82.5,5.572 -352.211,30.17 -733.191,144.564 -1055.5,316.928 -20.61,11.022 -27.429,14.782 -50.5,27.847 C 861.454,753.337 628.268,980.022 533.738,1202 c -54.696,128.44 -60.82,250.464 -18.042,359.5 15.245,38.856 37.404,76.3 66.044,111.598 13.837,17.055 46.699,50.235 64.205,64.828 73.223,61.038 166.384,108.566 279.206,142.441 104.76,31.454 229.429,51.115 357.349,56.355 48.758,1.997 174.369,0.661 213.5,-2.272 3.575,-0.268 16.175,-1.166 28,-1.995 258.763,-18.156 545.977,-85.935 809.92,-191.133 378.117,-150.703 691.868,-369.612 869.724,-606.822 128.174,-170.947 176.604,-340.416 139.744,-489 -26.187,-105.561 -95.777,-197.77 -202.15,-267.856 -44.94,-29.61 -99.207,-56.819 -156.204,-78.319 -94.994,-35.834 -206.748,-60.387 -329.034,-72.293 -24.767,-2.411 -56.489,-4.75 -75.5,-5.567 -7.7,-0.331 -15.35,-0.791 -17,-1.023 -1.65,-0.232 -20.775,-0.678 -42.5,-0.992 -21.725,-0.314 -40.261,-0.72 -41.192,-0.902 -0.931,-0.182 -1.831,-0.217 -2,-0.077 m -918.554,27.991 c -16.196,3.658 -50.442,16.955 -61.631,23.929 -13.556,8.449 -18.98,16.597 -19.046,28.609 -0.035,6.508 0.662,9.549 5.274,23 6.404,18.68 9.104,23.875 15.309,29.454 11.299,10.159 27.047,9.319 62.121,-3.316 26.8,-9.654 40.142,-17.103 47.726,-26.647 3.215,-4.045 6,-11.927 5.981,-16.923 -0.012,-3.046 -2.223,-12.521 -3.346,-14.339 -0.604,-0.977 -38.943,12.658 -39.45,14.029 -0.154,0.417 0.015,2.327 0.374,4.244 0.36,1.917 0.37,4.617 0.023,6.001 -1.207,4.806 -11.581,10.478 -25.873,14.146 -7.711,1.978 -11.558,0.757 -14.586,-4.632 -3.125,-5.559 -11.102,-28.912 -11.117,-32.544 -0.025,-5.938 5.175,-10.033 18.96,-14.934 12.182,-4.331 19.589,-3.424 22.13,2.709 1.361,3.287 -0.733,3.733 22.397,-4.769 10.894,-4.005 17.111,-6.8 17.308,-7.783 0.453,-2.261 -4.244,-10.978 -7.869,-14.603 -5.305,-5.305 -8.522,-6.454 -18.939,-6.762 -5.615,-0.165 -12.054,0.297 -15.746,1.131 m -137.476,51.899 c -9.197,3.987 -16.945,7.473 -17.218,7.746 -0.273,0.272 5.32,14.629 12.429,31.904 7.108,17.275 12.811,31.522 12.672,31.661 -0.139,0.139 -15.939,-9.892 -35.112,-22.291 l -34.86,-22.543 -28.746,12.186 -28.746,12.186 8.249,20.145 c 23.821,58.175 27.925,67.716 28.952,67.312 9.475,-3.721 35.602,-15.165 35.602,-15.593 -10e-4,-0.316 -5.819,-14.743 -12.931,-32.061 -7.111,-17.317 -12.791,-31.624 -12.622,-31.793 0.169,-0.169 9.025,5.407 19.68,12.391 10.655,6.984 25.898,16.974 33.873,22.2 7.975,5.227 15.231,9.695 16.123,9.929 1.483,0.39 55.48,-21.89 57.028,-23.531 1.103,-1.168 -34.482,-86.66 -36.168,-86.893 -0.816,-0.112 -9.008,3.058 -18.205,7.045 m 1375.257,65.545 c 1.583,1.977 4.188,6.519 5.788,10.094 7.137,15.942 7.656,32.465 1.65,52.5 -15.291,51 -19.726,65.326 -41.635,134.5 -21.992,69.438 -64.427,202.04 -87.845,274.5 -8.176,25.3 -19.425,60.175 -24.997,77.5 -5.572,17.325 -13.668,42.3 -17.991,55.5 -4.323,13.2 -12.877,39.525 -19.009,58.5 -6.131,18.975 -11.972,36.975 -12.98,40 -1.007,3.025 -4.987,15.175 -8.845,27 -37.266,114.233 -49.33,150.774 -52.61,159.352 -2.919,7.631 -7.005,22.716 -8.051,29.718 -0.6,4.014 -0.364,4.95 1.933,7.68 1.513,1.798 4.62,3.774 7.368,4.687 13.871,4.608 19.974,18.575 13.656,31.254 -1.482,2.973 -4.081,6.155 -6.262,7.667 -2.21,1.531 -36.515,14.011 -84.217,30.637 -62.906,21.925 -82.126,28.241 -87.988,28.912 -7.532,0.863 -18.192,0.709 -27.5,-0.397 l -5,-0.594 5,4.706 c 10.333,9.725 24.267,16.826 38.931,19.84 9.681,1.99 24.753,2.656 33.764,1.493 4.536,-0.586 32.113,-9.72 85.5,-28.319 43.343,-15.1 80.155,-27.974 81.805,-28.609 9.051,-3.483 15.032,-15.498 12.504,-25.118 -2.063,-7.853 -5.491,-11.608 -14.548,-15.93 -9.25,-4.415 -11.2,-7.033 -12.141,-16.297 -0.694,-6.838 2.014,-22.079 5.806,-32.682 4.454,-12.455 26.91,-80.285 67.37,-203.5 13.003,-39.6 28.754,-87.525 35.002,-106.5 26.442,-80.303 88.691,-270.957 117.117,-358.696 5.915,-18.258 11.118,-32.972 11.561,-32.698 0.443,0.274 0.553,-0.161 0.244,-0.966 -0.308,-0.805 4.169,-16.241 9.949,-34.302 32.487,-101.497 33.352,-105.01 30.269,-122.878 -4.37,-25.319 -21.264,-42.25 -50.305,-50.413 l -6.172,-1.735 2.879,3.594 M 1251,374.122 c -10.175,4.9 -18.455,9.465 -18.399,10.144 0.167,2.058 38.787,84.734 39.58,84.734 0.407,0 9.098,-4.025 19.315,-8.945 l 18.577,-8.946 -1.417,-3.304 c -3.645,-8.506 -37.847,-81.381 -38.461,-81.949 -0.382,-0.354 -9.02,3.365 -19.195,8.266 m -66.5,35.36 c -8.562,2.311 -15.362,5.317 -35.123,15.527 -32.936,17.017 -42.035,23.505 -46.898,33.445 -3.972,8.117 -3.649,14.505 1.2,23.732 5.215,9.927 9.645,13.036 18.571,13.036 9.153,0 15.067,-1.952 42.25,-13.943 14.145,-6.241 25.414,-10.627 27.443,-10.683 3.011,-0.084 3.732,0.407 5.734,3.904 1.26,2.2 2.298,4.322 2.307,4.715 0.104,4.554 -29.891,21.785 -37.922,21.785 -2.975,0 -4.328,-0.581 -5.729,-2.462 l -1.833,-2.461 -17.495,9.254 c -9.622,5.09 -17.627,9.945 -17.79,10.789 -0.457,2.377 5.894,11.076 9.694,13.276 6.776,3.923 19.979,2.108 36.091,-4.963 11.46,-5.028 50.499,-25.895 55.993,-29.928 6.316,-4.636 14.199,-13.295 16.536,-18.163 1.015,-2.113 2.031,-6.317 2.258,-9.342 0.372,-4.943 -0.026,-6.354 -3.936,-13.936 -3.714,-7.202 -4.996,-8.775 -8.758,-10.75 -9.723,-5.105 -19.924,-2.799 -53.988,12.202 -13.605,5.991 -25.147,10.484 -26.931,10.484 -2.447,0 -3.453,-0.639 -4.648,-2.95 -2.311,-4.47 -1.875,-6.537 2.123,-10.047 4.079,-3.581 26.564,-15.003 29.535,-15.003 1.052,0 2.903,1.06 4.114,2.355 l 2.202,2.355 17.169,-9.107 c 9.443,-5.009 17.462,-9.4 17.82,-9.758 0.917,-0.917 -2.833,-7.916 -5.642,-10.528 -1.291,-1.201 -3.614,-2.664 -5.162,-3.25 -3.794,-1.438 -13.066,-1.237 -19.185,0.415 m 1211.945,93.346 c 5.997,8.96 10.65,20.157 13.464,32.4 8.824,38.391 26.241,136.058 58.988,330.772 4.856,28.875 9.106,51.825 9.445,51 0.339,-0.825 6.441,-18.62 13.56,-39.545 12.102,-35.573 12.885,-38.335 12.058,-42.5 -0.486,-2.45 -4.969,-28.53 -9.962,-57.955 -19.727,-116.273 -33.956,-193.811 -40.095,-218.5 -6.046,-24.313 -17.038,-40.716 -35.259,-52.613 -5.785,-3.778 -18.143,-9.03 -24.336,-10.343 l -3.192,-0.678 5.329,7.962 M 1952.568,634.21 c 0.405,0.709 1.315,1.97 2.022,2.8 2.807,3.296 9.416,17.964 11.79,26.166 5.548,19.161 23.555,117.047 55.524,301.824 6.043,34.925 11.921,69.125 13.063,76 2.978,17.931 3.132,18.576 4.055,16.918 0.434,-0.78 6.463,-18.252 13.397,-38.827 l 12.609,-37.408 -11.58,-66.092 C 2031.363,789.553 2015.55,704.62 2011.446,690 c -7.924,-28.227 -25.641,-48.093 -48.446,-54.323 -9.852,-2.691 -11.241,-2.887 -10.432,-1.467 m -381.423,119.475 c 0.195,0.448 2.086,3.861 4.202,7.584 8.734,15.371 18.011,49.906 32.193,119.856 4.254,20.984 13.583,70.021 14.957,78.625 0.373,2.337 0.977,4.25 1.341,4.25 0.364,-10e-4 7.978,-7.619 16.92,-16.931 l 16.259,-16.929 -3.556,-18.82 c -9.17,-48.525 -22.604,-101.857 -29.475,-117.011 -8.769,-19.34 -22.711,-32.866 -39.361,-38.186 -7.404,-2.366 -13.966,-3.553 -13.48,-2.438 m 656.887,269.815 c -0.669,1.65 -10.206,27.525 -21.194,57.5 -10.987,29.975 -21.486,58.55 -23.329,63.5 -1.844,4.95 -5.819,15.75 -8.833,24 -9.613,26.307 -47.103,128.376 -81.907,223 -6.069,16.5 -11.827,32.925 -12.797,36.5 -2.142,7.901 -1.628,8.776 7.625,12.971 9.101,4.127 13.603,10.748 13.603,20.006 0,8.175 -4.515,16.014 -11.251,19.535 -2.236,1.169 -94.862,33.965 -130.449,46.188 -16.732,5.747 -25.371,7.377 -39.251,7.406 -12.976,0.027 -13.133,0.301 -4.518,7.892 14.96,13.182 35.122,19.034 58.237,16.901 12.633,-1.166 15.793,-2.11 65.294,-19.51 24.331,-8.552 53.913,-18.927 65.738,-23.056 11.825,-4.129 23.495,-8.213 25.933,-9.076 8.435,-2.986 15.078,-12.193 15.061,-20.873 -0.017,-9.153 -5.795,-17.027 -15.785,-21.513 -7.949,-3.569 -9.735,-6.974 -8.901,-16.974 0.55,-6.596 4.264,-17.115 49.035,-138.897 29.939,-81.437 36.606,-99.59 45.176,-123 5.134,-14.025 13.584,-37.067 18.778,-51.205 6.348,-17.279 9.279,-26.562 8.943,-28.322 -0.276,-1.44 -3.536,-21.372 -7.246,-44.295 -6.037,-37.307 -6.872,-41.363 -7.962,-38.678 m -845.843,77.812 c -2.898,8.354 -19.808,56.588 -37.578,107.188 -17.771,50.6 -32.233,92.107 -32.14,92.237 0.412,0.575 51.148,-16.023 52.177,-17.069 0.632,-0.642 9.283,-24.443 19.225,-52.891 l 18.076,-51.723 -6.843,-46.062 c -3.764,-25.334 -7.024,-46.243 -7.246,-46.465 -0.221,-0.221 -2.773,6.432 -5.671,14.785 m 430.316,220.878 c -22.86,16.14 -62.943,31.715 -105.005,40.803 -5.5,1.189 -10.72,2.36 -11.599,2.604 -1.434,0.396 -1.466,1.245 -0.311,8.173 0.709,4.251 4.043,25.505 7.41,47.23 9.075,58.569 10.555,66.522 14.526,78.013 7.341,21.242 18.497,40.154 27.664,46.896 2.269,1.668 6.906,3.958 10.306,5.09 10.471,3.484 16.504,11.344 16.504,21.501 0,6.534 -2.202,11.441 -7.352,16.387 -3.277,3.148 -9.846,5.353 -92.837,31.161 -49.121,15.275 -91.561,28.655 -94.311,29.734 -10.125,3.972 -23.52,6.481 -35.246,6.602 -6.185,0.064 -11.247,0.503 -11.25,0.976 -0.011,2.197 12.702,12.784 19.742,16.44 11.637,6.044 18.494,7.594 33.754,7.629 14.508,0.034 22.709,-1.456 38.5,-6.995 5.225,-1.833 27.05,-8.78 48.5,-15.439 57.067,-17.715 91.587,-28.443 112.603,-34.993 10.231,-3.189 19.906,-6.476 21.5,-7.305 6.99,-3.636 11.991,-13.035 11.07,-20.808 -1.285,-10.854 -6.861,-16.974 -18.655,-20.476 -13.773,-4.09 -28.515,-26.941 -37.595,-58.275 -1.365,-4.709 -5.632,-28.604 -9.482,-53.1 -3.851,-24.496 -7.888,-50.06 -8.971,-56.81 -2.7,-16.819 -2.872,-15.851 2.952,-16.623 2.706,-0.359 12.044,-2.417 20.75,-4.572 12.322,-3.052 19.815,-5.675 33.828,-11.844 9.9,-4.358 19.733,-8.484 21.85,-9.167 l 3.85,-1.243 -0.615,-8.64 c -1.376,-19.307 -3.231,-34.684 -4.434,-36.763 -0.419,-0.724 -3.143,0.635 -7.646,3.814 M 1439,1417.925 c -0.825,0.432 -42,14.652 -91.5,31.601 -49.5,16.949 -90.338,31.1 -90.75,31.445 -0.994,0.834 -71.929,212.658 -74.017,221.029 -0.892,3.575 -2.109,9.558 -2.704,13.296 -0.949,5.96 -0.853,7.312 0.782,11 2.105,4.747 3.221,5.8 8.189,7.725 5.758,2.231 9.754,5.843 12.451,11.257 4.312,8.652 2.632,18.306 -4.376,25.149 -3.48,3.398 -7.742,5.139 -44.295,18.102 -22.245,7.888 -44.233,15.122 -48.862,16.076 -4.777,0.983 -13.223,1.768 -19.526,1.814 l -11.109,0.081 3.281,4.008 c 6.758,8.257 15.901,14.192 27.936,18.134 6.595,2.16 10.283,2.68 21,2.956 19.962,0.516 22.084,-0.041 83,-21.796 7.7,-2.75 17.173,-6.091 21.05,-7.424 12.506,-4.3 18.779,-11.769 18.794,-22.378 0.013,-9.459 -4.69,-16.434 -13.844,-20.529 -9.493,-4.248 -11.643,-9.257 -11.067,-25.786 0.215,-6.152 0.686,-12.985 1.048,-15.185 0.361,-2.2 16.066,-50.35 34.901,-107 l 34.244,-103 29.437,-10.168 c 16.19,-5.593 50.573,-17.429 76.406,-26.303 25.833,-8.874 47.186,-16.351 47.451,-16.616 0.556,-0.555 -4.888,-35.318 -5.809,-37.092 -0.361,-0.697 -1.226,-0.859 -2.111,-0.396 m 1294,195.409 c -11.633,3.453 -20.995,8.056 -69.244,34.046 -13.058,7.035 -23.979,13.172 -24.267,13.639 -0.289,0.466 2.02,5.265 5.131,10.665 20.044,34.789 42.674,73.873 42.955,74.186 0.183,0.204 8.919,-4.224 19.415,-9.839 l 19.083,-10.209 -3.721,-6.661 c -2.047,-3.663 -5.206,-9.128 -7.02,-12.143 -2.591,-4.306 -3.033,-5.731 -2.065,-6.649 0.678,-0.642 7.41,-4.363 14.959,-8.268 19.535,-10.105 21.396,-9.827 29.468,4.41 2.643,4.662 5.208,8.479 5.7,8.482 0.769,0.01 33.781,-17.499 37.398,-19.83 0.98,-0.632 0.042,-2.981 -3.892,-9.748 -8.084,-13.902 -12.27,-17.434 -20.618,-17.399 -3.605,0.015 -12.509,1.863 -16.782,3.483 -1.1,0.417 0.322,-1.324 3.16,-3.869 5.914,-5.304 10.34,-13.327 10.34,-18.743 0,-2.339 -1.318,-6.206 -3.549,-10.411 -5.185,-9.774 -7.271,-12.207 -12.84,-14.983 -6.335,-3.156 -13.356,-3.204 -23.611,-0.159 m -15.079,31.033 c -2.796,1 -28.427,14.057 -29.712,15.137 -0.305,0.256 10.569,19.362 11.878,20.868 1.066,1.227 25.446,-12.119 30.081,-16.467 2.18,-2.045 3.832,-4.539 3.832,-5.783 0,-3.757 -4.805,-11.97 -7.956,-13.599 -3.48,-1.8 -3.522,-1.801 -8.123,-0.156 m -152.348,51.234 c -29.66,13.981 -54.171,25.664 -54.469,25.962 -0.72,0.719 42.653,87.437 43.732,87.437 0.757,0 100.956,-46.773 107.976,-50.403 l 2.927,-1.514 -4.942,-9.585 c -4.005,-7.768 -5.285,-9.478 -6.744,-9.015 -0.99,0.314 -15.244,6.906 -31.676,14.648 -16.433,7.743 -31.792,14.915 -34.133,15.94 l -4.255,1.863 -3.98,-7.917 c -2.19,-4.354 -3.65,-8.113 -3.245,-8.353 0.405,-0.24 14.461,-6.84 31.236,-14.667 16.775,-7.827 31.737,-14.864 33.249,-15.639 l 2.748,-1.408 -4.115,-8.225 c -2.263,-4.524 -4.232,-8.357 -4.376,-8.519 -0.144,-0.162 -15.504,6.855 -34.134,15.593 l -33.872,15.887 -3.662,-7.093 c -2.014,-3.901 -3.364,-7.392 -3,-7.756 0.364,-0.365 15.287,-7.503 33.162,-15.862 17.875,-8.359 33.284,-15.613 34.243,-16.118 1.577,-0.832 1.264,-1.875 -3.259,-10.889 -2.751,-5.482 -5.111,-9.927 -5.243,-9.878 -0.133,0.05 -24.508,11.53 -54.168,25.511 M 2445,1749.091 c -25.025,10.422 -49.887,20.789 -55.25,23.039 -5.363,2.249 -9.75,4.538 -9.75,5.086 0,1.2 37.915,86.953 38.934,88.058 0.566,0.613 39.236,-15.027 110.774,-44.802 l 3.208,-1.335 -4.325,-9.602 c -2.379,-5.282 -4.539,-9.816 -4.8,-10.077 -0.261,-0.261 -16.799,6.3 -36.752,14.581 -19.953,8.28 -36.41,14.921 -36.572,14.758 -0.162,-0.163 -1.892,-3.807 -3.846,-8.097 l -3.553,-7.8 4.216,-1.781 c 2.319,-0.98 18.015,-7.525 34.881,-14.546 l 30.665,-12.765 -3.011,-6.654 c -1.655,-3.66 -3.389,-7.621 -3.852,-8.804 -0.813,-2.077 -2.022,-1.661 -35.576,12.245 -19.104,7.917 -34.871,14.258 -35.039,14.09 -1.409,-1.409 -6.307,-14.119 -5.671,-14.717 0.45,-0.424 16.344,-7.165 35.319,-14.98 18.975,-7.816 34.675,-14.372 34.888,-14.571 0.513,-0.475 -8.183,-20.438 -8.863,-20.346 -0.289,0.038 -21,8.597 -46.025,19.02 m -104.5,44.556 c -7.3,1.129 -20.605,5.267 -41.5,12.908 -12.375,4.525 -30.825,11.267 -41,14.981 -10.175,3.715 -18.908,7.12 -19.407,7.567 -0.851,0.761 2.493,9.7 25.76,68.863 4.643,11.806 8.875,21.61 9.403,21.786 1.672,0.557 82.286,-29.594 92.818,-34.716 16.969,-8.253 24.426,-15.945 24.426,-25.195 0,-3.723 -2.848,-12.995 -5.14,-16.736 -3.403,-5.553 -13.541,-8.514 -24.658,-7.203 -3.411,0.402 -6.202,0.6 -6.202,0.44 0,-0.16 1.401,-1.015 3.114,-1.901 5.48,-2.834 11.807,-9.433 12.886,-13.44 0.809,-3.005 0.615,-5.028 -0.968,-10.128 -2.548,-8.205 -5.968,-13.14 -10.644,-15.359 -3.757,-1.783 -13.317,-2.728 -18.888,-1.867 m -20.973,29.085 c -1.672,0.424 -22.126,7.842 -30.68,11.126 l -2.653,1.019 3.036,7.561 c 1.67,4.159 3.439,7.562 3.932,7.562 2.826,0 33.726,-12.566 35.765,-14.544 2.311,-2.243 2.362,-2.55 1.066,-6.478 -1.957,-5.929 -4.866,-7.666 -10.466,-6.246 m -1.284,38.642 c -9.492,3.469 -17.551,6.601 -17.911,6.96 -0.615,0.616 4.237,14.427 5.555,15.809 0.73,0.766 32.902,-11.119 36.526,-13.494 3.899,-2.555 4.583,-4.62 3.028,-9.142 -1.582,-4.603 -3.769,-6.521 -7.382,-6.474 -1.408,0.019 -10.325,2.872 -19.816,6.341 M 2043,1890.687 c -32.725,9.625 -59.583,17.579 -59.684,17.674 -0.656,0.619 6.3,20.639 7.171,20.639 0.597,0 9.581,-2.475 19.966,-5.5 10.385,-3.024 18.984,-5.387 19.11,-5.25 0.125,0.138 0.68,1.825 1.233,3.75 6.696,23.329 21.18,68.006 22.037,67.977 2.404,-0.082 40.636,-11.885 40.882,-12.621 0.167,-0.503 -4.657,-16.832 -10.721,-36.286 -6.065,-19.454 -10.907,-35.471 -10.76,-35.593 0.146,-0.122 8.591,-2.606 18.766,-5.519 10.175,-2.913 18.905,-5.648 19.4,-6.077 1.236,-1.073 -5.143,-20.906 -6.686,-20.788 -0.668,0.051 -27.989,7.969 -60.714,17.594 m -102.5,29.383 c -9.866,0.805 -15.181,1.871 -38,7.627 -36.176,9.126 -50.105,15.97 -57.257,28.137 -2.477,4.213 -2.741,5.588 -2.722,14.166 0.018,7.922 0.666,11.826 3.903,23.5 2.134,7.7 4.898,16.33 6.142,19.178 3.09,7.078 9.376,13.62 15.707,16.346 6.612,2.848 19.416,3.69 30.797,2.026 9.758,-1.427 44.942,-9.97 56.43,-13.702 16.724,-5.433 29.619,-13.939 34.094,-22.49 1.084,-2.07 1.925,-6.432 2.195,-11.373 0.383,-7.03 -0.077,-9.978 -3.751,-24 -2.304,-8.792 -5.045,-17.933 -6.092,-20.315 -6.664,-15.154 -19.167,-20.917 -41.446,-19.1 m -32,30.301 c -6.6,1.768 -13.423,3.973 -15.162,4.902 -4.236,2.261 -7.338,6.384 -7.338,9.754 0,3.408 5.295,24.013 8.091,31.487 3.548,9.481 8.799,10.466 28.873,5.414 20.069,-5.051 25.036,-8.19 25.036,-15.823 0,-3.451 -5.806,-26.501 -8.158,-32.389 -3.083,-7.715 -11.623,-8.626 -31.342,-3.345 m -128.5,6.697 c -9.751,1.044 -41.855,7.326 -54,10.567 -19.224,5.131 -32.345,13.315 -37.189,23.196 -1.865,3.804 -2.276,6.244 -2.218,13.169 0.089,10.808 5.359,35.114 9.458,43.623 9.436,19.589 27.175,22.656 74.692,12.911 34.706,-7.118 47.586,-11.899 56.924,-21.13 5.832,-5.765 8.333,-12.076 8.333,-21.028 0,-6.97 -6.47,-36.537 -9.393,-42.922 -4.922,-10.754 -13.163,-16.566 -26.107,-18.415 -7.832,-1.118 -9.799,-1.115 -20.5,0.029 m -26.161,28.35 c -12.738,2.707 -16.442,4.077 -20.089,7.429 -3.672,3.375 -3.626,8.072 0.254,25.872 4.823,22.131 6.99,23.534 29.695,19.237 19.921,-3.771 26.161,-6.745 27.686,-13.193 0.372,-1.576 -0.426,-7.939 -1.883,-15 -5.241,-25.412 -6.179,-26.812 -17.887,-26.687 -3.913,0.042 -11.912,1.096 -17.776,2.342 M 1618,1987.507 c -11.398,1.269 -71.853,9.944 -77.368,11.102 -2.708,0.568 -2.84,0.833 -2.368,4.746 0.692,5.743 13.805,89.891 14.217,91.236 0.228,0.744 7.103,0.09 21.676,-2.062 19.435,-2.871 21.337,-3.326 21.276,-5.091 -0.037,-1.066 -0.877,-7.248 -1.867,-13.738 -0.989,-6.491 -1.634,-11.958 -1.432,-12.149 0.201,-0.191 6.875,-1.341 14.831,-2.555 24.173,-3.689 26.809,-2.528 29.002,12.772 0.712,4.971 1.613,9.552 2.001,10.18 0.515,0.833 6.484,0.293 22.119,-2.001 11.777,-1.727 21.546,-3.268 21.709,-3.424 0.869,-0.828 -3.875,-23.973 -5.475,-26.713 -2.862,-4.901 -9.765,-7.968 -19.574,-8.697 l -8.247,-0.613 5,-1.912 c 8.618,-3.294 14.435,-7.709 17.246,-13.088 3.184,-6.091 0.714,-23.587 -4.248,-30.091 -6.431,-8.432 -21.576,-10.9 -48.498,-7.902 m -19.5,24.855 c -11.057,1.689 -13.96,2.453 -13.812,3.638 0.664,5.292 3.476,22.497 3.716,22.737 0.16,0.161 6.547,-0.622 14.194,-1.739 23.446,-3.424 27.289,-5.596 25.931,-14.655 -1.084,-7.228 -2.236,-9.323 -5.991,-10.891 -4.357,-1.821 -6.744,-1.731 -24.038,0.91"
       stroke="none"
       fill="#d28816"
       fill-rule="evenodd"
       id="path131" /><path
       d="m 2319.959,0.324 c -0.253,0.225 -8.109,0.709 -17.459,1.076 -9.35,0.368 -19.7,0.884 -23,1.147 -3.3,0.264 -15.225,1.161 -26.5,1.994 -75.375,5.569 -166.614,18.444 -254.5,35.912 -190.858,37.935 -409.156,103.816 -583.5,176.095 -10.175,4.218 -20.975,8.69 -24,9.937 -36.991,15.248 -109.53,48.749 -157,72.507 -121.631,60.875 -251.856,138.967 -338.547,203.019 -48.567,35.883 -76.651,78.896 -84.548,129.489 -1.643,10.526 -1.658,36.677 -0.027,48 1.709,11.869 5.542,27.641 8.634,35.531 1.368,3.491 2.488,6.847 2.488,7.457 0,0.61 -6.638,6.082 -14.75,12.161 -24.718,18.519 -70.25,55.66 -88.75,72.395 -2.2,1.99 -8.95,8.06 -15,13.489 -81.368,73.014 -156.708,156.092 -212.946,234.818 -87.595,122.623 -136.62,241.534 -147.039,356.649 -1.492,16.481 -1.728,64.26 -0.395,80 3.754,44.323 13.732,88.105 28.604,125.5 16.642,41.846 41.729,83.173 72.238,119 12.573,14.764 40.658,42.655 56.038,55.649 29.647,25.048 60.727,46.654 97.686,67.911 17.578,10.109 63.807,33.272 80.814,40.491 47.072,19.981 92.415,36.13 136,48.436 4.4,1.242 9.125,2.641 10.5,3.109 3.983,1.356 28.773,7.708 50.5,12.94 53.105,12.787 94.434,20.564 154,28.979 20.466,2.891 24.185,3.388 33.5,4.469 2.475,0.288 10.125,1.178 17,1.98 6.875,0.801 15.2,1.72 18.5,2.04 3.3,0.321 8.025,0.784 10.5,1.029 19.47,1.926 50.233,4.052 72.5,5.01 29.465,1.269 28.45,1.045 28.485,6.276 0.01,1.275 1.13,6.675 2.492,12 6.759,26.42 21.751,52.639 41.788,73.08 32.602,33.26 75.36,52.278 132.735,59.037 8.358,0.984 131.21,0.713 137.5,-0.304 1.65,-0.267 9.975,-0.751 18.5,-1.075 8.525,-0.325 21.35,-1.01 28.5,-1.522 7.15,-0.513 17.275,-1.201 22.5,-1.53 5.225,-0.33 16.925,-1.261 26,-2.07 9.075,-0.81 19.425,-1.727 23,-2.038 3.575,-0.311 13.925,-1.429 23,-2.483 9.075,-1.055 18.75,-2.172 21.5,-2.482 43.681,-4.929 112.255,-16.417 164.5,-27.559 94.098,-20.069 161.866,-38.613 374,-102.343 117.67,-35.351 201.848,-67.792 314,-121.013 147.367,-69.93 324.664,-174.997 418.32,-247.898 28.781,-22.403 46.107,-44.206 56.752,-71.415 9.188,-23.488 12.404,-42.108 12.298,-71.204 -0.081,-22.144 -1.748,-35.611 -6.87,-55.5 l -2.576,-10 3.288,-2.654 c 1.808,-1.46 14.574,-11.647 28.368,-22.637 122.109,-97.293 223.694,-200.614 298.112,-303.209 73.099,-100.777 120.145,-201.06 139.262,-296.852 3.105,-15.56 4.997,-27.606 7.64,-48.648 1.932,-15.38 2.796,-74.693 1.34,-92 -3.138,-37.296 -11.813,-79.107 -23.758,-114.5 C 3435.054,448.004 3353.465,358.901 3226.215,289.388 3105.667,223.536 2941.171,176.444 2757,155.063 c -40.089,-4.654 -67.528,-6.922 -116.5,-9.63 -6.05,-0.334 -11.277,-0.906 -11.615,-1.27 -0.338,-0.365 -1.158,-3.525 -1.822,-7.023 -1.701,-8.964 -7.404,-24.861 -12.752,-35.549 C 2590.243,53.492 2547.37,21.88 2487.5,8.086 2476.538,5.56 2462.23,3.323 2451.5,2.458 2447.1,2.102 2442.375,1.579 2441,1.294 2438.013,0.676 2320.62,-0.265 2319.959,0.324 M 2313,22.284 c -0.275,0.248 -9.05,0.756 -19.5,1.129 -10.45,0.373 -20.575,0.868 -22.5,1.101 -1.925,0.233 -7.55,0.676 -12.5,0.985 -136.609,8.527 -320.484,43.048 -493.5,92.651 -245.375,70.349 -446.53,153.68 -643.022,266.38 -92.469,53.037 -195.395,121.33 -225.191,149.416 -54.863,51.716 -73.255,120.987 -49.966,188.198 l 2.937,8.477 -14.129,10.534 c -78.401,58.452 -171.522,146.006 -239.707,225.376 -148.393,172.734 -222.569,345.66 -214.875,500.937 0.572,11.559 1.238,22.369 1.478,24.024 0.241,1.654 0.909,7.058 1.485,12.008 9.076,77.949 40.129,150.474 91.569,213.86 13.599,16.757 48.761,51.61 67.252,66.661 116.138,94.529 285.923,158.764 503.669,190.554 31.552,4.606 81.279,10.152 107,11.933 4.4,0.305 9.575,0.745 11.5,0.978 1.925,0.233 9.8,0.695 17.5,1.026 7.7,0.332 14.953,0.796 16.119,1.032 1.165,0.235 8.055,0.47 15.312,0.521 9.164,0.065 13.288,0.451 13.506,1.264 0.173,0.644 0.802,4.339 1.399,8.211 5.967,38.697 37.125,82.266 76.203,106.556 24.131,14.999 58.147,26.24 90.126,29.784 5.134,0.569 12.035,1.33 15.335,1.692 6.869,0.753 70.774,0.739 89.5,-0.02 6.875,-0.278 19.925,-0.749 29,-1.045 80.525,-2.633 170.567,-11.8 251,-25.555 95.864,-16.393 191.603,-40.305 345.5,-86.294 143.608,-42.914 173.268,-52.331 221.5,-70.328 161.711,-60.341 343.797,-154.205 502,-258.778 77.889,-51.485 109.094,-76.758 125.858,-101.932 8.561,-12.858 11.669,-18.835 16.436,-31.62 13.599,-36.464 15.01,-77.923 4.13,-121.391 -1.361,-5.44 -2.351,-9.968 -2.2,-10.061 2.809,-1.734 44.19,-34.977 61.775,-49.627 117.331,-97.748 214.981,-202.917 282.658,-304.421 118.313,-177.45 151.685,-348.223 99.011,-506.667 -7.121,-21.418 -12.638,-34.815 -22.182,-53.86 -72.879,-145.44 -242.864,-252.523 -492.918,-310.519 -68.052,-15.783 -147.173,-28.64 -215.068,-34.948 -9.35,-0.869 -18.35,-1.756 -20,-1.971 -1.65,-0.215 -7.725,-0.688 -13.5,-1.05 -5.775,-0.363 -11.466,-0.807 -12.646,-0.987 -1.18,-0.18 -9.955,-0.653 -19.5,-1.05 -9.545,-0.398 -18.029,-0.851 -18.854,-1.009 -0.825,-0.157 -3.129,-0.32 -5.12,-0.362 l -3.62,-0.077 -2.075,-8.897 c -6.719,-28.809 -20.956,-53.918 -43.163,-76.125 -31.371,-31.371 -70.316,-48.157 -126.677,-54.601 -10.407,-1.19 -28,-1.702 -70.845,-2.064 -31.35,-0.264 -57.225,-0.278 -57.5,-0.029 m -122.329,59.193 c -30.878,5.373 -44.607,10.553 -51.38,19.386 -4.289,5.593 -4.871,9.611 -3.028,20.887 1.819,11.131 4.485,15.308 12.288,19.25 4.574,2.311 5.934,2.491 17.949,2.375 17.006,-0.163 37.073,-3.877 46.483,-8.603 3.584,-1.799 6.797,-3.403 7.139,-3.563 0.731,-0.341 2.878,13.319 2.878,18.309 0,2.467 -0.634,3.844 -2.25,4.885 -2.975,1.916 -16.239,4.581 -26.385,5.301 l -8.135,0.577 -1.812,-2.891 c -0.997,-1.589 -1.891,-3.02 -1.987,-3.178 -0.095,-0.158 -8.288,1.079 -18.206,2.75 -9.917,1.671 -18.242,3.038 -18.499,3.038 -1.065,0 1.425,9.692 3.082,12 0.988,1.375 4.023,3.625 6.744,5 7.599,3.84 24.566,4.023 46.471,0.501 44.724,-7.189 56.551,-14.423 57.761,-35.324 0.508,-8.787 -2.714,-32.847 -5.794,-43.262 -2.474,-8.366 -7.878,-14.746 -15.202,-17.948 -8.919,-3.9 -23.673,-3.743 -48.117,0.51 m -96.588,17.18 -21.417,4.458 -9.349,8.042 -9.349,8.043 3.19,3.65 c 1.754,2.007 5.224,5.966 7.712,8.798 l 4.523,5.147 6.706,-5.516 c 3.688,-3.034 7.07,-5.481 7.515,-5.437 0.446,0.044 3.58,15.188 6.965,33.653 3.386,18.465 6.361,33.779 6.613,34.03 0.251,0.252 8.636,-1.18 18.632,-3.181 15.333,-3.069 18.176,-3.914 18.176,-5.404 0,-0.971 -1.303,-8.668 -2.895,-17.103 -1.592,-8.435 -5.305,-28.499 -8.25,-44.586 -2.945,-16.088 -5.805,-29.205 -6.355,-29.151 -0.55,0.055 -10.638,2.105 -22.417,4.557 m 101.417,0.446 c -22.281,4.093 -23.084,4.62 -22.031,14.448 0.783,7.312 2.87,10.449 6.952,10.449 1.331,0 9.093,-1.127 17.25,-2.504 18.615,-3.143 19.939,-3.959 19.555,-12.049 -0.15,-3.175 -0.829,-6.937 -1.509,-8.36 -1.143,-2.392 -1.765,-2.599 -8.227,-2.745 -3.844,-0.087 -9.24,0.256 -11.99,0.761 m -194.469,17.976 c -10.02,1.773 -35.427,7.944 -43.531,10.574 -17.146,5.563 -27.956,13.463 -30.629,22.382 -1.075,3.591 -1.002,5.517 0.486,12.744 2.974,14.449 6.347,18.916 16.517,21.873 7.649,2.223 18.913,1.306 37.126,-3.023 15.598,-3.708 22.554,-6.289 27.857,-10.334 2.286,-1.743 3.584,-2.2 4.061,-1.428 0.385,0.623 1.529,5.218 2.543,10.209 l 1.842,9.075 -2.453,2.454 c -2.788,2.788 -23.198,8.374 -30.647,8.387 -3.666,0.007 -4.533,-0.405 -5.912,-2.808 l -1.617,-2.817 -17.9,4.213 c -9.845,2.317 -18.126,4.438 -18.401,4.714 -1.14,1.14 1.057,8.064 3.469,10.93 5.277,6.271 16.328,8.548 32.092,6.612 10.747,-1.321 43.717,-9.236 51.724,-12.418 19.482,-7.744 26.309,-17.06 25.062,-34.205 -0.751,-10.323 -6.969,-36.798 -10.089,-42.954 -2.817,-5.56 -8.235,-10.766 -13.558,-13.027 -4.35,-1.848 -20.387,-2.507 -28.042,-1.153 m -3.531,19.703 c -7.535,0.798 -28.655,6.552 -31.095,8.471 -2.428,1.91 -2.604,2.528 -2.105,7.369 0.3,2.906 1.147,6.543 1.881,8.081 1.942,4.069 7.759,4.159 23.36,0.365 19.178,-4.665 20.636,-5.882 18.418,-15.376 -1.815,-7.767 -3.965,-9.598 -10.459,-8.91 m -109.908,8.813 -19.907,5.448 -9.343,8.576 c -5.138,4.716 -9.342,8.809 -9.342,9.094 0,0.419 7.106,8.863 13.609,16.172 1.024,1.151 2.434,0.306 8.354,-5 3.916,-3.512 7.527,-6.527 8.023,-6.7 1.034,-0.36 0.775,-1.28 9.514,33.815 3.629,14.575 7.022,28.108 7.54,30.073 l 0.942,3.572 18.259,-4.937 c 10.042,-2.715 18.342,-5.006 18.444,-5.091 0.102,-0.085 -4.874,-20.395 -11.058,-45.135 -9.868,-39.482 -11.48,-45.004 -13.185,-45.158 -1.068,-0.097 -10.9,2.275 -21.85,5.271 M 1674,207.975 c -29.975,9.764 -54.453,18.152 -54.395,18.639 0.478,4.016 27.073,88.39 27.865,88.402 0.77,0.011 110.124,-34.874 111.241,-35.488 0.22,-0.121 -5.708,-18.859 -6.087,-19.237 -0.12,-0.121 -16.172,4.936 -35.671,11.235 -19.499,6.3 -35.925,11.459 -36.503,11.464 -0.973,0.009 -5.459,-13.359 -5.443,-16.219 0,-0.787 12.95,-5.43 34,-12.195 24.755,-7.956 33.993,-11.334 33.993,-12.43 0,-2.142 -4.276,-15.146 -4.981,-15.146 -0.322,0 -15.854,4.93 -34.515,10.955 -18.66,6.025 -34.095,10.787 -34.299,10.584 -0.947,-0.948 -4.966,-15.567 -4.375,-15.917 0.369,-0.218 16.146,-5.386 35.062,-11.484 18.915,-6.098 34.617,-11.314 34.894,-11.591 0.615,-0.614 -5.002,-19.592 -5.752,-19.436 -0.294,0.061 -25.059,8.1 -55.034,17.864 m 762.963,11.342 c -0.254,0.226 -12.163,0.721 -26.463,1.1 -14.3,0.38 -28.025,0.857 -30.5,1.061 -2.475,0.204 -10.125,0.637 -17,0.964 -82.661,3.924 -181.908,15.08 -277,31.136 -173.391,29.276 -352.216,77.826 -523.5,142.126 -300.203,112.697 -563.228,267.924 -759.48,448.216 -19.405,17.827 -73.124,71.806 -90.143,90.58 -85.251,94.04 -146.35,187.308 -184.084,281 -39.203,97.342 -50.094,191.922 -32.226,279.855 9.927,48.856 30.95,99.368 58.744,141.145 29.157,43.824 69.864,86.223 116.189,121.015 51.735,38.855 117.928,74.037 189,100.454 105.998,39.399 227.907,64.441 363,74.566 3.85,0.289 9.475,0.736 12.5,0.994 61.39,5.238 190.838,5.223 265,-0.031 4.125,-0.292 10.65,-0.747 14.5,-1.011 387.357,-26.566 812.855,-157.009 1158,-355 206.867,-118.669 379.472,-258.374 498.505,-403.487 120.1,-146.414 182.739,-293.293 182.739,-428.5 0,-110.834 -41.37,-210.054 -121.685,-291.845 -47.05,-47.916 -99.277,-84.83 -168.559,-119.139 -109.604,-54.276 -249.28,-91.289 -400,-105.994 -8.8,-0.859 -17.8,-1.766 -20,-2.016 -5.051,-0.574 -27.034,-2.246 -39.5,-3.004 -5.225,-0.318 -11.75,-0.771 -14.5,-1.008 -2.75,-0.236 -11.75,-0.703 -20,-1.039 -8.25,-0.335 -17.925,-0.812 -21.5,-1.06 -8.77,-0.608 -111.451,-1.596 -112.037,-1.078 M 1565.5,245.953 c -16.198,2.638 -51.415,15.407 -66,23.929 -7.649,4.47 -15.118,11.448 -17.728,16.564 -2.592,5.083 -3.39,14.811 -1.767,21.574 2.579,10.75 11.06,32.582 14.742,37.95 6.779,9.881 18.165,13.59 33.993,11.074 8.744,-1.39 24.286,-6.178 41.078,-12.655 30.53,-11.776 42.707,-22.087 43.993,-37.254 0.449,-5.284 -1.238,-15.663 -2.691,-16.561 -0.593,-0.367 -37.928,12.9 -38.824,13.796 -0.133,0.134 0.217,1.905 0.778,3.936 2.169,7.855 -3.351,13.248 -19.355,18.911 -16.651,5.892 -20.362,3.821 -27.263,-15.217 -2.492,-6.875 -4.967,-14.419 -5.501,-16.764 -2.006,-8.82 2.757,-13.58 19.378,-19.366 10.746,-3.741 15.921,-3.77 19.58,-0.11 1.518,1.517 2.977,3.409 3.241,4.203 0.382,1.145 4.398,0.026 19.414,-5.41 10.413,-3.769 19.091,-6.982 19.285,-7.139 0.721,-0.585 -4.628,-11.026 -7.217,-14.086 -5.372,-6.351 -17.139,-9.33 -29.136,-7.375 m 848.5,8.059 c -25.751,0.69 -46.178,1.539 -60.5,2.516 -3.85,0.262 -17.575,1.164 -30.5,2.005 -74.112,4.818 -159.657,15.216 -243,29.538 -25.405,4.366 -80.242,14.835 -94,17.946 -4.675,1.057 -13.9,3.096 -20.5,4.531 -183.522,39.895 -373.408,102.622 -548.5,181.192 -45.228,20.296 -118.93,56.61 -162,79.821 -165.391,89.129 -315.411,195.266 -427.5,302.449 -25.691,24.566 -31.044,29.919 -50.989,50.99 -125.751,132.848 -201.596,263.527 -226.932,391 -6.792,34.173 -8.017,47.338 -8.05,86.5 -0.031,38.193 0.721,47.023 6.58,77.224 19.032,98.092 76.358,184.901 167.391,253.481 15.848,11.939 42.4,29.502 61,40.348 103.936,60.608 244.536,103.233 400.5,121.416 34.571,4.03 51.607,5.598 81.5,7.501 13.2,0.84 26.66,1.743 29.911,2.007 31.467,2.553 163.968,2.582 192.589,0.042 2.475,-0.22 9.9,-0.666 16.5,-0.992 54.641,-2.696 126.646,-9.71 190,-18.508 212.355,-29.488 430.196,-87.781 638.5,-170.857 337.653,-134.664 625.17,-327.726 801.455,-538.162 101.358,-120.995 162.297,-243.226 178.481,-358 5.854,-41.514 5.49,-89.151 -0.966,-126.5 -6.901,-39.922 -16.827,-70.295 -34.971,-107 -15.587,-31.535 -31.916,-56.24 -55.52,-84 C 3098.918,364.59 2878.909,277.928 2599,258.063 c -15.125,-1.073 -33.8,-2.21 -41.5,-2.526 -7.7,-0.316 -17.375,-0.8 -21.5,-1.076 -13.214,-0.883 -94.599,-1.182 -122,-0.449 m -991.396,44.556 c -9.292,4.065 -17.098,7.593 -17.347,7.841 -0.397,0.397 7.755,20.817 21.366,53.525 2.388,5.739 4.175,10.601 3.971,10.805 -0.204,0.204 -15.816,-9.62 -34.693,-21.833 -18.878,-12.212 -35.015,-22.384 -35.862,-22.604 -1.121,-0.292 -54.996,21.687 -56.8,23.172 -0.144,0.118 6.733,17.273 15.282,38.121 8.549,20.848 16.512,40.268 17.695,43.155 1.184,2.887 2.479,5.25 2.878,5.25 1.759,0 35.387,-15.001 35.217,-15.71 -0.104,-0.435 -6.047,-14.947 -13.207,-32.249 -7.16,-17.303 -12.848,-31.63 -12.64,-31.838 0.208,-0.208 15.376,9.406 33.707,21.364 18.331,11.959 34.269,22.353 35.418,23.097 1.883,1.221 4.788,0.21 29.5,-10.272 15.076,-6.394 27.772,-11.957 28.213,-12.361 0.441,-0.404 -5.931,-17.114 -14.16,-37.133 -8.229,-20.019 -16.175,-39.436 -17.658,-43.148 -1.483,-3.712 -2.986,-6.71 -3.34,-6.661 -0.354,0.049 -8.247,3.415 -17.54,7.479 M 2377,293.704 c -18.039,0.372 -63.86,2.29 -78.5,3.286 -7.7,0.523 -21.2,1.428 -30,2.012 -42.942,2.845 -108.636,9.728 -158,16.552 -332.176,45.924 -663.071,161.947 -942,330.298 -122.134,73.715 -230.302,154.147 -319,237.202 -20.841,19.516 -37.945,36.722 -30.5,30.684 22.265,-18.059 89.255,-63.7 138.5,-94.362 270.754,-168.582 570.894,-298.587 834.157,-361.31 117.367,-27.963 209.192,-41.043 333.843,-47.551 60.264,-3.147 146.396,-3.156 193,-0.021 4.4,0.296 11.375,0.755 15.5,1.018 76.699,4.906 151.963,16.161 215,32.152 23.634,5.995 34.708,9.234 59.828,17.498 11.73,3.859 21.456,6.863 21.613,6.677 0.157,-0.186 2.019,-5.514 4.137,-11.839 3.393,-10.13 3.897,-12.885 4.238,-23.126 0.333,-9.985 0.106,-12.262 -1.607,-16.134 -1.738,-3.93 -2.62,-4.716 -6.883,-6.132 -9.78,-3.248 -17.294,-12.872 -17.316,-22.179 -0.013,-5.312 4.45,-14.022 8.99,-17.544 4.841,-3.756 102.501,-37.885 108.408,-37.885 12.696,0 40.466,10.644 57.092,21.882 4.576,3.093 10.117,5.697 16,7.52 13.933,4.316 21.856,8.93 31.052,18.083 9.002,8.959 13.287,16.466 16.028,28.08 2.342,9.924 1.432,26.893 -2.09,38.935 -3.347,11.446 -14.979,48.633 -25.493,81.5 -4.486,14.025 -9.222,28.839 -10.525,32.92 l -2.368,7.42 4.698,4.025 c 10.726,9.19 36.115,34.984 45.903,46.635 38.758,46.134 65.529,99.61 80.813,161.427 20.534,83.054 12.93,163.514 -23.701,250.794 -7.354,17.521 -24.8,51.552 -36.131,70.476 -26.809,44.774 -62.115,91.643 -106.347,141.175 -29.823,33.397 -105.32,107.481 -137.839,135.259 -88.893,75.935 -241.555,160.283 -416,229.847 -14.85,5.922 -28.718,11.319 -30.817,11.994 -2.099,0.675 -3.638,1.407 -3.419,1.626 1.23,1.229 149.833,-44.151 203.236,-62.064 104.288,-34.982 192.072,-71.514 281,-116.94 203.721,-104.064 363.481,-229.128 463.752,-363.036 14.357,-19.172 33.41,-47.757 44.699,-67.058 10.219,-17.473 30.202,-57.86 36.948,-74.675 16.099,-40.125 26.819,-80.733 32.104,-121.605 2.145,-16.589 3.971,-49.475 3.4,-61.22 -0.174,-3.575 -0.571,-12.303 -0.883,-19.396 -1.346,-30.597 -9.066,-73.432 -18.598,-103.19 -25.676,-80.154 -88.46,-151.497 -181.422,-206.154 -108.242,-63.642 -255.12,-106.068 -430,-124.207 -23.154,-2.402 -45.31,-4.295 -65,-5.555 -4.95,-0.316 -11.7,-0.765 -15,-0.996 -3.3,-0.231 -12.3,-0.678 -20,-0.992 -7.7,-0.314 -17.6,-0.821 -22,-1.127 -8.037,-0.559 -102.871,-1.085 -122.5,-0.679 m 317,77.755 c -19.525,6.877 -40.107,14.134 -45.737,16.127 l -10.237,3.622 4.965,2.475 c 16.277,8.111 23.092,29.89 17.868,57.102 -0.559,2.906 -7.545,24.506 -15.526,48 -7.982,23.493 -19.601,57.79 -25.822,76.215 -46.676,138.251 -126.7,373.001 -136.239,399.656 -3.183,8.894 -5.567,13.136 -7.881,14.024 -2.326,0.893 -5.855,-3.159 -9.344,-10.728 -2.916,-6.328 -4.475,-14.613 -18.102,-96.188 -27.128,-162.406 -40.41,-238.811 -52.013,-299.196 -8.801,-45.806 -11.123,-53.99 -18.441,-65.016 -10.344,-15.584 -32.114,-25.452 -53.491,-24.248 -7.606,0.429 -14.44,2.387 -65,18.62 -31.075,9.977 -57.162,18.375 -57.972,18.662 -0.999,0.354 -0.196,1.234 2.5,2.74 11.115,6.207 17.065,27.022 14.681,51.363 -0.979,9.997 -2.575,15.441 -21.193,72.311 -39.834,121.678 -63.686,194.022 -93.633,284 -43.653,131.161 -57.776,171.687 -61.46,176.371 -2.854,3.628 -7.293,5.133 -10.824,3.67 -6.324,-2.62 -6.376,-2.791 -13.543,-44.943 -10.682,-62.83 -35.18,-203.714 -43.053,-247.598 -13.228,-73.738 -16.227,-90.143 -21.114,-115.5 -7.009,-36.368 -8.616,-42.635 -13.582,-52.96 -7.123,-14.814 -18.128,-23.47 -33.166,-26.089 -13.694,-2.385 -14.154,-2.26 -112.198,30.406 l -90.619,30.192 5.002,3.241 c 29.443,19.079 53.183,89.981 61.661,184.156 0.864,9.595 1.67,17.541 1.792,17.658 0.122,0.117 4.412,0.933 9.535,1.815 18.338,3.156 33.779,10.236 43.743,20.059 11.348,11.186 15.448,21.679 15.436,39.5 -0.015,22.753 -9.41,45.689 -29.04,70.893 l -7.547,9.69 7.547,-1.352 c 10.38,-1.86 33.13,-1.002 42.547,1.603 10.929,3.024 17.336,5.906 26.142,11.759 21.175,14.076 34.6,37.879 40.999,72.693 2.38,12.951 2.393,41.037 0.025,53.236 -5.464,28.143 -16.534,52.927 -34.761,77.825 -8.28,11.308 -30.632,34.436 -41.558,42.999 l -7.152,5.606 0.89,3.785 c 0.489,2.082 6.767,33.71 13.95,70.285 20.464,104.189 19.666,100.484 23.382,108.527 9.104,19.705 28.43,28.917 53.471,25.488 10.269,-1.406 7.124,-0.385 78.612,-25.515 32.45,-11.407 61.25,-21.518 64,-22.469 l 5,-1.728 -4.349,-2.223 c -11.778,-6.018 -18.241,-16.627 -18.934,-31.08 -0.567,-11.813 0.734,-16.552 15.879,-57.828 7.199,-19.619 19.619,-53.447 27.6,-75.172 7.981,-21.725 18.468,-50.3 23.304,-63.5 4.835,-13.2 23.497,-64.05 41.47,-113 17.973,-48.95 38.765,-105.65 46.205,-126 7.441,-20.35 14.63,-38.462 15.977,-40.25 4.699,-6.235 10.682,-3.114 16.066,8.38 3.016,6.438 4.262,13.38 19.815,110.37 34.692,216.337 40.464,251.671 42.059,257.5 3.982,14.547 13.314,27.452 24.896,34.426 3.129,1.884 9.362,4.536 13.85,5.895 6.939,2.099 10.185,2.469 21.662,2.473 h 13.5 l 72,-25.197 c 39.6,-13.859 74.559,-26.126 77.687,-27.26 l 5.688,-2.063 -5.854,-2.925 c -20.949,-10.469 -25.505,-38.026 -12.459,-75.353 11.56,-33.072 130.653,-395.468 192.083,-584.5 7.418,-22.825 16.359,-50.275 19.869,-61 17.005,-51.949 48.514,-150.864 54.472,-171 7.474,-25.259 5.53,-39.696 -6.913,-51.335 -8.408,-7.864 -22.074,-13.174 -36.573,-14.21 -6.917,-0.494 -7.42,-0.352 -42.5,12.004 m -1443.25,3.268 c -9.763,4.723 -17.75,8.928 -17.75,9.344 0,0.417 7.708,17.334 17.128,37.593 9.42,20.26 18.179,39.173 19.463,42.03 l 2.334,5.194 17.788,-8.535 c 9.783,-4.694 18.168,-8.897 18.634,-9.34 0.465,-0.444 -6.456,-16.49 -15.381,-35.66 -8.925,-19.169 -17.718,-38.115 -19.54,-42.103 -1.822,-3.988 -3.675,-7.219 -4.119,-7.18 -0.444,0.038 -8.794,3.934 -18.557,8.657 m -58.25,33.914 c -15.336,2.901 -21.126,5.263 -48.752,19.894 -23.708,12.555 -29.828,16.536 -36.026,23.429 -8.45,9.399 -9.594,18.404 -3.796,29.89 5.068,10.039 11.714,13.887 22.108,12.8 7.871,-0.822 11.967,-2.313 38.966,-14.182 12.925,-5.682 24.4,-10.415 25.5,-10.517 4.314,-0.4 5.603,0.165 7.511,3.295 4.395,7.209 2.068,10.558 -13.011,18.724 -12.318,6.67 -17.453,8.915 -22.096,9.657 -3.236,0.518 -4.14,0.218 -6.27,-2.081 l -2.489,-2.685 -17.495,9.254 -17.495,9.254 2.373,4.683 c 5.882,11.608 15.381,13.62 34.472,7.303 8.387,-2.776 50.745,-24.206 61.372,-31.051 13.61,-8.765 21.701,-19.924 21.779,-30.036 0.048,-6.156 -5.959,-19.287 -10.206,-22.311 -4.135,-2.944 -11.193,-3.81 -19.463,-2.388 -8.472,1.458 -14.278,3.643 -39.482,14.861 -10.725,4.774 -21.042,8.766 -22.926,8.873 -2.876,0.162 -3.799,-0.352 -5.75,-3.205 -1.278,-1.869 -2.324,-3.972 -2.324,-4.673 0,-2.926 5.522,-7.394 16.471,-13.328 13.346,-7.232 18.445,-8.468 21.828,-5.29 l 2.219,2.085 17.241,-9 c 9.483,-4.95 17.241,-9.499 17.241,-10.11 0,-2.686 -5.178,-9.639 -8.216,-11.032 -3.618,-1.659 -10.17,-2.701 -13.284,-2.113 m 327.5,345.38 c -3.399,0.335 -48.307,14.832 -117.555,37.947 l -112.055,37.404 8.597,8.564 c 12.922,12.871 18.383,25.39 19.66,45.064 1.311,20.21 2.817,15.057 -47.481,162.5 -8.255,24.2 -21.302,62.45 -28.992,85 -7.691,22.55 -29.596,86.675 -48.679,142.5 -19.084,55.825 -38.655,113.2 -43.493,127.5 -4.837,14.3 -30.943,90.8 -58.012,170 -53.806,157.428 -52.633,153.489 -51.674,173.5 1.059,22.09 9.104,35.06 25.163,40.565 7.374,2.529 23.383,3.022 33.106,1.02 6.134,-1.263 63.49,-20.762 78.67,-26.746 l 2.754,-1.085 -4.254,-2.104 c -9.015,-4.456 -16.141,-14.568 -18.64,-26.449 -1.573,-7.478 -1.382,-25.171 0.38,-35.183 0.928,-5.271 15.17,-49.514 37.616,-116.85 35.951,-107.853 36.137,-108.374 39.256,-109.64 4.018,-1.631 221.66,-76.33 223.557,-76.729 1.586,-0.333 0.754,-4.764 12.065,64.201 25.395,154.831 24.79,151.748 31.931,162.876 8.161,12.717 21.071,19.124 38.533,19.124 9.749,0 16.463,-1.553 41.047,-9.492 12.65,-4.086 55.237,-17.418 94.637,-29.628 l 71.638,-22.201 -6.765,-3.242 c -19.785,-9.481 -38.132,-37.765 -48.286,-74.437 -1.447,-5.225 -6.753,-36.05 -11.791,-68.5 -5.039,-32.45 -9.248,-59.101 -9.355,-59.225 -0.107,-0.123 -5.017,-0.901 -10.911,-1.729 -18.822,-2.642 -36.24,-7.91 -53.167,-16.082 -15.773,-7.614 -25.582,-14.459 -37.136,-25.914 -17.804,-17.652 -27.886,-36.48 -32.919,-61.471 -2.51,-12.468 -1.567,-36.991 1.931,-50.208 9.855,-37.235 36.946,-77.633 74.572,-111.203 l 7.448,-6.645 -2.641,-2.762 c -3.748,-3.918 -7.336,-12.38 -9.438,-22.261 -2.166,-10.181 -2.454,-45.68 -0.493,-60.68 l 1.2,-9.18 -7.579,-39.32 c -4.168,-21.626 -8.431,-43.37 -9.473,-48.32 -1.043,-4.95 -3.065,-14.625 -4.495,-21.5 -13.907,-66.861 -22.358,-100.068 -28.961,-113.793 -8.953,-18.608 -21.987,-26.915 -39.516,-25.186 M 1393.519,985.25 c -0.23,0.688 -14.663,41.975 -32.074,91.75 -17.41,49.775 -34.485,98.6 -37.945,108.5 -14.773,42.273 -53.382,152.158 -54.074,153.9 -0.959,2.413 -0.947,2.41 25.074,-5.941 11,-3.53 48.031,-15.371 82.291,-26.313 34.259,-10.941 62.573,-20.177 62.92,-20.523 0.567,-0.568 -4.854,-38.198 -22.782,-158.123 -11.194,-74.885 -12.845,-85.997 -17.125,-115.25 -3.891,-26.592 -5.041,-31.717 -6.285,-28 m 1347.425,626.911 c -11.923,1.542 -26.368,8.25 -77.061,35.79 l -24.617,13.373 12.184,21.088 c 6.7,11.598 17.674,30.589 24.385,42.201 l 12.202,21.112 17.232,-9.31 c 9.477,-5.12 17.884,-9.706 18.683,-10.191 1.178,-0.715 0.114,-3.161 -5.661,-13.005 -5.154,-8.786 -6.792,-12.385 -5.951,-13.076 0.638,-0.525 7.869,-4.418 16.068,-8.653 12.583,-6.499 15.443,-7.614 18.339,-7.144 4.697,0.763 5.497,1.596 11.34,11.807 l 5.107,8.924 6.153,-3.372 c 3.384,-1.854 11.891,-6.47 18.903,-10.258 7.012,-3.788 12.747,-7.126 12.742,-7.417 0,-0.292 -2.816,-5.215 -6.25,-10.942 -7.351,-12.262 -9.864,-14.088 -19.387,-14.088 -3.397,0 -9.029,0.894 -12.516,1.987 -3.486,1.093 -6.528,1.993 -6.759,2 -0.232,0.01 2.375,-2.517 5.791,-5.609 10.903,-9.866 12.856,-17.934 7.018,-28.987 -7.635,-14.454 -13.835,-18.055 -27.945,-16.23 m -25.944,32.76 c -6.344,2.576 -26.367,13.679 -26.752,14.834 -0.388,1.164 11.447,21.745 12.505,21.745 1.561,0 26.188,-13.827 29.524,-16.577 4.652,-3.835 5.346,-7.004 2.721,-12.427 -4.533,-9.363 -8.982,-11.236 -17.998,-7.575 m -150,51.572 c -36.159,17.09 -53.395,25.727 -53.177,26.647 0.177,0.748 9.97,20.329 21.762,43.514 l 21.439,42.154 5.084,-2.453 c 2.797,-1.349 27.204,-12.815 54.239,-25.481 27.034,-12.665 49.45,-23.331 49.813,-23.701 0.364,-0.37 -1.436,-4.797 -4,-9.838 l -4.66,-9.165 -34,16.023 c -18.7,8.813 -34.907,16.232 -36.015,16.487 -1.679,0.386 -2.669,-0.878 -5.939,-7.586 -2.158,-4.427 -3.698,-8.276 -3.421,-8.553 0.278,-0.277 15.1,-7.319 32.94,-15.648 17.839,-8.33 32.806,-15.482 33.26,-15.895 0.641,-0.581 -5.217,-14.03 -6.923,-15.896 -0.417,-0.456 -5.954,2.045 -41.641,18.808 -14.157,6.649 -26.096,12.09 -26.531,12.09 -0.435,0 -2.459,-3.37 -4.498,-7.49 l -3.706,-7.49 4.737,-2.389 c 2.605,-1.314 18.012,-8.574 34.237,-16.132 16.225,-7.558 29.871,-14.081 30.324,-14.494 0.896,-0.819 -7.875,-19.07 -9.084,-18.902 -0.407,0.057 -24.815,11.482 -54.24,25.39 m -129.5,57.14 c -29.7,12.363 -54.282,22.79 -54.626,23.172 -0.732,0.814 37.584,87.514 38.864,87.941 0.763,0.254 106.868,-43.307 110.673,-45.436 1.256,-0.703 0.851,-2.29 -2.573,-10.072 -2.236,-5.081 -4.408,-9.238 -4.828,-9.238 -0.42,0 -16.456,6.529 -35.637,14.508 -19.18,7.98 -35.457,14.618 -36.171,14.75 -1.128,0.21 -8.202,-13.743 -8.202,-16.177 0,-0.46 15.412,-7.233 34.25,-15.049 18.838,-7.817 34.374,-14.333 34.526,-14.481 0.758,-0.739 -7.256,-16.575 -8.189,-16.183 -14.694,6.178 -66.942,27.726 -67.639,27.896 -1.049,0.256 -8.077,-14.247 -7.419,-15.311 0.22,-0.356 15.989,-7.105 35.043,-14.997 19.053,-7.892 34.835,-14.854 35.072,-15.471 0.53,-1.381 -7.242,-18.515 -8.348,-18.408 -0.438,0.043 -25.096,10.193 -54.796,22.556 m -105.507,43.196 c -7.464,1.951 -89.445,31.106 -91.698,32.611 -0.113,0.076 4.753,12.72 10.814,28.099 15.257,38.714 19.684,50.045 22.166,56.738 1.619,4.363 2.52,5.627 3.684,5.167 0.848,-0.336 18.641,-6.927 39.541,-14.647 55.16,-20.376 64.819,-25.017 72.25,-34.712 2.781,-3.629 3.25,-5.054 3.25,-9.879 0,-6.319 -2.156,-13.108 -5.692,-17.925 -3.915,-5.333 -15.435,-7.62 -27.058,-5.372 -5.392,1.043 -5.45,-0.064 -0.13,-2.463 6.215,-2.803 12.611,-9.493 13.475,-14.097 0.812,-4.328 -2.255,-14.659 -5.854,-19.713 -5.081,-7.136 -17.011,-8.443 -34.748,-3.807 m -27.419,31.236 c -8.76,3.275 -16.144,6.172 -16.411,6.438 -0.502,0.502 4.602,14.423 5.774,15.747 0.855,0.967 32.486,-10.703 36.224,-13.365 3.466,-2.467 3.784,-6.823 0.85,-11.635 -1.749,-2.869 -2.481,-3.243 -6.246,-3.194 -2.647,0.034 -10.308,2.314 -20.191,6.009 m 33.426,26.741 c -1.375,0.212 -9.772,3.042 -18.66,6.29 -8.887,3.247 -16.65,5.904 -17.25,5.904 -0.599,0 -1.09,0.421 -1.09,0.936 0,2.106 6.385,17.064 7.284,17.064 1.582,0 30.398,-10.797 34.772,-13.029 5.56,-2.836 6.703,-5.696 4.539,-11.362 -1.814,-4.749 -4.783,-6.545 -9.595,-5.803 m -292,36.256 c -31.625,9.305 -58.062,16.922 -58.75,16.928 -1.752,0.014 -1.631,0.798 1.763,11.392 l 3.013,9.406 18.737,-5.481 c 22.51,-6.583 20.235,-6.124 21.316,-4.307 0.491,0.825 5.644,16.783 11.451,35.461 5.808,18.679 10.758,34.16 11,34.403 0.424,0.423 33.454,-8.767 38.762,-10.785 2.314,-0.88 2.47,-1.26 1.557,-3.778 -0.559,-1.541 -5.63,-17.651 -11.27,-35.801 -6.682,-21.505 -9.874,-33.202 -9.166,-33.579 0.598,-0.318 9.412,-2.98 19.587,-5.916 10.175,-2.935 18.591,-5.391 18.702,-5.456 0.111,-0.065 -1.188,-4.491 -2.887,-9.834 -2.26,-7.109 -3.521,-9.696 -4.702,-9.642 -0.887,0.04 -27.488,7.685 -59.113,16.989 m -113.5,30.904 c -14.296,2.578 -44.767,10.444 -55.98,14.451 -22.782,8.143 -31.773,17.673 -31.71,33.612 0.033,8.486 6.442,34.38 10.782,43.568 7.63,16.151 23.376,21.006 51.408,15.853 11.038,-2.03 42.37,-9.983 51.99,-13.197 16.662,-5.567 27.128,-12.692 31.753,-21.615 4.116,-7.943 3.721,-16.994 -1.596,-36.534 -4.434,-16.298 -7.593,-23.804 -11.969,-28.443 -8.68,-9.202 -22.815,-11.636 -44.678,-7.695 m -17,26.529 c -13.905,3.276 -21.459,6.092 -24.717,9.213 -3.859,3.697 -3.694,9.488 0.729,25.625 3.841,14.012 5.167,17.161 8.491,20.169 3.081,2.788 11.736,2.476 24.775,-0.894 21.777,-5.629 25.79,-8.283 25.621,-16.941 -0.104,-5.292 -6.285,-28.613 -8.95,-33.765 -3.279,-6.342 -9.835,-7.203 -25.949,-3.407 m -135.5,9.167 c -7.44,0.969 -43.953,8.454 -52.7,10.802 -26.498,7.115 -38.3,17.813 -38.3,34.716 0,8.513 5.999,36.954 9.329,44.227 7.267,15.874 23.05,20.826 52.671,16.528 12.597,-1.827 45.026,-8.871 53.5,-11.62 23.611,-7.66 32.493,-16.91 32.469,-33.815 -0.014,-9.86 -5.738,-36.464 -9.501,-44.154 -3.122,-6.382 -9.911,-12.594 -16.273,-14.89 -4.702,-1.697 -23.599,-2.784 -31.195,-1.794 m -22.96,26.848 c -6.303,1.308 -13.378,3.111 -15.722,4.006 -5.586,2.134 -9.318,6.593 -9.318,11.133 0,4.66 5.834,31.125 7.625,34.592 3.423,6.622 10.171,7.524 28.714,3.837 20.215,-4.019 25.661,-7.348 25.661,-15.682 0,-6.385 -5.641,-31.078 -7.954,-34.822 -3.889,-6.292 -10.231,-6.962 -29.006,-3.064 m -144.54,4.446 c -7.15,0.972 -26.357,3.725 -42.683,6.117 l -29.682,4.351 0.455,2.538 c 0.25,1.396 3.598,22.753 7.438,47.46 3.841,24.708 7.128,45.067 7.305,45.245 0.398,0.397 41.008,-5.674 41.545,-6.211 0.213,-0.213 -0.591,-6.325 -1.786,-13.581 -1.195,-7.257 -1.817,-13.499 -1.382,-13.872 0.434,-0.373 7.99,-1.655 16.79,-2.848 23.909,-3.243 25.519,-2.41 28.254,14.62 l 1.585,9.868 11.58,-1.81 c 6.37,-0.996 15.631,-2.322 20.581,-2.947 4.95,-0.625 9.369,-1.471 9.82,-1.881 1.456,-1.323 -2.418,-22.857 -4.72,-26.243 -3.656,-5.376 -12.951,-8.663 -24.986,-8.835 l -5.114,-0.073 5.012,-1.785 c 18.013,-6.416 22.896,-13.133 20.574,-28.303 -1.949,-12.732 -5.868,-18.388 -15.086,-21.776 -5.621,-2.066 -30.413,-2.084 -45.5,-0.034 m -14.35,23.104 c -6.242,0.993 -11.562,2.019 -11.823,2.28 -0.442,0.441 2.319,21.822 3.135,24.273 0.481,1.446 29.404,-2.775 35.372,-5.163 5.046,-2.019 6.166,-3.82 6.166,-9.916 0,-5.568 -2.11,-10.988 -4.85,-12.454 -2.875,-1.539 -14.788,-1.122 -28,0.98"
       stroke="none"
       fill="#4f2400"
       fill-rule="evenodd"
       id="path133" /><path
       d="m 2319.959,0.324 c -0.253,0.225 -8.109,0.709 -17.459,1.076 -9.35,0.368 -19.7,0.884 -23,1.147 -3.3,0.264 -15.225,1.161 -26.5,1.994 -75.375,5.569 -166.614,18.444 -254.5,35.912 -190.858,37.935 -409.156,103.816 -583.5,176.095 -10.175,4.218 -20.975,8.69 -24,9.937 -36.991,15.248 -109.53,48.749 -157,72.507 -121.631,60.875 -251.856,138.967 -338.547,203.019 -48.567,35.883 -76.651,78.896 -84.548,129.489 -1.643,10.526 -1.658,36.677 -0.027,48 1.709,11.869 5.542,27.641 8.634,35.531 1.368,3.491 2.488,6.847 2.488,7.457 0,0.61 -6.638,6.082 -14.75,12.161 -24.718,18.519 -70.25,55.66 -88.75,72.395 -2.2,1.99 -8.95,8.06 -15,13.489 -81.368,73.014 -156.708,156.092 -212.946,234.818 -87.595,122.623 -136.62,241.534 -147.039,356.649 -1.492,16.481 -1.728,64.26 -0.395,80 3.754,44.323 13.732,88.105 28.604,125.5 16.642,41.846 41.729,83.173 72.238,119 12.573,14.764 40.658,42.655 56.038,55.649 29.647,25.048 60.727,46.654 97.686,67.911 17.578,10.109 63.807,33.272 80.814,40.491 47.072,19.981 92.415,36.13 136,48.436 4.4,1.242 9.125,2.641 10.5,3.109 3.983,1.356 28.773,7.708 50.5,12.94 53.105,12.787 94.434,20.564 154,28.979 20.466,2.891 24.185,3.388 33.5,4.469 2.475,0.288 10.125,1.178 17,1.98 6.875,0.801 15.2,1.72 18.5,2.04 3.3,0.321 8.025,0.784 10.5,1.029 19.47,1.926 50.233,4.052 72.5,5.01 29.465,1.269 28.45,1.045 28.485,6.276 0.01,1.275 1.13,6.675 2.492,12 6.759,26.42 21.751,52.639 41.788,73.08 32.602,33.26 75.36,52.278 132.735,59.037 8.358,0.984 131.21,0.713 137.5,-0.304 1.65,-0.267 9.975,-0.751 18.5,-1.075 8.525,-0.325 21.35,-1.01 28.5,-1.522 7.15,-0.513 17.275,-1.201 22.5,-1.53 5.225,-0.33 16.925,-1.261 26,-2.07 9.075,-0.81 19.425,-1.727 23,-2.038 3.575,-0.311 13.925,-1.429 23,-2.483 9.075,-1.055 18.75,-2.172 21.5,-2.482 43.681,-4.929 112.255,-16.417 164.5,-27.559 94.098,-20.069 161.866,-38.613 374,-102.343 117.67,-35.351 201.848,-67.792 314,-121.013 147.367,-69.93 324.664,-174.997 418.32,-247.898 28.781,-22.403 46.107,-44.206 56.752,-71.415 9.188,-23.488 12.404,-42.108 12.298,-71.204 -0.081,-22.144 -1.748,-35.611 -6.87,-55.5 l -2.576,-10 3.288,-2.654 c 1.808,-1.46 14.574,-11.647 28.368,-22.637 122.109,-97.293 223.694,-200.614 298.112,-303.209 73.099,-100.777 120.145,-201.06 139.262,-296.852 3.105,-15.56 4.997,-27.606 7.64,-48.648 1.932,-15.38 2.796,-74.693 1.34,-92 -3.138,-37.296 -11.813,-79.107 -23.758,-114.5 C 3435.054,448.004 3353.465,358.901 3226.215,289.388 3105.667,223.536 2941.171,176.444 2757,155.063 c -40.089,-4.654 -67.528,-6.922 -116.5,-9.63 -6.05,-0.334 -11.277,-0.906 -11.615,-1.27 -0.338,-0.365 -1.158,-3.525 -1.822,-7.023 -1.701,-8.964 -7.404,-24.861 -12.752,-35.549 C 2590.243,53.492 2547.37,21.88 2487.5,8.086 2476.538,5.56 2462.23,3.323 2451.5,2.458 2447.1,2.102 2442.375,1.579 2441,1.294 2438.013,0.676 2320.62,-0.265 2319.959,0.324 M 2313,22.284 c -0.275,0.248 -9.05,0.756 -19.5,1.129 -10.45,0.373 -20.575,0.868 -22.5,1.101 -1.925,0.233 -7.55,0.676 -12.5,0.985 -136.609,8.527 -320.484,43.048 -493.5,92.651 -245.375,70.349 -446.53,153.68 -643.022,266.38 -92.469,53.037 -195.395,121.33 -225.191,149.416 -54.863,51.716 -73.255,120.987 -49.966,188.198 l 2.937,8.477 -14.129,10.534 c -78.401,58.452 -171.522,146.006 -239.707,225.376 -148.393,172.734 -222.569,345.66 -214.875,500.937 0.572,11.559 1.238,22.369 1.478,24.024 0.241,1.654 0.909,7.058 1.485,12.008 9.076,77.949 40.129,150.474 91.569,213.86 13.599,16.757 48.761,51.61 67.252,66.661 116.138,94.529 285.923,158.764 503.669,190.554 31.552,4.606 81.279,10.152 107,11.933 4.4,0.305 9.575,0.745 11.5,0.978 1.925,0.233 9.8,0.695 17.5,1.026 7.7,0.332 14.953,0.796 16.119,1.032 1.165,0.235 8.055,0.47 15.312,0.521 9.164,0.065 13.288,0.451 13.506,1.264 0.173,0.644 0.802,4.339 1.399,8.211 5.967,38.697 37.125,82.266 76.203,106.556 24.131,14.999 58.147,26.24 90.126,29.784 5.134,0.569 12.035,1.33 15.335,1.692 6.869,0.753 70.774,0.739 89.5,-0.02 6.875,-0.278 19.925,-0.749 29,-1.045 80.525,-2.633 170.567,-11.8 251,-25.555 95.864,-16.393 191.603,-40.305 345.5,-86.294 143.608,-42.914 173.268,-52.331 221.5,-70.328 161.711,-60.341 343.797,-154.205 502,-258.778 77.889,-51.485 109.094,-76.758 125.858,-101.932 8.561,-12.858 11.669,-18.835 16.436,-31.62 13.599,-36.464 15.01,-77.923 4.13,-121.391 -1.361,-5.44 -2.351,-9.968 -2.2,-10.061 2.809,-1.734 44.19,-34.977 61.775,-49.627 117.331,-97.748 214.981,-202.917 282.658,-304.421 118.313,-177.45 151.685,-348.223 99.011,-506.667 -7.121,-21.418 -12.638,-34.815 -22.182,-53.86 -72.879,-145.44 -242.864,-252.523 -492.918,-310.519 -68.052,-15.783 -147.173,-28.64 -215.068,-34.948 -9.35,-0.869 -18.35,-1.756 -20,-1.971 -1.65,-0.215 -7.725,-0.688 -13.5,-1.05 -5.775,-0.363 -11.466,-0.807 -12.646,-0.987 -1.18,-0.18 -9.955,-0.653 -19.5,-1.05 -9.545,-0.398 -18.029,-0.851 -18.854,-1.009 -0.825,-0.157 -3.129,-0.32 -5.12,-0.362 l -3.62,-0.077 -2.075,-8.897 c -6.719,-28.809 -20.956,-53.918 -43.163,-76.125 -31.371,-31.371 -70.316,-48.157 -126.677,-54.601 -10.407,-1.19 -28,-1.702 -70.845,-2.064 -31.35,-0.264 -57.225,-0.278 -57.5,-0.029 m -122.329,59.193 c -30.878,5.373 -44.607,10.553 -51.38,19.386 -4.289,5.593 -4.871,9.611 -3.028,20.887 1.819,11.131 4.485,15.308 12.288,19.25 4.574,2.311 5.934,2.491 17.949,2.375 17.006,-0.163 37.073,-3.877 46.483,-8.603 3.584,-1.799 6.797,-3.403 7.139,-3.563 0.731,-0.341 2.878,13.319 2.878,18.309 0,2.467 -0.634,3.844 -2.25,4.885 -2.975,1.916 -16.239,4.581 -26.385,5.301 l -8.135,0.577 -1.812,-2.891 c -0.997,-1.589 -1.891,-3.02 -1.987,-3.178 -0.095,-0.158 -8.288,1.079 -18.206,2.75 -9.917,1.671 -18.242,3.038 -18.499,3.038 -1.065,0 1.425,9.692 3.082,12 0.988,1.375 4.023,3.625 6.744,5 7.599,3.84 24.566,4.023 46.471,0.501 44.724,-7.189 56.551,-14.423 57.761,-35.324 0.508,-8.787 -2.714,-32.847 -5.794,-43.262 -2.474,-8.366 -7.878,-14.746 -15.202,-17.948 -8.919,-3.9 -23.673,-3.743 -48.117,0.51 m -96.588,17.18 -21.417,4.458 -9.349,8.042 -9.349,8.043 3.19,3.65 c 1.754,2.007 5.224,5.966 7.712,8.798 l 4.523,5.147 6.706,-5.516 c 3.688,-3.034 7.07,-5.481 7.515,-5.437 0.446,0.044 3.58,15.188 6.965,33.653 3.386,18.465 6.361,33.779 6.613,34.03 0.251,0.252 8.636,-1.18 18.632,-3.181 15.333,-3.069 18.176,-3.914 18.176,-5.404 0,-0.971 -1.303,-8.668 -2.895,-17.103 -1.592,-8.435 -5.305,-28.499 -8.25,-44.586 -2.945,-16.088 -5.805,-29.205 -6.355,-29.151 -0.55,0.055 -10.638,2.105 -22.417,4.557 m 101.417,0.446 c -22.281,4.093 -23.084,4.62 -22.031,14.448 0.783,7.312 2.87,10.449 6.952,10.449 1.331,0 9.093,-1.127 17.25,-2.504 18.615,-3.143 19.939,-3.959 19.555,-12.049 -0.15,-3.175 -0.829,-6.937 -1.509,-8.36 -1.143,-2.392 -1.765,-2.599 -8.227,-2.745 -3.844,-0.087 -9.24,0.256 -11.99,0.761 m -194.469,17.976 c -10.02,1.773 -35.427,7.944 -43.531,10.574 -17.146,5.563 -27.956,13.463 -30.629,22.382 -1.075,3.591 -1.002,5.517 0.486,12.744 2.974,14.449 6.347,18.916 16.517,21.873 7.649,2.223 18.913,1.306 37.126,-3.023 15.598,-3.708 22.554,-6.289 27.857,-10.334 2.286,-1.743 3.584,-2.2 4.061,-1.428 0.385,0.623 1.529,5.218 2.543,10.209 l 1.842,9.075 -2.453,2.454 c -2.788,2.788 -23.198,8.374 -30.647,8.387 -3.666,0.007 -4.533,-0.405 -5.912,-2.808 l -1.617,-2.817 -17.9,4.213 c -9.845,2.317 -18.126,4.438 -18.401,4.714 -1.14,1.14 1.057,8.064 3.469,10.93 5.277,6.271 16.328,8.548 32.092,6.612 10.747,-1.321 43.717,-9.236 51.724,-12.418 19.482,-7.744 26.309,-17.06 25.062,-34.205 -0.751,-10.323 -6.969,-36.798 -10.089,-42.954 -2.817,-5.56 -8.235,-10.766 -13.558,-13.027 -4.35,-1.848 -20.387,-2.507 -28.042,-1.153 m -3.531,19.703 c -7.535,0.798 -28.655,6.552 -31.095,8.471 -2.428,1.91 -2.604,2.528 -2.105,7.369 0.3,2.906 1.147,6.543 1.881,8.081 1.942,4.069 7.759,4.159 23.36,0.365 19.178,-4.665 20.636,-5.882 18.418,-15.376 -1.815,-7.767 -3.965,-9.598 -10.459,-8.91 m -109.908,8.813 -19.907,5.448 -9.343,8.576 c -5.138,4.716 -9.342,8.809 -9.342,9.094 0,0.419 7.106,8.863 13.609,16.172 1.024,1.151 2.434,0.306 8.354,-5 3.916,-3.512 7.527,-6.527 8.023,-6.7 1.034,-0.36 0.775,-1.28 9.514,33.815 3.629,14.575 7.022,28.108 7.54,30.073 l 0.942,3.572 18.259,-4.937 c 10.042,-2.715 18.342,-5.006 18.444,-5.091 0.102,-0.085 -4.874,-20.395 -11.058,-45.135 -9.868,-39.482 -11.48,-45.004 -13.185,-45.158 -1.068,-0.097 -10.9,2.275 -21.85,5.271 M 1674,207.975 c -29.975,9.764 -54.453,18.152 -54.395,18.639 0.478,4.016 27.073,88.39 27.865,88.402 0.77,0.011 110.124,-34.874 111.241,-35.488 0.22,-0.121 -5.708,-18.859 -6.087,-19.237 -0.12,-0.121 -16.172,4.936 -35.671,11.235 -19.499,6.3 -35.925,11.459 -36.503,11.464 -0.973,0.009 -5.459,-13.359 -5.443,-16.219 0,-0.787 12.95,-5.43 34,-12.195 24.755,-7.956 33.993,-11.334 33.993,-12.43 0,-2.142 -4.276,-15.146 -4.981,-15.146 -0.322,0 -15.854,4.93 -34.515,10.955 -18.66,6.025 -34.095,10.787 -34.299,10.584 -0.947,-0.948 -4.966,-15.567 -4.375,-15.917 0.369,-0.218 16.146,-5.386 35.062,-11.484 18.915,-6.098 34.617,-11.314 34.894,-11.591 0.615,-0.614 -5.002,-19.592 -5.752,-19.436 -0.294,0.061 -25.059,8.1 -55.034,17.864 m 762.963,11.342 c -0.254,0.226 -12.163,0.721 -26.463,1.1 -14.3,0.38 -28.025,0.857 -30.5,1.061 -2.475,0.204 -10.125,0.637 -17,0.964 -82.661,3.924 -181.908,15.08 -277,31.136 -173.391,29.276 -352.216,77.826 -523.5,142.126 -300.203,112.697 -563.228,267.924 -759.48,448.216 -19.405,17.827 -73.124,71.806 -90.143,90.58 -85.251,94.04 -146.35,187.308 -184.084,281 -39.203,97.342 -50.094,191.922 -32.226,279.855 9.927,48.856 30.95,99.368 58.744,141.145 29.157,43.824 69.864,86.223 116.189,121.015 51.735,38.855 117.928,74.037 189,100.454 105.998,39.399 227.907,64.441 363,74.566 3.85,0.289 9.475,0.736 12.5,0.994 61.39,5.238 190.838,5.223 265,-0.031 4.125,-0.292 10.65,-0.747 14.5,-1.011 387.357,-26.566 812.855,-157.009 1158,-355 206.867,-118.669 379.472,-258.374 498.505,-403.487 120.1,-146.414 182.739,-293.293 182.739,-428.5 0,-110.834 -41.37,-210.054 -121.685,-291.845 -47.05,-47.916 -99.277,-84.83 -168.559,-119.139 -109.604,-54.276 -249.28,-91.289 -400,-105.994 -8.8,-0.859 -17.8,-1.766 -20,-2.016 -5.051,-0.574 -27.034,-2.246 -39.5,-3.004 -5.225,-0.318 -11.75,-0.771 -14.5,-1.008 -2.75,-0.236 -11.75,-0.703 -20,-1.039 -8.25,-0.335 -17.925,-0.812 -21.5,-1.06 -8.77,-0.608 -111.451,-1.596 -112.037,-1.078 M 1565.5,245.953 c -16.198,2.638 -51.415,15.407 -66,23.929 -7.649,4.47 -15.118,11.448 -17.728,16.564 -2.592,5.083 -3.39,14.811 -1.767,21.574 2.579,10.75 11.06,32.582 14.742,37.95 6.779,9.881 18.165,13.59 33.993,11.074 8.744,-1.39 24.286,-6.178 41.078,-12.655 30.53,-11.776 42.707,-22.087 43.993,-37.254 0.449,-5.284 -1.238,-15.663 -2.691,-16.561 -0.593,-0.367 -37.928,12.9 -38.824,13.796 -0.133,0.134 0.217,1.905 0.778,3.936 2.169,7.855 -3.351,13.248 -19.355,18.911 -16.651,5.892 -20.362,3.821 -27.263,-15.217 -2.492,-6.875 -4.967,-14.419 -5.501,-16.764 -2.006,-8.82 2.757,-13.58 19.378,-19.366 10.746,-3.741 15.921,-3.77 19.58,-0.11 1.518,1.517 2.977,3.409 3.241,4.203 0.382,1.145 4.398,0.026 19.414,-5.41 10.413,-3.769 19.091,-6.982 19.285,-7.139 0.721,-0.585 -4.628,-11.026 -7.217,-14.086 -5.372,-6.351 -17.139,-9.33 -29.136,-7.375 m 848.5,8.059 c -25.751,0.69 -46.178,1.539 -60.5,2.516 -3.85,0.262 -17.575,1.164 -30.5,2.005 -74.112,4.818 -159.657,15.216 -243,29.538 -25.405,4.366 -80.242,14.835 -94,17.946 -4.675,1.057 -13.9,3.096 -20.5,4.531 -183.522,39.895 -373.408,102.622 -548.5,181.192 -45.228,20.296 -118.93,56.61 -162,79.821 -165.391,89.129 -315.411,195.266 -427.5,302.449 -25.691,24.566 -31.044,29.919 -50.989,50.99 -125.751,132.848 -201.596,263.527 -226.932,391 -6.792,34.173 -8.017,47.338 -8.05,86.5 -0.031,38.193 0.721,47.023 6.58,77.224 19.032,98.092 76.358,184.901 167.391,253.481 15.848,11.939 42.4,29.502 61,40.348 103.936,60.608 244.536,103.233 400.5,121.416 34.571,4.03 51.607,5.598 81.5,7.501 13.2,0.84 26.66,1.743 29.911,2.007 31.467,2.553 163.968,2.582 192.589,0.042 2.475,-0.22 9.9,-0.666 16.5,-0.992 54.641,-2.696 126.646,-9.71 190,-18.508 212.355,-29.488 430.196,-87.781 638.5,-170.857 337.653,-134.664 625.17,-327.726 801.455,-538.162 101.358,-120.995 162.297,-243.226 178.481,-358 5.854,-41.514 5.49,-89.151 -0.966,-126.5 -6.901,-39.922 -16.827,-70.295 -34.971,-107 -15.587,-31.535 -31.916,-56.24 -55.52,-84 C 3098.918,364.59 2878.909,277.928 2599,258.063 c -15.125,-1.073 -33.8,-2.21 -41.5,-2.526 -7.7,-0.316 -17.375,-0.8 -21.5,-1.076 -13.214,-0.883 -94.599,-1.182 -122,-0.449 m -991.396,44.556 c -9.292,4.065 -17.098,7.593 -17.347,7.841 -0.397,0.397 7.755,20.817 21.366,53.525 2.388,5.739 4.175,10.601 3.971,10.805 -0.204,0.204 -15.816,-9.62 -34.693,-21.833 -18.878,-12.212 -35.015,-22.384 -35.862,-22.604 -1.121,-0.292 -54.996,21.687 -56.8,23.172 -0.144,0.118 6.733,17.273 15.282,38.121 8.549,20.848 16.512,40.268 17.695,43.155 1.184,2.887 2.479,5.25 2.878,5.25 1.759,0 35.387,-15.001 35.217,-15.71 -0.104,-0.435 -6.047,-14.947 -13.207,-32.249 -7.16,-17.303 -12.848,-31.63 -12.64,-31.838 0.208,-0.208 15.376,9.406 33.707,21.364 18.331,11.959 34.269,22.353 35.418,23.097 1.883,1.221 4.788,0.21 29.5,-10.272 15.076,-6.394 27.772,-11.957 28.213,-12.361 0.441,-0.404 -5.931,-17.114 -14.16,-37.133 -8.229,-20.019 -16.175,-39.436 -17.658,-43.148 -1.483,-3.712 -2.986,-6.71 -3.34,-6.661 -0.354,0.049 -8.247,3.415 -17.54,7.479 M 2377,293.704 c -18.039,0.372 -63.86,2.29 -78.5,3.286 -7.7,0.523 -21.2,1.428 -30,2.012 -42.942,2.845 -108.636,9.728 -158,16.552 -332.176,45.924 -663.071,161.947 -942,330.298 -122.134,73.715 -230.302,154.147 -319,237.202 -20.841,19.516 -37.945,36.722 -30.5,30.684 22.265,-18.059 89.255,-63.7 138.5,-94.362 270.754,-168.582 570.894,-298.587 834.157,-361.31 117.367,-27.963 209.192,-41.043 333.843,-47.551 60.264,-3.147 146.396,-3.156 193,-0.021 4.4,0.296 11.375,0.755 15.5,1.018 76.699,4.906 151.963,16.161 215,32.152 23.634,5.995 34.708,9.234 59.828,17.498 11.73,3.859 21.456,6.863 21.613,6.677 0.157,-0.186 2.019,-5.514 4.137,-11.839 3.393,-10.13 3.897,-12.885 4.238,-23.126 0.333,-9.985 0.106,-12.262 -1.607,-16.134 -1.738,-3.93 -2.62,-4.716 -6.883,-6.132 -9.78,-3.248 -17.294,-12.872 -17.316,-22.179 -0.013,-5.312 4.45,-14.022 8.99,-17.544 4.841,-3.756 102.501,-37.885 108.408,-37.885 12.696,0 40.466,10.644 57.092,21.882 4.576,3.093 10.117,5.697 16,7.52 13.933,4.316 21.856,8.93 31.052,18.083 9.002,8.959 13.287,16.466 16.028,28.08 2.342,9.924 1.432,26.893 -2.09,38.935 -3.347,11.446 -14.979,48.633 -25.493,81.5 -4.486,14.025 -9.222,28.839 -10.525,32.92 l -2.368,7.42 4.698,4.025 c 10.726,9.19 36.115,34.984 45.903,46.635 38.758,46.134 65.529,99.61 80.813,161.427 20.534,83.054 12.93,163.514 -23.701,250.794 -7.354,17.521 -24.8,51.552 -36.131,70.476 -26.809,44.774 -62.115,91.643 -106.347,141.175 -29.823,33.397 -105.32,107.481 -137.839,135.259 -88.893,75.935 -241.555,160.283 -416,229.847 -14.85,5.922 -28.718,11.319 -30.817,11.994 -2.099,0.675 -3.638,1.407 -3.419,1.626 1.23,1.229 149.833,-44.151 203.236,-62.064 104.288,-34.982 192.072,-71.514 281,-116.94 203.721,-104.064 363.481,-229.128 463.752,-363.036 14.357,-19.172 33.41,-47.757 44.699,-67.058 10.219,-17.473 30.202,-57.86 36.948,-74.675 16.099,-40.125 26.819,-80.733 32.104,-121.605 2.145,-16.589 3.971,-49.475 3.4,-61.22 -0.174,-3.575 -0.571,-12.303 -0.883,-19.396 -1.346,-30.597 -9.066,-73.432 -18.598,-103.19 -25.676,-80.154 -88.46,-151.497 -181.422,-206.154 -108.242,-63.642 -255.12,-106.068 -430,-124.207 -23.154,-2.402 -45.31,-4.295 -65,-5.555 -4.95,-0.316 -11.7,-0.765 -15,-0.996 -3.3,-0.231 -12.3,-0.678 -20,-0.992 -7.7,-0.314 -17.6,-0.821 -22,-1.127 -8.037,-0.559 -102.871,-1.085 -122.5,-0.679 m 317,77.755 c -19.525,6.877 -40.107,14.134 -45.737,16.127 l -10.237,3.622 4.965,2.475 c 16.277,8.111 23.092,29.89 17.868,57.102 -0.559,2.906 -7.545,24.506 -15.526,48 -7.982,23.493 -19.601,57.79 -25.822,76.215 -46.676,138.251 -126.7,373.001 -136.239,399.656 -3.183,8.894 -5.567,13.136 -7.881,14.024 -2.326,0.893 -5.855,-3.159 -9.344,-10.728 -2.916,-6.328 -4.475,-14.613 -18.102,-96.188 -27.128,-162.406 -40.41,-238.811 -52.013,-299.196 -8.801,-45.806 -11.123,-53.99 -18.441,-65.016 -10.344,-15.584 -32.114,-25.452 -53.491,-24.248 -7.606,0.429 -14.44,2.387 -65,18.62 -31.075,9.977 -57.162,18.375 -57.972,18.662 -0.999,0.354 -0.196,1.234 2.5,2.74 11.115,6.207 17.065,27.022 14.681,51.363 -0.979,9.997 -2.575,15.441 -21.193,72.311 -39.834,121.678 -63.686,194.022 -93.633,284 -43.653,131.161 -57.776,171.687 -61.46,176.371 -2.854,3.628 -7.293,5.133 -10.824,3.67 -6.324,-2.62 -6.376,-2.791 -13.543,-44.943 -10.682,-62.83 -35.18,-203.714 -43.053,-247.598 -13.228,-73.738 -16.227,-90.143 -21.114,-115.5 -7.009,-36.368 -8.616,-42.635 -13.582,-52.96 -7.123,-14.814 -18.128,-23.47 -33.166,-26.089 -13.694,-2.385 -14.154,-2.26 -112.198,30.406 l -90.619,30.192 5.002,3.241 c 29.443,19.079 53.183,89.981 61.661,184.156 0.864,9.595 1.67,17.541 1.792,17.658 0.122,0.117 4.412,0.933 9.535,1.815 18.338,3.156 33.779,10.236 43.743,20.059 11.348,11.186 15.448,21.679 15.436,39.5 -0.015,22.753 -9.41,45.689 -29.04,70.893 l -7.547,9.69 7.547,-1.352 c 10.38,-1.86 33.13,-1.002 42.547,1.603 10.929,3.024 17.336,5.906 26.142,11.759 21.175,14.076 34.6,37.879 40.999,72.693 2.38,12.951 2.393,41.037 0.025,53.236 -5.464,28.143 -16.534,52.927 -34.761,77.825 -8.28,11.308 -30.632,34.436 -41.558,42.999 l -7.152,5.606 0.89,3.785 c 0.489,2.082 6.767,33.71 13.95,70.285 20.464,104.189 19.666,100.484 23.382,108.527 9.104,19.705 28.43,28.917 53.471,25.488 10.269,-1.406 7.124,-0.385 78.612,-25.515 32.45,-11.407 61.25,-21.518 64,-22.469 l 5,-1.728 -4.349,-2.223 c -11.778,-6.018 -18.241,-16.627 -18.934,-31.08 -0.567,-11.813 0.734,-16.552 15.879,-57.828 7.199,-19.619 19.619,-53.447 27.6,-75.172 7.981,-21.725 18.468,-50.3 23.304,-63.5 4.835,-13.2 23.497,-64.05 41.47,-113 17.973,-48.95 38.765,-105.65 46.205,-126 7.441,-20.35 14.63,-38.462 15.977,-40.25 4.699,-6.235 10.682,-3.114 16.066,8.38 3.016,6.438 4.262,13.38 19.815,110.37 34.692,216.337 40.464,251.671 42.059,257.5 3.982,14.547 13.314,27.452 24.896,34.426 3.129,1.884 9.362,4.536 13.85,5.895 6.939,2.099 10.185,2.469 21.662,2.473 h 13.5 l 72,-25.197 c 39.6,-13.859 74.559,-26.126 77.687,-27.26 l 5.688,-2.063 -5.854,-2.925 c -20.949,-10.469 -25.505,-38.026 -12.459,-75.353 11.56,-33.072 130.653,-395.468 192.083,-584.5 7.418,-22.825 16.359,-50.275 19.869,-61 17.005,-51.949 48.514,-150.864 54.472,-171 7.474,-25.259 5.53,-39.696 -6.913,-51.335 -8.408,-7.864 -22.074,-13.174 -36.573,-14.21 -6.917,-0.494 -7.42,-0.352 -42.5,12.004 m -1443.25,3.268 c -9.763,4.723 -17.75,8.928 -17.75,9.344 0,0.417 7.708,17.334 17.128,37.593 9.42,20.26 18.179,39.173 19.463,42.03 l 2.334,5.194 17.788,-8.535 c 9.783,-4.694 18.168,-8.897 18.634,-9.34 0.465,-0.444 -6.456,-16.49 -15.381,-35.66 -8.925,-19.169 -17.718,-38.115 -19.54,-42.103 -1.822,-3.988 -3.675,-7.219 -4.119,-7.18 -0.444,0.038 -8.794,3.934 -18.557,8.657 m -58.25,33.914 c -15.336,2.901 -21.126,5.263 -48.752,19.894 -23.708,12.555 -29.828,16.536 -36.026,23.429 -8.45,9.399 -9.594,18.404 -3.796,29.89 5.068,10.039 11.714,13.887 22.108,12.8 7.871,-0.822 11.967,-2.313 38.966,-14.182 12.925,-5.682 24.4,-10.415 25.5,-10.517 4.314,-0.4 5.603,0.165 7.511,3.295 4.395,7.209 2.068,10.558 -13.011,18.724 -12.318,6.67 -17.453,8.915 -22.096,9.657 -3.236,0.518 -4.14,0.218 -6.27,-2.081 l -2.489,-2.685 -17.495,9.254 -17.495,9.254 2.373,4.683 c 5.882,11.608 15.381,13.62 34.472,7.303 8.387,-2.776 50.745,-24.206 61.372,-31.051 13.61,-8.765 21.701,-19.924 21.779,-30.036 0.048,-6.156 -5.959,-19.287 -10.206,-22.311 -4.135,-2.944 -11.193,-3.81 -19.463,-2.388 -8.472,1.458 -14.278,3.643 -39.482,14.861 -10.725,4.774 -21.042,8.766 -22.926,8.873 -2.876,0.162 -3.799,-0.352 -5.75,-3.205 -1.278,-1.869 -2.324,-3.972 -2.324,-4.673 0,-2.926 5.522,-7.394 16.471,-13.328 13.346,-7.232 18.445,-8.468 21.828,-5.29 l 2.219,2.085 17.241,-9 c 9.483,-4.95 17.241,-9.499 17.241,-10.11 0,-2.686 -5.178,-9.639 -8.216,-11.032 -3.618,-1.659 -10.17,-2.701 -13.284,-2.113 m 327.5,345.38 c -3.399,0.335 -48.307,14.832 -117.555,37.947 l -112.055,37.404 8.597,8.564 c 12.922,12.871 18.383,25.39 19.66,45.064 1.311,20.21 2.817,15.057 -47.481,162.5 -8.255,24.2 -21.302,62.45 -28.992,85 -7.691,22.55 -29.596,86.675 -48.679,142.5 -19.084,55.825 -38.655,113.2 -43.493,127.5 -4.837,14.3 -30.943,90.8 -58.012,170 -53.806,157.428 -52.633,153.489 -51.674,173.5 1.059,22.09 9.104,35.06 25.163,40.565 7.374,2.529 23.383,3.022 33.106,1.02 6.134,-1.263 63.49,-20.762 78.67,-26.746 l 2.754,-1.085 -4.254,-2.104 c -9.015,-4.456 -16.141,-14.568 -18.64,-26.449 -1.573,-7.478 -1.382,-25.171 0.38,-35.183 0.928,-5.271 15.17,-49.514 37.616,-116.85 35.951,-107.853 36.137,-108.374 39.256,-109.64 4.018,-1.631 221.66,-76.33 223.557,-76.729 1.586,-0.333 0.754,-4.764 12.065,64.201 25.395,154.831 24.79,151.748 31.931,162.876 8.161,12.717 21.071,19.124 38.533,19.124 9.749,0 16.463,-1.553 41.047,-9.492 12.65,-4.086 55.237,-17.418 94.637,-29.628 l 71.638,-22.201 -6.765,-3.242 c -19.785,-9.481 -38.132,-37.765 -48.286,-74.437 -1.447,-5.225 -6.753,-36.05 -11.791,-68.5 -5.039,-32.45 -9.248,-59.101 -9.355,-59.225 -0.107,-0.123 -5.017,-0.901 -10.911,-1.729 -18.822,-2.642 -36.24,-7.91 -53.167,-16.082 -15.773,-7.614 -25.582,-14.459 -37.136,-25.914 -17.804,-17.652 -27.886,-36.48 -32.919,-61.471 -2.51,-12.468 -1.567,-36.991 1.931,-50.208 9.855,-37.235 36.946,-77.633 74.572,-111.203 l 7.448,-6.645 -2.641,-2.762 c -3.748,-3.918 -7.336,-12.38 -9.438,-22.261 -2.166,-10.181 -2.454,-45.68 -0.493,-60.68 l 1.2,-9.18 -7.579,-39.32 c -4.168,-21.626 -8.431,-43.37 -9.473,-48.32 -1.043,-4.95 -3.065,-14.625 -4.495,-21.5 -13.907,-66.861 -22.358,-100.068 -28.961,-113.793 -8.953,-18.608 -21.987,-26.915 -39.516,-25.186 M 1393.519,985.25 c -0.23,0.688 -14.663,41.975 -32.074,91.75 -17.41,49.775 -34.485,98.6 -37.945,108.5 -14.773,42.273 -53.382,152.158 -54.074,153.9 -0.959,2.413 -0.947,2.41 25.074,-5.941 11,-3.53 48.031,-15.371 82.291,-26.313 34.259,-10.941 62.573,-20.177 62.92,-20.523 0.567,-0.568 -4.854,-38.198 -22.782,-158.123 -11.194,-74.885 -12.845,-85.997 -17.125,-115.25 -3.891,-26.592 -5.041,-31.717 -6.285,-28 m 1347.425,626.911 c -11.923,1.542 -26.368,8.25 -77.061,35.79 l -24.617,13.373 12.184,21.088 c 6.7,11.598 17.674,30.589 24.385,42.201 l 12.202,21.112 17.232,-9.31 c 9.477,-5.12 17.884,-9.706 18.683,-10.191 1.178,-0.715 0.114,-3.161 -5.661,-13.005 -5.154,-8.786 -6.792,-12.385 -5.951,-13.076 0.638,-0.525 7.869,-4.418 16.068,-8.653 12.583,-6.499 15.443,-7.614 18.339,-7.144 4.697,0.763 5.497,1.596 11.34,11.807 l 5.107,8.924 6.153,-3.372 c 3.384,-1.854 11.891,-6.47 18.903,-10.258 7.012,-3.788 12.747,-7.126 12.742,-7.417 0,-0.292 -2.816,-5.215 -6.25,-10.942 -7.351,-12.262 -9.864,-14.088 -19.387,-14.088 -3.397,0 -9.029,0.894 -12.516,1.987 -3.486,1.093 -6.528,1.993 -6.759,2 -0.232,0.01 2.375,-2.517 5.791,-5.609 10.903,-9.866 12.856,-17.934 7.018,-28.987 -7.635,-14.454 -13.835,-18.055 -27.945,-16.23 m -25.944,32.76 c -6.344,2.576 -26.367,13.679 -26.752,14.834 -0.388,1.164 11.447,21.745 12.505,21.745 1.561,0 26.188,-13.827 29.524,-16.577 4.652,-3.835 5.346,-7.004 2.721,-12.427 -4.533,-9.363 -8.982,-11.236 -17.998,-7.575 m -150,51.572 c -36.159,17.09 -53.395,25.727 -53.177,26.647 0.177,0.748 9.97,20.329 21.762,43.514 l 21.439,42.154 5.084,-2.453 c 2.797,-1.349 27.204,-12.815 54.239,-25.481 27.034,-12.665 49.45,-23.331 49.813,-23.701 0.364,-0.37 -1.436,-4.797 -4,-9.838 l -4.66,-9.165 -34,16.023 c -18.7,8.813 -34.907,16.232 -36.015,16.487 -1.679,0.386 -2.669,-0.878 -5.939,-7.586 -2.158,-4.427 -3.698,-8.276 -3.421,-8.553 0.278,-0.277 15.1,-7.319 32.94,-15.648 17.839,-8.33 32.806,-15.482 33.26,-15.895 0.641,-0.581 -5.217,-14.03 -6.923,-15.896 -0.417,-0.456 -5.954,2.045 -41.641,18.808 -14.157,6.649 -26.096,12.09 -26.531,12.09 -0.435,0 -2.459,-3.37 -4.498,-7.49 l -3.706,-7.49 4.737,-2.389 c 2.605,-1.314 18.012,-8.574 34.237,-16.132 16.225,-7.558 29.871,-14.081 30.324,-14.494 0.896,-0.819 -7.875,-19.07 -9.084,-18.902 -0.407,0.057 -24.815,11.482 -54.24,25.39 m -129.5,57.14 c -29.7,12.363 -54.282,22.79 -54.626,23.172 -0.732,0.814 37.584,87.514 38.864,87.941 0.763,0.254 106.868,-43.307 110.673,-45.436 1.256,-0.703 0.851,-2.29 -2.573,-10.072 -2.236,-5.081 -4.408,-9.238 -4.828,-9.238 -0.42,0 -16.456,6.529 -35.637,14.508 -19.18,7.98 -35.457,14.618 -36.171,14.75 -1.128,0.21 -8.202,-13.743 -8.202,-16.177 0,-0.46 15.412,-7.233 34.25,-15.049 18.838,-7.817 34.374,-14.333 34.526,-14.481 0.758,-0.739 -7.256,-16.575 -8.189,-16.183 -14.694,6.178 -66.942,27.726 -67.639,27.896 -1.049,0.256 -8.077,-14.247 -7.419,-15.311 0.22,-0.356 15.989,-7.105 35.043,-14.997 19.053,-7.892 34.835,-14.854 35.072,-15.471 0.53,-1.381 -7.242,-18.515 -8.348,-18.408 -0.438,0.043 -25.096,10.193 -54.796,22.556 m -105.507,43.196 c -7.464,1.951 -89.445,31.106 -91.698,32.611 -0.113,0.076 4.753,12.72 10.814,28.099 15.257,38.714 19.684,50.045 22.166,56.738 1.619,4.363 2.52,5.627 3.684,5.167 0.848,-0.336 18.641,-6.927 39.541,-14.647 55.16,-20.376 64.819,-25.017 72.25,-34.712 2.781,-3.629 3.25,-5.054 3.25,-9.879 0,-6.319 -2.156,-13.108 -5.692,-17.925 -3.915,-5.333 -15.435,-7.62 -27.058,-5.372 -5.392,1.043 -5.45,-0.064 -0.13,-2.463 6.215,-2.803 12.611,-9.493 13.475,-14.097 0.812,-4.328 -2.255,-14.659 -5.854,-19.713 -5.081,-7.136 -17.011,-8.443 -34.748,-3.807 m -27.419,31.236 c -8.76,3.275 -16.144,6.172 -16.411,6.438 -0.502,0.502 4.602,14.423 5.774,15.747 0.855,0.967 32.486,-10.703 36.224,-13.365 3.466,-2.467 3.784,-6.823 0.85,-11.635 -1.749,-2.869 -2.481,-3.243 -6.246,-3.194 -2.647,0.034 -10.308,2.314 -20.191,6.009 m 33.426,26.741 c -1.375,0.212 -9.772,3.042 -18.66,6.29 -8.887,3.247 -16.65,5.904 -17.25,5.904 -0.599,0 -1.09,0.421 -1.09,0.936 0,2.106 6.385,17.064 7.284,17.064 1.582,0 30.398,-10.797 34.772,-13.029 5.56,-2.836 6.703,-5.696 4.539,-11.362 -1.814,-4.749 -4.783,-6.545 -9.595,-5.803 m -292,36.256 c -31.625,9.305 -58.062,16.922 -58.75,16.928 -1.752,0.014 -1.631,0.798 1.763,11.392 l 3.013,9.406 18.737,-5.481 c 22.51,-6.583 20.235,-6.124 21.316,-4.307 0.491,0.825 5.644,16.783 11.451,35.461 5.808,18.679 10.758,34.16 11,34.403 0.424,0.423 33.454,-8.767 38.762,-10.785 2.314,-0.88 2.47,-1.26 1.557,-3.778 -0.559,-1.541 -5.63,-17.651 -11.27,-35.801 -6.682,-21.505 -9.874,-33.202 -9.166,-33.579 0.598,-0.318 9.412,-2.98 19.587,-5.916 10.175,-2.935 18.591,-5.391 18.702,-5.456 0.111,-0.065 -1.188,-4.491 -2.887,-9.834 -2.26,-7.109 -3.521,-9.696 -4.702,-9.642 -0.887,0.04 -27.488,7.685 -59.113,16.989 m -113.5,30.904 c -14.296,2.578 -44.767,10.444 -55.98,14.451 -22.782,8.143 -31.773,17.673 -31.71,33.612 0.033,8.486 6.442,34.38 10.782,43.568 7.63,16.151 23.376,21.006 51.408,15.853 11.038,-2.03 42.37,-9.983 51.99,-13.197 16.662,-5.567 27.128,-12.692 31.753,-21.615 4.116,-7.943 3.721,-16.994 -1.596,-36.534 -4.434,-16.298 -7.593,-23.804 -11.969,-28.443 -8.68,-9.202 -22.815,-11.636 -44.678,-7.695 m -17,26.529 c -13.905,3.276 -21.459,6.092 -24.717,9.213 -3.859,3.697 -3.694,9.488 0.729,25.625 3.841,14.012 5.167,17.161 8.491,20.169 3.081,2.788 11.736,2.476 24.775,-0.894 21.777,-5.629 25.79,-8.283 25.621,-16.941 -0.104,-5.292 -6.285,-28.613 -8.95,-33.765 -3.279,-6.342 -9.835,-7.203 -25.949,-3.407 m -135.5,9.167 c -7.44,0.969 -43.953,8.454 -52.7,10.802 -26.498,7.115 -38.3,17.813 -38.3,34.716 0,8.513 5.999,36.954 9.329,44.227 7.267,15.874 23.05,20.826 52.671,16.528 12.597,-1.827 45.026,-8.871 53.5,-11.62 23.611,-7.66 32.493,-16.91 32.469,-33.815 -0.014,-9.86 -5.738,-36.464 -9.501,-44.154 -3.122,-6.382 -9.911,-12.594 -16.273,-14.89 -4.702,-1.697 -23.599,-2.784 -31.195,-1.794 m -22.96,26.848 c -6.303,1.308 -13.378,3.111 -15.722,4.006 -5.586,2.134 -9.318,6.593 -9.318,11.133 0,4.66 5.834,31.125 7.625,34.592 3.423,6.622 10.171,7.524 28.714,3.837 20.215,-4.019 25.661,-7.348 25.661,-15.682 0,-6.385 -5.641,-31.078 -7.954,-34.822 -3.889,-6.292 -10.231,-6.962 -29.006,-3.064 m -144.54,4.446 c -7.15,0.972 -26.357,3.725 -42.683,6.117 l -29.682,4.351 0.455,2.538 c 0.25,1.396 3.598,22.753 7.438,47.46 3.841,24.708 7.128,45.067 7.305,45.245 0.398,0.397 41.008,-5.674 41.545,-6.211 0.213,-0.213 -0.591,-6.325 -1.786,-13.581 -1.195,-7.257 -1.817,-13.499 -1.382,-13.872 0.434,-0.373 7.99,-1.655 16.79,-2.848 23.909,-3.243 25.519,-2.41 28.254,14.62 l 1.585,9.868 11.58,-1.81 c 6.37,-0.996 15.631,-2.322 20.581,-2.947 4.95,-0.625 9.369,-1.471 9.82,-1.881 1.456,-1.323 -2.418,-22.857 -4.72,-26.243 -3.656,-5.376 -12.951,-8.663 -24.986,-8.835 l -5.114,-0.073 5.012,-1.785 c 18.013,-6.416 22.896,-13.133 20.574,-28.303 -1.949,-12.732 -5.868,-18.388 -15.086,-21.776 -5.621,-2.066 -30.413,-2.084 -45.5,-0.034 m -14.35,23.104 c -6.242,0.993 -11.562,2.019 -11.823,2.28 -0.442,0.441 2.319,21.822 3.135,24.273 0.481,1.446 29.404,-2.775 35.372,-5.163 5.046,-2.019 6.166,-3.82 6.166,-9.916 0,-5.568 -2.11,-10.988 -4.85,-12.454 -2.875,-1.539 -14.788,-1.122 -28,0.98"
       stroke="none"
       fill="#4f2400"
       fill-rule="evenodd"
       id="path135" /><path
       d=""
       stroke="none"
       fill="#000000"
       fill-rule="evenodd"
       id="path137" /><path
       d="m 2195.811,408.748 c 7.87,0.169 20.47,0.169 28,-10e-4 7.529,-0.169 1.089,-0.308 -14.311,-0.307 -15.4,0 -21.56,0.139 -13.689,0.308 M 3460.422,719 c 0,11.275 0.146,15.888 0.324,10.25 0.178,-5.638 0.178,-14.862 0,-20.5 -0.178,-5.638 -0.324,-1.025 -0.324,10.25 M 672.993,883.75 647.5,909.5 673.25,884.007 c 14.163,-14.021 25.75,-25.608 25.75,-25.75 0,-0.708 -2.318,1.565 -26.007,25.493 m 84.998,3 -21.491,21.75 21.75,-21.491 C 778.46,867.039 780.451,865 779.741,865 c -0.142,0 -9.93,9.788 -21.75,21.75 M 3050,1259.5 c -10.714,10.725 -19.256,19.5 -18.981,19.5 0.275,0 9.267,-8.775 19.981,-19.5 10.714,-10.725 19.256,-19.5 18.981,-19.5 -0.275,0 -9.267,8.775 -19.981,19.5 m 33.492,11.75 -22.992,23.25 23.25,-22.992 c 21.604,-21.364 23.701,-23.508 22.992,-23.508 -0.142,0 -10.605,10.463 -23.25,23.25 M 2543.5,1788 c 5.78,11.55 10.734,21 11.009,21 0.275,0 -4.229,-9.45 -10.009,-21 -5.78,-11.55 -10.734,-21 -11.009,-21 -0.275,0 4.229,9.45 10.009,21 m -1173.689,118.748 c 7.87,0.169 20.47,0.169 28,-10e-4 7.529,-0.169 1.089,-0.308 -14.311,-0.307 -15.4,0 -21.56,0.139 -13.689,0.308"
       stroke="none"
       fill="#904d0e"
       fill-rule="evenodd"
       id="path139" /></g></svg>
