<?xml version="1.0" encoding="UTF-8" standalone="no"?>
<svg
   viewBox="0 0 24 24"
   width="24pt"
   height="24pt"
   version="1.1"
   id="svg4"
   sodipodi:docname="andoks.svg"
   xml:space="preserve"
   inkscape:version="1.2.2 (732a01da63, 2022-12-09)"
   xmlns:inkscape="http://www.inkscape.org/namespaces/inkscape"
   xmlns:sodipodi="http://sodipodi.sourceforge.net/DTD/sodipodi-0.dtd"
   xmlns="http://www.w3.org/2000/svg"
   xmlns:svg="http://www.w3.org/2000/svg"><defs
     id="defs8" /><sodipodi:namedview
     id="namedview6"
     pagecolor="#ffffff"
     bordercolor="#000000"
     borderopacity="0.25"
     inkscape:showpageshadow="2"
     inkscape:pageopacity="0.0"
     inkscape:pagecheckerboard="0"
     inkscape:deskcolor="#d1d1d1"
     inkscape:document-units="pt"
     showgrid="false"
     inkscape:zoom="25.125"
     inkscape:cx="17.21393"
     inkscape:cy="14.38806"
     inkscape:window-width="2400"
     inkscape:window-height="1261"
     inkscape:window-x="2391"
     inkscape:window-y="-9"
     inkscape:window-maximized="1"
     inkscape:current-layer="svg4" /><g
     id="g264"
     transform="matrix(0.03337962,0,0,0.03337962,5.2568628,2.421285)"><path
       d="m 236.5,213.462 c -7.498,1.372 -15.495,4.455 -27.5,10.599 -4.125,2.111 -8.625,3.911 -10,4 -4.846,0.311 -6.224,-0.036 -5.688,-1.431 0.566,-1.476 -5.639,-2.61 -14.312,-2.616 -2.475,-0.001 -9.982,-0.758 -16.682,-1.683 -25.766,-3.553 -37.251,5.837 -30.69,25.091 6.273,18.41 26.223,27.578 60.01,27.578 30.741,0 41.133,2.161 54.079,11.244 19.104,13.403 32.79,5.856 23.274,-12.834 -5.418,-10.642 -7.212,-11.99 -12.783,-9.605 -4.245,1.816 -12.547,3.734 -19.195,4.433 -2.087,0.22 -1.287,0.985 4.978,4.762 9.604,5.791 19.009,12.716 19.009,13.998 0,1.933 -2.724,0.967 -8.087,-2.871 -19.558,-13.993 -21.97,-14.858 -43.523,-15.599 -30.907,-1.063 -37.618,-3.434 -52.439,-18.521 -5.251,-5.347 -10.539,-10.251 -11.75,-10.899 -5.539,-2.965 2.364,-5.684 13.584,-4.674 11.691,1.052 12.262,1.663 6.492,6.951 -18.315,16.785 43.679,28.644 82.008,15.688 20.083,-6.789 35.059,-3.605 60.093,12.773 14.892,9.742 17.69,-2.937 5.063,-22.939 C 298.555,224.91 261.973,208.8 236.5,213.462"
       stroke="none"
       fill="#e88019"
       fill-rule="evenodd"
       id="path237" /><path
       d="m 233.308,7.225 c 0.656,0.425 -0.34,0.478 -2.213,0.118 -2.605,-0.501 -3.222,-0.358 -2.625,0.608 0.581,0.94 0.205,1.081 -1.47,0.549 -1.635,-0.519 -2.045,-0.382 -1.5,0.5 0.545,0.882 0.135,1.019 -1.5,0.5 -1.635,-0.519 -2.045,-0.382 -1.5,0.5 0.545,0.882 0.135,1.019 -1.5,0.5 -1.413,-0.448 -2.02,-0.341 -1.631,0.288 0.707,1.144 -2.091,2.502 -3.439,1.669 -1.208,-0.747 -5.026,1.308 -7.267,3.91 -1.01,1.173 -1.518,1.526 -1.129,0.783 0.57,-1.088 0.297,-1.13 -1.413,-0.215 -1.167,0.625 -2.121,1.371 -2.121,1.659 0,0.288 0.45,0.246 1,-0.094 2.352,-1.454 0.749,0.434 -1.75,2.06 -2.69,1.75 -2.719,1.747 -1.354,-0.135 0.767,-1.059 -0.133,-0.327 -2,1.627 -1.868,1.953 -2.946,2.843 -2.396,1.976 0.55,-0.866 -1.025,0.494 -3.5,3.022 -2.475,2.529 -3.825,3.664 -3,2.524 1.488,-2.058 1.483,-2.059 -0.726,-0.19 -1.225,1.036 -1.985,2.275 -1.689,2.754 0.297,0.479 -1.85,3.232 -4.769,6.117 -2.919,2.885 -4.444,4.57 -3.387,3.745 1.88,-1.468 1.882,-1.442 0.131,1.25 -1.692,2.599 -3.485,4.055 -1.965,1.595 0.446,-0.721 0.274,-0.882 -0.457,-0.43 -0.644,0.398 -0.874,1.204 -0.51,1.791 0.363,0.588 -0.418,1.946 -1.734,3.018 -1.317,1.072 -1.787,1.631 -1.044,1.242 1.088,-0.57 1.13,-0.297 0.215,1.413 -0.625,1.167 -1.596,2.121 -2.159,2.121 -0.563,0 -0.746,0.45 -0.406,1 0.34,0.55 0.115,1 -0.5,1 -0.615,0 -0.84,0.45 -0.5,1 0.34,0.55 0.115,1 -0.5,1 -0.615,0 -0.865,0.409 -0.556,0.91 0.794,1.284 -0.471,4.191 -1.537,3.532 -0.486,-0.3 -0.588,0.226 -0.226,1.17 0.444,1.157 0.281,1.483 -0.5,1 -0.75,-0.464 -0.954,-0.183 -0.577,0.798 0.347,0.906 -0.561,2.6 -2.262,4.216 -1.563,1.485 -2.279,2.376 -1.592,1.979 2.437,-1.409 1.199,0.674 -2.5,4.206 -2.062,1.969 -2.85,2.991 -1.75,2.27 1.1,-0.721 0.21,0.289 -1.978,2.245 -2.187,1.956 -5.112,4.837 -6.5,6.404 -1.387,1.566 -2.297,2.359 -2.022,1.762 0.275,-0.598 -0.562,0.06 -1.86,1.461 -1.298,1.401 -2.056,1.981 -1.686,1.289 0.532,-0.993 0.141,-1.015 -1.859,-0.103 -1.393,0.634 -2.265,1.586 -1.938,2.114 0.358,0.58 -0.299,0.678 -1.657,0.247 -1.238,-0.393 -2.012,-0.329 -1.72,0.143 1.473,2.383 -9.841,0.794 -12.28,-1.725 -2.445,-2.525 -3.745,-10.923 -1.691,-10.919 0.445,0 0.508,-0.485 0.141,-1.08 -0.369,-0.596 1.848,-3.323 4.947,-6.085 3.089,-2.753 5.365,-5.409 5.06,-5.904 -0.305,-0.494 1.002,-2.456 2.906,-4.36 3.069,-3.069 3.419,-3.948 3.085,-7.765 -0.324,-3.713 -0.259,-3.892 0.47,-1.305 0.813,2.884 0.85,2.901 0.964,0.441 0.065,-1.407 -0.59,-3.432 -1.456,-4.5 -0.866,-1.067 -1.278,-1.266 -0.915,-0.441 0.363,0.825 -0.647,0.123 -2.243,-1.561 -1.596,-1.684 -3.497,-2.863 -4.224,-2.62 -0.778,0.259 -1.039,-0.018 -0.633,-0.674 0.474,-0.768 -0.339,-0.958 -2.611,-0.611 -2.592,0.396 -2.871,0.301 -1.3,-0.445 1.508,-0.715 0.523,-0.948 -4,-0.948 -4.498,0 -5.499,0.235 -4,0.94 1.471,0.692 0.983,0.789 -1.848,0.366 -2.798,-0.418 -3.651,-0.255 -3.125,0.596 0.513,0.831 0.069,0.963 -1.527,0.457 -1.686,-0.535 -2.053,-0.394 -1.461,0.563 0.561,0.908 0.308,1.092 -0.875,0.638 C 110.749,46.35 110,46.525 110,47.09 c 0,0.566 -0.403,0.779 -0.895,0.475 -0.493,-0.305 -1.171,0.166 -1.509,1.044 -0.342,0.893 -1.258,1.351 -2.072,1.038 -0.803,-0.308 -1.769,-0.06 -2.146,0.551 -0.441,0.713 -0.183,0.85 0.717,0.382 0.773,-0.4 0.551,-0.034 -0.492,0.814 -1.044,0.848 -2.212,1.347 -2.597,1.11 C 100.621,52.266 99,53.518 97.403,55.286 94.5,58.5 94.5,58.5 97.559,56 c 1.682,-1.375 1.239,-0.769 -0.986,1.346 -2.225,2.115 -4.052,4.365 -4.059,5 -0.008,0.635 -1.061,2.201 -2.341,3.481 -1.28,1.28 -2.082,2.968 -1.782,3.75 0.743,1.936 -0.365,4.557 -1.603,3.792 C 86.159,72.98 86.052,73.587 86.5,75 c 0.529,1.667 0.389,2.05 -0.539,1.476 -0.941,-0.582 -1.082,-0.095 -0.567,1.959 0.486,1.934 0.351,2.525 -0.461,2.024 -0.821,-0.508 -0.957,0.249 -0.479,2.666 0.521,2.633 0.418,3.045 -0.465,1.875 -0.872,-1.156 -1.005,-0.352 -0.58,3.5 0.378,3.42 0.264,4.368 -0.358,3 -0.613,-1.347 -0.91,1.591 -0.91,9 0,7.237 0.303,10.316 0.887,9 0.578,-1.304 0.733,0.437 0.446,5 -0.268,4.262 -0.13,6.022 0.355,4.5 0.518,-1.628 0.774,0.518 0.733,6.15 -0.034,4.758 -0.337,8.207 -0.673,7.666 -0.336,-0.542 -0.857,-0.046 -1.157,1.101 -0.37,1.413 -0.172,1.861 0.611,1.387 0.636,-0.384 -0.193,0.628 -1.843,2.249 -4.407,4.33 -10.655,4.108 -15.5,-0.549 -1.925,-1.85 -2.934,-3.029 -2.242,-2.62 0.994,0.588 1.016,0.214 0.103,-1.789 -0.634,-1.393 -1.556,-2.284 -2.047,-1.98 -0.503,0.311 -0.594,-0.645 -0.208,-2.18 0.425,-1.696 0.313,-2.503 -0.295,-2.127 -0.54,0.333 -1.738,-0.981 -2.663,-2.92 -1.148,-2.407 -1.28,-3.319 -0.415,-2.871 0.697,0.361 0.191,-0.219 -1.123,-1.29 -1.315,-1.071 -3.266,-3.022 -4.337,-4.337 -1.071,-1.314 -1.649,-1.715 -1.286,-0.89 0.528,1.198 0.395,1.181 -0.663,-0.088 -0.728,-0.873 -1.949,-1.377 -2.713,-1.12 -0.764,0.257 -1.145,0.072 -0.845,-0.412 0.299,-0.484 -2.001,-0.837 -5.111,-0.785 -6.716,0.114 -15.914,7.438 -14.588,11.616 0.356,1.122 0.262,1.801 -0.21,1.51 -0.471,-0.291 -0.889,2.329 -0.929,5.824 -0.045,3.964 0.301,6.123 0.92,5.74 0.602,-0.372 0.718,0.101 0.295,1.204 -0.849,2.212 1.154,8.755 2.438,7.961 0.505,-0.312 0.986,0.021 1.067,0.741 0.081,0.72 0.24,1.984 0.352,2.809 0.112,0.825 0.271,2.089 0.352,2.809 0.083,0.731 0.664,0.99 1.318,0.586 0.787,-0.486 0.961,-0.178 0.531,0.941 -0.817,2.129 0.2,4.843 1.511,4.033 0.629,-0.389 0.736,0.218 0.288,1.631 -0.453,1.427 -0.343,2.021 0.3,1.624 0.621,-0.384 0.795,0.207 0.449,1.531 -0.361,1.383 -0.182,1.921 0.5,1.5 0.682,-0.421 0.862,0.117 0.5,1.5 -0.383,1.464 -0.197,1.931 0.578,1.452 0.808,-0.499 0.976,0.262 0.574,2.593 -0.323,1.87 -0.208,2.799 0.265,2.145 0.467,-0.646 0.765,2.481 0.678,7.109 -0.156,8.263 -0.156,8.263 -5.328,13.434 -2.844,2.845 -4.878,4.596 -4.519,3.892 0.358,-0.704 0.011,-0.499 -0.772,0.454 -0.782,0.954 -1.716,1.442 -2.074,1.084 -0.358,-0.358 -0.651,-0.14 -0.651,0.484 0,0.648 -0.714,0.861 -1.664,0.497 -1.208,-0.464 -1.44,-0.276 -0.846,0.686 0.547,0.884 0.433,1.085 -0.344,0.605 -1.65,-1.02 -5.315,0.327 -4.496,1.652 0.426,0.69 0.099,0.876 -0.88,0.5 -0.961,-0.369 -2.459,0.428 -3.914,2.08 -2.356,2.678 -2.356,2.678 0.192,0.678 2.548,-2 2.548,-2 0,0.513 -2.42,2.385 -3.847,9.599 -1.628,8.227 0.506,-0.312 0.645,0.148 0.309,1.023 -0.349,0.91 0.113,2.157 1.08,2.914 1.457,1.14 1.553,1.109 0.691,-0.224 -0.55,-0.851 -0.037,-0.456 1.139,0.877 1.177,1.334 2.639,2.116 3.25,1.738 0.611,-0.377 1.111,-0.224 1.111,0.342 0,0.565 0.749,0.74 1.664,0.389 1.01,-0.388 1.415,-0.236 1.031,0.385 -0.348,0.563 0.507,1.543 1.9,2.177 1.483,0.676 2.274,0.737 1.91,0.147 -1.438,-2.327 0.833,-0.694 5.259,3.78 2.605,2.633 3.386,3.195 1.736,1.25 -3,-3.538 -3,-3.538 0.672,-0.167 2.343,2.15 3.458,3.929 3.08,4.914 -0.325,0.849 -0.178,1.289 0.328,0.978 0.524,-0.322 0.955,2.49 1.002,6.531 0.052,4.569 -0.213,6.404 -0.744,5.151 -0.508,-1.197 -0.728,0.975 -0.571,5.643 0.397,11.805 7.641,17.716 13.733,11.206 1.375,-1.469 1.943,-2.338 1.261,-1.931 -0.839,0.502 -1.047,0.243 -0.645,-0.805 0.327,-0.851 0.964,-1.318 1.417,-1.038 1.182,0.731 2.217,-3.158 1.468,-5.518 -0.349,-1.098 -1.729,-2.272 -3.068,-2.608 C 50.095,250.058 49,249.213 49,248.517 c 0,-0.697 -0.263,-2.786 -0.584,-4.642 -0.467,-2.694 -0.349,-3.072 0.583,-1.875 0.928,1.194 1.06,0.73 0.643,-2.272 -0.357,-2.571 -0.177,-3.559 0.563,-3.101 0.738,0.456 0.867,-0.206 0.401,-2.062 -0.486,-1.934 -0.351,-2.525 0.461,-2.024 0.802,0.496 0.932,0.032 0.433,-1.541 -0.519,-1.635 -0.382,-2.045 0.5,-1.5 0.882,0.545 1.019,0.135 0.5,-1.5 -0.519,-1.635 -0.382,-2.045 0.5,-1.5 0.882,0.545 1.019,0.135 0.5,-1.5 -0.448,-1.413 -0.341,-2.02 0.288,-1.631 1.153,0.713 2.498,-2.096 1.656,-3.459 -0.309,-0.501 -0.1,-0.91 0.466,-0.91 0.565,0 0.786,-0.628 0.491,-1.397 -0.294,-0.768 0.845,-2.808 2.532,-4.534 3.038,-3.109 3.995,-4.761 2.067,-3.569 -1.963,1.213 -0.953,-0.64 1.75,-3.211 1.512,-1.439 2.188,-2.291 1.5,-1.894 -2.313,1.338 -1.276,-0.568 2,-3.674 1.788,-1.695 2.641,-2.72 1.896,-2.278 -2.632,1.562 1.944,-4.274 5.447,-6.946 1.895,-1.445 3.202,-3.02 2.905,-3.501 -0.297,-0.48 0.257,-1.378 1.231,-1.995 1.54,-0.976 1.438,-1.072 -0.782,-0.738 -1.404,0.211 -3.109,-0.211 -3.789,-0.939 -0.69,-0.739 -0.791,-1.324 -0.229,-1.324 0.555,0 0.721,-0.749 0.37,-1.664 -0.378,-0.984 -0.232,-1.413 0.356,-1.049 0.547,0.338 1.983,-1.421 3.192,-3.909 1.209,-2.488 1.738,-4.239 1.175,-3.892 -2.111,1.305 -0.906,-0.71 2.228,-3.726 1.787,-1.72 2.35,-2.482 1.25,-1.694 -3.38,2.423 0.003,-1.572 8.5,-10.04 4.125,-4.11 6.825,-6.561 6,-5.445 -0.825,1.116 -0.203,0.654 1.382,-1.026 1.585,-1.68 2.528,-2.423 2.095,-1.65 -0.505,0.902 -0.398,1.164 0.299,0.733 0.974,-0.602 0.854,-4.17 -0.245,-7.315 -0.227,-0.647 0.349,-1.772 1.278,-2.5 1.457,-1.14 1.553,-1.109 0.691,0.224 -0.55,0.851 0.062,0.401 1.36,-1 1.298,-1.401 2.054,-1.977 1.68,-1.28 -0.461,0.861 0.452,0.728 2.848,-0.415 1.939,-0.925 3.264,-2.106 2.944,-2.624 -0.345,-0.558 0.336,-0.651 1.668,-0.228 1.427,0.453 2.021,0.343 1.624,-0.3 -0.384,-0.621 0.207,-0.795 1.531,-0.449 1.383,0.361 1.921,0.182 1.5,-0.5 -0.421,-0.682 0.117,-0.862 1.5,-0.5 1.571,0.411 1.945,0.22 1.376,-0.701 -0.582,-0.942 -0.207,-1.082 1.469,-0.55 1.573,0.499 2.037,0.369 1.541,-0.433 -0.501,-0.812 0.09,-0.947 2.024,-0.461 2.054,0.515 2.541,0.374 1.959,-0.567 -0.552,-0.893 -0.235,-1.083 1.101,-0.662 1.031,0.325 3.225,0.187 4.875,-0.307 1.65,-0.494 2.333,-0.937 1.518,-0.984 -0.815,-0.047 0.197,-1.227 2.25,-2.622 2.053,-1.395 3.732,-2.8 3.732,-3.122 0,-0.323 -0.787,0.031 -1.75,0.786 -1.573,1.233 -1.616,1.201 -0.427,-0.319 0.728,-0.929 1.962,-1.445 2.742,-1.146 0.78,0.3 1.684,-0.149 2.009,-0.996 0.351,-0.913 1.236,-1.293 2.173,-0.934 0.983,0.378 1.33,0.2 0.916,-0.47 -0.431,-0.697 0.096,-0.877 1.492,-0.512 1.464,0.383 1.931,0.197 1.452,-0.578 -0.499,-0.808 0.262,-0.976 2.593,-0.574 1.87,0.323 2.8,0.208 2.145,-0.265 -0.64,-0.463 4.351,-0.834 11.213,-0.834 6.802,0 11.597,0.345 10.655,0.766 -0.985,0.44 0.093,0.587 2.537,0.345 2.708,-0.268 4.024,-0.054 3.625,0.591 -0.403,0.653 0.572,0.775 2.75,0.344 2.617,-0.517 3.038,-0.416 1.875,0.454 -1.165,0.871 -0.717,0.982 2,0.5 2.747,-0.488 3.177,-0.376 2,0.52 -1.195,0.91 -0.924,1.015 1.334,0.521 1.996,-0.438 2.624,-0.282 2.125,0.526 -0.496,0.802 -0.032,0.932 1.541,0.433 1.413,-0.448 2.02,-0.341 1.631,0.288 -0.81,1.311 1.904,2.328 4.033,1.511 1.01,-0.388 1.415,-0.236 1.031,0.385 -0.732,1.186 4,3.622 5.38,2.77 0.509,-0.315 0.925,-0.069 0.925,0.546 0,0.615 0.45,0.84 1,0.5 0.55,-0.34 1,-0.153 1,0.415 0,0.569 1.4,1.757 3.11,2.642 2.303,1.191 2.929,1.262 2.413,0.276 -0.383,-0.733 0.282,-0.208 1.477,1.167 1.195,1.375 1.87,1.825 1.5,1 -0.37,-0.825 0.305,-0.375 1.5,1 1.195,1.375 1.86,1.825 1.477,1 -0.383,-0.825 0.365,-0.354 1.663,1.047 1.298,1.401 1.918,1.851 1.377,1 -0.884,-1.392 -0.784,-1.391 1,0.004 5.03,3.935 9.485,7.949 8.823,7.949 -0.402,0 -2.105,-1.238 -3.785,-2.75 -3.055,-2.75 -3.055,-2.75 -0.103,0.516 2.52,2.787 5.39,4.109 4.373,2.015 -0.473,-0.974 6.352,-7.789 7.246,-7.237 0.415,0.256 2.431,-1.449 4.481,-3.789 2.049,-2.34 3.325,-3.562 2.837,-2.716 -0.489,0.846 0.28,0.215 1.71,-1.403 1.429,-1.617 3.085,-2.64 3.681,-2.272 0.595,0.368 1.407,0.142 1.805,-0.502 0.452,-0.731 0.291,-0.903 -0.43,-0.457 -0.635,0.392 -1.155,0.477 -1.155,0.189 0,-0.288 0.954,-1.034 2.121,-1.659 1.715,-0.918 1.971,-0.877 1.336,0.215 -0.431,0.743 0.393,0.113 1.832,-1.4 2.586,-2.719 4.422,-3.71 3.195,-1.724 -0.349,0.564 1.851,-0.193 4.887,-1.682 3.037,-1.49 5.324,-3.029 5.081,-3.421 -0.667,-1.08 2.322,-1.947 4.212,-1.222 1.216,0.467 1.441,0.278 0.836,-0.701 -0.605,-0.979 -0.38,-1.168 0.836,-0.701 2.129,0.817 4.843,-0.2 4.033,-1.511 -0.389,-0.629 0.218,-0.736 1.631,-0.288 1.573,0.499 2.037,0.369 1.541,-0.433 -0.501,-0.812 0.09,-0.947 2.024,-0.461 1.808,0.454 2.513,0.329 2.083,-0.367 -0.413,-0.668 0.138,-0.846 1.507,-0.488 1.464,0.383 1.931,0.197 1.452,-0.578 -0.499,-0.808 0.262,-0.976 2.593,-0.574 2.528,0.436 2.949,0.316 1.8,-0.513 -1.137,-0.821 -0.677,-0.925 1.905,-0.429 2.355,0.453 3.197,0.317 2.728,-0.442 -0.466,-0.753 0.503,-0.933 3.095,-0.573 2.826,0.392 3.396,0.259 2.272,-0.534 -1.101,-0.776 -0.036,-0.926 4,-0.565 3.842,0.344 4.897,0.212 3.5,-0.438 -1.346,-0.627 0.945,-0.807 7,-0.553 6.333,0.267 8.111,0.115 6,-0.513 -2.102,-0.626 -0.457,-0.763 5.5,-0.457 6.046,0.31 7.923,0.15 6.5,-0.556 -1.446,-0.718 -0.338,-0.84 4,-0.44 4.531,0.417 5.633,0.28 4.5,-0.558 -1.137,-0.842 -0.29,-0.962 3.5,-0.498 3.786,0.464 4.636,0.343 3.5,-0.496 -1.144,-0.845 -0.576,-0.948 2.395,-0.433 2.767,0.48 3.693,0.351 3.2,-0.448 -0.484,-0.783 0.305,-0.951 2.605,-0.554 2.613,0.451 2.988,0.331 1.8,-0.575 -1.178,-0.9 -0.776,-1.002 1.875,-0.478 2.516,0.498 3.184,0.359 2.625,-0.546 -0.545,-0.882 -0.134,-1.019 1.5,-0.5 1.635,0.519 2.045,0.382 1.5,-0.5 -0.545,-0.882 -0.135,-1.019 1.5,-0.5 1.686,0.535 2.053,0.394 1.461,-0.563 -0.561,-0.908 -0.308,-1.092 0.875,-0.638 1.921,0.737 4.875,-0.149 4.19,-1.258 -0.255,-0.411 0.676,-1.268 2.069,-1.902 1.789,-0.815 2.331,-0.829 1.848,-0.047 -0.498,0.806 -0.132,0.812 1.347,0.02 1.117,-0.597 3.008,-2.667 4.202,-4.599 1.194,-1.932 2.386,-3.513 2.649,-3.513 0.262,0 0.156,0.52 -0.236,1.155 -0.433,0.699 -0.276,0.883 0.397,0.467 0.611,-0.377 0.829,-1.42 0.484,-2.318 -0.418,-1.091 -0.238,-1.392 0.544,-0.909 1.362,0.842 1.276,1.327 1.565,-8.763 0.151,-5.272 -0.191,-8.286 -1.037,-9.131 -0.695,-0.695 -1.014,-1.512 -0.71,-1.816 0.304,-0.304 -2.737,-3.843 -6.758,-7.864 -4.021,-4.021 -6.962,-6.747 -6.537,-6.058 0.612,0.989 0.243,1.01 -1.758,0.098 -1.393,-0.634 -2.324,-1.49 -2.07,-1.901 0.747,-1.209 -7.547,-4.088 -9.755,-3.387 -1.435,0.455 -1.803,0.289 -1.27,-0.573 0.559,-0.905 -0.109,-1.044 -2.625,-0.546 -2.633,0.521 -3.045,0.418 -1.875,-0.465 1.156,-0.872 0.352,-1.005 -3.5,-0.58 -2.75,0.304 -4.229,0.223 -3.288,-0.178 0.942,-0.402 -6.654,-0.758 -16.881,-0.79 -10.227,-0.033 -17.747,0.296 -16.712,0.73 1.062,0.446 -0.296,0.55 -3.119,0.238 -3.852,-0.425 -4.656,-0.292 -3.5,0.58 1.17,0.883 0.758,0.986 -1.875,0.465 -2.417,-0.478 -3.174,-0.342 -2.666,0.479 0.501,0.812 -0.09,0.947 -2.024,0.461 -2.054,-0.515 -2.541,-0.374 -1.959,0.567 0.574,0.928 0.191,1.068 -1.476,0.539 -1.686,-0.535 -2.053,-0.394 -1.461,0.563 0.561,0.908 0.308,1.092 -0.875,0.638 -2.177,-0.835 -4.836,0.212 -3.994,1.574 0.417,0.674 0.029,0.823 -1.057,0.407 C 295.732,47.96 284,53.388 284,54.979 c 0,0.523 -0.954,1.461 -2.121,2.086 -1.71,0.915 -1.983,0.873 -1.413,-0.215 0.389,-0.743 -0.271,-0.225 -1.466,1.15 -1.195,1.375 -1.855,1.893 -1.466,1.15 0.57,-1.088 0.297,-1.13 -1.413,-0.215 -1.167,0.625 -2.121,1.371 -2.121,1.659 0,0.288 0.563,0.233 1.25,-0.122 0.688,-0.355 0.125,0.286 -1.25,1.423 -1.375,1.138 -3.048,1.872 -3.718,1.631 -0.67,-0.241 -1.527,0.061 -1.904,0.672 -0.416,0.673 -0.232,0.83 0.467,0.397 2.46,-1.52 1.004,0.273 -1.595,1.965 -1.988,1.293 -2.473,1.381 -1.75,0.317 0.55,-0.809 -0.062,-0.325 -1.36,1.076 -1.298,1.401 -2.036,1.872 -1.64,1.047 0.396,-0.825 -0.342,-0.354 -1.64,1.047 -1.298,1.401 -2.135,2.059 -1.86,1.461 0.275,-0.597 -0.625,0.076 -2,1.496 -4.187,4.323 -7.836,7.027 -6.069,4.496 0.768,-1.1 -0.365,-0.171 -2.517,2.065 -5.247,5.45 -10.498,9.754 -8.407,6.891 0.821,-1.124 -0.082,-0.414 -2.007,1.579 -4.632,4.794 -8.168,7.397 -6.066,4.465 0.788,-1.1 0.026,-0.537 -1.694,1.25 -3.013,3.131 -5.031,4.34 -3.73,2.233 0.346,-0.559 -0.958,-0.26 -2.898,0.665 -1.939,0.925 -3.283,2.075 -2.985,2.557 0.297,0.481 -0.735,0.596 -2.293,0.254 -1.876,-0.411 -2.39,-0.307 -1.522,0.307 0.882,0.624 -0.152,0.897 -3.154,0.831 -2.457,-0.053 -4.211,-0.511 -3.898,-1.017 0.312,-0.506 -0.143,-0.647 -1.013,-0.313 -0.937,0.359 -1.822,-0.021 -2.173,-0.934 -0.325,-0.847 -1.22,-1.299 -1.988,-1.004 -0.769,0.295 -2.228,-0.446 -3.242,-1.646 -1.819,-2.154 -1.816,-2.163 0.205,-0.683 1.644,1.204 1.608,1.076 -0.186,-0.647 -1.23,-1.181 -1.964,-2.419 -1.633,-2.75 0.332,-0.332 0.191,-0.604 -0.313,-0.606 -0.505,-0.001 -0.917,-2.884 -0.917,-6.405 0,-3.522 0.29,-6.223 0.645,-6.003 0.892,0.552 1.991,-2.56 1.299,-3.679 -0.309,-0.501 -0.101,-0.91 0.462,-0.91 0.563,0 1.534,-0.954 2.159,-2.121 0.916,-1.711 0.874,-1.979 -0.215,-1.39 -0.743,0.402 -0.204,-0.331 1.197,-1.629 1.401,-1.298 1.851,-1.916 1,-1.373 -0.851,0.543 1.526,-2.045 5.282,-5.75 6.742,-6.652 8.405,-7.929 7.143,-5.487 -0.355,0.688 0.333,0.125 1.528,-1.25 1.195,-1.375 1.855,-1.893 1.466,-1.15 -0.57,1.088 -0.297,1.13 1.413,0.215 1.167,-0.625 2.121,-1.596 2.121,-2.159 0,-0.563 0.403,-0.775 0.895,-0.471 0.493,0.305 1.171,-0.166 1.509,-1.044 0.349,-0.912 1.254,-1.352 2.104,-1.026 0.821,0.315 1.492,0.11 1.492,-0.455 0,-0.566 0.409,-0.775 0.91,-0.466 1.403,0.867 4.162,-0.519 3.42,-1.719 -0.409,-0.662 -0.045,-0.829 0.965,-0.442 2.034,0.78 12.103,-2.551 11.011,-3.643 -0.441,-0.442 0.502,-0.475 2.095,-0.075 2.26,0.567 2.719,0.437 2.084,-0.589 -0.588,-0.952 -0.353,-1.139 0.851,-0.677 1.905,0.731 4.877,-0.145 4.201,-1.239 -0.248,-0.402 1.136,-1.487 3.075,-2.412 2.396,-1.143 3.309,-1.276 2.848,-0.415 -0.374,0.697 0.382,0.121 1.68,-1.28 1.298,-1.401 1.918,-1.851 1.379,-1 -0.54,0.851 1.333,-0.789 4.163,-3.645 4.829,-4.874 5.12,-5.455 4.767,-9.5 -0.324,-3.713 -0.26,-3.894 0.469,-1.308 0.845,3 0.845,3 0.964,0.321 0.08,-1.825 -1.05,-3.896 -3.549,-6.5 -2.017,-2.101 -3.294,-3.146 -2.837,-2.321 0.457,0.825 -0.389,0.216 -1.881,-1.354 -1.795,-1.889 -3.372,-2.681 -4.665,-2.343 -1.21,0.316 -1.705,0.11 -1.302,-0.542 0.43,-0.696 -0.275,-0.821 -2.083,-0.367 -1.503,0.377 -2.513,0.331 -2.246,-0.104 0.268,-0.434 -5.068,-0.8 -11.858,-0.813 -6.79,-0.013 -11.809,0.324 -11.153,0.748 m -39.005,138.06 c 0.671,0.469 -0.286,0.543 -2.178,0.169 -2.516,-0.498 -3.184,-0.359 -2.625,0.546 0.545,0.882 0.134,1.019 -1.5,0.5 -1.413,-0.448 -2.02,-0.341 -1.631,0.288 0.682,1.104 -2.07,2.515 -3.354,1.721 -0.443,-0.274 -1.081,0.222 -1.419,1.1 -0.342,0.893 -1.258,1.351 -2.072,1.038 -0.803,-0.308 -1.769,-0.06 -2.146,0.551 -0.441,0.713 -0.183,0.85 0.717,0.382 0.773,-0.4 0.551,-0.034 -0.492,0.814 -1.044,0.848 -2.216,1.345 -2.605,1.105 -0.389,-0.241 -1.785,0.786 -3.103,2.282 -2.395,2.719 -2.395,2.719 0.163,0.719 1.407,-1.1 0.957,-0.47 -1,1.401 -1.957,1.871 -2.883,3.075 -2.058,2.676 0.937,-0.453 0.849,-0.191 -0.234,0.698 -0.954,0.782 -1.442,1.716 -1.084,2.074 0.358,0.358 0.14,0.651 -0.484,0.651 -0.648,0 -0.861,0.714 -0.497,1.664 0.454,1.183 0.27,1.436 -0.638,0.875 -0.957,-0.592 -1.098,-0.225 -0.563,1.461 0.527,1.661 0.388,2.049 -0.531,1.481 -0.953,-0.589 -1.087,0.147 -0.57,3.124 0.507,2.926 0.405,3.522 -0.409,2.395 -0.801,-1.107 -0.958,0.597 -0.599,6.5 0.32,5.259 0.21,6.801 -0.321,4.5 -0.566,-2.455 -0.846,0.307 -0.938,9.25 C 162,208 162,208 159.25,208.118 c -2.75,0.119 -2.75,0.119 0.25,0.945 1.936,0.534 -0.014,0.671 -5.5,0.386 -6.116,-0.317 -7.939,-0.159 -6.5,0.566 1.557,0.784 1.158,0.881 -1.804,0.44 -4.154,-0.618 -15.114,2.059 -14.237,3.478 0.69,1.117 -2.323,2.269 -3.704,1.416 -0.676,-0.418 -0.765,-0.175 -0.245,0.666 0.591,0.957 0.365,1.151 -0.814,0.699 -0.898,-0.345 -1.941,-0.127 -2.318,0.484 -0.445,0.72 -0.226,0.826 0.622,0.302 0.892,-0.551 1.068,-0.42 0.553,0.414 -0.415,0.672 -1.337,0.999 -2.048,0.726 -1.492,-0.572 -5.781,3.633 -6.13,6.012 -0.13,0.885 -0.784,2.113 -1.452,2.729 -0.91,0.837 -1.039,0.804 -0.511,-0.131 0.388,-0.687 0.47,-1.25 0.182,-1.25 -0.288,0 -1.034,0.954 -1.659,2.121 -0.781,1.459 -0.795,1.911 -0.046,1.448 0.677,-0.419 0.864,-0.089 0.495,0.873 -0.327,0.851 -0.949,1.327 -1.384,1.058 -1.166,-0.72 -1.94,1.959 -1.345,4.654 0.413,1.867 0.3,2.04 -0.553,0.846 -0.814,-1.139 -1.072,-0.178 -1.073,4 -0.002,6.238 0.826,10.208 1.98,9.494 1.053,-0.651 2.164,2.418 1.35,3.733 -0.355,0.576 0.431,1.925 1.747,2.997 1.317,1.072 1.719,1.604 0.894,1.183 -0.825,-0.422 -0.003,0.651 1.826,2.385 1.829,1.734 3.086,3.542 2.792,4.018 -0.295,0.476 1.359,2.626 3.673,4.777 4.209,3.913 4.209,3.913 0.709,-0.157 -1.925,-2.239 -0.592,-1.114 2.963,2.5 3.554,3.613 5.804,5.64 5,4.504 -0.805,-1.137 0.213,-0.237 2.261,2 2.048,2.236 5.648,5.81 8,7.943 2.352,2.132 3.58,3.482 2.729,3 -0.851,-0.483 -0.401,0.185 1,1.483 1.401,1.298 1.981,2.056 1.289,1.686 -0.993,-0.532 -1.015,-0.141 -0.103,1.859 0.634,1.393 1.496,2.321 1.914,2.062 0.418,-0.258 0.507,0.501 0.196,1.688 -0.317,1.213 -0.156,1.906 0.368,1.582 0.521,-0.323 0.921,1.324 0.907,3.744 -0.013,2.376 -0.42,4.077 -0.904,3.78 -0.484,-0.297 -0.699,10e-4 -0.479,0.661 0.975,2.927 -10.654,12.586 -13.733,11.404 -1.283,-0.492 -1.52,-0.316 -0.908,0.674 0.605,0.979 0.38,1.168 -0.836,0.701 -2.177,-0.835 -4.836,0.212 -3.994,1.574 0.413,0.668 0.038,0.827 -1.006,0.426 -2.177,-0.835 -4.836,0.212 -3.994,1.574 0.413,0.668 0.038,0.827 -1.006,0.426 -1.957,-0.751 -4.869,0.158 -4.164,1.299 0.617,0.998 -2.369,2.199 -3.59,1.444 -0.501,-0.309 -0.91,-0.059 -0.91,0.556 0,0.615 -0.45,0.84 -1,0.5 -0.55,-0.34 -1,-0.115 -1,0.5 0,0.615 -0.45,0.84 -1,0.5 -0.55,-0.34 -1,-0.153 -1,0.415 0,0.569 -1.4,1.757 -3.11,2.642 -1.711,0.884 -2.809,1.121 -2.441,0.526 1.258,-2.036 -0.541,-1.086 -3.16,1.667 -1.439,1.512 -2.268,2.075 -1.843,1.25 0.426,-0.825 -0.326,-0.19 -1.671,1.411 -1.344,1.602 -2.895,2.633 -3.447,2.292 -0.552,-0.341 -2.764,1.274 -4.915,3.588 C 87.5,347.5 87.5,347.5 91.557,344 c 3.221,-2.779 3.087,-2.553 -0.653,1.097 -6.766,6.603 -6.477,10.231 1.447,18.137 3.161,3.153 5.471,5.287 5.134,4.742 -0.345,-0.559 0.492,-0.488 1.92,0.163 1.393,0.634 2.315,1.505 2.049,1.935 -0.712,1.152 2.976,2.082 5.069,1.279 1.312,-0.504 1.589,-0.344 1.016,0.584 -0.608,0.983 -0.014,1.123 2.586,0.609 2.494,-0.493 2.983,-0.394 1.875,0.378 -1.081,0.753 1.572,1.03 9.5,0.99 7.448,-0.037 10.354,-0.349 9,-0.965 -1.368,-0.622 -0.42,-0.736 3,-0.358 3.852,0.425 4.656,0.292 3.5,-0.58 -1.17,-0.883 -0.758,-0.986 1.875,-0.465 2.417,0.478 3.174,0.342 2.666,-0.479 -0.501,-0.812 0.09,-0.947 2.024,-0.461 2.054,0.515 2.541,0.374 1.959,-0.567 -0.574,-0.928 -0.191,-1.068 1.476,-0.539 1.635,0.519 2.045,0.382 1.5,-0.5 -0.545,-0.882 -0.135,-1.019 1.5,-0.5 1.686,0.535 2.053,0.394 1.461,-0.563 -0.561,-0.908 -0.308,-1.092 0.875,-0.638 1.921,0.737 4.875,-0.149 4.19,-1.258 -0.255,-0.411 0.676,-1.268 2.069,-1.902 1.483,-0.676 2.274,-0.737 1.91,-0.147 -1.218,1.97 0.631,0.966 3.206,-1.742 1.439,-1.512 2.258,-2.075 1.821,-1.25 -0.438,0.825 0.501,0.125 2.086,-1.555 1.585,-1.68 2.432,-2.331 1.882,-1.445 -0.55,0.886 0.125,0.408 1.5,-1.061 1.375,-1.469 3.647,-3.744 5.049,-5.055 1.402,-1.311 1.827,-1.934 0.945,-1.384 -0.882,0.55 -0.229,-0.297 1.451,-1.882 1.68,-1.585 2.448,-2.543 1.705,-2.129 -1.09,0.608 -1.131,0.345 -0.215,-1.368 0.625,-1.167 1.371,-2.121 1.659,-2.121 0.288,0 0.246,0.45 -0.094,1 -0.34,0.55 -0.378,1 -0.085,1 1.221,0 3.519,-6.008 2.908,-7.601 -0.476,-1.241 -0.303,-1.505 0.614,-0.938 0.957,0.592 1.098,0.225 0.563,-1.461 -0.519,-1.635 -0.382,-2.045 0.5,-1.5 0.882,0.545 1.019,0.135 0.5,-1.5 -0.532,-1.675 -0.391,-2.051 0.549,-1.47 0.966,0.597 1.109,-0.02 0.608,-2.625 -0.496,-2.58 -0.392,-3.041 0.427,-1.905 0.823,1.141 0.956,0.597 0.558,-2.272 -0.346,-2.491 -0.167,-3.553 0.524,-3.125 0.684,0.422 0.8,-0.135 0.334,-1.603 -0.519,-1.635 -0.382,-2.045 0.5,-1.5 0.882,0.545 1.019,0.135 0.5,-1.5 -0.535,-1.686 -0.394,-2.053 0.563,-1.461 0.908,0.561 1.092,0.308 0.638,-0.875 -0.351,-0.915 -0.176,-1.664 0.389,-1.664 0.566,0 0.75,-0.45 0.41,-1 -0.34,-0.55 -0.066,-1 0.608,-1 0.674,0 0.932,-0.293 0.574,-0.651 -0.358,-0.358 0.13,-1.292 1.084,-2.074 1.146,-0.941 1.226,-1.199 0.234,-0.762 -0.825,0.363 -0.375,-0.318 1,-1.513 1.375,-1.195 1.825,-1.865 1,-1.487 -0.825,0.378 0.22,-0.821 2.322,-2.663 2.103,-1.843 5.028,-4.718 6.5,-6.389 1.473,-1.671 2.453,-2.55 2.178,-1.953 -0.275,0.598 0.562,-0.06 1.86,-1.461 1.298,-1.401 2.046,-1.872 1.663,-1.047 -0.383,0.825 0.181,0.423 1.253,-0.894 1.247,-1.531 2.415,-2.106 3.241,-1.595 0.909,0.561 1.049,0.405 0.473,-0.526 -0.599,-0.97 -0.358,-1.149 0.898,-0.666 1.111,0.426 1.477,0.272 1.039,-0.438 -0.457,-0.739 0.095,-0.876 1.698,-0.423 1.925,0.546 2.091,0.455 0.875,-0.479 -1.239,-0.952 -1.109,-1.067 0.75,-0.659 1.238,0.271 2.25,0.035 2.25,-0.525 0,-0.624 -1.449,-0.767 -3.75,-0.369 -2.868,0.496 -3.397,0.388 -2.25,-0.458 1.131,-0.834 0.026,-0.978 -4.5,-0.585 -4.246,0.369 -5.269,0.256 -3.5,-0.386 1.609,-0.584 -4.885,-0.834 -18.215,-0.702 -11.393,0.113 -19.943,-0.141 -19,-0.563 0.943,-0.423 -0.535,-0.538 -3.285,-0.257 -3.73,0.382 -4.619,0.238 -3.5,-0.565 1.137,-0.815 0.587,-0.949 -2.272,-0.552 -2.571,0.357 -3.559,0.177 -3.101,-0.563 0.456,-0.738 -0.206,-0.867 -2.062,-0.401 -1.934,0.486 -2.525,0.351 -2.024,-0.461 0.496,-0.802 0.032,-0.932 -1.541,-0.433 -1.686,0.535 -2.053,0.394 -1.461,-0.563 0.568,-0.919 0.302,-1.09 -0.947,-0.611 -2.073,0.796 -5.397,-0.753 -7.929,-3.693 -1.01,-1.173 -1.513,-1.458 -1.118,-0.633 0.395,0.825 -0.578,0.125 -2.163,-1.555 -1.585,-1.68 -2.207,-2.145 -1.382,-1.033 0.825,1.112 -0.796,0.138 -3.602,-2.164 -2.806,-2.303 -5.712,-4.988 -6.456,-5.967 -0.745,-0.98 0.227,-0.431 2.16,1.219 1.933,1.65 1.464,1.006 -1.044,-1.431 -2.507,-2.437 -3.883,-4.051 -3.058,-3.587 0.825,0.465 0.234,-0.359 -1.314,-1.83 -2.072,-1.97 -2.637,-3.232 -2.143,-4.789 0.4,-1.258 0.282,-1.873 -0.291,-1.518 -0.562,0.347 -0.783,-0.538 -0.529,-2.125 0.255,-1.598 0.092,-2.244 -0.395,-1.565 -0.472,0.658 -0.828,-1.558 -0.828,-5.155 0,-3.47 0.386,-6.071 0.857,-5.779 0.472,0.291 0.536,-0.483 0.143,-1.721 -0.394,-1.243 -0.318,-2.006 0.17,-1.704 0.486,0.3 1.68,-0.84 2.652,-2.535 1.699,-2.96 1.698,-3.027 -0.027,-1.715 -0.987,0.752 -0.22,-0.338 1.705,-2.422 3.462,-3.747 7.964,-6.992 6.569,-4.735 -0.419,0.677 -0.089,0.864 0.873,0.495 0.851,-0.327 1.268,-1.045 0.927,-1.596 -0.389,-0.629 0.218,-0.736 1.631,-0.288 1.517,0.482 2.031,0.358 1.576,-0.378 -0.46,-0.744 0.375,-0.911 2.624,-0.523 1.867,0.322 2.802,0.207 2.153,-0.265 -0.635,-0.462 4.699,-0.85 11.958,-0.869 7.207,-0.019 11.998,0.247 10.647,0.592 -1.801,0.459 -1.03,0.736 2.888,1.035 2.94,0.224 5.597,10e-4 5.904,-0.497 0.308,-0.497 0.046,-0.587 -0.58,-0.2 -0.804,0.497 -0.972,-0.269 -0.571,-2.595 0.44,-2.551 0.32,-2.959 -0.529,-1.8 -0.831,1.135 -0.954,0.405 -0.503,-3 0.406,-3.073 0.284,-4.058 -0.385,-3.105 -0.66,0.941 -0.873,-1.498 -0.652,-7.5 0.241,-6.587 0.124,-7.727 -0.452,-4.395 -0.633,3.662 -0.779,2.732 -0.786,-5 -0.006,-7.355 0.171,-8.597 0.784,-5.5 0.615,3.105 0.723,2.354 0.484,-3.355 -0.204,-4.882 0.014,-6.9 0.649,-6 0.644,0.912 0.775,0.047 0.402,-2.645 -0.411,-2.967 -0.282,-3.613 0.498,-2.5 0.8,1.139 0.903,0.819 0.432,-1.334 -0.364,-1.659 -0.234,-2.594 0.314,-2.256 1.055,0.652 2.421,-2.154 1.654,-3.395 -0.274,-0.443 0.222,-1.081 1.1,-1.419 0.879,-0.337 1.351,-1.258 1.048,-2.048 -0.326,-0.849 0.869,-2.68 2.931,-4.491 3.509,-3.081 5.046,-3.892 3.919,-2.068 -0.35,0.566 0.05,0.735 0.935,0.395 0.851,-0.327 1.367,-0.884 1.148,-1.239 -0.22,-0.355 2.665,-0.645 6.41,-0.645 3.745,0 6.63,0.29 6.41,0.645 -0.219,0.355 0.297,0.912 1.148,1.239 1.016,0.39 1.331,0.169 0.92,-0.645 -0.345,-0.682 0.339,-0.009 1.519,1.494 1.18,1.504 3.576,3.912 5.324,5.352 1.749,1.44 2.504,2.274 1.679,1.853 -0.825,-0.421 -0.234,0.439 1.314,1.91 2.072,1.97 2.637,3.232 2.143,4.789 -0.42,1.321 -0.291,1.879 0.343,1.487 0.626,-0.388 0.792,0.233 0.433,1.625 -0.523,2.032 -0.412,2.113 1.149,0.833 1.601,-1.314 1.639,-1.222 0.511,1.254 -0.67,1.47 -0.92,2.971 -0.555,3.335 1.113,1.113 1.674,-0.173 1.923,-4.414 0.132,-2.229 0.511,-3.888 0.843,-3.686 0.332,0.201 1.123,-0.773 1.757,-2.166 0.912,-2 0.89,-2.391 -0.103,-1.859 -0.692,0.37 -0.112,-0.388 1.289,-1.686 1.401,-1.298 2.055,-2.135 1.453,-1.86 -0.602,0.275 -0.061,-0.417 1.203,-1.538 2.387,-2.117 3.397,-8.26 1.127,-6.857 -0.773,0.478 -0.965,0.19 -0.567,-0.847 0.725,-1.889 -2.196,-4.701 -4.152,-3.998 -0.781,0.281 -1.112,0.051 -0.756,-0.525 0.884,-1.431 -1.99,-2.347 -5.184,-1.653 -1.735,0.377 -2.224,0.263 -1.396,-0.325 0.791,-0.562 -2.889,-0.887 -9.697,-0.858 -6.19,0.028 -10.45,0.413 -9.775,0.886 m 43.447,1.795 c -1.729,1.007 -4.75,5.941 -4.75,7.759 0,0.516 1.491,1.218 3.314,1.56 11.971,2.246 19.88,28.938 12.992,43.851 -2.194,4.75 -2.194,4.75 0,4.761 1.207,0.006 3.882,0.29 5.944,0.631 3.75,0.62 3.75,0.62 3.75,-14.07 0,-33.768 -8.632,-51.841 -21.25,-44.492"
       stroke="none"
       fill="#d52f16"
       fill-rule="evenodd"
       id="path239" /><path
       d="m 226.5,1.399 c -23.612,5.421 -45.731,23.514 -59.107,48.35 -15.729,29.201 -24.172,38.824 -33.384,38.047 -6.183,-0.522 -5.38,-4.079 3.004,-13.311 13.205,-14.537 13.918,-26.229 2.086,-34.198 -19.171,-12.914 -48.594,3.141 -60.051,32.766 -5.515,14.262 -5.851,23.185 -1.869,49.757 2.101,14.016 -2.25,13.64 -11.229,-0.97 -10.146,-16.511 -22.427,-21.816 -35.206,-15.207 -14.015,7.247 -15.193,24.647 -3.722,54.969 7.73,20.436 6.153,25.658 -9.586,31.74 -24.06,9.299 -22.743,23.47 3.207,34.495 11.639,4.944 12.141,5.899 9.942,18.911 -1.979,11.713 -0.672,15.46 7.964,22.838 8.704,7.436 7.89,11.106 -6.522,29.414 -16.483,20.939 -16.441,20.811 -6.996,21.206 10.243,0.428 0.902,15.954 -15.055,25.021 -7.574,4.304 -1.62,8.556 14.255,10.18 11.456,1.172 11.42,1.073 5.193,14.447 -1.883,4.044 -3.424,7.487 -3.424,7.65 0,2.718 19.755,2.767 31.326,0.077 3.092,-0.718 5.438,-1.008 5.212,-0.643 -0.225,0.365 -3.138,4.662 -6.474,9.55 -3.335,4.888 -6.064,9.466 -6.064,10.174 0,3.496 15.144,6.91 25.655,5.784 6.203,-0.664 6.203,-0.664 4.274,5.534 -1.061,3.409 -1.929,6.496 -1.928,6.859 0,0.364 4.881,0.661 10.847,0.661 12.111,0 13.583,0.604 14.448,5.935 1.667,10.277 9.817,13.398 27.495,10.529 6.29,-1.021 6.29,-1.021 8.875,2.051 9.052,10.757 23.316,8.604 34.294,-5.176 4.51,-5.66 4.51,-5.66 9.897,0.292 12.309,13.602 25.899,11.864 34.254,-4.379 1.927,-3.747 1.927,-3.747 7.239,-0.75 9.332,5.267 16.643,2.416 20.314,-7.918 1.676,-4.72 1.676,-4.72 6.96,-4.282 11.892,0.986 13.316,-3.019 7.797,-21.922 -0.381,-1.304 0.523,-1.716 4.627,-2.111 9.269,-0.89 9.235,-2.107 -0.361,-13.198 -7.758,-8.967 -15.587,-20.958 -17.137,-26.247 -0.626,-2.137 -0.496,-2.166 7.156,-1.59 6.626,0.499 7.624,0.376 6.662,-0.824 -20.135,-25.097 -25.505,-33.456 -29.498,-45.91 -2.614,-8.157 -2.239,-2.826 0.503,7.141 3.138,11.403 6.559,18.671 11.215,23.825 6.86,7.593 5.39,9.361 -5.334,6.419 -2.859,-0.784 4.479,16.311 12.358,28.792 2.643,4.187 2.968,5.299 1.233,4.228 -0.737,-0.456 -0.882,-0.273 -0.399,0.507 0.415,0.672 1.005,0.97 1.312,0.663 0.7,-0.699 3.242,1.344 3.242,2.606 0,0.516 -0.562,0.599 -1.25,0.186 -0.88,-0.528 -0.851,-0.259 0.096,0.909 0.74,0.913 1.865,1.562 2.5,1.442 0.635,-0.12 1.056,0.301 0.936,0.936 -0.12,0.635 0.529,1.76 1.442,2.5 1.398,1.134 1.529,1.129 0.829,-0.034 -0.575,-0.954 -0.403,-1.237 0.558,-0.916 0.764,0.254 1.445,0.988 1.514,1.629 0.069,0.642 0.181,1.617 0.25,2.167 0.069,0.55 0.63,1 1.247,1 0.73,0 0.643,-0.582 -0.25,-1.663 -1.176,-1.425 -1.158,-1.592 0.128,-1.166 0.825,0.272 1.5,1.133 1.5,1.912 0,1.607 -8.662,1.566 -12.939,-0.06 -2.592,-0.985 -0.78,8.786 2.976,16.049 1.791,3.462 1.842,4.264 0.213,3.327 -0.726,-0.418 -0.901,-0.338 -0.417,0.191 0.459,0.5 1.321,0.91 1.917,0.91 0.596,0 1.281,0.593 1.523,1.318 0.279,0.837 -0.238,1.202 -1.417,1 -1.086,-0.186 -1.75,0.208 -1.6,0.951 0.141,0.697 -0.853,1.774 -2.209,2.391 -2.679,1.221 -7.486,-0.949 -7.606,-3.433 -0.033,-0.675 -1.07,1.473 -2.305,4.773 -1.234,3.3 -2.729,5.905 -3.321,5.79 -1.315,-0.257 -4.241,2.827 -3.994,4.21 0.752,4.206 -10.698,0.428 -14.985,-4.946 -2.74,-3.433 -2.74,-3.433 -6.476,3.332 -3.399,6.157 -6.191,9.614 -7.764,9.614 -0.328,0 -0.482,0.343 -0.342,0.762 0.375,1.126 -5.934,4.733 -8.254,4.718 -2.548,-0.016 -10.058,-4.231 -9.821,-5.512 0.248,-1.345 -2.772,-4.529 -3.732,-3.935 -0.432,0.267 -2.172,-1.196 -3.867,-3.252 -3.125,-3.792 -4.026,-5.984 -1.925,-4.686 0.715,0.443 0.883,0.275 0.44,-0.44 -1.013,-1.64 -0.973,-1.675 -4.442,3.906 -1.731,2.784 -3.532,4.823 -4.004,4.531 -1.031,-0.637 -5.864,4.281 -5.149,5.239 0.81,1.084 -6.236,4.166 -9.527,4.167 -3.669,0.002 -7.808,-2.683 -7.076,-4.59 0.292,-0.761 0.041,-1.277 -0.558,-1.146 -0.599,0.131 -1.708,-1.562 -2.464,-3.762 -1.092,-3.176 -1.87,-4 -3.78,-4 -1.322,0 -2.217,0.303 -1.988,0.674 0.508,0.821 -8.994,4.455 -15.422,5.899 -5.438,1.221 -12.432,0.379 -10.116,-1.218 1.065,-0.734 0.87,-0.829 -0.763,-0.371 -5.984,1.678 -6.36,-7.524 -0.76,-18.576 2.016,-3.978 2.158,-4.732 0.791,-4.207 -1.209,0.464 -1.441,0.276 -0.847,-0.686 0.549,-0.887 0.433,-1.085 -0.352,-0.6 -0.644,0.398 -0.933,1.108 -0.643,1.578 0.291,0.47 -0.804,1.803 -2.433,2.963 -16.403,11.68 -31.645,7.35 -23.608,-6.706 1.337,-2.337 2.119,-4.234 1.738,-4.214 -0.381,0.019 -3.392,0.687 -6.692,1.484 -9.189,2.219 -21.459,1.841 -19.942,-0.613 0.3,-0.486 -0.149,-0.618 -0.998,-0.292 -3.924,1.506 -2.673,-3.03 3.159,-11.452 8.505,-12.28 11.696,-18.734 9.263,-18.734 -1.009,0 -1.569,0.43 -1.245,0.955 0.34,0.55 -0.138,0.676 -1.125,0.297 -1.156,-0.443 -1.482,-0.28 -1,0.5 0.483,0.781 0.157,0.944 -1,0.5 -1.156,-0.443 -1.482,-0.28 -1,0.5 0.483,0.781 0.157,0.944 -1,0.5 -0.944,-0.362 -1.47,-0.261 -1.17,0.224 1.436,2.324 -15.753,6.566 -23.878,5.892 -9.986,-0.828 -10.639,-4.642 -2.731,-15.943 6.231,-8.903 6.398,-8.243 -1.925,-7.616 -14.636,1.104 -23.093,-1.166 -19.429,-5.214 1.952,-2.157 4.119,-2.801 2.926,-0.869 -0.456,0.737 -0.273,0.882 0.507,0.399 0.672,-0.415 0.956,-1.019 0.632,-1.343 -0.767,-0.767 7.562,-9.263 8.508,-8.679 0.397,0.245 1.335,-0.337 2.085,-1.293 1.233,-1.574 1.197,-1.609 -0.387,-0.367 -0.962,0.755 -1.75,0.938 -1.75,0.405 0,-1.544 3.579,-4.357 4.491,-3.529 0.457,0.414 0.533,0.234 0.171,-0.4 -0.362,-0.633 0.691,-3.716 2.34,-6.851 4.352,-8.273 4.165,-8.822 -2.826,-8.316 -9.378,0.678 -9.787,-1.001 -2.13,-8.727 3.465,-3.497 6.622,-6.159 7.014,-5.917 0.392,0.243 1.327,-0.342 2.077,-1.298 1.233,-1.574 1.197,-1.609 -0.387,-0.367 -0.962,0.755 -1.75,0.938 -1.75,0.405 0,-1.142 3.994,-4.928 4.688,-4.444 0.263,0.184 0.779,-0.001 1.145,-0.41 0.367,-0.409 0.105,-0.42 -0.583,-0.024 -1.87,1.076 -1.662,0.605 3.614,-8.173 12.094,-20.122 21.12,-51.293 15.685,-54.166 -5.324,-2.814 -5.506,-3.206 -3.399,-7.345 1.149,-2.258 2.377,-3.507 3.043,-3.096 0.688,0.425 0.835,0.236 0.384,-0.494 -1.174,-1.9 11.708,-22.685 13.408,-21.634 0.482,0.298 1.202,0.015 1.6,-0.629 0.452,-0.731 0.291,-0.903 -0.43,-0.457 -0.635,0.392 -1.155,0.292 -1.155,-0.224 0,-1.082 2.037,-2.933 3.5,-3.179 0.55,-0.093 1.225,-0.428 1.5,-0.746 0.275,-0.317 -0.062,-0.253 -0.75,0.143 -0.687,0.395 -1.25,0.312 -1.25,-0.185 0,-1.233 3.533,-4.347 4.189,-3.692 0.289,0.289 1.153,-0.272 1.918,-1.248 1.267,-1.613 1.234,-1.65 -0.357,-0.402 -4.115,3.228 -1.239,-0.936 4.739,-6.861 7.118,-7.055 7.109,-7.805 -0.102,-8.837 -3.346,-0.478 -4.887,-1.168 -4.887,-2.186 0,-0.819 0.675,-1.338 1.5,-1.155 0.825,0.184 1.166,0 0.759,-0.408 -0.408,-0.407 -0.24,-1.345 0.372,-2.083 1.36,-1.639 3.268,-1.796 2.274,-0.187 -0.446,0.721 -0.274,0.882 0.457,0.43 0.644,-0.398 0.943,-1.091 0.665,-1.541 -0.771,-1.248 2.223,-3.317 3.584,-2.476 0.741,0.458 0.936,0.317 0.512,-0.37 -0.887,-1.433 3.909,-4.605 5.488,-3.63 0.744,0.461 0.936,0.317 0.506,-0.378 -0.866,-1.401 8.991,-6.555 11.036,-5.77 0.798,0.307 1.205,0.159 0.905,-0.327 -0.301,-0.486 0.226,-1.18 1.17,-1.542 2.304,-0.884 -0.123,-2.514 -3.778,-2.536 -1.403,-0.008 -3.052,-0.517 -3.665,-1.13 -0.821,-0.821 -2.022,-0.424 -4.545,1.5 -3.636,2.773 -5.323,3.368 -4.145,1.46 0.456,-0.737 0.273,-0.882 -0.507,-0.399 -0.672,0.415 -0.965,1.01 -0.652,1.323 0.686,0.686 -2.372,4.231 -3.65,4.231 -0.497,0 -0.586,-0.562 -0.198,-1.25 0.388,-0.687 -1.16,0.529 -3.441,2.703 -4.018,3.83 -5.694,6.076 -2.647,3.547 2.323,-1.928 1.77,0.446 -0.605,2.595 -1.158,1.048 -2.387,1.905 -2.731,1.905 -0.344,0 -0.634,0.674 -0.645,1.497 -0.01,0.824 -0.544,1.499 -1.186,1.5 -0.641,0.002 -1.541,0.413 -2,0.913 -0.484,0.529 -0.309,0.609 0.417,0.191 1.526,-0.878 1.588,-0.101 0.2,2.493 -0.578,1.079 -1.473,1.701 -1.989,1.382 -0.53,-0.328 -0.652,0.167 -0.28,1.136 0.444,1.157 0.281,1.483 -0.5,1 -0.78,-0.482 -0.943,-0.156 -0.5,1 0.444,1.157 0.281,1.483 -0.5,1 -0.78,-0.482 -0.943,-0.156 -0.5,1 0.421,1.096 0.27,1.476 -0.418,1.051 -0.68,-0.421 -0.889,0.051 -0.567,1.282 0.28,1.071 1.251,2.178 2.157,2.46 0.906,0.281 0.17,0.381 -1.634,0.222 -1.805,-0.159 -2.923,0.069 -2.484,0.508 0.439,0.439 2.238,0.907 3.997,1.041 3.2,0.244 0.77,6.324 -2.527,6.324 -0.571,0 -1.413,0.41 -1.872,0.91 -0.484,0.529 -0.309,0.609 0.417,0.191 0.687,-0.395 1.25,-0.312 1.25,0.185 0,1.105 -4.086,4.913 -4.522,4.214 -0.171,-0.275 -0.686,-0.09 -1.145,0.41 -0.492,0.538 -0.268,0.583 0.547,0.111 0.943,-0.547 1.233,-0.36 0.916,0.59 -0.254,0.764 -0.95,1.389 -1.546,1.389 -0.596,0 -1.458,0.41 -1.917,0.91 -0.484,0.529 -0.309,0.609 0.417,0.191 1.689,-0.972 1.572,-0.022 -0.359,2.926 -0.886,1.351 -1.979,2.227 -2.431,1.948 -0.452,-0.279 -1.147,0.019 -1.545,0.663 -0.452,0.731 -0.291,0.903 0.43,0.457 1.435,-0.886 1.47,-0.052 0.105,2.499 -0.578,1.079 -1.547,1.655 -2.155,1.279 -0.653,-0.403 -0.822,-0.226 -0.414,0.435 0.38,0.614 -0.445,3.358 -1.833,6.097 -6.256,12.345 -10.748,32.201 -6.933,30.643 4.244,-1.734 4.899,-1.264 4.605,3.305 -0.325,5.063 -2.776,11.539 -4.065,10.743 -0.488,-0.302 -1.735,0.453 -2.771,1.678 -1.884,2.226 -1.884,2.226 0.366,0.321 1.238,-1.048 2.25,-1.397 2.25,-0.776 0,1.832 -5.965,4.407 -8.649,3.733 -1.338,-0.336 -2.182,-1.016 -1.876,-1.512 0.307,-0.496 0.031,-1.227 -0.613,-1.625 -0.731,-0.452 -0.903,-0.291 -0.457,0.43 0.392,0.635 0.23,1.155 -0.361,1.155 -3.781,0 -6.826,-11.857 -5.369,-20.908 1.113,-6.908 0.303,-10.462 -3.225,-14.144 -1.455,-1.519 -2.564,-3.066 -2.464,-3.438 0.099,-0.372 -0.154,-0.977 -0.563,-1.343 -0.409,-0.367 -0.42,-0.104 -0.024,0.583 0.878,1.526 0.101,1.588 -2.493,0.2 -1.079,-0.578 -1.701,-1.473 -1.382,-1.989 0.319,-0.516 -0.073,-0.688 -0.871,-0.381 -2.041,0.783 -11.04,-3.985 -13.554,-7.182 -4.729,-6.011 -0.083,-15.463 9.196,-18.714 2.313,-0.81 5.066,-1.822 6.119,-2.248 1.488,-0.603 1.73,-0.459 1.09,0.644 -0.489,0.842 -0.454,1.081 0.086,0.587 0.5,-0.459 0.91,-1.321 0.91,-1.917 0,-0.596 0.625,-1.292 1.389,-1.546 0.926,-0.309 1.125,-0.035 0.596,0.821 -0.525,0.848 -0.397,1.038 0.377,0.56 0.644,-0.398 0.949,-1.082 0.678,-1.52 -0.535,-0.865 2.537,-4.036 3.627,-3.744 0.366,0.099 1.041,-0.231 1.5,-0.731 0.494,-0.54 0.255,-0.575 -0.587,-0.086 -1.103,0.64 -1.247,0.397 -0.646,-1.09 3.443,-8.513 2.304,-16.308 -5.09,-34.843 -7.02,-17.6 -8.435,-37.835 -2.383,-34.095 0.496,0.306 1.226,0.03 1.624,-0.614 0.452,-0.731 0.291,-0.903 -0.43,-0.457 -2.189,1.352 -1.149,-1.037 1.595,-3.665 3.932,-3.766 9.793,-5.996 13.604,-5.176 4.372,0.941 8.821,3.344 8.162,4.409 -0.302,0.489 -0.022,1.214 0.622,1.612 0.731,0.452 0.903,0.291 0.457,-0.43 -1.259,-2.038 0.983,-1.233 3.231,1.159 2.604,2.772 2.889,4.491 0.424,2.558 -1.584,-1.242 -1.62,-1.207 -0.387,0.367 0.75,0.956 1.773,1.486 2.274,1.176 1.149,-0.71 5.143,8.186 5.269,11.734 0.052,1.46 0.508,2.4 1.014,2.089 0.506,-0.312 0.649,0.14 0.317,1.004 -0.356,0.928 0.259,2.324 1.502,3.414 1.158,1.014 1.845,1.394 1.528,0.844 -0.356,-0.618 1.643,-1 5.233,-1 3.604,0 5.583,0.38 5.213,1 -0.329,0.55 0.138,0.405 1.035,-0.323 1.425,-1.155 1.551,-3.057 0.992,-15 C 80.18,100.513 80.512,88.115 82.37,81 c 2.094,-8.018 7.272,-19.34 8.498,-18.582 0.498,0.308 0.844,-0.211 0.769,-1.155 -0.075,-0.943 0.388,-1.726 1.03,-1.739 0.641,-0.013 1.541,-0.434 2,-0.934 0.484,-0.529 0.309,-0.609 -0.417,-0.191 -2.525,1.453 -1.145,-1.095 2.542,-4.696 3.671,-3.584 6.073,-4.912 4.613,-2.548 -0.446,0.721 -0.274,0.882 0.457,0.43 0.644,-0.398 0.916,-1.135 0.605,-1.639 -1.376,-2.226 15.092,-8.952 21.888,-8.94 16.147,0.028 25.009,16.17 13.843,25.213 -1.213,0.982 -1.407,0.99 -0.831,0.031 1.095,-1.822 0.104,-1.529 -1.495,0.442 -0.932,1.15 -0.971,1.451 -0.122,0.941 0.688,-0.413 1.25,-0.359 1.25,0.121 0,1.224 -5.526,6.387 -6.159,5.754 -0.286,-0.286 -1.38,0.46 -2.43,1.658 -1.051,1.198 -1.348,1.849 -0.661,1.447 1.678,-0.981 1.575,-0.038 -0.311,2.841 -4.783,7.298 0.368,14.642 8.741,12.463 2.376,-0.618 5.295,-1.19 6.487,-1.271 1.191,-0.08 2.091,-0.54 2,-1.021 -0.092,-0.481 0.458,-1.102 1.222,-1.38 0.956,-0.347 1.14,-0.074 0.59,0.875 -0.472,0.815 -0.427,1.039 0.111,0.547 0.5,-0.459 0.917,-1.134 0.925,-1.5 0.029,-1.254 1.602,-3.167 2.603,-3.167 0.55,0 0.682,0.563 0.294,1.25 -0.388,0.688 1.16,-0.529 3.441,-2.703 4.047,-3.858 5.163,-5.293 3.147,-4.047 -0.55,0.34 -1,0.197 -1,-0.319 0,-1.077 3.093,-3.848 3.737,-3.348 0.236,0.184 0.73,-0.001 1.096,-0.41 0.367,-0.409 0.105,-0.42 -0.583,-0.024 -1.689,0.972 -1.572,0.022 0.359,-2.926 0.886,-1.351 1.979,-2.227 2.431,-1.948 0.452,0.279 1.147,-0.019 1.545,-0.663 0.452,-0.731 0.291,-0.903 -0.43,-0.457 -1.817,1.122 -1.472,0.191 3.875,-10.464 2.766,-5.512 5.435,-9.772 5.93,-9.465 0.496,0.306 1.227,0.03 1.625,-0.614 0.478,-0.774 0.288,-0.902 -0.56,-0.377 -0.862,0.532 -1.118,0.336 -0.78,-0.596 0.278,-0.764 0.958,-1.294 1.512,-1.178 0.554,0.116 0.948,-0.559 0.875,-1.5 -0.072,-0.941 0.378,-1.616 1,-1.5 0.623,0.116 1.073,-0.548 1,-1.476 -0.072,-0.928 0.393,-1.698 1.035,-1.711 0.641,-0.013 1.541,-0.434 2,-0.934 0.484,-0.529 0.309,-0.609 -0.417,-0.191 -0.687,0.395 -1.25,0.312 -1.25,-0.185 0,-1.214 3.528,-4.352 4.171,-3.71 0.279,0.28 1.368,-0.499 2.418,-1.731 1.547,-1.812 1.578,-1.98 0.161,-0.883 -3.409,2.639 -1.688,-0.534 2.538,-4.682 4.524,-4.439 7.349,-5.781 4.124,-1.958 -1.714,2.033 -1.633,2.016 0.841,-0.171 1.507,-1.331 2.52,-2.64 2.252,-2.908 -0.647,-0.646 1.484,-3.171 2.676,-3.171 0.516,0 0.613,0.563 0.218,1.25 -0.418,0.726 -0.338,0.901 0.191,0.417 0.5,-0.459 0.921,-1.359 0.934,-2 0.013,-0.642 0.783,-1.107 1.711,-1.035 0.928,0.073 1.592,-0.377 1.476,-1 -0.116,-0.622 0.572,-1.07 1.528,-0.995 0.957,0.075 1.485,-0.275 1.173,-0.779 C 205.647,14.62 220.935,7.575 229,5.45 c 12.191,-3.213 37.833,-1.225 35.381,2.743 -0.415,0.67 -0.237,0.836 0.444,0.415 1.356,-0.838 5.445,1.146 4.734,2.297 -0.716,1.157 3.926,5.262 4.925,4.354 0.459,-0.417 0.543,0.052 0.187,1.043 -0.357,0.991 -0.25,1.556 0.236,1.256 0.486,-0.301 1.168,0.195 1.515,1.1 0.76,1.979 -1.244,8.57 -2.39,7.862 -0.443,-0.274 -0.744,0.284 -0.669,1.241 0.075,0.956 -0.362,1.648 -0.971,1.536 -0.61,-0.111 -2.381,1.126 -3.937,2.75 -1.556,1.624 -2.465,2.953 -2.02,2.953 0.446,0 0.25,0.675 -0.435,1.5 -1.456,1.754 -3.452,2.041 -2.405,0.345 0.446,-0.721 0.274,-0.882 -0.457,-0.43 -0.644,0.398 -0.864,1.219 -0.49,1.824 0.442,0.715 0.079,0.87 -1.036,0.442 -0.977,-0.375 -1.464,-0.251 -1.131,0.288 1.176,1.903 -24.28,10.891 -26.668,9.416 -0.617,-0.382 -0.852,-0.256 -0.521,0.278 0.768,1.243 -10.052,6.603 -11.51,5.703 -0.636,-0.394 -0.806,-0.214 -0.409,0.429 0.861,1.392 -2.991,3.541 -4.644,2.591 -0.676,-0.389 -0.895,-0.338 -0.488,0.112 0.827,0.913 -0.964,3.502 -2.422,3.502 -0.516,0 -0.618,-0.563 -0.228,-1.25 0.39,-0.687 -0.933,0.301 -2.941,2.196 -3.589,3.389 -4.62,4.772 -2.65,3.554 0.55,-0.34 1,-0.168 1,0.382 0,1.001 -1.913,2.574 -3.167,2.603 -0.366,0.008 -1.041,0.425 -1.5,0.925 -0.492,0.538 -0.268,0.583 0.547,0.111 0.949,-0.55 1.222,-0.366 0.875,0.59 -0.278,0.764 -0.958,1.294 -1.512,1.178 -0.554,-0.116 -0.965,0.334 -0.912,1 0.052,0.666 -0.707,3.796 -1.687,6.955 -0.981,3.159 -1.526,6.647 -1.213,7.75 0.313,1.103 0.842,2.962 1.176,4.131 0.443,1.55 0.266,1.914 -0.654,1.346 -0.845,-0.522 -1.012,-0.376 -0.507,0.441 0.415,0.672 1.005,0.97 1.312,0.663 0.727,-0.727 3.348,1.445 2.804,2.324 -0.522,0.845 2.144,1.203 10.592,1.426 3.841,0.101 6.414,-0.214 6.086,-0.745 -0.314,-0.509 0.198,-0.626 1.148,-0.261 1.156,0.443 1.482,0.28 1,-0.5 -0.483,-0.781 -0.157,-0.944 1,-0.5 1.156,0.443 1.482,0.28 1,-0.5 -0.477,-0.772 -0.165,-0.947 0.936,-0.525 0.954,0.366 1.551,0.174 1.414,-0.455 -0.131,-0.599 0.387,-1.316 1.151,-1.594 0.956,-0.347 1.14,-0.074 0.59,0.875 -0.472,0.815 -0.427,1.039 0.111,0.547 0.5,-0.459 0.917,-1.134 0.925,-1.5 0.029,-1.254 1.602,-3.167 2.603,-3.167 0.55,0 0.676,0.562 0.281,1.25 -0.418,0.726 -0.338,0.901 0.191,0.417 0.5,-0.459 0.917,-1.134 0.925,-1.5 0.029,-1.254 1.602,-3.167 2.603,-3.167 0.55,0 0.679,0.52 0.287,1.155 -0.456,0.737 -0.273,0.882 0.507,0.399 0.672,-0.415 0.965,-1.01 0.652,-1.323 -0.686,-0.686 2.372,-4.231 3.65,-4.231 0.497,0 0.566,0.562 0.153,1.25 -0.497,0.827 -0.17,0.779 0.965,-0.143 0.944,-0.765 1.479,-1.629 1.19,-1.918 -0.655,-0.656 2.459,-4.189 3.692,-4.189 0.497,0 0.58,0.563 0.185,1.25 -0.418,0.726 -0.338,0.901 0.191,0.417 0.5,-0.459 0.917,-1.134 0.925,-1.5 0.029,-1.254 1.602,-3.167 2.603,-3.167 0.55,0 0.676,0.563 0.281,1.25 -0.418,0.726 -0.338,0.901 0.191,0.417 0.5,-0.459 0.917,-1.134 0.925,-1.5 0.029,-1.254 1.602,-3.167 2.603,-3.167 0.55,0 0.679,0.52 0.287,1.155 -0.456,0.737 -0.273,0.882 0.507,0.399 0.672,-0.415 0.97,-1.005 0.663,-1.312 -0.699,-0.7 1.344,-3.242 2.606,-3.242 0.516,0 0.613,0.563 0.218,1.25 -0.418,0.726 -0.338,0.901 0.191,0.417 0.5,-0.459 0.91,-1.321 0.91,-1.917 0,-0.596 0.625,-1.292 1.389,-1.546 0.95,-0.317 1.137,-0.027 0.59,0.916 -0.472,0.815 -0.427,1.039 0.111,0.547 0.5,-0.459 0.921,-1.359 0.934,-2 0.013,-0.642 0.796,-1.105 1.739,-1.03 0.944,0.075 1.479,-0.245 1.191,-0.712 -0.785,-1.27 7.224,-6.242 8.643,-5.365 0.752,0.465 0.953,0.33 0.53,-0.355 -0.846,-1.368 2.992,-3.558 4.548,-2.597 0.68,0.42 0.859,0.256 0.447,-0.411 -0.85,-1.375 4.982,-4.56 6.562,-3.583 0.738,0.456 0.843,0.239 0.306,-0.629 -0.599,-0.97 -0.358,-1.149 0.898,-0.666 1.156,0.443 1.482,0.28 1,-0.5 -0.483,-0.781 -0.157,-0.944 1,-0.5 0.944,0.362 1.474,0.266 1.177,-0.213 -0.713,-1.155 7.724,-4.723 17.26,-7.3 9.38,-2.534 38.315,-3.683 48.42,-1.924 9.126,1.59 16.909,4.06 16.233,5.154 -0.32,0.518 0.076,0.689 0.88,0.38 1.81,-0.694 7.912,2.338 7.158,3.557 -0.302,0.489 -0.022,1.214 0.622,1.612 0.731,0.452 0.903,0.291 0.457,-0.43 -1.113,-1.803 0.998,-1.355 2.533,0.537 1.182,1.458 1.165,1.576 -0.128,0.853 -0.825,-0.461 0.279,1.027 2.453,3.308 3.955,4.149 5.292,5.162 3.952,2.992 -0.463,-0.748 -0.272,-0.881 0.543,-0.377 6.505,4.02 7.99,26.362 2,30.064 -0.883,0.546 -1.016,0.359 -0.448,-0.627 0.445,-0.773 -0.589,-0.104 -2.298,1.487 -1.709,1.59 -3.016,3.39 -2.905,4 0.112,0.609 -0.58,1.046 -1.536,0.971 -0.957,-0.075 -1.486,0.272 -1.177,0.773 2.479,4.011 -26.339,10.599 -58.514,13.376 -22.542,1.945 -29.98,3.322 -43.258,8.005 -5.671,2 -11.282,3.715 -12.467,3.81 -1.184,0.095 -1.898,0.587 -1.585,1.093 0.314,0.509 -0.198,0.626 -1.148,0.261 -1.156,-0.443 -1.482,-0.28 -1,0.5 0.483,0.781 0.157,0.944 -1,0.5 -1.156,-0.443 -1.482,-0.28 -1,0.5 0.483,0.781 0.157,0.944 -1,0.5 -0.977,-0.375 -1.464,-0.251 -1.131,0.288 0.729,1.179 -5.174,4.339 -6.535,3.498 -0.548,-0.339 -0.872,-0.02 -0.721,0.709 0.156,0.751 -0.511,1.259 -1.542,1.174 -0.999,-0.083 -1.565,0.101 -1.258,0.408 0.699,0.7 -1.344,3.242 -2.606,3.242 -0.516,0 -0.613,-0.562 -0.218,-1.25 0.418,-0.726 0.338,-0.901 -0.191,-0.417 -0.5,0.459 -0.917,1.134 -0.925,1.5 -0.029,1.254 -1.602,3.167 -2.603,3.167 -0.55,0 -0.676,-0.562 -0.281,-1.25 0.396,-0.687 0.46,-1.025 0.143,-0.75 -0.318,0.275 -0.636,0.95 -0.707,1.5 -0.178,1.379 -6.208,7.5 -7.388,7.5 -0.528,0 -0.144,-0.9 0.851,-2 0.995,-1.1 1.599,-2 1.342,-2 -0.257,0 -1.79,1.445 -3.405,3.212 -1.615,1.766 -2.15,2.611 -1.187,1.877 2.676,-2.04 2.081,0.251 -0.757,2.917 -2.438,2.291 -9.629,-1.36 -7.968,-4.046 0.249,-0.403 -0.303,-1.347 -1.228,-2.097 -1.156,-0.937 -1.446,-0.973 -0.93,-0.113 0.413,0.687 0.301,1.25 -0.249,1.25 -1.001,0 -2.574,-1.913 -2.603,-3.167 -0.008,-0.366 -0.425,-1.041 -0.925,-1.5 -0.538,-0.492 -0.583,-0.268 -0.111,0.547 0.547,0.943 0.36,1.233 -0.59,0.916 -0.764,-0.254 -1.389,-0.95 -1.389,-1.546 0,-0.596 -0.41,-1.458 -0.91,-1.917 -0.538,-0.492 -0.583,-0.268 -0.111,0.547 0.547,0.943 0.36,1.233 -0.59,0.916 -0.764,-0.254 -1.389,-0.95 -1.389,-1.546 0,-0.596 -0.41,-1.458 -0.91,-1.917 -0.538,-0.492 -0.583,-0.268 -0.111,0.547 0.55,0.949 0.366,1.222 -0.59,0.875 -0.764,-0.278 -1.265,-1.045 -1.114,-1.704 0.151,-0.66 -0.157,-0.933 -0.685,-0.607 -1.372,0.848 -10.113,-3.598 -9.386,-4.774 0.334,-0.54 0.093,-0.663 -0.537,-0.273 -0.628,0.388 -4.242,-0.413 -8.031,-1.78 -15.49,-5.587 -35.754,-7.326 -47.168,-4.046 -3.007,0.864 -6.223,1.636 -7.147,1.714 -0.923,0.079 -1.598,0.589 -1.5,1.134 0.099,0.544 -0.346,1.011 -0.988,1.036 -0.641,0.025 -1.541,0.455 -2,0.955 -0.484,0.529 -0.309,0.609 0.417,0.191 0.688,-0.395 1.25,-0.328 1.25,0.149 0,2.437 -3.297,4.337 -10.811,6.23 -4.571,1.151 -10.753,3.007 -13.737,4.124 -2.984,1.116 -5.951,1.705 -6.594,1.309 -0.781,-0.483 -0.896,-0.284 -0.348,0.602 0.599,0.97 0.358,1.149 -0.898,0.666 -0.969,-0.372 -1.464,-0.25 -1.136,0.28 0.319,0.516 -0.333,1.427 -1.448,2.024 -2.284,1.223 -2.603,3.04 -0.842,4.801 0.915,0.915 1.544,0.866 2.75,-0.217 2.006,-1.8 22.222,-8.75 32.384,-11.134 7.177,-1.683 7.931,-2.1 9.174,-5.075 3.307,-7.915 27.92,-8.067 45.277,-0.28 7.424,3.331 12.461,6.736 11.724,7.927 -0.29,0.47 -0.001,1.18 0.643,1.578 0.731,0.452 0.903,0.291 0.457,-0.43 -0.939,-1.521 0.673,-1.487 2.205,0.045 1.849,1.849 1.43,2.669 -1.05,2.059 -1.238,-0.305 -2.015,-0.29 -1.727,0.033 0.287,0.322 3.836,1.277 7.887,2.122 7.548,1.574 12.58,3.985 11.606,5.561 -0.302,0.488 -0.022,1.212 0.622,1.61 0.781,0.483 0.901,0.288 0.362,-0.585 -0.55,-0.89 -0.42,-1.068 0.407,-0.557 0.669,0.413 1.664,1.928 2.21,3.365 1.098,2.888 0.343,7.595 -1.077,6.717 -0.496,-0.307 -1.227,-0.031 -1.625,0.613 -0.452,0.731 -0.291,0.903 0.43,0.457 0.635,-0.392 1.155,-0.263 1.155,0.287 0,1.001 -1.913,2.574 -3.167,2.603 -0.366,0.008 -1.041,0.425 -1.5,0.925 -0.492,0.538 -0.268,0.583 0.547,0.111 0.949,-0.55 1.222,-0.366 0.875,0.59 -0.278,0.764 -0.995,1.282 -1.594,1.151 -0.629,-0.137 -0.821,0.46 -0.455,1.414 0.459,1.197 0.269,1.427 -0.691,0.834 -0.861,-0.533 -1.085,-0.432 -0.639,0.29 0.377,0.609 0.387,2.296 0.022,3.749 -0.486,1.936 -0.886,2.282 -1.502,1.296 -0.497,-0.797 -0.643,0.286 -0.359,2.655 0.265,2.2 0.215,3.438 -0.111,2.75 -0.909,-1.917 -2.73,-1.485 -1.98,0.47 0.363,0.945 0.355,1.414 -0.018,1.042 -0.372,-0.373 -1.673,-3.509 -2.89,-6.97 -1.217,-3.461 -2.587,-7.153 -3.045,-8.206 -0.652,-1.499 -0.525,-1.735 0.587,-1.09 0.842,0.489 1.081,0.454 0.587,-0.086 -0.459,-0.5 -1.321,-0.91 -1.917,-0.91 -0.596,0 -1.292,-0.625 -1.546,-1.389 -0.309,-0.926 -0.035,-1.125 0.821,-0.596 0.867,0.536 1.039,0.397 0.529,-0.427 -0.415,-0.672 -1.01,-0.965 -1.323,-0.652 -0.795,0.795 -4.295,-2.524 -3.691,-3.501 0.271,-0.438 -0.034,-1.122 -0.678,-1.52 -0.785,-0.485 -0.901,-0.287 -0.352,0.6 0.619,1.003 0.352,1.136 -1.096,0.546 -7.857,-3.195 -13.848,-2.591 -19.23,1.937 -1.598,1.346 -3.266,2.121 -3.706,1.724 -0.439,-0.397 -0.496,-0.193 -0.126,0.453 0.732,1.277 -1.262,6.499 -2.248,5.889 -0.332,-0.205 -0.642,0.822 -0.689,2.281 -0.047,1.46 -0.65,6.879 -1.34,12.041 -1.257,9.392 -0.41,25.7 1.834,35.332 1.097,4.711 0.074,5.113 -11.162,4.384 -6.648,-0.431 -7.396,-0.353 -3.858,0.403 2.415,0.516 10.705,1.346 18.424,1.843 11.061,0.714 14.285,1.249 15.221,2.529 1.91,2.613 4.518,1.968 17.599,-4.355 C 225.342,214.121 238.26,210 244.549,210 c 8.762,0 36.119,7.111 34.906,9.073 -0.307,0.497 0.096,0.653 0.896,0.346 2.034,-0.781 9.894,3.375 9.03,4.774 -0.415,0.67 -0.237,0.836 0.444,0.415 1.408,-0.87 5.432,1.167 4.687,2.373 -0.3,0.484 -0.018,1.206 0.626,1.604 0.731,0.452 0.903,0.291 0.457,-0.43 -0.392,-0.635 -0.292,-1.155 0.224,-1.155 1.22,0 3.316,2.532 2.648,3.2 -0.283,0.283 0.257,1.142 1.201,1.907 1.135,0.922 1.462,0.97 0.965,0.143 -1.534,-2.553 1.08,-1.129 4.664,2.542 3.81,3.902 5.063,6.519 1.953,4.08 -1.591,-1.248 -1.624,-1.211 -0.357,0.402 0.765,0.976 1.624,1.542 1.907,1.259 0.668,-0.668 3.2,1.428 3.2,2.648 0,0.516 -0.562,0.613 -1.25,0.218 -0.726,-0.418 -0.901,-0.338 -0.417,0.191 0.459,0.5 1.359,0.921 2,0.934 0.642,0.013 1.105,0.796 1.03,1.739 -0.075,0.944 0.275,1.461 0.778,1.15 4.348,-2.687 9.626,23.421 5.666,28.025 -2.463,2.863 -7.992,2.288 -6.18,-0.643 0.42,-0.68 0.222,-0.82 -0.516,-0.363 -1.402,0.866 -6.422,-2.12 -5.654,-3.363 0.287,-0.464 -0.261,-0.781 -1.218,-0.706 -0.962,0.076 -1.616,-0.455 -1.464,-1.187 0.151,-0.729 -0.177,-1.045 -0.73,-0.704 -1.353,0.836 -5.252,-1.328 -4.521,-2.511 0.328,-0.53 -0.167,-0.652 -1.136,-0.28 -1.256,0.483 -1.497,0.304 -0.898,-0.666 0.528,-0.852 0.431,-1.084 -0.27,-0.651 -1.163,0.719 -10.364,-3.322 -9.766,-4.289 0.195,-0.316 -0.615,-0.635 -1.799,-0.708 -1.185,-0.073 -4.63,-0.873 -7.655,-1.779 -9.722,-2.91 -18.774,-2.281 -33.192,2.306 -6.981,2.221 -15.756,4.361 -19.5,4.756 -6.967,0.735 -6.109,2.021 1.501,2.25 1.82,0.055 3.05,0.519 2.734,1.031 -0.317,0.512 -0.049,1.256 0.595,1.654 0.698,0.432 0.904,0.292 0.51,-0.345 -1.116,-1.806 1.735,-2.077 3.774,-0.36 1.057,0.891 1.593,1.058 1.191,0.37 -0.518,-0.886 0.232,-1.291 2.578,-1.392 3.198,-0.137 3.174,-0.163 -0.691,-0.775 -3.815,-0.605 -3.687,-0.669 2.775,-1.389 3.726,-0.415 9.957,-1.903 13.848,-3.306 7.074,-2.552 7.074,-2.552 9.475,-0.296 2.529,2.376 3.28,4.531 1.152,3.307 -0.726,-0.418 -0.901,-0.338 -0.417,0.191 0.459,0.5 1.359,0.921 2,0.934 0.642,0.013 1.105,0.796 1.03,1.739 -0.075,0.944 0.239,1.483 0.7,1.198 1.174,-0.726 3.181,3.336 2.329,4.714 -0.394,0.637 -0.259,0.861 0.307,0.511 1.468,-0.907 3.301,3.774 3.301,8.427 0,4.482 -1.584,8.262 -3.075,7.341 -0.536,-0.332 -0.851,-0.007 -0.7,0.722 0.152,0.732 -0.502,1.263 -1.464,1.187 -0.957,-0.075 -1.522,0.215 -1.256,0.645 0.67,1.084 -2.038,1.992 -5.938,1.992 -3.979,0 -9.749,-1.897 -9.077,-2.985 0.269,-0.434 -0.283,-0.727 -1.227,-0.652 -0.943,0.075 -1.726,-0.388 -1.739,-1.03 -0.013,-0.641 -0.434,-1.541 -0.934,-2 -0.529,-0.484 -0.609,-0.309 -0.191,0.417 1.077,1.872 -0.017,1.531 -4.404,-1.372 -2.179,-1.442 -3.721,-3.012 -3.427,-3.489 0.295,-0.476 -0.236,-0.57 -1.18,-0.208 -1.157,0.444 -1.483,0.281 -1,-0.5 0.482,-0.78 0.156,-0.943 -1,-0.5 -0.95,0.365 -1.462,0.248 -1.148,-0.261 0.313,-0.506 -0.401,-0.963 -1.585,-1.016 -1.185,-0.052 -4.855,-0.889 -8.155,-1.858 -4.797,-1.41 -11.014,-1.851 -31,-2.201 -13.75,-0.241 -26.8,-0.889 -29,-1.439 -7.086,-1.775 -14.507,-5.086 -13.835,-6.173 0.37,-0.599 0.162,-0.744 -0.49,-0.341 -1.378,0.852 -5.44,-1.155 -4.714,-2.329 0.285,-0.461 -0.254,-0.775 -1.198,-0.7 -0.943,0.075 -1.726,-0.388 -1.739,-1.03 -0.013,-0.641 -0.434,-1.541 -0.934,-2 -0.529,-0.484 -0.609,-0.309 -0.191,0.417 1.453,2.525 -1.095,1.145 -4.696,-2.542 -3.584,-3.671 -4.912,-6.073 -2.548,-4.613 0.721,0.446 0.882,0.274 0.43,-0.457 -0.398,-0.644 -1.135,-0.916 -1.639,-0.605 -1.294,0.8 -4.709,-5.088 -6.532,-11.261 -1.657,-5.612 -0.239,-14.772 2.286,-14.772 0.623,0 1.508,-0.41 1.967,-0.91 0.484,-0.529 0.309,-0.609 -0.417,-0.191 -2.081,1.197 -1.401,-0.913 1,-3.103 1.238,-1.129 3.562,-2.722 5.166,-3.539 2.916,-1.487 2.916,-1.487 -0.152,-1.372 -1.687,0.063 -2.813,0.529 -2.502,1.035 0.323,0.525 -0.243,0.609 -1.317,0.197 -1.036,-0.397 -1.564,-0.403 -1.173,-0.012 0.815,0.815 -1.049,3.395 -2.453,3.395 -0.516,0 -0.599,-0.562 -0.186,-1.25 0.51,-0.849 0.209,-0.81 -0.941,0.122 -1.832,1.486 -2.32,2.634 -0.692,1.628 1.496,-0.925 1.206,1.084 -0.342,2.369 -0.738,0.612 -1.662,0.794 -2.053,0.403 -0.391,-0.391 -0.385,0.137 0.012,1.173 0.459,1.196 0.346,1.65 -0.311,1.244 -2.592,-1.602 -0.951,17.554 1.944,22.687 3.066,5.436 3.264,6.06 1.595,5.029 -0.721,-0.446 -0.882,-0.274 -0.43,0.457 0.398,0.644 1.077,0.952 1.509,0.685 0.943,-0.583 5.325,3.87 4.561,4.635 -0.293,0.293 0.239,1.16 1.183,1.925 1.135,0.922 1.462,0.97 0.965,0.143 -0.413,-0.687 -0.344,-1.25 0.153,-1.25 1.089,0 4.783,3.944 4.547,4.855 -0.091,0.355 0.093,0.87 0.411,1.145 0.317,0.275 0.217,-0.121 -0.223,-0.88 -0.547,-0.943 -0.36,-1.233 0.59,-0.916 0.764,0.254 1.389,0.95 1.389,1.546 0,0.596 0.41,1.458 0.91,1.917 0.529,0.484 0.609,0.309 0.191,-0.417 -0.977,-1.698 -0.167,-1.577 4.189,0.627 7.847,3.969 17.753,5.403 42.71,6.184 27.047,0.847 34.051,2.024 33.921,5.701 -0.087,2.435 1.487,2.93 3.361,1.056 0.908,-0.908 3.459,-0.089 11.047,3.551 33.693,16.159 49.853,2.438 29.582,-25.119 -5.861,-7.968 23.111,1.279 41.828,13.349 7.386,4.764 8.757,4.77 11.657,0.052 12.243,-19.923 -16.057,-58.373 -50.528,-68.648 -8.728,-2.602 -9.583,-5.245 -9.867,-30.503 -0.255,-22.692 -5.083,-35.5 -13.383,-35.5 -2.928,0 -2.658,-1.106 1.132,-4.629 17.239,-16.029 33.77,-21.846 72.25,-25.424 61.91,-5.756 84.018,-17.538 79.774,-42.512 C 399.076,45.736 378.366,32.512 344,32.587 303.305,32.675 275.28,44.639 235.613,78.855 214.947,96.682 207,98.369 207,84.932 207,70.129 216.098,61.512 243.715,50.156 275.327,37.157 283.872,28.07 277.37,14.366 272.108,3.279 246.614,-3.22 226.5,1.399 m 11.25,145.681 c -1.729,1.007 -4.75,5.941 -4.75,7.759 0,0.516 1.491,1.218 3.314,1.56 11.971,2.246 19.88,28.938 12.992,43.851 -2.194,4.75 -2.194,4.75 0,4.761 1.207,0.006 3.882,0.29 5.944,0.631 3.75,0.62 3.75,0.62 3.75,-14.07 0,-33.768 -8.632,-51.841 -21.25,-44.492 m -49.021,10.012 c -0.974,0.567 -1.547,1.393 -1.274,1.836 0.608,0.982 -3.405,4.773 -4.31,4.072 -1.414,-1.096 -5.376,9.164 -5.509,14.266 -0.131,5.042 -0.044,5.221 2.364,4.872 1.375,-0.199 4.596,-0.421 7.158,-0.495 2.561,-0.073 4.404,-0.542 4.095,-1.042 -0.309,-0.501 -0.035,-0.584 0.609,-0.186 0.644,0.398 0.973,1.042 0.733,1.432 -0.241,0.39 0.369,1.78 1.356,3.089 1.733,2.296 1.727,2.495 -0.157,5.689 -1.874,3.175 -1.695,6.05 0.3,4.817 0.525,-0.325 0.832,-0.005 0.681,0.71 -0.151,0.715 0.737,1.455 1.975,1.644 3.052,0.465 3.123,8.795 0.143,16.76 -2.617,6.994 -1.789,8.329 4.075,6.572 11.1,-3.326 15.865,-36.779 7.567,-53.128 -2.386,-4.701 -4.584,-7.088 -5.823,-6.322 -0.562,0.347 -0.731,0.162 -0.378,-0.41 0.874,-1.413 -1.948,-3.624 -3.445,-2.7 -0.715,0.443 -0.937,0.318 -0.549,-0.309 1.341,-2.169 -6.296,-3.097 -9.611,-1.167 m 42.515,1.572 c -0.691,0.279 -1.021,0.887 -0.734,1.352 0.287,0.465 -0.004,1.171 -0.648,1.569 -0.731,0.452 -0.903,0.291 -0.457,-0.43 0.939,-1.521 -0.673,-1.487 -2.205,0.045 -1.579,1.579 -1.544,3.116 0.05,2.199 0.726,-0.418 0.901,-0.338 0.417,0.191 -0.459,0.5 -1.313,0.91 -1.9,0.91 -4.032,0 -4.778,15.831 -0.767,16.28 8.796,0.985 11.244,3.997 7.882,9.696 -2.446,4.146 -1.402,6.018 2.807,5.03 2.699,-0.633 3.373,0.38 3.572,5.372 0.109,2.752 0.539,3.752 1.458,3.399 0.894,-0.343 1.115,0.085 0.704,1.362 -0.43,1.335 0.123,1.08 1.955,-0.905 3.158,-3.42 5.63,-11.444 5.598,-18.166 -0.04,-8.2 -3.233,-20.145 -5.081,-19.003 -0.479,0.296 -0.636,-0.078 -0.346,-0.831 0.57,-1.488 -3.076,-6.734 -4.681,-6.734 -0.542,0 -0.665,0.52 -0.273,1.155 0.446,0.721 0.274,0.882 -0.457,0.43 -0.644,-0.398 -0.941,-1.095 -0.66,-1.549 0.943,-1.526 -3.453,-2.493 -6.234,-1.372 m -72.208,24.031 c -0.653,3.743 -1.444,9.842 -1.757,13.555 -0.313,3.713 -1.009,6.75 -1.546,6.75 -0.542,0 -0.452,0.634 0.202,1.421 0.962,1.16 0.824,1.329 -0.753,0.916 -2.664,-0.696 -18.273,2.334 -24.34,4.725 -2.743,1.082 -5.474,1.665 -6.069,1.298 -0.627,-0.388 -0.795,-0.204 -0.4,0.435 0.861,1.392 -2.991,3.541 -4.644,2.591 -0.676,-0.389 -0.904,-0.347 -0.506,0.093 0.397,0.44 -1.483,3.214 -4.18,6.164 -11.842,12.957 -12.656,29.617 -2.037,41.711 3.527,4.017 3.947,5.752 0.744,3.076 -1.237,-1.033 -0.471,0.022 1.703,2.345 2.174,2.324 4.156,4.225 4.405,4.225 0.249,0 -0.363,-0.9 -1.358,-2 -0.995,-1.1 -1.379,-2 -0.851,-2 1.182,0 7.273,6.185 7.222,7.333 -0.021,0.459 0.297,1.134 0.706,1.5 0.409,0.367 0.42,0.105 0.024,-0.583 -0.395,-0.687 -0.312,-1.25 0.185,-1.25 1.093,0 4.011,3.106 4.226,4.5 0.085,0.55 0.414,1.225 0.732,1.5 0.317,0.275 0.253,-0.062 -0.143,-0.75 -1.14,-1.981 0.906,-1.452 2.899,0.75 0.995,1.1 1.431,2 0.968,2 -0.463,0 0.431,1.329 1.987,2.953 1.556,1.624 3.283,2.861 3.839,2.75 1.544,-0.31 5.576,6.088 6.314,10.02 0.69,3.68 -1.841,10.869 -3.472,9.861 -0.854,-0.528 -4.752,3.07 -5.325,4.916 -0.171,0.55 -0.869,0.938 -1.55,0.863 -0.682,-0.075 -0.994,0.26 -0.694,0.746 0.3,0.485 -0.617,1.412 -2.039,2.06 -1.87,0.852 -2.231,1.402 -1.306,1.989 1.907,1.211 3.516,0.981 1.778,-0.254 -1.143,-0.812 -0.786,-0.92 1.5,-0.455 1.755,0.358 2.479,0.262 1.745,-0.231 -0.884,-0.593 -0.208,-1.342 2.284,-2.53 4.178,-1.993 4.833,-2.083 3.876,-0.533 -0.446,0.721 -0.274,0.882 0.457,0.43 0.644,-0.398 0.949,-1.082 0.678,-1.52 -0.563,-0.911 2.464,-3.924 3.935,-3.919 0.536,0.002 1.133,-0.592 1.326,-1.321 0.249,-0.94 0.111,-0.989 -0.475,-0.17 -0.462,0.646 -0.793,-2.085 -0.75,-6.201 0.047,-4.646 -0.291,-7.13 -0.92,-6.741 -0.588,0.363 -0.736,-0.062 -0.362,-1.037 0.366,-0.954 0.174,-1.551 -0.455,-1.414 -0.599,0.131 -1.316,-0.387 -1.594,-1.151 -0.338,-0.932 -0.082,-1.128 0.78,-0.596 0.867,0.536 1.039,0.397 0.529,-0.427 -0.415,-0.672 -1.005,-0.97 -1.312,-0.663 -0.7,0.699 -3.242,-1.344 -3.242,-2.606 0,-0.516 0.563,-0.621 1.25,-0.236 0.688,0.386 -0.983,-1.612 -3.712,-4.44 -4.798,-4.972 -6.328,-6.23 -5.038,-4.143 0.34,0.55 0.211,1 -0.286,1 -1.233,0 -4.347,-3.533 -3.692,-4.189 0.289,-0.289 -0.272,-1.153 -1.248,-1.918 -1.613,-1.267 -1.65,-1.234 -0.402,0.357 2.95,3.761 -0.712,1.475 -5.656,-3.531 -4.97,-5.033 -6.667,-7.656 -3.966,-6.131 0.921,0.52 0.908,0.338 -0.05,-0.691 -0.715,-0.768 -1.802,-1.397 -2.417,-1.397 -0.614,0 -1.325,-0.625 -1.579,-1.389 -0.309,-0.926 -0.035,-1.125 0.821,-0.596 0.848,0.525 1.038,0.397 0.56,-0.377 -0.398,-0.644 -1.12,-0.926 -1.604,-0.626 -1.294,0.799 -3.07,-3.069 -2.383,-5.19 0.441,-1.361 0.346,-1.48 -0.375,-0.471 -1.315,1.839 -4.242,-6.783 -4.169,-12.279 0.064,-4.738 3.115,-13.169 4.655,-12.861 0.581,0.116 0.996,-0.548 0.923,-1.476 -0.072,-0.928 0.393,-1.698 1.035,-1.711 0.641,-0.013 1.541,-0.434 2,-0.934 0.484,-0.529 0.309,-0.609 -0.417,-0.191 -2.525,1.453 -1.145,-1.095 2.542,-4.696 3.671,-3.584 6.073,-4.912 4.613,-2.548 -0.446,0.721 -0.274,0.882 0.457,0.43 0.644,-0.398 0.924,-1.123 0.622,-1.612 -0.754,-1.219 5.348,-4.251 7.158,-3.557 0.804,0.309 1.2,0.138 0.88,-0.38 -0.915,-1.481 9.142,-4.026 18.578,-4.7 8.6,-0.614 8.6,-0.614 9.219,-15.673 0.696,-16.965 0.434,-18.799 -1.283,-8.968 m -13.529,55.294 c -0.336,0.543 0.003,0.752 0.754,0.464 0.751,-0.288 2.237,0.497 3.302,1.744 1.924,2.254 1.924,2.259 -0.063,0.786 -1.859,-1.378 -1.902,-1.358 -0.607,0.291 0.765,0.976 1.632,1.534 1.925,1.241 0.669,-0.669 5.182,3.496 5.182,4.782 0,0.521 -0.787,0.354 -1.75,-0.372 -0.963,-0.726 0.483,1.019 3.212,3.878 4.781,5.007 6.342,6.308 5.038,4.197 -1.065,-1.724 1.11,-1.089 2.847,0.831 0.912,1.007 1.319,2.204 0.905,2.66 -0.414,0.457 -0.206,0.516 0.461,0.133 0.666,-0.382 3.532,0.48 6.368,1.917 6.29,3.187 16.526,5.462 23.919,5.315 5.5,-0.11 5.5,-0.11 -0.528,-0.898 -12.425,-1.625 -27.338,-6.747 -25.991,-8.927 0.303,-0.491 0.025,-1.218 -0.619,-1.616 -0.731,-0.452 -0.903,-0.291 -0.457,0.43 1.733,2.805 -1.514,0.76 -5.278,-3.323 -4.705,-5.105 -4.937,-6.222 -2.054,-9.887 2.081,-2.646 4.672,-3.725 3.326,-1.385 -0.396,0.688 -0.334,0.899 0.136,0.471 0.471,-0.428 0.953,-1.441 1.072,-2.25 0.257,-1.748 -20.031,-2.212 -21.1,-0.482 m 67.368,51.511 c -0.069,0.275 -0.181,1.025 -0.25,1.667 -0.069,0.641 -0.75,1.375 -1.514,1.629 -0.926,0.309 -1.125,0.035 -0.596,-0.821 0.536,-0.867 0.397,-1.039 -0.427,-0.529 -0.672,0.415 -0.97,1.005 -0.663,1.312 0.699,0.7 -1.344,3.242 -2.606,3.242 -0.516,0 -0.608,-0.562 -0.206,-1.25 0.402,-0.687 -0.229,-0.409 -1.401,0.619 -1.173,1.028 -2.038,2.378 -1.922,3 0.115,0.622 -0.299,1.036 -0.921,0.921 -0.622,-0.116 -1.972,0.749 -3,1.922 -1.028,1.172 -1.248,1.767 -0.489,1.321 0.947,-0.557 1.234,-0.376 0.916,0.578 -0.254,0.764 -0.95,1.389 -1.546,1.389 -0.596,0 -1.458,0.41 -1.917,0.91 -0.492,0.538 -0.268,0.583 0.547,0.111 0.943,-0.547 1.233,-0.36 0.916,0.59 -0.254,0.764 -0.95,1.389 -1.546,1.389 -0.596,0 -1.458,0.41 -1.917,0.91 -0.484,0.529 -0.309,0.609 0.417,0.191 1.646,-0.947 1.598,-0.642 -0.734,4.629 -1.091,2.467 -2.676,7.812 -3.522,11.878 -2.298,11.041 -3.534,14.412 -4.677,12.762 -0.656,-0.948 -0.741,-0.638 -0.275,1.005 0.453,1.603 0.316,2.155 -0.423,1.698 -0.71,-0.438 -0.864,-0.072 -0.438,1.039 0.483,1.256 0.304,1.497 -0.666,0.898 -0.872,-0.54 -1.085,-0.432 -0.623,0.315 0.87,1.408 -1.167,5.432 -2.373,4.687 -0.484,-0.3 -1.206,-0.018 -1.604,0.626 -0.452,0.731 -0.291,0.903 0.43,0.457 0.635,-0.392 1.155,-0.292 1.155,0.224 0,1.178 -2.521,3.327 -3.157,2.691 -0.26,-0.26 -2.223,1.318 -4.361,3.508 -2.138,2.19 -3.516,3.982 -3.063,3.982 0.454,0 0.266,0.675 -0.419,1.5 -1.503,1.811 -3.412,2.01 -2.399,0.25 0.418,-0.726 0.338,-0.901 -0.191,-0.417 -0.5,0.459 -0.91,1.321 -0.91,1.917 0,0.596 -0.625,1.292 -1.389,1.546 -0.926,0.309 -1.125,0.035 -0.596,-0.821 0.525,-0.848 0.397,-1.038 -0.377,-0.56 -0.644,0.398 -0.864,1.219 -0.49,1.824 0.442,0.715 0.079,0.87 -1.036,0.442 -0.969,-0.372 -1.464,-0.25 -1.136,0.28 0.78,1.262 -3.254,3.338 -5.106,2.627 -0.811,-0.311 -1.235,-0.178 -0.942,0.295 0.613,0.992 -5.083,3.29 -14.428,5.819 -14.676,3.973 -44.5,1.041 -44.5,-4.374 0,-0.639 -0.41,-1.536 -0.91,-1.995 -0.529,-0.484 -0.609,-0.309 -0.191,0.417 0.395,0.688 0.312,1.25 -0.185,1.25 -1.288,0 -4.317,-3.531 -3.716,-4.331 0.276,-0.368 0.201,-0.443 -0.167,-0.167 -0.8,0.601 -4.331,-2.428 -4.331,-3.716 0,-0.497 0.52,-0.583 1.155,-0.191 0.721,0.446 0.882,0.274 0.43,-0.457 -0.398,-0.644 -1.219,-0.864 -1.824,-0.49 -0.715,0.442 -0.87,0.079 -0.442,-1.036 0.38,-0.991 0.253,-1.465 -0.301,-1.123 -0.528,0.326 -1.246,-0.551 -1.597,-1.948 -0.767,-3.057 0.276,-7.846 1.539,-7.066 0.496,0.307 1.227,0.031 1.625,-0.613 0.452,-0.731 0.291,-0.903 -0.43,-0.457 -1.696,1.047 -1.409,-0.949 0.345,-2.405 0.825,-0.685 1.5,-0.91 1.5,-0.5 0,0.41 0.67,0.189 1.489,-0.491 0.819,-0.68 1.28,-1.574 1.024,-1.989 -0.675,-1.091 2.997,-4.156 4.566,-3.812 0.732,0.161 1.351,-0.345 1.376,-1.125 0.025,-0.779 0.67,-1.625 1.434,-1.879 0.95,-0.317 1.137,-0.027 0.59,0.916 -0.472,0.815 -0.427,1.039 0.111,0.547 0.5,-0.459 0.91,-1.321 0.91,-1.917 0,-0.596 0.625,-1.292 1.389,-1.546 0.926,-0.309 1.125,-0.035 0.596,0.821 -0.525,0.848 -0.397,1.038 0.377,0.56 0.644,-0.398 0.864,-1.219 0.49,-1.824 -0.442,-0.715 -0.079,-0.87 1.036,-0.442 0.989,0.379 1.465,0.252 1.124,-0.299 -0.933,-1.511 15.225,-9.223 17.807,-8.5 1.722,0.483 1.866,0.39 0.681,-0.439 -1.24,-0.868 -1.254,-1.053 -0.083,-1.066 0.779,-0.008 1.166,-0.266 0.859,-0.572 -0.628,-0.628 -16.272,5.239 -22.662,8.499 -2.3,1.173 -4.628,1.858 -5.173,1.521 -0.545,-0.336 -0.867,-0.072 -0.716,0.588 0.151,0.659 -0.35,1.426 -1.114,1.704 -0.956,0.347 -1.14,0.074 -0.59,-0.875 0.472,-0.815 0.427,-1.039 -0.111,-0.547 -0.5,0.459 -0.911,1.359 -0.913,2 -0.001,0.642 -0.676,1.176 -1.5,1.186 -0.823,0.011 -1.497,0.312 -1.497,0.67 0,1.227 -4.791,5.749 -5.576,5.264 -0.432,-0.267 -1.111,0.041 -1.509,0.685 -0.452,0.731 -0.291,0.903 0.43,0.457 1.518,-0.937 1.461,-0.516 -0.442,3.299 -1.514,3.034 -1.527,4.014 -0.192,14.283 0.12,0.922 0.507,1.498 0.86,1.279 0.662,-0.409 7.427,7.523 7.428,8.711 0.001,0.366 0.411,1.041 0.911,1.5 0.529,0.484 0.609,0.309 0.191,-0.417 -1.006,-1.748 -0.481,-1.601 4.79,1.345 14.691,8.211 43.415,6.521 63.899,-3.758 3.184,-1.598 6.334,-2.593 7,-2.211 0.665,0.382 0.876,0.326 0.469,-0.124 -0.408,-0.45 -0.24,-1.422 0.372,-2.16 1.36,-1.639 3.268,-1.796 2.274,-0.187 -0.446,0.721 -0.274,0.882 0.457,0.43 0.644,-0.398 0.956,-1.071 0.693,-1.496 -0.527,-0.853 6.339,-7.89 6.917,-7.089 0.199,0.275 0.736,0.09 1.195,-0.41 0.484,-0.529 0.309,-0.609 -0.417,-0.191 -1.776,1.022 -1.549,-0.167 0.622,-3.245 3.643,-5.166 7.034,-12.953 9.689,-22.246 4.082,-14.286 11.176,-28.807 13.402,-27.431 0.446,0.276 1.424,-0.282 2.174,-1.238 1.233,-1.574 1.197,-1.609 -0.387,-0.367 -3.041,2.385 -1.893,-0.341 1.548,-3.676 3.518,-3.41 5.857,-4.356 3.574,-1.446 -1.238,1.579 -1.204,1.618 0.346,0.404 0.945,-0.74 1.679,-1.64 1.632,-2 -0.048,-0.36 0.001,-0.879 0.108,-1.154 0.515,-1.321 0.819,-4 0.454,-4 -0.227,0 -0.468,0.225 -0.537,0.5"
       stroke="none"
       fill="#130e0f"
       fill-rule="evenodd"
       id="path241" /><path
       d="m 187.602,160.099 c -3.458,2.719 -7.476,10.704 -8.258,16.407 -0.583,4.254 0.551,6.091 2.156,3.494 3.772,-6.103 17.97,4.264 14.559,10.629 -2.026,3.781 -2.026,3.781 1.142,4.826 5.242,1.729 5.854,9.018 1.665,19.812 -1.85,4.767 -1.85,4.767 0.892,4.112 5.436,-1.298 8.193,-7.771 10.413,-24.449 3.116,-23.406 -10.459,-44.357 -22.569,-34.831 m 41.415,2.73 c -5.692,5.692 -6.833,16.153 -1.767,16.203 6.248,0.061 10.812,6.013 8.315,10.842 -2.069,4.001 -1.999,4.241 0.917,3.133 3.042,-1.157 4.659,1.205 4.876,7.124 0.176,4.772 0.12,4.779 2.85,-0.381 8.639,-16.328 -4.31,-47.802 -15.191,-36.921"
       stroke="none"
       fill="#ffffff"
       fill-rule="evenodd"
       id="path243" /><path
       d="m 153.439,127.07 c -2.029,0.589 -3.546,1.972 -4.5,4.103 -1.259,2.811 -2.191,3.378 -7.439,4.526 -15.973,3.493 -36.163,11.301 -29.223,11.301 7.301,0 8.294,4.976 1.473,7.382 -11.714,4.132 -29.198,16.491 -23.45,16.576 10.291,0.153 10.396,3.574 0.429,13.94 -9.176,9.542 -16.882,20.053 -24.606,33.56 -6.086,10.643 -5.965,9.77 -1.649,11.828 6.49,3.095 6.228,5.694 -3.072,30.532 -8.738,23.333 -14.743,33.488 -27.753,46.932 -5.081,5.25 -5.081,5.25 2.154,5.25 7.235,0 7.235,0 6.573,2.75 -1.898,7.884 -11.438,21.765 -19.287,28.063 -5.826,4.675 -4.743,5.187 10.97,5.187 7.668,0 13.941,0.201 13.941,0.447 0,0.246 -2.138,3.283 -4.751,6.75 -4.798,6.366 -9,14.385 -8.041,15.344 4.267,4.268 32.225,-2.208 40.048,-9.275 5.868,-5.302 1.437,5.849 -7.973,20.062 -9.74,14.712 -4.675,17.5 19.454,10.709 3.981,-1.12 7.503,-2.037 7.828,-2.037 0.325,0 -1.029,1.892 -3.008,4.205 -14.313,16.72 1.341,21.322 21.316,6.266 8.998,-6.781 8.883,-6.885 3.857,3.477 -10.989,22.653 -2.749,26.19 28.92,12.415 0.705,-0.307 1.407,1.012 1.81,3.402 2.682,15.87 18.419,13.888 26.806,-3.376 2.684,-5.524 2.514,-5.561 7.599,1.649 12.32,17.471 22.609,16.218 32.313,-3.936 4.964,-10.308 5.11,-10.423 6.663,-5.239 4.711,15.726 18.263,12.605 22.2,-5.113 1.25,-5.626 2.959,-7.766 2.959,-3.705 0,2.922 4.442,7.095 6.694,6.29 3.889,-1.39 4.332,-2.377 2.322,-5.176 -4.397,-6.126 -8.743,-24.154 -5.39,-22.359 1.906,1.02 12.374,3.222 12.374,2.604 0,-0.178 -2.137,-2.325 -4.75,-4.771 -5.813,-5.442 -12.706,-16.673 -19.289,-31.426 -5.892,-13.205 -5.935,-13.499 -1.711,-11.792 8.464,3.421 10.324,2.963 6.258,-1.538 C 235.759,325.407 227,302.059 227,291.538 c 0,-16.251 -26.925,13.118 -33.527,36.572 -8.641,30.693 -23.928,44.355 -56.333,50.345 -22.914,4.235 -40.927,-0.208 -51.099,-12.604 -14.212,-17.319 -3.509,-31.727 33.657,-45.308 29.113,-10.639 32.465,-21.961 11.485,-38.79 -42.762,-34.301 -34.122,-72.019 17.931,-78.275 5.614,-0.674 5.614,-0.674 6.159,-8.326 2.71,-38.057 15.62,-55.332 41.526,-55.567 9.299,-0.085 9.299,-0.085 6.5,-2.368 -10.85,-8.852 -36.414,-14.054 -49.86,-10.147"
       stroke="none"
       fill="#f6eb07"
       fill-rule="evenodd"
       id="path245" /><path
       d="M 236.5,3.942 C 207.137,8.709 183.605,27.836 167.513,60.015 156.941,81.156 145.367,92.037 133.112,92.358 122.525,92.636 123.056,83.476 134.349,71 152.391,51.068 138.126,34.124 111.645,44.031 90.854,51.81 78.622,76.466 80.653,106.5 c 1.927,28.497 1.295,31.5 -6.622,31.5 -5.268,0 -7.601,-2.199 -10.008,-9.43 -6.379,-19.169 -23.32,-26.107 -34.012,-13.929 -8.004,9.115 -7.933,17.208 0.333,37.93 10.988,27.544 8.997,38.187 -8.328,44.503 -17.123,6.244 -17.413,17.776 -0.654,26.039 13.277,6.546 16.144,10.617 14.354,20.387 -4.355,23.766 16.329,33.042 21.36,9.579 1.314,-6.127 0.404,-7.942 -3.054,-6.091 -9.964,5.333 4.046,-32.36 19.223,-51.717 7.684,-9.801 8.575,-11.136 5.867,-8.786 -12.035,10.439 -27.497,40.879 -28.834,56.765 -0.593,7.05 -0.102,7.84 3.281,5.282 2.935,-2.22 3.366,-1.874 2.756,2.218 -1.43,9.599 -6.525,15.988 -11.712,14.686 -6.535,-1.64 -9.557,-10.295 -7.573,-21.687 1.851,-10.629 -1.441,-15.451 -14.572,-21.343 -11.379,-5.105 -14.625,-10.341 -10.552,-17.019 1.752,-2.873 3.429,-3.911 14.497,-8.975 15.392,-7.041 15.886,-16.292 2.703,-50.598 -6.178,-16.078 -5.26,-23.949 3.741,-32.064 9.72,-8.765 23.319,-2.327 29.554,13.992 7.954,20.814 21.573,15.901 19.995,-7.214 -3.54,-51.857 16.085,-83.967 47.353,-77.476 15.668,3.252 16.247,12.864 1.774,29.459 -19.243,22.064 3.617,30.257 23.751,8.511 4.601,-4.971 8.125,-10.294 12.709,-19.2 C 187.402,24.097 213.304,5 245.055,5 c 39.65,0 39.661,28.285 0.015,39.689 -30.887,8.886 -52.671,32.107 -44.308,47.234 6.627,11.986 19.7,8.96 43.238,-10.008 C 286.28,47.844 307.693,38.972 344.494,40.281 378.348,41.484 398,54.316 398,75.218 c 0,18.498 -18.747,26.665 -71.803,31.281 -38.983,3.392 -64.02,13.163 -85.393,33.325 -6.773,6.389 -6.773,6.389 -11.538,2.454 C 199.484,117.691 137,107.7 137,127.525 c 0,0.689 -1.687,1.567 -3.75,1.952 -19.149,3.572 -36.581,12.581 -31.554,16.308 1.691,1.255 1.616,1.469 -1.196,3.431 -7.295,5.089 -18.095,17.434 -22.268,25.455 -5.012,9.633 -4.968,9.36 -1.482,9.213 1.692,-0.071 2.077,-0.292 1,-0.573 -2.527,-0.661 -2.213,-2.05 2.15,-9.517 7.349,-12.575 24.494,-28.8 27.382,-25.912 0.615,0.615 2.265,1.125 3.668,1.133 6.199,0.038 5.105,1.717 -4.137,6.355 -18.247,9.157 -25.126,16.56 -16.53,17.789 7.369,1.055 7.334,1.417 -1,10.254 -9.29,9.851 -17.246,20.759 -25.262,34.634 -6.35,10.99 -6.348,10.928 -0.485,14.013 8.769,4.614 -10.57,52.081 -29.353,72.043 -9.755,10.368 -9.738,11.782 0.134,11.068 9.259,-0.67 5.033,9.639 -10.115,24.676 -6.115,6.071 -8.108,8.647 -7.308,9.447 1.619,1.619 11.542,2.583 20.014,1.944 8.323,-0.627 8.156,-1.287 1.925,7.616 -12.087,17.273 3.776,22.433 29.358,9.55 7.889,-3.973 6.819,-0.263 -4.622,16.024 -8.9,12.67 -2.457,17.015 17.931,12.092 3.3,-0.797 6.311,-1.465 6.692,-1.484 0.381,-0.02 -0.401,1.877 -1.738,4.214 -8.112,14.187 7.914,18.453 24.004,6.389 5.393,-4.044 5.721,-3.926 3.155,1.137 -10.544,20.809 0.22,26.591 27.598,14.825 3.711,-1.595 3.711,-1.595 4.936,2.496 4.174,13.932 17.757,12.783 27.868,-2.357 2.192,-3.283 3.985,-5.483 3.985,-4.891 0,2.089 11.956,13.827 15.891,15.602 7.172,3.234 14.213,-1.33 20.993,-13.607 3.762,-6.814 3.762,-6.814 6.013,-3.769 7.846,10.612 18.611,8.506 22.692,-4.439 1.667,-5.289 1.667,-5.289 3.994,-2.963 2.889,2.89 4.37,2.916 8.032,0.141 1.587,-1.202 3.004,-2.259 3.15,-2.348 0.145,-0.089 -0.838,-2.143 -2.186,-4.564 -4.475,-8.039 -6.936,-18.988 -4.018,-17.879 8.494,3.23 16.19,0.84 9.872,-3.065 -5.37,-3.318 -11.77,-12.64 -19.508,-28.414 -7.764,-15.823 -7.667,-15.011 -1.607,-13.486 2.509,0.632 5.151,0.942 5.872,0.69 0.72,-0.253 -1.378,-1.028 -4.664,-1.721 -3.286,-0.694 -6.563,-1.488 -7.283,-1.764 -5.045,-1.936 17.081,38.558 23.698,43.371 7.604,5.532 5.523,6.431 -6.592,2.849 -4.628,-1.369 -3.706,5.89 2.341,18.421 4.145,8.589 -3.608,12.124 -8.277,3.774 -2.137,-3.821 -2.137,-3.821 -2.626,0.52 -2.047,18.159 -20.203,22.475 -23.698,5.633 -0.691,-3.331 -0.691,-3.331 -3.33,2.41 -10.589,23.028 -20.912,25.615 -34.254,8.582 -5.231,-6.677 -5.231,-6.677 -9.284,-0.32 -9.496,14.895 -21.874,16.378 -25.739,3.084 -1.535,-5.282 -1.535,-5.282 -10.259,-1.739 -23.753,9.65 -31.163,4.011 -21.418,-16.297 4.049,-8.44 4.049,-8.44 -2.128,-3.889 -20.922,15.415 -36.313,11.94 -23.775,-5.368 2.799,-3.864 2.799,-3.864 -4.302,-1.957 -21.313,5.724 -29.022,2.468 -21.046,-8.887 5.472,-7.791 10.509,-16.77 11.87,-21.16 0.64,-2.063 0.319,-1.99 -4.833,1.113 -8.414,5.067 -18.701,8.039 -27.886,8.056 C 32.096,373.481 31.822,370.76 42.03,356.77 46.969,350 46.969,350 35.109,350 c -18.694,0 -20.578,-0.722 -14.01,-5.37 7.687,-5.441 17.864,-19.606 20.388,-28.38 0.628,-2.182 0.435,-2.25 -6.42,-2.25 -8.341,0 -8.441,-0.242 -2.5,-6.042 21.209,-20.705 42.167,-71.846 31.604,-77.12 -1.831,-0.915 -3.57,-1.904 -3.865,-2.199 -1.929,-1.929 18.806,-32.589 29.858,-44.149 9.982,-10.441 9.997,-12.263 0.104,-12.651 -2.485,-0.097 -3.917,-0.586 -3.659,-1.249 0.82,-2.111 16.28,-12.297 23.789,-15.673 4.18,-1.879 7.6,-3.777 7.601,-4.218 C 118,149.637 111.607,147 109.032,147 c -6.481,0 18.278,-9.189 32.625,-12.109 5.591,-1.138 6.238,-1.535 7.034,-4.322 3.046,-10.668 38.466,-6.352 55.559,6.771 2.613,2.006 4.75,3.238 4.75,2.739 0,-1.535 -9.492,-7.976 -16.17,-10.972 -17.414,-7.814 -42.023,-7.676 -45.336,0.253 -1.243,2.975 -1.997,3.392 -9.174,5.075 -10.162,2.384 -30.378,9.334 -32.384,11.134 -1.684,1.512 -3.936,0.26 -3.936,-2.187 0,-2.734 13.044,-8.301 27.784,-11.857 6.24,-1.505 7.505,-2.184 8.821,-4.729 8.848,-17.11 65.356,-6.23 91.156,17.551 4.283,3.949 4.283,3.949 10.511,-2.19 21.814,-21.502 46.135,-31.064 88.228,-34.688 52.298,-4.502 70.524,-13.083 70.49,-33.187 -0.038,-22.648 -21.255,-34.829 -60.49,-34.728 -35.888,0.094 -53.042,7.659 -97,42.777 -23.235,18.562 -35.929,20.743 -40.332,6.929 -4.954,-15.541 13.806,-34.053 43.858,-43.278 44.687,-13.718 37.43,-49.502 -8.526,-42.04 m -50.571,137.425 c -10.625,2.865 -19.255,10.572 -23.014,20.554 -2.98,7.912 -6.888,28.481 -6.76,35.579 0.108,6 0.108,6 0.904,-0.857 1.088,-9.372 3.064,-20.854 3.511,-20.407 3.392,3.393 -1.479,30.765 -5.475,30.772 -48.76,0.08 -61.846,39.736 -23.464,71.099 4.115,3.363 7.267,6.328 7.005,6.59 -1.731,1.732 -26.306,-21.87 -30.301,-29.101 -12.058,-21.825 19.093,-55.526 46.484,-50.29 1.665,0.318 2.025,0.138 1.257,-0.63 -4.939,-4.939 -34.775,6.313 -43.372,16.357 -15.79,18.447 -10.882,35.886 16.314,57.963 21.982,17.845 21.398,31.118 -1.743,39.562 -42.731,15.591 -53.702,26.725 -43.051,43.689 9.796,15.602 34.296,20.931 62.015,13.489 26.118,-7.013 37.305,-18.589 46.614,-48.236 6.494,-20.684 13.909,-30.831 28.031,-38.357 12.598,-6.715 6.164,-9.001 -28.384,-10.082 -34.182,-1.07 -43.479,-3.698 -56.371,-15.936 -15.882,-15.076 -14.322,-38.195 2.871,-42.555 1.75,-0.444 1.391,-0.025 -1.196,1.395 -31.943,17.527 3.707,55.3 52.011,55.107 31.165,-0.124 41.411,1.9 55.166,10.898 25.668,16.79 39.91,-1.097 19.59,-24.604 -3.165,-3.661 -3.165,-3.661 -9.118,-1.393 -3.274,1.247 -9.553,2.882 -13.953,3.632 -8,1.364 -8,1.364 -1,0.956 4.033,-0.235 9.954,-1.481 13.969,-2.939 3.832,-1.393 7.207,-2.188 7.5,-1.767 0.292,0.421 1.733,2.313 3.202,4.205 15.989,20.592 3.232,37.275 -17.171,22.455 -14.058,-10.211 -20.078,-11.63 -53,-12.493 -20,-0.525 -28.727,-1.127 -32,-2.208 -45.312,-14.967 -45.673,-58.821 -0.432,-52.446 6.013,0.847 15.777,1.84 21.698,2.207 9.172,0.567 10.727,0.907 10.5,2.296 -0.499,3.058 6.989,1.269 18.183,-4.346 31.467,-15.781 66.201,-10.44 90.635,13.935 20.199,20.151 24.498,48.952 5.405,36.209 -26.221,-17.502 -41.41,-20.71 -63.489,-13.41 -40.361,13.342 -101.718,-1.073 -79.287,-18.629 2.996,-2.344 3.085,-2.581 1.256,-3.32 -2.848,-1.15 -22.183,-0.993 -23.368,0.19 -0.668,0.667 3.044,0.88 11.138,0.639 12.139,-0.361 12.139,-0.361 8.45,3.118 -9.414,8.878 7.135,21.347 32.783,24.701 6.028,0.788 6.028,0.788 0.528,0.898 -15.569,0.31 -27.673,-5.214 -40.493,-18.479 -4.984,-5.157 -9.396,-9.377 -9.803,-9.377 -0.408,0 3.651,4.536 9.021,10.08 15.651,16.159 22.764,18.738 54.207,19.655 21.136,0.617 21.274,0.667 42.93,15.574 2.949,2.03 5.817,3.691 6.373,3.691 4.779,0 -25.321,-19.3 -30.82,-19.761 -9.132,-0.765 -10.422,-1.845 -3.107,-2.602 3.744,-0.388 12.519,-2.519 19.5,-4.738 23.005,-7.31 37.003,-4.686 61.671,11.559 10.882,7.166 10.884,7.167 13.401,3.968 11.075,-14.08 -14.078,-47.579 -43.937,-58.518 -25.421,-9.312 -38.436,-8.667 -62.81,3.114 -13.081,6.323 -15.689,6.968 -17.599,4.355 -0.936,-1.28 -4.16,-1.815 -15.221,-2.529 -7.719,-0.497 -16.009,-1.327 -18.424,-1.843 -3.538,-0.756 -2.79,-0.834 3.858,-0.403 11.236,0.729 12.259,0.327 11.162,-4.384 -4.387,-18.829 -2.756,-45.214 3.355,-54.282 9.482,-14.07 27.49,-7.662 33.393,11.883 2.199,7.282 3.669,9.105 1.884,2.336 -5.173,-19.609 -18.336,-28.039 -31.387,-20.102 -9.15,5.564 -13.304,28.106 -9.648,52.36 0.822,5.452 1.494,10.177 1.494,10.5 0,0.323 -8.212,0.587 -18.25,0.587 -27.179,0 -34.873,5.598 -33.524,24.391 1.717,23.913 22.632,35.725 65.774,37.145 22.817,0.752 36,2.242 36,4.071 0,0.491 -0.562,0.897 -1.25,0.903 -2.024,0.016 -11.797,4.838 -11.553,5.7 0.123,0.435 -2.556,3.599 -5.954,7.033 -7.26,7.335 -12.627,17.68 -16.734,32.257 -6.671,23.678 -19.423,37.309 -40.509,43.305 -63.701,18.111 -96.136,-24.942 -36.389,-48.302 13.226,-5.171 14.157,-5.046 2.81,0.377 -32.379,15.476 -39.442,27.749 -23.86,41.465 28.714,25.275 88.786,0.593 97.504,-40.062 3.264,-15.221 9.486,-25.471 20.435,-33.664 1.65,-1.235 2.44,-2.104 1.755,-1.932 -9.004,2.262 -18.772,17.155 -23.338,35.582 -9.252,37.338 -56.753,60.297 -89.666,43.34 -25.808,-13.297 -13.656,-32.195 31.98,-49.734 26.216,-10.076 26.095,-18.509 -0.639,-44.875 -34.299,-33.826 -24.676,-63.864 21.516,-67.164 8.608,-0.615 8.608,-0.615 9.29,-15.244 1.732,-37.207 14.663,-51.386 45.517,-49.91 18.892,0.903 24.657,7.823 16.55,19.869 -3.403,5.057 -5.507,10.693 -5.394,14.449 0.034,1.1 0.703,-0.386 1.488,-3.303 1.564,-5.811 3.329,-9.642 4.091,-8.88 0.269,0.269 -0.03,2.22 -0.663,4.336 -1.844,6.157 -1.006,10.789 2.013,11.127 8.796,0.985 11.244,3.997 7.882,9.696 -2.446,4.146 -1.402,6.018 2.807,5.03 2.703,-0.634 3.373,0.379 3.573,5.413 0.087,2.167 0.565,3.688 1.063,3.38 3.26,-2.014 -0.952,-12.104 -4.303,-10.311 -3.084,1.651 -3.783,0.402 -1.753,-3.134 3.333,-5.808 -0.025,-10.854 -7.224,-10.854 -4.74,0 -5.179,-1.82 -2.563,-10.627 4.304,-14.495 16.182,-12.346 21.074,3.813 3.356,11.082 1.771,26.808 -3.109,30.858 -0.796,0.66 -1.433,1.708 -1.415,2.328 0.071,2.562 5.015,-4.79 6.434,-9.57 6.544,-22.035 -8.61,-47.494 -20.618,-34.639 -3.538,3.787 -3.64,3.092 -0.273,-1.869 3.107,-4.577 2.712,-8.341 -1.315,-12.544 -2.563,-2.675 -5.165,-3.657 -17.524,-6.611 -6.088,-1.455 -15.946,-1.352 -21.807,0.228 m 1.801,16.473 c -5.919,3.903 -11.326,15.128 -10.548,21.898 0.34,2.955 0.145,2.921 9.069,1.605 6.158,-0.908 10.459,4.34 7.569,9.237 -2.302,3.901 -0.72,7.42 3.335,7.42 2.653,0 2.508,9.153 -0.262,16.556 -3.518,9.404 5.499,10.476 10.224,1.215 13.826,-27.101 -0.631,-70.299 -19.387,-57.931 m 0.288,1.356 c -6.216,4.212 -13.972,24.736 -8.427,22.302 9.105,-3.998 20.556,2.17 16.029,8.634 -2.433,3.473 -2.088,5.868 0.845,5.868 5.119,0 5.868,9.938 1.494,19.825 -2.37,5.357 -2.347,5.397 2.351,4.1 6.294,-1.738 11.09,-16.054 11.033,-32.925 -0.069,-20.153 -12.589,-35.077 -23.325,-27.804"
       stroke="none"
       fill="#130d0d"
       fill-rule="evenodd"
       id="path247" /><path
       d=""
       stroke="none"
       fill="#dc4315"
       fill-rule="evenodd"
       id="path249" /></g></svg>
