<svg xmlns="http://www.w3.org/2000/svg" width="216" height="266" viewBox="0 0 216 266" version="1.1"><path d="M 39.500 50.740 C 29.980 54.090, 28.958 56.292, 35.500 59.360 C 37.700 60.392, 39.831 61.745, 40.235 62.368 C 41.556 64.404, 41.036 87.698, 39.427 98.529 C 37.708 110.096, 38.155 112, 42.587 112 C 45.478 112, 46.438 110.271, 48.449 101.438 C 51.481 88.124, 52.767 86.995, 64.899 87.006 C 77.893 87.017, 85 90.986, 85 98.233 C 85 105.935, 76.332 110.878, 61.074 111.875 C 53.600 112.363, 51.500 112.822, 51.500 113.970 C 51.500 116.843, 56.092 118.112, 65 117.700 C 79.102 117.048, 90.002 111.897, 94.444 103.788 C 97.528 98.157, 95.623 93.580, 86.971 85.834 C 82.392 81.734, 80 78.846, 80 77.417 C 80 76.221, 81.156 72.716, 82.570 69.628 C 84.260 65.936, 84.906 63.243, 84.457 61.758 C 83.325 58.010, 79.144 54.339, 72.651 51.393 C 67.601 49.102, 64.799 48.541, 57 48.264 C 48.629 47.965, 46.549 48.260, 39.500 50.740 M 104.625 49.469 C 96.727 52.284, 90.044 61.466, 90.044 69.500 C 90.044 74.234, 92.783 80.624, 96.132 83.702 C 99.011 86.349, 105.070 89.002, 108.218 88.994 C 115.759 88.976, 124.289 83.274, 128.178 75.651 C 131.175 69.777, 130.443 60.581, 126.576 55.511 C 121.502 48.858, 112.945 46.503, 104.625 49.469 M 137.213 51.188 C 136.462 51.938, 136 55.484, 136 60.488 C 136 70.470, 138.874 77.500, 142.955 77.500 C 144.989 77.500, 145.545 76.854, 146.193 73.734 C 147.795 66.022, 154.026 57.305, 157.095 58.483 C 157.868 58.780, 160.525 62.956, 163 67.762 C 167.915 77.305, 170.578 79.120, 170.390 72.796 C 170.253 68.165, 166.205 59.768, 161.409 54.165 C 155.866 47.689, 152.188 49.166, 145.371 60.606 C 144.373 62.281, 144.110 61.980, 143.099 58 C 141.249 50.717, 139.596 48.804, 137.213 51.188 M 56.259 55.705 C 52.616 56.407, 51 59.793, 51 66.723 C 51 74.931, 52.838 77, 60.132 77 C 66.142 77, 71.278 74.298, 73.524 69.953 C 75.628 65.886, 75.394 64.518, 71.918 60.559 C 67.957 56.048, 62.788 54.445, 56.259 55.705 M 106.190 57.353 C 100.572 60.470, 98.341 68.892, 101.510 75.020 C 105.395 82.531, 115.533 81.370, 118.993 73.017 C 119.732 71.234, 120.036 68.015, 119.727 65.266 C 118.860 57.581, 112.490 53.857, 106.190 57.353 M 157.962 84.545 C 157.050 85.645, 156.612 88.880, 156.638 94.343 C 156.710 109.878, 160.320 119.448, 165.866 118.805 C 168.036 118.554, 168.732 117.706, 169.816 114 C 171.999 106.531, 175.145 100.232, 178.547 96.518 C 183.729 90.861, 184.393 91.348, 192.318 106.601 C 198.394 118.297, 201.203 121.242, 202.659 117.446 C 204.421 112.855, 197.142 95.598, 190.175 87.850 C 183.082 79.960, 179.316 81.037, 171.051 93.320 C 169.267 95.971, 167.582 97.915, 167.306 97.639 C 167.030 97.364, 166.061 94.070, 165.152 90.319 C 163.820 84.819, 163.096 83.442, 161.412 83.202 C 160.264 83.038, 158.712 83.642, 157.962 84.545 M 129.500 92.423 C 113.881 99.424, 115.832 121.874, 132.220 123.721 C 141.993 124.823, 151 116.173, 151 105.688 C 151 95.120, 139.421 87.976, 129.500 92.423 M 104.142 98.750 C 101.759 103.239, 99.981 112.351, 98.390 128.227 C 95.827 153.808, 98.242 169.022, 105.252 171.439 C 109.365 172.857, 112.508 169.945, 119.592 158.150 C 130.676 139.694, 131.076 139.680, 140 157.424 C 146.962 171.266, 149.599 174.258, 152.384 171.473 C 155.069 168.788, 154.288 165.470, 147.492 150.671 C 138.511 131.112, 137.771 130, 133.736 130 C 131.925 130, 129.013 131.012, 127.265 132.250 C 124.084 134.501, 115.308 144.977, 112.213 150.217 C 108.570 156.384, 108.006 153.097, 109.145 132.319 C 109.652 123.068, 110.465 111.901, 110.950 107.502 C 111.540 102.164, 111.488 99.088, 110.794 98.252 C 109.274 96.420, 105.217 96.724, 104.142 98.750 M 131.775 98.559 C 128.268 100.462, 127 102.916, 127 107.799 C 127 117.549, 137.108 120.493, 141.490 112.020 C 144.284 106.617, 142.820 100.150, 138.343 98.110 C 135.316 96.731, 135.117 96.745, 131.775 98.559 M 70.734 125.088 C 54.478 128.918, 41.417 147.489, 46.472 159.586 C 48.531 164.516, 50.592 166.749, 55.292 169.148 C 64.410 173.802, 79.073 173.478, 87.698 168.432 C 92.673 165.522, 93.336 164.633, 92.497 161.991 C 91.735 159.589, 88.866 159.431, 83.081 161.472 C 68.863 166.488, 57 162.519, 57 152.746 C 57 151.452, 58.169 148.048, 59.597 145.182 C 62.620 139.115, 67.438 135.812, 77.093 133.186 C 84.650 131.130, 86.608 128.784, 83.139 125.937 C 80.634 123.881, 76.933 123.628, 70.734 125.088" stroke="none" fill="#fbf6f6" fill-rule="evenodd"/><path d="M 115.500 1.622 C 104.068 3.684, 95.810 6.312, 77.560 13.694 C 68.727 17.267, 58.350 21.322, 54.500 22.705 C 27.802 32.295, 11.169 49.338, 6.391 72 C 4.374 81.566, 4.992 89.546, 8.881 104.178 C 15.232 128.069, 18.304 146.455, 18.376 161 L 18.442 174.500 12.165 192 C 4.367 213.741, 0 231.094, 0 240.343 L 0 247.237 6.279 253.368 C 14.622 261.516, 23.379 266, 30.944 266 C 40.884 266, 43.896 263.763, 75.151 233.175 C 90.743 217.915, 105.652 203.952, 108.282 202.145 C 115.914 196.902, 122.361 194.409, 140.821 189.564 C 150.347 187.063, 161.224 183.722, 164.991 182.139 C 191.414 171.037, 208.648 153.062, 214.461 130.540 C 218.725 114.023, 214.346 88.764, 202.929 64.021 C 200.582 58.936, 197.990 50.862, 196.500 44 C 193.101 28.348, 188.785 19.715, 181.264 13.523 C 168.955 3.390, 157.657 -0.046, 137.090 0.090 C 129.616 0.139, 119.900 0.829, 115.500 1.622 M 39.500 50.740 C 29.980 54.090, 28.958 56.292, 35.500 59.360 C 37.700 60.392, 39.831 61.745, 40.235 62.368 C 41.556 64.404, 41.036 87.698, 39.427 98.529 C 37.708 110.096, 38.155 112, 42.587 112 C 45.478 112, 46.438 110.271, 48.449 101.438 C 51.481 88.124, 52.767 86.995, 64.899 87.006 C 77.893 87.017, 85 90.986, 85 98.233 C 85 105.935, 76.332 110.878, 61.074 111.875 C 53.600 112.363, 51.500 112.822, 51.500 113.970 C 51.500 116.843, 56.092 118.112, 65 117.700 C 79.102 117.048, 90.002 111.897, 94.444 103.788 C 97.528 98.157, 95.623 93.580, 86.971 85.834 C 82.392 81.734, 80 78.846, 80 77.417 C 80 76.221, 81.156 72.716, 82.570 69.628 C 84.260 65.936, 84.906 63.243, 84.457 61.758 C 83.325 58.010, 79.144 54.339, 72.651 51.393 C 67.601 49.102, 64.799 48.541, 57 48.264 C 48.629 47.965, 46.549 48.260, 39.500 50.740 M 104.625 49.469 C 96.727 52.284, 90.044 61.466, 90.044 69.500 C 90.044 74.234, 92.783 80.624, 96.132 83.702 C 99.011 86.349, 105.070 89.002, 108.218 88.994 C 115.759 88.976, 124.289 83.274, 128.178 75.651 C 131.175 69.777, 130.443 60.581, 126.576 55.511 C 121.502 48.858, 112.945 46.503, 104.625 49.469 M 137.213 51.188 C 136.462 51.938, 136 55.484, 136 60.488 C 136 70.470, 138.874 77.500, 142.955 77.500 C 144.989 77.500, 145.545 76.854, 146.193 73.734 C 147.795 66.022, 154.026 57.305, 157.095 58.483 C 157.868 58.780, 160.525 62.956, 163 67.762 C 167.915 77.305, 170.578 79.120, 170.390 72.796 C 170.253 68.165, 166.205 59.768, 161.409 54.165 C 155.866 47.689, 152.188 49.166, 145.371 60.606 C 144.373 62.281, 144.110 61.980, 143.099 58 C 141.249 50.717, 139.596 48.804, 137.213 51.188 M 56.259 55.705 C 52.616 56.407, 51 59.793, 51 66.723 C 51 74.931, 52.838 77, 60.132 77 C 66.142 77, 71.278 74.298, 73.524 69.953 C 75.628 65.886, 75.394 64.518, 71.918 60.559 C 67.957 56.048, 62.788 54.445, 56.259 55.705 M 106.190 57.353 C 100.572 60.470, 98.341 68.892, 101.510 75.020 C 105.395 82.531, 115.533 81.370, 118.993 73.017 C 119.732 71.234, 120.036 68.015, 119.727 65.266 C 118.860 57.581, 112.490 53.857, 106.190 57.353 M 157.962 84.545 C 157.050 85.645, 156.612 88.880, 156.638 94.343 C 156.710 109.878, 160.320 119.448, 165.866 118.805 C 168.036 118.554, 168.732 117.706, 169.816 114 C 171.999 106.531, 175.145 100.232, 178.547 96.518 C 183.729 90.861, 184.393 91.348, 192.318 106.601 C 198.394 118.297, 201.203 121.242, 202.659 117.446 C 204.421 112.855, 197.142 95.598, 190.175 87.850 C 183.082 79.960, 179.316 81.037, 171.051 93.320 C 169.267 95.971, 167.582 97.915, 167.306 97.639 C 167.030 97.364, 166.061 94.070, 165.152 90.319 C 163.820 84.819, 163.096 83.442, 161.412 83.202 C 160.264 83.038, 158.712 83.642, 157.962 84.545 M 129.500 92.423 C 113.881 99.424, 115.832 121.874, 132.220 123.721 C 141.993 124.823, 151 116.173, 151 105.688 C 151 95.120, 139.421 87.976, 129.500 92.423 M 104.142 98.750 C 101.759 103.239, 99.981 112.351, 98.390 128.227 C 95.827 153.808, 98.242 169.022, 105.252 171.439 C 109.365 172.857, 112.508 169.945, 119.592 158.150 C 130.676 139.694, 131.076 139.680, 140 157.424 C 146.962 171.266, 149.599 174.258, 152.384 171.473 C 155.069 168.788, 154.288 165.470, 147.492 150.671 C 138.511 131.112, 137.771 130, 133.736 130 C 131.925 130, 129.013 131.012, 127.265 132.250 C 124.084 134.501, 115.308 144.977, 112.213 150.217 C 108.570 156.384, 108.006 153.097, 109.145 132.319 C 109.652 123.068, 110.465 111.901, 110.950 107.502 C 111.540 102.164, 111.488 99.088, 110.794 98.252 C 109.274 96.420, 105.217 96.724, 104.142 98.750 M 131.775 98.559 C 128.268 100.462, 127 102.916, 127 107.799 C 127 117.549, 137.108 120.493, 141.490 112.020 C 144.284 106.617, 142.820 100.150, 138.343 98.110 C 135.316 96.731, 135.117 96.745, 131.775 98.559 M 70.734 125.088 C 54.478 128.918, 41.417 147.489, 46.472 159.586 C 48.531 164.516, 50.592 166.749, 55.292 169.148 C 64.410 173.802, 79.073 173.478, 87.698 168.432 C 92.673 165.522, 93.336 164.633, 92.497 161.991 C 91.735 159.589, 88.866 159.431, 83.081 161.472 C 68.863 166.488, 57 162.519, 57 152.746 C 57 151.452, 58.169 148.048, 59.597 145.182 C 62.620 139.115, 67.438 135.812, 77.093 133.186 C 84.650 131.130, 86.608 128.784, 83.139 125.937 C 80.634 123.881, 76.933 123.628, 70.734 125.088 M 96.500 216.167 C 91.627 219.062, 90.643 224.005, 94.073 228.365 C 98.526 234.026, 108 230.360, 108 222.976 C 108 217.430, 101.175 213.389, 96.500 216.167 M 95.655 218.829 C 91.923 222.953, 94.562 229.333, 100 229.333 C 103.776 229.333, 106 226.972, 106 222.964 C 106 217.720, 99.140 214.978, 95.655 218.829 M 96 222.940 C 96 225.882, 96.413 227, 97.500 227 C 98.325 227, 99 226.460, 99 225.800 C 99 224.867, 99.267 224.867, 100.200 225.800 C 102.486 228.086, 103.805 227.112, 103.650 223.250 C 103.507 219.670, 103.330 219.486, 99.750 219.190 L 96 218.879 96 222.940 M 99 222 C 99 222.550, 99.450 223, 100 223 C 100.550 223, 101 222.550, 101 222 C 101 221.450, 100.550 221, 100 221 C 99.450 221, 99 221.450, 99 222" stroke="none" fill="#ec1d25" fill-rule="evenodd"/></svg>