<?xml version="1.0" encoding="UTF-8" standalone="no"?>
<svg
   viewBox="0 0 24 24"
   width="24pt"
   height="24pt"
   version="1.1"
   id="svg4"
   sodipodi:docname="bonchon.svg"
   xml:space="preserve"
   inkscape:version="1.2.2 (732a01da63, 2022-12-09)"
   xmlns:inkscape="http://www.inkscape.org/namespaces/inkscape"
   xmlns:sodipodi="http://sodipodi.sourceforge.net/DTD/sodipodi-0.dtd"
   xmlns="http://www.w3.org/2000/svg"
   xmlns:svg="http://www.w3.org/2000/svg"><defs
     id="defs8"><clipPath
       id="clip1"><path
         d="M 4.292969,1.980469 H 19.621094 V 17.664062 H 4.292969 Z m 0,0"
         id="path1094" /></clipPath></defs><sodipodi:namedview
     id="namedview6"
     pagecolor="#ffffff"
     bordercolor="#000000"
     borderopacity="0.25"
     inkscape:showpageshadow="2"
     inkscape:pageopacity="0.0"
     inkscape:pagecheckerboard="0"
     inkscape:deskcolor="#d1d1d1"
     inkscape:document-units="pt"
     showgrid="false"
     inkscape:zoom="13.015625"
     inkscape:cx="28.465786"
     inkscape:cy="14.252101"
     inkscape:window-width="1920"
     inkscape:window-height="991"
     inkscape:window-x="380"
     inkscape:window-y="1791"
     inkscape:window-maximized="1"
     inkscape:current-layer="svg4" /><g
     id="g313"
     transform="matrix(0.64377481,0,0,0.64377481,4.6780635,1.9500985)"><path
       style="fill:#ffffff;fill-opacity:1;fill-rule:evenodd;stroke:#ffffff;stroke-width:0.404991;stroke-linecap:butt;stroke-linejoin:miter;stroke-miterlimit:8;stroke-opacity:1"
       d="m 3.7080798,10.119306 c 0,-4.6826972 3.7148825,-8.4821051 8.2919212,-8.4821051 4.57704,0 8.291919,3.7994079 8.291919,8.4821051 0,4.686922 -3.714879,8.486328 -8.291919,8.486328 -4.5770387,0 -8.2919212,-3.799406 -8.2919212,-8.486328 z m 0,0"
       id="path1102" /><path
       d="m 6.0483419,5.0625335 c -0.82677,0.290933 -0.915526,0.4821674 -0.347382,0.7486094 0.19106,0.08962 0.376128,0.207127 0.411214,0.261231 0.114723,0.176818 0.06956,2.1998 -0.07017,3.140424 -0.149287,1.0045431 -0.110467,1.1698971 0.274433,1.1698971 0.25107,0 0.334442,-0.150156 0.509088,-0.9172631 0.263316,-1.156262 0.375,-1.254311 1.428611,-1.253356 1.128471,9.62e-4 1.745683,0.345646 1.745683,0.975016 0,0.668885 -0.752778,1.0981631 -2.077868,1.1847481 -0.649084,0.04238 -0.83146,0.08224 -0.83146,0.181941 0,0.249508 0.398795,0.359715 1.172416,0.323934 1.224697,-0.05662 2.1713151,-0.503965 2.5570831,-1.2081961 0.267832,-0.489027 0.102391,-0.88652 -0.648997,-1.559226 -0.3976671,-0.356067 -0.6054021,-0.606877 -0.6054021,-0.730979 0,-0.103867 0.100394,-0.408261 0.223193,-0.67644 0.146769,-0.320634 0.202872,-0.55451 0.163878,-0.683475 -0.09831,-0.325498 -0.461411,-0.6443084 -1.025299,-0.9001554 -0.438571,-0.198963 -0.681912,-0.247684 -1.359221,-0.27174 -0.726984,-0.02597 -0.907623,-3.47e-4 -1.519798,0.21503 m 5.6558211,-0.110381 c -0.685906,0.24447 -1.266296,1.0418874 -1.266296,1.7396044 0,0.411127 0.23787,0.966071 0.528716,1.233382 0.250029,0.22988 0.776226,0.460281 1.049616,0.459586 0.654903,-0.0016 1.395696,-0.496756 1.733439,-1.15878 0.260276,-0.510131 0.196705,-1.308764 -0.139127,-1.749071 -0.440657,-0.5777844 -1.183794,-0.7823054 -1.90635,-0.5247214 m 2.830125,0.149288 c -0.06522,0.06513 -0.105344,0.3730884 -0.105344,0.8076644 0,0.866893 0.249594,1.477417 0.604011,1.477417 0.176644,0 0.22493,-0.0561 0.281206,-0.32706 0.139127,-0.669754 0.680262,-1.426787 0.946791,-1.324483 0.06713,0.02579 0.29788,0.388461 0.512823,0.805841 0.426846,0.828767 0.658116,0.986392 0.641789,0.43718 -0.0119,-0.402182 -0.363449,-1.131424 -0.77996,-1.6180204 -0.481385,-0.562412 -0.800803,-0.434141 -1.39283,0.5593724 -0.08667,0.145467 -0.109512,0.119326 -0.197313,-0.226319 C 14.884797,5.0605355 14.741241,4.8944005 14.534288,5.1014405 M 7.5037879,5.4937219 c -0.316379,0.06097 -0.456721,0.355025 -0.456721,0.956865 0,0.712829 0.159622,0.892512 0.793074,0.892512 0.521942,0 0.967981,-0.234657 1.163036,-0.612001 0.182723,-0.353201 0.162401,-0.472006 -0.139474,-0.815827 -0.343996,-0.391761 -0.7929,-0.5309744 -1.359915,-0.421549 m 4.3362881,0.143122 c -0.487898,0.270697 -0.681651,1.002111 -0.406437,1.534301 0.337395,0.652297 1.217836,0.55147 1.518322,-0.173952 0.06418,-0.154845 0.09058,-0.434401 0.06374,-0.67314 -0.07529,-0.667408 -0.628501,-0.9908224 -1.175629,-0.687209 m 4.496171,2.361505 c -0.0792,0.09553 -0.117241,0.376476 -0.114983,0.850914 0.0063,1.3491461 0.319765,2.1802591 0.801411,2.1244171 0.188455,-0.0218 0.248899,-0.09544 0.34304,-0.417293 0.189584,-0.6486501 0.4628,-1.1956911 0.758249,-1.5182351 0.450034,-0.491286 0.507699,-0.448992 1.195951,0.875664 0.527674,1.0157461 0.771623,1.2715071 0.89807,0.9418411 0.153022,-0.398709 -0.479127,-1.8974031 -1.08418,-2.5702831 -0.615996,-0.685212 -0.943057,-0.591679 -1.660836,0.475046 -0.154932,0.230227 -0.301267,0.399055 -0.325237,0.375086 -0.02397,-0.02388 -0.108122,-0.309952 -0.187065,-0.63571 -0.115678,-0.477651 -0.178555,-0.597237 -0.324803,-0.61808 -0.0997,-0.01424 -0.234483,0.03821 -0.299617,0.116633 m -2.471799,0.68417 c -1.356442,0.608006 -1.187006,2.5576901 0.23622,2.7180941 0.848742,0.0957 1.63096,-0.655511 1.63096,-1.5660871 0,-0.917784 -1.005585,-1.538209 -1.86718,-1.152007 m -2.202231,0.549472 c -0.206953,0.38985 -0.361365,1.1811871 -0.499536,2.5599481 -0.222586,2.221597 -0.01285,3.542867 0.595934,3.752772 0.357196,0.123147 0.630152,-0.129747 1.245366,-1.154091 0.962597,-1.602822 0.997335,-1.604038 1.772345,-0.06305 0.604619,1.202117 0.833631,1.461959 1.075496,1.220094 0.233181,-0.23318 0.165354,-0.521334 -0.424848,-1.806562 -0.779961,-1.698613 -0.844226,-1.795186 -1.194648,-1.795186 -0.157278,0 -0.410172,0.08789 -0.561978,0.195403 -0.276256,0.195489 -1.038413,1.105284 -1.3072,1.560355 -0.316379,0.535577 -0.36536,0.250115 -0.266443,-1.554363 0.04403,-0.803408 0.114636,-1.773213 0.156757,-2.1552471 0.05124,-0.463582 0.04672,-0.730719 -0.01355,-0.803322 -0.132006,-0.159101 -0.484338,-0.1327 -0.577697,0.04325 m 2.399804,-0.01659 c -0.304567,0.165267 -0.414687,0.378386 -0.414687,0.8024531 0,0.846745 0.877835,1.102418 1.258392,0.366575 0.242647,-0.4692261 0.115505,-1.0308571 -0.273303,-1.2080221 -0.262881,-0.11976 -0.280164,-0.118544 -0.570402,0.03899 M 8.7608719,11.519325 c -1.411762,0.332618 -2.546053,1.945428 -2.107048,2.995999 0.178815,0.428149 0.357804,0.622075 0.765978,0.830418 0.791858,0.40418 2.065275,0.376042 2.8143201,-0.06218 0.432056,-0.252721 0.489635,-0.329927 0.416772,-0.559373 -0.06618,-0.208603 -0.315337,-0.222325 -0.8177401,-0.04507 -1.23477,0.435618 -2.26502,0.09093 -2.26502,-0.757815 0,-0.112378 0.101523,-0.408 0.225538,-0.6569 0.262535,-0.526892 0.680957,-0.813743 1.519451,-1.0418 0.656292,-0.178554 0.8263371,-0.382294 0.525068,-0.629543 -0.217548,-0.178555 -0.538963,-0.200527 -1.077319,-0.07373"
       stroke="none"
       fill="#fbf6f6"
       fill-rule="evenodd"
       id="path2-9"
       style="stroke-width:0.0868456" /><path
       d="m 12.648609,0.79685055 c -0.992819,0.179076 -1.70999,0.40730595 -3.2949231,1.04839995 -0.767107,0.3103 -1.668304,0.662459 -2.00266,0.782566 -2.318604,0.83285 -3.763107,2.312959 -4.178055,4.2810544 -0.175168,0.830765 -0.121497,1.523793 0.216246,2.794518 0.551556,2.0748281 0.818346,3.6715721 0.824599,4.9347411 l 0.0057,1.172416 -0.545129,1.519798 c -0.677222,1.88811 -1.056477,3.395142 -1.056477,4.198377 v 0.598713 l 0.545303,0.532451 c 0.724553,0.707618 1.48506,1.097034 2.142047,1.097034 0.863245,0 1.124824,-0.194274 3.839184,-2.850707 1.3540971,-1.325264 2.6488791,-2.53789 2.8772821,-2.69482 0.662806,-0.455331 1.2227,-0.671837 2.82587,-1.092604 0.827291,-0.217201 1.77191,-0.507352 2.099058,-0.644829 2.294721,-0.96416 3.791418,-2.525209 4.296252,-4.481146 0.37031,-1.434429 -0.01,-3.6280621 -1.001504,-5.7768831 -0.203826,-0.44161 -0.42893,-1.1428014 -0.55833,-1.7387364 -0.295188,-1.359307 -0.670014,-2.109045 -1.32318,-2.646793 -1.068982,-0.88000695 -2.050164,-1.17840795 -3.836317,-1.16659695 -0.649084,0.0043 -1.492876,0.06418 -1.874997,0.133047 M 6.0483109,5.0625335 c -0.82677,0.290933 -0.915526,0.4821674 -0.347382,0.7486094 0.19106,0.08962 0.376128,0.207127 0.411214,0.261231 0.114723,0.176818 0.06956,2.1998 -0.07017,3.140424 -0.149287,1.0045431 -0.110467,1.1698971 0.274433,1.1698971 0.25107,0 0.334442,-0.150156 0.509088,-0.9172631 0.263316,-1.156262 0.375,-1.254311 1.428611,-1.253356 1.128471,9.62e-4 1.745683,0.345646 1.745683,0.975016 0,0.668885 -0.752778,1.0981631 -2.077868,1.1847481 -0.649084,0.04238 -0.83146,0.08224 -0.83146,0.181941 0,0.249508 0.398795,0.359715 1.172416,0.323934 1.224697,-0.05662 2.1713151,-0.503965 2.5570831,-1.2081961 0.267832,-0.489027 0.102391,-0.88652 -0.648997,-1.559226 -0.3976671,-0.356067 -0.6054021,-0.606877 -0.6054021,-0.730979 0,-0.103867 0.100394,-0.408261 0.223193,-0.67644 0.146769,-0.320634 0.202872,-0.55451 0.163878,-0.683475 -0.09831,-0.325498 -0.461411,-0.6443084 -1.025299,-0.9001554 -0.438571,-0.198963 -0.681912,-0.247684 -1.359221,-0.27174 -0.726984,-0.02597 -0.907623,-3.47e-4 -1.519798,0.21503 m 5.6558211,-0.110381 c -0.685906,0.24447 -1.266296,1.0418874 -1.266296,1.7396044 0,0.411127 0.23787,0.966071 0.528716,1.233382 0.250029,0.22988 0.776226,0.460281 1.049616,0.459586 0.654903,-0.0016 1.395696,-0.496756 1.733439,-1.15878 0.260276,-0.510131 0.196705,-1.308764 -0.139127,-1.749071 C 13.169856,4.8990895 12.426719,4.6945685 11.704163,4.9521525 m 2.830125,0.149288 c -0.06522,0.06513 -0.105344,0.3730884 -0.105344,0.8076644 0,0.866893 0.249594,1.477417 0.604011,1.477417 0.176644,0 0.22493,-0.0561 0.281206,-0.32706 0.139127,-0.669754 0.680262,-1.426787 0.946791,-1.324483 0.06713,0.02579 0.29788,0.388461 0.512823,0.805841 0.426846,0.828767 0.658116,0.986392 0.641789,0.43718 -0.0119,-0.402182 -0.363449,-1.131424 -0.77996,-1.6180204 -0.481385,-0.562412 -0.800803,-0.434141 -1.39283,0.5593724 -0.08667,0.145467 -0.109512,0.119326 -0.197313,-0.226319 C 14.884797,5.0605355 14.741241,4.8944005 14.534288,5.1014405 M 7.5037879,5.4937219 c -0.316379,0.06097 -0.456721,0.355025 -0.456721,0.956865 0,0.712829 0.159622,0.892512 0.793074,0.892512 0.521942,0 0.967981,-0.234657 1.163036,-0.612001 0.182723,-0.353201 0.162401,-0.472006 -0.139474,-0.815827 -0.343996,-0.391761 -0.7929,-0.5309744 -1.359915,-0.421549 m 4.3362881,0.143122 c -0.487898,0.270697 -0.681651,1.002111 -0.406437,1.534301 0.337395,0.652297 1.217836,0.55147 1.518322,-0.173952 0.06418,-0.154845 0.09058,-0.434401 0.06374,-0.67314 -0.07529,-0.667408 -0.628501,-0.9908224 -1.175629,-0.687209 m 4.496171,2.361505 c -0.0792,0.09553 -0.117241,0.376476 -0.114983,0.850914 0.0063,1.3491461 0.319765,2.1802591 0.801411,2.1244171 0.188455,-0.0218 0.248899,-0.09544 0.34304,-0.417293 0.189584,-0.6486501 0.4628,-1.1956911 0.758249,-1.5182351 0.450034,-0.491286 0.507699,-0.448992 1.195951,0.875664 0.527674,1.0157461 0.771623,1.2715071 0.89807,0.9418411 0.153022,-0.398709 -0.479127,-1.8974031 -1.08418,-2.5702831 -0.615996,-0.685212 -0.943057,-0.591679 -1.660836,0.475046 -0.154932,0.230227 -0.301267,0.399055 -0.325237,0.375086 -0.02397,-0.02388 -0.108122,-0.309952 -0.187065,-0.63571 -0.115678,-0.477651 -0.178555,-0.597237 -0.324803,-0.61808 -0.0997,-0.01424 -0.234483,0.03821 -0.299617,0.116633 m -2.471799,0.68417 c -1.356442,0.608006 -1.187006,2.5576901 0.23622,2.7180941 0.848742,0.0957 1.63096,-0.655511 1.63096,-1.5660871 0,-0.917784 -1.005585,-1.538209 -1.86718,-1.152007 m -2.202231,0.549472 c -0.206953,0.38985 -0.361365,1.1811871 -0.499536,2.5599481 -0.222586,2.221597 -0.01285,3.542867 0.595934,3.752772 0.357196,0.123147 0.630152,-0.129747 1.245366,-1.154091 0.962597,-1.602822 0.997335,-1.604038 1.772345,-0.06305 0.604619,1.202117 0.833631,1.461959 1.075496,1.220094 0.233181,-0.23318 0.165354,-0.521334 -0.424848,-1.806562 -0.779961,-1.698613 -0.844226,-1.795186 -1.194648,-1.795186 -0.157278,0 -0.410172,0.08789 -0.561978,0.195403 -0.276256,0.195489 -1.038413,1.105284 -1.3072,1.560355 -0.316379,0.535577 -0.36536,0.250115 -0.266443,-1.554363 0.04403,-0.803408 0.114636,-1.773213 0.156757,-2.1552471 0.05124,-0.463582 0.04672,-0.730719 -0.01355,-0.803322 -0.132006,-0.159101 -0.484338,-0.1327 -0.577697,0.04325 m 2.399804,-0.01659 c -0.304567,0.165267 -0.414687,0.378386 -0.414687,0.8024531 0,0.846745 0.877835,1.102418 1.258392,0.366575 0.242647,-0.4692261 0.115505,-1.0308571 -0.273303,-1.2080221 -0.262881,-0.11976 -0.280164,-0.118544 -0.570402,0.03899 M 8.7608719,11.519325 c -1.411762,0.332618 -2.546053,1.945428 -2.107048,2.995999 0.178815,0.428149 0.357804,0.622075 0.765978,0.830418 0.791858,0.40418 2.065275,0.376042 2.8143201,-0.06218 0.432056,-0.252721 0.489635,-0.329927 0.416772,-0.559373 -0.06618,-0.208603 -0.315337,-0.222325 -0.8177401,-0.04507 -1.23477,0.435618 -2.26502,0.09093 -2.26502,-0.757815 0,-0.112378 0.101523,-0.408 0.225538,-0.6569 0.262535,-0.526892 0.680957,-0.813743 1.519451,-1.0418 0.656292,-0.178554 0.8263371,-0.382294 0.525068,-0.629543 -0.217548,-0.178555 -0.538963,-0.200527 -1.077319,-0.07373 m 2.2376651,7.909811 c -0.423199,0.251418 -0.508655,0.680695 -0.210775,1.059342 0.386724,0.491633 1.209499,0.173257 1.209499,-0.468011 0,-0.481645 -0.592721,-0.832589 -0.998724,-0.591331 m -0.07339,0.231183 c -0.324108,0.358151 -0.09492,0.912226 0.377344,0.912226 0.327929,0 0.521074,-0.205043 0.521074,-0.55312 0,-0.455418 -0.595761,-0.693549 -0.898418,-0.359106 m 0.02996,0.357022 c 0,0.2555 0.03587,0.352593 0.130268,0.352593 0.07165,0 0.130269,-0.0469 0.130269,-0.104215 0,-0.08103 0.02319,-0.08103 0.104214,0 0.198529,0.198529 0.313079,0.113942 0.299618,-0.221456 -0.01242,-0.310907 -0.02779,-0.326887 -0.338698,-0.352593 l -0.325671,-0.02701 v 0.35268 m 0.260537,-0.08164 c 0,0.04776 0.03908,0.08685 0.08684,0.08685 0.04777,0 0.08685,-0.03908 0.08685,-0.08685 0,-0.04776 -0.03908,-0.08685 -0.08685,-0.08685 -0.04776,0 -0.08684,0.03908 -0.08684,0.08685"
       stroke="none"
       fill="#ec1d25"
       fill-rule="evenodd"
       id="path4-1"
       style="stroke-width:0.0868456" /></g></svg>
