<?xml version="1.0" encoding="UTF-8" standalone="no"?>
<svg
   viewBox="0 0 24 24"
   width="24pt"
   height="24pt"
   version="1.1"
   id="svg4"
   xml:space="preserve"
   xmlns="http://www.w3.org/2000/svg"
   xmlns:svg="http://www.w3.org/2000/svg"><defs
     id="defs8" /><g
     fill-rule="evenodd"
     clip-rule="evenodd"
     id="g195"
     transform="matrix(0.16464894,0,0,0.23102861,3.344109,-18.029305)"><path
       d="m 49.271,88.145 c -20.976,5.596 -38.785,13.712 -38.963,13.793 l -0.377,0.174 1.667,6.726 -2.774,0.765 -0.32,1.385 1.747,8.348 0.141,0.112 c 0.172,0.139 17.379,13.992 30.794,29.246 l 0.119,0.135 1.576,0.259 55.209,-18.311 -8.386,-5.1 1.424,-6.166 -7.411,-3.761 c 4.523,-2.061 5.415,-2.347 5.45,-2.356 l 0.298,-0.089 0.056,-0.309 1.668,-9.728 -2.128,-1.057 L 88.852,99.644 88.56,99.53 C 70.304,92.459 49.708,88.18 49.501,88.138 l -0.115,-0.023 z"
       id="path131" /><path
       d="m 10.705,119.055 c 0,0 17.255,13.841 30.857,29.306 l 1.279,0.21 54.062,-17.929 -8.554,-5.201 -77.561,-6.667 z"
       id="path133" /><path
       d="m 9.244,110.009 40.213,-11.085 41.095,20.858 -2.198,9.52 c -24.039,8.92 -45.451,19.021 -45.451,19.021 l -1.31,-0.386 c 0,0 -14.533,-15.929 -30.888,-28.883 l -1.688,-8.062 z"
       id="path135" /><path
       d="m 84.562,117.475 4.633,2.538 -45.567,17.203 -0.638,-0.047 c 0,0 -15.897,-14.088 -33.1,-26.639 l 2.597,-0.686 0.215,0.693 37.405,21.728 z"
       fill="#ffffff"
       id="path137" /><path
       d="m 10.517,102.396 c 0,0 17.705,-8.115 38.884,-13.766 0,0 20.551,4.231 38.979,11.369 l 0.206,2.538 2.047,1.016 -1.604,9.357 c 0,0 -1.761,0.491 -16.764,7.653 -15.004,7.162 -21.743,11.288 -21.743,11.288 l -0.59,-0.054 -37.372,-21.161 z"
       id="path139" /><path
       d="m 49.383,89.198 c 0,0 17.033,3.33 37.05,10.754 0,0 -5.892,2.781 -16.907,8.069 -11.015,5.29 -20.135,10.422 -20.135,10.422 L 12.118,102.485 c 10e-4,0 16.916,-7.684 37.265,-13.287 z m -0.269,30.125 0.356,3.558 -35.229,-18.824 z m 1.475,4.86 18.439,-9.686 c 0,0 -0.332,2.203 1.101,2.022 1.185,-0.148 2.366,-1.596 3.036,-4.132 l 16.843,-8.146 -1.188,8.338 c 0,0 -15.322,5.649 -38.141,18.436 z m -1.374,-0.44 -37.819,-20.373 1.765,6.852 36.49,20.55 z m 20.082,4.542 a 6.1,6.1 0 0 1 -0.301,1.864 c -0.63,1.951 -2.014,3.252 -3.091,2.907 -0.871,-0.279 -1.369,-1.335 -1.155,-2.846 -14.163,5.459 -21.278,8.313 -21.278,8.313 l -0.248,8.436 c 14.099,-6.912 44.714,-18.224 44.714,-18.224 l 1.757,-7.867 c -7.863,2.871 -14.581,5.201 -20.398,7.417 z M 9.782,111.284 c 0,0 18.348,13.546 32.629,26.944 l -0.392,8.831 c 0,0 -14.033,-14.716 -30.719,-28.358 z"
       fill="#ffffff"
       id="path141" /><path
       d="m 52.798,115.225 c -1.192,-0.567 -2.071,-1.19 -2.724,-1.846 a 6.33,6.33 0 0 1 -1.363,-2.019 c -0.291,-0.683 -0.455,-1.378 -0.581,-2.067 -0.124,-0.682 -0.209,-1.356 -0.342,-2.015 -0.74,-0.016 -1.636,0.062 -2.595,0.199 -0.964,0.141 -1.994,0.343 -2.996,0.58 a 37.448,37.448 0 0 0 -2.848,0.787 c -0.863,0.279 -1.595,0.562 -2.094,0.815 0.857,-0.992 0.86,-1.742 0.328,-2.361 -0.523,-0.61 -1.572,-1.098 -2.844,-1.556 -1.26,-0.455 -2.742,-0.883 -4.145,-1.369 -1.389,-0.483 -2.696,-1.026 -3.618,-1.709 2.051,0.102 3.256,0.009 3.913,-0.223 0.654,-0.226 0.763,-0.585 0.628,-1.01 -0.133,-0.42 -0.504,-0.905 -0.821,-1.396 -0.312,-0.484 -0.572,-0.974 -0.497,-1.407 1.056,0.366 2.07,0.595 2.981,0.689 0.911,0.093 1.711,0.052 2.335,-0.114 0.623,-0.163 1.069,-0.449 1.282,-0.848 0.211,-0.394 0.192,-0.896 -0.107,-1.488 0.5,0.134 1.005,0.303 1.496,0.488 0.492,0.184 0.97,0.385 1.417,0.583 0.447,0.199 0.86,0.396 1.221,0.568 0.361,0.177 0.668,0.327 0.9,0.436 0.279,0.133 0.555,0.247 0.82,0.341 0.265,0.094 0.52,0.166 0.756,0.214 0.237,0.05 0.457,0.075 0.649,0.072 0.194,-0.001 0.362,-0.028 0.5,-0.086 0.323,-0.137 0.461,-0.51 0.453,-1.024 -0.008,-0.505 -0.158,-1.142 -0.411,-1.815 a 11.265,11.265 0 0 0 -0.997,-2 c -0.399,-0.63 -0.855,-1.215 -1.337,-1.67 0.399,0.04 0.773,0.139 1.128,0.262 0.355,0.122 0.691,0.269 1.01,0.403 0.321,0.134 0.625,0.256 0.917,0.326 0.292,0.072 0.57,0.089 0.834,0.023 0.513,-0.131 0.816,-0.417 0.983,-0.767 0.166,-0.348 0.196,-0.76 0.165,-1.15 a 4.784,4.784 0 0 0 -0.208,-1.02 c -0.082,-0.268 -0.157,-0.441 -0.157,-0.441 0.559,0.19 1.066,0.425 1.528,0.682 0.464,0.258 0.884,0.54 1.26,0.821 0.381,0.283 0.721,0.567 1.023,0.829 0.305,0.262 0.57,0.5 0.802,0.69 0.142,0.113 0.379,0.134 0.66,0.093 0.279,-0.044 0.602,-0.148 0.917,-0.288 a 5.26,5.26 0 0 0 0.866,-0.477 c 0.248,-0.169 0.437,-0.34 0.523,-0.481 a 8.022,8.022 0 0 1 0.998,3.645 c 0.021,0.614 -0.022,1.227 -0.111,1.826 -0.09,0.61 -0.228,1.209 -0.392,1.794 0.585,-0.12 1.177,-0.286 1.749,-0.504 a 8.595,8.595 0 0 0 1.61,-0.799 c 0.494,-0.317 0.94,-0.686 1.313,-1.114 0.369,-0.424 0.667,-0.9 0.868,-1.436 0.203,0.174 0.4,0.344 0.585,0.514 0.185,0.17 0.358,0.341 0.514,0.513 0.154,0.175 0.292,0.354 0.402,0.539 0.112,0.187 0.198,0.381 0.25,0.59 0.466,-0.082 0.85,-0.175 1.175,-0.282 a 4.38,4.38 0 0 0 0.829,-0.364 c 0.232,-0.137 0.432,-0.289 0.622,-0.457 0.188,-0.169 0.367,-0.354 0.56,-0.557 0.429,0.354 0.758,0.701 0.997,1.044 0.241,0.347 0.388,0.683 0.449,1.009 0.062,0.325 0.037,0.642 -0.068,0.937 a 2.2,2.2 0 0 1 -0.552,0.829 l 0.58,-0.095 0.697,-0.114 0.693,-0.115 c 0.217,-0.036 0.415,-0.068 0.573,-0.096 0.436,1.281 0.176,2.268 -0.48,3.032 -0.669,0.781 -1.744,1.319 -2.898,1.704 -1.167,0.392 -2.404,0.618 -3.376,0.78 -0.976,0.162 -1.68,0.259 -1.775,0.387 -0.098,0.133 -0.106,0.29 -0.037,0.465 0.071,0.178 0.219,0.372 0.431,0.574 0.214,0.204 0.493,0.415 0.824,0.627 0.331,0.213 0.714,0.424 1.134,0.624 -1.772,0.087 -3.167,0.079 -4.347,0.018 a 35.778,35.778 0 0 1 -3.059,-0.298 c -0.915,-0.122 -1.78,-0.256 -2.771,-0.354 -0.992,-0.103 -2.11,-0.17 -3.535,-0.165 0.031,0.394 0.066,0.915 0.167,1.505 0.102,0.597 0.268,1.263 0.561,1.93 a 6.178,6.178 0 0 0 1.341,1.96 c 0.625,0.61 1.444,1.146 2.514,1.52 0.282,0.1 0.403,0.222 0.43,0.351 0.026,0.13 -0.044,0.267 -0.15,0.392 -0.107,0.123 -0.25,0.236 -0.366,0.315 a 2.142,2.142 0 0 1 -0.207,0.132 z"
       fill="#cf4037"
       id="path143" /><path
       d="m 95.255,81.236 c 0,0 -4.818,3.433 -5.607,7.311 -0.789,3.877 7.522,4.504 7.221,6.827 -0.302,2.324 -7.259,5.709 -7.259,5.709 0,0 1.516,-2.812 -0.975,-4.061 -2.768,-1.39 -4.832,-3.438 -3.134,-6.795 2.174,-4.302 2.744,-7.306 -0.672,-8.208 -1.806,-0.476 -1.825,-1.38 -1.825,-1.38 0,0 0.226,0.817 2.328,1.103 3.221,0.438 3.084,3.19 2.062,5.549 -1.024,2.36 -4.281,5.81 0.182,8.237 4.462,2.427 3.835,3.304 2.585,4.979 0,0 6.235,-3.187 5.802,-5.235 -0.491,-2.331 -7.419,-2.95 -7.033,-6.734 0.359,-3.541 6.325,-7.302 6.325,-7.302 z"
       id="path145" /><path
       d="m 88.084,89.354 c 0,0 -0.833,3.008 3.017,3.848 4.222,0.921 3.983,1.941 2.805,3.679 -1.178,1.738 -2.327,2.314 -2.327,2.314 0,0 3.977,-3.702 1.226,-4.707 -2.187,-0.798 -5.491,-1.68 -4.721,-5.134 z m -76.784,13.605 2.822,7.555 -1.066,-6.677 z"
       id="path147" /><path
       d="m 12.65,103.679 2.752,7.55 -1.04,-6.69 z m 1.35,0.719 2.683,7.547 -1.016,-6.704 z"
       id="path149" /><path
       d="m 15.351,105.119 2.611,7.542 -0.989,-6.717 z m 1.35,0.72 2.542,7.538 -0.966,-6.731 z"
       id="path151" /><path
       d="m 18.051,106.559 2.472,7.536 -0.94,-6.746 z"
       id="path153" /><path
       d="m 19.402,107.278 2.401,7.533 -0.915,-6.761 z"
       id="path155" /><path
       d="m 20.752,107.998 2.332,7.528 -0.891,-6.774 z"
       id="path157" /><path
       d="m 22.102,108.718 2.262,7.524 -0.866,-6.788 z"
       id="path159" /><path
       d="m 23.452,109.438 2.192,7.52 -0.841,-6.801 z"
       id="path161" /><path
       d="m 24.802,110.157 2.122,7.517 -0.815,-6.816 z m 1.351,0.719 2.052,7.514 -0.791,-6.829 z m 1.349,0.721 1.982,7.509 -0.765,-6.843 z m 1.351,0.719 1.912,7.506 -0.741,-6.857 z m 1.35,0.72 1.842,7.502 -0.715,-6.871 z m 1.35,0.72 1.772,7.499 -0.691,-6.885 z m 1.35,0.72 1.702,7.494 -0.665,-6.899 z m 1.35,0.719 1.632,7.492 -0.64,-6.914 z m 1.351,0.72 1.562,7.487 -0.616,-6.925 z m 1.35,0.721 1.492,7.482 -0.591,-6.941 z m 1.35,0.718 1.423,7.48 -0.566,-6.954 z m 1.35,0.721 1.353,7.476 -0.541,-6.968 z m 1.35,0.72 1.283,7.472 -0.516,-6.983 z m 1.35,0.72 1.212,7.467 -0.489,-6.996 z m 1.351,0.719 1.142,7.464 -0.466,-7.01 z m 1.35,0.72 1.072,7.46 -0.439,-7.023 z m 1.35,0.719 1.002,7.457 -0.415,-7.037 z m 1.349,0.721 0.933,7.453 -0.39,-7.052 z m -37.868,-11.702 2.226,8.502 -0.822,-7.403 z"
       id="path163" /><path
       d="m 11.051,111.64 2.143,8.531 -0.771,-7.453 z"
       id="path165" /><path
       d="m 12.215,112.589 2.062,8.561 -0.722,-7.504 z"
       id="path167" /><path
       d="m 13.38,113.536 1.979,8.591 -0.671,-7.555 z"
       id="path169" /><path
       d="m 14.545,114.484 1.896,8.622 -0.621,-7.607 z"
       id="path171" /><path
       d="m 15.709,115.433 1.815,8.65 -0.572,-7.657 z"
       id="path173" /><path
       d="m 16.875,116.382 1.73,8.679 -0.521,-7.707 z"
       id="path175" /><path
       d="m 18.039,117.329 1.649,8.71 -0.472,-7.759 z"
       id="path177" /><path
       d="m 19.203,118.276 1.567,8.741 -0.422,-7.809 z m 1.165,0.95 1.484,8.768 -0.372,-7.859 z m 1.164,0.947 1.402,8.799 -0.322,-7.91 z m 1.166,0.948 1.318,8.828 -0.271,-7.959 z m 1.164,0.947 1.237,8.859 -0.222,-8.01 z m 1.164,0.949 1.155,8.888 -0.173,-8.062 z m 1.155,0.949 1.073,8.917 -0.123,-8.112 z m 1.14,0.948 0.99,8.946 -0.073,-8.162 z m 1.139,0.949 0.908,8.976 -0.023,-8.214 z m 1.139,0.949 0.826,9.005 0.027,-8.263 z m 1.139,0.948 0.743,9.035 0.077,-8.315 z m 1.139,0.948 0.661,9.065 0.127,-8.365 z m 1.14,0.949 0.578,9.094 0.177,-8.416 z m 1.139,0.947 0.495,9.125 0.227,-8.466 z m 1.14,0.95 0.413,9.154 0.277,-8.517 z m 1.139,0.948 0.33,9.183 0.327,-8.567 z m 1.139,0.948 0.248,9.213 0.377,-8.617 z m 1.139,0.949 0.166,9.243 0.427,-8.669 z m 1.178,0.949 0.084,9.271 0.477,-8.719 z m 1.181,0.947 10e-4,9.302 0.526,-8.77 z m 10.866,-13.528 -0.564,7.623 -0.831,-6.529 z"
       id="path179" /><path
       d="m 52.614,129.776 -0.765,-6.58 0.515,-0.42 0.853,-0.668 z"
       id="path181" /><path
       d="m 53.856,129.163 -0.701,-6.632 0.497,-0.423 0.846,-0.659 z"
       id="path183" /><path
       d="m 55.098,128.548 -0.639,-6.683 0.483,-0.426 0.835,-0.647 z m 1.242,-0.613 -0.576,-6.736 0.468,-0.428 0.825,-0.639 z m 1.241,-0.614 -0.51,-6.787 0.449,-0.431 0.815,-0.629 z m 1.24,-0.615 -0.445,-6.837 0.433,-0.434 0.806,-0.62 z m 1.243,-0.613 -0.384,-6.89 0.418,-0.437 0.797,-0.609 z m 1.241,-0.614 -0.318,-6.941 0.4,-0.441 0.787,-0.598 z m 1.241,-0.614 -0.254,-6.993 0.385,-0.443 0.778,-0.589 z m 1.243,-0.614 -0.192,-7.044 0.37,-0.447 0.767,-0.579 z m 1.24,-0.613 -0.127,-7.096 0.353,-0.449 0.758,-0.571 z m 1.273,-0.615 -0.065,-7.146 0.339,-0.454 0.748,-0.56 z m 1.273,-0.614 v -7.199 l 0.321,-0.456 0.739,-0.55 z m 1.274,-0.614 0.065,-7.251 0.304,-0.459 0.73,-0.54 z m 1.274,-0.615 0.127,-7.302 0.29,-0.463 0.719,-0.529 z m 1.274,-0.614 0.191,-7.354 0.273,-0.466 0.71,-0.518 z m 1.273,-0.614 0.256,-7.406 0.257,-0.469 0.7,-0.51 z m 1.275,-0.615 0.319,-7.457 0.241,-0.472 0.69,-0.499 z m 1.274,-0.614 0.382,-7.509 0.226,-0.475 0.68,-0.49 z m 1.274,-0.615 0.445,-7.56 0.21,-0.478 0.671,-0.479 z m 1.274,-0.615 0.509,-7.611 0.193,-0.481 0.662,-0.469 z m 1.273,-0.613 0.574,-7.663 0.177,-0.484 0.652,-0.461 z m 1.274,-0.614 0.638,-7.716 0.16,-0.487 0.642,-0.451 z m 1.273,-0.616 0.702,-7.766 0.145,-0.489 0.633,-0.441 z m 1.274,-0.614 0.766,-7.818 0.128,-0.492 0.623,-0.432 z m 1.274,-0.614 0.829,-7.87 0.113,-0.496 0.613,-0.42 z m 1.274,-0.614 0.893,-7.921 0.096,-0.5 0.605,-0.41 z m 1.273,-0.615 0.958,-7.972 0.081,-0.503 0.593,-0.402 z m 2.944,-9.536 -1.669,8.922 1.085,-8.53 z m -44.653,33.626 -0.726,8.849 -0.668,-7.754 z m 1.5,-0.578 -0.771,8.827 -0.594,-7.757 z m 1.501,-0.579 -0.816,8.807 -0.522,-7.762 z m 1.5,-0.579 -0.862,8.785 -0.448,-7.763 z m 1.501,-0.579 -0.906,8.764 -0.376,-7.767 z m 1.501,-0.579 -0.952,8.744 -0.303,-7.771 z m 1.501,-0.578 -0.998,8.722 -0.229,-7.774 z m 1.501,-0.58 -1.042,8.701 -0.158,-7.777 z m 1.524,-0.579 -1.086,8.68 -0.084,-7.779 z m 1.538,-0.58 -1.132,8.659 -0.012,-7.784 z m 1.536,-0.579 -1.177,8.637 0.061,-7.785 z m 1.537,-0.58 -1.221,8.615 0.134,-7.787 z m 1.537,-0.58 -1.266,8.596 0.206,-7.793 z m 1.537,-0.578 -1.312,8.573 0.281,-7.796 z m 1.537,-0.581 -1.356,8.554 0.353,-7.799 z m 1.536,-0.579 -1.401,8.531 0.426,-7.801 z m 1.537,-0.58 -1.446,8.51 0.498,-7.802 z m 1.538,-0.579 -1.491,8.49 0.571,-7.809 z m 1.535,-0.581 -1.535,8.469 0.644,-7.81 z m 1.539,-0.579 -1.582,8.448 0.718,-7.815 z m 1.535,-0.579 -1.626,8.426 0.79,-7.816 z m 1.538,-0.58 -1.671,8.405 0.863,-7.82 z m 1.536,-0.579 -1.716,8.384 0.936,-7.823 z m 1.538,-0.58 -1.762,8.362 1.009,-7.825 z m 1.536,-0.58 -1.805,8.343 1.081,-7.83 z m 1.537,-0.578 -1.851,8.32 1.155,-7.833 z m 1.537,-0.581 -1.896,8.3 1.228,-7.835 z m 1.537,-0.579 -1.941,8.278 1.301,-7.839 z m 1.537,-0.58 -1.986,8.258 1.374,-7.842 z m 1.536,-0.58 -2.031,8.237 1.446,-7.845 z"
       id="path185" /><path
       d="m 87.947,104.017 -0.154,-3.836 c 0,0 -19.843,8.984 -37.928,18.984 l 0.417,4.005 c 0,0 7.598,-3.925 18.084,-9.263 l 1.237,0.287 c 0,0 -0.408,1.707 0.278,1.737 0.62,0.025 1.938,-1.093 2.27,-3.947 a 3093.6,3093.6 0 0 1 15.796,-7.967 z M 65.908,132.52 c 0.832,0.297 1.899,-0.814 2.383,-2.481 0.103,-0.356 0.165,-0.705 0.201,-1.043 l -3.44,1.333 c -0.049,1.095 0.259,1.98 0.856,2.191 z"
       fill="#ffffff"
       id="path187" /></g></svg>
