<?xml version="1.0" encoding="UTF-8" standalone="no"?>
<svg
   viewBox="0 0 24 24"
   width="24pt"
   height="24pt"
   version="1.1"
   id="svg4"
   sodipodi:docname="chowking.svg"
   xml:space="preserve"
   inkscape:version="1.2.2 (732a01da63, 2022-12-09)"
   xmlns:inkscape="http://www.inkscape.org/namespaces/inkscape"
   xmlns:sodipodi="http://sodipodi.sourceforge.net/DTD/sodipodi-0.dtd"
   xmlns="http://www.w3.org/2000/svg"
   xmlns:svg="http://www.w3.org/2000/svg"><defs
     id="defs8" /><sodipodi:namedview
     id="namedview6"
     pagecolor="#ffffff"
     bordercolor="#000000"
     borderopacity="0.25"
     inkscape:showpageshadow="2"
     inkscape:pageopacity="0.0"
     inkscape:pagecheckerboard="0"
     inkscape:deskcolor="#d1d1d1"
     inkscape:document-units="pt"
     showgrid="false"
     inkscape:zoom="12.5625"
     inkscape:cx="-11.661692"
     inkscape:cy="20.81592"
     inkscape:window-width="2400"
     inkscape:window-height="1261"
     inkscape:window-x="2391"
     inkscape:window-y="-9"
     inkscape:window-maximized="1"
     inkscape:current-layer="svg4" /><path
     d="m 11.490459,1.1816328 c -0.238238,0.025035 -0.479994,0.077904 -0.61447,0.1343569 -0.076,0.031896 -0.03567,0.035391 0.281082,0.024284 0.20341,-0.00714 0.506856,-0.028011 0.674322,-0.046425 0.194861,-0.021382 0.503274,-0.026018 0.856815,-0.01287 0.303772,0.011303 0.545381,0.013621 0.53689,0.0051 -0.0085,-0.00843 -0.174387,-0.042282 -0.368629,-0.075067 -0.369336,-0.062336 -0.936525,-0.074557 -1.36601,-0.029429 m 0.317529,0.2276708 c -0.04067,0.00742 -0.09423,0.031543 -0.119,0.053639 -0.03256,0.029031 -0.17211,0.043226 -0.502983,0.051219 L 10.728056,1.5251393 10.21028,1.7044967 C 9.5635337,1.9284949 9.4318101,1.981132 9.1035106,2.1468194 8.7434958,2.3285162 8.4599308,2.5248565 8.1814552,2.7852514 8.0524269,2.9059107 7.924847,3.0127183 7.8979215,3.0226023 7.8248108,3.0494823 7.4107385,3.5315897 7.2477427,3.779649 7.0141229,4.1351983 6.6785143,4.8780133 6.7288118,4.9282803 6.7673468,4.9668153 6.8254145,4.8754662 7.0129695,4.4814839 7.1230621,4.2502034 7.2803492,3.9621107 7.3624214,3.8412791 7.5095619,3.6247274 7.7841886,3.3602481 7.7840709,3.4351642 c -3.15e-5,0.02115 -0.093969,0.1782632 -0.2087668,0.3491302 -0.3381836,0.5033063 -0.460317,0.7768418 -0.2361975,0.5289874 0.065007,-0.071896 0.117669,-0.1104182 0.1183524,-0.086574 7.844e-4,0.026092 0.048224,-0.00278 0.1207723,-0.07376 0.088707,-0.08663 0.1257163,-0.1068089 0.1433815,-0.078201 0.017107,0.027705 0.064645,-0.00993 0.1684691,-0.1333481 C 8.1374895,3.64733 8.2650981,3.5367626 8.4944601,3.4178539 8.8157472,3.2512161 8.9380308,3.1208851 8.9380308,2.9450511 c 0,-0.1150635 0.2388261,-0.3003393 0.6361251,-0.493426 0.1952721,-0.094915 0.4149587,-0.192318 0.4881871,-0.2164302 0.07323,-0.024135 0.156459,-0.05299 0.184923,-0.064172 0.03724,-0.014641 0.05178,-0.00593 0.05178,0.030997 0,0.044348 0.01969,0.048725 0.144711,0.032174 0.07959,-0.010549 0.302618,-0.058674 0.495588,-0.1069258 0.204624,-0.051155 0.507744,-0.1005106 0.727223,-0.1184108 0.258829,-0.021113 0.420495,-0.049764 0.517776,-0.091748 0.11039,-0.047631 0.188058,-0.05873 0.353953,-0.050626 0.321849,0.015735 0.331877,0.090626 0.01738,0.1299193 -0.09488,0.011849 -0.147937,0.031192 -0.136457,0.049819 0.01255,0.020325 0.127817,0.02217 0.347322,0.00557 0.562394,-0.042633 0.906879,-0.034094 1.016409,0.025146 0.105751,0.057218 0.130779,0.1256263 0.037,0.1010993 -0.158617,-0.041484 0.0231,0.1201835 0.204121,0.1815743 0.158767,0.053852 0.200514,0.046101 0.135954,-0.02523 -0.07284,-0.08051 -0.04157,-0.1006551 0.07835,-0.050477 0.16557,0.069319 0.855097,0.4890467 1.075728,0.6548251 0.469903,0.3530931 0.665859,0.5765618 0.767405,0.8751857 0.104891,0.3083866 0.400372,0.8459591 0.42478,0.7727611 0.07069,-0.2120546 0.532307,0.7989717 0.671365,1.470394 0.02465,0.1190587 0.04578,0.3653712 0.0469,0.5473619 0.0012,0.1820219 0.01353,0.357562 0.02751,0.3901062 0.0235,0.054705 0.02586,0.053612 0.031,-0.014789 0.01185,-0.1574048 0.05068,0.098967 0.05426,0.3583587 0.0028,0.2145656 -0.01542,0.3220296 -0.116189,0.6805062 -0.179744,0.6392321 -0.298892,0.9477949 -0.501266,1.2980515 -0.06222,0.1076952 -0.07953,0.2371711 -0.03175,0.2371711 0.0153,0 0.109829,-0.1664302 0.210038,-0.3698404 0.241314,-0.4897884 0.303772,-0.500379 0.106544,-0.01809 -0.113349,0.2771727 -0.213145,0.433957 -0.342414,0.5378384 -0.07366,0.059175 -0.12116,0.1256847 -0.132609,0.1856597 -0.01774,0.092961 -0.103524,0.2143266 -0.367267,0.5197856 -0.07605,0.08805 -0.178173,0.219921 -0.226992,0.293091 -0.04882,0.07317 -0.134384,0.167583 -0.190156,0.209775 l -0.101364,0.07675 0.09397,-0.130187 c 0.12098,-0.167578 0.120036,-0.208083 -0.0023,-0.09261 -0.05291,0.04998 -0.202673,0.14477 -0.332858,0.210693 -0.130183,0.06589 -0.283295,0.163585 -0.340251,0.217109 -0.204981,0.192526 -0.517008,0.404193 -0.642399,0.43579 -0.1361,0.03425 -0.203795,0.08897 -0.09486,0.07666 0.104153,-0.01182 0.0979,0.05476 -0.01306,0.139414 -0.255748,0.195069 -0.900364,0.373628 -1.184756,0.32815 -0.183769,-0.02943 -0.952089,0.01608 -0.887025,0.05249 0.04755,0.02656 0.04183,0.03441 -0.04879,0.06716 -0.117638,0.04246 -0.638372,0.05465 -0.662574,0.01545 -0.0244,-0.03947 -0.145923,-0.06029 -0.523545,-0.0898 -0.396232,-0.03096 -0.660535,-0.09666 -0.783261,-0.194744 -0.123558,-0.09876 -0.07175,-0.119143 0.120211,-0.04734 0.09122,0.03414 0.20199,0.06178 0.246137,0.06143 l 0.08024,-7.83e-4 -0.07396,-0.05788 c -0.04069,-0.03182 -0.08729,-0.05802 -0.103555,-0.05823 -0.03472,-3.93e-4 -0.8214584,-0.38783 -0.8432349,-0.41523 C 9.6398597,11.496094 9.4421769,11.368795 9.2087025,11.223403 8.9455737,11.059546 8.7019251,10.880279 8.5678668,10.751929 8.3509034,10.544168 7.8563509,9.9005284 7.643649,9.5491228 7.1412569,8.7190554 6.8617186,7.5168961 7.0335898,6.9255963 c 0.039119,-0.134561 0.045415,-0.2521434 0.032684,-0.6110631 -0.01452,-0.4088066 -0.010042,-0.4642215 0.055586,-0.6906841 0.1153937,-0.3981854 0.18214,-0.5692879 0.3046908,-0.780954 0.072369,-0.1250061 0.1096803,-0.2218443 0.099886,-0.2593 -0.00862,-0.032879 -0.021892,-0.059768 -0.029587,-0.059768 -0.00769,0 -0.101927,0.079416 -0.2094455,0.1764581 C 7.1798818,4.7972993 7.056033,4.8845825 7.012185,4.8942274 6.8706088,4.9253447 6.6804799,5.3729785 6.5537317,5.9735976 6.509791,6.1818304 6.5009455,6.3650654 6.5022528,7.0387357 6.5038291,7.7916425 6.5010474,7.8347208 6.4670187,7.6156861 6.4467683,7.4855044 6.4048304,7.3158179 6.3738495,7.2385679 l -0.056338,-0.1403913 0.00427,0.3918832 c 0.00481,0.4493119 0.015295,0.5278062 0.134824,1.0132432 0.1581151,0.6421316 0.2424989,0.9156047 0.3183292,1.0316455 0.114561,0.1753045 0.1093265,0.076244 -0.011971,-0.226255 -0.225098,-0.5613571 -0.286728,-0.7869296 -0.3028819,-1.1086608 -0.010637,-0.2119322 -0.00528,-0.3032692 0.0177,-0.3032692 0.035318,0 0.040214,0.019026 0.090218,0.3485692 0.035271,0.2324932 0.1297655,0.5311488 0.1840316,0.5817144 0.048873,0.045498 0.011265,-0.2467288 -0.062577,-0.4864738 -0.03261,-0.1057761 -0.065925,-0.3054899 -0.074056,-0.4438098 -0.014362,-0.2441827 -0.00891,-0.228739 0.1871395,0.5325692 0.1845016,0.7165451 0.3106026,1.0949936 0.3512878,1.054313 0.00872,-0.00862 7.853e-4,-0.058349 -0.017265,-0.1104218 -0.018164,-0.052072 -0.03261,-0.1093541 -0.032054,-0.1272552 0.00195,-0.063579 0.094001,0.091424 0.3149586,0.5295834 0.2130552,0.4225039 0.4231831,0.7659539 0.6055902,0.9897789 0.045804,0.05622 0.070597,0.110033 0.055123,0.119591 -0.032804,0.02025 0.3889838,0.488455 0.4833658,0.536537 0.035076,0.01784 -0.029429,-0.06361 -0.14335,-0.181105 -0.1622551,-0.167316 -0.1871396,-0.203591 -0.1148874,-0.167375 0.088345,0.04429 0.2803986,0.182878 0.4292488,0.309776 0.3723282,0.317324 0.6788502,0.509643 1.0978626,0.688735 0.2640093,0.112815 0.4073863,0.143615 0.4073863,0.08743 0,-0.01542 0.07654,-0.0015 0.17013,0.03064 0.215746,0.07438 0.641716,0.185836 0.909805,0.238058 0.272292,0.05305 1.309972,0.05255 1.6125,-7.85e-4 0.286049,-0.05042 0.489078,-0.102543 0.632339,-0.162463 0.06303,-0.02632 0.159033,-0.0479 0.213412,-0.0479 0.05435,0 0.173736,-0.02801 0.265281,-0.06228 0.09157,-0.03425 0.215216,-0.06586 0.274803,-0.07024 0.305666,-0.0224 0.596776,-0.178531 1.167629,-0.626187 0.319189,-0.250306 1.109728,-1.059872 1.281541,-1.312396 0.351968,-0.5173013 0.759978,-1.4882069 0.882822,-2.1006917 0.09586,-0.4779824 0.09814,-0.4828632 0.104803,-0.2219026 0.0058,0.2270505 0.0073,0.2318729 0.03782,0.1183476 0.01836,-0.068317 0.03162,-0.4059655 0.03144,-0.7988538 -3.18e-4,-0.6634924 -0.01699,-0.8387978 -0.125097,-1.3166308 -0.06287,-0.2777923 -0.254538,-0.795095 -0.283385,-0.7647408 -0.0054,0.00565 0.0085,0.1034691 0.03057,0.2173797 0.06169,0.316967 0.04876,0.4217347 -0.02009,0.1627288 -0.286583,-1.0777727 -0.95981,-2.3734545 -1.340833,-2.5804744 -0.05973,-0.032453 0.08106,0.177847 0.27022,0.4035363 0.05349,0.06382 0.08983,0.1235272 0.08072,0.1326425 -0.02115,0.021113 -0.364777,-0.3412599 -0.567687,-0.5986684 -0.10962,-0.13912 -0.175273,-0.1974075 -0.222288,-0.1974075 -0.06784,0 -0.238147,-0.1038493 -0.583699,-0.3559619 C 14.617733,1.9201333 13.900065,1.61861 13.272523,1.4925952 12.807528,1.3992182 12.087671,1.3581834 11.807955,1.4090718 M 9.9586741,1.5976438 C 9.812217,1.6462854 9.6724174,1.7071202 9.6480085,1.732801 9.6078045,1.775081 9.6157975,1.777687 9.7325425,1.760191 9.8789676,1.738299 10.318603,1.5754807 10.34452,1.5335557 c 0.03092,-0.05006 -0.115417,-0.02574 -0.3858454,0.06408 m 1.6568824,0.5487547 c -0.311729,0.03618 -0.567747,0.082754 -0.810599,0.14758 -0.152935,0.040807 -0.309159,0.066398 -0.347207,0.056838 -0.04494,-0.011265 -0.08779,7.843e-4 -0.12231,0.034882 -0.02923,0.028725 -0.245784,0.1485571 -0.4812397,0.2662845 -1.5929715,0.7965784 -2.6148861,2.3172124 -2.7495648,4.0915548 -0.066482,0.8758998 0.097046,1.7268259 0.4860574,2.5290224 0.2653983,0.5473071 0.5200844,0.9064039 0.9461084,1.3339969 0.568903,0.571006 1.2100889,0.970196 1.9692347,1.226007 0.154595,0.0521 0.294394,0.104792 0.310665,0.117106 0.09631,0.07284 0.396499,0.100096 1.124313,0.102014 0.688228,0.002 0.802229,-0.005 1.082183,-0.06409 0.848976,-0.179535 1.5533,-0.518958 2.238981,-1.079044 0.117963,-0.09639 0.214506,-0.185867 0.214506,-0.198855 0,-0.01299 -0.143109,-0.128558 -0.318062,-0.256816 C 14.865594,10.238041 14.292458,9.7784329 14.074105,9.5831877 13.724206,9.270333 13.358481,8.9618834 13.337416,8.9618834 c -0.01377,0 -0.02127,0.3046629 -0.01667,0.6770456 l 0.0084,0.677045 -0.08429,0.110508 c -0.111069,0.145598 -0.419755,0.294716 -0.550618,0.265986 -0.0537,-0.01181 -0.101783,-0.04633 -0.11681,-0.08387 -0.03123,-0.07808 -0.07689,-0.9783608 -0.122786,-2.4220387 -0.02672,-0.8401 -0.02641,-1.285652 0.0012,-1.9675469 0.03132,-0.7705088 0.08933,-1.5683585 0.134828,-1.8555017 0.0079,-0.050153 0.03564,-0.224332 0.06151,-0.3870607 0.05655,-0.355401 0.113348,-0.4542791 0.373155,-0.6495873 0.211517,-0.1590014 0.372798,-0.2453945 0.635767,-0.3405767 0.148825,-0.053852 0.1935,-0.059406 0.247083,-0.030765 0.07793,0.041725 0.07796,0.041604 -0.06707,0.5918923 -0.203351,0.7716345 -0.377593,1.7475084 -0.464904,2.6036723 -0.09193,0.9018206 -0.10326,2.3375367 -0.01841,2.3373011 0.01809,-3.89e-5 0.12607,-0.086073 0.239979,-0.1911061 0.113912,-0.1050619 0.216404,-0.1915763 0.227736,-0.1922281 0.05021,-0.00278 0.445877,-0.499668 0.526444,-0.6608873 0.109498,-0.2191524 0.120568,-0.4096346 0.02759,-0.4747565 -0.05793,-0.040594 -0.05885,-0.048196 -0.01557,-0.1318692 0.09947,-0.1923455 0.496796,-0.4561461 0.746335,-0.4955248 0.0631,-0.00996 0.151368,-0.00408 0.196136,0.013101 0.10639,0.040807 0.199474,0.1969327 0.199591,0.3348093 3.19e-4,0.3077067 -0.325693,0.8320209 -0.882527,1.4194162 -0.275309,0.2904275 -0.27093,0.2627335 -0.07642,0.4842838 0.09314,0.1060979 0.186252,0.2023745 0.206935,0.2140045 0.02068,0.011618 0.121808,0.1021354 0.224743,0.2011627 0.321171,0.3090374 1.15473,0.9362546 1.190856,0.8960757 0.04305,-0.0479 0.236193,-0.3761723 0.323803,-0.5503513 C 17.307268,7.7364474 17.190074,5.832869 16.184227,4.3327682 15.363623,3.1089223 14.073003,2.3278821 12.590594,2.1580787 12.342093,2.1296316 11.814703,2.1232715 11.615432,2.1463495 M 10.721847,3.5595239 C 10.297982,3.6957436 9.3803636,4.3763675 8.9054615,4.9067754 8.5374856,5.3177711 8.0550972,6.143314 7.9021886,6.6237487 7.5658149,7.680604 7.6473264,8.6492891 8.1445975,9.5053351 8.4259735,9.989705 8.9415876,10.33922 9.5528597,10.459997 c 0.5471853,0.108079 1.2449983,-0.0785 1.7080083,-0.456681 0.48745,-0.3981255 1.057624,-1.3826667 0.934276,-1.6131822 -0.05107,-0.095418 -0.133676,-0.1391478 -0.300016,-0.158853 -0.152728,-0.01809 -0.294539,0.039731 -0.294539,0.1201261 0,0.068466 -0.221134,0.3842753 -0.372089,0.5312934 C 10.983458,9.1214717 10.485093,9.317694 10.126702,9.3165405 9.5978926,9.3149643 9.0189877,8.8192066 8.8064935,8.1862489 8.6522821,7.7268804 8.6341782,7.1443973 8.7611898,6.7280135 8.9067884,6.250625 9.3154494,5.6283192 9.7857961,5.1677035 10.106017,4.8541422 10.128178,4.83636 10.589205,4.5237713 11.043991,4.2154116 11.126421,4.1207319 11.14808,3.8819652 c 0.01401,-0.1545646 0.0077,-0.18433 -0.0543,-0.2548354 -0.08613,-0.097963 -0.208323,-0.1201845 -0.371944,-0.067603 m 5.673081,0.2348039 c -7.83e-4,0.013769 0.02319,0.060352 0.05304,0.1035562 0.02986,0.043199 0.0774,0.1377273 0.105652,0.2100686 0.02822,0.072341 0.101926,0.2187964 0.163738,0.3254594 0.13755,0.2373462 0.223915,0.4298097 0.30602,0.6821027 0.09427,0.2895401 0.101419,0.1162753 0.0079,-0.1903958 -0.100575,-0.32972 -0.368281,-0.8606611 -0.516838,-1.0249865 -0.06507,-0.071961 -0.118823,-0.1195641 -0.119502,-0.1058048 m 1.254584,2.6024874 c -0.01142,0.02943 -0.0043,0.2224681 0.01581,0.4290139 0.06083,0.624851 0.08267,0.6605061 0.08509,0.1388846 0.0015,-0.3527405 -0.0084,-0.4922444 -0.039,-0.5473654 -0.037,-0.066426 -0.04331,-0.068521 -0.06193,-0.02052 M 7.0290472,9.7607199 c 0.036606,0.1772239 0.3990441,0.8453021 0.4216764,0.7773431 0.00966,-0.02887 -0.3811126,-0.819064 -0.4282447,-0.8661062 -0.00816,-0.00816 -0.00519,0.031822 0.00658,0.088763 M 7.3400236,9.892204 c 0,0.026722 0.1763366,0.299923 0.1769606,0.274156 C 7.5177686,10.12803 7.4024502,9.9141576 7.3700246,9.894127 7.3535016,9.883931 7.3400116,9.883066 7.3400116,9.892177 m 8.7637234,0.303415 c -0.01847,0.06021 -0.02672,0.116307 -0.01836,0.124712 0.03582,0.03578 0.116718,-0.05527 0.125242,-0.140984 0.0133,-0.133262 -0.06465,-0.121397 -0.106897,0.01628 m -1.185056,1.178251 c -0.253798,0.162698 -0.368243,0.251846 -0.348538,0.271552 0.0128,0.01279 0.528371,-0.290546 0.64006,-0.376617 0.06711,-0.0517 0.06846,-0.05684 0.01479,-0.05515 -0.03256,0.0012 -0.170396,0.07311 -0.306318,0.160213 m -6.1288983,0.457952 c 0,0.0521 0.1162762,0.147933 0.1794752,0.147933 0.03363,0 0.087992,0.01436 0.1208631,0.03198 0.032879,0.01761 0.066277,0.02546 0.07427,0.01749 0.012786,-0.01283 -0.3281511,-0.227024 -0.3614084,-0.227024 -0.00723,0 -0.013185,0.0133 -0.013185,0.02958 m 5.1355944,0.01714 c -0.145598,0.05332 -0.164797,0.07181 -0.07373,0.07097 0.03935,-3.54e-4 0.104803,-0.02669 0.14548,-0.05853 0.08675,-0.06784 0.08181,-0.06869 -0.07175,-0.01244 m -4.6474058,0.119117 c 0.07885,0.06077 0.1627297,0.10607 0.1627297,0.08784 0,-0.03351 -0.1330228,-0.135275 -0.1757172,-0.134384 -0.036532,7.85e-4 -0.033788,0.01047 0.01299,0.04654 m 0.5621584,0.511679 c 0.091804,0.05986 0.2514919,0.11125 0.2514919,0.08093 0,-0.02546 -0.149593,-0.09627 -0.2514919,-0.119031 l -0.088762,-0.01977 0.088762,0.0579 m -2.6036888,0.26809 c -0.032564,0.01353 -0.099119,0.06681 -0.1479369,0.118347 l -0.088763,0.0937 -0.00989,0.538101 c -0.016634,0.906612 0.1192666,1.795559 0.274509,1.795559 0.025192,0 0.1224014,-0.09637 0.2160454,-0.214154 0.3576484,-0.449813 0.5448779,-0.592599 0.6453842,-0.492065 0.022643,0.0226 0.068141,0.154152 0.1011621,0.292295 0.1266036,0.529906 0.1342039,0.539373 0.3529133,0.441469 0.1146787,-0.05135 0.1211292,-0.06101 0.1208623,-0.181426 C 8.7004093,14.980635 8.5731742,14.412261 8.5110102,14.29205 8.4485252,14.171246 8.353904,14.110031 8.2296073,14.110031 c -0.089976,0 -0.1316022,0.02951 -0.3262587,0.23134 -0.1227269,0.127228 -0.2781464,0.296996 -0.3453991,0.377237 -0.067251,0.08024 -0.1316337,0.136961 -0.1431144,0.126041 -0.052962,-0.05038 -0.073371,-0.294154 -0.072722,-0.867763 3.923e-4,-0.348094 0.018164,-0.751454 0.040418,-0.917201 0.021817,-0.162728 0.033704,-0.305842 0.026407,-0.318062 -0.016912,-0.02833 -0.096453,-0.02546 -0.1724915,0.0062 m -1.0141018,0.103083 c -0.220012,0.127077 -0.5713871,0.434017 -0.7055947,0.616329 -0.2587704,0.351496 -0.4234816,0.794064 -0.4248743,1.141533 -7.844e-4,0.157378 0.072379,0.448869 0.1509856,0.602957 0.2521122,0.494196 0.8502159,0.64382 1.3073387,0.327028 0.1144441,-0.07932 0.3325609,-0.363388 0.3994566,-0.520291 0.049031,-0.114946 0.044052,-0.218204 -0.011498,-0.239537 -0.097815,-0.03755 -0.1574946,-0.01471 -0.2182067,0.08353 -0.1496513,0.242142 -0.3712016,0.358241 -0.641006,0.335844 -0.2050115,-0.01699 -0.3482984,-0.128055 -0.4697857,-0.36413 -0.078405,-0.152343 -0.088762,-0.202167 -0.088762,-0.427445 0,-0.235397 0.00862,-0.272409 0.1119286,-0.48165 0.1295645,-0.262317 0.4147578,-0.574078 0.6776404,-0.740743 0.1861623,-0.118022 0.2394187,-0.191399 0.225631,-0.31096 -0.012795,-0.110598 -0.1442958,-0.120035 -0.3132405,-0.02244 M 12.739686,12.991 c -0.166461,0.08692 -0.16856,0.09107 -0.29558,0.586478 -0.121925,0.475522 -0.244892,1.303169 -0.259332,1.745645 l -0.0073,0.221904 0.08661,-0.0063 c 0.128199,-0.0094 0.159536,-0.0589 0.197168,-0.311936 0.01876,-0.126044 0.04311,-0.229155 0.05415,-0.229155 0.01102,0 0.09722,0.09267 0.191576,0.205898 0.241903,0.290428 0.627901,0.652133 0.695891,0.652133 0.07078,0 0.180006,-0.133411 0.180006,-0.219804 0,-0.04177 -0.05036,-0.102311 -0.14539,-0.174771 -0.07995,-0.06098 -0.196015,-0.173559 -0.25788,-0.250189 -0.06187,-0.07661 -0.120244,-0.145956 -0.129711,-0.15409 -0.0095,-0.0082 -0.04887,-0.06006 -0.08755,-0.115362 l -0.0703,-0.100592 0.07172,-0.0566 c 0.165394,-0.130479 0.385109,-0.36395 0.400584,-0.425643 0.04494,-0.17906 -0.09353,-0.244684 -0.277056,-0.131335 -0.07577,0.0468 -0.09616,0.0793 -0.09616,0.153172 0,0.103612 -0.137759,0.257082 -0.335428,0.373747 l -0.108374,0.06394 v -0.109961 c 2.6e-5,-0.316764 0.270721,-1.2945 0.462148,-1.669195 0.02245,-0.04397 0.04084,-0.08722 0.04084,-0.09616 0,-0.03955 -0.202994,-0.008 -0.310662,0.04817 m 5.251726,0.07702 c 0,0.132222 -0.0063,0.143879 -0.09616,0.178675 l -0.09616,0.03723 0.08308,0.07288 c 0.09696,0.08504 0.08716,0.111779 -0.0703,0.192138 -0.064,0.03265 -0.116339,0.07214 -0.116339,0.08775 0,0.04631 0.152199,0.07071 0.211164,0.03386 0.07985,-0.04986 0.08471,-0.04504 0.08471,0.08444 0,0.130834 -0.03857,0.150394 -0.113647,0.05764 -0.04829,-0.05964 -0.05112,-0.05778 -0.157342,0.103502 -0.05947,0.09033 -0.09835,0.170274 -0.08636,0.177698 0.01197,0.0074 0.07078,-0.02695 0.130688,-0.07633 l 0.108881,-0.08977 0.199447,0.114412 c 0.237763,0.13643 0.486026,0.245427 0.55896,0.245427 0.02899,0 0.11045,-0.02205 0.181073,-0.04903 0.154655,-0.05906 0.124327,-0.08891 -0.118496,-0.116633 -0.192672,-0.02201 -0.338211,-0.09802 -0.190866,-0.09968 0.123938,-0.0015 0.204861,-0.0527 0.172997,-0.109652 -0.01679,-0.02998 -0.01047,-0.07808 0.01749,-0.13424 0.03214,-0.06437 0.03492,-0.09625 0.01058,-0.120537 -0.04696,-0.04696 -0.04139,-0.09471 0.02892,-0.249095 0.06642,-0.145834 0.04811,-0.257377 -0.04834,-0.29439 -0.05818,-0.02233 -0.398218,0.0482 -0.398218,0.08258 0,0.01404 0.02515,0.05068 0.0559,0.08142 0.0545,0.05451 0.05453,0.059 0.0015,0.177522 -0.02994,0.0669 -0.04271,0.121636 -0.02845,0.121636 0.04657,0 0.121632,-0.09406 0.168438,-0.211047 0.03026,-0.07563 0.0645,-0.114415 0.101011,-0.114415 0.04785,0 0.05118,0.01091 0.02503,0.08136 -0.0166,0.04474 -0.05059,0.09693 -0.07557,0.115924 -0.03543,0.02699 -0.03833,0.04778 -0.01306,0.09492 0.02919,0.05451 0.02083,0.06344 -0.08592,0.09219 -0.146842,0.03953 -0.191015,0.112581 -0.152492,0.252176 0.02433,0.08805 0.02127,0.102963 -0.02092,0.102158 -0.129743,-0.0023 -0.205012,-0.15607 -0.09376,-0.191369 0.03253,-0.01036 0.05918,-0.03739 0.05918,-0.06012 0,-0.02275 -0.02664,-0.0556 -0.05918,-0.07301 -0.08093,-0.04332 -0.0742,-0.102455 0.0193,-0.170569 0.08465,-0.06166 0.07396,-0.1253 -0.02103,-0.1253 -0.08089,0 -0.07139,-0.05409 0.01651,-0.09414 0.08077,-0.0368 0.100713,-0.112965 0.02958,-0.112965 -0.0508,0 -0.05538,-0.02555 -0.01581,-0.08808 0.0372,-0.05883 -0.04541,-0.148619 -0.136692,-0.148619 -0.06312,0 -0.06939,0.0128 -0.06939,0.141459 m -4.157003,0.189771 c -0.08074,0.04581 -0.102577,0.0837 -0.103117,0.179149 -3.92e-4,0.0705 0.01126,0.08136 0.08694,0.08136 0.133348,0 0.23184,-0.05788 0.266193,-0.156427 0.01711,-0.04901 0.03108,-0.100416 0.03108,-0.114267 0,-0.03673 -0.211848,-0.02908 -0.281082,0.01014 m 4.60217,0.510348 c -0.03953,0.04763 -0.02322,0.134801 0.02519,0.134801 0.04476,0 0.125214,-0.09207 0.112874,-0.129177 -0.01746,-0.0524 -0.09655,-0.05562 -0.138052,-0.0056 m -1.931305,0.0872 c -0.351112,0.06261 -0.556563,0.276698 -0.600943,0.626182 -0.05903,0.464963 0.219152,0.649352 0.714352,0.473545 0.123553,-0.04388 0.233353,-0.0711 0.243946,-0.0605 0.01058,0.01058 0.01927,0.128024 0.01927,0.260897 0,0.201846 -0.01185,0.26235 -0.07201,0.367384 -0.08293,0.144829 -0.256017,0.244095 -0.425522,0.244095 -0.08861,0 -0.109003,0.01091 -0.109003,0.05813 0,0.166516 0.349868,0.15474 0.584791,-0.01965 0.211227,-0.156844 0.325697,-0.572722 0.270726,-0.983509 -0.03092,-0.231135 -0.07858,-0.415968 -0.10725,-0.415968 -0.009,0 -0.09755,0.08856 -0.196725,0.196757 -0.262023,0.285958 -0.508218,0.379131 -0.643728,0.243621 -0.08734,-0.08734 -0.06577,-0.308888 0.04411,-0.45298 0.113585,-0.148883 0.257555,-0.186017 0.538369,-0.138823 0.120628,0.02025 0.232942,0.02845 0.24957,0.01816 0.05364,-0.03316 0.147756,-0.246433 0.147756,-0.33484 0,-0.08142 -0.0078,-0.08678 -0.155334,-0.104472 -0.198913,-0.0239 -0.259983,-0.02122 -0.50236,0.02198 m -2.23052,0.572774 c -0.381525,0.399099 -0.415135,0.406379 -0.367203,0.07923 0.01652,-0.112724 0.03829,-0.234682 0.04834,-0.271015 0.01472,-0.05308 0.002,-0.07219 -0.06414,-0.09737 -0.121632,-0.04625 -0.247466,-0.0086 -0.283683,0.0848 -0.03241,0.08362 -0.143499,0.684649 -0.143499,0.776457 0,0.03001 0.02857,0.06986 0.06352,0.08855 0.115154,0.06159 0.268207,-0.01389 0.531208,-0.262055 0.133204,-0.125659 0.263562,-0.228472 0.289717,-0.228472 0.03634,0 0.04929,0.03489 0.05497,0.147937 0.02224,0.442385 0.07466,0.44999 0.430937,0.06258 0.251669,-0.273622 0.370758,-0.349632 0.447713,-0.285754 0.02045,0.01695 0.05439,0.170364 0.07541,0.340874 0.04305,0.348747 0.05941,0.368331 0.254717,0.304542 0.114679,-0.03743 0.115243,-0.03841 0.124147,-0.209626 0.01069,-0.205631 -0.06273,-0.621211 -0.127047,-0.719413 -0.02876,-0.04387 -0.07465,-0.07015 -0.122519,-0.07015 -0.101992,0 -0.378539,0.151516 -0.542869,0.297408 -0.152252,0.135158 -0.172374,0.120391 -0.176011,-0.129236 -0.0023,-0.164978 -0.04264,-0.256934 -0.112372,-0.256934 -0.02699,0 -0.198592,0.15646 -0.381352,0.347651 m -2.289188,-0.251493 c -0.01538,0.03664 -0.06911,0.175867 -0.119415,0.309483 -0.104208,0.276819 -0.175807,0.381704 -0.242998,0.355906 -0.02519,-0.0097 -0.123794,-0.110689 -0.219094,-0.22454 -0.1038,-0.123912 -0.197082,-0.207881 -0.232588,-0.209242 -0.03394,-0.0012 -0.158557,0.08699 -0.291549,0.206609 -0.214005,0.192495 -0.236284,0.205305 -0.283239,0.162788 -0.02801,-0.02535 -0.08844,-0.153795 -0.134267,-0.285397 -0.0458,-0.131634 -0.101216,-0.246195 -0.123111,-0.254596 -0.05051,-0.01939 -0.304513,0.127784 -0.328507,0.190301 -0.027306,0.07115 0.109238,0.440377 0.234597,0.634321 0.154799,0.239508 0.209978,0.235663 0.503721,-0.035 0.123613,-0.113911 0.233769,-0.207111 0.244744,-0.207111 0.01102,0 0.12202,0.106577 0.246761,0.236818 0.243353,0.254093 0.309449,0.281552 0.409127,0.170007 0.189007,-0.21152 0.55136,-1.00129 0.498606,-1.086679 -0.03363,-0.05435 -0.134118,-0.03194 -0.162788,0.03634 m -2.8863974,0.107438 c -0.4392229,0.199505 -0.4489577,0.830631 -0.016319,1.059013 0.2477329,0.130778 0.5613304,0.06779 0.7237022,-0.14539 0.1613408,-0.211816 0.1675828,-0.553075 0.014047,-0.768677 -0.1322251,-0.185976 -0.478098,-0.255473 -0.7212765,-0.144996 m 9.4648817,0.275666 c -0.01346,0.02122 -0.02465,0.04822 -0.02491,0.06005 -0.0012,0.0556 -0.152316,0.258622 -0.213203,0.286343 -0.08397,0.03826 -0.08933,0.12122 -0.0091,0.142168 0.08483,0.02221 0.07296,0.08782 -0.02158,0.119325 l -0.08074,0.02692 0.08074,0.05293 c 0.09365,0.06133 0.101573,0.09237 0.02899,0.11326 -0.02845,0.0082 -0.0751,0.02449 -0.103557,0.03622 -0.03949,0.01625 -0.05177,0.0067 -0.05177,-0.04 0,-0.06486 -0.103348,-0.141161 -0.130892,-0.0966 -0.02319,0.03755 -0.135393,0.0624 -0.135393,0.02998 0,-0.01499 0.04577,-0.04912 0.101727,-0.0758 0.08435,-0.04024 0.105068,-0.06921 0.121217,-0.169654 0.01127,-0.07 0.04565,-0.141753 0.08153,-0.169977 l 0.06208,-0.04885 -0.08125,-0.106478 c -0.0868,-0.113852 -0.153588,-0.129445 -0.291703,-0.06816 -0.0793,0.03519 -0.07965,0.03661 -0.0268,0.10574 0.04569,0.0598 0.06291,0.06507 0.11734,0.03594 0.03949,-0.02115 0.06379,-0.02287 0.06379,-0.0045 0,0.04441 -0.107525,0.09314 -0.160599,0.07276 -0.02558,-0.0098 -0.0465,-0.0028 -0.0465,0.01539 0,0.01829 -0.0466,0.05544 -0.103557,0.0826 -0.05695,0.02715 -0.103558,0.05861 -0.103558,0.06988 0,0.04157 0.08942,0.093 0.132761,0.07634 0.08631,-0.03312 0.04494,0.0647 -0.044,0.104054 -0.104175,0.04613 -0.110094,0.0702 -0.02959,0.120478 0.07438,0.04645 0.07401,0.06675 -0.0032,0.175186 -0.07462,0.104792 -0.05516,0.139473 0.04243,0.07554 0.0616,-0.04032 0.07616,-0.04081 0.113377,-0.0035 0.05883,0.05878 0.224419,0.02378 0.248651,-0.05258 0.01271,-0.04012 0.03335,-0.05142 0.06743,-0.03693 0.02699,0.01146 0.08571,0.01891 0.13048,0.01645 0.07016,-0.0039 0.08142,0.0068 0.08169,0.07743 7.86e-4,0.15483 0.03708,0.303739 0.07436,0.303739 0.05405,0 0.07326,-0.07041 0.07326,-0.268708 0,-0.187939 0.0039,-0.191636 0.18223,-0.178029 0.04325,0.0032 0.08859,-0.01003 0.10068,-0.02963 0.03555,-0.05758 -0.07858,-0.121482 -0.186753,-0.104561 -0.08527,0.01335 -0.09616,0.0073 -0.09616,-0.05391 0,-0.03791 0.01997,-0.07661 0.04439,-0.08598 0.0244,-0.0094 0.04439,-0.03076 0.04439,-0.04755 0,-0.01679 -0.01997,-0.03049 -0.04439,-0.03049 -0.06642,0 -0.05349,-0.0751 0.02221,-0.128734 0.06542,-0.04636 0.06556,-0.04796 0.0091,-0.09231 -0.05598,-0.04406 -0.0553,-0.04728 0.02876,-0.13504 0.06767,-0.07062 0.0795,-0.10036 0.05523,-0.13882 -0.04151,-0.06584 -0.08988,-0.0787 -0.119618,-0.03182 m -9.3233997,0.09033 c -0.2051571,0.219004 -0.1240574,0.515941 0.1493259,0.546741 0.1844469,0.0208 0.289631,-0.07314 0.3091274,-0.276137 0.01236,-0.12838 0.00389,-0.15986 -0.065591,-0.242349 -0.066657,-0.07924 -0.1004203,-0.09483 -0.2051608,-0.09483 -0.091775,0 -0.1420473,0.01781 -0.1876996,0.06658 m 9.0465468,0.06482 c 0,0.08476 0.0552,0.130006 0.09,0.07371 0.02676,-0.04329 -0.01648,-0.145924 -0.06145,-0.145924 -0.0157,0 -0.02857,0.03248 -0.02857,0.07222 m -0.318062,0.274541 c -0.04441,0.01585 -0.04982,0.09704 -0.0065,0.09704 0.03052,0 0.07536,-0.0829 0.05453,-0.100779 -0.0062,-0.0052 -0.02771,-0.0035 -0.04805,0.0039 m -0.0325,0.389519 c -0.04492,0.02845 -0.03625,0.12598 0.01259,0.142254 0.02618,0.0087 0.101243,-0.106279 0.101243,-0.155038 0,-0.02221 -0.07125,-0.01421 -0.113852,0.01279"
     stroke="none"
     fill="#d13018"
     fill-rule="evenodd"
     id="path133"
     style="stroke-width:0.0295872" /></svg>
