<?xml version="1.0" encoding="UTF-8" standalone="no"?>
<svg
   viewBox="0 0 30 30"
   width="30pt"
   height="30pt"
   version="1.1"
   id="svg133"
   xml:space="preserve"
   xmlns="http://www.w3.org/2000/svg"
   xmlns:svg="http://www.w3.org/2000/svg"><defs
     id="defs137" /><path
     d="m 7.1441601,10.111998 c -0.884217,0.201614 -1.424354,1.103933 -1.192856,1.992718 0.253751,0.974206 1.35686,1.462923 2.299946,1.01896 0.200996,-0.09462 0.536973,-0.365379 0.600345,-0.483806 0.02617,-0.04891 -0.02071,-0.09524 -0.273914,-0.27072 -0.168025,-0.116435 -0.31554,-0.211712 -0.327802,-0.211712 -0.01226,0 -0.09167,0.06107 -0.17644,0.135669 -0.192443,0.169398 -0.34082,0.219509 -0.595396,0.201099 -0.25238,-0.01824 -0.440908,-0.137317 -0.572868,-0.361772 -0.08514,-0.144874 -0.09634,-0.197802 -0.09634,-0.455847 0,-0.258046 0.01121,-0.310974 0.09634,-0.455848 0.053,-0.09016 0.160124,-0.206079 0.238055,-0.257599 0.123202,-0.08144 0.17572,-0.09363 0.401683,-0.09325 0.278379,4.85e-4 0.359336,0.03325 0.574344,0.232492 l 0.108259,0.10036 0.310496,-0.235342 c 0.170768,-0.129452 0.311349,-0.246402 0.31245,-0.2599 0.0036,-0.04675 -0.21532,-0.271819 -0.364555,-0.374481 -0.331993,-0.228405 -0.899363,-0.321862 -1.341747,-0.22102 m 6.2141819,1.092323 0.01068,1.142023 0.10692,0.223253 c 0.199692,0.416967 0.508777,0.625451 1.030741,0.695277 0.774652,0.103658 1.405458,-0.189318 1.634104,-0.758921 0.07443,-0.185368 0.07835,-0.243689 0.08913,-1.318805 l 0.01129,-1.124849 h -0.431461 -0.431461 l -2.31e-4,0.953116 c -8.9e-5,0.569604 -0.01493,1.006251 -0.03685,1.085146 -0.02015,0.07264 -0.08789,0.187944 -0.150472,0.256259 -0.106439,0.11616 -0.129178,0.125021 -0.349547,0.136184 -0.289002,0.01466 -0.439507,-0.0554 -0.543097,-0.252859 -0.06564,-0.125159 -0.0711,-0.203297 -0.08044,-1.156037 L 14.207618,10.0623 h -0.429984 -0.429985 l 0.01068,1.142022 m 4.739034,-1.09119 c -0.267869,0.06042 -0.478311,0.180423 -0.632695,0.360811 -0.143878,0.168058 -0.197322,0.33615 -0.197322,0.62047 0,0.503418 0.267902,0.728972 1.116504,0.939997 0.484731,0.120556 0.598455,0.196977 0.554388,0.37266 -0.06368,0.253649 -0.807524,0.18578 -1.217347,-0.111077 l -0.137523,-0.09964 -0.23026,0.272815 c -0.126637,0.15006 -0.222634,0.292014 -0.213394,0.315438 0.0093,0.02342 0.10376,0.0948 0.209927,0.158578 0.756036,0.454233 1.806045,0.43785 2.243,-0.03503 0.132199,-0.143053 0.225041,-0.40158 0.225587,-0.628164 0.0012,-0.526326 -0.314339,-0.796703 -1.146314,-0.982037 -0.47079,-0.10486 -0.577848,-0.176301 -0.532887,-0.355555 0.05276,-0.210201 0.490503,-0.206629 0.920039,0.0075 l 0.263302,0.131273 0.208726,-0.30122 0.208722,-0.301185 -0.09421,-0.06636 c -0.391389,-0.275749 -1.070659,-0.407055 -1.54825,-0.299276 m -8.386257,1.561017 v 1.548033 h 0.429329 0.429333 v -0.463678 -0.463679 h 0.201238 0.201234 l 0.305375,0.462992 0.305378,0.462957 0.489436,7.28e-4 c 0.269208,3.8e-4 0.48944,-0.0081 0.48944,-0.01892 0,-0.01075 -0.154559,-0.241526 -0.343466,-0.51276 -0.188908,-0.271235 -0.343466,-0.507402 -0.343466,-0.524816 0,-0.01741 0.07718,-0.07962 0.171492,-0.138244 0.398143,-0.247501 0.551812,-0.82339 0.345493,-1.294693 -0.08717,-0.199142 -0.367888,-0.446162 -0.590041,-0.519183 -0.153701,-0.05056 -0.343741,-0.06285 -1.137661,-0.07371 l -0.953114,-0.01302 v 1.547999 m 10.853509,-1.165344 v 0.377812 h 0.463679 0.463678 v 1.167783 1.167783 h 0.437918 l 0.437918,3.4e-5 -0.0095,-1.167817 -0.0094,-1.167783 h 0.481709 0.481745 v -0.377812 -0.377812 h -1.373859 -1.373864 v 0.377812 m 3.01391,-0.355075 c 0.02363,0.0095 0.04293,0.07014 0.04293,0.134673 0,0.06457 0.01545,0.117362 0.03434,0.117362 0.01889,0 0.03435,-0.05296 0.03435,-0.117706 0,-0.08319 0.01764,-0.122273 0.06011,-0.133401 0.03305,-0.0086 -0.0016,-0.01628 -0.07728,-0.01697 -0.07556,-6.87e-4 -0.118049,0.0065 -0.09445,0.01604 m 0.249014,0.114649 c 0,0.07556 0.01545,0.137387 0.03434,0.137387 0.01889,0 0.03435,-0.02761 0.03435,-0.06134 0,-0.03843 0.02565,-0.06131 0.06869,-0.06131 0.04303,0 0.06869,0.02288 0.06869,0.06131 0,0.03373 0.01545,0.06134 0.03435,0.06134 0.01889,0 0.03435,-0.06182 0.03435,-0.137387 0,-0.141302 -0.04232,-0.17843 -0.09531,-0.0837 -0.02727,0.0487 -0.03422,0.0487 -0.07463,0 -0.07278,-0.08769 -0.104824,-0.0621 -0.104824,0.0837 m -5.55961,0.173725 c -0.22837,0.04589 -0.442622,0.163318 -0.546419,0.299399 -0.07879,0.10328 -0.09352,0.156483 -0.09352,0.337661 0,0.191138 0.01125,0.226825 0.100771,0.320282 0.120249,0.125502 0.34436,0.213944 0.837715,0.330516 0.681159,0.160948 0.852651,0.286554 0.822291,0.602336 -0.02015,0.209445 -0.102009,0.328868 -0.304104,0.44338 -0.135946,0.07707 -0.188495,0.08563 -0.512143,0.08367 -0.342677,-0.0021 -0.513036,-0.04097 -0.858663,-0.196188 -0.0094,-0.0042 -0.02237,0.0075 -0.02868,0.02611 -0.02302,0.0677 0.51393,0.2305 0.821809,0.24915 0.323376,0.01961 0.482295,-0.01467 0.691673,-0.149202 0.238912,-0.15346 0.339756,-0.514648 0.206768,-0.740374 -0.08202,-0.139172 -0.382003,-0.273673 -0.867251,-0.388768 -0.70122,-0.166341 -0.858667,-0.270308 -0.858667,-0.566925 0,-0.22284 0.104484,-0.370393 0.348826,-0.492598 0.250248,-0.125159 0.623116,-0.135291 0.948308,-0.02576 0.243173,0.08192 0.248464,0.08274 0.248464,0.03843 0,-0.04541 -0.388495,-0.160261 -0.618241,-0.182758 -0.103897,-0.0102 -0.256429,-0.0049 -0.338931,0.01164 m -11.0385009,0.03531 c -0.175889,0.04146 -0.445405,0.181762 -0.585643,0.304895 -0.268351,0.235583 -0.43778,0.761737 -0.36682,1.138863 0.139376,0.740408 0.837882,1.171801 1.579426,0.975407 0.237986,-0.06306 0.446506,-0.155727 0.446506,-0.198488 0,-0.01803 -0.02702,-0.02143 -0.06011,-0.0076 -0.370809,0.155727 -0.4124,0.165069 -0.747038,0.167989 -0.312487,0.0028 -0.359818,-0.0056 -0.524955,-0.0926 -0.481846,-0.25389 -0.728385,-0.752739 -0.626926,-1.268522 0.08288,-0.421226 0.299262,-0.703245 0.66914,-0.872162 0.355072,-0.16215 0.889573,-0.142263 1.173382,0.04372 0.04396,0.02882 0.09864,0.04616 0.121483,0.03854 0.06866,-0.02287 -0.183721,-0.158097 -0.400587,-0.214597 -0.220502,-0.05743 -0.475252,-0.06327 -0.677862,-0.01549 m 6.5410259,0.864297 c 0.0099,0.800549 0.01634,0.879478 0.08412,1.026 0.181282,0.392066 0.489473,0.579701 0.952156,0.579701 0.339101,0 0.548616,-0.07683 0.744943,-0.273124 0.261478,-0.26148 0.283841,-0.362321 0.299363,-1.34975 0.0093,-0.592581 0.002,-0.850077 -0.02359,-0.850077 -0.02532,0 -0.03697,0.241628 -0.03697,0.765584 0,0.574 -0.01307,0.815696 -0.05217,0.965928 -0.117846,0.452344 -0.430741,0.68202 -0.92523,0.679169 -0.437129,-0.0025 -0.705342,-0.151125 -0.867044,-0.48044 l -0.09613,-0.195741 -0.01072,-0.86725 c -0.0068,-0.548102 -0.02338,-0.86725 -0.0451,-0.86725 -0.02225,0 -0.03058,0.304825 -0.02359,0.86725 m 7.137628,-0.832904 c 0,0.02133 0.188903,0.03435 0.498024,0.03435 h 0.498024 v 1.184956 c 0,0.767061 0.01214,1.184956 0.03435,1.184956 0.02221,0 0.03435,-0.417895 0.03435,-1.184956 v -1.184956 h 0.50005 c 0.324611,0 0.4926,-0.01206 0.478825,-0.03435 -0.02905,-0.04699 -2.043618,-0.04699 -2.043618,0 m -10.784819,1.204156 c 0,0.794023 0.01173,1.196943 0.03435,1.18293 0.01978,-0.01223 0.03435,-0.194986 0.03435,-0.431359 V 12.05436 h 0.531681 0.531722 l 0.28037,0.420745 c 0.329453,0.494384 0.299226,0.454989 0.327495,0.426722 0.01246,-0.01247 -0.09573,-0.200378 -0.240426,-0.41762 -0.144667,-0.217276 -0.262784,-0.406697 -0.262477,-0.42102 3.2e-4,-0.01429 0.08147,-0.06096 0.180319,-0.103727 0.349478,-0.151159 0.540376,-0.414803 0.540376,-0.746316 0,-0.254164 -0.0678,-0.403675 -0.239536,-0.528044 -0.199656,-0.144633 -0.397698,-0.176335 -1.101665,-0.176335 h -0.616554 v 1.204156 m 0.06145,-0.431324 -0.0099,0.704138 0.583892,-3.75e-4 c 0.539444,-3.43e-4 0.596942,-0.0065 0.755622,-0.08058 0.379013,-0.176988 0.518737,-0.399725 0.491017,-0.782861 -0.01444,-0.199897 -0.02472,-0.221776 -0.160363,-0.342161 -0.192993,-0.171254 -0.357172,-0.202303 -1.069448,-0.202303 h -0.580837 l -0.01,0.704139 m 0.40797,-0.406457 c -0.01262,0.01257 -0.0229,0.182586 -0.0229,0.377812 v 0.354903 h 0.379531 c 0.528522,0 0.661203,-0.07852 0.656911,-0.388735 -0.0024,-0.176782 -0.115852,-0.295552 -0.319837,-0.334947 -0.180489,-0.03486 -0.661616,-0.04115 -0.693696,-0.009"
     stroke="none"
     fill="#232523"
     fill-rule="evenodd"
     id="path129"
     style="stroke-width:0.0343465" /></svg>
