<?xml version="1.0" encoding="UTF-8" standalone="no"?>
<!-- Generator: Adobe Illustrator 19.2.1, SVG Export Plug-In . SVG Version: 6.00 Build 0)  -->

<svg
   version="1.1"
   id="layer"
   x="0px"
   y="0px"
   viewBox="0 0 425104 425104"
   xml:space="preserve"
   sodipodi:docname="dunkin-donuts-logo-vector.svg"
   inkscape:export-filename="..\Documents\GitHub\MapIcons\brands_2023\fast_food\dunkin-donuts-logo-vector.svg"
   inkscape:export-xdpi="2.9447854"
   inkscape:export-ydpi="2.9447854"
   width="425104"
   height="425104"
   xmlns:inkscape="http://www.inkscape.org/namespaces/inkscape"
   xmlns:sodipodi="http://sodipodi.sourceforge.net/DTD/sodipodi-0.dtd"
   xmlns="http://www.w3.org/2000/svg"
   xmlns:svg="http://www.w3.org/2000/svg"><defs
   id="defs95" /><sodipodi:namedview
   id="namedview93"
   pagecolor="#ffffff"
   bordercolor="#000000"
   borderopacity="0.25"
   inkscape:showpageshadow="2"
   inkscape:pageopacity="0.0"
   inkscape:pagecheckerboard="0"
   inkscape:deskcolor="#d1d1d1"
   showgrid="false" />
<style
   type="text/css"
   id="style2">
	.st0{fill:none;stroke:#FFFFFF;stroke-width:22.9218;stroke-linejoin:round;}
	.st1{fill:#FFFFFF;}
	.st2{fill:#572B0E;}
	.st3{fill:#E9559F;}
	.st4{fill:#F58023;}
</style>
<path
   class="st0"
   d="m 29.009138,224.54436 c 0.290829,0.63732 0.651737,1.30297 0.977605,1.94383 0.112127,0.22306 0.196223,0.48153 0.332877,0.64086 0.420476,0.47445 1.412097,0.15579 1.755486,-0.13454 0.0841,-0.0708 0.182206,-0.18766 0.224254,-0.29388 0.115631,-0.30096 -0.05256,-0.66919 -0.136655,-0.9489 -0.227758,-0.74708 -0.437996,-1.47292 -0.655242,-2.19167 0,-0.007 0,-0.0142 -0.01054,-0.0142 -0.658746,0.50632 -1.527728,0.79666 -2.487813,0.99847 z m -0.704297,-0.83559 c 0.05256,0.13454 0.16819,0.49923 0.27331,0.59129 0.224252,0.19119 0.676264,0.0319 0.988117,-0.0602 0.637722,-0.18412 1.391074,-0.45675 1.804541,-0.81082 0.09461,-0.0814 0.245277,-0.25138 0.248781,-0.36823 0,-0.13808 -0.157678,-0.38593 -0.224253,-0.55234 -0.09111,-0.23014 -0.154175,-0.46737 -0.234766,-0.60191 -0.273309,0.3399 -0.777879,0.59837 -1.261427,0.80019 -0.550122,0.23014 -1.208866,0.44258 -1.843084,0.39301 0.105115,0.20182 0.164686,0.4001 0.248781,0.609 z"
   id="path4" />
<path
   class="st1"
   d="m 34.307131,223.44322 c 0.234765,-0.0212 0.423979,0.007 0.571145,-0.11685 0.437995,-0.36469 0.105115,-1.1578 -0.560634,-1.00555 -0.02803,0.34699 -0.0035,0.75417 -0.01054,1.1224"
   id="path6"
   style="stroke-width:0.0352228" />
<path
   class="st0"
   d="m 34.307131,223.44322 c 0.234765,-0.0212 0.423979,0.007 0.571145,-0.11685 0.437995,-0.36469 0.105115,-1.1578 -0.560634,-1.00555 -0.02803,0.34699 -0.0035,0.75417 -0.01054,1.1224 z"
   id="path8" />
<path
   class="st1"
   d="m 28.03854,223.15642 c 0.648234,0.0496 1.320995,-0.17349 1.881628,-0.42488 0.494059,-0.21598 1.012646,-0.49215 1.289459,-0.86038 0.0841,0.14517 0.147166,0.40009 0.241773,0.64794 0.06657,0.18058 0.227757,0.44613 0.227757,0.59483 0,0.12393 -0.154174,0.30804 -0.252284,0.39656 -0.42398,0.38239 -1.194852,0.67273 -1.846589,0.871 -0.322365,0.0991 -0.784888,0.27263 -1.009141,0.0673 -0.108623,-0.0956 -0.224254,-0.49216 -0.276814,-0.63378 -0.09111,-0.22307 -0.147166,-0.43551 -0.255789,-0.65857"
   id="path10"
   style="stroke-width:0.0352228" />
<path
   class="st0"
   d="m 28.03854,223.15642 c 0.648234,0.0496 1.320995,-0.17349 1.881628,-0.42488 0.494059,-0.21598 1.012646,-0.49215 1.289459,-0.86038 0.0841,0.14517 0.147166,0.40009 0.241773,0.64794 0.06657,0.18058 0.227757,0.44613 0.227757,0.59483 0,0.12393 -0.154174,0.30804 -0.252284,0.39656 -0.42398,0.38239 -1.194852,0.67273 -1.846589,0.871 -0.322365,0.0991 -0.784888,0.27263 -1.009141,0.0673 -0.108623,-0.0956 -0.224254,-0.49216 -0.276814,-0.63378 -0.09111,-0.22307 -0.147166,-0.43551 -0.255789,-0.65857 z"
   id="path12" />
<path
   class="st0"
   d="m 31.482936,223.43967 c 0.01054,-0.004 0.01054,0.004 0.01402,0.0142 0.22075,0.74 0.441499,1.49062 0.672761,2.25894 0.0876,0.2868 0.259293,0.66919 0.140158,0.97723 -0.04205,0.10976 -0.143662,0.23014 -0.227757,0.3045 -0.3539,0.30095 -1.373554,0.63024 -1.804541,0.13808 -0.143663,-0.16287 -0.227758,-0.43196 -0.343389,-0.65856 -0.332876,-0.66211 -0.704296,-1.349 -1.005637,-2.00402 0.988118,-0.21244 1.878124,-0.5134 2.55439,-1.03034 z"
   id="path14" />
<path
   class="st1"
   d="m 30.848719,224.69661 c 0.04205,0.14871 0.115631,0.26201 0.157678,0.40718 0.332877,-0.0283 0.171694,-0.60546 -0.157678,-0.40718"
   id="path16"
   style="stroke-width:0.0352228" />
<path
   class="st0"
   d="m 30.848719,224.69661 c 0.04205,0.14871 0.115631,0.26201 0.157678,0.40718 0.332877,-0.0283 0.171694,-0.60546 -0.157678,-0.40718 z"
   id="path18" />
<path
   class="st1"
   d="m 36.801952,225.81192 c -0.03153,0.42134 0.3539,0.71522 0.732328,0.61254 0.210239,-0.0566 0.392444,-0.24785 0.42398,-0.45675 0.06307,-0.41426 -0.262797,-0.71521 -0.616697,-0.67627 -0.315357,0.0354 -0.515083,0.20182 -0.539611,0.52048"
   id="path20"
   style="stroke-width:0.0352228" />
<path
   class="st0"
   d="m 36.801952,225.81192 c -0.03153,0.42134 0.3539,0.71522 0.732328,0.61254 0.210239,-0.0566 0.392444,-0.24785 0.42398,-0.45675 0.06307,-0.41426 -0.262797,-0.71521 -0.616697,-0.67627 -0.315357,0.0354 -0.515083,0.20182 -0.539611,0.52048 z"
   id="path22" />
<path
   class="st1"
   d="m 35.109538,225.91814 c 0.03854,-0.44258 -0.392444,-0.71521 -0.7954,-0.61253 0.01054,0.33282 0.01402,0.70105 0,1.12239 0.448507,0.0389 0.763864,-0.13455 0.7954,-0.50986"
   id="path24"
   style="stroke-width:0.0352228" />
<path
   class="st0"
   d="m 35.109538,225.91814 c 0.03854,-0.44258 -0.392444,-0.71521 -0.7954,-0.61253 0.01054,0.33282 0.01402,0.70105 0,1.12239 0.448507,0.0389 0.763864,-0.13455 0.7954,-0.50986 z"
   id="path26" />
<path
   class="st1"
   d="m 30.060327,224.99757 c 0.06657,0.1133 0.13315,0.23368 0.18571,0.36115 0.09461,-0.0106 0.140158,-0.0708 0.185709,-0.12393 0.07008,-0.27263 -0.220749,-0.37885 -0.371419,-0.23722"
   id="path28"
   style="stroke-width:0.0352228" />
<path
   class="st0"
   d="m 30.060327,224.99757 c 0.06657,0.1133 0.13315,0.23368 0.18571,0.36115 0.09461,-0.0106 0.140158,-0.0708 0.185709,-0.12393 0.07008,-0.27263 -0.220749,-0.37885 -0.371419,-0.23722 z"
   id="path30" />
<path
   class="st1"
   d="m 30.992381,225.21001 c -0.07008,-0.2089 -0.189214,-0.37177 -0.255789,-0.58421 0.532602,-0.28325 0.798903,0.54172 0.255789,0.58421"
   id="path32"
   style="stroke-width:0.0352228" />
<path
   class="st0"
   d="m 30.992381,225.21001 c -0.07008,-0.2089 -0.189214,-0.37177 -0.255789,-0.58421 0.532602,-0.28325 0.798903,0.54172 0.255789,0.58421 z"
   id="path34" />
<path
   class="st1"
   d="m 30.52285,225.28082 c -0.07358,0.0814 -0.140158,0.1735 -0.287325,0.18412 -0.0841,-0.18766 -0.18571,-0.36115 -0.287325,-0.5311 0.231262,-0.20536 0.679769,-0.0496 0.57465,0.34698"
   id="path36"
   style="stroke-width:0.0352228" />
<path
   class="st0"
   d="m 30.52285,225.28082 c -0.07358,0.0814 -0.140158,0.1735 -0.287325,0.18412 -0.0841,-0.18766 -0.18571,-0.36115 -0.287325,-0.5311 0.231262,-0.20536 0.679769,-0.0496 0.57465,0.34698 z"
   id="path38" />
<path
   class="st2"
   d="m 29.636347,219.70073 c 0.374924,-0.0106 0.658746,0.24076 0.637721,0.67981 -0.01402,0.26201 -0.266301,0.44612 -0.52209,0.39655 -0.238269,-0.046 -0.378428,-0.4355 -0.126142,-0.56296 0.08059,-0.0389 0.206733,-0.0637 0.220749,0.0354 0.01752,0.12393 -0.16819,0.10268 -0.18571,0.17704 -0.04205,0.18765 0.217245,0.18057 0.311853,0.12746 0.04906,-0.0283 0.09812,-0.0496 0.115631,-0.10622 0.05607,-0.15579 -0.04906,-0.46029 -0.175198,-0.52756 -0.367917,-0.1912 -0.861976,0.12038 -0.823432,0.56297 0.03153,0.34344 0.630713,0.53464 0.497562,1.04095 -0.02102,0.0744 -0.03504,0.14163 -0.126142,0.10622 -0.0876,-0.0319 -0.01402,-0.25138 -0.04555,-0.35052 -0.10161,-0.31512 -0.47654,-0.40364 -0.497564,-0.80728 -0.02102,-0.42842 0.322366,-0.76124 0.718313,-0.77186"
   id="path40"
   style="stroke-width:0.0352228" />
<path
   class="st2"
   d="m 28.238266,221.44274 c -0.0841,-0.26909 0.357404,-0.23015 0.452012,-0.0602 0.09811,0.18765 0.01402,0.44612 -0.04555,0.51339 -0.175198,0.19474 -0.567641,0.1133 -0.718312,-0.0354 -0.409964,-0.41426 -0.05956,-1.15426 0.578154,-1.08699 0.322364,0.0319 0.501066,0.3045 0.532603,0.65503 0.01054,0.1133 0.02803,0.35406 -0.09111,0.35052 -0.108622,-0.004 -0.07008,-0.17349 -0.08059,-0.32574 -0.02452,-0.3399 -0.273309,-0.65502 -0.683273,-0.45675 -0.273309,0.13455 -0.339885,0.58775 -0.105115,0.77187 0.105115,0.0814 0.357404,0.10622 0.441499,0.0106 0.0876,-0.0991 0.04906,-0.33282 -0.04555,-0.36115 -0.10161,-0.0283 -0.140159,0.0921 -0.234765,0.0248"
   id="path42"
   style="stroke-width:0.0352228" />
<path
   class="st3"
   d="m 31.328761,221.49939 c 0.357405,0.0496 0.875991,-0.0814 1.205364,0.0354 0.154174,0.0566 0.332876,0.21598 0.381932,0.41071 0.04205,0.15933 0.01054,0.40364 0.01054,0.61962 0,1.00909 0,2.10316 0,3.12287 0,0.37885 0.06307,1.01617 -0.03504,1.26402 -0.119135,0.3045 -0.455516,0.42134 -0.904023,0.37531 -0.04906,0 0,-0.0177 0.01054,-0.0248 0.38894,-0.21244 0.648234,-0.61961 0.55713,-1.15779 -0.07008,-0.39656 -0.245277,-0.84622 -0.381932,-1.31005 -0.0876,-0.3045 -0.182206,-0.64794 -0.276813,-0.98077 -0.03504,-0.11684 -0.09461,-0.25138 -0.09111,-0.32574 0,-0.1133 0.13315,-0.2266 0.140158,-0.3399 0.0035,-0.12747 -0.0841,-0.29742 -0.140158,-0.43196 -0.157679,-0.38948 -0.374924,-0.92412 -0.47654,-1.25694"
   id="path44"
   style="stroke-width:0.0352228" />
<path
   class="st2"
   d="m 29.082721,224.54082 c 0.27331,0.60546 0.60969,1.2357 0.914535,1.84823 0.105115,0.2089 0.182206,0.46029 0.311852,0.609 0.392444,0.44966 1.320995,0.1487 1.643359,-0.12747 0.07709,-0.0673 0.16819,-0.17703 0.206734,-0.27971 0.108623,-0.28325 -0.04906,-0.63732 -0.126143,-0.89933 -0.213742,-0.70813 -0.409964,-1.39856 -0.613194,-2.08191 0,-0.007 -0.0035,-0.0142 -0.01054,-0.0106 -0.616697,0.47091 -1.429617,0.75063 -2.326632,0.94182 m -0.658745,-0.79665 c 0.04906,0.12747 0.157679,0.47445 0.255789,0.56297 0.206734,0.18057 0.630714,0.0283 0.925047,-0.0602 0.595674,-0.17704 1.29997,-0.43196 1.68891,-0.77187 0.09111,-0.0779 0.231262,-0.24076 0.231262,-0.35052 0,-0.13101 -0.147167,-0.36823 -0.206734,-0.52756 -0.0841,-0.21953 -0.143663,-0.44613 -0.22075,-0.57359 -0.255789,0.3222 -0.728825,0.5665 -1.180835,0.76124 -0.515083,0.21952 -1.13178,0.4178 -1.72395,0.37531 0.09812,0.19828 0.15067,0.38593 0.231261,0.58421 m 0.763864,-1.64641 c -0.217246,0.0956 -0.445004,0.20182 -0.637721,0.32574 -0.189214,0.12393 -0.40646,0.27263 -0.452012,0.49216 0.06307,0.0531 0.22075,0.0106 0.325869,0.0248 0.543114,-0.42134 1.257923,-0.7223 2.025291,-0.89933 0.108623,-0.0248 0.252286,-0.0248 0.346892,-0.0708 0.07358,-0.0319 0.189214,-0.17704 0.196223,-0.23369 -0.641226,-0.11684 -1.285955,0.13101 -1.804542,0.36115 m -0.301341,2.45368 c -0.462523,-0.0142 -0.529098,-0.54172 -0.672761,-0.89932 -0.04906,-0.12039 -0.09461,-0.24785 -0.15067,-0.38594 -0.05256,-0.13454 -0.147167,-0.26909 -0.140159,-0.39655 0.01402,-0.23369 0.301342,-0.42488 0.462523,-0.53818 0.220751,-0.15225 0.385436,-0.23723 0.637722,-0.35053 0.466027,-0.21244 0.953078,-0.41426 1.517216,-0.45675 0.210237,-0.0142 0.480043,-0.004 0.588665,0.10622 0.06657,0.0673 0.112127,0.25847 0.150672,0.36115 0.09811,0.27263 0.175198,0.48507 0.276812,0.74708 0.04906,0.12747 0.129647,0.24785 0.126143,0.38594 0,0.17349 -0.115631,0.22306 -0.126143,0.3399 -0.007,0.085 0.07008,0.26201 0.105115,0.37531 0.189214,0.64086 0.346893,1.16488 0.532602,1.8022 0.07008,0.24431 0.18571,0.49923 0.175198,0.76124 -0.02803,0.59838 -0.627209,0.86039 -1.180836,0.97015 -0.437995,0.0885 -0.847959,-0.0177 -1.065204,-0.33991 -0.129647,-0.19119 -0.213741,-0.42134 -0.311853,-0.61961 -0.318861,-0.65149 -0.585162,-1.16134 -0.925046,-1.8624"
   id="path46"
   style="stroke-width:0.0352228" />
<path
   class="st4"
   d="m 48.305464,221.54896 c 0.739336,-0.15933 0.448507,1.55081 -0.150671,1.13301 -0.304845,-0.21244 -0.217246,-1.05512 0.150671,-1.13301"
   id="path48"
   style="stroke-width:0.0352228" />
<path
   class="st4"
   d="m 36.581203,221.55958 c 0.16819,-0.0248 0.385435,0.0566 0.462523,0.22306 0.105115,0.22306 0.04555,0.609 0.04555,0.92412 0,0.27971 -0.06657,0.72583 0.266301,0.69043 0.25579,-0.0283 0.185711,-0.44259 0.185711,-0.70106 0,-0.22306 -0.04906,-0.6444 0.02452,-0.8533 0.126143,-0.37885 0.637721,-0.33282 0.788392,-0.10622 0.126142,0.1912 0.08059,0.49924 0.08059,0.86393 0,0.4355 0.007,0.79665 -0.126142,1.05158 -0.15067,0.28325 -0.466027,0.55588 -0.844455,0.59483 -0.480042,0.0531 -0.998629,-0.21244 -1.191348,-0.70106 -0.09461,-0.2443 -0.07008,-0.48861 -0.07008,-0.8533 0,-0.23722 -0.05607,-0.63378 0.04555,-0.87808 0.06307,-0.14871 0.178702,-0.23369 0.332877,-0.25493"
   id="path50"
   style="stroke-width:0.0352228" />
<path
   class="st4"
   d="m 40.260364,222.55451 c -0.007,-0.42488 -0.03504,-0.82144 0.241773,-0.95952 0.297838,-0.14871 0.613194,0.0531 0.648234,0.35052 0.03153,0.25847 0,0.58775 0,0.92412 0,0.36823 0.07008,0.85684 -0.04555,1.10114 -0.09111,0.18766 -0.350397,0.31867 -0.588666,0.19828 -0.143662,-0.0708 -0.329372,-0.36469 -0.427484,-0.49215 -0.143662,-0.18766 -0.259293,-0.35761 -0.406459,-0.5134 -0.01054,0.36469 0.04906,0.75062 -0.115631,0.92412 -0.252285,0.26201 -0.714808,0.0956 -0.763864,-0.25847 -0.03854,-0.27971 0,-0.58067 0,-0.95952 0,-0.41072 -0.06307,-0.96306 0.08059,-1.1578 0.09461,-0.12747 0.357404,-0.2089 0.532602,-0.14163 0.168191,0.0673 0.343389,0.35761 0.4415,0.47799 0.143662,0.18058 0.266301,0.34345 0.402956,0.50632"
   id="path52"
   style="stroke-width:0.0352228" />
<path
   class="st4"
   d="m 42.436325,222.41288 c 0.189214,-0.14163 0.350396,-0.61608 0.567642,-0.78249 0.353901,-0.27617 0.854967,0.13809 0.648234,0.56297 -0.112127,0.23014 -0.329374,0.43904 -0.452012,0.65502 0.08059,0.11685 0.189214,0.24431 0.30134,0.38594 0.09461,0.11684 0.241775,0.26201 0.290829,0.38593 0.154175,0.40718 -0.315356,0.73646 -0.63772,0.53818 -0.140159,-0.085 -0.248782,-0.3045 -0.357405,-0.44612 -0.122639,-0.15579 -0.241773,-0.30096 -0.357404,-0.44613 -0.01054,0.36115 0.04555,0.64086 -0.126142,0.8179 -0.276814,0.28325 -0.728825,0.0814 -0.763865,-0.33991 -0.02102,-0.25847 0,-0.55942 0,-0.87808 0,-0.60192 -0.112126,-1.26756 0.381933,-1.32067 0.459018,-0.0496 0.553626,0.36469 0.50457,0.86746"
   id="path54"
   style="stroke-width:0.0352228" />
<path
   class="st4"
   d="m 44.451104,221.55958 c 0.154174,-0.0212 0.378428,0.0389 0.462523,0.2089 0.09812,0.20182 0.04555,0.76832 0.04555,1.06574 v 0.56297 c 0,0.18057 0.02452,0.39655 -0.02452,0.52756 -0.119134,0.3399 -0.658745,0.38593 -0.809415,0.0566 -0.09461,-0.20536 -0.03504,-0.8179 -0.03504,-1.09761 v -0.57359 c 0.0035,-0.38947 -0.02102,-0.69751 0.360908,-0.75062"
   id="path56"
   style="stroke-width:0.0352228" />
<path
   class="st4"
   d="m 46.823287,222.55451 c 0.02803,-0.29388 -0.05256,-0.57359 0.04555,-0.78249 0.154174,-0.3222 0.658745,-0.25847 0.788391,0.0106 0.115631,0.24431 0.04555,0.71876 0.04555,1.08699 v 0.56296 c 0,0.18766 0.01402,0.39656 -0.03504,0.52756 -0.07709,0.19828 -0.364413,0.32929 -0.602682,0.2089 -0.171694,-0.085 -0.311853,-0.34698 -0.427484,-0.49215 -0.147166,-0.18412 -0.273309,-0.36115 -0.40646,-0.5134 -0.03504,0.2868 0.05957,0.609 -0.03504,0.8179 -0.136655,0.31158 -0.690281,0.29741 -0.809416,-0.0354 -0.0841,-0.23722 -0.02452,-0.70459 -0.02452,-1.01617 0,-0.64794 -0.13315,-1.32421 0.381933,-1.38086 0.350396,-0.0354 0.525594,0.3399 0.658744,0.50277 0.140159,0.16641 0.276814,0.31866 0.420476,0.50278"
   id="path58"
   style="stroke-width:0.0352228" />
<path
   class="st4"
   d="m 34.349178,223.38302 c 0.206733,-0.0177 0.374924,0.007 0.508074,-0.10622 0.388941,-0.32928 0.09461,-1.03741 -0.497563,-0.89933 -0.02803,0.31158 -0.0035,0.67273 -0.01054,1.00555 m -0.430988,-1.81282 c 0.581658,-0.0602 1.107253,0.007 1.42261,0.22306 0.280317,0.1912 0.567642,0.56297 0.567642,1.07637 0,0.49569 -0.290829,0.90287 -0.602682,1.11177 -0.280317,0.18765 -0.648233,0.2089 -1.145795,0.2089 -0.32587,0 -0.550123,-0.0177 -0.648234,-0.24431 -0.0876,-0.20182 -0.03504,-0.73646 -0.03504,-1.06574 v -0.5488 c 0,-0.11685 -0.03854,-0.35761 0.02452,-0.5134 0.06657,-0.16287 0.220749,-0.2266 0.416971,-0.24785"
   id="path60"
   style="stroke-width:0.0352228" />
<path
   class="st4"
   d="m 27.751215,221.96676 c 0.136654,0.10976 0.269806,0.21952 0.508075,0.22306 -0.178702,0.14871 -0.381932,0.27617 -0.508075,0.47799 -0.02102,-0.20536 -0.01751,-0.49215 0,-0.70105"
   id="path62"
   style="stroke-width:0.0352228" />
<path
   class="st1"
   d="m 28.192715,223.15996 c 0.592169,0.046 1.208867,-0.15225 1.72395,-0.37531 0.45201,-0.1912 0.925046,-0.4355 1.180835,-0.76124 0.07709,0.12746 0.133151,0.35406 0.22075,0.57359 0.06307,0.15933 0.210237,0.39301 0.206733,0.52756 0,0.10976 -0.143662,0.27263 -0.231261,0.35052 -0.38894,0.33991 -1.093236,0.59483 -1.688911,0.77187 -0.294332,0.0885 -0.718312,0.24076 -0.925046,0.0602 -0.09812,-0.085 -0.20323,-0.4355 -0.25579,-0.56297 -0.08059,-0.19828 -0.13315,-0.38593 -0.23126,-0.58421"
   id="path64"
   style="stroke-width:0.0352228" />
<path
   class="st4"
   d="m 27.740703,223.02188 c 0.122639,0.28325 0.329372,0.82143 0.473035,1.1932 0.112127,0.28325 0.175198,0.5134 0.52209,0.52756 0.445003,0.86038 0.935558,1.73493 1.352531,2.58469 h -0.960086 c -0.374924,0 -0.837448,0.0566 -1.065205,-0.0567 -0.13315,-0.0673 -0.273309,-0.23369 -0.311853,-0.39656 -0.05957,-0.25847 -0.01054,-0.63732 -0.01054,-0.9489 v -2.90334 z"
   id="path66"
   style="stroke-width:0.0352228" />
<path
   class="st3"
   d="m 30.887262,224.75326 c 0.03153,0.10976 0.0841,0.19474 0.115631,0.3045 0.245278,-0.0248 0.126142,-0.45321 -0.115631,-0.3045 m 0.03504,-0.28325 c 0.371421,-0.0637 0.616698,0.32928 0.427484,0.65502 -0.07358,0.12393 -0.325868,0.26201 -0.452012,0.23369 -0.105115,-0.0213 -0.126142,-0.19828 -0.185709,-0.33991 -0.02452,-0.0566 -0.171695,-0.24076 -0.126143,-0.38593 0.02452,-0.0708 0.206734,-0.14163 0.33638,-0.16287"
   id="path68"
   style="stroke-width:0.0352228" />
<path
   class="st3"
   d="m 48.396567,225.12503 c 0.367915,-0.0354 0.315356,-0.65502 -0.09111,-0.57359 -0.343389,0.0708 -0.262799,0.609 0.09111,0.57359 m -0.08059,-0.64086 c 0.262798,-0.0354 0.416972,0.14517 0.40646,0.37531 -0.01402,0.3045 -0.399452,0.44967 -0.613193,0.23369 -0.199726,-0.20536 -0.0876,-0.57359 0.206733,-0.609"
   id="path70"
   style="stroke-width:0.0352228" />
<path
   class="st3"
   d="m 36.858015,225.81546 c -0.02803,0.37885 0.318861,0.64086 0.658746,0.54881 0.189213,-0.0496 0.3539,-0.22307 0.381932,-0.41072 0.05607,-0.37531 -0.234766,-0.6444 -0.55713,-0.609 -0.280318,0.0354 -0.462524,0.18766 -0.483548,0.47091 m 0.452012,-1.32067 c 0.784888,-0.0531 1.510208,0.55943 1.447136,1.4623 -0.03504,0.49923 -0.311852,0.87809 -0.658744,1.08699 -0.879495,0.53464 -2.186473,-0.0744 -2.105882,-1.28527 0.02452,-0.37885 0.18571,-0.66564 0.406459,-0.87808 0.20323,-0.20182 0.497564,-0.35761 0.911031,-0.38594"
   id="path72"
   style="stroke-width:0.0352228" />
<path
   class="st3"
   d="m 47.019509,224.49479 c 0.297837,-0.004 0.697288,0.085 0.823432,0.37532 0.136654,0.31511 -0.108623,0.59837 -0.416973,0.52755 -0.09461,-0.0212 -0.210237,-0.12392 -0.266301,-0.16287 -0.0876,-0.0602 -0.24878,-0.10976 -0.266301,0.0248 -0.02102,0.16995 0.304845,0.20182 0.416972,0.2443 0.350396,0.13455 0.634217,0.33991 0.67276,0.77187 0.04205,0.48507 -0.304844,0.90287 -0.809414,0.95952 -0.448508,0.0496 -1.187844,-0.131 -1.170325,-0.66564 0.007,-0.1912 0.154175,-0.43905 0.497564,-0.36115 0.10161,0.0212 0.18571,0.0885 0.266301,0.15225 0.07008,0.0566 0.178702,0.15579 0.276812,0.10622 0.07709,-0.0389 0.07008,-0.12393 0.02452,-0.18766 -0.10161,-0.13809 -0.490555,-0.18765 -0.623705,-0.26909 -0.213742,-0.12746 -0.402956,-0.39655 -0.357405,-0.78249 0.04906,-0.47799 0.437995,-0.72583 0.932054,-0.73292"
   id="path74"
   style="stroke-width:0.0352228" />
<path
   class="st3"
   d="m 40.390011,225.54637 c -0.04205,-0.52756 0.007,-0.98784 0.392443,-1.01617 0.599178,-0.046 0.473035,0.69397 0.473035,1.32067 0,0.57005 0.09812,1.19321 -0.290829,1.32067 -0.388939,0.12746 -0.588666,-0.29034 -0.763864,-0.5134 -0.15067,-0.19119 -0.276812,-0.37177 -0.416971,-0.52756 -0.03153,0.27617 0.04555,0.53818 -0.01054,0.74708 -0.105115,0.3824 -0.672761,0.41426 -0.819927,0.046 -0.09812,-0.24784 -0.03504,-0.65502 -0.03504,-0.99493 0,-0.48507 -0.09461,-1.06928 0.126143,-1.28526 0.119134,-0.1133 0.31886,-0.15579 0.473035,-0.0921 0.178702,0.0708 0.322365,0.35053 0.4415,0.49216 0.154174,0.18411 0.294332,0.35406 0.430987,0.50277"
   id="path76"
   style="stroke-width:0.0352228" />
<path
   class="st3"
   d="m 41.92825,224.54082 c 0.154175,-0.0106 0.353901,0.0708 0.427484,0.23369 0.09811,0.21598 0.03504,0.58421 0.03504,0.87808 0,0.32574 -0.05607,0.67273 0.185711,0.72584 0.360908,0.0779 0.30134,-0.37177 0.30134,-0.69043 0,-0.23014 -0.03504,-0.76124 0.03504,-0.92412 0.161182,-0.37177 0.693784,-0.24784 0.798904,0.0248 0.08059,0.21244 0.02452,0.67627 0.02452,0.93474 0,0.34344 -0.007,0.65502 -0.09111,0.8533 -0.406459,0.93473 -1.737965,0.80373 -2.049818,-0.0602 -0.0841,-0.23723 -0.05957,-0.55589 -0.05957,-0.9135 0,-0.55588 -0.09461,-1.02325 0.392443,-1.0622"
   id="path78"
   style="stroke-width:0.0352228" />
<path
   class="st3"
   d="m 35.063987,225.91106 c 0.03504,-0.39655 -0.346893,-0.64086 -0.707802,-0.5488 0.01054,0.29741 0.01054,0.6267 0,1.00555 0.399453,0.0319 0.67977,-0.12038 0.707802,-0.45675 m -1.110758,-1.35962 c 0.304846,-0.0248 0.904023,-0.0708 1.320995,0.16288 0.343389,0.19473 0.641226,0.60191 0.648233,1.11177 0.007,0.40717 -0.185709,0.78602 -0.416971,0.99492 -0.276814,0.25139 -0.665753,0.33991 -1.180836,0.33991 -0.332876,0 -0.665753,0.0177 -0.774375,-0.22306 -0.101621,-0.22307 -0.03504,-0.77895 -0.03504,-1.07637 v -0.5488 c 0,-0.18766 -0.03153,-0.38593 0.02452,-0.52756 0.06307,-0.16287 0.224254,-0.21598 0.413467,-0.23369"
   id="path80"
   style="stroke-width:0.0352228" />
<path
   class="st3"
   d="m 45.390166,225.3481 c -0.108622,0.54526 0.199726,1.61808 -0.255789,1.81282 -0.22075,0.0956 -0.553626,-0.0354 -0.602682,-0.29388 -0.03153,-0.15225 0,-0.29741 0,-0.42134 0,-0.37531 -0.01402,-0.69751 0,-1.10115 -0.308349,0.0142 -0.72532,-0.0283 -0.693785,-0.43196 0.02102,-0.26909 0.217247,-0.36469 0.55713,-0.37531 0.210238,-0.007 0.40646,0 0.658746,0 0.224254,0 0.459019,-0.0248 0.648233,0 0.171694,0.0213 0.304845,0.15933 0.336381,0.25847 0.126142,0.42134 -0.287325,0.609 -0.648234,0.55235"
   id="path82"
   style="stroke-width:0.0352228" />
<path
   class="st3"
   d="m 48.294951,224.78513 c 0.06307,-0.004 0.157679,0.0212 0.161183,-0.046 -0.01054,-0.0566 -0.101621,-0.0283 -0.161183,-0.0354 z m 0.150671,0.0602 c 0.02803,0.0496 0.04555,0.10976 0.08059,0.15225 -0.02452,0.0354 -0.04205,0.004 -0.08059,0.0248 -0.02452,-0.0531 -0.04906,-0.10622 -0.07008,-0.16287 h -0.07008 c -0.02803,0.0283 -0.0035,0.10622 -0.01054,0.15225 -0.01751,0 -0.04555,-0.007 -0.04555,0.0106 -0.05256,-0.085 -0.01054,-0.26201 -0.02452,-0.38593 0.126143,-0.0744 0.4415,0.0673 0.220749,0.2089"
   id="path84"
   style="stroke-width:0.0352228" />
<path
   class="st4"
   d="m 30.102374,225.0436 c 0.04906,0.085 0.09812,0.17349 0.140159,0.26909 0.07008,-0.007 0.10161,-0.0531 0.140159,-0.0921 0.04555,-0.20182 -0.171695,-0.27971 -0.280318,-0.17703 m 0.09111,-0.31512 c 0.385437,-0.046 0.623706,0.43904 0.346893,0.72584 -0.07008,0.0744 -0.283822,0.20181 -0.381932,0.18765 -0.133151,-0.0212 -0.231262,-0.36115 -0.301341,-0.49215 -0.01752,-0.0319 -0.0876,-0.1133 -0.08059,-0.17704 0.01402,-0.11684 0.252286,-0.2266 0.416971,-0.2443"
   id="path86"
   style="stroke-width:0.0352228" />
<path
   class="st1"
   d="m 31.002893,225.05422 c -0.03153,-0.10622 -0.0876,-0.19474 -0.115631,-0.3045 0.241773,-0.14517 0.360909,0.28326 0.115631,0.3045"
   id="path88"
   style="stroke-width:0.0352228" />
<path
   class="st1"
   d="m 30.379188,225.22063 c -0.03504,0.0425 -0.06657,0.085 -0.140159,0.0921 -0.04205,-0.0956 -0.0876,-0.18412 -0.140159,-0.26909 0.112127,-0.10268 0.329373,-0.0248 0.280318,0.17703"
   id="path90"
   style="stroke-width:0.0352228" />
</svg>
