<?xml version="1.0" encoding="UTF-8" standalone="no"?>
<svg
   viewBox="0 0 24 24"
   width="24pt"
   height="24pt"
   version="1.1"
   id="svg1"
   sodipodi:docname="eskimo.svg"
   xml:space="preserve"
   inkscape:version="1.3.2 (091e20e, 2023-11-25, custom)"
   xmlns:inkscape="http://www.inkscape.org/namespaces/inkscape"
   xmlns:sodipodi="http://sodipodi.sourceforge.net/DTD/sodipodi-0.dtd"
   xmlns="http://www.w3.org/2000/svg"
   xmlns:svg="http://www.w3.org/2000/svg"><defs
     id="defs1" /><sodipodi:namedview
     id="namedview1"
     pagecolor="#505050"
     bordercolor="#eeeeee"
     borderopacity="1"
     inkscape:showpageshadow="0"
     inkscape:pageopacity="0"
     inkscape:pagecheckerboard="0"
     inkscape:deskcolor="#505050"
     inkscape:document-units="pt"
     inkscape:zoom="23.688077"
     inkscape:cx="23.851662"
     inkscape:cy="12.960106"
     inkscape:window-width="2400"
     inkscape:window-height="1261"
     inkscape:window-x="2391"
     inkscape:window-y="-9"
     inkscape:window-maximized="1"
     inkscape:current-layer="svg1" /><g
     id="g1"
     transform="matrix(0.02772495,0,0,0.02772495,2.9743145,-0.04101627)"><path
       d="m 311,74.037 c -28.114,3.799 -48.568,12.347 -70.5,29.463 -12.727,9.933 -22.783,21.554 -31.584,36.5 -11.14,18.918 -15.498,32.241 -18.404,56.255 -1.502,12.412 -1.506,14.547 -0.044,26.375 1.61,13.028 3.654,22.991 6.025,29.37 5.035,13.546 8.573,20.801 15.81,32.422 3.153,5.061 15.399,19.374 21.03,24.578 13.926,12.869 33.42,24.236 51.167,29.835 16.211,5.114 20.132,5.642 41.5,5.584 21.148,-0.058 24.131,-0.457 40.5,-5.425 7.75,-2.352 19.807,-7.532 24.654,-10.592 2.094,-1.321 4.035,-2.402 4.315,-2.402 0.28,0 4.315,-2.705 8.968,-6.012 21.551,-15.316 37.789,-36.193 48.216,-61.988 3.376,-8.351 5.011,-14.785 7.371,-29 2.336,-14.066 2.459,-24.793 0.435,-37.685 -4.11,-26.167 -10.784,-42.364 -26.137,-63.425 C 428.471,119.863 410.03,101 408.034,101 c -0.49,0 -1.498,-0.562 -2.24,-1.25 -2.448,-2.269 -7.696,-5.75 -8.67,-5.75 -0.527,0 -1.107,-0.377 -1.291,-0.839 -0.488,-1.229 -17.359,-9.433 -24.333,-11.832 -12.061,-4.151 -15.974,-5.064 -31.5,-7.35 -6.683,-0.985 -21.504,-0.955 -29,0.058 m -9.492,6.921 c -14.98,3.135 -23.103,5.989 -36.441,12.804 -15.652,7.998 -32.827,22.623 -44.318,37.738 -4.085,5.374 -13.74,21.778 -13.755,23.372 -0.004,0.345 -0.583,1.753 -1.289,3.128 -8.714,16.986 -12.591,46.24 -9.218,69.558 0.936,6.469 2.057,12.703 2.492,13.852 0.434,1.15 1.829,5.465 3.098,9.59 2.511,8.16 9.32,22.091 15.323,31.354 9.653,14.893 30.671,34.301 43.6,40.259 0.825,0.38 2.175,1.219 3,1.863 1.408,1.101 13.201,6.16 21,9.009 9.041,3.303 29.04,6.523 40.409,6.506 11.674,-0.017 31.67,-3.257 40.841,-6.617 23.46,-8.595 35.627,-16.148 51.27,-31.828 15.917,-15.955 25.669,-31.69 32.257,-52.046 4.365,-13.487 5.325,-19.439 5.907,-36.646 0.477,-14.116 -1.023,-29.347 -3.63,-36.854 -0.478,-1.375 -1.629,-4.975 -2.557,-8 C 440.973,140.232 419.1,112.833 393.5,97.854 384.397,92.528 368.281,85 365.983,85 c -0.668,0 -3.3,-0.644 -5.849,-1.431 -10.546,-3.255 -15.46,-3.896 -32.134,-4.187 -14.159,-0.248 -19.217,0.053 -26.492,1.576 M 347,134.625 c -0.825,0.217 -7.125,1.07 -14,1.897 -6.875,0.826 -18.125,2.194 -25,3.038 -15.41,1.893 -28.953,1.247 -33.807,-1.612 -4.847,-2.855 -8.387,-2.529 -11.005,1.012 -1.203,1.627 -2.188,3.391 -2.188,3.918 0,0.528 -0.639,2.234 -1.42,3.791 -4.154,8.28 -4.985,11.739 -5.032,20.964 l -0.048,9.412 3.75,3.54 c 2.063,1.948 3.75,3.866 3.75,4.263 0,0.397 -0.857,3.181 -1.904,6.187 -2.516,7.221 -3.476,20.547 -2.193,30.465 3.39,26.228 14.883,43.798 35.169,53.768 13.765,6.765 24.414,9.051 39.428,8.463 13.963,-0.546 21.89,-2.415 33.041,-7.787 18.817,-9.066 30.907,-26.459 30.943,-44.518 0.014,-7.297 -0.251,-8.426 -2.757,-11.714 -4.295,-5.636 -10.524,-7.942 -20.227,-7.487 -9.152,0.429 -15.213,2.852 -20.867,8.343 -3.881,3.769 -5.868,2.966 -3.104,-1.253 1.189,-1.814 1.716,-4.764 1.748,-9.783 0.043,-6.654 -0.206,-7.525 -3.365,-11.75 -1.877,-2.509 -5.437,-5.849 -7.912,-7.422 -4.21,-2.676 -5.172,-2.86 -14.916,-2.86 -7.445,0 -10.536,-0.357 -10.834,-1.25 -0.325,-0.974 4.396,-1.251 21.417,-1.256 12.687,-0.003 23.509,-0.464 25.833,-1.099 6.418,-1.756 12.785,-9.072 14.993,-17.23 1.732,-6.4 1.733,-6.926 0.027,-13.231 -1.414,-5.222 -2.727,-7.539 -6.415,-11.326 -6.28,-6.447 -15.574,-9.457 -23.105,-7.483 m -9,6.447 c -29.714,4.407 -37.354,5.124 -50,4.689 -8.22,-0.283 -12.413,-0.876 -14.7,-2.078 -1.761,-0.926 -3.837,-1.683 -4.615,-1.683 -1.998,0 -7.443,13.208 -8.643,20.969 -1.056,6.824 -0.078,13.263 2.235,14.713 0.673,0.421 3.212,1.003 5.643,1.292 2.431,0.289 4.592,1.046 4.802,1.682 0.21,0.636 -0.929,2.661 -2.531,4.5 -6.149,7.058 -6.634,8.938 -6.664,25.844 -0.021,12.279 0.356,16.747 1.816,21.5 4.206,13.696 7.047,18.763 15.23,27.164 5.635,5.785 8.808,8.082 15.608,11.299 4.695,2.22 9.22,4.037 10.055,4.037 0.836,0 3.135,0.675 5.11,1.5 2.652,1.108 7.526,1.5 18.654,1.5 11.128,0 16.002,-0.392 18.654,-1.5 1.975,-0.825 4.209,-1.5 4.965,-1.5 2.319,0 14.634,-6.154 19.129,-9.559 9.141,-6.925 16.018,-17.845 18.351,-29.142 1.522,-7.369 0.684,-10.825 -3.609,-14.873 -5.221,-4.925 -14.966,-5.632 -24.235,-1.759 -1.897,0.792 -6.515,4.32 -10.262,7.839 -9.365,8.796 -14.145,10.894 -24.947,10.95 -6.092,0.031 -9.574,-0.449 -12.126,-1.672 -6.745,-3.234 -11.574,-9.605 -12.969,-17.111 -0.948,-5.105 0.822,-5.684 5.173,-1.694 5.445,4.993 12.866,8.021 19.66,8.021 6.617,0 10.438,-1.535 14.577,-5.855 3.629,-3.788 4.794,-13.01 2.262,-17.907 -5.191,-10.039 -21.523,-12.743 -31.91,-5.283 -3.201,2.299 -5.127,3.049 -6.614,2.576 -2.633,-0.835 -2.617,-1.083 0.419,-6.393 l 2.493,-4.361 -3.058,-3.483 c -1.681,-1.915 -2.884,-4.002 -2.673,-4.638 0.274,-0.824 8.702,-1.3 29.302,-1.656 28.18,-0.487 29,-0.559 32.144,-2.801 6.646,-4.741 9.334,-17.392 5.308,-24.989 C 364.367,140.516 357.151,138.232 338,141.072 M 317.5,231 c -0.352,0.569 0.509,1 2,1 1.491,0 2.352,-0.431 2,-1 -0.34,-0.55 -1.24,-1 -2,-1 -0.76,0 -1.66,0.45 -2,1 m 17.5,0 c -1.165,0.753 -0.872,0.973 1.309,0.985 1.621,0.009 2.548,-0.408 2.191,-0.985 -0.767,-1.242 -1.579,-1.242 -3.5,0 m 26.809,174.75 c -0.17,0.413 -0.084,25.95 0.191,56.75 l 0.5,56 7.75,0.292 7.75,0.292 v -35.983 c 0,-22.575 0.367,-36.21 0.986,-36.592 0.543,-0.336 2.455,1.066 4.25,3.114 1.795,2.048 3.939,4.394 4.764,5.215 0.825,0.82 2.4,2.697 3.5,4.171 1.1,1.475 4.984,6.013 8.632,10.086 3.647,4.073 7.85,8.867 9.339,10.655 1.489,1.788 3.306,3.25 4.039,3.25 0.733,0 8.187,-7.988 16.564,-17.75 8.377,-9.762 15.725,-17.75 16.329,-17.75 0.766,0 1.248,10.703 1.597,35.5 l 0.5,35.5 h 8 8 l 0.258,-56.75 C 464.901,430.429 464.63,405 464.154,405 c -1.483,0 -4.834,3.5 -20.102,21 -13.483,15.454 -21.492,24.4 -26.272,29.344 l -4.721,4.882 -5.279,-5.822 c -2.904,-3.202 -5.955,-6.536 -6.78,-7.41 -0.825,-0.873 -5.775,-6.498 -11,-12.498 -5.225,-6.001 -10.75,-12.28 -12.279,-13.953 -1.528,-1.674 -5.128,-5.83 -8,-9.235 -4.86,-5.765 -7.161,-7.381 -7.912,-5.558 m -212.545,3.491 c -6.188,2.67 -12.485,8.391 -15.558,14.135 -1.873,3.501 -2.206,5.71 -2.206,14.624 0,8.869 0.336,11.121 2.165,14.5 2.842,5.251 8.739,10.802 14.335,13.495 2.475,1.191 5.281,2.58 6.236,3.085 0.955,0.506 2.53,0.923 3.5,0.926 0.97,0.004 2.971,0.636 4.447,1.406 1.475,0.77 4.101,1.711 5.834,2.092 1.734,0.381 5.193,2.648 7.688,5.038 l 4.535,4.345 -0.419,6.589 c -0.383,6.012 -0.744,6.914 -4.118,10.287 -3.499,3.499 -4.099,3.718 -11.186,4.076 -8.194,0.414 -12.235,-1.004 -19.708,-6.918 -2.031,-1.607 -4.443,-2.921 -5.362,-2.921 -0.918,0 -3.847,1.823 -6.507,4.051 -6.132,5.134 -5.851,6.201 3.578,13.556 10.68,8.331 24.966,11.308 37.328,7.779 9.236,-2.638 15.603,-8.049 20.249,-17.208 2.428,-4.788 2.882,-6.888 2.892,-13.399 0.026,-15.914 -8.202,-26.164 -25.488,-31.752 -12.784,-4.132 -15.237,-5.186 -18.695,-8.037 -9.648,-7.953 -6.024,-21.849 6.49,-24.88 6.33,-1.533 13.078,0.42 20.308,5.879 2.922,2.206 5.514,4.011 5.76,4.011 0.85,0 9.14,-7.229 9.995,-8.716 1.236,-2.148 -6.323,-9.564 -14.357,-14.086 -6.12,-3.445 -7.085,-3.675 -16.5,-3.938 -8.561,-0.238 -10.753,0.046 -15.236,1.981 m 118.114,10.495 c -6.533,7.005 -15.928,16.943 -20.878,22.083 -4.95,5.141 -9.36,9.985 -9.8,10.764 -2.186,3.873 -2.701,0.203 -2.714,-19.333 -0.007,-11.413 -0.285,-21.762 -0.616,-23 -0.556,-2.074 -1.176,-2.25 -7.951,-2.25 -6.242,0 -7.505,0.291 -8.384,1.934 -1.574,2.942 -1.416,106.285 0.165,107.866 0.711,0.711 4.132,1.2 8.393,1.2 5.637,0 7.324,-0.342 7.8,-1.582 0.334,-0.87 0.607,-10.347 0.607,-21.061 v -19.479 l 6.388,-6.451 c 4.203,-4.244 6.91,-6.25 7.915,-5.864 0.841,0.322 2.8,2.465 4.355,4.762 5.699,8.42 35.614,48.226 37.459,49.843 1.799,1.577 2.224,1.452 7.879,-2.324 3.287,-2.195 6.223,-4.389 6.523,-4.875 0.436,-0.706 -7.282,-11.948 -9.59,-13.969 -0.314,-0.275 -5.455,-7.025 -11.424,-15 -5.969,-7.975 -13.422,-17.694 -16.563,-21.597 -3.141,-3.904 -5.985,-7.962 -6.32,-9.018 -0.479,-1.509 2.927,-5.452 15.884,-18.391 9.072,-9.059 16.494,-17.167 16.494,-18.017 0,-0.85 -1.238,-2.278 -2.75,-3.173 -1.512,-0.895 -3.831,-2.567 -5.153,-3.716 -1.322,-1.148 -3.176,-2.088 -4.122,-2.088 -0.945,0 -7.063,5.731 -13.597,12.736 M 528.5,407.644 c -16.057,4.221 -27.902,12.599 -35.145,24.856 -4.144,7.014 -6.056,12.707 -7.478,22.275 -2.191,14.734 1.881,33.234 9.644,43.811 16.134,21.986 46.222,28.694 71.577,15.958 7.264,-3.648 12.236,-7.81 17.191,-14.391 6.941,-9.218 9.541,-15.71 11.164,-27.872 3.227,-24.178 -6.765,-46.589 -25.726,-57.701 -9.31,-5.456 -14.394,-6.788 -27.227,-7.137 -6.6,-0.179 -12.9,-0.089 -14,0.201 M 55.63,410.25 c -0.913,3.409 -0.718,106.062 0.204,107.516 0.624,0.983 6.956,1.207 28.235,1 l 27.431,-0.266 0.291,-7.094 c 0.207,-5.065 -0.1,-7.418 -1.075,-8.227 -0.879,-0.729 -7.923,-1.23 -19.79,-1.406 L 72.5,501.5 v -15 -15 L 91,471 l 18.5,-0.5 0.291,-7.117 0.291,-7.117 -3.166,-0.633 C 105.175,455.285 96.594,455 87.848,455 H 71.947 L 72.223,440.25 72.5,425.5 92,425 l 19.5,-0.5 0.306,-5.958 c 0.168,-3.277 0.047,-6.99 -0.269,-8.25 L 110.962,408 H 83.598 56.233 l -0.603,2.25 m 262.862,0 c -0.3,1.238 -0.421,26.1 -0.269,55.25 l 0.277,53 7.913,0.295 c 5.655,0.211 8.148,-0.075 8.735,-1 0.935,-1.474 1.146,-104.095 0.222,-107.545 -0.561,-2.091 -1.157,-2.25 -8.468,-2.25 -7.327,0 -7.901,0.154 -8.41,2.25 m 211.804,14.654 c -14.068,3.62 -24.57,16.197 -27.378,32.786 -2.958,17.479 6.06,35.247 21.817,42.98 5.161,2.533 6.813,2.83 15.765,2.83 9.388,0 10.417,-0.209 16.813,-3.418 10.575,-5.306 17.528,-14.555 20.558,-27.346 4.273,-18.035 -5.407,-38.445 -21.784,-45.931 -5.042,-2.306 -19.95,-3.404 -25.791,-1.901 M 228.667,540.667 C 228.3,541.033 228,552.268 228,565.631 c 0,22.563 0.131,24.369 1.838,25.282 1.011,0.542 2.811,0.73 4,0.419 1.954,-0.511 2.162,-1.233 2.162,-7.514 0,-8.467 1.135,-11.073 4.458,-10.239 1.308,0.328 4.818,0.09 7.801,-0.529 11.899,-2.47 17.022,-15.049 10.519,-25.831 -3.273,-5.425 -8.136,-7.219 -19.571,-7.219 -5.431,0 -10.174,0.3 -10.54,0.667 m 43.047,-0.048 C 271.321,541.012 271,552.293 271,565.688 v 24.355 l 2.47,1.125 c 1.894,0.863 2.832,0.827 4.018,-0.158 1.332,-1.106 1.509,-4.688 1.279,-25.897 L 278.5,540.5 l -3.036,-0.297 c -1.67,-0.164 -3.357,0.024 -3.75,0.416 m 17.325,1.309 c -0.568,1.06 -0.76,2.635 -0.428,3.5 0.503,1.312 2.649,1.572 12.996,1.572 10.288,0 12.393,0.252 12.393,1.483 0,0.816 -4.163,7.58 -9.25,15.031 -5.087,7.451 -9.707,14.321 -10.265,15.266 -0.559,0.946 -2.299,3.621 -3.867,5.945 -4.755,7.048 -4.251,7.275 16.151,7.275 18.873,0 20.231,-0.316 20.231,-4.7 0,-2.271 -0.148,-2.3 -11.918,-2.3 -13.773,0 -15.867,-0.437 -13.765,-2.874 C 305.69,577.056 327,543.83 327,542.082 327,540.048 326.575,540 308.535,540 c -17.21,0 -18.535,0.131 -19.496,1.928 m 44.386,0.515 c -0.337,1.344 -0.319,2.919 0.04,3.5 0.4,0.647 5.284,1.057 12.594,1.057 10.297,0 11.941,0.221 11.941,1.606 0,1.429 -20.058,32.357 -23.712,36.562 -0.797,0.917 -1.3,2.717 -1.118,4 0.329,2.323 0.393,2.333 16.953,2.606 C 368.62,592.078 372,591.422 372,587.525 V 585 h -12.941 c -7.118,0 -13.199,-0.417 -13.514,-0.927 -0.315,-0.51 5.509,-9.934 12.941,-20.943 C 365.919,552.121 372,542.413 372,541.557 372,540.202 369.533,540 353.019,540 h -18.981 l -0.613,2.443 m 60.126,5.016 c -1.953,4.172 -3.551,8.16 -3.551,8.863 0,0.703 -0.403,1.706 -0.896,2.228 -1.235,1.31 -13.104,29.331 -13.104,30.938 0,1.822 2.604,2.614 5.259,1.598 1.445,-0.553 2.951,-2.713 4.241,-6.086 2.362,-6.175 3.945,-7.005 13.315,-6.986 9.705,0.019 10.321,0.348 13.685,7.293 3.139,6.48 5.482,7.962 8.668,5.481 1.524,-1.187 1.47,-1.682 -0.687,-6.288 C 415.177,573.174 412,566.048 412,565.48 c 0,-0.332 -1.1,-2.938 -2.445,-5.792 -1.344,-2.853 -3.781,-8.338 -5.415,-12.188 -4.203,-9.909 -5.966,-9.915 -10.589,-0.041 M 237.2,548.2 c -0.723,0.723 -1.2,4.222 -1.2,8.8 0,4.578 0.477,8.077 1.2,8.8 3.07,3.07 12.768,0.095 15.234,-4.672 1.953,-3.776 1.949,-4.518 -0.039,-8.709 -1.177,-2.479 -2.58,-3.654 -5.25,-4.396 -4.862,-1.35 -8.482,-1.286 -9.945,0.177 m 159.288,10.05 c -0.356,1.237 -1.316,3.73 -2.133,5.54 -2.474,5.476 -1.64,6.668 4.905,7.01 6.753,0.353 7.098,-0.454 3.598,-8.423 -2.934,-6.681 -5.212,-8.156 -6.37,-4.127"
       stroke="none"
       fill="#f2e6e8"
       fill-rule="evenodd"
       id="path1-3"
       sodipodi:nodetypes="cccsccccccccscccccscsccccccccccccccccccccccccsccccccccsccccscccccccccccccsscccccccccsccsscccccscscscccccccccsccscccccsccccscsccccccscccscscccsssscccccsscccccccccssccccccccccccscccccccccscccccccccscsssscccccccsscccsscsccccccccscccccccccccccccccscccccccccccccccccsccccscccccsccscccsccscccccccccsssccsssssscccsscccscsscsscccscssccccssccccssccccccccc" /></g></svg>
