<?xml version="1.0" encoding="UTF-8" standalone="no"?>
<svg
   viewBox="0 0 24 24"
   width="24pt"
   height="24pt"
   version="1.1"
   id="svg4"
   sodipodi:docname="evos.svg"
   xml:space="preserve"
   inkscape:version="1.2.2 (732a01da63, 2022-12-09)"
   xmlns:inkscape="http://www.inkscape.org/namespaces/inkscape"
   xmlns:sodipodi="http://sodipodi.sourceforge.net/DTD/sodipodi-0.dtd"
   xmlns="http://www.w3.org/2000/svg"
   xmlns:svg="http://www.w3.org/2000/svg"><defs
     id="defs8" /><sodipodi:namedview
     id="namedview6"
     pagecolor="#ffffff"
     bordercolor="#000000"
     borderopacity="0.25"
     inkscape:showpageshadow="2"
     inkscape:pageopacity="0.0"
     inkscape:pagecheckerboard="0"
     inkscape:deskcolor="#d1d1d1"
     inkscape:document-units="pt"
     showgrid="false"
     inkscape:zoom="26.03125"
     inkscape:cx="15.961585"
     inkscape:cy="16.038415"
     inkscape:window-width="1920"
     inkscape:window-height="991"
     inkscape:window-x="334"
     inkscape:window-y="1431"
     inkscape:window-maximized="1"
     inkscape:current-layer="svg4" /><g
     id="g439"
     transform="matrix(0.75,0,0,0.75,1.8043217,3.3889556)"><ellipse
       id="circle"
       vector-effect="non-scaling-stroke"
       display="none"
       fill="#ffffff"
       cx="12"
       cy="9.7690001"
       rx="6.566"
       ry="6.494" /><g
       id="g366"
       transform="matrix(1.3310061,0,0,1.3310061,-2.4509699,-4.1747509)">
	<g
   id="g364">
		<path
   fill="#8cc63f"
   d="m 12.6,4.515 c 2.381,0.146 4.664,0.746 6.903,1.532 0.453,0.159 0.672,0.496 0.674,0.977 0.002,2.037 0.003,4.073 0,6.11 -0.002,0.551 -0.244,0.883 -0.761,1.055 -1.888,0.631 -3.804,1.146 -5.783,1.396 -0.432,0.053 -0.868,0.07 -1.303,0.104 -0.171,0.045 -0.345,0.01 -0.518,0.021 C 9.984,15.749 8.227,15.341 6.485,14.845 5.884,14.675 5.286,14.497 4.694,14.296 4.284,14.155 3.998,13.909 3.931,13.46 c 0,-0.021 0,-0.045 0,-0.066 C 3.997,13.279 3.964,13.152 3.964,13.033 3.966,10.961 3.965,8.891 3.965,6.821 3.918,6.323 4.228,6.083 4.632,5.936 5.274,5.703 5.919,5.479 6.579,5.303 7.759,4.989 8.943,4.694 10.157,4.549 10.622,4.493 11.093,4.48 11.563,4.493 11.909,4.505 12.255,4.467 12.6,4.515 Z"
   id="path240" />
		<path
   fill="#8bc63f"
   d="M 3.931,6.742 C 3.952,6.741 3.972,6.738 3.992,6.733 c 0.002,2.138 0.004,4.275 0.005,6.412 0,0.088 0.021,0.184 -0.066,0.248 0,-2.217 0,-4.434 0,-6.651 z"
   id="path242" />
		<path
   fill="#fefefd"
   d="m 19.851,10.122 c 0,0.873 0.003,1.746 0,2.621 -0.003,0.732 -0.222,1.029 -0.915,1.248 -1.771,0.559 -3.563,1.018 -5.414,1.246 -1.647,0.201 -3.256,0 -4.863,-0.318 C 7.442,14.677 6.252,14.331 5.073,13.948 4.532,13.772 4.286,13.448 4.283,12.88 4.276,11.034 4.279,9.186 4.282,7.339 c 0.001,-0.49 0.233,-0.846 0.697,-1 2.447,-0.814 4.927,-1.471 7.538,-1.408 1.564,0.038 3.074,0.408 4.585,0.771 0.674,0.162 1.331,0.382 1.984,0.609 0.514,0.178 0.76,0.509 0.764,1.057 0.005,0.917 10e-4,1.836 10e-4,2.754 z"
   id="path244" />
		<path
   fill="#8bc63f"
   d="M 4.493,10.102 C 4.493,9.195 4.491,8.289 4.494,7.383 4.495,6.952 4.676,6.669 5.074,6.537 7.296,5.797 9.551,5.206 11.909,5.139 c 1.522,-0.043 2.999,0.281 4.472,0.615 0.884,0.2 1.749,0.461 2.604,0.758 0.455,0.157 0.652,0.418 0.654,0.896 0.004,1.802 0.004,3.604 0,5.407 -0.002,0.533 -0.178,0.764 -0.691,0.932 -2.109,0.693 -4.252,1.232 -6.478,1.355 C 11.348,15.166 10.239,14.993 9.138,14.789 7.807,14.545 6.508,14.176 5.221,13.766 4.655,13.584 4.494,13.36 4.493,12.756 c -0.001,-0.885 0,-1.769 0,-2.654 z"
   id="path246" />
		<path
   fill="#fefefd"
   d="M 9.281,10.082 C 9.092,10.265 9.028,10.424 9.154,10.674 9.272,10.908 9.185,11.168 8.988,11.348 8.335,11.943 7.542,12.044 6.724,11.884 5.965,11.736 5.451,11.246 5.239,10.491 4.993,9.621 5.262,8.594 6.386,7.985 6.206,7.928 6.084,7.83 5.992,7.699 5.764,7.375 5.879,6.912 6.251,6.732 6.802,6.467 7.376,6.47 7.952,6.64 8.244,6.726 8.482,6.883 8.519,7.227 8.557,7.582 8.414,7.833 8.067,7.979 8.278,8.163 8.543,8.251 8.711,8.48 8.8,8.347 8.862,8.219 8.955,8.12 9.35,7.692 10.053,7.824 10.28,8.372 10.403,8.668 10.496,8.977 10.627,9.353 10.748,9.019 10.85,8.751 10.94,8.479 11.057,8.13 11.263,7.895 11.655,7.876 12.06,7.858 12.293,8.011 12.482,8.418 12.491,8.435 12.513,8.447 12.548,8.479 12.745,8.29 12.97,8.13 13.238,7.992 12.891,7.826 12.731,7.576 12.782,7.208 c 0.053,-0.377 0.336,-0.503 0.645,-0.593 0.453,-0.132 0.909,-0.113 1.36,0.008 0.319,0.086 0.584,0.251 0.623,0.617 0.04,0.365 -0.135,0.613 -0.511,0.75 0.396,0.223 0.722,0.474 0.951,0.889 0.18,-0.509 0.509,-0.812 0.984,-0.953 0.513,-0.151 1.015,-0.123 1.508,0.081 0.338,0.14 0.613,0.338 0.639,0.741 0.025,0.388 -0.182,0.629 -0.549,0.775 0.296,0.22 0.562,0.437 0.62,0.814 0.104,0.67 -0.21,1.234 -0.885,1.473 -0.727,0.258 -1.432,0.166 -2.092,-0.239 -0.148,-0.089 -0.239,-0.232 -0.355,-0.401 -0.586,0.695 -1.343,0.914 -2.193,0.712 -0.888,-0.21 -1.367,-0.833 -1.535,-1.816 -0.116,0.267 -0.197,0.45 -0.275,0.634 -0.079,0.185 -0.163,0.368 -0.233,0.556 -0.149,0.401 -0.388,0.665 -0.858,0.663 C 10.154,11.918 9.926,11.643 9.769,11.25 9.617,10.865 9.451,10.487 9.281,10.082 Z"
   id="path248" />
		<path
   fill="#f9fbf5"
   d="m 11.258,13.807 c -0.225,0.229 -0.477,0.213 -0.713,0.043 -0.181,-0.131 -0.214,-0.334 -0.125,-0.541 0.115,-0.264 0.346,-0.289 0.59,-0.248 0.071,0.012 0.14,0.063 0.2,0.109 0.052,0.041 0.095,0.102 0.041,0.172 -0.06,0.078 -0.115,0.035 -0.161,-0.02 -0.121,-0.148 -0.266,-0.176 -0.402,-0.043 -0.112,0.107 -0.138,0.258 -0.042,0.396 0.118,0.17 0.268,0.152 0.426,0.068 -0.007,-0.152 -0.193,-0.076 -0.206,-0.219 0.125,-0.09 0.251,-0.074 0.381,0.01 0.054,0.091 0.082,0.181 0.011,0.273 z"
   id="path250" />
		<path
   fill="#f8fbf5"
   d="m 16.01,12.918 c 0.038,-0.119 0.122,-0.191 0.243,-0.193 0.129,-0.004 0.188,-0.031 0.127,-0.173 -0.021,-0.05 0,-0.116 0.067,-0.131 0.069,-0.014 0.097,0.042 0.113,0.095 0.064,0.201 0.137,0.4 0.186,0.604 0.033,0.135 -0.299,0.316 -0.492,0.266 -0.082,-0.02 -0.155,-0.076 -0.231,-0.115 -0.116,-0.115 -0.053,-0.234 -0.013,-0.353 z"
   id="path252" />
		<path
   fill="#f6faf0"
   d="m 14.502,12.945 c -0.064,0.16 -0.189,0.096 -0.273,0.133 -0.057,0.025 -0.146,0.02 -0.137,0.113 0.008,0.096 0.089,0.084 0.152,0.084 0.076,0 0.152,-0.018 0.261,0.066 -0.22,0.098 -0.434,0.172 -0.388,0.465 0.014,0.08 -0.127,0.059 -0.16,-0.027 -0.031,-0.082 -0.035,-0.176 -0.051,-0.262 -0.103,-0.576 -0.019,-0.66 0.596,-0.572 z"
   id="path254" />
		<path
   fill="#f4f9ed"
   d="m 15.219,13.25 c 0.212,-0.41 0.333,-0.451 0.735,-0.254 0.054,0.133 0.047,0.264 0.004,0.398 -0.168,0.188 -0.362,0.262 -0.571,0.08 -0.114,-0.098 -0.117,0.027 -0.17,0.055 -0.082,-0.093 -0.082,-0.187 0.002,-0.279 z"
   id="path256" />
		<path
   fill="#f7faf1"
   d="M 8.163,13.068 C 7.972,12.986 7.977,13.15 7.926,13.252 7.897,13.309 7.858,13.379 7.774,13.336 7.716,13.305 7.715,13.246 7.732,13.19 7.786,12.997 7.84,12.803 7.897,12.61 7.933,12.486 8.018,12.464 8.131,12.505 8.274,12.558 8.46,12.54 8.545,12.685 8.584,12.749 8.483,12.771 8.41,12.763 8.303,12.751 8.149,12.6 8.1,12.757 c -0.066,0.205 0.21,0.119 0.283,0.229 -0.028,0.151 -0.131,0.098 -0.22,0.082 z"
   id="path258" />
		<path
   fill="#f5f9ef"
   d="m 12.538,13.465 c 0.183,-0.252 0.442,-0.098 0.667,-0.129 0.076,0.031 0.1,0.092 0.097,0.168 -0.033,0.164 0.032,0.352 -0.119,0.486 -0.115,-0.012 -0.216,-0.098 -0.349,-0.016 -0.109,0.068 -0.239,0.037 -0.31,-0.1 -0.021,-0.023 -0.033,-0.051 -0.039,-0.082 0.001,-0.031 0.01,-0.061 0.024,-0.088 0.047,-0.08 0.156,-0.063 0.209,-0.127 -0.002,-0.029 -0.012,0.006 -0.014,-0.002 -0.016,0.014 -0.032,0.025 -0.052,0.037 -0.088,-0.01 -0.148,-0.042 -0.114,-0.147 z"
   id="path260" />
		<path
   fill="#f6f9f0"
   d="m 9.103,13.207 c 0.381,-0.213 0.56,-0.164 0.672,0.186 -0.063,0.158 -0.208,0.123 -0.316,0.135 0.087,0.023 0.235,-0.051 0.258,0.135 C 9.47,13.796 9.253,13.784 9.084,13.534 9.047,13.475 9.027,13.411 9.035,13.341 9.041,13.287 9.061,13.242 9.103,13.207 Z"
   id="path262" />
		<path
   fill="#fbfcf8"
   d="m 15.219,13.25 c -10e-4,0.092 -10e-4,0.186 -0.002,0.279 -0.147,0.242 -0.358,0.27 -0.56,0.104 -0.15,-0.121 -0.179,-0.311 -0.025,-0.471 0.164,-0.172 0.403,-0.133 0.587,0.088 z"
   id="path264" />
		<path
   fill="#f7faf2"
   d="m 8.961,13.521 c -0.407,0.166 -0.58,0.049 -0.587,-0.396 0.017,-0.066 0.077,-0.094 0.118,-0.139 0.176,-0.09 0.341,-0.102 0.479,0.07 -0.006,0.072 -0.03,0.135 -0.111,0.154 -0.019,0.002 -0.058,-0.055 -0.053,0.018 0.006,0.037 -0.001,0.07 -0.02,0.102 -0.001,0.117 0.22,0.035 0.174,0.191 z"
   id="path266" />
		<path
   fill="#f9fbf5"
   d="m 13.269,13.457 c -0.021,-0.041 -0.042,-0.08 -0.063,-0.121 0.094,-0.063 -0.025,-0.289 0.167,-0.246 0.038,0.01 0.258,0.146 0.123,0.355 -0.097,0.148 -0.046,0.336 0.182,0.396 -0.11,0.135 -0.226,0.088 -0.331,0.082 -0.144,-0.136 -0.136,-0.296 -0.078,-0.466 z"
   id="path268" />
		<path
   fill="#eaf3db"
   d="m 11.258,13.807 c -0.003,-0.09 -0.006,-0.18 -0.009,-0.271 0.046,-0.016 0.076,0.123 0.118,0.025 0.116,-0.268 0.236,-0.301 0.495,-0.119 0.024,0.037 0.019,0.072 -0.014,0.1 -0.173,-0.055 -0.274,-0.014 -0.276,0.189 -10e-4,0.094 -10e-4,0.217 -0.109,0.25 -0.127,0.037 -0.098,-0.159 -0.205,-0.174 z"
   id="path270" />
		<path
   fill="#f4f9ed"
   d="m 11.848,13.541 c 0.005,-0.033 0.01,-0.066 0.014,-0.1 0.042,-0.016 0.085,-0.033 0.126,-0.051 0.114,-0.047 0.227,-0.049 0.34,0.002 0.044,0.021 0.09,0.045 0.134,0.066 0.076,0.098 0.122,0.193 0.008,0.293 -0.113,0.094 -0.307,-0.002 -0.39,0.164 -0.049,0.047 -0.102,0.061 -0.159,0.016 -0.119,-0.113 -0.188,-0.234 -0.073,-0.39 z"
   id="path272" />
		<path
   fill="#edf5e1"
   d="m 9.825,13.455 c 0.023,-0.133 0.045,-0.264 0.069,-0.395 0.012,-0.066 0.03,-0.143 0.118,-0.123 0.077,0.016 0.094,0.092 0.084,0.16 C 10.068,13.294 10.037,13.492 10,13.687 9.989,13.75 9.979,13.837 9.896,13.835 9.795,13.833 9.801,13.73 9.776,13.659 9.737,13.58 9.762,13.512 9.825,13.455 Z"
   id="path274" />
		<path
   fill="#97c951"
   d="M 9.825,13.455 C 9.84,13.531 9.818,13.598 9.776,13.66 l -0.03,0.002 h -0.03 c -0.083,-0.203 -0.36,0.086 -0.429,-0.18 0.155,-0.072 0.354,0.076 0.488,-0.09 0.017,0.02 0.034,0.042 0.05,0.063 z"
   id="path276" />
		<path
   fill="#a8d16d"
   d="M 8.961,13.521 C 8.902,13.386 8.789,13.49 8.704,13.464 8.637,13.443 8.565,13.409 8.582,13.339 8.612,13.21 8.706,13.327 8.768,13.308 8.887,13.249 9.001,13.216 9.096,13.349 9.092,13.412 9.088,13.472 9.084,13.533 9.042,13.529 9.002,13.525 8.961,13.521 Z"
   id="path278" />
		<path
   fill="#f0f6e6"
   d="m 11.921,13.932 c 0.055,-0.004 0.106,-0.012 0.138,-0.066 0.146,-0.086 0.301,-0.129 0.469,-0.072 0,0.027 -0.002,0.055 -0.003,0.082 -0.191,0.138 -0.387,0.204 -0.604,0.056 z"
   id="path280" />
		<path
   fill="#f9fbf6"
   d="M 9.095,13.35 C 8.986,13.336 8.876,13.323 8.767,13.309 c 0,-0.033 0,-0.068 0,-0.102 0.015,-0.031 0.036,-0.037 0.063,-0.018 0.046,-0.045 0.093,-0.09 0.14,-0.133 0.044,0.049 0.088,0.1 0.132,0.15 C 9.1,13.254 9.098,13.303 9.095,13.35 Z"
   id="path282" />
		<path
   fill="#92c849"
   d="m 13.269,13.457 c -0.003,0.16 0.007,0.318 0.077,0.469 -0.055,0.021 -0.109,0.043 -0.163,0.064 0.086,-0.168 -0.093,-0.379 0.086,-0.533 z"
   id="path284" />
		<path
   fill="#acd374"
   d="m 12.449,13.719 c 0.069,-0.084 0.023,-0.172 0.013,-0.26 0.024,0.002 0.052,0.004 0.076,0.006 0.032,0.041 0.063,0.082 0.095,0.123 0.041,-0.029 0.078,-0.025 0.109,0.014 -0.072,0.041 -0.145,0.084 -0.216,0.127 -0.03,0.031 -0.055,0.029 -0.077,-0.01 z"
   id="path286" />
		<path
   fill="#b5d683"
   d="m 15.958,13.395 c -10e-4,-0.133 -0.003,-0.266 -0.004,-0.398 0.018,-0.025 0.037,-0.053 0.056,-0.078 0.004,0.117 0.008,0.234 0.012,0.352 -0.021,0.04 -0.043,0.081 -0.064,0.124 z"
   id="path288" />
		<path
   fill="#a4cd6a"
   d="m 8.491,12.986 c -0.039,0.045 -0.078,0.092 -0.118,0.139 -0.077,0.004 -0.155,0.014 -0.211,-0.057 0.08,-0.012 0.178,0.029 0.219,-0.084 0.037,0 0.074,0 0.11,0.002 z"
   id="path290" />
		<path
   fill="#f2f7e9"
   d="m 12.328,13.393 c -0.113,0 -0.226,0 -0.339,-0.002 0.113,-0.071 0.226,-0.092 0.339,0.002 z"
   id="path292" />
		<path
   fill="#010100"
   d="m 6.462,10.191 c 0.128,0.496 0.547,0.743 1.053,0.663 0.292,-0.046 0.542,-0.188 0.804,-0.308 0.201,-0.092 0.365,-0.039 0.489,0.146 0.117,0.176 0.059,0.327 -0.078,0.446 C 7.896,11.857 6.003,11.884 5.562,10.43 5.357,9.757 5.508,9.144 6.016,8.65 6.516,8.164 7.129,8.045 7.778,8.267 8.425,8.489 8.84,8.951 8.94,9.647 8.996,10.034 8.859,10.186 8.467,10.19 7.808,10.196 7.149,10.191 6.462,10.191 Z"
   id="path294" />
		<path
   fill="#8bc63f"
   d="m 10.628,10.166 c 0.208,-0.593 0.386,-1.095 0.56,-1.598 0.1,-0.286 0.275,-0.453 0.6,-0.414 0.337,0.041 0.553,0.333 0.428,0.646 -0.339,0.849 -0.697,1.691 -1.059,2.531 -0.098,0.227 -0.297,0.319 -0.544,0.315 -0.25,-0.004 -0.43,-0.11 -0.528,-0.34 C 9.746,10.505 9.403,9.706 9.075,8.9 8.936,8.56 9.051,8.282 9.337,8.179 9.673,8.059 9.93,8.19 10.065,8.561 c 0.181,0.504 0.355,1.009 0.563,1.605 z"
   id="path296" />
		<path
   fill="#8bc63f"
   d="m 15.843,9.893 c 0.004,1.03 -0.727,1.764 -1.769,1.775 -1.026,0.01 -1.8,-0.74 -1.803,-1.748 -0.004,-1.012 0.78,-1.809 1.792,-1.822 0.975,-0.011 1.775,0.796 1.78,1.795 z"
   id="path298" />
		<path
   fill="#8bc63f"
   d="m 18.371,9.841 c 0.603,0.289 0.629,1.231 -0.104,1.622 -0.666,0.354 -1.338,0.278 -1.976,-0.083 -0.21,-0.118 -0.415,-0.297 -0.273,-0.599 0.126,-0.268 0.386,-0.349 0.711,-0.227 0.217,0.081 0.405,0.243 0.653,0.235 0.139,-0.004 0.32,0.045 0.377,-0.128 0.064,-0.195 -0.131,-0.222 -0.25,-0.291 -0.028,-0.016 -0.054,-0.036 -0.081,-0.055 -0.024,-0.031 -0.025,-0.061 -0.002,-0.092 0.32,-0.013 0.536,0.147 0.537,0.396 0,0.212 -0.177,0.349 -0.474,0.369 -0.254,0.018 -0.479,-0.076 -0.708,-0.171 -0.183,-0.077 -0.418,-0.193 -0.526,0.053 -0.109,0.247 0.138,0.345 0.318,0.421 0.5,0.211 1.006,0.287 1.52,0.028 0.561,-0.283 0.669,-0.765 0.273,-1.255 -0.028,-0.035 -0.056,-0.07 -0.074,-0.111 -0.01,-0.062 0.024,-0.095 0.079,-0.112 z"
   id="path300" />
		<path
   fill="#8bc63f"
   d="m 17.43,10.244 c 0,0.024 -0.001,0.048 -0.002,0.072 C 17.11,10.247 16.807,10.134 16.536,9.955 15.931,9.553 15.945,8.723 16.57,8.351 17.191,7.982 17.829,8.028 18.444,8.365 18.768,8.543 18.8,8.815 18.576,9.11 18.549,9.087 18.532,9.059 18.522,9.026 18.573,8.686 18.39,8.511 18.093,8.411 17.668,8.268 17.243,8.249 16.823,8.426 16.509,8.559 16.337,8.8 16.311,9.145 c -0.026,0.348 0.157,0.563 0.44,0.72 0.136,0.077 0.281,0.133 0.427,0.188 0.103,0.036 0.22,0.06 0.252,0.191 z"
   id="path302" />
		<path
   fill="#8bc63f"
   d="M 7.269,6.806 C 7.488,6.791 7.736,6.851 7.978,6.942 8.214,7.029 8.318,7.196 8.245,7.44 8.17,7.69 7.987,7.766 7.745,7.686 7.384,7.565 7.026,7.553 6.663,7.683 6.441,7.762 6.261,7.701 6.175,7.47 6.092,7.248 6.177,7.07 6.381,6.965 6.645,6.83 6.932,6.796 7.269,6.806 Z"
   id="path304" />
		<path
   fill="#8bc63f"
   d="M 18.371,9.841 C 18.352,9.859 18.334,9.877 18.314,9.895 17.866,9.848 17.452,9.691 17.096,9.423 16.921,9.29 16.874,9.082 17.124,8.931 c 0.059,-0.002 0.105,0.013 0.108,0.083 -0.242,0.241 -0.012,0.319 0.149,0.393 0.33,0.15 0.699,0.202 0.99,0.434 z"
   id="path306" />
		<path
   fill="#8bc63f"
   d="M 17.233,9.015 C 17.212,8.997 17.189,8.979 17.169,8.961 c -0.004,-0.178 0.141,-0.14 0.237,-0.15 0.191,-0.021 0.378,0.029 0.547,0.115 0.199,0.102 0.406,0.084 0.615,0.083 0.003,0.033 0.005,0.066 0.008,0.1 -0.171,0.212 -0.373,0.137 -0.575,0.06 C 17.754,9.075 17.514,8.946 17.233,9.015 Z"
   id="path308" />
		<path
   fill="#9dcc5c"
   d="m 16.375,10.203 c -0.098,0.008 -0.191,0.142 -0.273,0.01 -0.021,-0.032 0,-0.131 0.029,-0.144 0.137,-0.067 0.154,0.096 0.244,0.134 z"
   id="path310" />
		<path
   fill="#95c94e"
   d="m 16.366,12.861 c 0.101,0.035 0.142,0.117 0.134,0.227 -0.007,0.09 -0.062,0.154 -0.15,0.139 -0.119,-0.02 -0.152,-0.123 -0.147,-0.227 0.003,-0.084 0.052,-0.146 0.163,-0.139 z"
   id="path312" />
		<path
   fill="#93c94b"
   d="m 15.651,13.402 c -0.105,-0.008 -0.161,-0.066 -0.169,-0.166 -0.009,-0.102 0.025,-0.174 0.142,-0.178 0.097,-0.002 0.134,0.061 0.144,0.145 0.009,0.094 -0.002,0.178 -0.117,0.199 z"
   id="path314" />
		<path
   fill="#93c74b"
   d="m 12.449,13.719 c 0.025,0.002 0.052,0.006 0.077,0.01 0,0.021 10e-4,0.043 10e-4,0.064 -0.164,-0.023 -0.302,0.119 -0.469,0.074 -0.08,-0.074 -0.079,-0.127 0.041,-0.137 0.117,-0.007 0.233,-0.007 0.35,-0.011 z"
   id="path316" />
		<path
   fill="#9aca58"
   d="m 12.674,13.754 c 0.104,-0.023 0.193,-0.047 0.3,-0.072 -0.107,0.183 -0.107,0.183 -0.3,0.072 z"
   id="path318" />
		<path
   fill="#9ecc5e"
   d="m 12.742,13.602 c -0.036,-0.004 -0.072,-0.01 -0.109,-0.014 0.089,-0.086 0.172,-0.186 0.316,-0.102 -0.019,0.133 -0.129,0.096 -0.207,0.116 z"
   id="path320" />
		<path
   fill="#a7d16d"
   d="m 9.333,13.285 c 0.071,-0.098 0.145,-0.086 0.214,-0.012 0.014,0.016 0.009,0.076 -0.002,0.082 -0.087,0.038 -0.154,0 -0.212,-0.07 z"
   id="path322" />
		<path
   fill="#9bcc58"
   d="m 14.91,13.582 c -0.11,-0.025 -0.168,-0.094 -0.165,-0.209 0.002,-0.1 0.035,-0.18 0.148,-0.172 0.12,0.006 0.163,0.1 0.171,0.203 0.007,0.104 -0.055,0.159 -0.154,0.178 z"
   id="path324" />
		<path
   fill="#9ecc5d"
   d="m 8.831,13.189 c -0.021,0.004 -0.043,0.008 -0.063,0.018 -0.044,-0.021 -0.121,0 -0.116,-0.08 0.001,-0.021 0.04,-0.057 0.065,-0.059 0.082,-0.007 0.116,0.043 0.114,0.121 z"
   id="path326" />
		<path
   fill="#a5d168"
   d="m 12.283,13.572 c -0.032,0.09 -0.093,0.1 -0.165,0.08 -0.051,-0.014 -0.125,-0.02 -0.104,-0.094 0.021,-0.068 0.09,-0.094 0.163,-0.082 0.06,0.008 0.102,0.038 0.106,0.096 z"
   id="path328" />
		<path
   fill="#8bc63f"
   d="m 7.221,8.854 c 0.44,0.035 0.704,0.215 0.79,0.539 0.04,0.15 0.036,0.249 -0.174,0.242 C 7.403,9.621 6.969,9.626 6.535,9.632 6.349,9.635 6.307,9.581 6.427,9.43 6.455,9.412 6.486,9.408 6.518,9.417 6.93,9.537 7.348,9.449 7.79,9.481 7.715,9.147 7.444,9.102 7.23,8.988 7.191,8.946 7.188,8.901 7.221,8.854 Z"
   id="path330" />
		<path
   fill="#8bc63f"
   d="m 7.221,8.854 c 0,0.025 0,0.052 0.001,0.078 C 7.099,9.091 6.93,9.121 6.743,9.101 6.719,9.068 6.718,9.036 6.74,9.001 6.877,8.876 7.043,8.846 7.221,8.854 Z"
   id="path332" />
		<path
   fill="#8bc63f"
   d="M 6.74,9.001 C 6.744,9.027 6.747,9.054 6.75,9.08 6.788,9.249 6.695,9.301 6.548,9.305 6.514,9.256 6.51,9.208 6.551,9.162 6.582,9.07 6.66,9.035 6.74,9.001 Z"
   id="path334" />
		<path
   fill="#82a456"
   d="M 6.551,9.162 C 6.552,9.211 6.553,9.261 6.555,9.311 6.593,9.376 6.583,9.419 6.503,9.432 6.477,9.431 6.452,9.431 6.428,9.43 6.427,9.322 6.482,9.239 6.551,9.162 Z"
   id="path336" />
		<path
   fill="#010101"
   d="m 10.664,10.374 c 0.217,-0.611 0.425,-1.192 0.63,-1.774 0.049,-0.14 0.102,-0.272 0.26,-0.324 0.175,-0.057 0.341,-0.02 0.474,0.089 0.133,0.109 0.148,0.285 0.087,0.434 -0.349,0.842 -0.697,1.686 -1.072,2.517 -0.148,0.328 -0.694,0.313 -0.844,-0.023 C 9.829,10.459 9.489,9.613 9.141,8.77 9.044,8.535 9.157,8.369 9.368,8.289 9.62,8.191 9.835,8.26 9.936,8.532 c 0.197,0.531 0.385,1.065 0.574,1.6 0.026,0.072 0.035,0.152 0.154,0.242 z"
   id="path338" />
		<path
   fill="#010100"
   d="m 12.391,9.89 c 10e-4,-0.938 0.734,-1.672 1.675,-1.673 0.922,-0.001 1.681,0.754 1.686,1.678 0.006,0.933 -0.737,1.68 -1.671,1.682 -0.974,0.002 -1.692,-0.716 -1.69,-1.687 z"
   id="path340" />
		<path
   fill="#010100"
   d="M 18.568,9.009 C 18.39,9.173 18.211,9.15 18.001,9.053 17.74,8.933 17.468,8.784 17.169,8.961 c -0.208,0.232 -0.184,0.383 0.109,0.515 0.341,0.152 0.69,0.28 1.037,0.419 0.624,0.555 0.501,1.234 -0.284,1.556 -0.595,0.245 -1.159,0.127 -1.694,-0.176 -0.165,-0.093 -0.327,-0.226 -0.213,-0.459 0.112,-0.229 0.313,-0.225 0.521,-0.173 0.074,0.019 0.141,0.067 0.213,0.096 0.134,0.054 0.267,0.133 0.405,0.148 0.235,0.026 0.548,0.102 0.616,-0.222 0.065,-0.303 -0.221,-0.361 -0.449,-0.422 -0.264,-0.116 -0.543,-0.21 -0.791,-0.354 -0.578,-0.335 -0.585,-1.107 -0.013,-1.453 0.566,-0.342 1.153,-0.298 1.724,-0.003 0.223,0.115 0.363,0.301 0.218,0.576 z"
   id="path342" />
		<path
   fill="#070904"
   d="M 7.553,6.926 C 7.686,6.977 7.821,7.022 7.951,7.079 8.094,7.141 8.21,7.241 8.15,7.412 8.09,7.582 7.926,7.651 7.771,7.605 7.369,7.484 6.98,7.414 6.575,7.603 6.448,7.663 6.335,7.564 6.288,7.438 6.238,7.304 6.246,7.158 6.386,7.085 6.522,7.014 6.677,6.978 6.824,6.925 7.067,6.902 7.311,6.902 7.553,6.926 Z"
   id="path344" />
		<path
   fill="#eef5e5"
   d="M 6.502,9.432 C 6.52,9.391 6.537,9.35 6.555,9.31 6.62,9.234 6.685,9.157 6.75,9.08 6.897,8.999 7.055,8.951 7.222,8.932 7.516,8.962 7.759,9.078 7.885,9.36 7.913,9.423 7.987,9.551 7.821,9.553 7.4,9.555 6.979,9.547 6.558,9.537 6.538,9.537 6.521,9.468 6.502,9.432 Z"
   id="path346" />
		<path
   fill="#8bc63f"
   d="m 13.604,10.71 c -0.431,-0.362 -0.517,-1.015 -0.191,-1.453 0.267,-0.36 0.569,-0.431 1.015,-0.238 -0.031,0.046 -0.078,0.067 -0.131,0.08 -0.789,0.056 -1.08,0.567 -0.74,1.304 0.033,0.069 0.077,0.134 0.085,0.214 -10e-4,0.036 -0.013,0.068 -0.038,0.093 z"
   id="path348" />
		<path
   fill="#8bc63f"
   d="m 14.266,9.027 c 0.055,-0.002 0.108,-0.005 0.162,-0.007 0.559,0.389 0.636,1.09 0.176,1.618 C 14.537,10.652 14.52,10.608 14.51,10.556 14.665,10.189 14.829,9.83 14.588,9.425 14.497,9.272 14.29,9.226 14.266,9.027 Z"
   id="path350" />
		<path
   fill="#8bc63f"
   d="m 13.604,10.71 c 0,-0.029 0.001,-0.059 0.001,-0.089 0.239,-0.051 0.451,0.085 0.684,0.094 0.035,0.015 0.061,0.039 0.078,0.072 C 14.1,10.896 13.842,10.9 13.604,10.71 Z"
   id="path352" />
		<path
   fill="#8bc63f"
   d="m 14.134,6.798 c 0.219,-0.015 0.467,0.045 0.71,0.136 0.235,0.087 0.34,0.254 0.267,0.498 -0.075,0.25 -0.259,0.326 -0.5,0.246 -0.361,-0.119 -0.72,-0.132 -1.082,-0.002 -0.222,0.079 -0.402,0.018 -0.488,-0.212 -0.083,-0.222 0.002,-0.4 0.206,-0.505 0.263,-0.137 0.55,-0.17 0.887,-0.161 z"
   id="path354" />
		<path
   fill="#8bc63f"
   d="m 14.367,10.788 c -0.037,-0.009 -0.074,-0.017 -0.113,-0.025 0.051,-0.137 0.13,-0.228 0.293,-0.179 0.019,0.018 0.038,0.036 0.057,0.054 -0.049,0.097 -0.14,0.127 -0.237,0.15 z"
   id="path356" />
		<path
   fill="#f8faf5"
   d="m 14.547,10.583 c -0.098,0.06 -0.194,0.119 -0.293,0.179 -0.234,0.039 -0.445,-0.032 -0.648,-0.141 -0.158,-0.208 -0.274,-0.428 -0.275,-0.701 -0.004,-0.612 0.304,-0.911 0.936,-0.894 0.653,0.332 0.653,1.114 0.28,1.557 z"
   id="path358" />
		<path
   fill="#8dc741"
   d="m 13.604,9.902 c -10e-4,-0.341 0.194,-0.601 0.452,-0.604 0.253,-0.002 0.47,0.266 0.476,0.589 0.007,0.318 -0.206,0.594 -0.462,0.602 -0.261,0.011 -0.465,-0.246 -0.466,-0.587 z"
   id="path360" />
		<path
   fill="#060804"
   d="m 14.1,6.848 c 0.259,-0.003 0.508,0.063 0.746,0.153 0.18,0.068 0.309,0.202 0.233,0.416 C 15.004,7.634 14.842,7.694 14.625,7.62 14.268,7.498 13.91,7.478 13.551,7.622 13.377,7.69 13.205,7.662 13.127,7.474 13.04,7.267 13.117,7.093 13.318,7.004 13.564,6.895 13.828,6.848 14.1,6.848 Z"
   id="path362" />
	</g>
</g></g></svg>
