<?xml version="1.0" encoding="UTF-8" standalone="no"?>
<svg
   viewBox="0 0 24 24"
   width="24pt"
   height="24pt"
   version="1.1"
   id="svg1"
   xml:space="preserve"
   sodipodi:docname="fourstarpizzaalt.svg"
   inkscape:version="1.3.2 (091e20e, 2023-11-25, custom)"
   xmlns:inkscape="http://www.inkscape.org/namespaces/inkscape"
   xmlns:sodipodi="http://sodipodi.sourceforge.net/DTD/sodipodi-0.dtd"
   xmlns="http://www.w3.org/2000/svg"
   xmlns:svg="http://www.w3.org/2000/svg"><sodipodi:namedview
     id="namedview1"
     pagecolor="#505050"
     bordercolor="#eeeeee"
     borderopacity="1"
     inkscape:showpageshadow="0"
     inkscape:pageopacity="0"
     inkscape:pagecheckerboard="0"
     inkscape:deskcolor="#505050"
     inkscape:document-units="pt"
     inkscape:zoom="33.5"
     inkscape:cx="21.373134"
     inkscape:cy="16.238806"
     inkscape:window-width="2400"
     inkscape:window-height="1261"
     inkscape:window-x="2391"
     inkscape:window-y="-9"
     inkscape:window-maximized="1"
     inkscape:current-layer="svg1" /><defs
     id="defs1" /><g
     id="g1"
     transform="matrix(0.0977849,0,0,0.0977849,5.9266914,2.3664021)"><path
       d="m 85.122,37.722 c -2.236,0.424 -2.341,0.758 -1.779,5.614 0.329,2.84 0.903,9.552 1.275,14.914 L 85.295,68 h 4.495 4.495 l -0.642,-6.25 -0.642,-6.25 1.979,2.993 c 1.088,1.646 2.492,4.233 3.121,5.75 1,2.416 1.684,2.757 5.52,2.757 2.675,0 4.379,-0.455 4.379,-1.169 0,-0.643 -1.364,-3.585 -3.03,-6.538 -2.807,-4.974 -2.918,-5.53 -1.5,-7.554 2.41,-3.44 1.961,-9.399 -0.925,-12.284 -2.125,-2.126 -3.298,-2.437 -8.75,-2.319 -3.462,0.075 -7.365,0.339 -8.673,0.586 m -24.98,2.169 C 58.859,40.704 52,66.287 52,70.263 c 0,1.588 0.549,1.774 3.75,1.272 2.063,-0.323 4.425,-1.42 5.25,-2.436 2.033,-2.504 10.35,-3.587 12.027,-1.567 1.112,1.34 9.973,2.209 9.973,0.978 0,-0.269 -3.118,-7.019 -6.928,-15 L 69.144,39 65.322,39.015 c -2.102,0.009 -4.433,0.403 -5.18,0.876 m -12.36,0.66 c -0.303,0.304 -3.77,0.737 -7.703,0.964 -3.933,0.226 -7.54,0.652 -8.015,0.945 -0.475,0.294 -0.864,2.162 -0.864,4.152 0,3.555 0.058,3.608 3.4,3.065 2.982,-0.483 3.411,-0.283 3.486,1.636 0.229,5.857 2.503,20.749 3.164,20.72 C 41.663,72.015 43.412,72 45.138,72 h 3.138 l -0.659,-7.75 c -0.362,-4.263 -0.925,-9.663 -1.251,-12 -0.588,-4.217 -0.569,-4.25 2.52,-4.25 3.277,0 3.738,-1.069 2.484,-5.75 -0.565,-2.108 -2.339,-2.948 -3.588,-1.699 M 17.357,43.992 C 14.699,45.064 12,48.798 12,51.402 c 0,3.814 2.301,8.234 5.131,9.858 3.767,2.162 3.707,4.622 -0.131,5.39 -2.61,0.522 -3,1.032 -3,3.916 0,1.824 0.4,3.563 0.889,3.865 0.489,0.303 3.066,0.143 5.727,-0.354 C 26.644,72.951 30,69.451 30,64.291 c 0,-2.936 -0.762,-4.302 -4.138,-7.418 -2.276,-2.101 -4.573,-3.552 -5.104,-3.224 -0.531,0.329 -0.234,-0.519 0.66,-1.883 1.247,-1.904 2.237,-2.364 4.258,-1.977 2.372,0.453 2.57,0.266 1.993,-1.893 -0.353,-1.318 -0.648,-2.958 -0.655,-3.646 -0.016,-1.441 -6.309,-1.609 -9.657,-0.258 M 92,47.5 c 0,2.793 0.391,3.5 1.933,3.5 2.372,0 3.674,-3.563 2.027,-5.548 C 93.784,42.83 92,43.753 92,47.5 m -76.457,1.431 c -0.683,1.105 0.894,2.299 1.818,1.375 C 18.311,49.355 18.134,48 17.059,48 c -0.518,0 -1.2,0.419 -1.516,0.931 m 48.659,6.319 c -0.901,3.421 0.249,4.558 3.391,3.353 1.293,-0.496 1.282,-0.943 -0.084,-3.585 C 66.651,53.358 65.748,52 65.503,52 c -0.245,0 -0.831,1.462 -1.301,3.25 m 1.298,54.301 c -25.3,2.371 -46.562,4.342 -47.25,4.38 -1.431,0.079 -1.635,2.913 -0.355,4.933 0.721,1.138 8.926,0.644 49.484,-2.977 L 116,111.547 v -3.274 c 0,-2.763 -0.35,-3.254 -2.25,-3.153 -1.237,0.066 -22.95,2.06 -48.25,4.431 m 2.5,8.008 c -25.575,2.389 -47.13,4.366 -47.9,4.392 -1.151,0.04 -1.282,1.862 -0.734,10.227 0.367,5.599 0.936,11.861 1.265,13.916 l 0.598,3.737 7.135,-0.491 c 3.925,-0.27 7.811,-0.751 8.636,-1.069 0.825,-0.318 2.231,-0.49 3.124,-0.383 0.894,0.107 14.394,-0.956 30,-2.363 15.607,-1.407 31.076,-2.79 34.376,-3.073 3.3,-0.283 7.922,-0.755 10.271,-1.048 l 4.271,-0.533 -0.617,-6.185 c -0.34,-3.403 -0.912,-9.525 -1.272,-13.605 -0.359,-4.081 -1.103,-7.52 -1.653,-7.643 -0.55,-0.123 -21.925,1.731 -47.5,4.121 m 34.625,4.384 c -0.609,3.807 -0.776,3.953 -4.878,4.25 l -4.247,0.307 3.699,2.3 c 2.035,1.265 3.535,2.84 3.334,3.5 -0.201,0.66 -0.652,2.497 -1.002,4.083 l -0.636,2.883 3.167,-2.664 3.166,-2.665 3.386,1.998 c 3.706,2.187 4.169,1.479 1.9,-2.908 -1.427,-2.76 -1.368,-2.972 1.5,-5.385 1.642,-1.382 2.986,-2.666 2.986,-2.854 0,-0.187 -1.755,-0.173 -3.901,0.031 -3.691,0.352 -3.97,0.179 -5.201,-3.223 -1.673,-4.628 -2.491,-4.541 -3.273,0.347 m -23,2 c -0.609,3.807 -0.776,3.953 -4.878,4.25 l -4.247,0.307 3.699,2.3 c 2.035,1.265 3.535,2.84 3.334,3.5 -0.201,0.66 -0.652,2.497 -1.002,4.083 l -0.636,2.883 3.167,-2.664 3.166,-2.665 3.386,1.998 c 3.859,2.276 3.898,2.227 1.951,-2.433 -1.393,-3.334 -1.349,-3.506 1.5,-5.903 1.614,-1.359 2.935,-2.623 2.935,-2.811 0,-0.187 -1.775,-0.172 -3.945,0.035 -3.715,0.355 -4.032,0.167 -5.449,-3.223 -0.827,-1.98 -1.694,-3.6 -1.927,-3.6 -0.233,0 -0.707,1.774 -1.054,3.943 m -23.226,-0.05 c -0.174,4.99 -1.065,6.107 -4.868,6.107 -4.34,0 -4.469,0.959 -0.437,3.254 2.904,1.652 3.041,1.997 2.384,6 l -0.696,4.246 2.966,-2.8 2.967,-2.801 3.715,2.192 3.715,2.192 -1.594,-3.814 c -1.569,-3.757 -1.553,-3.858 1.115,-6.642 L 68.374,129 h -4.027 c -3.811,0 -4.098,-0.214 -5.347,-4 -1.558,-4.721 -2.461,-5.105 -2.601,-1.107 M 33.512,126.5 c -1.188,5.246 -1.392,5.5 -4.422,5.5 -4.12,0 -4.524,1.313 -1.036,3.373 3.308,1.954 3.297,1.918 2.016,6.384 -1.114,3.883 -0.235,4.112 2.914,0.76 l 2.334,-2.484 3.209,1.984 c 4.378,2.706 4.701,2.529 2.771,-1.518 -1.657,-3.475 -1.648,-3.524 1.203,-6.5 L 45.374,131 h -4.08 c -3.779,0 -4.191,-0.276 -5.591,-3.75 l -1.511,-3.75 -0.68,3 M 72,147.549 c -25.025,2.371 -46.738,4.342 -48.25,4.381 -2.373,0.06 -2.75,0.481 -2.75,3.07 0,2.714 0.31,3.002 3.25,3.018 4.044,0.022 95.121,-8.137 95.595,-8.564 0.596,-0.537 -0.97,-6.46 -1.674,-6.335 -0.369,0.066 -21.146,2.059 -46.171,4.43"
       stroke="none"
       fill="#09587f"
       fill-rule="evenodd"
       id="path2" /><path
       d="M 88.75,2.735 C 83.154,3.176 83.383,1.99 85.179,21.25 85.975,29.779 86.763,34 87.559,34 c 0.655,0 2.56,-0.274 4.233,-0.608 3.03,-0.606 3.039,-0.63 2.57,-6.25 l -0.47,-5.642 3.304,5.815 c 3.255,5.729 3.361,5.809 7.137,5.334 2.108,-0.264 4.05,-0.698 4.315,-0.964 0.266,-0.265 -0.923,-2.974 -2.641,-6.019 -2.999,-5.314 -3.062,-5.658 -1.566,-8.552 C 105.298,15.456 106,13.198 106,12.097 106,6.724 100.914,1.779 95.8,2.18 94.535,2.279 91.362,2.529 88.75,2.735 M 72.008,5.75 c 0.005,0.963 0.466,5.741 1.024,10.618 0.752,6.557 0.715,9.232 -0.14,10.263 -2.139,2.577 -3.707,-0.45 -4.372,-8.437 C 67.421,4.977 67.431,5 62.816,5 h -4.024 l 0.659,8.25 c 0.95,11.894 2.378,18.285 4.519,20.223 2.771,2.508 9.094,3.063 12.838,1.126 4.827,-2.496 5.541,-4.733 4.794,-15.026 C 80.486,4.207 80.41,4 75.889,4 72.849,4 72.002,4.382 72.008,5.75 M 36.655,7.459 C 28.673,10.305 23.932,18.319 25.902,25.636 27.073,29.987 31.969,35.3 36.315,36.939 45.14,40.266 54.901,34.736 57.084,25.174 58.797,17.667 53.598,9.179 45.942,6.983 41.681,5.761 41.372,5.777 36.655,7.459 M 8.15,9.737 c -3.952,0.352 -4.288,0.588 -3.662,2.575 0.947,3.007 2.19,11.674 3.003,20.938 0.621,7.076 0.868,7.749 2.844,7.736 5.574,-0.035 6.188,-0.724 5.822,-6.536 L 15.815,29 h 3.092 c 3.294,0 3.851,-1.566 2.437,-6.847 -0.53,-1.98 -1.085,-2.255 -3.557,-1.76 -2.411,0.482 -2.871,0.277 -2.6,-1.154 0.242,-1.273 1.497,-1.823 4.684,-2.052 4.278,-0.308 4.343,-0.367 3.741,-3.375 C 23.276,12.128 23,10.356 23,9.875 23,9.019 16.846,8.962 8.15,9.737 M 93,13 c 0,4.493 2.127,5.501 4.045,1.917 0.889,-1.662 0.764,-2.471 -0.62,-4 C 93.836,8.056 93,8.564 93,13 m -57.321,4.969 c -3.288,3.908 -3.332,5.16 -0.307,8.677 C 40.044,32.078 49,29.078 49,22.08 c 0,-4.012 -2.089,-6.148 -6.606,-6.754 -3.62,-0.485 -4.311,-0.213 -6.715,2.643 m 71.976,53.86 c -2.377,2.626 -2.041,5.038 0.887,6.372 2.169,0.989 2.848,0.853 4.623,-0.921 2.044,-2.044 2.047,-2.124 0.207,-4.649 -2.236,-3.068 -3.506,-3.246 -5.717,-0.802 m 0.303,1.721 c -1.06,1.278 -1.007,1.83 0.306,3.143 1.457,1.457 1.735,1.45 3.262,-0.076 C 113.373,74.77 112.85,72 110.654,72 c -0.775,0 -1.988,0.698 -2.696,1.55 M 93.177,73.869 C 92.45,74.33 90.587,79.836 89.037,86.104 84.411,104.811 84.524,103 87.981,103 c 1.66,0 3.87,-0.851 4.91,-1.891 1.055,-1.055 4.092,-2.194 6.864,-2.575 4.142,-0.57 5.081,-0.403 5.62,1 0.519,1.352 1.383,1.547 4.386,0.986 2.056,-0.384 3.86,-0.817 4.008,-0.961 0.147,-0.145 -2.657,-6.18 -6.233,-13.411 C 101.173,73.28 100.965,73 97.767,73.015 c -1.797,0.009 -3.862,0.393 -4.59,0.854 M 109,75.289 c 0,1.625 0.254,1.745 1.5,0.711 0.825,-0.685 1.5,-1.565 1.5,-1.956 0,-0.391 -0.675,-0.711 -1.5,-0.711 -0.825,0 -1.5,0.88 -1.5,1.956 m -39.808,0.439 c -3.047,0.375 -3.284,0.659 -3,3.59 0.234,2.422 0.845,3.258 2.558,3.502 2.535,0.36 2.725,1.642 1.315,8.881 -0.514,2.639 -1.215,6.516 -1.558,8.615 l -0.622,3.816 7.307,-0.696 c 4.02,-0.383 7.368,-0.75 7.441,-0.816 0.073,-0.066 0.459,-1.641 0.858,-3.499 0.714,-3.331 0.68,-3.373 -2.383,-2.924 -3.584,0.526 -3.641,0.285 -2.092,-8.763 0.559,-3.264 1.255,-7.397 1.546,-9.184 L 81.091,75 76.795,75.16 c -2.362,0.088 -5.784,0.344 -7.603,0.568 m -14.438,1.307 c -3.711,0.343 -6.977,0.854 -7.257,1.135 -0.281,0.281 -0.227,1.932 0.121,3.67 0.498,2.491 1.139,3.16 3.026,3.16 1.962,0 2.305,0.406 1.902,2.25 C 51.444,92.282 50,101.5 50,103.497 c 0,1.993 0.404,2.103 6.25,1.698 C 63.321,104.706 65,103.782 65,100.378 65,98.414 64.489,98 62.063,98 c -3.301,0 -3.279,0.527 -0.59,-14.283 0.677,-3.73 0.96,-6.9 0.629,-7.044 -0.331,-0.145 -3.638,0.018 -7.348,0.362 m -18.411,2.514 c -0.327,0.852 -0.088,6.885 0.531,13.407 0.619,6.522 1.126,12.35 1.126,12.951 0,0.608 1.774,1.093 4,1.093 3.831,0 4,-0.135 4,-3.191 0,-1.756 -0.516,-8.281 -1.146,-14.5 L 43.707,78 h -3.385 c -2.134,0 -3.604,0.572 -3.979,1.549 M 15.5,79.868 C 12.024,80.623 12.135,79.8 13.866,92 c 1.991,14.04 2.878,17 5.091,17 4.027,0 5.119,-1.078 4.489,-4.435 -0.568,-3.03 -0.39,-3.265 3.314,-4.375 5.581,-1.672 7.76,-4.465 7.644,-9.796 C 34.31,86.068 32.424,82.796 29.011,81.035 26.66,79.823 18.823,79.145 15.5,79.868 m 4.124,4.671 c -0.965,2.514 -0.681,3.163 0.498,1.136 0.584,-1.004 0.851,-2.036 0.593,-2.293 -0.257,-0.258 -0.749,0.263 -1.091,1.157 M 97,86.418 c 0,0.78 -0.273,2.13 -0.607,3 -0.458,1.193 0.034,1.582 2,1.582 2.988,0 3.003,-0.036 1.446,-3.453 C 98.577,84.777 97,84.15 97,86.418 m -74.635,3.658 c 0.856,4.281 1.338,4.649 3.392,2.596 1.981,-1.981 0.776,-4.927 -2.259,-5.523 -1.525,-0.3 -1.692,0.131 -1.133,2.927"
       stroke="none"
       fill="#b43138"
       fill-rule="evenodd"
       id="path3" /></g><path
     style="fill:#f9f9f9;fill-opacity:0.984314;stroke-width:0.0298507"
     d="m 10.673345,22.618584 c -0.08601,-0.409125 -0.200314,-1.600662 -0.252624,-2.633509 -0.02705,-0.533984 -0.01153,-0.82412 0.04722,-0.882866 0.01689,-0.01688 0.613656,-0.08335 1.326157,-0.147697 0.7125,-0.06435 2.672321,-0.24435 4.355157,-0.400003 4.687374,-0.433559 6.413256,-0.58436 6.687881,-0.58436 h 0.146272 l 0.04422,0.156717 c 0.07655,0.271317 0.10325,0.482215 0.225766,1.783582 0.06569,0.697761 0.127956,1.345895 0.13837,1.440298 0.01706,0.154656 0.01338,0.171701 -0.03716,0.172233 -0.03085,3.25e-4 -0.277736,0.02719 -0.548632,0.0597 -0.443046,0.05317 -3.166412,0.303988 -6.313433,0.581461 -1.682699,0.148363 -3.064516,0.253771 -3.326741,0.253771 -0.125334,0 -0.304779,0.02003 -0.398766,0.04451 -0.230522,0.06004 -0.793627,0.125693 -1.408821,0.164249 -0.279105,0.01749 -0.54424,0.03776 -0.589189,0.04503 -0.06581,0.01065 -0.08444,3.04e-4 -0.09567,-0.05312 z m 1.216677,-0.592007 c 0.03586,-0.01822 0.192814,-0.158136 0.348784,-0.310928 l 0.283582,-0.277803 0.386892,0.236301 c 0.572563,0.349703 0.627919,0.319629 0.389227,-0.21146 -0.197293,-0.438981 -0.198047,-0.435626 0.19403,-0.863017 0.180597,-0.196863 0.328359,-0.364385 0.328359,-0.37227 0,-0.0079 -0.215991,-0.01862 -0.47998,-0.02385 l -0.479979,-0.0095 -0.0969,-0.10582 c -0.06055,-0.06612 -0.151292,-0.2427 -0.241878,-0.470679 -0.07974,-0.200673 -0.154358,-0.354547 -0.165824,-0.341942 -0.01147,0.01261 -0.0574,0.184112 -0.102066,0.381127 -0.08769,0.386746 -0.156283,0.573423 -0.2344,0.63791 -0.0301,0.02485 -0.17261,0.0498 -0.36315,0.06358 -0.328551,0.02377 -0.402985,0.05381 -0.402985,0.162631 0,0.0795 0.07658,0.152974 0.313433,0.300707 0.378799,0.236268 0.392002,0.271406 0.269028,0.715976 -0.07277,0.26307 -0.09467,0.462707 -0.0551,0.502278 0.02631,0.02631 0.03263,0.02554 0.108927,-0.01322 z m 3.584754,-0.799304 c 0.03128,-0.0347 0.06773,-0.06309 0.08101,-0.06309 0.01328,0 0.228824,0.120896 0.478987,0.268657 0.250163,0.147761 0.465241,0.268657 0.477952,0.268657 0.02592,0 0.02417,-0.0049 -0.166409,-0.468352 -0.08436,-0.205135 -0.137361,-0.379906 -0.137361,-0.452933 0,-0.137568 0.04278,-0.198037 0.396196,-0.56001 l 0.236756,-0.242488 -0.443342,-0.01411 c -0.261704,-0.0083 -0.474952,-0.02927 -0.520497,-0.0511 -0.09982,-0.04785 -0.151211,-0.137972 -0.277259,-0.486184 -0.138551,-0.382755 -0.186984,-0.471089 -0.258292,-0.471089 -0.03241,0 -0.05961,0.0034 -0.06043,0.0075 -8.22e-4,0.0041 -0.01963,0.183949 -0.0418,0.399656 -0.06466,0.629246 -0.119534,0.691417 -0.642887,0.728362 -0.353321,0.02494 -0.418299,0.04294 -0.418299,0.115859 0,0.07209 0.127762,0.183548 0.395302,0.344856 0.127118,0.07664 0.251372,0.168259 0.27612,0.203592 0.06091,0.08696 0.05658,0.295037 -0.01471,0.707675 -0.03262,0.188806 -0.05939,0.361571 -0.0595,0.383923 -1.72e-4,0.03532 0.540631,-0.444223 0.698459,-0.619337 z m 2.783688,-0.02469 0.362941,-0.305854 0.382593,0.223277 c 0.210426,0.122802 0.406431,0.223277 0.435566,0.223277 0.08208,0 0.06602,-0.09165 -0.08136,-0.464283 -0.07388,-0.186798 -0.134328,-0.382312 -0.134328,-0.434477 0,-0.102587 0.08115,-0.193927 0.492537,-0.554373 0.114925,-0.100695 0.198409,-0.193763 0.18552,-0.206818 -0.01289,-0.01306 -0.160651,-0.01812 -0.328358,-0.01126 -0.522783,0.02138 -0.611213,0.01521 -0.681614,-0.0476 -0.03533,-0.03152 -0.145082,-0.228578 -0.243887,-0.437907 -0.09881,-0.209328 -0.196688,-0.380597 -0.217518,-0.380597 -0.04895,0 -0.08896,0.124669 -0.16047,0.499934 -0.09566,0.502028 -0.100438,0.505719 -0.715047,0.552416 -0.247812,0.01883 -0.450566,0.04359 -0.450566,0.05502 0,0.01143 0.104104,0.08485 0.231343,0.163154 0.340666,0.209648 0.507487,0.335651 0.593253,0.448097 l 0.07642,0.10019 -0.107224,0.446526 c -0.05897,0.245589 -0.107224,0.462629 -0.107224,0.482311 0,0.0435 -0.0069,0.04866 0.467419,-0.35103 z m 2.962129,-0.226994 0.399698,-0.337292 0.331646,0.189449 c 0.351756,0.200937 0.436544,0.23471 0.514322,0.204863 0.06899,-0.02647 0.03803,-0.150858 -0.123619,-0.496673 -0.07353,-0.157293 -0.133706,-0.318718 -0.133733,-0.358723 -3.5e-5,-0.05391 0.089,-0.157734 0.343961,-0.401095 0.189205,-0.180597 0.343704,-0.340425 0.343331,-0.355173 -3.93e-4,-0.01557 -0.186817,-0.01815 -0.44458,-0.0061 -0.44273,0.02062 -0.444137,0.02047 -0.531828,-0.05331 -0.05439,-0.04576 -0.120186,-0.157279 -0.172507,-0.292363 -0.140257,-0.362116 -0.219393,-0.501963 -0.28405,-0.501963 -0.08192,0 -0.105507,0.05853 -0.191864,0.476104 -0.04303,0.208042 -0.09808,0.392854 -0.126317,0.42406 -0.0698,0.07713 -0.212249,0.109151 -0.592814,0.133269 -0.525972,0.03333 -0.522853,0.02849 -0.161933,0.251451 0.348568,0.215331 0.594769,0.433608 0.594769,0.527313 0,0.03409 -0.04045,0.234691 -0.08988,0.445786 -0.04944,0.211094 -0.09519,0.407316 -0.101683,0.436047 -0.0065,0.02873 -0.003,0.05212 0.0078,0.05196 0.01078,-1.51e-4 0.199457,-0.152057 0.419291,-0.337568 z"
     id="path1"
     transform="scale(0.75)" /><path
     style="fill:#f9f9f9;fill-opacity:0.984314;stroke-width:0.0298507"
     d="m 10.731343,23.692005 c -0.04973,-0.03782 -0.06145,-0.0879 -0.07016,-0.2999 -0.0099,-0.239936 -0.0061,-0.258863 0.06581,-0.330764 0.04518,-0.04518 0.110283,-0.07637 0.159712,-0.07652 0.246065,-7.59e-4 10.493941,-0.954288 12.023745,-1.118767 0.372649,-0.04007 0.389992,-0.03946 0.436732,0.01517 0.05989,0.07 0.175208,0.486859 0.175208,0.63337 0,0.09333 -0.01084,0.10976 -0.08209,0.124372 -0.198567,0.04073 -4.634547,0.455079 -8.171642,0.763292 -3.914865,0.341132 -4.426765,0.373822 -4.537314,0.289755 z"
     id="path4"
     transform="scale(0.75)" /><path
     style="fill:#f9f9f9;fill-opacity:0.984314;stroke-width:0.0298507"
     d="m 10.432836,18.703826 c -0.01642,-0.0066 -0.06528,-0.01981 -0.10859,-0.0293 -0.09861,-0.02162 -0.174992,-0.196562 -0.174992,-0.400767 0,-0.253691 -0.09667,-0.229693 1.522536,-0.377978 0.796187,-0.07291 2.16627,-0.199847 3.044628,-0.282074 1.75527,-0.164317 7.173362,-0.66627 7.752931,-0.71826 0.523687,-0.04698 0.545576,-0.02739 0.545576,0.488061 V 17.6885 l -2.947761,0.261771 c -1.621268,0.143974 -3.461942,0.307621 -4.090385,0.363659 -3.309612,0.295117 -5.412267,0.442993 -5.543943,0.389896 z"
     id="path5"
     transform="scale(0.75)" /><path
     style="fill:#f9f9f9;fill-opacity:0.984314;stroke-width:0.0298507"
     d="M 10.215617,17.275747 C 10.046847,17.0961 9.9322728,16.595616 9.7176439,15.100494 9.5720782,14.086472 9.5517614,13.765936 9.628209,13.689488 c 0.096359,-0.09636 0.2840869,-0.122382 0.864328,-0.119812 0.85056,0.0038 1.185917,0.09201 1.489926,0.392042 0.485187,0.478841 0.524031,1.451971 0.07534,1.887412 -0.143069,0.138844 -0.446362,0.292339 -0.761978,0.385634 -0.116401,0.03441 -0.248576,0.09161 -0.293722,0.127126 l -0.08208,0.06457 0.02117,0.338808 c 0.01824,0.291943 0.01416,0.349502 -0.02949,0.41613 -0.07032,0.107329 -0.219573,0.16189 -0.442843,0.16189 -0.158528,0 -0.200235,-0.01112 -0.253232,-0.06754 z m 1.022128,-2.004458 c 0.2198,-0.2198 0.211316,-0.465538 -0.02261,-0.654857 -0.09322,-0.07545 -0.140678,-0.09185 -0.268657,-0.09284 l -0.155435,-0.0012 -0.0095,0.116175 c -0.01089,0.13298 0.06829,0.523575 0.1353,0.667407 0.06473,0.138936 0.157304,0.128932 0.320917,-0.03468 z M 10.55632,14.290453 c 0.07656,-0.151073 0.08353,-0.261659 0.01786,-0.283288 -0.06246,-0.02057 -0.201683,0.322146 -0.18956,0.466639 0.0058,0.06899 0.08868,-0.01953 0.171698,-0.183351 z"
     id="path6"
     transform="scale(0.75)" /><path
     style="fill:#f9f9f9;fill-opacity:0.984314;stroke-width:0.0298507"
     d="m 13.147138,17.074815 c -0.285824,-0.04195 -0.256513,0.05173 -0.365927,-1.169482 -0.124201,-1.386251 -0.169675,-2.163207 -0.135337,-2.312343 0.02207,-0.09585 0.04905,-0.126748 0.159357,-0.182542 0.113177,-0.05724 0.180161,-0.06716 0.453473,-0.06716 h 0.32068 l 0.0156,0.09701 c 0.05902,0.366959 0.255264,2.540365 0.274251,3.037313 0.02063,0.539894 0.01276,0.561821 -0.215033,0.599216 -0.174122,0.02858 -0.302033,0.02808 -0.507068,-0.002 z"
     id="path7"
     transform="scale(0.75)" /><path
     style="fill:#f9f9f9;fill-opacity:0.984314;stroke-width:0.0298507"
     d="m 14.657302,16.871082 c -0.187238,-0.01332 -0.209541,-0.04139 -0.209541,-0.263743 0,-0.226114 0.116971,-1.037339 0.240371,-1.66704 0.09677,-0.493823 0.106363,-0.619619 0.05067,-0.664662 -0.02052,-0.0166 -0.123452,-0.03997 -0.228731,-0.05192 -0.24854,-0.02823 -0.308799,-0.08757 -0.37225,-0.366542 -0.0656,-0.288422 -0.0638,-0.473625 0.005,-0.510425 0.08177,-0.04376 0.96607,-0.14922 1.441558,-0.171918 l 0.42495,-0.02029 -0.02071,0.27437 c -0.01139,0.150904 -0.08015,0.606518 -0.152793,1.012477 -0.183709,1.026623 -0.213504,1.285844 -0.160528,1.396654 0.04039,0.08449 0.05042,0.08792 0.307937,0.105531 0.320101,0.02189 0.375012,0.06531 0.375012,0.296597 0,0.28415 -0.100368,0.419679 -0.373208,0.503951 -0.24551,0.07583 -1.013773,0.149295 -1.327699,0.126961 z"
     id="path8"
     transform="scale(0.75)" /><path
     style="fill:#f9f9f9;fill-opacity:0.984314;stroke-width:0.0298507"
     d="m 16.792213,16.577744 c 0.01138,-0.0797 0.09349,-0.547893 0.182465,-1.040431 0.265473,-1.469517 0.262433,-1.50835 -0.125763,-1.606123 -0.219338,-0.05524 -0.309266,-0.223143 -0.310889,-0.580444 -8.74e-4,-0.192188 0.0564,-0.260262 0.241569,-0.287133 0.558337,-0.08102 1.668166,-0.135207 1.668166,-0.08145 0,0.01967 -0.08194,0.522023 -0.182089,1.116347 -0.100149,0.594325 -0.184105,1.185696 -0.186567,1.314158 -0.0059,0.308012 0.02109,0.33144 0.350027,0.30381 0.129307,-0.01086 0.251828,-0.02617 0.272271,-0.03401 0.05712,-0.02192 0.136176,0.07486 0.120928,0.148046 -0.08723,0.41868 -0.145657,0.665614 -0.161386,0.682119 -0.01054,0.01105 -0.375124,0.05492 -0.810199,0.09748 -0.435074,0.04256 -0.855884,0.08529 -0.935132,0.09496 l -0.144088,0.01757 z"
     id="path9"
     transform="scale(0.75)" /><path
     style="fill:#f9f9f9;fill-opacity:0.984314;stroke-width:0.0298507"
     d="m 19.097015,16.550327 c -0.03637,-0.03731 -0.02571,-0.261958 0.02354,-0.496137 0.02526,-0.120103 0.152074,-0.64822 0.281811,-1.173593 0.242201,-0.980793 0.461406,-1.71502 0.584996,-1.959435 0.06371,-0.125987 0.08435,-0.142153 0.227914,-0.178434 0.08682,-0.02194 0.274368,-0.0402 0.416764,-0.04057 0.310103,-8.02e-4 0.362577,0.02895 0.55715,0.315858 0.226624,0.334171 1.547265,3.044817 1.511581,3.102555 -0.018,0.02912 -0.352942,0.107262 -0.62482,0.145765 -0.242888,0.0344 -0.354984,0.002 -0.404215,-0.116866 -0.06913,-0.166904 -0.130078,-0.194761 -0.413816,-0.189151 -0.474792,0.0094 -0.997153,0.161506 -1.254496,0.365326 -0.19267,0.152598 -0.379957,0.220788 -0.645212,0.234919 -0.131343,0.007 -0.248881,0.0024 -0.261194,-0.01024 z m 1.951833,-1.57184 c 0.04578,-0.07407 -0.113252,-0.473364 -0.255961,-0.642666 -0.09877,-0.117177 -0.217892,-0.132156 -0.237378,-0.02985 -0.132425,0.695241 -0.13194,0.670268 -0.01371,0.706486 0.127891,0.03918 0.476268,0.01584 0.507052,-0.03397 z"
     id="path10"
     transform="scale(0.75)" /><path
     style="fill:#f9f9f9;fill-opacity:0.984314;stroke-width:0.00746269"
     d="m 22.226567,13.413577 c -0.05473,-0.0149 -0.173736,-0.0645 -0.229359,-0.09561 -0.173433,-0.09699 -0.258402,-0.218603 -0.258402,-0.369844 0,-0.143305 0.08115,-0.300139 0.239976,-0.463758 0.07425,-0.07649 0.127637,-0.119164 0.188741,-0.150859 0.04013,-0.02082 0.05225,-0.02345 0.108707,-0.02362 0.0567,-1.68e-4 0.06875,0.0024 0.11194,0.02376 0.08908,0.04408 0.190563,0.150511 0.3305,0.346612 0.03909,0.05477 0.08478,0.125049 0.101542,0.156168 0.06865,0.127458 0.04912,0.175867 -0.151889,0.376442 -0.166133,0.165773 -0.24297,0.212581 -0.347427,0.211646 -0.03078,-2.76e-4 -0.07323,-0.0052 -0.09433,-0.01094 z m 0.04723,-0.126369 c 0.0373,-0.01558 0.120219,-0.0848 0.18255,-0.152383 0.05894,-0.06391 0.111503,-0.159494 0.12594,-0.229035 0.01423,-0.06857 0.0066,-0.169981 -0.01658,-0.220327 -0.04863,-0.105623 -0.161494,-0.163226 -0.276527,-0.141134 -0.102886,0.01976 -0.233644,0.103113 -0.316528,0.201777 -0.09212,0.109656 -0.113302,0.186069 -0.0736,0.265488 0.02313,0.04627 0.09857,0.132418 0.177757,0.202973 0.09211,0.08208 0.135821,0.0982 0.196986,0.07264 z"
     id="path11"
     transform="scale(0.75)" /><path
     style="fill:#f9f9f9;fill-opacity:0.984314;stroke-width:0.00746269"
     d="m 22.146253,13.137724 c -0.0204,-0.0204 -0.02843,-0.07068 -0.02555,-0.159914 0.0024,-0.07316 0.0057,-0.09221 0.02201,-0.127404 0.04201,-0.09038 0.09566,-0.128164 0.180844,-0.127366 0.09645,9.03e-4 0.176434,0.04029 0.176434,0.08688 0,0.06684 -0.182658,0.266245 -0.296344,0.323507 -0.03752,0.0189 -0.04243,0.01926 -0.0574,0.0043 z"
     id="path12"
     transform="scale(0.75)" /><path
     style="fill:#f9f9f9;fill-opacity:0.984314;stroke-width:0.0422153"
     d="M 9.8618152,12.82089 C 9.7998812,12.7756 9.7776272,12.692163 9.7618292,12.446003 9.7351472,12.030237 9.7728452,11.964899 10.09034,11.876628 10.630431,11.726469 10.659256,11.481888 10.17675,11.14343 9.7447317,10.840386 9.5228419,10.424943 9.5208286,9.9153513 9.5196221,9.6099697 9.5278909,9.581376 9.6822796,9.357052 9.9666717,8.9438352 10.272651,8.8034949 10.891555,8.8024068 c 0.467552,-8.22e-4 0.475727,0.00532 0.561445,0.421751 0.04101,0.1992521 0.06444,0.3786717 0.05205,0.39871 -0.01238,0.020038 -0.133343,0.026384 -0.268798,0.014102 -0.303684,-0.027537 -0.396302,0.017857 -0.558611,0.2737922 -0.144632,0.228062 -0.150846,0.263134 -0.04662,0.263134 0.195429,0 0.901514,0.612943 1.05686,0.917445 0.06609,0.129549 0.09008,0.253382 0.08978,0.463425 -8.99e-4,0.624345 -0.391925,1.052478 -1.10684,1.211874 -0.454555,0.101347 -0.7202372,0.119163 -0.8090098,0.05425 z M 10.237218,9.5566232 c 0,-0.09514 -0.02136,-0.1245223 -0.09847,-0.1354431 -0.10498,-0.014869 -0.2603647,0.096707 -0.2603647,0.1869566 0,0.029913 0.041862,0.083708 0.093027,0.1195448 0.1278267,0.089534 0.2658037,7.389e-4 0.2658037,-0.1710583 z"
     id="path13"
     transform="scale(0.75)" /><path
     style="fill:#f9f9f9;fill-opacity:0.984314;stroke-width:0.0422153"
     d="m 13.259835,12.442969 c -0.08346,-0.220804 -0.28932,-1.59553 -0.365066,-2.437936 -0.01566,-0.174138 -0.04886,-0.3417747 -0.07377,-0.3725257 -0.03474,-0.04288 -0.128227,-0.049004 -0.401091,-0.026274 -0.280793,0.02339 -0.363551,0.017379 -0.392622,-0.02852 -0.0503,-0.079418 -0.04724,-0.5302502 0.0049,-0.7178827 0.05188,-0.1867719 0.0449,-0.1850079 1.075545,-0.2718976 0.815424,-0.068745 0.918869,-0.083856 1.067235,-0.1558979 0.172386,-0.083705 0.316152,0.00433 0.398052,0.2437362 0.08721,0.2549451 0.09726,0.5833878 0.01981,0.6476637 -0.03075,0.02552 -0.192554,0.0591 -0.359564,0.074622 -0.262238,0.024373 -0.306727,0.040459 -0.326175,0.117944 -0.01239,0.049347 0.01554,0.4312758 0.06206,0.84873 0.04651,0.417454 0.104434,0.98697 0.128707,1.265591 0.02427,0.278622 0.05432,0.59682 0.06678,0.707107 l 0.02265,0.200523 h -0.44576 c -0.423488,0 -0.447554,-0.0047 -0.481664,-0.09498 z"
     id="path14"
     transform="scale(0.75)" /><path
     style="fill:#f9f9f9;fill-opacity:0.984314;stroke-width:0.0422153"
     d="m 14.734099,12.433558 c -0.05103,-0.06149 -0.04098,-0.160317 0.07456,-0.732665 0.160956,-0.797328 0.494363,-2.055921 0.738201,-2.7866655 0.172463,-0.5168469 0.183224,-0.5361472 0.326102,-0.5848709 0.08127,-0.027712 0.349005,-0.051459 0.594978,-0.052769 l 0.447225,-0.00238 0.793459,1.67556 c 0.771315,1.6287984 0.992765,2.1070964 0.992765,2.1442184 0,0.05185 -0.316803,0.06408 -0.63323,0.02444 -0.255093,-0.03196 -0.433629,-0.08329 -0.61756,-0.17756 -0.249122,-0.12768 -0.273423,-0.131793 -0.654338,-0.110728 -0.442529,0.02447 -0.699348,0.107872 -0.921373,0.299213 -0.323259,0.278584 -1.010062,0.461734 -1.140791,0.304215 z m 2.014833,-1.630767 c 0.06541,-0.02465 0.09499,-0.07042 0.09499,-0.14702 0,-0.106166 -0.184682,-0.492802 -0.320915,-0.6718454 -0.06365,-0.08365 -0.06481,-0.083668 -0.125348,-0.00195 -0.07045,0.095097 -0.135621,0.3060734 -0.171826,0.5562564 -0.02078,0.143565 -0.0089,0.190662 0.06699,0.266596 0.09411,0.09411 0.202229,0.09363 0.456111,-0.002 z"
     id="path15"
     transform="scale(0.75)" /><path
     style="fill:#f9f9f9;fill-opacity:0.984314;stroke-width:0.0422153"
     d="M 19.02171,11.661985 C 19.0073,11.482042 18.96693,10.954878 18.93199,10.49051 18.89705,10.026141 18.83895,9.353975 18.802867,8.9968075 c -0.06924,-0.685413 -0.06098,-0.8233566 0.05187,-0.8666609 0.257452,-0.098793 1.722509,-0.1441555 2.020744,-0.062568 0.248064,0.067863 0.532767,0.3785866 0.629936,0.6875099 0.112194,0.3566958 0.0773,0.7418266 -0.09623,1.0622265 -0.07296,0.1347096 -0.132658,0.307745 -0.132658,0.384522 0,0.09235 0.114292,0.358877 0.337723,0.787556 0.185748,0.356379 0.337723,0.680094 0.337723,0.719367 0,0.03927 -0.04873,0.08993 -0.108287,0.112577 -0.154289,0.05866 -0.779472,0.04985 -0.904881,-0.01276 -0.0685,-0.03419 -0.175781,-0.190448 -0.305677,-0.445205 -0.219165,-0.429839 -0.574217,-0.999102 -0.604349,-0.968969 -0.01732,0.01732 0.07614,1.057704 0.129038,1.436442 l 0.02211,0.158308 h -0.566012 -0.566012 z m 1.263936,-1.8762471 c 0.142417,-0.06489 0.231004,-0.2384739 0.231004,-0.4526463 0,-0.1377897 -0.02794,-0.197492 -0.14916,-0.3187114 -0.290855,-0.2908545 -0.484069,-0.1408728 -0.484069,0.3757555 0,0.2208878 0.01715,0.2943206 0.08443,0.3616056 0.09735,0.097353 0.163266,0.1044045 0.317795,0.033997 z"
     id="path16"
     transform="scale(0.75)" /><path
     style="fill:#f9f9f9;fill-opacity:0.984314;stroke-width:0.0422153"
     d="M 19.277375,7.5241617 C 19.186207,7.3766491 19.041221,6.2249864 18.908026,4.590328 18.850507,3.8844157 18.884158,3.6552424 19.05486,3.5903417 c 0.0526,-0.02 0.417955,-0.060014 0.811891,-0.08892 0.856711,-0.062863 1.018346,-0.029106 1.368639,0.2858375 0.467296,0.4201397 0.56973,0.9374991 0.299121,1.5107649 -0.222199,0.4707122 -0.218347,0.4901645 0.288411,1.4564289 0.11568,0.2205751 0.211037,0.4329434 0.211904,0.4719295 0.0016,0.071936 -0.163795,0.1190526 -0.636442,0.1813074 -0.357227,0.047052 -0.438905,-0.035947 -0.965922,-0.9815448 -0.14593,-0.2618339 -0.274481,-0.4669079 -0.285669,-0.4557201 -0.01119,0.011188 0.003,0.3036105 0.03151,0.6498281 0.06025,0.7313667 0.04821,0.7770092 -0.222906,0.8452771 -0.300197,0.07559 -0.648907,0.1057448 -0.678025,0.058632 z m 1.193846,-2.2778012 c 0.234251,-0.2841864 0.206921,-0.543713 -0.08294,-0.7876146 -0.272704,-0.2294648 -0.39567,-0.090314 -0.37081,0.4196116 0.02493,0.5112769 0.211154,0.6623128 0.453749,0.368003 z"
     id="path17"
     transform="scale(0.75)" /><path
     style="fill:#f9f9f9;fill-opacity:0.984314;stroke-width:0.0422153"
     d="M 16.855302,7.7678847 C 16.562889,7.7060029 16.313978,7.5756853 16.199159,7.424361 15.964152,7.1146345 15.800664,6.3312074 15.684951,4.9603013 15.649675,4.5423695 15.611421,4.1196885 15.599942,4.0210102 L 15.579072,3.841595 h 0.440809 c 0.646594,0 0.631995,-0.027255 0.780177,1.4564289 0.08532,0.8542489 0.16698,1.2480495 0.286696,1.3825521 0.154262,0.1733146 0.36729,0.024577 0.41436,-0.2893093 C 17.52017,6.2641951 17.487998,5.7586846 17.4132,5.009878 17.274111,3.6174687 17.245087,3.7149491 17.798766,3.7149491 c 0.321025,0 0.354096,0.00813 0.4311,0.1060278 0.04587,0.058315 0.104563,0.1960428 0.130429,0.3060611 0.07435,0.3162621 0.171791,1.5786184 0.172023,2.2286343 1.97e-4,0.5505074 -0.0075,0.6087507 -0.106724,0.8078724 -0.225977,0.4534765 -0.955844,0.734372 -1.570292,0.60434 z"
     id="path18"
     transform="scale(0.75)" /><path
     style="fill:#f9f9f9;fill-opacity:0.984314;stroke-width:0.0422153"
     d="M 12.740611,7.9816561 C 12.259744,7.8279016 11.6721,7.2919307 11.418236,6.7755605 11.182589,6.2962447 11.193263,5.7641382 11.449146,5.2347009 11.599724,4.9231441 11.983864,4.5121314 12.293045,4.3317657 12.53071,4.1931201 13.174426,3.968241 13.333634,3.968241 c 0.181221,0 0.72617,0.1647341 0.952565,0.2879538 0.461149,0.2509886 0.87388,0.7952149 1.015541,1.3390907 0.257382,0.9881546 -0.377975,2.0672072 -1.403744,2.3840349 -0.344889,0.1065252 -0.828481,0.1075011 -1.157385,0.00234 z M 13.784547,6.8908158 C 13.998201,6.781285 14.114996,6.6550038 14.223019,6.4167302 14.382876,6.0641222 14.315903,5.6454529 14.060694,5.4019853 13.884622,5.2340134 13.676041,5.1587587 13.28546,5.1222857 c -0.341709,-0.031909 -0.464115,0.029218 -0.752554,0.3758131 -0.383148,0.4603993 -0.408244,0.6413275 -0.139699,1.0071593 0.269795,0.3675335 0.560443,0.5137967 0.969187,0.4877245 0.143254,-0.00914 0.327815,-0.053804 0.422153,-0.1021668 z"
     id="path19"
     transform="scale(0.75)" /><path
     style="fill:#ffffff;fill-opacity:0.984314;stroke-width:0.0422153"
     d="M 9.0640635,8.3960323 C 8.9779933,8.2603893 8.9644195,8.1775214 8.8643218,7.1766061 8.7645155,6.1786052 8.6346575,5.255276 8.5465058,4.9168387 8.4608261,4.587892 8.4671368,4.5307473 8.5926219,4.4992525 c 0.3599683,-0.090346 2.1266641,-0.1506842 2.2413941,-0.07655 0.0264,0.017058 0.07308,0.2088635 0.103728,0.4262337 0.06801,0.4823272 0.06369,0.4875872 -0.434179,0.5291083 -0.405537,0.033821 -0.5402132,0.088276 -0.6175919,0.2497217 -0.093505,0.1950919 -0.015115,0.2432931 0.3460229,0.2127657 0.370854,-0.031349 0.385711,-0.017691 0.480755,0.4419546 0.107861,0.5216265 0.01391,0.6408279 -0.505086,0.6408279 H 9.9514245 l 0.030185,0.5695843 c 0.032793,0.6187701 -0.00285,0.8316422 -0.1526699,0.911823 -0.046696,0.024991 -0.2235161,0.055921 -0.3929336,0.068734 -0.2908956,0.022 -0.3115874,0.017693 -0.3719425,-0.077423 z"
     id="path20"
     transform="scale(0.75)" /><path
     style="fill:#1d95cf;fill-opacity:1;stroke-width:0.0422153"
     d="m 9.860295,12.767122 c -0.067191,-0.06719 -0.096457,-0.565929 -0.041598,-0.70889 0.013607,-0.03546 0.1569516,-0.114994 0.318543,-0.176741 0.331027,-0.126493 0.441702,-0.244164 0.37977,-0.403777 -0.02149,-0.05538 -0.191585,-0.238449 -0.377997,-0.40683 C 9.719148,10.691632 9.5876204,10.449309 9.5529721,9.9911786 9.5311702,9.7029071 9.5388983,9.6567581 9.636725,9.4910419 9.7896552,9.2319815 9.995911,9.0344603 10.215573,8.9367069 10.444759,8.8347154 11.12243,8.785443 11.262796,8.860565 c 0.09293,0.049732 0.150343,0.2110635 0.200732,0.5640075 l 0.02863,0.2005228 h -0.292232 c -0.169509,0 -0.320683,0.02216 -0.359981,0.052769 -0.08898,0.069303 -0.28611,0.3670847 -0.28611,0.4321867 0,0.02806 0.08074,0.08708 0.179415,0.13116 0.218393,0.09755 0.8429,0.685362 0.935527,0.880559 0.04143,0.08731 0.06673,0.251955 0.06616,0.430503 -0.0021,0.653653 -0.390101,1.048778 -1.192666,1.214553 -0.407874,0.08425 -0.5979391,0.08433 -0.681974,2.96e-4 z m 0.333984,-3.0417957 c 0.09819,-0.098194 0.0672,-0.2867478 -0.04987,-0.3034046 -0.140677,-0.020015 -0.2660237,0.065483 -0.2660237,0.1814535 0,0.1687628 0.1941337,0.2437089 0.3158917,0.1219511 z"
     id="path21"
     transform="scale(0.75)" /><path
     style="fill:#1d95cf;fill-opacity:1;stroke-width:0.0422153"
     d="m 13.457093,12.507258 c -0.14077,-0.01476 -0.161754,-0.03292 -0.199129,-0.172319 -0.0655,-0.244294 -0.204477,-1.144566 -0.294504,-1.907752 C 12.91827,10.044082 12.8685,9.697389 12.85286,9.6567568 12.828576,9.5936593 12.76657,9.58288 12.427898,9.58288 H 12.031369 V 9.2240497 c 0,-0.5399424 -0.05215,-0.5130831 1.226256,-0.6315073 0.360992,-0.03344 0.74275,-0.083909 0.848351,-0.1121528 0.105601,-0.028244 0.222319,-0.039719 0.259374,-0.025499 0.141063,0.054131 0.215031,0.2412152 0.21758,0.5503186 l 0.0025,0.2989843 -0.147754,0.030515 c -0.08127,0.016783 -0.23324,0.046243 -0.337723,0.065467 -0.189748,0.034911 -0.18998,0.035172 -0.199881,0.2249208 -0.0055,0.1044829 0.05206,0.8026187 0.12781,1.5514137 l 0.137722,1.361444 -0.275564,-0.0071 c -0.15156,-0.0039 -0.346371,-0.01452 -0.432914,-0.0236 z"
     id="path22"
     transform="scale(0.75)" /><path
     style="fill:#1d95cf;fill-opacity:1;stroke-width:0.0422153"
     d="m 14.747249,12.387157 c -0.05876,-0.153131 0.285755,-1.678076 0.666902,-2.9519279 0.253155,-0.8460841 0.317989,-0.9959332 0.458896,-1.0606372 0.058,-0.026633 0.311311,-0.058153 0.562913,-0.070044 l 0.457457,-0.02162 0.232215,0.4916685 c 1.09525,2.3189746 1.533544,3.2635556 1.533544,3.3049936 0,0.0349 -0.111736,0.04195 -0.396092,0.02498 -0.303381,-0.0181 -0.459008,-0.05099 -0.664891,-0.140527 -0.213153,-0.0927 -0.349705,-0.120278 -0.659606,-0.133229 -0.474764,-0.01984 -0.749084,0.04985 -1.070942,0.272074 -0.124776,0.08615 -0.331348,0.199836 -0.459049,0.252633 -0.277307,0.11465 -0.623143,0.131191 -0.661347,0.03163 z m 2.033322,-1.580013 c 0.03484,-0.02891 0.06293,-0.102488 0.06242,-0.163496 -0.0018,-0.209877 -0.284518,-0.7230454 -0.39841,-0.7230454 -0.07589,0 -0.194618,0.3096964 -0.222776,0.5810924 -0.03129,0.301552 0.05714,0.407422 0.315921,0.378254 0.09873,-0.01113 0.208005,-0.04389 0.242846,-0.07281 z"
     id="path23"
     transform="scale(0.75)" /><path
     style="fill:#1d95cf;fill-opacity:1;stroke-width:0.0422153"
     d="m 19.063016,11.851954 c -0.01218,-0.07546 -0.05175,-0.536135 -0.08794,-1.023722 -0.03619,-0.487587 -0.09351,-1.1809737 -0.127381,-1.5408594 -0.03387,-0.3598856 -0.06164,-0.7545415 -0.06172,-0.8770129 -1.33e-4,-0.2033683 0.0099,-0.2267766 0.115946,-0.2699769 0.0666,-0.027135 0.495067,-0.055825 1.005016,-0.067295 0.838826,-0.018867 0.898628,-0.015043 1.061125,0.067857 0.519347,0.2649513 0.710345,0.9826368 0.433975,1.6306865 -0.06903,0.1618593 -0.125197,0.3613267 -0.124823,0.4432607 4.49e-4,0.0984 0.10794,0.369322 0.316615,0.798019 0.173764,0.356976 0.315934,0.673141 0.315934,0.70259 0,0.08414 -0.10433,0.104791 -0.529499,0.104791 -0.469538,0 -0.469821,-2.01e-4 -0.767311,-0.548586 -0.26666,-0.491552 -0.518212,-0.886735 -0.564448,-0.886735 -0.05297,0 -0.04778,0.177884 0.02527,0.865415 0.03454,0.325058 0.06283,0.624259 0.06287,0.664891 7e-5,0.06641 -0.05307,0.07388 -0.525701,0.07388 h -0.525779 z m 1.330236,-2.1391807 c 0.105223,-0.1052227 0.123398,-0.156226 0.123398,-0.3462668 0,-0.1934905 -0.01778,-0.241218 -0.134927,-0.3620776 -0.162113,-0.1672581 -0.334551,-0.1853499 -0.432586,-0.045386 -0.09427,0.1345907 -0.09137,0.6943833 0.0041,0.7999278 0.106263,0.1174192 0.296304,0.097464 0.439966,-0.046198 z"
     id="path24"
     transform="scale(0.75)" /><path
     style="fill:#1d95cf;fill-opacity:1;stroke-width:0.0422153"
     d="m 10.352696,18.660346 c -0.111241,-0.04785 -0.178801,-0.200248 -0.178801,-0.403337 0,-0.130014 0.01476,-0.147323 0.158307,-0.185698 0.179208,-0.04791 0.100667,-0.0403 7.221069,-0.69975 3.62069,-0.335328 5.271251,-0.473284 5.324108,-0.444996 0.08832,0.04727 0.129976,0.21571 0.129976,0.525571 v 0.217727 l -2.775658,0.245527 c -5.198873,0.459879 -5.983939,0.527512 -7.356021,0.633719 -1.736793,0.134437 -2.400961,0.16372 -2.52298,0.111237 z"
     id="path25"
     transform="scale(0.75)" /><path
     style="fill:#1d95cf;fill-opacity:1;stroke-width:0.0422153"
     d="m 10.701383,22.627089 c -0.03484,-0.05637 -0.18087,-1.41678 -0.230299,-2.145458 -0.05315,-0.783492 -0.05514,-1.23276 -0.0058,-1.310634 0.05028,-0.07939 0.248545,-0.0999 6.14646,-0.635809 5.74043,-0.521602 6.307163,-0.569559 6.340217,-0.536504 0.06646,0.06645 0.150924,0.640585 0.264868,1.800306 0.06958,0.708162 0.136987,1.377294 0.149795,1.486959 0.02127,0.182081 0.01493,0.201284 -0.073,0.2212 -0.274332,0.06214 -8.126548,0.76317 -9.718224,0.867629 -0.369758,0.02427 -0.835182,0.07125 -1.034276,0.104397 -0.199094,0.03315 -0.627946,0.08045 -0.953004,0.105118 -0.325058,0.02466 -0.652406,0.0527 -0.727441,0.06231 -0.07503,0.0096 -0.146712,8.26e-4 -0.159284,-0.01951 z m 1.317963,-0.683032 c 0.08788,-0.07401 0.239728,-0.210171 0.337447,-0.302585 l 0.177671,-0.168023 0.244483,0.14954 c 0.349585,0.213827 0.502507,0.286767 0.601216,0.286767 0.113837,0 0.108711,-0.04103 -0.05744,-0.459719 -0.0773,-0.194799 -0.131335,-0.389418 -0.120072,-0.432486 0.01126,-0.04307 0.159935,-0.23452 0.330383,-0.42545 0.212238,-0.237741 0.293857,-0.357346 0.25898,-0.379513 -0.02801,-0.0178 -0.243956,-0.03266 -0.47988,-0.03301 -0.417442,-6.29e-4 -0.431619,-0.0038 -0.528231,-0.118629 -0.0546,-0.06489 -0.154386,-0.25011 -0.221742,-0.411599 -0.118894,-0.285055 -0.191621,-0.414678 -0.21791,-0.388388 -0.007,0.007 -0.06187,0.201631 -0.121831,0.432415 -0.149826,0.576649 -0.167647,0.598555 -0.516901,0.63539 -0.636269,0.06711 -0.642996,0.180304 -0.03573,0.601398 0.19839,0.13757 0.200405,0.141311 0.181837,0.337723 -0.01033,0.109236 -0.04302,0.306834 -0.07265,0.439106 -0.05394,0.240792 -0.04037,0.371628 0.03852,0.371628 0.02314,0 0.11397,-0.06055 0.201847,-0.134561 z m 3.17241,-0.411359 0.373455,-0.334843 0.47904,0.270008 c 0.263472,0.148504 0.48702,0.262027 0.496774,0.252273 0.0098,-0.0098 -0.04911,-0.184795 -0.13082,-0.38898 -0.136953,-0.342253 -0.174227,-0.489438 -0.161976,-0.63959 0.0026,-0.0315 0.14084,-0.197698 0.307266,-0.369334 0.166427,-0.171636 0.294619,-0.32004 0.284872,-0.329787 -0.0097,-0.0097 -0.234427,-0.03556 -0.499288,-0.05736 -0.552273,-0.04546 -0.532757,-0.03186 -0.70423,-0.490697 -0.144102,-0.385597 -0.210782,-0.489702 -0.313657,-0.489702 -0.06824,0 -0.08352,0.02887 -0.08378,0.158308 -4.72e-4,0.23445 -0.07956,0.679864 -0.137077,0.771956 -0.06843,0.109577 -0.210041,0.158077 -0.559157,0.191508 -0.505271,0.04838 -0.503892,0.142388 0.0071,0.487233 l 0.321267,0.216788 -0.02759,0.34301 c -0.01517,0.188655 -0.0393,0.433245 -0.0536,0.543532 -0.01431,0.110288 -0.01388,0.200523 9.45e-4,0.200523 0.01483,0 0.195012,-0.150679 0.400413,-0.334843 z m 3.052978,-0.283821 0.380893,-0.323157 0.132867,0.07931 c 0.292969,0.174878 0.642395,0.354063 0.692219,0.354968 0.08283,0.0015 0.06296,-0.134507 -0.07388,-0.505625 -0.06966,-0.188915 -0.126646,-0.377686 -0.126646,-0.41949 0,-0.0418 0.155659,-0.22233 0.34591,-0.401168 0.238807,-0.224482 0.329542,-0.335276 0.293047,-0.357831 -0.02907,-0.01797 -0.236975,-0.0244 -0.462002,-0.01428 -0.300763,0.01352 -0.428639,0.0034 -0.482755,-0.0382 -0.04049,-0.03113 -0.163968,-0.226333 -0.274399,-0.433793 -0.110432,-0.20746 -0.221366,-0.383709 -0.24652,-0.391665 -0.0493,-0.01559 -0.108283,0.158623 -0.187363,0.553433 -0.03008,0.150186 -0.08732,0.2864 -0.144302,0.343377 -0.09312,0.09312 -0.136652,0.102889 -0.75186,0.168756 -0.133506,0.01429 -0.242738,0.04165 -0.242738,0.0608 0,0.01914 0.137727,0.120873 0.306061,0.226064 0.168334,0.105191 0.367066,0.254529 0.441627,0.331862 l 0.135565,0.140606 -0.103144,0.442937 c -0.05673,0.243616 -0.103487,0.457185 -0.103905,0.474599 -0.002,0.08193 0.120298,0.0063 0.471321,-0.291495 z m 2.981388,-0.24675 c 0.208706,-0.174138 0.392347,-0.316615 0.408092,-0.316615 0.01574,0 0.159225,0.07627 0.318846,0.169496 0.15962,0.09322 0.348154,0.181084 0.418964,0.195246 0.117896,0.02358 0.128747,0.01622 0.128747,-0.08738 0,-0.06222 -0.05699,-0.247055 -0.126646,-0.410742 -0.06966,-0.163688 -0.126646,-0.329315 -0.126646,-0.368061 0,-0.03875 0.151022,-0.220583 0.335605,-0.404083 0.184582,-0.1835 0.324324,-0.351889 0.310537,-0.374198 -0.01516,-0.02454 -0.181531,-0.02956 -0.421082,-0.01272 -0.262011,0.01842 -0.425763,0.01191 -0.483933,-0.01922 -0.04836,-0.02588 -0.159865,-0.20278 -0.247799,-0.393112 -0.18449,-0.399328 -0.27709,-0.50369 -0.353817,-0.398761 -0.02709,0.03705 -0.09269,0.247533 -0.145779,0.467735 -0.112137,0.46515 -0.1243,0.475553 -0.603845,0.516473 -0.395763,0.03377 -0.500653,0.05585 -0.500653,0.10539 0,0.02191 0.11873,0.119153 0.263845,0.216094 0.377779,0.252366 0.538446,0.414563 0.537162,0.542278 -5.96e-4,0.0593 -0.0381,0.269285 -0.08335,0.466641 -0.04524,0.197357 -0.08275,0.373078 -0.08335,0.390492 -0.0026,0.07579 0.09895,0.01221 0.455096,-0.284953 z"
     id="path26"
     transform="scale(0.75)" /><path
     style="fill:#1d95cf;fill-opacity:1;stroke-width:0.0422153"
     d="m 10.828232,23.694127 c -0.120464,-0.0301 -0.146376,-0.08857 -0.147107,-0.331953 -4.58e-4,-0.152514 0.02085,-0.234018 0.07323,-0.280159 0.05792,-0.05101 0.694049,-0.121406 2.94452,-0.325827 2.462304,-0.223662 7.368814,-0.685659 9.04254,-0.851444 0.401813,-0.0398 0.528521,-0.03983 0.576343,-1.43e-4 0.06861,0.05694 0.217433,0.612061 0.180224,0.672267 -0.02955,0.04781 -0.06731,0.05217 -2.242563,0.259409 -4.205315,0.400637 -10.092238,0.905528 -10.300541,0.883424 -0.02322,-0.0025 -0.08021,-0.01397 -0.126646,-0.02557 z"
     id="path27"
     transform="scale(0.75)" /><path
     style="fill:#b1292f;fill-opacity:1;stroke-width:0.0211077"
     d="M 9.1089732,8.4305125 C 9.0108419,8.3323813 8.9745584,8.1542187 8.896597,7.3876828 8.7768786,6.2105814 8.6632838,5.3846599 8.557786,4.924267 8.4927105,4.6402772 8.4953747,4.5592779 8.5709764,4.5232355 8.7701968,4.4282591 10.704381,4.3577084 10.818632,4.4412508 c 0.05992,0.043815 0.159666,0.6550505 0.127687,0.782463 -0.01955,0.077889 -0.109559,0.110049 -0.384041,0.1372169 -0.473527,0.046869 -0.5947938,0.092934 -0.6798467,0.2582497 -0.059005,0.1146859 -0.050862,0.1947646 0.02239,0.2201871 0.026094,0.00906 0.1721437,0.013901 0.3245547,0.010767 0.263375,-0.00542 0.279871,-0.00328 0.332756,0.042987 0.0777,0.067979 0.164352,0.4048699 0.16825,0.6540863 0.0028,0.1759428 3.82e-4,0.1858425 -0.05945,0.2483518 -0.07928,0.082823 -0.151389,0.1009858 -0.473423,0.1192427 l -0.2613401,0.014816 0.012851,0.1604319 c 0.033435,0.4174052 0.039931,0.8827507 0.014425,1.0333439 -0.037431,0.2209988 -0.086306,0.2703014 -0.3066856,0.3093704 -0.2380376,0.0422 -0.5044271,0.041104 -0.5477837,-0.00225 z"
     id="path28"
     transform="scale(0.75)" /><path
     style="fill:#b1292f;fill-opacity:1;stroke-width:0.0211077"
     d="M 12.907337,8.0115902 C 12.642515,7.9498864 12.465072,7.863526 12.20642,7.6704595 11.890552,7.4346852 11.573801,7.0658091 11.429384,6.765554 11.168982,6.2241549 11.224211,5.5655526 11.572375,5.0604036 c 0.350428,-0.5084331 0.675172,-0.745359 1.324824,-0.9665607 0.329566,-0.1122148 0.476776,-0.1259243 0.707658,-0.065904 0.552336,0.1435862 0.809911,0.2783046 1.101729,0.576231 0.191204,0.1952076 0.308653,0.3599046 0.427066,0.5988693 0.133999,0.2704179 0.190221,0.4738661 0.205439,0.7434076 0.0508,0.899822 -0.568049,1.754884 -1.465095,2.0243095 -0.15849,0.047602 -0.233576,0.056834 -0.512844,0.063054 -0.229026,0.0051 -0.36516,-0.00156 -0.453815,-0.02222 z M 13.546734,6.9743048 C 14.035526,6.8738393 14.330067,6.4830389 14.307327,5.9651427 14.300327,5.8058812 14.287857,5.7494359 14.234517,5.6357466 14.080494,5.3074693 13.784069,5.148393 13.26617,5.1160827 c -0.351008,-0.021898 -0.447954,0.027412 -0.740329,0.3765622 -0.367356,0.4386899 -0.402058,0.6349114 -0.172436,0.97503 0.299779,0.4440371 0.6906,0.6099606 1.193331,0.5066299 z"
     id="path29"
     transform="scale(0.75)" /><path
     style="fill:#b1292f;fill-opacity:1;stroke-width:0.0211077"
     d="M 16.855752,7.753893 C 16.581063,7.6950183 16.345499,7.5732156 16.220218,7.425279 16.044297,7.2175437 15.891933,6.6589116 15.789702,5.8468233 15.75284,5.5539985 15.598995,3.9577113 15.598669,3.8646614 c -1.59e-4,-0.0452 0.756249,-0.015627 0.860041,0.033625 0.171609,0.081434 0.20875,0.2321992 0.321423,1.3047528 0.103661,0.9867614 0.174288,1.3357258 0.299113,1.4778937 0.137865,0.1570193 0.334828,0.064906 0.410111,-0.1917959 0.03348,-0.1141682 0.03447,-0.1613729 0.0112,-0.5367757 -0.01403,-0.2263797 -0.0539,-0.6965529 -0.08859,-1.0448294 -0.08155,-0.8187059 -0.08662,-1.0221749 -0.02747,-1.1013981 0.05986,-0.080176 0.141429,-0.093997 0.461883,-0.078264 l 0.274246,0.013465 0.07607,0.076515 c 0.13832,0.1391188 0.187376,0.3723169 0.264751,1.2585438 0.02584,0.296012 0.03724,0.6429827 0.03814,1.161196 l 0.0013,0.7390427 -0.0722,0.1474792 c -0.23201,0.4738924 -0.953127,0.7626221 -1.572913,0.6297816 z"
     id="path30"
     transform="scale(0.75)" /><path
     style="fill:#b1292f;fill-opacity:1;stroke-width:0.0211077"
     d="M 16.90724,7.7531285 C 16.699215,7.7186612 16.421402,7.5942469 16.292577,7.4778611 16.062214,7.2697423 15.894796,6.6677808 15.778961,5.6311342 15.715488,5.0630846 15.619672,4.0454145 15.619672,3.939303 v -0.0766 l 0.290231,1.223e-4 c 0.33611,1.416e-4 0.521496,0.025318 0.596178,0.080964 0.110264,0.082159 0.153919,0.2849099 0.252954,1.1748197 0.112387,1.009883 0.179964,1.3729063 0.285487,1.5336148 0.112527,0.1713757 0.307479,0.1441666 0.411261,-0.057399 0.08974,-0.1742919 0.08539,-0.4034965 -0.03161,-1.6661849 -0.07582,-0.8182728 -0.0823,-0.9569953 -0.04924,-1.0547968 0.04308,-0.1274562 0.08603,-0.1406486 0.433548,-0.1331641 0.297019,0.0064 0.300228,0.00699 0.362576,0.06672 0.09137,0.087541 0.145645,0.2324352 0.192476,0.5138672 0.07688,0.4619876 0.10884,0.9388705 0.120787,1.8021214 l 0.01157,0.835918 -0.0793,0.1509161 c -0.208013,0.3958489 -0.7131,0.6616843 -1.243597,0.6545244 -0.117137,-0.00158 -0.236723,-0.00681 -0.265746,-0.011618 z"
     id="path31"
     transform="scale(0.75)" /><path
     style="fill:#b1292f;fill-opacity:1;stroke-width:0.0211077"
     d="M 16.816894,7.7345453 C 16.640425,7.6917922 16.399862,7.5747867 16.296571,7.4814693 16.081299,7.2869841 15.905358,6.7030203 15.800893,5.8362694 15.751101,5.4231437 15.619672,4.0579592 15.619672,3.9538856 v -0.091183 l 0.290231,1.223e-4 c 0.33611,1.416e-4 0.521496,0.025318 0.596178,0.080964 0.110365,0.082235 0.157642,0.3021412 0.254838,1.1853736 0.106824,0.9707219 0.176904,1.3537654 0.277443,1.5164407 0.04978,0.080552 0.165483,0.138766 0.234534,0.1180056 0.08039,-0.024169 0.180968,-0.1394681 0.217431,-0.2492478 0.0461,-0.1387856 0.03221,-0.5125154 -0.05385,-1.4485215 -0.09272,-1.0085932 -0.09777,-1.1137492 -0.05798,-1.2085481 0.04702,-0.1120189 0.10079,-0.1263481 0.440693,-0.1174337 0.284685,0.00747 0.290276,0.00854 0.352021,0.067697 0.09123,0.0874 0.145516,0.2324485 0.192276,0.5137113 0.07954,0.4784481 0.109327,0.9193951 0.121014,1.7916026 l 0.01134,0.8465069 -0.07929,0.150881 c -0.151309,0.2879415 -0.472282,0.5166076 -0.863641,0.6152718 -0.198805,0.05012 -0.548677,0.054406 -0.73603,0.00902 z"
     id="path32"
     transform="scale(0.75)" /><path
     style="fill:#b1292f;fill-opacity:1;stroke-width:0.0211077"
     d="M 16.816894,7.7345453 C 16.635616,7.690627 16.396012,7.5725892 16.290248,7.4750998 16.113007,7.3117246 15.973609,6.9155411 15.861553,6.2567018 15.810306,5.9553895 15.656914,4.5278106 15.627408,4.0775767 l -0.01408,-0.214874 0.293403,1.223e-4 c 0.161372,6.72e-5 0.350343,0.00945 0.419936,0.020841 0.284519,0.046589 0.306261,0.1109355 0.443392,1.3122318 0.111175,0.9739186 0.157988,1.2308624 0.257801,1.4149816 0.03574,0.065925 0.07907,0.1111787 0.129285,0.1350049 0.07192,0.034126 0.07907,0.033926 0.149619,-0.00418 0.08745,-0.047236 0.161205,-0.1498157 0.194212,-0.2701159 0.03253,-0.1185776 0.012,-0.5630894 -0.06493,-1.4057485 -0.09239,-1.012004 -0.09725,-1.1139511 -0.05754,-1.2085481 0.04702,-0.1120189 0.10079,-0.1263481 0.440693,-0.1174337 0.284685,0.00747 0.290276,0.00854 0.352021,0.067697 0.09123,0.0874 0.145516,0.2324485 0.192276,0.5137113 0.07954,0.4784481 0.109327,0.9193951 0.121014,1.7916026 l 0.01134,0.8465069 -0.07929,0.150881 c -0.152951,0.2910646 -0.507821,0.5396137 -0.890816,0.6239219 -0.185806,0.040901 -0.540784,0.041085 -0.708855,3.664e-4 z"
     id="path33"
     transform="scale(0.75)" /><path
     style="fill:#b1292f;fill-opacity:1;stroke-width:0.0211077"
     d="M 16.78846,7.7258542 C 16.595456,7.675253 16.39998,7.5762471 16.286435,7.471585 16.056609,7.2597387 15.879617,6.6047647 15.768255,5.5540196 15.697253,4.8840813 15.619838,4.0477864 15.619752,3.9497919 l -8e-5,-0.092326 0.374661,0.00969 c 0.40768,0.010544 0.50049,0.031894 0.564712,0.1299082 0.07318,0.1116892 0.12049,0.379896 0.210858,1.1954215 0.09255,0.835191 0.161943,1.2321709 0.24353,1.3931059 0.118056,0.2328739 0.31071,0.2329387 0.440708,1.481e-4 0.0893,-0.159918 0.08486,-0.4007256 -0.03024,-1.6393092 -0.07869,-0.8468309 -0.08489,-0.9952955 -0.04545,-1.0891389 0.04707,-0.111998 0.100883,-0.1263469 0.440424,-0.1174424 0.273299,0.00717 0.292005,0.010417 0.345053,0.059939 0.144113,0.1345329 0.201087,0.3656069 0.275067,1.1155953 0.01972,0.1999332 0.03735,0.6667146 0.04475,1.1850082 l 0.01222,0.8551369 -0.06817,0.1350456 c -0.158259,0.3135098 -0.487955,0.5474898 -0.908438,0.6447028 -0.192276,0.044453 -0.542635,0.039936 -0.730902,-0.00942 z"
     id="path34"
     transform="scale(0.75)" /><path
     style="fill:#b1292f;fill-opacity:1;stroke-width:0.0211077"
     d="M 16.78846,7.7258542 C 16.595456,7.675253 16.39998,7.5762471 16.286435,7.471585 16.05739,7.2604585 15.88347,6.6192807 15.768423,5.5618698 15.70466,4.9758153 15.619887,4.0564771 15.619772,3.9497919 l -10e-5,-0.092326 0.374661,0.00969 c 0.409713,0.010597 0.500403,0.03176 0.566163,0.1321232 0.05836,0.089072 0.110165,0.3475796 0.167202,0.8343761 0.145669,1.2432498 0.18191,1.4749906 0.265685,1.6988982 0.05124,0.1369662 0.142322,0.2218994 0.237949,0.2218994 0.08947,0 0.148389,-0.04425 0.219111,-0.1645575 0.05783,-0.098379 0.05833,-0.1024792 0.05509,-0.4475648 -0.0018,-0.1947421 -0.03186,-0.656979 -0.06813,-1.0485351 -0.09303,-1.0044554 -0.0995,-1.140036 -0.05895,-1.2365039 0.04684,-0.1114438 0.100847,-0.1258755 0.440334,-0.1176663 0.285107,0.00689 0.289698,0.00777 0.352021,0.067513 0.12381,0.1186745 0.185469,0.3407699 0.243964,0.8787635 0.05291,0.4866663 0.07512,0.9759312 0.07533,1.6602008 l 2.04e-4,0.6364793 -0.07529,0.1339505 c -0.172787,0.3074095 -0.486541,0.5241582 -0.895662,0.6187446 -0.192276,0.044453 -0.542635,0.039936 -0.730902,-0.00942 z"
     id="path35"
     transform="scale(0.75)" /><path
     style="fill:#b1292f;fill-opacity:1;stroke-width:0.0211077"
     d="M 16.78846,7.7258542 C 16.595456,7.675253 16.39998,7.5762471 16.286435,7.471585 16.104825,7.3041826 15.952574,6.8468855 15.843584,6.1414502 15.789139,5.7890556 15.654403,4.5067556 15.627706,4.0869143 l -0.0146,-0.2296033 0.377944,0.00977 c 0.425276,0.010991 0.507555,0.031846 0.577153,0.1462914 0.06956,0.1143875 0.107758,0.3387321 0.212023,1.2453692 0.115071,1.0005993 0.179154,1.2987837 0.306489,1.4261182 0.127674,0.1276748 0.275682,0.081942 0.372758,-0.1151786 0.04596,-0.09332 0.04905,-0.1225792 0.04524,-0.4273481 -0.0023,-0.1799429 -0.0286,-0.5978746 -0.05856,-0.9287373 -0.09768,-1.0787182 -0.107069,-1.2654282 -0.06825,-1.3563017 0.04761,-0.1114377 0.101682,-0.1258686 0.440884,-0.1176663 0.285107,0.00689 0.289698,0.00777 0.352021,0.067513 0.124114,0.1189659 0.18772,0.3477147 0.244349,0.8787635 0.05283,0.495436 0.07473,0.981942 0.07495,1.6649361 l 2.04e-4,0.6412146 -0.06769,0.1186614 c -0.1733,0.3037832 -0.481306,0.5225622 -0.86528,0.6146144 -0.22957,0.055036 -0.560105,0.055262 -0.768882,5.26e-4 z"
     id="path36"
     transform="scale(0.75)" /><path
     style="fill:#b1292f;fill-opacity:1;stroke-width:0.0211077"
     d="m 19.274363,7.4907286 c -0.0782,-0.2056714 -0.194341,-1.0924456 -0.309306,-2.3615659 -0.09665,-1.0669244 -0.09295,-1.3403943 0.01988,-1.4715765 0.06134,-0.071315 0.209865,-0.094704 0.925226,-0.1457009 0.845548,-0.060278 0.998591,-0.021179 1.36681,0.3491917 0.229369,0.2307095 0.318014,0.3824268 0.370931,0.6348557 0.0548,0.2614201 0.01653,0.4731832 -0.156406,0.8654143 -0.08576,0.194502 -0.09773,0.2397161 -0.09778,0.3693841 -7.8e-5,0.1893123 0.02859,0.2629941 0.349446,0.8981333 0.149061,0.2950674 0.256635,0.5334473 0.258454,0.572725 0.003,0.064354 -0.0023,0.068941 -0.120484,0.105405 -0.06798,0.020968 -0.240166,0.054184 -0.382633,0.073813 -0.245727,0.033857 -0.264025,0.033784 -0.356211,-0.00142 C 20.97663,7.3161165 20.866023,7.1648743 20.445865,6.4271032 20.333415,6.2296469 20.218194,6.0396779 20.18982,6.0049499 l -0.05159,-0.063142 -0.0013,0.1055383 c -6.97e-4,0.058046 0.01451,0.3382503 0.0338,0.6226761 0.03886,0.5728937 0.03055,0.6631999 -0.0669,0.7270502 -0.07465,0.048913 -0.38361,0.1146446 -0.615543,0.1309576 -0.191894,0.013497 -0.194842,0.012983 -0.21396,-0.037301 z m 1.074369,-2.1193153 c 0.08798,-0.045494 0.221174,-0.2221542 0.263436,-0.3493918 0.06478,-0.1950464 0.0052,-0.3646308 -0.19102,-0.543997 -0.168075,-0.153611 -0.273276,-0.1712215 -0.356195,-0.059626 -0.04065,0.054717 -0.0442,0.08623 -0.0428,0.3799379 0.0012,0.2485723 0.0096,0.3414023 0.03765,0.4146559 0.06846,0.178891 0.15625,0.2270298 0.288925,0.158421 z"
     id="path37"
     transform="scale(0.75)" /><path
     style="fill:#b1292f;fill-opacity:1;stroke-width:0.0211077"
     d="M 19.275231,7.4532135 C 19.177725,7.173508 18.945622,5.1060261 18.91954,4.2848561 c -0.0182,-0.5730848 0.01315,-0.6509017 0.27971,-0.6941368 0.223027,-0.036175 0.91816,-0.086847 1.191387,-0.086847 0.421245,0 0.586833,0.072179 0.897733,0.3913188 0.255636,0.2624118 0.367382,0.5124478 0.367532,0.822372 7.8e-5,0.1600478 -0.03112,0.2763775 -0.165885,0.6185665 -0.114667,0.2911542 -0.131896,0.4093061 -0.08524,0.5845704 0.01236,0.046437 0.14592,0.3388623 0.296799,0.6498341 0.150878,0.3109718 0.276064,0.5907618 0.278191,0.6217556 0.0028,0.041441 -0.01024,0.063285 -0.04947,0.082552 -0.07372,0.036212 -0.511222,0.1129171 -0.641632,0.1124943 C 21.055824,7.3865808 20.956661,7.2753635 20.509613,6.5135771 20.349018,6.239917 20.199734,5.9945679 20.17787,5.9683568 c -0.03965,-0.04753 -0.03976,-0.047237 -0.04081,0.1106508 -5.82e-4,0.087069 0.01023,0.3720226 0.02402,0.63323 0.02745,0.5197821 0.01967,0.6172316 -0.0531,0.6649134 -0.08189,0.053656 -0.373246,0.1175017 -0.596108,0.1306271 L 19.29863,7.5203371 Z M 20.379825,5.3611156 C 20.460765,5.3110926 20.59227,5.1279464 20.62221,5.0235499 20.68474,4.8055403 20.60506,4.6078266 20.383619,4.4315163 20.210102,4.2933597 20.052723,4.327943 20.018229,4.5118093 c -0.02597,0.1384277 0.0041,0.6422646 0.04408,0.7392899 0.06337,0.1536746 0.180953,0.1944167 0.317515,0.1100164 z"
     id="path38"
     transform="scale(0.75)" /><path
     style="fill:#b1292f;fill-opacity:1;stroke-width:0.0211077"
     d="M 19.274567,7.4487598 C 19.163355,7.1040986 18.912263,4.7948063 18.912586,4.1196117 c 1.93e-4,-0.4035073 0.04429,-0.487954 0.275773,-0.528064 0.202065,-0.035013 0.924252,-0.087666 1.202488,-0.087671 0.421112,-7.2e-6 0.570596,0.063105 0.875126,0.369478 0.274513,0.2761751 0.390492,0.5234715 0.390492,0.8326315 0,0.1702471 -0.02677,0.2737776 -0.153069,0.5920379 -0.115592,0.2912758 -0.141533,0.4460603 -0.101496,0.6056021 0.01401,0.055827 0.147538,0.3532136 0.296729,0.6608578 0.149192,0.3076442 0.277336,0.583804 0.284765,0.6136885 0.0088,0.03538 0.0029,0.063107 -0.01679,0.079478 -0.04454,0.036963 -0.378046,0.1065903 -0.585117,0.1221561 C 21.041296,7.4053796 21.014994,7.3769666 20.38242,6.300638 20.29372,6.1497182 20.201431,6.0024922 20.177328,5.9734692 l -0.04382,-0.052769 0.0119,0.3588303 c 0.0065,0.1973567 0.01813,0.4830599 0.02574,0.634896 0.01658,0.3309089 0.0037,0.4189116 -0.06822,0.4660366 -0.08218,0.053845 -0.356117,0.1126303 -0.591528,0.1269383 l -0.213716,0.012989 z m 1.09681,-2.082275 c 0.19292,-0.1284976 0.31551,-0.431777 0.252142,-0.623783 -0.05861,-0.1775941 -0.297234,-0.3945228 -0.433977,-0.3945228 -0.04434,0 -0.08367,0.018231 -0.11775,0.05457 -0.04984,0.053152 -0.05116,0.063441 -0.05071,0.3957687 4.92e-4,0.3660299 0.01766,0.4559504 0.105033,0.5502313 0.06065,0.065436 0.162581,0.072807 0.245264,0.017735 z"
     id="path39"
     transform="scale(0.75)" /><path
     style="fill:#b1292f;fill-opacity:1;stroke-width:0.0211077"
     d="m 19.09032,16.496925 c -0.02566,-0.10225 0.02791,-0.393788 0.213274,-1.160564 0.373023,-1.543063 0.615617,-2.339662 0.759301,-2.493294 0.08251,-0.08822 0.236738,-0.12234 0.559294,-0.123734 0.286499,-0.0012 0.336372,0.01804 0.463834,0.17929 0.120849,0.152886 0.271256,0.429111 0.685835,1.25955 0.530739,1.063116 0.937061,1.935832 0.912655,1.960239 -0.02092,0.02092 -0.437076,0.113175 -0.614106,0.136136 -0.239205,0.03102 -0.325236,0.0042 -0.389345,-0.121418 -0.08185,-0.160365 -0.09566,-0.165346 -0.454357,-0.163838 -0.257995,0.0011 -0.358196,0.0107 -0.520085,0.0499 -0.303436,0.07348 -0.504611,0.158619 -0.728455,0.308278 -0.246748,0.164973 -0.355399,0.201086 -0.647749,0.215295 l -0.225836,0.01098 z m 1.923596,-1.489845 c 0.06484,-0.02465 0.06656,-0.08249 0.0077,-0.258765 -0.09463,-0.283454 -0.272785,-0.521749 -0.390075,-0.521749 -0.06706,0 -0.08175,0.03548 -0.135431,0.327169 -0.04858,0.263953 -0.05468,0.422871 -0.01713,0.446079 0.07936,0.04905 0.413103,0.05358 0.534921,0.0073 z"
     id="path40"
     transform="scale(0.75)" /><path
     style="fill:#b1292f;fill-opacity:1;stroke-width:0.0211077"
     d=""
     id="path41"
     transform="scale(0.75)" /><path
     style="fill:#b1292f;fill-opacity:1;stroke-width:0.0211077"
     d="m 22.135752,13.070922 c -0.03024,-0.153115 0.06557,-0.343 0.173077,-0.343 0.0835,0 0.170835,0.04602 0.170835,0.09001 0,0.05092 -0.250803,0.311032 -0.299905,0.311032 -0.01865,0 -0.03744,-0.02478 -0.04401,-0.05805 z"
     id="path42"
     transform="scale(0.75)" /><path
     style="fill:#b1292f;fill-opacity:1;stroke-width:0.0211077"
     d="m 22.156013,13.093788 c -0.03017,-0.03017 -0.01105,-0.169459 0.03429,-0.249774 0.03778,-0.06692 0.06159,-0.08579 0.11477,-0.09097 0.07926,-0.0077 0.153484,0.02679 0.153484,0.07138 0,0.0358 -0.232965,0.283435 -0.266641,0.283435 -0.01201,0 -0.02816,-0.0063 -0.0359,-0.01407 z"
     id="path43"
     transform="scale(0.75)" /><path
     style="fill:#b1292f;fill-opacity:1;stroke-width:0.0211077"
     d=""
     id="path44"
     transform="scale(0.75)" /><path
     style="fill:#b1292f;fill-opacity:1;stroke-width:0.0211077"
     d="m 22.24229,13.400044 c -0.124987,-0.02701 -0.319589,-0.134668 -0.39152,-0.216593 -0.153319,-0.17462 -0.121601,-0.394302 0.09284,-0.643008 0.127608,-0.148001 0.231979,-0.213566 0.339965,-0.213566 0.08313,0 0.105392,0.01164 0.208208,0.108882 0.145913,0.137998 0.346926,0.431584 0.346805,0.50652 -1.05e-4,0.06547 -0.101642,0.194222 -0.267889,0.3397 -0.06303,0.05516 -0.11648,0.100281 -0.118784,0.100281 -0.0023,0 -0.03262,0.0078 -0.06737,0.01744 -0.03475,0.0096 -0.09876,0.0097 -0.14225,3.48e-4 z m 0.111851,-0.155762 c 0.173152,-0.119995 0.276512,-0.347566 0.23235,-0.511571 -0.06176,-0.229354 -0.29804,-0.260621 -0.545857,-0.07223 -0.08397,0.06383 -0.173093,0.209414 -0.173093,0.282751 0,0.05977 0.08957,0.183225 0.206926,0.285209 0.0962,0.0836 0.17543,0.08809 0.279674,0.01585 z"
     id="path45"
     transform="scale(0.75)" /><path
     style="fill:#b1292f;fill-opacity:1;stroke-width:0.0211077"
     d="m 16.790851,16.648321 c 0.0066,-0.03754 0.08841,-0.500429 0.18175,-1.028649 0.232253,-1.314326 0.241547,-1.543555 0.06621,-1.632844 -0.03173,-0.01616 -0.110195,-0.04446 -0.174368,-0.06291 -0.202821,-0.05828 -0.288788,-0.193459 -0.309477,-0.486623 -0.01387,-0.196484 0.01934,-0.295144 0.111084,-0.330025 0.147279,-0.05599 0.945097,-0.126059 1.435438,-0.126059 0.305512,0 0.325509,0.0025 0.325509,0.04003 0,0.02202 -0.05647,0.380582 -0.125487,0.796814 -0.242022,1.459584 -0.27566,1.808573 -0.180997,1.877792 0.04471,0.03269 0.330224,0.03857 0.501796,0.01033 0.121678,-0.02003 0.184722,0.01394 0.184435,0.09938 -1.84e-4,0.05455 -0.07835,0.42629 -0.127998,0.608712 -0.01999,0.07346 -0.0343,0.08959 -0.08917,0.100566 -0.03595,0.0072 -0.431553,0.05086 -0.879122,0.09704 -0.447569,0.04618 -0.840284,0.08863 -0.872699,0.09433 -0.05629,0.0099 -0.05839,0.0073 -0.0469,-0.05789 z"
     id="path46"
     transform="scale(0.75)" /><path
     style="fill:#b1292f;fill-opacity:1;stroke-width:0.0211077"
     d="m 13.255614,17.073718 c -0.239032,-0.01954 -0.292402,-0.03589 -0.325207,-0.09964 -0.04441,-0.08629 -0.06868,-0.282517 -0.148101,-1.196953 -0.106526,-1.226592 -0.123566,-1.479417 -0.126038,-1.870076 -0.0025,-0.402627 -7.48e-4,-0.407381 0.187746,-0.495917 0.09567,-0.04494 0.134498,-0.04959 0.4152,-0.04978 l 0.309661,-2.06e-4 0.01158,0.05805 c 0.0499,0.250199 0.254488,2.526548 0.279419,3.108984 0.01609,0.375859 -0.002,0.473073 -0.09446,0.508884 -0.0858,0.03321 -0.333737,0.05104 -0.509792,0.03665 z"
     id="path47"
     transform="scale(0.75)" /><path
     style="fill:#b1292f;fill-opacity:1;stroke-width:0.0211077"
     d="m 14.569046,16.851619 c -0.02641,-0.0059 -0.06344,-0.03432 -0.0823,-0.0631 -0.06685,-0.102033 0.0032,-0.711416 0.21395,-1.86112 0.07864,-0.428978 0.09249,-0.61755 0.04809,-0.654404 -0.01462,-0.01213 -0.111978,-0.03783 -0.216354,-0.0571 -0.214115,-0.03953 -0.269467,-0.0674 -0.317176,-0.159656 -0.04461,-0.08626 -0.11431,-0.407336 -0.114879,-0.529167 -6.94e-4,-0.148787 0.03637,-0.178152 0.273943,-0.217025 0.275928,-0.04515 0.961454,-0.112478 1.325897,-0.130221 l 0.302176,-0.01471 -0.01339,0.134956 c -0.03084,0.310871 -0.08121,0.654778 -0.178955,1.222001 -0.175359,1.017587 -0.195926,1.217005 -0.137223,1.330525 0.03669,0.07096 0.05598,0.07721 0.319721,0.103608 0.199766,0.01999 0.308909,0.0589 0.331675,0.118226 0.0072,0.01879 0.0129,0.102255 0.01265,0.185473 -0.0011,0.36403 -0.159736,0.470906 -0.822735,0.55434 -0.253561,0.03191 -0.862189,0.05598 -0.945088,0.03737 z"
     id="path48"
     transform="scale(0.75)" /><path
     style="fill:#b1292f;fill-opacity:1;stroke-width:0.0211077"
     d="M 10.247481,17.283178 C 10.078362,17.150149 9.9479763,16.609202 9.7422275,15.186965 9.6385527,14.470314 9.6043992,14.160668 9.6041792,13.935377 c -1.737e-4,-0.178014 0.00441,-0.200811 0.049478,-0.245876 0.063045,-0.06305 0.2023939,-0.09082 0.5413448,-0.107891 0.320523,-0.01615 0.958371,0.02018 1.166872,0.06645 0.553304,0.12279 0.909325,0.541056 0.986044,1.158436 0.04435,0.356886 -0.04514,0.723027 -0.23591,0.965277 -0.119164,0.151315 -0.400429,0.31046 -0.756125,0.427827 -0.178355,0.05885 -0.335901,0.13136 -0.40607,0.186892 -0.03334,0.02638 -0.03547,0.06245 -0.02308,0.390664 l 0.01365,0.361598 -0.07561,0.07131 c -0.08971,0.0846 -0.209727,0.119331 -0.41243,0.119331 -0.118368,0 -0.157271,-0.0088 -0.204867,-0.04622 z m 0.959457,-1.972468 c 0.137217,-0.12337 0.191201,-0.226997 0.191201,-0.36703 0,-0.126036 -0.0199,-0.171161 -0.123864,-0.280869 -0.109968,-0.116044 -0.169361,-0.140737 -0.3385,-0.140737 H 10.78793 l -0.01346,0.07177 c -0.02667,0.142186 0.0847,0.662353 0.163187,0.762128 0.06481,0.08239 0.141676,0.06947 0.269285,-0.04526 z M 10.4635,14.453474 c 0.05767,-0.06272 0.128148,-0.197167 0.154853,-0.295419 0.03672,-0.135087 -0.04468,-0.220201 -0.1111,-0.116181 -0.04608,0.07216 -0.101779,0.22332 -0.121824,0.330616 -0.0259,0.138621 1.88e-4,0.16568 0.07807,0.08098 z"
     id="path49"
     transform="scale(0.75)" /></svg>
