<?xml version="1.0" encoding="UTF-8" ?>
<!DOCTYPE svg PUBLIC "-//W3C//DTD SVG 1.1//EN" "http://www.w3.org/Graphics/SVG/1.1/DTD/svg11.dtd">
<svg width="236pt" height="238pt" viewBox="0 0 942 948" version="1.1" xmlns="http://www.w3.org/2000/svg">
<g id="#ffffffff">
<path fill="#ffffff" opacity="1.00" d=" M 518.48 122.29 C 526.96 118.30 536.77 118.41 545.78 120.24 C 555.83 122.44 565.47 128.98 569.06 138.94 C 572.19 147.90 572.71 158.50 567.87 166.97 C 563.34 174.67 554.41 178.22 546.10 180.12 C 535.54 181.31 525.34 176.77 516.40 171.61 C 514.11 170.17 510.76 169.60 508.66 171.65 C 504.01 175.96 500.41 181.23 496.59 186.25 C 509.87 198.36 521.14 212.82 528.88 229.09 C 537.09 246.19 540.76 265.18 541.57 284.04 C 542.61 308.63 535.97 333.64 521.90 353.93 C 504.43 379.80 477.55 397.61 449.60 410.48 C 429.57 419.65 408.07 426.00 386.02 427.42 C 377.23 427.72 368.26 427.95 359.69 425.65 C 352.40 434.30 345.77 443.60 340.51 453.63 C 339.00 457.12 336.64 460.96 337.83 464.88 C 340.52 469.28 346.42 469.48 351.03 469.70 C 369.18 469.90 387.26 467.52 405.12 464.45 C 430.05 460.19 454.94 455.75 479.88 451.55 C 500.85 448.33 521.73 443.62 543.04 443.54 C 562.19 443.43 581.70 446.48 599.04 454.93 C 617.29 463.68 632.65 478.57 641.42 496.87 C 646.86 508.79 650.25 521.82 649.88 534.99 C 649.97 553.36 643.09 571.10 633.31 586.40 C 623.58 601.52 611.20 614.80 597.54 626.42 C 582.30 639.64 565.50 650.98 547.94 660.90 C 511.62 682.31 471.13 696.56 429.45 702.80 C 405.51 706.31 381.13 707.33 357.04 704.72 C 339.45 702.69 321.80 699.01 305.73 691.34 C 290.91 684.09 277.28 672.75 270.77 657.24 C 263.84 640.95 265.57 622.32 271.08 605.89 C 274.14 595.79 280.46 587.16 286.89 578.95 C 295.92 567.72 305.71 557.06 316.29 547.26 C 320.69 542.19 328.06 543.77 334.02 542.97 C 319.81 541.30 304.94 539.36 292.77 531.22 C 283.76 525.60 276.98 516.38 274.77 505.95 C 271.96 494.30 274.34 481.68 280.71 471.60 C 292.24 452.63 306.31 435.37 320.02 417.96 C 294.69 409.58 271.57 393.99 255.36 372.68 C 239.88 352.51 230.17 328.09 226.81 302.93 C 223.89 275.19 230.56 246.38 246.25 223.21 C 263.35 197.71 289.29 179.17 317.29 167.23 C 345.46 155.47 376.32 149.90 406.82 151.90 C 427.56 153.57 448.36 158.05 467.07 167.39 C 479.86 148.26 497.30 131.70 518.48 122.29 M 363.64 204.91 C 347.67 206.96 331.54 212.40 319.49 223.44 C 309.18 232.74 303.59 246.40 302.32 260.05 C 299.80 284.03 308.04 307.74 319.66 328.38 C 331.48 350.36 352.81 367.07 377.12 372.86 C 388.22 375.49 400.09 375.86 411.07 372.44 C 427.00 368.08 442.76 360.33 453.11 347.08 C 465.01 332.03 467.93 311.63 465.27 293.05 C 463.23 282.11 459.33 271.57 454.70 261.47 C 445.21 241.13 430.69 222.04 410.23 211.84 C 395.94 204.52 379.40 202.87 363.64 204.91 M 482.42 529.15 C 437.82 537.97 392.46 544.77 346.87 543.38 C 348.30 545.10 350.09 546.74 350.57 549.03 C 351.44 552.30 349.62 555.41 347.85 558.01 C 341.33 567.45 335.81 577.67 332.33 588.63 C 329.64 597.43 328.30 607.28 332.18 615.95 C 335.98 624.50 344.50 629.71 352.94 632.89 C 370.54 639.24 389.54 640.18 408.08 639.64 C 434.05 639.06 459.63 633.85 484.82 627.87 C 518.55 620.13 552.42 608.58 579.82 586.77 C 586.83 580.86 593.93 574.87 599.57 567.58 C 606.12 558.16 610.25 546.42 608.44 534.86 C 606.61 524.90 597.70 517.06 587.83 515.55 C 576.95 513.62 565.86 514.67 554.95 515.65 C 530.46 518.28 506.49 524.12 482.42 529.15 Z" />
<path fill="#ffffff" opacity="1.00" d=" M 702.36 763.62 C 709.97 761.36 719.16 767.79 718.02 776.06 C 717.36 783.56 708.73 788.15 701.88 785.92 C 696.49 784.41 692.56 778.62 693.55 773.05 C 694.39 768.59 697.94 764.73 702.36 763.62 Z" />
<path fill="#ffffff" opacity="1.00" d=" M 828.91 769.18 C 835.99 767.43 842.89 765.08 849.88 763.01 C 850.89 763.88 852.88 764.33 852.69 766.04 C 852.76 779.22 852.72 792.42 852.70 805.61 C 859.81 798.37 869.75 793.66 880.04 794.26 C 888.16 794.16 896.78 797.78 900.98 805.01 C 905.07 811.56 905.68 819.52 905.58 827.05 C 905.57 839.03 905.58 851.00 905.58 862.99 C 905.61 866.11 905.65 869.33 906.72 872.33 C 907.60 874.83 910.79 874.63 912.46 876.30 C 913.27 878.06 912.68 880.15 912.80 882.06 C 912.40 882.36 911.59 882.97 911.18 883.27 C 900.07 883.23 888.95 883.41 877.85 883.19 C 874.90 882.76 875.86 879.04 875.94 876.96 C 877.44 875.22 880.02 875.31 881.85 874.04 C 884.26 871.31 884.35 867.40 884.47 863.96 C 884.48 850.97 884.48 837.99 884.47 825.00 C 884.39 820.29 883.70 815.14 880.44 811.50 C 877.47 808.58 872.95 808.07 869.01 808.72 C 862.54 810.01 857.12 814.18 852.68 818.88 C 852.78 833.90 852.68 848.93 852.73 863.95 C 852.90 867.07 852.99 870.48 854.80 873.17 C 856.11 875.13 858.84 874.99 860.55 876.46 C 860.77 878.60 861.90 882.28 859.13 883.18 C 848.04 883.43 836.93 883.21 825.83 883.28 C 825.41 882.97 824.59 882.36 824.18 882.05 C 824.24 880.16 823.83 878.18 824.46 876.38 C 826.24 874.76 829.44 874.99 830.46 872.50 C 831.66 869.48 831.56 866.17 831.65 862.99 C 831.67 836.98 831.64 810.97 831.66 784.96 C 831.57 783.38 831.69 781.70 830.97 780.26 C 829.50 777.84 825.43 779.63 824.23 776.98 C 824.03 775.10 823.99 773.19 824.33 771.33 C 825.31 769.80 827.35 769.71 828.91 769.18 Z" />
<path fill="#ffffff" opacity="1.00" d=" M 165.21 801.31 C 170.80 796.06 178.36 790.54 186.45 792.80 C 192.73 794.42 194.30 804.32 188.27 807.27 C 183.92 809.77 179.32 806.74 175.91 804.06 C 174.32 805.04 172.81 806.16 171.42 807.44 C 180.68 819.32 180.40 837.82 170.17 849.03 C 161.38 858.75 147.80 862.83 135.00 862.68 C 131.57 862.80 128.16 862.23 124.98 860.95 C 121.75 863.39 118.70 866.36 117.28 870.26 C 122.44 872.85 128.37 872.55 133.98 872.68 C 144.02 872.68 154.06 873.05 164.10 873.31 C 172.47 873.74 181.38 876.46 186.74 883.29 C 192.00 889.68 193.01 899.07 189.32 906.48 C 185.06 915.26 176.51 920.87 167.97 924.98 C 150.14 933.19 129.40 936.35 110.31 930.84 C 103.58 928.76 96.54 925.60 92.64 919.43 C 89.03 914.07 90.33 906.79 93.75 901.67 C 97.07 896.98 101.74 893.48 106.40 890.22 C 107.76 888.78 109.64 889.53 111.28 889.83 C 112.80 890.22 113.11 888.98 111.72 888.48 C 107.42 887.49 103.03 885.47 100.72 881.52 C 98.61 877.66 99.67 872.76 102.51 869.57 C 106.45 865.08 110.95 861.11 115.57 857.34 C 109.48 853.50 104.12 848.20 101.28 841.49 C 96.79 831.18 97.68 818.48 104.27 809.25 C 109.78 801.44 118.62 796.51 127.85 794.51 C 140.50 791.65 154.63 793.45 165.21 801.31 M 129.57 806.80 C 124.02 808.34 120.01 813.40 119.06 818.98 C 116.96 829.46 120.78 841.74 130.11 847.60 C 136.60 851.43 145.36 850.76 151.37 846.29 C 156.07 842.79 158.32 836.76 158.21 831.04 C 157.74 823.74 155.36 816.17 149.95 811.02 C 144.58 805.99 136.49 804.69 129.57 806.80 M 116.29 889.81 C 116.77 893.00 113.83 894.85 112.18 897.12 C 109.55 900.20 107.03 904.44 108.59 908.60 C 110.81 912.69 115.62 914.39 119.87 915.51 C 131.69 918.12 144.01 918.06 155.94 916.25 C 163.29 914.88 170.94 912.74 176.60 907.61 C 179.53 905.03 181.72 900.84 180.15 896.95 C 177.70 893.00 172.45 892.91 168.33 892.52 C 151.00 891.94 133.35 893.73 116.29 889.81 Z" />
<path fill="#ffffff" opacity="1.00" d=" M 220.18 796.07 C 223.00 795.11 226.95 792.69 229.18 795.95 C 229.47 799.49 229.20 803.06 229.35 806.62 C 233.65 801.49 238.77 796.43 245.49 794.79 C 250.22 793.80 255.83 793.81 259.65 797.21 C 265.06 801.72 264.99 811.94 258.47 815.41 C 254.06 817.90 248.57 816.25 244.96 813.09 C 243.06 811.79 241.03 809.09 238.49 810.69 C 233.70 813.80 228.78 818.85 229.28 825.01 C 229.35 838.70 229.25 852.38 229.33 866.07 C 229.29 869.07 230.19 872.39 232.77 874.18 C 235.43 875.71 238.65 875.52 241.47 876.65 C 241.22 878.81 242.65 882.10 240.03 883.17 C 227.04 883.43 214.03 883.23 201.04 883.27 C 197.41 883.46 198.05 878.70 198.69 876.43 C 201.01 874.26 205.45 875.31 207.18 872.11 C 208.06 869.83 208.07 867.34 208.16 864.95 C 208.17 850.32 208.15 835.70 208.17 821.08 C 208.11 818.05 208.12 814.91 207.01 812.06 C 204.91 809.48 201.28 811.71 198.73 810.18 C 198.06 808.13 198.14 805.85 198.65 803.79 C 205.57 800.61 213.15 799.03 220.18 796.07 Z" />
<path fill="#ffffff" opacity="1.00" d=" M 284.57 801.59 C 295.05 794.27 308.89 792.33 321.08 796.02 C 325.77 797.43 330.15 799.90 333.63 803.36 C 341.11 810.53 344.30 821.13 344.79 831.23 C 343.62 831.95 342.36 832.30 341.00 832.30 C 322.03 832.29 303.06 832.28 284.09 832.30 C 285.35 843.09 287.90 854.91 296.47 862.38 C 302.67 867.93 311.61 868.74 319.48 867.28 C 326.42 865.66 332.46 861.25 336.76 855.66 C 338.82 853.25 340.18 850.21 342.86 848.39 C 344.79 849.58 349.25 849.79 348.32 853.04 C 343.91 864.28 335.94 874.41 325.20 880.19 C 315.73 885.25 304.38 886.31 293.98 883.87 C 284.73 881.63 276.52 875.50 271.86 867.20 C 266.06 856.89 264.77 844.54 266.34 832.97 C 267.75 820.63 274.03 808.50 284.57 801.59 M 296.93 806.12 C 290.07 808.19 286.85 815.31 284.95 821.62 C 296.52 822.17 308.11 821.64 319.69 821.90 C 318.87 816.81 317.45 811.23 313.17 807.92 C 308.56 804.51 302.22 804.71 296.93 806.12 Z" />
<path fill="#ffffff" opacity="1.00" d=" M 367.21 814.27 C 373.82 803.12 385.99 795.59 398.87 794.40 C 407.52 793.71 416.69 795.02 424.02 799.94 C 434.05 806.44 438.57 818.68 439.35 830.16 C 439.43 831.81 437.40 832.44 436.05 832.29 C 416.93 832.28 397.81 832.32 378.70 832.26 C 379.94 842.99 382.45 854.72 390.92 862.20 C 397.34 868.10 406.85 868.89 415.02 867.04 C 423.40 864.88 429.84 858.48 434.47 851.45 C 435.47 850.36 436.24 848.18 438.12 848.74 C 439.78 849.49 442.86 849.75 442.96 852.06 C 442.43 855.31 440.60 858.16 439.07 861.02 C 432.89 871.82 422.77 880.75 410.52 883.77 C 398.49 886.68 384.72 885.11 374.91 877.11 C 366.38 870.31 361.87 859.58 360.76 848.94 C 359.50 837.13 361.06 824.61 367.21 814.27 M 391.90 806.00 C 384.82 807.99 381.30 815.25 379.63 821.83 C 391.21 821.88 402.80 821.82 414.39 821.86 C 413.38 817.11 412.29 811.90 408.53 808.51 C 404.02 804.55 397.39 804.69 391.90 806.00 Z" />
<path fill="#ffffff" opacity="1.00" d=" M 476.56 794.76 C 478.46 794.02 481.06 793.91 482.38 795.76 C 482.92 799.19 482.48 802.70 482.59 806.17 C 489.97 799.82 498.79 793.76 508.99 794.24 C 517.75 793.98 526.46 798.92 530.37 806.83 C 535.00 815.81 534.03 826.21 534.13 835.97 C 534.14 846.31 534.11 856.65 534.14 866.99 C 534.23 869.21 534.09 871.72 535.66 873.53 C 537.16 875.44 540.53 874.82 541.70 877.09 C 541.70 879.09 542.67 882.28 540.18 883.19 C 530.11 883.43 520.04 883.19 509.97 883.31 C 508.40 883.44 506.90 883.05 505.62 882.16 C 505.61 880.33 505.59 878.51 505.57 876.70 C 509.16 875.05 512.75 872.46 512.59 868.01 C 513.20 854.02 512.68 839.99 512.87 825.98 C 512.80 820.88 513.05 814.75 508.78 811.13 C 504.22 807.71 497.65 808.01 492.85 810.81 C 489.42 812.82 485.94 815.06 483.32 818.07 C 483.27 835.68 483.13 853.32 483.39 870.92 C 483.96 875.80 490.00 874.89 493.09 876.94 C 493.47 878.57 493.44 880.29 493.16 881.95 C 492.28 883.49 490.47 883.26 488.97 883.30 C 477.59 883.26 466.20 883.29 454.81 883.29 C 454.40 882.99 453.59 882.38 453.18 882.08 C 453.17 880.37 453.12 878.67 453.30 876.99 C 455.11 875.30 458.12 875.69 459.93 873.93 C 461.62 872.06 461.72 869.41 461.85 867.03 C 462.21 852.36 462.08 837.68 462.07 823.00 C 461.82 819.03 462.19 814.95 461.09 811.09 C 459.91 808.67 457.06 809.43 454.93 809.23 C 452.43 808.64 453.22 805.77 453.17 803.92 C 452.87 801.74 455.25 801.35 456.78 800.88 C 463.42 799.01 470.03 797.01 476.56 794.76 Z" />
<path fill="#ffffff" opacity="1.00" d=" M 686.39 803.81 C 695.12 800.30 704.23 797.81 713.08 794.59 C 714.90 793.55 717.88 794.71 717.76 797.04 C 717.85 819.37 717.76 841.71 717.81 864.04 C 717.95 866.95 717.92 870.04 719.18 872.74 C 720.92 875.99 725.54 874.62 727.78 876.99 C 727.77 878.98 728.87 882.54 726.18 883.20 C 714.44 883.41 702.69 883.20 690.95 883.31 C 689.38 883.40 687.85 883.08 686.52 882.28 C 686.53 880.42 686.53 878.57 686.52 876.72 C 689.47 875.18 694.02 875.83 695.47 872.16 C 697.42 867.38 696.46 862.05 696.72 857.03 C 696.46 842.67 697.22 828.26 696.33 813.94 C 695.68 809.76 691.05 810.88 688.06 810.68 C 685.37 809.75 686.91 805.97 686.39 803.81 Z" />
<path fill="#ffffff" opacity="1.00" d=" M 774.72 794.96 C 785.42 793.00 796.86 795.07 806.10 800.85 C 810.94 804.28 814.98 809.92 814.69 816.08 C 814.13 822.52 806.82 826.22 800.94 825.12 C 795.75 823.89 792.39 818.95 791.22 814.01 C 790.11 810.94 789.96 807.02 786.99 805.08 C 781.44 802.74 775.03 804.05 769.91 806.85 C 763.87 810.15 759.85 816.33 758.20 822.90 C 756.17 831.68 756.29 841.13 759.64 849.58 C 762.41 856.72 767.98 862.93 775.21 865.72 C 782.71 868.73 791.61 867.91 798.48 863.66 C 803.14 860.69 806.63 856.30 809.88 851.91 C 811.70 848.40 816.60 851.33 817.50 853.96 C 814.02 862.01 808.87 869.50 802.34 875.41 C 794.31 882.66 783.16 886.07 772.44 884.91 C 761.10 883.85 750.45 877.33 744.24 867.81 C 739.05 859.94 736.88 850.34 737.21 840.99 C 737.06 828.92 741.43 816.64 749.97 807.99 C 756.55 801.15 765.45 796.76 774.72 794.96 Z" />
<path fill="#ffffff" opacity="1.00" d=" M 542.71 796.85 C 544.07 796.37 545.47 796.00 546.93 796.11 C 557.98 796.18 569.03 796.10 580.09 796.15 C 583.29 795.90 583.03 800.15 582.23 802.15 C 579.82 804.45 573.82 802.30 573.57 806.97 C 574.88 815.08 578.84 822.48 581.78 830.10 C 585.26 838.31 588.74 846.52 592.00 854.82 C 597.10 844.61 602.10 834.32 606.92 823.98 C 605.94 819.87 604.15 816.01 602.57 812.11 C 601.01 808.81 599.31 804.79 595.44 803.77 C 593.61 803.11 591.12 803.67 589.95 801.83 C 589.65 799.91 589.12 796.18 591.99 796.18 C 604.68 796.06 617.38 796.20 630.08 796.11 C 631.51 796.00 632.91 796.37 634.27 796.86 C 634.02 798.89 635.17 801.83 632.86 803.02 C 630.16 803.60 627.31 803.60 624.76 804.76 C 623.11 805.35 622.46 807.40 622.96 808.99 C 623.73 812.89 625.68 816.39 627.09 820.08 C 631.47 831.16 635.95 842.21 640.22 853.34 C 645.16 843.62 648.96 833.35 653.43 823.41 C 655.72 817.79 658.93 812.19 658.82 805.95 C 657.09 803.13 653.06 804.19 650.71 802.26 C 649.95 800.14 649.56 795.75 652.96 796.15 C 660.96 796.15 668.97 796.07 676.97 796.18 C 679.42 796.13 679.31 799.35 679.11 801.07 C 678.54 803.46 675.35 803.26 674.17 805.21 C 672.11 808.28 670.88 811.80 669.40 815.17 C 660.21 836.75 651.18 858.40 641.89 879.94 C 640.66 882.40 639.39 886.12 636.01 885.90 C 633.27 885.88 632.08 882.97 631.13 880.87 C 625.22 866.64 619.46 852.36 613.56 838.13 C 606.46 851.62 600.01 865.44 593.08 879.02 C 591.90 881.14 590.85 883.45 589.03 885.12 C 587.22 886.80 584.35 885.57 583.30 883.65 C 581.15 880.29 579.77 876.53 578.20 872.90 C 569.98 853.31 561.79 833.71 553.56 814.12 C 552.00 810.87 550.80 807.33 548.42 804.58 C 546.96 802.91 544.20 803.72 542.86 801.91 C 542.57 800.23 542.72 798.52 542.71 796.85 Z" />
</g>
<g id="#448e41ff">
<path fill="#448e41" opacity="1.00" d=" M 4.42 251.17 C 211.90 168.75 419.28 86.09 626.74 3.62 C 714.39 196.78 802.12 389.91 889.87 583.03 C 736.45 641.37 582.98 699.60 429.60 758.07 C 365.59 757.98 301.59 757.91 237.58 758.08 C 159.91 589.09 82.01 420.20 4.42 251.17 M 518.48 122.29 C 497.30 131.70 479.86 148.26 467.07 167.39 C 448.36 158.05 427.56 153.57 406.82 151.90 C 376.32 149.90 345.46 155.47 317.29 167.23 C 289.29 179.17 263.35 197.71 246.25 223.21 C 230.56 246.38 223.89 275.19 226.81 302.93 C 230.17 328.09 239.88 352.51 255.36 372.68 C 271.57 393.99 294.69 409.58 320.02 417.96 C 306.31 435.37 292.24 452.63 280.71 471.60 C 274.34 481.68 271.96 494.30 274.77 505.95 C 276.98 516.38 283.76 525.60 292.77 531.22 C 304.94 539.36 319.81 541.30 334.02 542.97 C 328.06 543.77 320.69 542.19 316.29 547.26 C 305.71 557.06 295.92 567.72 286.89 578.95 C 280.46 587.16 274.14 595.79 271.08 605.89 C 265.57 622.32 263.84 640.95 270.77 657.24 C 277.28 672.75 290.91 684.09 305.73 691.34 C 321.80 699.01 339.45 702.69 357.04 704.72 C 381.13 707.33 405.51 706.31 429.45 702.80 C 471.13 696.56 511.62 682.31 547.94 660.90 C 565.50 650.98 582.30 639.64 597.54 626.42 C 611.20 614.80 623.58 601.52 633.31 586.40 C 643.09 571.10 649.97 553.36 649.88 534.99 C 650.25 521.82 646.86 508.79 641.42 496.87 C 632.65 478.57 617.29 463.68 599.04 454.93 C 581.70 446.48 562.19 443.43 543.04 443.54 C 521.73 443.62 500.85 448.33 479.88 451.55 C 454.94 455.75 430.05 460.19 405.12 464.45 C 387.26 467.52 369.18 469.90 351.03 469.70 C 346.42 469.48 340.52 469.28 337.83 464.88 C 336.64 460.96 339.00 457.12 340.51 453.63 C 345.77 443.60 352.40 434.30 359.69 425.65 C 368.26 427.95 377.23 427.72 386.02 427.42 C 408.07 426.00 429.57 419.65 449.60 410.48 C 477.55 397.61 504.43 379.80 521.90 353.93 C 535.97 333.64 542.61 308.63 541.57 284.04 C 540.76 265.18 537.09 246.19 528.88 229.09 C 521.14 212.82 509.87 198.36 496.59 186.25 C 500.41 181.23 504.01 175.96 508.66 171.65 C 510.76 169.60 514.11 170.17 516.40 171.61 C 525.34 176.77 535.54 181.31 546.10 180.12 C 554.41 178.22 563.34 174.67 567.87 166.97 C 572.71 158.50 572.19 147.90 569.06 138.94 C 565.47 128.98 555.83 122.44 545.78 120.24 C 536.77 118.41 526.96 118.30 518.48 122.29 Z" />
<path fill="#448e41" opacity="1.00" d=" M 363.64 204.91 C 379.40 202.87 395.94 204.52 410.23 211.84 C 430.69 222.04 445.21 241.13 454.70 261.47 C 459.33 271.57 463.23 282.11 465.27 293.05 C 467.93 311.63 465.01 332.03 453.11 347.08 C 442.76 360.33 427.00 368.08 411.07 372.44 C 400.09 375.86 388.22 375.49 377.12 372.86 C 352.81 367.07 331.48 350.36 319.66 328.38 C 308.04 307.74 299.80 284.03 302.32 260.05 C 303.59 246.40 309.18 232.74 319.49 223.44 C 331.54 212.40 347.67 206.96 363.64 204.91 Z" />
<path fill="#448e41" opacity="1.00" d=" M 482.42 529.15 C 506.49 524.12 530.46 518.28 554.95 515.65 C 565.86 514.67 576.95 513.62 587.83 515.55 C 597.70 517.06 606.61 524.90 608.44 534.86 C 610.25 546.42 606.12 558.16 599.57 567.58 C 593.93 574.87 586.83 580.86 579.82 586.77 C 552.42 608.58 518.55 620.13 484.82 627.87 C 459.63 633.85 434.05 639.06 408.08 639.64 C 389.54 640.18 370.54 639.24 352.94 632.89 C 344.50 629.71 335.98 624.50 332.18 615.95 C 328.30 607.28 329.64 597.43 332.33 588.63 C 335.81 577.67 341.33 567.45 347.85 558.01 C 349.62 555.41 351.44 552.30 350.57 549.03 C 350.09 546.74 348.30 545.10 346.87 543.38 C 392.46 544.77 437.82 537.97 482.42 529.15 Z" />
</g>
<g id="#3a3a3aff">
<path fill="#3a3a3a" opacity="1.00" d=" M 66.65 758.08 C 123.63 758.07 180.61 757.98 237.58 758.08 C 301.59 757.91 365.59 757.98 429.60 758.07 C 494.04 758.04 558.52 758.07 622.96 758.05 C 681.61 757.90 740.28 758.26 798.94 757.98 C 814.64 758.46 830.33 757.64 846.03 758.03 C 877.83 758.08 909.62 757.88 941.42 758.18 C 941.41 820.69 941.40 883.19 941.43 945.69 C 679.29 945.79 417.14 945.71 155.00 945.73 C 125.73 945.55 96.42 946.16 67.17 945.32 L 66.93 945.06 C 66.36 939.71 66.76 934.33 66.66 928.98 C 66.65 872.01 66.66 815.05 66.65 758.08 M 702.36 763.62 C 697.94 764.73 694.39 768.59 693.55 773.05 C 692.56 778.62 696.49 784.41 701.88 785.92 C 708.73 788.15 717.36 783.56 718.02 776.06 C 719.16 767.79 709.97 761.36 702.36 763.62 M 828.91 769.18 C 827.35 769.71 825.31 769.80 824.33 771.33 C 823.99 773.19 824.03 775.10 824.23 776.98 C 825.43 779.63 829.50 777.84 830.97 780.26 C 831.69 781.70 831.57 783.38 831.66 784.96 C 831.64 810.97 831.67 836.98 831.65 862.99 C 831.56 866.17 831.66 869.48 830.46 872.50 C 829.44 874.99 826.24 874.76 824.46 876.38 C 823.83 878.18 824.24 880.16 824.18 882.05 C 824.59 882.36 825.41 882.97 825.83 883.28 C 836.93 883.21 848.04 883.43 859.13 883.18 C 861.90 882.28 860.77 878.60 860.55 876.46 C 858.84 874.99 856.11 875.13 854.80 873.17 C 852.99 870.48 852.90 867.07 852.73 863.95 C 852.68 848.93 852.78 833.90 852.68 818.88 C 857.12 814.18 862.54 810.01 869.01 808.72 C 872.95 808.07 877.47 808.58 880.44 811.50 C 883.70 815.14 884.39 820.29 884.47 825.00 C 884.48 837.99 884.48 850.97 884.47 863.96 C 884.35 867.40 884.26 871.31 881.85 874.04 C 880.02 875.31 877.44 875.22 875.94 876.96 C 875.86 879.04 874.90 882.76 877.85 883.19 C 888.95 883.41 900.07 883.23 911.18 883.27 C 911.59 882.97 912.40 882.36 912.80 882.06 C 912.68 880.15 913.27 878.06 912.46 876.30 C 910.79 874.63 907.60 874.83 906.72 872.33 C 905.65 869.33 905.61 866.11 905.58 862.99 C 905.58 851.00 905.57 839.03 905.58 827.05 C 905.68 819.52 905.07 811.56 900.98 805.01 C 896.78 797.78 888.16 794.16 880.04 794.26 C 869.75 793.66 859.81 798.37 852.70 805.61 C 852.72 792.42 852.76 779.22 852.69 766.04 C 852.88 764.33 850.89 763.88 849.88 763.01 C 842.89 765.08 835.99 767.43 828.91 769.18 M 165.21 801.31 C 154.63 793.45 140.50 791.65 127.85 794.51 C 118.62 796.51 109.78 801.44 104.27 809.25 C 97.68 818.48 96.79 831.18 101.28 841.49 C 104.12 848.20 109.48 853.50 115.57 857.34 C 110.95 861.11 106.45 865.08 102.51 869.57 C 99.67 872.76 98.61 877.66 100.72 881.52 C 103.03 885.47 107.42 887.49 111.72 888.48 C 113.11 888.98 112.80 890.22 111.28 889.83 C 109.64 889.53 107.76 888.78 106.40 890.22 C 101.74 893.48 97.07 896.98 93.75 901.67 C 90.33 906.79 89.03 914.07 92.64 919.43 C 96.54 925.60 103.58 928.76 110.31 930.84 C 129.40 936.35 150.14 933.19 167.97 924.98 C 176.51 920.87 185.06 915.26 189.32 906.48 C 193.01 899.07 192.00 889.68 186.74 883.29 C 181.38 876.46 172.47 873.74 164.10 873.31 C 154.06 873.05 144.02 872.68 133.98 872.68 C 128.37 872.55 122.44 872.85 117.28 870.26 C 118.70 866.36 121.75 863.39 124.98 860.95 C 128.16 862.23 131.57 862.80 135.00 862.68 C 147.80 862.83 161.38 858.75 170.17 849.03 C 180.40 837.82 180.68 819.32 171.42 807.44 C 172.81 806.16 174.32 805.04 175.91 804.06 C 179.32 806.74 183.92 809.77 188.27 807.27 C 194.30 804.32 192.73 794.42 186.45 792.80 C 178.36 790.54 170.80 796.06 165.21 801.31 M 220.18 796.07 C 213.15 799.03 205.57 800.61 198.65 803.79 C 198.14 805.85 198.06 808.13 198.73 810.18 C 201.28 811.71 204.91 809.48 207.01 812.06 C 208.12 814.91 208.11 818.05 208.17 821.08 C 208.15 835.70 208.17 850.32 208.16 864.95 C 208.07 867.34 208.06 869.83 207.18 872.11 C 205.45 875.31 201.01 874.26 198.69 876.43 C 198.05 878.70 197.41 883.46 201.04 883.27 C 214.03 883.23 227.04 883.43 240.03 883.17 C 242.65 882.10 241.22 878.81 241.47 876.65 C 238.65 875.52 235.43 875.71 232.77 874.18 C 230.19 872.39 229.29 869.07 229.33 866.07 C 229.25 852.38 229.35 838.70 229.28 825.01 C 228.78 818.85 233.70 813.80 238.49 810.69 C 241.03 809.09 243.06 811.79 244.96 813.09 C 248.57 816.25 254.06 817.90 258.47 815.41 C 264.99 811.94 265.06 801.72 259.65 797.21 C 255.83 793.81 250.22 793.80 245.49 794.79 C 238.77 796.43 233.65 801.49 229.35 806.62 C 229.20 803.06 229.47 799.49 229.18 795.95 C 226.95 792.69 223.00 795.11 220.18 796.07 M 284.57 801.59 C 274.03 808.50 267.75 820.63 266.34 832.97 C 264.77 844.54 266.06 856.89 271.86 867.20 C 276.52 875.50 284.73 881.63 293.98 883.87 C 304.38 886.31 315.73 885.25 325.20 880.19 C 335.94 874.41 343.91 864.28 348.32 853.04 C 349.25 849.79 344.79 849.58 342.86 848.39 C 340.18 850.21 338.82 853.25 336.76 855.66 C 332.46 861.25 326.42 865.66 319.48 867.28 C 311.61 868.74 302.67 867.93 296.47 862.38 C 287.90 854.91 285.35 843.09 284.09 832.30 C 303.06 832.28 322.03 832.29 341.00 832.30 C 342.36 832.30 343.62 831.95 344.79 831.23 C 344.30 821.13 341.11 810.53 333.63 803.36 C 330.15 799.90 325.77 797.43 321.08 796.02 C 308.89 792.33 295.05 794.27 284.57 801.59 M 367.21 814.27 C 361.06 824.61 359.50 837.13 360.76 848.94 C 361.87 859.58 366.38 870.31 374.91 877.11 C 384.72 885.11 398.49 886.68 410.52 883.77 C 422.77 880.75 432.89 871.82 439.07 861.02 C 440.60 858.16 442.43 855.31 442.96 852.06 C 442.86 849.75 439.78 849.49 438.12 848.74 C 436.24 848.18 435.47 850.36 434.47 851.45 C 429.84 858.48 423.40 864.88 415.02 867.04 C 406.85 868.89 397.34 868.10 390.92 862.20 C 382.45 854.72 379.94 842.99 378.70 832.26 C 397.81 832.32 416.93 832.28 436.05 832.29 C 437.40 832.44 439.43 831.81 439.35 830.16 C 438.57 818.68 434.05 806.44 424.02 799.94 C 416.69 795.02 407.52 793.71 398.87 794.40 C 385.99 795.59 373.82 803.12 367.21 814.27 M 476.56 794.76 C 470.03 797.01 463.42 799.01 456.78 800.88 C 455.25 801.35 452.87 801.74 453.17 803.92 C 453.22 805.77 452.43 808.64 454.93 809.23 C 457.06 809.43 459.91 808.67 461.09 811.09 C 462.19 814.95 461.82 819.03 462.07 823.00 C 462.08 837.68 462.21 852.36 461.85 867.03 C 461.72 869.41 461.62 872.06 459.93 873.93 C 458.12 875.69 455.11 875.30 453.30 876.99 C 453.12 878.67 453.17 880.37 453.18 882.08 C 453.59 882.38 454.40 882.99 454.81 883.29 C 466.20 883.29 477.59 883.26 488.97 883.30 C 490.47 883.26 492.28 883.49 493.16 881.95 C 493.44 880.29 493.47 878.57 493.09 876.94 C 490.00 874.89 483.96 875.80 483.39 870.92 C 483.13 853.32 483.27 835.68 483.32 818.07 C 485.94 815.06 489.42 812.82 492.85 810.81 C 497.65 808.01 504.22 807.71 508.78 811.13 C 513.05 814.75 512.80 820.88 512.87 825.98 C 512.68 839.99 513.20 854.02 512.59 868.01 C 512.75 872.46 509.16 875.05 505.57 876.70 C 505.59 878.51 505.61 880.33 505.62 882.16 C 506.90 883.05 508.40 883.44 509.97 883.31 C 520.04 883.19 530.11 883.43 540.18 883.19 C 542.67 882.28 541.70 879.09 541.70 877.09 C 540.53 874.82 537.16 875.44 535.66 873.53 C 534.09 871.72 534.23 869.21 534.14 866.99 C 534.11 856.65 534.14 846.31 534.13 835.97 C 534.03 826.21 535.00 815.81 530.37 806.83 C 526.46 798.92 517.75 793.98 508.99 794.24 C 498.79 793.76 489.97 799.82 482.59 806.17 C 482.48 802.70 482.92 799.19 482.38 795.76 C 481.06 793.91 478.46 794.02 476.56 794.76 M 686.39 803.81 C 686.91 805.97 685.37 809.75 688.06 810.68 C 691.05 810.88 695.68 809.76 696.33 813.94 C 697.22 828.26 696.46 842.67 696.72 857.03 C 696.46 862.05 697.42 867.38 695.47 872.16 C 694.02 875.83 689.47 875.18 686.52 876.72 C 686.53 878.57 686.53 880.42 686.52 882.28 C 687.85 883.08 689.38 883.40 690.95 883.31 C 702.69 883.20 714.44 883.41 726.18 883.20 C 728.87 882.54 727.77 878.98 727.78 876.99 C 725.54 874.62 720.92 875.99 719.18 872.74 C 717.92 870.04 717.95 866.95 717.81 864.04 C 717.76 841.71 717.85 819.37 717.76 797.04 C 717.88 794.71 714.90 793.55 713.08 794.59 C 704.23 797.81 695.12 800.30 686.39 803.81 M 774.72 794.96 C 765.45 796.76 756.55 801.15 749.97 807.99 C 741.43 816.64 737.06 828.92 737.21 840.99 C 736.88 850.34 739.05 859.94 744.24 867.81 C 750.45 877.33 761.10 883.85 772.44 884.91 C 783.16 886.07 794.31 882.66 802.34 875.41 C 808.87 869.50 814.02 862.01 817.50 853.96 C 816.60 851.33 811.70 848.40 809.88 851.91 C 806.63 856.30 803.14 860.69 798.48 863.66 C 791.61 867.91 782.71 868.73 775.21 865.72 C 767.98 862.93 762.41 856.72 759.64 849.58 C 756.29 841.13 756.17 831.68 758.20 822.90 C 759.85 816.33 763.87 810.15 769.91 806.85 C 775.03 804.05 781.44 802.74 786.99 805.08 C 789.96 807.02 790.11 810.94 791.22 814.01 C 792.39 818.95 795.75 823.89 800.94 825.12 C 806.82 826.22 814.13 822.52 814.69 816.08 C 814.98 809.92 810.94 804.28 806.10 800.85 C 796.86 795.07 785.42 793.00 774.72 794.96 M 542.71 796.85 C 542.72 798.52 542.57 800.23 542.86 801.91 C 544.20 803.72 546.96 802.91 548.42 804.58 C 550.80 807.33 552.00 810.87 553.56 814.12 C 561.79 833.71 569.98 853.31 578.20 872.90 C 579.77 876.53 581.15 880.29 583.30 883.65 C 584.35 885.57 587.22 886.80 589.03 885.12 C 590.85 883.45 591.90 881.14 593.08 879.02 C 600.01 865.44 606.46 851.62 613.56 838.13 C 619.46 852.36 625.22 866.64 631.13 880.87 C 632.08 882.97 633.27 885.88 636.01 885.90 C 639.39 886.12 640.66 882.40 641.89 879.94 C 651.18 858.40 660.21 836.75 669.40 815.17 C 670.88 811.80 672.11 808.28 674.17 805.21 C 675.35 803.26 678.54 803.46 679.11 801.07 C 679.31 799.35 679.42 796.13 676.97 796.18 C 668.97 796.07 660.96 796.15 652.96 796.15 C 649.56 795.75 649.95 800.14 650.71 802.26 C 653.06 804.19 657.09 803.13 658.82 805.95 C 658.93 812.19 655.72 817.79 653.43 823.41 C 648.96 833.35 645.16 843.62 640.22 853.34 C 635.95 842.21 631.47 831.16 627.09 820.08 C 625.68 816.39 623.73 812.89 622.96 808.99 C 622.46 807.40 623.11 805.35 624.76 804.76 C 627.31 803.60 630.16 803.60 632.86 803.02 C 635.17 801.83 634.02 798.89 634.27 796.86 C 632.91 796.37 631.51 796.00 630.08 796.11 C 617.38 796.20 604.68 796.06 591.99 796.18 C 589.12 796.18 589.65 799.91 589.95 801.83 C 591.12 803.67 593.61 803.11 595.44 803.77 C 599.31 804.79 601.01 808.81 602.57 812.11 C 604.15 816.01 605.94 819.87 606.92 823.98 C 602.10 834.32 597.10 844.61 592.00 854.82 C 588.74 846.52 585.26 838.31 581.78 830.10 C 578.84 822.48 574.88 815.08 573.57 806.97 C 573.82 802.30 579.82 804.45 582.23 802.15 C 583.03 800.15 583.29 795.90 580.09 796.15 C 569.03 796.10 557.98 796.18 546.93 796.11 C 545.47 796.00 544.07 796.37 542.71 796.85 Z" />
<path fill="#3a3a3a" opacity="1.00" d=" M 296.93 806.12 C 302.22 804.71 308.56 804.51 313.17 807.92 C 317.45 811.23 318.87 816.81 319.69 821.90 C 308.11 821.64 296.52 822.17 284.95 821.62 C 286.85 815.31 290.07 808.19 296.93 806.12 Z" />
<path fill="#3a3a3a" opacity="1.00" d=" M 391.90 806.00 C 397.39 804.69 404.02 804.55 408.53 808.51 C 412.29 811.90 413.38 817.11 414.39 821.86 C 402.80 821.82 391.21 821.88 379.63 821.83 C 381.30 815.25 384.82 807.99 391.90 806.00 Z" />
<path fill="#3a3a3a" opacity="1.00" d=" M 129.57 806.80 C 136.49 804.69 144.58 805.99 149.95 811.02 C 155.36 816.17 157.74 823.74 158.21 831.04 C 158.32 836.76 156.07 842.79 151.37 846.29 C 145.36 850.76 136.60 851.43 130.11 847.60 C 120.78 841.74 116.96 829.46 119.06 818.98 C 120.01 813.40 124.02 808.34 129.57 806.80 Z" />
<path fill="#3a3a3a" opacity="1.00" d=" M 116.29 889.81 C 133.35 893.73 151.00 891.94 168.33 892.52 C 172.45 892.91 177.70 893.00 180.15 896.95 C 181.72 900.84 179.53 905.03 176.60 907.61 C 170.94 912.74 163.29 914.88 155.94 916.25 C 144.01 918.06 131.69 918.12 119.87 915.51 C 115.62 914.39 110.81 912.69 108.59 908.60 C 107.03 904.44 109.55 900.20 112.18 897.12 C 113.83 894.85 116.77 893.00 116.29 889.81 Z" />
</g>
</svg>
