<svg xmlns="http://www.w3.org/2000/svg" width="465" height="320" viewBox="0 0 465 320" version="1.1"><path d="M 190 168.418 C 190 175.798, 189.700 182.619, 189.332 183.576 C 188.751 185.092, 189.136 185.240, 192.314 184.724 C 194.321 184.398, 196.223 184.552, 196.541 185.066 C 197.805 187.111, 203.160 185.994, 206.077 183.077 C 208.592 180.562, 209 179.393, 209 174.712 C 209 170.649, 208.452 168.574, 206.839 166.523 C 204.894 164.050, 204.198 163.823, 199.839 164.241 L 195 164.706 195 159.853 C 195 155.343, 194.823 155, 192.500 155 L 190 155 190 168.418 M 320 170 L 320 185 322.500 185 C 324.557 185, 325.003 184.513, 325.015 182.250 C 325.045 176.970, 326.568 176.458, 329.060 180.892 C 331.038 184.413, 331.843 185, 334.684 185 C 336.508 185, 338 184.768, 338 184.485 C 338 184.201, 336.366 181.508, 334.368 178.499 L 330.736 173.028 334.435 168.514 L 338.134 164 334.817 164 C 332.222 164, 330.801 164.816, 328.288 167.750 L 325.075 171.500 325.038 163.250 C 325.001 155.127, 324.962 155, 322.500 155 L 320 155 320 170 M 131.873 157.684 C 127.665 160.295, 125.667 164.656, 125.667 171.225 C 125.667 178.114, 127.667 181.525, 133.369 184.358 C 136.315 185.822, 138.265 186.072, 142.555 185.536 L 148 184.856 148 176.928 L 148 169 143 169 C 138.333 169, 138 169.167, 138 171.500 C 138 173.500, 138.500 174, 140.500 174 C 142.617 174, 143 174.465, 143 177.031 C 143 182.993, 135.759 182.063, 132.647 175.701 C 130.348 171.003, 131.046 166.245, 134.511 162.989 C 136.462 161.157, 138.040 160.683, 141.895 160.770 C 145.910 160.862, 146.887 160.541, 147.290 158.999 C 147.561 157.963, 147.531 156.865, 147.225 156.558 C 145.938 155.271, 134.396 156.118, 131.873 157.684 M 232 170.481 L 232 184.962 234.571 185.607 C 238.068 186.485, 245.867 185.317, 248.638 183.501 C 252.114 181.224, 252.795 175.566, 250.041 171.841 C 248.009 169.093, 247.958 168.704, 249.414 167.095 C 251.699 164.570, 251.368 161.277, 248.545 158.455 C 246.404 156.313, 245.192 156, 239.045 156 L 232 156 232 170.481 M 238 164 C 238 168.271, 239.254 169.005, 243.066 166.965 C 246.771 164.982, 244.792 160, 240.300 160 C 238.283 160, 238 160.493, 238 164 M 153 174.582 L 153 185 155.500 185 C 157.878 185, 158 184.718, 158 179.223 C 158 173.206, 159.875 169, 162.557 169 C 163.408 169, 164 168.029, 164 166.632 C 164 164.433, 163.605 164.260, 158.500 164.214 L 153 164.164 153 174.582 M 167 173 C 167 180.807, 167.278 182.278, 169.098 184.098 C 170.762 185.762, 171.952 186.070, 174.848 185.589 C 176.857 185.255, 179.963 185, 181.750 185.023 L 185 185.063 185 174.531 L 185 164 182.042 164 L 179.084 164 178.792 171.645 C 178.565 177.578, 178.114 179.532, 176.778 180.372 C 173.907 182.176, 172.569 179.596, 172.159 171.468 C 171.800 164.365, 171.665 164, 169.391 164 C 167.047 164, 167 164.176, 167 173 M 210 164.301 C 210 164.536, 211.573 168.952, 213.495 174.114 C 215.417 179.276, 216.992 184.030, 216.995 184.678 C 216.998 185.325, 215.697 186.900, 214.104 188.178 C 211.740 190.074, 211.367 190.913, 212.072 192.750 C 212.547 193.988, 213.339 195, 213.833 195 C 215.448 195, 220.010 190.882, 221.423 188.149 C 222.650 185.776, 230 165.427, 230 164.403 C 230 164.181, 228.667 164, 227.039 164 C 224.393 164, 223.961 164.453, 222.985 168.250 C 220.454 178.094, 220.453 178.095, 218.339 171 C 216.521 164.897, 216.207 164.481, 213.201 164.187 C 211.441 164.014, 210 164.066, 210 164.301 M 257.455 166.455 C 255.398 168.511, 255 169.875, 255 174.866 C 255 180.341, 255.259 181.040, 258.205 183.519 C 260.964 185.840, 262.079 186.151, 266.227 185.752 C 271.837 185.213, 272.088 185.053, 271.408 182.453 C 270.979 180.812, 270.188 180.550, 266.533 180.841 C 263.007 181.121, 261.970 180.812, 261.121 179.225 C 259.641 176.461, 260.524 176, 267.298 176 L 273.263 176 272.716 171.922 C 271.942 166.151, 269.657 164, 264.300 164 C 260.971 164, 259.315 164.594, 257.455 166.455 M 276 174.626 L 276 185 279 185 L 282 185 282 177.535 C 282 171.183, 282.288 169.916, 283.931 169.037 C 287.341 167.212, 289 170.168, 289 178.071 C 289 184.795, 289.074 185, 291.500 185 C 293.980 185, 294 184.929, 294 176.071 C 294 164.628, 293.487 164.048, 283.468 164.165 L 276 164.252 276 174.626 M 300.482 167.204 C 298.122 170.008, 297.841 171.066, 298.224 175.688 C 298.487 178.861, 299.383 181.766, 300.468 182.965 C 304.166 187.051, 315 186.812, 315 182.644 C 315 180.682, 314.570 180.488, 310.981 180.830 C 306.834 181.226, 304 179.824, 304 177.378 C 304 176.361, 305.570 176, 310 176 L 316 176 316 172.189 C 316 166.760, 313.152 164, 307.550 164 C 303.858 164, 302.758 164.498, 300.482 167.204 M 196.655 169.829 C 193.627 173.175, 195.154 181, 198.835 181 C 201.657 181, 203 178.903, 203 174.500 C 203 168.389, 199.974 166.161, 196.655 169.829 M 261.032 169.939 C 260.014 171.843, 260.204 172, 263.538 172 C 266.435 172, 267.081 171.655, 266.813 170.250 C 266.321 167.666, 262.363 167.454, 261.032 169.939 M 304.667 168.667 C 302.886 170.447, 304.206 172, 307.500 172 C 311.164 172, 311.812 171.212, 309.800 169.200 C 308.493 167.893, 305.728 167.605, 304.667 168.667 M 238 176.500 C 238 180.840, 238.107 181, 241.021 181 C 245.185 181, 247.190 176.972, 244.504 174.004 C 243.506 172.902, 241.635 172, 240.345 172 C 238.232 172, 238 172.446, 238 176.500" stroke="none" fill="#ffffff" fill-rule="evenodd"/><path d="M 215 4.107 C 169.382 9.259, 127.187 35.125, 101.876 73.453 C 84.471 99.810, 76 128.142, 76 160 C 76 212.845, 101.587 260.874, 145.500 290.456 C 155.433 297.147, 174.778 306.320, 186.500 309.898 C 230.958 323.466, 278.819 316.742, 317.714 291.463 C 376.527 253.237, 402.698 181.383, 382.333 114.045 C 374 86.491, 356.373 59.489, 334.905 41.396 C 300.553 12.442, 258.098 -0.761, 215 4.107 M 209.500 17.496 C 178.173 23.020, 151.411 37.063, 129.444 59.501 C 109.530 79.843, 95.486 106.962, 90.343 135 C 87.982 147.871, 87.982 172.129, 90.343 185 C 95.601 213.667, 109.837 240.781, 130.500 261.482 C 151.293 282.313, 175.344 295.273, 205.125 301.694 C 216.991 304.253, 248.009 304.253, 259.875 301.694 C 305.013 291.962, 341.391 264.213, 361.444 224.219 C 367.207 212.725, 372.398 197.316, 374.657 185 C 377.018 172.129, 377.018 147.871, 374.657 135 C 369.399 106.333, 355.163 79.219, 334.500 58.518 C 314.014 37.994, 290.260 25.065, 260.981 18.501 C 250.616 16.178, 220.330 15.587, 209.500 17.496 M 227.935 118.575 C 225.496 121.064, 221.439 124.426, 218.919 126.046 C 213.891 129.279, 203.988 133, 200.413 133 C 198.407 133, 198.233 133.324, 198.931 135.759 C 200.748 142.096, 195.868 146.487, 187.069 146.432 C 177.507 146.373, 171.213 141.218, 173.792 135.557 C 174.868 133.197, 174.713 133.059, 169.203 131.471 C 161.432 129.233, 147.814 122.772, 141.882 118.511 C 139.194 116.580, 136.807 115, 136.576 115 C 136.345 115, 137.632 118.712, 139.435 123.250 C 141.238 127.787, 145.287 138.137, 148.433 146.250 L 154.153 161 170.519 161 L 186.885 161 187.193 156.750 L 187.500 152.500 192.250 152.195 L 197 151.890 197 156.445 L 197 161 213.437 161 L 229.873 161 230.187 157.750 C 230.478 154.726, 230.812 154.455, 235 153.851 C 242.930 152.708, 252 155.805, 252 159.655 C 252 160.751, 257.443 161, 281.423 161 L 310.847 161 316.567 146.250 C 319.713 138.137, 323.762 127.787, 325.565 123.250 C 327.368 118.713, 328.655 115, 328.424 115 C 328.193 115, 325.806 116.580, 323.118 118.511 C 317.186 122.772, 303.568 129.233, 295.797 131.471 C 290.287 133.059, 290.132 133.197, 291.208 135.557 C 293.787 141.218, 287.493 146.373, 277.931 146.432 C 269.132 146.487, 264.252 142.096, 266.069 135.759 C 266.767 133.324, 266.593 133, 264.587 133 C 261.430 133, 251.536 129.489, 247.149 126.812 C 245.142 125.587, 240.996 122.214, 237.935 119.317 L 232.369 114.048 227.935 118.575 M 189.220 168.687 L 189.441 183.500 189.748 169.250 L 190.055 155 192.527 155 C 194.828 155, 195 155.348, 195 160 C 195 162.750, 195.350 165, 195.778 165 C 196.206 165, 196.318 162.637, 196.028 159.750 C 195.519 154.685, 195.386 154.489, 192.250 154.187 L 189 153.873 189.220 168.687 M 319.440 155.296 C 319.166 156.009, 319.068 163.096, 319.221 171.046 L 319.500 185.500 322.750 185.813 C 325.927 186.120, 325.996 186.041, 325.840 182.313 C 325.685 178.621, 325.667 178.603, 325.277 181.750 C 324.946 184.417, 324.436 185, 322.437 185 L 320 185 320 170 L 320 155 322.460 155 C 324.846 155, 324.929 155.244, 325.256 163.250 L 325.593 171.500 325.796 162.750 L 326 154 322.969 154 C 321.301 154, 319.713 154.583, 319.440 155.296 M 138.762 155.707 C 140.006 155.946, 141.806 155.937, 142.762 155.687 C 143.718 155.437, 142.700 155.241, 140.500 155.252 C 138.300 155.263, 137.518 155.468, 138.762 155.707 M 237.264 155.718 C 238.784 155.947, 241.034 155.941, 242.264 155.704 C 243.494 155.467, 242.250 155.279, 239.500 155.286 C 236.750 155.294, 235.744 155.488, 237.264 155.718 M 238 164 C 238 167.516, 238.272 167.986, 240.250 167.884 C 242.091 167.789, 242.164 167.681, 240.651 167.292 C 239.200 166.918, 238.888 166.084, 239.201 163.408 C 239.419 161.533, 239.239 160, 238.799 160 C 238.360 160, 238 161.800, 238 164 M 152.667 163.667 C 152.300 164.033, 152 169.208, 152 175.167 L 152 186 155.500 186 L 159 186 158.807 179.250 L 158.615 172.500 158.260 178.750 C 157.926 184.621, 157.756 185, 155.452 185 C 153.006 185, 153 184.975, 153 174.570 C 153 164.548, 153.088 164.122, 155.250 163.706 C 157.337 163.304, 157.349 163.262, 155.417 163.136 C 154.271 163.061, 153.033 163.300, 152.667 163.667 M 162.190 163.678 C 163.119 163.923, 164.064 165.333, 164.290 166.812 C 164.660 169.239, 164.715 169.184, 164.850 166.250 C 164.978 163.471, 164.674 163.017, 162.750 163.116 C 161.154 163.198, 160.991 163.362, 162.190 163.678 M 166.445 164.282 C 166.146 165.061, 166.061 168.804, 166.255 172.599 L 166.608 179.500 166.804 171.750 C 166.994 164.242, 167.077 164, 169.454 164 C 171.771 164, 171.929 164.366, 172.278 170.504 L 172.648 177.008 172.574 170.254 C 172.502 163.647, 172.440 163.493, 169.744 163.183 C 168.053 162.988, 166.779 163.413, 166.445 164.282 M 180.250 163.689 C 181.213 163.941, 182.787 163.941, 183.750 163.689 C 184.713 163.438, 183.925 163.232, 182 163.232 C 180.075 163.232, 179.287 163.438, 180.250 163.689 M 199.269 163.693 C 200.242 163.947, 201.592 163.930, 202.269 163.656 C 202.946 163.382, 202.150 163.175, 200.500 163.195 C 198.850 163.215, 198.296 163.439, 199.269 163.693 M 210 163.391 C 210 163.605, 211.543 163.961, 213.430 164.182 C 215.316 164.402, 216.640 164.226, 216.371 163.791 C 215.887 163.008, 210 162.638, 210 163.391 M 225.250 163.689 C 226.213 163.941, 227.787 163.941, 228.750 163.689 C 229.713 163.438, 228.925 163.232, 227 163.232 C 225.075 163.232, 224.287 163.438, 225.250 163.689 M 262.250 163.689 C 263.212 163.941, 264.788 163.941, 265.750 163.689 C 266.712 163.438, 265.925 163.232, 264 163.232 C 262.075 163.232, 261.288 163.438, 262.250 163.689 M 276 163.387 C 276 163.599, 277.326 163.968, 278.947 164.206 C 280.568 164.443, 281.667 164.270, 281.388 163.819 C 280.893 163.017, 276 162.625, 276 163.387 M 286.269 163.693 C 287.242 163.947, 288.592 163.930, 289.269 163.656 C 289.946 163.382, 289.150 163.175, 287.500 163.195 C 285.850 163.215, 285.296 163.439, 286.269 163.693 M 306.250 163.689 C 307.212 163.941, 308.788 163.941, 309.750 163.689 C 310.712 163.438, 309.925 163.232, 308 163.232 C 306.075 163.232, 305.288 163.438, 306.250 163.689 M 330.643 163.768 C 330.382 164.191, 331.930 164.369, 334.084 164.163 C 336.238 163.958, 338 163.612, 338 163.395 C 338 162.650, 331.118 162.999, 330.643 163.768 M 131.195 170.500 C 131.215 172.150, 131.439 172.704, 131.693 171.731 C 131.947 170.758, 131.930 169.408, 131.656 168.731 C 131.382 168.054, 131.175 168.850, 131.195 170.500 M 142.709 168.705 L 147.918 169.102 148.276 176.554 L 148.635 184.007 148.568 176.253 L 148.500 168.500 143 168.405 L 137.500 168.309 142.709 168.705 M 199 168.713 C 199.825 169.019, 201.175 169.771, 202 170.384 C 203.303 171.354, 203.320 171.271, 202.128 169.750 C 201.373 168.787, 200.023 168.036, 199.128 168.079 C 197.766 168.145, 197.745 168.249, 199 168.713 M 294 177 C 294 184.829, 293.947 185, 291.544 185 C 289.195 185, 289.071 184.682, 288.718 177.750 L 288.349 170.500 288.424 178 L 288.500 185.500 291.750 185.813 L 295 186.127 295 177.563 C 295 172.854, 294.775 169, 294.500 169 C 294.225 169, 294 172.600, 294 177 M 195.252 174.500 C 195.263 176.700, 195.468 177.482, 195.707 176.238 C 195.946 174.994, 195.937 173.194, 195.687 172.238 C 195.437 171.282, 195.241 172.300, 195.252 174.500 M 254.272 175 C 254.272 177.475, 254.467 178.488, 254.706 177.250 C 254.944 176.012, 254.944 173.988, 254.706 172.750 C 254.467 171.512, 254.272 172.525, 254.272 175 M 316.116 173.202 C 316.005 175.798, 315.753 175.919, 309.750 176.260 L 303.500 176.615 309.781 176.807 C 316.372 177.009, 317.696 176.149, 316.701 172.308 C 316.389 171.105, 316.193 171.404, 316.116 173.202 M 238.175 176.750 L 238.349 181.500 238.729 177.312 C 239.034 173.951, 239.542 173.041, 241.304 172.699 C 243.121 172.346, 243.025 172.249, 240.750 172.136 C 238.094 172.005, 238.006 172.163, 238.175 176.750 M 141.921 177.249 C 141.623 179.399, 141.776 180.624, 142.279 180.121 C 142.762 179.638, 142.995 177.951, 142.798 176.372 C 142.468 173.728, 142.399 173.798, 141.921 177.249 M 260.654 176.750 C 260.400 177.162, 262.285 177.368, 264.845 177.208 C 272.781 176.709, 273.772 176.278, 267.309 176.136 C 263.904 176.061, 260.909 176.338, 260.654 176.750 M 179.853 185.253 C 180.357 185.757, 181.834 186.002, 183.135 185.797 C 185.136 185.482, 184.996 185.342, 182.219 184.881 C 180.231 184.552, 179.298 184.698, 179.853 185.253 M 191.500 185 C 188.732 185.704, 188.694 185.771, 191 185.866 C 192.375 185.923, 194.175 185.533, 195 185 C 196.702 183.900, 195.822 183.900, 191.500 185 M 334.500 185 L 330.500 185.716 334.750 185.858 C 337.087 185.936, 339 185.550, 339 185 C 339 184.450, 338.887 184.064, 338.750 184.142 C 338.613 184.220, 336.700 184.606, 334.500 185 M 277.250 185.689 C 278.212 185.941, 279.788 185.941, 280.750 185.689 C 281.712 185.438, 280.925 185.232, 279 185.232 C 277.075 185.232, 276.288 185.438, 277.250 185.689" stroke="none" fill="#f7d72c" fill-rule="evenodd"/><path d="M 209.500 17.496 C 178.173 23.020, 151.411 37.063, 129.444 59.501 C 109.530 79.843, 95.486 106.962, 90.343 135 C 87.982 147.871, 87.982 172.129, 90.343 185 C 95.601 213.667, 109.837 240.781, 130.500 261.482 C 151.293 282.313, 175.344 295.273, 205.125 301.694 C 216.991 304.253, 248.009 304.253, 259.875 301.694 C 305.013 291.962, 341.391 264.213, 361.444 224.219 C 367.207 212.725, 372.398 197.316, 374.657 185 C 377.018 172.129, 377.018 147.871, 374.657 135 C 369.399 106.333, 355.163 79.219, 334.500 58.518 C 314.014 37.994, 290.260 25.065, 260.981 18.501 C 250.616 16.178, 220.330 15.587, 209.500 17.496 M 227.935 118.575 C 225.496 121.064, 221.439 124.426, 218.919 126.046 C 213.891 129.279, 203.988 133, 200.413 133 C 198.407 133, 198.233 133.324, 198.931 135.759 C 200.748 142.096, 195.868 146.487, 187.069 146.432 C 177.507 146.373, 171.213 141.218, 173.792 135.557 C 174.868 133.197, 174.713 133.059, 169.203 131.471 C 161.432 129.233, 147.814 122.772, 141.882 118.511 C 139.194 116.580, 136.807 115, 136.576 115 C 136.345 115, 137.632 118.712, 139.435 123.250 C 141.238 127.787, 145.287 138.137, 148.433 146.250 L 154.153 161 170.519 161 L 186.885 161 187.193 156.750 L 187.500 152.500 192.250 152.195 L 197 151.890 197 156.445 L 197 161 213.437 161 L 229.873 161 230.187 157.750 C 230.478 154.726, 230.812 154.455, 235 153.851 C 242.930 152.708, 252 155.805, 252 159.655 C 252 160.751, 257.443 161, 281.423 161 L 310.847 161 316.567 146.250 C 319.713 138.137, 323.762 127.787, 325.565 123.250 C 327.368 118.713, 328.655 115, 328.424 115 C 328.193 115, 325.806 116.580, 323.118 118.511 C 317.186 122.772, 303.568 129.233, 295.797 131.471 C 290.287 133.059, 290.132 133.197, 291.208 135.557 C 293.787 141.218, 287.493 146.373, 277.931 146.432 C 269.132 146.487, 264.252 142.096, 266.069 135.759 C 266.767 133.324, 266.593 133, 264.587 133 C 261.430 133, 251.536 129.489, 247.149 126.812 C 245.142 125.587, 240.996 122.214, 237.935 119.317 L 232.369 114.048 227.935 118.575 M 189 169.797 L 189 185.721 196.250 185.778 C 202.283 185.826, 203.880 185.482, 205.761 183.733 C 210.241 179.568, 210.822 171.067, 206.976 165.968 C 205.479 163.984, 204.230 163.500, 200.602 163.500 L 196.089 163.500 195.795 159 C 195.515 154.725, 195.337 154.484, 192.250 154.187 L 189 153.873 189 169.797 M 319.440 155.296 C 319.166 156.009, 319.068 163.096, 319.221 171.046 L 319.500 185.500 322.750 185.813 C 325.949 186.122, 326 186.061, 326 181.941 C 326 178.477, 326.240 177.954, 327.392 178.911 C 328.158 179.546, 329.338 181.401, 330.014 183.033 C 331.077 185.601, 331.764 186, 335.121 186 C 337.255 186, 339 185.750, 339 185.445 C 339 185.140, 337.177 182.206, 334.949 178.925 L 330.899 172.960 334.449 168.627 C 336.402 166.244, 338 164.003, 338 163.647 C 338 163.291, 336.462 163, 334.582 163 C 331.713 163, 330.788 163.603, 328.832 166.750 L 326.500 170.500 326.210 162.250 L 325.919 154 322.928 154 C 321.283 154, 319.713 154.583, 319.440 155.296 M 133.074 157.181 C 127.744 159.974, 125 164.670, 125 171 C 125 176.848, 127.779 182.044, 132.085 184.248 C 135.867 186.185, 142.466 186.534, 146.477 185.009 C 149.016 184.043, 149.077 183.814, 148.792 176.259 L 148.500 168.500 143.250 168.198 L 138 167.895 138 170.948 C 138 173.333, 138.437 174, 140 174 C 141.560 174, 142 174.667, 142 177.031 C 142 180.595, 140.097 181.655, 136.828 179.914 C 133.160 177.959, 132.066 175.860, 132.032 170.705 C 132.006 166.861, 132.511 165.398, 134.575 163.334 C 136.813 161.096, 137.784 160.821, 142.005 161.226 C 146.505 161.659, 146.905 161.513, 147.479 159.228 C 148.268 156.086, 148.208 156.041, 142.386 155.400 C 138.507 154.973, 136.588 155.340, 133.074 157.181 M 233.750 155.689 C 232.181 156.099, 232 157.704, 232 171.183 L 232 186.219 239.608 185.834 C 246.453 185.489, 247.456 185.171, 249.608 182.669 C 252.590 179.203, 252.787 174.022, 250.032 171.529 C 248.259 169.925, 248.210 169.539, 249.532 167.651 C 252.650 163.200, 250.766 158.002, 245.280 155.916 C 242.822 154.982, 236.903 154.865, 233.750 155.689 M 239.558 160.775 C 239.251 161.082, 239 162.608, 239 164.167 C 239 166.272, 239.483 167, 240.878 167 C 243.282 167, 245.205 164.698, 244.448 162.725 C 243.836 161.130, 240.524 159.809, 239.558 160.775 M 152.667 163.667 C 152.300 164.033, 152 169.208, 152 175.167 L 152 186 155.500 186 L 159 186 159 178.700 C 159 171.161, 159.936 169, 163.200 169 C 164.533 169, 165 168.222, 165 166 C 165 162.787, 163.434 162.162, 159.995 164.003 C 158.743 164.673, 157.916 164.673, 157.502 164.003 C 156.802 162.871, 153.680 162.654, 152.667 163.667 M 166.369 164.482 C 166.028 165.370, 165.955 169.670, 166.208 174.036 C 166.833 184.828, 167.852 185.879, 177.589 185.778 L 185 185.701 185 174.351 L 185 163 182 163 L 179 163 179 170.878 C 179 176.660, 178.601 179.086, 177.500 180 C 174.638 182.375, 173.107 179.502, 172.790 171.161 C 172.505 163.625, 172.455 163.495, 169.744 163.183 C 167.917 162.973, 166.780 163.411, 166.369 164.482 M 210.005 164.187 C 210.008 164.909, 211.583 169.724, 213.505 174.886 C 215.427 180.048, 217 184.461, 217 184.692 C 217 184.924, 215.665 186.332, 214.033 187.823 C 211.842 189.824, 211.218 191.118, 211.649 192.767 C 212.378 195.555, 213.976 195.593, 217.393 192.905 C 220.698 190.306, 223.462 184.966, 227.148 174.062 C 230.719 163.499, 230.713 163, 227.028 163 C 224.262 163, 223.945 163.399, 222.455 168.750 C 221.575 171.912, 220.724 174.950, 220.565 175.500 C 220.406 176.050, 219.404 173.575, 218.339 170 C 216.521 163.897, 216.207 163.481, 213.201 163.187 C 211.064 162.977, 210.002 163.310, 210.005 164.187 M 257.917 165.782 C 252.467 170.653, 253.065 181.824, 258.945 184.970 C 261.265 186.212, 268.969 186.306, 270.848 185.115 C 271.590 184.645, 272.034 183.416, 271.836 182.385 C 271.544 180.871, 270.745 180.572, 267.687 180.836 C 264.087 181.146, 261 179.780, 261 177.878 C 261 177.395, 263.700 177, 267 177 L 273 177 273 172.923 C 273 169.750, 272.352 168.198, 270.077 165.923 C 266.248 162.094, 262.099 162.046, 257.917 165.782 M 276 174.500 L 276 186 279 186 L 282 186 282 179.434 C 282 172.048, 283.167 169, 285.995 169 C 287.715 169, 287.950 169.875, 288.210 177.250 L 288.500 185.500 291.750 185.813 L 295 186.127 295 178.128 C 295 173.729, 294.559 168.970, 294.020 167.553 C 292.658 163.969, 288.698 162.298, 284.934 163.719 C 283.217 164.367, 281.776 164.447, 281.445 163.912 C 281.135 163.410, 279.784 163, 278.441 163 L 276 163 276 174.500 M 302.888 164.500 C 297.087 167.652, 295.979 178.133, 300.923 183.077 C 303.353 185.507, 304.660 185.997, 308.673 185.985 C 314.516 185.966, 316.100 185.100, 315.374 182.321 C 314.900 180.508, 314.278 180.287, 310.921 180.737 C 307.178 181.239, 304 179.926, 304 177.878 C 304 177.395, 306.714 177, 310.031 177 C 317.039 177, 317.912 175.988, 316.106 169.961 C 314.184 163.544, 308.765 161.306, 302.888 164.500 M 261.667 168.667 C 260.007 170.326, 261.179 172, 264 172 C 267.196 172, 267.745 171.145, 265.800 169.200 C 264.472 167.872, 262.691 167.642, 261.667 168.667 M 305.200 169.200 C 303.184 171.216, 303.838 172, 307.535 172 C 310.760 172, 310.977 171.825, 310 170 C 308.788 167.736, 306.968 167.432, 305.200 169.200 M 196.667 169.667 C 196.300 170.033, 196 172.478, 196 175.099 C 196 179.114, 196.343 179.974, 198.174 180.555 C 199.693 181.037, 200.747 180.699, 201.674 179.431 C 203.327 177.171, 203.400 171.800, 201.800 170.200 C 200.493 168.893, 197.728 168.605, 196.667 169.667 M 239 176.934 C 239 180.245, 239.349 181, 240.878 181 C 245.700 181, 246.511 173.731, 241.750 173.184 C 239.149 172.884, 239 173.087, 239 176.934" stroke="none" fill="#050404" fill-rule="evenodd"/></svg>