<svg xmlns="http://www.w3.org/2000/svg" width="512" height="512" viewBox="0 0 512 512" version="1.1"><path d="M 182 96.493 C 157.682 101.375, 136.528 120.220, 122.459 149.533 C 119.750 155.178, 113.735 172.733, 106.677 195.599 C 100.405 215.919, 94.253 234.559, 93.005 237.022 C 88.587 245.744, 82.213 254.688, 74.654 262.771 C 68.693 269.144, 67 271.608, 67 273.906 C 67 279.622, 68.303 280, 87.979 280 L 105.815 280 110.340 274.967 C 120.150 264.056, 127.336 247.169, 138.420 208.984 C 142.648 194.418, 147.457 179.587, 149.106 176.026 C 152.107 169.547, 156.827 162.494, 157.627 163.294 C 157.861 163.527, 156.015 187.011, 153.526 215.479 C 148.630 271.475, 148.389 275.989, 150.200 277.800 C 154.230 281.830, 169.868 274.479, 182.945 262.408 C 191.956 254.089, 196.916 247.568, 227.938 203.245 C 243.030 181.684, 255.505 164.172, 255.661 164.328 C 255.818 164.484, 249.208 189.883, 240.973 220.770 C 232.738 251.656, 226 277.618, 226 278.464 C 226 279.775, 228.128 280, 240.532 280 C 250.475 280, 256.085 279.573, 258.298 278.649 C 262.593 276.854, 267.676 270.926, 268.918 266.263 C 269.469 264.193, 278.279 225.600, 288.497 180.500 C 298.714 135.400, 307.335 97.641, 307.655 96.591 C 308.206 94.779, 307.765 94.714, 298.862 95.299 C 281.484 96.440, 264.919 103.505, 252.925 114.891 C 248.107 119.464, 237.728 132.867, 219.231 158.402 C 204.529 178.698, 191.725 195.788, 190.778 196.379 C 186.760 198.888, 186.768 196.644, 190.936 149.894 C 193.163 124.927, 195.255 102.362, 195.586 99.750 L 196.188 95 192.344 95.094 C 190.230 95.146, 185.575 95.775, 182 96.493 M 334.450 96.407 C 330.949 97.932, 326.878 102.424, 325.197 106.617 C 324.562 108.203, 316.595 142.350, 307.493 182.500 C 289.727 260.873, 289.859 260, 295.787 260 C 299.634 260, 300.305 259.361, 312.076 244.500 C 325.378 227.706, 346.441 206.692, 354.849 201.826 C 367.584 194.456, 375.234 194.662, 377.783 202.444 C 380.773 211.570, 374.893 222.901, 358.885 238.859 C 339.092 258.589, 306.570 279.034, 267.967 296.012 C 257.098 300.793, 256 301.540, 256 304.154 C 256 307.124, 258.077 307.278, 267.116 304.975 C 334.006 287.937, 402.903 243.262, 422.067 204.500 C 431.688 185.042, 428.795 167.794, 414.704 160.597 C 397.858 151.992, 372.862 158.869, 348.083 178.925 L 343.666 182.500 344.337 179.809 C 344.706 178.330, 348.589 161.441, 352.965 142.278 C 357.341 123.116, 361.574 104.639, 362.372 101.219 L 363.823 95 350.661 95.039 C 341.996 95.065, 336.458 95.532, 334.450 96.407 M 48.500 341.444 C 43.096 343.401, 36.563 350.707, 35.131 356.395 C 34.471 359.014, 34 369.489, 34 381.524 L 34 402.163 37.750 401.619 C 39.813 401.320, 43.188 401.059, 45.250 401.038 L 49 401 49 380.622 C 49 365.503, 49.323 359.995, 50.250 359.278 C 52.873 357.248, 54.967 357.152, 57.201 358.960 C 59.430 360.762, 59.515 361.438, 60 381.107 L 60.500 401.394 67 401.298 L 73.500 401.202 74 381.011 C 74.485 361.442, 74.571 360.762, 76.799 358.960 C 78.077 357.926, 79.853 357.362, 80.799 357.690 C 84.688 359.038, 85 360.783, 85 381.191 C 85 392.086, 85.338 401.022, 85.750 401.050 C 86.162 401.077, 89.425 401.164, 93 401.243 L 99.500 401.387 99.500 378.943 C 99.500 357.760, 99.377 356.270, 97.309 352.405 C 91.351 341.271, 79.894 337.335, 70.336 343.136 C 67.200 345.040, 67.135 345.038, 63.192 342.983 C 57.818 340.182, 53.293 339.708, 48.500 341.444 M 248.197 362.250 C 248.489 383.694, 248.591 384.679, 251 389.449 C 254.669 396.711, 259.648 400.275, 266.855 400.796 C 279.208 401.689, 287.942 392.260, 287.968 378 C 287.989 366.965, 282.299 357.904, 273.533 355.011 C 268.021 353.192, 266.773 353.913, 264.892 360.005 L 263.196 365.500 263.098 352.750 L 263 340 255.447 340 L 247.894 340 248.197 362.250 M 117.491 355.865 C 110.074 359.235, 104 369.200, 104 378 C 104 386.482, 110.911 397.876, 117.266 399.871 C 124.796 402.235, 125.271 402.035, 127.674 395.500 L 129.881 389.500 129.941 395.592 L 130 401.684 136.750 401.245 C 140.463 401.004, 143.612 400.701, 143.748 400.572 C 144.692 399.680, 143.914 372.446, 142.843 368.871 C 141.147 363.209, 134.671 356.531, 129.500 355.110 C 124.070 353.618, 122.174 353.738, 117.491 355.865 M 161.204 356.128 C 158.841 357.298, 155.817 359.684, 154.485 361.431 C 149.703 367.700, 149 370.941, 148.999 386.718 L 148.999 401.500 155.749 401.336 L 162.500 401.173 163 387.995 C 163.462 375.824, 163.673 374.677, 165.763 372.987 C 167.008 371.981, 168.487 371.004, 169.048 370.817 C 169.610 370.630, 171.132 367.035, 172.430 362.828 L 174.790 355.178 172.645 354.603 C 168.733 353.553, 165.548 353.978, 161.204 356.128 M 186.500 355.896 C 184.300 356.914, 181.286 359.042, 179.803 360.624 C 174.816 365.942, 173.710 370.243, 173.211 386.250 L 172.752 401 178.626 401.077 C 181.857 401.119, 185.287 401.304, 186.250 401.488 C 187.846 401.794, 188 400.645, 188 388.412 C 188 376.333, 188.199 374.801, 190 373 C 191.100 371.900, 192.606 371, 193.346 371 C 194.163 371, 195.565 367.993, 196.914 363.351 C 198.712 357.162, 198.885 355.543, 197.818 354.867 C 195.639 353.485, 190.746 353.930, 186.500 355.896 M 202.482 355.750 C 205.734 363.934, 215 392.120, 215 393.831 C 215 396.765, 211.308 400.314, 208.909 399.686 C 207.289 399.263, 206.645 400.338, 204.622 406.844 C 202.435 413.875, 202.374 414.609, 203.870 415.829 C 206.527 417.997, 215.225 416.809, 219.772 413.658 C 225.181 409.909, 226.871 406.427, 235.907 380.406 C 240.282 367.808, 244.165 356.712, 244.537 355.750 C 245.144 354.181, 244.455 354, 237.857 354.002 L 230.500 354.004 227.150 363.502 C 225.307 368.726, 223.664 373, 223.500 373 C 223.336 373, 221.693 368.726, 219.850 363.502 L 216.500 354.004 209.143 354.002 C 202.538 354, 201.857 354.179, 202.482 355.750 M 306.211 355.129 C 301.703 356.429, 295.491 363.112, 293.582 368.715 C 292.431 372.091, 292 377.235, 292 387.590 C 292 400.606, 292.150 401.794, 293.750 401.488 C 294.712 401.304, 298.087 401.119, 301.250 401.077 L 307 401 307 387.485 L 307 373.971 310.242 371.999 C 312.907 370.378, 313.879 368.737, 315.694 362.792 C 317.361 357.331, 317.608 355.371, 316.701 354.794 C 315.123 353.791, 310.319 353.944, 306.211 355.129 M 330.247 355.332 C 325.995 356.874, 321.447 361.238, 318.735 366.376 C 315.521 372.469, 315.642 382.886, 319.004 389.420 C 322.761 396.720, 327.721 400.280, 334.855 400.796 C 347.208 401.689, 355.942 392.260, 355.968 378 C 355.999 361.589, 343.460 350.539, 330.247 355.332 M 360.166 370.750 C 360.488 386.918, 360.595 387.662, 363.241 392.163 C 364.749 394.728, 367.502 397.765, 369.359 398.913 C 373.429 401.428, 381.149 401.692, 385.424 399.463 C 388.066 398.085, 388.684 398.096, 391.812 399.581 C 396.527 401.818, 404.582 401.108, 408.656 398.096 C 410.348 396.846, 412.804 393.950, 414.116 391.661 C 416.320 387.814, 416.525 386.238, 416.834 370.750 L 417.169 354 409.611 354 L 402.053 354 401.777 368.750 L 401.500 383.500 399 383.500 L 396.500 383.500 396.223 368.750 L 395.947 354 388.500 354 L 381.053 354 380.777 368.750 L 380.500 383.500 378 383.500 L 375.500 383.500 375.223 368.750 L 374.947 354 367.389 354 L 359.831 354 360.166 370.750 M 433.491 355.865 C 428.603 358.086, 423.676 363.509, 421.863 368.664 C 420.971 371.198, 420.511 377.400, 420.507 386.941 L 420.500 401.383 427 401.241 C 430.575 401.163, 433.837 401.077, 434.250 401.050 C 434.663 401.022, 435 395.150, 435 388 C 435 376.333, 435.205 374.795, 437 373 C 439.366 370.634, 440.926 370.495, 443.559 372.416 C 445.269 373.664, 445.560 375.461, 446 387.484 L 446.500 401.135 452.733 401.387 C 456.161 401.526, 459.475 401.325, 460.097 400.940 C 461.977 399.778, 460.779 372.441, 458.632 367.500 C 456.355 362.260, 452.447 358.186, 447.500 355.896 C 442.457 353.561, 438.582 353.552, 433.491 355.865 M 468.635 356.073 C 466.587 357.683, 466 359.021, 466 362.073 C 466 369.378, 472.766 372.655, 476.927 367.365 C 479.733 363.799, 479.582 359.491, 476.545 356.455 C 473.551 353.460, 472.049 353.387, 468.635 356.073 M 468.035 357.934 C 466.409 360.974, 466.818 364.818, 469 367 C 472.245 370.245, 475.883 369.387, 473.701 365.892 C 472.282 363.620, 471 363.434, 471 365.500 C 471 366.325, 470.525 367, 469.945 367 C 469.311 367, 469.012 365.107, 469.195 362.250 C 469.448 358.315, 469.858 357.449, 471.588 357.202 C 474.388 356.802, 476.662 359.498, 475.105 361.373 C 473.910 362.813, 474.587 366, 476.088 366 C 477.888 366, 478.222 360.987, 476.587 358.493 C 474.540 355.369, 469.582 355.045, 468.035 357.934 M 471 360.500 C 471 361.417, 471.484 362.005, 472.075 361.808 C 472.666 361.611, 473.150 361.022, 473.150 360.500 C 473.150 359.978, 472.666 359.389, 472.075 359.192 C 471.484 358.995, 471 359.583, 471 360.500 M 121 373 C 117.046 376.954, 119.298 384, 124.515 384 C 127.086 384, 130 380.670, 130 377.732 C 130 375.777, 125.775 371, 124.045 371 C 123.470 371, 122.100 371.900, 121 373 M 265.223 372.557 C 262.551 374.428, 262.181 380.038, 264.571 382.429 C 266.827 384.684, 270.628 384.370, 272.443 381.777 C 274.532 378.796, 274.404 376.783, 271.927 373.635 C 269.536 370.594, 268.307 370.396, 265.223 372.557 M 333 373 C 329.046 376.954, 331.298 384, 336.515 384 C 339.019 384, 342 380.692, 342 377.912 C 342 375.704, 338.208 371, 336.427 371 C 335.642 371, 334.100 371.900, 333 373" stroke="none" fill="#ec1e26" fill-rule="evenodd"/></svg>