<?xml version="1.0" encoding="UTF-8" standalone="no"?>
<svg
   id="Layer_1"
   viewBox="0 0 1005.3 1005.3"
   width="2500"
   height="2500"
   version="1.1"
   sodipodi:docname="panda-express-logo-1.svg"
   inkscape:export-filename="..\Documents\GitHub\MapIcons\brands_2023\fast_food\panda-express-logo-1.svg"
   inkscape:export-xdpi="1"
   inkscape:export-ydpi="1"
   xmlns:inkscape="http://www.inkscape.org/namespaces/inkscape"
   xmlns:sodipodi="http://sodipodi.sourceforge.net/DTD/sodipodi-0.dtd"
   xmlns="http://www.w3.org/2000/svg"
   xmlns:svg="http://www.w3.org/2000/svg">
  <defs
     id="defs30" />
  <sodipodi:namedview
     id="namedview28"
     pagecolor="#ffffff"
     bordercolor="#000000"
     borderopacity="0.25"
     inkscape:showpageshadow="2"
     inkscape:pageopacity="0.0"
     inkscape:pagecheckerboard="0"
     inkscape:deskcolor="#d1d1d1"
     showgrid="false" />
  <style
     id="style2">.st0{fill:#ce123c}.st1{fill:#fff}</style>
  <g
     id="layer1">
    <path
       d="m 479.9,910.5 v -28 h 10.9 l 0.3,11.3 0.3,11.2 11.3,0.3 11.2,0.3 v -23.1 h 11 v 56 h -11 V 914.7 L 503.5,914 c -5.8,-0.4 -11,-0.4 -11.5,0 -0.7,0.4 -1.1,5.3 -1.1,12.6 v 11.9 h -11 z M 448.1,936 c -10.7,-2.3 -18.5,-8.2 -22,-16.5 -2.1,-5 -1.2,-19 1.5,-25.2 3.1,-6.8 9.4,-12.5 16.1,-14.4 6.7,-2 17.7,-1.5 24,1.1 4.3,1.8 4.3,1.8 3.7,5.9 -0.4,2.2 -0.9,4.3 -1.1,4.5 -0.2,0.2 -2.7,-0.6 -5.6,-1.9 -14.6,-6.3 -27.8,2.8 -27.8,19.2 0,12.5 7.2,19.2 20.7,19.3 h 7.3 v 4.1 c 0,2.9 -0.5,4.4 -1.6,4.8 -2.4,0.9 -8.3,0.6 -15.2,-0.9 z m 95.8,-0.2 c 0,-0.5 -1.3,-12.9 -2.9,-27.8 -1.6,-14.8 -2.8,-27 -2.8,-27.1 0.1,-0.1 2.7,-0.4 5.8,-0.7 l 5.5,-0.7 2.8,27.5 c 1.5,15 2.5,27.9 2.1,28.4 -0.7,1.2 -10.5,1.5 -10.5,0.4 z m 29.5,-3.5 c -0.9,-2.7 -11.6,-53.1 -11.2,-53.4 0.1,-0.2 3.2,-1 6.7,-1.8 5.4,-1.3 6.7,-1.3 7.5,-0.2 6,8 28.1,34.3 28.3,33.7 0.1,-0.4 -1.6,-9.1 -3.8,-19.4 -2.2,-10.3 -4,-19.1 -4,-19.6 0,-1.4 10.1,-3.1 10.5,-1.7 0.9,2.7 11.6,53.8 11.3,54.1 -0.5,0.4 -10.7,2.5 -12.2,2.5 -0.8,0 -7.8,-7.9 -15.7,-17.5 -7.8,-9.6 -14.4,-17.3 -14.7,-17.1 -0.2,0.2 1.5,8.9 3.7,19.3 2.3,10.3 4.1,19.1 4.1,19.5 0,0.7 -6.5,2.8 -8.8,2.8 -0.7,0 -1.5,-0.6 -1.7,-1.2 z m 295.5,-1.5 c -6.4,-2.3 -14.2,-10.5 -16.5,-17.2 -2.3,-6.9 -1.7,-17.9 1.3,-23.6 2.5,-5 10,-12.1 15,-14.3 2.2,-0.9 6.7,-1.6 11.2,-1.6 6.3,-0.1 8.4,0.4 13.2,2.7 6.4,3.2 11.1,8 14.2,14.6 2.6,5.7 2.8,17.7 0.4,23.3 -2.2,5 -9.3,12.5 -14.3,15.1 -5.4,2.8 -18.2,3.3 -24.5,1 z m 21.6,-5.7 c 6.3,-2.9 11,-8.5 13.1,-15.6 6,-20.6 -17.8,-38.6 -36,-27 -7.8,4.9 -11.7,12 -11.7,21.2 0,6.2 2.1,11.3 6.8,16.2 7.5,7.8 18,9.8 27.8,5.2 z"
       id="path4" />
    <path
       d="m 867.9,903 v -16.5 l 8.3,0.1 c 4.5,0 9.8,0.5 11.7,1.2 6.1,2.1 8,9.8 3.5,14.3 l -2.5,2.5 2,2.1 c 1.3,1.4 2,3.6 2,5.9 0,2.1 0.3,4.4 0.6,5.3 0.5,1.3 -0.1,1.6 -3,1.6 -3.5,0 -3.6,-0.1 -3.6,-3.9 0,-5.1 -2.4,-7.9 -7.7,-8.7 l -4.3,-0.7 v 13.3 h -7 z m 17.8,-2.7 c 1.9,-1.6 1.4,-5.5 -1,-7.2 -1.2,-0.9 -3.9,-1.6 -6,-1.6 h -3.8 v 11.2 l 4.8,-0.7 c 2.6,-0.4 5.3,-1.2 6,-1.7 z m -249,15.3 c -4,-10.5 -17.8,-49.1 -17.8,-49.9 0,-0.6 2.6,-1.9 5.8,-3 3.1,-1.1 10.1,-3.6 15.4,-5.5 l 9.7,-3.6 1.4,4.3 1.5,4.3 -5.2,1.8 c -2.8,1 -7.4,2.7 -10.3,3.7 l -5.2,1.9 2.1,5.7 c 1.1,3.1 2.3,6 2.7,6.4 0.3,0.4 4.4,-0.6 9,-2.3 4.7,-1.6 9,-2.8 9.6,-2.5 0.6,0.2 1.6,2 2.2,3.9 l 1.1,3.5 -9.2,3.2 c -5,1.8 -9.2,3.4 -9.4,3.5 -0.5,0.5 5.1,14.5 5.8,14.5 0.4,0 5.1,-1.6 10.4,-3.5 l 9.7,-3.5 1.5,3.5 c 0.7,1.9 1.4,3.8 1.4,4.2 0,0.4 -7,3.3 -15.6,6.4 l -15.5,5.7 z m -281,-2.9 c -2.7,-0.9 -4.8,-2 -4.8,-2.5 0,-0.5 1.8,-6 4.1,-12.1 2.3,-6.1 5.8,-15.9 7.9,-21.7 l 3.9,-10.7 -7.5,-2.7 c -4.1,-1.5 -7.4,-3 -7.4,-3.3 0,-1.8 2.6,-7.2 3.5,-7.2 0.5,0 9.8,3.2 20.6,7.2 l 19.7,7.1 -1.5,4.3 -1.4,4.3 -6.5,-2.5 c -3.5,-1.3 -7,-2.4 -7.8,-2.4 -0.8,0 -4.3,8.2 -9.1,21.3 -4.2,11.6 -8,21.5 -8.4,21.8 -0.3,0.3 -2.7,-0.1 -5.3,-0.9 z m -47.6,-20.8 -14.2,-7.5 12.6,-24.7 c 7,-13.6 12.8,-24.8 12.9,-25 0.3,-0.3 28.5,13.6 29.4,14.4 0.8,0.7 -2.8,7.4 -3.9,7.4 -0.6,0 -5.1,-2 -10,-4.5 -4.9,-2.5 -9.1,-4.5 -9.3,-4.5 -0.6,0 -6.1,12 -5.6,12.4 0.2,0.2 4.1,2.2 8.7,4.5 4.5,2.3 8.2,4.4 8.2,4.7 0,0.5 -3,6.5 -3.5,7.2 -0.2,0.2 -4.3,-1.7 -9.2,-4.2 l -8.9,-4.4 -3.2,6.4 c -1.8,3.5 -3.2,6.8 -3.2,7.3 0,0.4 4.2,3 9.4,5.7 l 9.4,4.9 -1.9,3.7 c -1.1,2.1 -2.3,3.8 -2.7,3.8 -0.4,0 -7.1,-3.4 -15,-7.6 z m 374.6,2.2 c -1.6,-4.4 -1.6,-4.6 0.1,-4.6 3.7,0 11.9,-3.1 14.4,-5.4 3.1,-2.9 3.6,-7.6 1.1,-10 -1.2,-1.3 -3.9,-1.6 -12.2,-1.6 -12.1,0 -15.6,-1.3 -19.2,-7.2 -7.1,-11.6 -0.2,-23.2 16.8,-28.2 5.2,-1.5 5.3,-1.5 6.1,0.7 2.5,6.6 2.5,6.4 -2.9,7.7 -6.9,1.6 -11,5.2 -11,9.4 0,5.7 2.6,7 12.2,6.3 13.5,-1.1 20.2,2.2 22.8,11 1.7,5.7 0.5,10.7 -3.7,15.3 -3.7,4.2 -13.5,9.5 -19.3,10.5 -3.4,0.6 -3.6,0.5 -5.2,-3.9 z M 271.6,872 c -2,-1.4 -3.7,-2.9 -3.7,-3.2 0,-0.3 5.7,-8.5 12.6,-18.1 6.9,-9.6 12.4,-17.6 12.2,-17.8 -0.2,-0.2 -8.7,5.7 -18.9,13.1 -10.1,7.4 -18.6,13.5 -19,13.5 -1.1,0 -8.9,-6.2 -8.5,-6.8 0.9,-1.7 13.8,-43.3 13.5,-43.7 -0.2,-0.2 -6.2,7.7 -13.3,17.5 l -12.9,17.9 -4.3,-3.1 c -2.7,-1.9 -4.1,-3.5 -3.6,-4.3 4.1,-6.9 32,-44.3 32.8,-44 0.7,0.2 4.1,2.5 7.7,5 l 6.5,4.7 -6.9,20.6 c -3.8,11.3 -6.7,20.7 -6.5,21 0.3,0.2 4.9,-2.9 10.3,-7 5.4,-4.1 13.2,-9.9 17.4,-13 l 7.7,-5.6 6.8,5 c 3.8,2.8 6.9,5.5 6.8,6.2 -0.1,1.4 -31.4,44.6 -32.3,44.6 -0.3,0 -2.3,-1.1 -4.4,-2.5 z m 444.8,-20.1 c -8.2,-12.5 -15.1,-23 -15.3,-23.5 -0.3,-0.7 26.7,-19.4 27.2,-18.7 3.8,5.2 4.7,7.1 3.9,7.7 -13,8.4 -17.2,11.5 -16.6,12.5 0.6,1 6.3,9.6 6.9,10.4 0.1,0.2 3.9,-2.1 8.5,-5.2 l 8.3,-5.5 2.3,3.1 c 1.3,1.8 2.3,3.5 2.3,3.9 0,0.3 -3.6,3 -8,5.9 -4.5,2.9 -7.9,5.6 -7.8,6 0.2,0.4 2.1,3.4 4.3,6.7 l 3.9,6.1 8.8,-5.9 c 4.8,-3.2 9.1,-5.9 9.5,-5.9 0.4,0 1.8,1.5 3,3.4 l 2.2,3.4 -13.7,9.1 c -7.6,5 -14,9.1 -14.2,9.1 -0.3,0 -7.2,-10.2 -15.5,-22.6 z M 209,823.1 l -4.2,-4.3 4.5,-10.3 c 2.5,-5.6 4.6,-10.8 4.6,-11.6 0,-0.7 -1.2,-2.7 -2.7,-4.4 l -2.6,-3.2 -8.4,8.4 -8.3,8.3 -4,-4 -4,-4 20,-20 20,-20 7.5,7.5 c 9.9,9.7 13.5,15.2 13.5,20.2 0,9.8 -8.9,16.5 -17.8,13.5 l -3.8,-1.3 0.4,2.6 c 0.3,2.3 -7.7,23.9 -9.7,26.2 -0.4,0.5 -2.6,-1.2 -5,-3.6 z m 23.1,-35.7 c 2.5,-3.3 1.7,-6.4 -2.9,-11.3 l -3.6,-3.8 -5.4,5.4 -5.4,5.3 4.2,3.8 c 5.2,4.6 10,4.9 13.1,0.6 z m 548.3,15 -19.8,-20.1 11.1,-11.1 11.2,-11.2 3.2,3.3 3.3,3.2 -7,7 -6.9,7 4.4,4.7 c 2.5,2.6 4.6,5 4.8,5.2 0.1,0.3 3.4,-2.6 7.2,-6.4 l 7,-6.9 3,2.9 3,2.9 -6.5,6.6 c -3.6,3.6 -6.5,7 -6.5,7.5 0,0.5 3.7,4.7 8.2,9.2 l 8.3,8.3 -4.1,4 -4,4.1 z M 817.1,778 c -7.2,-3.4 -15.5,-11.4 -18.2,-17.8 -4,-9.2 -1.5,-19.7 6.8,-28.9 10.6,-11.7 26.7,-11.5 39.9,0.5 12.7,11.7 13.8,25.9 2.8,39.3 -7.5,9.1 -20.4,12 -31.3,6.9 z M 839,767.2 c 12.5,-8.3 6,-27 -11.5,-32.7 -8.4,-2.7 -17.3,1.8 -19.6,9.9 -4,14.5 18.6,31.2 31.1,22.8 z m -673.3,7.3 c -7.3,-3.9 -14.8,-15.8 -14.8,-23.6 0,-8 2.8,-11.4 20.3,-24.6 8.6,-6.5 16.3,-12.1 17,-12.3 0.6,-0.2 2.6,1.5 4.4,3.9 l 3.1,4.3 -12.6,9.4 c -16.4,12.2 -19.9,15.3 -21.2,19.3 -1.9,5.8 2.4,13 8.5,14.2 4.8,0.9 9.3,-1.5 24.5,-13.1 7.6,-5.8 14.3,-10.5 14.8,-10.5 0.9,0 6.2,7 6.2,8.3 0,1 -31.9,24.7 -34.7,25.8 -4,1.5 -11.5,0.9 -15.5,-1.1 z m 360.7,-1.7 c -6,-0.9 -15,-3.5 -18.8,-5.5 -11.2,-5.7 -19.4,-18.4 -18.4,-28.4 0.8,-8 5,-14.5 17.5,-27.5 19,-19.6 21.3,-23.8 21.4,-38.3 0,-11.6 -2.4,-17.8 -10.4,-26.2 -8.7,-9.2 -19.2,-13.1 -32.2,-12.1 -11.6,0.9 -17.2,3.1 -23.1,9.1 -7.3,7.3 -9.8,14.2 -9.3,25.6 0.4,7.8 0.9,9.5 6.1,20.7 6.8,14.9 9,22.6 9,31.8 0,11.7 -4.4,19.1 -14.6,24.6 -6,3.3 -6.5,3.4 -17.2,3.3 -9.7,0 -12.2,-0.4 -20.9,-3.3 C 395.7,740 387.5,735 364.8,715.9 348,701.7 336,686.8 327.3,669.5 c -9.2,-18.3 -15.4,-52 -13.9,-75 0.8,-12 4.2,-26.2 11,-46 6.4,-18.4 18.1,-42.1 19.8,-40 0.2,0.3 3,4.8 6.2,10 8.9,14.4 17.6,25.2 31.9,39.6 21.5,21.5 30.3,28.6 44.1,35.4 14.5,7.2 25.4,10.1 39.7,10.8 13.4,0.6 15.2,0.1 39.7,-10 20.6,-8.4 40.4,-18.2 50.5,-25 39.8,-26.8 58.6,-46.6 73.2,-77.3 8.9,-18.7 13.3,-38.3 12,-53 -1.2,-13.6 -11.6,-53.2 -14.2,-54.2 -0.7,-0.2 -2.7,0.6 -4.4,1.8 -4.5,3.4 -14.7,3.8 -23.3,1 -25,-8.4 -53.7,-40 -53.7,-59.4 0,-6.9 6,-17.8 14.1,-25.7 8,-7.8 15.3,-12.3 26.2,-16.3 10.9,-4 23.1,-4.3 32.2,-0.8 8.5,3.3 17.5,10.1 21.8,16.3 6.1,8.8 7.9,14.8 8.5,27.6 0.5,12.7 -0.6,17.8 -7.9,34.6 -2.2,4.9 -3.9,9.4 -3.9,10.1 0,0.6 2.5,3.5 5.6,6.5 3.1,3 8.4,9.1 11.8,13.5 24.9,31.8 36.5,59.2 43.9,104 2.3,13.3 3.2,22.2 5.3,50.3 0.7,8.4 1.6,9.2 10.8,9.2 17.2,0 34.3,-10.9 42.1,-26.8 1.7,-3.4 3.3,-6.1 3.7,-6.2 1.2,0 2,21.1 1.4,34.3 -1.5,26.7 -5.2,45.7 -12.6,63.5 -7.3,17.7 -22.7,38.7 -34.8,47.5 -9.4,7 -22.9,12.6 -34.2,14.2 -4.4,0.7 -4.6,0.8 -10.9,10.8 -17.5,27.6 -36.9,46.2 -63.1,60.5 -14.7,8 -33.1,14.3 -47.2,16.1 -9.1,1.2 -28.3,2 -32.3,1.4 z m 327.2,-49.7 c -16.6,-6.9 -23.7,-18.3 -20.1,-32.4 4,-15.5 16.9,-24.7 30.9,-22.1 10.2,1.9 20.5,9.2 24.8,17.4 2.9,5.6 2.9,15.4 -0.1,21.8 -7.1,15.7 -20.5,21.4 -35.5,15.3 z m 21.2,-11.3 c 9.1,-6.9 9.1,-18.6 -0.2,-25.7 -14.2,-10.8 -29.6,-7.8 -32.2,6.4 -2.3,13.1 21.6,27.3 32.4,19.3 z m -741.5,9.9 c -5.2,-2.5 -10.7,-8.2 -13.6,-14.1 -3,-6.1 -3.6,-15.7 -1.4,-21.5 3.7,-9.7 16.8,-18.5 28.8,-19.4 5.9,-0.4 7.5,-0.1 12.2,2.2 6.4,3.1 9.9,6.9 13.5,14.6 3.4,7.2 3.5,16.6 0.4,22.5 -2.8,5.3 -9.5,11.4 -15.8,14.5 -6.8,3.3 -18.2,3.9 -24.1,1.2 z m 20.8,-13 c 10.6,-6 14.4,-14.9 9.7,-23.1 -3,-5.5 -9.2,-8.6 -15.1,-7.6 -14.3,2.3 -24.6,13.3 -21.9,23.1 3.2,11.4 14.9,14.6 27.3,7.6 z M 880,660.4 c -14,-4.9 -25.7,-9.1 -25.9,-9.4 -0.2,-0.2 0.6,-3.4 1.8,-7.2 7.5,-22.7 15.2,-30.8 29,-30.7 13.3,0.2 26.3,8.4 29,18.4 1.7,6.3 0.7,15.9 -2.8,26 -3.8,10.9 -4.3,12 -5.1,11.9 -0.3,0 -12,-4 -26,-9 z m 23.7,-8.8 c 3.3,-10.8 0,-19.6 -8.8,-24.1 -7.3,-3.6 -15.1,-3.2 -21.2,1.1 -2.4,1.7 -7.8,11.2 -7.8,13.7 0,0.6 3.3,2.2 7.3,3.6 3.9,1.4 11.5,4.1 16.7,6 5.2,1.9 10.2,3.5 11.1,3.5 1,0.1 2,-1.3 2.7,-3.8 z m -802.8,12.2 c -6.1,-9.6 -9.3,-22.7 -7.6,-31.6 1.5,-8.2 9.3,-15.6 19.9,-18.9 19.6,-6.1 34.3,4.2 39.1,27.5 0.9,4.2 1.6,7.8 1.6,8.1 0,0.5 -6.8,2.6 -8.5,2.6 -0.5,0 -1.1,-2.2 -1.3,-5 -0.3,-6.1 -2.5,-12.4 -5.7,-16.5 -9,-11.9 -31.7,-6.6 -35.4,8.2 -1,3.6 -0.9,5.5 0.4,9.7 2.4,8.2 2.3,8.1 10.3,5.6 l 7,-2.2 -1.9,-5.6 c -1,-3 -1.9,-5.6 -1.9,-5.8 0,-0.5 8,-2.7 8.3,-2.3 0.2,0.2 2,5 3.9,10.6 3.3,9.1 3.5,10.2 2,10.8 -0.9,0.4 -7.5,2.6 -14.5,5 l -12.8,4.4 z"
       id="path6" />
    <path
       d="m 453.7,584.3 c -0.8,-0.7 -3.3,-3.8 -5.5,-6.8 -5.5,-7.5 -7.3,-8.9 -13.4,-10.5 -8,-2.1 -12.4,-8.2 -8.4,-11.5 1.3,-1.1 3.6,-0.8 12.8,1.6 9.8,2.5 13.1,2.8 27,2.9 9.7,0.1 16.1,0.5 16.8,1.2 0.6,0.6 0.9,2.6 0.7,4.4 -0.4,4.5 -4.1,6.2 -13.1,6.3 -7.7,0.1 -9.3,1.4 -8.2,6.6 0.9,4 -0.9,7 -4.3,7 -1.6,0 -3.5,-0.6 -4.4,-1.2 z M 882.4,552 c -1.9,-3 -3.5,-5.8 -3.5,-6.2 0.1,-0.9 10.3,-7.3 11.7,-7.3 0.4,0 2.5,2.7 4.5,5.9 l 3.7,5.9 -5.9,3.6 c -3.2,2 -6.1,3.6 -6.4,3.6 -0.3,0 -2.2,-2.5 -4.1,-5.5 z m -764.6,1.7 c -1.9,-1.5 -4.6,-3.4 -5.8,-4.3 l -2.4,-1.5 3.8,-5.7 c 2.1,-3.1 4.2,-5.7 4.7,-5.7 1,0 11.8,7.1 11.8,7.7 0,0.5 -8.2,12.4 -8.4,12.2 -0.1,0 -1.7,-1.2 -3.7,-2.7 z m 404.8,-21.1 c -5.6,-1.2 -8.3,-4.4 -14.4,-17.1 -3,-6.3 -7.9,-15.2 -10.9,-19.7 -8.4,-12.6 -9.8,-16.4 -9.8,-25.8 0.1,-12.9 5.7,-25.1 13.7,-29.5 8.2,-4.7 21.1,-0.8 32.8,9.9 10.3,9.3 19.5,25.1 20.6,35.3 1.2,11.5 -3.9,27.6 -12.2,39 -5.1,7 -11.5,9.5 -19.8,7.9 z m -0.4,-37.2 c 4.9,-2.2 6.1,-8.6 2.2,-12.4 -4.4,-4.5 -11.5,-2.2 -13.1,4 -0.7,3 1.7,7.2 4.9,8.5 3,1.2 3.2,1.2 6,-0.1 z m -131,26.6 c -5.1,-3.1 -11.7,-12.8 -14,-20.5 -4.5,-15.4 3,-41.2 16.3,-55.8 6.3,-7 12.2,-10.2 18.5,-10.2 5.6,0 8.3,1.9 11.3,7.8 2.9,5.7 7.6,22.4 7.6,26.9 0,5.3 -3.2,12.3 -11.3,24.4 -4.2,6.3 -9.1,14.6 -11,18.4 -5.6,11.3 -9.9,13.6 -17.4,9 z M 406,489.6 c 3.2,-3.2 3.5,-4.7 1.8,-8.5 -4,-8.7 -17.6,-2.6 -14,6.3 2.3,5.5 7.9,6.5 12.2,2.2 z m 451.2,4.9 c -12.1,-2.5 -19.9,-10.9 -23.8,-25.7 -1.7,-6.2 -2.1,-25 -0.7,-31.3 l 0.8,-3.5 11.5,-0.3 11.6,-0.3 -2,5.8 c -2.6,7.5 -2.8,21.3 -0.3,26 2.4,4.7 5.8,6.7 10.4,6 5.4,-0.9 8.6,-5.2 11.2,-15.1 4.8,-18.4 10,-25.5 21.3,-29 7.8,-2.4 20.4,-1.9 26.2,1.1 12.6,6.6 19.9,24.7 18,44.7 -0.3,4 -1,7.8 -1.4,8.4 -0.5,0.8 -4.6,1.5 -11.4,1.9 l -10.6,0.6 1.5,-4.8 c 1.8,-6 1.8,-16.8 0,-21.8 -2,-5.5 -4.3,-7.7 -8.3,-7.7 -6.9,0 -8.9,2.6 -12.1,16 -1.2,4.7 -2.8,10.2 -3.7,12.3 -2.5,6.1 -9,12.4 -14.9,14.6 -6.2,2.3 -17.4,3.3 -23.3,2.1 z m -700.3,-9.6 c -8.5,-1.2 -31.5,-4.3 -51,-7 -19.5,-2.6 -35.8,-5 -36.2,-5.3 -1,-0.8 3.8,-33.3 5.9,-39.9 4.8,-15.6 16.4,-23.2 32.9,-21.8 17.8,1.5 28.3,9.3 32,23.7 1.5,5.9 1.4,15.6 -0.2,22.4 -0.5,2 0.4,2.2 17.5,4.5 l 18.1,2.3 v 2.6 c 0,4.1 -2.2,19.5 -2.9,20.2 -0.3,0.3 -7.6,-0.5 -16.1,-1.7 z m -36.2,-35.8 c 0.3,-7.6 -1,-10.6 -5.6,-12.9 -6.9,-3.5 -15.5,-2.7 -19.1,1.9 -1.8,2.3 -4.8,13 -3.9,14 0.6,0.5 26,4.2 27.3,3.9 0.6,-0.1 1.1,-3.2 1.3,-6.9 z m 15.1,-52.7 C 112.5,378.2 93,363 92.6,362.5 c -0.5,-0.4 1.3,-6.7 4,-13.9 l 4.8,-13.1 h 5 c 7.9,0 104.7,4.9 105.2,5.3 0.2,0.2 -1.6,5.5 -3.9,11.8 l -4.3,11.4 h -3.5 c -1.9,-0.1 -7.3,-0.3 -11.8,-0.5 l -8.4,-0.5 -5.4,14.4 c -3,7.9 -5.4,14.9 -5.4,15.5 0,0.6 3.9,4 8.6,7.5 4.7,3.5 8.7,6.8 8.9,7.2 0.5,0.7 -6.3,19.7 -7.5,21.2 -0.4,0.4 -19.7,-14.2 -43.1,-32.4 z m 19.6,-25.2 c 2,-5.4 3.5,-10 3.3,-10.2 -0.5,-0.5 -39.9,-4.7 -40.3,-4.3 -0.4,0.4 32.7,24.7 33.2,24.4 0.1,0 1.8,-4.5 3.8,-9.9 z m 680,41 c -10.3,-4 -17,-12.2 -21.9,-26.7 -2.3,-7.1 -5.2,-23.7 -4.3,-24.6 0.4,-0.4 13.3,-4 20.2,-5.6 1.9,-0.5 2,-0.1 1.6,7.3 -0.4,9.8 2.4,20.1 6.9,24.9 2.7,2.9 3.5,3.2 7.1,2.7 4.1,-0.5 7.3,-2.6 9.1,-6 0.5,-1 1.3,-7.9 1.8,-15.3 1.2,-20 4.3,-25.5 18.5,-32.1 5.1,-2.4 7.3,-2.8 14.5,-2.8 7.4,0 9.1,0.3 13.1,2.7 9.2,5.4 16.3,16.3 20,30.6 2.5,9.7 2.5,15.9 0.2,16.6 -5.7,1.7 -16.9,4.6 -17.8,4.6 -0.6,0 -1.1,-2.9 -1.2,-6.8 -0.3,-12.6 -6.6,-24.2 -13.1,-24.2 -7.7,0 -9.2,3.2 -10.2,20.9 -0.4,7.5 -1.2,14.9 -1.9,16.6 -3.2,7.8 -10.2,13.5 -20.4,16.7 -6.6,2 -17.6,2.3 -22.2,0.5 z M 334,370.8 c -11.5,-11.4 -17.3,-19.9 -20.3,-29.6 -2.8,-9.4 -2.2,-27.1 1.2,-36.2 8.2,-21.6 29.8,-35.4 51.5,-32.9 17.9,2 31.4,10.8 43.4,28.3 3.3,4.9 6.1,9.2 6.1,9.4 0,0.3 -3.5,2.7 -7.7,5.2 -21.7,13.2 -39.4,30.8 -56.8,56.5 -3.2,4.7 -6.1,8.6 -6.6,8.8 -0.5,0.2 -5.3,-4.1 -10.8,-9.5 z m 461,-30.5 c -3.3,-5.1 -10.9,-16.9 -16.9,-26.3 -6.1,-9.3 -10.9,-17.1 -10.8,-17.1 1.1,-1.1 87.9,-56.4 88.4,-56.4 0.8,0.1 32.7,49.9 32.7,51.1 0,0.4 -2.8,2.6 -6.1,4.7 -11,7.1 -8.8,8.2 -20.4,-9.9 -9.8,-15.4 -10.3,-15.9 -12.4,-14.6 -1.1,0.8 -5.2,3.3 -8.9,5.7 -4.5,2.8 -6.6,4.7 -6.3,5.7 0.3,0.7 4.6,7.7 9.5,15.3 l 9,13.9 -2.7,1.9 c -1.5,1 -5.3,3.5 -8.4,5.5 l -5.7,3.6 -9.1,-14.5 c -5.1,-7.9 -9.6,-14.7 -10.1,-15 -0.9,-0.5 -18.4,10 -19.4,11.7 -0.3,0.4 3.9,7.6 9.3,16.1 5.4,8.4 10.1,15.8 10.5,16.5 0.4,0.7 -2.3,3 -7.3,6.2 -4.5,2.8 -8.3,5.1 -8.5,5.1 -0.3,0 -3.2,-4.2 -6.4,-9.2 z M 175.9,301.9 c -22.8,-17.4 -41.7,-31.7 -41.9,-32 -0.8,-0.7 17,-23.4 18.3,-23.4 1.4,0 68.2,17.5 71.1,18.6 4.7,1.8 -1.4,-3.2 -26.1,-21.6 -16.1,-12.1 -27.2,-21 -27,-21.7 0.3,-0.7 3.1,-4.6 6.2,-8.8 3.8,-5 6,-7.2 6.8,-6.6 0.6,0.5 19.3,14.7 41.6,31.6 22.3,16.9 40.7,30.9 40.8,31.1 0.3,0.2 -10.1,14.3 -16.3,22.1 -0.8,1 -8.9,-0.8 -37.7,-8.1 -20.3,-5.2 -36.8,-9.1 -36.8,-8.7 0,0.4 11.8,9.5 26.2,20.1 14.4,10.7 26.9,20 27.7,20.6 1.3,1 0.7,2.3 -4.3,9 -3.3,4.4 -6.2,8.2 -6.5,8.6 -0.3,0.4 -19.3,-13.5 -42.1,-30.8 z m 576.8,-21.8 -8.7,-8.1 6.5,-12 c 11.9,-21.9 12.8,-26.1 6.7,-32.5 l -3.8,-4 -14,15 c -7.7,8.2 -14.3,14.8 -14.6,14.7 -0.4,-0.1 -4.3,-3.6 -8.7,-7.9 l -8,-7.6 33,-34.9 c 18.1,-19.1 34.5,-36.3 36.3,-38.2 l 3.3,-3.4 16.9,16.2 c 20,18.9 22.8,23 22.7,33.1 0,4.8 -0.6,7.6 -2.3,10.9 -2.9,5.6 -9.9,12.3 -15.7,15.2 -5,2.4 -13.6,3 -17,1.1 -1.9,-1 -2.1,-0.8 -2.1,3.4 0,3.7 -1.8,8.3 -10.4,25.5 -5.7,11.6 -10.6,21.2 -10.9,21.4 -0.3,0.1 -4.4,-3.4 -9.2,-7.9 z M 789,219 c 3.6,-1.9 6.9,-7 6.9,-10.6 0,-2.8 -3.9,-8.7 -8.9,-13.4 l -3.1,-2.9 -7.1,6.9 c -9.9,9.8 -10,10.1 -5.3,14.2 8.6,7.5 12,8.6 17.5,5.8 z m -541.4,-4 c -16.9,-23.2 -30.7,-42.5 -30.7,-42.8 0,-0.7 27.6,-20.6 33.9,-24.4 13.8,-8.3 29.2,-9.6 41.4,-3.4 12.9,6.5 27.7,25.1 33.3,41.6 5,15.2 1.8,29.4 -9.7,41.9 -4.7,5.2 -12.2,11.1 -32.4,25.8 l -5.1,3.7 z m 41.6,8.6 c 6.6,-4.5 12.4,-11.4 13.7,-16.3 2.7,-9.7 -2.1,-22.8 -12.1,-33 -10.2,-10.4 -20.2,-12.5 -31.5,-6.8 -3.2,1.7 -7.2,4.1 -8.8,5.4 l -2.9,2.4 18.4,25.5 c 10.1,14.1 18.5,25.6 18.7,25.6 0.2,0.1 2.2,-1.2 4.5,-2.8 z m 366.5,-17.5 c -4.8,-2.9 -9,-5.5 -9.3,-5.8 -0.6,-0.6 49.6,-87 52,-89.6 0.9,-1.1 4,0.4 16,7.5 17.3,10.3 24.4,16.3 28.1,23.9 2.4,4.8 2.6,6.3 2.2,13.2 -0.4,6.5 -1,8.9 -4.3,15 -4.7,9 -12.4,16.3 -19.6,18.7 -8.2,2.8 -16.2,1.7 -26.8,-3.6 -4.7,-2.4 -8.9,-4.5 -9.2,-4.7 -0.4,-0.2 -4.8,6.7 -9.8,15.3 -5.1,8.5 -9.5,15.5 -9.9,15.4 -0.4,0 -4.6,-2.4 -9.4,-5.3 z m 59.2,-40.2 c 3.6,-3.1 7,-9.3 7,-12.9 0,-4.2 -2.8,-8.4 -7.7,-11.5 -2.5,-1.6 -4.9,-2.7 -5.4,-2.5 -0.9,0.6 -13.9,22.8 -13.9,23.8 0,0.4 2.1,1.8 4.8,3.1 6.3,3.4 11.2,3.3 15.2,0 z m -369,40.8 c 0,-0.4 -1.1,-22.5 -2.5,-49.2 -1.4,-26.7 -2.5,-51.2 -2.5,-54.5 V 96.9 L 354,92.1 c 7.2,-2.6 13.5,-4.4 13.9,-3.9 3.2,3.4 66,84.4 66.2,85.3 0.2,0.8 -4.4,3 -11.2,5.5 l -11.5,4.3 -6.3,-8.7 c -3.5,-4.7 -6.7,-8.9 -7.1,-9.4 -0.4,-0.4 -7.6,1.8 -16,5 l -15.3,5.6 0.7,11.7 c 0.7,10.8 0.6,11.8 -1.1,12.5 -8.6,3.4 -20.4,7.3 -20.4,6.7 z m 38.9,-58.9 c 0.5,-0.3 -17.6,-27.2 -21.5,-31.9 l -2.4,-2.9 0.5,3 c 0.3,1.7 0.9,8.9 1.5,16 0.6,7.2 1.3,15.3 1.6,18.1 l 0.6,5.1 9.6,-3.5 c 5.4,-2 9.9,-3.7 10.1,-3.9 z m 240.4,43.7 c -6.8,-2 -12.7,-4 -13.2,-4.5 -0.4,-0.6 -1.9,-9.1 -3.1,-19 -1.3,-9.9 -2.6,-18.8 -2.9,-19.8 -0.6,-1.5 -3.3,1.3 -13.2,13.4 -6.8,8.3 -12.6,15.6 -12.9,16 -0.4,0.5 -6.3,-0.8 -13.3,-2.8 l -12.8,-3.6 2.8,-3.1 c 7.7,-8.3 31.2,-33.6 35.1,-37.7 l 4.4,-4.7 -5.2,-26.6 c -2.8,-14.6 -5,-27 -4.8,-27.4 0.1,-0.5 5.9,0.8 12.8,2.7 l 12.5,3.6 2.1,16.5 c 1.2,9.1 2.3,17.4 2.5,18.5 0.3,1.5 3,-1.3 11.7,-11.7 6.2,-7.6 11.7,-14 12.2,-14.3 1.1,-0.7 24,5.5 24,6.4 0,0.3 -8.3,9.5 -18.5,20.5 -10.2,10.9 -18.5,20.5 -18.5,21.4 0,0.8 2.5,14.2 5.6,29.9 3,15.6 5.4,28.7 5.2,29.1 -0.2,0.4 -5.8,-0.9 -12.5,-2.8 z m -120,-20.9 c -11.6,-0.3 -21.4,-0.9 -21.8,-1.2 -0.6,-0.7 1.1,-79.2 2.1,-95.7 l 0.6,-9.2 25.1,0.5 c 13.9,0.3 27.6,0.8 30.5,1.1 l 5.3,0.6 -0.3,9.5 -0.3,9.5 -19.2,-0.1 -19.3,-0.2 v 20.8 l 6.1,0.7 c 3.4,0.3 11.5,0.6 18,0.6 h 11.9 v 20.3 l -18.2,-0.4 -18.3,-0.4 -0.3,11.6 -0.3,11.6 12.2,0.6 c 6.7,0.4 15.5,0.7 19.6,0.7 h 7.3 v 20 l -9.7,-0.2 c -5.4,-0.1 -19.3,-0.4 -31,-0.7 z"
       id="path8" />
  </g>
  <g
     id="layer2">
    <path
       class="st0"
       d="M 471.9,987.4 C 407.1,982.7 345.7,966.3 288.4,938.5 204.5,897.7 130.8,828.8 82.9,746.5 37.7,668.8 14.5,578.6 17.2,491 22,337.9 92.5,202.1 214.2,111.6 288,56.7 374.7,24.5 467.9,17.4 c 19.7,-1.5 67.5,-0.6 86.5,1.6 80.7,9.3 154.3,35.8 218.5,78.8 41,27.4 80.6,64 111.2,102.7 55.1,69.8 89.8,151.8 101.2,239.5 3,22.5 3.9,41.7 3.3,71.5 -0.5,30.5 -1.8,44.3 -6.3,71.5 -27.9,167.6 -142.9,309 -302.4,371.8 -42,16.5 -86.7,27.2 -133,31.7 -14.8,1.5 -60.1,2 -75,0.9 z m 81,-21.3 C 683.5,950.7 797.6,885.7 876,782 960.7,670 990,522.6 954.8,385.7 918.1,243 812.3,122.7 676.4,69.2 572.5,28.4 459.5,25.1 355.4,60 224.9,103.6 119.3,203.6 69.6,330.5 40.2,405.5 30.4,486 41,565 c 13.5,101.1 60.3,195 133.6,268.1 78.4,78.3 180.5,125 293.9,134.3 16.3,1.4 68.4,0.5 84.4,-1.3 z"
       id="path11" />
    <path
       class="st0"
       d="m 477.4,845.9 c -1.6,-0.2 -7.9,-0.9 -14,-1.5 C 376.2,835.8 291.5,789.2 235.2,719 204.7,681 185.5,643.8 170.5,593.9 c -0.6,-1.9 -0.1,-2.3 4,-3.3 2.6,-0.7 4.7,-1.1 4.8,-0.9 0.2,0.2 1.9,5.7 4,12.3 16.1,51.1 44.9,98.6 83,137 55.6,55.9 127.2,89.3 206.9,96.6 18.6,1.7 60.6,0.7 77.2,-1.9 58.8,-9.2 108.7,-29.7 154,-63.3 56.5,-42 99.7,-103 119.6,-169.1 2.4,-8.2 3.7,-10.8 4.9,-10.8 1.8,0 8,2 8,2.5 0,1.8 -10.1,30.9 -13.9,40.3 -48.9,118.9 -160.3,200.7 -289.1,212.2 -10.5,0.9 -49.4,1.2 -56.5,0.4 z"
       id="path13" />
    <path
       class="st0"
       d="M 470.9,805.1 C 398.6,796.6 333.6,764.7 284.7,713.6 182.6,607.1 170.7,445.1 256,325.3 c 9.5,-13.3 17.8,-23.1 32.2,-37.7 84.9,-86.1 214.2,-113.1 327.6,-68.4 26.1,10.3 55.2,27.1 78.1,45.3 12.9,10.2 37,34.2 47.2,47 34,42.8 55.6,92.2 63.9,146 2.6,17.3 3.7,55.4 2,72.6 -3.9,38.6 -12.9,70.7 -29.5,104.9 -29.3,60.5 -75.9,108 -135.7,138.5 -30.9,15.7 -60.6,25.1 -96.9,30.6 -14.5,2.2 -58.6,2.7 -74,1 z m 87.8,-33.7 c 14.1,-1.8 32.5,-8.1 47.2,-16.1 26.2,-14.3 45.6,-32.9 63.1,-60.5 6.3,-10 6.5,-10.1 10.9,-10.8 11.3,-1.6 24.8,-7.2 34.2,-14.2 12.1,-8.8 27.5,-29.8 34.8,-47.5 8.7,-21 12.2,-41.9 12.4,-72.8 0.2,-45.4 -8.9,-77.8 -33.2,-117.9 -13.8,-23 -44.2,-57 -72.7,-81.6 l -7,-6 v -12.5 c 0,-14.5 -1.4,-19.6 -7.7,-29 -4.6,-7 -13.3,-13.6 -22.3,-17 -16.2,-6.3 -38.3,-0.5 -55.8,14.4 l -5.4,4.5 -9.4,-3.3 c -11.9,-4.3 -25.3,-7.2 -39.9,-8.7 -25.9,-2.6 -60.4,3.2 -83.5,14 l -8.1,3.8 -5.9,-9 c -12,-17.8 -25.9,-27.1 -44,-29.1 -16.9,-2 -35.6,6.8 -45.4,21.3 -6.2,9.2 -8.3,15.9 -8.9,29.2 -0.6,14 1.3,21.8 7.7,31.7 4.4,6.8 17.3,20.7 22.5,24.2 l 3.2,2.3 -2.7,5.1 c -7,12.9 -11.7,32.8 -12.6,52.7 -0.9,22.5 2.1,40.8 10.2,60.8 l 3.4,8.4 -3.1,4.5 c -11.1,16.1 -25.9,60.7 -27.3,82.2 -1.5,23 4.7,56.7 13.9,75 8.7,17.3 20.7,32.2 37.5,46.4 22.7,19.1 30.9,24.1 50.7,30.7 8.7,2.9 11.2,3.3 20.9,3.3 10.7,0.1 11.2,0 17.2,-3.3 10.2,-5.5 14.6,-12.9 14.6,-24.6 0,-9.2 -2.2,-16.9 -9,-31.8 -5.2,-11.2 -5.7,-12.9 -6.1,-20.7 -0.5,-11.4 2,-18.3 9.3,-25.6 5.9,-6 11.5,-8.2 23.1,-9.1 13,-1 23.5,2.9 32.2,12.1 8,8.4 10.4,14.6 10.4,26.2 -0.1,14.5 -2.4,18.7 -21.4,38.3 -12.5,13 -16.7,19.5 -17.5,27.5 -1,10 7.2,22.7 18.4,28.4 3.8,2 12.8,4.6 18.8,5.5 4,0.6 23.2,-0.2 32.3,-1.4 z"
       id="path15" />
  </g>
  <g
     id="layer3">
    <path
       class="st1"
       d="M 473.9,1004.4 C 326.1,995.2 194.1,925.3 104.3,808.9 31.4,714.3 -6.1,594.2 0.8,477 6.2,386.3 31.9,305.4 79.2,231 120.8,165.3 183.6,105.5 252.4,66 296.4,40.7 350.5,19.9 398.4,10 436.3,2.2 458,0.1 500.9,0 c 36.2,0 47,0.7 74.4,4.6 131.6,18.9 248.4,87.8 328.8,194 54.7,72.3 87.8,154.4 99,246 1.9,16.1 2.2,23.1 2.2,56.4 0,39.7 -0.7,50.3 -5.5,80.5 -21.9,137.8 -100.1,260 -216.4,338.3 -25.1,17 -62,36.6 -91,48.4 -68.5,28 -145.7,40.8 -218.5,36.2 z m 73,-17.9 c 46.3,-4.5 91,-15.2 133,-31.7 C 839.4,892 954.4,750.6 982.3,583 c 4.5,-27.2 5.8,-41 6.3,-71.5 0.6,-29.8 -0.3,-49 -3.3,-71.5 C 968.4,309.9 900.3,193.5 794,112.6 772.3,96 744.7,79.4 716.4,65.5 665.9,40.9 613.3,25.8 554.4,19 535.4,16.8 487.6,15.9 467.9,17.4 385.8,23.7 310.8,48.6 241.7,92.6 193,123.6 146.9,166.5 112.4,213 26.9,327.9 -3.3,478.5 31,618.5 59.7,735.9 133.7,840.6 235.4,908 c 69.5,46.1 150.1,73.1 236.5,79.4 14.9,1.1 60.2,0.6 75,-0.9 z"
       id="path18" />
    <path
       class="st1"
       d="M 468.5,967.4 C 355.1,958.1 253,911.4 174.6,833.1 86.1,744.8 36.9,627.1 36.9,503.6 36.9,349.2 110.5,207.7 236.6,119.7 356.7,35.9 508,13.7 648.4,59.2 717.7,81.6 780.7,120.3 832.1,171.9 944,284.1 991.2,440.4 960,595.3 935.5,716.6 862.9,823.6 758.7,891.9 696,932.9 629,957.1 552.9,966.1 c -16,1.8 -68.1,2.7 -84.4,1.3 z m 22.4,-40.8 c 0,-7.3 0.4,-12.2 1.1,-12.6 0.5,-0.4 5.7,-0.4 11.5,0 l 10.4,0.7 v 23.8 h 11 v -56 h -11 v 23.1 l -11.2,-0.3 -11.3,-0.3 -0.3,-11.2 -0.3,-11.3 h -10.9 v 56 h 11 z m -27.6,10.3 c 1.1,-0.4 1.6,-1.9 1.6,-4.8 V 928 h -7.3 c -13.5,-0.1 -20.7,-6.8 -20.7,-19.3 0,-16.4 13.2,-25.5 27.8,-19.2 2.9,1.3 5.4,2.1 5.6,1.9 0.2,-0.2 0.7,-2.3 1.1,-4.5 0.6,-4.1 0.6,-4.1 -3.7,-5.9 -2.4,-1 -7.5,-2 -11.4,-2.3 -18.9,-1.3 -30.2,9.2 -31.2,28.8 -0.6,12.2 2.8,19 12.3,24.6 6.5,3.8 21.4,6.5 25.9,4.8 z m 91.1,-1.5 c 0.4,-0.5 -0.6,-13.4 -2.1,-28.4 l -2.8,-27.5 -5.5,0.7 c -3.1,0.3 -5.7,0.6 -5.8,0.7 0,0.1 1.2,12.3 2.8,27.1 1.6,14.9 2.9,27.3 2.9,27.8 0,1.1 9.8,0.8 10.5,-0.4 z m 25.8,-3 c 2,-0.5 3.7,-1.3 3.7,-1.7 0,-0.4 -1.8,-9.2 -4.1,-19.5 -2.2,-10.4 -3.9,-19.1 -3.7,-19.3 0.3,-0.2 6.9,7.5 14.7,17.1 7.9,9.6 14.9,17.5 15.7,17.5 1.5,0 11.7,-2.1 12.2,-2.5 0.3,-0.3 -10.4,-51.4 -11.3,-54.1 -0.4,-1.4 -10.5,0.3 -10.5,1.7 0,0.5 1.8,9.3 4,19.6 2.2,10.3 3.9,19 3.8,19.4 -0.2,0.6 -22.3,-25.7 -28.3,-33.7 -0.8,-1.1 -2.1,-1.1 -7.5,0.2 -3.5,0.8 -6.6,1.6 -6.7,1.8 -0.4,0.3 10.3,50.7 11.2,53.4 0.5,1.5 1.9,1.5 6.8,0.1 z m 88.7,-26.2 c 0,-0.4 -0.7,-2.3 -1.4,-4.2 l -1.5,-3.5 -9.7,3.5 c -5.3,1.9 -10,3.5 -10.4,3.5 -0.7,0 -6.3,-14 -5.8,-14.5 0.2,-0.1 4.4,-1.7 9.4,-3.5 l 9.2,-3.2 -1.1,-3.5 c -0.6,-1.9 -1.6,-3.7 -2.2,-3.9 -0.6,-0.3 -4.9,0.9 -9.6,2.5 -4.6,1.7 -8.7,2.7 -9,2.3 -0.4,-0.4 -1.6,-3.3 -2.7,-6.4 l -2.1,-5.7 5.2,-1.9 c 2.9,-1 7.5,-2.7 10.3,-3.7 l 5.2,-1.8 -1.5,-4.3 -1.4,-4.3 -9.7,3.6 c -5.3,1.9 -12.3,4.4 -15.4,5.5 -3.2,1.1 -5.8,2.4 -5.8,3 0,0.8 13.8,39.4 17.8,49.9 l 1.1,2.7 15.5,-5.7 c 8.6,-3.1 15.6,-6 15.6,-6.4 z M 369.4,891.8 c 4.8,-13.1 8.3,-21.3 9.1,-21.3 0.8,0 4.3,1.1 7.8,2.4 l 6.5,2.5 1.4,-4.3 1.5,-4.3 -19.7,-7.1 c -10.8,-4 -20.1,-7.2 -20.6,-7.2 -0.9,0 -3.5,5.4 -3.5,7.2 0,0.3 3.3,1.8 7.4,3.3 l 7.5,2.7 -3.9,10.7 c -2.1,5.8 -5.6,15.6 -7.9,21.7 -2.3,6.1 -4.1,11.6 -4.1,12.1 0,1.2 9.2,4.3 10.1,3.4 0.4,-0.3 4.2,-10.2 8.4,-21.8 z m -43.6,3.9 1.9,-3.7 -9.4,-4.9 c -5.2,-2.7 -9.4,-5.3 -9.4,-5.7 0,-0.5 1.4,-3.8 3.2,-7.3 l 3.2,-6.4 8.9,4.4 c 4.9,2.5 9,4.4 9.2,4.2 0.5,-0.7 3.5,-6.7 3.5,-7.2 0,-0.3 -3.7,-2.4 -8.2,-4.7 -4.6,-2.3 -8.5,-4.3 -8.7,-4.5 -0.5,-0.4 5,-12.4 5.6,-12.4 0.2,0 4.4,2 9.3,4.5 4.9,2.5 9.4,4.5 10,4.5 1.1,0 4.7,-6.7 3.9,-7.4 -0.9,-0.8 -29.1,-14.7 -29.4,-14.4 -0.1,0.2 -5.9,11.4 -12.9,25 l -12.6,24.7 14.2,7.5 c 7.9,4.2 14.6,7.6 15,7.6 0.4,0 1.6,-1.7 2.7,-3.8 z m 371.7,-1.3 c 11.2,-5.4 16.1,-13.4 13.4,-22.2 -2.6,-8.8 -9.3,-12.1 -22.8,-11 -9.6,0.7 -12.2,-0.6 -12.2,-6.3 0,-4.2 4.1,-7.8 11,-9.4 5.4,-1.3 5.4,-1.1 2.9,-7.7 -0.8,-2.2 -0.9,-2.2 -6.1,-0.7 -17,5 -23.9,16.6 -16.8,28.2 3.6,5.9 7.1,7.2 19.2,7.2 8.3,0 11,0.3 12.2,1.6 2.5,2.4 2,7.1 -1.1,10 -2.5,2.3 -10.7,5.4 -14.4,5.4 -1.7,0 -1.7,0.2 -0.1,4.6 1.6,4.4 1.8,4.5 5.2,3.9 1.9,-0.3 6.3,-1.9 9.6,-3.6 z M 292.4,852.8 c 8.7,-12 15.8,-22.3 15.9,-22.9 0.1,-0.7 -3,-3.4 -6.8,-6.2 l -6.8,-5 -7.7,5.6 c -4.2,3.1 -12,8.9 -17.4,13 -5.4,4.1 -10,7.2 -10.3,7 -0.2,-0.3 2.7,-9.7 6.5,-21 l 6.9,-20.6 -6.5,-4.7 c -3.6,-2.5 -7,-4.8 -7.7,-5 -0.8,-0.3 -28.7,37.1 -32.8,44 -0.5,0.8 0.9,2.4 3.6,4.3 l 4.3,3.1 12.9,-17.9 c 7.1,-9.8 13.1,-17.7 13.3,-17.5 0.3,0.4 -12.6,42 -13.5,43.7 -0.4,0.6 7.4,6.8 8.5,6.8 0.4,0 8.9,-6.1 19,-13.5 10.2,-7.4 18.7,-13.3 18.9,-13.1 0.2,0.2 -5.3,8.2 -12.2,17.8 -6.9,9.6 -12.6,17.8 -12.6,18.1 0,0.7 7.1,5.7 8.1,5.7 0.4,0 7.7,-9.8 16.4,-21.7 z m 453.7,12.6 13.7,-9.1 -2.2,-3.4 c -1.2,-1.9 -2.6,-3.4 -3,-3.4 -0.4,0 -4.7,2.7 -9.5,5.9 l -8.8,5.9 -3.9,-6.1 c -2.2,-3.3 -4.1,-6.3 -4.3,-6.7 -0.1,-0.4 3.3,-3.1 7.8,-6 4.4,-2.9 8,-5.6 8,-5.9 0,-0.4 -1,-2.1 -2.3,-3.9 l -2.3,-3.1 -8.3,5.5 c -4.6,3.1 -8.4,5.4 -8.5,5.2 -0.6,-0.8 -6.3,-9.4 -6.9,-10.4 -0.6,-1 3.6,-4.1 16.6,-12.5 0.8,-0.6 -0.1,-2.5 -3.9,-7.7 -0.5,-0.7 -27.5,18 -27.2,18.7 0.6,1.6 30.3,46.1 30.8,46.1 0.2,0 6.6,-4.1 14.2,-9.1 z M 533.9,845.5 C 662.7,834 774.1,752.2 823,633.3 c 3.8,-9.4 13.9,-38.5 13.9,-40.3 0,-0.5 -6.2,-2.5 -8,-2.5 -1.2,0 -2.5,2.6 -4.9,10.8 -29.3,97.3 -105.7,178.2 -202.3,214.1 -23.8,8.9 -43.7,14 -71.3,18.3 -16.6,2.6 -58.6,3.6 -77.2,1.9 -79.7,-7.3 -151.3,-40.7 -206.9,-96.6 -38.1,-38.4 -66.9,-85.9 -83,-137 -2.1,-6.6 -3.8,-12.1 -4,-12.3 -0.1,-0.2 -2.2,0.2 -4.8,0.9 -4.1,1 -4.6,1.4 -4,3.3 15,49.9 34.2,87.1 64.7,125.1 51.1,63.8 123.9,107.3 204.2,122 7.2,1.3 18,2.8 24,3.4 6.1,0.6 12.4,1.3 14,1.5 7.1,0.8 46,0.5 56.5,-0.4 z M 219.3,814.6 c 2.9,-7 4.6,-12.5 4.4,-14.1 l -0.4,-2.6 3.8,1.3 c 8.9,3 17.8,-3.7 17.8,-13.5 0,-5 -3.6,-10.5 -13.5,-20.2 l -7.5,-7.5 -20,20 -20,20 4,4 4,4 8.3,-8.3 8.4,-8.4 2.6,3.2 c 1.5,1.7 2.7,3.7 2.7,4.4 0,0.8 -2.1,6 -4.6,11.6 l -4.5,10.3 4.2,4.3 c 2.4,2.4 4.6,4.1 5,3.6 0.3,-0.4 2.7,-5.8 5.3,-12.1 z m 580.8,-8.4 c -4.5,-4.5 -8.2,-8.7 -8.2,-9.2 0,-0.5 2.9,-3.9 6.5,-7.5 l 6.5,-6.6 -3,-2.9 -3,-2.9 -7,6.9 c -3.8,3.8 -7.1,6.7 -7.2,6.4 -0.2,-0.2 -2.3,-2.6 -4.8,-5.2 l -4.4,-4.7 6.9,-7 7,-7 -3.3,-3.2 -3.2,-3.3 -11.2,11.2 -11.1,11.1 19.8,20.1 19.9,20.2 4,-4.1 4.1,-4 z m -255.2,-2.1 c 36.3,-5.5 66,-14.9 96.9,-30.6 59.8,-30.5 106.4,-78 135.7,-138.5 16.6,-34.2 25.6,-66.3 29.5,-104.9 1.7,-17.2 0.6,-55.3 -2,-72.6 -8.3,-53.8 -29.9,-103.2 -63.9,-146 -10.2,-12.8 -34.3,-36.8 -47.2,-47 -97.6,-77.3 -230.8,-88.3 -338.7,-27.9 -38.5,21.5 -73.9,53.2 -99.2,88.7 -50.3,70.6 -68.2,158.6 -49.4,243.2 19.5,88.3 78.1,163.9 159.1,205.1 33.3,16.9 66.9,27 105.2,31.5 15.4,1.7 59.5,1.2 74,-1 z m 294.8,-26.2 c 9.3,-4.6 16.1,-15.4 16.2,-25.4 0,-7.6 -3.3,-14.3 -10.3,-20.7 -13.2,-12 -29.3,-12.2 -39.9,-0.5 -11.8,13.1 -11.6,27.5 0.8,39.2 10.7,10.1 22.5,12.7 33.2,7.4 z m -658.5,-2.3 c 2.8,-1.1 34.7,-24.8 34.7,-25.8 0,-1.3 -5.3,-8.3 -6.2,-8.3 -0.5,0 -7.2,4.7 -14.8,10.5 -15.2,11.6 -19.7,14 -24.5,13.1 -6.1,-1.2 -10.4,-8.4 -8.5,-14.2 1.3,-4 4.8,-7.1 21.2,-19.3 l 12.6,-9.4 -3.1,-4.3 c -1.8,-2.4 -3.8,-4.1 -4.4,-3.9 -0.7,0.2 -8.4,5.8 -17,12.3 -17.5,13.2 -20.3,16.6 -20.3,24.6 0,7.8 7.5,19.7 14.8,23.6 4,2 11.5,2.6 15.5,1.1 z m 694.5,-52.7 c 12.8,-6.4 19.6,-25 13.5,-36.9 -5.8,-11.3 -22.2,-19.7 -34,-17.6 -16.2,3 -27.6,24.5 -20.5,38.6 3.9,7.7 8.9,11.9 18.9,16.1 8,3.2 15.3,3.2 22.1,-0.2 z m -718.3,-2.4 c 6.3,-3.1 13,-9.2 15.8,-14.5 3.1,-5.9 3,-15.3 -0.4,-22.5 -3.6,-7.7 -7.1,-11.5 -13.5,-14.6 -4.7,-2.3 -6.3,-2.6 -12.2,-2.2 -12,0.9 -25.1,9.7 -28.8,19.4 -2.2,5.8 -1.6,15.4 1.4,21.5 2.9,5.9 8.4,11.6 13.6,14.1 5.9,2.7 17.3,2.1 24.1,-1.2 z m 750,-52.7 c 6.3,-15.6 8.6,-28.4 6.5,-36.3 -2.7,-10 -15.7,-18.2 -29,-18.4 -13.8,-0.1 -21.5,8 -29,30.7 -1.2,3.8 -2,7 -1.8,7.2 0.5,0.5 50.9,18.4 51.9,18.4 0.4,0.1 1,-0.7 1.4,-1.6 z M 131.1,659 c 1.5,-0.6 1.3,-1.7 -2,-10.8 -1.9,-5.6 -3.7,-10.4 -3.9,-10.6 -0.3,-0.4 -8.3,1.8 -8.3,2.3 0,0.2 0.9,2.8 1.9,5.8 l 1.9,5.6 -7,2.2 c -8,2.5 -7.9,2.6 -10.3,-5.6 -2.8,-9.4 1.4,-18.2 11,-22.5 5,-2.3 13.6,-2.4 18.2,-0.3 6.3,3.1 11,11.6 11.5,21.4 0.2,2.8 0.8,5 1.3,5 1.7,0 8.5,-2.1 8.5,-2.6 0,-0.3 -0.7,-3.9 -1.6,-8.1 -4.8,-23.3 -19.5,-33.6 -39.1,-27.5 -10.6,3.3 -18.4,10.7 -19.9,18.9 -1.7,8.9 1.5,22 7.6,31.6 l 2.9,4.6 12.8,-4.4 c 7,-2.4 13.6,-4.6 14.5,-5 z m 761.8,-105.1 5.9,-3.6 -3.7,-5.9 c -2,-3.2 -4.1,-5.9 -4.5,-5.9 -1.4,0 -11.6,6.4 -11.7,7.3 0,1.1 6.8,11.7 7.6,11.7 0.3,0 3.2,-1.6 6.4,-3.6 z m -767.1,-3.3 c 2.2,-3.3 4.1,-6.1 4.1,-6.4 0,-0.6 -10.8,-7.7 -11.8,-7.7 -0.5,0 -2.6,2.6 -4.7,5.7 l -3.8,5.7 2.4,1.5 c 1.2,0.9 3.9,2.8 5.8,4.3 2,1.5 3.6,2.7 3.7,2.7 0.1,0.1 2,-2.6 4.3,-5.8 z m 754.7,-58.2 c 5.9,-2.2 12.4,-8.5 14.9,-14.6 0.9,-2.1 2.5,-7.6 3.7,-12.3 3.2,-13.4 5.2,-16 12.1,-16 4,0 6.3,2.2 8.3,7.7 1.8,5 1.8,15.8 0,21.8 l -1.5,4.8 10.6,-0.6 c 6.8,-0.4 10.9,-1.1 11.4,-1.9 0.4,-0.6 1.1,-4.4 1.4,-8.4 1.9,-20 -5.4,-38.1 -18,-44.7 -5.8,-3 -18.4,-3.5 -26.2,-1.1 -11.3,3.5 -16.5,10.6 -21.3,29 -2.6,9.9 -5.8,14.2 -11.2,15.1 -4.6,0.7 -8,-1.3 -10.4,-6 -2.5,-4.7 -2.3,-18.5 0.3,-26 l 2,-5.8 -11.6,0.3 -11.5,0.3 -0.8,3.5 c -1.4,6.3 -1,25.1 0.7,31.3 3.9,14.8 11.7,23.2 23.8,25.7 5.9,1.2 17.1,0.2 23.3,-2.1 z M 174.8,477.5 c 0.6,-4.7 1.1,-9.7 1.1,-11.1 v -2.6 l -18.1,-2.3 c -17.1,-2.3 -18,-2.5 -17.5,-4.5 2.8,-11.8 1.1,-25.1 -4.4,-33 -9.1,-13.3 -35.1,-17.7 -49,-8.3 -4.4,3 -9.2,10.2 -11.3,17 -2.1,6.6 -6.9,39.1 -5.9,39.9 0.4,0.3 16.7,2.7 36.2,5.3 19.5,2.7 42.5,5.8 51,7 8.5,1.2 15.8,2 16.1,1.7 0.3,-0.3 1.1,-4.4 1.8,-9.1 z m 8.4,-59.4 c 2,-5.4 3.5,-10.1 3.2,-10.5 -0.2,-0.4 -4.2,-3.7 -8.9,-7.2 -4.7,-3.5 -8.6,-6.9 -8.6,-7.5 0,-0.6 2.4,-7.6 5.4,-15.5 l 5.4,-14.4 8.4,0.5 c 4.5,0.2 9.9,0.4 11.8,0.5 h 3.5 l 4.3,-11.4 c 2.3,-6.3 4.1,-11.6 3.9,-11.8 -0.5,-0.4 -97.3,-5.3 -105.2,-5.3 h -5 l -4.8,13.1 c -2.7,7.2 -4.5,13.5 -4,13.9 5.2,5 85.8,66.8 86.3,66.3 0.4,-0.5 2.3,-5.2 4.3,-10.7 z m 674.4,-6.4 c 10.2,-3.2 17.2,-8.9 20.4,-16.7 0.7,-1.7 1.5,-9.1 1.9,-16.6 1,-17.7 2.5,-20.9 10.2,-20.9 6.5,0 12.8,11.6 13.1,24.2 0.1,3.9 0.6,6.8 1.2,6.8 0.9,0 12.1,-2.9 17.8,-4.6 2.3,-0.7 2.3,-6.9 -0.2,-16.6 -3.7,-14.3 -10.8,-25.2 -20,-30.6 -4,-2.4 -5.7,-2.7 -13.1,-2.7 -7.2,0 -9.4,0.4 -14.5,2.8 -8.6,4.1 -12,7 -15,13.1 -2.3,4.7 -2.8,7.4 -3.5,19 -0.5,7.4 -1.3,14.3 -1.8,15.3 -1.8,3.4 -5,5.5 -9.1,6 -3.6,0.5 -4.4,0.2 -7.1,-2.7 -4.5,-4.8 -7.3,-15.1 -6.9,-24.9 0.4,-7.4 0.3,-7.8 -1.6,-7.3 -6.9,1.6 -19.8,5.2 -20.2,5.6 -0.9,0.9 2,17.5 4.3,24.6 4.9,14.5 11.6,22.7 21.9,26.7 4.6,1.8 15.6,1.5 22.2,-0.5 z m -47.7,-67.3 c 5,-3.2 7.7,-5.5 7.3,-6.2 -0.4,-0.7 -5.1,-8.1 -10.5,-16.5 -5.4,-8.5 -9.6,-15.7 -9.3,-16.1 1,-1.7 18.5,-12.2 19.4,-11.7 0.5,0.3 5,7.1 10.1,15 l 9.1,14.5 5.7,-3.6 c 3.1,-2 6.9,-4.5 8.4,-5.5 l 2.7,-1.9 -9,-13.9 c -4.9,-7.6 -9.2,-14.6 -9.5,-15.3 -0.3,-1 1.8,-2.9 6.3,-5.7 3.7,-2.4 7.8,-4.9 8.9,-5.7 2.1,-1.3 2.6,-0.8 12.4,14.6 11.6,18.1 9.4,17 20.4,9.9 3.3,-2.1 6.1,-4.3 6.1,-4.7 0,-1.2 -31.9,-51 -32.7,-51.1 -0.5,0 -87.3,55.3 -88.4,56.4 -0.1,0 4.7,7.8 10.8,17.1 6,9.4 13.6,21.2 16.9,26.3 3.2,5 6.1,9.2 6.4,9.2 0.2,0 4,-2.3 8.5,-5.1 z M 224.5,324.1 c 5,-6.7 5.6,-8 4.3,-9 -0.8,-0.6 -13.3,-9.9 -27.7,-20.6 -14.4,-10.6 -26.2,-19.7 -26.2,-20.1 0,-0.4 16.5,3.5 36.8,8.7 28.8,7.3 36.9,9.1 37.7,8.1 6.2,-7.8 16.6,-21.9 16.3,-22.1 -0.1,-0.2 -18.5,-14.2 -40.8,-31.1 -22.3,-16.9 -41,-31.1 -41.6,-31.6 -0.8,-0.6 -3,1.6 -6.8,6.6 -3.1,4.2 -5.9,8.1 -6.2,8.8 -0.2,0.7 10.9,9.6 27,21.7 24.7,18.4 30.8,23.4 26.1,21.6 -2.9,-1.1 -69.7,-18.6 -71.1,-18.6 -1.3,0 -19.1,22.7 -18.3,23.4 3.4,3.4 83.6,63.3 84,62.8 0.3,-0.4 3.2,-4.2 6.5,-8.6 z m 548.3,-57.5 c 8.6,-17.2 10.4,-21.8 10.4,-25.5 0,-4.2 0.2,-4.4 2.1,-3.4 3.4,1.9 12,1.3 17,-1.1 5.8,-2.9 12.8,-9.6 15.7,-15.2 1.7,-3.3 2.3,-6.1 2.3,-10.9 0.1,-10.1 -2.7,-14.2 -22.7,-33.1 l -16.9,-16.2 -3.3,3.4 c -1.8,1.9 -18.2,19.1 -36.3,38.2 l -33,34.9 8,7.6 c 4.4,4.3 8.3,7.8 8.7,7.9 0.3,0.1 6.9,-6.5 14.6,-14.7 l 14,-15 3.8,4 c 6.1,6.4 5.2,10.6 -6.7,32.5 l -6.5,12 8.7,8.1 c 4.8,4.5 8.9,8 9.2,7.9 0.3,-0.2 5.2,-9.8 10.9,-21.4 z M 299.4,242 c 19.7,-14.5 27.2,-25.3 28.2,-40.3 0.5,-6.6 0.1,-8.9 -2.1,-15.7 -5.6,-16.5 -20.4,-35.1 -33.3,-41.6 -12.2,-6.2 -27.6,-4.9 -41.4,3.4 -6.3,3.8 -33.9,23.7 -33.9,24.4 0,0.3 13.8,19.6 30.7,42.8 l 30.7,42.4 5.1,-3.7 c 2.7,-2 10,-7.3 16,-11.7 z M 675,196 c 5,-8.6 9.4,-15.5 9.8,-15.3 0.3,0.2 4.5,2.3 9.2,4.7 10.6,5.3 18.6,6.4 26.8,3.6 7.2,-2.4 14.9,-9.7 19.6,-18.7 3.3,-6.1 3.9,-8.5 4.3,-15 0.4,-6.9 0.2,-8.4 -2.2,-13.2 -3.7,-7.6 -10.8,-13.6 -28.1,-23.9 -12,-7.1 -15.1,-8.6 -16,-7.5 -2.4,2.6 -52.6,89 -52,89.6 0.9,0.9 17.9,11 18.7,11.1 0.4,0.1 4.8,-6.9 9.9,-15.4 z m -308.7,4 c 1.7,-0.7 1.8,-1.7 1.1,-12.5 l -0.7,-11.7 15.3,-5.6 c 8.4,-3.2 15.6,-5.4 16,-5 0.4,0.5 3.6,4.7 7.1,9.4 l 6.3,8.7 11.5,-4.3 c 6.8,-2.5 11.4,-4.7 11.2,-5.5 -0.2,-0.9 -63,-81.9 -66.2,-85.3 -0.4,-0.5 -6.7,1.3 -13.9,3.9 l -13.1,4.8 v 6.1 c 0,3.3 1.1,27.8 2.5,54.5 1.4,26.7 2.5,48.8 2.5,49.2 0,0.6 11.8,-3.3 20.4,-6.7 z m 266.2,-34.8 c -3.1,-15.7 -5.6,-29.1 -5.6,-29.9 0,-0.9 8.3,-10.5 18.5,-21.4 10.2,-11 18.5,-20.2 18.5,-20.5 0,-0.9 -22.9,-7.1 -24,-6.4 -0.5,0.3 -6,6.7 -12.2,14.3 -8.7,10.4 -11.4,13.2 -11.7,11.7 -0.2,-1.1 -1.3,-9.4 -2.5,-18.5 L 611.4,78 598.9,74.4 c -6.9,-1.9 -12.7,-3.2 -12.8,-2.7 -0.2,0.4 2,12.8 4.8,27.4 l 5.2,26.6 -4.4,4.7 c -3.9,4.1 -27.4,29.4 -35.1,37.7 l -2.8,3.1 12.8,3.6 c 7,2 12.9,3.3 13.3,2.8 0.3,-0.4 6.1,-7.7 12.9,-16 9.9,-12.1 12.6,-14.9 13.2,-13.4 0.3,1 1.6,9.9 2.9,19.8 1.2,9.9 2.7,18.4 3.1,19 1.3,1.3 25.3,8.2 25.7,7.3 0.2,-0.4 -2.2,-13.5 -5.2,-29.1 z m -86.6,-3.7 v -10 h -7.3 c -4.1,0 -12.9,-0.3 -19.6,-0.7 l -12.2,-0.6 0.3,-11.6 0.3,-11.6 18.3,0.4 18.2,0.4 V 107.5 H 532 c -6.5,0 -14.6,-0.3 -18,-0.6 l -6.1,-0.7 V 85.4 l 19.3,0.2 19.2,0.1 0.3,-9.5 0.3,-9.5 -5.3,-0.6 C 538.8,65.8 525.1,65.3 511.2,65 l -25.1,-0.5 -0.6,9.2 c -1,16.5 -2.7,95 -2.1,95.7 0.6,0.5 22.6,1.3 52.8,1.9 l 9.7,0.2 z"
       id="path20" />
    <path
       class="st1"
       d="m 219,786.8 -4.2,-3.8 5.4,-5.3 5.4,-5.4 3.6,3.8 c 4.6,4.9 5.4,8 2.9,11.3 -3.1,4.3 -7.9,4 -13.1,-0.6 z M 453.1,603 c -11.7,-2.6 -17.2,-4.5 -28,-10.1 -12.4,-6.3 -22.4,-14.4 -42.8,-34.8 -38.5,-38.7 -53.6,-73 -52,-118.1 1.1,-30.9 8.4,-51.9 26.9,-76.7 12,-16.1 20.7,-25.5 31.7,-34.5 29,-23.4 57.4,-34.1 98,-36.9 11,-0.7 28.4,0.8 41.9,3.7 9.2,2 25.8,7.4 27.4,8.8 0.4,0.4 -0.5,2.3 -1.9,4.2 -4.5,5.9 -8.4,15.1 -8.4,19.7 0,19.2 28.7,51 53.7,59.3 8.6,2.8 18.8,2.4 23.3,-1 1.7,-1.2 3.7,-2 4.4,-1.8 2.6,1 13,40.6 14.2,54.2 1.3,14.7 -3.1,34.3 -12,53 -14.6,30.7 -33.4,50.5 -73.2,77.3 -10.2,6.8 -29.9,16.6 -50.4,25 -10.7,4.4 -21.3,8.5 -23.5,9.1 -5.4,1.5 -21.6,1.2 -29.3,-0.4 z m 8.8,-19.6 c 0.6,-1.1 0.8,-3.3 0.5,-4.9 -1.1,-5.2 0.5,-6.5 8.2,-6.6 9,-0.1 12.7,-1.8 13.1,-6.3 0.2,-1.8 -0.1,-3.8 -0.7,-4.4 -0.7,-0.7 -7.1,-1.1 -16.8,-1.2 -13.9,-0.1 -17.2,-0.4 -27,-2.9 -9.2,-2.4 -11.5,-2.7 -12.8,-1.6 -4,3.3 0.4,9.4 8.4,11.5 6.1,1.6 7.9,3 13.4,10.5 2.2,3 4.7,6.1 5.5,6.8 2.5,1.9 7,1.5 8.2,-0.9 z m 74.2,-52.5 c 6.4,-3.3 15.1,-19 17.5,-31.6 1.9,-10.5 1.3,-17.1 -2.5,-25.3 -11.9,-25.2 -35.9,-41.4 -49.9,-33.5 -8,4.4 -13.6,16.6 -13.7,29.5 0,9.4 1.4,13.2 9.8,25.8 3,4.5 7.9,13.4 10.9,19.7 3.1,6.3 6.7,12.6 8.1,13.9 4.4,4.1 13.4,4.8 19.8,1.5 z m -132.9,-9.2 c 1.1,-0.9 3.5,-4.8 5.4,-8.7 1.9,-3.8 6.8,-12.1 11,-18.4 8.1,-12.1 11.3,-19.1 11.3,-24.4 0,-4.5 -4.7,-21.2 -7.6,-26.9 -3,-5.9 -5.7,-7.8 -11.3,-7.8 -6.3,0 -12.2,3.2 -18.5,10.2 -9.9,10.9 -16.1,26.1 -17.3,41.8 -0.7,10.6 0.9,16.9 6.7,25.7 6.7,10.2 14.7,13.6 20.3,8.5 z"
       id="path22" />
    <path
       class="st1"
       d="m 516.2,495.5 c -3.2,-1.3 -5.6,-5.5 -4.9,-8.5 1.6,-6.2 8.7,-8.5 13.1,-4 3.9,3.8 2.7,10.2 -2.2,12.4 -2.8,1.3 -3,1.3 -6,0.1 z m -119,-4.2 c -3.3,-1.6 -4.8,-6.1 -3.3,-9.7 2.4,-6 11.2,-6.3 13.9,-0.5 1.7,3.8 1.4,5.3 -1.8,8.5 -3.1,3 -5.2,3.5 -8.8,1.7 z m 309,65.2 c -1.8,-0.7 -2.2,-1.9 -2.7,-8.2 -2.1,-28.1 -3,-37 -5.3,-50.3 -7.4,-44.8 -19,-72.2 -43.9,-104 -3.4,-4.4 -8.7,-10.5 -11.8,-13.5 -3.1,-3 -5.6,-5.9 -5.6,-6.5 0,-0.7 1.8,-5.2 3.9,-10.2 2.2,-5 4.5,-11 5.2,-13.4 0.7,-2.4 1.6,-4.8 2,-5.3 1.6,-1.8 34.3,29.1 51.6,48.7 17.2,19.5 26.4,32.8 38.6,55.7 10.1,19 18.4,44.4 20.8,63.9 l 1.3,9.9 -3.5,6.8 c -6.6,13.2 -17.8,22.3 -31.4,25.9 -6.4,1.6 -15.7,1.9 -19.2,0.5 z m 117.2,211.6 c -10.8,-4.9 -17.8,-15.5 -15.5,-23.7 1.4,-5 6.8,-9.9 11.8,-10.6 10.9,-1.5 24.8,9.2 25.9,19.9 1.1,11.4 -11.1,19.4 -22.2,14.4 z m 35.7,-55.4 c -10.5,-3.8 -18,-12.8 -16.7,-20.2 2.6,-14.2 18,-17.2 32.2,-6.4 7.1,5.4 9.1,15.1 4.6,21.3 -5,6.6 -11.5,8.3 -20.1,5.3 z m -724.5,-1.6 c -3.9,-2.2 -6.5,-5.4 -7.8,-10 -2.7,-9.8 7.6,-20.8 21.9,-23.1 5.9,-1 12.1,2.1 15.1,7.6 4.7,8.2 0.9,17.1 -9.7,23.1 -6.4,3.7 -15.2,4.7 -19.5,2.4 z m 755.3,-59.2 c -5.2,-1.9 -12.8,-4.6 -16.7,-6 -4,-1.4 -7.3,-3 -7.3,-3.6 0,-2.5 5.4,-12 7.8,-13.7 10,-7.1 26,-2.7 30.1,8.2 2.3,6.1 0.4,18.8 -2.8,18.6 -0.9,0 -5.9,-1.6 -11.1,-3.5 z M 105.5,454.4 c -7.1,-1.1 -13.1,-2.1 -13.4,-2.3 -0.9,-1 2.1,-11.7 3.9,-14 4.9,-6.2 18.9,-5.1 23.4,1.8 1.8,2.7 1.8,15.8 0,16.1 -0.5,0.2 -6.8,-0.6 -13.9,-1.6 z m 29.2,-85.2 c -9.2,-6.6 -16.6,-12.3 -16.3,-12.5 0.4,-0.4 39.8,3.8 40.3,4.3 0.3,0.3 -6.6,19.7 -7.1,20.1 -0.1,0.1 -7.7,-5.3 -16.9,-11.9 z M 778.4,218.5 c -1.6,-1 -4.7,-3.4 -6.9,-5.3 -4.7,-4.1 -4.6,-4.4 5.3,-14.2 l 7.1,-6.9 3.1,2.9 c 5,4.7 8.9,10.6 8.9,13.4 0,5.7 -6.5,12.1 -12.2,12.1 -1.3,0 -3.6,-0.9 -5.3,-2 z M 266,200.8 l -18.4,-25.5 2.9,-2.4 c 1.6,-1.3 5.6,-3.7 8.8,-5.4 7.2,-3.7 14.8,-4 21.5,-1 5.9,2.7 14.9,12.3 18.9,20 6,11.9 5.3,21.7 -2.1,29.7 -3.5,3.8 -11.8,10.4 -12.9,10.2 -0.2,0 -8.6,-11.5 -18.7,-25.6 z m 433.7,-34.9 c -2.7,-1.3 -4.8,-2.7 -4.8,-3.1 0,-1 13,-23.2 13.9,-23.8 1.4,-0.8 10,5.3 11.5,8.4 2.1,4 2,7.4 -0.4,12 -4.5,9 -11.3,11.2 -20.2,6.5 z M 364.5,150.1 c -0.3,-2.8 -1,-10.9 -1.6,-18.1 -0.6,-7.1 -1.2,-14.3 -1.5,-16 l -0.5,-3 2.4,2.9 c 3.9,4.7 22,31.6 21.5,31.9 -0.2,0.2 -4.7,1.9 -10.1,3.9 l -9.6,3.5 z"
       id="path24" />
  </g>
</svg>
