<?xml version="1.0" encoding="UTF-8" standalone="no"?>
<svg
   viewBox="0 0 24 24"
   width="24pt"
   height="24pt"
   version="1.1"
   id="svg4"
   sodipodi:docname="popeyes.svg"
   xml:space="preserve"
   inkscape:version="1.2.2 (732a01da63, 2022-12-09)"
   xmlns:inkscape="http://www.inkscape.org/namespaces/inkscape"
   xmlns:sodipodi="http://sodipodi.sourceforge.net/DTD/sodipodi-0.dtd"
   xmlns="http://www.w3.org/2000/svg"
   xmlns:svg="http://www.w3.org/2000/svg"><defs
     id="defs8"><clipPath
       id="clipPath7274"
       clipPathUnits="userSpaceOnUse"><path
         inkscape:connector-curvature="0"
         id="path7272"
         d="m 1016,321.24 h 171.36 V 460.56 H 1016 Z" /></clipPath><clipPath
       id="clipPath7254"
       clipPathUnits="userSpaceOnUse"><path
         inkscape:connector-curvature="0"
         id="path7252"
         d="m 1036.814,332.31 h 105.132 v 116.93 h -105.132 z" /></clipPath><clipPath
       id="clipPath7090"
       clipPathUnits="userSpaceOnUse"><path
         inkscape:connector-curvature="0"
         id="path7088"
         d="m 1016,321.24 h 171.36 V 460.56 H 1016 Z" /></clipPath></defs><sodipodi:namedview
     id="namedview6"
     pagecolor="#ffffff"
     bordercolor="#000000"
     borderopacity="0.25"
     inkscape:showpageshadow="2"
     inkscape:pageopacity="0.0"
     inkscape:pagecheckerboard="0"
     inkscape:deskcolor="#d1d1d1"
     inkscape:document-units="pt"
     showgrid="false"
     inkscape:zoom="26.03125"
     inkscape:cx="16.268908"
     inkscape:cy="14.693878"
     inkscape:window-width="1920"
     inkscape:window-height="991"
     inkscape:window-x="334"
     inkscape:window-y="1431"
     inkscape:window-maximized="1"
     inkscape:current-layer="svg4" /><g
     id="g8892"
     transform="matrix(0.52078001,0,0,0.52078001,-49.109297,-74.736076)"><g
       transform="matrix(0.35277777,0,0,-0.35277777,-267.1363,304.83277)"
       id="g7084"><g
         clip-path="url(#clipPath7090)"
         id="g7086"><g
           transform="matrix(0.3327281,0,0,-0.3294526,980,2720.28)"
           id="g7092"><g
             transform="translate(328.1757,7133.7778)"
             id="g7094"><path
               inkscape:connector-curvature="0"
               id="path7096"
               style="fill:#ffffff;fill-opacity:1;fill-rule:nonzero;stroke:none"
               d="m 0,0 c 55.443,0 100.388,-44.947 100.388,-100.384 0,-55.442 -44.945,-100.389 -100.388,-100.389 -55.441,0 -100.385,44.947 -100.385,100.389 C -100.385,-44.947 -55.441,0 0,0" /></g></g><g
           transform="matrix(0.3327281,0,0,-0.3294526,980,2720.28)"
           id="g7098"><g
             transform="translate(193.0277,7032.3379)"
             id="g7100"><path
               inkscape:connector-curvature="0"
               id="path7102"
               style="fill:#c41230;fill-opacity:1;fill-rule:nonzero;stroke:none"
               d="M 0,0 C 0,75.089 61.087,136.181 136.176,136.181 211.27,136.181 272.354,75.089 272.354,0 272.354,-75.086 211.27,-136.174 136.176,-136.174 61.087,-136.174 0,-75.086 0,0 m 47.035,0 c 0,-49.155 39.989,-89.138 89.141,-89.138 49.158,0 89.146,39.983 89.146,89.138 0,49.157 -39.988,89.145 -89.146,89.145 C 87.024,89.145 47.035,49.157 47.035,0" /></g></g><g
           transform="matrix(0.3327281,0,0,-0.3294526,980,2720.28)"
           id="g7104"><g
             transform="translate(329.2037,6893.373)"
             id="g7106"><path
               inkscape:connector-curvature="0"
               id="path7108"
               style="fill:#ffffff;fill-opacity:1;fill-rule:nonzero;stroke:none"
               d="m 0,0 c -18.758,0 -36.956,3.676 -54.091,10.924 -8.239,3.482 -16.178,7.794 -23.605,12.815 -7.362,4.97 -14.28,10.677 -20.567,16.965 -6.283,6.285 -11.995,13.205 -16.964,20.56 -5.018,7.429 -9.333,15.374 -12.814,23.613 -7.25,17.134 -10.926,35.333 -10.926,54.091 0,18.751 3.676,36.959 10.926,54.097 3.481,8.229 7.796,16.172 12.814,23.606 4.969,7.353 10.681,14.269 16.964,20.558 6.287,6.288 13.205,11.999 20.567,16.969 7.427,5.014 15.366,9.33 23.605,12.813 17.135,7.244 35.333,10.926 54.091,10.926 18.76,0 36.958,-3.682 54.094,-10.926 8.232,-3.483 16.184,-7.799 23.609,-12.813 7.355,-4.97 14.277,-10.681 20.56,-16.969 6.292,-6.283 11.997,-13.205 16.967,-20.558 5.021,-7.434 9.332,-15.377 12.814,-23.606 7.247,-17.138 10.925,-35.346 10.925,-54.097 0,-18.758 -3.678,-36.957 -10.925,-54.091 C 124.562,76.638 120.251,68.693 115.23,61.264 110.26,53.909 104.555,46.989 98.263,40.704 91.98,34.416 85.058,28.709 77.703,23.739 70.278,18.718 62.326,14.406 54.098,10.924 36.958,3.676 18.76,0 0,0 M -133.387,138.968 C -133.387,65.302 -73.665,5.579 0,5.579 c 73.673,0 133.388,59.723 133.388,133.389 0,73.674 -59.715,133.386 -133.388,133.386 -73.665,0 -133.387,-59.712 -133.387,-133.386 M 0,47.035 c -50.771,0 -91.927,41.155 -91.927,91.933 0,50.771 41.156,91.931 91.927,91.931 50.777,0 91.933,-41.16 91.933,-91.931 C 91.933,88.19 50.777,47.035 0,47.035 m 0,178.292 c -11.66,0 -22.966,-2.285 -33.612,-6.791 -10.285,-4.346 -19.519,-10.574 -27.448,-18.508 -7.935,-7.933 -14.159,-17.168 -18.51,-27.447 -4.504,-10.647 -6.782,-21.952 -6.782,-33.613 0,-11.66 2.278,-22.972 6.782,-33.614 4.351,-10.284 10.575,-19.518 18.51,-27.448 7.929,-7.934 17.163,-14.163 27.448,-18.509 C -22.966,54.893 -11.66,52.61 0,52.61 c 11.661,0 22.972,2.283 33.614,6.787 10.284,4.346 19.519,10.575 27.456,18.509 7.927,7.93 14.154,17.164 18.507,27.448 4.498,10.642 6.784,21.954 6.784,33.614 0,11.661 -2.286,22.966 -6.784,33.613 -4.353,10.279 -10.58,19.514 -18.507,27.447 -7.937,7.934 -17.172,14.162 -27.456,18.508 -10.642,4.506 -21.953,6.791 -33.614,6.791" /></g></g><g
           transform="matrix(0.3327281,0,0,-0.3294526,980,2720.28)"
           id="g7110"><g
             transform="translate(231.0276,7014.0439)"
             id="g7112"><path
               inkscape:connector-curvature="0"
               id="path7114"
               style="fill:#ffffff;fill-opacity:1;fill-rule:nonzero;stroke:none"
               d="m 0,0 -3.852,-1.295 0.731,-2.177 c 0.407,-1.203 -0.014,-1.944 -1.224,-2.345 l -14.499,-4.874 c -1.207,-0.402 -1.958,-0.054 -2.36,1.148 l -0.731,2.18 -3.854,-1.298 5.803,-17.279 3.854,1.294 -0.889,2.644 c -0.405,1.205 -0.016,1.932 1.193,2.335 l 14.499,4.876 c 1.639,0.548 1.91,0.303 2.574,-1.671 l 0.788,-2.345 c 0.897,-2.682 -0.067,-5.24 -3.922,-6.533 l -2.308,-0.779 1.498,-4.451 11.655,3.913 z" /></g></g><g
           transform="matrix(0.3327281,0,0,-0.3294526,980,2720.28)"
           id="g7116"><g
             transform="translate(231.3969,6959.0342)"
             id="g7118"><path
               inkscape:connector-curvature="0"
               id="path7120"
               style="fill:#ffffff;fill-opacity:1;fill-rule:nonzero;stroke:none"
               d="m 0,0 c -2.015,2.687 -1.122,4.675 5.043,9.3 6.187,4.646 8.462,5.028 10.473,2.341 C 17.531,8.956 16.504,6.903 10.317,2.266 4.157,-2.36 2.016,-2.684 0,0 m 19.052,14.291 c -5.599,7.458 -13.603,8.476 -20.331,3.433 -6.7,-5.027 -7.88,-12.933 -2.28,-20.394 5.594,-7.464 13.519,-8.539 20.215,-3.517 6.726,5.044 7.991,13.016 2.396,20.478" /></g></g><g
           transform="matrix(0.3327281,0,0,-0.3294526,980,2720.28)"
           id="g7122"><g
             transform="translate(270.8536,6924.1963)"
             id="g7124"><path
               inkscape:connector-curvature="0"
               id="path7126"
               style="fill:#ffffff;fill-opacity:1;fill-rule:nonzero;stroke:none"
               d="m 0,0 c -1.042,0.731 -0.96,1.885 -0.229,2.925 l 5.488,7.804 c 5.024,7.131 2.868,12.233 -3.254,16.548 -6.792,4.777 -12.321,5.948 -17.464,-1.365 l -5.979,-8.488 c -0.731,-1.041 -1.505,-1.274 -2.662,-0.461 l -0.863,0.61 -2.34,-3.327 13.148,-9.248 2.338,3.318 -1.506,1.062 c -1.041,0.731 -1.142,1.623 -0.411,2.66 l 6.572,9.337 c 2.117,3.005 4.791,2.762 7.771,0.665 2.796,-1.976 3.249,-4.707 1.42,-7.311 L -4.295,5.75 C -5.026,4.708 -6.067,4.271 -7.138,5.022 l -1.331,0.94 -2.334,-3.326 9.793,-6.895 2.34,3.321 z" /></g></g><g
           transform="matrix(0.3327281,0,0,-0.3294526,980,2720.28)"
           id="g7128"><g
             transform="translate(287.6346,6942.1729)"
             id="g7130"><path
               inkscape:connector-curvature="0"
               id="path7132"
               style="fill:#ffffff;fill-opacity:1;fill-rule:nonzero;stroke:none"
               d="M 0,0 -1.371,-3.827 1.09,-4.704 c 1.2,-0.427 1.336,-0.778 0.9,-2.006 l -5.148,-14.406 c -0.432,-1.2 -1.275,-1.875 -2.473,-1.448 l -2.163,0.771 -1.363,-3.822 16.534,-5.91 1.365,3.822 -2.193,0.788 c -1.197,0.427 -1.193,1.061 -0.766,2.264 l 5.146,14.402 c 0.426,1.199 1.174,1.603 2.372,1.177 l 1.861,-0.664 1.371,3.826 z" /></g></g><g
           transform="matrix(0.3327281,0,0,-0.3294526,980,2720.28)"
           id="g7134"><g
             transform="translate(323.6417,6933.9316)"
             id="g7136"><path
               inkscape:connector-curvature="0"
               id="path7138"
               style="fill:#ffffff;fill-opacity:1;fill-rule:nonzero;stroke:none"
               d="m 0,0 c -4.373,0.3 -7.072,-0.9 -8.555,-0.798 -0.706,0.046 -1.012,0.741 -0.983,1.132 l -3.845,0.258 -0.704,-10.366 4.335,-0.292 0.05,0.775 c 0.257,3.808 3.472,5.213 7.351,4.955 3.558,-0.242 5.291,-1.351 5.172,-3.047 -0.101,-1.511 -0.96,-2.161 -4.893,-2.746 l -5.868,-0.843 c -3.681,-0.522 -6.645,-2.944 -6.901,-7.214 -0.379,-6.059 4.936,-9.183 11.103,-9.604 3.981,-0.275 5.448,0.969 6.611,0.894 1.061,-0.072 1.279,-0.513 1.274,-1.078 l 4.088,-0.283 0.649,9.52 -4.548,0.314 -0.063,-0.886 c -0.213,-3.135 -2.852,-4.476 -6.234,-4.248 -2.893,0.199 -4.767,0.717 -4.655,2.372 0.082,1.199 0.765,1.892 3.951,2.385 l 6.086,0.969 c 3.904,0.62 7.148,2.518 7.431,7.174 C 11.321,-3.25 5.669,-0.387 0,0" /></g></g><g
           transform="matrix(0.3327281,0,0,-0.3294526,980,2720.28)"
           id="g7140"><g
             transform="translate(338.4207,6933.5029)"
             id="g7142"><path
               inkscape:connector-curvature="0"
               id="path7144"
               style="fill:#ffffff;fill-opacity:1;fill-rule:nonzero;stroke:none"
               d="m 0,0 0.726,-4.001 2.573,0.471 c 1.254,0.227 1.549,-0.005 1.782,-1.29 l 2.751,-15.051 c 0.224,-1.249 -0.165,-2.255 -1.415,-2.483 l -2.261,-0.412 0.732,-3.999 17.273,3.156 -0.733,3.996 -2.289,-0.416 c -1.256,-0.228 -1.571,0.32 -1.798,1.574 L 14.59,-3.409 c -0.229,1.254 0.213,1.981 1.467,2.209 L 18,-0.843 17.275,3.15 Z" /></g></g><g
           transform="matrix(0.3327281,0,0,-0.3294526,980,2720.28)"
           id="g7146"><g
             transform="translate(383.7267,6926.1152)"
             id="g7148"><path
               inkscape:connector-curvature="0"
               id="path7150"
               style="fill:#ffffff;fill-opacity:1;fill-rule:nonzero;stroke:none"
               d="m 0,0 -7.316,6.26 6.011,3.219 z m -8.484,18.703 1.919,-3.584 2.553,1.365 c 1.031,0.553 1.767,0.067 1.908,-0.939 l 0.285,-1.894 -8.722,-4.665 -1.293,1.153 c -1.068,0.949 -0.869,1.7 0.345,2.35 l 1.994,1.068 -1.919,3.577 -11.123,-5.949 1.919,-3.58 0.654,0.352 c 0.965,0.516 2.19,0.772 3.148,-0.042 L 0.948,-7.102 9.019,-2.786 6.359,19.789 c -0.125,1.295 0.16,2.33 1.311,2.944 l 0.874,0.469 -1.919,3.584 z" /></g></g><g
           transform="matrix(0.3327281,0,0,-0.3294526,980,2720.28)"
           id="g7152"><g
             transform="translate(432.1616,6965.0625)"
             id="g7154"><path
               inkscape:connector-curvature="0"
               id="path7156"
               style="fill:#ffffff;fill-opacity:1;fill-rule:nonzero;stroke:none"
               d="m 0,0 c -0.823,-0.964 -1.672,-1.038 -2.64,-0.213 l -16.204,13.775 -5.788,-6.809 5.158,-20.714 -8.665,7.367 c -0.97,0.828 -1.066,1.697 -0.238,2.665 l 1.531,1.802 -3.096,2.635 -8.787,-10.337 3.096,-2.632 1.488,1.751 c 0.823,0.968 1.694,1.015 2.664,0.192 l 11.412,-9.707 c 0.97,-0.823 1.284,-1.873 0.459,-2.842 l -1.487,-1.75 3.096,-2.631 8.623,10.149 -5.067,20.162 8.374,-7.111 c 0.969,-0.828 1.062,-1.644 0.238,-2.615 l -1.506,-1.776 3.09,-2.63 8.787,10.33 -3.096,2.635 z" /></g></g><g
           transform="matrix(0.3327281,0,0,-0.3294526,980,2720.28)"
           id="g7158"><g
             transform="translate(440.6627,6989.5083)"
             id="g7160"><path
               inkscape:connector-curvature="0"
               id="path7162"
               style="fill:#ffffff;fill-opacity:1;fill-rule:nonzero;stroke:none"
               d="m 0,0 -9.63,-0.202 2.341,6.408 z m -18.782,8.299 3.816,-1.395 0.997,2.722 c 0.398,1.096 1.274,1.23 2.044,0.567 l 1.473,-1.216 -3.395,-9.292 -1.734,-0.004 c -1.425,-0.005 -1.773,0.69 -1.303,1.981 l 0.776,2.121 -3.818,1.396 -4.331,-11.844 3.818,-1.395 0.257,0.698 c 0.373,1.026 1.114,2.03 2.369,2.069 L 5.443,-4.659 8.586,3.935 -8.436,19.002 c -0.96,0.879 -1.438,1.837 -0.985,3.066 l 0.34,0.929 -3.816,1.398 z" /></g></g><g
           transform="matrix(0.3327281,0,0,-0.3294526,980,2720.28)"
           id="g7164"><g
             transform="translate(224.0896,7101.4717)"
             id="g7166"><path
               inkscape:connector-curvature="0"
               id="path7168"
               style="fill:#ffffff;fill-opacity:1;fill-rule:nonzero;stroke:none"
               d="m 0,0 3.396,-2.231 0.873,1.332 c 0.508,0.77 1.199,1.117 1.762,0.752 C 6.413,-0.401 6.737,-0.87 7,-1.504 l 2.271,-5.75 -4.467,-1.215 -2.31,1.514 C 1.433,-6.26 1.056,-5.797 1.753,-4.737 l 0.927,1.416 -3.397,2.229 -9.122,-13.918 3.397,-2.225 1.259,1.918 c 0.702,1.067 1.539,1.188 2.605,0.487 l 12.793,-8.381 c 1.066,-0.701 1.26,-1.502 0.558,-2.563 l -1.259,-1.918 3.4,-2.228 9.606,14.648 -3.396,2.229 -1.415,-2.157 c -0.697,-1.06 -1.297,-0.88 -2.358,-0.183 l -5.998,3.933 9.736,2.612 c 0.675,0.191 1.106,0.207 1.639,-0.143 0.411,-0.275 0.488,-0.871 0.198,-1.31 l -0.872,-1.33 3.396,-2.229 8.193,12.5 -3.402,2.223 -1.488,-2.274 c -0.604,-0.914 -1.705,-1.5 -3.03,-1.853 L 17.444,-4.969 12.236,8.543 c -0.543,1.365 -0.586,1.816 -0.117,2.521 l 1.004,1.541 -3.401,2.229 z" /></g></g><g
           transform="matrix(0.3327281,0,0,-0.3294526,980,2720.28)"
           id="g7170"><g
             transform="translate(240.9555,7122.4209)"
             id="g7172"><path
               inkscape:connector-curvature="0"
               id="path7174"
               style="fill:#ffffff;fill-opacity:1;fill-rule:nonzero;stroke:none"
               d="m 0,0 2.633,-3.09 1.99,1.693 c 0.97,0.825 1.341,0.768 2.189,-0.228 l 9.92,-11.645 c 0.828,-0.965 0.989,-2.029 0.025,-2.851 l -1.753,-1.492 2.635,-3.092 13.368,11.385 -2.635,3.093 -1.777,-1.509 c -0.964,-0.829 -1.518,-0.508 -2.34,0.462 l -9.92,11.643 c -0.828,0.969 -0.808,1.82 0.158,2.643 l 1.508,1.285 -2.635,3.092 z" /></g></g><g
           transform="matrix(0.3327281,0,0,-0.3294526,980,2720.28)"
           id="g7176"><g
             transform="translate(294.1536,7137.5747)"
             id="g7178"><path
               inkscape:connector-curvature="0"
               id="path7180"
               style="fill:#ffffff;fill-opacity:1;fill-rule:nonzero;stroke:none"
               d="M 0,0 1.358,-3.103 C 2.505,-5.724 2.089,-7.76 -0.528,-8.912 L -1.698,-9.42 -8.519,6.143 c -0.523,1.193 -0.03,2.453 1.132,2.967 l 2.782,1.218 -1.629,3.721 -18.383,-8.057 1.628,-3.718 2.819,1.23 c 1.167,0.512 2.389,0.006 2.913,-1.193 l 6.824,-15.563 -1.163,-0.508 c -2.62,-1.148 -4.407,-0.084 -5.555,2.543 l -1.358,3.1 -4.205,-1.84 4.748,-10.842 26.92,11.805 -4.752,10.84 z" /></g></g><g
           transform="matrix(0.3327281,0,0,-0.3294526,980,2720.28)"
           id="g7182"><g
             transform="translate(318.5717,7158.1626)"
             id="g7184"><path
               inkscape:connector-curvature="0"
               id="path7186"
               style="fill:#ffffff;fill-opacity:1;fill-rule:nonzero;stroke:none"
               d="m 0,0 c -9.148,-0.832 -13.941,-7.053 -13.184,-15.389 0.813,-8.904 7.158,-13.539 15.637,-12.773 3.026,0.275 5.019,1.346 5.772,1.699 0.645,0.309 0.781,0 1.334,-1.053 l 4.398,0.399 -0.987,10.871 -4.822,-0.436 0.093,-1.023 c 0.294,-3.197 -0.96,-5.404 -4.301,-5.711 -4.016,-0.363 -5.878,2.625 -6.448,8.82 -0.645,7.108 0.726,9.996 5.056,10.393 3.692,0.328 5.053,-1.74 5.606,-5.524 l 0.193,-1.33 4.715,0.426 -0.117,1.305 C 12.459,-3.943 8.87,0.805 0,0" /></g></g><g
           transform="matrix(0.3327281,0,0,-0.3294526,980,2720.28)"
           id="g7188"><g
             transform="translate(363.2906,7153.4619)"
             id="g7190"><path
               inkscape:connector-curvature="0"
               id="path7192"
               style="fill:#ffffff;fill-opacity:1;fill-rule:nonzero;stroke:none"
               d="m 0,0 -1.076,-3.918 1.461,-0.4 c 1.228,-0.336 1.604,-1.096 1.27,-2.327 l -1.529,-5.552 -7.838,2.152 1.526,5.553 c 0.338,1.228 1.051,1.689 2.281,1.355 l 1.462,-0.408 1.078,3.92 -16.354,4.494 -1.076,-3.918 2.219,-0.605 c 1.224,-0.34 1.599,-1.1 1.264,-2.325 l -4.055,-14.757 c -0.335,-1.223 -1.042,-1.649 -2.266,-1.317 l -2.218,0.61 -1.077,-3.918 16.359,-4.495 1.069,3.922 -1.462,0.395 c -1.226,0.338 -1.613,1.07 -1.274,2.295 l 1.395,5.076 7.833,-2.152 -1.394,-5.077 c -0.334,-1.222 -1.042,-1.654 -2.27,-1.316 l -1.461,0.402 -1.076,-3.92 16.316,-4.484 1.076,3.924 -2.214,0.601 c -1.222,0.34 -1.58,1.057 -1.237,2.286 l 4.05,14.752 c 0.341,1.224 1.019,1.699 2.244,1.361 l 2.213,-0.611 1.077,3.919 z" /></g></g><g
           transform="matrix(0.3327281,0,0,-0.3294526,980,2720.28)"
           id="g7194"><g
             transform="translate(391.9177,7142.3779)"
             id="g7196"><path
               inkscape:connector-curvature="0"
               id="path7198"
               style="fill:#ffffff;fill-opacity:1;fill-rule:nonzero;stroke:none"
               d="m 0,0 -2.405,-3.279 1.852,-1.354 C 0.47,-5.391 0.763,-5.955 -0.01,-7.006 l -9.458,-12.869 c -0.749,-1.024 -1.354,-0.887 -2.379,-0.137 l -1.849,1.361 -2.41,-3.275 22.839,-16.779 6.524,8.887 -3.67,2.699 -1.072,-1.451 c -2.093,-2.85 -4.558,-3.051 -6.868,-1.356 l -2.96,2.178 c -1.027,0.752 -1.361,1.305 -0.61,2.33 l 3.432,4.67 1.595,-1.172 c 0.912,-0.67 0.862,-1.508 0.171,-2.451 l -1.339,-1.819 3.305,-2.425 7.61,10.367 -3.299,2.42 -1.719,-2.33 c -0.669,-0.914 -1.522,-1.121 -2.431,-0.453 l -1.507,1.107 3.636,4.955 c 0.776,1.057 1.286,1.029 2.308,0.279 l 2.731,-2.006 c 2.762,-2.029 3.732,-4.234 1.105,-7.822 l -1.027,-1.392 3.671,-2.7 6.777,9.225 z" /></g></g><g
           transform="matrix(0.3327281,0,0,-0.3294526,980,2720.28)"
           id="g7200"><g
             transform="translate(423.8596,7075.0166)"
             id="g7202"><path
               inkscape:connector-curvature="0"
               id="path7204"
               style="fill:#ffffff;fill-opacity:1;fill-rule:nonzero;stroke:none"
               d="m 0,0 c -0.688,1.072 -0.513,1.898 0.559,2.589 l 17.869,11.534 -4.846,7.509 -21.318,1.041 9.554,6.166 c 1.069,0.698 1.93,0.534 2.619,-0.531 l 1.284,-1.992 3.419,2.203 -7.357,11.399 -3.416,-2.204 1.242,-1.929 c 0.697,-1.065 0.483,-1.918 -0.588,-2.61 l -12.585,-8.121 c -1.07,-0.689 -2.163,-0.681 -2.852,0.385 l -1.247,1.93 -3.414,-2.2 7.223,-11.193 20.77,-0.98 -9.232,-5.955 C -3.379,6.349 -4.2,6.503 -4.883,7.57 l -1.269,1.957 -3.411,-2.195 7.355,-11.403 3.413,2.203 z" /></g></g><g
           transform="matrix(0.3327281,0,0,-0.3294526,980,2720.28)"
           id="g7206"><g
             transform="translate(341.5856,7054.7578)"
             id="g7208"><path
               inkscape:connector-curvature="0"
               id="path7210"
               style="fill:#c41230;fill-opacity:1;fill-rule:nonzero;stroke:none"
               d="M 0,0 -0.396,0.276 2.285,7.63 C 14.347,2.419 37.896,-9.983 42.922,-29.026 29.984,-9.964 0,0 0,0" /></g></g><g
           transform="matrix(0.3327281,0,0,-0.3294526,980,2720.28)"
           id="g7212"><g
             transform="translate(323.5767,7004.4658)"
             id="g7214"><path
               inkscape:connector-curvature="0"
               id="path7216"
               style="fill:#c41230;fill-opacity:1;fill-rule:nonzero;stroke:none"
               d="m 0,0 -0.183,0.074 2.93,8.049 C 9.279,6.894 18.143,7.209 21.529,16.6 c 0.344,0.974 0.548,1.91 0.639,2.801 3.692,-3.206 6.24,-7.604 4.224,-13.239 C 20.778,-9.432 0,0 0,0" /></g></g><g
           transform="matrix(0.3327281,0,0,-0.3294526,980,2720.28)"
           id="g7218"><g
             transform="translate(289.5137,7016.585)"
             id="g7220"><path
               inkscape:connector-curvature="0"
               id="path7222"
               style="fill:#c41230;fill-opacity:1;fill-rule:nonzero;stroke:none"
               d="m 0,0 -10.722,3.904 -9.823,-26.977 -4.631,1.686 -3.021,1.086 12.607,34.643 10.721,-3.903 30.125,82.77 33.283,-12.119 -2.788,-7.651 -25.632,9.327 z" /></g></g><g
           transform="matrix(0.3327281,0,0,-0.3294526,980,2720.28)"
           id="g7224"><g
             transform="translate(335.6736,7024.7598)"
             id="g7226"><path
               inkscape:connector-curvature="0"
               id="path7228"
               style="fill:#f58427;fill-opacity:1;fill-rule:nonzero;stroke:none"
               d="m 0,0 c 0,0 21.936,-6.381 17.048,-20.031 -5.62,-15.599 -26.394,-6.163 -26.394,-6.163 l -0.187,0.083 9.494,26.081 z m 8.274,24.374 11.718,32.205 -33.278,12.113 -30.125,-82.764 -10.727,3.905 -12.604,-34.643 3.023,-1.087 10.279,-3.75 C -22.363,-60.76 38.594,-80.383 55.457,-33.488 68.909,4.088 8.661,24.1 8.661,24.1 Z" /></g></g><g
           transform="matrix(0.3327281,0,0,-0.3294526,980,2720.28)"
           id="g7230"><g
             transform="translate(217.7986,7060.835)"
             id="g7232"><path
               inkscape:connector-curvature="0"
               id="path7234"
               style="fill:#f58427;fill-opacity:1;fill-rule:nonzero;stroke:none"
               d="m 0,0 c -0.05,0 -0.122,-0.166 -0.137,-0.209 -0.232,-0.537 -0.401,-0.881 -0.782,-1.264 -0.254,-0.258 -0.482,-0.519 -0.72,-0.79 -1.117,-1.28 -1.447,-2.94 -1.045,-4.587 0.125,-0.494 0.271,-0.979 0.416,-1.462 0.196,-0.68 0.384,-1.344 0.476,-2.039 0.039,-0.31 0.062,-0.63 0.051,-0.956 0,-0.178 -0.478,-0.151 -0.522,0.038 -0.067,0.303 -0.144,0.612 -0.226,0.918 -0.195,0.716 -0.436,1.412 -0.786,2.039 -0.289,0.517 -0.654,1.002 -1.138,1.419 -0.922,0.806 -2.257,1.181 -3.386,0.561 -1.816,-0.993 -1.492,-3.249 -0.213,-4.019 0.117,-0.071 0.246,-0.111 0.397,-0.123 -0.006,0.045 -0.006,0.082 -0.006,0.123 -0.009,0.513 0.068,1.056 0.543,1.359 0.564,0.368 1.376,0.326 1.905,-0.15 0.31,-0.285 0.58,-0.769 0.751,-1.209 0.163,-0.413 0.25,-0.786 0.213,-0.945 -0.04,-0.234 -0.868,-0.021 -1.254,-0.293 -0.264,-0.193 -0.37,-0.498 -0.321,-0.798 0.023,-0.117 0.068,-0.234 0.139,-0.339 0.375,-0.591 1.354,-0.184 1.436,-0.504 0.042,-0.132 -0.05,-0.634 -0.311,-1.197 -0.358,-0.768 -1.033,-1.631 -2.166,-1.777 -0.57,-0.073 -1.113,0.049 -1.569,0.416 -0.451,0.359 -0.691,0.806 -0.706,1.361 -0.01,0.213 0.015,0.441 0.067,0.684 -0.34,0.213 -1.57,-0.117 -2.355,-0.707 -0.027,-0.019 0.029,0.027 0,0 -0.635,-0.516 -1.173,-1.241 -1.413,-2.014 -0.069,-0.228 -0.122,-0.467 -0.146,-0.71 -0.204,-1.782 0.689,-3.569 2.32,-4.325 0.882,-0.407 1.822,-0.594 2.816,-0.407 1.056,0.198 1.916,0.701 2.682,1.417 1.125,1.05 1.666,2.453 2.208,3.854 0.02,0.054 0.04,0.111 0.065,0.171 0.228,0.651 0.362,1.38 0.449,2.037 0.059,0.441 0.101,0.853 0.136,1.187 0.015,0.142 0.471,0.102 0.476,-0.052 0.005,-0.379 -0.015,-0.76 -0.055,-1.135 -0.077,-0.691 -0.223,-1.371 -0.416,-2.037 -0.461,-1.589 -1.182,-3.116 -1.822,-4.655 -0.421,-0.995 -0.692,-2.047 -0.682,-3.127 0.015,-0.964 0.377,-1.835 0.833,-2.682 0.595,-1.106 1.631,-1.73 2.417,-2.708 0.702,-0.885 0.984,-1.91 1.23,-3.019 0.014,-0.063 0.106,-0.115 0.151,-0.115 0.049,0 0.141,0.052 0.151,0.115 0.245,1.109 0.528,2.134 1.23,3.019 0.788,0.978 1.822,1.602 2.416,2.708 0.461,0.847 0.823,1.718 0.833,2.682 0.01,1.08 -0.26,2.132 -0.677,3.127 -0.644,1.539 -1.365,3.066 -1.827,4.655 -0.193,0.666 -0.334,1.346 -0.416,2.037 -0.035,0.375 -0.059,0.756 -0.054,1.135 0.004,0.154 0.461,0.194 0.475,0.052 0.038,-0.334 0.082,-0.746 0.137,-1.187 0.087,-0.657 0.226,-1.386 0.454,-2.037 0.019,-0.06 0.039,-0.117 0.064,-0.171 0.538,-1.401 1.083,-2.804 2.203,-3.854 0.766,-0.716 1.627,-1.219 2.683,-1.417 0.994,-0.187 1.933,0 2.816,0.407 1.63,0.756 2.523,2.543 2.325,4.325 -0.03,0.243 -0.077,0.482 -0.146,0.71 -0.246,0.773 -0.784,1.498 -1.418,2.014 -0.03,0.027 0.032,-0.019 0,0 -0.781,0.59 -2.016,0.92 -2.355,0.707 0.057,-0.243 0.081,-0.471 0.072,-0.684 -0.015,-0.555 -0.255,-1.002 -0.712,-1.361 -0.456,-0.367 -0.993,-0.489 -1.564,-0.416 -1.13,0.146 -1.816,1.009 -2.171,1.777 -0.261,0.563 -0.352,1.065 -0.31,1.197 0.086,0.32 1.061,-0.087 1.44,0.504 0.067,0.105 0.111,0.222 0.139,0.339 0.044,0.3 -0.062,0.605 -0.325,0.798 -0.387,0.272 -1.214,0.059 -1.254,0.293 -0.03,0.159 0.049,0.532 0.213,0.945 0.179,0.44 0.441,0.924 0.751,1.209 0.533,0.476 1.341,0.518 1.904,0.15 0.476,-0.303 0.553,-0.846 0.543,-1.359 0,-0.041 0,-0.078 -0.005,-0.123 0.151,0.012 0.285,0.052 0.396,0.123 1.279,0.77 1.609,3.026 -0.213,4.019 C 6.67,-5.712 5.334,-6.087 4.418,-6.893 3.934,-7.31 3.565,-7.795 3.274,-8.312 2.92,-8.939 2.684,-9.635 2.494,-10.351 2.412,-10.657 2.335,-10.966 2.263,-11.269 2.224,-11.458 1.74,-11.485 1.74,-11.307 c -0.005,0.326 0.017,0.646 0.052,0.956 0.092,0.695 0.28,1.359 0.476,2.039 0.144,0.483 0.295,0.968 0.416,1.462 0.402,1.647 0.072,3.307 -1.043,4.587 C 1.4,-1.992 1.172,-1.731 0.919,-1.473 0.538,-1.09 0.372,-0.746 0.141,-0.209 0.126,-0.166 0.049,0 0,0" /></g></g><g
           transform="matrix(0.3327281,0,0,-0.3294526,980,2720.28)"
           id="g7236"><g
             transform="translate(441.4326,7060.835)"
             id="g7238"><path
               inkscape:connector-curvature="0"
               id="path7240"
               style="fill:#f58427;fill-opacity:1;fill-rule:nonzero;stroke:none"
               d="m 0,0 c -0.053,0 -0.12,-0.166 -0.144,-0.209 -0.227,-0.537 -0.394,-0.881 -0.776,-1.264 -0.252,-0.258 -0.484,-0.519 -0.721,-0.79 -1.121,-1.28 -1.452,-2.94 -1.046,-4.587 0.129,-0.494 0.27,-0.979 0.416,-1.462 0.199,-0.68 0.386,-1.344 0.473,-2.039 0.041,-0.31 0.06,-0.63 0.055,-0.956 0,-0.178 -0.481,-0.151 -0.522,0.038 -0.07,0.303 -0.141,0.612 -0.228,0.918 -0.194,0.716 -0.432,1.412 -0.782,2.039 -0.29,0.517 -0.662,1.002 -1.137,1.419 -0.931,0.806 -2.264,1.181 -3.387,0.561 -1.821,-0.993 -1.492,-3.249 -0.212,-4.019 0.111,-0.071 0.241,-0.111 0.397,-0.123 -0.006,0.045 -0.006,0.082 -0.006,0.123 -0.01,0.513 0.065,1.056 0.537,1.359 0.567,0.368 1.377,0.326 1.904,-0.15 0.316,-0.285 0.578,-0.769 0.751,-1.209 0.163,-0.413 0.249,-0.786 0.22,-0.945 -0.049,-0.234 -0.869,-0.021 -1.256,-0.293 -0.267,-0.193 -0.376,-0.498 -0.324,-0.798 0.024,-0.117 0.072,-0.234 0.135,-0.339 0.383,-0.591 1.358,-0.184 1.445,-0.504 0.034,-0.132 -0.053,-0.634 -0.311,-1.197 -0.36,-0.768 -1.047,-1.631 -2.175,-1.777 -0.567,-0.073 -1.109,0.049 -1.561,0.416 -0.459,0.359 -0.695,0.806 -0.711,1.361 -0.01,0.213 0.016,0.441 0.067,0.684 -0.338,0.213 -1.568,-0.117 -2.353,-0.707 -0.029,-0.019 0.027,0.027 0,0 -0.635,-0.516 -1.172,-1.241 -1.414,-2.014 -0.068,-0.228 -0.116,-0.467 -0.147,-0.71 -0.198,-1.782 0.694,-3.569 2.326,-4.325 0.877,-0.407 1.816,-0.594 2.815,-0.407 1.051,0.198 1.908,0.701 2.674,1.417 1.129,1.05 1.667,2.453 2.21,3.854 0.021,0.054 0.046,0.111 0.067,0.171 0.228,0.651 0.359,1.38 0.45,2.037 0.058,0.441 0.097,0.853 0.131,1.187 0.019,0.142 0.479,0.102 0.479,-0.052 0.004,-0.379 -0.015,-0.76 -0.057,-1.135 -0.074,-0.691 -0.219,-1.371 -0.408,-2.037 -0.47,-1.589 -1.187,-3.116 -1.824,-4.655 -0.418,-0.995 -0.69,-2.047 -0.686,-3.127 0.015,-0.964 0.375,-1.835 0.838,-2.682 0.593,-1.106 1.628,-1.73 2.412,-2.708 0.703,-0.885 0.984,-1.91 1.228,-3.019 0.014,-0.063 0.105,-0.115 0.158,-0.115 0.045,0 0.138,0.052 0.151,0.115 0.242,1.109 0.524,2.134 1.23,3.019 0.781,0.978 1.816,1.602 2.417,2.708 0.456,0.847 0.82,1.718 0.826,2.682 0.016,1.08 -0.258,2.132 -0.676,3.127 -0.64,1.539 -1.359,3.066 -1.821,4.655 -0.193,0.666 -0.339,1.346 -0.417,2.037 -0.042,0.375 -0.061,0.756 -0.057,1.135 0,0.154 0.459,0.194 0.48,0.052 0.033,-0.334 0.075,-0.746 0.13,-1.187 0.097,-0.657 0.223,-1.386 0.456,-2.037 0.018,-0.06 0.038,-0.117 0.062,-0.171 0.543,-1.401 1.086,-2.804 2.209,-3.854 0.766,-0.716 1.623,-1.219 2.674,-1.417 1.002,-0.187 1.94,0 2.818,0.407 1.635,0.756 2.529,2.543 2.325,4.325 -0.024,0.243 -0.076,0.482 -0.148,0.71 -0.237,0.773 -0.78,1.498 -1.415,2.014 -0.024,0.027 0.03,-0.019 0,0 -0.781,0.59 -2.016,0.92 -2.351,0.707 0.05,-0.243 0.078,-0.471 0.071,-0.684 -0.021,-0.555 -0.258,-1.002 -0.714,-1.361 -0.454,-0.367 -0.997,-0.489 -1.569,-0.416 -1.124,0.146 -1.813,1.009 -2.169,1.777 -0.254,0.563 -0.349,1.065 -0.312,1.197 0.087,0.32 1.062,-0.087 1.444,0.504 0.071,0.105 0.118,0.222 0.136,0.339 0.052,0.3 -0.059,0.605 -0.324,0.798 -0.384,0.272 -1.212,0.059 -1.256,0.293 -0.028,0.159 0.058,0.532 0.223,0.945 0.171,0.44 0.434,0.924 0.75,1.209 0.528,0.476 1.335,0.518 1.905,0.15 0.469,-0.303 0.547,-0.846 0.537,-1.359 v -0.123 c 0.147,0.012 0.276,0.052 0.394,0.123 1.274,0.77 1.606,3.026 -0.217,4.019 C 6.665,-5.712 5.335,-6.087 4.409,-6.893 3.929,-7.31 3.562,-7.795 3.269,-8.312 2.922,-8.939 2.68,-9.635 2.486,-10.351 c -0.083,-0.306 -0.15,-0.615 -0.229,-0.918 -0.034,-0.189 -0.517,-0.216 -0.521,-0.038 -0.006,0.326 0.014,0.646 0.057,0.956 0.091,0.695 0.277,1.359 0.475,2.039 0.141,0.483 0.29,0.968 0.412,1.462 0.411,1.647 0.077,3.307 -1.042,4.587 -0.237,0.271 -0.466,0.532 -0.726,0.79 C 0.538,-1.09 0.369,-0.746 0.138,-0.209 0.121,-0.166 0.051,0 0,0" /></g></g></g></g><g
       transform="matrix(0.35277777,0,0,-0.35277777,-267.1363,304.83277)"
       id="g7268" /></g></svg>
