<?xml version="1.0" encoding="utf-8"?>
<svg width="170px" height="30px" viewBox="-44.305 -41.224 92.235 83.231" xmlns="http://www.w3.org/2000/svg">
  <path fill="#FF7C00" opacity="1.000000" stroke="none" d="M 5.655 -7.21 C 6.625 -6.73 7.408 -6.005 7.998 -4.995 C 8.488 -4.159 8.796 -3.234 8.964 -2.243 C 9.044 -1.767 9.085 -1.288 9.103 -0.803 C 9.132 -0.031 9.068 0.731 9.001 1.495 C 8.997 1.549 8.977 1.6 8.959 1.675 C 6.106 1.675 3.254 1.675 0.386 1.675 C 0.4 1.755 0.403 1.809 0.418 1.859 C 0.693 2.83 1.233 3.504 2.05 3.865 C 2.632 4.121 3.236 4.149 3.845 4.086 C 4.638 4.003 5.395 3.754 6.103 3.322 C 6.348 3.173 6.58 2.999 6.839 2.822 C 7.371 3.937 7.902 5.047 8.442 6.177 C 8.36 6.248 8.289 6.317 8.213 6.379 C 7.375 7.063 6.453 7.51 5.459 7.763 C 4.8 7.932 4.132 8.012 3.456 8.019 C 2.712 8.026 1.975 7.973 1.248 7.777 C -0.06 7.425 -1.205 6.727 -2.126 5.561 C -2.683 4.854 -3.089 4.036 -3.369 3.13 C -3.681 2.12 -3.807 1.076 -3.799 0.002 C -3.792 -0.928 -3.685 -1.833 -3.432 -2.711 C -2.933 -4.446 -2.032 -5.808 -0.687 -6.745 C 0.067 -7.269 0.884 -7.58 1.747 -7.725 C 2.201 -7.801 2.659 -7.834 3.118 -7.811 C 3.983 -7.767 4.831 -7.609 5.655 -7.21 M 2.592 -1.568 C 3.459 -1.568 4.327 -1.568 5.197 -1.568 C 5.197 -1.65 5.202 -1.698 5.197 -1.743 C 5.188 -1.831 5.177 -1.916 5.161 -2.001 C 4.998 -2.899 4.566 -3.534 3.831 -3.863 C 3.307 -4.097 2.766 -4.122 2.22 -3.982 C 1.433 -3.78 0.894 -3.209 0.557 -2.362 C 0.46 -2.12 0.367 -1.874 0.339 -1.568 C 1.085 -1.568 1.818 -1.568 2.592 -1.568 Z" style=""/>
  <path fill="#FF7C00" opacity="1.000000" stroke="none" d="M 22.722 1.333 C 22.699 0.847 22.651 0.382 22.659 -0.082 C 22.687 -1.848 23.019 -3.486 23.806 -4.906 C 24.62 -6.375 25.701 -7.253 27.001 -7.632 C 27.524 -7.785 28.053 -7.841 28.583 -7.81 C 29.406 -7.762 30.205 -7.556 30.95 -7.051 C 31.613 -6.601 32.166 -5.962 32.597 -5.132 C 33.116 -4.136 33.412 -3.019 33.552 -1.814 C 33.677 -0.735 33.642 0.343 33.546 1.421 C 33.541 1.484 33.527 1.544 33.512 1.631 C 31.098 1.631 28.683 1.631 26.254 1.631 C 26.26 1.711 26.258 1.765 26.269 1.812 C 26.541 2.972 27.107 3.699 27.965 3.953 C 28.71 4.175 29.451 4.089 30.179 3.784 C 30.576 3.618 30.944 3.371 31.295 3.069 C 31.324 3.045 31.353 3.024 31.404 2.984 C 31.824 4.134 32.233 5.279 32.652 6.432 C 32.602 6.483 32.562 6.528 32.521 6.565 C 31.699 7.28 30.801 7.683 29.844 7.862 C 29.235 7.975 28.624 7.993 28.016 7.932 C 26.721 7.8 25.536 7.245 24.533 6.063 C 23.679 5.056 23.139 3.778 22.86 2.282 C 22.803 1.976 22.769 1.663 22.722 1.333 M 29.243 -3.829 C 28.916 -4.017 28.574 -4.092 28.223 -4.076 C 27.749 -4.053 27.313 -3.877 26.946 -3.436 C 26.558 -2.973 26.347 -2.371 26.218 -1.703 C 26.213 -1.675 26.22 -1.644 26.223 -1.608 C 27.592 -1.608 28.955 -1.608 30.331 -1.608 C 30.245 -2.61 29.935 -3.375 29.243 -3.829 Z" style=""/>
  <path fill="#FE7C00" opacity="1.000000" stroke="none" d="M -26.916 -4.942 C -26.449 -5.783 -25.879 -6.425 -25.215 -6.911 C -24.517 -7.421 -23.771 -7.706 -22.986 -7.791 C -21.876 -7.911 -20.821 -7.634 -19.833 -6.921 C -18.887 -6.238 -18.148 -5.253 -17.64 -3.948 C -17.296 -3.059 -17.101 -2.11 -17.043 -1.102 C -16.955 0.434 -17.162 1.879 -17.716 3.218 C -18.22 4.433 -18.933 5.348 -19.83 5.993 C -20.49 6.468 -21.192 6.746 -21.933 6.84 C -23.306 7.013 -24.581 6.619 -25.727 5.544 C -26.922 4.421 -27.644 2.857 -27.907 0.887 C -27.984 0.31 -28.014 -0.273 -27.989 -0.856 C -27.928 -2.359 -27.593 -3.73 -26.916 -4.942 M -24.777 0.494 C -24.764 0.552 -24.754 0.611 -24.741 0.667 C -24.501 1.674 -24.04 2.398 -23.311 2.756 C -22.815 3 -22.305 3.014 -21.796 2.822 C -21.441 2.688 -21.127 2.444 -20.861 2.086 C -20.351 1.4 -20.135 0.539 -20.113 -0.421 C -20.098 -1.074 -20.195 -1.701 -20.425 -2.28 C -20.68 -2.919 -21.038 -3.399 -21.528 -3.676 C -22.147 -4.026 -22.775 -4.02 -23.395 -3.699 C -23.936 -3.419 -24.334 -2.901 -24.588 -2.188 C -24.891 -1.343 -24.933 -0.454 -24.777 0.494 Z" style=""/>
  <path fill="#FF7C00" opacity="1.000000" stroke="none" d="M -39.862 -4.836 C -39.875 -5.58 -39.883 -6.299 -39.901 -7.017 C -39.906 -7.204 -39.943 -7.391 -39.9 -7.594 C -39.703 -7.617 -39.508 -7.646 -39.313 -7.661 C -38.771 -7.702 -38.229 -7.753 -37.686 -7.772 C -36.868 -7.798 -36.049 -7.843 -35.233 -7.8 C -34.187 -7.744 -33.155 -7.517 -32.162 -7.029 C -31.376 -6.642 -30.656 -6.106 -30.064 -5.275 C -29.514 -4.505 -29.169 -3.586 -29.027 -2.524 C -28.856 -1.237 -28.954 0.01 -29.343 1.208 C -29.677 2.239 -30.198 3.053 -30.862 3.695 C -31.589 4.399 -32.403 4.816 -33.26 5.088 C -33.772 5.251 -34.291 5.358 -34.816 5.407 C -34.988 5.423 -35.159 5.449 -35.353 5.473 C -35.38 5.722 -35.362 5.976 -35.365 6.229 C -35.368 6.477 -35.366 6.725 -35.366 6.973 C -35.366 7.231 -35.366 7.487 -35.366 7.744 C -35.366 7.992 -35.366 8.24 -35.366 8.482 C -35.5 8.547 -38.533 8.574 -38.922 8.515 C -38.926 8.417 -38.929 8.313 -38.929 8.209 C -38.93 6.139 -38.929 4.07 -38.929 1.999 C -38.929 0.194 -38.929 -1.61 -38.929 -3.416 C -38.929 -3.513 -38.929 -3.609 -38.929 -3.736 C -39.242 -3.702 -39.531 -3.671 -39.842 -3.637 C -39.849 -4.041 -39.857 -4.426 -39.862 -4.836 M -35.366 -0.987 C -35.366 -0.13 -35.366 0.727 -35.366 1.618 C -35.235 1.603 -35.131 1.587 -35.026 1.58 C -34.618 1.559 -34.219 1.462 -33.836 1.263 C -33.172 0.916 -32.704 0.318 -32.59 -0.696 C -32.515 -1.358 -32.583 -1.978 -32.908 -2.515 C -33.138 -2.895 -33.434 -3.131 -33.756 -3.315 C -34.226 -3.582 -34.722 -3.669 -35.221 -3.735 C -35.264 -3.741 -35.31 -3.719 -35.366 -3.708 C -35.366 -2.805 -35.366 -1.921 -35.366 -0.987 Z" style=""/>
  <path fill="#FF7C00" opacity="1.000000" stroke="none" d="M 21.502 -7.71 C 21.351 -7.307 21.201 -6.9 21.046 -6.499 C 20.717 -5.645 20.385 -4.793 20.054 -3.94 C 19.515 -2.551 18.976 -1.164 18.438 0.225 C 18.088 1.127 17.741 2.032 17.389 2.933 C 17.327 3.092 17.299 3.253 17.299 3.435 C 17.303 4.637 17.301 5.838 17.301 7.04 C 17.301 7.135 17.301 7.231 17.301 7.32 C 17.172 7.383 13.95 7.405 13.655 7.347 C 13.652 7.261 13.647 7.168 13.647 7.075 C 13.646 5.841 13.646 4.608 13.648 3.374 C 13.648 3.226 13.626 3.093 13.577 2.962 C 12.948 1.249 12.322 -0.464 11.695 -2.178 C 11.318 -3.206 10.942 -4.234 10.564 -5.26 C 10.297 -5.988 10.028 -6.714 9.76 -7.442 C 9.721 -7.547 9.685 -7.654 9.639 -7.783 C 9.7 -7.797 9.737 -7.813 9.774 -7.813 C 10.946 -7.815 12.121 -7.812 13.296 -7.818 C 13.401 -7.819 13.45 -7.758 13.489 -7.637 C 13.877 -6.43 14.264 -5.225 14.652 -4.019 C 14.904 -3.237 15.156 -2.456 15.408 -1.675 C 15.431 -1.605 15.46 -1.539 15.501 -1.428 C 16.233 -3.579 16.951 -5.688 17.674 -7.813 C 18.94 -7.813 20.2 -7.813 21.477 -7.795 C 21.497 -7.754 21.5 -7.732 21.502 -7.71 Z" style=""/>
  <path fill="#FF7C00" opacity="1.000000" stroke="none" d="M -16.281 -4.836 C -16.293 -5.58 -16.302 -6.299 -16.319 -7.017 C -16.324 -7.204 -16.361 -7.391 -16.318 -7.594 C -16.121 -7.617 -15.927 -7.646 -15.73 -7.661 C -15.189 -7.702 -14.647 -7.753 -14.105 -7.772 C -13.287 -7.798 -12.467 -7.843 -11.651 -7.8 C -10.605 -7.744 -9.574 -7.517 -8.58 -7.029 C -7.794 -6.642 -7.074 -6.106 -6.482 -5.275 C -5.932 -4.505 -5.588 -3.586 -5.446 -2.524 C -5.274 -1.237 -5.373 0.01 -5.761 1.208 C -6.095 2.239 -6.616 3.053 -7.281 3.695 C -8.007 4.399 -8.821 4.816 -9.678 5.088 C -10.19 5.251 -10.709 5.358 -11.234 5.407 C -11.407 5.423 -11.578 5.449 -11.771 5.473 C -11.798 5.722 -11.782 5.976 -11.784 6.229 C -11.786 6.477 -11.784 6.725 -11.784 6.973 C -11.784 7.231 -11.784 7.487 -11.784 7.744 C -11.784 7.992 -11.784 8.24 -11.784 8.482 C -11.918 8.547 -14.951 8.574 -15.34 8.515 C -15.343 8.417 -15.348 8.313 -15.348 8.209 C -15.349 6.139 -15.348 4.07 -15.348 1.999 C -15.348 0.194 -15.348 -1.61 -15.348 -3.416 C -15.348 -3.513 -15.348 -3.609 -15.348 -3.736 C -15.66 -3.702 -15.949 -3.671 -16.26 -3.637 C -16.267 -4.041 -16.275 -4.426 -16.281 -4.836 M -11.784 -0.987 C -11.784 -0.13 -11.784 0.727 -11.784 1.618 C -11.653 1.603 -11.549 1.587 -11.444 1.58 C -11.036 1.559 -10.637 1.462 -10.254 1.263 C -9.591 0.916 -9.123 0.318 -9.008 -0.696 C -8.933 -1.358 -9.001 -1.978 -9.325 -2.515 C -9.556 -2.895 -9.852 -3.131 -10.175 -3.315 C -10.644 -3.582 -11.14 -3.669 -11.639 -3.735 C -11.683 -3.741 -11.729 -3.719 -11.784 -3.708 C -11.784 -2.805 -11.784 -1.921 -11.784 -0.987 Z" style=""/>
  <path fill="#FE7C00" opacity="1.000000" stroke="none" d="M 42.693 -5.409 C 42.523 -5.147 42.353 -4.898 42.18 -4.652 C 41.824 -4.14 41.466 -3.631 41.109 -3.12 C 41.037 -3.017 40.968 -2.911 40.893 -2.798 C 40.756 -2.973 40.635 -3.14 40.506 -3.293 C 40.111 -3.76 39.665 -4.081 39.147 -4.18 C 38.833 -4.238 38.52 -4.239 38.218 -4.066 C 37.896 -3.879 37.744 -3.444 37.859 -3.024 C 37.91 -2.84 37.996 -2.686 38.121 -2.596 C 38.345 -2.432 38.573 -2.274 38.806 -2.139 C 39.371 -1.811 39.944 -1.512 40.507 -1.177 C 41.066 -0.845 41.563 -0.387 41.95 0.281 C 42.345 0.962 42.533 1.746 42.565 2.608 C 42.587 3.191 42.554 3.767 42.413 4.326 C 42.216 5.101 41.87 5.718 41.393 6.197 C 40.846 6.747 40.224 7.045 39.566 7.222 C 38.966 7.383 38.361 7.41 37.754 7.353 C 37.041 7.286 36.346 7.087 35.684 6.697 C 35.368 6.51 35.067 6.288 34.785 6.018 C 34.749 5.984 34.715 5.944 34.67 5.893 C 35.034 4.854 35.395 3.818 35.764 2.765 C 35.835 2.816 35.893 2.856 35.949 2.898 C 36.613 3.392 37.317 3.699 38.069 3.799 C 38.336 3.835 38.598 3.814 38.858 3.743 C 38.954 3.716 39.049 3.664 39.136 3.6 C 39.393 3.41 39.461 2.996 39.292 2.663 C 39.205 2.489 39.088 2.356 38.951 2.271 C 38.735 2.138 38.516 2.012 38.294 1.899 C 37.87 1.682 37.435 1.5 37.019 1.261 C 36.558 0.996 36.13 0.647 35.742 0.207 C 35.151 -0.463 34.805 -1.321 34.706 -2.37 C 34.638 -3.089 34.647 -3.805 34.789 -4.506 C 35.018 -5.645 35.533 -6.467 36.275 -7.025 C 36.901 -7.495 37.578 -7.721 38.286 -7.787 C 38.5 -7.808 38.715 -7.819 38.931 -7.818 C 39.735 -7.812 40.51 -7.599 41.237 -7.116 C 41.76 -6.769 42.223 -6.304 42.587 -5.67 C 42.618 -5.616 42.645 -5.558 42.684 -5.495 C 42.693 -5.466 42.693 -5.446 42.693 -5.409 Z" style=""/>
</svg>