<?xml version="1.0" encoding="UTF-8" standalone="no"?>
<svg
   viewBox="0 0 30 30"
   width="30pt"
   height="30pt"
   version="1.1"
   id="svg133"
   xml:space="preserve"
   xmlns="http://www.w3.org/2000/svg"
   xmlns:svg="http://www.w3.org/2000/svg"><defs
     id="defs137" /><g
     id="g248"
     transform="matrix(0.02677556,0,0,0.02677556,7.0930097,4.2045265)"><path
       d="m 274,50.594 c -8.304,1.779 -21.297,8.154 -27.19,13.342 -6.295,5.541 -10.19,11.984 -13.648,22.577 -6.444,19.738 -6.662,21.951 -6.662,67.487 0,79.186 1.602,219.544 2.603,228 2.271,19.191 7.389,31.31 17.876,42.324 11.995,12.599 24.665,18.509 41.613,19.41 33.124,1.762 54.723,-16.523 59.339,-50.234 1.378,-10.063 2.488,-145.043 1.277,-155.218 -1.248,-10.476 -3.573,-15.006 -9.285,-18.091 -4.301,-2.322 -4.893,-2.373 -21.423,-1.85 -18.973,0.601 -23.036,1.435 -27.932,5.734 -5.628,4.941 -7.336,18.052 -3.178,24.398 2.171,3.312 8.475,6.435 14.357,7.11 2.614,0.3 5.765,0.751 7.003,1.001 l 2.25,0.454 -0.021,44.231 c -0.027,58.536 -1.286,89.377 -3.89,95.262 -2.356,5.328 -7.831,8.454 -16.121,9.206 -7.413,0.672 -12.018,-0.943 -16.346,-5.733 -6.658,-7.37 -6.763,-8.32 -7.716,-69.504 -1.554,-99.824 -1.581,-212.867 -0.054,-222.741 2.165,-13.998 8.222,-19.961 21.706,-21.371 16.383,-1.712 19.442,6.427 19.442,51.732 0,29.621 0.294,31.426 5.895,36.138 7.76,6.53 20.388,6.185 27.949,-0.764 l 3.656,-3.359 -0.116,-20.318 c -0.189,-33.07 -3.343,-62.72 -7.665,-72.065 -2.938,-6.354 -10.457,-16.465 -14.403,-19.37 -4.873,-3.586 -10.97,-6.324 -17.535,-7.871 -7.729,-1.823 -23.076,-1.783 -31.781,0.083 m -40,415.083 c -8.857,2.771 -9.001,3.355 -8.994,36.523 0.003,16.31 0.441,29.869 1.034,32.005 1.291,4.649 5.183,7.795 9.645,7.795 5.352,0 9.066,-2.443 10.263,-6.752 1.285,-4.628 1.367,-55.184 0.098,-60.655 -1.41,-6.078 -7.265,-10.412 -12.046,-8.916 m 28.419,0.398 c -1.695,0.492 -3.945,1.848 -5,3.013 -1.786,1.971 -1.94,4.181 -2.223,31.765 -0.167,16.306 -0.025,31.16 0.316,33.009 0.97,5.257 4.517,8.138 10.019,8.138 3.741,0 5.163,-0.54 7.453,-2.83 3.835,-3.836 4.281,-8.349 3.825,-38.732 -0.427,-28.477 -1.047,-31.386 -7.241,-33.974 -1.927,-0.805 -3.631,-1.423 -3.786,-1.374 -0.155,0.05 -1.669,0.493 -3.363,0.985 m -60.764,1.058 c -1.015,0.59 -2.684,2.939 -3.71,5.22 -1.731,3.847 -1.823,6.244 -1.271,33.147 0.639,31.157 0.971,33.106 6.038,35.415 3.046,1.388 7.85,1.39 10.438,0.005 3.859,-2.066 4.85,-6.829 4.85,-23.316 0,-17.813 -0.503,-19.136 -6.848,-18.01 -2.009,0.357 -4.04,1.005 -4.515,1.44 -1.358,1.246 0.253,2.966 2.777,2.966 2.106,0 2.35,0.561 2.934,6.75 0.938,9.924 0.79,20.758 -0.323,23.685 -0.78,2.052 -1.649,2.565 -4.34,2.565 -5.433,0 -5.685,-1.509 -5.685,-34.047 0,-27.62 0.092,-29.045 2,-30.953 4.475,-4.475 6.946,-1.758 7.721,8.49 0.53,7.013 0.74,7.587 2.677,7.31 1.721,-0.246 2.16,-1.115 2.425,-4.8 0.479,-6.675 -0.646,-12.433 -2.901,-14.854 -2.215,-2.377 -8.961,-2.934 -12.267,-1.013 M 284.4,467.4 c -0.296,0.77 -0.169,17.758 0.281,37.75 l 0.819,36.35 4,0.329 c 5.972,0.492 11.061,-1.405 13.7,-5.104 2.271,-3.184 2.3,-3.586 2.3,-31.725 0,-32.441 -0.44,-34.823 -6.932,-37.536 -4.583,-1.915 -13.442,-1.955 -14.168,-0.064 m -51.995,4.706 c -1.788,1.976 -1.898,3.901 -1.786,31.32 0.077,19.107 0.499,29.926 1.218,31.269 1.552,2.9 4.75,3.46 7.417,1.3 2.209,-1.791 2.248,-2.213 2.345,-25.658 0.123,-29.781 -0.326,-36.064 -2.753,-38.491 -2.4,-2.4 -4.097,-2.332 -6.441,0.26 M 262,472 c -1.904,1.904 -2,3.333 -2,29.851 0,28.831 0.52,33.286 4.105,35.205 2.211,1.183 5.318,-0.109 6.277,-2.61 0.34,-0.885 0.618,-14.562 0.618,-30.393 0,-27.605 -0.085,-28.891 -2.073,-31.418 -2.481,-3.154 -4.246,-3.316 -6.927,-0.635 m 28,31.937 V 537 l 2.75,-0.015 c 7.251,-0.041 7.775,-2.264 7.595,-32.208 -0.137,-22.775 -0.366,-26.156 -2,-29.5 -1.494,-3.059 -2.463,-3.837 -5.095,-4.09 L 290,470.873 v 33.064"
       stroke="none"
       fill="#b9cc05"
       fill-rule="evenodd"
       id="path233" /><path
       d="M 391.089,52.083 C 361.401,54.944 361.267,55.11 362.906,87 c 0.58,11.275 1.525,79 2.102,150.5 1.459,180.907 1.544,186.345 2.982,190.988 0.68,2.194 2.758,5.424 4.618,7.178 5.124,4.833 10.89,5.628 36.81,5.073 18.765,-0.401 23.182,-0.796 29.403,-2.629 26.096,-7.687 42.413,-25.121 46.063,-49.214 2.915,-19.245 1.957,-102.139 -1.338,-115.65 -3.256,-13.355 -12.38,-26.747 -23.399,-34.344 l -4.925,-3.395 6.139,-6.509 c 6.813,-7.225 12.742,-17.601 15.193,-26.59 3.411,-12.51 2.641,-90.503 -1.073,-108.684 C 472.503,79.146 463.21,68.04 447.745,60.58 430.652,52.334 414.157,49.86 391.089,52.083 m -282.018,1.651 c -5.755,2.964 -7.371,6.151 -7.862,15.505 -0.524,9.977 1.086,14.751 5.981,17.735 2.993,1.825 5.02,2.019 21.179,2.022 L 146.238,89 145.6,187.75 c -1.253,193.654 -1.215,233.248 0.23,239.541 1.832,7.982 6.794,13.23 13.451,14.228 2.628,0.395 7.471,0.522 10.762,0.284 6.762,-0.489 10.329,-2.586 13.441,-7.901 1.958,-3.343 1.984,-5.664 2,-173.895 L 185.5,89.5 203.031,88.97 c 15.174,-0.459 17.997,-0.801 21,-2.549 4.313,-2.511 5.838,-6.618 5.911,-15.921 0.062,-7.959 -1.777,-12.636 -6.264,-15.929 -2.762,-2.026 -3.993,-2.077 -57,-2.337 -50.14,-0.247 -54.434,-0.135 -57.607,1.5 M 402,156.139 v 67.139 l 5.941,-0.539 c 16.817,-1.525 29.023,-13.621 32.278,-31.987 1.426,-8.052 1.431,-61.116 0.007,-73.895 -1.26,-11.299 -3.397,-16.136 -9.398,-21.272 C 425.552,91.069 418.795,89 409.318,89 H 402 v 67.139 m 2,175.403 v 73.752 l 9.25,-0.576 c 23.223,-1.447 33.348,-10.683 35.894,-32.74 1.549,-13.425 0.392,-69.108 -1.631,-78.472 -2.194,-10.156 -7.323,-24.995 -9.673,-27.982 -4.081,-5.188 -9.253,-6.906 -22.09,-7.339 L 404,257.789 v 73.753 M 101.473,467.044 c -1.127,1.822 1.651,3.956 5.149,3.956 H 110 v 33.809 c 0,35.279 0.362,38.417 4.261,36.921 1.375,-0.527 1.49,-4.584 1.017,-35.663 L 114.744,471 l 3.378,-0.015 c 4.235,-0.02 6.351,-1.309 5.555,-3.384 C 123.168,466.274 121.27,466 112.59,466 c -6.195,0 -10.735,0.426 -11.117,1.044 m 26.765,36.635 0.262,37.821 h 2.5 2.5 l -0.343,-17.75 -0.343,-17.75 3.843,-0.014 c 2.114,-0.007 4.855,-0.285 6.093,-0.616 l 2.25,-0.603 v 17.494 c 0,14.544 0.26,17.71 1.542,18.774 3.402,2.823 3.811,-0.113 3.377,-24.254 -0.231,-12.804 -0.419,-29.346 -0.419,-36.759 0,-12.393 -0.151,-13.507 -1.88,-13.848 -1.034,-0.204 -2.291,0.236 -2.793,0.978 -0.502,0.741 -0.781,8.548 -0.62,17.348 l 0.293,16 -5.726,0.299 -5.726,0.299 -0.274,-17.299 c -0.271,-17.112 -0.298,-17.302 -2.536,-17.62 l -2.262,-0.321 0.262,37.821 m 30.829,-36.259 c -0.872,1.05 -1.079,10.615 -0.797,36.75 l 0.381,35.33 2.424,1.235 c 2.544,1.296 10.64,1.695 13.343,0.658 0.87,-0.334 1.582,-1.459 1.582,-2.5 0,-1.647 -0.78,-1.893 -6,-1.893 h -6 v -16 -16 h 4.893 c 3.275,0 5.071,-0.464 5.431,-1.402 0.81,-2.112 -0.198,-2.598 -5.385,-2.598 h -4.728 l -0.379,-12.25 c -0.553,-17.922 -0.603,-17.75 5.159,-17.75 4.794,0 7.841,-1.844 6.536,-3.956 -1.015,-1.643 -15.051,-1.323 -16.46,0.376 m 170.294,0.081 c -0.317,0.826 -0.335,17.542 -0.04,37.147 0.421,27.953 0.822,35.839 1.858,36.543 0.726,0.493 3.928,0.734 7.115,0.536 4.684,-0.292 6.313,-0.879 8.5,-3.064 2.629,-2.625 2.715,-3.081 3.029,-15.936 0.31,-12.727 0.227,-13.374 -2.176,-16.915 l -2.498,-3.681 1.925,-3.777 c 1.493,-2.928 1.926,-5.871 1.926,-13.098 0,-10.905 -1.502,-15.43 -5.872,-17.69 -3.997,-2.067 -12.982,-2.109 -13.767,-0.065 m 28.852,33.508 0.287,35.157 3.266,2.917 c 5.471,4.887 12.649,3.821 15.913,-2.363 1.432,-2.711 1.755,-7.013 2.043,-27.22 0.188,-13.2 -0.01,-28.275 -0.44,-33.5 -0.726,-8.814 -0.945,-9.523 -3.032,-9.82 l -2.25,-0.319 -0.015,32.819 c -0.016,35.465 -0.295,37.558 -5.094,38.121 -5.199,0.609 -5.35,-0.329 -5.891,-36.703 l -0.5,-33.598 -2.287,-0.324 -2.287,-0.325 0.287,35.158 m 30.454,-34.342 C 388.3,467.033 388,483.922 388,504.198 c 0,31.984 0.2,36.942 1.513,37.445 3.478,1.335 4.044,-1.097 4.241,-18.223 0.105,-9.184 0.45,-16.957 0.767,-17.274 0.316,-0.316 1.341,-0.1 2.277,0.48 1.863,1.156 4.062,9.191 6.759,24.706 1.699,9.778 3.182,12.329 5.702,9.809 1.302,-1.302 -3.556,-29.781 -5.845,-34.27 -1.19,-2.335 -1.122,-2.826 0.617,-4.399 2.819,-2.551 3.957,-7.716 3.962,-17.972 0.004,-10.095 -1.735,-15.094 -5.993,-17.221 -2.629,-1.314 -12.193,-1.753 -13.333,-0.612 m 32.753,0.478 c -1.144,0.555 -2.924,2.437 -3.956,4.182 -1.738,2.941 -1.855,5.326 -1.598,32.612 0.296,31.326 0.563,33.147 5.351,36.5 2.578,1.806 8.01,2.045 10.933,0.481 3.829,-2.049 4.85,-6.853 4.85,-22.806 0,-8.223 -0.273,-15.662 -0.607,-16.532 -0.439,-1.144 -1.961,-1.582 -5.5,-1.582 -4.226,0 -4.893,0.272 -4.893,2 0,1.556 0.667,2 3,2 h 3 v 14.809 c 0,15.272 -0.447,17.195 -4.306,18.541 -1.181,0.412 -2.651,-0.216 -4.25,-1.815 L 421,533.091 v -29.546 c 0,-28.212 0.09,-29.635 2,-31.545 2.192,-2.192 5.489,-2.637 6.57,-0.887 0.379,0.613 0.968,4.55 1.309,8.75 0.55,6.763 0.85,7.637 2.621,7.637 1.656,0 2.056,-0.774 2.323,-4.5 0.479,-6.673 -0.716,-12.893 -2.895,-15.072 -2.113,-2.113 -7.948,-2.511 -11.508,-0.783 m 24.07,-0.129 c -1.018,1.648 -0.541,72.333 0.495,73.369 1.201,1.201 10.263,2.021 13.461,1.218 1.663,-0.418 2.554,-1.332 2.554,-2.622 0,-1.755 -0.686,-1.981 -6,-1.981 h -6 v -16 -16 h 5.031 c 3.613,0 5.199,-0.435 5.624,-1.543 0.889,-2.316 -0.146,-2.792 -5.647,-2.598 L 450,501.037 V 486.068 471.1 l 5.75,-0.3 c 4.983,-0.26 5.75,-0.567 5.75,-2.3 0,-1.801 -0.764,-2.029 -7.666,-2.291 -4.786,-0.181 -7.92,0.122 -8.344,0.807 m 22.435,-0.266 c -0.552,5.487 0.425,73.99 1.064,74.633 0.482,0.485 1.582,0.612 2.444,0.281 1.34,-0.514 1.567,-3.137 1.567,-18.133 0,-14.527 0.245,-17.531 1.429,-17.531 3.039,0 4.418,3.395 6.989,17.199 1.466,7.865 2.879,15.314 3.142,16.551 0.475,2.233 3.751,3.174 4.852,1.392 0.872,-1.41 -5.138,-32.074 -6.776,-34.575 -1.406,-2.146 -1.344,-2.46 0.869,-4.384 2.972,-2.585 4.001,-7.294 3.973,-18.183 -0.026,-9.867 -1.58,-14.484 -5.569,-16.547 -2.888,-1.493 -13.85,-2.044 -13.984,-0.703 m -133.586,4.808 c -0.759,1.98 0.172,28.286 1.032,29.146 1.335,1.335 5.808,-1.887 7.181,-5.174 1.682,-4.026 1.895,-14.381 0.405,-19.744 -1.139,-4.101 -1.262,-4.224 -5.229,-5.172 -2.05,-0.49 -2.933,-0.244 -3.389,0.944 m 58.885,14.049 c 0.307,17.678 0.833,18.828 6.411,14.032 2.846,-2.448 2.865,-2.541 2.865,-14.014 0,-12.805 -0.527,-14.08 -6.289,-15.233 l -3.263,-0.652 0.276,15.867 M 473,485.875 c 0,15.143 0.115,16.125 1.889,16.125 1.039,0 2.952,-0.859 4.25,-1.909 2.203,-1.782 2.382,-2.703 2.675,-13.75 0.352,-13.249 -0.225,-14.904 -5.564,-15.953 L 473,469.75 v 16.125 m -138,35.704 v 16.58 l 3.25,-0.68 c 5.841,-1.222 6.25,-2.262 6.25,-15.91 C 344.5,507.73 343.403,505 337.845,505 H 335 v 16.579"
       stroke="none"
       fill="#444849"
       fill-rule="evenodd"
       id="path235" /><path
       d="m 402.472,156 c 0,37.125 0.125,52.313 0.278,33.75 0.152,-18.562 0.152,-48.937 0,-67.5 -0.153,-18.562 -0.278,-3.375 -0.278,33.75 m 38.93,0 c 0,8.525 0.154,12.012 0.341,7.75 0.188,-4.262 0.188,-11.238 0,-15.5 -0.187,-4.262 -0.341,-0.775 -0.341,7.75 m -295.977,9 c 0,11.825 0.144,16.662 0.321,10.75 0.177,-5.912 0.177,-15.588 0,-21.5 -0.177,-5.912 -0.321,-1.075 -0.321,10.75 M 364.4,199.5 c 0.001,8.25 0.156,11.492 0.344,7.204 0.188,-4.287 0.187,-11.037 -0.002,-15 -0.19,-3.962 -0.343,-0.454 -0.342,7.796 m 1.007,97.5 c 0,9.075 0.152,12.788 0.337,8.25 0.185,-4.538 0.185,-11.962 0,-16.5 -0.185,-4.538 -0.337,-0.825 -0.337,8.25 m -220.988,50 c 0,10.725 0.147,15.113 0.327,9.75 0.179,-5.363 0.179,-14.137 0,-19.5 -0.18,-5.363 -0.327,-0.975 -0.327,9.75 m 41.011,12 c 0,12.925 0.143,18.212 0.317,11.75 0.174,-6.462 0.174,-17.038 0,-23.5 -0.174,-6.462 -0.317,-1.175 -0.317,11.75 m 207.792,126.75 0.222,15.75 0.304,-15.182 c 0.267,-13.377 0.508,-15.235 2.028,-15.634 1.266,-0.332 1.126,-0.483 -0.526,-0.568 L 393,470 l 0.222,15.75 M 115.42,490.5 c -0.001,11 0.145,15.636 0.325,10.303 0.179,-5.333 0.18,-14.333 10e-4,-20 -0.178,-5.667 -0.325,-1.303 -0.326,9.697 M 444.411,489 c 0,9.625 0.15,13.563 0.334,8.75 0.183,-4.812 0.183,-12.687 0,-17.5 -0.184,-4.812 -0.334,-0.875 -0.334,8.75"
       stroke="none"
       fill="#707b33"
       fill-rule="evenodd"
       id="path237" /></g></svg>
