<?xml version="1.0" encoding="UTF-8" standalone="no"?>
<svg
   viewBox="0 0 24 24"
   width="24pt"
   height="24pt"
   version="1.1"
   id="svg4"
   sodipodi:docname="uspizza.svg"
   xml:space="preserve"
   inkscape:version="1.2.2 (732a01da63, 2022-12-09)"
   xmlns:inkscape="http://www.inkscape.org/namespaces/inkscape"
   xmlns:sodipodi="http://sodipodi.sourceforge.net/DTD/sodipodi-0.dtd"
   xmlns="http://www.w3.org/2000/svg"
   xmlns:svg="http://www.w3.org/2000/svg"><defs
     id="defs8" /><sodipodi:namedview
     id="namedview6"
     pagecolor="#ffffff"
     bordercolor="#000000"
     borderopacity="0.25"
     inkscape:showpageshadow="2"
     inkscape:pageopacity="0.0"
     inkscape:pagecheckerboard="0"
     inkscape:deskcolor="#d1d1d1"
     inkscape:document-units="pt"
     showgrid="false"
     inkscape:zoom="17.766058"
     inkscape:cx="10.21611"
     inkscape:cy="16.407692"
     inkscape:window-width="1920"
     inkscape:window-height="991"
     inkscape:window-x="-9"
     inkscape:window-y="-9"
     inkscape:window-maximized="1"
     inkscape:current-layer="svg4" /><g
     id="g201"
     transform="matrix(0.00386789,0,0,0.00386789,3.2914689,3.9161496)"><path
       d="m 1287.75,553.749 c 10.037,0.163 26.463,0.163 36.5,0 10.037,-0.164 1.825,-0.297 -18.25,-0.297 -20.075,0 -28.287,0.133 -18.25,0.297 m 589.062,-10e-4 c 8.421,0.168 21.921,0.167 30,0 8.078,-0.168 1.188,-0.305 -15.312,-0.305 -16.5,10e-4 -23.11,0.138 -14.688,0.305 m -350.992,1.001 c 13.925,0.157 36.425,0.157 50,0 13.574,-0.157 2.18,-0.285 -25.32,-0.285 -27.5,0 -38.606,0.128 -24.68,0.285 m 146.93,0 c 11.138,0.161 29.362,0.161 40.5,0 11.138,-0.161 2.025,-0.293 -20.25,-0.293 -22.275,0 -31.388,0.132 -20.25,0.293 M 3670.49,751 c 0,108.625 0.117,153.062 0.26,98.75 0.143,-54.313 0.143,-143.188 0,-197.5 -0.143,-54.313 -0.26,-9.875 -0.26,98.75 m -2033.262,25.559 c -0.646,1.618 -13.327,36.87 -28.182,78.339 -14.854,41.468 -27.235,75.624 -27.512,75.902 -0.278,0.277 -38.331,0.831 -84.564,1.23 -46.232,0.399 -84.248,0.915 -84.481,1.147 -0.232,0.233 29.713,23.091 66.545,50.796 36.831,27.705 66.966,50.776 66.966,51.267 0,1.097 -50.016,156.894 -50.781,158.18 -0.301,0.506 0.089,0.669 0.867,0.362 0.778,-0.307 32.388,-21.568 70.245,-47.246 37.857,-25.678 69.357,-46.478 70,-46.221 0.643,0.257 31.604,21.832 68.803,47.945 37.199,26.113 68.113,47.775 68.699,48.137 0.645,0.399 0.512,-1.026 -0.339,-3.62 -0.771,-2.352 -11.566,-38.027 -23.989,-79.277 -12.422,-41.25 -22.762,-75.52 -22.978,-76.157 -0.216,-0.636 30.486,-23.586 68.226,-51 l 68.619,-49.843 -76.436,-1.76 c -42.04,-0.967 -80.486,-2.014 -85.436,-2.326 l -9,-0.567 -25.827,-76.173 c -14.204,-41.896 -26.377,-77.497 -27.049,-79.115 l -1.223,-2.94 -1.173,2.94 M 2158.492,1033 c 0,136.675 0.116,192.588 0.258,124.25 0.142,-68.337 0.142,-180.162 0,-248.5 -0.142,-68.337 -0.258,-12.425 -0.258,124.25 m -713.322,791.75 c 57.569,0.143 152.069,0.143 210,0 57.932,-0.143 10.83,-0.259 -104.67,-0.259 -115.5,0 -162.898,0.116 -105.33,0.259 m 416.31,94.25 c 0,52.525 0.121,74.013 0.27,47.75 0.148,-26.263 0.148,-69.237 0,-95.5 -0.149,-26.263 -0.27,-4.775 -0.27,47.75 M 3306,1824.75 c 0,0.678 138.328,0.675 335.5,-0.01 40.7,-0.141 -18.137,-0.366 -130.75,-0.5 -112.613,-0.133 -204.75,0.095 -204.75,0.507 M 1464.483,2028 c 0,62.425 0.12,87.963 0.267,56.75 0.147,-31.212 0.147,-82.287 0,-113.5 -0.147,-31.212 -0.267,-5.675 -0.267,56.75 m 693.343,123.75 c 25.479,0.148 66.879,0.148 92,0 25.121,-0.149 4.274,-0.271 -46.326,-0.271 -50.6,0 -71.153,0.122 -45.674,0.271 m 665,0 c 25.479,0.148 66.879,0.148 92,0 25.121,-0.149 4.274,-0.271 -46.326,-0.271 -50.6,0 -71.153,0.122 -45.674,0.271 M 641,2648 v 209 H 2273.5 3906 V 2648 2439 H 2273.5 641 v 209 m 1680.179,-59.055 c -18.429,4.526 -34.394,16.528 -41.59,31.265 -4.814,9.862 -6.589,17.48 -6.589,28.29 0,24.114 12.126,43.759 33.274,53.905 11.375,5.457 20.727,7.595 33.226,7.595 24.571,0 45.488,-10.536 57.349,-28.887 6.805,-10.529 8.651,-17.489 8.651,-32.613 0,-10.988 -0.358,-14.035 -2.312,-19.69 -6.908,-19.995 -24.83,-35.371 -46.885,-40.226 -9.597,-2.112 -25.728,-1.946 -35.124,0.361 m 407.461,-0.394 c -8.833,1.756 -17.911,6.077 -23.834,11.345 -14.805,13.169 -14.937,38.376 -0.26,49.571 5.907,4.505 13.269,7.28 31.562,11.892 9.68,2.441 19.035,5.181 20.789,6.088 6.498,3.36 6.108,10.85 -0.739,14.204 -2.836,1.389 -6.019,1.781 -14.158,1.743 -11.902,-0.056 -22.163,-2.428 -32.021,-7.404 -3.257,-1.645 -6.319,-2.99 -6.803,-2.99 -0.919,0 -11.176,21.887 -11.176,23.847 0,1.577 8.076,5.471 17.524,8.449 24.335,7.669 53.703,5.826 69.59,-4.369 17.102,-10.975 21.688,-35.033 9.304,-48.807 -6.536,-7.27 -13.872,-10.609 -34.598,-15.746 -17.576,-4.357 -23.513,-6.433 -25.055,-8.764 -1.587,-2.399 -0.756,-7.71 1.572,-10.038 2.42,-2.42 10.07,-4.572 16.254,-4.572 6.292,0 18.767,3.113 26.171,6.529 l 7.261,3.352 1.315,-3.191 c 0.723,-1.754 3.055,-7.408 5.182,-12.562 4.457,-10.803 4.604,-10.42 -5.46,-14.233 -14.673,-5.558 -36.999,-7.408 -52.42,-4.344 m 128,0 c -8.833,1.756 -17.911,6.077 -23.834,11.345 -14.805,13.169 -14.937,38.376 -0.26,49.571 5.907,4.505 13.269,7.28 31.562,11.892 9.68,2.441 19.035,5.181 20.789,6.088 6.498,3.36 6.108,10.85 -0.739,14.204 -2.836,1.389 -6.019,1.781 -14.158,1.743 -11.902,-0.056 -22.163,-2.428 -32.021,-7.404 -3.257,-1.645 -6.319,-2.99 -6.803,-2.99 -0.919,0 -11.176,21.887 -11.176,23.847 0,1.577 8.076,5.471 17.524,8.449 24.335,7.669 53.703,5.826 69.59,-4.369 17.102,-10.975 21.688,-35.033 9.304,-48.807 -6.536,-7.27 -13.872,-10.609 -34.598,-15.746 -17.576,-4.357 -23.513,-6.433 -25.055,-8.764 -1.587,-2.399 -0.756,-7.71 1.572,-10.038 2.42,-2.42 10.07,-4.572 16.254,-4.572 6.292,0 18.767,3.113 26.171,6.529 l 7.261,3.352 1.315,-3.191 c 0.723,-1.754 3.055,-7.408 5.182,-12.562 4.457,-10.803 4.604,-10.42 -5.46,-14.233 -14.673,-5.558 -36.999,-7.408 -52.42,-4.344 m 216.539,0.394 c -18.429,4.526 -34.394,16.528 -41.59,31.265 -4.814,9.862 -6.589,17.48 -6.589,28.29 0,24.114 12.126,43.759 33.274,53.905 11.375,5.457 20.727,7.595 33.226,7.595 24.571,0 45.488,-10.536 57.349,-28.887 6.805,-10.529 8.651,-17.489 8.651,-32.613 0,-10.988 -0.358,-14.035 -2.312,-19.69 -6.908,-19.995 -24.83,-35.371 -46.885,-40.226 -9.597,-2.112 -25.728,-1.946 -35.124,0.361 m 577.461,-0.394 c -8.833,1.756 -17.911,6.077 -23.834,11.345 -14.805,13.169 -14.937,38.376 -0.26,49.571 5.907,4.505 13.269,7.28 31.562,11.892 9.68,2.441 19.035,5.181 20.789,6.088 6.498,3.36 6.108,10.85 -0.739,14.204 -2.836,1.389 -6.019,1.781 -14.158,1.743 -11.902,-0.056 -22.163,-2.428 -32.021,-7.404 -3.257,-1.645 -6.319,-2.99 -6.803,-2.99 -0.919,0 -11.176,21.887 -11.176,23.847 0,1.577 8.076,5.471 17.524,8.449 24.335,7.669 53.703,5.826 69.59,-4.369 17.102,-10.975 21.688,-35.033 9.304,-48.807 -6.536,-7.27 -13.872,-10.609 -34.598,-15.746 -17.576,-4.357 -23.513,-6.433 -25.055,-8.764 -1.587,-2.399 -0.756,-7.71 1.572,-10.038 2.42,-2.42 10.07,-4.572 16.254,-4.572 6.292,0 18.767,3.113 26.171,6.529 l 7.261,3.352 1.315,-3.191 c 0.723,-1.754 3.055,-7.408 5.182,-12.562 4.457,-10.803 4.604,-10.42 -5.46,-14.233 -14.673,-5.558 -36.999,-7.408 -52.42,-4.344 M 798,2601.5 v 13.5 h 18.5 18.5 v 47 47 h 17.5 17.5 v -47 -47 h 18 18 v -13.5 -13.5 h -54 -54 v 13.5 m 138,47 v 60.5 h 17 17 v -23.5 -23.5 h 23 23 v 23.5 23.5 h 17 17 v -60.5 -60.5 h -17 -17 v 23 23 h -23 -23 v -23 -23 h -17 -17 v 60.5 m 155,0 v 60.5 h 48.5 48.5 v -13 -13 h -31.5 -31.5 v -11 -11 h 26.5 26.5 v -13 -13 h -26.5 -26.5 v -10.5 -10.5 h 30 30 v -13 -13 h -47 -47 v 60.5 m 199,-0.069 V 2709 h 17 17 v -15.39 -15.391 l 18.25,-0.454 c 16.177,-0.402 19.045,-0.735 25.25,-2.932 13.079,-4.629 21.254,-11.525 26.647,-22.48 2.722,-5.529 3.226,-7.789 3.636,-16.283 0.391,-8.14 0.103,-11.087 -1.651,-16.863 -4.125,-13.579 -13.687,-22.873 -29.132,-28.315 -6.21,-2.188 -8.074,-2.306 -41.75,-2.659 l -35.25,-0.37 v 60.568 m 142,0.069 v 60.5 h 17 17 v -60.5 -60.5 h -17 -17 v 60.5 m 70,-47.015 v 13.485 l 29.429,0.265 29.428,0.265 -29.907,36 -29.907,36 -0.021,10.75 L 1501,2709 h 54 54 v -13.486 -13.486 l -31.454,-0.264 -31.455,-0.264 29.955,-35.955 29.954,-35.956 V 2598.795 2588 h -52 -52 v 13.485 m 134,0 v 13.485 l 29.429,0.265 29.428,0.265 -29.907,36 -29.907,36 -0.021,10.75 L 1635,2709 h 54 54 v -13.486 -13.486 l -31.454,-0.264 -31.455,-0.264 29.955,-35.955 29.954,-35.956 V 2598.795 2588 h -52 -52 v 13.485 m 150.164,46.273 c -14.39,32.892 -26.164,60.128 -26.164,60.523 0,0.396 7.765,0.719 17.256,0.719 h 17.256 l 4.518,-11.75 4.517,-11.75 h 25.453 25.453 l 4.517,11.75 4.518,11.75 h 17.756 c 9.766,0 17.756,-0.167 17.756,-0.37 0,-0.204 -11.834,-27.317 -26.298,-60.25 l -26.298,-59.88 -17.038,-0.273 -17.038,-0.273 -26.164,59.804 M 1993,2648.431 V 2709 h 17 17 v -15.39 -15.391 l 18.25,-0.454 c 16.177,-0.402 19.045,-0.735 25.25,-2.932 13.079,-4.629 21.254,-11.525 26.647,-22.48 2.722,-5.529 3.226,-7.789 3.636,-16.283 0.391,-8.14 0.103,-11.087 -1.651,-16.863 -4.125,-13.579 -13.687,-22.873 -29.132,-28.315 -6.21,-2.188 -8.074,-2.306 -41.75,-2.659 l -35.25,-0.37 v 60.568 m 142,0.069 v 60.5 h 17 17 v -16 -16 l 9.25,0.045 9.25,0.045 10.551,15.705 10.552,15.705 18.198,0.273 c 10.01,0.149 18.199,0 18.199,-0.324 0,-0.329 -5.591,-8.759 -12.423,-18.734 l -12.424,-18.137 4.772,-3.214 c 6.67,-4.491 12.607,-11.572 15.277,-18.217 1.915,-4.767 2.271,-7.521 2.283,-17.67 0.014,-11.608 -0.099,-12.254 -3.304,-18.762 -6.147,-12.483 -17.761,-21.035 -32.935,-24.251 -5.039,-1.068 -14.905,-1.434 -38.996,-1.447 L 2135,2588 v 60.5 m 306,0 v 60.5 h 17 17 v -21 -21 h 26.5 26.5 v -13 -13 h -26.5 -26.5 v -13.5 -13.5 h 30 30 v -13 -13 h -47 -47 v 60.5 m 127,0 v 60.5 h 48.5 48.5 v -13 -13 h -31.5 -31.5 v -11 -11 h 26.5 26.5 v -13 -13 h -26.5 -26.5 v -10.5 -10.5 h 30 30 v -13 -13 h -47 -47 v 60.5 m 388,0 v 60.5 h 17 17 v -60.5 -60.5 h -17 -17 v 60.5 m 237,0 v 60.5 h 16.5 16.5 v -31.722 c 0,-31.565 0.01,-31.713 1.971,-29.75 1.083,1.085 12.907,15.247 26.275,31.472 l 24.305,29.5 14.225,0.277 14.224,0.278 V 2648.527 2588 h -16.486 -16.486 l -0.264,31.94 -0.264,31.939 -26,-31.883 -26,-31.884 -14.25,-0.056 L 3193,2588 v 60.5 m 168.164,-0.742 c -14.39,32.892 -26.164,60.128 -26.164,60.523 0,0.396 7.765,0.719 17.256,0.719 h 17.256 l 4.518,-11.75 4.517,-11.75 h 25.453 25.453 l 4.517,11.75 4.518,11.75 h 17.756 c 9.766,0 17.756,-0.167 17.756,-0.37 0,-0.204 -11.834,-27.317 -26.298,-60.25 l -26.298,-59.88 -17.038,-0.273 -17.038,-0.273 -26.164,59.804 M 3501,2648.5 v 60.5 h 45.5 45.5 v -13.5 -13.5 h -28.5 -28.5 v -47 -47 h -17 -17 v 60.5 m -2177,-15.402 v 18.098 l 13.25,-0.354 c 10.75,-0.287 14.002,-0.73 17.237,-2.348 9.802,-4.903 12.27,-18.687 4.912,-27.432 -3.671,-4.363 -10.421,-6.062 -24.081,-6.062 H 1324 v 18.098 m 703,0 v 18.098 l 13.25,-0.354 c 10.75,-0.287 14.002,-0.73 17.237,-2.348 9.802,-4.903 12.27,-18.687 4.912,-27.432 -3.671,-4.363 -10.421,-6.062 -24.081,-6.062 H 2027 v 18.098 m 142,0.018 v 18.116 l 13.25,-0.4 c 10.589,-0.319 14.051,-0.794 17.237,-2.365 9.793,-4.831 12.272,-18.658 4.912,-27.405 -3.671,-4.363 -10.421,-6.062 -24.081,-6.062 H 2169 v 18.116 m 162.734,-17.089 c -12.712,3.201 -21.453,12.794 -23.744,26.058 -2.766,16.009 4.295,30.443 18.004,36.804 7.856,3.645 19.181,3.633 27.073,-0.028 24.569,-11.399 24.787,-49.34 0.347,-60.529 -5.896,-2.699 -15.894,-3.762 -21.68,-2.305 m 752,0 c -12.712,3.201 -21.453,12.794 -23.744,26.058 -2.766,16.009 4.295,30.443 18.004,36.804 7.856,3.645 19.181,3.633 27.073,-0.028 24.569,-11.399 24.787,-49.34 0.347,-60.529 -5.896,-2.699 -15.894,-3.762 -21.68,-2.305 m -1262.149,24.723 c -3.753,9.213 -7.043,17.313 -7.311,18 -0.377,0.967 2.961,1.25 14.726,1.25 11.765,0 15.103,-0.283 14.726,-1.25 -5.151,-13.211 -14.279,-34.75 -14.726,-34.75 -0.325,0 -3.662,7.537 -7.415,16.75 m 1575,0 c -3.753,9.213 -7.043,17.313 -7.311,18 -0.377,0.967 2.961,1.25 14.726,1.25 11.765,0 15.103,-0.283 14.726,-1.25 -5.151,-13.211 -14.279,-34.75 -14.726,-34.75 -0.325,0 -3.662,7.537 -7.415,16.75"
       stroke="none"
       fill="#c72127"
       fill-rule="evenodd"
       id="path183" /><path
       d="m 1287.75,553.749 c 10.037,0.163 26.463,0.163 36.5,0 10.037,-0.164 1.825,-0.297 -18.25,-0.297 -20.075,0 -28.287,0.133 -18.25,0.297 m 589.062,-10e-4 c 8.421,0.168 21.921,0.167 30,0 8.078,-0.168 1.188,-0.305 -15.312,-0.305 -16.5,10e-4 -23.11,0.138 -14.688,0.305 m -350.992,1.001 c 13.925,0.157 36.425,0.157 50,0 13.574,-0.157 2.18,-0.285 -25.32,-0.285 -27.5,0 -38.606,0.128 -24.68,0.285 m 146.93,0 c 11.138,0.161 29.362,0.161 40.5,0 11.138,-0.161 2.025,-0.293 -20.25,-0.293 -22.275,0 -31.388,0.132 -20.25,0.293 M 3670.49,751 c 0,108.625 0.117,153.062 0.26,98.75 0.143,-54.313 0.143,-143.188 0,-197.5 -0.143,-54.313 -0.26,-9.875 -0.26,98.75 m -2033.262,25.559 c -0.646,1.618 -13.327,36.87 -28.182,78.339 -14.854,41.468 -27.235,75.624 -27.512,75.902 -0.278,0.277 -38.331,0.831 -84.564,1.23 -46.232,0.399 -84.248,0.915 -84.481,1.147 -0.232,0.233 29.713,23.091 66.545,50.796 36.831,27.705 66.966,50.776 66.966,51.267 0,1.097 -50.016,156.894 -50.781,158.18 -0.301,0.506 0.089,0.669 0.867,0.362 0.778,-0.307 32.388,-21.568 70.245,-47.246 37.857,-25.678 69.357,-46.478 70,-46.221 0.643,0.257 31.604,21.832 68.803,47.945 37.199,26.113 68.113,47.775 68.699,48.137 0.645,0.399 0.512,-1.026 -0.339,-3.62 -0.771,-2.352 -11.566,-38.027 -23.989,-79.277 -12.422,-41.25 -22.762,-75.52 -22.978,-76.157 -0.216,-0.636 30.486,-23.586 68.226,-51 l 68.619,-49.843 -76.436,-1.76 c -42.04,-0.967 -80.486,-2.014 -85.436,-2.326 l -9,-0.567 -25.827,-76.173 c -14.204,-41.896 -26.377,-77.497 -27.049,-79.115 l -1.223,-2.94 -1.173,2.94 M 2158.492,1033 c 0,136.675 0.116,192.588 0.258,124.25 0.142,-68.337 0.142,-180.162 0,-248.5 -0.142,-68.337 -0.258,-12.425 -0.258,124.25 m -713.322,791.75 c 57.569,0.143 152.069,0.143 210,0 57.932,-0.143 10.83,-0.259 -104.67,-0.259 -115.5,0 -162.898,0.116 -105.33,0.259 m 416.31,94.25 c 0,52.525 0.121,74.013 0.27,47.75 0.148,-26.263 0.148,-69.237 0,-95.5 -0.149,-26.263 -0.27,-4.775 -0.27,47.75 M 3306,1824.75 c 0,0.678 138.328,0.675 335.5,-0.01 40.7,-0.141 -18.137,-0.366 -130.75,-0.5 -112.613,-0.133 -204.75,0.095 -204.75,0.507 M 1464.483,2028 c 0,62.425 0.12,87.963 0.267,56.75 0.147,-31.212 0.147,-82.287 0,-113.5 -0.147,-31.212 -0.267,-5.675 -0.267,56.75 m 693.343,123.75 c 25.479,0.148 66.879,0.148 92,0 25.121,-0.149 4.274,-0.271 -46.326,-0.271 -50.6,0 -71.153,0.122 -45.674,0.271 m 665,0 c 25.479,0.148 66.879,0.148 92,0 25.121,-0.149 4.274,-0.271 -46.326,-0.271 -50.6,0 -71.153,0.122 -45.674,0.271 M 641,2648 v 209 H 2273.5 3906 V 2648 2439 H 2273.5 641 v 209 m 1680.179,-59.055 c -18.429,4.526 -34.394,16.528 -41.59,31.265 -4.814,9.862 -6.589,17.48 -6.589,28.29 0,24.114 12.126,43.759 33.274,53.905 11.375,5.457 20.727,7.595 33.226,7.595 24.571,0 45.488,-10.536 57.349,-28.887 6.805,-10.529 8.651,-17.489 8.651,-32.613 0,-10.988 -0.358,-14.035 -2.312,-19.69 -6.908,-19.995 -24.83,-35.371 -46.885,-40.226 -9.597,-2.112 -25.728,-1.946 -35.124,0.361 m 407.461,-0.394 c -8.833,1.756 -17.911,6.077 -23.834,11.345 -14.805,13.169 -14.937,38.376 -0.26,49.571 5.907,4.505 13.269,7.28 31.562,11.892 9.68,2.441 19.035,5.181 20.789,6.088 6.498,3.36 6.108,10.85 -0.739,14.204 -2.836,1.389 -6.019,1.781 -14.158,1.743 -11.902,-0.056 -22.163,-2.428 -32.021,-7.404 -3.257,-1.645 -6.319,-2.99 -6.803,-2.99 -0.919,0 -11.176,21.887 -11.176,23.847 0,1.577 8.076,5.471 17.524,8.449 24.335,7.669 53.703,5.826 69.59,-4.369 17.102,-10.975 21.688,-35.033 9.304,-48.807 -6.536,-7.27 -13.872,-10.609 -34.598,-15.746 -17.576,-4.357 -23.513,-6.433 -25.055,-8.764 -1.587,-2.399 -0.756,-7.71 1.572,-10.038 2.42,-2.42 10.07,-4.572 16.254,-4.572 6.292,0 18.767,3.113 26.171,6.529 l 7.261,3.352 1.315,-3.191 c 0.723,-1.754 3.055,-7.408 5.182,-12.562 4.457,-10.803 4.604,-10.42 -5.46,-14.233 -14.673,-5.558 -36.999,-7.408 -52.42,-4.344 m 128,0 c -8.833,1.756 -17.911,6.077 -23.834,11.345 -14.805,13.169 -14.937,38.376 -0.26,49.571 5.907,4.505 13.269,7.28 31.562,11.892 9.68,2.441 19.035,5.181 20.789,6.088 6.498,3.36 6.108,10.85 -0.739,14.204 -2.836,1.389 -6.019,1.781 -14.158,1.743 -11.902,-0.056 -22.163,-2.428 -32.021,-7.404 -3.257,-1.645 -6.319,-2.99 -6.803,-2.99 -0.919,0 -11.176,21.887 -11.176,23.847 0,1.577 8.076,5.471 17.524,8.449 24.335,7.669 53.703,5.826 69.59,-4.369 17.102,-10.975 21.688,-35.033 9.304,-48.807 -6.536,-7.27 -13.872,-10.609 -34.598,-15.746 -17.576,-4.357 -23.513,-6.433 -25.055,-8.764 -1.587,-2.399 -0.756,-7.71 1.572,-10.038 2.42,-2.42 10.07,-4.572 16.254,-4.572 6.292,0 18.767,3.113 26.171,6.529 l 7.261,3.352 1.315,-3.191 c 0.723,-1.754 3.055,-7.408 5.182,-12.562 4.457,-10.803 4.604,-10.42 -5.46,-14.233 -14.673,-5.558 -36.999,-7.408 -52.42,-4.344 m 216.539,0.394 c -18.429,4.526 -34.394,16.528 -41.59,31.265 -4.814,9.862 -6.589,17.48 -6.589,28.29 0,24.114 12.126,43.759 33.274,53.905 11.375,5.457 20.727,7.595 33.226,7.595 24.571,0 45.488,-10.536 57.349,-28.887 6.805,-10.529 8.651,-17.489 8.651,-32.613 0,-10.988 -0.358,-14.035 -2.312,-19.69 -6.908,-19.995 -24.83,-35.371 -46.885,-40.226 -9.597,-2.112 -25.728,-1.946 -35.124,0.361 m 577.461,-0.394 c -8.833,1.756 -17.911,6.077 -23.834,11.345 -14.805,13.169 -14.937,38.376 -0.26,49.571 5.907,4.505 13.269,7.28 31.562,11.892 9.68,2.441 19.035,5.181 20.789,6.088 6.498,3.36 6.108,10.85 -0.739,14.204 -2.836,1.389 -6.019,1.781 -14.158,1.743 -11.902,-0.056 -22.163,-2.428 -32.021,-7.404 -3.257,-1.645 -6.319,-2.99 -6.803,-2.99 -0.919,0 -11.176,21.887 -11.176,23.847 0,1.577 8.076,5.471 17.524,8.449 24.335,7.669 53.703,5.826 69.59,-4.369 17.102,-10.975 21.688,-35.033 9.304,-48.807 -6.536,-7.27 -13.872,-10.609 -34.598,-15.746 -17.576,-4.357 -23.513,-6.433 -25.055,-8.764 -1.587,-2.399 -0.756,-7.71 1.572,-10.038 2.42,-2.42 10.07,-4.572 16.254,-4.572 6.292,0 18.767,3.113 26.171,6.529 l 7.261,3.352 1.315,-3.191 c 0.723,-1.754 3.055,-7.408 5.182,-12.562 4.457,-10.803 4.604,-10.42 -5.46,-14.233 -14.673,-5.558 -36.999,-7.408 -52.42,-4.344 M 798,2601.5 v 13.5 h 18.5 18.5 v 47 47 h 17.5 17.5 v -47 -47 h 18 18 v -13.5 -13.5 h -54 -54 v 13.5 m 138,47 v 60.5 h 17 17 v -23.5 -23.5 h 23 23 v 23.5 23.5 h 17 17 v -60.5 -60.5 h -17 -17 v 23 23 h -23 -23 v -23 -23 h -17 -17 v 60.5 m 155,0 v 60.5 h 48.5 48.5 v -13 -13 h -31.5 -31.5 v -11 -11 h 26.5 26.5 v -13 -13 h -26.5 -26.5 v -10.5 -10.5 h 30 30 v -13 -13 h -47 -47 v 60.5 m 199,-0.069 V 2709 h 17 17 v -15.39 -15.391 l 18.25,-0.454 c 16.177,-0.402 19.045,-0.735 25.25,-2.932 13.079,-4.629 21.254,-11.525 26.647,-22.48 2.722,-5.529 3.226,-7.789 3.636,-16.283 0.391,-8.14 0.103,-11.087 -1.651,-16.863 -4.125,-13.579 -13.687,-22.873 -29.132,-28.315 -6.21,-2.188 -8.074,-2.306 -41.75,-2.659 l -35.25,-0.37 v 60.568 m 142,0.069 v 60.5 h 17 17 v -60.5 -60.5 h -17 -17 v 60.5 m 70,-47.015 v 13.485 l 29.429,0.265 29.428,0.265 -29.907,36 -29.907,36 -0.021,10.75 L 1501,2709 h 54 54 v -13.486 -13.486 l -31.454,-0.264 -31.455,-0.264 29.955,-35.955 29.954,-35.956 V 2598.795 2588 h -52 -52 v 13.485 m 134,0 v 13.485 l 29.429,0.265 29.428,0.265 -29.907,36 -29.907,36 -0.021,10.75 L 1635,2709 h 54 54 v -13.486 -13.486 l -31.454,-0.264 -31.455,-0.264 29.955,-35.955 29.954,-35.956 V 2598.795 2588 h -52 -52 v 13.485 m 150.164,46.273 c -14.39,32.892 -26.164,60.128 -26.164,60.523 0,0.396 7.765,0.719 17.256,0.719 h 17.256 l 4.518,-11.75 4.517,-11.75 h 25.453 25.453 l 4.517,11.75 4.518,11.75 h 17.756 c 9.766,0 17.756,-0.167 17.756,-0.37 0,-0.204 -11.834,-27.317 -26.298,-60.25 l -26.298,-59.88 -17.038,-0.273 -17.038,-0.273 -26.164,59.804 M 1993,2648.431 V 2709 h 17 17 v -15.39 -15.391 l 18.25,-0.454 c 16.177,-0.402 19.045,-0.735 25.25,-2.932 13.079,-4.629 21.254,-11.525 26.647,-22.48 2.722,-5.529 3.226,-7.789 3.636,-16.283 0.391,-8.14 0.103,-11.087 -1.651,-16.863 -4.125,-13.579 -13.687,-22.873 -29.132,-28.315 -6.21,-2.188 -8.074,-2.306 -41.75,-2.659 l -35.25,-0.37 v 60.568 m 142,0.069 v 60.5 h 17 17 v -16 -16 l 9.25,0.045 9.25,0.045 10.551,15.705 10.552,15.705 18.198,0.273 c 10.01,0.149 18.199,0 18.199,-0.324 0,-0.329 -5.591,-8.759 -12.423,-18.734 l -12.424,-18.137 4.772,-3.214 c 6.67,-4.491 12.607,-11.572 15.277,-18.217 1.915,-4.767 2.271,-7.521 2.283,-17.67 0.014,-11.608 -0.099,-12.254 -3.304,-18.762 -6.147,-12.483 -17.761,-21.035 -32.935,-24.251 -5.039,-1.068 -14.905,-1.434 -38.996,-1.447 L 2135,2588 v 60.5 m 306,0 v 60.5 h 17 17 v -21 -21 h 26.5 26.5 v -13 -13 h -26.5 -26.5 v -13.5 -13.5 h 30 30 v -13 -13 h -47 -47 v 60.5 m 127,0 v 60.5 h 48.5 48.5 v -13 -13 h -31.5 -31.5 v -11 -11 h 26.5 26.5 v -13 -13 h -26.5 -26.5 v -10.5 -10.5 h 30 30 v -13 -13 h -47 -47 v 60.5 m 388,0 v 60.5 h 17 17 v -60.5 -60.5 h -17 -17 v 60.5 m 237,0 v 60.5 h 16.5 16.5 v -31.722 c 0,-31.565 0.01,-31.713 1.971,-29.75 1.083,1.085 12.907,15.247 26.275,31.472 l 24.305,29.5 14.225,0.277 14.224,0.278 V 2648.527 2588 h -16.486 -16.486 l -0.264,31.94 -0.264,31.939 -26,-31.883 -26,-31.884 -14.25,-0.056 L 3193,2588 v 60.5 m 168.164,-0.742 c -14.39,32.892 -26.164,60.128 -26.164,60.523 0,0.396 7.765,0.719 17.256,0.719 h 17.256 l 4.518,-11.75 4.517,-11.75 h 25.453 25.453 l 4.517,11.75 4.518,11.75 h 17.756 c 9.766,0 17.756,-0.167 17.756,-0.37 0,-0.204 -11.834,-27.317 -26.298,-60.25 l -26.298,-59.88 -17.038,-0.273 -17.038,-0.273 -26.164,59.804 M 3501,2648.5 v 60.5 h 45.5 45.5 v -13.5 -13.5 h -28.5 -28.5 v -47 -47 h -17 -17 v 60.5 m -2177,-15.402 v 18.098 l 13.25,-0.354 c 10.75,-0.287 14.002,-0.73 17.237,-2.348 9.802,-4.903 12.27,-18.687 4.912,-27.432 -3.671,-4.363 -10.421,-6.062 -24.081,-6.062 H 1324 v 18.098 m 703,0 v 18.098 l 13.25,-0.354 c 10.75,-0.287 14.002,-0.73 17.237,-2.348 9.802,-4.903 12.27,-18.687 4.912,-27.432 -3.671,-4.363 -10.421,-6.062 -24.081,-6.062 H 2027 v 18.098 m 142,0.018 v 18.116 l 13.25,-0.4 c 10.589,-0.319 14.051,-0.794 17.237,-2.365 9.793,-4.831 12.272,-18.658 4.912,-27.405 -3.671,-4.363 -10.421,-6.062 -24.081,-6.062 H 2169 v 18.116 m 162.734,-17.089 c -12.712,3.201 -21.453,12.794 -23.744,26.058 -2.766,16.009 4.295,30.443 18.004,36.804 7.856,3.645 19.181,3.633 27.073,-0.028 24.569,-11.399 24.787,-49.34 0.347,-60.529 -5.896,-2.699 -15.894,-3.762 -21.68,-2.305 m 752,0 c -12.712,3.201 -21.453,12.794 -23.744,26.058 -2.766,16.009 4.295,30.443 18.004,36.804 7.856,3.645 19.181,3.633 27.073,-0.028 24.569,-11.399 24.787,-49.34 0.347,-60.529 -5.896,-2.699 -15.894,-3.762 -21.68,-2.305 m -1262.149,24.723 c -3.753,9.213 -7.043,17.313 -7.311,18 -0.377,0.967 2.961,1.25 14.726,1.25 11.765,0 15.103,-0.283 14.726,-1.25 -5.151,-13.211 -14.279,-34.75 -14.726,-34.75 -0.325,0 -3.662,7.537 -7.415,16.75 m 1575,0 c -3.753,9.213 -7.043,17.313 -7.311,18 -0.377,0.967 2.961,1.25 14.726,1.25 11.765,0 15.103,-0.283 14.726,-1.25 -5.151,-13.211 -14.279,-34.75 -14.726,-34.75 -0.325,0 -3.662,7.537 -7.415,16.75"
       stroke="none"
       fill="#c72127"
       fill-rule="evenodd"
       id="path185" /><path
       d="m 2935,548.042 c -202.342,14.239 -353.708,97.791 -407.542,224.958 -15.674,37.025 -22.799,80.419 -20.412,124.318 2.436,44.822 10.785,78.328 28.463,114.233 12.99,26.386 27.97,47.028 50.439,69.507 38.387,38.403 88.753,68.471 156.535,93.45 64.581,23.799 146.076,42.031 250.017,55.933 50.669,6.777 107.263,12.574 210.5,21.562 85.554,7.448 172.172,16.104 195.316,19.517 54.121,7.982 84.553,21.337 96.994,42.565 3.694,6.304 6.027,17.039 5.287,24.329 -2.726,26.857 -39.941,49.723 -102.665,63.083 -30.079,6.406 -42.824,7.721 -79.893,8.239 -107.962,1.508 -232.256,-12.752 -337.539,-38.727 -200.611,-49.492 -347.094,-140.081 -424.689,-262.636 l -8.311,-13.128 -0.252,239.042 c -0.139,131.473 -0.099,239.195 0.088,239.382 0.187,0.187 47.636,-22.371 105.442,-50.129 l 105.103,-50.469 13.309,5.586 c 44.769,18.786 105.275,38.418 162.81,52.824 152.241,38.12 314.599,53.337 442.5,41.473 112.261,-10.413 213.039,-39.058 288.032,-81.869 72.626,-41.461 122.276,-96.742 144.114,-160.46 23.564,-68.754 14.997,-155.412 -21.68,-219.302 -56.481,-98.387 -180.072,-166.315 -357.966,-196.744 -43.316,-7.409 -118.241,-16.13 -292.5,-34.043 -161.818,-16.634 -268.01,-30.087 -291.5,-36.927 -23.51,-6.847 -41.429,-19.748 -49.311,-35.504 -4.513,-9.021 -6.029,-16.412 -5.486,-26.753 0.366,-6.963 0.999,-9.375 4.115,-15.681 12.302,-24.891 49.433,-42.653 108.182,-51.751 25.804,-3.996 97.212,-3.715 159,0.626 244.1,17.149 444.243,91.838 595.762,222.325 6.469,5.571 11.981,10.129 12.25,10.129 0.268,0 0.488,-88.425 0.488,-196.5 0,-108.075 -0.125,-196.5 -0.278,-196.5 -0.153,0 -46.794,17.55 -103.645,39 -56.852,21.45 -103.91,39 -104.575,39 -0.664,0 -6.337,-2.414 -12.605,-5.364 -25.998,-12.236 -61.7,-25.461 -94.897,-35.153 -75.868,-22.149 -160.632,-35.676 -263.5,-42.052 -29.957,-1.857 -135.458,-2.799 -155.5,-1.389 m -2327.256,6.906 -10.756,0.552 149.981,112.313 149.982,112.313 0.33,233.187 c 0.353,248.678 0.114,237.081 5.363,260.687 7.294,32.809 24.399,67.41 47.949,97 9.887,12.422 39.981,42.056 54.407,53.576 94.425,75.402 226.347,126.612 374.5,145.373 59.008,7.472 100.659,9.544 175.5,8.73 62.018,-0.675 90.139,-2.023 140.5,-6.737 99.04,-9.271 186.577,-28.601 257.058,-56.761 112.509,-44.953 178.334,-107.54 198.971,-189.181 6.393,-25.293 5.881,-2.675 6.452,-284.946 l 0.519,-256.446 152.662,-114.654 152.661,-114.654 -12.661,-0.646 c -15.612,-0.796 -630.027,-0.592 -726.955,0.241 l -70.294,0.605 136.014,110 136.014,110 0.03,227.178 c 0.02,156.373 -0.305,229.58 -1.043,234.888 -5.09,36.594 -27.536,68.499 -65.928,93.712 -12.859,8.444 -40.174,21.963 -57,28.211 -59.956,22.262 -141.672,33.294 -211,28.486 -96.503,-6.694 -180.481,-37.25 -225.069,-81.894 -18.841,-18.864 -29.41,-37.627 -35.249,-62.581 -2.106,-8.997 -2.106,-9.074 -2.347,-239 l -0.242,-230 135.305,-109.5 135.305,-109.5 -86.602,-0.606 c -107.357,-0.75 -889.596,-0.704 -904.357,0.054 m 92.561,1316.778 63.704,47.77 -0.255,109.994 -0.254,109.994 -62.73,45.508 -62.731,45.508 106.481,0.255 c 58.564,0.14 154.342,0.14 212.84,0 l 106.36,-0.255 -60.11,-46.076 -60.11,-46.077 -0.27,-21.113 -0.269,-21.114 116.769,-0.413 c 117.944,-0.418 120.551,-0.496 142.77,-4.253 44.531,-7.532 85.447,-27.292 112.161,-54.17 19.048,-19.164 28.9,-40.732 30.049,-65.784 1.133,-24.722 -7.104,-45.907 -26.931,-69.26 -27.106,-31.928 -76.422,-59.809 -126.779,-71.674 -27.446,-6.467 -4.822,-5.98 -292.95,-6.31 l -261.449,-0.3 63.704,47.77 m 1161.728,47.024 c 0.032,89.669 0.126,94.64 1.75,92.705 0.944,-1.125 26.176,-27.788 56.069,-59.25 L 1974.205,1895 h 80.011 80.011 l -12.363,13.144 c -6.8,7.229 -77.753,82.717 -157.673,167.75 l -145.31,154.606 296.725,0.252 c 163.198,0.138 296.877,0.099 297.063,-0.088 0.187,-0.187 0.225,-50.7 0.085,-112.252 l -0.254,-111.912 -58.349,72.75 -58.349,72.75 h -92.588 -92.588 l 2.536,-2.75 c 1.395,-1.512 71.679,-75.08 156.187,-163.484 84.508,-88.404 153.651,-160.967 153.651,-161.25 0,-0.284 -126.225,-0.516 -280.5,-0.516 H 1862 l 0.033,94.75 m 664.011,0 0.043,94.75 5.707,-6.188 c 3.138,-3.404 28.426,-30.066 56.194,-59.25 L 2638.476,1895 h 79.936 79.937 l -2.425,2.609 c -1.333,1.435 -72.27,76.923 -157.637,167.75 l -155.213,165.141 296.628,0.252 c 163.145,0.138 296.781,0.099 296.967,-0.088 0.187,-0.187 0.225,-50.607 0.085,-112.045 l -0.254,-111.706 -58,72.482 -58,72.482 -92.333,0.061 c -60.065,0.04 -92.217,-0.281 -92,-0.921 0.183,-0.54 66.033,-69.677 146.333,-153.637 80.3,-83.96 150.428,-157.318 155.841,-163.018 L 3088.182,1824 H 2807.091 2526 l 0.044,94.75 M 1343,1825.422 c 0,0.232 27.452,20.334 61.004,44.671 l 61.004,44.249 -0.254,113.961 -0.254,113.962 -60.893,44.117 -60.893,44.118 104.223,0.255 c 57.322,0.14 150.794,0.14 207.714,0 l 103.492,-0.255 -60.822,-44.087 -60.821,-44.088 -0.254,-114.036 -0.254,-114.037 61.004,-44.241 c 33.552,-24.332 61.004,-44.414 61.004,-44.626 0,-0.212 -93.375,-0.385 -207.5,-0.385 -114.125,0 -207.5,0.19 -207.5,0.422 m 1972.979,7.328 c 60.501,50.836 73.505,62.077 73.401,63.449 -0.066,0.867 -33.106,54.839 -73.422,119.939 l -73.302,118.362 -47.578,48 -47.578,48 77.75,0.256 c 42.763,0.141 112.679,0.141 155.371,0 l 77.62,-0.256 -47.324,-39.5 c -26.028,-21.725 -48.41,-40.422 -49.737,-41.549 l -2.413,-2.048 6.867,-13.179 6.866,-13.18 100.542,-0.022 100.541,-0.022 8.258,14.15 c 4.542,7.782 8.063,14.658 7.824,15.28 -0.238,0.622 -25.227,18.892 -55.53,40.6 l -55.096,39.47 105.9,0.255 c 58.246,0.14 153.85,0.14 212.453,0 l 106.552,-0.255 -65.955,-50.418 c -36.275,-27.729 -66.797,-51.354 -67.825,-52.5 -1.746,-1.944 -138.929,-229.725 -139.433,-231.517 -0.127,-0.451 17.319,-15.544 38.769,-33.539 21.45,-17.995 40.115,-33.8 41.477,-35.122 l 2.478,-2.404 h -203.35 -203.35 l 9.224,7.75 M 943,1962.479 V 2020 h 82.606 c 88.832,0 88.451,0.02 98.834,-5.191 12.09,-6.067 22.062,-18.005 26.581,-31.823 2.063,-6.307 2.451,-9.455 2.464,-19.986 0.013,-11.103 -0.308,-13.484 -2.871,-21.306 -5.077,-15.489 -14.316,-26.96 -26.576,-32.996 l -6.494,-3.198 -87.272,-0.271 -87.272,-0.272 v 57.522 m 2497.25,35.906 c -16.637,30.395 -30.25,55.568 -30.25,55.94 0,0.371 28.125,0.675 62.5,0.675 34.375,0 62.5,-0.223 62.5,-0.496 0,-0.804 -62.181,-108.89 -63.393,-110.194 -0.827,-0.889 -8.759,12.79 -31.357,54.075"
       stroke="none"
       fill="#262261"
       fill-rule="evenodd"
       id="path187" /><path
       d="m 840.75,553.75 c 78.787,0.141 207.712,0.141 286.5,0 78.787,-0.141 14.325,-0.257 -143.25,-0.257 -157.575,0 -222.038,0.116 -143.25,0.257 m 1195.5,0 c 63.663,0.142 167.838,0.142 231.5,0 63.663,-0.142 11.575,-0.258 -115.75,-0.258 -127.325,0 -179.412,0.116 -115.75,0.258 m -577.5,0.998 c 7.838,0.169 20.662,0.169 28.5,0 7.838,-0.169 1.425,-0.307 -14.25,-0.307 -15.675,0 -22.088,0.138 -14.25,0.307 m 285.5,-0.001 c 6.463,0.174 17.037,0.174 23.5,0 6.463,-0.174 1.175,-0.317 -11.75,-0.317 -12.925,0 -18.213,0.143 -11.75,0.317 M 1328.491,998 c 0,123.475 0.117,173.987 0.259,112.25 0.142,-61.738 0.142,-162.763 0,-224.5 -0.142,-61.738 -0.259,-11.225 -0.259,112.25 m 1158.221,1227.784 c -2.591,2.632 -4.712,5.107 -4.712,5.5 0,0.394 133.988,0.604 297.75,0.468 l 297.75,-0.249 -297.461,-0.253 -297.461,-0.253 4.924,-4.999 c 2.707,-2.749 4.698,-4.998 4.423,-4.998 -0.275,0 -2.621,2.153 -5.213,4.784 m 663.288,1.716 -4.416,4.5 h 157.363 c 157.3,0 157.362,0 155.553,-2 -2.094,-2.314 -3.354,-2.734 -1.5,-0.5 1.106,1.332 -16.127,1.5 -154.081,1.5 h -155.325 l 3.906,-4 c 2.148,-2.2 3.683,-4 3.411,-4 -0.272,0 -2.482,2.025 -4.911,4.5 m -1328.804,-0.202 c -1.758,1.813 -3.196,3.613 -3.196,4 0,0.386 133.987,0.59 297.75,0.454 l 297.75,-0.249 -297.445,-0.253 -297.444,-0.253 3.391,-3.499 c 1.865,-1.924 3.165,-3.498 2.89,-3.498 -0.275,0 -1.938,1.484 -3.696,3.298 M 1342,2230.5 c -1.106,1.333 22.173,1.5 208.5,1.5 186.327,0 209.606,-0.167 208.5,-1.5 -1.399,-1.686 -2.449,-2.036 -1.5,-0.5 0.411,0.665 -68.843,1 -207,1 -138.157,0 -207.411,-0.335 -207,-1 0.949,-1.536 -0.101,-1.186 -1.5,0.5 m -705.655,0.75 c -0.254,0.412 96.089,0.75 214.096,0.75 118.007,0 214.559,-0.338 214.559,-0.75 0,-0.981 -428.048,-0.981 -428.655,0 m 2841,0 c -0.254,0.412 96.164,0.75 214.263,0.75 118.099,0 214.498,-0.227 214.221,-0.505 -0.821,-0.82 -427.977,-1.065 -428.484,-0.245"
       stroke="none"
       fill="#242464"
       fill-rule="evenodd"
       id="path189" /></g></svg>
