<?xml version="1.0" encoding="UTF-8" standalone="no"?>
<!-- Generator: Gravit.io -->

<svg
   style="isolation:isolate"
   viewBox="0 0 24 24"
   width="24pt"
   height="24pt"
   version="1.1"
   id="svg35"
   sodipodi:docname="wingstop_24px.svg"
   xml:space="preserve"
   inkscape:version="1.2.2 (732a01da63, 2022-12-09)"
   inkscape:export-filename="wingstop_24px.svg"
   inkscape:export-xdpi="96"
   inkscape:export-ydpi="96"
   xmlns:inkscape="http://www.inkscape.org/namespaces/inkscape"
   xmlns:sodipodi="http://sodipodi.sourceforge.net/DTD/sodipodi-0.dtd"
   xmlns="http://www.w3.org/2000/svg"
   xmlns:svg="http://www.w3.org/2000/svg"><sodipodi:namedview
     id="namedview37"
     pagecolor="#ffffff"
     bordercolor="#000000"
     borderopacity="0.25"
     inkscape:showpageshadow="2"
     inkscape:pageopacity="0.0"
     inkscape:pagecheckerboard="0"
     inkscape:deskcolor="#d1d1d1"
     inkscape:document-units="pt"
     showgrid="false"
     inkscape:zoom="25.28125"
     inkscape:cx="9.908529"
     inkscape:cy="14.991347"
     inkscape:window-width="1920"
     inkscape:window-height="974"
     inkscape:window-x="-11"
     inkscape:window-y="1609"
     inkscape:window-maximized="1"
     inkscape:current-layer="g33" /><defs
     id="defs5"><clipPath
       id="_clipPath_iJeEHAjZgi4A3L09wj45NrJL4UX6cLje"><rect
         width="24"
         height="24"
         id="rect2" /></clipPath></defs><g
     clip-path="url(#_clipPath_iJeEHAjZgi4A3L09wj45NrJL4UX6cLje)"
     id="g33"><clipPath
       id="_clipPath_JNaFXi21iOY616y1RmIYUphnoHKBS32M"><rect
         x="2.98"
         y="1"
         width="18.04"
         height="22"
         transform="matrix(1,0,0,1,0,0)"
         fill="rgb(255,255,255)"
         id="rect7" /></clipPath><g
       clip-path="url(#_clipPath_JNaFXi21iOY616y1RmIYUphnoHKBS32M)"
       id="g14"
       style="fill:#008343;fill-opacity:1"><g
         id="g12"
         style="fill:#008343;fill-opacity:1"><path
           d=" M 18.219 16.551 C 19.896 14.836 21.02 12.588 21.02 10.02 C 21.02 5.042 16.978 1 12 1 C 7.022 1 2.98 5.042 2.98 10.02 C 2.98 12.62 4.007 14.787 5.844 16.61 L 5.844 16.61 L 11.633 23 L 18.23 16.551 L 18.219 16.551 Z "
           fill="rgb(239,189,68)"
           id="path10"
           style="fill:#008343;fill-opacity:1" /></g></g><clipPath
       id="_clipPath_ZFH95zYeSYP3mLck45bdpKWwtFY0gUiS"><rect
         x="3.5"
         y="3.5"
         width="17"
         height="17"
         transform="matrix(1,0,0,1,0,0)"
         fill="rgb(255,255,255)"
         id="rect16" /></clipPath><g
       id="g531"
       transform="matrix(0.11747709,0,0,0.11747709,3.5403907,7.6730034)"
       style="fill:#ece5d8;fill-opacity:1"><path
         d="m 507.39,487.3 c -0.25,0.11 -0.31,0.18 -1.53,1.83 -0.52,0.69 -1,1.33 -1.08,1.42 a 1.48,1.48 0 0 1 -0.92,0.41 c -0.13,0 -1.09,-0.2 -2.13,-0.44 a 10.57,10.57 0 0 0 -2.08,-0.4 1,1 0 0 0 -0.6,0.46 c 0,0.08 -0.31,0.93 -0.59,1.89 -0.28,0.96 -0.56,1.83 -0.62,1.94 a 1.59,1.59 0 0 1 -0.68,0.62 12.1,12.1 0 0 1 -1.37,0.21 12.83,12.83 0 0 0 -2.86,0.41 1,1 0 0 0 -0.45,0.71 c -0.08,0.41 0,0.65 1.2,2.42 0.61,0.93 1.16,1.76 1.23,1.84 l 0.11,0.15 0.38,-0.53 a 20.56,20.56 0 0 1 10.73,-7.72 21.72,21.72 0 0 1 4.66,-0.84 h 0.6 v -2.48 l -1.58,-0.91 a 7.59,7.59 0 0 0 -2.13,-1.08 1.14,1.14 0 0 0 -0.29,0.09 z"
         transform="translate(-440.25,-487.2)"
         style="fill:#ece5d8;fill-opacity:1"
         id="path408" /><path
         d="m 516.13,487.26 c -0.08,0 -0.88,0.47 -1.79,1 l -1.65,1 v 2.4 h 0.2 l 0.6,0.06 a 20.71,20.71 0 0 1 11,4.2 23.28,23.28 0 0 1 4.22,4.35 3.07,3.07 0 0 0 0.38,0.47 c 0.05,0 2.42,-3.53 2.51,-3.75 a 1.08,1.08 0 0 0 -0.37,-1.24 c -0.23,-0.15 -0.65,-0.22 -2.91,-0.47 A 10,10 0 0 1 527,495 a 1.72,1.72 0 0 1 -0.73,-0.69 8.08,8.08 0 0 1 -0.32,-1 25.49,25.49 0 0 0 -0.93,-2.87 0.76,0.76 0 0 0 -0.71,-0.36 c -0.24,0 -1.78,0.34 -3.15,0.69 a 1.93,1.93 0 0 1 -1.44,0 c -0.33,-0.17 -0.42,-0.26 -1.45,-1.67 -1.19,-1.62 -1.29,-1.74 -1.54,-1.86 a 0.68,0.68 0 0 0 -0.6,0.02 z"
         transform="translate(-440.25,-487.2)"
         style="fill:#ece5d8;fill-opacity:1"
         id="path410" /><path
         d="m 511.4,492.67 a 19,19 0 0 0 -12.16,4.94 19.62,19.62 0 0 0 -4.22,5.5 13.68,13.68 0 0 0 -0.68,1.57 c 0,0.09 0.15,0.08 1.36,-0.16 2.13,-0.4 4.11,-0.69 6.48,-1 1.49,-0.17 1.59,-0.2 2.06,-0.61 a 11.69,11.69 0 0 1 6.5,-2.83 15.85,15.85 0 0 1 3.41,0.1 11.88,11.88 0 0 1 4.42,1.79 13.45,13.45 0 0 1 1.43,1.1 2.09,2.09 0 0 0 0.51,0.34 c 0.1,0 0.53,0.09 1,0.14 2.09,0.23 4.78,0.66 7.13,1.12 l 1.47,0.28 a 14.76,14.76 0 0 0 -0.78,-1.78 19.07,19.07 0 0 0 -11.15,-9.61 20.46,20.46 0 0 0 -4.14,-0.86 25.81,25.81 0 0 0 -2.64,-0.03 z m 1.24,2.18 a 4.21,4.21 0 0 1 0.08,0.69 c 0.06,1 0.08,1 0.33,0.12 l 0.22,-0.8 h 0.34 a 1.56,1.56 0 0 1 0.38,0.05 9.17,9.17 0 0 1 0.13,0.92 c 0.09,0.75 0.11,0.86 0.15,0.67 0.04,-0.19 0.31,-1.36 0.34,-1.5 0.03,-0.14 0.06,-0.1 0.44,-0.06 a 3.06,3.06 0 0 1 0.43,0.05 c 0,0 -0.88,3.15 -0.9,3.17 h -0.43 -0.41 l -0.06,-0.62 c -0.12,-1.24 -0.11,-1.23 -0.34,-0.27 l -0.2,0.84 h -0.41 -0.44 c 0,0 -0.11,-0.69 -0.23,-1.51 -0.12,-0.82 -0.22,-1.57 -0.24,-1.65 v -0.16 h 0.41 a 1.15,1.15 0 0 1 0.41,0.06 z m -5,1 c 0,0.11 0,0.14 -0.3,0.27 -0.3,0.13 -0.33,0.16 -0.3,0.29 0.03,0.13 0.1,0.24 0.4,0.17 a 0.56,0.56 0 0 1 0.32,0 2,2 0 0 1 0.22,0.58 c 0,0 -0.1,0.11 -0.23,0.16 -0.38,0.16 -0.38,0.16 -0.29,0.38 a 0.64,0.64 0 0 0 0.1,0.19 l 0.3,-0.09 a 1.18,1.18 0 0 1 0.35,-0.06 1.19,1.19 0 0 1 0.22,0.68 10.92,10.92 0 0 1 -1.49,0.49 c -0.06,-0.06 -1.05,-3 -1,-3.06 0.05,-0.06 0.36,-0.15 0.76,-0.28 l 0.74,-0.25 0.1,0.22 a 3.12,3.12 0 0 1 0.12,0.36 z m 10,-0.22 c 0.55,0.16 0.55,0 0,1.69 -0.28,0.83 -0.52,1.53 -0.53,1.54 a 4.84,4.84 0 0 1 -0.83,-0.23 c 0,0 0.95,-3 1,-3.06 0.05,-0.06 0,0.02 0.35,0.11 z m 2.73,1.14 c 0.28,0.16 0.34,0.22 0.32,0.31 -0.02,0.09 -0.06,0.34 -0.11,0.62 -0.05,0.28 -0.1,0.56 -0.11,0.63 -0.01,0.07 0,0.12 0,0.12 a 1.92,1.92 0 0 0 0.39,-0.56 3.46,3.46 0 0 1 0.35,-0.56 2.57,2.57 0 0 1 0.37,0.19 c 0.25,0.15 0.32,0.22 0.3,0.28 -0.02,0.06 -1.48,2.61 -1.55,2.68 -0.07,0.07 -0.13,0 -0.39,-0.12 -0.26,-0.12 -0.34,-0.23 -0.34,-0.27 0,-0.04 0.2,-1.4 0.25,-1.64 0,-0.08 0,0 -0.11,0.13 -0.11,0.13 -0.66,1.14 -0.7,1.2 a 5.42,5.42 0 0 1 -0.71,-0.39 c 0,0 0.3,-0.57 0.69,-1.25 a 10.48,10.48 0 0 1 0.95,-1.58 z m -15.54,1.23 0.85,1.36 c 0.07,0.11 0.05,0.13 -0.24,0.31 l -0.38,0.23 c 0,0 -0.2,-0.18 -0.42,-0.52 l -0.35,-0.54 -0.17,0.09 c -0.09,0 -0.16,0.11 -0.16,0.13 a 5.32,5.32 0 0 0 0.33,0.56 l 0.33,0.52 -0.12,0.1 -0.36,0.24 c -0.2,0.12 -0.24,0.13 -0.3,0.06 -0.06,-0.07 -1.65,-2.59 -1.65,-2.66 0,-0.07 0.15,-0.16 0.34,-0.28 l 0.35,-0.23 0.31,0.48 a 4.67,4.67 0 0 0 0.33,0.48 l 0.17,-0.09 0.16,-0.1 c 0,0 -0.12,-0.23 -0.3,-0.51 a 1.73,1.73 0 0 1 -0.26,-0.52 l 0.38,-0.23 c 0.18,-0.12 0.33,-0.19 0.36,-0.17 z m -3.9,1.45 0.19,0.24 -0.12,0.17 -0.12,0.17 0.84,0.84 0.84,0.84 -0.29,0.29 a 1.73,1.73 0 0 1 -0.33,0.28 10.44,10.44 0 0 1 -0.87,-0.82 l -0.82,-0.81 -0.18,0.14 -0.18,0.14 -0.25,-0.26 -0.25,-0.26 0.63,-0.6 a 7.85,7.85 0 0 1 0.67,-0.6 1.13,1.13 0 0 1 0.24,0.28 z m 23.33,0.15 a 1.25,1.25 0 0 1 0.63,1.05 1.18,1.18 0 0 1 -0.13,0.5 l -0.37,-0.17 c -0.32,-0.15 -0.36,-0.18 -0.36,-0.33 0,-0.15 -0.09,-0.37 -0.19,-0.37 a 1.71,1.71 0 0 0 -0.65,0.36 2,2 0 0 0 -0.55,0.86 c 0,0.17 0.21,0.26 0.41,0.17 0.2,-0.09 0.14,-0.1 0.06,-0.31 0,0 0,-0.17 0.18,-0.32 l 0.22,-0.24 0.36,0.39 c 0.52,0.55 0.51,0.52 0.19,0.81 -0.76,0.7 -1.58,0.71 -2,0 a 0.83,0.83 0 0 1 -0.18,-0.62 1.69,1.69 0 0 1 0.54,-1.21 c 0.58,-0.61 1.26,-0.82 1.85,-0.53 z"
         transform="translate(-440.25,-487.2)"
         style="fill:#ece5d8;fill-opacity:1"
         id="path412" /><path
         d="m 536.8,494.32 a 6.6,6.6 0 0 0 -2.46,0.69 1.69,1.69 0 0 0 -0.59,0.73 3.53,3.53 0 0 0 -0.15,0.82 5.51,5.51 0 0 1 -0.43,1.8 5.39,5.39 0 0 1 -1.79,2.18 2.67,2.67 0 0 0 -0.45,0.36 6.37,6.37 0 0 0 -0.06,1.3 0.72,0.72 0 0 0 0.52,0.24 10.54,10.54 0 0 0 1.7,-0.44 c 1.76,-0.53 3,-1.83 3.71,-4 0.3,-0.87 0.1,-0.81 2.39,-0.81 l 16.61,0.09 c 16.42,0.09 20.38,0.09 21.63,-0.05 a 16.21,16.21 0 0 0 2.53,-0.44 7.84,7.84 0 0 0 2.93,-1.25 c 0.37,-0.29 0.9,-0.86 0.84,-0.91 -0.06,-0.05 -10,-0.08 -22.19,-0.15 l -23.18,-0.15 c -0.54,-0.05 -1.25,-0.04 -1.56,-0.01 z"
         transform="translate(-440.25,-487.2)"
         style="fill:#ece5d8;fill-opacity:1"
         id="path414" /><path
         d="m 474.51,494.36 -19.75,0.13 c -8,0 -14.49,0.1 -14.52,0.13 -0.03,0.03 0.08,0.18 0.22,0.35 1,1.18 3.26,2 6.63,2.27 1.1,0.1 6.66,0.1 22.38,0 l 14.54,-0.08 h 2.68 l 0.11,0.12 a 3.58,3.58 0 0 1 0.32,0.7 6.44,6.44 0 0 0 2.51,3.47 6.59,6.59 0 0 0 1.89,0.72 c 1,0.29 1.21,0.3 1.44,0.09 0.23,-0.21 0.13,-0.13 0.1,-0.72 a 1.58,1.58 0 0 0 -0.1,-0.65 15.3,15.3 0 0 1 -1.6,-1.53 6.13,6.13 0 0 1 -0.91,-1.86 7,7 0 0 1 -0.14,-1 1.71,1.71 0 0 0 -0.41,-1.23 4.17,4.17 0 0 0 -1.84,-0.83 c -0.47,-0.11 -0.6,-0.12 -4.38,-0.12 -2.14,0.01 -6.27,0.02 -9.17,0.04 z"
         transform="translate(-440.25,-487.2)"
         style="fill:#ece5d8;fill-opacity:1"
         id="path416" /><path
         d="m 445.41,498.61 a 5.12,5.12 0 0 0 0.83,1.19 6.8,6.8 0 0 0 3.85,1.95 25.81,25.81 0 0 0 7.39,0.11 c 1.27,-0.11 1.51,-0.13 1.51,-0.18 a 0.49,0.49 0 0 0 -0.17,-0.13 6.19,6.19 0 0 1 -1.21,-1.2 5.49,5.49 0 0 1 -0.67,-1.36 l -0.07,-0.24 h -3.6 c -2.47,0 -4,0 -4.82,0 -1.15,-0.05 -2.59,-0.18 -2.92,-0.25 -0.15,-0.01 -0.15,0 -0.12,0.11 z"
         transform="translate(-440.25,-487.2)"
         style="fill:#ece5d8;fill-opacity:1"
         id="path418" /><path
         d="m 578,498.56 a 44.82,44.82 0 0 1 -6.53,0.25 c -4,0 -4.35,0 -4.38,0.11 a 6.67,6.67 0 0 1 -0.52,1.16 5.6,5.6 0 0 1 -1.26,1.38 1.15,1.15 0 0 0 -0.27,0.22 c 0,0 0.19,0.07 1.94,0.22 a 34.13,34.13 0 0 0 3.47,0.12 11.79,11.79 0 0 0 3.8,-0.36 6.39,6.39 0 0 0 3.71,-2.08 5.15,5.15 0 0 0 0.69,-1.05 c 0,0 -0.22,-0.03 -0.65,0.03 z"
         transform="translate(-440.25,-487.2)"
         style="fill:#ece5d8;fill-opacity:1"
         id="path420" /><path
         d="m 471,498.67 c -6.9,0.06 -12.85,0.16 -12.91,0.21 -0.06,0.05 0.28,0.62 0.64,1 a 6.88,6.88 0 0 0 2.71,1.54 16.05,16.05 0 0 0 4.25,0.82 c 2.33,0.15 8.32,-0.27 17.2,-1.22 1,-0.1 1.79,-0.17 1.81,-0.16 a 0.11,0.11 0 0 1 0,0.08 11,11 0 0 0 0.88,1.74 9.23,9.23 0 0 0 0.79,1 4.82,4.82 0 0 0 2.6,1.52 l 0.81,0.2 a 1.73,1.73 0 0 0 1.18,0 c 0.19,-0.09 0.22,-0.14 0.31,-0.45 a 3.86,3.86 0 0 0 0.1,-0.4 1.19,1.19 0 0 0 -0.45,-0.2 7.4,7.4 0 0 1 -4.66,-5 l -0.23,-0.66 h -5.2 z"
         transform="translate(-440.25,-487.2)"
         style="fill:#ece5d8;fill-opacity:1"
         id="path422" /><path
         d="m 537.84,498.67 -0.22,0.63 a 10.72,10.72 0 0 1 -1.89,3.29 7.55,7.55 0 0 1 -2.81,1.72 l -0.39,0.16 a 1.19,1.19 0 0 0 0.08,0.44 l 0.12,0.4 0.32,0.1 c 0.35,0.11 0.46,0.1 1.1,-0.07 l 0.86,-0.22 a 5.13,5.13 0 0 0 3,-2.08 7.69,7.69 0 0 0 1,-1.66 5.12,5.12 0 0 1 0.25,-0.53 c 0,0 1.22,0.08 2.65,0.23 4.68,0.49 8,0.78 12.23,1.09 A 30.37,30.37 0 0 0 560,502 a 12.43,12.43 0 0 0 4.47,-1.53 4.64,4.64 0 0 0 1.32,-1.37 1.32,1.32 0 0 0 0.12,-0.33 c 0,0 -22.3,-0.19 -25.72,-0.19 a 12.45,12.45 0 0 0 -2.35,0.09 z"
         transform="translate(-440.25,-487.2)"
         style="fill:#ece5d8;fill-opacity:1"
         id="path424" /><path
         d="m 510.64,501.14 a 11,11 0 0 0 -3.25,0.91 7.66,7.66 0 0 0 -1.4,0.91 l -0.11,0.12 h 0.56 c 3,-0.17 7.8,-0.15 11.27,0 h 0.53 l -0.1,-0.11 a 8,8 0 0 0 -1.55,-1 11.13,11.13 0 0 0 -3.27,-0.88 17.82,17.82 0 0 0 -2.68,0.05 z"
         transform="translate(-440.25,-487.2)"
         style="fill:#ece5d8;fill-opacity:1"
         id="path426" /><path
         d="m 539.18,503.39 -0.76,1.16 h 0.14 c 0.12,0 4.82,0.58 14.67,1.72 a 29.05,29.05 0 0 0 3.69,0 c 2.79,-0.31 4.58,-1.28 5.54,-3 0.15,-0.26 0.16,-0.33 0.1,-0.37 -0.06,-0.04 -0.47,0 -1.29,0.16 a 20.39,20.39 0 0 1 -5.48,0.44 c -1.64,-0.08 -3.45,-0.19 -5.5,-0.35 -1.86,-0.15 -2.67,-0.22 -6.73,-0.62 l -3.17,-0.31 h -0.45 z"
         transform="translate(-440.25,-487.2)"
         style="fill:#ece5d8;fill-opacity:1"
         id="path428" /><path
         d="m 480.76,502.54 c -8.51,0.88 -13.28,1.17 -15.52,0.95 a 19.51,19.51 0 0 1 -2.77,-0.45 c -0.59,-0.15 -1,-0.18 -1.08,-0.11 -0.08,0.07 0.15,0.46 0.51,0.94 a 5.48,5.48 0 0 0 2.63,1.87 13.62,13.62 0 0 0 4.95,0.62 c 1.29,-0.08 3.4,-0.31 11.51,-1.24 l 4.08,-0.47 a 1.55,1.55 0 0 0 0.39,-0.07 c 0,0 -0.16,-0.39 -0.68,-1.18 l -0.75,-1.14 h -0.38 c -0.19,0.02 -1.5,0.14 -2.89,0.28 z"
         transform="translate(-440.25,-487.2)"
         style="fill:#ece5d8;fill-opacity:1"
         id="path430" /><path
         d="m 457,503.22 a 33,33 0 0 1 -3.9,0.16 17.68,17.68 0 0 1 -2.9,-0.23 c -0.25,0 -0.25,0 0,0.43 a 6.81,6.81 0 0 0 1.39,1.46 c 1.47,1.05 4.05,1.57 6.94,1.38 1,-0.06 2.65,-0.23 3.37,-0.33 l 0.41,-0.06 -0.33,-0.3 a 6.71,6.71 0 0 1 -1.63,-2.19 l -0.25,-0.51 h -0.36 z"
         transform="translate(-440.25,-487.2)"
         style="fill:#ece5d8;fill-opacity:1"
         id="path432" /><path
         d="m 563.57,503.59 a 7.27,7.27 0 0 1 -1.39,1.94 l -0.49,0.49 h 0.18 c 0.27,0 2.73,0.29 3.73,0.36 a 11.8,11.8 0 0 0 6.24,-1.05 5.33,5.33 0 0 0 1.92,-1.82 l 0.29,-0.43 h -0.26 l -0.83,0.13 a 35.83,35.83 0 0 1 -5.89,-0.05 l -2.67,-0.18 h -0.52 z"
         transform="translate(-440.25,-487.2)"
         style="fill:#ece5d8;fill-opacity:1"
         id="path434" /><path
         d="m 512.8,505 v 0.79 h 1.47 a 85.08,85.08 0 0 1 21.53,3.32 82.64,82.64 0 0 1 20.2,9.14 c 1.19,0.75 3.56,2.32 3.73,2.48 0.17,0.16 0,0.2 -1.58,2.37 -0.92,1.25 -1.65,2.29 -1.63,2.32 l 0.59,0.51 c 0.42,0.37 0.55,0.45 0.6,0.39 0.05,-0.06 1,-1.37 2.2,-3 l 2.09,-2.82 -0.12,-0.1 c -0.3,-0.23 -1.91,-1.36 -2.77,-1.93 a 81.92,81.92 0 0 0 -17.52,-8.89 87.66,87.66 0 0 0 -28.16,-5.33 h -0.66 z"
         transform="translate(-440.25,-487.2)"
         style="fill:#ece5d8;fill-opacity:1"
         id="path436" /><path
         d="m 508.46,504.3 a 86.15,86.15 0 0 0 -15.39,1.9 83.52,83.52 0 0 0 -27.41,11.18 c -1.49,1 -3.71,2.48 -3.71,2.55 0,0.07 3.79,5.4 4.14,5.71 0.13,0.12 0.09,0.15 0.75,-0.45 a 1.86,1.86 0 0 0 0.42,-0.46 c 0,-0.05 -2.94,-4.15 -3.11,-4.36 -0.17,-0.21 0.59,-0.54 2,-1.43 a 81.34,81.34 0 0 1 20.93,-9.59 86.52,86.52 0 0 1 22.14,-3.51 c 1,0 2,0 2.14,-0.05 h 0.33 v -0.66 a 5.64,5.64 0 0 0 0,-0.75 c 0,-0.08 -0.2,-0.09 -1.42,-0.08 z"
         transform="translate(-440.25,-487.2)"
         style="fill:#ece5d8;fill-opacity:1"
         id="path438" /><path
         d="m 482.13,506.25 c -6.59,0.82 -11.49,1.39 -12.24,1.44 a 21.6,21.6 0 0 1 -3.38,-0.13 c -1,-0.12 -1,-0.13 -0.61,0.33 1,1.06 2.51,1.66 5.07,2 a 9.11,9.11 0 0 0 4.8,-0.44 c 0.26,-0.1 2.61,-0.94 5.22,-1.85 2.61,-0.91 4.79,-1.69 4.84,-1.72 0.05,-0.03 -0.19,-0.06 -3.7,0.37 z"
         transform="translate(-440.25,-487.2)"
         style="fill:#ece5d8;fill-opacity:1"
         id="path440" /><path
         d="m 538.27,505.9 c 0.05,0 1,0.38 2.15,0.76 2.08,0.69 4.93,1.67 7.73,2.65 a 9.64,9.64 0 0 0 2.34,0.72 20.63,20.63 0 0 0 4.07,-0.3 A 6.83,6.83 0 0 0 558,508 c 0.33,-0.36 0.49,-0.58 0.41,-0.58 l -0.48,0.08 a 14.9,14.9 0 0 1 -2.61,0.19 c -1.4,0 -3.81,-0.25 -12.47,-1.32 -5.2,-0.62 -4.71,-0.57 -4.58,-0.47 z"
         transform="translate(-440.25,-487.2)"
         style="fill:#ece5d8;fill-opacity:1"
         id="path442" /><path
         d="m 462.65,507.33 a 37.52,37.52 0 0 1 -4.95,0.41 c -0.87,0 -1.8,0 -2.06,0 a 1.46,1.46 0 0 0 -0.47,0 4.37,4.37 0 0 0 0.74,0.91 5.9,5.9 0 0 0 3.22,1.53 18.18,18.18 0 0 0 6.4,-0.11 5.27,5.27 0 0 0 0.56,-0.1 5,5 0 0 0 -0.54,-0.6 6.17,6.17 0 0 1 -1.26,-1.75 c -0.16,-0.32 -0.23,-0.41 -0.32,-0.41 z"
         transform="translate(-440.25,-487.2)"
         style="fill:#ece5d8;fill-opacity:1"
         id="path444" /><path
         d="m 559.65,507.6 a 6.49,6.49 0 0 1 -1.27,1.76 4.69,4.69 0 0 0 -0.5,0.55 c 0,0.05 0.09,0.07 1.08,0.2 a 17.18,17.18 0 0 0 5.77,0 5.9,5.9 0 0 0 3.4,-1.63 2.67,2.67 0 0 0 0.62,-0.79 c 0,0 -0.61,0 -1.36,0 a 23,23 0 0 1 -2.38,-0.06 c -1.35,-0.12 -4.74,-0.46 -5,-0.49 -0.26,-0.03 -0.13,0.02 -0.36,0.46 z"
         transform="translate(-440.25,-487.2)"
         style="fill:#ece5d8;fill-opacity:1"
         id="path446" /><path
         d="m 503.06,507.3 a 7.14,7.14 0 0 0 -2.62,1 4.53,4.53 0 0 0 -0.69,6.81 4.38,4.38 0 0 0 2.72,1.38 10.74,10.74 0 0 0 5.42,-0.78 c 0.6,-0.28 1.25,-0.73 1.25,-0.87 a 0.85,0.85 0 0 0 -0.17,-0.23 c -0.16,-0.18 -0.17,-0.23 -0.22,-0.8 0,-0.33 0,-0.84 0,-1.14 v -0.54 l 0.22,-0.11 c 0.12,-0.06 0.22,-0.15 0.23,-0.19 0,-0.22 0,-0.22 -2.27,-0.08 a 18,18 0 0 1 -2.34,0.08 0.54,0.54 0 0 1 -0.25,-0.21 c -0.1,-0.18 -0.13,-0.19 -0.26,-0.1 -0.13,0.09 -0.09,0.13 0,1.12 0.06,0.58 0.12,1.06 0.13,1.07 0.01,0.01 0.29,-0.11 0.29,-0.22 a 0.4,0.4 0 0 1 0.28,-0.36 13.48,13.48 0 0 1 2.3,-0.13 3.47,3.47 0 0 1 0.06,0.74 v 0.69 l -0.32,0.13 A 11.89,11.89 0 0 1 505,515 a 7.36,7.36 0 0 1 -2.12,0 3,3 0 0 1 -2.45,-3 2.64,2.64 0 0 1 0.79,-2.25 4.2,4.2 0 0 1 2.59,-1.08 6.75,6.75 0 0 1 2.71,0.32 c 0.39,0.13 0.55,0.28 0.6,0.53 0.05,0.25 0.1,0.27 0.26,0.27 0.16,0 0.18,-0.19 0.56,-1.12 0.25,-0.61 0.46,-1.14 0.46,-1.17 0,-0.03 -0.24,-0.1 -0.32,0 -0.08,0.1 -0.45,0.08 -1,0 a 13.42,13.42 0 0 0 -4.02,-0.2 z"
         transform="translate(-440.25,-487.2)"
         style="fill:#ece5d8;fill-opacity:1"
         id="path448" /><path
         d="m 518.15,507.28 a 4.56,4.56 0 0 0 -2.21,1 2.26,2.26 0 0 0 0,3.27 c 0.63,0.61 1.27,0.81 4.33,1.34 1.31,0.23 2.12,0.52 2.32,0.83 a 0.7,0.7 0 0 1 -0.2,1 3.16,3.16 0 0 1 -1.7,0.37 6.62,6.62 0 0 1 -3.27,-0.64 2.46,2.46 0 0 1 -1.15,-0.86 l -0.23,-0.31 -0.56,1 c -0.63,1.15 -0.63,1.18 -0.13,1.13 a 1,1 0 0 1 0.63,0.17 11.15,11.15 0 0 0 5.16,1 5.49,5.49 0 0 0 2.38,-0.53 2.19,2.19 0 0 0 1.13,-1.08 2.3,2.3 0 0 0 0,-2.15 2.74,2.74 0 0 0 -1.12,-1 13.43,13.43 0 0 0 -3.7,-1 5.59,5.59 0 0 1 -1.75,-0.49 c -0.63,-0.31 -0.76,-0.76 -0.34,-1.16 a 2.51,2.51 0 0 1 1.64,-0.43 6.24,6.24 0 0 1 3.84,1.08 1.11,1.11 0 0 1 0.56,0.71 0.7,0.7 0 0 0 0.15,0.27 4.8,4.8 0 0 0 0.75,-0.75 l 0.84,-0.94 c 0.22,-0.23 0.14,-0.32 -0.27,-0.35 a 3.17,3.17 0 0 1 -1.11,-0.4 10.85,10.85 0 0 0 -3.4,-1.07 13.76,13.76 0 0 0 -2.59,-0.01 z"
         transform="translate(-440.25,-487.2)"
         style="fill:#ece5d8;fill-opacity:1"
         id="path450" /><path
         d="m 526.57,507.73 c 0,0 -0.13,0.53 -0.3,1.15 C 526.1,509.5 526,510 526,510 c 0,0 0.32,0 0.4,-0.08 0.08,-0.08 0.37,-0.14 1.6,0.16 l 1.19,0.27 c 0.05,0 0.09,0 0.09,0.13 0,0.13 -1.43,6.52 -1.51,6.69 a 0.42,0.42 0 0 1 -0.18,0.18 c -0.11,0.05 -0.23,0.25 -0.17,0.31 l 1.23,0.3 1.2,0.28 v -0.12 a 0.48,0.48 0 0 0 -0.11,-0.29 l -0.12,-0.17 0.65,-2.54 c 0.73,-2.9 1.08,-4.22 1.11,-4.26 a 21.35,21.35 0 0 1 2.63,0.8 0.33,0.33 0 0 1 0.11,0.19 c 0,0.15 0.13,0.29 0.25,0.25 0.12,-0.04 0.17,-0.26 0.42,-1.1 l 0.34,-1.13 c 0,-0.11 -0.3,-0.08 -0.47,0.05 -0.17,0.13 0,0.17 -2,-0.36 l -3.26,-0.81 c -1.17,-0.28 -2.18,-0.55 -2.25,-0.59 a 0.63,0.63 0 0 1 -0.2,-0.26 0.33,0.33 0 0 0 -0.3,-0.24 c 0,0 -0.08,0.05 -0.08,0.07 z"
         transform="translate(-440.25,-487.2)"
         style="fill:#ece5d8;fill-opacity:1"
         id="path452" /><path
         d="m 495.51,508.69 c -1.32,0.26 -1.33,0.27 -1.26,0.38 a 0.54,0.54 0 0 0 0.25,0.16 0.54,0.54 0 0 1 0.25,0.17 c 0.08,0.11 0.37,1.44 0.89,4.06 0.11,0.52 0.2,1 0.23,1.17 v 0.23 l -2.12,-1.35 -3.2,-2.06 -1.09,-0.7 v -0.29 c 0,-0.25 0,-0.29 -0.09,-0.26 l -1.44,0.38 c -0.74,0.19 -1.35,0.36 -1.36,0.38 -0.01,0.02 0.12,0.24 0.26,0.27 a 0.32,0.32 0 0 1 0.23,0.2 c 0.17,0.36 2.39,7.44 2.39,7.61 0,0.17 0,0.19 -0.05,0.21 a 0.3,0.3 0 0 0 -0.05,0.19 c 0,0.13 0,0.16 0.1,0.13 l 1.17,-0.36 c 0.59,-0.18 1.09,-0.33 1.1,-0.35 0.01,-0.02 -0.13,-0.19 -0.3,-0.26 a 0.51,0.51 0 0 1 -0.23,-0.2 c -0.06,-0.15 -1.48,-5 -1.53,-5.26 -0.05,-0.26 0,-0.18 0.06,-0.15 0.06,0.03 6.17,3.94 6.33,4.09 0.16,0.15 0.15,0.14 0.06,0.29 -0.09,0.15 -0.06,0.33 0,0.33 l 1.29,-0.24 1.25,-0.24 c 0.05,0 -0.16,-0.31 -0.23,-0.34 a 0.5,0.5 0 0 1 -0.16,-0.21 c -0.1,-0.2 -1.59,-7.31 -1.59,-7.55 a 0.55,0.55 0 0 1 0.11,-0.3 c 0.12,-0.16 0.13,-0.29 0,-0.36 a 6.26,6.26 0 0 0 -1.27,0.23 z"
         transform="translate(-440.25,-487.2)"
         style="fill:#ece5d8;fill-opacity:1"
         id="path454" /><path
         d="m 511.87,509.86 a 1.54,1.54 0 0 0 -1.05,0.86 1.31,1.31 0 0 0 0.68,1.71 1.48,1.48 0 0 0 2.17,-1.22 1.51,1.51 0 0 0 -0.44,-1 1.6,1.6 0 0 0 -1.36,-0.35 z"
         transform="translate(-440.25,-487.2)"
         style="fill:#ece5d8;fill-opacity:1"
         id="path456" /><path
         d="m 467.09,511 -1.11,0.26 a 19,19 0 0 1 -5.69,0.65 c -1.1,0 -2,0 -2,0 a 4.94,4.94 0 0 0 1,1.14 5.56,5.56 0 0 0 1.95,1 9,9 0 0 0 6.63,-0.27 20.25,20.25 0 0 0 4.25,-2.19 l 0.16,-0.13 -0.14,-0.05 a 12.3,12.3 0 0 0 -1.4,-0.15 c -0.69,0 -1.63,-0.13 -2.08,-0.19 A 6.39,6.39 0 0 0 467.09,511 Z"
         transform="translate(-440.25,-487.2)"
         style="fill:#ece5d8;fill-opacity:1"
         id="path458" /><path
         d="m 554.6,511.09 c -0.67,0.09 -1.57,0.17 -2,0.19 -1.05,0 -1.09,0.08 -0.54,0.46 a 17.42,17.42 0 0 0 7,2.77 12.36,12.36 0 0 0 2.74,-0.23 5.75,5.75 0 0 0 3.13,-1.51 c 0.39,-0.37 0.79,-0.86 0.73,-0.91 -0.06,-0.05 -0.52,0 -1.12,0 a 20.29,20.29 0 0 1 -6.49,-0.65 7,7 0 0 0 -3.45,-0.12 z"
         transform="translate(-440.25,-487.2)"
         style="fill:#ece5d8;fill-opacity:1"
         id="path460" /><path
         d="m 484.19,511.64 c -1.32,0.46 -1.4,0.49 -1.37,0.6 0.03,0.11 0.1,0.12 0.23,0.13 0.38,0 0.41,0.05 0.52,0.35 0.45,1.21 2.54,7.33 2.54,7.45 a 0.49,0.49 0 0 1 -0.14,0.29 c -0.1,0.11 -0.13,0.18 -0.1,0.26 0.03,0.08 0.05,0.11 0.08,0.1 l 1.33,-0.52 c 1.23,-0.48 1.29,-0.51 1.26,-0.63 -0.03,-0.12 -0.05,-0.13 -0.23,-0.13 a 0.4,0.4 0 0 1 -0.29,-0.1 c -0.11,-0.12 -2.62,-7.4 -2.62,-7.6 0,-0.2 0.17,-0.37 0.28,-0.37 0.11,0 0,-0.19 0,-0.26 a 5.94,5.94 0 0 0 -1.49,0.43 z"
         transform="translate(-440.25,-487.2)"
         style="fill:#ece5d8;fill-opacity:1"
         id="path462" /><path
         d="m 537.41,511.56 a 4.3,4.3 0 0 0 -3.69,2.67 4.13,4.13 0 0 0 -0.34,1.87 3.25,3.25 0 0 0 0.15,1.2 4.82,4.82 0 0 0 2.15,2.79 5.58,5.58 0 0 0 4.58,0.66 4.44,4.44 0 0 0 2.68,-2.25 4.94,4.94 0 0 0 0.47,-2.84 4.6,4.6 0 0 0 -1.28,-2.32 5.54,5.54 0 0 0 -3.2,-1.67 7.33,7.33 0 0 0 -1.52,-0.11 z m 1.94,1.83 a 3.72,3.72 0 0 1 1.92,1.58 2.44,2.44 0 0 1 0.38,1.5 2.35,2.35 0 0 1 -0.48,1.57 3.14,3.14 0 0 1 -2.46,1.31 3.32,3.32 0 0 1 -2.65,-1 3.08,3.08 0 0 1 -1,-2.24 2.77,2.77 0 0 1 0.86,-2 2.89,2.89 0 0 1 2.37,-0.84 2.59,2.59 0 0 1 1.06,0.12 z"
         transform="translate(-440.25,-487.2)"
         style="fill:#ece5d8;fill-opacity:1"
         id="path464" /><path
         d="m 481.62,512.66 -1.15,0.53 c -0.31,0.15 -0.33,0.17 -0.27,0.26 a 0.52,0.52 0 0 0 0.22,0.17 c 0.27,0.11 0.24,0 0.52,3 0.12,1.27 0.23,2.43 0.24,2.58 0.01,0.15 0,0.26 -0.06,0.19 -0.06,-0.07 -2.87,-3 -3.53,-3.75 -0.3,-0.33 -0.31,-0.36 -0.3,-0.61 a 0.66,0.66 0 0 0 0,-0.31 7.59,7.59 0 0 0 -1.24,0.54 c -1.17,0.58 -1.19,0.59 -1.14,0.72 a 0.31,0.31 0 0 0 0.18,0.16 0.42,0.42 0 0 1 0.21,0.19 c 0,0.09 0.27,1.29 0.51,2.65 0.51,3 0.49,2.9 0.44,2.88 -0.05,-0.02 -3.41,-3.07 -3.87,-3.52 -0.46,-0.45 -0.34,-0.34 -0.32,-0.54 a 0.61,0.61 0 0 0 0,-0.3 c 0,-0.09 -0.06,-0.08 -0.27,0 a 8.92,8.92 0 0 0 -2,1.4 0.79,0.79 0 0 0 0.27,0.15 c 0.31,0.12 0.17,0 2.55,2.1 3.13,2.74 3.84,3.38 3.93,3.52 a 0.27,0.27 0 0 1 0,0.29 0.24,0.24 0 0 0 0,0.25 c 0.06,0.09 0.15,0 1.08,-0.49 0.55,-0.32 1,-0.6 1,-0.62 0,-0.02 -0.08,-0.15 -0.22,-0.28 a 1.19,1.19 0 0 1 -0.3,-0.45 c -0.12,-0.44 -0.92,-5.26 -0.92,-5.57 0,-0.05 0,-0.1 0.07,-0.1 0.07,0 1.16,1.13 3.42,3.5 l 0.77,0.81 v 0.32 c 0,0.21 0,0.32 0,0.35 a 6.61,6.61 0 0 0 1.12,-0.48 c 0.88,-0.43 1.07,-0.54 1,-0.62 a 0.35,0.35 0 0 0 -0.19,-0.17 0.63,0.63 0 0 1 -0.24,-0.18 77.06,77.06 0 0 1 -0.69,-8.44 1.6,1.6 0 0 0 0,-0.52 c 0,0 -0.38,0.18 -0.82,0.39 z"
         transform="translate(-440.25,-487.2)"
         style="fill:#ece5d8;fill-opacity:1"
         id="path466" /><path
         d="m 545.05,514.3 c 0,0.07 0,0.15 0.21,0.31 0.21,0.16 0.25,0.25 0.25,0.3 0,0.05 -3.28,7.12 -3.41,7.27 -0.13,0.15 -0.13,0.11 -0.37,0.08 -0.24,-0.03 -0.36,0 -0.37,0.15 -0.01,0.15 2.59,1.33 2.68,1.33 0.09,0 0.07,0 0.09,-0.11 0.02,-0.11 0,-0.15 -0.13,-0.26 a 0.52,0.52 0 0 1 -0.17,-0.24 c 0,0 0.32,-0.72 0.7,-1.49 l 0.7,-1.4 0.66,0.34 1.58,0.84 a 11.62,11.62 0 0 0 3.2,1.32 2.46,2.46 0 0 0 2.41,-1.37 2.62,2.62 0 0 0 0.27,-1.4 2.24,2.24 0 0 0 -0.82,-1.66 6.25,6.25 0 0 0 -1.73,-1.31 60,60 0 0 0 -5.63,-2.83 0.15,0.15 0 0 0 -0.12,0.13 z m 2.41,2.77 c 0.57,0.29 1.82,1 2.49,1.33 a 4.14,4.14 0 0 1 1.32,1 1.19,1.19 0 0 1 -0.44,1.41 c -0.17,0.11 -0.23,0.12 -0.56,0.1 a 2.13,2.13 0 0 1 -0.94,-0.31 c -1.15,-0.58 -3.28,-1.74 -3.3,-1.81 a 11.9,11.9 0 0 1 1,-1.95 3.32,3.32 0 0 1 0.43,0.23 z"
         transform="translate(-440.25,-487.2)"
         style="fill:#ece5d8;fill-opacity:1"
         id="path468" /><path
         d="m 509.55,517.45 c -13.11,0.49 -25.42,4.55 -37.26,12.29 l -0.9,0.58 a 20.81,20.81 0 0 1 -1.67,-2.21 L 468,525.76 c -0.07,-0.09 -0.11,-0.06 -0.63,0.4 a 3.63,3.63 0 0 0 -0.56,0.56 c 0,0 4,5.6 4.11,5.75 a 7.93,7.93 0 0 0 1.1,-0.68 73.61,73.61 0 0 1 24.06,-10.93 68.45,68.45 0 0 1 14.47,-1.86 h 1.11 v -1.55 h -0.52 z"
         transform="translate(-440.25,-487.2)"
         style="fill:#ece5d8;fill-opacity:1"
         id="path470" /><path
         d="m 512.81,518.2 v 0.77 h 1.08 a 68.24,68.24 0 0 1 33,10 c 1.39,0.83 3.57,2.27 5,3.26 0.53,0.38 1,0.68 1,0.67 0.3,-0.34 4.12,-5.62 4.1,-5.66 a 9.82,9.82 0 0 0 -1.14,-1 l -1.65,2.23 c -0.89,1.21 -1.65,2.21 -1.67,2.22 -0.02,0.01 -0.66,-0.39 -1.41,-0.89 a 73.11,73.11 0 0 0 -8.54,-5 70.12,70.12 0 0 0 -21.6,-6.84 66.29,66.29 0 0 0 -7.51,-0.62 h -0.65 z"
         transform="translate(-440.25,-487.2)"
         style="fill:#ece5d8;fill-opacity:1"
         id="path472" /><path
         d="m 509,520.38 a 20.52,20.52 0 0 0 -3.11,0.28 4.88,4.88 0 0 0 1.12,0.82 10,10 0 0 0 10.66,-0.43 l 0.48,-0.36 -0.4,-0.06 A 70.07,70.07 0 0 0 509,520.38 Z"
         transform="translate(-440.25,-487.2)"
         style="fill:#ece5d8;fill-opacity:1"
         id="path474" /><path
         d="m 502.15,521 c -2.27,0.33 -3.71,0.6 -5.91,1.09 -0.16,0 -0.29,0.09 -0.29,0.11 a 5.61,5.61 0 0 0 0.41,0.65 19.11,19.11 0 0 0 11.08,7.67 17.57,17.57 0 0 0 4.72,0.56 17,17 0 0 0 3.55,-0.32 19.21,19.21 0 0 0 12.06,-7.74 c 0.35,-0.49 0.44,-0.65 0.38,-0.68 -0.06,-0.03 -1.5,-0.38 -2.7,-0.62 -1.9,-0.38 -4.69,-0.83 -5.19,-0.83 -0.5,0 -0.45,0 -1.06,0.5 a 11.62,11.62 0 0 1 -4.2,2.11 11.18,11.18 0 0 1 -3,0.36 11.64,11.64 0 0 1 -7.3,-2.52 c -0.48,-0.37 -0.74,-0.5 -1,-0.49 -0.06,-0.01 -0.77,0.08 -1.55,0.15 z m 1,1.11 a 5.34,5.34 0 0 1 0.58,0.55 1.31,1.31 0 0 1 -0.23,0.3 l -0.23,0.25 -0.32,-0.24 -0.31,-0.24 -0.12,0.19 -0.12,0.19 0.11,0.09 0.25,0.19 0.13,0.12 -0.26,0.29 -0.26,0.3 -0.25,-0.21 -0.25,-0.2 -0.18,0.18 -0.18,0.18 0.29,0.24 0.3,0.24 -0.1,0.15 a 3.2,3.2 0 0 1 -0.27,0.3 l -0.16,0.16 -0.58,-0.53 a 5.09,5.09 0 0 1 -0.58,-0.58 c 0,-0.06 2.08,-2.39 2.14,-2.4 a 5.68,5.68 0 0 1 0.6,0.52 z m 18.5,0.41 0.27,0.33 -0.27,0.05 c -0.31,0.06 -0.43,0.18 -0.33,0.33 0.1,0.15 0.16,0.1 0.51,0.13 a 1.15,1.15 0 0 1 1,0.39 1.1,1.1 0 0 1 -0.55,1.76 c -0.15,0.06 -0.16,0.06 -0.39,-0.2 -0.38,-0.43 -0.38,-0.44 -0.06,-0.51 0.32,-0.07 0.29,-0.1 0.33,-0.2 0.04,-0.1 -0.1,-0.34 -0.52,-0.34 a 1.07,1.07 0 0 1 -1.17,-1 0.68,0.68 0 0 1 0.2,-0.61 1.54,1.54 0 0 1 0.7,-0.43 1.57,1.57 0 0 1 0.29,0.35 z m -16.46,1.12 0.4,0.23 v 0.29 a 0.73,0.73 0 0 0 0,0.29 1.31,1.31 0 0 0 0.24,-0.17 l 0.22,-0.17 0.44,0.22 0.44,0.22 -0.62,0.46 c -0.34,0.25 -0.65,0.5 -0.69,0.55 a 10.33,10.33 0 0 0 -0.22,1.87 1.28,1.28 0 0 1 -0.43,-0.18 c -0.31,-0.17 -0.43,-0.25 -0.41,-0.31 a 3.71,3.71 0 0 0 0.06,-0.4 v -0.32 l -0.33,0.25 -0.32,0.26 -0.4,-0.21 c -0.22,-0.11 -0.38,-0.23 -0.37,-0.26 a 6.26,6.26 0 0 1 0.67,-0.54 c 0.77,-0.58 0.77,-0.57 0.82,-1.6 a 4,4 0 0 1 0.06,-0.68 z m 14.1,0.44 c 0.15,0.27 0.17,0.33 0.1,0.37 l -0.21,0.15 -0.13,0.11 0.53,1 c 0.29,0.58 0.52,1.08 0.52,1.11 a 1.17,1.17 0 0 1 -0.38,0.24 l -0.37,0.19 -0.55,-1.08 -0.55,-1.08 h -0.18 l -0.25,0.06 c 0,0 -0.14,-0.12 -0.24,-0.33 l -0.17,-0.35 0.8,-0.4 c 0.44,-0.22 0.82,-0.4 0.84,-0.4 0.02,0 0.15,0.27 0.25,0.45 z m -10.91,1 a 3.55,3.55 0 0 1 1.19,0.47 1,1 0 0 1 0.16,1.35 c -0.19,0.4 -0.4,0.51 -1,0.52 h -0.44 l -0.13,0.46 c -0.08,0.25 -0.14,0.47 -0.15,0.48 a 3.36,3.36 0 0 1 -0.78,-0.16 6.6,6.6 0 0 1 0.3,-1.53 c 0.44,-1.83 0.4,-1.71 0.48,-1.67 z m 7.63,0.16 a 1.1,1.1 0 0 1 0.56,1.53 1.12,1.12 0 0 0 -0.13,0.23 5.31,5.31 0 0 0 0.44,0.56 3.08,3.08 0 0 1 0.41,0.56 6.84,6.84 0 0 1 -0.83,0.24 2.93,2.93 0 0 1 -0.39,-0.51 3.07,3.07 0 0 0 -0.37,-0.49 2.52,2.52 0 0 0 0.09,0.51 5.32,5.32 0 0 1 0.11,0.55 c 0,0 -0.15,0.11 -0.41,0.17 a 2.35,2.35 0 0 1 -0.42,0.08 c 0,0 -0.18,-0.72 -0.39,-1.59 a 7.19,7.19 0 0 1 -0.32,-1.6 c 0.11,0 1.24,-0.28 1.35,-0.29 a 1.19,1.19 0 0 1 0.29,0.05 z m -3,0.76 v 0.36 h -0.2 -0.38 c -0.17,0 -0.18,0 -0.16,0.2 0.02,0.2 0,0.2 0.2,0.22 0.43,0 0.43,0 0.43,0.41 v 0.34 h -0.32 c -0.32,0 -0.32,0 -0.34,0.23 -0.02,0.23 0,0.22 0,0.24 a 1.16,1.16 0 0 0 0.37,0 H 513 v 0.75 h -1.55 v -0.8 a 17,17 0 0 1 0.06,-2.44 3.68,3.68 0 0 1 0.79,0 h 0.76 z"
         transform="translate(-440.25,-487.2)"
         style="fill:#ece5d8;fill-opacity:1"
         id="path476" /><path
         d="m 508.66,526.14 c -0.12,0.5 -0.12,0.5 0,0.5 a 0.49,0.49 0 0 0 0.38,-0.4 c 0,-0.15 -0.12,-0.3 -0.24,-0.3 -0.12,0 -0.11,0.06 -0.14,0.2 z"
         transform="translate(-440.25,-487.2)"
         style="fill:#ece5d8;fill-opacity:1"
         id="path478" /><path
         d="m 515.42,526 a 2.49,2.49 0 0 0 0.15,0.71 c 0,0 0.09,0 0.16,-0.06 a 0.27,0.27 0 0 0 0.13,-0.26 c 0,-0.2 0,-0.27 -0.2,-0.36 -0.2,-0.09 -0.2,-0.11 -0.24,-0.03 z"
         transform="translate(-440.25,-487.2)"
         style="fill:#ece5d8;fill-opacity:1"
         id="path480" /><path
         d="m 528.79,523.67 a 27.88,27.88 0 0 1 -2,2.37 20.41,20.41 0 0 1 -13.32,6.28 h -0.42 v 2.52 l 0.63,0.42 a 21.71,21.71 0 0 0 2.35,1.46 1,1 0 0 0 0.75,-0.08 c 0.07,0 0.66,-0.8 1.31,-1.67 1.25,-1.67 1.39,-1.81 1.85,-1.91 0.3,-0.07 0.29,-0.07 2.46,0.45 0.93,0.23 1.75,0.41 1.83,0.41 a 1,1 0 0 0 0.69,-0.38 c 0.06,-0.1 0.36,-1 0.65,-2 a 21.33,21.33 0 0 1 0.68,-2 A 1.33,1.33 0 0 1 527,529 c 0.21,-0.07 3.38,-0.43 3.8,-0.43 0.42,0 5.58,0.87 7.53,1.29 1.95,0.42 4.56,1.12 7.69,2.06 1.52,0.45 1.46,0.44 1.63,0.31 a 0.37,0.37 0 0 0 0,-0.59 57.35,57.35 0 0 0 -5.13,-2.85 69.42,69.42 0 0 0 -7.59,-3.27 c -2,-0.74 -5.82,-2.11 -5.89,-2.11 -0.07,0 -0.16,0.12 -0.25,0.26 z"
         transform="translate(-440.25,-487.2)"
         style="fill:#ece5d8;fill-opacity:1"
         id="path482" /><path
         d="m 494.27,523.79 c -0.47,0.18 -1.46,0.51 -2.21,0.73 a 69.38,69.38 0 0 0 -11.42,4.48 48.23,48.23 0 0 0 -4.38,2.39 0.71,0.71 0 0 0 -0.09,0.29 c 0,0.2 0,0.22 0.17,0.31 l 0.2,0.09 1.65,-0.47 a 91.31,91.31 0 0 1 13.63,-2.94 c 1.39,-0.19 1.27,-0.2 3.94,0.13 1.29,0.16 1.46,0.19 1.68,0.32 a 1.47,1.47 0 0 1 0.66,0.89 l 0.56,1.91 c 0.49,1.67 0.54,1.78 0.88,2 0.34,0.22 0.55,0.08 2.48,-0.39 1.93,-0.47 2.08,-0.47 2.54,-0.24 0.3,0.16 0.36,0.23 1.65,2 a 16,16 0 0 0 1.15,1.44 0.81,0.81 0 0 0 0.89,0.06 c 0.14,-0.07 0.89,-0.55 1.68,-1.07 l 1.43,-0.94 v -2.32 h -0.49 a 24.54,24.54 0 0 1 -4.93,-1 20.76,20.76 0 0 1 -10.33,-7.46 1.71,1.71 0 0 0 -0.4,-0.44 c 0,0 -0.47,0.06 -0.94,0.23 z"
         transform="translate(-440.25,-487.2)"
         style="fill:#ece5d8;fill-opacity:1"
         id="path484" /></g></g></svg>
