<?xml version="1.0" encoding="UTF-8" standalone="no"?>
<svg
   viewBox="0 0 24 24"
   width="24pt"
   height="24pt"
   version="1.1"
   id="svg2957"
   sodipodi:docname="yoshinoya.svg"
   xml:space="preserve"
   inkscape:version="1.2.2 (732a01da63, 2022-12-09)"
   inkscape:export-filename="yoshinoya.svg"
   inkscape:export-xdpi="96"
   inkscape:export-ydpi="96"
   xmlns:inkscape="http://www.inkscape.org/namespaces/inkscape"
   xmlns:sodipodi="http://sodipodi.sourceforge.net/DTD/sodipodi-0.dtd"
   xmlns="http://www.w3.org/2000/svg"
   xmlns:svg="http://www.w3.org/2000/svg"><defs
     id="defs2961" /><sodipodi:namedview
     id="namedview2959"
     pagecolor="#ffffff"
     bordercolor="#000000"
     borderopacity="0.25"
     inkscape:showpageshadow="2"
     inkscape:pageopacity="0.0"
     inkscape:pagecheckerboard="0"
     inkscape:deskcolor="#d1d1d1"
     inkscape:document-units="pt"
     showgrid="false"
     inkscape:zoom="25.28125"
     inkscape:cx="6.328801"
     inkscape:cy="14.556242"
     inkscape:window-width="1920"
     inkscape:window-height="974"
     inkscape:window-x="-11"
     inkscape:window-y="1609"
     inkscape:window-maximized="1"
     inkscape:current-layer="svg2957" /><g
     id="g3102"
     transform="matrix(0.0134012,0,0,0.0134012,3.9926656,5.6847899)"><path
       d="m 952,64.659 c -1.375,0.209 -3.925,0.61 -5.667,0.891 -1.742,0.28 -6.496,2.683 -10.565,5.339 -10.435,6.812 -17.391,9.198 -27.471,9.425 -8.123,0.182 -8.287,0.235 -8.286,2.686 10e-4,9.654 6.473,21.166 14.081,25.047 4.594,2.344 5.908,4.511 5.908,9.745 v 3.923 l -5.75,0.655 c -3.163,0.36 -8.9,1.074 -12.75,1.587 -3.85,0.513 -7.918,0.707 -9.041,0.432 -1.123,-0.276 -3.236,-2.479 -4.696,-4.896 -5.067,-8.389 -14.062,-13.162 -30.263,-16.06 -11.588,-2.072 -11.887,-2.02 -13.448,2.317 -0.743,2.063 -4.433,6.934 -8.201,10.826 -3.768,3.891 -6.851,7.59 -6.851,8.22 0,0.629 1.394,2.17 3.098,3.424 1.703,1.254 4.291,4.305 5.75,6.78 2.33,3.954 2.644,5.532 2.585,13 -0.059,7.454 -0.468,9.335 -3.319,15.287 -1.864,3.891 -5.762,9.471 -9.137,13.079 -5.61,5.997 -5.917,6.594 -6.548,12.746 -1.718,16.775 7.373,33.932 21.228,40.06 5.815,2.573 17.717,3.515 22.928,1.815 8.888,-2.898 17.546,-11.84 19.008,-19.631 0.441,-2.351 1.176,-3.356 2.453,-3.356 2.996,0 6.954,1.857 6.954,3.263 0,3.632 -17.736,17.146 -31.699,24.154 -9.82,4.928 -14.89,5.915 -20.952,4.076 -7.323,-2.222 -10.855,-1.937 -13.218,1.068 -4.568,5.807 -5.39,21.382 -1.53,28.992 1.47,2.897 3.451,4.7 7.451,6.781 5.071,2.637 6.074,2.804 14.479,2.401 8.023,-0.385 10.021,-0.897 17.902,-4.591 9.711,-4.55 19.057,-10.146 27.567,-16.505 19.93,-14.892 36.219,-29.716 44.052,-40.091 4.317,-5.718 6.271,-6.755 7.364,-3.907 0.92,2.398 -1.206,5.12 -14.211,18.19 -24.256,24.376 -57.118,46.96 -74.227,51.012 -4.974,1.178 -15.825,0.095 -20.53,-2.049 -2.523,-1.149 -2.915,-0.997 -5.546,2.154 -3.276,3.924 -4.458,9.806 -3.468,17.262 1.66,12.52 8.931,19.178 22.251,20.377 13.41,1.208 27.139,-3.882 49.815,-18.467 16.526,-10.63 45.521,-35.771 51.945,-45.04 2.942,-4.246 3.96,-4.464 4.856,-1.038 0.898,3.433 -10.116,15.977 -26.563,30.251 -16.241,14.096 -41.365,31.261 -54.804,37.444 -16.916,7.782 -31.86,6.748 -42.576,-2.945 -2.131,-1.927 -2.156,-1.923 -4.731,0.854 -8.383,9.041 -7.153,32.196 2.226,41.896 5.717,5.913 11.138,7.942 21.147,7.917 11.192,-0.028 18.995,-2.211 33.038,-9.241 l 11.538,-5.776 3.894,2.029 c 6.522,3.398 13.238,10.488 20.812,21.972 9.104,13.801 11.598,15.293 27.479,16.431 20.553,1.473 35.892,-2.037 50.327,-11.515 12.2,-8.012 19.821,-16.953 24.797,-29.094 1.495,-3.648 3.226,-6.802 3.846,-7.009 0.62,-0.206 3.354,2.914 6.075,6.934 8.919,13.179 19.161,21.416 32.194,25.892 9.536,3.275 25.546,3.273 32.279,-0.004 9.933,-4.834 14.898,-14.785 15.009,-30.078 0.062,-8.551 -0.335,-10.699 -3.97,-21.5 -2.221,-6.6 -4.576,-14.025 -5.233,-16.5 -1.612,-6.072 -2.698,-24.492 -2.085,-35.348 0.275,-4.867 0.232,-9.013 -0.096,-9.214 -0.328,-0.201 -3.658,3.441 -7.4,8.094 -6.985,8.684 -10.493,11.878 -16.375,14.908 -2.847,1.466 -4.063,1.562 -7.821,0.616 -2.447,-0.616 -6.331,-2.284 -8.629,-3.707 -4.233,-2.619 -10.679,-8.251 -10.679,-9.33 0,-0.323 1.39,-1.409 3.089,-2.412 2.985,-1.764 3.279,-1.764 8.75,-0.015 17.495,5.595 34.508,-3.492 34.486,-18.421 -0.014,-9.7 -6.028,-17.99 -16.274,-22.433 -19.971,-8.662 -33.014,-16.323 -43.226,-25.394 -8.114,-7.206 -10.196,-7.765 -21.648,-5.814 -5.293,0.901 -10.423,2.067 -11.4,2.589 -1.996,1.069 -1.756,1.895 3.839,13.219 l 2.884,5.837 -2.361,1.913 c -1.298,1.051 -2.718,1.912 -3.156,1.912 -0.437,0 -4.069,-4.612 -8.072,-10.25 -4.002,-5.637 -8.77,-12.096 -10.594,-14.353 -1.824,-2.257 -3.317,-4.46 -3.317,-4.896 0,-0.436 11.874,-0.559 26.386,-0.272 l 26.386,0.521 6.364,6.485 c 3.5,3.567 8.839,7.786 11.864,9.375 5.077,2.668 6.307,2.886 16,2.84 9.169,-0.044 11.227,-0.385 16.237,-2.689 7.751,-3.566 14.645,-10.71 19.115,-19.809 4.673,-9.513 5.987,-16.846 5.366,-29.952 -0.872,-18.429 -6.942,-30.997 -22.718,-47.041 -21.436,-21.799 -32.336,-24.15 -45.503,-9.812 l -3.997,4.353 -13.75,-0.304 -13.75,-0.304 v -3.407 c 0,-3.232 0.262,-3.485 5.086,-4.918 13.848,-4.112 17.951,-11.687 10.15,-18.735 C 1019.581,81.82 998.415,73.085 978.5,68.132 968.055,65.534 956.339,63.999 952,64.659 M 580.448,68.6 c -2.107,1.43 -6.695,5.03 -10.196,8 -5.123,4.345 -7.087,5.411 -10.059,5.459 -2.031,0.032 -9.993,0.425 -17.693,0.874 l -14,0.815 -4.5,-3.189 c -13.933,-9.873 -18.561,-10.738 -27.015,-5.049 -7.575,5.098 -20.29,15.894 -24.939,21.175 -6.726,7.641 -6.981,12.654 -1.307,25.655 l 2.688,6.16 0.814,42.5 c 1.096,57.291 1.401,62.172 4.142,66.244 5.492,8.159 21.306,9.255 31.578,2.189 4.6,-3.164 13.874,-6.433 18.249,-6.433 1.493,0 1.79,0.873 1.79,5.268 v 5.269 l -16.56,3.355 c -17.945,3.636 -23.146,3.672 -26.853,0.19 -2.863,-2.69 -4.326,-2.623 -8.771,0.397 -9.135,6.207 -12.259,23.028 -6.468,34.822 3.357,6.835 7.994,10.344 16.188,12.248 6.379,1.483 9.819,0.806 14.674,-2.891 3.231,-2.46 14.095,-5.831 23.183,-7.194 L 530,283.773 v 4.566 c 0,8.706 -0.519,9.126 -18.252,14.772 -10.107,3.218 -16.785,4.846 -18.31,4.463 -1.321,-0.332 -3.931,-1.946 -5.802,-3.588 -1.87,-1.643 -4.059,-2.986 -4.865,-2.986 -2.09,0 -8.251,6.257 -11.325,11.503 -7.82,13.343 -7.089,30.2 1.886,43.497 4.256,6.305 16.128,17.904 22.668,22.148 12.004,7.788 24.836,10.017 33.174,5.763 5.093,-2.598 7.325,-4.814 12.504,-12.411 5.984,-8.779 11.324,-14.503 21.469,-23.015 7.107,-5.963 9.325,-7.339 10.396,-6.449 1.694,1.405 13.337,20.846 16.188,27.03 1.158,2.511 2.821,7.025 3.695,10.031 3.458,11.895 11.591,16.903 27.452,16.903 24.225,0 41.751,-10.847 51.958,-32.156 l 4.729,-9.873 4.968,10.19 c 7.047,14.459 8.356,15.839 15.018,15.839 14.604,0 29.824,-11.008 38.022,-27.5 5.307,-10.677 6.402,-16.15 6.415,-32.088 0.007,-7.748 0.308,-26.198 0.669,-41 l 0.658,-26.912 h 5.315 c 7.794,0 9.879,-2.389 9.844,-11.28 -0.037,-9.294 -4.012,-16.417 -16.682,-29.892 C 736.406,205.6 732,200.512 732,200.02 c 0,-0.492 1.526,-0.647 3.392,-0.344 4.964,0.806 10.235,-1.321 13.329,-5.377 3.521,-4.616 4.358,-14.184 1.823,-20.824 -2.063,-5.402 -9.008,-11.793 -14.845,-13.661 -3.555,-1.138 -4.157,-1.716 -3.927,-3.767 0.149,-1.333 0.374,-2.523 0.5,-2.645 0.125,-0.121 2.566,0.243 5.423,0.81 13.77,2.733 21.778,-5.267 21.568,-21.55 -0.102,-7.996 -4.315,-16.173 -13.001,-25.238 -3.73,-3.891 -11.248,-13.709 -16.707,-21.817 C 719.453,70.604 715.324,66 711.97,66 c -3.305,0 -7.35,2.252 -12.005,6.684 l -4.535,4.317 -26.773,0.993 -26.774,0.993 -5.461,-3.494 C 633.419,73.572 630.172,72 629.208,72 c -0.964,0 -3.43,1.383 -5.48,3.073 l -3.727,3.072 -6.196,-3.763 C 599.169,65.491 587.906,63.539 580.448,68.6 M 234.92,69.786 c -1.926,0.982 -5.112,3.25 -7.079,5.04 C 217.86,83.909 207.366,88 194.051,88 c -8.846,0 -9.025,0.048 -9.658,2.571 -0.891,3.55 0.231,10.794 2.442,15.77 2.566,5.774 6.532,10.193 12.674,14.122 4.782,3.059 5.297,3.755 5.938,8.035 0.387,2.577 0.495,4.893 0.242,5.147 -0.881,0.881 -33.231,4.318 -40.813,4.337 -8.741,0.021 -15.105,-1.869 -19.064,-5.662 -2.528,-2.422 -2.944,-2.512 -6.014,-1.301 -11.941,4.71 -19.9,16.369 -21.863,32.026 -1.768,14.1 0.546,23.054 7.875,30.48 5.563,5.637 12.348,8.454 20.393,8.465 7.382,0.011 9.607,-0.74 17.942,-6.054 5.951,-3.795 8.014,-4.168 36.105,-6.522 l 7.75,-0.649 v 7.429 7.429 l -10.25,1.195 c -59.23,6.906 -66.793,7.247 -74.405,3.36 -3.865,-1.974 -7.696,-5.731 -8.596,-8.43 -0.554,-1.664 -8.721,3.361 -13.67,8.409 -10.351,10.56 -13.547,30.164 -7.009,42.981 2.881,5.646 9.555,11.772 15.93,14.62 7.879,3.521 15.504,2.842 28.029,-2.496 21.661,-9.231 49.808,-13.992 96.971,-16.402 20.342,-1.039 26.658,-0.975 47,0.479 34.955,2.497 44.681,4.098 37.75,6.213 -1.238,0.377 -5.475,2.867 -9.416,5.533 l -7.166,4.847 -8.334,-0.973 c -13.407,-1.566 -63.123,-1.197 -80.834,0.599 -30.625,3.105 -26.682,3.334 -34.73,-2.017 -9.45,-6.284 -13.11,-6.74 -21.727,-2.708 -8.685,4.064 -16.261,10.008 -26.576,20.849 -9.027,9.486 -13.966,17.555 -15.939,26.039 -2.38,10.236 0.728,17.059 8.755,19.221 3.738,1.006 4.199,1.543 6.722,7.819 3.548,8.825 8.418,23.866 12.501,38.607 3.77,13.612 6.978,18.712 13.994,22.252 15.735,7.937 39.65,3.974 51.925,-8.606 l 4.575,-4.689 20,-1.195 c 14.77,-0.882 23.888,-0.914 34.868,-0.122 16.187,1.167 18.186,1.802 28.649,9.104 10.738,7.495 33.172,10.408 45.275,5.88 14.934,-5.587 20.981,-18.169 15.62,-32.497 l -2.088,-5.58 3.464,-8.708 c 1.905,-4.789 4.214,-11.316 5.13,-14.504 1.02,-3.553 2.327,-6.01 3.374,-6.345 10.404,-3.335 16.11,-7.234 19.088,-13.042 1.952,-3.807 1.343,-11.943 -1.279,-17.099 -2.914,-5.728 -16.213,-19.085 -27.101,-27.218 -8.392,-6.27 -24.016,-14.943 -27.159,-15.078 -1.012,-0.043 -1.307,-0.296 -0.654,-0.562 1.302,-0.531 5.769,0.237 23.765,4.085 26.685,5.706 42.142,2.039 48.945,-11.612 2.249,-4.514 2.603,-6.503 2.603,-14.624 0,-15.616 -4.634,-26.228 -14.359,-32.883 -5.353,-3.663 -6.641,-4.032 -6.641,-1.902 0,2.05 -4.75,7.396 -8.12,9.139 -6.892,3.564 -12.072,3.639 -30.751,0.445 -11.114,-1.901 -29.431,-3.99 -35.129,-4.008 -3.025,-0.009 -7.863,-0.3 -10.75,-0.647 L 295,200.721 v -6.989 -6.99 l 9.25,0.706 c 21.317,1.627 29.208,3.139 36.254,6.944 17.124,9.249 31.755,8.407 40.805,-2.347 8.248,-9.802 5.206,-27.87 -8.056,-47.851 -5.601,-8.439 -14.779,-17.786 -19.898,-20.264 -5.917,-2.864 -9.587,-1.821 -18.21,5.175 l -6.356,5.156 L 314.895,132.99 301,131.72 v -3.778 c 0,-5.058 0.838,-6.942 3.087,-6.942 3.674,0 9.544,-3.106 11.215,-5.934 2.685,-4.546 2.175,-10.003 -1.446,-15.47 C 301.896,81.54 250.176,62.008 234.92,69.786 M 574,129 v 7 h 5.5 5.5 v -7 -7 h -5.5 -5.5 v 7 m -54,3.55 v 7.55 l 5.75,-0.3 5.75,-0.3 0.294,-7.25 0.294,-7.25 H 526.044 520 v 7.55 m 152.899,0.885 c -0.239,0.239 -4.672,0.528 -9.851,0.641 -5.178,0.114 -10.219,0.417 -11.2,0.674 -0.982,0.257 -2.931,2.422 -4.332,4.812 -4.308,7.352 -9.199,9.205 -15.584,5.903 -3.229,-1.67 -3.35,-1.559 -4.227,3.862 -0.415,2.569 -0.236,2.772 1.962,2.221 4.255,-1.069 21.548,-2.496 30.558,-2.522 l 8.725,-0.026 2.109,-4.629 c 2.783,-6.11 3.95,-13.047 1.84,-10.936 M 990,159.7 c -16.278,0.436 -52.282,2.53 -66.5,3.869 -26.815,2.524 -29.736,3.422 -25.565,7.861 4.583,4.879 8.313,5.87 17.399,4.622 23.886,-3.282 34.994,-4.241 53.063,-4.583 l 19.897,-0.376 2.944,-2.797 c 3.136,-2.978 7.219,-8.283 6.621,-8.604 -0.197,-0.105 -3.734,-0.102 -7.859,0.008 m 33,1.321 c 1.375,1.19 5.085,4.597 8.244,7.571 3.16,2.975 6.161,5.408 6.669,5.408 1.382,0 5.216,-6.637 6.101,-10.561 l 0.775,-3.439 -5.144,-0.007 c -2.83,-0.004 -8.295,-0.261 -12.145,-0.571 l -7,-0.564 2.5,2.163 M 578.75,175.804 574,176.11 v 3.82 c 0,2.101 -0.281,5.226 -0.625,6.945 L 572.75,190 h 6.125 6.125 v -6.941 c 0,-3.818 -0.337,-7.08 -0.75,-7.251 -0.413,-0.17 -2.888,-0.172 -5.5,-0.004 m -55.25,3.072 -3,0.639 -0.289,9.361 -0.289,9.361 3.789,-0.672 c 7.662,-1.358 7.289,-0.814 7.289,-10.632 0,-9.903 0.193,-9.696 -7.5,-8.057 m 122,12.67 c -4.4,0.737 -11.059,2.133 -14.797,3.102 l -6.798,1.762 0.298,4.045 0.297,4.045 9.847,-0.269 c 5.416,-0.148 15.974,-1.156 23.464,-2.24 l 13.617,-1.971 3.744,-4.26 c 2.058,-2.343 3.762,-4.598 3.785,-5.01 0.071,-1.238 -24.859,-0.645 -33.457,0.796 M 573,233.034 v 4.035 l 5.25,-0.67 c 2.888,-0.368 5.423,-0.82 5.635,-1.002 0.211,-0.183 -0.181,-1.697 -0.872,-3.365 C 581.885,229.309 581.311,229 577.379,229 H 573 v 4.034 m 105.667,18.633 C 678.3,252.033 678,263.519 678,277.191 v 24.859 l 2.75,1.063 c 1.678,0.648 3.724,0.727 5.25,0.201 l 2.5,-0.861 0.292,-22.476 c 0.16,-12.363 0.027,-23.939 -0.296,-25.727 -0.554,-3.07 -0.824,-3.25 -4.875,-3.25 -2.358,0 -4.588,0.3 -4.954,0.667 m -75.157,5.301 c -0.343,1.082 -2.571,4.612 -4.951,7.844 -4.804,6.526 -7.752,8.12 -18.809,10.165 -6.486,1.201 -6.75,1.362 -6.75,4.136 0,2.898 1.679,3.808 3.559,1.928 1.617,-1.617 13.337,-4.208 15.708,-3.473 6.17,1.914 16.93,7.804 21.378,11.703 1.179,1.033 2.304,1.508 2.5,1.054 0.195,-0.454 0.221,-7.614 0.057,-15.911 l -0.299,-15.086 -5.221,-2.164 c -6.363,-2.637 -6.397,-2.638 -7.172,-0.196 M 226,306.027 c -4.675,0.482 -11.2,1.248 -14.5,1.703 l -6,0.828 0.312,3.471 c 0.172,1.909 0.622,7.071 1,11.471 l 0.688,8 10.75,-0.021 c 5.912,-0.011 23.281,-0.124 38.597,-0.25 l 27.846,-0.229 1.654,-9.955 c 0.909,-5.475 1.653,-10.588 1.653,-11.362 0,-0.903 -2.061,-1.85 -5.75,-2.645 -7.092,-1.526 -44.683,-2.202 -56.25,-1.011 m 726.81,2.223 c -2.082,1.953 -24.039,22.044 -26.228,24 -1.896,1.693 -1.79,1.75 3.269,1.75 6.549,0 11.89,-2.622 16.056,-7.883 3.128,-3.949 6.586,-10.863 8.135,-16.265 0.911,-3.174 0.715,-3.428 -1.232,-1.602 m -345.242,5.519 c -4.363,3.152 -8.092,6.23 -8.287,6.841 -0.434,1.36 6.629,3.413 12.689,3.688 l 4.47,0.202 0.369,-8.25 c 0.203,-4.538 -0.009,-8.241 -0.47,-8.231 -0.461,0.011 -4.409,2.598 -8.771,5.75 M 271.5,475.067 c -15.153,2.325 -27.599,8.857 -39.211,20.577 -6.73,6.793 -9.015,9.961 -12.673,17.571 -2.454,5.107 -5.019,11.985 -5.699,15.285 -1.707,8.281 -1.476,23.63 0.481,31.876 4.976,20.97 23.955,41.668 44.577,48.616 13.111,4.416 27.733,4.899 41.525,1.37 17.296,-4.425 35.415,-19.216 43.319,-35.362 5.658,-11.558 7.181,-18.238 7.181,-31.5 0,-13.254 -1.521,-19.934 -7.174,-31.5 -5.803,-11.874 -17.98,-24.019 -29.964,-29.886 -4.599,-2.252 -10.86,-4.726 -13.914,-5.498 -7.594,-1.92 -21.201,-2.66 -28.448,-1.549 m 545,-0.452 c -22.091,2.921 -38.804,12.742 -51.167,30.066 -12.632,17.703 -15.586,42.891 -7.478,63.771 7.769,20.006 26.32,36.617 47.145,42.214 8.773,2.358 27.085,2.313 36,-0.088 23.359,-6.292 44.067,-27.235 49.639,-50.202 2.226,-9.18 2.183,-25.798 -0.089,-34.376 -6.136,-23.156 -26.408,-43.338 -49.55,-49.33 -5.96,-1.543 -19.672,-2.693 -24.5,-2.055 m -416.916,4.921 c -20.142,2.435 -33.297,8.686 -40.785,19.379 -7.425,10.605 -7.342,21.811 0.24,32.4 4.88,6.815 12.059,12.27 27.861,21.17 23.409,13.185 26.564,19.023 13.05,24.151 -3.464,1.315 -8.935,1.786 -24.7,2.129 L 355,579.205 V 594.603 610 h 17.776 c 28.212,0 42.388,-2.476 57.903,-10.114 14.341,-7.06 21.267,-16.62 21.289,-29.386 0.015,-8.686 -2.776,-15.226 -9.666,-22.646 -6.291,-6.774 -13.486,-11.36 -27.308,-17.401 -16.872,-7.376 -20.661,-12.19 -14.004,-17.791 4.377,-3.683 12.458,-5.047 30.256,-5.108 L 446.992,507.5 446.996,492.75 447,478 l -18.25,0.108 c -10.038,0.06 -23.162,0.703 -29.166,1.428 m -304.119,3.131 c 3.142,16.749 23.707,52.469 40.868,70.985 l 5.701,6.152 -4.767,3.472 c -7.684,5.597 -15.155,9.404 -24.767,12.622 l -9,3.013 -0.275,16.176 -0.276,16.177 5.776,-0.66 c 12.196,-1.395 26.563,-6.238 38.796,-13.079 16.146,-9.029 37.237,-28.177 48.768,-44.275 C 210.931,532.808 220,507.036 220,485.869 V 479 H 200.5 181 v 4.39 c 0,5.765 -2.529,18.929 -5.038,26.221 -2.73,7.934 -8.081,19.389 -9.058,19.389 -1.145,0 -14.441,-15.492 -18.881,-22 -4.633,-6.792 -10.371,-18.085 -12.067,-23.75 L 134.683,479 H 114.73 94.777 l 0.688,3.667 M 455,543.478 V 608 H 474.5 494 V 576.5 545 h 20.5 20.5 v 31.5 31.5 h 19.5 19.5 v -64.522 -64.521 l -19.25,0.271 -19.25,0.272 -0.275,16.25 L 534.95,512 H 514.5 494.05 L 493.775,495.75 493.5,479.5 474.25,479.228 455,478.957 v 64.521 M 582,543.5 V 608 h 19 19 V 543.5 479 h -19 -19 v 64.5 m 45.75,-63.933 c -0.413,0.421 -0.75,29.491 -0.75,64.6 V 608 h 19.5 19.5 v -47.62 -47.62 l 11.733,0.733 c 6.453,0.403 12.783,1.133 14.068,1.621 4.714,1.793 9.218,6.225 11.924,11.736 2.638,5.372 2.77,6.315 2.674,19.15 -0.134,17.912 -3.162,36.029 -9.99,59.771 l -0.653,2.271 20.277,-0.271 20.278,-0.271 1.883,-5.5 c 7.524,-21.965 10.498,-62.538 5.887,-80.3 -5.47,-21.072 -19.048,-35.401 -38.174,-40.287 -5.122,-1.308 -13.529,-1.734 -41.907,-2.125 -19.525,-0.268 -35.837,-0.143 -36.25,0.279 M 880,480.318 c 0,5.549 10.011,28.299 19.002,43.185 6.512,10.781 14.994,22.233 22.331,30.149 l 5.701,6.152 -4.767,3.472 c -7.684,5.597 -15.155,9.404 -24.767,12.622 l -9,3.013 -0.275,16.044 c -0.313,18.294 -1.316,16.754 9.775,15.005 22.386,-3.531 45.451,-16.517 66.439,-37.404 21.565,-21.462 34.506,-45.096 39.091,-71.391 0.809,-4.635 1.47,-11.518 1.47,-15.296 V 479 h -19.383 -19.382 l -0.72,7.75 c -0.396,4.262 -1.751,11.824 -3.01,16.804 -2.311,9.135 -9.098,25.446 -10.589,25.446 -1.231,0 -14.118,-14.933 -18.634,-21.593 -5.544,-8.177 -9.938,-16.641 -11.948,-23.017 L 919.635,479 H 899.817 C 884.081,479 880,479.272 880,480.318 m 144.548,5.62 c -22.163,28.803 -38.982,74.647 -41.946,114.335 l -0.58,7.773 17.739,-0.273 17.739,-0.273 0.645,-5.281 c 0.354,-2.905 0.938,-6.85 1.298,-8.767 l 0.654,-3.484 26.692,0.266 26.693,0.266 0.785,5.5 c 0.432,3.025 1.019,6.962 1.305,8.75 l 0.519,3.25 h 17.605 17.605 l -0.582,-10.288 c -1.978,-34.926 -19.601,-82.399 -41.219,-111.038 l -5,-6.624 -17.692,-0.025 -17.691,-0.025 -4.569,5.938 m -749.554,19.996 c -8.25,2.51 -17.477,11.601 -21.13,20.819 -3.291,8.303 -3.237,25.122 0.109,33.698 3.339,8.562 12.578,17.801 19.959,19.96 6.75,1.975 9.362,1.988 15.789,0.079 15.084,-4.479 25.62,-25.149 22.479,-44.101 -3.485,-21.033 -21.013,-35.38 -37.206,-30.455 m 541,0 C 802.383,510.075 792,526.33 792,543.5 c 0,14.588 8.399,30.03 19.455,35.768 6.026,3.127 16.485,3.021 22.862,-0.232 17.855,-9.108 24.75,-35.239 14.689,-55.675 -6.637,-13.481 -21.021,-21.074 -33.012,-17.427 m 227.64,17.853 c -5.162,8.178 -14.636,29.534 -15.823,35.672 -0.276,1.423 1.881,1.63 18.985,1.823 l 19.295,0.218 -0.602,-2.5 c -2.227,-9.241 -16.462,-39 -18.655,-39 -0.445,0 -1.885,1.704 -3.2,3.787"
       stroke="none"
       fill="#151413"
       fill-rule="evenodd"
       id="path3090" /></g><g
     id="g3106"
     transform="matrix(0.01273332,0,0,0.01253248,4.3795525,5.9797192)"
     style="fill:#ffffff"
     inkscape:transform-center-x="-0.14470275"
     inkscape:transform-center-y="0.31808751"><path
       d="m 952,64.659 c -1.375,0.209 -3.925,0.61 -5.667,0.891 -1.742,0.28 -6.496,2.683 -10.565,5.339 -10.435,6.812 -17.391,9.198 -27.471,9.425 -8.123,0.182 -8.287,0.235 -8.286,2.686 10e-4,9.654 6.473,21.166 14.081,25.047 4.594,2.344 5.908,4.511 5.908,9.745 v 3.923 l -5.75,0.655 c -3.163,0.36 -8.9,1.074 -12.75,1.587 -3.85,0.513 -7.918,0.707 -9.041,0.432 -1.123,-0.276 -3.236,-2.479 -4.696,-4.896 -5.067,-8.389 -14.062,-13.162 -30.263,-16.06 -11.588,-2.072 -11.887,-2.02 -13.448,2.317 -0.743,2.063 -4.433,6.934 -8.201,10.826 -3.768,3.891 -6.851,7.59 -6.851,8.22 0,0.629 1.394,2.17 3.098,3.424 1.703,1.254 4.291,4.305 5.75,6.78 2.33,3.954 2.644,5.532 2.585,13 -0.059,7.454 -0.468,9.335 -3.319,15.287 -1.864,3.891 -5.762,9.471 -9.137,13.079 -5.61,5.997 -5.917,6.594 -6.548,12.746 -1.718,16.775 7.373,33.932 21.228,40.06 5.815,2.573 17.717,3.515 22.928,1.815 8.888,-2.898 17.546,-11.84 19.008,-19.631 0.441,-2.351 1.176,-3.356 2.453,-3.356 2.996,0 6.954,1.857 6.954,3.263 0,3.632 -17.736,17.146 -31.699,24.154 -9.82,4.928 -14.89,5.915 -20.952,4.076 -7.323,-2.222 -10.855,-1.937 -13.218,1.068 -4.568,5.807 -5.39,21.382 -1.53,28.992 1.47,2.897 3.451,4.7 7.451,6.781 5.071,2.637 6.074,2.804 14.479,2.401 8.023,-0.385 10.021,-0.897 17.902,-4.591 9.711,-4.55 19.057,-10.146 27.567,-16.505 19.93,-14.892 36.219,-29.716 44.052,-40.091 4.317,-5.718 6.271,-6.755 7.364,-3.907 0.92,2.398 -1.206,5.12 -14.211,18.19 -24.256,24.376 -57.118,46.96 -74.227,51.012 -4.974,1.178 -15.825,0.095 -20.53,-2.049 -2.523,-1.149 -2.915,-0.997 -5.546,2.154 -3.276,3.924 -4.458,9.806 -3.468,17.262 1.66,12.52 8.931,19.178 22.251,20.377 13.41,1.208 27.139,-3.882 49.815,-18.467 16.526,-10.63 45.521,-35.771 51.945,-45.04 2.942,-4.246 3.96,-4.464 4.856,-1.038 0.898,3.433 -10.116,15.977 -26.563,30.251 -16.241,14.096 -41.365,31.261 -54.804,37.444 -16.916,7.782 -31.86,6.748 -42.576,-2.945 -2.131,-1.927 -2.156,-1.923 -4.731,0.854 -8.383,9.041 -7.153,32.196 2.226,41.896 5.717,5.913 11.138,7.942 21.147,7.917 11.192,-0.028 18.995,-2.211 33.038,-9.241 l 11.538,-5.776 3.894,2.029 c 6.522,3.398 13.238,10.488 20.812,21.972 9.104,13.801 11.598,15.293 27.479,16.431 20.553,1.473 35.892,-2.037 50.327,-11.515 12.2,-8.012 19.821,-16.953 24.797,-29.094 1.495,-3.648 3.226,-6.802 3.846,-7.009 0.62,-0.206 3.354,2.914 6.075,6.934 8.919,13.179 19.161,21.416 32.194,25.892 9.536,3.275 25.546,3.273 32.279,-0.004 9.933,-4.834 14.898,-14.785 15.009,-30.078 0.062,-8.551 -0.335,-10.699 -3.97,-21.5 -2.221,-6.6 -4.576,-14.025 -5.233,-16.5 -1.612,-6.072 -2.698,-24.492 -2.085,-35.348 0.275,-4.867 0.232,-9.013 -0.096,-9.214 -0.328,-0.201 -3.658,3.441 -7.4,8.094 -6.985,8.684 -10.493,11.878 -16.375,14.908 -2.847,1.466 -4.063,1.562 -7.821,0.616 -2.447,-0.616 -6.331,-2.284 -8.629,-3.707 -4.233,-2.619 -10.679,-8.251 -10.679,-9.33 0,-0.323 1.39,-1.409 3.089,-2.412 2.985,-1.764 3.279,-1.764 8.75,-0.015 17.495,5.595 34.508,-3.492 34.486,-18.421 -0.014,-9.7 -6.028,-17.99 -16.274,-22.433 -19.971,-8.662 -33.014,-16.323 -43.226,-25.394 -8.114,-7.206 -10.196,-7.765 -21.648,-5.814 -5.293,0.901 -10.423,2.067 -11.4,2.589 -1.996,1.069 -1.756,1.895 3.839,13.219 l 2.884,5.837 -2.361,1.913 c -1.298,1.051 -2.718,1.912 -3.156,1.912 -0.437,0 -4.069,-4.612 -8.072,-10.25 -4.002,-5.637 -8.77,-12.096 -10.594,-14.353 -1.824,-2.257 -3.317,-4.46 -3.317,-4.896 0,-0.436 11.874,-0.559 26.386,-0.272 l 26.386,0.521 6.364,6.485 c 3.5,3.567 8.839,7.786 11.864,9.375 5.077,2.668 6.307,2.886 16,2.84 9.169,-0.044 11.227,-0.385 16.237,-2.689 7.751,-3.566 14.645,-10.71 19.115,-19.809 4.673,-9.513 5.987,-16.846 5.366,-29.952 -0.872,-18.429 -6.942,-30.997 -22.718,-47.041 -21.436,-21.799 -32.336,-24.15 -45.503,-9.812 l -3.997,4.353 -13.75,-0.304 -13.75,-0.304 v -3.407 c 0,-3.232 0.262,-3.485 5.086,-4.918 13.848,-4.112 17.951,-11.687 10.15,-18.735 C 1019.581,81.82 998.415,73.085 978.5,68.132 968.055,65.534 956.339,63.999 952,64.659 M 580.448,68.6 c -2.107,1.43 -6.695,5.03 -10.196,8 -5.123,4.345 -7.087,5.411 -10.059,5.459 -2.031,0.032 -9.993,0.425 -17.693,0.874 l -14,0.815 -4.5,-3.189 c -13.933,-9.873 -18.561,-10.738 -27.015,-5.049 -7.575,5.098 -20.29,15.894 -24.939,21.175 -6.726,7.641 -6.981,12.654 -1.307,25.655 l 2.688,6.16 0.814,42.5 c 1.096,57.291 1.401,62.172 4.142,66.244 5.492,8.159 21.306,9.255 31.578,2.189 4.6,-3.164 13.874,-6.433 18.249,-6.433 1.493,0 1.79,0.873 1.79,5.268 v 5.269 l -16.56,3.355 c -17.945,3.636 -23.146,3.672 -26.853,0.19 -2.863,-2.69 -4.326,-2.623 -8.771,0.397 -9.135,6.207 -12.259,23.028 -6.468,34.822 3.357,6.835 7.994,10.344 16.188,12.248 6.379,1.483 9.819,0.806 14.674,-2.891 3.231,-2.46 14.095,-5.831 23.183,-7.194 L 530,283.773 v 4.566 c 0,8.706 -0.519,9.126 -18.252,14.772 -10.107,3.218 -16.785,4.846 -18.31,4.463 -1.321,-0.332 -3.931,-1.946 -5.802,-3.588 -1.87,-1.643 -4.059,-2.986 -4.865,-2.986 -2.09,0 -8.251,6.257 -11.325,11.503 -7.82,13.343 -7.089,30.2 1.886,43.497 4.256,6.305 16.128,17.904 22.668,22.148 12.004,7.788 24.836,10.017 33.174,5.763 5.093,-2.598 7.325,-4.814 12.504,-12.411 5.984,-8.779 11.324,-14.503 21.469,-23.015 7.107,-5.963 9.325,-7.339 10.396,-6.449 1.694,1.405 13.337,20.846 16.188,27.03 1.158,2.511 2.821,7.025 3.695,10.031 3.458,11.895 11.591,16.903 27.452,16.903 24.225,0 41.751,-10.847 51.958,-32.156 l 4.729,-9.873 4.968,10.19 c 7.047,14.459 8.356,15.839 15.018,15.839 14.604,0 29.824,-11.008 38.022,-27.5 5.307,-10.677 6.402,-16.15 6.415,-32.088 0.007,-7.748 0.308,-26.198 0.669,-41 l 0.658,-26.912 h 5.315 c 7.794,0 9.879,-2.389 9.844,-11.28 -0.037,-9.294 -4.012,-16.417 -16.682,-29.892 C 736.406,205.6 732,200.512 732,200.02 c 0,-0.492 1.526,-0.647 3.392,-0.344 4.964,0.806 10.235,-1.321 13.329,-5.377 3.521,-4.616 4.358,-14.184 1.823,-20.824 -2.063,-5.402 -9.008,-11.793 -14.845,-13.661 -3.555,-1.138 -4.157,-1.716 -3.927,-3.767 0.149,-1.333 0.374,-2.523 0.5,-2.645 0.125,-0.121 2.566,0.243 5.423,0.81 13.77,2.733 21.778,-5.267 21.568,-21.55 -0.102,-7.996 -4.315,-16.173 -13.001,-25.238 -3.73,-3.891 -11.248,-13.709 -16.707,-21.817 C 719.453,70.604 715.324,66 711.97,66 c -3.305,0 -7.35,2.252 -12.005,6.684 l -4.535,4.317 -26.773,0.993 -26.774,0.993 -5.461,-3.494 C 633.419,73.572 630.172,72 629.208,72 c -0.964,0 -3.43,1.383 -5.48,3.073 l -3.727,3.072 -6.196,-3.763 C 599.169,65.491 587.906,63.539 580.448,68.6 M 234.92,69.786 c -1.926,0.982 -5.112,3.25 -7.079,5.04 C 217.86,83.909 207.366,88 194.051,88 c -8.846,0 -9.025,0.048 -9.658,2.571 -0.891,3.55 0.231,10.794 2.442,15.77 2.566,5.774 6.532,10.193 12.674,14.122 4.782,3.059 5.297,3.755 5.938,8.035 0.387,2.577 0.495,4.893 0.242,5.147 -0.881,0.881 -33.231,4.318 -40.813,4.337 -8.741,0.021 -15.105,-1.869 -19.064,-5.662 -2.528,-2.422 -2.944,-2.512 -6.014,-1.301 -11.941,4.71 -19.9,16.369 -21.863,32.026 -1.768,14.1 0.546,23.054 7.875,30.48 5.563,5.637 12.348,8.454 20.393,8.465 7.382,0.011 9.607,-0.74 17.942,-6.054 5.951,-3.795 8.014,-4.168 36.105,-6.522 l 7.75,-0.649 v 7.429 7.429 l -10.25,1.195 c -59.23,6.906 -66.793,7.247 -74.405,3.36 -3.865,-1.974 -7.696,-5.731 -8.596,-8.43 -0.554,-1.664 -8.721,3.361 -13.67,8.409 -10.351,10.56 -13.547,30.164 -7.009,42.981 2.881,5.646 9.555,11.772 15.93,14.62 7.879,3.521 15.504,2.842 28.029,-2.496 21.661,-9.231 49.808,-13.992 96.971,-16.402 20.342,-1.039 26.658,-0.975 47,0.479 34.955,2.497 44.681,4.098 37.75,6.213 -1.238,0.377 -5.475,2.867 -9.416,5.533 l -7.166,4.847 -8.334,-0.973 c -13.407,-1.566 -63.123,-1.197 -80.834,0.599 -30.625,3.105 -26.682,3.334 -34.73,-2.017 -9.45,-6.284 -13.11,-6.74 -21.727,-2.708 -8.685,4.064 -16.261,10.008 -26.576,20.849 -9.027,9.486 -13.966,17.555 -15.939,26.039 -2.38,10.236 0.728,17.059 8.755,19.221 3.738,1.006 4.199,1.543 6.722,7.819 3.548,8.825 8.418,23.866 12.501,38.607 3.77,13.612 6.978,18.712 13.994,22.252 15.735,7.937 39.65,3.974 51.925,-8.606 l 4.575,-4.689 20,-1.195 c 14.77,-0.882 23.888,-0.914 34.868,-0.122 16.187,1.167 18.186,1.802 28.649,9.104 10.738,7.495 33.172,10.408 45.275,5.88 14.934,-5.587 20.981,-18.169 15.62,-32.497 l -2.088,-5.58 3.464,-8.708 c 1.905,-4.789 4.214,-11.316 5.13,-14.504 1.02,-3.553 2.327,-6.01 3.374,-6.345 10.404,-3.335 16.11,-7.234 19.088,-13.042 1.952,-3.807 1.343,-11.943 -1.279,-17.099 -2.914,-5.728 -16.213,-19.085 -27.101,-27.218 -8.392,-6.27 -24.016,-14.943 -27.159,-15.078 -1.012,-0.043 -1.307,-0.296 -0.654,-0.562 1.302,-0.531 5.769,0.237 23.765,4.085 26.685,5.706 42.142,2.039 48.945,-11.612 2.249,-4.514 2.603,-6.503 2.603,-14.624 0,-15.616 -4.634,-26.228 -14.359,-32.883 -5.353,-3.663 -6.641,-4.032 -6.641,-1.902 0,2.05 -4.75,7.396 -8.12,9.139 -6.892,3.564 -12.072,3.639 -30.751,0.445 -11.114,-1.901 -29.431,-3.99 -35.129,-4.008 -3.025,-0.009 -7.863,-0.3 -10.75,-0.647 L 295,200.721 v -6.989 -6.99 l 9.25,0.706 c 21.317,1.627 29.208,3.139 36.254,6.944 17.124,9.249 31.755,8.407 40.805,-2.347 8.248,-9.802 5.206,-27.87 -8.056,-47.851 -5.601,-8.439 -14.779,-17.786 -19.898,-20.264 -5.917,-2.864 -9.587,-1.821 -18.21,5.175 l -6.356,5.156 L 314.895,132.99 301,131.72 v -3.778 c 0,-5.058 0.838,-6.942 3.087,-6.942 3.674,0 9.544,-3.106 11.215,-5.934 2.685,-4.546 2.175,-10.003 -1.446,-15.47 C 301.896,81.54 250.176,62.008 234.92,69.786 M 574,129 v 7 h 5.5 5.5 v -7 -7 h -5.5 -5.5 v 7 m -54,3.55 v 7.55 l 5.75,-0.3 5.75,-0.3 0.294,-7.25 0.294,-7.25 H 526.044 520 v 7.55 m 152.899,0.885 c -0.239,0.239 -4.672,0.528 -9.851,0.641 -5.178,0.114 -10.219,0.417 -11.2,0.674 -0.982,0.257 -2.931,2.422 -4.332,4.812 -4.308,7.352 -9.199,9.205 -15.584,5.903 -3.229,-1.67 -3.35,-1.559 -4.227,3.862 -0.415,2.569 -0.236,2.772 1.962,2.221 4.255,-1.069 21.548,-2.496 30.558,-2.522 l 8.725,-0.026 2.109,-4.629 c 2.783,-6.11 3.95,-13.047 1.84,-10.936 M 990,159.7 c -16.278,0.436 -52.282,2.53 -66.5,3.869 -26.815,2.524 -29.736,3.422 -25.565,7.861 4.583,4.879 8.313,5.87 17.399,4.622 23.886,-3.282 34.994,-4.241 53.063,-4.583 l 19.897,-0.376 2.944,-2.797 c 3.136,-2.978 7.219,-8.283 6.621,-8.604 -0.197,-0.105 -3.734,-0.102 -7.859,0.008 m 33,1.321 c 1.375,1.19 5.085,4.597 8.244,7.571 3.16,2.975 6.161,5.408 6.669,5.408 1.382,0 5.216,-6.637 6.101,-10.561 l 0.775,-3.439 -5.144,-0.007 c -2.83,-0.004 -8.295,-0.261 -12.145,-0.571 l -7,-0.564 2.5,2.163 M 578.75,175.804 574,176.11 v 3.82 c 0,2.101 -0.281,5.226 -0.625,6.945 L 572.75,190 h 6.125 6.125 v -6.941 c 0,-3.818 -0.337,-7.08 -0.75,-7.251 -0.413,-0.17 -2.888,-0.172 -5.5,-0.004 m -55.25,3.072 -3,0.639 -0.289,9.361 -0.289,9.361 3.789,-0.672 c 7.662,-1.358 7.289,-0.814 7.289,-10.632 0,-9.903 0.193,-9.696 -7.5,-8.057 m 122,12.67 c -4.4,0.737 -11.059,2.133 -14.797,3.102 l -6.798,1.762 0.298,4.045 0.297,4.045 9.847,-0.269 c 5.416,-0.148 15.974,-1.156 23.464,-2.24 l 13.617,-1.971 3.744,-4.26 c 2.058,-2.343 3.762,-4.598 3.785,-5.01 0.071,-1.238 -24.859,-0.645 -33.457,0.796 M 573,233.034 v 4.035 l 5.25,-0.67 c 2.888,-0.368 5.423,-0.82 5.635,-1.002 0.211,-0.183 -0.181,-1.697 -0.872,-3.365 C 581.885,229.309 581.311,229 577.379,229 H 573 v 4.034 m 105.667,18.633 C 678.3,252.033 678,263.519 678,277.191 v 24.859 l 2.75,1.063 c 1.678,0.648 3.724,0.727 5.25,0.201 l 2.5,-0.861 0.292,-22.476 c 0.16,-12.363 0.027,-23.939 -0.296,-25.727 -0.554,-3.07 -0.824,-3.25 -4.875,-3.25 -2.358,0 -4.588,0.3 -4.954,0.667 m -75.157,5.301 c -0.343,1.082 -2.571,4.612 -4.951,7.844 -4.804,6.526 -7.752,8.12 -18.809,10.165 -6.486,1.201 -6.75,1.362 -6.75,4.136 0,2.898 1.679,3.808 3.559,1.928 1.617,-1.617 13.337,-4.208 15.708,-3.473 6.17,1.914 16.93,7.804 21.378,11.703 1.179,1.033 2.304,1.508 2.5,1.054 0.195,-0.454 0.221,-7.614 0.057,-15.911 l -0.299,-15.086 -5.221,-2.164 c -6.363,-2.637 -6.397,-2.638 -7.172,-0.196 M 226,306.027 c -4.675,0.482 -11.2,1.248 -14.5,1.703 l -6,0.828 0.312,3.471 c 0.172,1.909 0.622,7.071 1,11.471 l 0.688,8 10.75,-0.021 c 5.912,-0.011 23.281,-0.124 38.597,-0.25 l 27.846,-0.229 1.654,-9.955 c 0.909,-5.475 1.653,-10.588 1.653,-11.362 0,-0.903 -2.061,-1.85 -5.75,-2.645 -7.092,-1.526 -44.683,-2.202 -56.25,-1.011 m 726.81,2.223 c -2.082,1.953 -24.039,22.044 -26.228,24 -1.896,1.693 -1.79,1.75 3.269,1.75 6.549,0 11.89,-2.622 16.056,-7.883 3.128,-3.949 6.586,-10.863 8.135,-16.265 0.911,-3.174 0.715,-3.428 -1.232,-1.602 m -345.242,5.519 c -4.363,3.152 -8.092,6.23 -8.287,6.841 -0.434,1.36 6.629,3.413 12.689,3.688 l 4.47,0.202 0.369,-8.25 c 0.203,-4.538 -0.009,-8.241 -0.47,-8.231 -0.461,0.011 -4.409,2.598 -8.771,5.75 M 271.5,475.067 c -15.153,2.325 -27.599,8.857 -39.211,20.577 -6.73,6.793 -9.015,9.961 -12.673,17.571 -2.454,5.107 -5.019,11.985 -5.699,15.285 -1.707,8.281 -1.476,23.63 0.481,31.876 4.976,20.97 23.955,41.668 44.577,48.616 13.111,4.416 27.733,4.899 41.525,1.37 17.296,-4.425 35.415,-19.216 43.319,-35.362 5.658,-11.558 7.181,-18.238 7.181,-31.5 0,-13.254 -1.521,-19.934 -7.174,-31.5 -5.803,-11.874 -17.98,-24.019 -29.964,-29.886 -4.599,-2.252 -10.86,-4.726 -13.914,-5.498 -7.594,-1.92 -21.201,-2.66 -28.448,-1.549 m 545,-0.452 c -22.091,2.921 -38.804,12.742 -51.167,30.066 -12.632,17.703 -15.586,42.891 -7.478,63.771 7.769,20.006 26.32,36.617 47.145,42.214 8.773,2.358 27.085,2.313 36,-0.088 23.359,-6.292 44.067,-27.235 49.639,-50.202 2.226,-9.18 2.183,-25.798 -0.089,-34.376 -6.136,-23.156 -26.408,-43.338 -49.55,-49.33 -5.96,-1.543 -19.672,-2.693 -24.5,-2.055 m -416.916,4.921 c -20.142,2.435 -33.297,8.686 -40.785,19.379 -7.425,10.605 -7.342,21.811 0.24,32.4 4.88,6.815 12.059,12.27 27.861,21.17 23.409,13.185 26.564,19.023 13.05,24.151 -3.464,1.315 -8.935,1.786 -24.7,2.129 L 355,579.205 V 594.603 610 h 17.776 c 28.212,0 42.388,-2.476 57.903,-10.114 14.341,-7.06 21.267,-16.62 21.289,-29.386 0.015,-8.686 -2.776,-15.226 -9.666,-22.646 -6.291,-6.774 -13.486,-11.36 -27.308,-17.401 -16.872,-7.376 -20.661,-12.19 -14.004,-17.791 4.377,-3.683 12.458,-5.047 30.256,-5.108 L 446.992,507.5 446.996,492.75 447,478 l -18.25,0.108 c -10.038,0.06 -23.162,0.703 -29.166,1.428 m -304.119,3.131 c 3.142,16.749 23.707,52.469 40.868,70.985 l 5.701,6.152 -4.767,3.472 c -7.684,5.597 -15.155,9.404 -24.767,12.622 l -9,3.013 -0.275,16.176 -0.276,16.177 5.776,-0.66 c 12.196,-1.395 26.563,-6.238 38.796,-13.079 16.146,-9.029 37.237,-28.177 48.768,-44.275 C 210.931,532.808 220,507.036 220,485.869 V 479 H 200.5 181 v 4.39 c 0,5.765 -2.529,18.929 -5.038,26.221 -2.73,7.934 -8.081,19.389 -9.058,19.389 -1.145,0 -14.441,-15.492 -18.881,-22 -4.633,-6.792 -10.371,-18.085 -12.067,-23.75 L 134.683,479 H 114.73 94.777 l 0.688,3.667 M 455,543.478 V 608 H 474.5 494 V 576.5 545 h 20.5 20.5 v 31.5 31.5 h 19.5 19.5 v -64.522 -64.521 l -19.25,0.271 -19.25,0.272 -0.275,16.25 L 534.95,512 H 514.5 494.05 L 493.775,495.75 493.5,479.5 474.25,479.228 455,478.957 v 64.521 M 582,543.5 V 608 h 19 19 V 543.5 479 h -19 -19 v 64.5 m 45.75,-63.933 c -0.413,0.421 -0.75,29.491 -0.75,64.6 V 608 h 19.5 19.5 v -47.62 -47.62 l 11.733,0.733 c 6.453,0.403 12.783,1.133 14.068,1.621 4.714,1.793 9.218,6.225 11.924,11.736 2.638,5.372 2.77,6.315 2.674,19.15 -0.134,17.912 -3.162,36.029 -9.99,59.771 l -0.653,2.271 20.277,-0.271 20.278,-0.271 1.883,-5.5 c 7.524,-21.965 10.498,-62.538 5.887,-80.3 -5.47,-21.072 -19.048,-35.401 -38.174,-40.287 -5.122,-1.308 -13.529,-1.734 -41.907,-2.125 -19.525,-0.268 -35.837,-0.143 -36.25,0.279 M 880,480.318 c 0,5.549 10.011,28.299 19.002,43.185 6.512,10.781 14.994,22.233 22.331,30.149 l 5.701,6.152 -4.767,3.472 c -7.684,5.597 -15.155,9.404 -24.767,12.622 l -9,3.013 -0.275,16.044 c -0.313,18.294 -1.316,16.754 9.775,15.005 22.386,-3.531 45.451,-16.517 66.439,-37.404 21.565,-21.462 34.506,-45.096 39.091,-71.391 0.809,-4.635 1.47,-11.518 1.47,-15.296 V 479 h -19.383 -19.382 l -0.72,7.75 c -0.396,4.262 -1.751,11.824 -3.01,16.804 -2.311,9.135 -9.098,25.446 -10.589,25.446 -1.231,0 -14.118,-14.933 -18.634,-21.593 -5.544,-8.177 -9.938,-16.641 -11.948,-23.017 L 919.635,479 H 899.817 C 884.081,479 880,479.272 880,480.318 m 144.548,5.62 c -22.163,28.803 -38.982,74.647 -41.946,114.335 l -0.58,7.773 17.739,-0.273 17.739,-0.273 0.645,-5.281 c 0.354,-2.905 0.938,-6.85 1.298,-8.767 l 0.654,-3.484 26.692,0.266 26.693,0.266 0.785,5.5 c 0.432,3.025 1.019,6.962 1.305,8.75 l 0.519,3.25 h 17.605 17.605 l -0.582,-10.288 c -1.978,-34.926 -19.601,-82.399 -41.219,-111.038 l -5,-6.624 -17.692,-0.025 -17.691,-0.025 -4.569,5.938 m -749.554,19.996 c -8.25,2.51 -17.477,11.601 -21.13,20.819 -3.291,8.303 -3.237,25.122 0.109,33.698 3.339,8.562 12.578,17.801 19.959,19.96 6.75,1.975 9.362,1.988 15.789,0.079 15.084,-4.479 25.62,-25.149 22.479,-44.101 -3.485,-21.033 -21.013,-35.38 -37.206,-30.455 m 541,0 C 802.383,510.075 792,526.33 792,543.5 c 0,14.588 8.399,30.03 19.455,35.768 6.026,3.127 16.485,3.021 22.862,-0.232 17.855,-9.108 24.75,-35.239 14.689,-55.675 -6.637,-13.481 -21.021,-21.074 -33.012,-17.427 m 227.64,17.853 c -5.162,8.178 -14.636,29.534 -15.823,35.672 -0.276,1.423 1.881,1.63 18.985,1.823 l 19.295,0.218 -0.602,-2.5 c -2.227,-9.241 -16.462,-39 -18.655,-39 -0.445,0 -1.885,1.704 -3.2,3.787"
       stroke="none"
       fill="#151413"
       fill-rule="evenodd"
       id="path3104"
       style="fill:#ffffff" /></g></svg>
