<?xml version="1.0" encoding="UTF-8" standalone="no"?>
<!-- Generator: Gravit.io -->

<svg
   style="isolation:isolate"
   viewBox="0 0 765.28004 841.76002"
   width="765.28003pt"
   height="841.76001pt"
   version="1.1"
   id="svg32"
   xmlns="http://www.w3.org/2000/svg"
   xmlns:svg="http://www.w3.org/2000/svg">
  <defs
     id="defs1">
    <clipPath
       id="_clipPath_ucV04n7Id18ssOMPbCnAPBqrb82jUsp9">
      <rect
         width="2359.897"
         height="1823.6"
         id="rect1"
         x="0"
         y="0" />
    </clipPath>
  </defs>
  <g
     clip-path="url(#_clipPath_ucV04n7Id18ssOMPbCnAPBqrb82jUsp9)"
     id="g32"
     transform="translate(-797.357)">
    <g
       id="g31">
      <path
         d="m 1520.407,160.45 h -82.21 l -41.11,71.21 41.11,71.19 h 82.21 l 41.11,-71.19 z"
         fill="#003d57"
         id="path1" />
      <path
         d="m 1351.327,77.86 h -69.88 l -34.95,60.52 34.95,60.52 h 69.88 l 34.94,-60.52 z"
         fill="#003d57"
         id="path2" />
      <path
         d="m 1348.597,260.36 h -69.88 l -34.94,60.52 34.94,60.52 h 69.88 l 34.94,-60.52 z"
         fill="#ec602d"
         id="path3" />
      <path
         d="m 1348.597,439.85 h -69.88 l -34.94,60.53 34.94,60.52 h 69.88 l 34.94,-60.52 z"
         fill="#ec602d"
         id="path4" />
      <path
         d="m 1194.197,526.08 h -69.88 l -34.95,60.52 34.95,60.52 h 69.88 l 34.94,-60.52 z"
         fill="#ec602d"
         id="path5" />
      <path
         d="m 1042.167,620.17 h -69.88 l -34.94,60.52 34.94,60.52 h 69.88 l 34.94,-60.52 z"
         fill="#ec602d"
         id="path6" />
      <path
         d="m 1138.367,0 -29.87,51.73 29.87,51.76 h 59.75 L 1227.987,51.73 1198.117,0 Z"
         fill="#003d57"
         id="path7" />
      <path
         d="m 1188.387,179.6 h -59.74 l -29.89,51.74 29.89,51.75 h 59.74 l 29.88,-51.75 z"
         fill="#ec602d"
         id="path8" />
      <path
         d="m 1188.097,359.9 h -59.75 l -29.88,51.75 29.88,51.74 h 59.75 l 29.88,-51.74 z"
         fill="#401505"
         id="path9" />
      <path
         d="m 1033.797,448.68 h -59.75 l -29.88,51.75 29.88,51.74 h 59.75 l 29.88,-51.74 z"
         fill="#401505"
         id="path10" />
      <path
         d="m 886.987,538.65 h -59.75 l -29.88,51.75 29.88,51.74 h 59.75 l 29.88,-51.74 z"
         fill="#401505"
         id="path11" />
      <path
         d="m 1039.817,100.41 h -47.8 l -23.91,41.4 23.91,41.4 h 47.8 l 23.9,-41.4 z"
         fill="#ec602d"
         id="path12" />
      <path
         d="m 1034.797,269.64 h -55.21 l -27.6,47.82 27.6,47.8 h 55.21 l 27.61,-47.8 z"
         fill="#401505"
         id="path13" />
      <path
         d="m 882.277,369.92 h -47.8 l -23.9,41.39 23.9,41.4 h 47.8 l 23.9,-41.4 z"
         fill="#401505"
         id="path14" />
      <path
         d="m 890.267,198.84 h -47.8 l -23.9,41.4 23.9,41.4 h 47.8 l 23.9,-41.4 z"
         fill="#401505"
         id="path15" />
      <path
         d="m 1519.277,340.72 h -82.21 l -41.11,71.2 41.11,71.19 h 82.21 l 41.11,-71.19 z"
         fill="#ec602d"
         id="path16" />
      <path
         d="m 1521.527,519.76 h -82.2 l -41.11,71.21 41.11,71.19 h 82.2 l 41.11,-71.19 z"
         fill="#003d57"
         id="path17" />
      <path
         d="m 1364.927,609.56 h -82.21 l -41.11,71.21 41.11,71.19 h 82.21 l 41.11,-71.19 z"
         fill="#003d57"
         id="path18" />
      <path
         d="m 1208.327,699.36 h -82.21 l -41.11,71.21 41.11,71.19 h 82.21 l 41.11,-71.19 z"
         fill="#003d57"
         id="path19" />
    </g>
  </g>
</svg>
