<?xml version="1.0" encoding="UTF-8" standalone="no"?><!-- Generator: Gravit.io --><svg xmlns="http://www.w3.org/2000/svg" xmlns:xlink="http://www.w3.org/1999/xlink" style="isolation:isolate" viewBox="0 0 30 30" width="30pt" height="30pt"><defs><clipPath id="_clipPath_c4TqOIBGctLuCPsGftIoss7P03kndm3g"><rect width="30" height="30"/></clipPath></defs><g clip-path="url(#_clipPath_c4TqOIBGctLuCPsGftIoss7P03kndm3g)"><g opacity="0.6"><path d=" M 1 15 C 1 7.273 7.273 1 15 1 C 22.727 1 29 7.273 29 15 C 29 22.727 22.727 29 15 29 C 7.273 29 1 22.727 1 15 Z  M 3.223 15 C 3.223 8.5 8.5 3.223 15 3.223 C 21.5 3.223 26.777 8.5 26.777 15 C 26.777 21.5 21.5 26.777 15 26.777 C 8.5 26.777 3.223 21.5 3.223 15 Z " fill-rule="evenodd" fill="rgb(255,112,67)" fill-opacity="0.6"/></g><path d=" M 1.75 15 C 1.75 7.687 7.687 1.75 15 1.75 C 22.313 1.75 28.25 7.687 28.25 15 C 28.25 22.313 22.313 28.25 15 28.25 C 7.687 28.25 1.75 22.313 1.75 15 Z  M 3.854 15 C 3.854 8.849 8.849 3.854 15 3.854 C 21.151 3.854 26.146 8.849 26.146 15 C 26.146 21.151 21.151 26.146 15 26.146 C 8.849 26.146 3.854 21.151 3.854 15 Z " fill-rule="evenodd" fill="rgb(0,105,92)"/></g></svg>