<?xml version="1.0" encoding="UTF-8" standalone="no"?><!-- Generator: Gravit.io --><svg xmlns="http://www.w3.org/2000/svg" xmlns:xlink="http://www.w3.org/1999/xlink" style="isolation:isolate" viewBox="0 0 24 24" width="24pt" height="24pt"><defs><clipPath id="_clipPath_B6pcjdGM4Iwyk0F8JqwGOUe701Qofqrs"><rect width="24" height="24"/></clipPath></defs><g clip-path="url(#_clipPath_B6pcjdGM4Iwyk0F8JqwGOUe701Qofqrs)"><g><path d=" M -0.044 -0.044 L 24.044 -0.044 L 24.044 24.044 L -0.044 24.044 L -0.044 -0.044 Z " fill="none"/><path d=" M 12 1.963 C 6.46 1.963 1.963 6.46 1.963 12 C 1.963 17.54 6.46 22.037 12 22.037 C 17.54 22.037 22.037 17.54 22.037 12 C 22.037 6.46 17.54 1.963 12 1.963 Z  M 12 20.03 C 7.574 20.03 3.97 16.426 3.97 12 C 3.97 7.574 7.574 3.97 12 3.97 C 16.426 3.97 20.03 7.574 20.03 12 C 20.03 16.426 16.426 20.03 12 20.03 Z  M 16.607 7.564 L 9.993 14.178 L 7.393 11.588 L 5.978 13.004 L 9.993 17.018 L 18.022 8.989 L 16.607 7.564 Z " fill="rgb(140,186,128)"/></g></g></svg>