<?xml version="1.0" encoding="UTF-8" standalone="no"?><!-- Generator: Gravit.io --><svg xmlns="http://www.w3.org/2000/svg" xmlns:xlink="http://www.w3.org/1999/xlink" style="isolation:isolate" viewBox="0 0 24 24" width="24pt" height="24pt"><defs><clipPath id="_clipPath_OgwgK6jXGk3NGqTalGWBnKwJ4YZQ2iSZ"><rect width="24" height="24"/></clipPath></defs><g clip-path="url(#_clipPath_OgwgK6jXGk3NGqTalGWBnKwJ4YZQ2iSZ)"><clipPath id="_clipPath_KHuBiyIAlUmO6IbavMO0lbpFKK0GFPwu"><rect x="0" y="0" width="24" height="24" transform="matrix(1,0,0,1,0,0)" fill="rgb(255,255,255)"/></clipPath><g clip-path="url(#_clipPath_KHuBiyIAlUmO6IbavMO0lbpFKK0GFPwu)"><g><clipPath id="_clipPath_7MQMUkYowPnwM4KZEdHqRJdI1xeqf5mT"><rect x="0" y="0" width="24" height="24" transform="matrix(1,0,0,1,0,0)" fill="rgb(255,255,255)"/></clipPath><g clip-path="url(#_clipPath_7MQMUkYowPnwM4KZEdHqRJdI1xeqf5mT)"><g><g/></g></g><clipPath id="_clipPath_F8QpjFahRBp43ghknGIEZsv6Jb0wAQAs"><rect x="0" y="0" width="24" height="24" transform="matrix(1,0,0,1,0,0)" fill="rgb(255,255,255)"/></clipPath><g clip-path="url(#_clipPath_F8QpjFahRBp43ghknGIEZsv6Jb0wAQAs)"><g><g><g/></g></g></g></g></g><path d=" M 18.897 16.863 C 20.674 15.044 21.867 12.662 21.867 9.939 C 21.867 4.661 17.582 0.376 12.304 0.376 C 7.026 0.376 2.742 4.661 2.742 9.939 C 2.742 12.695 3.83 14.992 5.778 16.926 L 5.777 16.926 L 11.915 23.7 L 18.909 16.863 L 18.897 16.863 Z " fill="rgb(64,21,5)"/><path d=" M 18.593 16.825 C 20.37 15.006 21.563 12.624 21.563 9.901 C 21.563 4.623 17.278 0.338 12 0.338 C 6.722 0.338 2.438 4.623 2.438 9.901 C 2.438 12.657 3.526 14.954 5.474 16.888 L 5.473 16.888 L 11.611 23.662 L 18.605 16.825 L 18.593 16.825 Z " fill="rgb(149,195,186)"/><clipPath id="_clipPath_c8qkwA13HKlo1QJrVIIRL6L5MRCy3Wxd"><rect x="4.899" y="1.826" width="14.431" height="15.873" transform="matrix(1,0,0,1,0,0)" fill="rgb(255,255,255)"/></clipPath><g clip-path="url(#_clipPath_c8qkwA13HKlo1QJrVIIRL6L5MRCy3Wxd)"><g><g><path d=" M 18.533 4.851 L 16.983 4.851 L 16.208 6.194 L 16.983 7.537 L 18.533 7.537 L 19.309 6.194 L 18.533 4.851 L 18.533 4.851 Z " fill="rgb(255,255,255)"/><path d=" M 15.345 3.294 L 14.027 3.294 L 13.368 4.435 L 14.027 5.576 L 15.345 5.576 L 16.004 4.435 L 15.345 3.294 L 15.345 3.294 Z " fill="rgb(255,255,255)"/><path d=" M 15.293 6.735 L 13.976 6.735 L 13.317 7.877 L 13.976 9.018 L 15.293 9.018 L 15.952 7.877 L 15.293 6.735 L 15.293 6.735 Z " fill="rgb(255,255,255)"/><path d=" M 15.293 10.12 L 13.976 10.12 L 13.317 11.261 L 13.976 12.403 L 15.293 12.403 L 15.952 11.261 L 15.293 10.12 L 15.293 10.12 Z " fill="rgb(255,255,255)"/><path d=" M 12.382 11.746 L 11.064 11.746 L 10.405 12.887 L 11.064 14.029 L 12.382 14.029 L 13.041 12.887 L 12.382 11.746 L 12.382 11.746 Z " fill="rgb(255,255,255)"/><path d=" M 9.515 13.52 L 8.197 13.52 L 7.538 14.662 L 8.197 15.803 L 9.515 15.803 L 10.174 14.662 L 9.515 13.52 L 9.515 13.52 Z " fill="rgb(255,255,255)"/><path d=" M 11.329 1.826 L 10.766 2.801 L 11.329 3.777 L 12.456 3.777 L 13.019 2.801 L 12.456 1.826 L 11.329 1.826 L 11.329 1.826 Z " fill="rgb(255,255,255)"/><path d=" M 12.272 5.212 L 11.146 5.212 L 10.582 6.188 L 11.146 7.164 L 12.272 7.164 L 12.836 6.188 L 12.272 5.212 L 12.272 5.212 Z " fill="rgb(255,255,255)"/><path d=" M 12.267 8.612 L 11.14 8.612 L 10.577 9.588 L 11.14 10.564 L 12.267 10.564 L 12.83 9.588 L 12.267 8.612 L 12.267 8.612 Z " fill="rgb(255,255,255)"/><path d=" M 9.357 10.287 L 8.23 10.287 L 7.667 11.262 L 8.23 12.238 L 9.357 12.238 L 9.921 11.262 L 9.357 10.287 L 9.357 10.287 Z " fill="rgb(255,255,255)"/><path d=" M 6.589 11.983 L 5.462 11.983 L 4.899 12.959 L 5.462 13.935 L 6.589 13.935 L 7.152 12.959 L 6.589 11.983 L 6.589 11.983 Z " fill="rgb(255,255,255)"/><path d=" M 9.471 3.719 L 8.569 3.719 L 8.118 4.5 L 8.569 5.281 L 9.471 5.281 L 9.921 4.5 L 9.471 3.719 L 9.471 3.719 Z " fill="rgb(255,255,255)"/><path d=" M 9.376 6.91 L 8.335 6.91 L 7.814 7.812 L 8.335 8.713 L 9.376 8.713 L 9.897 7.812 L 9.376 6.91 L 9.376 6.91 Z " fill="rgb(255,255,255)"/><path d=" M 6.5 8.801 L 5.599 8.801 L 5.148 9.582 L 5.599 10.363 L 6.5 10.363 L 6.951 9.582 L 6.5 8.801 L 6.5 8.801 Z " fill="rgb(255,255,255)"/><path d=" M 6.651 5.575 L 5.749 5.575 L 5.299 6.356 L 5.749 7.137 L 6.651 7.137 L 7.101 6.356 L 6.651 5.575 L 6.651 5.575 Z " fill="rgb(255,255,255)"/><path d=" M 18.512 8.251 L 16.962 8.251 L 16.187 9.593 L 16.962 10.936 L 18.512 10.936 L 19.287 9.593 L 18.512 8.251 L 18.512 8.251 Z " fill="rgb(255,255,255)"/><path d=" M 18.554 11.627 L 17.004 11.627 L 16.229 12.97 L 17.004 14.312 L 18.554 14.312 L 19.33 12.97 L 18.554 11.627 L 18.554 11.627 Z " fill="rgb(255,255,255)"/><path d=" M 15.601 13.32 L 14.051 13.32 L 13.276 14.663 L 14.051 16.006 L 15.601 16.006 L 16.377 14.663 L 15.601 13.32 L 15.601 13.32 Z " fill="rgb(255,255,255)"/><path d=" M 12.648 15.014 L 11.098 15.014 L 10.323 16.357 L 11.098 17.699 L 12.648 17.699 L 13.424 16.357 L 12.648 15.014 L 12.648 15.014 Z " fill="rgb(255,255,255)"/></g></g></g><clipPath id="_clipPath_obnS5RwaHIvUsrvekT5ZrIG3UxWNd3R9"><rect x="4.784" y="1.826" width="14.431" height="15.873" transform="matrix(1,0,0,1,0,0)" fill="rgb(255,255,255)"/></clipPath><g clip-path="url(#_clipPath_obnS5RwaHIvUsrvekT5ZrIG3UxWNd3R9)"><g><g><path d=" M 18.419 4.851 L 16.869 4.851 L 16.094 6.194 L 16.869 7.537 L 18.419 7.537 L 19.194 6.194 L 18.419 4.851 L 18.419 4.851 Z " fill="rgb(0,61,87)"/><path d=" M 15.231 3.294 L 13.913 3.294 L 13.254 4.435 L 13.913 5.576 L 15.231 5.576 L 15.89 4.435 L 15.231 3.294 L 15.231 3.294 Z " fill="rgb(0,61,87)"/><path d=" M 15.179 6.735 L 13.862 6.735 L 13.203 7.877 L 13.862 9.018 L 15.179 9.018 L 15.838 7.877 L 15.179 6.735 L 15.179 6.735 Z " fill="rgb(236,96,45)"/><path d=" M 15.179 10.12 L 13.862 10.12 L 13.203 11.261 L 13.862 12.403 L 15.179 12.403 L 15.838 11.261 L 15.179 10.12 L 15.179 10.12 Z " fill="rgb(236,96,45)"/><path d=" M 12.268 11.746 L 10.95 11.746 L 10.291 12.887 L 10.95 14.029 L 12.268 14.029 L 12.927 12.887 L 12.268 11.746 L 12.268 11.746 Z " fill="rgb(236,96,45)"/><path d=" M 9.401 13.52 L 8.083 13.52 L 7.424 14.662 L 8.083 15.803 L 9.401 15.803 L 10.06 14.662 L 9.401 13.52 L 9.401 13.52 Z " fill="rgb(236,96,45)"/><path d=" M 11.215 1.826 L 10.652 2.801 L 11.215 3.777 L 12.342 3.777 L 12.905 2.801 L 12.342 1.826 L 11.215 1.826 L 11.215 1.826 Z " fill="rgb(0,61,87)"/><path d=" M 12.158 5.212 L 11.032 5.212 L 10.468 6.188 L 11.032 7.164 L 12.158 7.164 L 12.722 6.188 L 12.158 5.212 L 12.158 5.212 Z " fill="rgb(236,96,45)"/><path d=" M 12.153 8.612 L 11.026 8.612 L 10.463 9.588 L 11.026 10.564 L 12.153 10.564 L 12.716 9.588 L 12.153 8.612 L 12.153 8.612 Z " fill="rgb(64,21,5)"/><path d=" M 9.243 10.287 L 8.116 10.287 L 7.553 11.262 L 8.116 12.238 L 9.243 12.238 L 9.807 11.262 L 9.243 10.287 L 9.243 10.287 Z " fill="rgb(64,21,5)"/><path d=" M 6.475 11.983 L 5.348 11.983 L 4.784 12.959 L 5.348 13.935 L 6.475 13.935 L 7.038 12.959 L 6.475 11.983 L 6.475 11.983 Z " fill="rgb(64,21,5)"/><path d=" M 9.357 3.719 L 8.455 3.719 L 8.004 4.5 L 8.455 5.281 L 9.357 5.281 L 9.807 4.5 L 9.357 3.719 L 9.357 3.719 Z " fill="rgb(236,96,45)"/><path d=" M 9.262 6.91 L 8.221 6.91 L 7.7 7.812 L 8.221 8.713 L 9.262 8.713 L 9.783 7.812 L 9.262 6.91 L 9.262 6.91 Z " fill="rgb(64,21,5)"/><path d=" M 6.386 8.801 L 5.484 8.801 L 5.034 9.582 L 5.484 10.363 L 6.386 10.363 L 6.837 9.582 L 6.386 8.801 L 6.386 8.801 Z " fill="rgb(64,21,5)"/><path d=" M 6.536 5.575 L 5.635 5.575 L 5.184 6.356 L 5.635 7.137 L 6.536 7.137 L 6.987 6.356 L 6.536 5.575 L 6.536 5.575 Z " fill="rgb(64,21,5)"/><path d=" M 18.398 8.251 L 16.848 8.251 L 16.072 9.593 L 16.848 10.936 L 18.398 10.936 L 19.173 9.593 L 18.398 8.251 L 18.398 8.251 Z " fill="rgb(236,96,45)"/><path d=" M 18.44 11.627 L 16.89 11.627 L 16.115 12.97 L 16.89 14.312 L 18.44 14.312 L 19.216 12.97 L 18.44 11.627 L 18.44 11.627 Z " fill="rgb(0,61,87)"/><path d=" M 15.487 13.32 L 13.937 13.32 L 13.162 14.663 L 13.937 16.006 L 15.487 16.006 L 16.262 14.663 L 15.487 13.32 L 15.487 13.32 Z " fill="rgb(0,61,87)"/><path d=" M 12.534 15.014 L 10.984 15.014 L 10.209 16.357 L 10.984 17.699 L 12.534 17.699 L 13.309 16.357 L 12.534 15.014 L 12.534 15.014 Z " fill="rgb(0,61,87)"/></g></g></g></g></svg>