<?xml version="1.0" encoding="UTF-8" standalone="no"?><!-- Generator: Gravit.io --><svg xmlns="http://www.w3.org/2000/svg" xmlns:xlink="http://www.w3.org/1999/xlink" style="isolation:isolate" viewBox="0 0 400 520" width="400pt" height="520pt"><defs><clipPath id="_clipPath_CW29lRLgnO5Qc0PvXfuzVCCQMayUWOtz"><rect width="400" height="520"/></clipPath></defs><g clip-path="url(#_clipPath_CW29lRLgnO5Qc0PvXfuzVCCQMayUWOtz)"><g><defs><filter id="3geb10ws4ne82OE1KpGv6BTGzjENmQJJ" x="-200%" y="-200%" width="400%" height="400%" filterUnits="objectBoundingBox" color-interpolation-filters="sRGB"><feGaussianBlur xmlns="http://www.w3.org/2000/svg" stdDeviation="4.293609062839028"/></filter></defs><g filter="url(#3geb10ws4ne82OE1KpGv6BTGzjENmQJJ)"><ellipse vector-effect="non-scaling-stroke" cx="198.91361582044095" cy="491.99999999999994" rx="65" ry="20.166666666666686" fill="rgb(162,162,162)" fill-opacity="0.7"/></g><defs><filter id="dGDANyVfRLj3xcS4MRCqZzIKkDrbQO4a" x="-200%" y="-200%" width="400%" height="400%" filterUnits="objectBoundingBox" color-interpolation-filters="sRGB"><feGaussianBlur xmlns="http://www.w3.org/2000/svg" stdDeviation="0"/></filter></defs><g filter="url(#dGDANyVfRLj3xcS4MRCqZzIKkDrbQO4a)"><path d=" M 18.914 185.931 C 18.914 85.382 99.774 4 199.384 4 C 299.14 4 380 85.382 380 185.931 C 380 239.891 356.562 288.544 319.355 321.863 C 317.304 323.633 246.405 390.124 198.944 492 C 181.073 419.906 111.785 350.613 79.998 322.306 C 42.498 288.839 18.914 240.186 18.914 185.931 Z  M 311.005 185.931" fill="rgb(76,167,58)"/></g></g><circle vector-effect="non-scaling-stroke" cx="199" cy="186.99999999999997" r="135" fill="rgb(255,255,255)"/><circle vector-effect="non-scaling-stroke" cx="199.50000000000003" cy="186.64164608777287" r="125.49999999999997" fill="rgb(10,82,220)"/><g><path d=" M 125.713 198.424 L 117.127 223.923 Q 112.201 236.627 110.101 243.699 Q 108.001 250.771 107.759 252.285 Q 111.402 248.903 114.785 246.561 C 118.167 244.219 124.317 240.044 129.877 237.194 C 135.436 234.343 140.769 231.963 147.05 230.168 C 153.331 228.373 156.511 227.375 161.881 226.786 C 167.252 226.197 172.29 226.265 176.453 226.786 C 180.616 227.306 184.694 228.621 189.203 229.388 C 193.711 230.154 197.952 230.796 202.733 231.209 C 207.514 231.622 211.846 232.072 216.784 231.729 Q 221.722 231.387 227.192 230.168 L 233.437 227.826 Q 229.202 226.005 226.932 224.964 C 224.662 223.923 220.837 222.447 217.825 220.541 C 214.813 218.635 212.549 216.74 210.019 214.296 C 207.489 211.852 206.054 210.282 204.294 207.791 Q 202.534 205.299 201.172 202.587 Q 206.943 201.006 210.019 199.985 C 213.095 198.964 215.135 198.265 217.825 197.123 Q 220.515 195.98 224.85 193.74 L 239.682 176.567 L 163.182 177.607 Q 157.94 179.948 155.116 181.25 C 152.292 182.552 144.188 186.454 138.723 189.837 Q 133.259 193.219 125.713 198.424 Z " fill="rgb(235,60,55)"/><path d=" M 169.167 159.393 L 154.075 205.449 Q 159.578 201.959 162.662 200.245 C 165.746 198.531 169.302 196.635 173.07 195.041 C 176.838 193.447 180.218 192.164 184.259 191.138 C 188.3 190.112 191.135 189.654 194.927 189.316 C 198.719 188.979 202.714 188.773 206.896 189.316 C 211.079 189.86 213.681 190.875 217.305 191.918 C 220.928 192.962 223.52 194.039 226.932 195.041 C 230.345 196.043 233.265 197.084 236.82 197.643 C 240.375 198.202 243.914 198.633 247.748 198.163 C 251.582 197.694 255.271 196.081 259.197 194.521 Q 263.123 192.96 270.906 188.796 L 287.299 140.659 Q 282.701 144.381 280.013 146.123 C 277.326 147.865 274.809 149.505 270.906 151.067 C 267.003 152.628 262.115 153.39 259.718 153.409 C 257.32 153.427 252.172 153.929 248.529 152.628 Q 244.886 151.327 242.284 149.245 L 234.738 144.562 L 171.509 151.587 L 169.167 159.393 Z " fill="rgb(253,213,55)"/><path d=" M 132.224 180.556 L 149.085 129.975 Q 161.726 127.519 168.474 125.76 C 175.222 124 183.478 122.184 192.846 122.444 C 202.213 122.705 212.989 125.814 219.055 127.446 C 225.122 129.078 230.409 130.565 236.759 130.818 Q 243.109 131.071 253.619 129.132 Q 262.362 126.138 267.003 124.266 Q 271.644 122.393 278.91 119.016 Q 273.14 126.34 269.637 129.975 C 266.134 133.609 263.196 136.125 259.521 139.248 C 255.845 142.371 254.339 144.014 251.09 145.992 C 247.842 147.971 245.194 149.007 241.817 150.207 C 238.441 151.407 230.955 152.82 224.957 153.58 Q 218.958 154.339 204.724 154.423 Q 191.547 154.258 184.492 155.266 C 177.436 156.273 172.487 158.166 166.305 160.694 Q 160.122 163.222 150.771 168.754 L 132.224 180.556 Z " fill="rgb(99,187,75)"/></g></g></svg>
