<?xml version="1.0" encoding="UTF-8" standalone="no"?><!-- Generator: Gravit.io --><svg xmlns="http://www.w3.org/2000/svg" xmlns:xlink="http://www.w3.org/1999/xlink" style="isolation:isolate" viewBox="0 0 400 520" width="400pt" height="520pt"><defs><clipPath id="_clipPath_8x3DHPE9W904Jz8HogxJvriFeLURuxGd"><rect width="400" height="520"/></clipPath></defs><g clip-path="url(#_clipPath_8x3DHPE9W904Jz8HogxJvriFeLURuxGd)"><g><defs><filter id="qNGjICbk5ot87SFDzpw7CGCBjKxFL3ir" x="-200%" y="-200%" width="400%" height="400%" filterUnits="objectBoundingBox" color-interpolation-filters="sRGB"><feGaussianBlur xmlns="http://www.w3.org/2000/svg" stdDeviation="4.293609062839028"/></filter></defs><g filter="url(#qNGjICbk5ot87SFDzpw7CGCBjKxFL3ir)"><ellipse vector-effect="non-scaling-stroke" cx="198.91361582044095" cy="491.99999999999994" rx="65" ry="20.166666666666686" fill="rgb(162,162,162)" fill-opacity="0.7"/></g><defs><filter id="N0THLmJ6YsYQpgpqlqudhuhviAeNS5bw" x="-200%" y="-200%" width="400%" height="400%" filterUnits="objectBoundingBox" color-interpolation-filters="sRGB"><feGaussianBlur xmlns="http://www.w3.org/2000/svg" stdDeviation="0"/></filter></defs><g filter="url(#N0THLmJ6YsYQpgpqlqudhuhviAeNS5bw)"><path d=" M 18.914 185.931 C 18.914 85.382 99.774 4 199.384 4 C 299.14 4 380 85.382 380 185.931 C 380 239.891 356.562 288.544 319.355 321.863 C 317.304 323.633 246.405 390.124 198.944 492 C 181.073 419.906 111.785 350.613 79.998 322.306 C 42.498 288.839 18.914 240.186 18.914 185.931 Z  M 311.005 185.931" fill="rgb(76,167,58)"/></g></g><circle vector-effect="non-scaling-stroke" cx="199" cy="186.99999999999997" r="135" fill="rgb(255,255,255)"/><circle vector-effect="non-scaling-stroke" cx="199.50000000000003" cy="186.64164608777287" r="125.49999999999997" fill="rgb(211,35,38)"/><path d=" M 185.545 124.102 Q 189.224 116.078 192.654 112.813 C 196.083 109.547 197.691 108.577 201.016 107.377 C 204.342 106.177 206.699 106.464 209.797 106.122 Q 212.896 105.781 235.722 105.704 L 194.744 207.312 Q 193.073 211.595 193.49 214.002 C 193.907 216.409 194.379 218.34 197.253 219.438 Q 200.128 220.536 255.793 217.765 L 246.175 243.272 Q 244.498 247.408 242.83 249.126 Q 241.163 250.844 238.649 252.053 L 173.419 261.67 Q 169.609 261.953 167.565 261.67 C 165.522 261.387 163.133 260.575 160.875 259.579 Q 158.617 258.583 154.603 254.143 L 146.24 239.09 Q 140.557 230.315 139.132 224.874 C 137.707 219.432 137.549 218.951 137.878 215.675 Q 138.207 212.399 141.223 206.476 L 185.545 124.102 Z " fill="rgb(255,255,255)"/></g></svg>
