<?xml version="1.0" encoding="UTF-8" standalone="no"?><!-- Generator: Gravit.io --><svg xmlns="http://www.w3.org/2000/svg" xmlns:xlink="http://www.w3.org/1999/xlink" style="isolation:isolate" viewBox="0 0 24 24" width="24pt" height="24pt"><defs><clipPath id="_clipPath_bwy0ugGtxzgWAu4h5LpqFbgWwTEwVCKY"><rect width="24" height="24"/></clipPath></defs><g clip-path="url(#_clipPath_bwy0ugGtxzgWAu4h5LpqFbgWwTEwVCKY)"><circle vector-effect="non-scaling-stroke" cx="11.999999999999998" cy="12" r="11.628482972136222" fill="rgb(0,31,120)"/><g><g><g><path d=" M 20.972 7.616 L 18.994 7.616 L 18.994 13.368 L 20.972 13.368 L 20.972 7.616 Z  M 16.291 10.492 C 16.291 11.599 16.264 12.125 15.629 12.125 L 15.465 12.125 L 15.465 8.877 L 15.629 8.877 C 16.264 8.868 16.291 9.403 16.291 10.492 Z  M 18.278 10.492 C 18.278 7.698 17.334 7.625 15.329 7.625 L 13.488 7.625 L 13.488 13.377 L 15.329 13.377 C 17.343 13.368 18.278 13.286 18.278 10.492 Z  M 12.898 13.368 L 12.708 11.807 L 11.283 11.807 L 11.283 7.616 L 9.306 7.616 L 9.306 13.368 L 12.898 13.368 Z  M 8.834 13.368 L 7.174 7.616 L 4.715 7.616 L 3.028 13.368 L 5.006 13.368 L 5.16 12.705 L 6.548 12.705 L 6.711 13.368 L 8.834 13.368 Z  M 6.312 11.49 L 5.396 11.49 L 5.849 9.158 L 6.312 11.49 Z " fill="rgb(255,255,255)"/></g></g></g></g></svg>