<svg xmlns="http://www.w3.org/2000/svg" width="1389.33" height="313.33" viewBox="0 0 1042 235"><path d="M604.54 18.44c7.52-5.53 17.25-7.16 26.4-6.62 6.52.52 13.57 2.09 18.28 6.99 5.22 5.64 5.19 16.31-1.61 20.7-4.83 2.95-12.26 2.49-15.61-2.49-3.02-4.24-2.23-10.31 1.14-14.12-2.64-.55-5.38-1.32-8.05-.5-5.21 1.14-9.27 6.09-9.08 11.46L616 58.49l25.25.02v10.74h-25.24l-.02 63.82c-.16 2.76.77 6.54 4.02 6.97 5.47.49 10.99.06 16.49.2v11.26h-55.75v-11.26c3.58-.06 7.17.17 10.74-.1 2.97-.21 4.92-3.36 4.73-6.16l.02-64.73h-14.23V58.49h14.48l.02-24.46c-.01-6.1 3.09-12.03 8.03-15.59zm313.68-1.34L954 14.04l-.01 58.03c4.46-6.62 10.63-12.33 18.28-14.96 11.12-3.75 24.37-2.48 33.69 5.01a24.2 24.2 0 0 1 9.01 18.8l.05 54.19c-.1 2.56 2.22 5.22 4.87 5.1 3.36.14 6.73 0 10.1.03v11.27c-16.09-.02-32.16.01-48.24-.01v-11.26c3.36-.12 6.8.36 10.14-.3 2.59-.65 3.81-3.43 3.6-5.93l-.02-49c.12-4.78-1.95-9.79-6.16-12.31-13.55-8.32-34.81 1.88-35.25 18.24l-.07 41.05c.05 2.8.06 6.64 3.17 7.86 4.05.8 8.22.25 12.33.38l.01 11.27h-50v-11.27c3.78-.13 7.62.39 11.37-.31 3.21-1.15 3.58-5.03 3.62-7.95l.01-97.96c-.01-2.25-.12-5.1-2.55-6.09-4.56-.4-9.14-.05-13.7-.17l-.03-10.65zM649.99 58.73l35.74-3.31v18.49c3.04-6.85 8.23-12.99 15.23-15.96 11.12-4.65 24.91-2.57 33.99 5.43-2.99 7.53-8.82 14.02-16.37 17.15-7.3 3.19-15.59 2.99-23.27 1.49 3.52-9.13 12.9-14.25 22.1-15.91-8.93-1.04-18.4 2.23-24.06 9.35-4.99 6.32-7.91 14.43-7.61 22.52l.05 35.97c-.13 2.68 1.28 5.92 4.29 6.17 5.88.33 11.78.01 17.67.13v11.25c-18.91.01-37.82-.01-56.74.01v-11.28c3.65-.06 7.34.25 10.99-.18 2.71-.51 4.1-3.42 3.99-5.97l.02-60.21c.25-1.98-1.02-4.22-3.1-4.51-4.29-.31-8.61-.01-12.91-.11l-.01-10.52zm97.85 6.01c11.61-9.37 27.75-11.47 42.02-8.3a36.8 36.8 0 0 1 23.69 16.98c6.14 10.03 7.7 22.02 8 33.57-23.11.04-46.23-.02-69.34.03.29 10.72 2.47 23.28 12.24 29.52 11.68 7.06 28.87 5.45 37.75-5.42 2.83-3.19 4.55-7.15 5.99-11.12l12.19.01c-.16 7.91-4.31 15.16-9.69 20.72-8.34 8.8-20.55 13.61-32.63 13.31-12.93.37-26.53-3.82-35.44-13.55-9.8-10.49-13.03-25.53-12.21-39.5.71-13.7 6.45-27.64 17.43-36.25m11.91 10.04c-4.8 5.45-6.85 12.81-6.86 19.96h45.4c.01-8.56-1.88-18.42-9.28-23.73-8.85-6.06-22.24-4.4-29.26 3.77zm80.17-9.88c6.14-5.97 14.71-8.74 23.08-9.56 11.3-1.2 23.27 1.14 32.4 8.18l3.55-8.52h9.3v33.76c-3.46 0-6.92 0-10.37-.02-1.63-6.84-5.17-13.69-11.5-17.23-6.43-3.57-14.12-4.45-21.34-3.67-4.11.52-8.41 1.86-11.26 5.01-3.41 3.67-3.61 9.92-.33 13.73 2.16 2.55 5.39 3.83 8.58 4.54l31.5 7.59c7.02 1.73 13.68 5.91 17.31 12.3 3.84 6.95 3.88 15.54 1.3 22.92-3.26 8.96-11.51 15.28-20.43 17.99-15.58 4.72-33.37 1.92-46.29-8.18a344.8 344.8 0 0 1-2.27 7.76l-9.89.01-.02-35.5h10.25c1.05 6.36 3.69 12.61 8.45 17.09 6.31 6.17 15.45 8.62 24.1 8.36 6.04-.41 12.73-1.9 16.71-6.87 3.71-4.52 3.48-12.31-1.72-15.63-5.92-3.74-13.18-4.17-19.75-6.2-10.25-3.01-21.68-3.82-30.32-10.68-11.28-8.77-11.14-27.57-1.04-37.18z" fill="#4c9e45"/><path d="M28.52 60.57c7.97-4.65 17.44-6.07 26.55-5.8 8.89.48 18.37 2.85 24.76 9.44 4.79 4.97 6.41 12.08 6.43 18.8l-.02 34.01c.04 3.94.24 8.08 2.18 11.62 1.33 2.83 3.59 5.08 5.02 7.84.86 1.37.12 3.01-1.08 3.87l-11.77 10.23c-1.38 1.34-3.65 2.49-5.38 1.04-4.02-2.88-6.9-6.98-9.6-11.04-5.17 5.1-11.14 9.97-18.48 11.33-8.07 1.51-17.01 1.52-24.24-2.83-6.04-3.55-9.73-10.19-10.76-16.99-1.14-7.78-.23-16.17 4.11-22.88 4.08-6.38 10.75-10.78 17.95-12.9 9.02-2.74 18.49-3.28 27.81-4.33-.12-5.38 1.01-11.83-3.34-15.95-6.63-5.67-19.02-2.68-21.36 6.07-.66 1.63-1.05 4.54-3.38 4.37-5.32-.28-10.6-1.09-15.9-1.6-1.64-.04-3.49-.94-3.56-2.8.97-8.85 6.38-17.02 14.06-21.5M40.9 112c-5 5.45-5.59 15.04-.59 20.66 5.3 5.07 14.19 2.16 17.67-3.65 4.82-6.69 4.03-15.26 4.02-23.05-7.32.05-15.53.73-21.1 6.04zm211.11-50.94c8.27-5.16 18.34-6.65 27.94-6.25 9.26.58 19.32 3.27 25.36 10.81 4.69 5.64 5.24 13.27 5.42 20.29l.03 35.1c.04 3.83 1.5 7.52 3.73 10.59 1.54 2.31 3.78 4.44 3.67 7.45l-13.5 11.68c-1.36 1.35-3.61 2.19-5.27.81-3.85-3.02-6.89-6.91-9.49-11.03-5.13 5.3-11.3 10.09-18.71 11.48-9.13 1.63-19.69 1.33-26.98-5.15-7.39-6.28-9.14-16.86-7.89-26.04a28.5 28.5 0 0 1 14.91-21.41c10.81-5.82 23.42-5.93 35.31-7.47-.27-5.35.73-11.81-3.58-15.87-6.61-5.75-19.15-2.67-21.39 6.14-.5 1.75-1.24 4.51-3.57 4.31-5.39-.42-10.76-1.1-16.13-1.7-1.58-.05-2.99-1.23-3.15-2.84a29.1 29.1 0 0 1 13.29-20.9m15.89 48.82c-7.34 4.4-8.84 15.51-3.86 22.19 4.42 5.07 12.84 3.69 16.8-1.27 6.17-6.69 5.65-16.37 5.66-24.84-6.34.02-13.07.5-18.6 3.92zM140.74 57.65c6.55-2.78 14.32-2.87 20.84.04 5.73 2.66 9.29 8.26 11.9 13.77 2.62-7.07 8.62-12.9 15.96-14.85 9.26-2.67 20.28-.23 26.57 7.34 4.56 5.18 5.26 12.35 5.45 18.95-.45 21.72-.08 43.47-.22 65.2.3 1.54-1.04 2.47-1.93 3.45-6.43-.19-12.87.13-19.29-.14-2.13-.23-2.64-2.59-2.54-4.35l.02-46.09c.12-5.83.7-11.87-.97-17.54-2.39-6.67-12.06-7.25-16.61-2.52-3.91 3.5-4.16 9.09-4.4 13.97l-.03 53.08a3.2 3.2 0 0 1-3.46 3.53h-16.97a3.1 3.1 0 0 1-3.29-3.49l-.02-55.04c-.09-4.07-.48-8.42-2.86-11.86-3.03-4.16-9.39-4.29-13.53-1.84-4.92 3.53-5.45 10.21-5.62 15.75.14 17.31-.44 34.61-.22 51.93.13 1.77-.1 4.52-2.49 4.48-5.97.18-11.94.06-17.9.07-1.95.23-3.47-1.62-3.12-3.48V60.9c-.43-2.24 1.95-3.81 3.98-3.42 5.62.22 11.33-.4 16.9.33l1.28 1.26c.75 4.21.17 8.56.29 12.83 2.34-5.93 6.29-11.61 12.28-14.25zm291.77-.84c10.78-2.71 23-1.1 31.93 5.81 8.84 6.67 13.77 17.3 15.88 27.95 2.7 14.24 1.76 29.68-5.16 42.64-4.49 8.49-12.06 15.59-21.32 18.49-10.82 3.38-23.38 1.93-32.57-4.92-8.95-6.63-13.97-17.28-16.09-27.98-2.59-13.82-1.77-28.63 4.06-41.55 4.37-9.7 12.78-17.83 23.27-20.44m5.9 17.78c-2.98 1.16-5.03 3.83-6.23 6.7-2.52 5.88-2.68 12.4-2.93 18.7-.01 7.64.05 15.38 1.78 22.86 1.1 4.3 2.94 9.04 7.11 11.22a10.8 10.8 0 0 0 13.67-4.25c4.15-6.81 4.13-15.11 4.45-22.82-.13-8.98-.08-18.28-3.4-26.77-2.08-5.6-9.16-7.93-14.45-5.64zm92.54-17.53c9.3-3.17 21.06-1.55 27.53 6.39 5.43 6.48 5.89 15.39 6.25 23.46l.02 61.06c.18 1.6-1.05 3.62-2.8 3.49-6.01.08-12.02.09-18.02-.01-1.73.13-3.13-1.7-2.91-3.34l-.03-55.18c-.19-4.52-.61-9.58-3.89-13.03-3.17-2.95-8.41-3.26-11.93-.77-2.96 1.82-4.66 5.06-5.61 8.3-1.94 6-1.54 12.38-1.56 18.59l-.02 41.99c.09 1.71-1.18 3.62-3.06 3.45-5.97.06-11.95.13-17.91-.04-1.77.13-2.95-1.87-2.76-3.46l.01-86.96a3.2 3.2 0 0 1 3.75-3.49c5.68.08 11.39-.29 17.06.21l1.39 1.4c.66 4.66.14 9.42.26 14.13 2.75-6.73 7.05-13.63 14.23-16.19zm-197.91.17l57.99.04c2.47-.17 3.5 2.52 3.22 4.59-.25 4.82 1.13 10.32-2.22 14.38l-30.94 44.2c9.87.19 19.94 1.32 28.96 5.6 2.49 1.13 5.68 2.72 5.65 5.9.12 4.71.07 9.42.03 14.13a3 3 0 0 1-4.52 2.71 64.9 64.9 0 0 0-58.58 0c-2.46 1.82-5.21-1.18-4.63-3.72.54-6.72-1.5-14.16 1.98-20.3l33.79-48.49c-9.94-.08-19.88.07-29.82-.07-1.72.15-2.86-1.62-2.68-3.18-.03-4.38-.13-8.77.06-13.14.02-1.14 1.12-1.79 1.71-2.65zm20.5 98.56c8.74-.92 17.92-.96 26.27 2.1 3.9 1.25 3.16 6.01 3.2 9.19-.81 11.33-4.62 22.5-10.85 32.01-2.73 3.82-5.62 7.79-9.67 10.31-1.44 1.06-4.02-.25-3.17-2.12 3.57-9.91 8.02-19.66 9.56-30.17.16-2.5.64-5.54-1.26-7.53-1.88-1.4-4.22-1.98-6.5-2.27-10.75-1.19-21.47.78-32.16 1.42-2.06-.91-1.04-3.4.44-4.32 7.03-5.09 15.61-7.59 24.14-8.62zm-263.16 5.77c1.3-1.16 3.1-.38 4.38.37 38.35 22.17 82.02 34.78 126.17 37.67 44.16 2.95 88.85-5.15 129.61-22.23 4.33-2.3 9.34 3.78 5.25 7.16-12.63 9.7-27.03 16.9-41.85 22.6-35.47 13.42-74.4 17.75-111.9 11.9-40.95-6.16-79.99-24.55-110.73-52.31-1.64-1.05-2.81-3.85-.93-5.16z"/></svg>