<?xml version="1.0" encoding="UTF-8" standalone="no"?>
<!-- Generator: Gravit.io -->

<svg
   style="isolation:isolate"
   viewBox="0 0 135.27692 40"
   width="135.27692pt"
   height="40pt"
   version="1.1"
   id="svg4997"
   xmlns="http://www.w3.org/2000/svg"
   xmlns:svg="http://www.w3.org/2000/svg">
  <defs
     id="defs4987">
    <clipPath
       id="_clipPath_2ns1Qiv3DwYjULkq3uQylFlYIP1ofCvX">
      <rect
         width="24"
         height="24"
         id="rect4984"
         x="0"
         y="0" />
    </clipPath>
  </defs>
  <g
     clip-path="url(#_clipPath_2ns1Qiv3DwYjULkq3uQylFlYIP1ofCvX)"
     id="g4995"
     transform="matrix(8.8613203,0,0,8.8613203,-38.697388,-67.319451)">
    <g
       id="g4993">
      <g
         id="g4991">
        <path
           d="m 16.915,10.429 0.458,-1.523 0.458,1.523 z M 13.56,10.93 H 13.278 V 8.82 h 0.278 c 0.423,0 0.892,0.177 0.892,1.05 0,0.774 -0.415,1.06 -0.888,1.06 z M 6.118,10.429 6.586,8.887 7.046,10.429 Z M 18.207,7.726 h -1.574 l -0.9,2.613 c 0.043,-0.218 0.049,-0.39 0.049,-0.467 0,-1.094 -0.623,-2.146 -2.089,-2.146 h -1.682 l 0.003,2.599 C 11.87,9.587 11.2,9.388 10.366,9.133 10.053,9.038 9.882,8.884 9.944,8.741 9.998,8.616 10.188,8.577 10.421,8.61 10.774,8.659 11.057,8.779 11.33,8.928 L 11.702,8.002 C 11.617,7.959 11.015,7.597 10.261,7.597 c -1.055,0 -1.727,0.515 -1.727,1.278 0,0.679 0.417,1.074 1.182,1.297 0.822,0.238 1.031,0.335 1.007,0.574 C 10.7,10.949 10.19,11.2 8.943,10.429 L 8.573,11.199 7.426,7.726 H 5.853 L 4.367,12.044 H 5.608 L 5.8,11.433 h 1.564 l 0.185,0.611 H 8.852 L 8.704,11.622 c 0.44,0.255 0.987,0.489 1.639,0.489 0.999,0 1.54,-0.549 1.67,-1.076 v 1.009 h 1.678 c 1.001,0 1.525,-0.48 1.797,-0.993 l -0.341,0.993 h 1.239 l 0.2,-0.611 h 1.562 l 0.18,0.611 h 1.305 z"
           fill="#7dc242"
           id="path4989" />
      </g>
    </g>
  </g>
</svg>
