<?xml version="1.0" encoding="UTF-8" standalone="no"?>
<!-- Created with Inkscape (http://www.inkscape.org/) -->

<svg
   width="400mm"
   height="250mm"
   viewBox="0 0 400 250"
   version="1.1"
   id="svg1"
   xml:space="preserve"
   sodipodi:docname="bmbargains_report.svg"
   inkscape:version="1.4 (86a8ad7, 2024-10-11)"
   xmlns:inkscape="http://www.inkscape.org/namespaces/inkscape"
   xmlns:sodipodi="http://sodipodi.sourceforge.net/DTD/sodipodi-0.dtd"
   xmlns="http://www.w3.org/2000/svg"
   xmlns:svg="http://www.w3.org/2000/svg"><sodipodi:namedview
     id="namedview1"
     pagecolor="#ffffff"
     bordercolor="#000000"
     borderopacity="0.25"
     inkscape:showpageshadow="2"
     inkscape:pageopacity="0.0"
     inkscape:pagecheckerboard="0"
     inkscape:deskcolor="#d1d1d1"
     inkscape:document-units="mm"
     inkscape:zoom="0.81809167"
     inkscape:cx="756.02775"
     inkscape:cy="472.44094"
     inkscape:window-width="2400"
     inkscape:window-height="1261"
     inkscape:window-x="2"
     inkscape:window-y="-9"
     inkscape:window-maximized="1"
     inkscape:current-layer="layer1" /><defs
     id="defs1" /><g
     id="layer1"
     transform="translate(-4.2706399,-82.168305)"><g
       id="g1"
       transform="matrix(1.0914878,0,0,1.1636707,3.5678632,82.212763)"
       style="stroke-width:0.999937;stroke-dasharray:none"><path
         fill="#423a92"
         d="M 0,0 H 367.76 V 214.76 H 0 Z"
         id="path1"
         style="stroke-width:0.999937;stroke-dasharray:none" /><path
         d="m 266.074,0 -45.352,57.406 a 46.315,46.315 0 0 1 2.281,-0.047 c 3.211,0 5.793,0.334 7.932,0.988 L 290.947,0 Z m -34.435,0 -28.85,62.064 a 49.827,49.827 0 0 1 8.033,-3.031 L 248.854,0 Z m -106.026,70.695 4.459,2.602 c 1.898,-0.316 3.838,-0.5 5.762,-0.5 2.367,0 4.627,0.154 6.82,0.428 L 127.013,61.264 c -0.398,2.715 -0.847,5.834 -1.4,9.431 z M 202.658,0 191.121,64.166 a 14.19,14.19 0 0 1 3.328,2.803 c 0.381,-0.283 0.773,-0.545 1.186,-0.826 L 217.523,0 Z m 116.791,0 -81.5,63.006 c 0.305,0.383 0.611,0.787 0.896,1.201 6.346,-6.08 16.945,-13.096 31.953,-13.096 1.152,0 2.277,0.029 3.381,0.117 L 360.891,0 Z M 118.77,0 162.95,72.182 a 203.21,203.21 0 0 1 4.367,-2.648 L 136.899,0 Z M 4.641,0 78.26,43.016 c 3.305,-3.821 8.711,-6.377 14.027,-8.279 L 46.846,0 Z m 70.295,0 31.588,30.785 c 3.023,-0.609 5.76,-1.014 7.619,-1.014 13.975,0 15.068,10.963 15.068,14.326 0,1.029 -0.238,3.165 -0.879,7.91 l 24.334,23.703 c 1.057,0.408 2.086,0.844 3.076,1.334 0.195,-0.158 0.377,-0.328 0.588,-0.486 0.045,-0.027 0.994,-0.715 2.578,-1.77 L 99.816,0 Z m 105.828,63.266 c 1.604,-0.475 3.094,-0.764 4.336,-0.764 0.088,0 0.129,0.012 0.209,0.012 L 190.436,0 H 176.883 Z M 150.047,0 172.67,66.645 a 61.507,61.507 0 0 1 3.717,-1.744 L 164.191,0 Z m 106.057,133.455 c 0,-0.803 0.004,-1.912 0.045,-3.234 l -5.465,-1.693 c -0.09,4.125 -0.17,7.129 -0.205,9.123 l 6.709,2.994 c -0.686,-1.913 -1.084,-4.254 -1.084,-7.19 z M 207.025,117.41 c 0.021,-0.775 0.074,-1.551 0.074,-2.332 l -5.418,-1.686 c -0.035,0.826 -0.061,1.662 -0.094,2.514 l 5.412,2.391 c 0.021,-0.281 0.026,-0.592 0.026,-0.887 z m 49.688,-5.863 -5.633,-0.346 c -0.062,2.823 -0.1,5.418 -0.158,7.791 l 5.516,1.008 c 0.064,-2.682 0.185,-5.543 0.275,-8.453 z m -49.811,9.773 -5.375,-3.26 a 62.313,62.313 0 0 0 -0.109,2.818 l 5.33,4.221 c 0.037,-1.226 0.102,-2.503 0.154,-3.779 z M 82.494,61.818 C 82.107,61.607 81.644,61.342 81.195,61.05 L 0,24.545 v 25.213 l 79.734,24.943 a 930.7,930.7 0 0 1 2.76,-12.883 z m 125.244,33.52 -5.555,2.469 c -0.023,0.555 -0.027,1.207 -0.062,1.979 l 5.559,-1.711 c 0.017,-1.118 0.052,-2.046 0.058,-2.737 z M 77.074,87.686 0,73.672 v 22.09 l 74.689,4.717 c 0.764,-4.268 1.577,-8.567 2.385,-12.793 z m 52.232,36.779 -12.048,3.734 c -0.625,4.75 -0.949,7.621 -1.146,9.344 l 9.908,-4.439 c 1.328,-2.415 2.494,-5.299 3.286,-8.639 z m 127.95,-27.801 c 0.053,-1.402 0.1,-2.691 0.158,-3.867 l -5.977,1.059 -0.035,1.766 c -0.045,2.072 -0.086,4.066 -0.121,5.986 l 5.811,-0.344 c 0.066,-1.596 0.119,-3.141 0.164,-4.6 z M 130.35,115.432 c 0,-1.793 -0.07,-3.322 -0.213,-4.625 l -10.48,0.58 a 1.426,1.426 0 0 0 -0.082,0.324 c -0.412,2.83 -0.791,5.373 -1.104,7.668 l 11.809,-2.049 c 0.017,-0.617 0.07,-1.248 0.07,-1.898 z m 76.263,13.78 -5.289,-5.368 c -0.061,1.613 -0.117,3.232 -0.176,4.816 -0.018,0.119 -0.018,0.234 -0.02,0.357 l 5.264,6.881 c 0.063,-1.898 0.128,-4.166 0.221,-6.686 z m -78.414,-25.548 c -0.025,0 -0.135,-0.004 -0.281,-0.012 a 6.003,6.003 0 0 0 -0.6,0.152 l 1.062,0.07 a 1.204,1.204 0 0 0 -0.181,-0.21 z m 79.363,-1.978 -5.525,0.988 c -0.027,0.593 -0.039,1.226 -0.057,1.877 l 5.494,-0.334 c 0.026,-0.873 0.061,-1.725 0.088,-2.531 z m -0.21,6.748 -5.484,-0.344 c -0.041,0.637 -0.041,1.307 -0.068,1.979 l 5.459,0.99 c 0.005,-0.885 0.065,-1.764 0.093,-2.625 z M 70.215,142.828 0,164.633 v 24.871 l 74.25,-33.223 c -2.467,-4.228 -3.654,-8.886 -4.035,-13.453 z m 171.099,9.598 78.879,62.334 h 40.838 L 249.084,146.906 c -1.424,2.698 -4.01,4.549 -7.77,5.52 z M 72.469,113.996 0,118.016 v 21.979 L 70.707,127.7 c 0.422,-4.225 1.029,-8.852 1.762,-13.704 z m 135.147,34.557 -6.802,-10.738 c -0.143,4.627 -0.264,8.203 -0.264,8.764 v 0.117 c 0,0.568 -0.018,1.104 -0.055,1.635 l 31.934,66.43 h 17.029 l -39.744,-62.883 c -0.816,-0.862 -1.528,-1.96 -2.098,-3.325 z m 18.693,5.918 c -2.355,0.307 -4.074,0.527 -5.221,0.668 l 45.555,59.621 h 24.213 l -59.959,-60.885 a 524.66,524.66 0 0 0 -4.588,0.596 z m 74.384,-29.608 c 1.096,0.85 2.467,2.109 3.504,3.82 l 63.562,11.562 v -21.686 l -67.236,-4.238 c 0,4.267 0.053,8.07 0.17,10.542 z m -8.896,-66.779 c 3.559,3.076 6.17,7.074 7.693,11.838 L 367.76,48.975 V 24.418 Z m 8.965,33.316 a 561.628,561.628 0 0 1 -0.086,7.262 L 367.76,94.66 V 73.113 l -66.867,11.936 c -0.053,1.881 -0.079,4.031 -0.131,6.351 z m -15.153,54.975 c -4.334,0.695 -8.781,1.27 -11.811,1.662 l 93.961,41.807 v -25.17 l -68.877,-21.266 c -3.527,1.424 -8.146,2.153 -13.273,2.967 z m -95.015,12.854 11.502,55.531 h 16.965 l -21.316,-59.562 c -1.679,1.974 -4.132,3.363 -7.151,4.031 z M 85.52,166.795 4.301,214.76 h 42.266 l 55.898,-43.189 c -7.004,-0.77 -12.553,-2.456 -16.945,-4.776 z m 73.511,-8.607 c -0.775,-0.832 -1.424,-1.713 -1.898,-2.619 a 52.694,52.694 0 0 1 -5.615,4.65 l -34.41,54.541 h 18.01 l 25.18,-55.488 c -0.443,-0.336 -0.88,-0.688 -1.267,-1.084 z M 118.348,171.785 73.84,214.76 h 25.049 l 37.062,-46.57 c -5.433,1.863 -11.328,3.087 -17.603,3.595 z m 51.06,-10.271 c -0.383,0.049 -1.148,0.119 -1.992,0.119 -0.441,0 -0.879,-0.014 -1.303,-0.066 l -17.391,53.193 h 15.943 l 9.412,-53.707 c -0.412,0.047 -0.828,0.092 -1.23,0.133 -1.74,0.152 -3.017,0.271 -3.439,0.328 z m 9.399,-0.914 -3.518,54.16 h 14.355 l -3.361,-54.92 a 661.75,661.75 0 0 1 -7.476,0.76 z"
         fill="#df8f2f"
         id="path2"
         style="stroke-width:0.999937;stroke-dasharray:none" /><path
         d="m 292.121,129.775 c -1.465,-1.84 -0.357,-40.078 -0.357,-50.012 0,-9.93 -5.15,-19.488 -20.965,-19.488 -20.967,0 -31.268,17.285 -31.268,17.285 0,0 -4.768,-11.037 -16.527,-11.037 -19.131,0 -31.641,15.449 -31.641,15.449 0,0 -2.221,-10.305 -6.264,-10.305 -4.037,0 -19.842,9.568 -23.141,12.139 -1.82,1.408 -1.885,5.574 -1.551,9.043 -5.807,-8.428 -15.562,-10.877 -24.58,-10.877 -8.129,0 -16.611,4.227 -22.289,7.766 3.252,-22.068 6.496,-43.465 6.496,-45.641 0,-4.412 -2.215,-5.156 -5.893,-5.156 -4.771,0 -29.803,5.885 -29.803,12.135 0,3.307 9.211,3.307 7.734,9.934 -1.475,6.625 -12.865,57.006 -12.865,77.959 0,20.959 17.648,23.904 32.354,23.904 29.432,0 46.361,-16.02 51.957,-35.242 0.697,9.385 1.26,17.895 1.182,19.986 -0.197,5.148 2.018,4.967 3.697,4.787 1.643,-0.189 15.99,-1.479 19.664,-2.029 3.656,-0.561 3.301,-2.389 3.301,-3.867 0,-1.475 1.48,-41.736 1.658,-49.465 0.174,-7.715 9.373,-14.52 15.439,-14.52 6.092,0 8.453,6.621 8.453,11.953 0,5.326 -1.465,41.186 -1.465,46.52 0,5.326 1.465,5.326 3.48,5.145 2.039,-0.184 12.533,-1.652 17.873,-2.199 5.318,-0.551 4.213,-1.469 4.393,-4.051 0.182,-2.568 0.926,-38.797 1.109,-47.621 0.168,-8.83 9.742,-16.559 15.797,-16.559 6.088,0 8.816,6.262 8.658,12.146 -0.197,5.881 -1.494,38.611 -1.494,45.598 0,4.416 0.744,6.252 4.051,5.883 3.322,-0.369 27.229,-3.305 27.229,-5.143 0.002,-1.843 -2.941,-2.582 -4.422,-4.42 z m -173.932,21.702 c -6.627,0 -11.402,-3.678 -11.402,-11.77 0,-2.842 1.636,-14.943 3.744,-29.639 2.32,-11.189 13.342,-15.592 17.209,-15.592 5.52,0 11.768,3.307 11.768,20.955 0,22.44 -14.696,36.046 -21.319,36.046 z"
         fill="#ffffff"
         id="path3"
         style="stroke-width:0.999937;stroke-dasharray:none" /><path
         d="m 180.879,132.352 c -0.438,-0.738 -2.414,-2.725 -5.025,-5.365 2.432,-2.836 4.113,-6.16 4.113,-9.717 0,-5.326 -0.916,-7.902 -3.676,-7.902 -2.742,0 -4.967,2.389 -4.967,4.049 0,1.662 2.754,3.299 2.373,5.514 -0.111,0.79 -0.605,2.479 -1.529,4.322 -6.91,-7.119 -15.363,-16.557 -15.363,-21.979 0,-5.881 2.385,-6.252 4.598,-6.252 2.191,0 3.102,2.945 5.316,2.945 1.861,0 4.236,-1.105 4.236,-2.945 0,-1.844 -3.324,-5.148 -8.812,-5.148 -5.52,0 -12.693,3.305 -12.693,12.697 0,2.242 1.449,5.26 3.611,8.553 -2.889,1.988 -8.039,6.34 -8.039,12.037 0,7.908 7.92,13.053 14.168,13.053 2.889,0 7.557,-1.816 11.74,-4.805 2.016,1.941 3.342,3.143 3.342,3.143 h 5.16 c 2.017,-0.001 3.119,0.565 1.447,-2.2 z m -27.59,-10.481 c 0,-2.863 1.234,-5.396 2.383,-7.15 3.709,4.852 8.402,9.879 12.199,13.66 -1.668,1.158 -3.719,1.939 -6.293,1.939 -4.603,0 -8.289,-3.123 -8.289,-8.449 z"
         fill="#df8f2f"
         id="path4"
         style="stroke-width:0.999937;stroke-dasharray:none" /></g></g></svg>
