<?xml version="1.0" encoding="UTF-8" standalone="no"?>
<svg
   version="1.0"
   width="1798.000000pt"
   height="1012.000000pt"
   viewBox="0 0 1798.000000 1012.000000"
   preserveAspectRatio="xMidYMid meet"
   id="svg7487"
   xmlns="http://www.w3.org/2000/svg"
   xmlns:svg="http://www.w3.org/2000/svg">
  <defs
     id="defs7491" />
  <g
     transform="translate(0.000000,1012.000000) scale(0.100000,-0.100000)"
     fill="#000000"
     stroke="none"
     id="g7485"
     style="fill:#d52200;fill-opacity:1">
    <path
       d="M6540 5956 c-172 -37 -303 -107 -420 -225 -73 -73 -94 -102 -138 -191 -61 -125 -88 -225 -103 -376 -11 -124 -1 -271 28 -384 96 -387 405 -624 808 -622 333 2 579 167 668 447 18 58 22 93 22 210 0 138 0 141 -33 207 -80 164 -233 234 -487 226 -98 -4 -130 -9 -173 -28 -142 -62 -188 -244 -89 -357 39 -44 118 -83 172 -83 62 0 90 -19 90 -59 0 -70 -103 -100 -221 -66 -102 29 -174 99 -216 208 -26 65 -35 228 -19 309 24 112 92 206 186 256 45 24 60 27 155 27 102 0 108 -1 190 -40 73 -34 94 -40 150 -40 233 2 326 292 143 445 -50 41 -181 104 -263 125 -89 23 -361 30 -450 11z"
       id="path7461"
       style="fill:#d52200;fill-opacity:1" />
    <path
       d="M15500 5956 c-387 -82 -629 -373 -659 -794 -16 -215 15 -408 91 -561 140 -284 411 -445 743 -443 354 2 612 190 680 498 26 114 18 280 -17 356 -78 169 -235 244 -493 236 -128 -5 -192 -23 -243 -71 -86 -80 -91 -246 -10 -324 43 -41 113 -72 163 -73 62 0 90 -19 90 -59 0 -46 -37 -73 -108 -79 -109 -9 -218 43 -283 134 -56 78 -69 132 -69 279 1 111 4 138 23 187 29 72 99 151 166 186 46 24 61 27 156 27 102 0 108 -1 190 -40 73 -34 94 -40 150 -40 70 1 114 18 163 64 52 47 72 98 72 181 0 64 -4 82 -27 122 -16 25 -45 61 -65 78 -50 41 -181 104 -263 125 -89 23 -361 30 -450 11z"
       id="path7463"
       style="fill:#d52200;fill-opacity:1" />
    <path
       d="M1628 5950 c-112 -18 -210 -92 -236 -179 -9 -27 -12 -230 -12 -717 0 -639 2 -681 19 -720 26 -57 84 -110 150 -136 54 -22 66 -23 376 -23 280 0 328 2 385 18 210 60 362 205 405 389 44 189 -10 374 -144 489 -28 24 -51 50 -51 58 0 7 14 29 31 49 145 165 122 477 -46 630 -64 59 -135 95 -243 124 -66 17 -113 21 -327 24 -137 1 -276 -1 -307 -6z m448 -416 c69 -33 96 -135 56 -214 -33 -67 -171 -106 -230 -64 -21 14 -22 22 -22 136 0 151 4 158 98 158 38 0 78 -6 98 -16z m26 -641 c74 -43 100 -142 59 -226 -30 -63 -78 -87 -172 -87 -107 0 -109 3 -109 164 0 136 2 145 35 165 28 17 148 7 187 -16z"
       id="path7465"
       style="fill:#d52200;fill-opacity:1" />
    <path
       d="M3054 5950 c-66 -21 -127 -72 -159 -134 l-30 -60 0 -550 0 -551 27 -80 c73 -212 241 -351 487 -400 65 -14 115 -16 220 -12 159 6 223 21 347 82 144 71 245 190 300 355 16 50 18 105 22 573 2 359 0 535 -8 573 -16 75 -63 140 -130 178 -50 28 -63 31 -145 31 -82 0 -95 -3 -145 -31 -65 -37 -114 -102 -129 -174 -7 -33 -11 -221 -11 -521 0 -419 -2 -475 -17 -506 -24 -52 -67 -75 -131 -70 -61 4 -97 31 -112 86 -6 22 -10 228 -10 511 0 292 -4 489 -10 512 -18 63 -70 129 -129 161 -44 25 -67 31 -130 33 -42 2 -90 -1 -107 -6z"
       id="path7467"
       style="fill:#d52200;fill-opacity:1" />
    <path
       d="M4701 5949 c-76 -13 -133 -41 -179 -88 -74 -76 -72 -53 -72 -806 0 -746 -2 -724 67 -804 58 -68 102 -86 213 -86 105 0 137 11 198 69 70 65 76 88 82 317 5 223 10 243 59 237 31 -4 39 -20 85 -168 93 -303 234 -460 412 -460 162 0 278 104 278 250 1 86 -28 147 -128 270 -85 105 -144 198 -153 241 -5 24 3 36 58 91 160 158 205 424 106 628 -82 168 -275 282 -522 310 -108 12 -429 11 -504 -1z m488 -464 c56 -29 86 -124 60 -192 -27 -72 -124 -118 -207 -97 -50 12 -62 40 -62 151 0 104 10 139 42 153 32 14 129 5 167 -15z"
       id="path7469"
       style="fill:#d52200;fill-opacity:1" />
    <path
       d="M7790 5949 c-114 -19 -194 -81 -230 -176 -20 -54 -20 -71 -18 -727 l3 -671 30 -55 c32 -58 94 -109 163 -132 25 -8 147 -13 377 -16 411 -4 437 0 521 82 43 43 54 60 64 107 26 116 -18 216 -120 273 l-55 31 -203 5 c-234 6 -232 5 -232 95 0 80 10 85 171 85 156 0 221 15 275 62 42 37 59 68 69 124 14 86 -31 176 -108 216 -37 19 -63 23 -210 28 -152 4 -170 7 -183 24 -15 21 -19 103 -6 124 16 24 77 32 238 32 118 0 172 4 205 15 200 68 227 334 46 439 -23 14 -69 29 -101 35 -72 13 -617 13 -696 0z"
       id="path7471"
       style="fill:#d52200;fill-opacity:1" />
    <path
       d="M9082 5950 c-108 -20 -173 -62 -218 -142 l-29 -53 0 -700 0 -700 23 -45 c52 -99 119 -141 232 -148 86 -5 125 5 192 47 36 23 53 44 79 97 l33 67 4 196 c3 111 9 201 14 209 17 20 56 14 72 -10 8 -13 20 -50 26 -83 42 -211 159 -403 294 -484 109 -65 246 -52 342 32 119 104 113 248 -17 407 -118 144 -189 256 -189 298 0 10 24 39 53 64 125 108 195 345 153 521 -37 157 -130 274 -278 346 -144 71 -207 82 -488 86 -135 2 -269 0 -298 -5z m488 -466 c81 -48 93 -173 23 -246 -31 -32 -113 -54 -167 -44 -56 11 -66 35 -66 154 0 109 8 137 43 153 33 14 131 4 167 -17z"
       id="path7473"
       style="fill:#d52200;fill-opacity:1" />
    <path
       d="M11078 5946 c-96 -26 -167 -101 -188 -199 -8 -36 -10 -256 -8 -722 l3 -670 30 -54 c53 -96 133 -141 251 -141 117 0 203 51 251 148 28 56 28 60 33 282 l5 225 29 0 c28 0 31 -5 85 -140 77 -193 141 -303 226 -390 87 -89 144 -118 242 -123 61 -4 80 0 130 22 189 87 238 278 111 433 -24 28 -77 94 -119 145 -124 151 -209 297 -209 359 0 11 38 60 87 112 237 252 312 402 273 542 -16 58 -70 119 -134 153 -44 23 -63 27 -136 27 -68 0 -93 -5 -125 -22 -63 -34 -118 -100 -176 -212 -65 -125 -193 -317 -231 -344 -50 -37 -56 -19 -60 191 -3 171 -5 191 -26 234 -62 125 -199 183 -344 144z"
       id="path7475"
       style="fill:#d52200;fill-opacity:1" />
    <path
       d="M12650 5951 c-69 -21 -130 -73 -166 -141 -18 -33 -19 -75 -22 -735 -3 -781 -6 -748 66 -827 60 -66 102 -83 212 -83 112 0 155 18 214 87 67 78 66 67 66 808 0 763 2 739 -79 820 -29 29 -65 53 -96 63 -50 17 -150 21 -195 8z"
       id="path7477"
       style="fill:#d52200;fill-opacity:1" />
    <path
       d="M13389 5945 c-63 -20 -131 -83 -160 -147 l-24 -53 -3 -669 c-3 -735 -3 -730 57 -813 44 -61 134 -103 221 -103 125 0 208 47 257 148 l28 57 5 280 5 280 25 0 c23 0 39 -28 183 -312 203 -403 237 -441 398 -451 137 -8 228 41 280 152 l29 61 0 682 c0 657 -1 684 -20 736 -36 97 -120 157 -231 165 -131 9 -232 -46 -286 -156 l-28 -57 -3 -273 c-3 -224 -6 -274 -18 -279 -8 -3 -21 1 -30 8 -9 7 -82 146 -163 308 -156 315 -199 379 -285 423 -53 27 -172 34 -237 13z"
       id="path7479"
       style="fill:#d52200;fill-opacity:1" />
    <path
       d="M16444 4360 c-79 -32 -85 -164 -9 -198 79 -36 155 9 155 93 0 57 -12 80 -50 100 -32 17 -64 18 -96 5z m103 -34 c22 -19 28 -32 28 -66 0 -34 -6 -47 -28 -66 -90 -77 -202 43 -118 127 37 36 79 38 118 5z"
       id="path7481"
       style="fill:#d52200;fill-opacity:1" />
    <path
       d="M16457 4313 c-11 -10 -8 -101 3 -108 6 -3 10 3 10 14 0 27 7 26 30 -1 10 -13 22 -20 26 -16 4 4 1 15 -6 23 -10 12 -10 19 -2 27 17 17 15 55 -4 62 -21 8 -49 8 -57 -1z m48 -33 c0 -8 -8 -16 -17 -18 -13 -2 -18 3 -18 18 0 15 5 20 18 18 9 -2 17 -10 17 -18z"
       id="path7483"
       style="fill:#d52200;fill-opacity:1" />
  </g>
</svg>
