<?xml version="1.0" encoding="UTF-8"?>
<svg width="400px" height="125px" viewBox="0 0 400 125" version="1.1" xmlns="http://www.w3.org/2000/svg" xmlns:xlink="http://www.w3.org/1999/xlink">
    <!-- Generator: Sketch 62 (91390) - https://sketch.com -->
    <title>Logo@1x</title>
    <desc>Created with Sketch.</desc>
    <g id="Logo" stroke="none" stroke-width="1" fill="none" fill-rule="evenodd">
        <g id="Coles_Logo" fill="#E01A22" fill-rule="nonzero">
            <path d="M371.201977,67.9446647 L359.841384,65.392801 C350.705531,63.3006859 345.045833,60.6971652 345.045833,54.1573686 C345.045833,48.2839493 350.767329,44.6317878 359.970131,44.6317878 C371.670615,44.6317878 378.12339,49.2809324 378.628077,58.0833125 L378.638377,58.2434497 L397.455968,58.2434497 L397.455968,58.0729814 C397.455968,49.4359038 394.046761,42.1367469 387.599134,36.9710305 C381.069111,31.7433259 371.753013,28.9796678 360.649912,28.9796678 C349.927902,28.9796678 340.992893,31.6555087 334.80791,36.7179104 C328.746524,41.6769983 325.54331,48.7075378 325.54331,57.0501694 C325.54331,64.3338294 327.75775,69.6545168 332.511072,73.7870901 C336.836955,77.5477315 343.500875,80.4456981 353.486456,82.9045789 L366.886394,86.3087857 C376.022247,88.602364 380.667422,90.8856106 380.667422,97.0328127 C380.667422,104.275147 373.838706,108.76932 362.854053,108.76932 C349.649809,108.76932 342.826244,103.479626 341.991966,92.5902969 L341.981666,92.1925365 L322.999279,92.1925365 L322.999279,92.6006281 C322.999279,113.036202 336.909053,124.762377 361.159749,124.762377 C373.251622,124.762377 383.185704,121.978056 389.885673,116.70386 C396.503244,111.507149 400,103.877387 400,94.6514174 C400,77.8370112 389.880523,72.294198 371.201977,67.9446647 L371.201977,67.9446647 Z M298.722834,64.8917266 C294.541147,51.0476073 282.619219,46.0730224 273.869605,46.0678571 L273.864456,46.0678571 L273.859306,46.0678571 C265.109692,46.0730224 253.187764,51.0476073 249.000927,64.8917266 L298.722834,64.8917266 Z M319.446133,76.4009423 C319.451024,78.0333085 319.378927,79.6398462 319.25018,81.2050584 L299.938201,81.2050584 L299.938201,81.189561 L247.79071,81.189561 C249.799155,96.8726754 261.159748,106.718531 273.864456,106.713365 C283.252652,106.713365 291.904419,101.325523 296.590792,92.1925365 L317.236584,92.1925365 C311.170048,112.560956 293.444227,125.005166 273.869605,124.994844 L273.864456,124.994844 L273.859306,124.994844 C249.63436,125.010332 228.226388,105.943673 228.282924,76.4009423 C228.231538,40.7575008 255.216809,28.7472105 273.859306,28.7368791 L273.864456,28.7368791 L273.869605,28.7368791 C292.517252,28.7472105 319.497373,40.7575008 319.446133,76.4009423 L319.446133,76.4009423 Z M201.024822,0.00516570012 L201.009373,122.644434 L222.041405,122.649599 L222.036255,0 L201.024822,0.00516570012 Z M175.599959,76.8710225 C175.599959,60.919291 162.709857,47.9946692 146.812236,47.9946692 C130.914615,47.9946692 118.019364,60.919291 118.019364,76.8710225 C118.019364,92.8124227 130.914615,105.74221 146.812236,105.74221 C162.709857,105.74221 175.599959,92.8124227 175.599959,76.8710225 L175.599959,76.8710225 Z M194.793491,76.8710225 C194.793491,103.453798 173.313421,125 146.812236,125 C120.311052,125 98.8258316,103.453798 98.8258316,76.8710225 C98.8258316,50.288247 120.311052,28.7420448 146.812236,28.7420448 C173.313421,28.7420448 194.793491,50.288247 194.793491,76.8710225 L194.793491,76.8710225 Z M19.1935318,76.8761882 C19.1935318,92.8175881 32.0836337,105.747376 47.9864044,105.747376 C59.6971883,105.747376 69.7651662,98.7271674 74.2609951,88.6643525 L94.5102482,88.6643525 C89.2676898,109.539011 70.4294983,125 47.9864044,125 C21.4852199,125 0,103.448632 0,76.8761882 C0,50.288247 21.4852199,28.7420448 47.9864044,28.7420448 C70.4294983,28.7420448 89.2676898,44.1978677 94.5102482,65.0776924 L74.2609951,65.0776924 C69.7651662,55.0097117 59.6971883,47.9895034 47.9864044,47.9895034 C32.0836337,47.9895034 19.1935318,60.919291 19.1935318,76.8761882 L19.1935318,76.8761882 Z"></path>
        </g>
    </g>
</svg>
