<?xml version="1.0" encoding="UTF-8" standalone="no"?><!-- Generator: Gravit.io --><svg xmlns="http://www.w3.org/2000/svg" xmlns:xlink="http://www.w3.org/1999/xlink" style="isolation:isolate" viewBox="0 0 1000 312.238" width="1000pt" height="312.238pt"><defs><clipPath id="_clipPath_gScN9ho1OXKAvYFYdkrsO42frxlWHBZv"><rect width="1000" height="312.238"/></clipPath></defs><g clip-path="url(#_clipPath_gScN9ho1OXKAvYFYdkrsO42frxlWHBZv)"><rect x="0.5" y="0" width="999" height="312.238" transform="matrix(1,0,0,1,0,0)" fill="rgb(237,29,36)"/><g><g><path d=" M 270.557 161.712 C 259.152 116.439 218.184 82.919 169.362 82.919 C 111.724 82.919 65 129.643 65 187.281 C 65 244.918 111.724 291.642 169.362 291.642 C 218.184 291.642 259.152 258.122 270.557 212.849 L 226.519 212.849 C 216.745 234.676 194.834 249.895 169.362 249.895 C 134.786 249.895 106.747 221.856 106.747 187.281 C 106.747 152.693 134.786 124.666 169.362 124.666 C 194.834 124.666 216.733 139.885 226.519 161.712 L 270.557 161.712 Z " fill="rgb(255,255,255)"/></g><g><path d=" M 488.67 187.282 C 488.67 129.644 441.946 82.92 384.309 82.92 C 326.671 82.92 279.947 129.644 279.947 187.282 C 279.947 244.919 326.671 291.644 384.309 291.644 C 441.946 291.644 488.67 244.919 488.67 187.282 Z  M 446.923 187.282 C 446.923 221.857 418.896 249.897 384.309 249.897 C 349.722 249.897 321.694 221.857 321.694 187.282 C 321.694 152.695 349.722 124.667 384.309 124.667 C 418.896 124.667 446.923 152.695 446.923 187.282 Z " fill="rgb(255,255,255)"/></g><g><path d=" M 502.209 20.607 L 502.209 286.536 L 547.95 286.536 L 547.95 20.595 L 502.209 20.607 Z " fill="rgb(255,255,255)"/></g><g><path d=" M 759.365 196.688 C 759.665 193.282 759.809 189.804 759.809 186.254 C 759.929 108.984 701.224 82.924 660.664 82.924 L 660.64 82.924 C 620.081 82.924 561.412 108.984 561.532 186.254 C 561.412 250.332 607.944 291.659 660.64 291.635 L 660.664 291.635 C 703.263 291.647 741.808 264.663 754.976 220.506 L 710.087 220.506 C 699.905 240.318 681.076 251.987 660.664 251.987 L 660.64 251.987 C 633.045 251.999 608.328 230.652 603.938 196.652 L 717.366 196.652 L 717.366 196.688 L 759.365 196.688 Z  M 660.64 120.486 L 660.64 120.486 L 660.664 120.486 C 679.697 120.486 705.613 131.279 714.74 161.309 L 606.589 161.309 C 615.691 131.279 641.608 120.486 660.64 120.486 Z " fill="rgb(255,255,255)"/></g><g><path d=" M 850.523 291.128 C 797.766 291.128 767.52 265.715 767.52 221.402 L 767.52 220.514 L 808.812 220.514 L 808.848 221.378 C 810.646 244.979 825.494 256.457 854.204 256.457 C 878.094 256.457 892.965 246.706 892.965 230.996 C 892.965 217.672 882.867 212.719 862.983 207.742 L 833.829 200.366 C 812.122 195.041 797.622 188.757 788.232 180.602 C 777.858 171.631 773.061 160.094 773.061 144.3 C 773.061 126.215 780.017 110.96 793.209 100.214 C 806.665 89.241 826.105 83.436 849.407 83.436 C 873.561 83.436 893.817 89.433 908.016 100.766 C 922.06 111.967 929.459 127.786 929.459 146.518 L 929.459 146.89 L 888.552 146.89 L 888.516 146.542 C 887.424 127.462 873.381 117.376 847.932 117.376 C 827.928 117.376 815.468 125.291 815.468 138.039 C 815.468 152.203 827.784 157.864 847.668 162.397 L 872.373 167.926 C 912.993 177.352 935 189.381 935 225.827 C 935 245.843 927.397 262.381 912.993 273.666 C 898.446 285.083 876.823 291.128 850.523 291.128 Z " fill="rgb(255,255,255)"/></g></g></g></svg>