<?xml version="1.0" encoding="UTF-8" standalone="no"?><!-- Generator: Gravit.io --><svg xmlns="http://www.w3.org/2000/svg" xmlns:xlink="http://www.w3.org/1999/xlink" style="isolation:isolate" viewBox="0 0 1000 312.238" width="1000pt" height="312.238pt"><defs><clipPath id="_clipPath_idIsRSPOqax2CX36LcfpgEceti7g9xu8"><rect width="1000" height="312.238"/></clipPath></defs><g clip-path="url(#_clipPath_idIsRSPOqax2CX36LcfpgEceti7g9xu8)"><rect x="0.5" y="0" width="999" height="312.238" transform="matrix(1,0,0,1,0,0)" fill="rgb(237,29,36)"/><g><g><path d=" M 251.245 162.183 C 238.88 113.099 194.465 76.758 141.533 76.758 C 79.044 76.758 28.387 127.415 28.387 189.904 C 28.387 252.392 79.044 303.049 141.533 303.049 C 194.465 303.049 238.88 266.708 251.245 217.624 L 203.501 217.624 C 192.904 241.288 169.149 257.788 141.533 257.788 C 104.047 257.788 73.648 227.389 73.648 189.904 C 73.648 152.405 104.047 122.019 141.533 122.019 C 169.149 122.019 192.891 138.519 203.501 162.183 L 251.245 162.183 Z " fill="rgb(255,255,255)"/></g><g><path d=" M 487.717 189.905 C 487.717 127.416 437.06 76.76 374.571 76.76 C 312.083 76.76 261.426 127.416 261.426 189.905 C 261.426 252.394 312.083 303.05 374.571 303.05 C 437.06 303.05 487.717 252.394 487.717 189.905 Z  M 442.456 189.905 C 442.456 227.39 412.07 257.789 374.571 257.789 C 337.073 257.789 306.687 227.39 306.687 189.905 C 306.687 152.406 337.073 122.02 374.571 122.02 C 412.07 122.02 442.456 152.406 442.456 189.905 Z " fill="rgb(255,255,255)"/></g><g><path d=" M 502.395 9.201 L 502.395 297.513 L 551.985 297.513 L 551.985 9.188 L 502.395 9.201 Z " fill="rgb(255,255,255)"/></g><g><path d=" M 781.195 200.103 C 781.52 196.41 781.676 192.639 781.676 188.791 C 781.806 105.017 718.16 76.763 674.187 76.763 L 674.161 76.763 C 630.187 76.763 566.58 105.017 566.71 188.791 C 566.58 258.261 617.029 303.067 674.161 303.041 L 674.187 303.041 C 720.371 303.054 762.16 273.799 776.436 225.925 L 727.769 225.925 C 716.73 247.405 696.317 260.056 674.187 260.056 L 674.161 260.056 C 644.243 260.069 617.445 236.925 612.686 200.064 L 735.661 200.064 L 735.661 200.103 L 781.195 200.103 Z  M 674.161 117.486 L 674.161 117.486 L 674.187 117.486 C 694.821 117.486 722.919 129.188 732.814 161.746 L 615.56 161.746 C 625.429 129.188 653.526 117.486 674.161 117.486 Z " fill="rgb(255,255,255)"/></g><g><path d=" M 880.025 302.491 C 822.828 302.491 790.037 274.939 790.037 226.896 L 790.037 225.934 L 834.803 225.934 L 834.842 226.87 C 836.793 252.459 852.889 264.902 884.017 264.902 C 909.917 264.902 926.04 254.331 926.04 237.298 C 926.04 222.853 915.092 217.483 893.534 212.087 L 861.926 204.09 C 838.392 198.317 822.672 191.504 812.492 182.663 C 801.245 172.937 796.044 160.429 796.044 143.305 C 796.044 123.698 803.585 107.159 817.887 95.509 C 832.476 83.612 853.553 77.319 878.816 77.319 C 905.002 77.319 926.963 83.82 942.358 96.107 C 957.583 108.251 965.606 125.401 965.606 145.71 L 965.606 146.113 L 921.255 146.113 L 921.216 145.736 C 920.033 125.05 904.807 114.115 877.217 114.115 C 855.529 114.115 842.02 122.696 842.02 136.518 C 842.02 151.873 855.373 158.01 876.931 162.925 L 903.715 168.919 C 947.754 179.139 971.613 192.18 971.613 231.694 C 971.613 253.395 963.369 271.325 947.754 283.56 C 931.982 295.938 908.539 302.491 880.025 302.491 Z " fill="rgb(255,255,255)"/></g></g></g></svg>