<?xml version="1.0" encoding="UTF-8" standalone="no"?><!-- Generator: Gravit.io --><svg xmlns="http://www.w3.org/2000/svg" xmlns:xlink="http://www.w3.org/1999/xlink" style="isolation:isolate" viewBox="0 0 24 24" width="24pt" height="24pt"><defs><clipPath id="_clipPath_tarO2CEh6iDEexzg8DqJaNyiWCbDotdF"><rect width="24" height="24"/></clipPath></defs><g clip-path="url(#_clipPath_tarO2CEh6iDEexzg8DqJaNyiWCbDotdF)"><circle vector-effect="non-scaling-stroke" cx="11.999999999999998" cy="12" r="11.628482972136222" fill="rgb(1,177,221)"/><path d=" M 12.251 17.415 C 12.253 15.958 12.256 14.743 12.259 14.714 C 12.262 14.685 12.27 14.603 12.276 14.532 C 12.305 14.197 12.365 13.85 12.451 13.518 C 12.495 13.349 12.521 13.269 12.568 13.153 C 12.78 12.637 13.152 12.236 13.651 11.983 C 13.803 11.906 13.906 11.866 14.125 11.8 C 14.587 11.66 15.006 11.584 15.528 11.544 C 15.683 11.532 16.173 11.532 16.337 11.543 C 16.901 11.584 17.46 11.697 17.95 11.867 C 18.173 11.945 18.418 12.082 18.618 12.24 C 18.699 12.305 18.895 12.5 18.962 12.585 C 19.085 12.738 19.207 12.942 19.285 13.124 C 19.379 13.345 19.48 13.74 19.54 14.126 L 19.559 14.252 C 19.643 14.793 19.636 15.307 19.559 15.913 L 19.536 16.058 C 19.477 16.432 19.382 16.807 19.293 17.022 C 19.128 17.417 18.857 17.759 18.514 18.003 C 18.255 18.187 18.013 18.293 17.57 18.414 C 17.09 18.545 16.626 18.613 16.09 18.632 L 15.941 18.637 L 15.565 17.601 C 15.358 17.032 15.189 16.566 15.189 16.565 C 15.19 16.564 15.22 16.574 15.255 16.586 C 15.535 16.686 16.044 16.705 16.443 16.63 C 16.637 16.594 16.813 16.509 16.952 16.386 C 17.155 16.205 17.254 16.014 17.327 15.664 C 17.375 15.43 17.388 15.293 17.384 15.037 C 17.381 14.786 17.363 14.642 17.308 14.416 C 17.239 14.135 17.151 13.969 16.986 13.812 C 16.832 13.666 16.661 13.579 16.443 13.537 C 16.262 13.502 16.153 13.492 15.934 13.492 C 15.712 13.492 15.587 13.503 15.417 13.537 C 15.084 13.604 14.818 13.8 14.672 14.085 C 14.569 14.286 14.496 14.617 14.477 14.961 C 14.475 14.996 14.474 16.158 14.473 17.544 L 14.473 20.062 L 13.361 20.062 L 12.248 20.062 L 12.251 17.414 L 12.251 17.415 Z  M 7.831 18.63 C 7.226 18.604 6.669 18.505 6.126 18.326 C 5.965 18.273 5.895 18.245 5.766 18.179 C 5.219 17.9 4.815 17.423 4.629 16.836 C 4.595 16.729 4.526 16.448 4.495 16.293 C 4.443 16.025 4.4 15.69 4.386 15.451 C 4.379 15.314 4.379 14.851 4.386 14.717 C 4.418 14.153 4.555 13.472 4.71 13.112 C 4.934 12.592 5.346 12.173 5.865 11.939 C 5.977 11.888 6.073 11.854 6.252 11.799 C 7.479 11.426 8.79 11.443 10.017 11.848 C 10.39 11.971 10.74 12.196 10.993 12.476 C 11.194 12.698 11.356 12.967 11.455 13.241 C 11.565 13.542 11.688 14.161 11.714 14.536 C 11.716 14.575 11.72 14.616 11.722 14.627 C 11.735 14.709 11.74 15.157 11.731 15.374 C 11.705 15.947 11.571 16.651 11.418 17.022 C 11.342 17.205 11.206 17.433 11.082 17.587 C 10.878 17.841 10.591 18.066 10.29 18.209 C 9.973 18.359 9.377 18.515 8.863 18.581 C 8.533 18.624 8.134 18.643 7.831 18.63 L 7.831 18.63 Z  M 8.319 16.665 C 8.697 16.628 8.907 16.547 9.106 16.36 C 9.267 16.208 9.36 16.037 9.428 15.769 C 9.541 15.321 9.541 14.847 9.428 14.4 C 9.362 14.138 9.279 13.979 9.129 13.829 C 8.887 13.587 8.581 13.492 8.047 13.493 C 7.62 13.494 7.365 13.552 7.146 13.697 C 7.014 13.785 6.888 13.919 6.816 14.047 C 6.728 14.206 6.66 14.445 6.619 14.744 C 6.602 14.873 6.598 15.211 6.613 15.352 C 6.642 15.633 6.71 15.908 6.789 16.065 C 6.893 16.274 7.051 16.431 7.26 16.535 C 7.41 16.611 7.548 16.642 7.861 16.671 C 7.937 16.679 8.22 16.675 8.319 16.665 L 8.319 16.665 Z  M 7.823 11.036 C 7.746 11.033 7.654 11.028 7.618 11.025 C 7.537 11.019 7.4 11.006 7.375 11.002 C 7.365 11.001 7.336 10.997 7.311 10.995 C 7.286 10.992 7.257 10.989 7.246 10.987 C 7.236 10.986 7.211 10.982 7.19 10.979 C 7.17 10.976 7.148 10.973 7.141 10.972 C 7.134 10.971 7.093 10.964 7.049 10.957 C 6.693 10.9 6.193 10.768 5.944 10.667 C 5.75 10.587 5.535 10.461 5.371 10.33 C 5.267 10.246 5.095 10.073 5.017 9.973 C 4.824 9.725 4.696 9.475 4.612 9.185 C 4.493 8.771 4.411 8.287 4.387 7.859 C 4.379 7.725 4.379 7.261 4.386 7.13 C 4.407 6.773 4.465 6.378 4.551 6.022 C 4.619 5.742 4.666 5.607 4.764 5.406 C 5.029 4.867 5.493 4.461 6.07 4.264 C 6.532 4.105 7.052 3.999 7.592 3.953 C 7.751 3.94 8.195 3.935 8.377 3.945 C 8.926 3.975 9.467 4.075 9.987 4.244 C 10.263 4.333 10.522 4.47 10.737 4.642 C 10.827 4.714 11.021 4.907 11.09 4.994 C 11.253 5.198 11.393 5.455 11.475 5.701 C 11.544 5.907 11.629 6.291 11.671 6.584 C 11.709 6.848 11.727 7.063 11.737 7.349 L 11.741 7.476 L 10.629 7.476 L 9.518 7.476 L 9.513 7.459 C 9.511 7.449 9.509 7.411 9.509 7.374 C 9.508 7.144 9.443 6.799 9.36 6.582 C 9.293 6.409 9.157 6.236 8.996 6.121 C 8.837 6.007 8.684 5.953 8.408 5.915 C 8.287 5.898 7.863 5.895 7.74 5.911 C 7.615 5.926 7.468 5.955 7.402 5.977 C 7.113 6.071 6.877 6.289 6.76 6.568 C 6.705 6.699 6.651 6.922 6.623 7.133 C 6.602 7.29 6.597 7.606 6.613 7.76 C 6.642 8.037 6.711 8.32 6.787 8.47 C 6.933 8.759 7.211 8.97 7.53 9.031 C 7.865 9.096 8.265 9.096 8.586 9.031 C 8.795 8.989 8.976 8.893 9.124 8.747 C 9.299 8.575 9.388 8.388 9.456 8.049 C 9.469 7.986 9.48 7.935 9.48 7.934 C 9.483 7.932 11.561 8.903 11.568 8.91 C 11.576 8.918 11.522 9.129 11.478 9.264 C 11.308 9.784 10.954 10.228 10.484 10.51 C 10.337 10.598 10.193 10.664 10.02 10.721 C 9.677 10.835 9.279 10.929 8.931 10.978 C 8.859 10.989 8.717 11.006 8.67 11.01 C 8.64 11.012 8.604 11.015 8.59 11.017 C 8.56 11.02 8.463 11.027 8.377 11.032 C 8.248 11.04 7.954 11.042 7.823 11.036 L 7.823 11.036 Z  M 15.831 11.041 C 15.829 11.039 15.76 11.036 15.676 11.033 C 15.593 11.031 15.512 11.027 15.498 11.025 C 15.483 11.023 15.441 11.02 15.405 11.017 C 15.368 11.014 15.329 11.011 15.318 11.01 C 15.306 11.008 15.274 11.005 15.247 11.002 C 15.204 10.998 15.125 10.988 15.065 10.979 C 15.055 10.978 15.031 10.974 15.012 10.972 C 14.721 10.932 14.272 10.823 13.952 10.714 C 13.607 10.597 13.341 10.434 13.081 10.179 C 12.777 9.881 12.584 9.545 12.466 9.109 C 12.367 8.743 12.309 8.406 12.268 7.958 C 12.248 7.746 12.248 7.195 12.268 7.031 C 12.269 7.015 12.275 6.959 12.279 6.906 C 12.314 6.514 12.421 5.974 12.522 5.682 C 12.678 5.232 12.968 4.841 13.349 4.568 C 13.594 4.394 13.825 4.29 14.23 4.175 C 15.156 3.91 16.159 3.866 17.103 4.05 C 17.474 4.122 17.871 4.234 18.094 4.33 C 18.646 4.569 19.082 5.02 19.308 5.587 C 19.392 5.799 19.483 6.173 19.54 6.535 L 19.559 6.661 C 19.633 7.218 19.639 7.691 19.559 8.322 L 19.537 8.463 C 19.491 8.748 19.416 9.077 19.351 9.271 C 19.238 9.609 19.058 9.902 18.811 10.152 C 18.583 10.383 18.338 10.547 18.042 10.668 C 17.788 10.771 17.298 10.899 16.94 10.957 C 16.896 10.964 16.855 10.971 16.848 10.972 C 16.842 10.973 16.818 10.976 16.796 10.979 C 16.774 10.982 16.749 10.985 16.742 10.987 C 16.734 10.988 16.705 10.992 16.677 10.995 C 16.648 10.998 16.619 11.001 16.612 11.002 C 16.6 11.005 16.466 11.017 16.378 11.025 C 16.25 11.035 15.838 11.047 15.831 11.041 L 15.831 11.041 Z  M 16.221 9.065 C 16.37 9.051 16.52 9.023 16.603 8.993 C 16.871 8.899 17.095 8.699 17.213 8.447 C 17.272 8.32 17.339 8.056 17.37 7.821 C 17.387 7.697 17.389 7.325 17.374 7.199 C 17.346 6.957 17.287 6.702 17.225 6.558 C 17.171 6.432 17.071 6.29 16.972 6.2 C 16.869 6.106 16.721 6.021 16.587 5.977 C 16.521 5.955 16.374 5.926 16.249 5.911 C 16.142 5.897 15.71 5.897 15.612 5.911 C 15.318 5.951 15.183 5.994 15.023 6.1 C 14.863 6.207 14.742 6.344 14.659 6.515 C 14.582 6.675 14.516 6.949 14.487 7.225 C 14.475 7.339 14.475 7.653 14.487 7.764 C 14.509 7.962 14.56 8.202 14.611 8.349 C 14.735 8.701 15.031 8.956 15.403 9.031 C 15.652 9.081 15.937 9.093 16.221 9.065 L 16.221 9.065 Z " fill="rgb(255,255,255)"/></g></svg>