<?xml version="1.0" encoding="UTF-8" standalone="no"?><!-- Generator: Gravit.io --><svg xmlns="http://www.w3.org/2000/svg" xmlns:xlink="http://www.w3.org/1999/xlink" style="isolation:isolate" viewBox="0 0 24 24" width="24pt" height="24pt"><defs><clipPath id="_clipPath_7DCHgx4VlUT5bTKTbBWT4jJAFcxLNdQl"><rect width="24" height="24"/></clipPath></defs><g clip-path="url(#_clipPath_7DCHgx4VlUT5bTKTbBWT4jJAFcxLNdQl)"><clipPath id="_clipPath_iR3r8CrMXepBtFG39041yMkCWlrtyw9Q"><rect x="0" y="0" width="24" height="24" transform="matrix(1,0,0,1,0,0)" fill="rgb(255,255,255)"/></clipPath><g clip-path="url(#_clipPath_iR3r8CrMXepBtFG39041yMkCWlrtyw9Q)"><g><path d=" M 7.678 22.76 C 3.39 21.07 0.372 16.885 0.372 12 C 0.372 7.115 3.39 2.93 7.678 1.24 L 7.678 22.76 L 7.678 22.76 Z " fill="rgb(159,221,249)"/><path d=" M 7.678 22.76 C 9.003 23.331 10.467 23.628 12 23.628 C 18.418 23.628 23.628 18.418 23.628 12 C 23.628 5.582 18.418 0.372 12 0.372 C 10.467 0.372 9.003 0.669 7.678 1.24 L 7.678 22.76 L 7.678 22.76 Z " fill="rgb(238,52,36)"/></g></g><g><path d=" M 7.643 14.022 L 22.531 14.022 L 22.531 9.521 L 7.643 9.521 L 7.643 14.022 Z " fill="rgb(238,52,36)"/><path d=" M 8.956 11.761 C 8.956 11.043 8.385 10.459 7.674 10.434 L 7.674 9.5 L 0.6 9.5 L 0.6 14.022 L 7.674 14.022 L 7.674 13.088 C 8.385 13.063 8.956 12.479 8.956 11.761 Z " fill="rgb(159,221,249)"/><path d=" M 10.551 11.321 C 10.285 11.321 10.168 11.57 10.168 11.846 C 10.168 12.118 10.285 12.368 10.551 12.368 C 10.817 12.368 10.934 12.118 10.934 11.846 C 10.934 11.57 10.817 11.321 10.551 11.321 Z  M 9.734 10.402 L 10.184 10.402 L 10.184 11.226 L 10.19 11.226 C 10.3 11.058 10.503 10.982 10.706 10.982 C 11.032 10.982 11.384 11.245 11.384 11.843 C 11.384 12.445 11.032 12.707 10.706 12.707 C 10.465 12.707 10.266 12.634 10.168 12.454 L 10.161 12.454 L 10.161 12.663 L 9.734 12.663 L 9.734 10.402 Z  M 12.564 11.862 C 12.488 11.928 12.329 11.931 12.19 11.957 C 12.051 11.985 11.924 12.033 11.924 12.197 C 11.924 12.365 12.054 12.406 12.2 12.406 C 12.551 12.406 12.564 12.128 12.564 12.03 L 12.564 11.862 Z  M 11.525 11.529 C 11.55 11.108 11.927 10.982 12.295 10.982 C 12.621 10.982 13.013 11.054 13.013 11.447 L 13.013 12.299 C 13.013 12.448 13.029 12.596 13.07 12.663 L 12.615 12.663 C 12.599 12.612 12.586 12.559 12.583 12.504 C 12.44 12.653 12.231 12.707 12.032 12.707 C 11.722 12.707 11.474 12.552 11.474 12.217 C 11.474 11.846 11.753 11.757 12.032 11.719 C 12.307 11.678 12.564 11.688 12.564 11.504 C 12.564 11.311 12.431 11.283 12.273 11.283 C 12.102 11.283 11.991 11.352 11.975 11.529 L 11.525 11.529 Z  M 13.238 11.026 L 13.666 11.026 L 13.666 11.33 L 13.672 11.33 C 13.754 11.124 13.976 10.982 14.194 10.982 C 14.226 10.982 14.264 10.988 14.292 10.997 L 14.292 11.416 C 14.251 11.406 14.185 11.4 14.131 11.4 C 13.801 11.4 13.688 11.637 13.688 11.925 L 13.688 12.663 L 13.238 12.663 L 13.238 11.026 Z  M 15.493 11.824 C 15.493 11.558 15.401 11.321 15.11 11.321 C 14.856 11.321 14.746 11.542 14.746 11.786 C 14.746 12.02 14.834 12.277 15.11 12.277 C 15.366 12.277 15.493 12.058 15.493 11.824 L 15.493 11.824 Z  M 15.92 12.559 C 15.92 12.828 15.825 13.284 15.071 13.284 C 14.749 13.284 14.372 13.132 14.35 12.758 L 14.796 12.758 C 14.837 12.926 14.974 12.983 15.132 12.983 C 15.382 12.983 15.496 12.812 15.493 12.578 L 15.493 12.362 L 15.486 12.362 C 15.388 12.533 15.192 12.616 14.996 12.616 C 14.505 12.616 14.296 12.242 14.296 11.792 C 14.296 11.368 14.539 10.982 14.999 10.982 C 15.214 10.982 15.379 11.054 15.486 11.245 L 15.493 11.245 L 15.493 11.026 L 15.92 11.026 L 15.92 12.559 Z  M 17.176 11.862 C 17.1 11.928 16.942 11.931 16.803 11.957 C 16.663 11.985 16.537 12.033 16.537 12.197 C 16.537 12.365 16.667 12.406 16.813 12.406 C 17.164 12.406 17.176 12.128 17.176 12.03 L 17.176 11.862 Z  M 16.138 11.529 C 16.163 11.108 16.54 10.982 16.907 10.982 C 17.234 10.982 17.626 11.054 17.626 11.447 L 17.626 12.299 C 17.626 12.448 17.642 12.596 17.683 12.663 L 17.227 12.663 C 17.21 12.612 17.199 12.558 17.195 12.504 C 17.053 12.653 16.844 12.707 16.645 12.707 C 16.334 12.707 16.087 12.552 16.087 12.217 C 16.087 11.846 16.366 11.757 16.645 11.719 C 16.92 11.678 17.176 11.688 17.176 11.504 C 17.176 11.311 17.044 11.283 16.885 11.283 C 16.714 11.283 16.603 11.352 16.587 11.529 L 16.138 11.529 Z  M 18.313 10.773 L 17.863 10.773 L 17.863 10.402 L 18.313 10.402 L 18.313 10.773 Z  M 17.863 11.026 L 18.313 11.026 L 18.313 12.663 L 17.863 12.663 L 17.863 11.026 Z  M 18.543 11.026 L 18.971 11.026 L 18.971 11.254 L 18.98 11.254 C 19.094 11.07 19.291 10.982 19.48 10.982 C 19.959 10.982 20.079 11.251 20.079 11.656 L 20.079 12.663 L 19.63 12.663 L 19.63 11.738 C 19.63 11.469 19.55 11.336 19.341 11.336 C 19.098 11.336 18.993 11.472 18.993 11.805 L 18.993 12.663 L 18.543 12.663 L 18.543 11.026 Z  M 20.645 12.131 C 20.648 12.327 20.812 12.406 20.99 12.406 C 21.12 12.406 21.284 12.356 21.284 12.197 C 21.284 12.061 21.098 12.014 20.775 11.944 C 20.515 11.887 20.255 11.796 20.255 11.508 C 20.255 11.089 20.617 10.982 20.968 10.982 C 21.326 10.982 21.655 11.102 21.69 11.504 L 21.262 11.504 C 21.25 11.33 21.117 11.283 20.955 11.283 C 20.854 11.283 20.705 11.302 20.705 11.435 C 20.705 11.596 20.959 11.618 21.215 11.678 C 21.478 11.738 21.734 11.834 21.734 12.137 C 21.734 12.568 21.361 12.707 20.987 12.707 C 20.607 12.707 20.237 12.565 20.218 12.131 L 20.645 12.131 Z " fill="rgb(255,255,255)"/><path d=" M 2.633 12.594 L 2.376 12.594 L 2.588 11.598 C 2.632 11.391 2.602 11.257 2.358 11.257 C 2.148 11.257 1.907 11.38 1.825 11.764 L 1.649 12.594 L 1.392 12.594 L 1.837 10.503 L 2.093 10.503 L 1.929 11.275 L 1.935 11.275 C 2.028 11.179 2.188 11.028 2.433 11.028 C 2.669 11.028 2.945 11.123 2.853 11.558 L 2.633 12.594 Z  M 3.556 12.414 C 3.924 12.414 4.08 12.035 4.123 11.831 C 4.166 11.627 4.171 11.249 3.804 11.249 C 3.437 11.249 3.281 11.627 3.237 11.831 C 3.194 12.035 3.189 12.414 3.556 12.414 Z  M 3.851 11.028 C 4.337 11.028 4.471 11.438 4.388 11.831 C 4.304 12.224 3.996 12.635 3.509 12.635 C 3.023 12.635 2.889 12.224 2.972 11.831 C 3.056 11.438 3.365 11.028 3.851 11.028 Z  M 4.727 11.071 L 4.969 11.071 L 4.923 11.287 L 4.929 11.287 C 5.001 11.205 5.17 11.028 5.444 11.028 C 5.718 11.028 5.77 11.193 5.796 11.275 C 5.955 11.132 6.079 11.028 6.315 11.028 C 6.478 11.028 6.769 11.112 6.678 11.54 L 6.454 12.594 L 6.197 12.594 L 6.407 11.61 C 6.451 11.4 6.417 11.257 6.199 11.257 C 5.984 11.257 5.797 11.462 5.754 11.665 L 5.557 12.594 L 5.3 12.594 L 5.525 11.54 C 5.552 11.412 5.535 11.257 5.346 11.257 C 5.2 11.257 4.924 11.351 4.836 11.764 L 4.66 12.594 L 4.403 12.594 L 4.727 11.071 Z  M 7.951 11.712 C 7.987 11.476 7.934 11.257 7.623 11.257 C 7.387 11.257 7.154 11.476 7.104 11.712 L 7.951 11.712 Z  M 8.11 12.117 C 8.086 12.189 7.97 12.405 7.75 12.533 C 7.671 12.579 7.559 12.638 7.315 12.638 C 6.887 12.638 6.702 12.315 6.796 11.875 C 6.896 11.403 7.203 11.028 7.707 11.028 C 8.146 11.028 8.287 11.377 8.173 11.916 L 7.061 11.916 C 6.993 12.233 7.103 12.416 7.397 12.416 C 7.638 12.416 7.821 12.23 7.854 12.117 L 8.11 12.117 Z " fill="rgb(238,52,36)"/></g></g></svg>