<?xml version="1.0" encoding="UTF-8" standalone="no"?><!-- Generator: Gravit.io --><svg xmlns="http://www.w3.org/2000/svg" xmlns:xlink="http://www.w3.org/1999/xlink" style="isolation:isolate" viewBox="0 0 15.063 15.063" width="15.063pt" height="15.063pt"><defs><clipPath id="_clipPath_yqPFS7ZOpzhk1Lq13UkEXKCaRTt6498H"><rect width="15.063" height="15.063"/></clipPath></defs><g clip-path="url(#_clipPath_yqPFS7ZOpzhk1Lq13UkEXKCaRTt6498H)"><g><path d=" M 7.532 0 C 3.374 0 0 3.374 0 7.534 C 0 11.691 3.374 15.063 7.532 15.063 C 11.689 15.063 15.063 11.691 15.063 7.534 C 15.063 3.374 11.689 0 7.532 0 L 7.532 0 Z " fill-rule="evenodd" fill="rgb(180,30,10)"/><path d=" M 7.532 0.477 C 3.636 0.477 0.477 3.636 0.477 7.534 C 0.477 11.426 3.636 14.586 7.532 14.586 C 11.427 14.586 14.586 11.427 14.586 7.534 C 14.586 3.636 11.427 0.477 7.531 0.477 L 7.532 0.477 Z " fill-rule="evenodd" fill="rgb(255,227,0)"/><path d=" M 7.651 7.651 L 7.651 7.17 L 7.093 7.729 L 5.849 6.485 L 4.412 7.923 L 4.412 8.405 L 4.774 8.042 L 5.776 9.047 L 5.406 9.416 L 5.647 9.659 L 7.651 7.651 Z " fill-rule="evenodd" fill="rgb(180,30,10)"/><path d=" M 1.279 8.364 L 1.651 8.364 L 1.651 6.701 L 1.279 6.701 L 1.279 6.222 L 3.497 6.222 L 3.497 6.701 L 3.128 6.701 L 3.128 8.249 L 4.412 7.534 L 4.412 8.845 L 1.279 8.845 L 1.279 8.364 Z " fill-rule="evenodd" fill="rgb(0,50,120)"/><path d=" M 5.665 4.731 C 6.101 4.731 6.455 5.083 6.455 5.519 C 6.455 5.956 6.101 6.309 5.665 6.309 C 5.228 6.309 4.875 5.956 4.875 5.519 C 4.875 5.083 5.228 4.731 5.665 4.731 Z " fill-rule="evenodd" fill="rgb(180,30,10)"/><path d=" M 7.281 6.222 L 7.281 6.701 L 7.651 6.701 L 7.651 8.364 L 7.281 8.364 L 7.281 8.845 L 9.397 8.845 C 10.96 8.845 10.976 6.222 9.397 6.222 L 7.281 6.222 Z  M 8.994 7.036 L 9.083 7.036 C 9.546 7.036 9.546 8.028 9.099 8.026 L 8.994 8.026 L 8.994 7.036 Z " fill-rule="evenodd" fill="rgb(0,50,120)"/><path d=" M 10.634 8.364 L 11.005 8.364 L 11.005 6.701 L 10.634 6.701 L 10.634 6.222 L 12.852 6.222 L 12.852 6.701 L 12.482 6.701 L 12.482 8.249 L 13.767 7.534 L 13.767 8.845 L 10.634 8.845 L 10.634 8.364 Z " fill="rgb(0,50,120)"/></g></g></svg>