<?xml version="1.0" encoding="UTF-8" standalone="no"?>
<svg
   viewBox="0 0 23.900665 22.262341"
   width="23.900665pt"
   height="22.262341pt"
   version="1.1"
   id="svg258"
   xml:space="preserve"
   xmlns="http://www.w3.org/2000/svg"
   xmlns:svg="http://www.w3.org/2000/svg"><defs
     id="defs262" /><path
     d="M 2.4273749,0.13101512 C 1.963816,0.31045283 1.5152086,1.1329024 1.2310918,2.3142318 1.0367036,3.136675 1.0067888,3.8843525 1.0666066,6.0376625 c 0.044855,1.4804003 0.1345846,2.9009866 0.224303,3.1701511 0.1644876,0.5084167 0.014987,0.7177659 -0.91216632,1.3009564 -0.29907035,0.179442 -0.40374493,0.358885 -0.37383794,0.583188 0.05980599,0.463563 0.61309432,0.493468 1.19628326,0.08973 l 0.463561,-0.343931 0.2392562,0.358885 c 0.5532798,0.837399 0.9570245,1.196282 1.4654461,1.286002 0.6430032,0.119636 1.4953532,-0.269162 1.7346117,-0.792535 0.1794368,-0.403746 0.2990701,-0.433654 0.5682332,-0.104672 0.553282,0.672909 2.0934974,1.076654 3.1551994,0.807491 1.4803978,-0.373839 2.3477038,-1.585077 2.3626578,-3.3047341 0,-0.9121658 0.0299,-1.0018868 0.343932,-1.0916077 0.523373,-0.1345846 0.55328,-0.1196332 0.403744,0.2990701 -0.418698,1.0916075 0,2.6318257 0.942076,3.4542687 1.001884,0.882258 2.07854,1.001886 3.289776,0.358885 l 0.822445,-0.433652 0.388791,0.388793 c 0.299072,0.314024 0.538329,0.403744 1.076658,0.403744 l 0.68786,0.01503 0.07477,2.691638 c 0.119636,5.44309 0.523373,7.087978 1.704704,7.087978 0.55328,0 1.091609,-0.508421 1.525262,-1.465449 0.284116,-0.613093 0.328977,-0.957025 0.328977,-2.646774 0,-2.168263 -0.269164,-3.364548 -1.166379,-5.084202 -0.26916,-0.49347 -0.493463,-0.942074 -0.523373,-1.001889 -0.0299,-0.04487 0.343932,-0.209368 0.822445,-0.343932 1.121518,-0.328977 1.988822,-0.777583 1.988822,-1.031794 0,-0.299072 -0.403744,-0.583191 -0.702817,-0.49347 -0.149538,0.04487 -0.657957,0.224308 -1.151422,0.403747 -0.942074,0.343934 -1.166377,0.314026 -0.807492,-0.104672 0.388793,-0.448606 0.837399,-1.450493 1.166375,-2.6019143 0.553283,-1.9738685 0.388795,-5.6374851 -0.29907,-7.02816358 -0.538327,-1.04674789 -1.555167,-1.04674789 -2.093494,0 C 19.48937,1.910583 19.369742,2.9872378 19.280021,7.1592743 l -0.08973,4.1122247 -0.418698,0.134575 c -0.957027,0.343929 -1.420587,-1.181333 -1.136469,-3.7982014 0.119636,-1.1663768 0.104672,-1.43554 -0.07475,-1.6149821 -0.269163,-0.2691631 -0.687861,-0.1196331 -0.792536,0.2691633 -0.08973,0.3588841 -0.01503,0.3588841 -0.717772,0 C 15.212669,5.8283502 14.644434,5.8881642 12.565892,6.5760259 L 10.74156,7.1891226 10.203233,6.7106075 C 9.4854631,6.08256 9.0368571,5.9330248 8.0200167,5.9330248 6.1059621,5.9480195 4.7750978,7.3386577 4.6853766,9.417198 4.6105982,10.912555 4.057327,11.779859 3.4292774,11.391068 3.2946935,11.31629 3.0404861,10.987321 2.8759975,10.688249 L 2.5619717,10.134969 3.1750677,9.2078489 C 3.9077918,8.1012889 4.2666761,7.0694944 4.4909787,5.4096498 4.790049,3.1217583 4.2218155,0.56470392 3.3246028,0.16095899 2.8909509,-0.04838147 2.8610418,-0.04838147 2.4273899,0.13105647 Z M 3.3993552,2.43386 C 3.7432859,4.3778184 3.4890852,6.4414072 2.726445,7.9218098 L 2.3227003,8.7292976 2.1881164,8.2806939 C 2.1133598,8.0264844 2.0385814,6.7853401 2.02363,5.5142875 2.0086352,3.66005 2.0535327,3.0170468 2.2778397,2.2992784 2.7713077,0.66934138 3.100285,0.71420198 3.3993552,2.43386 Z M 21.448279,2.030113 c 0.328978,1.106562 0.373837,4.1122241 0.07475,5.2786006 -0.224308,0.9121664 -1.031794,2.6916374 -1.226192,2.6916374 -0.104672,0 -0.07477,-2.0037736 0.08973,-5.7571141 0.05981,-1.4953532 0.403744,-3.0654739 0.672909,-3.0654739 0.07477,0 0.25421,0.3887913 0.388795,0.85235 z M 9.0218868,7.1143181 c 0.2841161,0.1345846 0.5233729,0.2990701 0.5233729,0.3588841 0,0.1495361 -1.1962819,0.2841188 -1.6747956,0.1794391 C 7.6461611,7.6077861 7.3769975,7.4732022 7.2872766,7.3685213 7.1526929,7.2040348 7.1975467,7.1292651 7.4667143,7.0245906 8.0050417,6.8002871 8.4386915,6.8302014 9.0218821,7.1143202 Z m 6.8038592,0.1943883 c 0.179441,0.1794391 0.29907,0.493468 0.29907,0.8074917 0,0.2691634 0.104672,0.5831871 0.224307,0.6878617 0.29907,0.2542107 0.29907,1.4804002 -0.01503,1.9140522 -0.508422,0.732727 -1.495357,0.95703 -2.392569,0.538332 -1.914052,-0.912168 -1.196284,-4.2468078 0.92712,-4.2468078 0.46356,0 0.747678,0.08973 0.957027,0.2990702 z M 6.4498778,7.9666615 C 6.6442661,8.4750834 7.4517651,8.6993852 8.8274915,8.6096656 10.023773,8.5349199 10.143402,8.5498596 10.218168,8.8190054 10.457428,9.5816375 9.8742396,10.792873 9.066746,11.211574 8.3639317,11.570457 7.7059742,11.570457 6.8984831,11.19654 5.7769677,10.688158 5.3881763,9.6115017 5.8965956,8.3554073 6.1508075,7.7273577 6.3152939,7.6077295 6.4498778,7.9666138 Z M 20.90995,13.94808 c 1.061702,2.33275 1.271051,5.36832 0.478514,6.729092 -0.403745,0.687863 -0.583188,0.62805 -0.762632,-0.224308 -0.209345,-0.927119 -0.46356,-4.456154 -0.46356,-6.310394 0,-1.540213 0.134575,-1.570121 0.747678,-0.194381 z"
     id="path378"
     style="fill:#000000;stroke:none;stroke-width:0.0149536" /></svg>
