<?xml version="1.0" encoding="UTF-8" standalone="no"?><!-- Generator: Gravit.io --><svg xmlns="http://www.w3.org/2000/svg" xmlns:xlink="http://www.w3.org/1999/xlink" style="isolation:isolate" viewBox="0 0 24 24" width="24pt" height="24pt"><defs><clipPath id="_clipPath_H6ckgRwEhT4owS28GcSgefvkXySmHdhX"><rect width="24" height="24"/></clipPath></defs><g clip-path="url(#_clipPath_H6ckgRwEhT4owS28GcSgefvkXySmHdhX)"><clipPath id="_clipPath_8pB9JdrzvmHML2m1K2hqNwNKyUc8rwAk"><rect x="0" y="0" width="24" height="24" transform="matrix(1,0,0,1,0,0)" fill="rgb(255,255,255)"/></clipPath><g clip-path="url(#_clipPath_8pB9JdrzvmHML2m1K2hqNwNKyUc8rwAk)"><g><circle vector-effect="non-scaling-stroke" cx="11.999999999999998" cy="12" r="11.628482972136222" fill="rgb(0,0,0)"/></g></g><clipPath id="_clipPath_AwlrUGdOGkOeB6q5UTuR76lkXKhAC8IX"><rect x="3.318" y="6.212" width="17.363" height="11.576" transform="matrix(1,0,0,1,0,0)" fill="rgb(255,255,255)"/></clipPath><g clip-path="url(#_clipPath_AwlrUGdOGkOeB6q5UTuR76lkXKhAC8IX)"><g><clipPath id="_clipPath_xk9MuqviWBLqekk15uQh7B3XKZm0lxf1"><path d=" M 3.318 6.212 L 20.682 6.212 L 20.682 17.788 L 3.318 17.788 L 3.318 6.212 Z " fill="rgb(255,255,255)"/></clipPath><g clip-path="url(#_clipPath_xk9MuqviWBLqekk15uQh7B3XKZm0lxf1)"><g><path d=" M 18.456 9.041 L 18.069 9.181 C 17.916 8.694 17.482 8.381 16.895 8.381 C 16.255 8.381 15.835 8.701 15.835 9.242 C 15.835 10.403 18.489 9.789 18.489 11.422 C 18.489 12.202 17.862 12.75 16.928 12.75 C 16.062 12.75 15.541 12.336 15.181 11.676 L 15.541 11.456 C 15.781 11.962 16.222 12.357 16.889 12.357 C 17.662 12.357 18.063 12.002 18.063 11.416 C 18.063 10.248 15.407 10.822 15.407 9.235 C 15.407 8.294 16.255 7.989 16.882 7.989 C 17.589 7.989 18.229 8.308 18.456 9.041 Z  M 11.927 9.055 C 11.927 9.316 12.099 9.535 12.48 9.942 C 12.927 9.682 13.173 9.409 13.173 9.055 C 13.173 8.708 12.939 8.435 12.54 8.435 C 12.167 8.435 11.927 8.728 11.927 9.055 Z  M 12.374 10.435 C 11.767 10.769 11.5 11.036 11.5 11.45 C 11.5 11.923 11.927 12.316 12.473 12.316 C 12.966 12.316 13.22 12.089 13.494 11.649 L 12.374 10.435 Z  M 14.534 12.77 L 13.761 11.943 C 13.481 12.383 13.1 12.703 12.473 12.703 C 11.666 12.703 11.073 12.143 11.073 11.456 C 11.073 10.882 11.426 10.529 12.106 10.142 C 11.719 9.756 11.506 9.434 11.506 9.055 C 11.506 8.501 11.973 8.061 12.54 8.061 C 13.14 8.061 13.587 8.501 13.587 9.055 C 13.587 9.588 13.167 9.949 12.746 10.221 L 13.707 11.27 L 14.274 10.349 L 14.614 10.563 L 13.988 11.582 L 14.847 12.496 L 14.534 12.77 Z  M 10.006 8.048 L 10.006 12.703 L 9.579 12.703 L 9.579 8.901 L 8.045 11.877 L 7.745 11.877 L 6.211 8.907 L 6.211 12.703 L 5.784 12.703 L 5.784 8.048 L 6.231 8.048 L 7.898 11.263 L 9.566 8.048 L 10.006 8.048 Z " fill="rgb(255,255,255)"/><path d=" M 8.822 14.284 L 8.822 14.682 L 9.5 14.682 L 9.5 14.955 L 8.822 14.955 L 8.822 15.588 L 8.529 15.588 L 8.529 14.011 L 9.556 14.011 L 9.556 14.284 L 8.822 14.284 Z " fill="rgb(255,255,255)"/><path d=" M 5.784 14.682 L 7.656 14.682 L 7.656 14.955 L 5.784 14.955 L 5.784 14.682 Z " fill="rgb(255,255,255)"/><path d=" M 16.278 14.682 L 18.15 14.682 L 18.15 14.955 L 16.278 14.955 L 16.278 14.682 Z " fill="rgb(255,255,255)"/><path d=" M 10.495 14.327 C 10.419 14.375 10.359 14.44 10.315 14.523 C 10.272 14.605 10.25 14.696 10.25 14.795 C 10.25 14.897 10.272 14.99 10.315 15.073 C 10.359 15.157 10.419 15.223 10.498 15.272 C 10.576 15.32 10.663 15.345 10.759 15.345 C 10.854 15.345 10.939 15.321 11.016 15.273 C 11.092 15.225 11.152 15.159 11.196 15.077 C 11.239 14.994 11.261 14.903 11.261 14.802 C 11.261 14.701 11.239 14.609 11.196 14.525 C 11.152 14.441 11.092 14.375 11.015 14.327 C 10.937 14.278 10.85 14.254 10.754 14.254 C 10.658 14.254 10.572 14.278 10.495 14.327 Z  M 11.178 14.092 C 11.301 14.164 11.397 14.262 11.466 14.386 C 11.535 14.51 11.57 14.646 11.57 14.795 C 11.57 14.945 11.535 15.083 11.465 15.208 C 11.395 15.334 11.298 15.433 11.175 15.506 C 11.051 15.579 10.911 15.615 10.754 15.615 C 10.597 15.615 10.456 15.579 10.333 15.506 C 10.21 15.433 10.114 15.335 10.045 15.211 C 9.976 15.087 9.941 14.951 9.941 14.802 C 9.941 14.652 9.976 14.514 10.046 14.39 C 10.116 14.265 10.213 14.166 10.337 14.093 C 10.46 14.02 10.601 13.984 10.759 13.984 C 10.915 13.984 11.055 14.02 11.178 14.092 Z " fill="rgb(255,255,255)"/><path d=" M 12.541 14.327 C 12.464 14.375 12.404 14.44 12.361 14.523 C 12.317 14.605 12.295 14.696 12.295 14.795 C 12.295 14.897 12.317 14.99 12.361 15.073 C 12.404 15.157 12.465 15.223 12.543 15.272 C 12.621 15.32 12.708 15.345 12.804 15.345 C 12.899 15.345 12.985 15.321 13.061 15.273 C 13.138 15.225 13.198 15.159 13.241 15.077 C 13.285 14.994 13.307 14.903 13.307 14.802 C 13.307 14.701 13.285 14.609 13.241 14.525 C 13.198 14.441 13.137 14.375 13.06 14.327 C 12.983 14.278 12.896 14.254 12.8 14.254 C 12.704 14.254 12.618 14.278 12.541 14.327 Z  M 13.223 14.092 C 13.346 14.164 13.443 14.262 13.512 14.386 C 13.581 14.51 13.615 14.646 13.615 14.795 C 13.615 14.945 13.581 15.083 13.511 15.208 C 13.441 15.334 13.344 15.433 13.22 15.506 C 13.096 15.579 12.956 15.615 12.8 15.615 C 12.642 15.615 12.502 15.579 12.379 15.506 C 12.255 15.433 12.159 15.335 12.09 15.211 C 12.021 15.087 11.987 14.951 11.987 14.802 C 11.987 14.652 12.022 14.514 12.091 14.39 C 12.161 14.265 12.258 14.166 12.382 14.093 C 12.506 14.02 12.647 13.984 12.804 13.984 C 12.961 13.984 13.1 14.02 13.223 14.092 Z " fill="rgb(255,255,255)"/><path d=" M 14.979 15.249 C 15.064 15.205 15.129 15.144 15.174 15.065 C 15.219 14.987 15.242 14.899 15.242 14.8 C 15.242 14.699 15.219 14.61 15.174 14.532 C 15.129 14.453 15.064 14.393 14.978 14.349 C 14.893 14.306 14.792 14.284 14.676 14.284 L 14.406 14.284 L 14.406 15.315 L 14.676 15.315 C 14.794 15.315 14.895 15.293 14.979 15.249 Z  M 15.136 14.114 C 15.268 14.182 15.37 14.276 15.442 14.396 C 15.514 14.517 15.551 14.651 15.551 14.8 C 15.551 14.947 15.514 15.08 15.442 15.201 C 15.37 15.321 15.268 15.415 15.136 15.484 C 15.004 15.554 14.851 15.588 14.676 15.588 L 14.113 15.588 L 14.113 14.011 L 14.676 14.011 C 14.851 14.011 15.004 14.045 15.136 14.114 Z " fill="rgb(255,255,255)"/></g></g></g></g></g></svg>