<?xml version="1.0" encoding="UTF-8" standalone="no"?><!-- Generator: Gravit.io --><svg xmlns="http://www.w3.org/2000/svg" xmlns:xlink="http://www.w3.org/1999/xlink" style="isolation:isolate" viewBox="0 0 100 50" width="100pt" height="50pt"><defs><clipPath id="_clipPath_6hi2PAiD5ewueiVGt78WVTpz2Zff411M"><rect width="100" height="50"/></clipPath></defs><g clip-path="url(#_clipPath_6hi2PAiD5ewueiVGt78WVTpz2Zff411M)"><g><clipPath id="_clipPath_fdPvACvIlygJ3LqEcS7NNQldPOriTbib"><rect x="-11" y="-21.3" width="118" height="99.3" transform="matrix(1,0,0,1,0,0)" fill="rgb(255,255,255)"/></clipPath><g clip-path="url(#_clipPath_fdPvACvIlygJ3LqEcS7NNQldPOriTbib)"><g><clipPath id="_clipPath_LpQM4At3Qt2nvdlsvVv4LW5RN931d41O"><path d=" M -8.774 -16.688 L 109.226 -16.688 L 109.226 82.612 L -8.774 82.612 L -8.774 -16.688 Z " fill="rgb(255,255,255)"/></clipPath><g clip-path="url(#_clipPath_LpQM4At3Qt2nvdlsvVv4LW5RN931d41O)"><g><path d=" M 95.759 15.274 L 92.958 16.292 C 91.846 12.752 88.708 10.472 84.458 10.472 C 79.822 10.472 76.779 12.8 76.779 16.73 C 76.779 25.171 96 20.707 96 32.591 C 96 38.267 91.459 42.246 84.699 42.246 C 78.421 42.246 74.655 39.238 72.047 34.436 L 74.655 32.835 C 76.393 36.521 79.58 39.384 84.409 39.384 C 90.01 39.384 92.909 36.813 92.909 32.543 C 92.909 24.054 73.689 28.227 73.689 16.68 C 73.689 9.84 79.822 7.609 84.361 7.609 C 89.48 7.609 94.117 9.937 95.759 15.274 Z  M 48.479 15.371 C 48.479 17.263 49.733 18.864 52.487 21.824 C 55.722 19.93 57.51 17.941 57.51 15.371 C 57.51 12.848 55.82 10.858 52.92 10.858 C 50.218 10.858 48.479 12.995 48.479 15.371 Z  M 51.714 25.413 C 47.32 27.838 45.388 29.779 45.388 32.787 C 45.388 36.231 48.479 39.094 52.439 39.094 C 56.014 39.094 57.848 37.442 59.827 34.242 L 51.714 25.413 Z  M 67.362 42.391 L 61.76 36.376 C 59.732 39.578 56.978 41.906 52.439 41.906 C 46.595 41.906 42.297 37.831 42.297 32.835 C 42.297 28.663 44.857 26.092 49.782 23.278 C 46.983 20.465 45.436 18.136 45.436 15.371 C 45.436 11.345 48.816 8.144 52.92 8.144 C 57.268 8.144 60.503 11.345 60.503 15.371 C 60.503 19.253 57.462 21.87 54.418 23.862 L 61.373 31.476 L 65.477 24.782 L 67.941 26.334 L 63.401 33.757 L 69.633 40.402 L 67.362 42.391 Z  M 34.57 8.047 L 34.57 41.906 L 31.48 41.906 L 31.48 14.257 L 20.372 35.892 L 18.198 35.892 L 7.091 14.304 L 7.091 41.906 L 4 41.906 L 4 8.047 L 7.236 8.047 L 19.31 31.428 L 31.383 8.047 L 34.57 8.047 Z " fill="rgb(44,46,53)"/></g></g></g></g></g></g></svg>