<?xml version="1.0" encoding="UTF-8" standalone="no"?>
<svg
   version="1.1"
   id="Layer_1"
   x="0"
   y="0"
   viewBox="0 0 1645.2599 481.11001"
   xml:space="preserve"
   sodipodi:docname="pepco_logo.svg"
   inkscape:version="1.2.2 (b0a8486541, 2022-12-01)"
   inkscape:export-filename="pepco_logo.svg"
   inkscape:export-xdpi="96"
   inkscape:export-ydpi="96"
   width="1645.26"
   height="481.10999"
   xmlns:inkscape="http://www.inkscape.org/namespaces/inkscape"
   xmlns:sodipodi="http://sodipodi.sourceforge.net/DTD/sodipodi-0.dtd"
   xmlns:xlink="http://www.w3.org/1999/xlink"
   xmlns="http://www.w3.org/2000/svg"
   xmlns:svg="http://www.w3.org/2000/svg"><sodipodi:namedview
     id="namedview43"
     pagecolor="#ffffff"
     bordercolor="#666666"
     borderopacity="1.0"
     inkscape:showpageshadow="2"
     inkscape:pageopacity="0.0"
     inkscape:pagecheckerboard="0"
     inkscape:deskcolor="#d1d1d1"
     showgrid="false"
     inkscape:zoom="0.1767767"
     inkscape:cx="698.6215"
     inkscape:cy="302.6417"
     inkscape:window-width="1920"
     inkscape:window-height="1011"
     inkscape:window-x="0"
     inkscape:window-y="0"
     inkscape:window-maximized="1"
     inkscape:current-layer="Layer_1" /><style
     id="style2">.st3{fill:#fff}</style><path
     fill="#0078e3"
     d="M 0,0 H 1645.26 V 481.11 H 0 Z"
     id="path4" /><defs
     id="defs7"><path
       id="SVGID_1_"
       d="M 0,0.21 H 1645.26 V 481.32 H 0 Z" /></defs><clipPath
     id="SVGID_2_"><use
       xlink:href="#SVGID_1_"
       overflow="visible"
       id="use9" /></clipPath><radialGradient
     id="SVGID_3_"
     cx="894.39001"
     cy="100.73"
     r="597.271"
     gradientTransform="matrix(1.4267,0,0,0.6231,-450.48,-148.254)"
     gradientUnits="userSpaceOnUse"><stop
       offset="0"
       stop-color="#009ee2"
       id="stop12" /><stop
       offset=".539"
       stop-color="#008be2"
       stop-opacity=".46"
       id="stop14" /><stop
       offset="1"
       stop-color="#0078e3"
       stop-opacity="0"
       id="stop16" /></radialGradient><ellipse
     cx="825.53003"
     cy="-85.489998"
     rx="1152.21"
     ry="513.95001"
     clip-path="url(#SVGID_2_)"
     fill="url(#SVGID_3_)"
     id="ellipse19"
     style="fill:url(#SVGID_3_)"
     transform="translate(0,-0.21)" /><radialGradient
     id="SVGID_4_"
     cx="1680.397"
     cy="175.10699"
     r="773.17297"
     gradientTransform="matrix(1.0337,0,0,0.9346,-26.557,69.935)"
     gradientUnits="userSpaceOnUse"><stop
       offset="0"
       stop-color="#e30567"
       id="stop21" /><stop
       offset=".093"
       stop-color="#db096c"
       stop-opacity=".907"
       id="stop23" /><stop
       offset=".237"
       stop-color="#c51478"
       stop-opacity=".763"
       id="stop25" /><stop
       offset=".413"
       stop-color="#a2268b"
       stop-opacity=".586"
       id="stop27" /><stop
       offset=".616"
       stop-color="#703fa6"
       stop-opacity=".384"
       id="stop29" /><stop
       offset=".837"
       stop-color="#325ec8"
       stop-opacity=".163"
       id="stop31" /><stop
       offset="1"
       stop-color="#0078e3"
       stop-opacity="0"
       id="stop33" /></radialGradient><ellipse
     cx="1710.42"
     cy="233.60001"
     rx="1080.66"
     ry="830.53003"
     opacity="0.9"
     clip-path="url(#SVGID_2_)"
     fill="url(#SVGID_4_)"
     id="ellipse36"
     style="fill:url(#SVGID_4_)"
     transform="translate(0,-0.21)" /><path
     class="st3"
     d="m 1207.39,234.27 c 0,-64.01 50.6,-113.73 113.73,-113.73 63.13,0 114.17,49.72 114.17,113.73 0,63.98 -51.04,113.73 -114.17,113.73 -63.14,-0.01 -113.73,-49.76 -113.73,-113.73 z m 190.27,0 c 0,-43.7 -33.29,-76.97 -76.55,-76.97 -42.8,0 -76.11,33.27 -76.11,76.97 0,43.66 33.31,76.97 76.11,76.97 43.26,0 76.55,-33.31 76.55,-76.97 z m -423.47003,0 c 0,-64.01 48.43003,-113.73 113.73003,-113.73 42.81,0 79.13,22.46 95.58,56.65 l -31.57,18.13 c -10.83,-22.92 -35.03,-38.03 -64.01,-38.03 -43.24,0 -76.11,33.27 -76.11,76.97 0,43.24 32.87,76.51 76.11,76.51 29.42,0 53.18,-15.1 65.3,-37.6 l 32.01,18.59 c -18.17,33.73 -54.93,56.23 -97.3,56.23 -65.31,0 -113.74003,-49.75 -113.74003,-113.72 z m -33.01,0 C 941.17997,298.25 891.89,348 831.77,348 795.03,348 767.35,331.56 750.05,305.19 V 407.96 H 712.43 V 126.14 h 37.62 v 37.22 c 17.31,-26.41 44.98,-42.81 81.72,-42.81 60.12,-0.01 109.40997,49.71 109.40997,113.72 z m -37.61997,0 c 0,-44.12 -33.31,-77.43 -76.55,-77.43 -43.68,0 -76.97,33.31 -76.97,77.43 0,44.08 33.29,77.39 76.97,77.39 43.24,0 76.55,-33.31 76.55,-77.39 z m -338.72,78.27 c 29.84,0 51.46,-13.84 62.27,-31.58 l 32.01,18.17 c -19.03,29.4 -51.9,48.87 -95.14,48.87 -69.61,0 -115.89,-48.87 -115.89,-113.73 0,-64.01 45.84,-113.73 113.3,-113.73 65.3,0 107.67,53.62 107.67,114.15 0,5.63 -0.44,11.23 -1.3,16.87 H 486.57 c 7.36,38.9 38.07,60.98 78.27,60.98 z M 486.57,218.7 H 631 c -6.48,-42.81 -37.18,-62.71 -69.61,-62.71 -40.65,0.01 -68.76,25.08 -74.82,62.71 z m -71.49,15.57 c 0,63.98 -49.29,113.73 -109.41,113.73 -36.74,0 -64.42,-16.44 -81.72,-42.81 V 407.96 H 186.33 V 126.14 h 37.62 v 37.22 c 17.31,-26.41 44.98,-42.81 81.72,-42.81 60.12,-0.01 109.41,49.71 109.41,113.72 z m -37.62,0 c 0,-44.12 -33.31,-77.43 -76.55,-77.43 -43.68,0 -76.97,33.31 -76.97,77.43 0,44.08 33.29,77.39 76.97,77.39 43.24,0 76.55,-33.31 76.55,-77.39 z m 1096.37,-83.82 25.03,25.03 25.03,-25.03 c 3.29,-3.3 5.1,-7.68 5.1,-12.33 0,-9.62 -7.83,-17.45 -17.45,-17.45 -4.66,0 -9.03,1.81 -12.33,5.1 l -0.35,0.35 -0.35,-0.35 c -3.3,-3.29 -7.68,-5.1 -12.33,-5.1 -9.62,0 -17.45,7.83 -17.45,17.45 0,4.65 1.81,9.03 5.1,12.33 z m 12.35,-20.53 c 2.19,0 4.25,0.85 5.79,2.4 l 6.69,6.67 0.2,0.19 0.2,-0.19 6.68,-6.67 a 8.14,8.14 0 0 1 5.79,-2.4 c 4.52,0 8.2,3.68 8.2,8.2 0,2.19 -0.85,4.25 -2.4,5.79 l -18.48,18.49 -18.48,-18.49 a 8.14,8.14 0 0 1 -2.4,-5.79 c 0.01,-4.52 3.69,-8.2 8.21,-8.2 z"
     id="path38" /><path
     class="st3"
     d="m 1498.86,91.039998 c -14.22,0 -27.59,5.54 -37.64,15.590002 -10.05,10.06 -15.59,23.42 -15.59,37.64 0,14.22 5.54,27.59 15.59,37.64 10.05,10.06 23.42,15.59 37.64,15.59 14.22,0 27.59,-5.54 37.64,-15.59 10.05,-10.06 15.59,-23.42 15.59,-37.64 0,-14.22 -5.54,-27.59 -15.59,-37.64 -10.05,-10.050002 -23.42,-15.590002 -37.64,-15.590002 z M 1529.75,175.17 c -8.25,8.25 -19.22,12.8 -30.89,12.8 -11.67,0 -22.64,-4.54 -30.89,-12.8 -8.25,-8.25 -12.8,-19.22 -12.8,-30.89 0,-11.67 4.54,-22.64 12.8,-30.89 8.25,-8.25 19.22,-12.8 30.89,-12.8 11.67,0 22.64,4.54 30.89,12.8 8.25,8.25 12.8,19.22 12.8,30.89 0,11.67 -4.55,22.64 -12.8,30.89 z"
     id="path40" /></svg>
