<?xml version="1.0" standalone="no"?>
<!DOCTYPE svg PUBLIC "-//W3C//DTD SVG 20010904//EN"
 "http://www.w3.org/TR/2001/REC-SVG-20010904/DTD/svg10.dtd">
<svg version="1.0" xmlns="http://www.w3.org/2000/svg"
 width="400.000000pt" height="400.000000pt" viewBox="0 0 400.000000 400.000000"
 preserveAspectRatio="xMidYMid meet">

<g transform="translate(0.000000,400.000000) scale(0.100000,-0.100000)"
fill="#000000" stroke="none">
<path d="M1841 3990 c-691 -61 -1311 -481 -1620 -1098 -151 -301 -215 -573
-215 -907 1 -324 64 -596 206 -880 197 -397 496 -695 894 -894 626 -312 1378
-269 1967 113 491 317 808 810 903 1401 24 147 24 430 0 575 -61 377 -197 682
-434 977 -71 88 -250 266 -266 265 -3 -1 -20 13 -38 30 -97 91 -374 245 -553
308 -263 92 -580 134 -844 110z m1234 -689 c9 -39 14 -74 11 -80 -3 -5 -24
-12 -47 -16 -22 -4 -43 -13 -45 -20 -3 -8 8 -67 25 -132 17 -65 59 -229 94
-364 l64 -247 -71 -20 c-39 -10 -74 -17 -77 -13 -7 7 -189 710 -189 730 0 9
-7 11 -22 7 -13 -3 -39 -9 -59 -12 l-35 -6 -17 61 c-9 33 -17 67 -17 74 0 10
56 29 173 59 94 25 177 46 183 47 7 0 20 -30 29 -68z m-461 -122 c10 -39 16
-73 13 -75 -3 -3 -38 -14 -77 -24 -39 -10 -74 -20 -76 -23 -2 -2 3 -26 11 -54
l15 -51 53 14 c28 7 57 14 63 14 10 0 44 -108 44 -138 0 -5 -25 -15 -55 -22
-31 -7 -58 -17 -60 -20 -4 -7 74 -329 82 -339 1 -2 38 5 80 17 42 12 79 20 80
18 6 -5 42 -141 39 -144 -6 -5 -308 -83 -311 -80 -5 7 -232 893 -230 896 3 4
282 78 300 81 6 0 19 -31 29 -70z m-441 -91 c71 -250 217 -842 211 -848 -10
-9 -134 -43 -139 -38 -1 2 -22 79 -46 172 -39 153 -46 172 -76 199 -48 44 -73
60 -73 47 0 -6 25 -108 56 -226 30 -119 54 -217 52 -218 -8 -7 -141 -36 -145
-33 -3 4 -181 680 -228 870 -13 51 23 30 160 -93 73 -66 136 -120 138 -120 3
0 -12 66 -33 147 -22 81 -37 149 -35 151 2 2 34 12 72 22 37 10 69 19 70 19 1
1 8 -23 16 -51z m-622 -273 c51 -88 107 -185 124 -215 18 -30 87 -149 154
-264 67 -115 120 -211 117 -213 -2 -3 -36 -13 -75 -23 l-72 -18 -19 39 c-23
45 -28 45 -125 21 l-70 -18 -3 -50 -3 -50 -67 -17 c-37 -9 -71 -17 -76 -17 -5
0 -6 56 -3 133 4 72 7 289 7 480 1 304 4 387 15 375 2 -2 45 -75 96 -163z
m-425 -340 c52 -198 96 -365 99 -372 3 -9 16 -9 56 3 28 8 56 13 63 11 7 -3
18 -31 25 -63 8 -33 15 -64 17 -69 4 -10 -261 -84 -270 -75 -4 5 -222 840
-228 875 -2 16 7 22 57 37 33 9 66 16 74 15 9 -1 43 -115 107 -362z m-373 251
c86 -36 149 -149 150 -271 1 -116 -41 -173 -153 -210 -30 -10 -56 -18 -57 -19
-1 -1 21 -93 51 -204 l53 -202 -41 -11 c-23 -6 -56 -14 -75 -19 -19 -5 -35 -8
-36 -7 -2 4 -228 881 -229 891 -2 13 200 64 257 65 26 1 62 -5 80 -13z m2768
-365 c43 -27 89 -74 89 -92 0 -5 -25 -27 -56 -50 l-56 -41 -22 21 c-27 26 -72
27 -84 4 -56 -106 34 -475 137 -567 31 -28 72 -12 85 32 l9 33 66 -6 c36 -4
69 -10 74 -14 4 -4 3 -30 -3 -57 -28 -132 -135 -202 -244 -160 -156 60 -295
384 -284 661 5 125 32 193 91 236 57 41 134 41 198 0z m-461 -67 c0 -3 22 -90
49 -192 111 -424 181 -699 181 -708 0 -10 -138 -50 -145 -42 -9 8 -238 899
-233 904 5 5 124 42 141 43 4 1 7 -2 7 -5z m-227 -121 c50 -182 218 -845 215
-848 -1 -1 -35 -12 -74 -23 l-72 -20 -37 142 c-20 77 -41 158 -46 178 -6 25
-25 49 -60 78 -27 24 -52 41 -54 38 -3 -2 22 -106 54 -230 l58 -226 -71 -20
c-39 -10 -74 -17 -78 -13 -3 3 -25 78 -48 166 -22 88 -75 289 -116 447 -40
157 -74 289 -74 292 0 21 43 -9 168 -120 78 -69 142 -121 142 -117 0 4 -16 68
-35 142 -19 74 -35 140 -35 146 0 12 86 42 126 44 18 1 24 -9 37 -56z m-621
-253 c149 -257 305 -524 355 -608 30 -52 53 -96 50 -98 -3 -3 -27 -11 -53 -18
-27 -7 -59 -16 -71 -20 -18 -6 -25 0 -44 34 -26 46 -29 46 -124 22 l-70 -18
-3 -51 -3 -51 -64 -16 c-35 -9 -69 -16 -75 -16 -12 0 -13 245 -3 703 l6 307
22 -37 c12 -21 46 -81 77 -133z m-457 1 c49 -23 120 -94 112 -114 -3 -7 -27
-30 -55 -49 l-49 -36 -26 25 c-19 19 -31 24 -50 19 -51 -12 -60 -105 -27 -268
34 -166 103 -311 155 -324 55 -14 79 44 68 163 l-6 64 -35 -3 -36 -3 -18 69
c-10 38 -17 70 -15 71 15 10 203 53 208 47 4 -4 15 -41 25 -82 14 -54 19 -111
19 -205 0 -122 -2 -133 -28 -187 -34 -69 -73 -100 -138 -106 -117 -11 -228
104 -302 314 -57 160 -75 370 -42 481 36 121 135 173 240 124z m-437 -140 c71
-36 122 -129 122 -221 0 -44 -26 -124 -46 -141 -12 -10 -9 -17 15 -44 27 -32
77 -117 185 -317 26 -48 46 -91 45 -95 -1 -8 -111 -42 -136 -43 -7 0 -53 81
-104 180 -68 136 -98 184 -118 195 -53 27 -52 10 4 -205 30 -113 51 -208 47
-212 -12 -11 -134 -40 -141 -33 -7 8 -240 899 -236 903 2 2 52 17 112 33 123
32 187 32 251 0z m-555 -114 c88 -37 193 -207 243 -393 34 -127 40 -319 11
-400 -28 -79 -94 -134 -163 -134 -137 0 -270 187 -330 464 -19 87 -23 266 -6
322 37 124 141 184 245 141z"/>
<path d="M1584 2434 c3 -9 6 -47 6 -86 l0 -70 33 7 c17 4 36 11 40 15 10 8
-63 150 -77 150 -4 0 -5 -7 -2 -16z"/>
<path d="M635 2583 c-11 -3 -23 -8 -27 -11 -6 -7 36 -179 46 -190 13 -12 81
25 90 49 27 77 -39 168 -109 152z"/>
<path d="M2250 1462 c0 -51 3 -92 8 -92 15 0 82 21 82 26 0 5 -79 146 -86 153
-2 2 -4 -37 -4 -87z"/>
<path d="M1153 1652 c-17 -11 28 -176 49 -180 55 -11 105 57 88 118 -15 51
-37 70 -84 70 -23 0 -46 -4 -53 -8z"/>
<path d="M669 1494 c-35 -43 -13 -264 40 -404 33 -89 82 -163 115 -175 24 -8
31 -6 47 14 29 35 26 170 -6 296 -53 211 -143 333 -196 269z"/>
</g>
</svg>
