<?xml version="1.0" encoding="UTF-8" standalone="no"?><!-- Generator: Gravit.io --><svg xmlns="http://www.w3.org/2000/svg" xmlns:xlink="http://www.w3.org/1999/xlink" style="isolation:isolate" viewBox="0 0 24 24" width="24pt" height="24pt"><defs><clipPath id="_clipPath_tpIKRPvN7TK18uXJgfEuIWwSSjwp2l6K"><rect width="24" height="24"/></clipPath></defs><g clip-path="url(#_clipPath_tpIKRPvN7TK18uXJgfEuIWwSSjwp2l6K)"><clipPath id="_clipPath_LrQiPWzTbWTt7ubujGME70NmqIcu3KhZ"><rect x="-1" y="-2" width="24" height="25" transform="matrix(1,0,0,1,0,0)" fill="rgb(255,255,255)"/></clipPath><g clip-path="url(#_clipPath_LrQiPWzTbWTt7ubujGME70NmqIcu3KhZ)"><g><g><ellipse vector-effect="non-scaling-stroke" cx="11.595833333333344" cy="11.854582125276448" rx="11.020833333333336" ry="10.786498583821505" fill="rgb(235,235,235)"/><path d=" M 10.634 0.478 C 10.047 0.553 8.945 0.746 8.684 0.821 C 8.512 0.868 8.251 0.943 8.107 0.986 C 7.454 1.165 6.448 1.607 5.721 2.028 C 3.778 3.148 2.179 4.825 1.204 6.779 C 0.573 8.042 0.251 9.124 0.034 10.736 C 0.015 10.861 0 11.385 0 11.889 C 0.006 12.675 0.019 12.91 0.134 13.536 C 0.207 13.938 0.284 14.343 0.309 14.431 C 0.456 14.992 0.611 15.491 0.644 15.534 C 0.663 15.562 0.732 15.722 0.79 15.892 C 0.949 16.326 1.459 17.309 1.781 17.804 C 2.944 19.569 4.45 20.888 6.352 21.817 C 6.668 21.972 7.069 22.145 7.241 22.207 C 7.416 22.263 7.578 22.329 7.603 22.347 C 7.766 22.462 9.027 22.749 10.089 22.908 C 11.073 23.055 12.188 23.027 13.392 22.818 C 13.848 22.74 14.256 22.659 14.306 22.636 C 14.348 22.612 14.542 22.556 14.724 22.509 C 15.23 22.381 15.855 22.135 16.577 21.788 C 16.932 21.618 17.25 21.458 17.275 21.44 C 17.304 21.421 17.572 21.241 17.875 21.044 C 19.544 19.961 20.911 18.431 21.796 16.669 C 22.22 15.821 22.433 15.257 22.691 14.29 C 22.735 14.122 22.914 13.122 22.965 12.713 C 22.985 12.581 23 12.064 23 11.559 C 22.994 10.646 22.933 10.1 22.711 9.139 C 22.62 8.734 22.394 7.965 22.356 7.909 C 22.337 7.88 22.268 7.725 22.21 7.556 C 22.032 7.066 21.509 6.072 21.124 5.507 C 20.204 4.155 19.218 3.191 17.852 2.305 C 17.269 1.928 16.253 1.414 15.759 1.242 C 15.584 1.183 15.427 1.118 15.397 1.099 C 15.354 1.071 14.772 0.902 14.268 0.769 C 14.176 0.746 13.698 0.666 13.208 0.587 C 12.462 0.469 12.194 0.444 11.548 0.454 C 11.124 0.454 10.716 0.469 10.634 0.478 Z  M 17.687 4.363 C 17.817 4.862 17.823 4.858 17.511 4.924 C 17.361 4.956 17.231 5.012 17.215 5.046 C 17.202 5.083 17.323 5.607 17.482 6.205 C 17.919 7.824 18.26 9.143 18.26 9.195 C 18.26 9.252 17.476 9.445 17.432 9.402 C 17.413 9.383 17.212 8.668 16.985 7.815 C 16.759 6.957 16.524 6.068 16.456 5.838 C 16.389 5.601 16.336 5.37 16.336 5.329 C 16.336 5.23 16.292 5.23 15.95 5.32 C 15.807 5.357 15.686 5.38 15.676 5.376 C 15.623 5.32 15.46 4.579 15.498 4.547 C 15.523 4.523 15.985 4.397 16.527 4.26 C 17.072 4.127 17.524 4.005 17.534 3.995 C 17.572 3.964 17.591 4.014 17.687 4.363 Z  M 15.032 5.05 C 15.09 5.252 15.132 5.442 15.132 5.47 C 15.132 5.498 14.935 5.569 14.699 5.626 C 14.459 5.682 14.256 5.748 14.243 5.763 C 14.224 5.8 14.339 6.28 14.383 6.318 C 14.396 6.331 14.546 6.308 14.718 6.265 C 14.892 6.224 15.052 6.19 15.075 6.19 C 15.103 6.19 15.157 6.331 15.201 6.505 C 15.239 6.685 15.287 6.869 15.301 6.926 C 15.329 7.01 15.297 7.029 14.965 7.104 C 14.628 7.184 14.599 7.198 14.622 7.291 C 14.638 7.344 14.753 7.777 14.877 8.248 C 15.032 8.847 15.122 9.109 15.17 9.109 C 15.205 9.109 15.412 9.068 15.623 9.012 C 15.835 8.959 16.018 8.927 16.027 8.937 C 16.075 8.983 16.272 9.704 16.244 9.732 C 16.205 9.769 14.503 10.203 14.478 10.178 C 14.459 10.16 14.16 9.059 13.756 7.509 C 13.131 5.121 13.131 5.14 13.208 5.112 C 13.332 5.074 14.816 4.693 14.873 4.688 C 14.906 4.684 14.975 4.849 15.032 5.05 Z  M 13.087 7.792 C 13.449 9.162 13.737 10.312 13.723 10.344 C 13.704 10.4 13.097 10.574 12.943 10.57 C 12.914 10.57 12.784 10.147 12.656 9.623 L 12.414 8.678 L 12.111 8.417 C 11.947 8.272 11.803 8.164 11.789 8.177 C 11.77 8.196 11.904 8.747 12.223 9.935 C 12.318 10.297 12.405 10.621 12.408 10.655 C 12.414 10.721 11.634 10.976 11.582 10.923 C 11.563 10.908 10.611 7.387 10.245 5.965 C 10.181 5.729 10.423 5.879 11.188 6.543 C 11.621 6.916 11.981 7.216 11.991 7.213 C 12.006 7.194 11.879 6.689 11.692 6.035 C 11.625 5.776 11.577 5.56 11.592 5.545 C 11.615 5.522 12.322 5.305 12.395 5.301 C 12.408 5.295 12.723 6.417 13.087 7.792 Z  M 9.372 7.909 C 9.913 8.813 10.547 9.888 10.787 10.293 L 11.22 11.026 L 10.793 11.145 L 10.365 11.266 L 10.235 11.036 C 10.162 10.908 10.07 10.805 10.032 10.805 C 9.834 10.811 9.142 11.032 9.133 11.092 C 9.127 11.13 9.114 11.257 9.095 11.375 L 9.066 11.587 L 8.694 11.681 C 8.493 11.728 8.305 11.771 8.286 11.771 C 8.261 11.771 8.247 11.263 8.247 10.64 C 8.251 8.71 8.314 6.186 8.353 6.224 C 8.372 6.243 8.834 7.001 9.372 7.909 Z  M 6.463 9.025 C 6.76 10.147 7.002 11.092 7.002 11.12 C 7.002 11.201 7.04 11.197 7.416 11.107 C 7.588 11.064 7.738 11.041 7.751 11.054 C 7.776 11.073 7.964 11.775 7.964 11.846 C 7.964 11.861 7.862 11.899 7.738 11.927 C 7.607 11.959 7.256 12.045 6.954 12.124 C 6.649 12.199 6.4 12.255 6.394 12.251 C 6.384 12.236 5.38 8.441 5.211 7.777 C 5.129 7.471 5.081 7.207 5.096 7.194 C 5.129 7.16 5.735 7.001 5.852 6.995 C 5.909 6.991 6.039 7.419 6.463 9.025 Z  M 4.345 7.637 C 4.832 7.862 5.183 8.494 5.186 9.143 C 5.192 9.788 4.932 10.137 4.301 10.334 C 4.119 10.396 3.969 10.456 3.969 10.471 C 3.969 10.49 4.013 10.664 4.061 10.858 C 4.418 12.18 4.546 12.707 4.523 12.732 C 4.456 12.793 3.682 12.962 3.682 12.915 C 3.682 12.878 2.541 8.573 2.449 8.257 C 2.405 8.111 2.382 7.961 2.392 7.927 C 2.402 7.895 2.67 7.802 2.988 7.715 C 3.651 7.537 4.081 7.513 4.345 7.637 Z  M 20.171 9.633 C 20.382 9.732 20.83 10.175 20.786 10.24 C 20.773 10.265 20.618 10.377 20.445 10.499 L 20.127 10.721 L 19.997 10.599 C 19.83 10.437 19.636 10.437 19.531 10.593 C 19.28 10.97 19.506 12.398 19.954 13.292 C 20.094 13.57 20.382 13.866 20.512 13.866 C 20.623 13.866 20.811 13.66 20.811 13.533 C 20.811 13.401 20.863 13.392 21.286 13.452 C 21.739 13.518 21.739 13.518 21.58 14.017 C 21.423 14.527 21.06 14.808 20.585 14.808 C 20.079 14.804 19.613 14.418 19.228 13.679 C 18.77 12.812 18.569 11.931 18.611 11.008 C 18.641 10.33 18.728 10.066 19.011 9.788 C 19.324 9.477 19.722 9.426 20.171 9.633 Z  M 17.687 10.409 C 17.737 10.589 17.833 10.938 17.9 11.182 C 18.569 13.679 18.935 15.114 18.919 15.161 C 18.896 15.213 18.135 15.407 18.091 15.369 C 18.043 15.317 16.731 10.306 16.759 10.278 C 16.803 10.235 17.501 10.053 17.559 10.071 C 17.582 10.075 17.639 10.225 17.687 10.409 Z  M 16.855 12.844 C 17.206 14.168 17.505 15.322 17.52 15.401 L 17.549 15.544 L 17.129 15.652 C 16.903 15.712 16.706 15.756 16.696 15.746 C 16.677 15.722 16.485 14.992 16.307 14.281 L 16.186 13.776 L 15.889 13.542 C 15.584 13.296 15.489 13.249 15.533 13.367 C 15.546 13.401 15.701 13.975 15.88 14.643 C 16.115 15.525 16.186 15.862 16.144 15.892 C 16.115 15.911 15.927 15.962 15.73 16.014 C 15.31 16.114 15.335 16.133 15.211 15.647 C 15.161 15.459 14.95 14.658 14.739 13.866 C 14.176 11.752 13.978 10.994 13.978 10.97 C 13.978 10.852 14.271 11.054 14.935 11.634 C 15.364 12.011 15.73 12.308 15.743 12.294 C 15.759 12.285 15.72 12.096 15.663 11.88 C 15.397 10.895 15.339 10.608 15.393 10.593 C 15.561 10.537 15.995 10.437 16.094 10.434 C 16.215 10.428 16.221 10.452 16.855 12.844 Z  M 13.558 13.583 C 14.277 14.789 14.912 15.853 14.975 15.952 C 15.042 16.056 15.08 16.146 15.071 16.155 C 15.061 16.17 14.864 16.226 14.632 16.286 L 14.218 16.401 L 14.089 16.183 C 14.017 16.061 13.953 15.952 13.944 15.943 C 13.921 15.911 13.049 16.133 12.982 16.189 C 12.943 16.211 12.92 16.339 12.92 16.48 L 12.92 16.725 L 12.539 16.825 C 12.332 16.881 12.134 16.928 12.106 16.928 C 12.058 16.928 12.054 16.513 12.073 15.123 C 12.121 12.092 12.154 11.201 12.213 11.304 C 12.242 11.351 12.847 12.379 13.558 13.583 Z  M 10.07 12.148 C 10.264 12.227 10.754 12.67 10.754 12.769 C 10.754 12.803 10.62 12.934 10.455 13.062 L 10.153 13.292 L 9.993 13.155 C 9.716 12.915 9.547 12.996 9.451 13.414 C 9.286 14.131 9.913 16.123 10.369 16.363 C 10.509 16.433 10.687 16.386 10.764 16.255 C 10.831 16.146 10.846 15.166 10.787 15.105 C 10.768 15.091 10.678 15.101 10.582 15.129 C 10.423 15.176 10.407 15.17 10.365 15.054 C 10.302 14.898 10.177 14.371 10.197 14.352 C 10.216 14.334 11.299 14.054 11.36 14.054 C 11.462 14.054 11.634 14.898 11.659 15.506 C 11.692 16.373 11.529 16.919 11.149 17.2 C 10.933 17.361 10.509 17.399 10.2 17.281 C 9.614 17.065 8.968 15.977 8.704 14.752 C 8.598 14.272 8.585 13.292 8.675 12.94 C 8.859 12.246 9.464 11.902 10.07 12.148 Z  M 7.578 12.959 C 8.04 13.193 8.282 13.688 8.242 14.315 C 8.222 14.568 8.184 14.714 8.088 14.879 L 7.964 15.105 L 8.075 15.228 C 8.261 15.425 8.359 15.585 8.878 16.527 C 9.146 17.018 9.388 17.442 9.411 17.47 C 9.509 17.568 9.436 17.62 9.022 17.723 C 8.782 17.785 8.579 17.827 8.569 17.817 C 8.56 17.808 8.334 17.374 8.069 16.857 C 7.534 15.816 7.41 15.643 7.203 15.665 C 7.117 15.675 7.078 15.703 7.092 15.75 C 7.107 15.825 7.289 16.504 7.531 17.418 C 7.613 17.723 7.67 18.001 7.661 18.025 C 7.651 18.054 7.467 18.119 7.247 18.175 L 6.846 18.279 L 6.804 18.181 C 6.75 18.057 5.524 13.414 5.499 13.255 C 5.485 13.14 5.508 13.131 5.991 13.005 C 6.982 12.75 7.161 12.747 7.578 12.959 Z  M 4.339 13.589 C 5.514 14.022 6.419 17.224 5.696 18.374 C 5.524 18.652 5.294 18.783 4.96 18.802 C 4.374 18.84 3.921 18.472 3.488 17.611 C 2.641 15.921 2.685 13.938 3.584 13.589 C 3.749 13.527 4.173 13.523 4.339 13.589 Z " fill="rgb(0,0,0)"/><path d=" M 0 -2 L 0 -2 L 0 -2 L 0 -2 L 0 -2 L 0 -2 L 0 -2 Z " fill="rgb(0,0,0)"/><path d=" M 3.599 8.456 C 3.513 8.479 3.44 8.507 3.44 8.513 C 3.44 8.563 3.73 9.548 3.749 9.567 C 3.801 9.623 4.157 9.482 4.234 9.379 C 4.33 9.242 4.326 8.987 4.215 8.756 C 4.075 8.456 3.897 8.37 3.599 8.456 Z " fill="rgb(0,0,0)"/><path d=" M 6.655 13.664 C 6.607 13.673 6.568 13.711 6.568 13.739 C 6.572 13.823 6.798 14.671 6.827 14.699 C 6.894 14.767 7.199 14.652 7.308 14.521 C 7.506 14.296 7.454 13.857 7.218 13.707 C 7.107 13.636 6.837 13.617 6.655 13.664 Z " fill="rgb(0,0,0)"/><path d=" M 3.849 14.574 C 3.787 14.643 3.753 14.771 3.739 15.048 C 3.67 16.17 4.349 17.917 4.832 17.86 C 5.259 17.813 5.211 16.588 4.734 15.388 C 4.437 14.639 4.084 14.319 3.849 14.574 Z " fill="rgb(0,0,0)"/><path d=" M 9.123 10.524 L 9.123 9.248 L 9.813 10.298 L 9.123 10.524 Z " fill="rgb(0,0,0)"/><path d=" M 12.88 15.476 L 12.88 14.2 L 13.57 15.251 L 12.88 15.476 Z " fill="rgb(0,0,0)"/></g></g></g></g></svg>