<?xml version="1.0" encoding="UTF-8" standalone="no"?>
<!-- Created with Inkscape (http://www.inkscape.org/) -->

<svg
   width="124.34653mm"
   height="28.152723mm"
   viewBox="0 0 124.34653 28.152723"
   version="1.1"
   id="svg7236"
   xmlns="http://www.w3.org/2000/svg"
   xmlns:svg="http://www.w3.org/2000/svg">
  <defs
     id="defs7233">
    <rect
       x="776.49841"
       y="5.4205823"
       width="240.53835"
       height="25.747766"
       id="rect2752" />
    <clipPath
       id="_clipPath_20ebfFHt0KrmEGkaMBm7Z7sqdHmHQIRP">
      <rect
         x="0"
         y="0"
         width="72.553001"
         height="79.803001"
         fill="#ffffff"
         id="rect2051" />
    </clipPath>
  </defs>
  <g
     id="layer1"
     transform="translate(-10.66826,-28.65241)">
    <g
       id="g2148"
       transform="matrix(0.20200964,0,0,0.20200964,20.256746,35.724322)"
       style="isolation:isolate">
      <g
         id="g2104">
        <path
           d="m 132.511,5.05 1.984,0.028 1.928,0.113 1.871,0.199 1.785,0.283 1.758,0.34 1.672,0.426 1.616,0.51 1.559,0.567 1.502,0.652 1.418,0.708 1.389,0.766 1.332,0.822 1.276,0.879 1.219,0.935 1.162,1.021 1.105,1.048 -12.841,12.671 -0.595,-0.538 -0.624,-0.539 -0.623,-0.482 -0.681,-0.453 -0.68,-0.454 -0.709,-0.397 -0.737,-0.368 -0.765,-0.369 -0.794,-0.312 -0.822,-0.283 -0.878,-0.227 -0.907,-0.17 -0.936,-0.17 -0.992,-0.085 -1.02,-0.057 -1.078,-0.028 -0.878,0.028 -0.851,0.057 -0.85,0.085 -0.822,0.142 -0.794,0.198 -0.794,0.227 -0.765,0.255 -0.765,0.312 -0.737,0.34 -0.681,0.369 -0.68,0.396 -0.68,0.454 -0.624,0.453 -0.595,0.511 -0.567,0.538 -0.567,0.567 -0.51,0.595 -0.511,0.652 -0.453,0.652 -0.454,0.681 -0.396,0.737 -0.369,0.737 -0.34,0.793 -0.312,0.794 -0.283,0.822 -0.255,0.879 -0.199,0.85 -0.17,0.907 -0.142,0.908 -0.085,0.935 -0.056,0.964 -0.029,0.964 0.029,1.133 0.056,1.106 0.114,1.049 0.141,1.02 0.199,0.992 0.227,0.936 0.283,0.935 0.312,0.851 0.368,0.85 0.397,0.794 0.397,0.793 0.454,0.709 0.481,0.709 0.482,0.652 0.539,0.623 0.567,0.596 0.595,0.538 0.595,0.539 0.624,0.482 0.652,0.425 0.68,0.425 0.681,0.368 0.708,0.341 0.737,0.311 0.766,0.284 0.737,0.227 0.765,0.198 0.765,0.142 0.794,0.142 0.765,0.085 0.794,0.056 0.822,0.029 1.531,-0.057 1.474,-0.113 1.389,-0.199 1.304,-0.255 1.219,-0.34 1.134,-0.425 1.048,-0.511 0.964,-0.595 0.907,-0.652 0.794,-0.737 0.765,-0.793 0.681,-0.908 0.595,-0.963 0.538,-1.021 0.454,-1.134 0.397,-1.19 H 131.179 V 34.984 h 33.392 l 0.113,0.793 0.085,0.766 0.085,0.793 0.029,0.737 0.085,2.977 -0.085,2.721 -0.114,1.332 -0.142,1.304 -0.17,1.276 -0.226,1.247 -0.256,1.191 -0.311,1.19 -0.341,1.134 -0.368,1.134 -0.397,1.077 -0.425,1.077 -0.482,1.049 -0.482,0.992 -0.538,0.992 -0.567,0.936 -0.596,0.935 -0.595,0.879 -0.652,0.879 -0.652,0.822 -0.68,0.793 -0.709,0.794 -0.737,0.737 -0.765,0.709 -0.794,0.68 -0.794,0.68 -0.822,0.624 -0.822,0.595 -0.85,0.567 -0.879,0.539 -0.879,0.51 -0.878,0.482 -1.843,0.879 -1.871,0.765 -1.899,0.652 -1.956,0.51 -1.956,0.425 -1.984,0.284 -1.956,0.17 -1.984,0.057 -1.956,-0.029 -1.899,-0.113 -1.899,-0.199 -1.843,-0.283 -1.786,-0.369 -1.757,-0.453 -1.701,-0.51 -1.701,-0.596 -1.616,-0.68 -1.559,-0.737 -1.53,-0.794 -1.446,-0.878 -1.389,-0.936 -1.332,-0.992 -1.276,-1.049 -1.219,-1.105 -1.162,-1.191 -1.077,-1.247 -1.021,-1.276 -0.963,-1.36 -0.907,-1.389 -0.823,-1.474 -0.765,-1.503 -0.68,-1.587 -0.624,-1.616 -0.538,-1.672 -0.482,-1.673 -0.369,-1.757 -0.283,-1.758 -0.199,-1.814 -0.141,-1.842 -0.029,-1.899 0.057,-2.523 0.113,-1.219 0.114,-1.219 0.17,-1.191 0.198,-1.19 0.255,-1.191 0.284,-1.134 0.312,-1.133 0.34,-1.106 0.397,-1.106 0.396,-1.077 0.454,-1.02 0.482,-1.021 0.51,-1.02 0.539,-0.964 0.567,-0.964 0.623,-0.935 0.624,-0.907 0.652,-0.879 0.708,-0.85 0.738,-0.822 0.737,-0.822 0.793,-0.794 0.822,-0.737 0.851,-0.737 0.85,-0.709 0.879,-0.68 0.935,-0.652 0.936,-0.595 0.935,-0.596 0.992,-0.567 1.021,-0.538 1.02,-0.482 1.049,-0.482 1.077,-0.425 1.106,-0.397 1.134,-0.368 2.296,-0.652 1.19,-0.256 1.219,-0.226 2.466,-0.369 2.551,-0.227 z"
           fill-rule="evenodd"
           fill="#000000"
           id="path2100" />
        <rect
           x="96.511002"
           y="5.0209999"
           width="68.485001"
           height="69.704002"
           fill="none"
           id="rect2102" />
      </g>
      <g
         id="g2110">
        <path
           d="M 224.609,73.478 H 172.111 V 6.297 h 52.498 v 16.214 h -34.243 v 8.873 h 31.861 v 16.214 h -31.861 v 9.666 h 34.243 z"
           fill-rule="evenodd"
           fill="#000000"
           id="path2106" />
        <rect
           x="172.11099"
           y="6.2690001"
           width="52.554001"
           height="67.237999"
           fill="none"
           id="rect2108" />
      </g>
      <g
         id="g2116">
        <path
           d="m 265.229,5.05 1.928,0.028 1.899,0.142 1.842,0.198 1.814,0.284 1.758,0.368 1.729,0.454 1.701,0.51 1.644,0.624 1.616,0.68 1.53,0.765 1.503,0.794 1.417,0.879 1.389,0.935 1.332,1.021 1.248,1.077 1.218,1.134 1.163,1.19 1.077,1.219 1.02,1.304 0.936,1.361 0.879,1.417 0.822,1.446 0.765,1.53 0.68,1.559 0.624,1.616 0.51,1.644 0.454,1.701 0.368,1.701 0.284,1.757 0.226,1.814 0.114,1.815 0.028,1.871 -0.028,1.87 -0.114,1.815 -0.226,1.814 -0.284,1.757 -0.368,1.701 -0.454,1.701 -0.51,1.644 -0.624,1.616 -0.68,1.559 -0.765,1.53 -0.822,1.446 -0.879,1.417 -0.936,1.361 -1.02,1.276 -1.077,1.247 -1.163,1.19 -1.218,1.134 -1.248,1.077 -1.332,0.993 -1.389,0.963 -1.417,0.851 -1.503,0.822 -1.53,0.765 -1.616,0.68 -1.644,0.596 -1.701,0.538 -1.729,0.454 -1.758,0.368 -1.814,0.284 -1.842,0.198 -1.899,0.142 -1.928,0.028 -1.899,-0.028 -1.899,-0.142 -1.843,-0.198 -1.814,-0.284 -1.758,-0.368 -1.729,-0.454 -1.701,-0.538 -1.644,-0.596 -1.615,-0.68 -1.531,-0.765 -1.502,-0.822 -1.418,-0.851 -1.389,-0.963 -1.332,-0.993 -1.247,-1.077 -1.219,-1.134 -1.162,-1.19 -1.078,-1.247 -1.02,-1.276 -0.935,-1.361 -0.879,-1.417 -0.822,-1.446 -0.766,-1.53 -0.68,-1.559 -0.624,-1.616 -0.51,-1.644 -0.453,-1.701 -0.369,-1.701 -0.283,-1.757 -0.227,-1.814 -0.113,-1.815 -0.029,-1.87 0.029,-1.871 0.113,-1.815 0.227,-1.814 0.283,-1.757 0.369,-1.701 0.453,-1.701 0.51,-1.644 0.624,-1.616 0.68,-1.559 0.766,-1.53 0.822,-1.446 0.879,-1.417 0.935,-1.361 1.02,-1.304 1.078,-1.219 1.162,-1.19 1.219,-1.134 1.247,-1.077 1.332,-1.021 1.389,-0.935 1.418,-0.879 1.502,-0.794 1.531,-0.765 1.615,-0.68 1.644,-0.624 1.701,-0.51 1.729,-0.454 1.758,-0.368 1.814,-0.284 1.843,-0.198 1.899,-0.142 z m 0,17.461 -0.907,0.028 -0.879,0.057 -0.879,0.085 -0.85,0.142 -0.822,0.198 -0.822,0.199 -0.794,0.255 -0.765,0.312 -0.737,0.34 -0.709,0.368 -0.68,0.397 -0.68,0.425 -0.652,0.454 -0.596,0.51 -0.595,0.51 -0.567,0.567 -0.538,0.596 -0.511,0.623 -0.453,0.624 -0.454,0.68 -0.425,0.709 -0.368,0.737 -0.341,0.737 -0.311,0.794 -0.284,0.793 -0.255,0.851 -0.198,0.85 -0.171,0.85 -0.141,0.908 -0.085,0.907 -0.057,0.907 -0.028,0.964 0.028,0.935 0.057,0.935 0.085,0.907 0.141,0.908 0.171,0.85 0.198,0.85 0.255,0.822 0.284,0.822 0.311,0.794 0.341,0.737 0.368,0.737 0.425,0.709 0.454,0.652 0.453,0.652 0.511,0.623 0.538,0.596 0.567,0.567 0.595,0.51 0.596,0.51 0.652,0.454 0.68,0.425 0.68,0.397 0.709,0.368 0.737,0.34 0.765,0.284 0.794,0.283 0.822,0.199 0.822,0.198 0.85,0.113 0.879,0.114 0.879,0.057 0.907,0.028 0.907,-0.028 0.879,-0.057 0.879,-0.114 0.85,-0.113 0.822,-0.198 0.822,-0.199 0.765,-0.283 0.794,-0.284 0.737,-0.34 0.737,-0.368 0.68,-0.397 0.681,-0.425 0.623,-0.454 0.624,-0.51 0.595,-0.51 0.567,-0.567 0.539,-0.596 0.51,-0.623 0.454,-0.652 0.453,-0.652 0.397,-0.709 0.397,-0.737 0.34,-0.737 0.312,-0.794 0.283,-0.822 0.255,-0.822 0.199,-0.85 0.17,-0.85 0.142,-0.908 0.085,-0.907 0.056,-0.935 0.029,-0.935 -0.029,-0.964 -0.056,-0.907 -0.085,-0.907 -0.142,-0.908 -0.17,-0.85 -0.199,-0.85 -0.255,-0.851 -0.283,-0.793 -0.312,-0.794 -0.34,-0.737 -0.397,-0.737 -0.397,-0.709 -0.453,-0.68 -0.454,-0.624 -0.51,-0.623 -0.539,-0.596 -0.567,-0.567 -0.595,-0.51 -0.624,-0.51 -0.623,-0.454 -0.681,-0.425 -0.68,-0.397 -0.737,-0.368 -0.737,-0.34 -0.794,-0.312 -0.765,-0.255 -0.822,-0.199 -0.822,-0.198 -0.85,-0.142 -0.879,-0.085 -0.879,-0.057 z"
           fill-rule="evenodd"
           fill="#000000"
           id="path2112" />
        <rect
           x="229.711"
           y="5.0209999"
           width="71.093002"
           height="69.761002"
           fill="none"
           id="rect2114" />
      </g>
      <g
         id="g2122">
        <path
           d="M 358.546,73.478 H 307.947 V 6.297 h 18.255 v 50.372 h 32.344 z"
           fill-rule="evenodd"
           fill="#000000"
           id="path2118" />
        <rect
           x="307.94699"
           y="6.2690001"
           width="50.626999"
           height="67.237999"
           fill="none"
           id="rect2120" />
      </g>
      <g
         id="g2128">
        <path
           d="m 391.739,48.051 v 25.427 h -18.255 v -25.2 L 348.142,6.297 h 20.948 l 13.578,25.37 13.522,-25.37 h 20.296 z"
           fill-rule="evenodd"
           fill="#000000"
           id="path2124" />
        <rect
           x="348.142"
           y="6.2690001"
           width="68.400002"
           height="67.237999"
           fill="none"
           id="rect2126" />
      </g>
      <g
         id="g2134">
        <path
           d="m 474.454,23.078 h -19.105 v 50.4 h -18.227 v -50.4 H 418.016 V 6.297 h 56.438 z"
           fill-rule="evenodd"
           fill="#000000"
           id="path2130" />
        <rect
           x="417.98801"
           y="6.2690001"
           width="56.493999"
           height="67.237999"
           fill="none"
           id="rect2132" />
      </g>
      <g
         id="g2140">
        <path
           d="M 498.407,73.478 H 480.152 V 6.297 h 18.255 z"
           fill-rule="evenodd"
           fill="#000000"
           id="path2136" />
        <rect
           x="480.15201"
           y="6.2690001"
           width="18.283001"
           height="67.237999"
           fill="none"
           id="rect2138" />
      </g>
      <g
         id="g2146">
        <path
           d="m 546.766,39.632 21.26,33.846 H 547.39 L 535.626,53.551 523.919,73.478 h -20.495 l 21.26,-33.789 -21.26,-33.392 h 20.636 l 11.764,19.871 11.707,-19.871 h 20.495 z"
           fill-rule="evenodd"
           fill="#000000"
           id="path2142" />
        <rect
           x="503.42401"
           y="6.2690001"
           width="64.657997"
           height="67.237999"
           fill="none"
           id="rect2144" />
      </g>
    </g>
    <text
       xml:space="preserve"
       transform="matrix(0.26458333,0,0,0.26458333,-164.43847,26.664648)"
       id="text2750"
       style="font-size:20px;font-family:Arial, Arial_MSFontService, sans-serif;-inkscape-font-specification:'Arial, Arial_MSFontService, sans-serif';white-space:pre;shape-inside:url(#rect2752);isolation:isolate;fill:#000000;stroke:#000000;stroke-opacity:1"><tspan
         x="776.49805"
         y="23.666528"
         id="tspan12634"><tspan
           style="font-family:sans-serif;-inkscape-font-specification:sans-serif"
           id="tspan12632">Powered By MAPP From</tspan></tspan></text>
    <g
       clip-path="url(#_clipPath_20ebfFHt0KrmEGkaMBm7Z7sqdHmHQIRP)"
       id="g2096"
       style="isolation:isolate"
       transform="matrix(0.35277777,0,0,0.35277777,10.66826,28.65241)">
      <g
         id="g2094">
        <g
           id="g2092">
          <path
             d="m 68.549,15.212 h -7.794 l -3.897,6.751 3.897,6.749 h 7.794 l 3.897,-6.749 z"
             fill="#003d57"
             id="path2054" />
          <path
             d="m 52.519,7.382 h -6.625 l -3.313,5.737 3.313,5.738 h 6.625 l 3.313,-5.738 z"
             fill="#003d57"
             id="path2056" />
          <path
             d="m 52.261,24.684 h -6.625 l -3.313,5.737 3.313,5.738 h 6.625 l 3.312,-5.738 z"
             fill="#ec602d"
             id="path2058" />
          <path
             d="m 52.261,41.7 h -6.625 l -3.313,5.739 3.313,5.737 h 6.625 l 3.312,-5.737 z"
             fill="#ec602d"
             id="path2060" />
          <path
             d="m 37.623,49.875 h -6.625 l -3.314,5.738 3.314,5.737 h 6.625 l 3.312,-5.737 z"
             fill="#ec602d"
             id="path2062" />
          <path
             d="m 23.209,58.795 h -6.625 l -3.312,5.738 3.312,5.738 h 6.625 l 3.313,-5.738 z"
             fill="#ec602d"
             id="path2064" />
          <path
             d="m 32.33,0 -2.832,4.904 2.832,4.907 h 5.664 L 40.826,4.904 37.994,0 Z"
             fill="#003d57"
             id="path2066" />
          <path
             d="m 37.072,17.027 h -5.664 l -2.834,4.905 2.834,4.906 h 5.664 l 2.833,-4.906 z"
             fill="#ec602d"
             id="path2068" />
          <path
             d="M 37.044,34.12 H 31.38 l -2.833,4.907 2.833,4.905 h 5.664 l 2.833,-4.905 z"
             fill="#401505"
             id="path2070" />
          <path
             d="m 22.416,42.537 h -5.665 l -2.833,4.906 2.833,4.906 h 5.665 l 2.833,-4.906 z"
             fill="#401505"
             id="path2072" />
          <path
             d="M 8.497,51.067 H 2.833 L 0,55.973 2.833,60.878 h 5.664 l 2.833,-4.905 z"
             fill="#401505"
             id="path2074" />
          <path
             d="m 22.987,9.519 h -4.532 l -2.267,3.925 2.267,3.925 h 4.532 l 2.265,-3.925 z"
             fill="#ec602d"
             id="path2076" />
          <path
             d="m 22.511,25.563 h -5.235 l -2.616,4.534 2.616,4.532 h 5.235 l 2.617,-4.532 z"
             fill="#401505"
             id="path2078" />
          <path
             d="M 8.051,35.07 H 3.519 l -2.266,3.924 2.266,3.925 h 4.532 l 2.266,-3.925 z"
             fill="#401505"
             id="path2080" />
          <path
             d="M 8.808,18.851 H 4.277 l -2.266,3.925 2.266,3.925 h 4.531 l 2.266,-3.925 z"
             fill="#401505"
             id="path2082" />
          <path
             d="m 68.442,32.302 h -7.794 l -3.898,6.75 3.898,6.749 h 7.794 l 3.897,-6.749 z"
             fill="#ec602d"
             id="path2084" />
          <path
             d="m 68.655,49.276 h -7.793 l -3.897,6.751 3.897,6.749 h 7.793 l 3.898,-6.749 z"
             fill="#003d57"
             id="path2086" />
          <path
             d="m 53.809,57.79 h -7.794 l -3.898,6.751 3.898,6.749 h 7.794 l 3.897,-6.749 z"
             fill="#003d57"
             id="path2088" />
          <path
             d="m 38.962,66.303 h -7.794 l -3.897,6.751 3.897,6.749 h 7.794 l 3.898,-6.749 z"
             fill="#003d57"
             id="path2090" />
        </g>
      </g>
    </g>
  </g>
</svg>
