<?xml version="1.0" encoding="UTF-8" standalone="no"?>
<svg
   id="svg3063"
   viewBox="0 0 871.02177 789.30809"
   width="1496.4154"
   height="1356.1995"
   version="1.1"
   xmlns="http://www.w3.org/2000/svg"
   xmlns:svg="http://www.w3.org/2000/svg">
  <defs
     id="defs7095" />
  <style
     id="style7068">.st0{fill:#9e7fba}.st1{fill:#682a8f}</style>
  <g
     id="layer1"
     transform="translate(-174.08148,583.02814)">
    <g
       id="g3328"
       transform="matrix(2.15014,0,0,2.15097,-155.75,-1003.633)">
      <g
         id="g3278">
        <path
           id="path3124"
           class="st0"
           d="m 358.6,195.5 h -2.9 c -29.2,0.3 -58.7,7.2 -86,20.2 0,0 4.2,-1.1 7.1,-1.1 0.4,0 0.8,0 1.1,0.1 2.8,0.5 5.5,1.9 7.7,3.6 3.2,2.4 4.3,7.1 7.8,9.2 2.8,1.7 6.3,2 9.6,2.1 7,0.4 13.9,-2.1 20.8,-2.5 7.1,-0.4 14.2,-0.6 21.2,0.4 10.3,1.5 20.6,4.2 30.2,8.3 11.3,4.8 21.9,11.5 31.8,18.7 9.8,7.1 18.3,15.7 27,24.1 12.6,12.1 22.7,26.8 36.3,37.7 5.6,4.5 11.3,8.3 18.4,11.2 10.1,4.2 31.9,7.2 31.9,7.2 l 9.1,2.3 c 4.7,0.8 9,1.9 12.8,3.2 l 0.2,0.1 c 3.5,1.2 6.5,2.7 9.1,4.4 -7,-23.3 -19.3,-45.5 -32.7,-65.3 -33.5,-49.7 -100,-83.4 -160.5,-83.9 z" />
        <path
           id="path3122"
           class="st1"
           d="m 236,236 c -18,13.3 -34.2,29.7 -47.5,49.2 -20.4,29.8 -35.1,66.3 -35.1,102.7 v 169 c 0,3.7 2.1,5.6 4.7,5.6 h 51.3 c -6.8,-3.3 -11.6,-7.7 -14.2,-13.1 -19.7,-39.6 43.3,-109.5 141.3,-163.2 4.2,-3.1 8.2,-6.3 8,-7.6 -0.2,-1.6 -6.5,1 -6.5,1 -46.8,18.5 -88,47.7 -125.8,79.4 0,0 -7.6,-33.9 -10.8,-50.6 -2,-10.3 -4.6,-20.5 -5.5,-31 -0.8,-9.6 0,-29 0,-29 0,0 0.5,-19.5 3.4,-29 3.1,-10 14.6,-28.7 14.6,-28.7 0,0 9.4,-13.2 16.7,-20.5 1.9,-1.9 3.8,-5.5 3.8,-8.2 0,-2.3 -1.4,-3.7 -2,-5.9 -0.7,-2.9 -1.4,-6.4 -1.3,-9.3 0.1,-2.3 0.5,-4.2 1.5,-6.2 0.9,-1.6 2.3,-3.4 3.4,-4.6 z" />
        <path
           id="path3094"
           class="st1"
           d="m 558.4,387.5 c -15.2,37.8 -66.7,89.2 -141.3,129.2 -43.1,23.1 -82.2,37.8 -115.3,45.7 h 252 c 3.1,0 4.7,-1.5 4.7,-5.5 -0.1,-50.5 -0.1,-110.4 -0.1,-169.4 z" />
        <path
           id="path3096"
           class="st1"
           d="m 499.8,383.7 c -27.3,0 -82.5,19.2 -140.5,52.1 -85.3,48.3 -123.7,96.4 -108.9,105.3 19.7,11.9 83,6.5 171.3,-44.5 36.3,-20.9 104.6,-71.6 95.7,-105 -1.5,-5.3 -7.7,-7.8 -17.6,-7.9 z m -131.5,59.4 c 0,0 19.2,36.7 -10.5,59.2 -40.6,30.8 -70.5,-2 -70.5,-2 19.9,-21.2 48.1,-41.6 81,-57.2 z" />
      </g>
    </g>
  </g>
</svg>
