<?xml version="1.0" encoding="UTF-8" standalone="no"?><!-- Generator: Gravit.io --><svg xmlns="http://www.w3.org/2000/svg" xmlns:xlink="http://www.w3.org/1999/xlink" style="isolation:isolate" viewBox="0 0 24 24" width="24pt" height="24pt"><defs><clipPath id="_clipPath_CERUT5WMyFRpOVxRDtxyRySFLSYRc22M"><rect width="24" height="24"/></clipPath></defs><g clip-path="url(#_clipPath_CERUT5WMyFRpOVxRDtxyRySFLSYRc22M)"><circle vector-effect="non-scaling-stroke" cx="11.999999999999998" cy="12" r="11.628482972136222" fill="rgb(0,84,164)"/><g><path d=" M 3.84 13.995 C 3.455 13.995 3.143 14.216 2.992 14.372 C 2.992 14.372 2.626 14.735 2.378 14.861 C 2.367 14.867 2.367 14.879 2.382 14.879 L 4.625 14.879 C 5.069 14.879 5.277 14.729 5.54 14.493 C 5.54 14.493 5.924 14.137 6.186 14.022 C 6.213 14.012 6.207 13.995 6.186 13.995 L 3.84 13.995 Z  M 7.694 13.995 C 7.309 13.995 6.997 14.216 6.846 14.372 C 6.846 14.372 6.48 14.735 6.231 14.861 C 6.22 14.867 6.221 14.879 6.236 14.879 L 8.484 14.879 C 8.927 14.879 9.136 14.729 9.399 14.493 C 9.399 14.493 9.778 14.137 10.04 14.022 C 10.067 14.012 10.065 13.995 10.045 13.995 L 7.694 13.995 L 7.694 13.995 Z  M 11.552 13.995 C 11.167 13.995 10.855 14.216 10.704 14.372 C 10.704 14.372 10.338 14.735 10.09 14.861 C 10.079 14.867 10.079 14.879 10.094 14.879 L 12.342 14.879 C 12.785 14.879 12.989 14.729 13.253 14.493 C 13.253 14.493 13.636 14.137 13.898 14.022 C 13.925 14.012 13.923 13.995 13.903 13.995 L 11.552 13.995 Z  M 15.406 13.995 C 15.021 13.995 14.713 14.216 14.562 14.372 C 14.562 14.372 14.191 14.735 13.943 14.861 C 13.932 14.867 13.933 14.879 13.948 14.879 L 16.195 14.879 C 16.639 14.879 16.847 14.729 17.111 14.493 C 17.111 14.493 17.494 14.137 17.757 14.022 C 17.783 14.012 17.777 13.995 17.757 13.995 L 15.406 13.995 Z  M 19.264 13.995 C 18.879 13.995 18.567 14.216 18.416 14.372 C 18.416 14.372 18.049 14.735 17.801 14.861 C 17.79 14.867 17.791 14.879 17.806 14.879 L 20.054 14.879 C 20.497 14.879 20.705 14.729 20.969 14.493 C 20.969 14.493 21.348 14.137 21.61 14.022 C 21.637 14.012 21.635 13.995 21.615 13.995 L 19.264 13.995 L 19.264 13.995 Z " fill="rgb(255,255,255)" vector-effect="non-scaling-stroke" stroke-width="0.079" stroke="rgb(255,255,255)" stroke-linejoin="miter" stroke-linecap="butt" stroke-miterlimit="11.47399998"/><path d=" M 11.691 9.121 C 10.871 9.121 10.072 9.364 10.072 10.179 C 10.072 11.591 12.535 10.846 12.535 11.709 C 12.535 11.991 12.098 12.104 11.745 12.104 C 11.111 12.104 10.675 12.01 10.121 11.678 L 10.121 12.387 C 10.534 12.523 11.095 12.589 11.705 12.589 C 12.555 12.589 13.351 12.369 13.351 11.534 C 13.351 10.06 10.888 10.723 10.888 10 C 10.888 9.709 11.283 9.61 11.629 9.61 C 12.209 9.61 12.836 9.78 13.181 10.099 L 13.181 9.345 C 12.735 9.204 12.143 9.121 11.691 9.121 L 11.691 9.121 Z  M 16.043 9.13 C 14.564 9.13 13.585 9.841 13.585 10.924 C 13.585 11.919 14.483 12.584 15.828 12.584 C 16.263 12.584 16.652 12.527 17.106 12.418 L 17.106 11.579 C 16.785 11.918 16.403 12.055 15.994 12.055 C 15.2 12.055 14.657 11.56 14.657 10.848 C 14.657 10.145 15.22 9.632 16.007 9.632 C 16.436 9.632 16.78 9.788 17.057 10.058 L 17.057 9.219 C 16.769 9.16 16.408 9.13 16.043 9.13 L 16.043 9.13 Z  M 19.493 9.13 C 18.218 9.13 17.317 9.863 17.317 10.897 C 17.317 11.911 18.126 12.584 19.331 12.584 C 20.612 12.584 21.494 11.869 21.494 10.83 C 21.494 9.811 20.692 9.13 19.493 9.13 L 19.493 9.13 Z  M 2.503 9.233 L 2.503 10.027 C 2.78 9.812 3.36 9.731 3.993 9.726 L 3.993 11.893 C 3.993 12.208 3.965 12.298 3.831 12.463 L 5.083 12.463 C 4.942 12.298 4.921 12.208 4.921 11.893 L 4.921 9.708 C 5.47 9.713 6.125 9.812 6.402 10.027 L 6.402 9.233 L 2.503 9.233 L 2.503 9.233 Z  M 6.738 9.233 C 6.869 9.398 6.895 9.492 6.895 9.807 L 6.895 11.893 C 6.895 12.208 6.872 12.303 6.747 12.463 L 9.771 12.463 L 9.771 11.678 C 9.356 11.973 8.567 11.974 8.246 11.969 L 7.806 11.969 L 7.806 11.068 L 8.129 11.068 C 8.348 11.068 8.743 11.094 8.973 11.162 L 8.973 10.489 C 8.746 10.562 8.347 10.583 8.129 10.583 L 7.806 10.583 L 7.806 9.727 L 8.246 9.727 C 8.639 9.727 9.322 9.808 9.578 10.023 L 9.578 9.233 L 6.738 9.233 L 6.738 9.233 Z  M 19.408 9.619 C 20.075 9.619 20.516 10.171 20.516 10.852 C 20.516 11.534 20.075 12.086 19.408 12.086 C 18.729 12.086 18.295 11.534 18.295 10.852 C 18.295 10.171 18.729 9.619 19.408 9.619 Z " fill="rgb(240,46,37)" vector-effect="non-scaling-stroke" stroke-width="0.03" stroke="rgb(255,255,255)" stroke-linejoin="miter" stroke-linecap="butt" stroke-miterlimit="3.86400008"/></g></g></svg>