<?xml version="1.0" encoding="UTF-8" standalone="no"?>
<!-- Generator: Gravit.io -->

<svg
   style="isolation:isolate"
   viewBox="0 0 24 24"
   width="24pt"
   height="24pt"
   version="1.1"
   id="svg162"
   sodipodi:docname="glasgow_subway.svg"
   xml:space="preserve"
   inkscape:version="1.2.2 (732a01da63, 2022-12-09)"
   inkscape:export-filename="glasgow_subway.svg"
   inkscape:export-xdpi="74.400002"
   inkscape:export-ydpi="74.400002"
   xmlns:inkscape="http://www.inkscape.org/namespaces/inkscape"
   xmlns:sodipodi="http://sodipodi.sourceforge.net/DTD/sodipodi-0.dtd"
   xmlns="http://www.w3.org/2000/svg"
   xmlns:svg="http://www.w3.org/2000/svg"><sodipodi:namedview
     id="namedview164"
     pagecolor="#ffffff"
     bordercolor="#000000"
     borderopacity="0.25"
     inkscape:showpageshadow="2"
     inkscape:pageopacity="0.0"
     inkscape:pagecheckerboard="0"
     inkscape:deskcolor="#d1d1d1"
     inkscape:document-units="pt"
     showgrid="false"
     inkscape:zoom="16.396038"
     inkscape:cx="7.5018121"
     inkscape:cy="16.345412"
     inkscape:window-width="1920"
     inkscape:window-height="974"
     inkscape:window-x="-11"
     inkscape:window-y="1609"
     inkscape:window-maximized="1"
     inkscape:current-layer="svg162" /><defs
     id="defs152" /><g
     style="clip-rule:evenodd;fill-rule:evenodd;image-rendering:optimizeQuality;shape-rendering:geometricPrecision;text-rendering:geometricPrecision"
     id="g322"
     transform="matrix(0.03665372,0,0,0.03665372,0.21239533,0.18004986)"><g
       id="g294"><path
         style="opacity:0.997"
         fill="#f47b14"
         d="m 293.5,-0.5 c 17.333,0 34.667,0 52,0 109.963,12.2096 193.796,65.2096 251.5,159 23.749,42.075 37.916,87.075 42.5,135 0,17.333 0,34.667 0,52 -11.132,102.473 -58.799,182.973 -143,241.5 -46.389,29.963 -97.056,47.463 -152,52.5 -16.667,0 -33.333,0 -50,0 C 183.999,627.747 99.8323,574.747 42,480.5 18.2511,438.425 4.08447,393.425 -0.5,345.5 c 0,-17.333 0,-34.667 0,-52 C 11.4615,184.354 63.7949,100.854 156.5,43 199.161,18.7229 244.827,4.22286 293.5,-0.5 Z"
         id="path292" /></g><g
       id="g298"><path
         style="opacity:1"
         fill="#4f4c4d"
         d="m 302.5,79.5 c 87.681,-2.7608 158.181,30.239 211.5,99 44.553,64.708 56.22,135.042 35,211 -26.5,79.833 -79.667,133 -159.5,159.5 -87.942,23.843 -165.942,5.843 -234,-54 C 96.4219,436.442 71.9219,365.609 82,282.5 96.5294,204.205 138.363,145.705 207.5,107 c 29.933,-15.5625 61.6,-24.7292 95,-27.5 z"
         id="path296" /></g><g
       id="g302"><path
         style="opacity:1"
         fill="#fefefe"
         d="m 302.5,159.5 c 69.322,-3.431 121.822,24.236 157.5,83 24.64,47.995 25.974,96.661 4,146 -31.229,59.657 -80.729,89.99 -148.5,91 -60.537,-3.335 -106.037,-31.002 -136.5,-83 -30.799,-62.717 -25.465,-122.05 16,-178 28.253,-33.378 64.086,-53.045 107.5,-59 z"
         id="path300" /></g><g
       id="g306"><path
         style="opacity:1"
         fill="#f57c15"
         d="m 314.5,223.5 c 22.889,-0.27 45.555,1.73 68,6 -1.333,14 -2.667,28 -4,42 -12.939,-1.889 -25.939,-3.389 -39,-4.5 -6.333,-0.667 -12.667,-0.667 -19,0 -12.946,1.871 -16.779,9.038 -11.5,21.5 3.632,3.106 7.799,5.273 12.5,6.5 15.416,2.937 30.416,7.27 45,13 12.138,6.098 18.971,15.932 20.5,29.5 1.627,16.285 0.294,32.285 -4,48 -9.055,18.132 -23.888,27.632 -44.5,28.5 -29.29,2.922 -57.957,-0.078 -86,-9 -0.457,-0.414 -0.791,-0.914 -1,-1.5 2.923,-12.948 5.59,-25.948 8,-39 17.026,4.589 34.36,7.256 52,8 7.005,0.55 13.672,-0.617 20,-3.5 1.201,-0.903 2.035,-2.069 2.5,-3.5 4.84,-12.48 1.007,-20.647 -11.5,-24.5 -16.987,-3.33 -33.32,-8.663 -49,-16 -10.26,-6.68 -15.76,-16.18 -16.5,-28.5 -0.667,-11.333 -0.667,-22.667 0,-34 2.568,-16.224 11.401,-27.39 26.5,-33.5 10.212,-3.346 20.545,-5.179 31,-5.5 z"
         id="path304" /></g></g></svg>
