<?xml version="1.0" encoding="UTF-8" standalone="no"?>
<svg
   viewBox="0 0 11.411164 13.997432"
   width="11.411164pt"
   height="13.997432pt"
   version="1.1"
   id="svg12"
   xmlns="http://www.w3.org/2000/svg"
   xmlns:svg="http://www.w3.org/2000/svg">
  <defs
     id="defs16" />
  <path
     d="M 6.2961399,1.2180907 C 7.2158299,0.0059096 8.4944189,0 8.4944189,0 c 0,0 0.190187,1.1396562 -0.723477,2.2375084 -0.975568,1.1722625 -2.084433,0.9804419 -2.084433,0.9804419 0,0 -0.208216,-0.9219438 0.609631,-1.9998596 z m -0.492658,2.7981846 c 0.473135,0 1.351252,-0.650378 2.494241,-0.650378 1.9674611,0 2.7414581,1.3999778 2.7414581,1.3999778 0,0 -1.5138001,0.773974 -1.5138001,2.6519853 0,2.118558 1.8857831,2.8486816 1.8857831,2.8486816 0,0 -1.318232,3.710332 -3.0987921,3.710332 -0.817802,0 -1.453601,-0.551111 -2.315276,-0.551111 -0.878117,0 -1.749518,0.571668 -2.3170695,0.571668 C 2.0541038,13.997477 1.2791748e-7,10.477838 1.2791748e-7,7.6486344 1.2791748e-7,4.8650961 1.738665,3.404896 3.3694615,3.404896 c 1.0601644,0 1.8828634,0.6113793 2.4340204,0.6113793 z"
     fill="#999"
     id="path1066"
     style="fill:#ffffff;stroke-width:0.0229946" />
</svg>
