<svg version="1.1" id="Layer_1" xmlns="http://www.w3.org/2000/svg" xmlns:xlink="http://www.w3.org/1999/xlink" x="0px" y="0px"
	 width="100%" viewBox="0 0 1583 740" enable-background="new 0 0 1583 740" xml:space="preserve">
<path fill="#FFFFFF" opacity="1.000000" stroke="none" 
	d="
M1076.000000,741.000000 
	C717.333313,741.000000 359.166656,741.000000 1.000000,741.000000 
	C1.000000,494.333344 1.000000,247.666672 1.000000,1.000000 
	C528.666687,1.000000 1056.333374,1.000000 1584.000000,1.000000 
	C1584.000000,247.666672 1584.000000,494.333344 1584.000000,741.000000 
	C1414.833374,741.000000 1245.666626,741.000000 1076.000000,741.000000 
M224.178360,493.963684 
	C238.812561,483.752228 245.997070,468.057678 254.535660,452.829590 
	C255.868729,455.777466 257.278473,458.815369 256.792084,461.511139 
	C255.819580,466.901031 254.378723,472.365173 252.102356,477.326569 
	C247.900131,486.485443 242.888382,495.269928 238.360428,504.283966 
	C236.898438,507.194489 235.299759,509.991821 239.809128,512.488342 
	C250.482574,518.397644 260.814240,524.920471 271.372406,531.042969 
	C279.494019,535.752502 287.809296,538.856140 296.520874,532.205872 
	C296.754517,532.027466 297.199677,532.145630 297.468140,531.990479 
	C308.591827,525.560364 319.768921,519.218750 330.785736,512.609985 
	C334.253723,510.529602 334.759796,507.916382 332.140259,503.991730 
	C324.158264,492.032806 317.856049,479.208191 314.502991,465.081573 
	C313.117310,459.243591 313.732941,455.688019 317.163788,453.390747 
	C318.175110,455.457031 319.173248,457.490692 320.166534,459.526764 
	C325.887604,471.254211 332.668732,482.256378 342.580231,490.958344 
	C344.776672,492.886780 347.608887,494.091095 350.148376,495.628815 
	C350.468445,495.171783 350.788513,494.714752 351.108612,494.257721 
	C350.800812,493.362549 350.525513,492.454681 350.180206,491.574249 
	C346.979065,483.411835 343.617218,475.307922 340.633575,467.067017 
	C339.530914,464.021454 338.902374,460.575623 342.557465,457.143463 
	C346.837830,467.030823 354.006958,473.138489 363.026337,478.428223 
	C365.829712,472.617371 368.390015,467.200348 371.044128,461.829681 
	C378.702972,446.332031 380.394623,429.509399 380.725342,412.707489 
	C380.905884,403.534821 379.318451,394.010590 376.735870,385.168427 
	C371.862976,368.484924 361.172516,353.995392 340.494843,355.889587 
	C330.906982,356.767883 328.905884,358.640961 331.002655,367.765533 
	C331.219788,368.710419 331.574127,369.623444 331.798828,370.566986 
	C332.912720,375.243286 330.252380,380.193878 325.685974,381.982361 
	C316.276978,385.667511 305.096527,379.714966 303.122711,369.463318 
	C301.888916,363.055054 301.565216,356.459808 301.024292,349.932617 
	C300.136566,339.220612 294.578217,332.971680 283.318878,331.719757 
	C276.271667,330.936096 270.335602,333.651703 263.914490,334.705536 
	C259.882874,335.367157 255.844620,337.053223 252.254471,339.071503 
	C247.711441,341.625519 246.876205,346.341156 249.418655,350.721680 
	C256.411743,346.746063 266.649536,349.494415 269.223480,356.150574 
	C273.300354,366.693237 265.509247,381.436462 254.326462,382.982880 
	C243.687637,384.454071 237.927765,379.617828 239.051178,370.030212 
	C239.255676,368.284973 239.959930,366.577881 240.575287,364.905334 
	C241.950363,361.167877 240.504547,358.127838 236.988098,357.674194 
	C230.599380,356.850037 223.796616,355.764313 217.670486,357.099487 
	C204.960403,359.869659 199.145828,370.389313 195.100037,381.538757 
	C189.748062,396.287781 189.589905,411.521118 190.722061,427.156525 
	C192.011139,444.958984 198.299286,460.661621 206.465485,476.008667 
	C207.589554,478.121185 208.483505,478.578094 210.542969,477.006042 
	C216.935974,472.126190 223.188843,467.157623 227.029968,459.846710 
	C227.478745,458.992523 227.875443,458.111023 228.296249,457.242157 
	C229.081833,457.608032 229.867401,457.973938 230.652969,458.339813 
	C230.085693,462.565399 230.140671,466.999146 228.812286,470.970123 
	C226.548843,477.736145 223.366669,484.191498 220.697113,490.828308 
	C220.250092,491.939636 220.442383,493.308105 220.339279,494.557800 
	C221.368500,494.415497 222.397720,494.273224 224.178360,493.963684 
M1140.504761,383.003754 
	C1138.194702,374.415070 1135.884521,365.826416 1133.591187,357.299927 
	C1122.337524,357.299927 1111.268188,357.299927 1101.374146,357.299927 
	C1100.917358,362.041107 1101.405396,366.680939 1099.921875,370.568512 
	C1095.347534,382.555420 1090.381592,394.425385 1084.908325,406.029694 
	C1074.535767,428.021637 1063.271606,449.602081 1053.281128,471.760742 
	C1049.404663,480.358734 1043.122559,484.537750 1034.911743,485.806824 
	C1025.193115,487.308960 1015.253906,487.579285 1005.394714,487.895233 
	C1000.304260,488.058350 997.838074,485.241241 998.047058,480.202637 
	C998.573730,467.505493 999.311890,454.816711 1000.021973,442.127777 
	C1000.279480,437.526886 1000.635193,432.929291 1001.055237,428.340149 
	C1002.341736,414.283417 1003.604065,400.223755 1005.026306,386.180450 
	C1006.020935,376.358917 1006.655334,366.420563 1012.083862,357.263123 
	C998.003662,357.263123 984.309509,357.263123 971.943909,357.263123 
	C972.626160,364.457520 973.956116,371.709442 973.860657,378.942566 
	C973.684326,392.307129 972.836792,405.671387 971.968872,419.016266 
	C970.794250,437.078461 969.415466,455.128510 967.972961,473.171692 
	C967.029053,484.977661 966.189941,496.845184 959.964355,507.790863 
	C995.744446,507.790863 1031.143921,507.790863 1066.451050,507.790863 
	C1066.451050,504.420349 1065.609009,500.950470 1066.603638,498.127747 
	C1070.048462,488.351349 1074.275146,478.853363 1077.895874,469.134521 
	C1079.177734,465.693756 1081.164551,464.886292 1084.590454,464.926575 
	C1100.343872,465.111938 1116.130371,465.426666 1131.710205,461.120789 
	C1132.180786,462.519379 1132.602051,463.731903 1132.997681,464.952667 
	C1137.045654,477.443237 1140.869263,490.014343 1145.312866,502.362427 
	C1146.242676,504.946228 1149.364258,508.435852 1151.629883,508.554016 
	C1162.023804,509.096130 1172.472534,508.589539 1182.901489,508.459412 
	C1182.983032,507.945374 1183.064697,507.431335 1183.146240,506.917297 
	C1175.144775,499.099457 1171.198242,489.071136 1167.996582,478.796753 
	C1161.816284,458.963562 1155.868286,439.054443 1150.123535,419.090576 
	C1146.756836,407.390167 1143.967896,395.523499 1140.504761,383.003754 
M448.000000,378.562439 
	C447.666718,385.326843 447.394958,392.094940 446.985626,398.854736 
	C446.378082,408.887421 445.682220,418.914795 445.007660,428.943329 
	C444.012634,443.736511 443.159241,458.541718 441.927887,473.315308 
	C441.387329,479.801086 440.349945,486.281982 439.005585,492.652679 
	C437.923157,497.781891 436.039734,502.742035 434.444061,508.000000 
	C452.132843,508.000000 469.812592,508.565247 487.432220,507.780518 
	C497.437988,507.334900 507.603333,505.575256 517.234558,502.801971 
	C530.642029,498.941254 541.367798,490.987244 547.687927,477.864594 
	C550.974121,471.041382 551.174805,463.968323 551.024231,456.694977 
	C550.782288,445.004791 545.397156,436.063416 535.555725,430.438171 
	C529.101746,426.749176 521.700500,424.717346 515.999512,422.450653 
	C520.183716,420.078522 525.675415,417.294952 530.823486,413.978088 
	C541.647217,407.004425 547.797913,392.168854 544.829956,379.905396 
	C542.977783,372.252289 539.548889,365.032898 531.687317,362.115997 
	C525.068665,359.660278 517.950745,357.441437 510.988983,357.227295 
	C490.346191,356.592377 469.671356,356.995209 449.009033,357.009521 
	C447.422882,357.010620 445.836792,357.146545 445.270630,357.172699 
	C446.206848,364.175018 447.103424,370.880707 448.000000,378.562439 
M714.012207,463.747467 
	C712.621338,478.608948 712.915466,493.807068 705.029785,507.711304 
	C718.979797,507.711304 732.676086,507.711304 745.689880,507.711304 
	C739.964722,485.619385 744.086914,463.393921 744.802734,440.650299 
	C751.976440,442.150757 754.694702,447.525330 757.955933,452.034790 
	C770.953186,470.006958 783.686523,488.170563 796.741882,506.099884 
	C799.556763,509.965668 802.814453,513.957581 808.397400,513.981750 
	C820.067444,514.032227 831.737732,513.997009 843.857544,513.997009 
	C818.267578,489.220123 801.133606,459.422516 778.940369,433.424530 
	C804.463989,424.839508 816.546631,409.732788 813.919189,383.160187 
	C813.098938,374.864014 809.671509,367.249481 801.807434,363.619995 
	C795.122620,360.534790 787.715271,357.571075 780.523682,357.298645 
	C758.917725,356.480164 737.260925,357.003784 716.424683,357.003784 
	C717.294373,362.690033 718.934448,368.278015 718.850403,373.839966 
	C718.610718,389.709473 717.670532,405.568420 717.004395,421.431458 
	C716.671326,429.362976 716.481445,437.304199 715.951660,445.222626 
	C715.558167,451.103180 714.721558,456.954102 714.012207,463.747467 
M599.061584,404.685669 
	C582.329773,439.751831 568.363831,476.291748 544.156494,507.668671 
	C556.481079,507.668671 568.657227,507.668671 580.671570,507.668671 
	C580.671570,503.795898 579.760681,499.946625 580.844482,496.780090 
	C583.940491,487.734711 588.173279,479.079254 591.291443,470.040192 
	C592.757080,465.791504 594.791382,464.802795 599.032898,464.886322 
	C614.628906,465.193481 630.262146,465.400269 645.644531,461.149689 
	C648.866821,472.046082 651.834473,482.850098 655.268066,493.503876 
	C659.854980,507.736023 661.829895,509.107727 676.637695,508.951813 
	C683.411865,508.880463 690.180542,508.290283 696.465393,507.960938 
	C692.493713,501.095490 687.592468,495.173706 685.399170,488.377991 
	C677.122375,462.733643 669.564941,436.851929 662.054993,410.967133 
	C656.868103,393.089294 652.202148,375.060303 647.334351,357.212097 
	C636.170898,357.212097 625.203918,357.212097 615.060120,357.212097 
	C614.847229,361.682434 615.693115,366.288788 614.252502,370.009888 
	C609.791931,381.531250 604.461243,392.715698 599.061584,404.685669 
M1362.020264,464.785492 
	C1364.881592,472.932037 1362.027222,480.861969 1354.015137,485.965820 
	C1340.618164,494.499908 1319.663940,491.562744 1307.093018,479.430603 
	C1302.410645,474.911682 1298.677612,469.409149 1294.248291,464.035492 
	C1293.391357,477.023865 1292.550293,489.773682 1291.713623,502.454407 
	C1308.789917,508.236481 1325.357300,512.308716 1343.144165,510.165344 
	C1356.284302,508.581879 1368.403320,504.987244 1378.658447,496.632507 
	C1392.820801,485.094788 1397.838989,465.664581 1390.361206,448.807007 
	C1385.705811,438.311829 1377.258423,431.412598 1368.182617,424.996613 
	C1357.527710,417.464386 1346.619019,410.196991 1336.630249,401.846039 
	C1328.513306,395.059875 1331.052124,381.772400 1340.659302,377.140137 
	C1352.953735,371.212036 1365.031982,372.881500 1376.151733,379.928680 
	C1381.290283,383.185181 1385.343140,388.154449 1390.328125,392.752960 
	C1391.589111,380.852386 1392.833984,369.103058 1394.084961,357.296814 
	C1388.472412,356.769318 1383.512329,356.633423 1378.676880,355.786469 
	C1364.412842,353.287964 1350.185913,353.067383 1336.011963,356.093048 
	C1324.696533,358.508545 1314.625610,363.942932 1308.396240,373.599670 
	C1298.222778,389.369843 1298.787720,410.964142 1313.693970,424.879181 
	C1321.632568,432.289978 1330.993042,438.242645 1340.016724,444.407074 
	C1348.212524,450.005981 1357.566406,454.159790 1362.020264,464.785492 
M861.516113,371.988007 
	C850.011353,382.351776 842.293823,395.001465 838.478821,410.029602 
	C834.782532,424.590179 832.764771,439.229492 834.940918,454.306274 
	C836.994568,468.534760 841.743164,481.584381 851.698730,492.074707 
	C869.079224,510.388947 890.502808,514.184021 914.312988,508.320831 
	C934.631042,503.317566 945.578003,489.289948 952.184265,469.100708 
	C949.711548,470.707550 948.355042,471.553101 947.035156,472.452423 
	C935.847900,480.074615 923.889038,486.351776 910.186279,486.837952 
	C890.373413,487.540894 875.690979,478.097931 868.984863,458.082367 
	C865.140564,446.608337 865.248657,434.854309 866.984192,423.015106 
	C869.006226,409.221954 873.347534,396.391602 882.751892,385.792023 
	C897.255127,369.445618 925.646240,369.190277 939.864746,388.335297 
	C941.823120,390.972168 943.908020,393.515015 946.511108,396.837494 
	C947.828247,382.974609 949.042175,370.198181 950.298645,356.974426 
	C947.488281,356.974426 945.484802,357.221619 943.560730,356.935120 
	C928.744324,354.729126 913.955261,352.559692 898.918335,354.973816 
	C885.118103,357.189392 872.484497,361.876740 861.516113,371.988007 
M1211.938599,442.869873 
	C1212.288696,446.622192 1213.073608,450.395752 1212.891235,454.122009 
	C1212.587402,460.332306 1211.496704,466.499939 1211.037354,472.707733 
	C1210.147949,484.725372 1208.608521,496.570435 1203.151855,507.763000 
	C1217.035156,507.763000 1230.712524,507.763000 1244.105469,507.763000 
	C1243.042114,503.881714 1241.285034,500.182709 1241.140625,496.421722 
	C1240.736938,485.915436 1240.452271,475.346222 1241.164429,464.872803 
	C1241.801147,455.511383 1242.771973,445.970245 1248.069336,437.670898 
	C1258.232544,421.748352 1268.305176,405.766998 1278.586548,389.921112 
	C1286.124634,378.303070 1293.904541,366.837280 1304.416138,357.221649 
	C1290.715698,357.221649 1277.151733,357.221649 1263.423950,357.221649 
	C1266.182373,363.865753 1266.206543,370.605743 1262.558960,376.768066 
	C1256.177734,387.548706 1249.394775,398.093628 1242.674805,408.670471 
	C1240.371216,412.296509 1237.752197,415.722107 1235.312134,419.189728 
	C1227.369385,401.005310 1219.758667,383.274780 1211.843384,365.681213 
	C1209.931641,361.432037 1207.589844,356.374634 1202.139648,356.251465 
	C1190.921509,355.997925 1179.600586,354.887787 1168.600342,357.316406 
	C1171.938599,361.576172 1175.374756,365.370697 1178.149048,369.599396 
	C1192.903442,392.087646 1203.114258,416.699921 1211.938599,442.869873 
M907.510742,255.012924 
	C909.310852,260.235016 911.142151,265.446625 912.904236,270.681488 
	C916.128845,280.260986 916.111938,280.269470 925.749329,279.936707 
	C926.063293,279.925873 926.370972,279.731201 926.654541,279.631714 
	C932.195557,262.921143 937.729736,246.231277 943.443420,229.000000 
	C941.009949,229.000000 939.475647,229.249939 938.054443,228.954956 
	C933.000366,227.905960 931.137634,230.616852 930.009338,234.973007 
	C927.373413,245.150040 924.480469,255.260483 921.543396,265.936554 
	C918.385925,255.842819 915.518555,246.376892 912.455688,236.974655 
	C909.716553,228.566238 909.621399,228.597229 900.387939,229.267090 
	C896.743591,240.792969 893.072815,252.402359 889.402039,264.011749 
	C886.585815,257.473572 884.606506,251.021027 883.016785,244.473907 
	C879.208130,228.788803 879.282043,228.768951 867.369080,229.039078 
	C867.088928,229.045410 866.812683,229.223618 866.225891,229.430496 
	C872.003723,246.285919 877.778137,263.131409 883.487854,279.788116 
	C887.175415,279.788116 890.473755,279.788116 893.570251,279.788116 
	C897.223816,268.846863 900.793762,258.156067 904.644531,246.624390 
	C905.628052,249.731079 906.356689,252.032776 907.510742,255.012924 
M353.099365,238.513611 
	C343.020020,223.547318 330.449127,225.844513 317.110870,233.078262 
	C317.006958,231.912109 316.883118,230.522644 316.768585,229.237152 
	C312.983887,229.237152 309.713531,229.237152 306.246033,229.237152 
	C306.246033,253.504608 306.246033,277.534668 306.246033,301.710327 
	C309.881836,301.710327 313.266724,301.710327 317.094513,301.710327 
	C317.094513,294.037506 317.094513,286.644012 317.094513,280.457458 
	C323.713287,280.644043 329.999664,281.551270 336.085968,280.811859 
	C344.070068,279.841827 350.374603,275.394867 353.990173,267.928284 
	C358.652527,258.300018 357.720642,248.660446 353.099365,238.513611 
M835.528748,234.021515 
	C831.866516,232.015152 828.349854,228.703415 824.511536,228.275177 
	C816.609558,227.393570 808.130310,226.640060 802.207947,235.818344 
	C802.031128,232.679535 801.934753,230.969269 801.843567,229.351105 
	C798.353271,229.351105 795.288757,229.351105 792.384277,229.351105 
	C792.384277,253.755325 792.384277,277.806702 792.384277,301.741913 
	C796.047180,301.741913 799.323669,301.741913 803.035217,301.741913 
	C803.035217,294.089294 803.035217,286.684723 803.035217,280.444641 
	C809.485657,280.637543 815.569214,281.421448 821.516724,280.832336 
	C827.780640,280.211853 833.476135,277.403046 837.019043,271.757660 
	C844.909363,259.184937 844.000366,246.755798 835.528748,234.021515 
M751.596680,234.074890 
	C747.764954,228.696976 741.735535,226.972534 736.013977,227.320663 
	C730.562256,227.652344 725.264587,230.515488 719.856140,232.279770 
	C719.856140,224.666733 719.856140,216.067322 719.856140,207.271866 
	C716.158264,207.271866 712.772095,207.271866 709.295715,207.271866 
	C709.295715,231.586441 709.295715,255.628052 709.295715,279.655884 
	C712.986694,279.655884 716.373596,279.655884 720.000000,279.655884 
	C720.000000,270.506927 719.949158,261.699829 720.013855,252.893600 
	C720.082825,243.495163 726.067078,236.908173 734.323486,237.000076 
	C741.433472,237.079224 744.999268,242.162384 744.999878,252.221619 
	C745.000427,261.332764 745.000000,270.443909 745.000000,279.715912 
	C748.866882,279.715912 752.253052,279.715912 755.993652,279.715912 
	C755.993652,268.645721 756.349243,257.838104 755.815491,247.074600 
	C755.607361,242.877731 753.397156,238.780151 751.596680,234.074890 
M610.997131,255.379852 
	C610.998108,254.546585 611.021912,253.712616 610.996643,252.880157 
	C610.369385,232.214996 592.338501,220.799835 573.996033,230.104645 
	C561.318909,236.535553 559.395386,248.395096 561.568176,262.012939 
	C562.613708,268.565735 566.019409,273.908569 571.877075,277.322113 
	C578.403931,281.125580 585.322815,282.298096 592.936707,281.126770 
	C599.887329,280.057434 605.676697,277.585022 610.035706,272.284637 
	C607.853638,270.011780 605.940796,268.019348 603.903687,265.897522 
	C595.815491,272.733063 586.975037,274.711548 577.768982,268.784058 
	C574.389099,266.607788 571.634888,263.078430 572.261047,257.999969 
	C583.914307,257.999969 595.233765,258.061523 606.550903,257.925201 
	C608.033203,257.907349 609.503296,256.874695 610.997131,255.379852 
M1028.040283,245.971817 
	C1028.385742,245.233170 1028.633911,244.427048 1029.092285,243.766693 
	C1032.300293,239.143692 1036.447021,236.204437 1042.368652,237.042343 
	C1048.022461,237.842346 1050.810669,241.455322 1051.452637,246.937653 
	C1051.661987,248.725128 1051.965088,250.517914 1051.975586,252.309723 
	C1052.028809,261.414215 1052.000000,270.519226 1052.000000,279.682129 
	C1055.934570,279.682129 1059.321411,279.682129 1061.985718,279.682129 
	C1061.985718,267.134705 1062.586792,254.873337 1061.804810,242.700821 
	C1061.118530,232.018494 1050.978638,225.434937 1040.257935,228.013763 
	C1035.302124,229.205856 1030.623901,231.551376 1025.808594,233.378220 
	C1025.808594,225.297760 1025.808594,216.358353 1025.808594,207.295319 
	C1022.444092,207.295319 1019.389893,207.295319 1016.320740,207.295319 
	C1016.320740,231.638092 1016.320740,255.684158 1016.320740,279.627319 
	C1019.706055,279.627319 1022.761475,279.627319 1026.000000,279.627319 
	C1026.000000,275.103577 1025.766846,270.935181 1026.052979,266.802734 
	C1026.515991,260.116455 1027.320312,253.453781 1028.040283,245.971817 
M398.185089,229.035049 
	C386.599060,225.029938 375.906006,226.704056 365.628967,233.898285 
	C367.820435,236.601730 369.726715,238.953369 371.548187,241.200378 
	C379.162109,236.081970 386.664764,234.210709 394.559113,238.362976 
	C397.653870,239.990723 398.637756,243.207291 397.740692,246.479889 
	C390.438934,247.010010 383.436279,246.921478 376.683197,248.176041 
	C369.881531,249.439636 365.618835,254.363113 364.087219,261.147949 
	C362.571533,267.862213 365.283539,276.254974 370.501190,278.640961 
	C379.520477,282.765381 388.609375,282.490845 397.041901,276.525574 
	C397.401062,276.271515 397.925598,276.251190 398.641602,276.044495 
	C398.893646,277.395660 399.117126,278.593811 399.311768,279.637146 
	C402.667053,279.637146 405.732513,279.637146 408.999146,279.637146 
	C408.999146,268.128723 409.280060,256.972229 408.897583,245.838501 
	C408.654083,238.750458 406.470245,232.284332 398.185089,229.035049 
M540.000000,266.491760 
	C540.000000,270.917450 540.000000,275.343170 540.000000,279.611816 
	C544.071045,279.611816 547.459351,279.611816 550.998840,279.611816 
	C550.998840,268.073822 551.180237,256.919373 550.939941,245.774033 
	C550.756531,237.263626 544.426636,229.247040 537.515442,228.023056 
	C529.295898,226.567368 521.687500,227.555466 515.392639,233.868729 
	C514.669006,232.140213 514.057068,230.678604 513.503601,229.356705 
	C510.352997,229.356705 507.283112,229.356705 504.387085,229.356705 
	C504.387085,246.433060 504.387085,263.150238 504.387085,279.740173 
	C508.054077,279.740173 511.328461,279.740173 515.000000,279.740173 
	C515.000000,272.864471 514.746704,266.227814 515.084106,259.621368 
	C515.331787,254.770523 515.906982,249.841217 517.144043,245.160355 
	C518.673096,239.374603 524.866272,236.138184 531.241089,237.011337 
	C535.954102,237.656891 539.917725,242.791702 539.985168,248.509491 
	C540.052002,254.170685 539.999939,259.833282 540.000000,266.491760 
M264.000000,269.476135 
	C264.000000,272.907227 264.000000,276.338318 264.000000,279.611847 
	C268.068115,279.611847 271.457794,279.611847 273.995148,279.611847 
	C273.995148,266.804291 274.730774,254.334183 273.772797,241.995560 
	C272.939331,231.260651 262.924255,225.956985 252.614227,227.889938 
	C247.594269,228.831100 242.881470,231.410629 238.058441,233.237610 
	C238.030884,232.727676 237.938416,231.017014 237.846695,229.320129 
	C234.425735,229.320129 231.354401,229.320129 228.363815,229.320129 
	C228.363815,246.367310 228.363815,263.091980 228.363815,279.762268 
	C232.005707,279.762268 235.281357,279.762268 239.000000,279.762268 
	C239.000000,271.076691 238.700089,262.606201 239.136459,254.173843 
	C239.331680,250.401382 240.501556,246.468475 242.122726,243.029648 
	C244.619049,237.734467 249.634979,236.354507 255.060394,237.071243 
	C259.638794,237.676102 262.623871,240.730804 263.004913,245.237106 
	C263.657745,252.958084 263.700867,260.730621 264.000000,269.476135 
M659.897400,250.507889 
	C663.193054,252.680222 666.285339,255.304443 669.838745,256.904144 
	C673.785156,258.680756 678.359375,259.086426 682.257629,260.937103 
	C684.560059,262.030151 687.822876,265.000641 687.592041,266.714539 
	C687.116882,270.243652 683.653687,271.759766 679.792236,272.069427 
	C672.783386,272.631470 666.635315,270.847321 661.157837,265.862823 
	C660.161377,267.050018 659.467102,267.999329 658.651184,268.828918 
	C654.189270,273.365509 654.086609,273.943085 659.782043,277.265564 
	C669.367188,282.857147 679.606689,283.494293 689.597961,278.872528 
	C692.952942,277.320587 696.553772,273.872070 697.726868,270.487823 
	C701.211975,260.434204 695.955261,253.926208 686.458313,250.999680 
	C681.662964,249.521942 676.745544,248.337006 672.134827,246.416077 
	C670.395264,245.691330 667.994324,242.877625 668.325745,241.700943 
	C668.852722,239.830536 671.172363,237.976990 673.166504,237.096725 
	C679.995422,234.082367 685.706665,237.679642 691.644592,241.211884 
	C692.337769,240.393494 692.938782,239.589142 693.634644,238.877563 
	C698.188232,234.220627 698.008545,232.911331 692.195007,230.045441 
	C684.647278,226.324615 676.605408,225.724030 668.794556,228.254410 
	C658.378967,231.628601 654.107239,240.415024 659.897400,250.507889 
M478.804688,268.331512 
	C478.804688,258.325836 478.804688,248.320145 478.804688,237.806641 
	C483.013641,237.806641 487.413177,237.806641 491.781860,237.806641 
	C491.781860,234.693680 491.781860,232.086746 491.781860,228.975189 
	C487.183746,228.975189 482.776855,228.975189 477.890656,228.975189 
	C477.890656,223.081314 477.890656,217.680389 477.890656,212.356857 
	C473.984375,212.356857 470.598389,212.356857 466.715027,212.356857 
	C466.715027,218.103134 466.715027,223.500229 466.715027,229.192703 
	C463.593231,229.192703 460.980255,229.192703 458.305389,229.192703 
	C458.305389,232.255219 458.305389,234.978714 458.305389,238.201340 
	C461.331299,238.201340 464.065521,238.201340 467.000000,238.201340 
	C467.000000,247.514099 466.992584,256.321106 467.002258,265.128082 
	C467.010742,272.869446 470.676605,278.966125 476.396484,280.791382 
	C483.902863,283.186707 493.467743,280.587646 498.058197,274.747620 
	C497.441803,274.066895 496.566803,273.450287 496.175354,272.608704 
	C494.323242,268.627319 492.138916,268.545166 488.588409,270.971375 
	C485.266205,273.241577 481.699707,272.499420 478.804688,268.331512 
M989.000000,218.561493 
	C989.000000,216.461929 989.000000,214.362366 989.000000,212.373810 
	C985.293274,212.373810 982.236755,212.373810 978.854614,212.373810 
	C978.854614,218.020660 978.854614,223.299225 978.854614,229.068146 
	C975.458252,229.068146 972.391785,229.068146 969.334839,229.068146 
	C969.334839,232.311554 969.334839,235.034775 969.334839,238.260574 
	C972.731323,238.260574 975.792908,238.260574 979.000000,238.260574 
	C979.000000,247.596420 978.999023,256.419098 979.000305,265.241760 
	C979.001465,273.253845 981.584656,278.501465 987.030518,279.986694 
	C995.129639,282.195557 1005.364014,281.991455 1009.112915,274.668549 
	C1007.655396,272.808868 1006.080750,270.799805 1004.375366,268.623901 
	C1003.474365,269.279785 1002.975342,269.667908 1002.452148,270.020050 
	C996.058228,274.323853 990.846985,272.833282 990.017334,265.333313 
	C989.031494,256.421600 989.785339,247.317429 989.785339,237.786133 
	C994.367798,237.786133 999.103699,237.786133 1003.766235,237.786133 
	C1003.766235,234.663376 1003.766235,232.054886 1003.766235,228.942139 
	C998.814514,228.942139 994.073120,228.942139 989.000000,228.942139 
	C989.000000,225.469833 989.000000,222.501221 989.000000,218.561493 
M203.000000,230.500031 
	C203.000000,246.921280 203.000000,263.342529 203.000000,279.610413 
	C207.071823,279.610413 210.461090,279.610413 213.749374,279.610413 
	C213.749374,255.287933 213.749374,231.355850 213.749374,207.299301 
	C210.104996,207.299301 206.717041,207.299301 203.000000,207.299301 
	C203.000000,214.896622 203.000000,222.198349 203.000000,230.500031 
M629.906860,229.049088 
	C626.995789,229.049088 624.084717,229.049088 621.390869,229.049088 
	C621.390869,246.457993 621.390869,263.163635 621.390869,279.740417 
	C625.056946,279.740417 628.330261,279.740417 632.000000,279.740417 
	C632.000000,271.538361 632.386902,263.566193 631.908081,255.646408 
	C631.212036,244.133789 640.241638,235.384872 651.607056,238.847305 
	C652.084045,236.641052 652.237854,234.296204 653.108948,232.257935 
	C654.670593,228.604126 653.000305,228.148666 649.887756,227.940475 
	C642.941650,227.475922 636.899780,229.085831 632.466797,235.149948 
	C631.744568,232.770462 631.223816,231.054794 629.906860,229.049088 
M421.000000,264.496552 
	C421.000000,269.590393 421.000000,274.684235 421.000000,279.608582 
	C425.076263,279.608582 428.465149,279.608582 431.773254,279.608582 
	C431.868256,279.055725 431.919800,278.894348 431.920319,278.732788 
	C431.949615,269.739349 431.933838,260.745544 432.012268,251.752579 
	C432.081696,243.792831 440.373077,236.321640 447.917511,238.196960 
	C454.499634,239.833069 451.678375,234.272354 452.736481,232.291824 
	C454.126892,229.689270 452.160950,228.151367 448.836731,227.887009 
	C441.855316,227.331833 436.463196,230.552612 431.136414,234.816635 
	C431.005493,232.565598 430.911591,230.951080 430.815674,229.302124 
	C427.464966,229.302124 424.391663,229.302124 421.000000,229.302124 
	C421.000000,240.900269 421.000000,252.199188 421.000000,264.496552 
M779.000000,265.494995 
	C779.000000,253.406219 779.000000,241.317444 779.000000,229.391296 
	C774.924438,229.391296 771.535339,229.391296 768.253235,229.391296 
	C768.253235,246.383377 768.253235,262.983124 768.253235,279.698425 
	C771.900208,279.698425 775.287903,279.698425 779.000000,279.698425 
	C779.000000,275.097534 779.000000,270.794556 779.000000,265.494995 
M961.000000,234.619324 
	C961.000000,232.848282 961.000000,231.077240 961.000000,229.353424 
	C957.333069,229.353424 954.276672,229.353424 951.396362,229.353424 
	C951.396362,246.428589 951.396362,263.147766 951.396362,279.732483 
	C954.737183,279.732483 957.679443,279.732483 961.000000,279.732483 
	C961.000000,264.842468 961.000000,250.216461 961.000000,234.619324 
M959.316711,220.997482 
	C960.206177,220.346313 961.801575,219.755798 961.863647,219.033524 
	C962.142273,215.790817 961.984985,212.510635 961.984985,209.376633 
	C957.611328,209.376633 953.886658,209.376633 950.248413,209.376633 
	C950.248413,213.364487 950.248413,216.973495 950.248413,220.999710 
	C953.114807,220.999710 955.739685,220.999710 959.316711,220.997482 
M777.316711,220.997437 
	C778.206116,220.346268 779.801453,219.755768 779.863586,219.033508 
	C780.142212,215.790802 779.984985,212.510635 779.984985,209.376633 
	C775.611328,209.376633 771.886658,209.376633 768.248413,209.376633 
	C768.248413,213.364487 768.248413,216.973495 768.248413,220.999710 
	C771.114807,220.999710 773.739685,220.999710 777.316711,220.997437 
z"/>
<path fill="#00AEEF" opacity="1.000000" stroke="none" 
	d="
M223.802643,494.047302 
	C222.397720,494.273224 221.368500,494.415497 220.339264,494.557800 
	C220.442383,493.308105 220.250092,491.939636 220.697113,490.828308 
	C223.366669,484.191498 226.548843,477.736145 228.812286,470.970123 
	C230.140671,466.999146 230.085693,462.565399 230.652969,458.339813 
	C229.867401,457.973938 229.081833,457.608032 228.296249,457.242157 
	C227.875443,458.111023 227.478745,458.992523 227.029968,459.846710 
	C223.188843,467.157623 216.935974,472.126190 210.542969,477.006042 
	C208.483505,478.578094 207.589554,478.121185 206.465485,476.008667 
	C198.299286,460.661621 192.011139,444.958984 190.722061,427.156525 
	C189.589905,411.521118 189.748062,396.287781 195.100037,381.538757 
	C199.145828,370.389313 204.960403,359.869659 217.670486,357.099487 
	C223.796616,355.764313 230.599380,356.850037 236.988098,357.674194 
	C240.504547,358.127838 241.950363,361.167877 240.575287,364.905334 
	C239.959930,366.577881 239.255676,368.284973 239.051178,370.030212 
	C237.927765,379.617828 243.687637,384.454071 254.326462,382.982880 
	C265.509247,381.436462 273.300354,366.693237 269.223480,356.150574 
	C266.649536,349.494415 256.411743,346.746063 249.418655,350.721680 
	C246.876205,346.341156 247.711441,341.625519 252.254471,339.071503 
	C255.844620,337.053223 259.882874,335.367157 263.914490,334.705536 
	C270.335602,333.651703 276.271667,330.936096 283.318878,331.719757 
	C294.578217,332.971680 300.136566,339.220612 301.024292,349.932617 
	C301.565216,356.459808 301.888916,363.055054 303.122711,369.463318 
	C305.096527,379.714966 316.276978,385.667511 325.685974,381.982361 
	C330.252380,380.193878 332.912720,375.243286 331.798828,370.566986 
	C331.574127,369.623444 331.219788,368.710419 331.002655,367.765533 
	C328.905884,358.640961 330.906982,356.767883 340.494843,355.889587 
	C361.172516,353.995392 371.862976,368.484924 376.735870,385.168427 
	C379.318451,394.010590 380.905884,403.534821 380.725342,412.707489 
	C380.394623,429.509399 378.702972,446.332031 371.044128,461.829681 
	C368.390015,467.200348 365.829712,472.617371 363.026337,478.428223 
	C354.006958,473.138489 346.837830,467.030823 342.557465,457.143463 
	C338.902374,460.575623 339.530914,464.021454 340.633575,467.067017 
	C343.617218,475.307922 346.979065,483.411835 350.180206,491.574249 
	C350.525513,492.454681 350.800812,493.362549 351.108612,494.257721 
	C350.788513,494.714752 350.468445,495.171783 350.148376,495.628815 
	C347.608887,494.091095 344.776672,492.886780 342.580231,490.958344 
	C332.668732,482.256378 325.887604,471.254211 320.166534,459.526764 
	C319.173248,457.490692 318.175110,455.457031 317.163788,453.390747 
	C313.732941,455.688019 313.117310,459.243591 314.502991,465.081573 
	C317.856049,479.208191 324.158264,492.032806 332.140259,503.991730 
	C334.759796,507.916382 334.253723,510.529602 330.785736,512.609985 
	C319.768921,519.218750 308.591827,525.560364 297.468140,531.990479 
	C297.199677,532.145630 296.754517,532.027466 296.520874,532.205872 
	C287.809296,538.856140 279.494019,535.752502 271.372406,531.042969 
	C260.814240,524.920471 250.482574,518.397644 239.809128,512.488342 
	C235.299759,509.991821 236.898438,507.194489 238.360428,504.283966 
	C242.888382,495.269928 247.900131,486.485443 252.102356,477.326569 
	C254.378723,472.365173 255.819580,466.901031 256.792084,461.511139 
	C257.278473,458.815369 255.868729,455.777466 254.535660,452.829590 
	C245.997070,468.057678 238.812561,483.752228 223.802643,494.047302 
z"/>
<path fill="#00AEEF" opacity="1.000000" stroke="none" 
	d="
M1140.711914,383.367706 
	C1143.967896,395.523499 1146.756836,407.390167 1150.123535,419.090576 
	C1155.868286,439.054443 1161.816284,458.963562 1167.996582,478.796753 
	C1171.198242,489.071136 1175.144775,499.099457 1183.146240,506.917297 
	C1183.064697,507.431335 1182.983032,507.945374 1182.901489,508.459412 
	C1172.472534,508.589539 1162.023804,509.096130 1151.629883,508.554016 
	C1149.364258,508.435852 1146.242676,504.946228 1145.312866,502.362427 
	C1140.869263,490.014343 1137.045654,477.443237 1132.997681,464.952667 
	C1132.602051,463.731903 1132.180786,462.519379 1131.710205,461.120789 
	C1116.130371,465.426666 1100.343872,465.111938 1084.590454,464.926575 
	C1081.164551,464.886292 1079.177734,465.693756 1077.895874,469.134521 
	C1074.275146,478.853363 1070.048462,488.351349 1066.603638,498.127747 
	C1065.609009,500.950470 1066.451050,504.420349 1066.451050,507.790863 
	C1031.143921,507.790863 995.744446,507.790863 959.964355,507.790863 
	C966.189941,496.845184 967.029053,484.977661 967.972961,473.171692 
	C969.415466,455.128510 970.794250,437.078461 971.968872,419.016266 
	C972.836792,405.671387 973.684326,392.307129 973.860657,378.942566 
	C973.956116,371.709442 972.626160,364.457520 971.943909,357.263123 
	C984.309509,357.263123 998.003662,357.263123 1012.083862,357.263123 
	C1006.655334,366.420563 1006.020935,376.358917 1005.026306,386.180450 
	C1003.604065,400.223755 1002.341736,414.283417 1001.055237,428.340149 
	C1000.635193,432.929291 1000.279480,437.526886 1000.021973,442.127777 
	C999.311890,454.816711 998.573730,467.505493 998.047058,480.202637 
	C997.838074,485.241241 1000.304260,488.058350 1005.394714,487.895233 
	C1015.253906,487.579285 1025.193115,487.308960 1034.911743,485.806824 
	C1043.122559,484.537750 1049.404663,480.358734 1053.281128,471.760742 
	C1063.271606,449.602081 1074.535767,428.021637 1084.908325,406.029694 
	C1090.381592,394.425385 1095.347534,382.555420 1099.921875,370.568512 
	C1101.405396,366.680939 1100.917358,362.041107 1101.374146,357.299927 
	C1111.268188,357.299927 1122.337524,357.299927 1133.591187,357.299927 
	C1135.884521,365.826416 1138.194702,374.415070 1140.711914,383.367706 
M1116.460449,444.000000 
	C1119.890625,444.000000 1123.320801,444.000000 1127.065918,444.000000 
	C1122.229248,427.415497 1117.567261,411.429718 1112.628174,394.494324 
	C1104.753540,411.541382 1097.363647,427.538940 1089.759644,444.000000 
	C1098.833496,444.000000 1107.151978,444.000000 1116.460449,444.000000 
z"/>
<path fill="#00AEEF" opacity="1.000000" stroke="none" 
	d="
M448.000000,378.074402 
	C447.103424,370.880707 446.206848,364.175018 445.270630,357.172699 
	C445.836792,357.146545 447.422882,357.010620 449.009033,357.009521 
	C469.671356,356.995209 490.346191,356.592377 510.988983,357.227295 
	C517.950745,357.441437 525.068665,359.660278 531.687317,362.115997 
	C539.548889,365.032898 542.977783,372.252289 544.829956,379.905396 
	C547.797913,392.168854 541.647217,407.004425 530.823486,413.978088 
	C525.675415,417.294952 520.183716,420.078522 515.999512,422.450653 
	C521.700500,424.717346 529.101746,426.749176 535.555725,430.438171 
	C545.397156,436.063416 550.782288,445.004791 551.024231,456.694977 
	C551.174805,463.968323 550.974121,471.041382 547.687927,477.864594 
	C541.367798,490.987244 530.642029,498.941254 517.234558,502.801971 
	C507.603333,505.575256 497.437988,507.334900 487.432220,507.780518 
	C469.812592,508.565247 452.132843,508.000000 434.444061,508.000000 
	C436.039734,502.742035 437.923157,497.781891 439.005585,492.652679 
	C440.349945,486.281982 441.387329,479.801086 441.927887,473.315308 
	C443.159241,458.541718 444.012634,443.736511 445.007660,428.943329 
	C445.682220,418.914795 446.378082,408.887421 446.985626,398.854736 
	C447.394958,392.094940 447.666718,385.326843 448.000000,378.074402 
M494.522949,487.120880 
	C499.180695,485.353607 504.354309,484.364655 508.404236,481.680359 
	C523.547607,471.643402 522.591858,447.802856 506.736420,440.054108 
	C496.548553,435.075165 485.419525,434.580231 473.935181,435.152100 
	C472.937225,450.526703 472.055695,465.456299 470.943237,480.368622 
	C470.637268,484.469879 472.108276,486.794403 476.149078,487.038391 
	C482.029205,487.393524 487.926453,487.465118 494.522949,487.120880 
M475.933746,410.074921 
	C475.564819,411.890289 475.195862,413.705658 474.790009,415.702606 
	C484.895935,416.786072 493.799377,415.173645 502.281067,411.243317 
	C510.379486,407.490601 514.521240,399.515259 514.326172,391.359131 
	C514.169861,384.827118 508.016235,378.807007 500.050568,377.236176 
	C493.338837,375.912598 486.331940,376.085785 478.629028,375.537598 
	C477.707123,387.282837 476.848907,398.216064 475.933746,410.074921 
z"/>
<path fill="#00AEEF" opacity="1.000000" stroke="none" 
	d="
M714.047302,463.282837 
	C714.721558,456.954102 715.558167,451.103180 715.951660,445.222626 
	C716.481445,437.304199 716.671326,429.362976 717.004395,421.431458 
	C717.670532,405.568420 718.610718,389.709473 718.850403,373.839966 
	C718.934448,368.278015 717.294373,362.690033 716.424683,357.003784 
	C737.260925,357.003784 758.917725,356.480164 780.523682,357.298645 
	C787.715271,357.571075 795.122620,360.534790 801.807434,363.619995 
	C809.671509,367.249481 813.098938,374.864014 813.919189,383.160187 
	C816.546631,409.732788 804.463989,424.839508 778.940369,433.424530 
	C801.133606,459.422516 818.267578,489.220123 843.857544,513.997009 
	C831.737732,513.997009 820.067444,514.032227 808.397400,513.981750 
	C802.814453,513.957581 799.556763,509.965668 796.741882,506.099884 
	C783.686523,488.170563 770.953186,470.006958 757.955933,452.034790 
	C754.694702,447.525330 751.976440,442.150757 744.802734,440.650299 
	C744.086914,463.393921 739.964722,485.619385 745.689880,507.711304 
	C732.676086,507.711304 718.979797,507.711304 705.029785,507.711304 
	C712.915466,493.807068 712.621338,478.608948 714.047302,463.282837 
M746.096985,420.281219 
	C746.856445,420.842316 747.581543,421.836456 748.380554,421.899994 
	C762.082703,422.989288 778.397583,417.615814 782.340393,401.031891 
	C785.061768,389.585449 782.386047,380.486969 769.912781,377.219696 
	C764.612000,375.831207 758.811157,376.167206 753.237488,376.166168 
	C752.159973,376.165985 750.284119,378.144104 750.134766,379.374512 
	C749.207031,387.017700 748.726440,394.713776 747.977783,402.380585 
	C747.422974,408.061890 746.686890,413.725555 746.096985,420.281219 
z"/>
<path fill="#00AEEF" opacity="1.000000" stroke="none" 
	d="
M599.264893,404.358307 
	C604.461243,392.715698 609.791931,381.531250 614.252502,370.009888 
	C615.693115,366.288788 614.847229,361.682434 615.060120,357.212097 
	C625.203918,357.212097 636.170898,357.212097 647.334351,357.212097 
	C652.202148,375.060303 656.868103,393.089294 662.054993,410.967133 
	C669.564941,436.851929 677.122375,462.733643 685.399170,488.377991 
	C687.592468,495.173706 692.493713,501.095490 696.465393,507.960938 
	C690.180542,508.290283 683.411865,508.880463 676.637695,508.951813 
	C661.829895,509.107727 659.854980,507.736023 655.268066,493.503876 
	C651.834473,482.850098 648.866821,472.046082 645.644531,461.149689 
	C630.262146,465.400269 614.628906,465.193481 599.032898,464.886322 
	C594.791382,464.802795 592.757080,465.791504 591.291443,470.040192 
	C588.173279,479.079254 583.940491,487.734711 580.844482,496.780090 
	C579.760681,499.946625 580.671570,503.795898 580.671570,507.668671 
	C568.657227,507.668671 556.481079,507.668671 544.156494,507.668671 
	C568.363831,476.291748 582.329773,439.751831 599.264893,404.358307 
M631.990479,412.593628 
	C630.147217,406.567352 628.304016,400.541077 626.468811,394.541077 
	C618.966919,410.729156 611.405579,427.045563 603.719604,443.630920 
	C616.487488,443.630920 628.633606,443.630920 640.878357,443.630920 
	C637.850281,433.315735 634.930298,423.368774 631.990479,412.593628 
z"/>
<path fill="#00AEEF" opacity="1.000000" stroke="none" 
	d="
M1361.989746,464.378571 
	C1357.566406,454.159790 1348.212524,450.005981 1340.016724,444.407074 
	C1330.993042,438.242645 1321.632568,432.289978 1313.693970,424.879181 
	C1298.787720,410.964142 1298.222778,389.369843 1308.396240,373.599670 
	C1314.625610,363.942932 1324.696533,358.508545 1336.011963,356.093048 
	C1350.185913,353.067383 1364.412842,353.287964 1378.676880,355.786469 
	C1383.512329,356.633423 1388.472412,356.769318 1394.084961,357.296814 
	C1392.833984,369.103058 1391.589111,380.852386 1390.328125,392.752960 
	C1385.343140,388.154449 1381.290283,383.185181 1376.151733,379.928680 
	C1365.031982,372.881500 1352.953735,371.212036 1340.659302,377.140137 
	C1331.052124,381.772400 1328.513306,395.059875 1336.630249,401.846039 
	C1346.619019,410.196991 1357.527710,417.464386 1368.182617,424.996613 
	C1377.258423,431.412598 1385.705811,438.311829 1390.361206,448.807007 
	C1397.838989,465.664581 1392.820801,485.094788 1378.658447,496.632507 
	C1368.403320,504.987244 1356.284302,508.581879 1343.144165,510.165344 
	C1325.357300,512.308716 1308.789917,508.236481 1291.713623,502.454407 
	C1292.550293,489.773682 1293.391357,477.023865 1294.248291,464.035492 
	C1298.677612,469.409149 1302.410645,474.911682 1307.093018,479.430603 
	C1319.663940,491.562744 1340.618164,494.499908 1354.015137,485.965820 
	C1362.027222,480.861969 1364.881592,472.932037 1361.989746,464.378571 
z"/>
<path fill="#00AEEF" opacity="1.000000" stroke="none" 
	d="
M861.766479,371.732788 
	C872.484497,361.876740 885.118103,357.189392 898.918335,354.973816 
	C913.955261,352.559692 928.744324,354.729126 943.560730,356.935120 
	C945.484802,357.221619 947.488281,356.974426 950.298645,356.974426 
	C949.042175,370.198181 947.828247,382.974609 946.511108,396.837494 
	C943.908020,393.515015 941.823120,390.972168 939.864746,388.335297 
	C925.646240,369.190277 897.255127,369.445618 882.751892,385.792023 
	C873.347534,396.391602 869.006226,409.221954 866.984192,423.015106 
	C865.248657,434.854309 865.140564,446.608337 868.984863,458.082367 
	C875.690979,478.097931 890.373413,487.540894 910.186279,486.837952 
	C923.889038,486.351776 935.847900,480.074615 947.035156,472.452423 
	C948.355042,471.553101 949.711548,470.707550 952.184265,469.100708 
	C945.578003,489.289948 934.631042,503.317566 914.312988,508.320831 
	C890.502808,514.184021 869.079224,510.388947 851.698730,492.074707 
	C841.743164,481.584381 836.994568,468.534760 834.940918,454.306274 
	C832.764771,439.229492 834.782532,424.590179 838.478821,410.029602 
	C842.293823,395.001465 850.011353,382.351776 861.766479,371.732788 
z"/>
<path fill="#00AEEF" opacity="1.000000" stroke="none" 
	d="
M1211.764648,442.484680 
	C1203.114258,416.699921 1192.903442,392.087646 1178.149048,369.599396 
	C1175.374756,365.370697 1171.938599,361.576172 1168.600342,357.316406 
	C1179.600586,354.887787 1190.921509,355.997925 1202.139648,356.251465 
	C1207.589844,356.374634 1209.931641,361.432037 1211.843384,365.681213 
	C1219.758667,383.274780 1227.369385,401.005310 1235.312134,419.189728 
	C1237.752197,415.722107 1240.371216,412.296509 1242.674805,408.670471 
	C1249.394775,398.093628 1256.177734,387.548706 1262.558960,376.768066 
	C1266.206543,370.605743 1266.182373,363.865753 1263.423950,357.221649 
	C1277.151733,357.221649 1290.715698,357.221649 1304.416138,357.221649 
	C1293.904541,366.837280 1286.124634,378.303070 1278.586548,389.921112 
	C1268.305176,405.766998 1258.232544,421.748352 1248.069336,437.670898 
	C1242.771973,445.970245 1241.801147,455.511383 1241.164429,464.872803 
	C1240.452271,475.346222 1240.736938,485.915436 1241.140625,496.421722 
	C1241.285034,500.182709 1243.042114,503.881714 1244.105469,507.763000 
	C1230.712524,507.763000 1217.035156,507.763000 1203.151855,507.763000 
	C1208.608521,496.570435 1210.147949,484.725372 1211.037354,472.707733 
	C1211.496704,466.499939 1212.587402,460.332306 1212.891235,454.122009 
	C1213.073608,450.395752 1212.288696,446.622192 1211.764648,442.484680 
z"/>
<path fill="#00AEEF" opacity="1.000000" stroke="none" 
	d="
M907.298096,254.673706 
	C906.356689,252.032776 905.628052,249.731079 904.644531,246.624390 
	C900.793762,258.156067 897.223816,268.846863 893.570251,279.788116 
	C890.473755,279.788116 887.175415,279.788116 883.487854,279.788116 
	C877.778137,263.131409 872.003723,246.285919 866.225891,229.430496 
	C866.812683,229.223618 867.088928,229.045410 867.369080,229.039078 
	C879.282043,228.768951 879.208130,228.788803 883.016785,244.473907 
	C884.606506,251.021027 886.585815,257.473572 889.402039,264.011749 
	C893.072815,252.402359 896.743591,240.792969 900.387939,229.267090 
	C909.621399,228.597229 909.716553,228.566238 912.455688,236.974655 
	C915.518555,246.376892 918.385925,255.842819 921.543396,265.936554 
	C924.480469,255.260483 927.373413,245.150040 930.009338,234.973007 
	C931.137634,230.616852 933.000366,227.905960 938.054443,228.954956 
	C939.475647,229.249939 941.009949,229.000000 943.443420,229.000000 
	C937.729736,246.231277 932.195557,262.921143 926.654541,279.631714 
	C926.370972,279.731201 926.063293,279.925873 925.749329,279.936707 
	C916.111938,280.269470 916.128845,280.260986 912.904236,270.681488 
	C911.142151,265.446625 909.310852,260.235016 907.298096,254.673706 
z"/>
<path fill="#00AEEF" opacity="1.000000" stroke="none" 
	d="
M353.350067,238.809952 
	C357.720642,248.660446 358.652527,258.300018 353.990173,267.928284 
	C350.374603,275.394867 344.070068,279.841827 336.085968,280.811859 
	C329.999664,281.551270 323.713287,280.644043 317.094513,280.457458 
	C317.094513,286.644012 317.094513,294.037506 317.094513,301.710327 
	C313.266724,301.710327 309.881836,301.710327 306.246033,301.710327 
	C306.246033,277.534668 306.246033,253.504608 306.246033,229.237152 
	C309.713531,229.237152 312.983887,229.237152 316.768585,229.237152 
	C316.883118,230.522644 317.006958,231.912109 317.110870,233.078262 
	C330.449127,225.844513 343.020020,223.547318 353.350067,238.809952 
M336.757843,270.703125 
	C345.036804,265.038422 347.580811,257.365601 345.023895,247.743866 
	C343.447418,241.811768 339.678955,237.809753 333.647705,237.106476 
	C328.157806,236.466339 323.587219,238.218536 320.227112,243.141174 
	C316.266418,248.943588 317.087860,255.348419 317.018982,261.680725 
	C316.938477,269.079468 319.365753,271.731934 326.762848,271.928223 
	C329.826721,272.009552 332.911438,271.308044 336.757843,270.703125 
z"/>
<path fill="#00AEEF" opacity="1.000000" stroke="none" 
	d="
M835.782715,234.289093 
	C844.000366,246.755798 844.909363,259.184937 837.019043,271.757660 
	C833.476135,277.403046 827.780640,280.211853 821.516724,280.832336 
	C815.569214,281.421448 809.485657,280.637543 803.035217,280.444641 
	C803.035217,286.684723 803.035217,294.089294 803.035217,301.741913 
	C799.323669,301.741913 796.047180,301.741913 792.384277,301.741913 
	C792.384277,277.806702 792.384277,253.755325 792.384277,229.351105 
	C795.288757,229.351105 798.353271,229.351105 801.843567,229.351105 
	C801.934753,230.969269 802.031128,232.679535 802.207947,235.818344 
	C808.130310,226.640060 816.609558,227.393570 824.511536,228.275177 
	C828.349854,228.703415 831.866516,232.015152 835.782715,234.289093 
M804.105896,269.003967 
	C808.818848,271.648712 813.692078,272.923431 819.134399,271.420441 
	C829.718628,268.497345 833.186218,258.193481 830.055359,247.231125 
	C828.012817,240.079498 822.442444,236.257553 815.921753,237.006683 
	C809.010437,237.800690 803.363953,243.333496 803.077576,250.269516 
	C802.824829,256.390717 803.204407,262.538055 804.105896,269.003967 
z"/>
<path fill="#00AEEF" opacity="1.000000" stroke="none" 
	d="
M751.847778,234.356110 
	C753.397156,238.780151 755.607361,242.877731 755.815491,247.074600 
	C756.349243,257.838104 755.993652,268.645721 755.993652,279.715912 
	C752.253052,279.715912 748.866882,279.715912 745.000000,279.715912 
	C745.000000,270.443909 745.000427,261.332764 744.999878,252.221619 
	C744.999268,242.162384 741.433472,237.079224 734.323486,237.000076 
	C726.067078,236.908173 720.082825,243.495163 720.013855,252.893600 
	C719.949158,261.699829 720.000000,270.506927 720.000000,279.655884 
	C716.373596,279.655884 712.986694,279.655884 709.295715,279.655884 
	C709.295715,255.628052 709.295715,231.586441 709.295715,207.271866 
	C712.772095,207.271866 716.158264,207.271866 719.856140,207.271866 
	C719.856140,216.067322 719.856140,224.666733 719.856140,232.279770 
	C725.264587,230.515488 730.562256,227.652344 736.013977,227.320663 
	C741.735535,226.972534 747.764954,228.696976 751.847778,234.356110 
z"/>
<path fill="#00AEEF" opacity="1.000000" stroke="none" 
	d="
M610.988037,255.845963 
	C609.503296,256.874695 608.033203,257.907349 606.550903,257.925201 
	C595.233765,258.061523 583.914307,257.999969 572.261047,257.999969 
	C571.634888,263.078430 574.389099,266.607788 577.768982,268.784058 
	C586.975037,274.711548 595.815491,272.733063 603.903687,265.897522 
	C605.940796,268.019348 607.853638,270.011780 610.035706,272.284637 
	C605.676697,277.585022 599.887329,280.057434 592.936707,281.126770 
	C585.322815,282.298096 578.403931,281.125580 571.877075,277.322113 
	C566.019409,273.908569 562.613708,268.565735 561.568176,262.012939 
	C559.395386,248.395096 561.318909,236.535553 573.996033,230.104645 
	C592.338501,220.799835 610.369385,232.214996 610.996643,252.880157 
	C611.021912,253.712616 610.998108,254.546585 610.988037,255.845963 
M574.019836,248.994415 
	C582.604858,248.994415 591.189880,248.994415 600.327393,248.994415 
	C598.341797,242.322433 595.495239,237.823090 588.554199,236.742004 
	C582.782837,235.843094 578.270020,237.906387 574.814331,241.973099 
	C573.432007,243.599838 573.651184,246.587524 574.019836,248.994415 
z"/>
<path fill="#00AEEF" opacity="1.000000" stroke="none" 
	d="
M1028.010376,246.376480 
	C1027.320312,253.453781 1026.515991,260.116455 1026.052979,266.802734 
	C1025.766846,270.935181 1026.000000,275.103577 1026.000000,279.627319 
	C1022.761475,279.627319 1019.706055,279.627319 1016.320740,279.627319 
	C1016.320740,255.684158 1016.320740,231.638092 1016.320740,207.295319 
	C1019.389893,207.295319 1022.444092,207.295319 1025.808594,207.295319 
	C1025.808594,216.358353 1025.808594,225.297760 1025.808594,233.378220 
	C1030.623901,231.551376 1035.302124,229.205856 1040.257935,228.013763 
	C1050.978638,225.434937 1061.118530,232.018494 1061.804810,242.700821 
	C1062.586792,254.873337 1061.985718,267.134705 1061.985718,279.682129 
	C1059.321411,279.682129 1055.934570,279.682129 1052.000000,279.682129 
	C1052.000000,270.519226 1052.028809,261.414215 1051.975586,252.309723 
	C1051.965088,250.517914 1051.661987,248.725128 1051.452637,246.937653 
	C1050.810669,241.455322 1048.022461,237.842346 1042.368652,237.042343 
	C1036.447021,236.204437 1032.300293,239.143692 1029.092285,243.766693 
	C1028.633911,244.427048 1028.385742,245.233170 1028.010376,246.376480 
z"/>
<path fill="#00AEEF" opacity="1.000000" stroke="none" 
	d="
M398.536499,229.214844 
	C406.470245,232.284332 408.654083,238.750458 408.897583,245.838501 
	C409.280060,256.972229 408.999146,268.128723 408.999146,279.637146 
	C405.732513,279.637146 402.667053,279.637146 399.311768,279.637146 
	C399.117126,278.593811 398.893646,277.395660 398.641602,276.044495 
	C397.925598,276.251190 397.401062,276.271515 397.041901,276.525574 
	C388.609375,282.490845 379.520477,282.765381 370.501190,278.640961 
	C365.283539,276.254974 362.571533,267.862213 364.087219,261.147949 
	C365.618835,254.363113 369.881531,249.439636 376.683197,248.176041 
	C383.436279,246.921478 390.438934,247.010010 397.740692,246.479889 
	C398.637756,243.207291 397.653870,239.990723 394.559113,238.362976 
	C386.664764,234.210709 379.162109,236.081970 371.548187,241.200378 
	C369.726715,238.953369 367.820435,236.601730 365.628967,233.898285 
	C375.906006,226.704056 386.599060,225.029938 398.536499,229.214844 
M377.532745,257.984528 
	C372.615082,264.791901 373.807495,269.718536 380.935181,272.042206 
	C391.184509,275.383514 399.072113,267.986053 397.558380,256.452057 
	C386.997803,255.026627 383.094452,255.219635 377.532745,257.984528 
z"/>
<path fill="#00AEEF" opacity="1.000000" stroke="none" 
	d="
M540.000000,265.993500 
	C539.999939,259.833282 540.052002,254.170685 539.985168,248.509491 
	C539.917725,242.791702 535.954102,237.656891 531.241089,237.011337 
	C524.866272,236.138184 518.673096,239.374603 517.144043,245.160355 
	C515.906982,249.841217 515.331787,254.770523 515.084106,259.621368 
	C514.746704,266.227814 515.000000,272.864471 515.000000,279.740173 
	C511.328461,279.740173 508.054077,279.740173 504.387085,279.740173 
	C504.387085,263.150238 504.387085,246.433060 504.387085,229.356705 
	C507.283112,229.356705 510.352997,229.356705 513.503601,229.356705 
	C514.057068,230.678604 514.669006,232.140213 515.392639,233.868729 
	C521.687500,227.555466 529.295898,226.567368 537.515442,228.023056 
	C544.426636,229.247040 550.756531,237.263626 550.939941,245.774033 
	C551.180237,256.919373 550.998840,268.073822 550.998840,279.611816 
	C547.459351,279.611816 544.071045,279.611816 540.000000,279.611816 
	C540.000000,275.343170 540.000000,270.917450 540.000000,265.993500 
z"/>
<path fill="#00AEEF" opacity="1.000000" stroke="none" 
	d="
M264.000000,268.978821 
	C263.700867,260.730621 263.657745,252.958084 263.004913,245.237106 
	C262.623871,240.730804 259.638794,237.676102 255.060394,237.071243 
	C249.634979,236.354507 244.619049,237.734467 242.122726,243.029648 
	C240.501556,246.468475 239.331680,250.401382 239.136459,254.173843 
	C238.700089,262.606201 239.000000,271.076691 239.000000,279.762268 
	C235.281357,279.762268 232.005707,279.762268 228.363815,279.762268 
	C228.363815,263.091980 228.363815,246.367310 228.363815,229.320129 
	C231.354401,229.320129 234.425735,229.320129 237.846695,229.320129 
	C237.938416,231.017014 238.030884,232.727676 238.058441,233.237610 
	C242.881470,231.410629 247.594269,228.831100 252.614227,227.889938 
	C262.924255,225.956985 272.939331,231.260651 273.772797,241.995560 
	C274.730774,254.334183 273.995148,266.804291 273.995148,279.611847 
	C271.457794,279.611847 268.068115,279.611847 264.000000,279.611847 
	C264.000000,276.338318 264.000000,272.907227 264.000000,268.978821 
z"/>
<path fill="#00AEEF" opacity="1.000000" stroke="none" 
	d="
M659.639954,250.215927 
	C654.107239,240.415024 658.378967,231.628601 668.794556,228.254410 
	C676.605408,225.724030 684.647278,226.324615 692.195007,230.045441 
	C698.008545,232.911331 698.188232,234.220627 693.634644,238.877563 
	C692.938782,239.589142 692.337769,240.393494 691.644592,241.211884 
	C685.706665,237.679642 679.995422,234.082367 673.166504,237.096725 
	C671.172363,237.976990 668.852722,239.830536 668.325745,241.700943 
	C667.994324,242.877625 670.395264,245.691330 672.134827,246.416077 
	C676.745544,248.337006 681.662964,249.521942 686.458313,250.999680 
	C695.955261,253.926208 701.211975,260.434204 697.726868,270.487823 
	C696.553772,273.872070 692.952942,277.320587 689.597961,278.872528 
	C679.606689,283.494293 669.367188,282.857147 659.782043,277.265564 
	C654.086609,273.943085 654.189270,273.365509 658.651184,268.828918 
	C659.467102,267.999329 660.161377,267.050018 661.157837,265.862823 
	C666.635315,270.847321 672.783386,272.631470 679.792236,272.069427 
	C683.653687,271.759766 687.116882,270.243652 687.592041,266.714539 
	C687.822876,265.000641 684.560059,262.030151 682.257629,260.937103 
	C678.359375,259.086426 673.785156,258.680756 669.838745,256.904144 
	C666.285339,255.304443 663.193054,252.680222 659.639954,250.215927 
z"/>
<path fill="#00AEEF" opacity="1.000000" stroke="none" 
	d="
M478.918213,268.740356 
	C481.699707,272.499420 485.266205,273.241577 488.588409,270.971375 
	C492.138916,268.545166 494.323242,268.627319 496.175354,272.608704 
	C496.566803,273.450287 497.441803,274.066895 498.058197,274.747620 
	C493.467743,280.587646 483.902863,283.186707 476.396484,280.791382 
	C470.676605,278.966125 467.010742,272.869446 467.002258,265.128082 
	C466.992584,256.321106 467.000000,247.514099 467.000000,238.201340 
	C464.065521,238.201340 461.331299,238.201340 458.305389,238.201340 
	C458.305389,234.978714 458.305389,232.255219 458.305389,229.192703 
	C460.980255,229.192703 463.593231,229.192703 466.715027,229.192703 
	C466.715027,223.500229 466.715027,218.103134 466.715027,212.356857 
	C470.598389,212.356857 473.984375,212.356857 477.890656,212.356857 
	C477.890656,217.680389 477.890656,223.081314 477.890656,228.975189 
	C482.776855,228.975189 487.183746,228.975189 491.781860,228.975189 
	C491.781860,232.086746 491.781860,234.693680 491.781860,237.806641 
	C487.413177,237.806641 483.013641,237.806641 478.804688,237.806641 
	C478.804688,248.320145 478.804688,258.325836 478.918213,268.740356 
z"/>
<path fill="#00AEEF" opacity="1.000000" stroke="none" 
	d="
M989.000000,219.047058 
	C989.000000,222.501221 989.000000,225.469833 989.000000,228.942139 
	C994.073120,228.942139 998.814514,228.942139 1003.766235,228.942139 
	C1003.766235,232.054886 1003.766235,234.663376 1003.766235,237.786133 
	C999.103699,237.786133 994.367798,237.786133 989.785339,237.786133 
	C989.785339,247.317429 989.031494,256.421600 990.017334,265.333313 
	C990.846985,272.833282 996.058228,274.323853 1002.452148,270.020050 
	C1002.975342,269.667908 1003.474365,269.279785 1004.375366,268.623901 
	C1006.080750,270.799805 1007.655396,272.808868 1009.112915,274.668549 
	C1005.364014,281.991455 995.129639,282.195557 987.030518,279.986694 
	C981.584656,278.501465 979.001465,273.253845 979.000305,265.241760 
	C978.999023,256.419098 979.000000,247.596420 979.000000,238.260574 
	C975.792908,238.260574 972.731323,238.260574 969.334839,238.260574 
	C969.334839,235.034775 969.334839,232.311554 969.334839,229.068146 
	C972.391785,229.068146 975.458252,229.068146 978.854614,229.068146 
	C978.854614,223.299225 978.854614,218.020660 978.854614,212.373810 
	C982.236755,212.373810 985.293274,212.373810 989.000000,212.373810 
	C989.000000,214.362366 989.000000,216.461929 989.000000,219.047058 
z"/>
<path fill="#00AEEF" opacity="1.000000" stroke="none" 
	d="
M203.000000,230.000046 
	C203.000000,222.198349 203.000000,214.896622 203.000000,207.299301 
	C206.717041,207.299301 210.104996,207.299301 213.749374,207.299301 
	C213.749374,231.355850 213.749374,255.287933 213.749374,279.610413 
	C210.461090,279.610413 207.071823,279.610413 203.000000,279.610413 
	C203.000000,263.342529 203.000000,246.921280 203.000000,230.000046 
z"/>
<path fill="#00AEEF" opacity="1.000000" stroke="none" 
	d="
M630.304993,229.194092 
	C631.223816,231.054794 631.744568,232.770462 632.466797,235.149948 
	C636.899780,229.085831 642.941650,227.475922 649.887756,227.940475 
	C653.000305,228.148666 654.670593,228.604126 653.108948,232.257935 
	C652.237854,234.296204 652.084045,236.641052 651.607056,238.847305 
	C640.241638,235.384872 631.212036,244.133789 631.908081,255.646408 
	C632.386902,263.566193 632.000000,271.538361 632.000000,279.740417 
	C628.330261,279.740417 625.056946,279.740417 621.390869,279.740417 
	C621.390869,263.163635 621.390869,246.457993 621.390869,229.049088 
	C624.084717,229.049088 626.995789,229.049088 630.304993,229.194092 
z"/>
<path fill="#00AEEF" opacity="1.000000" stroke="none" 
	d="
M421.000000,263.997314 
	C421.000000,252.199188 421.000000,240.900269 421.000000,229.302124 
	C424.391663,229.302124 427.464966,229.302124 430.815674,229.302124 
	C430.911591,230.951080 431.005493,232.565598 431.136414,234.816635 
	C436.463196,230.552612 441.855316,227.331833 448.836731,227.887009 
	C452.160950,228.151367 454.126892,229.689270 452.736481,232.291824 
	C451.678375,234.272354 454.499634,239.833069 447.917511,238.196960 
	C440.373077,236.321640 432.081696,243.792831 432.012268,251.752579 
	C431.933838,260.745544 431.949615,269.739349 431.920319,278.732788 
	C431.919800,278.894348 431.868256,279.055725 431.773254,279.608582 
	C428.465149,279.608582 425.076263,279.608582 421.000000,279.608582 
	C421.000000,274.684235 421.000000,269.590393 421.000000,263.997314 
z"/>
<path fill="#00AEEF" opacity="1.000000" stroke="none" 
	d="
M779.000000,265.993286 
	C779.000000,270.794556 779.000000,275.097534 779.000000,279.698425 
	C775.287903,279.698425 771.900208,279.698425 768.253235,279.698425 
	C768.253235,262.983124 768.253235,246.383377 768.253235,229.391296 
	C771.535339,229.391296 774.924438,229.391296 779.000000,229.391296 
	C779.000000,241.317444 779.000000,253.406219 779.000000,265.993286 
z"/>
<path fill="#00AEEF" opacity="1.000000" stroke="none" 
	d="
M961.000000,235.104889 
	C961.000000,250.216461 961.000000,264.842468 961.000000,279.732483 
	C957.679443,279.732483 954.737183,279.732483 951.396362,279.732483 
	C951.396362,263.147766 951.396362,246.428589 951.396362,229.353424 
	C954.276672,229.353424 957.333069,229.353424 961.000000,229.353424 
	C961.000000,231.077240 961.000000,232.848282 961.000000,235.104889 
z"/>
<path fill="#00AEEF" opacity="1.000000" stroke="none" 
	d="
M958.840576,220.998596 
	C955.739685,220.999710 953.114807,220.999710 950.248413,220.999710 
	C950.248413,216.973495 950.248413,213.364487 950.248413,209.376633 
	C953.886658,209.376633 957.611328,209.376633 961.984985,209.376633 
	C961.984985,212.510635 962.142273,215.790817 961.863647,219.033524 
	C961.801575,219.755798 960.206177,220.346313 958.840576,220.998596 
z"/>
<path fill="#00AEEF" opacity="1.000000" stroke="none" 
	d="
M776.840576,220.998566 
	C773.739685,220.999710 771.114807,220.999710 768.248413,220.999710 
	C768.248413,216.973495 768.248413,213.364487 768.248413,209.376633 
	C771.886658,209.376633 775.611328,209.376633 779.984985,209.376633 
	C779.984985,212.510635 780.142212,215.790802 779.863586,219.033508 
	C779.801453,219.755768 778.206116,220.346268 776.840576,220.998566 
z"/>
<path fill="#FFFFFF" opacity="1.000000" stroke="none" 
	d="
M1115.965454,444.000000 
	C1107.151978,444.000000 1098.833496,444.000000 1089.759644,444.000000 
	C1097.363647,427.538940 1104.753540,411.541382 1112.628174,394.494324 
	C1117.567261,411.429718 1122.229248,427.415497 1127.065918,444.000000 
	C1123.320801,444.000000 1119.890625,444.000000 1115.965454,444.000000 
z"/>
<path fill="#FFFFFF" opacity="1.000000" stroke="none" 
	d="
M494.169678,487.389221 
	C487.926453,487.465118 482.029205,487.393524 476.149078,487.038391 
	C472.108276,486.794403 470.637268,484.469879 470.943237,480.368622 
	C472.055695,465.456299 472.937225,450.526703 473.935181,435.152100 
	C485.419525,434.580231 496.548553,435.075165 506.736420,440.054108 
	C522.591858,447.802856 523.547607,471.643402 508.404236,481.680359 
	C504.354309,484.364655 499.180695,485.353607 494.169678,487.389221 
z"/>
<path fill="#FFFFFF" opacity="1.000000" stroke="none" 
	d="
M475.962219,409.612122 
	C476.848907,398.216064 477.707123,387.282837 478.629028,375.537598 
	C486.331940,376.085785 493.338837,375.912598 500.050568,377.236176 
	C508.016235,378.807007 514.169861,384.827118 514.326172,391.359131 
	C514.521240,399.515259 510.379486,407.490601 502.281067,411.243317 
	C493.799377,415.173645 484.895935,416.786072 474.790009,415.702606 
	C475.195862,413.705658 475.564819,411.890289 475.962219,409.612122 
z"/>
<path fill="#FFFFFF" opacity="1.000000" stroke="none" 
	d="
M746.064270,419.839142 
	C746.686890,413.725555 747.422974,408.061890 747.977783,402.380585 
	C748.726440,394.713776 749.207031,387.017700 750.134766,379.374512 
	C750.284119,378.144104 752.159973,376.165985 753.237488,376.166168 
	C758.811157,376.167206 764.612000,375.831207 769.912781,377.219696 
	C782.386047,380.486969 785.061768,389.585449 782.340393,401.031891 
	C778.397583,417.615814 762.082703,422.989288 748.380554,421.899994 
	C747.581543,421.836456 746.856445,420.842316 746.064270,419.839142 
z"/>
<path fill="#FFFFFF" opacity="1.000000" stroke="none" 
	d="
M632.000366,413.007690 
	C634.930298,423.368774 637.850281,433.315735 640.878357,443.630920 
	C628.633606,443.630920 616.487488,443.630920 603.719604,443.630920 
	C611.405579,427.045563 618.966919,410.729156 626.468811,394.541077 
	C628.304016,400.541077 630.147217,406.567352 632.000366,413.007690 
z"/>
<path fill="#FFFFFF" opacity="1.000000" stroke="none" 
	d="
M336.372253,270.832825 
	C332.911438,271.308044 329.826721,272.009552 326.762848,271.928223 
	C319.365753,271.731934 316.938477,269.079468 317.018982,261.680725 
	C317.087860,255.348419 316.266418,248.943588 320.227112,243.141174 
	C323.587219,238.218536 328.157806,236.466339 333.647705,237.106476 
	C339.678955,237.809753 343.447418,241.811768 345.023895,247.743866 
	C347.580811,257.365601 345.036804,265.038422 336.372253,270.832825 
z"/>
<path fill="#FFFFFF" opacity="1.000000" stroke="none" 
	d="
M803.705322,268.838898 
	C803.204407,262.538055 802.824829,256.390717 803.077576,250.269516 
	C803.363953,243.333496 809.010437,237.800690 815.921753,237.006683 
	C822.442444,236.257553 828.012817,240.079498 830.055359,247.231125 
	C833.186218,258.193481 829.718628,268.497345 819.134399,271.420441 
	C813.692078,272.923431 808.818848,271.648712 803.705322,268.838898 
z"/>
<path fill="#FFFFFF" opacity="1.000000" stroke="none" 
	d="
M573.580627,248.975067 
	C573.651184,246.587524 573.432007,243.599838 574.814331,241.973099 
	C578.270020,237.906387 582.782837,235.843094 588.554199,236.742004 
	C595.495239,237.823090 598.341797,242.322433 600.327393,248.994415 
	C591.189880,248.994415 582.604858,248.994415 573.580627,248.975067 
z"/>
<path fill="#FFFFFF" opacity="1.000000" stroke="none" 
	d="
M377.820007,257.699158 
	C383.094452,255.219635 386.997803,255.026627 397.558380,256.452057 
	C399.072113,267.986053 391.184509,275.383514 380.935181,272.042206 
	C373.807495,269.718536 372.615082,264.791901 377.820007,257.699158 
z"/>
</svg>