<?xml version="1.0" encoding="UTF-8" standalone="no"?>
<svg
   viewBox="0 0 15.618552 7.1212039"
   width="15.618552pt"
   height="7.1212039pt"
   version="1.1"
   id="svg12"
   xmlns="http://www.w3.org/2000/svg"
   xmlns:svg="http://www.w3.org/2000/svg">
  <defs
     id="defs16" />
  <path
     d="M 5.0773743,4.6450623 4.4526215,5.6684113 0.99472508,5.4839043 1.3407281,4.9138783 Z M 7.577239,1.3843039 7.890568,2.5136817 2.9837587,2.2078496 3.3297619,1.6380221 Z M 4.3242683,-6.7205813e-8 7.196657,0.00207993 7.413254,0.77431343 3.9786921,0.56988733 Z M 4.0718203,6.3048263 3.5732968,7.1181043 -2.471924e-8,7.1212043 0.34600308,6.5517923 Z m 6.2732147,-2.194168 -0.864894,1.421934 h 0.823733 c 0.381854,0 1.065582,-0.180686 1.276026,-0.696182 0.195169,-0.478864 -0.163349,-0.726357 -0.413454,-0.726357 z m 0.824805,-1.3601576 0.718516,-0.00416 c 0.478168,-0.00312 0.97691,-0.2100695 1.159345,-0.6309896 0.168233,-0.3903424 -0.05789,-0.7231427 -0.357665,-0.7219349 L 11.995062,1.3926145 Z M 7.917723,2.5136817 8.643237,1.3199138 11.098557,1.1704234 11.184257,1.025556 8.912871,0.87484743 9.444069,-6.7205813e-8 h 4.212262 c 1.29533,0 2.25357,0.439037697205813 1.881047,1.730785967205813 -0.112006,0.3913491 -0.638539,1.3764531 -2.182715,1.7891262 0.327762,0.037065 1.144081,0.3802912 1.00343,1.2696222 -0.249907,1.576859 -2.402707,2.32756 -3.600025,2.327967 L 5.7848593,7.1196013 5.5398334,6.2070963 8.144488,6.0328453 8.232988,5.8883833 5.407915,5.7254183 5.1034989,4.6435323 9.123559,4.4209983 9.210711,4.2777343 1.9888046,3.8455483 2.3348077,3.2761272 10.108487,2.7972523 10.196471,2.6537906 7.917442,2.5135568"
     style="fill:#ffffff;fill-rule:evenodd;stroke-width:0.0699787"
     id="path11711" />
</svg>
