<?xml version="1.0" encoding="UTF-8" standalone="no"?>
<svg
   viewBox="0 0 18.040001 21.999998"
   width="18.040001pt"
   height="21.999998pt"
   version="1.1"
   id="svg12"
   xmlns="http://www.w3.org/2000/svg"
   xmlns:svg="http://www.w3.org/2000/svg">
  <defs
     id="defs16" />
  <path
     d="m 2.8717377,4.8598742 c -0.0938,0.0136 -0.18404,0.33749 -0.3654,0.50623 -0.13262,0.12178 -0.29817,0.11416 -0.38611,0.26473 -0.0334,0.0562 -0.0226,0.15226 -0.0605,0.24445 -0.074,0.18437 -0.3347,0.20085 -0.3347,0.40174 -9.1e-4,0.21695 0.21742,0.25839 0.40642,0.41232 0.14751,0.12391 0.16195,0.20933 0.34056,0.26937 0.1525,0.0487 0.37938,-0.11037 0.58372,-0.0533 0.16782,0.047 0.32839,0.0808 0.3663,0.24232 0.0333,0.14886 -0.002,0.37974 -0.2057,0.35312 -0.0686,-0.007 -0.36585,-0.10108 -0.73121,-0.0647 -0.44074,0.047 -0.94371,0.18183 -0.99287,0.64241 -0.0271,0.25753 0.31259,0.56117 0.64056,0.49943 0.22687,-0.0419 0.11954,-0.29262 0.24313,-0.41444 0.16192,-0.15602 1.07944,0.54469 1.93246,0.54469 0.35909,0 0.62611,-0.085 0.89139,-0.3455 0.0248,-0.0199 0.055,-0.0626 0.0933,-0.0651 0.0361,0.003 0.0992,0.0359 0.12,0.0503 0.68701,0.51761 1.20621,1.5558498 3.7309803,1.5681098 0.355,0.002 0.75961,0.1607 1.08981,0.44319 0.29458,0.25543 0.4669,0.65251 0.63423,1.05553 0.25262,0.60477 0.70554,1.19302 1.39207,1.84765 0.0375,0.0351 0.60266,0.44701 0.64777,0.47788 0.007,0.004 0.0487,0.0973 0.0343,0.14926 -0.0167,0.39246 -0.0776,1.53384 0.82996,1.58545 0.22196,0.0106 0.16374,-0.13575 0.16374,-0.23641 -4.2e-4,-0.19876 -0.0392,-0.39625 0.0727,-0.59966 0.15289,-0.27994 -0.32434,-0.40895 -0.31035,-1.01411 0.01,-0.45122 -0.39428,-0.37427 -0.59953,-0.71808 -0.11818,-0.19919 -0.22328,-0.30488 -0.21561,-0.54851 0.046,-1.37099 -0.31125,-2.27178 -0.48943,-2.49294 -0.13891,-0.16705 -0.25395,-0.23343 -0.12677,-0.31084 0.75741,-0.46898 0.92927,-0.9054298 0.92927,-0.9054298 0.4028,-0.88764 0.76505,-1.69837 1.2644,-2.05525 0.1006,-0.0736 0.35863,-0.25416 0.51696,-0.32522 0.46596,-0.20596 0.71136,-0.33069 0.84671,-0.45421 0.21425,-0.19579 0.38339,-0.60388 0.17814,-0.85128 -0.2553,-0.30534 -0.69692,-0.063 -0.89177,0.0452 -1.39252,0.77479 -1.59777,2.14155 -2.08002,2.92648 -0.38476,0.62713 -1.01041,1.0876798 -1.56976,1.1253198 -0.41953,0.0292 -0.87151,-0.0503 -1.3217,-0.2355598 -1.0948,-0.44995 -1.69387,-1.03101 -1.83504,-1.13376 -0.29413,-0.21273 -2.5775503,-2.31412 -4.4274803,-2.39996 0,0 -0.22957,-0.43092 -0.28733,-0.43812 -0.13535,-0.0161 -0.2738,0.25754 -0.37304,0.28929 -0.0934,0.0291 -0.25035,-0.29648 -0.34464,-0.28209"
     id="path15719"
     style="fill:#ffffff;stroke-width:0.0323788" />
</svg>
