<?xml version="1.0" encoding="UTF-8" standalone="no"?>
<svg
   viewBox="0 0 18.040001 21.999998"
   width="18.040001pt"
   height="21.999998pt"
   version="1.1"
   id="svg12"
   sodipodi:docname="pink_master_pin.svg"
   inkscape:export-filename="..\brands_2023\superdry.svg"
   inkscape:export-xdpi="96"
   inkscape:export-ydpi="96"
   xmlns:inkscape="http://www.inkscape.org/namespaces/inkscape"
   xmlns:sodipodi="http://sodipodi.sourceforge.net/DTD/sodipodi-0.dtd"
   xmlns="http://www.w3.org/2000/svg"
   xmlns:svg="http://www.w3.org/2000/svg">
  <defs
     id="defs16" />
  <sodipodi:namedview
     id="namedview14"
     pagecolor="#505050"
     bordercolor="#eeeeee"
     borderopacity="1"
     inkscape:showpageshadow="0"
     inkscape:pageopacity="0"
     inkscape:pagecheckerboard="0"
     inkscape:deskcolor="#505050"
     inkscape:document-units="pt"
     showgrid="false" />
  <path
     id="path8836"
     stroke-width="0.204031"
     d="m 1.8865975,10.408514 c 0.053125,1.024005 0.7483703,1.619159 1.9602375,1.619159 1.2318851,0 1.9148121,-0.588225 1.9148121,-1.578353 0,-0.495064 -0.192483,-0.85616 -0.5828364,-1.07713 C 4.8800786,9.205115 4.5097431,9.111184 4.058565,8.9972352 3.2709285,8.7970532 2.9067524,8.7970532 2.9067524,8.3420262 c 0,-0.368026 0.2848735,-0.582066 0.8014954,-0.582066 0.5889953,0 0.9139048,0.247917 0.9470119,0.716033 h 0.9408524 c -0.03311,-0.96395 -0.6821564,-1.525998 -1.8016325,-1.525998 -1.1987782,0 -1.8347389,0.522782 -1.8347389,1.452085 0,0.501223 0.1786233,0.8761778 0.5158519,1.0902188 0.311821,0.200952 0.6698376,0.267936 1.0532619,0.354168 0.8746386,0.200181 1.2719218,0.287952 1.2719218,0.729122 0,0.401902 -0.2848737,0.609013 -0.8615502,0.609013 -0.6544389,0 -1.0132255,-0.240988 -1.0855987,-0.776088 z"
     class="st1" />
  <g
     id="g9019"
     transform="matrix(0.51381879,0,0,0.51381879,66.539487,-174.27191)">
    <path
       id="path8830"
       fill="#ff5100"
       stroke-width="0.265"
       d="m -102.05,347.981 -0.015,-0.415 c -0.014,-0.424 -0.101,-0.65 -0.43,-0.767 0.334,-0.107 0.518,-0.4 0.518,-0.83 0,-0.678 -0.363,-0.996 -1.118,-0.996 h -1.687 v 3.511 h 0.715 v -1.367 h 0.76 c 0.396,0 0.503,0.142 0.517,0.557 l 0.01,0.37 c 0.005,0.191 0.03,0.338 0.083,0.44 h 0.783 v -0.107 c -0.131,-0.068 -0.131,-0.19 -0.135,-0.396 m -1.176,-1.474 h -0.841 v -0.928 h 0.875 c 0.334,0 0.498,0.161 0.498,0.464 0,0.322 -0.17,0.464 -0.532,0.464"
       class="st0" />
    <path
       id="path8832"
       fill="#ff5100"
       stroke-width="0.265"
       d="m -103.458,343.616 c -1.712,0 -3.105,1.407 -3.105,3.136 0,1.729 1.393,3.135 3.105,3.135 1.712,0 3.105,-1.406 3.105,-3.135 0,-1.73 -1.393,-3.136 -3.105,-3.136 m 0,5.539 c -1.312,0 -2.38,-1.078 -2.38,-2.403 0,-1.325 1.068,-2.403 2.38,-2.403 1.312,0 2.38,1.078 2.38,2.403 0,1.325 -1.068,2.403 -2.38,2.403"
       class="st0" />
  </g>
  <path
     id="path8846"
     stroke-width="0.213809"
     d="m 6.9837228,9.897349 c 0,-0.69387 0.3130482,-1.100511 0.7987572,-1.100511 0.520403,0 0.82619,0.392925 0.82619,1.100511 0,0.764065 -0.284809,1.156989 -0.805212,1.156989 -0.526858,0 -0.8189292,-0.400186 -0.8189292,-1.156989 M 9.566373,6.7434663 H 8.609477 V 8.523324 C 8.365816,8.1384683 7.984187,7.9343415 7.512194,7.9343415 c -0.8608843,0 -1.5136064,0.7785875 -1.5136064,2.0049635 0,1.191682 0.631745,1.969462 1.5273224,1.969462 0.479254,0 0.818928,-0.196059 1.103738,-0.630131 v 0.504266 H 9.56718 Z"
     class="st1" />
  <path
     id="path8848"
     stroke-width="0.22824"
     d="m 10.267564,11.753306 h 1.052489 V 9.651773 c 0,-0.598592 0.296282,-0.8983194 0.866452,-0.8983194 h 0.34882 v -1.076605 c -0.05168,-0.0086 -0.103354,-0.0086 -0.155031,-0.0086 -0.504713,0 -0.860423,0.247188 -1.134311,0.793242 v -0.680414 h -0.978419 z"
     class="st1" />
  <path
     id="path8850"
     stroke-width="0.217501"
     d="m 13.417388,13.008042 c 0.176463,0.02134 0.318453,0.0279 0.423512,0.0279 0.720622,0 0.989011,-0.228171 1.208153,-0.870002 l 1.538918,-4.4640906 h -1.05221 L 14.766712,10.434146 13.975504,7.7026666 h -1.102277 l 1.349323,3.8288294 a 0.32666113,0.32666113 0 0 1 0.02052,0.106696 c 0,0.379189 -0.196981,0.563859 -0.592586,0.563859 -0.05663,0 -0.141169,0 -0.233916,-0.01477 v 0.820757 z"
     class="st1" />
  <path
     id="path8852"
     stroke-width="0.259457"
     d="m 3.955807,6.0080481 c 0,0 0.1654649,-0.1664445 0.2056074,-0.2437921 0,0 0.1341341,0.1732977 0.2330217,0.2516243 L 4.5060513,5.8220222 c 0,0 -0.2065864,-0.1928799 -0.2330217,-0.2545618 0,0 0.1370715,-0.2956832 0.1762352,-0.6187806 L 4.3591889,4.8233572 c 0,0 -0.046996,0.00881 -0.072452,0.00881 H 3.9969285 c 0,0 -0.050912,-0.00293 -0.070494,-0.012728 V 5.047565 c 0,0 0.025459,-0.00587 0.076369,-0.00587 h 0.2193146 c 0,0 -0.041122,0.2623943 -0.063641,0.3201604 0,0 -0.092034,-0.2173567 -0.097908,-0.2976411 L 3.9039145,5.1670157 c 0,0 0.090076,0.3201607 0.1468623,0.407299 0,0 -0.1370716,0.1997324 -0.216377,0.260436 z"
     class="st1" />
  <path
     id="path8854"
     stroke-width="0.259457"
     d="M 3.6855796,6.0286085 C 3.6229209,6.0462293 3.3957714,6.043296 3.3957714,6.043296 L 3.3409441,5.8220222 c 0.029375,0.00979 0.2202935,0.01273 0.2202935,0.01273 0.069515,0 0.076369,-0.1762352 0.076369,-0.1762352 0.045038,-0.3955502 0.028392,-0.6912332 0.028392,-0.6912332 H 3.5514462 v 0.8028486 l -0.088117,-0.00293 H 3.1921225 l -0.1018244,0.00293 0.00979,-0.102804 V 5.2923397 l -0.07637,0.1830884 A 1.8406762,1.8406762 0 0 1 2.9150391,5.2345736 v 1.0339119 c 0,0.062659 0.00979,0.1125941 0.00979,0.1125941 h -0.234981 a 0.5972407,0.5972407 0 0 0 0.01567,-0.1125941 V 5.3824148 C 2.6663537,5.5850854 2.5077435,5.841605 2.5077435,5.841605 L 2.3902506,5.6232694 C 2.6164191,5.2923397 2.6761431,4.922246 2.6761431,4.922246 H 2.5459254 L 2.4578074,4.934974 V 4.6882437 l 0.075389,0.00979 H 2.6898502 V 4.3837489 c 0,-0.029373 -0.013705,-0.080285 -0.013705,-0.080285 h 0.2516249 c -0.00979,0.015665 -0.019579,0.086159 -0.019579,0.086159 V 4.70293 h 0.083222 c 0.019579,0 0.050911,-0.00783 0.050911,-0.00783 v 0.2281264 c -0.00979,-0.00293 -0.056785,-0.00587 -0.056785,-0.00587 h -0.070494 c 0.025459,0.1145527 0.1840681,0.3397419 0.1840681,0.3397419 V 4.9809896 c 0,-0.016645 -0.00585,-0.077348 -0.00585,-0.077348 0.01273,0.00293 0.070494,0.00587 0.070494,0.00587 h 0.199731 L 3.5034966,4.607958 H 3.1803997 c -0.080285,0 -0.140988,0.00686 -0.140988,0.00686 V 4.3837502 c 0.015663,0.00587 0.1145526,0.012728 0.1145526,0.012728 h 1.1935018 a 0.78522464,0.78522464 0 0 0 0.1145534,-0.00979 V 4.621668 C 4.4453741,4.614812 4.3494226,4.6118773 4.3494226,4.6118773 H 3.7453287 l -0.076369,0.1635068 h 0.1272809 c 0.022519,0 0.089096,-0.00587 0.089096,-0.00587 0,0 -0.025459,0.7871831 -0.053852,0.9467736 0,0 -0.019579,0.2741432 -0.1468624,0.3123272 M 3.3762115,5.0994612 H 3.2685128 v 0.4758349 h 0.1076987 z"
     class="st1" />
  <path
     id="path8856"
     stroke-width="0.259457"
     d="M 2.9982638,6.3135213 V 6.0716878 c 0,0 0.070494,0.00979 0.09497,0.00979 h 1.2816205 l 0.1076987,-0.00783 v 0.2369381 c 0,0 -0.058743,-0.00979 -0.1018244,-0.00979 H 3.0932342 c 0,0 -0.068539,0.00195 -0.09497,0.01273"
     class="st1" />
  <path
     id="path8858"
     stroke-width="0.259457"
     d="m 6.3937235,5.3951417 c -0.019579,-0.00293 -0.088117,-0.00293 -0.088117,-0.00293 H 5.5791268 c -0.041122,0 -0.1018251,0.00293 -0.1018251,0.00293 0.00683,-0.019579 0.01273,-0.1223855 0.01273,-0.1223855 V 5.0426719 H 5.1757456 C 5.1786719,5.9894456 4.9211839,6.3712875 4.9211839,6.3712875 L 4.7400533,6.1598058 c 0.2379171,-0.3377836 0.1938588,-1.565554 0.1938588,-1.565554 0,-0.025456 -0.00979,-0.1302181 -0.00979,-0.1302181 0.01273,0.00979 0.1497998,0.00979 0.1497998,0.00979 h 0.6550068 v -0.090076 c 0,-0.022519 -0.00585,-0.084201 -0.00585,-0.084201 h 0.2643525 c -0.00979,0.022519 -0.00979,0.077348 -0.00979,0.077348 v 0.093013 h 0.7127723 c 0.041122,0 0.1047619,-0.00587 0.1047619,-0.00587 V 4.691185 c -0.015663,-0.00293 -0.089097,-0.00293 -0.089097,-0.00293 h -0.314285 v 0.1507788 h 0.3230968 c 0.019579,0 0.083223,-0.00979 0.083223,-0.00979 v 0.2183351 c -0.01273,-0.00293 -0.073432,-0.00293 -0.073432,-0.00293 h -0.336804 v 0.2702275 c 0,0.021536 0.00683,0.080284 0.00683,0.080284 M 5.4939464,4.6853065 H 5.1806396 v 0.1537161 h 0.3133068 z m 0.6657765,0 H 5.7269681 v 0.1537161 h 0.4327548 z m 0,0.3563862 H 5.7269681 v 0.1537159 h 0.4327548 z"
     class="st1" />
  <path
     id="path8860"
     stroke-width="0.259457"
     d="m 5.3598123,5.5234015 h 1.0084554 a 0.74410316,0.74410316 0 0 0 0.080285,-0.00979 L 6.5660423,5.6457883 A 6.1486419,6.1486419 0 0 0 6.4093892,5.82594 c -0.024477,0.031333 -0.2545617,0.2026699 -0.2545617,0.2026699 0.2330217,0.098888 0.662839,0.1076994 0.662839,0.1076994 L 6.7246539,6.3840171 C 6.1744089,6.3194005 5.9257222,6.1656815 5.9257222,6.1656815 5.7103234,6.3037327 5.1757442,6.3840171 5.1757442,6.3840171 L 5.086648,6.1529532 C 5.4361802,6.1500269 5.7171773,6.0315474 5.7171773,6.0315474 5.5898965,5.9630081 5.4175777,5.7153038 5.4175777,5.7153038 l -0.1586116,0.00979 V 5.5096943 c 0.00585,0.0039 0.1008462,0.013705 0.1008462,0.013705 m 0.5796171,0.408278 C 5.9991548,5.9160144 6.2155311,5.7162792 6.2155311,5.7162792 H 5.6809512 c 0.051894,0.084201 0.2584782,0.2153981 0.2584782,0.2153981"
     class="st1" />
  <path
     id="path8862"
     stroke-width="0.259457"
     d="m 7.698842,4.3866861 v 0.1439252 h 0.282955 c 0.04406,0 0.09791,-0.00979 0.09791,-0.00979 v 0.2251892 c -0.01469,-0.00293 -0.08518,-0.00979 -0.08518,-0.00979 H 7.7008 V 4.877207 H 8.014107 V 4.934973 C 8.232442,4.6686626 8.293145,4.30836 8.293145,4.30836 l 0.244771,0.039164 c -0.0068,0.057766 -0.06951,0.2408544 -0.06951,0.2408544 h 0.53458 c 0.04405,0 0.120427,-0.00979 0.120427,-0.00979 v 0.2447708 c -0.01469,-0.00392 -0.11749,-0.00979 -0.11749,-0.00979 H 8.369519 C 8.356789,4.8449002 8.232447,5.0250511 8.232447,5.0250511 h 0.563952 c 0.06952,0 0.110637,-0.00979 0.110637,-0.00979 L 9.04117,5.1856217 C 8.857102,5.316819 8.448824,5.8181096 8.424347,5.8700008 c -0.02643,0.050912 -0.09889,0.156653 -0.02937,0.2056073 0.07049,0.047978 0.261415,0.025459 0.366178,0.022519 0.104761,-0.00293 0.12728,-0.1028033 0.12728,-0.1028033 0.02839,-0.091056 0.01273,-0.2545625 0.01273,-0.2545625 l 0.23498,0.090076 C 9.110685,6.2361778 8.989282,6.271425 8.989282,6.271425 8.881583,6.344856 8.582963,6.332126 8.582963,6.332126 8.290216,6.332126 8.213848,6.283172 8.213848,6.283172 7.997471,6.1715544 8.175668,5.8406247 8.246158,5.7250924 8.315668,5.6095601 8.674996,5.2463208 8.674996,5.2463208 H 8.26476 a 0.52087222,0.52087222 0 0 0 -0.0891,0.015663 V 5.0955385 L 8.11789,5.1601555 8.007253,5.0504982 v 0.5717843 c 0,0.032308 0.0029,0.070494 0.0029,0.070494 -0.01273,-0.00293 -0.0891,-0.00293 -0.0891,-0.00293 h -0.21638 v 0.1468623 h 0.23498 c 0.03916,0 0.107699,-0.00488 0.107699,-0.00488 v 0.2281263 a 1.0515352,1.0515352 0 0 0 -0.09497,-0.00979 H 7.69491 v 0.2369381 a 0.42100573,0.42100573 0 0 0 0.01566,0.099867 H 7.462862 c 0.0068,-0.022519 0.01566,-0.1028041 0.01566,-0.1028041 V 6.0531069 H 7.202421 c -0.03916,0 -0.105741,0.00979 -0.105741,0.00979 V 5.8279153 c 0.0098,0.00979 0.101825,0.013705 0.101825,0.013705 H 7.478522 V 5.6839904 H 7.15641 a 0.72060521,0.72060521 0 0 0 0.0068,-0.077348 v -0.63936 c 0,-0.019581 -0.0068,-0.093013 -0.0068,-0.093013 0.02349,0.00293 0.03916,0.00293 0.09301,0.00587 H 7.478525 V 4.7332816 h -0.29862 a 1.1983977,1.1983977 0 0 0 -0.0891,0.00979 V 4.5110297 c 0.0088,0.00979 0.09791,0.012728 0.09791,0.012728 H 7.475586 V 4.3866861 c 0,-0.029372 -0.0098,-0.075389 -0.0098,-0.075389 h 0.247708 c 0,0.00979 -0.01469,0.075389 -0.01469,0.075389 M 7.796714,5.064212 H 7.383542 v 0.1253223 h 0.413172 z m 0,0.3044943 H 7.383549 v 0.125323 h 0.413173 z"
     class="st1" />
  <path
     id="path8864"
     stroke-width="0.259457"
     d="m 9.459234,4.7744031 0.184067,0.023498 c 0,0 0.01273,0.4464619 -0.06658,0.66186 L 9.388738,5.3657691 c 0,0 0.07735,-0.2692478 0.07049,-0.5913666"
     class="st1" />
  <path
     id="path8866"
     stroke-width="0.259457"
     d="m 10.248374,4.3866861 h 0.855719 c 0,0 0.06951,0 0.08616,-0.00686 v 0.4493992 c 0,0 0,0.035247 0.0029,0.064619 l -0.08224,-0.00293 h -0.763684 c 0,0 -0.08028,0.00587 -0.09301,0.00979 l 0.0029,-0.099867 V 4.4894899 c 0,0 -0.0029,-0.070494 -0.0088,-0.1028038 m 0.71571,0.1821095 h -0.486605 v 0.1517579 h 0.486605 z"
     class="st1" />
  <path
     id="path8868"
     stroke-width="0.259457"
     d="m 9.691276,4.3445856 h 0.248687 c 0,0 -0.01273,0.067557 -0.01273,0.1028037 V 4.880144 c 0,0 0.117491,-0.1439252 0.127281,-0.1958166 l 0.129239,0.1546952 -0.09497,0.1194481 c 0,0 0.05483,0.00587 0.09497,0.00587 h 0.388697 c 0,0 0.08322,0.00392 0.09595,-0.00293 v 0.4533149 h 0.09497 V 5.0475687 c 0,0 0,-0.07441 -0.0029,-0.086159 l 0.107698,0.00293 h 0.430797 c 0,0 0.06952,0 0.09106,-0.00293 0,0 -0.0029,0.045038 -0.0029,0.073431 v 0.3309301 l 0.0059,0.073431 h -0.553182 v 0.1184691 h 0.455274 c 0,0 0.111615,0 0.127281,-0.00881 v 0.2124613 c 0,0 -0.05091,-0.00293 -0.130219,-0.00293 h -0.3467 c 0,0 0.113574,0.179172 0.540454,0.3368047 l -0.1214,0.2251797 c 0,0 -0.434713,-0.2369381 -0.530663,-0.4327548 v 0.4435245 c 0,0 0.0029,0.053852 0.01273,0.065599 h -0.257501 c 0,0 0.0186,-0.047978 0.0186,-0.082243 V 5.8934968 c 0,0 -0.168402,0.2702268 -0.543391,0.440587 L 9.946817,6.1500143 c 0,0 0.387717,-0.150778 0.540453,-0.3847793 h -0.356386 c 0,0 -0.05091,0.01273 -0.0607,0.01273 l 0.07637,0.060701 -0.111615,0.2153981 c 0,0 -0.189941,-0.1801509 -0.205607,-0.2574985 0,0 -0.07441,0.3377836 -0.283934,0.5619935 L 9.378948,6.1725333 c 0,0 0.271207,-0.2369381 0.303516,-0.7871824 0,0 0.03133,-0.7803296 0.01958,-0.9213176 0,0 0,-0.1096572 -0.01077,-0.1194481 m 0.223231,0.7901204 a 31.692921,31.692921 0 0 0 -0.02546,0.3984866 c 0.0068,0.041122 0.161549,0.2281263 0.161549,0.2281263 V 5.5488579 l 0.124343,0.00683 h 0.422962 V 5.4430913 h -0.442546 a 0.93012896,0.93012896 0 0 0 -0.08224,0.00683 c 0.0039,-0.016645 0.0039,-0.076368 0.0039,-0.076368 v -0.318204 c 0,-0.026435 -0.0098,-0.077348 -0.0098,-0.077348 -0.01665,0.029373 -0.152737,0.1566533 -0.152737,0.1566533 m 0.56591,-0.00293 h -0.210503 v 0.1488195 h 0.210503 z m 0.705919,0 h -0.237917 v 0.1488195 h 0.237917 z"
     class="st1" />
</svg>
