<?xml version="1.0" encoding="UTF-8" standalone="no"?>
<svg
   version="1.1"
   id="Layer_1"
   x="0px"
   y="0px"
   width="1440000"
   viewBox="0 0 1440000 216225"
   enable-background="new 0 0 1200 465"
   xml:space="preserve"
   sodipodi:docname="ABTA_logo_adobe_express.svg"
   height="216225"
   xmlns:inkscape="http://www.inkscape.org/namespaces/inkscape"
   xmlns:sodipodi="http://sodipodi.sourceforge.net/DTD/sodipodi-0.dtd"
   xmlns="http://www.w3.org/2000/svg"
   xmlns:svg="http://www.w3.org/2000/svg"><defs
   id="defs9088" /><sodipodi:namedview
   id="namedview9086"
   pagecolor="#505050"
   bordercolor="#eeeeee"
   borderopacity="1"
   inkscape:showpageshadow="0"
   inkscape:pageopacity="0"
   inkscape:pagecheckerboard="0"
   inkscape:deskcolor="#505050"
   showgrid="false" />

<path
   fill="#007ac2"
   opacity="1"
   stroke="none"
   d="m 7.7061827,10.268576 c -0.1144537,0.0036 -0.2218977,0.0036 -0.3358605,0.0036 0,-1.8925026 0,-3.7725533 0,-5.67116 0.1488715,0.00805 0.2974936,0.015967 0.4461019,0.024155 0.2185855,0.012044 0.428332,0.06828 0.6323248,0.1461397 0.2855528,0.1089889 0.5467873,0.2627823 0.785138,0.461631 0.3259332,0.2719153 0.576326,0.6037316 0.7536731,0.995329 0.116335,0.2568771 0.200729,0.5252913 0.228515,0.8090806 0.01709,0.1745925 0.03973,0.3512444 0.0309,0.5253811 -0.01787,0.3521632 -0.08991,0.6929493 -0.227938,1.0197529 C 9.8570242,8.966084 9.626001,9.296123 9.3271917,9.5704356 8.9977133,9.8729025 8.6178092,10.089248 8.1859417,10.191338 c -0.1549435,0.03663 -0.3150143,0.04979 -0.479755,0.07725 M 8.6860658,9.4077639 c 0.273749,-0.1591228 0.5033476,-0.3685326 0.6943906,-0.6435732 -0.1543535,0 -0.290714,0 -0.4132825,0 C 8.8629525,8.9796622 8.7623644,9.187622 8.6546195,9.402073 c -0.00192,0.00643 -0.00384,0.012853 -0.00576,0.01928 0.00842,-0.00401 0.016834,-0.00803 0.037209,-0.013589 M 7.9176613,7.8127136 c 0,0.1350394 0,0.270079 0,0.4082863 0.1756061,0 0.3376216,-0.00491 0.4991776,0.00193 0.08964,0.00379 0.1435497,-0.00769 0.1489807,-0.1202251 0.00639,-0.132432 0.030906,-0.2639181 0.047974,-0.3990788 -0.2423521,0 -0.4666144,0 -0.6961318,0 0,0.034878 0,0.063535 -8e-7,0.1090845 M 8.077866,7.1562914 c 0.174582,0 0.3491642,0 0.5383893,0 -0.026894,-0.1779062 -0.05166,-0.3417364 -0.075753,-0.5011151 -0.2162201,0 -0.4157986,0 -0.6171904,0 0,0.1683999 0,0.3316737 0,0.5011151 0.049668,0 0.093848,0 0.154554,0 M 9.1437228,6.6501556 c -0.013775,0.00104 -0.02755,0.00209 -0.041474,0.00314 0.022864,0.167896 0.045422,0.3335425 0.067486,0.4955643 0.2048576,0 0.4063673,0 0.6184039,0 -0.035098,-0.1499017 -0.069883,-0.2897946 -0.099877,-0.4307897 -0.012219,-0.057436 -0.041898,-0.070209 -0.093891,-0.069066 -0.1451063,0.00319 -0.2903197,0.00111 -0.4506486,0.00115 m -0.026018,1.4637723 c -0.00515,0.034548 -0.010308,0.069095 -0.015969,0.107038 0.1746347,0 0.3418062,0.0014 0.5088982,-0.00176 0.021041,-3.979e-4 0.055224,-0.020615 0.060342,-0.038687 0.042642,-0.1505823 0.079893,-0.3028155 0.1201848,-0.4600674 -0.2216828,0 -0.4237445,0 -0.6234119,0 -0.015162,0.1304903 -0.029644,0.2551294 -0.050044,0.3934755 M 8.345903,8.9013312 c 0.015204,-0.041918 0.030409,-0.083836 0.047968,-0.132246 -0.1590613,0 -0.3073628,0 -0.4524479,0 0,0.2890557 0,0.5710678 0,0.8684494 0.159898,-0.2383461 0.3030959,-0.4669323 0.40448,-0.7362034 M 8.2714842,5.8188272 C 8.1858703,5.619527 8.0771603,5.4352694 7.9393162,5.247379 c 0,0.2991737 0,0.5764974 0,0.8562591 0.1509389,0 0.296962,0 0.4557465,0 C 8.3535836,6.006174 8.316066,5.9180184 8.2714842,5.8188272 m 0.5875306,0.070663 c 0.022101,0.055035 0.042478,0.1109265 0.067178,0.1646696 0.00947,0.020604 0.02837,0.051389 0.043715,0.051868 0.1319122,0.00412 0.2639939,0.00237 0.4049384,0.00237 C 9.1582359,5.8113497 8.7946747,5.4930856 8.6480386,5.4635759 8.7162698,5.5989248 8.7862214,5.7376864 8.8590148,5.8894902 Z"
   id="path8979"
   style="stroke-width:0.0171152" />
<path
   fill="#007ac2"
   opacity="1"
   stroke="none"
   d="m 17.268933,5.528214 c 0.207764,0.1822794 0.344148,0.4000366 0.403177,0.6742001 0.09655,0.4484278 -0.03414,0.9227611 -0.435039,1.1867256 -0.01984,0.01306 -0.03695,0.03059 -0.0609,0.050719 0.20827,0.059229 0.396028,0.1461876 0.541551,0.3029565 0.172389,0.1857109 0.259462,0.4122976 0.270816,0.6728455 0.01087,0.2496007 -0.01973,0.4881471 -0.127404,0.7142756 -0.156906,0.3295075 -0.406089,0.5503057 -0.7337,0.6782996 -0.218543,0.085383 -0.444821,0.125605 -0.6793,0.1241917 -0.494826,-0.00298 -0.989678,-9.076e-4 -1.491532,-9.076e-4 0,-1.56308 0,-3.1227624 0,-4.6910695 0.02433,-0.00129 0.05112,-0.00395 0.07793,-0.00396 0.464173,-2.501e-4 0.928425,-0.00542 1.392486,0.0021 0.222878,0.00361 0.441858,0.048877 0.642802,0.1576061 0.06784,0.036705 0.13,0.084748 0.199115,0.1320195 M 16.5454,7.9245586 c -0.244716,0 -0.489431,0 -0.733294,0 0,0.4309745 0,0.8503373 0,1.2562208 0.24297,0 0.480937,0.018273 0.715055,-0.00512 0.235592,-0.023543 0.445491,-0.1214129 0.551445,-0.3717102 C 17.185575,8.5512544 17.146846,8.2063198 16.882283,8.0459105 16.785523,7.9872418 16.6685,7.9647114 16.5454,7.9245586 M 15.788717,6.1192304 c 0,0.3561454 0,0.7122907 0,1.0804965 0.183372,-0.00905 0.35277,-0.014553 0.521751,-0.02645 0.227384,-0.016009 0.395498,-0.1315922 0.492194,-0.3463329 0.08671,-0.192564 0.08354,-0.3834956 -0.02274,-0.5727322 -0.104584,-0.18621 -0.267754,-0.2569092 -0.46073,-0.2656778 -0.174666,-0.00794 -0.349928,-0.00168 -0.530473,-0.00168 0,0.046427 0,0.080882 0,0.1323733 z"
   id="path8981"
   style="stroke-width:0.0171152" />
<path
   fill="#007ac2"
   opacity="1"
   stroke="none"
   d="m 12.064402,5.4486655 c 0.006,-0.017196 0.01119,-0.027448 0.01552,-0.03807 0.07109,-0.1742826 0.07107,-0.1742954 0.257843,-0.1742922 0.128654,2.2e-6 0.257432,-0.00304 0.385863,0.00253 0.02642,0.00115 0.06527,0.028601 0.07524,0.053828 0.185507,0.4692044 0.368985,0.9392947 0.549887,1.4104462 0.249963,0.6510208 0.496213,1.3035837 0.746405,1.9545091 0.156593,0.4074065 0.317552,0.8129963 0.476257,1.2195263 0.0049,0.012545 0.0065,0.026477 0.01156,0.04783 -0.02877,0.00248 -0.05227,0.00624 -0.07578,0.00628 -0.246123,4.311e-4 -0.492298,-0.00263 -0.738326,0.00237 -0.05899,0.0012 -0.08483,-0.022384 -0.103391,-0.072128 -0.125936,-0.3374842 -0.252446,-0.674735 -0.378245,-1.0122735 -0.02111,-0.056642 -0.04616,-0.090176 -0.117453,-0.089498 -0.475423,0.00452 -0.950921,0.00428 -1.426352,2.06e-4 -0.06927,-5.935e-4 -0.09531,0.024925 -0.116718,0.087511 -0.116627,0.3408929 -0.236212,0.6807064 -0.357939,1.0196644 -0.0094,0.026251 -0.04288,0.061133 -0.06563,0.061503 -0.265046,0.00431 -0.53018,0.00276 -0.807339,0.00276 0.558344,-1.4988497 1.112848,-2.9873915 1.668591,-4.4827055 m 0.181734,1.6965802 c -0.108253,0.2966028 -0.216506,0.5932058 -0.327378,0.8969838 0.365224,0 0.713221,0 1.064791,0 C 12.809367,7.511602 12.636805,6.9858878 12.468411,6.4728713 12.398851,6.681888 12.323973,6.9068698 12.246129,7.145245 Z"
   id="path8983"
   style="stroke-width:0.0171152" />
<path
   fill="#007ac2"
   opacity="1"
   stroke="none"
   d="m 21.830927,6.9139562 c 0.08959,-0.239668 0.180417,-0.47174 0.267177,-0.7054442 0.114271,-0.3078087 0.224464,-0.6172594 0.339712,-0.9246657 0.0081,-0.021492 0.04313,-0.044954 0.06607,-0.045433 0.178922,-0.00374 0.357994,-0.00404 0.536885,4.093e-4 0.02267,5.636e-4 0.05583,0.030025 0.0652,0.054075 0.396328,1.0172171 0.790866,2.0351902 1.184789,3.0534197 0.194343,0.5023418 0.387118,1.0053383 0.580305,1.5081624 0.0089,0.023181 0.01489,0.047577 0.02395,0.076962 -0.284074,0 -0.560851,0.0014 -0.83756,-0.00243 -0.02435,-3.368e-4 -0.061,-0.029668 -0.07047,-0.054418 -0.140829,-0.3680376 -0.278036,-0.7375748 -0.417062,-1.1093373 -0.531401,0 -1.062292,0 -1.595568,0 -0.126156,0.3553645 -0.254124,0.7098513 -0.376765,1.06632 -0.02468,0.071725 -0.05328,0.1042527 -0.132814,0.1022303 -0.245502,-0.00624 -0.491245,-0.00228 -0.752951,-0.00228 0.05511,-0.1491517 0.105878,-0.2862628 0.156453,-0.4234488 0.175326,-0.4755722 0.349787,-0.951491 0.526133,-1.4266532 0.129081,-0.3478048 0.260597,-0.6946314 0.391054,-1.0418837 0.01488,-0.039604 0.02992,-0.079142 0.04546,-0.1255813 m 1.071931,-0.059821 c -0.04234,-0.1374842 -0.08468,-0.2749686 -0.116943,-0.3797316 -0.174665,0.5038809 -0.358881,1.0353101 -0.544195,1.5699067 0.352976,0 0.702015,0 1.06486,0 -0.135382,-0.3959843 -0.26876,-0.78611 -0.403722,-1.1901751 z"
   id="path8985"
   style="stroke-width:0.0171152" />
<path
   fill="#007ac2"
   opacity="1"
   stroke="none"
   d="m 19.262734,7.5402829 c 0,-0.5257474 0,-1.0427678 0,-1.5669284 -0.435949,0 -0.865381,0 -1.301938,0 0,-0.2462528 0,-0.485523 0,-0.7309576 1.201895,0 2.405405,0 3.624792,0 -0.03519,0.095703 -0.06821,0.1870766 -0.102366,0.2779884 -0.0458,0.1218945 -0.09719,0.2418025 -0.136815,0.3657992 -0.0202,0.063205 -0.04768,0.085288 -0.111819,0.084691 -0.338277,-0.00315 -0.676593,-0.00147 -1.014896,-0.00147 -0.0302,1e-7 -0.0604,0 -0.1,0 0,1.3223103 0,2.637602 0,3.9574828 -0.287825,0 -0.566223,0 -0.856958,0 0,-0.792969 0,-1.5854231 0,-2.3866041 z"
   id="path8987"
   style="stroke-width:0.0171152" />
<path
   fill="#d73a3e"
   opacity="1"
   stroke="none"
   d="m 6.0044306,7.7147732 c -0.3436246,-1.3e-6 -0.6788784,-0.00205 -1.0140752,0.00159 -0.073663,7.994e-4 -0.0984,-0.021925 -0.095046,-0.098878 0.00543,-0.1246764 0.00385,-0.2498662 4.658e-4,-0.3746992 -0.00169,-0.062254 0.015196,-0.087781 0.079802,-0.087605 0.6928107,0.00189 1.3856282,0.00143 2.0784429,7.436e-4 0.061014,-6.99e-5 0.09131,0.016862 0.067407,0.087397 -0.00891,0.026285 -0.00875,0.056681 -0.00895,0.085232 -8.838e-4,0.124565 -3.796e-4,0.2491408 -3.796e-4,0.3862174 -0.3698662,0 -0.7345689,0 -1.1076629,0 z"
   id="path8989"
   style="stroke-width:0.0171152" />
<path
   fill="#007ac2"
   opacity="1"
   stroke="none"
   d="m 7.1288759,5.7424923 c 0,0.2137222 0,0.4187175 0,0.6109203 C 6.7532041,5.9625111 6.3755519,5.5695493 5.9916432,5.1700772 6.3137356,4.9137801 6.6959675,4.7385831 7.1288759,4.6545409 c 0,0.365337 0,0.7222806 0,1.0879514 z"
   id="path8991"
   style="stroke-width:0.0171152" />
<path
   fill="#007ac2"
   opacity="1"
   stroke="none"
   d="m 6.3733096,7.9417344 c 0.076717,0 0.1451078,0 0.2040233,0 C 6.1990936,8.3350441 5.8215288,8.7276521 5.4404644,9.1238991 5.1928236,8.7890998 5.0276159,8.3906035 4.9449654,7.9417344 c 0.4775622,0 0.9487901,0 1.4283442,0 z"
   id="path8993"
   style="stroke-width:0.0171152" />
<path
   fill="#007ac2"
   opacity="1"
   stroke="none"
   d="M 6.1226075,9.791972 C 6.0702025,9.755126 6.0238175,9.719705 5.9933907,9.696471 6.3707606,9.3036251 6.7492537,8.90961 7.1235991,8.5199127 c 0,0.550525 0,1.1151381 0,1.6859693 -0.3583422,-0.06926 -0.6907455,-0.203519 -1.0009916,-0.41391 z"
   id="path8995"
   style="stroke-width:0.0171152" />
<path
   fill="#007ac2"
   opacity="1"
   stroke="none"
   d="m 5.0653546,6.4604609 c 0.100185,-0.2680373 0.2213602,-0.5163246 0.3849422,-0.7277634 0.3787349,0.3936609 0.7541817,0.7839042 1.1284108,1.1728817 -0.5363693,0 -1.081299,0 -1.6386372,0 0.042584,-0.1498835 0.083542,-0.2940436 0.1252842,-0.4451183 z"
   id="path8997"
   style="stroke-width:0.0171152" />
<path
   fill="#007ac2"
   opacity="1"
   stroke="none"
   d="m 12.349056,11.818675 c -0.07903,0.234754 -0.158311,0.462209 -0.234572,0.690751 -0.0139,0.04167 -0.03182,0.06161 -0.07592,0.05847 -0.0499,-0.0035 -0.100204,-8.16e-4 -0.151711,-8.16e-4 -0.06737,-0.209568 -0.133568,-0.415488 -0.206486,-0.642313 -0.0554,0.169288 -0.104509,0.319327 -0.153609,0.469368 -0.0044,0.0135 -0.0088,0.02701 -0.01319,0.04052 -0.04721,0.145491 -0.04742,0.147439 -0.196488,0.130367 -0.0238,-0.0027 -0.0573,-0.02706 -0.06523,-0.04947 -0.106854,-0.302141 -0.209993,-0.605703 -0.313873,-0.908979 -0.0028,-0.008 -0.0035,-0.01683 -0.0069,-0.03421 0.07354,0 0.14534,-0.0051 0.215731,0.003 0.02221,0.0026 0.05081,0.03694 0.05919,0.06282 0.06031,0.186115 0.116171,0.37379 0.17836,0.577038 0.06869,-0.221601 0.133278,-0.429975 0.196989,-0.635515 0.0065,-0.0029 0.0091,-0.0049 0.01168,-0.0051 0.192629,-0.01371 0.192496,-0.01365 0.253844,0.178175 0.04691,0.146693 0.09422,0.293251 0.145993,0.454311 0.03679,-0.11416 0.07139,-0.214882 0.101531,-0.317026 0.02646,-0.08965 0.04532,-0.18179 0.07357,-0.270756 0.0064,-0.02006 0.03687,-0.04298 0.05785,-0.0448 0.06625,-0.0058 0.133254,-0.0021 0.211232,-0.0021 -0.03135,0.0861 -0.05926,0.162758 -0.08796,0.246341 z"
   id="path8999"
   style="stroke-width:0.0171152" />
<path
   fill="#007ac2"
   opacity="1"
   stroke="none"
   d="m 20.554985,11.85149 c -2e-6,0.197768 -0.002,0.386845 0.0012,0.575829 9.24e-4,0.05488 -0.01533,0.08796 -0.06511,0.104044 -0.245274,0.07923 -0.488835,0.104494 -0.702198,-0.07847 -0.05853,-0.05019 -0.101562,-0.137682 -0.121002,-0.216272 -0.07609,-0.307574 0.03828,-0.591952 0.35477,-0.674088 0.08158,-0.02117 0.168039,-0.022 0.260442,-0.03316 0,-0.139075 0,-0.294393 0,-0.456472 0.09115,0 0.176112,0 0.271883,0 0,0.254681 0,0.512273 0,0.778593 m -0.49317,-0.07289 c -0.176463,0.09573 -0.185961,0.282623 -0.143033,0.401588 0.051,0.141352 0.200399,0.206515 0.364152,0.164203 0,-0.19043 0,-0.381206 0,-0.590922 -0.07364,0.0057 -0.142238,0.01098 -0.221119,0.02513 z"
   id="path9001"
   style="stroke-width:0.0171152" />
<path
   fill="#007ac2"
   opacity="1"
   stroke="none"
   d="m 14.093658,11.327919 c 0,0.107359 0,0.206014 0,0.305426 0.07657,-0.02774 0.148274,-0.05854 0.222518,-0.07971 0.207199,-0.05908 0.379046,0.05452 0.394083,0.273905 0.01659,0.242095 0.0038,0.486369 0.0038,0.734603 -0.08962,0 -0.172262,0 -0.267964,0 0,-0.04138 -10e-7,-0.08355 0,-0.125723 8e-6,-0.165594 5.45e-4,-0.331191 -1.52e-4,-0.496781 -5.12e-4,-0.121875 -0.06938,-0.180262 -0.182928,-0.15689 -0.118619,0.02442 -0.169332,0.08845 -0.169333,0.213814 -2e-6,0.185693 0,0.371386 0,0.563803 -0.08314,0 -0.162168,0 -0.246518,0 0,-0.495169 0,-0.990025 0,-1.489604 0.08,0 0.157071,0 0.246507,0 0,0.08256 0,0.165507 0,0.257158 z"
   id="path9003"
   style="stroke-width:0.0171152" />
<path
   fill="#d63a3e"
   opacity="1"
   stroke="none"
   d="M 6.8408295,8.0061587 C 6.9188585,7.8961783 7.0247798,7.9602384 7.1205159,7.938333 7.1337939,8.0685677 7.1400439,8.1750938 7.0354679,8.27984 6.6407147,8.675233 6.2564232,9.0819716 5.8709289,9.4872547 5.8227299,9.5379283 5.7928829,9.5386176 5.7511116,9.4862127 5.7208956,9.4483043 5.6872936,9.4121498 5.6504223,9.3814151 5.5932493,9.3337585 5.5946963,9.2985387 5.6483423,9.2433928 6.0461878,8.8344195 6.4408438,8.4220896 6.8408296,8.0061592 Z"
   id="path9005"
   style="stroke-width:0.0171152" />
<path
   fill="#d73a3e"
   opacity="1"
   stroke="none"
   d="M 6.8146034,6.8207073 C 6.4072961,6.3975611 6.0043027,5.978792 5.5751727,5.5328628 c 0.079007,-0.07083 0.1551639,-0.1391042 0.2353377,-0.2109799 0.1602573,0.1669125 0.3176267,0.330947 0.4751354,0.4948367 0.2389152,0.2485942 0.4733567,0.5021281 0.7191124,0.7431829 0.1005566,0.098633 0.1541066,0.1983148 0.1135323,0.3476173 -0.102783,0.00133 -0.2199546,0.042855 -0.3036871,-0.086813 z"
   id="path9007"
   style="stroke-width:0.0171152" />
<path
   fill="#007ac2"
   opacity="1"
   stroke="none"
   d="m 17.143966,12.350087 c -0.106559,0.16789 -0.250539,0.261111 -0.438837,0.250025 -0.263831,-0.01553 -0.453958,-0.205233 -0.463064,-0.491066 -0.0076,-0.240115 0.06856,-0.435455 0.294337,-0.532015 0.273275,-0.116875 0.604313,0.01607 0.664457,0.360578 0.02543,0.145643 0.0048,0.276974 -0.05689,0.412478 m -0.611667,-0.118768 c 0.04595,0.08348 0.106684,0.149766 0.206384,0.141934 0.07075,-0.0056 0.130596,-0.04236 0.161791,-0.114994 0.0448,-0.104315 0.06127,-0.211075 0.02756,-0.323032 -0.02862,-0.09505 -0.127446,-0.183707 -0.20764,-0.183898 -0.08589,-2.06e-4 -0.174744,0.06829 -0.193251,0.179387 -0.01547,0.09287 -5.78e-4,0.191217 0.0052,0.300603 z"
   id="path9009"
   style="stroke-width:0.0171152" />
<path
   fill="#007ac2"
   opacity="1"
   stroke="none"
   d="m 7.659171,11.55547 c 0.1943977,0.06062 0.234492,0.189101 0.2405261,0.351708 0.0055,0.148114 0.00118,0.296623 0.00118,0.444959 2.6e-6,0.06835 6e-7,0.136696 6e-7,0.213345 -0.073649,-0.02002 -0.176728,0.05423 -0.2333579,-0.04918 -0.095411,0.0235 -0.1852727,0.05422 -0.277408,0.06653 -0.1902486,0.02543 -0.3046716,-0.146082 -0.3136427,-0.267823 -0.020418,-0.277084 0.1422543,-0.348544 0.2975399,-0.375052 0.081607,-0.01393 0.1650258,-0.01638 0.2477249,-0.02402 0.014941,-0.112727 -0.079519,-0.191764 -0.2035672,-0.167598 -0.034683,0.0068 -0.068166,0.02053 -0.1019313,0.03195 -0.1142004,0.03861 -0.1142749,0.03882 -0.1688531,-0.07877 -0.00705,-0.01519 -0.012088,-0.0314 -0.017929,-0.04679 0.1626713,-0.108424 0.3356963,-0.143957 0.529715,-0.09926 M 7.40962,12.357923 c 0.073289,0.03819 0.1585315,0.02328 0.1975271,-0.03042 0.035976,-0.04955 0.022663,-0.137802 0.032759,-0.223415 -0.081321,0.01068 -0.1407245,0.02084 -0.2005266,0.02566 -0.056889,0.0046 -0.1051013,0.03436 -0.1038065,0.08879 0.0011,0.04645 0.038921,0.09196 0.074047,0.139383 z"
   id="path9011"
   style="stroke-width:0.0171152" />
<path
   fill="#007ac2"
   opacity="1"
   stroke="none"
   d="m 21.99831,12.287787 c 0,0.09531 0,0.181911 0,0.273859 -0.08919,0 -0.171833,0 -0.261541,0 0,-0.324182 0,-0.650472 0,-0.98312 0.06932,0 0.140568,0 0.218051,0 0.0085,0.01905 0.0195,0.04389 0.02961,0.06664 0.05865,-0.02589 0.115929,-0.05538 0.175859,-0.07689 0.238134,-0.08547 0.433341,0.01217 0.455366,0.295089 0.01596,0.204923 0.0034,0.412246 0.0036,0.618499 2.1e-5,0.02536 5e-6,0.05072 5e-6,0.08061 -0.08528,0 -0.162316,0 -0.251738,0 0,-0.08602 0.002,-0.171957 -4.55e-4,-0.257758 -0.0039,-0.138006 -0.0082,-0.276115 -0.01752,-0.413798 -0.0052,-0.0771 -0.04681,-0.124714 -0.126917,-0.10817 -0.06104,0.01261 -0.123516,0.02802 -0.178691,0.05627 -0.02385,0.01221 -0.04215,0.05935 -0.04358,0.09155 -0.0051,0.115954 -0.002,0.232305 -0.002,0.357216 z"
   id="path9013"
   style="stroke-width:0.0171152" />
<path
   fill="#007ac2"
   opacity="1"
   stroke="none"
   d="m 24.54888,12.109881 c -0.04455,0.01761 -0.08906,0.0362 -0.133159,0.03522 -0.154941,-0.0035 -0.30974,-0.01365 -0.464623,-0.02129 -0.0031,0.128715 0.04635,0.205892 0.187594,0.230707 0.09588,0.01685 0.200046,-0.0173 0.314191,-0.03019 0.0094,0.02446 0.03232,0.06745 0.04077,0.113309 0.0038,0.02082 -0.01489,0.05828 -0.03371,0.06959 -0.190005,0.114151 -0.562079,0.142373 -0.718233,-0.143903 -0.135248,-0.247952 -0.08989,-0.740421 0.284732,-0.816068 0.234262,-0.0473 0.461865,0.09067 0.505354,0.375186 0.0091,0.05927 0.01172,0.119608 0.01708,0.187445 M 24.13264,11.746979 c -0.122104,0.0048 -0.182638,0.06356 -0.19316,0.185393 0.112498,0 0.22512,0 0.34194,0 -0.01108,-0.09518 -0.05778,-0.152137 -0.14878,-0.185393 z"
   id="path9015"
   style="stroke-width:0.0171152" />
<path
   fill="#007ac2"
   opacity="1"
   stroke="none"
   d="m 9.1393427,11.636968 c 0.1638966,-0.120388 0.331653,-0.136526 0.4985386,-0.03034 0.1899572,0.120868 0.2123317,0.319908 0.21009,0.541759 -0.1012465,-0.006 -0.1989427,-0.01415 -0.2967812,-0.01699 -0.1002662,-0.0029 -0.2006722,-6.46e-4 -0.3005804,-6.46e-4 -0.010764,0.214256 0.2126753,0.292806 0.4959092,0.172121 0.020428,0.06003 0.040645,0.119437 0.061391,0.180402 -0.2029314,0.113897 -0.3998218,0.14699 -0.6024321,0.04645 C 9.0669587,12.460985 8.9976916,12.328301 8.9796503,12.181095 8.9553733,11.98301 8.9788011,11.788682 9.1393429,11.636968 m 0.2383133,0.110888 c -0.079912,0.03498 -0.1370044,0.08912 -0.1465281,0.186736 0.1162714,0 0.2298344,0 0.3433478,0 -1.434e-4,-0.114076 -0.068761,-0.182733 -0.1968197,-0.186736 z"
   id="path9017"
   style="stroke-width:0.0171152" />
<path
   fill="#007ac2"
   opacity="1"
   stroke="none"
   d="m 21.063125,12.130759 c -0.03558,1e-6 -0.06342,1e-6 -0.09155,1e-6 0.01819,0.228498 0.174991,0.284075 0.494705,0.173199 0.01966,0.04413 0.04446,0.08805 0.05756,0.135459 0.0047,0.01713 -0.01307,0.05275 -0.02999,0.06281 -0.210598,0.125152 -0.60103,0.151259 -0.743625,-0.17962 -0.09553,-0.221664 -0.07193,-0.585079 0.176318,-0.727189 0.135802,-0.07774 0.272876,-0.07675 0.410221,-0.0071 0.145685,0.07388 0.207535,0.205241 0.225073,0.36517 0.0061,0.05607 0.01102,0.112287 0.01733,0.177269 -0.1739,0 -0.341102,0 -0.516041,0 m -0.08566,-0.193236 c 0.109463,0 0.218926,0 0.331251,0 -0.03871,-0.144453 -0.08995,-0.197019 -0.177625,-0.190651 -0.09549,0.0069 -0.158439,0.07683 -0.153626,0.190651 z"
   id="path9019"
   style="stroke-width:0.0171152" />
<path
   fill="#007ac2"
   opacity="1"
   stroke="none"
   d="m 17.63481,12.235476 c 0,0.112757 0,0.216789 0,0.326184 -0.08362,0 -0.160683,0 -0.24479,0 0,-0.324201 0,-0.65054 0,-0.983183 0.06377,0 0.129479,0 0.201384,0 0.009,0.02068 0.02056,0.04728 0.02685,0.06173 0.09489,-0.03508 0.1828,-0.08825 0.274719,-0.09728 0.192741,-0.01893 0.332034,0.04884 0.35734,0.295043 0.02442,0.237595 0.0053,0.480033 0.0053,0.724695 -0.08553,0 -0.162565,0 -0.251573,0 0,-0.101154 0.0022,-0.20172 -5.56e-4,-0.302144 -0.0033,-0.120905 -0.0077,-0.241964 -0.01816,-0.362349 -0.0029,-0.03327 -0.02091,-0.07585 -0.04567,-0.09436 -0.07794,-0.05825 -0.154945,-0.014 -0.230938,0.01674 -0.06142,0.02485 -0.07913,0.0696 -0.0752,0.136076 0.0053,0.08973 0.0013,0.180052 0.0013,0.278843 z"
   id="path9021"
   style="stroke-width:0.0171152" />
<path
   fill="#007ac2"
   opacity="1"
   stroke="none"
   d="m 5.5853142,11.170753 c 0.2928295,0 0.5773269,0 0.884841,0 -0.023387,0.07703 -0.040761,0.143327 -0.065124,0.206723 -0.00479,0.01248 -0.036461,0.0189 -0.055902,0.0193 -0.094438,0.0019 -0.1889335,8.74e-4 -0.2927713,8.74e-4 0,0.390839 0,0.77528 0,1.164534 -0.091926,0 -0.1745432,0 -0.26664,0 0,-0.383876 0,-0.768324 0,-1.162914 -0.1329495,0 -0.2568775,0 -0.3849625,0 0,-0.07859 0,-0.147097 0,-0.228521 0.05738,0 0.1148032,0 0.180559,0 z"
   id="path9023"
   style="stroke-width:0.0171152" />
<path
   fill="#007ac2"
   opacity="1"
   stroke="none"
   d="m 18.862306,11.572211 c 0.0609,1e-5 0.113932,1e-5 0.178617,1e-5 -0.02189,0.06415 -0.02626,0.142343 -0.06529,0.173342 -0.04075,0.03237 -0.11487,0.01929 -0.181244,0.02687 0,0.261128 0,0.521785 0,0.788515 -0.0917,0 -0.176522,0 -0.270282,0 0,-0.262881 0,-0.525874 0,-0.793073 -0.0467,-0.0024 -0.08488,-0.0044 -0.128494,-0.0067 0,-0.06741 0,-0.132378 0,-0.202949 0.04044,-0.0021 0.0786,-0.004 0.121222,-0.0062 0.0082,-0.06884 0.01898,-0.136205 0.02367,-0.204022 0.0091,-0.131993 0.112814,-0.251327 0.238401,-0.263348 0.05876,-0.0056 0.119042,-0.0068 0.177521,1.4e-4 0.09879,0.01173 0.132793,0.02512 0.08939,0.138439 -0.01001,0.02615 -0.0162,0.05388 -0.0259,0.08681 -0.04096,-0.0058 -0.08081,-0.01421 -0.12098,-0.01641 -0.0678,-0.0037 -0.103327,0.0332 -0.105824,0.103122 -0.0015,0.04067 0.0025,0.08168 -8.8e-4,0.122107 -0.0043,0.05245 0.02487,0.05659 0.07007,0.05338 z"
   id="path9025"
   style="stroke-width:0.0171152" />
<path
   fill="#007ac2"
   opacity="1"
   stroke="none"
   d="m 13.15384,12.252255 c 0,-0.164955 0,-0.321297 0,-0.484578 -0.05607,0 -0.105255,0 -0.161141,0 0,-0.07169 0,-0.136488 0,-0.211719 0.0505,0 0.101735,0 0.159178,0 0,-0.07873 0,-0.14759 0,-0.220474 0.08499,-0.02677 0.165209,-0.05204 0.252692,-0.07959 0,0.100805 0,0.193191 0,0.295066 0.09572,0 0.186426,0 0.302923,0 -0.03308,0.07939 -0.04354,0.166674 -0.08922,0.197485 -0.05043,0.03401 -0.133142,0.01624 -0.212061,0.02174 0,0.170564 -0.0042,0.34109 0.0021,0.511198 0.0025,0.06854 0.0605,0.08536 0.117395,0.0732 0.03943,-0.0084 0.07621,-0.03029 0.122907,-0.04979 0.0244,0.05456 0.04921,0.110014 0.07585,0.169575 -0.122446,0.08352 -0.251609,0.12451 -0.393162,0.108605 -0.114746,-0.01289 -0.176803,-0.09382 -0.177392,-0.217484 -1.66e-4,-0.03487 -2.7e-5,-0.06975 -2.9e-5,-0.113234 z"
   id="path9027"
   style="stroke-width:0.0171152" />
<path
   fill="#007ac2"
   opacity="1"
   stroke="none"
   d="m 8.7238885,12.13218 c -0.051431,0.133276 -0.1037315,0.259108 -0.1518443,0.38665 -0.028079,0.07443 -0.08672,0.04275 -0.134219,0.04747 -0.040237,0.004 -0.079313,0.0086 -0.1008741,-0.04735 -0.115065,-0.298496 -0.2338166,-0.595453 -0.3505064,-0.893277 -0.00583,-0.01488 -0.00433,-0.03287 -0.00625,-0.04952 0.2430952,-0.01663 0.2427052,-0.01648 0.3264207,0.212356 0.050499,0.138036 0.102436,0.275504 0.1573917,0.423069 0.071266,-0.195489 0.1430482,-0.381746 0.2058195,-0.571233 0.018247,-0.05508 0.041284,-0.07232 0.093094,-0.06896 0.057486,0.0037 0.1153674,8.54e-4 0.1879415,8.54e-4 -0.079022,0.193366 -0.1525534,0.373295 -0.2269735,0.55995 z"
   id="path9029"
   style="stroke-width:0.0171152" />
<path
   fill="#007ac2"
   opacity="1"
   stroke="none"
   d="m 23.591218,12.426567 c -0.0063,0.02823 -0.0073,0.06078 -0.02201,0.07034 -0.19448,0.126154 -0.520809,0.14187 -0.68352,-0.08327 -0.03811,-0.05273 -0.06624,-0.118426 -0.08199,-0.182659 -0.10458,-0.426469 0.189245,-0.762717 0.587188,-0.677785 0.0054,0.0012 0.01117,5.29e-4 0.01667,0.0014 0.147473,0.02355 0.151794,0.02883 0.151533,0.184203 -4.3e-5,0.02604 -6e-6,0.05208 -6e-6,0.09294 -0.182515,-0.106484 -0.355078,-0.139126 -0.483964,0.06806 -0.07348,0.118131 -0.03898,0.299141 0.0339,0.37865 0.128006,0.139649 0.277792,0.09016 0.428017,0.0261 0.01828,0.03978 0.03572,0.07771 0.05418,0.122011 z"
   id="path9031"
   style="stroke-width:0.0171152" />
<path
   fill="#007ac2"
   opacity="1"
   stroke="none"
   d="m 15.915862,11.538098 c 0.01501,0.0043 0.02217,0.0097 0.03008,0.01147 0.198725,0.04556 0.198739,0.0455 0.170363,0.28125 -0.159036,-0.10069 -0.323889,-0.135904 -0.453785,0.02897 -0.103738,0.131678 -0.08227,0.305414 0.0098,0.414539 0.119889,0.142146 0.270763,0.09878 0.423838,0.02522 0.0207,0.05102 0.04422,0.09835 0.05769,0.148582 0.0041,0.0153 -0.01468,0.0471 -0.03101,0.05699 -0.193453,0.117113 -0.513238,0.13079 -0.668915,-0.0896 -0.04686,-0.06634 -0.08787,-0.149554 -0.09785,-0.229583 -0.05165,-0.414341 0.174278,-0.663586 0.559814,-0.647842 z"
   id="path9033"
   style="stroke-width:0.0171152" />
<path
   fill="#007ac2"
   opacity="1"
   stroke="none"
   d="m 10.267223,11.659492 c 1e-6,0.17446 -0.0012,0.34021 8.19e-4,0.505914 5.63e-4,0.04515 -0.0018,0.09971 0.02073,0.132525 0.02168,0.03162 0.07373,0.0407 0.125765,0.06622 -5.3e-5,-4.5e-4 8.13e-4,0.01907 0.0047,0.03793 0.03117,0.152189 0.0082,0.174839 -0.142251,0.184088 -0.195503,0.01202 -0.265034,-0.08977 -0.262846,-0.273034 0.0045,-0.380835 0.0014,-0.76177 0.0014,-1.142664 0,-0.0313 1e-6,-0.06259 1e-6,-0.09911 0.08479,0 0.161844,0 0.251737,0 0,0.192487 0,0.385943 0,0.588127 z"
   id="path9035"
   style="stroke-width:0.0171152" />
<path
   fill="#007ac2"
   opacity="1"
   stroke="none"
   d="m 6.6290844,11.574772 c 0.019165,0.02248 0.031356,0.04326 0.044242,0.06522 0.121906,-0.07083 0.2420455,-0.156408 0.3937311,-0.05098 -0.0287,0.07273 -0.057431,0.14553 -0.088514,0.224298 -0.088903,-0.04214 -0.1749271,-0.05009 -0.2473431,0.02062 -0.026256,0.02564 -0.052177,0.06762 -0.053025,0.102802 -0.00496,0.205648 -0.00243,0.411491 -0.00243,0.623805 -0.083496,0 -0.1624492,0 -0.2466212,0 0,-0.326796 0,-0.652875 0,-0.987476 0.06622,0 0.1296042,0 0.1999625,0.0017 z"
   id="path9037"
   style="stroke-width:0.0171152" />
<path
   fill="#007ac2"
   opacity="1"
   stroke="none"
   d="m 12.818173,12.493892 c 0.0025,0.04612 8.42e-4,0.07691 -0.05037,0.074 -0.06344,-0.0036 -0.127207,-8.64e-4 -0.196055,-8.64e-4 0,-0.33273 0,-0.658701 0,-0.989751 0.07908,0 0.156057,0 0.246438,0 0,0.301968 0,0.605109 -9e-6,0.916615 z"
   id="path9039"
   style="stroke-width:0.0171152" />
<path
   fill="#007ac2"
   opacity="1"
   stroke="none"
   d="m 19.361478,12.567126 c -0.05759,3e-6 -0.107158,3e-6 -0.16118,3e-6 0,-0.334132 0,-0.660097 0,-0.990488 0.08093,0 0.157883,0 0.240963,0 0,0.32682 0,0.652792 0,0.985251 -0.0236,0.0017 -0.04768,0.0035 -0.07978,0.0052 z"
   id="path9041"
   style="stroke-width:0.0171152" />
<path
   fill="#007ac2"
   opacity="1"
   stroke="none"
   d="m 19.215623,11.374591 c -0.07685,-0.139596 -0.0248,-0.252457 0.109046,-0.257035 0.07005,-0.0024 0.11148,0.02528 0.142379,0.09211 0.03336,0.07215 0.0039,0.130792 -0.03562,0.172705 -0.03681,0.03906 -0.0957,0.06825 -0.156481,0.03293 -0.0188,-0.01093 -0.0366,-0.02373 -0.05933,-0.04071 z"
   id="path9043"
   style="stroke-width:0.0171152" />
<path
   fill="#007ac2"
   opacity="1"
   stroke="none"
   d="m 12.565216,11.326765 c -0.02556,-0.09083 0.0051,-0.174649 0.07006,-0.200942 0.08188,-0.03313 0.173742,0.0011 0.205382,0.07662 0.03386,0.08078 0.0037,0.166919 -0.07112,0.20274 -0.08242,0.03949 -0.159358,0.01245 -0.204326,-0.07841 z"
   id="path9045"
   style="stroke-width:0.0171152" />








<path
   fill="#000000"
   opacity="1"
   stroke="none"
   d="m 8.6710282,9.4058761 c -0.00534,0.00745 -0.013758,0.011464 -0.022175,0.015477 0.00192,-0.00643 0.00384,-0.012854 0.00934,-0.022526 0.00564,-9.617e-4 0.0077,0.00132 0.012834,0.00705 z"
   id="path9063"
   style="stroke-width:0.0171152" />










</svg>
