<?xml version="1.0" encoding="UTF-8" standalone="no"?>

<svg 
xmlns="http://www.w3.org/2000/svg" 
xmlns:svg="http://www.w3.org/2000/svg"
viewBox="0 0 48 48" 
width="48" 
height="48">


<path d=" M 24 38.712 Q 20.984 38.712 18.299 37.553 Q 15.614 36.395 13.61 34.39 Q 11.605 32.386 10.447 29.701 Q 9.288 27.016 9.288 24 Q 9.288 20.947 10.447 18.262 Q 11.605 15.578 13.61 13.591 Q 15.614 11.605 18.299 10.447 Q 20.984 9.288 24 9.288 Q 27.053 9.288 29.738 10.447 Q 32.422 11.605 34.409 13.591 Q 36.395 15.578 37.553 18.262 Q 38.712 20.947 38.712 24 Q 38.712 27.016 37.553 29.701 Q 36.395 32.386 34.409 34.39 Q 32.422 36.395 29.738 37.553 Q 27.053 38.712 24 38.712 Z " style="fill:#000000;fill-opacity:1;"/>


<path d=" M 16.071 32.712 C 15.255 32.007 14.506 31.343 13.628 30.565 C 16.113 28.383 18.547 26.247 21.07 24.032 C 18.58 21.852 16.143 19.719 13.624 17.513 C 14.653 16.615 15.585 15.802 16.583 14.931 C 18.523 16.623 20.403 18.307 22.332 19.933 C 24.447 21.716 23.663 21.71 25.753 19.955 C 27.665 18.351 29.517 16.677 31.502 14.941 C 32.462 15.768 33.415 16.59 34.479 17.507 C 31.96 19.712 29.521 21.847 27.023 24.033 C 29.523 26.22 31.945 28.34 34.478 30.557 C 33.584 31.333 32.793 32.1 31.906 32.732 C 31.692 32.884 31.058 32.706 30.788 32.478 C 28.906 30.89 27.07 29.247 25.217 27.624 C 24.045 26.597 24.044 26.599 22.853 27.645 C 21.002 29.271 19.166 30.913 17.283 32.5 C 17.018 32.724 16.524 32.675 16.071 32.712 Z " fill="#FFFFFF"/>

</svg>