<?xml version="1.0" encoding="UTF-8" standalone="no"?><!-- Generator: Gravit.io --><svg xmlns="http://www.w3.org/2000/svg" xmlns:xlink="http://www.w3.org/1999/xlink" style="isolation:isolate" viewBox="0 0 48 48" width="48pt" height="48pt"><defs><clipPath id="_clipPath_hidXk8YUWvqC7OceAtCJiTZKBOeVfHfv"><rect width="48" height="48"/></clipPath></defs><g clip-path="url(#_clipPath_hidXk8YUWvqC7OceAtCJiTZKBOeVfHfv)"><g><path d=" M 16.823 19.451 C 18.38 19.467 19.854 19.467 21.625 19.467 C 20.907 20.226 20.282 20.81 19.755 21.472 C 19.396 21.922 19.033 22.453 18.924 22.997 C 18.74 23.916 19.275 24.592 20.099 24.947 C 21.063 25.363 22.037 25.317 22.829 24.552 C 23.735 23.675 24.584 22.739 25.528 21.755 C 26.982 22.841 28.338 23.855 29.695 24.869 C 30.428 25.418 31.144 25.991 31.898 26.511 C 32.52 26.939 32.99 27.445 32.747 28.235 C 32.498 29.046 31.832 29.304 31.027 29.263 C 30.935 29.258 30.841 29.285 30.699 29.304 C 30.529 30.124 30.136 30.751 29.177 30.805 C 29.052 30.812 28.853 30.936 28.825 31.042 C 28.61 31.862 28.063 32.227 27.255 32.325 C 27.134 32.34 27.021 32.582 26.941 32.738 C 26.321 33.94 25.367 34.105 24.181 33.125 C 24.545 32.743 24.981 32.408 25.246 31.971 C 25.499 31.552 25.798 30.949 25.667 30.569 C 25.528 30.167 24.91 29.925 24.492 29.626 C 24.192 29.411 23.895 29.181 23.566 29.02 C 22.916 28.702 22.192 28.507 21.6 28.111 C 21.034 27.733 20.67 26.913 20.085 26.743 C 19.365 26.534 18.862 26.351 18.411 25.682 C 17.835 24.829 16.373 24.856 15.517 25.627 C 15.173 25.937 14.95 26.381 14.543 26.941 C 13.581 25.908 12.831 25.146 12.145 24.33 C 12.004 24.162 11.99 23.716 12.114 23.527 C 12.999 22.181 13.915 20.855 14.872 19.561 C 15.026 19.352 15.43 19.256 15.724 19.243 C 16.059 19.228 16.401 19.365 16.823 19.451 Z " fill="rgb(253,254,252)"/><path d=" M 28.527 19.539 C 29.834 19.467 31.054 19.362 32.276 19.322 C 32.556 19.313 32.955 19.442 33.11 19.649 C 34.034 20.888 34.918 22.158 35.773 23.445 C 35.9 23.636 35.923 24.082 35.791 24.23 C 35.04 25.075 34.228 25.866 33.392 26.72 C 30.754 24.739 28.193 22.814 25.531 20.814 C 24.528 21.828 23.587 22.84 22.574 23.774 C 22.206 24.113 21.644 24.494 21.213 24.449 C 20.671 24.392 19.99 24.029 19.721 23.585 C 19.536 23.28 19.814 22.493 20.126 22.129 C 20.988 21.127 21.925 20.171 22.941 19.328 C 23.365 18.976 24.083 18.765 24.635 18.821 C 25.914 18.95 27.174 19.281 28.527 19.539 Z " fill="rgb(253,254,252)"/><path d=" M 37.554 24.097 C 37.244 23.91 36.943 23.767 36.774 23.53 C 35.66 21.967 34.588 20.374 33.474 18.81 C 33.012 18.16 33.14 17.733 33.83 17.387 C 34.7 16.949 35.556 16.483 36.559 15.955 C 38.011 18.055 39.468 20.161 41.021 22.407 C 39.844 22.993 38.734 23.546 37.554 24.097 Z " fill="rgb(253,254,251)"/><path d=" M 8.851 23.411 C 8.218 23.059 7.649 22.74 6.979 22.364 C 8.488 20.184 9.933 18.097 11.423 15.944 C 12.443 16.497 13.407 17.012 14.364 17.543 C 14.856 17.816 14.898 18.21 14.591 18.652 C 13.442 20.309 12.285 21.961 11.138 23.619 C 10.789 24.122 10.366 24.222 9.835 23.927 C 9.532 23.759 9.221 23.604 8.851 23.411 Z " fill="rgb(253,254,251)"/><path d=" M 15.913 26.375 C 16.358 26.167 16.761 25.869 17.146 25.89 C 17.478 25.909 17.916 26.229 18.069 26.535 C 18.192 26.781 18.066 27.298 17.863 27.534 C 17.249 28.247 16.567 28.908 15.867 29.539 C 15.318 30.033 14.655 30.156 14.095 29.58 C 13.526 28.994 13.801 28.444 14.321 27.952 C 14.847 27.455 15.35 26.934 15.913 26.375 Z " fill="rgb(251,253,248)"/><path d=" M 19.689 27.359 C 20.947 27.779 21.123 28.393 20.296 29.267 C 19.821 29.768 19.334 30.259 18.832 30.732 C 18.235 31.294 17.314 31.346 16.902 30.826 C 16.393 30.184 16.682 29.639 17.222 29.202 C 18.005 28.569 18.816 27.971 19.689 27.359 Z " fill="rgb(249,252,246)"/><path d=" M 23.055 29.947 C 22.355 30.748 21.695 31.513 20.968 32.206 C 20.523 32.631 19.892 32.647 19.566 32.126 C 19.394 31.849 19.503 31.215 19.722 30.915 C 20.163 30.31 20.737 29.79 21.309 29.296 C 22.048 28.655 22.726 28.901 23.055 29.947 Z " fill="rgb(249,252,245)"/><path d=" M 24.416 31.862 C 24.01 32.267 23.702 32.718 23.276 32.949 C 22.966 33.116 22.499 32.994 22.102 33.001 C 22.153 32.647 22.099 32.224 22.277 31.955 C 22.569 31.516 23.013 31.18 23.391 30.798 C 23.815 30.367 24.299 30.137 24.786 30.636 C 25.286 31.148 24.769 31.472 24.416 31.862 Z " fill="rgb(248,251,244)"/></g></g></svg>