<?xml version="1.0" encoding="UTF-8" standalone="no"?>

<svg 
xmlns="http://www.w3.org/2000/svg" 
xmlns:svg="http://www.w3.org/2000/svg"
style="isolation:isolate" 
viewBox="0 0 48 48" 
width="48" 
height="48">

<defs>

<clipPath id="_clipPath_kSVxkKXZcbfhJR2U4LYxfpEwcDsRSVYu">

<rect width="48" height="48"/>

</clipPath>

</defs>

<g clip-path="url(#_clipPath_kSVxkKXZcbfhJR2U4LYxfpEwcDsRSVYu)">

<path d=" M 24 38.712 Q 20.984 38.712 18.299 37.553 Q 15.614 36.395 13.61 34.39 Q 11.605 32.386 10.447 29.701 Q 9.288 27.016 9.288 24 Q 9.288 20.947 10.447 18.262 Q 11.605 15.578 13.61 13.591 Q 15.614 11.605 18.299 10.447 Q 20.984 9.288 24 9.288 Q 27.053 9.288 29.738 10.447 Q 32.422 11.605 34.409 13.591 Q 36.395 15.578 37.553 18.262 Q 38.712 20.947 38.712 24 Q 38.712 27.016 37.553 29.701 Q 36.395 32.386 34.409 34.39 Q 32.422 36.395 29.738 37.553 Q 27.053 38.712 24 38.712 Z " style="fill:#000000;fill-opacity:1"/>

<clipPath id="_clipPath_ee9ghDdh13w4ut35aCdLGqSWT3CYKB7P">

<rect x="0" y="0" width="48" height="48" transform="matrix(1,0,0,1,0,0)" fill="rgb(255,255,255)"/>

</clipPath>

<g clip-path="url(#_clipPath_ee9ghDdh13w4ut35aCdLGqSWT3CYKB7P)">

<g>

<g>

<path d=" M 18.975 20.695 C 20.073 20.707 21.113 20.707 22.362 20.707 C 21.856 21.242 21.415 21.654 21.043 22.121 C 20.79 22.438 20.534 22.813 20.457 23.197 C 20.327 23.845 20.704 24.322 21.286 24.572 C 21.966 24.866 22.653 24.833 23.211 24.294 C 23.851 23.675 24.449 23.015 25.115 22.321 C 26.141 23.087 27.097 23.802 28.055 24.517 C 28.572 24.905 29.077 25.309 29.609 25.676 C 30.047 25.977 30.379 26.334 30.207 26.892 C 30.032 27.464 29.562 27.646 28.994 27.617 C 28.929 27.613 28.863 27.632 28.763 27.646 C 28.643 28.224 28.366 28.666 27.689 28.704 C 27.601 28.709 27.461 28.797 27.441 28.872 C 27.289 29.45 26.903 29.708 26.333 29.777 C 26.248 29.787 26.168 29.958 26.112 30.068 C 25.675 30.916 25.002 31.032 24.165 30.341 C 24.422 30.071 24.729 29.835 24.916 29.527 C 25.095 29.231 25.306 28.806 25.213 28.538 C 25.115 28.254 24.679 28.084 24.384 27.873 C 24.173 27.721 23.963 27.559 23.731 27.445 C 23.273 27.221 22.762 27.083 22.345 26.804 C 21.945 26.538 21.688 25.959 21.276 25.839 C 20.768 25.692 20.413 25.563 20.095 25.091 C 19.689 24.489 18.657 24.508 18.054 25.052 C 17.811 25.271 17.654 25.584 17.367 25.979 C 16.688 25.25 16.159 24.713 15.675 24.137 C 15.576 24.019 15.566 23.704 15.653 23.571 C 16.277 22.621 16.924 21.686 17.599 20.773 C 17.707 20.626 17.992 20.558 18.2 20.549 C 18.436 20.538 18.677 20.635 18.975 20.695 Z " fill="#FFFFFF"/>

<path d=" M 27.231 20.758 C 28.153 20.707 29.013 20.633 29.875 20.604 C 30.073 20.598 30.354 20.689 30.464 20.835 C 31.115 21.709 31.739 22.605 32.342 23.513 C 32.432 23.648 32.448 23.962 32.355 24.067 C 31.825 24.663 31.252 25.221 30.662 25.823 C 28.802 24.426 26.995 23.068 25.117 21.657 C 24.41 22.372 23.746 23.086 23.032 23.745 C 22.772 23.984 22.376 24.253 22.072 24.221 C 21.689 24.181 21.209 23.925 21.019 23.612 C 20.889 23.396 21.085 22.841 21.305 22.585 C 21.913 21.878 22.574 21.203 23.29 20.609 C 23.59 20.36 24.096 20.212 24.485 20.251 C 25.388 20.342 26.276 20.576 27.231 20.758 Z " fill="#FFFFFF"/>

<path d=" M 33.598 23.973 C 33.38 23.841 33.167 23.74 33.048 23.573 C 32.262 22.47 31.506 21.347 30.72 20.243 C 30.394 19.785 30.485 19.484 30.971 19.24 C 31.585 18.931 32.189 18.602 32.896 18.229 C 33.921 19.711 34.948 21.196 36.044 22.781 C 35.214 23.194 34.431 23.584 33.598 23.973 Z " fill="#FFFFFF"/>

<path d=" M 13.352 23.489 C 12.905 23.241 12.504 23.015 12.031 22.75 C 13.095 21.213 14.115 19.74 15.166 18.222 C 15.885 18.612 16.565 18.975 17.24 19.35 C 17.587 19.542 17.617 19.82 17.4 20.132 C 16.59 21.301 15.774 22.466 14.965 23.636 C 14.719 23.99 14.42 24.061 14.046 23.853 C 13.832 23.734 13.613 23.625 13.352 23.489 Z " fill="#FFFFFF"/>

<path d=" M 18.333 25.58 C 18.647 25.433 18.931 25.223 19.203 25.237 C 19.437 25.251 19.746 25.477 19.854 25.692 C 19.941 25.866 19.852 26.231 19.708 26.397 C 19.275 26.9 18.794 27.366 18.301 27.811 C 17.913 28.16 17.446 28.247 17.051 27.84 C 16.649 27.427 16.843 27.039 17.21 26.692 C 17.581 26.341 17.936 25.974 18.333 25.58 Z " fill="rgb(251,253,248)"/><path d=" M 20.997 26.274 C 21.884 26.57 22.008 27.003 21.425 27.62 C 21.09 27.973 20.746 28.319 20.392 28.653 C 19.971 29.049 19.321 29.086 19.031 28.719 C 18.672 28.266 18.875 27.882 19.256 27.574 C 19.809 27.127 20.381 26.705 20.997 26.274 Z " fill="#FFFFFF"/>

<path d=" M 23.371 28.099 C 22.877 28.664 22.412 29.204 21.899 29.693 C 21.585 29.992 21.14 30.004 20.91 29.636 C 20.788 29.441 20.865 28.994 21.02 28.782 C 21.331 28.355 21.736 27.988 22.139 27.64 C 22.661 27.188 23.139 27.361 23.371 28.099 Z " fill="#FFFFFF"/>

<path d=" M 24.331 29.45 C 24.044 29.736 23.827 30.054 23.527 30.217 C 23.308 30.335 22.979 30.249 22.699 30.253 C 22.735 30.004 22.696 29.705 22.822 29.516 C 23.028 29.206 23.341 28.969 23.608 28.7 C 23.907 28.395 24.248 28.233 24.592 28.585 C 24.945 28.946 24.58 29.175 24.331 29.45 Z " fill="#FFFFFF"/>

</g>

</g>

</g>

</g>

</svg>