<?xml version="1.0" encoding="UTF-8" standalone="no"?>

<svg 
xmlns="http://www.w3.org/2000/svg" 
xmlns:svg="http://www.w3.org/2000/svg" 
viewBox="0 0 48 48" 
width="48" 
height="48">

<path d=" M 24 38.712 Q 20.984 38.712 18.299 37.553 Q 15.614 36.395 13.61 34.39 Q 11.605 32.386 10.447 29.701 Q 9.288 27.016 9.288 24 Q 9.288 20.947 10.447 18.262 Q 11.605 15.578 13.61 13.591 Q 15.614 11.605 18.299 10.447 Q 20.984 9.288 24 9.288 Q 27.053 9.288 29.738 10.447 Q 32.422 11.605 34.409 13.591 Q 36.395 15.578 37.553 18.262 Q 38.712 20.947 38.712 24 Q 38.712 27.016 37.553 29.701 Q 36.395 32.386 34.409 34.39 Q 32.422 36.395 29.738 37.553 Q 27.053 38.712 24 38.712 Z " style="fill:#000000;fill-opacity:1""/>


<path d=" M 27.501 19.921 C 29.145 21.352 30.757 22.74 32.344 24.157 C 32.556 24.346 32.763 24.674 32.766 24.941 C 32.798 27.34 32.785 29.741 32.781 32.14 C 32.781 32.233 32.751 32.325 32.731 32.45 C 30.416 32.45 28.129 32.45 25.764 32.45 C 25.764 30.248 25.764 28.083 25.764 25.858 C 24.571 25.858 23.456 25.858 22.263 25.858 C 22.263 28.053 22.263 30.22 22.263 32.437 C 19.901 32.437 17.614 32.437 15.261 32.437 C 15.246 32.233 15.216 32.021 15.216 31.809 C 15.213 29.582 15.198 27.355 15.232 25.129 C 15.237 24.809 15.396 24.394 15.63 24.188 C 18.261 21.861 20.925 19.573 23.567 17.257 C 23.898 16.966 24.11 16.966 24.435 17.259 C 25.428 18.152 26.45 19.013 27.501 19.921 Z " fill="#FFFFFF"/>

<path d=" M 22.73 14.281 C 23.162 13.911 23.555 13.576 24.009 13.188 C 28.103 16.748 32.177 20.292 36.322 23.897 C 35.834 24.273 35.432 24.581 34.992 24.921 C 33.17 23.345 31.377 21.796 29.587 20.245 C 27.924 18.804 26.247 17.378 24.612 15.904 C 24.148 15.486 23.877 15.472 23.397 15.895 C 20.054 18.834 16.681 21.739 13.316 24.654 C 13.226 24.733 13.126 24.801 12.992 24.905 C 12.575 24.585 12.171 24.277 11.678 23.898 C 15.391 20.668 19.041 17.492 22.73 14.281 Z " fill="#FFFFFF"/>

</svg>