<?xml version="1.0" encoding="UTF-8" standalone="no"?><!-- Generator: Gravit.io --><svg xmlns="http://www.w3.org/2000/svg" xmlns:xlink="http://www.w3.org/1999/xlink" style="isolation:isolate" viewBox="0 0 48 48" width="48pt" height="48pt"><defs><clipPath id="_clipPath_pCtprora2qkdoroFIjCjN4tGvJ3A4hXX"><rect width="48" height="48"/></clipPath></defs><g clip-path="url(#_clipPath_pCtprora2qkdoroFIjCjN4tGvJ3A4hXX)"><g><path d=" M 24.394 14.367 C 23.872 14.211 23.401 14.095 22.952 13.922 C 22.779 13.855 22.656 13.658 22.509 13.52 C 22.66 13.392 22.794 13.181 22.963 13.15 C 26.438 12.508 29.81 12.416 32.656 15.04 C 33.366 15.694 34.113 16.308 34.851 16.932 C 35.259 17.277 35.506 17.608 35.112 18.158 C 34.99 18.329 35.019 18.776 35.159 18.92 C 35.313 19.078 35.703 19.127 35.944 19.059 C 36.777 18.824 38.381 19.547 38.591 20.364 C 38.648 20.587 38.508 20.959 38.33 21.127 C 37.572 21.847 36.767 22.518 35.976 23.203 C 35.569 23.555 35.146 23.542 34.736 23.214 C 34.401 22.946 34.088 22.65 33.751 22.384 C 33.335 22.056 33.183 21.729 33.518 21.219 C 33.64 21.033 33.618 20.597 33.477 20.438 C 33.336 20.279 32.895 20.197 32.708 20.301 C 32 20.695 31.483 20.449 30.984 19.952 C 30.794 19.763 30.569 19.608 30.388 19.412 C 30.056 19.054 29.786 19.119 29.439 19.425 C 26.541 21.982 23.63 24.522 20.724 27.069 C 20.646 27.138 20.582 27.224 20.478 27.339 C 21.156 28 20.751 28.418 20.196 28.894 C 17.875 30.886 15.584 32.914 13.278 34.923 C 12.372 35.712 11.236 35.819 10.308 35.222 C 9.26 34.549 9.065 33.24 9.988 32.41 C 12.44 30.202 14.922 28.025 17.44 25.892 C 17.729 25.647 18.32 25.758 18.77 25.704 C 18.798 25.794 18.826 25.884 18.854 25.974 C 22.028 23.218 25.201 20.461 28.414 17.67 C 27.324 16.226 26.047 15.118 24.394 14.367 Z " fill="rgb(255,252,252)"/></g></g></svg>