<?xml version="1.0" encoding="UTF-8" standalone="no"?>
<svg
   viewBox="0 0 24 24"
   width="24pt"
   height="24pt"
   version="1.1"
   id="svg10142"
   sodipodi:docname="action.svg"
   inkscape:version="1.2.2 (732a01da63, 2022-12-09)"
   xmlns:inkscape="http://www.inkscape.org/namespaces/inkscape"
   xmlns:sodipodi="http://sodipodi.sourceforge.net/DTD/sodipodi-0.dtd"
   xmlns="http://www.w3.org/2000/svg"
   xmlns:svg="http://www.w3.org/2000/svg">
  <defs
     id="defs10146" />
  <sodipodi:namedview
     id="namedview10144"
     pagecolor="#ffffff"
     bordercolor="#000000"
     borderopacity="0.25"
     inkscape:showpageshadow="2"
     inkscape:pageopacity="0.0"
     inkscape:pagecheckerboard="0"
     inkscape:deskcolor="#d1d1d1"
     inkscape:document-units="pt"
     showgrid="false"
     inkscape:zoom="24.625"
     inkscape:cx="16"
     inkscape:cy="16"
     inkscape:window-width="1920"
     inkscape:window-height="986"
     inkscape:window-x="-11"
     inkscape:window-y="-11"
     inkscape:window-maximized="1"
     inkscape:current-layer="svg10142" />
  <path
     class="st0"
     d="m 6.2997173,7.3620904 c -0.024167,0 -0.051025,0.02065 -0.059078,0.043885 L 5.2470078,10.496217 c -0.00805,0.02324 0.0054,0.04389 0.029539,0.04389 h 0.3464285 c 0.024167,0 0.051025,-0.02065 0.059078,-0.04389 l 0.993633,-3.0902432 c 0.00805,-0.023235 -0.0053,-0.043885 -0.029539,-0.043885 z"
     id="path11"
     style="fill:#5bc5f2;stroke-width:0.0263306" />
  <path
     class="st0"
     d="m 5.5773225,7.3620904 c -0.024177,0 -0.051025,0.02065 -0.059078,0.043885 L 4.524612,10.496217 c -0.00805,0.02324 0.0054,0.04389 0.029539,0.04389 h 0.056397 0.042973 0.042973 0.056397 c 0.024167,0 0.051025,-0.02065 0.059078,-0.04389 L 5.8056021,7.4059738 c 0.00805,-0.023235 -0.0053,-0.043885 -0.029538,-0.043885 z"
     id="path13"
     style="fill:#5bc5f2;stroke-width:0.0263306" />
  <path
     class="st0"
     d="m 5.0858763,7.405978 c 0.00805,-0.023235 -0.0054,-0.043885 -0.029538,-0.043885 h -0.06445 c -0.029539,0 -0.042973,0.01549 -0.053717,0.043885 L 3.944539,10.496221 c -0.00805,0.02324 0.00541,0.04389 0.029539,0.04389 h 0.061769 c 0.029539,0 0.042973,-0.01549 0.053717,-0.04389 z"
     id="path15"
     style="fill:#5bc5f2;stroke-width:0.0263306" />
  <path
     class="st1"
     d="m 20.019904,7.3620904 c 0.02418,0 0.0403,0.02065 0.0376,0.04647 l -0.47533,3.0876606 c -0.0026,0.02581 -0.02685,0.04647 -0.05102,0.04647 h -0.400138 c -0.02418,0 -0.05371,-0.01808 -0.06445,-0.04131 L 18.319995,9.0375813 c -0.01074,-0.023235 -0.02418,-0.02065 -0.02685,0.00519 l -0.222896,1.4560537 c -0.0026,0.02581 -0.02686,0.04646 -0.05102,0.04646 h -0.631092 c -0.02417,0 -0.0403,-0.02065 -0.03759,-0.04646 l 0.475318,-3.0876899 c 0.0026,-0.02582 0.02686,-0.04647 0.05102,-0.04647 h 0.400136 c 0.02418,0 0.05371,0.018075 0.06445,0.04131 l 0.746568,1.4637979 c 0.01074,0.023235 0.02418,0.02065 0.02686,-0.00519 L 19.337788,7.40853 c 0.0026,-0.02582 0.02686,-0.04647 0.05102,-0.04647 z"
     id="path17"
     style="fill:#26358c;stroke-width:0.0263306" />
  <path
     class="st1"
     d="m 13.717051,8.0668815 c -0.0026,0.025809 -0.02685,0.04647 -0.05102,0.04647 h -0.545155 c -0.02418,0 -0.04834,0.02065 -0.05102,0.04647 L 12.709999,10.49622 c -0.0026,0.02581 -0.02685,0.04647 -0.05102,0.04647 h -0.631087 c -0.02418,0 -0.0403,-0.02065 -0.03759,-0.04647 l 0.359857,-2.3363992 c 0.0026,-0.025809 -0.01343,-0.04647 -0.03759,-0.04647 h -0.526356 c -0.02417,0 -0.0403,-0.02065 -0.0376,-0.04647 l 0.102051,-0.660903 c 0.0026,-0.02582 0.02685,-0.04647 0.05102,-0.04647 h 1.877159 c 0.02418,0 0.0403,0.02065 0.03759,0.04647 z"
     id="path19"
     style="fill:#26358c;stroke-width:0.0263306" />
  <path
     class="st1"
     d="m 14.090334,7.40856 c 0.0026,-0.02582 0.02685,-0.04647 0.05102,-0.04647 h 0.63109 c 0.02418,0 0.0403,0.02065 0.03759,0.04647 l -0.475332,3.087661 c -0.0026,0.02581 -0.02685,0.04647 -0.05102,0.04647 h -0.631093 c -0.02417,0 -0.0403,-0.02065 -0.03759,-0.04647 z"
     id="path21"
     style="fill:#26358c;stroke-width:0.0263306" />
  <path
     class="st1"
     d="m 17.039007,7.3620904 h -1.431368 c -0.196041,0 -0.378655,0.1497358 -0.408195,0.3356152 l -0.386712,2.5067874 c -0.02954,0.185879 0.107422,0.335615 0.303463,0.335615 h 1.431368 c 0.196041,0 0.378654,-0.149736 0.408194,-0.335615 L 17.34247,7.6977056 C 17.369317,7.5118262 17.235049,7.3620904 17.039007,7.3620904 M 15.690889,9.928255 c -0.06445,0 -0.107419,-0.049051 -0.09668,-0.1084292 l 0.268552,-1.7348724 c 0.008,-0.059385 0.06713,-0.1084301 0.131588,-0.1084301 h 0.472646 c 0.06445,0 0.107421,0.049055 0.09668,0.1084301 l -0.268548,1.7348724 c -0.008,0.059387 -0.06713,0.1084292 -0.131589,0.1084292 z"
     id="path23"
     style="fill:#26358c;stroke-width:0.0263306" />
  <path
     class="st1"
     d="M 7.0167456,7.6977056 6.1171053,10.496221 c -0.00805,0.02324 0.0053,0.04389 0.029539,0.04389 h 0.6310902 c 0.024178,0 0.051025,-0.02065 0.059078,-0.04389 L 7.1402713,9.5513347 c 0.00805,-0.023236 0.034911,-0.043894 0.059078,-0.043894 h 0.7170283 c 0.024178,0 0.040282,0.02065 0.037591,0.046458 L 7.808953,10.496203 c -0.00265,0.02581 0.013434,0.04647 0.037601,0.04647 h 0.6310893 c 0.024169,0 0.048337,-0.02065 0.051025,-0.04647 L 8.9583473,7.7002781 C 8.9878866,7.5144082 8.8509292,7.3646713 8.6548881,7.3646713 H 7.4786413 C 7.2826002,7.3621286 7.0758169,7.5118262 7.0167371,7.6977056 M 8.1795547,8.0823725 8.0613931,8.8491231 c -0.00265,0.025809 -0.026858,0.04647 -0.051025,0.04647 h -0.614966 c -0.024167,0 -0.037601,-0.02065 -0.029539,-0.043895 L 7.6129297,8.082364 C 7.6317247,8.022979 7.6988657,7.9739349 7.763317,7.9739349 h 0.3168865 c 0.064449,0 0.1074214,0.049055 0.09936,0.1084291"
     id="path25"
     style="fill:#26358c;stroke-width:0.0263306" />
  <path
     class="st1"
     d="m 11.149719,10.204493 c -0.02954,0.185879 -0.212153,0.335615 -0.408194,0.335615 H 9.3101571 c -0.1960411,0 -0.3330022,-0.149736 -0.3034622,-0.335615 L 9.3934073,7.6977056 C 9.4229444,7.5118262 9.6055601,7.3620904 9.8016012,7.3620904 H 11.23297 c 0.196041,0 0.333002,0.1497358 0.303462,0.3356152 l -0.110106,0.7125361 c -0.0026,0.025809 -0.02685,0.04647 -0.05102,0.04647 H 10.74421 c -0.02418,0 -0.0403,-0.02065 -0.03759,-0.04647 l 0.05102,-0.3278692 c 0.008,-0.059385 -0.03491,-0.1084302 -0.09668,-0.1084302 h -0.47265 c -0.06445,0 -0.120847,0.049055 -0.131589,0.1084302 L 9.7881722,9.8172443 c -0.00805,0.059387 0.034913,0.1084299 0.096679,0.1084299 h 0.4726478 c 0.06445,0 0.120848,-0.049051 0.131589,-0.1084299 l 0.05102,-0.3278705 c 0.0026,-0.025808 0.02685,-0.046458 0.05102,-0.046458 h 0.63109 c 0.02418,0 0.0403,0.02065 0.0376,0.046458 z"
     id="path27"
     style="fill:#26358c;stroke-width:0.0263306" />
</svg>
