<?xml version="1.0" encoding="UTF-8" standalone="no"?>
<svg
   viewBox="0 0 24 24"
   width="24pt"
   height="24pt"
   version="1.1"
   id="svg10142"
   sodipodi:docname="action.svg"
   inkscape:version="1.2.2 (732a01da63, 2022-12-09)"
   xmlns:inkscape="http://www.inkscape.org/namespaces/inkscape"
   xmlns:sodipodi="http://sodipodi.sourceforge.net/DTD/sodipodi-0.dtd"
   xmlns="http://www.w3.org/2000/svg"
   xmlns:svg="http://www.w3.org/2000/svg">
  <defs
     id="defs10146" />
  <sodipodi:namedview
     id="namedview10144"
     pagecolor="#ffffff"
     bordercolor="#000000"
     borderopacity="0.25"
     inkscape:showpageshadow="2"
     inkscape:pageopacity="0.0"
     inkscape:pagecheckerboard="0"
     inkscape:deskcolor="#d1d1d1"
     inkscape:document-units="pt"
     showgrid="false"
     inkscape:zoom="24.625"
     inkscape:cx="16.040609"
     inkscape:cy="16"
     inkscape:window-width="1920"
     inkscape:window-height="986"
     inkscape:window-x="-11"
     inkscape:window-y="-11"
     inkscape:window-maximized="1"
     inkscape:current-layer="svg10142" />
  <path
     class="st0"
     d="m 6.2997166,7.8189432 c -0.024167,0 -0.051025,0.02065 -0.059078,0.043885 L 5.2470071,10.95307 c -0.00805,0.02324 0.0054,0.04389 0.029539,0.04389 h 0.3464285 c 0.024167,0 0.051025,-0.02065 0.059078,-0.04389 l 0.993633,-3.0902434 c 0.00805,-0.023235 -0.0053,-0.043885 -0.029539,-0.043885 z"
     id="path11"
     style="fill:#5bc5f2;stroke-width:0.0263306" />
  <path
     class="st0"
     d="m 5.5773218,7.8189432 c -0.024177,0 -0.051025,0.02065 -0.059078,0.043885 L 4.5246113,10.95307 c -0.00805,0.02324 0.0054,0.04389 0.029539,0.04389 h 0.056397 0.042973 0.042973 0.056397 c 0.024167,0 0.051025,-0.02065 0.059078,-0.04389 L 5.8056014,7.8628266 c 0.00805,-0.023235 -0.0053,-0.043885 -0.029538,-0.043885 z"
     id="path13"
     style="fill:#5bc5f2;stroke-width:0.0263306" />
  <path
     class="st0"
     d="m 5.0858756,7.8628308 c 0.00805,-0.023235 -0.0054,-0.043885 -0.029538,-0.043885 h -0.06445 c -0.029539,0 -0.042973,0.01549 -0.053717,0.043885 L 3.9445383,10.953074 c -0.00805,0.02324 0.00541,0.04389 0.029539,0.04389 h 0.061769 c 0.029539,0 0.042973,-0.01549 0.053717,-0.04389 z"
     id="path15"
     style="fill:#5bc5f2;stroke-width:0.0263306" />
  <path
     class="st1"
     d="m 20.019903,7.8189432 c 0.02418,0 0.0403,0.02065 0.0376,0.04647 l -0.47533,3.0876608 c -0.0026,0.02581 -0.02685,0.04647 -0.05102,0.04647 h -0.400138 c -0.02418,0 -0.05371,-0.01808 -0.06445,-0.04131 L 18.319994,9.4944341 c -0.01074,-0.023235 -0.02418,-0.02065 -0.02685,0.00519 l -0.222896,1.4560539 c -0.0026,0.02581 -0.02686,0.04646 -0.05102,0.04646 h -0.631092 c -0.02417,0 -0.0403,-0.02065 -0.03759,-0.04646 l 0.475318,-3.0876901 c 0.0026,-0.02582 0.02686,-0.04647 0.05102,-0.04647 h 0.400136 c 0.02418,0 0.05371,0.018075 0.06445,0.04131 l 0.746568,1.4637979 c 0.01074,0.023235 0.02418,0.02065 0.02686,-0.00519 l 0.222889,-1.456053 c 0.0026,-0.02582 0.02686,-0.04647 0.05102,-0.04647 z"
     id="path17"
     style="fill:#26358c;stroke-width:0.0263306" />
  <path
     class="st1"
     d="m 13.71705,8.5237343 c -0.0026,0.025809 -0.02685,0.04647 -0.05102,0.04647 h -0.545155 c -0.02418,0 -0.04834,0.02065 -0.05102,0.04647 l -0.359857,2.3363987 c -0.0026,0.02581 -0.02685,0.04647 -0.05102,0.04647 h -0.631087 c -0.02418,0 -0.0403,-0.02065 -0.03759,-0.04647 l 0.359857,-2.3363994 c 0.0026,-0.025809 -0.01343,-0.04647 -0.03759,-0.04647 h -0.526356 c -0.02417,0 -0.0403,-0.02065 -0.0376,-0.04647 l 0.102051,-0.660903 c 0.0026,-0.02582 0.02685,-0.04647 0.05102,-0.04647 h 1.877159 c 0.02418,0 0.0403,0.02065 0.03759,0.04647 z"
     id="path19"
     style="fill:#26358c;stroke-width:0.0263306" />
  <path
     class="st1"
     d="m 14.090333,7.8654128 c 0.0026,-0.02582 0.02685,-0.04647 0.05102,-0.04647 h 0.63109 c 0.02418,0 0.0403,0.02065 0.03759,0.04647 l -0.475332,3.0876612 c -0.0026,0.02581 -0.02685,0.04647 -0.05102,0.04647 h -0.631093 c -0.02417,0 -0.0403,-0.02065 -0.03759,-0.04647 z"
     id="path21"
     style="fill:#26358c;stroke-width:0.0263306" />
  <path
     class="st1"
     d="m 17.039006,7.8189432 h -1.431368 c -0.196041,0 -0.378655,0.1497358 -0.408195,0.3356152 l -0.386712,2.5067876 c -0.02954,0.185879 0.107422,0.335615 0.303463,0.335615 h 1.431368 c 0.196041,0 0.378654,-0.149736 0.408194,-0.335615 L 17.342469,8.1545584 C 17.369316,7.968679 17.235048,7.8189432 17.039006,7.8189432 m -1.348118,2.5661648 c -0.06445,0 -0.107419,-0.04905 -0.09668,-0.108429 L 15.86276,8.5418062 c 0.008,-0.059385 0.06713,-0.1084301 0.131588,-0.1084301 h 0.472646 c 0.06445,0 0.107421,0.049055 0.09668,0.1084301 l -0.268548,1.7348728 c -0.008,0.05939 -0.06713,0.108429 -0.131589,0.108429 z"
     id="path23"
     style="fill:#26358c;stroke-width:0.0263306" />
  <path
     class="st1"
     d="M 7.0167449,8.1545584 6.1171046,10.953074 c -0.00805,0.02324 0.0053,0.04389 0.029539,0.04389 h 0.6310902 c 0.024178,0 0.051025,-0.02065 0.059078,-0.04389 l 0.3034588,-0.944887 c 0.00805,-0.023236 0.034911,-0.043893 0.059078,-0.043893 h 0.7170283 c 0.024178,0 0.040282,0.02065 0.037591,0.046458 l -0.1450156,0.942305 c -0.00265,0.02581 0.013434,0.04647 0.037601,0.04647 h 0.6310893 c 0.024169,0 0.048337,-0.02065 0.051025,-0.04647 L 8.9583466,8.1571309 C 8.9878859,7.971261 8.8509285,7.8215241 8.6548874,7.8215241 H 7.4786406 C 7.2825995,7.8189814 7.0758162,7.968679 7.0167364,8.1545584 M 8.179554,8.5392253 8.0613924,9.3059759 c -0.00265,0.025809 -0.026858,0.04647 -0.051025,0.04647 h -0.614966 c -0.024167,0 -0.037601,-0.02065 -0.029539,-0.043895 L 7.612929,8.5392168 C 7.631724,8.4798318 7.698865,8.4307877 7.7633163,8.4307877 h 0.3168865 c 0.064449,0 0.1074214,0.049055 0.09936,0.1084291"
     id="path25"
     style="fill:#26358c;stroke-width:0.0263306" />
  <path
     class="st1"
     d="m 11.149718,10.661346 c -0.02954,0.185879 -0.212153,0.335615 -0.408194,0.335615 H 9.3101564 c -0.1960411,0 -0.3330022,-0.149736 -0.3034622,-0.335615 L 9.3934066,8.1545584 C 9.4229437,7.968679 9.6055594,7.8189432 9.8016005,7.8189432 h 1.4313685 c 0.196041,0 0.333002,0.1497358 0.303462,0.3356152 l -0.110106,0.7125361 c -0.0026,0.025809 -0.02685,0.04647 -0.05102,0.04647 h -0.631096 c -0.02418,0 -0.0403,-0.02065 -0.03759,-0.04647 l 0.05102,-0.3278692 c 0.008,-0.059385 -0.03491,-0.1084302 -0.09668,-0.1084302 h -0.47265 c -0.06445,0 -0.120847,0.049055 -0.131589,0.1084302 L 9.7881715,10.274097 c -0.00805,0.05939 0.034913,0.10843 0.096679,0.10843 h 0.4726475 c 0.06445,0 0.120848,-0.04905 0.131589,-0.10843 l 0.05102,-0.3278704 c 0.0026,-0.025808 0.02685,-0.046458 0.05102,-0.046458 h 0.63109 c 0.02418,0 0.0403,0.02065 0.0376,0.046458 z"
     id="path27"
     style="fill:#26358c;stroke-width:0.0263306" />
</svg>
