<?xml version="1.0" encoding="UTF-8" standalone="no"?>
<svg
   viewBox="0 0 24 24"
   width="24pt"
   height="24pt"
   version="1.1"
   id="svg435"
   sodipodi:docname="ahorramas.svg"
   xml:space="preserve"
   inkscape:version="1.2.2 (732a01da63, 2022-12-09)"
   inkscape:export-filename="ahorramas.svg"
   inkscape:export-xdpi="96"
   inkscape:export-ydpi="96"
   xmlns:inkscape="http://www.inkscape.org/namespaces/inkscape"
   xmlns:sodipodi="http://sodipodi.sourceforge.net/DTD/sodipodi-0.dtd"
   xmlns="http://www.w3.org/2000/svg"
   xmlns:svg="http://www.w3.org/2000/svg"><defs
     id="defs439" /><sodipodi:namedview
     id="namedview437"
     pagecolor="#ffffff"
     bordercolor="#000000"
     borderopacity="0.25"
     inkscape:showpageshadow="2"
     inkscape:pageopacity="0.0"
     inkscape:pagecheckerboard="0"
     inkscape:deskcolor="#d1d1d1"
     inkscape:document-units="pt"
     showgrid="false"
     inkscape:zoom="17.147339"
     inkscape:cx="5.3652638"
     inkscape:cy="14.112977"
     inkscape:window-width="1920"
     inkscape:window-height="974"
     inkscape:window-x="-11"
     inkscape:window-y="-11"
     inkscape:window-maximized="1"
     inkscape:current-layer="svg435" /><g
     transform="matrix(0.00202455,0,0,-0.00202455,3.022541,11.325046)"
     fill="#000000"
     stroke="none"
     id="g602"
     style="fill:#c53842;fill-opacity:1"><path
       d="M 494,774 C 280,424 103,134 102,129 c -2,-5 75,-9 175,-9 h 178 l 81,133 81,132 356,3 357,2 v 158 159 l -214,348 c -117,192 -217,350 -223,352 -5,2 -185,-283 -399,-633 z m 464,-36 c 28,-50 52,-97 52,-104 0,-11 -25,-14 -120,-14 -81,0 -120,4 -120,11 0,20 111,199 123,199 7,-1 36,-42 65,-92 z"
       id="path584"
       style="fill:#c53842;fill-opacity:1" /><path
       d="M 6097,1323 C 5870,954 5379,149 5374,136 c -6,-15 11,-16 172,-14 l 179,3 73,120 c 40,66 134,227 209,358 75,131 141,236 147,234 6,-2 66,-100 133,-218 68,-118 127,-215 131,-216 4,-1 63,97 132,217 69,121 130,220 135,220 6,-1 70,-102 144,-225 l 134,-225 h 124 123 l -29,40 c -38,52 -55,127 -48,201 l 7,58 -222,360 c -121,199 -224,361 -228,361 -4,0 -62,-90 -129,-200 -68,-110 -127,-202 -132,-205 -10,-7 -40,38 -174,258 -49,81 -93,147 -97,147 -4,0 -31,-39 -61,-87 z"
       id="path586"
       style="fill:#c53842;fill-opacity:1" /><path
       d="m 2585,1093 c -50,-7 -137,-34 -179,-55 -53,-27 -134,-104 -157,-150 -66,-129 -33,-296 79,-399 187,-173 556,-141 683,59 84,132 77,290 -18,402 -79,94 -273,162 -408,143 z m 159,-200 c 71,-35 106,-87 106,-155 0,-59 -28,-107 -82,-144 -55,-37 -110,-48 -176,-34 -85,19 -161,104 -162,183 -1,127 184,216 314,150 z"
       id="path588"
       style="fill:#c53842;fill-opacity:1" /><path
       d="m 4950,1093 c -94,-8 -200,-26 -214,-36 -12,-10 -14,-28 -9,-93 l 6,-82 56,20 c 60,22 241,36 305,24 47,-9 96,-51 96,-82 v -24 h -136 c -220,0 -325,-36 -376,-130 -30,-54 -22,-164 15,-217 83,-120 309,-139 441,-38 26,19 48,35 51,35 3,0 5,-18 5,-40 v -40 h 119 119 l 7,64 c 10,90 -1,407 -16,455 -25,83 -100,146 -204,170 -50,11 -200,19 -265,14 z m 180,-390 62,-6 -4,-48 c -9,-95 -95,-159 -192,-145 -97,15 -133,135 -53,178 48,26 95,31 187,21 z"
       id="path590"
       style="fill:#c53842;fill-opacity:1" /><path
       d="m 7490,1094 c -90,-10 -193,-26 -206,-31 -11,-4 -14,-27 -14,-95 0,-82 2,-89 18,-82 105,45 313,59 389,25 42,-20 68,-52 60,-76 -4,-9 -47,-14 -169,-17 -185,-5 -253,-23 -311,-82 -79,-79 -75,-213 9,-293 102,-98 302,-99 419,-2 l 50,41 3,-46 3,-46 h 120 119 v 233 c 0,277 -7,315 -75,382 -56,57 -137,83 -278,89 -56,2 -118,2 -137,0 z m 242,-400 c 12,-8 10,-50 -6,-87 -18,-44 -78,-95 -121,-103 -90,-16 -155,25 -155,99 0,51 28,84 82,98 33,8 183,3 200,-7 z"
       id="path592"
       style="fill:#c53842;fill-opacity:1" /><path
       d="m 8272,1090 c -85,-12 -163,-49 -198,-95 -40,-53 -45,-141 -12,-205 38,-75 126,-109 348,-135 71,-8 100,-27 100,-65 0,-52 -36,-65 -165,-64 -86,2 -129,7 -198,28 -48,14 -89,26 -92,26 -3,0 -5,-36 -5,-79 0,-91 -10,-83 124,-106 104,-18 302,-20 378,-4 61,13 135,48 160,76 48,53 61,149 29,219 -33,73 -101,103 -285,129 -147,21 -174,31 -182,62 -5,18 -1,31 14,46 40,40 224,33 357,-13 29,-10 56,-16 59,-13 10,10 7,151 -4,158 -43,27 -323,50 -428,35 z"
       id="path594"
       style="fill:#c53842;fill-opacity:1" /><path
       d="M 1400,735 V 390 h 115 115 v 88 c 0,48 3,111 7,140 l 6,53 136,-3 136,-3 3,-138 3,-137 h 114 115 v 345 345 H 2035 1920 V 955 830 h -140 c -160,0 -144,-12 -140,107 1,35 -1,81 -5,103 l -7,40 h -114 -114 z"
       id="path596"
       style="fill:#c53842;fill-opacity:1" /><path
       d="M 3130,736 V 390 h 120 120 v 125 125 h 49 c 66,0 90,-21 163,-146 l 60,-104 h 124 c 68,0 124,2 124,5 0,19 -142,239 -178,275 -40,41 -42,46 -26,55 70,38 111,120 98,193 -11,62 -40,99 -102,129 l -57,28 -247,3 -248,4 z m 403,173 c 23,-28 22,-74 -2,-98 -20,-20 -118,-38 -146,-27 -11,4 -15,22 -15,74 0,38 3,72 8,76 4,5 36,6 72,2 50,-4 69,-11 83,-27 z"
       id="path598"
       style="fill:#c53842;fill-opacity:1" /><path
       d="M 3920,736 V 390 h 120 120 v 125 125 h 49 c 66,0 89,-21 163,-146 l 61,-104 h 124 c 67,0 123,3 123,6 0,19 -140,236 -177,275 l -44,45 38,25 c 54,35 78,82 77,150 -1,78 -29,120 -102,156 l -57,28 -247,3 -248,4 z m 402,174 c 24,-29 23,-75 -1,-99 -20,-20 -89,-35 -132,-29 -22,3 -24,8 -27,67 -4,94 -3,95 75,88 53,-4 71,-10 85,-27 z"
       id="path600"
       style="fill:#c53842;fill-opacity:1" /></g></svg>
