<?xml version="1.0" encoding="UTF-8" standalone="no"?>
<svg
   viewBox="0 0 18.040001 21.999998"
   width="18.040001pt"
   height="21.999998pt"
   version="1.1"
   id="svg198"
   xmlns="http://www.w3.org/2000/svg"
   xmlns:svg="http://www.w3.org/2000/svg">
  <defs
     id="defs202" />
  <path
     d="m 10.327157,6.9608982 c 0.110772,-0.158109 0.254097,-0.204712 0.38888,-0.189273 0.09604,0.01487 0.19989,0.05976 0.26927,0.199852 0.07689,0.161253 0.07645,0.466321 -0.02372,0.591835 -0.07115,0.08435 -0.180594,0.07119 -0.22994,-0.07119 -0.04449,-0.121226 -0.03285,-0.294774 0.01679,-0.403706 -0.03889,-0.01573 -0.07925,-0.03774 -0.118579,-0.0143 -0.07675,0.03259 -0.136551,0.17412 -0.133752,0.327654 l -1.47e-4,0.704199 0.37194,5.72e-4 v 0.307068 h -0.371793 l -2.94e-4,1.8246848 c -0.0024,0.07891 0.01134,0.186986 0.05922,0.19928 0.08058,0.01401 0.161886,0.0017 0.242902,0.0057 V 10.76521 H 9.97672 v -0.321936 c 0.05274,-0.0017 0.105617,0.0049 0.158203,-0.0029 0.04375,-0.006 0.07247,-0.09607 0.06968,-0.176122 l 2.95e-4,-1.8507018 H 9.995285 v -0.30764 h 0.213294 l 2.94e-4,-0.699339 c -1.47e-4,-0.174405 0.04552,-0.343951 0.118285,-0.445735 z m 4.6206,-0.03831 0.52705,-0.08749 -1.47e-4,1.659142 c 0.0657,-0.189274 0.156583,-0.352529 0.269269,-0.427723 0.163802,-0.107217 0.358977,-0.07091 0.496264,0.143241 a 0.35647322,0.69190482 0 0 1 0.132721,0.537514 l 7.36e-4,1.5493508 c -0.0015,0.07319 0.0327,0.149246 0.07174,0.145815 0.04949,0.004 0.09914,0 0.148775,8.58e-4 v 0.322221 c -0.23701,-5.71e-4 -0.473726,2.86e-4 -0.710589,-2.85e-4 v -0.321936 c 0.04949,-0.0034 0.100166,0.01029 0.149365,-0.0086 0.03815,-0.01859 0.05612,-0.09807 0.05303,-0.169546 l -2.94e-4,-1.4009648 c 0.0018,-0.136665 -0.02872,-0.279906 -0.09074,-0.351956 -0.199595,-0.237877 -0.512762,0.05375 -0.519243,0.5215028 l -0.001,1.173664 c 7.36e-4,0.08006 8.83e-4,0.189845 0.04669,0.224727 0.05966,0.02287 0.121082,0.0071 0.181625,0.01086 l 1.47e-4,0.322222 h -0.736515 v -0.322222 c 0.05568,-0.0037 0.112244,0.01115 0.167483,-0.0089 0.04728,-0.03288 0.05273,-0.143814 0.05332,-0.2273 l 1.47e-4,-2.8007848 c -1.47e-4,-0.06433 -0.0018,-0.145814 -0.03756,-0.174119 -0.06717,-0.01144 -0.134635,-0.0014 -0.201805,-0.0049 z m -3.951108,1.190247 0.526461,-0.09464 v 0.52865 c 0.04478,-0.195849 0.12123,-0.371399 0.224342,-0.456314 0.163801,-0.132949 0.366932,-0.07348 0.500684,0.155249 -0.04404,0.215292 -0.129922,0.400848 -0.241136,0.490338 -0.107531,0.09121 -0.229645,0.08549 -0.342774,0.0426 0.05185,-0.261036 0.190021,-0.407423 0.325539,-0.454884 -0.131541,-0.02973 -0.271037,0.06376 -0.35441,0.267326 -0.07351,0.180696 -0.116517,0.4125708 -0.112098,0.6438718 l 7.36e-4,1.028422 c -0.0019,0.07662 0.01885,0.16926 0.06319,0.176408 0.08662,0.0094 0.173523,2.86e-4 0.260284,0.0037 v 0.32165 c -0.27855,2.85e-4 -0.5571,-2.86e-4 -0.835797,2.85e-4 V 10.44299 c 0.05377,-0.0017 0.108121,0.0071 0.161886,-0.0051 0.03992,-0.01458 0.06039,-0.09778 0.05877,-0.17069 l 2.95e-4,-1.7214698 c 0.0037,-0.05661 -0.01503,-0.120655 -0.04566,-0.128946 -0.06319,-0.0089 -0.126829,-2.86e-4 -0.190169,-0.0031 z m 1.44136,0.171833 c 0.171019,-0.267899 0.408765,-0.32794 0.618967,-0.237306 a 0.54207498,1.0521528 0 0 1 0.34896,0.485477 c 0.09045,0.286769 0.113424,0.6295758 0.117843,0.9598038 -0.340417,0.0011 -0.680982,-5.72e-4 -1.021399,8.57e-4 0.0043,0.306496 0.03638,0.665602 0.180299,0.84401 0.17205,0.201853 0.425263,0.155821 0.556069,-0.154964 0.04169,-0.09121 0.06702,-0.204426 0.08823,-0.317933 l 0.179562,2.86e-4 c -0.0024,0.226155 -0.06349,0.433441 -0.142736,0.592407 -0.122851,0.251602 -0.302708,0.389125 -0.480649,0.380548 -0.190463,0.01058 -0.390795,-0.109217 -0.522043,-0.38741 -0.144356,-0.29992 -0.191935,-0.729931 -0.179857,-1.129348 0.01046,-0.3916978 0.09501,-0.7902578 0.25675,-1.0364278 m 0.175438,0.287055 c -0.07071,0.155821 -0.100903,0.366252 -0.10105,0.5706778 h 0.668756 c 1.47e-4,-0.2447398 -0.02769,-0.5266478 -0.136698,-0.6784658 -0.130363,-0.173262 -0.327601,-0.125802 -0.431008,0.107788 z m 1.180927,-0.28248 c 0.09044,-0.17069 0.216683,-0.249887 0.339976,-0.273332 0.166453,-0.03431 0.342774,0.03259 0.477261,0.233876 l 0.0523,-0.243596 h 0.136992 v 0.965235 c -0.05097,0 -0.101934,0 -0.152753,-5.72e-4 -0.02401,-0.195563 -0.07616,-0.391412 -0.169399,-0.492624 -0.09472,-0.10207 -0.207992,-0.12723 -0.314344,-0.104929 -0.06054,0.01487 -0.123882,0.05318 -0.165863,0.143241 -0.05023,0.104929 -0.05318,0.283624 -0.0049,0.392556 0.03182,0.07291 0.0794,0.1095038 0.126386,0.1298038 l 0.464004,0.217006 c 0.103407,0.04946 0.201511,0.168973 0.254981,0.35167 0.05656,0.198709 0.05715,0.444307 0.01915,0.655308 -0.04802,0.256177 -0.169546,0.436873 -0.30094,0.514355 -0.229499,0.13495 -0.491551,0.0549 -0.681866,-0.233876 a 5.0790069,9.8582142 0 0 1 -0.03344,0.221868 l -0.145683,2.85e-4 -2.95e-4,-1.014984 h 0.150986 c 0.01547,0.18184 0.05436,0.360534 0.124471,0.488623 0.09295,0.176407 0.227583,0.246455 0.355,0.239021 0.08897,-0.01172 0.187516,-0.05432 0.246143,-0.196421 0.05465,-0.129231 0.05126,-0.351957 -0.02534,-0.446879 C 14.459997,9.727947 14.353052,9.715653 14.256274,9.657613 14.105288,9.571553 13.936921,9.548395 13.809651,9.35226 13.643494,9.101516 13.645556,8.5640042 13.794331,8.2892432 Z"
     fill="#4c9e45"
     id="path2"
     style="stroke-width:0.0205221" />
  <path
     d="m 1.8422114,8.1654412 c 0.117401,-0.132949 0.256896,-0.173548 0.391089,-0.165828 0.130952,0.01372 0.270596,0.08149 0.364723,0.2699 0.07056,0.142097 0.09442,0.34538 0.09472,0.537513 L 2.6924494,9.77941 c 5.89e-4,0.112648 0.0035,0.231015 0.03211,0.332228 0.01959,0.08091 0.05288,0.145243 0.07395,0.224155 0.01267,0.03917 0.0018,0.08606 -0.01591,0.110647 l -0.173375,0.292486 c -0.02033,0.03831 -0.05377,0.07119 -0.07925,0.02974 -0.05922,-0.08234 -0.101638,-0.199567 -0.141411,-0.315647 -0.07616,0.145816 -0.164095,0.285054 -0.272215,0.323938 -0.118874,0.04317 -0.250562,0.04346 -0.357063,-0.08091 -0.08897,-0.101498 -0.143326,-0.291343 -0.158498,-0.485763 -0.01679,-0.222439 -0.0034,-0.462318 0.06054,-0.654164 0.0601,-0.182412 0.15835,-0.308213 0.264409,-0.368826 0.132866,-0.07834 0.272363,-0.09378 0.409649,-0.123799 -0.0018,-0.1538198 0.01488,-0.3382328 -0.0492,-0.4560278 -0.09766,-0.162112 -0.280171,-0.07662 -0.31464,0.173547 -0.0097,0.0466 -0.01547,0.129804 -0.04979,0.124944 -0.07837,-0.008 -0.156141,-0.03116 -0.234212,-0.04575 -0.02416,-0.0011 -0.05141,-0.02688 -0.05244,-0.08006 0.01429,-0.253031 0.09398,-0.48662 0.207108,-0.614709 M 2.0245724,9.63588 c -0.07365,0.155822 -0.08234,0.430011 -0.0087,0.590692 0.07807,0.144957 0.209023,0.06176 0.260284,-0.104357 0.071,-0.191275 0.05936,-0.4363 0.05922,-0.659025 -0.107825,0.0014 -0.228761,0.02087 -0.310809,0.17269 z m 3.109713,-1.4564308 c 0.121819,-0.147531 0.270154,-0.190131 0.411564,-0.178694 0.136403,0.01658 0.28459,0.09349 0.373561,0.309069 0.06908,0.161255 0.07719,0.379404 0.07984,0.580114 l 4.42e-4,1.0035468 c 5.89e-4,0.109504 0.0221,0.215006 0.05494,0.30278 0.02268,0.06605 0.05568,0.126945 0.05406,0.213004 l -0.198859,0.333944 c -0.02003,0.0386 -0.05318,0.06261 -0.07763,0.02316 -0.05671,-0.08635 -0.101492,-0.197564 -0.13979,-0.31536 -0.07557,0.151533 -0.166453,0.288484 -0.275604,0.328226 -0.134488,0.0466 -0.290039,0.03803 -0.397423,-0.147243 -0.108858,-0.179552 -0.134637,-0.482045 -0.116224,-0.744512 a 0.4198135,0.81484659 0 0 1 0.219634,-0.612135 c 0.159234,-0.1664 0.344983,-0.169545 0.520126,-0.213576 -0.004,-0.1529618 0.01075,-0.3376598 -0.05274,-0.4537408 -0.09737,-0.164398 -0.282085,-0.07634 -0.315081,0.17555 -0.0074,0.05003 -0.01827,0.128946 -0.05259,0.123228 -0.0794,-0.01201 -0.158499,-0.03145 -0.2376,-0.04861 -0.02327,-0.0014 -0.04404,-0.03517 -0.0464,-0.0812 a 0.42865168,0.83200125 0 0 1 0.195765,-0.597554 m 0.234064,1.3958218 c -0.10812,0.1258 -0.130215,0.443448 -0.05686,0.634436 0.06511,0.144958 0.189137,0.105502 0.247468,-0.03631 0.09089,-0.191274 0.08323,-0.468036 0.08338,-0.710202 -0.09339,5.71e-4 -0.192525,0.01429 -0.273984,0.112077 z M 3.4952424,8.0819542 c 0.09648,-0.07948 0.210938,-0.08206 0.306979,0.0011 0.08441,0.07605 0.136844,0.236162 0.175291,0.3937 0.03859,-0.20214 0.126975,-0.368825 0.235095,-0.424579 0.136403,-0.07634 0.29873,-0.0066 0.391384,0.209859 0.06717,0.148102 0.07748,0.3531 0.08028,0.541802 -0.0066,0.6209978 -0.0012,1.2428548 -0.0032,1.8641398 0.0044,0.04403 -0.01532,0.07062 -0.02843,0.09864 -0.09472,-0.0054 -0.189579,0.0037 -0.284147,-0.004 -0.03138,-0.0066 -0.03889,-0.07405 -0.03741,-0.124371 l 2.94e-4,-1.317764 c 0.0018,-0.166687 0.01031,-0.3393768 -0.01429,-0.5014878 -0.03521,-0.190703 -0.177648,-0.207286 -0.24467,-0.07205 -0.0576,0.100069 -0.06128,0.2598928 -0.06481,0.3994168 l -4.42e-4,1.517616 a 0.04713696,0.09149154 0 0 1 -0.05097,0.100927 h -0.250017 a 0.04566392,0.08863243 0 0 1 -0.04846,-0.09978 l -2.94e-4,-1.573655 c -0.0013,-0.1163658 -0.0071,-0.2407368 -0.04213,-0.3390898 -0.04463,-0.118939 -0.138318,-0.122656 -0.199301,-0.05261 -0.07247,0.100927 -0.08028,0.291915 -0.08279,0.4503098 0.0021,0.494912 -0.0065,0.989538 -0.0032,1.484737 0.0019,0.05061 -0.0015,0.129231 -0.03668,0.128087 -0.08794,0.0051 -0.17588,0.0017 -0.263672,0.002 -0.02872,0.0066 -0.05111,-0.04632 -0.04596,-0.0995 V 8.1748302 c -0.0063,-0.06404 0.02872,-0.108932 0.05863,-0.09778 0.08279,0.0063 0.166894,-0.01144 0.248942,0.0094 l 0.01886,0.03603 c 0.01105,0.120369 0.0025,0.244741 0.0043,0.366824 0.03447,-0.169545 0.09265,-0.331942 0.180888,-0.407423 z m 4.2978586,-0.02402 c 0.158793,-0.07748 0.338797,-0.03145 0.470338,0.166114 0.130216,0.190702 0.202836,0.494626 0.233918,0.7991218 0.03977,0.407136 0.02592,0.848584 -0.07601,1.219125 C 8.355207,10.485033 8.243698,10.68803 8.107296,10.770944 7.947915,10.867584 7.762902,10.826124 7.62753,10.630276 7.495694,10.440717 7.421748,10.136221 7.39052,9.830296 7.35237,9.435167 7.36445,9.011733 7.45033,8.6423362 7.5147,8.3650022 7.638583,8.1325562 7.793104,8.0579342 m 0.08691,0.50835 c -0.0439,0.03317 -0.07409,0.109503 -0.09177,0.19156 -0.03712,0.168116 -0.03948,0.3545298 -0.04316,0.5346538 -1.47e-4,0.218436 7.37e-4,0.439731 0.02622,0.653593 0.0162,0.122942 0.04331,0.258463 0.104732,0.320791 A 0.15908722,0.30878397 0 0 0 8.077399,10.145371 C 8.138529,9.950665 8.138239,9.713358 8.142949,9.492922 8.141049,9.236173 8.141749,8.9702762 8.092869,8.7275372 8.062229,8.5674282 7.957939,8.5008102 7.880016,8.5662842 Z m 1.363143,-0.501203 c 0.136991,-0.09063 0.310219,-0.04432 0.405524,0.182698 0.07999,0.18527 0.08676,0.440016 0.09206,0.670747 l 2.95e-4,1.7457728 c 0.0027,0.04575 -0.01547,0.1035 -0.04124,0.09978 -0.08853,0.0023 -0.177058,0.0026 -0.26544,-2.86e-4 -0.02548,0.0037 -0.04611,-0.04861 -0.04287,-0.09549 L 9.391044,9.090645 c -0.0028,-0.1292318 -0.009,-0.2739018 -0.0573,-0.3725418 -0.0467,-0.08434 -0.123882,-0.09321 -0.175732,-0.02201 -0.0436,0.05204 -0.06864,0.144671 -0.08264,0.237307 C 9.046792,9.104946 9.052692,9.287357 9.052392,9.464908 l -2.94e-4,1.200541 c 0.0013,0.04889 -0.01738,0.103499 -0.04508,0.09864 -0.08794,0.0017 -0.176027,0.0037 -0.263819,-0.0011 -0.02607,0.0037 -0.04345,-0.05347 -0.04066,-0.09893 l 1.56e-4,-2.4862818 a 0.04713696,0.09149154 0 0 1 0.05524,-0.09978 c 0.08367,0.0023 0.167778,-0.0083 0.251299,0.006 l 0.02048,0.04003 c 0.0097,0.133235 0.0021,0.269328 0.0038,0.403992 0.04051,-0.192418 0.103849,-0.389697 0.209613,-0.46289 z m -2.9152736,0.0049 0.8542096,0.0011 c 0.03638,-0.0049 0.05156,0.07205 0.04743,0.131232 -0.0037,0.13781 0.01665,0.295061 -0.0327,0.411141 L 6.7410664,9.877181 c 0.145389,0.0054 0.2937226,0.03774 0.4265896,0.16011 0.03668,0.03231 0.08367,0.07777 0.08323,0.168687 0.0018,0.134665 10e-4,0.269329 4.41e-4,0.403993 a 0.0441909,0.08577332 0 0 1 -0.06658,0.07748 0.95599636,1.855563 0 0 0 -0.8629006,0 c -0.03624,0.05204 -0.07675,-0.03374 -0.0682,-0.106359 0.008,-0.192132 -0.0221,-0.404851 0.02917,-0.5804 l 0.497737,-1.3863828 c -0.146419,-0.0023 -0.292838,0.002 -0.439257,-0.002 -0.02534,0.0043 -0.04213,-0.04632 -0.03948,-0.09092 -4.42e-4,-0.125229 -0.0019,-0.250743 8.84e-4,-0.375687 2.95e-4,-0.03259 0.0165,-0.05118 0.02519,-0.07577 z m 0.301972,2.8179398 c 0.128742,-0.0263 0.263966,-0.02745 0.386965,0.06004 0.05745,0.03574 0.04655,0.171832 0.04714,0.262752 -0.01193,0.323937 -0.06805,0.6433 -0.1598214,0.915202 -0.04021,0.109217 -0.08279,0.222724 -0.142443,0.294773 -0.02121,0.03031 -0.05922,-0.0071 -0.04669,-0.06061 0.05259,-0.283338 0.118136,-0.562102 0.140821,-0.862594 0.0024,-0.07148 0.0094,-0.158395 -0.01856,-0.215291 -0.02769,-0.04003 -0.06216,-0.05661 -0.09575,-0.0649 -0.15835,-0.03402 -0.316259,0.0223 -0.473725,0.0406 -0.03035,-0.02602 -0.01532,-0.09721 0.0065,-0.123514 0.103554,-0.145529 0.229941,-0.217007 0.355591,-0.246455 z m -3.876426,0.16497 c 0.01915,-0.03317 0.04566,-0.01087 0.06452,0.01058 0.564907,0.633865 1.208179,0.994398 1.858523,1.077027 0.65049,0.08434 1.308787,-0.147244 1.909193,-0.635581 0.06378,-0.06576 0.137582,0.108075 0.07734,0.204713 -0.186044,0.277334 -0.398159,0.48319 -0.616463,0.646159 -0.522484,0.383693 -1.095933,0.507492 -1.64832,0.340235 -0.603206,-0.176122 -1.178277,-0.701912 -1.631086,-1.495602 -0.02416,-0.03002 -0.04139,-0.110075 -0.0137,-0.14753 z"
     id="path4"
     style="stroke-width:0.0205221" />
</svg>
