<?xml version="1.0" encoding="UTF-8" standalone="no"?>
<svg
   viewBox="0 0 24 24"
   width="24pt"
   height="24pt"
   version="1.1"
   id="svg134"
   sodipodi:docname="consum.svg"
   xml:space="preserve"
   inkscape:version="1.2.2 (732a01da63, 2022-12-09)"
   inkscape:export-filename="consum.svg"
   inkscape:export-xdpi="33.866665"
   inkscape:export-ydpi="33.866665"
   xmlns:inkscape="http://www.inkscape.org/namespaces/inkscape"
   xmlns:sodipodi="http://sodipodi.sourceforge.net/DTD/sodipodi-0.dtd"
   xmlns="http://www.w3.org/2000/svg"
   xmlns:svg="http://www.w3.org/2000/svg"><defs
     id="defs138" /><sodipodi:namedview
     id="namedview136"
     pagecolor="#ffffff"
     bordercolor="#000000"
     borderopacity="0.25"
     inkscape:showpageshadow="2"
     inkscape:pageopacity="0.0"
     inkscape:pagecheckerboard="0"
     inkscape:deskcolor="#d1d1d1"
     inkscape:document-units="pt"
     showgrid="false"
     inkscape:zoom="23.1875"
     inkscape:cx="18.070081"
     inkscape:cy="12.851752"
     inkscape:window-width="1920"
     inkscape:window-height="974"
     inkscape:window-x="-11"
     inkscape:window-y="-11"
     inkscape:window-maximized="1"
     inkscape:current-layer="svg134" /><g
     id="g452"
     transform="matrix(0.01753587,0,0,0.01753587,-10.796637,3.1903954)"><path
       fill="#f89b34"
       opacity="1"
       stroke="none"
       d="m 1518.5314,1.000005 c 1.0997,0.663304 1.6447,1.78533 2.3747,1.922536 16.4521,3.092382 33.1276,5.258334 49.3432,9.282056 21.8067,5.411088 42.3194,14.356707 61.6289,26.058556 15.4182,9.343678 29.1814,20.661877 41.4646,33.713997 10.509,11.16684 19.4128,23.605171 27.1573,36.90675 8.7975,15.11037 15.1629,31.18367 18.8651,48.15774 2.6308,12.06178 4.2079,24.39827 5.5054,36.6913 0.9876,9.35542 1.5687,18.88602 0.953,28.24808 -0.9861,14.99415 -2.2316,30.07873 -4.9985,44.81891 -2.9475,15.7037 -6.8546,31.37069 -12.0078,46.48605 -9.6354,28.26257 -23.7143,54.31589 -41.7183,78.2951 -11.3563,15.12534 -24.1217,28.91538 -37.996,41.57715 -17.5946,16.05707 -36.9477,29.84763 -57.4964,42.0514 -25.1465,14.93444 -52.0152,25.79995 -79.8059,34.24496 -16.3937,4.98169 -33.3542,8.3114 -50.2406,11.39227 -13.6442,2.48938 -27.5246,3.92224 -41.3633,5.04218 -14.6457,1.18524 -29.3849,2.24255 -44.0487,1.89599 -15.9012,-0.37585 -31.7658,-2.39654 -47.6402,-3.7702 -21.9514,-1.89972 -43.5498,-6.11029 -64.6333,-12.2121 -19.8681,-5.75003 -39.3225,-12.96838 -58.8302,-19.90243 -5.7186,-2.03269 -11.1722,-5.00382 -16.4292,-8.08701 -4.9397,-2.89691 -7.0378,-10.50683 -5.8138,-16.39737 4.4766,-21.54348 13.3867,-41.53961 21.3413,-61.86755 3.541,-9.04907 7.0021,-18.15933 11.1753,-26.91992 2.4748,-5.19541 5.5012,-10.59281 9.6461,-14.41931 6.2388,-5.75962 14.1493,-3.78666 21.3901,-1.40494 14.1467,4.65323 27.9921,10.34622 42.3306,14.25787 15.1553,4.13446 30.661,7.16516 46.166,9.77076 9.5312,1.60162 19.3513,2.10906 29.0362,2.05804 34.8986,-0.18378 67.1695,-9.16522 95.6771,-29.96008 18.7843,-13.70234 33.4885,-30.79843 44.6479,-51.29142 8.1814,-15.0242 13.5458,-30.9349 16.5313,-47.5017 4.5212,-25.08777 3.2296,-49.88979 -8.7916,-73.08596 -8.7583,-16.90021 -21.7933,-29.6367 -38.7508,-38.47623 -13.5946,-7.08656 -27.8891,-11.09388 -43.1532,-12.69818 -27.5188,-2.89239 -54.279,0.47843 -80.6554,8.14295 -29.5384,8.58336 -57.6535,20.71335 -85.1872,34.29495 -4.2108,2.07707 -8.5467,3.95039 -12.9519,5.57198 -5.9301,2.18286 -11.5324,-1.58715 -11.1325,-7.97336 0.571,-9.1218 1.0628,-18.41113 3.2017,-27.23795 4.3054,-17.76741 9.2434,-35.41672 14.8046,-52.83241 3.7659,-11.793281 7.9122,-23.571403 15.7446,-33.652084 6.1327,-7.893292 14.532,-12.632534 22.9598,-17.011776 21.062,-10.944256 43.5897,-18.191994 66.5048,-24.127318 16.3138,-4.225526 32.6936,-8.268078 49.1876,-11.702634 11.4749,-2.38943 23.1975,-3.583333 34.8014,-5.363948 4.4559,-0.683772 8.8893,-1.51357 13.0039,-2.631269 C 1466.0209,1 1492.0419,1 1518.5314,1.000005 Z"
       id="path307"
       style="fill:#ffffff" /><path
       fill="#ef4138"
       opacity="1"
       stroke="none"
       d="m 1133.3425,351.27142 c -16.7772,9.07141 -30.9214,20.99356 -42.9435,35.07038 -17.3695,20.3381 -28.1115,44.07742 -33.5494,70.34259 -2.6376,12.73935 -3.803,25.57815 -2.6799,38.36462 2.3862,27.16821 12.7871,50.41815 34.9365,67.75604 15.6786,12.27271 33.3577,18.92261 52.8567,21.13483 9.3202,1.05743 18.7399,2.13135 28.0831,1.9057 18.8521,-0.4555 37.3737,-3.54864 55.5873,-8.6654 24.3896,-6.85193 47.6271,-16.57447 70.54,-27.20905 9.604,-4.45746 19.2076,-8.9444 29.0017,-12.9527 6.3366,-2.59332 12.3414,1.51258 11.6692,8.30744 -1.1079,11.19928 -2.4317,22.48797 -5.0703,33.39904 -3.9301,16.25263 -8.6801,32.34119 -13.8752,48.24012 -2.8715,8.78814 -6.9768,17.2453 -11.2201,25.49457 -5.1464,10.00457 -14.3467,16.15899 -23.7752,21.40985 -18.8807,10.51507 -39.2882,17.48168 -60.0783,23.01208 -21.381,5.68768 -42.9571,10.70422 -64.588,15.36304 -10.8432,2.33532 -22.0202,3.08185 -33.0075,4.79492 -19.2103,2.99512 -38.5483,3.1358 -57.9109,2.96057 -26.2008,-0.23712 -51.9211,-3.95233 -77.28464,-10.45227 -17.89765,-4.58661 -35.16889,-10.7843 -51.53351,-19.39142 -14.51911,-7.63647 -27.91846,-16.8551 -40.47089,-27.48736 -20.91083,-17.71204 -36.9577,-39.06427 -48.46563,-63.7406 -7.65351,-16.41108 -13.39844,-33.60315 -15.5022,-51.7212 -1.36432,-11.7503 -2.1145,-23.57373 -3.05176,-35.37136 -1.28119,-16.12601 0.79681,-32.02616 2.81592,-47.99579 3.11102,-24.6063 9.98651,-48.16742 19.36059,-70.93283 9.53382,-23.15354 21.63434,-45.07776 37.30854,-64.71485 9.23657,-11.57184 19.04748,-22.7619 29.37475,-33.36938 17.46295,-17.93668 37.49109,-32.85254 58.91034,-45.67983 24.52969,-14.69 50.40879,-26.6634 77.72499,-35.36084 20.6716,-6.58172 41.5923,-12.14868 63.169,-14.7791 15.4665,-1.88554 30.9512,-3.87532 46.4884,-4.85917 15.7256,-0.99579 31.5579,-1.58011 47.2841,-0.92246 15.036,0.62882 29.9982,3.06223 44.9879,4.74701 25.8518,2.90569 50.9845,9.21939 75.6545,17.14524 16.3775,5.26162 32.4031,11.69766 48.3381,18.21461 5.7358,2.34575 11.209,6.44234 11.6833,13.45514 0.2992,4.42145 -0.3858,9.19401 -1.826,13.39932 -6.2114,18.13864 -12.4283,36.29929 -19.5029,54.11044 -5.1551,12.9784 -11.2801,25.61637 -17.6965,38.03202 -3.7625,7.28021 -10.2385,9.49579 -18.0551,7.13434 -10.714,-3.23697 -21.3512,-6.76685 -31.8879,-10.54352 -20.6149,-7.38892 -41.7531,-12.95621 -63.4149,-15.60413 -14.0957,-1.72305 -28.5619,-1.97635 -42.7454,-1.06643 -22.9955,1.47522 -44.9101,7.82153 -65.6393,19.02578 z"
       id="path313" /></g></svg>
