<?xml version="1.0" encoding="UTF-8" standalone="no"?>
<!-- Generator: Gravit.io -->

<svg
   style="isolation:isolate"
   viewBox="0 0 10.511395 11.121593"
   width="10.511395pt"
   height="11.121593pt"
   version="1.1"
   id="svg1071"
   xmlns="http://www.w3.org/2000/svg"
   xmlns:svg="http://www.w3.org/2000/svg">
  <defs
     id="defs1065">
    <clipPath
       id="_clipPath_SGjNQxaEosRUolq9U1TfcMxIpdKGkoVg">
      <rect
         width="24"
         height="24"
         id="rect1062"
         x="0"
         y="0" />
    </clipPath>
  </defs>
  <g
     clip-path="url(#_clipPath_SGjNQxaEosRUolq9U1TfcMxIpdKGkoVg)"
     id="g1069"
     style="fill:#ffffff"
     transform="translate(-6.7442503,-4.9954076)">
    <path
       d="m 12.173,14.291 c 10e-4,-1.004 0.004,-1.843 0.006,-1.863 0.002,-0.02 0.007,-0.077 0.011,-0.125 0.02,-0.231 0.062,-0.471 0.121,-0.7 0.03,-0.116 0.048,-0.172 0.081,-0.252 0.146,-0.355 0.402,-0.632 0.747,-0.807 0.105,-0.053 0.176,-0.08 0.327,-0.126 0.318,-0.096 0.607,-0.149 0.968,-0.177 0.106,-0.008 0.445,-0.008 0.557,0 0.39,0.028 0.775,0.106 1.113,0.224 0.154,0.053 0.323,0.147 0.461,0.257 0.056,0.044 0.191,0.179 0.237,0.237 0.085,0.106 0.169,0.247 0.223,0.372 0.065,0.153 0.135,0.425 0.176,0.692 l 0.013,0.086 c 0.058,0.374 0.053,0.728 0,1.146 l -0.016,0.1 c -0.041,0.258 -0.106,0.517 -0.168,0.665 -0.113,0.273 -0.3,0.508 -0.537,0.677 -0.178,0.127 -0.345,0.2 -0.651,0.283 -0.331,0.091 -0.651,0.138 -1.021,0.15 l -0.102,0.004 -0.26,-0.714 C 14.316,14.027 14.2,13.705 14.2,13.705 c 0,-10e-4 0.021,0.006 0.045,0.015 0.193,0.068 0.545,0.081 0.82,0.03 0.133,-0.025 0.255,-0.083 0.35,-0.168 0.141,-0.126 0.209,-0.257 0.259,-0.499 0.034,-0.161 0.042,-0.255 0.04,-0.432 -0.003,-0.173 -0.015,-0.273 -0.053,-0.428 -0.047,-0.194 -0.108,-0.309 -0.222,-0.417 -0.106,-0.101 -0.224,-0.16 -0.374,-0.19 -0.125,-0.024 -0.201,-0.03 -0.351,-0.03 -0.153,0 -0.24,0.007 -0.357,0.031 -0.229,0.046 -0.413,0.181 -0.514,0.377 -0.071,0.139 -0.122,0.367 -0.134,0.604 -0.002,0.025 -0.003,0.827 -0.003,1.782 v 1.737 H 12.939 12.171 Z M 9.124,15.129 C 8.707,15.111 8.323,15.043 7.949,14.92 7.837,14.883 7.789,14.864 7.7,14.818 7.323,14.626 7.044,14.297 6.915,13.892 6.892,13.818 6.844,13.625 6.823,13.517 6.787,13.332 6.757,13.101 6.748,12.936 6.743,12.842 6.743,12.523 6.748,12.43 6.77,12.041 6.865,11.571 6.972,11.323 7.126,10.964 7.41,10.676 7.768,10.514 c 0.078,-0.035 0.143,-0.059 0.267,-0.096 0.846,-0.258 1.751,-0.246 2.597,0.033 0.257,0.085 0.499,0.241 0.673,0.434 0.139,0.153 0.251,0.338 0.319,0.527 0.076,0.208 0.161,0.635 0.179,0.893 10e-4,0.027 0.004,0.056 0.005,0.063 0.009,0.057 0.013,0.366 0.006,0.516 -0.017,0.395 -0.11,0.881 -0.216,1.136 -0.052,0.126 -0.145,0.284 -0.231,0.39 -0.141,0.175 -0.339,0.33 -0.546,0.429 -0.219,0.103 -0.631,0.211 -0.985,0.257 -0.228,0.029 -0.503,0.042 -0.712,0.033 z m 0.337,-1.355 c 0.261,-0.025 0.405,-0.081 0.543,-0.211 0.111,-0.104 0.175,-0.222 0.222,-0.407 0.078,-0.309 0.078,-0.636 0,-0.945 -0.045,-0.18 -0.103,-0.29 -0.206,-0.393 -0.167,-0.167 -0.378,-0.233 -0.747,-0.232 -0.294,10e-4 -0.47,0.041 -0.621,0.141 -0.091,0.06 -0.178,0.153 -0.228,0.241 -0.061,0.11 -0.107,0.274 -0.136,0.481 -0.012,0.089 -0.014,0.322 -0.004,0.419 0.02,0.194 0.067,0.384 0.121,0.492 0.073,0.144 0.181,0.252 0.325,0.324 0.104,0.052 0.199,0.074 0.415,0.094 0.053,0.005 0.248,0.003 0.316,-0.004 z M 9.119,9.891 C 9.066,9.889 9.002,9.886 8.977,9.884 8.922,9.879 8.827,9.87 8.81,9.868 8.803,9.867 8.783,9.864 8.765,9.863 8.748,9.861 8.728,9.858 8.721,9.857 8.714,9.856 8.696,9.854 8.682,9.852 8.669,9.85 8.653,9.848 8.648,9.847 8.644,9.846 8.615,9.841 8.585,9.836 8.34,9.797 7.994,9.706 7.823,9.636 7.689,9.582 7.54,9.494 7.428,9.404 7.355,9.346 7.237,9.227 7.183,9.158 7.05,8.987 6.962,8.814 6.904,8.615 6.822,8.329 6.765,7.995 6.748,7.7 6.743,7.607 6.743,7.287 6.748,7.197 6.762,6.95 6.803,6.678 6.862,6.433 6.909,6.24 6.941,6.146 7.009,6.008 7.192,5.636 7.511,5.356 7.909,5.22 8.228,5.11 8.587,5.037 8.959,5.006 9.069,4.996 9.375,4.993 9.501,5 c 0.379,0.021 0.751,0.09 1.11,0.206 0.191,0.062 0.369,0.156 0.518,0.274 0.062,0.05 0.196,0.183 0.244,0.243 0.112,0.141 0.208,0.319 0.265,0.488 0.047,0.142 0.106,0.407 0.135,0.609 0.026,0.182 0.039,0.33 0.045,0.528 l 0.003,0.087 H 11.054 10.288 L 10.285,7.424 C 10.283,7.417 10.282,7.391 10.282,7.365 10.281,7.207 10.236,6.968 10.179,6.819 10.133,6.699 10.039,6.58 9.928,6.501 9.818,6.422 9.713,6.385 9.522,6.359 9.439,6.347 9.147,6.345 9.061,6.356 8.975,6.367 8.874,6.386 8.828,6.401 8.629,6.466 8.466,6.616 8.385,6.809 8.348,6.899 8.31,7.054 8.291,7.199 8.276,7.307 8.273,7.525 8.284,7.632 c 0.02,0.19 0.068,0.386 0.12,0.489 0.101,0.2 0.293,0.345 0.513,0.387 0.23,0.045 0.507,0.045 0.728,0 C 9.789,8.479 9.914,8.413 10.016,8.312 10.137,8.194 10.198,8.065 10.245,7.831 10.254,7.788 10.262,7.752 10.262,7.752 10.264,7.75 11.697,8.42 11.702,8.424 11.707,8.43 11.671,8.576 11.64,8.669 11.523,9.028 11.278,9.334 10.954,9.528 10.853,9.589 10.753,9.635 10.634,9.674 10.397,9.752 10.123,9.817 9.883,9.851 9.834,9.858 9.735,9.87 9.703,9.873 9.683,9.875 9.658,9.877 9.648,9.878 9.627,9.88 9.56,9.885 9.501,9.888 9.412,9.894 9.209,9.895 9.119,9.891 Z m 5.524,0.004 C 14.641,9.893 14.593,9.891 14.536,9.889 14.478,9.887 14.423,9.885 14.413,9.884 14.403,9.882 14.374,9.88 14.349,9.878 14.323,9.876 14.296,9.874 14.288,9.873 14.28,9.872 14.259,9.87 14.24,9.868 14.21,9.865 14.156,9.858 14.114,9.852 14.107,9.851 14.091,9.848 14.078,9.847 13.877,9.82 13.567,9.744 13.346,9.669 13.108,9.588 12.925,9.476 12.746,9.3 12.536,9.094 12.403,8.863 12.321,8.562 12.253,8.31 12.213,8.077 12.185,7.768 12.171,7.622 12.171,7.242 12.185,7.128 12.186,7.117 12.19,7.079 12.193,7.043 12.216,6.772 12.29,6.4 12.36,6.198 12.467,5.887 12.668,5.618 12.931,5.43 13.1,5.309 13.259,5.238 13.538,5.158 14.177,4.976 14.869,4.946 15.52,5.072 c 0.256,0.05 0.53,0.127 0.683,0.194 0.381,0.164 0.682,0.475 0.838,0.867 0.058,0.146 0.121,0.403 0.16,0.653 l 0.013,0.087 c 0.051,0.384 0.056,0.711 0,1.146 l -0.015,0.097 c -0.032,0.197 -0.084,0.424 -0.129,0.558 -0.078,0.233 -0.201,0.435 -0.372,0.607 -0.157,0.16 -0.326,0.273 -0.531,0.356 -0.174,0.071 -0.512,0.16 -0.759,0.2 -0.031,0.004 -0.059,0.009 -0.064,0.01 -0.004,0.001 -0.021,0.003 -0.036,0.005 -0.015,0.002 -0.032,0.004 -0.037,0.005 -0.005,0.001 -0.026,0.004 -0.045,0.006 -0.02,0.002 -0.04,0.004 -0.044,0.005 -0.009,0.002 -0.101,0.01 -0.162,0.015 -0.088,0.008 -0.372,0.016 -0.377,0.012 z m 0.269,-1.363 c 0.102,-0.01 0.206,-0.03 0.263,-0.05 0.185,-0.065 0.339,-0.203 0.421,-0.377 0.041,-0.088 0.087,-0.27 0.108,-0.431 0.012,-0.086 0.013,-0.342 0.003,-0.43 C 15.688,7.077 15.647,6.902 15.604,6.802 15.567,6.715 15.498,6.618 15.43,6.556 15.358,6.491 15.257,6.432 15.164,6.401 15.118,6.386 15.017,6.367 14.931,6.356 c -0.074,-0.01 -0.372,-0.01 -0.44,0 -0.202,0.027 -0.295,0.057 -0.406,0.13 -0.11,0.074 -0.194,0.169 -0.251,0.287 -0.053,0.11 -0.099,0.299 -0.119,0.49 -0.008,0.078 -0.007,0.295 10e-4,0.371 0.015,0.137 0.05,0.302 0.085,0.404 0.086,0.243 0.29,0.419 0.546,0.47 0.172,0.035 0.368,0.043 0.565,0.024 z"
       fill="rgb(1,177,221)"
       id="path1067"
       style="fill:#ffffff" />
  </g>
</svg>
