<?xml version="1.0" encoding="UTF-8" standalone="no"?><!-- Generator: Gravit.io --><svg xmlns="http://www.w3.org/2000/svg" xmlns:xlink="http://www.w3.org/1999/xlink" style="isolation:isolate" viewBox="0 0 24 24" width="24pt" height="24pt"><defs><clipPath id="_clipPath_OR05FNuX9EtNwm3aM4qY3HX29aAEuXfx"><rect width="24" height="24"/></clipPath></defs><g clip-path="url(#_clipPath_OR05FNuX9EtNwm3aM4qY3HX29aAEuXfx)"><g><g><clipPath id="_clipPath_5YgxxeXawh2Ymtv0NYBppvibwZcUV98a"><path d=" M 1.595 15.89 L 22.405 15.89 L 22.405 7.224 L 1.595 7.224 L 1.595 15.89 Z " fill="rgb(255,255,255)"/></clipPath><g clip-path="url(#_clipPath_5YgxxeXawh2Ymtv0NYBppvibwZcUV98a)"><g><g><path d=" M 5.726 11.15 C 5.751 11.175 5.751 11.214 5.727 11.24 C 5.674 11.297 5.617 11.349 5.558 11.394 L 5.558 11.394 C 5.499 11.439 5.434 11.479 5.366 11.512 C 5.297 11.546 5.22 11.572 5.139 11.589 C 5.057 11.606 4.967 11.614 4.87 11.614 C 4.715 11.614 4.57 11.586 4.439 11.529 C 4.308 11.473 4.193 11.395 4.098 11.297 C 4.002 11.199 3.926 11.082 3.871 10.949 C 3.817 10.817 3.79 10.672 3.79 10.52 C 3.79 10.369 3.817 10.226 3.87 10.093 C 3.923 9.961 3.999 9.843 4.096 9.743 C 4.193 9.643 4.309 9.563 4.442 9.506 C 4.575 9.449 4.724 9.419 4.884 9.419 C 4.979 9.419 5.067 9.428 5.147 9.444 C 5.226 9.46 5.3 9.483 5.367 9.512 C 5.433 9.541 5.496 9.577 5.552 9.617 C 5.608 9.657 5.661 9.701 5.711 9.748 C 5.736 9.772 5.737 9.812 5.715 9.838 L 5.489 10.097 C 5.478 10.111 5.461 10.119 5.444 10.12 C 5.426 10.121 5.409 10.114 5.396 10.102 C 5.321 10.033 5.241 9.976 5.157 9.933 C 5.077 9.892 4.985 9.872 4.881 9.872 C 4.796 9.872 4.716 9.888 4.645 9.921 C 4.572 9.955 4.508 10 4.455 10.057 C 4.402 10.115 4.361 10.183 4.332 10.26 C 4.302 10.338 4.287 10.423 4.287 10.514 C 4.287 10.605 4.302 10.691 4.332 10.769 C 4.361 10.848 4.403 10.917 4.456 10.975 C 4.509 11.033 4.572 11.079 4.645 11.113 C 4.716 11.146 4.796 11.162 4.881 11.162 C 4.992 11.162 5.087 11.141 5.165 11.1 C 5.247 11.056 5.329 10.996 5.41 10.92 C 5.436 10.896 5.476 10.897 5.501 10.922 L 5.726 11.15 Z " fill="rgb(17,70,49)"/></g><g><path d=" M 7.06 10.603 C 7.04 10.552 7.013 10.506 6.978 10.468 C 6.943 10.43 6.901 10.399 6.854 10.378 C 6.807 10.356 6.754 10.345 6.695 10.345 C 6.637 10.345 6.584 10.356 6.537 10.378 C 6.489 10.399 6.448 10.429 6.415 10.466 C 6.381 10.504 6.355 10.548 6.337 10.597 C 6.319 10.648 6.31 10.703 6.31 10.762 C 6.31 10.821 6.32 10.877 6.339 10.929 C 6.359 10.981 6.386 11.026 6.421 11.063 C 6.456 11.1 6.498 11.131 6.545 11.153 C 6.592 11.174 6.645 11.185 6.701 11.185 C 6.761 11.185 6.816 11.174 6.862 11.153 C 6.91 11.131 6.951 11.101 6.985 11.064 C 7.018 11.027 7.045 10.982 7.062 10.933 C 7.081 10.882 7.09 10.827 7.09 10.768 C 7.09 10.71 7.08 10.654 7.06 10.603 Z  M 7.502 10.432 C 7.546 10.534 7.567 10.646 7.567 10.762 C 7.567 10.879 7.545 10.99 7.501 11.093 C 7.457 11.195 7.396 11.286 7.319 11.363 C 7.242 11.44 7.149 11.502 7.043 11.546 C 6.936 11.592 6.819 11.614 6.695 11.614 C 6.573 11.614 6.458 11.592 6.352 11.548 C 6.247 11.504 6.155 11.443 6.078 11.366 C 6.001 11.289 5.94 11.198 5.897 11.097 C 5.854 10.995 5.832 10.885 5.832 10.768 C 5.832 10.651 5.854 10.539 5.898 10.436 C 5.942 10.333 6.004 10.241 6.08 10.164 C 6.157 10.088 6.25 10.026 6.355 9.981 C 6.46 9.936 6.577 9.913 6.701 9.913 C 6.825 9.913 6.941 9.935 7.047 9.979 C 7.152 10.023 7.245 10.085 7.322 10.162 C 7.399 10.238 7.46 10.329 7.502 10.432 Z " fill="rgb(17,70,49)"/></g><g><path d=" M 8.62 10.618 C 8.546 10.584 8.369 10.524 8.264 10.489 C 8.155 10.453 8.18 10.377 8.204 10.355 C 8.228 10.331 8.261 10.319 8.321 10.319 C 8.376 10.319 8.441 10.334 8.508 10.357 C 8.577 10.381 8.647 10.414 8.715 10.455 C 8.73 10.465 8.748 10.467 8.765 10.463 C 8.782 10.458 8.797 10.447 8.805 10.432 L 8.942 10.186 C 8.959 10.157 8.95 10.119 8.922 10.101 C 8.837 10.044 8.742 9.999 8.64 9.967 C 8.455 9.909 8.265 9.901 8.103 9.953 C 8.03 9.976 7.965 10.011 7.91 10.056 C 7.855 10.102 7.81 10.158 7.779 10.223 C 7.747 10.289 7.731 10.373 7.731 10.443 C 7.731 10.602 7.807 10.781 8.039 10.879 C 8.106 10.907 8.301 10.969 8.342 10.981 C 8.392 10.997 8.538 11.035 8.538 11.107 C 8.538 11.186 8.429 11.205 8.369 11.205 C 8.299 11.205 8.225 11.191 8.148 11.162 C 8.069 11.133 7.991 11.089 7.915 11.032 C 7.9 11.022 7.882 11.017 7.865 11.021 C 7.847 11.024 7.832 11.034 7.822 11.049 L 7.668 11.283 C 7.649 11.311 7.655 11.349 7.682 11.369 C 7.782 11.448 7.893 11.508 8.01 11.548 C 8.128 11.588 8.246 11.609 8.361 11.609 C 8.445 11.609 8.525 11.598 8.598 11.576 C 8.675 11.554 8.742 11.52 8.798 11.477 C 8.857 11.432 8.903 11.374 8.935 11.307 C 8.968 11.239 8.985 11.16 8.985 11.07 C 8.985 11.07 8.984 10.951 8.927 10.854 C 8.856 10.733 8.699 10.655 8.62 10.618 Z " fill="rgb(17,70,49)"/></g><g><path d=" M 10.119 9.944 L 9.779 9.944 L 9.779 9.596 C 9.779 9.56 9.75 9.531 9.714 9.531 L 9.366 9.531 C 9.33 9.531 9.301 9.56 9.301 9.596 L 9.301 9.944 L 9.175 9.944 C 9.139 9.944 9.11 9.973 9.11 10.009 L 9.11 10.303 C 9.11 10.339 9.139 10.368 9.175 10.368 L 9.301 10.368 L 9.301 11.098 C 9.301 11.189 9.313 11.268 9.337 11.331 C 9.362 11.397 9.398 11.451 9.445 11.493 C 9.492 11.533 9.547 11.563 9.61 11.58 C 9.669 11.597 9.734 11.606 9.802 11.606 C 9.872 11.606 9.935 11.598 9.99 11.584 C 10.045 11.569 10.097 11.548 10.145 11.52 C 10.166 11.509 10.178 11.487 10.178 11.464 L 10.178 11.182 C 10.178 11.159 10.166 11.138 10.147 11.126 C 10.128 11.115 10.104 11.113 10.084 11.123 C 10.025 11.153 9.963 11.168 9.899 11.168 C 9.857 11.168 9.826 11.159 9.806 11.141 C 9.783 11.12 9.779 11.077 9.779 11.044 L 9.779 10.368 L 10.119 10.368 C 10.155 10.368 10.184 10.339 10.184 10.303 L 10.184 10.009 C 10.184 9.973 10.155 9.944 10.119 9.944 Z " fill="rgb(17,70,49)"/></g><g><path d=" M 15.893 9.944 L 15.553 9.944 L 15.553 9.596 C 15.553 9.56 15.524 9.531 15.488 9.531 L 15.14 9.531 C 15.104 9.531 15.075 9.56 15.075 9.596 L 15.075 9.944 L 14.38 9.944 L 14.38 9.596 C 14.38 9.56 14.351 9.531 14.316 9.531 L 13.968 9.531 C 13.932 9.531 13.903 9.56 13.903 9.596 L 13.903 9.944 L 13.776 9.944 C 13.741 9.944 13.712 9.973 13.712 10.009 L 13.712 10.303 C 13.712 10.339 13.741 10.368 13.776 10.368 L 13.903 10.368 L 13.903 11.098 C 13.903 11.189 13.915 11.268 13.938 11.331 C 13.963 11.397 14 11.451 14.047 11.493 C 14.094 11.533 14.149 11.563 14.212 11.58 C 14.271 11.597 14.336 11.606 14.404 11.606 C 14.474 11.606 14.537 11.598 14.592 11.584 C 14.646 11.569 14.698 11.548 14.747 11.52 C 14.767 11.509 14.78 11.487 14.78 11.464 L 14.78 11.182 C 14.78 11.159 14.768 11.138 14.749 11.126 C 14.73 11.115 14.706 11.113 14.686 11.123 C 14.627 11.153 14.565 11.168 14.501 11.168 C 14.459 11.168 14.428 11.159 14.408 11.141 C 14.385 11.12 14.38 11.077 14.38 11.044 L 14.38 10.368 L 15.075 10.368 L 15.075 11.098 C 15.075 11.189 15.087 11.268 15.111 11.331 C 15.136 11.397 15.172 11.451 15.219 11.493 C 15.266 11.533 15.321 11.563 15.384 11.58 C 15.443 11.597 15.508 11.606 15.576 11.606 C 15.646 11.606 15.709 11.598 15.764 11.584 C 15.819 11.569 15.871 11.548 15.919 11.52 C 15.939 11.509 15.952 11.487 15.952 11.464 L 15.952 11.182 C 15.952 11.159 15.94 11.138 15.921 11.126 C 15.902 11.115 15.878 11.113 15.858 11.123 C 15.799 11.153 15.737 11.168 15.673 11.168 C 15.631 11.168 15.6 11.159 15.58 11.141 C 15.557 11.12 15.553 11.077 15.553 11.044 L 15.553 10.368 L 15.893 10.368 C 15.929 10.368 15.958 10.339 15.958 10.303 L 15.958 10.009 C 15.958 9.973 15.929 9.944 15.893 9.944 Z " fill="rgb(17,70,49)"/></g><g><path d=" M 11.617 11.016 C 11.592 10.99 11.551 10.991 11.526 11.016 C 11.475 11.067 11.43 11.102 11.37 11.137 C 11.318 11.167 11.251 11.185 11.181 11.185 C 11.124 11.185 11.072 11.174 11.026 11.153 C 10.978 11.131 10.937 11.101 10.903 11.064 C 10.869 11.026 10.843 10.982 10.824 10.931 C 10.805 10.879 10.795 10.823 10.795 10.762 C 10.795 10.704 10.805 10.649 10.824 10.598 C 10.843 10.548 10.869 10.503 10.902 10.465 C 10.934 10.428 10.973 10.399 11.018 10.377 C 11.062 10.356 11.111 10.345 11.164 10.345 C 11.239 10.345 11.297 10.363 11.35 10.39 C 11.412 10.422 11.45 10.452 11.505 10.51 C 11.518 10.524 11.537 10.533 11.555 10.533 C 11.573 10.533 11.59 10.526 11.602 10.512 L 11.816 10.281 C 11.839 10.257 11.839 10.219 11.816 10.194 C 11.741 10.11 11.652 10.042 11.551 9.991 C 11.448 9.939 11.319 9.913 11.167 9.913 C 11.046 9.913 10.932 9.936 10.828 9.981 C 10.725 10.026 10.634 10.089 10.558 10.167 C 10.483 10.244 10.423 10.336 10.381 10.438 C 10.339 10.541 10.317 10.651 10.317 10.768 C 10.317 10.884 10.339 10.995 10.381 11.097 C 10.424 11.198 10.483 11.288 10.559 11.365 C 10.634 11.442 10.725 11.504 10.827 11.548 C 10.93 11.592 11.043 11.614 11.164 11.614 C 11.32 11.614 11.453 11.585 11.557 11.528 C 11.658 11.472 11.75 11.399 11.828 11.31 C 11.851 11.284 11.85 11.245 11.825 11.221 L 11.617 11.016 Z " fill="rgb(17,70,49)"/></g><g><path d=" M 13.45 9.944 L 13.102 9.944 C 13.066 9.944 13.037 9.973 13.037 10.009 L 13.037 10.857 C 13.037 10.958 13.012 11.034 12.962 11.087 C 12.912 11.14 12.848 11.165 12.765 11.165 C 12.683 11.165 12.621 11.141 12.578 11.092 C 12.534 11.041 12.511 10.964 12.511 10.863 L 12.511 10.009 C 12.511 9.973 12.482 9.944 12.446 9.944 L 12.098 9.944 C 12.062 9.944 12.033 9.973 12.033 10.009 L 12.033 10.968 C 12.033 11.16 12.086 11.317 12.189 11.433 C 12.294 11.551 12.444 11.611 12.633 11.611 C 12.762 11.611 12.87 11.581 12.955 11.52 C 12.984 11.499 13.011 11.477 13.037 11.453 L 13.037 11.515 C 13.037 11.551 13.066 11.58 13.102 11.58 L 13.45 11.58 C 13.486 11.58 13.515 11.551 13.515 11.515 L 13.515 10.009 C 13.515 9.973 13.486 9.944 13.45 9.944 Z " fill="rgb(17,70,49)"/></g><g><path d=" M 17.188 10.592 C 17.182 10.569 17.175 10.546 17.167 10.525 C 17.151 10.484 17.129 10.449 17.103 10.42 C 17.076 10.391 17.044 10.368 17.007 10.35 C 16.972 10.334 16.93 10.325 16.882 10.325 C 16.794 10.325 16.723 10.354 16.666 10.415 C 16.62 10.463 16.588 10.521 16.57 10.592 L 17.188 10.592 Z  M 17.623 10.461 C 17.655 10.566 17.672 10.676 17.672 10.791 C 17.672 10.807 17.671 10.824 17.67 10.84 C 17.669 10.857 17.668 10.874 17.666 10.892 C 17.662 10.925 17.634 10.95 17.601 10.95 L 16.576 10.95 C 16.588 11.001 16.635 11.077 16.685 11.119 L 16.685 11.119 C 16.751 11.175 16.831 11.202 16.928 11.202 C 17.003 11.202 17.069 11.189 17.122 11.163 C 17.178 11.136 17.235 11.095 17.291 11.041 C 17.315 11.017 17.354 11.016 17.379 11.039 L 17.581 11.219 C 17.608 11.242 17.611 11.282 17.588 11.309 C 17.51 11.401 17.417 11.475 17.31 11.53 C 17.201 11.586 17.071 11.614 16.922 11.614 C 16.806 11.614 16.696 11.594 16.594 11.553 C 16.493 11.511 16.403 11.453 16.328 11.379 C 16.252 11.305 16.192 11.214 16.149 11.111 C 16.106 11.007 16.084 10.891 16.084 10.765 C 16.084 10.649 16.104 10.539 16.143 10.437 C 16.182 10.334 16.237 10.243 16.308 10.166 C 16.379 10.089 16.464 10.027 16.561 9.982 C 16.659 9.936 16.768 9.913 16.885 9.913 C 17.014 9.913 17.13 9.937 17.229 9.985 C 17.327 10.033 17.411 10.098 17.476 10.18 C 17.541 10.26 17.59 10.354 17.623 10.461 Z " fill="rgb(17,70,49)"/></g><g><path d=" M 18.817 9.916 C 18.669 9.909 18.543 9.946 18.444 10.024 C 18.408 10.051 18.375 10.083 18.346 10.117 L 18.346 10.009 C 18.346 9.973 18.317 9.944 18.281 9.944 L 17.933 9.944 C 17.897 9.944 17.868 9.973 17.868 10.009 L 17.868 11.515 C 17.868 11.551 17.897 11.58 17.933 11.58 L 18.281 11.58 C 18.317 11.58 18.346 11.551 18.346 11.515 L 18.346 10.942 C 18.346 10.571 18.518 10.411 18.794 10.411 L 18.814 10.411 C 18.85 10.411 18.879 10.382 18.879 10.346 L 18.879 9.981 C 18.879 9.946 18.852 9.917 18.817 9.916 Z " fill="rgb(17,70,49)"/></g><g><path d=" M 20.207 10.363 C 20.208 10.372 20.206 10.381 20.2 10.387 C 20.082 10.543 19.895 10.636 19.701 10.636 C 19.524 10.636 19.355 10.56 19.236 10.428 C 19.116 10.295 19.059 10.123 19.078 9.943 C 19.107 9.662 19.331 9.429 19.611 9.389 C 19.836 9.357 20.062 9.45 20.2 9.63 C 20.211 9.644 20.208 9.665 20.194 9.675 L 20.068 9.774 C 20.061 9.779 20.052 9.781 20.044 9.78 C 20.035 9.779 20.027 9.774 20.022 9.768 C 19.932 9.65 19.786 9.59 19.64 9.611 C 19.458 9.636 19.313 9.788 19.294 9.97 C 19.282 10.086 19.319 10.198 19.397 10.285 C 19.474 10.37 19.584 10.419 19.698 10.419 C 19.826 10.419 19.948 10.358 20.025 10.255 C 20.03 10.248 20.038 10.243 20.046 10.242 C 20.055 10.241 20.064 10.243 20.071 10.248 L 20.194 10.342 C 20.201 10.347 20.206 10.355 20.207 10.363 Z " fill="rgb(17,70,49)"/></g><g><path d=" M 19.974 10.202 C 19.912 10.289 19.811 10.342 19.704 10.342 C 19.61 10.342 19.521 10.302 19.458 10.232 C 19.395 10.163 19.365 10.069 19.374 9.976 C 19.39 9.827 19.508 9.704 19.656 9.683 C 19.774 9.666 19.889 9.711 19.963 9.804 C 19.969 9.812 19.972 9.822 19.971 9.832 C 19.97 9.842 19.964 9.851 19.957 9.857 L 19.857 9.934 C 19.841 9.946 19.818 9.943 19.805 9.928 C 19.78 9.896 19.743 9.878 19.704 9.878 C 19.633 9.878 19.577 9.936 19.577 10.01 C 19.577 10.085 19.633 10.143 19.704 10.143 C 19.747 10.143 19.788 10.12 19.813 10.083 C 19.818 10.075 19.827 10.069 19.837 10.067 C 19.847 10.066 19.858 10.068 19.866 10.074 L 19.967 10.151 C 19.983 10.163 19.986 10.185 19.974 10.202 Z " fill="rgb(239,50,77)"/></g></g></g></g></g></g></svg>