<?xml version="1.0" encoding="UTF-8" standalone="no"?>
<!-- Generator: Gravit.io -->

<svg
   style="isolation:isolate"
   viewBox="0 0 24 24"
   width="24pt"
   height="24pt"
   version="1.1"
   id="svg83"
   sodipodi:docname="default_grocery.svg"
   inkscape:version="1.1.1 (3bf5ae0d25, 2021-09-20)"
   xmlns:inkscape="http://www.inkscape.org/namespaces/inkscape"
   xmlns:sodipodi="http://sodipodi.sourceforge.net/DTD/sodipodi-0.dtd"
   xmlns="http://www.w3.org/2000/svg"
   xmlns:svg="http://www.w3.org/2000/svg">
  <sodipodi:namedview
     id="namedview85"
     pagecolor="#ffffff"
     bordercolor="#666666"
     borderopacity="1.0"
     inkscape:pageshadow="2"
     inkscape:pageopacity="0.0"
     inkscape:pagecheckerboard="0"
     inkscape:document-units="pt"
     showgrid="false"
     inkscape:lockguides="true"
     inkscape:zoom="25.03125"
     inkscape:cx="16"
     inkscape:cy="16"
     inkscape:window-width="1920"
     inkscape:window-height="1009"
     inkscape:window-x="-8"
     inkscape:window-y="-8"
     inkscape:window-maximized="1"
     inkscape:current-layer="svg83" />
  <defs
     id="defs12">
    <clipPath
       id="_clipPath_ZOTwg8ydOCm0sCtpqtULX6lkaEpdqwwL">
      <rect
         width="24"
         height="24"
         id="rect9" />
    </clipPath>
  </defs>
  <g
     id="g79">
    <g
       id="g46">
      <path
         d="m 7.976,8.723 c 0,1.127 0.733,2.685 1.619,3.536 0.393,0.378 0.816,0.616 1.219,0.616 0.246,-10e-4 0.491,-0.037 0.727,-0.107 0.299,-0.091 0.619,-0.091 0.918,0 0.236,0.07 0.481,0.106 0.727,0.107 0.422,0 0.867,-0.262 1.276,-0.672 0.86,-0.861 1.562,-2.377 1.562,-3.48 0,-1.627 -0.973,-2.61 -1.888,-2.847 C 13.684,5.787 13.218,5.81 12.778,5.942 12.354,6.053 11.912,6.072 11.481,5.998 Q 11.351,5.976 11.223,5.942 C 10.782,5.81 10.316,5.787 9.865,5.876 8.949,6.113 7.976,7.096 7.976,8.723 Z"
         fill="#ea5a47"
         id="path36" />
      <path
         d="m 9.595,12.259 c 0.844,0.172 1.714,0.167 2.556,-0.014 1.031,-0.253 1.798,-1.118 1.925,-2.172 0.32,-2.636 -1.402,-3.404 -1.402,-3.404 -0.341,0.137 -0.713,0.174 -1.073,0.107 0.362,-0.362 -0.12,-0.778 -0.12,-0.778 0.431,0.074 0.873,0.055 1.297,-0.056 0.44,-0.132 0.906,-0.155 1.357,-0.066 0.916,0.237 1.889,1.22 1.889,2.847 0,1.627 -1.527,4.152 -2.838,4.152 -0.246,-10e-4 -0.491,-0.037 -0.727,-0.107 -0.299,-0.091 -0.619,-0.091 -0.918,0 -0.236,0.07 -0.481,0.106 -0.727,0.107 -0.403,0 -0.826,-0.238 -1.219,-0.616 z"
         fill="#d22f27"
         id="path38" />
      <path
         d="m 11.009,6.553 c 0,0.185 0.29,0.34 0.676,0.375 0.054,0.005 0.11,0.007 0.167,0.007 0.059,0 0.117,-0.003 0.173,-0.008 0.382,-0.036 0.669,-0.19 0.669,-0.374 z"
         fill="#d22f27"
         id="path40" />
      <path
         d="M 9.605,8.419 C 9.388,8.397 9.239,8.108 9.273,7.773 9.306,7.439 9.509,7.184 9.725,7.206 9.942,7.227 10.091,7.517 10.057,7.851 10.024,8.186 9.821,8.44 9.605,8.419 Z"
         fill="#ffa7c0"
         id="path42" />
      <path
         d="M 11.547,6.031 C 11.073,6.553 9.626,6.463 9.188,4.796 9.451,4.834 9.719,4.791 9.957,4.673 c 0.669,-0.345 1.81,0.097 2.066,1.093 -0.172,0.02 -0.326,0.123 -0.445,0.25"
         fill="#b1cc33"
         id="path44" />
    </g>
    <g
       id="g77">
      <mask
         id="_mask_6a5mxgVPrz3zLUN0OzLzUqhkdsMinH7r"
         x="-200%"
         y="-200%"
         width="400%"
         height="400%">
        <rect
           x="-200%"
           y="-200%"
           width="400%"
           height="400%"
           style="fill:#ffffff"
           id="rect48" />
        <path
           d="M 9.758,5.93 C 8.843,6.167 7.976,7.096 7.976,8.723 c 0,1.127 0.733,2.685 1.619,3.536 0.393,0.378 0.816,0.616 1.219,0.616 0.246,-10e-4 0.491,-0.037 0.727,-0.107 0.299,-0.091 0.619,-0.091 0.918,0 0.236,0.07 0.481,0.106 0.727,0.107 0.422,0 0.867,-0.262 1.276,-0.672 0.86,-0.861 1.562,-2.377 1.562,-3.48 0,-1.627 -0.973,-2.61 -1.888,-2.847 C 13.684,5.787 13.218,5.81 12.778,5.942 12.354,6.053 12.111,6.058 11.68,5.984 q 0.109,-0.031 0.172,-0.062 c 0.14,-0.071 0.178,-0.116 0.171,-0.117"
           fill="#000000"
           stroke="none"
           id="path50" />
      </mask>
      <path
         d="M 9.758,5.93 C 8.843,6.167 7.976,7.096 7.976,8.723 c 0,1.127 0.733,2.685 1.619,3.536 0.393,0.378 0.816,0.616 1.219,0.616 0.246,-10e-4 0.491,-0.037 0.727,-0.107 0.299,-0.091 0.619,-0.091 0.918,0 0.236,0.07 0.481,0.106 0.727,0.107 0.422,0 0.867,-0.262 1.276,-0.672 0.86,-0.861 1.562,-2.377 1.562,-3.48 0,-1.627 -0.973,-2.61 -1.888,-2.847 C 13.684,5.787 13.218,5.81 12.778,5.942 12.354,6.053 12.111,6.058 11.68,5.984 q 0.109,-0.031 0.172,-0.062 c 0.14,-0.071 0.178,-0.116 0.171,-0.117"
         fill="none"
         id="path53" />
      <path
         d="M 9.758,5.93 C 8.843,6.167 7.976,7.096 7.976,8.723 c 0,1.127 0.733,2.685 1.619,3.536 0.393,0.378 0.816,0.616 1.219,0.616 0.246,-10e-4 0.491,-0.037 0.727,-0.107 0.299,-0.091 0.619,-0.091 0.918,0 0.236,0.07 0.481,0.106 0.727,0.107 0.422,0 0.867,-0.262 1.276,-0.672 0.86,-0.861 1.562,-2.377 1.562,-3.48 0,-1.627 -0.973,-2.61 -1.888,-2.847 C 13.684,5.787 13.218,5.81 12.778,5.942 12.354,6.053 12.111,6.058 11.68,5.984 q 0.109,-0.031 0.172,-0.062 c 0.14,-0.071 0.178,-0.116 0.171,-0.117"
         fill="none"
         mask="url(#_mask_6a5mxgVPrz3zLUN0OzLzUqhkdsMinH7r)"
         vector-effect="non-scaling-stroke"
         stroke-width="0.2"
         stroke="#000000"
         stroke-linejoin="miter"
         stroke-linecap="butt"
         stroke-miterlimit="10"
         id="path55" />
      <mask
         id="_mask_vnfaReRUFaMUKFtfPzUa3RtFPKZxv9cB"
         x="-200%"
         y="-200%"
         width="400%"
         height="400%">
        <rect
           x="-200%"
           y="-200%"
           width="400%"
           height="400%"
           style="fill:#ffffff"
           id="rect57" />
        <path
           d="M 9.797,5.969 C 8.882,6.206 7.976,7.096 7.976,8.723 c 0,1.127 0.733,2.685 1.619,3.536 0.393,0.378 0.816,0.616 1.219,0.616 0.246,-10e-4 0.491,-0.037 0.727,-0.107 0.299,-0.091 0.619,-0.091 0.918,0 0.236,0.07 0.481,0.106 0.727,0.107 0.422,0 0.867,-0.262 1.276,-0.672 0.86,-0.861 1.562,-2.377 1.562,-3.48 0,-1.627 -0.973,-2.61 -1.888,-2.847 C 13.684,5.787 13.218,5.81 12.778,5.942 12.354,6.053 12.064,6.074 11.633,6"
           fill="#000000"
           stroke="none"
           id="path59" />
      </mask>
      <path
         d="M 9.797,5.969 C 8.882,6.206 7.976,7.096 7.976,8.723 c 0,1.127 0.733,2.685 1.619,3.536 0.393,0.378 0.816,0.616 1.219,0.616 0.246,-10e-4 0.491,-0.037 0.727,-0.107 0.299,-0.091 0.619,-0.091 0.918,0 0.236,0.07 0.481,0.106 0.727,0.107 0.422,0 0.867,-0.262 1.276,-0.672 0.86,-0.861 1.562,-2.377 1.562,-3.48 0,-1.627 -0.973,-2.61 -1.888,-2.847 C 13.684,5.787 13.218,5.81 12.778,5.942 12.354,6.053 12.064,6.074 11.633,6"
         fill="none"
         id="path62" />
      <path
         d="M 9.797,5.969 C 8.882,6.206 7.976,7.096 7.976,8.723 c 0,1.127 0.733,2.685 1.619,3.536 0.393,0.378 0.816,0.616 1.219,0.616 0.246,-10e-4 0.491,-0.037 0.727,-0.107 0.299,-0.091 0.619,-0.091 0.918,0 0.236,0.07 0.481,0.106 0.727,0.107 0.422,0 0.867,-0.262 1.276,-0.672 0.86,-0.861 1.562,-2.377 1.562,-3.48 0,-1.627 -0.973,-2.61 -1.888,-2.847 C 13.684,5.787 13.218,5.81 12.778,5.942 12.354,6.053 12.064,6.074 11.633,6"
         fill="none"
         mask="url(#_mask_vnfaReRUFaMUKFtfPzUa3RtFPKZxv9cB)"
         vector-effect="non-scaling-stroke"
         stroke-width="0.2"
         stroke="#000000"
         stroke-linejoin="miter"
         stroke-linecap="butt"
         stroke-miterlimit="10"
         id="path64" />
      <path
         d="m 11.827,5.929 c -0.05,0.206 -0.088,0.414 -0.113,0.624 -0.014,0.121 -0.024,0.246 -0.029,0.375 0.054,0.005 0.11,0.007 0.167,0.007 0.059,0 0.117,-0.003 0.173,-0.008 C 12.03,6.799 12.041,6.674 12.056,6.553 12.123,6.022 12.276,5.505 12.509,5.022 12.552,4.94 12.52,4.838 12.438,4.795 12.356,4.751 12.254,4.782 12.21,4.863 12.107,5.068 12.02,5.281 11.95,5.5"
         fill="#000000"
         id="path66" />
      <mask
         id="_mask_wJLTDL0clJ3zxZtrcXzfPxmmdMn9f8kE"
         x="-200%"
         y="-200%"
         width="400%"
         height="400%">
        <rect
           x="-200%"
           y="-200%"
           width="400%"
           height="400%"
           style="fill:#ffffff"
           id="rect68" />
        <path
           d="M 9.195,4.859 C 9.457,4.895 9.723,4.853 9.962,4.74 c 0.667,-0.33 1.743,0.063 1.999,1.016 -0.17,0.02 -0.325,0.138 -0.445,0.26 -0.473,0.5 -1.884,0.438 -2.321,-1.157 z"
           fill="#000000"
           stroke="none"
           id="path70" />
      </mask>
      <path
         d="M 9.195,4.859 C 9.457,4.895 9.723,4.853 9.962,4.74 c 0.667,-0.33 1.743,0.063 1.999,1.016 -0.17,0.02 -0.325,0.138 -0.445,0.26 -0.473,0.5 -1.884,0.438 -2.321,-1.157 z"
         fill="none"
         id="path73" />
      <path
         d="M 9.195,4.859 C 9.457,4.895 9.723,4.853 9.962,4.74 c 0.667,-0.33 1.743,0.063 1.999,1.016 -0.17,0.02 -0.325,0.138 -0.445,0.26 -0.473,0.5 -1.884,0.438 -2.321,-1.157 z"
         fill="none"
         mask="url(#_mask_wJLTDL0clJ3zxZtrcXzfPxmmdMn9f8kE)"
         vector-effect="non-scaling-stroke"
         stroke-width="0.2"
         stroke="#000000"
         stroke-linejoin="miter"
         stroke-linecap="butt"
         stroke-miterlimit="10"
         id="path75" />
    </g>
  </g>
</svg>
