<?xml version="1.0" encoding="UTF-8" standalone="no"?>
<svg
   viewBox="0 0 18.040001 21.999998"
   width="18.040001pt"
   height="21.999998pt"
   version="1.1"
   id="svg26"
   xmlns="http://www.w3.org/2000/svg"
   xmlns:svg="http://www.w3.org/2000/svg">
  <defs
     id="defs30" />
  <path
     d="M 15.239,15.551 C 16.916,13.836 18.04,11.588 18.04,9.02 18.04,4.042 13.998,0 9.02,0 4.042,0 -1.9073488e-8,4.042 -1.9073488e-8,9.02 -1.9073488e-8,11.62 1.027,13.787 2.864,15.61 v 0 L 8.653,22 15.25,15.551 Z"
     fill="#FF69B4"
     id="path24"
     style="fill:#000000;fill-opacity:1" />
  <path
     d="M 13.553425,6.5041556 V 6.0325098 h -0.886368 v 0.8863687 h 0.443183 c -0.02847,0.1423069 -0.117911,0.3008774 -0.28868,0.4757117 l 0.252088,0.2480206 c 0.215492,-0.2236251 0.345601,-0.3984593 0.422854,-0.6383482 0.04879,-0.1545045 0.05692,-0.3537343 0.05692,-0.500107 z M 3.4821611,9.301503 v 0.3578 H 1.4004144 c 0.069121,0.597689 0.414723,0.744062 0.7237322,0.744062 0.3862617,0 0.552964,-0.154505 0.642414,-0.37813 l 0.6912051,0.280549 c -0.1992298,0.512304 -0.6586777,0.792852 -1.3661463,0.792852 -0.9798847,0 -1.56131012,-0.642414 -1.56131012,-1.69142 0,-0.9066979 0.53670032,-1.6101005 1.53691462,-1.6101005 0.8863687,0 1.4149372,0.6586776 1.4149372,1.5043875 z M 1.4126121,9.098207 H 2.7055719 C 2.6933743,8.7444728 2.4494196,8.4842545 2.0916194,8.4842545 1.7094237,8.4801886 1.4857985,8.7200774 1.4126121,9.098207 Z m 5.3385426,1.951637 H 5.8851149 V 9.098207 c 0,-0.3984591 -0.1423068,-0.589557 -0.4675798,-0.589557 A 0.84814914,0.84814914 0 0 0 4.8279778,8.7322751 V 11.049844 H 3.9619387 V 7.8459063 h 0.8335119 v 0.235823 C 5.0759984,7.8906314 5.3524805,7.7930496 5.6411601,7.7930496 c 0.280548,0 0.5814254,0.1016472 0.7765888,0.4106571 0.2358234,-0.2439549 0.5895584,-0.4106571 1.0449401,-0.4106571 0.557031,0 1.211642,0.2439546 1.211642,1.2604324 V 11.04578 H 7.808292 V 9.098207 c 0,-0.3903274 -0.134175,-0.5814252 -0.455382,-0.5814252 -0.3699987,0 -0.6017553,0.2561525 -0.6017553,0.6017542 z M 9.219163,7.8459063 h 0.813183 v 0.231757 C 10.288498,7.8906314 10.52432,7.813379 10.869923,7.813379 c 0.77659,0 1.29296,0.5814255 1.29296,1.569442 0,0.93516 -0.569227,1.671089 -1.593837,1.671089 -0.158571,0 -0.325273,-0.0082 -0.48791,-0.0244 v 1.012412 H 9.215097 V 7.8459063 Z m 0.861973,0.8579074 V 10.35864 c 0.154504,0.01219 0.28868,0.01219 0.48791,0.01219 0.475712,0 0.723732,-0.390329 0.723732,-1.02461 0,-0.5570304 -0.203296,-0.8131829 -0.64648,-0.8131829 a 0.91401691,0.91401691 0 0 0 -0.565162,0.170768 z M 12.81343,8.553375 H 12.366179 V 7.8459063 h 1.313288 V 11.049844 H 12.81343 Z m 1.536913,-2.114274 h 0.86604 v 2.63471 h 0.337471 l 0.813182,-1.2238387 h 0.927028 l -1.00428,1.4596617 1.065268,1.744276 H 16.395497 L 15.574182,9.765016 h -0.357799 v 1.284828 h -0.86604 z"
     id="path10994"
     style="fill:#ffffff;stroke-width:0.0406591" />
</svg>
