<?xml version="1.0" encoding="UTF-8" standalone="no"?>
<svg
   viewBox="0 0 18.040001 21.999998"
   width="18.040001pt"
   height="21.999998pt"
   version="1.1"
   id="svg9721"
   xmlns="http://www.w3.org/2000/svg"
   xmlns:svg="http://www.w3.org/2000/svg">
  <defs
     id="defs9725" />
  <g
     transform="matrix(0.00261646,0,0,-0.00257335,1.7847988,16.058475)"
     fill="#000000"
     stroke="none"
     id="g20783"
     style="fill:#ffffff">
    <path
       d="m 3358.641,5464.963 c -332,-31 -698,-130 -1023,-278 -607,-274 -1226,-796 -1654.00002,-1394 -545,-760 -769.000003,-1712 -582.000003,-2467 C 231.64098,794.96298 552.64098,382.96298 1012.641,154.96298 c 54,-27 162,-71.000002 238,-97.000002 l 138,-47 483,-2.9999998 c 453,-3 490,-2 600,17.9999998 383,68 800,212.000002 1192,411.000002 292,148 443,262 751,569.00002 268,267 409,441 556,685 194,323 344,732 438,1200 58,288 68,398 62,734 -4,272 -7,306 -31,418 -55,257 -157,500 -277,663 -80,109 -338,366 -454,454 -103,77 -287,171 -425,216 -260,84 -610,118 -925,89 z m 710,-753 c 318,-55 583,-185 800,-391 61,-58 58,-57 -52,8 -161,97 -341,169 -523,208 -94,21 -132,23 -370,24 -259,0 -366,-8 -560,-41 -87,-15 -258,-62 -273,-74 -5,-4 24,-15 65,-25 613,-148 986,-365 1266,-739 29,-38 52,-72 52,-75 0,-6 -367,-108 -675,-188 -93,-24 -204,-47 -246,-50 -69,-5 -79,-4 -95,15 -9,11 -80,137 -156,279 -157,292 -301,546 -365,645 -49,78 -45,77 -157,12 -94,-55 -119,-77 -149,-133 -52,-95 -82,-197 -300,-1035 -19,-72 -40,-133 -48,-138 -8,-4 -178,-55 -379,-113 -637,-185 -662,-196 -680,-296 -15,-82 27,-281 69,-326 26,-27 52,-81 100,-199 119,-301 309,-920 288,-941 -10,-9 -63,34 -138,114 -228,244 -402,573 -454,860 -9,50 -23,100 -31,110 -13,17 -15,17 -29,-2 -43.00002,-55 -95.00002,-407 -95.00002,-640 0,-295 61,-525 218.00002,-835.00002 106,-209 116,-230 102,-230 -14,0 -119,134 -194,249 -124.00002,188 -196.00002,352.00002 -238.00002,543.00002 -20,93 -22,130 -23,393 0,330 11,426 75,680 131.00002,518 432.00002,1011 886.00002,1456 142,138 267,245 395,335 449,319 927,506 1424,558 78,8 411,-4 490,-18 z m -1153,-926 c 158,-287 172,-315 215,-410 49,-108 48,-113 -37,-149 -47,-20 -373,-108 -438,-118 -76,-12 -76,22 -5,287 24,91 66,251 94,355 67,254 58,231 73,208 7,-10 51,-88 98,-173 z m 1738,-523 c 57,-126 120,-383 141,-572 28,-265 -24,-588 -141,-870 -162,-390 -462,-734 -818,-939.00002 -496,-285 -1196,-300 -1747,-37 -127,61 -165,90 -143,109 7,5 317,94.00002 688,197.00002 1221,338 1625,462 1686,516 47,43 77,221 119,704 42,496 67,657 120,775 18,41 36,93 40,115 14,84 18,84 55,2 z m -598,-379 c 13,-98 30,-462 31,-711 l 2,-259 -28,-24 c -19,-16 -40,-24 -67,-24 -53,0 -68,7 -88,44 -15,27 -17,73 -20,373 -5,493 9,596 88,636 56,28 74,20 82,-35 z m -527,-142 c 23,-35 42,-150 59,-365 18,-212 21,-513 6,-576 -10,-47 -72,-108 -104,-103 -28,4 -62,59 -76,121 -27,129 -60,493 -60,677 0,152 10,203 48,243 35,37 104,39 127,3 z m -516,-121 c 36,-47 61,-204 96,-605 28,-330 20,-385 -60,-421 -55,-24 -72,-22 -96,11 -31,43 -83,489 -96,832 l -6,166 34,21 c 48,30 102,28 128,-4 z m -518,-145 c 10,-6 25,-24 34,-39 45,-88 121,-785 95,-879 -14,-53 -69,-102 -114,-102 -39,0 -50,11 -65,65 -27,103 -79,600 -84,796 -2,116 3,131 58,155 37,16 51,17 76,4 z m -516,-136 c 49,-32 67,-106 125,-504 33,-226 46,-409 32,-455 -4,-16 -20,-37 -35,-45 -23,-13 -31,-13 -69,0 -27,10 -48,26 -60,45 -31,55 -108,488 -138,783 -14,132 -6,166 44,188 34,15 66,11 101,-12 z"
       id="path20781"
       style="fill:#ffffff" />
  </g>
</svg>
