<?xml version="1.0" encoding="UTF-8" standalone="no"?>
<svg
   viewBox="0 0 18.040001 21.999998"
   width="18.040001pt"
   height="21.999998pt"
   version="1.1"
   id="svg9721"
   xmlns="http://www.w3.org/2000/svg"
   xmlns:svg="http://www.w3.org/2000/svg">
  <defs
     id="defs9725" />
  <g
     transform="matrix(0.00626154,0,0,-0.00573869,0.88598138,11.680414)"
     fill="#000000"
     stroke="none"
     id="g27100"
     style="fill:#2b2f78;fill-opacity:1">
    <path
       d="m 1235,782 c -80,-37 -129,-123 -106,-183 5,-15 31,-44 58,-65 66,-52 73,-62 73,-105 0,-45 -27,-69 -76,-69 -47,0 -65,10 -79,43 l -12,29 -34,-30 c -28,-26 -32,-34 -23,-49 28,-47 129,-62 194,-30 84,41 142,130 126,193 -7,26 -45,69 -114,126 -36,30 -42,66 -14,91 25,23 84,21 115,-3 33,-26 45,-25 59,5 9,21 9,29 -5,42 -25,25 -114,28 -162,5 z"
       id="path27064"
       style="fill:#2b2f78;fill-opacity:1" />
    <path
       d="M 90,781 C 68,775 66,770 69,724 72,668 50,534 20,414 2,345 2,334 14,321 c 13,-12 22,-12 55,-2 28,8 38,16 35,26 -5,12 22,159 33,178 3,4 20,-23 38,-61 37,-77 102,-152 132,-152 44,0 81,63 44,75 -28,9 -86,76 -116,135 l -26,51 47,54 c 53,62 100,95 137,95 19,0 26,7 31,27 7,27 -5,43 -32,43 -35,0 -89,-40 -165,-121 l -83,-88 20,88 c 10,48 16,95 13,104 -7,18 -41,21 -87,8 z"
       id="path27066"
       style="fill:#2b2f78;fill-opacity:1" />
    <path
       d="m 1499,783 c -11,-2 -15,-12 -12,-27 3,-12 0,-41 -6,-63 -9,-32 -17,-42 -39,-48 -31,-7 -62,-32 -62,-49 0,-7 15,-10 41,-8 40,4 42,3 36,-19 -4,-13 -12,-60 -19,-104 -13,-95 -2,-132 47,-148 55,-19 155,22 155,63 0,26 -10,30 -36,14 -12,-9 -33,-14 -46,-12 -22,3 -23,7 -22,78 0,41 3,87 7,103 7,24 12,27 52,27 32,0 51,6 65,20 32,32 24,40 -35,40 -60,0 -60,0 -44,66 17,64 -10,87 -82,67 z"
       id="path27068"
       style="fill:#2b2f78;fill-opacity:1" />
    <path
       d="M 575,681 C 484,640 416,535 416,433 c -1,-51 3,-65 23,-87 60,-64 261,-29 261,45 0,21 -16,33 -25,19 -11,-17 -82,-50 -109,-50 -30,0 -46,25 -46,74 0,33 2,35 44,44 67,14 131,56 151,98 45,96 -32,154 -140,105 z m 53,-60 c 8,-56 -31,-101 -88,-101 -22,0 -22,6 1,67 22,58 81,81 87,34 z"
       id="path27070"
       style="fill:#2b2f78;fill-opacity:1" />
    <path
       d="m 767,684 c -26,-14 -26,-16 -13,-42 14,-27 48,-169 61,-250 6,-37 4,-47 -16,-68 -17,-18 -32,-24 -53,-22 -24,2 -33,-3 -46,-25 -14,-26 -14,-29 4,-43 29,-21 47,-18 99,17 105,69 307,383 271,419 -5,5 -24,13 -42,16 -31,6 -32,5 -32,-27 0,-39 -27,-102 -72,-172 -38,-59 -43,-53 -53,68 -11,138 -36,168 -108,129 z"
       id="path27072"
       style="fill:#2b2f78;fill-opacity:1" />
    <path
       d="m 1803,680 c -92,-47 -162,-196 -134,-283 27,-80 110,-109 196,-67 79,38 143,162 132,257 -10,94 -104,139 -194,93 z m 88,-52 c 17,-32 5,-169 -19,-216 -24,-48 -67,-66 -89,-37 -34,45 4,250 49,268 28,11 48,6 59,-15 z"
       id="path27074"
       style="fill:#2b2f78;fill-opacity:1" />
    <path
       d="m 2094,690 c -17,-7 -22,-20 -27,-67 -3,-32 -18,-106 -31,-165 -14,-59 -23,-114 -20,-122 8,-20 38,-29 72,-21 23,5 27,11 28,43 2,37 47,139 87,195 16,24 25,28 48,23 22,-4 31,0 45,21 9,15 18,43 18,62 1,29 -3,37 -20,39 -28,4 -78,-39 -110,-95 -15,-24 -28,-43 -29,-41 -2,2 1,27 7,55 15,74 -7,98 -68,73 z"
       id="path27076"
       style="fill:#2b2f78;fill-opacity:1" />
    <path
       d="m 2445,681 c -92,-41 -159,-146 -159,-248 -1,-54 2,-66 24,-88 69,-69 296,-17 266,61 -6,15 -8,15 -24,2 -80,-71 -162,-58 -162,24 0,35 2,37 44,46 67,14 131,56 151,98 45,96 -32,154 -140,105 z m 63,-60 c 8,-56 -31,-101 -88,-101 -17,0 -19,4 -14,28 15,61 48,104 78,100 13,-2 22,-12 24,-27 z"
       id="path27078"
       style="fill:#2b2f78;fill-opacity:1" />
    <path
       d="M 0,45 V 0 H 45 90 V 45 90 H 45 0 Z"
       id="path27080"
       style="fill:#2b2f78;fill-opacity:1" />
    <path
       d="M 280,45 V 0 h 45 45 v 45 45 h -45 -45 z"
       id="path27082"
       style="fill:#2b2f78;fill-opacity:1" />
    <path
       d="M 560,45 V 0 h 45 45 v 45 45 h -45 -45 z"
       id="path27084"
       style="fill:#2b2f78;fill-opacity:1" />
    <path
       d="M 840,45 V 0 h 45 45 v 45 45 h -45 -45 z"
       id="path27086"
       style="fill:#2b2f78;fill-opacity:1" />
    <path
       d="M 1110,45 V 0 h 45 45 v 45 45 h -45 -45 z"
       id="path27088"
       style="fill:#2b2f78;fill-opacity:1" />
    <path
       d="M 1390,45 V 0 h 45 45 v 45 45 h -45 -45 z"
       id="path27090"
       style="fill:#2b2f78;fill-opacity:1" />
    <path
       d="M 1670,45 V 0 h 45 45 v 45 45 h -45 -45 z"
       id="path27092"
       style="fill:#2b2f78;fill-opacity:1" />
    <path
       d="M 1950,45 V 0 h 45 45 v 45 45 h -45 -45 z"
       id="path27094"
       style="fill:#2b2f78;fill-opacity:1" />
    <path
       d="M 2220,45 V 0 h 45 45 v 45 45 h -45 -45 z"
       id="path27096"
       style="fill:#2b2f78;fill-opacity:1" />
    <path
       d="M 2500,45 V 0 h 45 45 v 45 45 h -45 -45 z"
       id="path27098"
       style="fill:#2b2f78;fill-opacity:1" />
  </g>
</svg>
