<?xml version="1.0" encoding="UTF-8" standalone="no"?>
<svg
   viewBox="0 0 18.040001 21.999998"
   width="18.040001pt"
   height="21.999998pt"
   version="1.1"
   id="svg9721"
   xmlns="http://www.w3.org/2000/svg"
   xmlns:svg="http://www.w3.org/2000/svg">
  <defs
     id="defs9725" />
  <path
     d="m 1.6410122,6.1844258 c -0.1366736,0.1444705 -0.1366736,0.1444705 -0.022777,0.2528303 0.2562713,0.2383834 0.2562713,0.2311598 0.2562713,1.155806 0,0.8813051 0,0.9029756 -0.153763,1.0763472 -0.1025083,0.1228 -0.1366735,0.2094893 -0.1025083,0.2528304 0.034174,0.043341 0.4726739,0.086682 0.9852099,0.1011293 0.9168658,0.03613 0.9282585,0.03613 1.0136783,-0.1300234 C 3.7424105,8.6549553 3.7822725,8.2287533 3.6968509,8.0987299 3.5943426,7.9398053 3.4747516,7.9686994 3.4121111,8.1637411 3.3039068,8.5393784 2.8483214,8.71275 2.7287304,8.4310186 c -0.028475,-0.079458 -0.05695,-0.5201078 -0.05695,-0.9752109 0,-0.8090628 0.0057,-0.8379569 0.1423695,-0.9535403 0.3302977,-0.274501 0.1082051,-0.4623196 -0.5580929,-0.4623196 -0.3986409,0 -0.5068392,0.021671 -0.6150443,0.144478 z"
     id="path31342"
     style="fill:#2466c4;fill-opacity:1;stroke-width:0.00641392" />
  <path
     d="m 4.1011809,6.1338541 c -0.4271093,0.1878187 -0.3815515,0.592357 0.068339,0.5851265 0.4328129,0 0.7289385,-0.4045314 0.4441987,-0.6067971 -0.142372,-0.093906 -0.2676589,-0.086682 -0.5125377,0.021671 z"
     id="path31344"
     style="fill:#2466c4;fill-opacity:1;stroke-width:0.00641392" />
  <path
     d="M 5.3654338,6.1483081 C 5.080694,6.3000022 4.9781856,6.7117571 5.1262519,7.0657238 5.1775039,7.1885307 5.1718055,7.2318719 5.0977766,7.2824366 4.9497104,7.3907964 4.9838824,7.6941985 5.1547271,7.7736573 5.2914007,7.8458925 5.3027934,7.8747866 5.2686214,8.1565181 5.2458446,8.3226661 5.1832024,8.5104848 5.120556,8.5827201 4.8244235,8.8933456 5.0977792,9.095611 5.7583779,9.059494 6.0886824,9.045039 6.225356,9.001698 6.2993891,8.9077927 6.3962016,8.7849858 6.3962016,8.7705387 6.2139633,8.5827201 6.0602072,8.416572 6.0317319,8.3371132 6.0317319,8.0770523 c 0,-0.2528304 0.017087,-0.303395 0.1138951,-0.303395 0.1252869,0 0.2505746,-0.2456069 0.2050167,-0.4045314 -0.017089,-0.057788 -0.096812,-0.1011364 -0.1765423,-0.1011364 -0.074033,0 -0.1936233,-0.057788 -0.2619605,-0.1300235 C 5.5590579,6.7839993 5.5021142,6.6467454 5.6672622,6.5672866 5.7185168,6.5456155 5.8153293,6.6034037 5.9121409,6.7189806 6.0886824,6.9284768 6.2652171,6.9573709 6.3962007,6.7912233 6.5043991,6.6611929 6.5100958,6.5889576 6.4303659,6.3939154 6.2879965,6.0688428 5.7412953,5.9388124 5.3654338,6.1483081 Z"
     id="path31346"
     style="fill:#2466c4;fill-opacity:1;stroke-width:0.00641392" />
  <path
     d="m 14.306326,6.1410846 c -0.472673,0.151694 -0.59796,0.3611833 -0.347386,0.6212442 0.119591,0.1155764 0.125288,0.1805951 0.119591,0.9390932 -0.0057,0.7223735 -0.02278,0.8307334 -0.130977,0.9752109 l -0.119591,0.1661411 0.125281,0.1155834 c 0.153762,0.1300306 0.791585,0.1589246 0.968127,0.043341 0.130977,-0.093906 0.14237,-0.2600523 0.02278,-0.3395111 -0.06834,-0.050572 -0.08543,-0.303402 -0.09681,-1.3219541 -0.01709,-1.4447609 0.01139,-1.3725187 -0.541011,-1.1991471 z"
     id="path31348"
     style="fill:#64aa43;fill-opacity:1;stroke-width:0.00641392" />
  <path
     d="m 10.376888,6.6756395 c -0.313215,0.2528373 -0.415723,0.3828608 -0.415723,0.4984442 0,0.1300304 0.03417,0.166148 0.142376,0.166148 0.136673,0 0.142369,0.014447 0.142369,0.5417784 0,0.5995806 0.09681,0.9896649 0.273348,1.1124649 0.313221,0.216713 0.990906,-0.02167 1.025071,-0.3539667 C 11.572809,8.416572 11.481689,8.3154426 11.339319,8.416572 11.134302,8.553826 11.03749,8.337114 11.054579,7.8169984 l 0.01708,-0.440649 0.227789,-0.036118 c 0.210713,-0.036118 0.227796,-0.057796 0.227796,-0.2528374 0,-0.1444705 -0.02278,-0.2094892 -0.07973,-0.1950421 -0.04555,0.014447 -0.153756,0 -0.239182,-0.02167 -0.142369,-0.043341 -0.165149,-0.079458 -0.165149,-0.2961715 0,-0.2094892 -0.01709,-0.2456138 -0.125287,-0.2383833 -0.07403,0 -0.318911,0.1589175 -0.541011,0.3395127 z"
     id="path31350"
     style="fill:#64aa43;fill-opacity:1;stroke-width:0.00641392" />
  <path
     d="M 9.146806,6.9067993 C 8.628574,6.9501483 8.480509,7.0873944 8.480509,7.549721 c 0,0.3322891 0.108204,0.5345618 0.39864,0.7368275 0.125288,0.093906 0.227796,0.2094892 0.227796,0.2600539 0,0.1589246 -0.227796,0.1011294 -0.370165,-0.093913 -0.273354,-0.3756373 -0.461282,0 -0.227796,0.4551031 C 8.600104,9.081164 8.622878,9.088388 9.118331,9.059494 9.596696,9.037814 9.636564,9.023364 9.76754,8.8355502 10.018115,8.4671365 9.915607,8.0409345 9.511276,7.7808806 9.226536,7.5930619 9.112635,7.4269139 9.220839,7.3402315 9.277789,7.2968825 9.36321,7.3330015 9.488497,7.455808 9.801712,7.75921 9.98964,7.621956 9.847269,7.1885305 9.750459,6.8995756 9.665039,6.8634579 9.146806,6.9067993 Z"
     id="path31352"
     style="fill:#64aa43;fill-opacity:1;stroke-width:0.00641392" />
  <path
     d="M 4.0784024,7.0223827 C 3.7594905,7.1451896 3.6911533,7.2896601 3.8619989,7.4919258 c 0.1708448,0.2022727 0.1708448,0.9174227 0.0057,1.1124648 -0.2562714,0.288955 -0.074029,0.4695504 0.4726671,0.4695504 0.2790508,0 0.4043376,-0.03613 0.5011493,-0.1372542 L 4.9781661,8.7994328 4.8642719,8.6405083 C 4.7674594,8.5032613 4.7446809,8.3587838 4.7332882,7.6941985 l -0.022779,-0.7873992 -0.1765415,0.00724 c -0.1025016,0 -0.3075184,0.050564 -0.4555846,0.1083529 z"
     id="path31354"
     style="fill:#2466c4;fill-opacity:1;stroke-width:0.00641392" />
  <path
     d="M 6.9429019,7.0657238 C 6.6410795,7.3330082 6.5214885,7.5858386 6.5214885,7.975923 c 0,0.881305 0.7289385,1.379742 1.3895395,0.9535403 0.381553,-0.2456069 0.37016,-0.70071 -0.01709,-0.5201148 -0.102501,0.050564 -0.239182,0.08669 -0.301822,0.08669 -0.119591,0 -0.36447,-0.2456138 -0.36447,-0.3611902 0,-0.036117 0.2221,-0.079466 0.501144,-0.08669 l 0.495453,-0.02167 0.01708,-0.274501 C 8.258403,7.5136033 8.229943,7.4413611 8.036315,7.1885307 7.825602,6.9212533 7.791437,6.9067993 7.472525,6.9067993 c -0.261967,0 -0.387248,0.036125 -0.5296244,0.1589245 z m 0.6150431,0.288955 c 0.130984,0.1661481 0.07403,0.274501 -0.130976,0.274501 -0.125287,0 -0.199321,-0.036117 -0.199321,-0.093906 0,-0.1155834 0.113895,-0.2672844 0.199321,-0.2672844 0.03416,0 0.09112,0.036125 0.130976,0.086689 z"
     id="path31356"
     style="fill:#2466c4;fill-opacity:1;stroke-width:0.00641392" />
  <path
     d="m 11.743649,6.9790415 c -0.159453,0.079458 -0.170844,0.2456069 -0.02278,0.3756373 0.13668,0.1227999 0.689077,1.5242198 0.689077,1.7481562 0,0.267277 -0.09681,0.288948 -0.199321,0.04334 -0.153765,-0.3756375 -0.541013,-0.2672776 -0.541013,0.151701 0,0.411755 0.48406,0.635691 0.854226,0.390084 0.256271,-0.166148 0.42142,-0.505668 0.677684,-1.3725186 0.176542,-0.5995736 0.27905,-0.8379639 0.415724,-0.9824344 0.26196,-0.2745079 0.193624,-0.4262089 -0.199321,-0.4262089 -0.375856,0 -0.478364,0.1083598 -0.375856,0.3900843 0.07404,0.2022727 0,0.5490089 -0.113894,0.5490089 -0.102508,0 -0.187934,-0.303395 -0.153763,-0.5273313 0.05125,-0.3395197 -0.03986,-0.4117619 -0.501149,-0.4045314 -0.222093,0 -0.461281,0.028894 -0.529618,0.065012 z"
     id="path31358"
     style="fill:#64aa43;fill-opacity:1;stroke-width:0.00641392" />
  <path
     d="m 15.57058,7.0440532 c -0.301829,0.2383834 -0.387249,0.4189785 -0.415723,0.8740815 -0.02848,0.5128843 0.108204,0.8596275 0.410026,1.0402227 0.398641,0.2383836 1.110497,0.050565 1.201613,-0.3250727 C 16.823436,8.4093485 16.715246,8.3082191 16.5387,8.4093485 16.299518,8.5466024 16.088811,8.5104848 15.940746,8.3154425 15.775596,8.0987298 15.815458,8.0698287 16.39633,8.0481581 l 0.427111,-0.02167 0.01709,-0.274501 C 16.857621,7.5136033 16.829141,7.4413611 16.635516,7.1885307 16.42481,6.9212533 16.390638,6.9067993 16.077423,6.9067993 c -0.227796,0 -0.392945,0.043349 -0.506839,0.1372539 z m 0.620734,0.3395197 c 0.06265,0.2094892 0.03417,0.2456069 -0.165149,0.2456069 -0.20501,0 -0.261962,-0.1083529 -0.130977,-0.274501 0.09681,-0.1228069 0.256265,-0.1083599 0.296126,0.028894 z"
     id="path31360"
     style="fill:#64aa43;fill-opacity:1;stroke-width:0.00641392" />
  <path
     d="m 3.383635,9.919121 c -0.4385028,0.01445 -0.8542254,0.03612 -0.9225626,0.05779 -0.1708456,0.05057 -0.1708456,0.274507 -0.0057,0.411754 0.119591,0.101137 0.1252869,0.158925 0.1252869,1.069124 0,0.902975 -0.0057,0.960764 -0.1252869,1.083564 -0.068339,0.07224 -0.1252877,0.180595 -0.1252877,0.23839 0,0.08668 0.1765415,0.108353 1.0421536,0.137247 1.1560759,0.04335 1.1219047,0.0578 1.2471916,-0.469543 0.096812,-0.404532 -0.079729,-0.707934 -0.2505746,-0.447873 -0.2904357,0.455097 -0.318911,0.476767 -0.6606013,0.455097 l -0.3246003,-0.02167 v -0.397307 c 0,-0.346743 0.011388,-0.397308 0.1138951,-0.397308 0.068339,0 0.1423695,0.07946 0.1879273,0.195042 0.1594589,0.418978 0.353083,0.137254 0.353083,-0.512891 0,-0.187819 -0.034174,-0.404532 -0.079727,-0.476767 -0.091116,-0.158924 -0.2619613,-0.101136 -0.2619613,0.09391 0,0.180595 -0.1309836,0.317849 -0.2505746,0.260061 -0.119591,-0.0578 -0.1708448,-0.332296 -0.1081983,-0.585126 0.045554,-0.180596 0.08542,-0.202267 0.313215,-0.223944 0.2277893,-0.02167 0.2904366,0.0072 0.4669713,0.209489 0.1195978,0.130031 0.2391888,0.209497 0.2904425,0.180595 C 4.5966549,10.692075 4.4485907,9.839669 4.2492678,9.88301 4.2094038,9.89021 3.8221585,9.9119 3.3836557,9.91913 Z"
     id="path31362"
     style="fill:#2466c4;fill-opacity:1;stroke-width:0.00641392" />
  <path
     d="m 4.8244235,10.887108 c -0.1480603,0.10836 -0.1252809,0.252831 0.05695,0.353967 0.085426,0.04335 0.2107076,0.180596 0.2847407,0.296172 l 0.1309828,0.209489 -0.1765407,0.404532 c -0.1025032,0.223942 -0.2448795,0.426209 -0.3189127,0.462326 -0.2619613,0.130031 -0.1081983,0.36119 0.2391888,0.36119 0.2562637,0 0.3872482,-0.122807 0.3075183,-0.288955 -0.051252,-0.101129 0.074029,-0.505661 0.159453,-0.505661 0.022777,0 0.074029,0.06501 0.113901,0.151695 0.062641,0.13003 0.062641,0.173371 -0.017087,0.281731 -0.085419,0.115576 -0.085419,0.137254 0,0.245607 0.1082052,0.137254 0.8713149,0.166148 1.0592431,0.04335 0.1480636,-0.108354 0.136671,-0.187819 -0.074036,-0.455097 -0.2904366,-0.368413 -0.3644697,-0.592349 -0.273354,-0.809063 0.091116,-0.216712 0.2505746,-0.440648 0.3758624,-0.527338 0.06264,-0.04334 0.085419,-0.115576 0.06264,-0.187818 -0.028475,-0.101129 -0.1025083,-0.115576 -0.3359944,-0.101129 l -0.3018284,0.02167 v 0.25283 c 0,0.173371 -0.028467,0.252831 -0.08542,0.252831 -0.051252,0 -0.085426,-0.06501 -0.085426,-0.180595 0,-0.325066 -0.06264,-0.361184 -0.5580938,-0.361184 -0.2562637,0 -0.512535,0.03612 -0.5637888,0.07946 z"
     id="path31364"
     style="fill:#2466c4;fill-opacity:1;stroke-width:0.00641392" />
  <path
     d="m 7.210559,10.908779 c -0.113894,0.05779 -0.2505677,0.137254 -0.2961264,0.187818 -0.119591,0.130031 -0.1082043,0.346744 0.028467,0.397309 0.1025084,0.04334 0.1139014,0.10836 0.1139014,0.758497 0,0.635692 -0.01139,0.729605 -0.1195913,0.859628 -0.074029,0.08669 -0.1082043,0.187819 -0.085426,0.260061 0.085426,0.296172 0.9510383,0.455096 1.1446623,0.20949 0.08543,-0.10836 0.08543,-0.130031 -0.02278,-0.274508 -0.06834,-0.08668 -0.119591,-0.216714 -0.119591,-0.274502 0,-0.101136 0.05125,-0.115583 0.301829,-0.08668 0.375856,0.05056 0.62643,-0.137254 0.780193,-0.57068 0.187928,-0.512891 0.11959,-1.069123 -0.176542,-1.415866 -0.148066,-0.173372 -0.54101,-0.20949 -0.751717,-0.07223 -0.09112,0.06501 -0.125288,0.06501 -0.14237,0 -0.02848,-0.10836 -0.387255,-0.09391 -0.654912,0.02167 z m 0.92257,0.577903 c 0.03986,0.05779 0.06264,0.267277 0.05125,0.491221 -0.01709,0.375637 -0.02278,0.38286 -0.187928,0.38286 -0.170845,0 -0.170845,-0.0072 -0.165149,-0.375637 0.0057,-0.209489 0.02278,-0.426209 0.04555,-0.49122 0.03986,-0.137254 0.170845,-0.137254 0.256271,-0.0072 z"
     id="path31366"
     style="fill:#2466c4;fill-opacity:1;stroke-width:0.00641392" />
  <path
     d="m 9.454325,10.901555 c -0.256264,0.115584 -0.353076,0.310626 -0.216402,0.44065 0.159458,0.151701 0.136679,0.95354 -0.02848,1.1847 l -0.130978,0.173371 0.136673,0.137254 c 0.193625,0.202266 0.90548,0.195042 1.093409,-0.0072 l 0.136679,-0.144476 -0.153762,-0.166148 c -0.165149,-0.173371 -0.261961,-0.722373 -0.165149,-0.910192 0.03986,-0.08669 0.07972,-0.07224 0.210707,0.05779 0.165149,0.166148 0.313215,0.151701 0.495452,-0.05056 0.130978,-0.144478 0.125281,-0.534562 -0.0057,-0.686263 -0.148066,-0.173371 -0.449895,-0.158924 -0.535315,0.02167 -0.03986,0.07947 -0.09112,0.144478 -0.113894,0.144478 -0.02279,0 -0.05695,-0.06501 -0.07403,-0.144478 -0.03986,-0.166148 -0.330304,-0.195042 -0.649215,-0.05056 z"
     id="path31368"
     style="fill:#2466c4;fill-opacity:1;stroke-width:0.00641392" />
  <path
     d="m 11.453213,10.95212 c -0.256264,0.202266 -0.410027,0.549009 -0.410027,0.939093 0,0.390085 0.153763,0.736828 0.410027,0.946317 0.148067,0.115584 0.261961,0.137254 0.541011,0.122807 0.421419,-0.03613 0.660602,-0.216712 0.689077,-0.527338 0.01708,-0.187819 0.01139,-0.195043 -0.142376,-0.151701 -0.398635,0.13003 -0.478365,0.13003 -0.615038,0.01445 -0.07973,-0.06501 -0.14237,-0.166148 -0.14237,-0.223936 0,-0.08668 0.09112,-0.108352 0.449889,-0.108352 0.489756,0 0.535314,-0.03613 0.529618,-0.368415 -0.0057,-0.260061 -0.159452,-0.549008 -0.358772,-0.686262 -0.233487,-0.151701 -0.723243,-0.130031 -0.951039,0.04335 z m 0.660602,0.411755 c 0.01708,0.137254 -0.0057,0.166148 -0.148066,0.166148 -0.205017,0 -0.250575,-0.05779 -0.176542,-0.231159 0.07973,-0.187819 0.301829,-0.144478 0.324608,0.06501 z"
     id="path31370"
     style="fill:#2466c4;fill-opacity:1;stroke-width:0.00641392" />
  <path
     d="m 13.13319,11.009915 c -0.290437,0.382861 -0.165149,0.902969 0.296133,1.199147 0.09681,0.06501 0.176541,0.166148 0.176541,0.223937 0,0.166148 -0.193624,0.13003 -0.34169,-0.07223 -0.176542,-0.23839 -0.341691,-0.23839 -0.341691,0.0072 0,0.202267 0.09112,0.469544 0.193624,0.549002 0.03417,0.0289 0.261961,0.0578 0.501143,0.0578 0.387248,0 0.455585,-0.02167 0.609347,-0.187818 0.341691,-0.361191 0.205017,-0.881306 -0.318911,-1.213602 -0.227789,-0.144471 -0.267657,-0.223936 -0.165148,-0.325066 0.06264,-0.06502 0.11959,-0.04334 0.25627,0.10113 0.09681,0.10836 0.222093,0.180595 0.273347,0.166148 0.136681,-0.02889 0.159459,-0.310619 0.05125,-0.534562 -0.08542,-0.158917 -0.125287,-0.173364 -0.563789,-0.173364 -0.444193,0 -0.484061,0.01444 -0.626431,0.202265 z"
     id="path31372"
     style="fill:#2466c4;fill-opacity:1;stroke-width:0.00641392" />
  <path
     d="m 14.796084,11.017139 c -0.296133,0.375637 -0.182238,0.816286 0.301822,1.20637 0.119591,0.10113 0.205017,0.20949 0.187934,0.245608 -0.06265,0.13003 -0.233492,0.07946 -0.370165,-0.108354 -0.07403,-0.101136 -0.182238,-0.180595 -0.244879,-0.180595 -0.09681,0 -0.108204,0.03612 -0.07973,0.260055 0.05695,0.447872 0.165149,0.534561 0.649215,0.534561 0.495447,0 0.711849,-0.115583 0.814358,-0.433432 0.108205,-0.339513 -0.0057,-0.614021 -0.381552,-0.881298 -0.27905,-0.202266 -0.370165,-0.353967 -0.256271,-0.447873 0.02848,-0.02167 0.14237,0.05056 0.256271,0.151694 0.113895,0.101137 0.244878,0.166148 0.296133,0.144478 0.108198,-0.05779 0.108198,-0.332296 -0.0057,-0.541786 -0.07404,-0.14447 -0.13668,-0.158917 -0.541011,-0.158917 -0.432806,0 -0.466977,0.01444 -0.626429,0.209489 z"
     id="path31374"
     style="fill:#2466c4;fill-opacity:1;stroke-width:0.00641392" />
</svg>
