<?xml version="1.0" encoding="UTF-8" standalone="no"?>
<svg
   viewBox="0 0 15.927839 5.3659849"
   width="15.927839pt"
   height="5.3659849pt"
   version="1.1"
   id="svg9721"
   xmlns="http://www.w3.org/2000/svg"
   xmlns:svg="http://www.w3.org/2000/svg">
  <defs
     id="defs9725" />
  <path
     class="st0"
     d="m 12.643413,0.06814669 c 0.07289,-0.090809 0.138627,-0.090809 0.211242,-3.186e-4 l 0.327589,0.4081628 c 0.07646,0.09527 0.08719,0.1723779 0.0072,0.2724272 L 12.854703,1.1655026 c -0.07289,0.090809 -0.138627,0.090809 -0.211242,3.186e-4 L 12.315823,0.75765839 c -0.07646,-0.09527 -0.08747,-0.172378 -0.0072,-0.2724273 z"
     id="path39445"
     style="fill:#000000;stroke-width:0.0296041" />
  <path
     class="st0"
     d="m 13.190496,1.9168281 v 3.1410381 c 0,0.146887 -0.05308,0.212844 -0.170533,0.212844 h -0.529755 c -0.123774,0 -0.182361,-0.0513 -0.182361,-0.212844 V 1.9168281 c 0,-0.1315934 0.006,-0.2179417 0.123225,-0.2179417 h 0.594392 c 0.133676,-3.187e-4 0.165032,0.02326 0.165032,0.2179417"
     id="path39447"
     style="fill:#000000;stroke-width:0.0296041" />
  <path
     class="st0"
     d="M 2.3374096,5.2707102 H 0.18841191 c -0.1234991,0 -0.18841209980103,-0.03665 -0.18841209980103,-0.235148 V 0.40366229 c 0,-0.1319121 0.053083999801,-0.204878 0.16475749980103,-0.204878 h 0.5943923 c 0.1290004,0 0.1763096,0.05098 0.1763096,0.2195349 V 4.2877412 H 2.1308441 c 0.1397278,0 0.1642071,0.08667 0.2038152,0.212844 0.040156,0.12777 0.1383519,0.426324 0.1787847,0.556962 0.040713,0.129682 -0.076188,0.213163 -0.1760344,0.213163"
     id="path39449"
     style="fill:#000000;stroke-width:0.0296041" />
  <path
     class="st0"
     d="m 4.0064378,2.4613642 c -0.4356856,0 -0.5767885,0.469339 -0.5767885,1.004954 0,0.542623 0.1237752,1.034267 0.5589104,1.034267 0.4356856,0 0.5767885,-0.484315 0.5767885,-1.01961 2.752e-4,-0.542625 -0.1234991,-1.019611 -0.5589104,-1.019611 m -0.029431,2.904297 c -0.9943207,0 -1.4591622,-0.799438 -1.4591622,-1.892015 0,-1.0782383 0.5470831,-1.8776768 1.5004206,-1.8776768 0.9943208,0 1.4594366,0.7994385 1.4594366,1.8920148 0,1.078557 -0.5476326,1.877677 -1.500695,1.877677"
     id="path39451"
     style="fill:#000000;stroke-width:0.0296041" />
  <path
     class="st0"
     d="m 8.3751231,5.2707102 h -0.541306 c -0.1235,0 -0.170809,-0.08093 -0.170809,-0.220173 v -1.950961 c 0,-0.308113 -0.06464,-0.5133099 -0.335291,-0.5133099 -0.193913,0 -0.43541,0.1099269 -0.599893,0.2858089 v 2.185472 c 0,0.13956 -0.04703,0.212844 -0.165032,0.212844 h -0.553134 c -0.09985,0 -0.1647582,-0.06627 -0.1647582,-0.198506 V 1.9117301 c 0,-0.1395592 0.04126,-0.2128437 0.1705332,-0.2128437 h 0.482446 c 0.08802,0 0.15293,0.029632 0.164757,0.1538975 L 6.6747461,2.007 c 0.270654,-0.2644616 0.594118,-0.410712 0.941236,-0.410712 0.647477,0 0.929958,0.5056632 0.929958,1.3051012 v 2.14883 c 0,0.146888 -0.04098,0.220491 -0.170809,0.220491"
     id="path39453"
     style="fill:#000000;stroke-width:0.0296041" />
  <path
     class="st0"
     d="m 10.861062,2.7108502 c -0.105621,-0.124903 -0.294033,-0.2351481 -0.464566,-0.2351481 -0.4293599,0 -0.5649609,0.5649281 -0.5649609,1.0049541 0,0.454683 0.09984,0.990297 0.5470829,0.990297 0.170807,0 0.38865,-0.139559 0.482444,-0.264143 z m 0.723668,2.55986 h -0.493997 c -0.10012,0 -0.147429,-0.06627 -0.153206,-0.147207 l -0.01211,-0.153897 c -0.147154,0.19755 -0.464566,0.396055 -0.747046,0.396055 -0.8529429,0 -1.2652499,-0.821424 -1.2652499,-1.818731 0,-0.9756392 0.417808,-1.9582892 1.2886289,-1.9582892 0.259101,0 0.500048,0.1099267 0.658755,0.2934567 V 0.35204449 c 0,-0.1315935 0.02943,-0.204878 0.141377,-0.2268634 l 0.576789,-0.095588 c 0.01156,0 0.03521,-0.00733 0.04703,-0.00733 0.08224,0 0.117448,0.058946 0.117448,0.1615445 V 5.0648752 c 5.5e-4,0.147206 -0.07014,0.205834 -0.158431,0.205834"
     id="path39455"
     style="fill:#000000;stroke-width:0.0296041" />
  <path
     class="st0"
     d="m 14.745651,5.3659802 c -0.311911,0 -0.659029,-0.102599 -0.982767,-0.271472 -0.06464,-0.02931 -0.08224,-0.08061 -0.08224,-0.131594 0,-0.02963 0.006,-0.05895 0.01183,-0.08826 l 0.117723,-0.46233 c 0.02338,-0.09495 0.04703,-0.131912 0.08802,-0.131912 0.02365,0 0.05308,0.0073 0.09434,0.02931 0.288257,0.146888 0.564686,0.227182 0.776753,0.227182 0.188412,0 0.317687,-0.09527 0.317687,-0.256814 0,-0.139241 -0.05886,-0.212525 -0.276429,-0.315761 l -0.52371,-0.241519 c -0.317685,-0.146885 -0.600165,-0.498969 -0.600165,-1.026936 0,-0.7847813 0.600168,-1.1002234 1.123871,-1.1002234 0.30586,0 0.61172,0.058946 0.923632,0.2345104 0.05308,0.029314 0.08252,0.066593 0.08252,0.1249023 0,0.022305 -0.006,0.051618 -0.01183,0.080932 l -0.123769,0.5129913 c -0.01183,0.058947 -0.05308,0.08826 -0.09985,0.08826 -0.01788,0 -0.04154,-0.0073 -0.06491,-0.01497 -0.223344,-0.1025999 -0.464842,-0.1758849 -0.653254,-0.1758849 -0.194188,0 -0.282756,0.1319123 -0.282756,0.2351489 0,0.08794 0.02394,0.183211 0.223619,0.278482 l 0.594118,0.293456 c 0.300083,0.146888 0.529753,0.455002 0.529753,0.946327 5.5e-4,0.842772 -0.599618,1.166179 -1.182182,1.166179"
     id="path39457"
     style="fill:#000000;stroke-width:0.0296041" />
</svg>
