<?xml version="1.0" encoding="UTF-8" standalone="no"?>
<svg
   viewBox="0 0 18.040001 21.999998"
   width="18.040001pt"
   height="21.999998pt"
   version="1.1"
   id="svg9721"
   xmlns="http://www.w3.org/2000/svg"
   xmlns:svg="http://www.w3.org/2000/svg">
  <defs
     id="defs9725" />
  <g
     id="g40977"
     transform="matrix(0.12336863,0,0,0.12897051,-3.2457638,-5.2421476)">
    <g
       aria-label="MACE"
       transform="matrix(0.26458333,0,0,0.26458333,44.779639,0.76546392)"
       id="text40407"
       style="font-size:192px;font-family:'Franklin Gothic Demi';-inkscape-font-specification:'Franklin Gothic Demi';white-space:pre;shape-inside:url(#rect40409);fill:#ffffff;fill-opacity:1">
      <path
         d="m 24.53125,483.1454 -31.5,-104.34375 V 483.1454 h -25.125 V 355.17665 h 46.6875 L 37,431.7704 60.625,355.17665 h 46.78125 V 483.1454 H 77.21875 V 378.80165 L 45.0625,483.1454 Z"
         id="path40490"
         style="fill:#ffffff;fill-opacity:1" />
      <path
         d="m 196,355.17665 40.03125,127.96875 h -32.25 L 196,456.80165 H 154.5625 L 146.5,483.1454 h -26.25 l 40.96875,-127.96875 z m -34.21875,78 h 27.1875 L 175.375,388.2704 Z"
         id="path40487"
         style="fill:#ffffff;fill-opacity:1" />
      <path
         d="m 348.8125,402.80165 -31.40625,1.96875 Q 316.75,377.67665 296.3125,377.67665 q -23.4375,0 -23.4375,41.71875 0,24.09375 6.375,32.71875 6.375,8.53125 17.8125,8.53125 18.5625,0 22.6875,-24.1875 l 29.0625,1.78125 Q 346,461.2079 331.65625,473.2079 q -14.25,11.90625 -34.96875,11.90625 -25.40625,0 -41.34375,-17.53125 Q 239.5,450.05165 239.5,419.11415 q 0,-28.96875 15.375,-47.4375 15.375,-18.46875 42,-18.46875 46.125,0 51.9375,49.59375 z"
         id="path40484"
         style="fill:#ffffff;fill-opacity:1" />
      <path
         d="M 457.46875,379.55165 H 396.4375 v 26.25 h 48 v 24.09375 h -48 v 27.9375 h 61.03125 v 25.3125 h -91.5 V 355.17665 h 91.5 z"
         id="path40481"
         style="fill:#ffffff;fill-opacity:1" />
    </g>
  </g>
</svg>
