<?xml version="1.0" encoding="UTF-8" standalone="no"?>
<svg
   width="1083"
   height="164"
   viewBox="0 0 1083 164"
   fill="none"
   version="1.1"
   id="svg6"
   sodipodi:docname="morrisons-daily.svg"
   inkscape:export-filename="..\Documents\GitHub\MapIcons\brands_2023\supermarkets\morrisons-daily.svg"
   inkscape:export-xdpi="4.6799998"
   inkscape:export-ydpi="4.6799998"
   xmlns:inkscape="http://www.inkscape.org/namespaces/inkscape"
   xmlns:sodipodi="http://sodipodi.sourceforge.net/DTD/sodipodi-0.dtd"
   xmlns="http://www.w3.org/2000/svg"
   xmlns:svg="http://www.w3.org/2000/svg">
  <defs
     id="defs10" />
  <sodipodi:namedview
     id="namedview8"
     pagecolor="#ffffff"
     bordercolor="#000000"
     borderopacity="0.25"
     inkscape:showpageshadow="2"
     inkscape:pageopacity="0.0"
     inkscape:pagecheckerboard="0"
     inkscape:deskcolor="#d1d1d1"
     showgrid="false" />
  <path
     d="M 19.405628,7.5314216 19.58316,8 C 19.858703,7.7120195 20.12315,7.0628432 20.350612,5.7400854 20.491158,4.9249542 20.672387,3.6851739 20.799988,2.4405125 H 20.53554 c -0.08877,0.9371568 -0.238557,2.0256254 -0.364308,2.7675412 h -0.0055 C 20.034385,4.4514948 19.884593,3.4996949 19.766239,2.4405125 h -0.275544 c 0.140546,1.2104942 0.327324,2.4258694 0.539991,3.5582672 -0.173833,0.8297743 -0.393897,1.2885906 -0.625058,1.5326419 z M 19.241042,5.1348383 V 0.35143429 H 18.96365 V 5.2324588 c 0,0.7028676 0.183079,0.9420378 0.275543,1.0103722 L 19.42782,5.7449664 C 19.3409,5.7010372 19.241042,5.471629 19.241042,5.1348383 Z M 18.582697,2.4405125 h -0.281091 v 3.6558877 h 0.281091 z M 18.44585,1.7327639 c 0.09246,0 0.164586,-0.200122 0.164586,-0.4441733 0,-0.2440512 -0.07397,-0.44417327 -0.164586,-0.44417327 -0.09431,0 -0.171983,0.20012207 -0.171983,0.44417327 0.0018,0.2391702 0.07767,0.4441733 0.171983,0.4441733 z m -1.111419,3.8316046 c -0.125751,0 -0.205271,-0.2342892 -0.205271,-0.4929835 0,-0.2684564 0.07027,-0.5466748 0.247804,-0.590604 l 0.266297,-0.063453 v 0.3221477 c 0,0.4929835 -0.144244,0.8248932 -0.30883,0.8248928 z M 17.920654,5.1494814 V 3.6754118 c 0,-0.8639414 -0.223764,-1.3227577 -0.532594,-1.3227577 -0.168285,0 -0.327323,0.097621 -0.453074,0.3123856 l 0.05548,0.6052471 c 0.101711,-0.1757169 0.244106,-0.2879805 0.382802,-0.2879805 0.196024,0 0.268146,0.2684564 0.268146,0.595485 v 0.2342892 l -0.323625,0.082978 c -0.234859,0.058572 -0.454923,0.4588163 -0.454923,1.171446 0,0.590604 0.171983,1.1226357 0.445677,1.1226357 0.159038,0 0.305132,-0.1464307 0.369857,-0.5710799 0.02219,0.3075046 0.125751,0.5173886 0.220064,0.5710799 l 0.177532,-0.4685784 c -0.08877,-0.043929 -0.15534,-0.2391702 -0.15534,-0.5710799 z M 15.527681,5.4423429 H 15.279877 V 1.6205003 h 0.247804 c 0.44013,0 0.804438,0.6052471 0.804438,1.9133618 0,1.3032337 -0.364308,1.9084808 -0.804438,1.9084808 z m 0.05178,-4.49542405 H 14.980293 V 6.0915192 h 0.599168 c 0.543689,0 1.054092,-0.9127517 1.054092,-2.5723002 0,-1.6595485 -0.510403,-2.57230015 -1.054092,-2.57230015 z"
     fill="#fcbc00"
     id="path2"
     style="stroke-width:0.0300439" />
  <path
     d="m 13.783807,3.5436242 c 0.251502,0.200122 0.499306,0.5320317 0.499306,1.2885906 v 0.014643 c 0,0.8444174 -0.245954,1.3227578 -0.656495,1.3227578 -0.236709,0 -0.429034,-0.2147651 -0.636154,-0.6052471 -0.0055,-0.00976 -0.0092,-0.024405 -0.0092,-0.043929 0,-0.014643 0.0018,-0.024405 0.0037,-0.034167 l 0.18123,-0.7370348 c 0.0037,-0.014643 0.0092,-0.024405 0.01664,-0.024405 0.0037,0 0.0074,0.00488 0.01109,0.00976 h 0.0019 c 0.173832,0.2977425 0.305131,0.4344112 0.462321,0.4441732 0.107258,0.00488 0.164586,-0.082977 0.170134,-0.2440512 v -0.014643 c -0.0018,-0.200122 -0.06657,-0.2928615 -0.229311,-0.4246492 -0.02034,-0.014643 -0.04253,-0.029286 -0.06473,-0.04881 -0.266297,-0.19036 -0.503005,-0.4978646 -0.503005,-1.2788286 v -0.014643 c 0,-0.7907261 0.242256,-1.2739476 0.619509,-1.2739476 0.190477,0 0.364309,0.1415498 0.536293,0.385601 0.0074,0.00976 0.01109,0.029286 0.01109,0.04881 0,0.00976 0,0.019524 -0.0018,0.024405 l -0.164586,0.7516778 c -0.0037,0.019524 -0.0111,0.029286 -0.01849,0.029286 -0.0037,0 -0.0074,0 -0.0092,-0.00488 h -0.0018 C 13.848759,2.90909 13.748897,2.8261126 13.641639,2.8212316 c -0.09062,-0.00488 -0.159038,0.097621 -0.159038,0.2586943 v 0.014643 c 0,0.1903599 0.09431,0.2733374 0.247804,0.400244 0.01849,0.019524 0.03698,0.034167 0.05363,0.04881 z M 8.7685503,3.5241001 c 0.2515026,0.200122 0.4993065,0.5320317 0.4993065,1.2885906 v 0.014643 c 0,0.8444174 -0.2459547,1.3227578 -0.6564956,1.3227578 -0.2367082,0 -0.4290337,-0.2147651 -0.6361535,-0.6052471 -0.00555,-0.00976 -0.00925,-0.024405 -0.00925,-0.043929 0,-0.014643 0.00185,-0.024405 0.0037,-0.034167 l 0.181232,-0.7370348 c 0.0037,-0.014643 0.00925,-0.024405 0.016643,-0.024405 0.0037,0 0.0074,0.00488 0.011096,0.00976 h 0.00185 C 8.3543113,5.0128127 8.4856105,5.1494814 8.6427995,5.1592434 8.750058,5.1641245 8.8073858,5.076266 8.8129336,4.9151922 V 4.9005491 C 8.8110836,4.7004271 8.7445106,4.6076876 8.5836225,4.4758999 8.5632805,4.4612569 8.5410895,4.4466138 8.5188975,4.4270897 8.2526003,4.2367297 8.015892,3.9292251 8.015892,3.1482611 v -0.014643 c 0,-0.7907261 0.2422561,-1.2739476 0.6195099,-1.2739476 0.1904762,0 0.3643088,0.1415498 0.5362922,0.385601 0.0074,0.00976 0.011096,0.029286 0.011096,0.04881 0,0.00976 0,0.019524 -0.00185,0.024405 L 9.0163543,3.0701647 c -0.0037,0.019524 -0.011096,0.029286 -0.018493,0.029286 -0.0037,0 -0.0074,0 -0.00925,-0.00488 h -0.00185 C 8.8332707,2.8895668 8.7334094,2.8065894 8.626151,2.8017084 c -0.090615,0 -0.1590384,0.097621 -0.1590384,0.2586943 v 0.014643 c 0,0.1903599 0.094314,0.2733374 0.247804,0.400244 0.018493,0.019524 0.036986,0.034167 0.053629,0.04881 z M 6.5993409,6.1012813 H 6.1869507 c -0.011096,0 -0.020342,-0.024405 -0.020342,-0.053691 V 2.0597926 c 0,-0.029286 0.00925,-0.053691 0.020342,-0.053691 h 0.3975959 c 0.011096,0 0.020342,0.024405 0.020342,0.053691 V 2.5576571 C 6.7065993,2.1818182 6.8619391,1.95241 7.0246761,1.95241 c 0.022191,0 0.044383,0.00488 0.057328,0.00976 0.011096,0.00488 0.018493,0.029286 0.018493,0.053691 v 1.0738255 c 0,0.014643 -0.00185,0.029286 -0.0074,0.039048 -0.0037,0.00976 -0.011096,0.014643 -0.016644,0.014643 -0.011096,-0.00488 -0.038835,-0.00976 -0.072122,-0.00976 -0.1294499,0 -0.2921868,0.1903599 -0.3550624,0.7272727 -0.020342,0.1659548 -0.029589,0.3563148 -0.029589,0.590604 V 6.042709 c 0.00185,0.029286 -0.0074,0.058572 -0.020342,0.058572 z m -1.148405,0 H 5.0385457 c -0.011096,0 -0.020342,-0.024405 -0.020342,-0.053691 V 2.0597926 c 0,-0.029286 0.00925,-0.053691 0.020342,-0.053691 h 0.397596 c 0.011096,0 0.020342,0.024405 0.020342,0.053691 V 2.5576571 C 5.5581944,2.1818182 5.7135342,1.95241 5.8762711,1.95241 c 0.022191,0 0.044383,0.00488 0.057328,0.00976 0.011096,0.00488 0.018493,0.029286 0.018493,0.053691 v 1.0738255 c 0,0.014643 -0.00185,0.029286 -0.0074,0.039048 -0.0037,0.00976 -0.011096,0.014643 -0.016644,0.014643 -0.011096,-0.00488 -0.038835,-0.00976 -0.072122,-0.00976 -0.1294498,0 -0.2921868,0.1903599 -0.3550624,0.7272727 -0.020342,0.1659548 -0.029589,0.3563148 -0.029589,0.590604 V 6.042709 c 0,0.029286 -0.00925,0.058572 -0.020342,0.058572 z m -2.5815996,0 H 2.4532476 c -0.011096,0 -0.020342,-0.024405 -0.020342,-0.053691 0,-1.2544234 -0.036986,-2.6845638 -0.049931,-3.118975 -0.149792,0.5222697 -0.2903375,1.2300183 -0.4012945,1.9133618 -0.0037,0.019524 -0.011096,0.034167 -0.018493,0.034167 h -0.234859 c -0.00925,0 -0.016644,-0.014643 -0.018493,-0.034167 C 1.5988786,4.1586333 1.4583331,3.4508847 1.3085412,2.928615 1.2955962,3.3679073 1.2586102,4.7931666 1.2586102,6.04759 c 0,0.029286 -0.00925,0.053691 -0.020342,0.053691 H 0.82033015 c -0.0110957,0 -0.0203421,-0.024405 -0.0203421,-0.053691 0,-1.7034777 0.0480814,-3.9341062 0.15349056,-5.08602807 0.001849,-0.0244051 0.0110957,-0.0439292 0.0203423,-0.0439292 H 1.3029933 c 0.00555,0 0.011096,0.004881 0.014794,0.0195241 C 1.5304549,1.5716901 1.7116846,2.2745577 1.844833,2.9725442 1.9779814,2.2745577 2.1592112,1.5716901 2.3718788,0.93715683 c 0.0037,-0.009762 0.00925,-0.0195241 0.014794,-0.0195241 h 0.3291724 c 0.00925,0 0.018493,0.0195241 0.020342,0.0439292 C 2.8415964,2.1134838 2.8896777,4.3441123 2.8896777,6.04759 c 0.00185,0.024405 -0.0074,0.053691 -0.020341,0.053691 z m 9.9047617,0 h -0.408692 c -0.0111,0 -0.02034,-0.024405 -0.02034,-0.053691 V 3.699817 c 0,-0.4929836 -0.04993,-0.6687005 -0.186777,-0.6687005 -0.164586,0 -0.299584,0.2684564 -0.349515,0.7028676 -0.01664,0.1269067 -0.02404,0.2830995 -0.02404,0.4783405 V 6.04759 c 0,0.029286 -0.0092,0.053691 -0.02034,0.053691 h -0.41239 c -0.01109,0 -0.02034,-0.024405 -0.02034,-0.053691 V 2.0597926 c 0,-0.029286 0.0092,-0.053691 0.02034,-0.053691 H 11.7496 c 0.0111,0 0.02034,0.024405 0.02034,0.053691 v 0.400244 c 0.08137,-0.2440512 0.23301,-0.5417938 0.473417,-0.5417938 0.366158,0 0.552936,0.5320318 0.552936,1.5863332 v 2.547895 c -0.0019,0.019524 -0.0111,0.04881 -0.02219,0.04881 z m -2.492834,0.087858 c -0.4845121,0 -0.8506702,-0.9176327 -0.8506702,-2.1378889 0,-1.2202563 0.3643088,-2.137889 0.8469722,-2.137889 0.484512,0 0.85067,0.9176327 0.85067,2.137889 0,1.2202562 -0.364309,2.1378889 -0.846972,2.1378889 z m 0,-3.2214765 c -0.223763,0 -0.392048,0.4685784 -0.392048,1.0835876 0,0.6198901 0.168285,1.0835875 0.392048,1.0835875 0.221914,0 0.38835,-0.4685784 0.38835,-1.0835875 0,-0.6198902 -0.168285,-1.0835876 -0.38835,-1.0835876 z M 7.7495952,6.1012813 H 7.337205 c -0.011096,0 -0.020342,-0.024405 -0.020342,-0.053691 V 2.0597926 c 0,-0.029286 0.00925,-0.053691 0.020342,-0.053691 h 0.4123902 c 0.011096,0 0.020342,0.024405 0.020342,0.053691 V 6.04759 c 0.00185,0.024405 -0.0074,0.053691 -0.020342,0.053691 z m -3.8002774,0.087858 c -0.4845122,0 -0.8506703,-0.9176327 -0.8506703,-2.1378889 0,-1.2202563 0.3643088,-2.137889 0.8469718,-2.137889 0.4845122,0 0.8506703,0.9176327 0.8506703,2.137889 0,1.2202562 -0.3643088,2.1378889 -0.8469718,2.1378889 z m 0,-3.2214765 c -0.2237633,0 -0.3920481,0.4685784 -0.3920481,1.0835876 0,0.6198901 0.1682848,1.0835875 0.3920481,1.0835875 0.221914,0 0.3883495,-0.4685784 0.3883495,-1.0835875 0,-0.6198902 -0.1664355,-1.0835876 -0.3883495,-1.0835876 z m 3.8705501,-2.225747 c 0,0.4100061 -0.1257512,0.7419158 -0.281091,0.7419158 -0.1553398,0 -0.2810911,-0.3319097 -0.2810911,-0.7419158 C 7.2576858,0.33191019 7.3834371,0 7.5387769,0 c 0.1553398,0 0.281091,0.33191019 0.281091,0.7419158 z"
     fill="#004e37"
     id="path4"
     style="stroke-width:0.0300439" />
</svg>
