<?xml version="1.0" encoding="UTF-8" standalone="no"?><!-- Generator: Gravit.io --><svg xmlns="http://www.w3.org/2000/svg" xmlns:xlink="http://www.w3.org/1999/xlink" style="isolation:isolate" viewBox="0 0 24 24" width="24pt" height="24pt"><defs><clipPath id="_clipPath_ixV0d0F4URb0ClDxgO7WDl9qFXs8C5ai"><rect width="24" height="24"/></clipPath></defs><g clip-path="url(#_clipPath_ixV0d0F4URb0ClDxgO7WDl9qFXs8C5ai)"><g><path d=" M 11.354 8.884 L 10.41 8.884 C 10.41 8.884 10.642 9.045 10.642 9.319 L 10.642 11.982 C 10.642 12.139 10.769 12.266 10.926 12.266 L 11.638 12.266 L 11.638 9.168 C 11.638 9.011 11.511 8.884 11.354 8.884 Z " fill-rule="evenodd" fill="rgb(40,55,149)"/><path d=" M 9.274 7.441 C 9.117 7.441 8.99 7.569 8.99 7.725 L 8.99 10.188 L 7.039 7.568 C 6.982 7.491 6.89 7.441 6.787 7.441 L 5.559 7.441 C 5.559 7.441 5.791 7.603 5.791 7.876 L 5.791 11.982 C 5.791 12.139 5.918 12.266 6.075 12.266 L 6.787 12.266 L 6.787 9.004 L 9.13 12.152 C 9.182 12.221 9.264 12.266 9.358 12.266 L 9.986 12.266 L 9.986 7.876 C 9.986 7.603 10.218 7.441 10.218 7.441" fill-rule="evenodd" fill="rgb(40,55,149)"/><clipPath id="_clipPath_UiEcwW32mjhT8LoXyiQydBH6MD1FdmpO"><path d=" M 11.905 8.517 L 14.815 8.517 L 14.815 12.358 L 11.905 12.358 L 11.905 8.517 Z " fill="rgb(255,255,255)"/></clipPath><g clip-path="url(#_clipPath_UiEcwW32mjhT8LoXyiQydBH6MD1FdmpO)"><g><path d=" M 13.823 10.081 C 13.216 9.884 12.984 9.788 12.984 9.587 C 12.984 9.421 13.203 9.277 13.535 9.277 C 13.953 9.277 14.383 9.491 14.608 9.622 L 14.492 8.87 C 14.475 8.763 14.399 8.676 14.298 8.643 C 14.115 8.584 13.858 8.53 13.535 8.53 C 12.624 8.53 12.101 9.076 12.101 9.635 C 12.101 10.195 12.469 10.527 13.037 10.728 C 13.605 10.929 13.845 11.064 13.845 11.27 C 13.845 11.436 13.721 11.571 13.212 11.571 C 12.753 11.571 12.389 11.407 12.211 11.308 L 11.928 12.044 C 12.181 12.175 12.647 12.354 13.316 12.354 C 14.372 12.354 14.793 11.768 14.793 11.209 C 14.793 10.649 14.457 10.287 13.823 10.081 Z " fill-rule="evenodd" fill="rgb(40,55,149)"/></g></g><clipPath id="_clipPath_Ua7gGnhFsoxYLswkcNhkA7Nje950R9cF"><path d=" M 14.999 8.517 L 18.329 8.517 L 18.329 12.358 L 14.999 12.358 L 14.999 8.517 Z " fill="rgb(255,255,255)"/></clipPath><g clip-path="url(#_clipPath_Ua7gGnhFsoxYLswkcNhkA7Nje950R9cF)"><g><path d=" M 15.973 11.104 C 15.973 10.772 16.297 10.623 16.734 10.623 C 16.973 10.623 17.179 10.654 17.315 10.683 L 17.315 11.294 C 17.149 11.417 16.872 11.571 16.533 11.571 C 16.199 11.571 15.973 11.436 15.973 11.104 Z  M 16.673 8.525 C 16.204 8.525 15.777 8.653 15.491 8.766 C 15.388 8.808 15.315 8.91 15.315 9.028 C 15.315 9.069 15.323 9.107 15.339 9.142 L 15.563 9.662 C 15.748 9.534 16.088 9.364 16.594 9.364 C 17.248 9.364 17.309 9.607 17.315 9.916 C 17.165 9.893 16.912 9.867 16.516 9.867 C 15.703 9.867 15.021 10.328 15.021 11.13 C 15.021 11.932 15.711 12.358 16.402 12.358 C 16.834 12.358 17.156 12.216 17.337 12.11 C 17.377 12.202 17.469 12.266 17.575 12.266 L 18.312 12.266 L 18.312 9.865 C 18.312 9.139 17.837 8.525 16.673 8.525 Z " fill-rule="evenodd" fill="rgb(40,55,149)"/></g></g><clipPath id="_clipPath_DmP4z2rN0faDoyAXUTkbhcS2N8MlLToM"><path d=" M 10.41 7.127 L 18.441 7.127 L 18.441 8.779 L 10.41 8.779 L 10.41 7.127 Z " fill="rgb(255,255,255)"/></clipPath><g clip-path="url(#_clipPath_DmP4z2rN0faDoyAXUTkbhcS2N8MlLToM)"><g><path d=" M 17.573 8.062 C 17.564 8.067 17.562 8.075 17.575 8.086 C 17.588 8.097 17.599 8.083 17.599 8.067 C 17.599 8.053 17.582 8.058 17.573 8.062 Z  M 17.641 8.097 C 17.617 8.101 17.606 8.115 17.617 8.134 C 17.628 8.154 17.678 8.168 17.676 8.139 C 17.674 8.11 17.665 8.093 17.641 8.097 Z  M 16.542 7.981 C 16.592 7.983 16.62 7.979 16.622 7.953 C 16.625 7.927 16.581 7.938 16.572 7.922 C 16.564 7.907 16.548 7.892 16.537 7.905 C 16.526 7.918 16.518 7.931 16.5 7.933 C 16.483 7.935 16.457 7.933 16.457 7.957 C 16.457 7.981 16.491 7.979 16.542 7.981 Z  M 18.272 8.652 C 18.307 8.659 18.312 8.672 18.323 8.705 C 18.333 8.737 18.353 8.746 18.388 8.753 C 18.423 8.759 18.438 8.746 18.441 8.72 C 18.443 8.694 18.423 8.659 18.406 8.657 C 18.388 8.654 18.379 8.657 18.382 8.626 C 18.384 8.595 18.347 8.584 18.325 8.587 C 18.303 8.589 18.292 8.587 18.279 8.558 C 18.266 8.53 18.24 8.539 18.229 8.558 C 18.218 8.578 18.208 8.589 18.213 8.613 C 18.22 8.643 18.237 8.646 18.272 8.652 Z  M 17.545 8.37 C 17.573 8.364 17.595 8.37 17.604 8.39 C 17.612 8.41 17.628 8.416 17.66 8.416 C 17.693 8.416 17.711 8.427 17.733 8.442 C 17.754 8.458 17.759 8.475 17.798 8.477 C 17.837 8.479 17.848 8.49 17.872 8.51 C 17.896 8.53 17.927 8.536 17.949 8.532 C 17.971 8.528 17.99 8.539 17.999 8.554 C 18.008 8.569 18.034 8.584 18.06 8.584 C 18.087 8.584 18.106 8.598 18.111 8.635 C 18.115 8.672 18.148 8.628 18.152 8.6 C 18.157 8.571 18.141 8.543 18.124 8.536 C 18.106 8.53 18.095 8.528 18.095 8.51 C 18.095 8.493 18.08 8.477 18.06 8.475 C 18.041 8.473 18.01 8.48 17.966 8.486 C 17.923 8.493 17.929 8.462 17.934 8.434 C 17.938 8.405 17.875 8.394 17.846 8.394 C 17.818 8.394 17.796 8.399 17.787 8.383 C 17.778 8.368 17.761 8.362 17.735 8.353 C 17.709 8.344 17.717 8.309 17.719 8.278 C 17.722 8.248 17.682 8.25 17.654 8.263 C 17.626 8.276 17.597 8.278 17.558 8.265 C 17.518 8.252 17.501 8.289 17.501 8.313 C 17.501 8.381 17.516 8.377 17.545 8.37 Z  M 17.962 8.344 C 17.973 8.368 17.997 8.34 18.012 8.32 C 18.028 8.3 18.023 8.285 18.008 8.267 C 17.993 8.25 17.96 8.247 17.951 8.265 C 17.938 8.292 17.951 8.32 17.962 8.344 Z  M 17.813 8.171 C 17.833 8.182 17.831 8.193 17.831 8.219 C 17.831 8.246 17.844 8.27 17.864 8.27 C 17.883 8.27 17.901 8.25 17.914 8.215 C 17.927 8.18 17.899 8.156 17.879 8.156 C 17.859 8.156 17.857 8.149 17.848 8.132 C 17.84 8.115 17.807 8.094 17.794 8.11 C 17.781 8.125 17.794 8.16 17.813 8.171 Z  M 11.503 8.495 C 11.503 8.495 11.175 8.665 10.904 8.665 C 10.633 8.665 10.432 8.591 10.432 8.421 C 10.432 8.25 10.646 7.997 10.921 7.826 C 11.197 7.656 12.329 7.127 13.915 7.127 C 15.218 7.127 16 7.302 16.738 7.568 C 16.809 7.594 16.848 7.66 16.848 7.66 C 16.848 7.66 16.917 7.656 16.961 7.66 C 17.005 7.664 17.022 7.708 17.022 7.708 C 17.022 7.708 17.084 7.699 17.123 7.726 C 17.162 7.752 17.162 7.804 17.21 7.813 C 17.258 7.822 17.341 7.822 17.341 7.87 C 17.341 7.87 17.433 7.883 17.433 7.922 C 17.433 7.922 17.512 7.948 17.534 7.983 C 17.556 8.018 17.564 8.023 17.604 8.023 C 17.643 8.023 17.682 8.04 17.7 8.08 C 17.717 8.119 17.739 8.185 17.717 8.202 C 17.695 8.219 17.582 8.202 17.569 8.176 C 17.556 8.149 17.538 8.136 17.507 8.154 C 17.477 8.171 17.424 8.136 17.372 8.141 C 17.32 8.145 17.223 8.171 17.193 8.128 C 17.162 8.084 17.101 8.023 17.04 8.031 C 16.979 8.04 16.891 8.071 16.87 8.049 C 16.848 8.027 16.869 7.953 16.826 7.975 C 16.782 7.997 16.786 8.049 16.752 8.049 C 16.716 8.049 16.568 8.045 16.524 8.049 C 16.48 8.053 16.419 8.036 16.393 8.014 C 16.367 7.992 16.323 8.01 16.293 7.979 C 16.262 7.949 16.236 7.927 16.201 7.931 C 16.166 7.935 16.148 7.887 16.109 7.892 C 16.07 7.896 16.044 7.922 15.969 7.927 C 15.895 7.931 15.681 7.931 15.593 7.927 C 15.506 7.922 15.244 7.879 15.06 7.879 C 14.877 7.879 14.667 7.892 14.501 7.905 C 14.335 7.918 13.95 7.935 13.771 7.931 C 13.592 7.927 13.5 7.927 13.434 7.953 C 13.369 7.979 13.26 7.992 13.163 7.983 C 13.067 7.975 12.971 7.992 12.875 8.031 C 12.779 8.071 12.359 8.224 12.25 8.272 C 12.141 8.32 11.988 8.333 11.861 8.307 C 11.734 8.281 11.647 8.272 11.625 8.303 C 11.603 8.333 11.59 8.351 11.538 8.351 C 11.485 8.351 11.389 8.421 11.503 8.495 Z " fill-rule="evenodd" fill="rgb(255,221,0)"/></g></g></g></g></svg>