<?xml version="1.0" encoding="UTF-8" standalone="no"?>
<!-- Generator: Gravit.io -->

<svg
   style="isolation:isolate"
   viewBox="0 0 12.881999 5.2309999"
   width="12.881999pt"
   height="5.2309999pt"
   version="1.1"
   id="svg11"
   xmlns="http://www.w3.org/2000/svg"
   xmlns:svg="http://www.w3.org/2000/svg">
  <defs
     id="defs1">
    <clipPath
       id="_clipPath_ixV0d0F4URb0ClDxgO7WDl9qFXs8C5ai">
      <rect
         width="24"
         height="24"
         id="rect1"
         x="0"
         y="0" />
    </clipPath>
  </defs>
  <g
     clip-path="url(#_clipPath_ixV0d0F4URb0ClDxgO7WDl9qFXs8C5ai)"
     id="g11"
     transform="translate(-5.559,-7.1269999)">
    <g
       id="g10">
      <path
         d="M 11.354,8.884 H 10.41 c 0,0 0.232,0.161 0.232,0.435 v 2.663 c 0,0.157 0.127,0.284 0.284,0.284 h 0.712 V 9.168 c 0,-0.157 -0.127,-0.284 -0.284,-0.284 z"
         fill-rule="evenodd"
         fill="rgb(40,55,149)"
         id="path1"
         style="fill:#ffffff" />
      <path
         d="M 9.274,7.441 C 9.117,7.441 8.99,7.569 8.99,7.725 v 2.463 L 7.039,7.568 C 6.982,7.491 6.89,7.441 6.787,7.441 H 5.559 c 0,0 0.232,0.162 0.232,0.435 v 4.106 c 0,0.157 0.127,0.284 0.284,0.284 H 6.787 V 9.004 l 2.343,3.148 c 0.052,0.069 0.134,0.114 0.228,0.114 h 0.628 v -4.39 c 0,-0.273 0.232,-0.435 0.232,-0.435"
         fill-rule="evenodd"
         fill="rgb(40,55,149)"
         id="path2"
         style="fill:#ffffff" />
      <clipPath
         id="_clipPath_UiEcwW32mjhT8LoXyiQydBH6MD1FdmpO">
        <path
           d="m 11.905,8.517 h 2.91 v 3.841 h -2.91 z"
           fill="#ffffff"
           id="path3" />
      </clipPath>
      <g
         clip-path="url(#_clipPath_UiEcwW32mjhT8LoXyiQydBH6MD1FdmpO)"
         id="g5">
        <g
           id="g4">
          <path
             d="M 13.823,10.081 C 13.216,9.884 12.984,9.788 12.984,9.587 c 0,-0.166 0.219,-0.31 0.551,-0.31 0.418,0 0.848,0.214 1.073,0.345 L 14.492,8.87 C 14.475,8.763 14.399,8.676 14.298,8.643 14.115,8.584 13.858,8.53 13.535,8.53 c -0.911,0 -1.434,0.546 -1.434,1.105 0,0.56 0.368,0.892 0.936,1.093 0.568,0.201 0.808,0.336 0.808,0.542 0,0.166 -0.124,0.301 -0.633,0.301 -0.459,0 -0.823,-0.164 -1.001,-0.263 l -0.283,0.736 c 0.253,0.131 0.719,0.31 1.388,0.31 1.056,0 1.477,-0.586 1.477,-1.145 0,-0.56 -0.336,-0.922 -0.97,-1.128 z"
             fill-rule="evenodd"
             fill="rgb(40,55,149)"
             id="path4"
             style="fill:#ffffff" />
        </g>
      </g>
      <clipPath
         id="_clipPath_Ua7gGnhFsoxYLswkcNhkA7Nje950R9cF">
        <path
           d="m 14.999,8.517 h 3.33 v 3.841 h -3.33 z"
           fill="#ffffff"
           id="path5" />
      </clipPath>
      <g
         clip-path="url(#_clipPath_Ua7gGnhFsoxYLswkcNhkA7Nje950R9cF)"
         id="g7">
        <g
           id="g6">
          <path
             d="m 15.973,11.104 c 0,-0.332 0.324,-0.481 0.761,-0.481 0.239,0 0.445,0.031 0.581,0.06 v 0.611 c -0.166,0.123 -0.443,0.277 -0.782,0.277 -0.334,0 -0.56,-0.135 -0.56,-0.467 z m 0.7,-2.579 c -0.469,0 -0.896,0.128 -1.182,0.241 -0.103,0.042 -0.176,0.144 -0.176,0.262 0,0.041 0.008,0.079 0.024,0.114 l 0.224,0.52 c 0.185,-0.128 0.525,-0.298 1.031,-0.298 0.654,0 0.715,0.243 0.721,0.552 -0.15,-0.023 -0.403,-0.049 -0.799,-0.049 -0.813,0 -1.495,0.461 -1.495,1.263 0,0.802 0.69,1.228 1.381,1.228 0.432,0 0.754,-0.142 0.935,-0.248 0.04,0.092 0.132,0.156 0.238,0.156 h 0.737 V 9.865 c 0,-0.726 -0.475,-1.34 -1.639,-1.34 z"
             fill-rule="evenodd"
             fill="rgb(40,55,149)"
             id="path6"
             style="fill:#ffffff" />
        </g>
      </g>
      <clipPath
         id="_clipPath_DmP4z2rN0faDoyAXUTkbhcS2N8MlLToM">
        <path
           d="m 10.41,7.127 h 8.031 V 8.779 H 10.41 Z"
           fill="#ffffff"
           id="path7" />
      </clipPath>
      <g
         clip-path="url(#_clipPath_DmP4z2rN0faDoyAXUTkbhcS2N8MlLToM)"
         id="g9">
        <g
           id="g8">
          <path
             d="m 17.573,8.062 c -0.009,0.005 -0.011,0.013 0.002,0.024 0.013,0.011 0.024,-0.003 0.024,-0.019 0,-0.014 -0.017,-0.009 -0.026,-0.005 z m 0.068,0.035 c -0.024,0.004 -0.035,0.018 -0.024,0.037 0.011,0.02 0.061,0.034 0.059,0.005 C 17.674,8.11 17.665,8.093 17.641,8.097 Z M 16.542,7.981 C 16.592,7.983 16.62,7.979 16.622,7.953 16.625,7.927 16.581,7.938 16.572,7.922 16.564,7.907 16.548,7.892 16.537,7.905 16.526,7.918 16.518,7.931 16.5,7.933 c -0.017,0.002 -0.043,0 -0.043,0.024 0,0.024 0.034,0.022 0.085,0.024 z m 1.73,0.671 c 0.035,0.007 0.04,0.02 0.051,0.053 0.01,0.032 0.03,0.041 0.065,0.048 0.035,0.006 0.05,-0.007 0.053,-0.033 0.002,-0.026 -0.018,-0.061 -0.035,-0.063 -0.018,-0.003 -0.027,0 -0.024,-0.031 0.002,-0.031 -0.035,-0.042 -0.057,-0.039 -0.022,0.002 -0.033,0 -0.046,-0.029 -0.013,-0.028 -0.039,-0.019 -0.05,0 -0.011,0.02 -0.021,0.031 -0.016,0.055 0.007,0.03 0.024,0.033 0.059,0.039 z M 17.545,8.37 c 0.028,-0.006 0.05,0 0.059,0.02 0.008,0.02 0.024,0.026 0.056,0.026 0.033,0 0.051,0.011 0.073,0.026 0.021,0.016 0.026,0.033 0.065,0.035 0.039,0.002 0.05,0.013 0.074,0.033 0.024,0.02 0.055,0.026 0.077,0.022 0.022,-0.004 0.041,0.007 0.05,0.022 0.009,0.015 0.035,0.03 0.061,0.03 0.027,0 0.046,0.014 0.051,0.051 C 18.115,8.672 18.148,8.628 18.152,8.6 18.157,8.571 18.141,8.543 18.124,8.536 18.106,8.53 18.095,8.528 18.095,8.51 18.095,8.493 18.08,8.477 18.06,8.475 18.041,8.473 18.01,8.48 17.966,8.486 17.923,8.493 17.929,8.462 17.934,8.434 17.938,8.405 17.875,8.394 17.846,8.394 17.818,8.394 17.796,8.399 17.787,8.383 17.778,8.368 17.761,8.362 17.735,8.353 17.709,8.344 17.717,8.309 17.719,8.278 17.722,8.248 17.682,8.25 17.654,8.263 c -0.028,0.013 -0.057,0.015 -0.096,0.002 -0.04,-0.013 -0.057,0.024 -0.057,0.048 0,0.068 0.015,0.064 0.044,0.057 z M 17.962,8.344 C 17.973,8.368 17.997,8.34 18.012,8.32 18.028,8.3 18.023,8.285 18.008,8.267 17.993,8.25 17.96,8.247 17.951,8.265 c -0.013,0.027 0,0.055 0.011,0.079 z M 17.813,8.171 c 0.02,0.011 0.018,0.022 0.018,0.048 0,0.027 0.013,0.051 0.033,0.051 0.019,0 0.037,-0.02 0.05,-0.055 C 17.927,8.18 17.899,8.156 17.879,8.156 17.859,8.156 17.857,8.149 17.848,8.132 17.84,8.115 17.807,8.094 17.794,8.11 c -0.013,0.015 0,0.05 0.019,0.061 z m -6.31,0.324 c 0,0 -0.328,0.17 -0.599,0.17 -0.271,0 -0.472,-0.074 -0.472,-0.244 0,-0.171 0.214,-0.424 0.489,-0.595 0.276,-0.17 1.408,-0.699 2.994,-0.699 1.303,0 2.085,0.175 2.823,0.441 0.071,0.026 0.11,0.092 0.11,0.092 0,0 0.069,-0.004 0.113,0 0.044,0.004 0.061,0.048 0.061,0.048 0,0 0.062,-0.009 0.101,0.018 0.039,0.026 0.039,0.078 0.087,0.087 0.048,0.009 0.131,0.009 0.131,0.057 0,0 0.092,0.013 0.092,0.052 0,0 0.079,0.026 0.101,0.061 0.022,0.035 0.03,0.04 0.07,0.04 0.039,0 0.078,0.017 0.096,0.057 0.017,0.039 0.039,0.105 0.017,0.122 -0.022,0.017 -0.135,0 -0.148,-0.026 C 17.556,8.149 17.538,8.136 17.507,8.154 17.477,8.171 17.424,8.136 17.372,8.141 17.32,8.145 17.223,8.171 17.193,8.128 17.162,8.084 17.101,8.023 17.04,8.031 16.979,8.04 16.891,8.071 16.87,8.049 16.848,8.027 16.869,7.953 16.826,7.975 c -0.044,0.022 -0.04,0.074 -0.074,0.074 -0.036,0 -0.184,-0.004 -0.228,0 C 16.48,8.053 16.419,8.036 16.393,8.014 16.367,7.992 16.323,8.01 16.293,7.979 16.262,7.949 16.236,7.927 16.201,7.931 16.166,7.935 16.148,7.887 16.109,7.892 c -0.039,0.004 -0.065,0.03 -0.14,0.035 -0.074,0.004 -0.288,0.004 -0.376,0 -0.087,-0.005 -0.349,-0.048 -0.533,-0.048 -0.183,0 -0.393,0.013 -0.559,0.026 -0.166,0.013 -0.551,0.03 -0.73,0.026 C 13.592,7.927 13.5,7.927 13.434,7.953 13.369,7.979 13.26,7.992 13.163,7.983 13.067,7.975 12.971,7.992 12.875,8.031 12.779,8.071 12.359,8.224 12.25,8.272 12.141,8.32 11.988,8.333 11.861,8.307 11.734,8.281 11.647,8.272 11.625,8.303 c -0.022,0.03 -0.035,0.048 -0.087,0.048 -0.053,0 -0.149,0.07 -0.035,0.144 z"
             fill-rule="evenodd"
             fill="#ffdd00"
             id="path8" />
        </g>
      </g>
    </g>
  </g>
</svg>
