<?xml version="1.0" encoding="UTF-8" standalone="no"?>
<svg
   viewBox="0 0 16.546396 11.453546"
   width="16.546396pt"
   height="11.453546pt"
   version="1.1"
   id="svg10082"
   xmlns="http://www.w3.org/2000/svg"
   xmlns:svg="http://www.w3.org/2000/svg">
  <defs
     id="defs10086" />
  <path
     style="fill:#ff0000;stroke:#ff0202;stroke-width:0.846263;stroke-opacity:1"
     id="path13617"
     d="M 15.261147,5.7886086 A 6.9570227,3.3075387 0 0 1 8.3051476,9.0961473 6.9570227,3.3075387 0 0 1 1.3471015,5.789582 6.9570227,3.3075387 0 0 1 8.3010527,2.4810701 6.9570227,3.3075387 0 0 1 15.261145,5.7866617" />
  <path
     d="M 11.393011,0.00106679 C 10.682707,0.02304329 9.957118,0.10543769 9.372443,0.23171349 8.29815,0.46422139 6.910502,0.95235909 5.4984928,1.5948339 5.2013786,1.7303442 4.6553954,1.9920587 4.6596945,1.9969265 4.6606538,1.9983565 4.7342115,1.9798895 4.8230596,1.9566955 6.3095858,1.5674166 7.702966,1.3513733 9.033292,1.3025523 c 0.396471,-0.014603 1.038946,-0.00143 1.432551,0.028061 2.126133,0.1623547 3.833823,0.883573 4.838375,2.0428911 0.16432,0.1897717 0.330552,0.42772 0.448537,0.6419022 0.293294,0.533952 0.415578,1.1123583 0.344405,1.6261237 -0.01385,0.1000754 -0.02245,0.1733068 -0.02054,0.1763852 0.0057,0.00727 0.121808,-0.2453217 0.176263,-0.3838385 0.204448,-0.5222841 0.302849,-1.0702668 0.292818,-1.6322086 -0.0033,-0.169012 -0.01051,-0.2782506 -0.02962,-0.4301539 C 16.401438,2.4649488 15.989682,1.6869637 15.319503,1.1109913 14.838006,0.69730189 14.226104,0.39399649 13.504335,0.21095389 13.077772,0.10300369 12.62589,0.03764669 12.109523,0.00958539 c -0.114642,-0.00573 -0.600439,-0.012169 -0.716512,-0.00852 z"
     id="path26"
     style="fill:#ffdd09;fill-opacity:1;stroke-width:0.000539877" />
  <path
     d="m 14.216551,4.1136932 c 0.0922,0.1201911 0.105566,0.1390896 0.154289,0.2232734 0.154289,0.266654 0.248869,0.5595795 0.289949,0.9018271 0.0148,0.1202626 0.01624,0.3741032 0.0029,0.4820529 -0.05111,0.4155508 -0.210655,0.7895827 -0.49535,1.1618237 -0.284217,0.370953 -0.653938,0.69738 -1.134479,1.001258 -0.635309,0.400876 -1.401978,0.720645 -2.266571,0.94578 -0.203967,0.05311 -0.363988,0.08848 -0.797718,0.176958 -0.389306,0.07932 -0.700751,0.147036 -0.762371,0.165362 -0.142348,0.04209 0.06115,0.02197 0.712215,-0.0708 0.60617,-0.08662 0.931468,-0.14768 1.33988,-0.250762 1.591137,-0.402093 2.838825,-1.1246 3.425411,-1.982473 0.164799,-0.241027 0.283262,-0.506463 0.336762,-0.7560089 0.02771,-0.128781 0.03583,-0.203157 0.0387,-0.3423186 0.0029,-0.1409506 -0.0015,-0.2062368 -0.02245,-0.3416751 -0.03345,-0.2141801 -0.105577,-0.441176 -0.196336,-0.6199236 -0.143303,-0.2801119 -0.292337,-0.4582867 -0.584197,-0.6980963 -0.117508,-0.096353 -0.117031,-0.096353 -0.0406,0.00358 z"
     id="path28"
     style="fill:#ffffff;fill-opacity:1;stroke-width:0.000539877" />
  <path
     d="m 12.64452,4.058716 c -0.241226,0.036008 -0.385484,0.089695 -0.584674,0.2172603 -0.179129,0.1141064 -0.300458,0.2257789 -0.43994,0.4039538 -0.245525,0.3136136 -0.376408,0.6492038 -0.416533,1.0647548 -0.01003,0.1037257 -0.01099,0.3624345 -0.0024,0.4429665 0.02149,0.1885559 0.04729,0.3026609 0.103655,0.4515579 0.09124,0.241599 0.245525,0.450914 0.422744,0.572322 0.181038,0.124486 0.395515,0.187337 0.63483,0.187337 0.253646,0 0.491528,-0.06893 0.698362,-0.202013 C 13.43745,6.9558293 13.7188,6.5440013 13.85685,6.0314534 13.92611,5.7751792 13.95621,5.5012242 13.93901,5.2888316 13.92468,5.115596 13.89937,4.9996284 13.84348,4.851376 13.75127,4.6079157 13.616569,4.422439 13.427887,4.2796271 13.279329,4.1673819 13.150834,4.1081812 12.978872,4.0727466 c -0.04681,-0.00974 -0.08742,-0.012814 -0.188683,-0.014603 -0.07069,-0.00143 -0.136615,0 -0.145691,0 z m 0.126584,0.793877 c 0.126584,0.02441 0.240271,0.096997 0.327208,0.2093143 0.09267,0.1189742 0.14378,0.257491 0.158588,0.4282924 0.0042,0.051259 0.0042,0.080534 0,0.1312152 -0.02388,0.2684435 -0.117507,0.5094705 -0.271797,0.6980244 -0.0984,0.120192 -0.231195,0.217261 -0.352524,0.257491 -0.183906,0.06106 -0.393127,0.01711 -0.531176,-0.112244 -0.0879,-0.0824 -0.150468,-0.1867649 -0.192503,-0.3209869 -0.03392,-0.107951 -0.04012,-0.156198 -0.04061,-0.3038786 0,-0.1403068 0.0042,-0.1848323 0.02675,-0.2794672 0.03488,-0.1470356 0.09601,-0.2696608 0.200147,-0.4002318 0.05589,-0.070798 0.101267,-0.1177572 0.156677,-0.1610661 0.119896,-0.095208 0.229762,-0.1440289 0.352048,-0.1568425 0.05494,-0.00573 0.09983,-0.00286 0.167185,0.01038 z"
     id="path30"
     style="fill:#ffffff;fill-opacity:1;stroke-width:0.000539877" />
  <path
     d="m 10.528417,4.070957 c -0.009,0.00143 -0.03917,0.00573 -0.06688,0.00916 -0.09697,0.012814 -0.211133,0.046387 -0.313356,0.091486 -0.20731,0.090913 -0.43755,0.276461 -0.596138,0.4789748 -0.17053,0.2178329 -0.304757,0.4875651 -0.384529,0.7713279 -0.05876,0.2111035 -0.08885,0.4838417 -0.07691,0.7010317 0.01098,0.2038019 0.04012,0.3417459 0.106999,0.5119749 0.07213,0.18247 0.205878,0.369164 0.358735,0.498517 0.09983,0.08418 0.221641,0.152548 0.342971,0.192206 0.119418,0.03844 0.169574,0.04574 0.311443,0.04574 0.132317,0 0.179129,-0.0057 0.29616,-0.03658 0.06497,-0.01711 0.284217,-0.09335 0.290904,-0.10072 0.0038,-0.005 0.127062,-0.9707629 0.124196,-0.9756309 -9.23e-4,-0.0015 -0.01815,0.01704 -0.0387,0.04023 -0.189161,0.214182 -0.423699,0.313685 -0.643908,0.273384 -0.144735,-0.02628 -0.233105,-0.07567 -0.318131,-0.178176 C 9.802331,6.2504988 9.748354,6.0527808 9.764117,5.8166223 c 0.0096,-0.1494694 0.03248,-0.2568472 0.0812,-0.3856286 0.02627,-0.069506 0.07308,-0.1671506 0.09936,-0.2074529 0.07834,-0.1207638 0.164321,-0.2080259 0.266065,-0.2715217 0.09983,-0.062852 0.18916,-0.087834 0.310489,-0.087834 0.06545,0 0.09172,0.00215 0.135183,0.013386 0.05828,0.015248 0.124673,0.043381 0.171008,0.073232 0.06401,0.040875 0.143302,0.1312151 0.188681,0.2136094 0.01719,0.031712 0.0215,0.03658 0.02436,0.027417 0.0029,-0.00974 0.116077,-0.9091287 0.119421,-0.9500037 0.0015,-0.016536 -4.84e-4,-0.01897 -0.03201,-0.035435 C 11.01132,4.1435385 10.876617,4.10023 10.731403,4.0794703 c -0.04824,-0.00645 -0.177696,-0.012169 -0.203012,-0.00852 z"
     id="path32"
     style="fill:#ffffff;fill-opacity:1;stroke-width:0.000539877" />
  <path
     d="m 2.9930841,4.1600087 c -0.00145,0.00429 -0.021497,0.1641442 -0.045378,0.3557771 -0.059712,0.4874935 -0.2445695,1.9861245 -0.297114,2.4114095 -0.023882,0.195857 -0.04251,0.357567 -0.040601,0.359357 0.00524,0.0065 0.6434292,0.01102 0.6434292,0.005 0,-0.0028 0.028184,-0.236804 0.063055,-0.519921 l 0.063531,-0.5137549 h 0.1839049 c 0.2665433,0 0.3869176,-0.0116 0.5034704,-0.0494 0.2206861,-0.07015 0.3945601,-0.218477 0.5058585,-0.4307983 0.083116,-0.158632 0.1461687,-0.385055 0.1714855,-0.6150576 0.00955,-0.088479 0.00812,-0.305095 -0.00287,-0.3783264 C 4.7069847,4.5457083 4.6090609,4.3803471 4.4404415,4.2748309 4.3324868,4.2064673 4.2245321,4.1723213 4.0774081,4.1588633 c -0.104611,-0.00916 -1.0814574,-0.00795 -1.084324,0.00143 z M 3.868186,4.8275382 c 0.058276,0.00981 0.083116,0.01897 0.1151199,0.042736 0.069263,0.051899 0.091714,0.1116726 0.091714,0.2441047 0,0.2885589 -0.099834,0.4356664 -0.3214757,0.4722457 -0.021973,0.00355 -0.09458,0.00573 -0.1657535,0.005 l -0.1270619,-0.00142 0.048722,-0.3874891 c 0.027226,-0.2129652 0.049198,-0.388062 0.049198,-0.3892789 9.685e-4,-0.00573 0.263677,0.00645 0.3095338,0.014603 z"
     id="path34"
     style="fill:#ffffff;fill-opacity:1;stroke-width:0.000539877" />
  <path
     d="m 5.1259059,4.1570021 c 0,0.00573 -0.3864396,3.0935422 -0.3897833,3.1155202 l -0.00287,0.01646 0.8879989,-0.0015 0.8875212,-0.0015 0.041555,-0.332584 c 0.02293,-0.183042 0.04155,-0.337379 0.04203,-0.343535 0,-0.0097 -0.03009,-0.01031 -0.5660465,-0.01031 -0.3114445,0 -0.5660456,-0.0022 -0.5660456,-0.005 0,-0.0073 0.06162,-0.5021689 0.064486,-0.5186329 l 0.00239,-0.01338 H 6.074081 c 0.3004577,0 0.547417,-0.0022 0.548851,-0.005 0.0014,-0.0028 0.01433,-0.101293 0.02914,-0.2184061 0.01432,-0.117184 0.03344,-0.2697319 0.04203,-0.3398849 0.0086,-0.069578 0.01481,-0.1281368 0.01386,-0.1293541 -0.0014,-0.00218 -0.2483935,-0.00282 -0.5488511,-0.00282 H 5.6121746 l 0.00287,-0.017038 c 0.00143,-0.00916 0.015763,-0.1184015 0.031526,-0.2422435 0.015763,-0.1244862 0.030094,-0.2330805 0.031526,-0.2422434 l 0.00287,-0.017109 0.5665233,-0.00143 0.5670021,-0.00215 0.03917,-0.3356618 c 0.02149,-0.1848323 0.03917,-0.3404579 0.03917,-0.3465427 4.82e-4,-0.00974 -0.0449,-0.01038 -0.8832235,-0.01038 -0.4857961,0 -0.8836997,0.00215 -0.8836997,0.00429 z"
     id="path36"
     style="fill:#ffffff;fill-opacity:1;stroke-width:0.000539877" />
  <path
     d="m 7.230068,4.1600087 c -9.23e-4,0.00429 -0.01386,0.1055877 -0.02818,0.224562 -0.0148,0.1189741 -0.05254,0.4252861 -0.08359,0.6803432 -0.03153,0.2550571 -0.08551,0.6913674 -0.119897,0.9701915 -0.0344,0.2782489 -0.08312,0.6736129 -0.107955,0.8774149 -0.02532,0.204447 -0.04442,0.372814 -0.04299,0.374676 0.0014,0.0022 0.145214,0.005 0.319565,0.0065 l 0.3167,0.0028 0.0129,-0.106161 c 0.0072,-0.05856 0.03583,-0.292281 0.06401,-0.519848 l 0.05111,-0.4131179 h 0.184382 c 0.272276,0 0.387873,-0.0116 0.510637,-0.05183 C 8.513114,6.1384294 8.675524,6.0042034 8.789688,5.8059133 8.924393,5.5715442 9.00512,5.1688786 8.980759,4.8534038 8.966429,4.6721507 8.912929,4.5220371 8.821215,4.4054968 8.708006,4.2627564 8.534132,4.1785725 8.309625,4.1583855 8.205014,4.1492255 7.232466,4.1504355 7.230078,4.1598155 Z m 0.865547,0.6675295 c 0.08216,0.013458 0.11512,0.032356 0.157156,0.089124 0.03296,0.044525 0.04537,0.087262 0.04872,0.1665781 0.0066,0.1849039 -0.0387,0.3392414 -0.122763,0.4136893 -0.08598,0.075661 -0.160021,0.095781 -0.356824,0.095781 H 7.691022 l 0.0024,-0.014028 c 0.0024,-0.01281 0.05493,-0.430798 0.08168,-0.6510648 0.0067,-0.055478 0.0129,-0.1042993 0.01433,-0.1085944 0.0024,-0.01038 0.229762,-0.00429 0.306191,0.00852 z"
     id="path38"
     style="fill:#ffffff;fill-opacity:1;stroke-width:0.000539877" />
  <path
     d="m 0.45423868,5.6616463 c -0.085504,0.1665781 -0.2020569,0.4534191 -0.2598556,0.639467 -0.2326278,0.751785 -0.2569896,1.547452 -0.070219,2.266809 0.1027007,0.394792 0.2617666,0.748135 0.4896181,1.088592 0.051591,0.07688 0.2068333,0.277034 0.2708417,0.3484037 0.30427922,0.341675 0.67686672,0.62601 1.11107372,0.848138 1.1062966,0.565665 2.5975997,0.732815 4.4199326,0.496657 0.1882038,-0.02441 0.3181308,-0.04453 0.4585678,-0.07072 1.280649,-0.23802 3.065723,-0.878705 4.833123,-1.7335727 0.09792,-0.04753 0.177217,-0.08719 0.175785,-0.08841 -9.23e-4,-0.0015 -0.06926,0.01525 -0.151424,0.03715 -0.586586,0.154409 -1.301665,0.311251 -1.872011,0.409466 C 8.508805,10.136135 7.268281,10.211156 6.1242476,10.129407 4.7772027,10.03298 3.5906563,9.7126373 2.6372159,9.1879193 1.7788332,8.7156023 1.1282387,8.0871583 0.75899568,7.3732423 c -0.2063556,-0.39787 -0.3162216,-0.80483 -0.32673,-1.2069219 -0.00379,-0.137945 0.00242,-0.236803 0.024357,-0.4063888 0.00908,-0.069578 0.016243,-0.127564 0.015284,-0.1281368 -9.686e-4,-0.00145 -0.0086,0.012165 -0.01767,0.029848 z"
     id="path40"
     style="fill:#ffdd09;fill-opacity:1;stroke-width:0.000539877" />
</svg>
