<?xml version="1.0" encoding="UTF-8" standalone="no"?>
<svg
   viewBox="0 0 15.954451 14"
   width="15.954451pt"
   height="14pt"
   version="1.1"
   id="svg9721"
   sodipodi:docname="sainsburys_alt.svg"
   inkscape:export-filename="..\brands_2023\sainsburys_local.svg"
   inkscape:export-xdpi="96"
   inkscape:export-ydpi="96"
   inkscape:version="1.2.1 (9c6d41e410, 2022-07-14)"
   xmlns:inkscape="http://www.inkscape.org/namespaces/inkscape"
   xmlns:sodipodi="http://sodipodi.sourceforge.net/DTD/sodipodi-0.dtd"
   xmlns="http://www.w3.org/2000/svg"
   xmlns:svg="http://www.w3.org/2000/svg">
  <defs
     id="defs9725">
    <clipPath
       id="_clipPath_E9rXdIHY3dkNHvZGWkIDJ3F3emxd4i5R">
      <rect
         width="24"
         height="24"
         id="rect13775"
         x="0"
         y="0" />
    </clipPath>
  </defs>
  <sodipodi:namedview
     id="namedview9723"
     pagecolor="#505050"
     bordercolor="#eeeeee"
     borderopacity="1"
     inkscape:showpageshadow="0"
     inkscape:pageopacity="0"
     inkscape:pagecheckerboard="0"
     inkscape:deskcolor="#505050"
     inkscape:document-units="pt"
     showgrid="false"
     inkscape:zoom="45.428571"
     inkscape:cx="10.632075"
     inkscape:cy="7.572327"
     inkscape:window-width="3840"
     inkscape:window-height="2054"
     inkscape:window-x="2869"
     inkscape:window-y="-11"
     inkscape:window-maximized="1"
     inkscape:current-layer="svg9721" />
  <circle
     vector-effect="non-scaling-stroke"
     cx="8.0235853"
     cy="7.0495281"
     fill="#b40555"
     id="circle13689"
     style="isolation:isolate;stroke-width:0.051852"
     r="7" />
  <circle
     vector-effect="non-scaling-stroke"
     cx="8.0495129"
     cy="7.0309467"
     fill="#ffffff"
     id="circle13691"
     style="isolation:isolate;stroke-width:0.051852"
     r="6.5074077" />
  <g
     clip-path="url(#_clipPath_E9rXdIHY3dkNHvZGWkIDJ3F3emxd4i5R)"
     id="g13782"
     style="isolation:isolate"
     transform="matrix(0.73344734,0,0,0.76301508,-0.62469979,-0.41899767)">
    <path
       d="m 11.421,15.814 c -1.054,0 -2.148,-0.232 -3.118,-0.697 C 8.114,14.988 8.078,14.911 8.078,14.73 v -0.947 c 0,-0.173 0.059,-0.344 0.379,-0.344 0.171,0 0.284,0.091 0.527,0.266 0.973,0.679 1.9,0.955 2.684,0.955 1.322,0 2.22,-0.8 2.22,-1.791 0.01,-2.589 -5.9,-1.797 -5.9,-5.617 0,-1.768 1.362,-3.314 3.879,-3.314 1.252,0 2.388,0.24 3.028,0.49 0.173,0.078 0.206,0.166 0.206,0.341 v 1.097 c 0,0.168 -0.051,0.3 -0.258,0.3 -0.168,0 -0.302,-0.104 -0.511,-0.259 C 13.576,5.365 12.853,5.03 11.906,5.03 c -1.058,0 -1.89,0.568 -1.89,1.445 0,2.169 5.996,1.936 5.996,5.421 0,2.633 -2.194,3.871 -4.594,3.871 m 69.616,-0.549"
       fill="#f47320"
       id="path13780" />
  </g>
</svg>
