<?xml version="1.0" encoding="UTF-8" standalone="no"?><!-- Generator: Gravit.io --><svg xmlns="http://www.w3.org/2000/svg" xmlns:xlink="http://www.w3.org/1999/xlink" style="isolation:isolate" viewBox="0 0 24 24" width="24pt" height="24pt"><defs><clipPath id="_clipPath_E9rXdIHY3dkNHvZGWkIDJ3F3emxd4i5R"><rect width="24" height="24"/></clipPath></defs><g clip-path="url(#_clipPath_E9rXdIHY3dkNHvZGWkIDJ3F3emxd4i5R)"><path d=" M 11.421 15.814 C 10.367 15.814 9.273 15.582 8.303 15.117 C 8.114 14.988 8.078 14.911 8.078 14.73 L 8.078 13.783 C 8.078 13.61 8.137 13.439 8.457 13.439 C 8.628 13.439 8.741 13.53 8.984 13.705 C 9.957 14.384 10.884 14.66 11.668 14.66 C 12.99 14.66 13.888 13.86 13.888 12.869 C 13.898 10.28 7.988 11.072 7.988 7.252 C 7.988 5.484 9.35 3.938 11.867 3.938 C 13.119 3.938 14.255 4.178 14.895 4.428 C 15.068 4.506 15.101 4.594 15.101 4.769 L 15.101 5.866 C 15.101 6.034 15.05 6.166 14.843 6.166 C 14.675 6.166 14.541 6.062 14.332 5.907 C 13.576 5.365 12.853 5.03 11.906 5.03 C 10.848 5.03 10.016 5.598 10.016 6.475 C 10.016 8.644 16.012 8.411 16.012 11.896 C 16.012 14.529 13.818 15.767 11.418 15.767 M 81.034 15.218" fill="rgb(244,115,32)"/></g></svg>