<?xml version="1.0" encoding="UTF-8" standalone="no"?><!-- Generator: Gravit.io --><svg xmlns="http://www.w3.org/2000/svg" xmlns:xlink="http://www.w3.org/1999/xlink" style="isolation:isolate" viewBox="0 0 24 24" width="24pt" height="24pt"><defs><clipPath id="_clipPath_Oks1p03GJ3PJUbeNeRB0WzvojzDsKvkA"><rect width="24" height="24"/></clipPath></defs><g clip-path="url(#_clipPath_Oks1p03GJ3PJUbeNeRB0WzvojzDsKvkA)"><g><g><path d=" M 6.753 9.378 C 6.505 9.378 6.305 9.52 6.208 9.621 C 6.208 9.621 5.972 9.854 5.813 9.935 C 5.806 9.939 5.806 9.947 5.815 9.947 L 7.258 9.947 C 7.543 9.947 7.677 9.85 7.846 9.699 C 7.846 9.699 8.093 9.47 8.262 9.396 C 8.279 9.389 8.275 9.378 8.262 9.378 L 6.753 9.378 Z  M 9.231 9.378 C 8.983 9.378 8.783 9.52 8.686 9.621 C 8.686 9.621 8.45 9.854 8.291 9.935 C 8.284 9.939 8.284 9.947 8.294 9.947 L 9.739 9.947 C 10.024 9.947 10.158 9.85 10.327 9.699 C 10.327 9.699 10.571 9.47 10.74 9.396 C 10.757 9.389 10.756 9.378 10.743 9.378 L 9.231 9.378 L 9.231 9.378 Z  M 11.712 9.378 C 11.464 9.378 11.264 9.52 11.167 9.621 C 11.167 9.621 10.931 9.854 10.772 9.935 C 10.765 9.939 10.765 9.947 10.775 9.947 L 12.22 9.947 C 12.505 9.947 12.636 9.85 12.805 9.699 C 12.805 9.699 13.052 9.47 13.221 9.396 C 13.238 9.389 13.237 9.378 13.224 9.378 L 11.712 9.378 Z  M 14.19 9.378 C 13.942 9.378 13.745 9.52 13.648 9.621 C 13.648 9.621 13.409 9.854 13.25 9.935 C 13.243 9.939 13.243 9.947 13.252 9.947 L 14.698 9.947 C 14.983 9.947 15.117 9.85 15.286 9.699 C 15.286 9.699 15.533 9.47 15.702 9.396 C 15.719 9.389 15.715 9.378 15.702 9.378 L 14.19 9.378 Z  M 16.671 9.378 C 16.423 9.378 16.223 9.52 16.126 9.621 C 16.126 9.621 15.89 9.854 15.73 9.935 C 15.723 9.939 15.724 9.947 15.733 9.947 L 17.179 9.947 C 17.464 9.947 17.598 9.85 17.767 9.699 C 17.767 9.699 18.011 9.47 18.18 9.396 C 18.197 9.389 18.196 9.378 18.182 9.378 L 16.671 9.378 L 16.671 9.378 Z " fill="rgb(0,84,164)" vector-effect="non-scaling-stroke" stroke-width="0.079" stroke="rgb(255,255,255)" stroke-linejoin="miter" stroke-linecap="butt" stroke-miterlimit="11.47399998"/><path d=" M 11.802 6.244 C 11.274 6.244 10.76 6.4 10.76 6.925 C 10.76 7.833 12.344 7.353 12.344 7.908 C 12.344 8.089 12.063 8.162 11.836 8.162 C 11.429 8.162 11.148 8.102 10.792 7.888 L 10.792 8.344 C 11.057 8.431 11.418 8.474 11.81 8.474 C 12.357 8.474 12.869 8.333 12.869 7.796 C 12.869 6.848 11.285 7.274 11.285 6.809 C 11.285 6.622 11.539 6.558 11.761 6.558 C 12.135 6.558 12.538 6.668 12.759 6.873 L 12.759 6.388 C 12.473 6.298 12.092 6.244 11.802 6.244 L 11.802 6.244 Z  M 14.6 6.25 C 13.649 6.25 13.019 6.707 13.019 7.404 C 13.019 8.043 13.597 8.471 14.461 8.471 C 14.741 8.471 14.991 8.434 15.283 8.364 L 15.283 7.825 C 15.077 8.043 14.831 8.13 14.568 8.13 C 14.057 8.13 13.708 7.812 13.708 7.354 C 13.708 6.903 14.07 6.573 14.576 6.573 C 14.852 6.573 15.073 6.673 15.251 6.847 L 15.251 6.307 C 15.066 6.269 14.834 6.25 14.6 6.25 L 14.6 6.25 Z  M 16.818 6.25 C 15.998 6.25 15.419 6.721 15.419 7.386 C 15.419 8.038 15.939 8.471 16.714 8.471 C 17.537 8.471 18.105 8.011 18.105 7.343 C 18.105 6.688 17.589 6.25 16.818 6.25 L 16.818 6.25 Z  M 5.893 6.316 L 5.893 6.827 C 6.072 6.689 6.444 6.636 6.851 6.633 L 6.851 8.027 C 6.851 8.229 6.833 8.287 6.747 8.393 L 7.552 8.393 C 7.462 8.287 7.448 8.229 7.448 8.027 L 7.448 6.622 C 7.801 6.625 8.222 6.688 8.4 6.827 L 8.4 6.316 L 5.893 6.316 L 5.893 6.316 Z  M 8.617 6.316 C 8.701 6.422 8.718 6.482 8.718 6.685 L 8.718 8.027 C 8.718 8.229 8.702 8.29 8.622 8.393 L 10.567 8.393 L 10.567 7.888 C 10.3 8.078 9.792 8.079 9.586 8.076 L 9.303 8.076 L 9.303 7.496 L 9.511 7.496 C 9.652 7.496 9.906 7.513 10.053 7.556 L 10.053 7.124 C 9.908 7.171 9.651 7.184 9.511 7.184 L 9.303 7.184 L 9.303 6.634 L 9.586 6.634 C 9.839 6.634 10.278 6.686 10.443 6.824 L 10.443 6.316 L 8.617 6.316 L 8.617 6.316 Z  M 16.763 6.564 C 17.193 6.564 17.476 6.919 17.476 7.357 C 17.476 7.796 17.193 8.151 16.763 8.151 C 16.327 8.151 16.048 7.796 16.048 7.357 C 16.048 6.919 16.327 6.564 16.763 6.564 Z " fill="rgb(240,46,37)" vector-effect="non-scaling-stroke" stroke-width="0.03" stroke="rgb(255,255,255)" stroke-linejoin="miter" stroke-linecap="butt" stroke-miterlimit="3.86400008"/></g><path d=" M 10.451 13.394 L 10.451 13.394 Q 10.488 13.394 10.556 13.345 L 10.556 13.345 L 10.556 13.345 Q 10.623 13.295 10.869 13.087 L 10.869 13.087 L 10.931 13.092 L 10.999 13.217 L 10.999 13.217 Q 10.425 13.77 10.258 13.77 L 10.258 13.77 L 10.258 13.77 Q 10.097 13.77 10.097 13.618 L 10.097 13.618 L 10.097 13.618 Q 10.097 13.519 10.146 13.339 L 10.146 13.339 L 10.146 13.339 Q 10.196 13.16 10.3 12.847 L 10.3 12.847 L 10.3 12.847 Q 10.415 12.502 10.47 12.304 L 10.47 12.304 L 10.47 12.304 Q 10.524 12.106 10.524 11.986 L 10.524 11.986 L 10.524 11.986 Q 10.524 11.892 10.475 11.832 L 10.475 11.832 L 10.475 11.832 Q 10.425 11.772 10.347 11.772 L 10.347 11.772 L 10.347 11.772 Q 10.18 11.772 9.896 12.195 L 9.896 12.195 L 9.896 12.195 Q 9.612 12.617 9.325 13.295 L 9.325 13.295 L 9.262 13.634 L 9.262 13.634 Q 9.257 13.66 9.13 13.707 L 9.13 13.707 L 9.13 13.707 Q 9.002 13.754 8.939 13.754 L 8.939 13.754 L 8.903 13.707 L 8.903 13.707 Q 8.96 13.467 9.106 12.787 L 9.106 12.787 L 9.106 12.787 Q 9.252 12.106 9.252 11.986 L 9.252 11.986 L 9.252 11.986 Q 9.252 11.892 9.203 11.832 L 9.203 11.832 L 9.203 11.832 Q 9.153 11.772 9.075 11.772 L 9.075 11.772 L 9.075 11.772 Q 8.918 11.772 8.658 12.166 L 8.658 12.166 L 8.658 12.166 Q 8.397 12.56 8.136 13.191 L 8.136 13.191 L 8.079 13.634 L 8.079 13.634 Q 8.074 13.66 7.946 13.707 L 7.946 13.707 L 7.946 13.707 Q 7.818 13.754 7.755 13.754 L 7.755 13.754 L 7.719 13.707 L 7.719 13.707 Q 7.766 13.431 7.886 12.662 L 7.886 12.662 L 7.886 12.662 Q 8.006 11.892 8.006 11.788 L 8.006 11.788 L 8.006 11.788 Q 8.006 11.679 7.954 11.629 L 7.954 11.629 L 7.954 11.629 Q 7.901 11.579 7.782 11.579 L 7.782 11.579 L 7.568 11.579 L 7.604 11.381 L 7.604 11.381 Q 7.802 11.381 8.081 11.368 L 8.081 11.368 L 8.081 11.368 Q 8.36 11.355 8.449 11.35 L 8.449 11.35 L 8.496 11.413 L 8.496 11.413 Q 8.48 11.46 8.423 11.645 L 8.423 11.645 L 8.423 11.645 Q 8.366 11.83 8.293 12.106 L 8.293 12.106 L 8.293 12.106 Q 8.22 12.383 8.178 12.654 L 8.178 12.654 L 8.193 12.669 L 8.193 12.669 Q 8.459 12.137 8.725 11.783 L 8.725 11.783 L 8.725 11.783 Q 8.991 11.428 9.231 11.287 L 9.231 11.287 L 9.231 11.287 Q 9.398 11.287 9.515 11.431 L 9.515 11.431 L 9.515 11.431 Q 9.633 11.574 9.633 11.772 L 9.633 11.772 L 9.633 11.772 Q 9.633 11.882 9.544 12.21 L 9.544 12.21 L 9.544 12.21 Q 9.455 12.539 9.419 12.654 L 9.419 12.654 L 9.435 12.669 L 9.435 12.669 Q 9.69 12.164 9.974 11.801 L 9.974 11.801 L 9.974 11.801 Q 10.258 11.439 10.514 11.287 L 10.514 11.287 L 10.514 11.287 Q 10.681 11.287 10.79 11.426 L 10.79 11.426 L 10.79 11.426 Q 10.9 11.564 10.9 11.772 L 10.9 11.772 L 10.9 11.772 Q 10.9 11.924 10.832 12.153 L 10.832 12.153 L 10.832 12.153 Q 10.764 12.383 10.634 12.748 L 10.634 12.748 L 10.634 12.748 Q 10.472 13.217 10.436 13.373 L 10.436 13.373 L 10.451 13.394 Z  M 12.029 12.117 L 12.029 12.117 Q 11.927 12.117 11.827 12.209 L 11.827 12.209 L 11.827 12.209 Q 11.727 12.301 11.651 12.458 L 11.651 12.458 L 11.651 12.458 Q 11.575 12.614 11.548 12.798 L 11.548 12.798 L 11.548 12.798 Q 11.888 12.692 12.036 12.575 L 12.036 12.575 L 12.036 12.575 Q 12.185 12.458 12.185 12.297 L 12.185 12.297 L 12.185 12.297 Q 12.185 12.117 12.029 12.117 L 12.029 12.117 L 12.029 12.117 Z  M 13.534 13.205 L 13.581 13.299 L 13.581 13.299 Q 13.401 13.498 13.241 13.625 L 13.241 13.625 L 13.241 13.625 Q 13.081 13.752 12.991 13.752 L 12.991 13.752 L 12.991 13.752 Q 12.885 13.752 12.822 13.694 L 12.822 13.694 L 12.822 13.694 Q 12.76 13.635 12.76 13.533 L 12.76 13.533 L 12.764 13.49 L 12.979 12.149 L 12.959 12.133 L 12.689 12.121 L 12.678 12.102 L 12.693 11.988 L 13.006 11.938 L 13.069 11.468 L 13.421 11.331 L 13.444 11.378 L 13.444 11.378 Q 13.429 11.425 13.38 11.591 L 13.38 11.591 L 13.38 11.591 Q 13.331 11.758 13.288 11.949 L 13.288 11.949 L 13.765 11.945 L 13.781 11.957 L 13.749 12.114 L 13.288 12.11 L 13.245 12.133 L 13.006 13.334 L 13.002 13.369 L 13.002 13.369 Q 13.002 13.471 13.096 13.471 L 13.096 13.471 L 13.096 13.471 Q 13.151 13.471 13.239 13.41 L 13.239 13.41 L 13.239 13.41 Q 13.327 13.349 13.483 13.201 L 13.483 13.201 L 13.534 13.205 L 13.534 13.205 Z  M 13.902 13.705 L 13.902 13.705 Q 13.937 13.506 14.027 12.943 L 14.027 12.943 L 14.027 12.943 Q 14.117 12.379 14.117 12.282 L 14.117 12.282 L 14.117 12.282 Q 14.117 12.188 14.08 12.149 L 14.08 12.149 L 14.08 12.149 Q 14.043 12.11 13.949 12.11 L 13.949 12.11 L 13.788 12.11 L 13.816 11.961 L 13.816 11.961 Q 13.964 11.961 14.174 11.951 L 14.174 11.951 L 14.174 11.951 Q 14.383 11.941 14.449 11.938 L 14.449 11.938 L 14.485 11.984 L 14.485 11.984 Q 14.473 12.016 14.44 12.129 L 14.44 12.129 L 14.44 12.129 Q 14.406 12.243 14.356 12.432 L 14.356 12.432 L 14.356 12.432 Q 14.305 12.622 14.273 12.794 L 14.273 12.794 L 14.289 12.798 L 14.289 12.798 Q 14.457 12.419 14.665 12.17 L 14.665 12.17 L 14.665 12.17 Q 14.872 11.922 15.028 11.906 L 15.028 11.906 L 15.028 11.906 Q 15.063 11.93 15.089 11.998 L 15.089 11.998 L 15.089 11.998 Q 15.114 12.067 15.114 12.141 L 15.114 12.141 L 15.114 12.141 Q 15.114 12.207 15.104 12.25 L 15.104 12.25 L 15.104 12.25 Q 15.095 12.293 15.083 12.311 L 15.083 12.311 L 15.083 12.311 Q 15.071 12.329 15.067 12.333 L 15.067 12.333 L 15.028 12.344 L 15.028 12.344 Q 14.989 12.305 14.93 12.305 L 14.93 12.305 L 14.93 12.305 Q 14.782 12.305 14.59 12.55 L 14.59 12.55 L 14.59 12.55 Q 14.399 12.794 14.23 13.209 L 14.23 13.209 L 14.172 13.651 L 14.172 13.651 Q 14.168 13.67 14.072 13.705 L 14.072 13.705 L 14.072 13.705 Q 13.976 13.74 13.929 13.74 L 13.929 13.74 L 13.902 13.705 L 13.902 13.705 Z  M 15.693 13.537 L 15.693 13.537 Q 15.822 13.537 15.924 13.428 L 15.924 13.428 L 15.924 13.428 Q 16.026 13.318 16.082 13.124 L 16.082 13.124 L 16.082 13.124 Q 16.139 12.931 16.139 12.688 L 16.139 12.688 L 16.139 12.688 Q 16.139 12.426 16.055 12.276 L 16.055 12.276 L 16.055 12.276 Q 15.971 12.125 15.822 12.125 L 15.822 12.125 L 15.822 12.125 Q 15.697 12.125 15.595 12.229 L 15.595 12.229 L 15.595 12.229 Q 15.494 12.333 15.437 12.512 L 15.437 12.512 L 15.437 12.512 Q 15.38 12.692 15.38 12.915 L 15.38 12.915 L 15.38 12.915 Q 15.38 13.189 15.468 13.363 L 15.468 13.363 L 15.468 13.363 Q 15.556 13.537 15.693 13.537 L 15.693 13.537 L 15.693 13.537 Z  M 12.463 12.196 L 12.463 12.196 Q 12.463 12.442 12.248 12.618 L 12.248 12.618 L 12.248 12.618 Q 12.032 12.794 11.532 12.962 L 11.532 12.962 L 11.532 12.962 Q 11.516 13.212 11.592 13.365 L 11.592 13.365 L 11.592 13.365 Q 11.669 13.518 11.806 13.518 L 11.806 13.518 L 11.806 13.518 Q 11.923 13.518 12.04 13.426 L 12.04 13.426 L 12.04 13.426 Q 12.158 13.334 12.236 13.181 L 12.236 13.181 L 12.291 13.185 L 12.349 13.279 L 12.349 13.279 Q 12.236 13.486 12.062 13.619 L 12.062 13.619 L 12.062 13.619 Q 11.888 13.752 11.72 13.752 L 11.72 13.752 L 11.72 13.752 Q 11.508 13.752 11.387 13.58 L 11.387 13.58 L 11.387 13.58 Q 11.266 13.408 11.266 13.107 L 11.266 13.107 L 11.266 13.107 Q 11.266 12.814 11.397 12.53 L 11.397 12.53 L 11.397 12.53 Q 11.528 12.246 11.733 12.069 L 11.733 12.069 L 11.733 12.069 Q 11.939 11.891 12.154 11.891 L 12.154 11.891 L 12.154 11.891 Q 12.302 11.891 12.382 11.971 L 12.382 11.971 L 12.382 11.971 Q 12.463 12.051 12.463 12.196 L 12.463 12.196 L 12.463 12.196 Z  M 15.537 13.752 L 15.537 13.752 Q 15.341 13.752 15.22 13.576 L 15.22 13.576 L 15.22 13.576 Q 15.099 13.4 15.099 13.111 L 15.099 13.111 L 15.099 13.111 Q 15.099 12.794 15.222 12.512 L 15.222 12.512 L 15.222 12.512 Q 15.345 12.231 15.55 12.061 L 15.55 12.061 L 15.55 12.061 Q 15.756 11.891 15.986 11.891 L 15.986 11.891 L 15.986 11.891 Q 16.194 11.891 16.313 12.045 L 16.313 12.045 L 16.313 12.045 Q 16.432 12.2 16.432 12.473 L 16.432 12.473 L 16.432 12.473 Q 16.432 12.814 16.311 13.107 L 16.311 13.107 L 16.311 13.107 Q 16.19 13.4 15.982 13.576 L 15.982 13.576 L 15.982 13.576 Q 15.775 13.752 15.537 13.752 L 15.537 13.752 L 15.537 13.752 Z " fill-rule="evenodd" fill="rgb(0,84,164)"/></g></g></svg>