<?xml version="1.0" encoding="UTF-8" standalone="no"?><!-- Generator: Gravit.io --><svg xmlns="http://www.w3.org/2000/svg" xmlns:xlink="http://www.w3.org/1999/xlink" style="isolation:isolate" viewBox="0 0 24 24" width="24pt" height="24pt"><defs><clipPath id="_clipPath_tdAJ3dhyplpunp0ZeuVi1T6Iq9phn7XH"><rect width="24" height="24"/></clipPath></defs><g clip-path="url(#_clipPath_tdAJ3dhyplpunp0ZeuVi1T6Iq9phn7XH)"><g><path d=" M 7.712 11.102 L 7.712 11.102 L 7.712 11.102 Q 7.853 11.102 7.916 11.175 L 7.916 11.175 L 7.916 11.175 Q 7.978 11.247 7.978 11.352 L 7.978 11.352 L 7.978 11.352 Q 7.978 11.489 7.865 11.627 L 7.865 11.627 L 7.865 11.627 Q 7.751 11.765 7.594 11.861 L 7.594 11.861 L 7.594 11.861 Q 7.436 11.957 7.278 12.017 L 7.278 12.017 L 7.278 12.017 Q 7.12 12.078 7.023 12.078 L 7.023 12.078 L 7.023 12.078 Q 7.015 12.102 7.015 12.206 L 7.015 12.206 L 7.015 12.206 Q 7.015 12.404 7.083 12.523 L 7.083 12.523 L 7.083 12.523 Q 7.15 12.642 7.293 12.642 L 7.293 12.642 L 7.293 12.642 Q 7.326 12.642 7.363 12.63 L 7.363 12.63 L 7.363 12.63 Q 7.4 12.618 7.433 12.599 L 7.433 12.599 L 7.433 12.599 Q 7.467 12.581 7.502 12.556 L 7.502 12.556 L 7.502 12.556 Q 7.537 12.531 7.564 12.507 L 7.564 12.507 L 7.564 12.507 Q 7.592 12.483 7.62 12.456 L 7.62 12.456 L 7.62 12.456 Q 7.648 12.43 7.664 12.412 L 7.664 12.412 L 7.664 12.412 Q 7.68 12.396 7.694 12.38 L 7.694 12.38 L 7.708 12.364 L 7.708 12.364 Q 7.718 12.364 7.738 12.395 L 7.738 12.395 L 7.738 12.395 Q 7.757 12.426 7.757 12.444 L 7.757 12.444 L 7.757 12.444 Q 7.733 12.485 7.672 12.551 L 7.672 12.551 L 7.672 12.551 Q 7.612 12.618 7.527 12.694 L 7.527 12.694 L 7.527 12.694 Q 7.442 12.771 7.338 12.825 L 7.338 12.825 L 7.338 12.825 Q 7.233 12.88 7.144 12.88 L 7.144 12.88 L 7.144 12.88 Q 6.931 12.88 6.816 12.728 L 6.816 12.728 L 6.816 12.728 Q 6.701 12.577 6.701 12.295 L 6.701 12.295 L 6.701 12.295 Q 6.701 12.08 6.795 11.859 L 6.795 11.859 L 6.795 11.859 Q 6.888 11.638 7.032 11.474 L 7.032 11.474 L 7.032 11.474 Q 7.176 11.31 7.359 11.206 L 7.359 11.206 L 7.359 11.206 Q 7.541 11.102 7.712 11.102 Z  M 7.031 11.977 L 7.031 11.977 L 7.031 11.977 Q 7.094 11.977 7.2 11.931 L 7.2 11.931 L 7.2 11.931 Q 7.305 11.886 7.414 11.816 L 7.414 11.816 L 7.414 11.816 Q 7.523 11.745 7.602 11.639 L 7.602 11.639 L 7.602 11.639 Q 7.68 11.533 7.68 11.429 L 7.68 11.429 L 7.68 11.429 Q 7.68 11.352 7.628 11.31 L 7.628 11.31 L 7.628 11.31 Q 7.575 11.267 7.511 11.267 L 7.511 11.267 L 7.511 11.267 Q 7.412 11.267 7.322 11.348 L 7.322 11.348 L 7.322 11.348 Q 7.233 11.429 7.173 11.546 L 7.173 11.546 L 7.173 11.546 Q 7.114 11.662 7.077 11.777 L 7.077 11.777 L 7.077 11.777 Q 7.039 11.892 7.031 11.977 Z  M 9.133 11.872 L 9.26 12.497 L 9.26 12.497 Q 9.292 12.646 9.401 12.646 L 9.401 12.646 L 9.401 12.646 Q 9.447 12.646 9.55 12.562 L 9.55 12.562 L 9.55 12.562 Q 9.653 12.479 9.695 12.424 L 9.695 12.424 L 9.695 12.424 Q 9.703 12.424 9.719 12.454 L 9.719 12.454 L 9.719 12.454 Q 9.735 12.485 9.735 12.501 L 9.735 12.501 L 9.735 12.501 Q 9.693 12.575 9.526 12.723 L 9.526 12.723 L 9.526 12.723 Q 9.359 12.871 9.244 12.871 L 9.244 12.871 L 9.244 12.871 Q 9.149 12.871 9.074 12.778 L 9.074 12.778 L 9.074 12.778 Q 8.998 12.684 8.966 12.525 L 8.966 12.525 L 8.895 12.178 L 8.895 12.178 Q 8.865 12.239 8.816 12.338 L 8.816 12.338 L 8.816 12.338 Q 8.766 12.438 8.74 12.49 L 8.74 12.49 L 8.74 12.49 Q 8.714 12.541 8.674 12.616 L 8.674 12.616 L 8.674 12.616 Q 8.633 12.69 8.603 12.727 L 8.603 12.727 L 8.603 12.727 Q 8.573 12.765 8.534 12.804 L 8.534 12.804 L 8.534 12.804 Q 8.494 12.843 8.453 12.859 L 8.453 12.859 L 8.453 12.859 Q 8.412 12.875 8.365 12.875 L 8.365 12.875 L 8.365 12.875 Q 8.252 12.875 8.176 12.827 L 8.176 12.827 L 8.176 12.827 Q 8.132 12.769 8.132 12.69 L 8.132 12.69 L 8.132 12.69 Q 8.132 12.616 8.172 12.564 L 8.172 12.564 L 8.172 12.564 Q 8.212 12.513 8.281 12.513 L 8.281 12.513 L 8.281 12.513 Q 8.321 12.513 8.372 12.569 L 8.372 12.569 L 8.372 12.569 Q 8.424 12.626 8.466 12.63 L 8.466 12.63 L 8.466 12.63 Q 8.531 12.634 8.587 12.537 L 8.587 12.537 L 8.587 12.537 Q 8.73 12.297 8.865 12.031 L 8.865 12.031 L 8.752 11.477 L 8.752 11.477 Q 8.72 11.324 8.623 11.324 L 8.623 11.324 L 8.623 11.324 Q 8.569 11.324 8.465 11.408 L 8.465 11.408 L 8.465 11.408 Q 8.361 11.491 8.317 11.55 L 8.317 11.55 L 8.317 11.55 Q 8.309 11.55 8.293 11.519 L 8.293 11.519 L 8.293 11.519 Q 8.277 11.489 8.277 11.473 L 8.277 11.473 L 8.277 11.473 Q 8.319 11.398 8.486 11.25 L 8.486 11.25 L 8.486 11.25 Q 8.653 11.102 8.768 11.102 L 8.768 11.102 L 8.768 11.102 Q 8.863 11.102 8.939 11.195 L 8.939 11.195 L 8.939 11.195 Q 9.014 11.288 9.046 11.449 L 9.046 11.449 L 9.103 11.723 L 9.103 11.723 Q 9.119 11.691 9.149 11.628 L 9.149 11.628 L 9.149 11.628 Q 9.208 11.509 9.237 11.452 L 9.237 11.452 L 9.237 11.452 Q 9.266 11.394 9.315 11.313 L 9.315 11.313 L 9.315 11.313 Q 9.365 11.231 9.401 11.195 L 9.401 11.195 L 9.401 11.195 Q 9.437 11.159 9.489 11.13 L 9.489 11.13 L 9.489 11.13 Q 9.54 11.102 9.594 11.102 L 9.594 11.102 L 9.594 11.102 Q 9.707 11.102 9.784 11.151 L 9.784 11.151 L 9.784 11.151 Q 9.828 11.209 9.828 11.288 L 9.828 11.288 L 9.828 11.288 Q 9.828 11.362 9.788 11.414 L 9.788 11.414 L 9.788 11.414 Q 9.748 11.465 9.679 11.465 L 9.679 11.465 L 9.679 11.465 Q 9.639 11.465 9.587 11.409 L 9.587 11.409 L 9.587 11.409 Q 9.536 11.352 9.494 11.348 L 9.494 11.348 L 9.494 11.348 Q 9.429 11.344 9.373 11.441 L 9.373 11.441 L 9.373 11.441 Q 9.226 11.693 9.133 11.872 L 9.133 11.872 Z  M 11.144 11.324 L 11.144 11.324 L 11.144 11.324 Q 11.047 11.324 10.9 11.426 L 10.9 11.426 L 10.9 11.426 Q 10.753 11.527 10.668 11.646 L 10.668 11.646 L 10.535 12.327 L 10.535 12.327 Q 10.503 12.497 10.566 12.616 L 10.566 12.616 L 10.566 12.616 Q 10.628 12.734 10.725 12.734 L 10.725 12.734 L 10.725 12.734 Q 10.888 12.734 11.038 12.559 L 11.038 12.559 L 11.038 12.559 Q 11.188 12.384 11.273 12.13 L 11.273 12.13 L 11.273 12.13 Q 11.358 11.876 11.358 11.634 L 11.358 11.634 L 11.358 11.634 Q 11.358 11.324 11.144 11.324 Z  M 11.305 11.102 L 11.305 11.102 L 11.305 11.102 Q 11.656 11.102 11.656 11.59 L 11.656 11.59 L 11.656 11.59 Q 11.656 11.894 11.506 12.195 L 11.506 12.195 L 11.506 12.195 Q 11.356 12.497 11.118 12.686 L 11.118 12.686 L 11.118 12.686 Q 10.88 12.875 10.64 12.875 L 10.64 12.875 L 10.64 12.875 Q 10.487 12.875 10.455 12.823 L 10.455 12.823 L 10.304 13.771 Q 10.243 13.749 9.943 13.786 L 10.354 11.848 L 10.161 12.041 L 10.161 12.041 Q 10.136 12.011 10.136 11.961 L 10.136 11.961 L 10.136 11.961 Q 10.136 11.945 10.149 11.932 L 10.149 11.932 L 10.386 11.679 L 10.491 11.11 L 10.491 11.11 Q 10.55 11.094 10.644 11.094 L 10.644 11.094 L 10.644 11.094 Q 10.717 11.094 10.773 11.122 L 10.773 11.122 L 10.773 11.122 Q 10.723 11.36 10.709 11.461 L 10.709 11.461 L 10.709 11.461 Q 11.096 11.102 11.305 11.102 Z  M 13.056 11.102 L 13.056 11.102 L 13.056 11.102 Q 13.177 11.102 13.254 11.187 L 13.254 11.187 L 13.254 11.187 Q 13.29 11.231 13.29 11.3 L 13.29 11.3 L 13.29 11.3 Q 13.29 11.38 13.252 11.429 L 13.252 11.429 L 13.252 11.429 Q 13.213 11.477 13.145 11.477 L 13.145 11.477 L 13.145 11.477 Q 13.078 11.477 13.024 11.417 L 13.024 11.417 L 13.024 11.417 Q 12.998 11.384 12.943 11.384 L 12.943 11.384 L 12.943 11.384 Q 12.873 11.384 12.754 11.54 L 12.754 11.54 L 12.754 11.54 Q 12.635 11.695 12.527 11.928 L 12.527 11.928 L 12.527 11.928 Q 12.419 12.162 12.383 12.364 L 12.383 12.364 L 12.295 12.855 L 12.295 12.855 Q 12.228 12.867 12.158 12.867 L 12.158 12.867 L 12.158 12.867 Q 12.081 12.867 12.008 12.855 L 12.008 12.855 L 12.25 11.554 L 12.25 11.554 Q 12.266 11.457 12.266 11.425 L 12.266 11.425 L 12.266 11.425 Q 12.266 11.324 12.226 11.324 L 12.226 11.324 L 12.226 11.324 Q 12.206 11.324 12.177 11.341 L 12.177 11.341 L 12.177 11.341 Q 12.147 11.358 12.118 11.382 L 12.118 11.382 L 12.118 11.382 Q 12.089 11.407 12.058 11.437 L 12.058 11.437 L 12.058 11.437 Q 12.027 11.467 12.004 11.491 L 12.004 11.491 L 12.004 11.491 Q 11.984 11.517 11.964 11.538 L 11.964 11.538 L 11.944 11.558 L 11.944 11.558 Q 11.934 11.558 11.919 11.528 L 11.919 11.528 L 11.919 11.528 Q 11.904 11.499 11.904 11.481 L 11.904 11.481 L 11.904 11.481 Q 11.956 11.392 12.122 11.247 L 12.122 11.247 L 12.122 11.247 Q 12.289 11.102 12.411 11.102 L 12.411 11.102 L 12.411 11.102 Q 12.476 11.102 12.522 11.163 L 12.522 11.163 L 12.522 11.163 Q 12.569 11.223 12.569 11.312 L 12.569 11.312 L 12.569 11.312 Q 12.569 11.356 12.536 11.525 L 12.536 11.525 L 12.536 11.525 Q 12.516 11.634 12.468 11.864 L 12.468 11.864 L 12.468 11.864 Q 12.53 11.713 12.627 11.546 L 12.627 11.546 L 12.627 11.546 Q 12.724 11.378 12.846 11.24 L 12.846 11.24 L 12.846 11.24 Q 12.968 11.102 13.056 11.102 Z  M 14.342 11.102 L 14.342 11.102 L 14.342 11.102 Q 14.483 11.102 14.545 11.175 L 14.545 11.175 L 14.545 11.175 Q 14.608 11.247 14.608 11.352 L 14.608 11.352 L 14.608 11.352 Q 14.608 11.489 14.494 11.627 L 14.494 11.627 L 14.494 11.627 Q 14.38 11.765 14.223 11.861 L 14.223 11.861 L 14.223 11.861 Q 14.066 11.957 13.908 12.017 L 13.908 12.017 L 13.908 12.017 Q 13.749 12.078 13.653 12.078 L 13.653 12.078 L 13.653 12.078 Q 13.645 12.102 13.645 12.206 L 13.645 12.206 L 13.645 12.206 Q 13.645 12.404 13.712 12.523 L 13.712 12.523 L 13.712 12.523 Q 13.78 12.642 13.923 12.642 L 13.923 12.642 L 13.923 12.642 Q 13.955 12.642 13.992 12.63 L 13.992 12.63 L 13.992 12.63 Q 14.03 12.618 14.063 12.599 L 14.063 12.599 L 14.063 12.599 Q 14.096 12.581 14.131 12.556 L 14.131 12.556 L 14.131 12.556 Q 14.167 12.531 14.194 12.507 L 14.194 12.507 L 14.194 12.507 Q 14.221 12.483 14.249 12.456 L 14.249 12.456 L 14.249 12.456 Q 14.277 12.43 14.293 12.412 L 14.293 12.412 L 14.293 12.412 Q 14.31 12.396 14.324 12.38 L 14.324 12.38 L 14.338 12.364 L 14.338 12.364 Q 14.348 12.364 14.367 12.395 L 14.367 12.395 L 14.367 12.395 Q 14.386 12.426 14.386 12.444 L 14.386 12.444 L 14.386 12.444 Q 14.362 12.485 14.302 12.551 L 14.302 12.551 L 14.302 12.551 Q 14.241 12.618 14.156 12.694 L 14.156 12.694 L 14.156 12.694 Q 14.072 12.771 13.967 12.825 L 13.967 12.825 L 13.967 12.825 Q 13.862 12.88 13.774 12.88 L 13.774 12.88 L 13.774 12.88 Q 13.56 12.88 13.445 12.728 L 13.445 12.728 L 13.445 12.728 Q 13.33 12.577 13.33 12.295 L 13.33 12.295 L 13.33 12.295 Q 13.33 12.08 13.424 11.859 L 13.424 11.859 L 13.424 11.859 Q 13.518 11.638 13.662 11.474 L 13.662 11.474 L 13.662 11.474 Q 13.806 11.31 13.988 11.206 L 13.988 11.206 L 13.988 11.206 Q 14.171 11.102 14.342 11.102 Z  M 13.661 11.977 L 13.661 11.977 L 13.661 11.977 Q 13.723 11.977 13.829 11.931 L 13.829 11.931 L 13.829 11.931 Q 13.935 11.886 14.044 11.816 L 14.044 11.816 L 14.044 11.816 Q 14.152 11.745 14.231 11.639 L 14.231 11.639 L 14.231 11.639 Q 14.31 11.533 14.31 11.429 L 14.31 11.429 L 14.31 11.429 Q 14.31 11.352 14.257 11.31 L 14.257 11.31 L 14.257 11.31 Q 14.205 11.267 14.14 11.267 L 14.14 11.267 L 14.14 11.267 Q 14.042 11.267 13.952 11.348 L 13.952 11.348 L 13.952 11.348 Q 13.862 11.429 13.803 11.546 L 13.803 11.546 L 13.803 11.546 Q 13.743 11.662 13.706 11.777 L 13.706 11.777 L 13.706 11.777 Q 13.669 11.892 13.661 11.977 Z  M 15.502 11.09 L 15.502 11.09 L 15.502 11.09 Q 15.722 11.09 15.849 11.199 L 15.849 11.199 L 15.849 11.199 Q 15.863 11.219 15.876 11.262 L 15.876 11.262 L 15.876 11.262 Q 15.889 11.306 15.889 11.328 L 15.889 11.328 L 15.889 11.328 Q 15.889 11.398 15.851 11.446 L 15.851 11.446 L 15.851 11.446 Q 15.813 11.493 15.752 11.493 L 15.752 11.493 L 15.752 11.493 Q 15.666 11.493 15.563 11.352 L 15.563 11.352 L 15.563 11.352 Q 15.561 11.348 15.548 11.329 L 15.548 11.329 L 15.548 11.329 Q 15.535 11.31 15.531 11.305 L 15.531 11.305 L 15.531 11.305 Q 15.527 11.3 15.515 11.285 L 15.515 11.285 L 15.515 11.285 Q 15.502 11.27 15.495 11.264 L 15.495 11.264 L 15.495 11.264 Q 15.488 11.259 15.473 11.25 L 15.473 11.25 L 15.473 11.25 Q 15.458 11.241 15.445 11.237 L 15.445 11.237 L 15.445 11.237 Q 15.432 11.233 15.414 11.23 L 15.414 11.23 L 15.414 11.23 Q 15.396 11.227 15.374 11.227 L 15.374 11.227 L 15.374 11.227 Q 15.279 11.227 15.227 11.301 L 15.227 11.301 L 15.227 11.301 Q 15.176 11.374 15.176 11.453 L 15.176 11.453 L 15.176 11.453 Q 15.176 11.499 15.188 11.542 L 15.188 11.542 L 15.188 11.542 Q 15.2 11.584 15.237 11.635 L 15.237 11.635 L 15.237 11.635 Q 15.273 11.687 15.291 11.711 L 15.291 11.711 L 15.291 11.711 Q 15.309 11.735 15.369 11.8 L 15.369 11.8 L 15.369 11.8 Q 15.43 11.866 15.442 11.88 L 15.442 11.88 L 15.442 11.88 Q 15.559 12.017 15.623 12.133 L 15.623 12.133 L 15.623 12.133 Q 15.688 12.249 15.688 12.384 L 15.688 12.384 L 15.688 12.384 Q 15.688 12.605 15.524 12.742 L 15.524 12.742 L 15.524 12.742 Q 15.359 12.88 15.104 12.88 L 15.104 12.88 L 15.104 12.88 Q 14.892 12.88 14.749 12.759 L 14.749 12.759 L 14.749 12.759 Q 14.709 12.692 14.709 12.638 L 14.709 12.638 L 14.709 12.638 Q 14.709 12.553 14.752 12.503 L 14.752 12.503 L 14.752 12.503 Q 14.795 12.452 14.858 12.452 L 14.858 12.452 L 14.858 12.452 Q 14.886 12.452 14.911 12.47 L 14.911 12.47 L 14.911 12.47 Q 14.936 12.489 14.95 12.51 L 14.95 12.51 L 14.95 12.51 Q 14.964 12.531 14.991 12.572 L 14.991 12.572 L 14.991 12.572 Q 15.017 12.614 15.031 12.634 L 15.031 12.634 L 15.031 12.634 Q 15.118 12.751 15.245 12.751 L 15.245 12.751 L 15.245 12.751 Q 15.351 12.751 15.397 12.677 L 15.397 12.677 L 15.397 12.677 Q 15.442 12.603 15.442 12.517 L 15.442 12.517 L 15.442 12.517 Q 15.442 12.497 15.438 12.476 L 15.438 12.476 L 15.438 12.476 Q 15.434 12.454 15.431 12.437 L 15.431 12.437 L 15.431 12.437 Q 15.428 12.42 15.417 12.397 L 15.417 12.397 L 15.417 12.397 Q 15.406 12.374 15.4 12.361 L 15.4 12.361 L 15.4 12.361 Q 15.394 12.348 15.377 12.323 L 15.377 12.323 L 15.377 12.323 Q 15.359 12.299 15.352 12.289 L 15.352 12.289 L 15.352 12.289 Q 15.345 12.279 15.323 12.252 L 15.323 12.252 L 15.323 12.252 Q 15.301 12.225 15.295 12.218 L 15.295 12.218 L 15.295 12.218 Q 15.289 12.211 15.263 12.181 L 15.263 12.181 L 15.263 12.181 Q 15.237 12.152 15.232 12.146 L 15.232 12.146 L 15.232 12.146 Q 15.158 12.063 15.124 12.022 L 15.124 12.022 L 15.124 12.022 Q 15.089 11.981 15.038 11.904 L 15.038 11.904 L 15.038 11.904 Q 14.987 11.828 14.964 11.754 L 14.964 11.754 L 14.964 11.754 Q 14.942 11.681 14.942 11.598 L 14.942 11.598 L 14.942 11.598 Q 14.942 11.415 15.103 11.252 L 15.103 11.252 L 15.103 11.252 Q 15.263 11.09 15.502 11.09 Z  M 16.8 11.09 L 16.8 11.09 L 16.8 11.09 Q 17.02 11.09 17.147 11.199 L 17.147 11.199 L 17.147 11.199 Q 17.161 11.219 17.174 11.262 L 17.174 11.262 L 17.174 11.262 Q 17.187 11.306 17.187 11.328 L 17.187 11.328 L 17.187 11.328 Q 17.187 11.398 17.149 11.446 L 17.149 11.446 L 17.149 11.446 Q 17.11 11.493 17.05 11.493 L 17.05 11.493 L 17.05 11.493 Q 16.963 11.493 16.861 11.352 L 16.861 11.352 L 16.861 11.352 Q 16.859 11.348 16.845 11.329 L 16.845 11.329 L 16.845 11.329 Q 16.832 11.31 16.828 11.305 L 16.828 11.305 L 16.828 11.305 Q 16.824 11.3 16.812 11.285 L 16.812 11.285 L 16.812 11.285 Q 16.8 11.27 16.793 11.264 L 16.793 11.264 L 16.793 11.264 Q 16.786 11.259 16.771 11.25 L 16.771 11.25 L 16.771 11.25 Q 16.756 11.241 16.743 11.237 L 16.743 11.237 L 16.743 11.237 Q 16.73 11.233 16.711 11.23 L 16.711 11.23 L 16.711 11.23 Q 16.693 11.227 16.671 11.227 L 16.671 11.227 L 16.671 11.227 Q 16.576 11.227 16.525 11.301 L 16.525 11.301 L 16.525 11.301 Q 16.474 11.374 16.474 11.453 L 16.474 11.453 L 16.474 11.453 Q 16.474 11.499 16.486 11.542 L 16.486 11.542 L 16.486 11.542 Q 16.498 11.584 16.534 11.635 L 16.534 11.635 L 16.534 11.635 Q 16.57 11.687 16.589 11.711 L 16.589 11.711 L 16.589 11.711 Q 16.607 11.735 16.667 11.8 L 16.667 11.8 L 16.667 11.8 Q 16.728 11.866 16.74 11.88 L 16.74 11.88 L 16.74 11.88 Q 16.857 12.017 16.921 12.133 L 16.921 12.133 L 16.921 12.133 Q 16.986 12.249 16.986 12.384 L 16.986 12.384 L 16.986 12.384 Q 16.986 12.605 16.821 12.742 L 16.821 12.742 L 16.821 12.742 Q 16.657 12.88 16.401 12.88 L 16.401 12.88 L 16.401 12.88 Q 16.19 12.88 16.047 12.759 L 16.047 12.759 L 16.047 12.759 Q 16.006 12.692 16.006 12.638 L 16.006 12.638 L 16.006 12.638 Q 16.006 12.553 16.05 12.503 L 16.05 12.503 L 16.05 12.503 Q 16.093 12.452 16.155 12.452 L 16.155 12.452 L 16.155 12.452 Q 16.184 12.452 16.209 12.47 L 16.209 12.47 L 16.209 12.47 Q 16.234 12.489 16.248 12.51 L 16.248 12.51 L 16.248 12.51 Q 16.262 12.531 16.288 12.572 L 16.288 12.572 L 16.288 12.572 Q 16.315 12.614 16.329 12.634 L 16.329 12.634 L 16.329 12.634 Q 16.415 12.751 16.542 12.751 L 16.542 12.751 L 16.542 12.751 Q 16.649 12.751 16.694 12.677 L 16.694 12.677 L 16.694 12.677 Q 16.74 12.603 16.74 12.517 L 16.74 12.517 L 16.74 12.517 Q 16.74 12.497 16.736 12.476 L 16.736 12.476 L 16.736 12.476 Q 16.732 12.454 16.729 12.437 L 16.729 12.437 L 16.729 12.437 Q 16.726 12.42 16.715 12.397 L 16.715 12.397 L 16.715 12.397 Q 16.703 12.374 16.697 12.361 L 16.697 12.361 L 16.697 12.361 Q 16.691 12.348 16.674 12.323 L 16.674 12.323 L 16.674 12.323 Q 16.657 12.299 16.65 12.289 L 16.65 12.289 L 16.65 12.289 Q 16.643 12.279 16.621 12.252 L 16.621 12.252 L 16.621 12.252 Q 16.599 12.225 16.593 12.218 L 16.593 12.218 L 16.593 12.218 Q 16.587 12.211 16.56 12.181 L 16.56 12.181 L 16.56 12.181 Q 16.534 12.152 16.53 12.146 L 16.53 12.146 L 16.53 12.146 Q 16.456 12.063 16.421 12.022 L 16.421 12.022 L 16.421 12.022 Q 16.387 11.981 16.336 11.904 L 16.336 11.904 L 16.336 11.904 Q 16.284 11.828 16.262 11.754 L 16.262 11.754 L 16.262 11.754 Q 16.24 11.681 16.24 11.598 L 16.24 11.598 L 16.24 11.598 Q 16.24 11.415 16.4 11.252 L 16.4 11.252 L 16.4 11.252 Q 16.56 11.09 16.8 11.09 Z " fill="rgb(0,84,164)"/><path d=" M 6.626 9.6 C 6.372 9.6 6.167 9.746 6.068 9.849 C 6.068 9.849 5.826 10.088 5.663 10.171 C 5.656 10.175 5.656 10.182 5.666 10.182 L 7.143 10.182 C 7.435 10.182 7.573 10.084 7.746 9.928 C 7.746 9.928 7.998 9.694 8.171 9.618 C 8.189 9.612 8.185 9.6 8.171 9.6 L 6.626 9.6 Z  M 9.164 9.6 C 8.91 9.6 8.705 9.746 8.606 9.849 C 8.606 9.849 8.364 10.088 8.201 10.171 C 8.194 10.175 8.194 10.182 8.204 10.182 L 9.684 10.182 C 9.976 10.182 10.114 10.084 10.287 9.928 C 10.287 9.928 10.536 9.694 10.709 9.618 C 10.727 9.612 10.726 9.6 10.712 9.6 L 9.164 9.6 L 9.164 9.6 Z  M 11.705 9.6 C 11.451 9.6 11.246 9.746 11.147 9.849 C 11.147 9.849 10.905 10.088 10.742 10.171 C 10.735 10.175 10.735 10.182 10.745 10.182 L 12.225 10.182 C 12.517 10.182 12.652 10.084 12.825 9.928 C 12.825 9.928 13.077 9.694 13.25 9.618 C 13.268 9.612 13.266 9.6 13.253 9.6 L 11.705 9.6 Z  M 14.243 9.6 C 13.989 9.6 13.787 9.746 13.688 9.849 C 13.688 9.849 13.443 10.088 13.28 10.171 C 13.273 10.175 13.273 10.182 13.283 10.182 L 14.763 10.182 C 15.055 10.182 15.192 10.084 15.366 9.928 C 15.366 9.928 15.618 9.694 15.791 9.618 C 15.809 9.612 15.804 9.6 15.791 9.6 L 14.243 9.6 Z  M 16.784 9.6 C 16.53 9.6 16.325 9.746 16.225 9.849 C 16.225 9.849 15.984 10.088 15.821 10.171 C 15.813 10.175 15.814 10.182 15.824 10.182 L 17.304 10.182 C 17.596 10.182 17.733 10.084 17.907 9.928 C 17.907 9.928 18.156 9.694 18.329 9.618 C 18.346 9.612 18.345 9.6 18.332 9.6 L 16.784 9.6 L 16.784 9.6 Z " fill="rgb(0,84,164)" vector-effect="non-scaling-stroke" stroke-width="0.079" stroke="rgb(255,255,255)" stroke-linejoin="miter" stroke-linecap="butt" stroke-miterlimit="11.47399998"/><path d=" M 11.797 6.39 C 11.257 6.39 10.73 6.55 10.73 7.087 C 10.73 8.017 12.352 7.526 12.352 8.095 C 12.352 8.28 12.064 8.355 11.832 8.355 C 11.415 8.355 11.127 8.293 10.763 8.074 L 10.763 8.541 C 11.034 8.631 11.404 8.674 11.806 8.674 C 12.366 8.674 12.89 8.529 12.89 7.98 C 12.89 7.009 11.268 7.445 11.268 6.969 C 11.268 6.778 11.528 6.712 11.755 6.712 C 12.138 6.712 12.551 6.824 12.778 7.034 L 12.778 6.538 C 12.484 6.445 12.094 6.39 11.797 6.39 L 11.797 6.39 Z  M 14.663 6.396 C 13.689 6.396 13.044 6.864 13.044 7.578 C 13.044 8.233 13.635 8.671 14.521 8.671 C 14.808 8.671 15.064 8.633 15.363 8.562 L 15.363 8.009 C 15.151 8.233 14.9 8.322 14.63 8.322 C 14.107 8.322 13.75 7.996 13.75 7.527 C 13.75 7.065 14.12 6.727 14.639 6.727 C 14.921 6.727 15.148 6.829 15.33 7.008 L 15.33 6.455 C 15.141 6.416 14.903 6.396 14.663 6.396 L 14.663 6.396 Z  M 16.935 6.396 C 16.095 6.396 15.502 6.879 15.502 7.56 C 15.502 8.228 16.035 8.671 16.828 8.671 C 17.671 8.671 18.252 8.2 18.252 7.516 C 18.252 6.845 17.724 6.396 16.935 6.396 L 16.935 6.396 Z  M 5.746 6.464 L 5.746 6.987 C 5.928 6.845 6.31 6.792 6.727 6.789 L 6.727 8.216 C 6.727 8.423 6.708 8.483 6.62 8.591 L 7.445 8.591 C 7.352 8.483 7.338 8.423 7.338 8.216 L 7.338 6.777 C 7.699 6.78 8.131 6.845 8.313 6.987 L 8.313 6.464 L 5.746 6.464 L 5.746 6.464 Z  M 8.535 6.464 C 8.621 6.572 8.638 6.634 8.638 6.842 L 8.638 8.216 C 8.638 8.423 8.623 8.486 8.541 8.591 L 10.532 8.591 L 10.532 8.074 C 10.259 8.269 9.739 8.269 9.528 8.266 L 9.238 8.266 L 9.238 7.672 L 9.451 7.672 C 9.595 7.672 9.855 7.689 10.006 7.734 L 10.006 7.291 C 9.857 7.339 9.594 7.353 9.451 7.353 L 9.238 7.353 L 9.238 6.789 L 9.528 6.789 C 9.786 6.789 10.236 6.843 10.405 6.984 L 10.405 6.464 L 8.535 6.464 L 8.535 6.464 Z  M 16.879 6.718 C 17.318 6.718 17.608 7.082 17.608 7.531 C 17.608 7.979 17.318 8.343 16.879 8.343 C 16.432 8.343 16.146 7.979 16.146 7.531 C 16.146 7.082 16.432 6.718 16.879 6.718 Z " fill="rgb(240,46,37)" vector-effect="non-scaling-stroke" stroke-width="0.03" stroke="rgb(255,255,255)" stroke-linejoin="miter" stroke-linecap="butt" stroke-miterlimit="3.86400008"/></g></g></svg>