<?xml version="1.0" encoding="UTF-8" standalone="no"?>
<svg
   viewBox="0 0 18.040001 21.999998"
   width="18.040001pt"
   height="21.999998pt"
   version="1.1"
   id="svg26"
   xmlns="http://www.w3.org/2000/svg"
   xmlns:svg="http://www.w3.org/2000/svg">
  <defs
     id="defs30" />
  <path
     d="M 15.239,15.551 C 16.916,13.836 18.04,11.588 18.04,9.02 18.04,4.042 13.998,0 9.02,0 4.042,0 -1.9073488e-8,4.042 -1.9073488e-8,9.02 -1.9073488e-8,11.62 1.027,13.787 2.864,15.61 v 0 L 8.653,22 15.25,15.551 Z"
     fill="#FF69B4"
     id="path24"
     style="fill:#016421;fill-opacity:1" />
  <path
     d="m 3.6434241,11.644293 0.1301358,-0.672368 c 2.1255492,1.344736 4.8583991,1.344736 6.9839491,0 l 0.130136,0.672368 c -2.12555,1.670075 -5.1186717,1.670075 -7.2442209,0 z M 12.058867,8.5427259 c 0.238581,0.04338 0.498853,0.021686 0.715746,-0.1084465 0.173515,-0.1084465 0.281961,-0.281961 0.325339,-0.4771647 0.04338,-0.1952028 0.06507,-0.3687173 0.08676,-0.563921 h 0.824193 v 0.3036502 c -0.02169,0.2602708 -0.08676,0.4988531 -0.195203,0.7157462 -0.08676,0.1735145 -0.238583,0.3253387 -0.390408,0.4337851 -0.04338,0.02169 -0.08676,0.06507 -0.130136,0.08676 0.04338,0.06507 0.08676,0.1518248 0.108447,0.2168928 0.216893,0.390407 0.433786,0.759125 0.672368,1.149532 l 0.06507,0.130136 c 0.02169,0.04338 0.02169,0.08676 0.02169,0.130136 h -0.91095 l -0.715747,-1.301358 -0.477164,0.04338 v 1.279667 H 11.169606 V 6.28704 h 0.889261 z M 3.426531,7.3715044 c 0,0.04338 -0.021686,0.086761 -0.043381,0.1518251 L 2.9276761,8.3041436 C 2.6457151,8.7813074 2.3637541,9.258472 2.1034834,9.735636 c 0,0.02168 -0.021686,0.04338 -0.021686,0.06507 H 2.754165 3.4265325 V 10.58152 H 0.78044038 c 0,-0.04338 0.021686,-0.08676 0.043381,-0.130135 C 0.95395668,10.212798 1.0840926,9.995905 1.2142284,9.779012 1.3443633,9.56212 1.4528098,9.366916 1.5829457,9.150023 1.7564601,8.8463732 1.9299745,8.5427241 2.103489,8.2607631 2.125175,8.2390771 2.125175,8.2173831 2.146869,8.1740021 H 1.8215299 1.5178796 0.88889068 V 7.3714987 Z M 2.1902415,7.0678541 C 2.0601066,7.0895396 1.9516601,7.0461685 1.8649029,6.9594076 1.734767,6.850962 1.6696991,6.6557582 1.734767,6.4822438 1.7781475,6.3304186 1.9299708,6.2002828 2.1034852,6.1785935 2.2553095,6.135213 2.4288239,6.200279 2.5372704,6.3087293 2.6674063,6.4388651 2.6890956,6.6123796 2.645717,6.785894 2.5806509,6.9594076 2.4288239,7.0678541 2.2553095,7.0678541 c -0.021686,0.021686 -0.043381,0.021686 -0.065066,0 z M 10.540616,8.3692115 C 10.453855,8.0655612 10.280346,7.7836012 10.020074,7.5883974 9.781492,7.414883 9.52122,7.3281257 9.23926,7.3281257 9.000678,7.3064397 8.740406,7.3498117 8.501824,7.4365723 c -0.02168,0 -0.06507,0.021686 -0.08676,0.021686 V 6.28704 H 7.525803 v 4.099275 c 0.130135,0.04338 0.260271,0.06507 0.390406,0.08676 0.216894,0.06507 0.433787,0.108445 0.672368,0.151824 0.347029,0.04338 0.694058,0 1.041086,-0.108446 0.520543,-0.151825 0.91095,-0.585611 0.976018,-1.127843 0.04338,-0.325339 0.04338,-0.6940571 -0.06507,-1.0193958 z M 9.694734,9.431986 C 9.629664,9.648879 9.456152,9.822393 9.23926,9.865771 8.978988,9.930841 8.697027,9.909151 8.458446,9.822391 c 0,0 -0.02169,0 -0.02169,-0.02169 V 8.2173882 c 0.30365,-0.216893 0.715746,-0.216893 1.019396,-0.021686 0.108446,0.086761 0.173514,0.1952037 0.216893,0.3253395 0.08676,0.2819595 0.108446,0.6072983 0.02168,0.9109493 z M 6.7016125,7.5883974 C 6.4847203,7.5016365 6.246138,7.4365723 6.0075556,7.3931937 5.682217,7.3281276 5.3568774,7.3064327 5.0315378,7.3281276 4.7495777,7.3498132 4.4676168,7.4799528 4.2507237,7.6968458 4.05552,7.9137379 3.9036958,8.1740096 3.8603171,8.4559706 c -0.04338,0.2168921 -0.065066,0.4337856 -0.065066,0.6506774 0,0.281961 0.065066,0.542233 0.1952028,0.780815 0.1084465,0.195203 0.2602717,0.368718 0.4554754,0.477164 0.4337852,0.238582 0.9326393,0.325339 1.409803,0.238582 0.3470289,-0.04338 0.6723685,-0.151825 1.0193965,-0.216892 V 7.6751565 C 6.8317483,7.653471 6.7666823,7.6100905 6.7016143,7.5883955 Z M 6.0075556,9.822393 c -0.3036493,0.108446 -0.6289889,0.130136 -0.9326392,0 C 4.9230913,9.757327 4.8146457,9.648879 4.7495777,9.475365 4.6411312,9.128336 4.6411312,8.7813074 4.7712633,8.4342794 4.8580149,8.2173864 5.0749127,8.0655612 5.2918057,8.0438719 c 0.2168931,-0.021686 0.4554745,0 0.6506783,0.1084465 0.021686,0 0.021686,0.021686 0.04338,0.021686 z M 17.177537,7.5450188 c -0.260271,-0.086761 -0.520542,-0.1518251 -0.802503,-0.1952037 -0.260272,-0.04338 -0.542232,-0.04338 -0.824193,0 -0.498854,0.086761 -0.88926,0.4554744 -1.041085,0.9326392 -0.108447,0.3687182 -0.151825,0.7591247 -0.08676,1.1495317 0.04338,0.347028 0.216893,0.672368 0.498853,0.889261 0.06507,0.04338 0.151825,0.108446 0.216893,0.130136 0.173514,0.08676 0.390407,0.151824 0.585611,0.173513 0.238582,0.04338 0.477164,0.04338 0.715746,0 0.347028,-0.06507 0.694057,-0.151824 1.019397,-0.216892 V 7.6751546 c -0.08676,-0.04338 -0.173515,-0.086761 -0.281961,-0.1301358 z M 16.613616,9.822393 c -0.04338,0.02168 -0.06507,0.02168 -0.108446,0.02168 -0.173515,0.04338 -0.347029,0.06507 -0.542233,0.06507 -0.216892,0 -0.412096,-0.108446 -0.542231,-0.28196 C 15.355636,9.540423 15.312259,9.43198 15.29057,9.323533 15.24719,9.063261 15.24719,8.8029902 15.33395,8.5427193 15.39902,8.2824477 15.6376,8.0872439 15.897872,8.0655546 c 0.238582,-0.04338 0.477164,0 0.694057,0.1301358 z"
     style="fill:#ffffff;fill-opacity:1;stroke-width:0.216893"
     id="path9843" />
</svg>
