<?xml version="1.0" encoding="UTF-8" standalone="no"?>
<!-- Uploaded to: SVG Repo, www.svgrepo.com, Generator: SVG Repo Mixer Tools -->

<svg
   width="449.56555"
   height="382.13071"
   viewBox="0 0 13.486967 11.463921"
   fill="none"
   version="1.1"
   id="svg11417"
   xmlns="http://www.w3.org/2000/svg"
   xmlns:svg="http://www.w3.org/2000/svg">
  <defs
     id="defs11421" />
  <path
     d="M 0.67435002,3.0345683 2.5098378,4.5641247 C 2.6310249,4.665142 2.783785,4.7204386 2.941542,4.7204386 h 7.603848 c 0.157797,0 0.310537,-0.055297 0.431718,-0.1563139 L 12.812616,3.0345683 M 3.0345683,7.080657 h 0.00674 m 7.4110857,0 h 0.0067 M 4.1544245,0.67435002 h 5.1781507 c 0.4839796,0 0.9308698,0.25933405 1.1709378,0.67955408 l 1.953721,3.4189313 c 0.232853,0.407576 0.355382,0.8688301 0.355382,1.3383112 v 4.0040764 c 0,0.372443 -0.301906,0.674348 -0.674348,0.674348 h -0.674349 c -0.372442,0 -0.674348,-0.301905 -0.674348,-0.674348 V 9.4408753 H 2.6973943 v 0.6743477 c 0,0.372443 -0.3019192,0.674348 -0.6743481,0.674348 H 1.3486981 c -0.37242895,0 -0.67434808,-0.301905 -0.67434808,-0.674348 V 6.1111466 c 0,-0.4694811 0.12250208,-0.9307352 0.35540168,-1.3383112 L 2.9834258,1.3539041 C 3.2235476,0.93368407 3.6704314,0.67435002 4.1544245,0.67435002 Z M 3.3717424,7.080657 c 0,0.1861875 -0.1509596,0.3371741 -0.3371741,0.3371741 -0.1862145,0 -0.337174,-0.1509866 -0.337174,-0.3371741 0,-0.1861875 0.1509595,-0.3371742 0.337174,-0.3371742 0.1862145,0 0.3371741,0.1509867 0.3371741,0.3371742 z m 7.4178286,0 c 0,0.1861875 -0.150986,0.3371741 -0.337174,0.3371741 -0.186187,0 -0.337174,-0.1509866 -0.337174,-0.3371741 0,-0.1861875 0.150987,-0.3371742 0.337174,-0.3371742 0.186188,0 0.337174,0.1509867 0.337174,0.3371742 z"
     stroke="#000000"
     stroke-width="1.3487"
     stroke-linecap="round"
     stroke-linejoin="round"
     id="path11415"
     style="stroke:#ffffff;stroke-opacity:1" />
</svg>
