<?xml version="1.0" encoding="UTF-8" standalone="no"?>
<!-- Uploaded to: SVG Repo, www.svgrepo.com, Generator: SVG Repo Mixer Tools -->

<svg
   fill="#000000"
   width="391.6701"
   height="391.6701"
   viewBox="0 0 48.958763 48.958763"
   version="1.1"
   xml:space="preserve"
   id="svg13474"
   xmlns="http://www.w3.org/2000/svg"
   xmlns:svg="http://www.w3.org/2000/svg"><defs
   id="defs13478" />







<g
   id="bakery"
   transform="translate(-0.26288658,-0.13402058)">

<g
   id="g13455"
   style="fill:#ffffff"
   transform="matrix(0.53216047,0,0,0.53216047,-1.8657553,-1.9946213)">

<path
   d="M 95,50 H 90.1 C 92,46.3 93,42.2 93,38 93,23.7 81.4,12 67.1,12 c -6,0 -11.9,2.1 -16.5,6 H 31 V 16 C 31,9.4 25.6,4 19,4 12.4,4 7,9.4 7,16 V 50 H 5 c -0.6,0 -1,0.4 -1,1 v 6 c 0,0.6 0.4,1 1,1 H 6.1 L 11,95.1 c 0.1,0.5 0.5,0.9 1,0.9 h 76 c 0.5,0 0.9,-0.4 1,-0.9 L 93.9,58 H 95 c 0.6,0 1,-0.4 1,-1 v -6 c 0,-0.6 -0.4,-1 -1,-1 z M 67.1,14 C 80.3,14 91,24.8 91,38 c 0,4.2 -1.1,8.4 -3.2,12 H 59 v -7.9 c 1.5,2.9 4.5,4.9 8,4.9 5,0 9,-4 9,-9 0,-5 -4,-9 -9,-9 -3.5,0 -6.5,2 -8,4.9 v -2.1 c 0,-0.9 0.3,-1.7 0.9,-2.3 L 62.4,27 c 1,-1 1.5,-2.3 1.5,-3.7 0,-2.9 -2.4,-5.2 -5.2,-5.2 H 54 C 57.9,15.4 62.4,14 67.1,14 Z M 60,38 c 0,-3.9 3.1,-7 7,-7 3.9,0 7,3.1 7,7 0,3.9 -3.1,7 -7,7 -3.9,0 -7,-3.1 -7,-7 z M 58.8,20 c 1.8,0 3.2,1.5 3.2,3.2 0,0.9 -0.3,1.7 -0.9,2.3 L 58.6,28 c -1,1 -1.5,2.3 -1.5,3.7 V 50 H 31 V 20 Z M 9,16 C 9,10.5 13.5,6 19,6 24.5,6 29,10.5 29,16 V 50 H 9 Z m 73.1,42 1.1,7 h -9 l -1.1,-7 z m 7.5,17 h -2.8 l -1.3,-8 h 5.1 z m -26.8,0 h -9 l -1.3,-8 h 9 z m 0.8,-8 h 9 l 1.3,8 h -9 z M 43.2,77 h 9 l 1.3,8 h -9 z m -0.8,8 h -9 l -1.3,-8 h 9 z m 11.8,-8 h 9 l 1.3,8 h -9 z m -2.4,-2 h -9 l -1.3,-8 h 9 z m -11,0 h -9 l -1.3,-8 h 9 z m -11,0 h -9 l -1.3,-8 h 9 z m -11,0 H 10.3 L 9.2,67 h 8.2 z m -8.2,2 h 8.5 l 1.3,8 h -8.7 z m 10.6,0 h 9 l 1.3,8 h -9 z m 10.5,10 1.1,7 h -9 l -1.1,-7 z m 2,0 h 9 l 1.1,7 h -9 z m 11,0 h 9 l 1.1,7 h -9 z m 11,0 h 9 l 1.1,7 h -9 z m 11,0 h 9 l 1.1,7 h -9 z m -0.3,-2 -1.3,-8 h 9 l 1.3,8 z m 9.8,-8 h 9 l 1.3,8 h -9 z M 88.4,84.6 87.2,77 h 2.2 z M 84.8,75 h -9 l -1.3,-8 h 9 z m -13.7,-17 1.1,7 h -9 l -1.1,-7 z m -11,0 1.1,7 h -9 l -1.1,-7 z m -11,0 1.1,7 h -9 l -1.1,-7 z m -11,0 1.1,7 h -9 l -1.1,-7 z m -11,0 1.1,7 h -9 l -1.1,-7 z m -11,0 1.1,7 H 9.1 L 8.2,58 Z M 12,87 h 8.8 l 1.1,7 h -9 z m 66.9,7 -1.1,-7 h 9 l 0.7,4.6 -0.4,2.4 z m 12,-29 h -5.7 l -1.1,-7 h 7.7 z M 94,56 H 93 7 6 v -4 h 2 22 64 z"
   id="path13447"
   style="fill:#ffffff" />

<path
   d="m 19,14 c -1.5,0 -9,0.1 -9,3 0,2.9 7.5,3 9,3 1.5,0 9,-0.1 9,-3 0,-2.9 -7.5,-3 -9,-3 z m 0,4 c -3.5,0 -5.9,-0.6 -6.7,-1 0.9,-0.4 3.2,-1 6.7,-1 3.5,0 5.9,0.6 6.7,1 -0.8,0.4 -3.2,1 -6.7,1 z"
   id="path13449"
   style="fill:#ffffff" />

<path
   d="m 19,26 c -1.5,0 -9,0.1 -9,3 0,2.9 7.5,3 9,3 1.5,0 9,-0.1 9,-3 0,-2.9 -7.5,-3 -9,-3 z m 0,4 c -3.5,0 -5.9,-0.6 -6.7,-1 0.9,-0.4 3.2,-1 6.7,-1 3.5,0 5.9,0.6 6.7,1 -0.8,0.4 -3.2,1 -6.7,1 z"
   id="path13451"
   style="fill:#ffffff" />

<path
   d="m 19,38 c -1.5,0 -9,0.1 -9,3 0,2.9 7.5,3 9,3 1.5,0 9,-0.1 9,-3 0,-2.9 -7.5,-3 -9,-3 z m 0,4 c -3.5,0 -5.9,-0.6 -6.7,-1 0.9,-0.4 3.2,-1 6.7,-1 3.5,0 5.9,0.6 6.7,1 -0.8,0.4 -3.2,1 -6.7,1 z"
   id="path13453"
   style="fill:#ffffff" />

</g>

</g>

































</svg>
