<?xml version="1.0" encoding="UTF-8" standalone="no"?>
<!-- Created with Inkscape (http://www.inkscape.org/) -->

<svg
   width="99.642876mm"
   height="95.491081mm"
   viewBox="0 0 99.642876 95.491081"
   version="1.1"
   id="svg5"
   xmlns="http://www.w3.org/2000/svg"
   xmlns:svg="http://www.w3.org/2000/svg">
  <defs
     id="defs2" />
  <g
     id="layer1"
     transform="translate(-1.3814438,-0.86141489)">
    <path
       fill-rule="evenodd"
       clip-rule="evenodd"
       d="m 1.3814437,79.745357 c 0,-14.423304 9.1937713,-26.699862 22.0407813,-31.287864 3.491707,-1.247196 7.253282,-1.926428 11.173509,-1.926428 3.920228,0 7.681912,0.679232 11.173288,1.926428 1.897089,0.677019 3.71391,1.522322 5.433858,2.51709 1.719946,-0.994768 3.536768,-1.840071 5.433857,-2.51709 3.491376,-1.247196 7.252897,-1.926428 11.17329,-1.926428 3.920393,0 7.681911,0.679232 11.17329,1.926428 12.847284,4.588002 22.041003,16.86456 22.041003,31.287864 V 96.352501 H 71.961811 v -8.303576 h 20.758934 v -8.303568 c 0,-13.757916 -11.152802,-24.91072 -24.910718,-24.91072 -3.305375,0 -6.460181,0.643805 -9.346504,1.812947 5.78593,5.977465 9.346504,14.12161 9.346504,23.097773 V 96.352501 H 1.3814437 Z M 34.595734,42.379278 c -3.813887,0 -7.387522,-1.028536 -10.458737,-2.823214 -6.16114,-3.600429 -10.300194,-10.28475 -10.300194,-17.935717 0,-11.464854 9.294078,-20.75893211 20.758931,-20.75893211 6.790662,0 12.819609,3.26059161 16.607146,8.30152491 3.787536,-5.0409333 9.816484,-8.30152491 16.607147,-8.30152491 11.465019,0 20.758934,9.29407811 20.758934,20.75893211 0,7.650967 -4.139055,14.335288 -10.300305,17.935717 -3.071216,1.794678 -6.644519,2.823214 -10.458629,2.823214 -3.814109,0 -7.387415,-1.028536 -10.458629,-2.823214 -2.397518,-1.40109 -4.488357,-3.26884 -6.148518,-5.478365 -1.660162,2.210079 -3.751001,4.077275 -6.148519,5.478365 -3.071215,1.794678 -6.644741,2.823214 -10.458627,2.823214 z m 24.910717,37.366079 v 8.303568 H 9.6850162 v -8.303568 c 0,-13.757916 11.1529158,-24.91072 24.9107178,-24.91072 13.757913,0 24.910717,11.152804 24.910717,24.91072 z M 47.051094,21.620347 c 0,6.878901 -5.576681,12.455359 -12.45536,12.455359 -6.878901,0 -12.455359,-5.576458 -12.455359,-12.455359 0,-6.878901 5.576458,-12.4553591 12.455359,-12.4553591 6.878679,0 12.45536,5.5764581 12.45536,12.4553591 z M 67.810027,9.1649879 c -6.878681,0 -12.455361,5.5764581 -12.455361,12.4553591 0,6.878901 5.57668,12.455359 12.455361,12.455359 6.878679,0 12.45536,-5.576458 12.45536,-12.455359 0,-6.878901 -5.576681,-12.4553591 -12.45536,-12.4553591 z"
       fill="#080341"
       id="path4920"
       style="fill:#ffffff;stroke-width:5.53571" />
  </g>
</svg>
