<?xml version="1.0" encoding="UTF-8" standalone="no"?>
<!-- Created with Inkscape (http://www.inkscape.org/) -->

<svg
   width="86.507347mm"
   height="75.430984mm"
   viewBox="0 0 86.507347 75.430984"
   version="1.1"
   id="svg5"
   xmlns="http://www.w3.org/2000/svg"
   xmlns:svg="http://www.w3.org/2000/svg">
  <defs
     id="defs2" />
  <g
     id="layer1"
     transform="translate(-1.7002303,-1.0918032)">
    <path
       d="M 88.207562,29.435665 A 6.6493643,6.6493643 0 0 0 84.855845,23.651258 L 48.419491,2.0273082 a 6.8656039,6.8656039 0 0 0 -6.919666,0 L 5.0094103,23.651258 a 6.7574846,6.7574846 0 0 0 0,11.622873 l 10.3794957,6.054706 v 15.190825 a 6.9196642,6.9196642 0 0 0 3.351713,5.892524 l 22.975446,13.244672 a 6.9196642,6.9196642 0 0 0 6.703426,0 L 71.394938,62.412186 a 6.9196642,6.9196642 0 0 0 3.351713,-5.892524 V 41.166657 l 6.703424,-3.946371 v 14.704289 h 6.757487 z M 68.043226,56.4656 44.959658,69.764329 22.146391,56.519662 V 45.329269 l 19.353434,11.514752 a 6.9737236,6.9737236 0 0 0 6.919666,0 L 67.989164,45.167087 Z M 44.959658,51.005555 8.4692427,29.381604 44.959658,7.7035949 81.450075,29.327545 Z"
       id="path3285"
       style="fill:#ffffff;stroke-width:5.40599" />
  </g>
</svg>
