<?xml version="1.0" encoding="UTF-8" standalone="no"?>
<!-- Uploaded to: SVG Repo, www.svgrepo.com, Generator: SVG Repo Mixer Tools -->

<svg
   fill="#000000"
   height="301.96182"
   width="331.00916"
   version="1.1"
   id="Layer_1"
   viewBox="0 0 211.84586 193.25557"
   xml:space="preserve"
   xmlns="http://www.w3.org/2000/svg"
   xmlns:svg="http://www.w3.org/2000/svg"><defs
   id="defs15565" />
<g
   id="g15476"
   transform="matrix(0.41376146,0,0,0.41376146,-1.0919891,-0.83223638)"
   style="fill:#ffffff">
	<g
   id="g15474"
   style="fill:#ffffff">
		<path
   d="M 109.192,59.037 H 72.62 c -5.771,0 -10.449,4.678 -10.449,10.449 v 57.469 c 0,5.771 4.678,10.449 10.449,10.449 h 36.571 c 5.771,0 10.449,-4.678 10.449,-10.449 V 69.486 c 0.001,-5.771 -4.677,-10.449 -10.448,-10.449 z M 98.743,116.506 H 83.069 V 79.935 h 15.673 v 36.571 z"
   id="path15472"
   style="fill:#ffffff" />
	</g>
</g>
<g
   id="g15482"
   transform="matrix(0.41376146,0,0,0.41376146,-1.0919891,-0.83223638)"
   style="fill:#ffffff">
	<g
   id="g15480"
   style="fill:#ffffff">
		<path
   d="m 182.335,59.037 h -36.571 c -5.771,0 -10.449,4.678 -10.449,10.449 v 57.469 c 0,5.771 4.678,10.449 10.449,10.449 h 36.571 c 5.771,0 10.449,-4.678 10.449,-10.449 V 69.486 c 0,-5.771 -4.678,-10.449 -10.449,-10.449 z m -10.449,57.469 H 156.213 V 79.935 h 15.673 z"
   id="path15478"
   style="fill:#ffffff" />
	</g>
</g>
<g
   id="g15488"
   transform="matrix(0.41376146,0,0,0.41376146,-1.0919891,-0.83223638)"
   style="fill:#ffffff">
	<g
   id="g15486"
   style="fill:#ffffff">
		<path
   d="M 109.192,161.437 H 72.62 c -5.771,0 -10.449,4.678 -10.449,10.449 v 57.469 c 0,5.771 4.678,10.449 10.449,10.449 h 36.571 c 5.771,0 10.449,-4.678 10.449,-10.449 v -57.469 c 0.001,-5.771 -4.677,-10.449 -10.448,-10.449 z M 98.743,218.906 H 83.069 v -36.571 h 15.673 v 36.571 z"
   id="path15484"
   style="fill:#ffffff" />
	</g>
</g>
<g
   id="g15494"
   transform="matrix(0.41376146,0,0,0.41376146,-1.0919891,-0.83223638)"
   style="fill:#ffffff">
	<g
   id="g15492"
   style="fill:#ffffff">
		<path
   d="m 182.335,161.437 h -36.571 c -5.771,0 -10.449,4.678 -10.449,10.449 v 57.469 c 0,5.771 4.678,10.449 10.449,10.449 h 36.571 c 5.771,0 10.449,-4.678 10.449,-10.449 v -57.469 c 0,-5.771 -4.678,-10.449 -10.449,-10.449 z m -10.449,57.469 h -15.673 v -36.571 h 15.673 z"
   id="path15490"
   style="fill:#ffffff" />
	</g>
</g>
<g
   id="g15500"
   transform="matrix(0.41376146,0,0,0.41376146,-1.0919891,-0.83223638)"
   style="fill:#ffffff">
	<g
   id="g15498"
   style="fill:#ffffff">
		<path
   d="M 109.192,263.837 H 72.62 c -5.771,0 -10.449,4.678 -10.449,10.449 v 57.469 c 0,5.771 4.678,10.449 10.449,10.449 h 36.571 c 5.771,0 10.449,-4.678 10.449,-10.449 v -57.469 c 0.001,-5.771 -4.677,-10.449 -10.448,-10.449 z M 98.743,321.306 H 83.069 v -36.571 h 15.673 v 36.571 z"
   id="path15496"
   style="fill:#ffffff" />
	</g>
</g>
<g
   id="g15506"
   transform="matrix(0.41376146,0,0,0.41376146,-1.0919891,-0.83223638)"
   style="fill:#ffffff">
	<g
   id="g15504"
   style="fill:#ffffff">
		<path
   d="m 182.335,263.837 h -36.571 c -5.771,0 -10.449,4.678 -10.449,10.449 v 57.469 c 0,5.771 4.678,10.449 10.449,10.449 h 36.571 c 5.771,0 10.449,-4.678 10.449,-10.449 v -57.469 c 0,-5.771 -4.678,-10.449 -10.449,-10.449 z m -10.449,57.469 h -15.673 v -36.571 h 15.673 z"
   id="path15502"
   style="fill:#ffffff" />
	</g>
</g>
<g
   id="g15512"
   transform="matrix(0.41376146,0,0,0.41376146,-1.0919891,-0.83223638)"
   style="fill:#ffffff">
	<g
   id="g15510"
   style="fill:#ffffff">
		<path
   d="M 109.192,366.237 H 72.62 c -5.771,0 -10.449,4.678 -10.449,10.449 v 57.469 c 0,5.771 4.678,10.449 10.449,10.449 h 36.571 c 5.771,0 10.449,-4.678 10.449,-10.449 v -57.469 c 0.001,-5.771 -4.677,-10.449 -10.448,-10.449 z M 98.743,423.706 H 83.069 v -36.571 h 15.673 v 36.571 z"
   id="path15508"
   style="fill:#ffffff" />
	</g>
</g>
<g
   id="g15518"
   transform="matrix(0.41376146,0,0,0.41376146,-1.0919891,-0.83223638)"
   style="fill:#ffffff">
	<g
   id="g15516"
   style="fill:#ffffff">
		<path
   d="m 182.335,366.237 h -36.571 c -5.771,0 -10.449,4.678 -10.449,10.449 v 57.469 c 0,5.771 4.678,10.449 10.449,10.449 h 36.571 c 5.771,0 10.449,-4.678 10.449,-10.449 v -57.469 c 0,-5.771 -4.678,-10.449 -10.449,-10.449 z m -10.449,57.469 h -15.673 v -36.571 h 15.673 z"
   id="path15514"
   style="fill:#ffffff" />
	</g>
</g>
<g
   id="g15524"
   transform="matrix(0.41376146,0,0,0.41376146,-1.0919891,-0.83223638)"
   style="fill:#ffffff">
	<g
   id="g15522"
   style="fill:#ffffff">
		<path
   d="m 328.719,417.785 h -0.137 c -5.771,0 -10.449,4.678 -10.449,10.449 0,5.771 4.678,10.449 10.449,10.449 h 0.137 c 5.771,0 10.449,-4.678 10.449,-10.449 0,-5.771 -4.678,-10.449 -10.449,-10.449 z"
   id="path15520"
   style="fill:#ffffff" />
	</g>
</g>
<g
   id="g15530"
   transform="matrix(0.41376146,0,0,0.41376146,-1.0919891,-0.83223638)"
   style="fill:#ffffff">
	<g
   id="g15528"
   style="fill:#ffffff">
		<path
   d="m 328.719,236.669 h -0.137 c -5.771,0 -10.449,4.678 -10.449,10.449 0,5.771 4.678,10.449 10.449,10.449 h 0.137 c 5.771,0 10.449,-4.678 10.449,-10.449 0,-5.771 -4.678,-10.449 -10.449,-10.449 z"
   id="path15526"
   style="fill:#ffffff" />
	</g>
</g>
<g
   id="g15536"
   transform="matrix(0.41376146,0,0,0.41376146,-1.0919891,-0.83223638)"
   style="fill:#ffffff">
	<g
   id="g15534"
   style="fill:#ffffff">
		<path
   d="m 328.719,272.893 h -0.137 c -5.771,0 -10.449,4.678 -10.449,10.449 0,5.771 4.678,10.449 10.449,10.449 h 0.137 c 5.771,0 10.449,-4.678 10.449,-10.449 0,-5.771 -4.678,-10.449 -10.449,-10.449 z"
   id="path15532"
   style="fill:#ffffff" />
	</g>
</g>
<g
   id="g15542"
   transform="matrix(0.41376146,0,0,0.41376146,-1.0919891,-0.83223638)"
   style="fill:#ffffff">
	<g
   id="g15540"
   style="fill:#ffffff">
		<path
   d="m 328.719,309.115 h -0.137 c -5.771,0 -10.449,4.678 -10.449,10.449 0,5.771 4.678,10.449 10.449,10.449 h 0.137 c 5.771,0 10.449,-4.678 10.449,-10.449 0,-5.771 -4.678,-10.449 -10.449,-10.449 z"
   id="path15538"
   style="fill:#ffffff" />
	</g>
</g>
<g
   id="g15548"
   transform="matrix(0.41376146,0,0,0.41376146,-1.0919891,-0.83223638)"
   style="fill:#ffffff">
	<g
   id="g15546"
   style="fill:#ffffff">
		<path
   d="m 328.719,345.339 h -0.137 c -5.771,0 -10.449,4.678 -10.449,10.449 0,5.771 4.678,10.449 10.449,10.449 h 0.137 c 5.771,0 10.449,-4.678 10.449,-10.449 0,-5.771 -4.678,-10.449 -10.449,-10.449 z"
   id="path15544"
   style="fill:#ffffff" />
	</g>
</g>
<g
   id="g15554"
   transform="matrix(0.41376146,0,0,0.41376146,-1.0919891,-0.83223638)"
   style="fill:#ffffff">
	<g
   id="g15552"
   style="fill:#ffffff">
		<path
   d="m 328.719,381.562 h -0.137 c -5.771,0 -10.449,4.678 -10.449,10.449 0,5.771 4.678,10.449 10.449,10.449 h 0.137 c 5.771,0 10.449,-4.678 10.449,-10.449 0,-5.771 -4.678,-10.449 -10.449,-10.449 z"
   id="path15550"
   style="fill:#ffffff" />
	</g>
</g>
<g
   id="g15560"
   transform="matrix(0.41376146,0,0,0.41376146,-1.1503906e-7,-9.2951512)"
   style="fill:#ffffff">
	<g
   id="g15558"
   style="fill:#ffffff">
		<path
   d="m 501.551,468.637 h -8.359 V 126.955 c 0,-5.771 -4.678,-10.449 -10.449,-10.449 H 357.355 c -5.771,0 -10.449,4.678 -10.449,10.449 v 73.491 H 233.012 V 32.914 c 0,-5.771 -4.678,-10.449 -10.449,-10.449 H 32.392 c -5.771,0 -10.449,4.678 -10.449,10.449 V 468.636 H 10.449 C 4.678,468.637 0,473.315 0,479.086 c 0,5.771 4.678,10.449 10.449,10.449 h 472.294 18.808 c 5.771,0 10.449,-4.678 10.449,-10.449 0,-5.771 -4.678,-10.449 -10.449,-10.449 z M 212.114,210.895 V 468.637 H 42.841 V 43.363 H 212.114 Z M 346.906,468.637 H 233.012 v -29.954 h 61.765 c 5.771,0 10.449,-4.678 10.449,-10.449 0,-5.771 -4.678,-10.449 -10.449,-10.449 h -61.765 v -15.326 h 61.765 c 5.771,0 10.449,-4.678 10.449,-10.449 0,-5.771 -4.678,-10.449 -10.449,-10.449 h -61.765 v -15.324 h 61.765 c 5.771,0 10.449,-4.678 10.449,-10.449 0,-5.771 -4.678,-10.449 -10.449,-10.449 h -61.765 v -15.326 h 61.765 c 5.771,0 10.449,-4.678 10.449,-10.449 0,-5.771 -4.678,-10.449 -10.449,-10.449 H 233.012 V 293.79 h 61.765 c 5.771,0 10.449,-4.678 10.449,-10.449 0,-5.771 -4.678,-10.449 -10.449,-10.449 h -61.765 v -15.325 h 61.765 c 5.771,0 10.449,-4.678 10.449,-10.449 0,-5.771 -4.678,-10.449 -10.449,-10.449 h -61.765 v -15.326 h 113.894 z m 31.347,0 H 367.804 V 210.895 137.404 h 10.449 z m 31.347,0 H 399.151 V 137.404 H 409.6 Z m 31.347,0 H 430.498 V 137.404 h 10.449 z m 31.347,0 H 461.845 V 137.404 h 10.449 z"
   id="path15556"
   style="fill:#ffffff" />
	</g>
</g>
</svg>
