<?xml version="1.0" encoding="UTF-8" standalone="no"?>
<svg
   viewBox="0 0 24 24"
   width="24pt"
   height="24pt"
   version="1.1"
   id="svg4"
   sodipodi:docname="fatburger.svg"
   xml:space="preserve"
   inkscape:version="1.2.2 (732a01da63, 2022-12-09)"
   xmlns:inkscape="http://www.inkscape.org/namespaces/inkscape"
   xmlns:sodipodi="http://sodipodi.sourceforge.net/DTD/sodipodi-0.dtd"
   xmlns="http://www.w3.org/2000/svg"
   xmlns:svg="http://www.w3.org/2000/svg"><defs
     id="defs8" /><sodipodi:namedview
     id="namedview6"
     pagecolor="#ffffff"
     bordercolor="#000000"
     borderopacity="0.25"
     inkscape:showpageshadow="2"
     inkscape:pageopacity="0.0"
     inkscape:pagecheckerboard="0"
     inkscape:deskcolor="#d1d1d1"
     inkscape:document-units="pt"
     showgrid="false"
     inkscape:zoom="26.03125"
     inkscape:cx="13.92557"
     inkscape:cy="16.057623"
     inkscape:window-width="1904"
     inkscape:window-height="993"
     inkscape:window-x="1920"
     inkscape:window-y="0"
     inkscape:window-maximized="0"
     inkscape:current-layer="svg4" /><path
     style="fill:#00b8e6;fill-opacity:1;stroke-width:2.78493"
     id="path2106"
     sodipodi:type="arc"
     sodipodi:cx="12.057623"
     sodipodi:cy="10.170468"
     sodipodi:rx="7.2810616"
     sodipodi:ry="7.2231603"
     sodipodi:start="0"
     sodipodi:end="6.2753717"
     sodipodi:open="true"
     sodipodi:arc-type="arc"
     d="M 19.338685,10.170468 A 7.2810616,7.2231603 0 0 1 12.071846,17.393615 7.2810616,7.2231603 0 0 1 4.7766168,10.198688 7.2810616,7.2231603 0 0 1 12.014955,2.9474321 7.2810616,7.2231603 0 0 1 19.338462,10.11403"
     inkscape:label="path2106" /><g
     id="g174"
     transform="matrix(0.59740229,0,0,0.6163518,-1.8527233,6.0216114)"><ellipse
       id="circle"
       vector-effect="non-scaling-stroke"
       display="none"
       fill="#ffffff"
       cx="12"
       cy="9.7690001"
       rx="6.566"
       ry="6.494" /><g
       id="g154"
       transform="matrix(1.3242243,0,0,1.3242243,7.3464647,-6.4104211)">
	<path
   d="m 20.982,10.082 -2.306,1.084 c -0.54,3.188 -3.325,5.62 -6.677,5.62 -3.352,0 -6.136,-2.432 -6.678,-5.62 L 3.017,10.082 5.303,9.006 C 5.798,5.761 8.608,3.274 12,3.274 c 3.393,0 6.202,2.487 6.697,5.732 z m -4.455,2.096 -4.526,2.129 -4.526,-2.129 c 0.806,1.686 2.529,2.848 4.525,2.848 1.997,-10e-4 3.722,-1.163 4.527,-2.848 z M 7.415,8.014 11.999,5.857 16.588,8.015 C 15.811,6.258 14.048,5.033 12,5.033 9.952,5.033 8.191,6.258 7.415,8.014 Z"
   id="path136" />
	<path
   fill="#ffffa0"
   d="m 12,15.33 c 2.934,0 5.313,-2.373 5.313,-5.3 0,-2.927 -2.38,-5.299 -5.313,-5.299 -2.933,0 -5.313,2.372 -5.313,5.299 0,2.927 2.379,5.3 5.313,5.3 z m 0,1.152 c 3.574,0 6.474,-2.889 6.474,-6.453 0,-3.564 -2.9,-6.454 -6.474,-6.454 -3.573,0 -6.471,2.891 -6.471,6.455 0,3.564 2.898,6.452 6.471,6.452 z"
   id="path138" />
	<path
   id="black"
   fill="#020200"
   d="m 11.99,15.408 c 2.975,0 5.386,-2.406 5.386,-5.371 0,-2.966 -2.411,-5.37 -5.386,-5.37 -2.973,0 -5.384,2.404 -5.384,5.37 -10e-4,2.965 2.411,5.371 5.384,5.371 z" />
	<path
   fill="#f9f9f9"
   d="m 12,15.08 c 2.797,0 5.064,-2.262 5.064,-5.05 0,-2.789 -2.268,-5.05 -5.064,-5.05 -2.796,0 -5.064,2.261 -5.064,5.05 0,2.788 2.268,5.05 5.064,5.05 z"
   id="path141" />
	<polygon
   id="diamond"
   fill="#020200"
   points="11.999,5.856 3.128,10.03 12.001,14.307 20.982,10.082 " />
	<polygon
   fill="#d02626"
   points="11.999,6.189 20.276,10.082 11.999,13.973 3.725,10.082 "
   id="polygon144" />
	<path
   fill="#ffffa0"
   d="m 11.922,12.988 v 0.084 h 0.053 c 0.046,0 0.11,0.008 0.11,-0.039 0,-0.043 -0.037,-0.045 -0.078,-0.045 z m 0.208,0.291 h -0.056 l -0.088,-0.156 h -0.063 v 0.156 h -0.049 v -0.344 h 0.146 c 0.061,0 0.117,0.021 0.117,0.092 0,0.066 -0.045,0.094 -0.091,0.096 z m -0.396,-0.174 c 0,0.145 0.116,0.256 0.257,0.256 0.14,0 0.256,-0.111 0.256,-0.256 0,-0.143 -0.117,-0.254 -0.256,-0.254 -0.14,10e-4 -0.257,0.112 -0.257,0.254 z m -0.05,0 c 0,-0.17 0.136,-0.305 0.307,-0.305 0.171,0 0.305,0.135 0.305,0.305 0,0.17 -0.134,0.307 -0.305,0.307 -0.171,0 -0.307,-0.137 -0.307,-0.307 z"
   id="path146" />
	<path
   fill="#ffffa0"
   d="m 10.435,12.236 c 0.093,0.021 0.136,0.071 0.136,0.115 0,0.184 -0.322,0.213 -0.456,0.213 -0.036,0 -0.148,0 -0.148,-0.053 0,-0.02 0.032,-0.069 0.046,-0.083 0.012,-0.009 0.066,-0.026 0.08,-0.026 0.005,0 0.007,0.001 0.007,0.006 0,0.008 -0.009,0.014 -0.016,0.018 -0.005,0.003 -0.01,0.008 -0.016,0.014 v 0.001 c 0.33,0.012 0.42,-0.083 0.42,-0.098 0,-0.046 -0.255,-0.084 -0.3,-0.092 -0.047,-0.008 -0.094,-0.021 -0.094,-0.077 0,-0.03 0.013,-0.098 0.029,-0.124 0.027,-0.044 0.196,-0.132 0.398,-0.132 0.039,0 0.078,0.004 0.117,0.012 0.021,0.005 0.023,0.012 0.023,0.03 0,0.068 -0.022,0.083 -0.077,0.105 -0.04,0.015 -0.047,0.019 -0.083,0.045 -0.006,0.003 -0.015,0.01 -0.023,0.01 -0.008,0 -0.014,-0.006 -0.014,-0.013 0,-0.003 0.018,-0.032 0.067,-0.065 L 10.53,12.041 c -0.238,0.007 -0.341,0.093 -0.341,0.115 -10e-4,0.013 -0.012,0.02 0.246,0.08 z m 0.356,-0.06 c 0,-0.038 0.044,-0.071 0.08,-0.071 0.016,0 0.03,0.011 0.03,0.029 0,0.036 -0.034,0.081 -0.074,0.081 -0.021,-10e-4 -0.036,-0.018 -0.036,-0.039 z m 1.157,0.203 c -0.049,0.039 -0.126,0.104 -0.192,0.104 -0.03,0 -0.06,-0.011 -0.057,-0.045 l 0.002,-0.021 c 0.177,-0.058 0.222,-0.127 0.222,-0.172 0,-0.036 -0.037,-0.042 -0.066,-0.042 -0.098,-10e-4 -0.205,0.081 -0.24,0.176 -0.054,0.042 -0.132,0.102 -0.201,0.102 -0.048,0 -0.07,-0.028 -0.07,-0.049 0,-0.025 0.017,-0.04 0.037,-0.054 l 0.077,-0.059 c 10e-4,0.018 0.011,0.041 0.032,0.041 0.024,0 0.098,-0.071 0.098,-0.122 0,-0.028 -0.013,-0.042 -0.042,-0.042 -0.052,0 -0.141,0.048 -0.182,0.08 -0.042,0.032 -0.068,0.056 -0.081,0.094 l -0.052,0.044 c -0.017,0.014 -0.057,0.046 -0.08,0.046 -0.009,0 -0.016,-0.009 -0.016,-0.016 0,-0.064 0.113,-0.134 0.113,-0.169 -0.003,-0.02 -0.007,-0.037 -0.014,-0.051 -0.005,-0.012 -0.01,-0.018 -0.014,-0.018 -0.027,0 -0.197,0.114 -0.271,0.208 -0.004,0.005 -0.012,0.013 -0.018,0.013 -0.006,0 -0.01,-0.005 -0.01,-0.01 0,-0.022 0.116,-0.116 0.116,-0.151 0,-0.006 0.004,-0.019 -0.051,-0.021 -0.015,0 -0.023,0.002 -0.036,0.012 -0.041,0.034 -0.085,0.099 -0.103,0.154 -0.033,0.027 -0.072,0.061 -0.113,0.061 -0.042,0 -0.057,-0.021 -0.049,-0.059 0.039,-0.026 0.13,-0.108 0.13,-0.154 0,-0.021 -0.024,-0.026 -0.04,-0.026 -0.056,0 -0.171,0.11 -0.171,0.222 0,0.047 0.024,0.109 0.079,0.109 0.055,0 0.115,-0.051 0.159,-0.095 0.002,0.032 0.015,0.079 0.051,0.079 0.024,0 0.059,-0.045 0.072,-0.063 0.042,-0.054 0.089,-0.102 0.143,-0.142 l 0.002,0.002 c -0.03,0.042 -0.08,0.103 -0.08,0.159 0,0.029 0.016,0.061 0.051,0.061 0.061,0 0.143,-0.09 0.194,-0.141 v 0.003 c 0,0.068 0.034,0.136 0.105,0.136 0.075,0 0.163,-0.07 0.222,-0.125 0,0.002 0,0.003 0,0.006 0.001,0.061 0.033,0.122 0.1,0.122 0.091,0 0.193,-0.087 0.25,-0.153 z m -0.242,-0.006 c 0.025,-0.061 0.078,-0.105 0.125,-0.118 0.006,-0.001 0.011,0.004 0.011,0.011 10e-4,0.014 -0.055,0.079 -0.136,0.107 z m 0.625,-0.275 c -0.003,10e-4 -0.022,0.008 -0.024,0.008 -0.011,0 -0.009,-0.016 -0.008,-0.021 0.001,-0.026 0.02,-0.035 0.042,-0.047 0.031,-0.018 0.136,-0.079 0.161,-0.079 0.025,0 0.043,0.05 0.043,0.063 0,0.028 0,0.025 -0.146,0.27 -0.032,0.055 -0.108,0.186 -0.108,0.245 0,0.014 0.003,0.023 0.003,0.035 0,0.008 -0.004,0.012 -0.013,0.012 -0.004,0 -0.015,-0.006 -0.019,-0.008 -0.037,-0.02 -0.075,-0.025 -0.075,-0.072 0,-0.048 0.039,-0.151 0.065,-0.192 0.066,-0.11 0.141,-0.209 0.168,-0.244 l -0.002,-0.002 z m 0.625,0.021 c -0.012,0.005 -0.02,0.011 -0.03,0.011 -0.006,0 -0.012,-0.006 -0.012,-0.01 0,-0.004 -0.004,-0.004 0.05,-0.048 l -0.002,-10e-4 c -0.223,0.056 -0.298,0.14 -0.298,0.2 0,0.01 0.004,0.014 0.016,0.014 0.071,0 0.191,-0.071 0.246,-0.116 0.013,-0.01 0.045,-0.039 0.065,-0.039 0.012,0 0.049,0.008 0.049,0.024 0,0.015 -0.022,0.038 -0.029,0.049 l -0.243,0.284 c -0.055,0.063 -0.086,0.083 -0.125,0.087 -0.01,0 -0.02,-0.004 -0.02,-0.018 0,-0.012 0.018,-0.037 0.023,-0.047 0.016,-0.024 0.021,-0.042 0.054,-0.04 l 0.175,-0.207 -0.002,-0.003 c -0.039,0.026 -0.144,0.091 -0.188,0.091 -0.031,0 -0.115,-0.062 -0.115,-0.139 0,-0.114 0.222,-0.26 0.382,-0.257 0.035,10e-4 0.088,0.072 0.088,0.094 0,0.021 -0.035,0.039 -0.053,0.049 z m 0.269,-0.127 c 0.043,-0.039 0.059,-0.037 0.113,-0.037 h 0.222 c -0.06,0.109 -0.062,0.125 -0.146,0.123 l -0.156,-10e-4 c -0.032,0.025 -0.059,0.057 -0.078,0.094 0.042,-0.011 0.083,-0.021 0.127,-0.021 0.08,0 0.152,0.04 0.152,0.126 0,0.038 -0.012,0.076 -0.034,0.113 -0.056,0.094 -0.182,0.171 -0.369,0.171 -0.089,0 -0.093,-0.021 -0.093,-0.08 0,-0.067 0.132,-0.102 0.145,-0.102 0.005,0 0.013,10e-4 0.013,0.01 0,0.009 -0.012,0.018 -0.017,0.021 l -0.059,0.038 0.002,0.002 c 0.222,-0.023 0.344,-0.12 0.344,-0.17 0,-0.024 -0.043,-0.035 -0.063,-0.035 -0.037,0 -0.079,0.007 -0.114,0.015 -0.035,0.006 -0.063,0.016 -0.074,0.016 -0.037,0 -0.052,-0.07 -0.052,-0.099 0,-0.029 0.027,-0.061 0.045,-0.083 z m 0.421,0.207 c -0.005,10e-4 -0.025,0.004 -0.031,0.004 -0.016,0 -0.021,-0.024 -0.021,-0.036 0,-0.034 0.029,-0.097 0.051,-0.124 0.056,-0.061 0.205,-0.089 0.284,-0.089 0.069,0 0.104,0.019 0.104,0.146 0,0.049 0,0.094 -0.229,0.214 -0.077,0.042 -0.156,0.085 -0.226,0.139 l 0.002,0.002 0.357,-0.063 c -0.023,0.068 -0.039,0.131 -0.122,0.146 -0.144,0.027 -0.25,0.031 -0.274,0.014 -0.029,-0.021 -0.039,-0.069 -0.039,-0.104 0,-0.083 0.263,-0.217 0.332,-0.256 0.037,-0.021 0.13,-0.07 0.13,-0.121 0,-0.02 -0.022,-0.023 -0.036,-0.023 -0.075,0 -0.18,0.053 -0.248,0.085 v 0.002 l 0.055,0.007 c 0.012,0 0.036,0 0.036,0.019 0,0.014 -0.014,0.016 -0.024,0.017 z"
   id="path148" />
	<path
   stroke="#000000"
   stroke-width="0.216"
   stroke-miterlimit="2.6131"
   d="m 11.148,11.25 c 0.029,-0.075 0.043,-0.153 0.043,-0.233 v -0.614 c 10e-4,-0.07 -0.007,-0.14 -0.023,-0.207 -0.015,-0.061 -0.047,-0.114 -0.092,-0.156 0.04,-0.038 0.07,-0.084 0.085,-0.136 0.021,-0.067 0.03,-0.138 0.03,-0.208 V 9.088 C 11.192,9.014 11.183,8.941 11.163,8.869 11.125,8.731 11.02,8.619 10.883,8.573 10.78,8.537 10.672,8.521 10.564,8.524 H 9.926 v 3.032 h 0.639 c 0.105,0.003 0.208,-0.012 0.308,-0.045 0.127,-0.039 0.23,-0.135 0.275,-0.261 z M 10.46,11.044 v -0.749 h 0.07 c 0.017,0 0.033,10e-4 0.048,0.006 0.031,0.008 0.055,0.031 0.065,0.061 0.008,0.022 0.012,0.045 0.011,0.068 v 0.515 c 10e-4,0.013 -10e-4,0.025 -0.004,0.039 -0.007,0.023 -0.023,0.042 -0.047,0.052 -0.015,0.005 -0.031,0.009 -0.048,0.009 H 10.46 Z m 0.129,-1.269 c -0.017,0.006 -0.035,0.01 -0.052,0.01 H 10.46 V 9.036 h 0.09 c 0.017,0 0.033,0.002 0.049,0.007 0.022,0.006 0.04,0.022 0.047,0.045 0.004,0.014 0.007,0.03 0.007,0.045 v 0.513 c 10e-4,0.025 -0.003,0.049 -0.01,0.073 -0.007,0.027 -0.028,0.046 -0.054,0.056 z M 18.137,9.089 C 18.137,9.016 18.128,8.944 18.11,8.873 18.074,8.734 17.966,8.621 17.83,8.574 17.735,8.541 17.636,8.524 17.534,8.524 h -0.662 v 3.032 h 0.532 v -1.261 h 0.091 c 0.014,0 0.028,10e-4 0.039,0.005 0.042,0.011 0.065,0.046 0.065,0.086 v 1.169 h 0.538 v -1.153 c 0,-0.067 -0.007,-0.135 -0.023,-0.201 -0.016,-0.062 -0.049,-0.12 -0.097,-0.162 0.042,-0.037 0.071,-0.083 0.087,-0.136 0.022,-0.068 0.033,-0.138 0.033,-0.208 V 9.089 Z m -0.538,0.556 c 0.002,0.024 0,0.049 -0.007,0.071 -0.011,0.027 -0.032,0.048 -0.059,0.058 -0.017,0.006 -0.035,0.01 -0.055,0.01 H 17.401 V 9.038 h 0.093 c 0.014,-10e-4 0.028,0 0.039,0.004 0.04,0.01 0.065,0.046 0.065,0.086 V 9.645 Z M 14.046,9.089 C 14.046,9.016 14.037,8.944 14.019,8.873 13.981,8.734 13.875,8.621 13.739,8.574 13.644,8.541 13.545,8.524 13.445,8.524 h -0.666 v 3.032 h 0.534 v -1.261 h 0.091 c 0.014,0 0.028,10e-4 0.041,0.005 0.038,0.011 0.064,0.046 0.064,0.086 v 1.169 h 0.537 v -1.153 c 0.002,-0.067 -0.007,-0.135 -0.023,-0.201 -0.014,-0.062 -0.049,-0.12 -0.095,-0.162 0.04,-0.037 0.069,-0.083 0.087,-0.136 0.021,-0.068 0.031,-0.138 0.031,-0.208 V 9.089 Z m -0.537,0.556 c 0,0.024 -0.002,0.049 -0.009,0.071 -0.01,0.027 -0.031,0.048 -0.056,0.058 -0.019,0.006 -0.037,0.01 -0.057,0.01 H 13.312 V 9.038 h 0.091 c 0.014,-10e-4 0.028,0 0.041,0.004 0.038,0.01 0.064,0.046 0.064,0.086 V 9.645 Z M 8.478,8.989 C 8.48,8.794 8.366,8.616 8.188,8.536 7.982,8.44 7.746,8.435 7.535,8.521 7.337,8.601 7.209,8.796 7.213,9.009 v 2.547 h 0.533 v -1.261 h 0.198 v 1.261 H 8.477 V 8.989 Z M 7.944,9.124 v 0.66 H 7.746 V 9.124 C 7.745,9.096 7.749,9.069 7.76,9.044 7.769,9.023 7.788,9.007 7.81,9.003 7.83,8.999 7.852,8.998 7.872,9.001 c 0.03,0.005 0.055,0.026 0.063,0.056 0.007,0.022 0.01,0.044 0.009,0.067 z m 8.809,-0.6 h -1.098 v 3.032 h 1.105 v -0.512 h -0.54 v -0.749 h 0.512 V 9.782 H 16.22 V 9.038 h 0.532 V 8.524 Z m -1.8,2.518 h -0.114 c -0.01,0 -0.023,-10e-4 -0.034,-0.003 -0.016,-0.002 -0.026,-0.011 -0.034,-0.022 -0.003,-0.008 -0.009,-0.018 -0.009,-0.027 -0.006,-0.021 -0.008,-0.042 -0.008,-0.063 V 9.111 c 0,-0.021 0.006,-0.042 0.016,-0.063 0.007,-0.021 0.025,-0.037 0.046,-0.044 0.021,-0.006 0.043,-0.008 0.066,-0.003 0.028,0.005 0.051,0.025 0.06,0.054 0.008,0.021 0.012,0.044 0.012,0.066 V 9.765 H 15.49 V 8.991 C 15.492,8.803 15.386,8.63 15.218,8.547 15.015,8.447 14.78,8.435 14.568,8.512 14.357,8.586 14.217,8.787 14.223,9.01 V 11 c -0.002,0.146 0.053,0.286 0.156,0.389 0.1,0.105 0.238,0.165 0.384,0.167 h 0.728 V 9.972 h -0.656 v 0.481 h 0.12 v 0.589 z M 9.501,9.038 H 9.876 V 8.524 H 8.554 v 0.514 h 0.38 v 2.519 H 9.501 Z M 7.082,8.524 H 5.975 v 3.032 H 6.544 V 10.295 H 7.077 V 9.782 H 6.544 V 9.038 h 0.538 z m 4.899,3.089 c 0.092,0.001 0.184,-0.012 0.271,-0.04 0.219,-0.068 0.368,-0.272 0.362,-0.501 V 8.524 H 12.08 v 2.437 c 10e-4,0.026 -0.003,0.05 -0.013,0.074 -0.009,0.019 -0.026,0.034 -0.046,0.039 -0.023,0.007 -0.05,0.007 -0.074,10e-4 -0.027,-0.006 -0.049,-0.026 -0.057,-0.054 -0.006,-0.019 -0.008,-0.04 -0.008,-0.06 V 8.524 h -0.533 v 2.563 c -0.005,0.188 0.101,0.363 0.27,0.447 0.113,0.055 0.237,0.082 0.362,0.079 z"
   id="path150" />
	<path
   fill="#ffffa0"
   d="m 10.01,8.609 v 2.863 h 0.558 c 0.094,0.003 0.19,-0.011 0.28,-0.041 0.103,-0.032 0.186,-0.11 0.223,-0.211 0.025,-0.065 0.038,-0.134 0.038,-0.203 V 10.401 C 11.11,10.339 11.103,10.276 11.088,10.215 11.077,10.172 11.053,10.131 11.02,10.101 L 10.953,10.038 11.021,9.977 C 11.049,9.951 11.071,9.916 11.083,9.879 11.102,9.819 11.11,9.758 11.11,9.696 V 9.088 C 11.111,9.022 11.102,8.956 11.085,8.892 11.054,8.78 10.97,8.691 10.858,8.654 10.766,8.621 10.668,8.605 10.57,8.609 h -10e-4 z m 0.366,2.52 v -0.918 h 0.153 c 0.024,0 0.048,0.003 0.071,0.009 0.058,0.016 0.104,0.059 0.123,0.116 0.011,0.031 0.016,0.063 0.016,0.096 v 0.512 c 10e-4,0.021 -0.002,0.042 -0.008,0.063 -0.014,0.05 -0.049,0.088 -0.096,0.107 -0.025,0.01 -0.052,0.016 -0.08,0.016 h -0.179 z m 0.173,-2.177 c 0.026,0 0.051,0.003 0.076,0.011 0.047,0.014 0.085,0.05 0.102,0.096 0.009,0.024 0.013,0.049 0.013,0.074 v 0.511 c 10e-4,0.034 -0.004,0.068 -0.015,0.101 -0.017,0.05 -0.056,0.091 -0.107,0.108 -0.025,0.01 -0.053,0.014 -0.08,0.014 H 10.377 V 8.952 Z M 6.997,8.609 H 6.059 v 2.863 h 0.4 v -1.26 H 6.992 V 9.867 H 6.459 V 8.953 H 6.997 Z M 9.792,8.953 V 8.609 H 8.639 v 0.344 h 0.379 v 2.519 H 9.417 V 8.953 Z m 2.739,-0.344 h -0.366 v 2.35 c 0.001,0.037 -0.005,0.073 -0.02,0.107 -0.018,0.044 -0.056,0.076 -0.1,0.088 -0.039,0.011 -0.079,0.011 -0.117,0.002 C 11.872,11.142 11.826,11.1 11.811,11.044 11.803,11.017 11.799,10.989 11.799,10.961 V 8.609 h -0.365 v 2.479 c -0.004,0.156 0.083,0.301 0.224,0.371 0.098,0.049 0.209,0.074 0.32,0.071 h 10e-4 0.002 c 0.084,0.002 0.167,-0.012 0.246,-0.036 0.183,-0.056 0.307,-0.228 0.304,-0.42 z m 2.505,1.073 h 0.368 V 8.989 C 15.406,8.833 15.319,8.691 15.179,8.621 14.995,8.532 14.784,8.52 14.593,8.59 14.418,8.653 14.3,8.821 14.306,9.008 V 11 c -0.004,0.123 0.045,0.243 0.132,0.33 0.086,0.088 0.203,0.14 0.323,0.141 h 0.643 v -1.415 h -0.487 v 0.311 h 0.121 v 0.759 h -0.197 c -0.042,0 -0.012,0.003 -0.054,-0.005 C 14.752,11.113 14.72,11.092 14.699,11.06 14.689,11.043 14.682,11.024 14.677,11.005 14.673,10.98 14.671,10.953 14.671,10.926 V 9.111 c 0,-0.032 0.006,-0.064 0.019,-0.094 0.018,-0.045 0.057,-0.079 0.1,-0.092 0.036,-0.01 0.071,-0.013 0.109,-0.006 0.059,0.012 0.105,0.053 0.122,0.11 0.012,0.031 0.016,0.062 0.016,0.093 v 0.56 z m 1.632,-1.073 h -0.929 v 2.863 h 0.938 v -0.344 h -0.54 v -0.916 h 0.511 V 9.867 H 16.137 V 8.953 h 0.53 V 8.609 Z m -9.372,2.863 h 0.365 v -1.26 h 0.367 v 1.26 H 8.393 V 8.989 C 8.396,8.827 8.3,8.68 8.152,8.613 7.968,8.527 7.755,8.521 7.567,8.598 7.401,8.665 7.293,8.829 7.296,9.009 Z M 8.029,9.125 V 9.867 H 7.662 V 9.126 C 7.66,9.087 7.667,9.047 7.682,9.011 7.701,8.965 7.742,8.931 7.79,8.922 7.822,8.915 7.854,8.913 7.885,8.919 c 0.063,0.009 0.113,0.055 0.13,0.114 0.01,0.03 0.014,0.06 0.014,0.092 z m 4.834,-0.516 v 2.863 h 0.365 v -1.26 h 0.175 c 0.021,-10e-4 0.043,0.002 0.063,0.008 0.076,0.02 0.128,0.089 0.126,0.167 v 1.085 h 0.369 v -1.071 c 0,-0.06 -0.006,-0.121 -0.021,-0.179 -0.012,-0.046 -0.035,-0.089 -0.071,-0.121 l -0.07,-0.063 0.07,-0.061 C 13.899,9.95 13.921,9.916 13.934,9.878 13.952,9.819 13.96,9.757 13.96,9.695 V 9.088 C 13.96,9.022 13.952,8.958 13.934,8.895 13.907,8.782 13.822,8.693 13.707,8.655 13.623,8.625 13.533,8.61 13.442,8.61 h -0.579 z m 0.73,1.034 C 13.595,9.676 13.589,9.709 13.58,9.741 13.563,9.794 13.523,9.835 13.471,9.853 13.445,9.862 13.417,9.867 13.388,9.867 H 13.229 V 8.952 h 0.175 c 0.021,0 0.041,0.003 0.062,0.008 0.078,0.02 0.13,0.089 0.128,0.167 v 0.516 z m 3.361,-1.034 v 2.863 h 0.363 v -1.26 h 0.177 c 0.021,-10e-4 0.041,0.002 0.062,0.008 0.077,0.02 0.13,0.089 0.128,0.167 v 1.085 h 0.369 v -1.071 c 0,-0.06 -0.008,-0.121 -0.021,-0.179 -0.014,-0.046 -0.035,-0.089 -0.072,-0.121 L 17.891,10.038 17.96,9.976 C 17.991,9.95 18.013,9.916 18.024,9.878 18.043,9.819 18.052,9.757 18.052,9.695 V 9.088 c 0,-0.066 -0.008,-0.13 -0.026,-0.193 C 17.999,8.782 17.914,8.693 17.799,8.655 17.715,8.625 17.625,8.61 17.532,8.61 h -0.578 z m 0.73,1.034 c 0.002,0.033 -0.002,0.066 -0.013,0.098 -0.017,0.053 -0.059,0.094 -0.109,0.112 -0.028,0.009 -0.054,0.014 -0.083,0.014 H 17.318 V 8.952 h 0.175 c 0.022,0 0.043,0.003 0.063,0.008 0.077,0.02 0.13,0.089 0.128,0.167 z"
   id="path152" />
</g></g></svg>
