<?xml version="1.0" encoding="UTF-8" standalone="no"?>
<svg
   viewBox="0 0 24 24"
   width="24pt"
   height="24pt"
   version="1.1"
   id="svg4"
   sodipodi:docname="texaschicken.svg"
   xml:space="preserve"
   inkscape:version="1.2.2 (732a01da63, 2022-12-09)"
   xmlns:inkscape="http://www.inkscape.org/namespaces/inkscape"
   xmlns:sodipodi="http://sodipodi.sourceforge.net/DTD/sodipodi-0.dtd"
   xmlns="http://www.w3.org/2000/svg"
   xmlns:svg="http://www.w3.org/2000/svg"><defs
     id="defs8" /><sodipodi:namedview
     id="namedview6"
     pagecolor="#ffffff"
     bordercolor="#000000"
     borderopacity="0.25"
     inkscape:showpageshadow="2"
     inkscape:pageopacity="0.0"
     inkscape:pagecheckerboard="0"
     inkscape:deskcolor="#d1d1d1"
     inkscape:document-units="pt"
     showgrid="false"
     inkscape:zoom="26.03125"
     inkscape:cx="13.118848"
     inkscape:cy="15.327731"
     inkscape:window-width="1920"
     inkscape:window-height="1009"
     inkscape:window-x="1912"
     inkscape:window-y="-8"
     inkscape:window-maximized="1"
     inkscape:current-layer="svg4" /><path
     style="fill:#000000;fill-opacity:1;stroke-width:2.78493"
     id="path2106"
     sodipodi:type="arc"
     sodipodi:cx="11.668668"
     sodipodi:cy="9.5942383"
     sodipodi:rx="7.2810616"
     sodipodi:ry="7.2231603"
     sodipodi:start="0"
     sodipodi:end="6.2753717"
     sodipodi:open="true"
     sodipodi:arc-type="arc"
     d="M 18.949729,9.5942383 A 7.2810616,7.2231603 0 0 1 11.682891,16.817385 7.2810616,7.2231603 0 0 1 4.3876617,9.6224577 7.2810616,7.2231603 0 0 1 11.626,2.371202 7.2810616,7.2231603 0 0 1 18.949507,9.5377999"
     inkscape:label="path2106" /><g
     id="g252"
     transform="matrix(0.02267263,0,0,0.02254079,1.7086911,1.8714944)"><path
       d="m 401.076,85.3 c -0.199,2.094 -33.208,107.232 -33.876,107.9 -0.421,0.421 -12.226,5.087 -26.233,10.368 -31.068,11.715 -60.441,22.833 -64.411,24.382 l -2.945,1.148 12.336,7.37 c 6.784,4.053 12.714,7.969 13.179,8.701 1.95,3.077 0.769,6.634 -4.292,12.917 -7.191,8.929 -13.307,18.492 -20.328,31.787 l -6.006,11.373 -24,10.973 c -13.2,6.035 -28.05,12.707 -33,14.827 -15.065,6.453 -13.99,4.574 -18.563,32.454 l -3.937,24 4.25,3.809 c 5.059,4.534 10.793,7.691 13.97,7.691 2.772,0 6.418,-3.242 11.722,-10.422 6.376,-8.631 10.898,-11.23 15.012,-8.627 1.581,0.999 1.715,-0.119 -4.982,41.549 -16.26,101.17 -16.036,99.546 -14.179,102.709 1.464,2.494 1.456,2.859 -0.101,4.579 -3.398,3.755 -1.273,10.535 3.83,12.219 1.775,0.586 11.271,1.472 21.103,1.969 31.596,1.597 64.31,9.882 74.563,18.884 1.969,1.729 5.095,3.407 6.946,3.729 1.851,0.321 4.84,1.329 6.641,2.239 2.953,1.491 3.544,1.505 6,0.137 1.499,-0.834 4.975,-4.834 7.725,-8.888 2.75,-4.055 6.141,-8.222 7.536,-9.26 l 2.535,-1.887 10.465,4.893 c 27.199,12.719 51.938,17.869 80.964,16.854 45.075,-1.576 84.729,-18.655 117.338,-50.536 31.505,-30.803 50.788,-71.024 55.678,-116.135 0.626,-5.771 1.216,-10.53 1.311,-10.576 0.095,-0.045 3.098,-1.116 6.673,-2.379 28.908,-10.215 47.855,-27.623 52.061,-47.832 2.357,-11.322 -0.471,-26.475 -7.039,-37.719 -1.607,-2.75 -3.717,-6.493 -4.689,-8.318 l -1.768,-3.317 3.693,-3.183 c 4.823,-4.155 5.682,-6.808 6.428,-19.853 0.717,-12.537 0.594,-12.788 -9.796,-19.883 -8.497,-5.801 -15.966,-7.946 -27.677,-7.946 -11.105,0 -17.918,1.607 -26.061,6.146 l -5.348,2.982 -4.639,-2.18 c -6.615,-3.11 -13.88,-3.401 -27.122,-1.088 l -11.457,2.001 -7.317,-6.95 c -13.75,-13.062 -34.324,-26.884 -49.815,-33.468 -10.402,-4.421 -10.781,-3.551 18.108,-41.505 l 24.563,-32.268 -2.37,-2.37 -2.37,-2.369 -51.142,19.661 c -28.128,10.813 -51.744,19.43 -52.481,19.147 -0.737,-0.283 -7.597,-15.077 -15.245,-32.877 C 407.838,98.7 401.202,83.979 401.076,85.3 m -0.496,20.797 c -2.038,6.021 -6.909,21.753 -8.639,27.903 -1.16,4.125 -2.522,8.281 -3.026,9.236 -0.503,0.955 -0.915,2.616 -0.915,3.691 0,1.075 -0.45,2.233 -1,2.573 -0.55,0.34 -1,1.574 -1,2.742 0,1.169 -0.84,4.63 -1.866,7.691 -1.026,3.062 -2.441,7.592 -3.144,10.067 -0.703,2.475 -1.932,6.525 -2.731,9 -0.799,2.475 -2.09,6.975 -2.869,10 -2.226,8.649 -3.084,9.723 -9.283,11.616 -3.084,0.942 -6.057,2.031 -6.607,2.422 -0.55,0.39 -3.925,1.696 -7.5,2.901 -6.342,2.139 -7.855,2.701 -13,4.826 -1.375,0.568 -4.075,1.581 -6,2.251 -1.925,0.67 -4.85,1.808 -6.5,2.529 -1.65,0.721 -5.25,2.048 -8,2.95 -2.75,0.902 -6.35,2.252 -8,3 -1.65,0.748 -5.25,2.105 -8,3.015 -7.179,2.377 -12.5,4.761 -12.5,5.601 0,0.815 3.856,3.225 12,7.501 3.025,1.589 5.65,3.226 5.833,3.638 0.184,0.412 1.003,0.75 1.822,0.75 0.818,0 2.164,0.676 2.99,1.502 1.538,1.538 0.841,2.498 -13.395,18.455 -1.238,1.388 -2.25,2.833 -2.25,3.211 0,0.379 -0.584,1.284 -1.298,2.011 -2.137,2.176 -7.702,10.607 -7.702,11.668 0,0.542 -0.383,1.136 -0.852,1.32 -1.477,0.577 -8.17,14.317 -7.144,14.663 0.538,0.182 3.345,-0.803 6.237,-2.19 2.893,-1.386 8.521,-3.996 12.509,-5.801 3.988,-1.804 7.25,-3.631 7.25,-4.06 0,-0.428 0.632,-0.779 1.405,-0.779 1.431,0 9.684,-3.989 10.595,-5.121 0.275,-0.342 3.3,-2.029 6.721,-3.75 4.931,-2.48 7.483,-3.129 12.3,-3.129 11.594,0 15.63,4.538 14.616,16.432 -1.213,14.223 -2.449,25.136 -3.16,27.887 -0.725,2.807 -0.712,2.816 3.147,2.129 2.132,-0.38 4.304,-1.086 4.826,-1.569 0.523,-0.484 2.379,-0.879 4.125,-0.879 5.683,0 8.997,-1.108 9.974,-3.335 1.356,-3.087 33.632,-18.874 41.652,-20.373 1.935,-0.361 5.386,0.865 12.166,4.322 l 9.464,4.827 2.356,-2.47 c 1.295,-1.359 4.13,-4.721 6.3,-7.471 2.17,-2.75 4.188,-5.225 4.485,-5.5 0.297,-0.275 1.8,-2.192 3.342,-4.259 2.75,-3.689 9.107,-7.741 12.146,-7.741 0.847,0 1.54,-0.45 1.54,-1 0,-0.55 1.131,-1 2.514,-1 1.382,0 3.295,-0.404 4.25,-0.897 1.679,-0.868 11.392,-3.817 19.852,-6.028 2.264,-0.591 7.808,-1.075 12.32,-1.075 7.343,0 8.642,-0.296 12.384,-2.819 8.944,-6.033 24.257,-11.165 33.412,-11.198 l 4.768,-0.018 -7,-6.759 c -3.85,-3.717 -8.575,-7.85 -10.5,-9.184 -1.925,-1.334 -3.725,-2.702 -4,-3.04 -1.039,-1.276 -9.903,-6.982 -10.847,-6.982 -0.542,0 -1.136,-0.378 -1.32,-0.841 -0.627,-1.581 -24.321,-12.769 -32.834,-15.503 -9.699,-3.115 -11.994,-4.302 -10.451,-5.406 0.577,-0.412 2.13,-2.325 3.452,-4.25 1.322,-1.925 2.672,-3.725 3,-4 0.328,-0.275 1.69,-2.075 3.026,-4 1.337,-1.925 3.453,-4.533 4.702,-5.795 1.25,-1.263 2.272,-2.618 2.272,-3.011 0,-0.393 1.025,-1.835 2.278,-3.204 1.254,-1.37 3.37,-4.065 4.703,-5.99 1.333,-1.925 3.233,-4.228 4.222,-5.117 0.988,-0.89 1.799,-2.015 1.802,-2.5 0.002,-0.486 1.254,-2.233 2.782,-3.883 1.527,-1.65 3.873,-4.575 5.212,-6.5 1.339,-1.925 3.015,-4.098 3.725,-4.828 1.808,-1.862 3.49,-5.172 2.628,-5.172 -1.212,0 -12.603,4.055 -17.091,6.084 -2.332,1.054 -4.893,1.916 -5.691,1.916 -0.799,0 -1.678,0.365 -1.954,0.812 -0.276,0.447 -3.79,1.894 -7.809,3.216 -4.019,1.321 -7.532,2.646 -7.807,2.943 -0.275,0.297 -2.3,1.13 -4.5,1.85 -2.2,0.721 -5.125,1.792 -6.5,2.379 -2.952,1.261 -3.883,1.622 -15,5.818 -4.675,1.764 -10.3,4.001 -12.5,4.971 -2.2,0.969 -5.428,2.072 -7.173,2.449 -3.497,0.757 -2.9,1.577 -8.327,-11.438 -1.261,-3.025 -2.867,-6.85 -3.569,-8.5 -0.701,-1.65 -2.245,-5.475 -3.431,-8.5 -2.235,-5.701 -3.304,-8.224 -6.884,-16.239 -1.164,-2.607 -2.116,-5.11 -2.116,-5.562 0,-0.832 -3.259,-8.232 -5.037,-11.435 -0.53,-0.955 -0.977,-2.305 -0.995,-3 -0.017,-0.695 -0.68,-2.121 -1.472,-3.167 -1.128,-1.491 -1.544,-1.599 -1.916,-0.5 m 223.166,141.331 c -13.106,3.769 -23.533,12.423 -28.857,23.95 -2.881,6.236 -3.296,8.179 -3.339,15.622 -0.029,5.1 0.516,9.9 1.361,12 2.432,6.043 9.098,13.846 16.305,19.088 9.759,7.098 11.612,12.393 8.273,23.636 -3.116,10.493 -7.634,12.306 -43.011,17.263 -56.431,7.907 -76.087,12.157 -111.978,24.212 -14.001,4.703 -44.568,16.618 -45.95,17.912 -0.522,0.489 -1.525,0.889 -2.229,0.889 -3.407,0 -53.407,25.856 -75.321,38.95 -11.134,6.654 -42.87,28.137 -55.297,37.435 -22.473,16.812 -61.7,49.562 -61.704,51.515 -0.001,0.33 7.761,0.444 17.25,0.254 18.617,-0.374 29.126,0.705 42.251,4.335 11.776,3.258 22.233,7.914 31.576,14.061 4.556,2.998 8.615,5.45 9.019,5.45 0.404,0 2.444,-2.362 4.533,-5.25 24.01,-33.187 57.109,-67.244 87.872,-90.417 44.877,-33.804 99.855,-59.265 156,-72.245 26.181,-6.053 31.789,-7.544 40.5,-10.768 20.856,-7.719 35.462,-18.305 42.07,-30.494 3.316,-6.117 3.43,-6.69 3.426,-17.326 -0.004,-10.481 -0.165,-11.33 -3.416,-17.99 -2.554,-5.235 -5.976,-9.631 -13.618,-17.5 -5.614,-5.781 -10.939,-11.95 -11.834,-13.71 -4.022,-7.909 0.412,-16.3 8.613,-16.3 5.143,0 8.691,1.98 13.657,7.621 2.269,2.578 4.321,4.494 4.558,4.256 0.238,-0.238 0.927,-4.413 1.532,-9.278 1.29,-10.386 0.979,-11 -7.724,-15.258 -6.513,-3.187 -17.192,-4.02 -24.518,-1.913 M 580,251.154 c -4.125,0.487 -9.893,1.138 -12.818,1.446 -4.179,0.441 -5.929,1.2 -8.167,3.541 -2.747,2.876 -3.001,2.94 -7.182,1.809 -15.03,-4.066 -39.324,8.624 -52.751,27.555 -4.46,6.287 -6.575,10.454 -9.138,17.995 -2.031,5.979 -2.383,8.969 -2.411,20.5 -0.032,13.084 0.063,13.703 3.098,20.109 4.851,10.237 11.04,13.891 23.529,13.891 7.686,0 12.487,-1.787 22.09,-8.222 l 5.75,-3.853 v 2.632 c 0,2.588 0.084,2.62 5.25,1.989 8.422,-1.03 20.07,-2.646 22.399,-3.108 2.449,-0.485 2.846,-1.869 6.876,-23.938 4.542,-24.876 12.348,-66.908 13.046,-70.25 0.511,-2.447 0.339,-3.217 -0.696,-3.116 -0.756,0.074 -4.75,0.533 -8.875,1.02 m -86,20.024 c -7.928,1.698 -18.286,4.847 -26.15,7.949 -8.516,3.359 -12.364,6.917 -28.216,26.096 l -3.866,4.678 -10.867,-5.451 c -5.977,-2.997 -11.39,-5.45 -12.029,-5.45 -0.638,0 -5.483,1.98 -10.766,4.4 -5.284,2.42 -12.667,5.8 -16.408,7.512 -5.969,2.732 -7.997,5.088 -4.378,5.088 3.715,0 35.68,15.919 35.68,17.769 0,0.297 -2.863,4.859 -6.362,10.136 -14.896,22.466 -23.917,39.775 -30.671,58.845 -1.023,2.887 -1.709,5.25 -1.525,5.25 0.184,0 7.309,-3.376 15.835,-7.502 l 15.5,-7.503 3.308,-8.247 c 3.613,-9.009 8.599,-18.899 15.713,-31.169 l 4.592,-7.92 6.727,7.252 c 3.7,3.989 8.835,10.396 11.413,14.237 3.501,5.219 5.1,6.824 6.328,6.353 0.903,-0.347 4.567,-1.473 8.142,-2.502 23.891,-6.876 26.517,-7.778 26.795,-9.197 0.827,-4.224 -21.33,-28.468 -34.513,-37.765 l -6.164,-4.348 2.846,-4.094 c 1.566,-2.252 3.677,-4.999 4.691,-6.103 1.015,-1.104 5.428,-5.986 9.807,-10.848 6.967,-7.736 17.029,-16.837 28.574,-25.847 3.699,-2.887 3.067,-3.14 -4.036,-1.619 m 48.927,0.775 c -8.065,4.319 -15.283,16.178 -20.54,33.748 -4.516,15.089 -3.602,27.175 2.47,32.67 3.174,2.872 6.665,1.346 14.152,-6.186 7.565,-7.61 6.532,-4.339 12.158,-38.483 2.415,-14.658 2.985,-20.24 2.197,-21.5 -1.498,-2.392 -6.225,-2.505 -10.437,-0.249 M 326.5,281.537 c -7.051,4.087 -62.499,31.911 -70.5,35.377 -19.625,8.503 -36.113,15.486 -42.876,18.158 l -7.838,3.097 -2.258,13.666 c -1.242,7.516 -2.873,17.265 -3.623,21.665 -0.751,4.4 -1.374,8.173 -1.385,8.385 -0.011,0.212 0.991,-0.913 2.226,-2.5 3.252,-4.178 7.766,-8.573 11.581,-11.274 4.192,-2.97 34.687,-18.111 36.475,-18.111 1.103,0 1.1,1.313 -0.017,7.75 -0.741,4.262 -4.911,28.9 -9.267,54.75 -4.357,25.85 -9.984,59.127 -12.505,73.948 -2.521,14.822 -4.455,27.577 -4.298,28.346 0.176,0.865 5.436,-2.916 13.785,-9.91 7.425,-6.22 14.068,-11.862 14.763,-12.538 0.694,-0.675 4.549,-3.947 8.566,-7.27 l 7.304,-6.041 3.169,-22.268 c 1.743,-12.247 4.759,-33.517 6.703,-47.267 3.426,-24.228 4.977,-34.906 9.525,-65.583 l 2.162,-14.582 6.154,-3.124 c 3.385,-1.717 10.757,-5.618 16.383,-8.667 11.132,-6.033 13.778,-6.583 17.041,-3.544 1.18,1.1 2.358,2 2.616,2 0.259,0 0.745,-2.587 1.082,-5.75 0.336,-3.163 1.022,-9.35 1.524,-13.75 2.138,-18.728 2.128,-18.501 0.792,-18.47 -0.706,0.016 -3.984,1.595 -7.284,3.507 m 25.234,42.514 c -10,3.441 -19.651,9.895 -29.829,19.949 -5.29,5.225 -11.507,12.425 -13.816,16 -11.128,17.229 -19.13,40.189 -17.862,51.25 2.079,18.127 11.42,28.75 25.281,28.75 13.175,0 33.219,-10.986 48.751,-26.722 l 6.76,-6.847 3.99,-13.964 c 2.195,-7.68 3.991,-14.617 3.991,-15.415 0,-0.798 -4.557,3.382 -10.126,9.287 -15.631,16.576 -25.452,23.359 -35.252,24.35 -6.146,0.621 -9.415,-1.565 -10.241,-6.848 l -0.522,-3.341 15.167,-9 c 8.342,-4.95 17.1,-10.125 19.464,-11.5 21.774,-12.667 26.469,-15.712 26.986,-17.497 0.319,-1.102 0.852,-5.836 1.185,-10.52 1.062,-14.948 -2.29,-24.122 -10.227,-27.998 -5.422,-2.647 -15.899,-2.618 -23.7,0.066 m -13.139,24.215 c -5.555,3.178 -9.317,8.326 -12.104,16.564 -2.685,7.934 -4.228,17.17 -2.87,17.17 0.766,-10e-4 23.708,-13.767 28.714,-17.23 1.521,-1.053 1.772,-2.315 1.462,-7.372 -0.501,-8.195 -2.635,-11.403 -7.57,-11.382 -2.05,0.009 -5.484,1.022 -7.632,2.25 m 171.748,31.282 c -0.326,0.851 -0.355,3.326 -0.063,5.5 0.291,2.173 0.204,3.952 -0.195,3.952 -0.399,0 -2.565,-1.575 -4.814,-3.5 -4.892,-4.188 -9.639,-4.865 -8.765,-1.25 0.299,1.238 0.871,4.944 1.271,8.237 0.553,4.545 1.149,6.068 2.476,6.323 1.477,0.285 1.747,-0.446 1.747,-4.737 0,-2.79 0.255,-5.073 0.567,-5.073 0.311,0 2.041,1.125 3.844,2.5 1.803,1.375 4.248,2.5 5.433,2.5 2.028,0 2.156,-0.474 2.156,-8 0,-6.517 -0.284,-8 -1.531,-8 -0.843,0 -1.799,0.696 -2.126,1.548 m -32.593,8.185 c -2.142,0.879 -3.753,2.231 -3.757,3.153 -0.015,3.861 2.426,17.114 3.153,17.114 1.987,0 9.854,-4.53 9.854,-5.675 0,-0.956 -0.642,-1.031 -2.565,-0.3 -3.769,1.433 -4.435,1.228 -4.435,-1.364 0,-1.526 0.87,-2.737 2.5,-3.479 3.568,-1.626 3.219,-3.499 -0.5,-2.682 -2.592,0.569 -3,0.372 -3,-1.445 0,-1.325 0.927,-2.457 2.5,-3.055 2.539,-0.965 3.537,-4.081 1.25,-3.903 -0.687,0.054 -2.937,0.79 -5,1.636 M 593,395.117 c -4.125,1.043 -13.125,3.014 -20,4.379 -20.727,4.115 -23.396,4.684 -26,5.543 -1.375,0.453 -5.711,1.802 -9.636,2.996 -7.228,2.199 -7.686,2.612 -10.231,9.215 -1.954,5.07 -7.581,16.273 -8.33,16.583 -0.441,0.184 -0.803,0.886 -0.803,1.562 0,0.675 -0.8,2.1 -1.777,3.166 -0.978,1.067 -2.886,3.514 -4.241,5.439 -3.202,4.548 -15.497,16.831 -19.982,19.961 -1.925,1.343 -3.725,2.74 -4,3.104 -0.884,1.17 -15.321,8.47 -21,10.619 -5.434,2.057 -8.965,3.065 -18.264,5.215 -6.872,1.588 -25.026,1.352 -33.604,-0.438 -8.026,-1.674 -8.271,-1.61 -14.24,3.713 -1.434,1.279 -5.458,4.801 -8.943,7.826 -8.606,7.47 -17.627,16.521 -22.449,22.522 -2.2,2.738 -4.55,5.428 -5.223,5.978 -1.613,1.319 -9.277,11.671 -9.277,12.531 0,0.752 10.626,6.08 16,8.024 1.925,0.696 3.927,1.643 4.45,2.105 0.522,0.462 1.958,0.84 3.191,0.84 1.233,0 2.488,0.4 2.791,0.89 0.302,0.489 2.016,1.112 3.809,1.383 1.792,0.272 6.184,1.228 9.759,2.125 12.209,3.062 15.509,3.533 29,4.14 16.679,0.75 34.584,-0.912 49,-4.548 2.475,-0.624 5.967,-1.377 7.759,-1.673 1.793,-0.296 3.507,-0.938 3.809,-1.427 0.303,-0.49 1.339,-0.89 2.303,-0.89 0.964,0 3.616,-0.9 5.893,-2 2.277,-1.1 4.836,-2 5.688,-2 0.851,0 1.548,-0.45 1.548,-1 0,-0.55 0.632,-1 1.405,-1 1.666,0 9.948,-4.17 10.428,-5.25 0.184,-0.413 1.196,-0.75 2.25,-0.75 1.055,0 1.917,-0.45 1.917,-1 0,-0.55 0.47,-1 1.045,-1 0.994,0 15.902,-9.644 16.955,-10.968 0.275,-0.345 2.075,-1.708 4,-3.028 4.493,-3.081 24.822,-23.423 27.986,-28.004 1.33,-1.925 2.686,-3.725 3.014,-4 0.328,-0.275 1.678,-2.075 3,-4 1.322,-1.925 2.65,-3.725 2.952,-4 0.301,-0.275 1.111,-1.512 1.798,-2.75 0.688,-1.238 1.813,-3.262 2.5,-4.5 0.688,-1.238 1.486,-2.475 1.775,-2.75 1.179,-1.122 8.975,-17.26 8.975,-18.578 0,-0.782 0.369,-1.422 0.819,-1.422 0.451,0 1.44,-2.279 2.198,-5.063 0.759,-2.785 1.74,-5.287 2.181,-5.559 0.441,-0.273 0.802,-1.568 0.802,-2.878 0,-1.31 0.398,-2.628 0.885,-2.929 0.486,-0.3 1.134,-1.79 1.438,-3.309 0.305,-1.519 1.06,-4.787 1.678,-7.262 1.957,-7.835 3.068,-14.294 3.655,-21.25 0.664,-7.862 1.196,-7.631 -10.656,-4.633 m -136.218,1.133 c -0.881,0.688 -2.597,3.613 -3.815,6.5 -1.217,2.887 -2.581,5.25 -3.03,5.25 -0.449,0 -0.956,-1.653 -1.127,-3.673 -0.348,-4.121 -1.536,-4.979 -4.197,-3.033 -1.675,1.224 -1.719,2.015 -0.603,10.876 1.397,11.098 1.976,12.497 4.578,11.041 1.436,-0.804 1.765,-2.018 1.54,-5.677 l -0.287,-4.656 4.04,2.061 c 4.608,2.351 6.239,2.541 7.866,0.914 0.863,-0.863 0.172,-1.853 -2.787,-3.997 l -3.933,-2.849 2.109,-5.254 c 3.62,-9.012 3.547,-10.55 -0.354,-7.503 M 629.5,398 c -0.34,0.55 0.008,1 0.773,1 0.849,0 1.793,1.853 2.422,4.75 l 1.03,4.75 0.137,-4.75 c 0.119,-4.084 0.427,-4.75 2.197,-4.75 1.132,0 1.781,-0.45 1.441,-1 -0.34,-0.55 -2.14,-1 -4,-1 -1.86,0 -3.66,0.45 -4,1 m 10.632,4.667 c 0.114,5.062 0.223,5.37 0.829,2.333 0.702,-3.526 1.113,-3.25 2.604,1.75 0.685,2.299 2.368,1.284 3.316,-2 l 0.939,-3.25 0.09,3.25 c 0.157,5.662 2.09,3.504 2.09,-2.333 0,-7.038 -2.168,-6.998 -4.52,0.083 -0.573,1.724 -0.824,1.527 -1.822,-1.425 -1.966,-5.814 -3.676,-5.042 -3.526,1.592 m -215.341,6.884 c -3.578,1.942 -8.449,9.142 -9.929,14.676 -2.173,8.123 3.408,15.177 10.584,13.376 4.191,-1.052 7.556,-4.981 7.543,-8.808 l -0.011,-3.295 -2.562,3.25 c -3.145,3.991 -8.62,4.606 -10.456,1.175 -2.732,-5.104 2.679,-15.925 7.963,-15.925 2.092,0 2.59,-1.498 1.47,-4.418 -0.734,-1.912 -1.133,-1.915 -4.602,-0.031 m 93.709,5.054 c -14.544,6.115 -30.799,14.037 -42,20.469 -16.164,9.282 -31.164,18.499 -32.5,19.971 -0.275,0.303 -2.525,1.788 -5,3.3 -5.022,3.067 -9.771,6.282 -15,10.154 -1.925,1.425 -5.71,4.222 -8.411,6.215 -4.81,3.549 -4.861,3.642 -2.5,4.55 3.91,1.503 26.754,2.088 34.463,0.882 33.886,-5.3 62.668,-29.089 76.853,-63.518 2.34,-5.68 2.589,-5.595 -5.905,-2.023 m -123.75,10.182 c -2.917,1.778 -3.369,3.947 -1.838,8.814 0.502,1.594 1.697,6.837 2.656,11.649 0.96,4.813 2.208,8.75 2.774,8.75 0.566,0 1.999,-0.911 3.184,-2.024 l 2.154,-2.024 -2.354,-11.226 c -3.437,-16.386 -3.241,-15.971 -6.576,-13.939 m -23.475,14.985 c -2.152,1.671 -2.18,1.921 -0.864,7.551 l 1.36,5.823 -4.635,3.402 c -2.55,1.872 -5.12,3.414 -5.712,3.427 -0.592,0.014 -1.717,-2.694 -2.5,-6.017 l -1.424,-6.042 -3.358,2.814 -3.357,2.813 2.23,10.479 c 3.313,15.57 3.894,18.403 3.941,19.228 0.092,1.581 2.795,0.644 5.042,-1.748 2.207,-2.349 2.277,-2.801 1.174,-7.576 -1.69,-7.322 -1.665,-7.394 3.923,-11.496 5.237,-3.844 6.849,-3.668 6.89,0.755 0.008,0.927 0.465,2.869 1.016,4.317 l 1.001,2.633 2.916,-2.076 c 3.163,-2.253 3.156,-1.478 0.124,-13.059 -0.503,-1.925 -1.442,-5.75 -2.086,-8.5 -2.306,-9.856 -2.047,-9.549 -5.681,-6.728 m -44.22,29.369 c -10.362,7.173 -17.273,18.824 -17.359,29.268 -0.069,8.243 1.853,11.755 8.241,15.059 4.181,2.161 7.77,1.517 13.495,-2.421 7.133,-4.908 9.725,-8.618 9.015,-12.904 -1.075,-6.496 -1.366,-6.668 -4.111,-2.435 -4.797,7.399 -11.382,9.337 -16.006,4.712 -2.263,-2.263 -2.504,-3.133 -1.962,-7.09 1.41,-10.288 7.074,-17.317 13.961,-17.326 2.66,-0.004 2.791,-0.2 2.176,-3.254 -1.037,-5.152 -1.59,-6.752 -2.322,-6.718 -0.376,0.017 -2.683,1.416 -5.128,3.109"
       stroke="none"
       fill="#205380"
       fill-rule="evenodd"
       id="path237" /><path
       d="m 400,110 c 0,1.1 -0.45,2 -1,2 -0.55,0 -1.007,1.912 -1.015,4.25 -0.012,3.112 -0.275,3.849 -0.985,2.75 -0.706,-1.093 -0.978,-0.278 -1,3 -0.022,3.278 -0.294,4.093 -1,3 -0.692,-1.07 -0.978,0.076 -1,4 -0.022,3.924 -0.308,5.07 -1,4 -0.706,-1.093 -0.978,-0.278 -1,3 -0.022,3.278 -0.294,4.093 -1,3 -0.706,-1.093 -0.978,-0.278 -1,3 -0.022,3.278 -0.294,4.093 -1,3 -0.706,-1.093 -0.978,-0.278 -1,3 -0.022,3.278 -0.294,4.093 -1,3 -0.692,-1.07 -0.978,0.076 -1,4 -0.022,3.924 -0.308,5.07 -1,4 -0.706,-1.093 -0.978,-0.278 -1,3 -0.022,3.278 -0.294,4.093 -1,3 -0.709,-1.097 -0.973,-0.342 -0.985,2.809 -0.009,2.615 -0.408,4.066 -1.015,3.691 -0.613,-0.379 -1.006,1.243 -1.015,4.191 -0.011,3.474 -0.285,4.392 -0.985,3.309 -0.706,-1.093 -0.978,-0.278 -1,3 -0.022,3.278 -0.294,4.093 -1,3 -0.71,-1.099 -0.973,-0.362 -0.985,2.75 -0.008,2.338 -0.465,4.25 -1.015,4.25 -0.55,0 -1,1.377 -1,3.059 0,1.785 -0.417,2.802 -1,2.441 -0.55,-0.34 -1,0.084 -1,0.941 0,0.892 -0.855,1.559 -2,1.559 -1.1,0 -2,0.45 -2,1 0,0.55 -1.913,1.007 -4.25,1.015 -3.112,0.012 -3.849,0.275 -2.75,0.985 1.138,0.736 0.716,0.973 -1.75,0.985 -1.788,0.008 -3.25,0.465 -3.25,1.015 0,0.55 -1.462,1.007 -3.25,1.015 -2.466,0.012 -2.888,0.249 -1.75,0.985 1.093,0.706 0.278,0.978 -3,1 -3.278,0.022 -4.093,0.294 -3,1 1.113,0.72 0.519,0.973 -2.309,0.985 -2.281,0.009 -3.561,0.416 -3.191,1.015 0.364,0.589 -0.743,1.006 -2.691,1.015 -2.504,0.012 -2.944,0.251 -1.809,0.985 1.093,0.706 0.278,0.978 -3,1 -3.278,0.022 -4.093,0.294 -3,1 1.138,0.736 0.716,0.973 -1.75,0.985 -1.788,0.008 -3.25,0.465 -3.25,1.015 0,0.55 -1.462,1.007 -3.25,1.015 -2.466,0.012 -2.888,0.249 -1.75,0.985 1.093,0.706 0.278,0.978 -3,1 -3.278,0.022 -4.093,0.294 -3,1 1.138,0.736 0.716,0.973 -1.75,0.985 -1.788,0.008 -3.25,0.465 -3.25,1.015 0,0.55 -1.462,1.007 -3.25,1.015 -2.466,0.012 -2.888,0.249 -1.75,0.985 1.093,0.706 0.278,0.978 -3,1 -3.278,0.022 -4.093,0.294 -3,1 1.128,0.729 0.631,0.977 -2,1 -2.631,0.023 -3.128,0.271 -2,1 1,0.646 1.083,0.974 0.25,0.985 -0.687,0.008 -1.25,0.465 -1.25,1.015 0,0.55 0.801,1 1.779,1 0.979,0 2.428,0.9 3.221,2 0.793,1.1 2.242,2 3.221,2 0.978,0 1.779,0.45 1.779,1 0,0.55 0.927,1 2.059,1 1.132,0 1.781,0.45 1.441,1 -0.355,0.575 0.576,1.007 2.191,1.015 2.181,0.012 2.474,0.232 1.309,0.985 -1.128,0.729 -0.631,0.977 2,1 2.631,0.023 3.128,0.271 2,1 -1,0.646 -1.083,0.974 -0.25,0.985 2.608,0.032 1.07,3.32 -3.75,8.015 -2.75,2.679 -5.007,5.687 -5.015,6.685 -0.013,1.538 -0.164,1.586 -0.985,0.315 -0.769,-1.19 -0.976,-0.983 -1,1 -0.024,1.983 -0.231,2.19 -1,1 -0.801,-1.239 -0.972,-1.147 -0.985,0.529 -0.008,1.116 -0.915,2.678 -2.015,3.471 -1.1,0.793 -2.007,2.355 -2.015,3.471 -0.013,1.676 -0.184,1.768 -0.985,0.529 -0.784,-1.213 -0.972,-1.069 -0.985,0.75 -0.008,1.238 -0.465,2.25 -1.015,2.25 -0.55,0 -1.007,1.012 -1.015,2.25 -0.013,1.819 -0.201,1.963 -0.985,0.75 -0.78,-1.207 -0.972,-1.049 -0.985,0.809 -0.008,1.282 -0.46,2.034 -1.015,1.691 -0.575,-0.355 -1.007,0.576 -1.015,2.191 -0.012,2.181 -0.232,2.474 -0.985,1.309 -0.784,-1.213 -0.972,-1.069 -0.985,0.75 -0.008,1.238 -0.465,2.25 -1.015,2.25 -0.55,0 -1,0.9 -1,2 0,1.1 -0.45,2 -1,2 -0.55,0 -1,1.35 -1,3 0,1.65 0.45,3 1,3 0.55,0 1,-0.45 1,-1 0,-0.55 0.9,-1 2,-1 1.1,0 2,-0.45 2,-1 0,-0.55 0.788,-1.007 1.75,-1.016 1.092,-0.009 3.956,-3.387 7.616,-8.98 3.226,-4.931 6.601,-9.834 7.5,-10.895 0.899,-1.061 3.209,-3.864 5.134,-6.23 1.925,-2.365 5.852,-6.661 8.728,-9.546 4.94,-4.956 5.393,-5.187 8.25,-4.191 1.662,0.58 3.022,1.578 3.022,2.22 0,0.641 -2.137,3.21 -4.75,5.708 -2.613,2.499 -6.773,6.993 -9.246,9.987 -2.472,2.993 -5.07,6.048 -5.773,6.788 -0.703,0.739 -1.954,2.652 -2.78,4.25 -1.446,2.797 -1.417,2.904 0.773,2.89 1.836,-0.013 1.986,-0.203 0.776,-0.985 -1.128,-0.729 -0.631,-0.977 2,-1 2.631,-0.023 3.128,-0.271 2,-1 -1.213,-0.784 -1.069,-0.972 0.75,-0.985 1.238,-0.008 2.25,-0.465 2.25,-1.015 0,-0.55 0.9,-1 2,-1 1.1,0 2,-0.45 2,-1 0,-0.55 0.9,-1 2,-1 1.1,0 2,-0.45 2,-1 0,-0.55 0.9,-1 2,-1 1.1,0 2,-0.45 2,-1 0,-0.593 3.667,-1 9,-1 5.333,0 9,0.407 9,1 0,0.55 0.9,1 2,1 1.333,0 2,0.667 2,2 0,1.1 0.45,2 1,2 0.618,0 0.962,4.684 0.9,12.25 -0.062,7.685 -0.398,11.318 -0.9,9.75 -0.521,-1.628 -0.835,1.074 -0.9,7.75 L 350,316 l 3.25,-0.015 c 2.466,-0.012 2.888,-0.249 1.75,-0.985 -1.113,-0.719 -0.514,-0.973 2.321,-0.985 3.366,-0.013 6.679,-1.734 6.679,-3.469 0,-0.329 2.082,-4.973 4.627,-10.322 4.416,-9.28 7.218,-15.264 14.735,-31.474 7.128,-15.37 17.687,-37.775 18.465,-39.181 0.447,-0.809 -6.471,4.01 -7.827,5.451 -0.275,0.292 -2.525,2.083 -5,3.98 -2.475,1.897 -4.725,3.697 -5,4 -0.275,0.303 -2.525,2.103 -5,4 -2.475,1.897 -4.725,3.688 -5,3.98 -0.275,0.292 -2.075,1.715 -4,3.162 -1.925,1.447 -4.589,3.588 -5.919,4.758 -2.814,2.475 -3.561,2.317 -12.808,-2.705 -3.741,-2.032 -8.145,-4.369 -9.787,-5.193 -1.642,-0.825 -3.211,-1.725 -3.486,-2 -0.522,-0.524 -11.857,-6.601 -15.742,-8.441 -1.233,-0.583 -2.246,-1.399 -2.25,-1.811 C 320.004,238.338 319.1,238 318,238 c -1.1,0 -2.007,-0.338 -2.016,-0.75 -0.008,-0.412 -2.258,-1.851 -5,-3.197 -2.741,-1.346 -4.984,-2.738 -4.984,-3.093 0,-0.634 10.609,-1.109 66,-2.955 15.125,-0.504 28.076,-0.937 28.78,-0.961 0.703,-0.024 -4.185,-5.482 -10.864,-12.128 l -12.143,-12.083 5.174,-16.167 c 10.995,-34.356 14.813,-46.372 16.495,-51.916 0.959,-3.162 2.152,-5.75 2.651,-5.75 0.516,0 0.908,9.808 0.909,22.75 0.004,39.652 1.188,76.003 2.386,73.212 0.581,-1.354 1.322,-2.687 1.646,-2.962 0.324,-0.275 2.886,-5 5.694,-10.5 8.19,-16.045 9.739,-18.97 10.324,-19.5 0.304,-0.275 1.337,-2.187 2.297,-4.25 0.96,-2.062 2.179,-3.75 2.709,-3.75 0.53,0 2.871,-0.848 5.203,-1.885 2.331,-1.037 6.939,-2.873 10.239,-4.08 3.3,-1.207 6.781,-2.609 7.736,-3.115 0.955,-0.506 2.198,-0.92 2.761,-0.92 0.564,0 2.932,-0.849 5.264,-1.887 6.052,-2.695 20.099,-8.125 21,-8.118 0.418,0.003 2.668,-0.842 5,-1.877 11.567,-5.134 15.427,-5.392 9.109,-0.608 -2.129,1.611 -4.742,3.731 -5.809,4.71 -1.066,0.979 -2.335,1.78 -2.821,1.78 -0.486,0 -1.559,0.676 -2.384,1.502 -0.826,0.825 -4.507,3.623 -8.179,6.215 -3.672,2.593 -6.902,4.977 -7.177,5.297 -0.275,0.32 -2.075,1.664 -4,2.986 -1.925,1.322 -3.725,2.672 -4,3 -0.275,0.328 -2.075,1.678 -4,3 -1.925,1.322 -3.725,2.672 -4,3 -0.275,0.328 -2.075,1.678 -4,3 -1.925,1.322 -3.725,2.65 -4,2.952 -0.275,0.301 -2.075,1.653 -4,3.003 -1.925,1.351 -3.95,2.821 -4.5,3.267 -0.55,0.447 -4.15,3.141 -8,5.988 -3.85,2.846 -7.15,5.538 -7.333,5.982 -0.184,0.445 -0.728,0.808 -1.209,0.808 -0.482,0 -3.407,1.893 -6.501,4.207 -4.726,3.534 -5.333,4.323 -3.792,4.93 1.009,0.397 9.985,0.754 19.947,0.793 l 18.112,0.07 4.809,14.75 c 2.644,8.113 5.181,15.178 5.638,15.7 0.456,0.523 0.829,1.609 0.829,2.414 0,0.805 0.762,3.19 1.692,5.3 1.608,3.644 1.921,3.835 6.25,3.821 3.312,-0.011 4.148,-0.281 3.058,-0.985 -1.093,-0.706 -0.278,-0.978 3,-1 3.278,-0.022 4.093,-0.294 3,-1 -1.093,-0.706 -0.278,-0.978 3,-1 3.278,-0.022 4.093,-0.294 3,-1 -1.07,-0.692 0.076,-0.978 4,-1 3.924,-0.022 5.07,-0.308 4,-1 -1.015,-0.656 2.393,-0.974 10.529,-0.985 10.872,-0.014 12.168,-0.207 13.471,-2.015 0.793,-1.1 2.242,-2 3.221,-2 0.978,0 1.779,-0.45 1.779,-1 0,-0.55 0.9,-1 2,-1 1.1,0 2,-0.45 2,-1 0,-0.55 1.013,-1.007 2.25,-1.015 1.819,-0.013 1.963,-0.201 0.75,-0.985 -1.138,-0.736 -0.716,-0.973 1.75,-0.985 7.666,-0.036 1.284,-6.933 -15.775,-17.048 -9.938,-5.893 -12.02,-6.967 -13.505,-6.967 -0.809,0 -1.47,-0.45 -1.47,-1 0,-0.55 -0.81,-1 -1.8,-1 -0.99,0 -2.227,-0.404 -2.75,-0.898 -1.314,-1.243 -18.745,-7.102 -21.128,-7.102 -1.067,0 -2.75,-0.593 -3.741,-1.317 -1.711,-1.251 -1.684,-1.45 0.559,-4.024 l 2.36,-2.708 7,2.114 c 3.85,1.163 7.781,2.524 8.736,3.025 0.955,0.5 2.198,0.91 2.761,0.91 1.041,0 6.849,2.459 15.003,6.352 8.919,4.258 24.392,14.081 29,18.412 1.375,1.292 3.737,3.096 5.25,4.008 1.513,0.913 2.75,2.012 2.75,2.444 0,0.431 2.25,0.784 5,0.784 3.826,0 5,-0.36 5,-1.533 0,-2.078 -6.497,-8.448 -8.717,-8.546 -1.032,-0.046 -1.261,-0.29 -0.542,-0.58 0.953,-0.385 0.911,-0.832 -0.178,-1.921 -0.781,-0.781 -1.947,-1.42 -2.59,-1.42 -0.644,0 -2.432,-1.35 -3.973,-3 -1.541,-1.65 -3.522,-3 -4.401,-3 -0.88,0 -1.599,-0.45 -1.599,-1 0,-0.55 -1.013,-1.007 -2.25,-1.015 -1.819,-0.013 -1.963,-0.201 -0.75,-0.985 1.213,-0.784 1.069,-0.972 -0.75,-0.985 C 523.013,224.007 522,223.55 522,223 c 0,-0.55 -1.013,-1.007 -2.25,-1.015 -1.819,-0.013 -1.963,-0.201 -0.75,-0.985 1.213,-0.784 1.069,-0.972 -0.75,-0.985 C 517.013,220.007 516,219.55 516,219 c 0,-0.55 -0.9,-1 -2,-1 -1.1,0 -2,-0.45 -2,-1 0,-0.55 -0.9,-1 -2,-1 -1.1,0 -2,-0.45 -2,-1 0,-0.55 -0.9,-1 -2,-1 -1.1,0 -2,-0.45 -2,-1 0,-0.55 -0.9,-1 -2,-1 -1.1,0 -2,-0.45 -2,-1 0,-0.55 -1.462,-1.007 -3.25,-1.015 -2.466,-0.012 -2.888,-0.249 -1.75,-0.985 1.138,-0.736 0.716,-0.973 -1.75,-0.985 C 491.462,208.007 490,207.55 490,207 c 0,-0.55 -1.35,-1 -3,-1 -1.65,0 -3,-0.45 -3,-1 0,-0.55 -1.913,-1.007 -4.25,-1.015 -3.112,-0.012 -3.849,-0.275 -2.75,-0.985 1,-0.646 1.083,-0.974 0.25,-0.985 -2.445,-0.03 -1.191,-3.228 2.75,-7.015 2.2,-2.114 4,-4.373 4,-5.02 0,-0.648 1.35,-2.439 3,-3.98 1.65,-1.541 3,-3.341 3,-4 0,-0.659 1.35,-2.459 3,-4 1.65,-1.541 3,-3.341 3,-4 0,-0.659 1.35,-2.459 3,-4 1.65,-1.541 3,-3.341 3,-4 0,-0.659 1.35,-2.459 3,-4 1.65,-1.541 3,-3.329 3,-3.973 0,-0.643 0.639,-1.809 1.42,-2.59 1.089,-1.089 1.536,-1.131 1.921,-0.178 0.275,0.683 0.537,0.328 0.58,-0.788 0.043,-1.116 0.979,-2.678 2.079,-3.471 1.1,-0.793 2.007,-2.355 2.015,-3.471 0.013,-1.676 0.184,-1.768 0.985,-0.529 0.784,1.213 0.972,1.069 0.985,-0.75 0.012,-1.837 -0.536,-2.25 -2.985,-2.25 -1.65,0 -3,0.45 -3,1 0,0.55 -1.462,1.007 -3.25,1.015 -2.466,0.012 -2.888,0.249 -1.75,0.985 1.138,0.736 0.716,0.973 -1.75,0.985 -1.788,0.008 -3.25,0.465 -3.25,1.015 0,0.55 -1.462,1.007 -3.25,1.015 -2.466,0.012 -2.888,0.249 -1.75,0.985 1.138,0.736 0.716,0.973 -1.75,0.985 -1.788,0.008 -3.25,0.465 -3.25,1.015 0,0.55 -1.462,1.007 -3.25,1.015 -2.466,0.012 -2.888,0.249 -1.75,0.985 1.093,0.706 0.278,0.978 -3,1 -3.278,0.022 -4.093,0.294 -3,1 1.138,0.736 0.716,0.973 -1.75,0.985 -1.788,0.008 -3.25,0.465 -3.25,1.015 0,0.55 -1.462,1.007 -3.25,1.015 -2.466,0.012 -2.888,0.249 -1.75,0.985 1.113,0.719 0.467,0.991 -2.5,1.055 -3.157,0.068 -3.579,0.267 -2,0.945 1.529,0.657 0.941,0.88 -2.5,0.945 -3.291,0.063 -4.097,0.346 -3,1.055 1.113,0.72 0.519,0.973 -2.309,0.985 -2.281,0.009 -3.561,0.416 -3.191,1.015 0.364,0.589 -0.743,1.006 -2.691,1.015 -2.504,0.012 -2.944,0.251 -1.809,0.985 1.093,0.706 0.278,0.978 -3,1 -3.278,0.022 -4.093,0.294 -3,1 1.138,0.736 0.716,0.973 -1.75,0.985 -1.788,0.008 -3.25,0.465 -3.25,1.015 0,0.55 -1.462,1.007 -3.25,1.015 -2.491,0.012 -2.899,0.247 -1.75,1.005 1.131,0.746 0.718,0.938 -1.681,0.777 -1.749,-0.116 -2.983,-0.532 -2.741,-0.924 0.242,-0.391 -0.239,-1.391 -1.069,-2.221 -0.83,-0.83 -1.516,-2.779 -1.524,-4.331 -0.012,-2.189 -0.233,-2.485 -0.985,-1.321 -0.734,1.135 -0.973,0.695 -0.985,-1.809 -0.009,-1.948 -0.426,-3.055 -1.015,-2.691 -0.599,0.37 -1.006,-0.91 -1.015,-3.191 -0.012,-2.828 -0.265,-3.422 -0.985,-2.309 -0.729,1.128 -0.977,0.631 -1,-2 -0.023,-2.631 -0.271,-3.128 -1,-2 -0.736,1.138 -0.973,0.716 -0.985,-1.75 C 420.007,149.463 419.55,148 419,148 c -0.55,0 -1.007,-1.463 -1.015,-3.25 -0.012,-2.466 -0.249,-2.888 -0.985,-1.75 -0.72,1.113 -0.973,0.519 -0.985,-2.309 -0.009,-2.281 -0.416,-3.561 -1.015,-3.191 -0.589,0.364 -1.006,-0.743 -1.015,-2.691 -0.012,-2.504 -0.251,-2.944 -0.985,-1.809 -0.736,1.138 -0.973,0.716 -0.985,-1.75 C 412.007,129.463 411.55,128 411,128 c -0.55,0 -1.007,-1.463 -1.015,-3.25 -0.012,-2.466 -0.249,-2.888 -0.985,-1.75 -0.729,1.128 -0.977,0.631 -1,-2 -0.023,-2.631 -0.271,-3.128 -1,-2 -0.72,1.113 -0.973,0.519 -0.985,-2.309 -0.009,-2.281 -0.416,-3.561 -1.015,-3.191 -0.589,0.364 -1.006,-0.743 -1.015,-2.691 -0.012,-2.504 -0.251,-2.944 -0.985,-1.809 -0.646,1 -0.974,1.083 -0.985,0.25 C 402.007,108.563 401.55,108 401,108 c -0.55,0 -1,0.9 -1,2 m 4.007,139.703 C 404,269.642 403.264,276 400.961,276 c -0.395,0 -1.278,1.35 -1.961,3 -0.683,1.65 -1.583,3 -2,3 -0.417,0 -1.317,1.35 -2,3 -0.683,1.65 -1.583,3 -2,3 -0.417,0 -1.317,1.35 -2,3 -0.683,1.65 -1.566,3 -1.961,3 -0.637,0 -3.039,4.384 -3.039,5.547 0,0.249 1.012,0.446 2.25,0.438 1.819,-0.013 1.963,-0.201 0.75,-0.985 -1.164,-0.752 -0.868,-0.973 1.321,-0.985 3.019,-0.016 5.679,-2.004 5.679,-4.244 0,-2.644 2.451,-3.771 8.2,-3.771 3.2,0 5.8,-0.448 5.8,-1 0,-0.55 -2.25,-1 -5,-1 -4.239,0 -5,-0.288 -5,-1.893 0,-2.446 1.873,-3.106 8.832,-3.112 5.599,-0.005 15.168,2.646 15.168,4.203 0,0.441 -1.687,0.855 -3.75,0.92 -9.79,0.309 -8.92,1.572 1.188,1.724 6.016,0.091 12.377,0.685 14.136,1.321 2.902,1.049 3.439,0.914 5.812,-1.458 1.438,-1.438 2.614,-3.117 2.614,-3.731 0,-0.614 0.639,-1.756 1.42,-2.536 1.089,-1.09 1.536,-1.132 1.921,-0.179 0.275,0.683 0.537,0.229 0.58,-1.009 0.043,-1.238 0.529,-2.25 1.079,-2.25 2.575,0 0.411,-3.855 -5.821,-10.37 -3.752,-3.921 -9.264,-9.79 -12.25,-13.042 -2.986,-3.251 -10.263,-10.901 -16.172,-17 L 404.014,228.5 404.007,249.703 M 597,395 c 1.302,0.841 1.283,0.971 -0.143,0.985 -1.884,0.017 -2.857,2.009 -2.857,5.847 0,5.148 -5.448,27.72 -7.149,29.618 -0.468,0.523 -0.851,1.958 -0.851,3.191 0,1.233 -0.45,2.519 -1,2.859 -0.55,0.34 -1.003,1.379 -1.006,2.309 -0.008,2.162 -10.862,23.685 -14.913,29.573 -1.695,2.463 -3.081,4.922 -3.081,5.465 0,0.542 -0.341,1.136 -0.757,1.32 -0.417,0.183 -2.325,2.358 -4.24,4.833 -8.362,10.807 -24.519,27.113 -31.21,31.5 -0.839,0.55 -4.848,3.299 -8.909,6.109 -7.369,5.099 -26.608,15.391 -28.77,15.391 -0.628,0 -1.923,0.397 -2.878,0.883 -9.217,4.689 -20.318,7.286 -41.986,9.824 -13.308,1.559 -15.192,1.559 -28.5,0 -22.427,-2.626 -31.005,-4.746 -47.224,-11.667 l -10.974,-4.683 -2.276,2.276 c -2.938,2.938 -2.95,5.362 -0.026,5.382 1.819,0.013 1.963,0.201 0.75,0.985 -1.128,0.729 -0.631,0.977 2,1 2.631,0.023 3.128,0.271 2,1 -1.138,0.736 -0.716,0.973 1.75,0.985 1.788,0.008 3.25,0.465 3.25,1.015 0,0.55 0.9,1 2,1 1.1,0 2,0.45 2,1 0,0.55 1.462,1.007 3.25,1.015 2.466,0.012 2.888,0.249 1.75,0.985 -1.093,0.706 -0.278,0.978 3,1 3.278,0.022 4.093,0.294 3,1 -1.07,0.692 0.076,0.978 4,1 3.924,0.022 5.07,0.308 4,1 -1.07,0.692 0.076,0.978 4,1 3.924,0.022 5.07,0.308 4,1 -1.048,0.677 0.759,1.004 6,1.084 5.299,0.082 6.766,0.35 5,0.916 -1.41,0.451 8.186,0.837 22,0.885 16.152,0.056 23.989,-0.246 23,-0.885 -1.043,-0.674 0.784,-0.979 6,-1 5.216,-0.021 7.043,-0.326 6,-1 -1.07,-0.692 0.076,-0.978 4,-1 3.924,-0.022 5.07,-0.308 4,-1 -1.07,-0.692 0.076,-0.978 4,-1 3.924,-0.022 5.07,-0.308 4,-1 -1.093,-0.706 -0.278,-0.978 3,-1 3.278,-0.022 4.093,-0.294 3,-1 -1.138,-0.736 -0.716,-0.973 1.75,-0.985 1.788,-0.008 3.25,-0.465 3.25,-1.015 0,-0.55 1.462,-1.007 3.25,-1.015 2.466,-0.012 2.888,-0.249 1.75,-0.985 -1.128,-0.729 -0.631,-0.977 2,-1 2.631,-0.023 3.128,-0.271 2,-1 -1.128,-0.729 -0.631,-0.977 2,-1 2.631,-0.023 3.128,-0.271 2,-1 -1.138,-0.736 -0.716,-0.973 1.75,-0.985 1.788,-0.008 3.25,-0.465 3.25,-1.015 0,-0.55 1.013,-1.007 2.25,-1.015 1.819,-0.013 1.963,-0.201 0.75,-0.985 -1.213,-0.784 -1.069,-0.972 0.75,-0.985 1.237,-0.008 2.25,-0.465 2.25,-1.015 0,-0.55 0.801,-1 1.779,-1 0.979,0 2.428,-0.9 3.221,-2 0.793,-1.1 2.143,-2 3,-2 0.857,0 2.207,-0.9 3,-2 0.793,-1.1 2.355,-2.007 3.471,-2.015 1.676,-0.013 1.768,-0.184 0.529,-0.985 -1.265,-0.818 -1.211,-0.972 0.349,-0.985 1.017,-0.008 3.11,-1.365 4.651,-3.015 1.541,-1.65 3.303,-3 3.915,-3 1.83,0 18.084,-16.825 18.1,-18.736 0.013,-1.505 0.158,-1.543 0.985,-0.264 0.818,1.265 0.972,1.211 0.985,-0.349 0.008,-1.017 1.365,-3.11 3.015,-4.651 1.65,-1.541 3.007,-3.634 3.015,-4.651 0.013,-1.56 0.167,-1.614 0.985,-0.349 0.78,1.207 0.972,1.049 0.985,-0.809 0.008,-1.282 0.46,-2.034 1.015,-1.691 0.55,0.34 1,-0.084 1,-0.941 0,-0.857 0.45,-1.559 1,-1.559 0.55,0 1,-0.9 1,-2 0,-1.1 0.45,-2 1,-2 0.55,0 1,-0.702 1,-1.559 0,-0.857 0.45,-1.281 1,-0.941 0.55,0.34 1,-0.309 1,-1.441 0,-1.132 0.45,-2.059 1,-2.059 0.55,0 1.007,-1.012 1.015,-2.25 0.013,-1.819 0.201,-1.963 0.985,-0.75 0.784,1.213 0.972,1.069 0.985,-0.75 0.008,-1.238 0.465,-2.25 1.015,-2.25 0.55,0 1,-0.9 1,-2 0,-1.1 0.45,-2 1,-2 0.55,0 1,-0.9 1,-2 0,-1.1 0.45,-2 1,-2 0.55,0 1.007,-1.462 1.015,-3.25 0.012,-2.466 0.249,-2.888 0.985,-1.75 0.729,1.128 0.977,0.631 1,-2 0.023,-2.631 0.271,-3.128 1,-2 0.736,1.138 0.973,0.716 0.985,-1.75 0.008,-1.788 0.465,-3.25 1.015,-3.25 0.55,0 1,-1.377 1,-3.059 0,-1.785 0.417,-2.802 1,-2.441 0.611,0.377 1.027,-1.255 1.07,-4.191 0.053,-3.607 0.285,-4.309 0.93,-2.809 0.64,1.489 0.881,0.724 0.945,-3 0.062,-3.615 0.354,-4.584 1.055,-3.5 0.692,1.07 0.978,-0.076 1,-4 0.022,-3.924 0.308,-5.07 1,-4 0.676,1.046 0.995,-0.768 1.055,-6 0.059,-5.13 0.357,-6.868 0.945,-5.5 0.618,1.439 0.879,0.387 0.93,-3.75 L 604,394 l -4.25,0.015 c -3.112,0.012 -3.849,0.275 -2.75,0.985 m -18,4 c 1.055,0.682 -0.43,0.978 -5,1 -4.57,0.022 -6.055,0.318 -5,1 1.052,0.68 -0.591,0.995 -5.5,1.055 -4.849,0.059 -6.386,0.35 -5,0.945 1.406,0.604 0.069,0.885 -4.5,0.945 -4.586,0.06 -6.058,0.371 -5,1.055 1.099,0.71 0.362,0.973 -2.75,0.985 -2.337,0.008 -4.25,0.465 -4.25,1.015 0,0.55 -1.602,1 -3.559,1 -2.118,0 -3.309,0.405 -2.941,1 0.34,0.55 -0.209,1 -1.22,1 -1.011,0 -2.47,0.876 -3.241,1.946 -0.772,1.071 -1.771,1.719 -2.221,1.441 -0.45,-0.278 -0.825,1.209 -0.833,3.304 -0.012,2.828 -0.265,3.422 -0.985,2.309 -0.734,-1.135 -0.973,-0.695 -0.985,1.809 -0.009,1.948 -0.426,3.055 -1.015,2.691 -0.567,-0.351 -1,0.49 -1,1.941 0,1.407 -0.45,2.559 -1,2.559 -0.55,0 -1,0.9 -1,2 0,1.1 -0.45,2 -1,2 -0.55,0 -1,0.801 -1,1.779 0,0.979 -0.9,2.428 -2,3.221 -1.1,0.793 -2.007,2.355 -2.015,3.471 -0.013,1.676 -0.184,1.768 -0.985,0.529 -0.801,-1.239 -0.972,-1.147 -0.985,0.529 -0.008,1.116 -0.915,2.678 -2.015,3.471 -1.1,0.793 -2.036,2.355 -2.079,3.471 -0.043,1.116 -0.305,1.471 -0.58,0.788 -0.385,-0.953 -0.832,-0.911 -1.921,0.179 -0.781,0.78 -1.42,1.922 -1.42,2.536 0,1.453 -4.578,6.026 -6.033,6.026 -0.618,0 -2.853,1.8 -4.967,4 -2.114,2.2 -4.58,4 -5.481,4 -0.9,0 -1.359,0.45 -1.019,1 0.34,0.55 -0.084,1 -0.941,1 -0.857,0 -1.559,0.45 -1.559,1 0,0.55 -1.012,1.007 -2.25,1.015 -1.819,0.013 -1.963,0.201 -0.75,0.985 1.213,0.784 1.069,0.972 -0.75,0.985 -1.238,0.008 -2.25,0.465 -2.25,1.015 0,0.55 -1.462,1.007 -3.25,1.015 -2.466,0.012 -2.888,0.249 -1.75,0.985 1.128,0.729 0.631,0.977 -2,1 -2.631,0.023 -3.128,0.271 -2,1 1.113,0.72 0.519,0.973 -2.309,0.985 -2.281,0.009 -3.561,0.416 -3.191,1.015 0.375,0.607 -1.076,1.006 -3.691,1.015 -3.151,0.012 -3.906,0.276 -2.809,0.985 1.066,0.689 -0.238,0.994 -4.5,1.055 -4.287,0.061 -5.429,0.331 -4,0.945 1.211,0.52 -5.691,0.881 -17.5,0.914 -12.935,0.037 -18.995,-0.271 -18,-0.914 1.078,-0.697 0.087,-0.974 -3.529,-0.985 -3.894,-0.012 -5.355,0.437 -6.471,1.985 -0.793,1.1 -2.355,2.007 -3.471,2.015 -1.676,0.013 -1.768,0.184 -0.529,0.985 1.272,0.822 1.226,0.972 -0.305,0.985 -0.993,0.008 -4.456,2.715 -7.695,6.015 -3.239,3.3 -6.702,6.036 -7.695,6.079 -0.993,0.043 -1.259,0.3 -0.592,0.571 0.703,0.285 -2.982,4.659 -8.75,10.386 -5.479,5.442 -9.963,10.27 -9.963,10.73 0,1.308 8.553,5.143 19.5,8.743 9.478,3.118 12.769,3.954 25.326,6.438 6.984,1.381 36.88,1.355 44.614,-0.039 9.205,-1.659 20.245,-4.392 24.06,-5.956 1.1,-0.451 3.8,-1.409 6,-2.128 7.451,-2.438 23.847,-10.952 32.444,-16.848 26.086,-17.893 44.838,-41.01 58.384,-71.976 4.183,-9.564 9.084,-27.083 10.28,-36.75 l 0.65,-5.25 -4.879,0.015 c -3.519,0.011 -4.461,0.286 -3.379,0.985 m -28.687,12.786 C 547.429,413.619 545.941,422 548.5,422 c 0.825,0 1.5,-0.845 1.5,-1.878 0,-1.032 0.682,-2.444 1.517,-3.136 1.263,-1.048 1.922,-0.786 3.944,1.567 1.335,1.554 3.23,4.315 4.211,6.136 2.688,4.991 4.897,4.307 6.757,-2.093 1.963,-6.753 1.973,-6.596 -0.429,-6.596 -1.333,0 -2,0.667 -2,2 0,2.739 -1.153,2.508 -3.513,-0.707 -4.453,-6.064 -7.07,-7.481 -10.174,-5.507 m -40.063,9.93 c 1.512,0.229 3.987,0.229 5.5,0 1.513,-0.229 0.275,-0.416 -2.75,-0.416 -3.025,0 -4.262,0.187 -2.75,0.416 M 492,429 c 0,1.301 18.986,1.301 21,0 1.018,-0.658 -2.117,-0.974 -9.75,-0.985 C 496.406,428.006 492,428.392 492,429 m 50.369,2.211 c -0.412,0.667 -1.517,2.792 -2.456,4.722 -1.653,3.399 -1.641,3.568 0.374,5.316 3.41,2.958 6.527,3.272 8.612,0.867 2.471,-2.849 5.101,-2.754 5.101,0.184 0,1.265 -0.54,2.84 -1.2,3.5 -0.92,0.92 -0.925,1.475 -0.024,2.376 2.13,2.13 5.224,-1.849 5.224,-6.716 0,-3.392 -0.488,-4.55 -2.465,-5.845 -3.206,-2.101 -3.512,-2.062 -6.915,0.865 -1.585,1.362 -3.272,2.235 -3.75,1.939 -1.226,-0.757 -1.082,-3.807 0.243,-5.132 1.154,-1.154 0.432,-3.287 -1.113,-3.287 -0.485,0 -1.219,0.545 -1.631,1.211 m -55.119,4.532 c 4.262,0.188 11.238,0.188 15.5,0 4.262,-0.187 0.775,-0.341 -7.75,-0.341 -8.525,0 -12.012,0.154 -7.75,0.341 M 468,443 c 0,0.63 6.667,1 18,1 11.333,0 18,-0.37 18,-1 0,-0.63 -6.667,-1 -18,-1 -11.333,0 -18,0.37 -18,1 m -1.75,6.746 c 5.913,0.177 15.587,0.177 21.5,0 5.913,-0.177 1.075,-0.321 -10.75,-0.321 -11.825,0 -16.663,0.144 -10.75,0.321 M 533,449.709 c -5.106,1.809 -6.492,8.972 -2.365,12.218 3.258,2.563 4.432,2.591 7.035,0.166 2.03,-1.892 2.062,-1.878 3.742,1.646 l 1.695,3.553 1.6,-2.285 c 1.261,-1.799 1.356,-2.677 0.447,-4.132 -0.635,-1.016 -1.154,-2.529 -1.154,-3.361 0,-0.833 -0.45,-1.514 -1,-1.514 -0.55,0 -1,-0.605 -1,-1.345 0,-2.856 -5.84,-6.065 -9,-4.946 m -0.333,4.958 c -2.265,2.265 1.472,5.292 3.972,3.218 1.048,-0.87 1.109,-1.483 0.251,-2.518 -1.217,-1.465 -3.139,-1.784 -4.223,-0.7 M 444,457 c 0,0.637 8.147,1 22.441,1 13.882,0 22.677,-0.381 23.059,-1 0.405,-0.656 -7.323,-1 -22.441,-1 -14.706,0 -23.059,0.362 -23.059,1 m 2.75,6.747 c 6.188,0.175 16.313,0.175 22.5,0 6.188,-0.176 1.125,-0.319 -11.25,-0.319 -12.375,0 -17.437,0.143 -11.25,0.319 m 70.5,3.915 c -0.687,0.278 -1.25,1.817 -1.25,3.421 0,2.205 0.466,2.917 1.911,2.917 1.051,0 2.986,1.238 4.299,2.75 4.715,5.431 6.61,6.644 8.249,5.284 1.289,-1.07 0.77,-2.097 -3.731,-7.388 -6.759,-7.946 -6.877,-8.033 -9.478,-6.984 M 424,471 c 0,1.318 38.961,1.318 41,0 0.995,-0.643 -5.661,-0.975 -19.75,-0.985 C 431.74,470.006 424,470.364 424,471 m 65.753,17.358 c -2.061,1.178 -3.726,2.817 -3.7,3.642 0.064,2.03 7.244,15.266 8.509,15.687 1.631,0.544 10.628,-5.623 10.159,-6.962 -0.474,-1.355 -4.028,-1.069 -4.554,0.367 -0.47,1.278 -3.91,1.132 -4.735,-0.201 -0.377,-0.611 0.497,-2.125 1.941,-3.367 4.589,-3.943 2.88,-5.948 -2.623,-3.077 -2.645,1.38 -2.75,1.34 -2.75,-1.038 0,-1.435 0.734,-2.75 1.75,-3.134 2.362,-0.895 4.297,-2.895 3.536,-3.656 -1.073,-1.072 -3.658,-0.475 -7.533,1.739 m -17.511,8.136 c -8.089,3.516 -6.413,16.919 2.392,19.129 2.907,0.73 9.366,-2.146 9.366,-4.17 0,-1.645 -2.559,-1.976 -3.5,-0.453 -1.671,2.704 -8.128,0.022 -8.516,-3.538 -0.579,-5.31 0.019,-6.561 3.989,-8.338 3.038,-1.361 3.696,-2.055 2.8,-2.951 -1.484,-1.484 -2.493,-1.434 -6.531,0.321 m -63.06,8.006 c -0.852,1.87 -0.852,3.13 0,5 0.626,1.375 1.464,2.5 1.862,2.5 0.398,0 0.945,1.16 1.216,2.579 0.582,3.046 -1.167,4.076 -4.182,2.463 -1.72,-0.921 -2.078,-0.823 -2.078,0.563 0,4.036 7.362,5.863 10.345,2.566 2.272,-2.51 2.079,-4.653 -0.801,-8.891 -2.854,-4.2 -2.544,-5.28 1.515,-5.28 1.847,0 2.941,-0.518 2.941,-1.393 0,-1.726 -2.17,-2.607 -6.421,-2.607 -2.505,0 -3.521,0.578 -4.397,2.5 m 45.044,2.5 c 0.603,6.275 -0.646,6.39 -5.008,0.461 -1.805,-2.454 -3.83,-4.454 -4.5,-4.446 -3.06,0.039 -3.462,1.521 -2.841,10.474 0.518,7.471 0.919,9.046 2.373,9.324 1.497,0.285 1.75,-0.471 1.75,-5.24 0,-3.065 0.257,-5.573 0.571,-5.573 0.811,0 2.631,1.983 5.28,5.75 2.201,3.13 6.297,4.438 7.549,2.411 0.286,-0.461 -0.013,-4.736 -0.662,-9.5 -1.014,-7.438 -1.45,-8.661 -3.087,-8.661 -1.684,0 -1.85,0.581 -1.425,5 M 428,512.5 c 0,4.675 -0.113,8.837 -0.25,9.25 -0.137,0.413 0.762,0.894 2,1.07 2.199,0.312 2.25,0.102 2.25,-9.25 0,-8.903 -0.139,-9.57 -2,-9.57 -1.843,0 -2,0.667 -2,8.5"
       stroke="none"
       fill="#ea4a3e"
       fill-rule="evenodd"
       id="path239" /><path
       d="m 399.442,134.75 c -1.682,5.544 -5.5,17.56 -16.495,51.916 l -5.174,16.167 12.143,12.083 c 6.679,6.646 11.567,12.104 10.864,12.128 -0.704,0.024 -13.655,0.457 -28.78,0.961 -55.391,1.846 -66,2.321 -66,2.955 0,0.355 2.243,1.747 4.984,3.093 2.742,1.346 4.992,2.785 5,3.197 0.009,0.412 0.916,0.75 2.016,0.75 1.1,0 2.004,0.338 2.008,0.75 0.004,0.412 1.017,1.228 2.25,1.811 3.885,1.84 15.22,7.917 15.742,8.441 0.275,0.275 1.844,1.175 3.486,2 1.642,0.824 6.046,3.161 9.787,5.193 9.247,5.022 9.994,5.18 12.808,2.705 1.33,-1.17 3.994,-3.311 5.919,-4.758 1.925,-1.447 3.725,-2.87 4,-3.162 0.275,-0.292 2.525,-2.083 5,-3.98 2.475,-1.897 4.725,-3.697 5,-4 0.275,-0.303 2.525,-2.103 5,-4 2.475,-1.897 4.725,-3.688 5,-3.98 1.356,-1.441 8.274,-6.26 7.827,-5.451 -0.778,1.406 -11.337,23.811 -18.465,39.181 -7.517,16.21 -10.319,22.194 -14.735,31.474 -2.545,5.349 -4.627,10.149 -4.627,10.667 0,0.518 -0.562,1.143 -1.25,1.389 -2.556,0.913 0.171,1.826 3.556,1.19 2.221,-0.416 3.688,-1.34 3.995,-2.514 0.267,-1.02 1.882,-2.705 3.589,-3.743 1.706,-1.038 2.767,-2.257 2.356,-2.71 -0.41,-0.453 -0.213,-0.518 0.439,-0.145 1.382,0.793 10.439,-3.348 9.753,-4.458 -0.574,-0.93 1.617,-5.9 2.601,-5.9 0.395,0 1.278,-1.35 1.961,-3 0.683,-1.65 1.583,-3 2,-3 0.417,0 1.317,-1.35 2,-3 0.683,-1.65 1.583,-3 2,-3 0.417,0 1.317,-1.35 2,-3 0.683,-1.65 1.566,-3 1.961,-3 2.303,0 3.039,-6.358 3.046,-26.297 l 0.007,-21.203 10.743,11.088 c 5.909,6.099 13.186,13.749 16.172,17 2.986,3.252 8.498,9.121 12.25,13.042 3.751,3.922 6.821,7.713 6.821,8.425 0,0.831 0.805,0.555 2.25,-0.769 1.238,-1.134 4.5,-3.217 7.25,-4.628 2.75,-1.41 4.299,-2.586 3.442,-2.611 C 461.4,270 458,263.684 458,260.864 c 0,-0.805 -0.373,-1.891 -0.829,-2.414 -0.457,-0.522 -2.994,-7.587 -5.638,-15.7 L 446.724,228 428.612,227.93 c -9.962,-0.039 -18.938,-0.396 -19.947,-0.793 -1.541,-0.607 -0.934,-1.396 3.792,-4.93 3.094,-2.314 6.019,-4.207 6.501,-4.207 0.481,0 1.025,-0.363 1.209,-0.808 0.183,-0.444 3.483,-3.136 7.333,-5.982 3.85,-2.847 7.45,-5.541 8,-5.988 0.55,-0.446 2.575,-1.916 4.5,-3.267 1.925,-1.35 3.725,-2.702 4,-3.003 0.275,-0.302 2.075,-1.63 4,-2.952 1.925,-1.322 3.725,-2.672 4,-3 0.275,-0.328 2.075,-1.678 4,-3 1.925,-1.322 3.725,-2.672 4,-3 0.275,-0.328 2.075,-1.678 4,-3 1.925,-1.322 3.725,-2.666 4,-2.986 0.275,-0.32 3.505,-2.704 7.177,-5.297 3.672,-2.592 7.353,-5.39 8.179,-6.215 0.825,-0.826 1.898,-1.502 2.384,-1.502 0.486,0 1.755,-0.801 2.821,-1.78 1.067,-0.979 3.68,-3.099 5.809,-4.71 6.318,-4.784 2.458,-4.526 -9.109,0.608 -2.332,1.035 -4.582,1.88 -5,1.877 -0.901,-0.007 -14.948,5.423 -21,8.118 -2.332,1.038 -4.7,1.887 -5.264,1.887 -0.563,0 -1.806,0.414 -2.761,0.92 -0.955,0.506 -4.436,1.908 -7.736,3.115 -3.3,1.207 -7.908,3.043 -10.239,4.08 -2.332,1.037 -4.673,1.885 -5.203,1.885 -0.53,0 -1.749,1.688 -2.709,3.75 -0.96,2.063 -1.993,3.975 -2.297,4.25 -0.585,0.53 -2.134,3.455 -10.324,19.5 -2.808,5.5 -5.37,10.225 -5.694,10.5 -0.324,0.275 -1.065,1.608 -1.646,2.962 -1.198,2.791 -2.382,-33.56 -2.386,-73.212 -0.001,-12.942 -0.393,-22.75 -0.909,-22.75 -0.499,0 -1.692,2.588 -2.651,5.75 m 117.919,8.015 c -0.829,0.535 -0.771,1.077 0.212,1.989 1.097,1.018 1.554,0.877 2.425,-0.75 1.134,-2.118 -0.259,-2.772 -2.637,-1.239 m -50.305,69.891 c -2.061,2.62 -2.085,2.849 -0.429,4.06 0.965,0.706 2.628,1.284 3.695,1.284 2.383,0 19.814,5.859 21.128,7.102 0.523,0.494 1.76,0.898 2.75,0.898 0.99,0 1.8,0.45 1.8,1 0,0.55 0.661,1 1.47,1 0.808,0 2.945,0.837 4.75,1.86 17.823,10.108 27.78,17.396 27.78,20.334 0,1.28 0.735,1.281 5.946,0.008 6.469,-1.58 6.47,-1.525 -0.109,-6.437 -2.015,-1.504 -4.265,-3.325 -5,-4.047 C 527.613,236.552 510.886,226.116 503,222.352 494.846,218.459 489.038,216 487.997,216 c -0.563,0 -1.806,-0.413 -2.761,-0.917 -0.955,-0.504 -4.436,-1.697 -7.736,-2.65 -3.3,-0.953 -6.508,-1.918 -7.13,-2.144 -0.621,-0.226 -2.112,0.839 -3.314,2.367 m 88.902,28.594 c 2.452,2.613 5.152,4.714 6,4.671 1.342,-0.069 1.347,-0.149 0.042,-0.62 -0.825,-0.297 -3.525,-2.399 -6,-4.671 l -4.5,-4.13 4.458,4.75 m 75.292,-3.522 c 2.063,0.216 5.438,0.216 7.5,0 2.063,-0.215 0.375,-0.392 -3.75,-0.392 -4.125,0 -5.812,0.177 -3.75,0.392 m -321.068,11.585 c -1.75,1.805 -3.182,3.613 -3.182,4.018 0,0.405 1.62,-0.884 3.6,-2.864 1.98,-1.98 3.412,-3.789 3.182,-4.019 -0.23,-0.23 -1.85,1.059 -3.6,2.865 M 624,247.364 c -6.387,1.849 -12.077,4.702 -11.439,5.734 0.298,0.484 -0.106,0.63 -0.9,0.325 -1.791,-0.687 -8.9,5.381 -8.003,6.832 0.358,0.58 0.197,0.773 -0.358,0.43 -1.601,-0.989 -4.903,3.236 -8.443,10.804 -2.869,6.134 -3.274,8.03 -3.312,15.5 -0.044,8.675 1.067,12.988 4.706,18.273 1.087,1.578 2.405,2.473 3.075,2.089 0.646,-0.369 0.852,-0.315 0.459,0.12 -1.359,1.506 1.349,4.614 8.865,10.172 10.364,7.664 12.223,12.686 8.874,23.966 -2.021,6.804 -5.873,10.202 -14.175,12.504 -3.743,1.038 -7.828,1.887 -9.077,1.887 -1.25,0 -2.272,0.477 -2.272,1.059 0,0.582 -0.448,0.782 -0.996,0.443 -1.516,-0.936 -56.183,6.77 -72.213,10.181 -4.24,0.902 -7.502,1.975 -7.249,2.385 0.254,0.41 -0.404,0.519 -1.461,0.243 -3.619,-0.947 -52.799,13.571 -51.354,15.159 0.425,0.468 0.257,0.556 -0.374,0.195 -1.595,-0.912 -16.405,4.442 -15.653,5.658 0.335,0.542 0.113,0.679 -0.494,0.304 -1.364,-0.843 -15.275,4.452 -14.594,5.554 0.27,0.438 -0.144,0.552 -0.92,0.254 -0.777,-0.298 -4.063,0.652 -7.302,2.111 -21.439,9.654 -29.71,13.633 -44.102,21.221 -8.942,4.714 -15.935,8.994 -15.595,9.545 0.339,0.548 0.149,0.708 -0.423,0.355 -2.228,-1.377 -41.782,22.695 -40.554,24.682 0.326,0.528 0.089,0.649 -0.526,0.268 -0.616,-0.38 -2.936,0.51 -5.155,1.979 -4.107,2.717 -5.244,4.082 -2.535,3.042 2.239,-0.859 1.81,0.125 -0.621,1.427 -1.49,0.797 -1.918,0.808 -1.441,0.035 1.411,-2.283 -0.977,-0.836 -13.773,8.346 -19.226,13.794 -27.201,20.176 -26.89,21.516 0.151,0.653 -0.183,0.904 -0.742,0.558 -0.559,-0.345 -2.828,0.828 -5.041,2.607 -2.983,2.397 -3.697,3.471 -2.759,4.148 0.919,0.663 0.818,0.771 -0.368,0.395 -2.066,-0.656 -6.124,2.102 -5.227,3.553 0.384,0.622 0.209,0.801 -0.41,0.418 -1.443,-0.892 -14.446,10.198 -13.587,11.587 0.389,0.63 0.203,0.793 -0.446,0.393 -1.256,-0.776 -9.444,6.167 -8.698,7.375 0.265,0.427 -0.275,1.391 -1.2,2.141 -1.156,0.937 -1.446,0.973 -0.93,0.113 1.367,-2.275 -0.948,-1.297 -3.68,1.555 -1.478,1.542 -2.688,3.005 -2.688,3.25 -0.001,0.245 7.987,0.296 17.75,0.113 10.135,-0.189 20.969,0.159 25.251,0.812 16.768,2.557 32.976,8.174 45.032,15.607 3.937,2.428 7.678,4.116 8.313,3.753 0.635,-0.363 0.821,-0.292 0.414,0.158 -0.926,1.022 1.04,3.502 2.777,3.502 1.721,0 7.565,-8.027 6.775,-9.305 -0.351,-0.568 -0.119,-0.694 0.534,-0.29 1.049,0.647 1.619,-0.599 1.249,-2.729 -0.079,-0.454 0.248,-0.583 0.726,-0.287 0.478,0.295 4.089,-3.484 8.025,-8.399 6.993,-8.734 8.337,-10.839 6,-9.395 -0.721,0.446 -0.882,0.274 -0.43,-0.457 0.398,-0.644 1.097,-0.94 1.553,-0.658 1.226,0.758 7.191,-6.414 6.4,-7.694 -0.373,-0.602 -0.229,-0.818 0.319,-0.479 1.215,0.751 7.356,-5.397 7.695,-7.704 0.134,-0.912 0.544,-1.533 0.912,-1.38 1.065,0.442 20.659,-19.491 20.08,-20.427 -0.288,-0.465 0.053,-0.722 0.756,-0.571 0.704,0.151 1.3,-0.265 1.325,-0.925 0.025,-0.66 0.698,-1.785 1.497,-2.5 1.269,-1.136 1.269,-1.059 0,0.613 -2.325,3.062 0.445,1.505 5.221,-2.936 2.38,-2.213 6.678,-5.986 9.552,-8.386 2.874,-2.399 5.031,-4.676 4.794,-5.06 -0.237,-0.384 0.121,-0.698 0.795,-0.698 0.674,0 5.722,-3.346 11.217,-7.436 5.495,-4.089 14.368,-10.292 19.717,-13.784 5.348,-3.491 9.482,-6.74 9.186,-7.219 -0.296,-0.479 0.234,-0.575 1.178,-0.213 1.256,0.483 1.497,0.304 0.898,-0.666 -0.554,-0.895 -0.433,-1.086 0.371,-0.588 0.666,0.411 3.271,-0.576 5.905,-2.237 2.593,-1.635 9.744,-5.592 15.893,-8.793 6.148,-3.2 10.916,-6.244 10.595,-6.763 -0.321,-0.518 -0.06,-0.62 0.578,-0.225 0.639,0.394 5.546,-1.279 10.905,-3.719 5.359,-2.44 11.407,-5.025 13.44,-5.745 2.033,-0.719 3.426,-1.746 3.095,-2.281 -0.33,-0.535 -0.119,-0.675 0.47,-0.311 0.588,0.364 2.345,0.157 3.904,-0.459 1.559,-0.616 7.668,-2.798 13.575,-4.849 5.908,-2.051 10.408,-4.097 10,-4.547 -0.407,-0.45 -0.205,-0.511 0.451,-0.135 1.638,0.939 16.345,-3.494 15.599,-4.702 -0.331,-0.535 -0.083,-0.65 0.553,-0.258 1.06,0.656 6.221,-0.452 39.268,-8.432 13.053,-3.152 33.203,-10.652 32.346,-12.039 -0.309,-0.5 0.024,-0.705 0.74,-0.457 1.776,0.617 12.37,-5.92 12.027,-7.421 -0.151,-0.661 0.186,-0.918 0.749,-0.57 1.064,0.658 12.026,-9.084 12.026,-10.688 0,-0.503 -0.52,-0.593 -1.155,-0.201 -0.721,0.446 -0.882,0.274 -0.43,-0.457 0.398,-0.644 1.126,-0.922 1.618,-0.617 0.493,0.304 2.143,-1.826 3.666,-4.734 2.537,-4.84 2.772,-6.218 2.782,-16.287 0.01,-10.363 -0.175,-11.38 -3.2,-17.569 -3.609,-7.384 -10.903,-16.283 -12.524,-15.281 -0.586,0.363 -0.792,0.216 -0.458,-0.325 0.335,-0.542 -1.881,-3.424 -4.925,-6.405 -9.087,-8.902 -11.348,-15.405 -7.424,-21.358 1.065,-1.615 1.729,-3.272 1.477,-3.681 -0.253,-0.408 0.067,-1.068 0.711,-1.466 0.681,-0.421 0.905,-0.293 0.535,0.306 -0.417,0.674 0.906,0.855 3.829,0.526 6.004,-0.677 9.663,1.031 15.052,7.024 2.476,2.754 4.689,4.819 4.918,4.59 0.229,-0.229 0.911,-4.397 1.516,-9.262 1.29,-10.386 0.979,-11 -7.724,-15.258 -6.42,-3.141 -17.209,-4.021 -24.264,-1.977 m -305.272,6.969 c -2.876,2.885 -6.803,7.193 -8.728,9.574 -1.925,2.38 -3.978,4.838 -4.563,5.46 -2.184,2.329 -13.585,19.818 -13.182,20.222 0.879,0.879 6.738,-2.791 6.101,-3.822 -0.407,-0.658 -0.193,-0.784 0.55,-0.325 2.184,1.35 6.665,-1.367 7.904,-4.792 0.648,-1.794 1.969,-4.136 2.934,-5.205 0.966,-1.07 3.781,-4.395 6.256,-7.388 2.475,-2.994 6.637,-7.488 9.25,-9.987 2.613,-2.498 4.75,-5.067 4.75,-5.708 0,-0.642 -1.36,-1.64 -3.022,-2.22 -2.857,-0.996 -3.31,-0.765 -8.25,4.191 M 580,251.154 c -4.125,0.487 -9.893,1.138 -12.818,1.446 -4.179,0.441 -5.929,1.2 -8.167,3.541 -2.747,2.876 -3.001,2.94 -7.182,1.809 -2.457,-0.665 -6.798,-0.917 -10.027,-0.582 -6.054,0.627 -20.131,6.296 -19.235,7.746 0.293,0.475 -0.097,0.621 -0.867,0.326 -1.495,-0.574 -11.036,6.676 -16.493,12.531 -7.204,7.73 -11.87,15.533 -15.267,25.529 -2.031,5.979 -2.383,8.969 -2.411,20.5 -0.032,13.084 0.063,13.703 3.098,20.109 4.848,10.231 10.714,13.668 23.605,13.83 7.563,0.095 12.332,-1.673 22.014,-8.161 l 5.75,-3.853 v 2.61 c 0,2.588 0.046,2.604 5.75,1.931 10.956,-1.293 23.331,-3.213 23.813,-3.696 0.949,-0.949 3.547,-15.24 3.089,-16.991 -0.256,-0.98 -0.057,-1.53 0.441,-1.221 0.499,0.308 0.907,-0.28 0.907,-1.306 0,-1.027 1.143,-7.691 2.541,-14.809 1.397,-7.119 2.345,-13.709 2.106,-14.645 -0.239,-0.936 -0.091,-1.836 0.329,-2 0.42,-0.164 2.419,-9.298 4.441,-20.298 2.022,-11 3.933,-21.238 4.246,-22.75 0.408,-1.967 0.181,-2.712 -0.796,-2.616 -0.752,0.074 -4.742,0.533 -8.867,1.02 m -81.655,19.596 c 0.255,0.413 -1.406,0.8 -3.691,0.861 -4.859,0.129 -15.99,3.251 -26.804,7.516 -8.516,3.359 -12.362,6.916 -28.22,26.102 l -3.871,4.683 -4.917,-2.492 c -2.704,-1.37 -5.42,-2.181 -6.034,-1.801 -0.639,0.395 -0.839,0.241 -0.468,-0.36 0.779,-1.26 -2.076,-2.54 -3.585,-1.608 -0.589,0.364 -0.774,0.19 -0.415,-0.392 0.779,-1.26 -2.076,-2.54 -3.585,-1.608 -0.617,0.382 -0.772,0.185 -0.369,-0.467 0.419,-0.678 -0.283,-1.371 -1.764,-1.743 -2.905,-0.729 -23.878,8.336 -22.91,9.903 0.329,0.531 0.09,0.652 -0.53,0.269 -1.588,-0.982 -12.45,4.144 -11.622,5.485 0.366,0.592 1.515,0.854 2.553,0.583 1.038,-0.272 1.887,-0.131 1.887,0.313 0,0.443 3.938,2.452 8.75,4.464 8.991,3.758 24.25,12.199 24.25,13.415 0,0.375 -0.701,1.683 -1.558,2.906 -0.857,1.224 -1.237,2.743 -0.845,3.377 0.436,0.706 0.273,0.882 -0.42,0.453 -2.682,-1.657 -30.126,46.475 -28.667,50.278 0.328,0.853 0.264,1.221 -0.14,0.816 -0.405,-0.405 -1.374,0.734 -2.153,2.53 -2.168,5.002 -5.16,13.767 -4.699,13.767 0.842,0 20.935,-10.109 21.448,-10.791 0.294,-0.39 1.43,-0.866 2.526,-1.058 5.263,-0.923 7.243,-3.05 10.575,-11.36 3.629,-9.049 8.608,-18.928 15.731,-31.212 l 4.592,-7.92 6.727,7.252 c 3.7,3.989 8.835,10.396 11.413,14.237 3.233,4.82 5.145,6.807 6.17,6.413 0.817,-0.313 2.569,-0.841 3.893,-1.174 1.324,-0.332 2.407,-0.991 2.407,-1.464 0,-0.473 0.578,-0.638 1.284,-0.367 0.707,0.271 4.644,-0.573 8.75,-1.876 4.107,-1.303 9.88,-2.987 12.831,-3.743 2.951,-0.756 5.596,-1.976 5.878,-2.711 1.06,-2.76 -15.812,-23.919 -17.996,-22.57 -0.584,0.361 -0.764,0.181 -0.403,-0.403 0.762,-1.234 -8.209,-9.679 -16.473,-15.506 l -5.753,-4.058 2.831,-4.094 c 1.557,-2.252 5.411,-6.917 8.565,-10.367 7.501,-8.207 9.522,-10.823 8.953,-11.594 -0.257,-0.349 -0.163,-0.405 0.209,-0.125 0.971,0.732 5.369,-3.628 4.719,-4.679 -0.299,-0.484 -0.12,-0.756 0.397,-0.605 0.518,0.151 4.939,-2.965 9.825,-6.926 4.886,-3.96 10.008,-8.107 11.383,-9.216 2.109,-1.701 2.217,-2.022 0.691,-2.05 -0.995,-0.018 -1.601,0.304 -1.346,0.717 m 44.582,1.203 c -8.065,4.319 -15.283,16.178 -20.54,33.748 -4.516,15.089 -3.602,27.175 2.47,32.67 2.883,2.609 5.942,1.578 12.227,-4.121 2.882,-2.612 5.729,-4.6 6.328,-4.417 0.598,0.184 0.749,-0.005 0.334,-0.42 -0.414,-0.414 -0.063,-1.807 0.781,-3.094 2.291,-3.498 10.203,-51.935 8.839,-54.114 -1.5,-2.395 -6.225,-2.509 -10.439,-0.252 m -213.207,7.635 c -1.528,0.829 -2.518,1.93 -2.198,2.448 0.32,0.518 -0.101,0.679 -0.935,0.359 -0.834,-0.32 -2.769,0.298 -4.302,1.372 -1.532,1.075 -12.995,7.07 -25.474,13.322 -14.865,7.448 -22.279,11.667 -21.5,12.234 0.775,0.564 0.578,0.669 -0.565,0.301 -1.874,-0.603 -14.59,4.812 -13.12,5.588 0.481,0.253 0.279,0.311 -0.448,0.128 -0.727,-0.183 -3.877,0.844 -7,2.283 -8.22,3.786 -32.792,14.226 -38.94,16.545 -3.176,1.198 -4.998,2.412 -4.595,3.063 0.398,0.644 0.197,0.788 -0.497,0.359 -0.64,-0.396 -2.104,-0.421 -3.254,-0.056 -1.637,0.52 -1.998,1.291 -1.665,3.557 0.233,1.592 0.173,2.642 -0.135,2.335 -0.502,-0.502 -1.257,3.448 -5.125,26.801 -0.612,3.699 -0.829,7.187 -0.481,7.75 0.347,0.563 0.155,1.023 -0.427,1.023 -0.582,0 -1.059,0.736 -1.059,1.635 0,1.21 0.519,0.975 2,-0.908 2.153,-2.737 2.614,-4.225 1,-3.227 -1.628,1.006 -1.14,-0.142 0.692,-1.628 1.15,-0.932 1.451,-0.971 0.941,-0.122 -1.323,2.202 0.48,1.339 3.216,-1.539 1.458,-1.533 4.148,-3.839 5.978,-5.122 4.249,-2.982 34.712,-18.089 36.475,-18.089 1.103,0 1.101,1.313 -0.016,7.75 -5.294,30.51 -7.31,43.746 -6.845,44.956 0.295,0.769 0.152,1.16 -0.318,0.87 -0.98,-0.606 -2.451,10.084 -1.581,11.492 0.317,0.513 0.178,0.932 -0.309,0.932 -1.192,0 -4.589,21.593 -3.652,23.217 0.42,0.729 0.355,0.932 -0.15,0.47 -0.507,-0.463 -1.626,3.624 -2.602,9.5 -0.941,5.672 -3.779,22.44 -6.305,37.261 -2.527,14.822 -4.466,27.544 -4.309,28.271 0.179,0.83 2.62,-0.57 6.556,-3.76 3.575,-2.898 5.98,-5.553 5.595,-6.176 -0.388,-0.628 -0.216,-0.808 0.406,-0.424 0.878,0.543 10.189,-6.465 16.003,-12.043 0.701,-0.672 3.284,-2.869 5.74,-4.881 2.455,-2.013 4.175,-4.128 3.82,-4.702 -0.354,-0.573 -0.177,-0.754 0.393,-0.401 0.57,0.352 2.256,-0.319 3.747,-1.491 2.182,-1.717 2.635,-2.777 2.323,-5.448 -0.213,-1.823 -0.152,-3.08 0.137,-2.792 0.453,0.454 2.5,-12.632 7.098,-45.376 0.639,-4.552 0.898,-8.963 0.576,-9.802 -0.322,-0.84 -0.23,-1.307 0.206,-1.038 0.435,0.27 1.816,-7.02 3.069,-16.198 1.254,-9.178 3.113,-22.312 4.133,-29.187 1.02,-6.875 2.827,-19.062 4.015,-27.083 l 2.16,-14.582 6.454,-3.183 c 4.088,-2.016 6.195,-3.6 5.749,-4.322 -0.435,-0.704 -0.259,-0.864 0.461,-0.419 0.64,0.396 5.418,-1.56 10.617,-4.346 9.148,-4.902 13.742,-6.144 15.027,-4.065 0.34,0.55 1.068,1 1.618,1 0.55,0 0.679,-0.52 0.287,-1.155 -0.433,-0.699 -0.276,-0.883 0.397,-0.467 0.611,0.377 0.857,1.347 0.547,2.154 -0.309,0.807 -0.097,1.468 0.472,1.468 0.569,0 1.31,-2.587 1.647,-5.75 0.336,-3.163 1.022,-9.35 1.524,-13.75 2.138,-18.731 2.129,-18.502 0.792,-18.46 -0.706,0.022 -2.535,0.718 -4.064,1.548 m 71.53,4.074 c -0.687,0.278 -1.25,1.367 -1.25,2.421 0,1.634 0.739,1.917 5,1.917 2.75,0 5,0.45 5,1 0,0.552 -2.6,1 -5.8,1 -6.014,0 -8.2,1.12 -8.2,4.2 0,0.99 -0.525,1.8 -1.167,1.8 -0.641,0 -0.934,0.232 -0.651,0.515 0.283,0.284 1.941,-0.084 3.683,-0.816 1.743,-0.733 2.837,-1.664 2.432,-2.069 -0.405,-0.404 0.027,-0.443 0.961,-0.085 1.003,0.385 3.623,-0.425 6.408,-1.982 2.807,-1.569 7.06,-2.879 10.523,-3.241 3.196,-0.334 5.811,-0.904 5.811,-1.267 0,-2.515 -18.198,-5.229 -22.75,-3.393 m 15.749,6.595 c 0,0.417 3.835,2.659 8.52,4.983 l 8.52,4.225 3.939,-4.44 c 2.167,-2.443 3.709,-4.672 3.426,-4.954 -0.282,-0.282 -0.892,0.101 -1.356,0.851 -0.575,0.931 -1.592,1.117 -3.196,0.584 -3.363,-1.116 -19.855,-2.153 -19.853,-1.249 M 280.182,292.5 c -0.935,2.053 -0.875,2.5 0.339,2.5 0.911,0 1.479,-0.961 1.479,-2.5 0,-1.375 -0.153,-2.5 -0.339,-2.5 -0.187,0 -0.853,1.125 -1.479,2.5 m 71.104,3 c 0.008,2.75 0.202,3.756 0.432,2.236 0.229,-1.52 0.223,-3.77 -0.014,-5 -0.237,-1.23 -0.425,0.014 -0.418,2.764 m -2.526,16.947 c -0.714,4.038 -0.505,5.032 0.928,4.407 0.446,-0.195 0.577,-2.154 0.291,-4.354 l -0.521,-4 -0.698,3.947 m 2.974,11.604 c -10.619,3.654 -29.651,16.656 -28.087,19.187 0.364,0.589 0.217,0.796 -0.327,0.46 -1.846,-1.141 -14.754,13.729 -13.885,15.994 0.298,0.777 0.148,1.168 -0.333,0.871 -1.192,-0.737 -2.233,0.704 -6.812,9.437 -7.119,13.574 -12.303,29.792 -12.278,38.41 0.014,4.849 2.544,14.942 3.855,15.379 0.506,0.169 0.708,1.119 0.449,2.112 -0.314,1.198 1.151,3.462 4.356,6.734 7.735,7.896 15.04,9.131 28.776,4.864 8.508,-2.644 22.216,-10.366 21.814,-12.289 -0.131,-0.626 0.331,-0.92 1.027,-0.653 1.574,0.605 12.939,-9.379 12.143,-10.667 -0.319,-0.517 0.015,-0.816 0.744,-0.665 0.728,0.151 1.2,-0.321 1.049,-1.049 -0.151,-0.729 0.118,-1.082 0.597,-0.786 0.48,0.296 2.076,-0.717 3.547,-2.253 1.971,-2.058 3.72,-6.451 6.653,-16.713 2.188,-7.656 3.966,-14.597 3.951,-15.422 -0.014,-0.826 -2.675,1.417 -5.913,4.985 -3.237,3.567 -5.666,6.841 -5.398,7.274 0.267,0.434 -0.109,0.665 -0.838,0.514 -0.728,-0.151 -1.2,0.321 -1.049,1.049 0.151,0.729 -0.118,1.082 -0.597,0.786 -0.48,-0.296 -2.102,0.745 -3.606,2.315 -1.667,1.74 -2.303,3.063 -1.628,3.39 0.64,0.309 0.569,0.421 -0.169,0.263 -0.701,-0.149 -3.75,1.621 -6.775,3.934 -7.66,5.856 -13.395,8.572 -19.378,9.177 -6.146,0.621 -9.415,-1.565 -10.241,-6.848 l -0.522,-3.341 15.167,-9 c 8.342,-4.95 17.1,-10.125 19.464,-11.5 26.938,-15.672 26.458,-15.337 27.251,-19 1.43,-6.595 0.795,-24.183 -1.022,-28.322 -0.938,-2.138 -2.138,-3.537 -2.723,-3.176 -0.575,0.356 -0.981,0.276 -0.902,-0.178 0.4,-2.304 -0.457,-3.321 -4.41,-5.235 -5.688,-2.754 -16.009,-2.77 -23.95,-0.038 m -12.863,23.955 c -1.996,1.055 -4.881,3.397 -6.411,5.206 -1.53,1.808 -3.193,3.164 -3.695,3.013 -0.503,-0.151 -0.675,0.112 -0.383,0.585 0.292,0.472 -0.558,4.079 -1.89,8.015 -1.331,3.935 -2.714,9.365 -3.072,12.067 -0.634,4.78 -0.584,4.907 1.868,4.759 1.386,-0.083 2.365,-0.402 2.176,-0.708 -0.463,-0.75 13.432,-9.276 15.117,-9.276 0.732,0 1.144,-0.303 0.916,-0.672 -0.229,-0.37 1.479,-1.732 3.794,-3.028 6.598,-3.692 6.994,-4.353 6.521,-10.89 -0.574,-7.935 -2.743,-11.09 -7.585,-11.033 -2.05,0.025 -5.36,0.907 -7.356,1.962 M 661,364.5 c -2.429,2.475 -4.191,4.5 -3.916,4.5 0.275,0 2.487,-2.025 4.916,-4.5 2.429,-2.475 4.191,-4.5 3.916,-4.5 -0.275,0 -2.487,2.025 -4.916,4.5 m -150.657,15.048 c -0.326,0.851 -0.355,3.326 -0.063,5.5 0.291,2.173 0.204,3.952 -0.195,3.952 -0.399,0 -2.565,-1.575 -4.814,-3.5 -4.892,-4.188 -9.639,-4.865 -8.765,-1.25 0.299,1.238 0.871,4.944 1.271,8.237 0.553,4.545 1.149,6.068 2.476,6.323 1.477,0.285 1.747,-0.446 1.747,-4.737 0,-2.79 0.255,-5.073 0.567,-5.073 0.311,0 2.041,1.125 3.844,2.5 1.803,1.375 4.248,2.5 5.433,2.5 2.028,0 2.156,-0.474 2.156,-8 0,-6.517 -0.284,-8 -1.531,-8 -0.843,0 -1.799,0.696 -2.126,1.548 m -32.593,8.185 c -2.142,0.879 -3.753,2.231 -3.757,3.153 -0.016,4.067 2.446,17.114 3.23,17.114 0.482,0 2.217,-0.693 3.856,-1.541 1.639,-0.847 3.486,-1.228 4.105,-0.845 0.686,0.424 0.847,0.245 0.411,-0.459 -0.392,-0.635 -0.236,-1.155 0.346,-1.155 0.582,0 1.059,-0.664 1.059,-1.475 0,-1.171 -0.53,-1.274 -2.565,-0.5 -3.769,1.433 -4.435,1.228 -4.435,-1.364 0,-1.526 0.87,-2.737 2.5,-3.479 3.568,-1.626 3.219,-3.499 -0.5,-2.682 -2.592,0.569 -3,0.372 -3,-1.445 0,-1.325 0.927,-2.457 2.5,-3.055 2.539,-0.965 3.537,-4.081 1.25,-3.903 -0.687,0.054 -2.937,0.79 -5,1.636 m -20.968,8.517 c -0.881,0.688 -2.597,3.613 -3.815,6.5 -2.559,6.069 -3.967,6.711 -3.967,1.809 0,-3.975 -1.168,-5.074 -3.862,-3.633 -1.79,0.958 -3.601,7.074 -2.094,7.074 0.384,0 0.997,3.038 1.363,6.75 0.807,8.185 1.644,9.88 4.181,8.461 1.43,-0.801 1.765,-2.018 1.544,-5.614 -0.236,-3.827 -0.021,-4.492 1.287,-3.99 0.863,0.332 1.278,1.075 0.921,1.652 -0.357,0.578 -0.195,0.77 0.359,0.427 0.554,-0.343 2.388,-0.102 4.074,0.535 2.408,0.908 3.404,0.877 4.638,-0.147 1.385,-1.149 1.107,-1.641 -2.34,-4.137 -2.948,-2.136 -3.779,-3.336 -3.377,-4.874 0.293,-1.122 1.002,-1.751 1.574,-1.397 0.59,0.364 0.743,0.162 0.355,-0.467 -0.378,-0.611 0.003,-2.761 0.845,-4.777 2.315,-5.541 1.775,-6.875 -1.686,-4.172 M 588,396.279 c -2.823,0.669 -3.805,1.223 -2.634,1.489 1.632,0.37 1.786,1.071 1.229,5.578 -0.909,7.36 -2.474,13.861 -5.815,24.154 -13.656,42.073 -43.184,76.627 -81.336,95.18 -5.469,2.659 -11.744,5.424 -13.944,6.144 -2.2,0.719 -4.9,1.677 -6,2.128 -3.452,1.415 -15.731,4.455 -24.06,5.956 -7.734,1.394 -37.63,1.42 -44.614,0.039 -12.574,-2.487 -15.859,-3.324 -25.513,-6.499 -5.602,-1.842 -12.548,-4.547 -15.435,-6.01 l -5.249,-2.66 -2.787,3.361 c -1.534,1.849 -2.793,3.811 -2.8,4.361 -0.006,0.573 0.302,0.53 0.723,-0.1 0.497,-0.744 4.299,0.426 11.735,3.611 16.208,6.943 24.779,9.064 47.25,11.696 13.308,1.559 15.192,1.559 28.5,0 21.668,-2.538 32.769,-5.135 41.986,-9.824 0.955,-0.486 2.25,-0.883 2.878,-0.883 2.162,0 21.401,-10.292 28.77,-15.391 4.061,-2.81 8.07,-5.559 8.909,-6.109 6.691,-4.387 22.848,-20.693 31.21,-31.5 1.915,-2.475 3.823,-4.65 4.24,-4.833 0.416,-0.184 0.757,-0.778 0.757,-1.32 0,-0.543 1.386,-3.002 3.081,-5.465 4.051,-5.888 14.905,-27.411 14.913,-29.573 0.003,-0.93 0.456,-1.969 1.006,-2.309 0.55,-0.34 1,-1.626 1,-2.859 0,-1.233 0.383,-2.668 0.851,-3.191 1.754,-1.957 7.136,-24.457 7.164,-29.95 0.018,-3.402 0.816,-4.945 2.985,-5.771 2.59,-0.986 -4.286,-0.565 -9,0.55 m 51.168,6.554 c -0.12,4.528 0.173,6.22 1.027,5.935 1.539,-0.513 2.915,-5.582 1.717,-6.322 -0.501,-0.31 -0.988,0.925 -1.08,2.745 -0.101,1.987 -0.433,0.912 -0.832,-2.691 l -0.664,-6 -0.168,6.333 m -5.268,0.917 c -0.081,3.871 -0.247,4.288 -0.9,2.25 l -0.801,-2.5 -0.099,2.75 c -0.066,1.822 0.406,2.75 1.4,2.75 1.133,0 1.5,-1.222 1.5,-5 0,-6.367 -0.967,-6.587 -1.1,-0.25 m -209.109,5.801 c -3.578,1.942 -8.449,9.142 -9.929,14.676 -1.036,3.872 -0.943,4.936 0.725,8.35 2.37,4.848 6.057,6.411 10.699,4.536 1.768,-0.714 3.702,-1.331 4.297,-1.372 0.596,-0.041 1.159,-0.562 1.252,-1.158 0.092,-0.595 0.425,-2.883 0.74,-5.083 l 0.573,-4 -2.647,3.25 c -3.246,3.987 -8.71,4.596 -10.541,1.175 -2.356,-4.403 2.159,-15.861 5.712,-14.497 0.795,0.305 1.16,0.11 0.821,-0.439 -0.336,-0.544 0.316,-0.989 1.448,-0.989 2.076,0 2.57,-1.505 1.452,-4.418 -0.734,-1.912 -1.133,-1.915 -4.602,-0.031 m 125.522,2.235 C 547.429,413.619 545.941,422 548.5,422 c 0.825,0 1.5,-0.845 1.5,-1.878 0,-1.032 0.682,-2.444 1.517,-3.136 1.263,-1.048 1.922,-0.786 3.944,1.567 1.335,1.554 3.23,4.315 4.211,6.136 2.688,4.991 4.897,4.307 6.757,-2.093 1.963,-6.753 1.973,-6.596 -0.429,-6.596 -1.333,0 -2,0.667 -2,2 0,2.739 -1.153,2.508 -3.513,-0.707 -4.453,-6.064 -7.07,-7.481 -10.174,-5.507 m -31.813,2.819 c -17.326,7.284 -31.609,14.41 -30.967,15.448 0.314,0.508 -0.039,0.69 -0.783,0.404 -1.287,-0.493 -17.483,8.169 -20.829,11.141 -0.868,0.771 -1.993,1.421 -2.5,1.444 -1.876,0.087 -14.913,8.817 -14.683,9.833 0.131,0.579 -0.329,0.835 -1.022,0.569 -0.694,-0.266 -2.151,0.21 -3.238,1.057 -2.311,1.799 -10.214,7.046 -15.374,10.207 -1.982,1.214 -4.304,3.068 -5.16,4.121 -0.856,1.052 -2.431,2.2 -3.5,2.551 -2.617,0.858 -10.273,7.535 -8.694,7.582 0.688,0.021 1.25,-0.364 1.25,-0.855 0,-0.491 0.6,-1.123 1.333,-1.405 0.734,-0.281 1.334,0.101 1.334,0.849 0,0.749 -0.375,1.129 -0.834,0.846 -0.458,-0.283 -0.833,-0.101 -0.833,0.405 0,2.148 23.701,2.962 34.625,1.189 11.5,-1.867 25.53,-7.332 35.059,-13.657 2.923,-1.94 5.066,-3.929 4.763,-4.419 -0.303,-0.491 0.083,-0.649 0.858,-0.352 1.721,0.661 16.843,-13.233 16.46,-15.123 -0.146,-0.72 0.185,-1.377 0.735,-1.459 1.914,-0.289 3.588,-2.31 3.057,-3.693 -0.294,-0.766 -0.125,-1.139 0.374,-0.83 0.5,0.308 1.845,-0.629 2.989,-2.083 2.319,-2.949 2.743,-4.874 0.83,-3.774 -0.726,0.418 -0.901,0.338 -0.417,-0.191 0.459,-0.5 1.279,-0.91 1.822,-0.91 0.544,0 2.222,-2.25 3.729,-5 2.35,-4.289 3.443,-6.729 6.833,-15.25 0.689,-1.732 -0.329,-1.541 -7.217,1.355 m -8.25,7.111 c 1.512,0.229 3.987,0.229 5.5,0 1.513,-0.229 0.275,-0.416 -2.75,-0.416 -3.025,0 -4.262,0.187 -2.75,0.416 m -115.5,3.071 c -2.917,1.778 -3.369,3.947 -1.838,8.814 0.502,1.594 1.697,6.837 2.656,11.649 0.96,4.813 2.208,8.75 2.774,8.75 0.566,0 1.999,-0.911 3.184,-2.024 l 2.154,-2.024 -2.354,-11.226 c -3.437,-16.386 -3.241,-15.971 -6.576,-13.939 M 492,429 c 0,1.301 18.986,1.301 21,0 1.018,-0.658 -2.117,-0.974 -9.75,-0.985 C 496.406,428.006 492,428.392 492,429 m 50.369,2.211 c -0.412,0.667 -1.517,2.792 -2.456,4.722 -1.653,3.399 -1.641,3.568 0.374,5.316 3.41,2.958 6.527,3.272 8.612,0.867 2.471,-2.849 5.101,-2.754 5.101,0.184 0,1.265 -0.54,2.84 -1.2,3.5 -0.92,0.92 -0.925,1.475 -0.024,2.376 2.13,2.13 5.224,-1.849 5.224,-6.716 0,-3.392 -0.488,-4.55 -2.465,-5.845 -3.206,-2.101 -3.512,-2.062 -6.915,0.865 -1.585,1.362 -3.272,2.235 -3.75,1.939 -1.226,-0.757 -1.082,-3.807 0.243,-5.132 1.154,-1.154 0.432,-3.287 -1.113,-3.287 -0.485,0 -1.219,0.545 -1.631,1.211 m -55.119,4.532 c 4.262,0.188 11.238,0.188 15.5,0 4.262,-0.187 0.775,-0.341 -7.75,-0.341 -8.525,0 -12.012,0.154 -7.75,0.341 m -115.975,4.029 c -2.152,1.671 -2.18,1.921 -0.864,7.551 l 1.36,5.823 -4.635,3.402 c -2.55,1.872 -5.148,3.414 -5.775,3.427 -1.354,0.03 -2.764,-6.514 -1.755,-8.147 0.415,-0.671 0.26,-0.863 -0.38,-0.468 -0.619,0.383 -1.221,-0.212 -1.405,-1.388 -0.306,-1.965 -0.473,-1.931 -3.679,0.757 l -3.357,2.814 2.23,10.479 c 3.313,15.57 3.894,18.403 3.941,19.228 0.092,1.573 2.79,0.649 5.013,-1.717 2.242,-2.386 2.275,-2.672 1.005,-8.654 -1.273,-5.999 -1.244,-6.242 0.961,-8.027 1.25,-1.013 2.688,-1.585 3.194,-1.272 0.506,0.313 0.797,-0.027 0.646,-0.756 -0.151,-0.728 0.495,-1.264 1.436,-1.192 0.941,0.073 1.616,-0.321 1.5,-0.875 -0.116,-0.554 0.414,-1.234 1.178,-1.512 0.851,-0.309 1.119,-0.067 0.691,0.625 -0.384,0.622 -0.221,1.13 0.361,1.13 0.582,0 1.059,0.871 1.059,1.935 0,1.064 0.452,3.125 1.005,4.579 l 1.006,2.645 2.617,-1.907 c 1.907,-1.388 2.68,-2.923 2.845,-5.646 0.14,-2.308 -0.092,-3.235 -0.608,-2.422 -0.593,0.935 -0.839,0.678 -0.85,-0.887 -0.008,-1.212 -0.414,-3.237 -0.902,-4.5 -0.488,-1.263 -1.427,-4.772 -2.086,-7.797 -2.236,-10.268 -2.084,-10.076 -5.752,-7.228 M 468,443 c 0,0.63 6.667,1 18,1 11.333,0 18,-0.37 18,-1 0,-0.63 -6.667,-1 -18,-1 -11.333,0 -18,0.37 -18,1 m -1.75,6.746 c 5.913,0.177 15.587,0.177 21.5,0 5.913,-0.177 1.075,-0.321 -10.75,-0.321 -11.825,0 -16.663,0.144 -10.75,0.321 M 533,449.709 c -5.106,1.809 -6.492,8.972 -2.365,12.218 3.258,2.563 4.432,2.591 7.035,0.166 2.03,-1.892 2.062,-1.878 3.742,1.646 l 1.695,3.553 1.6,-2.285 c 1.261,-1.799 1.356,-2.677 0.447,-4.132 -0.635,-1.016 -1.154,-2.529 -1.154,-3.361 0,-0.833 -0.45,-1.514 -1,-1.514 -0.55,0 -1,-0.605 -1,-1.345 0,-2.856 -5.84,-6.065 -9,-4.946 m -30.51,5.301 c -1.575,1.645 -2.535,2.99 -2.132,2.99 1.031,0 5.947,-5.029 5.425,-5.55 -0.236,-0.236 -1.718,0.916 -3.293,2.56 m 30.177,-0.343 c -2.265,2.265 1.472,5.292 3.972,3.218 1.048,-0.87 1.109,-1.483 0.251,-2.518 -1.217,-1.465 -3.139,-1.784 -4.223,-0.7 M 444,457 c 0,0.637 8.147,1 22.441,1 13.882,0 22.677,-0.381 23.059,-1 0.405,-0.656 -7.323,-1 -22.441,-1 -14.706,0 -23.059,0.362 -23.059,1 m 2.75,6.747 c 6.188,0.175 16.313,0.175 22.5,0 6.188,-0.176 1.125,-0.319 -11.25,-0.319 -12.375,0 -17.437,0.143 -11.25,0.319 m -119.695,5.394 c -10.362,7.173 -17.273,18.824 -17.359,29.268 -0.069,8.243 1.853,11.755 8.241,15.059 4.025,2.081 7.696,1.533 12.753,-1.903 2.004,-1.362 4.131,-2.199 4.727,-1.86 0.596,0.338 0.756,0.254 0.356,-0.189 -0.4,-0.442 0.627,-2.346 2.282,-4.231 2.563,-2.92 2.919,-3.973 2.399,-7.106 -1.084,-6.537 -1.37,-6.709 -4.118,-2.471 -4.797,7.399 -11.382,9.337 -16.006,4.712 -2.263,-2.263 -2.504,-3.133 -1.962,-7.09 1.394,-10.167 7.074,-17.317 13.765,-17.326 1.791,-0.003 2.801,-0.644 3.157,-2.005 0.288,-1.101 0.115,-1.75 -0.383,-1.441 -0.499,0.308 -0.907,-0.33 -0.907,-1.417 0,-2.429 -0.99,-5.152 -1.857,-5.109 -0.354,0.017 -2.643,1.416 -5.088,3.109 m 190.195,-1.479 c -0.687,0.278 -1.25,1.817 -1.25,3.421 0,2.205 0.466,2.917 1.911,2.917 1.051,0 2.986,1.238 4.299,2.75 4.715,5.431 6.61,6.644 8.249,5.284 1.289,-1.07 0.77,-2.097 -3.731,-7.388 -6.759,-7.946 -6.877,-8.033 -9.478,-6.984 M 424,471 c 0,1.318 38.961,1.318 41,0 0.995,-0.643 -5.661,-0.975 -19.75,-0.985 C 431.74,470.006 424,470.364 424,471 m 65.753,17.358 c -2.061,1.178 -3.726,2.817 -3.7,3.642 0.064,2.03 7.244,15.266 8.509,15.687 1.631,0.544 10.628,-5.623 10.159,-6.962 -0.474,-1.355 -4.028,-1.069 -4.554,0.367 -0.47,1.278 -3.91,1.132 -4.735,-0.201 -0.377,-0.611 0.497,-2.125 1.941,-3.367 4.589,-3.943 2.88,-5.948 -2.623,-3.077 -2.645,1.38 -2.75,1.34 -2.75,-1.038 0,-1.435 0.734,-2.75 1.75,-3.134 2.362,-0.895 4.297,-2.895 3.536,-3.656 -1.073,-1.072 -3.658,-0.475 -7.533,1.739 m -17.511,8.136 c -8.089,3.516 -6.413,16.919 2.392,19.129 2.907,0.73 9.366,-2.146 9.366,-4.17 0,-1.645 -2.559,-1.976 -3.5,-0.453 -1.671,2.704 -8.128,0.022 -8.516,-3.538 -0.579,-5.31 0.019,-6.561 3.989,-8.338 3.038,-1.361 3.696,-2.055 2.8,-2.951 -1.484,-1.484 -2.493,-1.434 -6.531,0.321 M 376.53,508.97 c -4.358,4.383 -7.722,8.137 -7.477,8.341 0.246,0.205 4.166,-3.382 8.71,-7.97 4.545,-4.587 7.91,-8.341 7.477,-8.341 -0.433,0 -4.352,3.586 -8.71,7.97 m 32.652,-4.47 c -0.852,1.87 -0.852,3.13 0,5 0.626,1.375 1.464,2.5 1.862,2.5 0.398,0 0.945,1.16 1.216,2.579 0.582,3.046 -1.167,4.076 -4.182,2.463 -1.72,-0.921 -2.078,-0.823 -2.078,0.563 0,4.036 7.362,5.863 10.345,2.566 2.272,-2.51 2.079,-4.653 -0.801,-8.891 -2.854,-4.2 -2.544,-5.28 1.515,-5.28 1.847,0 2.941,-0.518 2.941,-1.393 0,-1.726 -2.17,-2.607 -6.421,-2.607 -2.505,0 -3.521,0.578 -4.397,2.5 m 45.044,2.5 c 0.603,6.275 -0.646,6.39 -5.008,0.461 -1.805,-2.454 -3.83,-4.454 -4.5,-4.446 -3.06,0.039 -3.462,1.521 -2.841,10.474 0.518,7.471 0.919,9.046 2.373,9.324 1.497,0.285 1.75,-0.471 1.75,-5.24 0,-3.065 0.257,-5.573 0.571,-5.573 0.811,0 2.631,1.983 5.28,5.75 2.201,3.13 6.297,4.438 7.549,2.411 0.286,-0.461 -0.013,-4.736 -0.662,-9.5 -1.014,-7.438 -1.45,-8.661 -3.087,-8.661 -1.684,0 -1.85,0.581 -1.425,5 M 428,512.5 c 0,4.675 -0.113,8.837 -0.25,9.25 -0.137,0.413 0.762,0.894 2,1.07 2.199,0.312 2.25,0.102 2.25,-9.25 0,-8.903 -0.139,-9.57 -2,-9.57 -1.843,0 -2,0.667 -2,8.5 m 132.978,2.25 -8.478,8.75 8.75,-8.478 c 4.813,-4.663 8.75,-8.6 8.75,-8.75 0,-0.728 -1.148,0.351 -9.022,8.478 M 427.75,554.737 c 2.887,0.202 7.613,0.202 10.5,0 2.887,-0.202 0.525,-0.367 -5.25,-0.367 -5.775,0 -8.137,0.165 -5.25,0.367"
       stroke="none"
       fill="#b78650"
       fill-rule="evenodd"
       id="path241" /></g></svg>
