<?xml version="1.0" encoding="UTF-8" standalone="no"?><!-- Generator: Gravit.io --><svg xmlns="http://www.w3.org/2000/svg" xmlns:xlink="http://www.w3.org/1999/xlink" style="isolation:isolate" viewBox="0 0 24 24" width="24pt" height="24pt"><defs><clipPath id="_clipPath_kbZ9soaLpuBVkHFxiVYKY6gfi74DLsA3"><rect width="24" height="24"/></clipPath></defs><g clip-path="url(#_clipPath_kbZ9soaLpuBVkHFxiVYKY6gfi74DLsA3)"><clipPath id="_clipPath_hh9Ti5WiLXZtuKzqP41X81zvHlemqAJr"><rect x="2.4" y="0" width="19.2" height="24" transform="matrix(1,0,0,1,0,0)" fill="rgb(255,255,255)"/></clipPath><g clip-path="url(#_clipPath_hh9Ti5WiLXZtuKzqP41X81zvHlemqAJr)"><g><g><g filter="url(#8FONQx9xbpEQxY0DOcFCyIgROyA41puC)"><mask id="_mask_DA6uWzBltE6d9wSTXH8drGdctpxEONXs" x="-200%" y="-200%" width="400%" height="400%"><rect x="-200%" y="-200%" width="400%" height="400%" style="fill:white;"/><path d=" M 3.36 8.864 C 3.36 4.018 7.282 0.096 12.114 0.096 C 16.953 0.096 20.876 4.018 20.876 8.864 C 20.876 11.465 19.739 13.81 17.934 15.416 C 17.834 15.501 14.395 18.706 12.093 23.616 C 11.226 20.141 7.865 16.802 6.323 15.437 C 4.504 13.824 3.36 11.479 3.36 8.864 Z " fill="black" stroke="none"/></mask><path d=" M 3.36 8.864 C 3.36 4.018 7.282 0.096 12.114 0.096 C 16.953 0.096 20.876 4.018 20.876 8.864 C 20.876 11.465 19.739 13.81 17.934 15.416 C 17.834 15.501 14.395 18.706 12.093 23.616 C 11.226 20.141 7.865 16.802 6.323 15.437 C 4.504 13.824 3.36 11.479 3.36 8.864 Z " fill="rgb(83,153,135)"/><path d=" M 3.36 8.864 C 3.36 4.018 7.282 0.096 12.114 0.096 C 16.953 0.096 20.876 4.018 20.876 8.864 C 20.876 11.465 19.739 13.81 17.934 15.416 C 17.834 15.501 14.395 18.706 12.093 23.616 C 11.226 20.141 7.865 16.802 6.323 15.437 C 4.504 13.824 3.36 11.479 3.36 8.864 Z " fill="rgb(83,153,135)" mask="url(#_mask_DA6uWzBltE6d9wSTXH8drGdctpxEONXs)" vector-effect="non-scaling-stroke" stroke-width="0.192" stroke="rgb(255,255,255)" stroke-opacity="100" stroke-linejoin="miter" stroke-linecap="butt" stroke-miterlimit="4"/></g><defs><filter id="8FONQx9xbpEQxY0DOcFCyIgROyA41puC" x="-200%" y="-200%" width="400%" height="400%" filterUnits="objectBoundingBox" color-interpolation-filters="sRGB"><feGaussianBlur xmlns="http://www.w3.org/2000/svg" stdDeviation="0.42936090628390283"/></filter></defs></g><g><path d=" M 6.288 2.718 L 18.132 2.718 L 18.132 14.562 L 6.288 14.562 L 6.288 2.718 Z " fill="none"/><path d=" M 15.665 4.198 L 8.756 4.198 C 8.213 4.198 7.773 4.643 7.773 5.185 L 7.769 12.095 C 7.769 12.637 8.213 13.082 8.756 13.082 L 15.665 13.082 C 16.207 13.082 16.652 12.637 16.652 12.095 L 16.652 5.185 C 16.652 4.643 16.207 4.198 15.665 4.198 Z  M 15.171 9.627 L 13.197 9.627 L 13.197 11.601 L 11.223 11.601 L 11.223 9.627 L 9.249 9.627 L 9.249 7.653 L 11.223 7.653 L 11.223 5.679 L 13.197 5.679 L 13.197 7.653 L 15.171 7.653 L 15.171 9.627 Z " fill="rgb(241,241,225)"/></g></g></g></g></svg>