<?xml version="1.0" standalone="no"?><!-- Generator: Gravit.io --><svg xmlns="http://www.w3.org/2000/svg" xmlns:xlink="http://www.w3.org/1999/xlink" style="isolation:isolate" viewBox="0 0 400 500" width="400" height="500"><defs><clipPath id="_clipPath_7lnjipw4OOFlgNvdstLcbVDDwKosAUwU"><rect width="400" height="500"/></clipPath></defs><g clip-path="url(#_clipPath_7lnjipw4OOFlgNvdstLcbVDDwKosAUwU)"><defs><filter id="FV6b7J7vzXLRek1cDrEa2WPS8UP88w6o" x="-200%" y="-200%" width="400%" height="400%" filterUnits="objectBoundingBox" color-interpolation-filters="sRGB"><feGaussianBlur xmlns="http://www.w3.org/2000/svg" stdDeviation="4.293609062839028"/></filter></defs><g filter="url(#FV6b7J7vzXLRek1cDrEa2WPS8UP88w6o)"><ellipse vector-effect="non-scaling-stroke" cx="204.9999999999999" cy="480.16666666666663" rx="64.99999999999999" ry="20.166666666666686" fill="rgb(162,162,162)" fill-opacity="0.7"/></g><g><defs><filter id="iXRz1V2IvU3eIF4YvKN1foGIkaCISi7w" x="-200%" y="-200%" width="400%" height="400%" filterUnits="objectBoundingBox" color-interpolation-filters="sRGB"><feGaussianBlur xmlns="http://www.w3.org/2000/svg" stdDeviation="0.42936090628390283"/></filter></defs><g filter="url(#iXRz1V2IvU3eIF4YvKN1foGIkaCISi7w)"><path d=" M 20 185.857 C 20 84.244 101.716 2 202.381 2 C 303.193 2 384.909 84.244 384.909 185.857 C 384.909 240.389 361.224 289.556 323.622 323.229 C 321.55 325.017 249.9 392.213 201.937 495.167 C 183.876 422.309 113.855 352.282 81.731 323.676 C 43.834 289.854 20 240.687 20 185.857 Z  M 315.184 185.857" fill="rgb(247,135,100)" vector-effect="non-scaling-stroke" stroke-width="2" stroke="rgb(255,255,255)" stroke-linejoin="miter" stroke-linecap="butt" stroke-miterlimit="4"/></g></g><g><path d=" M 83.991 180.217 C 84.804 180.798 86.016 180.842 86.901 180.332 C 110.477 166.711 152.25 157.618 200.003 157.618 C 247.75 157.618 289.52 166.702 313.109 180.329 C 313.99 180.838 315.206 180.792 316.018 180.217 C 324.539 174.148 329.045 167.542 328.93 161.068 C 329.127 150.1 316.024 138.716 292.476 130.223 C 269.127 121.773 236.279 116.43 200.006 116.43 C 163.721 116.43 130.879 121.773 107.527 130.22 C 83.96 138.713 70.889 150.096 71.08 161.065 C 70.964 167.539 75.464 174.142 83.991 180.217 Z " fill="rgb(255,255,255)"/><g><path d=" M 296.272 191.369 C 271.336 200.362 237.41 205.803 199.997 205.824 C 162.555 205.799 128.664 200.362 103.715 191.369 C 89.366 186.16 78.404 180.507 70.836 170.105 C 70.314 169.389 69.252 169.042 68.242 169.255 C 67.233 169.467 66.53 170.186 66.53 171.011 L 66.53 198.775 C 66.53 225.404 126.289 247 199.997 247 C 273.714 247 333.47 225.408 333.47 198.775 L 333.47 171.564 C 333.47 170.736 332.761 170.017 331.748 169.808 C 330.733 169.602 329.67 169.958 329.155 170.673 C 321.14 181.91 310.881 186.069 296.272 191.369 Z " fill="rgb(255,255,255)"/></g></g></g></svg>