<?xml version="1.0" standalone="no"?><!-- Generator: Gravit.io --><svg xmlns="http://www.w3.org/2000/svg" xmlns:xlink="http://www.w3.org/1999/xlink" style="isolation:isolate" viewBox="0 0 400 500" width="400" height="500"><defs><clipPath id="_clipPath_SedkvXjhRbp9vk5nsmZbZs7xENl7vm46"><rect width="400" height="500"/></clipPath></defs><g clip-path="url(#_clipPath_SedkvXjhRbp9vk5nsmZbZs7xENl7vm46)"><defs><filter id="15V8cI2jXxkseama0sEwrB9tyH85oD8o" x="-200%" y="-200%" width="400%" height="400%" filterUnits="objectBoundingBox" color-interpolation-filters="sRGB"><feGaussianBlur xmlns="http://www.w3.org/2000/svg" stdDeviation="4.293609062839028"/></filter></defs><g filter="url(#15V8cI2jXxkseama0sEwrB9tyH85oD8o)"><ellipse vector-effect="non-scaling-stroke" cx="200" cy="484" rx="60" ry="14" fill="rgb(162,162,162)" fill-opacity="0.7"/></g><g><defs><filter id="QU5ciwJT6L6UPllkJbecNErgaIhV45Na" x="-200%" y="-200%" width="400%" height="400%" filterUnits="objectBoundingBox" color-interpolation-filters="sRGB"><feGaussianBlur xmlns="http://www.w3.org/2000/svg" stdDeviation="0.42936090628390283"/></filter></defs><g filter="url(#QU5ciwJT6L6UPllkJbecNErgaIhV45Na)"><path d=" M 20 184.677 C 20 83.716 101.716 2 202.381 2 C 303.193 2 384.909 83.716 384.909 184.677 C 384.909 238.858 361.224 287.71 323.622 321.166 C 321.55 322.943 249.9 389.707 201.937 492 C 183.876 419.61 113.855 350.033 81.731 321.61 C 43.834 288.006 20 239.154 20 184.677 Z  M 315.184 184.677" fill="rgb(247,135,100)" vector-effect="non-scaling-stroke" stroke-width="2" stroke="rgb(255,255,255)" stroke-linejoin="miter" stroke-linecap="butt" stroke-miterlimit="4"/></g></g><g><path d=" M 85.616 203.217 C 86.429 203.798 87.641 203.842 88.526 203.332 C 112.102 189.711 153.875 180.618 201.628 180.618 C 249.375 180.618 291.145 189.702 314.734 203.329 C 315.615 203.838 316.831 203.792 317.643 203.217 C 326.164 197.148 330.67 190.542 330.555 184.068 C 330.752 173.1 317.649 161.716 294.101 153.223 C 270.752 144.773 237.904 139.43 201.631 139.43 C 165.346 139.43 132.504 144.773 109.153 153.22 C 85.585 161.713 72.514 173.096 72.705 184.065 C 72.589 190.539 77.089 197.142 85.616 203.217 Z " fill="rgb(255,255,255)"/><g><path d=" M 297.897 214.369 C 272.961 223.362 239.035 228.802 201.622 228.824 C 164.18 228.799 130.289 223.362 105.34 214.369 C 90.991 209.16 80.029 203.507 72.461 193.105 C 71.939 192.389 70.877 192.042 69.867 192.255 C 68.858 192.467 68.155 193.186 68.155 194.011 L 68.155 221.775 C 68.155 248.404 127.914 270 201.622 270 C 275.339 270 335.095 248.408 335.095 221.775 L 335.095 194.564 C 335.095 193.736 334.386 193.017 333.373 192.808 C 332.358 192.602 331.295 192.958 330.78 193.673 C 322.765 204.91 312.506 209.069 297.897 214.369 Z " fill="rgb(255,255,255)"/></g><g><g><path d=" M 203.219 115.634 L 233.139 104.416 C 233.692 104.194 234.02 103.701 234.02 103.151 C 234.02 102.601 233.692 102.051 233.139 101.885 L 202.341 90.336 C 201.9 90.17 201.459 90.227 201.075 90.501 C 200.691 90.776 200.472 91.161 200.472 91.658 L 200.472 109.81 L 200.472 114.759 L 200.472 133.461 L 203.222 133.461 L 203.222 115.634 L 203.219 115.634 Z " fill="rgb(255,255,255)"/></g><g><path d=" M 254.584 120.131 L 284.504 108.91 C 285.057 108.691 285.386 108.194 285.386 107.644 C 285.386 107.094 285.057 106.544 284.504 106.379 L 253.706 94.829 C 253.263 94.664 252.825 94.72 252.441 94.995 C 252.056 95.27 251.838 95.654 251.838 96.151 L 251.838 114.303 L 251.838 119.253 L 251.838 137.955 L 254.587 137.955 L 254.587 120.131 L 254.584 120.131 Z " fill="rgb(255,255,255)"/></g><g><path d=" M 305.953 137.567 L 335.876 126.346 C 336.426 126.127 336.754 125.631 336.754 125.081 C 336.754 124.531 336.426 123.981 335.876 123.815 L 305.075 112.266 C 304.634 112.1 304.197 112.156 303.809 112.431 C 303.425 112.706 303.206 113.091 303.206 113.588 L 303.206 131.74 L 303.206 136.689 L 303.206 155.391 L 305.956 155.391 L 305.956 137.567 L 305.953 137.567 Z " fill="rgb(255,255,255)"/></g><g><path d=" M 151.85 120.131 L 181.773 108.91 C 182.323 108.691 182.654 108.194 182.654 107.644 C 182.654 107.094 182.323 106.544 181.773 106.379 L 150.972 94.829 C 150.531 94.664 150.091 94.72 149.706 94.995 C 149.322 95.27 149.103 95.654 149.103 96.151 L 149.103 114.303 L 149.103 119.253 L 149.103 137.955 L 151.853 137.955 L 151.853 120.131 L 151.85 120.131 Z " fill="rgb(255,255,255)"/></g><g><path d=" M 100.484 137.177 L 130.404 125.956 C 130.954 125.737 131.286 125.24 131.286 124.69 C 131.286 124.14 130.954 123.59 130.404 123.425 L 99.606 111.875 C 99.166 111.71 98.725 111.763 98.341 112.041 C 97.956 112.316 97.738 112.7 97.738 113.197 L 97.738 131.349 L 97.738 136.299 L 97.738 155.001 L 100.487 155.001 L 100.487 137.177 L 100.484 137.177 Z " fill="rgb(255,255,255)"/></g></g></g></g></svg>