<?xml version="1.0" encoding="UTF-8" standalone="no"?>
<!-- Generator: Gravit.io -->

<svg
   style="isolation:isolate"
   viewBox="0 0 23 24"
   width="23pt"
   height="24pt"
   version="1.1"
   id="svg152"
   sodipodi:docname="poi_education_24px.svg"
   xmlns:inkscape="http://www.inkscape.org/namespaces/inkscape"
   xmlns:sodipodi="http://sodipodi.sourceforge.net/DTD/sodipodi-0.dtd"
   xmlns="http://www.w3.org/2000/svg"
   xmlns:svg="http://www.w3.org/2000/svg">
  <sodipodi:namedview
     id="namedview42"
     pagecolor="#ffffff"
     bordercolor="#000000"
     borderopacity="0.25"
     inkscape:showpageshadow="2"
     inkscape:pageopacity="0.0"
     inkscape:pagecheckerboard="0"
     inkscape:deskcolor="#d1d1d1"
     inkscape:document-units="pt"
     showgrid="false" />
  <defs
     id="defs82">
    <clipPath
       id="_clipPath_tG5fFOqLiFUkLeERMNlEk5f5RaK7WXTP">
      <rect
         x="0.5"
         y="0"
         width="24"
         height="24"
         fill="#ffffff"
         id="rect84" />
    </clipPath>
  </defs>
  <g
     clip-path="url(#_clipPath_tG5fFOqLiFUkLeERMNlEk5f5RaK7WXTP)"
     id="g148"
     transform="translate(-0.5)">
    <g
       id="g146">
      <clipPath
         id="_clipPath_8saGcgeap1SSC3gkUSZXWAvZv2NHQOJn">
        <rect
           x="0.5"
           y="-2"
           width="23"
           height="28"
           fill="#ffffff"
           id="rect87" />
      </clipPath>
      <clipPath
         id="_clipPath_VFPwfpoqOMj2oTRhtOqCAGCHQZDu88oN">
        <rect
           x="0.5"
           y="-2"
           width="23"
           height="28"
           fill="#ffffff"
           id="rect98" />
      </clipPath>
      <rect
         x="0.5"
         y="-2"
         width="23"
         height="28"
         fill="none"
         id="rect144" />
      <path
         d="m 10.298401,13.586437 v 0 c 0,0 2.870063,0.951299 3.450404,1.32389 0.03327,0.02156 0.06547,0.04538 0.09626,0.07134 0.398809,-0.118913 0.754987,-0.25368 0.94202,-0.448696 -0.0058,-0.127033 -0.02693,-0.252492 -0.06327,-0.372592 -0.379501,-0.41424 -0.603146,-0.98341 -0.622971,-1.585498 -0.389184,0.04757 -0.452446,-1.731364 0,-1.128874 l -0.02617,-0.106229 c -0.0556,-0.06004 -0.09069,-0.141021 -0.09901,-0.228312 V 9.9841829 l 1.503102,0.5295561 c 0.280847,0.07133 0.571788,0.07133 0.852626,0 l 1.573246,-0.5232143 0.02608,1.1098483 c -0.0068,0.09364 -0.03231,0.184218 -0.0743,0.264779 -0.03624,0.05607 -0.0833,0.101658 -0.137519,0.133181 v 0.01903 c 0.449696,-0.401131 0.275038,1.268399 -0.152645,1.22559 -0.0019,0.502265 -0.169098,0.984979 -0.467574,1.350844 l -0.06604,0.07611 c -0.03902,0.11736 -0.05771,0.367836 -0.05771,0.367836 v 0 c 0,0 2.149454,0.713475 2.58264,0.992521 0.550085,0.351982 0.424943,1.198636 0.550085,1.824909 H 3.206322 c 0.1622808,-0.82763 0,-1.975531 0.7302343,-2.438496 0.8003796,-0.512116 2.8246808,-0.673837 3.450404,-1.323891 -0.00767,-0.169239 -0.03662,-0.336328 -0.085231,-0.496261 C 6.7942566,12.542191 6.4955504,11.78055 6.469723,10.975129 c -0.5129459,0.05867 -0.6050917,-2.3195836 0,-1.526835 C 6.4477767,9.3594986 6.4270698,9.2770521 6.4092388,9.1993631 6.313284,9.1145243 6.2496818,8.9900252 6.2318407,8.8521386 V 7.3189631 l 2.0628198,0.7261581 c 0.3851396,0.096562 0.783786,0.096562 1.1689256,0 l 2.1563269,-0.718231 0.03576,1.5125657 c -0.0098,0.1285511 -0.04506,0.252788 -0.103138,0.3630785 -0.05867,0.088234 -0.136465,0.157128 -0.225533,0.1997735 -0.01099,0.049153 -0.02339,0.0983 -0.03711,0.1506223 0.60235,-0.5343134 0.361681,1.6869688 -0.202152,1.6394048 -0.0038,0.671088 -0.226558,1.315935 -0.624341,1.805882 l -0.08935,0.101471 c -0.05166,0.156388 -0.07727,0.322588 -0.07563,0.489919 z m 8.274643,-4.2412073 v 1.1986363 h 0.03575 c 0.02512,0 0.04535,0.02342 0.04535,0.05232 v 0.363079 c 1.1e-5,0.02916 -0.02013,0.05305 -0.04535,0.05391 h -0.03711 v 0.12684 c 0.04784,0.01 0.08255,0.114156 0.08255,0.114156 v 0 c 0,0 -0.04553,0.117327 -0.101758,0.117327 h -0.181531 c -0.05618,0 -0.101757,-0.117327 -0.101757,-0.117327 v 0 c 0,0 0.03547,-0.104856 0.08389,-0.114156 v -0.12684 h -0.03711 c -0.02578,0 -0.04678,-0.02413 -0.04678,-0.05391 v -0.36308 c 7.38e-4,-0.02915 0.02147,-0.05234 0.04678,-0.05232 h 0.03711 V 9.4245042 l -1.914286,0.6865198 c -0.341779,0.09828 -0.699261,0.09828 -1.04104,0 L 13.284049,9.3832815 13.092894,9.3166892 c -0.23791,-0.1109855 -0.17877,-0.3757631 0.04265,-0.4360118 l 2.391494,-0.8228743 c 0.240853,-0.086971 0.499008,-0.086971 0.73986,0 l 2.341981,0.8133611 c 0.255788,0.071344 0.305301,0.3440531 0.0087,0.4566234 l -0.04947,0.01744 z m -6.042679,-2.958539 v 1.6996537 h 0.05091 c 0.03441,-9.6e-6 0.0625,0.031688 0.06327,0.071344 v 0.4978472 c -7.48e-4,0.039658 -0.02885,0.071353 -0.06327,0.071345 h -0.05091 V 8.901285 c 0.06672,0.01326 0.114144,0.1585502 0.114144,0.1585502 v 0 c 0,0 -0.06155,0.1585494 -0.137518,0.1585494 h -0.251666 c -0.07592,0 -0.137519,-0.1585494 -0.137519,-0.1585494 v 0 c 0,0 0.04745,-0.1452907 0.11413,-0.1585502 V 8.7268808 h -0.05091 c -0.03442,9.6e-6 -0.0625,-0.031688 -0.06327,-0.071345 V 8.157689 c 7.48e-4,-0.039658 0.02885,-0.071353 0.06327,-0.071344 h 0.05091 V 6.5008463 L 9.605293,7.4362901 c -0.4682638,0.1339572 -0.9578186,0.1339572 -1.4260824,0 L 5.283013,6.4358409 5.0217224,6.3454671 C 4.6944292,6.1869169 4.7769399,5.8301801 5.0808777,5.7477346 L 8.3566253,4.6236165 c 0.3298624,-0.1197421 0.683663,-0.1197421 1.0135266,0 L 12.58814,5.7334647 c 0.349304,0.096716 0.412566,0.4756499 0.01099,0.6246861 l -0.06874,0.023788 z"
         style="fill:#ffffff;fill-rule:evenodd;stroke-width:0.75"
         id="path687" />
    </g>
  </g>
</svg>
