<?xml version="1.0" standalone="no"?><!-- Generator: Gravit.io --><svg xmlns="http://www.w3.org/2000/svg" xmlns:xlink="http://www.w3.org/1999/xlink" style="isolation:isolate" viewBox="0 0 400 500" width="400" height="500"><defs><clipPath id="_clipPath_wmHuHS1bQtjxGL0taDyuV54R0Km1djfi"><rect width="400" height="500"/></clipPath></defs><g clip-path="url(#_clipPath_wmHuHS1bQtjxGL0taDyuV54R0Km1djfi)"><defs><filter id="iujGSDFmGnagM1z8EwD3FJBfsv0q5xtU" x="-200%" y="-200%" width="400%" height="400%" filterUnits="objectBoundingBox" color-interpolation-filters="sRGB"><feGaussianBlur xmlns="http://www.w3.org/2000/svg" stdDeviation="4.293609062839028"/></filter></defs><g filter="url(#iujGSDFmGnagM1z8EwD3FJBfsv0q5xtU)"><ellipse vector-effect="non-scaling-stroke" cx="200" cy="484" rx="60" ry="14" fill="rgb(162,162,162)" fill-opacity="0.7"/></g><g><defs><filter id="3KB5CXZU44D1ypnOcZcfzoFSge5Hzq4j" x="-200%" y="-200%" width="400%" height="400%" filterUnits="objectBoundingBox" color-interpolation-filters="sRGB"><feGaussianBlur xmlns="http://www.w3.org/2000/svg" stdDeviation="0.42936090628390283"/></filter></defs><g filter="url(#3KB5CXZU44D1ypnOcZcfzoFSge5Hzq4j)"><path d=" M 20 184.677 C 20 83.716 101.716 2 202.381 2 C 303.193 2 384.909 83.716 384.909 184.677 C 384.909 238.858 361.224 287.71 323.622 321.166 C 321.55 322.943 249.9 389.707 201.937 492 C 183.876 419.61 113.855 350.033 81.731 321.61 C 43.834 288.006 20 239.154 20 184.677 Z  M 315.184 184.677" fill="rgb(83,153,135)" vector-effect="non-scaling-stroke" stroke-width="2" stroke="rgb(255,255,255)" stroke-linejoin="miter" stroke-linecap="butt" stroke-miterlimit="4"/></g></g><g><path d=" M 81 56.623 L 327.754 56.623 L 327.754 303.377 L 81 303.377 L 81 56.623 Z " fill="none"/><path d=" M 276.347 87.467 L 132.407 87.467 C 121.098 87.467 111.947 96.721 111.947 108.03 L 111.844 251.97 C 111.844 263.279 121.098 272.533 132.407 272.533 L 276.347 272.533 C 287.656 272.533 296.91 263.279 296.91 251.97 L 296.91 108.03 C 296.91 96.721 287.656 87.467 276.347 87.467 Z  M 266.065 200.563 L 224.94 200.563 L 224.94 241.688 L 183.814 241.688 L 183.814 200.563 L 142.688 200.563 L 142.688 159.437 L 183.814 159.437 L 183.814 118.312 L 224.94 118.312 L 224.94 159.437 L 266.065 159.437 L 266.065 200.563 Z " fill="rgb(241,241,225)"/></g></g></svg>