<?xml version="1.0" encoding="UTF-8" standalone="no"?>
<!-- Generator: Gravit.io -->

<svg
   style="isolation:isolate"
   viewBox="0 0 24 24"
   width="24pt"
   height="24pt"
   version="1.1"
   id="svg152"
   sodipodi:docname="poi_education_24px.svg"
   inkscape:export-filename="..\poi_pin_filled\poi_services_24px.svg"
   inkscape:export-xdpi="96"
   inkscape:export-ydpi="96"
   xmlns:inkscape="http://www.inkscape.org/namespaces/inkscape"
   xmlns:sodipodi="http://sodipodi.sourceforge.net/DTD/sodipodi-0.dtd"
   xmlns="http://www.w3.org/2000/svg"
   xmlns:svg="http://www.w3.org/2000/svg">
  <sodipodi:namedview
     id="namedview154"
     pagecolor="#505050"
     bordercolor="#eeeeee"
     borderopacity="1"
     inkscape:showpageshadow="0"
     inkscape:pageopacity="0"
     inkscape:pagecheckerboard="0"
     inkscape:deskcolor="#505050"
     inkscape:document-units="pt"
     showgrid="false" />
  <defs
     id="defs82">
    <clipPath
       id="_clipPath_Vg4kvHloNRXZ6Kny1J4sUuzgKwjzTsxP">
      <rect
         width="24"
         height="24"
         id="rect79"
         x="0"
         y="0" />
    </clipPath>
  </defs>
  <g
     clip-path="url(#_clipPath_Vg4kvHloNRXZ6Kny1J4sUuzgKwjzTsxP)"
     id="g150">
    <clipPath
       id="_clipPath_tG5fFOqLiFUkLeERMNlEk5f5RaK7WXTP">
      <rect
         x="0.5"
         y="0"
         width="24"
         height="24"
         fill="#ffffff"
         id="rect84" />
    </clipPath>
    <g
       clip-path="url(#_clipPath_tG5fFOqLiFUkLeERMNlEk5f5RaK7WXTP)"
       id="g148">
      <g
         id="g146">
        <clipPath
           id="_clipPath_8saGcgeap1SSC3gkUSZXWAvZv2NHQOJn">
          <rect
             x="0.5"
             y="-2"
             width="23"
             height="28"
             fill="#ffffff"
             id="rect87" />
        </clipPath>
        <g
           clip-path="url(#_clipPath_8saGcgeap1SSC3gkUSZXWAvZv2NHQOJn)"
           id="g96">
          <g
             id="g94"
             style="fill:#aa8800">
            <g
               id="g92"
               style="fill:#aa8800">
              <ellipse
                 vector-effect="non-scaling-stroke"
                 cx="12"
                 cy="12"
                 rx="11.474501"
                 ry="11.454545"
                 fill="rgb(0,0,0)"
                 id="ellipse90"
                 style="fill:#0088aa" />
            </g>
          </g>
        </g>
        <clipPath
           id="_clipPath_VFPwfpoqOMj2oTRhtOqCAGCHQZDu88oN">
          <rect
             x="0.5"
             y="-2"
             width="23"
             height="28"
             fill="#ffffff"
             id="rect98" />
        </clipPath>
        <rect
           x="0.5"
           y="-2"
           width="23"
           height="28"
           fill="none"
           id="rect144" />
        <path
           d="m 15.914741,14.110155 c -0.149717,0.520775 -0.363586,1.020973 -0.6367,1.489119 h 1.328471 c 0.05745,0.03491 0.181341,0.0872 0.181341,0.0872 v 0 c 0,0 0.64101,0.06127 0.897293,-0.13415 l 0.36536,-0.248188 c -0.16174,0.357606 -0.352679,0.701307 -0.570883,1.027625 -0.485533,0.719683 -1.105864,1.338777 -1.826813,1.82317 -0.364489,0.244638 -0.751265,0.4544 -1.155192,0.626501 -0.41368,0.177459 -0.844405,0.312313 -1.285488,0.402468 -0.898929,0.177095 -1.823841,0.177095 -2.722769,0 -0.43339,-0.0874 -0.8568597,-0.218191 -1.2639922,-0.390391 l -0.021515,-0.008 C 8.800068,18.613045 8.4133185,18.403294 8.048662,18.158933 7.688705,17.917444 7.3531064,17.641578 7.0466016,17.335228 6.9122781,17.201069 6.7860088,17.066911 6.6637726,16.919346 6.8577652,16.752813 7.0613965,16.59782 7.2736119,16.455168 7.374801,16.572328 7.587928,16.793239 7.587928,16.793239 v 0 c 0,0 0.5668424,0.515332 0.8851979,0.728459 0.3264141,0.217343 0.6721991,0.404162 1.0329635,0.558085 l 0.017496,0.008 c 0.3590881,0.151406 0.7326336,0.266025 1.1148956,0.342096 0.09537,0.01875 0.193428,0.03622 0.291482,0.04967 C 10.115614,17.805607 9.3930826,17.028059 8.7807712,16.16678 H 7.7061718 c 0.4029687,-0.254888 0.8516153,-0.503076 1.2962278,-0.736504 0.033573,0.05767 0.068544,0.114029 0.104775,0.170375 h 2.4527744 v -1.373752 l 0.188054,-0.07915 c 0.08898,0.170542 0.230164,0.308254 0.402976,0.393071 v 1.058486 h 2.44068 c 0.582971,-0.913595 0.897287,-1.833896 0.940269,-2.759567 l 0.386855,1.270449 z m -4.97942,-2.186727 c 0.09133,-0.291118 0.345219,-0.524546 0.713266,-0.760659 l -1.25728,-1.4676561 c -0.08462,-0.073784 -0.06312,-0.1341544 0.01608,-0.1864753 l 0.417751,-0.1784268 c 0.0681,-0.021499 0.142198,-0.012185 0.202835,0.025494 l 1.825475,0.9189622 2.149191,-1.2409344 -2.971258,-3.689263 c -0.07657,-0.084518 -0.06579,-0.1502534 0.05374,-0.1931831 l 0.671631,-0.2683099 4.464955,2.8829918 1.611892,-0.7821246 c 0.613866,-0.26831 1.143105,-0.3112397 1.477576,-0.111348 0.160609,0.065936 0.258125,0.2300809 0.239098,0.4024647 0.0067,0.4024652 -0.330437,0.8371269 -0.925494,1.2073947 l -1.675031,0.651994 -0.134331,5.3031448 -0.599083,0.402467 c -0.103436,0.07379 -0.163879,0.04697 -0.190741,-0.06438 l -1.38624,-4.522362 -2.235165,1.073241 -0.268647,2.012325 c -0.0037,0.07314 -0.03962,0.140895 -0.09806,0.185135 l -0.380134,0.244159 c -0.08731,0.03488 -0.149104,0.01875 -0.161192,-0.09257 L 11.99109,11.810755 c -0.402969,0.171718 -0.741467,0.249529 -1.034296,0.158302 -0.02687,-0.008 -0.02955,-0.02012 -0.0215,-0.04561 z M 10.37116,10.993733 C 8.595381,11.932818 6.2205196,13.458161 5.3474086,14.347609 2.4916655,17.28426 4.7201161,19.572945 8.056742,18.570806 7.0116912,18.416533 6.1936575,18.205907 5.7396376,17.90808 3.801335,16.636295 10.038035,13.891484 11.496803,13.290468 L 11.38262,12.867879 c -0.229478,0.02079 -0.460811,-0.0034 -0.681023,-0.07111 l -0.08194,-0.03622 c -0.219408,-0.08109 -0.39318,-0.252684 -0.476857,-0.47088 l -0.01749,-0.04695 c -0.07206,-0.183128 -0.07541,-0.386101 -0.0094,-0.571501 0.06771,-0.219066 0.177684,-0.422784 0.323724,-0.599672 l -0.0658,-0.07781 z M 5.1123451,13.35352 c -0.030936,-0.27213 -0.046194,-0.54581 -0.0457,-0.819688 -4.214e-4,-0.456766 0.044574,-0.912445 0.134323,-1.36033 0.086422,-0.432962 0.2169476,-0.855962 0.3895422,-1.2623992 l 0.00804,-0.020116 C 5.7721493,9.4875045 5.9825843,9.1008466 6.2271886,8.7359105 6.4681891,8.3766066 6.7439852,8.0418441 7.050595,7.7364562 7.3571021,7.4301028 7.6927032,7.1542347 8.0526634,6.9127443 8.41732,6.6683835 8.8040694,6.4586348 9.207855,6.2862406 9.6216064,6.1089743 10.052312,5.9741275 10.493343,5.8837752 c 0.260496,-0.051756 0.523759,-0.088486 0.788485,-0.1100066 0.03007,0.046897 0.06329,0.091718 0.0994,0.1341546 l 0.768337,0.9565257 v 2.0284234 h 1.372801 L 12.825222,9.2953326 11.559882,8.6594378 V 6.8604189 C 10.846629,7.4711242 10.196797,8.1520455 9.6202316,8.8928673 h 0.1786538 c -0.1430849,0.1229493 -0.2448479,0.2868734 -0.291489,0.469543 -0.010314,0.035149 -0.017954,0.071025 -0.022855,0.1073237 v 0.01208 H 9.2064876 C 8.8837359,9.9725568 8.6246579,10.50223 8.4354646,11.058135 8.1923399,11.204364 7.9478685,11.353277 7.7060845,11.506213 7.8634621,10.79067 8.1356209,10.105241 8.5120298,9.4764471 H 6.6623803 C 6.528437,9.7068576 6.4086666,9.9452003 6.3037339,10.190152 l -0.00804,0.01744 c -0.1526448,0.360106 -0.2674376,0.735068 -0.3425344,1.118852 -0.060125,0.301712 -0.096947,0.607592 -0.1101408,0.914939 H 6.5898641 C 6.0780358,12.586272 5.584826,12.957953 5.1123004,13.354867 Z M 15.52386,12.830315 h -1.452055 l 0.07926,-0.590282 h 1.195488 l 0.178652,0.590282 z m -0.605806,3.335096 c -0.612912,0.861189 -1.335371,1.639105 -2.149198,2.314175 0.09805,-0.01479 0.194767,-0.0322 0.291482,-0.05102 0.387907,-0.07816 0.766859,-0.195474 1.131017,-0.350148 0.360902,-0.153632 0.706711,-0.340465 1.032956,-0.558084 0.318358,-0.213127 0.885206,-0.728459 0.885206,-0.728459 v 0 c 0,0 0.385353,-0.404462 0.55476,-0.626501 z m -2.769777,2.070013 c 0.760186,-0.60866 1.447142,-1.303304 2.047104,-2.070013 H 12.148277 Z M 11.559934,16.165411 H 9.5114752 c 0.6007468,0.766468 1.2881208,1.461074 2.0484588,2.070013 z M 8.8949303,8.8928664 C 9.5001222,8.0453178 10.201485,7.2705617 10.985025,6.584058 10.869503,6.6001542 10.755328,6.6189383 10.642493,6.6417417 10.253776,6.7184189 9.8742298,6.8357813 9.5101364,6.991886 9.1493743,7.1458099 8.8035917,7.3326292 8.4771799,7.5499713 8.1588214,7.7630985 7.591974,8.2784335 7.591974,8.2784335 v 0 c 0,0 -0.3728039,0.3964004 -0.5372922,0.6130874 z"
           id="path1555"
           style="fill:#dbe3db;stroke-width:0.135032"
           sodipodi:nodetypes="cccsscccccccccccccssccccccccccccccccccccccccccccccccccccccccccccccccccccccccccccccccccccccccccccccccccccccccccccccccccccccccccccsscccccccccccccccsscc" />
      </g>
    </g>
  </g>
</svg>
