<?xml version="1.0" standalone="no"?><!-- Generator: Gravit.io --><svg xmlns="http://www.w3.org/2000/svg" xmlns:xlink="http://www.w3.org/1999/xlink" style="isolation:isolate" viewBox="0 0 400 500" width="400" height="500"><defs><clipPath id="_clipPath_aMuiqriowpkljJkYdpr8V6RapnCZ1nJi"><rect width="400" height="500"/></clipPath></defs><g clip-path="url(#_clipPath_aMuiqriowpkljJkYdpr8V6RapnCZ1nJi)"><defs><filter id="5vozJ5XBouKzyenLW1NykNsxJaoIzoGL" x="-200%" y="-200%" width="400%" height="400%" filterUnits="objectBoundingBox" color-interpolation-filters="sRGB"><feGaussianBlur xmlns="http://www.w3.org/2000/svg" stdDeviation="4.293609062839028"/></filter></defs><g filter="url(#5vozJ5XBouKzyenLW1NykNsxJaoIzoGL)"><ellipse vector-effect="non-scaling-stroke" cx="200" cy="484" rx="60" ry="14" fill="rgb(162,162,162)" fill-opacity="0.7"/></g><g><defs><filter id="dLcZTkZ3wFty2sIlt8AhXHa3t5rQXq3W" x="-200%" y="-200%" width="400%" height="400%" filterUnits="objectBoundingBox" color-interpolation-filters="sRGB"><feGaussianBlur xmlns="http://www.w3.org/2000/svg" stdDeviation="0.42936090628390283"/></filter></defs><g filter="url(#dLcZTkZ3wFty2sIlt8AhXHa3t5rQXq3W)"><path d=" M 20 184.677 C 20 83.716 101.716 2 202.381 2 C 303.193 2 384.909 83.716 384.909 184.677 C 384.909 238.858 361.224 287.71 323.622 321.166 C 321.55 322.943 249.9 389.707 201.937 492 C 183.876 419.61 113.855 350.033 81.731 321.61 C 43.834 288.006 20 239.154 20 184.677 Z  M 315.184 184.677" fill="rgb(247,135,100)" vector-effect="non-scaling-stroke" stroke-width="2" stroke="rgb(255,255,255)" stroke-linejoin="miter" stroke-linecap="butt" stroke-miterlimit="4"/></g></g><g><path d=" M 264.955 86.25 L 264.955 107.083 L 244.121 107.083 L 244.121 86.25 L 160.788 86.25 L 160.788 107.083 L 139.955 107.083 L 139.955 86.25 L 119.121 86.25 L 119.121 273.75 L 139.955 273.75 L 139.955 252.917 L 160.788 252.917 L 160.788 273.75 L 244.121 273.75 L 244.121 252.917 L 264.955 252.917 L 264.955 273.75 L 285.788 273.75 L 285.788 86.25 L 264.955 86.25 Z  M 160.788 232.083 L 139.955 232.083 L 139.955 211.25 L 160.788 211.25 L 160.788 232.083 Z  M 160.788 190.417 L 139.955 190.417 L 139.955 169.583 L 160.788 169.583 L 160.788 190.417 Z  M 160.788 148.75 L 139.955 148.75 L 139.955 127.917 L 160.788 127.917 L 160.788 148.75 Z  M 264.955 232.083 L 244.121 232.083 L 244.121 211.25 L 264.955 211.25 L 264.955 232.083 Z  M 264.955 190.417 L 244.121 190.417 L 244.121 169.583 L 264.955 169.583 L 264.955 190.417 Z  M 264.955 148.75 L 244.121 148.75 L 244.121 127.917 L 264.955 127.917 L 264.955 148.75 Z " fill="rgb(241,241,225)"/><path d=" M 77.455 55 L 327.455 55 L 327.455 305 L 77.455 305 L 77.455 55 Z " fill="none"/></g></g></svg>