<?xml version="1.0" encoding="UTF-8" standalone="no"?>
<!-- Generator: Gravit.io -->

<svg
   style="isolation:isolate"
   viewBox="0 0 24 24"
   width="24pt"
   height="24pt"
   version="1.1"
   id="svg152"
   sodipodi:docname="poi_education_24px.svg"
   inkscape:export-filename="..\poi_pin_filled\poi_retail_24px.svg"
   inkscape:export-xdpi="96"
   inkscape:export-ydpi="96"
   xmlns:inkscape="http://www.inkscape.org/namespaces/inkscape"
   xmlns:sodipodi="http://sodipodi.sourceforge.net/DTD/sodipodi-0.dtd"
   xmlns="http://www.w3.org/2000/svg"
   xmlns:svg="http://www.w3.org/2000/svg">
  <sodipodi:namedview
     id="namedview154"
     pagecolor="#505050"
     bordercolor="#eeeeee"
     borderopacity="1"
     inkscape:showpageshadow="0"
     inkscape:pageopacity="0"
     inkscape:pagecheckerboard="0"
     inkscape:deskcolor="#505050"
     inkscape:document-units="pt"
     showgrid="false" />
  <defs
     id="defs82">
    <clipPath
       id="_clipPath_Vg4kvHloNRXZ6Kny1J4sUuzgKwjzTsxP">
      <rect
         width="24"
         height="24"
         id="rect79"
         x="0"
         y="0" />
    </clipPath>
  </defs>
  <g
     clip-path="url(#_clipPath_Vg4kvHloNRXZ6Kny1J4sUuzgKwjzTsxP)"
     id="g150">
    <clipPath
       id="_clipPath_tG5fFOqLiFUkLeERMNlEk5f5RaK7WXTP">
      <rect
         x="0.5"
         y="0"
         width="24"
         height="24"
         fill="#ffffff"
         id="rect84" />
    </clipPath>
    <g
       clip-path="url(#_clipPath_tG5fFOqLiFUkLeERMNlEk5f5RaK7WXTP)"
       id="g148">
      <g
         id="g146">
        <clipPath
           id="_clipPath_8saGcgeap1SSC3gkUSZXWAvZv2NHQOJn">
          <rect
             x="0.5"
             y="-2"
             width="23"
             height="28"
             fill="#ffffff"
             id="rect87" />
        </clipPath>
        <g
           clip-path="url(#_clipPath_8saGcgeap1SSC3gkUSZXWAvZv2NHQOJn)"
           id="g96">
          <g
             id="g94"
             style="fill:#aa8800">
            <g
               id="g92"
               style="fill:#aa8800">
              <ellipse
                 vector-effect="non-scaling-stroke"
                 cx="12"
                 cy="12"
                 rx="11.474501"
                 ry="11.454545"
                 fill="rgb(0,0,0)"
                 id="ellipse90"
                 style="fill:#17280b" />
            </g>
          </g>
        </g>
        <clipPath
           id="_clipPath_VFPwfpoqOMj2oTRhtOqCAGCHQZDu88oN">
          <rect
             x="0.5"
             y="-2"
             width="23"
             height="28"
             fill="#ffffff"
             id="rect98" />
        </clipPath>
        <rect
           x="0.5"
           y="-2"
           width="23"
           height="28"
           fill="none"
           id="rect144" />
        <path
           class="cls-1"
           d="m 4.8345139,11.864102 h 2.4377457 c 0.2290148,7.15e-4 0.4144852,0.177917 0.4152203,0.396738 v 4.760857 c -7.38e-4,0.21882 -0.1862055,0.396036 -0.4152203,0.396737 H 4.8345139 C 4.6054995,17.417718 4.4200291,17.240517 4.4192935,17.021697 V 12.26084 c 7.38e-4,-0.218821 0.186206,-0.396036 0.4152204,-0.396738 z m 3.3914133,5.088482 v -4.636713 h 2.5917788 c 0.926879,0.158696 1.853759,0.6399 2.7793,1.196613 h 1.698386 c 0.767488,0.04351 1.170651,0.788357 0.424594,1.279801 -0.596044,0.417214 -1.380941,0.392898 -2.185935,0.325068 -0.555861,-0.02687 -0.579969,0.685973 0,0.688533 0.200915,0.01536 0.419241,-0.02943 0.610777,-0.03071 1.004564,0 1.832325,-0.184291 2.338629,-0.941933 l 0.258507,-0.577192 2.524807,-1.196612 c 1.264412,-0.396739 2.161827,0.866424 1.230928,1.744367 -1.761513,1.228724 -3.645869,2.288006 -5.625565,3.162384 -1.392998,0.810114 -2.787337,0.781957 -4.180333,0 L 8.2272665,16.952584 Z M 12.7237,5.6161192 c -0.01544,-0.012107 -0.03317,-0.021236 -0.05223,-0.026874 -0.0141,-0.00307 -0.02876,-0.00307 -0.04286,0 -0.03792,0.00364 -0.07291,0.02105 -0.09778,0.048632 l -0.33887,0.3839404 c -0.06227,0.071567 -0.16866,0.091363 -0.25449,0.047352 -0.04554,-0.023037 -0.09376,-0.044793 -0.141978,-0.06399 -0.04822,-0.019197 -0.105814,-0.039673 -0.156712,-0.056311 -0.0509,-0.016637 -0.103136,-0.030714 -0.16341,-0.047353 -0.06027,-0.016637 -0.111171,-0.029434 -0.163409,-0.040954 -0.08892,-0.021579 -0.152238,-0.096681 -0.155373,-0.1842912 l -0.0509,-0.5272774 c -0.0021,-0.018661 -0.0075,-0.036838 -0.01607,-0.053752 -0.0082,-0.013794 -0.01862,-0.026312 -0.03081,-0.037114 -0.01211,-0.010627 -0.02687,-0.018114 -0.04286,-0.021757 -0.01807,-0.00395 -0.03684,-0.00395 -0.05492,0 l -0.711232,0.066549 c -0.01901,0.00243 -0.03753,0.00762 -0.05492,0.015357 -0.01742,0.00908 -0.03287,0.021242 -0.04554,0.035834 -0.01056,0.012622 -0.02411,0.042233 -0.02411,0.042233 v 0 c 0,0 -0.0028,0.028279 0,0.042234 l 0.04956,0.497842 c 0.0095,0.095082 -0.05371,0.1829907 -0.150016,0.2086074 -0.042863,0.014077 -0.091081,0.030714 -0.1459969,0.052472 -0.054916,0.021757 -0.1017961,0.043513 -0.1446573,0.06527 h -0.00803 c -0.04554,0.023037 -0.09376,0.047352 -0.1339422,0.072949 h -0.013392 c -0.04554,0.025597 -0.089741,0.052472 -0.1339418,0.079347 -0.075004,0.047389 -0.1734111,0.043256 -0.2437744,-0.010237 L 8.7375961,5.8618427 c -0.014115,-0.010845 -0.029937,-0.019483 -0.046879,-0.025597 -0.013233,-0.00283 -0.02695,-0.00283 -0.040182,0 -0.01914,0.00261 -0.037695,0.00824 -0.054916,0.016637 h -0.00803 c -0.012424,0.00841 -0.023676,0.018307 -0.033483,0.029434 L 8.105394,6.403195 C 8.091872,6.418752 8.081433,6.436534 8.074587,6.455667 c -0.00264,0.013534 -0.00264,0.027421 0,0.040954 v 0.00896 c 0.00138,0.01521 0.00596,0.029999 0.013392,0.043513 v 0.0064 c 0.00887,0.012596 0.019715,0.02382 0.032147,0.033274 l 0.4018267,0.3237891 c 0.076078,0.059385 0.096924,0.1622082 0.049558,0.2444418 -0.024048,0.041613 -0.045949,0.084324 -0.065632,0.12798 -0.022275,0.048932 -0.041942,0.098908 -0.058935,0.1497366 -0.016074,0.047352 -0.033484,0.098545 -0.050898,0.1561357 -0.01741,0.057591 -0.030807,0.1075031 -0.042859,0.1561354 -0.017055,0.086203 -0.092034,0.1510474 -0.1835007,0.1586952 l -0.5531809,0.048633 c -0.019105,0.002 -0.037687,0.00722 -0.054916,0.015357 -0.015131,0.00797 -0.028723,0.01836 -0.040182,0.030714 -0.010417,0.012035 -0.018162,0.02597 -0.022772,0.040953 -0.00359,0.016891 -0.00359,0.034301 0,0.051192 l 0.06965,0.6795739 c 0.00195,0.018697 0.00737,0.036904 0.016074,0.053752 0.00894,0.016637 0.021228,0.031426 0.036165,0.043513 0.013535,0.00961 0.028415,0.017363 0.044201,0.023038 0.016398,0.00268 0.033159,0.00268 0.049559,0 L 8.2353196,8.845051 c 0.096755,-0.00576 0.1844983,0.054048 0.210289,0.1433377 0.014733,0.040954 0.033484,0.088306 0.056256,0.139498 0.022772,0.051192 0.044201,0.095985 0.068311,0.1394983 l 0.00938,0.017917 c 0.021432,0.039674 0.045541,0.083187 0.072329,0.12798 l 0.089741,0.140778 c 0.047536,0.071628 0.042154,0.1642082 -0.013393,0.2303642 L 8.3572075,10.220836 c -0.00976,0.01266 -0.01786,0.02641 -0.024108,0.04095 -0.00212,0.01229 -0.00212,0.02482 0,0.03711 0.00173,0.01873 0.0072,0.03697 0.016073,0.05375 0.00866,0.01535 0.020511,0.02886 0.034825,0.03967 0.1848399,0.147178 0.3750377,0.291795 0.5585384,0.440252 0.012229,0.0084 0.025799,0.0149 0.040182,0.0192 0.016787,0.0033 0.050898,0 0.050898,0 v 0 c 0,0 0.040282,-0.0072 0.058935,-0.01536 h 0.0067 c 0.012691,-0.0082 0.024774,-0.01713 0.036164,-0.02688 L 9.47027,10.425588 c 0.062077,-0.07267 0.1693694,-0.09306 0.2558295,-0.04863 0.046154,0.02363 0.093542,0.04499 0.1419783,0.06399 0.052237,0.02176 0.104475,0.03967 0.1567122,0.05631 0.05224,0.01664 0.101796,0.032 0.163409,0.04863 0.06161,0.01664 0.111173,0.02943 0.16341,0.04095 0.09077,0.01971 0.15623,0.0954 0.159391,0.184292 l 0.0509,0.520878 c 0.0021,0.01841 0.0081,0.03625 0.01741,0.05247 0.0074,0.01468 0.01789,0.02775 0.03081,0.03839 0.01294,0.0094 0.02743,0.0168 0.04286,0.02176 0.01814,0.0033 0.03678,0.0033 0.05492,0 l 0.709892,-0.06653 c 0.01999,-0.0019 0.05759,-0.01536 0.05759,-0.01536 v 0 c 0,0 0.03041,-0.01833 0.04286,-0.03071 0.01207,-0.01417 0.02158,-0.03018 0.02813,-0.04735 0.0041,-0.01511 0.0041,-0.03096 0,-0.04607 l -0.04822,-0.499124 c -0.0099,-0.08957 0.04532,-0.174071 0.133943,-0.204768 0.05224,-0.01664 0.104474,-0.03584 0.155372,-0.05631 h 0.01607 c 0.04286,-0.01792 0.08573,-0.03839 0.133943,-0.06143 h 0.008 c 0.0509,-0.02432 0.100456,-0.04991 0.144656,-0.07551 l 0.148676,-0.08575 c 0.07461,-0.04565 0.171557,-0.03996 0.239757,0.01408 l 0.452725,0.353225 c 0.01353,0.0096 0.0442,0.02304 0.0442,0.02304 v 0 c 0,0 0.02876,0.0032 0.04285,0 0.01915,-9.06e-4 0.03788,-0.0057 0.05491,-0.01408 0.01531,-0.0093 0.02889,-0.02099 0.04018,-0.03455 0.154035,-0.176612 0.305388,-0.358344 0.460759,-0.533676 0.009,-0.01108 0.01587,-0.02367 0.02011,-0.037115 0.0031,-0.016095 0,-0.048632 0,-0.048632 v 0 c 0,0 -0.0077,-0.038435 -0.01609,-0.056311 C 13.56962,9.866344 13.55824,9.8525 13.54475,9.840748 L 13.142971,9.5284674 c -0.0777,-0.058829 -0.09976,-0.1625871 -0.05224,-0.2457218 0.02474,-0.044099 0.04708,-0.089378 0.06697,-0.1356585 0.02279,-0.052472 0.04285,-0.102384 0.05894,-0.1484569 0.01609,-0.046073 0.03213,-0.099824 0.04956,-0.1574154 0.01742,-0.057591 0.03079,-0.1049434 0.04285,-0.1561354 0.02102,-0.088087 0.102355,-0.1510102 0.196898,-0.1522964 L 14.06315,8.476472 c 0.01955,-0.00204 0.03857,-0.00722 0.05626,-0.015357 0.01414,-0.00828 0.02716,-0.018167 0.03883,-0.029434 0.0099,-0.012368 0.02279,-0.040954 0.02279,-0.040954 v 0 c 0,0 0.0031,-0.032538 0,-0.048632 L 14.11137,7.6638007 c -0.0022,-0.018214 -0.0077,-0.035939 -0.01609,-0.052472 v -0.00768 c -0.0092,-0.013477 -0.0205,-0.025555 -0.03347,-0.035835 -0.01323,-0.010087 -0.0442,-0.023037 -0.0442,-0.023037 v 0 c 0,0 -0.02958,-0.00265 -0.0442,0 l -0.52639,0.035835 C 13.35351,7.5891929 13.265616,7.536707 13.232712,7.452632 13.215282,7.4052791 13.19656,7.355367 13.172439,7.304175 13.148309,7.252983 13.125557,7.1992313 13.10279,7.1569978 v -0.00896 c -0.0227,-0.043849 -0.04775,-0.086564 -0.07501,-0.12798 -0.02681,-0.043513 -0.0576,-0.087026 -0.0884,-0.12798 -0.05165,-0.072669 -0.04673,-0.1692273 0.01207,-0.2367629 l 0.366998,-0.433852 c 0.01164,-0.013308 0.02067,-0.028472 0.02677,-0.044793 0.0031,-0.012221 0.0031,-0.02489 0,-0.037114 -0.0026,-0.018689 -0.0086,-0.036839 -0.01743,-0.053751 v -0.00896 c -0.0079,-0.011417 -0.01734,-0.02175 -0.02811,-0.030714 L 12.797396,5.6519506 c -0.02694,-0.00679 -0.05207,-0.019011 -0.07367,-0.035834 z m 5.542524,3.1483076 c -0.04268,-0.034712 -0.09827,-0.051343 -0.154034,-0.046073 -0.05538,0.00599 -0.106211,0.032116 -0.141979,0.072949 L 17.765283,9.0280657 C 17.700158,8.9958534 17.632542,8.9684718 17.563027,8.9461585 17.490702,8.9244013 17.429088,8.9052048 17.3514,8.8885673 L 17.31927,8.5583791 C 17.31437,8.5056531 17.28792,8.4569029 17.2456,8.4227202 17.20335,8.3884732 17.14778,8.3731062 17.092906,8.3804862 l -0.436651,0.040954 c -0.05196,0.00671 -0.09957,0.031283 -0.133943,0.069109 -0.03676,0.04054 -0.05422,0.09385 -0.04822,0.1471772 l 0.02945,0.3033126 C 16.432782,8.96291 16.364206,8.99075 16.298609,9.024226 16.233579,9.054908 16.17091,9.089977 16.111091,9.1291698 L 15.835175,8.9167231 c -0.04048,-0.03582 -0.09519,-0.053098 -0.150013,-0.047353 -0.05566,0.00606 -0.106627,0.032706 -0.141978,0.074228 l -0.267888,0.3186704 c -0.07552,0.085066 -0.06281,0.2128827 0.02811,0.2828357 l 0.233058,0.1958097 c -0.03382,0.062005 -0.06206,0.1266559 -0.08438,0.1932499 -0.02413,0.069109 -0.04421,0.1279802 -0.06161,0.2022082 l -0.345571,0.03071 c -0.05506,0.0051 -0.105935,0.0303 -0.141978,0.07039 -0.03321,0.042 -0.04635,0.09544 -0.03615,0.147177 l 0.04285,0.415935 c 0.0054,0.05223 0.03178,0.100418 0.07367,0.134379 0.04177,0.03534 0.09726,0.05208 0.152694,0.04607 l 0.31744,-0.02816 c 0.02192,0.06695 0.04971,0.132021 0.08305,0.19453 0.03321,0.06323 0.06986,0.124749 0.109831,0.184291 l -0.222343,0.255959 c -0.03714,0.03878 -0.05477,0.09113 -0.04822,0.143338 0.0077,0.05032 0.03494,0.09601 0.07635,0.12798 l 0.338872,0.277716 c 0.04298,0.03388 0.09878,0.04918 0.154035,0.04223 0.05552,-0.0051 0.107068,-0.02974 0.144655,-0.06911 l 0.206273,-0.240603 c 0.06475,0.03297 0.132431,0.06038 0.202252,0.08191 0.06938,0.02291 0.140028,0.04213 0.211627,0.05759 l 0.03213,0.331468 c 0.0058,0.05212 0.03213,0.100168 0.07367,0.134379 0.04268,0.03448 0.09858,0.05026 0.154035,0.04351 l 0.43531,-0.04095 c 0.0545,-0.0056 0.10475,-0.03079 0.140642,-0.07039 0.03676,-0.04054 0.05422,-0.09385 0.04822,-0.147176 l -0.03079,-0.303313 c 0.07094,-0.02141 0.139561,-0.04927 0.204933,-0.08319 0.06584,-0.03107 0.129792,-0.06568 0.191536,-0.103664 l 0.267887,0.212447 c 0.04242,0.03512 0.09822,0.0518 0.15403,0.04607 0.05573,-0.0049 0.106968,-0.03124 0.141978,-0.07295 l 0.278604,-0.322509 c 0.0355,-0.0411 0.05195,-0.09424 0.04554,-0.147177 -0.0052,-0.05337 -0.03153,-0.102824 -0.07367,-0.138219 l -0.251831,-0.19451 c 0.03797,-0.06143 0.0698,-0.12613 0.0951,-0.19325 0.02378,-0.06591 0.04391,-0.132983 0.06027,-0.200929 l 0.346912,-0.03071 c 0.05231,-0.0066 0.100118,-0.0317 0.133943,-0.07039 0.03624,-0.04072 0.05277,-0.09418 0.04554,-0.147178 l -0.04286,-0.415934 c -0.0075,-0.04979 -0.03368,-0.09527 -0.07367,-0.1279802 -0.04221,-0.035579 -0.09803,-0.052736 -0.154031,-0.047355 l -0.317444,0.029434 C 18.591925,9.8809858 18.562825,9.8155338 18.528735,9.752429 18.498045,9.689574 18.461275,9.6295903 18.418916,9.5732573 L 18.6426,9.3096188 c 0.03641,-0.039204 0.05389,-0.091211 0.04822,-0.1433377 -0.0063,-0.052909 -0.0336,-0.1014848 -0.07634,-0.1356586 L 18.279613,8.7682633 h -0.01073 z m -1.323349,0.8741035 c 0.113619,-0.00984 0.228159,0.001 0.337536,0.031994 0.104849,0.031875 0.202524,0.082229 0.287974,0.1484568 0.08492,0.067043 0.155427,0.1491876 0.20761,0.2418819 0.0546,0.09515 0.08746,0.200266 0.09644,0.308432 0.01038,0.10856 -8.65e-4,0.218012 -0.03347,0.32251 -0.06243,0.203079 -0.207057,0.373976 -0.401827,0.474806 -0.09994,0.05112 -0.209815,0.08205 -0.322798,0.09087 -0.113619,0.01055 -0.228302,-3.22e-4 -0.337536,-0.03199 -0.105187,-0.03143 -0.203302,-0.08134 -0.289314,-0.147177 -0.08417,-0.06792 -0.154156,-0.150419 -0.20627,-0.243162 -0.05761,-0.09528 -0.0928,-0.201401 -0.103136,-0.310991 -0.03684,-0.326735 0.138203,-0.641987 0.442009,-0.7960359 0.09945,-0.052454 0.209533,-0.083878 0.322798,-0.092146 z M 12.79871,5.2129823 c 0.04687,0.01407 0.09183,0.033403 0.13394,0.057591 0.02949,0.00675 0.05701,0.019887 0.08037,0.038394 l 0.539784,0.4287332 c 0.05008,0.039212 0.09267,0.086408 0.125909,0.139498 l 0.01072,0.016637 c 0.03412,0.060364 0.05596,0.1263793 0.06429,0.1945298 0.0093,0.071549 0.0017,0.1441923 -0.02279,0.2124465 -0.02124,0.059964 -0.05344,0.1158582 -0.0951,0.1650944 l -0.275922,0.3276285 0.01743,0.026878 c 0.03511,0.056247 0.06688,0.1143582 0.0951,0.1740526 0.03213,0.059724 0.05894,0.1147554 0.08036,0.1650943 l 0.01073,0.025598 0.361644,-0.033274 c 0.0702,-0.00777 0.141321,-0.00168 0.20895,0.017917 h 0.01073 c 0.0621,0.019662 0.120118,0.049548 0.171444,0.088306 l 0.01877,0.015357 c 0.04782,0.040112 0.08814,0.08772 0.119211,0.140778 l 0.01072,0.016637 c 0.03079,0.058017 0.05031,0.1208936 0.05759,0.1855712 0,0.1714931 0.04554,0.5042412 0.06965,0.6834132 0.008,0.064725 0.003,0.1303166 -0.01474,0.1932497 v 0.011516 c 0,0.068124 -0.100458,0.1804518 -0.100458,0.1804518 v 0 c 0,0 -0.09813,0.095526 -0.159392,0.12798 -0.06359,0.031207 -0.132564,0.051152 -0.203592,0.05887 l -0.425935,0.035835 -0.01072,0.037114 c -0.01478,0.051185 -0.03347,0.1087833 -0.0576,0.174053 -0.02413,0.06527 -0.0442,0.12798 -0.06697,0.1753325 l -0.01073,0.021757 0.293336,0.2265246 c 0.05567,0.045994 0.101204,0.1021154 0.13394,0.1650939 0.02448,0.056188 0.03896,0.1158753 0.04285,0.1766126 v 0.0064 c 0.009,0.068674 0.0031,0.1383829 -0.01743,0.2047679 -0.01859,0.06235 -0.04901,0.120913 -0.08974,0.172773 l -0.467458,0.540075 c -0.04464,0.05247 -0.09973,0.09597 -0.162069,0.12798 -0.06315,0.03375 -0.132923,0.05466 -0.204933,0.06143 -0.07144,0.0079 -0.143821,0.0023 -0.212968,-0.01664 h -0.01072 c -0.06096,-0.01977 -0.11801,-0.04919 -0.16877,-0.08702 l -0.346907,-0.270038 -0.03481,0.0192 c -0.05937,0.03275 -0.116534,0.06271 -0.171449,0.08831 -0.05492,0.0256 -0.101796,0.04863 -0.156712,0.07167 l -0.04822,0.01536 0.03749,0.345546 c 0.0083,0.07113 4.32e-4,0.143144 -0.02275,0.211167 -0.02262,0.06305 -0.0571,0.121611 -0.101796,0.172773 l -0.008,0.0077 c -0.04334,0.04657 -0.09449,0.08593 -0.151354,0.116462 h -0.01339 c -0.06039,0.02907 -0.12569,0.0477 -0.192876,0.05503 -0.179482,0 -0.527732,0.0448 -0.715251,0.06783 -0.07189,0.0076 -0.144637,0.0019 -0.214307,-0.01664 -0.06917,-0.01992 -0.133413,-0.05301 -0.188858,-0.09726 h -0.0067 c -0.05152,-0.04366 -0.09459,-0.09565 -0.127245,-0.153576 -0.03345,-0.06045 -0.05437,-0.126502 -0.06161,-0.19453 l -0.03884,-0.405696 -0.03751,-0.01024 -0.1821609,-0.05503 c -0.064292,-0.02048 -0.1339423,-0.04223 -0.1835007,-0.06527 l -0.025449,-0.01024 -0.2410959,0.280276 c -0.044188,0.04781 -0.097338,0.08731 -0.1567124,0.116462 l -0.014733,0.009 c -0.058846,0.02634 -0.1216826,0.04362 -0.1861791,0.05119 h -0.0067 c -0.072318,0.0085 -0.1456964,0.0029 -0.2156469,-0.01664 -0.064346,-0.0186 -0.1246814,-0.04808 -0.178143,-0.08703 L 8.1201499,10.693155 C 8.0655289,10.650215 8.0200559,10.597645 7.986208,10.538299 7.95205,10.478399 7.930224,10.4128 7.921916,10.34505 c -0.00867,-0.06902 -9.052e-4,-0.139028 0.022772,-0.204768 0.019814,-0.059 0.050676,-0.11407 0.091081,-0.1625354 L 8.3183649,9.6462145 8.303632,9.6142204 C 8.2807091,9.5644408 8.2178908,9.4619177 8.2178908,9.4619177 v 0 c 0,0 -0.061613,-0.115182 -0.087063,-0.1727729 L 8.1187719,9.2597108 7.7598071,9.2917049 C 7.685896,9.3000252 7.6109763,9.2930278 7.540142,9.2712277 7.477729,9.2516586 7.419614,9.2212932 7.3686965,9.1816417 L 7.3486054,9.1675647 C 7.2940078,9.1225949 7.2485953,9.0683561 7.2146635,9.0075895 7.1840512,8.9499568 7.1645434,8.8875322 7.1570683,8.8232984 c 0,-0.1727729 -0.04688,-0.5004018 -0.070989,-0.6821332 C 7.0750563,8.0707242 7.0791593,7.9988758 7.0981353,7.929998 7.1189873,7.863905 7.1999314,7.7495463 7.1999314,7.7495463 v 0 c 0,0 0.099627,-0.094776 0.1607302,-0.12798 0.063361,-0.031519 0.1324858,-0.051072 0.2035921,-0.057591 L 7.98885,7.5268611 7.9995658,7.4897468 c 0.014505,-0.050239 0.034825,-0.1087828 0.057595,-0.1727728 0.022772,-0.06399 0.04554,-0.12798 0.068311,-0.1766127 L 8.1361875,7.116044 7.8616062,6.8933588 c -0.053136,-0.039363 -0.098494,-0.08747 -0.1339436,-0.142057 l -0.00803,-0.012797 C 7.6889637,6.6818927 7.6698702,6.620215 7.6633723,6.5567731 V 6.5465361 C 7.6557523,6.4771761 7.6630446,6.4070589 7.6848043,6.340488 7.7070493,6.274432 7.7425353,6.2131434 7.789279,6.1600363 L 8.2379848,5.6365983 C 8.2789798,5.5885693 8.3289358,5.5482143 8.385321,5.5175769 L 8.4013942,5.50734 C 8.4642572,5.47402 8.5334963,5.453128 8.6049862,5.44591 8.6785432,5.43698 8.7532656,5.44444 8.823312,5.467667 8.885969,5.488191 8.9444286,5.518934 8.9960973,5.558533 l 0.3442312,0.2649186 0.034824,-0.025597 c 0.049551,-0.036422 0.1111718,-0.058871 0.1674277,-0.085747 0.056256,-0.026877 0.117869,-0.056312 0.1727853,-0.079348 L 9.7475133,5.6212429 9.7113484,5.276977 c -0.00813,-0.067074 -0.00173,-0.13503 0.018751,-0.1996489 v -0.010237 c 0.02058,-0.059334 0.051856,-0.1147737 0.09242,-0.1638146 L 9.84261,4.8930398 c 0.046097,-0.05209 0.1019712,-0.095494 0.164749,-0.12798 0.06046,-0.0305 0.126309,-0.050026 0.194216,-0.057591 0.179482,0 0.527732,-0.043514 0.715251,-0.06655 0.07188,-0.00835 0.144782,-0.00268 0.214307,0.016637 0.06907,0.01954 0.188858,0.095985 0.188858,0.095985 v 0 c 0,0 0.09925,0.094243 0.133942,0.1522963 0.03422,0.062159 0.05602,0.1298626 0.06429,0.1996489 l 0.0375,0.4069763 0.03884,0.010237 c 0.05224,0.014077 0.113851,0.031994 0.182162,0.053752 l 0.183504,0.06527 0.02677,0.011517 0.231722,-0.2674786 c 0.04524,-0.052411 0.100745,-0.095883 0.16341,-0.12798 0.0641,-0.034222 0.134661,-0.055971 0.20761,-0.06399 0.07249,-0.00858 0.146064,-0.00204 0.215644,0.019197 z m -2.122982,1.4858475 c 0.102952,-0.00831 0.206454,-0.00831 0.309406,0 0.107187,0.010033 0.316103,0.060151 0.316103,0.060151 v 0 c 0,0 0.193221,0.067574 0.283957,0.1139023 l 0.01206,0.0064 c 0.0848,0.045 0.241095,0.1548561 0.241095,0.1548561 v 0 c 0,0 0.28848,0.2813772 0.387093,0.4543288 0.05197,0.088705 0.0933,0.1827237 0.123224,0.280276 0.03118,0.098305 0.05894,0.3020329 0.05894,0.3020329 v 0 c 0,0 0.0093,0.1964395 0,0.294354 -0.0091,0.1024985 -0.0298,0.2037594 -0.06161,0.302033 v 0.012797 c -0.03036,0.088417 -0.06892,0.1740756 -0.115193,0.2559598 -0.04841,0.085489 -0.104425,0.1668428 -0.167427,0.2431621 l -0.01341,0.014077 c -0.130454,0.1461729 -0.288016,0.2680891 -0.464777,0.3596235 -0.09368,0.048906 -0.19244,0.088366 -0.294672,0.1177414 -0.102767,0.028461 -0.208183,0.047321 -0.314764,0.056311 -0.104741,0.00831 -0.210023,0.00831 -0.314764,0 -0.107211,-0.00988 -0.316104,-0.060151 -0.316104,-0.060151 v 0 c 0,0 -0.192232,-0.067804 -0.282617,-0.1139017 C 9.972858,9.5059317 9.8077719,9.3915281 9.8077719,9.3915281 v 0 c 0,0 -0.1497631,-0.1320111 -0.2143076,-0.2073278 C 9.5279974,9.1073283 9.4697314,9.0251044 9.4193398,8.9384789 9.3684928,8.8489691 9.327639,8.7545983 9.2974526,8.6569229 9.2662608,8.5586183 9.2385181,8.3548903 9.2385181,8.3548903 v 0 c 0,0 -0.00935,-0.1964398 0,-0.294354 0.00913,-0.1024984 0.061613,-0.3020329 0.061613,-0.3020329 v 0 c 0,0 0.070475,-0.1847327 0.1192082,-0.2713174 l 0.0067,-0.011517 C 9.4723754,7.3937899 9.5266357,7.3162367 9.5881081,7.2440254 l 0.010716,-0.012797 C 9.6616777,7.1596515 9.7316558,7.094074 9.8077736,7.035419 9.8882548,6.9732765 9.9743105,6.9180316 10.064942,6.8703247 c 0.09318,-0.048985 0.191498,-0.08845 0.293334,-0.1177414 0.103249,-0.028347 0.209098,-0.047204 0.316103,-0.056311 z m 0.267884,0.3928986 c 2e-6,-0.065945 -0.238417,0 -0.238417,0 v 0 c 0,0 -0.156102,0.019959 -0.23172,0.040953 -0.07389,0.020939 -0.145277,0.049249 -0.212968,0.084467 -0.06932,0.037233 -0.135191,0.080049 -0.196895,0.12798 -0.055,0.042691 -0.1526935,0.1407781 -0.1526935,0.1407781 v 0 c 0,0 -0.085698,0.1119432 -0.1205479,0.1727732 v 0.010237 c -0.03588,0.065122 -0.065469,0.1332327 -0.088402,0.2034885 -0.027845,0.07378 -0.047598,0.1501246 -0.058934,0.2278043 -0.0067,0.0758 0,0.2278043 0,0.2278043 v 0 c 0,0 0.021259,0.1501617 0.044201,0.2226851 0.021717,0.072094 0.051819,0.1416369 0.089741,0.2073278 0.038491,0.066114 0.083333,0.1286669 0.1339422,0.1868505 0.047157,0.05613 0.1001072,0.1075815 0.1580512,0.153576 0.05915,0.044926 0.12235,0.084755 0.188859,0.1190215 0.06873,0.034397 0.140432,0.063084 0.214307,0.085747 0.07533,0.022619 0.153038,0.037211 0.23172,0.043513 0.08064,0.00704 0.161791,0.00704 0.242435,0 0.0789,-0.00635 0.156957,-0.02007 0.233059,-0.040953 0.0712,-0.021264 0.139884,-0.049572 0.204931,-0.084467 0.06962,-0.036774 0.135529,-0.079616 0.196895,-0.12798 0.05511,-0.043504 0.152694,-0.1433374 0.152694,-0.1433374 v 0 c 0,0 0.09534,-0.1190436 0.133943,-0.1842911 0.03416,-0.062636 0.06326,-0.1276672 0.08706,-0.1945298 v -0.00768 c 0.02327,-0.072571 0.03896,-0.1471622 0.04688,-0.2226851 0.0067,-0.0758 0,-0.2278043 0,-0.2278043 v 0 c 0,0 -0.02128,-0.1501617 -0.0442,-0.2226852 -0.0218,-0.070637 -0.05145,-0.1388519 -0.0884,-0.2034883 -0.03818,-0.066302 -0.08304,-0.1288825 -0.133943,-0.1868506 -0.04716,-0.05613 -0.100108,-0.1075814 -0.158052,-0.153576 -0.05598,-0.04262 -0.115561,-0.080718 -0.178143,-0.1139023 h -0.01072 c -0.0687,-0.034459 -0.140407,-0.063151 -0.214307,-0.085748 -0.07491,-0.022465 -0.15216,-0.037056 -0.230381,-0.043513 z M 6.5958522,15.624154 c 0.4251644,-0.0011 0.6391463,0.489677 0.3389685,0.777301 -0.3001778,0.287625 -0.8144609,0.08455 -0.8144626,-0.321692 -1.3e-6,-0.251127 0.2126695,-0.454904 0.4754941,-0.455609 z"
           id="path1445"
           sodipodi:nodetypes="ccccccccccccccccccccccccccccccccsssccccccccccsscccscccccccccccccccccccccccsccccccccccccccsccccccccccccssccccccssccccccccsscccccccccccccsscccccsscccccsscccccsscccccsscccscccccccccccccccccccccccccccccccccccccccccccccccccccccccccccccccccccccccccccccccccccccccccccccccccccccccccccccccccccccccccccccccssccccsccccccccccccccccsccccccccccccccccccccccccccccccccccssccccccccccssccccscccccccccccccccccscccccccccccssccccccccccccccssccssccssccccccccccsscsscccsscssccccccccccsscccssccccsscccccccccccssccccsscccccccccsssss"
           style="fill:#ffffff;fill-rule:evenodd;stroke-width:0.75" />
      </g>
    </g>
  </g>
</svg>
