<?xml version="1.0" encoding="UTF-8" standalone="no"?>
<!-- Generator: Gravit.io -->

<svg
   style="isolation:isolate"
   viewBox="0 0 24 24"
   width="24pt"
   height="24pt"
   version="1.1"
   id="svg152"
   sodipodi:docname="adidas_cluster_24px.svg"
   xmlns:inkscape="http://www.inkscape.org/namespaces/inkscape"
   xmlns:sodipodi="http://sodipodi.sourceforge.net/DTD/sodipodi-0.dtd"
   xmlns="http://www.w3.org/2000/svg"
   xmlns:svg="http://www.w3.org/2000/svg">
  <sodipodi:namedview
     id="namedview154"
     pagecolor="#505050"
     bordercolor="#eeeeee"
     borderopacity="1"
     inkscape:showpageshadow="0"
     inkscape:pageopacity="0"
     inkscape:pagecheckerboard="0"
     inkscape:deskcolor="#505050"
     inkscape:document-units="pt"
     showgrid="false" />
  <defs
     id="defs82">
    <clipPath
       id="_clipPath_Vg4kvHloNRXZ6Kny1J4sUuzgKwjzTsxP">
      <rect
         width="24"
         height="24"
         id="rect79"
         x="0"
         y="0" />
    </clipPath>
  </defs>
  <g
     clip-path="url(#_clipPath_Vg4kvHloNRXZ6Kny1J4sUuzgKwjzTsxP)"
     id="g150">
    <clipPath
       id="_clipPath_tG5fFOqLiFUkLeERMNlEk5f5RaK7WXTP">
      <rect
         x="0.5"
         y="0"
         width="24"
         height="24"
         fill="#ffffff"
         id="rect84" />
    </clipPath>
    <g
       clip-path="url(#_clipPath_tG5fFOqLiFUkLeERMNlEk5f5RaK7WXTP)"
       id="g148">
      <g
         id="g146">
        <clipPath
           id="_clipPath_8saGcgeap1SSC3gkUSZXWAvZv2NHQOJn">
          <rect
             x="0.5"
             y="-2"
             width="23"
             height="28"
             fill="#ffffff"
             id="rect87" />
        </clipPath>
        <g
           clip-path="url(#_clipPath_8saGcgeap1SSC3gkUSZXWAvZv2NHQOJn)"
           id="g96">
          <g
             id="g94">
            <g
               id="g92">
              <ellipse
                 vector-effect="non-scaling-stroke"
                 cx="12"
                 cy="12"
                 rx="11.474501"
                 ry="11.454545"
                 fill="rgb(0,0,0)"
                 id="ellipse90"
                 style="fill:#800080" />
            </g>
          </g>
        </g>
        <clipPath
           id="_clipPath_VFPwfpoqOMj2oTRhtOqCAGCHQZDu88oN">
          <rect
             x="0.5"
             y="-2"
             width="23"
             height="28"
             fill="#ffffff"
             id="rect98" />
        </clipPath>
        <rect
           x="0.5"
           y="-2"
           width="23"
           height="28"
           fill="none"
           id="rect144" />
        <g
           id="g490"
           transform="matrix(0.18269257,0,0,0.19649443,15.564209,-0.788614)">
          <g
             id="g576">
            <path
               d="m 6.0914698,24.301807 c 0.6311784,-0.659031 1.6880364,-0.701549 2.3705889,-0.09213 0.6825537,0.609426 0.7265899,1.629861 0.095413,2.288892 l -13.7391406,14.356951 -0.022021,0.02834 c -1.680696,1.96292 -2.8329643,3.777026 -3.3467137,5.435233 -0.4550363,1.466875 -0.3889826,2.799109 0.2862319,3.96127 0.3596248,0.623599 -0.2348579,1.892056 -0.2348579,1.892056 v 0 l -6.5246224,6.817072 c -0.638518,-0.673203 -1.144928,-1.218853 -1.482535,-1.57317 -0.154125,-0.198418 -0.330269,-0.38975 -0.51375,-0.573994 l -0.01468,0.01418 c -0.08807,-0.09213 -0.183482,-0.177158 -0.278893,-0.262195 l 5.577856,-5.832068 c -0.653196,-1.686552 -0.645857,-3.479399 -0.04404,-5.385628 0.645858,-2.069215 2.018303,-4.273071 3.9925714,-6.56905 0.04403,-0.0567 0.080732,-0.113379 0.132106,-0.162985 L 6.0767803,24.287632 Z M -23.419792,62.759444 c -0.6165,-0.666118 -0.557785,-1.693638 0.132107,-2.288892 0.689893,-0.595254 1.754089,-0.538563 2.370589,0.127554 6.906267,7.469016 28.2562443,29.571352 34.171708,37.834033 C 21.056271,109.0971 8.9758094,112.45603 4.9685594,108.57271 -5.042224,99.225818 -26.296791,75.394411 -35.6397,65.289272 c -3.361392,1.374752 -6.627374,1.587343 -9.908033,0.680289 -3.530195,-0.97083 -6.986999,-3.245549 -10.495176,-6.739121 l -0.04404,-0.04252 c -2.671499,-2.721159 -4.763195,-5.406887 -6.275087,-8.064269 -1.54859,-2.735332 -2.495357,-5.44232 -2.832964,-8.128047 -0.359625,-2.891233 -0.08073,-5.584046 0.726589,-7.972147 0.946768,-2.806196 2.627464,-5.180125 4.829249,-6.944626 2.216464,-1.771589 4.939338,-2.919577 7.977803,-3.273895 2.524713,-0.290541 5.276944,-0.04252 8.124586,0.857449 3.941196,1.240111 8.535587,4.322674 12.344676,8.27686 2.810946,2.91249 5.218232,6.321027 6.649392,9.828771 1.489874,3.656558 1.94491,7.440671 0.748607,10.983847 -0.704571,2.097561 -1.981608,4.067566 -3.963214,5.846241 -0.682554,0.609427 -1.73941,0.566908 -2.370589,-0.08504 -0.631178,-0.659031 -0.587142,-1.679465 0.08807,-2.288891 1.53391,-1.381839 2.517374,-2.891232 3.053142,-4.485661 0.92475,-2.742419 0.535768,-5.782464 -0.682554,-8.772905 -1.277035,-3.132168 -3.442124,-6.193473 -5.981516,-8.822509 -3.434784,-3.55735 -7.508088,-6.313941 -10.942873,-7.398153 -2.35591,-0.73698 -4.609069,-0.949572 -6.671409,-0.708635 -2.392606,0.283453 -4.535677,1.169247 -6.24573,2.551086 -1.717393,1.381839 -3.031124,3.24555 -3.78707,5.463578 -0.653198,1.934575 -0.880715,4.15969 -0.579805,6.561964 0.286233,2.267633 1.100893,4.58487 2.436643,6.951711 1.401803,2.43062 3.324696,4.889585 5.798034,7.405239 l 0.01468,0.02125 c 3.097178,3.082563 6.069587,5.066742 9.01264,5.874586 2.781589,0.765326 5.614552,0.467699 8.572284,-0.956657 0.675214,-0.375577 1.548589,-0.248023 2.084356,0.333059 9.115392,9.857115 31.2873692,34.666436 41.1073321,43.857424 4.2641239,1.67947 6.6273729,-0.38974 4.5870519,-4.03922 C 8.5574664,96.362915 -18.744671,67.833266 -23.419796,62.759437 Z m -8.851176,14.250661 -21.401352,22.357434 c -0.04403,0.04253 -0.08073,0.08506 -0.132108,0.127557 -3.126535,3.259714 2.407285,8.007584 5.84207,4.832884 l 20.784852,-21.719662 2.231143,2.444798 -20.623389,21.549594 v 0 c 0,0 -0.08807,0.0922 -0.146785,0.14173 -1.233,0.99917 -2.473339,1.65112 -3.728356,1.92039 -1.291714,0.28346 -2.56141,0.1559 -3.779732,-0.39683 -0.2055,-0.078 -0.39632,-0.17716 -0.565124,-0.32597 l -2.957731,-2.64322 v 0 c 0,0 -0.08807,-0.078 -0.132108,-0.12755 -1.144928,-1.27554 -1.688035,-2.63612 -1.541249,-4.07465 0.139446,-1.360579 0.888053,-2.685724 2.304535,-3.961275 L -34.509451,74.558221 Z M -9.8421163,64.4956 -8.5724204,63.170453 c 0.6313402,-0.658913 1.6953756,-0.70155 2.3705889,-0.09213 0.6752146,0.609426 0.7265899,1.62986 0.095413,2.288891 L -7.5742756,66.89787 Z M 11.309701,29.042577 c 0.631179,-0.659031 1.688035,-0.701549 2.370589,-0.09213 0.682554,0.609428 0.726589,1.629862 0.09541,2.288893 L 1.7319379,43.831793 c -0.6306699,0.659402 -1.68803521,0.701548 -2.37058893,0.09213 -0.68255377,-0.609426 -0.72658987,-1.629861 -0.0954127,-2.288892 z m 5.210893,4.655734 c 0.631178,-0.659031 1.688035,-0.701549 2.370589,-0.09213 0.682552,0.609428 0.726588,1.629862 0.09541,2.288893 L 6.9501694,48.480441 C 6.3195168,49.139855 5.2621342,49.181989 4.5795805,48.572567 3.8970267,47.96314 3.8529906,46.942705 4.4841678,46.283674 Z m 5.401712,4.839979 c 0.86101,0.416002 1.688036,-0.701549 2.370589,-0.09213 0.682554,0.609426 0.726589,1.636948 0.09541,2.288891 L 10.649166,55.099096 c -0.05137,0.04961 -0.102753,0.09213 -0.154126,0.141727 -3.1265339,2.905405 -6.1136229,4.58487 -8.9686046,5.059656 -3.0971776,0.517304 -5.937481,-0.333059 -8.5429266,-2.529828 -0.697232,-0.588167 -0.7632856,-1.615688 -0.1614651,-2.281805 0.6091609,-0.673204 1.6733569,-0.736981 2.3632498,-0.1559 1.7981249,1.51648 3.7210168,2.111734 5.75399838,1.764502 C 3.1263995,56.736044 5.5336841,55.340032 8.1611484,52.89524 L 8.1758294,52.88106 21.907631,38.531196 Z"
               id="path488"
               sodipodi:nodetypes="cscccccscccccccccccccscccccccccccccccccccccccccccccccccccccccccccscccccscccccccscccccccsccccccscccsccccccccccccs"
               style="fill:#ffffff" />
          </g>
        </g>
      </g>
    </g>
  </g>
</svg>
