<?xml version="1.0" standalone="no"?><!-- Generator: Gravit.io --><svg xmlns="http://www.w3.org/2000/svg" xmlns:xlink="http://www.w3.org/1999/xlink" style="isolation:isolate" viewBox="0 0 400 520" width="400" height="520"><defs><clipPath id="_clipPath_0WQxculItO0dDFfucSMwnsE5BpIzOhJ8"><rect width="400" height="520"/></clipPath></defs><g clip-path="url(#_clipPath_0WQxculItO0dDFfucSMwnsE5BpIzOhJ8)"><g><defs><filter id="z50KQDkU86oDZRL9edggdv7Z9awwCCZl" x="-200%" y="-200%" width="400%" height="400%" filterUnits="objectBoundingBox" color-interpolation-filters="sRGB"><feGaussianBlur xmlns="http://www.w3.org/2000/svg" stdDeviation="4.293609062839028"/></filter></defs><g filter="url(#z50KQDkU86oDZRL9edggdv7Z9awwCCZl)"><ellipse vector-effect="non-scaling-stroke" cx="198.91361582044095" cy="490" rx="65" ry="20.166666666666686" fill="rgb(162,162,162)" fill-opacity="0.7"/></g><defs><filter id="MrwHZJenkYnfNd2jbdAIuEXt0Hd8XPso" x="-200%" y="-200%" width="400%" height="400%" filterUnits="objectBoundingBox" color-interpolation-filters="sRGB"><feGaussianBlur xmlns="http://www.w3.org/2000/svg" stdDeviation="0.42936090628390283"/></filter></defs><g filter="url(#MrwHZJenkYnfNd2jbdAIuEXt0Hd8XPso)"><path d=" M 18.914 183.931 C 18.914 83.382 99.774 2 199.384 2 C 299.14 2 380 83.382 380 183.931 C 380 237.891 356.562 286.544 319.355 319.863 C 317.304 321.633 246.405 388.124 198.944 490 C 181.073 417.906 111.785 348.613 79.998 320.306 C 42.498 286.839 18.914 238.186 18.914 183.931 Z  M 311.005 183.931" fill="rgb(175,59,110)" vector-effect="non-scaling-stroke" stroke-width="2" stroke="rgb(255,255,255)" stroke-linejoin="miter" stroke-linecap="butt" stroke-miterlimit="4"/></g></g><g><path d=" M 261.957 86.25 L 261.957 107.083 L 241.123 107.083 L 241.123 86.25 L 157.79 86.25 L 157.79 107.083 L 136.957 107.083 L 136.957 86.25 L 116.123 86.25 L 116.123 273.75 L 136.957 273.75 L 136.957 252.917 L 157.79 252.917 L 157.79 273.75 L 241.123 273.75 L 241.123 252.917 L 261.957 252.917 L 261.957 273.75 L 282.79 273.75 L 282.79 86.25 L 261.957 86.25 Z  M 157.79 232.083 L 136.957 232.083 L 136.957 211.25 L 157.79 211.25 L 157.79 232.083 Z  M 157.79 190.417 L 136.957 190.417 L 136.957 169.583 L 157.79 169.583 L 157.79 190.417 Z  M 157.79 148.75 L 136.957 148.75 L 136.957 127.917 L 157.79 127.917 L 157.79 148.75 Z  M 261.957 232.083 L 241.123 232.083 L 241.123 211.25 L 261.957 211.25 L 261.957 232.083 Z  M 261.957 190.417 L 241.123 190.417 L 241.123 169.583 L 261.957 169.583 L 261.957 190.417 Z  M 261.957 148.75 L 241.123 148.75 L 241.123 127.917 L 261.957 127.917 L 261.957 148.75 Z " fill="rgb(241,241,225)"/><path d=" M 74.457 55 L 324.457 55 L 324.457 305 L 74.457 305 L 74.457 55 Z " fill="none"/></g></g></svg>