<?xml version="1.0" standalone="no"?><!-- Generator: Gravit.io --><svg xmlns="http://www.w3.org/2000/svg" xmlns:xlink="http://www.w3.org/1999/xlink" style="isolation:isolate" viewBox="0 0 400 500" width="400" height="500"><defs><clipPath id="_clipPath_l5881p7OFjV3oaY0iXxXiVT3U4Z3jGDO"><rect width="400" height="500"/></clipPath></defs><g clip-path="url(#_clipPath_l5881p7OFjV3oaY0iXxXiVT3U4Z3jGDO)"><defs><filter id="VGRP9mhpifgkNnIdLCgWhK8jTXJwYsIa" x="-200%" y="-200%" width="400%" height="400%" filterUnits="objectBoundingBox" color-interpolation-filters="sRGB"><feGaussianBlur xmlns="http://www.w3.org/2000/svg" stdDeviation="4.293609062839028"/></filter></defs><g filter="url(#VGRP9mhpifgkNnIdLCgWhK8jTXJwYsIa)"><ellipse vector-effect="non-scaling-stroke" cx="200" cy="484" rx="60" ry="14" fill="rgb(162,162,162)" fill-opacity="0.7"/></g><g><defs><filter id="pSozlRpIg4PLXP2WSAGex7oriH2g3ZO5" x="-200%" y="-200%" width="400%" height="400%" filterUnits="objectBoundingBox" color-interpolation-filters="sRGB"><feGaussianBlur xmlns="http://www.w3.org/2000/svg" stdDeviation="0.42936090628390283"/></filter></defs><g filter="url(#pSozlRpIg4PLXP2WSAGex7oriH2g3ZO5)"><path d=" M 20 184.677 C 20 83.716 101.716 2 202.381 2 C 303.193 2 384.909 83.716 384.909 184.677 C 384.909 238.858 361.224 287.71 323.622 321.166 C 321.55 322.943 249.9 389.707 201.937 492 C 183.876 419.61 113.855 350.033 81.731 321.61 C 43.834 288.006 20 239.154 20 184.677 Z  M 315.184 184.677" fill="rgb(83,153,135)" vector-effect="non-scaling-stroke" stroke-width="2" stroke="rgb(255,255,255)" stroke-linejoin="miter" stroke-linecap="butt" stroke-miterlimit="4"/></g></g><g><path d=" M 63.246 43.246 L 340 43.246 L 340 320 L 63.246 320 L 63.246 43.246 Z " fill="none"/><path d=" M 282.343 77.84 L 120.903 77.84 C 108.219 77.84 97.956 88.219 97.956 100.903 L 97.84 262.343 C 97.84 275.027 108.219 285.406 120.903 285.406 L 282.343 285.406 C 295.027 285.406 305.406 275.027 305.406 262.343 L 305.406 100.903 C 305.406 88.219 295.027 77.84 282.343 77.84 Z  M 270.812 204.686 L 224.686 204.686 L 224.686 250.812 L 178.56 250.812 L 178.56 204.686 L 132.435 204.686 L 132.435 158.56 L 178.56 158.56 L 178.56 112.435 L 224.686 112.435 L 224.686 158.56 L 270.812 158.56 L 270.812 204.686 Z " fill="rgb(241,241,225)"/></g></g></svg>