<?xml version="1.0" encoding="UTF-8" standalone="no"?><!-- Generator: Gravit.io --><svg xmlns="http://www.w3.org/2000/svg" xmlns:xlink="http://www.w3.org/1999/xlink" style="isolation:isolate" viewBox="0 0 24 24" width="24pt" height="24pt"><defs><clipPath id="_clipPath_JCuVnBzpqWahg4JwCfJZT6pZR2CIImpu"><rect width="24" height="24"/></clipPath></defs><g clip-path="url(#_clipPath_JCuVnBzpqWahg4JwCfJZT6pZR2CIImpu)"><clipPath id="_clipPath_JCZRGs1oF9gH3cmVbkJHDUiQg0acNrWO"><rect x="2.98" y="1" width="18.04" height="22" transform="matrix(1,0,0,1,0,0)" fill="rgb(255,255,255)"/></clipPath><g clip-path="url(#_clipPath_JCZRGs1oF9gH3cmVbkJHDUiQg0acNrWO)"><g><path d=" M 18.219 16.551 C 19.896 14.836 21.02 12.588 21.02 10.02 C 21.02 5.042 16.978 1 12 1 C 7.022 1 2.98 5.042 2.98 10.02 C 2.98 12.62 4.007 14.787 5.844 16.61 L 5.844 16.61 L 11.633 23 L 18.23 16.551 L 18.219 16.551 Z " fill="rgb(1,93,77)"/></g></g><path d=" M 12.972 15 L 12.389 14.417 L 14.361 12.444 L 9.056 7.139 L 7.083 9.111 L 6.5 8.528 L 7.278 7.722 L 6.5 6.944 L 7.681 5.764 L 7.097 5.181 L 7.681 4.597 L 8.278 5.167 L 9.444 4 L 10.222 4.778 L 11.028 4 L 11.611 4.583 L 9.639 6.556 L 14.944 11.861 L 16.917 9.889 L 17.5 10.472 L 16.722 11.278 L 17.5 12.056 L 16.306 13.25 L 16.889 13.833 L 16.306 14.417 L 15.722 13.833 L 14.556 15 L 13.778 14.222 L 12.972 15 Z " fill="rgb(255,255,255)"/></g></svg>