<?xml version="1.0" encoding="UTF-8" standalone="no"?>
<svg
   viewBox="0 0 24 24"
   width="24pt"
   height="24pt"
   version="1.1"
   id="svg221"
   sodipodi:docname="action.svg"
   inkscape:version="1.2.2 (732a01da63, 2022-12-09)"
   xmlns:inkscape="http://www.inkscape.org/namespaces/inkscape"
   xmlns:sodipodi="http://sodipodi.sourceforge.net/DTD/sodipodi-0.dtd"
   xmlns="http://www.w3.org/2000/svg"
   xmlns:svg="http://www.w3.org/2000/svg">
  <defs
     id="defs225" />
  <sodipodi:namedview
     id="namedview223"
     pagecolor="#ffffff"
     bordercolor="#000000"
     borderopacity="0.25"
     inkscape:showpageshadow="2"
     inkscape:pageopacity="0.0"
     inkscape:pagecheckerboard="0"
     inkscape:deskcolor="#d1d1d1"
     inkscape:document-units="pt"
     showgrid="false"
     inkscape:zoom="12.3125"
     inkscape:cx="-26.883249"
     inkscape:cy="16.812183"
     inkscape:window-width="1920"
     inkscape:window-height="986"
     inkscape:window-x="-11"
     inkscape:window-y="-11"
     inkscape:window-maximized="1"
     inkscape:current-layer="svg221" />
  <path
     class="st0"
     d="m 6.4980103,8.4888571 c -0.022808,0 -0.048157,0.019494 -0.055764,0.041424 L 5.5044138,11.446983 c -0.00758,0.02193 0.00505,0.04143 0.027882,0.04143 h 0.3269746 c 0.022815,0 0.048156,-0.01949 0.055764,-0.04143 L 6.852867,8.5302804 c 0.00758,-0.02193 -0.00505,-0.041424 -0.027882,-0.041424 z"
     id="path11"
     style="fill:#5bc5f2;stroke-width:0.0248519" />
  <path
     class="st0"
     d="m 5.8161832,8.4888571 c -0.022815,0 -0.048157,0.019494 -0.055764,0.041424 L 4.8225867,11.446983 c -0.00758,0.02193 0.00505,0.04143 0.027882,0.04143 h 0.05323 0.040557 0.040557 0.053231 c 0.022815,0 0.048157,-0.01949 0.055764,-0.04143 L 6.0316398,8.5302804 c 0.00758,-0.02193 -0.00505,-0.041424 -0.027882,-0.041424 z"
     id="path13"
     style="fill:#5bc5f2;stroke-width:0.0248519" />
  <path
     class="st0"
     d="M 5.352335,8.5302806 C 5.359915,8.5083516 5.347285,8.4888566 5.324453,8.4888566 H 5.263622 c -0.027882,0 -0.040557,0.014621 -0.050698,0.041424 L 4.2750913,11.446983 c -0.00758,0.02193 0.00505,0.04143 0.027882,0.04143 h 0.058297 c 0.027882,0 0.040557,-0.01462 0.050698,-0.04143 z"
     id="path15"
     style="fill:#5bc5f2;stroke-width:0.0248519" />
  <path
     class="st1"
     d="m 19.447708,8.4888571 c 0.02282,0 0.03803,0.019494 0.03549,0.04386 l -0.448637,2.9142659 c -0.0025,0.02436 -0.02534,0.04386 -0.04816,0.04386 h -0.377667 c -0.02282,0 -0.0507,-0.01706 -0.06083,-0.03899 l -0.704642,-1.381596 c -0.01014,-0.02193 -0.02282,-0.01949 -0.02534,0.0049 l -0.210379,1.374285 c -0.0025,0.02436 -0.02535,0.04385 -0.04815,0.04385 h -0.595652 c -0.02281,0 -0.03803,-0.01949 -0.03548,-0.04385 l 0.448625,-2.9142925 c 0.0025,-0.024367 0.02535,-0.04386 0.04815,-0.04386 h 0.377666 c 0.02282,0 0.0507,0.017057 0.06083,0.038987 l 0.704642,1.3815945 c 0.01014,0.021928 0.02282,0.019491 0.02535,-0.0049 l 0.210379,-1.3742848 c 0.0025,-0.024367 0.02535,-0.04386 0.04815,-0.04386 z"
     id="path17"
     style="fill:#26358c;stroke-width:0.0248519" />
  <path
     class="st1"
     d="m 13.498806,9.1540698 c -0.0025,0.024364 -0.02534,0.043855 -0.04815,0.043855 h -0.51454 c -0.02282,0 -0.04562,0.019491 -0.04816,0.043856 L 12.54831,11.446974 c -0.0025,0.02436 -0.02534,0.04386 -0.04816,0.04386 h -0.595649 c -0.02282,0 -0.03803,-0.01949 -0.03548,-0.04386 l 0.339647,-2.2051932 c 0.0025,-0.024364 -0.01268,-0.043856 -0.03548,-0.043856 h -0.496797 c -0.02281,0 -0.03803,-0.019491 -0.03549,-0.043855 l 0.09632,-0.6237892 c 0.0025,-0.024367 0.02534,-0.043861 0.04816,-0.043861 h 1.771743 c 0.02282,0 0.03803,0.019494 0.03548,0.043861 z"
     id="path19"
     style="fill:#26358c;stroke-width:0.0248519" />
  <path
     class="st1"
     d="m 13.851127,8.5327171 c 0.0025,-0.024367 0.02534,-0.04386 0.04815,-0.04386 h 0.59565 c 0.02282,0 0.03803,0.019494 0.03548,0.04386 l -0.448639,2.9142659 c -0.0025,0.02436 -0.02534,0.04386 -0.04815,0.04386 h -0.595653 c -0.02281,0 -0.03803,-0.01949 -0.03548,-0.04386 z"
     id="path21"
     style="fill:#26358c;stroke-width:0.0248519" />
  <path
     class="st1"
     d="m 16.634211,8.4888571 h -1.350987 c -0.185032,0 -0.35739,0.141327 -0.385271,0.3167679 l -0.364996,2.366013 c -0.02788,0.17544 0.101389,0.316767 0.286421,0.316767 h 1.350986 c 0.185033,0 0.35739,-0.141327 0.385271,-0.316767 L 16.920632,8.805625 C 16.945976,8.6301841 16.819243,8.4888571 16.634211,8.4888571 m -1.272412,2.4220559 c -0.06083,0 -0.101386,-0.0463 -0.09125,-0.10234 l 0.25347,-1.6374465 c 0.0076,-0.056046 0.06336,-0.1023408 0.124199,-0.1023408 h 0.446103 c 0.06083,0 0.101389,0.0463 0.09125,0.1023408 l -0.253467,1.6374465 c -0.0076,0.05605 -0.06336,0.10234 -0.1242,0.10234 z"
     id="path23"
     style="fill:#26358c;stroke-width:0.0248519" />
  <path
     class="st1"
     d="m 7.1747719,8.805625 -0.8491184,2.641358 c -0.00758,0.02193 0.00505,0.04143 0.027882,0.04143 h 0.5956494 c 0.022815,0 0.048157,-0.01949 0.055764,-0.04143 L 7.291367,10.555159 c 0.00758,-0.02193 0.032948,-0.04143 0.055764,-0.04143 h 0.6767618 c 0.022815,0 0.038015,0.01949 0.035482,0.04385 l -0.1368719,0.889387 c -0.00253,0.02436 0.012683,0.04386 0.03549,0.04386 h 0.5956495 c 0.022808,0 0.045623,-0.01949 0.048156,-0.04386 L 9.0073475,8.8080531 C 9.0352287,8.6326209 8.9059615,8.4912937 8.7209293,8.4912937 H 7.6107372 C 7.4257051,8.4888573 7.2305343,8.6301841 7.1747719,8.805625 M 8.2722895,9.1686901 8.1607631,9.8923828 c -0.00253,0.024364 -0.025349,0.043856 -0.048156,0.043856 H 7.5321643 c -0.022808,0 -0.03549,-0.019491 -0.027882,-0.041427 L 7.7374747,9.1686817 C 7.7552152,9.1126355 7.8185874,9.066341 7.8794163,9.066341 h 0.299091 c 0.060831,0 0.1013886,0.0463 0.093784,0.1023407"
     id="path25"
     style="fill:#26358c;stroke-width:0.0248519" />
  <path
     class="st1"
     d="m 11.075649,11.171638 c -0.02788,0.17544 -0.200239,0.316767 -0.385271,0.316767 H 9.3393919 c -0.1850321,0 -0.3143019,-0.141327 -0.2864207,-0.316767 L 9.4179674,8.805625 C 9.4458498,8.6301841 9.6182064,8.4888571 9.8032385,8.4888571 h 1.3509865 c 0.185032,0 0.314302,0.141327 0.28642,0.3167679 l -0.103922,0.6725221 c -0.0025,0.024364 -0.02534,0.043864 -0.04816,0.043864 h -0.595651 c -0.02282,0 -0.03803,-0.019491 -0.03548,-0.043864 l 0.04815,-0.309457 c 0.0076,-0.056046 -0.03295,-0.1023408 -0.09125,-0.1023408 h -0.446107 c -0.06083,0 -0.11406,0.0463 -0.124199,0.1023408 L 9.7905632,10.806136 c -0.00758,0.05605 0.032948,0.102341 0.091248,0.102341 h 0.4461048 c 0.06083,0 0.114062,-0.0463 0.1242,-0.102341 l 0.04815,-0.309458 c 0.0025,-0.02436 0.02534,-0.04385 0.04815,-0.04385 h 0.59565 c 0.02282,0 0.03803,0.01949 0.03549,0.04385 z"
     id="path27"
     style="fill:#26358c;stroke-width:0.0248519" />
</svg>
