<?xml version="1.0" encoding="UTF-8" standalone="no"?>
<svg
   viewBox="0 0 24 24"
   width="24pt"
   height="24pt"
   version="1.1"
   id="svg4"
   sodipodi:docname="bills.svg"
   xml:space="preserve"
   inkscape:version="1.2.2 (732a01da63, 2022-12-09)"
   xmlns:inkscape="http://www.inkscape.org/namespaces/inkscape"
   xmlns:sodipodi="http://sodipodi.sourceforge.net/DTD/sodipodi-0.dtd"
   xmlns="http://www.w3.org/2000/svg"
   xmlns:svg="http://www.w3.org/2000/svg"><defs
     id="defs8" /><sodipodi:namedview
     id="namedview6"
     pagecolor="#ffffff"
     bordercolor="#000000"
     borderopacity="0.25"
     inkscape:showpageshadow="2"
     inkscape:pageopacity="0.0"
     inkscape:pagecheckerboard="0"
     inkscape:deskcolor="#d1d1d1"
     inkscape:document-units="pt"
     showgrid="false"
     inkscape:zoom="12.5625"
     inkscape:cx="10.467662"
     inkscape:cy="4.8159204"
     inkscape:window-width="1920"
     inkscape:window-height="991"
     inkscape:window-x="-9"
     inkscape:window-y="-9"
     inkscape:window-maximized="1"
     inkscape:current-layer="svg4" /><g
     id="Group_607"
     data-name="Group 607"
     transform="matrix(0.13526875,0,0,0.13526875,2615.9861,-880.26267)"><path
       id="Path_7"
       data-name="Path 7"
       d="m 28.059,59.012 c 0,-0.142 -0.014,-0.242 -0.019,-0.388 0.181,-0.014 0.339,-0.028 0.5,-0.038 a 2.9,2.9 0 0 0 2.945,-2.558 12.354,12.354 0 0 0 0.186,-2.515 V 25.029 A 10.318,10.318 0 0 0 31.48,22.604 4.817,4.817 0 0 0 31.112,21.543 2.7,2.7 0 0 0 28.888,20.108 C 28.635,20.075 28.377,20.056 28.1,20.027 28.086,19.918 28.071,19.819 28.057,19.719 a 0.571,0.571 0 0 1 0.138,-0.052 1.855,1.855 0 0 1 0.229,-0.009 c 5.26,0 10.524,-0.019 15.784,0.028 a 51,51 0 0 1 8.863,0.786 20.044,20.044 0 0 1 5.689,1.819 8.675,8.675 0 0 1 2.611,2 6.774,6.774 0 0 1 1.556,5.215 6.993,6.993 0 0 1 -2.945,5.129 14.576,14.576 0 0 1 -4.682,2.249 31.02,31.02 0 0 1 -5.656,1.108 c -0.692,0.076 -1.389,0.128 -2.081,0.194 a 0.507,0.507 0 0 0 -0.334,0.17 1.412,1.412 0 0 0 0.263,0.085 c 1.313,0.123 2.63,0.208 3.938,0.365 a 25.753,25.753 0 0 1 7.546,1.9 14.542,14.542 0 0 1 2.253,1.26 7.24,7.24 0 0 1 3.331,5.541 8.707,8.707 0 0 1 -4.56,8.815 17.438,17.438 0 0 1 -4.835,1.8 34.313,34.313 0 0 1 -6.438,0.815 c -1.456,0.057 -2.911,0.076 -4.362,0.076 q -7.868,0.014 -15.736,0 C 28.436,59.012 28.26,59.012 28.059,59.012 Z M 39.4,58.6 h 0.525 c 1.2,0 2.4,0 3.594,0 a 21.469,21.469 0 0 0 3.311,-0.2 13.7,13.7 0 0 0 4.57,-1.439 8.73,8.73 0 0 0 4.491,-5.684 12.15,12.15 0 0 0 0.253,-4.656 7.985,7.985 0 0 0 -4.816,-6.631 14.451,14.451 0 0 0 -5.5,-1.265 c -2.043,-0.085 -4.09,-0.062 -6.138,-0.085 -0.086,0 -0.177,0.019 -0.282,0.028 C 39.4,45.3 39.4,51.917 39.4,58.6 Z m 0,-38.539 V 38.2 h 0.472 c 1.031,0 2.062,0 3.093,0 a 24.084,24.084 0 0 0 3.355,-0.2 13.448,13.448 0 0 0 4.248,-1.265 7.871,7.871 0 0 0 4.162,-4.893 11.065,11.065 0 0 0 0.277,-5.224 6.674,6.674 0 0 0 -3.67,-4.93 c -0.282,-0.147 -0.573,-0.279 -0.864,-0.4 A 16.66,16.66 0 0 0 45.756,20.2 60.728,60.728 0 0 0 39.666,20.044 c -0.071,0.002 -0.148,0.012 -0.257,0.021 z"
       transform="translate(-19333.916,6534.791)"
       fill="#3c3834" /><path
       id="Path_8"
       data-name="Path 8"
       d="m 141.442,23.542 q 0,-9.818 0,-19.632 a 4.456,4.456 0 0 0 -0.11,-1.07 1.787,1.787 0 0 0 -2.1,-1.355 1.31,1.31 0 0 0 -1.031,0.8 12.59,12.59 0 0 0 -0.391,1.2 c -0.072,0.227 -0.114,0.469 -0.2,0.692 -0.124,0.308 -0.329,0.379 -0.663,0.275 a 0.454,0.454 0 0 1 -0.358,-0.583 5,5 0 0 1 0.367,-1.009 4.238,4.238 0 0 1 1.279,-1.445 7.053,7.053 0 0 1 3.88,-1.374 7.993,7.993 0 0 1 2.7,0.251 4.758,4.758 0 0 1 3.183,2.681 8.221,8.221 0 0 1 0.702,2.827 c 0.052,0.63 0.072,1.26 0.072,1.895 q 0.007,18.8 0,37.6 a 3.265,3.265 0 0 0 0.219,1.369 1.72,1.72 0 0 0 1.814,1.075 1.332,1.332 0 0 0 1.188,-0.848 10.143,10.143 0 0 0 0.344,-1.255 c 0.053,-0.2 0.062,-0.417 0.115,-0.62 a 1.685,1.685 0 0 1 0.205,-0.5 0.412,0.412 0 0 1 0.754,0.066 1.265,1.265 0 0 1 0.072,0.611 3.435,3.435 0 0 1 -1.026,2.018 6.441,6.441 0 0 1 -3.3,1.8 6.757,6.757 0 0 1 -4.319,-0.317 5.485,5.485 0 0 1 -3.312,-4.334 9.61,9.61 0 0 1 -0.124,-1.615 q -0.014,-9.591 0,-19.182 a 0.1,0.1 0 0 1 0.04,-0.021 z"
       transform="translate(-19390.641,6545.13)"
       fill="#3c3834" /><path
       id="Path_9"
       data-name="Path 9"
       d="m 173.23,41.426 q 0,-9.932 -0.01,-19.859 a 4.172,4.172 0 0 0 -0.172,-1.241 1.792,1.792 0 0 0 -2.229,-1.141 1.242,1.242 0 0 0 -0.826,0.72 11.641,11.641 0 0 0 -0.387,1.151 c -0.076,0.242 -0.115,0.5 -0.205,0.739 a 0.544,0.544 0 0 1 -1.036,-0.322 5.142,5.142 0 0 1 0.482,-1.156 4.973,4.973 0 0 1 2.21,-1.89 7.951,7.951 0 0 1 5.761,-0.417 4.64,4.64 0 0 1 3.074,2.861 9.158,9.158 0 0 1 0.62,2.9 c 0.029,0.45 0.033,0.9 0.033,1.355 v 38.006 a 3.292,3.292 0 0 0 0.258,1.454 1.722,1.722 0 0 0 2.014,1 1.359,1.359 0 0 0 1.026,-0.933 c 0.143,-0.426 0.215,-0.876 0.32,-1.312 a 7.592,7.592 0 0 1 0.2,-0.786 0.473,0.473 0 0 1 0.515,-0.355 0.452,0.452 0 0 1 0.391,0.483 4.26,4.26 0 0 1 -0.172,1.1 3.561,3.561 0 0 1 -1.079,1.539 6.822,6.822 0 0 1 -3.652,1.678 6.6,6.6 0 0 1 -2.84,-0.128 5.5,5.5 0 0 1 -4.176,-4.523 8.894,8.894 0 0 1 -0.158,-1.705 q -0.007,-6.543 0.01,-13.091 v -6.141 c 0.005,0.014 0.014,0.014 0.028,0.014 z"
       transform="translate(-19407.252,6535.843)"
       fill="#3c3834" /><path
       id="Path_10"
       data-name="Path 10"
       d="m 229.766,52.258 c -0.406,-0.256 -0.8,-0.53 -1.222,-0.758 a 9.576,9.576 0 0 0 -3.412,-1.037 10.367,10.367 0 0 0 -4.41,0.327 5.479,5.479 0 0 0 -2.167,1.2 3.027,3.027 0 0 0 -1.031,2.671 2.817,2.817 0 0 0 0.573,1.355 5.914,5.914 0 0 0 1.351,1.269 16.318,16.318 0 0 0 2.768,1.549 c 1.628,0.734 3.269,1.44 4.9,2.174 a 21.838,21.838 0 0 1 3.4,1.809 14.246,14.246 0 0 1 1.809,1.43 5.131,5.131 0 0 1 0.792,6.711 7.594,7.594 0 0 1 -2.425,2.4 14.011,14.011 0 0 1 -4.835,1.895 22.627,22.627 0 0 1 -7.145,0.346 13.946,13.946 0 0 1 -5.355,-1.62 7.991,7.991 0 0 1 -1.909,-1.445 4.536,4.536 0 0 1 -1.36,-2.837 3.243,3.243 0 0 1 1.542,-3.121 3.511,3.511 0 0 1 3.67,-0.208 3.4,3.4 0 0 1 1.933,3.353 3.642,3.642 0 0 1 -2.864,3.183 l -0.487,0.1 c -0.029,0.038 -0.057,0.071 -0.086,0.109 a 2.208,2.208 0 0 1 0.31,0.18 7.109,7.109 0 0 0 2.425,1.3 13.823,13.823 0 0 0 6.959,0.379 6.019,6.019 0 0 0 2.515,-1.1 3.537,3.537 0 0 0 1.47,-2.591 2.971,2.971 0 0 0 -0.568,-2.041 4.963,4.963 0 0 0 -1.484,-1.383 c -0.907,-0.545 -1.823,-1.085 -2.773,-1.539 -1.718,-0.819 -3.489,-1.544 -5.2,-2.368 a 28.833,28.833 0 0 1 -2.954,-1.681 9.474,9.474 0 0 1 -1.594,-1.336 5.274,5.274 0 0 1 -0.191,-7.322 8.388,8.388 0 0 1 2.549,-1.932 15.378,15.378 0 0 1 4.668,-1.435 22.1,22.1 0 0 1 4.257,-0.27 13.84,13.84 0 0 1 5.915,1.426 7.082,7.082 0 0 1 2.4,1.9 3.535,3.535 0 0 1 0.783,2.7 2.974,2.974 0 0 1 -2.716,2.657 3.425,3.425 0 0 1 -3.532,-2.008 3.1,3.1 0 0 1 2.076,-4.144 c 0.2,-0.052 0.406,-0.085 0.611,-0.128 0.015,-0.048 0.03,-0.086 0.044,-0.119 z"
       transform="translate(-19429.068,6518.84)"
       fill="#3c3834" /><path
       id="Path_11"
       data-name="Path 11"
       d="m 116.973,64.223 v 7.4 a 4.418,4.418 0 0 0 0.21,1.6 2.754,2.754 0 0 0 0.477,0.857 1.331,1.331 0 0 0 2.143,-0.147 4.677,4.677 0 0 0 0.468,-1.07 c 0.148,-0.44 0.234,-0.9 0.372,-1.35 a 2.614,2.614 0 0 1 0.277,-0.611 0.5,0.5 0 0 1 0.587,-0.232 0.471,0.471 0 0 1 0.372,0.459 3.931,3.931 0 0 1 -0.119,0.976 4.032,4.032 0 0 1 -1.217,1.876 6.62,6.62 0 0 1 -5.522,1.757 7.164,7.164 0 0 1 -1.546,-0.346 5.922,5.922 0 0 1 -4.1,-4.8 12.081,12.081 0 0 1 -0.172,-2.2 c 0,-4.348 0.043,-8.7 0.053,-13.039 a 9.415,9.415 0 0 0 -0.181,-1.79 3.052,3.052 0 0 0 -0.463,-1.113 1.19,1.19 0 0 0 -2.109,0.114 6.264,6.264 0 0 0 -0.406,1.094 c -0.105,0.313 -0.172,0.639 -0.282,0.952 a 1.816,1.816 0 0 1 -0.253,0.474 0.51,0.51 0 0 1 -0.573,0.18 0.478,0.478 0 0 1 -0.363,-0.464 1.942,1.942 0 0 1 0.22,-1.047 4.566,4.566 0 0 1 1,-1.331 6.8,6.8 0 0 1 5.837,-1.876 9.1,9.1 0 0 1 1.418,0.3 5.009,5.009 0 0 1 3.355,3.178 9.706,9.706 0 0 1 0.52,3.462 c 0.002,2.252 -0.003,4.497 -0.003,6.737 z"
       transform="translate(-19373.939,6518.568)"
       fill="#3c3834" /><path
       id="Path_12"
       data-name="Path 12"
       d="m 111.5,28.058 a 4.36,4.36 0 0 1 4.415,-4.428 4.421,4.421 0 0 1 4.5,4.414 4.49,4.49 0 0 1 -4.51,4.433 4.425,4.425 0 0 1 -4.405,-4.419 z"
       transform="translate(-19377.541,6532.701)"
       fill="#3c3834" /><path
       id="Path_17"
       data-name="Path 17"
       d="m 203.879,40.1 a 4.377,4.377 0 0 0 4.7,-2.392 c -0.282,0.066 -0.477,0.133 -0.682,0.161 a 2.455,2.455 0 0 1 -2.53,-1.715 2.772,2.772 0 0 1 3.031,-3.491 3.259,3.259 0 0 1 2.63,4.362 4.987,4.987 0 0 1 -3.976,3.443 5.932,5.932 0 0 1 -2.749,-0.085 c -0.148,-0.038 -0.3,-0.1 -0.439,-0.147 0.006,-0.041 0.01,-0.088 0.015,-0.136 z"
       transform="translate(-19425.824,6527.956)"
       fill="#3c3834" /></g></svg>
