<?xml version="1.0" encoding="UTF-8" standalone="no"?>
<!-- Created with Inkscape (http://www.inkscape.org/) -->

<svg
   width="20mm"
   height="20.000002mm"
   viewBox="0 0 20 20.000002"
   version="1.1"
   id="svg577"
   xml:space="preserve"
   inkscape:export-filename="pizza_pilgrims.svg"
   inkscape:export-xdpi="96"
   inkscape:export-ydpi="96"
   xmlns:inkscape="http://www.inkscape.org/namespaces/inkscape"
   xmlns:sodipodi="http://sodipodi.sourceforge.net/DTD/sodipodi-0.dtd"
   xmlns="http://www.w3.org/2000/svg"
   xmlns:svg="http://www.w3.org/2000/svg"><sodipodi:namedview
     id="namedview579"
     pagecolor="#ffffff"
     bordercolor="#000000"
     borderopacity="0.25"
     inkscape:showpageshadow="2"
     inkscape:pageopacity="0.0"
     inkscape:pagecheckerboard="0"
     inkscape:deskcolor="#d1d1d1"
     inkscape:document-units="mm"
     showgrid="false" /><defs
     id="defs574" /><g
     inkscape:label="Layer 1"
     inkscape:groupmode="layer"
     id="layer1"><path
       class="st0"
       d="M 1.1829803,8.764197 H 1.1481414 V 8.3397951 h 0.034839 c 0.1235199,0 0.2185351,0.063344 0.2185351,0.212201 0,0.148857 -0.098183,0.2122009 -0.2185351,0.2122009 M 1.2083176,7.8330475 H 0.62872464 V 10.024732 H 1.1481414 V 9.2709446 h 0.063343 c 0.4085656,0 0.70628,-0.3072161 0.70628,-0.7157811 0,-0.4148998 -0.3008817,-0.722116 -0.7094473,-0.722116 M 2.1458015,10.024732 H 2.6652183 V 7.8330475 H 2.1458015 Z M 4.1474563,8.3207921 V 7.8330475 H 2.9439297 V 8.3397951 H 3.5456929 L 2.9280938,9.5116496 V 10.024732 H 4.1696265 V 9.5179843 H 3.5171883 Z m 1.4315632,0 V 7.8330475 H 4.3754929 V 8.3397951 H 4.9772561 L 4.359657,9.5116496 V 10.024732 H 5.6011895 V 9.5179843 H 4.9487516 Z m 0.848803,0.8361342 0.12352,-0.6872772 0.120352,0.6872772 z M 6.2536275,7.8298802 5.7373785,10.024732 h 0.525751 l 0.07918,-0.4117324 h 0.4149 l 0.07601,0.4117324 h 0.541587 L 6.8743945,7.8298802 Z m 2.562245,0.9343168 h -0.03484 V 8.3397951 h 0.03484 c 0.12352,0 0.218535,0.063344 0.218535,0.212201 0.0032,0.148857 -0.09502,0.2122009 -0.218535,0.2122009 m 0.02851,-0.9311495 h -0.582761 v 2.1916845 h 0.519417 V 9.2709446 h 0.06334 c 0.408565,0 0.70628,-0.3072161 0.70628,-0.7157811 0.0032,-0.4148998 -0.297715,-0.722116 -0.70628,-0.722116 M 10.060574,7.1235999 c -0.1615275,0 -0.3008825,0.1393561 -0.3008825,0.3008814 0,0.1615266 0.14569,0.2977153 0.3072175,0.2977153 0.161525,0 0.294546,-0.1361887 0.294546,-0.2977153 0,-0.1615253 -0.139356,-0.3008814 -0.300881,-0.3008814 M 9.8008655,10.024732 H 10.320282 V 7.8330475 H 9.8008645 Z M 11.181754,7.8330475 h -0.519417 v 2.1916845 h 1.064171 V 9.5179843 h -0.544755 z m 1.444231,-0.063344 c -0.389563,0 -0.703113,0.3040488 -0.703113,0.6841098 v 0.95332 c 0,0.380061 0.31355,0.6841097 0.703113,0.6841097 0.386396,0 0.703113,-0.3040487 0.703113,-0.6841097 V 8.8243735 h -0.747454 v 0.5067477 h 0.228037 v 0.072845 c 0,0.10135 -0.08235,0.1805296 -0.180529,0.1805296 -0.104517,0 -0.180529,-0.07918 -0.180529,-0.1805296 V 8.4506461 c 0,-0.1045162 0.07918,-0.1805284 0.180529,-0.1805284 0.101349,0 0.180529,0.082346 0.180529,0.1805284 v 0.1330213 h 0.519417 V 8.4506461 C 13.325926,8.0737524 13.009213,7.7697036 12.625985,7.7697036 m 1.612092,0.9374843 H 14.114558 V 8.3397951 h 0.123519 c 0.09502,0 0.16786,0.063344 0.16786,0.1836958 0.0032,0.1235204 -0.07285,0.183697 -0.16786,0.183697 m 0.68411,-0.2248693 c 0,-0.3705601 -0.224869,-0.6492711 -0.623933,-0.6492711 h -0.703113 v 2.1916845 h 0.519417 V 9.2012672 h 0.107683 c 0.136189,0 0.177363,0.072845 0.177363,0.2185345 v 0.6049303 h 0.519415 V 9.403966 c 0,-0.2533744 -0.107683,-0.3927293 -0.228036,-0.4592406 0.126688,-0.1171857 0.231204,-0.2818784 0.231204,-0.4624068 m 0.281878,1.5424134 h 0.519417 V 7.8330475 h -0.519417 z m 0.259709,-2.9011321 c -0.161526,0 -0.300882,0.1393561 -0.300882,0.3008814 0,0.1615266 0.145691,0.2977153 0.307216,0.2977153 0.161526,0 0.294548,-0.1361887 0.294548,-0.2977153 0,-0.1615253 -0.139356,-0.3008814 -0.300882,-0.3008814 m 1.58042,1.8749673 -0.367392,-1.1655197 H 16.08454 v 2.1916845 h 0.519417 V 8.941558 l 0.285046,1.083174 h 0.310383 l 0.29138,-1.0990096 v 1.0990096 h 0.519417 V 7.8330475 H 17.417921 Z M 19.261217,8.8148714 18.969837,8.5963369 C 18.862153,8.51399 18.836815,8.4379778 18.836815,8.3809686 c 0,-0.085514 0.04434,-0.1425235 0.152025,-0.1425235 0.114018,0 0.158359,0.091849 0.158359,0.2565418 v 0.047507 h 0.468741 v -0.041172 c 0,-0.563758 -0.319884,-0.7316181 -0.639769,-0.7316181 -0.338887,0 -0.661939,0.231204 -0.661939,0.6017629 0,0.2628765 0.07918,0.4687427 0.392729,0.7031129 l 0.243873,0.1773622 c 0.126686,0.091848 0.133021,0.1646927 0.133021,0.2153683 0,0.085513 -0.03801,0.1425223 -0.142522,0.1425223 -0.114019,0 -0.167862,-0.07918 -0.167862,-0.2628754 V 9.315286 H 18.307897 V 9.35646 c 0,0.5542546 0.316717,0.728449 0.655605,0.728449 0.361058,0 0.665107,-0.2407045 0.665107,-0.6334338 0.0032,-0.2058674 -0.05701,-0.399064 -0.367392,-0.6366028"
       id="path592"
       style="stroke-width:0.0316717" /></g><style
     type="text/css"
     id="style590">
	.st0{fill:#00CD00;}
</style></svg>
