<?xml version="1.0" encoding="UTF-8" standalone="no"?>
<svg
   viewBox="0 0 18.040001 21.999998"
   width="18.040001pt"
   height="21.999998pt"
   version="1.1"
   id="svg489"
   sodipodi:docname="pink_master_pin.svg"
   xml:space="preserve"
   inkscape:export-filename="..\brands_2023\restaurants\pizza_pilgrims.svg"
   inkscape:export-xdpi="96"
   inkscape:export-ydpi="96"
   xmlns:inkscape="http://www.inkscape.org/namespaces/inkscape"
   xmlns:sodipodi="http://sodipodi.sourceforge.net/DTD/sodipodi-0.dtd"
   xmlns="http://www.w3.org/2000/svg"
   xmlns:svg="http://www.w3.org/2000/svg"><defs
     id="defs493" /><sodipodi:namedview
     id="namedview491"
     pagecolor="#ffffff"
     bordercolor="#000000"
     borderopacity="0.25"
     inkscape:showpageshadow="2"
     inkscape:pageopacity="0.0"
     inkscape:pagecheckerboard="0"
     inkscape:deskcolor="#d1d1d1"
     inkscape:document-units="pt"
     showgrid="false" /><style
     type="text/css"
     id="style504">
	.st0{fill:#00CD00;}
</style><path
     class="st0"
     d="M 1.3065488,9.061184 H 1.2766944 V 8.6970886 h 0.029855 c 0.1059677,0 0.1874766,0.054339 0.1874766,0.1820471 0,0.1277033 -0.084246,0.1820483 -0.1874766,0.1820483 M 1.3282536,8.26235 H 0.83102378 v 1.880245 H 1.2766338 V 9.495923 h 0.054305 c 0.350512,0 0.6059171,-0.263561 0.6059171,-0.6140693 0,-0.3559435 -0.2581248,-0.6195037 -0.6086366,-0.6195037 m 0.8042719,1.880245 H 2.5780926 V 8.26235 H 2.1324912 Z M 3.8497053,8.680786 V 8.26235 H 2.8172064 V 8.6970886 H 3.3334558 L 2.8036173,9.702424 v 0.440171 H 3.8687248 V 9.707857 H 3.3089973 Z m 1.2281342,0 V 8.26235 H 4.0453407 V 8.6970886 H 4.56159 L 4.0317516,9.702424 v 0.440171 H 5.0968591 V 9.707857 H 4.5371399 Z M 5.8060331,9.398107 5.9120007,8.8084902 6.0152489,9.398107 Z M 5.656587,8.2596329 5.2136965,10.142595 H 5.664737 L 5.732683,9.789371 h 0.3559422 l 0.0652,0.353224 h 0.464621 L 6.189145,8.2596329 Z M 7.85474,9.061184 H 7.82489 V 8.6970886 h 0.02985 c 0.105967,0 0.187476,0.054339 0.187476,0.1820471 C 8.044716,9.006839 7.960716,9.061184 7.85474,9.061184 M 7.87919,8.26235 H 7.379239 v 1.880245 h 0.44561 V 9.495923 h 0.0543 c 0.350511,0 0.605917,-0.263561 0.605917,-0.6140693 C 8.487566,8.5259102 8.22966,8.26235 7.879149,8.26235 M 8.922525,7.6537159 c -0.138575,0 -0.258125,0.1195534 -0.258125,0.2581264 0,0.1385731 0.124988,0.2554087 0.263556,0.2554087 0.138576,0 0.252694,-0.1168356 0.252694,-0.2554087 0,-0.138573 -0.119556,-0.2581264 -0.258125,-0.2581264 M 8.699721,10.142595 H 9.14533 V 8.26235 H 8.699721 Z M 9.884385,8.26235 h -0.44561 v 1.880245 h 0.912951 V 9.707857 H 9.884385 Z m 1.239004,-0.054339 c -0.334203,0 -0.603199,0.2608435 -0.603199,0.5868975 V 9.612762 c 0,0.326052 0.268996,0.586895 0.603199,0.586895 0.331482,0 0.603196,-0.260843 0.603196,-0.586895 V 9.112811 h -0.641236 v 0.43474 h 0.195636 v 0.06249 c 0,0.08694 -0.07068,0.154876 -0.154877,0.154876 -0.08967,0 -0.154876,-0.06794 -0.154876,-0.154876 V 8.7921981 c 0,-0.089664 0.06795,-0.1548757 0.154876,-0.1548757 0.08694,0 0.154877,0.070647 0.154877,0.1548757 v 0.1141206 h 0.4456 V 8.7921946 C 11.723985,8.4688583 11.452168,8.2080149 11.123395,8.2080149 M 12.506406,9.012283 H 12.400437 V 8.6970955 h 0.105969 c 0.0815,0 0.144006,0.054338 0.144006,0.1575928 0.0025,0.1059674 -0.06245,0.1575947 -0.144006,0.1575947 m 0.586897,-0.192917 c 0,-0.3179024 -0.192915,-0.5570092 -0.53527,-0.5570092 h -0.603196 v 1.8802452 h 0.4456 v -0.70645 h 0.0924 c 0.116828,0 0.152158,0.06249 0.152158,0.187482 v 0.518968 h 0.445601 V 9.610048 c 0,-0.217369 -0.09239,-0.336924 -0.195628,-0.393982 0.108679,-0.100537 0.198347,-0.2418253 0.198347,-0.3967 m 0.241825,1.323236 h 0.445606 V 8.2623568 h -0.445609 z m 0.222802,-2.4888793 c -0.138576,0 -0.258126,0.1195535 -0.258126,0.2581265 0,0.1385731 0.124988,0.2554086 0.263556,0.2554086 0.138577,0 0.252695,-0.1168355 0.252695,-0.2554086 0,-0.138573 -0.119557,-0.2581265 -0.258125,-0.2581265 M 14.913776,9.262256 14.598594,8.2623568 h -0.508109 v 1.8802452 h 0.44561 V 9.213348 l 0.244545,0.929254 h 0.266274 l 0.249975,-0.942838 v 0.942838 h 0.445609 V 8.2623568 H 15.234396 Z M 16.815753,9.104665 16.565778,8.9171807 c -0.09239,-0.070646 -0.114117,-0.135854 -0.114117,-0.1847621 0,-0.073359 0.038,-0.1222704 0.130417,-0.1222704 0.09782,0 0.135858,0.078798 0.135858,0.2200864 v 0.040759 h 0.402139 v -0.03532 c 0,-0.4836467 -0.274433,-0.6276536 -0.548857,-0.6276536 -0.290733,0 -0.567878,0.1983497 -0.567878,0.516252 0,0.2255207 0.06795,0.402135 0.336923,0.603202 l 0.209215,0.15216 c 0.108688,0.07879 0.114118,0.14129 0.114118,0.184764 0,0.07336 -0.0326,0.122271 -0.122268,0.122271 -0.09782,0 -0.144006,-0.06794 -0.144006,-0.225522 v -0.02718 h -0.399421 v 0.03533 c 0,0.475494 0.271713,0.624937 0.562446,0.624937 0.309754,0 0.570591,-0.206502 0.570591,-0.543424 0.0025,-0.176611 -0.0489,-0.342357 -0.315185,-0.546141"
     id="path506"
     style="stroke-width:0.0271712"
     inkscape:transform-center-x="176.43507"
     inkscape:transform-center-y="-30.452316" /></svg>
