<?xml version="1.0" encoding="UTF-8" standalone="no"?>
<svg
   viewBox="0 0 18.040001 21.999998"
   width="18.040001pt"
   height="21.999998pt"
   version="1.1"
   id="svg385"
   sodipodi:docname="pink_master_pin.svg"
   xml:space="preserve"
   xmlns:inkscape="http://www.inkscape.org/namespaces/inkscape"
   xmlns:sodipodi="http://sodipodi.sourceforge.net/DTD/sodipodi-0.dtd"
   xmlns="http://www.w3.org/2000/svg"
   xmlns:svg="http://www.w3.org/2000/svg"><defs
     id="defs389" /><sodipodi:namedview
     id="namedview387"
     pagecolor="#ffffff"
     bordercolor="#000000"
     borderopacity="0.25"
     inkscape:showpageshadow="2"
     inkscape:pageopacity="0.0"
     inkscape:pagecheckerboard="0"
     inkscape:deskcolor="#d1d1d1"
     inkscape:document-units="pt"
     showgrid="false" /><g
     id="g422"
     transform="matrix(0.09315464,0,0,0.09315464,-66.828219,-8.5486709)">
	<path
   fill="#010101"
   d="M 735.76212,171.68836 H 724.9068 v 44.89736 h 4.14855 v -20.34698 h 5.96736 c 0.48167,0 11.75468,-0.14441 11.80495,-12.46393 9.1e-4,-11.78118 -10.94672,-12.08462 -11.06554,-12.08645 z m -0.053,20.4 h -6.65285 v -16.30355 h 6.73145 c 0.28516,0.0165 6.9499,0.51 6.9499,7.93151 -0.0996,8.24865 -6.74699,8.37021 -7.0285,8.37204 z"
   id="path410"
   style="stroke-width:0.913978" />
	<path
   fill="#010101"
   d="m 762.10481,171.68836 h -10.8014 v 44.84161 h 4.09645 v -20.29032 h 12.44565 v 20.34699 h 4.14855 v -24.49828 h -1.98425 c 1.12419,-1.5035 2.46683,-4.16317 2.46683,-8.31263 0.0594,-11.83694 -10.26215,-12.08554 -10.37183,-12.08737 z m 6.11452,12.03344 c 0,8.2386 -5.91984,8.3629 -6.16753,8.36656 h -6.65102 v -16.30355 h 6.67295 c 0.25135,0.0155 6.1456,0.51183 6.1456,7.93699 z"
   id="path412"
   style="stroke-width:0.913978" />
	<polygon
   fill="#010101"
   points="92.657,56.681 75.085,56.681 75.085,37.262 92.657,37.262 92.657,32.721 75.144,32.721 75.144,16.582 92.657,16.582 92.657,12.1 70.603,12.1 70.603,61.223 92.657,61.223 "
   id="polygon414"
   transform="matrix(0.91397846,0,0,0.91397846,715.36304,160.62922)" />
	<polygon
   fill="#010101"
   points="160.61,56.681 136.532,56.681 164.187,12.161 131.937,12.161 131.937,16.699 156.015,16.642 128.362,61.223 160.61,61.223 "
   id="polygon416"
   transform="matrix(0.91397846,0,0,0.91397846,715.36304,160.62922)" />
	<polygon
   fill="#010101"
   points="125.813,56.681 101.794,56.681 129.386,12.161 97.198,12.161 97.198,16.699 121.218,16.642 93.628,61.223 125.813,61.223 "
   id="polygon418"
   transform="matrix(0.91397846,0,0,0.91397846,715.36304,160.62922)" />
	<path
   fill="#010101"
   d="m 884.97642,171.68836 c -12.35973,0 -22.41532,10.06016 -22.41532,22.42081 0,12.36064 10.05559,22.41989 22.41532,22.41989 12.36338,0 22.42263,-10.05925 22.42263,-22.41989 0,-12.36065 -10.05925,-22.42081 -22.42263,-22.42081 z m 0,40.74607 c -10.07022,0 -18.26678,-8.19656 -18.26678,-18.27134 0,-10.07296 8.19748,-18.27043 18.26678,-18.27043 10.08027,0 18.27226,8.19565 18.27226,18.27043 0,10.07296 -8.19199,18.27134 -18.27226,18.27134 z"
   id="path420"
   style="stroke-width:0.913978" />
</g></svg>
