<?xml version="1.0" encoding="UTF-8" standalone="no"?>
<!-- Created with Inkscape (http://www.inkscape.org/) -->

<svg
   width="20mm"
   height="20.000002mm"
   viewBox="0 0 20 20.000002"
   version="1.1"
   id="svg377"
   xml:space="preserve"
   xmlns:inkscape="http://www.inkscape.org/namespaces/inkscape"
   xmlns:sodipodi="http://sodipodi.sourceforge.net/DTD/sodipodi-0.dtd"
   xmlns="http://www.w3.org/2000/svg"
   xmlns:svg="http://www.w3.org/2000/svg"><sodipodi:namedview
     id="namedview379"
     pagecolor="#ffffff"
     bordercolor="#000000"
     borderopacity="0.25"
     inkscape:showpageshadow="2"
     inkscape:pageopacity="0.0"
     inkscape:pagecheckerboard="0"
     inkscape:deskcolor="#d1d1d1"
     inkscape:document-units="mm"
     showgrid="false" /><defs
     id="defs374" /><g
     inkscape:label="Layer 1"
     inkscape:groupmode="layer"
     id="layer1"><g
       id="g40"
       transform="matrix(0.25073858,0,0,0.25073858,-64.311433,-72.984197)"><path
         id="path10"
         class="header__logo__svg__path header__logo__svg__path--inner"
         d="m 320.39752,332.24473 c -0.15875,-0.635 -0.42333,-1.24354 -0.52916,-1.905 -0.10584,-0.635 -0.21167,-1.27 -0.42334,-1.87854 -0.1852,-0.52917 -0.42333,-1.24354 -0.97895,-1.48167 -0.3175,-0.13229 -1.05834,0.10583 -1.29646,0.37042 -0.42334,0.44979 -0.39688,1.19062 -0.52917,1.74625 -0.29104,1.32291 -0.52917,2.67229 -0.50271,4.02166 -0.0265,1.29646 0.3175,2.59292 0.44979,3.88938 0.0529,0.50271 0.0265,1.11125 0.37042,1.53458 0.34396,0.42334 0.97896,0.82021 1.50813,0.92604 0.97895,0.18521 2.35479,-0.74083 2.46062,-1.74625 0.0794,-0.60854 0.15875,-1.19062 0.18521,-1.79916 0,-0.60854 -0.0794,-1.24354 -0.15875,-1.85209 -0.10583,-0.60854 -0.39688,-1.21708 -0.55563,-1.82562 z m -35.16312,6.11187 c 0.29104,0.42334 0.84667,0.82021 1.29646,1.03188 0.50271,0.23812 1.05833,0.21167 1.53458,-0.0265 0.39688,-0.18521 0.97896,-0.55562 1.08479,-1.03187 0.26459,-1.27 0.23813,-2.54 0.15875,-3.83646 -0.0529,-0.635 -0.13229,-1.24354 -0.26458,-1.85209 -0.13229,-0.635 -0.39688,-1.21708 -0.60854,-1.79916 -0.21167,-0.58209 -0.44979,-1.19063 -0.55563,-1.79917 -0.10583,-0.58208 -0.37041,-1.21708 -0.74083,-1.66687 -0.34396,-0.42334 -0.66146,-0.37042 -1.08479,-0.1323 -0.58209,0.3175 -0.635,0.7673 -0.79375,1.37584 -0.3175,1.29646 -0.66146,2.69875 -0.635,4.04812 0.13229,1.32292 0.26458,2.64584 0.34396,3.96875 0,0.50271 -0.0529,1.27 0.26458,1.71979 z m 0.635,-12.22375 c 0.21167,-0.0794 0.42333,-0.0794 0.635,-0.21166 0.21167,-0.0529 0.42333,-0.0265 0.60854,-0.10584 0.47625,-0.23812 0.74083,-1.00541 0.68792,-1.48166 -0.10584,-0.29104 -0.44979,-0.44979 -0.76729,-0.58209 -0.29105,-0.15875 -0.635,-0.23812 -0.9525,-0.0529 -0.0794,0.10583 -0.18521,0.18521 -0.29105,0.23812 -0.47625,0.42334 -1.19062,0.50271 -1.5875,1.05834 -0.0794,0.21166 -0.0529,0.42333 -0.0265,0.60854 0.10583,0.21166 0.15875,0.50271 0.3175,0.68791 0.0794,0 0.13229,0.0265 0.21166,0.0529 0.39688,0.0529 0.76729,-0.15875 1.16417,-0.21167 z m 9.18104,5.58271 c -0.26458,0.42334 -0.55562,0.84667 -0.87312,1.27 -0.29105,0.39688 -0.66146,0.74084 -0.87313,1.21709 -0.18521,0.44979 -0.60854,0.79375 -0.87312,1.19062 -0.1323,0.21167 -0.29105,0.37042 -0.4498,0.58208 -0.23812,0.26459 -0.39687,0.60855 -0.58208,0.92605 -0.29104,0.52916 -0.0265,1.03187 0.58208,1.42875 0.37042,0.23812 0.89959,0.0794 1.37584,0.0265 0.21166,-0.0265 0.44979,0 0.71437,-0.0265 0.18521,0 0.37042,-0.0265 0.52917,-0.0265 0.29104,0 0.55562,0.0265 0.82021,0.0529 0.89958,0.0529 1.95791,0.0265 2.75166,0 0.52917,0 1.11125,-0.0265 1.64042,-0.15875 0.50271,-0.10583 0.84667,-0.42333 1.19063,-0.79375 0.29104,-0.3175 0.47625,-0.635 0.60854,-1.11125 0.0529,-0.15875 0,-0.34395 -0.21167,-0.37041 -0.34396,-0.0529 -0.68792,0 -1.05833,-0.0529 -0.0529,0 -0.13229,-0.0265 -0.18521,0 -0.66146,0.0265 -1.37583,0.0794 -2.06375,0.0529 -0.42333,-0.0265 -0.82021,-0.0529 -1.24354,0 -0.13229,-0.0265 -0.29104,0.0529 -0.39688,-0.0265 0.13229,-0.3175 0.44979,-0.50271 0.635,-0.79375 0.68792,-1.03188 1.13771,-2.19604 1.98438,-3.09563 0.23812,-0.26458 0.47625,-0.5027 0.66146,-0.79375 0.1852,-0.26458 0.37041,-0.60854 0.58208,-0.87312 0.21167,-0.29104 0.37042,-0.66146 0.58208,-0.9525 0.21167,-0.29104 0.55563,-0.47625 0.635,-0.84667 0.0529,-0.3175 -0.13229,-0.50271 -0.37041,-0.71437 -0.26459,-0.23813 -0.47625,-0.52917 -0.74084,-0.55563 -0.13229,-0.0265 -0.26458,0.0265 -0.42333,0.0529 -0.39688,0.0265 -0.87313,-0.0265 -1.32292,0.0529 -0.18521,0.0265 -0.37041,0.0794 -0.55562,0.10583 -0.39688,0.0529 -0.84667,-0.15875 -1.19063,-0.10583 -0.50271,-0.10584 -1.03187,-0.21167 -1.61396,-0.18521 -0.635,0.0265 -1.24354,-0.0529 -1.87854,0.0529 -0.37041,0.0529 -0.635,0.18521 -0.92604,0.37042 -0.21167,0.13229 -0.44979,0.21167 -0.60854,0.34396 -0.23813,0.21167 -0.50271,0.55562 -0.635,0.84667 -0.13229,0.29104 -0.26458,0.5027 -0.18521,0.79375 v 0.0529 c 0.0529,0.0794 0.15875,0.0794 0.23813,0.0794 0.26458,0.0265 0.55562,-0.0794 0.84666,-0.0529 0.10584,0 0.26459,0.0265 0.42334,0 0.84666,-0.0529 1.74625,0.0265 2.64583,0 0.37042,-0.0265 0.9525,-0.0529 1.32292,0 -0.18521,0.3175 -0.50271,0.68792 -0.68792,0.9525 -0.29104,0.29104 -0.58208,0.68792 -0.82021,1.08479 z m 21.93396,-7.80521 c -0.37042,0.0265 -0.74083,0.0265 -1.05833,0.1323 -0.0529,0.0794 -0.1323,0.10583 -0.18521,0.15875 -0.23813,0.26458 -0.13229,0.71437 -0.10584,1.05833 0.0794,0.26458 0.0265,0.55562 0.18521,0.79375 0.15875,0.23812 0.42334,0.29104 0.71438,0.26458 0.21166,-0.0529 0.39687,-0.15875 0.60854,-0.18521 0.44979,-0.13229 1.00542,-0.26458 1.48167,-0.39687 0.21166,-0.0529 0.26458,-0.10583 0.39687,-0.34396 0.13229,-0.29104 0.29104,-0.68792 0.23813,-0.97896 -0.52917,-0.66146 -1.53459,-0.52916 -2.27542,-0.50271 z m -9.15458,7.22313 c -0.29105,0.39687 -0.66146,0.76729 -0.89959,1.16417 -0.21166,0.34395 -0.34396,0.76729 -0.66146,1.05833 -0.26458,0.23812 -0.44979,0.50271 -0.66145,0.79375 -0.1323,0.18521 -0.18521,0.39687 -0.3175,0.55562 -0.39688,0.52917 -0.79375,1.05834 -1.19063,1.61396 -0.29104,0.39688 -0.82021,0.87313 -0.47625,1.34938 0.13229,0.18521 0.52917,0.55562 0.76729,0.68791 0.13229,0.0794 0.23813,0.0794 0.44979,0.0794 0.47625,0 1.03188,-0.0265 1.42875,-0.0529 0.60855,-0.0265 1.19063,-0.0794 1.79917,-0.0529 0.18521,0 0.37042,0.0265 0.58208,0 0.60855,-0.0265 1.21709,0.0529 1.74625,0.0265 0.39688,0.0794 0.79375,-0.0794 1.16417,-0.0265 0.47625,-0.1323 1.03188,-0.21167 1.45521,-0.55563 0.23812,-0.18521 0.47625,-0.47625 0.635,-0.74083 0.13229,-0.21167 0.44979,-0.68792 0.37042,-0.92604 -0.0794,-0.21167 -0.42334,-0.18521 -0.58209,-0.18521 -0.39687,0 -0.84666,0 -1.24354,0.0265 -0.44979,0.0265 -0.82021,0.0265 -1.24354,0.0265 -0.71438,-0.0794 -1.45521,0.10584 -2.14313,-0.0529 -0.0264,-0.10584 0.0265,-0.15875 0.0529,-0.23813 0.3175,-0.47625 0.635,-1.16416 1.00542,-1.61396 0.18521,-0.23812 0.37041,-0.42333 0.58208,-0.635 0.13229,-0.13229 0.21167,-0.3175 0.3175,-0.47625 0.10583,-0.1852 0.29104,-0.39687 0.42333,-0.58208 0.23813,-0.29104 0.4498,-0.635 0.66146,-0.92604 0.37042,-0.52917 0.74084,-1.21708 1.13771,-1.74625 0.34396,-0.44979 0.89958,-0.74083 0.82021,-1.32292 0.0529,-0.26458 -0.18521,-0.39687 -0.34396,-0.58208 -0.15875,-0.18521 -0.26458,-0.37042 -0.42333,-0.50271 -0.76729,-0.0529 -1.53459,0.0265 -2.27542,0.0265 -0.3175,0 -0.635,-0.0794 -0.9525,-0.0529 -0.34396,-0.13229 -0.74083,-0.0265 -1.13771,-0.0265 -0.18521,0 -0.34396,-0.0265 -0.50271,-0.0265 -0.3175,0.0265 -0.635,-0.0265 -0.9525,-0.0265 -0.55562,0 -1.27,0.0265 -1.905,0.0794 -0.37041,0.0265 -0.8202,0.42334 -1.08479,0.66146 -0.3175,0.29104 -0.55562,0.66146 -0.68791,1.05833 -0.0529,0.15875 -0.18521,0.4498 -0.0794,0.58209 0.13229,0.21166 0.71438,0.0794 0.92604,0.0529 0.3175,-0.0265 0.635,-0.0265 0.97896,0 0.15875,0.0265 0.3175,-0.0265 0.47625,-0.0265 0.29104,0 0.58208,0.0529 0.82021,0.0794 0.15875,0.0265 0.3175,0 0.44979,0 0.55563,0.0265 1.19063,-0.0265 1.69333,0 0,0.10583 -0.13229,0.23813 -0.1852,0.34396 -0.21167,0.39687 -0.50271,0.74083 -0.79375,1.11125 z m -29.92438,7.32896 c 1.00542,-0.13229 1.905,-0.0794 2.83104,-0.13229 0.44979,-0.0265 0.84667,0 1.27,0.0529 0.21167,0.0265 0.44979,0.0794 0.60854,0.0265 0.23813,-0.0794 0.55563,-0.74083 0.42334,-1.00542 -1.34938,-0.84666 -2.8575,-1.34937 -4.39209,-1.71979 -0.3175,-0.0794 -0.635,-0.0794 -1.03187,-0.15875 -0.3175,-0.0529 -0.79375,-0.0794 -1.11125,-0.0794 -0.15875,0 -0.29104,-0.0265 -0.34396,-0.0529 -0.15875,-0.10583 -0.0265,-0.29104 0.0529,-0.39687 0.58208,-0.87313 1.00541,-1.77271 1.5875,-2.56646 0.47625,-0.68792 1.11125,-1.50813 1.48166,-2.2225 0.42334,-0.87313 0.92605,-1.48167 1.42875,-2.19604 0.23813,-0.34396 0.55563,-0.71438 0.68792,-0.9525 0.26458,-0.47625 0.58208,-0.9525 0.92604,-1.37584 0.18521,-0.23812 0.47625,-0.44979 0.47625,-0.79375 -0.39687,-0.3175 -0.84666,-0.97896 -1.37583,-0.82021 -0.89958,0.23813 -1.74625,0.23813 -2.59292,0.18521 -0.21166,0 -0.39687,-0.0529 -0.60854,-0.0794 -0.21167,-0.0265 -0.39687,-0.0794 -0.60854,-0.10584 -0.47625,-0.10583 -1.00542,-0.1852 -1.48167,-0.29104 -0.89958,-0.21166 -1.87854,-0.21166 -2.77812,-0.10583 -0.89959,0.0794 -2.43417,0.66146 -2.69875,1.53458 -0.13229,0.42334 -0.44979,0.84667 -0.23813,1.32292 1.03188,0.10583 2.06375,0.15875 3.09563,0.13229 0.92604,0.0529 1.74625,-0.13229 2.67229,0.0265 0.34396,0.0529 0.9525,-0.0794 1.27,0.13229 0,0 -1.08479,1.56104 -2.11667,2.72521 -0.68791,0.76729 -1.19062,1.53458 -1.29646,1.74625 -0.52916,0.82021 -1.08479,1.40229 -1.32291,1.66687 -1.03188,1.19063 -2.24896,2.77813 -2.56646,3.20146 -0.34396,0.47625 -0.84667,1.08479 -1.00542,1.50813 -0.13229,0.3175 0.0794,0.76729 0.39688,0.92604 0.13229,0.23812 0.37041,0.39687 0.58208,0.58208 0.79375,0.39688 1.5875,0.42334 2.43417,0.26459 0.21166,-0.0265 0.42333,-0.0794 0.635,-0.10584 1.24354,-0.26458 2.56646,-0.39687 3.75708,-0.71437 0.29104,-0.10584 0.635,-0.13229 0.9525,-0.15875 z"
         inkscape:connector-curvature="0"
         style="fill:#263d4b;fill-opacity:1;stroke-width:0.264583" /><path
         id="path12"
         class="header__logo__svg__path header__logo__svg__path--outer"
         d="m 332.93877,329.36077 c -0.10583,-0.9525 -0.0264,-1.93146 -0.10583,-2.88396 -0.18521,-1.77271 -0.55562,-3.38666 -1.03187,-4.92125 -0.4498,-1.48166 -0.87313,-3.12208 -1.5875,-4.41854 -0.71438,-1.29646 -1.4023,-2.59292 -2.09021,-3.86292 -0.34396,-0.635 -0.68792,-1.32291 -1.11125,-1.87854 -0.21167,-0.29104 -0.50271,-0.50271 -0.71438,-0.79375 -0.21166,-0.29104 -0.37041,-0.635 -0.58208,-0.89958 -0.79375,-1.05833 -1.66688,-2.24896 -2.64583,-3.30729 -1.69334,-1.82563 -3.4925,-3.46604 -5.58271,-4.81542 -0.92604,-0.58208 -1.77271,-1.19062 -2.72521,-1.77271 -0.3175,-0.18521 -0.60854,-0.39687 -0.9525,-0.55562 -0.34396,-0.15875 -0.60854,-0.39688 -0.9525,-0.55563 -1.32292,-0.635 -2.67229,-1.27 -4.18042,-1.77271 -0.74083,-0.23812 -1.45521,-0.5027 -2.19604,-0.79375 -0.34396,-0.13229 -0.74083,-0.29104 -1.11125,-0.39687 -0.39687,-0.10583 -0.84667,-0.13229 -1.27,-0.23813 -0.76729,-0.1852 -1.53458,-0.5027 -2.35479,-0.58208 -1.71979,-0.21167 -3.46604,-0.55562 -5.34458,-0.55562 -0.92605,0 -2.01084,-0.0794 -2.80459,-0.0265 h -0.0794 c -1.95792,0.0794 -3.43959,0.39687 -5.00063,0.79375 -0.26458,0.0529 -0.52916,0.0265 -0.79375,0.0794 -0.37041,0.0794 -0.55562,0.29104 -0.89958,0.34396 -0.3175,0.0529 -0.60854,0 -0.89958,0.0794 -0.97896,0.26458 -1.79917,0.52916 -2.72521,0.79375 -2.46063,0.66145 -4.63021,1.56104 -6.48229,2.80458 -0.47625,0.3175 -0.92605,0.66146 -1.37584,0.9525 -0.47625,0.29104 -0.97896,0.58208 -1.42875,0.89958 -0.23812,0.18521 -0.44979,0.42334 -0.71437,0.635 -0.26459,0.21167 -0.52917,0.39688 -0.79375,0.58209 -1.53459,1.24354 -2.88396,2.56645 -4.28625,3.94229 -1.56104,1.61396 -2.88396,3.54541 -4.23334,5.34458 -0.21166,0.29104 -0.26458,0.60854 -0.42333,0.9525 -0.3175,0.635 -0.76729,1.13771 -1.05833,1.77271 -0.60854,1.29646 -1.34938,2.48708 -1.87854,3.78354 -0.26459,0.635 -0.50271,1.37583 -0.66146,2.16958 -0.3175,1.42875 -0.87313,2.9898 -1.21709,4.445 -0.39687,1.7198 -0.29104,3.25438 -0.39687,5.15938 -0.0529,0.92604 -0.15875,1.79917 -0.15875,2.67229 0,0.87313 0.0529,1.77271 0.0794,2.67229 0.0529,1.74625 0.39688,3.33375 0.74084,4.92125 0.3175,1.53459 0.79375,2.98979 1.27,4.41854 0.44979,1.4023 1.03187,2.80459 1.69333,4.02167 0.47625,0.89958 1.13771,1.79917 1.5875,2.67229 0.15875,0.3175 0.3175,0.635 0.50271,0.89959 0.76729,1.1377 1.48167,2.30187 2.27542,3.38666 0.39687,0.50271 0.89958,0.97896 1.37583,1.45521 0.97896,0.9525 1.87854,1.905 2.88396,2.80458 0.50271,0.4498 1.03187,0.97896 1.53458,1.34938 0.55563,0.39687 1.08479,0.84667 1.64042,1.19062 0.60854,0.37042 1.13771,0.7673 1.69333,1.13771 0.55563,0.39688 1.24354,0.635 1.85208,0.97896 1.905,1.03188 3.83646,1.74625 5.97959,2.56646 1.03187,0.39687 2.19604,0.74083 3.25437,0.97896 0.37042,0.0794 0.74084,0.26458 1.11125,0.34396 1.13771,0.26458 2.24896,0.52916 3.25438,0.66145 1.08479,0.1323 2.2225,0.15875 3.30729,0.18521 1.11125,0.0529 2.24896,0.0794 3.30729,0.0265 0.50271,-0.0265 1.03188,-0.15875 1.53458,-0.18521 0.52917,-0.0265 1.03188,-0.0529 1.53459,-0.15875 1.00541,-0.21166 2.03729,-0.34396 2.96333,-0.58208 0.92604,-0.23813 1.82563,-0.55563 2.72521,-0.79375 0.44979,-0.10583 0.89958,-0.29104 1.34937,-0.34396 0.4498,-0.0529 0.92605,-0.21167 1.34938,-0.34396 0.39687,-0.13229 0.79375,-0.34396 1.19062,-0.55562 0.39688,-0.21167 0.84667,-0.37042 1.21709,-0.55563 0.60854,-0.29104 1.24354,-0.58208 1.77271,-0.87312 0.21166,-0.10584 0.47625,-0.13229 0.66145,-0.23813 0.60855,-0.3175 1.19063,-0.76729 1.77271,-1.13771 0.3175,-0.21166 0.60854,-0.3175 0.89959,-0.55562 l 0.87312,-0.635 c 1.13771,-0.82021 2.16958,-1.74625 3.22792,-2.67229 0.52916,-0.47625 1.13771,-0.82021 1.61396,-1.29646 0.47625,-0.47625 0.92604,-1.00542 1.42875,-1.53458 0.9525,-1.03188 1.87854,-2.09021 2.67229,-3.22792 1.08479,-1.5875 1.98437,-3.28083 2.88396,-5.02708 0.29104,-0.58209 0.66145,-1.16417 0.89958,-1.7198 0.58208,-1.37583 1.11125,-2.83104 1.61396,-4.33916 0.50271,-1.50813 0.89958,-3.175 1.11125,-4.84188 0.23812,-2.64583 0.50271,-5.34458 0.21166,-8.22854 z m -1.61395,5.37104 c -0.0529,0.635 -0.0265,1.27 -0.0794,1.85209 -0.0265,0.29104 -0.15875,0.55562 -0.21167,0.84666 -0.21166,1.24354 -0.39687,2.43417 -0.71437,3.57188 -0.3175,1.08479 -0.635,2.19604 -1.05833,3.22791 -0.3175,0.79375 -0.79375,1.61396 -1.13771,2.48709 -0.635,1.77271 -1.5875,3.20146 -2.54,4.70958 -0.34396,0.55563 -0.74084,1.11125 -1.08479,1.64042 -0.74084,1.11125 -1.64042,2.24896 -2.64584,3.175 -0.29104,0.26458 -0.50271,0.58208 -0.76729,0.87312 -0.74083,0.82021 -1.71979,1.61396 -2.64583,2.30188 -0.3175,0.23812 -0.58209,0.55562 -0.87313,0.76729 -0.18521,0.13229 -0.42333,0.18521 -0.635,0.3175 -0.55562,0.34396 -1.13771,0.82021 -1.71979,1.16417 -0.39687,0.23812 -0.76729,0.5027 -1.16417,0.76729 -0.39687,0.26458 -0.84666,0.42333 -1.24354,0.68791 -0.76729,0.50271 -1.61396,0.9525 -2.48708,1.37584 -0.87313,0.42333 -1.87854,0.84666 -2.77813,1.08479 -0.39687,0.10583 -0.79375,0.13229 -1.21708,0.29104 -0.74083,0.29104 -1.53458,0.50271 -2.32833,0.71438 -0.18521,0.0529 -0.37042,0.15875 -0.55563,0.21166 -0.23812,0.0529 -0.47625,0 -0.71437,0.0529 -0.23813,0.0529 -0.44979,0.23812 -0.71438,0.29104 -0.42333,0.0794 -0.87312,0.10583 -1.32291,0.21167 -0.39688,0.0794 -0.82021,0.21166 -1.21709,0.29104 -0.50271,0.0794 -1.16416,0.0265 -1.77271,0.0529 -1.71979,0 -3.4925,0 -5.13291,-0.21167 -1.03188,-0.10583 -2.01084,-0.3175 -3.01625,-0.44979 -1.37584,-0.15875 -2.75167,-0.71438 -4.10104,-1.05834 -0.47625,-0.10583 -0.92605,-0.23812 -1.37584,-0.37041 -2.59291,-0.76729 -4.92125,-2.06375 -7.11729,-3.33375 -0.58208,-0.3175 -1.11125,-0.58209 -1.69333,-0.92604 -0.66146,-0.39688 -1.24354,-0.82021 -1.85209,-1.32292 -0.39687,-0.34396 -0.79375,-0.74083 -1.21708,-1.08479 -0.84667,-0.68792 -1.85208,-1.29646 -2.54,-2.03729 -0.74083,-0.82021 -1.40229,-1.69334 -2.09021,-2.54 -0.34396,-0.42334 -0.60854,-0.89959 -0.9525,-1.32292 -0.34396,-0.42333 -0.79375,-0.79375 -0.9525,-1.32292 -1.64041,-2.06375 -2.8575,-4.84187 -3.86291,-7.64646 -0.21167,-0.55562 -0.3175,-1.19062 -0.52917,-1.7727 -0.39688,-1.13771 -0.74083,-2.43417 -0.92604,-3.65125 -0.21167,-1.37584 -0.29104,-2.75167 -0.52917,-4.1275 -0.47625,-2.80459 -0.13229,-5.42396 0.3175,-7.96396 0.23813,-1.24354 0.26458,-2.54 0.60854,-3.65125 0.15875,-0.52917 0.37042,-1.05834 0.55563,-1.56104 0.18521,-0.55563 0.26458,-1.13771 0.44979,-1.69334 0.15875,-0.50271 0.37042,-1.03187 0.60854,-1.53458 0.21167,-0.50271 0.37042,-1.05833 0.60854,-1.53458 0.47625,-1.05834 1.27,-2.0373 1.85209,-3.09563 0.21166,-0.37042 0.42333,-0.66146 0.635,-1.00542 0.89958,-1.32291 1.85208,-2.61937 2.77812,-3.81 0.74083,-0.3175 1.00542,-1.1377 1.56104,-1.64041 0.18521,-0.18521 0.44979,-0.26459 0.635,-0.44979 0.52917,-0.52917 1.00542,-1.11125 1.56104,-1.69334 0.71438,-0.74083 1.50813,-1.37583 2.32834,-2.01083 0.60854,-0.55563 1.37583,-0.79375 2.09021,-1.16417 0.34395,-0.18521 0.60854,-0.50271 0.9525,-0.68791 1.37583,-0.74084 2.80458,-1.50813 4.3127,-2.2225 0.37042,-0.18521 0.79375,-0.26459 1.16417,-0.4498 0.76729,-0.34395 1.53458,-0.71437 2.30188,-0.9525 0.84666,-0.29104 1.69333,-0.39687 2.61937,-0.635 1.71979,-0.44979 3.46604,-0.55562 5.47688,-0.55562 1.24354,0 2.7252,-0.18521 3.78354,-0.15875 3.62479,0.0529 6.79979,0.74083 9.65729,1.71979 2.19604,0.76729 4.20687,1.64042 6.11187,2.64583 0.3175,0.15875 0.635,0.3175 0.92605,0.52917 1.37583,0.9525 2.96333,1.905 4.3127,3.01625 1.05834,0.87313 2.2225,1.71979 3.175,2.64583 0.9525,0.9525 1.77271,2.09021 2.64584,3.175 0.66146,0.79375 1.21708,1.66688 1.85208,2.54 0.21167,0.29105 0.47625,0.52917 0.635,0.79375 0.52917,0.82021 1.03188,1.95792 1.48167,3.04271 0.44979,1.08479 1.05833,1.98438 1.45521,3.04271 0.23812,0.60854 0.37041,1.34938 0.60854,2.01083 0.21166,0.60855 0.52916,1.29646 0.635,1.87855 0.29104,1.42875 0.76729,2.77812 0.87312,4.3127 0.0794,1.0848 -0.0265,2.14313 0.0529,3.33375 0.0529,1.37584 -0.0265,2.6723 -0.10583,3.99521 z"
         inkscape:connector-curvature="0"
         style="fill:#263d4b;fill-opacity:1;stroke-width:0.264583" /><path
         id="path14"
         class="header__logo__svg__path header__logo__svg__path--outer"
         d="m 329.55211,326.23869 c -0.0265,-0.37042 -0.15875,-0.76729 -0.18521,-1.13771 -0.0529,-0.39688 -0.15875,-0.76729 -0.23813,-1.13771 -0.1852,-0.74083 -0.34395,-1.48167 -0.55562,-2.16958 -1.03188,-3.51896 -2.67229,-6.40292 -4.445,-9.15459 -0.39688,-0.60854 -0.76729,-1.1377 -1.19063,-1.56104 -0.87312,-0.9525 -1.61395,-1.98437 -2.54,-2.8575 -0.9525,-0.87312 -1.74625,-1.905 -2.77812,-2.67229 -1.03188,-0.74083 -2.11667,-1.48167 -3.22792,-2.19604 -1.11125,-0.71438 -2.16958,-1.48167 -3.33375,-2.11667 -0.58208,-0.3175 -1.24354,-0.55562 -1.87854,-0.82021 -0.635,-0.26458 -1.27,-0.52916 -1.93146,-0.79375 -2.64583,-1.03187 -5.66208,-1.64041 -9.02229,-1.79916 -1.66687,-0.0794 -3.30729,-0.3175 -5.00062,-0.23813 -0.55563,0.0265 -1.19063,0.13229 -1.77271,0.18521 -1.13771,0.13229 -2.16959,0.47625 -3.22792,0.58208 -0.55562,0.0529 -1.05833,0.18521 -1.56104,0.34396 -1.03188,0.3175 -2.06375,0.42334 -2.98979,0.82021 -0.44979,0.18521 -0.87313,0.42333 -1.29646,0.635 -0.21167,0.10583 -0.47625,0.13229 -0.71438,0.23813 -0.21166,0.10583 -0.37041,0.29104 -0.58208,0.39687 -0.42333,0.21167 -0.87312,0.39688 -1.29646,0.58208 -0.42333,0.21167 -0.84666,0.42334 -1.27,0.66146 -1.64041,0.89959 -3.20146,1.905 -4.60375,3.01625 -0.68791,0.55563 -1.34937,1.19063 -2.01083,1.85209 -0.89958,0.9525 -1.77271,2.06375 -2.72521,2.96333 -0.15875,0.13229 -0.3175,0.29104 -0.47625,0.47625 -1.37583,1.5875 -2.51354,3.20146 -3.4925,5.13292 -0.21167,0.39687 -0.42333,0.8202 -0.635,1.27 -0.18521,0.42333 -0.42333,0.89958 -0.58208,1.32291 -0.66146,1.82563 -1.5875,3.59834 -1.95792,5.66209 -0.55562,3.0427 -0.97896,6.90562 -0.82021,10.31875 0.0529,1.1377 0.26459,2.30187 0.39688,3.41312 0.13229,1.11125 0.29104,2.27542 0.58208,3.25438 0.29104,1.00541 0.60854,1.95791 0.89958,2.91041 0.635,1.93146 1.64042,3.4925 2.54,5.08 0.47625,0.82021 0.9525,1.61396 1.48167,2.35479 1.08479,1.48167 2.06375,3.01625 3.33375,4.28625 1.27,1.27 2.48708,2.56646 3.96875,3.70417 2.11667,1.61396 4.57729,3.12208 7.22313,4.20688 1.50812,0.60854 2.83104,1.19062 4.52437,1.53458 0.50271,-0.0529 0.97896,0.15875 1.45521,0.26458 1.11125,0.29104 2.24896,0.44979 3.30729,0.635 0.60854,0.10584 1.21708,0.0794 1.87854,0.10584 1.27,0.0794 2.51354,0.15875 3.81,0.15875 2.59292,0 4.73604,-0.34396 6.95854,-0.9525 1.0848,-0.29105 2.19605,-0.50271 3.14855,-0.87313 1.95791,-0.76729 4.07458,-1.37583 5.52979,-2.43417 0.79375,-0.58208 1.71979,-0.89958 2.48708,-1.48166 0.76729,-0.58209 1.5875,-1.08479 2.24896,-1.77271 0.3175,-0.34396 0.74083,-0.58208 1.05833,-0.89958 0.34396,-0.34396 0.635,-0.71438 0.97896,-1.03188 0.68792,-0.635 1.32292,-1.34937 1.95792,-2.03729 1.21708,-1.34938 2.40771,-2.8575 3.41312,-4.55083 0.47625,-0.82021 1.05834,-1.61396 1.56104,-2.43417 0.68792,-1.13771 1.24355,-2.30188 1.77271,-3.57188 0.66146,-1.64041 1.29646,-3.25437 1.53459,-5.2652 0.0794,-0.74084 0.21166,-1.48167 0.26458,-2.24896 0.0529,-0.82021 0.26458,-1.61396 0.26458,-2.43417 0.0265,-0.87312 0.10584,-1.74625 0.0794,-2.61937 -0.0265,-0.82021 -0.15875,-1.66688 -0.18521,-2.51355 -0.0265,-0.84666 -0.0529,-1.71979 -0.13229,-2.59291 z m -0.82021,6.85271 c -0.0265,0.97895 -0.23813,2.03729 -0.39688,3.06916 -0.13229,1.03188 -0.21166,2.09021 -0.42333,2.98979 -0.47625,1.85209 -1.11125,3.54542 -1.61396,5.13292 -0.66146,1.08479 -1.08479,2.24896 -1.64041,3.33375 -0.26459,0.52917 -0.66146,1.00542 -0.97896,1.53458 -0.15875,0.26459 -0.29104,0.52917 -0.47625,0.79375 -0.18521,0.26459 -0.23813,0.55563 -0.39688,0.82021 -0.13229,0.21167 -0.42333,0.39688 -0.58208,0.635 -0.50271,0.68792 -1.05833,1.34938 -1.56104,2.03729 -1.905,2.51355 -4.65667,4.20688 -7.14375,6.13834 -0.23813,0.18521 -0.50271,0.26458 -0.74084,0.42333 -0.1852,0.13229 -0.29104,0.34396 -0.47625,0.47625 -0.1852,0.13229 -0.39687,0.23813 -0.58208,0.34396 -1.16417,0.68792 -2.61937,1.05833 -3.83646,1.79917 -0.635,0.13229 -1.21708,0.39687 -1.79916,0.58208 -0.66146,0.18521 -1.29646,0.26458 -1.95792,0.42333 -0.97896,0.23813 -1.85208,0.68792 -2.8575,0.87313 -0.23813,0.0529 -0.50271,0 -0.74083,0.0265 -0.21167,0.0264 -0.39688,0.13229 -0.58209,0.15875 -0.76729,0.10583 -1.61396,0.15875 -2.43416,0.1852 -2.48709,0.10584 -4.94771,-0.10583 -7.3025,-0.58208 -0.79375,-0.15875 -1.56105,-0.3175 -2.32834,-0.47625 -1.42875,-0.29104 -2.83104,-0.82021 -4.23333,-1.27 -0.3175,-0.10583 -0.60854,-0.3175 -0.9525,-0.42333 -0.34396,-0.13229 -0.74083,-0.18521 -1.05833,-0.3175 -0.34396,-0.13229 -0.66146,-0.37042 -1.03188,-0.50271 -1.05833,-0.39688 -2.03729,-1.00542 -2.98979,-1.56104 -1.24354,-0.74084 -2.43417,-1.66688 -3.54542,-2.54 -0.52916,-0.42334 -1.00541,-1.00542 -1.53458,-1.53459 -0.50271,-0.5027 -1.03188,-1.05833 -1.45521,-1.56104 -0.92604,-1.16416 -1.98437,-2.16958 -2.77812,-3.25437 -0.4498,-0.60854 -0.87313,-1.42875 -1.29646,-2.11667 -0.13229,-0.23812 -0.34396,-0.44979 -0.47625,-0.66146 -0.10584,-0.21166 -0.13229,-0.42333 -0.23813,-0.635 -0.26458,-0.52916 -0.60854,-0.9525 -0.82021,-1.48166 -0.42333,-1.05834 -0.97895,-2.11667 -1.37583,-3.25438 -0.18521,-0.55562 -0.37042,-1.13771 -0.55562,-1.71979 -0.15875,-0.58208 -0.26459,-1.24354 -0.42334,-1.87854 -0.13229,-0.55563 -0.29104,-1.19063 -0.34396,-1.77271 -0.15875,-1.32292 -0.44979,-2.69875 -0.47625,-4.04813 0,-1.00541 0.0265,-2.0902 0.0794,-3.14854 0.0529,-0.89958 0.23812,-1.74625 0.26458,-2.61937 0.0794,-2.59292 1.03188,-4.81542 1.79917,-6.95854 0.52917,-1.45521 1.11125,-2.8575 1.77271,-4.15396 0.92604,-1.98438 2.16958,-3.67771 3.4925,-5.37104 0.84666,-1.11125 1.79916,-2.06375 2.83104,-3.06917 1.95792,-1.905 4.36562,-3.4925 6.87917,-4.92125 0.47625,-0.26458 0.87312,-0.58208 1.32291,-0.89958 0.92604,-0.66146 2.24896,-1.19063 3.41313,-1.56105 1.11125,-0.37041 2.30187,-0.71437 3.54541,-0.97895 2.46063,-0.55563 5.42396,-0.7673 8.20209,-0.82021 1.08479,-0.0265 2.2225,0.0529 3.33375,0.18521 0.60854,0.0794 1.21708,0.0794 1.79916,0.15875 1.13771,0.15875 2.30188,0.44979 3.33375,0.74083 0.55563,0.15875 1.11125,0.21167 1.64042,0.39687 0.50271,0.15875 1.00542,0.37042 1.48167,0.55563 0.47625,0.15875 0.9525,0.39687 1.40229,0.635 0.44979,0.23812 0.9525,0.39687 1.37583,0.635 0.42334,0.21167 0.82021,0.55562 1.27,0.79375 1.29646,0.68792 2.51354,1.56104 3.73063,2.35479 0.82021,0.52917 1.56104,1.11125 2.32833,1.71979 0.74083,0.60854 1.29646,1.42875 2.11667,1.93146 0.26458,0.58208 0.82021,0.92604 1.27,1.40229 0.42333,0.47625 0.71437,1.03188 1.13771,1.48167 0.84666,0.89958 1.4552,2.09021 2.11666,3.175 0.635,1.05833 1.29646,2.24896 1.79917,3.4925 0.37042,0.92604 0.87312,1.69333 1.19062,2.77812 0.4498,1.53459 0.71438,3.4925 1.03188,5.29167 0.0529,0.23813 0.0265,0.50271 0.0794,0.74083 0.0529,0.21167 0.15875,0.42334 0.18521,0.635 0.21167,1.74625 0.23813,3.51896 0.21167,5.2123 z"
         inkscape:connector-curvature="0"
         style="fill:#263d4b;fill-opacity:1;stroke-width:0.264583" /><path
         id="path16"
         class="header__logo__svg__path header__logo__svg__path--outer"
         d="m 306.16294,348.49015 c 0.42333,-0.29105 0.79375,-0.55563 1.16417,-0.84667 0.13229,-0.10583 0.23812,-0.18521 0.37041,-0.26458 0.10584,-0.0529 0.18521,-0.1323 0.29105,-0.18521 0.68791,-0.52917 1.27,-1.08479 1.87854,-1.79917 0.10583,-0.13229 0.26458,-0.26458 0.39687,-0.37042 0.13229,-0.10583 0.23813,-0.21166 0.34396,-0.3175 0.10583,-0.13229 0.21167,-0.26458 0.29104,-0.39687 0.0794,-0.13229 0.18521,-0.26458 0.29104,-0.37042 0.39688,-0.44979 0.92605,-1.24354 1.13771,-1.56104 0.68792,-1.03187 0.66146,-1.05833 0.60854,-1.13771 -0.0264,-0.0529 -0.0794,-0.0794 -0.87312,-0.0265 -0.0265,0 -0.0529,0.0265 -0.0794,0.0529 0,0.0265 -1.08479,1.50813 -1.53458,2.06375 -0.37042,0.44979 -0.76729,0.84667 -1.19062,1.27 -0.15875,0.15875 -0.29105,0.3175 -0.4498,0.47625 l -0.0264,0.0265 c -0.55563,0.58208 -1.0848,1.13771 -1.66688,1.64042 -0.26458,0.21166 -0.55562,0.42333 -0.84667,0.60854 l -0.10583,0.0794 c -0.15875,0.10584 -0.3175,0.23813 -0.47625,0.37042 -0.15875,0.13229 -0.34396,0.26458 -0.50271,0.37042 -1.27,0.8202 -2.80458,1.4552 -4.81541,2.06375 -0.58209,0.15875 -1.27,0.3175 -1.93146,0.42333 -0.82021,0.13229 -1.905,0.26458 -3.01625,0.26458 -0.52917,0 -1.11125,-0.0794 -1.5875,-0.13229 -0.13229,-0.0265 -0.26459,-0.0265 -0.37042,-0.0529 -0.18521,-0.0265 -0.37042,-0.0265 -0.55562,-0.0529 -0.23813,-0.0265 -0.47625,-0.0265 -0.68792,-0.0794 -2.11667,-0.37041 -3.78354,-0.92604 -5.34458,-1.82562 -0.15875,-0.10584 -0.34396,-0.18521 -0.50271,-0.29104 -0.47625,-0.26459 -0.9525,-0.52917 -1.34938,-0.82021 -0.3175,-0.23813 -0.635,-0.47625 -0.92604,-0.74084 -0.29104,-0.23812 -0.58208,-0.5027 -0.87312,-0.71437 -0.52917,-0.37042 -0.92605,-0.79375 -1.27,-1.16417 -0.0794,-0.10583 -0.18521,-0.18521 -0.29105,-0.29104 -0.23812,-0.26458 -0.5027,-0.50271 -0.68791,-0.79375 -0.39688,-0.60854 -1.13771,-1.74625 -1.50813,-2.27542 l -0.18521,-0.26458 c -0.0265,-0.0265 -0.0529,-0.0529 -0.0794,-0.0529 h -0.82021 c -0.0265,0 -0.0794,0.0265 -0.10583,0.0529 -0.0265,0.0265 -0.0265,0.0794 0,0.10583 0.0529,0.0794 1.05833,1.79917 1.5875,2.54 0.52916,0.71438 1.00541,1.37584 1.61396,1.95792 0.29104,0.29104 0.58208,0.50271 0.87312,0.71438 0.18521,0.13229 0.37042,0.29104 0.58208,0.44979 1.05834,0.89958 1.98438,1.64041 3.175,2.27541 0.635,0.34396 1.27,0.58209 1.95792,0.84667 0.15875,0.0529 0.3175,0.13229 0.47625,0.18521 0.15875,0.0529 0.3175,0.13229 0.47625,0.21167 0.23813,0.10583 0.47625,0.21166 0.74083,0.29104 0.34396,0.10583 0.71438,0.18521 1.05834,0.23812 0.26458,0.0529 0.55562,0.10584 0.82021,0.18521 1.08479,0.29104 2.11666,0.3175 3.20145,0.3175 h 1.42875 c 1.93146,0 3.88938,-0.50271 5.74146,-1.05833 1.27,-0.39688 2.40771,-0.9525 3.54542,-1.77271 0.18521,-0.13229 0.39687,-0.29104 0.60854,-0.42333 z m -12.11792,-36.88292 c -2.27541,0.21167 -3.91583,0.58208 -5.15937,1.19062 -0.15875,-0.0264 -0.26458,0.0265 -0.39688,0.0794 -0.10583,0.0529 -0.1852,0.10583 -0.29104,0.0794 -0.0265,0 -0.0529,0 -0.0529,0.0265 -0.50271,0.29104 -1.00542,0.55563 -1.50813,0.82021 -0.60854,0.3175 -1.19062,0.635 -1.74625,0.97896 -0.13229,0.0794 -0.29104,0.18521 -0.44979,0.26458 -0.21167,0.13229 -0.44979,0.26459 -0.66146,0.39688 -1.98437,1.32291 -3.67771,3.09562 -5.10646,5.42396 -0.0265,0.0264 -0.0265,0.0794 0,0.10583 0.0265,0.0529 0.0265,0.0529 0.55563,0.0794 0.10583,-0.0264 0.39687,-0.0264 0.47625,-0.0264 0.0265,0 0.0529,-0.0265 0.0794,-0.0265 0.29104,-0.34396 0.55563,-0.68792 0.84667,-1.08479 0.34396,-0.4498 0.66146,-0.92605 1.08479,-1.34938 1.61396,-1.64042 3.70417,-3.04271 6.61458,-4.33917 0.18521,-0.0794 0.37042,-0.1852 0.52917,-0.26458 0.34396,-0.15875 0.66146,-0.34396 0.97896,-0.42333 1.50812,-0.47625 3.36021,-0.76729 5.05354,-0.76729 0.15875,0 0.3175,0 0.50271,-0.0265 0.18521,0 0.37042,-0.0265 0.52917,-0.0265 0.26458,0 0.55562,0.0529 0.79375,0.10583 0.0794,0.0265 0.15875,0.0265 0.23812,0.0529 0.15875,0.0265 0.34396,0.0265 0.52917,0.0529 0.15875,0 0.3175,0.0264 0.44979,0.0264 0.71437,0.10584 1.45521,0.29105 2.27542,0.55563 0.10583,0.0265 0.23812,0.0529 0.34395,0.0529 0.10584,0 0.21167,0.0265 0.29105,0.0529 0.42333,0.13229 0.84666,0.3175 1.24354,0.47625 0.50271,0.21167 1.00541,0.42334 1.50812,0.55563 2.67229,1.48166 4.94771,3.43958 6.77334,5.84729 l 0.0265,0.0265 c 0,0 0.0265,0.0265 0.0265,0.0529 0.13229,0.15875 0.29104,0.4498 0.29104,0.4498 0.0265,0.0264 0.0529,0.0529 0.0794,0.0529 h 1.00542 c 0.0529,0 0.0794,-0.0265 0.10583,-0.0529 0.0265,-0.0265 0.0265,-0.0794 0,-0.10584 -0.0529,-0.0794 -1.29646,-1.93146 -1.74625,-2.51354 -0.13229,-0.15875 -0.29104,-0.29104 -0.42333,-0.42333 -0.1323,-0.10584 -0.23813,-0.21167 -0.34396,-0.3175 -0.60854,-0.68792 -1.13771,-1.13771 -1.85209,-1.69334 -1.74625,-1.37583 -3.25437,-2.24895 -4.78895,-2.75166 -0.18521,-0.0529 -0.37042,-0.13229 -0.52917,-0.18521 -0.42333,-0.13229 -0.82021,-0.26458 -1.29646,-0.39688 l -0.21167,-0.0529 c -0.58208,-0.15875 -1.11125,-0.3175 -1.82562,-0.42334 -0.3175,-0.0529 -0.60854,-0.10583 -0.92604,-0.15875 -0.42334,-0.0794 -0.87313,-0.1852 -1.32292,-0.21166 l -0.37042,-0.0265 c -0.76729,-0.13229 -1.56104,-0.21167 -2.2225,-0.15875 z m -14.02291,38.07354 c 0.10583,-0.10583 0.21166,-0.23812 0.3175,-0.34396 0.10583,-0.10583 0.21166,-0.21166 0.29104,-0.34396 0.0529,-0.0794 0.10583,-0.13229 0.0529,-0.23812 -0.10584,-0.21167 -0.0529,-0.26458 -0.23813,-0.42333 l -0.68792,-0.66146 c -0.10583,-0.10584 -0.37041,-0.18521 -0.47625,-0.0794 -0.0529,0.0529 -0.13229,0.10584 -0.1852,0.18521 -0.1323,0.15875 -0.23813,0.34396 -0.39688,0.47625 l -0.15875,0.15875 c -0.21167,0.23813 -0.42333,0.47625 -0.66146,0.74083 -0.37041,0.39688 -0.74083,0.7673 -1.11125,1.16417 -0.13229,0.13229 -0.23812,0.26458 -0.37041,0.39688 -0.0794,0.10583 -0.18521,0.1852 -0.26459,0.29104 -0.18521,0.21166 -0.37041,0.44979 -0.58208,0.66146 -0.0529,0.0529 -0.0794,0.0794 -0.13229,0.10583 -0.15875,0.15875 -0.29104,0.34396 -0.44979,0.50271 -0.15875,0.18521 -0.34396,0.3175 -0.50271,0.50271 -0.0794,0.10583 -0.18521,0.1852 -0.23813,0.26458 -0.0794,0.10583 -0.10583,0.21167 -0.0265,0.34396 0.1323,0.23812 0.37042,0.50271 0.58209,0.68791 0.10583,0.10584 0.26458,0.21167 0.39687,0.29105 0.23813,0.15875 0.42334,0.0529 0.58209,-0.1323 0.0794,-0.0794 0.10583,-0.15875 0.15875,-0.23812 0.15875,-0.18521 0.37041,-0.29104 0.52916,-0.47625 0.15875,-0.15875 0.26459,-0.37042 0.39688,-0.52917 0.15875,-0.15875 0.37041,-0.3175 0.50271,-0.47625 0.0794,-0.0794 0.0794,-0.21166 0.1852,-0.26458 l 0.0265,-0.0265 c 0.15875,-0.13229 0.34396,-0.29104 0.50271,-0.44979 0.26458,-0.29104 0.47625,-0.58208 0.74083,-0.84667 l 0.55563,-0.58208 c 0.26458,-0.23813 0.47625,-0.44979 0.66146,-0.66146 z m 4.78896,3.86292 0.23812,0.15875 c 0.0529,0.0265 0.21167,0.0794 0.3175,0.13229 0.29104,0.15875 0.37042,0.13229 0.52917,-0.15875 0.15875,-0.23813 0.29104,-0.44979 0.42333,-0.68792 0.0794,-0.13229 0.13229,-0.23812 0.15875,-0.39687 0.0529,-0.18521 -0.26458,-0.3175 -0.39687,-0.39688 -0.34396,-0.21166 -0.68792,-0.34396 -1.03188,-0.55562 -0.18521,-0.10584 -0.34396,-0.23813 -0.52917,-0.34396 -0.10583,-0.0794 -0.23812,-0.15875 -0.37041,-0.23813 l -0.23813,-0.15875 c -0.15875,-0.10583 -0.34396,-0.15875 -0.50271,-0.26458 -0.23812,-0.13229 -0.44979,-0.29104 -0.68791,-0.42333 -0.13229,-0.0794 -0.29104,-0.13229 -0.42334,-0.23813 -0.15875,-0.0794 -0.29104,-0.21166 -0.44979,-0.29104 -0.39687,-0.23812 -0.60854,0.13229 -0.76729,0.44979 -0.0529,0.10584 -0.10583,0.21167 -0.15875,0.29104 -0.0794,0.18521 -0.15875,0.34396 -0.23812,0.50271 -0.0529,0.10584 -0.0265,0.23813 0.0794,0.29104 0.0794,0.0529 0.15875,0.0794 0.23813,0.1323 0.26458,0.15875 0.5027,0.34395 0.74083,0.5027 l 0.3175,0.15875 c 0.13229,0.0794 0.13229,0.18521 0.0529,0.29105 l -0.47625,0.87312 -0.3175,0.55563 c -0.0794,0.13229 -0.1323,0.23812 -0.18521,0.37041 -0.0794,0.15875 -0.21167,0.26459 -0.29104,0.39688 -0.15875,0.29104 -0.29105,0.60854 -0.47625,0.89958 -0.0529,0.10583 -0.15875,0.18521 -0.21167,0.29104 -0.15875,0.23813 -0.23813,0.52917 -0.37042,0.76729 -0.10583,0.18521 -0.23812,0.3175 -0.34396,0.50271 -0.0529,0.0794 -0.0794,0.21167 -0.10583,0.3175 0,0.10584 0.0794,0.23813 0.15875,0.29104 0.23813,0.21167 0.52917,0.37042 0.79375,0.52917 0.0794,0.0529 0.13229,0.10583 0.21167,0.15875 0.0529,0.0265 0.0794,0.0265 0.13229,0 0.10583,-0.0265 0.13229,0.0529 0.21167,-0.0529 0.29104,-0.29104 0.47625,-0.635 0.68791,-0.97895 0.10584,-0.15875 0.21167,-0.3175 0.29104,-0.47625 0.1323,-0.21167 0.21167,-0.42334 0.34396,-0.635 0.0794,-0.1323 0.21167,-0.23813 0.29104,-0.37042 0.0265,-0.0265 0.0265,-0.0529 0.0265,-0.0794 0.10584,-0.26458 0.26459,-0.52916 0.42334,-0.79375 0.0794,-0.13229 0.1852,-0.26458 0.29104,-0.42333 0.18521,-0.29104 0.3175,-0.635 0.47625,-0.92604 0.10583,-0.15875 0.21166,-0.3175 0.34396,-0.44979 0.21166,0.0794 0.37041,0.21166 0.55562,0.3175 0.0794,0.0794 0.15875,0.10583 0.23813,0.15875 z m 5.29166,5.42396 -0.0265,-0.82021 c 0,-0.21167 0.0265,-0.42334 0.0265,-0.635 v -1.05834 c 0,-0.10583 -0.0529,-0.26458 -0.0265,-0.37041 0,-0.0794 0.0529,-0.13229 0.0265,-0.21167 0,-0.71437 -0.0529,-1.40229 -0.0794,-2.09021 -0.0265,-0.44979 -0.37042,-0.50271 -0.71438,-0.60854 v 0.0265 c -0.18521,-0.0265 -0.44979,-0.13229 -0.60854,-0.0265 -0.0794,0.0529 -0.13229,0.10583 -0.18521,0.18521 -0.29104,0.42333 -0.52916,0.84667 -0.79375,1.24354 -0.23812,0.34396 -0.44979,0.71438 -0.66146,1.08479 -0.0265,0.0529 -0.0529,0.13229 -0.10583,0.18521 -0.42333,0.635 -0.87312,1.27 -1.24354,1.95792 -0.0794,0.13229 -0.13229,0.23812 -0.23813,0.34396 -0.0264,0.0265 -0.0529,0.0529 -0.0529,0.0794 -0.0529,0.15875 -0.15875,0.29104 -0.23813,0.42333 -0.18521,0.26459 -0.29104,0.55563 -0.47625,0.84667 -0.0529,0.10583 -0.26458,0.39688 -0.29104,0.50271 -0.0529,0.18521 0.13229,0.26458 0.26458,0.3175 0.18521,0.0529 0.37042,0.0794 0.55563,0.13229 l 0.55562,0.15875 0.0794,0.0265 c 0.21167,0.0529 0.29104,0 0.39687,-0.21167 0.0794,-0.21166 0.18521,-0.42333 0.29105,-0.60854 0.0529,-0.10583 0.0529,-0.0794 0.15875,-0.0529 h 0.0529 c 0.34396,0.0794 0.68792,0.18521 1.03188,0.29105 0.13229,0.0265 0.23812,0.0794 0.34396,0.10583 0.10583,0.0265 0.13229,0.0265 0.10583,0.15875 -0.0265,0.10583 0,0.21167 0,0.3175 -0.0265,0.18521 0,0.3175 0,0.50271 v 0.0265 c 0,0.0794 0.0265,0.13229 0.10583,0.15875 0.0794,0.0265 0.15875,0.0794 0.23813,0.0794 0.0794,0.0265 0.13229,0.0265 0.18521,0.0265 l 0.68791,0.18521 c 0.13229,0.0529 0.26459,0.10583 0.39688,0.13229 0.13229,0.0529 0.34396,0 0.37041,-0.15875 v -0.10583 c -0.0265,-0.37042 -0.0794,-0.74084 -0.10583,-1.11125 0,-0.47625 0,-0.9525 -0.0265,-1.42875 z m -2.30187,-0.4498 c -0.13229,-0.0265 -0.26459,-0.0529 -0.39688,-0.13229 0.26459,-0.42333 0.55563,-0.84666 0.84667,-1.27 0.0265,0.0529 0.0794,0.82021 0.0794,0.9525 0,0.21167 0.0794,0.39688 0.0794,0.60854 z m 9.02229,1.77271 h -0.18521 c -0.3175,0 -0.635,-0.0265 -0.97896,-0.0529 -0.18521,0 -0.39687,0.0265 -0.58208,0 -0.0794,0 -0.13229,-0.0265 -0.13229,-0.10584 0,-0.13229 -0.0265,-0.29104 -0.0265,-0.42333 0,-0.18521 0.0529,-0.37042 0.0529,-0.58208 0,-0.23813 -0.0265,-0.47625 -0.0265,-0.71438 0,-0.21167 0.0529,-0.42333 0.0529,-0.635 0,-0.18521 -0.0265,-0.39687 -0.0265,-0.60854 0,-0.18521 0.0529,-0.34396 0.0529,-0.52917 0,-0.18521 -0.0265,-0.37041 -0.0265,-0.55562 0,-0.21167 0.0265,-0.44979 0.0265,-0.66146 0,-0.0794 -0.0265,-0.18521 -0.0265,-0.26458 0,-0.26459 0.0794,-0.52917 0.0794,-0.79375 0,-0.37042 -0.23813,-0.34396 -0.52917,-0.34396 h -0.37041 c -0.18521,0 -0.34396,-0.0529 -0.52917,-0.0794 -0.3175,0 -0.47625,0.0529 -0.50271,0.39688 0,0.18521 0.0265,0.39687 0,0.60854 0,0.15875 -0.0529,0.3175 -0.0529,0.47625 0,0.18521 0.0265,0.37042 0.0265,0.52917 0,0.0794 -0.0265,0.1852 -0.0265,0.26458 v 1.53458 c 0,0.10584 -0.0264,0.21167 -0.0264,0.3175 v 0.29104 c 0,0.10584 -0.0529,0.18521 -0.0529,0.29105 0,0.26458 0.0265,0.55562 0.0265,0.8202 0,0.0794 -0.0265,0.18521 -0.0265,0.26459 0,0.0794 0.0265,0.18521 0.0265,0.29104 0,0.10583 -0.0265,0.21167 -0.0529,0.3175 l -0.0265,0.79375 c -0.0265,0.10583 -0.0265,0.23812 -0.0265,0.37042 0,0.10583 0.0794,0.39687 0.15875,0.42333 0.34396,0.15875 0.82021,0.13229 1.21709,0.15875 0.21166,0.0265 0.42333,0.0265 0.635,0.0265 0.13229,0 0.26458,-0.0265 0.42333,-0.0265 h 0.92604 c 0.0794,0 0.13229,0.0265 0.18521,0.0265 0.13229,0 0.29104,-0.0529 0.39688,-0.0794 0.15875,-0.0529 0.15875,-0.42333 0.15875,-0.55562 0,-0.21167 0.0264,-0.87313 -0.0265,-1.05834 0,-0.0529 -0.0794,-0.13229 -0.18521,-0.13229 z m 4.445,0.47625 c -0.0529,-0.23812 0,-0.47625 -0.0529,-0.71437 -0.0265,-0.21167 -0.13229,-0.42334 -0.15875,-0.635 -0.0265,-0.23813 -0.0265,-0.47625 -0.0794,-0.71438 -0.0265,-0.10583 -0.10584,-0.18521 -0.10584,-0.3175 v -0.0265 c -0.0264,-0.21166 -0.0264,-0.44979 -0.0529,-0.66145 -0.0529,-0.37042 -0.15875,-0.74084 -0.23813,-1.11125 l -0.13229,-0.79375 c -0.0529,-0.29105 -0.0794,-0.58209 -0.13229,-0.89959 l -0.0794,-0.47625 c 0,0 -0.0265,-0.29104 -0.0794,-0.44979 -0.0265,-0.0794 -0.0529,-0.15875 -0.15875,-0.18521 -0.23813,-0.0529 -0.23813,-0.10583 -0.50271,-0.0794 l -0.9525,0.18521 c -0.13229,0.0265 -0.34396,0.1852 -0.34396,0.3175 0,0.0794 0.0265,0.1852 0.0265,0.26458 0.0265,0.21167 0.10583,0.39687 0.15875,0.60854 l 0.0265,0.21167 c 0.0529,0.3175 0.13229,0.635 0.18521,0.9525 0.0794,0.52916 0.15875,1.05833 0.26458,1.5875 0.0265,0.18521 0.0794,0.37041 0.10583,0.52916 0.0265,0.1323 0.0529,0.23813 0.0529,0.37042 0.0529,0.29104 0.10583,0.55563 0.15875,0.84667 0,0.0529 0,0.10583 0.0265,0.18521 0.0265,0.23812 0.0794,0.44979 0.13229,0.66145 0.0529,0.23813 0.0529,0.47625 0.10583,0.68792 0.0265,0.13229 0.0529,0.23813 0.0794,0.37042 0.0265,0.13229 0.10583,0.21166 0.23812,0.23812 0.26459,0.0265 0.60855,0 0.89959,-0.0529 0.15875,-0.0265 0.3175,-0.0794 0.47625,-0.1323 0.29104,-0.0794 0.29104,-0.29104 0.23812,-0.55562 -0.0529,-0.0529 -0.10583,-0.13229 -0.10583,-0.21167 z m 8.28146,-2.32833 c -0.23813,-0.26458 -0.50271,-0.52917 -0.76729,-0.82021 -0.3175,-0.37042 -0.60855,-0.71437 -0.92605,-1.08479 l -0.52916,-0.635 c -0.13229,-0.15875 -0.23813,-0.34396 -0.37042,-0.52917 l -0.3175,-0.39687 c 0,0 -0.23812,-0.29104 -0.34396,-0.42334 -0.0794,-0.0794 -0.21166,-0.1852 -0.26458,-0.29104 -0.0265,-0.0529 -0.0529,-0.13229 -0.10583,-0.18521 -0.42334,-0.55562 -0.89959,-1.08479 -1.34938,-1.61395 -0.29104,-0.34396 -0.60854,-0.15875 -0.92604,-0.0529 v 0.0265 c -0.15875,0.0794 -0.44979,0.15875 -0.50271,0.34396 -0.0265,0.0794 -0.0529,0.1852 -0.0529,0.26458 0.0265,0.50271 0.0794,0.97896 0.1323,1.48167 0.0265,0.42333 0.0794,0.84666 0.15875,1.24354 0.0265,0.0794 0.0265,0.13229 0.0265,0.21166 0.0529,0.7673 0.10584,1.53459 0.21167,2.30188 0.0265,0.13229 0.0265,0.26458 0.0265,0.39687 v 0.10584 c 0.0529,0.15875 0.0529,0.3175 0.0529,0.47625 0.0265,0.3175 0.10583,0.635 0.13229,0.9525 0.0265,0.10583 0.0265,0.47625 0.0794,0.58208 0.0794,0.15875 0.26459,0.13229 0.39688,0.0794 0.15875,-0.0794 0.34396,-0.15875 0.50271,-0.23813 0.1852,-0.0794 0.37041,-0.13229 0.55562,-0.21167 l 0.0794,-0.0264 c 0.1852,-0.0794 0.23812,-0.18521 0.1852,-0.39688 -0.0529,-0.21167 -0.10583,-0.44979 -0.13229,-0.66146 -0.0265,-0.10583 0,-0.10583 0.0794,-0.15875 l 0.0529,-0.0265 c 0.3175,-0.15875 0.66146,-0.29104 0.97896,-0.42333 0.10584,-0.0529 0.23813,-0.0794 0.34396,-0.13229 0.10583,-0.0529 0.10583,-0.0529 0.18521,0.0529 0.0529,0.0794 0.13229,0.15875 0.18521,0.26458 0.0794,0.15875 0.18521,0.23812 0.3175,0.39687 l 0.0265,0.0265 c 0.0529,0.0794 0.10583,0.0794 0.1852,0.0529 l 0.23813,-0.0794 0.15875,-0.0794 0.66146,-0.26458 c 0.13229,-0.0529 0.26458,-0.0794 0.39687,-0.1323 0.13229,-0.0529 0.26459,-0.21166 0.23813,-0.39687 0.0529,0.0529 0.0265,0.0265 0,0 z m -3.78354,-0.84667 c -0.10584,0.0529 -0.26459,0.10584 -0.37042,0.13229 -0.0529,-0.5027 -0.0794,-1.00541 -0.13229,-1.53458 0.0529,0.0265 0.58208,0.60854 0.635,0.68792 0.13229,0.15875 0.3175,0.26458 0.42333,0.44979 z m 10.26583,-5.66208 c -0.0794,-0.0794 -0.13229,-0.15875 -0.18521,-0.23813 -0.10583,-0.13229 -0.26458,-0.26458 -0.39687,-0.42333 -0.42334,-0.50271 -0.82021,-1.03187 -1.24355,-1.50812 -0.0529,-0.0794 -0.13229,-0.1323 -0.21166,-0.21167 -0.10584,-0.10583 -0.15875,-0.29104 -0.23813,-0.37042 -0.15875,-0.18521 -0.34396,-0.37041 -0.47625,-0.55562 -0.10583,-0.13229 -0.18521,-0.29104 -0.29104,-0.42334 -0.0794,-0.10583 -0.15875,-0.1852 -0.26458,-0.29104 -0.18521,-0.23812 -0.34396,-0.47625 -0.52917,-0.68791 -0.21167,-0.23813 -0.42333,0 -0.58208,0.13229 -0.13229,0.10583 -0.3175,0.23812 -0.47625,0.29104 -0.0794,0.0529 -0.13229,0.13229 -0.21167,0.18521 -0.18521,0.15875 -0.44979,0.34396 -0.23812,0.635 l 0.26458,0.26458 c 0.47625,0.55563 0.87312,1.16417 1.34937,1.71979 0.1323,0.15875 0.26459,0.29104 0.39688,0.44979 0.18521,0.21167 0.37042,0.4498 0.52917,0.71438 l -0.0265,0.0265 c -0.58209,-0.15875 -1.16417,-0.37042 -1.77271,-0.55563 -0.13229,-0.0529 -0.29104,-0.0529 -0.42333,-0.10583 l -0.23813,-0.0794 -0.66146,-0.1852 c -0.52916,-0.18521 -1.08479,-0.39688 -1.64041,-0.55563 -0.1323,-0.0265 -0.26459,-0.0529 -0.37042,0.0529 -0.0265,0.0265 -0.0529,0.0794 -0.0794,0.10583 -0.0529,0.0529 -0.13229,0.0529 -0.1852,0.10583 -0.21167,0.15875 -0.52917,0.4498 -0.37042,0.74084 0.23812,0.44979 0.68792,0.97896 1.00542,1.37583 0.13229,0.15875 0.23812,0.3175 0.37041,0.47625 0.47625,0.58208 0.97896,1.11125 1.45521,1.66688 0.37042,0.42333 0.71438,0.8202 1.05833,1.24354 0.23813,0.29104 0.47625,0.635 0.71438,0.92604 0.10583,0.13229 0.23812,0.18521 0.39687,0.10583 0.10584,-0.0529 0.92605,-0.68791 1.0848,-0.82021 0.0529,-0.0529 0.13229,-0.10583 0.10583,-0.21166 0,-0.10584 -0.0265,-0.21167 -0.0794,-0.26459 -0.0794,-0.10583 -0.1852,-0.21166 -0.26458,-0.3175 -0.0265,-0.0529 -0.0529,-0.10583 -0.10583,-0.13229 -0.10584,-0.15875 -0.23813,-0.29104 -0.34396,-0.44979 l -0.3175,-0.3175 c -0.18521,-0.18521 -0.34396,-0.39687 -0.50271,-0.58208 -0.10583,-0.10584 -0.21167,-0.21167 -0.29104,-0.3175 -0.0794,-0.0794 -0.15875,-0.21167 -0.18521,-0.3175 0.26458,0 0.52917,0.13229 0.79375,0.21166 0.18521,0.0794 0.37042,0.10584 0.58208,0.18521 0.26459,0.0794 0.47625,0.21167 0.74084,0.26459 0.39687,0.10583 1.03187,0.29104 1.40229,0.42333 0.18521,0.0794 0.37042,0.0529 0.55562,0.0265 0.23813,-0.0529 0.42334,-0.18521 0.60855,-0.34396 0.1852,-0.15875 0.5027,-0.39688 0.66145,-0.58208 0.0529,-0.0794 0.10584,-0.15875 0.0529,-0.23813 -0.21167,-0.44979 -0.635,-0.87312 -0.92604,-1.24354 z m -39.79333,-43.39167 0.10583,0.15875 0.10583,-0.0794 -0.10583,0.0794 c 0.13229,0.18521 0.34396,0.44979 0.55562,0.76729 l 0.50271,0.68792 c 0.0529,0.0794 0.13229,0.18521 0.23813,0.34396 0.10583,0.13229 0.18521,0.23812 0.23812,0.29104 l 0.13229,0.18521 c 0.0794,0.10583 0.1323,0.18521 0.15875,0.23812 l 0.7673,1.0848 0.0265,0.0265 c 0.21167,0.29105 0.37042,0.52917 0.47625,0.68792 l 0.0265,0.0265 c 0,0 0.0265,0.0265 0.0265,0.0529 l 0.0529,0.0794 c 0.0265,0.0265 0.0529,0.0794 0.0794,0.10583 0.0265,0.0529 0.0794,0.1323 0.13229,0.21167 0.0794,0.13229 0.18521,0.29104 0.3175,0.42333 l 0.0529,0.0529 c 0,0 0.0265,0.0529 0.0529,0.0529 l 0.0265,0.0265 c 0,0.0265 0,0.0265 0.0265,0.0529 l 0.0265,0.0265 c 0,0.0265 0.0794,0.0794 0.0794,0.0794 0.0265,0.0265 0.0529,0.0529 0.0794,0.0529 0.0265,0 0.0529,0 0.0794,-0.0265 0,0 0.0529,-0.0265 0.13229,-0.0529 0,0 0.0265,0 0.0265,-0.0265 l 0.0529,-0.0529 c 0.0529,-0.0265 0.0794,-0.0529 0.10584,-0.0529 0.0529,-0.0265 0.10583,-0.0794 0.15875,-0.15875 l 0.10583,-0.10584 c 0.0265,-0.0529 0.0265,-0.10583 0,-0.15875 l -0.3175,-0.39687 -0.0265,-0.0265 -0.0794,-0.0794 c -0.0265,-0.0264 -0.0529,-0.0794 -0.0529,-0.0794 0,0 0,-0.0265 -0.0265,-0.0265 l -0.21166,-0.29104 c -0.0794,-0.0794 -0.15875,-0.18521 -0.23813,-0.3175 -0.10583,-0.13229 -0.26458,-0.37042 -0.52917,-0.68792 l -0.52916,-0.71437 c -0.10584,-0.13229 -0.18521,-0.26459 -0.26459,-0.37042 -0.0529,-0.0529 -0.10583,-0.13229 -0.15875,-0.21167 l -0.13229,-0.1852 c 0.0265,0.0265 0.0529,0.0529 0.0794,0.0529 l 0.18521,0.18521 c 0.0794,0.0794 0.29104,0.26458 0.34395,0.3175 l 0.15875,0.15875 0.1323,0.13229 c 0.15875,0.13229 0.21166,0.18521 0.26458,0.21167 0.26458,0.23812 0.42333,0.39687 0.52917,0.47625 0.0529,0.0529 0.3175,0.23812 0.87312,0.68792 0.44979,0.37041 0.87313,0.66145 0.89958,0.68791 0.0265,0.0265 0.0794,0.0265 0.10584,0.0265 0,0 0.21166,-0.0794 0.44979,-0.21167 0.0794,-0.0529 0.10583,-0.10583 0.13229,-0.10583 l 0.10583,-0.0794 c 0.0529,-0.0265 0.0794,-0.0529 0.10584,-0.0529 0.0529,-0.0265 0.0794,-0.0794 0.0794,-0.0794 0.0265,-0.0529 0.0529,-0.10583 0,-0.15875 l -0.13229,-0.1852 c -0.10583,-0.1323 -0.26458,-0.34396 -0.44979,-0.60855 -0.21167,-0.26458 -0.37042,-0.47625 -0.50271,-0.66145 -0.0265,-0.0529 -0.0794,-0.1323 -0.15875,-0.23813 l -0.37042,-0.47625 c -0.0264,-0.0265 -0.0529,-0.0794 -0.10583,-0.15875 l -0.52917,-0.74083 c -0.34395,-0.47625 -0.55562,-0.76729 -0.74083,-1.00542 l -0.18521,-0.26458 c -0.0794,-0.10584 -0.13229,-0.15875 -0.15875,-0.21167 l -0.15875,-0.21167 c -0.0529,-0.0794 -0.10583,-0.13229 -0.13229,-0.15875 -0.0529,-0.0529 -0.10583,-0.15875 -0.21167,-0.26458 -0.0794,-0.10583 -0.15875,-0.18521 -0.21166,-0.26458 -0.0265,-0.0265 -0.0529,-0.0794 -0.0794,-0.0794 -0.0265,-0.0529 -0.0794,-0.10583 -0.13229,-0.21166 l -0.13229,-0.18521 c -0.0529,-0.0265 -0.10583,-0.0265 -0.15875,-0.0265 0,0 -0.13229,0.0529 -0.21167,0.0794 -0.0265,0 -0.0265,0.0265 -0.0529,0.0265 -0.0265,0.0265 -0.0529,0.0529 -0.10584,0.0794 -0.0529,0.0529 -0.0794,0.0794 -0.10583,0.0794 -0.0529,0.0529 -0.13229,0.10584 -0.13229,0.10584 -0.0529,0.0529 -0.0529,0.10583 0,0.15875 0,0 0.23812,0.29104 0.34396,0.44979 0.0529,0.0529 0.10583,0.13229 0.1852,0.23812 l 0.1323,0.15875 c 0.13229,0.18521 0.23812,0.3175 0.3175,0.42334 0.0529,0.0794 0.13229,0.1852 0.23812,0.3175 0.10583,0.13229 0.18521,0.23812 0.23813,0.29104 l 0.0794,0.10583 c 0.0265,0.0265 0.0794,0.10583 0.15875,0.18521 0.0794,0.0794 0.10583,0.13229 0.15875,0.18521 l 0.13229,0.18521 c 0.0265,0.0265 0.0529,0.0794 0.10584,0.10583 l 0.0529,0.0529 c 0.0265,0.0529 0.0529,0.10583 0.10584,0.15875 l 0.1852,0.26458 c 0.0265,0.0265 0.0794,0.0794 0.1323,0.15875 l 0.13229,0.18521 c 0.13229,0.18521 0.3175,0.42333 0.55562,0.71437 l 0.0265,0.0265 c 0.0529,0.0529 0.0794,0.13229 0.13229,0.18521 l -0.60854,-0.42333 -0.29104,-0.26459 -0.0794,-0.0529 -0.10583,-0.10584 c -0.0265,0 -0.0265,-0.0265 -0.0265,-0.0265 l -0.0529,-0.0529 -0.29105,-0.26459 c -0.34395,-0.3175 -1.08479,-1.00541 -2.32833,-2.19604 -0.21167,-0.15875 -0.47625,-0.37041 -0.47625,-0.37041 -0.0265,-0.0265 -0.10583,-0.0265 -0.13229,0 0,0 -0.15875,0.0794 -0.34396,0.21166 -0.0529,0.0529 -0.13229,0.10584 -0.15875,0.15875 l -0.18521,0.13229 c -0.0529,0.0529 -0.0529,0.10584 -0.0265,0.15875 0.0265,0.0529 0.10584,0.18521 0.1323,0.18521 z m 4.60375,-2.35479 c 0.0794,0.15875 0.15875,0.26458 0.1852,0.3175 l 0.0265,0.0265 c 0,0.0529 0.0265,0.0794 0.0529,0.13229 l 0.60854,1.21708 0.3175,0.635 c 0.0794,0.1323 0.10583,0.21167 0.15875,0.26459 0,0.0265 0.0265,0.0529 0.0265,0.0794 0,0.0265 0.0265,0.0529 0.0265,0.0794 l 0.82021,1.5875 c 0,0.0265 0.0265,0.0529 0.0529,0.10583 l 0.0529,0.0794 c 0.0265,0.0265 0.0265,0.0529 0.0529,0.10583 0,0.0265 0.0265,0.0529 0.0529,0.10583 l 0.52917,1.00542 c 0.0265,0.0529 0.0529,0.0529 0.10583,0.0529 h 0.0529 l 0.10583,-0.0265 c 0.0529,-0.0265 0.10584,-0.0529 0.13229,-0.0529 l 0.23813,-0.0794 c 0.0529,-0.0265 0.10583,-0.0529 0.18521,-0.10584 0.0794,-0.0529 0.13229,-0.0794 0.15875,-0.10583 l 0.0529,-0.0265 0.0265,-0.0265 c 0,0 0.0265,-0.0265 0.0529,-0.0265 0.29104,-0.1852 0.44979,-0.34395 0.50271,-0.47625 0.0529,-0.10583 0.10583,-0.21166 0.10583,-0.3175 0.0265,-0.1852 -0.0265,-0.47625 -0.18521,-0.97895 l -0.29104,-0.68792 c -0.42333,-0.87313 -0.84667,-1.74625 -0.89958,-1.87854 0,-0.0529 -0.0265,-0.0794 -0.0265,-0.0794 l -0.0265,-0.0265 c -0.44979,-0.84666 -0.71437,-1.29645 -0.84667,-1.53458 -0.0265,-0.0265 -0.0529,-0.0529 -0.10583,-0.18521 -0.0265,-0.0265 -0.0529,-0.0794 -0.0794,-0.0794 -0.0265,-0.0265 -0.0265,-0.0529 -0.0529,-0.0529 -0.15875,-0.18521 -0.26458,-0.29104 -0.37042,-0.3175 -0.0794,-0.0529 -0.13229,-0.0794 -0.21166,-0.0794 -0.23813,-0.0794 -0.50271,-0.0265 -0.82021,0.13229 -0.0265,0.0265 -0.0794,0.0265 -0.13229,0.0529 l -0.1323,0.0529 c -0.0529,0.0265 -0.13229,0.0529 -0.23812,0.13229 -0.10583,0.0794 -0.39688,0.23813 -0.39688,0.23813 -0.0529,0.0265 -0.0794,0.0794 -0.0529,0.13229 0,0 0.0265,0.10583 0.0794,0.23812 -0.0529,0.0794 0.0265,0.18521 0.10584,0.37042 z m 0.68791,-0.3175 z m 0.13229,0.0529 0.18521,-0.10584 c 0.18521,-0.0794 0.3175,-0.10583 0.39688,-0.0529 0.0529,0.0529 0.21166,0.18521 0.39687,0.55562 l 0.0265,0.0265 c 0,0 0.0265,0.0265 0.0265,0.0794 v 0.0265 l 0.0265,0.0529 c 0,0.0265 0.0265,0.0529 0.0529,0.0794 0.10584,0.21166 0.18521,0.34395 0.21167,0.42333 0.0529,0.0794 0.0794,0.15875 0.13229,0.23812 l 0.39688,0.7673 c 0.0265,0.0529 0.0529,0.0794 0.0794,0.10583 l 0.0265,0.0529 c 0.0265,0.0529 0.0529,0.10583 0.0794,0.1852 l 0.23812,0.47625 c 0.0529,0.1323 0.13229,0.29105 0.21167,0.47625 0.0794,0.18521 0.13229,0.3175 0.15875,0.37042 0,0.0265 0.0265,0.0529 0.0529,0.10583 l 0.0529,0.10584 c 0.10583,0.26458 0.13229,0.44979 0.10583,0.60854 -0.0265,0.13229 -0.13229,0.23812 -0.29104,0.34396 -0.0265,0 -0.0529,0.0265 -0.10583,0.0529 -0.0265,-0.0265 -0.0529,-0.0794 -0.0794,-0.10583 v -0.0529 c -0.0265,-0.0529 -0.0529,-0.13229 -0.10583,-0.23812 l -0.21167,-0.44979 c -0.0265,-0.0265 -0.0265,-0.0794 -0.0529,-0.13229 l -0.0265,-0.0265 c 0,-0.0265 -0.0265,-0.0529 -0.0529,-0.0794 l -0.0265,-0.0529 c 0,-0.0265 -0.0265,-0.0529 -0.0265,-0.0794 l -0.29105,-0.58208 -0.0265,-0.0265 c 0,0 -0.0265,-0.0529 -0.0529,-0.0794 l -0.10583,-0.21166 c 0,-0.0265 -0.0265,-0.0529 -0.0265,-0.0794 0,-0.0265 0,-0.0265 -0.0265,-0.0265 0,-0.0265 -0.0265,-0.0529 -0.0265,-0.0794 0,0 -0.0265,-0.0265 -0.0265,-0.0529 l -0.39687,-0.79375 -0.0529,-0.13229 c 0,-0.0265 -0.0265,-0.0529 -0.0265,-0.0529 l -0.47625,-0.92604 c 0,-0.0265 -0.0265,-0.0265 -0.0265,-0.0529 -0.0265,-0.0529 -0.0265,-0.10584 -0.0529,-0.10584 z m 6.56167,-1.93146 c 0.0794,0.26458 0.13229,0.42333 0.13229,0.44979 l 0.0265,0.0794 c 0.0265,0.10583 0.0794,0.23812 0.13229,0.39687 0.0265,0.10583 0.0529,0.21167 0.0794,0.29104 l 0.34396,1.19063 c 0,0.0265 0.0264,0.0794 0.0264,0.13229 0.0265,0.0794 0.0529,0.21167 0.10584,0.37042 0.0794,0.23812 0.13229,0.44979 0.18521,0.635 0.0529,0.15875 0.10583,0.3175 0.15875,0.42333 0.0264,0.15875 0.0529,0.26458 0.0794,0.34396 l 0.13229,0.42333 c 0.0265,0.13229 0.0794,0.26458 0.10584,0.39688 0.0529,0.21166 0.0794,0.34395 0.0794,0.34395 0,0.0265 0.0265,0.0794 0.0794,0.0794 0,0 0.0794,0.0265 0.1852,0.0265 h 0.10584 l 0.39687,-0.0794 h 0.0794 c 0.0529,0 0.10583,0 0.15875,-0.0265 0.10583,-0.0264 0.18521,-0.10583 0.21166,-0.10583 0.0265,-0.0265 0.0265,-0.0265 0.0265,-0.0529 0,-0.0264 0.0265,-0.13229 0.0265,-0.1852 v -0.18521 c 0,-0.13229 0,-0.37042 -0.0265,-0.68792 l -0.10583,-3.12208 c 0,-0.0794 0,-0.15875 -0.0265,-0.23813 0,-0.13229 -0.0265,-0.29104 -0.0265,-0.44979 v -0.79375 c 0,-0.34396 0,-0.55562 -0.0265,-0.68792 l -0.0529,-0.89958 c -0.0265,-0.0794 0,-0.15875 0,-0.15875 0,-0.0529 -0.0265,-0.10583 -0.0794,-0.13229 0,0 -0.10583,-0.0265 -0.23812,0 -0.0529,0 -0.10584,0 -0.15875,0.0265 l -0.10584,0.0265 c -0.15875,0.0265 -0.23812,0.13229 -0.23812,0.15875 -0.0265,0.0265 -0.0265,0.0529 -0.0265,0.0794 0,0 0.0265,0.9525 0.10583,2.40771 0.0794,1.53458 0.1323,2.40771 0.1323,2.77812 v 0.42334 -0.0265 l -0.0794,-0.3175 c -0.0529,-0.13229 -0.0794,-0.29104 -0.13229,-0.44979 -0.0265,-0.10584 -0.0794,-0.23813 -0.10583,-0.37042 l -0.58209,-1.905 -0.0794,-0.23812 c -0.0265,-0.0794 -0.0265,-0.1323 -0.0529,-0.18521 v -0.0265 c 0,-0.0529 -0.0265,-0.10583 -0.0529,-0.21167 -0.0264,-0.0794 -0.0264,-0.13229 -0.0529,-0.18521 v -0.0265 c 0,-0.0529 -0.0265,-0.10584 -0.0529,-0.18521 -0.0265,-0.0794 -0.0265,-0.13229 -0.0529,-0.15875 -0.13229,-0.58209 -0.3175,-1.00542 -0.3175,-1.00542 0,-0.0265 -0.0265,-0.0529 -0.0529,-0.0794 -0.0265,0 -0.13229,-0.0529 -0.26459,-0.0265 -0.0794,0.0265 -0.15875,0.0529 -0.29104,0.10583 -0.13229,0.0794 -0.21166,0.15875 -0.21166,0.18521 -0.0265,0.0265 -0.0265,0.0794 -0.0265,0.10583 z m 7.83167,4.92125 0.18521,0.0529 c 0.0529,0.0264 0.0794,0.0264 0.13229,0.0264 h 0.21166 c 0.0794,0 0.18521,0 0.29105,0.0265 h 0.23812 c 0.21167,0 0.42333,-0.0529 0.60854,-0.13229 0.21167,-0.15875 0.34396,-0.39687 0.44979,-0.71437 0.10584,-0.29105 0.15875,-0.79375 0.21167,-1.50813 l 0.0265,-0.50271 v -0.26458 l 0.0265,-0.3175 v -0.39688 l 0.0265,-0.68791 c 0,-0.18521 0.0265,-0.3175 0,-0.39688 l 0.0265,-0.23812 v -0.13229 c 0,-0.10584 -0.0265,-0.21167 0,-0.29105 0,-0.29104 -0.0265,-0.55562 -0.0529,-0.79375 v -0.0529 c -0.0265,-0.10584 -0.0265,-0.18521 -0.0529,-0.23813 0,-0.0794 -0.0265,-0.18521 -0.0794,-0.23812 l -0.0529,-0.10584 -0.0794,-0.10583 -0.0794,-0.10583 c -0.0529,-0.0265 -0.0794,-0.0794 -0.13229,-0.0794 -0.0794,-0.0265 -0.10584,-0.0529 -0.13229,-0.0794 -0.0265,-0.0265 -0.0265,-0.0265 -0.0529,-0.0265 -0.0265,0 -0.13229,-0.0529 -0.26458,-0.10583 h -0.0529 c -0.0794,0 -0.18521,-0.0265 -0.26458,-0.0529 -0.0265,0 -0.0794,-0.0265 -0.1323,-0.0265 l -0.10583,-0.0265 c -0.10583,-0.0265 -0.18521,-0.0265 -0.21167,-0.0265 h -0.23812 c -0.0529,0 -0.10583,0.0529 -0.10583,0.10584 0,0 -0.0265,0.15875 -0.0265,0.21166 l -0.0265,0.39688 c 0,0.0529 -0.0265,0.10583 -0.0265,0.15875 v 0.15875 l -0.0265,0.10583 c 0,0.10584 -0.0265,0.18521 -0.0265,0.21167 l -0.0265,0.23812 c 0,0.0529 0,0.10584 -0.0265,0.18521 l -0.0265,0.42334 c 0,0.15875 -0.0265,0.29104 -0.0265,0.39687 0,0.0794 0,0.21167 -0.0265,0.39688 l -0.0265,0.42333 c -0.0265,0.39687 -0.0529,0.68792 -0.0529,0.89958 v 0.50271 c 0,0.0265 0,0.0794 -0.0265,0.15875 v 0.21167 c -0.0529,1.32291 -0.0794,2.2225 -0.0794,2.2225 0,0.0794 0.0529,0.10583 0.10584,0.13229 z m 0.79375,-1.32292 v -0.29104 l 0.0265,-0.66146 c 0.0264,-0.44979 0.0529,-1.21708 0.13229,-2.30187 0,-0.18521 0.0265,-0.34396 0.0265,-0.42334 v -0.21166 l 0.0264,-0.52917 v -0.15875 l 0.0265,-0.44979 v -0.26458 c 0.26459,0.0529 0.37042,0.10583 0.42334,0.15875 0.0264,0 0.0264,0.0265 0.0529,0.0265 0,0 0.13229,0.0794 0.10584,0.9525 0,0.3175 -0.0265,0.635 -0.0265,0.97896 -0.0265,0.3175 -0.0529,0.635 -0.0794,0.97896 l -0.0529,0.68792 c 0,0.18521 0,0.3175 -0.0265,0.39687 0,0.0794 0,0.13229 -0.0265,0.18521 -0.0265,0.37042 -0.0529,0.58208 -0.0794,0.84667 v 0.10583 c -0.0264,0.0529 -0.0264,0.10583 -0.0264,0.15875 v 0.0265 c 0,0 -0.0265,0.0265 -0.0265,0.0529 -0.0265,0.0529 -0.0794,0.13229 -0.18521,0.21166 -0.0794,0.0794 -0.13229,0.10584 -0.18521,0.10584 -0.0265,0 -0.0794,0.0265 -0.10583,0.0265 h -0.0794 v -0.0265 l 0.0265,-0.4498 c 0.0529,-0.0529 0.0529,-0.0794 0.0529,-0.13229 z m 2.88396,1.5875 c 0,0.0265 0.0265,0.0265 0,0 0.10583,0.0794 0.1852,0.15875 0.26458,0.18521 0.0794,0.0265 0.18521,0.0794 0.34396,0.10583 0.10583,0.0265 0.18521,0.0265 0.29104,0.0265 h 0.18521 c 0.15875,-0.0265 0.29104,-0.0794 0.42333,-0.15875 0.0265,-0.0265 0.0529,-0.0529 0.10583,-0.0794 0.0529,-0.0265 0.0794,-0.0529 0.10584,-0.0794 l 0.21166,-0.21166 c 0.0794,-0.10584 0.1323,-0.18521 0.18521,-0.26459 0.13229,-0.26458 0.23813,-0.55562 0.34396,-0.9525 l 0.0794,-0.29104 c 0,-0.0265 0.0265,-0.0794 0.0265,-0.13229 l 0.0265,-0.0794 c 0,-0.0265 0,-0.0529 0.0265,-0.0529 0,0 0,-0.0265 0.0265,-0.0265 l 0.0529,-0.21167 c 0.0265,-0.0529 0.0265,-0.10583 0.0265,-0.15875 l 0.42334,-1.77271 c 0,-0.0794 0.0265,-0.10583 0.0265,-0.15875 l 0.0529,-0.1852 c 0,-0.0529 0,-0.0794 0.0265,-0.10584 v -0.0529 c 0.0529,-0.23813 0.0794,-0.39688 0.0794,-0.47625 l 0.0529,-0.21167 0.0794,-0.23813 c 0,-0.0794 0.0265,-0.1852 0.0529,-0.3175 l 0.0794,-0.37041 c 0.0265,-0.13229 0.0265,-0.29104 0.0265,-0.29104 0,-0.0529 -0.0265,-0.0794 -0.0529,-0.10584 0,0 -0.0529,-0.0265 -0.10583,-0.0265 -0.0265,0 -0.0794,-0.0265 -0.13229,-0.0265 l -0.23813,-0.0794 h -0.0265 c -0.0794,-0.0265 -0.13229,0 -0.15875,0 -0.0529,0 -0.0794,0.0529 -0.0794,0.10583 l -0.0265,0.1323 c 0,0.0529 -0.0265,0.13229 -0.0265,0.21166 l -0.10583,0.47625 c 0,0.0529 -0.0265,0.13229 -0.0529,0.23813 -0.0529,0.18521 -0.10583,0.42333 -0.13229,0.635 l -0.50271,2.2225 c -0.0265,0.0529 -0.0265,0.13229 -0.0529,0.21166 -0.0265,0.0529 -0.0265,0.1323 -0.0529,0.23813 l -0.0794,0.39687 -0.0794,0.3175 c -0.0529,0.15875 -0.0794,0.3175 -0.13229,0.4498 v 0.0265 c -0.0265,0.0265 -0.0265,0.0529 -0.0265,0.0529 -0.0529,0.15875 -0.10584,0.21167 -0.18521,0.3175 l -0.0265,0.0265 c -0.15875,0.15875 -0.29104,0.18521 -0.47625,0.13229 -0.0794,-0.0265 -0.13229,-0.0529 -0.18521,-0.15875 -0.0265,-0.0265 -0.0529,-0.15875 -0.0265,-0.66146 v -0.21166 c 0,-0.0529 0.0265,-0.10584 0.0265,-0.1323 0,-0.0265 0.0265,-0.10583 0.0265,-0.1852 0.0265,-0.0794 0.0265,-0.18521 0.0529,-0.3175 0.0265,-0.15875 0.0794,-0.34396 0.10583,-0.58209 0.0794,-0.39687 0.13229,-0.68791 0.15875,-0.82021 l 0.0265,-0.0794 v -0.0529 l 0.0265,-0.15875 c 0,-0.0529 0,-0.0794 0.0265,-0.13229 l 0.15875,-0.79375 c 0,-0.0529 0,-0.0794 0.0264,-0.10583 0,-0.0529 0.0265,-0.0794 0.0265,-0.0794 l 0.0794,-0.34396 c 0.0265,-0.13229 0.0265,-0.21166 0.0529,-0.29104 l 0.10584,-0.44979 c 0.0529,-0.18521 0.0794,-0.34396 0.10583,-0.44979 0.0265,-0.10583 0.0794,-0.29104 0.0794,-0.29104 0.0264,-0.0529 -0.0265,-0.10584 -0.0794,-0.13229 0,0 -0.0529,-0.0265 -0.13229,-0.0529 -0.0529,-0.0529 -0.13229,-0.0529 -0.18521,-0.0794 -0.0794,-0.0265 -0.26458,-0.0794 -0.26458,-0.0794 -0.0529,-0.0265 -0.10584,0 -0.13229,0.0529 l -0.0529,0.0794 c 0,0 0,0.0265 -0.0265,0.0265 v 0.13229 c 0,0 -0.0265,0.0529 -0.0265,0.0794 0,0.0265 -0.0265,0.0265 -0.0265,0.0529 0,0.0265 0,0.0529 -0.0265,0.10584 l -0.0265,0.10583 v 0.0265 l -0.74084,3.59833 c -0.1852,0.84667 -0.26458,1.48167 -0.26458,1.93146 0,0.23812 0.0265,0.44979 0.0529,0.60854 0.0265,0.21167 0.10583,0.34396 0.18521,0.44979 z m 3.3602,-0.37041 -0.0265,0.0264 c -0.0265,0.0529 -0.0529,0.10584 -0.0794,0.21167 l -0.21167,0.44979 -0.0794,0.15875 c -0.0265,0.0265 -0.0265,0.0529 -0.0265,0.0794 -0.0265,0.0529 -0.0794,0.13229 -0.0794,0.13229 -0.0265,0.0529 0,0.10583 0.0529,0.15875 l 0.15875,0.0794 c 0.10584,0.0529 0.21167,0.0529 0.26459,0.0794 0.0794,0.0265 0.13229,0.0529 0.13229,0.0529 0.0529,0.0265 0.13229,0.0265 0.15875,-0.0265 0,0 0.13229,-0.21167 0.26458,-0.47625 l 0.15875,-0.3175 c 0.0265,-0.0265 0.0265,-0.0529 0.0529,-0.10584 0,-0.0264 0.0265,-0.0529 0.0529,-0.10583 0.0265,-0.10583 0.0794,-0.15875 0.0794,-0.15875 0.0265,-0.0265 0.0265,-0.0529 0.0529,-0.10583 0,-0.0265 0.0265,-0.0529 0.0529,-0.10584 0.0265,-0.0529 0.0529,-0.10583 0.0529,-0.13229 0,0 0,-0.0265 0.0265,-0.0265 0,0 0.0265,-0.0529 0.13229,-0.21166 l 0.0794,-0.18521 0.0529,0.0265 c 0.15875,0.0529 0.29104,0.10583 0.37042,0.15875 0.0265,0 0.0529,0.0265 0.10583,0.0265 l 0.18521,0.0794 c 0.0265,0.0265 0.0529,0.0265 0.0794,0.0529 l 0.0529,0.0265 -0.0529,0.29104 c 0,0.0265 0,0.0529 -0.0264,0.10583 l -0.0265,0.0265 c -0.0265,0.0529 -0.0529,0.15875 -0.0794,0.29104 v 0.0265 c 0,0.0265 -0.0265,0.0529 -0.0265,0.10583 l -0.0264,0.0529 c -0.0265,0.0794 -0.0265,0.10583 -0.0529,0.13229 -0.0265,0.18521 -0.0794,0.39688 -0.13229,0.60854 -0.0265,0.0794 -0.0529,0.15875 -0.0529,0.23813 0,0.0265 -0.0265,0.0529 -0.0265,0.10583 v 0.0794 c 0,0.0529 0.0265,0.0794 0.0529,0.10583 0,0 0.10583,0.0529 0.13229,0.0794 0.0265,0 0.0529,0.0265 0.0794,0.0265 l 0.0529,0.0265 c 0.0265,0.0265 0.0529,0.0265 0.0794,0.0265 0,0 0.0265,0.0265 0.0794,0.0265 l 0.0794,0.0265 h 0.18521 c 0.0264,0 0.0794,-0.0529 0.0794,-0.0794 l 0.0265,-0.0265 c 0.0265,-0.0265 0.0265,-0.0794 0.0265,-0.10583 v -0.0794 c 0,-0.0265 0,-0.0529 0.0265,-0.0794 0,-0.0529 0.0265,-0.0794 0.0265,-0.13229 l 0.0529,-0.29104 c 0.0265,-0.10584 0.0265,-0.18521 0.0529,-0.23813 l 0.13229,-0.47625 c 0.0529,-0.21167 0.10583,-0.37042 0.10583,-0.42333 l 0.0265,-0.0794 c 0.0265,-0.0794 0.0529,-0.21166 0.10583,-0.37041 l 0.21167,-0.87313 0.10583,-0.52917 c 0.0265,-0.0794 0.0529,-0.15875 0.0794,-0.29104 0,-0.0794 0.0265,-0.13229 0.0265,-0.15875 v -0.0794 l 0.29104,-1.19063 c 0,-0.0265 0,-0.0529 0.0265,-0.0529 0,-0.0265 0.0265,-0.0529 0.0265,-0.0794 0,-0.0529 0.0265,-0.10583 0.0265,-0.10583 0.0265,-0.21167 0.0794,-0.29104 0.0794,-0.29104 l 0.0265,-0.0529 c 0,-0.0529 0.0265,-0.10583 0.0265,-0.18521 l 0.0265,-0.15875 c 0,-0.0529 0.0265,-0.10583 0.0529,-0.21167 v -0.15875 c 0.0265,-0.0794 0.0265,-0.1852 0.0265,-0.3175 0.0265,-0.0794 0.0265,-0.1852 0.0265,-0.1852 0,-0.0529 0,-0.10584 -0.0529,-0.1323 0,0 -0.13229,-0.10583 -0.29104,-0.21166 -0.0265,0 -0.0794,-0.0265 -0.13229,-0.0529 l -0.21167,-0.0794 -0.23812,-0.0794 c -0.0529,-0.0265 -0.10584,0 -0.1323,0.0529 l -0.1852,0.3175 -0.0794,0.15875 c -0.0529,0.0529 -0.0794,0.13229 -0.10583,0.18521 0,0.0265 -0.0265,0.0529 -0.0265,0.0794 -0.0265,0.0265 -0.0529,0.0794 -0.0794,0.10583 -0.0265,0.0529 -0.0529,0.0794 -0.0794,0.1323 l -0.37042,0.74083 c -0.0529,0.0794 -0.10583,0.18521 -0.13229,0.26458 -0.0794,0.18521 -0.21167,0.44979 -0.3175,0.635 l -0.47625,0.92604 c -0.0265,0.0265 -0.0529,0.10584 -0.10583,0.23813 l -0.0794,0.15875 -0.0265,0.0529 c 0,0 0,0.0265 -0.0265,0.0529 l -0.0529,0.10584 -0.0265,0.0529 c -0.0265,0.0529 -0.0529,0.0794 -0.0529,0.10584 0,0.0265 -0.0265,0.0529 -0.0265,0.0794 -0.0265,0.0265 -0.0794,0.10583 -0.15875,0.29104 l -0.3175,0.66146 c -0.21167,0.0794 -0.26459,0.15875 -0.29105,0.23813 z m 1.5875,-1.29646 c 0.0529,-0.10584 0.10584,-0.21167 0.1323,-0.29104 l 0.0264,-0.0529 c 0.0529,-0.10583 0.0794,-0.18521 0.10584,-0.23813 l 0.0265,-0.0794 c 0.0264,-0.0794 0.0794,-0.15875 0.13229,-0.26458 0.0529,-0.10584 0.13229,-0.23813 0.15875,-0.37042 l 0.3175,-0.68792 0.13229,-0.23812 c 0.21167,-0.39688 0.34396,-0.68792 0.44979,-0.87313 -0.0265,0.0794 -0.0265,0.21167 -0.0794,0.37042 0,0.0265 -0.0265,0.0529 -0.0265,0.10583 v 0.0529 c 0,0.0265 -0.0265,0.0529 -0.0265,0.0794 0,0.0265 -0.0265,0.0794 -0.0265,0.10584 v 0.0529 c 0,0.0265 0,0.0794 -0.0265,0.10584 -0.0265,0.10583 -0.0265,0.15875 -0.0265,0.21166 0,0 0,0.0265 -0.0265,0.15875 l -0.0529,0.18521 c 0,0.0529 -0.0265,0.0794 -0.0265,0.13229 l -0.0529,0.15875 c -0.0265,0.0529 -0.0265,0.0794 -0.0265,0.10584 0,0.0265 -0.0265,0.0794 -0.0265,0.15875 -0.0265,0.0794 -0.0265,0.13229 -0.0529,0.15875 -0.0529,0.13229 -0.0794,0.26458 -0.0794,0.37041 0,0.0265 0,0.0265 -0.0265,0.0529 0,0.0265 -0.0265,0.0529 -0.0265,0.0529 l -0.0529,0.13229 c 0,0 0,0.0529 -0.0265,0.0794 v 0.0529 c 0,0.0265 -0.0264,0.0529 -0.0264,0.0794 l -0.10584,0.42333 -0.34396,-0.13229 c -0.10583,-0.0529 -0.15875,-0.0794 -0.1852,-0.0794 l -0.0265,-0.0265 z m 1.95792,2.88396 c -0.0265,0.0529 -0.0529,0.0794 -0.0794,0.13229 l -0.0265,0.0529 c -0.0265,0.0529 -0.0529,0.10584 -0.0529,0.15875 0,0.0265 -0.0265,0.0794 -0.0529,0.1323 0,0.0265 -0.0265,0.0529 -0.0265,0.0529 0,0.0265 0,0.0265 -0.0265,0.0529 -0.0265,0.0265 -0.0265,0.0529 -0.0265,0.0529 l -0.0265,0.0529 c 0,0 -0.0265,0.0529 -0.0265,0.0794 l -0.0529,0.0794 -0.0265,0.0794 -0.0265,0.0794 c 0,0.0265 0,0.0794 0.0265,0.10584 0,0.0265 0.0529,0.0794 0.15875,0.13229 l 0.10583,0.0529 c 0.0265,0 0.0794,0.0265 0.10583,0.0529 0.1323,0.0794 0.26459,0.13229 0.34396,0.18521 0.0529,0.0265 0.10584,0.0529 0.15875,0.10583 0.18521,0.10584 0.37042,0.21167 0.47625,0.23813 0.0265,0.0265 0.0794,0.0529 0.13229,0.0794 0.0265,0.0265 0.0265,0.0265 0.0529,0.0265 0.0265,0.0265 0.0529,0.0265 0.0794,0.0265 l 0.0529,0.0265 0.0529,0.0265 c 0.0265,0 0.10583,0.0529 0.18521,0.0794 l 0.0529,0.0265 c 0.0265,0 0.0265,0.0265 0.0529,0.0265 h 0.0265 c 0.0265,0 0.0529,-0.0265 0.0794,-0.0529 l 0.1323,-0.21167 c 0,0 0,-0.0265 0.0265,-0.0265 0.0265,-0.0265 0.0529,-0.0794 0.0794,-0.1323 l 0.10583,-0.3175 c 0.0265,-0.0529 0,-0.10583 -0.0529,-0.15875 0,0 -0.18521,-0.0794 -0.42334,-0.21166 l -0.21166,-0.10584 c -0.1323,-0.0794 -0.23813,-0.13229 -0.3175,-0.15875 l -0.26459,-0.15875 0.18521,-0.34395 c 0.0529,-0.10584 0.23813,-0.42334 0.29104,-0.55563 l 1.24354,-2.56646 0.0529,-0.13229 c 0.0265,-0.0794 0.0529,-0.13229 0.0794,-0.15875 l 0.0264,-0.0265 c 0.0265,-0.0529 0.0794,-0.13229 0.15875,-0.26458 0.15875,-0.3175 0.34396,-0.635 0.50271,-0.89958 l 0.10584,-0.18521 c 0.10583,-0.15875 0.1852,-0.3175 0.23812,-0.39688 0.0794,-0.10583 0.10583,-0.18521 0.10583,-0.21166 0,-0.0265 0,-0.0794 -0.0265,-0.10584 0,0 -0.0529,-0.0794 -0.15875,-0.13229 l -0.26459,-0.15875 c -0.0794,-0.0265 -0.13229,-0.0529 -0.15875,-0.0529 -0.0529,0 -0.0794,0 -0.10583,0.0265 0,0 -0.0794,0.0794 -0.13229,0.18521 l -0.10584,0.21167 -0.21166,0.37041 c -0.0265,0.0529 -0.18521,0.29105 -0.26459,0.42334 -0.0794,0.13229 -0.10583,0.21166 -0.13229,0.26458 -0.0265,0.0265 -0.0265,0.0529 -0.0529,0.0794 -0.0265,0.0265 -0.0265,0.0529 -0.0794,0.10583 -0.0265,0.0265 -0.0529,0.0794 -0.0794,0.13229 0,0 -0.0265,0.0265 -0.0265,0.0529 0,0 -0.0265,0.0529 -0.0529,0.13229 -0.0265,0.0529 -0.0794,0.0794 -0.10583,0.13229 l -0.15875,0.29104 c -0.0265,0.0529 -0.0794,0.10584 -0.10584,0.15875 0,0 -0.0265,0.0265 -0.0265,0.0529 0,0.0265 -0.0529,0.10583 -0.0794,0.15875 l -0.10583,0.18521 c -0.13229,0.21166 -0.26459,0.50271 -0.44979,0.82021 l -0.15875,0.3175 c -0.23813,0.47625 -0.52917,1.00541 -0.58209,1.11125 z m 2.93688,1.74625 c -0.0265,0.0265 -0.0529,0.0794 -0.10584,0.10583 l -0.0529,0.0529 c -0.0265,0.0529 -0.0794,0.10583 -0.0794,0.13229 0,0.0265 -0.0529,0.0529 -0.0794,0.10583 0,0.0265 -0.0265,0.0265 -0.0265,0.0529 0,0.0265 -0.0265,0.0265 -0.0265,0.0265 l -0.0529,0.0529 -0.0265,0.0529 c 0,0 -0.0264,0.0529 -0.0264,0.0794 l -0.0529,0.0794 c 0,0 -0.0265,0.0265 -0.0265,0.0529 0,0 0,0.0264 -0.0265,0.0264 l -0.0265,0.0794 c -0.0264,0.0265 0,0.0794 0,0.10583 0,0.0265 0.0529,0.0794 0.1323,0.15875 l 0.10583,0.0794 c 0.0265,0.0265 0.0794,0.0529 0.0794,0.0529 0.1323,0.10584 0.23813,0.18521 0.3175,0.23813 0.0265,0.0265 0.0794,0.0794 0.1323,0.10583 0.1852,0.13229 0.34395,0.26459 0.44979,0.3175 0.0265,0.0265 0.0794,0.0529 0.13229,0.10584 0.0265,0.0265 0.0265,0.0529 0.0529,0.0529 0,0 0.0265,0.0265 0.0529,0.0265 l 0.0529,0.0265 0.0529,0.0265 0.0529,0.0529 0.0529,0.0529 c 0.0265,0 0.0529,0.0265 0.10583,0.0265 h 0.0265 c 0.0265,0.0265 0.0529,0.0265 0.0794,0.0265 h 0.0265 c 0,0 0.0529,-0.0265 0.0794,-0.0529 l 0.13229,-0.21167 c 0,0 0,-0.0265 0.0265,-0.0265 0.0265,-0.0265 0.0529,-0.0794 0.0794,-0.10584 0.0265,-0.0265 0.0529,-0.0529 0.0529,-0.0794 0.0265,-0.0265 0.0529,-0.0794 0.0794,-0.10584 0.0265,-0.0529 0.0529,-0.0794 0.0529,-0.0794 0.0265,-0.0265 0.0265,-0.0529 0.0265,-0.10583 0,-0.0265 -0.0265,-0.0529 -0.0529,-0.0794 0,0 -0.1852,-0.10583 -0.42333,-0.26458 l -0.21167,-0.13229 c -0.13229,-0.0794 -0.23812,-0.15875 -0.29104,-0.21167 l -0.23812,-0.18521 0.23812,-0.3175 c 0.0794,-0.10583 0.29104,-0.39687 0.37042,-0.52917 l 1.69333,-2.32833 0.0794,-0.10583 c 0.0529,-0.0794 0.0794,-0.10584 0.10583,-0.15875 l 0.0265,-0.0265 c 0.0265,-0.0529 0.0794,-0.13229 0.18521,-0.23813 0.18521,-0.26458 0.39687,-0.55562 0.58208,-0.79375 l 0.15875,-0.21166 c 0.10583,-0.13229 0.21167,-0.29104 0.29104,-0.37042 0.0794,-0.0794 0.10584,-0.18521 0.13229,-0.18521 0.0265,-0.0265 0.0265,-0.0794 0,-0.10583 0,-0.0265 -0.0529,-0.0794 -0.13229,-0.15875 l -0.23812,-0.18521 c -0.0529,-0.0529 -0.13229,-0.0794 -0.13229,-0.0794 -0.0529,-0.0265 -0.0794,0 -0.10584,0.0265 0,0 -0.0794,0.0529 -0.15875,0.15875 -0.0529,0.0794 -0.10583,0.15875 -0.13229,0.18521 l -0.26458,0.34396 c -0.0529,0.0529 -0.21167,0.26458 -0.3175,0.39688 -0.0794,0.10583 -0.13229,0.1852 -0.15875,0.23812 -0.0265,0.0265 -0.0265,0.0529 -0.0529,0.0794 -0.0265,0.0265 -0.0529,0.0529 -0.0794,0.10583 -0.0265,0.0265 -0.0529,0.0794 -0.10584,0.13229 l -0.0265,0.0265 c 0,0 -0.0265,0.0529 -0.0794,0.13229 -0.0529,0.0265 -0.0794,0.0794 -0.10583,0.13229 l -0.18521,0.26459 c -0.0529,0.0529 -0.0794,0.10583 -0.13229,0.15875 l -0.0265,0.0264 c 0,0.0265 -0.0529,0.0794 -0.10584,0.15875 l -0.13229,0.18521 c -0.15875,0.21167 -0.34396,0.44979 -0.58208,0.79375 l -0.18521,0.26459 c -0.3175,0.44979 -0.66146,0.92604 -0.74083,1.00541 z m 0.76729,2.03729 0.0529,-0.0529 z m 3.12208,-1.11125 c -0.0794,0.0794 -0.13229,0.15875 -0.23812,0.23812 l -1.74625,1.74625 c -0.0529,0.0529 -0.0529,0.13229 0,0.15875 l 0.10583,0.13229 0.0265,0.0265 0.0265,0.0265 0.0794,0.0794 0.0529,0.0529 0.18521,0.15875 c 0.0265,0.0265 0.0529,0.0265 0.0794,0.0265 0.0265,0 0.0529,0 0.0794,-0.0265 0.0265,-0.0265 0.10583,-0.0794 0.15875,-0.13229 l 0.0794,-0.0794 0.0529,-0.0529 0.0265,-0.0265 0.39687,-0.42333 0.0794,-0.0794 0.0529,-0.0529 0.0529,-0.0529 c 0.0265,-0.0265 0.0529,-0.0265 0.0529,-0.0529 l 1.53458,-1.61396 c 0.26458,-0.10583 0.58208,-0.21166 0.84667,-0.37041 l 0.37041,-0.18521 0.0265,-0.0265 c 0,0 0.0265,-0.0265 0.0794,-0.0529 0.0529,-0.0265 0.0794,-0.0265 0.0794,-0.0265 h 0.0529 c 0.0529,-0.0265 0.13229,-0.0794 0.21166,-0.1323 0.0265,-0.0265 0.0794,-0.0529 0.10584,-0.0529 0.0265,0 0.0265,-0.0265 0.0265,-0.0265 h 0.0265 c 0.26459,-0.13229 0.47625,-0.29104 0.92605,-0.55563 l 0.0264,-0.0265 c 0.0265,-0.0265 0.0794,-0.0529 0.15875,-0.10584 l 0.1323,-0.0794 c 0.15875,-0.0794 0.26458,-0.15875 0.34395,-0.21167 0.0265,-0.0265 0.0529,-0.0794 0.0265,-0.13229 0,0 -0.0265,-0.0794 -0.10583,-0.13229 l -0.0529,-0.0529 c -0.0794,-0.0529 -0.15875,-0.13229 -0.23812,-0.21167 -0.10584,-0.10583 -0.21167,-0.13229 -0.21167,-0.13229 -0.0529,-0.0265 -0.0794,-0.0265 -0.13229,0 l -0.0529,0.0529 c -0.0265,0.0265 -0.0794,0.0265 -0.10583,0.0794 -0.0265,0 -0.0529,0.0265 -0.0794,0.0265 l -0.0794,0.0265 c -0.0529,0.0265 -0.0794,0.0529 -0.0794,0.0529 l -0.8202,0.55562 c -0.18521,0.13229 -0.3175,0.21167 -0.34396,0.23813 -0.13229,0.0794 -0.23813,0.13229 -0.29104,0.15875 l -0.26459,0.13229 c -0.0265,0 -0.0529,0.0265 -0.0794,0.0529 0.0794,-0.1323 0.15875,-0.3175 0.29104,-0.55563 l 0.55562,-1.00542 c 0.0265,-0.0529 0.10584,-0.1852 0.18521,-0.34395 0.0265,-0.0529 0.0529,-0.1323 0.0794,-0.1323 l 0.0529,-0.0794 0.0265,-0.0265 c 0.0529,-0.10583 0.10584,-0.15875 0.10584,-0.15875 0.0265,-0.0265 0.0265,-0.0794 0,-0.10583 0,-0.0265 -0.0529,-0.15875 -0.21167,-0.29104 -0.21167,-0.21167 -0.37042,-0.23813 -0.39688,-0.26459 -0.0529,-0.0265 -0.10583,0 -0.13229,0.0529 0,0.0265 -0.74083,1.40229 -1.16416,2.24896 l -0.15875,0.34396 c 0,0 0,0.0265 -0.0265,0.0529 0,0 0,0.0265 -0.0265,0.0265 0,0.0265 -0.0265,0.0529 -0.0529,0.0794 l -0.0529,0.10583 c 0,0.0265 -0.0265,0.0529 -0.0529,0.0794 -0.0265,0.0265 -0.0265,0.0794 -0.0529,0.10584 l -0.0265,0.0265 -0.13229,0.3175 -0.42333,0.44979 c 0.0794,0.0529 0.0529,0.10583 -0.0265,0.15875 z m -20.955,-10.66271 c 0,0 0.15875,0 0.55563,-0.0265 l 0.0264,0.87313 v 0.5027 l 0.1323,3.36021 v 0.60854 c 0,0.0794 0.0264,0.15875 0.0264,0.18521 l 0.0265,0.34396 c -0.29104,0.0265 -0.44979,0.0794 -0.44979,0.0794 -0.0529,0.0265 -0.10583,0.0529 -0.0794,0.13229 l 0.0265,0.60854 c 0,0.0529 0.0529,0.10583 0.10584,0.10583 h 0.29104 c 0.13229,0 0.21167,-0.0265 0.29104,-0.0265 l 0.26458,-0.0264 c 0.0794,0 0.18521,-0.0265 0.37042,-0.0265 0.26458,-0.0265 0.55563,-0.0265 0.55563,-0.0265 0.0529,0 0.10583,-0.0529 0.10583,-0.13229 v -0.635 c 0,-0.0529 -0.0529,-0.10584 -0.10583,-0.13229 -0.0265,0 -0.1323,-0.0265 -0.55563,0 v -0.0265 l -0.0265,-0.34396 v -0.52917 c 0,-0.0529 -0.0265,-0.18521 -0.0265,-0.3175 l -0.0529,-1.03187 v -0.39688 c 0,-0.0529 -0.0265,-0.15875 -0.0265,-0.37041 v -0.0794 c 0,-0.0265 0,-0.0794 -0.0265,-0.15875 l -0.0265,-0.50271 v -0.79375 l -0.0265,-0.87312 v -0.47625 c 0.37042,-0.0529 0.55563,-0.0529 0.55563,-0.0529 0.0265,0 0.0794,0 0.0794,-0.0265 0.0265,-0.0265 0.0265,-0.0529 0.0265,-0.0794 v -0.50271 c 0,-0.0265 -0.0265,-0.0529 -0.0265,-0.0794 -0.0265,-0.0264 -0.0529,-0.0264 -0.0794,-0.0264 0,0 -0.87313,0.0529 -0.97896,0.0529 -0.0529,0 -0.10583,0 -0.15875,0.0265 -0.10583,0.0265 -0.26458,0.0265 -0.37042,0.0265 -0.1852,0 -0.44979,0.0529 -0.47625,0.0529 -0.0529,0 -0.10583,0.0794 -0.10583,0.13229 l 0.0265,0.52916 c 0.0265,0.0265 0.0794,0.0794 0.13229,0.0794 z m -8.12271,2.30187 c 0.0265,0.0529 0.0794,0.0794 0.13229,0.0529 0,0 0.10584,-0.0265 0.29105,-0.10583 0.0529,-0.0265 0.13229,-0.0529 0.21166,-0.10584 h 0.0265 l 0.26458,0.68792 c 0.0265,0.10583 0.0794,0.23813 0.15875,0.44979 l 1.13771,2.93688 c 0.0529,0.13229 0.10584,0.26458 0.10584,0.3175 l 0.0794,0.23812 c 0.0529,0.0794 0.0529,0.13229 0.0794,0.15875 l 0.1852,0.44979 c -0.0265,0 -0.0794,0.0265 -0.10583,0.0265 -0.18521,0.0529 -0.44979,0.15875 -0.47625,0.18521 -0.0529,0.0265 -0.0794,0.10583 -0.0529,0.15875 l 0.18521,0.44979 c 0.0265,0.0529 0.0529,0.0794 0.10584,0.0794 h 0.0265 c 0,0 0.26459,-0.0529 0.9525,-0.3175 0.68792,-0.26459 0.97896,-0.37042 0.97896,-0.39688 0.0529,-0.0265 0.0794,-0.10583 0.0529,-0.15875 l -0.18521,-0.47625 c -0.0265,-0.0529 -0.10583,-0.0794 -0.15875,-0.0794 0,0 -0.18521,0.0794 -0.3175,0.10583 -0.0529,0.0265 -0.15875,0.0529 -0.26458,0.10583 -0.0265,-0.0529 -0.0529,-0.13229 -0.0529,-0.1852 l -0.13229,-0.3175 c -0.0265,-0.0529 -0.0529,-0.1323 -0.0529,-0.18521 l -0.0265,-0.0529 c 0,-0.0265 -0.0265,-0.0529 -0.0265,-0.10583 l -0.0529,-0.10584 c -0.0265,-0.0529 -0.0794,-0.15875 -0.10583,-0.29104 l -0.37042,-0.92604 c 0,-0.0265 -0.0265,-0.0529 -0.0529,-0.13229 l -0.0794,-0.23813 c -0.0265,-0.0529 -0.0794,-0.13229 -0.13229,-0.3175 l -0.0265,-0.0794 c 0,-0.0265 -0.0265,-0.0794 -0.0529,-0.13229 l -0.18521,-0.44979 c -0.0529,-0.15875 -0.0794,-0.26459 -0.13229,-0.34396 -0.0265,-0.0794 -0.0794,-0.21167 -0.15875,-0.39688 l -0.29104,-0.76729 c -0.0529,-0.13229 -0.10583,-0.26458 -0.13229,-0.37042 0.26458,-0.13229 0.50271,-0.23812 0.50271,-0.23812 0.0529,-0.0265 0.0794,-0.10583 0.0794,-0.15875 l -0.21167,-0.55563 c -0.0265,-0.0529 -0.0794,-0.0794 -0.13229,-0.0794 -0.0265,0 -0.21166,0.0265 -0.87312,0.34396 -0.66146,0.3175 -1.00542,0.50271 -1.03188,0.50271 -0.0529,0.0265 -0.0794,0.10583 -0.0529,0.15875 z m -10.92729,7.06438 c 0.0529,0.0265 0.10583,0.0529 0.15875,0 0,0 0.15875,-0.13229 0.26458,-0.21167 l 0.21167,-0.21166 0.60854,0.635 c 0.0794,0.0794 0.15875,0.1852 0.3175,0.37041 l 2.27542,2.38125 c 0.10583,0.10584 0.18521,0.18521 0.23812,0.26459 l 0.18521,0.1852 c 0.0794,0.0529 0.10584,0.10584 0.13229,0.1323 l 0.21167,0.21166 c -0.21167,0.26459 -0.37042,0.44979 -0.37042,0.44979 -0.0529,0.0529 -0.0264,0.1323 0.0265,0.15875 l 0.47625,0.39688 c 0.0265,0.0265 0.0529,0.0265 0.0794,0.0265 0.0265,0 0.0529,0 0.0794,-0.0265 0,0 0.0794,-0.0529 0.21167,-0.21167 0.0794,-0.10583 0.13229,-0.15875 0.18521,-0.23812 l 0.29104,-0.34396 c 0.0265,-0.0265 0.0529,-0.0529 0.0529,-0.0794 l 0.0794,-0.10583 c 0.18521,-0.23812 0.47625,-0.55562 0.47625,-0.55562 0.0529,-0.0529 0.0529,-0.1323 0,-0.15875 l -0.39687,-0.37042 c -0.0529,-0.0529 -0.10584,-0.0529 -0.15875,0 l -0.47625,0.42333 -0.18521,-0.26458 c -0.0529,-0.0529 -0.10584,-0.10583 -0.13229,-0.15875 l -0.0529,-0.0529 -0.0794,-0.0794 -0.0794,-0.0794 c -0.0529,-0.0265 -0.13229,-0.10583 -0.21167,-0.21166 l -0.71437,-0.74084 -0.10584,-0.10583 -0.15875,-0.18521 c -0.0529,-0.0265 -0.13229,-0.10583 -0.26458,-0.23812 l -0.0529,-0.0529 -0.10583,-0.10583 -0.34396,-0.37042 c -0.10583,-0.13229 -0.18521,-0.21167 -0.23812,-0.26458 -0.0529,-0.0529 -0.15875,-0.18521 -0.3175,-0.34396 l -0.55563,-0.60854 c -0.10583,-0.10584 -0.21166,-0.21167 -0.29104,-0.3175 0.0265,0 0.0265,-0.0265 0.0529,-0.0529 0.15875,-0.13229 0.39687,-0.39688 0.39687,-0.42333 0.0529,-0.0529 0.0265,-0.1323 0,-0.15875 l -0.37041,-0.3175 c -0.0529,-0.0265 -0.10584,-0.0529 -0.15875,0 0,0 -0.18521,0.13229 -0.60855,0.52916 -0.0265,0.0265 -0.0794,0.0794 -0.15875,0.13229 -0.55562,0.52917 -0.79375,0.82021 -0.8202,0.82021 -0.0529,0.0529 -0.0265,0.13229 0,0.18521 z"
         inkscape:connector-curvature="0"
         style="fill:#263d4b;fill-opacity:1;stroke-width:0.264583" /></g></g></svg>
