<?xml version="1.0" encoding="iso-8859-1"?>
<!-- Generator: Adobe Illustrator 16.0.0, SVG Export Plug-In . SVG Version: 6.00 Build 0)  -->
<!DOCTYPE svg PUBLIC "-//W3C//DTD SVG 1.1//EN" "http://www.w3.org/Graphics/SVG/1.1/DTD/svg11.dtd">
<svg version="1.1" id="Capa_1" xmlns="http://www.w3.org/2000/svg" xmlns:xlink="http://www.w3.org/1999/xlink" x="0px" y="0px"
	 width="575.256px" height="575.256px" viewBox="0 0 575.256 575.256" style="enable-background:new 0 0 575.256 575.256;"
	 xml:space="preserve">
<g>
	<path d="M568.891,228.697l-81.481-25.031v-60.698c0-3.452-1.946-6.597-5.043-8.115L262.328,25.965
		c-0.024-0.012-0.073-0.012-0.171-0.012c-0.416-0.221-2.056-0.979-4.443-0.845c-2.485,0.135-4.296,1.334-4.639,1.604l0,0
		L96.146,138.61c-2.387,1.701-3.807,4.443-3.807,7.369v78.128l-29.156-3.477c-0.012,0-0.098,0.012-0.257,0.037
		c-0.379-0.025-1.261-0.062-2.093,0.049c-1.053,0.135-1.958,0.478-2.301,0.612c-0.049,0.012-0.085,0.024-0.085,0.024L5.386,244.854
		c-3.28,1.444-5.386,4.7-5.386,8.274v151.371c0,3.317,1.812,6.365,4.7,7.932l53.183,29.156c0,0,1.396,0.808,3.072,1.016
		c1.494,0.195,2.583,0,2.583,0l28.788-4.187V455.1c0,3.317,1.812,6.353,4.7,7.943l156.905,85.986c0,0,1.75,1.016,4.039,1.126
		c1.75,0.086,3.464-0.551,3.464-0.551v-0.049c0.024,0,0.049,0,0.049,0l220.051-83.66l87.883-33.416
		c3.513-1.334,5.839-4.699,5.839-8.457v-186.66C575.292,233.373,572.697,229.859,568.891,228.697z M25.251,366.874
		c0,0.942-0.441,1.836-1.2,2.398c-0.539,0.404-1.175,0.624-1.824,0.624c-0.27,0-0.539-0.036-0.808-0.109l-10.073-2.804
		c-1.31-0.367-2.215-1.554-2.215-2.913v-28.078c0-0.845,0.355-1.665,0.991-2.24c0.625-0.575,1.469-0.845,2.313-0.759l10.073,0.979
		c1.542,0.159,2.729,1.444,2.729,2.999v29.902H25.251z M25.251,307.081c0,1.579-1.212,2.877-2.779,3.011l-10.073,0.833
		c-0.074,0-0.159,0-0.245,0c-0.747,0-1.481-0.27-2.044-0.783c-0.624-0.576-0.979-1.371-0.979-2.229v-28.078
		c0-1.371,0.93-2.57,2.252-2.913l10.074-2.656c0.906-0.232,1.86-0.037,2.607,0.539c0.747,0.563,1.175,1.444,1.175,2.375v29.902
		H25.251z M54.701,375.062c0,0.942-0.44,1.823-1.188,2.398c-0.539,0.404-1.175,0.612-1.824,0.612c-0.269,0-0.539-0.037-0.808-0.11
		l-13.807-3.843c-1.31-0.355-2.215-1.555-2.215-2.901v-32.718c0-0.844,0.354-1.664,0.991-2.239c0.624-0.575,1.469-0.845,2.326-0.759
		l13.807,1.346c1.555,0.147,2.729,1.444,2.729,2.999v35.215H54.701z M54.701,304.657c0,1.567-1.212,2.877-2.766,3.012l-13.819,1.138
		c-0.085,0-0.159,0-0.245,0c-0.759,0-1.493-0.281-2.044-0.795c-0.625-0.575-0.979-1.371-0.979-2.228v-32.705
		c0-1.371,0.931-2.57,2.252-2.925l13.819-3.623c0.906-0.245,1.86-0.049,2.607,0.526c0.735,0.575,1.175,1.456,1.175,2.387V304.657z
		 M130.283,396.042c0,0.942-0.441,1.836-1.188,2.398c-0.526,0.404-1.175,0.624-1.824,0.624c-0.281,0-0.551-0.036-0.808-0.11
		l-17.809-4.944c-1.31-0.367-2.216-1.555-2.216-2.901V345.49c0-0.856,0.355-1.665,0.992-2.24c0.624-0.575,1.469-0.844,2.313-0.783
		l17.809,1.751c1.554,0.146,2.729,1.444,2.729,2.998V396.042z M130.283,298.415c0,1.567-1.2,2.877-2.766,2.999l-17.81,1.469
		c-0.073,0.013-0.159,0.013-0.245,0.013c-0.759,0-1.493-0.282-2.044-0.796c-0.625-0.575-0.979-1.383-0.979-2.228v-45.618
		c0-1.371,0.93-2.57,2.252-2.913l17.809-4.688c0.906-0.232,1.873-0.037,2.607,0.539c0.734,0.563,1.175,1.444,1.175,2.375V298.415z
		 M130.283,200.765c0,1.199-0.698,2.289-1.787,2.766l-17.809,7.882c-0.392,0.172-0.808,0.27-1.224,0.27
		c-0.575,0-1.15-0.171-1.652-0.49c-0.857-0.563-1.371-1.518-1.371-2.534v-45.618c0-1.041,0.539-2.008,1.42-2.559l17.809-11.089
		c0.931-0.587,2.105-0.612,3.06-0.085c0.955,0.539,1.555,1.542,1.555,2.644V200.765L130.283,200.765z M174.653,408.367
		c0,0.942-0.441,1.836-1.188,2.399c-0.526,0.403-1.175,0.624-1.824,0.624c-0.269,0-0.539-0.037-0.808-0.11l-23.856-6.634
		c-1.31-0.355-2.215-1.555-2.215-2.901v-52.521c0-0.845,0.355-1.665,0.991-2.24c0.625-0.562,1.469-0.832,2.313-0.759l23.868,2.325
		c1.542,0.159,2.717,1.444,2.717,2.999V408.367z M174.653,294.743c0,1.579-1.2,2.877-2.767,3.011l-23.855,1.971
		c-0.086,0-0.171,0.013-0.257,0.013c-0.759,0-1.481-0.294-2.044-0.808c-0.624-0.575-0.979-1.371-0.979-2.228v-52.51
		c0-1.371,0.93-2.57,2.252-2.913L170.858,235c0.906-0.245,1.873-0.049,2.607,0.526c0.747,0.575,1.175,1.456,1.175,2.387v56.83
		H174.653z M174.653,181.12c0,1.2-0.698,2.289-1.787,2.767l-23.856,10.563c-0.392,0.184-0.808,0.257-1.224,0.257
		c-0.575,0-1.15-0.171-1.64-0.489c-0.856-0.551-1.371-1.506-1.371-2.534v-52.51c0-1.041,0.539-2.007,1.42-2.558l23.855-14.872
		c0.93-0.587,2.105-0.612,3.06-0.086c0.955,0.539,1.555,1.542,1.555,2.644v56.818H174.653z M236.391,425.516
		c0,0.894-0.343,1.75-0.979,2.362c-1.102,1.113-2.583,1.113-3.097,1.113c0,0,0,0-0.012,0c-5.949,0-29.033-8.311-33.587-9.963
		c-1.199-0.429-1.983-1.566-1.983-2.84v-61.886c0-0.844,0.355-1.664,0.979-2.239c0.636-0.575,1.481-0.845,2.326-0.759l33.623,3.28
		c1.542,0.159,2.729,1.456,2.729,2.998C236.391,358.244,236.367,422.614,236.391,425.516z M236.391,289.651
		c0,1.566-1.211,2.877-2.778,2.999l-33.624,2.778c-0.085,0-0.171,0.013-0.245,0.013c-0.759,0-1.493-0.294-2.044-0.809
		c-0.625-0.575-0.979-1.37-0.979-2.228v-61.885c0-1.359,0.918-2.57,2.252-2.913l33.623-8.837c0.906-0.245,1.861-0.049,2.607,0.526
		s1.175,1.457,1.175,2.387v67.968H236.391z M236.391,153.776c0,1.199-0.71,2.276-1.799,2.754l-33.623,14.896
		c-0.392,0.184-0.808,0.257-1.224,0.257c-0.575,0-1.15-0.171-1.652-0.489c-0.857-0.563-1.371-1.506-1.371-2.534v-61.874
		c0-1.052,0.539-2.02,1.42-2.57l33.624-20.942c0.93-0.587,2.105-0.612,3.06-0.086c0.955,0.539,1.554,1.542,1.554,2.644v67.944
		H236.391z M370.052,119.908c0-1.016,0.515-1.958,1.359-2.521c0.844-0.563,1.921-0.649,2.852-0.257l35.888,15.52
		c1.102,0.478,1.823,1.567,1.823,2.778v53.599c0,0.955-0.452,1.86-1.224,2.423c-0.526,0.392-1.15,0.6-1.787,0.6
		c-0.294,0-0.6-0.049-0.881-0.135l-35.888-11.028c-1.273-0.392-2.13-1.566-2.13-2.876v-58.103H370.052z M370.052,236.078
		c0-0.894,0.392-1.75,1.077-2.313c0.686-0.575,1.604-0.808,2.473-0.649l35.9,6.536c1.432,0.27,2.472,1.506,2.472,2.962v54.1
		c0,0.832-0.343,1.641-0.967,2.216c-0.562,0.526-1.297,0.808-2.056,0.808c-0.074,0-0.147-0.013-0.209-0.013l-35.887-2.558
		c-1.579-0.11-2.804-1.42-2.804-2.999V236.078z M276.624,79.516c0-1.016,0.514-1.958,1.359-2.521
		c0.844-0.551,1.921-0.649,2.852-0.245l50.98,22.044c1.102,0.478,1.823,1.567,1.823,2.779v63.391c0,0.955-0.452,1.861-1.224,2.424
		c-0.526,0.392-1.163,0.6-1.787,0.6c-0.294,0-0.6-0.049-0.894-0.135l-50.979-15.667c-1.273-0.379-2.13-1.555-2.13-2.876V79.516
		L276.624,79.516z M276.624,288.819v-69.768c0-0.894,0.392-1.75,1.077-2.313c0.686-0.575,1.591-0.808,2.473-0.649l50.979,9.291
		c1.432,0.269,2.484,1.518,2.484,2.974v63.39c0,0.833-0.343,1.628-0.954,2.203c-0.563,0.526-1.31,0.82-2.068,0.82
		c-0.062,0-0.123,0-0.172-0.012l-50.979-2.913C277.873,291.732,276.624,290.423,276.624,288.819z M376.086,497.475
		c0,1.261-0.783,2.362-1.945,2.815l-66.721,25.361c-0.343,0.134-0.71,0.195-1.064,0.195c-0.601,0-1.212-0.184-1.714-0.526
		c-0.82-0.563-1.298-1.493-1.298-2.484V356.764c0-1.592,1.225-2.901,2.815-3.012l66.721-4.517c0.844-0.061,1.652,0.245,2.264,0.809
		c0.612,0.562,0.955,1.358,0.955,2.203v145.228H376.086z M456.491,466.898c0,1.261-0.771,2.375-1.946,2.815l-44.518,16.928
		c-0.354,0.135-0.709,0.208-1.076,0.208c-0.601,0-1.2-0.195-1.714-0.538c-0.808-0.563-1.298-1.493-1.298-2.484V349.823
		c0-1.591,1.225-2.9,2.815-3.011l44.517-3.012c0.845-0.061,1.652,0.233,2.265,0.796c0.612,0.563,0.955,1.371,0.955,2.203V466.898z
		 M469.355,299.505c0,0.832-0.343,1.628-0.955,2.203c-0.563,0.526-1.31,0.82-2.068,0.82c-0.062,0-0.122,0-0.172,0l-26.634-1.53
		c-1.591-0.098-2.84-1.408-2.84-3.011V248.22c0-0.894,0.404-1.75,1.077-2.326c0.698-0.575,1.604-0.796,2.484-0.649l26.622,4.859
		c1.433,0.257,2.485,1.505,2.485,2.962V299.505L469.355,299.505z M469.355,206.652c0,0.955-0.453,1.861-1.225,2.424
		c-0.526,0.392-1.162,0.6-1.787,0.6c-0.293,0-0.6-0.049-0.894-0.147l-26.622-8.176c-1.272-0.392-2.129-1.567-2.129-2.876v-49.768
		c0-1.016,0.514-1.958,1.358-2.521s1.922-0.649,2.852-0.245l26.635,11.506c1.102,0.478,1.823,1.566,1.823,2.778v46.426H469.355z
		 M522.574,382.112c0,1.444-1.027,2.693-2.447,2.962l-19.352,3.733c-0.196,0.037-0.38,0.049-0.563,0.049
		c-0.697,0-1.383-0.244-1.922-0.697c-0.697-0.563-1.089-1.42-1.089-2.313v-42.191c0-1.591,1.224-2.9,2.815-3.011l19.352-1.31
		c0.832-0.049,1.652,0.244,2.264,0.808c0.612,0.562,0.955,1.358,0.955,2.203v39.768H522.574z M522.574,302.564
		c0,0.82-0.342,1.616-0.954,2.191c-0.563,0.526-1.298,0.819-2.068,0.819c-0.062,0-0.11,0-0.172,0l-19.352-1.113
		c-1.591-0.098-2.839-1.407-2.839-3.011V259.26c0-0.893,0.392-1.738,1.076-2.313c0.686-0.575,1.592-0.808,2.473-0.661l19.34,3.525
		c1.432,0.257,2.484,1.518,2.484,2.974v39.779H522.574z M555.292,375.797c0,1.444-1.028,2.692-2.448,2.962l-15.483,2.986
		c-0.195,0.037-0.379,0.049-0.562,0.049c-0.698,0-1.384-0.244-1.922-0.697c-0.698-0.575-1.09-1.42-1.09-2.313v-37.626
		c0-1.579,1.236-2.889,2.815-2.999l15.472-1.053c0.832-0.061,1.652,0.245,2.265,0.796c0.611,0.575,0.954,1.371,0.954,2.216V375.797
		L555.292,375.797z M555.292,304.425c0,0.833-0.343,1.628-0.942,2.203c-0.562,0.526-1.297,0.82-2.068,0.82
		c-0.062,0-0.11,0-0.172-0.012l-15.471-0.882c-1.592-0.086-2.84-1.407-2.84-3.011v-37.136c0-0.881,0.379-1.726,1.053-2.301
		c0.661-0.575,1.542-0.82,2.411-0.698l15.483,2.338c1.481,0.22,2.559,1.494,2.559,2.987v35.691H555.292z"/>
</g>
<g>
</g>
<g>
</g>
<g>
</g>
<g>
</g>
<g>
</g>
<g>
</g>
<g>
</g>
<g>
</g>
<g>
</g>
<g>
</g>
<g>
</g>
<g>
</g>
<g>
</g>
<g>
</g>
<g>
</g>
</svg>
