<?xml version="1.0" encoding="UTF-8" standalone="no"?><!-- Generator: Gravit.io --><svg xmlns="http://www.w3.org/2000/svg" xmlns:xlink="http://www.w3.org/1999/xlink" style="isolation:isolate" viewBox="0 0 24 24" width="24pt" height="24pt"><defs><clipPath id="_clipPath_3DVnbVXk6BABoJ4oFx4E1txHN6Hu0EvO"><rect width="24" height="24"/></clipPath></defs><g clip-path="url(#_clipPath_3DVnbVXk6BABoJ4oFx4E1txHN6Hu0EvO)"><defs><filter id="CO374eYS4LRje51WEi1WJFDcKnI2zp4N" x="-200%" y="-200%" width="400%" height="400%" filterUnits="objectBoundingBox" color-interpolation-filters="sRGB"><feGaussianBlur xmlns="http://www.w3.org/2000/svg" stdDeviation="4.293609062839028"/></filter></defs><g filter="url(#CO374eYS4LRje51WEi1WJFDcKnI2zp4N)"><ellipse vector-effect="non-scaling-stroke" cx="12" cy="22.56451612903226" rx="2.419354838709676" ry="0.5645161290322598" fill="rgb(162,162,162)" fill-opacity="0.7"/></g><g><path d=" M 3.808 8.748 C 3.808 4.215 7.477 0.546 11.997 0.546 C 16.523 0.546 20.192 4.215 20.192 8.748 C 20.192 11.181 19.128 13.374 17.44 14.876 C 17.347 14.956 14.13 17.954 11.977 22.546 C 11.166 19.296 8.022 16.172 6.58 14.896 C 4.878 13.387 3.808 11.194 3.808 8.748 Z  M 17.061 8.748" fill="rgb(37,19,81)"/></g><g><path d=" M 14.624 4.941 L 14.624 5.816 L 13.75 5.816 L 13.75 4.941 L 10.25 4.941 L 10.25 5.816 L 9.376 5.816 L 9.376 4.941 L 8.501 4.941 L 8.501 12.815 L 9.376 12.815 L 9.376 11.94 L 10.25 11.94 L 10.25 12.815 L 13.75 12.815 L 13.75 11.94 L 14.624 11.94 L 14.624 12.815 L 15.499 12.815 L 15.499 4.941 L 14.624 4.941 Z  M 10.25 11.065 L 9.376 11.065 L 9.376 10.19 L 10.25 10.19 L 10.25 11.065 Z  M 10.25 9.315 L 9.376 9.315 L 9.376 8.441 L 10.25 8.441 L 10.25 9.315 Z  M 10.25 7.566 L 9.376 7.566 L 9.376 6.691 L 10.25 6.691 L 10.25 7.566 Z  M 14.624 11.065 L 13.75 11.065 L 13.75 10.19 L 14.624 10.19 L 14.624 11.065 Z  M 14.624 9.315 L 13.75 9.315 L 13.75 8.441 L 14.624 8.441 L 14.624 9.315 Z  M 14.624 7.566 L 13.75 7.566 L 13.75 6.691 L 14.624 6.691 L 14.624 7.566 Z " fill="rgb(255,253,152)"/><path d=" M 6.751 3.629 L 17.249 3.629 L 17.249 14.127 L 6.751 14.127 L 6.751 3.629 Z " fill="none"/></g></g></svg>