<?xml version="1.0" encoding="UTF-8" standalone="no"?><!-- Generator: Gravit.io --><svg xmlns="http://www.w3.org/2000/svg" xmlns:xlink="http://www.w3.org/1999/xlink" style="isolation:isolate" viewBox="0 0 24 24" width="24pt" height="24pt"><defs><clipPath id="_clipPath_M6GP1y6ft2A14tiBKsTWeE7oe28EFnBC"><rect width="24" height="24"/></clipPath></defs><g clip-path="url(#_clipPath_M6GP1y6ft2A14tiBKsTWeE7oe28EFnBC)"><defs><filter id="a6QcUjn0BHM31YwOSKgUDqM9m69f8Fdi" x="-200%" y="-200%" width="400%" height="400%" filterUnits="objectBoundingBox" color-interpolation-filters="sRGB"><feGaussianBlur xmlns="http://www.w3.org/2000/svg" stdDeviation="4.293609062839028"/></filter></defs><g filter="url(#a6QcUjn0BHM31YwOSKgUDqM9m69f8Fdi)"><ellipse vector-effect="non-scaling-stroke" cx="12" cy="22.56451612903226" rx="2.419354838709676" ry="0.5645161290322598" fill="rgb(162,162,162)" fill-opacity="0.7"/></g><g><path d=" M 3.808 8.748 C 3.808 4.215 7.477 0.546 11.997 0.546 C 16.523 0.546 20.192 4.215 20.192 8.748 C 20.192 11.181 19.128 13.374 17.44 14.876 C 17.347 14.956 14.13 17.954 11.977 22.546 C 11.166 19.296 8.022 16.172 6.58 14.896 C 4.878 13.387 3.808 11.194 3.808 8.748 Z  M 17.061 8.748" fill="rgb(30,82,108)"/></g><g><rect x="11.615" y="5.755" width="0.769" height="4.808" transform="matrix(1,0,0,1,0,0)" fill="rgb(255,255,255)"/><path d=" M 12.385 10.37 L 11.615 10.37 C 11.509 10.37 11.423 10.456 11.423 10.563 L 11.423 13.255 L 12.577 13.255 L 12.577 10.563 C 12.577 10.456 12.491 10.37 12.385 10.37 Z " fill="rgb(255,255,255)"/><g><path d=" M 13.845 13.459 L 12.577 13.062 L 11.423 13.062 L 10.155 13.459 C 9.994 13.509 9.885 13.658 9.885 13.826 L 14.115 13.826 C 14.115 13.658 14.006 13.509 13.845 13.459 Z " fill="rgb(255,255,255)"/><circle vector-effect="non-scaling-stroke" cx="12.00000170670376" cy="4.216548181545216" r="0.5769152916375297" fill="rgb(255,255,255)"/></g><g><path d=" M 10.637 10.483 L 8.731 6.29 L 8.731 5.563 C 8.731 5.456 8.645 5.37 8.539 5.37 C 8.432 5.37 8.346 5.456 8.346 5.563 L 8.346 6.29 L 6.44 10.483 C 6.397 10.58 6.439 10.694 6.536 10.738 C 6.632 10.781 6.747 10.739 6.791 10.642 L 8.539 6.797 L 10.287 10.642 C 10.319 10.713 10.389 10.755 10.462 10.755 C 10.488 10.755 10.515 10.749 10.541 10.738 C 10.638 10.694 10.681 10.58 10.637 10.483 Z " fill="rgb(255,255,255)"/><path d=" M 17.56 10.483 L 15.654 6.29 L 15.654 5.563 C 15.654 5.456 15.568 5.37 15.461 5.37 C 15.355 5.37 15.269 5.456 15.269 5.563 L 15.269 6.29 L 13.363 10.483 C 13.319 10.58 13.362 10.694 13.459 10.738 C 13.555 10.781 13.67 10.739 13.713 10.642 L 15.461 6.797 L 17.209 10.642 C 17.242 10.713 17.312 10.755 17.385 10.755 C 17.411 10.755 17.438 10.749 17.464 10.738 C 17.561 10.694 17.603 10.58 17.56 10.483 Z " fill="rgb(255,255,255)"/></g><path d=" M 14.115 14.409 L 9.885 14.409 C 9.778 14.409 9.692 14.322 9.692 14.216 L 9.692 13.832 L 14.308 13.832 L 14.308 14.216 C 14.308 14.323 14.222 14.409 14.115 14.409 Z " fill="rgb(255,255,255)"/><g><path d=" M 14.308 14.024 L 9.692 14.024 C 9.586 14.024 9.5 13.938 9.5 13.832 L 9.5 13.832 C 9.5 13.725 9.586 13.639 9.692 13.639 L 14.308 13.639 C 14.414 13.639 14.5 13.725 14.5 13.832 L 14.5 13.832 C 14.5 13.938 14.414 14.024 14.308 14.024 Z " fill="rgb(255,255,255)"/><path d=" M 12.385 5.947 L 11.615 5.947 C 11.509 5.947 11.423 5.861 11.423 5.755 L 11.423 5.755 C 11.423 5.649 11.509 5.563 11.615 5.563 L 12.385 5.563 C 12.491 5.563 12.577 5.649 12.577 5.755 L 12.577 5.755 C 12.577 5.861 12.491 5.947 12.385 5.947 Z " fill="rgb(255,255,255)"/></g><g><circle vector-effect="non-scaling-stroke" cx="8.538531741241815" cy="6.331875205065175" r="0.38460293297060666" fill="rgb(255,255,255)"/><circle vector-effect="non-scaling-stroke" cx="15.461449887802463" cy="6.331875205065175" r="0.38460293297060666" fill="rgb(255,255,255)"/><path d=" M 10.462 10.37 L 6.616 10.37 C 6.509 10.37 6.423 10.456 6.423 10.563 C 6.423 11.317 7.352 11.909 8.539 11.909 C 9.725 11.909 10.654 11.317 10.654 10.563 C 10.654 10.456 10.568 10.37 10.462 10.37 Z " fill="rgb(255,255,255)"/><path d=" M 17.384 10.37 L 13.538 10.37 C 13.432 10.37 13.346 10.456 13.346 10.563 C 13.346 11.317 14.275 11.909 15.461 11.909 C 16.648 11.909 17.577 11.317 17.577 10.563 C 17.577 10.456 17.491 10.37 17.384 10.37 Z " fill="rgb(255,255,255)"/></g><path d=" M 15.685 5.151 L 12.385 4.601 L 11.615 4.601 L 8.315 5.151 C 8.222 5.167 8.154 5.247 8.154 5.341 L 8.154 5.37 C 8.154 5.477 8.24 5.563 8.346 5.563 L 15.654 5.563 C 15.76 5.563 15.846 5.477 15.846 5.37 L 15.846 5.341 C 15.846 5.247 15.778 5.167 15.685 5.151 Z " fill="rgb(255,255,255)"/></g></g></svg>