<?xml version="1.0" encoding="UTF-8" standalone="no"?>
<svg
   xmlns:dc="http://purl.org/dc/elements/1.1/"
   xmlns:cc="http://creativecommons.org/ns#"
   xmlns:rdf="http://www.w3.org/1999/02/22-rdf-syntax-ns#"
   xmlns:svg="http://www.w3.org/2000/svg"
   xmlns="http://www.w3.org/2000/svg"
   xmlns:sodipodi="http://sodipodi.sourceforge.net/DTD/sodipodi-0.dtd"
   xmlns:inkscape="http://www.inkscape.org/namespaces/inkscape"
   style="isolation:isolate"
   viewBox="0 0 24 24"
   width="24pt"
   height="24pt"
   version="1.1"
   id="svg1168"
   sodipodi:docname="fashion_marker.svg"
   inkscape:version="1.0.2 (394de47547, 2021-03-26)">
  <metadata
     id="metadata1172">
    <rdf:RDF>
      <cc:Work
         rdf:about="">
        <dc:format>image/svg+xml</dc:format>
        <dc:type
           rdf:resource="http://purl.org/dc/dcmitype/StillImage" />
        <dc:title></dc:title>
      </cc:Work>
    </rdf:RDF>
  </metadata>
  <sodipodi:namedview
     pagecolor="#ffffff"
     bordercolor="#666666"
     borderopacity="1"
     objecttolerance="10"
     gridtolerance="10"
     guidetolerance="10"
     inkscape:pageopacity="0"
     inkscape:pageshadow="2"
     inkscape:window-width="924"
     inkscape:window-height="638"
     id="namedview1170"
     showgrid="false"
     inkscape:zoom="7.2781756"
     inkscape:cx="13.170644"
     inkscape:cy="25.591712"
     inkscape:window-x="1072"
     inkscape:window-y="49"
     inkscape:window-maximized="0"
     inkscape:current-layer="svg1168" />
  <defs
     id="defs1162">
    <clipPath
       id="_clipPath_UqtY1ASWxFxx7WIAT4m9kMg9Kb43TZwz">
      <rect
         width="24"
         height="24"
         id="rect1159" />
    </clipPath>
  </defs>
  <g
     clip-path="url(#_clipPath_UqtY1ASWxFxx7WIAT4m9kMg9Kb43TZwz)"
     id="g1166"
     style="fill:#87cdde">
    <path
       d=" M 18.219 16.551 C 19.896 14.836 21.02 12.588 21.02 10.02 C 21.02 5.042 16.978 1 12 1 C 7.022 1 2.98 5.042 2.98 10.02 C 2.98 12.62 4.007 14.787 5.844 16.61 L 5.844 16.61 L 11.633 23 L 18.23 16.551 L 18.219 16.551 Z "
       fill="rgb(104,188,178)"
       id="path1164"
       style="fill:#87cdde" />
  </g>
  <path
     d="M 17.398007,12.366035 12.507293,8.6979999 V 8.1804935 C 13.445628,7.9018364 14.099619,6.9464413 13.889204,5.8773084 13.741346,5.1323277 13.14991,4.5124582 12.40493,4.3418519 11.108322,4.0461343 9.9481985,5.0299639 9.9481985,6.2810772 h 1.1373765 c 0,-0.4720111 0.38102,-0.8530319 0.853031,-0.8530319 0.472011,0 0.853032,0.3810208 0.853032,0.8530319 0,0.4776976 -0.392395,0.8644046 -0.870092,0.8530306 -0.307092,-0.00568 -0.551628,0.25591 -0.551628,0.5630017 V 8.6979999 L 6.4792041,12.366035 c -0.4378896,0.329839 -0.2047276,1.023638 0.3412126,1.023638 h 5.1181893 5.118188 c 0.545941,0 0.779103,-0.693799 0.341213,-1.023638 z M 8.5264797,12.252298 11.938606,9.6932029 15.350732,12.252298 Z"
     id="path1765"
     style="stroke-width:0.568689" />
</svg>
