<?xml version="1.0" encoding="UTF-8" standalone="no"?><!-- Generator: Gravit.io --><svg xmlns="http://www.w3.org/2000/svg" xmlns:xlink="http://www.w3.org/1999/xlink" style="isolation:isolate" viewBox="0 0 24 24" width="24pt" height="24pt"><defs><clipPath id="_clipPath_htbl9s8x49gJo6qNYx5D7KH6lrYGjkJi"><rect width="24" height="24"/></clipPath></defs><g clip-path="url(#_clipPath_htbl9s8x49gJo6qNYx5D7KH6lrYGjkJi)"><defs><filter id="bwZb03gZBhIb5OXPSgKhMdD3oi8zTrJG" x="-200%" y="-200%" width="400%" height="400%" filterUnits="objectBoundingBox" color-interpolation-filters="sRGB"><feGaussianBlur xmlns="http://www.w3.org/2000/svg" stdDeviation="4.293609062839028"/></filter></defs><g filter="url(#bwZb03gZBhIb5OXPSgKhMdD3oi8zTrJG)"><ellipse vector-effect="non-scaling-stroke" cx="12" cy="22.56451612903226" rx="2.419354838709676" ry="0.5645161290322598" fill="rgb(162,162,162)" fill-opacity="0.7"/></g><g><path d=" M 3.808 8.748 C 3.808 4.215 7.477 0.546 11.997 0.546 C 16.523 0.546 20.192 4.215 20.192 8.748 C 20.192 11.181 19.128 13.374 17.44 14.876 C 17.347 14.956 14.13 17.954 11.977 22.546 C 11.166 19.296 8.022 16.172 6.58 14.896 C 4.878 13.387 3.808 11.194 3.808 8.748 Z  M 17.061 8.748" fill="rgb(83,153,135)"/></g><g><path d=" M 15.952 6.713 C 15.11 6.77 14.357 6.89 13.379 7.122 C 12.196 7.4 11.931 7.403 10.778 7.147 C 9.031 6.759 7.351 6.705 5.41 6.975 C 5.08 7.018 5.078 7.021 5.048 7.1 C 5.012 7.209 5.012 7.596 5.05 7.733 C 5.097 7.899 5.309 8.357 5.427 8.545 C 5.574 8.779 5.604 8.867 5.718 9.396 C 5.934 10.41 6.146 10.84 6.544 11.083 C 6.743 11.206 7.19 11.353 7.542 11.416 C 7.883 11.476 8.725 11.484 9.028 11.429 C 9.652 11.317 10.107 11.083 10.516 10.66 C 10.876 10.287 11.091 9.884 11.334 9.142 C 11.413 8.894 11.509 8.646 11.547 8.591 C 11.631 8.461 11.776 8.395 11.972 8.392 C 12.275 8.39 12.422 8.54 12.574 8.998 C 13.057 10.451 13.744 11.162 14.878 11.391 C 15.213 11.456 16.028 11.456 16.375 11.391 C 16.879 11.293 17.372 11.11 17.62 10.93 C 17.964 10.682 18.152 10.254 18.307 9.368 C 18.348 9.142 18.392 8.883 18.408 8.788 C 18.43 8.676 18.474 8.561 18.545 8.447 C 18.703 8.196 18.858 7.885 18.921 7.697 C 18.986 7.509 18.997 7.177 18.948 7.008 L 18.915 6.907 L 18.681 6.863 C 17.803 6.702 16.854 6.65 15.952 6.713 Z " fill="rgb(0,0,0)"/></g></g></svg>