<?xml version="1.0" encoding="UTF-8" standalone="no"?><!-- Generator: Gravit.io --><svg xmlns="http://www.w3.org/2000/svg" xmlns:xlink="http://www.w3.org/1999/xlink" style="isolation:isolate" viewBox="0 0 24 24" width="24pt" height="24pt"><defs><clipPath id="_clipPath_8Betl1c7VxZtrUprSR7puIxoZcaoACZY"><rect width="24" height="24"/></clipPath></defs><g clip-path="url(#_clipPath_8Betl1c7VxZtrUprSR7puIxoZcaoACZY)"><clipPath id="_clipPath_UtWPNFNrsP8t3uLBrvE36tK2NzkN4QGh"><rect x="0" y="0" width="19.306" height="19.163" transform="matrix(1,0,0,1,0,0)" fill="rgb(255,255,255)"/></clipPath><g clip-path="url(#_clipPath_UtWPNFNrsP8t3uLBrvE36tK2NzkN4QGh)"><g><path d=" M 2.824 9.108 L 0.192 4.554 L 2.824 0 L 8.086 0 L 10.717 4.554 L 8.086 9.108 L 2.824 9.108 Z  M 3.405 8.096 L 7.504 8.096 L 9.541 4.554 L 7.504 1.012 L 3.405 1.012 L 1.356 4.554 L 3.405 8.096 Z " fill="rgb(0,0,0)"/><path d=" M 11.412 14.232 L 8.781 9.678 L 11.412 5.124 L 16.675 5.124 L 19.306 9.678 L 16.675 14.232 L 11.412 14.232 Z  M 11.994 13.22 L 16.093 13.22 L 18.13 9.678 L 16.093 6.136 L 11.994 6.136 L 9.945 9.678 L 11.994 13.22 Z " fill="rgb(0,0,0)"/><path d=" M 2.631 19.163 L 0 14.609 L 2.631 10.056 L 7.893 10.056 L 10.524 14.609 L 7.893 19.163 L 2.631 19.163 Z  M 3.213 18.151 L 7.311 18.151 L 9.348 14.609 L 7.311 11.068 L 3.213 11.068 L 1.164 14.609 L 3.213 18.151 Z " fill="rgb(0,0,0)"/></g></g></g></svg>