<?xml version="1.0" encoding="UTF-8" standalone="no"?><!-- Generator: Gravit.io --><svg xmlns="http://www.w3.org/2000/svg" xmlns:xlink="http://www.w3.org/1999/xlink" style="isolation:isolate" viewBox="0 0 24 24" width="24pt" height="24pt"><defs><clipPath id="_clipPath_wPHEi7f0Y89iKp25KqRxnEfsGIUFiu6B"><rect width="24" height="24"/></clipPath></defs><g clip-path="url(#_clipPath_wPHEi7f0Y89iKp25KqRxnEfsGIUFiu6B)"><clipPath id="_clipPath_nfkg52FcEww4IDZLZk3RL4NO1Ex8PqkR"><rect x="0.24" y="0" width="23.52" height="24" transform="matrix(1,0,0,1,0,0)" fill="rgb(255,255,255)"/></clipPath><g clip-path="url(#_clipPath_nfkg52FcEww4IDZLZk3RL4NO1Ex8PqkR)"><g><path d=" M 18.095 16.551 C 19.738 14.836 20.84 12.588 20.84 10.02 C 20.84 5.042 16.878 1 12 1 C 7.122 1 3.16 5.042 3.16 10.02 C 3.16 12.62 4.167 14.787 5.967 16.61 L 5.967 16.61 L 11.64 23 L 18.105 16.551 L 18.095 16.551 Z " fill="rgb(218,185,99)"/></g></g><g><g><rect x="-0.141" y="-0.297" width="24" height="24" transform="matrix(1,0,0,1,0,0)" fill="none"/></g><g><path d=" M 12.044 3.078 C 8.44 3.078 5.516 5.976 5.516 9.547 C 5.516 13.118 8.44 16.016 12.044 16.016 C 15.647 16.016 18.572 13.118 18.572 9.547 C 18.572 5.976 15.647 3.078 12.044 3.078 Z  M 12.044 14.722 C 9.165 14.722 6.821 12.4 6.821 9.547 C 6.821 6.694 9.165 4.372 12.044 4.372 C 14.923 4.372 17.266 6.694 17.266 9.547 C 17.266 12.4 14.923 14.722 12.044 14.722 Z  M 12.625 8.965 C 11.463 8.583 10.901 8.344 10.901 7.736 C 10.901 7.076 11.626 6.836 12.083 6.836 C 12.938 6.836 13.251 7.477 13.323 7.703 L 14.355 7.27 C 14.257 6.985 13.819 6.034 12.618 5.827 L 12.618 5.019 L 11.476 5.019 L 11.476 5.834 C 9.778 6.196 9.765 7.677 9.765 7.749 C 9.765 9.217 11.234 9.631 11.952 9.89 C 12.984 10.252 13.441 10.582 13.441 11.203 C 13.441 11.934 12.755 12.244 12.148 12.244 C 10.96 12.244 10.621 11.035 10.581 10.892 L 9.498 11.326 C 9.909 12.742 10.986 13.124 11.469 13.241 L 11.469 14.075 L 12.612 14.075 L 12.612 13.273 C 12.951 13.215 14.583 12.891 14.583 11.19 C 14.59 10.291 14.192 9.502 12.625 8.965 Z " fill="rgb(255,255,255)"/></g></g></g></svg>