<?xml version="1.0" encoding="UTF-8" standalone="no"?><!-- Generator: Gravit.io --><svg xmlns="http://www.w3.org/2000/svg" xmlns:xlink="http://www.w3.org/1999/xlink" style="isolation:isolate" viewBox="0 0 24 24" width="24pt" height="24pt"><defs><clipPath id="_clipPath_f0S5O38Ybx0HkkBik46gcCce49Ri90wq"><rect width="24" height="24"/></clipPath></defs><g clip-path="url(#_clipPath_f0S5O38Ybx0HkkBik46gcCce49Ri90wq)"><defs><filter id="w7IRX0dq6pM8R3DiV8WM7BAbYo1FUHbc" x="-200%" y="-200%" width="400%" height="400%" filterUnits="objectBoundingBox" color-interpolation-filters="sRGB"><feGaussianBlur xmlns="http://www.w3.org/2000/svg" stdDeviation="4.293609062839028"/></filter></defs><g filter="url(#w7IRX0dq6pM8R3DiV8WM7BAbYo1FUHbc)"><ellipse vector-effect="non-scaling-stroke" cx="12" cy="22.56451612903226" rx="2.419354838709676" ry="0.5645161290322598" fill="rgb(162,162,162)" fill-opacity="0.7"/></g><g><path d=" M 3.808 8.748 C 3.808 4.215 7.477 0.546 11.997 0.546 C 16.523 0.546 20.192 4.215 20.192 8.748 C 20.192 11.181 19.128 13.374 17.44 14.876 C 17.347 14.956 14.13 17.954 11.977 22.546 C 11.166 19.296 8.022 16.172 6.58 14.896 C 4.878 13.387 3.808 11.194 3.808 8.748 Z  M 17.061 8.748" fill="rgb(30,82,108)"/></g><g><g><g><path d=" M 11.146 5.723 L 9.096 5.723 C 8.718 5.723 8.412 6.029 8.412 6.406 L 8.412 7.349 C 7.788 7.85 7.387 8.619 7.387 9.481 C 7.387 10.991 8.611 12.215 10.121 12.215 C 10.57 12.215 10.993 12.105 11.366 11.913 C 11.17 11.632 11.022 11.316 10.929 10.977 C 10.687 11.109 10.415 11.19 10.121 11.19 C 9.179 11.19 8.412 10.424 8.412 9.481 C 8.412 8.565 9.139 7.82 10.046 7.78 L 10.052 7.773 L 11.344 7.773 L 11.346 7.77 C 11.615 7.754 11.829 7.533 11.829 7.26 L 11.829 6.406 C 11.829 6.029 11.523 5.723 11.146 5.723 Z  M 10.121 11.532 C 10.215 11.532 10.292 11.608 10.292 11.703 C 10.292 11.797 10.215 11.873 10.121 11.873 C 10.026 11.873 9.95 11.797 9.95 11.703 C 9.95 11.608 10.026 11.532 10.121 11.532 Z  M 10.121 7.09 C 9.932 7.09 9.779 6.937 9.779 6.748 C 9.779 6.559 9.932 6.406 10.121 6.406 C 10.309 6.406 10.462 6.559 10.462 6.748 C 10.462 6.937 10.309 7.09 10.121 7.09 Z " fill="rgb(255,255,255)"/></g></g><g><g><path d=" M 13.879 4.776 L 13.196 4.776 C 13.193 4.776 13.191 4.777 13.188 4.777 C 13.191 4.751 13.196 4.725 13.196 4.698 C 13.196 4.322 12.888 4.014 12.513 4.014 L 11.829 4.014 C 11.624 4.014 11.441 4.108 11.316 4.252 C 11.19 4.108 11.008 4.014 10.802 4.014 L 10.119 4.014 C 9.743 4.014 9.436 4.322 9.436 4.698 C 9.436 5.074 9.743 5.381 10.119 5.381 L 10.802 5.381 C 11.008 5.381 11.19 5.288 11.316 5.143 C 11.441 5.288 11.624 5.381 11.829 5.381 L 12.513 5.381 C 12.515 5.381 12.518 5.38 12.521 5.38 C 12.517 5.407 12.513 5.432 12.513 5.459 C 12.513 5.835 12.82 6.143 13.196 6.143 L 13.879 6.143 C 14.255 6.143 14.563 5.835 14.563 5.459 C 14.563 5.084 14.255 4.776 13.879 4.776 Z  M 10.802 5.039 L 10.119 5.039 C 9.931 5.039 9.777 4.886 9.777 4.698 C 9.777 4.509 9.931 4.356 10.119 4.356 L 10.802 4.356 C 10.991 4.356 11.144 4.509 11.144 4.698 C 11.144 4.886 10.991 5.039 10.802 5.039 Z  M 12.513 5.039 L 11.829 5.039 C 11.641 5.039 11.487 4.886 11.487 4.698 C 11.487 4.509 11.641 4.356 11.829 4.356 L 12.513 4.356 C 12.701 4.356 12.854 4.509 12.854 4.698 C 12.854 4.886 12.701 5.039 12.513 5.039 Z  M 13.879 5.801 L 13.196 5.801 C 13.007 5.801 12.854 5.648 12.854 5.459 C 12.854 5.271 13.007 5.118 13.196 5.118 L 13.879 5.118 C 14.068 5.118 14.221 5.271 14.221 5.459 C 14.221 5.648 14.068 5.801 13.879 5.801 Z " fill="rgb(255,255,255)"/></g></g><g><g><path d=" M 15.859 8.283 C 15.727 8.586 15.426 8.798 15.075 8.798 L 14.894 8.798 C 15.313 9.11 15.588 9.604 15.588 10.165 C 15.588 11.107 14.821 11.873 13.879 11.873 C 12.937 11.873 12.171 11.107 12.171 10.165 C 12.171 9.248 12.898 8.504 13.805 8.464 L 13.811 8.456 L 15.102 8.456 L 15.105 8.453 C 15.374 8.438 15.588 8.217 15.588 7.944 L 15.588 7.09 C 15.588 6.712 15.282 6.406 14.904 6.406 L 12.854 6.406 C 12.477 6.406 12.171 6.712 12.171 7.09 L 12.171 8.033 C 11.546 8.534 11.146 9.302 11.146 10.165 C 11.146 11.675 12.37 12.898 13.879 12.898 C 15.389 12.898 16.613 11.675 16.613 10.165 C 16.613 9.435 16.325 8.773 15.859 8.283 Z  M 13.879 7.09 C 14.068 7.09 14.221 7.243 14.221 7.431 C 14.221 7.62 14.068 7.773 13.879 7.773 C 13.691 7.773 13.538 7.62 13.538 7.431 C 13.538 7.243 13.691 7.09 13.879 7.09 Z  M 13.879 12.557 C 13.785 12.557 13.708 12.48 13.708 12.386 C 13.708 12.292 13.785 12.215 13.879 12.215 C 13.974 12.215 14.05 12.292 14.05 12.386 C 14.05 12.48 13.974 12.557 13.879 12.557 Z " fill="rgb(255,255,255)"/></g></g></g></g></svg>