<?xml version="1.0" encoding="UTF-8" standalone="no"?><!-- Generator: Gravit.io --><svg xmlns="http://www.w3.org/2000/svg" xmlns:xlink="http://www.w3.org/1999/xlink" style="isolation:isolate" viewBox="0 0 24 24" width="24pt" height="24pt"><defs><clipPath id="_clipPath_XZtSRELtX66k48aIppLP96Q6v8EvcktI"><rect width="24" height="24"/></clipPath></defs><g clip-path="url(#_clipPath_XZtSRELtX66k48aIppLP96Q6v8EvcktI)"><defs><filter id="94c00zyj0XXnhFy5ikIlVt5ocmGCTPPz" x="-200%" y="-200%" width="400%" height="400%" filterUnits="objectBoundingBox" color-interpolation-filters="sRGB"><feGaussianBlur xmlns="http://www.w3.org/2000/svg" stdDeviation="4.293609062839028"/></filter></defs><g filter="url(#94c00zyj0XXnhFy5ikIlVt5ocmGCTPPz)"><ellipse vector-effect="non-scaling-stroke" cx="12" cy="22.56451612903226" rx="2.419354838709676" ry="0.5645161290322598" fill="rgb(162,162,162)" fill-opacity="0.7"/></g><g><path d=" M 3.808 8.748 C 3.808 4.215 7.477 0.546 11.997 0.546 C 16.523 0.546 20.192 4.215 20.192 8.748 C 20.192 11.181 19.128 13.374 17.44 14.876 C 17.347 14.956 14.13 17.954 11.977 22.546 C 11.166 19.296 8.022 16.172 6.58 14.896 C 4.878 13.387 3.808 11.194 3.808 8.748 Z  M 17.061 8.748" fill="rgb(37,19,81)"/></g><g><g><rect x="5.998" y="3" width="12.005" height="12.005" transform="matrix(1,0,0,1,0,0)" fill="none"/></g><g><g><path d=" M 13.135 6.001 C 12.86 6.476 13.025 7.092 13.501 7.367 C 13.976 7.642 14.591 7.477 14.866 7.002 C 15.141 6.526 14.976 5.911 14.501 5.636 C 14.026 5.361 13.411 5.526 13.135 6.001 Z " fill="rgb(255,253,152)"/><path d=" M 13.921 8.207 C 13.921 8.207 13.105 7.737 12.62 7.457 C 11.43 6.766 11.02 5.236 11.71 4.045 L 10.845 3.545 C 10.049 4.916 10.299 6.606 11.33 7.702 L 8.754 12.163 L 9.619 12.664 L 10.369 11.363 L 11.235 11.863 L 9.734 14.464 L 10.599 14.965 L 13.746 9.517 C 14.316 10.293 14.411 11.363 13.901 12.249 L 14.766 12.749 C 15.566 11.373 15.406 9.457 13.921 8.207 Z " fill="rgb(255,253,152)"/><path d=" M 12.375 4.901 C 12.735 5.106 13.19 4.986 13.401 4.626 C 13.606 4.265 13.486 3.81 13.125 3.6 C 12.765 3.395 12.31 3.515 12.1 3.875 C 11.895 4.235 12.015 4.696 12.375 4.901 Z " fill="rgb(255,253,152)"/></g></g></g></g></svg>