<?xml version="1.0" encoding="UTF-8" standalone="no"?>
<svg
   xmlns:dc="http://purl.org/dc/elements/1.1/"
   xmlns:cc="http://creativecommons.org/ns#"
   xmlns:rdf="http://www.w3.org/1999/02/22-rdf-syntax-ns#"
   xmlns:svg="http://www.w3.org/2000/svg"
   xmlns="http://www.w3.org/2000/svg"
   xmlns:sodipodi="http://sodipodi.sourceforge.net/DTD/sodipodi-0.dtd"
   xmlns:inkscape="http://www.inkscape.org/namespaces/inkscape"
   style="isolation:isolate"
   viewBox="0 0 24 24"
   width="24pt"
   height="24pt"
   version="1.1"
   id="svg875"
   sodipodi:docname="technology_marker.svg"
   inkscape:version="1.0.2-2 (e86c870879, 2021-01-15)">
  <metadata
     id="metadata879">
    <rdf:RDF>
      <cc:Work
         rdf:about="">
        <dc:format>image/svg+xml</dc:format>
        <dc:type
           rdf:resource="http://purl.org/dc/dcmitype/StillImage" />
        <dc:title></dc:title>
      </cc:Work>
    </rdf:RDF>
  </metadata>
  <sodipodi:namedview
     pagecolor="#ffffff"
     bordercolor="#666666"
     borderopacity="1"
     objecttolerance="10"
     gridtolerance="10"
     guidetolerance="10"
     inkscape:pageopacity="0"
     inkscape:pageshadow="2"
     inkscape:window-width="1520"
     inkscape:window-height="863"
     id="namedview877"
     showgrid="false"
     inkscape:zoom="17.151521"
     inkscape:cx="11.979118"
     inkscape:cy="14.951122"
     inkscape:window-x="60"
     inkscape:window-y="27"
     inkscape:window-maximized="0"
     inkscape:current-layer="svg875"
     inkscape:document-rotation="0" />
  <defs
     id="defs869">
    <clipPath
       id="_clipPath_UqtY1ASWxFxx7WIAT4m9kMg9Kb43TZwz">
      <rect
         width="24"
         height="24"
         id="rect866" />
    </clipPath>
  </defs>
  <g
     clip-path="url(#_clipPath_UqtY1ASWxFxx7WIAT4m9kMg9Kb43TZwz)"
     id="g873"
     style="fill:#ff6600">
    <path
       d=" M 18.219 16.551 C 19.896 14.836 21.02 12.588 21.02 10.02 C 21.02 5.042 16.978 1 12 1 C 7.022 1 2.98 5.042 2.98 10.02 C 2.98 12.62 4.007 14.787 5.844 16.61 L 5.844 16.61 L 11.633 23 L 18.23 16.551 L 18.219 16.551 Z "
       fill="rgb(104,188,178)"
       id="path871"
       style="fill:#ff6600" />
  </g>
  <g
     id="g186"
     transform="matrix(0.384,0,0,0.384,6.581397,4.1763625)">
    <g
       id="g115">
	<path
   d="M 19.494,0 H 7.948 C 6.843,0 5.951,0.896 5.951,1.999 v 23.446 c 0,1.102 0.892,1.997 1.997,1.997 h 11.546 c 1.103,0 1.997,-0.895 1.997,-1.997 V 1.999 C 21.491,0.896 20.597,0 19.494,0 Z m -8.622,1.214 h 5.7 c 0.144,0 0.261,0.215 0.261,0.481 0,0.266 -0.117,0.482 -0.261,0.482 h -5.7 c -0.145,0 -0.26,-0.216 -0.26,-0.482 0,-0.266 0.115,-0.481 0.26,-0.481 z m 2.85,24.255 c -0.703,0 -1.275,-0.572 -1.275,-1.276 0,-0.704 0.572,-1.274 1.275,-1.274 0.701,0 1.273,0.57 1.273,1.274 0,0.704 -0.572,1.276 -1.273,1.276 z M 19.995,21.1 H 7.448 V 3.373 h 12.547 z"
   id="path83" />

	<g
   id="g85">
	</g>

	<g
   id="g87">
	</g>

	<g
   id="g89">
	</g>

	<g
   id="g91">
	</g>

	<g
   id="g93">
	</g>

	<g
   id="g95">
	</g>

	<g
   id="g97">
	</g>

	<g
   id="g99">
	</g>

	<g
   id="g101">
	</g>

	<g
   id="g103">
	</g>

	<g
   id="g105">
	</g>

	<g
   id="g107">
	</g>

	<g
   id="g109">
	</g>

	<g
   id="g111">
	</g>

	<g
   id="g113">
	</g>

</g>
    <g
       id="g117">
</g>
    <g
       id="g119">
</g>
    <g
       id="g121">
</g>
    <g
       id="g123">
</g>
    <g
       id="g125">
</g>
    <g
       id="g127">
</g>
    <g
       id="g129">
</g>
    <g
       id="g131">
</g>
    <g
       id="g133">
</g>
    <g
       id="g135">
</g>
    <g
       id="g137">
</g>
    <g
       id="g139">
</g>
    <g
       id="g141">
</g>
    <g
       id="g143">
</g>
    <g
       id="g145">
</g>
  </g>
</svg>
