<?xml version="1.0" encoding="UTF-8" standalone="no"?><!-- Generator: Gravit.io --><svg xmlns="http://www.w3.org/2000/svg" xmlns:xlink="http://www.w3.org/1999/xlink" style="isolation:isolate" viewBox="0 0 24 24" width="24pt" height="24pt"><defs><clipPath id="_clipPath_uXf76fmK5hPxVF8OR2YnL0D3PrdQ3sw0"><rect width="24" height="24"/></clipPath></defs><g clip-path="url(#_clipPath_uXf76fmK5hPxVF8OR2YnL0D3PrdQ3sw0)"><clipPath id="_clipPath_s36ffPilqpevjQ5ZC1zpSXUTPgaKDB9P"><rect x="2.98" y="1" width="18.04" height="22" transform="matrix(1,0,0,1,0,0)" fill="rgb(255,255,255)"/></clipPath><g clip-path="url(#_clipPath_s36ffPilqpevjQ5ZC1zpSXUTPgaKDB9P)"><g><path d=" M 18.219 16.551 C 19.896 14.836 21.02 12.588 21.02 10.02 C 21.02 5.042 16.978 1 12 1 C 7.022 1 2.98 5.042 2.98 10.02 C 2.98 12.62 4.007 14.787 5.844 16.61 L 5.844 16.61 L 11.633 23 L 18.23 16.551 L 18.219 16.551 Z " fill="rgb(39,21,82)"/></g></g><clipPath id="_clipPath_R6cOYgqNDAbgdicC4NcNxUZ0MHTOJakE"><rect x="0" y="0" width="24" height="24" transform="matrix(1,0,0,1,0,0)" fill="rgb(255,255,255)"/></clipPath><g clip-path="url(#_clipPath_R6cOYgqNDAbgdicC4NcNxUZ0MHTOJakE)"><g><rect x="0" y="1" width="24" height="24" transform="matrix(1,0,0,1,0,0)" fill="none"/><g><path d=" M 5.3 4 L 18.3 4 L 18.3 16 L 5.3 16 L 5.3 4 Z " fill="none"/><path d=" M 10.717 5 L 10.717 8.08 C 10.845 8.068 10.957 8.064 11.089 8.046 C 11.429 8 11.767 7.919 12.035 7.835 C 11.992 7.812 11.947 7.797 11.906 7.769 C 11.776 7.68 11.786 7.615 11.828 7.584 L 12.847 6.642 C 12.864 6.623 12.89 6.611 12.924 6.619 C 12.957 6.627 12.999 6.655 13.047 6.715 C 13.126 6.812 13.185 6.915 13.227 7.019 L 13.425 6.848 L 13.425 9.091 C 13.59 9.035 13.77 9 13.967 9 C 14.845 9 15.422 9.625 15.575 10.271 C 15.624 10.48 15.559 10.521 15.483 10.491 C 15.14 10.359 14.5 10.351 13.967 10.344 C 13.793 10.346 13.608 10.355 13.425 10.361 L 13.425 11.617 L 13.425 11.627 C 13.425 11.627 13.413 11.757 13.389 11.934 C 13.569 11.968 13.759 11.991 13.963 12 C 17.083 11.863 17.217 8.607 17.217 8.607 L 17.217 5 C 16.551 5.575 14.39 5.652 13.963 5.647 C 13.537 5.652 11.382 5.575 10.717 5 Z  M 15.01 6.619 C 15.044 6.611 15.069 6.623 15.086 6.642 L 16.106 7.584 C 16.147 7.615 16.157 7.68 16.028 7.769 C 15.622 8.052 15.115 8.083 14.83 7.819 C 14.545 7.556 14.579 7.089 14.886 6.715 C 14.934 6.655 14.976 6.627 15.01 6.619 Z  M 12.342 8.825 C 11.988 8.928 11.612 8.987 11.245 9.036 C 11.075 9.059 10.937 9.065 10.779 9.08 C 10.826 9.332 10.913 9.662 11.062 10.008 C 11.43 10.049 11.729 10.382 11.795 10.817 C 11.818 10.965 11.762 11.005 11.709 11 L 11.693 11 C 11.875 11.197 12.087 11.381 12.342 11.535 L 12.342 8.825 Z " fill="rgb(255,255,255)"/><path d=" M 6.383 8 L 6.383 11.607 C 6.383 11.607 6.51 14.863 9.63 15 C 12.75 14.863 12.883 11.607 12.883 11.607 L 12.883 8 C 12.218 8.575 10.056 8.652 9.63 8.647 C 9.204 8.652 7.049 8.575 6.383 8 Z  M 8.279 10 C 8.682 10 9.016 10.352 9.086 10.817 C 9.11 10.965 9.053 11.005 9.001 11 L 7.558 10.999 C 7.505 11.004 7.448 10.965 7.472 10.817 C 7.542 10.352 7.876 10 8.279 10 Z  M 10.988 10 C 11.391 10 11.725 10.352 11.795 10.817 C 11.818 10.965 11.762 11.005 11.709 11 L 10.266 10.999 C 10.213 11.004 10.157 10.965 10.18 10.817 C 10.25 10.352 10.584 10 10.988 10 Z  M 8.077 12 C 8.09 12 8.103 12.003 8.117 12.009 C 8.46 12.141 9.1 12.149 9.633 12.156 C 10.166 12.149 10.807 12.141 11.149 12.009 C 11.225 11.979 11.291 12.02 11.241 12.229 C 11.089 12.875 10.511 13.5 9.633 13.5 C 8.755 13.5 8.178 12.875 8.025 12.229 C 7.985 12.059 8.021 12 8.077 12 Z " fill="rgb(255,255,255)"/></g></g></g></g></svg>