<?xml version="1.0" encoding="UTF-8" standalone="no"?><!-- Generator: Gravit.io --><svg xmlns="http://www.w3.org/2000/svg" xmlns:xlink="http://www.w3.org/1999/xlink" style="isolation:isolate" viewBox="0 0 24 24" width="24pt" height="24pt"><defs><clipPath id="_clipPath_KYJy6fMJl9oYy7dSvKGatdVPXfWzQm5r"><rect width="24" height="24"/></clipPath></defs><g clip-path="url(#_clipPath_KYJy6fMJl9oYy7dSvKGatdVPXfWzQm5r)"><clipPath id="_clipPath_2IQpuZJAbWoaMiOfCkqPqcQvVSUFN0gG"><rect x="2.98" y="1" width="18.04" height="22" transform="matrix(1,0,0,1,0,0)" fill="rgb(255,255,255)"/></clipPath><g clip-path="url(#_clipPath_2IQpuZJAbWoaMiOfCkqPqcQvVSUFN0gG)"><g><path d=" M 18.219 16.551 C 19.896 14.836 21.02 12.588 21.02 10.02 C 21.02 5.042 16.978 1 12 1 C 7.022 1 2.98 5.042 2.98 10.02 C 2.98 12.62 4.007 14.787 5.844 16.61 L 5.844 16.61 L 11.633 23 L 18.23 16.551 L 18.219 16.551 Z " fill="rgb(32,83,109)"/></g></g><path d=" M 12.25 4 L 7 6.783 L 7 7.231 L 17.5 7.231 L 17.5 6.783 L 12.25 4 Z  M 7.808 8.038 L 7.808 12.077 L 7 13.333 L 7 14.5 L 17.5 14.5 L 17.5 13.333 L 16.692 12.077 L 16.692 8.038 L 7.808 8.038 Z  M 9.423 8.846 L 10.231 8.846 L 10.231 13.288 L 9.423 13.288 L 9.423 8.846 Z  M 11.846 8.846 L 12.654 8.846 L 12.654 13.288 L 11.846 13.288 L 11.846 8.846 Z  M 14.269 8.846 L 15.077 8.846 L 15.077 13.288 L 14.269 13.288 L 14.269 8.846 Z " fill="rgb(255,255,255)"/></g></svg>