<svg xmlns="http://www.w3.org/2000/svg" width="24" height="24"><path fill="#251a1c" fill-rule="evenodd" d="M18.62 2.13q-.53.32-.55.98.01.76.7 1.06c.77.32 1.53-.23 1.53-1.1 0-.55-.52-1.07-1.07-1.07-.2 0-.48.06-.6.13m-13.8.67c-.22.1-.56.37-.76.6-.4.46-.53 1.01-.46 1.91l.03.45.77.03.78.03v-.66c0-.52.04-.7.2-.85.28-.28.76-.26.96.05.34.53-.1 1.78-1.25 3.55-.95 1.45-1.51 2.92-1.51 3.96v.45l2.08-.02c1.14-.01 2.13-.07 2.2-.12.12-.1.17-1.02.06-1.31-.05-.13-.26-.16-1.24-.16a6 6 0 0 1-1.24-.08c-.05-.09.57-1.25 1.6-2.97a6 6 0 0 0 .99-2.5c.12-1.07-.33-1.96-1.2-2.36a2.8 2.8 0 0 0-2 0m4.9-.07a2 2 0 0 0-1.05 1.04c-.2.4-.2.6-.2 3.7 0 3.24 0 3.27.24 3.8.35.75.86 1.06 1.87 1.12.66.04.81.01 1.27-.22.76-.38 1-.85 1.12-2.17.12-1.38.06-5.63-.09-6.1-.13-.42-.65-.92-1.18-1.14a4 4 0 0 0-1.98-.03m4.98-.02c-.36.12-.86.57-1.1 1.04-.16.27-.18.68-.18 3.61 0 3.6.02 3.79.57 4.4.42.5 1.02.69 1.9.63.98-.06 1.46-.36 1.83-1.12l.27-.56.02-3.22.01-3.23-.25-.5q-.25-.5-.7-.8c-.38-.25-.54-.3-1.24-.32a5 5 0 0 0-1.13.07m4.05.25c-.1.2-.08.28.07.45.31.34.75.2.75-.25 0-.48-.62-.63-.82-.2m-8.34 1.23c-.3.2-.34.55-.34 3.4 0 3.14 0 3.17.56 3.28.25.05.37.01.53-.15.2-.2.21-.3.21-3.19 0-2.53-.02-3-.16-3.2-.15-.22-.57-.3-.8-.14m4.95.11-.24.2-.03 2.87c-.03 3.15 0 3.38.48 3.5q.65.14.75-.59c.03-.23.05-1.65.03-3.15-.03-2.57-.04-2.74-.22-2.88q-.39-.3-.77.05m-11.1 9.08c-.53.22-.76 1.23-.45 1.98.17.39.42.55.86.55.43 0 .65-.14.8-.5.2-.49-.01-.6-.37-.2-.25.28-.34.32-.57.26-.63-.16-.7-1.53-.1-1.77.3-.11.64.04.64.3 0 .18.18.41.32.41.04 0 .08-.24.08-.54v-.54l-.46-.04c-.25-.02-.6.02-.75.09m2.2.11c-.46.32-.63 1.34-.33 1.97.18.38.61.6.99.51.81-.2 1.07-1.73.4-2.36-.28-.26-.78-.32-1.07-.12m2.24-.1q-.42.03-.42.18.02.13.2.14.18 0 .2.03s.04.29.06.61c.07.8-.02 1.28-.24 1.24a.2.2 0 0 0-.2.15c-.03.15.05.17.62.17.36 0 .67-.04.7-.08.07-.12-.1-.35-.22-.28-.15.1-.3-.21-.24-.5s.32-.32.32-.04q.01.18.16.2c.12 0 .14-.1.12-.57-.02-.34-.08-.58-.15-.6q-.12-.03-.13.16c0 .25-.25.28-.34.05-.16-.42-.08-.54.39-.54.4 0 .45.02.45.24 0 .25.22.5.33.4.04-.04.07-.22.07-.4 0-.43-.32-.66-.86-.62zm2.45 0c-.4.03-.56.32-.18.32.19 0 .2.07.2.9s-.02.92-.2.97q-.18.06-.2.2c0 .1.14.13.62.11.52-.02.63-.06.66-.21q.06-.2-.2-.15c-.2.03-.23-.02-.26-.34q-.04-.4.11-.38c.08 0 .17.1.2.21.11.41.32.14.32-.41s-.21-.82-.32-.41c-.1.38-.43.15-.35-.25.04-.2.1-.24.43-.24.29 0 .41.05.45.18.18.56.4.58.37.02-.04-.58-.24-.64-1.65-.52m2.84.02c-.6.05-.85.22-.42.28.18.03.2.1.2.92v.88l-.3.07c-.82.18.34.47 1.4.35l.45-.05v-.47c0-.56-.16-.67-.3-.2-.09.3-.12.32-.5.3-.37-.03-.4-.05-.4-.33q0-.3.15-.3.13.02.15.15t.18.18c.14.03.17-.04.17-.45 0-.7-.24-.92-.43-.4-.1.28-.27.1-.27-.29 0-.32.02-.34.35-.35l.47-.03q.1.02.12.26c.01.15.07.33.13.4.18.17.26-.12.16-.53-.1-.4-.34-.47-1.3-.39m2.58 0c-.63.05-.95.25-.5.32q.22.03.21.1l-.02.88c0 .77 0 .8-.25.86q-.4.1-.16.29c.1.06 1.9.09 1.97.03.02-.02.04-.24.06-.48.02-.34 0-.45-.12-.45q-.14.02-.2.25c-.05.21-.12.25-.45.25-.38 0-.4-.02-.43-.32-.04-.37.22-.48.3-.13.08.26.25.26.33 0 .1-.34-.04-1-.2-.93q-.14.05-.15.18-.01.12-.14.18-.14.07-.2-.3c-.04-.2-.06-.36-.04-.38.08-.09.92-.08.94 0l.08.38c.1.4.26.33.26-.1 0-.64-.16-.72-1.3-.63m-9.88.37c-.14.05-.42.66-.42.93 0 .24.3.8.46.87.43.16.84-.26.84-.88 0-.3-.24-.88-.38-.9l-.2-.04-.28.01"/></svg>