<svg xmlns="http://www.w3.org/2000/svg" width="24" height="24"><path fill="#d5063e" fill-rule="evenodd" d="M10.5 2.16c-.36.07-1.05.34-1.55.58a6.6 6.6 0 0 0-3.2 3.21 6.98 6.98 0 0 0 9.3 9.35A7 7 0 0 0 10.5 2.16M7.54 6.1c-.18.05-.46.25-.63.44-.4.46-.45.99-.15 1.67.16.36.16.38-.09.67-.62.74-.32 2.02.57 2.45 1.1.52 2.36-.26 2.36-1.46 0-.5-.17-.94-.44-1.17-.13-.11-.13-.17.04-.5.25-.46.25-1.07 0-1.48a1.5 1.5 0 0 0-1.66-.62m6.26.08c-.36.7.36 1.35.9.81.41-.41.13-1-.48-1q-.3 0-.42.2m2.28-.02c-.15.02-.4.16-.57.32-.52.52-.5 1.22.06 1.7a1 1 0 0 0 .8.3c.38 0 .5-.05.79-.34.19-.19.34-.39.34-.45 0-.16-.5-.13-.56.03-.09.23-.57.38-.87.27-.5-.2-.62-.77-.22-1.16.31-.32.7-.32 1 0 .26.25.65.34.65.15 0-.05-.12-.23-.27-.4a1.3 1.3 0 0 0-1.15-.42m-5.78 1.3v1.3l.3.12c.27.11.36.1.6-.03q.68-.42 1.26.17c.26.26.34.42.34.71 0 .52-.53 1.05-1.05 1.05-.29 0-.45-.08-.71-.34-.19-.19-.34-.41-.34-.5q.01-.17-.35-.16c-.38 0-.42.1-.24.57a1.76 1.76 0 0 0 2.9.57c.71-.75.65-1.82-.14-2.51a1.7 1.7 0 0 0-1.47-.4l-.4.07V6.9h2.2v-.7h-2.9zM7.5 7c-.41.41-.12 1.2.45 1.2.32 0 .75-.42.75-.73 0-.3-.4-.67-.73-.67a1 1 0 0 0-.47.2m.13 2c-.3.13-.56.55-.55.93 0 .23.1.4.33.6.26.24.38.28.68.23.9-.14 1.12-1.3.31-1.7-.33-.18-.45-.19-.77-.06m6.58 1.11q-.29.1-.28.15c.03.03.23 0 .45-.05.43-.12.72-.06.72.13 0 .24-.94.96-1.07.82-.03-.02.05-.19.17-.36s.2-.33.17-.36-.17.14-.3.38c-.15.24-.22.45-.16.46.35.13 1.29-.55 1.29-.93q0-.52-.99-.24m2.75.14c-.14.15-.28.35-.3.44-.04.1-.2.25-.37.35-.33.2-.5.17-.24-.04q.13-.13.15-.22c0-.05-.14.02-.3.16-.36.3-.61.35-.37.08q.27-.31-.1-.32c-.15 0-.53.35-.53.5 0 .13 1.2.1 1.38-.02q.12-.1.12.01.02.12.23.1h.41c.19.01.19.01 0 .24-.1.12.05 0 .34-.27.28-.28.5-.52.47-.55-.03-.02-.18.07-.33.22-.34.32-.65.38-.37.07q.16-.18.1-.2c-.03 0-.18.09-.32.2-.48.38-.47.2.02-.3.37-.37.46-.53.38-.61-.09-.09-.18-.05-.37.16m-2.72 1.74c-.39.24-.64.58-.64.88q0 .44.36.18.28-.18-.04-.08c-.34.08-.28-.27.1-.64.37-.34.65-.47.73-.33q.05.1-.04.1-.1 0-.11.12t.16-.04c.17-.17.12-.38-.1-.38-.06 0-.25.09-.42.2m1.28.47c-.29.3-.56.53-.6.5q-.04-.08.06-.2.25-.26-.06-.27c-.2 0-.68.45-.55.53.04.03.24.03.44.02.33-.03.36-.01.31.21q-.09.51.48-.12c.29-.34.32-.35.44-.18.12.15.17.16.44.05.17-.07.37-.2.44-.3.11-.13.1-.13-.14.02-.35.22-.41.22-.26-.03.17-.27.03-.36-.26-.16-.14.09-.35.16-.46.16q-.2 0-.16.09c.06.1-.34.65-.41.57-.08-.08.35-.73.52-.8q.14-.06.14-.13-.05-.29.18-.37.23-.11-.02.14c-.1.1-.14.2-.09.2.14 0 .34-.22.34-.37q0-.39-.78.44"/></svg>