<?xml version="1.0" encoding="UTF-8" standalone="no"?>
<svg
   viewBox="0 0 24 24"
   width="24pt"
   height="24pt"
   version="1.1"
   id="svg1"
   sodipodi:docname="92_degrees.svg"
   xml:space="preserve"
   inkscape:version="1.3 (0e150ed6c4, 2023-07-21)"
   inkscape:export-filename="92_degrees.svg"
   inkscape:export-xdpi="96"
   inkscape:export-ydpi="96"
   xmlns:inkscape="http://www.inkscape.org/namespaces/inkscape"
   xmlns:sodipodi="http://sodipodi.sourceforge.net/DTD/sodipodi-0.dtd"
   xmlns="http://www.w3.org/2000/svg"
   xmlns:svg="http://www.w3.org/2000/svg"><defs
     id="defs1"><style
       id="style1">&#10;      .cls-1 {&#10;        fill: #fff;&#10;      }&#10;    </style></defs><sodipodi:namedview
     id="namedview1"
     pagecolor="#ffffff"
     bordercolor="#000000"
     borderopacity="0.25"
     inkscape:showpageshadow="2"
     inkscape:pageopacity="0.0"
     inkscape:pagecheckerboard="0"
     inkscape:deskcolor="#d1d1d1"
     inkscape:document-units="pt"
     inkscape:zoom="16.329747"
     inkscape:cx="10.104259"
     inkscape:cy="13.441727"
     inkscape:window-width="1920"
     inkscape:window-height="974"
     inkscape:window-x="-11"
     inkscape:window-y="1609"
     inkscape:window-maximized="1"
     inkscape:current-layer="svg1" /><g
     id="g1"
     transform="matrix(0.04218479,0,0,0.04218479,-0.84424778,1.1622182)"><path
       class="cls-1"
       d="m 388.97,169.56 c 9.02,0 16.35,-7.34 16.35,-16.36 0,-9.02 -7.34,-16.35 -16.35,-16.35 -9.01,0 -16.35,7.34 -16.35,16.35 0,9.01 7.34,16.36 16.35,16.36 z m 0,-23.9 c 4.16,0 7.54,3.38 7.54,7.54 0,4.16 -3.38,7.54 -7.54,7.54 -4.16,0 -7.54,-3.38 -7.54,-7.54 0,-4.16 3.38,-7.54 7.54,-7.54 z"
       id="path1-2" /><path
       class="cls-1"
       d="m 300.69,167.67 c 2.56,-18.34 13.93,-30.86 30.42,-30.86 17.41,0 27.38,13.32 27.38,30.77 0,20.12 -15.22,36.81 -25.25,49.88 -7.32,9.53 -19.3,24.1 -21.58,36.1 -0.97,5.09 2.04,8.13 7.03,8.13 h 36.6 c 2.84,0 5.14,2.3 5.14,5.14 0,2.84 -2.3,5.14 -5.14,5.14 h -36.6 c -13.4,0 -19.25,-11.02 -17.1,-20.47 3.59,-15.81 14.84,-28.74 23.53,-40.33 8.65,-11.55 23.1,-26.02 23.1,-43.57 0,-13.31 -6.39,-20.51 -17.11,-20.51 -8.01,0 -17.21,4.13 -20.29,22.33 -0.47,2.8 -3.14,4.67 -5.94,4.19 -2.8,-0.48 -4.58,-3.13 -4.19,-5.94 z"
       id="path2" /><path
       class="cls-1"
       d="m 457.97,213.55 c -6.05,0 -11.69,1.8 -16.41,4.89 0.37,-4.52 0.55,-9.08 0.55,-13.67 0,-2.84 -2.3,-5.14 -5.14,-5.14 -2.84,0 -5.14,2.3 -5.14,5.14 0,78.44 -60.13,149.25 -142.37,149.25 -82.24,0 -142.37,-69.69 -142.37,-149.25 0,-2.84 -2.3,-5.14 -5.14,-5.14 -2.84,0 -5.14,2.3 -5.14,5.14 0,90.81 70.57,159.53 152.65,159.53 69.34,0 121.01,-47.26 140.68,-97.51 0.89,-2.28 1.78,-4.56 2.59,-6.86 5.36,8.26 14.67,13.74 25.23,13.74 16.57,0 30.06,-13.48 30.06,-30.06 0,-16.58 -13.48,-30.06 -30.06,-30.06 z m 0,49.83 c -10.9,0 -19.78,-8.87 -19.78,-19.78 0,-10.91 8.87,-19.78 19.78,-19.78 10.91,0 19.78,8.87 19.78,19.78 0,10.91 -8.87,19.78 -19.78,19.78 z"
       id="path3" /><path
       class="cls-1"
       d="m 252.58,223.26 c 7.75,0 14.33,-3.5 18.21,-8.18 -0.45,21.24 -2.14,48.29 -18.21,48.29 -11.12,0 -15.19,-9.62 -16.8,-18.65 -0.51,-2.86 -3.08,-4.71 -5.89,-4.26 -2.8,0.45 -4.71,3.08 -4.26,5.89 2.73,17.1 12.81,27.31 26.95,27.31 30.07,0 28.69,-44.06 28.69,-93.6 0,-25.55 -10.76,-43.21 -28.69,-43.21 -17.93,0 -28.69,16.36 -28.69,43.21 0,20.8 7.86,43.21 28.69,43.21 z m 0,-76.14 c 11.81,0 18.41,13.32 18.41,32.93 0,15.13 -4.5,32.93 -18.41,32.93 -13.91,0 -18.41,-17.53 -18.41,-32.93 0,-20.1 7.04,-32.93 18.41,-32.93 z"
       id="path4" /></g></svg>
