<svg xmlns="http://www.w3.org/2000/svg" width="24" height="24"><path fill="#96491a" fill-rule="evenodd" d="M9.55 4.9c-2 .2-3.15.5-4.38 1.11-1 .5-1.49.96-1.87 1.71a2.75 2.75 0 0 0 .36 3.05c.8 1.04 3.2 1.96 5.9 2.24 1.11.11 4.3.07 5.39-.06 1.8-.23 3.29-.66 4.2-1.2q1.96-1.16 1.83-3c-.16-1.88-1.9-3.06-5.48-3.7-1.12-.2-4.58-.28-5.95-.15m-.27.26c-2.33.24-4.23.9-5.15 1.82-.67.65-.88 1.11-.88 1.97 0 1.48.93 2.42 3.15 3.18 2.17.74 5.24.94 8.7.56 3.06-.33 5.11-1.42 5.55-2.94.81-2.78-2.39-4.6-8.2-4.7-1.09-.01-2.44.03-3.17.1m.24.32c-.3.04-.31.07-.26.31.04.15.1.3.13.33s.42 0 .86-.08c.56-.1 1.2-.13 2.15-.1a8.5 8.5 0 0 1 3.56.77c.7.35.74.35.74.15 0-.12.17-.15.9-.15h.91l-.46.6-.46.6.16.47c.42 1.24-.5 2.44-2.43 3.13-.6.22-.63.25-.57.5.04.13.1.29.14.33.12.12 1.8-.19 2.7-.49 1.82-.6 2.81-1.61 2.8-2.85 0-1.38-1.2-2.45-3.42-3.04a17 17 0 0 0-5.07-.53c-1.13 0-2.2.03-2.38.05m-1.37.18c-2.22.38-3.75 1.2-4.29 2.27-.49.98-.23 2.18.62 2.88.8.66 2.54 1.28 4.32 1.55.96.15 5.01.21 5.48.09.18-.05.22-.13.2-.33-.03-.3.07-.28-1.5-.12-1.5.15-3.4-.09-4.48-.56a4 4 0 0 0-1.54-.14l-1.2.03.46-.54.46-.54-.19-.25c-.1-.14-.22-.43-.27-.65-.26-1.2.5-2.07 2.64-3 .2-.08.2-.12.1-.45l-.11-.36zm1.28 1.43c0 .15-1.37 1.93-2.8 3.6l-.36.42h.67c.63 0 .66 0 .66-.25 0-.13.14-.4.31-.6.29-.32.35-.35.89-.35h.57l-.07.4a1 1 0 0 1-.31.6l-.24.2h1.04c.9 0 1.02-.02.97-.16a1 1 0 0 1-.06-.38q-.01-.23-.25-.34c-.38-.18-.35-.73.06-1.05.28-.21.32-.32.4-.98L11 7.18V6.9h-.8c-.7 0-.79.02-.77.18m2.52.47c0 .36.03.65.06.65.04 0 .16.18.28.4.18.34.19.41.06.54a.6.6 0 0 0-.15.4q0 .25-.35.52c-.2.14-.35.33-.35.41 0 .23.58.75.8.71.1-.02.53-.48.95-1.03l.76-1-.07.8c-.06.75-.05.81.17 1.02.5.44.52.42 2.25-1.82A43 43 0 0 0 18 6.97c0-.04-.26-.07-.57-.05-.49.03-.58.06-.55.2.04.24-1.43 2.36-1.55 2.24-.1-.09.2-1.63.37-2.03l.19-.43H14.4v.28c0 .25-.55 1.17-1.2 2-.25.3-.25.22 0-1.08l.2-1.12c0-.05-.33-.08-.72-.08h-.73zm-.63.9c-.12.1-.22.24-.22.33s-.14.26-.3.36c-.18.1-.36.3-.43.43-.1.22-.08.28.12.44.28.23.6.24 1.06.05.35-.15.6-.49.51-.71q-.03-.12.1-.19c.19-.07.18-.36-.02-.36q-.13-.01-.09-.1c.09-.14-.13-.4-.34-.4-.1 0-.27.07-.39.16m-2.15.27-.28.37h.26q.41 0 .33-.51c-.03-.21-.05-.2-.31.14m2.33-.08q-.1.14-.06.23.03.1-.19.2c-.35.16-.49.47-.3.66.2.2.35.2.63 0 .33-.23.28-.44-.1-.44q-.37 0-.18-.1c.08-.05.3-.1.47-.1s.35-.05.4-.12q.06-.12-.1-.05-.16.05-.17-.03-.01-.1-.15-.1c-.2 0-.19-.18.03-.23q.21-.05 0-.06a.4.4 0 0 0-.28.14"/></svg>