<svg xmlns="http://www.w3.org/2000/svg" width="24" height="24"><path fill="#13b3f0" fill-rule="evenodd" d="M7.25 2.12c-.17.06-.47.27-.67.46-.7.67-.69.54-.66 6.57.03 5.24.04 5.41.24 5.8.12.23.4.54.68.73l.48.32h4.65c4.4 0 4.66-.01 5.02-.2.48-.24.87-.7 1.01-1.18.08-.25.1-2.11.08-5.83l-.03-5.45-.27-.41a3 3 0 0 0-.65-.64l-.38-.24-4.6-.02q-4.58-.02-4.9.09m3.22 1.2L9.85 4.5 8.68 6.68 7.98 8h.34c.3 0 .35-.05.68-.68l.35-.67h3.49l.39.67.39.68h2.6l-.5-.92c-.27-.51-.86-1.64-1.33-2.5L13.55 3h-2.91zm.4.39c-.35.55-1.27 2.32-1.23 2.36.06.05 2.69.03 2.74-.03a23 23 0 0 0-1.24-2.38c-.12-.18-.13-.18-.27.05m-4.27 7.3c0 1.62.04 2.99.1 3.2s.24.48.41.62l.3.26h9.21l.33-.33c.43-.43.47-.74.43-3.23-.03-2.27-.09-2.45-.75-2.63-.24-.07-2-.1-4.67-.1-4.15-.01-4.31-.02-4.73-.22-.24-.11-.43-.25-.43-.3q0-.08-.1-.09c-.06 0-.1 1-.1 2.83m1.25-1.5c-.03.07-.04 1.23-.03 2.57l.03 2.45h3.7c3.55 0 3.71 0 4.05-.2.91-.54 1.07-1.7.32-2.38-.2-.17-.2-.18 0-.55.1-.2.18-.47.18-.6 0-.4-.3-.92-.69-1.18l-.36-.24h-3.58c-2.8 0-3.59.03-3.62.13m2.52.74c-.04.03-.07.3-.07.6v.53h1.1c1.2 0 1.4-.08 1.4-.6 0-.47-.3-.6-1.4-.6-.53 0-1 .03-1.03.07m-.07 2.68v.75h1.09c.94 0 1.12-.03 1.35-.2.34-.27.36-.8.04-1.1-.2-.18-.35-.2-1.35-.2H10.3z"/></svg>