<svg xmlns="http://www.w3.org/2000/svg" width="24" height="24"><path fill="#3a4e73" fill-rule="evenodd" d="m10.28 2.18-.03.6c-.01.48-.25.85-.25.39 0-.39-.18-.33-.26.07-.1.52-.3.65-1.02.63-.34-.01-.62-.07-.63-.12 0-.05.26-.18.57-.27 1-.3 1.11-.7.22-.72-.24 0-.46-.05-.5-.1-.09-.12-.28.02-.38.3-.11.3-.4.31-.58.04-.19-.3-.35-.25-.29.1.04.17.02.3-.03.3Q7 3.39 7 3.21c0-.3-.36-.33-.49-.04-.1.21-.08.28.16.52.18.18.45.3.73.35.48.09.47.1-.14.2-.45.09-.86.45-.86.8 0 .2.06.25.34.3a1 1 0 0 0 .49 0q.16-.04.27.15c.1.21.63.53.78.49.11-.04.62.56.62.72 0 .06.15.3.34.53.42.52.55 1.14.45 2.17-.1.94-.22 1.27-.54 1.42q-.23.11-.25.25c0 .16.38.17.72 0 .22-.1.27-.2.33-.67.03-.3.19-1.02.34-1.6l.28-1.05.16.3c.08.17.19.49.23.7.04.22.15.56.25.75.1.2.2.55.24.8.06.38.05.45-.16.62-.2.15-.22.2-.09.28.18.12.5.03.67-.19s.16-.29-.07-.96q-.2-.59-.2-1.32V8h.33c.17 0 .49-.03.7-.06l.37-.07v.9c0 .72-.05.97-.25 1.4-.15.33-.34.58-.5.65-.34.15-.32.38.03.38.4 0 .67-.28.9-.93.13-.32.3-.75.41-.95q.2-.38.19-.96 0-.96.35-.67c.08.06.37.44.63.84.44.65.49.78.52 1.4.03.51 0 .73-.13.93-.22.34-.07.53.3.36.34-.15.38-.4.26-1.63a4 4 0 0 0-.37-1.55c-.22-.42-.25-.58-.2-1.09.02-.33.01-.78-.02-1-.1-.6-.54-.78-2.04-.85-1.07-.06-1.2-.09-1.53-.34a2 2 0 0 0-.97-.36c-1.01-.15-1.02-.33-.03-.66.92-.31 1.73-.92 1.45-1.1-.06-.03-.1-.14-.1-.25 0-.25-.17-.25-.25 0a1 1 0 0 1-.22.32c-.14.12-.15.1-.08-.29.08-.5-.08-.57-.24-.1-.13.38-.4.7-.52.62-.05-.03-.09-.25-.09-.5 0-.41-.18-.64-.22-.26m-2.98 10c-.12.02-.14.17-.11.85.02.46.08.85.15.9.17.1.5.08.69-.05.42-.33.24-1-.26-1-.23 0-.26-.05-.29-.37q-.02-.38-.18-.33m8.1.02c-.1.06-.13.29-.1.84q0 .75-.1.76c-.05 0-.1-.18-.1-.4 0-.42-.24-.66-.5-.5a.4.4 0 0 1-.3.02 1 1 0 0 0-.35-.06l-.38.03c-.14 0-.16.07-.11.4q.06.38-.05.45c-.17.1-.03.26.23.26.2 0 .23-.05.22-.41q0-.41.12-.47c.1-.03.13.06.1.4l-.03.43.95.01c1.11.01 1.4-.1 1.4-.56 0-.31-.4-.68-.6-.55q-.1.05-.1-.29 0-.57-.3-.36m-9.1.73c-.28.14-.38.37-.16.37q.15 0 .16-.1.01-.09.1-.1.09.02.1.15-.01.14-.14.15c-.23 0-.4.28-.27.44.12.15.88.18.97.05q.04-.08-.05-.09c-.06 0-.11-.18-.11-.4 0-.47-.23-.65-.6-.47m2.37.08c-.32.24-.35.59-.07.84.22.2.64.14.74-.1q.08-.19-.15-.1a.4.4 0 0 1-.36-.07c-.14-.11-.12-.14.18-.18.39-.06.44-.26.13-.46-.18-.13-.24-.12-.47.07m.94-.12c-.05.03-.1.29-.12.56-.03.46-.01.5.2.53.13.02.28-.01.34-.07q.12-.12-.01-.11c-.07 0-.12-.13-.12-.29q0-.29.2-.34.18-.06.2-.15c0-.11-.55-.21-.69-.13m1.04.03c-.4.22-.47.64-.17.91q.36.33.67-.03c.18-.2.18-.2-.12-.14-.26.05-.32.02-.38-.15q-.12-.46.31-.37c.28.07.35-.18.08-.28-.19-.07-.15-.08-.39.06m.86-.02c-.05.03-.1.28-.12.55-.03.46-.01.5.2.53.13.02.28-.01.34-.07q.12-.12-.01-.11c-.07 0-.12-.13-.12-.29q0-.29.21-.34t.17-.18c-.04-.13-.52-.2-.67-.1m1.09-.01c-.4.12-.53.68-.22.95.38.35.92.08.92-.45 0-.35-.36-.6-.7-.5m4.03 0c-.06.04-.13.3-.14.57-.03.48-.03.5.25.53q.33.05.22-.13c-.03-.1-.06-.37-.06-.6 0-.45-.05-.51-.27-.37m.62.17c-.3.3-.31.49-.05.75.23.23.5.26.68.08q.28-.26-.15-.23c-.14 0-.28-.06-.3-.12q-.04-.13.26-.13c.24 0 .31-.04.31-.2 0-.17-.26-.4-.45-.4-.03 0-.17.11-.3.25m-9.75.27c0 .34.16.56.3.42.17-.17.08-.58-.12-.62q-.19-.05-.18.2m8.2.13q0 .35.14.35c.2 0 .28-.28.16-.5-.16-.3-.3-.23-.3.15m-5.55.8c-.07.04-.1.33-.07.75q.04.7-.08.85c-.1.13-.04.15.54.15.37 0 .66-.04.66-.1q0-.1-.09-.1-.1-.02-.25-.25c-.16-.24-.16-.26.08-.37.3-.13.25-.28-.1-.28q-.25-.01-.24.2 0 .18-.1.2c-.05 0-.1-.25-.1-.55 0-.53-.03-.59-.25-.5m2.68.01q-.12.06-.07.34c.05.24.03.29-.16.32a1 1 0 0 0-.42.29c-.15.2-.17.3-.09.52.1.24.15.27.6.27.27 0 .53-.04.56-.1q.04-.1-.04-.1c-.07 0-.11-.3-.11-.8 0-.78-.02-.84-.27-.74M11.5 15q-.14.08-.08.44c.03.2 0 .4-.06.46q-.13.12.22.11c.26 0 .32-.03.27-.16a2 2 0 0 1-.06-.55c0-.4-.05-.45-.29-.3m2.01.03q-.26.23.08.53c.11.1.2.23.2.28q-.02.08-.2-.08c-.2-.18-.2-.17-.2.04 0 .2.05.22.32.2.41-.05.48-.32.17-.65-.23-.24-.14-.35.1-.11q.14.15.1-.08c-.05-.23-.39-.31-.57-.13m-1.08.22c-.09.23 0 .51.16.51q.15 0 .15-.3c0-.3-.21-.46-.3-.21"/></svg>