<svg xmlns="http://www.w3.org/2000/svg" width="24" height="24"><path fill="#f14b70" fill-rule="evenodd" d="M17.64 7.32c-.16.3-.18.31-.25.13q-.1-.28-.08-.01.02.22-.16.06c-.14-.12-.15-.08-.09.31.08.53.08.52.3.45q.19-.05.35-.66c.09-.33.14-.6.13-.6s-.11.15-.2.32M3.75 7.5c-.06.1-.04.11.3.14.25.01.31.36.16.87-.1.32-.16.38-.43.4-.17.03-.34.1-.36.18q-.04.12.07.07c.06-.04.2-.04.31-.01.2.06.2.07-.01.48a4 4 0 0 1-.52.74c-.17.18-.29.35-.26.37.07.07 1.19-.28 1.19-.37q-.01-.06-.24-.07h-.24L4 9.8c.33-.64.65-.7.76-.13.13.72.6 1.33 1 1.33.26 0 .45-.18.45-.41s-.19-.34-.33-.2q-.12.12.01.11.11.01.12.1c0 .17-.26.11-.44-.09-.1-.1-.26-.42-.36-.7l-.2-.5.3-.16c.4-.2.55-.49.35-.65-.16-.14-.45-.07-.45.1q.01.11.16.06t.12.06c-.03.07-.16.13-.29.13-.21 0-.24-.04-.23-.4 0-.22.04-.48.08-.57q.11-.2-.15-.18a1 1 0 0 1-.43-.15c-.23-.17-.62-.2-.71-.05m2.5 1.15c-.35.34-.35 1.06 0 1.4.13.14.31.25.4.25.26 0 .55-.2.55-.37q0-.19-.12-.05c-.43.43-.91-.46-.58-1.09.13-.23.4-.26.4-.04 0 .17.16.2.24.06q.05-.1 0-.25c-.1-.25-.61-.2-.9.09m1.5 0c-.34.34-.34 1.06 0 1.4.27.27.47.3.77.15.28-.16.24-.33-.07-.26q-.56.17-.54-.64c0-.57.23-.86.45-.56.18.24.39.12.25-.15s-.56-.24-.85.06m1.57-.18c-.2.08-.42.59-.42.98 0 .65.66 1.06 1.13.7.26-.19.13-.39-.14-.22-.17.1-.23.09-.4-.12a1 1 0 0 1-.19-.42c0-.16.07-.19.4-.19q.72 0 .36-.55-.26-.36-.74-.18m1.42.16c-.34.3-.26.62.22.84.2.1.34.24.34.35 0 .23-.27.23-.52.01q-.19-.16-.29-.06-.11.1.17.32c.32.25.52.26.82.05.35-.24.26-.63-.2-.93-.21-.13-.38-.3-.38-.37 0-.21.2-.27.46-.13.28.15.42.06.24-.16s-.55-.18-.86.08m1.58-.07c-.34.23-.26.62.18.92.2.13.35.29.35.35 0 .18-.3.2-.48.03-.2-.2-.37-.2-.37-.02 0 .2.39.46.66.46.28 0 .54-.3.54-.63 0-.2-.1-.3-.4-.48-.22-.13-.4-.29-.4-.36 0-.2.3-.28.52-.14q.36.2.25-.14c-.08-.2-.56-.2-.85.01m1.6-.1c-.2.09-.42.6-.42.97 0 .94 1.15 1.22 1.5.38.15-.38.06-.95-.2-1.22-.19-.18-.6-.24-.88-.12m1.9.02a1 1 0 0 1-.4.03c-.25-.05-.25-.05-.09.19.24.33.22 1.04-.03 1.29a1 1 0 0 0-.2.25c0 .05.92-.05.99-.1q.02-.05-.13-.2c-.18-.19-.22-.86-.06-1.16.12-.21.45-.26.56-.07q.08.12-.1.05-.16-.06-.16.08c0 .2.24.2.4 0 .26-.31-.39-.61-.78-.36m2.31.06c-.08.22.04.3.2.16q.15-.1.36-.03c.2.07.2.1-.25.7-.48.65-.52.92-.12.92.13 0 .44.07.7.17.39.14.5.14.62.04.27-.23.13-.63-.15-.45q-.12.06.02.15.11.07.07.14c-.11.11-1.1-.45-1.02-.58l.51-.7c.24-.31.43-.57.41-.58l-.66-.05c-.5-.03-.64 0-.69.11m2-.08c-.08.03-.2.18-.28.33-.45.87.29 1.88 1 1.37.25-.2.11-.4-.16-.24-.17.1-.23.09-.4-.12q-.49-.6.24-.63c.34-.02.43-.07.45-.24.06-.4-.41-.65-.86-.47m-3.22.13c0 .04.07.14.16.2.21.19.14 1.08-.1 1.22-.3.17-.16.26.32.2.55-.06.63-.1.4-.23-.14-.08-.18-.23-.18-.64 0-.3.04-.57.1-.6.21-.13.08-.22-.3-.22-.22 0-.4.03-.4.07m-2.84.16c-.37.36-.29 1.05.14 1.19.52.16.82-.73.4-1.15-.24-.24-.34-.25-.54-.04"/></svg>