<svg xmlns="http://www.w3.org/2000/svg" width="24" height="24"><path fill-rule="evenodd" d="M17.45 3.48c-.16.1-.36.26-.43.34-.22.27-.25.8-.08 1.22.16.37.15.38-.16.77-.65.8-.43 1.8.49 2.2.58.26 1.2.2 1.76-.17l.39-.26.22.21c.17.16.35.21.77.2h.54l-1.68-1.62a14 14 0 0 1-1.67-1.78c0-.5.75-.67.95-.21.12.27.13.27.49-.04l.29-.25-.2-.27a1.27 1.27 0 0 0-1.68-.34m-13.2.71c-.43.1-.7.27-.94.57-.32.4-.27.6.16.7.35.1.4.08.58-.2.3-.45 1.02-.48 1.25-.07.18.35.02.46-.88.63-.74.14-.91.21-1.14.48-.41.45-.39 1.01.06 1.46.3.3.4.34.88.34q.53 0 .86-.2c.26-.16.32-.17.32-.05 0 .11.12.15.46.15h.46l-.04-1.42C6.24 5 6.13 4.62 5.62 4.37c-.35-.18-1-.26-1.37-.18m4 .02c-1.62.38-1.98 2.7-.56 3.61.41.26.53.3 1.13.26.75-.04 1.07-.21 1.46-.79l.23-.34-.37-.17-.37-.16-.32.34c-.25.26-.4.34-.69.34-.8 0-1.3-.93-.92-1.72.3-.6 1.07-.78 1.51-.33.14.13.25.29.25.34 0 .16.75-.14.78-.31.04-.2-.42-.75-.77-.92a2 2 0 0 0-1.35-.15m3.97-.01c-.44.1-.76.33-1.1.76-.21.29-.28.5-.31.99-.08 1.24.58 2.06 1.73 2.13.78.05 1.27-.16 1.62-.7.14-.21.24-.4.22-.42l-.37-.14c-.31-.1-.35-.1-.59.18-.21.26-.32.3-.73.3-.42 0-.52-.04-.74-.3-.47-.57-.41-.6 1.09-.6 1.47 0 1.4.03 1.36-.6q-.06-.75-.57-1.2a1.8 1.8 0 0 0-1.61-.4m-.24 1c-.16.15-.29.33-.29.4q.01.1.9.1c1 0 1.11-.1.65-.55-.35-.36-.88-.34-1.26.04m5.4 1.13c-.24.41-.24.6 0 .89.25.31.83.32 1.13.01l.22-.22-.49-.5a3 3 0 0 0-.57-.5c-.05 0-.17.15-.28.33M4.6 6.4c-.59.12-.77.3-.64.66.18.54 1.13.4 1.34-.2.2-.6.16-.63-.7-.46m4.2 3.62c0 .48-.13.67-.47.67-.2 0-.23.05-.23.4s.02.39.33.42l.32.03.05 1.23c.05 1.21.06 1.24.34 1.48.23.2.37.24.8.22.51-.03.51-.03.54-.4.03-.36.02-.37-.35-.4l-.38-.03-.03-1.07-.03-1.08h.82l-.03-.37c-.03-.36-.05-.38-.4-.41l-.38-.03V9.6h-.9zm6.6-.1c0 .43-.25.77-.56.77-.21 0-.24.04-.24.4 0 .4 0 .4.35.4h.35v1.1c0 1.54.22 1.9 1.18 1.9H17v-.4c0-.37-.02-.4-.28-.4-.46 0-.52-.15-.52-1.22v-.98h.8v-.8h-.8V9.6h-.4c-.39 0-.4.01-.4.33m-3.55.86c-.43.2-.75.58-.75.9 0 .14.1.2.37.26q.37.06.41-.04c.1-.33.4-.53.75-.53q.7 0 .65.51c-.03.22-.1.27-.53.33l-.82.13a2 2 0 0 0-.62.34c-.54.5-.4 1.4.3 1.76.43.23 1 .19 1.43-.1.34-.23.36-.23.36-.05s.07.2.43.2h.42l-.03-1.47c-.03-1.15-.08-1.54-.2-1.77-.36-.62-1.36-.84-2.17-.47m6.6-.02q-.78.4-1.01 1.2c-.32 1.1.1 2.07 1.08 2.48.74.3 1.7.08 2.17-.5q.41-.52-.12-.68c-.25-.08-.32-.05-.59.22-.4.42-.95.43-1.37.04a1 1 0 0 1-.33-.48c-.03-.2.03-.2 1.34-.23L21 12.8v-.37c0-.71-.51-1.48-1.13-1.71a2 2 0 0 0-1.42.06m.1.88c-.47.46-.35.55.66.55.89 0 .9 0 .84-.22-.18-.6-1.05-.8-1.5-.33m-6.1 1.24c-.47.11-.55.2-.55.51 0 .37.3.54.76.46a.76.76 0 0 0 .64-.78c0-.24-.04-.28-.28-.27-.15 0-.4.04-.58.08"/></svg>