<svg xmlns="http://www.w3.org/2000/svg" width="24" height="24"><path fill="#1761a2" fill-rule="evenodd" d="M3.56 8.96c-.32.91-.55 1.69-.52 1.72q.06.04.1.01c.1-.12 1.13-3.39 1.07-3.39s-.34.75-.65 1.66M4.75 7.4c-.04.06-.3.83-.6 1.7-.45 1.35-.51 1.6-.37 1.6.13 0 .3-.35.66-1.42.67-1.96.67-1.98.5-1.98a.3.3 0 0 0-.2.1m.8 0-.6 1.71-.53 1.6.26-.03c.24-.03.3-.15.79-1.53.29-.82.53-1.58.53-1.67.01-.2-.33-.25-.44-.08m1.01.09c-.12.13-1.16 2.98-1.16 3.19 0 .02.19.02.42 0 .4-.03.42-.05.58-.53s.18-.5.6-.53l.43-.03-.07.55-.06.56h.4c.46 0 .4.14.7-1.74.11-.7.18-1.37.15-1.47-.06-.17-.17-.19-.94-.19-.73 0-.9.03-1.05.19m2.65-.05a11 11 0 0 0-.5 3.13c.13.15 1.95.19 2.16.05.07-.05.17-.3.22-.56.1-.53.04-.6-.46-.54q-.29.03-.31.26c-.03.19-.1.22-.43.22-.34 0-.4-.03-.35-.17.03-.1.1-.55.17-1L9.82 8h.4c.35 0 .39.02.36.22s.01.23.37.23c.38 0 .4-.01.48-.43.13-.66.03-.72-1.13-.72-.72 0-1 .04-1.1.14m2.6.04c0 .1-.03.27-.06.4-.06.2-.03.22.3.22s.36.02.31.23c-.1.43-.35 2.02-.35 2.2 0 .13.09.17.4.17.22 0 .4-.03.4-.07l.15-.98.2-1.22c.05-.3.1-.33.4-.33.35 0 .45-.13.45-.56 0-.24 0-.24-1.1-.24-.98 0-1.1.02-1.1.18m2.26 1.45-.26 1.7c0 .04.18.07.4.07.45 0 .39.15.7-1.82.26-1.67.27-1.58-.18-1.58h-.39zm1.63-1.47c-.2.24-.6 2.95-.47 3.11.16.2 2.01.18 2.18-.03.2-.23.62-2.95.48-3.11-.17-.2-2.02-.18-2.19.03m2.8-.13-.24 1.47c-.33 1.95-.34 1.9.14 1.9h.38l.12-.76c.07-.41.15-.73.19-.7l.42.74c.31.58.4.67.67.7l.3.03.22-1.43.28-1.7c.05-.27.04-.28-.35-.28-.46 0-.48.03-.58.9-.03.33-.1.6-.13.6s-.24-.34-.46-.75c-.35-.66-.43-.75-.67-.75l-.28.03M6.97 8.45l-.16.45h.38c.35 0 .4-.03.45-.31.1-.53.08-.59-.23-.59-.26 0-.31.06-.44.45m9.23.38a11 11 0 0 1-.17 1c-.04.14.02.17.35.17h.4l.11-.78.18-1c.05-.2.02-.22-.35-.22h-.4z"/></svg>