<svg xmlns="http://www.w3.org/2000/svg" width="24" height="24"><path fill="#827a37" fill-rule="evenodd" d="M3.62 7.65 3 8.93s.14.02.32.01c.25 0 .35-.07.47-.32.14-.31.16-.32.82-.32s.67 0 .79.3c.1.25.18.3.46.3.19 0 .34-.02.34-.05s-.27-.6-.6-1.25L5 6.4h-.75zm15.18-.02c0 .68.02 1.26.04 1.28s.52.03 1.1 0C21 8.9 21 8.89 21 8.65c0-.23-.02-.24-.75-.24h-.75v-2h-.7zm-12.4.02v.95h.84c.76 0 .86-.02 1.09-.25q.46-.45.21-1.03c-.2-.49-.49-.62-1.36-.62H6.4zm2.6 0v.95h.3c.28 0 .3-.01.32-.57l.03-.58.33.58c.19.31.35.57.37.57s.2-.28.4-.62l.35-.63V8.6h.6V6.7h-.43c-.4 0-.45.03-.66.4-.12.22-.24.4-.26.4s-.14-.18-.26-.4c-.21-.37-.26-.4-.66-.4H9zm3.3 0v.95h.6V6.7h-.6zm1.3 0v.95h.3c.27 0 .3-.03.3-.3s.03-.3.3-.3c.23 0 .33.07.45.3s.22.3.45.3c.34 0 .35-.04.15-.4-.11-.2-.11-.28 0-.4q.37-.43.04-.83c-.2-.26-.25-.27-1.1-.27h-.89zm2.87 0L16 8.6h.3q.3 0 .4-.2c.08-.16.2-.2.6-.2s.52.04.6.2q.1.2.4.2h.3l-.47-.95c-.47-.93-.48-.95-.83-.95s-.36.02-.83.95M4.46 7.29c-.2.39-.18.44.2.4l.3-.04-.17-.35-.16-.34zm2.54.4v.51h.33c.47 0 .74-.3.61-.68-.08-.23-.16-.27-.52-.3L7 7.19zm7.2-.34c0 .11.12.15.45.15s.45-.04.45-.15-.12-.15-.45-.15-.45.04-.45.15M6.17 9.47c-.12.12-.08 1.88.05 2.01.07.07.43.12.9.12h.78V9.4h-.83c-.46 0-.87.03-.9.07M8.1 10.5v1.1h1.8V9.4H8.1zm2 0v1.1h1.8V9.4h-1.8zm2 0v1.1h1.8V9.4h-1.8zm2 0v1.1h1.8V9.4h-1.8zm2 0v1.1h.78c.47 0 .83-.05.9-.12a5 5 0 0 0 .06-1.92c-.05-.13-.23-.16-.9-.16h-.84z"/></svg>