<?xml version="1.0" encoding="UTF-8" standalone="no"?>
<svg
   viewBox="0 0 24 24"
   width="24pt"
   height="24pt"
   version="1.1"
   id="svg1"
   xml:space="preserve"
   xmlns="http://www.w3.org/2000/svg"
   xmlns:svg="http://www.w3.org/2000/svg"><defs
     id="defs1" /><g
     id="g1"
     transform="matrix(0.09630131,0,0,0.09630131,-2.4933472,4.017172)"><path
       d="m 171.571,19.571 c -1.842,1.843 -1.942,2.867 -0.536,5.495 1.546,2.887 6.701,2.607 8.089,-0.44 2.301,-5.049 -3.605,-9.002 -7.553,-5.055 m 42.172,42.019 c -0.325,0.325 0.05,2.407 0.833,4.626 0.783,2.22 1.424,4.429 1.424,4.91 0,1.743 -5.005,0.839 -6.232,-1.126 -2.035,-3.258 -2.768,-2.331 -2.768,3.5 0,5.831 0.733,6.758 2.768,3.5 1.227,-1.965 6.232,-2.869 6.232,-1.126 0,0.481 -0.68,2.801 -1.511,5.156 -2.513,7.124 0.192,6.345 5.142,-1.48 2.092,-3.306 3.323,-4.273 5.517,-4.335 5.87,-0.167 6.206,-3.215 0.354,-3.215 -3.024,0 -3.727,-0.575 -6.69,-5.472 -3.292,-5.438 -3.939,-6.068 -5.069,-4.938"
       stroke="none"
       fill="#eed554"
       fill-rule="evenodd"
       id="path1-0" /><path
       d="m 117.384,21.441 c -0.331,0.863 -0.416,3.156 -0.19,5.095 0.338,2.896 0.134,3.406 -1.141,2.854 -3.437,-1.489 -6.942,-1.499 -9.786,-0.028 -3.134,1.621 -6.267,6.914 -6.267,10.589 0,2.979 2.553,7.622 5.217,9.488 2.634,1.846 9.873,2.071 11.583,0.361 0.933,-0.933 1.2,-0.919 1.2,0.063 0,0.823 1.133,1.154 3.25,0.95 L 124.5,50.5 v -15 -15 l -3.257,-0.314 c -2.247,-0.216 -3.443,0.173 -3.859,1.255 M 226,35.5 V 51 h 3.5 3.5 V 35.5 20 H 229.5 226 V 35.5 M 79.086,25.831 C 76.939,30.039 68,50.035 68,50.629 68,50.833 69.614,51 71.587,51 c 3.067,0 3.751,-0.435 4.719,-3 1.1,-2.913 1.322,-3 7.694,-3 6.372,0 6.594,0.087 7.694,3 0.977,2.588 1.64,3 4.826,3 2.936,0 3.571,-0.32 3.095,-1.56 C 99.286,48.582 96.454,42.057 93.322,34.94 87.683,22.126 87.595,22 84.334,22 c -2.811,0 -3.579,0.561 -5.248,3.831 M 130,39.5 V 51 h 3.5 3.5 v -7.465 c 0,-6.357 0.287,-7.618 1.934,-8.5 2.502,-1.339 2.635,-1.323 4.495,0.536 1.126,1.127 1.571,3.535 1.571,8.5 V 51 h 3.5 3.5 v -7.465 c 0,-6.441 0.274,-7.611 2,-8.535 1.421,-0.76 2.579,-0.76 4,0 1.726,0.924 2,2.094 2,8.535 V 51 h 3.5 3.5 v -8.577 c 0,-8.146 -0.147,-8.724 -2.923,-11.5 -3.294,-3.294 -6.964,-3.752 -11.422,-1.427 -2.517,1.313 -3.091,1.312 -4.973,-0.006 -2.513,-1.761 -6.014,-1.918 -8.855,-0.397 -1.477,0.79 -2.344,0.79 -3.134,0 C 135.092,28.492 133.565,28 132.3,28 130.033,28 130,28.167 130,39.5 M 172.464,28.87 C 172.209,29.125 172,34.208 172,40.167 V 51 h 3.533 3.533 L 178.783,39.75 178.5,28.5 175.714,28.453 c -1.533,-0.026 -2.995,0.162 -3.25,0.417 m 12.203,-0.203 C 184.3,29.033 184,34.208 184,40.167 V 51 h 3.5 3.5 v -6.8 c 0,-7.298 0.972,-9.2 4.7,-9.2 1.962,0 2.3,-0.514 2.3,-3.5 0,-3.753 -0.478,-4.029 -4.399,-2.538 -1.62,0.616 -2.744,0.616 -3.125,0 -0.675,-1.094 -4.801,-1.303 -5.809,-0.295 m 18.54,0.842 c -3.235,1.405 -3.264,1.474 -1.648,3.941 1.31,1.999 2.019,2.311 3.477,1.53 2.616,-1.399 6.528,-1.21 7.848,0.38 0.919,1.107 0.172,1.473 -4.015,1.969 -2.829,0.335 -5.982,1.368 -7.006,2.295 -2.661,2.408 -2.462,7.843 0.36,9.819 2.634,1.846 8.878,2.056 10.577,0.357 0.933,-0.933 1.2,-0.933 1.2,0 0,0.705 1.444,1.2 3.5,1.2 h 3.5 v -7.453 c 0,-4.099 -0.538,-8.633 -1.195,-10.075 -2.32,-5.092 -9.857,-6.892 -16.598,-3.963 M 83.125,32.317 c -0.62,1.55 -1.592,3.687 -2.161,4.75 C 80.02,38.83 80.287,39 84,39 c 3.879,0 4.015,-0.103 2.897,-2.192 -0.645,-1.205 -1.504,-3.342 -1.909,-4.75 L 84.252,29.5 83.125,32.317 m 25.914,3.136 c -1.639,1.974 -1.66,6.094 -0.042,8.044 1.917,2.309 5.741,1.832 7.56,-0.944 1.379,-2.104 1.416,-2.839 0.266,-5.25 -1.554,-3.256 -5.783,-4.261 -7.784,-1.85 M 206.5,43 c -0.967,1.565 0.4,3 2.859,3 2.225,0 4.641,-1.666 4.641,-3.2 0,-1.163 -6.769,-0.983 -7.5,0.2 m -12.038,19.238 c -0.296,0.772 -0.409,5.872 -0.25,11.333 0.233,8.031 0.575,9.929 1.788,9.929 1.242,0 1.5,-1.879 1.5,-10.913 0,-7.838 -0.352,-11.032 -1.249,-11.334 -0.688,-0.23 -1.492,0.213 -1.789,0.985 M 104,63.5 c 0,1.048 1.056,1.5 3.5,1.5 h 3.5 v 9.5 c 0,7.778 0.272,9.5 1.5,9.5 1.228,0 1.5,-1.722 1.5,-9.5 V 65 h 3.5 c 2.444,0 3.5,-0.452 3.5,-1.5 0,-1.216 -1.611,-1.5 -8.5,-1.5 -6.889,0 -8.5,0.284 -8.5,1.5 m 27.681,4.153 c -0.359,0.358 -2.009,0.614 -3.667,0.566 L 125,68.134 v 7.933 c 0,6.385 0.293,7.933 1.5,7.933 1.149,0 1.5,-1.27 1.5,-5.429 0,-5.538 1.618,-8.571 4.571,-8.571 0.786,0 1.429,-0.675 1.429,-1.5 0,-1.554 -1.181,-1.985 -2.319,-0.847 m 9.069,0.509 c -1.512,0.553 -2.75,1.69 -2.75,2.528 0,1.059 0.534,1.304 1.75,0.804 3.811,-1.569 5.322,-1.679 6.755,-0.49 2.58,2.141 1.66,3.494 -2.409,3.541 -6.443,0.075 -9.243,4.202 -5.283,7.786 1.237,1.119 3.464,1.604 7,1.525 L 151,83.739 v -6.297 c 0,-5.612 -0.287,-6.522 -2.635,-8.369 -2.911,-2.29 -3.609,-2.374 -7.615,-0.911 m 28.597,-0.38 c -0.634,0.395 -2.359,3.418 -3.834,6.718 l -2.682,6 -2.592,-6.25 C 158.813,70.813 157.051,68 156.323,68 c -1.78,0 -1.777,0.014 1.887,8.535 1.766,4.106 3.82,7.465 4.565,7.465 0.745,0 2.928,-3.405 4.851,-7.567 3.454,-7.475 3.966,-10.049 1.721,-8.651 m 8.683,0.497 C 169.934,72.376 172.721,84 181.8,84 c 3.523,0 6.2,-1.362 6.2,-3.153 0,-0.414 -2.204,-0.492 -4.897,-0.173 -4.294,0.509 -5.037,0.318 -6.035,-1.547 -1.107,-2.068 -0.959,-2.127 5.397,-2.127 6.12,0 6.533,-0.143 6.503,-2.25 -0.038,-2.687 -1.671,-4.999 -4.652,-6.587 -2.714,-1.445 -3.219,-1.436 -6.286,0.116 m -0.439,3.62 c -1.664,1.839 -1.558,1.91 3.346,2.25 5.357,0.371 6.855,-1.12 3.129,-3.114 -2.818,-1.508 -4.536,-1.279 -6.475,0.864 m -36.924,5.768 c -2.506,2.505 1.793,5.227 5.295,3.353 3.275,-1.752 2.544,-4.02 -1.295,-4.02 -1.834,0 -3.634,0.3 -4,0.667"
       stroke="none"
       fill="#f5f9fa"
       fill-rule="evenodd"
       id="path2" /></g></svg>
