<svg xmlns="http://www.w3.org/2000/svg" width="24" height="24"><path fill="#ebd4e6" fill-rule="evenodd" d="M7.28 6.28a1.4 1.4 0 0 0-1.01.76c-.03.08-.56.81-1.18 1.63C3.26 11.07 3 11.42 3 11.5c0 .15.87.1.93-.04.03-.07.42-.63.87-1.23l1.03-1.38c.59-.79 1.59-2.06 1.63-2.06.02 0 .04.33.04.73v.73l-.4.18c-.66.29-.66.65 0 .98l.35.18.05.97.05.98 1.58.03c.86.01 1.58-.01 1.58-.05l.03-.33.01-.25-1.2-.05-1.2-.05-.03-.53-.03-.52 1.33.06c1.2.05 1.34.08 1.48.27.08.11.38.44.67.73 1.05 1.07 2.54 1.12 3.78.14.44-.35.85-1.09 1-1.77.15-.75-.46-2.02-1.23-2.53-.2-.14-.4-.29-.43-.33q-.06-.08-.13-.08l-.2-.05a5 5 0 0 0-.98 0c-1.03.07-1.08.08-1.08.17q-.02.07-.18.13A3 3 0 0 0 10.86 9c0 .24-.04.25-.66.28-.36.01-.92-.01-1.25-.05-.57-.08-.6-.1-.63-.37-.02-.16 0-.33.06-.38.06-.06.56-.13 1.11-.17 1.38-.08 1.29-.27-.12-.23l-1.08.02.03-.52.03-.53 1.18-.03L10.7 7v-.68l-1.52-.03c-.84-.02-1.7-.02-1.9 0m9.8-.01c-.17.04-.18.23-.16 2.66l.03 2.62h.7l.05-1.78.05-1.77.33.42c.35.45 1.03 1.38 1.85 2.52.41.58.52.67.75.64l.27-.03V6.27l-.25-.02c-.48-.04-.5.05-.5 1.98v1.8l-.92-1.28c-1.95-2.69-1.85-2.57-2.2-2.48M13 7.1c-.38.13-1.1.73-1.1.91 0 .1.91.3 1.02.23q.07-.04.08.05.01.1.13.11c.16 0 .57.42.57.57 0 .2-.54.51-1.06.63-.8.2-.77.16-.57.5.24.42.9.8 1.5.87.65.07 1.37-.28 1.79-.88.25-.37.29-.51.29-1.14s-.04-.77-.28-1.12A2 2 0 0 0 13 7.1m-1.27 1.35c-.02.08-.03.26-.01.42.03.25.07.28.33.25.17-.02.44-.07.62-.13.28-.09.3-.13.2-.29-.14-.23-1.06-.44-1.14-.25"/></svg>