<svg xmlns="http://www.w3.org/2000/svg" width="24" height="24"><path fill-rule="evenodd" d="m4.27 7.38-.91 2.05-.36.78.26-.03c.23-.03.3-.12.52-.75l.26-.73h1.52l.29.75c.28.73.3.75.63.75q.35 0 .3-.12l-.8-1.88c-.42-.96-.78-1.83-.81-1.92-.14-.4-.36-.14-.9 1.1M7.8 6.7c0 .06.35.1.85.1s.85-.04.85-.1-.35-.1-.85-.1-.85.04-.85.1M4.47 7.72c-.15.34-.25.63-.23.65s.29.03.59.01l.55-.03-.26-.62a2 2 0 0 0-.32-.63 2 2 0 0 0-.33.62m3.7-.32c-.66.2-1.04.88-.93 1.66q.17 1.24 1.41 1.24c.58 0 1.15-.25 1.15-.51 0-.18-.01-.18-.33.01-.35.22-.87.26-1.19.1a1 1 0 0 1-.34-.45c-.26-.64-.25-.65.91-.65H9.9v-.3c0-.39-.18-.76-.46-.95-.3-.19-.91-.27-1.28-.15m3.04-.03a.9.9 0 0 0-.6.83c0 .44.2.64.86.9.4.15.5.23.52.46.07.55-.6.73-1.05.28-.28-.28-.28-.28-.37.03-.06.19-.02.25.19.33.14.06.47.1.71.1.37 0 .51-.06.75-.3.57-.56.29-1.3-.56-1.46-.48-.09-.71-.37-.57-.69.15-.33.75-.36.94-.05q.24.4.3-.05c.04-.2 0-.26-.25-.35a1.3 1.3 0 0 0-.87-.03m2.7.15c-.52.26-.8.73-.8 1.3 0 .94.55 1.48 1.5 1.48.94 0 1.5-.53 1.53-1.44.03-.85-.45-1.4-1.34-1.52a1.3 1.3 0 0 0-.89.18m4.1-.1c-.13.05-.32.16-.42.24q-.2.23-.11-.05c.05-.18 0-.21-.26-.21h-.31v4.4h.61l-.03-.94-.03-.94.27.2c.16.11.43.18.72.18 1.43 0 1.83-2.3.5-2.86-.38-.16-.59-.17-.94-.03m-9.87.42a1 1 0 0 0-.25.47c-.03.24-.01.25.7.28l.72.03v-.3c0-.64-.75-.94-1.17-.49m6-.07c-.43.3-.55 1.5-.2 1.96a.82.82 0 0 0 1.38-.04c.35-.59.19-1.83-.26-2a1.1 1.1 0 0 0-.92.08m3.9-.05c-.37.15-.53.5-.53 1.18 0 .53.04.67.25.87a.8.8 0 0 0 .55.25q.31-.01.55-.25c.21-.2.25-.33.25-.89 0-.53-.04-.7-.23-.9q-.4-.44-.83-.26m2.26 1.95c-.26.32.13.8.48.59s.22-.74-.18-.74c-.1 0-.23.07-.3.15m.1.1c-.18.21-.05.47.22.43q.23-.02.26-.28.03-.29-.07-.1c-.1.13-.1.13-.1-.03-.01-.2-.14-.22-.3-.02"/></svg>