<svg xmlns="http://www.w3.org/2000/svg" width="24" height="24"><path fill="#4a557b" fill-rule="evenodd" d="M8.44 5.14c-.4.17-.8.7-1.05 1.37-.22.57-.2.72.05.35.53-.81 1.92-1.37 2.68-1.07q.47.2.12-.28c-.33-.46-1.18-.64-1.8-.37m2.14.86q.04.3-.14.51c-.4.45-1.48.83-2.66.94-.55.05-.68.1-.73.26l-.1.38q-.12.4 1.62.2c1.65-.16 2.63-.72 2.63-1.49 0-.22-.1-.5-.22-.7-.3-.45-.46-.48-.4-.1M3.83 7.01c-.4.12-.83.62-.83.98 0 .3.52 1.16.76 1.25.12.04.12.02.04-.14-.05-.1-.1-.33-.1-.5 0-.23.07-.35.33-.5.28-.19.43-.2 1.18-.16l.86.06.33-.35.33-.34-.24-.1a9 9 0 0 0-2-.3c-.2 0-.48.05-.66.1m2.62.73C5.7 8.53 4.91 9 4.32 9c-.4 0-.42.01-.32.2.15.27.98.8 1.25.8.62 0 1.35-1 1.68-2.3l.13-.6zm1.46 1.43q-.7.35-.71 1.31c0 .46.04.58.3.83.33.33.9.4 1.27.14.18-.13.22-.13.33 0 .13.15.56.2.84.09.21-.08.2-.36-.02-.55-.15-.13-.18-.29-.15-.98.02-.8.01-.82-.23-.91a3 3 0 0 0-1.63.07m2.99.02c-.54.28-.74.7-.71 1.5.02.49.48.91 1 .91.22 0 .43-.04.46-.1.1-.16.25-.11.25.09 0 .29-.39.71-.65.71a2 2 0 0 1-.51-.1q-.29-.12-.36.02c-.14.23-.08.36.26.52.68.32 1.49.1 1.86-.49.18-.28.2-.5.2-1.73 0-1.36 0-1.4-.22-1.46a2.7 2.7 0 0 0-1.58.13m2.81-.02q-.76.36-.68 1.31c.03.41.1.6.3.8.25.24.34.27 1.02.27.63 0 .78-.03.96-.22.28-.28.2-.59-.14-.48-.45.14-.85.17-1.06.06-.26-.14-.28-.3-.02-.24.31.08.99-.16 1.2-.44q.41-.53-.04-.98c-.3-.3-1.01-.34-1.54-.08m2.53-.02c-.03.08-.04.56-.02 1.06.03.85.05.92.31 1.15.38.32 1.22.34 1.56.03.33-.31.41-.61.41-1.55 0-.83 0-.85-.22-.82-.21.03-.23.1-.28.91-.04.79-.08.91-.3 1.09q-.23.2-.5.13c-.41-.1-.5-.31-.5-1.27 0-.82-.01-.88-.2-.88-.11 0-.23.07-.26.15m2.63-.08c-.04.03-.07.62-.07 1.3v1.23h.25c.23 0 .25-.03.25-.5 0-.27.04-.5.1-.5.05 0 .32.23.6.5q.49.5.75.5c.23 0 .25-.02.14-.22a4 4 0 0 0-.6-.69l-.5-.46.56-.48c.3-.26.54-.52.52-.59q-.13-.39-.95.33l-.57.5-.03-.5c-.02-.4-.07-.49-.2-.49-.1 0-.22.03-.25.07M8.45 9.6q-.5.17-.43.76.06.65.61.5c.25-.06.27-.1.27-.65 0-.62-.09-.74-.45-.6m2.94.03c-.34.17-.52.58-.4.9q.16.45.66.32c.23-.06.25-.1.25-.65 0-.65-.11-.77-.51-.57m2.73.01c-.12.09-.22.25-.22.36 0 .18.04.2.33.14.4-.09.5-.18.45-.41-.04-.25-.28-.28-.55-.09"/></svg>