<?xml version="1.0" encoding="UTF-8" standalone="no"?>
<svg
   viewBox="0 0 24 24"
   width="24pt"
   height="24pt"
   version="1.1"
   id="svg1"
   sodipodi:docname="al_baik.svg"
   xml:space="preserve"
   inkscape:version="1.4 (86a8ad7, 2024-10-11)"
   xmlns:inkscape="http://www.inkscape.org/namespaces/inkscape"
   xmlns:sodipodi="http://sodipodi.sourceforge.net/DTD/sodipodi-0.dtd"
   xmlns="http://www.w3.org/2000/svg"
   xmlns:svg="http://www.w3.org/2000/svg"><defs
     id="defs1" /><sodipodi:namedview
     id="namedview1"
     pagecolor="#505050"
     bordercolor="#eeeeee"
     borderopacity="1"
     inkscape:showpageshadow="0"
     inkscape:pageopacity="0"
     inkscape:pagecheckerboard="0"
     inkscape:deskcolor="#505050"
     inkscape:document-units="pt"
     inkscape:zoom="24.9375"
     inkscape:cx="18.065163"
     inkscape:cy="17.60401"
     inkscape:window-width="1920"
     inkscape:window-height="991"
     inkscape:window-x="-9"
     inkscape:window-y="-9"
     inkscape:window-maximized="1"
     inkscape:current-layer="svg1" /><g
     id="g1"
     transform="matrix(0.01168129,0,0,0.01168129,4.987646,1.4820271)"><path
       d="m 632.287,28.74 c 3.182,0.199 8.132,0.197 11,-0.004 2.867,-0.201 0.263,-0.364 -5.787,-0.362 -6.05,0.002 -8.396,0.167 -5.213,0.366 M 790.389,175.5 c 10e-4,7.15 0.161,9.944 0.353,6.208 0.193,-3.735 0.192,-9.585 -0.003,-13 -0.194,-3.414 -0.352,-0.358 -0.35,6.792 m 13.62,54.75 c 0.015,8.921 1.933,32.967 3.077,38.574 0.676,3.312 1.526,5.155 2.25,4.877 0.912,-0.35 35.205,-19.712 41.575,-23.474 1.013,-0.598 -1.39,-2.413 -8.5,-6.421 C 830.584,237.139 806.446,225 805.014,225 c -0.558,0 -1.01,2.362 -1.005,5.25 m -479.066,53.256 c -8.493,5.719 -20.323,14.205 -26.288,18.857 -11.493,8.965 -32.522,26.796 -32.595,27.637 -0.024,0.275 3.194,2.497 7.15,4.938 10.264,6.333 23.244,16.28 33.466,25.647 l 8.824,8.085 22,-16.347 c 12.1,-8.992 23.912,-17.58 26.248,-19.086 2.337,-1.505 4.249,-3.343 4.25,-4.085 0.002,-1.447 -22.355,-47.535 -25.637,-52.848 l -1.974,-3.197 -15.444,10.399 M 669,295.672 c -43.289,2.378 -79.366,6.99 -104.966,13.42 -21.663,5.441 -60.163,18.977 -86.67,30.471 -22.308,9.673 -43.568,21.343 -57.403,31.509 -10.674,7.843 -10.332,7.071 -7.85,17.716 2.074,8.893 2.19,9.103 4.758,8.645 46.467,-8.3 68.064,-12.781 101.131,-20.984 84.335,-20.919 156.858,-48.064 206.5,-77.292 l 7,-4.122 -28.5,0.168 c -15.675,0.092 -30.975,0.303 -34,0.469 m 276.462,64.405 c -12.545,12.837 -66.691,59.94 -68.861,59.905 -0.606,-0.009 -5.303,-1.343 -10.438,-2.964 -11.031,-3.481 -24.174,-6.417 -38.085,-8.506 -14.34,-2.154 -13.333,-2.494 -12.571,4.238 2.332,20.59 14.439,44.167 34.35,66.889 l 8.008,9.139 -10.421,-0.532 -10.421,-0.532 1.594,5.393 c 0.876,2.966 1.798,5.73 2.047,6.143 0.643,1.063 8.079,0.954 29.525,-0.431 53.143,-3.434 107.99,8.224 159.233,33.844 13.014,6.506 27.038,14.496 35.534,20.243 2.451,1.658 4.597,2.874 4.769,2.703 0.61,-0.611 -10.84,-32.73 -16.243,-45.563 -17.287,-41.061 -41.005,-81.673 -67.977,-116.401 C 972.775,377.256 953.277,355 951.647,355 c -0.672,0 -3.455,2.285 -6.185,5.077 M 365,503.91 c 0,0.501 -1.774,3.154 -3.941,5.897 -7.264,9.189 -21.377,18.43 -38.559,25.249 -4.4,1.746 -8.105,3.265 -8.233,3.375 -0.128,0.11 -0.915,5.407 -1.749,11.77 -3.091,23.582 -10.804,43.246 -22.525,57.431 l -3.961,4.792 2.382,2.538 c 11.643,12.405 10.148,18.618 -7.955,33.071 -9.342,7.458 -11.488,9.668 -11.927,12.281 -2.959,17.653 -3.064,19.827 -0.917,19.003 1.226,-0.47 1.487,-0.16 1.082,1.282 -0.293,1.045 -0.824,4.465 -1.18,7.598 l -0.648,5.698 21.316,-14.213 c 36.062,-24.046 65.105,-40.643 81.747,-46.716 4.437,-1.62 8.068,-2.718 8.068,-2.441 0,0.277 1.746,-0.652 3.88,-2.065 3.423,-2.265 4.019,-3.267 5.047,-8.493 1.433,-7.285 0.448,-9.618 -4.448,-10.537 -4.26,-0.799 -4.279,-0.865 -5.321,-18.43 l -0.801,-13.5 -4.677,-6.637 c -4.622,-6.559 -8.615,-14.211 -8.658,-16.588 -0.016,-0.903 0.653,-0.969 2.543,-0.25 1.411,0.536 3.661,0.975 5,0.975 2.344,0 2.435,-0.256 2.435,-6.891 0,-7.083 2.77,-19.385 7.409,-32.907 1.817,-5.295 2.173,-7.419 1.298,-7.739 C 369.994,503.181 365,502.119 365,503.91 m 43.776,4.823 c 2.352,0.212 5.952,0.209 8,-0.006 2.048,-0.215 0.124,-0.388 -4.276,-0.384 -4.4,0.003 -6.076,0.179 -3.724,0.39 M 1075.5,733.809 c -47.139,33.341 -86.507,65.598 -128.364,105.177 -36.806,34.803 -74.702,77.155 -87.256,97.514 -15.205,24.659 -53.587,93.18 -56.436,100.75 -0.592,1.575 0.136,1.75 7.293,1.75 4.374,0 12.634,0.275 18.357,0.611 l 10.406,0.612 3.5,-9.843 c 1.925,-5.414 6.252,-15.476 9.616,-22.361 18.043,-36.935 41.303,-59.625 74.884,-73.051 9.638,-3.853 17.177,-4.194 23.332,-1.053 8.625,4.399 10.627,10.503 7.225,22.02 -2.337,7.909 -3.828,18.065 -2.652,18.065 0.377,0 3.927,-2.182 7.89,-4.849 16.342,-10.997 30.506,-17.151 39.478,-17.151 4.864,0 11.85,3.372 15.043,7.262 1.116,1.358 3.098,11.128 3.164,15.595 0.013,0.9 0.609,1.113 1.77,0.631 0.962,-0.399 2.293,-0.748 2.956,-0.774 0.663,-0.026 1.022,-0.345 0.797,-0.709 -0.224,-0.363 4.664,-10.751 10.865,-23.083 13.461,-26.774 20.432,-43.454 29.642,-70.922 10.909,-32.539 18.466,-65.738 22.876,-100.5 2.164,-17.06 4.514,-49.884 3.952,-55.211 l -0.338,-3.211 -18,12.731 M 255,740.436 c 0,0.24 -2.018,12.277 -4.485,26.75 -16.921,99.269 -27.468,198.901 -27.504,259.814 l -0.011,18.5 53.424,-0.267 53.425,-0.267 0.592,-2.733 c 1.302,-6.003 1.643,-8.026 2.57,-15.233 0.531,-4.125 1.128,-14.7 1.328,-23.5 0.199,-8.8 0.621,-16.9 0.938,-18 3.474,-12.066 6.622,-22.319 11.149,-36.315 7.75,-23.959 7.746,-23.928 7.705,-58.185 -0.044,-36.352 1.035,-40.616 10.224,-40.405 10.066,0.232 19.455,9.186 26.638,25.405 7.922,17.888 21.939,31.048 45.782,42.984 16.254,8.137 25.713,9.346 53.738,6.868 15.514,-1.372 21.752,-0.677 25.238,2.808 l 2.5,2.5 3.85,-3.758 3.849,-3.759 -6.197,-3.435 c -6.011,-3.332 -14.6,-9.08 -19.792,-13.246 -2.258,-1.812 -4.751,-2.143 -22.5,-2.988 -10.979,-0.522 -23.561,-1.428 -27.961,-2.013 -8.84,-1.175 -19.282,-3.798 -20.047,-5.037 -0.271,-0.439 1.254,-2.514 3.39,-4.611 14.549,-14.289 30.044,-29.949 32.157,-32.501 1.375,-1.66 3.175,-3.773 4,-4.695 0.825,-0.923 2.134,-2.894 2.91,-4.381 0.775,-1.486 2.125,-3.497 3,-4.469 1.772,-1.969 5.268,-8.899 5.73,-11.359 0.263,-1.398 -2.273,-1.67 -20.92,-2.241 -45.452,-1.391 -83.398,-8.82 -109.826,-21.5 -13.798,-6.621 -13.498,-5.931 -5.916,-13.616 l 6.478,-6.565 -3.978,-3.947 c -5.532,-5.488 -56.8,-31.378 -72.276,-36.498 -8.784,-2.907 -12.032,-4.495 -14.601,-7.14 -3.005,-3.094 -4.601,-4.123 -4.601,-2.965 m -3.814,326.312 c 9.177,0.165 24.477,0.165 34,10e-4 9.523,-0.165 2.014,-0.3 -16.686,-0.3 -18.7,0 -26.491,0.134 -17.314,0.299 m 210.017,108.307 c -6.828,1.214 -11.002,3.41 -12.426,6.535 -0.965,2.117 -0.815,2.816 0.984,4.615 4.59,4.591 18.314,3.133 32.652,-3.469 l 6.913,-3.183 -5.084,-2.306 c -5.885,-2.671 -15.306,-3.567 -23.039,-2.192 M 614.452,1211 c 0,20.075 0.133,28.287 0.297,18.25 0.163,-10.037 0.163,-26.463 0,-36.5 -0.164,-10.037 -0.297,-1.825 -0.297,18.25 M 294.4,1259.5 c 0.001,8.25 0.156,11.492 0.344,7.204 0.188,-4.287 0.187,-11.037 -0.002,-15 -0.19,-3.962 -0.343,-0.454 -0.342,7.796"
       stroke="none"
       fill="#f8ea2d"
       fill-rule="evenodd"
       id="path1-0" /><path
       d="m 625,29.1 c -24.446,0.678 -35.919,1.641 -59.5,4.992 -92.64,13.167 -189.724,51.785 -270.511,107.601 -5.781,3.994 -12.071,8.564 -13.977,10.156 l -3.466,2.893 5.763,6.225 c 32.423,35.02 73.512,110.609 102.484,188.533 7.456,20.053 17.321,48.5 16.819,48.5 -0.164,0 -7.879,-15.29 -17.145,-33.978 l -16.847,-33.978 -3.06,1.938 c -4.865,3.08 -49.56,36.206 -49.56,36.731 0,0.261 2.419,3.787 5.375,7.836 6.71,9.188 13.703,22.626 17.176,33.006 3.555,10.624 4.515,28.735 2.039,38.445 -2.18,8.547 -6.323,17.212 -11.477,24 l -4.176,5.5 6.281,6.031 c 3.455,3.317 8.235,7.622 10.623,9.565 l 4.341,3.534 -2.54,3.019 c -3.455,4.106 -12.906,8.972 -21.245,10.937 -5.42,1.278 -9.788,1.497 -20.397,1.026 -7.425,-0.33 -15.01,-0.886 -16.855,-1.235 l -3.355,-0.635 0.686,10.379 c 1.274,19.28 -2.604,42.678 -9.489,57.25 -5.66,11.98 -14.655,22.138 -25.289,28.56 -4.462,2.695 -4.924,1.78 7.208,14.289 4.118,4.246 7.286,7.88 7.041,8.076 -3.034,2.419 -30.339,21.843 -31.82,22.636 -1.276,0.683 -2.831,0.74 -4.312,0.157 -1.97,-0.776 -13.564,-10.63 -19.223,-16.339 -0.954,-0.963 -2.516,-1.75 -3.471,-1.75 -0.954,0 -5.341,3.487 -9.748,7.75 -14.289,13.822 -25.069,23.25 -26.583,23.25 -0.814,0 -4.362,-1.87 -7.885,-4.156 -9.425,-6.115 -17.542,-9.651 -26.472,-11.532 -4.363,-0.919 -8.125,-1.82 -8.36,-2.002 -0.235,-0.182 0.76,-1.57 2.211,-3.085 7.068,-7.377 10.943,-35.121 7.295,-52.225 -0.763,-3.575 -4.805,-16.094 -8.983,-27.82 -7.105,-19.944 -8.987,-28.202 -6.741,-29.59 1.04,-0.643 3.756,2.293 8.142,8.804 12.339,18.314 29.999,23.289 49.659,13.989 6.687,-3.164 17.489,-13.042 21.101,-19.3 3.075,-5.325 3.916,-6.047 7.067,-6.068 4.072,-0.027 17.453,-4.998 24.176,-8.982 9.207,-5.456 18.081,-13.874 24.067,-22.83 l 5.149,-7.703 10.508,-1.254 c 25.582,-3.054 45.295,-14.025 57.209,-31.838 6.048,-9.043 7.054,-12.395 7.061,-23.53 0.011,-16.999 -7.047,-36.65 -18.694,-52.043 -19.359,-25.586 -40.24,-41.652 -58.396,-44.932 -13.051,-2.358 -31.358,2.76 -37.526,10.491 l -2.599,3.256 -5.139,-1.338 c -2.827,-0.736 -8.925,-1.77 -13.552,-2.299 -12.509,-1.428 -20.574,-0.012 -32.033,5.623 -7.783,3.827 -10.969,6.159 -18.112,13.254 -10.046,9.98 -15.783,19.131 -20.943,33.405 l -3.5,9.683 -4.282,0.011 c -9.094,0.023 -12.937,3.284 -23.95,20.323 -15.507,23.992 -17.8,31.077 -17.694,54.688 0.062,13.929 0.499,18.526 2.8,29.5 3.857,18.39 7.843,31.525 15.326,50.5 9.69,24.569 11.26,29.626 11.938,38.454 0.756,9.849 -1.014,24.036 -3.932,31.507 -3.158,8.085 -3.097,20.29 0.123,24.805 5.055,7.086 37.209,25.702 55.501,32.131 14.684,5.161 22.98,3.914 34.929,-5.248 2.617,-2.007 5.006,-3.649 5.308,-3.649 0.303,0 2.211,1.294 4.242,2.876 7.539,5.875 14.694,6.556 23.691,2.253 7.591,-3.631 28.165,-18.464 49.704,-35.835 17.155,-13.836 20.796,-18.12 20.796,-24.47 0,-2.627 -3.416,-8.419 -7.586,-12.862 l -2.382,-2.538 3.961,-4.792 c 11.721,-14.185 19.434,-33.849 22.525,-57.431 0.834,-6.363 1.621,-11.66 1.749,-11.77 0.128,-0.11 3.833,-1.629 8.233,-3.375 17.182,-6.819 31.295,-16.06 38.559,-25.249 2.167,-2.743 3.941,-5.396 3.941,-5.897 0,-1.791 4.994,-0.729 16.707,3.553 0.875,0.32 0.519,2.444 -1.298,7.739 -4.639,13.522 -7.409,25.824 -7.409,32.907 0,6.635 -0.091,6.891 -2.435,6.891 -1.339,0 -3.589,-0.439 -5,-0.975 -1.89,-0.719 -2.559,-0.653 -2.543,0.25 0.043,2.377 4.036,10.029 8.658,16.588 l 4.677,6.637 0.801,13.5 c 1.042,17.565 1.061,17.631 5.321,18.43 4.897,0.919 5.881,3.251 4.447,10.542 -1.496,7.602 -0.752,10.343 3.485,12.843 l 3.425,2.021 0.11,15.755 c 0.132,18.733 0.791,20.793 7.304,22.805 1.564,0.484 1.75,2.124 1.75,15.464 v 14.922 l 3.959,4.791 c 3.573,4.324 4.323,6.294 7.687,20.201 2.716,11.229 3.453,15.86 2.713,17.068 -0.557,0.912 -6.618,4.603 -13.467,8.203 -20.075,10.551 -37.399,23.184 -56.241,41.017 -11.363,10.754 -11.539,9.492 2.243,16.105 26.435,12.684 64.372,20.109 109.856,21.501 17.603,0.539 21.25,0.9 21.25,2.101 0,2.28 -5.538,12.062 -11.17,19.731 -2.827,3.85 -13.205,14.986 -23.06,24.746 -17.115,16.949 -17.81,17.788 -15.469,18.678 8.602,3.271 20.488,4.829 46.16,6.05 17.872,0.851 20.226,1.167 22.5,3.017 11.916,9.699 28.448,18.547 44.918,24.039 24.283,8.099 49.968,11.564 79.073,10.67 30.21,-0.928 54,-7.083 83.548,-21.613 38.699,-19.031 71.888,-46.39 108.426,-89.379 4.578,-5.385 8.785,-9.638 9.351,-9.449 0.565,0.188 1.926,3.357 3.024,7.042 1.098,3.684 2.36,6.699 2.803,6.699 1.06,0 12.062,-33.841 14.956,-46 1.244,-5.225 2.562,-9.85 2.929,-10.279 0.368,-0.428 1.894,0.186 3.392,1.364 1.499,1.179 2.875,1.979 3.058,1.779 0.64,-0.698 4.486,-24.44 5.566,-34.364 0.599,-5.5 1.095,-18.479 1.103,-28.843 l 0.014,-18.843 2.189,0.585 c 1.204,0.322 3.145,0.852 4.313,1.177 1.871,0.521 2.199,0.076 2.753,-3.742 1.91,-13.16 2.741,-26.242 3.303,-51.994 0.495,-22.706 0.891,-28.558 1.907,-28.168 2.491,0.956 8.422,10.934 11.489,19.328 3.003,8.222 7.9,29.12 7.916,33.785 0.007,1.95 -0.276,2.134 -1.926,1.25 -3.782,-2.024 -4.066,-1.348 -4.08,9.715 -0.017,12.952 -1.765,44.362 -2.51,45.107 -0.293,0.293 -3.004,-0.68 -6.026,-2.162 -3.022,-1.482 -5.776,-2.695 -6.12,-2.695 -0.345,0 -0.357,3.498 -0.027,7.774 0.902,11.693 -1.003,42.939 -3.306,54.242 -4.243,20.818 -15.481,41.231 -32.41,58.867 l -7.087,7.384 4,-0.71 c 10.834,-1.922 28.245,-9.334 43.398,-18.476 l 8.397,-5.067 -0.602,7.808 c -2.127,27.581 -11.134,68.963 -18.731,86.052 l -2.945,6.626 3.241,-3.985 c 72.745,-89.429 179.702,-178.616 291.492,-243.062 5.987,-3.451 10.242,-6.542 10.231,-7.431 -0.03,-2.354 -8.91,-18.54 -16.425,-29.937 -22.069,-33.47 -54.964,-66.433 -87.838,-88.02 -61.042,-40.084 -130.708,-59.693 -196.307,-55.256 -9.765,0.661 -17.993,1.44 -18.285,1.731 -0.662,0.663 4.344,10.886 16.461,33.62 5.177,9.712 9.413,17.908 9.413,18.212 0,0.304 -4.035,0.682 -8.967,0.84 l -8.968,0.288 7.1,12.5 c 8.484,14.936 18.3,35.02 19.697,40.304 l 1.007,3.805 -4.185,-0.305 -4.184,-0.304 -2.336,-7.5 c -4.809,-15.437 -9.752,-27.886 -16.141,-40.655 l -6.582,-13.155 3.53,-0.584 c 1.941,-0.321 5.197,-0.589 7.235,-0.595 l 3.707,-0.011 -5.434,-7.573 c -11.29,-15.737 -21.335,-34.468 -24.874,-46.386 l -1.582,-5.327 10.421,0.532 10.421,0.532 -8.008,-9.139 c -19.911,-22.722 -32.018,-46.299 -34.35,-66.889 -0.762,-6.732 -1.769,-6.392 12.571,-4.238 13.911,2.089 27.054,5.025 38.085,8.506 5.135,1.621 9.838,2.955 10.451,2.964 2.166,0.035 36.347,-29.554 66.287,-57.38 39.414,-36.631 51.052,-53.891 51.086,-75.763 0.037,-23.905 -13.785,-40.038 -38.812,-45.302 -22.84,-4.805 -54.558,0.745 -86.755,15.18 -30.514,13.68 -73.183,41.602 -206.655,135.231 -20.736,14.546 -37.577,26.573 -37.424,26.727 0.154,0.153 5.531,-0.834 11.95,-2.193 21.596,-4.575 44.202,-7.697 72.095,-9.96 22.052,-1.788 73.144,-2.955 80.015,-1.827 l 4.901,0.805 2.762,11.237 c 5.015,20.397 10.044,33.611 15.616,41.036 l 2.456,3.272 -4.318,-0.65 c -2.375,-0.357 -4.768,-0.705 -5.318,-0.772 -1.707,-0.21 -1.725,5.27 -0.041,12.835 2.892,13.001 10.744,26.944 22.444,39.854 3.384,3.734 5.915,7.173 5.625,7.643 -0.29,0.469 -3.003,1.88 -6.028,3.133 -3.025,1.254 -5.5,2.714 -5.5,3.245 0,1.326 19.017,33.223 26.034,43.667 3.141,4.675 6.668,9.357 7.838,10.405 3.264,2.922 2.612,3.595 -3.479,3.595 -4.932,0 -5.525,0.211 -4.927,1.75 1.223,3.151 5.37,21.556 6.927,30.75 1.617,9.544 3.126,24.019 4.092,39.25 0.69,10.873 0.433,11.066 -8.173,6.143 -2.987,-1.709 -5.656,-2.882 -5.932,-2.607 -0.275,0.276 0.436,8.653 1.582,18.616 2.148,18.691 4.079,50.225 3.266,53.335 -0.562,2.149 -1.29,2.182 -5.882,0.263 -1.975,-0.825 -3.932,-1.5 -4.35,-1.5 -0.417,0 -0.939,11.751 -1.159,26.114 -0.393,25.594 -0.445,26.15 -2.637,27.925 -2.192,1.775 -4.001,1.68 -9.305,-0.486 -1.212,-0.495 -2.613,1.04 -5.713,6.257 -15.847,26.675 -49.571,65.029 -75.182,85.503 -27.751,22.185 -60.168,38.2 -90.5,44.711 -14.505,3.113 -44.862,3.872 -60.01,1.5 -13.254,-2.075 -24.721,-5.543 -33.537,-10.142 -6.879,-3.59 -14.725,-10.114 -17.375,-14.45 l -1.569,-2.568 5.745,-2.329 c 9.397,-3.809 30.1,-14.542 39.746,-20.604 20.93,-13.156 46.542,-34.652 60.5,-50.776 4.125,-4.766 8.175,-8.852 9,-9.08 0.825,-0.229 10.769,-0.717 22.098,-1.086 l 20.598,-0.671 1.232,7.841 c 1.479,9.415 5.053,17.883 7.933,18.797 3.12,0.99 5.924,-1.052 7.166,-5.218 1.6,-5.369 2.446,-35.059 1.097,-38.5 -1.975,-5.034 -4.96,-5.453 -15.909,-2.235 -8.429,2.478 -11.833,2.913 -25.715,3.286 -24.393,0.655 -38.879,-2.71 -53.722,-12.48 -8.62,-5.674 -13.885,-11.795 -18.825,-21.882 -5.078,-10.371 -5.266,-15.48 -0.891,-24.236 5.935,-11.876 20.777,-22.482 37.938,-27.109 18.857,-5.084 37.361,-5.073 67,0.04 9.625,1.661 18.904,3.262 20.621,3.559 l 3.12,0.539 -1.792,-9.36 c -8.493,-44.356 -22.97,-89.874 -41.848,-131.575 -8.175,-18.06 -14.919,-28.05 -26.263,-38.906 -11.048,-10.573 -22.995,-17.05 -35.695,-19.353 -7.816,-1.417 -11.301,-0.704 -15.782,3.23 -7.337,6.442 -13.985,25.941 -19.517,57.244 -2.014,11.392 -2.301,16.34 -2.321,40 -0.018,21.634 0.342,29.186 1.815,38 2.396,14.337 7.7,34.939 11.579,44.977 1.696,4.388 3.083,8.034 3.083,8.103 0,0.069 -2.759,2.293 -6.131,4.942 -6.981,5.485 -13.111,14.243 -14.927,21.327 l -1.232,4.808 -17.605,-6.889 -17.605,-6.89 -2.331,-10.689 c -5.299,-24.308 -15.357,-48.78 -27.585,-67.123 -3.507,-5.261 -11.261,-14.859 -17.231,-21.329 -16.814,-18.223 -25.112,-23.587 -37.853,-24.465 -6.654,-0.459 -7.247,-0.317 -12,2.872 -8.678,5.824 -15.453,18.847 -18.654,35.856 -1.715,9.115 -1.398,35.318 0.581,48 2.304,14.764 6.11,31.256 9.587,41.543 2.086,6.169 2.663,9.142 1.943,10.009 -1.478,1.78 -6.689,3.765 -8.281,3.154 -1.668,-0.64 -4.084,-9.072 -6.22,-21.706 -1.523,-9.01 -1.834,-9.734 -6.031,-14.034 L 417,699.431 v -15.765 c 0,-17.43 -0.774,-20.464 -5.898,-23.113 -3.584,-1.853 -4.041,-4.465 -3.348,-19.109 0.577,-12.167 -0.183,-15.012 -4.283,-16.041 -1.359,-0.341 -2.471,-0.701 -2.471,-0.799 0,-0.099 0.671,-5.563 1.492,-12.142 0.821,-6.579 1.496,-12.663 1.5,-13.521 0.016,-3.039 -2.68,-5.265 -7.098,-5.863 -5.162,-0.699 -4.942,0.841 -2.981,-20.843 0.709,-7.845 1.033,-14.933 0.72,-15.75 -0.331,-0.861 -1.843,-1.485 -3.602,-1.485 -2.477,0 -3.031,-0.411 -3.028,-2.25 0.004,-4.281 5.025,-20.973 9.801,-32.588 l 4.796,-11.662 16.95,-0.641 c 23.083,-0.873 32.208,-2.97 56.95,-13.087 20.386,-8.336 44.584,-21.917 81.949,-45.994 51.894,-33.437 243.49,-169.385 242.072,-171.762 -0.169,-0.284 -1.464,-7.266 -2.877,-15.516 -11.392,-66.525 -9.283,-136.082 5.971,-196.9 1.917,-7.644 3.121,-14.264 2.676,-14.709 C 805.149,48.749 788.779,44.528 774,41.565 743.313,35.411 700.171,30.304 671.547,29.437 662.171,29.153 653.15,28.814 651.5,28.684 649.85,28.554 637.925,28.741 625,29.1 m 179.652,152.556 c -0.359,5.86 -0.628,17.898 -0.598,26.75 l 0.054,16.094 12.619,6 c 6.941,3.3 17.855,8.95 24.255,12.555 l 11.636,6.554 6.941,-2.861 c 17.679,-7.288 34.762,-12.403 49.338,-14.775 l 7.397,-1.203 -14.897,-9.763 C 882.961,208.926 864.235,198.132 845.13,188.573 830.777,181.391 807.704,171 806.111,171 c -0.444,0 -1.1,4.795 -1.459,10.656 M 286.776,224.88 c -18.102,12.265 -38.535,27.791 -54.276,41.241 -14.532,12.417 -47.829,45.625 -59.539,59.379 -12.513,14.697 -11.977,13.486 -5.228,11.832 7.112,-1.743 28.066,-2.015 34.59,-0.449 l 4.823,1.158 4.573,-4.025 c 5.096,-4.485 10.673,-6.507 22.744,-8.243 l 7.964,-1.145 9.036,-8.455 c 18.225,-17.052 43.154,-36.671 65.037,-51.183 6.05,-4.012 11.381,-7.63 11.847,-8.04 1.207,-1.06 -19.718,-33.866 -26.285,-41.208 -0.374,-0.417 -7.252,3.695 -15.286,9.138 M 669,295.672 c -43.289,2.378 -79.366,6.99 -104.966,13.42 -21.663,5.441 -60.163,18.977 -86.67,30.471 -22.308,9.673 -43.568,21.343 -57.403,31.509 -10.674,7.843 -10.332,7.071 -7.85,17.716 2.074,8.893 2.19,9.103 4.758,8.645 46.467,-8.3 68.064,-12.781 101.131,-20.984 84.335,-20.919 156.858,-48.064 206.5,-77.292 l 7,-4.122 -28.5,0.168 c -15.675,0.092 -30.975,0.303 -34,0.469 m 336.504,28.078 c -3.264,4.262 -10.562,12.514 -16.219,18.338 -5.657,5.823 -10.285,10.873 -10.285,11.221 0,0.349 4.616,6.16 10.258,12.913 41.128,49.225 74.842,109.195 95.378,169.653 3.783,11.137 3.979,11.461 9.364,15.47 21.145,15.745 35.958,29.96 53.278,51.126 7.042,8.606 8.844,10.331 8.357,8 -0.341,-1.634 -1.561,-7.921 -2.71,-13.971 -16.285,-85.74 -55.724,-173.2 -109.779,-243.45 -10.513,-13.662 -30.193,-37.049 -31.177,-37.05 -0.293,0 -3.202,3.488 -6.465,7.75 m -761.41,44.58 c -6.879,1.826 -8.644,4.994 -8.371,15.02 0.276,10.174 4.116,25.691 8.297,33.536 3.214,6.031 23.258,33.652 29.29,40.364 2.752,3.062 4.056,3.75 7.105,3.75 3.174,0 4.643,-0.861 9.809,-5.75 3.341,-3.163 7.357,-7.751 8.925,-10.196 2.536,-3.954 2.851,-5.344 2.851,-12.568 0,-12.114 -3.308,-21.412 -13.333,-37.472 -5.001,-8.011 -14.555,-20.703 -17.954,-23.849 -3.927,-3.635 -17.971,-5.13 -26.619,-2.835 m -62.023,28.261 c -13.373,3.595 -18.341,9.651 -18.918,23.064 -0.465,10.809 1.258,16.491 10.269,33.867 4,7.711 7.845,15.811 8.546,18 3.75,11.718 11.512,21.343 19.026,23.594 8.837,2.648 19.283,-5 26.238,-19.209 5.588,-11.417 7.055,-16.911 6.58,-24.651 -0.375,-6.134 -1.417,-8.862 -11.32,-29.647 -12.944,-27.168 -12.421,-26.633 -25.992,-26.539 -4.95,0.034 -11.443,0.718 -14.429,1.521 m -62.482,43.915 c -10.378,9.617 -16.942,52.343 -8.455,55.036 2.932,0.931 4.292,-0.893 6.873,-9.218 3.084,-9.947 5.137,-12.994 9.584,-14.221 7.897,-2.181 10.384,3.087 10.938,23.164 0.333,12.084 0.695,14.543 2.825,19.194 4.264,9.314 13.128,16.214 18.936,14.739 0.985,-0.25 2.56,-1.86 3.5,-3.577 1.438,-2.626 1.706,-5.989 1.682,-21.123 -0.024,-15.683 -0.31,-18.901 -2.221,-25 -2.753,-8.787 -8.254,-17.207 -18.08,-27.671 -12.655,-13.478 -19.831,-16.654 -25.582,-11.323 m 514.911,0.822 c -13.166,3.382 -25.225,11.146 -39.162,25.216 -13.337,13.464 -13.858,14.276 -11.997,18.731 1.711,4.094 5.103,6.725 8.67,6.725 2.538,0 4.103,-0.712 15.162,-6.895 16.998,-9.504 43.96,-13.465 64.967,-9.545 4.598,0.858 15.335,3.671 23.86,6.25 13.851,4.191 16.526,4.69 25.145,4.69 8.081,0 9.986,-0.309 11.75,-1.905 4.88,-4.417 1.293,-9.931 -11.48,-17.646 C 690.018,447.984 652.101,436.807 634.5,441.328 M 58.164,528.75 C 44.697,570.192 36.236,610.913 31.31,658 c -1.33,12.716 -1.723,25.558 -1.714,56 0.013,41.167 0.861,54.6 5.458,86.5 19.932,138.304 87.61,264.127 191.595,356.203 20.59,18.232 54.781,44.045 71.101,53.677 0.989,0.584 1.247,-5.594 1.235,-29.571 l -0.016,-30.309 -11.705,-9 c -35.4,-27.218 -70.082,-62.1 -97.938,-98.5 C 98.638,924.495 61.458,770.533 87.177,620 c 1.739,-10.175 3.082,-20.007 2.985,-21.849 -0.097,-1.841 -1.481,-6.341 -3.076,-10 -4.805,-11.024 -12.562,-35.492 -17.72,-55.898 -2.676,-10.585 -5.14,-19.248 -5.475,-19.25 -0.335,-0.001 -2.912,7.084 -5.727,15.747 M 450.5,517.064 c -8.191,2.88 -20.726,11.407 -30.432,20.702 -7.632,7.308 -8.076,7.969 -8.072,11.995 0.005,4.914 3.766,13.18 6.004,13.193 0.825,0.005 5.55,-2.264 10.5,-5.044 9.359,-5.255 19.181,-9.773 25.939,-11.932 8.288,-2.647 39.729,1.78 49.756,7.007 2.127,1.108 5.221,2.015 6.876,2.015 6.416,0 14.929,-6.762 14.929,-11.859 0,-3.128 -7.812,-8.514 -23.5,-16.201 -18.986,-9.302 -24.903,-11.187 -36.5,-11.626 -7.744,-0.292 -10.609,0.031 -15.5,1.75 m 171.887,8.988 c -2.69,0.996 -4.49,5.58 -8.25,21.007 -8.202,33.654 -9.29,69.627 -3.038,100.399 3.485,17.148 11.717,40.485 15.344,43.494 1.409,1.17 2.156,1.133 5.056,-0.25 1.872,-0.893 4.101,-2.688 4.954,-3.99 1.438,-2.195 1.33,-3.051 -1.486,-11.789 -8.614,-26.73 -10.409,-38.34 -10.422,-67.423 -0.011,-23.709 0.919,-33.17 4.503,-45.814 1.349,-4.757 7.573,-10.921 13.481,-13.35 2.455,-1.01 4.465,-2.349 4.467,-2.975 0.007,-1.939 -16.459,-17.978 -19.568,-19.062 -1.616,-0.563 -3.884,-0.674 -5.041,-0.247 m -164.073,82.589 c -1.492,0.608 -5.629,11.382 -8.393,21.859 -2.993,11.344 -3.747,33.802 -1.565,46.605 1.923,11.28 10.102,40.886 12.714,46.022 1.998,3.927 3.54,4.873 7.947,4.873 4.578,0 7.983,-1.71 7.983,-4.008 0,-1.132 -1.182,-4.39 -2.626,-7.24 C 467.246,702.686 463,683.938 463,666.535 c 0,-15.212 3.267,-25.813 10.59,-34.369 l 3.58,-4.183 -2.114,-4.367 c -2.003,-4.138 -12.971,-15.706 -14.732,-15.537 -0.453,0.043 -1.358,0.296 -2.01,0.562 M 369,633.309 c -17.214,6.568 -45.214,22.635 -80.815,46.373 l -21.316,14.213 0.648,-5.698 c 0.356,-3.133 0.865,-6.485 1.132,-7.447 0.267,-0.962 0.212,-1.75 -0.123,-1.75 -0.335,0 -11.053,5.349 -23.817,11.887 -12.765,6.537 -24.422,12.165 -25.904,12.505 -1.668,0.383 -5.67,-0.331 -10.5,-1.874 -11.131,-3.555 -14.322,-3.33 -22.607,1.592 -9.076,5.392 -12.296,5.743 -22.22,2.424 -19.311,-6.458 -37.335,-15.324 -54.369,-26.742 -5.273,-3.536 -7.607,-4.605 -8.146,-3.733 -1.562,2.528 -2.237,40.649 -1.113,62.941 3.778,74.984 20.758,142.197 52.167,206.5 17.738,36.316 41.854,73.868 64.654,100.678 2.656,3.123 7.744,9.085 11.307,13.25 l 6.477,7.572 H 268.228 302 v -10 -10 H 262.5 223 l 0.011,-18.75 c 0.029,-50.706 8.095,-136.072 20.574,-217.75 3.592,-23.512 11.383,-68.801 11.93,-69.348 0.259,-0.26 2.028,1.13 3.931,3.089 2.728,2.809 5.795,4.341 14.513,7.245 9.913,3.304 35.413,15.407 62.225,29.535 l 9.685,5.103 7.046,-5.916 c 7.554,-6.343 22.962,-16.857 40.636,-27.731 6.022,-3.705 11.116,-6.882 11.321,-7.061 0.204,-0.18 0.048,-3.781 -0.348,-8.003 -0.693,-7.391 -0.884,-7.837 -5.122,-11.956 L 395,720.178 v -10.68 -10.68 l -3.377,-3.945 c -3.743,-4.373 -4.874,-8.68 -6.664,-25.373 -1.055,-9.846 -1.343,-10.517 -5.622,-13.115 -1.644,-0.998 -1.817,-2.44 -1.646,-13.75 0.106,-6.949 0.106,-12.62 0,-12.602 -0.105,0.018 -4.016,1.493 -8.691,3.276 m 293.065,-0.43 c -0.554,1.034 -1.537,5.095 -2.186,9.026 -2.303,13.943 1.291,18.196 13.938,16.494 6.067,-0.816 6.662,-1.103 6.452,-3.109 -0.39,-3.724 -14.206,-24.29 -16.318,-24.29 -0.484,0 -1.333,0.846 -1.886,1.879 M 492.319,676.25 c -0.439,0.688 -0.961,6.491 -1.161,12.898 -0.335,10.766 -0.204,11.806 1.74,13.75 2.566,2.566 9.571,2.863 12.879,0.545 3.216,-2.252 2.793,-5.487 -1.973,-15.106 -5.676,-11.455 -9.391,-15.365 -11.485,-12.087 m 646.018,35.1 -24.164,15.15 -0.644,12.5 c -3.876,75.183 -22.014,147.143 -53.059,210.5 -11.108,22.668 -11.79,23.709 -14.799,22.565 -1.653,-0.629 -5.698,-0.201 -13.274,1.404 -5.994,1.27 -10.971,2.246 -11.061,2.17 -0.091,-0.077 -0.62,-3.428 -1.177,-7.448 -1.138,-8.223 -1.835,-9.372 -8.105,-13.362 -9.661,-6.148 -25.064,-1.624 -48.759,14.322 -3.963,2.667 -7.513,4.849 -7.89,4.849 -1.176,0 0.315,-10.156 2.652,-18.065 3.402,-11.517 1.4,-17.621 -7.225,-22.02 -6.155,-3.141 -13.694,-2.8 -23.332,1.053 -39.577,15.823 -66.533,46.411 -84.999,96.452 -8.29,22.465 -6.102,32.024 8.287,36.207 10.875,3.161 22.876,0.342 36.557,-8.59 l 7.431,-4.851 1.132,5.75 c 1.547,7.866 5.587,15.578 9.871,18.842 3.11,2.37 4.488,2.722 10.647,2.722 6.262,0 8.049,-0.476 15.574,-4.148 4.675,-2.281 10.975,-5.745 14,-7.697 l 5.5,-3.548 0.5,5.242 c 0.275,2.883 1.278,6.429 2.229,7.88 3.673,5.603 11.673,9.784 18.67,9.758 4.931,-0.019 18.828,-4.995 26.18,-9.375 3.336,-1.986 6.257,-3.612 6.492,-3.612 0.234,0 2.22,1.741 4.412,3.868 5.385,5.226 15.77,10.52 26.036,13.273 6.781,1.818 11.188,2.283 21.981,2.317 12.715,0.04 13.845,-0.12 19.43,-2.735 3.262,-1.528 7.822,-4.328 10.134,-6.222 7.758,-6.357 14.495,-18.929 16.364,-30.535 1.309,-8.128 0.129,-12.79 -4.545,-17.964 -7.004,-7.753 -17.213,-10.929 -37.633,-11.71 -8.112,-0.31 -14.75,-0.84 -14.749,-1.178 0,-0.338 0.922,-3.04 2.049,-6.005 3.07,-8.078 6.947,-24.98 6.949,-30.294 10e-4,-5.536 -1.329,-9.458 -4.275,-12.602 -2.032,-2.169 -2.058,-2.427 -0.51,-5 0.898,-1.492 2.751,-3.558 4.119,-4.591 4.84,-3.655 13.046,0.409 17.254,8.547 2.307,4.46 5.267,19.262 6.373,31.871 0.542,6.182 1.171,11.424 1.397,11.65 1.201,1.201 22.458,-39.248 32.632,-62.096 25.825,-57.993 41.51,-117.482 48.537,-184.094 1.793,-16.993 3.247,-76.555 1.865,-76.4 -0.49,0.055 -11.765,6.917 -25.054,15.25 M 520.5,742.678 c -43.508,3.186 -89.976,15.644 -121.301,32.522 -8.104,4.366 -24.668,15.131 -25.598,16.637 -0.605,0.979 21.317,6.956 36.899,10.06 43.413,8.649 83.868,8.883 119.5,0.691 14.4,-3.31 45.465,-13.212 51.233,-16.329 6.94,-3.751 8.107,-6.061 7.539,-14.914 C 588.21,762.593 583.346,751.646 577.51,746 l -3.617,-3.5 -24.197,-0.094 c -13.308,-0.051 -26.446,0.071 -29.196,0.272 m 104.837,65.539 c -1.74,1.256 -8.49,6.633 -15,11.95 -27.726,22.644 -57.199,38.645 -83.303,45.228 -9.459,2.385 -30.736,5.236 -31.722,4.251 -0.246,-0.246 3.971,-3.71 9.371,-7.697 5.399,-3.988 14.095,-10.959 19.323,-15.492 8.117,-7.037 12.227,-11.312 21.835,-22.713 0.814,-0.966 1.227,-2.009 0.917,-2.319 -0.309,-0.31 -9.494,0.875 -20.41,2.633 l -19.848,3.196 -8.229,12.694 c -11.965,18.456 -19.575,28.417 -29.303,38.352 -4.739,4.839 -8.29,9.001 -7.891,9.248 0.399,0.246 4.932,0.889 10.074,1.428 13.342,1.399 28.711,-0.242 47.447,-5.064 32.433,-8.348 50.658,-16.767 74.021,-34.194 18.58,-13.858 41.771,-36.964 41.191,-41.038 -0.437,-3.072 -4.547,-3.297 -8.473,-0.463 M 360,851.259 c -5.208,2.707 -5.479,4.613 -5.505,38.741 -0.027,35.68 0.258,33.72 -9.113,62.5 -10.216,31.375 -10.463,32.589 -11.386,56 -1.253,31.751 -2.392,35.951 -13.95,51.439 -13.789,18.476 -16.822,27.232 -15.723,45.392 0.702,11.603 1.752,16.001 4.956,20.754 3.13,4.645 7.341,5.714 13.399,3.4 5.894,-2.251 11.267,-7.18 21.849,-20.047 10.024,-12.187 15.989,-17.674 27.365,-25.173 26.413,-17.41 49.993,-24.299 84.108,-24.573 14.021,-0.112 17.826,0.201 25.327,2.087 15.787,3.97 20.716,0.015 15.734,-12.625 -5.203,-13.201 -7.337,-39.759 -4.653,-57.916 2.95,-19.958 6.514,-28.844 17.637,-43.98 7.583,-10.318 8.965,-14.067 6.546,-17.759 -2.29,-3.496 -8.443,-4.853 -18.591,-4.101 -37.086,2.748 -44.468,1.975 -61.214,-6.408 -23.855,-11.942 -37.87,-25.099 -45.793,-42.99 -3.437,-7.761 -6.656,-12.898 -10.859,-17.335 -6.312,-6.661 -15.246,-9.947 -20.134,-7.406 m 492.994,5.675 c -4.287,1.304 -8.892,3.945 -27.994,16.057 -42.79,27.129 -61.302,36.117 -83.176,40.383 -10.275,2.004 -15.998,4.898 -30.824,15.588 -14.828,10.692 -27.556,17.338 -38.41,20.057 -6.672,1.671 -11.306,1.981 -29.615,1.981 -20.056,0 -21.895,0.149 -24.201,1.963 -3.618,2.846 -6.316,9.96 -8.74,23.037 -1.469,7.925 -3.233,13.759 -5.677,18.767 -7.501,15.369 -8.069,24.363 -2.918,46.233 8.093,34.365 9.829,35.308 64.061,34.794 l 31,-0.294 28.516,9.75 c 24.691,8.442 29.395,9.75 35.072,9.75 8.81,0 15.349,-2.384 20.404,-7.439 5.359,-5.359 6.294,-9.245 6.872,-28.561 0.504,-16.808 1.192,-19.793 6.37,-27.63 4.233,-6.406 6.266,-13.023 6.266,-20.395 0,-7.408 4.145,-15.846 15.039,-30.615 8.613,-11.679 14.235,-22.107 15.872,-29.444 0.563,-2.521 1.734,-11.746 2.602,-20.5 0.869,-8.754 2.087,-17.626 2.707,-19.717 0.743,-2.505 4.299,-7.23 10.431,-13.862 C 859.973,882.429 865,874.201 865,866.801 c 0,-4.08 -2.643,-8.715 -5.613,-9.844 -2.831,-1.076 -2.928,-1.077 -6.393,-0.023 M 528.261,937.25 c -5.288,5.699 -18.645,29.906 -22.486,40.75 -2.839,8.017 -3.659,21.84 -2.64,44.5 1.142,25.384 2.126,29.14 9.519,36.336 10.439,10.162 20.171,12.456 29.055,6.848 6.403,-4.042 15.408,-6.684 22.784,-6.684 5.503,0 7.674,0.563 13.507,3.5 8.307,4.183 14.603,4.701 17.552,1.443 1.807,-1.997 1.809,-2.262 0.053,-9.079 -0.995,-3.862 -2.872,-9.636 -4.17,-12.832 -7.043,-17.333 -5.231,-30.644 9.124,-67.032 4.674,-11.849 5.471,-18.506 2.634,-22.011 -1.975,-2.44 -2.377,-2.502 -20.354,-3.133 -22.621,-0.795 -32.617,-3.179 -40.839,-9.739 -7.214,-5.756 -10.435,-6.428 -13.739,-2.867 m 394.243,21.29 c -12.542,7.552 -32.817,26.371 -42.875,39.797 -7.428,9.914 -15.096,24.42 -17.153,32.45 -1.339,5.225 -1.382,6.639 -0.275,8.959 1.878,3.934 8.731,4.336 15.494,0.908 17.881,-9.06 44.57,-39.158 55.923,-63.065 4.358,-9.177 5.538,-17.654 2.868,-20.604 -2.705,-2.99 -7.28,-2.481 -13.982,1.555 m 60.604,25.542 c -9.791,1.923 -24.18,10.515 -34.873,20.825 -13.267,12.792 -26.909,41.961 -22.25,47.575 4.775,5.754 22.809,-5.179 50.95,-30.887 15.355,-14.028 23.065,-24.096 23.065,-30.121 0,-4.091 -1.715,-6.301 -5.762,-7.425 -4.224,-1.173 -5.004,-1.17 -11.13,0.033 m 36.26,25.244 c -11.67,6.338 -19.812,13.485 -30.972,27.184 -13.454,16.517 -15.874,25.49 -6.874,25.49 11.656,0 51.826,-42.457 50.308,-53.173 -0.517,-3.645 -5.175,-3.459 -12.462,0.499 m -218.311,31.105 c -1.546,1.864 -2.507,8.642 -1.687,11.909 1.104,4.397 8.839,5.756 20.007,3.513 6.848,-1.375 7.832,-2.784 7.422,-10.629 l -0.299,-5.724 -12.103,-0.28 c -9.751,-0.225 -12.343,0.01 -13.34,1.211 m 257.443,2.53 c -8.302,1.781 -22.832,8.067 -31.948,13.822 l -3.976,2.51 4.962,4.517 c 7.644,6.959 18.138,11.432 28.11,11.981 7.135,0.393 8.813,0.141 13.5,-2.034 6.657,-3.088 12.276,-8.682 14.457,-14.393 2.314,-6.058 0.496,-10.936 -5.262,-14.115 -4.623,-2.554 -13.717,-3.602 -19.843,-2.288 m -211.709,28.972 c -10.305,3.318 -15.753,15.835 -10.972,25.212 2.935,5.757 57.146,75.694 60.563,78.131 2.517,1.796 4.481,2.224 10.196,2.224 6.26,0 7.514,-0.333 10.859,-2.884 6.312,-4.815 9.204,-14.169 6.544,-21.166 -1.695,-4.459 -58.665,-77.832 -61.929,-79.76 -3.539,-2.091 -11.41,-2.997 -15.261,-1.757 m -43.568,28.728 c -6.842,3.372 -11.014,11.7 -9.714,19.39 0.413,2.449 7.25,14.632 18.982,33.826 10.084,16.499 18.609,30.864 18.945,31.92 0.335,1.057 0.317,2.682 -0.039,3.612 -1.287,3.354 -20.015,13.929 -23.73,13.4 -1.665,-0.237 -3.558,-3.09 -8.167,-12.309 -6.379,-12.759 -9.246,-15.799 -16.112,-17.087 -13.3,-2.495 -25.501,11.032 -21.019,23.304 0.76,2.081 3.106,7.534 5.214,12.118 5.409,11.762 5.187,12.061 -13.583,18.376 -27.146,9.132 -62.629,17.593 -66.066,15.754 -2.015,-1.079 -2.082,-1.272 -4.431,-12.754 -1.782,-8.708 -3.421,-12.123 -7.442,-15.506 -9.205,-7.745 -22.814,-5.045 -27.94,5.545 -2.466,5.093 -2.595,8.778 -0.621,17.75 2.721,12.372 2.768,12.329 -15.492,13.999 -12.967,1.186 -14.284,1.154 -15.826,-0.387 -1.502,-1.501 -1.736,-5.933 -2.182,-41.396 -0.498,-39.539 -0.51,-39.733 -2.851,-43.497 -6.905,-11.107 -24.605,-10.372 -31.136,1.294 l -2.513,4.487 -0.303,39.143 c -0.358,46.264 0.56,43.018 -12.044,42.572 -29.382,-1.038 -72.6,-8.654 -109.331,-19.267 -37.511,-10.837 -83.195,-30.661 -90.403,-39.227 -4.338,-5.155 -3.229,-8.96 5.211,-17.891 8.415,-8.903 9.47,-13.93 4.06,-19.34 -6.2,-6.2 -17.316,-7.1 -24.676,-2 -4.931,3.418 -10.767,11.08 -15.293,20.081 -10.724,21.327 -5.409,36.226 18.11,50.768 51.082,31.586 117.281,51.279 193.669,57.614 34.178,2.835 80.803,2.191 112,-1.546 33.241,-3.982 83.633,-17.476 123.5,-33.072 32.699,-12.792 78.206,-37.289 87.197,-46.94 5.387,-5.783 7.105,-13.423 4.424,-19.677 -1.968,-4.59 -46.334,-76.738 -48.947,-79.597 -4.626,-5.061 -14.856,-6.711 -21.451,-3.46 M 455,1148.691 c -3.327,0.557 -12,3.362 -12,3.881 0,0.226 1.557,2.45 3.459,4.942 3.831,5.019 5.299,10.427 3.907,14.386 -0.795,2.261 -1.673,2.692 -6.768,3.329 -14.521,1.814 -22.656,12.726 -15.333,20.568 5.73,6.136 13.747,6.983 25.763,2.721 10.435,-3.702 25.582,-6.518 35.053,-6.518 7.217,0 8.258,0.248 10.517,2.507 3.05,3.05 3.964,2.661 11.007,-4.683 6.619,-6.904 8.395,-9.656 8.395,-13.011 0,-5.609 -7.437,-6.139 -19.239,-1.373 -7.173,2.898 -9.348,2.276 -10.329,-2.952 -0.974,-5.192 0.237,-9.783 4.04,-15.311 l 3.406,-4.951 -4.189,-1.112 c -9.646,-2.559 -13.744,-3.059 -24.189,-2.953 -6.05,0.061 -12.125,0.3 -13.5,0.53 m 6.203,26.364 c -6.828,1.214 -11.002,3.41 -12.426,6.535 -0.965,2.117 -0.815,2.816 0.984,4.615 4.59,4.591 18.314,3.133 32.652,-3.469 l 6.913,-3.183 -5.084,-2.306 c -5.885,-2.671 -15.306,-3.567 -23.039,-2.192 m -159.859,55.014 c -13.863,2.65 -23.235,13.289 -24.105,27.364 -0.552,8.94 2.036,16.369 7.79,22.357 5.897,6.137 11.078,8.458 20.078,8.996 6.72,0.401 8.325,0.132 13.762,-2.308 11.234,-5.041 17.435,-14.614 17.476,-26.978 0.062,-18.876 -16.659,-32.937 -35.001,-29.431 m 1.156,3.957 c -14.648,2.138 -24.165,17.22 -19.996,31.687 2.048,7.105 9.617,15.119 16.112,17.058 17.853,5.331 34.956,-8.25 33.095,-26.28 -1.527,-14.802 -14.319,-24.64 -29.211,-22.465 m -7.5,24.875 c 0,14.432 0.088,15.099 2,15.099 1.795,0 2,-0.667 2,-6.5 v -6.5 h 5.429 c 6.683,0 8.291,1.411 9.171,8.043 0.582,4.387 0.934,4.957 3.064,4.957 2.069,0 2.261,-0.271 1.371,-1.934 -0.569,-1.064 -1.035,-3.539 -1.035,-5.5 0,-2.072 -0.733,-4.29 -1.75,-5.293 -1.666,-1.644 -1.642,-1.835 0.5,-3.955 2.915,-2.885 2.856,-6.501 -0.163,-10.012 -2.261,-2.629 -2.985,-2.828 -11.5,-3.155 l -9.087,-0.35 v 15.1 m 528.45,-13.494 c -4.111,1.79 -8.225,6.878 -9.03,11.166 -0.9,4.798 1.89,11.799 5.816,14.595 4.688,3.338 12.337,3.635 16.764,0.651 9.698,-6.536 9.138,-20.352 -1.036,-25.569 -4.972,-2.549 -8.111,-2.761 -12.514,-0.843 M 298,1252.956 V 1258 h 6.345 c 5.107,0 6.704,-0.396 8.182,-2.03 1.455,-1.607 1.639,-2.598 0.885,-4.75 -0.904,-2.579 -1.328,-2.735 -8.183,-3.014 L 298,1247.912 v 5.044 m 343.695,43.907 c -8.545,5.634 -9.54,16.775 -2.123,23.77 4.584,4.323 9.851,5.158 15.834,2.512 14.572,-6.446 9.631,-28.145 -6.406,-28.135 -2.696,0 -5.625,0.745 -7.305,1.853 m -32.454,4.132 c -15.116,9.216 -3.656,32.956 12.742,26.395 8.365,-3.347 11.746,-11.111 8.378,-19.239 -3.532,-8.522 -13.398,-11.865 -21.12,-7.156"
       stroke="none"
       fill="#ec3c24"
       fill-rule="evenodd"
       id="path2" /><path
       d="M 605.5,0.606 C 603.3,0.821 596.325,1.457 590,2.019 535.333,6.882 471.526,22.266 418.037,43.48 367.839,63.388 316.586,90.673 277.785,118.141 c -8.72,6.174 -38.191,29.259 -42.707,33.454 -1.208,1.121 1.133,3.935 15.5,18.628 9.307,9.518 18.715,19.5 20.906,22.18 l 3.984,4.874 -2.431,1.612 c -16.829,11.157 -44.396,32.282 -61.838,47.387 -15.8,13.684 -46.544,44.457 -59.667,59.724 -5.437,6.325 -22.031,27.7 -36.876,47.5 -14.845,19.8 -29.011,38.25 -31.48,41 -5.974,6.654 -21.399,29.999 -26.42,39.985 -4.266,8.484 -10.059,28.056 -11.243,37.981 -0.391,3.282 -4.017,15.278 -8.058,26.66 C 16.517,558.102 5.44,610.606 0.985,672 c -1.277,17.59 -1.255,66.661 0.037,84.5 9.472,130.722 55.466,248.953 135.379,348 35.134,43.546 82.209,87.34 127.393,118.515 l 5.094,3.515 -3.486,5.201 c -13.006,19.405 -10.414,45.356 6.197,62.029 19.33,19.404 50.709,19.714 69.734,0.689 6.469,-6.468 12.037,-16.76 13.734,-25.382 l 1.145,-5.821 14.144,6.764 c 42.137,20.15 89.294,33.586 142.144,40.5 15.915,2.082 45.024,4.457 55,4.488 13.296,0.04 15.277,0.643 17.698,5.391 2.998,5.878 14.276,16.628 21.302,20.304 21.961,11.489 48.018,7.162 64.951,-10.788 4.183,-4.435 7.63,-9.342 9.758,-13.896 2.152,-4.603 3.983,-7.201 5.291,-7.505 1.1,-0.255 7.4,-1.631 14,-3.057 26.032,-5.627 72.583,-19.712 92,-27.837 5.461,-2.285 6.09,-2.363 7,-0.865 3.111,5.121 10.099,11.255 15.766,13.838 8.683,3.96 19.65,4.059 27.854,0.254 7.757,-3.599 13.32,-8.943 16.856,-16.195 3.916,-8.03 4.728,-15.345 2.619,-23.577 -0.896,-3.5 -1.51,-6.455 -1.363,-6.568 0.148,-0.112 2.518,-1.5 5.268,-3.083 7.729,-4.449 23.685,-16.857 26.789,-20.833 1.534,-1.964 3.888,-5.761 5.232,-8.437 l 2.444,-4.865 9.104,-0.519 c 8.105,-0.462 10.016,-0.971 17.415,-4.637 23.241,-11.516 32.633,-37.745 22.275,-62.207 -0.835,-1.971 -5.847,-9.275 -11.138,-16.232 -5.292,-6.956 -9.621,-13 -9.621,-13.429 0,-0.43 2.363,-1.467 5.25,-2.306 l 5.25,-1.525 5.172,3.269 c 2.845,1.798 8.695,4.457 13,5.909 6.97,2.35 8.869,2.581 17.328,2.106 6.922,-0.388 12.004,-1.378 18.729,-3.648 l 9.229,-3.115 4.771,2.414 c 17.349,8.779 44.587,13.925 61.466,11.614 16.952,-2.321 29.855,-8.771 41.805,-20.898 12.164,-12.343 19.592,-27.926 22.008,-46.166 1.955,-14.765 -2.029,-28.155 -11.519,-38.71 l -4.514,-5.021 7.45,-14.339 c 25.714,-49.49 45.593,-106.679 57.017,-164.025 7.753,-38.914 10.55,-65.884 11.263,-108.606 l 0.556,-33.292 2.87,-1.484 c 1.957,-1.012 2.942,-2.35 3.097,-4.208 0.126,-1.498 0.497,11.001 0.826,27.776 0.594,30.36 0.596,30.321 0.41,-8.5 -0.235,-48.853 0.782,-44.766 -18.927,-76.012 l -10.487,-16.624 6.833,-3.018 6.833,-3.019 -1.893,-10.663 C 1175.675,557.913 1160.936,508.897 1143.983,469 1117.023,405.553 1076.37,342.579 1030.28,292.872 l -6.973,-7.522 -1.159,-9.034 c -4.825,-37.625 -32.85,-61.685 -75.648,-64.946 l -8,-0.609 -17.106,-11.33 c -28.036,-18.569 -60.487,-36.456 -87.894,-48.447 -6.6,-2.888 -12.328,-5.541 -12.729,-5.896 -0.943,-0.835 2.558,-32.207 5.253,-47.088 2.129,-11.751 7.395,-33.825 11.131,-46.665 l 2.086,-7.164 -5.871,-7.637 C 826.649,27.791 821.612,24.233 811,20.735 791.846,14.419 745.42,6.433 704.5,2.415 689.469,0.939 615.87,-0.406 605.5,0.606 m 14,28.097 C 560.176,30.933 488.12,46.775 428,70.806 375.361,91.847 316.514,124.045 282.673,150.323 l -5.614,4.36 3.078,2.908 c 5.874,5.552 20.075,23.991 30.35,39.409 31.201,46.82 61.347,110.787 85.694,181.832 2.712,7.914 4.77,14.551 4.573,14.748 -0.33,0.329 -14.974,-29.114 -47.167,-94.834 l -12.616,-25.753 -4.235,2.646 c -9.743,6.085 -27.959,18.883 -38.081,26.752 -11.392,8.858 -32.521,26.754 -32.595,27.609 -0.024,0.275 3.099,2.439 6.94,4.808 42.615,26.29 67.136,60.084 68.709,94.692 0.769,16.907 -3.307,30.487 -12.73,42.407 -2.188,2.769 -3.979,5.408 -3.979,5.866 0,0.735 15.299,14.531 19.611,17.684 1.482,1.084 1.257,1.608 -2.142,5.007 -8.225,8.225 -22.345,12.069 -40.969,11.153 -6.6,-0.324 -13.74,-1.01 -15.866,-1.524 l -3.866,-0.935 0.454,9.671 c 1.111,23.668 -2.598,45.139 -10.487,60.708 -5.644,11.136 -11.858,17.731 -26.181,27.782 -1.837,1.29 -1.429,1.9 7.314,10.937 l 9.259,9.571 -7.314,5.373 c -19.777,14.529 -24.768,17.8 -27.167,17.8 -2.64,0 -10.709,-6.19 -18.099,-13.884 -5.662,-5.896 -7.674,-5.575 -15.576,2.482 -3.559,3.628 -10.876,10.628 -16.261,15.554 -11.089,10.146 -10.33,10.007 -20.309,3.709 -8.525,-5.381 -17.852,-9.428 -24.901,-10.806 -9.243,-1.807 -9.168,-1.748 -6.212,-4.835 1.433,-1.496 3.268,-4.305 4.077,-6.242 2.543,-6.087 4.635,-19.805 4.628,-30.338 -0.009,-12.907 -2.05,-21.486 -10.558,-44.381 C 117.58,543.814 115.421,534 118.216,534 c 0.823,0 4.436,3.995 8.03,8.877 9.68,13.148 17.991,18.123 30.274,18.123 15.567,0 30.172,-8.53 40.031,-23.38 3.489,-5.254 3.846,-5.493 10.453,-6.985 18.505,-4.179 37.427,-17.84 47.093,-34 l 3.221,-5.386 8.357,-0.678 c 11.736,-0.952 22.272,-3.898 33.325,-9.319 7.773,-3.811 10.957,-6.121 17.514,-12.705 13.456,-13.511 17.468,-23.995 15.443,-40.359 -2.049,-16.556 -8.273,-31.675 -18.891,-45.887 -17.107,-22.897 -37.693,-39.364 -54.769,-43.812 -13.909,-3.623 -30.29,0.089 -40.299,9.132 l -3.912,3.534 -7.793,-1.79 c -4.955,-1.139 -11.617,-1.774 -18.293,-1.746 -9.24,0.04 -11.407,0.404 -18.056,3.031 -9.729,3.844 -16.974,8.698 -24.764,16.59 -9.896,10.026 -16.759,21.494 -21.25,35.51 l -2.324,7.25 h -4.852 c -2.67,0 -6.129,0.66 -7.689,1.466 -3.539,1.831 -10.135,9.249 -13.676,15.382 -1.477,2.559 -5.073,8.252 -7.993,12.652 -9.927,14.963 -14.454,34.841 -12.349,54.226 2.629,24.203 8.628,46.436 21.034,77.952 9.409,23.904 10.722,30.635 9.023,46.257 -0.628,5.766 -2.385,13.89 -4.16,19.234 -3.502,10.542 -3.388,16.386 0.432,22.07 4.929,7.334 38.742,27.079 57.124,33.357 10.617,3.626 16.446,3.554 24.7,-0.309 3.517,-1.646 8.065,-4.459 10.107,-6.251 l 3.711,-3.259 3.492,2.663 c 7.046,5.374 14.279,6.859 21.591,4.432 4.236,-1.406 22.014,-13.155 35.896,-23.721 5.773,-4.395 10.552,-7.914 10.619,-7.821 0.068,0.094 -0.559,4.989 -1.393,10.879 l -1.517,10.708 -21.478,11.178 c -24.493,12.748 -26.536,13.297 -36.784,9.886 -9.812,-3.265 -12.582,-2.975 -22.739,2.383 -4.835,2.55 -9.727,4.636 -10.871,4.636 -3.14,0 -21.141,-6.239 -31.638,-10.966 -11.427,-5.145 -26.298,-13.504 -34.736,-19.526 -3.484,-2.486 -6.601,-4.089 -6.926,-3.563 -0.325,0.526 -0.862,12.566 -1.193,26.756 -2.688,115.229 30.343,224.63 95.499,316.299 7.99,11.241 25.154,33.107 28.622,36.463 1.158,1.12 4.282,4.625 6.943,7.787 l 4.838,5.75 H 268.621 302 v -10.488 -10.489 l -39.25,-0.273 c -36.911,-0.258 -36.107,-0.288 13.5,-0.512 32.26,-0.146 52.75,0.126 52.75,0.698 0,0.515 -2.008,3.777 -4.463,7.25 -19.706,27.878 -20.037,28.676 -20.037,48.314 0,16.15 1.625,22.745 6.647,26.97 3.74,3.147 6.952,3.178 13.353,0.128 6.505,-3.1 9.315,-5.754 20.754,-19.598 5.226,-6.325 11.72,-13.366 14.43,-15.646 12.99,-10.929 36.07,-23.393 51.316,-27.712 21.499,-6.09 53.183,-7.766 69.89,-3.697 7.907,1.926 9.994,2.107 13.208,1.144 2.1,-0.629 4.129,-1.647 4.508,-2.261 1.204,-1.947 0.615,-6.124 -1.949,-13.837 -3.671,-11.044 -5.047,-21.678 -4.982,-38.491 0.095,-24.837 4.651,-41.805 15.129,-56.348 8.341,-11.575 11.196,-16.33 11.196,-18.645 0,-1.156 1.779,-3.838 3.953,-5.962 l 3.954,-3.86 5.828,2.616 c 15.155,6.801 38.587,12.564 60.134,14.79 17.988,1.858 48.773,0.661 63.632,-2.473 46.824,-9.878 90.695,-35.616 133.035,-78.048 8.82,-8.838 20.236,-21.105 25.37,-27.259 9.286,-11.132 11.854,-13.397 12.517,-11.044 3.162,11.214 3.994,13.733 4.54,13.733 1.032,0 10.677,-29.247 14.464,-43.862 1.905,-7.348 3.644,-13.542 3.865,-13.764 0.222,-0.221 1.62,0.556 3.108,1.726 1.488,1.17 2.886,1.948 3.106,1.727 0.651,-0.65 4.306,-22.505 5.573,-33.327 0.645,-5.5 1.228,-18.662 1.297,-29.249 0.068,-10.586 0.407,-19.249 0.752,-19.25 0.345,0 2.22,0.664 4.166,1.477 l 3.538,1.478 0.597,-3.728 c 1.844,-11.494 2.739,-25.886 3.268,-52.527 l 0.592,-29.798 2.95,2.798 c 6.006,5.698 12.132,21.229 15.733,39.892 2.549,13.211 2.583,12.688 -0.77,11.951 l -2.798,-0.614 -1.175,27.674 c -0.646,15.221 -1.45,27.949 -1.787,28.285 -0.337,0.336 -3.221,-0.81 -6.409,-2.548 l -5.796,-3.158 -0.501,25.158 c -0.572,28.709 -2.015,39.117 -7.373,53.159 -6.056,15.87 -15.343,30.257 -28.317,43.866 l -6.546,6.867 4.5,-0.719 c 10.235,-1.637 26.818,-8.621 41.613,-17.525 4.56,-2.744 8.537,-4.989 8.838,-4.989 1.069,0 0.511,6.709 -1.988,23.892 -6.072,41.75 -12.865,64.662 -25.153,84.834 -13.348,21.913 -31.32,53.442 -43.762,76.774 -7.039,13.2 -13.733,25.343 -14.876,26.984 -2.832,4.067 -3.56,13.534 -1.193,15.499 3.604,2.99 22.634,1.995 25.393,-1.328 0.563,-0.68 1.161,-4.027 1.326,-7.439 l 0.302,-6.204 5.795,-0.01 5.796,-0.01 -0.796,3.75 c -0.437,2.063 -0.758,6.129 -0.713,9.037 0.103,6.604 2.303,9.844 8.97,13.213 4.186,2.115 6.334,2.5 13.948,2.5 8.353,0 9.57,-0.272 16.933,-3.788 4.363,-2.083 10.062,-5.317 12.665,-7.187 l 4.732,-3.399 0.668,4.859 c 0.367,2.672 1.95,7.569 3.516,10.881 7.964,16.84 22.194,16.238 49.986,-2.116 l 2.5,-1.65 0.072,4.881 c 0.098,6.731 3.696,11.977 10.557,15.396 9.242,4.605 18.976,2.991 35.495,-5.886 l 8.124,-4.365 4.608,4.291 c 15.046,14.011 51.154,20.439 68.138,12.13 13.892,-6.797 23.888,-21.843 26.096,-39.279 0.925,-7.302 -2.745,-14.858 -9.338,-19.225 -8.09,-5.358 -15.896,-7.2 -33.002,-7.787 -8.388,-0.288 -15.247,-0.576 -15.243,-0.64 0,-0.064 1.158,-3.491 2.564,-7.616 7.784,-22.835 8.331,-35.608 1.842,-43.041 -1.138,-1.304 -1.043,-2.039 0.619,-4.771 3.763,-6.188 9.148,-6.603 15.323,-1.181 6.337,5.564 10.439,19.882 11.387,39.743 0.295,6.188 0.817,11.25 1.158,11.25 0.342,0 4.065,-6.187 8.273,-13.75 40.746,-73.232 64.482,-148.206 73.369,-231.75 1.93,-18.138 3.248,-78.948 1.7,-78.378 -0.566,0.208 -11.843,7.095 -25.06,15.304 l -24.032,14.926 -0.537,8.074 c -3.398,51.102 -7.188,77.108 -16.768,115.074 -9.733,38.573 -29.908,91.061 -44.686,116.259 -3.776,6.437 -4.478,7.141 -6.202,6.218 -1.673,-0.896 -13.487,0.616 -19.553,2.501 -0.602,0.187 4.157,-10.081 10.575,-22.819 13.811,-27.405 20.724,-43.903 30.031,-71.659 14.922,-44.507 23.407,-89.182 26.168,-137.786 l 1.209,-21.286 18.057,-11.634 c 15.188,-9.786 30.918,-19.383 55.322,-33.753 l 4.267,-2.512 -4.963,-9.889 c -16.752,-33.382 -51.397,-73.335 -86.112,-99.306 l -10.783,-8.067 -5.571,-16.267 C 1043.38,477.52 1008.718,418.361 963.806,367.462 l -11.504,-13.037 11.226,-11.63 c 23.228,-24.06 30.677,-37.667 30.817,-56.29 0.306,-40.913 -43.849,-58.074 -101.345,-39.387 -25.405,8.257 -48.071,19.892 -82.5,42.35 -35.285,23.018 -187.017,128.349 -186.145,129.221 0.225,0.225 6.875,-0.929 14.777,-2.564 38.729,-8.014 103.458,-13.337 140.117,-11.524 l 13.749,0.68 0.926,3.609 c 8.33,32.503 12.057,42.565 18.511,49.984 2.034,2.338 2.035,2.366 0.065,1.838 -1.1,-0.296 -3.687,-0.822 -5.75,-1.17 l -3.75,-0.633 0.015,4.296 c 0.05,14.646 8.492,31.92 24.617,50.374 l 5.313,6.08 -5.973,2.854 c -3.284,1.57 -5.972,3.306 -5.972,3.858 0,2.395 24.76,42.968 31.12,50.994 2.121,2.676 3.609,5.264 3.309,5.75 -0.301,0.487 -2.576,0.885 -5.055,0.885 -3.825,0 -4.43,0.265 -3.991,1.75 3.782,12.768 8.028,35.404 9.588,51.106 1.087,10.94 1.393,28.144 0.5,28.144 -0.29,0 -3.261,-1.379 -6.601,-3.065 -3.34,-1.686 -6.292,-2.846 -6.561,-2.578 -0.268,0.269 0.481,9.186 1.664,19.816 2.062,18.518 3.901,53.827 2.804,53.827 -0.289,0 -2.439,-0.675 -4.777,-1.5 -2.338,-0.825 -4.578,-1.5 -4.977,-1.5 -0.4,0 -0.966,11.408 -1.26,25.351 -0.597,28.375 -0.967,30.156 -6.101,29.352 -1.739,-0.272 -4.096,-0.798 -5.237,-1.17 -1.781,-0.579 -2.913,0.647 -7.983,8.646 -14.047,22.162 -33.683,46.107 -53.395,65.112 -34.436,33.2 -72.131,54.389 -111.547,62.701 -13.067,2.756 -40.269,3.786 -54.112,2.049 -14.235,-1.786 -27.567,-5.424 -36.99,-10.091 -7.854,-3.891 -16.867,-11.221 -19.233,-15.642 -1.017,-1.899 -0.63,-2.235 4.897,-4.25 10.098,-3.682 30.23,-14.456 43.893,-23.49 21.47,-14.196 40.395,-30.261 55.278,-46.922 4.493,-5.03 8.866,-9.421 9.718,-9.758 0.852,-0.337 10.831,-0.839 22.176,-1.116 l 20.626,-0.504 0.58,4.895 c 2.196,18.539 10.104,27.608 15.121,17.337 1.651,-3.382 2.018,-6.733 2.372,-21.673 l 0.418,-17.673 -2.576,-2.577 c -3.106,-3.106 -5.454,-3.201 -13.736,-0.555 -10.263,3.278 -19.379,4.247 -34.932,3.711 -17.049,-0.587 -26.391,-2.702 -38.736,-8.769 -10.939,-5.375 -19.712,-14.044 -24.96,-24.664 -6.851,-13.861 -4.852,-23.898 7.136,-35.833 10.865,-10.817 27.766,-17.527 49.153,-19.518 13.974,-1.3 27.602,-0.206 52.665,4.227 9.767,1.728 17.949,2.951 18.181,2.718 0.67,-0.67 -5.787,-30.87 -10.24,-47.894 -5.557,-21.247 -14.063,-47.019 -22.384,-67.824 -14.154,-35.384 -21.815,-48.923 -35.124,-62.072 -12.505,-12.356 -24.852,-19.155 -38.803,-21.368 -6.018,-0.954 -7.023,-0.849 -11.198,1.172 -6.107,2.956 -9.627,8.48 -14.034,22.019 -7.886,24.231 -11.766,49.957 -11.776,78.073 -0.009,29.51 3.259,50.356 12.039,76.788 l 4.747,14.287 -4.752,3.488 c -8.353,6.132 -14.594,14.972 -16.37,23.187 -0.387,1.788 -1.005,3.261 -1.373,3.273 -0.369,0.013 -8.403,-2.999 -17.854,-6.693 l -17.182,-6.716 -0.69,-5.057 c -2.346,-17.214 -13.689,-48.019 -24.009,-65.202 -7.716,-12.847 -14.179,-20.907 -28.111,-35.057 -12.958,-13.161 -20.019,-17.257 -31.12,-18.051 -8.27,-0.592 -13.031,1.435 -18.722,7.969 -11.108,12.753 -16.027,36.045 -13.645,64.607 1.435,17.206 4.721,34.799 9.211,49.304 4.814,15.553 4.829,16.084 0.5,18.148 -4.665,2.225 -5.017,2.187 -6.32,-0.672 -1.011,-2.219 -4.319,-17.181 -5.707,-25.809 -0.423,-2.627 -1.891,-4.957 -5.043,-8 l -4.446,-4.294 -0.016,-16.673 c -0.017,-16.392 -0.06,-16.725 -2.561,-19.697 -1.399,-1.663 -3.424,-3.302 -4.5,-3.644 -1.829,-0.58 -1.956,-1.613 -1.956,-15.898 0,-13.531 -0.209,-15.467 -1.829,-16.933 -1.006,-0.91 -2.552,-1.655 -3.437,-1.655 -1.238,0 -1.507,-0.749 -1.17,-3.25 1.624,-12.052 2.436,-19.263 2.436,-21.631 0,-4.202 -2.198,-6.378 -7.106,-7.033 -2.979,-0.397 -4.394,-1.069 -4.393,-2.086 0.001,-0.825 0.625,-8.553 1.387,-17.174 0.761,-8.62 1.112,-16.382 0.78,-17.25 -0.367,-0.955 -1.799,-1.576 -3.637,-1.576 -3.665,0 -3.711,-0.503 -1.01,-11.081 2.465,-9.657 6.159,-20.219 10.154,-29.036 l 2.999,-6.618 4.251,0.479 c 7.031,0.793 30.431,-1.593 41.201,-4.201 28.736,-6.958 63.802,-25.229 121.062,-63.079 49.678,-32.838 194.679,-135.359 223.812,-158.243 3.85,-3.024 6.942,-5.998 6.87,-6.61 -0.071,-0.611 -1.309,-8.086 -2.75,-16.611 -4.673,-27.638 -5.802,-40.94 -6.342,-74.753 -0.798,-49.929 2.425,-80.491 12.916,-122.476 1.749,-7.001 2.962,-12.948 2.694,-13.216 C 805.821,48.488 782.3,42.924 766.868,40.088 716.905,30.908 665.83,26.962 619.5,28.703 m 185.016,151.643 c -2.099,29.303 0.767,93.654 4.172,93.654 0.301,0 8.851,-4.768 19.001,-10.595 20.481,-11.759 26.391,-14.618 43.26,-20.923 12.543,-4.689 24.088,-7.872 36.447,-10.049 4.342,-0.765 8.037,-1.533 8.211,-1.707 0.46,-0.46 -22.459,-15.561 -34.125,-22.486 -22.076,-13.104 -46.61,-25.543 -69.11,-35.039 l -7.128,-3.008 -0.728,10.153 m -517.3,44.044 c -30.877,20.614 -56.43,41.757 -85.29,70.57 -18.999,18.969 -40.654,42.687 -39.746,43.531 0.176,0.163 3.245,-0.321 6.82,-1.076 7.827,-1.654 25.955,-1.833 32.981,-0.326 5.017,1.076 5.126,1.047 8.918,-2.379 4.814,-4.349 12.331,-7.196 23.173,-8.778 l 8.428,-1.23 8.5,-7.965 C 269.521,299.382 293.762,280.26 316.25,265.266 323.262,260.59 329,256.472 329,256.114 329,254.29 302.765,215 301.547,215 c -0.146,0 -6.594,4.226 -14.331,9.39 m 716.027,101.86 c -4.45,5.637 -11.92,13.986 -16.599,18.553 l -8.508,8.303 10.202,12.197 c 43.156,51.595 78.578,115.158 97.722,175.359 2.209,6.947 2.491,7.313 9.359,12.129 17.914,12.564 37.245,31.319 53.61,52.011 3.522,4.454 6.562,7.941 6.754,7.748 0.622,-0.622 -4.631,-26.582 -8.812,-43.55 C 1128.159,492.66 1094.29,421.103 1047.135,358.073 1036.379,343.696 1013.3,316 1012.076,316 c -0.408,0 -4.382,4.613 -8.833,10.25 m -762.468,43.255 c -4.004,2.252 -5.002,4.926 -4.88,13.077 0.163,10.853 3.878,26.325 8.404,35.005 2.011,3.856 24.699,34.882 29.005,39.663 2.714,3.015 4.083,3.75 6.979,3.75 2.985,0 4.632,-0.953 9.601,-5.553 3.299,-3.054 7.374,-7.631 9.057,-10.171 2.741,-4.139 3.058,-5.407 3.047,-12.197 -0.014,-9.142 -1.597,-15.483 -6.299,-25.234 C 291.17,398.473 279.644,381.109 273.223,374 l -4.968,-5.5 -12.378,-0.264 c -9.641,-0.205 -12.979,0.075 -15.102,1.269 m -56.42,26.534 c -5.871,1.162 -13.645,5.329 -16.686,8.943 -3.258,3.872 -4.656,8.836 -4.663,16.558 -0.009,9.275 2.415,16.641 10.589,32.174 4.126,7.84 8.393,16.849 9.482,20.02 4.444,12.94 13.286,21.854 21.495,21.673 5.496,-0.122 12.602,-4.293 16.565,-9.724 4.282,-5.868 9.389,-16.246 11.402,-23.171 3.114,-10.71 2.051,-15.12 -9.496,-39.396 -11.974,-25.171 -12.26,-25.647 -16.258,-27.041 -3.529,-1.23 -16.292,-1.25 -22.43,-0.036 m -64.737,44.991 c -9.646,8.47 -16.392,48.75 -8.984,53.648 3.009,1.991 4.634,0.091 7.228,-8.449 2.672,-8.798 5.797,-13.413 9.875,-14.582 4.468,-1.282 7.845,1.104 9.344,6.6 0.638,2.339 1.475,10.553 1.86,18.253 0.783,15.658 1.776,18.967 7.637,25.454 6.185,6.847 12.401,8.936 15.709,5.281 3.609,-3.987 4.723,-19.712 2.673,-37.735 -1.587,-13.952 -6.638,-23.528 -19.906,-37.735 C 136.889,443.022 129.887,438 125.863,438 c -1.684,0 -4.164,1.203 -6.245,3.03 m 513.398,0.575 c -6.778,1.821 -18.303,7.96 -25.854,13.77 -6.937,5.338 -23.755,22.768 -24.631,25.526 -0.812,2.56 1.79,7.608 5.009,9.717 3.542,2.321 8.345,1.273 16.579,-3.619 13.122,-7.796 26.966,-11.62 45.729,-12.631 13.828,-0.746 24.663,1.045 46.652,7.708 13.908,4.215 18.412,5.164 24.765,5.222 6.316,0.057 8.275,-0.309 10.5,-1.963 8.573,-6.372 0.113,-14.406 -30.765,-29.213 -27.924,-13.391 -52.58,-18.656 -67.984,-14.517 m 211.148,65.096 c 3.672,8.099 13.35,24.357 19.905,33.438 l 4.792,6.639 -3.056,0.611 c -1.68,0.336 -4.911,0.611 -7.18,0.611 H 854.5 l 7.606,15.462 c 4.431,9.009 9.704,21.842 12.633,30.75 l 5.028,15.288 3.617,0.31 c 2.721,0.234 3.616,-0.07 3.616,-1.227 0,-4.64 -9.214,-23.943 -21.982,-46.052 -2.76,-4.779 -5.018,-8.878 -5.018,-9.11 0,-0.231 3.038,-0.466 6.75,-0.521 12.336,-0.182 12.22,0.981 1.85,-18.472 -5.005,-9.39 -10.9,-20.959 -13.1,-25.71 l -4,-8.638 -5.187,-0.04 -5.188,-0.04 3.039,6.701 M 57.701,529.75 c -15.634,49.126 -23.953,92.331 -27.679,143.75 -1.304,18.006 -1.305,62.974 -10e-4,81 9.324,128.916 54.792,242.465 136.344,340.5 14.644,17.604 51.533,54.769 68.635,69.149 19.929,16.758 50.47,39.271 62.75,46.258 0.988,0.562 1.25,-5.656 1.25,-29.688 v -30.399 l -12.25,-9.386 C 208.273,1080.802 145.723,994.665 111.539,899.649 79.613,810.911 71.111,713.518 87.215,621 c 1.771,-10.175 3.168,-20.3 3.104,-22.5 -0.064,-2.2 -1.344,-6.7 -2.843,-10 -4.795,-10.556 -12.067,-33.384 -17.6,-55.247 -2.957,-11.686 -5.635,-21.249 -5.951,-21.25 -0.316,-0.002 -3.117,7.984 -6.224,17.747 M 457,515.192 c -10.509,1.641 -22.444,8.815 -36.47,21.922 -7.681,7.178 -9.894,11.163 -8.618,15.518 1.531,5.223 4.438,10.368 5.857,10.368 0.77,0 7.324,-3.116 14.565,-6.925 18.775,-9.876 23.936,-11.448 35.227,-10.73 11.596,0.738 30.417,4.753 37.232,7.943 4.607,2.156 5.822,2.343 9.367,1.443 5.727,-1.453 12.094,-7.656 11.665,-11.363 -0.444,-3.828 -7.206,-8.764 -22.272,-16.256 C 482.81,516.796 469.143,513.297 457,515.192 m 162.395,14.404 c -2.583,6.184 -8.11,29.371 -9.988,41.904 -2.244,14.978 -2.529,48.522 -0.531,62.5 3.319,23.227 13.819,55.794 18.576,57.62 0.749,0.287 3.248,-0.668 5.553,-2.123 3.886,-2.453 4.159,-2.914 3.76,-6.321 -0.238,-2.022 -2.08,-8.983 -4.094,-15.47 -7.217,-23.24 -10.411,-50.285 -8.661,-73.338 1.285,-16.925 3.528,-29.739 6.164,-35.208 2.207,-4.579 7.805,-9.3 13.447,-11.34 1.859,-0.672 3.379,-1.577 3.379,-2.01 0,-1 -9.158,-11.142 -13.338,-14.771 -7.318,-6.354 -12.016,-6.829 -14.267,-1.443 m -161.759,79.911 c -2.023,2.023 -7.371,19.032 -9.099,28.94 -3.213,18.425 -1.673,35.851 5.465,61.842 5.357,19.505 6.968,23.608 10.218,26.03 2.348,1.75 3.374,1.901 7.493,1.104 3.166,-0.612 4.877,-1.482 5.085,-2.583 0.173,-0.914 -1.248,-4.964 -3.158,-9 -7.151,-15.118 -10.632,-31.275 -10.637,-49.38 -0.004,-15.858 2.953,-25.785 10.113,-33.939 4.38,-4.989 3.537,-8.428 -4.115,-16.778 -6.266,-6.838 -9.169,-8.432 -11.365,-6.236 m -75.936,19.051 -3.7,2.514 v 12.438 12.439 l 2.938,1.519 c 2.369,1.225 3.04,2.343 3.468,5.775 3.214,25.775 3.337,26.292 7.44,31.463 2.881,3.631 3.024,4.274 3.332,14.969 l 0.322,11.175 4.147,3.826 c 4.295,3.963 4.301,3.981 5.667,17.697 0.14,1.406 -3.341,4.05 -13.982,10.618 -16.677,10.294 -30.459,19.79 -39.61,27.29 l -6.587,5.4 2.657,2.656 2.656,2.657 -6.474,6.703 c -4.092,4.236 -2.787,3.226 3.546,-2.747 19.288,-18.191 37.729,-31.59 57.38,-41.689 5.83,-2.997 11.246,-6.068 12.035,-6.825 C 419.84,743.648 409.771,708 406.079,708 403.735,708 402.5,700.947 402.5,687.565 V 673.63 l -3.176,-0.824 c -4.352,-1.13 -5.088,-4.083 -5.638,-22.611 -0.399,-13.449 -0.68,-15.476 -2.32,-16.718 -1.026,-0.777 -2.225,-1.428 -2.664,-1.445 -0.439,-0.018 -1.362,-1.372 -2.051,-3.01 l -1.252,-2.978 -3.699,2.514 m 280.423,4.229 c -0.498,0.942 -1.411,4.987 -2.028,8.988 -2.161,14.027 1.091,18.007 13.619,16.665 5.687,-0.609 6.286,-0.891 6.286,-2.961 0,-2.704 -13.045,-22.899 -15.368,-23.79 -0.969,-0.372 -1.96,0.062 -2.509,1.098 m -169.742,43.405 c -0.405,0.656 -0.721,6.802 -0.701,13.659 0.04,14.203 0.526,15.149 7.789,15.149 5.042,0 8.531,-2.282 8.531,-5.579 C 508,694.557 496.764,675 493.97,675 c -0.469,0 -1.183,0.536 -1.589,1.192 M 0.45,714 c 0,18.975 0.134,26.737 0.298,17.25 0.165,-9.487 0.165,-25.013 0,-34.5 C 0.584,687.263 0.45,695.025 0.45,714 m 523.05,28.692 c -44.545,2.95 -87.507,13.978 -120.814,31.012 -11.977,6.125 -28.686,16.819 -28.686,18.36 0,0.515 0.157,0.936 0.349,0.936 0.193,0 7.474,1.817 16.18,4.039 31.243,7.971 55.317,11.133 84.471,11.095 30.696,-0.041 50.556,-3.346 84.199,-14.015 20.786,-6.591 23.529,-7.818 27.182,-12.16 2.032,-2.415 2.619,-4.192 2.619,-7.93 0,-10.503 -6.757,-24.968 -13.898,-29.752 -3.298,-2.21 -4.034,-2.272 -25,-2.097 -11.881,0.099 -23.852,0.33 -26.602,0.512 m 101.396,66.014 c -1.967,1.537 -8.486,6.772 -14.486,11.635 -29.868,24.204 -61.189,40.66 -88.467,46.482 -10.874,2.32 -26.943,3.833 -26.943,2.536 0,-0.483 1.012,-1.503 2.25,-2.266 14.65,-9.039 44.485,-36.123 48.919,-44.409 0.9,-1.681 0.705,-1.822 -1.831,-1.318 -1.561,0.31 -10.654,1.789 -20.207,3.288 l -17.369,2.724 -8.486,13.023 c -11.115,17.06 -22.135,31.376 -30.662,39.832 -3.787,3.756 -6.561,7.153 -6.166,7.548 0.396,0.395 9.57,0.693 20.386,0.661 l 19.666,-0.058 16,-4.262 c 22.907,-6.102 29.378,-8.393 44,-15.576 22.407,-11.006 39.684,-23.896 60.54,-45.167 9.358,-9.545 12.031,-12.859 11.782,-14.612 -0.485,-3.417 -4.593,-3.445 -8.926,-0.061 m 227.046,48.242 c -3.812,1.157 -6.13,2.494 -21.442,12.371 -29.504,19.032 -53.832,32.719 -68.5,38.54 -4.125,1.637 -11.641,3.685 -16.703,4.55 -12.344,2.112 -18.155,4.876 -33.669,16.015 -14.165,10.171 -25.339,16.374 -35.628,19.781 -5.783,1.914 -9.149,2.187 -30.5,2.475 -31.252,0.421 -30.544,-0.06 -35.45,24.073 -1.816,8.935 -3.876,15.941 -5.818,19.789 -7.236,14.337 -7.993,25.213 -3.179,45.683 3.945,16.775 6.383,23.145 10.679,27.9 6.294,6.967 8.731,7.333 49.268,7.404 l 35.5,0.063 10.5,3.61 c 5.775,1.986 18.6,6.42 28.5,9.853 15.364,5.327 19.025,6.243 25,6.256 11.17,0.022 20.264,-5.06 24.422,-13.65 1.671,-3.452 2.081,-6.237 2.096,-14.227 0.01,-5.464 0.437,-13.919 0.949,-18.79 0.808,-7.678 1.464,-9.741 4.928,-15.5 5.395,-8.972 6.143,-11.221 7.116,-21.412 0.985,-10.324 3.322,-15.108 15.501,-31.732 13.326,-18.191 15.625,-24.325 17.991,-48 2.433,-24.337 1.746,-22.618 14.656,-36.694 15.208,-16.58 19.549,-26.169 15.442,-34.111 -2.51,-4.854 -5.759,-6.037 -11.659,-4.247 m -401.962,18.802 -9.48,9.75 9.75,-9.48 c 9.056,-8.805 10.205,-10.02 9.48,-10.02 -0.148,0 -4.536,4.388 -9.75,9.75 M 354.349,902 c 0,4.675 0.173,6.587 0.383,4.25 0.211,-2.337 0.211,-6.163 0,-8.5 -0.21,-2.337 -0.383,-0.425 -0.383,4.25 m 173.932,35.25 c -6.404,6.969 -20.013,31.934 -23.577,43.25 -2.003,6.361 -2.189,8.87 -2.035,27.5 0.208,25.188 1.479,38.41 4.206,43.755 2.383,4.672 10.479,12.236 15.795,14.759 7.056,3.348 11.619,3.164 19.132,-0.772 14.396,-7.541 25.879,-8.806 34.708,-3.824 7.149,4.036 12.556,5.388 16.122,4.032 5.685,-2.162 5.672,-4.307 -0.132,-21.504 -3.989,-11.818 -4.499,-14.334 -4.493,-22.139 0.009,-11.629 2.501,-21.614 10.059,-40.308 7.542,-18.655 8.602,-25.422 4.611,-29.413 -2.524,-2.524 -2.907,-2.586 -16.001,-2.586 -20.202,0 -33.837,-2.828 -43.06,-8.93 -2.137,-1.413 -5.062,-3.355 -6.5,-4.315 -3.538,-2.359 -6.357,-2.201 -8.835,0.495 m 394.353,21.212 c -13.171,7.93 -36.805,30.71 -46.401,44.723 -7.839,11.447 -13.3,23.467 -13.958,30.72 -0.678,7.475 0.412,9.099 6.097,9.085 14.632,-0.034 42.064,-25.879 60.667,-57.154 14.073,-23.662 10.783,-37.725 -6.405,-27.374 m 54.866,27.415 c -10.35,3.736 -17.968,8.625 -27.371,17.566 -15.85,15.071 -29.791,44.443 -23.552,49.621 3.702,3.073 16.902,-3.497 32.963,-16.406 11.899,-9.565 31.615,-28.785 35.883,-34.982 4.726,-6.862 5.709,-12.544 2.693,-15.56 -1.746,-1.746 -3.296,-2.11 -8.866,-2.08 -3.905,0.021 -8.858,0.797 -11.75,1.841 m 41.945,23.612 c -10.012,5.168 -18.717,12.612 -28.679,24.527 -15.193,18.173 -18.63,27.984 -9.801,27.984 5.43,0 11.574,-4.346 25.927,-18.342 26.928,-26.258 33.878,-45.174 12.553,-34.169 M 1062,1042.64 c -10.029,1.644 -20.551,5.737 -32.336,12.579 l -6.836,3.969 2.336,2.549 c 3.923,4.278 13.839,10.184 20.619,12.278 12.21,3.771 22.476,2.03 30.695,-5.205 13.319,-11.723 9.528,-24.136 -7.978,-26.125 -2.2,-0.25 -5.125,-0.27 -6.5,-0.045 m -215.855,29.43 c -10.071,4.034 -15.144,16.23 -10.492,25.225 1.658,3.207 46.817,62.592 55.117,72.481 2.436,2.901 5.762,5.965 7.391,6.807 3.525,1.823 11.15,2.038 15.339,0.433 9.424,-3.611 14.293,-16.162 9.72,-25.055 -0.979,-1.903 -14.557,-20.055 -30.174,-40.338 -24.071,-31.263 -29.014,-37.158 -32.47,-38.728 -4.382,-1.99 -10.63,-2.347 -14.431,-0.825 m -36.645,26.424 c -0.55,0.182 -2.203,0.595 -3.673,0.918 -6.34,1.393 -12.783,10.257 -12.783,17.588 0,5.028 1.753,8.351 20.819,39.468 19.287,31.476 19.692,32.589 13.387,36.728 -7.554,4.96 -16.998,9.804 -19.114,9.804 -1.771,0 -3.192,-2.073 -7.715,-11.25 -6.386,-12.961 -8.105,-15.082 -14.06,-17.356 -6.029,-2.303 -12.484,-1.439 -17.186,2.3 -4.256,3.384 -8.175,10.421 -8.175,14.68 0,1.623 2.273,8.075 5.052,14.338 3.315,7.473 4.83,12.083 4.409,13.412 -0.755,2.376 -5.123,4.373 -20.295,9.278 -14.386,4.651 -29.679,8.769 -44.666,12.029 -6.6,1.435 -12.94,2.816 -14.088,3.068 -3.745,0.821 -5.254,-1.607 -7.456,-11.999 -1.165,-5.5 -3.054,-11.391 -4.197,-13.09 -7.9,-11.744 -25.419,-10.838 -31.787,1.645 -2.414,4.731 -2.485,9.555 -0.287,19.557 1.671,7.603 1.667,7.685 -0.433,9.385 -1.374,1.113 -4.862,1.949 -9.935,2.381 -4.299,0.366 -10.292,0.9 -13.317,1.186 -3.025,0.287 -6.175,0.069 -7,-0.484 -1.276,-0.855 -1.575,-6.867 -2,-40.292 -0.476,-37.378 -0.602,-39.482 -2.589,-43.288 -1.149,-2.2 -3.99,-5.342 -6.312,-6.983 -3.493,-2.467 -5.209,-2.984 -9.916,-2.984 -6.936,0 -12.053,2.804 -16,8.765 l -2.683,4.052 -0.294,39.545 c -0.344,46.141 0.388,43.105 -10.389,43.105 -8.047,0 -32.232,-2.431 -45.817,-4.605 -48.43,-7.751 -98.08,-22.911 -134.243,-40.99 C 366.531,1198.293 363,1195.547 363,1189.928 c 0,-2.771 4.523,-9.778 7.791,-12.072 3.58,-2.511 7.209,-8.96 7.209,-12.808 0,-6.469 -8.23,-12.048 -17.772,-12.048 -6.277,0 -12.614,3.928 -18.021,11.168 -15.281,20.463 -16.938,36.83 -5.171,51.069 4.095,4.955 19.304,14.943 35.964,23.619 48.845,25.435 101.962,39.618 173.5,46.327 18.247,1.711 80.458,1.693 98,-0.029 62.578,-6.142 141.473,-31.184 195.891,-62.177 19.565,-11.143 29.887,-18.854 32.521,-24.296 2.404,-4.966 2.671,-10.35 0.742,-14.963 -2.092,-5.004 -45.6,-75.866 -48.539,-79.057 -1.438,-1.562 -3.74,-3.414 -5.115,-4.117 -2.703,-1.38 -8.881,-2.587 -10.5,-2.05 m -350.307,49.548 c -3.469,0.467 -8.746,1.558 -11.727,2.425 l -5.42,1.576 3.449,4.518 c 4.304,5.639 6.205,11.544 4.907,15.242 -0.83,2.366 -1.618,2.77 -6.424,3.293 -9.862,1.074 -17.558,6.543 -18.647,13.249 -0.527,3.25 -0.177,4.044 3.326,7.548 4.49,4.489 10.497,6.54 16.108,5.499 2.054,-0.381 7.436,-1.971 11.959,-3.534 14.252,-4.924 35.539,-7.386 40.592,-4.695 1.201,0.64 2.692,1.853 3.313,2.695 1.004,1.362 1.436,1.33 3.914,-0.294 4.862,-3.186 11.712,-10.908 13.748,-15.5 l 1.967,-4.436 -2.379,-1.928 c -2.972,-2.407 -10.407,-1.887 -17.431,1.22 -6.311,2.792 -8.855,2.676 -10.287,-0.467 -2.244,-4.923 -0.485,-11.976 4.857,-19.478 l 2.05,-2.88 -3.784,-1.003 c -12.295,-3.259 -24.459,-4.347 -34.091,-3.05 m -160.242,82.261 c -18.34,5.185 -27.378,25.516 -18.893,42.497 11.4,22.813 43.499,21.821 54.29,-1.678 3.003,-6.54 2.877,-17.822 -0.272,-24.358 -6.318,-13.108 -21.62,-20.28 -35.125,-16.461 m -3.783,6.3 C 286.557,1240.894 282,1248.646 282,1259 c 0,7.114 1.521,11.246 6.03,16.382 11.356,12.933 32.149,10.73 40.313,-4.271 3.572,-6.563 4.28,-12.464 2.306,-19.209 -4.416,-15.092 -21.293,-22.369 -35.481,-15.299 m -0.501,8.064 c -0.367,0.366 -0.667,7.116 -0.667,15 V 1274 h 2.5 c 2.415,0 2.5,-0.225 2.5,-6.62 v -6.62 l 6.079,0.439 c 3.5,0.254 6.423,0.995 6.889,1.749 0.444,0.719 1.099,3.5 1.455,6.18 0.573,4.322 0.921,4.872 3.087,4.872 2.207,0 2.347,-0.246 1.465,-2.565 -0.536,-1.411 -0.975,-3.8 -0.975,-5.309 0,-1.509 -0.629,-3.604 -1.398,-4.656 -1.223,-1.672 -1.16,-2.217 0.5,-4.326 3.307,-4.205 2.352,-9.341 -2.174,-11.681 -2.883,-1.491 -17.944,-2.114 -19.261,-0.796 m 527.192,1.491 c -7.011,4.065 -9.677,12.718 -6.107,19.822 7.019,13.972 28.231,8.653 28.244,-7.082 0.009,-11.341 -12.317,-18.435 -22.137,-12.74 M 299,1253 v 5 h 5.5 c 4.167,0 5.985,-0.485 7.5,-2 2.269,-2.269 2.435,-3.318 0.965,-6.066 -0.86,-1.606 -2.132,-1.934 -7.5,-1.934 H 299 v 5 m 347.123,42.085 c -4.95,1.047 -8.377,4.03 -10.507,9.145 -2.39,5.739 -1.601,10.578 2.483,15.23 9.413,10.721 26.362,4.111 26.146,-10.195 -0.144,-9.508 -8.67,-16.179 -18.122,-14.18 m -33.728,3.996 c -3.539,1.027 -8.209,5.314 -9.513,8.734 -2.492,6.54 0.16,14.812 5.884,18.35 10.31,6.371 22.734,-0.55 22.734,-12.665 0,-6.542 -2.255,-10.048 -8.52,-13.25 -4.75,-2.427 -5.836,-2.547 -10.585,-1.169"
       stroke="none"
       fill="#fbfafa"
       fill-rule="evenodd"
       id="path3" /></g></svg>
