<?xml version="1.0" encoding="UTF-8" standalone="no"?>
<svg
   viewBox="0 0 24 24"
   width="24pt"
   height="24pt"
   version="1.1"
   id="svg1"
   xmlns="http://www.w3.org/2000/svg"
   xmlns:svg="http://www.w3.org/2000/svg">
  <defs
     id="defs1" />
  <g
     transform="matrix(0.02032639,0,0,0.02032639,1.8406597,-0.19733197)"
     id="g88">
    <path
       d="m 99,491.1 6,-3.4 c 1,-0.6 99,-56.3 210.4,-79.8 -2,-12.5 -4.2,-37.4 2.7,-65.7 7.1,-29.1 26.2,-58.7 52.5,-81.1 32.9,-28.1 75.8,-44.2 124.1,-46.5 0.6,0 2.8,-0.2 6.5,-0.2 14.9,0 53.8,2.3 92.1,23.5 28.4,15.7 50.9,35.4 66.9,58.6 21,30.5 30,66.1 26.8,106 27.7,6.7 130.2,33.4 209.4,78.3 l 5.8,3.3 -96,299.6 -8.3,-3.4 C 797.1,780 716.3,747 599.4,733.2 c -31.9,-3.7 -64,-5.6 -95.2,-5.6 -98.2,0 -196.4,18.8 -292.1,55.9 l -7.9,3.1 z"
       fill="#13847f"
       id="path1-8" />
    <path
       d="M 678,408.8 C 688.7,316.9 631.1,268.2 589.2,245 c -46.7,-25.8 -94.1,-22.3 -94.1,-22.3 -104.2,5 -157.3,73.4 -169,121.4 -9.3,38.2 -1.1,70.2 -1.1,70.2 -114.8,22.4 -216,80.5 -216,80.5 L 209,775.7 C 358.8,717.7 491.1,712.2 600.3,725 719.9,739 801,772.6 801,772.6 L 892.2,487.9 C 800.3,435.7 678,408.8 678,408.8 Z m 94.8,307.4 c -37.4,-11.5 -95.8,-26.6 -167.4,-35 -33.9,-4 -68,-6 -101.3,-6 -90.1,0 -180.2,14.8 -268.4,44.1 L 163.4,516.4 c 37.1,-17.8 101.4,-45.3 170,-58.8 l 52.3,-10.4 c 0,0 -11.9,-18.9 -18.1,-43.6 -0.6,-2.3 -4.9,-24.1 1.2,-49 1.7,-6.9 9.2,-31.1 35.7,-53.7 24.4,-20.8 55.6,-32.3 92.7,-34.1 h 0.9 0.1 c 0.4,0 1.4,-0.1 2.9,-0.1 8.5,0 38.3,1.2 66.8,16.9 21.2,11.7 37.8,26 49.1,42.5 7.9,11.5 13.3,24 16,37.7 2.5,12.3 2.3,28.8 -0.7,42.9 -4.1,20 -14,36.8 -14,36.8 l 50.1,8.3 c 1,0.2 91,20.4 170.4,58.1 z"
       fill="#f47e2d"
       id="path2" />
    <path
       d="m 746.7,638.6 c -2.6,0 -4.5,-0.9 -5.4,-1.4 -6.9,-3.8 -14.5,-7.3 -14.5,-7.4 -2,-0.9 -4.8,-2.5 -6.7,-5.9 -3.8,-6.8 -0.6,-13.4 1.2,-17 l 0.4,-0.9 c 1.7,-3.6 2.9,-6.3 3.9,-8.9 1.2,-3.1 2.2,-6.3 3,-9.7 0.8,-3.2 1.5,-6.8 2.2,-10.9 0.5,-3.4 1,-7.1 1.6,-11.5 0.4,-3.7 0.8,-7.5 1.2,-11.3 0.3,-3.7 0.6,-7.2 0.8,-10.7 0.2,-3.2 0.3,-6.3 0.4,-9.4 0.1,-2.3 0.1,-4.7 0.1,-7.2 0,-1 0,-2.1 0,-3.1 V 522 c 0,-0.3 0,-1.5 0,-1.8 -0.5,-6 1.6,-9.6 3.5,-11.7 2.5,-2.8 6.3,-4.4 10.3,-4.4 h 1.1 c 21.8,1.5 48.8,13.7 49.9,14.2 l 5.1,2.3 -0.6,5.5 c -7.3,64.6 -43.2,102.9 -47.2,107 -3.9,4.8 -8.1,5.5 -10.3,5.5 z"
       fill="#f47e2d"
       id="path3" />
    <path
       d="m 796.5,525.5 c 0,0 -26.6,-12.1 -47.4,-13.5 0,0 -7.5,-0.8 -6.6,8 v 2.2 4.4 c 0,2.4 -0.1,4.9 -0.1,7.3 -0.1,3.2 -0.3,6.4 -0.5,9.6 -0.2,3.6 -0.5,7.3 -0.8,10.9 -0.3,3.8 -0.7,7.7 -1.2,11.5 -0.5,4 -1,7.9 -1.6,11.8 -0.6,3.9 -1.3,7.7 -2.3,11.5 -0.9,3.6 -2,7.1 -3.3,10.5 -1.2,3.2 -2.6,6.4 -4.1,9.5 -1.6,3.3 -3.9,7.2 -1.9,10.8 0.8,1.4 1.9,2.1 3.3,2.7 0,0 7.8,3.6 15,7.6 0,0 2.9,1.8 6.1,-2.2 0.1,0.2 38.1,-37.4 45.4,-102.6 z"
       fill="#ffffff"
       id="path4" />
    <path
       d="m 679.2,615.4 c -3.1,0 -6.4,-0.1 -8.8,-0.3 -10.5,-0.5 -18.5,-2 -19.4,-2.2 -15.9,-2.8 -28.6,-4.2 -37.7,-4.3 -0.9,0 -1.8,0 -2.7,0 -7.3,0 -12.6,0.3 -13.3,0.4 -29.9,3 -73.3,3.4 -96.5,3.4 -10.3,0 -17.5,-0.1 -19,-0.1 -0.5,0 -0.9,0 -1.3,0 -11.7,0 -15.7,-9.2 -17.1,-12.6 -2.9,-6.8 -2.8,-14.5 -2.6,-17.3 -4.6,-36 -13,-79.7 -14.4,-86.3 -0.8,-4.1 0,-7.9 2.3,-10.8 3.7,-4.5 9.5,-5 11.9,-5 h 0.4 l 53.2,0.3 -2.1,9.3 c -2.3,9.9 -3.6,34.6 -3.9,43.4 -0.3,29.4 3,38.4 5.9,40.8 0.5,0.4 1,0.7 1.6,0.9 2.1,-4 5.3,-7.4 7.7,-9.7 1.6,-28 -5.2,-60.9 -6,-64.5 -2.1,-6.6 -0.4,-11.1 1.5,-13.6 2.8,-3.8 7.6,-5.9 13.6,-5.9 0.9,0 1.7,0.1 2.1,0.1 11.9,0.7 38.3,1 38.5,1 l 9.3,0.1 -2,9.1 c -4,18.6 -5.6,33.2 -6.2,42.8 13.5,-7 26.6,-10.7 37.9,-10.7 14.1,0 25.7,5.8 33.4,16.6 11.3,15.9 7,31.4 -0.5,42.5 h 3 c 12.1,0 15.6,-1.6 16.4,-2.1 0,-0.1 0,-0.1 0,-0.2 0.2,-1 0.1,-2.1 0,-2.5 l -0.1,-0.3 v -0.2 c -1.9,-11.1 -15.2,-67.4 -16.3,-72.1 -0.7,-2.2 -2.3,-7.9 0.9,-12.7 3.2,-4.8 8.9,-5.2 11,-5.3 0.7,0 1.4,-0.1 2.2,-0.1 3,0 5.5,0.4 6,0.5 l 45.4,6.8 1.4,4.7 c 7,23.4 6.4,54.7 6.4,56 v 0.1 c -1,24.1 -4.6,38.9 -11.7,48.1 -8.2,10.4 -20,11.9 -30.4,11.9 z m -99.3,-44.2 c 2.6,0.2 5,0.3 7.3,0.3 10.7,0 15.9,-2.5 18.9,-4.3 1.3,-0.8 1.6,-2.5 1.3,-3.8 -0.2,-0.8 -0.6,-2.3 -2.2,-2.5 -0.7,-0.1 -1.6,-0.2 -2.4,-0.2 -6.1,0 -13.7,3.2 -20.9,8.8 -0.8,0.6 -1.4,1.2 -2,1.7 z"
       fill="#f47e2d"
       id="path5" />
    <path
       d="m 707.6,501.3 -40.7,-6 c 0,0 -3.2,-0.5 -6.5,-0.3 -4.4,0.3 -7.3,1.6 -5.1,8.3 0,0 14.4,61 16.5,72.9 0,0 0.7,2.6 0.1,5.7 -1,5.2 -4.2,10.8 -43.9,7.6 0,0 28.2,-20.8 11.1,-44.8 -15.7,-22.2 -46.9,-13.9 -72.9,3.2 0,0 -1.3,-21.3 6.6,-57.9 0,0 -26.9,-0.3 -39,-1 0,0 -13,-1.6 -9.2,9.8 0,0 8.6,38.5 6,70.1 0,0 -8.8,7.3 -9.5,13.1 0,0 -6.3,2.7 -12,-2 -5.7,-4.8 -9,-16.5 -8.7,-46.9 0,0 1.2,-32.2 4.1,-45 l -43.7,-0.2 c 0,0 -8.5,-0.4 -7,6.7 1.5,7.1 10,51.6 14.6,87.6 0,0 -0.8,8 2,14.5 1.8,4.2 4.2,8.5 11.3,7.9 0,0 71.7,1 115,-3.3 0,0 6.9,-0.5 16.7,-0.4 11.3,0.1 25.7,2.1 39,4.4 0,0 7.9,1.5 18.4,2 26.2,1.3 40.8,-0.6 42.8,-52.6 0,0.2 0.7,-30.9 -6,-53.4 z m -97.5,72.4 c -5.6,3.4 -15.2,7.1 -34.8,4.6 0,0 -14.6,-2 1.9,-14.9 10.8,-8.4 21.7,-11.5 29.4,-10.1 9.6,1.9 11.6,15.5 3.5,20.4 z"
       fill="#ffffff"
       id="path6" />
    <circle
       cx="417.60001"
       cy="483.79999"
       fill="#f47e2d"
       r="23.1"
       id="circle6" />
    <circle
       cx="417.60001"
       cy="483.79999"
       fill="#ffffff"
       r="15.5"
       transform="matrix(0.1526,-0.9883,0.9883,0.1526,-124.2632,822.7122)"
       id="circle7" />
    <path
       d="m 324.9,576.2 c -9,0 -16.9,-4.7 -20.4,-12.2 -5.3,-11.1 0.5,-25 12.8,-30.9 3.7,-1.7 7.7,-2.7 11.6,-2.7 9,0 16.9,4.7 20.4,12.2 5.3,11.1 -0.5,25 -12.8,30.9 -3.6,1.7 -7.7,2.7 -11.6,2.7 z"
       fill="#f47e2d"
       id="path7" />
    <ellipse
       cx="326.89999"
       cy="553.29999"
       fill="#ffffff"
       rx="17.200001"
       ry="14.7"
       transform="matrix(0.903,-0.4297,0.4297,0.903,-206.0245,194.146)"
       id="ellipse7" />
    <path
       d="m 398.7,618.1 c -5.8,0 -10.4,-1.7 -13.4,-5 -2.7,-2.9 -3.5,-6.4 -3.5,-9 -0.1,-6 -0.6,-21.3 -0.8,-24.7 -0.5,-7.2 4,-12 8.7,-13 30.2,-7 23.6,-46.3 23.3,-47.9 l -1.5,-8.7 8.9,-0.2 16.3,-0.4 1.3,6.2 c 12.5,58 10,83.6 -9,94.6 -7.3,4.2 -15.9,6.2 -22.6,7.5 -2.8,0.3 -5.4,0.6 -7.7,0.6 z"
       fill="#f47e2d"
       id="path8" />
    <path
       d="m 430.4,516.8 -10,0.3 c 0,0 8.7,48.1 -29.2,56.7 0,0 -3.1,0.6 -2.8,5 0.3,4.4 0.8,25.3 0.8,25.3 0,0 -0.7,8.7 15.5,5.6 4.8,-0.9 13.5,-2.7 20.2,-6.6 13.8,-7.8 18.4,-26.6 5.5,-86.3 z"
       fill="#ffffff"
       id="path9" />
    <path
       d="m 260.8,637.2 c -12.7,0 -27.1,-6.3 -33.5,-17.5 -7.4,-13.2 -2.3,-28.1 4.3,-40.4 5.3,-9.9 12.2,-20.8 18.7,-29.9 -1.3,1.8 -11.6,3.9 -13.7,4.1 -16.7,1.4 -15.5,-19.3 -13.2,-30.4 3.2,-15.1 14.6,-27.9 28.1,-34.4 14,-6.8 29.8,-10.8 45.2,-12.8 10.8,-1.4 21.8,-2 32.6,-2 h 4.9 c 8.4,0.1 16.8,4 21.5,9.9 4.1,5.1 7.7,14.9 6.5,22.9 -0.7,4.6 -2.9,8.2 -6.4,10.6 -4.3,2.9 -9.2,3.3 -13.1,3.6 -1.6,0.1 -3,0.2 -4.1,0.5 -4.7,1.1 -9.7,2.9 -15.8,5.7 -3.7,1.7 -7.2,3.5 -10.6,5.4 -21.1,11.8 -33.9,30.2 -29.9,42.7 0.2,0.4 1.2,2.3 4.5,3.9 2.2,1.1 8.7,2.9 18.7,2.9 10.9,0 32.3,-2.3 52.9,-18 l 12.3,-9.3 v 64.8 l -10,-3.3 c 0,0 -3.5,-1 -9.7,-1 -6.5,0 -17.1,1.2 -30.4,6.9 -8.2,3.5 -36.9,15.1 -59.5,15.2 0.1,-0.1 -0.3,-0.1 -0.3,-0.1 z"
       fill="#f47e2d"
       id="path10" />
    <path
       d="m 264.6,537.2 c 0,0 -19.3,13.3 -28.9,7.9 -3.3,-1.9 -5.5,-6 -5.4,-13.7 0.2,-11.9 5,-22.1 15.4,-30.1 15.7,-12.1 47,-20.5 88.5,-19.8 5.6,0.1 12.1,2.6 15.6,7 3.8,4.8 8.3,18 1.8,22.4 -4.1,2.8 -9.9,1.9 -14.6,3 -5.9,1.4 -11.6,3.6 -17.2,6.2 -3.8,1.7 -7.5,3.6 -11.2,5.7 -23,12.9 -39.2,34.3 -33.3,51.9 0,0 1.5,4.8 8.4,8.2 10.3,5 47.1,8.9 79.6,-15.9 v 38.9 c 0,0 -17.7,-5.8 -45.5,6.1 -11.7,5 -37,14.5 -56.6,14.6 -27,0.2 -53.1,-24.2 2.7,-88.7 -0.1,0 6.2,-6.8 0.7,-3.7 z"
       fill="#ffffff"
       id="path11" />
    <path
       d="m 358.4,330.3 c -4.7,-0.6 -9.5,3.4 -9.1,8.4 0.3,3.5 1.5,7.2 3.5,10 1.3,1.8 1.8,3.7 1.9,5.9 0,2.4 -0.5,4.7 -1.3,7 -3.5,10.5 -11.2,14.2 -18.8,-11.2 -7.6,-25.4 13.2,-58.5 27.6,-36.8 2.6,3.9 9.9,15.3 1.1,16.9 -1.6,0.3 -3.2,0 -4.9,-0.2 z"
       fill="#ffffff"
       id="path12" />
    <circle
       cx="499.5"
       cy="368.20001"
       fill="#f47e2d"
       r="94.5"
       transform="matrix(0.7071,-0.7071,0.7071,0.7071,-114.0519,461.0798)"
       id="circle12" />
    <circle
       cx="499.5"
       cy="368.20001"
       fill="#ffffff"
       r="90.599998"
       transform="matrix(0.7071,-0.7071,0.7071,0.7071,-114.0519,461.0798)"
       id="circle13" />
    <circle
       cx="499.5"
       cy="368.20001"
       fill="#e82427"
       r="83.400002"
       transform="matrix(0.7071,-0.7071,0.7071,0.7071,-114.0519,461.0798)"
       id="circle14" />
    <text
       fill="#ffffff"
       font-family="Arial-BoldMT"
       font-size="30.6228px"
       transform="matrix(0.5404,-0.8306,0.8382,0.5453,449.4752,347.0392)"
       id="text14">A</text>
    <text
       fill="#ffffff"
       font-family="Arial-BoldMT"
       font-size="30.6232px"
       transform="matrix(0.9747,-0.1783,0.1799,0.9837,479.6621,317.2938)"
       id="text15">T</text>
    <text
       fill="#ffffff"
       font-family="Arial-BoldMT"
       font-size="32.3865px"
       transform="matrix(0.9835,0.1207,-0.1218,0.9926,497.4631,313.0836)"
       id="text16">a</text>
    <text
       fill="#ffffff"
       font-family="Arial-BoldMT"
       font-size="32.3862px"
       transform="matrix(0.7405,0.6585,-0.6645,0.7473,530.4174,323.5986)"
       id="text17">a</text>
    <text
       fill="#ffffff"
       font-family="Arial-BoldMT"
       font-size="31.4355px"
       transform="matrix(0.525,0.8756,-0.8577,0.5142,548.3702,335.8463)"
       id="text18">j</text>
    <text
       fill="#ffffff"
       font-family="Arial-BoldMT"
       font-size="32.3863px"
       transform="matrix(0.8817,0.4523,-0.4564,0.8898,515.7993,315.505)"
       id="text19">z</text>
    <text
       fill="#ffffff"
       font-family="Arial-BoldMT"
       font-size="31.5451px"
       transform="matrix(0.729,-0.6276,0.6524,0.7579,462.6273,328.7056)"
       id="text20">l</text>
    <text
       fill="#ffffff"
       font-family="Arial-BoldMT"
       font-size="31.5452px"
       transform="matrix(0.797,-0.5386,0.5599,0.8286,469.4707,322.6837)"
       id="text21">-</text>
    <text
       fill="#ffffff"
       font-family="ArialRoundedMTBold"
       font-size="23.4335px"
       transform="matrix(0.1744,0.9713,-0.9851,0.1719,420.4127,377.8455)"
       id="text22">F</text>
    <text
       fill="#ffffff"
       font-family="ArialRoundedMTBold"
       font-size="23.2263px"
       transform="matrix(0.7478,-0.5275,0.5873,0.8094,533.0706,440.9669)"
       id="text23">C</text>
    <text
       fill="#ffffff"
       font-family="ArialRoundedMTBold"
       font-size="17.3011px"
       transform="matrix(0.5755,-0.7027,0.7824,0.6228,560.3954,418.8784)"
       id="text24">C</text>
    <text
       fill="#ffffff"
       font-family="ArialRoundedMTBold"
       font-size="23.1457px"
       transform="matrix(0.8783,0.2788,-0.3104,0.9506,470.4401,440.8615)"
       id="text25">B</text>
    <text
       fill="#ffffff"
       font-family="ArialRoundedMTBold"
       font-size="23.1155px"
       transform="matrix(0.9227,0.047183,-0.05253994,0.9986,487.235,445.4335)"
       id="text26">B</text>
    <text
       fill="#ffffff"
       font-family="ArialRoundedMTBold"
       font-size="23.1224px"
       transform="matrix(0.8924,-0.1359,0.1548,0.9879,503.8405,446.4908)"
       id="text27">Q</text>
    <text
       fill="#ffffff"
       font-family="ArialRoundedMTBold"
       font-size="23.3992px"
       transform="matrix(0.3565,0.8892,-0.9317,0.3631,424.6027,392.165)"
       id="text28">a</text>
    <text
       fill="#ffffff"
       font-family="ArialRoundedMTBold"
       font-size="22.638px"
       transform="matrix(0.7492,-0.6053,0.6392,0.7691,546.4241,431.8279)"
       id="text29">h</text>
    <text
       fill="#ffffff"
       font-family="ArialRoundedMTBold"
       font-size="23.3467px"
       transform="matrix(0.5282,0.8044,-0.8429,0.5381,428.9155,404.2159)"
       id="text30">k</text>
    <text
       fill="#ffffff"
       font-family="ArialRoundedMTBold"
       font-size="22.8444px"
       transform="matrix(0.4361,-0.8799,0.9009,0.4341,568.1883,408.6326)"
       id="text31">k</text>
    <text
       fill="#ffffff"
       font-family="ArialRoundedMTBold"
       font-size="23.3059px"
       transform="matrix(0.6311,0.731,-0.766,0.6429,436.6633,414.9785)"
       id="text32">i</text>
    <text
       fill="#ffffff"
       font-family="ArialRoundedMTBold"
       font-size="23.2791px"
       transform="matrix(0.6906,-0.6782,0.7107,0.7035,556.4106,423.5823)"
       id="text33">i</text>
    <text
       fill="#ffffff"
       font-family="ArialRoundedMTBold"
       font-size="23.2964px"
       transform="matrix(0.6032,0.658,-0.7466,0.6653,440.7528,418.8823)"
       id="text34">e</text>
    <text
       fill="#ffffff"
       font-family="ArialRoundedMTBold"
       font-size="23.4166px"
       transform="matrix(0.2585,-0.8448,0.9585,0.2851,573.998,396.8443)"
       id="text35">e</text>
    <text
       fill="#ffffff"
       font-family="ArialRoundedMTBold"
       font-size="22.8693px"
       transform="matrix(0.09113704,-0.899,0.9952,0.09806996,578.0222,382.8783)"
       id="text36">n</text>
    <text
       fill="#ffffff"
       font-family="ArialRoundedMTBold"
       font-size="23.2149px"
       transform="matrix(0.7538,0.4896,-0.5556,0.8315,450.5559,429.0743)"
       id="text37">h</text>
    <circle
       cx="499.5"
       cy="368.20001"
       fill="#ffffff"
       r="48"
       transform="matrix(0.2344,-0.9721,0.9721,0.2344,24.4999,767.5347)"
       id="circle37" />
    <circle
       cx="499.5"
       cy="368.20001"
       fill="#13847f"
       r="42.5"
       transform="matrix(0.2338,-0.9723,0.9723,0.2338,24.725,767.8022)"
       id="circle38" />
    <g
       fill="#ffffff"
       id="g87">
      <path
         d="m 471.8,354.7 -6.8,0.7 5,-4.8 c 0,0 -5.1,-2.8 -0.3,-7.1 4.8,-4.3 5.2,-5.3 6.6,-0.9 l 0.8,0.5 c 0,0 5.3,-2.8 7.7,2 2.4,4.8 0.8,3.7 -2.3,6.6 -1.5,1.4 1.9,2.8 1.9,2.8 0,0 9.6,6.3 11.9,9 h 2.7 c 0,0 -0.2,-4.5 2.2,-9.2 2.5,-4.7 10.7,-10.9 19.1,-9.6 0,0 4.7,0.3 8.9,2.7 7,4 21.5,26.9 -7.8,38.5 0,0 -3.3,0.3 -0.8,-3.7 2.5,-3.9 -0.1,-4.9 -1.3,-6.1 0,0 -2.3,-2.2 -4.4,2.5 l -15,23.7 c 0,0 0.1,4.2 -3,2.9 -3.2,-1.3 -2,-3.3 -0.1,-5.2 1.9,-1.9 3.2,-4.1 -0.8,-6.2 0,0 -2.4,-1.8 -5.5,-1.4 -1.2,0.1 -4.7,0 -8.3,-1.8 -6.5,-3.3 -11.4,-11.3 -9.8,-18.7 0.2,-1.1 0.5,-2.1 0.8,-3.1 0.2,-0.7 1.2,-2.8 0.9,-3.5 -0.5,-1.6 -3.1,-1.3 -4.4,-1 l -2.9,-3.7 c 0,0 1.1,-2.2 4.6,-4.8 1.6,-0.9 0.4,-1.1 0.4,-1.1 z"
         id="path38" />
      <path
         d="m 374.2,270.9 c 0,0 5.7,-7.8 15.9,1.4 0,0 8.8,9.3 12.4,13.6 3.6,4.3 -2.1,9.2 -2.1,9.2 0,0 -5.9,7.1 -11.4,-3.1 -4.6,-8.6 -13.8,-13.5 -13.8,-13.5 0,0 -4.6,-2.2 -1,-7.6 z"
         id="path39" />
      <path
         d="m 460.6,235.4 c 0,0 -2.9,32.6 -48,45.3 0,0 -5.4,1.6 -8.2,-3.8 -2.8,-5.4 3.3,-7.7 8.3,-10.4 5.1,-2.7 25,-12.8 34.5,-32.3 0,0 1.3,-6.1 8.8,-5.5 6,0.5 4.6,6.7 4.6,6.7 z"
         id="path40" />
      <path
         d="m 536.7,231.9 c 0,0 6.1,-7.3 9.6,-4 3.5,3.2 -0.8,4.5 -0.3,8 0.5,3.5 2.5,13.7 8.6,8 6.1,-5.7 11.5,-13.5 19.8,-6.2 6.9,6 -5.7,8.5 -10.6,12 -5.7,4.1 -12.4,8.7 -19,1.3 -0.1,0.1 -14.7,-13.4 -8.1,-19.1 z"
         id="path41" />
      <path
         d="m 636.4,282.1 c 0,0 4.1,2.6 0.2,6.9 -4,4.3 -7.6,8.1 -2.8,13.8 4.8,5.7 8.8,1.2 10.7,-1.9 1.9,-3.1 6.2,-4.5 9.7,2.2 l 2.2,4.5 c 0,0 3.8,6 -5,8.5 -8.8,2.4 -24.5,5.4 -33,-7.9 -8.5,-13.3 3.8,-27.5 6.7,-30.9 0,0 2.9,-4 7.1,0 0.1,0 2.3,2.3 4.2,4.8 z"
         id="path42" />
      <path
         d="m 829,464.7 c 0,0 -4.3,7.8 -4,17.6 0,0 0.5,9 -7.8,4.8 -8.3,-4.2 -3.3,-17.6 -0.3,-25 2.9,-7.4 5.4,-8.1 10.7,-7.1 5.4,1.1 2.3,8 1.4,9.7 z"
         id="path43" />
      <path
         d="m 857.9,468.6 c 0,0 6.2,2.2 3.2,7.3 -3,5.1 -8.3,4.9 -9.5,5.2 -1.2,0.3 -12,3.8 -3,9.1 9.1,5.3 21.6,-4.9 25.8,-9.2 0,0 2.1,-3.4 6.2,0.3 0,0 4.7,3.2 -0.5,8.9 -5.2,5.7 -20.8,21.9 -39.4,6 -13.6,-11.7 2.7,-25.7 2.7,-25.7 0,0 6.5,-5.9 14.5,-1.9 z"
         id="path44" />
      <path
         d="m 689.8,731.4 c 1.8,-3 4,-5.8 6.6,-8.2 5.3,-4.8 12.6,-8.4 19.9,-8.4 12.8,0 24.3,8.1 27.7,20.5 1.1,4 1.2,8.7 0.6,12.8 -0.1,1 -0.6,2 -1.3,2.7 -1.5,1.8 -5.1,1.6 -7.2,1 -2.5,-0.7 -3.3,-3.5 -3.5,-5.8 -0.7,-9.2 -16,-21.8 -24.6,-16.2 -2.3,1.5 -4.8,4.4 -5.8,7 -2.8,7.3 -10.5,3.6 -11.1,3.1 -0.5,-0.3 -4.8,-2.8 -1.3,-8.5 z"
         id="path45" />
      <path
         d="m 596.2,698.3 c 0,0 -5.8,-4.5 -9.8,-6.1 -4,-1.6 -7.3,-1.7 -14.9,3.2 -7.6,4.9 -16.6,12.3 -16.6,12.3 0,0 -7.4,6.2 2.2,12.2 9.6,6 13.6,4.4 18.4,-0.4 4.8,-4.8 20.3,-16.3 20.3,-16.3 0,0 3.6,-2.7 0.4,-4.9 z"
         id="path46" />
      <path
         d="m 479.3,700.1 c 0,0 15.9,-0.8 17.4,14.3 0,0 -2.5,5.8 7.1,5.4 9.6,-0.4 9.3,-2.5 8.8,-8.4 -0.5,-5.9 -5.2,-20.9 -35.1,-21.2 0,0 -25.5,-0.1 -24.7,23.2 0,0 -0.5,9.1 9.5,7.8 10.4,-1.4 6.5,-3.4 6.1,-10.2 -0.5,-7 4.8,-10.6 10.9,-10.9 z"
         id="path47" />
      <ellipse
         cx="482.89999"
         cy="716.29999"
         rx="8.6999998"
         ry="7.5999999"
         id="ellipse47" />
      <path
         d="m 326.9,716.3 c 0,0 5.7,20.3 -11,23.8 -16.7,3.5 -23.7,-8.9 -23.2,-15.3 0,0 0,-7 6,-8.6 6,-1.6 6.5,3.4 7.5,6.1 1,2.7 2,8.2 7.6,6.7 4.1,-1.1 3.1,-5.2 1.4,-7.6 -2,-2.9 -2.6,-6.2 0.8,-8.4 6.1,-3.7 10,-1.5 10.9,3.3 z"
         id="path48" />
      <path
         d="m 281.6,724.1 c 0,0 -0.8,12 3.6,18.3 4.4,6.2 -1.2,8.6 -5.2,8.8 -4,0.3 -10.2,-1.9 -10.8,-10.9 -0.5,-8.9 -0.5,-14 -0.5,-14 0,0 -0.5,-6.1 6.9,-6.1 7.4,0 6.1,1.8 6,3.9 z"
         id="path49" />
      <path
         d="m 240.3,726.6 c 0,0 7.8,-2.9 8.6,6.7 0.8,9.6 5.1,18.8 5.1,18.8 0,0 3.8,5.8 -3.2,7.9 -7,2.1 -7.5,-0.3 -8.9,-6.6 -1.2,-5.3 -1.7,-10.3 -3.4,-15.5 -1.5,-4.1 -4.5,-9.6 1.8,-11.3 z"
         id="path50" />
      <path
         d="m 189.5,471.1 c 0,0 5.4,5.8 4,20.2 0,0 -0.1,5.2 -5.4,5.3 -5.3,0.1 -3,-3.2 -2.5,-7.9 0.5,-4.7 -1.2,-16.1 -15.5,-19.8 0,0 -3.2,-1.2 -0.5,-4.4 2.6,-3.3 13.9,-1.5 19.9,6.6 z"
         id="path51" />
      <path
         d="m 157.7,497.9 c 0,0 2.2,9.6 -4.3,9.5 -6.5,-0.1 -9.8,-11.4 -4.8,-21.6 3.3,-6.7 13.1,-11 20.1,-8.2 2.3,0.9 4.7,3.1 4.9,5.7 0.2,2 -0.2,4.6 -2.3,5.5 -1.1,0.5 -2.2,0.6 -3.2,-0.1 -1.6,-1.1 -2.1,-2.2 -4.4,-1.4 -1.9,0.6 -6.7,4.9 -6,10.6 z"
         id="path52" />
      <path
         d="m 267.4,432.4 c 0.2,0.6 0.4,1.1 0.6,1.5 0.5,1 1.2,2 1.8,2.9 2,2.9 5.2,5.1 8.6,6.2 2.7,0.9 5.7,0.9 8.5,0.5 15.4,-2.1 15.7,-19.6 15.7,-19.6 0,0 0.4,-4.3 -4.8,-4.8 -5.2,-0.5 -5.7,2.7 -6.7,5.7 -1,3 -1.6,7.6 -5.8,7.5 -4.3,-0.1 -4.3,-5.6 -4.3,-5.6 0,0 -0.3,-4.9 -7,-2.9 -2.3,0.7 -5.1,1.7 -6.4,3.8 -0.8,1.2 -0.6,3.2 -0.2,4.8 z"
         id="path53" />
      <path
         d="m 327.2,376.6 c 0,0 12.3,15.9 22.5,19.5 0,0 4.3,0.7 4,9 -0.3,8.3 -3.1,9.2 -10,5 -6.9,-4.1 -19.7,-9.7 -21.2,-22.5 -1.7,-12.7 0.4,-16.8 4.7,-11 z"
         id="path54" />
      <path
         d="m 516.7,222.5 c 0,0 5,-0.3 5.2,7.3 0.2,7.7 0.3,14.7 0.3,14.7 0,0 1.6,7.9 -5.4,8.2 0,0 -5,0.9 -5,-9.2 0,-10.1 0.2,-17.5 0.2,-17.5 0,0 -0.3,-3.6 4.7,-3.5 z"
         id="path55" />
      <path
         d="m 672.1,385.5 c -0.6,10.2 4.3,20.7 9.8,28.9 6.2,9.4 14.6,18 22.8,25.7 0,0 9.6,9.2 -1.8,11.8 0,0 -11.2,2.4 -17.8,-5.9 0,0 -17,-13.3 -25.9,-32.7 -7.6,-16.5 -6.4,-35.7 10.2,-58.5 0,0 6.7,-8.6 8.3,2.1 0,0 0.8,11.8 0.8,11.9 1.1,8.9 -5.8,6.3 -6.4,16.7 z"
         id="path56" />
      <path
         d="m 797.4,692.9 c 0,0 -3.9,-7.3 5.3,-10.2 9.2,-2.9 22.2,-0.8 22.2,-0.8 0,0 8.8,0.6 5.8,9.2 -3,8.6 -6.2,6.3 -10.1,4.3 -3.9,-2.1 -10.6,-2.9 -14.8,0.5 -4.2,3.3 -7.4,-1.1 -8.4,-3 z"
         id="path57" />
      <path
         d="m 717.4,738.4 c -10,-2 -14.6,2 -16.4,4.1 8.6,2 16.8,4 24.4,6 0.8,-3.9 -0.2,-8.6 -8,-10.1 z"
         id="path58" />
      <path
         d="m 633.9,721.5 c -8.8,-1.3 -14.6,2.9 -17.2,5.5 9.2,1.2 18.1,2.6 26.8,4 -0.1,-3.4 -1.7,-8.3 -9.6,-9.5 z"
         id="path59" />
      <path
         d="m 827.3,581.7 c -2.9,14 2.6,6.9 2.6,6.9 15.8,-25.9 30.5,-21.4 36,-18.4 l 6.2,-19.4 c -33.9,-0.4 -42,17.5 -44.8,30.9 z"
         id="path60" />
      <path
         d="m 826.4,607.2 c -2.4,-8 -4.1,1.7 -4.1,1.7 -4,19.5 3.7,30 10.5,35.2 2.8,2.1 5.7,3.4 8.1,4.2 l 7,-22 c -15.7,0 -21.5,-19.1 -21.5,-19.1 z"
         id="path61" />
      <path
         d="m 844,600.9 c -0.1,7.6 3.6,14.4 6.2,18.3 l 14.1,-43.9 c -13.9,3.9 -20.2,17.4 -20.3,25.6 z"
         id="path62" />
      <path
         d="m 735,454.4 c -1,0.4 -2.6,0.6 -3.3,1.6 -1.6,2.4 5.9,4.2 7.1,4.5 5.7,1.5 11.7,2.9 17.6,2.3 3.6,-0.4 7.2,-1.6 10.3,-3.4 5.8,-3.3 11.6,-9.3 16.7,-19.6 -7,-2.5 -13.8,-4.8 -20.4,-6.9 -1.9,5 -8.2,13.4 -28,21.5 z"
         id="path63" />
      <path
         d="m 590.6,285.7 c 5,3.4 6,1.6 8.9,-3.9 2.4,-4.3 11.2,-14.2 16.8,-19.2 -3.6,-2.8 -7.2,-5.4 -10.8,-7.8 -4,4.1 -11,12 -15.6,22.1 -0.1,0.1 -3.3,6.1 0.7,8.8 z"
         id="path64" />
      <path
         d="m 796.8,710 c -6.6,4.7 -10,15.1 -8.3,23 1.4,6.7 7.5,12.7 12.9,16.5 1.9,1.3 4,2.3 6,3.2 L 821,710.4 c -6.4,-3.8 -15.5,-6.6 -24.2,-0.4 z m 14.2,14.9 c -0.1,6.9 -4.9,6.7 -4.9,6.7 0,0 -6,0.9 -5.6,-7.1 0.4,-8 6,-7 6,-7 0,0 4.6,0.5 4.5,7.4 z"
         id="path65" />
      <path
         d="m 373.6,713 c -20.1,1.9 -34.4,16 -41.8,25.3 28.5,-6.4 56.3,-10.9 83.2,-14 C 405,718 390.2,711.4 373.6,713 Z"
         id="path66" />
      <path
         d="m 217.7,714.3 c 0,-5.6 -6.3,-5.3 -6.3,-5.3 -10.3,-0.4 -19,3.2 -24,5.9 l 5.4,15 c 5.1,-4.3 12,-7.5 16.8,-8.4 4.5,-0.8 8.1,-1.6 8.1,-7.2 z"
         id="path67" />
      <path
         d="m 196.1,681.1 c 9.2,-4.5 7.3,-9.8 7.3,-9.8 0,0 -2.2,-8.9 -14.4,-4.1 -5.9,2.3 -11.5,5.6 -15.6,8.3 l 6.7,18.8 c 2.5,-4.1 7.2,-8.9 16,-13.2 z"
         id="path68" />
      <path
         d="m 179.8,597.1 c -10.1,-30.2 -31.5,-35.4 -46.7,-34.8 l 5.7,15.9 c 8.2,1.1 22.8,5.8 29.9,25.1 7.9,21.6 -0.3,33.1 -7,39.1 l 7.6,21.5 c 8.3,-8.5 22.8,-29.9 10.5,-66.8 z"
         id="path69" />
      <path
         d="m 130.4,512.2 c 6.2,-1 4.7,-7.6 4.7,-7.6 -1.1,-5.7 -0.4,-16.8 0.2,-23.7 -5.9,2.9 -11,5.5 -15,7.7 1.7,17 4.7,24.5 10.1,23.6 z"
         id="path70" />
      <path
         d="m 256.9,460.1 c 2.4,2.5 5.7,4.4 9.3,3.9 2.4,-0.3 8.1,-1.6 7.8,-4.9 -0.1,-1.2 -1.2,-2.9 -2.1,-3.6 -7.5,-6 -14,-17 -17.2,-22.9 -3.4,1.1 -6.7,2.2 -10,3.3 1,3.6 2.3,7.8 2.6,8.6 2.3,5.2 5.4,11.3 9.6,15.6 z"
         id="path71" />
      <path
         d="m 692.2,670.2 c 0,-4.3 -1.4,-10.6 2.5,-13.8 0.9,-0.8 2.4,-1.4 3.7,-1.6 5.6,-1 4.1,4.8 3.9,6.3 -0.2,1.5 -0.6,9.1 0.1,12.4 0,0 1.6,6.2 -4,9.5 0,0 -3.5,5.2 -19,1.1 0,0 -4.9,-1.3 -14,-1 0,0 -4.3,0.4 -4.6,-3.3 -0.3,-3.7 5.5,-5.7 9.9,-5.6 l 2.9,-0.2 c 0,0 -3,-22.4 5.1,-22 8.1,0.3 1.9,20.5 1.9,20.5 0,0 -3.9,5.6 7.8,4.7 4.8,-0.5 3.8,-7 3.8,-7 z"
         id="path72" />
      <path
         d="m 488.7,643.1 c -0.6,-4.2 -2.8,-10.1 0.5,-13.8 0.8,-0.9 2.2,-1.7 3.4,-2.1 5.4,-1.7 4.6,4.2 4.7,5.6 0.1,1.4 0.6,8.9 1.8,12 0,0 2.4,5.9 -2.6,9.8 0,0 -2.8,5.5 -18.4,3.7 0,0 -5,-0.6 -13.8,1 0,0 -4.2,1 -4.9,-2.6 -0.8,-3.6 4.6,-6.3 8.9,-6.8 l 2.8,-0.6 c 0,0 -6,-21.4 2,-22.2 8,-0.8 4.7,19.7 4.7,19.7 0,0 -3,6 8.2,3.5 4.6,-1 2.7,-7.2 2.7,-7.2 z"
         id="path73" />
      <path
         d="m 636.3,657.6 c 0,0 1.7,-7.8 1,-15.8 0,0 0.3,-4 -3.5,-3.9 -3.2,0.1 -3.8,4.1 -3.8,7.8 0,3.7 0.1,10 -0.8,15 0,0 -5.2,3.8 -5.4,4.8 0,0 -3.2,0.4 -6.4,0 -4.1,-0.5 -6.9,-1.7 -5.7,-8.2 l 2.5,-11.8 c 0,0 1.8,-7.9 -3,-9.3 -4.8,-1.4 -5,2.4 -5.1,3.2 l -1.8,21.4 c 0,0 -0.5,2.8 -0.2,5.8 0.4,4 0.7,5.5 8,6.6 0,0 11.3,1.1 22.9,0.4 11.9,-0.6 25.5,-3.8 26.3,-13 0.1,0.1 0.6,-13.5 -25,-3 z m 9.4,7.3 c 0,0 -8,2.7 -8.9,0 -0.8,-2.3 7.3,-4.4 7.3,-4.4 0,0 8.3,-2.9 8.2,0.3 -0.2,2.8 -6.6,4.1 -6.6,4.1 z"
         id="path74" />
      <path
         d="m 429.6,649.3 c -0.3,-2.8 -1,-4.9 -1,-4.9 0,0 -2.1,-14.1 -7.4,-12 -6,2.3 -1.6,11.8 -1.6,11.8 l 2.1,5.3 c 1.7,5.5 -7.7,7.6 -11.6,8.2 1.4,-2.1 2.1,-4.3 1.8,-6.9 0,0 -2.5,-13.4 -24.8,2.4 0,0 -0.1,-7.9 -2.5,-15.6 0,0 -0.6,-4 -4.2,-3 -3.1,0.8 -2.7,4.9 -1.9,8.4 0.8,3.5 2.3,9.7 2.5,14.8 0,0 -4.1,4.8 -4.2,5.8 0,0 -2.9,1.1 -6.1,1.4 -4.1,0.4 -6.9,-0.2 -7.2,-6.8 l -0.2,-12 c 0,0 0,-8.1 -4.9,-8.5 -4.9,-0.4 -4.3,3.4 -4.2,4.2 l 2.9,21.3 c 0,0 0.2,2.9 1.1,5.7 1.2,3.8 1.8,5.2 9.1,4.7 0,0 9.3,-1.3 20.3,-4.4 9.6,-2.7 19.2,-4.9 29.1,-6.4 0.9,-0.1 1.8,-0.2 2.7,-0.4 9,-1.8 10.9,-7.3 10.2,-13.1 z m -40.4,10.8 c -1.3,-2.1 6,-5.9 6,-5.9 0,0 7.3,-4.6 7.9,-1.5 0.5,2.8 -5.3,5.4 -5.3,5.4 0,0 -7.1,4.5 -8.6,2 z"
         id="path75" />
      <path
         d="m 600.7,636.1 c 0.5,2.5 -1.9,5 -5.4,5.6 -3.4,0.7 -6.6,-0.8 -7.1,-3.2 -0.5,-2.5 1.9,-5 5.4,-5.6 3.5,-0.7 6.6,0.7 7.1,3.2 z"
         id="path76" />
      <path
         d="m 577.9,643.6 c 0.5,2.5 -1.9,5 -5.4,5.6 -3.4,0.7 -6.6,-0.8 -7.1,-3.2 -0.5,-2.5 1.9,-5 5.4,-5.6 3.5,-0.7 6.6,0.7 7.1,3.2 z"
         id="path77" />
      <path
         d="m 322.7,661 c 1.3,2.1 -0.1,5.3 -3.1,7.1 -3,1.8 -6.5,1.5 -7.8,-0.6 -1.3,-2.1 0.1,-5.3 3.1,-7.1 3,-1.9 6.5,-1.6 7.8,0.6 z"
         id="path78" />
      <path
         d="m 579.7,656.6 c 0,0 10.5,-1.1 15.9,-9.1 0.3,-0.5 0.6,-0.9 1.2,-1.2 1.4,-0.7 3.2,0.3 3.5,1.8 0.3,1.8 -0.6,3.9 -1.5,5.4 -2.7,4.5 -9,12.2 -22,13.1 0,0 -10.6,1.3 -10.6,-3.7 -0.2,-5.3 13.5,-6.3 13.5,-6.3 z"
         id="path79" />
      <path
         d="m 347.8,644.9 c 1.3,2.2 -0.1,5.3 -3.2,7.1 -3,1.8 -6.5,1.5 -7.8,-0.7 -1.3,-2.2 0.1,-5.3 3.2,-7.1 3.1,-1.8 6.5,-1.4 7.8,0.7 z"
         id="path80" />
      <path
         d="m 334.5,672.2 c 0,0 9,-5.5 10.5,-15 0.1,-0.6 0.2,-1.1 0.5,-1.6 1,-1.3 3.1,-1.1 3.9,0.2 1,1.5 1.1,3.8 0.9,5.5 -0.5,5.3 -2.9,14.9 -14.3,21.3 0,0 -9,5.7 -11.2,1.2 -2.3,-4.9 9.7,-11.6 9.7,-11.6 z"
         id="path81" />
      <path
         d="m 288.9,669.5 c 0.1,-0.1 0.2,-0.3 0.2,-0.4 0.9,-1.4 2.2,-2.6 3.5,-3.6 0.9,-0.7 1.9,-1.2 3,-1.5 3.7,-0.9 1.7,1.4 0.6,2.5 -1.1,1.1 -14.3,15.6 -4,23.1 10.2,7.5 23.8,-3.9 30.1,-11.7 1,-1.2 1.2,-2.9 0.6,-4.3 -0.8,-1.9 -2.5,-1.8 -4.2,-1.1 -1.3,0.5 -2.4,1.5 -3.5,2.4 -4.6,4 -14.6,10 -17.4,3.8 -3.2,-7 13.6,-18.4 17.4,-21.9 0,0 4.8,-4.1 1,-7 -2,-1.6 -5.7,-1.1 -8,-0.6 -4.5,0.9 -8.7,2.9 -12.4,5.7 -3.6,2.7 -6.8,5.4 -8.8,9.5 -0.7,1.3 -1.2,2.7 -1.7,4.1 0,0 -1.1,2.8 0.9,3.4 1.5,0.3 2.1,-1.3 2.7,-2.4 z"
         id="path82" />
      <path
         d="m 538.3,637.8 c 0.1,-0.1 0.2,-0.2 0.4,-0.3 1.4,-0.9 3,-1.6 4.6,-1.9 1.1,-0.3 2.2,-0.4 3.3,-0.2 3.8,0.7 1,2 -0.4,2.5 -1.5,0.6 -19.3,8.7 -12.8,19.7 6.4,11 23.4,5.9 32.2,1.2 1.4,-0.7 2.2,-2.2 2.2,-3.7 0,-2.1 -1.5,-2.6 -3.4,-2.7 -1.4,0 -2.8,0.4 -4.2,0.8 -5.8,1.8 -17.4,3.4 -17.5,-3.4 -0.2,-7.7 19.8,-11.5 24.6,-13.3 0,0 6,-1.8 3.7,-6 -1.3,-2.3 -4.8,-3.3 -7.1,-3.7 -4.5,-0.9 -9.2,-0.7 -13.6,0.3 -4.4,1 -8.4,2.3 -11.8,5.2 -1.1,1 -2.1,2 -3.2,3.1 0,0 -2.2,2.2 -0.5,3.5 1.3,0.9 2.5,-0.4 3.5,-1.1 z"
         id="path83" />
      <path
         d="m 438.2,629.8 c 0,0 4.3,-2.2 6.5,8.6 2.2,10.8 3.8,16.2 3.8,16.2 0,0 1.4,4.2 -2.8,5.4 -2.2,0.6 -4.2,-1.6 -5.1,-3.3 -1.6,-3.3 -2.4,-7.2 -3.4,-10.8 -1,-3.7 -1.8,-7.6 -1.7,-11.5 0.2,-2.3 0.8,-3.6 2.7,-4.6 z"
         id="path84" />
      <path
         d="m 509.1,627.6 c 0,0 4.6,-1 4,9.6 -0.6,10.6 -0.4,16.1 -0.4,16.1 0,0 0.3,4.3 -4,4.4 -2.2,0 -3.6,-2.5 -3.9,-4.3 -0.6,-3.5 -0.5,-7.3 -0.5,-10.9 0,-3.7 0.2,-7.6 1.2,-11.2 0.6,-2.1 1.5,-3.2 3.6,-3.7 z"
         id="path85" />
      <path
         d="m 511.3,659.4 c 0.6,-0.3 1.2,-0.5 1.8,-0.7 1,-0.3 2.5,-0.1 3.2,0.9 1.4,2.4 -2.2,3.3 -2.2,3.3 0,0 -2,0.7 -0.7,2.3 1.7,2 1.7,4 -3.6,5.4 l -3.6,1 c 0,0 -3.8,1.3 -4.3,-1.1 -0.5,-2.4 3.3,-2.6 3.3,-2.6 0,0 3,-0.5 1,-3 -1.5,-1.9 0.5,-3.2 2,-4.1 1,-0.4 2,-0.9 3.1,-1.4 z"
         id="path86" />
      <path
         d="m 474.3,616.7 c 0,0 1.6,0 1.6,2.5 0.1,2.5 2.9,2.3 2.6,-0.3 -0.2,-2.6 0.8,-2.9 1.6,-2.9 0,0 1.5,-0.3 1.4,2.2 -0.1,2.5 2.9,3.5 2.9,-0.6 0,0 -0.1,-1.9 1.5,-2 1.6,0 2.6,2.5 0.6,7 0,0 -1.7,2.9 -4.4,1.5 -2.7,-1.4 -5.1,0.3 -5.1,0.3 0,0 -3.2,2.2 -4.1,-2.9 -0.7,-4.9 1.2,-4.6 1.4,-4.8 z"
         id="path87" />
    </g>
  </g>
</svg>
