<svg xmlns="http://www.w3.org/2000/svg" width="24" height="24"><path fill="#fdca34" fill-rule="evenodd" d="M11.25 2.06a7 7 0 0 0-5.91 4.89c-.22.66-.26 1-.27 1.95-.01 1.4.11 1.96.7 3.2.39.8.59 1.08 1.32 1.8a7 7 0 0 0 3.25 1.9 6.96 6.96 0 0 0 4.73-13.03 9 9 0 0 0-1.37-.55c-.52-.12-2.01-.22-2.45-.16m-.58 1.09a6.3 6.3 0 0 0-4.03 3.2 6.06 6.06 0 0 0 3.35 8.35c.6.22.8.24 2.06.24 1.34 0 1.43-.02 2.13-.31a6 6 0 0 0 3.74-4.53c.14-.77.04-2.33-.21-3.03a6.1 6.1 0 0 0-7.04-3.92m.87 2.2c-.42.29-.38.89.07 1.25.2.15.2.16 0 .74-.36 1.04-.88 1.75-1.38 1.9-.42.13-1.04-.13-1.62-.69-.53-.5-.55-.54-.43-.8.22-.48-.11-.9-.6-.77-.43.1-.46.76-.04.92.19.07.26.28.55 1.66.18.88.36 1.7.4 1.84l.08.25 3.47.03c2.72.02 3.47 0 3.5-.1.02-.07.19-.9.36-1.83.3-1.57.35-1.72.61-1.93q.5-.4.1-.75c-.2-.2-.52-.22-.69-.05-.15.15-.16.6-.01.75.13.13-.36.72-.95 1.15-.46.33-1.12.38-1.52.12q-.46-.32-1-1.64l-.25-.62.25-.23q.54-.52.19-1.03a.84.84 0 0 0-1.1-.18m-2.96 6.54c-.03.04-.02.27.02.52l.06.45 3.3.03c1.8.01 3.32-.01 3.37-.06.04-.04.1-.29.14-.55l.07-.47h-3.46c-1.9 0-3.48.03-3.5.07"/></svg>