<?xml version="1.0" encoding="UTF-8" standalone="no"?>
<svg
   viewBox="0 0 24 24"
   width="24pt"
   height="24pt"
   version="1.1"
   id="svg1"
   xml:space="preserve"
   xmlns="http://www.w3.org/2000/svg"
   xmlns:svg="http://www.w3.org/2000/svg"><defs
     id="defs1"><clipPath
       id="_clipPath_L1K9hkX90WdHKWSgkx5L3yqvN2BFAMw1"><rect
         width="24"
         height="24"
         id="rect1" /></clipPath></defs><g
     style="isolation:isolate"
     id="g1"
     transform="matrix(1.1020144,0,0,1.1020144,9.808198,-5.6451533)"><g
       clip-path="url(#_clipPath_L1K9hkX90WdHKWSgkx5L3yqvN2BFAMw1)"
       id="g7"
       transform="translate(-10.011095,4.0395649)"><clipPath
         id="_clipPath_1JTrolc0antwaWY7QR0TtBXYTAT8DWb4"><rect
           x="0"
           y="0"
           width="24"
           height="24"
           fill="#ffffff"
           id="rect2" /></clipPath><clipPath
         id="_clipPath_KfAJvKLF839VGyOIbhQWrM5vpvKytL1A"><rect
           x="2.98"
           y="1"
           width="18.040001"
           height="22"
           fill="#ffffff"
           id="rect4" /></clipPath><g
         clip-path="url(#_clipPath_KfAJvKLF839VGyOIbhQWrM5vpvKytL1A)"
         id="g6"><g
           id="g5"><circle
             vector-effect="non-scaling-stroke"
             cx="12"
             cy="10"
             r="7"
             fill="#ffffff"
             id="circle4" /></g></g><path
         d="m 8.319,10.669 c 0.146,-0.116 0.334,-0.15 0.511,-0.138 0.126,0.01 0.263,0.043 0.354,0.145 0.101,0.118 0.1,0.341 -0.031,0.432 C 9.059,11.17 8.915,11.16 8.851,11.056 8.792,10.968 8.807,10.841 8.873,10.762 8.822,10.75 8.769,10.734 8.717,10.751 8.616,10.775 8.538,10.878 8.541,10.99 v 0.514 l 0.489,0.001 v 0.224 H 8.541 v 1.331 c -0.003,0.058 0.015,0.137 0.078,0.146 0.105,0.01 0.212,0.001 0.319,0.004 v 0.235 H 7.859 V 13.21 c 0.069,-0.001 0.139,0.003 0.208,-0.002 0.057,-0.005 0.095,-0.07 0.091,-0.129 l 0.001,-1.35 H 7.883 v -0.225 h 0.281 v -0.51 c 0,-0.127 0.06,-0.251 0.155,-0.325 z m 6.069,-0.028 0.692,-0.064 v 1.211 c 0.086,-0.139 0.205,-0.258 0.353,-0.313 0.216,-0.078 0.472,-0.051 0.652,0.105 0.11,0.096 0.174,0.24 0.175,0.392 v 1.131 c -0.001,0.053 0.043,0.109 0.095,0.106 0.065,0.003 0.13,0 0.195,0.001 v 0.235 c -0.311,0 -0.622,0 -0.933,0 V 13.21 c 0.065,-0.003 0.131,0.007 0.196,-0.006 0.05,-0.014 0.074,-0.072 0.07,-0.124 l -10e-4,-1.022 c 0.003,-0.1 -0.037,-0.205 -0.119,-0.257 -0.262,-0.174 -0.673,0.039 -0.682,0.38 l -10e-4,0.857 c 10e-4,0.058 10e-4,0.138 0.061,0.164 0.078,0.016 0.159,0.005 0.239,0.008 v 0.235 H 14.413 V 13.21 c 0.073,-0.003 0.147,0.008 0.22,-0.007 0.062,-0.024 0.069,-0.105 0.07,-0.166 v -2.043 c 0,-0.047 -0.003,-0.107 -0.05,-0.127 -0.088,-0.009 -0.176,-0.002 -0.265,-0.004 z M 9.199,11.509 9.89,11.44 v 0.386 c 0.059,-0.143 0.159,-0.271 0.295,-0.333 0.215,-0.097 0.482,-0.054 0.657,0.113 -0.058,0.157 -0.17,0.293 -0.316,0.358 -0.142,0.067 -0.302,0.062 -0.451,0.031 0.068,-0.19 0.25,-0.297 0.428,-0.332 -0.173,-0.021 -0.356,0.047 -0.466,0.195 -0.096,0.132 -0.153,0.301 -0.147,0.47 l 10e-4,0.751 c -0.002,0.056 0.025,0.123 0.083,0.128 0.114,0.007 0.228,10e-4 0.342,0.003 v 0.235 c -0.366,0 -0.732,0 -1.098,0 V 13.21 C 9.289,13.208 9.36,13.215 9.431,13.206 9.483,13.195 9.51,13.135 9.508,13.081 l 0.001,-1.256 c 0.004,-0.041 -0.02,-0.088 -0.06,-0.094 -0.083,-0.006 -0.167,0 -0.25,-0.002 z m 1.893,0.126 c 0.224,-0.196 0.536,-0.24 0.813,-0.173 0.191,0.045 0.357,0.173 0.458,0.354 0.119,0.209 0.149,0.459 0.155,0.7 -0.447,10e-4 -0.895,0 -1.342,10e-4 0.006,0.223 0.048,0.485 0.237,0.616 0.226,0.147 0.558,0.113 0.73,-0.113 0.055,-0.067 0.088,-0.15 0.116,-0.232 h 0.236 c -0.003,0.165 -0.083,0.316 -0.187,0.432 -0.162,0.184 -0.398,0.284 -0.632,0.278 -0.25,0.007 -0.513,-0.08 -0.685,-0.283 -0.19,-0.219 -0.252,-0.533 -0.237,-0.824 0.014,-0.286 0.125,-0.577 0.338,-0.756 m 0.23,0.209 c -0.093,0.114 -0.132,0.267 -0.133,0.417 h 0.879 c 0,-0.179 -0.037,-0.385 -0.18,-0.496 -0.171,-0.126 -0.43,-0.091 -0.566,0.079 z m 1.551,-0.206 c 0.119,-0.125 0.285,-0.182 0.447,-0.199 0.218,-0.025 0.45,0.023 0.626,0.17 l 0.069,-0.178 h 0.18 v 0.705 c -0.067,0 -0.134,0 -0.201,-10e-4 -0.031,-0.142 -0.1,-0.285 -0.222,-0.359 -0.125,-0.075 -0.273,-0.093 -0.413,-0.077 -0.08,0.011 -0.163,0.039 -0.218,0.105 -0.066,0.076 -0.07,0.207 -0.006,0.286 0.042,0.054 0.104,0.08 0.166,0.095 l 0.609,0.158 c 0.136,0.036 0.265,0.124 0.335,0.257 0.074,0.145 0.075,0.324 0.025,0.478 -0.063,0.187 -0.223,0.319 -0.395,0.376 -0.301,0.098 -0.646,0.04 -0.896,-0.171 -0.014,0.054 -0.028,0.108 -0.044,0.162 h -0.191 v -0.741 h 0.198 c 0.02,0.133 0.071,0.263 0.164,0.357 0.122,0.129 0.298,0.18 0.466,0.174 0.117,-0.008 0.246,-0.039 0.323,-0.143 0.072,-0.094 0.067,-0.257 -0.033,-0.326 -0.115,-0.078 -0.255,-0.087 -0.382,-0.129 -0.199,-0.063 -0.42,-0.08 -0.587,-0.223 -0.218,-0.183 -0.215,-0.575 -0.02,-0.776 z"
         fill="#4c9e45"
         id="path6" /><path
         d="M 7.026,7.122 C 7.18,7.025 7.363,6.995 7.539,7.001 7.711,7.011 7.895,7.06 8.018,7.198 8.111,7.301 8.142,7.45 8.143,7.59 L 8.142,8.299 C 8.143,8.382 8.147,8.468 8.185,8.542 8.21,8.601 8.254,8.648 8.282,8.705 8.298,8.734 8.284,8.768 8.261,8.786 L 8.033,9 C 8.006,9.027 7.963,9.051 7.929,9.021 7.851,8.961 7.796,8.876 7.743,8.791 7.643,8.897 7.528,8.999 7.386,9.027 7.23,9.059 7.057,9.059 6.917,8.968 6.8,8.894 6.729,8.756 6.709,8.614 6.687,8.451 6.704,8.276 6.788,8.136 6.867,8.003 6.996,7.912 7.135,7.867 7.31,7.81 7.493,7.799 7.673,7.777 7.671,7.665 7.693,7.53 7.609,7.444 7.481,7.326 7.241,7.388 7.196,7.571 7.183,7.605 7.175,7.666 7.13,7.662 7.027,7.656 6.925,7.639 6.823,7.629 6.791,7.628 6.755,7.609 6.754,7.57 6.773,7.386 6.877,7.215 7.026,7.122 M 7.265,8.195 C 7.169,8.308 7.157,8.508 7.254,8.626 7.356,8.731 7.528,8.671 7.596,8.55 7.689,8.41 7.674,8.231 7.673,8.069 7.532,8.07 7.373,8.084 7.265,8.195 Z m 4.084,-1.063 c 0.16,-0.108 0.355,-0.139 0.541,-0.131 0.179,0.013 0.374,0.069 0.491,0.226 0.09,0.118 0.101,0.277 0.104,0.423 l 0.001,0.733 c 10e-4,0.08 0.029,0.157 0.072,0.221 0.03,0.048 0.073,0.092 0.071,0.155 L 12.368,9.003 C 12.342,9.031 12.298,9.048 12.266,9.02 12.192,8.957 12.133,8.875 12.082,8.789 11.983,8.9 11.864,9 11.72,9.029 11.544,9.063 11.34,9.057 11.199,8.922 11.056,8.79 11.022,8.57 11.046,8.378 11.069,8.188 11.177,8.021 11.334,7.932 11.543,7.81 11.787,7.808 12.017,7.776 12.012,7.664 12.032,7.529 11.948,7.445 11.82,7.325 11.578,7.389 11.534,7.573 11.525,7.609 11.51,7.667 11.465,7.663 11.361,7.654 11.257,7.64 11.153,7.627 11.123,7.626 11.095,7.602 11.092,7.568 11.114,7.389 11.208,7.229 11.349,7.132 m 0.308,1.018 c -0.142,0.092 -0.171,0.324 -0.075,0.463 0.086,0.106 0.249,0.077 0.325,-0.026 0.12,-0.14 0.109,-0.342 0.11,-0.518 -0.123,0 -0.253,0.01 -0.36,0.081 z M 9.197,7.061 C 9.323,7.003 9.474,7.001 9.6,7.062 9.711,7.117 9.78,7.234 9.83,7.349 9.881,7.201 9.997,7.08 10.139,7.039 10.318,6.983 10.531,7.034 10.653,7.192 10.741,7.3 10.755,7.45 10.758,7.588 10.75,8.041 10.757,8.494 10.754,8.948 10.76,8.98 10.734,8.999 10.717,9.02 10.592,9.016 10.468,9.022 10.344,9.017 10.302,9.012 10.293,8.963 10.294,8.926 L 10.295,7.965 C 10.297,7.843 10.308,7.717 10.276,7.599 10.23,7.459 10.043,7.447 9.955,7.546 9.879,7.619 9.874,7.736 9.87,7.837 L 9.869,8.945 C 9.871,8.965 9.865,8.984 9.852,8.999 9.839,9.013 9.821,9.02 9.802,9.019 H 9.474 C 9.456,9.02 9.438,9.012 9.426,8.998 9.414,8.984 9.408,8.965 9.41,8.946 V 7.797 C 9.408,7.713 9.4,7.622 9.354,7.55 9.296,7.463 9.173,7.46 9.093,7.512 8.998,7.585 8.987,7.725 8.984,7.84 8.987,8.201 8.975,8.562 8.98,8.924 8.982,8.961 8.978,9.018 8.932,9.017 8.816,9.021 8.701,9.018 8.585,9.019 8.548,9.023 8.518,8.985 8.525,8.946 V 7.129 C 8.517,7.082 8.563,7.049 8.602,7.057 8.711,7.062 8.821,7.049 8.929,7.064 L 8.954,7.09 C 8.968,7.178 8.957,7.269 8.959,7.358 9.004,7.234 9.081,7.116 9.197,7.061 Z m 5.644,-0.018 c 0.209,-0.056 0.445,-0.023 0.618,0.121 0.171,0.14 0.266,0.361 0.307,0.584 0.053,0.297 0.034,0.619 -0.1,0.889 C 15.58,8.814 15.433,8.962 15.254,9.023 15.045,9.093 14.802,9.063 14.624,8.92 14.451,8.782 14.354,8.56 14.313,8.337 14.263,8.048 14.278,7.739 14.391,7.47 14.476,7.267 14.638,7.098 14.841,7.043 Z m 0.114,0.371 c -0.057,0.024 -0.097,0.08 -0.12,0.14 -0.049,0.123 -0.052,0.259 -0.057,0.39 0,0.159 10e-4,0.321 0.035,0.477 0.021,0.09 0.057,0.189 0.137,0.234 0.097,0.047 0.21,0.009 0.265,-0.089 0.08,-0.142 0.08,-0.315 0.086,-0.476 C 15.298,7.903 15.299,7.709 15.235,7.532 15.195,7.415 15.058,7.366 14.955,7.414 Z m 1.791,-0.366 c 0.18,-0.066 0.407,-0.032 0.532,0.134 0.105,0.135 0.114,0.321 0.121,0.489 L 17.4,8.945 c 0.003,0.033 -0.021,0.076 -0.055,0.073 -0.116,0.002 -0.232,0.002 -0.348,0 C 16.963,9.02 16.936,8.982 16.941,8.948 L 16.94,7.797 C 16.936,7.702 16.928,7.597 16.865,7.525 16.803,7.463 16.702,7.457 16.634,7.509 16.577,7.547 16.544,7.614 16.525,7.682 16.488,7.807 16.496,7.94 16.495,8.07 V 8.946 C 16.497,8.982 16.472,9.021 16.436,9.018 16.32,9.019 16.204,9.021 16.089,9.017 16.055,9.02 16.032,8.978 16.036,8.945 V 7.131 C 16.034,7.11 16.041,7.089 16.055,7.075 16.07,7.06 16.089,7.054 16.109,7.058 c 0.109,0.001 0.22,-0.006 0.33,0.004 l 0.026,0.029 c 0.013,0.098 0.003,0.197 0.005,0.295 0.054,-0.14 0.137,-0.284 0.276,-0.338 z m -3.829,0.004 1.122,0.001 c 0.048,-0.004 0.068,0.052 0.062,0.096 -0.005,0.1 0.022,0.215 -0.043,0.3 L 13.46,8.371 c 0.191,0.004 0.385,0.027 0.56,0.117 0.048,0.023 0.11,0.056 0.109,0.123 0.003,0.098 0.002,0.196 0.001,0.294 10e-4,0.023 -0.01,0.045 -0.028,0.057 -0.019,0.012 -0.041,0.012 -0.06,0 -0.356,-0.194 -0.777,-0.194 -1.133,0 C 12.861,9 12.808,8.937 12.82,8.884 12.83,8.744 12.79,8.589 12.858,8.461 L 13.512,7.449 C 13.319,7.448 13.127,7.451 12.935,7.448 12.901,7.451 12.879,7.414 12.883,7.381 12.882,7.29 12.88,7.198 12.884,7.107 c 0,-0.024 0.022,-0.037 0.033,-0.055 z m 0.397,2.056 c 0.169,-0.019 0.346,-0.02 0.508,0.044 0.075,0.026 0.061,0.125 0.062,0.192 -0.016,0.236 -0.09,0.469 -0.21,0.668 -0.053,0.079 -0.109,0.162 -0.187,0.215 -0.028,0.022 -0.078,-0.006 -0.062,-0.045 C 13.494,9.976 13.581,9.772 13.61,9.553 13.613,9.501 13.623,9.437 13.586,9.396 13.55,9.367 13.504,9.355 13.46,9.349 13.252,9.324 13.045,9.365 12.838,9.378 12.798,9.359 12.818,9.307 12.847,9.288 12.983,9.182 13.149,9.13 13.314,9.108 Z M 8.223,9.229 c 0.025,-0.025 0.059,-0.008 0.084,0.007 0.742,0.463 1.587,0.726 2.441,0.786 0.854,0.062 1.719,-0.107 2.508,-0.464 0.083,-0.048 0.18,0.079 0.101,0.15 -0.244,0.202 -0.523,0.352 -0.81,0.471 -0.298,0.122 -0.609,0.208 -0.925,0.256 -0.41,0.063 -0.829,0.062 -1.239,-0.007 C 9.59,10.299 8.835,9.915 8.241,9.336 8.209,9.314 8.186,9.256 8.223,9.229 Z"
         fill="#000000"
         id="path7" /></g></g></svg>
