<svg xmlns="http://www.w3.org/2000/svg" width="24" height="24"><path fill="#c9691f" fill-rule="evenodd" d="M7.85 3.69c-.38.17-.81.58-1.04.99-.08.15-.11.14-.29-.08-.25-.3-.8-.32-1.2-.04-.34.26-.62.8-.62 1.2 0 .31-.01.32-.28.22-.39-.15-.8-.03-.94.28-.11.25-.1.37.19 1.35q.04.15-.32.38-.67.4.02.86c.26.16.32.26.33.56 0 .2.07.42.14.49.13.1.1.17-.14.51-.16.22-.26.47-.23.57s-.03.24-.11.31c-.22.18-.2.48.03.56.11.03.21.16.23.28q.02.22.3.25.26.04.22.16c-.06.15.21.46.4.46.08 0 .2.07.26.15.07.08.2.15.28.15s.24.07.34.17c.1.09.31.16.48.15.16 0 .32.04.35.09.08.11.55.12.74 0 .07-.05.25-.04.41.02.22.08.33.07.54-.06.14-.1.36-.17.5-.17s.29-.06.33-.14a.5.5 0 0 1 .28-.17c.3-.06.42-.8.18-1.15a1 1 0 0 1-.15-.55c.02-.15-.02-.3-.07-.34-.06-.03-.18-.2-.27-.37l-.16-.3.3.07c.44.1.72-.09.72-.46 0-.3 0-.3.22-.15.12.09.35.16.5.16.73 0 .27-1.24-.63-1.7-.37-.2-.39-.23-.39-.69q0-.48-.2-.74l-.2-.25.32-.1c.18-.07.55-.14.83-.17a6 6 0 0 0 1.77-.32c.43-.17.58-.38.58-.82 0-.74-.94-1.23-1.98-1.03a4 4 0 0 0-.73.17c-.13.05-.15 0-.11-.23.09-.63-.87-.93-1.73-.53m10.6 1.87c-.08.08-.15.2-.15.24q-.02.08-.15.04c-.08-.04-.26.01-.4.1-.24.16-.25.21-.25 1.13 0 .75-.03.94-.12.85-.2-.2-.58-.14-.83.14l-.25.27v-.55q.02-1.04-.54-.57c-.23.18-.26.27-.26.87 0 .64-.02.68-.3.84-.17.1-.35.29-.42.43q-.1.26-.4.25-.28.01-.5.25c-.12.14-.3.25-.39.25q-.31 0-.49.57-.09.32-.1-.73c0-1.06-.1-1.31-.43-1.18-.2.08-.71.84-.92 1.38-.16.4-.17.41-.6.38-.35-.03-.45 0-.59.2-.26.36-.2.9.14 1.36.33.47.35.55.19 1.02-.1.27-.13.3-.2.16-.12-.19-.7-.22-.87-.04-.07.07-.12.27-.12.45 0 .74.93 1.11 1.45.6.22-.23.45-.82.45-1.2q.01-.16.1-.17c.21 0 .5.2.5.35 0 .36.66.01.91-.48q.2-.39.35-.33c.09.03.28-.01.45-.1.24-.12.29-.2.29-.51 0-.29.03-.34.12-.25.2.2.55.14.76-.13.11-.14.3-.25.41-.25.12 0 .32-.1.44-.23.12-.12.34-.28.49-.34.14-.07.3-.21.33-.32q.07-.21.3-.21c.24 0 .65-.31.65-.5q.02-.06.18-.04c.17.05.62-.29.62-.46q.02-.1.25-.1c.25 0 .65-.3.65-.5 0-.05.13-.1.3-.1q.3 0 .54-.27a.8.8 0 0 1 .58-.27c.29 0 .33-.05.36-.3q.06-.29-.17-.33c-.17-.04-.21-.13-.21-.5 0-.4-.02-.43-.25-.43-.14 0-.28.07-.31.15-.08.2-.34 0-.34-.25 0-.19-.74-.8-.96-.8-.07 0-.2.07-.28.16M10.95 7c-.03.05-.21.1-.4.1-.18 0-.4.07-.5.16-.61.62.03 1.58 1.06 1.59h.52l.13-.5c.18-.7.17-1.09-.04-1.28-.2-.19-.67-.23-.77-.07m-3.6.46c-.17.17-.17.18.03.25q.2.09.27.4.07.34.16.18c.14-.22.1-.55-.1-.8-.16-.2-.18-.2-.35-.03"/></svg>