<?xml version="1.0" encoding="UTF-8" standalone="no"?>
<svg
   viewBox="0 0 24 24"
   width="24pt"
   height="24pt"
   version="1.1"
   id="svg1"
   sodipodi:docname="applegreen.svg"
   xml:space="preserve"
   inkscape:version="1.3 (0e150ed6c4, 2023-07-21)"
   inkscape:export-filename="applegreen.svg"
   inkscape:export-xdpi="96"
   inkscape:export-ydpi="96"
   xmlns:inkscape="http://www.inkscape.org/namespaces/inkscape"
   xmlns:sodipodi="http://sodipodi.sourceforge.net/DTD/sodipodi-0.dtd"
   xmlns="http://www.w3.org/2000/svg"
   xmlns:svg="http://www.w3.org/2000/svg"><defs
     id="defs1" /><sodipodi:namedview
     id="namedview1"
     pagecolor="#ffffff"
     bordercolor="#000000"
     borderopacity="0.25"
     inkscape:showpageshadow="2"
     inkscape:pageopacity="0.0"
     inkscape:pagecheckerboard="0"
     inkscape:deskcolor="#d1d1d1"
     inkscape:document-units="pt"
     inkscape:zoom="8.1648736"
     inkscape:cx="27.434595"
     inkscape:cy="2.8781829"
     inkscape:window-width="1920"
     inkscape:window-height="974"
     inkscape:window-x="-11"
     inkscape:window-y="1609"
     inkscape:window-maximized="1"
     inkscape:current-layer="svg1" /><style
     type="text/css"
     id="style1">&#10;	.st0{fill:#2E2E2E;}&#10;	.st1{fill:#FFFFFF;}&#10;	.st2{fill:#6DBB4F;}&#10;	.st3{fill:#51742C;}&#10;</style><g
     id="g1"
     transform="matrix(0.07616373,0,0,0.07616373,1.4140649,-31.224117)"><g
       id="g3"
       transform="matrix(0.478805,0,0,0.478805,64.838745,407.56093)"><g
         id="g2">&#10;	<path
   class="st1"
   d="m 47.8,282.2 c -6.9,0 -12,6.5 -12,16.2 0,9.4 5.2,15.8 12,15.8 7.3,0 12.4,-6.1 12.4,-15.8 0,-9.9 -5.2,-16.2 -12.4,-16.2 m 1.5,-7.5 c 11.1,0 20.4,10.2 20.4,23.7 0,13.6 -8.6,23.3 -19.9,23.3 -5.6,0 -10.4,-2.3 -13.5,-6.4 V 340 h -8.5 v -63.9 h 7.5 v 5.6 h 0.2 c 4,-4.8 8.2,-7 13.8,-7"
   id="path1-1" />&#10;	<path
   class="st1"
   d="m 96.3,282.2 c -6.9,0 -12,6.5 -12,16.2 0,9.4 5.2,15.8 12,15.8 7.3,0 12.4,-6.1 12.4,-15.8 0,-9.9 -5.2,-16.2 -12.4,-16.2 m 1.4,-7.5 c 11.1,0 20.4,10.2 20.4,23.7 0,13.6 -8.6,23.3 -19.9,23.3 -5.6,0 -10.4,-2.3 -13.5,-6.4 V 340 h -8.5 v -63.9 h 7.5 v 5.6 h 0.2 c 4,-4.8 8.3,-7 13.8,-7"
   id="path2" />&#10;</g><rect
         x="125.1"
         y="256.39999"
         class="st1"
         width="8.3999996"
         height="63.900002"
         id="rect2" /><g
         id="g12">&#10;	<path
   class="st1"
   d="m 160.6,282 c -6,0 -10.3,4.4 -10.9,11.9 H 171 C 170.4,286.3 166.6,282 160.6,282 m -11.1,18 c 0.3,9.1 5.2,14.5 12.3,14.5 4.3,0 7.9,-1.4 11.5,-4.3 l 4.1,5.1 c -4.3,4.5 -9.5,6.5 -16.1,6.5 -12.1,0 -20.7,-9.3 -20.7,-23.2 0,-14.5 8.3,-23.8 20.3,-23.8 10.9,0 18.7,8.5 18.7,21.9 v 3.3 z"
   id="path3" />&#10;	<path
   class="st1"
   d="m 219.4,293.7 c 0,-1.3 -0.1,-2.5 -0.5,-3.6 -1.5,-4.7 -5.3,-8.6 -11.2,-8.6 -7.7,0 -13.1,6.5 -13.1,16.8 0,8.6 4.5,15.9 13,15.9 5,0 9.5,-3.1 11.1,-8.3 0.5,-1.3 0.6,-2.8 0.6,-4.3 v -7.9 z m 8.5,20.3 c 0,10.2 -2.1,16.3 -6.3,20.2 -4.4,3.9 -11.1,5.3 -16.7,5.3 -5.3,0 -11.1,-1.3 -14.7,-3.6 l 2,-6.2 c 2.9,1.9 7.5,3.6 12.9,3.6 8.2,0 14.2,-4.3 14.2,-15.5 V 313 h -0.2 c -2.4,4.1 -7.2,7.4 -14,7.4 -10.9,0 -18.8,-9.3 -18.8,-21.6 0,-15 9.7,-23.3 20,-23.3 7.7,0 11.7,3.9 13.8,7.6 h 0.2 l 0.3,-6.6 h 7.6 c -0.3,3.1 -0.4,6.7 -0.4,12 V 314 Z"
   id="path4" />&#10;	<path
   class="st1"
   d="m 257,284.6 c -1.5,-0.9 -2.8,-1.4 -4.2,-1.4 -3.5,0 -6.6,2.6 -9.3,7.7 v 29.6 h -8.6 v -44.7 h 7.5 v 8.7 h 0.2 c 3.5,-6.6 6.7,-10 10.6,-10 2.4,0 4.4,0.9 6.4,2.8 z"
   id="path5" />&#10;	<path
   class="st1"
   d="m 281.4,281.8 c -6.1,0 -10.4,4.4 -11,12 h 21.5 c -0.6,-7.6 -4.5,-12 -10.5,-12 m -11.3,18.1 c 0.3,9.2 5.3,14.6 12.4,14.6 4.3,0 8,-1.4 11.6,-4.3 l 4.1,5.2 c -4.3,4.5 -9.6,6.5 -16.3,6.5 -12.2,0 -20.9,-9.4 -20.9,-23.5 0,-14.6 8.4,-24 20.5,-24 11.1,0 18.8,8.5 18.8,22.1 v 3.4 z"
   id="path6" />&#10;	<path
   class="st1"
   d="m 325.7,281.8 c -6.1,0 -10.4,4.4 -11,12 h 21.5 c -0.6,-7.6 -4.5,-12 -10.5,-12 m -11.3,18.1 c 0.3,9.2 5.3,14.6 12.4,14.6 4.3,0 8,-1.4 11.6,-4.3 l 4.1,5.2 c -4.3,4.5 -9.6,6.5 -16.3,6.5 -12.2,0 -20.9,-9.4 -20.9,-23.5 0,-14.6 8.4,-24 20.5,-24 11,0 18.8,8.5 18.8,22.1 v 3.4 z"
   id="path7" />&#10;	<path
   class="st1"
   d="m 379.5,320.5 v -25.6 c 0,-8.5 -3.4,-12.8 -10,-12.8 -4.1,0 -7.6,2.3 -10.2,6.9 v 31.5 h -8.6 v -44.7 h 7.5 v 6.7 h 0.2 c 3.6,-5.5 7.9,-8 13.6,-8 9.8,0 16.2,7.4 16.2,19.4 v 26.6 z"
   id="path8" />&#10;	<path
   class="st2"
   d="m -28.1,241.1 c -3.2,0 -6.4,0.3 -9.4,1 -0.2,0 -0.3,0 -0.4,0.1 4.7,9 4.8,17.6 4.5,21.9 -0.1,1.7 -0.3,2.7 -0.3,2.7 0,0 -1.1,0.1 -2.8,-0.1 -4.9,-0.5 -15.3,-2.6 -23.9,-12.4 -0.2,0.2 -0.3,0.3 -0.5,0.5 -8.2,8.3 -13.3,19.7 -13.3,32.3 0,25.4 20.7,45.9 46.2,45.9 5,0 9.9,-0.8 14.4,-2.3 5,-1.7 9.7,-4.2 13.8,-7.3 2.1,-1.6 4.1,-3.5 5.9,-5.4 H 2.2 v 0 -6.4 H 2 c -3.2,5.1 -7.4,7.8 -12.6,7.8 -3.3,0 -6.2,-1 -8.4,-2.8 -2.9,-2.3 -4.6,-5.9 -4.6,-10.2 0,-8.2 6.5,-13.6 17.1,-13.6 2.4,0 5.1,0.3 7.8,1 v -4 c 0,-4.3 -3.4,-7.2 -9.3,-7.2 -3.3,0 -6.4,1.2 -9.3,3.5 l -2.2,-2.7 -2.2,-2.7 v 0 c 2.6,-2.4 5.6,-3.9 9,-4.6 h 0.1 c 0.1,0 0.1,0 0.2,0 1.5,-0.3 3.1,-0.4 4.8,-0.4 v 0 c 11,0 16.9,5.8 16.9,16.7 v 21.9 0 0 c 2.2,-3 4.1,-6.2 5.5,-9.6 0.6,-1.4 1.1,-2.8 1.5,-4.3 1.3,-4.2 2,-8.7 2,-13.3 -0.2,-25.5 -20.8,-46 -46.4,-46"
   id="path9" />&#10;	<path
   class="st2"
   d="m -8.5,312.7 c 2.4,0 4.5,-0.9 6.2,-2.5 2.2,-2.1 3.6,-5.4 3.6,-9.4 v -1.6 c -2.8,-0.8 -5.4,-1.1 -7.4,-1.1 -2.7,0 -5,0.7 -6.6,2 -1.6,1.3 -2.5,3.1 -2.5,5.4 0,0.4 0,0.8 0.1,1.2 0.4,3.7 3,6 6.6,6"
   id="path10" />&#10;	<path
   class="st3"
   d="m -43.8,242.6 c -7.6,-9.1 -19.8,-11.6 -19.8,-11.6 0,0 0.2,12.3 7.8,21.4 7.7,9.2 19.8,11.6 19.8,11.6 0,0 -0.2,-12.3 -7.8,-21.4"
   id="path11" />&#10;	<path
   class="st1"
   d="m -12.7,300.2 c 1.6,-1.3 3.8,-2 6.6,-2 2,0 4.6,0.3 7.4,1.1 v 1.6 c 0,4 -1.4,7.3 -3.6,9.4 -1.7,1.6 -3.8,2.5 -6.2,2.5 -3.6,0 -6.2,-2.3 -6.6,-6 0,-0.4 -0.1,-0.7 -0.1,-1.1 0,-2.3 0.9,-4.2 2.5,-5.5 m 27.3,4.4 c -1.4,3.4 -3.3,6.7 -5.5,9.6 v 0 0 -21.9 c 0,-10.9 -5.9,-16.7 -16.9,-16.7 v 0 c -1.7,0 -3.3,0.1 -4.8,0.4 0,0 -0.1,0 -0.2,0 h -0.1 c -3.4,0.7 -6.4,2.2 -9,4.6 v 0 l 2.2,2.7 2.2,2.7 c 2.8,-2.3 5.9,-3.5 9.3,-3.5 5.9,0 9.3,2.9 9.3,7.2 v 4 c -2.7,-0.7 -5.4,-1 -7.8,-1 -10.5,0 -17.1,5.4 -17.1,13.6 0,4.3 1.8,7.9 4.6,10.2 2.2,1.8 5.1,2.8 8.4,2.8 5.1,0 9.3,-2.6 12.6,-7.8 H 2 v 6.4 0 h 3.9 c -1.8,2 -3.8,3.8 -5.9,5.5 -4.1,3.2 -8.8,5.7 -13.8,7.3 -4.5,1.5 -9.4,2.3 -14.4,2.3 -25.5,0 -46.2,-20.6 -46.2,-45.9 0,-12.6 5.1,-24 13.3,-32.3 0.2,-0.2 0.3,-0.3 0.5,-0.5 8.6,9.8 19,11.9 23.9,12.4 1.8,0.2 2.8,0.1 2.8,0.1 0,0 0.2,-1 0.3,-2.7 0.3,-4.3 0.2,-12.9 -4.5,-21.9 0.1,0 0.3,-0.1 0.4,-0.1 3,-0.6 6.2,-1 9.4,-1 25.5,0 46.2,20.6 46.2,45.9 0,4.6 -0.7,9.1 -2,13.3 -0.2,1.5 -0.7,2.9 -1.3,4.3 m -58.4,-62 c 7.6,9.1 7.8,21.4 7.8,21.4 0,0 -12.1,-2.5 -19.7,-11.6 -7.6,-9.1 -7.9,-21.4 -7.9,-21.4 0,0 12.2,2.5 19.8,11.6 m 15.7,-7.7 c -4.8,0 -9.4,0.6 -13.8,1.8 -4.1,-4 -8.7,-6.6 -12.5,-8.3 -4.5,-2 -7.9,-2.7 -8.1,-2.7 l -6.7,-1.4 0.1,6.8 c 0,0.3 0.1,3.7 1.2,8.5 0.7,2.9 1.8,6.3 3.6,9.8 -9.9,9.5 -16,22.7 -16,37.4 0,28.6 23.4,51.9 52.2,51.9 28.9,0 52.3,-23.2 52.3,-51.9 0,-28.7 -23.4,-51.9 -52.3,-51.9"
   id="path12" />&#10;</g></g></g></svg>
