<?xml version="1.0" encoding="UTF-8" standalone="no"?>
<svg
   viewBox="0 0 24 24"
   width="24pt"
   height="24pt"
   version="1.1"
   id="svg1"
   sodipodi:docname="argos.svg"
   xml:space="preserve"
   inkscape:version="1.4 (86a8ad7, 2024-10-11)"
   xmlns:inkscape="http://www.inkscape.org/namespaces/inkscape"
   xmlns:sodipodi="http://sodipodi.sourceforge.net/DTD/sodipodi-0.dtd"
   xmlns="http://www.w3.org/2000/svg"
   xmlns:svg="http://www.w3.org/2000/svg"><defs
     id="defs1" /><sodipodi:namedview
     id="namedview1"
     pagecolor="#ffffff"
     bordercolor="#000000"
     borderopacity="0.25"
     inkscape:showpageshadow="2"
     inkscape:pageopacity="0.0"
     inkscape:pagecheckerboard="0"
     inkscape:deskcolor="#d1d1d1"
     inkscape:document-units="pt"
     inkscape:zoom="16.241359"
     inkscape:cx="17.948006"
     inkscape:cy="18.009577"
     inkscape:window-width="1920"
     inkscape:window-height="974"
     inkscape:window-x="-11"
     inkscape:window-y="402"
     inkscape:window-maximized="1"
     inkscape:current-layer="svg1" /><g
     id="g1"
     transform="matrix(0.04259965,0,0,0.04259965,4.0935354,7.328287)"><path
       fill="none"
       stroke="#ffffff"
       stroke-width="2"
       d="m 285.521,73.698 c -3.519,12.287 -10.253,19.812 -22.133,19.729 h -0.31 C 250.2,93.095 253.056,79.07 257.184,66.977 c 4.573,-13.39 12.137,-18.311 21.135,-18.08 13.342,0.35 10.761,12.329 7.202,24.801 z M 283.06,32.456 c -17.249,-1.246 -38.967,5.466 -48.316,31.856 -12.457,35.151 11.301,44.995 25.685,45.413 7.148,0.205 34.545,1.969 46.328,-32.004 C 317.286,47.334 299.603,33.644 283.06,32.456 Z M 73.019,68.614 H 45.238 c 16.302,-29.56 26.676,-42.75 26.676,-42.75 0,0 0.561,21.845 1.105,42.75 z m 24.038,35.085 c 0,-4.576 -4.573,-94.56 -4.78,-98.3 C 92.071,1.659 87.751,1.782 86.751,1.782 H 72.605 c -3.493,0 -8.981,2.054 -13.685,8.852 -21.665,31.33 -50.189,80.801 -56.529,95.14 -1.535,3.482 1.298,3.244 1.743,3.244 h 17.364 c 1.999,0 2.516,-0.375 3.257,-1.791 1.422,-2.709 6.503,-12.306 10.897,-20.658 h 37.835 c 0.272,10.407 0.483,18.302 0.521,19.449 0.124,3.785 4.186,3 4.186,3 h 14.66 c 1.445,0 4.203,-0.752 4.203,-5.319 z m 8.458,5.319 c 0,0 -4.778,0.502 -4.07,-3.559 0.706,-4.051 13.467,-67.017 13.467,-67.017 0,0 0.601,-4.986 4.484,-4.986 h 13.105 c 0,0 2.899,0.248 2.381,2.614 -0.52,2.372 -1.246,6.01 -1.246,6.01 0,0 8,-8.004 18.184,-8.625 10.187,-0.625 14.327,0 14.327,0 0,0 4.044,0.31 1.155,3.633 -2.89,3.328 -8.667,10.33 -9.767,12.2 -1.103,1.871 -2.644,3.804 -4.988,3.804 -2.351,0 -18.185,-1.871 -21.924,16.834 a 9610.05,9610.05 0 0 1 -6.965,34.479 c 0,0 -0.38,4.609 -3.707,4.609 h -14.438 z m 96.363,-33.171 c -2.943,7.526 -8.796,17.679 -19.299,16.477 -14.018,-1.604 -6.342,-23.334 -6.342,-23.334 0,0 5.479,-22.001 21.006,-20.132 13.6,1.64 7.25,20.285 4.635,26.989 z m 27.069,-41.774 c 0,0 -7.402,-0.09 -11.31,-0.09 -3.525,0 -4.717,8.404 -4.717,8.404 0,0 -2.763,-9.648 -19.597,-9.739 -16.479,-0.091 -27.088,15.284 -29.479,19.506 -2.396,4.222 -9.208,16.594 -10.155,31.796 -0.962,15.556 8.107,25.64 23.872,25.742 13.952,0.09 19.874,-7.766 19.874,-7.766 -3.488,13.822 -9.987,20.859 -20.675,22.373 -6.795,0.957 -11.951,-2.764 -14.428,-4.503 -2.358,-1.648 -6.168,-0.332 -7.128,0 -0.96,0.339 -7.398,3.734 -8.786,4.773 -1.278,0.943 -2.477,4.145 -0.594,6.527 10.626,13.424 28.092,13.006 32.534,12.604 8.462,-0.756 12.136,-2.199 17.641,-5.512 10.944,-6.582 16.767,-19.189 19.412,-25.557 3.115,-7.502 8.756,-31.698 9.529,-35.006 0.782,-3.311 7.72,-33.33 8.824,-37.496 1.588,-6.025 -4.817,-6.056 -4.817,-6.056 z m 147.571,18.392 c 0,0 4.193,-2.263 1.933,-5.424 -3.927,-5.485 -11.022,-14.195 -31.354,-13.591 -22.696,0.673 -31.931,16.334 -31.553,25.687 0.354,9.063 3.681,12.593 12.471,15.961 7.656,2.935 21.448,4 21.448,11.865 0,5.404 -9.167,7.481 -11.644,7.481 -2.474,0 -8.621,-1.436 -13.508,-7.585 -2.184,-2.744 -4.988,-2.744 -6.652,-1.87 -1.662,0.873 -7.644,3.597 -9.145,4.778 -1.492,1.186 -1.701,4.053 -0.517,6.651 1.188,2.599 9.036,15.064 30.136,14.337 20.493,-0.701 35.754,-10.34 36.159,-28.177 0.229,-10.163 -7.981,-15.774 -16.104,-18.58 -8.125,-2.807 -17.517,-3.959 -17.709,-9.851 -0.125,-3.864 4.717,-6.235 8.671,-6.235 3.946,0 8.136,2.729 11.904,6.111 2.224,1.995 3.889,4.052 7.48,2.367 1.881,-0.874 7.984,-3.925 7.984,-3.925 z"
       id="path1-4" /><path
       fill="none"
       stroke="#ffffff"
       stroke-width="2"
       d="m 6.105,142.764 c 0,0 -6.164,-4.07 -4.336,-6.353 2.878,-3.59 7.406,-0.184 9.457,0.531 2.049,0.715 81.985,39.904 183.734,36.912 94.151,-2.775 161.754,-35.965 167.592,-37.781 3.805,-1.188 7.171,-3.391 8.729,-0.998 1.146,1.76 0.64,3.809 -2.804,5.922 -3.223,1.971 -75.754,54.035 -182.681,53.308 C 73.571,193.542 6.105,142.764 6.105,142.764 Z"
       id="path2" /><path
       fill="#ed1c24"
       d="m 285.521,73.698 c -3.519,12.287 -10.253,19.812 -22.133,19.729 h -0.31 C 250.2,93.095 253.056,79.07 257.184,66.977 c 4.573,-13.39 12.137,-18.311 21.135,-18.08 13.342,0.35 10.761,12.329 7.202,24.801 M 283.06,32.456 c -17.249,-1.246 -38.967,5.466 -48.316,31.856 -12.457,35.151 11.301,44.995 25.685,45.413 7.148,0.205 34.545,1.969 46.328,-32.004 C 317.286,47.334 299.603,33.644 283.06,32.456 M 73.019,68.614 H 45.238 c 16.302,-29.56 26.676,-42.75 26.676,-42.75 0,0 0.561,21.845 1.105,42.75 m 24.038,35.085 c 0,-4.576 -4.573,-94.56 -4.78,-98.3 C 92.071,1.659 87.751,1.782 86.751,1.782 H 72.605 c -3.493,0 -8.981,2.054 -13.685,8.852 -21.665,31.33 -50.189,80.801 -56.529,95.14 -1.535,3.482 1.298,3.244 1.743,3.244 h 17.364 c 1.999,0 2.516,-0.375 3.257,-1.791 1.422,-2.709 6.503,-12.306 10.897,-20.658 h 37.835 c 0.272,10.407 0.483,18.302 0.521,19.449 0.124,3.785 4.186,3 4.186,3 h 14.66 c 1.445,0 4.203,-0.752 4.203,-5.319 m 8.458,5.319 c 0,0 -4.778,0.502 -4.07,-3.559 0.706,-4.051 13.467,-67.017 13.467,-67.017 0,0 0.601,-4.986 4.484,-4.986 h 13.105 c 0,0 2.899,0.248 2.381,2.614 -0.52,2.372 -1.246,6.01 -1.246,6.01 0,0 8,-8.004 18.184,-8.625 10.187,-0.625 14.327,0 14.327,0 0,0 4.044,0.31 1.155,3.633 -2.89,3.328 -8.667,10.33 -9.767,12.2 -1.103,1.871 -2.644,3.804 -4.988,3.804 -2.351,0 -18.185,-1.871 -21.924,16.834 a 9610.05,9610.05 0 0 1 -6.965,34.479 c 0,0 -0.38,4.609 -3.707,4.609 h -14.438 z m 96.363,-33.171 c -2.943,7.526 -8.796,17.679 -19.299,16.477 -14.018,-1.604 -6.342,-23.334 -6.342,-23.334 0,0 5.479,-22.001 21.006,-20.132 13.6,1.64 7.25,20.285 4.635,26.989 m 27.069,-41.774 c 0,0 -7.402,-0.09 -11.31,-0.09 -3.525,0 -4.717,8.404 -4.717,8.404 0,0 -2.763,-9.648 -19.597,-9.739 -16.479,-0.091 -27.088,15.284 -29.479,19.506 -2.396,4.222 -9.208,16.594 -10.155,31.796 -0.962,15.556 8.107,25.64 23.872,25.742 13.952,0.09 19.874,-7.766 19.874,-7.766 -3.488,13.822 -9.987,20.859 -20.675,22.373 -6.795,0.957 -11.951,-2.764 -14.428,-4.503 -2.358,-1.648 -6.168,-0.332 -7.128,0 -0.96,0.339 -7.398,3.734 -8.786,4.773 -1.278,0.943 -2.477,4.145 -0.594,6.527 10.626,13.424 28.092,13.006 32.534,12.604 8.462,-0.756 12.136,-2.199 17.641,-5.512 10.944,-6.582 16.767,-19.189 19.412,-25.557 3.115,-7.502 8.756,-31.698 9.529,-35.006 0.782,-3.311 7.72,-33.33 8.824,-37.496 1.588,-6.025 -4.817,-6.056 -4.817,-6.056 m 147.571,18.392 c 0,0 4.193,-2.263 1.933,-5.424 -3.927,-5.485 -11.022,-14.195 -31.354,-13.591 -22.696,0.673 -31.931,16.334 -31.553,25.687 0.354,9.063 3.681,12.593 12.471,15.961 7.656,2.935 21.448,4 21.448,11.865 0,5.404 -9.167,7.481 -11.644,7.481 -2.474,0 -8.621,-1.436 -13.508,-7.585 -2.184,-2.744 -4.988,-2.744 -6.652,-1.87 -1.662,0.873 -7.644,3.597 -9.145,4.778 -1.492,1.186 -1.701,4.053 -0.517,6.651 1.188,2.599 9.036,15.064 30.136,14.337 20.493,-0.701 35.754,-10.34 36.159,-28.177 0.229,-10.163 -7.981,-15.774 -16.104,-18.58 -8.125,-2.807 -17.517,-3.959 -17.709,-9.851 -0.125,-3.864 4.717,-6.235 8.671,-6.235 3.946,0 8.136,2.729 11.904,6.111 2.224,1.995 3.889,4.052 7.48,2.367 1.881,-0.874 7.984,-3.925 7.984,-3.925"
       id="path3" /><path
       fill="#ed1c24"
       d="m 6.105,142.764 c 0,0 -6.164,-4.07 -4.336,-6.353 2.878,-3.59 7.406,-0.184 9.457,0.531 2.049,0.715 81.985,39.904 183.734,36.912 94.151,-2.775 161.754,-35.965 167.592,-37.781 3.805,-1.188 7.171,-3.391 8.729,-0.998 1.146,1.76 0.64,3.809 -2.804,5.922 -3.223,1.971 -75.754,54.035 -182.681,53.308 C 73.571,193.542 6.105,142.764 6.105,142.764"
       id="path4" /></g></svg>
