<svg xmlns="http://www.w3.org/2000/svg" width="24" height="24"><path fill="#b47722" fill-rule="evenodd" d="M9.9 3.66c-3.11.42-5.52 1.7-5.95 3.2-.26.86-.01 1.58.78 2.3a2 2 0 0 1 .51.69c.06.24.1.27.38.23q.32-.06.94.23c2.75 1.25 7.66 1.3 10.6.13q3-1.2 2.99-3.04c-.01-1.8-2.4-3.26-6.18-3.75a15 15 0 0 0-4.07.01m9.37.02c-.22.24-.21.55.01.75.24.22.55.21.75-.01.21-.23.21-.41.01-.7a.5.5 0 0 0-.77-.04m.04.2c-.14.26-.05.5.2.57.27.09.5-.13.47-.44-.04-.34-.51-.43-.67-.12m.09.16q0 .3.15.21.13-.04.15.05.01.1.08.05c.18-.1.06-.51-.16-.54-.18-.03-.22.02-.22.23m-3.9 7.92q-.14.12-.02.13.12-.02.12.74v.74l.4.04c.47.04.93-.12 1.09-.39.1-.17.1-.16.1.05.01.27.27.4.51.24q.18-.12.28 0t.26 0q.14-.14.2-.02.07.1.27 0t.19 0c0 .26.46.04.62-.3l.18-.35v.32c0 .44.19.52.47.19.24-.28.3-.56.13-.56q-.09.01-.1.13a1 1 0 0 1-.16.33c-.15.18-.15.18-.1-.06.05-.28-.27-.76-.44-.65q-.1.06-.05.15c.07.1-.15.7-.26.7s-.11-.17.01-.25c.18-.11.11-.45-.09-.45q-.18 0-.34.38l-.15.37-.01-.47-.01-.48h.4c.22 0 .4-.04.4-.08 0-.05-.13-.07-.28-.04q-.28.03-.41-.12-.13-.2-.28-.04c-.11.1-.16.09-.24-.03q-.09-.16-.17-.01a1 1 0 0 1-.38.22l-.29.08.27.01q.26.02.28.15c0 .23-.22.76-.31.76-.12 0-.11-.17.01-.25.05-.03.1-.15.1-.26 0-.23-.35-.26-.44-.04-.05.13-.08.13-.24-.02-.17-.17-.17-.19.1-.35q.8-.52-.71-.6-.73-.03-.9.1m-11.71.15c0 .38-.3 1.27-.43 1.28h-.25q-.1 0-.12.09c0 .05.13.1.3.1.33 0 .45-.16.58-.77l.09-.38.12.42c.06.23.18.5.27.58.3.29.41.18.48-.46.04-.33.11-.72.16-.85q.1-.26-.04-.24c-.15 0-.2.17-.32.93q-.13.9-.35-.31c-.1-.5-.15-.62-.3-.62q-.2 0-.19.23m2.59.04c-.1.27-.11.27-.25.09-.13-.18-.15-.18-.26-.04a1 1 0 0 1-.33.21q-.28.05.03.06c.18 0 .22.07.22.31 0 .36-.11.39-.25.07-.06-.12-.19-.22-.3-.22-.16 0-.2.08-.23.43-.04.5.17.65.48.37.19-.17.21-.17.38-.02q.18.18.29.06.12-.12.17 0c.1.16.26.13.26-.04s.17-.2.22-.04c.05.14.66.2.74.07q.05-.08.2.02.13.13.22-.06.09-.2.15-.02c.03.09.2.15.37.16.38 0 .55.12.19.12-.26 0-.69.25-.69.4 0 .18.32.4.59.4q.5 0 .51-.47c0-.18.06-.23.26-.23q.23 0 .19-.1c-.03-.05-.16-.1-.27-.1-.18 0-.2-.04-.15-.4.04-.32.02-.42-.13-.5-.28-.15-.3-.14-.5.33l-.19.42v-.37q0-.4-.16-.38-.13.02-.15.2c0 .1-.05.22-.11.26q-.12.07-.04-.15c.1-.32-.12-.25-.3.09q-.3.6-.18-.05c.07-.43-.04-.46-.19-.05s-.32.38-.24-.05c.05-.27.04-.35-.08-.35-.08 0-.19.12-.24.28-.1.24-.1.24-.11.05 0-.12.07-.3.16-.39q.18-.17.06-.21c-.06-.02-.09-.13-.06-.23.08-.3-.16-.24-.28.08m14.37-.2c-.1.15-.05 1.62.04 1.62.1 0 .19-1.53.1-1.63q-.07-.07-.14.02m-10.46.1q-.34.07-.35.21c0 .19.82.27.99.1.08-.1 0-.1-.34-.06s-.41.04-.27-.04c.1-.06.32-.1.5-.08.3.03.32.05.28.38q-.12.92.05.97c.07.02.14-.23.2-.64l.09-.68.45-.03c.25-.02.5-.07.54-.13.11-.1-1.56-.1-2.14 0m2.96.17q-.07.15-.26.11-.18-.04-.2.04.02.08.2.09c.18 0 .2.06.18.46-.01.48.16.72.38.53q.12-.09.18 0c.03.05.25.08.49.07l.42-.01-.03-.4q-.08-.87-.38-.16c-.09.22-.2.41-.25.41q-.08-.01 0-.2c.17-.3.13-.5-.08-.5q-.19 0-.26.3c-.1.48-.25.45-.25-.04v-.46h.4c.22 0 .4-.04.4-.08 0-.05-.13-.07-.3-.04q-.3.05-.36-.12-.14-.3-.28 0m2.64.13c0 .29 0 .29.41.2.95-.22 1.05-.49.19-.49-.6 0-.6 0-.6.29m-9.86.25c-.03.08-.04.3-.02.48.03.3.04.31.14.13.06-.11.14-.32.18-.47q.08-.3-.1-.28a.2.2 0 0 0-.2.14m12.06.34c0 .46.01.46.15.22.2-.33.2-.7 0-.7-.11 0-.15.12-.15.48m-5.44-.04c-.04.2-.12.38-.18.42q-.12.08-.05-.24c.05-.26.03-.32-.15-.38-.27-.08-.5.2-.46.56.03.24.06.25.63.25.54 0 .6-.02.59-.2-.05-.74-.28-.98-.38-.4m3.21-.09c-.15.16-.06.45.18.56.22.1.3.08.53-.09q.6-.45-.18-.51c-.25-.02-.49 0-.53.04m-7.36 1.07c-.31.16-.28.32.07.32q.28.02.3-.22c.04-.26-.03-.28-.37-.1"/></svg>