<svg xmlns="http://www.w3.org/2000/svg" width="24" height="24"><path fill="#33c5f2" fill-rule="evenodd" d="M5.47 5.96c-.57.35-.58.37-.53.73.07.45-.23 1.71-.44 1.82-.08.04-.27.1-.42.14-.24.05-.28.1-.28.4 0 .32.02.35.3.35.17 0 .3.01.3.03l-.23.73c-.13.38-.27.82-.31.98l-.07.29.43-.06c.57-.08.71-.28.94-1.32.2-.93.25-.99.9-1.1l.41-.06.07 1c.04.56.12 1.04.18 1.07s.47-.3.9-.75l.83-.81c.02 0 .08.2.14.45.11.45.4.85.63.85.24 0 .96-.9 1.17-1.44.28-.77.28-1.06-.02-1.06-.2 0-.26.1-.46.75-.12.4-.26.77-.3.8-.06.03-.15-.2-.2-.5-.2-.9-.4-.91-1.48-.06-.28.22-.54.37-.57.34-.03-.04-.06-.3-.06-.59a10 10 0 0 0-.35-2.41 1 1 0 0 0-.39-.44c-.13-.06-.27-.2-.3-.3-.06-.25-.12-.24-.8.17m12.16.89c-.27.22-.38.25-1.15.25h-.85l.1.38c.05.2.13.4.17.45s.35.03.7-.01c.7-.1.67-.14.55.86-.07.5-.38 1.02-.64 1.02-.05 0-.2-.21-.33-.47-.12-.26-.29-.5-.37-.5-.09-.02-.4.17-.7.43l-.55.47-.05-.59c-.04-.52-.08-.6-.28-.62-.16-.03-.35.1-.73.52-.55.6-.74.7-.67.32.1-.52-.08-.52-.78.02-.36.29-.7.52-.75.52-.37 0 .4-.86.8-.92.3-.04.6-.53.43-.7-.25-.25-1.08.27-1.74 1.1q-.63.79-.37 1.08.29.33 1.18-.16c.5-.28.53-.28.58-.1.09.33.47.24 1.02-.26l.51-.46v.37c0 .42.15.75.34.75.08 0 .4-.2.7-.45l.55-.46.26.4c.31.5.57.53 1.1.1.4-.3.5-.3.57.06q.09.57.93-.3l.55-.56.1.28c.26.72.55.81 1.05.33.39-.38.38-.7 0-.44-.23.15-.23.15-.36-.41-.07-.32-.2-.6-.28-.63q-.15-.05-.66.51a2 2 0 0 1-.64.57c-.2 0-.04-1.64.21-2.12.38-.72.07-1.11-.5-.63m1.55.35c-.32.25-.43.56-.27.75.17.2.24.19.6-.1.33-.29.4-.69.14-.79-.2-.08-.18-.09-.47.14m-13.13.12c-.13.16-.46 1-.42 1.03.02.02.19 0 .38-.04.32-.07.35-.1.32-.4q-.1-.82-.28-.6m14.4 2.55c-.04.08 0 .23.1.32.15.15.17.15.32 0 .2-.2.11-.48-.16-.48-.11 0-.23.07-.27.16m-2.88.75a135 135 0 0 0-5.45.34 77 77 0 0 0-8.15.9c-.82.16-1.02.25-.9.44q.11.23 1.25-.05c2.35-.56 11.92-1.53 15.1-1.54.47 0 .92-.05 1-.1.17-.11-.38-.11-2.85 0"/></svg>