<svg xmlns="http://www.w3.org/2000/svg" width="24" height="24"><path fill="#fbe9ec" fill-rule="evenodd" d="M7.48 6.88h9.05c2.48-.02.45-.03-4.53-.03s-7.01.01-4.52.03m1.82.71c-.2.1-.56.37-.81.6l-.46.4-.2-.2c-.23-.26-.66-.49-.92-.49-.24 0-.61.45-.61.75 0 .12.11.39.25.6s.25.37.25.39-.17.1-.37.2c-.51.22-1.3.35-1.61.27s-.54-.47-.46-.78.34-.37.67-.12l.29.21-.07-.23c-.1-.35-.61-.79-.9-.79-.61 0-.95.48-.95 1.34 0 .47.04.6.3.9.73.83 1.87.7 3.26-.35.49-.38.96-.5 1.09-.3.03.06-.06.33-.2.6l-.25.51h.44c.45 0 .45 0 .82-.66.2-.36.46-.7.58-.74s.22-.07.24-.05c.01 0-.04.2-.12.43-.18.51-.11.79.25.98q.68.36 1.38-.75l.38-.6-.05.44q-.05.45.12.7c.18.27.54.33.74.13.1-.1.15-.1.24 0q.41.42 1.14-.43c.26-.3.48-.54.5-.52s-.03.23-.1.47c-.22.58-.2.62.15.58.3-.03.34-.09.6-.77.32-.84.33-.85.53-.78.12.05.11.16-.06.72-.18.6-.19.68-.06.82.14.13.2.13.54-.05.38-.2.4-.2.62-.01.24.2.45.16.76-.1.17-.15.2-.14.33.07q.26.39.7.06c.26-.17.32-.47.08-.38-.2.08-.2-.1.05-.81l.2-.62c0-.02-.14-.03-.31-.01-.28.03-.34.1-.56.66a2 2 0 0 1-.44.73q-.17.08-.19.01c0-.23.6-1.84.75-1.98.09-.1.14-.23.1-.31a1 1 0 0 1-.05-.29q0-.14-.35-.14c-.2 0-.35.04-.35.08 0 .05-.1.2-.2.32-.11.13-.18.31-.15.4.12.37-.7 2.19-.9 1.99-.02-.03.02-.27.1-.54.08-.26.15-.58.15-.7 0-.3-.32-.4-.7-.22-.25.13-.3.13-.4.01-.21-.25-.37-.16-1.1.63l-.7.78.21-.55c.36-.93.36-.92-.02-.9-.19.02-.46 0-.6-.04q-.26-.07-.64.08c-.56.24-.65.21-.65-.2a.8.8 0 0 0-.25-.6c-.28-.28-.38-.3-.55-.1-.16.2-.06.57.26.96l.27.31-.2.27c-.28.38-.84.75-.96.63q-.09-.11.13-.64c.35-.84.13-1.1-.57-.66l-.34.21.14-.33.4-.92c.15-.32.27-.62.27-.67 0-.16-.52-.1-.9.1m-.57.93c-.43.44-.5.56-.46.8.03.15.09.27.13.27s.2-.21.35-.47l.47-.8q.42-.71-.5.2m11.26-.35a8 8 0 0 0-.68 2.07c0 .4.36.05.76-.75.45-.9.52-1.18.32-1.38-.16-.16-.22-.15-.4.06m-1.71.09c-.04.03-.07.17-.07.3q0 .23.2.23c.2 0 .4-.27.33-.47-.05-.14-.35-.18-.46-.06m-11.25.36c-.1.13 0 .5.18.62.07.04.22-.02.34-.14l.21-.22-.24-.2c-.27-.22-.35-.23-.49-.06m5.43 1.01c-.41.41-.46 1.12-.08 1.04.19-.03.61-.8.62-1.1.01-.25-.26-.22-.54.06m6.62 1.03c-.1.1-.08.41.04.49.16.1.43-.21.36-.4-.06-.16-.28-.21-.4-.1"/></svg>