<svg xmlns="http://www.w3.org/2000/svg" width="24" height="24"><path fill="#ff741b" fill-rule="evenodd" d="M3 9v3.6h3.93a39 39 0 0 0 3.67-.1c-.81-.24-1.3-.81-1.3-1.54 0-.43.36-1.11.76-1.44l.34-.29-.26-.47c-.22-.4-.26-.56-.21-.99.03-.4.1-.56.35-.78.4-.36 1.03-.53 1.7-.46.91.1 1.45.6 1.44 1.37 0 .47-.14.74-.58 1.2l-.33.35.3.33c.29.3.32.32.49.17s.2-.13.55.3c.37.44.37.46.2.66-.18.2-.18.21.08.75.4.81.39.84-.42.84-.6 0-.7-.03-.83-.21l-.14-.22-.65.26-.64.26h4.78l4.77.01V5.4H3zm13.85-3.31a2.9 2.9 0 0 0-1.92 1.9 6 6 0 0 0 .01 2.94c.23.7.8 1.37 1.44 1.69.44.21.62.23 2.5.26l2.02.04V11.3h-.45q-.69 0-.31-.3c.08-.05.24-.34.37-.63.2-.45.24-.67.23-1.62 0-.89-.05-1.19-.21-1.56a2.7 2.7 0 0 0-1.32-1.32 5.4 5.4 0 0 0-2.36-.18M3.12 9.07l.03 3.38h1.9c2.14 0 2.43-.06 2.98-.61.43-.43.6-1.04.46-1.66-.13-.57-.24-.73-.64-.98s-.43-.32-.12-.5c.33-.17.57-.62.63-1.17a1.6 1.6 0 0 0-.81-1.57c-.36-.19-.61-.21-2.43-.24L3.1 5.69zm2.2-1.85c-.17.17-.16 1.04.02 1.11s.56-.02.74-.16c.16-.12.16-.71 0-.85-.22-.18-.62-.24-.76-.1m12.08.1a1 1 0 0 0-.37.48 6 6 0 0 0-.02 2.33c.21.77.96.87 1.31.17.13-.26.18-.6.18-1.28 0-1.07-.16-1.57-.55-1.72-.31-.12-.25-.12-.55.03m-5.98.29c-.15.15-.15.43-.02.69q.2.36.53 0c.3-.32.16-.81-.23-.81a.5.5 0 0 0-.28.12M5.24 9.84c-.03.07-.04.35-.02.62.03.48.03.49.4.52.3.03.4-.02.57-.25.25-.3.22-.69-.06-.9-.23-.17-.82-.17-.89 0m5.78.52q-.22.27-.16.5c.07.23.31.45.5.45.17 0 .64-.22.64-.3 0-.02-.17-.25-.38-.5l-.38-.43z"/></svg>