<?xml version="1.0" encoding="UTF-8" standalone="no"?>
<svg
   viewBox="0 0 24 24"
   width="24pt"
   height="24pt"
   version="1.1"
   id="svg1"
   sodipodi:docname="backwerk.svg"
   xml:space="preserve"
   inkscape:version="1.3 (0e150ed6c4, 2023-07-21)"
   inkscape:export-filename="backwerk.svg"
   inkscape:export-xdpi="96"
   inkscape:export-ydpi="96"
   xmlns:inkscape="http://www.inkscape.org/namespaces/inkscape"
   xmlns:sodipodi="http://sodipodi.sourceforge.net/DTD/sodipodi-0.dtd"
   xmlns="http://www.w3.org/2000/svg"
   xmlns:svg="http://www.w3.org/2000/svg"><defs
     id="defs1" /><sodipodi:namedview
     id="namedview1"
     pagecolor="#ffffff"
     bordercolor="#000000"
     borderopacity="0.25"
     inkscape:showpageshadow="2"
     inkscape:pageopacity="0.0"
     inkscape:pagecheckerboard="0"
     inkscape:deskcolor="#d1d1d1"
     inkscape:document-units="pt"
     inkscape:zoom="11.546875"
     inkscape:cx="27.366712"
     inkscape:cy="21.434371"
     inkscape:window-width="1920"
     inkscape:window-height="974"
     inkscape:window-x="-11"
     inkscape:window-y="1609"
     inkscape:window-maximized="1"
     inkscape:current-layer="svg1" /><g
     transform="matrix(0.07614189,0,0,-0.07614189,-42.968898,13.444382)"
     id="g4156"><g
       transform="translate(714.67516,62.41773)"
       id="g3831"><path
         d="m 0,0 c 0.326,-1.165 2.205,-9.608 2.46,-10.413 0.36,-1.407 2.309,-1.86 2.818,-0.15 0.516,1.709 2.566,9.371 2.973,10.534 0.4,1.162 1.507,1.771 3.045,1.771 1.563,-0.052 2.612,-0.794 2.911,-2.062 0.295,-1.268 2.612,-10.18 2.72,-10.551 0.27,-0.898 2.534,-1.401 3.18,0.608 0.646,2.01 1.913,8.937 2.048,9.757 0.136,0.821 0.97,2.382 3.422,2.115 1.914,-0.236 2.265,-2.115 2.131,-3.278 -0.135,-1.161 -4.772,-22.423 -5.068,-23.588 -0.297,-1.163 -0.701,-3.489 -3.53,-3.463 -2.831,0.028 -3.558,1.242 -3.719,1.719 -0.163,0.474 -2.913,9.519 -3.073,9.968 -0.16,0.45 -0.43,1.004 -1.321,1.004 -0.888,0 -1.347,-0.394 -1.482,-0.95 -0.134,-0.556 -2.693,-9.521 -3.046,-10.128 -0.349,-0.608 -1.372,-1.984 -3.394,-1.717 -2.022,0.262 -3.449,1.717 -3.666,2.8 -0.217,1.086 -4.716,24.038 -4.769,24.883 -0.053,0.849 -0.053,2.831 2.183,3.148 C -0.942,2.324 -0.214,0.764 0,0"
         id="path3833"
         style="fill:#009992;fill-opacity:1;fill-rule:nonzero;stroke:none" /></g><g
       transform="translate(747.50476,63.79073)"
       id="g3835"><path
         d="m 0,0 c 1.002,0.025 11.33,0 12.259,0 0.929,0 2.501,-0.526 2.501,-2.455 0,-1.929 -1.394,-2.594 -2.574,-2.699 C 11.008,-5.259 6.255,-5.259 5.612,-5.47 4.968,-5.679 3.826,-6.662 3.826,-8.063 c 0,-1.403 0.463,-2.526 1.748,-2.771 1.287,-0.246 5.325,-0.421 5.935,-0.491 0.607,-0.071 2.287,-0.489 2.428,-2.524 0.144,-2.033 -1.712,-2.49 -2.393,-2.593 -0.68,-0.107 -5.932,-0.527 -6.469,-0.667 -0.536,-0.14 -1.823,-1.089 -1.93,-3.437 -0.107,-2.348 1.037,-3.365 2.216,-3.575 1.181,-0.212 7.042,-0.351 8.04,-0.351 1.002,0 2.716,-0.561 2.501,-2.701 -0.214,-2.138 -1.784,-2.348 -2.429,-2.382 -0.643,-0.037 -12.864,0 -13.506,0 -0.646,0 -2.789,0.069 -2.789,3.365 0,3.296 0.288,22.369 0.252,23.316 C -2.608,-1.928 -2.714,-0.07 0,0"
         id="path3837"
         style="fill:#009992;fill-opacity:1;fill-rule:nonzero;stroke:none" /></g><g
       transform="translate(784.27626,47.06703)"
       id="g3839"><path
         d="m 0,0 c 0.501,0.911 3.466,3.612 3.039,9.045 -0.392,6.31 -6.004,7.469 -7.004,7.573 -1.001,0.106 -8.827,0.329 -10.186,0.352 -4.276,0.073 -3.894,-4.102 -3.894,-4.102 -0.036,-0.774 -0.393,-20.302 -0.322,-22.124 0.072,-1.823 0.857,-3.051 2.716,-3.506 1.858,-0.455 2.679,1.052 2.93,1.612 0.251,0.562 0.787,4.98 0.858,5.61 0.071,0.632 0.143,1.507 0.892,2.035 0.751,0.525 2.287,0.209 3.217,-0.211 0.928,-0.422 2.823,-4.874 3.429,-6.066 0.609,-1.191 0.967,-2.279 2.931,-2.805 1.968,-0.525 3.074,0.175 3.43,1.123 0.359,0.946 -1.858,5.189 -2.571,7.222 C -1.249,-2.207 -0.5,-0.912 0,0 M -3.369,7.117 C -3.672,3.84 -6.969,3.4 -7.693,3.372 c -0.726,-0.025 -3.204,-0.234 -3.919,1.874 -0.715,2.104 -0.853,6.951 4.223,6.384 1.165,-0.132 4.327,-1.239 4.02,-4.513"
         id="path3841"
         style="fill:#009992;fill-opacity:1;fill-rule:nonzero;stroke:none" /></g><g
       transform="translate(793.75676,64.51063)"
       id="g3843"><path
         d="m 0,0 c 1.39,-0.248 2.725,-0.769 2.828,-2.909 0.101,-2.139 0,-3.71 1.296,-3.977 1.292,-0.268 1.635,0.068 2.69,1.203 1.056,1.136 3.918,4.512 4.632,5.014 0.719,0.502 2.04,1.311 4.807,0.701 0,0 2.758,-0.601 1.636,-2.905 -1.124,-2.308 -4.704,-6.821 -5.214,-7.824 -0.748,-1.437 -0.785,-2.538 0.137,-4.445 0.918,-1.91 5.587,-11.668 6.167,-12.872 0.578,-1.203 0.102,-2.239 -1.056,-2.741 -1.158,-0.499 -3.917,-0.936 -5.383,1.17 -1.463,2.105 -4.429,7.287 -5.043,8.324 -0.614,1.036 -2.01,0.901 -2.418,0.668 -0.409,-0.235 -1.432,-0.769 -1.567,-1.971 -0.137,-1.204 -0.817,-5.684 -0.921,-6.219 -0.101,-0.535 -1.022,-2.374 -3.542,-2.239 -2.522,0.134 -2.896,1.704 -2.964,2.774 -0.069,1.071 -0.275,23.331 -0.275,24.367 0,1.037 0.816,4.485 4.19,3.881"
         id="path3845"
         style="fill:#009992;fill-opacity:1;fill-rule:nonzero;stroke:none" /></g><g
       transform="translate(699.79216,65.14293)"
       id="g3847"><path
         d="m 0,0 h -70.781 c -3.817,0 -6.912,-3.037 -6.912,-6.78 v -17.999 c 0,-3.746 3.095,-6.783 6.912,-6.783 H 0 c 3.816,0 6.909,3.037 6.909,6.783 V -6.78 C 6.909,-3.037 3.816,0 0,0"
         id="path3849"
         style="fill:#0063aa;fill-opacity:1;fill-rule:nonzero;stroke:none" /></g><g
       transform="translate(683.07526,40.20933)"
       id="g3851"><path
         d="m 0,0 c -1.286,-1.948 -5.913,-4.342 -11.333,-2.467 -4.316,1.489 -6.087,5.659 -5.828,9.521 0.289,4.281 2.405,7.234 5.258,8.578 4.96,2.683 10.696,-0.555 11.484,-1.378 0.452,-0.363 1.365,-1.762 0.235,-2.66 -2.968,-2.37 -3.771,0.826 -6.256,0.77 -1.905,-0.039 -4.395,-0.737 -4.585,-5.219 -0.176,-4.105 1.22,-5.722 3.568,-5.873 4.481,-0.293 2.923,2.214 6.494,1.715 C -0.236,2.886 1.243,1.995 0,0"
         id="path3853"
         style="fill:#ffffff;fill-opacity:1;fill-rule:nonzero;stroke:none" /></g><g
       transform="translate(701.65616,37.57433)"
       id="g3855"><path
         d="m 0,0 c -1.522,-0.148 -1.853,-0.113 -2.221,-0.113 -0.372,0 -0.912,-0.218 -2.226,1.257 -1.315,1.47 -2.595,3.979 -3.204,4.634 -0.613,0.654 -1.076,0.909 -2.225,0.492 -1.147,-0.418 -1.242,-3.545 -1.429,-4.544 -0.182,-0.999 -0.203,-1.62 -1.663,-1.819 -1.465,-0.202 -3.355,-0.055 -3.319,1.906 0.037,1.967 0.221,21.054 0.221,21.528 0,0.474 0.112,1.073 1.205,1.11 1.096,0.035 1.63,0 2.036,0 1.228,-0.037 1.377,-0.509 1.485,-1.764 0.111,-1.256 0.39,-7.166 0.39,-7.564 0,-0.4 -0.149,-1.364 0.89,-1.328 1.034,0.038 1.28,0.275 2.242,1.272 0.961,1.001 2.056,2.073 2.519,2.51 0.465,0.438 0.631,0.71 1.855,0.745 1.223,0.036 2.524,-0.039 2.524,-0.039 0.583,0 1.662,-0.379 0.625,-1.758 -1.06,-1.256 -2.947,-3.273 -3.576,-4.202 C -4.501,11.399 -4.447,10.76 -3.798,9.65 -3.149,8.543 0.354,2.396 0.702,1.849 1.058,1.306 1.522,0.141 0,0"
         id="path3857"
         style="fill:#ffffff;fill-opacity:1;fill-rule:nonzero;stroke:none" /></g><g
       transform="translate(643.08766,54.52013)"
       id="g3859"><path
         d="m 0,0 c -2.939,2.658 -7.053,1.598 -7.864,1.219 -0.43,-0.184 -1.342,-0.736 -2.387,-0.08 -1.037,0.743 -0.694,1.642 -0.694,2.478 v 2.321 c 0,1.431 -0.582,1.662 -1.449,1.662 0,0 -0.857,0.009 -1.724,0.009 -0.874,0 -1.464,0 -1.464,-1.69 0,-1.55 -0.185,-20.806 -0.185,-20.806 0,-2.069 0.356,-2.089 1.904,-2.135 3.486,0 1.03,0.52 3.775,0.66 1.59,0.083 1.579,-1.463 4.891,-1.186 3.736,0.316 5.058,0.935 6.958,5.193 C 3.66,-8.1 2.946,-2.657 0,0 m -6.173,-13.677 c -6.059,-0.74 -5.85,11.36 -0.895,11.893 5.918,0.624 6.955,-11.153 0.895,-11.893"
         id="path3861"
         style="fill:#ffffff;fill-opacity:1;fill-rule:nonzero;stroke:none" /></g><g
       transform="translate(664.07896,51.20743)"
       id="g3863"><path
         d="m 0,0 c -0.009,0.606 0.209,1.807 -1.046,3.359 -1.764,2.426 -5.947,1.98 -9.293,1.828 -3.348,-0.152 -4.478,-2.453 -4.478,-2.453 -1.85,-3.255 1.019,-2.839 1.835,-2.799 3.094,0.029 1.144,1.665 4.707,2.523 0.872,0.11 2.977,-0.056 3.008,-2.397 0.038,-2.3 -2.717,-1.995 -4.719,-2.412 -5.987,-1.066 -6.522,-4.137 -6.522,-4.137 -1.142,-4.359 1.254,-7.198 4.262,-7.393 3.01,-0.194 5.202,0.644 5.863,1.071 0.499,0.28 0.94,0.272 1.529,0.087 0.894,-0.233 0.209,-0.763 2.757,-0.857 C -0.637,-13.487 0,-13.094 0,-12.075 0,-11.059 0.031,-1.688 0,0 m -9.397,-10.306 c -3.487,0.119 -2.393,3.819 -0.244,4.614 1.218,0.557 3.204,1.077 4.138,-0.08 0.544,-0.675 0.284,-4.693 -3.894,-4.534"
         id="path3865"
         style="fill:#ffffff;fill-opacity:1;fill-rule:nonzero;stroke:none" /></g><g
       transform="translate(705.96056,26.88533)"
       id="g3867"><path
         d="m 0,0 c 0.754,0.007 1.186,-0.758 1.063,-1.122 -1.355,-3.961 -2.657,-9.041 -4.277,-12.872 -0.316,0.423 -1.475,0.553 -0.969,1.255 l 1.124,-1.145 c -0.038,-0.041 -0.055,-0.092 -0.073,-0.132 -0.673,0.356 -1.115,0.928 -0.995,1.357 1.115,3.989 2.501,8.969 4.202,12.752 0.355,-0.382 0.69,-0.779 1.045,-1.162"
         id="path3869"
         style="fill:#0063aa;fill-opacity:1;fill-rule:nonzero;stroke:#0063aa;stroke-width:0.472;stroke-linecap:round;stroke-linejoin:round;stroke-miterlimit:10;stroke-dasharray:none;stroke-opacity:1" /></g><g
       transform="translate(707.36096,29.08523)"
       id="g3871"><path
         d="m 0,0 -0.006,0.015 c -0.035,-0.24 0.05,-0.638 -0.149,-0.657 -0.379,-0.018 -0.944,0.165 -1.2,-0.03 -0.05,0.286 -0.085,0.565 -0.135,0.851 0.827,-0.605 1.354,-0.574 1.909,-0.663 l 0.162,-0.929 c -0.52,0.038 -1.096,0.065 -1.902,0.648 C -1.848,0.366 -1.203,0.777 0,0"
         id="path3873"
         style="fill:#0063aa;fill-opacity:1;fill-rule:nonzero;stroke:none" /></g><g
       transform="translate(707.36096,29.08523)"
       id="g3875"><path
         d="m 0,0 -0.006,0.015 c -0.035,-0.24 0.05,-0.638 -0.149,-0.657 -0.379,-0.018 -0.944,0.165 -1.2,-0.03 -0.05,0.286 -0.085,0.565 -0.135,0.851 0.827,-0.605 1.354,-0.574 1.909,-0.663 l 0.162,-0.929 c -0.52,0.038 -1.096,0.065 -1.902,0.648 C -1.848,0.366 -1.203,0.777 0,0 Z"
         id="path3877"
         style="fill:none;stroke:#0063aa;stroke-width:0.472;stroke-linecap:round;stroke-linejoin:round;stroke-miterlimit:10;stroke-dasharray:none;stroke-opacity:1" /></g><g
       transform="translate(715.44636,22.31553)"
       id="g3879"><path
         d="m 0,0 -0.02,0.012 c 0.252,-0.364 0.524,-0.714 0.776,-1.077 -2.799,-0.378 -5.111,-1.549 -7.042,-2.871 -0.401,-0.276 -0.638,-0.711 -0.897,-1.084 -0.312,0.348 -0.603,0.71 -0.914,1.058 3.902,-0.491 9.708,0.531 11.111,-2.662 -2.58,-1.776 -6.565,-1.663 -9.884,-2.334 -0.353,0.398 -0.725,0.795 -1.078,1.193 0.04,0.002 0.098,0.017 0.137,0.019 l 1.115,-1.14 c -0.078,-0.016 -0.137,-0.019 -0.174,-0.072 -0.214,0.391 -0.449,0.781 -0.663,1.172 3.074,0.855 7.447,0.422 9.441,2.535 0.271,-0.312 0.541,-0.636 0.811,-0.947 -2.695,1.253 -6.603,0.505 -9.685,1.161 -0.835,0.184 -1.148,0.997 -0.948,1.38 C -6.86,-1.662 -3.138,-0.328 0,0"
         id="path3881"
         style="fill:#0063aa;fill-opacity:1;fill-rule:nonzero;stroke:none" /></g><g
       transform="translate(715.44636,22.31553)"
       id="g3883"><path
         d="m 0,0 -0.02,0.012 c 0.252,-0.364 0.524,-0.714 0.776,-1.077 -2.799,-0.378 -5.111,-1.549 -7.042,-2.871 -0.401,-0.276 -0.638,-0.711 -0.897,-1.084 -0.312,0.348 -0.603,0.71 -0.914,1.058 3.902,-0.491 9.708,0.531 11.111,-2.662 -2.58,-1.776 -6.565,-1.663 -9.884,-2.334 -0.353,0.398 -0.725,0.795 -1.078,1.193 0.04,0.002 0.098,0.017 0.137,0.019 l 1.115,-1.14 c -0.078,-0.016 -0.137,-0.019 -0.174,-0.072 -0.214,0.391 -0.449,0.781 -0.663,1.172 3.074,0.855 7.447,0.422 9.441,2.535 0.271,-0.312 0.541,-0.636 0.811,-0.947 -2.695,1.253 -6.603,0.505 -9.685,1.161 -0.835,0.184 -1.148,0.997 -0.948,1.38 C -6.86,-1.662 -3.138,-0.328 0,0 Z"
         id="path3885"
         style="fill:none;stroke:#0063aa;stroke-width:0.472;stroke-linecap:round;stroke-linejoin:round;stroke-miterlimit:10;stroke-dasharray:none;stroke-opacity:1" /></g><g
       transform="translate(727.92836,22.85023)"
       id="g3887"><path
         d="m 0,0 -0.02,0.012 c 0.252,-0.364 0.524,-0.713 0.776,-1.077 -2.8,-0.378 -5.111,-1.549 -7.042,-2.871 -0.401,-0.276 -0.638,-0.711 -0.897,-1.084 -0.312,0.348 -0.604,0.71 -0.914,1.058 3.903,-0.491 9.708,0.531 11.11,-2.662 -2.579,-1.777 -6.564,-1.663 -9.883,-2.334 -0.353,0.398 -0.725,0.795 -1.077,1.193 0.039,0.002 0.097,0.017 0.136,0.019 l 1.115,-1.14 c -0.078,-0.016 -0.137,-0.019 -0.174,-0.072 -0.214,0.391 -0.449,0.781 -0.663,1.172 3.074,0.855 7.448,0.422 9.441,2.535 0.271,-0.312 0.541,-0.636 0.811,-0.947 -2.696,1.253 -6.603,0.505 -9.685,1.161 -0.836,0.184 -1.148,0.997 -0.948,1.38 C -6.86,-1.662 -3.138,-0.328 0,0"
         id="path3889"
         style="fill:#0063aa;fill-opacity:1;fill-rule:nonzero;stroke:none" /></g><g
       transform="translate(727.92836,22.85023)"
       id="g3891"><path
         d="m 0,0 -0.02,0.012 c 0.252,-0.364 0.524,-0.713 0.776,-1.077 -2.8,-0.378 -5.111,-1.549 -7.042,-2.871 -0.401,-0.276 -0.638,-0.711 -0.897,-1.084 -0.312,0.348 -0.604,0.71 -0.914,1.058 3.903,-0.491 9.708,0.531 11.11,-2.662 -2.579,-1.777 -6.564,-1.663 -9.883,-2.334 -0.353,0.398 -0.725,0.795 -1.077,1.193 0.039,0.002 0.097,0.017 0.136,0.019 l 1.115,-1.14 c -0.078,-0.016 -0.137,-0.019 -0.174,-0.072 -0.214,0.391 -0.449,0.781 -0.663,1.172 3.074,0.855 7.448,0.422 9.441,2.535 0.271,-0.312 0.541,-0.636 0.811,-0.947 -2.696,1.253 -6.603,0.505 -9.685,1.161 -0.836,0.184 -1.148,0.997 -0.948,1.38 C -6.86,-1.662 -3.138,-0.328 0,0 Z"
         id="path3893"
         style="fill:none;stroke:#0063aa;stroke-width:0.472;stroke-linecap:round;stroke-linejoin:round;stroke-miterlimit:10;stroke-dasharray:none;stroke-opacity:1" /></g><g
       transform="translate(754.20136,26.25913)"
       id="g3895"><path
         d="m 0,0 c -0.02,-0.001 -0.02,-0.001 -0.018,0.012 0.215,-0.311 0.452,-0.609 0.669,-0.92 -0.348,0.421 -0.714,0.841 -1.06,1.262 0.199,-0.273 0.416,-0.559 0.616,-0.832 -1.828,1.472 -4.495,2.613 -7.634,1.992 -2.331,-0.471 -3.536,-2.073 -4.013,-3.567 -1.571,-4.86 -3.026,-9.42 -4.063,-14.167 -0.342,0.498 -0.684,0.983 -1.027,1.481 l 1.024,-1.212 c -0.006,-0.09 0.009,-0.179 0.003,-0.269 -0.325,0.448 -0.945,0.883 -0.86,1.322 0.918,5.062 2.101,9.982 4.444,15.028 0.534,1.125 1.693,2.264 3.485,2.546 4.238,0.693 7.424,-1.233 9.085,-3.584 -0.217,0.311 -0.454,0.609 -0.669,0.92 C -0.02,-0.001 -0.02,-0.001 0,0"
         id="path3897"
         style="fill:#0063aa;fill-opacity:1;fill-rule:nonzero;stroke:none" /></g><g
       transform="translate(754.20136,26.25913)"
       id="g3899"><path
         d="m 0,0 c -0.02,-0.001 -0.02,-0.001 -0.018,0.012 0.215,-0.311 0.452,-0.609 0.669,-0.92 -0.348,0.421 -0.714,0.841 -1.06,1.262 0.199,-0.273 0.416,-0.559 0.616,-0.832 -1.828,1.472 -4.495,2.613 -7.634,1.992 -2.331,-0.471 -3.536,-2.073 -4.013,-3.567 -1.571,-4.86 -3.026,-9.42 -4.063,-14.167 -0.342,0.498 -0.684,0.983 -1.027,1.481 l 1.024,-1.212 c -0.006,-0.09 0.009,-0.179 0.003,-0.269 -0.325,0.448 -0.945,0.883 -0.86,1.322 0.918,5.062 2.101,9.982 4.444,15.028 0.534,1.125 1.693,2.264 3.485,2.546 4.238,0.693 7.424,-1.233 9.085,-3.584 -0.217,0.311 -0.454,0.609 -0.669,0.92 C -0.02,-0.001 -0.02,-0.001 0,0 Z"
         id="path3901"
         style="fill:none;stroke:#0063aa;stroke-width:0.472;stroke-linecap:round;stroke-linejoin:round;stroke-miterlimit:10;stroke-dasharray:none;stroke-opacity:1" /></g><g
       transform="translate(736.56326,19.78503)"
       id="g3903"><path
         d="m 0,0 c 0.579,0.606 1.615,0.624 2.491,0.739 3.832,0.512 7.347,1.527 11.17,1.793 2.419,-2.014 0.472,-4.859 0.15,-7.274 -0.375,0.501 -1.043,1.014 -0.948,1.509 0.227,1.029 1.314,2.108 0.896,3.136 1.193,2.658 5.954,3.377 9.504,4.071 0.668,-0.514 1.246,-1.186 1.115,-1.747 -0.518,-2.423 -1.1,-4.719 -1.797,-7.072 -0.495,0.572 -1.518,1.122 -0.801,1.721 l 1.189,-1.227 c -0.149,-0.162 -0.199,-0.344 -0.388,-0.494 -0.375,0.5 -1.023,1.001 -0.986,1.494 0.224,2.41 0.881,4.787 1.911,7.129 0.309,-0.348 0.638,-0.696 0.947,-1.044 -3.55,-0.681 -8.332,-1.388 -9.544,-4.034 0.579,-1.137 -0.601,-2.323 -1.098,-3.442 -1.822,1.781 0.249,4.064 0.097,6.123 -0.017,0.386 0.083,0.791 -0.247,1.151 0.253,-0.415 0.487,-0.818 0.74,-1.234 C 9.954,0.554 5.238,0.12 1.027,-1.092 0.677,-0.72 0.308,-0.335 -0.041,0.037 -0.04,0.024 -0.001,0.013 0,0"
         id="path3905"
         style="fill:#0063aa;fill-opacity:1;fill-rule:nonzero;stroke:none" /></g><g
       transform="translate(736.56326,19.78503)"
       id="g3907"><path
         d="m 0,0 c 0.579,0.606 1.615,0.624 2.491,0.739 3.832,0.512 7.347,1.527 11.17,1.793 2.419,-2.014 0.472,-4.859 0.15,-7.274 -0.375,0.501 -1.043,1.014 -0.948,1.509 0.227,1.029 1.314,2.108 0.896,3.136 1.193,2.658 5.954,3.377 9.504,4.071 0.668,-0.514 1.246,-1.186 1.115,-1.747 -0.518,-2.423 -1.1,-4.719 -1.797,-7.072 -0.495,0.572 -1.518,1.122 -0.801,1.721 l 1.189,-1.227 c -0.149,-0.162 -0.199,-0.344 -0.388,-0.494 -0.375,0.5 -1.023,1.001 -0.986,1.494 0.224,2.41 0.881,4.787 1.911,7.129 0.309,-0.348 0.638,-0.696 0.947,-1.044 -3.55,-0.681 -8.332,-1.388 -9.544,-4.034 0.579,-1.137 -0.601,-2.323 -1.098,-3.442 -1.822,1.781 0.249,4.064 0.097,6.123 -0.017,0.386 0.083,0.791 -0.247,1.151 0.253,-0.415 0.487,-0.818 0.74,-1.234 C 9.954,0.554 5.238,0.12 1.027,-1.092 0.677,-0.72 0.308,-0.335 -0.041,0.037 -0.04,0.024 -0.001,0.013 0,0 Z"
         id="path3909"
         style="fill:none;stroke:#0063aa;stroke-width:0.472;stroke-linecap:round;stroke-linejoin:round;stroke-miterlimit:10;stroke-dasharray:none;stroke-opacity:1" /></g><g
       transform="translate(771.66616,24.72383)"
       id="g3911"><path
         d="m 0,0 -0.02,0.012 c 0.253,-0.364 0.524,-0.713 0.777,-1.077 -2.8,-0.378 -5.112,-1.549 -7.043,-2.871 -0.401,-0.276 -0.638,-0.711 -0.897,-1.084 -0.312,0.348 -0.603,0.71 -0.914,1.058 3.902,-0.491 9.708,0.532 11.111,-2.662 -2.58,-1.776 -6.565,-1.663 -9.884,-2.334 -0.352,0.398 -0.725,0.795 -1.078,1.193 0.04,0.002 0.098,0.017 0.137,0.019 l 1.116,-1.14 c -0.079,-0.016 -0.138,-0.019 -0.175,-0.072 -0.214,0.391 -0.449,0.781 -0.663,1.172 3.074,0.855 7.447,0.422 9.442,2.535 0.27,-0.312 0.541,-0.636 0.81,-0.947 -2.695,1.253 -6.602,0.505 -9.685,1.161 -0.835,0.184 -1.148,0.997 -0.947,1.38 C -6.86,-1.662 -3.137,-0.327 0,0"
         id="path3913"
         style="fill:#0063aa;fill-opacity:1;fill-rule:nonzero;stroke:none" /></g><g
       transform="translate(771.66616,24.72383)"
       id="g3915"><path
         d="m 0,0 -0.02,0.012 c 0.253,-0.364 0.524,-0.713 0.777,-1.077 -2.8,-0.378 -5.112,-1.549 -7.043,-2.871 -0.401,-0.276 -0.638,-0.711 -0.897,-1.084 -0.312,0.348 -0.603,0.71 -0.914,1.058 3.902,-0.491 9.708,0.532 11.111,-2.662 -2.58,-1.776 -6.565,-1.663 -9.884,-2.334 -0.352,0.398 -0.725,0.795 -1.078,1.193 0.04,0.002 0.098,0.017 0.137,0.019 l 1.116,-1.14 c -0.079,-0.016 -0.138,-0.019 -0.175,-0.072 -0.214,0.391 -0.449,0.781 -0.663,1.172 3.074,0.855 7.447,0.422 9.442,2.535 0.27,-0.312 0.541,-0.636 0.81,-0.947 -2.695,1.253 -6.602,0.505 -9.685,1.161 -0.835,0.184 -1.148,0.997 -0.947,1.38 C -6.86,-1.662 -3.137,-0.327 0,0 Z"
         id="path3917"
         style="fill:none;stroke:#0063aa;stroke-width:0.472;stroke-linecap:round;stroke-linejoin:round;stroke-miterlimit:10;stroke-dasharray:none;stroke-opacity:1" /></g><g
       transform="translate(784.17136,23.26163)"
       id="g3919"><path
         d="m 0,0 c -0.107,0.189 -0.017,0.386 -0.065,0.578 0.31,-0.335 0.64,-0.683 0.95,-1.018 -0.393,0.435 -0.786,0.857 -1.178,1.292 0.31,-0.361 0.621,-0.709 0.932,-1.07 -0.707,0.434 -1.592,0.848 -2.564,0.588 -4.1,-1.105 -5.614,-4.657 -4.731,-7.267 -0.29,0.337 -0.58,0.66 -0.87,0.996 3.877,-0.041 7.279,1.745 10.775,2.734 0.373,-0.423 0.919,-0.762 1.119,-1.257 L 3.254,-3.27 C 3.252,-3.232 3.251,-3.206 3.249,-3.167 3.583,-3.592 3.897,-4.005 4.23,-4.43 0.813,-5.428 -2.572,-7.174 -6.371,-7.104 c -2.771,1.702 -1.768,4.354 -0.248,6.421 0.854,1.16 2.485,2.521 4.563,2.235 C -0.591,1.343 0.355,0.428 0.885,-0.44 0.575,-0.105 0.245,0.243 -0.065,0.578 0.352,0.041 1.099,-0.392 1.032,-1.08 0.68,-0.707 0.31,-0.335 -0.041,0.037 -0.04,0.024 -0.001,0.013 0,0"
         id="path3921"
         style="fill:#0063aa;fill-opacity:1;fill-rule:nonzero;stroke:none" /></g><g
       transform="translate(784.17136,23.26163)"
       id="g3923"><path
         d="m 0,0 c -0.107,0.189 -0.017,0.386 -0.065,0.578 0.31,-0.335 0.64,-0.683 0.95,-1.018 -0.393,0.435 -0.786,0.857 -1.178,1.292 0.31,-0.361 0.621,-0.709 0.932,-1.07 -0.707,0.434 -1.592,0.848 -2.564,0.588 -4.1,-1.105 -5.614,-4.657 -4.731,-7.267 -0.29,0.337 -0.58,0.66 -0.87,0.996 3.877,-0.041 7.279,1.745 10.775,2.734 0.373,-0.423 0.919,-0.762 1.119,-1.257 L 3.254,-3.27 C 3.252,-3.232 3.251,-3.206 3.249,-3.167 3.583,-3.592 3.897,-4.005 4.23,-4.43 0.813,-5.428 -2.572,-7.174 -6.371,-7.104 c -2.771,1.702 -1.768,4.354 -0.248,6.421 0.854,1.16 2.485,2.521 4.563,2.235 C -0.591,1.343 0.355,0.428 0.885,-0.44 0.575,-0.105 0.245,0.243 -0.065,0.578 0.352,0.041 1.099,-0.392 1.032,-1.08 0.68,-0.707 0.31,-0.335 -0.041,0.037 -0.04,0.024 -0.001,0.013 0,0 Z"
         id="path3925"
         style="fill:none;stroke:#0063aa;stroke-width:0.472;stroke-linecap:round;stroke-linejoin:round;stroke-miterlimit:10;stroke-dasharray:none;stroke-opacity:1" /></g><g
       transform="translate(790.71366,29.47253)"
       id="g3927"><path
         d="m 0,0 -0.02,0.012 c 0.295,-0.437 0.887,-0.887 0.767,-1.29 -1.232,-4.187 -2.22,-8.121 -3.874,-12.109 -0.319,0.526 -0.955,1.102 -0.78,1.572 1.184,3.069 3.666,6.167 7.539,8.118 2.884,-2.83 2.728,-6.432 3.348,-9.732 -0.392,0.407 -0.764,0.802 -1.157,1.209 l 1.156,-1.196 0.001,-0.013 c -0.392,0.407 -0.961,0.794 -1.08,1.251 -0.738,2.87 -0.71,5.774 -2.268,8.481 0.294,-0.411 0.587,-0.81 0.881,-1.221 -3.82,-2.231 -6.144,-5.361 -7.64,-8.469 -0.373,0.395 -1.04,0.803 -0.939,1.167 1.25,4.24 2.275,8.201 4.046,12.232 z"
         id="path3929"
         style="fill:#0063aa;fill-opacity:1;fill-rule:nonzero;stroke:none" /></g><g
       transform="translate(790.71366,29.47253)"
       id="g3931"><path
         d="m 0,0 -0.02,0.012 c 0.295,-0.437 0.887,-0.887 0.767,-1.29 -1.232,-4.187 -2.22,-8.121 -3.874,-12.109 -0.319,0.526 -0.955,1.102 -0.78,1.572 1.184,3.069 3.666,6.167 7.539,8.118 2.884,-2.83 2.728,-6.432 3.348,-9.732 -0.392,0.407 -0.764,0.802 -1.157,1.209 l 1.156,-1.196 0.001,-0.013 c -0.392,0.407 -0.961,0.794 -1.08,1.251 -0.738,2.87 -0.71,5.774 -2.268,8.481 0.294,-0.411 0.587,-0.81 0.881,-1.221 -3.82,-2.231 -6.144,-5.361 -7.64,-8.469 -0.373,0.395 -1.04,0.803 -0.939,1.167 1.25,4.24 2.275,8.201 4.046,12.232 z"
         id="path3933"
         style="fill:none;stroke:#0063aa;stroke-width:0.472;stroke-linecap:round;stroke-linejoin:round;stroke-miterlimit:10;stroke-dasharray:none;stroke-opacity:1" /></g><g
       transform="translate(801.28516,22.16143)"
       id="g3935"><path
         d="M 0,0 C -0.02,-0.001 -0.02,0.012 -0.02,0.012 2.184,0.081 4.384,0.252 6.56,0.526 6.671,1.124 7.778,1.481 7.054,2.263 7.344,1.953 7.613,1.642 7.903,1.332 7.271,1.808 6.872,2.371 6.375,2.892 6.624,2.606 6.854,2.319 7.103,2.033 5.743,2.917 3.574,2.953 1.967,2.316 -1.307,1.028 -1.609,-1.926 -0.549,-4.023 c -0.27,0.286 -0.538,0.571 -0.808,0.856 1.85,-1.701 5.378,-0.376 7.631,0.365 L 7.431,-4.004 C 5.45,-4.643 3.152,-5.722 1.07,-4.998 c -3.263,1.15 -3.776,3.812 -2.896,6.171 0.389,1.011 1.44,1.752 2.697,2.284 C 3.599,4.605 6.747,3.385 7.638,1.539 7.368,1.85 7.077,2.174 6.807,2.485 8.206,1.603 8.927,0.485 7.635,-0.602 5.435,-0.786 3.21,-1.269 1.047,-0.948 0.591,-0.891 0.331,-0.347 -0.02,0.012 -0.02,-0.001 -0.02,-0.001 0,0"
         id="path3937"
         style="fill:#0063aa;fill-opacity:1;fill-rule:nonzero;stroke:none" /></g><g
       transform="translate(801.28516,22.16143)"
       id="g3939"><path
         d="M 0,0 C -0.02,-0.001 -0.02,0.012 -0.02,0.012 2.184,0.081 4.384,0.252 6.56,0.526 6.671,1.124 7.778,1.481 7.054,2.263 7.344,1.953 7.613,1.642 7.903,1.332 7.271,1.808 6.872,2.371 6.375,2.892 6.624,2.606 6.854,2.319 7.103,2.033 5.743,2.917 3.574,2.953 1.967,2.316 -1.307,1.028 -1.609,-1.926 -0.549,-4.023 c -0.27,0.286 -0.538,0.571 -0.808,0.856 1.85,-1.701 5.378,-0.376 7.631,0.365 L 7.431,-4.004 C 5.45,-4.643 3.152,-5.722 1.07,-4.998 c -3.263,1.15 -3.776,3.812 -2.896,6.171 0.389,1.011 1.44,1.752 2.697,2.284 C 3.599,4.605 6.747,3.385 7.638,1.539 7.368,1.85 7.077,2.174 6.807,2.485 8.206,1.603 8.927,0.485 7.635,-0.602 5.435,-0.786 3.21,-1.269 1.047,-0.948 0.591,-0.891 0.331,-0.347 -0.02,0.012 -0.02,-0.001 -0.02,-0.001 0,0 Z"
         id="path3941"
         style="fill:none;stroke:#0063aa;stroke-width:0.472;stroke-linecap:round;stroke-linejoin:round;stroke-miterlimit:10;stroke-dasharray:none;stroke-opacity:1" /></g><g
       transform="translate(812.64916,26.64373)"
       id="g3943"><path
         d="M 0,0 C -0.039,-0.002 -0.002,0.039 -0.04,0.024 0.354,-0.423 1.043,-0.871 1.023,-1.31 0.829,-4.478 0.184,-6.324 -0.761,-9.446 c -0.258,0.504 -0.834,1.047 -0.637,1.494 0.965,2.195 -0.332,3.467 2.329,5.194 1.721,1.131 3.685,2.117 5.963,2.692 1.252,-0.708 2.104,-1.703 2.447,-2.746 L 8.183,-1.597 C 8.105,-1.175 7.833,-0.8 7.521,-0.439 7.793,-0.776 8.083,-1.112 8.354,-1.448 8.253,-1.388 8.129,-1.277 8.071,-1.293 5.116,-2.128 1.84,-3.3 0.731,-5.359 c -0.926,-1.742 0.011,-2.45 -1.492,-4.087 -0.372,0.422 -1.042,0.845 -1,1.246 0.428,3.217 1.49,4.99 1.74,8.225 C -0.021,0.038 -0.039,-0.002 0,0"
         id="path3945"
         style="fill:#0063aa;fill-opacity:1;fill-rule:nonzero;stroke:none" /></g><g
       transform="translate(812.64916,26.64373)"
       id="g3947"><path
         d="M 0,0 C -0.039,-0.002 -0.002,0.039 -0.04,0.024 0.354,-0.423 1.043,-0.871 1.023,-1.31 0.829,-4.478 0.184,-6.324 -0.761,-9.446 c -0.258,0.504 -0.834,1.047 -0.637,1.494 0.965,2.195 -0.332,3.467 2.329,5.194 1.721,1.131 3.685,2.117 5.963,2.692 1.252,-0.708 2.104,-1.703 2.447,-2.746 L 8.183,-1.597 C 8.105,-1.175 7.833,-0.8 7.521,-0.439 7.793,-0.776 8.083,-1.112 8.354,-1.448 8.253,-1.388 8.129,-1.277 8.071,-1.293 5.116,-2.128 1.84,-3.3 0.731,-5.359 c -0.926,-1.742 0.011,-2.45 -1.492,-4.087 -0.372,0.422 -1.042,0.845 -1,1.246 0.428,3.217 1.49,4.99 1.74,8.225 C -0.021,0.038 -0.039,-0.002 0,0 Z"
         id="path3949"
         style="fill:none;stroke:#0063aa;stroke-width:0.472;stroke-linecap:round;stroke-linejoin:round;stroke-miterlimit:10;stroke-dasharray:none;stroke-opacity:1" /></g><g
       transform="translate(761.80986,26.24353)"
       id="g3951"><path
         d="m 0,0 -0.006,0.015 c -0.035,-0.24 0.05,-0.638 -0.149,-0.657 -0.379,-0.018 -0.944,0.166 -1.2,-0.03 -0.05,0.287 -0.085,0.565 -0.135,0.851 0.827,-0.605 1.354,-0.574 1.909,-0.663 l 0.162,-0.929 c -0.52,0.038 -1.096,0.065 -1.902,0.648 C -1.848,0.366 -1.203,0.777 0,0"
         id="path3953"
         style="fill:#0063aa;fill-opacity:1;fill-rule:nonzero;stroke:none" /></g><g
       transform="translate(761.80986,26.24353)"
       id="g3955"><path
         d="m 0,0 -0.006,0.015 c -0.035,-0.24 0.05,-0.638 -0.149,-0.657 -0.379,-0.018 -0.944,0.166 -1.2,-0.03 -0.05,0.287 -0.085,0.565 -0.135,0.851 0.827,-0.605 1.354,-0.574 1.909,-0.663 l 0.162,-0.929 c -0.52,0.038 -1.096,0.065 -1.902,0.648 C -1.848,0.366 -1.203,0.777 0,0 Z"
         id="path3957"
         style="fill:none;stroke:#0063aa;stroke-width:0.472;stroke-linecap:round;stroke-linejoin:round;stroke-miterlimit:10;stroke-dasharray:none;stroke-opacity:1" /></g></g></svg>
