<?xml version="1.0" encoding="UTF-8" standalone="no"?>
<svg
   viewBox="0 0 24 24"
   width="24pt"
   height="24pt"
   version="1.1"
   id="svg1"
   sodipodi:docname="bakers_and_baristas.svg"
   xml:space="preserve"
   inkscape:version="1.3 (0e150ed6c4, 2023-07-21)"
   xmlns:inkscape="http://www.inkscape.org/namespaces/inkscape"
   xmlns:sodipodi="http://sodipodi.sourceforge.net/DTD/sodipodi-0.dtd"
   xmlns="http://www.w3.org/2000/svg"
   xmlns:svg="http://www.w3.org/2000/svg"><defs
     id="defs1" /><sodipodi:namedview
     id="namedview1"
     pagecolor="#ffffff"
     bordercolor="#000000"
     borderopacity="0.25"
     inkscape:showpageshadow="2"
     inkscape:pageopacity="0.0"
     inkscape:pagecheckerboard="0"
     inkscape:deskcolor="#d1d1d1"
     inkscape:document-units="pt"
     inkscape:zoom="23.09375"
     inkscape:cx="14.679296"
     inkscape:cy="13.705007"
     inkscape:window-width="1920"
     inkscape:window-height="974"
     inkscape:window-x="-11"
     inkscape:window-y="1609"
     inkscape:window-maximized="1"
     inkscape:current-layer="svg1" /><path
     style="fill:#ffffff;fill-opacity:1;stroke-width:0.75"
     id="path13"
     sodipodi:type="arc"
     sodipodi:cx="10.517615"
     sodipodi:cy="14.168927"
     sodipodi:rx="1.1941397"
     sodipodi:ry="0.75781941"
     sodipodi:start="0"
     sodipodi:end="6.2753717"
     sodipodi:open="true"
     sodipodi:arc-type="arc"
     d="m 11.711755,14.168927 a 1.1941397,0.75781941 0 0 1 -1.191807,0.757818 1.1941397,0.75781941 0 0 1 -1.1964633,-0.754857 1.1941397,0.75781941 0 0 1 1.1871323,-0.760767 1.1941397,0.75781941 0 0 1 1.201102,0.751885" /><g
     id="g14"
     transform="translate(-0.19485792,0.09742896)"><path
       style="fill:#ffffff;fill-opacity:1;stroke-width:0.81449"
       id="path12"
       sodipodi:type="arc"
       sodipodi:cx="12.022137"
       sodipodi:cy="10.035367"
       sodipodi:rx="7.9804344"
       sodipodi:ry="7.830801"
       sodipodi:start="0"
       sodipodi:end="6.2753717"
       sodipodi:open="true"
       sodipodi:arc-type="arc"
       d="M 20.002571,10.035367 A 7.9804344,7.830801 0 0 1 12.037726,17.866153 7.9804344,7.830801 0 0 1 4.0417632,10.06596 7.9804344,7.830801 0 0 1 11.97537,2.2047005 7.9804344,7.830801 0 0 1 20.002327,9.9741808" /><g
       id="g13"
       transform="matrix(0.00869811,0,0,-0.00869811,4.2490097,17.8246)"
       style="fill:#041632;fill-opacity:1"><path
         d="M 796,1789 C 486,1747 235,1570 97,1295 -128,845 63,302 523,85 650,24 735,6 900,6 c 172,0 254,19 396,89 265,130 438,363 490,660 18,103 18,181 -1,288 -52,297 -237,540 -508,667 -145,68 -333,99 -481,79 z m 349,-89 c 278,-88 487,-304 567,-585 30,-105 32,-323 4,-425 C 1608,299 1252,40 855,63 485,85 175,345 89,705 71,782 69,815 73,930 c 5,157 23,224 95,365 37,73 64,108 142,186 123,124 227,185 393,230 103,27 340,22 442,-11 z"
         id="path1-1"
         style="fill:#041632;fill-opacity:1" /><path
         d="M 709,1691 C 553,1651 426,1576 313,1456 226,1365 171,1274 128,1150 97,1060 96,1048 95,905 95,729 107,671 174,535 276,327 462,175 695,108 c 109,-31 303,-31 418,0 217,59 408,213 511,412 238,458 9,1001 -489,1160 -101,32 -319,38 -426,11 z M 318,1094 c 23,-16 29,-43 12,-60 -8,-8 -6,-15 5,-24 20,-16 19,-49 -2,-72 -12,-14 -31,-18 -80,-18 h -63 v 95 95 h 53 c 31,0 61,-6 75,-16 z m 204,-65 c 20,-41 37,-82 37,-91 1,-25 -26,-23 -34,2 -5,16 -15,20 -50,20 -34,0 -47,-5 -55,-20 -11,-20 -40,-28 -40,-11 0,23 83,182 93,178 7,-2 29,-37 49,-78 z m 118,46 c 0,-19 3,-35 6,-35 4,0 24,16 45,35 22,19 44,35 49,35 22,0 8,-29 -26,-57 l -35,-28 35,-42 c 20,-22 36,-46 36,-52 0,-23 -28,-9 -59,29 -37,46 -51,44 -51,-6 0,-24 -5,-34 -15,-34 -12,0 -15,17 -15,95 0,78 3,95 15,95 10,0 15,-11 15,-35 z m 313,20 c -2,-5 -28,-11 -58,-13 -51,-3 -55,-5 -55,-27 0,-21 5,-24 43,-27 23,-2 42,-7 42,-13 0,-5 -19,-11 -42,-13 -38,-3 -43,-6 -43,-27 0,-22 5,-24 52,-27 30,-2 53,-8 56,-15 3,-10 -15,-13 -67,-13 h -71 v 95 96 l 73,-3 c 41,-2 71,-7 70,-13 z m 175,-5 c 26,-24 28,-47 6,-78 -14,-20 -14,-24 0,-44 9,-12 16,-28 16,-35 0,-24 -25,-13 -49,22 -16,23 -31,35 -47,35 -21,0 -24,-5 -24,-35 0,-24 -5,-35 -15,-35 -12,0 -15,17 -15,95 v 95 h 53 c 40,0 59,-5 75,-20 z m 203,10 c 10,-6 19,-17 19,-25 0,-17 -26,-20 -35,-5 -10,16 -65,12 -72,-5 -7,-21 -3,-24 53,-38 39,-10 51,-18 58,-39 12,-33 -11,-64 -54,-73 -35,-8 -100,18 -100,39 0,20 14,20 45,0 34,-22 77,-11 73,18 -2,17 -13,24 -43,30 -37,8 -75,38 -75,59 0,5 9,18 20,29 22,22 78,27 111,10 z m 229,-44 c 0,-18 6,-26 22,-28 32,-5 35,-28 4,-28 -21,0 -26,-5 -26,-25 0,-16 -6,-25 -15,-25 -9,0 -15,9 -15,24 0,18 -6,25 -22,28 -13,2 -23,8 -23,13 0,6 10,11 23,13 13,2 22,10 22,21 0,10 3,21 7,24 13,14 23,6 23,-17 z M 319,864 c 19,-14 22,-23 18,-50 -3,-19 -1,-36 4,-39 15,-10 10,-62 -7,-76 -10,-9 -41,-14 -78,-14 h -61 l -3,84 c -2,46 -1,90 2,98 8,19 96,17 125,-3 z m 211,-81 c 29,-63 37,-89 29,-97 -8,-8 -15,-5 -26,12 -13,18 -25,22 -64,22 -35,0 -49,-4 -49,-14 0,-16 -27,-29 -35,-17 -5,9 58,156 77,178 16,19 24,9 68,-84 z m 184,87 c 41,-15 52,-47 31,-87 -17,-31 -17,-34 -2,-51 18,-19 23,-52 9,-52 -5,0 -23,18 -41,41 -39,48 -64,48 -71,1 -9,-61 -25,-33 -28,50 -2,45 -1,87 2,95 6,15 63,17 100,3 z m 134,-93 c -4,-111 -22,-115 -26,-5 -3,88 2,118 19,101 5,-5 9,-47 7,-96 z m 192,85 c 30,-25 18,-49 -13,-27 -27,19 -61,19 -76,1 -15,-17 2,-31 48,-40 46,-8 61,-23 61,-57 0,-56 -82,-79 -134,-38 -34,27 -20,50 15,25 29,-20 63,-21 79,-1 18,21 -1,41 -46,48 -45,8 -64,23 -64,53 0,49 85,72 130,36 z m 200,3 c 0,-10 -10,-15 -30,-15 h -29 l -3,-82 c -2,-47 -7,-83 -13,-83 -6,0 -11,36 -13,83 l -3,82 h -29 c -29,0 -38,9 -23,23 3,4 37,7 75,7 54,0 68,-3 68,-15 z m 152,-83 c 25,-55 36,-88 29,-95 -6,-6 -14,-2 -23,12 -18,30 -102,31 -118,1 -14,-26 -30,-26 -30,0 0,32 79,182 92,174 6,-4 28,-45 50,-92 z m 196,82 c 22,-15 30,-44 13,-44 -5,0 -14,7 -21,16 -19,22 -75,15 -75,-10 0,-15 11,-22 45,-30 32,-8 49,-19 60,-39 14,-27 14,-29 -13,-53 -17,-15 -41,-24 -60,-24 -37,0 -77,24 -77,46 0,18 5,18 35,-2 31,-20 79,-15 83,10 5,21 -13,36 -45,36 -12,0 -34,10 -49,23 -20,18 -25,28 -19,46 12,39 82,54 123,25 z"
         id="path2"
         style="fill:#041632;fill-opacity:1" /><path
         d="m 222,1058 c 3,-26 50,-37 73,-18 24,20 6,40 -37,40 -35,0 -39,-2 -36,-22 z"
         id="path3"
         style="fill:#041632;fill-opacity:1" /><path
         d="m 220,975 c 0,-25 2,-26 48,-23 39,3 47,6 47,23 0,17 -8,20 -47,23 -46,3 -48,2 -48,-23 z"
         id="path4"
         style="fill:#041632;fill-opacity:1" /><path
         d="m 456,1022 c -21,-41 -21,-42 14,-42 33,0 37,12 16,49 l -14,25 z"
         id="path5"
         style="fill:#041632;fill-opacity:1" /><path
         d="m 1030,1050 c 0,-30 2,-31 38,-28 32,3 37,6 37,28 0,22 -5,25 -37,28 -36,3 -38,2 -38,-28 z"
         id="path6"
         style="fill:#041632;fill-opacity:1" /><path
         d="m 230,825 c 0,-22 4,-25 34,-25 19,0 38,5 41,10 11,18 -15,40 -46,40 -24,0 -29,-4 -29,-25 z"
         id="path7"
         style="fill:#041632;fill-opacity:1" /><path
         d="m 230,740 c 0,-27 3,-30 34,-30 37,0 62,21 52,45 -3,10 -19,15 -46,15 -38,0 -40,-2 -40,-30 z"
         id="path8"
         style="fill:#041632;fill-opacity:1" /><path
         d="m 457,785 -17,-35 h 30 c 33,0 37,12 17,48 -13,22 -13,22 -30,-13 z"
         id="path9"
         style="fill:#041632;fill-opacity:1" /><path
         d="m 642,818 c 3,-38 30,-48 63,-24 28,20 9,50 -34,54 -31,3 -32,2 -29,-30 z"
         id="path10"
         style="fill:#041632;fill-opacity:1" /><path
         d="m 1321,794 c -17,-37 -14,-44 18,-44 29,0 30,1 19,30 -14,41 -23,44 -37,14 z"
         id="path11"
         style="fill:#041632;fill-opacity:1" /></g></g></svg>
