<svg xmlns="http://www.w3.org/2000/svg" width="24" height="24"><path fill="#111" fill-rule="evenodd" d="M14.05 2.15c-.74.37-.97 1.3-.5 2l.26.38-.35.36q-.9.93-.35 1.9.46.8 1.33.81c.54 0 .9-.16 1.3-.6l.3-.3.38.37.38.37.3-.29.3-.29-.37-.38-.37-.38.27-.28.27-.28-.3-.29-.3-.29-.28.27-.28.27-.9-.93c-.5-.5-.94-1-.97-1.08-.03-.1.02-.27.1-.39.13-.18.22-.21.54-.17.31.04.41 0 .64-.23l.28-.29-.34-.2c-.4-.24-.92-.27-1.34-.06M5.5 9.1V16h1.08c.92 0 1.14-.04 1.59-.24a2.98 2.98 0 0 0 .9-4.84c-.4-.41-.41-.44-.22-.54a6 6 0 0 0 1.42-1.46 4.46 4.46 0 0 0-4-6.72H5.5zm1-2.44v3.37l.48-.07a3.5 3.5 0 0 0 2.51-1.85c.42-.81.42-2.05.01-2.98S7.79 3.3 6.85 3.3H6.5zm7.62-1.23c-.42.43-.43.87-.05 1.17.34.26.67.2 1.08-.2l.3-.3-.5-.5-.5-.5zm-.7 3.06a4 4 0 0 0-2.3 2.18c-.23.5-.27.7-.27 1.48 0 .8.03.97.31 1.55a3.7 3.7 0 0 0 1.43 1.7 3.9 3.9 0 0 0 5.58-1.58c.26-.52.28-.67.28-1.67s-.03-1.15-.27-1.66a4 4 0 0 0-1.88-1.83 4 4 0 0 0-2.87-.17m.11 1.1a2.8 2.8 0 0 0-1.62 2.38 2.7 2.7 0 0 0 1.5 2.67c.67.33 1.73.36 2.42.07a3 3 0 0 0 1.66-2.56 3 3 0 0 0-1.55-2.5 3.7 3.7 0 0 0-2.4-.07m-7.03 3.44.03 1.92.5-.03a1.85 1.85 0 0 0 1.81-1.63q.13-.86-.5-1.55a1.7 1.7 0 0 0-1.4-.63H6.5z"/></svg>