<svg xmlns="http://www.w3.org/2000/svg" width="24" height="24"><path fill="#d17e2a" fill-rule="evenodd" d="M11.22 6.89c-.08.04-.12.19-.1.32.04.29.45.34.61.07.2-.3-.2-.6-.51-.4M3 8v1.1h.7c.63 0 .72-.03.9-.26q.2-.28.2-.1c0 .24.28.35.93.36h.57v-.6c0-.46-.04-.63-.2-.79q-.36-.35-.95-.08c-.29.13-.3.2-.1.37.12.1.11.15-.03.3-.16.15-.18.14-.3-.19q-.23-.66-.74-.56c-.26.05-.28.03-.28-.3s-.02-.34-.35-.34H3zm11.4 0v1.09h.7c.7 0 .71 0 .9-.32q.19-.28.2-.16 0 .5 1 .46l.65-.02.03-.65.03-.65.25.6c.3.71.3.75.03.75-.17 0-.2.05-.17.33.02.26.08.33.29.35.38.04.75-.31.95-.9a7 7 0 0 1 .26-.72c.09-.17.11-.16.24.1.13.24.12.3 0 .44-.23.24-.2.28.2.4.51.13 1.04-.09 1.04-.44a.6.6 0 0 0-.15-.4c-.13-.12-.13-.15 0-.26q.37-.33-.22-.46a1 1 0 0 0-.65.09c-.24.14-.28.14-.28.01q.02-.15-.27-.08c-.49.1-.53.13-.54.36-.01.21-.02.2-.12-.05-.1-.26-.15-.28-.54-.25-.24.02-.43 0-.43-.05s-.15-.07-.32-.05c-.32.03-.33.05-.36.5-.04.6-.22.53-.22-.08 0-.45 0-.45-.32-.42-.29.03-.34.07-.4.38q-.05.3-.07.18c-.02-.3-.43-.6-.73-.55-.26.03-.28 0-.28-.3 0-.31-.02-.33-.35-.33h-.35zm-7.47-.43-.43.04v1.36c0 .05.15.1.35.11l.35.03v-.44q0-.45.15-.5.15-.09.15.19c0 .14.12.36.26.5.2.2.32.25.55.2q.3-.06.23.05-.08.1-.4.06c-.59-.1-.75.35-.18.53q.64.2 1.12-.22c.2-.19.22-.31.22-1.03v-.82l-.62-.07c-.47-.05-.67-.02-.85.1-.2.13-.23.13-.23 0q-.01-.15-.12-.14zm2.8.03q-.4.15-.08.4c.13.1.12.14-.07.3-.2.15-.21.22-.13.46.1.28.14.3.78.32l.67.03v-.6c0-.48-.04-.65-.2-.81-.21-.21-.6-.25-.97-.1m2.64-.03-.48.04.03.72.03.72h.35c.35 0 .35 0 .4-.5l.06-.5.05.5c.04.5.04.5.42.53l.37.03v-.58c0-.67-.2-1.04-.53-1.01zm-1.27.78v.75h.7V7.6h-.7zm-6.73 1.4c-.04.05-.07.3-.07.57 0 .46.01.48.28.48.15 0 .33-.05.4-.12q.13-.15.12 0 .01.11.15.12.14-.01.15-.18-.01-.2.1-.03c.04.08.06.2.03.27-.06.17.14.27.43.2.2-.06.24-.12.24-.51 0-.43-.01-.45-.28-.45-.15 0-.33.05-.4.12q-.13.16-.12-.15 0-.27-.16-.27-.15.01-.11.13.04.14-.04.28t-.09.02-.14-.13c-.07 0-.2-.1-.27-.2q-.13-.19-.22-.14m5.47.1c-.06.22-.51.47-.6.33-.03-.05-.18-.09-.35-.09q-.3 0-.3.18c0 .16 0 .16-.1 0-.1-.2-1-.23-1.11-.05q-.08.13-.08 0-.02-.12-.2-.13t-.2-.15a.15.15 0 0 0-.15-.15c-.11 0-.15.12-.15.5v.5h.34c.19 0 .37-.06.4-.12q.05-.15.05 0c.02.21.3.13.33-.1.02-.12.08-.23.14-.25q.11-.02.07.21c-.05.25-.04.26.45.25.43-.01.52-.05.55-.23q.04-.3.06.02c.01.22.31.33.31.1q0-.11.13 0c.08.07.38.1.68.1.54-.03.54-.03.56-.37.01-.31 0-.33-.28-.29-.23.04-.29 0-.29-.13 0-.25-.2-.35-.26-.12m1.62-.1a2 2 0 0 0-.06.55c0 .46.01.48.28.48.15 0 .33-.05.4-.12q.13-.15.12 0 .01.11.15.12.14-.01.15-.17c0-.24.13-.07.14.2.01.25.3.35.51.17.09-.07.15-.3.15-.51 0-.37-.02-.39-.3-.39q-.27 0-.4.18-.11.23-.1-.15 0-.34-.15-.33t-.15.24c0 .22-.02.23-.25.13q-.23-.12-.25-.24c0-.15-.15-.25-.24-.16m2.74.19q-.02.12-.22.16c-.18.02-.23.1-.23.33 0 .3.01.3.52.32.46.01.52-.01.56-.2q.04-.33.06 0-.01.24.26.23.23-.01.25-.11 0-.12.13-.02c.16.13 1.15.15 1.23.02q.06-.1.17 0c.07.05.4.08.75.08.55-.02.62-.04.63-.22q-.02-.28.1.03c.07.2.15.23.51.2.4-.03.43-.05.44-.36.02-.32 0-.34-.28-.3q-.3.04-.35-.09c-.06-.16-.3-.17-.35-.01q-.05.12-.55.1c-.47-.03-.52-.01-.56.2l-.04.23-.02-.22c-.01-.23-.31-.34-.31-.12q0 .12-.12.01c-.2-.16-1.1-.12-1.3.06-.17.15-.18.14-.12-.01q.09-.18-.2-.17c-.13 0-.27.06-.3.13q-.04.08-.05-.15c0-.23-.05-.27-.31-.26-.17 0-.3.06-.3.14"/></svg>