<svg xmlns="http://www.w3.org/2000/svg" width="24" height="24"><path fill="#e72930" fill-rule="evenodd" d="M17.36 5.36c-.32.31-.08.84.38.84q.45-.01.46-.5c0-.14-.05-.31-.12-.38-.17-.17-.54-.15-.72.04m-13.86.3q-.23.55.09.54c.17 0 .18.05.11.38l-.15.85q-.06.48-.2.47c-.18 0-.38.47-.3.67.03.1.3.13 1.07.13 1.3 0 1.76-.11 2.1-.48l.26-.3.1.24c.18.39.56.57 1.04.5.56-.08.67-.08 1.06 0q.32.06.47-.06c.18-.15.2-.57.03-.62-.1-.03-.1-.21 0-.78.06-.4.09-.78.06-.82-.08-.12-.72-.1-.76.03q-.03.13-.25 0c-.54-.28-1.34.04-1.59.65l-.15.35-.18-.23c-.19-.22-.19-.23.05-.47a1 1 0 0 0 .24-.48c0-.65-.42-.83-1.98-.83-1 0-1.03 0-1.12.26m1.2.63q0 .1-.06.25c-.05.13.01.16.3.16.47 0 .66-.09.66-.31 0-.16-.08-.19-.45-.19-.25 0-.45.04-.45.1m4.77.07c-.1.1-.08.61.03.65q.1.02 0 .76a3 3 0 0 0-.04.83c.06.1.54.12.7.01.07-.04.15-.3.2-.56.07-.53.4-.96.71-.96.15 0 .18.09.18.56 0 .49.04.59.28.8.3.26.75.31 1.08.13q.27-.17.1.1c-.15.28-.56.37-1.05.23-.46-.12-.58-.04-.54.38.03.2.1.27.45.34.6.13 1.29 0 1.64-.32.3-.28.5-.84.64-1.84q.06-.46.2-.48c.1 0 .12.07.04.32-.12.43.05 1.04.36 1.24.18.12.37.14.67.1.24-.03.52-.06.63-.06.57.02.97.02 1-.02l.09-.3c.05-.22.03-.28-.1-.28-.14 0-.15-.07-.1-.42l.13-.85.06-.43h-.35a1 1 0 0 0-.45.1q-.1.13-.31 0c-.44-.22-1.02-.06-1.4.4q-.14.21-.1-.15c.03-.3.02-.3-.45-.33-.27-.02-.54.01-.6.07q-.13.09-.27 0c-.37-.23-1.13 0-1.45.43-.17.23-.17.23-.1-.1.08-.38-.1-.5-.45-.32q-.22.13-.33 0c-.12-.1-1-.14-1.1-.03m7.5.09c-.11.27-.08.54.07.54.1 0 .12.08.05.38-.05.2-.09.54-.09.74q0 .68.75.54c.27-.05.34-.12.37-.36q.05-.32-.1-.3c-.11 0-.13-.08-.08-.37l.13-.85.06-.48h-.56c-.4 0-.56.04-.6.16m1.33.1c-.14.35-.13.44.06.44q.16 0 .1.18c-.03.1-.08.35-.11.57l-.1.63c-.05.2-.02.22.4.22.49 0 .46.04.6-.85.09-.53.22-.75.45-.75.28 0 .3.12.19.76-.1.55-.1.6.11.76.25.2.7.24.88.06.15-.15.16-.58 0-.58q-.11.02-.04-.6c.06-.55.05-.62-.18-.85a.9.9 0 0 0-1.07-.15q-.2.1-.19 0c0-.05-.22-.1-.5-.1-.45 0-.52.03-.6.26m-10.74.66c-.2.28-.2.62-.01.78.12.1.2.1.4-.04.2-.13.25-.25.25-.56 0-.36-.03-.4-.24-.4-.14 0-.32.1-.4.22m4.76-.1c-.3.37-.22.98.14.98.21 0 .52-.57.46-.85s-.41-.35-.6-.12m2.8.05c-.1.17-.15.47-.13.68.02.18.32.26.48.12.2-.17.35-.57.28-.8-.08-.23-.51-.24-.64 0M4.5 7.44c0 .08-.03.22-.06.3-.06.15 0 .17.47.14.5-.03.54-.05.54-.28s-.04-.25-.47-.28c-.37-.02-.48 0-.48.12m2.55 2.11c-.13.46-.13.57.04.62.15.04.16.12.09.7-.1.77-.24 1.16-.38 1.08-.12-.08-.33.43-.25.63.04.1.31.13 1.4.1l1.37-.03.32-.35.32-.35.35.37c.33.35.4.38.88.38.67 0 1.08-.23 1.32-.75.16-.34.19-.37.19-.15.01.54.53.9 1.29.9.42 0 .56-.05.86-.3.47-.42.63-1 .4-1.48-.4-.84-1.98-.79-2.37.09l-.13.29-.15-.33c-.43-.91-1.92-.85-2.4.1l-.17.32-.2-.2-.2-.2.23-.24c.44-.44.2-1.24-.38-1.25l-1.32-.03c-.66-.01-1.1.02-1.11.08m1.15.9c0 .22.04.25.39.25.4 0 .68-.2.56-.4-.03-.05-.26-.1-.5-.1-.41 0-.45.02-.45.25m10.02.05c-.39.24-.72.75-.72 1.11 0 .3-.2.39-.8.38h-.35l.62-.57c.33-.31.64-.67.68-.8l.07-.23-1.14.03-1.13.03v.34c0 .3.03.34.28.35.16.01.3-.02.33-.06q.05-.07.17-.08c.07 0-.14.25-.46.55q-.94.92-.34 1.09c.31.08 1.7.07 1.84-.02.06-.04.14-.19.18-.33l.06-.26.34.34c.3.3.38.33.98.33.72 0 .97-.14.97-.55 0-.22-.02-.23-.58-.18-.45.04-.6.02-.71-.1-.12-.15-.06-.17.68-.17H20v-.3q0-.7-.5-.95c-.4-.2-.88-.19-1.28.05m-7.18.75c-.3.44.06 1.04.43.73.2-.17.35-.57.28-.8-.1-.27-.51-.23-.7.07m2.71-.03c-.2.28-.2.62-.01.78.12.1.2.1.4-.04.22-.14.26-.24.23-.54s-.08-.38-.25-.4q-.2-.03-.37.2m-5.32.16c-.33.02-.43.08-.47.24-.09.31-.04.33.52.3.46-.04.51-.06.51-.27 0-.29-.04-.3-.56-.27"/></svg>