<?xml version="1.0" encoding="UTF-8" standalone="no"?>
<svg
   viewBox="0 0 24 24"
   width="24pt"
   height="24pt"
   version="1.1"
   id="svg1"
   sodipodi:docname="barista_bar.svg"
   xml:space="preserve"
   inkscape:version="1.3 (0e150ed6c4, 2023-07-21)"
   inkscape:export-filename="barista_bar.svg"
   inkscape:export-xdpi="96"
   inkscape:export-ydpi="96"
   xmlns:inkscape="http://www.inkscape.org/namespaces/inkscape"
   xmlns:sodipodi="http://sodipodi.sourceforge.net/DTD/sodipodi-0.dtd"
   xmlns="http://www.w3.org/2000/svg"
   xmlns:svg="http://www.w3.org/2000/svg"><defs
     id="defs1" /><sodipodi:namedview
     id="namedview1"
     pagecolor="#ffffff"
     bordercolor="#000000"
     borderopacity="0.25"
     inkscape:showpageshadow="2"
     inkscape:pageopacity="0.0"
     inkscape:pagecheckerboard="0"
     inkscape:deskcolor="#d1d1d1"
     inkscape:document-units="pt"
     inkscape:zoom="11.546875"
     inkscape:cx="3.9837618"
     inkscape:cy="14.679296"
     inkscape:window-width="1920"
     inkscape:window-height="974"
     inkscape:window-x="-11"
     inkscape:window-y="1609"
     inkscape:window-maximized="1"
     inkscape:current-layer="svg1" /><g
     transform="matrix(0.00856725,0,0,-0.00856725,3.1388474,12.682066)"
     fill="#000000"
     stroke="none"
     id="g16"><path
       d="m 833,425 c -63,-27 -50,-101 22,-125 19,-6 35,-16 35,-21 0,-16 -30,-22 -55,-11 -19,9 -26,7 -40,-9 -17,-18 -17,-19 20,-35 61,-25 125,3 125,55 0,36 -10,48 -53,66 -20,8 -37,20 -37,25 0,18 29,23 46,9 14,-11 18,-10 30,6 23,31 20,34 -46,50 -8,2 -29,-2 -47,-10 z"
       id="path1-2" /><path
       d="M 120,320 V 210 h 49 c 27,0 61,4 76,10 35,13 49,54 31,90 -7,16 -11,40 -9,54 9,45 -20,66 -89,66 h -58 z m 88,48 c -7,-19 -38,-22 -38,-4 0,10 9,16 21,16 12,0 19,-5 17,-12 z m 22,-83 c 0,-10 -10,-15 -30,-15 -20,0 -30,5 -30,15 0,10 10,15 30,15 20,0 30,-5 30,-15 z"
       id="path2" /><path
       d="m 328,338 c -21,-51 -40,-101 -44,-110 -5,-15 0,-18 24,-18 22,0 32,6 37,20 5,16 15,20 50,20 34,0 44,-4 48,-20 5,-19 45,-29 60,-14 3,3 -14,51 -37,107 -39,94 -45,102 -72,105 -28,2 -30,-1 -66,-90 z m 81,-20 c 1,-5 -6,-8 -14,-8 -16,0 -19,9 -8,36 6,16 7,16 14,-2 4,-10 8,-22 8,-26 z"
       id="path3" /><path
       d="M 520,320 V 210 h 25 c 21,0 25,5 25,30 0,41 31,41 47,0 9,-23 17,-30 38,-30 25,0 26,2 19,28 -8,30 -8,49 2,105 5,32 2,43 -17,63 -19,20 -32,24 -81,24 h -58 z m 105,35 c 0,-14 -8,-21 -27,-23 -24,-3 -28,0 -28,23 0,23 4,26 28,23 19,-2 27,-9 27,-23 z"
       id="path4" /><path
       d="m 712,323 c 3,-103 4,-108 26,-111 22,-3 22,-2 22,107 v 111 h -25 -26 z"
       id="path5" /><path
       d="m 960,405 c 0,-21 5,-25 30,-25 h 30 v -86 c 0,-83 1,-85 23,-82 20,3 22,9 25,85 3,81 3,82 30,85 19,2 27,9 27,23 0,18 -8,20 -82,23 -83,3 -83,3 -83,-23 z"
       id="path6" /><path
       d="m 1141,331 c -22,-55 -41,-105 -41,-110 0,-19 49,-12 60,9 15,28 85,28 100,0 11,-21 60,-28 60,-9 0,5 -19,55 -41,110 -38,91 -44,99 -69,99 -25,0 -31,-8 -69,-99 z m 82,-1 c 4,-15 0,-20 -13,-20 -13,0 -17,5 -13,20 3,11 9,20 13,20 4,0 10,-9 13,-20 z"
       id="path7" /><path
       d="M 1390,325 V 220 h 65 c 52,0 69,4 85,20 24,24 25,49 6,76 -9,11 -12,30 -9,47 9,46 -19,67 -89,67 h -58 z m 100,46 c 0,-9 -24,-21 -41,-21 -5,0 -9,7 -9,15 0,9 9,15 25,15 14,0 25,-4 25,-9 z m 10,-86 c 0,-10 -10,-15 -30,-15 -20,0 -30,5 -30,15 0,10 10,15 30,15 20,0 30,-5 30,-15 z"
       id="path8" /><path
       d="m 1631,408 c -5,-13 -25,-60 -44,-105 -19,-45 -32,-84 -29,-87 14,-15 54,-5 59,14 8,29 83,29 101,0 11,-19 62,-29 62,-12 0,4 -19,53 -42,110 -39,95 -44,102 -70,102 -20,0 -31,-7 -37,-22 z m 49,-84 c 0,-8 -7,-14 -15,-14 -17,0 -18,2 -9,24 7,18 24,12 24,-10 z"
       id="path9" /><path
       d="m 1792,323 c 3,-103 4,-108 26,-111 19,-3 22,1 22,27 0,42 31,42 47,1 9,-23 17,-30 38,-30 25,0 27,3 20,28 -8,32 -8,52 1,108 9,60 -19,84 -98,84 h -59 z m 103,32 c 0,-14 -8,-21 -27,-23 -24,-3 -28,0 -28,23 0,23 4,26 28,23 19,-2 27,-9 27,-23 z"
       id="path10" /><path
       d="m 1964,419 c -10,-17 23,-46 37,-32 7,7 9,19 6,27 -7,18 -33,21 -43,5 z"
       id="path11" /><path
       d="m 458,178 c -8,-7 -21,-22 -27,-33 -12,-19 -12,-19 -8,2 3,13 1,26 -4,29 -15,9 -23,-25 -11,-49 5,-12 13,-30 16,-39 6,-20 51,-25 61,-8 5,8 11,8 20,0 7,-6 20,-8 29,-4 12,5 16,1 14,-17 -4,-31 23,-32 37,-2 13,31 23,29 17,-2 -2,-14 0,-25 6,-25 10,0 20,9 50,45 10,12 16,13 32,3 15,-10 22,-10 31,-1 9,9 16,9 29,0 14,-8 24,-7 45,7 15,10 24,20 21,24 -4,3 -12,0 -18,-6 -7,-7 -19,-12 -28,-11 -9,0 -6,4 8,9 28,12 30,50 2,50 -10,0 -23,-7 -28,-16 -8,-15 -10,-15 -15,0 -9,24 -33,19 -57,-11 l -21,-28 16,32 c 8,18 15,37 15,43 0,17 -40,11 -47,-7 -5,-14 -7,-13 -14,5 -11,30 -35,18 -51,-24 -11,-31 -13,-33 -20,-14 -10,28 -34,25 -59,-10 -24,-32 -45,-44 -54,-30 -3,5 7,16 23,24 32,17 45,38 36,61 -7,18 -25,19 -46,3 z m 14,-40 c -7,-7 -12,-8 -12,-2 0,14 12,26 19,19 2,-3 -1,-11 -7,-17 z m 148,-27 c -6,-12 -15,-21 -21,-21 -6,0 -3,7 5,16 9,8 16,20 16,26 0,6 3,9 6,6 3,-4 1,-16 -6,-27 z"
       id="path12" /><path
       d="m 1011,136 c -12,-26 -19,-52 -16,-56 8,-13 76,-4 86,11 4,7 6,16 3,18 -3,3 -9,-1 -14,-9 -8,-13 -10,-12 -10,2 0,9 7,24 16,32 18,19 9,40 -14,31 -8,-3 -19,0 -23,7 -5,8 -15,-4 -28,-36 z m 27,-21 c -6,-14 -13,-24 -14,-22 -6,6 9,47 17,47 5,0 3,-11 -3,-25 z"
       id="path13" /><path
       d="m 1177,138 c -14,-29 -16,-30 -16,-10 -1,33 -25,26 -44,-13 -9,-20 -17,-37 -17,-38 0,-2 18,-4 39,-5 35,-2 40,0 49,28 14,38 20,39 14,0 -4,-29 -4,-29 40,-26 24,1 49,6 56,10 7,4 12,3 12,-2 0,-5 38,-9 85,-9 69,0 88,4 101,19 10,11 12,18 6,18 -7,0 -12,-5 -12,-12 0,-6 -3,-9 -6,-6 -3,3 2,22 10,42 13,31 13,36 0,36 -7,0 -14,-4 -14,-10 0,-5 -9,-10 -20,-10 -12,0 -26,-12 -35,-30 -21,-41 -27,-38 -9,5 17,41 17,45 3,45 -5,0 -17,-16 -25,-35 -17,-41 -27,-46 -18,-10 9,35 -11,31 -26,-5 -7,-17 -15,-29 -17,-26 -3,2 1,14 7,26 15,28 3,41 -16,16 -12,-17 -14,-17 -20,-3 -10,27 -42,20 -59,-13 -19,-36 -24,-38 -18,-5 3,14 -1,31 -10,40 -21,20 -21,20 -40,-17 z m 94,-35 c -12,-20 -14,-14 -5,12 4,9 9,14 11,11 3,-2 0,-13 -6,-23 z m 180,-6 c -10,-9 -11,-8 -5,6 3,10 9,15 12,12 3,-3 0,-11 -7,-18 z"
       id="path14" /><path
       d="m 1539,130 c -15,-50 -3,-69 33,-53 16,7 28,7 39,0 13,-8 24,-6 44,7 15,10 24,20 21,24 -4,3 -12,0 -18,-6 -7,-7 -19,-12 -27,-11 -10,0 -7,4 7,9 28,12 30,50 3,50 -10,0 -26,-10 -35,-22 -10,-15 -14,-17 -10,-6 4,11 0,20 -10,24 -9,3 -13,10 -10,15 3,5 -2,9 -10,9 -9,0 -20,-16 -27,-40 z m 28,-22 c -3,-8 -6,-5 -6,6 -1,11 2,17 5,13 3,-3 4,-12 1,-19 z"
       id="path15" /><path
       d="m 843,124 c -24,-38 -12,-50 50,-52 44,0 59,4 74,20 17,20 17,21 1,15 -14,-5 -18,-1 -18,18 0,34 -16,31 -35,-5 -19,-37 -28,-39 -15,-4 13,33 14,32 -16,32 -15,0 -31,-9 -41,-24 z m 30,-9 c -3,-9 -8,-14 -10,-11 -3,3 -2,9 2,15 9,16 15,13 8,-4 z"
       id="path16" /></g></svg>
