<?xml version="1.0" encoding="UTF-8" standalone="no"?>
<svg
   viewBox="0 0 19.999998 20.000002"
   width="19.999998pt"
   height="20.000002pt"
   version="1.1"
   id="svg133"
   xmlns="http://www.w3.org/2000/svg"
   xmlns:svg="http://www.w3.org/2000/svg">
  <defs
     id="defs137" />
  <g
     id="g1"
     transform="translate(-1.2313433,-0.00953649)">
    <path
       d="m 16.97637,4.7925386 c 0.0779,0.05967 0.115327,0.1031039 0.132299,0.1984512 0.02306,0.2481128 0.02899,0.4978797 0.03032,0.7469466 1.53e-4,0.019367 2.29e-4,0.038735 3.81e-4,0.058688 0.0015,0.561269 -0.04094,1.1215107 -0.07771,1.6812776 -0.0013,0.018996 -0.0025,0.037986 -0.0038,0.057557 -0.0013,0.018818 -0.0025,0.037631 -0.0037,0.057021 -0.0012,0.018618 -0.0025,0.037236 -0.0037,0.056415 -0.0024,0.037007 -0.0049,0.074013 -0.0073,0.1110184 -0.0205,0.3116965 -0.03557,0.6232305 -0.04468,0.9354921 0.0876,-0.01637 0.164104,-0.041229 0.246771,-0.074936 0.02631,-0.010576 0.05261,-0.021146 0.07972,-0.032043 0.05465,-0.022124 0.109241,-0.04438 0.163825,-0.066667 0.225013,-0.090246 0.44701,-0.1704913 0.692123,-0.1667534 0.01599,1.75e-4 0.03198,3.655e-4 0.04845,5.56e-4 0.221195,0.00694 0.398868,0.094741 0.555172,0.2516448 0.151266,0.1994853 0.248742,0.4560114 0.213955,0.7091342 -0.07244,0.2461955 -0.335651,0.387928 -0.544706,0.5036202 -0.02703,0.013447 -0.05413,0.02674 -0.08131,0.039879 -0.03888,0.019144 -0.03888,0.019144 -0.07855,0.038672 -0.02376,0.010942 -0.04753,0.021884 -0.07201,0.033164 -0.06201,0.039707 -0.06201,0.039707 -0.07735,0.1192087 6.87e-4,0.106821 0.03013,0.134281 0.102068,0.207925 0.267136,0.234017 0.591893,0.398534 0.912753,0.545137 0.323601,0.148317 0.323601,0.148317 0.396903,0.29492 0.01809,0.1429 -0.0034,0.257499 -0.0882,0.374851 -0.104157,0.108892 -0.187603,0.157302 -0.340398,0.163998 -0.208673,-0.004 -0.373182,-0.09871 -0.520761,-0.242809 -0.03572,-0.0373 -0.07115,-0.0749 -0.106289,-0.112748 -0.167728,-0.173961 -0.335948,-0.329016 -0.531959,-0.469943 -0.02291,-0.01703 -0.04582,-0.03405 -0.06942,-0.05159 -0.306689,-0.221497 -0.62727,-0.369729 -0.988982,-0.477609 0.05506,0.329775 0.204398,0.613868 0.384413,0.892168 0.06243,0.101203 0.07867,0.204039 0.05659,0.320587 -0.05185,0.06989 -0.116218,0.10489 -0.198451,0.132301 -0.05,0.0032 -0.100114,0.0049 -0.150216,0.0055 -0.02652,5.71e-4 -0.05304,0.0011 -0.08036,0.0017 -0.123646,-0.01145 -0.208867,-0.05945 -0.290354,-0.151939 -0.484792,-0.592642 -0.283251,-1.8652755 -0.260176,-2.5922592 0.008,-0.2555526 0.01262,-0.511084 0.01654,-0.7667304 0.03333,-2.1655685 0.03333,-2.1655685 0.167835,-2.9514714 0.0032,-0.019179 0.0064,-0.038363 0.0097,-0.058124 0.02148,-0.1122431 0.05215,-0.1886233 0.123956,-0.2781392 0.08627,-0.05272 0.187876,-0.063855 0.286651,-0.0441 z m 0.286651,4.4430937 c -0.01556,0.0081 -0.03113,0.016199 -0.04717,0.024544 -0.112368,0.06065 -0.223978,0.122798 -0.291684,0.2348044 -0.01976,0.085486 -0.01861,0.1673043 -0.01671,0.2546957 2.29e-4,0.017383 3.82e-4,0.03476 6.29e-4,0.052668 5.34e-4,0.042625 0.0013,0.085245 0.0022,0.1278647 0.407006,-0.098018 0.919101,-0.2309852 1.190705,-0.5733024 0.03882,-0.077646 0.02057,-0.1604061 0,-0.2425513 -0.04679,-0.061888 -0.07974,-0.08219 -0.155729,-0.097158 -0.243898,-0.016044 -0.471888,0.108762 -0.682175,0.2184341 z"
       fill="#000000"
       id="path1"
       style="stroke-width:0.0220501" />
    <path
       d="m 4.0453689,4.7631671 c 0.081395,0.011085 0.1121396,0.031459 0.1639982,0.095522 0.093177,0.1698112 0.1259519,0.3618533 0.1543505,0.5512523 0.00458,0.029389 0.00458,0.029389 0.00924,0.059367 0.1381861,0.9392307 0.063312,1.9108208 7.6e-5,2.854141 -0.00406,0.060561 -0.00808,0.1211239 -0.012097,0.1816869 -0.00286,0.042836 -0.00286,0.042836 -0.00575,0.086539 -0.01343,0.2112888 -0.018807,0.4213005 -0.013545,0.632932 0.020283,-0.013539 0.020283,-0.013539 0.040971,-0.027352 0.3727257,-0.2446723 0.8414679,-0.3075021 1.2759178,-0.2331142 0.2298469,0.056981 0.3948026,0.1702855 0.518521,0.3708896 0.1654281,0.3067929 0.1402619,0.6976563 0.043151,1.0228313 -0.159074,0.47982 -0.4110025,0.894792 -0.8592647,1.147293 -0.2624244,0.128036 -0.5251989,0.149573 -0.8125797,0.151854 -0.026351,6.29e-4 -0.052697,0.0013 -0.079846,0.0019 -0.2971126,0.0021 -0.5496628,-0.07156 -0.7704615,-0.273429 -0.1638438,-0.168663 -0.2303034,-0.363685 -0.2421201,-0.59673 0.00759,-0.177907 0.045713,-0.352025 0.079102,-0.526586 0.196646,-1.0351585 0.2370379,-2.0868131 0.2374372,-3.1378635 1.26e-5,-0.015123 2.63e-5,-0.030247 2.97e-5,-0.045827 C 3.772798,6.6949026 3.7659039,6.312067 3.7514212,5.9287178 3.7450664,5.7579919 3.7414457,5.5873627 3.740971,5.4165213 3.7408188,5.3846673 3.740514,5.35281 3.7400558,5.3209567 3.7345075,4.925769 3.7345075,4.925769 3.8446115,4.7997914 3.9043526,4.7482325 3.9698764,4.7602156 4.0453123,4.7631728 Z m 0.2590892,5.2662679 c -0.143457,0.196264 -0.1538523,0.414594 -0.1391917,0.650478 0.023457,0.120911 0.064655,0.221644 0.1543505,0.308701 0.114411,0.06865 0.2439944,0.05758 0.3702867,0.03126 0.3188458,-0.09224 0.5715133,-0.306976 0.7404872,-0.589409 0.080739,-0.158161 0.1284727,-0.325257 0.078553,-0.5002616 C 5.4661765,9.8260194 5.4038294,9.781155 5.3077369,9.7262449 5.0022339,9.6447775 4.5191154,9.7941563 4.3044581,10.029435 Z"
       fill="#000000"
       id="path2"
       style="stroke-width:0.0220501" />
    <path
       d="m 11.199246,4.9027895 c 0.05691,0.056907 0.05103,0.096775 0.05246,0.174533 -3e-5,0.019265 -6e-5,0.038523 -7.6e-5,0.058371 1.9e-5,0.03079 1.9e-5,0.03079 3.8e-5,0.062205 -0.0038,0.2705249 -0.03469,0.5394391 -0.06318,0.8082629 -0.02482,0.2347913 -0.04391,0.4688995 -0.05537,0.7047363 0.02679,-0.00343 0.05357,-0.00691 0.08116,-0.010473 0.100363,-0.012875 0.200767,-0.025408 0.301186,-0.037843 0.04327,-0.00543 0.08653,-0.010902 0.129781,-0.016496 0.559029,-0.072137 0.559029,-0.072137 0.733699,0.015198 0.08276,0.074485 0.11674,0.124232 0.130922,0.2356607 -0.01183,0.096377 -0.0325,0.1389743 -0.09785,0.2108535 -0.116966,0.050158 -0.230842,0.08116 -0.355643,0.1040489 -0.01659,0.0032 -0.03317,0.00635 -0.05026,0.00962 -0.05256,0.010033 -0.105154,0.019848 -0.157754,0.029652 -0.03464,0.00656 -0.06928,0.013133 -0.10392,0.019722 -0.05122,0.00974 -0.102441,0.01947 -0.15367,0.02916 -0.112395,0.021272 -0.224746,0.042739 -0.336987,0.064809 -0.02652,0.00521 -0.05303,0.010376 -0.08036,0.015718 -0.06086,0.010936 -0.06086,0.010936 -0.106466,0.035961 -0.01172,0.039215 -0.01172,0.039215 -0.01723,0.087339 -0.0026,0.018693 -0.0053,0.037391 -0.0079,0.056649 -0.0026,0.0207 -0.0052,0.0414 -0.0079,0.062731 -0.0028,0.021964 -0.0056,0.043934 -0.0085,0.066565 -0.0086,0.070562 -0.01672,0.1411673 -0.02461,0.2118173 -0.0024,0.020855 -0.0048,0.041704 -0.0073,0.06319 -0.04029,0.3686045 -0.04143,0.7378612 -0.04234,1.1082217 -1.52e-4,0.024286 -2.29e-4,0.048573 -3.81e-4,0.073592 -0.0018,0.4942024 0.01095,0.9984872 0.248416,1.4451072 0.01023,0.01953 0.02046,0.03906 0.03101,0.05917 0.09493,0.16992 0.205811,0.285463 0.387944,0.359778 0.107093,0.01903 0.215409,0.028 0.323645,0.03812 0.215476,0.0236 0.215476,0.0236 0.293758,0.116237 0.02431,0.06878 0.01775,0.128265 0,0.19845 -0.0738,0.133738 -0.17851,0.198535 -0.319124,0.249356 -0.285498,0.0781 -0.58761,0.05273 -0.848928,-0.08889 -0.425817,-0.268289 -0.631263,-0.70865 -0.740648,-1.184589 -0.132243,-0.6116622 -0.135828,-1.2451101 -0.100616,-1.8671944 9.73e-4,-0.017772 0.0019,-0.035549 0.003,-0.053858 0.0408,-0.7362635 0.0408,-0.7362635 0.08799,-0.9135878 -0.02436,0.00475 -0.04872,0.00955 -0.07382,0.014471 -0.205862,0.037802 -0.4071619,0.058739 -0.6166279,0.059949 -0.021421,2.974e-4 -0.042836,5.72e-4 -0.064907,9.152e-4 C 9.4454862,7.579286 9.3575101,7.5734918 9.258819,7.5047064 9.1866201,7.4023106 9.1788296,7.2725023 9.1926688,7.1519047 9.252367,7.0399704 9.3416964,7.0114644 9.4572703,6.9755042 c 0.067493,-0.016262 0.1353731,-0.028536 0.2037907,-0.040222 0.018733,-0.00332 0.037465,-0.00666 0.05677,-0.010096 0.059202,-0.010484 0.1184435,-0.020734 0.177687,-0.03099 0.040256,-0.00712 0.080508,-0.014254 0.120758,-0.021404 0.03824,-0.00674 0.07648,-0.013482 0.114729,-0.020197 0.01803,-0.00315 0.03606,-0.00634 0.05464,-0.0096 0.126342,-0.021838 0.126342,-0.021838 0.175685,-0.021838 8.58e-4,-0.027072 8.58e-4,-0.027072 0.0017,-0.054693 0.06549,-1.4125956 0.06549,-1.4125956 0.417228,-1.885714 0.14214,-0.084515 0.281175,-0.04819 0.418953,0.02205 z"
       fill="#000000"
       id="path3"
       style="stroke-width:0.0220501" />
    <path
       d="m 8.4526307,8.4625008 c 0.426787,0.2657002 0.5180771,0.9100175 0.644966,1.353324 0.1695419,0.5896662 0.4509837,0.9388412 0.9820033,1.2414372 0.08581,0.05829 0.142052,0.113266 0.161845,0.216625 -0.0163,0.08877 -0.05515,0.142648 -0.122654,0.199829 -0.2226117,0.115281 -0.5100388,0.123499 -0.7538376,0.0739 C 9.144022,11.46684 9.0046873,11.286101 8.8729605,11.100243 8.8590327,11.080956 8.8451048,11.061674 8.8307537,11.041801 8.796852,10.994807 8.7631552,10.94768 8.7296334,10.900414 8.603285,10.981658 8.483089,11.068336 8.3647788,11.160859 8.0168338,11.432731 7.6537844,11.702802 7.1861266,11.650117 6.9986318,11.616707 6.8316919,11.529695 6.7037803,11.386894 6.565072,11.186991 6.5491507,10.965943 6.581127,10.72677 6.6705428,10.283223 6.9011162,9.9027193 7.2081773,9.5774084 7.2193025,9.5655797 7.2304333,9.553751 7.2418959,9.5415677 7.4332225,9.3402068 7.6407076,9.1618421 7.8696777,9.0041071 c -0.0024,-0.02042 -0.0024,-0.02042 -0.0048,-0.041257 -0.00654,-0.059697 -0.012052,-0.1194118 -0.017228,-0.1792427 -0.00177,-0.01788 -0.00355,-0.035755 -0.00532,-0.054179 -0.00532,-0.091419 -0.00177,-0.1481907 0.056329,-0.2214479 0.12753,-0.1186328 0.3964431,-0.1148073 0.5540081,-0.045479 z M 8.0019827,9.2687074 C 7.6214294,9.6292566 7.2385315,10.038973 7.2225903,10.595659 c -0.00183,0.135334 0.00246,0.231053 0.07379,0.348855 0.041641,0.05067 0.041641,0.05067 0.1102498,0.05237 0.2035333,-0.0072 0.3736832,-0.131089 0.5292028,-0.25082 0.013842,-0.01043 0.027684,-0.02086 0.041944,-0.03161 C 8.1667794,10.563163 8.3746318,10.319999 8.4059452,10.072932 8.393779,9.8521328 8.2825334,9.6420463 8.1770025,9.4519975 8.166152,9.4321382 8.166152,9.4321382 8.1550783,9.4118784 8.1121336,9.3375837 8.0797431,9.3028767 8.0019822,9.268704 Z"
       fill="#000000"
       id="path4"
       style="stroke-width:0.0220501" />
    <path
       d="m 14.407017,8.4437236 c 0.219421,0.095287 0.344504,0.3278608 0.430494,0.5383323 0.09209,0.2446448 0.164137,0.4949432 0.232904,0.7469471 0.151292,0.551307 0.367083,0.95003 0.870461,1.24316 0.110644,0.06525 0.214041,0.129327 0.28579,0.236952 0.0135,0.08678 0.0044,0.124721 -0.03997,0.201207 -0.12848,0.134128 -0.300088,0.156369 -0.477688,0.161812 -0.01928,2.67e-4 -0.03855,5.34e-4 -0.0584,8.01e-4 -0.01841,4.12e-4 -0.03681,8.01e-4 -0.05577,0.0013 -0.206449,-0.0021 -0.388516,-0.09014 -0.53682,-0.232765 -0.07039,-0.08529 -0.134519,-0.174413 -0.198451,-0.2646 -0.02607,-0.03501 -0.05223,-0.06993 -0.07855,-0.104738 -0.01791,-0.02389 -0.03583,-0.04778 -0.05374,-0.07166 -0.134136,0.08369 -0.25941,0.177828 -0.384498,0.274249 -0.348769,0.267926 -0.69577,0.520164 -1.159008,0.475454 -0.199099,-0.03503 -0.36876,-0.127104 -0.494749,-0.28665 -0.141207,-0.20713 -0.13663,-0.449045 -0.09742,-0.689066 0.125473,-0.550018 0.476477,-0.9769571 0.878817,-1.3560805 0.01291,-0.012269 0.02582,-0.024544 0.03912,-0.037185 0.08063,-0.074641 0.160954,-0.1278807 0.257172,-0.1819346 0.06155,-0.036887 0.06155,-0.036887 0.100604,-0.095091 0.01604,-0.1028718 7.3e-5,-0.2034521 -0.01516,-0.3055139 -0.0082,-0.066654 -0.0075,-0.089794 0.01792,-0.1545233 0.135165,-0.154033 0.3489,-0.1448377 0.536953,-0.1003458 z m -0.594835,0.998628 c -0.333364,0.3338958 -0.589149,0.7404624 -0.589911,1.2241414 0.0017,0.110129 0.01334,0.185022 0.07173,0.278021 0.08475,0.0565 0.126694,0.04914 0.224893,0.03635 0.329674,-0.07633 0.613877,-0.379315 0.78941,-0.653751 0.09222,-0.148485 0.105382,-0.270611 0.06615,-0.4410019 -0.06903,-0.2202851 -0.193122,-0.4189782 -0.308702,-0.6174026 -0.113583,0 -0.176454,0.096649 -0.253575,0.1736442 z"
       fill="#000000"
       id="path5"
       style="stroke-width:0.0220501" />
  </g>
</svg>
