<svg xmlns="http://www.w3.org/2000/svg" width="24" height="24"><path fill="#ba0f26" fill-rule="evenodd" d="M12.16 3.24 11 4.48v1l-.72-.74c-.4-.41-.75-.73-.8-.72s-.71.7-1.48 1.53l-1.4 1.5v3.45h.24c.2 0 .25.06.28.28l.03.27 1.5.05a5 5 0 0 1 1.38.13c-.1.06-.13.61-.13 2.18v2.09h.25c.2 0 .25.05.25.25V16h7v-4.09l-1.9-2.06-1.91-2.05h2.71V4.98L15.09 3.7a36 36 0 0 1-1.36-1.49c-.08-.1-.2-.2-.27-.2s-.65.56-1.3 1.24m.45.72-.81.87V6.3H15V4.83l-.71-.79-.79-.87a3 3 0 0 0-.89.79M8.56 6.45 7.6 7.5v1.9h3.9V7.54l-.96-1.07a24 24 0 0 0-.99-1.07c-.01 0-.46.47-.99 1.05m3.66 4.19-1.12 1.24v2.32h4.7v-2.26l-1.15-1.25a21 21 0 0 0-1.24-1.27c-.04-.01-.58.53-1.2 1.22"/></svg>