<svg xmlns="http://www.w3.org/2000/svg" width="24" height="24"><path fill="#92001b" fill-rule="evenodd" d="M4.9 5.59c-.74.24-1.48.9-1.76 1.57-.2.48-.18 1.6.05 2.1a3 3 0 0 0 1.24 1.3c.5.26 1.57.3 2.14.09a2.67 2.67 0 0 0 .18-4.9c-.43-.2-1.44-.3-1.85-.16m.17.12a2.5 2.5 0 0 0-1.94 2.67c.06.71.25 1.1.79 1.63 1 .97 2.63.88 3.6-.19 1.11-1.23.69-3.27-.8-3.9a2.7 2.7 0 0 0-1.65-.21m4.36.46c-.22.15-.23.21-.23 1.64 0 1.36.02 1.5.2 1.59.24.13 2.5.13 2.85 0 .26-.1.26-.1.23-1.07l-.03-.98-1.3-.05-1.3-.05-.03-.62C9.8 6.28 9.76 6 9.72 6a1 1 0 0 0-.3.16m3.56 0-.28.18v1.47c0 1.39.01 1.48.2 1.58.34.18 2.98.1 3.1-.1.14-.22.12-1.74-.02-1.88q-.12-.12-1.35-.12H13.4v-.65c0-.36-.03-.65-.07-.65s-.2.08-.35.18M4.5 6.5q-.02.08-.15.04c-.2-.08-.19.15.02.39.17.18.17.2-.01.33-.18.12-.18.14-.02.2.15.06.17.2.14 1-.03 1.06-.02 1.08.69 1.19.39.06.42.08.33.26q-.12.2.05.19.14-.02.15-.17-.02-.26.1 0c.13.21.3.14.24-.1-.04-.13.1-.27.45-.5.27-.18.55-.33.6-.33q.1 0 .11-.1-.01-.09-.14-.1a.3.3 0 0 1-.22-.12q-.1-.12.34-.04.67.1.26-.28c-.12-.12-.2-.14-.36-.05-.25.13-.34.06-.13-.1.17-.15.2-.41.06-.41q-.1.02-.26.23c-.16.22-.16.22-.1-.07q.1-.32-.06-.24-.13.06-.17.25c-.03.18-.07.2-.38.13q-.37-.09-.31.03c.02.07.18.13.35.15q.31.04.32.19c0 .08.1.22.21.32.21.17.21.17-.21.45a1.7 1.7 0 0 1-1.51.18c-.31-.12-.36-.33-.28-1.22.03-.36.06-.6.07-.52.03.17.22.15.22-.03 0-.09-.1-.2-.23-.24-.22-.09-.21-.1.07-.2.39-.15.5-.1.76.36.24.43.23.38-.04-.3-.1-.25-.22-.44-.27-.41q-.08.03-.09-.15c0-.28-.2-.27-.2.02-.02.2-.03.2-.12-.05-.1-.27-.28-.39-.28-.18m16.04.55c-.03.08-.03.19.01.25.11.18.38.07.41-.17q.05-.25-.16-.23-.2.02-.26.15m-3.22.37q-.12.14-.12 1.04c0 .78.03.93.17.98.1.04.67.06 1.28.05l1.1-.02.03.67c.02.36.05.66.08.66s.18-.07.35-.15l.3-.16-.03-1.57-.03-1.57-1.5-.03c-1.09-.02-1.54 0-1.63.1m-7.45.45c-.09.08-.1.76 0 .97.04.13.23.16 1 .16h.93V7.8h-.93c-.52 0-.97.03-1 .07m3.55.5.03.58h1.9l.03-.57.03-.58h-2.02zm4.48.02V9h1.9V7.8h-1.9zM5.11 8.37c-.22.53.25 1.09.65.77q.28-.18-.06-.09c-.36.09-.66-.25-.5-.55.06-.11.1-.26.08-.32q-.05-.08-.17.2m11.26-.22c-.13.14-.07.43.12.53.24.13.55-.08.5-.35-.04-.2-.48-.32-.62-.18m-6.94 3.2c-.31.2-.42.83-.17 1s1.15.18 1.4 0q.4-.31-.32-.14c-.22.06-.53.08-.68.04-.26-.06-.28-.1-.22-.38.03-.18.12-.36.19-.4.19-.12.82-.1.95.04.14.14.38-.04.28-.21s-1.18-.14-1.43.04m1.71.18c0 .17-.07.47-.16.65l-.16.32h.3q.27 0 .23-.1a.5.5 0 0 1 0-.3c.05-.16.15-.2.46-.2.4 0 .4 0 .34.3-.06.26-.04.3.14.3.1 0 .23-.04.26-.1q.05-.09-.04-.1-.1 0-.01-.28c.21-.69.21-.82 0-.82q-.19.01-.2.13c.05.31-.01.37-.41.37s-.4-.01-.35-.25c.05-.21.03-.25-.17-.25s-.23.05-.23.33m1.8-.05c0 .15-.04.44-.08.64-.08.35-.06.38.14.38q.22 0 .16-.15a1.4 1.4 0 0 1 .1-.62l.14-.5q-.02-.03-.22-.03c-.18 0-.23.06-.24.28m.9-.18q-.23.1-.35.5c-.12.38-.11.44.06.56.25.18 1.16.18 1.4 0 .25-.18.14-.31-.13-.17-.3.16-.87.14-1.02-.03-.09-.12-.09-.21.02-.43s.2-.29.51-.31c.21-.02.45.02.53.09.17.14.4-.02.3-.2-.08-.13-1.02-.14-1.33 0m1.6.3c0 .21-.08.5-.17.64-.16.25-.16.25.14.25q.3 0 .3-.12c-.07-.48-.01-.5.42-.19.23.17.48.31.55.31.25 0 .13-.19-.27-.41-.22-.13-.4-.26-.4-.3s.2-.15.45-.26c.25-.1.45-.21.45-.25 0-.14-.58-.08-.63.06a1 1 0 0 1-.28.26c-.2.11-.21.1-.15-.14.05-.22.03-.26-.16-.26-.2 0-.23.06-.25.4m1.79-.27c.03.2-.13.9-.24 1.05-.08.1.06.12.66.12.42 0 .76-.02.76-.04l.06-.23q.1-.22-.07-.05c-.07.06-.33.12-.57.12-.36 0-.43-.03-.4-.18q.02-.17.38-.2c.52-.05.62-.22.12-.22-.34 0-.4-.03-.35-.16.04-.12.17-.15.5-.12q.44.04.43-.1.01-.12-.65-.12c-.47 0-.65.04-.63.13m1.62.02c.05.15-.07.65-.25.98-.08.14-.05.17.2.17q.33 0 .25-.15c-.03-.08 0-.3.06-.51l.13-.37.33.39c.18.21.33.45.34.52q.01.13.22.1c.16-.02.22-.1.23-.33.01-.17.06-.45.1-.62.07-.3.05-.33-.14-.33q-.24 0-.17.18c.03.1 0 .3-.07.45l-.12.29-.33-.46c-.25-.34-.4-.46-.59-.46q-.26 0-.2.15"/></svg>