<svg xmlns="http://www.w3.org/2000/svg" width="24" height="24"><path fill="#9c8e4f" fill-rule="evenodd" d="M10.55 2.15a7.02 7.02 0 0 0-4.8 10 7.02 7.02 0 0 0 12.43.18 7.02 7.02 0 0 0-7.63-10.18m.4.15a6.77 6.77 0 1 0 7.21 9.55 6.82 6.82 0 0 0-4.41-9.4 9 9 0 0 0-2.8-.15m-.12.37c-.07.02-.13.13-.13.22 0 .1-.11.23-.25.3-.54.24-.12 1.14.45.96.34-.1.43-.4.3-1-.11-.55-.14-.58-.37-.48m1.45.5c-.09.1-.19.42-.23.7-.06.5-.06.53.15.53q.21-.01.27-.2.06-.17.15-.14c.15.1.58-.25.58-.47 0-.55-.58-.8-.92-.41m1.17.36q-.32.5.42.81c.2.08.37.14.38.13l.14-.37c.09-.28.08-.39-.04-.58a.54.54 0 0 0-.9.01m-3.93-.02c-.16.16-.15.37.06.76.16.29.2.3.36.19s.17-.17.07-.35c-.07-.13-.1-.26-.06-.31.08-.13-.05-.41-.2-.41a.4.4 0 0 0-.23.12m5.36.37c-.1.03-.31.26-.49.5-.3.42-.3.45-.13.58.15.11.2.11.26-.01q.07-.15.48-.09c.35.05.4.03.51-.2.22-.48-.17-.95-.63-.78m-6.3.15c-.35.17-.37.7-.03.92.24.16.27.15.66-.1l.4-.27-.2-.28q-.36-.51-.83-.27m2.17.7a4.42 4.42 0 1 0 4.82 6.82 4.5 4.5 0 0 0 .46-4.39 4.5 4.5 0 0 0-2.11-2.15 3 3 0 0 0-1.76-.4 5 5 0 0 0-1.41.11m4.87.09c-.21.21-.14.63.17.92l.28.27.27-.31c.3-.37.32-.47.1-.78-.17-.24-.62-.3-.82-.1m-8.1.1c-.17.17-.15.64.04.82.23.23.5.2.73-.1q.4-.53.01-.54-.18-.02-.2-.15c0-.18-.4-.2-.58-.03m4.36.7c-.21.12-.38.27-.38.34 0 .06-.16.15-.36.19-.46.08-1.3.9-1.63 1.6l-.38.77c-.17.33-.16.46.02.81q.15.29.05.47a.8.8 0 0 0 .1.93c.11.14.2.32.2.4s.13.2.3.27.4.22.53.34c.13.11.41.34.64.49.34.24.48.27.92.24.29-.02.57-.1.64-.16a.5.5 0 0 1 .31-.11c.2 0 .78-.41 1.26-.9.36-.36.6-.85.6-1.2 0-.18.09-.43.2-.57.27-.34.25-.7-.04-.96a2 2 0 0 1-.4-.7c-.33-.97-.62-1.34-1.29-1.62q-.37-.15-.37-.35c0-.16-.34-.5-.5-.5-.03 0-.22.1-.43.22m.28.06c-.26.05-.56.32-.5.43q.04.08-.15.09c-.33 0-.83.25-1.17.58A3.5 3.5 0 0 0 9.5 8.2c0 .1-.06.23-.14.3-.22.17-.25.46-.1.77.13.22.13.35.04.63-.12.37 0 .9.2.9q.09.02.1.2 0 .19.24.26c.14.03.27.12.3.2q.06.13.18.14c.07 0 .19.09.26.2q.13.18.22.2c.06 0 .23.1.38.2.3.22 1.03.23 1.25.01a.5.5 0 0 1 .33-.11.5.5 0 0 0 .34-.15q.12-.13.21-.15a4 4 0 0 0 1.09-1.17c.22-.28.26-.68.08-.8q-.1-.06.1-.14c.45-.17.5-1.09.07-1.09q-.13-.02-.15-.17c0-.1-.07-.3-.15-.47a1 1 0 0 1-.15-.43c0-.35-.42-.83-.96-1.09q-.54-.26-.54-.45c0-.22-.27-.37-.55-.31M6.77 6q-.14.2-.32.14c-.17-.07-.38.13-.29.28.09.14.82.48 1.02.48.24 0 .52-.3.52-.57 0-.46-.67-.7-.93-.33m10.15.12a.5.5 0 0 0-.12.28q.01.19-.1.01a.2.2 0 0 0-.24-.08c-.15.06-.15.1-.01.37.18.36.54.4.62.1q.06-.19.12-.11.07.1.21 0c.13-.07.13-.12 0-.35-.18-.32-.31-.39-.48-.22M6.2 7.48a7 7 0 0 0-.13 2.32c.1.48.3.58.26.12q-.02-.23.03-.12c.16.44.17.44.24.15q.08-.35.09-.07c0 .12.06.22.12.22q.12.01.04-.67c-.04-.47-.01-.92.1-1.47.16-.76.14-1.06-.05-.76q-.11.19-.1-.05c0-.2 0-.2-.15 0-.13.16-.15.17-.15.02 0-.34-.18-.16-.3.3m11-.32q.01.23-.1.05c-.18-.29-.2-.01-.04.66q.15.69.11 1.47c-.05.7.03.98.16.65q.05-.12.06.04c.01.28.2.2.24-.1q.04-.37.05.08.02.39.14.22c.17-.17.17-2.23 0-2.8-.13-.42-.32-.57-.32-.25 0 .15-.02.14-.15-.03-.14-.19-.14-.19-.15.01M9.57 9.61c-.22.5-.22.98-.01 1.06.08.03.2.16.25.3.04.12.15.23.23.23q.12.01.2.15.06.14.18.15c.07 0 .19.09.26.2q.12.18.24.2c.06 0 .2.07.3.16.16.15.28.17.86.12q.17-.01.23-.1c.03-.05.19-.1.34-.12s.3-.08.33-.15q.05-.1.23-.11c.1 0 .19-.07.19-.15q.01-.13.14-.15c.08 0 .18-.09.21-.2s.12-.2.18-.2q.13-.02.22-.18c.4-.74.4-.7.2-.92q-.15-.18-.1-.2c.04 0 0-.1-.1-.2l-.19-.2-.12.22q-.12.23-.03.35c.15.17-.15.58-.52.74-.3.12-.5.12-2.11.06-.7-.02-.8-.06-1.15-.34-.29-.24-.35-.34-.27-.43q.12-.13.32 0 .4.2.42 0a.1.1 0 0 0-.1-.1c-.05 0-.22-.13-.38-.3l-.28-.29zm.33.38c0 .05.13.19.28.3.21.15.42.19.86.18.32-.02.6 0 .61.03.03.05.52.06 1.31.02.18-.01.43-.13.6-.28.25-.24.26-.26.05-.2-.13.05-.28.03-.36-.04a.3.3 0 0 0-.32-.05c-.26.12-1.65.15-1.84.04-.1-.05-.29-.04-.48.04-.25.09-.36.09-.51 0q-.18-.12-.2-.04m-3.23 1.45c-.03.08 0 .2.07.25.18.15.48.03.44-.18s-.44-.27-.51-.07m.76.83c-.28.2-.3.38-.03.23q.19-.1.2-.01-.01.08-.12.14-.12.05-.05.12c.11.13.32-.13.32-.4.01-.29-.02-.3-.32-.08m8.9.08c-.05.15.21.55.37.55.04 0 .07-.15.06-.32-.01-.36-.31-.52-.42-.23m-8.4.8q-.05.17.08.31c.13.13.16.13.27 0 .08-.09.1-.23.07-.3-.07-.2-.35-.2-.43 0m7.69-.04q-.25.25.04.5c.15.11.16.1.09-.12s-.06-.23.09-.11c.19.16.22.02.04-.2q-.1-.1.1.05t.22.1c0-.13-.21-.34-.35-.34q-.1 0-.23.12m-.58.53c-.12.3.15.45.45.26.12-.08.12-.12.02-.25-.17-.2-.4-.2-.47-.01m-6.09.13c-.09.1-.05.4.05.47.12.08.37-.1.5-.35.07-.14.04-.17-.2-.17a1 1 0 0 0-.35.05m5.62.09c-.1.1-.08.41.04.49.06.03.18 0 .27-.1.13-.12.13-.18.02-.3q-.2-.25-.33-.1m-4.2.68c-.06.15.1.36.29.36.14 0 .27-.28.18-.4-.08-.15-.41-.12-.47.04m2.1.02c-.04.04-.07.16-.07.26q-.01.19.26.18c.2 0 .25-.04.22-.22-.03-.23-.27-.35-.41-.22"/></svg>