<svg xmlns="http://www.w3.org/2000/svg" width="24" height="24"><path fill="#b21224" fill-rule="evenodd" d="M3 8.71v2.61l.28-.06c.58-.14 1.37-.61 1.55-.93.28-.5.32-1.21.09-1.66-.18-.34-.19-.4-.06-.65.08-.15.14-.51.14-.8 0-.46-.04-.58-.3-.83-.26-.27-.34-.29-1-.29H3zm2.3-.36c0 1.24.03 2.25.08 2.24.04 0 .39-.08.77-.18.68-.17.7-.18.73-.5l.03-.34-.46.06L6 9.7l.03-.58c.03-.56.03-.57.36-.6.3-.03.32-.06.32-.38s-.02-.34-.35-.34H6v-1h1v-.7H5.3zm1.9-.19c0 1.7.02 2.05.14 2 .07-.02.35-.07.62-.1.92-.13.94-.14.94-.47v-.32l-.5.07-.5.07V8.3h.35c.33 0 .35-.02.35-.35 0-.36 0-.36-.35-.3l-.35.07v-.89l.5-.07c.47-.06.5-.08.5-.36v-.3H7.2zM9.1 8c0 2.01-.01 1.97.48 1.84.2-.06.22-.12.22-.85v-.78l.38-.03c.32-.03.37-.07.4-.3.03-.27.01-.28-.37-.28H9.8v-.9h.55c.54 0 .55 0 .55-.3v-.3H9.1zm1.96-.27c-.03.89-.05 1.7-.03 1.8.03.17.14.19.88.19.76 0 .84-.02.81-.19-.06-.38-.12-.43-.52-.43h-.4v-.48c0-.47 0-.47.32-.47.29 0 .33-.04.36-.28s0-.27-.32-.27c-.36 0-.36 0-.36-.45V6.7h.45c.43 0 .45-.01.45-.3v-.3h-1.57zm2.54-1.6-.33 1.8c-.18.98-.31 1.8-.28 1.82s.17.05.33.05c.25 0 .28-.04.34-.4s.1-.4.35-.4c.29 0 .32.06.41.65.02.15.12.2.37.23.31.03.33.02.27-.25l-.31-1.73c-.35-1.93-.3-1.8-.76-1.8-.21 0-.4.01-.4.03m1.11.27c0 .27.03.3.3.3h.3v1.6c0 1.7 0 1.67.49 1.72l.23.03-.01-1.62-.02-1.63h.3c.29 0 .31-.03.31-.35V6.1h-1.9zm2.1.38c0 .37.03 1.3.07 2.08l.06 1.4.56.12.8.18c.2.06.22.04.2-.32-.04-.36-.06-.39-.49-.5l-.45-.1V8.55l.38.03c.36.03.37.03.37-.32s-.02-.36-.4-.42l-.4-.07V6.8h1v-.7h-1.7zm1.9 1.57v2.26l.33.14.32.13.03-.94c.02-.7.06-.94.16-.94q.13.02.2.43c.25 1.61.26 1.65.57 1.78.16.06.32.1.34.07s-.05-.55-.17-1.17c-.2-1.12-.2-1.14-.02-1.45.25-.4.25-1.57 0-2.03-.22-.43-.43-.53-1.15-.53h-.61zm-15-.85c0 .65.12.76.43.42.33-.36.17-1.02-.25-1.02-.15 0-.18.09-.18.6m15.7.05c0 .62.01.65.24.65.26 0 .36-.16.36-.61 0-.4-.17-.69-.4-.69-.18 0-.2.07-.2.65m-5.44-.14-.1.57c-.06.38-.04.42.14.42.2 0 .2-.04.14-.53-.07-.57-.11-.67-.18-.46M3.7 9.6c0 .38.04.7.08.7s.17-.07.29-.15c.46-.32.37-1.25-.12-1.25-.24 0-.25.02-.25.7m3.9 1.7v.6h.36c.4 0 .44-.23.06-.28-.19-.03-.22-.1-.22-.48 0-.24-.04-.44-.1-.44s-.1.27-.1.6m1.17-.42a.6.6 0 0 0 .45 1.02c.5 0 .78-.69.42-1.04-.2-.21-.67-.2-.87.02m1.53.42c0 .45.03.6.13.58.06-.03.13-.17.15-.32l.04-.28.34.33.34.33v-.62c0-.48-.03-.62-.15-.62q-.15 0-.15.27v.26l-.22-.2c-.45-.4-.48-.38-.48.27m1.5 0v.6h.35c.63 0 .99-.65.57-1.03a1 1 0 0 0-.55-.17h-.37zm1.66-.44c-.36.35-.07 1.04.42 1.04.29 0 .62-.34.62-.63 0-.49-.7-.76-1.04-.41m1.46.4c.03.63.28.91.28.33v-.33l.33.32c.18.18.36.32.4.32s.07-.27.07-.6c0-.47-.03-.6-.15-.6q-.15.01-.15.25-.01.23-.08.25c-.05 0-.2-.11-.32-.25-.13-.14-.27-.25-.32-.25s-.08.26-.06.57m-2.76-.3c-.03.03-.06.2-.06.35 0 .25.04.29.23.26.3-.04.35-.43.09-.57-.1-.06-.22-.07-.26-.04m-3.22.17c-.1.26.04.48.28.44q.24-.02.23-.28.01-.26-.23-.28-.22-.02-.28.12m4.68.13c.02.22.08.28.28.28s.25-.05.25-.25-.06-.26-.28-.28c-.26-.03-.28 0-.25.25"/></svg>