<?xml version="1.0" encoding="UTF-8" standalone="no"?>
<svg
   viewBox="0 0 24 24"
   width="24pt"
   height="24pt"
   version="1.1"
   id="svg1"
   xml:space="preserve"
   xmlns="http://www.w3.org/2000/svg"
   xmlns:svg="http://www.w3.org/2000/svg"><defs
     id="defs1" /><g
     id="g7"
     transform="matrix(0.10777245,0,0,0.10777245,24.694035,20.293307)"><ellipse
       style="fill:#ffffff;stroke-width:0.75"
       id="path6"
       cx="-117.78553"
       cy="-98.154625"
       rx="74.693268"
       ry="72.778053" /><g
       id="g1"
       transform="matrix(0.75,0,0,0.75,-190.78056,-172.21104)"><path
         d="M 78.065,9.089 C 51.375,14.324 26.838,33.597 15.593,58.16 6.912,77.119 5.223,94.831 10.087,115.877 c 1.886,8.16 8.019,22.601 11.307,26.623 1.609,1.968 -0.233,-3.778 -4.901,-15.286 -1.655,-4.078 -1.654,-4.379 0.021,-6.23 1.682,-1.858 1.676,-2.226 -0.114,-8.214 -2.878,-9.63 -2.666,-31.547 0.41,-42.213 4.533,-15.723 14.223,-30.587 26.465,-40.597 6.9,-5.641 23.491,-14.109 31.22,-15.933 29.574,-6.981 59.974,2.072 79.625,23.713 3.726,4.103 4.799,4.744 7.182,4.292 l 2.803,-0.532 -5.066,-5.675 C 148.471,23.985 132.576,14.553 116.185,10.395 108.589,8.468 104.374,8.021 94.622,8.11 87.955,8.17 80.504,8.611 78.065,9.089 M 171.5,45 c 0.34,0.55 0.843,1 1.118,1 0.275,0 0.222,-0.45 -0.118,-1 -0.34,-0.55 -0.843,-1 -1.118,-1 -0.275,0 -0.222,0.45 0.118,1 m -8.5,2 c 0,0.733 0.3,1.033 0.667,0.667 0.366,-0.367 0.366,-0.967 0,-1.334 C 163.3,45.967 163,46.267 163,47 m 4.305,1.274 c 0.235,1.525 0.042,3.011 -0.428,3.302 -1.224,0.756 1.943,5.232 4.212,5.952 2.119,0.673 2.75,6.026 0.787,6.68 -0.783,0.261 -0.48,2.922 1,8.774 2.395,9.471 2.85,24.7 1.033,34.584 -5.796,31.532 -32.358,57.833 -64.644,64.01 -23.158,4.431 -49.43,-2.52 -66.571,-17.612 l -4.805,-4.232 -2.955,2.831 -2.955,2.831 3.761,3.886 c 5.497,5.68 17.573,13.31 26.54,16.768 12.827,4.946 21.333,6.275 36.208,5.654 15.47,-0.646 21.687,-2.191 35.012,-8.702 21.871,-10.686 37.81,-29.597 45.124,-53.537 2.443,-7.999 2.745,-10.577 2.804,-23.963 0.07,-15.564 -0.698,-20.229 -5.348,-32.5 -2.876,-7.592 -9.349,-18.454 -8.775,-14.726 m 7.396,2.226 c 0.918,1.925 2.021,3.5 2.45,3.5 0.43,0 -0.148,-1.575 -1.284,-3.5 -1.135,-1.925 -2.238,-3.5 -2.45,-3.5 -0.211,0 0.366,1.575 1.284,3.5 M 136,53 c 0,0.733 0.3,1.033 0.667,0.667 0.366,-0.367 0.366,-0.967 0,-1.334 C 136.3,51.967 136,52.267 136,53 m 41.333,2.667 c 0.367,0.366 0.967,0.366 1.334,0 C 179.033,55.3 178.733,55 178,55 c -0.733,0 -1.033,0.3 -0.667,0.667 M 181,62 c 0,0.733 0.3,1.033 0.667,0.667 0.366,-0.367 0.366,-0.967 0,-1.334 C 181.3,60.967 181,61.267 181,62 m -58.5,2 c 0.34,0.55 0.843,1 1.118,1 0.275,0 0.222,-0.45 -0.118,-1 -0.34,-0.55 -0.843,-1 -1.118,-1 -0.275,0 -0.222,0.45 0.118,1 m 58.905,1.155 c -0.443,0.715 -0.275,0.883 0.44,0.44 1.153,-0.712 1.548,-1.595 0.714,-1.595 -0.243,0 -0.762,0.52 -1.154,1.155 M 183,67 c 0,0.733 0.3,1.033 0.667,0.667 0.366,-0.367 0.366,-0.967 0,-1.334 C 183.3,65.967 183,66.267 183,67 m 1,3 c 0,0.733 0.3,1.033 0.667,0.667 0.366,-0.367 0.366,-0.967 0,-1.334 C 184.3,68.967 184,69.267 184,70 m 1,4 c 0,0.733 0.3,1.033 0.667,0.667 0.366,-0.367 0.366,-0.967 0,-1.334 C 185.3,72.967 185,73.267 185,74 m 1.079,3.583 c 0.048,1.165 0.285,1.402 0.604,0.605 0.289,-0.722 0.253,-1.585 -0.079,-1.917 -0.332,-0.332 -0.568,0.258 -0.525,1.312 M 187.158,83 c 0,1.375 0.227,1.938 0.504,1.25 0.278,-0.687 0.278,-1.812 0,-2.5 -0.277,-0.687 -0.504,-0.125 -0.504,1.25 m -16.079,4.583 c 0.048,1.165 0.285,1.402 0.604,0.605 0.289,-0.722 0.253,-1.585 -0.079,-1.917 -0.332,-0.332 -0.568,0.258 -0.525,1.312 m 17.276,9.917 c -0.003,4.95 0.166,7.101 0.376,4.78 0.209,-2.321 0.212,-6.371 0.005,-9 -0.206,-2.629 -0.378,-0.73 -0.381,4.22 M 171.158,97 c 0,1.375 0.227,1.938 0.504,1.25 0.278,-0.687 0.278,-1.812 0,-2.5 -0.277,-0.687 -0.504,-0.125 -0.504,1.25 m 16,15 c 0,1.375 0.227,1.938 0.504,1.25 0.278,-0.687 0.278,-1.812 0,-2.5 -0.277,-0.687 -0.504,-0.125 -0.504,1.25 M 108,117 c 0,0.733 0.3,1.033 0.667,0.667 0.366,-0.367 0.366,-0.967 0,-1.334 C 108.3,115.967 108,116.267 108,117 m 78.079,0.583 c 0.048,1.165 0.285,1.402 0.604,0.605 0.289,-0.722 0.253,-1.585 -0.079,-1.917 -0.332,-0.332 -0.568,0.258 -0.525,1.312 m -155.746,2.084 c 0.367,0.366 0.967,0.366 1.334,0 C 32.033,119.3 31.733,119 31,119 c -0.733,0 -1.033,0.3 -0.667,0.667 M 146,120 c 0,0.733 0.3,1.033 0.667,0.667 0.366,-0.367 0.366,-0.967 0,-1.334 C 146.3,118.967 146,119.267 146,120 m 39,1 c 0,0.733 0.3,1.033 0.667,0.667 0.366,-0.367 0.366,-0.967 0,-1.334 C 185.3,119.967 185,120.267 185,121 m -1,4 c 0,0.733 0.3,1.033 0.667,0.667 0.366,-0.367 0.366,-0.967 0,-1.334 C 184.3,123.967 184,124.267 184,125 m -1,3 c 0,0.733 0.3,1.033 0.667,0.667 0.366,-0.367 0.366,-0.967 0,-1.334 C 183.3,126.967 183,127.267 183,128 m -120.595,4.155 c -0.443,0.715 -0.275,0.883 0.44,0.44 0.635,-0.392 1.155,-0.911 1.155,-1.154 0,-0.834 -0.883,-0.439 -1.595,0.714 M 181,133 c 0,0.733 0.3,1.033 0.667,0.667 0.366,-0.367 0.366,-0.967 0,-1.334 C 181.3,131.967 181,132.267 181,133 m -123.5,5 c 0.34,0.55 0.843,1 1.118,1 0.275,0 0.222,-0.45 -0.118,-1 -0.34,-0.55 -0.843,-1 -1.118,-1 -0.275,0 -0.222,0.45 0.118,1 m 117.905,6.155 c -0.443,0.715 -0.275,0.883 0.44,0.44 0.635,-0.392 1.155,-0.911 1.155,-1.154 0,-0.834 -0.883,-0.439 -1.595,0.714 m -129,2 c -0.443,0.715 -0.275,0.883 0.44,0.44 0.635,-0.392 1.155,-0.911 1.155,-1.154 0,-0.834 -0.883,-0.439 -1.595,0.714 M 50.5,146 c 0.34,0.55 0.843,1 1.118,1 0.275,0 0.222,-0.45 -0.118,-1 -0.34,-0.55 -0.843,-1 -1.118,-1 -0.275,0 -0.222,0.45 0.118,1 m 122.905,1.155 c -0.443,0.715 -0.275,0.883 0.44,0.44 0.635,-0.392 1.155,-0.911 1.155,-1.154 0,-0.834 -0.883,-0.439 -1.595,0.714 m -2,3 c -0.443,0.715 -0.275,0.883 0.44,0.44 0.635,-0.392 1.155,-0.911 1.155,-1.154 0,-0.834 -0.883,-0.439 -1.595,0.714 m -2.533,3.595 c -1.243,1.586 -1.208,1.621 0.378,0.378 1.666,-1.307 2.195,-2.128 1.372,-2.128 -0.207,0 -0.995,0.787 -1.75,1.75 m -69.539,4.917 c 0.367,0.366 0.967,0.366 1.334,0 C 101.033,158.3 100.733,158 100,158 c -0.733,0 -1.033,0.3 -0.667,0.667 m 62.12,3.583 -3.953,4.25 4.25,-3.953 c 2.338,-2.174 4.25,-4.087 4.25,-4.25 0,-0.757 -0.871,0.001 -4.547,3.953 M 110,159.906 c 0,0.499 0.9,0.671 2,0.384 1.1,-0.288 2,-0.696 2,-0.907 0,-0.21 -0.9,-0.383 -2,-0.383 -1.1,0 -2,0.408 -2,0.906 m -23.667,1.761 c 0.367,0.366 0.967,0.366 1.334,0 C 88.033,161.3 87.733,161 87,161 c -0.733,0 -1.033,0.3 -0.667,0.667 m 18,0 c 0.367,0.366 0.967,0.366 1.334,0 C 106.033,161.3 105.733,161 105,161 c -0.733,0 -1.033,0.3 -0.667,0.667 m 48.539,8.083 c -1.243,1.586 -1.208,1.621 0.378,0.378 1.666,-1.307 2.195,-2.128 1.372,-2.128 -0.207,0 -0.995,0.787 -1.75,1.75 M 41.5,170 c 0.34,0.55 0.843,1 1.118,1 0.275,0 0.222,-0.45 -0.118,-1 -0.34,-0.55 -0.843,-1 -1.118,-1 -0.275,0 -0.222,0.45 0.118,1 m 2.5,1.415 c 0,0.227 2.25,1.798 5,3.49 2.75,1.692 4.994,2.743 4.986,2.336 C 53.971,176.483 44,170.665 44,171.415 m 105.405,0.74 c -0.443,0.715 -0.275,0.883 0.44,0.44 0.635,-0.392 1.155,-0.911 1.155,-1.154 0,-0.834 -0.883,-0.439 -1.595,0.714 m -3,2 c -0.443,0.715 -0.275,0.883 0.44,0.44 0.635,-0.392 1.155,-0.911 1.155,-1.154 0,-0.834 -0.883,-0.439 -1.595,0.714 m -3,2 c -0.443,0.715 -0.275,0.883 0.44,0.44 0.635,-0.392 1.155,-0.911 1.155,-1.154 0,-0.834 -0.883,-0.439 -1.595,0.714 m -84,4 c -0.443,0.715 -0.275,0.883 0.44,0.44 0.635,-0.392 1.155,-0.911 1.155,-1.154 0,-0.834 -0.883,-0.439 -1.595,0.714 m 1.928,1.512 c 0.367,0.366 0.967,0.366 1.334,0 C 63.033,181.3 62.733,181 62,181 c -0.733,0 -1.033,0.3 -0.667,0.667 m 71,0 c 0.367,0.366 0.967,0.366 1.334,0 C 134.033,181.3 133.733,181 133,181 c -0.733,0 -1.033,0.3 -0.667,0.667 m -66,2 c 0.367,0.366 0.967,0.366 1.334,0 C 68.033,183.3 67.733,183 67,183 c -0.733,0 -1.033,0.3 -0.667,0.667 m 61,0 c 0.367,0.366 0.967,0.366 1.334,0 C 129.033,183.3 128.733,183 128,183 c -0.733,0 -1.033,0.3 -0.667,0.667 m -58,1 c 0.367,0.366 0.967,0.366 1.334,0 C 71.033,184.3 70.733,184 70,184 c -0.733,0 -1.033,0.3 -0.667,0.667 m 55,0 c 0.367,0.366 0.967,0.366 1.334,0 C 126.033,184.3 125.733,184 125,184 c -0.733,0 -1.033,0.3 -0.667,0.667 m -51,1 c 0.367,0.366 0.967,0.366 1.334,0 C 75.033,185.3 74.733,185 74,185 c -0.733,0 -1.033,0.3 -0.667,0.667 m 11,0 c 0.367,0.366 0.967,0.366 1.334,0 C 86.033,185.3 85.733,185 85,185 c -0.733,0 -1.033,0.3 -0.667,0.667 m 36,0 c 0.367,0.366 0.967,0.366 1.334,0 C 122.033,185.3 121.733,185 121,185 c -0.733,0 -1.033,0.3 -0.667,0.667 m -43.52,1.016 c 0.721,0.289 1.584,0.253 1.916,-0.079 0.332,-0.332 -0.258,-0.568 -1.312,-0.525 -1.165,0.048 -1.402,0.285 -0.604,0.604 m 40,0 c 0.721,0.289 1.584,0.253 1.916,-0.079 0.332,-0.332 -0.258,-0.568 -1.312,-0.525 -1.165,0.048 -1.402,0.285 -0.604,0.604 m -35.063,0.979 c 0.688,0.278 1.813,0.278 2.5,0 0.688,-0.277 0.125,-0.504 -1.25,-0.504 -1.375,0 -1.937,0.227 -1.25,0.504 m 29,0 c 0.688,0.278 1.813,0.278 2.5,0 0.688,-0.277 0.125,-0.504 -1.25,-0.504 -1.375,0 -1.937,0.227 -1.25,0.504 m -17.47,1.074 c 2.629,0.207 6.679,0.204 9,-0.005 2.321,-0.21 0.17,-0.379 -4.78,-0.376 -4.95,0.003 -6.849,0.175 -4.22,0.381"
         stroke="none"
         fill="#f6d21c"
         fill-rule="evenodd"
         id="path2" /><path
         d="M 152,75.332 C 135.941,82.734 119.776,91.275 107.742,98.716 93.677,107.413 58,134.93 58,137.082 c 0,1.483 8.592,8.14 15.5,12.008 9.502,5.322 21.139,8.873 31.977,9.758 l 9.023,0.737 -5.299,1.207 c -7.162,1.632 -20.186,1.494 -28.672,-0.303 -8.086,-1.713 -19.705,-6.979 -26.656,-12.082 l -4.849,-3.56 -3.148,2.241 -3.148,2.242 3.386,2.77 c 14.467,11.835 32.004,17.448 51.886,16.607 20.33,-0.86 36.368,-7.87 50.586,-22.109 13.154,-13.174 20.283,-27.835 22.341,-45.943 1.458,-12.83 -1.089,-31.747 -4.255,-31.601 -0.644,0.03 -7.247,2.855 -14.672,6.278 m -43.422,40.854 c -0.224,0.723 -0.663,3.452 -0.974,6.064 -0.451,3.783 -0.264,4.75 0.915,4.75 0.815,0 1.481,-0.9 1.481,-2 0,-1.29 0.667,-2 1.878,-2 2.534,0 4.347,-2.385 3.949,-5.195 -0.253,-1.786 -1.06,-2.376 -3.584,-2.619 -2.044,-0.197 -3.409,0.175 -3.665,1 m 9.411,1.064 c -0.006,1.237 -0.29,3.938 -0.631,6 -0.485,2.937 -0.296,3.75 0.875,3.75 1.021,0 1.697,-1.473 2.131,-4.64 0.906,-6.608 0.818,-7.36 -0.864,-7.36 -0.886,0 -1.505,0.922 -1.511,2.25 M 123.5,116 c -0.34,0.55 0.309,1 1.441,1 2.634,0 2.591,0.436 -0.441,4.411 -3.469,4.549 -3.19,5.589 1.5,5.589 2.2,0 4,-0.45 4,-1 0,-0.55 -0.9,-1 -2,-1 -2.59,0 -2.522,-0.627 0.5,-4.589 1.375,-1.803 2.5,-3.758 2.5,-4.344 0,-1.351 -6.67,-1.41 -7.5,-0.067 m 9,0 c -0.353,0.57 0.518,1 2.027,1 h 2.646 l -3.086,4.197 c -1.698,2.308 -3.087,4.558 -3.087,5 0,0.442 1.8,0.803 4,0.803 2.2,0 4,-0.45 4,-1 0,-0.55 -0.9,-1 -2,-1 -2.572,0 -2.52,-0.451 0.5,-4.411 1.375,-1.803 2.5,-3.798 2.5,-4.433 0,-1.419 -6.634,-1.556 -7.5,-0.156 m 9.987,4.624 c -2.931,6.63 -2.892,6.376 -0.987,6.376 0.825,0 1.5,-0.675 1.5,-1.5 0,-0.833 0.889,-1.5 2,-1.5 1.111,0 2,0.667 2,1.5 0,0.825 0.715,1.5 1.588,1.5 1.305,0 1.47,-0.757 0.927,-4.25 -1.519,-9.766 -3.398,-10.334 -7.028,-2.126 M 111,119 c 0,1.1 0.402,2 0.893,2 1.124,0 2.173,-2.601 1.371,-3.402 C 112.061,116.394 111,117.051 111,119 m 33.638,1.5 c -0.347,0.905 -0.005,1.5 0.862,1.5 0.867,0 1.209,-0.595 0.862,-1.5 -0.317,-0.825 -0.705,-1.5 -0.862,-1.5 -0.157,0 -0.545,0.675 -0.862,1.5"
         stroke="none"
         fill="#d0222f"
         fill-rule="evenodd"
         id="path3" /><path
         d="M 80.669,16.527 C 44.106,23.45 18,54.728 18,91.611 18,101.724 19.459,112 20.896,112 c 0.401,0 1.892,-1.237 3.313,-2.75 2.48,-2.64 2.545,-3.009 1.624,-9.25 -2.332,-15.816 3.459,-38.438 12.672,-49.5 l 2.499,-3 -1.899,4.592 c -3.918,9.478 -5.391,19.344 -4.903,32.854 0.252,6.983 0.767,13.194 1.143,13.804 0.433,0.699 4.46,-1.717 10.92,-6.552 29.878,-22.359 62.052,-40.658 88.235,-50.182 6.6,-2.4 12.367,-4.676 12.816,-5.056 1.165,-0.988 -10.574,-9.561 -18.68,-13.643 -13.883,-6.992 -32.778,-9.666 -47.967,-6.79 m 63.725,26.89 c -0.828,2.157 0.323,4.844 1.857,4.333 0.687,-0.229 1.249,-1.467 1.249,-2.75 0,-2.741 -2.227,-3.876 -3.106,-1.583 M 151,47.083 c 0,3.623 0.359,4.964 1.25,4.667 0.688,-0.229 1.213,-1.167 1.167,-2.083 C 153.371,48.75 153.258,46.65 153.167,45 152.883,39.892 151,41.703 151,47.083 M 158,47 c -2.915,2.915 -2.512,6.094 1.153,9.107 3.468,2.85 3.421,5.893 -0.09,5.893 -1.367,0 -1.818,0.475 -1.425,1.5 0.807,2.101 3.719,1.868 5.832,-0.467 2.187,-2.417 2.318,-7 0.242,-8.455 -0.846,-0.593 -2.365,-1.624 -3.375,-2.292 -1.755,-1.16 -1.737,-1.301 0.413,-3.16 1.238,-1.071 2.25,-2.437 2.25,-3.036 0,-1.766 -2.841,-1.249 -5,0.91 m -21.118,3.25 c -0.066,0.688 -0.059,1.606 0.013,2.041 0.31,1.855 -2.024,4.5 -4.365,4.948 -2.149,0.411 -2.53,0.115 -2.53,-1.961 0,-3.453 -2.42,-2.341 -2.827,1.299 -0.18,1.608 -0.742,3.351 -1.25,3.873 -1.31,1.349 -1.145,3.598 0.243,3.3 0.683,-0.147 1.667,2.162 2.376,5.576 0.666,3.205 1.683,6.299 2.261,6.877 1.733,1.733 6.197,0.055 6.197,-2.329 0,-1.436 -0.464,-1.91 -1.485,-1.518 -1.763,0.676 -2.99,-1.406 -3.946,-6.7 -0.556,-3.075 -0.332,-4.118 1.118,-5.218 3.095,-2.346 4.163,-1.622 4.888,3.312 0.384,2.612 1.075,5.763 1.537,7 0.91,2.441 3.769,2.969 5.688,1.05 1.743,-1.743 1.512,-4.134 -0.332,-3.426 -1.704,0.654 -2.819,-1.594 -3.745,-7.546 -0.414,-2.656 -0.178,-3.823 0.853,-4.219 0.783,-0.3 1.424,-1.283 1.424,-2.185 0,-1.04 -0.544,-1.429 -1.49,-1.066 -0.999,0.383 -1.693,-0.24 -2.108,-1.893 -0.646,-2.573 -2.316,-3.378 -2.52,-1.215 m 8.658,1.686 c -0.319,0.515 -0.131,2.877 0.416,5.25 0.547,2.373 1.013,5.664 1.035,7.314 0.05,3.796 1.254,5.727 3.124,5.009 1.271,-0.487 1.266,-1.69 -0.043,-9.533 -1.39,-8.327 -2.804,-10.836 -4.532,-8.04 m 33.07,5.564 c 0.352,1.1 1.677,4.985 2.943,8.634 5.382,15.5 5.766,36.857 0.959,53.304 -7.325,25.065 -24.215,45.419 -47.012,56.658 -12.915,6.367 -23.019,8.952 -37.5,9.594 -13.059,0.579 -25.754,-1.492 -37.001,-6.034 -3.521,-1.423 -6.56,-2.429 -6.752,-2.236 -0.565,0.565 13.722,6.26 20.253,8.073 9.328,2.589 30.3,3.134 40.566,1.054 36.417,-7.379 64.102,-35.064 71.481,-71.481 1.307,-6.452 1.58,-11.44 1.174,-21.485 -0.563,-13.944 -2.529,-22.865 -7.212,-32.732 -1.397,-2.942 -2.251,-4.449 -1.899,-3.349 m -10.539,1.915 c -1.529,1.842 -0.939,2.829 1.955,3.271 1.422,0.217 1.974,-0.272 1.974,-1.751 0,-1.129 -0.412,-1.799 -0.915,-1.488 -0.503,0.311 -1.082,0.063 -1.286,-0.55 -0.233,-0.7 -0.877,-0.507 -1.728,0.518 m -64.965,2.499 c -1.141,0.722 -1.187,1.709 -0.25,5.427 0.629,2.5 1.144,4.739 1.144,4.977 0,0.238 -1.331,0.698 -2.957,1.023 -5.383,1.077 -7.723,9.701 -4.637,17.089 0.774,1.851 2.207,3.814 3.186,4.362 2.368,1.325 5.864,-0.302 7.267,-3.383 0.594,-1.303 1.656,-2.158 2.361,-1.9 2.921,1.072 3.886,-0.958 2.423,-5.103 -0.767,-2.174 -2.406,-8.329 -3.642,-13.679 -1.236,-5.35 -2.53,-9.72 -2.874,-9.712 -0.345,0.009 -1.254,0.413 -2.021,0.899 m 12.084,3.384 c -1.188,1.264 -2.431,3.656 -2.763,5.316 -0.8,4.003 1.057,10.609 3.64,12.947 2.032,1.839 2.153,1.837 5.754,-0.091 2.36,-1.264 3.799,-2.818 4.014,-4.336 0.323,-2.282 0.252,-2.308 -1.973,-0.75 -2.933,2.054 -5.476,2.065 -6.258,0.026 -0.845,-2.201 -0.081,-3.126 4.516,-5.471 3.336,-1.702 3.876,-2.392 3.314,-4.236 -1.76,-5.781 -6.524,-7.365 -10.244,-3.405 m 2.01,1.902 c -1.39,1.39 -1.626,5.8 -0.311,5.8 0.489,0 1.937,-0.848 3.218,-1.885 1.996,-1.617 2.137,-2.116 0.988,-3.5 -1.601,-1.93 -2.305,-2.005 -3.895,-0.415 m -16.629,10.371 c -3.229,3.23 -1.01,12.781 2.84,12.225 2.915,-0.421 4.032,-4.437 2.656,-9.547 -1.21,-4.495 -2.869,-5.304 -5.496,-2.678 m -16.267,5.385 c -5.726,3.491 -6.863,13.52 -2.205,19.443 1.167,1.483 3.056,2.601 4.397,2.601 3,0 8.504,-4.588 8.504,-7.089 0,-2.458 -1.223,-2.427 -3.5,0.089 -2.284,2.524 -5.127,2.566 -6.449,0.094 -0.878,-1.639 -0.313,-2.359 4.035,-5.149 4.45,-2.856 4.982,-3.556 4.442,-5.845 -0.561,-2.38 -3.854,-6.105 -5.389,-6.096 -0.351,0.002 -2.077,0.88 -3.835,1.952 m 0.351,3.873 c -1.665,1.84 -2.302,6.175 -0.905,6.166 0.412,-0.003 2.087,-1.074 3.721,-2.382 2.568,-2.055 2.789,-2.595 1.627,-3.995 -1.716,-2.068 -2.411,-2.035 -4.443,0.211 m -17.502,9.118 c -1.885,2.603 -3.196,3.61 -3.848,2.958 -0.653,-0.653 -1.418,-0.473 -2.248,0.527 -1.028,1.238 -0.746,3.36 1.534,11.542 1.537,5.514 3.045,10.012 3.351,9.994 0.307,-0.017 1.376,-0.652 2.376,-1.41 1.752,-1.328 1.743,-1.619 -0.25,-8.073 -2.563,-8.3 -2.574,-9.717 -0.087,-11.968 2.82,-2.552 4.626,-0.691 6.123,6.31 1.489,6.966 2.379,8.118 4.574,5.923 1.553,-1.552 1.541,-2.087 -0.18,-7.957 C 74.685,90.789 72.156,89.04 67.153,95.947 m -17.272,11.556 c -8.277,4.499 -7.302,23.294 1.262,24.3 4.11,0.483 12.014,-7.123 10.294,-9.906 -0.406,-0.656 -1.718,-0.043 -3.439,1.605 -1.784,1.709 -3.625,2.546 -5.13,2.332 -4.13,-0.587 -3.34,-3.443 2.071,-7.483 5.575,-4.161 6.076,-5.791 2.988,-9.716 -2.321,-2.952 -4.208,-3.217 -8.046,-1.132 m 0.186,4.43 C 48.243,113.757 47.11,119 48.54,119 c 1.264,0 6.46,-4.477 6.46,-5.566 0,-0.654 -0.645,-1.724 -1.433,-2.378 -1.139,-0.946 -1.857,-0.766 -3.5,0.877 m -22.121,3.999 c -8.15,5.374 -9.285,6.583 -8.62,9.18 0.696,2.718 8.933,27.179 9.356,27.784 0.534,0.764 9.845,-8.294 12.568,-12.226 4.63,-6.685 3.367,-14.67 -2.32,-14.67 -2.657,0 -2.882,-0.222 -1.965,-1.934 C 39.232,119.83 37.501,113 34.161,113 c -0.973,0 -3.77,1.319 -6.215,2.932 m 0.277,4.625 c -2.487,1.741 -2.799,4.776 -0.853,8.284 l 1.298,2.342 2.666,-3.168 c 2.958,-3.516 3.133,-4.274 1.631,-7.081 -1.252,-2.34 -1.871,-2.389 -4.742,-0.377 m 3.262,12.46 c -1.695,1.872 -1.718,2.357 -0.331,6.75 l 1.494,4.733 3.176,-3.356 c 3.126,-3.302 3.767,-5.44 2.569,-8.562 -0.85,-2.216 -4.731,-1.971 -6.908,0.435"
         stroke="none"
         fill="#166448"
         fill-rule="evenodd"
         id="path4" /><path
         d="m 103.75,3.662 c 0.688,0.278 1.813,0.278 2.5,0 0.688,-0.277 0.125,-0.504 -1.25,-0.504 -1.375,0 -1.937,0.227 -1.25,0.504 m 11.757,2.2 c 20.051,5.507 36.405,15.729 48.65,30.408 2.859,3.426 5.551,6.123 5.984,5.992 0.433,-0.131 0.586,0.319 0.341,1 -0.246,0.681 0.485,2.363 1.623,3.738 1.137,1.375 1.771,1.825 1.408,1 -0.364,-0.825 0.057,-0.613 0.935,0.471 0.878,1.085 1.366,2.57 1.086,3.302 -0.283,0.737 -0.056,1.05 0.507,0.702 1.424,-0.88 7.392,12.451 10.114,22.592 3.236,12.06 3.236,32.806 0,44.866 -8.831,32.906 -33.316,57.391 -66.222,66.222 -12.026,3.227 -32.765,3.233 -44.933,0.014 -8.693,-2.301 -24.517,-9.538 -29,-13.265 -1.375,-1.142 -1.868,-1.744 -1.095,-1.336 0.958,0.505 1.164,0.352 0.648,-0.482 -0.415,-0.672 -1.37,-0.986 -2.122,-0.698 -0.752,0.289 -1.676,0.025 -2.053,-0.586 -0.444,-0.718 -0.19,-0.844 0.717,-0.355 0.773,0.416 -0.17,-0.49 -2.095,-2.012 -16.557,-13.098 -28.441,-31.15 -34.109,-51.812 -1.799,-6.558 -1.911,-6.731 -1.416,-2.185 0.296,2.716 2.052,9.359 3.902,14.763 9.345,27.293 31.202,49.313 57.994,58.425 34.562,11.755 70.585,3.781 96.844,-21.438 26.43,-25.382 35.445,-63.436 23.411,-98.817 -9.112,-26.792 -31.132,-48.649 -58.425,-57.994 -5.404,-1.85 -12.047,-3.606 -14.763,-3.902 -4.6,-0.501 -4.459,-0.406 2.069,1.387 M 90.25,7.735 c 2.612,0.206 6.888,0.206 9.5,0 2.612,-0.206 0.475,-0.375 -4.75,-0.375 -5.225,0 -7.362,0.169 -4.75,0.375 M 79.813,8.683 c 0.721,0.289 1.584,0.253 1.916,-0.079 0.332,-0.332 -0.258,-0.568 -1.312,-0.525 -1.165,0.048 -1.402,0.285 -0.604,0.604 m 29,0 c 0.721,0.289 1.584,0.253 1.916,-0.079 0.332,-0.332 -0.258,-0.568 -1.312,-0.525 -1.165,0.048 -1.402,0.285 -0.604,0.604 m -34.48,0.984 c 0.367,0.366 0.967,0.366 1.334,0 C 76.033,9.3 75.733,9 75,9 74.267,9 73.967,9.3 74.333,9.667 m 39,0 c 0.367,0.366 0.967,0.366 1.334,0 C 115.033,9.3 114.733,9 114,9 c -0.733,0 -1.033,0.3 -0.667,0.667 m -43,1 c 0.367,0.366 0.967,0.366 1.334,0 C 72.033,10.3 71.733,10 71,10 c -0.733,0 -1.033,0.3 -0.667,0.667 m 47,0 c 0.367,0.366 0.967,0.366 1.334,0 C 119.033,10.3 118.733,10 118,10 c -0.733,0 -1.033,0.3 -0.667,0.667 m -50,1 c 0.367,0.366 0.967,0.366 1.334,0 C 69.033,11.3 68.733,11 68,11 c -0.733,0 -1.033,0.3 -0.667,0.667 m 25.936,0.026 c 0.973,0.254 2.323,0.237 3,-0.037 0.677,-0.274 -0.119,-0.481 -1.769,-0.461 -1.65,0.02 -2.204,0.244 -1.231,0.498 m -28.936,0.974 c 0.367,0.366 0.967,0.366 1.334,0 C 66.033,12.3 65.733,12 65,12 c -0.733,0 -1.033,0.3 -0.667,0.667 m 18.48,0.016 c 0.721,0.289 1.584,0.253 1.916,-0.079 0.332,-0.332 -0.258,-0.568 -1.312,-0.525 -1.165,0.048 -1.402,0.285 -0.604,0.604 m 22,0 c 0.721,0.289 1.584,0.253 1.916,-0.079 0.332,-0.332 -0.258,-0.568 -1.312,-0.525 -1.165,0.048 -1.402,0.285 -0.604,0.604 m -27.48,0.984 c 0.367,0.366 0.967,0.366 1.334,0 C 79.033,13.3 78.733,13 78,13 c -0.733,0 -1.033,0.3 -0.667,0.667 m 33.48,0.016 c 0.721,0.289 1.584,0.253 1.916,-0.079 0.332,-0.332 -0.258,-0.568 -1.312,-0.525 -1.165,0.048 -1.402,0.285 -0.604,0.604 m -37.48,0.984 c 0.367,0.366 0.967,0.366 1.334,0 C 75.033,14.3 74.733,14 74,14 c -0.733,0 -1.033,0.3 -0.667,0.667 m -4,1 c 0.367,0.366 0.967,0.366 1.334,0 C 71.033,15.3 70.733,15 70,15 c -0.733,0 -1.033,0.3 -0.667,0.667 m 14.936,0.026 c 0.973,0.254 2.323,0.237 3,-0.037 0.677,-0.274 -0.119,-0.481 -1.769,-0.461 -1.65,0.02 -2.204,0.244 -1.231,0.498 m 18,0 c 0.973,0.254 2.323,0.237 3,-0.037 0.677,-0.274 -0.119,-0.481 -1.769,-0.461 -1.65,0.02 -2.204,0.244 -1.231,0.498 m 16.064,-0.026 c 0.367,0.366 0.967,0.366 1.334,0 C 120.033,15.3 119.733,15 119,15 c -0.733,0 -1.033,0.3 -0.667,0.667 m -39.52,1.016 c 0.721,0.289 1.584,0.253 1.916,-0.079 0.332,-0.332 -0.258,-0.568 -1.312,-0.525 -1.165,0.048 -1.402,0.285 -0.604,0.604 m 30,0 c 0.721,0.289 1.584,0.253 1.916,-0.079 0.332,-0.332 -0.258,-0.568 -1.312,-0.525 -1.165,0.048 -1.402,0.285 -0.604,0.604 m 12.52,-0.016 c 0.367,0.366 0.967,0.366 1.334,0 C 123.033,16.3 122.733,16 122,16 c -0.733,0 -1.033,0.3 -0.667,0.667 m -47,1 c 0.367,0.366 0.967,0.366 1.334,0 C 76.033,17.3 75.733,17 75,17 c -0.733,0 -1.033,0.3 -0.667,0.667 m 39,0 c 0.367,0.366 0.967,0.366 1.334,0 C 115.033,17.3 114.733,17 114,17 c -0.733,0 -1.033,0.3 -0.667,0.667 m -62.928,1.488 c -0.443,0.715 -0.275,0.883 0.44,0.44 C 51.998,18.883 52.393,18 51.559,18 c -0.243,0 -0.762,0.52 -1.154,1.155 m 66.928,-0.488 c 0.367,0.366 0.967,0.366 1.334,0 C 119.033,18.3 118.733,18 118,18 c -0.733,0 -1.033,0.3 -0.667,0.667 m 9,0 c 0.367,0.366 0.967,0.366 1.334,0 C 128.033,18.3 127.733,18 127,18 c -0.733,0 -1.033,0.3 -0.667,0.667 m -6,1 c 0.367,0.366 0.967,0.366 1.334,0 C 122.033,19.3 121.733,19 121,19 c -0.733,0 -1.033,0.3 -0.667,0.667 m -55,1 c 0.367,0.366 0.967,0.366 1.334,0 C 67.033,20.3 66.733,20 66,20 c -0.733,0 -1.033,0.3 -0.667,0.667 m -19.928,1.488 c -0.443,0.715 -0.275,0.883 0.44,0.44 C 46.998,21.883 47.393,21 46.559,21 c -0.243,0 -0.762,0.52 -1.154,1.155 m 79.678,-0.782 C 126.112,22.294 132,24.999 132,24.551 132,23.975 126.456,21 125.383,21 c -0.394,0 -0.529,0.168 -0.3,0.373 M 133.5,22 c 0.34,0.55 0.843,1 1.118,1 0.275,0 0.222,-0.45 -0.118,-1 -0.34,-0.55 -0.843,-1 -1.118,-1 -0.275,0 -0.222,0.45 0.118,1 m -91.628,2.75 c -1.243,1.586 -1.208,1.621 0.378,0.378 C 43.916,23.821 44.445,23 43.622,23 c -0.207,0 -0.995,0.788 -1.75,1.75 m 9.533,-0.595 c -0.443,0.715 -0.275,0.883 0.44,0.44 C 52.998,23.883 53.393,23 52.559,23 c -0.243,0 -0.762,0.52 -1.154,1.155 M 138.5,25 c 0.34,0.55 0.843,1 1.118,1 0.275,0 0.222,-0.45 -0.118,-1 -0.34,-0.55 -0.843,-1 -1.118,-1 -0.275,0 -0.222,0.45 0.118,1 m -90.095,1.155 c -0.443,0.715 -0.275,0.883 0.44,0.44 C 49.998,25.883 50.393,25 49.559,25 c -0.243,0 -0.762,0.52 -1.154,1.155 M 148,25.378 c 0,0.207 0.787,0.995 1.75,1.75 1.586,1.243 1.621,1.208 0.378,-0.378 C 148.821,25.084 148,24.555 148,25.378 M 135.5,27 c 0.34,0.55 0.843,1 1.118,1 0.275,0 0.222,-0.45 -0.118,-1 -0.34,-0.55 -0.843,-1 -1.118,-1 -0.275,0 -0.222,0.45 0.118,1 M 32.469,33.25 26.5,39.5 32.75,33.531 C 38.556,27.987 39.458,27 38.719,27 c -0.155,0 -2.968,2.813 -6.25,6.25 m 12.403,-4.5 c -1.243,1.586 -1.208,1.621 0.378,0.378 0.962,-0.755 1.75,-1.543 1.75,-1.75 0,-0.823 -0.821,-0.294 -2.128,1.372 M 142.5,28 c 0.34,0.55 0.843,1 1.118,1 0.275,0 0.222,-0.45 -0.118,-1 -0.34,-0.55 -0.843,-1 -1.118,-1 -0.275,0 -0.222,0.45 0.118,1 m -93.628,1.75 c -1.243,1.586 -1.208,1.621 0.378,0.378 0.962,-0.755 1.75,-1.543 1.75,-1.75 0,-0.823 -0.821,-0.294 -2.128,1.372 M 138.5,29 c 0.34,0.55 0.843,1 1.118,1 0.275,0 0.222,-0.45 -0.118,-1 -0.34,-0.55 -0.843,-1 -1.118,-1 -0.275,0 -0.222,0.45 0.118,1 m 12.5,6.5 c 2.987,3.025 5.657,5.5 5.932,5.5 0.275,0 -1.945,-2.475 -4.932,-5.5 -2.987,-3.025 -5.657,-5.5 -5.932,-5.5 -0.275,0 1.945,2.475 4.932,5.5 m -114,0 C 34.571,37.975 32.809,40 33.084,40 33.359,40 35.571,37.975 38,35.5 40.429,33.025 42.191,31 41.916,31 41.641,31 39.429,33.025 37,35.5 M 44.405,33.25 42.5,35.5 44.75,33.595 C 46.864,31.805 47.455,31 46.655,31 c -0.19,0 -1.202,1.013 -2.25,2.25 M 142,31.378 c 0,0.207 0.787,0.995 1.75,1.75 1.586,1.243 1.621,1.208 0.378,-0.378 C 142.821,31.084 142,30.555 142,31.378 m 15,2.122 c 1.292,1.375 2.574,2.5 2.849,2.5 0.275,0 -0.557,-1.125 -1.849,-2.5 -1.292,-1.375 -2.574,-2.5 -2.849,-2.5 -0.275,0 0.557,1.125 1.849,2.5 m -9.595,3.655 c -0.443,0.715 -0.275,0.883 0.44,0.44 1.153,-0.712 1.548,-1.595 0.714,-1.595 -0.243,0 -0.762,0.52 -1.154,1.155 m -3.072,1.512 c 0.367,0.366 0.967,0.366 1.334,0 C 146.033,38.3 145.733,38 145,38 c -0.733,0 -1.033,0.3 -0.667,0.667 M 161,38.378 c 0,0.207 0.787,0.995 1.75,1.75 1.586,1.243 1.621,1.208 0.378,-0.378 C 161.821,38.084 161,37.555 161,38.378 m -19.667,1.289 c 0.367,0.366 0.967,0.366 1.334,0 C 143.033,39.3 142.733,39 142,39 c -0.733,0 -1.033,0.3 -0.667,0.667 M 34.924,42.75 32.5,45.5 35.25,43.076 C 37.82,40.81 38.459,40 37.674,40 c -0.179,0 -1.416,1.237 -2.75,2.75 m 103.409,-2.083 c 0.367,0.366 0.967,0.366 1.334,0 C 140.033,40.3 139.733,40 139,40 c -0.733,0 -1.033,0.3 -0.667,0.667 M 23.872,42.75 c -1.243,1.586 -1.208,1.621 0.378,0.378 C 25.916,41.821 26.445,41 25.622,41 c -0.207,0 -0.995,0.788 -1.75,1.75 m 6,1 c -1.243,1.586 -1.208,1.621 0.378,0.378 0.962,-0.755 1.75,-1.543 1.75,-1.75 0,-0.823 -0.821,-0.294 -2.128,1.372 m 123.323,0.75 c 0.02,1.65 0.244,2.204 0.498,1.231 0.254,-0.973 0.237,-2.323 -0.037,-3 -0.274,-0.677 -0.481,0.119 -0.461,1.769 m 6.138,-1.833 c 0.367,0.366 0.967,0.366 1.334,0 C 161.033,42.3 160.733,42 160,42 c -0.733,0 -1.033,0.3 -0.667,0.667 m -29,1 c 0.367,0.366 0.967,0.366 1.334,0 C 132.033,43.3 131.733,43 131,43 c -0.733,0 -1.033,0.3 -0.667,0.667 m 12.746,1.916 c 0.048,1.165 0.285,1.402 0.604,0.605 0.289,-0.722 0.253,-1.585 -0.079,-1.917 -0.332,-0.332 -0.568,0.258 -0.525,1.312 m 7.116,0.917 c 0.02,1.65 0.244,2.204 0.498,1.231 0.254,-0.973 0.237,-2.323 -0.037,-3 -0.274,-0.677 -0.481,0.119 -0.461,1.769 M 171.5,45 c 0.34,0.55 0.843,1 1.118,1 0.275,0 0.222,-0.45 -0.118,-1 -0.34,-0.55 -0.843,-1 -1.118,-1 -0.275,0 -0.222,0.45 0.118,1 M 21.405,46.155 c -0.443,0.715 -0.275,0.883 0.44,0.44 C 22.48,46.203 23,45.684 23,45.441 c 0,-0.834 -0.883,-0.439 -1.595,0.714 m 103.928,-0.488 c 0.367,0.366 0.967,0.366 1.334,0 C 127.033,45.3 126.733,45 126,45 c -0.733,0 -1.033,0.3 -0.667,0.667 m 40.746,0.916 c 0.048,1.165 0.285,1.402 0.604,0.605 0.289,-0.722 0.253,-1.585 -0.079,-1.917 -0.332,-0.332 -0.568,0.258 -0.525,1.312 M 27.405,47.155 c -0.443,0.715 -0.275,0.883 0.44,0.44 C 28.48,47.203 29,46.684 29,46.441 c 0,-0.834 -0.883,-0.439 -1.595,0.714 m 4,0 c -0.443,0.715 -0.275,0.883 0.44,0.44 C 32.998,46.883 33.393,46 32.559,46 c -0.243,0 -0.762,0.52 -1.154,1.155 M 146,48 c -0.901,0.582 -1.025,0.975 -0.309,0.985 0.655,0.008 1.469,-0.435 1.809,-0.985 0.767,-1.242 0.421,-1.242 -1.5,0 M 19.405,49.155 c -0.443,0.715 -0.275,0.883 0.44,0.44 C 20.48,49.203 21,48.684 21,48.441 c 0,-0.834 -0.883,-0.439 -1.595,0.714 m 17.037,4.368 C 27.651,67.266 23.616,84.94 25.831,100 c 0.877,5.964 0.779,6.704 -1.187,8.979 -1.179,1.364 -0.119,0.676 2.356,-1.528 2.475,-2.204 5.47,-4.682 6.656,-5.507 1.92,-1.337 2.062,-1.991 1.294,-5.972 C 32.564,83.607 34.525,62.94 39.095,52.278 40.104,49.925 40.714,48 40.452,48 c -0.262,0 -2.067,2.485 -4.01,5.523 M 117,49 c -0.825,0.533 -1.05,0.969 -0.5,0.969 0.55,0 1.675,-0.436 2.5,-0.969 0.825,-0.533 1.05,-0.969 0.5,-0.969 -0.55,0 -1.675,0.436 -2.5,0.969 m 21.638,0.5 c 0.317,0.825 0.753,1.5 0.969,1.5 0.216,0 0.393,-0.675 0.393,-1.5 0,-0.825 -0.436,-1.5 -0.969,-1.5 -0.532,0 -0.709,0.675 -0.393,1.5 m 22.695,-0.833 c 0.367,0.366 0.967,0.366 1.334,0 C 163.033,48.3 162.733,48 162,48 c -0.733,0 -1.033,0.3 -0.667,0.667 M 25.405,50.155 c -0.443,0.715 -0.275,0.883 0.44,0.44 C 26.48,50.203 27,49.684 27,49.441 c 0,-0.834 -0.883,-0.439 -1.595,0.714 m 4,0 c -0.443,0.715 -0.275,0.883 0.44,0.44 C 30.48,50.203 31,49.684 31,49.441 31,48.607 30.117,49.002 29.405,50.155 M 169.5,50 c 0.34,0.55 0.843,1 1.118,1 0.275,0 0.222,-0.45 -0.118,-1 -0.34,-0.55 -0.843,-1 -1.118,-1 -0.275,0 -0.222,0.45 0.118,1 m -22.167,0.667 c 0.367,0.366 0.967,0.366 1.334,0 C 149.033,50.3 148.733,50 148,50 c -0.733,0 -1.033,0.3 -0.667,0.667 m 7.746,0.916 c 0.048,1.165 0.285,1.402 0.604,0.605 0.289,-0.722 0.253,-1.585 -0.079,-1.917 -0.332,-0.332 -0.568,0.258 -0.525,1.312 M 159,50.941 c 0,0.518 0.445,1.216 0.989,1.552 0.566,0.35 0.734,-0.051 0.393,-0.941 C 159.717,49.82 159,49.503 159,50.941 m 7.029,0.02 c -0.809,0.512 -1.211,1.191 -0.893,1.509 0.319,0.318 1.148,-0.108 1.844,-0.946 1.443,-1.738 1.166,-1.902 -0.951,-0.563 m -21.539,1.055 c -0.346,0.559 -0.935,0.827 -1.309,0.596 -0.375,-0.232 -0.681,0.661 -0.681,1.983 0,1.323 0.08,2.405 0.177,2.405 0.097,0 0.85,-1.35 1.673,-3 1.411,-2.827 1.507,-4.196 0.14,-1.984 M 27.405,53.155 c -0.443,0.715 -0.275,0.883 0.44,0.44 C 28.48,53.203 29,52.684 29,52.441 29,51.607 28.117,52.002 27.405,53.155 M 127.2,53.2 c -0.66,0.66 -1.2,2.433 -1.2,3.941 0,1.508 -0.45,3.019 -1,3.359 -0.55,0.34 -0.997,1.379 -0.994,2.309 0.004,1.07 0.555,0.639 1.5,-1.173 0.822,-1.576 1.494,-3.916 1.494,-5.201 0,-1.284 0.787,-2.794 1.75,-3.355 0.963,-0.561 1.278,-1.033 0.7,-1.05 -0.577,-0.016 -1.59,0.51 -2.25,1.17 m 21.879,1.383 c 0.048,1.165 0.285,1.402 0.604,0.605 0.289,-0.722 0.253,-1.585 -0.079,-1.917 -0.332,-0.332 -0.568,0.258 -0.525,1.312 M 156,54.378 c 0,0.207 0.787,0.995 1.75,1.75 1.586,1.243 1.621,1.208 0.378,-0.378 C 156.821,54.084 156,53.555 156,54.378 m -25.921,2.205 c 0.048,1.165 0.285,1.402 0.604,0.605 0.289,-0.722 0.253,-1.585 -0.079,-1.917 -0.332,-0.332 -0.568,0.258 -0.525,1.312 M 133.5,56 c -1.63,0.701 -1.688,0.872 -0.309,0.93 0.93,0.038 1.969,-0.38 2.309,-0.93 0.711,-1.15 0.676,-1.15 -2,0 m 11.579,0.583 c 0.048,1.165 0.285,1.402 0.604,0.605 0.289,-0.722 0.253,-1.585 -0.079,-1.917 -0.332,-0.332 -0.568,0.258 -0.525,1.312 M 170,58.031 c 0,0.533 0.417,0.969 0.927,0.969 0.509,0 1.132,0.788 1.384,1.75 0.36,1.38 0.481,1.297 0.573,-0.393 0.064,-1.179 -0.559,-2.402 -1.384,-2.719 -0.825,-0.316 -1.5,-0.139 -1.5,0.393 m 8.031,0.469 c 0,0.55 0.436,1.675 0.969,2.5 0.533,0.825 0.969,1.05 0.969,0.5 0,-0.55 -0.436,-1.675 -0.969,-2.5 -0.533,-0.825 -0.969,-1.05 -0.969,-0.5 m -44.473,1.407 c -0.309,0.498 0.34,0.671 1.441,0.383 2.335,-0.611 2.63,-1.29 0.56,-1.29 -0.793,0 -1.693,0.408 -2.001,0.907 m -41.117,1.648 c -1.864,1.494 -1.852,1.512 0.309,0.465 1.237,-0.6 2.25,-1.3 2.25,-1.555 0,-0.765 -0.519,-0.544 -2.559,1.09 m 10.964,-0.4 c -0.443,0.715 -0.275,0.883 0.44,0.44 0.635,-0.392 1.155,-0.911 1.155,-1.154 0,-0.834 -0.883,-0.439 -1.595,0.714 M 150,61 c 0,0.733 0.3,1.033 0.667,0.667 0.366,-0.367 0.366,-0.967 0,-1.334 C 150.3,59.967 150,60.267 150,61 m 13.606,1.848 -1.894,2.652 2.338,-2.222 c 1.287,-1.222 2.139,-2.416 1.894,-2.652 -0.244,-0.237 -1.296,0.763 -2.338,2.222 M 13,62 c 0,0.733 0.3,1.033 0.667,0.667 0.366,-0.367 0.366,-0.967 0,-1.334 C 13.3,60.967 13,61.267 13,62 m 10,0 c 0,0.733 0.3,1.033 0.667,0.667 0.366,-0.367 0.366,-0.967 0,-1.334 C 23.3,60.967 23,61.267 23,62 m 108.158,1 c 0,1.375 0.227,1.938 0.504,1.25 0.278,-0.687 0.278,-1.812 0,-2.5 -0.277,-0.687 -0.504,-0.125 -0.504,1.25 M 146,62 c 0,0.733 0.3,1.033 0.667,0.667 0.366,-0.367 0.366,-0.967 0,-1.334 C 146.3,60.967 146,61.267 146,62 m 12.333,-0.333 c 0.367,0.366 0.967,0.366 1.334,0 C 160.033,61.3 159.733,61 159,61 c -0.733,0 -1.033,0.3 -0.667,0.667 M 19,63 c 0,0.733 0.3,1.033 0.667,0.667 0.366,-0.367 0.366,-0.967 0,-1.334 C 19.3,61.967 19,62.267 19,63 m 87,0 c 0,0.733 0.3,1.033 0.667,0.667 0.366,-0.367 0.366,-0.967 0,-1.334 C 106.3,61.967 106,62.267 106,63 m 12.75,-0.338 c 0.688,0.278 1.813,0.278 2.5,0 0.688,-0.277 0.125,-0.504 -1.25,-0.504 -1.375,0 -1.937,0.227 -1.25,0.504 m 22.329,0.921 c 0.048,1.165 0.285,1.402 0.604,0.605 0.289,-0.722 0.253,-1.585 -0.079,-1.917 -0.332,-0.332 -0.568,0.258 -0.525,1.312 m 26.358,-0.812 c 0.342,0.341 1.324,0.723 2.184,0.85 0.859,0.126 1.283,-0.05 0.942,-0.392 -0.342,-0.341 -1.324,-0.723 -2.184,-0.85 -0.859,-0.126 -1.283,0.05 -0.942,0.392 M 101,64 c 0,0.733 0.3,1.033 0.667,0.667 0.366,-0.367 0.366,-0.967 0,-1.334 C 101.3,62.967 101,63.267 101,64 m 13.405,1.25 -1.905,2.25 2.25,-1.905 c 2.114,-1.79 2.705,-2.595 1.905,-2.595 -0.19,0 -1.202,1.013 -2.25,2.25 m 22.674,-0.667 c 0.048,1.165 0.285,1.402 0.604,0.605 0.289,-0.722 0.253,-1.585 -0.079,-1.917 -0.332,-0.332 -0.568,0.258 -0.525,1.312 M 180,64 c 0,0.733 0.3,1.033 0.667,0.667 0.366,-0.367 0.366,-0.967 0,-1.334 C 180.3,62.967 180,63.267 180,64 m -94.559,1.555 c -1.864,1.494 -1.852,1.512 0.309,0.465 1.237,-0.6 2.25,-1.3 2.25,-1.555 0,-0.765 -0.519,-0.544 -2.559,1.09 M 127,65 c 0,0.733 0.3,1.033 0.667,0.667 0.366,-0.367 0.366,-0.967 0,-1.334 C 127.3,63.967 127,64.267 127,65 m 30.768,0.168 c 0.582,0.582 1.647,0.86 2.369,0.62 0.749,-0.25 0.295,-0.703 -1.057,-1.057 -1.663,-0.435 -2.054,-0.305 -1.312,0.437 M 18,66 c 0,0.733 0.3,1.033 0.667,0.667 0.366,-0.367 0.366,-0.967 0,-1.334 C 18.3,64.967 18,65.267 18,66 m 133,0 c 0,0.733 0.3,1.033 0.667,0.667 0.366,-0.367 0.366,-0.967 0,-1.334 C 151.3,64.967 151,65.267 151,66 m 26,0 c 0,0.733 0.3,1.033 0.667,0.667 0.366,-0.367 0.366,-0.967 0,-1.334 C 177.3,64.967 177,65.267 177,66 M 21,67 c 0,0.733 0.3,1.033 0.667,0.667 0.366,-0.367 0.366,-0.967 0,-1.334 C 21.3,65.967 21,66.267 21,67 m 86,0 c 0,0.733 0.3,1.033 0.667,0.667 0.366,-0.367 0.366,-0.967 0,-1.334 C 107.3,65.967 107,66.267 107,67 m 12.891,0.206 c 0.705,0.939 0.951,2.289 0.548,3 -0.59,1.042 -0.469,1.049 0.621,0.037 1.131,-1.05 1.041,-1.544 -0.548,-3 -1.713,-1.569 -1.775,-1.573 -0.621,-0.037 M 181,67 c 0,0.733 0.3,1.033 0.667,0.667 0.366,-0.367 0.366,-0.967 0,-1.334 C 181.3,65.967 181,66.267 181,67 m -99.595,1.155 c -0.443,0.715 -0.275,0.883 0.44,0.44 C 82.998,67.883 83.393,67 82.559,67 c -0.243,0 -0.762,0.52 -1.154,1.155 m 35,0 c -0.443,0.715 -0.275,0.883 0.44,0.44 1.153,-0.712 1.548,-1.595 0.714,-1.595 -0.243,0 -0.762,0.52 -1.154,1.155 M 125,68 c 0,0.733 0.3,1.033 0.667,0.667 0.366,-0.367 0.366,-0.967 0,-1.334 C 125.3,66.967 125,67.267 125,68 m 7.079,0.583 c 0.048,1.165 0.285,1.402 0.604,0.605 0.289,-0.722 0.253,-1.585 -0.079,-1.917 -0.332,-0.332 -0.568,0.258 -0.525,1.312 M 142.5,68 c 0.34,0.55 0.843,1 1.118,1 0.275,0 0.222,-0.45 -0.118,-1 -0.34,-0.55 -0.843,-1 -1.118,-1 -0.275,0 -0.222,0.45 0.118,1 m 3.186,0.908 c 0.253,0.967 1.059,1.759 1.792,1.759 1.613,0 0.891,-2.312 -0.942,-3.015 -0.859,-0.329 -1.151,0.103 -0.85,1.256 M 17,69 c 0,0.733 0.3,1.033 0.667,0.667 0.366,-0.367 0.366,-0.967 0,-1.334 C 17.3,67.967 17,68.267 17,69 m 95,0 c 0,0.733 0.3,1.033 0.667,0.667 0.366,-0.367 0.366,-0.967 0,-1.334 C 112.3,67.967 112,68.267 112,69 m 66,0 c 0,0.733 0.3,1.033 0.667,0.667 0.366,-0.367 0.366,-0.967 0,-1.334 C 178.3,67.967 178,68.267 178,69 M 20,70 c 0,0.733 0.3,1.033 0.667,0.667 0.366,-0.367 0.366,-0.967 0,-1.334 C 20.3,68.967 20,69.267 20,70 m 57.441,0.555 c -1.864,1.494 -1.852,1.512 0.309,0.465 1.237,-0.6 2.25,-1.3 2.25,-1.555 0,-0.765 -0.519,-0.544 -2.559,1.09 m 50.638,0.028 c 0.048,1.165 0.285,1.402 0.604,0.605 0.289,-0.722 0.253,-1.585 -0.079,-1.917 -0.332,-0.332 -0.568,0.258 -0.525,1.312 m 54,0 c 0.048,1.165 0.285,1.402 0.604,0.605 0.289,-0.722 0.253,-1.585 -0.079,-1.917 -0.332,-0.332 -0.568,0.258 -0.525,1.312 M 10,71 c 0,0.733 0.3,1.033 0.667,0.667 0.366,-0.367 0.366,-0.967 0,-1.334 C 10.3,69.967 10,70.267 10,71 m 92.211,0.538 c -1.066,1.208 -1.022,1.462 0.25,1.462 0.846,0 1.539,-0.675 1.539,-1.5 0,-1.824 -0.15,-1.82 -1.789,0.038 M 108,72 c 0,0.733 0.3,1.033 0.667,0.667 0.366,-0.367 0.366,-0.967 0,-1.334 C 108.3,70.967 108,71.267 108,72 m 9.405,0.155 c -0.443,0.715 -0.275,0.883 0.44,0.44 1.153,-0.712 1.548,-1.595 0.714,-1.595 -0.243,0 -0.762,0.52 -1.154,1.155 M 133.5,72 c 0.34,0.55 0.843,1 1.118,1 0.275,0 0.222,-0.45 -0.118,-1 -0.34,-0.55 -0.843,-1 -1.118,-1 -0.275,0 -0.222,0.45 0.118,1 m 3.231,1.08 c 0.354,1.352 0.807,1.806 1.057,1.057 0.24,-0.722 -0.038,-1.787 -0.62,-2.369 -0.742,-0.742 -0.872,-0.351 -0.437,1.312 M 172,72 c 0,0.733 0.3,1.033 0.667,0.667 0.366,-0.367 0.366,-0.967 0,-1.334 C 172.3,70.967 172,71.267 172,72 m 7,0 c 0,0.733 0.3,1.033 0.667,0.667 0.366,-0.367 0.366,-0.967 0,-1.334 C 179.3,70.967 179,71.267 179,72 M 16,73 c 0,0.733 0.3,1.033 0.667,0.667 0.366,-0.367 0.366,-0.967 0,-1.334 C 16.3,71.967 16,72.267 16,73 m 57.405,0.155 c -0.443,0.715 -0.275,0.883 0.44,0.44 C 74.48,73.203 75,72.684 75,72.441 75,71.607 74.117,72.002 73.405,73.155 M 169,73 c 0,0.733 0.3,1.033 0.667,0.667 0.366,-0.367 0.366,-0.967 0,-1.334 C 169.3,71.967 169,72.267 169,73 M 9,74 c 0,0.733 0.3,1.033 0.667,0.667 0.366,-0.367 0.366,-0.967 0,-1.334 C 9.3,72.967 9,73.267 9,74 m 10,0 c 0,0.733 0.3,1.033 0.667,0.667 0.366,-0.367 0.366,-0.967 0,-1.334 C 19.3,72.967 19,73.267 19,74 m 101.405,0.155 c -0.443,0.715 -0.275,0.883 0.44,0.44 0.635,-0.392 1.155,-0.911 1.155,-1.154 0,-0.834 -0.883,-0.439 -1.595,0.714 m 20.928,-0.488 c 0.367,0.366 0.967,0.366 1.334,0 C 143.033,73.3 142.733,73 142,73 c -0.733,0 -1.033,0.3 -0.667,0.667 m 13,0 c 0.367,0.366 0.967,0.366 1.334,0 C 156.033,73.3 155.733,73 155,73 c -0.733,0 -1.033,0.3 -0.667,0.667 m 28.746,0.916 c 0.048,1.165 0.285,1.402 0.604,0.605 0.289,-0.722 0.253,-1.585 -0.079,-1.917 -0.332,-0.332 -0.568,0.258 -0.525,1.312 M 70.405,75.155 c -0.443,0.715 -0.275,0.883 0.44,0.44 C 71.48,75.203 72,74.684 72,74.441 c 0,-0.834 -0.883,-0.439 -1.595,0.714 m 58.625,-0.527 c -0.048,1.779 2.697,3.583 4.672,3.071 1.442,-0.375 1.362,-0.49 -0.402,-0.583 -1.21,-0.064 -2.659,-0.903 -3.22,-1.866 -0.561,-0.963 -1.033,-1.243 -1.05,-0.622 M 109,76 c 0,0.733 0.3,1.033 0.667,0.667 0.366,-0.367 0.366,-0.967 0,-1.334 C 109.3,74.967 109,75.267 109,76 m 64,0 c 0,0.733 0.3,1.033 0.667,0.667 0.366,-0.367 0.366,-0.967 0,-1.334 C 173.3,74.967 173,75.267 173,76 M 15.079,77.583 c 0.048,1.165 0.285,1.402 0.604,0.605 0.289,-0.722 0.253,-1.585 -0.079,-1.917 -0.332,-0.332 -0.568,0.258 -0.525,1.312 m 52.326,-0.428 c -0.443,0.715 -0.275,0.883 0.44,0.44 C 68.998,76.883 69.393,76 68.559,76 c -0.243,0 -0.762,0.52 -1.154,1.155 m 35.408,-0.472 c 0.721,0.289 1.584,0.253 1.916,-0.079 0.332,-0.332 -0.258,-0.568 -1.312,-0.525 -1.165,0.048 -1.402,0.285 -0.604,0.604 m 21.79,0.15 c -0.283,0.459 0.12,0.834 0.897,0.834 0.777,0 1.18,-0.375 0.897,-0.834 C 126.114,76.375 125.71,76 125.5,76 c -0.21,0 -0.614,0.375 -0.897,0.833 M 180,77 c 0,0.733 0.3,1.033 0.667,0.667 0.366,-0.367 0.366,-0.967 0,-1.334 C 180.3,75.967 180,76.267 180,77 M 18.079,78.583 c 0.048,1.165 0.285,1.402 0.604,0.605 0.289,-0.722 0.253,-1.585 -0.079,-1.917 -0.332,-0.332 -0.568,0.258 -0.525,1.312 M 112,78 c 0,0.733 0.3,1.033 0.667,0.667 0.366,-0.367 0.366,-0.967 0,-1.334 C 112.3,76.967 112,77.267 112,78 M 8.079,79.583 c 0.048,1.165 0.285,1.402 0.604,0.605 0.289,-0.722 0.253,-1.585 -0.079,-1.917 -0.332,-0.332 -0.568,0.258 -0.525,1.312 m 55.793,0.167 c -1.243,1.586 -1.208,1.621 0.378,0.378 C 65.916,78.821 66.445,78 65.622,78 c -0.207,0 -0.995,0.787 -1.75,1.75 m 120.207,-0.167 c 0.048,1.165 0.285,1.402 0.604,0.605 0.289,-0.722 0.253,-1.585 -0.079,-1.917 -0.332,-0.332 -0.568,0.258 -0.525,1.312 M 99,80 c 0,0.733 0.3,1.033 0.667,0.667 0.366,-0.367 0.366,-0.967 0,-1.334 C 99.3,78.967 99,79.267 99,80 m 26.1,1.295 c -1.265,2.107 -1.243,2.128 0.479,0.479 0.991,-0.95 1.587,-1.942 1.324,-2.205 -0.263,-0.263 -1.074,0.514 -1.803,1.726 m 49.095,1.205 c 0.02,1.65 0.244,2.204 0.498,1.231 0.254,-0.973 0.237,-2.323 -0.037,-3 -0.274,-0.677 -0.481,0.119 -0.461,1.769 M 60.405,82.155 c -0.443,0.715 -0.275,0.883 0.44,0.44 C 61.48,82.203 62,81.684 62,81.441 c 0,-0.834 -0.883,-0.439 -1.595,0.714 m 24.928,-0.488 c 0.367,0.366 0.967,0.366 1.334,0 C 87.033,81.3 86.733,81 86,81 c -0.733,0 -1.033,0.3 -0.667,0.667 M 90,81.378 c 0,0.207 0.787,0.995 1.75,1.75 1.586,1.243 1.621,1.208 0.378,-0.378 C 90.821,81.084 90,80.555 90,81.378 M 93.755,83.5 C 93.492,84.875 93.665,86 94.139,86 94.612,86 95,84.875 95,83.5 95,82.125 94.827,81 94.617,81 c -0.211,0 -0.599,1.125 -0.862,2.5 m 87.324,-0.917 c 0.048,1.165 0.285,1.402 0.604,0.605 0.289,-0.722 0.253,-1.585 -0.079,-1.917 -0.332,-0.332 -0.568,0.258 -0.525,1.312 M 14.158,84 c 0,1.375 0.227,1.938 0.504,1.25 0.278,-0.687 0.278,-1.812 0,-2.5 C 14.385,82.063 14.158,82.625 14.158,84 M 114,82.378 c 0,0.207 0.787,0.995 1.75,1.75 1.586,1.243 1.621,1.208 0.378,-0.378 C 114.821,82.084 114,81.555 114,82.378 M 171.158,84 c 0,1.375 0.227,1.938 0.504,1.25 0.278,-0.687 0.278,-1.812 0,-2.5 -0.277,-0.687 -0.504,-0.125 -0.504,1.25 M 17.36,92 c 0,5.225 0.169,7.362 0.375,4.75 0.206,-2.612 0.206,-6.888 0,-9.5 C 17.529,84.638 17.36,86.775 17.36,92 m 40.045,-7.845 c -0.443,0.715 -0.275,0.883 0.44,0.44 C 58.48,84.203 59,83.684 59,83.441 c 0,-0.834 -0.883,-0.439 -1.595,0.714 m 48.674,0.428 c 0.048,1.165 0.285,1.402 0.604,0.605 0.289,-0.722 0.253,-1.585 -0.079,-1.917 -0.332,-0.332 -0.568,0.258 -0.525,1.312 M 7.195,86.5 c 0.02,1.65 0.244,2.204 0.498,1.231 0.254,-0.973 0.237,-2.323 -0.037,-3 C 7.382,84.054 7.175,84.85 7.195,86.5 M 99,85 c 0,0.733 0.3,1.033 0.667,0.667 0.366,-0.367 0.366,-0.967 0,-1.334 C 99.3,83.967 99,84.267 99,85 m -45.128,1.75 c -1.243,1.586 -1.208,1.621 0.378,0.378 C 55.916,85.821 56.445,85 55.622,85 c -0.207,0 -0.995,0.787 -1.75,1.75 m 34.055,-0.5 c 1.09,1.448 1.09,2.052 0,3.5 -1.255,1.667 -1.227,1.667 0.592,0 1.879,-1.722 1.879,-1.778 0,-3.5 -1.819,-1.667 -1.847,-1.667 -0.592,0 m 97.438,8.25 c 0.003,5.5 0.171,7.622 0.373,4.716 0.203,-2.905 0.201,-7.405 -0.004,-10 C 185.528,86.622 185.363,89 185.365,94.5 M 50.405,89.155 c -0.443,0.715 -0.275,0.883 0.44,0.44 C 51.48,89.203 52,88.684 52,88.441 52,87.607 51.117,88.002 50.405,89.155 M 79,89 c 0,0.733 0.3,1.033 0.667,0.667 0.366,-0.367 0.366,-0.967 0,-1.334 C 79.3,87.967 79,88.267 79,89 m 4,0 c 0,0.733 0.3,1.033 0.667,0.667 0.366,-0.367 0.366,-0.967 0,-1.334 C 83.3,87.967 83,88.267 83,89 m 10.658,0.449 c -0.372,0.969 -0.076,1.265 0.893,0.893 C 95.348,90.036 96,89.384 96,88.893 c 0,-1.438 -1.735,-1.026 -2.342,0.556 m 10.747,-0.294 c -0.443,0.715 -0.275,0.883 0.44,0.44 1.153,-0.712 1.548,-1.595 0.714,-1.595 -0.243,0 -0.762,0.52 -1.154,1.155 m 4.928,1.512 c 0.367,0.366 0.967,0.366 1.334,0 C 111.033,90.3 110.733,90 110,90 c -0.733,0 -1.033,0.3 -0.667,0.667 m 10.072,0.488 c -0.443,0.715 -0.275,0.883 0.44,0.44 1.153,-0.712 1.548,-1.595 0.714,-1.595 -0.243,0 -0.762,0.52 -1.154,1.155 m -73,1 c -0.443,0.715 -0.275,0.883 0.44,0.44 C 47.48,92.203 48,91.684 48,91.441 c 0,-0.834 -0.883,-0.439 -1.595,0.714 m 24.928,-0.488 c 0.367,0.366 0.967,0.366 1.334,0 C 73.033,91.3 72.733,91 72,91 c -0.733,0 -1.033,0.3 -0.667,0.667 M 83,92.167 c 0,0.458 0.423,0.833 0.941,0.833 0.518,0 1.173,-0.375 1.456,-0.833 0.283,-0.459 -0.14,-0.834 -0.941,-0.834 -0.801,0 -1.456,0.375 -1.456,0.834 m 7.405,-0.012 c -0.443,0.715 -0.275,0.883 0.44,0.44 C 91.48,92.203 92,91.684 92,91.441 c 0,-0.834 -0.883,-0.439 -1.595,0.714 m 16,0 c -0.443,0.715 -0.275,0.883 0.44,0.44 1.153,-0.712 1.548,-1.595 0.714,-1.595 -0.243,0 -0.762,0.52 -1.154,1.155 M 182.272,95 c 0,2.475 0.195,3.487 0.434,2.25 0.238,-1.237 0.238,-3.263 0,-4.5 -0.239,-1.237 -0.434,-0.225 -0.434,2.25 m -114.4,-1.25 c -1.243,1.586 -1.208,1.621 0.378,0.378 C 69.916,92.821 70.445,92 69.622,92 c -0.207,0 -0.995,0.787 -1.75,1.75 M 74.5,93 c 0.34,0.55 0.843,1 1.118,1 0.275,0 0.222,-0.45 -0.118,-1 -0.34,-0.55 -0.843,-1 -1.118,-1 -0.275,0 -0.222,0.45 0.118,1 m -31.628,1.75 c -1.243,1.586 -1.208,1.621 0.378,0.378 C 44.916,93.821 45.445,93 44.622,93 c -0.207,0 -0.995,0.787 -1.75,1.75 m 55.354,-0.171 c 0.95,0.991 1.942,1.587 2.205,1.324 0.263,-0.263 -0.514,-1.074 -1.726,-1.803 -2.107,-1.265 -2.128,-1.243 -0.479,0.479 M 76,96 c 0,0.733 0.3,1.033 0.667,0.667 0.366,-0.367 0.366,-0.967 0,-1.334 C 76.3,94.967 76,95.267 76,96 m 8.405,0.155 c -0.443,0.715 -0.275,0.883 0.44,0.44 C 85.48,96.203 86,95.684 86,95.441 c 0,-0.834 -0.883,-0.439 -1.595,0.714 m 7,1.095 L 89.5,99.5 92,97.511 c 1.375,-1.094 2.688,-2.107 2.917,-2.25 C 95.146,95.117 94.878,95 94.322,95 c -0.557,0 -1.869,1.013 -2.917,2.25 m 10.928,-1.583 c 0.367,0.366 0.967,0.366 1.334,0 C 104.033,95.3 103.733,95 103,95 c -0.733,0 -1.033,0.3 -0.667,0.667 M 38.872,97.75 c -1.243,1.586 -1.208,1.621 0.378,0.378 C 40.916,96.821 41.445,96 40.622,96 c -0.207,0 -0.995,0.787 -1.75,1.75 m 26.533,-0.595 c -0.443,0.715 -0.275,0.883 0.44,0.44 C 66.998,96.883 67.393,96 66.559,96 c -0.243,0 -0.762,0.52 -1.154,1.155 M 79,98 c 0,0.733 0.3,1.033 0.667,0.667 0.366,-0.367 0.366,-0.967 0,-1.334 C 79.3,96.967 79,97.267 79,98 m 16,0 c 0,0.733 0.3,1.033 0.667,0.667 0.366,-0.367 0.366,-0.967 0,-1.334 C 95.3,96.967 95,97.267 95,98 m 12.405,0.155 c -0.443,0.715 -0.275,0.883 0.44,0.44 1.153,-0.712 1.548,-1.595 0.714,-1.595 -0.243,0 -0.762,0.52 -1.154,1.155 m -93.21,2.345 c 0.02,1.65 0.244,2.204 0.498,1.231 0.254,-0.973 0.237,-2.323 -0.037,-3 -0.274,-0.677 -0.481,0.119 -0.461,1.769 m 45.833,-1.034 c -0.669,0.807 -1.062,1.917 -0.873,2.468 0.19,0.55 0.865,-0.11 1.501,-1.467 1.318,-2.813 1.127,-3.116 -0.628,-1.001 M 63.5,99 c 0.34,0.55 0.843,1 1.118,1 0.275,0 0.222,-0.45 -0.118,-1 -0.34,-0.55 -0.843,-1 -1.118,-1 -0.275,0 -0.222,0.45 0.118,1 m 3.905,1.25 -1.905,2.25 2.34,-1.987 c 2.308,-1.959 2.36,-1.96 3.75,-0.059 0.776,1.061 1.41,1.482 1.41,0.937 C 73,100.282 70.951,98 69.955,98 c -0.355,0 -1.502,1.013 -2.55,2.25 m 18.363,-1.082 c 0.582,0.582 1.647,0.86 2.369,0.62 0.749,-0.25 0.295,-0.703 -1.057,-1.057 -1.663,-0.435 -2.054,-0.305 -1.312,0.437 m 18.637,0.987 c -0.443,0.715 -0.275,0.883 0.44,0.44 1.153,-0.712 1.548,-1.595 0.714,-1.595 -0.243,0 -0.762,0.52 -1.154,1.155 M 171.158,101 c 0,1.375 0.227,1.938 0.504,1.25 0.278,-0.687 0.278,-1.812 0,-2.5 -0.277,-0.687 -0.504,-0.125 -0.504,1.25 M 7.232,103 c 0,1.925 0.206,2.713 0.457,1.75 0.252,-0.963 0.252,-2.537 0,-3.5 -0.251,-0.963 -0.457,-0.175 -0.457,1.75 m 85.173,-0.75 -1.905,2.25 2.25,-1.905 c 1.237,-1.048 2.25,-2.06 2.25,-2.25 0,-0.8 -0.805,-0.209 -2.595,1.905 M 174.158,102 c 0,1.375 0.227,1.938 0.504,1.25 0.278,-0.687 0.278,-1.812 0,-2.5 -0.277,-0.687 -0.504,-0.125 -0.504,1.25 m -72.753,0.155 c -0.443,0.715 -0.275,0.883 0.44,0.44 0.635,-0.392 1.155,-0.911 1.155,-1.154 0,-0.834 -0.883,-0.439 -1.595,0.714 M 3.195,104.5 c 0.02,1.65 0.244,2.204 0.498,1.231 0.254,-0.973 0.237,-2.323 -0.037,-3 -0.274,-0.677 -0.481,0.119 -0.461,1.769 M 78,103 c 0,0.733 0.3,1.033 0.667,0.667 0.366,-0.367 0.366,-0.967 0,-1.334 C 78.3,101.967 78,102.267 78,103 m 3,-0.622 c 0,0.207 0.787,0.995 1.75,1.75 1.586,1.243 1.621,1.208 0.378,-0.378 C 81.821,102.084 81,101.555 81,102.378 m 17.405,1.777 c -0.443,0.715 -0.275,0.883 0.44,0.44 1.153,-0.712 1.548,-1.595 0.714,-1.595 -0.243,0 -0.762,0.52 -1.154,1.155 m -80.326,1.428 c 0.048,1.165 0.285,1.402 0.604,0.605 0.289,-0.722 0.253,-1.585 -0.079,-1.917 -0.332,-0.332 -0.568,0.258 -0.525,1.312 M 66,105 c 0,0.733 0.3,1.033 0.667,0.667 0.366,-0.367 0.366,-0.967 0,-1.334 C 66.3,103.967 66,104.267 66,105 m 19.813,0.683 c 0.721,0.289 1.584,0.253 1.916,-0.079 0.332,-0.332 -0.258,-0.568 -1.312,-0.525 -1.165,0.048 -1.402,0.285 -0.604,0.604 m 9.592,0.472 c -0.443,0.715 -0.275,0.883 0.44,0.44 0.635,-0.392 1.155,-0.911 1.155,-1.154 0,-0.834 -0.883,-0.439 -1.595,0.714 m -80.326,1.428 c 0.048,1.165 0.285,1.402 0.604,0.605 0.289,-0.722 0.253,-1.585 -0.079,-1.917 -0.332,-0.332 -0.568,0.258 -0.525,1.312 m 34.326,-0.428 c -0.443,0.715 -0.275,0.883 0.44,0.44 0.635,-0.392 1.155,-0.911 1.155,-1.154 0,-0.834 -0.883,-0.439 -1.595,0.714 M 170,107 c 0,0.733 0.3,1.033 0.667,0.667 0.366,-0.367 0.366,-0.967 0,-1.334 C 170.3,105.967 170,106.267 170,107 m 11.079,0.583 c 0.048,1.165 0.285,1.402 0.604,0.605 0.289,-0.722 0.253,-1.585 -0.079,-1.917 -0.332,-0.332 -0.568,0.258 -0.525,1.312 m -8,1 c 0.048,1.165 0.285,1.402 0.604,0.605 0.289,-0.722 0.253,-1.585 -0.079,-1.917 -0.332,-0.332 -0.568,0.258 -0.525,1.312 M 58.5,109 c 0.34,0.55 0.843,1 1.118,1 0.275,0 0.222,-0.45 -0.118,-1 -0.34,-0.55 -0.843,-1 -1.118,-1 -0.275,0 -0.222,0.45 0.118,1 m 8.5,0 c 0,0.733 0.3,1.033 0.667,0.667 0.366,-0.367 0.366,-0.967 0,-1.334 C 67.3,107.967 67,108.267 67,109 m 7,0 c 0,0.733 0.3,1.033 0.667,0.667 0.366,-0.367 0.366,-0.967 0,-1.334 C 74.3,107.967 74,108.267 74,109 m 5.237,1.76 c -1.168,2.491 -1.14,2.572 0.366,1.066 0.896,-0.896 1.464,-2.109 1.263,-2.695 -0.201,-0.586 -0.935,0.147 -1.629,1.629 m 12.168,-1.605 c -0.443,0.715 -0.275,0.883 0.44,0.44 0.635,-0.392 1.155,-0.911 1.155,-1.154 0,-0.834 -0.883,-0.439 -1.595,0.714 m 92.674,0.428 c 0.048,1.165 0.285,1.402 0.604,0.605 0.289,-0.722 0.253,-1.585 -0.079,-1.917 -0.332,-0.332 -0.568,0.258 -0.525,1.312 m -176,1 c 0.048,1.165 0.285,1.402 0.604,0.605 0.289,-0.722 0.253,-1.585 -0.079,-1.917 -0.332,-0.332 -0.568,0.258 -0.525,1.312 M 19,110.441 c 0,0.793 0.408,1.693 0.907,2.001 0.498,0.309 0.671,-0.34 0.383,-1.441 -0.611,-2.335 -1.29,-2.63 -1.29,-0.56 M 62,111 c 0,0.733 0.3,1.033 0.667,0.667 0.366,-0.367 0.366,-0.967 0,-1.334 C 62.3,109.967 62,110.267 62,111 m 26.405,0.155 c -0.443,0.715 -0.275,0.883 0.44,0.44 0.635,-0.392 1.155,-0.911 1.155,-1.154 0,-0.834 -0.883,-0.439 -1.595,0.714 M 16,112 c 0,0.733 0.3,1.033 0.667,0.667 0.366,-0.367 0.366,-0.967 0,-1.334 C 16.3,110.967 16,111.267 16,112 m 33.405,0.155 c -0.443,0.715 -0.275,0.883 0.44,0.44 0.635,-0.392 1.155,-0.911 1.155,-1.154 0,-0.834 -0.883,-0.439 -1.595,0.714 M 68,112 c 0,0.733 0.3,1.033 0.667,0.667 0.366,-0.367 0.366,-0.967 0,-1.334 C 68.3,110.967 68,111.267 68,112 m 101,0 c 0,0.733 0.3,1.033 0.667,0.667 0.366,-0.367 0.366,-0.967 0,-1.334 C 169.3,110.967 169,111.267 169,112 m -94,1 c 0,0.55 0.477,1 1.059,1 0.582,0 0.781,-0.45 0.441,-1 -0.34,-0.55 -0.816,-1 -1.059,-1 -0.243,0 -0.441,0.45 -0.441,1 m 97,0 c 0,0.733 0.3,1.033 0.667,0.667 0.366,-0.367 0.366,-0.967 0,-1.334 C 172.3,111.967 172,112.267 172,113 m 8,0 c 0,0.733 0.3,1.033 0.667,0.667 0.366,-0.367 0.366,-0.967 0,-1.334 C 180.3,111.967 180,112.267 180,113 m -150.595,1.155 c -0.443,0.715 -0.275,0.883 0.44,0.44 0.635,-0.392 1.155,-0.911 1.155,-1.154 0,-0.834 -0.883,-0.439 -1.595,0.714 M 36.5,114 c 0.34,0.55 0.843,1 1.118,1 0.275,0 0.222,-0.45 -0.118,-1 -0.34,-0.55 -0.843,-1 -1.118,-1 -0.275,0 -0.222,0.45 0.118,1 m 47.905,0.155 c -0.443,0.715 -0.275,0.883 0.44,0.44 1.153,-0.712 1.548,-1.595 0.714,-1.595 -0.243,0 -0.762,0.52 -1.154,1.155 m 98.674,0.428 c 0.048,1.165 0.285,1.402 0.604,0.605 0.289,-0.722 0.253,-1.585 -0.079,-1.917 -0.332,-0.332 -0.568,0.258 -0.525,1.312 m -174,1 c 0.048,1.165 0.285,1.402 0.604,0.605 0.289,-0.722 0.253,-1.585 -0.079,-1.917 -0.332,-0.332 -0.568,0.258 -0.525,1.312 m 44.326,-0.428 c -0.443,0.715 -0.275,0.883 0.44,0.44 0.635,-0.392 1.155,-0.911 1.155,-1.154 0,-0.834 -0.883,-0.439 -1.595,0.714 M 63,115 c 0,0.733 0.3,1.033 0.667,0.667 0.366,-0.367 0.366,-0.967 0,-1.334 C 63.3,113.967 63,114.267 63,115 m 105,0 c 0,0.733 0.3,1.033 0.667,0.667 0.366,-0.367 0.366,-0.967 0,-1.334 C 168.3,113.967 168,114.267 168,115 m -141.595,1.155 c -0.443,0.715 -0.275,0.883 0.44,0.44 0.635,-0.392 1.155,-0.911 1.155,-1.154 0,-0.834 -0.883,-0.439 -1.595,0.714 m 83.864,-0.462 c 0.973,0.254 2.323,0.237 3,-0.037 0.677,-0.274 -0.119,-0.481 -1.769,-0.461 -1.65,0.02 -2.204,0.244 -1.231,0.498 m 8.076,0.85 c -0.326,0.849 -0.311,1.824 0.031,2.167 0.343,0.343 0.624,-0.089 0.624,-0.96 0,-0.871 0.563,-1.81 1.25,-2.088 0.979,-0.395 0.972,-0.521 -0.031,-0.583 -0.705,-0.043 -1.548,0.615 -1.874,1.464 m 5.242,-0.685 c -0.575,0.932 6.225,0.664 7.171,-0.282 0.316,-0.317 -1.048,-0.576 -3.032,-0.576 -1.985,0 -3.847,0.386 -4.139,0.858 m 10.575,0.173 c 1.048,0.611 2.526,0.623 4,0.033 2.045,-0.82 1.837,-0.941 -1.662,-0.97 -3.05,-0.025 -3.605,0.197 -2.338,0.937 m 11.651,-0.348 c 0.721,0.289 1.584,0.253 1.916,-0.079 0.332,-0.332 -0.258,-0.568 -1.312,-0.525 -1.165,0.048 -1.402,0.285 -0.604,0.604 M 171,116 c 0,0.733 0.3,1.033 0.667,0.667 0.366,-0.367 0.366,-0.967 0,-1.334 C 171.3,114.967 171,115.267 171,116 m -132.921,1.583 c 0.048,1.165 0.285,1.402 0.604,0.605 0.289,-0.722 0.253,-1.585 -0.079,-1.917 -0.332,-0.332 -0.568,0.258 -0.525,1.312 m 5.173,1.917 c 0.011,2.2 0.216,2.982 0.455,1.738 0.239,-1.244 0.23,-3.044 -0.02,-4 -0.25,-0.956 -0.446,0.062 -0.435,2.262 m 12.62,-1.75 c -1.243,1.586 -1.208,1.621 0.378,0.378 1.666,-1.307 2.195,-2.128 1.372,-2.128 -0.207,0 -0.995,0.787 -1.75,1.75 m 24,0 c -1.243,1.586 -1.208,1.621 0.378,0.378 1.666,-1.307 2.195,-2.128 1.372,-2.128 -0.207,0 -0.995,0.787 -1.75,1.75 m 99.207,-0.167 c 0.048,1.165 0.285,1.402 0.604,0.605 0.289,-0.722 0.253,-1.585 -0.079,-1.917 -0.332,-0.332 -0.568,0.258 -0.525,1.312 M 49,118 c -0.901,0.582 -1.025,0.975 -0.309,0.985 0.655,0.008 1.469,-0.435 1.809,-0.985 0.767,-1.242 0.421,-1.242 -1.5,0 m 71.079,0.583 c 0.048,1.165 0.285,1.402 0.604,0.605 0.289,-0.722 0.253,-1.585 -0.079,-1.917 -0.332,-0.332 -0.568,0.258 -0.525,1.312 m 9.411,-0.567 c -0.346,0.559 -0.996,0.789 -1.446,0.511 -0.449,-0.278 -1.431,0.278 -2.181,1.234 -1.204,1.536 -1.177,1.594 0.229,0.498 0.876,-0.683 1.824,-1.01 2.108,-0.726 0.283,0.283 1.084,-0.171 1.78,-1.009 0.696,-0.838 1.011,-1.524 0.701,-1.524 -0.309,0 -0.846,0.457 -1.191,1.016 m 8.915,0.139 c -0.443,0.715 -0.275,0.883 0.44,0.44 1.153,-0.712 1.548,-1.595 0.714,-1.595 -0.243,0 -0.762,0.52 -1.154,1.155 m 6.328,-0.031 c 0.679,0.684 1.486,0.991 1.793,0.683 0.308,-0.308 -0.247,-0.867 -1.233,-1.243 -1.425,-0.542 -1.54,-0.428 -0.56,0.56 M 10,119 c 0,0.733 0.3,1.033 0.667,0.667 0.366,-0.367 0.366,-0.967 0,-1.334 C 10.3,117.967 10,118.267 10,119 m 7.1,1.295 c -1.265,2.107 -1.243,2.128 0.479,0.479 0.991,-0.95 1.587,-1.942 1.324,-2.205 -0.263,-0.263 -1.074,0.514 -1.803,1.726 m 4.772,-0.545 c -1.243,1.586 -1.208,1.621 0.378,0.378 0.962,-0.755 1.75,-1.543 1.75,-1.75 0,-0.823 -0.821,-0.294 -2.128,1.372 m 86.207,-0.167 c 0.048,1.165 0.285,1.402 0.604,0.605 0.289,-0.722 0.253,-1.585 -0.079,-1.917 -0.332,-0.332 -0.568,0.258 -0.525,1.312 m 2.198,0.667 c 0.174,2.999 2.639,3.761 4.585,1.417 0.835,-1.006 0.753,-1.334 -0.334,-1.334 -0.792,0 -1.208,0.375 -0.925,0.834 0.283,0.458 0.024,0.833 -0.576,0.833 -0.6,0 -1.501,-1.013 -2.001,-2.25 -0.858,-2.125 -0.9,-2.097 -0.749,0.5 m 37.802,-0.667 c 0.048,1.165 0.285,1.402 0.604,0.605 0.289,-0.722 0.253,-1.585 -0.079,-1.917 -0.332,-0.332 -0.568,0.258 -0.525,1.312 M 170,119 c 0,0.733 0.3,1.033 0.667,0.667 0.366,-0.367 0.366,-0.967 0,-1.334 C 170.3,117.967 170,118.267 170,119 m 12,0 c 0,0.733 0.3,1.033 0.667,0.667 0.366,-0.367 0.366,-0.967 0,-1.334 C 182.3,117.967 182,118.267 182,119 m -118,0.941 c 0,0.518 0.445,1.216 0.989,1.552 0.566,0.35 0.734,-0.051 0.393,-0.941 C 64.717,118.82 64,118.503 64,119.941 m 3.405,0.214 c -0.443,0.715 -0.275,0.883 0.44,0.44 0.635,-0.392 1.155,-0.911 1.155,-1.154 0,-0.834 -0.883,-0.439 -1.595,0.714 M 143.5,120 c 0.34,0.55 0.843,1 1.118,1 0.275,0 0.222,-0.45 -0.118,-1 -0.34,-0.55 -0.843,-1 -1.118,-1 -0.275,0 -0.222,0.45 0.118,1 M 38,121 c 0,0.733 0.3,1.033 0.667,0.667 0.366,-0.367 0.366,-0.967 0,-1.334 C 38.3,119.967 38,120.267 38,121 m 13.405,0.155 c -0.443,0.715 -0.275,0.883 0.44,0.44 0.635,-0.392 1.155,-0.911 1.155,-1.154 0,-0.834 -0.883,-0.439 -1.595,0.714 M 61,121 c 0,0.733 0.3,1.033 0.667,0.667 0.366,-0.367 0.366,-0.967 0,-1.334 C 61.3,119.967 61,120.267 61,121 m 14.405,0.155 c -0.443,0.715 -0.275,0.883 0.44,0.44 0.635,-0.392 1.155,-0.911 1.155,-1.154 0,-0.834 -0.883,-0.439 -1.595,0.714 M 178,121 c 0,0.733 0.3,1.033 0.667,0.667 0.366,-0.367 0.366,-0.967 0,-1.334 C 178.3,119.967 178,120.267 178,121 m -151.595,1.155 c -0.443,0.715 -0.275,0.883 0.44,0.44 0.635,-0.392 1.155,-0.911 1.155,-1.154 0,-0.834 -0.883,-0.439 -1.595,0.714 m 31,1.095 -1.905,2.25 2.25,-1.905 c 1.237,-1.048 2.25,-2.06 2.25,-2.25 0,-0.8 -0.805,-0.209 -2.595,1.905 m 75.329,-0.333 c -1.063,1.364 -1.013,1.411 0.358,0.342 0.876,-0.683 1.843,-0.991 2.15,-0.684 0.307,0.307 0.808,0.153 1.114,-0.342 0.981,-1.587 -2.341,-0.96 -3.622,0.684 M 181,122 c 0,0.733 0.3,1.033 0.667,0.667 0.366,-0.367 0.366,-0.967 0,-1.334 C 181.3,120.967 181,121.267 181,122 m -148,1 c 0,0.733 0.3,1.033 0.667,0.667 0.366,-0.367 0.366,-0.967 0,-1.334 C 33.3,121.967 33,122.267 33,123 m 92.405,0.155 c -0.443,0.715 -0.275,0.883 0.44,0.44 0.635,-0.392 1.155,-0.911 1.155,-1.154 0,-0.834 -0.883,-0.439 -1.595,0.714 M 143.5,123 c -0.34,0.55 0.335,1 1.5,1 1.165,0 1.84,-0.45 1.5,-1 -0.34,-0.55 -1.015,-1 -1.5,-1 -0.485,0 -1.16,0.45 -1.5,1 m -26.384,1.75 c -0.071,1.385 0.461,2.25 1.384,2.25 0.825,0 1.5,-0.477 1.5,-1.059 0,-0.582 -0.416,-0.802 -0.924,-0.488 -0.509,0.314 -1.131,-0.222 -1.384,-1.191 -0.35,-1.341 -0.488,-1.224 -0.576,0.488 m 5.289,-0.595 c -0.443,0.715 -0.275,0.883 0.44,0.44 1.153,-0.712 1.548,-1.595 0.714,-1.595 -0.243,0 -0.762,0.52 -1.154,1.155 M 177,124 c 0,0.733 0.3,1.033 0.667,0.667 0.366,-0.367 0.366,-0.967 0,-1.334 C 177.3,122.967 177,123.267 177,124 m -159,1 c 0,0.733 0.3,1.033 0.667,0.667 0.366,-0.367 0.366,-0.967 0,-1.334 C 18.3,123.967 18,124.267 18,125 m 32.5,0 c 0.34,0.55 0.843,1 1.118,1 0.275,0 0.222,-0.45 -0.118,-1 -0.34,-0.55 -0.843,-1 -1.118,-1 -0.275,0 -0.222,0.45 0.118,1 m 19.372,0.75 c -1.243,1.586 -1.208,1.621 0.378,0.378 1.666,-1.307 2.195,-2.128 1.372,-2.128 -0.207,0 -0.995,0.787 -1.75,1.75 M 134,125.201 c 0,0.557 -0.675,0.754 -1.5,0.437 -0.825,-0.316 -1.5,-0.139 -1.5,0.393 0,0.533 1.827,0.969 4.059,0.969 2.232,0 3.814,-0.396 3.516,-0.879 -0.82,-1.326 -4.575,-2.081 -4.575,-0.92 m 15.079,-0.392 c -0.045,0.749 -0.614,1.007 -1.329,0.603 -0.992,-0.56 -0.996,-0.431 -0.017,0.625 1.423,1.534 2.726,0.715 1.95,-1.224 -0.431,-1.078 -0.539,-1.079 -0.604,-0.004 M 180,125 c 0,0.733 0.3,1.033 0.667,0.667 0.366,-0.367 0.366,-0.967 0,-1.334 C 180.3,123.967 180,124.267 180,125 m -143.187,0.683 c 0.721,0.289 1.584,0.253 1.916,-0.079 0.332,-0.332 -0.258,-0.568 -1.312,-0.525 -1.165,0.048 -1.402,0.285 -0.604,0.604 m 3.27,-0.4 c 0.23,0.156 1.317,0.943 2.417,1.75 1.85,1.357 1.897,1.336 0.628,-0.283 -0.755,-0.963 -1.843,-1.75 -2.417,-1.75 -0.574,0 -0.857,0.127 -0.628,0.283 M 107,126.031 c 0,0.533 0.675,0.969 1.5,0.969 0.825,0 1.5,-0.177 1.5,-0.393 0,-0.216 -0.675,-0.652 -1.5,-0.969 -0.825,-0.316 -1.5,-0.139 -1.5,0.393 M 123.5,126 c -1.612,0.693 -1.284,0.873 1.691,0.93 2.03,0.038 3.969,-0.38 4.309,-0.93 0.746,-1.207 -3.192,-1.207 -6,0 m 16.5,0.167 c 0,0.458 0.423,0.833 0.941,0.833 0.518,0 1.173,-0.375 1.456,-0.833 0.283,-0.459 -0.14,-0.834 -0.941,-0.834 -0.801,0 -1.456,0.375 -1.456,0.834 M 29.924,128.75 27.5,131.5 30.25,129.076 C 32.82,126.81 33.459,126 32.674,126 c -0.179,0 -1.416,1.237 -2.75,2.75 m 28,0 -2.424,2.75 2.75,-2.424 C 60.82,126.81 61.459,126 60.674,126 c -0.179,0 -1.416,1.237 -2.75,2.75 M 13,128 c 0,0.733 0.3,1.033 0.667,0.667 0.366,-0.367 0.366,-0.967 0,-1.334 C 13.3,126.967 13,127.267 13,128 m 165.624,0.539 c -0.965,2.514 -0.681,3.163 0.498,1.136 0.584,-1.004 0.851,-2.036 0.593,-2.293 -0.257,-0.258 -0.749,0.263 -1.091,1.157 M 17,129 c 0,0.733 0.3,1.033 0.667,0.667 0.366,-0.367 0.366,-0.967 0,-1.334 C 17.3,127.967 17,128.267 17,129 m 47.872,0.75 c -1.243,1.586 -1.208,1.621 0.378,0.378 0.963,-0.755 1.75,-1.543 1.75,-1.75 0,-0.823 -0.821,-0.294 -2.128,1.372 M 46,129.378 c 0,0.207 0.788,0.995 1.75,1.75 1.586,1.243 1.621,1.208 0.378,-0.378 C 46.821,129.084 46,128.555 46,129.378 m -1.805,3.122 c 0.02,1.65 0.244,2.204 0.498,1.231 0.254,-0.973 0.237,-2.323 -0.037,-3 -0.274,-0.677 -0.481,0.119 -0.461,1.769 m 116.21,-0.345 c -0.443,0.715 -0.275,0.883 0.44,0.44 0.635,-0.392 1.155,-0.911 1.155,-1.154 0,-0.834 -0.883,-0.439 -1.595,0.714 m -109.592,0.528 c 0.721,0.289 1.584,0.253 1.916,-0.079 0.332,-0.332 -0.258,-0.568 -1.312,-0.525 -1.165,0.048 -1.402,0.285 -0.604,0.604 m 112.592,0.472 c -0.443,0.715 -0.275,0.883 0.44,0.44 0.635,-0.392 1.155,-0.911 1.155,-1.154 0,-0.834 -0.883,-0.439 -1.595,0.714 M 19,134 c 0,0.733 0.3,1.033 0.667,0.667 0.366,-0.367 0.366,-0.967 0,-1.334 C 19.3,132.967 19,133.267 19,134 m 35.489,4.885 c -4.968,4.831 -5.734,6 -4.415,6.731 0.879,0.486 4.259,2.661 7.512,4.832 10.684,7.132 25.154,11.525 38.024,11.544 6.607,0.01 14.39,-1.063 14.39,-1.984 0,-0.395 -3.263,-0.966 -7.25,-1.269 -13.458,-1.019 -28.201,-7.247 -40.72,-17.2 l -4.982,-3.961 2.15,-2.289 c 4.14,-4.406 1.248,-2.198 -4.709,3.596 M 30,137 c 0,0.733 0.3,1.033 0.667,0.667 0.366,-0.367 0.366,-0.967 0,-1.334 C 30.3,135.967 30,136.267 30,137 m 13,1 c 0,0.733 0.3,1.033 0.667,0.667 0.366,-0.367 0.366,-0.967 0,-1.334 C 43.3,136.967 43,137.267 43,138 m 113.405,0.155 c -0.443,0.715 -0.275,0.883 0.44,0.44 0.635,-0.392 1.155,-0.911 1.155,-1.154 0,-0.834 -0.883,-0.439 -1.595,0.714 m 3,1 c -0.443,0.715 -0.275,0.883 0.44,0.44 0.635,-0.392 1.155,-0.911 1.155,-1.154 0,-0.834 -0.883,-0.439 -1.595,0.714 M 31,140 c 0,0.733 0.3,1.033 0.667,0.667 0.366,-0.367 0.366,-0.967 0,-1.334 C 31.3,138.967 31,139.267 31,140 m 138.405,0.155 c -0.443,0.715 -0.275,0.883 0.44,0.44 0.635,-0.392 1.155,-0.911 1.155,-1.154 0,-0.834 -0.883,-0.439 -1.595,0.714 M 19.5,141 c 0.34,0.55 0.843,1 1.118,1 0.275,0 0.222,-0.45 -0.118,-1 -0.34,-0.55 -0.843,-1 -1.118,-1 -0.275,0 -0.222,0.45 0.118,1 m 152.905,0.155 c -0.443,0.715 -0.275,0.883 0.44,0.44 0.635,-0.392 1.155,-0.911 1.155,-1.154 0,-0.834 -0.883,-0.439 -1.595,0.714 m -150.754,1.313 c -0.31,0.807 -0.227,1.676 0.185,1.931 0.412,0.254 0.814,-0.406 0.894,-1.468 0.173,-2.297 -0.298,-2.499 -1.079,-0.463 m 12.754,-0.313 c -0.443,0.715 -0.275,0.883 0.44,0.44 0.635,-0.392 1.155,-0.911 1.155,-1.154 0,-0.834 -0.883,-0.439 -1.595,0.714 m 6,0 c -0.443,0.715 -0.275,0.883 0.44,0.44 0.635,-0.392 1.155,-0.911 1.155,-1.154 0,-0.834 -0.883,-0.439 -1.595,0.714 m 108.561,4.595 -5.466,5.75 5.75,-5.466 c 5.342,-5.078 6.208,-6.034 5.466,-6.034 -0.156,0 -2.744,2.588 -5.75,5.75 m 7.906,-4 c -1.243,1.586 -1.208,1.621 0.378,0.378 0.963,-0.755 1.75,-1.543 1.75,-1.75 0,-0.823 -0.821,-0.294 -2.128,1.372 m 10.533,0.405 c -0.443,0.715 -0.275,0.883 0.44,0.44 0.635,-0.392 1.155,-0.911 1.155,-1.154 0,-0.834 -0.883,-0.439 -1.595,0.714 M 25,144 c 0,0.733 0.3,1.033 0.667,0.667 0.366,-0.367 0.366,-0.967 0,-1.334 C 25.3,142.967 25,143.267 25,144 m 140.405,2.155 c -0.443,0.715 -0.275,0.883 0.44,0.44 0.635,-0.392 1.155,-0.911 1.155,-1.154 0,-0.834 -0.883,-0.439 -1.595,0.714 M 26,147 c 0,0.733 0.3,1.033 0.667,0.667 0.366,-0.367 0.366,-0.967 0,-1.334 C 26.3,145.967 26,146.267 26,147 m 142.405,0.155 c -0.443,0.715 -0.275,0.883 0.44,0.44 0.635,-0.392 1.155,-0.911 1.155,-1.154 0,-0.834 -0.883,-0.439 -1.595,0.714 m -135.968,3.095 -2.937,3.25 3.25,-2.937 c 3.029,-2.738 3.71,-3.563 2.937,-3.563 -0.172,0 -1.635,1.463 -3.25,3.25 m 10.968,-2.095 c -0.443,0.715 -0.275,0.883 0.44,0.44 0.635,-0.392 1.155,-0.911 1.155,-1.154 0,-0.834 -0.883,-0.439 -1.595,0.714 m 107.467,1.595 c -1.243,1.586 -1.208,1.621 0.378,0.378 1.666,-1.307 2.195,-2.128 1.372,-2.128 -0.207,0 -0.995,0.787 -1.75,1.75 m -116.676,2.547 -3.195,3.298 4.249,3.952 4.25,3.953 -3.739,-4.031 -3.738,-4.03 3.219,-3.22 c 1.771,-1.77 2.979,-3.219 2.685,-3.219 -0.294,0 -1.973,1.484 -3.731,3.297 m 127.676,-1.547 c -1.243,1.586 -1.208,1.621 0.378,0.378 1.666,-1.307 2.195,-2.128 1.372,-2.128 -0.207,0 -0.995,0.787 -1.75,1.75 m 4.533,-0.595 c -0.443,0.715 -0.275,0.883 0.44,0.44 0.635,-0.392 1.155,-0.911 1.155,-1.154 0,-0.834 -0.883,-0.439 -1.595,0.714 M 27,151 c 0,0.733 0.3,1.033 0.667,0.667 0.366,-0.367 0.366,-0.967 0,-1.334 C 27.3,149.967 27,150.267 27,151 m 16.5,0 c 0.34,0.55 0.843,1 1.118,1 0.275,0 0.222,-0.45 -0.118,-1 -0.34,-0.55 -0.843,-1 -1.118,-1 -0.275,0 -0.222,0.45 0.118,1 m -1,3 c 0.995,1.1 2.035,2 2.31,2 0.275,0 -0.315,-0.9 -1.31,-2 -0.995,-1.1 -2.035,-2 -2.31,-2 -0.275,0 0.315,0.9 1.31,2 m 5,0 c 0.34,0.55 0.843,1 1.118,1 0.275,0 0.222,-0.45 -0.118,-1 -0.34,-0.55 -0.843,-1 -1.118,-1 -0.275,0 -0.222,0.45 0.118,1 m 97.372,0.75 c -1.243,1.586 -1.208,1.621 0.378,0.378 1.666,-1.307 2.195,-2.128 1.372,-2.128 -0.207,0 -0.995,0.787 -1.75,1.75 m -5.467,0.405 c -0.443,0.715 -0.275,0.883 0.44,0.44 0.635,-0.392 1.155,-0.911 1.155,-1.154 0,-0.834 -0.883,-0.439 -1.595,0.714 m 19.057,4.095 -4.962,5.25 5.25,-4.962 c 4.878,-4.612 5.709,-5.538 4.962,-5.538 -0.158,0 -2.52,2.363 -5.25,5.25 m -2.057,-2 -1.905,2.25 2.25,-1.905 c 2.114,-1.79 2.705,-2.595 1.905,-2.595 -0.19,0 -1.202,1.012 -2.25,2.25 M 46,156.378 c 0,0.207 0.788,0.995 1.75,1.75 1.586,1.243 1.621,1.208 0.378,-0.378 C 46.821,156.084 46,155.555 46,156.378 m 90.405,0.777 c -0.443,0.715 -0.275,0.883 0.44,0.44 0.635,-0.392 1.155,-0.911 1.155,-1.154 0,-0.834 -0.883,-0.439 -1.595,0.714 m 4,1 c -0.443,0.715 -0.275,0.883 0.44,0.44 0.635,-0.392 1.155,-0.911 1.155,-1.154 0,-0.834 -0.883,-0.439 -1.595,0.714 M 50.5,160 c 0.34,0.55 0.843,1 1.118,1 0.275,0 0.222,-0.45 -0.118,-1 -0.34,-0.55 -0.843,-1 -1.118,-1 -0.275,0 -0.222,0.45 0.118,1 m 80.905,0.155 c -0.443,0.715 -0.275,0.883 0.44,0.44 0.635,-0.392 1.155,-0.911 1.155,-1.154 0,-0.834 -0.883,-0.439 -1.595,0.714 m 6,0 c -0.443,0.715 -0.275,0.883 0.44,0.44 0.635,-0.392 1.155,-0.911 1.155,-1.154 0,-0.834 -0.883,-0.439 -1.595,0.714 m -78.672,0.969 c 0.679,0.684 1.486,0.991 1.793,0.683 0.308,-0.308 -0.247,-0.867 -1.233,-1.243 -1.425,-0.542 -1.54,-0.428 -0.56,0.56 m 90.672,2.126 -1.905,2.25 2.25,-1.905 c 2.114,-1.79 2.705,-2.595 1.905,-2.595 -0.19,0 -1.202,1.012 -2.25,2.25 m -17,-0.095 c -0.443,0.715 -0.275,0.883 0.44,0.44 0.635,-0.392 1.155,-0.911 1.155,-1.154 0,-0.834 -0.883,-0.439 -1.595,0.714 m -74.672,0.969 c 0.679,0.684 1.486,0.991 1.793,0.683 0.308,-0.308 -0.247,-0.867 -1.233,-1.243 -1.425,-0.542 -1.54,-0.428 -0.56,0.56 M 41.5,165 c 0.34,0.55 0.843,1 1.118,1 0.275,0 0.222,-0.45 -0.118,-1 -0.34,-0.55 -0.843,-1 -1.118,-1 -0.275,0 -0.222,0.45 0.118,1 m 103.372,1.75 c -1.243,1.586 -1.208,1.621 0.378,0.378 1.666,-1.307 2.195,-2.128 1.372,-2.128 -0.207,0 -0.995,0.787 -1.75,1.75 m 5,0 c -1.243,1.586 -1.208,1.621 0.378,0.378 1.666,-1.307 2.195,-2.128 1.372,-2.128 -0.207,0 -0.995,0.787 -1.75,1.75 m -84.539,0.917 c 0.367,0.366 0.967,0.366 1.334,0 C 67.033,167.3 66.733,167 66,167 c -0.733,0 -1.033,0.3 -0.667,0.667 m 10,0 c 0.367,0.366 0.967,0.366 1.334,0 C 77.033,167.3 76.733,167 76,167 c -0.733,0 -1.033,0.3 -0.667,0.667 m 37,0 c 0.367,0.366 0.967,0.366 1.334,0 C 114.033,167.3 113.733,167 113,167 c -0.733,0 -1.033,0.3 -0.667,0.667 m -44,1 c 0.367,0.366 0.967,0.366 1.334,0 C 70.033,168.3 69.733,168 69,168 c -0.733,0 -1.033,0.3 -0.667,0.667 m 13,0 c 0.367,0.366 0.967,0.366 1.334,0 C 83.033,168.3 82.733,168 82,168 c -0.733,0 -1.033,0.3 -0.667,0.667 m 25.48,0.016 c 0.721,0.289 1.584,0.253 1.916,-0.079 0.332,-0.332 -0.258,-0.568 -1.312,-0.525 -1.165,0.048 -1.402,0.285 -0.604,0.604 m 39.592,0.472 c -0.443,0.715 -0.275,0.883 0.44,0.44 0.635,-0.392 1.155,-0.911 1.155,-1.154 0,-0.834 -0.883,-0.439 -1.595,0.714 m -75.072,0.512 c 0.367,0.366 0.967,0.366 1.334,0 C 73.033,169.3 72.733,169 72,169 c -0.733,0 -1.033,0.3 -0.667,0.667 m 19.443,0.066 c 2.352,0.212 5.952,0.209 8,-0.006 2.048,-0.215 0.124,-0.388 -4.276,-0.384 -4.4,0.003 -6.076,0.179 -3.724,0.39 M 50.5,171 c 0.34,0.55 0.843,1 1.118,1 0.275,0 0.222,-0.45 -0.118,-1 -0.34,-0.55 -0.843,-1 -1.118,-1 -0.275,0 -0.222,0.45 0.118,1 m 24.833,-0.333 c 0.367,0.366 0.967,0.366 1.334,0 C 77.033,170.3 76.733,170 76,170 c -0.733,0 -1.033,0.3 -0.667,0.667 m 37.48,0.016 c 0.721,0.289 1.584,0.253 1.916,-0.079 0.332,-0.332 -0.258,-0.568 -1.312,-0.525 -1.165,0.048 -1.402,0.285 -0.604,0.604 m -33,1 c 0.721,0.289 1.584,0.253 1.916,-0.079 0.332,-0.332 -0.258,-0.568 -1.312,-0.525 -1.165,0.048 -1.402,0.285 -0.604,0.604 m 28,0 c 0.721,0.289 1.584,0.253 1.916,-0.079 0.332,-0.332 -0.258,-0.568 -1.312,-0.525 -1.165,0.048 -1.402,0.285 -0.604,0.604 M 47,172.449 c 0,0.275 1.35,1.198 3,2.051 1.65,0.853 3,1.326 3,1.051 0,-0.275 -1.35,-1.198 -3,-2.051 -1.65,-0.853 -3,-1.326 -3,-1.051 m 42.784,0.289 c 2.905,0.203 7.405,0.201 10,-0.004 2.594,-0.206 0.216,-0.371 -5.284,-0.369 -5.5,0.003 -7.622,0.171 -4.716,0.373 m 50.621,0.417 c -0.443,0.715 -0.275,0.883 0.44,0.44 0.635,-0.392 1.155,-0.911 1.155,-1.154 0,-0.834 -0.883,-0.439 -1.595,0.714 m -81.072,2.512 c 0.367,0.366 0.967,0.366 1.334,0 C 61.033,175.3 60.733,175 60,175 c -0.733,0 -1.033,0.3 -0.667,0.667 M 56,177.5 c 1.375,0.786 2.95,1.429 3.5,1.429 0.55,0 -0.125,-0.643 -1.5,-1.429 -1.375,-0.786 -2.95,-1.429 -3.5,-1.429 -0.55,0 0.125,0.643 1.5,1.429 m 70.333,-0.833 c 0.367,0.366 0.967,0.366 1.334,0 C 128.033,176.3 127.733,176 127,176 c -0.733,0 -1.033,0.3 -0.667,0.667 m -62,1 c 0.367,0.366 0.967,0.366 1.334,0 C 66.033,177.3 65.733,177 65,177 c -0.733,0 -1.033,0.3 -0.667,0.667 m 3,1 c 0.367,0.366 0.967,0.366 1.334,0 C 69.033,178.3 68.733,178 68,178 c -0.733,0 -1.033,0.3 -0.667,0.667 m 62,0 c 0.367,0.366 0.967,0.366 1.334,0 C 131.033,178.3 130.733,178 130,178 c -0.733,0 -1.033,0.3 -0.667,0.667 m -59,1 c 0.367,0.366 0.967,0.366 1.334,0 C 72.033,179.3 71.733,179 71,179 c -0.733,0 -1.033,0.3 -0.667,0.667 m 47,0 c 0.367,0.366 0.967,0.366 1.334,0 C 119.033,179.3 118.733,179 118,179 c -0.733,0 -1.033,0.3 -0.667,0.667 m -54,1 c 0.367,0.366 0.967,0.366 1.334,0 C 65.033,180.3 64.733,180 64,180 c -0.733,0 -1.033,0.3 -0.667,0.667 m 11.48,0.016 c 0.721,0.289 1.584,0.253 1.916,-0.079 0.332,-0.332 -0.258,-0.568 -1.312,-0.525 -1.165,0.048 -1.402,0.285 -0.604,0.604 m 38.52,-0.016 c 0.367,0.366 0.967,0.366 1.334,0 C 115.033,180.3 114.733,180 114,180 c -0.733,0 -1.033,0.3 -0.667,0.667 m 11,0 c 0.367,0.366 0.967,0.366 1.334,0 C 126.033,180.3 125.733,180 125,180 c -0.733,0 -1.033,0.3 -0.667,0.667 m -58,1 c 0.367,0.366 0.967,0.366 1.334,0 C 68.033,181.3 67.733,181 67,181 c -0.733,0 -1.033,0.3 -0.667,0.667 m 13.48,0.016 c 0.721,0.289 1.584,0.253 1.916,-0.079 0.332,-0.332 -0.258,-0.568 -1.312,-0.525 -1.165,0.048 -1.402,0.285 -0.604,0.604 m 27.937,-0.021 c 0.688,0.278 1.813,0.278 2.5,0 0.688,-0.277 0.125,-0.504 -1.25,-0.504 -1.375,0 -1.937,0.227 -1.25,0.504 m 13.583,0.005 c 0.367,0.366 0.967,0.366 1.334,0 C 123.033,181.3 122.733,181 122,181 c -0.733,0 -1.033,0.3 -0.667,0.667 m -51,1 c 0.367,0.366 0.967,0.366 1.334,0 C 72.033,182.3 71.733,182 71,182 c -0.733,0 -1.033,0.3 -0.667,0.667 m 20.417,0.065 c 2.337,0.211 6.162,0.211 8.5,0 2.337,-0.21 0.425,-0.383 -4.25,-0.383 -4.675,0 -6.588,0.173 -4.25,0.383 m 27.063,-0.049 c 0.721,0.289 1.584,0.253 1.916,-0.079 0.332,-0.332 -0.258,-0.568 -1.312,-0.525 -1.165,0.048 -1.402,0.285 -0.604,0.604 m -44,1 c 0.721,0.289 1.584,0.253 1.916,-0.079 0.332,-0.332 -0.258,-0.568 -1.312,-0.525 -1.165,0.048 -1.402,0.285 -0.604,0.604 m 40,0 c 0.721,0.289 1.584,0.253 1.916,-0.079 0.332,-0.332 -0.258,-0.568 -1.312,-0.525 -1.165,0.048 -1.402,0.285 -0.604,0.604 m -35.063,0.979 c 0.688,0.278 1.813,0.278 2.5,0 0.688,-0.277 0.125,-0.504 -1.25,-0.504 -1.375,0 -1.937,0.227 -1.25,0.504 m 30.063,0.021 c 0.721,0.289 1.584,0.253 1.916,-0.079 0.332,-0.332 -0.258,-0.568 -1.312,-0.525 -1.165,0.048 -1.402,0.285 -0.604,0.604 m -18.563,1.052 c 2.612,0.206 6.888,0.206 9.5,0 2.612,-0.206 0.475,-0.375 -4.75,-0.375 -5.225,0 -7.362,0.169 -4.75,0.375"
         stroke="none"
         fill="#f4efd5"
         fill-rule="evenodd"
         id="path5" /></g></g></svg>
