<svg xmlns="http://www.w3.org/2000/svg" width="24" height="24"><path fill="#724786" fill-rule="evenodd" d="M3 8.95v1.95h18V7H3zm.75-1.12c-.03.1-.35 2.2-.35 2.32 0 .03.45.05 1 .05.95 0 1-.01 1.2-.26.24-.32.25-.52.05-.8-.13-.2-.13-.23 0-.34.23-.2.19-.76-.07-.94-.29-.2-1.76-.23-1.83-.04m2.55-.04-.2 1.25-.18 1.17h1.02c1.02 0 1.03 0 1.07-.25s.04-.25-.58-.25-.64 0-.64-.25c0-.24.03-.25.55-.25.3 0 .55-.04.55-.1l.06-.24c.05-.13-.02-.16-.43-.16-.54 0-.64-.05-.56-.26Q7 8.3 7.6 8.3c.44 0 .59-.04.59-.14 0-.08.03-.21.06-.3.05-.14-.07-.16-.95-.16-.56 0-1.01.03-1.01.08M8.48 8c-.04.28-.02.3.27.3.17 0 .34.02.37.05s-.01.4-.08.82c-.18 1.08-.2 1.03.25 1.03h.39l.13-.92.14-.93.36-.03c.32-.03.37-.07.41-.33l.05-.29H8.52zm2.36.93-.2 1.22.34.03c.41.04.44.02.51-.45.06-.36.08-.38.48-.41.32-.02.42-.08.47-.25.1-.36.08-.37-.38-.37-.4 0-.44-.02-.39-.2.04-.16.14-.2.53-.2q.5.01.54-.16c.16-.4.1-.44-.83-.44h-.89zm2.22-1c-.03.12-.1.58-.16 1.02l-.17 1.03c-.05.2-.02.22.36.22.36 0 .41-.03.41-.22q0-.69.35-.68c.32 0 .48.23.4.6-.06.3-.06.3.34.3H15v-.43c0-.24-.05-.48-.11-.54q-.12-.1.1-.32a.8.8 0 0 0 .21-.55c0-.52-.27-.66-1.27-.66-.78 0-.83.01-.87.23m2.5.9-.21 1.25c-.03.09.2.12 1 .12 1.01 0 1.03 0 1.07-.25.05-.23.03-.24-.56-.27-.53-.03-.61-.06-.61-.23s.08-.2.5-.23c.48-.03.65-.13.65-.4q0-.12-.5-.12c-.43 0-.5-.03-.5-.2s.07-.2.6-.2c.45 0 .6-.04.6-.14 0-.08.03-.21.06-.3.05-.14-.07-.16-.94-.16h-1zm2.31.04c-.1.65-.17 1.23-.17 1.28s.35.08.96.05c.93-.05.97-.06 1.25-.38.25-.28.29-.4.29-.93 0-.54-.03-.64-.3-.9-.27-.27-.34-.29-1.07-.29h-.79zm-13.4-.6c-.04.03-.07.15-.07.25 0 .24.58.26.67.02s-.4-.47-.6-.27m9.23.28c0 .2.05.25.29.25.3 0 .57-.22.46-.4-.03-.05-.22-.1-.4-.1-.3 0-.35.03-.35.25m4.96.2c-.1.8-.1.85.25.85.25 0 .32-.06.45-.36.21-.5.08-.88-.33-.92-.29-.03-.3-.01-.37.44M4.3 9.29c0 .05-.03.17-.06.26-.06.14 0 .16.32.13s.4-.07.42-.25c.03-.2-.01-.23-.32-.23-.2 0-.36.04-.36.1"/></svg>