<?xml version="1.0" encoding="UTF-8" standalone="no"?>
<svg
   viewBox="0 0 24 24"
   width="24pt"
   height="24pt"
   version="1.1"
   id="svg1"
   xml:space="preserve"
   xmlns="http://www.w3.org/2000/svg"
   xmlns:svg="http://www.w3.org/2000/svg"><defs
     id="defs1" /><g
     id="g1"
     transform="matrix(0.06209444,0,0,0.06209444,2.2119916,1.9118332)"><path
       d="m 152.287,19.74 c 3.182,0.199 8.132,0.197 11,-0.004 2.867,-0.201 0.263,-0.364 -5.787,-0.362 -6.05,0.002 -8.396,0.167 -5.213,0.366 m -22.052,2.753 C 112.995,26.948 96.011,36.365 82.888,48.744 73.225,57.86 66.825,66.634 60.455,79.5 c -5.46,11.026 -10.544,27.645 -10.365,33.878 0.049,1.717 0.727,-0.408 1.507,-4.723 8.03,-44.448 42.61,-79.028 87.058,-87.058 4.711,-0.851 6.447,-1.434 4.345,-1.458 -1.925,-0.022 -7.669,1.037 -12.765,2.354 m 46.11,-0.896 c 44.448,8.03 79.028,42.61 87.058,87.058 0.78,4.315 1.458,6.44 1.507,4.723 C 265.089,107.145 260.005,90.526 254.545,79.5 243.082,56.349 226.868,40.442 203.4,29.326 c -9.622,-4.558 -26.263,-9.395 -31.778,-9.236 -1.717,0.049 0.408,0.727 4.723,1.507 m -46.546,16.525 c -0.351,0.892 -0.95,3.705 -1.332,6.25 -0.639,4.263 -0.527,4.628 1.419,4.628 2.324,0 2.546,-1.476 1.275,-8.5 -0.481,-2.658 -0.938,-3.456 -1.362,-2.378 M 142.64,39 c -1.442,5.577 -1.203,9.409 0.61,9.785 1.437,0.297 1.732,-0.322 1.65,-3.462 -0.055,-2.103 -0.44,-4.948 -0.856,-6.323 l -0.757,-2.5 -0.647,2.5 m 28.007,1.013 c -1.213,6.068 -0.824,9.169 1.103,8.779 1.418,-0.288 1.685,-1.202 1.407,-4.823 -0.473,-6.158 -1.687,-8.071 -2.51,-3.956 M 184.03,38.11 c -0.016,0.886 -0.316,3.699 -0.666,6.25 -0.594,4.333 -0.487,4.64 1.614,4.64 2.116,0 2.207,-0.281 1.541,-4.75 -0.756,-5.066 -2.431,-9.198 -2.489,-6.14 m -49.93,7.14 c -0.055,2.063 0.35,3.75 0.9,3.75 1.145,0 1.145,-1.425 0,-5 -0.715,-2.231 -0.811,-2.097 -0.9,1.25 m 3.97,0 c -0.038,2.063 0.38,3.75 0.93,3.75 1.194,0 1.194,-2.721 0,-5.5 -0.689,-1.604 -0.873,-1.258 -0.93,1.75 m 37.564,-0.428 c -0.453,1.826 -0.556,3.589 -0.229,3.916 1.13,1.13 1.735,-0.557 1.395,-3.892 l -0.341,-3.346 -0.825,3.322 m 4.108,0.088 c -0.416,1.875 -0.528,3.638 -0.249,3.916 1.043,1.043 1.638,-0.742 1.327,-3.98 l -0.322,-3.346 -0.756,3.41 M 128,51.5 c 0,1.216 1.611,1.5 8.5,1.5 6.889,0 8.5,-0.284 8.5,-1.5 0,-1.216 -1.611,-1.5 -8.5,-1.5 -6.889,0 -8.5,0.284 -8.5,1.5 m 42,0 c 0,1.216 1.611,1.5 8.5,1.5 6.889,0 8.5,-0.284 8.5,-1.5 0,-1.216 -1.611,-1.5 -8.5,-1.5 -6.889,0 -8.5,0.284 -8.5,1.5 m -41.333,3.167 C 128.3,55.033 128,75.958 128,101.167 V 147 h 8.5 8.5 V 100.5 54 h -7.833 c -4.309,0 -8.134,0.3 -8.5,0.667 M 170,100.46 V 147 h 8.51 8.51 L 186.76,100.75 186.5,54.5 178.25,54.21 170,53.919 V 100.46 M 135.2,65.2 c -0.728,0.728 -1.2,4.267 -1.2,9 V 82 h 3 3 v -7.8 c 0,-7.032 -0.932,-10.2 -3,-10.2 -0.33,0 -1.14,0.54 -1.8,1.2 m 41,0 c -0.728,0.728 -1.2,4.267 -1.2,9 V 82 h 3 3 v -7.8 c 0,-7.032 -0.932,-10.2 -3,-10.2 -0.33,0 -1.14,0.54 -1.8,1.2 M 156.535,73 c -1.198,5.335 -4.462,6.918 -4.64,2.25 -0.094,-2.475 -0.224,-2.365 -1.297,1.097 -0.656,2.116 -1.959,4.275 -2.895,4.799 -0.937,0.525 -1.703,1.606 -1.703,2.404 0,1.183 2.12,1.45 11.5,1.45 9.38,0 11.5,-0.267 11.5,-1.45 0,-0.798 -0.766,-1.879 -1.703,-2.404 -0.936,-0.524 -2.239,-2.683 -2.895,-4.799 -1.073,-3.462 -1.203,-3.572 -1.297,-1.097 -0.176,4.617 -3.422,3.11 -4.852,-2.252 L 157.32,69.5 156.535,73 m -10.492,34 -0.062,21 h 11.519 11.519 l -0.062,-21 -0.062,-21 H 157.5 146.105 l -0.062,21 M 136,91.5 c 0,1.375 0.45,2.5 1,2.5 0.55,0 1,-1.125 1,-2.5 0,-1.375 -0.45,-2.5 -1,-2.5 -0.55,0 -1,1.125 -1,2.5 m 15,0 c 0,1.375 0.45,2.5 1,2.5 0.55,0 1,-1.125 1,-2.5 0,-1.375 -0.45,-2.5 -1,-2.5 -0.55,0 -1,1.125 -1,2.5 m 5,-0.559 c 0,1.068 0.45,2.219 1,2.559 0.567,0.351 1,-0.49 1,-1.941 0,-1.407 -0.45,-2.559 -1,-2.559 -0.55,0 -1,0.873 -1,1.941 m 7.195,0.559 c 0.02,1.65 0.244,2.204 0.498,1.231 0.254,-0.973 0.237,-2.323 -0.037,-3 -0.274,-0.677 -0.481,0.119 -0.461,1.769 m 13.805,0 c 0,1.375 0.45,2.5 1,2.5 0.55,0 1,-1.125 1,-2.5 0,-1.375 -0.45,-2.5 -1,-2.5 -0.55,0 -1,1.125 -1,2.5 m -51.333,4.167 C 124.55,96.784 124.876,148 126,148 c 0.642,0 1,-9.5 1,-26.5 0,-14.575 -0.15,-26.5 -0.333,-26.5 -0.184,0 -0.634,0.3 -1,0.667 M 188,121.441 c 0,17.039 0.358,26.559 1,26.559 0.641,0 1,-9.314 1,-25.941 0,-16.215 -0.375,-26.173 -1,-26.559 -0.657,-0.406 -1,8.49 -1,25.941 M 154.222,102.264 C 150.697,106.015 149,111.445 149,118.968 V 126 h 8.5 8.5 v -7.032 c 0,-4.085 -0.649,-8.585 -1.548,-10.736 -1.724,-4.128 -5.191,-8.232 -6.952,-8.232 -0.633,0 -2.108,1.019 -3.278,2.264 M 135.2,102.2 c -0.66,0.66 -1.2,3.81 -1.2,7 0,5.778 0.011,5.8 3,5.8 2.989,0 3,-0.022 3,-5.8 0,-5.111 -1.13,-8.2 -3,-8.2 -0.33,0 -1.14,0.54 -1.8,1.2 m 41,0 c -0.66,0.66 -1.2,3.81 -1.2,7 0,5.778 0.011,5.8 3,5.8 2.989,0 3,-0.022 3,-5.8 0,-5.111 -1.13,-8.2 -3,-8.2 -0.33,0 -1.14,0.54 -1.8,1.2 M 49.374,127.5 c 0.002,6.05 0.167,8.396 0.366,5.213 0.199,-3.182 0.197,-8.132 -0.004,-11 -0.201,-2.867 -0.364,-0.263 -0.362,5.787 m 216,0 c 0.002,6.05 0.167,8.396 0.366,5.213 0.199,-3.182 0.197,-8.132 -0.004,-11 -0.201,-2.867 -0.364,-0.263 -0.362,5.787 m -131.365,-2.282 c -1.258,2.063 -2.003,5.047 -2.005,8.032 L 132,138 h 5 5 v -3.851 c 0,-5.117 -1.771,-9.956 -4.1,-11.203 -1.576,-0.843 -2.222,-0.466 -3.891,2.272 m 42.727,-1.968 C 174.508,124.942 173,129.307 173,134.065 V 138 h 5 5 l -0.004,-4.75 c -0.002,-2.97 -0.746,-5.968 -1.985,-8 -2.272,-3.726 -2.105,-3.648 -4.275,-2 M 146,138 v 9 h 3 c 2.8,0 3,-0.25 3.002,-3.75 0.002,-5.036 2.924,-10.75 5.498,-10.75 2.574,0 5.496,5.714 5.498,10.75 C 163,146.75 163.2,147 166,147 h 3 v -9 -9 H 157.5 146 v 9 m -95.91,3.622 c -0.159,5.515 4.678,22.156 9.236,31.778 7.821,16.511 18.781,30.198 32.581,40.687 13.251,10.072 40.598,21.136 51.471,20.823 1.717,-0.049 -0.408,-0.727 -4.723,-1.507 -44.448,-8.03 -79.028,-42.61 -87.058,-87.058 -0.78,-4.315 -1.458,-6.44 -1.507,-4.723 m 214.07,0 c -0.541,10.562 -8.488,32.178 -16.333,44.428 -15.588,24.342 -42.391,42.097 -71.482,47.353 -4.315,0.78 -6.44,1.458 -4.723,1.507 6.233,0.179 22.852,-4.905 33.878,-10.365 23.151,-11.463 39.058,-27.677 50.174,-51.145 4.832,-10.199 9.624,-27.14 9.024,-31.9 l -0.378,-3 -0.16,3.122 M 76,158 c 0,0.658 27.833,1 81.5,1 53.667,0 81.5,-0.342 81.5,-1 0,-0.658 -27.833,-1 -81.5,-1 -53.667,0 -81.5,0.342 -81.5,1 m 35,20.94 V 191 h 2.566 c 4.783,0 6.434,-1.661 6.434,-6.476 0,-2.423 -0.41,-4.659 -0.912,-4.969 -0.534,-0.331 -0.449,-1.788 0.206,-3.523 0.758,-2.008 0.804,-3.856 0.143,-5.746 -0.796,-2.279 -1.652,-2.842 -4.705,-3.096 L 111,166.879 v 12.061 m 14,0.06 v 12 h 3.5 c 1.925,0 3.5,-0.45 3.5,-1 0,-0.55 -1.125,-1 -2.5,-1 -2.296,0 -2.5,-0.367 -2.5,-4.5 0,-3.788 0.307,-4.5 1.941,-4.5 1.068,0 2.219,-0.45 2.559,-1 0.351,-0.567 -0.49,-1 -1.941,-1 -2.366,0 -2.559,-0.339 -2.559,-4.5 0,-4.133 0.204,-4.5 2.5,-4.5 1.375,0 2.5,-0.45 2.5,-1 0,-0.55 -1.575,-1 -3.5,-1 H 125 v 12 m 9.976,-11.25 c -0.098,3.127 4.693,23.194 5.476,22.933 1.165,-0.389 6.033,-22.531 5.148,-23.416 -1.122,-1.122 -1.679,0.47 -3.447,9.857 l -1.767,9.376 -1.785,-9.75 c -0.982,-5.363 -2.194,-9.75 -2.693,-9.75 -0.5,0 -0.919,0.338 -0.932,0.75 M 149,179 v 12 h 4 c 2.2,0 4,-0.45 4,-1 0,-0.55 -1.35,-1 -3,-1 -2.889,0 -3,-0.167 -3,-4.5 0,-4.104 0.215,-4.5 2.441,-4.5 3.467,0 4.148,-1.8 0.826,-2.182 -2.48,-0.285 -2.799,-0.758 -3.074,-4.568 -0.3,-4.14 -0.229,-4.25 2.75,-4.25 1.681,0 3.057,-0.45 3.057,-1 0,-0.55 -1.8,-1 -4,-1 h -4 v 12 m 12,0 c 0,7.333 0.389,12 1,12 0.55,0 1.041,-2.588 1.092,-5.75 l 0.092,-5.75 2.562,5.75 c 1.41,3.162 2.943,5.75 3.408,5.75 1.284,0 1.038,-1.311 -1.186,-6.34 l -2.033,-4.595 2.033,-2.033 c 2.211,-2.211 2.631,-6.044 0.997,-9.098 -0.718,-1.341 -2.098,-1.934 -4.5,-1.934 H 161 v 12 m 13,0 v 12 h 3.5 c 1.925,0 3.5,-0.45 3.5,-1 0,-0.55 -1.125,-1 -2.5,-1 H 176 v -11 c 0,-6.667 -0.394,-11 -1,-11 -0.611,0 -1,4.667 -1,12 m 9,0 v 12 h 4 c 2.2,0 4,-0.45 4,-1 0,-0.55 -1.125,-1 -2.5,-1 -2.296,0 -2.5,-0.367 -2.5,-4.5 0,-3.788 0.307,-4.5 1.941,-4.5 1.068,0 2.219,-0.45 2.559,-1 0.351,-0.567 -0.49,-1 -1.941,-1 -2.366,0 -2.559,-0.339 -2.559,-4.5 0,-4.133 0.204,-4.5 2.5,-4.5 1.375,0 2.5,-0.45 2.5,-1 0,-0.55 -1.8,-1 -4,-1 h -4 v 12 m 10,-11.74 c 0,0.235 0.9,3.043 2,6.24 1.109,3.222 2,8.417 2,11.657 0,3.229 0.447,5.843 1,5.843 0.55,0 1,-2.171 1,-4.825 0,-2.654 1.109,-8.086 2.465,-12.071 1.466,-4.31 1.999,-7.092 1.316,-6.864 -0.632,0.21 -1.907,2.605 -2.832,5.321 l -1.683,4.939 -1.472,-4.946 c -0.81,-2.721 -1.995,-5.121 -2.633,-5.334 -0.639,-0.213 -1.161,-0.195 -1.161,0.04 m -80,5.504 c 0,4.677 0.636,5.501 3.19,4.134 2.847,-1.523 2.146,-7.279 -0.94,-7.718 -2.004,-0.284 -2.25,0.108 -2.25,3.584 m 50,0.736 c 0,4.76 0.861,5.496 3.429,2.929 1.842,-1.843 1.942,-2.867 0.536,-5.495 C 165.021,167.302 163,168.609 163,173.5 m -50,11 c 0,4.239 0.194,4.612 2.25,4.32 1.905,-0.271 2.25,-0.933 2.25,-4.32 0,-3.387 -0.345,-4.049 -2.25,-4.32 -2.056,-0.292 -2.25,0.081 -2.25,4.32 m 10,14.5 c 0,0.55 0.675,1 1.5,1 1.242,0 1.5,1.889 1.5,11 0,9.111 0.258,11 1.5,11 1.242,0 1.5,-1.889 1.5,-11 0,-9.111 0.258,-11 1.5,-11 0.825,0 1.5,-0.45 1.5,-1 0,-0.55 -2.025,-1 -4.5,-1 -2.475,0 -4.5,0.45 -4.5,1 m 12,11 c 0,7.333 0.389,12 1,12 0.55,0 1,-2.502 1,-5.559 0,-3.057 0.338,-5.349 0.75,-5.093 0.412,0.257 1.637,2.758 2.72,5.559 1.084,2.801 2.521,5.093 3.195,5.093 0.817,0 0.396,-1.874 -1.263,-5.626 l -2.488,-5.625 2.043,-1.431 C 143.396,208.31 144,206.779 144,204.143 144,199.533 142.577,198 138.3,198 H 135 v 12 m 15.51,-9.75 c -1.688,7.191 -4.299,21.295 -3.998,21.596 0.826,0.825 2.488,-1.116 2.488,-2.905 0,-1.49 0.697,-1.941 3,-1.941 2.303,0 3,0.451 3,1.941 0,1.789 1.662,3.73 2.488,2.905 0.194,-0.195 -0.506,-4.628 -1.558,-9.85 C 153.219,198.529 153.07,198 152,198 c -0.529,0 -1.2,1.012 -1.49,2.25 m 8.788,0.5 c 0.301,1.512 1.345,6.912 2.319,12 0.974,5.088 2.271,9.25 2.883,9.25 0.612,0 1.909,-4.162 2.883,-9.25 0.974,-5.088 2.018,-10.488 2.319,-12 0.307,-1.542 0.106,-2.75 -0.459,-2.75 -0.554,0 -1.777,4.275 -2.717,9.5 -0.941,5.225 -1.841,9.5 -2,9.5 -0.16,0 -1.06,-4.275 -2,-9.5 -0.941,-5.225 -2.176,-9.5 -2.743,-9.5 -0.593,0 -0.8,1.172 -0.485,2.75 M 173,210 v 12 h 4 c 2.2,0 4,-0.45 4,-1 0,-0.55 -1.35,-1 -3,-1 -2.889,0 -3,-0.167 -3,-4.5 0,-4.104 0.215,-4.5 2.441,-4.5 3.467,0 4.148,-1.8 0.826,-2.182 -2.48,-0.285 -2.799,-0.758 -3.074,-4.568 -0.3,-4.14 -0.229,-4.25 2.75,-4.25 1.681,0 3.057,-0.45 3.057,-1 0,-0.55 -1.8,-1 -4,-1 h -4 v 12 m 12,0 v 12 h 3.5 c 1.925,0 3.5,-0.45 3.5,-1 0,-0.55 -1.125,-1 -2.5,-1 H 187 v -11 c 0,-6.667 -0.394,-11 -1,-11 -0.611,0 -1,4.667 -1,12 m -47.807,-5.75 c 0.323,4.468 2.188,5.678 4.095,2.655 1.56,-2.473 0.043,-6.905 -2.365,-6.905 -1.779,0 -1.999,0.539 -1.73,4.25 m 14.629,0.25 c -0.345,0.55 -0.947,3.137 -1.338,5.75 -0.658,4.393 -0.552,4.75 1.402,4.75 2.301,0 2.46,-0.93 1.281,-7.5 -0.395,-2.2 -1,-3.55 -1.345,-3 m 0.465,31.24 c 3.182,0.199 8.132,0.197 11,-0.004 2.867,-0.201 0.263,-0.364 -5.787,-0.362 -6.05,0.002 -8.396,0.167 -5.213,0.366"
       stroke="none"
       fill="#ffffff"
       fill-rule="evenodd"
       id="path1-0" /><path
       d="M 142.583,21.039 C 117.681,24.956 99.433,34.336 81.5,52.44 65.824,68.265 57.196,83.871 52.324,105.214 c -2.283,10.005 -2.283,34.567 0,44.572 4.953,21.698 13.511,37.04 29.681,53.209 16.169,16.17 31.511,24.728 53.209,29.681 10.005,2.283 34.567,2.283 44.572,0 21.698,-4.953 37.04,-13.511 53.209,-29.681 16.17,-16.169 24.728,-31.511 29.681,-53.209 2.283,-10.005 2.283,-34.567 0,-44.572 -4.953,-21.698 -13.511,-37.04 -29.681,-53.209 -16.228,-16.228 -32.04,-25.021 -53.209,-29.59 -8.826,-1.904 -29.08,-2.653 -37.203,-1.376 m -12.784,17.083 c -0.351,0.892 -0.95,3.705 -1.332,6.25 -0.639,4.263 -0.527,4.628 1.419,4.628 2.324,0 2.546,-1.476 1.275,-8.5 -0.481,-2.658 -0.938,-3.456 -1.362,-2.378 M 142.64,39 c -1.442,5.577 -1.203,9.409 0.61,9.785 1.437,0.297 1.732,-0.322 1.65,-3.462 -0.055,-2.103 -0.44,-4.948 -0.856,-6.323 l -0.757,-2.5 -0.647,2.5 m 28.007,1.013 c -1.213,6.068 -0.824,9.169 1.103,8.779 1.418,-0.288 1.685,-1.202 1.407,-4.823 -0.473,-6.158 -1.687,-8.071 -2.51,-3.956 M 184.03,38.11 c -0.016,0.886 -0.316,3.699 -0.666,6.25 -0.594,4.333 -0.487,4.64 1.614,4.64 2.116,0 2.207,-0.281 1.541,-4.75 -0.756,-5.066 -2.431,-9.198 -2.489,-6.14 m -49.93,7.14 c -0.055,2.063 0.35,3.75 0.9,3.75 1.145,0 1.145,-1.425 0,-5 -0.715,-2.231 -0.811,-2.097 -0.9,1.25 m 3.97,0 c -0.038,2.063 0.38,3.75 0.93,3.75 1.194,0 1.194,-2.721 0,-5.5 -0.689,-1.604 -0.873,-1.258 -0.93,1.75 m 37.564,-0.428 c -0.453,1.826 -0.556,3.589 -0.229,3.916 1.13,1.13 1.735,-0.557 1.395,-3.892 l -0.341,-3.346 -0.825,3.322 m 4.108,0.088 c -0.416,1.875 -0.528,3.638 -0.249,3.916 1.043,1.043 1.638,-0.742 1.327,-3.98 l -0.322,-3.346 -0.756,3.41 M 128,51.5 c 0,1.216 1.611,1.5 8.5,1.5 6.889,0 8.5,-0.284 8.5,-1.5 0,-1.216 -1.611,-1.5 -8.5,-1.5 -6.889,0 -8.5,0.284 -8.5,1.5 m 42,0 c 0,1.216 1.611,1.5 8.5,1.5 6.889,0 8.5,-0.284 8.5,-1.5 0,-1.216 -1.611,-1.5 -8.5,-1.5 -6.889,0 -8.5,0.284 -8.5,1.5 m -41.333,3.167 C 128.3,55.033 128,75.958 128,101.167 V 147 h 8.5 8.5 V 100.5 54 h -7.833 c -4.309,0 -8.134,0.3 -8.5,0.667 M 170,100.46 V 147 h 8.51 8.51 L 186.76,100.75 186.5,54.5 178.25,54.21 170,53.919 V 100.46 M 135.2,65.2 c -0.728,0.728 -1.2,4.267 -1.2,9 V 82 h 3 3 v -7.8 c 0,-7.032 -0.932,-10.2 -3,-10.2 -0.33,0 -1.14,0.54 -1.8,1.2 m 41,0 c -0.728,0.728 -1.2,4.267 -1.2,9 V 82 h 3 3 v -7.8 c 0,-7.032 -0.932,-10.2 -3,-10.2 -0.33,0 -1.14,0.54 -1.8,1.2 M 156.535,73 c -1.198,5.335 -4.462,6.918 -4.64,2.25 -0.094,-2.475 -0.224,-2.365 -1.297,1.097 -0.656,2.116 -1.959,4.275 -2.895,4.799 -0.937,0.525 -1.703,1.606 -1.703,2.404 0,1.183 2.12,1.45 11.5,1.45 9.38,0 11.5,-0.267 11.5,-1.45 0,-0.798 -0.766,-1.879 -1.703,-2.404 -0.936,-0.524 -2.239,-2.683 -2.895,-4.799 -1.073,-3.462 -1.203,-3.572 -1.297,-1.097 -0.176,4.617 -3.422,3.11 -4.852,-2.252 L 157.32,69.5 156.535,73 m -10.492,34 -0.062,21 h 11.519 11.519 l -0.062,-21 -0.062,-21 H 157.5 146.105 l -0.062,21 M 136,91.5 c 0,1.375 0.45,2.5 1,2.5 0.55,0 1,-1.125 1,-2.5 0,-1.375 -0.45,-2.5 -1,-2.5 -0.55,0 -1,1.125 -1,2.5 m 15,0 c 0,1.375 0.45,2.5 1,2.5 0.55,0 1,-1.125 1,-2.5 0,-1.375 -0.45,-2.5 -1,-2.5 -0.55,0 -1,1.125 -1,2.5 m 5,-0.559 c 0,1.068 0.45,2.219 1,2.559 0.567,0.351 1,-0.49 1,-1.941 0,-1.407 -0.45,-2.559 -1,-2.559 -0.55,0 -1,0.873 -1,1.941 m 7.195,0.559 c 0.02,1.65 0.244,2.204 0.498,1.231 0.254,-0.973 0.237,-2.323 -0.037,-3 -0.274,-0.677 -0.481,0.119 -0.461,1.769 m 13.805,0 c 0,1.375 0.45,2.5 1,2.5 0.55,0 1,-1.125 1,-2.5 0,-1.375 -0.45,-2.5 -1,-2.5 -0.55,0 -1,1.125 -1,2.5 m -51.333,4.167 C 124.55,96.784 124.876,148 126,148 c 0.642,0 1,-9.5 1,-26.5 0,-14.575 -0.15,-26.5 -0.333,-26.5 -0.184,0 -0.634,0.3 -1,0.667 M 188,121.441 c 0,17.039 0.358,26.559 1,26.559 0.641,0 1,-9.314 1,-25.941 0,-16.215 -0.375,-26.173 -1,-26.559 -0.657,-0.406 -1,8.49 -1,25.941 M 154.222,102.264 C 150.697,106.015 149,111.445 149,118.968 V 126 h 8.5 8.5 v -7.032 c 0,-4.085 -0.649,-8.585 -1.548,-10.736 -1.724,-4.128 -5.191,-8.232 -6.952,-8.232 -0.633,0 -2.108,1.019 -3.278,2.264 M 135.2,102.2 c -0.66,0.66 -1.2,3.81 -1.2,7 0,5.778 0.011,5.8 3,5.8 2.989,0 3,-0.022 3,-5.8 0,-5.111 -1.13,-8.2 -3,-8.2 -0.33,0 -1.14,0.54 -1.8,1.2 m 41,0 c -0.66,0.66 -1.2,3.81 -1.2,7 0,5.778 0.011,5.8 3,5.8 2.989,0 3,-0.022 3,-5.8 0,-5.111 -1.13,-8.2 -3,-8.2 -0.33,0 -1.14,0.54 -1.8,1.2 m -42.191,23.018 c -1.258,2.063 -2.003,5.047 -2.005,8.032 L 132,138 h 5 5 v -3.851 c 0,-5.117 -1.771,-9.956 -4.1,-11.203 -1.576,-0.843 -2.222,-0.466 -3.891,2.272 m 42.727,-1.968 C 174.508,124.942 173,129.307 173,134.065 V 138 h 5 5 l -0.004,-4.75 c -0.002,-2.97 -0.746,-5.968 -1.985,-8 -2.272,-3.726 -2.105,-3.648 -4.275,-2 M 146,138 v 9 h 3 c 2.8,0 3,-0.25 3.002,-3.75 0.002,-5.036 2.924,-10.75 5.498,-10.75 2.574,0 5.496,5.714 5.498,10.75 C 163,146.75 163.2,147 166,147 h 3 v -9 -9 H 157.5 146 v 9 m -70,20 c 0,0.658 27.833,1 81.5,1 53.667,0 81.5,-0.342 81.5,-1 0,-0.658 -27.833,-1 -81.5,-1 -53.667,0 -81.5,0.342 -81.5,1 m 35,20.94 V 191 h 2.566 c 4.783,0 6.434,-1.661 6.434,-6.476 0,-2.423 -0.41,-4.659 -0.912,-4.969 -0.534,-0.331 -0.449,-1.788 0.206,-3.523 0.758,-2.008 0.804,-3.856 0.143,-5.746 -0.796,-2.279 -1.652,-2.842 -4.705,-3.096 L 111,166.879 v 12.061 m 14,0.06 v 12 h 3.5 c 1.925,0 3.5,-0.45 3.5,-1 0,-0.55 -1.125,-1 -2.5,-1 -2.296,0 -2.5,-0.367 -2.5,-4.5 0,-3.788 0.307,-4.5 1.941,-4.5 1.068,0 2.219,-0.45 2.559,-1 0.351,-0.567 -0.49,-1 -1.941,-1 -2.366,0 -2.559,-0.339 -2.559,-4.5 0,-4.133 0.204,-4.5 2.5,-4.5 1.375,0 2.5,-0.45 2.5,-1 0,-0.55 -1.575,-1 -3.5,-1 H 125 v 12 m 9.976,-11.25 c -0.098,3.127 4.693,23.194 5.476,22.933 1.165,-0.389 6.033,-22.531 5.148,-23.416 -1.122,-1.122 -1.679,0.47 -3.447,9.857 l -1.767,9.376 -1.785,-9.75 c -0.982,-5.363 -2.194,-9.75 -2.693,-9.75 -0.5,0 -0.919,0.338 -0.932,0.75 M 149,179 v 12 h 4 c 2.2,0 4,-0.45 4,-1 0,-0.55 -1.35,-1 -3,-1 -2.889,0 -3,-0.167 -3,-4.5 0,-4.104 0.215,-4.5 2.441,-4.5 3.467,0 4.148,-1.8 0.826,-2.182 -2.48,-0.285 -2.799,-0.758 -3.074,-4.568 -0.3,-4.14 -0.229,-4.25 2.75,-4.25 1.681,0 3.057,-0.45 3.057,-1 0,-0.55 -1.8,-1 -4,-1 h -4 v 12 m 12,0 c 0,7.333 0.389,12 1,12 0.55,0 1.041,-2.588 1.092,-5.75 l 0.092,-5.75 2.562,5.75 c 1.41,3.162 2.943,5.75 3.408,5.75 1.284,0 1.038,-1.311 -1.186,-6.34 l -2.033,-4.595 2.033,-2.033 c 2.211,-2.211 2.631,-6.044 0.997,-9.098 -0.718,-1.341 -2.098,-1.934 -4.5,-1.934 H 161 v 12 m 13,0 v 12 h 3.5 c 1.925,0 3.5,-0.45 3.5,-1 0,-0.55 -1.125,-1 -2.5,-1 H 176 v -11 c 0,-6.667 -0.394,-11 -1,-11 -0.611,0 -1,4.667 -1,12 m 9,0 v 12 h 4 c 2.2,0 4,-0.45 4,-1 0,-0.55 -1.125,-1 -2.5,-1 -2.296,0 -2.5,-0.367 -2.5,-4.5 0,-3.788 0.307,-4.5 1.941,-4.5 1.068,0 2.219,-0.45 2.559,-1 0.351,-0.567 -0.49,-1 -1.941,-1 -2.366,0 -2.559,-0.339 -2.559,-4.5 0,-4.133 0.204,-4.5 2.5,-4.5 1.375,0 2.5,-0.45 2.5,-1 0,-0.55 -1.8,-1 -4,-1 h -4 v 12 m 10,-11.74 c 0,0.235 0.9,3.043 2,6.24 1.109,3.222 2,8.417 2,11.657 0,3.229 0.447,5.843 1,5.843 0.55,0 1,-2.171 1,-4.825 0,-2.654 1.109,-8.086 2.465,-12.071 1.466,-4.31 1.999,-7.092 1.316,-6.864 -0.632,0.21 -1.907,2.605 -2.832,5.321 l -1.683,4.939 -1.472,-4.946 c -0.81,-2.721 -1.995,-5.121 -2.633,-5.334 -0.639,-0.213 -1.161,-0.195 -1.161,0.04 m -80,5.504 c 0,4.677 0.636,5.501 3.19,4.134 2.847,-1.523 2.146,-7.279 -0.94,-7.718 -2.004,-0.284 -2.25,0.108 -2.25,3.584 m 50,0.736 c 0,4.76 0.861,5.496 3.429,2.929 1.842,-1.843 1.942,-2.867 0.536,-5.495 C 165.021,167.302 163,168.609 163,173.5 m -50,11 c 0,4.239 0.194,4.612 2.25,4.32 1.905,-0.271 2.25,-0.933 2.25,-4.32 0,-3.387 -0.345,-4.049 -2.25,-4.32 -2.056,-0.292 -2.25,0.081 -2.25,4.32 m 10,14.5 c 0,0.55 0.675,1 1.5,1 1.242,0 1.5,1.889 1.5,11 0,9.111 0.258,11 1.5,11 1.242,0 1.5,-1.889 1.5,-11 0,-9.111 0.258,-11 1.5,-11 0.825,0 1.5,-0.45 1.5,-1 0,-0.55 -2.025,-1 -4.5,-1 -2.475,0 -4.5,0.45 -4.5,1 m 12,11 c 0,7.333 0.389,12 1,12 0.55,0 1,-2.502 1,-5.559 0,-3.057 0.338,-5.349 0.75,-5.093 0.412,0.257 1.637,2.758 2.72,5.559 1.084,2.801 2.521,5.093 3.195,5.093 0.817,0 0.396,-1.874 -1.263,-5.626 l -2.488,-5.625 2.043,-1.431 C 143.396,208.31 144,206.779 144,204.143 144,199.533 142.577,198 138.3,198 H 135 v 12 m 15.51,-9.75 c -1.688,7.191 -4.299,21.295 -3.998,21.596 0.826,0.825 2.488,-1.116 2.488,-2.905 0,-1.49 0.697,-1.941 3,-1.941 2.303,0 3,0.451 3,1.941 0,1.789 1.662,3.73 2.488,2.905 0.194,-0.195 -0.506,-4.628 -1.558,-9.85 C 153.219,198.529 153.07,198 152,198 c -0.529,0 -1.2,1.012 -1.49,2.25 m 8.788,0.5 c 0.301,1.512 1.345,6.912 2.319,12 0.974,5.088 2.271,9.25 2.883,9.25 0.612,0 1.909,-4.162 2.883,-9.25 0.974,-5.088 2.018,-10.488 2.319,-12 0.307,-1.542 0.106,-2.75 -0.459,-2.75 -0.554,0 -1.777,4.275 -2.717,9.5 -0.941,5.225 -1.841,9.5 -2,9.5 -0.16,0 -1.06,-4.275 -2,-9.5 -0.941,-5.225 -2.176,-9.5 -2.743,-9.5 -0.593,0 -0.8,1.172 -0.485,2.75 M 173,210 v 12 h 4 c 2.2,0 4,-0.45 4,-1 0,-0.55 -1.35,-1 -3,-1 -2.889,0 -3,-0.167 -3,-4.5 0,-4.104 0.215,-4.5 2.441,-4.5 3.467,0 4.148,-1.8 0.826,-2.182 -2.48,-0.285 -2.799,-0.758 -3.074,-4.568 -0.3,-4.14 -0.229,-4.25 2.75,-4.25 1.681,0 3.057,-0.45 3.057,-1 0,-0.55 -1.8,-1 -4,-1 h -4 v 12 m 12,0 v 12 h 3.5 c 1.925,0 3.5,-0.45 3.5,-1 0,-0.55 -1.125,-1 -2.5,-1 H 187 v -11 c 0,-6.667 -0.394,-11 -1,-11 -0.611,0 -1,4.667 -1,12 m -47.807,-5.75 c 0.323,4.468 2.188,5.678 4.095,2.655 1.56,-2.473 0.043,-6.905 -2.365,-6.905 -1.779,0 -1.999,0.539 -1.73,4.25 m 14.629,0.25 c -0.345,0.55 -0.947,3.137 -1.338,5.75 -0.658,4.393 -0.552,4.75 1.402,4.75 2.301,0 2.46,-0.93 1.281,-7.5 -0.395,-2.2 -1,-3.55 -1.345,-3"
       stroke="none"
       fill="#1d5c6c"
       fill-rule="evenodd"
       id="path2" /></g></svg>
