<svg xmlns="http://www.w3.org/2000/svg" width="24" height="24"><path fill="#ffee01" fill-rule="evenodd" d="M7.9 8.95v2.85h1.7V6.1H7.9zm2.2 0v2.85h2.7v-1.6h-1.1V6.1h-1.6zm3.1 0v2.85h2.71l-.03-.78-.03-.77-.47-.03-.48-.03-.02-2.02-.03-2.02-.82-.03-.83-.03zm4.2-2.63c-.05.13-.37 1.33-.7 2.68l-.66 2.63c-.05.15.03.17.76.17q.82 0 .84-.12c.03-.07.07-.26.1-.41.06-.27.09-.28.58-.25.51.03.52.04.61.4l.09.38h.79c.57 0 .79-.04.79-.13 0-.06-.3-1.2-.66-2.52s-.69-2.5-.71-2.63c-.07-.29-.05-.28-.95-.37-.75-.06-.78-.06-.88.17m2.8-.02c-.15.29-.03.59.26.66s.54-.1.54-.4c0-.46-.6-.64-.8-.26M3 9.05v2.77l1.78-.04c1.67-.03 1.79-.04 2.1-.26.69-.5.82-1.36.33-2.14-.27-.43-.28-.48-.14-.68.42-.6.32-1.48-.23-2.01l-.35-.34-1.75-.03L3 6.29zm1.7-1.1c0 .33.02.35.34.35.56 0 .74-.5.23-.64-.48-.13-.57-.08-.57.29m0 2.15c0 .29.02.3.45.3.33 0 .47-.05.54-.18q.22-.41-.56-.42c-.41 0-.43.01-.43.3"/></svg>