<svg xmlns="http://www.w3.org/2000/svg" width="24" height="24"><path fill="#f3f3f3" fill-rule="evenodd" d="M4.8 5.23c.01 1.85.05 3.1.1 2.95.13-.43.46-.91.78-1.12.26-.17.29-.24.25-.57-.12-.86.32-1.66 1.03-1.9.25-.08.38-.2.5-.47.29-.7.77-1.03 1.55-1.05.36-.02.55-.08.76-.28.42-.4.66-.49 1.25-.5.3 0 .71-.06.93-.14.36-.13.03-.14-3.37-.15H4.8zm8.25-3.08c.22.08.57.33.79.55.35.38.41.4.76.35.45-.08 1.08.08 1.42.35.14.1.35.4.46.64q.21.44.46.5c.6.15 1.2 1.04 1.14 1.66q-.04.27.3.63c.34.4.56 1.03.47 1.4-.03.12 0 .38.1.57.13.32.14.05.15-3.23V2h-3.23c-2.9 0-3.18.02-2.82.15m-2.36 1.16c-.29.29-.19.73.27 1.2.23.23.34.44.32.55q-.04.25-.16-.08c-.15-.37-.46-.28-.37.1.08.35.43.65.64.56.09-.04.27-.07.41-.07.3.01.4-.12.4-.58q0-.37.16-.43c.13-.05.15.02.12.45l-.03.51.59.18c.32.1.76.32.97.5.2.16.41.3.45.3s.2-.12.36-.27c.22-.2.3-.24.4-.15.22.22.59.13.94-.22.4-.4.43-.64.1-.95L16 4.68l-.28.2c-.15.11-.46.39-.68.61q-.58.62-.83.28c-.15-.17.1-.5.32-.41.09.03.23 0 .31-.06.14-.12.14-.15 0-.3-.12-.14-.13-.2-.02-.34.12-.16.17-.17.37-.06.2.1.25.1.37-.05.07-.1.12-.2.1-.2l-.4-.28-.36-.28-.56.85c-.45.67-.6.83-.76.79q-.39-.09-.2-.42.11-.18.3-.14c.24.06.38-.27.16-.4q-.26-.14-.06-.46c.07-.1.13-.1.3-.02.18.1.23.09.3-.11.08-.2.04-.25-.32-.4-.22-.1-.44-.15-.48-.1-.03.03-.21.46-.4.94-.18.49-.33.87-.35.85l.08-.95c.08-.65.08-.96 0-1.04q-.26-.25-.36.47c-.1.63-.3.59-.24-.05.04-.43.03-.5-.13-.5-.21 0-.26.13-.35 1.1q-.06.76-.14.55a2 2 0 0 0-.39-.5c-.17-.16-.3-.38-.3-.5 0-.2 0-.2.11.03s.16.26.36.13c.24-.15-.2-.81-.54-.81-.02 0-.13.1-.25.21m-1.47.41c-.07.07-.12.23-.12.37 0 .23 0 .24-.14.06q-.13-.18-.3-.12c-.16.06-.17.1-.04.3l.53.92c.3.54.34.66.17.5-.18-.14-.25-.16-.34-.07-.1.1-.1.17 0 .33.26.42 0 .32-.5-.19-.29-.28-.49-.54-.45-.58s.14-.01.22.06c.13.11.19.1.31-.02.14-.14.13-.17-.12-.37-.33-.26-.56-.27-.79-.01-.25.27-.07.66.56 1.25.26.25.44.45.39.45s-.43-.13-.85-.3c-.9-.35-.91-.36-1.05-.1-.1.17-.01.26.7.77q1.15.82.66 1c-.08.02-.48-.05-.88-.16-.91-.26-1.08-.26-1.08-.03 0 .14.16.22.75.37.87.21.88.4.02.37-.65-.03-.88.12-.9.58l-.02.35 1.23.03 1.22.03v-.39c0-.2-.05-.43-.12-.5q-.14-.13.04-.12.16 0 .3-.47c.14-.44.13-.5-.04-.69-.21-.24-.14-.38.14-.23.2.1.38.05.38-.13 0-.05.11-.19.25-.3s.25-.28.25-.38q0-.19.15-.14c.23.1.28-.21.09-.53l-.18-.28.31.28q.31.3.52.22.2-.06.21-.14a3 3 0 0 0-.54-.54c-.5-.43-.55-.51-.61-1.02-.08-.57-.13-.63-.33-.43m2.16 2.54c-.04.03-.28.1-.55.15-.26.05-.59.2-.73.32-.14.13-.37.3-.52.4-.42.26-.5.51-.43 1.2.05.44.14.67.32.85.21.21.23.27.13.57-.13.39-.1 1.04.05 1.13.17.1.69 0 .97-.2.27-.18.27-.18.38.02q.2.37 1.14.6c.4.11.52.1.86-.05.22-.1.4-.22.4-.26s.22-.06.48-.02c.36.04.5.01.6-.1.2-.25.1-.6-.24-.82-.25-.16-.33-.28-.36-.6a3 3 0 0 0-.12-.55q-.09-.17.29-.29.72-.27.4-.77c-.23-.35-.54-.52-1.04-.57-.37-.03-.45-.08-.56-.35a1 1 0 0 0-.37-.45c-.26-.17-1-.31-1.1-.21m4.47.08c-.4.17-.55.37-.62.79-.12.74.62 1.4 1.31 1.17q.64-.2.72-.81c.14-.84-.65-1.49-1.41-1.15m.27.64c.14.15.3.37.37.5.15.29.41.18.41-.18 0-.35-.32-.6-.74-.6h-.3zm-.48.17c-.08.2.12.63.38.79.13.08.21.07.33-.05.14-.13.11-.19-.25-.54-.35-.34-.4-.36-.46-.2m-3.3.94c-.22.1-.48.3-.57.45-.1.16-.27.26-.4.26-.29 0-.84.36-1.06.69-.15.23-.15.23.2.18q.48-.1.07.05c-.36.15-.35.21.05.36.49.18.63.15.87-.15.2-.26.2-.28.04-.32-.15-.03-.14-.05.07-.18q.25-.15.04-.08-.24.08-.07-.06a.5.5 0 0 0 .12-.31c0-.17.02-.17.28.02l.28.2.54-.23c.3-.13.48-.26.41-.28-.1-.03-.1-.11-.02-.33.06-.15.09-.32.05-.37-.08-.14-.44-.1-.9.1m5.08.07c-.24.45-1.15.66-1.73.4-.14-.06-.17.03-.21.66-.03.44-.14.94-.27 1.25a4.2 4.2 0 0 1-1.88 1.81c-.5.24-.7.27-1.58.27-1.18 0-1.58-.16-2.4-.96l-.51-.5-.17.36c-.2.44-.7.75-1.2.75-.2 0-.37.04-.37.08 0 .17 1.14 1.23 1.74 1.62.34.22.96.52 1.39.65a5.97 5.97 0 0 0 7.31-3.94c.17-.57.2-2.1.07-2.46-.08-.2-.08-.2-.2.01m-.09 1.04a5.6 5.6 0 0 1-.66 2.47c-.19.35-.3.63-.26.63.12 0 .67-1.11.85-1.72.1-.36.15-.82.12-1.3l-.03-.73zM4.8 12.38V16h6.34l-.5-.25a2 2 0 0 1-.69-.55c-.19-.28-.22-.3-.7-.24-.86.1-1.66-.38-1.9-1.14-.04-.13-.22-.29-.43-.38A1.6 1.6 0 0 1 5.9 12.3c-.07-.26-.09-.53-.05-.6s-.06-.25-.23-.42c-.4-.42-.64-1-.57-1.4.03-.18-.01-.5-.1-.72-.13-.37-.14-.09-.15 3.22m10.96-2.8c-.03.3-.16.77-.28 1.04-.11.28-.18.52-.16.55.11.1.52-1.04.56-1.58.06-.74-.03-.75-.12-.02m-8.83.34c-.48.2-.7.98-.43 1.5.12.23.66.5 1 .5.11 0 .36-.15.56-.33.28-.25.36-.4.37-.69.02-.8-.73-1.29-1.5-.98m11.98.25c-.06.19-.3.5-.5.67-.37.31-.39.36-.42 1.03-.05.84-.24 1.15-.9 1.47-.35.17-.52.33-.65.61-.1.21-.3.5-.46.62-.33.28-1.01.5-1.3.41q-.2-.05-.52.28c-.37.36-1 .59-1.42.5a2 2 0 0 0-.69.1c-.37.14-.08.15 3.32.16h3.73v-3.1c0-1.7-.01-3.1-.03-3.1s-.09.16-.16.35m-11.31.31c0 .1-.03.36-.06.56-.06.36-.05.38.2.38.22 0 .26-.04.26-.3 0-.16-.05-.32-.1-.35q-.1-.07-.05-.15.03-.08-.1-.2-.17-.16-.15.06m-.73.4c-.14.14-.07.4.14.52.29.18.43.03.3-.31-.1-.26-.3-.35-.44-.2m8.85.35c-.09.09-.04.16.19.3q.47.27.49-.02c0-.05-.13-.16-.29-.24-.2-.11-.3-.12-.4-.04m-1.28.76-.43.37.46.58c.25.31.48.57.5.57l.25-.1c.23-.13.15-.33-.1-.25-.21.06-.48-.2-.31-.3.18-.1.11-.28-.1-.22-.23.06-.35-.2-.19-.4.1-.12.2-.06.6.34l.5.47.21-.22c.28-.27.16-.42-.14-.16q-.2.16-.16.1.06-.1-.02-.22a.4.4 0 0 1-.08-.25q.02-.14-.22-.14c-.21 0-.25-.04-.23-.28 0-.15-.01-.27-.05-.27s-.26.18-.5.38m-5.54-.12c.13.25.63.64 1.17.91.5.25 1 .38.9.23-.03-.05-.13-.1-.2-.1a4 4 0 0 1-1.57-.88q-.4-.37-.3-.16m4.77.66-.23.13c-.08.07.64 1.35.75 1.35s.1-.06-.02-.3q-.14-.28-.05-.35c.17-.1.11-.25-.09-.25-.25 0-.34-.27-.13-.4q.17-.09.07-.19t-.3.01m-.67.3-.27.1.16.5c.23.8.32 1 .42.93q.09-.06.01-.35t0-.3q.1-.02.1-.15-.01-.13-.14-.15c-.2 0-.28-.28-.1-.38.27-.15.12-.3-.18-.2M8 12.95c.18.24.33.37.9.77.45.33 1.4.73 1.4.6 0-.04-.26-.17-.57-.3a6 6 0 0 1-1.23-.74c-.36-.29-.58-.43-.5-.33m3.35.11c-.12.12-.15.32-.13.78.03.57.05.61.27.61.26 0 .49-.39.3-.5q-.1-.05-.16.14-.06.18-.14.15c-.17-.1-.06-1.04.12-1.04q.08.01.09.15t.1.15c.18 0 .1-.39-.1-.5q-.19-.11-.35.06m.76-.02q-.13.13-.04.72.15.96.57.65c.13-.1.15-.25.1-.7-.09-.77-.34-1.03-.63-.67"/></svg>