<?xml version="1.0" encoding="UTF-8" standalone="no"?>
<svg
   viewBox="0 0 24 24"
   width="24pt"
   height="24pt"
   version="1.1"
   id="svg1"
   sodipodi:docname="bob_and_berts.svg"
   xml:space="preserve"
   inkscape:version="1.3 (0e150ed6c4, 2023-07-21)"
   xmlns:inkscape="http://www.inkscape.org/namespaces/inkscape"
   xmlns:sodipodi="http://sodipodi.sourceforge.net/DTD/sodipodi-0.dtd"
   xmlns="http://www.w3.org/2000/svg"
   xmlns:svg="http://www.w3.org/2000/svg"><defs
     id="defs1" /><sodipodi:namedview
     id="namedview1"
     pagecolor="#ffffff"
     bordercolor="#000000"
     borderopacity="0.25"
     inkscape:showpageshadow="2"
     inkscape:pageopacity="0.0"
     inkscape:pagecheckerboard="0"
     inkscape:deskcolor="#d1d1d1"
     inkscape:document-units="pt"
     inkscape:zoom="23.09375"
     inkscape:cx="6.6251691"
     inkscape:cy="14.397835"
     inkscape:window-width="1920"
     inkscape:window-height="974"
     inkscape:window-x="-11"
     inkscape:window-y="1609"
     inkscape:window-maximized="1"
     inkscape:current-layer="svg1" /><g
     id="g1"
     transform="matrix(0.08705007,0,0,0.08705007,-3.2171872,-40.613666)"><g
       id="g2"
       transform="matrix(0.67039875,0,0,0.67039875,74.547854,478.0765)"><path
         d="M 0,0 C 1.1127832,-0.01836914 1.1127832,-0.01836914 2.2480469,-0.03710938 4.1876363,-0.04238478 6.1267371,0.06561098 8.0625,0.1875 c 2,2 2,2 2.195313,4.1640625 -0.0232,0.8121094 -0.04641,1.6242187 -0.07031,2.4609375 -0.01805,0.8172656 -0.03609,1.6345313 -0.05469,2.4765625 -0.0232,0.6264844 -0.04641,1.2529685 -0.07031,1.8984375 0.99,-0.66 1.98,-1.32 3,-2 3.3125,-0.625 3.3125,-0.625 7,0 2.415756,2.415756 4.226388,5.089457 6,8 0.531094,-0.421523 1.062187,-0.843047 1.609375,-1.277344 1.059609,-0.821777 1.059609,-0.821777 2.140625,-1.660156 0.696094,-0.545273 1.392187,-1.090547 2.109375,-1.652344 4.146321,-2.7314264 8.251982,-2.8175429 13.140625,-2.410156 2.79658,1.121571 5.397526,2.485833 8,4 0,0.66 0,1.32 0,2 0.66,0 1.32,0 2,0 0.33,-1.65 0.66,-3.3 1,-5 4.29,0 8.58,0 13,0 -2.28718,2.28718 -2.906385,2.295221 -6,2.5625 -2.379698,0.214348 -3.846773,0.360887 -6,1.4375 0,1.65 0,3.3 0,5 1.98,0.495 1.98,0.495 4,1 0,4.29 0,8.58 0,13 -1.32,0 -2.64,0 -4,0 0,2.31 0,4.62 0,7 6.27,0 12.54,0 19,0 0.33,-2.31 0.66,-4.62 1,-7 -2.31,0 -4.62,0 -7,0 0.189215,-8.050223 0.189215,-8.050223 3.1875,-11.5625 3.206922,-1.639094 5.258723,-1.768084 8.8125,-1.4375 0,-0.66 0,-1.32 0,-2 1.98,0 3.96,0 6,0 -0.66,0.33 -1.32,0.66 -2,1 0.05993,2.939697 0.146904,5.874271 0.25,8.8125 0.01418,0.833379 0.02836,1.666758 0.04297,2.525391 0.07633,4.804108 0.07633,4.804108 2.582031,8.693359 2.3687,1.079848 4.550667,1.611204 7.125,1.96875 0.33,-0.99 0.66,-1.98 1,-3 0.66,0.33 1.32,0.66 2,1 0,-2.31 0,-4.62 0,-7 -1.65,-0.33 -3.3,-0.66 -5,-1 -0.05402,-2.103886 -0.0928,-4.208167 -0.125,-6.3125 -0.0232,-1.171758 -0.04641,-2.343516 -0.07031,-3.550781 C 94.0625,19.1875 94.0625,19.1875 96.0625,16.1875 c 0.66,0.33 1.32,0.66 2,1 -0.495,0.495 -0.495,0.495 -1,1 0.66,0.33 1.32,0.66 2,1 0,-2.31 0,-4.62 0,-7 -1.32,0 -2.64,0 -4,0 0,-3.3 0,-6.6 0,-10 -1.488479,1.0705022 -2.96552,2.1569224 -4.4375,3.25 C 89.801289,6.0407812 88.977578,6.6440625 88.128906,7.265625 85.949783,9.2923332 85.415481,10.28664 85.0625,13.1875 84.049297,13.15269 84.049297,13.15269 83.015625,13.11719 82.123594,13.09914 81.231562,13.0811 80.3125,13.0625 c -0.881719,-0.0232 -1.763437,-0.04641 -2.671875,-0.07031 -2.691711,0.203917 -4.277175,0.829795 -6.578125,2.195312 0,-0.99 0,-1.98 0,-3 3.900282,-2.6001882 7.474346,-2.150855 12,-2 C 83.312578,9.5958203 83.562656,9.0041406 83.820312,8.3945313 85.231628,5.8870046 86.65519,4.6104169 88.9375,2.875 89.615547,2.3426172 90.293594,1.8102344 90.992187,1.2617187 93.0625,0.1875 93.0625,0.1875 97.0625,1.1875 c 0,2.97 0,5.94 0,9 2.328545,1.198382 2.328545,1.198382 5,2 0.99,-0.66 1.98,-1.32 3,-2 2.06885,-0.2429199 2.06885,-0.2429199 4.41406,-0.2304687 0.84305,0.00193 1.6861,0.00387 2.55469,0.00586 1.31484,0.018369 1.31484,0.018369 2.65625,0.037109 0.8843,6.45e-4 1.76859,0.0013 2.67969,0.002 6.555,0.04524 6.555,0.04524 7.69531,1.185547 0.12488,1.809273 0.17571,3.623961 0.1875,5.4375 0.0142,0.988711 0.0284,1.977422 0.043,2.996094 -0.23047,2.566406 -0.23047,2.566406 -2.23047,4.566406 0.7425,0.7425 0.7425,0.7425 1.5,1.5 2.08338,3.472294 2.30083,6.608104 1.5,10.5 -2.29849,4.313219 -5.40068,6.534897 -10,8 -4.30346,0.461177 -8.61171,0.416073 -12.9375,0.4375 -1.16725,0.03287 -2.33449,0.06574 -3.537109,0.09961 -9.592184,0.06012 -9.592184,0.06012 -13.28711,-2.544922 C 83.397953,38.299118 83.170586,35.606814 83.1875,30.875 83.16688,30.134434 83.14625,29.393867 83.125,28.630859 83.07819,26.816891 83.06677,25.002068 83.0625,23.1875 c -2.97,0.66 -5.94,1.32 -9,2 -0.33,2.31 -0.66,4.62 -1,7 1.206563,-0.03094 1.206563,-0.03094 2.4375,-0.0625 2.5625,0.0625 2.5625,0.0625 3.5625,1.0625 0.07206,1.68609 0.08386,3.375007 0.0625,5.0625 -0.009,0.919102 -0.01805,1.838203 -0.02734,2.785156 -0.0116,0.710274 -0.0232,1.420547 -0.03516,2.152344 -3.771622,1.885811 -8.368272,0.930115 -12.5,0.75 -1.46373,-0.0406 -1.46373,-0.0406 -2.957031,-0.08203 -0.931992,-0.03996 -1.863985,-0.07992 -2.824219,-0.121094 -1.284873,-0.04882 -1.284873,-0.04882 -2.595703,-0.09863 C 56.0625,43.1875 56.0625,43.1875 54.0625,40.1875 c -0.94875,0.66 -1.8975,1.32 -2.875,2 -5.566691,3.184193 -11.277867,2.602278 -17.375,1.3125 -3.47781,-1.659864 -5.894802,-3.729225 -8.75,-6.3125 -0.433125,0.928125 -0.433125,0.928125 -0.875,1.875 -1.125,2.125 -1.125,2.125 -3.125,4.125 -2.277344,0.414062 -2.277344,0.414062 -4.9375,0.625 -0.875273,0.07477 -1.750547,0.149531 -2.652344,0.226562 C 11.672004,44.149962 9.8665641,44.1875 8.0625,44.1875 6.9783984,44.2107 5.8942969,44.23391 4.7773437,44.25781 3.5308203,44.275859 2.2842969,44.293906 1,44.3125 -0.24910156,44.3357 -1.4982031,44.35891 -2.7851563,44.38281 -5.9375,44.1875 -5.9375,44.1875 -7.9375,42.1875 c -0.1953125,-2.164063 -0.1953125,-2.164063 -0.125,-4.625 0.02707,-1.225898 0.02707,-1.225898 0.054687,-2.476563 0.034805,-0.939726 0.034805,-0.939726 0.070312,-1.898437 1.98,-0.495 1.98,-0.495 4,-1 0,-6.93 0,-13.86 0,-21 -1.32,-0.33 -2.64,-0.66 -4,-1 -1,-1 -1,-1 -1.1328125,-2.8125 0.00258,-0.721875 0.00516,-1.44375 0.00781,-2.1875 C -9.0650781,4.465625 -9.0676563,3.74375 -9.0703125,3 -8.7362277,-1.5592749 -3.4954506,0.00302113 0,0 Z"
         fill="#dce7f5"
         transform="translate(161.9375,127.8125)"
         id="path2" /><path
         d="M 0,0 C 0.69802734,0.00386719 1.3960547,0.00773437 2.1152344,0.01171875 2.8093945,0.00785156 3.5035547,0.00398438 4.21875,0 c 5.2057045,0.01007881 5.2057045,0.01007881 7.458984,1.1367187 0,3.3 0,6.6 0,10.0000003 0.99,-0.66 1.98,-1.3200002 3,-2.0000002 5.110991,-0.8378673 5.110991,-0.8378673 8,0 2.477708,2.3890322 4.257646,5.0432762 6,8.0000002 0.670957,-0.632285 0.670957,-0.632285 1.355469,-1.277344 6.068805,-5.49945 6.068805,-5.49945 10.644531,-5.722656 1.258125,-0.12375 2.51625,-0.2475002 3.8125,-0.3750002 4.964398,0.08462 8.554987,2.0689112 12.1875,5.3750002 2.759236,4.628395 3.396242,8.902502 3.691407,14.179687 0.152754,0.901055 0.152754,0.901055 0.308593,1.820313 0.66,0.33 1.32,0.66 2,1 0,-6.93 0,-13.86 0,-21 -0.99,0 -1.98,0 -3,0 -1.626515,-3.2530307 -1.114531,-6.3922563 -1,-10.0000003 C 60.498894,-0.68444128 62.984452,0.00436795 65.404297,0 66.529648,0.00580078 66.529648,0.00580078 67.677734,0.01171875 68.427969,0.00785156 69.178203,0.00398438 69.951172,0 c 5.599952,0.01010822 5.599952,0.01010822 6.726562,1.1367187 0.07206,1.6860897 0.08386,3.3750066 0.0625,5.0625 -0.009,0.9191016 -0.01805,1.8382032 -0.02734,2.7851563 -0.0116,0.7102734 -0.0232,1.420547 -0.03516,2.152344 0.99,-0.66 1.98,-1.3200002 3,-2.0000002 5.104164,-0.740927 5.104164,-0.740927 8,0 4.436219,3.8484202 6.627009,9.5971742 7.253907,15.3164062 0.328184,6.934229 -1.333593,11.727785 -5.425782,17.270996 -2.71062,2.094504 -4.859709,1.751536 -8.246093,1.705566 -1.253614,-0.0097 -2.507227,-0.01933 -3.798829,-0.0293 -1.310332,-0.02514 -2.620664,-0.05027 -3.970703,-0.07617 -1.335271,-0.01505 -2.670559,-0.02874 -4.005859,-0.04102 -3.269286,-0.03541 -6.537762,-0.08479 -9.806641,-0.146484 -0.99,-2.475 -0.99,-2.475 -2,-5 -0.674824,0.541406 -0.674824,0.541406 -1.363281,1.09375 -5.796331,4.181722 -10.598373,4.859359 -17.636719,3.90625 -2.861606,-0.669412 -4.432265,-1.415653 -7,-3 -1.4375,-2.6875 -1.4375,-2.6875 -2,-5 -0.66,0 -1.32,0 -2,0 -0.0825,0.5775 -0.165,1.155 -0.25,1.75 -1.041206,3.12362 -2.065134,4.303472 -4.75,6.25 -4.252193,0.999611 -7.831313,1.389562 -12,0 -2.7165484,-0.04518 -5.4102742,-0.04771 -8.1249996,0 -2.63128933,0.04576 -5.2423249,0.04712 -7.875,0 -1,-1 -1,-1 -1.0976563,-3.066407 0.011602,-0.82371 0.023203,-1.647421 0.035156,-2.496093 0.00902,-0.826289 0.018047,-1.652578 0.027344,-2.503907 0.011602,-0.638085 0.023203,-1.276171 0.035156,-1.933593 1.98,-0.495 1.98,-0.495 4,-1 0,-6.93 0,-13.86 0,-21 -1.32,-0.66 -2.64,-1.3200002 -4,-2.0000002 -0.097656,-6.1523438 -0.097656,-6.1523438 0,-8.0000001 C -4.5760268,-0.60952005 -2.3234824,0.00450724 0,0 Z"
         fill="#71a5d5"
         transform="translate(19.322266,127.86328)"
         id="path3" /><path
         d="m 0,0 c 4.95,0 9.9,0 15,0 0.33,4.29 0.66,8.58 1,13 1.65,-1.32 3.3,-2.64 5,-4 2.8125,-0.25 2.8125,-0.25 5,0 0,0.66 0,1.32 0,2 0.598125,0.185625 1.19625,0.37125 1.8125,0.5625 C 31.099818,13.722738 31.648547,16.351077 33,20 33.688359,19.168555 33.688359,19.168555 34.390625,18.320312 35.004219,17.595859 35.617812,16.871406 36.25,16.125 36.853281,15.405703 37.456562,14.686406 38.078125,13.945313 41.182258,10.803324 43.922073,9.6950706 48.3125,9.5625 53.369218,9.6874601 56.509125,11.395601 60,15 c 3.004384,4.555034 3,6.261421 3,12 -6.93,0 -13.86,0 -21,0 0.66,1.65 1.32,3.3 2,5 5.262827,0.378443 5.262827,0.378443 10.125,-1.125 C 56,30 56,30 59.25,30.875 60.61125,31.431875 60.61125,31.431875 62,32 61.631134,34.438611 61.404973,35.665277 59.46875,37.265625 53.259216,40.370392 48.019607,40.913547 41.25,39.375 37.981765,37.377745 36.232774,35.125884 34,32 c 0,-0.99 0,-1.98 0,-3 -0.66,0 -1.32,0 -2,0 -0.0825,0.9075 -0.165,1.815 -0.25,2.75 C 30.88763,35.486935 30.039403,36.720448 27,39 23.949578,40.095023 22.480568,40.148747 19.375,39.1875 17,38 17,38 14,36 c 0,1.32 0,2.64 0,4 -1.79134,0.05392 -3.583139,0.09276 -5.375,0.125 C 7.6272656,40.1482 6.6295313,40.17141 5.6015625,40.19531 3,40 3,40 1,38 1.495,37.505 1.495,37.505 2,37 1.67,37 1.34,37 1,37 1,35.35 1,33.7 1,32 2.32,32 3.64,32 5,32 5,23.75 5,15.5 5,7 3.35,6.67 1.7,6.34 0,6 0,4.02 0,2.04 0,0 Z"
         fill="#5c98cf"
         transform="translate(155,130)"
         id="path4" /><path
         d="M 0,0 C 3.0625,2.1875 3.0625,2.1875 5,5 5.3125,8.3125 5.3125,8.3125 5,11 5.6380859,10.9884 6.2761719,10.9768 6.9335937,10.96484 7.7598828,10.95584 8.5861719,10.94679 9.4375,10.9375 10.261211,10.9259 11.084922,10.9143 11.933594,10.90234 14,11 14,11 15,12 c 0.141152,2.670589 0.04247,5.324322 0,8 -0.99,0.33 -1.98,0.66 -3,1 -0.33,0.99 -0.66,1.98 -1,3 1.32,0.66 2.64,1.32 4,2 0.04242,2.332948 0.04093,4.667026 0,7 -2.785298,2.785298 -11.0063964,1.383861 -14.75,1.4375 -1.2890625,0.04576 -2.578125,0.09152 -3.90625,0.138672 -9.220724,0.109998 -9.220724,0.109998 -12.314453,-1.780274 -3.16143,-3.573097 -3.885555,-7.202104 -4.181641,-11.772461 C -19.947254,18.299427 -18.659562,17.124239 -17,15 c 0.05446,-2.079585 0.05446,-2.079585 -0.125,-4.375 C -17.259348,7.0852243 -16.941055,5.2684618 -14.6875,2.5 -10.110304,-1.7578571 -5.7985614,-1.4724893 0,0 Z"
         fill="#f5b443"
         transform="translate(136,137)"
         id="path5" /><path
         d="m 0,0 c 4.62,0 9.24,0 14,0 0.33,4.29 0.66,8.58 1,13 1.65,-1.32 3.3,-2.64 5,-4 3,-0.6875 3,-0.6875 6,0 4.563354,4.600057 6.157983,9.341624 6.3125,15.75 C 32.243424,30.45565 31.713371,33.620127 28,38 c -3.375,1.625 -3.375,1.625 -7,2 -3.4375,-1.375 -3.4375,-1.375 -6,-3 -0.66,0.99 -1.32,1.98 -2,3 -2.53125,0.328125 -2.53125,0.328125 -5.5,0.25 C 6.5203125,40.234531 5.540625,40.219062 4.53125,40.203125 2,40 2,40 0,39 0,36.69 0,34.38 0,32 1.32,32 2.64,32 4,32 4,23.75 4,15.5 4,7 2.68,7 1.36,7 0,7 0,4.69 0,2.38 0,0 Z"
         fill="#6fa4d5"
         transform="translate(80,130)"
         id="path6" /><path
         d="m 0,0 c 0,3.3 0,6.6 0,10 1.32,0 2.64,0 4,0 0,2.31 0,4.62 0,7 -0.99,-0.33 -1.98,-0.66 -3,-1 -1.20568053,4.672012 -1.09382426,9.214963 -1,14 1.32,0.33 2.64,0.66 4,1 0,2.31 0,4.62 0,7 -0.66,0 -1.32,0 -2,0 -0.495,0.99 -0.495,0.99 -1,2 -6.4794388,-0.611268 -6.4794388,-0.611268 -8.7121582,-2.278564 -1.6102675,-2.152417 -1.6375189,-3.28661 -1.5808106,-5.951905 0.00967,-0.802441 0.019336,-1.604883 0.029297,-2.43164 0.025137,-0.833379 0.050273,-1.666758 0.076172,-2.525391 0.013535,-0.84498 0.02707,-1.689961 0.041016,-2.560547 C -9.111158,22.167696 -9.0573514,20.083767 -9,18 c -1.32,-0.33 -2.64,-0.66 -4,-1 0,0.66 0,1.32 0,2 -1.258125,0.226875 -2.51625,0.45375 -3.8125,0.6875 -3.091053,0.780955 -3.979347,1.070773 -6.125,3.5625 -1.131189,2.927783 -1.7005,5.636802 -2.0625,8.75 2.31,0 4.62,0 7,0 0.04242,2.332948 0.04093,4.667026 0,7 -1,1 -1,1 -2.857666,1.021729 -0.790759,-0.04713 -1.581519,-0.09426 -2.39624,-0.142823 -1.281006,-0.07251 -1.281006,-0.07251 -2.587891,-0.146484 -0.897832,-0.05607 -1.795664,-0.112149 -2.720703,-0.169922 -0.901699,-0.05221 -1.803398,-0.104414 -2.732422,-0.158203 C -33.530265,39.274198 -35.765209,39.139221 -38,39 c 0,-2.31 0,-4.62 0,-7 1.32,0 2.64,0 4,0 -0.33,-4.29 -0.66,-8.58 -1,-13 -0.99,-0.33 -1.98,-0.66 -3,-1 0,-2.31 0,-4.62 0,-7 5.94,-0.495 5.94,-0.495 12,-1 0.33,1.32 0.66,2.64 1,4 3.19913,1.68843 6.450946,2.391591 10,3 0.0825,-0.763125 0.165,-1.52625 0.25,-2.3125 C -13.8392,11.4238 -12.718616,10.869049 -10,9 -9.67,8.01 -9.34,7.02 -9,6 -7.4414062,4.3945312 -7.4414062,4.3945312 -5.5625,2.8125 -4.9450391,2.2826953 -4.3275781,1.7528906 -3.6914063,1.2070312 -2,0 -2,0 0,0 Z"
         fill="#5996ce"
         transform="translate(257,130)"
         id="path7" /><path
         d="M 0,0 C 0.69802734,0.00386719 1.3960547,0.00773437 2.1152344,0.01171875 2.8093945,0.00785156 3.5035547,0.00398438 4.21875,0 c 5.2057045,0.01007881 5.2057045,0.01007881 7.458984,1.1367187 0,3.3 0,6.6 0,10.0000003 0.99,-0.66 1.98,-1.3200002 3,-2.0000002 5.110991,-0.8378673 5.110991,-0.8378673 8,0 2.477708,2.3890322 4.257646,5.0432762 6,8.0000002 0.670957,-0.632285 0.670957,-0.632285 1.355469,-1.277344 6.068805,-5.49945 6.068805,-5.49945 10.644531,-5.722656 1.258125,-0.12375 2.51625,-0.2475002 3.8125,-0.3750002 4.964398,0.08462 8.554987,2.0689112 12.1875,5.3750002 2.759236,4.628395 3.396242,8.902502 3.691407,14.179687 0.152754,0.901055 0.152754,0.901055 0.308593,1.820313 0.66,0.33 1.32,0.66 2,1 0,-6.93 0,-13.86 0,-21 -0.99,0 -1.98,0 -3,0 -1.626515,-3.2530307 -1.114531,-6.3922563 -1,-10.0000003 C 60.498894,-0.68444128 62.984452,0.00436795 65.404297,0 66.529648,0.00580078 66.529648,0.00580078 67.677734,0.01171875 68.427969,0.00785156 69.178203,0.00398438 69.951172,0 c 5.599952,0.01010822 5.599952,0.01010822 6.726562,1.1367187 0.07206,1.6860897 0.08386,3.3750066 0.0625,5.0625 -0.009,0.9191016 -0.01805,1.8382032 -0.02734,2.7851563 -0.0116,0.7102734 -0.0232,1.420547 -0.03516,2.152344 0.99,-0.66 1.98,-1.3200002 3,-2.0000002 5.104164,-0.740927 5.104164,-0.740927 8,0 4.436219,3.8484202 6.627009,9.5971742 7.253907,15.3164062 0.328184,6.934229 -1.333593,11.727785 -5.425782,17.270996 -2.71062,2.094504 -4.859709,1.751536 -8.246093,1.705566 -1.253614,-0.0097 -2.507227,-0.01933 -3.798829,-0.0293 -1.310332,-0.02514 -2.620664,-0.05027 -3.970703,-0.07617 -1.335271,-0.01505 -2.670559,-0.02874 -4.005859,-0.04102 -3.269286,-0.03541 -6.537762,-0.08479 -9.806641,-0.146484 -0.99,-2.475 -0.99,-2.475 -2,-5 -0.674824,0.541406 -0.674824,0.541406 -1.363281,1.09375 -5.796331,4.181722 -10.598373,4.859359 -17.636719,3.90625 -2.861606,-0.669412 -4.432265,-1.415653 -7,-3 -1.4375,-2.6875 -1.4375,-2.6875 -2,-5 -0.66,0 -1.32,0 -2,0 -0.0825,0.5775 -0.165,1.155 -0.25,1.75 -1.041206,3.12362 -2.065134,4.303472 -4.75,6.25 -4.252193,0.999611 -7.831313,1.389562 -12,0 -2.7165484,-0.04518 -5.4102742,-0.04771 -8.1249996,0 -2.63128933,0.04576 -5.2423249,0.04712 -7.875,0 -1,-1 -1,-1 -1.0976563,-3.066407 0.011602,-0.82371 0.023203,-1.647421 0.035156,-2.496093 0.00902,-0.826289 0.018047,-1.652578 0.027344,-2.503907 0.011602,-0.638085 0.023203,-1.276171 0.035156,-1.933593 1.98,-0.495 1.98,-0.495 4,-1 0,-6.93 0,-13.86 0,-21 -1.32,-0.66 -2.64,-1.3200002 -4,-2.0000002 -0.097656,-6.1523438 -0.097656,-6.1523438 0,-8.0000001 C -4.5760268,-0.60952005 -2.3234824,0.00450724 0,0 Z m -4.3222656,2.1367188 c 0,1.98 0,3.9599999 0,6 2.475,0.4949999 2.475,0.4949999 4.99999998,1 -0.0721875,0.5478515 -0.14437501,1.0957032 -0.21875,1.6601562 -0.91313962,7.799734 -0.87535386,15.497856 -0.78125,23.339844 -1.31999998,0 -2.63999998,0 -3.99999998,0 0,2.31 0,4.62 0,7 2.9216889,0.973896 5.01029471,1.196058 8.0625,1.25 1.3167773,0.03867 1.3167773,0.03867 2.6601562,0.07813 0.7515235,-0.108281 1.5030469,-0.216563 2.2773438,-0.328125 0.66,-0.99 1.32,-1.98 1.9999996,-3 0.845625,0.53625 1.69125,1.0725 2.5625,1.625 3.387674,1.664073 3.387674,1.664073 7.0625,1 4.53009,-2.181155 5.284982,-4.123423 7.375,-8.625 0.33,-0.66 0.66,-1.32 1,-2 0.30293,0.554297 0.60586,1.108593 0.917969,1.679687 0.418945,0.724453 0.837891,1.448906 1.269531,2.195313 0.406055,0.719297 0.81211,1.438594 1.230469,2.179687 2.014149,2.476657 3.520173,3.090841 6.582031,3.945313 2.896519,0.239711 2.896519,0.239711 5.8125,0.125 0.975821,-0.01805 1.951641,-0.03609 2.957032,-0.05469 0.736054,-0.0232 1.472109,-0.04641 2.230468,-0.07031 -1.32,-0.66 -2.64,-1.32 -4,-2 1.98,-1.32 3.96,-2.64 6,-4 0,0.99 0,1.98 0,3 0.99,0 1.98,0 3,0 2.667229,-3.124468 3.906651,-5.279876 4.4375,-9.375 -0.616509,-5.108218 -1.585329,-9.832577 -5.375,-13.5 -1.020937,-0.556875 -1.020937,-0.556875 -2.0625,-1.125 -0.598125,-0.391875 -1.19625,-0.78375 -1.8125,-1.1875 -3.848144,-1.429311 -7.350511,-1.458589 -11.242187,-0.08984 -4.496916,2.095732 -7.659566,4.580878 -10.945313,8.277344 -0.433125,-0.9075 -0.86625,-1.815 -1.3125,-2.75 -1.943575,-3.931161 -1.943575,-3.931161 -4.6875,-7.25 -3.486345,-0.519243 -5.311635,-0.398527 -8.375,1.375 -0.53625,0.53625 -1.0725,1.0725 -1.625,1.625 0,0.66 0,1.32 0,2 -0.66,0 -1.32,0 -1.9999996,0 0,-4.62 0,-9.2400003 0,-14.0000002 -4.62,0 -9.24000003,0 -14,0 z m 64.9999996,0 c 0,2.3099999 0,4.6199999 0,7 1.32,0 2.64,0 4,0 0,8.2500002 0,16.5000002 0,25.0000002 -1.32,0 -2.64,0 -4,0 0,2.31 0,4.62 0,7 2.594581,1.29729 4.604476,1.204281 7.5,1.25 0.979688,0.02578 1.959375,0.05156 2.96875,0.07813 0.835313,-0.108281 1.670625,-0.216563 2.53125,-0.328125 0.66,-0.99 1.32,-1.98 2,-3 1.010625,0.556875 2.02125,1.11375 3.0625,1.6875 3.304903,1.407768 3.933594,1.313476 7.6875,0.375 3.933414,-2.496205 4.918859,-3.59926 6.25,-8.0625 0.837151,-7.534355 0.471962,-12.818171 -4,-19 -0.66,-0.99 -1.32,-1.98 -2,-3 -2.872377,-0.58443 -2.872377,-0.58443 -6,0 -1.65,1.32 -3.3,2.64 -5,4 -0.33,-4.29 -0.66,-8.5800003 -1,-13.0000002 -4.62,0 -9.24,0 -14,0 z"
         fill="#e8eff8"
         transform="translate(19.322266,127.86328)"
         id="path8" /><path
         d="M 0,0 C 0.99,0 1.98,0 3,0 2.566875,0.804375 2.566875,0.804375 2.125,1.625 0.79479264,4.4332155 -0.30361999,6.9612509 -1,10 c 1.23513282,2.230241 1.23513282,2.230241 3,4 0.33,0.99 0.66,1.98 1,3 0.66,0 1.32,0 2,0 -1,3 -1,3 -2,4 2.2118867,0.216316 2.2118867,0.216316 4.125,-1.8125 C 9.3253957,17.100556 9.3253957,17.100556 9,14 c 0.66,-0.33 1.32,-0.66 2,-1 0.33,-0.99 0.66,-1.98 1,-3 2.475,0.495 2.475,0.495 5,1 0,0.66 0,1.32 0,2 0.99,0.33 1.98,0.66 3,1 1.845803,3.188205 2.77274,6.326846 3,10 -1.497035,3.188421 -3.590418,5.466213 -6,8 -0.33,0.66 -0.66,1.32 -1,2 0.66,0.66 1.32,1.32 2,2 -2,1 -4,2 -6,3 C 9.9685536,38.065535 7.9646641,37.067752 6,36 5.34,36.99 4.68,37.98 4,39 1.7226562,39.328125 1.7226562,39.328125 -0.9375,39.25 -1.8127734,39.23453 -2.6880469,39.21906 -3.5898438,39.20313 -6,39 -6,39 -9,38 c 0,-2.31 0,-4.62 0,-7 1.32,0 2.64,0 4,0 C -5.023203,30.056406 -5.046406,29.112812 -5.070312,28.140625 -5.3875675,5.5701969 -5.3875675,5.5701969 0,0 Z"
         fill="#72a5d5"
         transform="translate(24,131)"
         id="path9" /><path
         d="m 0,0 c 4.95,0 9.9,0 15,0 0.33,4.29 0.66,8.58 1,13 1.65,-1.32 3.3,-2.64 5,-4 2.8125,-0.25 2.8125,-0.25 5,0 0,1.32 0,2.64 0,4 0.99,0.33 1.98,0.66 3,1 -0.33,1.32 -0.66,2.64 -1,4 -0.66,0 -1.32,0 -2,0 0.33,0.99 0.66,1.98 1,3 -0.66,0.33 -1.32,0.66 -2,1 -0.33,-0.66 -0.66,-1.32 -1,-2 0.09281,1.60875 0.09281,1.60875 0.1875,3.25 C 23.994567,27.108662 23.603349,28.288178 21,31 c -2.64,-0.33 -5.28,-0.66 -8,-1 0,-1.32 0,-2.64 0,-4 -0.763125,0.639375 -1.52625,1.27875 -2.3125,1.9375 C 8,30 8,30 5,31 5,23.08 5,15.16 5,7 3.35,6.67 1.7,6.34 0,6 0,4.02 0,2.04 0,0 Z"
         fill="#7faed9"
         transform="translate(155,130)"
         id="path10" /><path
         d="M 0,0 C 1.1823926,0.02707031 1.1823926,0.02707031 2.3886719,0.0546875 4.3221426,0.10155952 6.2549828,0.1732959 8.1875,0.25 8.2143922,1.7290689 8.2338462,3.2082748 8.25,4.6875 8.2616016,5.5112109 8.2732031,6.3349219 8.2851563,7.1835937 8.1875,9.25 8.1875,9.25 7.1875,10.25 c -1.9995836,0.04081 -4.0004525,0.04254 -6,0 -0.33,-0.66 -0.66,-1.32 -1,-2 -2.321566,-0.4072923 -4.6568787,-0.7443868 -7,-1 0.33,0.99 0.66,1.98 1,3 2.7122777,0.928002 5.43564132,1.463641 8.2382813,2.058594 3.2001952,1.090873 4.6569928,2.321537 6.7617187,4.941406 0.6540914,3.842787 0.3508614,5.448646 -1.75,8.75 -2.143932,2.143932 -3.4691677,3.167153 -6.25,4.25 -2.18359375,-0.05859 -2.18359375,-0.05859 -4.4375,-0.4375 -3.4841665,-0.499378 -6.1167671,-0.423933 -9.5625,0.4375 -1,-1 -1,-1 -1.097656,-3.285156 0.0116,-0.916524 0.0232,-1.833047 0.03516,-2.777344 0.009,-0.919102 0.01805,-1.838203 0.02734,-2.785156 0.0116,-0.710274 0.0232,-1.420547 0.03516,-2.152344 2.875,-0.1875 2.875,-0.1875 6,0 0.66,0.99 1.32,1.98 2,3 3.5676955,0.736065 3.5676955,0.736065 7,1 -0.65634657,-2.008612 -0.65634657,-2.008612 -2,-4 -2.2686231,-0.949314 -2.2686231,-0.949314 -4.875,-1.4375 C -9.115593,16.884782 -10.721625,16.326081 -13.5,14 -15.300329,10.227883 -15.038717,8.2171716 -13.8125,4.25 -9.5715118,-0.37727982 -5.8686956,-0.25580232 0,0 Z"
         fill="#6ba1d3"
         transform="translate(276.8125,139.75)"
         id="path11" /><path
         d="m 0,0 c 0,2.97 0,5.94 0,9 2.3285446,1.198382 2.3285446,1.198382 5,2 0.99,-0.66 1.98,-1.32 3,-2 2.068848,-0.2429199 2.068848,-0.2429199 4.414063,-0.2304687 0.843046,0.00193 1.686093,0.00387 2.554687,0.00586 1.314844,0.018369 1.314844,0.018369 2.65625,0.037109 0.884297,6.445e-4 1.768594,0.00129 2.679687,0.00195 C 26.859695,8.8596947 26.859695,8.8596947 28,10 c 0.124878,1.809273 0.175708,3.623961 0.1875,5.4375 0.01418,0.988711 0.02836,1.977422 0.04297,2.996094 C 28,21 28,21 26,23 c 0.495,0.495 0.99,0.99 1.5,1.5 2.083376,3.472294 2.300832,6.608104 1.5,10.5 -1.713761,3.215946 -3.93549,5.43733 -7.1875,7.15625 -3.572259,1.071678 -6.936784,1.060514 -10.625,0.96875 C 10.148193,43.11147 10.148193,43.11147 9.0878906,43.09766 7.391776,43.074262 5.6958413,43.038396 4,43 c 0,-0.66 0,-1.32 0,-2 7.179949,-2.141388 7.179949,-2.141388 11.625,-1.375 3.510969,0.71328 3.510969,0.71328 6.75,-1.4375 C 25.031612,36.270791 25.031612,36.270791 26,34 26.448813,29.961215 26.448813,29.961215 24.839844,26.414062 22.441712,24.570913 20.239739,24.0357 17.3125,23.3125 16.318633,23.061133 15.324766,22.809766 14.300781,22.550781 13.541523,22.369023 12.782266,22.187266 12,22 c -0.495,-1.98 -0.495,-1.98 -1,-4 2.31,0 4.62,0 7,0 0.495,1.485 0.495,1.485 1,3 1.98,-0.33 3.96,-0.66 6,-1 0.33,-2.97 0.66,-5.94 1,-9 -1.98,0.2475 -1.98,0.2475 -4,0.5 -3.162471,0.377905 -6.077492,0.467959 -9.25,0.25 -3.8444656,-0.05897 -3.8444656,-0.05897 -6.8125,2.3125 -2.2600901,2.855517 -2.2600901,2.855517 -2,6.5625 0.7940721,3.293673 0.7940721,3.293673 2.5625,5.125 3.0889171,1.544459 6.236433,2.440005 9.574219,3.308594 C 18,30 18,30 18.769531,32.097656 18.845586,32.72543 18.921641,33.353203 19,34 15.625,34.1875 15.625,34.1875 12,34 11.34,33.01 10.68,32.02 10,31 6.4432782,29.781188 6.4432782,29.781188 3,29 3,28.01 3,27.02 3,26 2.6767345,22.403209 2.6767345,22.403209 2,19 1.34,18.67 0.68,18.34 0,18 c 0.66,0 1.32,0 2,0 0,-2.31 0,-4.62 0,-7 -1.32,0 -2.64,0 -4,0 C -2,7.7 -2,4.4 -2,1 -3.4884792,2.0705022 -4.9655195,3.1569224 -6.4375,4.25 -7.2612109,4.8532812 -8.0849219,5.4565625 -8.9335938,6.078125 -11.112717,8.1048332 -11.647019,9.0991395 -12,12 -13.013203,11.96519 -13.013203,11.96519 -14.046875,11.92969 -14.938906,11.91164 -15.830937,11.8936 -16.75,11.875 -17.631719,11.8518 -18.513437,11.82859 -19.421875,11.80469 -22.113586,12.008605 -23.69905,12.634483 -26,14 c 0,-0.99 0,-1.98 0,-3 3.900282,-2.6001882 7.474346,-2.1508551 12,-2 0.250078,-0.5916797 0.500156,-1.1833594 0.757812,-1.7929688 C -11.830872,4.6995046 -10.40731,3.4229169 -8.125,1.6875 -7.4469531,1.1551172 -6.7689062,0.62273437 -6.0703125,0.07421875 -4,-1 -4,-1 0,0 Z"
         fill="#e6edf8"
         transform="translate(259,129)"
         id="path12" /><path
         d="m 0,0 c 4.62,0 9.24,0 14,0 0.33,4.29 0.66,8.58 1,13 1.65,-1.32 3.3,-2.64 5,-4 3,-0.6875 3,-0.6875 6,0 4.620006,4.657164 6.152989,9.39141 6.25,15.875 0.02578,1.028672 0.05156,2.057344 0.07813,3.117187 C 31.953523,31.426042 31.133956,33.297654 29,36 c -1.666667,0 -3.333333,0 -5,0 1.081348,-2.245877 2.215035,-4.335454 3.5625,-6.4375 C 29.011566,26.979382 29.583941,24.91241 30,22 c -0.66,0.33 -1.32,0.66 -2,1 0.33,-1.65 0.66,-3.3 1,-5 -0.66,0 -1.32,0 -2,0 0.33,-1.32 0.66,-2.64 1,-4 -0.66,0 -1.32,0 -2,0 -0.33,0.66 -0.66,1.32 -1,2 -2.0625,0.625 -2.0625,0.625 -4,1 0,-0.66 0,-1.32 0,-2 0.66,0 1.32,0 2,0 0,-0.66 0,-1.32 0,-2 -1.98,0.33 -3.96,0.66 -6,1 0,0.66 0,1.32 0,2 0.66,0.66 1.32,1.32 2,2 -0.99,0.66 -1.98,1.32 -3,2 -0.794379,2.185051 -0.794379,2.185051 -1.1875,4.625 -0.158555,0.817266 -0.317109,1.634531 -0.480469,2.476562 C 14.222461,27.728047 14.112891,28.354531 14,29 c -0.99,0 -1.98,0 -3,0 -0.66,0.33 -1.32,0.66 -2,1 0.33,-0.78375 0.66,-1.5675 1,-2.375 1.118665,-2.468325 1.118665,-2.468325 1,-4.625 0,-0.99 0,-1.98 0,-3 C 10.67,19.67 10.34,19.34 10,19 9,16 9,16 8.625,13.875 8.41875,13.25625 8.2125,12.6375 8,12 7.01,11.67 6.02,11.34 5,11 5,9.68 5,8.36 5,7 3.35,7 1.7,7 0,7 0,4.69 0,2.38 0,0 Z"
         fill="#5c98cf"
         transform="translate(80,130)"
         id="path13" /><path
         d="M 0,0 C 2.6875,2.4375 2.6875,2.4375 5,5 5.8971875,5.7115625 5.8971875,5.7115625 6.8125,6.4375 8.6211421,8.8172922 8.0742512,11.096388 8,14 c -3.0833134,0.02911 -6.1665913,0.04684 -9.25,0.0625 -0.8726953,0.0084 -1.7453906,0.01676 -2.6445313,0.02539 -0.8443359,0.0032 -1.6886718,0.0064 -2.5585937,0.0098 -1.1625732,0.0079 -1.1625732,0.0079 -2.3486328,0.01587 C -10.992836,14.00037 -12.896379,13.605524 -15,13 c 0,1.720829 0.572203,3.342286 1,5 -1.32,0.99 -2.64,1.98 -4,3 -3.220381,-7.947069 -3.220381,-7.947069 -2.4375,-11.6875 C -19.963125,8.549375 -19.48875,7.78625 -19,7 -18.38125,5.9275 -17.7625,4.855 -17.125,3.75 -15,1 -15,1 -12.75,0.125 -12.1725,0.08375 -11.595,0.0425 -11,0 c 0.33,1.32 0.66,2.64 1,4 1.98,-0.66 3.96,-1.32 6,-2 -1.65,0 -3.3,0 -5,0 0,-0.99 0,-1.98 0,-3 3.884239,-1.2947464 5.2869916,-0.6337237 9,1 z"
         fill="#5c98cf"
         transform="translate(210,143)"
         id="path14" /><path
         d="m 0,0 c 4.62,0 9.24,0 14,0 0,4.62 0,9.24 0,14 0.66,0 1.32,0 2,0 0.28875,-0.639375 0.5775,-1.27875 0.875,-1.9375 C 18,10 18,10 20,9 c 2.8125,-0.5 2.8125,-0.5 6,0 3.485596,3.371626 5.291275,7.531028 7,12 0.66,0.33 1.32,0.66 2,1 0.495,-0.495 0.495,-0.495 1,-1 0.66,-0.33 1.32,-0.66 2,-1 0.495,1.485 0.495,1.485 1,3 -0.66,0.66 -1.32,1.32 -2,2 -0.99,0 -1.98,0 -3,0 0.66,2.31 1.32,4.62 2,7 0.99,-0.33 1.98,-0.66 3,-1 -0.66,1.32 -1.32,2.64 -2,4 -1.32,-1.98 -2.64,-3.96 -4,-6 -0.253945,0.554297 -0.507891,1.108594 -0.769531,1.679687 -0.34418,0.724454 -0.68836,1.448907 -1.042969,2.195313 -0.336445,0.719297 -0.672891,1.438594 -1.019531,2.179687 C 29,37 29,37 26,39 c -2.1875,-0.375 -2.1875,-0.375 -4,-1 1.485,-0.495 1.485,-0.495 3,-1 -0.33,-0.66 -0.66,-1.32 -1,-2 0.421523,-0.531094 0.843047,-1.062188 1.277344,-1.609375 C 25.825195,32.684219 26.373047,31.977812 26.9375,31.25 27.75541,30.205859 27.75541,30.205859 28.589844,29.140625 30.020466,26.968932 30.708057,25.572119 31,23 30.559997,20.865908 30.559997,20.865908 29.6875,18.8125 29.423242,18.117695 29.158984,17.422891 28.886719,16.707031 28.11496,14.812656 28.11496,14.812656 26,14 c 0,-0.66 0,-1.32 0,-2 -0.99,0.33 -1.98,0.66 -3,1 0,-0.66 0,-1.32 0,-2 -0.99,0.495 -0.99,0.495 -2,1 -0.372104,1.323037 -0.706302,2.657379 -1,4 -0.802151,0.802151 -1.617726,1.590868 -2.4375,2.375 C 15.791907,20.120547 15.791907,20.120547 14,23 12.68,22.67 11.36,22.34 10,22 10.66,21.34 11.32,20.68 12,20 11.67,19.67 11.34,19.34 11,19 8.9253617,15.888043 7.7876845,13.651992 7,10 8.3190689,6.6363742 9.9984004,4.0023994 12,1 8.722265,1.7515002 8.722265,1.7515002 7,5 6.6098628,6.9896995 6.2679735,8.9901987 6,11 5.67,9.68 5.34,8.36 5,7 3.35,6.67 1.7,6.34 0,6 0,4.02 0,2.04 0,0 Z"
         fill="#5c98cf"
         transform="translate(15,130)"
         id="path15" /><path
         d="m 0,0 c 1.65,0.33 3.3,0.66 5,1 0,0.66 0,1.32 0,2 0.99,0.33 1.98,0.66 3,1 1.8458027,3.1882047 2.77274,6.326846 3,10 -1.4970347,3.188421 -3.5904179,5.466213 -6,8 -0.33,0.66 -0.66,1.32 -1,2 0.66,0.66 1.32,1.32 2,2 -2.6473892,1.460628 -3.8944833,2 -7,2 0,-0.66 0,-1.32 0,-2 -1.32,-0.33 -2.64,-0.66 -4,-1 -0.33,-1.32 -0.66,-2.64 -1,-4 0.7425,0.02062 1.485,0.04125 2.25,0.0625 C -1.2953772,21.006713 0.66109261,20.69301 3,20 3,19.01 3,18.02 3,17 2.443125,17.515625 1.88625,18.03125 1.3125,18.5625 -1,20 -1,20 -3.6875,19.75 -6,19 -6,19 -7,18 c 0.015625,-1.996094 0.015625,-1.996094 0.25,-4.4375 0.067031,-0.803086 0.1340625,-1.606172 0.203125,-2.433594 C -6,9 -6,9 -3,7 -3,6.01 -3,5.02 -3,4 -2.34,3.67 -1.68,3.34 -1,3 -0.67,2.01 -0.34,1.02 0,0 Z"
         fill="#84b1db"
         transform="translate(36,141)"
         id="path16" /><path
         d="M 0,0 C 0.66,0.33 1.32,0.66 2,1 1.67,1.66 1.34,2.32 1,3 1.66,3.33 2.32,3.66 3,4 3.7411821,6.310744 4.4020633,8.6481155 5,11 5.1830469,11.617461 5.3660937,12.234922 5.5546875,12.871094 6.1122778,15.536767 6.0948927,18.029017 6.0625,20.75 6.0534766,21.734844 6.0444531,22.719687 6.0351562,23.734375 6.0235547,24.482031 6.0119531,25.229687 6,26 1.8439836,27.583244 -1.5559573,28.64809 -6,28 -11.567563,24.431761 -11.567563,24.431761 -12.577148,21.089111 -12.812813,18.93753 -12.882736,16.851639 -12.875,14.6875 -12.89563,13.946934 -12.91625,13.206367 -12.9375,12.443359 -12.984312,10.629391 -12.995735,8.8145677 -13,7 c -2.97,0.66 -5.94,1.32 -9,2 -0.33,2.31 -0.66,4.62 -1,7 0.804375,-0.02063 1.60875,-0.04125 2.4375,-0.0625 C -18,16 -18,16 -17,17 c 0.07205,1.68609 0.08386,3.375007 0.0625,5.0625 -0.009,0.919102 -0.01805,1.838203 -0.02734,2.785156 C -16.97644,25.55793 -16.98804,26.268203 -17,27 c -2.956645,1.478323 -5.742297,1.060328 -9,1 0,-0.33 0,-0.66 0,-1 1.98,0 3.96,0 6,0 0.495,-4.455 0.495,-4.455 1,-9 -2.31,0 -4.62,0 -7,0 0.189215,-8.0502229 0.189215,-8.0502229 3.1875,-11.5625 C -19.605578,4.7984063 -17.553777,4.6694161 -14,5 c 0,-0.66 0,-1.32 0,-2 1.98,0 3.96,0 6,0 -0.99,0.495 -0.99,0.495 -2,1 0.059933,2.9396974 0.1469042,5.8742706 0.25,8.8125 0.01418,0.833379 0.028359,1.666758 0.042969,2.525391 0.076334,4.804108 0.076334,4.804108 2.5820313,8.693359 C -4.7563002,25.111098 -2.5743332,25.642454 0,26 0.33,25.01 0.66,24.02 1,23 1.66,23.33 2.32,23.66 3,24 3,21.69 3,19.38 3,17 1.35,16.67 -0.3,16.34 -2,16 -2.0540227,13.896114 -2.0928026,11.791833 -2.125,9.6875 -2.1482031,8.5157422 -2.1714063,7.3439844 -2.1953125,6.1367187 -2,3 -2,3 0,0 Z"
         fill="#e4ecf7"
         transform="translate(258,144)"
         id="path17" /><path
         d="m 0,0 c 0,0.66 0,1.32 0,2 -0.66,0 -1.32,0 -2,0 0,0.66 0,1.32 0,2 C -1.21625,3.505 -0.4325,3.01 0.375,2.5 3,1 3,1 5,1 6,4 6,4 6,8 6.66,8 7.32,8 8,8 7.7269467,14.553279 5.1878886,18.069305 1,23 c 1.32,-0.66 2.64,-1.32 4,-2 0.33,0.99 0.66,1.98 1,3 -2.3036874,1.066522 -4.6401819,2.06421 -7,3 -0.66,-0.33 -1.32,-0.66 -2,-1 0.350625,-0.94875 0.70125,-1.8975 1.0625,-2.875 C -0.64973223,20.129398 -0.64973223,20.129398 -2,18 c 0.33,-0.33 0.66,-0.66 1,-1 -0.94875,0.20625 -1.8975,0.4125 -2.875,0.625 C -4.90625,17.74875 -5.9375,17.8725 -7,18 -9,16 -9,16 -9.046875,13.941406 -8.8999219,12.763848 -8.8999219,12.763848 -8.75,11.5625 -8.6623438,10.780039 -8.5746875,9.9975781 -8.484375,9.1914063 -8,7 -8,7 -6,4 c -0.66,0 -1.32,0 -2,0 0.8125,-1.9375 0.8125,-1.9375 2,-4 3,-1 3,-1 6,0 z"
         fill="#85b2db"
         transform="translate(103,143)"
         id="path18" /><path
         d="M 0,0 C 3.0625,2.1875 3.0625,2.1875 5,5 5.3125,8.3125 5.3125,8.3125 5,11 5.6380859,10.9884 6.2761719,10.9768 6.9335937,10.96484 7.7598828,10.95584 8.5861719,10.94679 9.4375,10.9375 10.261211,10.9259 11.084922,10.9143 11.933594,10.90234 14,11 14,11 15,12 c 0.141152,2.670589 0.04247,5.324322 0,8 -0.99,0.33 -1.98,0.66 -3,1 -0.33,0.99 -0.66,1.98 -1,3 1.32,0.66 2.64,1.32 4,2 0.04242,2.332948 0.04093,4.667026 0,7 -2.785298,2.785298 -11.0063964,1.383861 -14.75,1.4375 -1.2890625,0.04576 -2.578125,0.09152 -3.90625,0.138672 -9.220724,0.109998 -9.220724,0.109998 -12.314453,-1.780274 -3.16143,-3.573097 -3.885555,-7.202104 -4.181641,-11.772461 C -19.947254,18.299427 -18.659562,17.124239 -17,15 c 0.05446,-2.079585 0.05446,-2.079585 -0.125,-4.375 C -17.259348,7.0852243 -16.941055,5.2684618 -14.6875,2.5 -10.110304,-1.7578571 -5.7985614,-1.4724893 0,0 Z m -13,3 c -2.240559,2.6910857 -2.240559,2.6910857 -1.835938,5.0859375 0.15211,0.7553906 0.304219,1.5107813 0.460938,2.2890625 0.616767,4.289646 0.616767,4.289646 -1.5625,7.3125 -0.680625,0.763125 -1.36125,1.52625 -2.0625,2.3125 -0.520224,3.567248 -0.241289,5.469163 1.25,8.75 1.925429,2.475551 2.760774,3.361311 5.75,4.25 5.2589412,0.339287 9.0455333,-0.01821 14,-2 0.33,0.33 0.66,0.66 1,1 1.5192804,0.0718 3.0416748,0.08392 4.5625,0.0625 0.8262891,-0.009 1.652578,-0.01805 2.503906,-0.02734 C 11.704492,32.023555 12.342578,32.011953 13,32 13,30.35 13,28.7 13,27 11.02,27 9.04,27 7,27 7.495,26.05125 7.99,25.1025 8.5,24.125 10.144244,21.277218 10.144244,21.277218 10,19 11.32,18.67 12.64,18.34 14,18 13.67,16.35 13.34,14.7 13,13 11.354254,12.97312 9.7083859,12.95366 8.0625,12.9375 6.6877148,12.9201 6.6877148,12.9201 5.2851562,12.90234 3.0340667,12.74051 3.0340667,12.74051 2,14 c -0.040638,1.666171 -0.042721,3.333881 0,5 0.66,0 1.32,0 2,0 0,0.66 0,1.32 0,2 C 1,20 1,20 -0.1875,17.9375 -0.455625,17.298125 -0.72375,16.65875 -1,16 -0.34,15.46375 0.32,14.9275 1,14.375 3.2237625,12.126963 3.2237625,12.126963 3.5625,9.0625 2.7947702,4.8826378 1.4212317,3.4749336 -2,1 -6.195312,0.48478625 -9.4813403,0.52390613 -13,3 Z"
         fill="#e2e9f4"
         transform="translate(136,137)"
         id="path19" /><path
         d="M 0,0 C 1.3747852,0.01740234 1.3747852,0.01740234 2.7773438,0.03515625 3.6964453,0.04417969 4.6155469,0.05320313 5.5625,0.0625 6.2727734,0.07410156 6.9830469,0.08570313 7.7148437,0.09765625 8.0448438,1.7476562 8.3748438,3.3976562 8.7148438,5.0976562 c -0.61875,0.04125 -1.2375001,0.0825 -1.8750001,0.125 -1.051875,0.4331251 -1.051875,0.4331251 -2.125,0.875 -1.2499999,2.9166667 -1.2499999,2.9166667 -1.9999999,5.9999998 -0.33,0.66 -0.6600001,1.32 -1.0000001,2 1.9800001,0 3.96,0 6,0 0,1.65 0,3.3 0,5 -1.4582321,0.027 -2.9166067,0.0464 -4.3749999,0.0625 -0.8121094,0.0116 -1.6242188,0.0232 -2.46093755,0.03516 -2.16406245,-0.09766 -2.16406245,-0.09766 -4.16406255,-1.097656 -0.9899999,0.33 -1.98,0.66 -2.9999999,1 -0.99,-0.66 -1.9800001,-1.32 -3.0000001,-2 0.66,-0.99 1.3200001,-1.98 2.0000001,-3 -1.7015626,0.03094 -1.7015626,0.03094 -3.4374998,0.0625 -3.5625,-0.0625 -3.5625,-0.0625 -4.5625,-1.0625 -0.04064,-1.666171 -0.04272,-3.3338807 0,-4.9999997 -0.66,-0.3300001 -1.32,-0.6600001 -2,-1.0000001 1.65,-0.33 3.3,-0.66 5,-1 1.32,1.6500001 2.6399997,3.3000001 3.9999997,4.9999998 2.9700001,-0.99 5.94,-1.9799997 9.00000005,-2.9999997 -1.32,-0.6600001 -2.63999995,-1.3200001 -4.00000005,-2.0000001 -0.042721,-1.666119 -0.040638,-3.3338288 0,-5 1,-0.99999995 1,-0.99999995 3.2851563,-1.0976562 z"
         fill="#f7c165"
         transform="translate(141.28516,149.90234)"
         id="path20" /><path
         d="M 0,0 C 4.29,0 8.58,0 13,0 10.71282,2.2871799 10.093615,2.2952207 7,2.5625 4.6203015,2.7768478 3.1532266,2.9233867 1,4 1,5.65 1,7.3 1,9 2.32,9.33 3.64,9.66 5,10 5,14.29 5,18.58 5,23 3.02,22.67 1.04,22.34 -1,22 -1.99,22 -2.98,22 -4,22 -5.2684375,21.93812 -5.2684375,21.93812 -6.5625,21.875 -9.1831463,21.736503 -9.1831463,21.736503 -11,24 c -1.875,0.300781 -1.875,0.300781 -4,0.3125 -0.70125,0.01676 -1.4025,0.03352 -2.125,0.05078 C -17.74375,24.243398 -18.3625,24.123516 -19,24 c -2,-3 -2,-3 -2,-6 6.93,0 13.86,0 21,0 -1.967963,-7.871852 -3.2506348,-11.6471428 -9,-17 2.1687425,0.5060399 3.9996763,0.9998381 6,2 0,0.66 0,1.32 0,2 0.66,0 1.32,0 2,0 0.33,-1.65 0.66,-3.3 1,-5 z"
         fill="#e1ebf6"
         transform="translate(218,139)"
         id="path21" /><path
         d="m 0,0 c 4.0290426,3.6669858 4.7298026,8.1210082 5.1328125,13.292969 0.2424818,3.585986 0.2424818,3.585986 2.625,6.3125 0.639375,0.309375 1.27875,0.61875 1.9375,0.9375 -1.32,0 -2.64,0 -4,0 0,2.31 0,4.62 0,7 4.29,0.33 8.5800005,0.66 12.9999995,1 0.66,-1.32 1.32,-2.64 2,-4 1.051875,0.474375 2.103751,0.94875 3.1875,1.4375 2.914259,1.255737 5.65997,2.084844 8.8125,2.5625 0,0.33 0,0.66 0,1 -9.239999,0 -18.479999,0 -27.9999995,0 -0.66,-1.65 -1.32,-3.3 -2,-5 -0.5078906,0.372539 -1.0157813,0.745078 -1.5390625,1.128906 -5.6924984,3.91226 -5.6924984,3.91226 -9.9609375,3.683594 -0.825,-0.268125 -1.6500005,-0.53625 -2.5000005,-0.8125 0.99,-0.66 1.9800005,-1.32 3.0000005,-2 -0.66,-0.33 -1.32,-0.66 -2.0000005,-1 2.6400005,-1.65 5.2800005,-3.3 8.0000005,-5 0.33,0.99 0.66,1.98 1,3 2.8491628,-2.725286 3.9257811,-4.072264 4.25,-8.125 C 2.6231222,10.424019 2.0236297,5.6907963 -1.8164062,2.1484375 -5.9382483,-0.47286876 -9.4023403,-0.99183276 -14.304688,-0.45703125 c -3.321861,0.91114536 -3.321861,0.91114536 -5.999999,1.99999995 0.329999,-1.31999995 0.66,-2.6399999 1,-4 C -11.880427,-4.3130963 -6.3284832,-4.4299383 0,0 Z"
         fill="#e4ecf7"
         transform="translate(74.304687,141.45703)"
         id="path22" /><path
         d="m 0,0 c 4.62,0 9.24,0 14,0 0,3.63 0,7.26 0,11 -0.99,0.33 -1.98,0.66 -3,1 -0.154687,1.144688 -0.154687,1.144688 -0.3125,2.3125 C 10,17 10,17 8.46875,18.375 6.5054653,20.547145 6.6874302,21.810894 6.8125,24.6875 6.83957,25.495742 6.866641,26.303984 6.894531,27.136719 6.9293359,27.751602 6.9641406,28.366484 7,29 6.34,29.33 5.68,29.66 5,30 5,22.41 5,14.82 5,7 3.35,6.67 1.7,6.34 0,6 0,4.02 0,2.04 0,0 Z"
         fill="#468ac9"
         transform="translate(155,130)"
         id="path23" /><path
         d="M 0,0 C 0.6328125,2.5039063 0.6328125,2.5039063 1.125,5.5625 1.2925781,6.5744141 1.4601562,7.5863281 1.6328125,8.6289063 1.7539844,9.4113672 1.8751563,10.193828 2,11 c 1.32,0.33 2.64,0.66 4,1 0,2.31 0,4.62 0,7 C 5.34,19 4.68,19 4,19 3.67,19.66 3.34,20.32 3,21 -3.2226721,20.412955 -3.2226721,20.412955 -6,18.9375 -7.3776904,16.268225 -6.82071,14.153989 -6.328125,11.273438 -5.7871169,7.5250239 -5.9212806,3.7785307 -6,0 c 3.75,-1.125 3.75,-1.125 6,0 z"
         fill="#77a9d7"
         transform="translate(255,149)"
         id="path24" /><path
         d="m 0,0 c 0.66,0.33 1.32,0.66 2,1 0.99,0 1.98,0 3,0 0.9763129,3.0374178 1.376934,5.0625409 0,8 -1.974852,1.370306 -3.9738672,2.706724 -6,4 0,0.66 0,1.32 0,2 C -1.5916797,14.91621 -2.1833594,14.832422 -2.7929688,14.746094 -7.1551882,14.183915 -10.681905,13.920476 -15,15 c -1,-1 -1,-1 -1.097656,-3.285156 0.0116,-0.916524 0.0232,-1.8330471 0.03516,-2.777344 0.009,-0.9191016 0.01805,-1.8382031 0.02734,-2.7851563 C -16.023555,5.4420703 -16.011953,4.7317969 -16,4 c 2.875,-0.1875 2.875,-0.1875 6,0 0.99,1.485 0.99,1.485 2,3 3.5676955,0.736065 3.5676955,0.736065 7,1 0,-1.32 0,-2.64 0,-4 0.2981424,-1.3416408 0.62243192,-2.6785117 1,-4 z"
         fill="#77a9d7"
         transform="translate(279,155)"
         id="path25" /><path
         d="M 0,0 C 0,1.32 0,2.64 0,4 0.74765625,4.1701562 1.4953125,4.3403125 2.265625,4.515625 3.2504688,4.7579687 4.2353125,5.0003125 5.25,5.25 6.2245312,5.4820313 7.1990625,5.7140625 8.203125,5.953125 11.364967,7.1366079 12.892535,8.3853644 15,11 c 0.651293,3.826348 0.315308,5.474487 -1.6875,8.8125 C 10.784984,22.203393 9.4152911,22.715392 6,23 c 1.623398,-1.70884 3.2931905,-3.374467 5,-5 0.66,0 1.32,0 2,0 0,-2.64 0,-5.28 0,-8 -1.65,0.66 -3.3,1.32 -5,2 -0.074536,1.223607 -0.074536,1.223607 1,3 C 8.1666211,14.549473 8.1666211,14.549473 7.3164062,14.089844 4.1007175,12.576897 0.76852403,11.781191 -2.6601563,10.878906 -5.16506,9.9379992 -6.3671873,9.1000807 -8,7 -8.375,4.4375 -8.375,4.4375 -8,2 -4.7720845,-0.1519437 -3.7159919,-0.20086443 0,0 Z"
         fill="#5c98cf"
         transform="translate(271,146)"
         id="path26" /><path
         d="m 0,0 c 2.9375,2.125 2.9375,2.125 5,5 0.3125,3.3125 0.3125,3.3125 0,6 -8.0350109,4.078775 -8.0350109,4.078775 -12.0625,3.75 C -7.701875,14.5025 -8.34125,14.255 -9,14 -8.01,12.68 -7.02,11.36 -6,10 -7.6347352,6.8752537 -7.6347352,6.8752537 -10.125,6.3125 -10.74375,6.209375 -11.3625,6.10625 -12,6 -11.664117,3.4808761 -11.42645,2.3280388 -9.375,0.75 -6.0087562,-0.31302436 -3.5130092,-0.43142218 0,0 Z"
         fill="#f7c36b"
         transform="translate(134,138)"
         id="path27" /><path
         d="M 0,0 C 0,0.99 0,1.98 0,3 0.33,3.66 0.66,4.32 1,5 3.3140622,5.7307565 5.6482887,6.4013826 8,7 8,7.66 8,8.32 8,9 5.03,8.505 5.03,8.505 2,8 2.66,9.65 3.32,11.3 4,13 3.01,12.67 2.02,12.34 1,12 c 0,1.32 0,2.64 0,4 -1.79133978,0.05392 -3.583139,0.09276 -5.375,0.125 -0.9977344,0.0232 -1.9954687,0.04641 -3.0234375,0.07031 C -10,16 -10,16 -12,14 c 0.33,-0.33 0.66,-0.66 1,-1 -0.33,0 -0.66,0 -1,0 0,-1.65 0,-3.3 0,-5 1.577812,-0.5878125 1.577812,-0.5878125 3.1875,-1.1875 C -5.0834107,5.2359744 -2.7033651,3.0310458 0,0 Z"
         fill="#498cca"
         transform="translate(168,154)"
         id="path28" /><path
         d="M 0,0 C 0.66,0 1.32,0 2,0 2.433125,0.928125 2.86625,1.85625 3.3125,2.8125 5.1780886,6.347622 5.1780886,6.347622 8,9 14.090414,10.844006 19.833302,10.879863 25.5625,8 26.696875,7.34 27.83125,6.68 29,6 29,5.01 29,4.02 29,3 28.34,2.34 27.68,1.68 27,1 c 0.99,-0.33 1.98,-0.66 3,-1 0,0.66 0,1.32 0,2 0.66,0 1.32,0 2,0 0,2.64 0,5.28 0,8 C 33.177559,9.982598 33.177559,9.982598 34.378906,9.964844 40.037198,9.9162449 45.428789,9.9870525 51,11 c 0,0.33 0,0.66 0,1 -3.291501,0.08685 -6.58271,0.140339 -9.875,0.1875 -0.937148,0.02514 -1.874297,0.05027 -2.839844,0.07617 -1.343847,0.0145 -1.343847,0.0145 -2.714844,0.0293 -1.241125,0.02357 -1.241125,0.02357 -2.507324,0.04761 C 32.382202,12.228186 31.701416,12.115796 31,12 30.34,11.01 29.68,10.02 29,9 28.05125,9.66 27.1025,10.32 26.125,11 20.558309,14.184193 14.847133,13.602278 8.75,12.3125 5.2721897,10.652636 2.8551984,8.5832748 0,6 -0.28875,6.639375 -0.5775,7.27875 -0.875,7.9375 -2,10 -2,10 -4,11 -3.2168131,7.0840655 -1.6082014,3.6359337 0,0 Z"
         fill="#ecf2f9"
         transform="translate(187,159)"
         id="path29" /><path
         d="M 0,0 C 0.185625,0.639375 0.37125,1.27875 0.5625,1.9375 1.9424606,4.4212621 1.9424606,4.4212621 5.625,4.75 6.73875,4.8325 7.8525,4.915 9,5 9.33,5.99 9.66,6.98 10,8 6.37,8 2.74,8 -1,8 c 0,1.32 0,2.64 0,4 -0.66,0.66 -1.32,1.32 -2,2 0.3185177,2.108208 0.3185177,2.108208 1,4 -1.32,0.99 -2.64,1.98 -4,3 C -9.2203809,13.052931 -9.2203809,13.052931 -8.4375,9.3125 -7.963125,8.549375 -7.48875,7.78625 -7,7 -6.0409375,5.39125 -6.0409375,5.39125 -5.0625,3.75 -3,1 -3,1 0,0 Z"
         fill="#6ba1d3"
         transform="translate(198,143)"
         id="path30" /><path
         d="m 0,0 c 0.99,0.33 1.98,0.66 3,1 0,0.66 0,1.32 0,2 1.32,0 2.64,0 4,0 0.33,1.65 0.66,3.3 1,5 2.97,0 5.94,0 9,0 -0.66,1.32 -1.32,2.64 -2,4 0.33,0.66 0.66,1.32 1,2 C 12.806219,15.59689 9.4747868,15.37349 6,15 3.0908466,13.735151 1.5398443,12.745499 -0.3125,10.1875 -1.4162779,6.6754793 -1.6665436,3.3330872 0,0 Z"
         fill="#f5b446"
         transform="translate(119,155)"
         id="path31" /><path
         d="M 0,0 C 0.33,0.66 0.66,1.32 1,2 3.64,2 6.28,2 9,2 9.0424172,4.3329477 9.0409294,6.6670257 9,9 8.67,9.33 8.34,9.66 8,10 5.3365854,9.9616563 2.7181155,9.855054 0.0625,9.6875 -0.67935547,9.6520508 -1.4212109,9.6166016 -2.1855469,9.5800781 -7.7584384,9.2415616 -7.7584384,9.2415616 -10,7 -7.0094833,3.6644237 -4.0681537,1.8491608 0,0 Z"
         fill="#5a96ce"
         transform="translate(230,160)"
         id="path32" /><path
         d="M 0,0 C 0.33,0 0.66,0 1,0 1.33,1.98 1.66,3.96 2,6 4.3015411,6.7780219 4.3015411,6.7780219 7,7 9.3050404,5.6684673 9.3050404,5.6684673 11,4 11.33,4.66 11.66,5.32 12,6 11,8 11,8 8.125,9.1875 5,10 5,10 2,9 c 0.791179,1.999835 0.791179,1.999835 2,4 0.99,0.33 1.98,0.66 3,1 0,0.66 0,1.32 0,2 C 5.35,15.34 3.7,14.68 2,14 1.01,15.485 1.01,15.485 0,17 -2.3125,17.363281 -2.3125,17.363281 -5,17.3125 -5.886875,17.3086 -6.77375,17.3048 -7.6875,17.30078 -10,17 -10,17 -12,15 c 0.70125,-0.165 1.4025,-0.33 2.125,-0.5 C -5.6864093,12.314648 -3.6076905,8.8532884 -1,5 -1.99,5.66 -2.98,6.32 -4,7 -2.7961855,4.5063843 -1.5457128,2.3185692 0,0 Z"
         fill="#689fd2"
         transform="translate(28,153)"
         id="path33" /><path
         d="M 0,0 C 0.66,0.33 1.32,0.66 2,1 1.01,2.485 1.01,2.485 0,4 0.12573674,6.1320399 0.12573674,6.1320399 0.625,8.375 1.2417666,12.664646 1.2417666,12.664646 -0.9375,15.6875 -1.618125,16.450625 -2.29875,17.21375 -3,18 c -0.4751065,3.880037 -0.3020949,6.777067 2,10 3.5241759,2.710905 7.7523759,2.423135 12,2 3.368213,-0.897971 3.368213,-0.897971 6,-2 0.33,0.33 0.66,0.66 1,1 1.681839,0.23287 3.371242,0.412642 5.0625,0.5625 0.919102,0.08379 1.838203,0.167578 2.785156,0.253906 1.06541,0.09088 1.06541,0.09088 2.152344,0.183594 0,-1.65 0,-3.3 0,-5 0.33,0 0.66,0 1,0 0.04254,1.999547 0.04081,4.000416 0,6 -2.785298,2.785298 -11.006396,1.383861 -14.75,1.4375 -1.289062,0.04576 -2.578125,0.09152 -3.90625,0.138672 C 1.1230262,32.68617 1.1230262,32.68617 -1.9707031,30.795898 -5.1321328,27.222801 -5.8562575,23.593794 -6.1523437,19.023437 -5.9472541,16.299427 -4.6595616,15.124239 -3,13 -2.8694774,10.854364 -2.8694774,10.854364 -3,8.5 -3.1264123,5.3028234 -3.1627697,4.2780649 -1.5,1.4375 -0.7575,0.7259375 -0.7575,0.7259375 0,0 Z"
         fill="#eff2f4"
         transform="translate(122,139)"
         id="path34" /><path
         d="m 0,0 c 0.66,1.32 1.32,2.64 2,4 1.6627029,1.338273 3.3291618,2.6718978 5,4 0.33,0.99 0.66,1.98 1,3 0.33,0.66 0.66,1.32 1,2 -0.66,0.66 -1.32,1.32 -2,2 0.66,0 1.32,0 2,0 C 7.4439623,18.819365 5.0439507,21.260444 2,24 1.34,24 0.68,24 0,24 0,16.08 0,8.16 0,0 Z"
         fill="#7cacd8"
         transform="translate(84,137)"
         id="path35" /><path
         d="m 0,0 c 1.8125,0.875 1.8125,0.875 3.8125,2.875 -1.485,2.475 -1.485,2.475 -3,5 2.0745356,1.2236068 2.0745356,1.2236068 5,1 -2,2 -4,4 -6,6 1.32,-0.33 2.64,-0.66 4,-1 -0.625,1.875 -0.625,1.875 -2,4 -1.97905503,0.726489 -3.979388,1.398692 -6,2 C -4.260977,18.268184 -4.260977,18.268184 -4.3359375,16.628906 -4.4109529,15.231744 -4.4865013,13.834609 -4.5625,12.4375 -4.5934375,11.730449 -4.624375,11.023398 -4.65625,10.294922 -4.7603063,8.4826081 -4.9666989,6.6768201 -5.1875,4.875 c -0.66,-0.33 -1.32,-0.66 -2,-1 C -2.786522,-0.15922983 -2.786522,-0.15922983 0,0 Z"
         fill="#629bd1"
         transform="translate(227.1875,142.125)"
         id="path36" /><path
         d="M 0,0 C 1.65,1.32 3.3,2.64 5,4 4.67,4.99 4.34,5.98 4,7 3.34,7 2.68,7 2,7 c 0.99,0.66 1.98,1.32 3,2 0,1.32 0,2.64 0,4 -1.6796875,1.519531 -1.6796875,1.519531 -3.875,2.8125 -0.71929687,0.43957 -1.43859375,0.879141 -2.1796875,1.332031 C -1.6966406,17.426836 -2.3385937,17.709141 -3,18 c -0.66,-0.33 -1.32,-0.66 -2,-1 0.375,-2.9375 0.375,-2.9375 1,-6 0.66,-0.33 1.32,-0.66 2,-1 C -2.474375,9.566875 -2.94875,9.13375 -3.4375,8.6875 -5,7 -5,7 -6,4 -4.02,2.68 -2.04,1.36 0,0 Z"
         fill="#6ba1d3"
         transform="translate(72,145)"
         id="path37" /><path
         d="M 0,0 C 2.7919243,1.2437223 4.9465729,2.7320357 7,5 7.9375,7.8125 7.9375,7.8125 8,10 7.21625,9.195625 6.4325,8.39125 5.625,7.5625 2.6586937,4.66682 -0.05283645,3.2515397 -4,2 c -0.99,0.66 -1.98,1.32 -3,2 1.98,0 3.96,0 6,0 -0.99,1.485 -0.99,1.485 -2,3 -3.625,0.6875 -3.625,0.6875 -7,1 0,-1.32 0,-2.64 0,-4 -2.405346,0.9621382 -3.739184,1.5797971 -5.125,3.8125 C -15.41375,8.534375 -15.7025,9.25625 -16,10 c -0.350625,0.86625 -0.70125,1.7325 -1.0625,2.625 -0.309375,0.78375 -0.61875,1.5675 -0.9375,2.375 -0.33,0.66 -0.66,1.32 -1,2 -1.5,-1.375 -1.5,-1.375 -3,-3 0,-0.66 0,-1.32 0,-2 0.99,0 1.98,0 3,0 0.02062,-0.70125 0.04125,-1.4025 0.0625,-2.125 C -17.554051,5.6324225 -14.532793,3.5782043 -11,1 -7.4969568,-0.75152157 -3.8222379,-0.55494156 0,0 Z"
         fill="#4c8dca"
         transform="translate(208,140)"
         id="path38" /><path
         d="m 0,0 c 1.010625,0.0825 2.02125,0.165 3.0625,0.25 2,3 2,3 1.8125,6.5625 C 4.0625,10.25 4.0625,10.25 1.0625,12.25 c -4.5405405,-0.540541 -4.5405405,-0.540541 -6,-2 0.085937,-2.03125 0.085937,-2.03125 0.375,-4.5 C -4.472266,4.9353125 -4.3820312,4.120625 -4.2890625,3.28125 -3.7327349,0.06691276 -3.3632703,0.28623577 0,0 Z"
         fill="#e0eaf6"
         transform="translate(33.9375,148.75)"
         id="path39" /><path
         d="m 0,0 c 0,3.3 0,6.6 0,10 1.32,0 2.64,0 4,0 0,2.31 0,4.62 0,7 -0.99,-0.33 -1.98,-0.66 -3,-1 -0.66,1.98 -1.32,3.96 -2,6 -0.99,-0.99 -1.98,-1.98 -3,-3 -0.66,0.33 -1.32,0.66 -2,1 -0.66,-0.33 -1.32,-0.66 -2,-1 0.33,4.29 0.66,8.58 1,13 -0.66,0 -1.32,0 -2,0 -0.5297659,-4.774433 -0.8077055,-9.248791 0,-14 2.5980843,-2.937405 5.403057,-4.501274 9,-6 C -0.66,11.01 -1.32,10.02 -2,9 -2.125,6.3125 -2.125,6.3125 -2,4 -2.78375,4.66 -3.5675,5.32 -4.375,6 -7,8 -7,8 -9,8 -9,6 -9,6 -7.5390625,4.4921875 -6.5916016,3.6916797 -6.5916016,3.6916797 -5.625,2.875 -4.9985156,2.3361719 -4.3720312,1.7973437 -3.7265625,1.2421875 -2,0 -2,0 0,0 Z"
         fill="#5090cc"
         transform="translate(257,130)"
         id="path40" /><path
         d="m 0,0 c 4.62,0 9.24,0 14,0 0,3.3 0,6.6 0,10 C 13.01,9.34 12.02,8.68 11,8 9.68,9.32 8.36,10.64 7,12 8.0771018,7.6915929 9.0394752,4.3642328 12,1 8.722265,1.7515002 8.722265,1.7515002 7,5 6.6098628,6.9896995 6.2679735,8.9901987 6,11 5.67,9.68 5.34,8.36 5,7 3.35,6.67 1.7,6.34 0,6 0,4.02 0,2.04 0,0 Z"
         fill="#5090cc"
         transform="translate(15,130)"
         id="path41" /><path
         d="M 0,0 C 3,0.125 3,0.125 4,1.125 4.203125,3.1210938 4.203125,3.1210938 4.25,5.5625 4.2886719,6.7671289 4.2886719,6.7671289 4.328125,7.9960937 4.2198437,8.6986328 4.1115625,9.4011719 4,10.125 c -3,2 -3,2 -5.625,1.6875 C -4,11.125 -4,11.125 -5,10.125 -4.914063,8.09375 -4.914063,8.09375 -4.625,5.625 -4.534766,4.8103125 -4.4445312,3.995625 -4.3515625,3.15625 -3.7877692,-0.10122259 -3.4247044,0.14269602 0,0 Z"
         fill="#eef3fa"
         transform="translate(99,148.875)"
         id="path42" /><path
         d="m 0,0 c 2.9375,0.1875 2.9375,0.1875 3.9375,1.1875 0.4705882,6.2352941 0.4705882,6.2352941 -1.5,9.4375 -0.495,0.515625 -0.99,1.03125 -1.5,1.5625 -4.875,-0.875 -4.875,-0.875 -6,-2 -0.2731481,-5.7361111 -0.2731481,-5.7361111 0,-8 2,-2 2,-2 5.0625,-2.1875 z"
         fill="#ebf1f9"
         transform="translate(175.0625,148.8125)"
         id="path43" /><path
         d="M 0,0 C 0.66,0.99 1.32,1.98 2,3 1.505,3.4125 1.01,3.825 0.5,4.25 -1.4338609,6.1220234 -1.4338609,6.1220234 -1,10 -1.99,11.485 -1.99,11.485 -3,13 -5.4414621,12.050543 -7.808173,11.101556 -10.125,9.875 -12.108239,8.7885573 -12.108239,8.7885573 -15,9 -13.980596,6.2198076 -13.302797,5.1718578 -10.6875,3.6875 -7.6895566,2.9205843 -5.9659932,3.2785422 -3,4 -2.34,3.67 -1.68,3.34 -1,3 -0.67,2.01 -0.34,1.02 0,0 Z"
         fill="#4f90cb"
         transform="translate(103,156)"
         id="path44" /><path
         d="M 0,0 C 3.2569648,0.41755959 4.6344329,0.63443291 7,3 7.1953125,5.1640625 7.1953125,5.1640625 7.125,7.625 7.1069531,8.4422656 7.0889062,9.2595313 7.0703125,10.101563 7.0355078,11.041289 7.0355078,11.041289 7,12 5.1875,12.625 5.1875,12.625 3,13 0,11 0,11 -1,8 -1.125,4.375 -1.125,4.375 -1,1 -0.67,0.67 -0.34,0.34 0,0 Z"
         fill="#d7e3f4"
         transform="translate(59,148)"
         id="path45" /><path
         d="M 0,0 C -0.04125,1.11375 -0.0825,2.2275 -0.125,3.375 -0.41121859,7.0436602 -0.41121859,7.0436602 2,9 c -1.98,1.65 -3.96,3.3 -6,5 -2,-1 -2,-1 -3,-3 -0.99,0.33 -1.98,0.66 -3,1 0,-2.8396723 0.4026718,-5.2373571 1,-8 C -8.4225,3.896875 -7.845,3.79375 -7.25,3.6875 -4.7775577,2.9320315 -2.3676119,0 0,0 Z"
         fill="#7eaed9"
         transform="translate(256,133)"
         id="path46" /><path
         d="M 0,0 C 0.66,0.33 1.32,0.66 2,1 1.67,1.66 1.34,2.32 1,3 1.66,3.33 2.32,3.66 3,4 3.7411821,6.310744 4.4020633,8.6481155 5,11 5.2475,11.763125 5.495,12.52625 5.75,13.3125 5.8325,13.869375 5.915,14.42625 6,15 4,17 4,17 1.4375,17.1875 -1,17 -1,17 -2,16 -2.125695,13.8778 -2.1757677,11.750887 -2.1875,9.625 -2.2016797,8.4622656 -2.2158594,7.2995312 -2.2304688,6.1015625 -2,3 -2,3 0,0 Z"
         fill="#dee8f5"
         transform="translate(258,144)"
         id="path47" /><path
         d="m 0,0 c 4.62,0 9.24,0 14,0 0.33,1.32 0.66,2.64 1,4 C 15.99,3.34 16.98,2.68 18,2 20.042969,1.8046875 20.042969,1.8046875 22.1875,1.875 24.074687,1.936875 24.074687,1.936875 26,2 25.690625,2.5775 25.38125,3.155 25.0625,3.75 23.80715,6.2190587 23.80715,6.2190587 23,10 20.03,9.34 17.06,8.68 14,8 13.34,5.69 12.68,3.38 12,1 8.04,1 4.08,1 0,1 0,0.67 0,0.34 0,0 Z"
         fill="#609ad0"
         transform="translate(219,138)"
         id="path48" /><path
         d="M 0,0 C 3.1875,-0.4375 3.1875,-0.4375 7,0 9.1115838,2.0854503 10.567391,4.4120619 12,7 12.531094,6.5784766 13.062188,6.1569531 13.609375,5.7226562 14.315781,5.1748047 15.022187,4.6269531 15.75,4.0625 16.446094,3.5172266 17.142187,2.9719531 17.859375,2.4101563 22.032905,-0.339195 26.076849,-0.2685355 31,0 32.485,0.99 32.485,0.99 34,2 31.613439,3.1932805 30.388198,2.9785091 27.75,2.8125 23.040144,2.7747002 20.600639,3.8180403 17,7 15.480505,8.9407886 14.259249,10.868963 13,13 10.021915,10.447356 8.7340921,7.4681843 7,4 6.34,3.67 5.68,3.34 5,3 5,2.34 5,1.68 5,1 3.35,1 1.7,1 0,1 0,0.67 0,0.34 0,0 Z"
         fill="#e8eff8"
         transform="translate(176,138)"
         id="path49" /><path
         d="m 0,0 c 3.1875,-0.375 3.1875,-0.375 7,0 5.208046,4.8608426 7.038314,9.7720198 7.375,16.875 C 14.265994,22.888505 12.256934,27.743066 8,32 7.01,31.67 6.02,31.34 5,31 5.928125,30.13375 5.928125,30.13375 6.875,29.25 11.360956,24.500164 11.417245,20.336691 11.332031,13.984375 10.859962,9.7413018 9.4346004,7.4674612 7,4 6.67,3.01 6.34,2.02 6,1 4.02,1 2.04,1 0,1 0,0.67 0,0.34 0,0 Z"
         fill="#edf3fa"
         transform="translate(100,138)"
         id="path50" /><path
         d="m 0,0 c 0.66,0.33 1.32,0.66 2,1 0,4.29 0,8.58 0,13 0.66,0.33 1.32,0.66 2,1 -1.98,1.65 -3.96,3.3 -6,5 -0.99,-0.99 -1.98,-1.98 -3,-3 0.99,-2.31 1.98,-4.62 3,-7 0.66,0 1.32,0 2,0 C 0,9.01 0,8.02 0,7 -0.66,7 -1.32,7 -2,7 -2,3 -2,3 0,0 Z"
         fill="#639cd1"
         transform="translate(57,148)"
         id="path51" /><path
         d="M 0,0 C 0.66,0.66 1.32,1.32 2,2 1.54625,2.391875 1.0925,2.78375 0.625,3.1875 -1.2980703,5.3324631 -1.9425046,7.3251586 -3,10 c -1.2978896,2.023181 -2.6246466,4.02866 -4,6 1.32,-0.66 2.64,-1.32 4,-2 0,0.99 0,1.98 0,3 -3.96,0.495 -3.96,0.495 -8,1 0.350625,-0.78375 0.70125,-1.5675 1.0625,-2.375 C -9.628125,14.75875 -9.31875,13.8925 -9,13 c -0.33,-0.66 -0.66,-1.32 -1,-2 0.66,-0.33 1.32,-0.66 2,-1 0.7307565,-2.3140622 1.4013826,-4.6482887 2,-7 0.99,0 1.98,0 3,0 1.6879883,-1.4375019 1.6879883,-1.4375019 3,-3 z"
         fill="#87b3dc"
         transform="translate(187,150)"
         id="path52" /><path
         d="m 0,0 c 0.99,0 1.98,0 3,0 1.5547669,3.1095338 1.2864444,5.5626676 1,9 -1.8125,3.4375 -1.8125,3.4375 -4,6 -0.99,0 -1.98,0 -3,0 0,-0.99 0,-1.98 0,-3 -1.65,1.32 -3.3,2.64 -5,4 0.99,0.66 1.98,1.32 3,2 -2.31,0 -4.62,0 -7,0 1.505281,-4.049923 3.8873031,-5.525339 7.5,-7.75 C -3.0304687,9.3296094 -3.0304687,9.3296094 -1.53125,8.390625 1,7 1,7 3,7 2.7238247,5.0592514 2.7238247,5.0592514 2,3 1.01,2.34 0.02,1.68 -1,1 -0.67,0.67 -0.34,0.34 0,0 Z"
         fill="#4f90cb"
         transform="translate(74,151)"
         id="path53" /><path
         d="M 0,0 C 2.6252719,-0.05382106 5.2494471,-0.09358313 7.875,-0.125 8.6213672,-0.1417578 9.3677344,-0.1585156 10.136719,-0.1757813 12.091945,-0.1933959 14.04742,-0.10320189 16,0 18,2 18,2 18.195312,4.1640625 18.172109,4.9761719 18.148906,5.7882812 18.125,6.625 18.106953,7.4422656 18.088906,8.2595313 18.070312,9.1015625 18.047109,9.7280469 18.023906,10.354531 18,11 c 0.99,-0.66 1.98,-1.32 3,-2 2.331994,-0.079051 4.668326,-0.087988 7,0 0,0.33 0,0.66 0,1 -1.98,0 -3.96,0 -6,0 0,0.66 0,1.32 0,2 -1.961479,1.389381 -3.961666,2.726041 -6,4 C 16,11.38 16,6.76 16,2 10.72,1.67 5.44,1.34 0,1 0,0.67 0,0.34 0,0 Z"
         fill="#e7eef8"
         transform="translate(154,128)"
         id="path54" /><path
         d="M 0,0 C 2.97,0 5.94,0 9,0 9,0.33 9,0.66 9,1 6.69,1 4.38,1 2,1 2.33,2.98 2.66,4.96 3,7 4.32,7.33 5.64,7.66 7,8 7.145255,16.053581 6.7141328,23.978758 6,32 5.34,31.67 4.68,31.34 4,31 4.33,24.07 4.66,17.14 5,10 3.68,9.67 2.36,9.34 1,9 0,8 0,8 -0.09765625,6.1523437 -0.06510417,4.1015625 -0.03255208,2.0507813 0,0 Z"
         fill="#ebf0f9"
         transform="translate(153,129)"
         id="path55" /><path
         d="M 0,0 C 0.33,0 0.66,0 1,0 1.054236,1.9163522 1.0929,3.8331493 1.125,5.75 1.148203,6.8173437 1.171406,7.8846875 1.195312,8.984375 1.0048769,11.924701 0.52670104,13.523619 -1,16 c 0.66,0.99 1.32,1.98 2,3 -0.5775,0.185625 -1.155,0.37125 -1.75,0.5625 C -4.1042784,21.705511 -5.17908,24.488226 -7,28 c -0.33,0 -0.66,0 -1,0 -0.351706,-5.275591 -0.351706,-5.275591 0,-8 1.9375,-2.1875 1.9375,-2.1875 4,-4 0.3849989,-1.655495 0.7279313,-3.322243 1,-5 0.66,-0.33 1.32,-0.66 2,-1 C -0.53248212,7.6440076 -0.53248212,7.6440076 -0.375,4.9375 -0.26285156,3.5588477 -0.26285156,3.5588477 -0.1484375,2.1523438 -0.09945312,1.4420703 -0.05046875,0.73179687 0,0 Z"
         fill="#89b4dc"
         transform="translate(169,130)"
         id="path56" /><path
         d="M 0,0 C 1.32,0 2.64,0 4,0 3.67,8.25 3.34,16.5 3,25 1.35,24.67 -0.3,24.34 -2,24 -1.01,23.67 -0.02,23.34 1,23 1.028946,19.541684 1.04678,16.083399 1.0625,12.625 1.07088,11.640156 1.079258,10.655313 1.087891,9.640625 1.092721,8.2291016 1.092721,8.2291016 1.097661,6.7890625 1.1028931,5.919751 1.1081299,5.0504394 1.1135254,4.1547852 1.1412235,1.9495001 1.1412235,1.9495001 0,0 Z"
         fill="#d9e5f4"
         transform="translate(16,137)"
         id="path57" /><path
         d="M 0,0 C 0.226875,0.5775 0.45375,1.155 0.6875,1.75 2.3250968,4.5573089 4.4726486,5.9910796 7,8 7.33,8.99 7.66,9.98 8,11 8.33,11.66 8.66,12.32 9,13 7.5026042,14.204427 6.0052083,15.408854 4.5078125,16.613281 2.7470789,18.122705 2.7470789,18.122705 1,21 0.91840426,16.838617 1.0175148,13.052752 2,9 1.34,8.67 0.68,8.34 0,8 0,5.36 0,2.72 0,0 Z"
         fill="#93bbdf"
         transform="translate(84,137)"
         id="path58" /><path
         d="M 0,0 C 3.63,0 7.26,0 11,0 10.360625,0.70125 9.72125,1.4025 9.0625,2.125 6.836139,5.2284123 6.3491906,7.2462014 6,11 5.67,9.68 5.34,8.36 5,7 3.35,7 1.7,7 0,7 0,4.69 0,2.38 0,0 Z"
         fill="#4589c9"
         transform="translate(80,130)"
         id="path59" /><path
         d="M 0,0 C 0.99,0 1.98,0 3,0 2.67,1.32 2.34,2.64 2,4 3.98,4 5.96,4 8,4 8,5.65 8,7.3 8,9 6.5634415,9.0813146 5.1255517,9.1393356 3.6875,9.1875 2.4867383,9.239707 2.4867383,9.239707 1.2617187,9.2929688 -1.4785158,8.9380161 -2.2917108,8.1063372 -4,6 -3.360625,5.71125 -2.72125,5.4225 -2.0625,5.125 0.15206079,4.1717655 0.15206079,4.1717655 1,2 0.34,1.67 -0.32,1.34 -1,1 -0.67,0.67 -0.34,0.34 0,0 Z"
         fill="#f4aa2c"
         transform="translate(141,160)"
         id="path60" /><path
         d="M 0,0 C 0,2.97 0,5.94 0,9 -0.66,8.67 -1.32,8.34 -2,8 -4.0192587,8.7660058 -4.0192587,8.7660058 -6.125,9.9375 -7.2116797,10.50791 -7.2116797,10.50791 -8.3203125,11.089844 -8.8746094,11.390195 -9.4289063,11.690547 -10,12 c 0,0.99 0,1.98 0,3 -0.99,0.33 -1.98,0.66 -3,1 0,-2.31 0,-4.62 0,-7 1.65,0 3.3,0 5,0 0.33,-0.66 0.66,-1.32 1,-2 1.6666667,-0.6666667 3.3333333,-1.3333333 5,-2 0.33,-0.66 0.66,-1.32 1,-2 -1.65,0.66 -3.3,1.32 -5,2 0,-0.99 0,-1.98 0,-3 3.75,-2 3.75,-2 6,-2 z"
         fill="#4589c8"
         transform="translate(232,153)"
         id="path61" /><path
         d="m 0,0 c 1.32,0 2.64,0 4,0 0,1.98 0,3.96 0,6 -5.61,0 -11.22,0 -17,0 0,-0.66 0,-1.32 0,-2 0.603281,-0.060586 1.206562,-0.1211719 1.828125,-0.1835937 C -9.9730469,3.6907227 -9.9730469,3.6907227 -8.75,3.5625 -7.9610937,3.4812891 -7.1721875,3.4000781 -6.359375,3.3164063 -4.1763536,3.0236501 -2.1226818,2.5793558 0,2 0,1.34 0,0.68 0,0 Z"
         fill="#69a0d3"
         transform="translate(214,151)"
         id="path62" /><path
         d="M 0,0 C 0.33,0 0.66,0 1,0 1.66,2.64 2.32,5.28 3,8 2.195625,8.5775 1.39125,9.155 0.5625,9.75 -2.378532,11.902022 -2.378532,11.902022 -3,16 c -2.97,0 -5.94,0 -9,0 2,-2 2,-2 3.8125,-2.6875 C -4.8502541,11.310152 -3.0989963,8.2173139 -1,5 -1.99,5.66 -2.98,6.32 -4,7 -2.7961855,4.5063843 -1.5457128,2.3185692 0,0 Z"
         fill="#4287c7"
         transform="translate(28,153)"
         id="path63" /><path
         d="m 0,0 c -0.99,1.485 -0.99,1.485 -2,3 0.8064869,3.6567053 0.8064869,3.6567053 2,7 -2.475,1.485 -2.475,1.485 -5,3 C -5.8723412,10.005191 -6.1082977,7.3642409 -6.0625,4.25 -6.05348,3.4507813 -6.044453,2.6515625 -6.035156,1.828125 -6.0235547,1.2248437 -6.0119531,0.6215625 -6,0 c 3.75,-1.125 3.75,-1.125 6,0 z"
         fill="#a0c3e3"
         transform="translate(255,149)"
         id="path64" /><path
         d="M 0,0 C 0.66,0.33 1.32,0.66 2,1 2.081608,2.895107 2.1394646,4.791245 2.1875,6.6875 2.222305,7.7432422 2.257109,8.7989844 2.2929688,9.8867188 1.9622925,13.400705 1.1900188,15.248438 -1,18 c -1.6666667,0 -3.3333333,0 -5,0 1.081348,-2.245877 2.2150346,-4.335454 3.5625,-6.4375 C -0.98843384,8.9793821 -0.41605855,6.9124099 0,4 -0.99,4.495 -0.99,4.495 -2,5 -1.34,3.35 -0.68,1.7 0,0 Z"
         fill="#5794ce"
         transform="translate(110,148)"
         id="path65" /><path
         d="M 0,0 C 0.99,0.33 1.98,0.66 3,1 1.515,3.475 1.515,3.475 0,6 2.0745356,7.2236068 2.0745356,7.2236068 5,7 2.6666667,9.3333333 0.33333333,11.666667 -2,14 -2.66,13.67 -3.32,13.34 -4,13 -4.6301969,4.8074398 -4.6301969,4.8074398 -2,1.4375 -1.34,0.963125 -0.68,0.48875 0,0 Z"
         fill="#80afd9"
         transform="translate(228,144)"
         id="path66" /><path
         d="M 0,0 C 0.99,0.99 1.98,1.98 3,3 3,2.34 3,1.68 3,1 3.66,1.33 4.32,1.66 5,2 4.01,3.98 3.02,5.96 2,8 2.99,7.67 3.98,7.34 5,7 4.6875,9.375 4.6875,9.375 4,12 3.01,12.66 2.02,13.32 1,14 -2.2560175,5.9649891 -2.2560175,5.9649891 -1.1875,1.9375 -0.795625,1.298125 -0.40375,0.65875 0,0 Z"
         fill="#7dadd9"
         transform="translate(191,150)"
         id="path67" /><path
         d="M 0,0 C 0,0.99 0,1.98 0,3 0.66,3.33 1.32,3.66 2,4 2,4.99 2,5.98 2,7 1.01,6.67 0.02,6.34 -1,6 -1,5.01 -1,4.02 -1,3 -3.8076473,2.2257389 -3.8076473,2.2257389 -7,2 c -2.3629069,1.3113541 -2.3629069,1.3113541 -4,3 0.33,0.66 0.66,1.32 1,2 -0.99,0 -1.98,0 -3,0 0,-2.31 0,-4.62 0,-7 1.60321,-0.19551338 3.2076299,-0.38111983 4.8125,-0.5625 0.8933203,-0.10441406 1.7866406,-0.20882812 2.7070313,-0.31640625 C -3,-1 -3,-1 0,0 Z"
         fill="#3d84c6"
         transform="translate(232,141)"
         id="path68" /><path
         d="M 0,0 C 0.66,0.99 1.32,1.98 2,3 2.33,3 2.66,3 3,3 3.99,3.33 4.98,3.66 6,4 -0.89715536,9.059081 -0.89715536,9.059081 -5.5,8.8125 -6.325,8.544375 -7.15,8.27625 -8,8 -7.01,7.34 -6.02,6.68 -5,6 -5.66,5.67 -6.32,5.34 -7,5 -4.69,3.35 -2.38,1.7 0,0 Z"
         fill="#e4ecf7"
         transform="translate(71,162)"
         id="path69" /><path
         d="M 0,0 C 0.99,0.33 1.98,0.66 3,1 3,1.66 3,2.32 3,3 4.32,3 5.64,3 7,3 6.4422573,6.2349078 5.6278849,7.9785501 3,10 2.01,10 1.02,10 0,10 -1.3695267,7.2609465 -1.1262136,5.0291267 -1,2 -0.67,1.34 -0.34,0.68 0,0 Z"
         fill="#f6bc59"
         transform="translate(119,155)"
         id="path70" /><path
         d="M 0,0 C 2.64,0 5.28,0 8,0 8,1.32 8,2.64 8,4 7.67,4.33 7.34,4.66 7,5 8.98,5 10.96,5 13,5 12.67,5.66 12.34,6.32 12,7 9.1213867,7.9595377 7.2911772,8.0609441 4.3125,7.4375 1.16628,5.4817416 0.8401472,3.5133429 0,0 Z"
         fill="#5d98cf"
         transform="translate(170,162)"
         id="path71" /><path
         d="M 0,0 C 3.61117,0.19519838 4.7842619,0.77260035 7.3125,3.4375 9,6 9,6 9,8 6.6670522,8.0424172 4.3329743,8.0409294 2,8 1,7 1,7 0.9375,4.4375 0.958125,3.633125 0.97875,2.82875 1,2 0.34,1.67 -0.32,1.34 -1,1 -0.67,0.67 -0.34,0.34 0,0 Z"
         fill="#dcdde0"
         transform="translate(125,156)"
         id="path72" /><path
         d="M 0,0 C 0.66,0.66 1.32,1.32 2,2 1.625,5.625 1.625,5.625 1,9 -0.65,9.66 -2.3,10.32 -4,11 -4.99,8.36 -5.98,5.72 -7,3 c 1.32,0.33 2.64,0.66 4,1 0.99,-1.32 1.98,-2.64 3,-4 z"
         fill="#71a5d5"
         transform="translate(43,145)"
         id="path73" /><path
         d="M 0,0 C 0.66,0.33 1.32,0.66 2,1 1.6875,3.375 1.6875,3.375 1,6 -1,7.3333333 -3,8.6666667 -5,10 -5.99,9.34 -6.98,8.68 -8,8 -7.505,7.566875 -7.01,7.13375 -6.5,6.6875 -4.6678181,5.0025952 -4.6678181,5.0025952 -5,2 -2.625,0.9375 -2.625,0.9375 0,0 Z"
         fill="#f7c46c"
         transform="translate(140,159)"
         id="path74" /><path
         d="M 0,0 C 2.0625,0.4375 2.0625,0.4375 4,1 4.66,0.67 5.32,0.34 6,0 6,1.32 6,2.64 6,4 4.3203125,5.5195312 4.3203125,5.5195312 2.125,6.8125 1.0460547,7.4718555 1.0460547,7.4718555 -0.0546875,8.1445313 -0.69664063,8.4268359 -1.3385937,8.7091406 -2,9 -2.66,8.67 -3.32,8.34 -4,8 -3.6875,5.125 -3.6875,5.125 -3,2 -2.01,1.34 -1.02,0.68 0,0 Z"
         fill="#89b5dc"
         transform="translate(71,154)"
         id="path75" /><path
         d="M 0,0 C 2,1.5 2,1.5 3,3 2.34,3 1.68,3 1,3 0.67,3.99 0.34,4.98 0,6 -1.32,5.67 -2.64,5.34 -4,5 -3.67,4.01 -3.34,3.02 -3,2 -8.7186305,3.2813933 -8.7186305,3.2813933 -13,7 -12.649788,4.46096 -12.159881,3.179067 -10.4375,1.25 -6.7359291,-0.64824149 -4.1478772,-0.39503592 0,0 Z"
         fill="#4a8cca"
         transform="translate(276,140)"
         id="path76" /><path
         d="M 0,0 C 2.375,0.3125 2.375,0.3125 5,1 7.3416876,4.5125315 7.4962368,5.8646936 7,10 5.0344938,13.275844 3.9457059,14.720587 0.25,15.8125 -0.4925,15.874375 -1.235,15.93625 -2,16 -0.37660195,14.29116 1.2931905,12.625533 3,11 3.66,11 4.32,11 5,11 5,8.36 5,5.72 5,3 3.35,3.66 1.7,4.32 0,5 0,3.3333333 0,1.6666667 0,0 Z"
         fill="#4c8eca"
         transform="translate(279,153)"
         id="path77" /><path
         d="m 0,0 c 0,0.66 0,1.32 0,2 -0.99,0 -1.98,0 -3,0 0,0.66 0,1.32 0,2 -3.0624675,1.784098 -5.2207927,2.2288002 -8.75,2.125 C -12.549219,6.106953 -13.348437,6.088906 -14.171875,6.070313 -14.775156,6.0471094 -15.378438,6.0239062 -16,6 c 0,0.66 0,1.32 0,2 -1.65,-0.33 -3.3,-0.66 -5,-1 1.722019,-2.1228819 2.601787,-2.9308612 5.339844,-3.40625 C -14.374316,3.547344 -14.374316,3.547344 -13.0625,3.5 -7.6992747,3.3058561 -5.2399695,0 0,0 Z"
         fill="#86b2db"
         transform="translate(217,149)"
         id="path78" /><path
         d="M 0,0 C 0,0.99 0,1.98 0,3 0.99,3.66 1.98,4.32 3,5 1.9867969,4.9303906 1.9867969,4.9303906 0.953125,4.859375 -4.7340493,4.4813238 -4.7340493,4.4813238 -9.625,7 -10.07875,7.66 -10.5325,8.32 -11,9 -11.3125,6.75 -11.3125,6.75 -11,4 -7.5241939,0.21750515 -5.0542673,-0.4701644 0,0 Z"
         fill="#91b9de"
         transform="translate(273,142)"
         id="path79" /><path
         d="M 0,0 C -0.33,0.99 -0.66,1.98 -1,3 -2.32,2.67 -3.64,2.34 -5,2 c 0.33,0.99 0.66,1.98 1,3 -0.66,0.66 -1.32,1.32 -2,2 -0.99,-0.33 -1.98,-0.66 -3,-1 -0.99,0.99 -1.98,1.98 -3,3 -0.66,-0.33 -1.32,-0.66 -2,-1 0,-1.32 0,-2.64 0,-4 3,-1 3,-1 5,-1 C -8.401875,2.505 -7.80375,2.01 -7.1875,1.5 -4.5719103,-0.29354721 -3.1044934,-0.25870778 0,0 Z"
         fill="#669ed2"
         transform="translate(181,139)"
         id="path80" /><path
         d="M 0,0 C 0.33,0.66 0.66,1.32 1,2 -0.32,2.33 -1.64,2.66 -3,3 -2.01,3.33 -1.02,3.66 0,4 0,4.66 0,5.32 0,6 -0.99,6 -1.98,6 -3,6 -3.33,6.99 -3.66,7.98 -4,9 -6.97,8.505 -6.97,8.505 -10,8 -8.603447,4.5012673 -7.2873952,3.2910817 -3.875,1.75 -3.1505469,1.4148437 -2.4260938,1.0796875 -1.6796875,0.734375 -1.1253906,0.49203125 -0.57109375,0.2496875 0,0 Z"
         fill="#89b4dc"
         transform="translate(230,160)"
         id="path81" /><path
         d="m 0,0 c 7.75,0.75 7.75,0.75 10,3 0,0.99 0,1.98 0,3 C 6.6875,6.25 6.6875,6.25 3,6 1.0625,4.125 1.0625,4.125 0,2 0,1.34 0,0.68 0,0 Z"
         fill="#d9e4f4"
         transform="translate(268,157)"
         id="path82" /><path
         d="m 0,0 c 0.66,0.99 1.32,1.98 2,3 -2.0625,2.0625 -2.0625,2.0625 -5,4 -3.8125,-0.25 -3.8125,-0.25 -7,-1 -0.33,0.99 -0.66,1.98 -1,3 -0.99,0.33 -1.98,0.66 -3,1 0,-1.32 0,-2.64 0,-4 2.125,-1.8125 2.125,-1.8125 5,-3 3.1875,0.375 3.1875,0.375 6,1 0.66,-0.33 1.32,-0.66 2,-1 0.33,-0.99 0.66,-1.98 1,-3 z"
         fill="#4a8cca"
         transform="translate(103,156)"
         id="path83" /><path
         d="M 0,0 C 0.66,0 1.32,0 2,0 2.4787708,4.1174285 2.3216537,5.5800632 -0.25,8.9375 -3,11 -3,11 -5.3125,10.8125 -5.869375,10.544375 -6.42625,10.27625 -7,10 -6.01,9.67 -5.02,9.34 -4,9 -4.33,8.34 -4.66,7.68 -5,7 -4.2165428,5.8278046 -3.4229716,4.6623633 -2.625,3.5 -2.1841406,2.8503125 -1.7432812,2.200625 -1.2890625,1.53125 -0.65097656,0.77328125 -0.65097656,0.77328125 0,0 Z"
         fill="#5e99d0"
         transform="translate(44,158)"
         id="path84" /><path
         d="M 0,0 C 1.6823647,0.62599617 3.3523962,1.2875227 5,2 4.67,2.66 4.34,3.32 4,4 -0.29581527,5.2676176 -3.509443,6 -8,6 -6.2408163,1.9403453 -4.714123,0 0,0 Z"
         fill="#88b3dc"
         transform="translate(212,162)"
         id="path85" /><path
         d="M 0,0 C 0.66,0.33 1.32,0.66 2,1 2.99,1 3.98,1 5,1 5.625,2.8125 5.625,2.8125 6,5 3.5956397,8.6065404 2.0532039,8.8545293 -2,10 -1.649375,9.2575 -1.29875,8.515 -0.9375,7.75 0.06115165,4.8206218 -0.08511483,3.8463094 -1,1 -0.67,0.67 -0.34,0.34 0,0 Z"
         fill="#90b8de"
         transform="translate(279,155)"
         id="path86" /><path
         d="m 0,0 c 3.63,0.33 7.26,0.66 11,1 0,0.66 0,1.32 0,2 C 7.8123763,5.1250824 5.7348778,5.5020163 2,6 0,3 0,3 0,0 Z"
         fill="#adc4e9"
         transform="translate(197,157)"
         id="path87" /><path
         d="m 0,0 c 5.61,0 11.22,0 17,0 -0.99,0.33 -1.98,0.66 -3,1 0,0.66 0,1.32 0,2 C 12.793438,3.4640625 12.793438,3.4640625 11.5625,3.9375 9.109196,4.7633535 9.109196,4.7633535 8,6 5.6670257,6.0409294 3.3329478,6.0424172 1,6 1,5.67 1,5.34 1,5 3.64,4.34 6.28,3.68 9,3 9,2.34 9,1.68 9,1 6.03,1 3.06,1 0,1 0,0.67 0,0.34 0,0 Z"
         fill="#f7fafc"
         transform="translate(199,157)"
         id="path88" /><path
         d="m 0,0 c 0,0.66 0,1.32 0,2 -0.99,0.33 -1.98,0.66 -3,1 -0.33,0.99 -0.66,1.98 -1,3 1.32,0.66 2.64,1.32 4,2 -0.33,1.98 -0.66,3.96 -1,6 -0.33,0 -0.66,0 -1,0 0,-1.65 0,-3.3 0,-5 -1.98,0 -3.96,0 -6,0 1.875,-5.75 1.875,-5.75 3,-8 3,-1 3,-1 5,-1 z"
         fill="#e8ebef"
         transform="translate(151,155)"
         id="path89" /><path
         d="M 0,0 C 3.625,0.375 3.625,0.375 7,1 7,1.99 7,2.98 7,4 6.4225,3.814375 5.845,3.62875 5.25,3.4375 1.9822724,2.8021085 -0.08010319,3.4173987 -2.875,5.1875 -6.0178358,6.3891725 -7.9853074,5.2332833 -11,4 c 0.33,-0.66 0.66,-1.32 1,-2 1.27875,0.04125 2.5575,0.0825 3.875,0.125 C -3.9812851,2.2421287 -3.9812851,2.2421287 -2,2 -1.34,1.34 -0.68,0.68 0,0 Z"
         fill="#4c8ecb"
         transform="translate(209,160)"
         id="path90" /><path
         d="M 0,0 C 1.65,0.33 3.3,0.66 5,1 4.67,2.98 4.34,4.96 4,7 3.01,7.33 2.02,7.66 1,8 0.34,7.67 -0.32,7.34 -1,7 -0.67,4.69 -0.34,2.38 0,0 Z"
         fill="#638ed7"
         transform="translate(97,151)"
         id="path91" /><path
         d="M 0,0 C 0.66,0.99 1.32,1.98 2,3 2.66,3 3.32,3 4,3 3.67,3.99 3.34,4.98 3,6 2.38125,6.28875 1.7625,6.5775 1.125,6.875 -1.6732606,8.3564321 -2.4949581,10.276591 -4,13 -4.33,13 -4.66,13 -5,13 -5.602537,6.97463 -5.602537,6.97463 -3.8867188,4.1992187 -2.6537815,2.7440055 -1.3319107,1.3652084 0,0 Z"
         fill="#99bee1"
         transform="translate(25,145)"
         id="path92" /><path
         d="M 0,0 C 1.9142366,0.81210037 3.5207202,1.5207202 5,3 5.66,3.33 6.32,3.66 7,4 5.35,5.32 3.7,6.64 2,8 0,7 0,7 -1,5 -1.99,5.33 -2.98,5.66 -4,6 -4,3 -4,3 -2,1 -1.34,0.67 -0.68,0.34 0,0 Z"
         fill="#98bee1"
         transform="translate(250,139)"
         id="path93" /><path
         d="m 0,0 c 1,3 1,3 1.3125,6.5 0.3210955,3.557745 0.3210955,3.557745 2.75,5.25 C 4.701875,12.1625 5.34125,12.575 6,13 6,13.99 6,14.98 6,16 3.03,15.505 3.03,15.505 0,15 0,14.01 0,13.02 0,12 -0.32326553,8.4032093 -0.32326553,8.4032093 -1,5 -1.66,4.67 -2.32,4.34 -3,4 c 0.66,0 1.32,0 2,0 0.33,-1.32 0.66,-2.64 1,-4 z"
         fill="#f2f6fb"
         transform="translate(262,143)"
         id="path94" /><path
         d="M 0,0 C 0.66,0.33 1.32,0.66 2,1 2,2.98 2,4.96 2,7 1.01,7 0.02,7 -1,7 -1,6.01 -1,5.02 -1,4 -2.65,5.65 -4.3,7.3 -6,9 -6.66,8.67 -7.32,8.34 -8,8 -6.75,5.0625 -6.75,5.0625 -5,2 -2.875,1.1875 -2.875,1.1875 -1,1 -0.67,0.67 -0.34,0.34 0,0 Z"
         fill="#89b4dc"
         transform="translate(168,152)"
         id="path95" /><path
         d="m 0,0 c 0,0.66 0,1.32 0,2 -0.66,0 -1.32,0 -2,0 0,0.66 0,1.32 0,2 0.66,0 1.32,0 2,0 C 0.33,5.32 0.66,6.64 1,8 -1.3517113,7.4013826 -3.6859378,6.7307565 -6,6 -7,4 -7,4 -7,1 -3.375,-1.125 -3.375,-1.125 0,0 Z"
         fill="#7dadd9"
         transform="translate(103,143)"
         id="path96" /><path
         d="M 0,0 C 0.99,0.33 1.98,0.66 3,1 2.0409375,2.11375 2.0409375,2.11375 1.0625,3.25 -1.270896,6.3566516 -1.270896,6.3566516 -2,10 c 0.185625,0.86625 0.37125,1.7325 0.5625,2.625 C -1.293125,13.40875 -1.14875,14.1925 -1,15 -1.66,15.66 -2.32,16.32 -3,17 -3.9889511,12.920577 -4.3741981,9.1910184 -4,5 -2,2.0625 -2,2.0625 0,0 Z"
         fill="#96bce0"
         transform="translate(165,131)"
         id="path97" /><path
         d="M 0,0 C 1.5625,1.6875 1.5625,1.6875 3,4 2.67,5.65 2.34,7.3 2,9 -1.63,9 -5.26,9 -9,9 -9,8.67 -9,8.34 -9,8 -7.576875,7.87625 -7.576875,7.87625 -6.125,7.75 -2.936238,7.3497785 -2.936238,7.3497785 -1.6875,5.125 -1.460625,4.42375 -1.23375,3.7225 -1,3 -0.67,2.01 -0.34,1.02 0,0 Z"
         fill="#7faed9"
         transform="translate(167,161)"
         id="path98" /><path
         d="M 0,0 C 2.475,0.495 2.475,0.495 5,1 5,2.65 5,4.3 5,6 3.02,6.99 3.02,6.99 1,8 0,7 0,7 -0.0625,3.4375 -0.041875,2.303125 -0.02125,1.16875 0,0 Z"
         fill="#5f8ad6"
         transform="translate(32,151)"
         id="path99" /><path
         d="M 0,0 C 1.5,1.25 1.5,1.25 3,3 3,4.32 3,5.64 3,7 3.66,7 4.32,7 5,7 4.67,7.99 4.34,8.98 4,10 3.01,9.34 2.02,8.68 1,8 0.01,8.33 -0.98,8.66 -2,9 -2.125,5.625 -2.125,5.625 -2,2 -1.34,1.34 -0.68,0.68 0,0 Z"
         fill="#5a96ce"
         transform="translate(26,137)"
         id="path100" /><path
         d="M 0,0 C 0.33,0 0.66,0 1,0 1,3.3 1,6.6 1,10 1.99,9.34 2.98,8.68 4,8 6.0429687,7.8046875 6.0429687,7.8046875 8.1875,7.875 10.074688,7.936875 10.074688,7.936875 12,8 c 0,0.33 0,0.66 0,1 -2.31,0 -4.62,0 -7,0 0,0.66 0,1.32 0,2 -1.98,1.32 -3.96,2.64 -6,4 0.33,-4.95 0.66,-9.9 1,-15 z"
         fill="#dbe5f5"
         transform="translate(95,129)"
         id="path101" /><path
         d="M 0,0 C 1.1446875,0.2475 1.1446875,0.2475 2.3125,0.5 5.0359624,1.091454 5.0359624,1.091454 8,1 7.375,2.875 7.375,2.875 6,5 2.875,6.25 2.875,6.25 0,7 0,4.69 0,2.38 0,0 Z"
         fill="#8ab5dd"
         transform="translate(15,162)"
         id="path102" /><path
         d="m 0,0 c 0,0.99 0,1.98 0,3 -2.5,2.1875 -2.5,2.1875 -5,4 0,-0.66 0,-1.32 0,-2 -0.99,0.33 -1.98,0.66 -3,1 0,-1.65 0,-3.3 0,-5 1.134375,0.020625 2.26875,0.04125 3.4375,0.0625 C -1.1842433,1.4157748 -1.1842433,1.4157748 0,0 Z"
         fill="#7faed9"
         transform="translate(164,161)"
         id="path103" /><path
         d="M 0,0 C 1.32,0 2.64,0 4,0 4,1.98 4,3.96 4,6 2.02,6.99 2.02,6.99 0,8 -0.33,7.67 -0.66,7.34 -1,7 -0.71269945,4.6605526 -0.38063221,2.3260857 0,0 Z"
         fill="#5c88d5"
         transform="translate(173,151)"
         id="path104" /><path
         d="M 0,0 C 2.64,0 5.28,0 8,0 7.3125,2.4375 7.3125,2.4375 6,5 3.8738745,5.6741373 2.2209132,6 0,6 0,4.02 0,2.04 0,0 Z"
         fill="#679fd2"
         transform="translate(155,130)"
         id="path105" /><path
         d="m 0,0 c -0.99,1.485 -0.99,1.485 -2,3 0.33,0.66 0.66,1.32 1,2 -3.2145127,1.6072563 -6.4361254,1.0574818 -10,1 1.32,-0.33 2.64,-0.66 4,-1 0,-1.65 0,-3.3 0,-5 4.75,-1.125 4.75,-1.125 7,0 z"
         fill="#f6bb56"
         transform="translate(136,164)"
         id="path106" /><path
         d="M 0,0 C 2.31,0.33 4.62,0.66 7,1 7.33,1.99 7.66,2.98 8,4 4.7,4 1.4,4 -2,4 -1.34,2.68 -0.68,1.36 0,0 Z"
         fill="#e7eef8"
         transform="translate(200,147)"
         id="path107" /><path
         d="M 0,0 C 0.33,0 0.66,0 1,0 1,2.97 1,5.94 1,9 1.99,8.34 2.98,7.68 4,7 6.3319939,6.9209494 8.6683262,6.9120123 11,7 11,7.33 11,7.66 11,8 9.02,8 7.04,8 5,8 5,8.66 5,9.32 5,10 3.0385213,11.389381 1.0383342,12.726041 -1,14 -0.67,9.38 -0.34,4.76 0,0 Z"
         fill="#c6d6ef"
         transform="translate(171,130)"
         id="path108" /><path
         d="M 0,0 C 0.99,0.495 0.99,0.495 2,1 1.9674479,2.9856771 1.9348958,4.9713542 1.9023437,6.9570312 1.9173678,9.2030546 1.9173678,9.2030546 3,12 2.6775174,13.335999 2.3422742,14.668934 2,16 1.9615456,17.99963 1.9545572,20.000516 2,22 1.34,22.33 0.68,22.66 0,23 0,15.41 0,7.82 0,0 Z"
         fill="#5a96cf"
         transform="translate(160,137)"
         id="path109" /><path
         d="M 0,0 C 0.33,0 0.66,0 1,0 1.1940648,1.6450722 1.3800793,3.2910959 1.5625,4.9375 1.6669141,5.8540234 1.7713281,6.7705469 1.8789062,7.7148437 1.9188672,8.4689453 1.9588281,9.2230469 2,10 1,11 1,11 -1.5625,11.0625 -2.366875,11.041875 -3.17125,11.02125 -4,11 -3.67,9.68 -3.34,8.36 -3,7 -2.34,7.33 -1.68,7.66 -1,8 -1.020625,6.865625 -1.04125,5.73125 -1.0625,4.5625 -1,1 -1,1 0,0 Z"
         fill="#c8dbef"
         transform="translate(262,160)"
         id="path110" /><path
         d="M 0,0 C 2.31,0 4.62,0 7,0 7,2.31 7,4.62 7,7 6.34,6.67 5.68,6.34 5,6 4.67,6.33 4.34,6.66 4,7 3.34,6.67 2.68,6.34 2,6 2.33,5.01 2.66,4.02 3,3 2.34,2.67 1.68,2.34 1,2 0.67,1.34 0.34,0.68 0,0 Z"
         fill="#478ac9"
         transform="translate(232,162)"
         id="path111" /><path
         d="m 0,0 c 0.66,0 1.32,0 2,0 0,3.3 0,6.6 0,10 -4.1340027,1.033501 -6.0011357,1.332955 -10,0 0.66,0 1.32,0 2,0 C -6,9.34 -6,8.68 -6,8 -1.25,6.875 -1.25,6.875 1,8 0.67,5.36 0.34,2.72 0,0 Z"
         fill="#a9c1e8"
         transform="translate(219,150)"
         id="path112" /><path
         d="M 0,0 C 2.0113628,2.5599162 3.628455,5.045903 5,8 2,10 2,10 -1,10 -1.125,3.375 -1.125,3.375 0,0 Z"
         fill="#608bd6"
         transform="translate(259,149)"
         id="path113" /><path
         d="M 0,0 C 2.31,0 4.62,0 7,0 7,1.32 7,2.64 7,4 5.1875,4.625 5.1875,4.625 3,5 2.01,4.34 1.02,3.68 0,3 0,2.01 0,1.02 0,0 Z"
         fill="#d4e2f2"
         transform="translate(270,147)"
         id="path114" /><path
         d="M 0,0 C 0.33,0.99 0.66,1.98 1,3 1.66,2.67 2.32,2.34 3,2 3.33,3.32 3.66,4.64 4,6 2.35,7.32 0.7,8.64 -1,10 -1.9765625,3.9453125 -1.9765625,3.9453125 -2,2 -1.34,1.34 -0.68,0.68 0,0 Z"
         fill="#f5b64b"
         transform="translate(123,141)"
         id="path115" /><path
         d="M 0,0 C 2,3 2,3 3,6 5.0001647,7.208821 5.0001647,7.208821 7,8 7,5.69 7,3.38 7,1 7.33,1 7.66,1 8,1 8,3.64 8,6.28 8,9 6.1875,9.625 6.1875,9.625 4,10 1,8 1,8 0.48828125,6.0546875 0.32552083,4.0364583 0.16276042,2.0182292 0,0 Z"
         fill="#f3f7fb"
         transform="translate(58,151)"
         id="path116" /><path
         d="M 0,0 C 0,3.63 0,7.26 0,11 -2,9 -2,9 -2.125,6.375 -2.08375,5.59125 -2.0425,4.8075 -2,4 -2.78375,4.66 -3.5675,5.32 -4.375,6 -7,8 -7,8 -9,8 -9,6 -9,6 -7.5390625,4.4921875 -6.5916016,3.6916797 -6.5916016,3.6916797 -5.625,2.875 -4.9985156,2.3361719 -4.3720312,1.7973437 -3.7265625,1.2421875 -2,0 -2,0 0,0 Z"
         fill="#3c84c6"
         transform="translate(257,130)"
         id="path117" /><path
         d="M 0,0 C 1.32,0 2.64,0 4,0 3.67,2.97 3.34,5.94 3,9 2.01,9 1.02,9 0,9 -0.99,9.495 -0.99,9.495 -2,10 -1.67,9.21625 -1.34,8.4325 -1,7.625 0.11866511,5.156675 0.11866511,5.156675 0,3 0,2.01 0,1.02 0,0 Z"
         fill="#4489c8"
         transform="translate(91,150)"
         id="path118" /><path
         d="M 0,0 C 0.66,0.66 1.32,1.32 2,2 2.99,2 3.98,2 5,2 4.236875,2.7425 3.47375,3.485 2.6875,4.25 0.5606298,6.4263323 -1.2559956,8.521678 -3,11 -3.3692308,4.6 -3.3692308,4.6 -1.5,1.5625 -1.005,1.046875 -0.51,0.53125 0,0 Z"
         fill="#9fc2e2"
         transform="translate(88,147)"
         id="path119" /><path
         d="m 0,0 c 0.66,0.66 1.32,1.32 2,2 -0.99,0.66 -1.98,1.32 -3,2 0.33,0.66 0.66,1.32 1,2 -0.99,0.495 -0.99,0.495 -2,1 0.33,0.66 0.66,1.32 1,2 C -1.99,9 -2.98,9 -4,9 -4.66,7.35 -5.32,5.7 -6,4 -4.02,2.68 -2.04,1.36 0,0 Z"
         fill="#88b4dc"
         transform="translate(72,145)"
         id="path120" /><path
         d="M 0,0 C -1.65,1.65 -3.3,3.3 -5,5 -5,4.01 -5,3.02 -5,2 -6.65,1.67 -8.3,1.34 -10,1 -7.683091,-3.6338179 -3.8857558,-1.4679522 0,0 Z"
         fill="#8eb7de"
         transform="translate(210,143)"
         id="path121" /><path
         d="M 0,0 C 0.99,0 1.98,0 3,0 3,4.512363 2.1947037,8.0495334 0,12 -0.33,11.01 -0.66,10.02 -1,9 -1.226875,8.38125 -1.45375,7.7625 -1.6875,7.125 -2.1055307,4.2823909 -1.2071238,2.5562622 0,0 Z"
         fill="#5e99d0"
         transform="translate(164,136)"
         id="path122" /><path
         d="M 0,0 C 0.99,0 1.98,0 3,0 2.67,1.98 2.34,3.96 2,6 -0.07553648,6.5534764 -1.8436596,7 -4,7 -2.9259889,4.0848271 -2.2218982,2.2218982 0,0 Z"
         fill="#5392cc"
         transform="translate(184,159)"
         id="path123" /><path
         d="m 0,0 c 2.6065886,3.909883 1.7684054,5.4664079 1,10 -0.0363576,1.99967 -0.048766,4.000595 0,6 -0.66,0.33 -1.32,0.66 -2,1 C -1.026917,14.541594 -1.046798,12.083481 -1.0625,9.625 -1.07088,8.9263281 -1.079258,8.2276563 -1.087891,7.5078125 -1.1132812,2.2265625 -1.1132812,2.2265625 0,0 Z"
         fill="#5f9ad0"
         transform="translate(85,143)"
         id="path124" /><path
         d="m 0,0 c -0.99,1.485 -0.99,1.485 -2,3 0.308406,2.1527495 0.308406,2.1527495 1,4 -0.99,-0.33 -1.98,-0.66 -3,-1 -0.99,0.495 -0.99,0.495 -2,1 0,-2.31 0,-4.62 0,-7 3.75,-1.125 3.75,-1.125 6,0 z"
         fill="#8fb8de"
         transform="translate(255,149)"
         id="path125" /><path
         d="M 0,0 C 0.66,0 1.32,0 2,0 0.62487859,2.9618 -1.0036943,5.4214384 -3,8 -3.66,8.99 -4.32,9.98 -5,11 -5.33,8.69 -5.66,6.38 -6,4 -5.38125,3.71125 -4.7625,3.4225 -4.125,3.125 -1.8667423,2.0627996 -1.8667423,2.0627996 0,0 Z"
         fill="#f2f6fb"
         transform="translate(52,141)"
         id="path126" /><path
         d="M 0,0 C 2.31,0.33 4.62,0.66 7,1 7.33,2.65 7.66,4.3 8,6 6.35,6.33 4.7,6.66 3,7 3,6.34 3,5.68 3,5 3.66,5 4.32,5 5,5 5,4.34 5,3.68 5,3 3.35,3.33 1.7,3.66 0,4 0,2.68 0,1.36 0,0 Z"
         fill="#70a5d5"
         transform="translate(98,140)"
         id="path127" /><path
         d="M 0,0 C 1.8253125,0.7115625 1.8253125,0.7115625 3.6875,1.4375 6.7726879,2.5992404 9.731212,3.4892519 13,4 13,4.33 13,4.66 13,5 11.20866,5.0539199 9.416861,5.0927557 7.625,5.125 6.6272656,5.1482031 5.6295313,5.1714063 4.6015625,5.1953125 2,5 2,5 0,3 0,2.01 0,1.02 0,0 Z"
         fill="#e2ebf7"
         transform="translate(94,166)"
         id="path128" /><path
         d="M 0,0 C 0.99,0.66 1.98,1.32 3,2 0.75,4.5 0.75,4.5 -2,7 -3.32,7 -4.64,7 -6,7 -4.6066743,3.6327961 -3.0210714,2.0140476 0,0 Z"
         fill="#87b3dc"
         transform="translate(64,162)"
         id="path129" /><path
         d="M 0,0 C 0.66,0 1.32,0 2,0 3.5888644,3.1777287 3.5434636,6.5486531 3,10 1,12 1,12 -1,13 -1.66,12.67 -2.32,12.34 -3,12 -1.625,10.5 -1.625,10.5 0,9 0.66,9 1.32,9 2,9 1.6577243,6.0293449 1.6577243,6.0293449 1,3 0.34,2.67 -0.32,2.34 -1,2 -0.67,1.34 -0.34,0.68 0,0 Z"
         fill="#5e99d0"
         transform="translate(253,150)"
         id="path130" /><path
         d="M 0,0 C 1.3747852,0.01740234 1.3747852,0.01740234 2.7773438,0.03515625 3.6964453,0.04417969 4.6155469,0.05320313 5.5625,0.0625 c 0.7102734,0.01160156 1.4205469,0.02320313 2.1523437,0.03515625 -0.99,0.33 -1.98,0.66 -3,0.99999995 0,0.66 0,1.32 0,2.0000001 -1.3199999,-0.33 -2.6399999,-0.6600001 -3.99999995,-1 -0.66,1.3199999 -1.32,2.6399999 -1.99999995,3.9999999 -0.66,0 -1.32,0 -2.0000001,0 -0.042721,-1.666119 -0.040638,-3.3338288 0,-5 1,-0.99999995 1,-0.99999995 3.2851563,-1.0976562 z"
         fill="#f6c267"
         transform="translate(141.28516,149.90234)"
         id="path131" /><path
         d="M 0,0 C 0.66,0 1.32,0 2,0 2,0.66 2,1.32 2,2 2.66,2 3.32,2 4,2 4,3.98 4,5.96 4,8 2.68,7.67 1.36,7.34 0,7 0,4.69 0,2.38 0,0 Z"
         fill="#648ed7"
         transform="translate(60,150)"
         id="path132" /><path
         d="M 0,0 C 0.66,0.33 1.32,0.66 2,1 1.01,2.485 1.01,2.485 0,4 -0.02639829,6.2971419 -0.02639829,6.2971419 0.375,8.6875 0.48585938,9.4957422 0.59671875,10.303984 0.7109375,11.136719 0.80632812,11.751602 0.90171875,12.366484 1,13 0.01,13.495 0.01,13.495 -1,14 -3.2253285,9.6802448 -3.0643357,6.7008159 -2,2 -1.34,1.34 -0.68,0.68 0,0 Z"
         fill="#f3f3f2"
         transform="translate(122,139)"
         id="path133" /><path
         d="M 0,0 C 0.33,1.32 0.66,2.64 1,4 1,3.34 1,2.68 1,2 1.66,2.33 2.32,2.66 3,3 3,3.66 3,4.32 3,5 -3.75,5.125 -3.75,5.125 -6,4 -6,3.34 -6,2.68 -6,2 -2.25,0 -2.25,0 0,0 Z"
         fill="#81afda"
         transform="translate(235,165)"
         id="path134" /><path
         d="M 0,0 C 0.99,0 1.98,0 3,0 3,1.98 3,3.96 3,6 0.69,6.33 -1.62,6.66 -4,7 -3.34,6.030625 -2.68,5.06125 -2,4.0625 0.09113148,1.4700747 0.09113148,1.4700747 0,0 Z"
         fill="#3b83c5"
         transform="translate(258,162)"
         id="path135" /><path
         d="M 0,0 C 0,0.66 0,1.32 0,2 0.66,2.33 1.32,2.66 2,3 0.35,4.32 -1.3,5.64 -3,7 -3.66,6.67 -4.32,6.34 -5,6 -4.625,3.5625 -4.625,3.5625 -4,1 -2,0 -2,0 0,0 Z"
         fill="#81afda"
         transform="translate(59,160)"
         id="path136" /><path
         d="M 0,0 C 0.99,0.99 1.98,1.98 3,3 3,2.34 3,1.68 3,1 3.66,1.33 4.32,1.66 5,2 3.35,4.31 1.7,6.62 0,9 -1.125,7.3125 -1.125,7.3125 -2,5 -1.125,2.25 -1.125,2.25 0,0 Z"
         fill="#97bde0"
         transform="translate(191,150)"
         id="path137" /><path
         d="M 0,0 C 0.99,0.33 1.98,0.66 3,1 3.907655,5.6290403 4.4529788,8.829936 2,13 1.01,13.33 0.02,13.66 -1,14 -0.67,13.319375 -0.34,12.63875 0,11.9375 1.1833167,8.4615071 1.2066244,5.6503645 1,2 0.67,1.34 0.34,0.68 0,0 Z"
         fill="#5b97cf"
         transform="translate(177,148)"
         id="path138" /><path
         d="M 0,0 C 0.66,0.66 1.32,1.32 2,2 -0.48952921,4.6673527 -2.6340813,6.5574634 -6,8 -6.33,7.34 -6.66,6.68 -7,6 -4.7425938,3.6647522 -2.7194239,1.8129493 0,0 Z"
         fill="#5291cc"
         transform="translate(171,147)"
         id="path139" /><path
         d="M 0,0 C 0.99,0 1.98,0 3,0 3,0.99 3,1.98 3,3 3.66,3 4.32,3 5,3 5,2.34 5,1.68 5,1 5.66,1 6.32,1 7,1 6.34,2.32 5.68,3.64 5,5 2.69,4.67 0.38,4.34 -2,4 -1.34,2.68 -0.68,1.36 0,0 Z"
         fill="#77a9d7"
         transform="translate(172,144)"
         id="path140" /><path
         d="M 0,0 C 0.66,0.99 1.32,1.98 2,3 1.01,4.485 1.01,4.485 0,6 -3.625,6.1875 -3.625,6.1875 -7,6 -4.7425938,3.6647522 -2.7194239,1.8129493 0,0 Z"
         fill="#a2c4e3"
         transform="translate(71,162)"
         id="path141" /><path
         d="M 0,0 C 3.465,1.485 3.465,1.485 7,3 4.1919573,5.964045 1.8168423,8.4449902 -2,10 -0.68,8.35 0.64,6.7 2,5 1.34,3.35 0.68,1.7 0,0 Z"
         fill="#488bc9"
         transform="translate(58,158)"
         id="path142" /><path
         d="m 0,0 c -2.6598561,3.4421667 -5.9028829,3.9950467 -10,5 0,-0.99 0,-1.98 0,-3 3.6441774,-2.4294516 5.7124127,-2.16179575 10,-2 z"
         fill="#f4ab2c"
         transform="translate(143,157)"
         id="path143" /><path
         d="M 0,0 C 1.65,0.33 3.3,0.66 5,1 4.67,1.66 4.34,2.32 4,3 3.34,3 2.68,3 2,3 2,4.98 2,6.96 2,9 1.01,9.33 0.02,9.66 -1,10 -0.67,6.7 -0.34,3.4 0,0 Z"
         fill="#639cd1"
         transform="translate(66,153)"
         id="path144" /><path
         d="M 0,0 C 3,0 6,0 9,0 9,0.66 9,1.32 9,2 8.34,2 7.68,2 7,2 6.67,2.66 6.34,3.32 6,4 2.9375,4.625 2.9375,4.625 0,5 0,3.3333333 0,1.6666667 0,0 Z"
         fill="#f3a61e"
         transform="translate(140,151)"
         id="path145" /><path
         d="M 0,0 C 1.6754298,0.28604898 3.3438534,0.61781233 5,1 5.33,1.99 5.66,2.98 6,4 4.02,4.66 2.04,5.32 0,6 -0.38218767,4.3438534 -0.71395102,2.6754298 -1,1 -0.67,0.67 -0.34,0.34 0,0 Z"
         fill="#7babd8"
         transform="translate(36,141)"
         id="path146" /><path
         d="M 0,0 C 0.33,0.66 0.66,1.32 1,2 2.65,2 4.3,2 6,2 6.33,1.34 6.66,0.68 7,0 7.66,0 8.32,0 9,0 8.67,1.32 8.34,2.64 8,4 5.125,4.625 5.125,4.625 2,5 1.34,4.34 0.68,3.68 0,3 0,2.01 0,1.02 0,0 Z"
         fill="#dee9f5"
         transform="translate(94,156)"
         id="path147" /><path
         d="M 0,0 C 0.268125,0.639375 0.53625,1.27875 0.8125,1.9375 1.8866775,4.3313169 1.8866775,4.3313169 5,5 5.33,6.65 5.66,8.3 6,10 5.2575,9.21625 4.515,8.4325 3.75,7.625 1.4556668,5.4349547 -0.12158858,4.1726861 -3,3 -2.01,2.01 -1.02,1.02 0,0 Z"
         fill="#468ac9"
         transform="translate(62,144)"
         id="path148" /><path
         d="M 0,0 C -1.299375,0.5878125 -1.299375,0.5878125 -2.625,1.1875 -6.258715,3.1389396 -8.9170088,5.2840316 -12,8 -11.660322,4.8296696 -11.001308,4.0011739 -8.5625,1.8125 -5.0622547,-0.66328325 -4.0585081,-1.2175524 0,0 Z"
         fill="#478bc9"
         transform="translate(61,142)"
         id="path149" /><path
         d="M 0,0 C 0.99,0.33 1.98,0.66 3,1 1.35,2.65 -0.3,4.3 -2,6 -3.32,5.34 -4.64,4.68 -6,4 -6,3.01 -6,2.02 -6,1 -4.7934375,1.030938 -4.7934375,1.030938 -3.5625,1.0625 -1.0664511,1.2963362 -1.0664511,1.2963362 0,0 Z"
         fill="#8db7dd"
         transform="translate(36,161)"
         id="path150" /><path
         d="M 0,0 C 0,3 0,3 -1.875,5.1875 -4,7 -4,7 -6,7 -6.33,6.01 -6.66,5.02 -7,4 -2.25,0 -2.25,0 0,0 Z"
         fill="#92badf"
         transform="translate(57,155)"
         id="path151" /><path
         d="M 0,0 C 0.99,0 1.98,0 3,0 3,0.99 3,1.98 3,3 2.34,3 1.68,3 1,3 1,3.66 1,4.32 1,5 -1.31,5 -3.62,5 -6,5 -2.25,2 -2.25,2 0,2 0,1.34 0,0.68 0,0 Z"
         fill="#4e8fcb"
         transform="translate(214,151)"
         id="path152" /><path
         d="M 0,0 C 0.66,0.33 1.32,0.66 2,1 1.67,2.65 1.34,4.3 1,6 1.66,6 2.32,6 3,6 3,6.66 3,7.32 3,8 1.125,7.75 1.125,7.75 -1,7 -2.25,4.9375 -2.25,4.9375 -3,3 -2.01,2.01 -1.02,1.02 0,0 Z"
         fill="#fdf1de"
         transform="translate(137,150)"
         id="path153" /><path
         d="M 0,0 C 2.6875,-0.3125 2.6875,-0.3125 5,0 3.515,2.475 3.515,2.475 2,5 1.01,4.67 0.02,4.34 -1,4 -1,4.66 -1,5.32 -1,6 -1.66,5.67 -2.32,5.34 -3,5 -1.8125,2.5 -1.8125,2.5 0,0 Z"
         fill="#74a7d6"
         transform="translate(24,152)"
         id="path154" /><path
         d="M 0,0 C 1.98,0 3.96,0 6,0 5.01,0.495 5.01,0.495 4,1 4,1.99 4,2.98 4,4 0.7,3.67 -2.6,3.34 -6,3 -6,2.67 -6,2.34 -6,2 -4.02,2 -2.04,2 0,2 0,1.34 0,0.68 0,0 Z"
         fill="#caddef"
         transform="translate(244,147)"
         id="path155" /><path
         d="M 0,0 C 0.99,0.33 1.98,0.66 3,1 3,1.99 3,2.98 3,4 3.66,4.33 4.32,4.66 5,5 5,5.99 5,6.98 5,8 4.01,7.67 3.02,7.34 2,7 2,6.01 2,5.02 2,4 1.01,3.67 0.02,3.34 -1,3 -0.67,2.01 -0.34,1.02 0,0 Z"
         fill="#488bc9"
         transform="translate(229,140)"
         id="path156" /><path
         d="m 0,0 c 4.62,0 9.24,0 14,0 0.33,1.65 0.66,3.3 1,5 C 14.01,5.495 14.01,5.495 13,6 12.67,4.35 12.34,2.7 12,1 8.04,1 4.08,1 0,1 0,0.67 0,0.34 0,0 Z"
         fill="#9ab8e4"
         transform="translate(219,138)"
         id="path157" /><path
         d="M 0,0 C 0.99,0.33 1.98,0.66 3,1 0.525,5.455 0.525,5.455 -2,10 -2.33,10 -2.66,10 -3,10 -3.3692308,4.5846154 -3.3692308,4.5846154 -1.5,1.625 -1.005,1.08875 -0.51,0.5525 0,0 Z"
         fill="#96bde0"
         transform="translate(89,131)"
         id="path158" /><path
         d="M 0,0 C 2.31,0 4.62,0 7,0 6.34,1.65 5.68,3.3 5,5 3.0625,4.1875 3.0625,4.1875 1,3 0.67,2.01 0.34,1.02 0,0 Z"
         fill="#8bb5dd"
         transform="translate(94,162)"
         id="path159" /><path
         d="M 0,0 C 1.65,0 3.3,0 5,0 5.33,0.66 5.66,1.32 6,2 6.66,2.66 7.32,3.32 8,4 7.01,4.66 6.02,5.32 5,6 4.01,5.34 3.02,4.68 2,4 2,3.01 2,2.02 2,1 1.34,0.67 0.68,0.34 0,0 Z"
         fill="#f6bf5e"
         transform="translate(128,154)"
         id="path160" /><path
         d="M 0,0 C 0.87656469,2.4543811 1.1593024,3.595617 0.1875,6.0625 -0.83619809,7.7327442 -1.9133434,9.370015 -3,11 -3.3692308,3.4923077 -3.3692308,3.4923077 -1.5,1 -1.005,0.67 -0.51,0.34 0,0 Z"
         fill="#a4c5e4"
         transform="translate(164,147)"
         id="path161" /><path
         d="M 0,0 C 0.99,0.33 1.98,0.66 3,1 -0.625,5.875 -0.625,5.875 -4,7 -3.4362859,3.730458 -2.5003773,2.1742412 0,0 Z"
         fill="#8bb6dd"
         transform="translate(228,144)"
         id="path162" /><path
         d="M 0,0 C 0.99,0 1.98,0 3,0 1.5574634,3.3659187 -0.33264727,5.5104708 -3,8 -2.4527632,4.6253728 -1.9451,2.91765 0,0 Z"
         fill="#94bbdf"
         transform="translate(24,131)"
         id="path163" /><path
         d="m 0,0 c 0.33,0 0.66,0 1,0 0,2.64 0,5.28 0,8 -2.9566452,1.4783226 -5.7422974,1.0603278 -9,1 0,-0.33 0,-0.66 0,-1 1.98,0 3.96,0 6,0 0.66,-2.64 1.32,-5.28 2,-8 z"
         fill="#e0e9f6"
         transform="translate(240,163)"
         id="path164" /><path
         d="M 0,0 C 2.97,0.495 2.97,0.495 6,1 5.01,2.485 5.01,2.485 4,4 1.69,3.67 -0.62,3.34 -3,3 -2.01,2.67 -1.02,2.34 0,2 0,1.34 0,0.68 0,0 Z"
         fill="#8eb7de"
         transform="translate(198,164)"
         id="path165" /><path
         d="M 0,0 C 0.99,0.33 1.98,0.66 3,1 2.34,2.65 1.68,4.3 1,6 -0.32,5.34 -1.64,4.68 -3,4 -3,3.34 -3,2.68 -3,2 -2.01,1.34 -1.02,0.68 0,0 Z"
         fill="#7cacd8"
         transform="translate(269,151)"
         id="path166" /><path
         d="M 0,0 C 1.98,0 3.96,0 6,0 7,3 7,3 6.0625,5.1875 5.5365625,6.0846875 5.5365625,6.0846875 5,7 5,5.35 5,3.7 5,2 3.68,2 2.36,2 1,2 0.67,2.66 0.34,3.32 0,4 0,2.68 0,1.36 0,0 Z"
         fill="#d6e2f3"
         transform="translate(172,149)"
         id="path167" /><path
         d="M 0,0 C 1.65,0.33 3.3,0.66 5,1 4.8125,2.875 4.8125,2.875 4,5 1.4375,6.25 1.4375,6.25 -1,7 -0.67,4.69 -0.34,2.38 0,0 Z"
         fill="#a2c4e4"
         transform="translate(68,156)"
         id="path168" /><path
         d="M 0,0 C 0.33,0.99 0.66,1.98 1,3 1.66,3.33 2.32,3.66 3,4 2.34,4.66 1.68,5.32 1,6 0.01,6 -0.98,6 -2,6 -2.33,4.68 -2.66,3.36 -3,2 -2.01,1.34 -1.02,0.68 0,0 Z"
         fill="#72a5d5"
         transform="translate(66,142)"
         id="path169" /><path
         d="M 0,0 C 0.33,1.32 0.66,2.64 1,4 -1.97,4 -4.94,4 -8,4 -5.6095211,1.6095211 -3.4585452,0 0,0 Z"
         fill="#4e8fcb"
         transform="translate(24,165)"
         id="path170" /><path
         d="M 0,0 C 2.31,0 4.62,0 7,0 8.3333209,2.6666419 7.6710203,4.166803 7,7 6.67,7 6.34,7 6,7 6,5.35 6,3.7 6,2 4.02,2 2.04,2 0,2 0,1.34 0,0.68 0,0 Z"
         fill="#fae5c1"
         transform="translate(143,162)"
         id="path171" /><path
         d="M 0,0 C 0.66,0.66 1.32,1.32 2,2 1.319375,2.5878125 1.319375,2.5878125 0.625,3.1875 -1.2764292,5.3083249 -2.0620403,7.3304223 -3,10 -3.9992833,7.301935 -4.0362475,6.1198957 -3.1875,3.3125 -2,1 -2,1 0,0 Z"
         fill="#96bce0"
         transform="translate(187,150)"
         id="path172" /><path
         d="M 0,0 C 0.66,1.32 1.32,2.64 2,4 -0.75,7.875 -0.75,7.875 -3,9 -3.33,8.01 -3.66,7.02 -4,6 -2.625,3.9375 -2.625,3.9375 -1,2 -0.67,1.34 -0.34,0.68 0,0 Z"
         fill="#f3a620"
         transform="translate(127,144)"
         id="path173" /><path
         d="M 0,0 C 2.31,0 4.62,0 7,0 7,0.66 7,1.32 7,2 5,3.625 5,3.625 3,5 1.5,3.625 1.5,3.625 0,2 0,1.34 0,0.68 0,0 Z"
         fill="#90b8de"
         transform="translate(170,162)"
         id="path174" /><path
         d="M 0,0 C 1.98,0 3.96,0 6,0 6,0.99 6,1.98 6,3 4.68,2.67 3.36,2.34 2,2 2,2.66 2,3.32 2,4 1.34,4 0.68,4 0,4 0,2.68 0,1.36 0,0 Z"
         fill="#4d8ecb"
         transform="translate(263,159)"
         id="path175" /><path
         d="M 0,0 C 0.66,0.33 1.32,0.66 2,1 1.67,3.64 1.34,6.28 1,9 0.67,8.34 0.34,7.68 0,7 -0.66,7 -1.32,7 -2,7 -2,3 -2,3 0,0 Z"
         fill="#4b8dca"
         transform="translate(57,148)"
         id="path176" /><path
         d="M 0,0 C 0.66,0 1.32,0 2,0 1.67,1.32 1.34,2.64 1,4 0.34,4 -0.32,4 -1,4 -0.67,4.99 -0.34,5.98 0,7 -0.99,7.495 -0.99,7.495 -2,8 -2.66,6.35 -3.32,4.7 -4,3 -3.01,2.67 -2.02,2.34 -1,2 -0.67,1.34 -0.34,0.68 0,0 Z"
         fill="#93bbdf"
         transform="translate(182,144)"
         id="path177" /><path
         d="M 0,0 C 0,3 0,3 -2,5.1875 -2.66,5.785625 -3.32,6.38375 -4,7 -4.66,6.67 -5.32,6.34 -6,6 -3.375,1.125 -3.375,1.125 0,0 Z"
         fill="#99bee1"
         transform="translate(198,143)"
         id="path178" /><path
         d="M 0,0 C 0.928125,0.2784375 0.928125,0.2784375 1.875,0.5625 4.0416018,1.2368618 4.0416018,1.2368618 6,0 4.8482664,2.4680005 3.9521644,4.0478356 2,6 1.34,5.67 0.68,5.34 0,5 0,3.3333333 0,1.6666667 0,0 Z"
         fill="#4c8eca"
         transform="translate(167,142)"
         id="path179" /><path
         d="M 0,0 C 1.32,0 2.64,0 4,0 3.67,1.65 3.34,3.3 3,5 2.01,4.67 1.02,4.34 0,4 0,2.68 0,1.36 0,0 Z"
         fill="#f7f2e9"
         transform="translate(128,144)"
         id="path180" /><path
         d="M 0,0 C 2.31,0 4.62,0 7,0 2.25,4.875 2.25,4.875 0,6 0,4.02 0,2.04 0,0 Z"
         fill="#8bb5dd"
         transform="translate(60,140)"
         id="path181" /><path
         d="m 0,0 c 0.66,1.32 1.32,2.64 2,4 -3.63,0 -7.26,0 -11,0 0,-0.33 0,-0.66 0,-1 2.64,0 5.28,0 8,0 0.33,-0.99 0.66,-1.98 1,-3 z"
         fill="#a2c4e3"
         transform="translate(91,166)"
         id="path182" /><path
         d="m 0,0 c 0.94875,0.04125 1.8975,0.0825 2.875,0.125 -0.33,0.99 -0.66,1.98 -1,3 -2.31,-0.33 -4.62,-0.66 -7,-1 2,-2 2,-2 5.125,-2.125 z"
         fill="#f7c879"
         transform="translate(145.125,164.875)"
         id="path183" /><path
         d="M 0,0 C 2.475,0.99 2.475,0.99 5,2 5,2.66 5,3.32 5,4 3.35,4.33 1.7,4.66 0,5 0,3.35 0,1.7 0,0 Z"
         fill="#70a4d5"
         transform="translate(185,155)"
         id="path184" /><path
         d="M 0,0 C 0.66,0 1.32,0 2,0 1.75,2.375 1.75,2.375 1,5 -1.0625,6.3125 -1.0625,6.3125 -3,7 -2.01,4.69 -1.02,2.38 0,0 Z"
         fill="#77a9d7"
         transform="translate(163,154)"
         id="path185" /><path
         d="M 0,0 C 0.66,0.33 1.32,0.66 2,1 2,2.98 2,4.96 2,7 1.01,7.495 1.01,7.495 0,8 -0.66,5.69 -1.32,3.38 -2,1 -1.34,0.67 -0.68,0.34 0,0 Z"
         fill="#90b9de"
         transform="translate(40,155)"
         id="path186" /><path
         d="M 0,0 C 0.66,0.33 1.32,0.66 2,1 2.625,3.5625 2.625,3.5625 3,6 1.35,5.67 -0.3,5.34 -2,5 -1.34,3.35 -0.68,1.7 0,0 Z"
         fill="#f4ad31"
         transform="translate(127,151)"
         id="path187" /><path
         d="m 0,0 c 0.8353125,0.37125 0.8353125,0.37125 1.6875,0.75 -2.8125,2.0625 -2.8125,2.0625 -6,4 -0.99,-0.33 -1.98,-0.66 -3,-1 C -2.8817308,-0.31153846 -2.8817308,-0.31153846 0,0 Z"
         fill="#8eb7de"
         transform="translate(227.3125,142.25)"
         id="path188" /><path
         d="M 0,0 C 0,0.66 0,1.32 0,2 -0.66,2 -1.32,2 -2,2 -2.66,3.32 -3.32,4.64 -4,6 -4.99,5.67 -5.98,5.34 -7,5 -6.34,5 -5.68,5 -5,5 -4.87625,4.360625 -4.7525,3.72125 -4.625,3.0625 -4.41875,2.381875 -4.2125,1.70125 -4,1 -2,0 -2,0 0,0 Z"
         fill="#73a6d6"
         transform="translate(87,131)"
         id="path189" /></g></g></svg>
