<?xml version="1.0" encoding="UTF-8" standalone="no"?>
<svg
   viewBox="0 0 24 24"
   width="24pt"
   height="24pt"
   version="1.1"
   id="svg1"
   sodipodi:docname="bobs.svg"
   xml:space="preserve"
   inkscape:version="1.4 (86a8ad7, 2024-10-11)"
   xmlns:inkscape="http://www.inkscape.org/namespaces/inkscape"
   xmlns:sodipodi="http://sodipodi.sourceforge.net/DTD/sodipodi-0.dtd"
   xmlns="http://www.w3.org/2000/svg"
   xmlns:svg="http://www.w3.org/2000/svg"><defs
     id="defs1" /><sodipodi:namedview
     id="namedview1"
     pagecolor="#ffffff"
     bordercolor="#000000"
     borderopacity="0.25"
     inkscape:showpageshadow="2"
     inkscape:pageopacity="0.0"
     inkscape:pagecheckerboard="0"
     inkscape:deskcolor="#d1d1d1"
     inkscape:document-units="pt"
     inkscape:lockguides="true"
     inkscape:zoom="16.241359"
     inkscape:cx="8.2197556"
     inkscape:cy="16.778153"
     inkscape:window-width="1920"
     inkscape:window-height="974"
     inkscape:window-x="-11"
     inkscape:window-y="1609"
     inkscape:window-maximized="1"
     inkscape:current-layer="svg1" /><g
     id="g1"
     transform="matrix(0.05365443,0,0,0.05365443,4.1697261,5.1604044)"><path
       d="m 0,0 c 5.706784,-0.02503482 11.413535,-0.04301561 17.120361,-0.05493164 1.934576,-0.0049765 3.869149,-0.01176011 5.803711,-0.02050781 C 65.71973,-0.26386892 65.71973,-0.26386892 75.679687,6.9375 77.621573,8.8722724 79.318548,10.8394 81,13 c 0.53625,0.514336 1.0725,1.028672 1.625,1.558594 4.091916,4.289536 3.749445,11.329349 3.621094,16.871093 C 85.613182,38.040101 80.962493,42.9475 77,48 c 0.70125,0.2475 1.4025,0.495 2.125,0.75 3.245025,1.41088 5.978167,3.228954 8.875,5.25 0.260391,-0.564609 0.520781,-1.129219 0.789062,-1.710938 C 90.117504,49.777879 91.647947,47.629973 93.375,45.375 93.960234,44.598984 94.545469,43.822969 95.148437,43.023437 97.04308,40.952921 98.530515,40.229823 101,39 c 0.70576,-1.013203 0.70576,-1.013203 1.42578,-2.046875 2.07069,-2.569093 3.54973,-2.702555 6.76172,-3.203125 0.90105,-0.149531 1.80211,-0.299062 2.73047,-0.453125 C 112.94857,33.149922 112.94857,33.149922 114,33 c 0,-0.66 0,-1.32 0,-2 1.65,0 3.3,0 5,0 0,-0.66 0,-1.32 0,-2 3.47887,-0.117667 6.95723,-0.187733 10.4375,-0.25 0.97389,-0.03352 1.94777,-0.06703 2.95117,-0.101563 C 139.26792,28.556407 143.93697,29.863094 150,33 c 1.98928,0.697994 3.98504,1.380013 6,2 0,0.66 0,1.32 0,2 0.5775,0.268125 1.155,0.53625 1.75,0.8125 C 160,39 160,39 164,42 c 0.33,-13.2 0.66,-26.4 1,-40 5.75437,-0.020625 11.50875,-0.04125 17.4375,-0.0625 1.81814,-0.0091 3.63628,-0.018208 5.50952,-0.027588 1.43302,-0.00292 2.86605,-0.00547 4.29907,-0.00757 0.7506,-0.00512 1.5012,-0.010232 2.27454,-0.015503 C 196.34748,1.8865301 198.17422,1.9376889 200,2 c 1,1 1,1 1.11353,3.5002441 -0.005,1.084021 -0.0105,2.168042 -0.0159,3.2849122 -0.003,1.1698242 -0.006,2.3396487 -0.01,3.5449217 -0.008,1.231699 -0.0168,2.463399 -0.0254,3.732422 -0.005,1.235566 -0.009,2.471133 -0.0137,3.744141 -0.0118,3.0645 -0.0283,6.128906 -0.0488,9.193359 0.99,-0.33 1.98,-0.66 3,-1 1.36094,-0.09127 2.72585,-0.130655 4.08984,-0.132813 0.7844,-0.0013 1.56879,-0.0026 2.37696,-0.0039 1.22299,0.0058 1.22299,0.0058 2.4707,0.01172 0.81146,-0.0039 1.62293,-0.0077 2.45898,-0.01172 0.78569,0.0013 1.57137,0.0026 2.38086,0.0039 1.07109,0.0017 1.07109,0.0017 2.16382,0.0034 2.12668,0.133659 4.01239,0.549792 6.05884,1.129395 0.0748,-0.736055 0.14953,-1.472109 0.22656,-2.230469 C 227.43478,17.802662 227.43478,17.802662 230.875,14.875 235.25,12.25 235.25,12.25 238,12 c 1.05187,-0.144375 2.10375,-0.28875 3.1875,-0.4375 5.19651,0.596321 8.99917,2.86966 12.8125,6.4375 0.75781,2.203125 0.75781,2.203125 1,4 0.66,0 1.32,0 2,0 0,3.3 0,6.6 0,10 2.95901,-0.475236 5.91717,-0.955001 8.875,-1.4375 0.84176,-0.134707 1.68352,-0.269414 2.55078,-0.408203 1.2085,-0.198193 1.2085,-0.198193 2.44141,-0.400391 0.74363,-0.120447 1.48725,-0.240893 2.25342,-0.36499 C 275.07885,29.067529 275.07885,29.067529 277,28 c 1.44849,-0.08342 2.90071,-0.107329 4.35156,-0.09766 1.27617,0.0048 1.27617,0.0048 2.57813,0.0098 0.88945,0.0084 1.7789,0.01676 2.69531,0.02539 0.89719,0.0045 1.79437,0.009 2.71875,0.01367 2.21882,0.0118 4.4375,0.02827 6.65625,0.04883 0.95377,3.207821 1.11621,6.081874 1.09766,9.421875 -0.003,1.024805 -0.006,2.049609 -0.01,3.105469 -0.008,1.063476 -0.0168,2.126953 -0.0254,3.222656 -0.005,1.078945 -0.009,2.157891 -0.0137,3.269531 -0.0118,2.66018 -0.0297,5.320332 -0.0488,7.980469 -4.95,0 -9.9,0 -15,0 0,0.66 0,1.32 0,2 0.70125,0.2475 1.4025,0.495 2.125,0.75 6.73126,2.926636 12.54633,7.59267 15.875,14.25 0.0967,1.977241 0.1298,3.957901 0.125,5.9375 0.003,1.060898 0.005,2.121797 0.008,3.214844 C 300,84 300,84 299,87 c -0.63937,0.474375 -1.27875,0.94875 -1.9375,1.4375 -2.17483,1.376247 -2.17483,1.376247 -2.875,3.5 -1.93228,3.356062 -4.74121,4.369587 -8.1875,6.0625 -0.99,0 -1.98,0 -3,0 -0.24839,0.63011 -0.49677,1.26022 -0.75269,1.909424 -1.53275,2.568996 -2.35739,2.811216 -5.20434,3.539796 -0.78311,0.20818 -1.56621,0.41637 -2.37305,0.63086 -0.8192,0.20045 -1.6384,0.4009 -2.48242,0.60742 -0.8076,0.21205 -1.6152,0.4241 -2.44727,0.64258 -2.24136,0.58191 -4.4882,1.13104 -6.74023,1.66992 -0.83273,0.21141 -1.66547,0.42281 -2.52344,0.64063 -3.7615,0.54583 -7.4944,0.46322 -11.28906,0.42187 -1.18239,-0.007 -1.18239,-0.007 -2.38867,-0.0137 C 244.86585,108.0371 242.93292,108.0192 241,108 c -1.33354,-9.001416 -1.06729,-17.91565 -1,-27 5.94,0 11.88,0 18,0 0,-0.66 0,-1.32 0,-2 -0.54141,-0.244922 -1.08281,-0.489844 -1.64063,-0.742188 -2.90998,-1.55135 -5.45679,-3.424955 -8.10937,-5.382812 -0.98484,-0.724453 -1.96969,-1.448906 -2.98438,-2.195313 C 244.51797,70.125391 243.77031,69.571094 243,69 c -0.25652,0.714141 -0.51305,1.428281 -0.77734,2.164062 C 238.5043,79.788745 232.01328,87.12886 224,92 c -0.66,0 -1.32,0 -2,0 0,0.66 0,1.32 0,2 -0.92813,0.402187 -0.92813,0.402187 -1.875,0.8125 -2.42452,1.143068 -2.42452,1.143068 -4.125,4.1875 -2.38281,0.730469 -2.38281,0.730469 -5.125,1.1875 -0.91008,0.15855 -1.82016,0.31711 -2.75781,0.48047 -1.04801,0.16435 -1.04801,0.16435 -2.11719,0.33203 0,0.66 0,1.32 0,2 -2.64,0.33 -5.28,0.66 -8,1 0,0.66 0,1.32 0,2 -4.35582,1.07404 -8.60365,1.14952 -13.0625,1.125 -0.70705,0.004 -1.4141,0.008 -2.14258,0.0117 -3.40387,-0.006 -6.54216,-0.0722 -9.79492,-1.13672 0,-0.66 0,-1.32 0,-2 -0.61875,-0.2475 -1.2375,-0.495 -1.875,-0.75 -2.6444,-1.55553 -3.2017,-2.32621 -4.125,-5.25 -0.15467,-2.691279 -0.09,-5.299379 0,-8 -3.04193,1.126642 -4.17012,2.216542 -6.21875,4.824219 -2.69878,3.309946 -5.85675,5.359421 -9.59375,7.363281 -0.93791,0.51144 -0.93791,0.51144 -1.89478,1.0332 -1.75521,0.94342 -3.52354,1.86232 -5.29272,2.7793 -0.71414,0.38801 -1.42828,0.77602 -2.16406,1.17578 C 133.6472,110.98156 122.61475,109.60461 114,108 107.97799,105.73084 103.32007,102.80008 99,98 97.970344,97.131393 96.928158,96.277458 95.875,95.4375 93.446174,93.378278 91.627865,91.713108 90,89 c 0,-0.99 0,-1.98 0,-3 -3.933356,0.520392 -5.83004,1.398696 -8.625,4.1875 C 74.331934,96.64696 66.070483,100.31125 57,103 c -1.54324,0.51615 -3.084918,1.037 -4.625,1.5625 -1.453738,0.49293 -2.912739,0.97046 -4.375,1.4375 -1.017634,0.34136 -2.035269,0.68272 -3.08374,1.03442 -4.318405,1.22282 -8.45102,1.21881 -12.912354,1.16089 -1.250317,-0.004 -1.250317,-0.004 -2.525894,-0.009 -2.638656,-0.0111 -5.27696,-0.0362 -7.915512,-0.0617 -1.798823,-0.01 -3.597652,-0.0192 -5.396484,-0.0273 C 11.77721,108.07571 7.3886645,108.04124 3,108 2.9919131,107.42928 2.9838263,106.85856 2.9754944,106.27054 2.5918229,79.623317 2.1116753,53.004527 0.66064453,26.391113 0.18393805,17.578214 -0.13267968,8.8295867 0,0 Z"
       fill="#3c4b8f"
       transform="translate(3,28)"
       id="path2" /><path
       d="M 0,0 C 0.7423288,-7.251e-4 1.4846576,-0.0014502 2.2494812,-0.00219727 13.403419,-9.8818e-4 24.338243,0.44893915 35.375,2.1875 c 0,0.66 0,1.32 0,2 2.64,0.33 5.28,0.66 8,1 0,0.66 0,1.32 0,2 1.082813,0.37125 1.082813,0.37125 2.1875,0.75 4.667361,2.074382 7.852999,4.494945 9.8125,9.25 1.286432,7.957925 -1.533886,13.420157 -5.9375,19.8125 -2.16476,2.295957 -4.353982,3.607531 -7.0625,5.1875 0,0.66 0,1.32 0,2 0.640664,0.279727 1.281328,0.559453 1.941406,0.847656 5.973673,2.768722 11.109923,5.754619 15.058594,11.152344 2.019145,5.72091 2.20759,12.897497 0.01172,18.539062 -3.934835,6.450913 -10.36059,12.322414 -17.820313,14.148438 -0.723164,0.103125 -1.446328,0.20625 -2.191406,0.3125 0,0.66 0,1.32 0,2 -3.600156,0.99432 -7.205709,1.967551 -10.8125,2.9375 -1.004824,0.277793 -2.009648,0.555586 -3.044922,0.841797 C 11.539091,98.69739 -2.2583889,98.311071 -16.625,98.1875 c -0.395305,-9.989288 -0.786733,-19.97872 -1.173454,-29.968344 -0.179762,-4.640509 -0.360769,-9.280962 -0.544808,-13.921304 -0.178156,-4.493278 -0.352801,-8.986681 -0.525192,-13.480183 -0.06576,-1.698898 -0.132705,-3.397751 -0.200958,-5.09655 C -19.531112,24.203425 -19.706373,12.714344 -19.625,1.1875 -13.263418,-0.54738376 -6.5538948,-0.00641918 0,0 Z"
       fill="#eb1e26"
       transform="translate(30.625,30.8125)"
       id="path3" /><path
       d="m 0,0 c 7.92,0 15.84,0 24,0 0.33,10.89 0.66,21.78 1,33 1.65,-1.65 3.3,-3.3 5,-5 5.188607,-3.523128 12.029712,-2.511 18,-2 7.217842,1.667192 13.861787,5.662813 19,11 2.859064,6.836892 2.089527,17.65464 -0.164063,24.574219 C 62.799542,69.822955 57.799444,75.872114 50.3125,81.0625 49.696731,81.494416 49.080962,81.926333 48.446533,82.371338 36.194402,90.813112 23.080624,95.993685 8,95 4.2502904,93.750097 3.2345664,92.202878 1,89 -0.27233017,84.959277 -0.13285658,80.939413 -0.11352539,76.743164 c -1.4603e-4,-0.829638 -2.9205e-4,-1.659275 -4.4251e-4,-2.514053 6.9578e-4,-2.737856 0.008473,-5.475643 0.01631165,-8.213486 0.0018654,-1.900004 0.0032887,-3.800008 0.0042877,-5.700012 0.0038158,-4.997694 0.01363812,-9.995359 0.02470398,-14.993042 0.01023424,-5.101009 0.01479796,-10.202023 0.01983643,-15.30304 C -0.03810732,20.013006 -0.02051808,10.00651 0,0 Z"
       fill="#e82029"
       transform="translate(176,34)"
       id="path4" /><path
       d="M 0,0 C 6.8510456,5.8956704 10.525494,11.701427 11.253906,20.890625 11.516899,28.729505 10.752326,34.779012 7,41.6875 6.5758984,42.480273 6.1517969,43.273047 5.7148437,44.089844 2.1749011,50.016043 -2.0381818,53.328577 -8,56.6875 c -0.99,0.598125 -1.98,1.19625 -3,1.8125 -6.718813,2.65953 -14.054079,2.320335 -21.1875,2.4375 -0.772471,0.02151 -1.544941,0.04302 -2.34082,0.06519 -4.952637,0.0283 -8.105342,-0.74791 -12.47168,-3.315186 -2.23525,-0.686366 -2.23525,-0.686366 -4,-1 0,-0.66 0,-1.32 0,-2 -0.598125,-0.265547 -1.19625,-0.531094 -1.8125,-0.804688 -5.134216,-2.805482 -9.07821,-8.527299 -11.492187,-13.78125 C -67.065739,30.515441 -65.254649,19.548515 -61,10.6875 c 4.842838,-6.8093791 10.455183,-13.1203581 18.875,-14.75 1.546875,-0.12375 1.546875,-0.12375 3.125,-0.25 0,-0.66 0,-1.32 0,-2 C -25.36318,-8.451609 -11.577753,-8.5107984 0,0 Z"
       fill="#e81f29"
       transform="translate(161,68.3125)"
       id="path5" /><path
       d="m 0,0 c 5.706784,-0.02503482 11.413535,-0.04301561 17.120361,-0.05493164 1.934576,-0.0049765 3.869149,-0.01176011 5.803711,-0.02050781 C 65.71973,-0.26386892 65.71973,-0.26386892 75.679687,6.9375 77.621573,8.8722724 79.318548,10.8394 81,13 c 0.53625,0.514336 1.0725,1.028672 1.625,1.558594 4.091916,4.289536 3.749445,11.329349 3.621094,16.871093 C 85.613182,38.040101 80.962493,42.9475 77,48 c 0.70125,0.2475 1.4025,0.495 2.125,0.75 3.245025,1.41088 5.978167,3.228954 8.875,5.25 0.260391,-0.564609 0.520781,-1.129219 0.789062,-1.710938 C 90.117504,49.777879 91.647947,47.629973 93.375,45.375 93.960234,44.598984 94.545469,43.822969 95.148437,43.023437 97.04308,40.952921 98.530515,40.229823 101,39 c 0.70576,-1.013203 0.70576,-1.013203 1.42578,-2.046875 2.07069,-2.569093 3.54973,-2.702555 6.76172,-3.203125 0.90105,-0.149531 1.80211,-0.299062 2.73047,-0.453125 C 112.94857,33.149922 112.94857,33.149922 114,33 c 0,-0.66 0,-1.32 0,-2 1.65,0 3.3,0 5,0 0,-0.66 0,-1.32 0,-2 3.47887,-0.117667 6.95723,-0.187733 10.4375,-0.25 0.97389,-0.03352 1.94777,-0.06703 2.95117,-0.101563 C 139.26792,28.556407 143.93697,29.863094 150,33 c 1.98928,0.697994 3.98504,1.380013 6,2 0,0.66 0,1.32 0,2 0.5775,0.268125 1.155,0.53625 1.75,0.8125 C 160,39 160,39 164,42 c 0.33,-13.2 0.66,-26.4 1,-40 5.75437,-0.020625 11.50875,-0.04125 17.4375,-0.0625 1.81814,-0.0091 3.63628,-0.018208 5.50952,-0.027588 1.43302,-0.00292 2.86605,-0.00547 4.29907,-0.00757 0.7506,-0.00512 1.5012,-0.010232 2.27454,-0.015503 C 196.34748,1.8865301 198.17422,1.9376889 200,2 c 1,1 1,1 1.11353,3.5002441 -0.005,1.084021 -0.0105,2.168042 -0.0159,3.2849122 -0.003,1.1698242 -0.006,2.3396487 -0.01,3.5449217 -0.008,1.231699 -0.0168,2.463399 -0.0254,3.732422 -0.005,1.235566 -0.009,2.471133 -0.0137,3.744141 -0.0118,3.0645 -0.0283,6.128906 -0.0488,9.193359 0.99,-0.33 1.98,-0.66 3,-1 1.36094,-0.09127 2.72585,-0.130655 4.08984,-0.132813 0.7844,-0.0013 1.56879,-0.0026 2.37696,-0.0039 1.22299,0.0058 1.22299,0.0058 2.4707,0.01172 0.81146,-0.0039 1.62293,-0.0077 2.45898,-0.01172 0.78569,0.0013 1.57137,0.0026 2.38086,0.0039 1.07109,0.0017 1.07109,0.0017 2.16382,0.0034 2.12668,0.133659 4.01239,0.549792 6.05884,1.129395 0.33,-0.99 0.66,-1.98 1,-3 0,1.65 0,3.3 0,5 -1.19496,-0.08379 -2.38992,-0.167578 -3.62109,-0.253906 C 215.42525,30.224816 207.91849,29.84822 200,31 c -1,-1 -1,-1 -1.11353,-3.408447 0.005,-1.042127 0.0105,-2.084253 0.0159,-3.157959 0.002,-1.012639 0.005,-2.025279 0.008,-3.068604 0.009,-1.296072 0.0182,-2.592143 0.0276,-3.92749 0.0202,-4.104375 0.0408,-8.20875 0.062,-12.4375 -8.58,0 -17.16,0 -26,0 0.10815,11.10944 0.22027,22.218821 0.33934,33.32815 0.0551,5.158662 0.10854,10.317329 0.15797,15.476049 0.0478,4.979677 0.10014,9.959288 0.15563,14.938885 0.0204,1.898545 0.0391,3.797109 0.0561,5.695686 0.0242,2.661916 0.0542,5.323707 0.0856,7.985546 0.006,0.782592 0.0115,1.565184 0.0174,2.371491 0.0557,4.165096 0.3797,8.116542 1.18788,12.204193 0.99,0.33 1.98,0.66 3,1 0,0.66 0,1.32 0,2 10.8451,0.34612 20.95128,-0.573852 31.16016,-4.414063 C 211,95 211,95 214,95 c 0,0.99 0,1.98 0,3 -2.88834,2.10771 -4.38462,3 -8,3 0,0.66 0,1.32 0,2 -2.64,0.33 -5.28,0.66 -8,1 0,0.66 0,1.32 0,2 -4.35582,1.07404 -8.60365,1.14952 -13.0625,1.125 -0.70705,0.004 -1.4141,0.008 -2.14258,0.0117 -3.40387,-0.006 -6.54216,-0.0722 -9.79492,-1.13672 0,-0.66 0,-1.32 0,-2 -0.61875,-0.2475 -1.2375,-0.495 -1.875,-0.75 -2.6444,-1.55553 -3.2017,-2.32621 -4.125,-5.25 -0.15467,-2.691279 -0.09,-5.299379 0,-8 -3.04193,1.126642 -4.17012,2.216542 -6.21875,4.824219 -2.69878,3.309946 -5.85675,5.359421 -9.59375,7.363281 -0.93791,0.51144 -0.93791,0.51144 -1.89478,1.0332 -1.75521,0.94342 -3.52354,1.86232 -5.29272,2.7793 -0.71414,0.38801 -1.42828,0.77602 -2.16406,1.17578 C 133.6472,110.98156 122.61475,109.60461 114,108 107.97799,105.73084 103.32007,102.80008 99,98 97.970344,97.131393 96.928158,96.277458 95.875,95.4375 93.446174,93.378278 91.627865,91.713108 90,89 c 0,-0.99 0,-1.98 0,-3 -3.933356,0.520392 -5.83004,1.398696 -8.625,4.1875 C 74.331934,96.64696 66.070483,100.31125 57,103 c -1.54324,0.51615 -3.084918,1.037 -4.625,1.5625 -1.453738,0.49293 -2.912739,0.97046 -4.375,1.4375 -1.017634,0.34136 -2.035269,0.68272 -3.08374,1.03442 -4.318405,1.22282 -8.45102,1.21881 -12.912354,1.16089 -1.250317,-0.004 -1.250317,-0.004 -2.525894,-0.009 -2.638656,-0.0111 -5.27696,-0.0362 -7.915512,-0.0617 -1.798823,-0.01 -3.597652,-0.0192 -5.396484,-0.0273 C 11.77721,108.07571 7.3886645,108.04124 3,108 2.9919131,107.42928 2.9838263,106.85856 2.9754944,106.27054 2.5918229,79.623317 2.1116753,53.004527 0.66064453,26.391113 0.18393805,17.578214 -0.13267968,8.8295867 0,0 Z m 8,4 c -0.087292,12.365324 0.1598676,24.684299 0.65625,37.039062 0.067563,1.745462 0.1348175,3.490936 0.2017822,5.23642 0.1744997,4.527416 0.3531021,9.054661 0.5326538,13.581879 0.18352,4.646406 0.3630291,9.292966 0.5429078,13.939514 C 10.285208,82.864737 10.64117,91.932421 11,101 c 15.626048,0.1344 30.033008,0.1271 45.1875,-4.0625 1.571045,-0.42249 1.571045,-0.42249 3.173828,-0.853516 C 61.909863,95.397393 64.455859,94.702662 67,94 c 0,-0.66 0,-1.32 0,-2 0.723164,-0.103125 1.446328,-0.20625 2.191406,-0.3125 7.455183,-1.824913 13.895727,-7.695406 17.816406,-14.152344 2.157012,-5.51142 1.885137,-11.516354 0.222657,-17.136719 C 83.812307,53.735734 76.91572,49.354288 70,47 c 0,-0.66 0,-1.32 0,-2 0.70125,-0.37125 1.4025,-0.7425 2.125,-1.125 C 77.164746,40.588209 81.558828,34.908805 83,29 83.560769,24.303556 83.482916,20.984406 81.375,16.6875 78.815722,13.791475 76.359136,11.898642 73,10 72.34,10 71.68,10 71,10 71,9.34 71,8.68 71,8 68.36,7.67 65.72,7.34 63,7 63,6.34 63,5.68 63,5 51.210718,3.1428979 39.534299,2.8008671 27.625,2.8125 26.884685,2.8117749 26.144371,2.8110498 25.381622,2.8103027 16.607005,2.6297684 16.607005,2.6297684 8,4 Z m 111,30 c 0,0.66 0,1.32 0,2 -1.27875,0.144375 -2.5575,0.28875 -3.875,0.4375 -7.65787,1.681585 -12.66494,7.66089 -17.5625,13.4375 C 93.158389,58.683223 91.63428,68.228994 93,78 c 2.491934,6.850678 6.443891,12.327818 12,17 0.66,0 1.32,0 2,0 0,0.66 0,1.32 0,2 0.5543,0.204961 1.10859,0.409922 1.67969,0.621094 0.72445,0.269414 1.4489,0.538828 2.19531,0.816406 0.7193,0.266836 1.43859,0.533672 2.17969,0.808594 C 115,100 115,100 117,101 c 5.2997,0.18443 10.59063,0.12515 15.89209,0.0327 1.62562,-0.0252 3.25166,-0.0246 4.87744,-0.0132 8.09942,-0.31556 15.11329,-5.432933 21.16797,-10.45703 C 167.22463,80.266372 170.13748,71.322545 169,58 167.30406,49.80951 162.17896,43.086891 155.41797,38.355469 143.96661,31.936047 131.6228,32.019953 119,34 Z"
       fill="#1a4a9b"
       transform="translate(3,28)"
       id="path6" /><path
       d="m 0,0 c 0,5.28 0,10.56 0,16 -6.27,0.33 -12.54,0.66 -19,1 0,1.98 0,3.96 0,6 2.256538,1.887064 4.161568,3.211891 6.6875,4.625 1.255454,0.739567 2.5093875,1.48172 3.7617187,2.226562 0.6050538,0.357393 1.2101075,0.714786 1.8334961,1.083008 C -3.0473431,33.211458 -0.39583142,35.406253 2,39 c 0.8193808,5.586687 0.2629823,10.309463 -3,15 -6.6820843,6.726336 -13.307846,11.326943 -22.625,13.25 -0.787456,0.169834 -1.574912,0.339668 -2.38623,0.514648 C -32.373171,69.053898 -38.51143,69.458017 -45,69 c -1.129581,-5.36551 -1.078922,-10.551255 -1,-16 0.565093,-0.05011 1.130186,-0.100225 1.712402,-0.151855 2.555137,-0.231808 5.108776,-0.477303 7.662598,-0.723145 0.889453,-0.07863 1.778906,-0.157266 2.695313,-0.238281 0.850781,-0.08379 1.701562,-0.167578 2.578125,-0.253907 0.785522,-0.07332 1.571044,-0.14663 2.380371,-0.222167 C -26.775798,51.141154 -26.775798,51.141154 -25,49 c 0.166811,-3.083478 0.166811,-3.083478 0,-6 -1.03125,-0.268125 -2.0625,-0.53625 -3.125,-0.8125 C -34.343431,40.382149 -38.629629,37.842844 -43,33 c -0.5775,-0.61875 -1.155,-1.2375 -1.75,-1.875 -2.181646,-3.708797 -2.624954,-7.173231 -1.8125,-11.402344 1.846033,-6.303783 4.744069,-9.7291314 10.125,-13.535156 C -34,5 -34,5 -30,5 c 0,-0.66 0,-1.32 0,-2 9.557383,-4.2253695 19.796941,-3.26745882 30,-3 z"
       fill="#eb2129"
       transform="translate(297,60)"
       id="path7" /><path
       d="m 0,0 c 5.706784,-0.02503482 11.413535,-0.04301561 17.120361,-0.05493164 1.934576,-0.0049765 3.869149,-0.01176011 5.803711,-0.02050781 C 65.71973,-0.26386892 65.71973,-0.26386892 75.679687,6.9375 77.621573,8.8722724 79.318548,10.8394 81,13 c 0.53625,0.514336 1.0725,1.028672 1.625,1.558594 4.091916,4.289536 3.749445,11.329349 3.621094,16.871093 C 85.613182,38.040101 80.962493,42.9475 77,48 c 0.763125,0.2475 1.52625,0.495 2.3125,0.75 2.948309,1.371307 4.045845,2.485108 5.6875,5.25 0,0.66 0,1.32 0,2 0.66,0.33 1.32,0.66 2,1 -3.517678,0 -3.764532,-0.424871 -6.1875,-2.75 C 77.158459,50.955117 73.465641,49.036959 69,47 c 0.33,-0.99 0.66,-1.98 1,-3 0.804375,-0.309375 1.60875,-0.61875 2.4375,-0.9375 2.62317,-0.798549 2.62317,-0.798549 3.625,-2.75 C 76.526562,39.167812 76.526562,39.167812 77,38 77.67446,36.78434 78.363093,35.576481 79.0625,34.375 82.004831,29.24965 82.695732,25.893845 82,20 79.440754,14.574399 76.176682,12.588341 71,10 71,9.34 71,8.68 71,8 68.36,7.67 65.72,7.34 63,7 63,6.34 63,5.68 63,5 61.700625,5.020625 60.40125,5.04125 59.0625,5.0625 55.949206,5.1119174 52.965872,4.8880943 49.882812,4.5 45.246469,3.9753243 40.689119,3.8708043 36.027344,3.9023438 c -0.808519,0.00141 -1.617039,0.00283 -2.450058,0.00429 -2.546635,0.00553 -5.093178,0.018074 -7.639786,0.030868 -1.741535,0.00502 -3.483072,0.00958 -5.224609,0.013672 C 16.475226,3.9621137 12.237628,3.9793317 8,4 8.0553491,5.0994897 8.1106982,6.1989795 8.1677246,7.3317871 9.7311631,38.545642 11.248201,69.737958 11,101 c 1.084182,-0.0606 2.168364,-0.12117 3.2854,-0.18359 4.045955,-0.22558 8.092047,-0.44862 12.138184,-0.6709 1.746783,-0.0963 3.493529,-0.193314 5.240234,-0.291018 2.519516,-0.140811 5.039159,-0.27913 7.558838,-0.416992 1.159801,-0.06562 1.159801,-0.06562 2.343033,-0.132568 C 46.051852,99.062263 50.507245,98.958376 55,99 c -0.66,0.99 -1.32,1.98 -2,3 -0.99,0 -1.98,0 -3,0 0,0.66 0,1.32 0,2 -10.796934,4.03654 -23.191554,3.05691 -34.570312,3.02344 -1.103519,-0.002 -2.207037,-0.003 -3.343995,-0.005 C 9.390454,107.01393 6.6952312,107.00779 4,107 3.9919131,106.40644 3.9838263,105.81288 3.9754944,105.20134 3.6173126,79.33185 3.2322584,53.469999 2,27.625 1.9582062,26.732435 1.9164124,25.83987 1.873352,24.920258 1.7534492,22.397108 1.6282691,19.8743 1.5,17.351562 1.464581,16.631979 1.429162,15.912395 1.3926697,15.171005 1.1197668,10.089114 0.60675845,5.0524238 0,0 Z"
       fill="#1b4e9e"
       transform="translate(3,28)"
       id="path8" /><path
       d="m 0,0 c 2.3812161,3.7400952 2.4398128,7.5606082 2.6328125,11.863281 0.041653,0.800337 0.083306,1.600673 0.1262207,2.425263 C 2.892629,16.962781 3.0099769,19.637403 3.125,22.3125 3.167358,23.231974 3.209716,24.151448 3.2533569,25.098785 4.4127702,50.71754 4.1918312,76.362262 4,102 c 5.5869759,-0.262 11.173703,-0.52865 16.760254,-0.79956 1.899028,-0.0914 3.798116,-0.18162 5.697266,-0.27051 2.735685,-0.12826 5.471117,-0.26108 8.206542,-0.39477 0.843984,-0.0386 1.687967,-0.0772 2.557526,-0.11693 C 41.552495,100.20197 45.731465,99.824123 50,99 c 0,-0.66 0,-1.32 0,-2 1.98,-0.99 1.98,-0.99 4,-2 -3.3,0 -6.6,0 -10,0 3.34163,-2.227753 6.547128,-3.127389 10.375,-4.125 0.66,-0.181758 1.32,-0.363516 2,-0.550781 C 59.99531,89.365053 63.25411,88.783057 67,89 c 0,-0.66 0,-1.32 0,-2 0.978398,-0.454395 0.978398,-0.454395 1.976562,-0.917969 C 75.980976,82.724459 82.463905,79.451634 86.320312,72.3125 87.861482,67.068979 87.269849,61.404484 87,56 c 0.66,0.33 1.32,0.66 2,1 0.625,3.0625 0.625,3.0625 1,6 0.66,0 1.32,0 2,0 0.185625,-1.887188 0.185625,-1.887188 0.375,-3.8125 C 92.698681,55.896747 93.06605,54.900925 95,52 94.835,52.86625 94.67,53.7325 94.5,54.625 93.037684,65.738602 92.939768,74.795663 100,84 c 2.22792,2.210133 4.51876,4.064633 7,6 0,0.66 0,1.32 0,2 1.63969,0.185625 1.63969,0.185625 3.3125,0.375 C 114,93 114,93 117,95 c 2.91273,0.171508 5.71567,0.236547 8.625,0.1875 1.22614,-0.01728 1.22614,-0.01728 2.47705,-0.03491 1.60217,-0.02832 3.20426,-0.06269 4.80615,-0.10376 1.61874,-0.03779 3.23827,-0.04235 4.85742,-0.0332 6.10393,-0.226071 10.54951,-3.216898 15.63282,-6.421875 C 156,87 156,87 159,86 c 1.06717,-1.799326 1.06717,-1.799326 2,-4 0.98879,-1.67334 1.98648,-3.341518 3,-5 0.33,0.66 0.66,1.32 1,2 -0.9375,2.625 -0.9375,2.625 -2,5 1.32,0.33 2.64,0.66 4,1 -0.55688,0.20625 -1.11375,0.4125 -1.6875,0.625 -2.55,1.328321 -2.55,1.328321 -4.53125,4.199219 -2.69878,3.309946 -5.85675,5.359418 -9.59375,7.363281 -0.93791,0.511436 -0.93791,0.511436 -1.89478,1.033203 C 147.53751,99.164119 145.76918,100.08302 144,101 c -0.71414,0.38801 -1.42828,0.77602 -2.16406,1.17578 C 133.6472,105.98156 122.61475,104.60461 114,103 107.97799,100.73084 103.32007,97.800076 99,93 97.970344,92.131393 96.928158,91.277458 95.875,90.4375 93.446174,88.378278 91.627865,86.713108 90,84 c 0,-0.99 0,-1.98 0,-3 -3.933356,0.520392 -5.83004,1.398696 -8.625,4.1875 C 74.331934,91.64696 66.070483,95.31125 57,98 c -1.54324,0.516151 -3.084918,1.036999 -4.625,1.5625 -1.453738,0.49293 -2.912739,0.97046 -4.375,1.4375 -1.017634,0.34136 -2.035269,0.68272 -3.08374,1.03442 -4.318405,1.22282 -8.45102,1.21881 -12.912354,1.16089 -1.250317,-0.004 -1.250317,-0.004 -2.525894,-0.009 -2.638656,-0.0111 -5.27696,-0.0362 -7.915512,-0.0617 -1.798823,-0.01 -3.597652,-0.0192 -5.396484,-0.0273 C 11.77721,103.07571 7.3886645,103.04124 3,103 2.9919131,102.42928 2.9838263,101.85856 2.9754944,101.27054 2.58971,74.47657 2.0845364,47.713103 0.66064453,20.95166 0.5954084,19.719651 0.5954084,19.719651 0.52885437,18.462753 0.44822984,16.960469 0.3653142,15.458304 0.27937317,13.956314 0.02345051,9.2946183 -0.03359042,4.6664595 0,0 Z"
       fill="#365ea5"
       transform="translate(3,33)"
       id="path9" /><path
       d="m 0,0 c 5.1965133,0.5963212 8.9991665,2.8696601 12.8125,6.4375 0.757813,2.203125 0.757813,2.203125 1,4 0.66,0 1.32,0 2,0 0,3.3 0,6.6 0,10 2.959015,-0.475236 5.917169,-0.955001 8.875,-1.4375 0.841758,-0.134707 1.683516,-0.269414 2.550781,-0.408203 1.208496,-0.198193 1.208496,-0.198193 2.441406,-0.400391 0.743628,-0.120447 1.487256,-0.240893 2.253418,-0.36499 1.958241,-0.321387 1.958241,-0.321387 3.879395,-1.388916 1.448486,-0.08342 2.900709,-0.107329 4.351562,-0.09766 1.276172,0.0048 1.276172,0.0048 2.578125,0.0098 0.889454,0.0084 1.778907,0.01676 2.695313,0.02539 0.897187,0.0045 1.794375,0.009 2.71875,0.01367 2.218816,0.0118 4.4375,0.02827 6.65625,0.04883 0.953766,3.207821 1.116212,6.081874 1.097656,9.421875 -0.0048,1.537207 -0.0048,1.537207 -0.0098,3.105469 -0.01257,1.595215 -0.01257,1.595215 -0.02539,3.222656 -0.0045,1.078945 -0.009,2.157891 -0.01367,3.269531 -0.01177,2.66018 -0.02971,5.320332 -0.04883,7.980469 -4.95,0 -9.9,0 -15,0 0,0.66 0,1.32 0,2 0.70125,0.2475 1.4025,0.495 2.125,0.75 6.731262,2.926636 12.546335,7.59267 15.875,14.25 0.09673,1.977241 0.129799,3.957901 0.125,5.9375 0.0039,1.591348 0.0039,1.591348 0.0078,3.214844 C 58.8125,72.4375 58.8125,72.4375 57.8125,75.4375 c -0.639375,0.474375 -1.27875,0.94875 -1.9375,1.4375 -2.174833,1.376247 -2.174833,1.376247 -2.875,3.5 -1.932278,3.356062 -4.741212,4.369587 -8.1875,6.0625 -0.99,0 -1.98,0 -3,0 -0.253301,0.904922 -0.253301,0.904922 -0.511719,1.828125 C 39.010369,91.608063 35.740842,92.179434 32,93.1875 31.2177,93.404304 30.4354,93.621108 29.629395,93.844482 20.101184,96.223259 10.555077,95.869863 0.8125,95.4375 c -0.75555403,-8.365062 -1.10119771,-16.60059 -1,-25 6.93,0 13.86,0 21,0 0,0.33 0,0.66 0,1 -5.28,0 -10.56,0 -16,0 0.66,5.94 1.32,11.88 2,18 4.021875,0.03094 4.021875,0.03094 8.125,0.0625 0.832896,0.0091 1.665791,0.01821 2.523926,0.02759 4.232047,0.01565 8.182865,-0.244461 12.351074,-1.090088 0,-0.66 0,-1.32 0,-2 0.533672,-0.135352 1.067344,-0.270703 1.617187,-0.410156 C 39.471674,83.703794 48.765759,78.889562 53,71.3125 c 1.141803,-4.040228 1.52092,-7.715888 0.8125,-11.875 -3.675685,-5.145958 -9.787613,-8.491823 -15,-12 -0.653555,-0.440859 -1.307109,-0.881719 -1.980469,-1.335938 -1.335489,-0.894555 -2.676674,-1.780604 -4.019531,-2.664062 0.33,-1.98 0.66,-3.96 1,-6 6.277887,-1.524458 12.575492,-1.060042 19,-1 0,-5.28 0,-10.56 0,-16 -15.125655,0.451175 -15.125655,0.451175 -30,3 0,0.66 0,1.32 0,2 -1.246633,0.508336 -2.497494,1.006311 -3.75,1.5 -0.696094,0.278437 -1.392187,0.556875 -2.109375,0.84375 C 14.8125,28.4375 14.8125,28.4375 10.8125,28.4375 9.8561188,25.855271 9.6713716,24.776208 10.75,22.1875 12.740568,17.035441 12.434439,12.992347 10.4375,8 7.0785871,4.7210612 4.8041496,4.5198937 0.22265625,4.3242187 -3.9229908,4.5190709 -6.281605,5.531605 -9.1875,8.4375 c -0.4581168,1.972353 -0.4581168,1.972353 -0.625,4.125 -0.185625,1.918125 -0.185625,1.918125 -0.375,3.875 -0.33,0 -0.66,0 -1,0 -0.33,-1.98 -0.66,-3.96 -1,-6 -0.99,0.495 -0.99,0.495 -2,1 1.236659,-4.9466369 2.694572,-7.232225 7,-10 C -4.8016661,0.48316643 -2.5609863,0.35150793 0,0 Z"
       fill="#2d529c"
       transform="translate(244.1875,39.5625)"
       id="path10" /><path
       d="m 0,0 c 4.1850437,3.4758627 6.6914494,6.3441447 7.2304687,11.902344 0.047717,14.347027 0.047717,14.347027 -3.3007812,20.898437 -2.94888435,2.506552 -4.14957524,3 -8,3 0,0.66 0,1.32 0,2 -4.9518477,0.352306 -8.8550555,0.52043 -13.4374995,-1.5625 -4.332779,-4.121423 -5.381503,-7.157431 -5.84375,-12.980469 -0.208077,-8.782581 -0.05877,-14.5175195 5.71875,-21.3320308 C -12.99605,-1.9193388 -5.379271,-3.1159173 0,0 Z"
       fill="#1d4d9c"
       transform="translate(142.07031,77.199219)"
       id="path11" /><path
       d="M 0,0 C 0.7423288,-7.251e-4 1.4846576,-0.0014502 2.2494812,-0.00219727 13.403419,-9.8818e-4 24.338243,0.44893915 35.375,2.1875 c 0,0.66 0,1.32 0,2 2.64,0.33 5.28,0.66 8,1 0,0.66 0,1.32 0,2 1.082813,0.37125 1.082813,0.37125 2.1875,0.75 4.667361,2.074382 7.852999,4.494945 9.8125,9.25 1.028694,6.363547 -0.314416,11.727194 -4,17 -0.99,0.495 -0.99,0.495 -2,1 -0.66,-0.33 -1.32,-0.66 -2,-1 0.0232,-0.808242 0.04641,-1.616484 0.07031,-2.449219 C 47.46336,30.669648 47.4814,29.601016 47.5,28.5 c 0.0232,-1.055742 0.04641,-2.111484 0.07031,-3.199219 -0.248378,-3.959147 -0.852501,-6.839585 -3.789062,-9.625 C 35.567015,10.609214 26.908082,9.9029753 17.429687,9.7734375 16.533799,9.7540714 15.637911,9.7347052 14.714874,9.7147522 11.893342,9.6556524 9.0717674,9.6088535 6.25,9.5625 4.3202961,9.524256 2.3906081,9.4852006 0.4609375,9.4453125 -4.2342437,9.3500095 -8.9295045,9.2657265 -13.625,9.1875 c -0.33,-2.31 -0.66,-4.62 -1,-7 -0.99,0 -1.98,0 -3,0 0,13.53 0,27.06 0,41 -0.33,0 -0.66,0 -1,0 -0.670675,-14.00925 -1.159387,-27.973969 -1,-42 C -13.404399,-0.75947238 -6.4655176,-0.00633262 0,0 Z"
       fill="#d43c4d"
       transform="translate(30.625,30.8125)"
       id="path12" /><path
       d="m 0,0 c 3.397675,2.5982221 5.2933286,5.8028 6,10 0.1202097,2.65859 0.185077,5.279426 0.1875,7.9375 0.012246,0.703184 0.024492,1.406367 0.037109,2.130859 C 6.2397347,25.447943 5.7371001,29.21026 1.9375,33.125 0.9784375,34.053125 0.9784375,34.053125 0,35 c -0.33,0.99 -0.66,1.98 -1,3 -3,1 -3,1 -12,1 0,-12.54 0,-25.08 0,-38 4.8034963,-2.4017482 7.8940649,-2.5745575 13,-1 z"
       fill="#2154a2"
       transform="translate(213,77)"
       id="path14" /><path
       d="m 0,0 c 2.8125,1.3125 2.8125,1.3125 5,3 1.196672,3.5900161 1.2053888,6.5904839 1.25,10.375 l 0.078125,3.960937 C 5.9104138,22.000379 4.4532587,24.494839 1.25,27.8125 -2.1400056,29.60167 -4.2307823,29.661266 -8,29 -11.365704,26.45048 -12.775697,23.459036 -13.410156,19.332031 -13.635078,12.242094 -12.453264,7.2992174 -8.1875,1.5625 -5.2274438,-0.55182586 -3.5713913,-0.51019876 0,0 Z"
       fill="#f6f8fb"
       transform="translate(135,82)"
       id="path15"
       sodipodi:nodetypes="ccccccccc" /><path
       d="M 0,0 C 3.5551461,3.3817244 4.9252865,5.8792981 5.25,10.75 5.1785778,16.382153 2.6978473,20.819825 -1,25 c -0.66,0 -1.32,0 -2,0 0,0.66 0,1.32 0,2 -0.99,0 -1.98,0 -3,0 C -6.103125,25.88625 -6.20625,24.7725 -6.3125,23.625 -6.539375,22.42875 -6.76625,21.2325 -7,20 -10.286202,17.809199 -13.218807,17.050331 -17,16 -18.725847,14.274153 -18.253351,12.037906 -18.3125,9.6875 -18.26446,4.3966962 -18.26446,4.3966962 -16.25,1.375 -11.157453,-1.7371119 -5.6696317,-1.4056158 0,0 Z"
       fill="#fac90a"
       transform="translate(252,44)"
       id="path16" /><path
       d="m 0,0 c 8.58,0 17.16,0 26,0 0.33,8.25 0.66,16.5 1,25 3.898125,-0.309375 3.898125,-0.309375 7.875,-0.625 C 41.541722,23.91516 47.532116,24.077116 54,26 53.938125,24.72125 53.87625,23.4425 53.8125,22.125 53.707031,19.945312 53.707031,19.945312 54,18 c 0.99,-0.66 1.98,-1.32 3,-2 0.66,3.3 1.32,6.6 2,10 1.44375,0.45375 2.8875,0.9075 4.375,1.375 2.967384,0.932606 4.396744,1.396744 6.625,3.625 0.125,3.625 0.125,3.625 0,7 0.99,0 1.98,0 3,0 0,-0.66 0,-1.32 0,-2 1.626264,-1.382324 3.2925,-2.719375 5,-4 2,3 2,3 1.9375,4.8125 C 79,39 79,39 76.5625,41.625 73.11363,45.492518 72.661781,50.002072 72,55 c -0.33,0 -0.66,0 -1,0 -0.66,-4.29 -1.32,-8.58 -2,-13 -0.66,0 -1.32,0 -2,0 C 66.814375,41.278125 66.62875,40.55625 66.4375,39.8125 63.433668,33.935438 56.862585,30.983053 50.886719,28.722656 43.358882,26.83815 35.188442,27.00834 28,30 c -1.284367,1.983777 -1.284367,1.983777 -2,4 -0.99,0.495 -0.99,0.495 -2,1 C 24,23.78 24,12.56 24,1 16.08,1 8.16,1 0,1 0,0.67 0,0.34 0,0 Z"
       fill="#234c93"
       transform="translate(176,33)"
       id="path17" /><path
       d="m 0,0 c 11.567568,0 11.567568,0 16,4 2.019142,2.3448106 2.966873,3.8736765 3.058594,6.992188 C 18.808041,13.902868 18.471274,16.340216 16.75,18.75 16.1725,19.1625 15.595,19.575 15,20 13.855313,21.020937 13.855313,21.020937 12.6875,22.0625 8.5060331,25.077046 5.1324467,26 0,26 0,17.42 0,8.84 0,0 Z"
       fill="#2758a4"
       transform="translate(42,86)"
       id="path19" /><path
       d="M 0,0 C 6.8510456,5.8956704 10.525494,11.701427 11.253906,20.890625 11.516899,28.729505 10.752326,34.779012 7,41.6875 6.5758984,42.480273 6.1517969,43.273047 5.7148437,44.089844 2.1728047,50.019553 -2.0406564,53.320578 -8,56.6875 c -1.03125,0.639375 -2.0625,1.27875 -3.125,1.9375 -3.642644,1.346194 -6.129417,0.886528 -9.875,0.0625 0,-0.99 0,-1.98 0,-3 5.61809,-1.959799 5.61809,-1.959799 8.375,-2.25 C -6.3856311,51.654823 -1.486932,46.81278 2.0351563,41.5 3.5559772,38.643073 4.2922712,35.84011 5,32.6875 c 0.66,0 1.32,0 2,0 C 6.3342851,16.707863 6.3342851,16.707863 -2,3.6875 -3.2092856,2.9457352 -4.4394985,2.2370954 -5.6875,1.5625 -9,-0.3125 -9,-0.3125 -11,-4.3125 c -9.24,0 -18.48,0 -28,0 0,-0.66 0,-1.32 0,-2 C -25.36318,-8.451609 -11.577753,-8.5107984 0,0 Z"
       fill="#eb3840"
       transform="translate(161,68.3125)"
       id="path20" /><path
       d="m 0,0 c 3.5206735,-0.08782542 7.0410614,-0.14066643 10.5625,-0.1875 0.990645,-0.0251367 1.981289,-0.0502734 3.001953,-0.0761719 C 19.53096,-0.32313872 23.715244,0.17602808 29,3 29,3.33 29,3.66 29,4 18.77,4 8.54,4 -2,4 c 0,0.66 0,1.32 0,2 -1.6285006,1.0806778 -3.3054752,2.0886087 -5,3.0625 -6.79572,4.208962 -12.353605,9.027312 -15.5,16.5 -0.165,0.804375 -0.33,1.60875 -0.5,2.4375 -0.66,0 -1.32,0 -2,0 -0.66,3.63 -1.32,7.26 -2,11 -0.66,0 -1.32,0 -2,0 -0.33,0.99 -0.66,1.98 -1,3 -0.03867,-0.835313 -0.03867,-0.835313 -0.07813,-1.6875 -0.393597,-5.295664 -1.491988,-9.095968 -4.179687,-13.683594 C -34.502734,26.091367 -34.747656,25.553828 -35,25 c 0.33,-0.66 0.66,-1.32 1,-2 1.485,0.99 1.485,0.99 3,2 0.260391,-0.564609 0.520781,-1.129219 0.789063,-1.710938 1.328441,-2.511183 2.858884,-4.659089 4.585937,-6.914062 0.585234,-0.776016 1.170469,-1.552031 1.773438,-2.351562 C -21.95692,11.952921 -20.469485,11.229823 -18,10 -17.529492,9.3245313 -17.058984,8.6490625 -16.574219,7.953125 -14.50353,5.3840323 -13.024493,5.2505703 -9.8125,4.75 -8.9114453,4.6004687 -8.0103906,4.4509375 -7.0820312,4.296875 -6.3949609,4.1989062 -5.7078906,4.1009375 -5,4 -5,3.34 -5,2.68 -5,2 -3.35,2 -1.7,2 0,2 0,1.34 0,0.68 0,0 Z"
       fill="#2059a7"
       transform="translate(122,57)"
       id="path21" /><path
       d="m 0,0 c 6.4007412,-0.04630761 12.800884,-0.08601183 19.20166,-0.10986328 2.170268,-0.00996 4.340522,-0.0235325 6.510742,-0.0410156 C 62.627713,-0.44047756 62.627713,-0.44047756 74.195312,9.9921875 79.101802,15.450923 79.516951,22.428963 79.28125,29.5 78.541639,36.074324 73.955,40.957055 70,46 c 0.763125,0.2475 1.52625,0.495 2.3125,0.75 2.948309,1.371307 4.045845,2.485108 5.6875,5.25 0,0.66 0,1.32 0,2 0.66,0.33 1.32,0.66 2,1 -3.517678,0 -3.764532,-0.424871 -6.1875,-2.75 C 70.158459,48.955117 66.465641,47.036959 62,45 c 0.33,-0.99 0.66,-1.98 1,-3 0.804375,-0.309375 1.60875,-0.61875 2.4375,-0.9375 2.62317,-0.798549 2.62317,-0.798549 3.625,-2.75 C 69.526562,37.167812 69.526562,37.167812 70,36 70.67446,34.78434 71.363093,33.576481 72.0625,32.375 75.004831,27.24965 75.695732,23.893845 75,18 72.440754,12.574399 69.176682,10.588341 64,8 64,7.34 64,6.68 64,6 61.36,5.67 58.72,5.34 56,5 56,4.34 56,3.68 56,3 54.700625,3.020625 53.40125,3.04125 52.0625,3.0625 48.949206,3.1119174 45.965872,2.8880943 42.882812,2.5 38.246469,1.9753243 33.689119,1.8708043 29.027344,1.9023437 c -0.808519,0.00141 -1.617039,0.00283 -2.450058,0.00429 -2.546635,0.00553 -5.093178,0.018074 -7.639786,0.030868 -1.741535,0.00502 -3.483072,0.00958 -5.224609,0.013672 C 9.4751973,1.9612568 5.2377005,1.9808441 1,2 1,7.94 1,13.88 1,20 0.67,20 0.34,20 0,20 0,13.4 0,6.8 0,0 Z"
       fill="#2c4b95"
       transform="translate(10,30)"
       id="path22" /><path
       d="m 0,0 c 5.7983118,-0.07467117 11.596338,-0.12884674 17.39502,-0.16479492 1.968799,-0.0150007 3.937566,-0.0354079 5.90625,-0.0615234 2.844972,-0.0367698 5.689499,-0.0534955 8.534667,-0.0666504 0.867086,-0.0154839 1.734172,-0.0309677 2.627533,-0.0469208 C 43.315024,-0.34227693 51.010288,1.6403193 58.125,7.0625 59.055703,7.7547266 59.986406,8.4469531 60.945312,9.1601563 61.623359,9.7673047 62.301406,10.374453 63,11 c 0,0.66 0,1.32 0,2 0.66,0 1.32,0 2,0 0.05424,1.916352 0.0929,3.833149 0.125,5.75 0.0232,1.067344 0.04641,2.134687 0.07031,3.234375 C 65.004877,24.924701 64.526701,26.523619 63,29 62.34,29 61.68,29 61,29 60.913633,27.963594 60.827266,26.927187 60.738281,25.859375 60.597537,24.489461 60.455544,23.119676 60.3125,21.75 60.232256,20.727129 60.232256,20.727129 60.150391,19.683594 59.760087,16.187833 59.395486,14.367897 56.784668,11.939209 45.29745,3.9396495 33.129794,4.2259765 19.6875,4.1875 17.771456,4.1643096 15.855438,4.138935 13.939453,4.1113281 9.2928746,4.0490597 4.6469579,4.0162648 0,4 0,2.68 0,1.36 0,0 Z"
       fill="#fcdadb"
       transform="translate(18,35)"
       id="path23" /><path
       d="m 0,0 c 9.0202312,0 9.0202312,0 11.9375,2.375 0.848848,0.6612891 0.848848,0.6612891 1.714844,1.3359375 1.875092,1.7935661 2.331801,2.8995715 2.4375,5.4960938 C 15.687422,16.089467 15.687422,16.089467 13.664063,18.769531 9.8470821,22 9.8470821,22 7,22 7,22.66 7,23.32 7,24 4.69,24 2.38,24 0,24 0,16.08 0,8.16 0,0 Z"
       fill="#264f9c"
       transform="translate(41,47)"
       id="path24" /><path
       d="m 0,0 c 5.1965133,0.5963212 8.9991665,2.8696601 12.8125,6.4375 0.757813,2.203125 0.757813,2.203125 1,4 0.66,0 1.32,0 2,0 0,3.3 0,6.6 0,10 1.98,-0.464063 1.98,-0.464063 4,-0.9375 11.117842,-2.220419 22.701517,-2.255088 34,-2.0625 0,0.66 0,1.32 0,2 -0.583784,0.05011 -1.167568,0.100225 -1.769043,0.151855 -2.70252,0.235304 -5.404205,0.479186 -8.105957,0.723145 -0.917812,0.07863 -1.835625,0.157266 -2.78125,0.238281 -6.219082,0.569353 -12.246752,1.536066 -18.34375,2.886719 0,0.66 0,1.32 0,2 -1.246633,0.508336 -2.497494,1.006311 -3.75,1.5 -0.696094,0.278437 -1.392187,0.556875 -2.109375,0.84375 C 14.8125,28.4375 14.8125,28.4375 10.8125,28.4375 9.8561188,25.855271 9.6713716,24.776208 10.75,22.1875 12.740568,17.035441 12.434439,12.992347 10.4375,8 7.0785871,4.7210612 4.8041496,4.5198937 0.22265625,4.3242187 -3.9229908,4.5190709 -6.281605,5.531605 -9.1875,8.4375 c -0.4581168,1.972353 -0.4581168,1.972353 -0.625,4.125 -0.185625,1.918125 -0.185625,1.918125 -0.375,3.875 -0.33,0 -0.66,0 -1,0 -0.33,-1.98 -0.66,-3.96 -1,-6 -0.99,0.495 -0.99,0.495 -2,1 1.236659,-4.9466369 2.694572,-7.232225 7,-10 C -4.8016661,0.48316643 -2.5609863,0.35150793 0,0 Z"
       fill="#1851a0"
       transform="translate(244.1875,39.5625)"
       id="path25" /><path
       d="m 0,0 c 17.544081,-0.47487737 17.544081,-0.47487737 25,6 0.845625,0.474375 1.69125,0.94875 2.5625,1.4375 5.292445,3.392593 7.269888,7.778936 8.910156,13.648437 C 37.428615,26.368496 37.226202,31.654929 37,37 c -0.66,0 -1.32,0 -2,0 -0.04125,0.99 -0.0825,1.98 -0.125,3 C 33.887069,46.698985 29.059164,51.382849 23.9375,55.4375 21.020907,57.503187 18.650053,58.771872 15,59 17.428262,56.502359 19.813856,54.145283 22.5625,52 27.38058,48.046704 29.903809,44.12811 31,38 31.229297,34.182749 31.189658,30.384794 31.125,26.5625 31.116,25.544785 31.10695,24.52707 31.09766,23.478516 31.074247,20.985428 31.041457,18.492841 31,16 30.01,15.67 29.02,15.34 28,15 26.993572,13.337207 25.994146,11.670165 25,10 18.397179,4.197979 8.631523,1.5077366 0,1 0,0.67 0,0.34 0,0 Z"
       fill="#f7a5a8"
       transform="translate(131,64)"
       id="path26" /><path
       d="m 0,0 c 6.93,0 13.86,0 21,0 0,0.33 0,0.66 0,1 -5.28,0 -10.56,0 -16,0 0.66,5.94 1.32,11.88 2,18 7.92,0 15.84,0 24,0 0,0.99 0,1.98 0,3 -6.813466,2.801829 -12.742365,3.386168 -20.0625,3.1875 C 9.9765039,25.173965 9.0155078,25.16043 8.0253906,25.146484 5.6829825,25.111523 3.3418084,25.062461 1,25 0.24444597,16.634938 -0.10119771,8.3994099 0,0 Z"
       fill="#0d4ca1"
       transform="translate(244,110)"
       id="path27" /><path
       d="m 0,0 c 4.9662235,-0.02465098 9.9324117,-0.04283649 14.898682,-0.05493164 1.690761,-0.0050403 3.381518,-0.01187241 5.072265,-0.02050781 2.42506,-0.01207912 4.850062,-0.01779178 7.275147,-0.0222168 1.140631,-0.0077419 1.140631,-0.0077419 2.304306,-0.01564026 C 31.367326,-0.11349238 33.184131,-0.06197277 35,0 c 1,1 1,1 1.113525,3.5002441 -0.0052,1.084021 -0.01047,2.168042 -0.01587,3.2849121 -0.0032,1.1698243 -0.0064,2.3396485 -0.0098,3.5449218 -0.01257,1.847549 -0.01257,1.847549 -0.02539,3.732422 -0.0045,1.235566 -0.009,2.471133 -0.01367,3.744141 C 36.036996,20.871141 36.020512,23.935547 36,27 c 0.99,-0.33 1.98,-0.66 3,-1 1.360943,-0.09127 2.725846,-0.130655 4.089844,-0.132813 0.784394,-0.0013 1.568789,-0.0026 2.376953,-0.0039 1.222998,0.0058 1.222998,0.0058 2.470703,0.01172 0.811465,-0.0039 1.62293,-0.0077 2.458984,-0.01172 0.785684,0.0013 1.571368,0.0026 2.38086,0.0039 0.71406,0.0011 1.42812,0.0023 2.163818,0.0034 C 57.067839,26.004264 58.953545,26.420397 61,27 c 0.495,-1.485 0.495,-1.485 1,-3 0,1.65 0,3.3 0,5 C 60.805039,28.91621 59.610078,28.832422 58.378906,28.746094 50.425249,28.224816 42.918488,27.84822 35,29 c -1,-1 -1,-1 -1.113525,-3.500244 0.0052,-1.084021 0.01047,-2.168042 0.01587,-3.284912 0.0025,-1.053245 0.005,-2.10649 0.0076,-3.191651 0.0091,-1.348278 0.01821,-2.696557 0.02759,-4.085693 C 33.968437,8.5334375 33.968437,8.5334375 34,2 23.44,2 12.88,2 2,2 c 0,13.2 0,26.4 0,40 -1.32,0 -2.64,0 -4,0 0.33,-0.66 0.66,-1.32 1,-2 0.15733249,-2.987634 0.25861415,-5.955412 0.31640625,-8.945313 0.0207811,-0.885011 0.0415622,-1.770023 0.062973,-2.681854 0.0654867,-2.83253 0.12437635,-5.665155 0.18312073,-8.497833 0.0431861,-1.917979 0.0868004,-3.835948 0.13085938,-5.753906 C -0.19945353,9.4141595 -0.0981836,4.7071303 0,0 Z"
       fill="#6f95c7"
       transform="translate(168,30)"
       id="path28" /><path
       d="M 0,0 C -1.1510765,3.4532294 -2.612075,4.3843768 -5.5273437,6.4257812 -9.4934451,10.665407 -9.3122636,16.453119 -9.25,21.9375 -9.25773,22.614902 -9.265469,23.292305 -9.273437,23.990234 -9.2555925,28.643314 -8.7703492,32.685437 -7,37 c 2.3243066,1.881005 2.3243066,1.881005 5.125,2.9375 0.91007812,0.400898 1.82015625,0.801797 2.7578125,1.214844 C 1.5814844,41.43207 2.2801563,41.711797 3,42 3,42.66 3,43.32 3,44 -4.2044403,44.610546 -4.2044403,44.610546 -7.6875,41.9375 -8.450625,40.968125 -9.21375,39.99875 -10,39 -10.928125,38.0925 -11.85625,37.185 -12.8125,36.25 -16.825082,30.485088 -15.914078,21.709299 -15,15 c 1.004603,-3.427722 2.192809,-5.8938899 4,-9 0.66,0 1.32,0 2,0 0.33,-0.99 0.66,-1.98 1,-3 2.9207981,-2.07530387 4.3754673,-3 8,-3 z"
       fill="#fdeff0"
       transform="translate(126,74)"
       id="path29" /><path
       d="M 0,0 C 0,0.66 0,1.32 0,2 0.928125,2.37125 0.928125,2.37125 1.875,2.75 4.3506869,4.2062864 4.95125,5.3781251 6,8 c 0.66,0 1.32,0 2,0 2.501894,3.752841 2.299307,5.89807 2.3125,10.375 0.01676,1.307109 0.03352,2.614219 0.05078,3.960937 C 9.9887046,26.113926 9.3433088,28.046633 7,31 6.34,31 5.68,31 5,31 4.34,32.32 3.68,33.64 3,35 2,32 2,32 3.4375,28.5 5.7737735,22.702184 6.0458358,16.312624 4.1601562,10.339844 2.4681009,6.9272473 0.0589169,5.2024202 -3,3 -5.8217124,2.0698084 -8.3688239,1.8812059 -11.328125,1.9023437 c -1.198828,0.00483 -1.198828,0.00483 -2.421875,0.00977 -0.825,0.00838 -1.65,0.016758 -2.5,0.025391 -0.840469,0.00451 -1.680937,0.00902 -2.546875,0.013672 C -20.864614,1.9629204 -22.932316,1.9808548 -25,2 c 0,-0.66 0,-1.32 0,-2 9.177262,-4.0046236 15.8227376,-4.0046236 25,0 z"
       fill="#f9b7ba"
       transform="translate(232,66)"
       id="path30" /><path
       d="M 0,0 C 4.6548288,1.1637072 5.5099758,2.0214339 8,6 9.0439331,12.567737 8.9516544,19.438412 5,25 3.4375,26.875 3.4375,26.875 2,28 1.34,28 0.68,28 0,28 0,18.76 0,9.52 0,0 Z"
       fill="#e7edf6"
       transform="translate(204,83)"
       id="path31" /><path
       d="M 0,0 C 3,0 3,0 5.25,2.1875 6.61125,3.5796875 6.61125,3.5796875 8,5 c 3.371466,2.6939466 6.882651,4.9712905 10.6875,7 3.497806,2.111883 5.330489,3.43238 7.3125,7 0.721543,5.014269 0.349394,9.448049 -2,14 -0.66,0 -1.32,0 -2,0 C 21.9961,31.930723 21.9961,31.930723 21.9922,30.839844 21.751716,24.884178 21.208562,20.80941 16.945312,16.484375 13.976282,14.21885 10.7272,12.739477 7.3476562,11.179688 4.0480179,9.521633 2.2177219,7.9569625 0,5 -0.3125,2.1875 -0.3125,2.1875 0,0 Z"
       fill="#fce2e3"
       transform="translate(270,81)"
       id="path32" /><path
       d="m 0,0 c 1.65,0 3.3,0 5,0 0,4.62 0,9.24 0,14 7.18007,-1.663675 11.676234,-2.949248 17,-8 0.66,0 1.32,0 2,0 -0.171875,2.2695313 -0.171875,2.2695313 -1,5 -2.328125,1.949219 -2.328125,1.949219 -5.25,3.6875 -0.953906,0.581367 -1.907812,1.162734 -2.890625,1.761719 C 9.9921171,19.088975 6.5770862,20.259399 1,20 0.11978631,13.288371 -0.11381955,6.7659402 0,0 Z"
       fill="#f7acaf"
       transform="translate(36,101)"
       id="path33" /><path
       d="m 0,0 c 5.94,0 11.88,0 18,0 0,12.21 0,24.42 0,37 -1.485,0.495 -1.485,0.495 -3,1 C 15,26.78 15,15.56 15,4 10.05,4 5.1,4 0,4 0,2.68 0,1.36 0,0 Z"
       fill="#fac1c3"
       transform="translate(180,37)"
       id="path34" /><path
       d="M 0,0 C 0.33,0 0.66,0 1,0 2.3326291,11.719997 3.3218856,23.197529 3,35 2.01,34.34 1.02,33.68 0,33 0,32.34 0,31.68 0,31 -0.99,30.67 -1.98,30.34 -3,30 -3.4601953,29.376094 -3.9203906,28.752188 -4.3945312,28.109375 -6.2580189,25.660997 -7.9746835,24.665383 -10.6875,23.25 -11.495742,22.822031 -12.303984,22.394062 -13.136719,21.953125 -13.751602,21.638594 -14.366484,21.324062 -15,21 c 0,-0.66 0,-1.32 0,-2 4.95,0 9.9,0 15,0 C 0,12.73 0,6.46 0,0 Z"
       fill="#e3eaf4"
       transform="translate(300,64)"
       id="path35" /><path
       d="m 0,0 c 5.794094,4.9861102 9.662461,10.027049 11,17.6875 0.148891,4.672083 0.11665,9.327535 0,14 -0.33,0 -0.66,0 -1,0 0,-3.96 0,-7.92 0,-12 -0.99,-0.33 -1.98,-0.66 -3,-1 C 6.0078125,16.832031 6.0078125,16.832031 5.125,14.5 2.6859524,8.7015094 -0.00538707,4.6157515 -5.6875,1.5625 -9,-0.3125 -9,-0.3125 -11,-4.3125 c -9.24,0 -18.48,0 -28,0 0,-0.66 0,-1.32 0,-2 C -25.36318,-8.451609 -11.577753,-8.5107984 0,0 Z"
       fill="#cc2336"
       transform="translate(161,68.3125)"
       id="path36" /><path
       d="m 0,0 c 3.5450619,1.6205997 6.5902126,3.7262905 9.75,6 0.984844,0.70125 1.969687,1.4025 2.984375,2.125 C 13.482031,8.74375 14.229688,9.3625 15,10 c 0,0.66 0,1.32 0,2 -5.94,0 -11.88,0 -18,0 0,2.64 0,5.28 0,8 -0.33,0 -0.66,0 -1,0 -0.66,-2.31 -1.32,-4.62 -2,-7 -0.99,0 -1.98,0 -3,0 0.4821094,-0.603281 0.9642187,-1.206562 1.4609375,-1.828125 C -6.9074219,10.372656 -6.2757812,9.5734375 -5.625,8.75 -4.9985156,7.9610937 -4.3720312,7.1721875 -3.7265625,6.359375 -2.2108926,4.2881881 -1.0578037,2.329305 0,0 Z"
       fill="#eef2f8"
       transform="translate(246,97)"
       id="path37" /><path
       d="m 0,0 c 4.29,0.33 8.58,0.66 13,1 0,0.66 0,1.32 0,2 2.64,0.33 5.28,0.66 8,1 0,0.66 0,1.32 0,2 0.721875,0.2475 1.44375,0.495 2.1875,0.75 4.667361,2.0743825 7.852999,4.494945 9.8125,9.25 1.028694,6.363547 -0.314416,11.727194 -4,17 -0.99,0.495 -0.99,0.495 -2,1 -0.66,-0.33 -1.32,-0.66 -2,-1 0.33,-0.99 0.66,-1.98 1,-3 0,0.66 0,1.32 0,2 0.66,0 1.32,0 2,0 0.66,-5.28 1.32,-10.56 2,-16 -0.66,0 -1.32,0 -2,0 C 27.319375,15.278125 26.63875,14.55625 25.9375,13.8125 20.551693,8.2534655 13.646603,5.6047937 6.2617187,3.7734375 4,3 4,3 0,0 Z"
       fill="#db2835"
       transform="translate(53,32)"
       id="path38" /><path
       d="m 0,0 c 5.0560699,2.3393756 9.7063465,5.533277 13.6875,9.4375 0,0.66 0,1.32 0,2 -0.66,0 -1.32,0 -2,0 -0.33,0.99 -0.66,1.98 -1,3 0,-0.66 0,-1.32 0,-2 -0.66,0 -1.32,0 -2,0 -1.3707379,-1.636042 -2.7005526,-3.3067806 -4,-5 -2.71103,-3.48561 -5.7411726,-4.1070201 -10,-5 -6.395503,-0.6659591 -11.164368,0.3381328 -17,3 -0.66,0.66 -1.32,1.32 -2,2 0,-0.99 0,-1.98 0,-3 -0.66,-0.33 -1.32,-0.66 -2,-1 C -19.707066,-3.8284769 -8.7201306,-3.1896239 0,0 Z"
       fill="#e9252e"
       transform="translate(229.3125,61.5625)"
       id="path39" /><path
       d="m 0,0 c 0,5.28 0,10.56 0,16 -5.94,0.33 -11.88,0.66 -18,1 0.33,-0.66 0.66,-1.32 1,-2 3.160156,-0.414062 3.160156,-0.414062 7.0625,-0.625 1.2903516,-0.07477 2.5807031,-0.149531 3.9101563,-0.226562 C -5.0283203,14.099453 -4.0292969,14.050469 -3,14 c 0,-3.96 0,-7.92 0,-12 -16.97756,0.8372064 -16.97756,0.8372064 -33,6 -0.33,0.66 -0.66,1.32 -1,2 -2.0625,0.625 -2.0625,0.625 -4,1 0,-0.66 0,-1.32 0,-2 6.5,-4 6.5,-4 11,-4 0,-0.66 0,-1.32 0,-2 9.557383,-4.2253695 19.796941,-3.26745882 30,-3 z"
       fill="#b63651"
       transform="translate(297,60)"
       id="path40" /><path
       d="M 0,0 C 6.1612684,0.48323673 10.686831,1.9911957 15.375,6.0625 17,8 17,8 17,10 c 0.66,0 1.32,0 2,0 0.835643,2.928093 1.162055,5.581761 1.1875,8.625 0.01418,0.776016 0.02836,1.552031 0.04297,2.351562 C 20,23 20,23 18,25 c 0,-2.97 0,-5.94 0,-9 -0.66,0 -1.32,0 -2,0 C 15.814375,15.4225 15.62875,14.845 15.4375,14.25 13.294489,10.895722 10.511774,9.82092 7,8 7,7.34 7,6.68 7,6 4.03,5.67 1.06,5.34 -2,5 -1,1 -1,1 0,0 Z"
       fill="#fcdedf"
       transform="translate(68,78)"
       id="path41" /><path
       d="M 0,0 C 3,2 3,2 4,5 4.069371,7.2281844 4.084571,9.4583452 4.0625,11.6875 4.05348,12.866992 4.044453,14.046484 4.035156,15.261719 4.0235547,16.165352 4.0119531,17.068984 4,18 3.34,18 2.68,18 2,18 1.95875,18.99 1.9175,19.98 1.875,21 0.88706887,27.698985 -3.9408357,32.382849 -9.0625,36.4375 -11.979093,38.503187 -14.349947,39.771872 -18,40 c 2.361535,-2.429008 4.608244,-4.721647 7.375,-6.6875 C -5.0016407,28.358588 -0.71720841,22.563289 0,15 0.06656312,12.3641 0.09567411,9.758514 0.0625,7.125 0.05798828,6.4366406 0.05347656,5.7482812 0.04882812,5.0390625 0.03716336,3.3593367 0.01923271,1.6796562 0,0 Z"
       fill="#fce0e1"
       transform="translate(164,83)"
       id="path42" /><path
       d="m 0,0 c 5.1965133,0.5963212 8.9991665,2.8696601 12.8125,6.4375 0.757813,2.203125 0.757813,2.203125 1,4 0.66,0 1.32,0 2,0 0,3.3 0,6.6 0,10 0.99,0.33 1.98,0.66 3,1 -1.32,0.33 -2.64,0.66 -4,1 -0.495,-2.475 -0.495,-2.475 -1,-5 -0.33,0 -0.66,0 -1,0 C 12.389323,15.484375 11.966146,13.53125 11.542969,11.578125 10.66205,8.9966087 9.7131199,7.402475 7.8125,5.4375 3.4870323,4.1618536 -0.84968829,4.075176 -5.1875,5.25 c -2.1312207,1.1540516 -2.1312207,1.1540516 -4,3.1875 -0.4581168,1.972353 -0.4581168,1.972353 -0.625,4.125 -0.185625,1.918125 -0.185625,1.918125 -0.375,3.875 -0.33,0 -0.66,0 -1,0 -0.33,-1.98 -0.66,-3.96 -1,-6 -0.99,0.495 -0.99,0.495 -2,1 1.236659,-4.9466369 2.694572,-7.232225 7,-10 C -4.8016661,0.48316643 -2.5609863,0.35150793 0,0 Z"
       fill="#5f83a7"
       transform="translate(244.1875,39.5625)"
       id="path43" /><path
       d="m 0,0 c 0,3.96 0,7.92 0,12 -0.66,0 -1.32,0 -2,0 0,-2.97 0,-5.94 0,-9 -13.161555,0.037338 -23.727697,2.8963221 -35,10 0.66,-1.32 1.32,-2.64 2,-4 0.66,0 1.32,0 2,0 0,-0.66 0,-1.32 0,-2 11.551535,-6.20254813 19.983719,-7.16247785 33,-7 z"
       fill="#fbc8ca"
       transform="translate(294,62)"
       id="path44" /><path
       d="m 0,0 c 0.99,0 1.98,0 3,0 0,4.95 0,9.9 0,15 1.98,0 3.96,0 6,0 0,-0.66 0,-1.32 0,-2 1.460938,-1.289062 1.460938,-1.289062 3.375,-2.625 C 13.001484,9.9289844 13.627969,9.4829688 14.273438,9.0234375 16,8 16,8 18,8 16.838879,12.386456 14.524567,14.74442 11.339844,17.765625 9,19 9,19 0,20 0,13.4 0,6.8 0,0 Z"
       fill="#fac7c9"
       transform="translate(36,61)"
       id="path45" /><path
       d="M 0,0 C 3.5551461,3.3817244 4.9252865,5.8792981 5.25,10.75 5.2205737,14.78141 4.0873013,17.521164 2,21 1.67,20.34 1.34,19.68 1,19 1.33,18.01 1.66,17.02 2,16 2.6200675,11.269771 2.6957505,8.0436258 0,4 -3.8669679,1.4220214 -6.3964525,1.2340787 -11,1 c 0,0.66 0,1.32 0,2 C -9.576875,2.938125 -9.576875,2.938125 -8.125,2.875 -5,3 -5,3 -3,5 -4.216875,4.9175 -5.43375,4.835 -6.6875,4.75 -10.166395,4.7252832 -10.938327,4.9588844 -14,7 c -0.66,0.66 -1.32,1.32 -2,2 0.66,2.64 1.32,5.28 2,8 -1.32,-0.66 -2.64,-1.32 -4,-2 C -18.624606,4.9369085 -18.624606,4.9369085 -16.25,1.375 -11.157453,-1.7371119 -5.6696317,-1.4056158 0,0 Z"
       fill="#c2b242"
       transform="translate(252,44)"
       id="path46" /><path
       d="m 0,0 c 7.6445937,1.0920848 12.392724,3.6772371 18,9 2.70501,4.057515 2.529005,7.238959 2,12 -1.565245,4.226161 -3.162063,6.617832 -7,9 -0.33,-1.65 -0.66,-3.3 -1,-5 0.33,0.66 0.66,1.32 1,2 0.66,0 1.32,0 2,0 1.182362,-4.581654 1.75895,-9.309859 1,-14 C 13.19435,9.312574 10.000028,7.2439179 6,5 3.9768192,3.7021104 1.9713399,2.3753534 0,1 0,0.67 0,0.34 0,0 Z"
       fill="#ee282f"
       transform="translate(279,87)"
       id="path48" /><path
       d="m 0,0 c 7.7142857,4 7.7142857,4 9,8 0.66,0 1.32,0 2,0 0.05424,1.9163522 0.0929,3.833149 0.125,5.75 0.0232,1.067344 0.04641,2.134688 0.07031,3.234375 C 11.004877,19.924701 10.526701,21.523619 9,24 8.34,24 7.68,24 7,24 6.9136328,22.963594 6.8272656,21.927187 6.7382812,20.859375 6.5975367,19.489461 6.4555438,18.119676 6.3125,16.75 6.2590039,16.068086 6.2055078,15.386172 6.1503906,14.683594 5.7349603,10.962783 5.258646,9.25533 2.5625,6.59375 0.41118424,5.2557365 -1.6859017,4.0284881 -4,3 -2.68,2.67 -1.36,2.34 0,2 0,1.34 0,0.68 0,0 Z"
       fill="#fabcbe"
       transform="translate(72,40)"
       id="path49" /><path
       d="m 0,0 c 6.5104617,-0.02305042 13.02078,-0.04293564 19.53125,-0.05493164 2.211268,-0.0050051 4.422533,-0.01181112 6.633789,-0.02050781 3.192391,-0.01223414 6.384738,-0.01782729 9.577148,-0.0222168 0.976455,-0.0051613 1.95291,-0.01032257 2.958954,-0.01564026 C 55.770664,-0.11466776 55.770664,-0.11466776 62,3 62,3.33 62,3.66 62,4 59.687336,3.8567916 57.374876,3.7102919 55.0625,3.5625 53.13084,3.4406836 53.13084,3.4406836 51.160156,3.3164063 48.358286,3.1241178 45.587254,2.8346372 42.800781,2.4863281 38.193409,1.9686376 33.65968,1.8710035 29.027344,1.9023437 c -0.808519,0.00141 -1.617039,0.00283 -2.450058,0.00429 -2.546635,0.00553 -5.093178,0.018074 -7.639786,0.030868 -1.741535,0.00502 -3.483072,0.00958 -5.224609,0.013672 C 9.4751973,1.9612568 5.2377005,1.9808441 1,2 1,7.94 1,13.88 1,20 0.67,20 0.34,20 0,20 0,13.4 0,6.8 0,0 Z"
       fill="#33438b"
       transform="translate(10,30)"
       id="path50" /><path
       d="m 0,0 c 3.5206735,-0.08782542 7.0410614,-0.14066643 10.5625,-0.1875 0.990645,-0.0251367 1.981289,-0.0502734 3.001953,-0.0761719 C 19.53096,-0.32313872 23.715244,0.17602808 29,3 29,3.33 29,3.66 29,4 18.77,4 8.54,4 -2,4 c 0,0.66 0,1.32 0,2 -1.65,0.33 -3.3,0.66 -5,1 0.66,-1.65 1.32,-3.3 2,-5 1.65,0 3.3,0 5,0 C 0,1.34 0,0.68 0,0 Z"
       fill="#2b65af"
       transform="translate(122,57)"
       id="path51" /><path
       d="M 0,0 C -1.1510765,3.4532294 -2.612075,4.3843768 -5.5273437,6.4257812 -9.8572935,11.054348 -9.2474438,17.469441 -9.125,23.375 c 0.013535,1.247168 0.013535,1.247168 0.027344,2.519531 C -9.0742622,27.929813 -9.0383972,29.964946 -9,32 c -0.66,0 -1.32,0 -2,0 -0.33,-5.94 -0.66,-11.88 -1,-18 -1.148269,2.296537 -1.115612,3.583132 -1.097656,6.132812 0.0032,0.805665 0.0064,1.611329 0.0098,2.441407 0.0084,0.841758 0.01676,1.683515 0.02539,2.550781 0.0068,1.274238 0.0068,1.274238 0.01367,2.574219 0.0118,2.10029 0.02974,4.200544 0.04883,6.300781 -2.544441,-2.544441 -2.309954,-4.286516 -2.378906,-7.765869 0.0013,-0.757888 0.0026,-1.515777 0.0039,-2.296631 -0.0013,-0.766267 -0.0026,-1.532534 -0.0039,-2.322021 C -15.265939,15.560838 -14.075409,11.285859 -11,6 c 0.66,0 1.32,0 2,0 0.33,-0.99 0.66,-1.98 1,-3 2.9207981,-2.07530387 4.3754673,-3 8,-3 z"
       fill="#f9b2b5"
       transform="translate(126,74)"
       id="path52" /><path
       d="M 0,0 C 1.98,0 3.96,0 6,0 6,0.33 6,0.66 6,1 4.35,1 2.7,1 1,1 1,8.92 1,16.84 1,25 3.31,25 5.62,25 8,25 8,24.34 8,23.68 8,23 8.639375,22.896875 9.27875,22.79375 9.9375,22.6875 10.618125,22.460625 11.29875,22.23375 12,22 c 0.33,-0.99 0.66,-1.98 1,-3 0.66,0.99 1.32,1.98 2,3 -0.33,0.99 -0.66,1.98 -1,3 0,-0.66 0,-1.32 0,-2 -0.482109,0.360937 -0.964219,0.721875 -1.460937,1.09375 C 11.907422,24.557812 11.275781,25.021875 10.625,25.5 9.9985156,25.964062 9.3720312,26.428125 8.7265625,26.90625 7,28 7,28 5,28 5,28.66 5,29.32 5,30 3.02,30 1.04,30 -1,30 -1.1284707,19.936458 -0.79692838,10.032759 0,0 Z"
       fill="#c5394e"
       transform="translate(40,46)"
       id="path53" /><path
       d="m 0,0 c 0.33,0 0.66,0 1,0 0,8.58 0,17.16 0,26 0.99,-0.33 1.98,-0.66 3,-1 1.3609429,-0.09127 2.7258456,-0.130655 4.0898438,-0.132813 0.7843945,-0.0013 1.568789,-0.0026 2.3769532,-0.0039 1.222998,0.0058 1.222998,0.0058 2.470703,0.01172 0.811465,-0.0039 1.62293,-0.0077 2.458984,-0.01172 0.785684,0.0013 1.571368,0.0026 2.38086,0.0039 1.07109,0.0017 1.07109,0.0017 2.163818,0.0034 C 22.067839,25.004264 23.953545,25.420397 26,26 c 0.33,-0.99 0.66,-1.98 1,-3 0,1.65 0,3.3 0,5 C 25.805039,27.91621 24.610078,27.832422 23.378906,27.746094 15.425249,27.224816 7.918488,26.84822 0,28 c -1.740732,-1.740732 -1.1302209,-4.130916 -1.1328125,-6.496094 -0.00129,-1.115683 -0.00258,-2.231367 -0.00391,-3.380859 0.00387,-1.174981 0.00773,-2.349961 0.011719,-3.560547 -0.00387,-1.171113 -0.00773,-2.342227 -0.011719,-3.548828 0.00129,-1.1169728 0.00258,-2.2339454 0.00391,-3.3847658 0.00113,-1.0305248 0.00226,-2.0610498 0.00342,-3.1228027 C -1,2 -1,2 0,0 Z"
       fill="#5280bd"
       transform="translate(203,31)"
       id="path54" /><path
       d="M 0,0 C 0,3 0,3 -0.98779297,4.8623047 -2.2234171,7.4718378 -2.2287795,9.3249593 -2.1953125,12.203125 c 0.00645,0.979688 0.012891,1.959375 0.019531,2.96875 0.016758,1.015781 0.033516,2.031562 0.050781,3.078125 0.013535,1.546875 0.013535,1.546875 0.027344,3.125 0.023536,2.541903 0.056416,5.083333 0.097656,7.625 0.99,0.33 1.98,0.66 3,1 0.53625,0.639375 1.0725,1.27875 1.625,1.9375 C 6.0265018,34.891436 9.6358703,35.291295 14,36 c -1.98,0.495 -1.98,0.495 -4,1 0,0.99 0,1.98 0,3 -2.31,0 -4.62,0 -7,0 0,-0.33 0,-0.66 0,-1 1.65,0 3.3,0 5,0 C 8,38.34 8,37.68 8,37 7.484375,36.9175 6.96875,36.835 6.4375,36.75 2.9828476,35.68703 -0.38192664,34.514898 -3,32 -4.8845077,27.019957 -5.3377708,22.276554 -5.3125,17 -5.3286133,16.327109 -5.3447266,15.654219 -5.3613281,14.960938 -5.3662657,9.8456394 -4.2934461,6.4641287 -2,2 -1.34,1.34 -0.68,0.68 0,0 Z"
       fill="#e63c46"
       transform="translate(121,79)"
       id="path55" /><path
       d="m 0,0 c 1.4765625,1.0390625 1.4765625,1.0390625 3,3 0.3984375,3.3984375 0.3984375,3.3984375 0.375,7.375 0.00773,1.307109 0.015469,2.614219 0.023437,3.960938 C 2.9896422,18.095252 2.3310657,20.054898 0,23 c -0.66,0 -1.32,0 -2,0 -0.66,1.32 -1.32,2.64 -2,4 -1,-3 -1,-3 0.4375,-6.375 C -1.2159095,14.929185 -1.7509059,9.0520647 -2,3 -1.34,3 -0.68,3 0,3 0,2.01 0,1.02 0,0 Z"
       fill="#f8abae"
       transform="translate(239,74)"
       id="path56" /><path
       d="m 0,0 c 8.58,0 17.16,0 26,0 0,10.23 0,20.46 0,31 0.66,0.33 1.32,0.66 2,1 -1.32,0.99 -2.64,1.98 -4,3 C 24,23.78 24,12.56 24,1 16.08,1 8.16,1 0,1 0,0.67 0,0.34 0,0 Z"
       fill="#353f88"
       transform="translate(176,33)"
       id="path57" /><path
       d="M 0,0 C 1,2 1,2 0.5,4.3125 -1.5960565,8.0679345 -4.3884412,9.7845059 -8,12 c -0.99,0.61875 -1.98,1.2375 -3,1.875 -3.720591,1.395222 -6.166449,0.968381 -10,0.125 0,-0.99 0,-1.98 0,-3 5.61809,-1.959799 5.61809,-1.959799 8.375,-2.25 C -7.6685404,7.3338687 -3.603824,3.603824 0,0 Z"
       fill="#e83039"
       transform="translate(161,113)"
       id="path58" /><path
       d="M 0,0 C 2.31,0 4.62,0 7,0 7,0.33 7,0.66 7,1 5.02,1 3.04,1 1,1 c 0,8.58 0,17.16 0,26 8.8483014,-2.426901 8.8483014,-2.426901 15,-7 1.32,0 2.64,0 4,0 0,1.65 0,3.3 0,5 -0.66,-0.33 -1.32,-0.66 -2,-1 0.33,-0.66 0.66,-1.32 1,-2 -4.22105,2.721907 -4.22105,2.721907 -8,6 C 7.1087903,29.29707 4.1219368,30 0,30 0,20.1 0,10.2 0,0 Z"
       fill="#b92640"
       transform="translate(41,85)"
       id="path59" /><path
       d="M 0,0 C 0.66,0.33 1.32,0.66 2,1 1.2897266,1.3983203 0.57945313,1.7966406 -0.15234375,2.2070313 -1.0714453,2.7368359 -1.9905469,3.2666406 -2.9375,3.8125 -3.8540234,4.3345703 -4.7705469,4.8566406 -5.7148437,5.3945312 -8.284062,6.8614099 -8.284062,6.8614099 -9,10 c -1.996094,0.949219 -1.996094,0.949219 -4.4375,1.6875 -0.803086,0.251367 -1.606172,0.502734 -2.433594,0.761719 C -18,13 -18,13 -20,13 c 0,-0.66 0,-1.32 0,-2 1.32,-0.66 2.64,-1.32 4,-2 -3.3,0 -6.6,0 -10,0 3.34163,-2.2277534 6.547128,-3.1273886 10.375,-4.125 0.66,-0.1817578 1.32,-0.3635156 2,-0.5507813 C -10.00469,3.3650531 -6.7458902,2.7830566 -3,3 -3,2.34 -3,1.68 -3,1 -2.01,0.67 -1.02,0.34 0,0 Z"
       fill="#3c4489"
       transform="translate(73,119)"
       id="path60" /><path
       d="m 0,0 c 0.99,0 1.98,0 3,0 0,5.28 0,10.56 0,16 3.3,-0.33 6.6,-0.66 10,-1 -0.33,0.99 -0.66,1.98 -1,3 C 9,19 9,19 0,19 0,12.73 0,6.46 0,0 Z"
       fill="#fcd7d8"
       transform="translate(195,103)"
       id="path61" /><path
       d="m 0,0 c 8.0480452,0.74518937 11.799498,4.0582502 17,10 0.565898,0.461484 1.131797,0.922969 1.714844,1.398438 1.910253,2.380558 1.578331,4.294938 1.472656,7.289062 -0.02707,0.993867 -0.05414,1.987734 -0.08203,3.011719 C 20.070664,22.458477 20.035859,23.217734 20,24 19.67,24 19.34,24 19,24 18.913633,23.40832 18.827266,22.816641 18.738281,22.207031 17.749266,16.644953 16.590902,13.630015 12,10 11.071875,9.443125 10.14375,8.88625 9.1875,8.3125 8.465625,7.879375 7.74375,7.44625 7,7 7,6.34 7,5.68 7,5 4.36,4.67 1.72,4.34 -1,4 -0.34,3.34 0.32,2.68 1,2 0.67,1.34 0.34,0.68 0,0 Z"
       fill="#504e8d"
       transform="translate(67,31)"
       id="path62" /><path
       d="m 0,0 c 3.3,0 6.6,0 10,0 0.66,0.66 1.32,1.32 2,2 C 8.7,1.67 5.4,1.34 2,1 2,8.59 2,16.18 2,24 6.455,23.01 6.455,23.01 11,22 10,24 10,24 7.1875,25.125 4,26 4,26 0,26 0,17.42 0,8.84 0,0 Z"
       fill="#384187"
       transform="translate(42,86)"
       id="path63" /><path
       d="M 0,0 C 3,1 3,1 4,3 4.096728,4.9772406 4.129799,6.9579006 4.125,8.9375 4.12758,9.9983984 4.13016,11.059297 4.13281,12.152344 4,15 4,15 3,18 c -2.5625,1.6875 -2.5625,1.6875 -5,3 -0.33,-0.99 -0.66,-1.98 -1,-3 0.99,0 1.98,0 3,0 -0.33,-0.99 -0.66,-1.98 -1,-3 0.0874401,-2.580893 0.22868495,-5.1169148 0.4375,-7.6875 C -0.510293,6.6106055 -0.45808594,5.9087109 -0.40429688,5.1855469 -0.27492135,3.4566195 -0.13817469,1.7282465 0,0 Z"
       fill="#3e6aae"
       transform="translate(299,97)"
       id="path64" /><path
       d="m 0,0 c -0.99,1.485 -0.99,1.485 -2,3 -0.99,0 -1.98,0 -3,0 0,0.66 0,1.32 0,2 -6.435,0.495 -6.435,0.495 -13,1 0,-0.66 0,-1.32 0,-2 -1.65,0 -3.3,0 -5,0 0,-0.33 0,-0.66 0,-1 2.519434,-0.5081211 5.040169,-1.0066453 7.5625,-1.5 0.704473,-0.1430859 1.408945,-0.2861719 2.134766,-0.4335938 C -8.7810976,0.19125075 -4.6051297,-0.14523405 0,0 Z"
       fill="#0b4ba1"
       transform="translate(58,127)"
       id="path65" /><path
       d="M 0,0 C 1.32,0.33 2.64,0.66 4,1 4,1.66 4,2.32 4,3 4.66,2.67 5.32,2.34 6,2 8.6723621,1.8658453 11.322505,1.956815 14,2 14,2.33 14,2.66 14,3 13.275547,3.063164 12.551094,3.1263281 11.804688,3.1914063 6.6520653,3.8440717 2.898957,4.3414512 -0.625,8.375 c -2.9346336,3.850646 -3.5048979,7.400116 -3.4726562,12.171875 0.00322,0.844336 0.00645,1.688672 0.00977,2.558594 0.00838,0.872695 0.016758,1.74539 0.025391,2.644531 0.00451,0.888164 0.00902,1.776328 0.013672,2.691406 C -4.037074,30.627673 -4.0206425,32.813802 -4,35 -7.6465455,31.353454 -6.4334631,25.607213 -6.4426269,20.681885 -6.2788452,12.136783 -4.1407625,6.9246653 2,1 1.34,0.67 0.68,0.34 0,0 Z"
       fill="#bf233b"
       transform="translate(124,73)"
       id="path66" /><path
       d="M 0,0 C 0.99,1.485 0.99,1.485 2,3 2.66,2.67 3.32,2.34 4,2 3.9651953,3.2858398 3.9651953,3.2858398 3.9296875,4.5976562 3.8317336,10.803739 3.8259059,16.157122 6,22 c 1.32,0.33 2.64,0.66 4,1 0,0.66 0,1.32 0,2 2.97,0 5.94,0 9,0 0,0.33 0,0.66 0,1 C 14.048152,26.352305 10.144945,26.520429 5.5625,24.4375 1.1257394,20.217167 0.10207219,17.200223 -0.17578125,11.210938 -0.21569853,7.4698015 -0.12991948,3.738794 0,0 Z"
       fill="#414f93"
       transform="translate(119,89)"
       id="path67" /><path
       d="M 0,0 C 0.33,0.99 0.66,1.98 1,3 -0.89041482,4.154751 -2.787576,5.2984623 -4.6875,6.4375 -6.2711133,7.3946289 -6.2711133,7.3946289 -7.8867187,8.3710938 -10.710093,9.8483172 -12.86867,10.587524 -16,11 c 0.132812,-1.765625 0.132812,-1.765625 1,-4 2.617187,-1.921875 2.617187,-1.921875 5.875,-3.75 C -8.0550781,2.6364062 -6.9851562,2.0228125 -5.8828125,1.390625 -3,0 -3,0 0,0 Z"
       fill="#1150a4"
       transform="translate(80,118)"
       id="path68" /><path
       d="M 0,0 C 7.2586751,-0.61514196 7.2586751,-0.61514196 10.9375,2.4375 11.618125,3.283125 12.29875,4.12875 13,5 c 0.33,0.33 0.66,0.66 1,1 0.167969,1.9257812 0.167969,1.9257812 0.1875,4.3125 0.01418,0.779883 0.02836,1.559766 0.04297,2.363281 C 13.979844,15.203267 13.263738,16.81718 12,19 11.67,19 11.34,19 11,19 10.96133,17.644551 10.96133,17.644551 10.92187,16.261719 10.865156,15.082227 10.808438,13.902734 10.75,12.6875 10.703594,11.515742 10.657187,10.343984 10.609375,9.1367188 10.289818,5.9494974 10.289818,5.9494974 8.15625,4.125 5.468305,2.7225939 2.9962398,2.3404818 0,2 0,1.34 0,0.68 0,0 Z"
       fill="#fef2be"
       transform="translate(241,45)"
       id="path69" /><path
       d="M 0,0 C 1.1350069,0.88312038 2.2576131,1.7821886 3.375,2.6875 4.0014844,3.1863672 4.6279687,3.6852344 5.2734375,4.1992187 9.6115843,8.723847 9.4092227,14.102964 9.3359375,20.039062 8.8591523,24.241425 7.4659743,26.609285 5,30 4.34,29.01 3.68,28.02 3,27 3.66,27 4.32,27 5,27 6.149826,22.909961 6.1109426,18.968229 6.0625,14.75 6.0579883,14.004922 6.0534766,13.259844 6.0488281,12.492188 6.0370925,10.661424 6.0191585,8.8307013 6,7 5.1917578,6.7241406 4.3835156,6.4482812 3.5507813,6.1640625 2.7090234,5.7799219 1.8672656,5.3957812 1,5 0.1875,2.375 0.1875,2.375 0,0 Z"
       fill="#df1c29"
       transform="translate(82,80)"
       id="path70" /><path
       d="M 0,0 C 2.97,0.495 2.97,0.495 6,1 6.33,3.31 6.66,5.62 7,8 3.375,11 3.375,11 0,11 0,7.37 0,3.74 0,0 Z"
       fill="#ebf1f7"
       transform="translate(46,94)"
       id="path71" /><path
       d="M 0,0 C 0.33,0.66 0.66,1.32 1,2 -0.794375,2.0928125 -0.794375,2.0928125 -2.625,2.1875 -7.5414368,2.8337102 -9.7276991,4.2488258 -13,8 c -0.774872,2.771067 -0.901336,5.089412 -1,8 -0.33,0 -0.66,0 -1,0 -0.33,-1.98 -0.66,-3.96 -1,-6 -0.99,0.495 -0.99,0.495 -2,1 1.236659,-4.9466369 2.694572,-7.2322249 7,-10 3.546427,-1.41857082 7.2253396,-1.07258962 11,-1 z"
       fill="#2d619f"
       transform="translate(248,40)"
       id="path72" /><path
       d="M 0,0 C 0.68320313,0.2165625 1.3664062,0.433125 2.0703125,0.65625 12.993572,3.6734162 23.753478,3.2952837 35,3 34,5 34,5 32.394531,5.6171875 29.139408,6.1375825 25.983238,6.1316246 22.6875,6.125 21.412617,6.12758 20.137734,6.13016 18.824219,6.13281 13.322107,5.9417279 8.4515882,5.5964778 3.5625,2.9375 2.8831641,2.5752734 2.2038281,2.2130469 1.5039062,1.8398437 1.0076172,1.5626953 0.51132813,1.2855469 0,1 0,0.67 0,0.34 0,0 Z"
       fill="#7b9ecc"
       transform="translate(109,131)"
       id="path73" /><path
       d="M 0,0 C 0.33,0.66 0.66,1.32 1,2 -0.0725,2.28875 -1.145,2.5775 -2.25,2.875 -6.1302907,3.922361 -6.1302907,3.922361 -10,6 c 0,6.27 0,12.54 0,19 -3,-3 -3,-3 -3.398438,-5.453125 C -13.337449,12.268961 -12.611492,7.5120071 -8.1875,1.5625 -5.3353073,-0.47478051 -3.4263655,-0.31148777 0,0 Z"
       fill="#c0d1e7"
       transform="translate(135,82)"
       id="path74" /><path
       d="m 0,0 c -0.61277612,2.9617512 -1.2537252,4.3805878 -3,7 -0.437387,1.7144489 -0.8084869,3.446678 -1.125,5.1875 -0.1675781,0.901055 -0.3351562,1.802109 -0.5078125,2.730469 C -4.7539844,15.605039 -4.8751562,16.292109 -5,17 -5.33,17 -5.66,17 -6,17 -6.3377668,15.25085 -6.6700367,13.500639 -7,11.75 -7.185625,10.775469 -7.37125,9.8009375 -7.5625,8.796875 -8,6 -8,6 -8,2 -5.0939974,0.74335022 -3.2039542,0 0,0 Z"
       fill="#0d4ca1"
       transform="translate(253,71)"
       id="path75" /><path
       d="M 0,0 C 0,0.66 0,1.32 0,2 1.423125,1.938125 1.423125,1.938125 2.875,1.875 6,2 6,2 8,4 6.783125,3.9175 5.56625,3.835 4.3125,3.75 0.83360474,3.7252832 0.06167336,3.9588844 -3,6 c -0.66,0.66 -1.32,1.32 -2,2 0.66,2.64 1.32,5.28 2,8 C -4.32,15.34 -5.64,14.68 -7,14 -7.2832882,10.292072 -7.4526997,6.6979569 -7,3 -4.5430575,0.73702662 -3.3203746,0 0,0 Z"
       fill="#c3af34"
       transform="translate(241,45)"
       id="path76" /><path
       d="M 0,0 C 0.66,0.66 1.32,1.32 2,2 1.2033594,2.1095703 0.40671875,2.2191406 -0.4140625,2.3320313 -6.155682,3.1911787 -10.909489,4.0528621 -16,7 c -0.66,0 -1.32,0 -2,0 0,-1.98 0,-3.96 0,-6 6.015569,-0.69031115 11.9433176,-1.32446513 18,-1 z"
       fill="#0e4b9f"
       transform="translate(220,57)"
       id="path77" /><path
       d="M 0,0 C -1,3 -1,3 -2.9375,4 -3.618125,4.33 -4.29875,4.66 -5,5 c -0.99,1.485 -0.99,1.485 -2,3 -2.625,0.6875 -2.625,0.6875 -5,1 0.33,-0.66 0.66,-1.32 1,-2 0.66,0 1.32,0 2,0 0,-0.99 0,-1.98 0,-3 -1.65,0.33 -3.3,0.66 -5,1 3.716697,-4.46003684 8.2642524,-6.9119159 14,-5 z"
       fill="#1251a4"
       transform="translate(226,119)"
       id="path78" /><path
       d="m 0,0 c 5.9794241,2.110385 10.693559,5.3622941 15,10 l -2,4 -2.0625,-2.1875 C 8.3627779,9.2008908 5.5513356,7.2550782 2.453125,5.3085937 0.63056617,3.6673109 0.38267447,2.3816451 0,0 Z"
       fill="#375ba2"
       transform="translate(285,85)"
       id="path79"
       sodipodi:nodetypes="cccccc" /><path
       d="M 0,0 C 0,0.66 0,1.32 0,2 -3.7423532,4.449891 -7.4422542,4.2308614 -11.75,4.125 -12.447383,4.11598 -13.144766,4.106953 -13.863281,4.097656 -15.57567,4.0741989 -17.28788,4.038331 -19,4 c 0,-0.99 0,-1.98 0,-3 2.791626,-0.16737799 5.583296,-0.33393402 8.375,-0.5 C -9.8309375,0.4523047 -9.036875,0.4046094 -8.21875,0.35546875 -2.2265625,0 -2.2265625,0 0,0 Z"
       fill="#fac8c9"
       transform="translate(271,114)"
       id="path80" /><path
       d="m 0,0 c 0.99,0 1.98,0 3,0 0,5.28 0,10.56 0,16 1.32,0 2.64,0 4,0 0,0.66 0,1.32 0,2 C 5.02,18 3.04,18 1,18 0.22959149,11.933033 -0.09706112,6.1148503 0,0 Z"
       fill="#fde6e6"
       transform="translate(36,61)"
       id="path81" /><path
       d="m 0,0 c 1.98,0 3.96,0 6,0 0.33,0.99 0.66,1.98 1,3 1.8831616,1.1083642 1.8831616,1.1083642 4,2 0.99,0.66 1.98,1.32 3,2 0,0.99 0,1.98 0,3 1.32,0.33 2.64,0.66 4,1 -0.99,0 -1.98,0 -3,0 -0.33,0.66 -0.66,1.32 -1,2 C 13.29875,12.278125 12.5975,11.55625 11.875,10.8125 9.9100693,8.8306787 7.8682154,7.0529285 5.6875,5.3125 4.800625,4.549375 3.91375,3.78625 3,3 3,2.34 3,1.68 3,1 2.01,0.67 1.02,0.34 0,0 Z"
       fill="#3759a0"
       transform="translate(152,62)"
       id="path82" /><path
       d="M 0,0 C 1.2632812,0.01804688 2.5265625,0.03609375 3.828125,0.0546875 4.7923437,0.07789063 5.7565625,0.10109375 6.75,0.125 c 0,0.33 0,0.66 0,1 -5.94,0.495 -5.94,0.495 -12,1 0.99,0.66 1.98,1.32 3,2 C -3.0814453,4.4150391 -3.0814453,4.4150391 -3.9296875,4.7109375 -4.6541406,4.9713281 -5.3785937,5.2317187 -6.125,5.5 -6.8442969,5.7552344 -7.5635937,6.0104687 -8.3046875,6.2734375 -10.43158,7.0637778 -10.43158,7.0637778 -12.25,9.125 c 0,-0.99 0,-1.98 0,-3 -0.66,-0.33 -1.32,-0.66 -2,-1 C -9.9080825,0.34889072 -6.3964944,-0.1184536 0,0 Z"
       fill="#c52d43"
       transform="translate(217.25,59.875)"
       id="path83" /><path
       d="m 0,0 c -0.66,0.66 -1.32,1.32 -2,2 0,0.99 0,1.98 0,3 -0.99,0 -1.98,0 -3,0 0,0.66 0,1.32 0,2 -1.65,0.33 -3.3,0.66 -5,1 0,-0.99 0,-1.98 0,-3 -0.99,-0.33 -1.98,-0.66 -3,-1 0.66,0 1.32,0 2,0 0,-0.66 0,-1.32 0,-2 1.4550536,-0.5299269 2.9141813,-1.0486789 4.375,-1.5625 0.8121094,-0.29003906 1.6242188,-0.58007812 2.4609375,-0.87890625 C -2,-1 -2,-1 0,0 Z"
       fill="#1551a3"
       transform="translate(285,124)"
       id="path84" /><path
       d="M 0,0 1.5625,2 C 3.9197736,4.2836861 3.9197736,4.2836861 7.375,4.5 11.541434,3.9253194 13.715783,2.5632912 17,0 16.399589,3.3623021 15.523223,5.6449921 13,8 9.3125,8.25 9.3125,8.25 6,8 V 6 L 1,5 Z"
       fill="#3169b1"
       transform="translate(123,106)"
       id="path85"
       sodipodi:nodetypes="ccccccccc" /><path
       d="m 0,0 c 17.4375,-0.28125 17.4375,-0.28125 24,3 0,0.33 0,0.66 0,1 C 15.975915,3.5031199 7.9820438,2.980251 0,2 0,1.34 0,0.68 0,0 Z"
       fill="#31428c"
       transform="translate(48,30)"
       id="path86" /><path
       d="m 0,0 c 0.66,0 1.32,0 2,0 0,4.62 0,9.24 0,14 1.98,0 3.96,0 6,0 -1.32,0.33 -2.64,0.66 -4,1 0,0.66 0,1.32 0,2 C 2.68,17 1.36,17 0,17 0,11.39 0,5.78 0,0 Z"
       fill="#fef2f2"
       transform="translate(38,103)"
       id="path87" /><path
       d="M 0,0 C 6.9643795,0.91595014 11.088612,2.9780665 16,8 15.67,8.99 15.34,9.98 15,11 14.175,10.2575 13.35,9.515 12.5,8.75 9.4472589,6.1781203 6.2672597,4.5196305 2.6367188,2.8945313 1,2 1,2 0,0 Z"
       fill="#e53b45"
       transform="translate(279,87)"
       id="path88" /><path
       d="M 0,0 C 4.9828793,0.39081406 8.6502202,1.5598796 13,4 10.138229,5.4308853 8.0662423,4.599917 5,4 5.33,4.66 5.66,5.32 6,6 3.36,5.67 0.72,5.34 -2,5 -1.125,1.125 -1.125,1.125 0,0 Z"
       fill="#f9b4b6"
       transform="translate(68,78)"
       id="path89" /><path
       d="M 0,0 1,2 0,4 H 19 V 5 H 1 v 8 H 0 L -2,6 h -3 z"
       fill="#a6bedd"
       transform="translate(242,104)"
       id="path90"
       sodipodi:nodetypes="ccccccccccc" /><path
       d="M 0,0 C 0.99,0.495 0.99,0.495 2,1 2,3.31 2,5.62 2,8 2.99,8 3.98,8 5,8 5,7.34 5,6.68 5,6 6.626264,4.6176756 8.2925002,3.2806249 10,2 12,5 12,5 11.75,7.125 11,9 11,9 9,10 9,9.34 9,8.68 9,8 6.36,8.33 3.72,8.66 1,9 0.67,6.03 0.34,3.06 0,0 Z"
       fill="#3e6282"
       transform="translate(244,63)"
       id="path91" /><path
       d="M 0,0 C 2.2193446,3.3290168 2.271299,4.4879364 2.25,8.375 2.25516,9.3108594 2.260312,10.246719 2.265625,11.210938 1.9863526,14.143298 1.2214902,16.334049 0,19 -2.671354,15.161165 -1.840578,11.601044 -1.125,7.25 -1.0205859,6.5526172 -0.91617188,5.8552344 -0.80859375,5.1367187 -0.55032364,3.4227444 -0.27667048,1.7111005 0,0 Z"
       fill="#1f57a6"
       transform="translate(87,48)"
       id="path92" /><path
       d="m 0,0 c 4.29,0.33 8.58,0.66 13,1 0,0.66 0,1.32 0,2 2.64,0.33 5.28,0.66 8,1 0,0.33 0,0.66 0,1 C 6.2186788,4.405467 6.2186788,4.405467 0,1 0,0.67 0,0.34 0,0 Z"
       fill="#be2c44"
       transform="translate(53,32)"
       id="path93" /><path
       d="m 0,0 c 0.8125,1.6875 0.8125,1.6875 1,4 -2.8588351,3.4474188 -5.9435299,6.078514 -10,8 -0.99,-0.33 -1.98,-0.66 -3,-1 0.698672,-0.542695 1.397344,-1.0853906 2.1171875,-1.6445312 C -8.9727344,8.6400391 -8.0626563,7.9246094 -7.125,7.1875 -6.2200781,6.4798047 -5.3151562,5.7721094 -4.3828125,5.0429687 -1.8339704,3.0441226 -1.8339704,3.0441226 0,0 Z"
       fill="#f9b3b6"
       transform="translate(158,111)"
       id="path94" /><path
       d="m 0,0 c 0.66,0.99 1.32,1.98 2,3 -7.92,0.495 -7.92,0.495 -16,1 0,-0.66 0,-1.32 0,-2 4.3809413,-2.26113102 9.1499987,-2.88614956 14,-2 z"
       fill="#fbd5d7"
       transform="translate(224,63)"
       id="path95" /><path
       d="M 0,0 C 8.1452451,1.1660928 8.1452451,1.1660928 11.5625,4.5 13,7 13,7 13,9 9.9122097,7.5340078 7.0953279,5.8297361 4.25,3.9375 3.4507813,3.4102734 2.6515625,2.8830469 1.828125,2.3398438 1.2248437,1.8976953 0.6215625,1.4555469 0,1 0,0.67 0,0.34 0,0 Z"
       fill="#e9323b"
       transform="translate(151,66)"
       id="path96" /><path
       d="m 0,0 c 0.33,0 0.66,0 1,0 0,1.98 0,3.96 0,6 -2.6473892,1.4606285 -3.8944833,2 -7,2 0,0.66 0,1.32 0,2 -0.66,0 -1.32,0 -2,0 0.5408732,-3.7861123 2.1172233,-5.5540077 5,-8 0.66,0 1.32,0 2,0 0.33,-0.66 0.66,-1.32 1,-2 z"
       fill="#f03a40"
       transform="translate(237,97)"
       id="path97" /><path
       d="M 0,0 C 1.32,0 2.64,0 4,0 4,0.66 4,1.32 4,2 3.34,2 2.68,2 2,2 1.7525,2.70125 1.505,3.4025 1.25,4.125 -0.16088026,7.3700246 -1.978954,10.103167 -4,13 -4.33,11.68 -4.66,10.36 -5,9 c 0.66,0 1.32,0 2,0 0.33,-1.98 0.66,-3.96 1,-6 0.66,0 1.32,0 2,0 C 0,2.01 0,1.02 0,0 Z"
       fill="#215dab"
       transform="translate(244,95)"
       id="path98" /><path
       d="M 0,0 C 13.633257,-0.3690205 13.633257,-0.3690205 20,2 17,4 17,4 15.019531,3.7929688 13.927051,3.4932617 13.927051,3.4932617 12.8125,3.1875 8.536727,2.1010331 4.3841359,1.4782694 0,1 0,0.67 0,0.34 0,0 Z"
       fill="#f69094"
       transform="translate(131,64)"
       id="path99" /><path
       d="M 0,0 C -3,2 -3,2 -6,2 -6.2475,2.639375 -6.495,3.27875 -6.75,3.9375 -8,6 -8,6 -10.125,6.75 -11.053125,6.87375 -11.053125,6.87375 -12,7 c 0,-0.66 0,-1.32 0,-2 0.99,-0.33 1.98,-0.66 3,-1 0,-0.99 0,-1.98 0,-3 3.3320508,-3.3320508 5.0428509,-3.6380994 9,-1 z"
       fill="#3167b0"
       transform="translate(292,124)"
       id="path100" /><path
       d="M 0,0 C -1,3 -1,3 -3.9375,5.4375 -6.6129469,7.6761393 -7.8240801,8.8250163 -9,12 c -0.66,0 -1.32,0 -2,0 0.33,-1.65 0.66,-3.3 1,-5 0.66,0 1.32,0 2,0 C -7.731875,6.21625 -7.46375,5.4325 -7.1875,4.625 -5.5160879,0.93029959 -4.0493815,0 0,0 Z"
       fill="#fac5c7"
       transform="translate(126,74)"
       id="path101" /><path
       d="M 0,0 C 2.875,0.75 2.875,0.75 6,2 7.1953125,4.078125 7.1953125,4.078125 8,6 6.2277355,5.7171598 4.457212,5.423395 2.6875,5.125 1.7013672,4.9625781 0.71523437,4.8001562 -0.30078125,4.6328125 -3,4 -3,4 -6,2 -3.69,2.33 -1.38,2.66 1,3 0.67,2.01 0.34,1.02 0,0 Z"
       fill="#fde5e6"
       transform="translate(65,37)"
       id="path102" /><path
       d="m 0,0 c -0.5625,2.3125 -0.5625,2.3125 -2,5 -3.375,1.6875 -3.375,1.6875 -7,3 -1.340135,0.6528863 -2.677415,1.312256 -4,2 0.66,-1.32 1.32,-2.64 2,-4 0.66,0 1.32,0 2,0 0,-0.66 0,-1.32 0,-2 6.75,-4 6.75,-4 9,-4 z"
       fill="#f89ca0"
       transform="translate(270,65)"
       id="path103" /><path
       d="M 0,0 C 7.7142857,4 7.7142857,4 9,8 7.35,7.01 5.7,6.02 4,5 4,5.66 4,6.32 4,7 1.3333333,5.6666667 -1.3333333,4.3333333 -4,3 -2.68,2.67 -1.36,2.34 0,2 0,1.34 0,0.68 0,0 Z"
       fill="#fbcfd0"
       transform="translate(72,40)"
       id="path104" /><path
       d="M 0,0 C 3.0831351,1.198997 6.0627949,2.4770048 9,4 9,4.66 9,5.32 9,6 1.4923077,6.3692308 1.4923077,6.3692308 -1,4.5 -1.33,4.005 -1.66,3.51 -2,3 -1.01,3 -0.02,3 1,3 0.67,2.01 0.34,1.02 0,0 Z"
       fill="#f8a0a3"
       transform="translate(120,112)"
       id="path105" /><path
       d="M 0,0 C -0.0625,2.25 -0.0625,2.25 -1,5 -3.2308475,6.6784982 -5.4740591,7.7599926 -8,9 -7.7010078,5.4120942 -7.230134,4.2183322 -4.5625,1.6875 -2,0 -2,0 0,0 Z"
       fill="#fabdbf"
       transform="translate(60,107)"
       id="path106" /><path
       d="M 0,0 C 1.32,0.33 2.64,0.66 4,1 3.6875,4.375 3.6875,4.375 3,8 2.01,8.66 1.02,9.32 0,10 0,6.7 0,3.4 0,0 Z"
       fill="#d4dfee"
       id="path107"
       transform="translate(45,55)" /><path
       d="M 0,0 C 1.5843317,0.08768248 3.1675357,0.19587329 4.75,0.3125 6.0725781,0.39951172 6.0725781,0.39951172 7.421875,0.48828125 10.323038,1.0641181 11.792256,2.0759615 14,4 13.67,5.32 13.34,6.64 13,8 11.96875,7.21625 10.9375,6.4325 9.875,5.625 6.7190126,3.3560315 3.7818448,2.0146413 0,1 0,0.67 0,0.34 0,0 Z"
       fill="#ee4850"
       transform="translate(64,36)"
       id="path108" /><path
       d="M 0,0 C 2,1 2,1 3.125,3.6875 4.7185295,9.6134378 4.1517412,15.921924 4,22 3.67,22 3.34,22 3,22 3,18.04 3,14.08 3,10 2.34,10 1.68,10 1,10 0.67,6.7 0.34,3.4 0,0 Z"
       fill="#9f2b4e"
       transform="translate(168,78)"
       id="path109" /><path
       d="M 0,0 C 4.455,0.99 4.455,0.99 9,2 9.33,3.32 9.66,4.64 10,6 6.37,5.34 2.74,4.68 -1,4 -0.34,3.34 0.32,2.68 1,2 0.67,1.34 0.34,0.68 0,0 Z"
       fill="#4464a7"
       transform="translate(67,31)"
       id="path110" /><path
       d="m 0,0 c 0.33,0 0.66,0 1,0 0.3690205,9.4100228 0.3690205,9.4100228 -2,14 -0.66,0 -1.32,0 -2,0 0,-3.3 0,-6.6 0,-10 0.99,0.495 0.99,0.495 2,1 0.33,-1.65 0.66,-3.3 1,-5 z"
       fill="#f6969a"
       transform="translate(295,100)"
       id="path111" /><path
       d="M 0,0 C 0,1.65 0,3.3 0,5 -0.66,4.67 -1.32,4.34 -2,4 -1.67,3.34 -1.34,2.68 -1,2 -1.9075,2.61875 -2.815,3.2375 -3.75,3.875 -6.1494882,5.4438961 -8.4096161,6.8044382 -11,8 -5.9565217,0 -5.9565217,0 0,0 Z"
       fill="#dd4451"
       transform="translate(61,105)"
       id="path112" /><path
       d="M 0,0 C 0.66,0.33 1.32,0.66 2,1 2.1546875,2.175625 2.1546875,2.175625 2.3125,3.375 2.7633084,6.2448898 2.7633084,6.2448898 5.5625,7.8125 6.366875,8.204375 7.17125,8.59625 8,9 5,10 5,10 1.8125,8.5625 0.884375,8.046875 -0.04375,7.53125 -1,7 -1.0425436,5.0004525 -1.0408078,2.9995836 -1,1 -0.67,0.67 -0.34,0.34 0,0 Z"
       fill="#cf283b"
       transform="translate(276,78)"
       id="path113" /><path
       d="m 0,0 c 0.66,0.33 1.32,0.66 2,1 -1.65,0.66 -3.3,1.32 -5,2 0,0.66 0,1.32 0,2 -0.99,0.66 -1.98,1.32 -3,2 -0.7238247,2.0592514 -0.7238247,2.0592514 -1,4 -0.66,0 -1.32,0 -2,0 C -9.33,9.35 -9.66,7.7 -10,6 -7,4 -7,4 -4,4 -3.67,3.01 -3.34,2.02 -3,1 -2.01,0.67 -1.02,0.34 0,0 Z"
       fill="#e7343e"
       transform="translate(264,66)"
       id="path114" /><path
       d="m 0,0 c -3.4234656,3.1495883 -6.4426274,3.5617911 -11,4 0,-0.99 0,-1.98 0,-3 7.4285714,-2.4285714 7.4285714,-2.4285714 11,-1 z"
       fill="#e02936"
       transform="translate(52,111)"
       id="path115" /><path
       d="M 0,0 C 0.33,0 0.66,0 1,0 1.054471,1.4162322 1.093005,2.8330819 1.125,4.25 1.148203,5.0389062 1.171406,5.8278125 1.195312,6.640625 0.9828378,9.2073194 0.28654105,10.791607 -1,13 -1.33,13 -1.66,13 -2,13 -2.0539199,11.20866 -2.0927557,9.416861 -2.125,7.625 -2.1482031,6.6272656 -2.1714063,5.6295313 -2.1953125,4.6015625 -2,2 -2,2 0,0 Z"
       fill="#fdeca3"
       transform="translate(254,51)"
       id="path116" /><path
       d="M 0,0 C 0.33,0.66 0.66,1.32 1,2 -0.8253125,2.2165625 -0.8253125,2.2165625 -2.6875,2.4375 -5.1326355,2.7361095 -7.4637325,3.1008114 -9.875,3.625 -12,4 -12,4 -14,3 -9.0300681,0.56574762 -5.6539463,-0.34615998 0,0 Z"
       fill="#4271b4"
       transform="translate(248,40)"
       id="path117" /><path
       d="M 0,0 C 0.66,0.99 1.32,1.98 2,3 2.53625,3.680625 3.0725,4.36125 3.625,5.0625 5,7 5,7 5,9 1.7445677,8.6512037 0.98126893,7.9786674 -1.25,5.4375 -2.11625,4.2309375 -2.11625,4.2309375 -3,3 -2.01,2.01 -1.02,1.02 0,0 Z"
       fill="#fde7e8"
       transform="translate(116,106)"
       id="path118" /><path
       d="M 0,0 C 0.33,0.99 0.66,1.98 1,3 1.66,3 2.32,3 3,3 2.67,4.32 2.34,5.64 2,7 1.34,7 0.68,7 0,7 -0.66,8.32 -1.32,9.64 -2,11 -3.1364397,7.590681 -2.8674776,6.9966454 -1.5625,3.8125 -1.1313086,2.7393555 -1.1313086,2.7393555 -0.69140625,1.6445312 -0.46324219,1.1018359 -0.23507813,0.55914062 0,0 Z"
       fill="#f68d91"
       transform="translate(237,90)"
       id="path119" /><path
       d="m 0,0 c 3.63,0 7.26,0 11,0 0.33,0.66 0.66,1.32 1,2 C 8.7,2 5.4,2 2,2 2,2.66 2,3.32 2,4 1.34,4 0.68,4 0,4 0,2.68 0,1.36 0,0 Z"
       fill="#4778b9"
       transform="translate(283,81)"
       id="path120" /><path
       d="M 0,0 C 1.32,0.33 2.64,0.66 4,1 4,1.66 4,2.32 4,3 4.66,2.67 5.32,2.34 6,2 8.6723621,1.8658453 11.322505,1.9568146 14,2 14,2.33 14,2.66 14,3 6.08,4.485 6.08,4.485 -2,6 -0.68,4.35 0.64,2.7 2,1 1.34,0.67 0.68,0.34 0,0 Z"
       fill="#d22e3f"
       transform="translate(124,73)"
       id="path121" /><path
       d="m 0,0 c 1.485,0.99 1.485,0.99 3,2 0.4401683,2.5760184 0.693847,4.9090065 0.8125,7.5 0.050918,0.689648 0.1018359,1.379297 0.1542969,2.089844 C 4.0703312,13.390289 4.0434184,15.197103 4,17 3.34,17.66 2.68,18.32 2,19 1.1560575,15.373685 0.9180681,12.09266 1,8.375 1.070836,5.1431072 1.0311458,3.0934375 0,0 Z"
       fill="#f9d238"
       transform="translate(249,49)"
       id="path122" /><path
       d="M 0,0 C 0.99,0 1.98,0 3,0 3.33,3.3 3.66,6.6 4,10 3.34,9.67 2.68,9.34 2,9 1.855625,8.34 1.71125,7.68 1.5625,7 1.376875,6.34 1.19125,5.68 1,5 0.01,4.67 -0.98,4.34 -2,4 -1.34,2.68 -0.68,1.36 0,0 Z"
       fill="#89a8d1"
       transform="translate(167,118)"
       id="path123" /><path
       d="m 0,0 c 3.63,0 7.26,0 11,0 0.33,0.99 0.66,1.98 1,3 C 10.186744,2.8864848 8.3743664,2.7588704 6.5625,2.625 5.0484961,2.5205859 5.0484961,2.5205859 3.5039063,2.4140625 2.6776172,2.2774219 1.8513281,2.1407812 1,2 0.67,1.34 0.34,0.68 0,0 Z"
       fill="#fefcfc"
       transform="translate(54,37)"
       id="path124" /><path
       d="m 0,0 c 0.33,0 0.66,0 1,0 0,2.31 0,4.62 0,7 -0.66,0 -1.32,0 -2,0 0,2.31 0,4.62 0,7 -0.33,0 -0.66,0 -1,0 C -2.054107,12.229503 -2.092841,10.458532 -2.125,8.6875 -2.1482031,7.7013672 -2.1714063,6.7152344 -2.1953125,5.6992187 -2,3 -2,3 0,0 Z"
       fill="#fef9f9"
       transform="translate(114,87)"
       id="path125" /><path
       d="M 0,0 C 1.98,0.66 3.96,1.32 6,2 6.33,1.34 6.66,0.68 7,0 7.99,0.99 8.98,1.98 10,3 9.34,3 8.68,3 8,3 8.33,3.99 8.66,4.98 9,6 5.0632636,4.6877545 2.7728071,3.0808967 0,0 Z"
       fill="#fac2c4"
       transform="translate(273,88)"
       id="path126" /><path
       d="M 0,0 C 0.66,0 1.32,0 2,0 3.4420794,2.8841588 3.0939489,5.4172153 3.0625,8.625 3.05348,9.8135156 3.044453,11.002031 3.035156,12.226563 3.0235547,13.141797 3.0119531,14.057031 3,15 2.67,15 2.34,15 2,15 1.6622332,13.25085 1.3299633,11.500639 1,9.75 0.814375,8.7754688 0.62875,7.8009375 0.4375,6.796875 0,4 0,4 0,0 Z"
       fill="#ed1a21"
       transform="translate(241,73)"
       id="path127" /><path
       d="M 0,0 C 1.1754,0.92652701 2.3401058,1.8666339 3.5,2.8125 4.1496875,3.3345703 4.799375,3.8566406 5.46875,4.3945312 7,6 7,6 7,9 5.8225266,8.2670829 4.6582315,7.512962 3.5,6.75 2.5254688,6.1235156 2.5254688,6.1235156 1.53125,5.484375 1.0259375,4.9945312 0.520625,4.5046875 0,4 0,2.68 0,1.36 0,0 Z"
       fill="#ca2a3e"
       transform="translate(82,80)"
       id="path128" /><path
       d="M 0,0 C 3,1 3,1 4,3 4.070338,4.873796 4.084302,6.750011 4.0625,8.625 4.05348,9.6278906 4.044453,10.630781 4.035156,11.664063 4.0235547,12.434922 4.0119531,13.205781 4,14 3.67,14 3.34,14 3,14 0.88838269,4.5899772 0.88838269,4.5899772 0,0 Z"
       fill="#585c96"
       transform="translate(83,41)"
       id="path129" /><path
       d="m 0,0 c -4.7435444,2.2265616 -8.7225072,3.4614803 -14,4 0.33,-0.66 0.66,-1.32 1,-2 0.99,0 1.98,0 3,0 0,-0.66 0,-1.32 0,-2 3.6630523,-0.74926071 6.4235515,-1.2380014 10,0 z"
       fill="#af2946"
       transform="translate(212,124)"
       id="path130" /><path
       d="M 0,0 C 0.33,0.66 0.66,1.32 1,2 0.0625,4.625 0.0625,4.625 -1,7 -1.66,7 -2.32,7 -3,7 -3,6.34 -3,5.68 -3,5 -4.65,5.33 -6.3,5.66 -8,6 -5.6337999,3.3847262 -3.057952,1.7355944 0,0 Z"
       fill="#453f81"
       transform="translate(83,113)"
       id="path131" /><path
       d="M 0,0 C 2.31,0.66 4.62,1.32 7,2 7.12375,2.639375 7.2475,3.27875 7.375,3.9375 7.684375,4.9584375 7.684375,4.9584375 8,6 8.66,6.33 9.32,6.66 10,7 6.433255,7 5.8945632,6.3630804 3.3125,4.0625 2.6898828,3.5172266 2.0672656,2.9719531 1.4257812,2.4101563 0.95527344,1.9448047 0.48476562,1.4794531 0,1 0,0.67 0,0.34 0,0 Z"
       fill="#32468e"
       transform="translate(80,78)"
       id="path132" /><path
       d="M 0,0 C 2.625,0.625 2.625,0.625 5,2 5.33,3.32 5.66,4.64 6,6 1.545,4.02 1.545,4.02 -3,2 -2.01,1.34 -1.02,0.68 0,0 Z"
       fill="#e02431"
       transform="translate(76,77)"
       id="path133" /><path
       d="M 0,0 C 1.605171,0.08733576 3.2092166,0.19552224 4.8125,0.3125 6.1524805,0.39951172 6.1524805,0.39951172 7.5195312,0.48828125 10.30604,1.0631358 11.241358,1.8206856 13,4 11.35,4.33 9.7,4.66 8,5 7.67,4.34 7.34,3.68 7,3 4.6859378,2.2692435 2.3517113,1.5986174 0,1 0,0.67 0,0.34 0,0 Z"
       fill="#e5343f"
       transform="translate(224,63)"
       id="path134" /><path
       d="M 0,0 C 0,1.65 0,3.3 0,5 -1.8125,5.625 -1.8125,5.625 -4,6 -4.99,5.34 -5.98,4.68 -7,4 -2.25,0 -2.25,0 0,0 Z"
       fill="#3f4286"
       transform="translate(228,114)"
       id="path135" /><path
       d="M 0,0 C 3.4031274,1.0587507 6.0135323,2.0090215 9,4 8.34,5.32 7.68,6.64 7,8 4.35248,5.4221515 2.0556794,3.083519 0,0 Z"
       fill="#454d8f"
       transform="translate(291,91)"
       id="path136" /><path
       d="M 0,0 C 1.65,1.65 3.3,3.3 5,5 4.34,6.65 3.68,8.3 3,10 0.70366176,6.5554926 0.45983515,4.0618772 0,0 Z"
       fill="#fbd7d8"
       transform="translate(161,77)"
       id="path137" /><path
       d="M 0,0 C 1.32,0.66 2.64,1.32 4,2 1.2912066,3.3543967 -1.0093327,3.0650145 -4,3 -2.68,2.01 -1.36,1.02 0,0 Z m -8,3 c 1.32,0 2.64,0 4,0 0,0.66 0,1.32 0,2 -1.32,0 -2.64,0 -4,0 0,-0.66 0,-1.32 0,-2 z"
       fill="#f0181f"
       transform="translate(206,121)"
       id="path138" /><path
       d="M 0,0 C 0.66,1.32 1.32,2.64 2,4 0.35,5.32 -1.3,6.64 -3,8 -3.33,6.35 -3.66,4.7 -4,3 c 0.33,0.66 0.66,1.32 1,2 0.66,0 1.32,0 2,0 0.33,-1.65 0.66,-3.3 1,-5 z"
       fill="#df3c48"
       transform="translate(295,109)"
       id="path139" /><path
       d="M 0,0 C 0.33,0.66 0.66,1.32 1,2 -5.8971554,7.059081 -5.8971554,7.059081 -10.5,6.8125 -11.7375,6.4103125 -11.7375,6.4103125 -13,6 c 0,-0.33 0,-0.66 0,-1 0.904922,-0.1643555 0.904922,-0.1643555 1.828125,-0.3320313 C -5.0631501,3.4920287 -5.0631501,3.4920287 0,0 Z"
       fill="#f04248"
       transform="translate(49,76)"
       id="path140" /><path
       d="m 0,0 c 0.33,0 0.66,0 1,0 0.25,6.625 0.25,6.625 -2,10 -0.66,0 -1.32,0 -2,0 0.949339,-3.3543311 1.8974884,-6.692465 3,-10 z"
       fill="#533d79"
       transform="translate(171,100)"
       id="path141" /><path
       d="M 0,0 C 2,1.4375 2,1.4375 4,4 4.3544244,7.0282442 4.2334724,9.9648594 4,13 3.67,13 3.34,13 3,13 3,10.36 3,7.72 3,5 2.01,5 1.02,5 0,5 0,3.35 0,1.7 0,0 Z"
       fill="#b92943"
       transform="translate(295,95)"
       id="path142" /><path
       d="m 0,0 c 4.5480564,-0.17835515 7.8794254,0.00214565 12,2 0,0.33 0,0.66 0,1 C 10.186744,2.8864848 8.3743664,2.7588704 6.5625,2.625 5.0484961,2.5205859 5.0484961,2.5205859 3.5039063,2.4140625 2.6776172,2.2774219 1.8513281,2.1407812 1,2 0.67,1.34 0.34,0.68 0,0 Z"
       fill="#164da0"
       transform="translate(60,31)"
       id="path143" /><path
       d="M 0,0 C -2.125,2.0625 -2.125,2.0625 -5,4 -8.3125,3.75 -8.3125,3.75 -11,3 -3.7142857,-1.8571429 -3.7142857,-1.8571429 0,0 Z"
       fill="#493f7e"
       transform="translate(285,124)"
       id="path144" /><path
       d="M 0,0 C 1.32,0.66 2.64,1.32 4,2 1.03,4.475 1.03,4.475 -2,7 -1.125,2.25 -1.125,2.25 0,0 Z"
       fill="#1653a5"
       transform="translate(84,113)"
       id="path145" /><path
       d="M 0,0 C 2.31,0.33 4.62,0.66 7,1 7.33,2.32 7.66,3.64 8,5 4.6249633,3.8141763 2.3527727,2.7242631 0,0 Z"
       fill="#ee5158"
       transform="translate(279,87)"
       id="path146" /><path
       d="M 0,0 C 0.99,0 1.98,0 3,0 3.66,1.32 4.32,2.64 5,4 4.34,4 3.68,4 3,4 3,4.99 3,5.98 3,7 2.34,7 1.68,7 1,7 0.67,4.69 0.34,2.38 0,0 Z"
       fill="#f8b1b4"
       transform="translate(270,81)"
       id="path147" /><path
       d="M 0,0 C 2.64,0.66 5.28,1.32 8,2 7.67,2.66 7.34,3.32 7,4 4.69,3.67 2.38,3.34 0,3 0,2.01 0,1.02 0,0 Z"
       fill="#cd283b"
       transform="translate(140,124)"
       id="path148" /><path
       d="M 0,0 C 0.99,0.33 1.98,0.66 3,1 0.60490662,3.8993236 -1.3124524,4.5016828 -5,5 -3.35,3.35 -1.7,1.7 0,0 Z"
       fill="#f6989b"
       transform="translate(151,118)"
       id="path149" /><path
       d="M 0,0 C -1,2 -1,2 -3.3125,2.8125 -6,3 -6,3 -8.3125,1.5625 -8.869375,1.046875 -9.42625,0.53125 -10,0 -3.375,-1.125 -3.375,-1.125 0,0 Z"
       fill="#f9b5b8"
       transform="translate(208,119)"
       id="path150" /><path
       d="M 0,0 C 1.98,0.66 3.96,1.32 6,2 6.33,3.98 6.66,5.96 7,8 6.401875,7.236875 5.80375,6.47375 5.1875,5.6875 3.5304067,3.6516425 1.8970233,1.8021721 0,0 Z"
       fill="#dbc23b"
       transform="translate(249,45)"
       id="path151" /><path
       d="M 0,0 C 2.475,0.495 2.475,0.495 5,1 5.33,2.32 5.66,3.64 6,5 4.125,4.75 4.125,4.75 2,4 0.75,1.9375 0.75,1.9375 0,0 Z"
       fill="#e92029"
       transform="translate(76,40)"
       id="path152" /><path
       d="M 0,0 C 0.99,0.66 1.98,1.32 3,2 1,5 1,5 -1.625,5.6875 -2.800625,5.8421875 -2.800625,5.8421875 -4,6 c 0.33,-0.66 0.66,-1.32 1,-2 0.66,0 1.32,0 2,0 0.33,-1.32 0.66,-2.64 1,-4 z"
       fill="#4d7cbb"
       transform="translate(218,122)"
       id="path153" /><path
       d="M 0,0 C 0.66,0.33 1.32,0.66 2,1 0.02579865,3.5225906 -0.96745642,3.9929808 -4.1875,4.6875 -5.5796875,4.8421875 -5.5796875,4.8421875 -7,5 -4.6370734,2.474113 -3.3353749,1.1117916 0,0 Z"
       fill="#563c78"
       transform="translate(219,119)"
       id="path154" /><path
       d="M 0,0 C 2.3431213,0.25561323 4.678434,0.59270772 7,1 7.33,1.66 7.66,2.32 8,3 5.69,3 3.38,3 1,3 0.67,2.01 0.34,1.02 0,0 Z"
       fill="#fde8e8"
       transform="translate(281,91)"
       id="path155" /><path
       d="M 0,0 C 2,1.375 2,1.375 4,3 4,3.66 4,4.32 4,5 3.34,5 2.68,5 2,5 1.67,5.99 1.34,6.98 1,8 1,7.34 1,6.68 1,6 0.34,6 -0.32,6 -1,6 -0.67,4.02 -0.34,2.04 0,0 Z"
       fill="#c1344b"
       transform="translate(239,68)"
       id="path156" /><path
       d="M 0,0 C 1.2258984,0.29197266 1.2258984,0.29197266 2.4765625,0.58984375 3.4162891,0.82380859 3.4162891,0.82380859 4.375,1.0625 c -3.7264085,1.0470219 -7.1301304,1.0744206 -11,1 0,-0.66 0,-1.32 0,-2 C -3.9924961,-1.2537519 -2.8232094,-0.68563658 0,0 Z"
       fill="#ffdf62"
       transform="translate(244.625,46.9375)"
       id="path157" /></g></svg>
