<svg xmlns="http://www.w3.org/2000/svg" width="24" height="24" viewBox="0 0 24 24"><path fill="#b7a634" fill-rule="evenodd" d="M6.2 2.34c0 .28.04.35.22.38q.22.04.26.23c.02.11.18.33.35.48l.32.28.05 5.77c.03 3.17.07 5.78.08 5.79l.45.21c.23.1.51.27.61.38q.2.2.24.06c.03-.1.57-.13 2.35-.13 3.04 0 3.79-.13 4.62-.84.3-.26.74-.7.97-.97.35-.42.43-.6.54-1.26.08-.44.2-.82.29-.88.2-.15.2-.84.01-.84-.17 0-.22-.13-.31-.75a1.3 1.3 0 0 0-.4-.8 2 2 0 0 1-.4-.58c-.07-.28.17-.82.47-1.07.25-.2.41-1.44.33-2.46-.06-.64-.1-.77-.5-1.3-.66-.88-1.44-1.5-2-1.58q-.45-.08-.58-.27c-.11-.18-.27-.19-4.04-.19H6.2z"/></svg>