<svg xmlns="http://www.w3.org/2000/svg" width="24" height="24"><path fill="#000449" fill-rule="evenodd" d="M10.48 2.14c-.2.1-.49.13-1.05.09-1.76-.12-3.45.67-3.89 1.82-.2.52-.12 1.1.16 1.25.3.16.75.12.93-.08.15-.16.15-.19-.03-.3-.24-.15-.27-.7-.06-1.11.44-.85 1.92-1.5 2.84-1.25.21.06.2.1-.32.63-.3.32-.7.82-.9 1.13-.29.46-.41.57-.71.62-.48.1-.65.44-.4.82.17.26.16.28-.2 1.1-.37.82-.47.95-.6.74-.12-.2-.64-.1-.96.18a1.3 1.3 0 0 0-.2 1.59l.23.37-.27.23a1 1 0 0 1-.52.23c-.25 0-.25-.01-.1-.18.23-.25.21-.59-.04-.72-.5-.27-1.04.25-.8.75.17.4.7.58 1.27.45.26-.06.55-.17.66-.24.17-.12.25-.12.56 0 .5.22 1.42.2 1.94-.04a3 3 0 0 0 1.5-3.65L9.33 6l.22-.1c.12-.06.46-.31.78-.55.33-.26.67-.44.82-.44h.26l-.34.47a4.5 4.5 0 0 0-.94 2.19c-.02.36 0 .7.07.82.36.67 1.47.15 2.27-1.06.4-.6.84-1.67.84-2.06 0-.28.59-.72 1.08-.82.17-.04.32-.04.32-.02s-.18.24-.4.47a3.5 3.5 0 0 0-.97 2.02c-.05.48-.03.6.16.78.94.94 2.86-1.51 2.28-2.91l-.15-.37.3-.1c.33-.12 1-.15 1.1-.05.04.03-.18.56-.48 1.16-.6 1.24-.66 1.6-.3 1.84.23.14.28.14.68-.04.24-.1.57-.34.75-.51.3-.3.33-.32.56-.16.13.08.38.17.55.18.28.02.3.03.15.2-.22.23-.6.34-4.73 1.37-2 .5-3.84 1-4.08 1.12q-.72.34-.72 1.13c0 .4.04.41.5.18.2-.09 2.13-.71 4.32-1.39a38 38 0 0 0 4.39-1.48c.22-.15.52-.45.67-.68.15-.22.44-.56.64-.76.42-.4.63-.9.53-1.3-.03-.13-.2-.45-.37-.7-.27-.4-.29-.46-.17-.73.09-.22.09-.33 0-.41-.14-.15-.41.07-.41.34 0 .1-.14.4-.3.64-.25.35-.37.44-.6.44-.5 0-.8.39-.8.99 0 .45-.03.52-.37.8-.85.7-.83.35.1-1.71l.75-1.63.62-.07c.79-.09.9-.13.9-.34 0-.14-.1-.16-.65-.12-.36.02-.65.02-.65 0l.1-.24c.14-.25.09-.3-.23-.23a.6.6 0 0 0-.36.3c-.1.24-.15.25-1.06.25H16l-.2.33-.2.32.28.03c.15.02.6-.01 1-.06l.72-.06-.16.36-.16.34-.67-.04q-.67-.04-1.02.1t-.59.06q-.46-.17-1.29.28l-.43.24-.25-.2c-.32-.25-.4-.25-.87 0a2 2 0 0 1-.77.17c-.35-.02-.38-.04-.31-.27.04-.14.07-.46.07-.72 0-.4-.05-.52-.34-.82-.33-.34-.33-.34-.12-.45.2-.11.29-.31.14-.3-.05 0-.2.05-.35.13m-.74 1.08c-.25.28-.63.88-.97 1.5l-.25.47.24.22c.24.22.26.22.52.07.7-.41 1.17-1.48.95-2.14-.12-.36-.25-.4-.5-.12m9.65 1.26c-.15.26-.15.28.08.55.13.16.24.35.24.43q.01.13.1.14c.15 0 .12-.78-.05-1.1a1 1 0 0 0-.18-.3q-.04.02-.19.28m-7.43.74c-.71.78-1.48 2.73-1.16 2.92.16.1.68-.42 1.06-1.03.38-.64.85-1.8.85-2.11 0-.33-.35-.23-.75.22m2.85-.05c-.58.66-1.1 2.1-.82 2.27.19.11.74-.47 1.03-1.09.28-.59.4-1.55.2-1.55-.05 0-.24.17-.41.37m3.52-.07c-.12.12-.22.3-.22.43 0 .2.03.19.3-.13.16-.2.3-.38.3-.42 0-.14-.16-.08-.38.12m.28.51c-.33.5-.33.52-.15.65q.35.25.76.04c.32-.18.2-1.2-.14-1.2-.07 0-.28.23-.47.51m-10.25.56c-.28.04-.34.13-.8 1.14-.26.6-.68 1.4-.91 1.76l-.44.65.6-.04c.82-.06 1.34-.43 1.77-1.25.17-.34.35-.82.38-1.06.07-.43-.1-1.29-.23-1.25zM5.3 8.6c0 .28.18.71.3.71.08 0 .4-.5.4-.65q-.02-.05-.2-.05c-.1 0-.22-.04-.25-.1-.1-.17-.25-.11-.25.1m-.88 3.37a1.65 1.65 0 0 0-.57 2.4c.1.13.35.33.57.44a1.6 1.6 0 0 0 2.23-.85c.52-1.36-.92-2.64-2.23-2m6.49.14c-.2.11-.09.45.14.45q.2 0 .23-.21c.03-.23-.17-.37-.37-.24m2.9.05c-.16.18-.07.45.12.45.08 0 .2-.07.27-.15.1-.12.1-.18 0-.3-.16-.19-.24-.19-.4 0m-9.22.2c-.15.09-.35.29-.43.45-.55 1.07.5 2.2 1.55 1.65q.6-.3.6-1.03c0-.94-.91-1.5-1.72-1.06m4.92.29q0 .34-.12.33t-.16.14q-.02.16.1.18c.12 0 .17.18.2.7.06.82.2 1.02.62.98.38-.04.49-.35.14-.4-.2-.03-.23-.09-.26-.65-.03-.62-.02-.63.23-.63q.26 0 .25-.18 0-.19-.22-.18c-.19 0-.24-.05-.26-.31-.03-.27-.07-.33-.28-.33-.2 0-.24.05-.24.35m-2.44.33C7.03 13 7 13.7 7 14.52c0 1.5 0 1.5.23 1.46.2-.03.22-.08.22-.6q0-.82.2-.48c.03.06.24.1.46.1 1.19 0 1.38-1.77.23-2.06-.15-.04-.4-.02-.55.03s-.3.08-.34.05c-.08-.08-.33-.11-.4-.04m3.83.85c-.04 1.06-.01 1.2.2 1.15.14-.03.17-.19.17-1.02 0-.85-.02-1-.17-1.02-.14-.02-.17.1-.2.9m1.16-.75c-.37.22-.59.7-.5 1.07.04.15.2.4.36.55q.54.53 1.3.08c.32-.2.33-.22.15-.35-.16-.12-.21-.12-.35.01a.7.7 0 0 1-.42.15c-.6 0-.8-.9-.25-1.2.24-.13.3-.13.55 0 .3.18.52.16.52-.04 0-.16-.53-.46-.82-.46-.12 0-.37.09-.54.19m1.76.88c0 .96.01 1.03.2 1.03s.2-.07.2-1.03-.01-1.03-.2-1.03-.2.07-.2 1.03m1.25-.96c-.5.29-.71 1-.45 1.5.22.4 1.1.64 1.38.37q.13-.15.21.01.1.12.25.08c.24-.1.2-2.04-.04-1.98-.17.05-.3.04-.8-.04-.2-.03-.44 0-.55.06m1.89.03a6 6 0 0 0-.02 1.02c.03.81.05.89.23.89s.2-.08.23-.7c.03-.76.13-.95.47-.95s.44.2.47.95c.03.62.05.7.23.7s.2-.08.23-.65c.02-.74-.1-1.07-.5-1.3-.22-.12-.33-.12-.57-.03-.16.06-.32.08-.36.05-.11-.12-.36-.1-.41.02m2.3.1c-.4.4-.3.68.37 1q.76.4-.08.41-.77.02-.39.3c.3.22.92.19 1.16-.05.38-.38.2-.83-.4-1.01-.3-.09-.4-.18-.4-.32 0-.17.05-.19.39-.13.3.04.4.02.45-.1q.06-.15-.2-.24c-.4-.16-.63-.12-.9.15m-11.52.3c-.28.2-.3.75-.04.98.42.38 1.02.08 1.02-.5 0-.33-.29-.63-.6-.63a1 1 0 0 0-.38.16m7.38.04a.64.64 0 0 0 .47 1.1c.23 0 .63-.43.63-.67 0-.21-.46-.63-.7-.63a.7.7 0 0 0-.4.2"/></svg>