<svg xmlns="http://www.w3.org/2000/svg" width="24" height="24"><path fill="#60bc01" fill-rule="evenodd" d="M13.4 3.24c0 1.24.07 1.5.33 1.27q.13-.09.27 0c.55.34 1.2-.17 1.2-.94 0-.51-.33-.87-.79-.87-.2 0-.42.05-.49.12-.1.1-.12.02-.12-.35 0-.4-.03-.47-.2-.47-.19 0-.2.07-.2 1.24m2.1.76c0 1.09.02 1.3.15 1.3.11 0 .15-.12.15-.47 0-.37.03-.44.12-.35.07.07.29.12.5.12.49 0 .78-.36.78-.95 0-.57-.3-.95-.74-.95-.17 0-.38.06-.45.13q-.13.15-.18 0a.2.2 0 0 0-.19-.13c-.11 0-.14.25-.14 1.3m-1.54-.88c-.34.48-.14 1.18.34 1.18q.51.01.5-.74c0-.6-.53-.88-.84-.44m2.24-.15c-.43.15-.55.88-.2 1.23.42.42.83.12.78-.58-.03-.47-.28-.75-.58-.65M11.6 6l-.31.6-.48-.4c-.26-.22-.52-.4-.58-.4s-.14.17-.17.38l-.12.63-.05.26-.66-.24-.66-.24.07.55c.03.3.09.61.12.7.05.14-.04.16-.65.16-.39 0-.71.04-.71.08 0 .05.15.34.34.64l.34.57-.52.16c-.82.26-.86.3-.5.63.16.15.4.35.54.45q.21.15.2.2c-.55.42-1 .81-1 .87s.29.18.64.31l.63.23-.33.55c-.19.31-.34.6-.34.64s.32.07.71.07c.6 0 .7.02.65.16-.03.09-.09.4-.12.7l-.07.55.66-.24.66-.24.05.26.12.64c.03.2.1.4.13.42.04.02.3-.16.6-.41.45-.4.52-.44.59-.27A4 4 0 0 0 12 16c.03 0 .2-.27.38-.6l.33-.6.52.44c.28.25.54.43.58.4s.1-.26.14-.52c.12-.86.07-.82.82-.55l.66.24-.06-.46-.13-.7c-.06-.25-.06-.25.65-.25.39 0 .71-.03.71-.07s-.15-.34-.34-.65l-.35-.57.53-.16c.8-.25.86-.31.56-.58l-.55-.45-.3-.23.3-.23c.76-.6.8-.65.66-.75a4 4 0 0 0-.68-.26l-.53-.17.2-.32.34-.61.16-.3-.71-.03c-.7-.03-.7-.03-.65-.27.04-.14.1-.45.13-.7l.06-.46-.67.24c-.36.14-.68.22-.7.18a5 5 0 0 1-.1-.63c-.04-.32-.1-.6-.15-.62s-.3.15-.58.4l-.51.44-.3-.54c-.17-.3-.35-.57-.4-.6s-.24.21-.41.54m-.01 3.2v.42l-.26-.32q-.5-.57-.2.14c.08.2.13.36.11.36l-.4-.21q-.63-.37-.08.23l.28.29-.45-.06-.45-.07.25.21c.14.11.32.21.4.22.08 0-.05.07-.3.14q-.7.2.15.27l.3.03-.39.23q-.68.42.08.24.63-.19.11.28c-.37.35-.3.45.12.2l.36-.24-.06.26-.13.45q-.03.15.25-.17l.31-.34v.44q0 .7.26-.03l.11-.32.19.4.18.4.04-.43.03-.42.26.3q.48.57.2-.14c-.1-.2-.14-.36-.12-.36l.4.21q.63.37.08-.24l-.28-.3.45.08c.4.07.43.06.31-.08a1 1 0 0 0-.32-.22c-.27-.09-.13-.25.22-.25.16 0 .29-.04.29-.1q-.02-.09-.22-.1c-.22 0-.63-.2-.43-.2a1 1 0 0 0 .35-.2l.25-.21-.45.07-.45.06.21-.23q.6-.66 0-.31c-.2.12-.39.22-.41.22s.03-.16.11-.36q.3-.7-.2-.14l-.26.32v-.44c0-.4-.02-.42-.15-.24a1 1 0 0 0-.15.38c0 .3-.18.2-.25-.12-.1-.46-.25-.46-.25 0"/></svg>