<svg xmlns="http://www.w3.org/2000/svg" width="24" height="24" viewBox="0 0 24 24"><path fill="#cecbb6" fill-rule="evenodd" d="M11 5.97c-.25.02-.69.08-.98.14-.46.1-.56.16-.84.56-.25.37-.27.45-.12.39.78-.33 1.32-.38 3.09-.32 5.3.18 5.88.18 6.63.02.4-.08.96-.27 1.25-.4.38-.2.44-.24.22-.2-1.53.3-2.44.3-5.3.05A29 29 0 0 0 11 5.97m-8 .2c0 .04.09.14.2.2.19.12.2.24.2 1.78s-.01 1.66-.2 1.77q-.18.12-.2.2c0 .05.5.08 1.11.08 1.25 0 1.7-.14 1.94-.6.3-.6.07-1.38-.46-1.55-.19-.06-.19-.07.04-.26.46-.35.37-1.22-.15-1.5C5.21 6.14 3 6.03 3 6.16m1.1.99v.65h.44c.52 0 .7-.17.7-.67q.01-.65-.76-.63H4.1zm3.3.4c-.29.26-.3.26-.3.06 0-.18-.06-.21-.4-.21-.4 0-.53.13-.25.24.12.04.15.29.15 1.31v1.26l.28-.03.27-.03.05-.98c.05-.9.07-1 .3-1.19a.6.6 0 0 1 .52-.14q.28.06.37-.13c.24-.44-.5-.56-.98-.15m1.52-.06q-.64.37-.63 1.33c0 1 .74 1.64 1.58 1.38q.77-.23.7-.61l-.03-.22-.27.21q-.66.53-1.12.08a.8.8 0 0 1-.26-.57v-.3h1.8v-.26c0-.96-.97-1.53-1.77-1.04m1.57-.11q.02.09.15.14c.08.04.32.63.56 1.37.25.8.46 1.3.54 1.3s.25-.35.41-.87c.16-.49.3-.91.34-.96s.2.35.35.88c.16.56.33.95.4.95s.25-.36.4-.82c.5-1.52.66-1.88.81-1.88q.13 0 .09-.1c-.03-.05-.24-.1-.45-.1s-.42.05-.45.1q-.04.09.04.1.1.02.11.15A5 5 0 0 1 13.4 9c-.03 0-.14-.3-.24-.67-.27-.97-.31-1.03-.71-1.03q-.53 0-.24.27c.09.08.06.3-.11.85l-.23.73-.23-.75q-.23-.74-.14-.84c.2-.2.09-.26-.45-.26-.3 0-.55.04-.55.09m4.44.1c-.89.54-.84 2.15.07 2.62.47.24.63.24 1.17 0 .34-.16.42-.25.42-.46v-.26l-.32.22c-.37.26-.91.3-1.13.08a1 1 0 0 1-.22-.52l-.06-.37h1.83v-.3c0-.94-.97-1.5-1.76-1.01m2.97.07c-.3.25-.31.25-.31.05 0-.18-.06-.21-.4-.21-.21 0-.42.04-.45.1q-.04.09.08.1c.23 0 .27.23.27 1.46 0 1.13 0 1.14.24 1.14s.24-.03.28-.96c.04-.91.06-.98.32-1.2.21-.2.35-.24.56-.19s.31.02.4-.14c.08-.16.07-.22-.1-.3-.3-.17-.56-.13-.9.15m1.53-.16c-.27.11-.43.4-.43.78 0 .36.2.55.84.79q.85.3.6.7c-.22.36-.98.28-1.16-.12Q19.02 9 19 9.7c0 .38.02.4.42.5.81.22 1.58-.19 1.58-.84 0-.45-.17-.63-.85-.89-.43-.17-.6-.29-.63-.43-.07-.45.55-.56.94-.17.15.16.17.16.3-.02.2-.27.18-.32-.17-.44a1.8 1.8 0 0 0-1.16 0m-10.1.3a.7.7 0 0 0-.43.63c0 .13.13.16.65.16.36 0 .65-.02.65-.04l-.1-.33c-.13-.35-.46-.54-.77-.42m6 0a.7.7 0 0 0-.43.63c0 .13.13.16.65.16.36 0 .65-.02.65-.05s-.06-.2-.14-.39q-.23-.54-.73-.35M4.13 9l.02.84h.47c.63-.01.88-.24.88-.8 0-.54-.24-.76-.9-.83l-.5-.05zm-.72 2.5c0 .56.12.67.57.52.66-.22.47-1.03-.24-1.03H3.4zm1.14-.36a2 2 0 0 0-.02.52c.03.38.04.39.42.39.5 0 .63-.25.14-.26-.3 0-.3-.02-.09-.08.35-.1.39-.31.06-.31q-.24 0-.2-.1c.03-.05.17-.1.3-.1.14 0 .25-.04.25-.1 0-.16-.8-.12-.86.04m1.12.01c-.37.38.03 1.06.54.9.3-.1.25-.34-.07-.32-.22.02-.29-.03-.31-.2-.03-.23.04-.27.42-.23q.17 0 .14-.12c-.07-.2-.53-.21-.72-.03m1.06-.03c-.21.21-.14.66.13.84.5.33 1.04-.2.7-.71-.17-.27-.62-.34-.83-.13m1.08.37c0 .53.15.76.28.41l.08-.21.18.2c.1.12.22.21.25.21.04 0 .07-.24.06-.52v-.53l-.43-.03-.42-.03zm1.3-.07c-.1.23-.2.49-.2.56 0 .17.2.15.26-.03.08-.2.34-.19.5.02q.12.16.2.1c.1-.1-.27-1-.44-1.05-.07-.02-.2.15-.32.4m.8-.32q.01.1.14.1.15 0 .18.43c.04.56.22.54.28-.03.03-.25.1-.44.15-.42q.09.03.13-.07.01-.1-.42-.11c-.25 0-.46.05-.46.1m1.04.15c-.2.3-.1.63.23.76.5.19.97-.33.68-.77a.54.54 0 0 0-.9 0m1.15.25c0 .52.17.79.27.41l.06-.21.23.22c.25.24.45.2.25-.05-.1-.11-.1-.19 0-.34.18-.29-.04-.52-.47-.52h-.34zm1.75-.26c-.31.47.11 1 .62.77.3-.14.22-.3-.12-.24q-.25.06-.31-.11c-.08-.2.13-.46.34-.43q.17 0 .22-.08c.03-.05-.1-.11-.27-.13-.25-.02-.35.02-.48.22m.97.29.03.52h.4c.22 0 .4-.05.43-.12q.03-.13-.27-.13c-.17 0-.31-.04-.31-.1 0-.05.1-.09.21-.07.12 0 .24-.04.26-.1q.04-.12-.22-.13-.24 0-.2-.1c.03-.05.15-.1.26-.1q.17 0 .19-.1c0-.05-.18-.1-.4-.1h-.41zm1 0c.03.53.2.68.26.22l.03-.25.26.3c.13.17.29.28.34.24.05-.03.09-.27.09-.55 0-.37-.04-.49-.15-.49q-.15 0-.15.28v.27l-.21-.28q-.51-.67-.47.26m1.08-.44q.02.08.15.15.15.05.15.47c0 .56.23.47.3-.12.03-.24.1-.43.15-.4q.09.01.13-.08.02-.1-.42-.11c-.25 0-.46.04-.46.09m1 .4c0 .52.17.79.27.41l.06-.21.23.22c.25.24.45.2.25-.05-.1-.11-.1-.19 0-.34.18-.29-.04-.52-.47-.52h-.34zm1.04-.36a2 2 0 0 0-.02.52c.03.38.04.39.42.39.23 0 .41-.05.44-.12q.04-.13-.29-.13-.29 0-.25-.07a.4.4 0 0 1 .23-.08q.16-.02.2-.12.04-.12-.22-.13-.24 0-.2-.1c.03-.05.17-.1.3-.1q.23 0 .25-.1c0-.16-.8-.12-.86.04m1.03-.07c-.16.15-.06.44.18.53.3.12.33.22.03.18-.28-.04-.35.18-.07.25.51.14.79-.37.31-.58-.27-.12-.3-.29-.02-.2q.2.08.2-.1c0-.15-.5-.22-.63-.08m-13.07.28c-.1.12-.1.18 0 .3.16.2.39.2.46 0 .06-.15-.11-.45-.26-.45q-.08.01-.2.15m4.3 0c-.16.2-.06.45.19.45.23 0 .35-.28.2-.46s-.24-.18-.39 0"/></svg>