<?xml version="1.0" encoding="UTF-8" standalone="no"?>
<svg
   viewBox="0 0 18.040001 21.999998"
   width="18.040001pt"
   height="21.999998pt"
   version="1.1"
   id="svg1"
   sodipodi:docname="pink_master_pin.svg"
   xml:space="preserve"
   xmlns:inkscape="http://www.inkscape.org/namespaces/inkscape"
   xmlns:sodipodi="http://sodipodi.sourceforge.net/DTD/sodipodi-0.dtd"
   xmlns="http://www.w3.org/2000/svg"
   xmlns:svg="http://www.w3.org/2000/svg"><defs
     id="defs1" /><sodipodi:namedview
     id="namedview1"
     pagecolor="#ffffff"
     bordercolor="#000000"
     borderopacity="0.25"
     inkscape:showpageshadow="2"
     inkscape:pageopacity="0.0"
     inkscape:pagecheckerboard="0"
     inkscape:deskcolor="#d1d1d1"
     inkscape:document-units="pt"
     inkscape:lockguides="true"><inkscape:page
       x="0"
       y="0"
       width="18.040001"
       height="21.999998"
       id="page2"
       margin="0"
       bleed="0" /></sodipodi:namedview><g
     id="g1"
     transform="matrix(0.03610327,0,0,0.03610327,0.49698952,0.75081272)"><path
       d="m 44.725772,109.45114 c 1.371327,-0.006 2.742654,-0.012 4.155537,-0.0182 2.279929,0.008 2.279929,0.008 4.605921,0.0156 1.62043,-0.003 3.24086,-0.006 4.86129,-0.0109 4.46854,-0.01 8.93697,-0.005 13.40551,0.002 4.81299,0.005 9.62597,-0.003 14.43896,-0.009 9.43486,-0.0103 18.86967,-0.008 28.30453,-10e-4 7.66492,0.005 15.32983,0.006 22.99476,0.003 1.08909,-3.5e-4 2.17818,-7.1e-4 3.30027,-0.001 2.21217,-7.4e-4 4.42434,-0.001 6.6365,-0.002 20.76486,-0.007 41.52971,10e-4 62.29458,0.0134 17.83415,0.0103 35.66828,0.009 53.50244,-0.002 20.68835,-0.0123 41.37667,-0.0172 62.06501,-0.0101 2.20422,7.3e-4 4.40846,10e-4 6.61269,0.002 1.08464,3.6e-4 2.16929,7.1e-4 3.2868,0.001 7.6596,0.002 15.31919,-0.001 22.9788,-0.007 9.32891,-0.006 18.65779,-0.005 27.98669,0.008 4.76374,0.006 9.5274,0.008 14.29114,8e-4 4.3551,-0.007 8.71005,-0.003 13.06514,0.009 2.33414,0.004 4.66827,-0.004 7.0024,-0.0117 1.37131,0.006 2.74265,0.012 4.15553,0.0182 1.19101,3.8e-4 2.38201,7.5e-4 3.60911,0.001 2.80189,0.28876 2.80189,0.28876 5.10551,2.59238 0.22782,3.2148 0.31006,6.31544 0.29251,9.53166 0.003,0.99748 0.007,1.99495 0.0104,3.02266 0.009,3.36204 0.002,6.72385 -0.006,10.0859 0.003,2.40232 0.007,4.80464 0.0122,7.20695 0.0104,6.53945 0.007,13.0788 -8.8e-4,19.61825 -0.006,6.83039 -4.3e-4,13.66077 0.003,20.49116 0.005,11.47235 -0.001,22.94466 -0.0123,34.41701 -0.0125,13.2804 -0.008,26.56071 0.005,39.8411 0.0104,11.38407 0.012,22.76811 0.006,34.15218 -0.003,6.80718 -0.005,13.61432 0.003,20.42151 0.007,6.39837 0.002,12.79665 -0.0115,19.19503 -0.003,2.35415 -0.002,4.70832 0.003,7.06248 0.006,3.20203 -0.001,6.40372 -0.0131,9.60572 0.005,0.94182 0.0104,1.88364 0.0156,2.85401 -0.0452,6.41469 -0.0452,6.41469 -2.6117,8.98127 -2.80189,0.28875 -2.80189,0.28875 -6.411,0.28988 -1.37133,0.006 -2.74266,0.012 -4.15554,0.0182 -1.51996,-0.005 -3.03991,-0.0104 -4.60592,-0.0156 -1.62043,0.002 -3.24086,0.006 -4.86128,0.0104 -4.46854,0.009 -8.93698,0.005 -13.40553,-0.002 -4.81299,-0.006 -9.62597,0.002 -14.43896,0.009 -9.43485,0.0104 -18.86966,0.008 -28.30452,0.001 -7.66493,-0.006 -15.32984,-0.006 -22.99475,-0.003 -1.63365,5.3e-4 -1.63365,5.3e-4 -3.30029,0.001 -2.21216,7.3e-4 -4.42433,10e-4 -6.63649,0.002 -20.76487,0.007 -41.52971,-0.001 -62.29457,-0.0134 -17.83417,-0.0104 -35.66829,-0.008 -53.50246,0.002 -20.68833,0.0123 -41.37666,0.0172 -62.065,0.0104 -2.20423,-7.4e-4 -4.40846,-10e-4 -6.61269,-0.002 -1.08464,-3.5e-4 -2.16929,-7.1e-4 -3.2868,-10e-4 -7.65961,-0.002 -15.31919,10e-4 -22.9788,0.007 -9.32891,0.007 -18.65778,0.005 -27.9867,-0.008 -4.76373,-0.006 -9.52739,-0.008 -14.29113,-8e-4 -4.3551,0.007 -8.71006,0.003 -13.06515,-0.009 -2.33413,-0.003 -4.668266,0.003 -7.002384,0.0116 -1.371004,-0.006 -2.742331,-0.0115 -4.155214,-0.0174 -1.191008,-3.7e-4 -2.382016,-7.3e-4 -3.609115,-0.001 -2.801885,-0.28875 -2.801885,-0.28875 -5.105501,-2.59237 -0.227828,-3.2148 -0.310069,-6.31544 -0.292521,-9.53166 -0.0036,-0.99748 -0.0072,-1.99495 -0.01089,-3.02265 -0.0092,-3.36205 -0.0019,-6.72387 0.0053,-10.08591 -0.0031,-2.40232 -0.0072,-4.80464 -0.01223,-7.20696 -0.01054,-6.53943 -0.0064,-13.07879 8.73e-4,-19.61824 0.0058,-6.83039 4.28e-4,-13.66077 -0.0032,-20.49116 -0.0042,-11.47235 0.0013,-22.94466 0.0123,-34.41702 0.01254,-13.28039 0.0085,-26.56071 -0.0042,-39.8411 -0.01044,-11.38406 -0.01194,-22.7681 -0.0059,-34.15217 0.0036,-6.80718 0.0041,-13.61433 -0.0035,-20.4215 -0.0066,-6.39839 -0.0021,-12.79666 0.01128,-19.19503 0.0031,-2.35417 0.0022,-4.70833 -0.0029,-7.06249 -0.0063,-3.20203 0.0015,-6.40372 0.01308,-9.60572 -0.0051,-0.94183 -0.01027,-1.88365 -0.01557,-2.85401 0.05454,-7.75235 1.367758,-9.26876 9.022698,-9.27116 z"
       fill="#e30d19"
       id="path2"
       style="stroke-width:1.15181" /><path
       d="m 44.073812,238.74351 c 73.738738,0 147.477488,0 223.450738,0 -4.60724,3.45543 -4.60724,3.45543 -6.91085,4.60724 0.49887,1.17592 0.49887,1.17592 1.00783,2.3756 1.44088,3.7623 2.53338,7.56272 3.5994,11.44609 0.90422,-0.45879 1.80843,-0.91758 2.74005,-1.39027 6.31774,-3.18601 12.63365,-6.20294 19.1443,-8.976 2.9547,-1.52114 5.90036,-3.05563 8.83203,-4.62073 2.68605,-1.13831 2.68605,-1.13831 7.29328,-1.13831 0,-0.76019 0,-1.52039 0,-2.30362 7.32624,0.48951 12.06291,2.24748 18.28495,6.047 1.60816,0.94219 3.21738,1.88254 4.8277,2.82102 1.15839,0.68234 1.15839,0.68234 2.34016,1.37846 2.91624,1.69284 5.88132,3.26827 8.88546,4.79901 1.29397,0.66146 1.29397,0.66146 2.61407,1.33628 2.34558,1.11167 2.34558,1.11167 5.66455,0.89535 1.90049,-3.80096 3.80097,-7.60193 5.75904,-11.51808 -2.66067,-1.14029 -5.32135,-2.28058 -8.06265,-3.45542 0,-0.76019 0,-1.52039 0,-2.30362 26.98686,0 53.97372,0 81.77836,0 0,37.24947 0,74.49894 0,112.87718 -125.81198,0 -251.62396,0 -381.248418,0 0,-37.24947 0,-74.49894 0,-112.87718 z"
       fill="#050505"
       id="path3"
       style="stroke-width:1.15181" /><path
       d="m 44.725772,109.45114 c 1.371327,-0.006 2.742654,-0.012 4.155537,-0.0182 2.279929,0.008 2.279929,0.008 4.605921,0.0156 1.62043,-0.003 3.24086,-0.006 4.86129,-0.0109 4.46854,-0.01 8.93697,-0.005 13.40551,0.002 4.81299,0.005 9.62597,-0.003 14.43896,-0.009 9.43486,-0.0103 18.86967,-0.008 28.30453,-10e-4 7.66492,0.005 15.32983,0.006 22.99476,0.003 1.08909,-3.5e-4 2.17818,-7.1e-4 3.30027,-0.001 2.21217,-7.4e-4 4.42434,-0.001 6.6365,-0.002 20.76486,-0.007 41.52971,10e-4 62.29458,0.0134 17.83415,0.0103 35.66828,0.009 53.50244,-0.002 20.68835,-0.0123 41.37667,-0.0172 62.06501,-0.0101 2.20422,7.3e-4 4.40846,10e-4 6.61269,0.002 1.08464,3.6e-4 2.16929,7.1e-4 3.2868,0.001 7.6596,0.002 15.31919,-0.001 22.9788,-0.007 9.32891,-0.006 18.65779,-0.005 27.98669,0.008 4.76374,0.006 9.5274,0.008 14.29114,8e-4 4.3551,-0.007 8.71005,-0.003 13.06514,0.009 2.33414,0.004 4.66827,-0.004 7.0024,-0.0117 1.37131,0.006 2.74265,0.012 4.15553,0.0182 1.19101,3.8e-4 2.38201,7.5e-4 3.60911,0.001 2.80189,0.28876 2.80189,0.28876 5.10551,2.59238 0.22782,3.2148 0.31006,6.31544 0.29251,9.53166 0.003,0.99748 0.007,1.99495 0.0104,3.02266 0.009,3.36204 0.002,6.72385 -0.006,10.0859 0.003,2.40232 0.007,4.80464 0.0122,7.20695 0.0104,6.53945 0.007,13.0788 -8.8e-4,19.61825 -0.006,6.83039 -4.3e-4,13.66077 0.003,20.49116 0.005,11.47235 -0.001,22.94466 -0.0123,34.41701 -0.0125,13.2804 -0.008,26.56071 0.005,39.8411 0.0104,11.38407 0.012,22.76811 0.006,34.15218 -0.003,6.80718 -0.005,13.61432 0.003,20.42151 0.007,6.39837 0.002,12.79665 -0.0115,19.19503 -0.003,2.35415 -0.002,4.70832 0.003,7.06248 0.006,3.20203 -0.001,6.40372 -0.0131,9.60572 0.005,0.94182 0.0104,1.88364 0.0156,2.85401 -0.0452,6.41469 -0.0452,6.41469 -2.6117,8.98127 -2.80189,0.28875 -2.80189,0.28875 -6.411,0.28988 -1.37133,0.006 -2.74266,0.012 -4.15554,0.0182 -1.51996,-0.005 -3.03991,-0.0104 -4.60592,-0.0156 -1.62043,0.002 -3.24086,0.006 -4.86128,0.0104 -4.46854,0.009 -8.93698,0.005 -13.40553,-0.002 -4.81299,-0.006 -9.62597,0.002 -14.43896,0.009 -9.43485,0.0104 -18.86966,0.008 -28.30452,0.001 -7.66493,-0.006 -15.32984,-0.006 -22.99475,-0.003 -1.63365,5.3e-4 -1.63365,5.3e-4 -3.30029,0.001 -2.21216,7.3e-4 -4.42433,10e-4 -6.63649,0.002 -20.76487,0.007 -41.52971,-0.001 -62.29457,-0.0134 -17.83417,-0.0104 -35.66829,-0.008 -53.50246,0.002 -20.68833,0.0123 -41.37666,0.0172 -62.065,0.0104 -2.20423,-7.4e-4 -4.40846,-10e-4 -6.61269,-0.002 -1.08464,-3.5e-4 -2.16929,-7.1e-4 -3.2868,-10e-4 -7.65961,-0.002 -15.31919,10e-4 -22.9788,0.007 -9.32891,0.007 -18.65778,0.005 -27.9867,-0.008 -4.76373,-0.006 -9.52739,-0.008 -14.29113,-8e-4 -4.3551,0.007 -8.71006,0.003 -13.06515,-0.009 -2.33413,-0.003 -4.668266,0.003 -7.002384,0.0116 -1.371004,-0.006 -2.742331,-0.0115 -4.155214,-0.0174 -1.191008,-3.7e-4 -2.382016,-7.3e-4 -3.609115,-0.001 -2.801885,-0.28875 -2.801885,-0.28875 -5.105501,-2.59237 -0.227828,-3.2148 -0.310069,-6.31544 -0.292521,-9.53166 -0.0036,-0.99748 -0.0072,-1.99495 -0.01089,-3.02265 -0.0092,-3.36205 -0.0019,-6.72387 0.0053,-10.08591 -0.0031,-2.40232 -0.0072,-4.80464 -0.01223,-7.20696 -0.01054,-6.53943 -0.0064,-13.07879 8.73e-4,-19.61824 0.0058,-6.83039 4.28e-4,-13.66077 -0.0032,-20.49116 -0.0042,-11.47235 0.0013,-22.94466 0.0123,-34.41702 0.01254,-13.28039 0.0085,-26.56071 -0.0042,-39.8411 -0.01044,-11.38406 -0.01194,-22.7681 -0.0059,-34.15217 0.0036,-6.80718 0.0041,-13.61433 -0.0035,-20.4215 -0.0066,-6.39839 -0.0021,-12.79666 0.01128,-19.19503 0.0031,-2.35417 0.0022,-4.70833 -0.0029,-7.06249 -0.0063,-3.20203 0.0015,-6.40372 0.01308,-9.60572 -0.0051,-0.94183 -0.01027,-1.88365 -0.01557,-2.85401 0.05454,-7.75235 1.367758,-9.26876 9.022698,-9.27116 z m -0.65196,8.35255 c 0,37.24946 0,74.49893 0,112.87717 43.210738,0.23498 43.210738,0.23498 86.421588,0.39369 17.62638,0.0478 35.25244,0.10389 52.87856,0.21456 12.83816,0.0805 25.67609,0.13241 38.51451,0.15035 6.7938,0.0104 13.58687,0.035 20.38044,0.0939 6.4043,0.0551 12.80758,0.0715 19.21208,0.0596 2.34098,0.002 4.68201,0.0181 7.02278,0.0492 12.98093,0.16392 22.61016,-0.43977 33.79673,-7.40473 3.23371,-1.61904 3.23371,-1.61904 6.40363,-1.38705 2.93832,1.04388 4.79161,2.47968 7.23628,4.40505 9.21797,5.67548 19.97569,4.27638 30.41999,4.1005 2.0238,-0.0104 4.04762,-0.0172 6.07145,-0.0211 7.45189,-0.036 14.90337,-0.13251 22.35481,-0.22187 25.0151,-0.2138 25.0151,-0.2138 50.53557,-0.43193 0,-37.24946 0,-74.49893 0,-112.87717 -125.81198,0 -251.62395,0 -381.248418,0 z m 0,120.93982 c 0,37.24947 0,74.49894 0,112.87718 125.811978,0 251.623958,0 381.248418,0 0,-37.24947 0,-74.49894 0,-112.87718 -26.98686,0 -53.97372,0 -81.77836,0 0,0.7602 0,1.52039 0,2.30362 2.66068,1.14029 5.32135,2.28058 8.06266,3.45542 -1.90049,3.80097 -3.80097,7.60194 -5.75904,11.51808 -4.89892,-0.97978 -7.67654,-1.9327 -11.95451,-4.20679 -1.15588,-0.60949 -2.31176,-1.21898 -3.50266,-1.84695 -1.1945,-0.63918 -2.38898,-1.27837 -3.61965,-1.93693 -2.37703,-1.25843 -4.75414,-2.51672 -7.13132,-3.77486 -1.04906,-0.55966 -2.09814,-1.11932 -3.179,-1.69593 -0.94495,-0.49898 -1.8899,-0.99794 -2.86349,-1.51204 -1.22924,-0.66494 -1.22924,-0.66494 -2.4833,-1.34331 -2.71827,-1.22902 -4.93567,-1.12405 -7.88297,-0.96031 0,0.7602 0,1.52039 0,2.30362 -0.81513,0.12323 -1.63025,0.24647 -2.47008,0.37344 -3.66563,0.86752 -6.51052,2.26202 -9.83986,4.01783 -5.32991,2.74034 -10.66314,5.11215 -16.2513,7.26629 -3.26396,1.30211 -6.34033,2.83192 -9.44842,4.46775 -1.53575,-4.60723 -3.07149,-9.21446 -4.60723,-13.82169 2.28058,-1.14029 4.56116,-2.28058 6.91085,-3.45543 0,-0.3801 0,-0.76019 0,-1.15181 -73.73874,0 -147.47749,0 -223.450738,0 z"
       fill="#f9f5f5"
       id="path4"
       style="stroke-width:1.15181" /><path
       d="m 197.26426,259.47606 c 10.64271,0 21.28541,0 32.25063,0 0,21.6655 0,43.33101 0,65.65305 1.90048,0.38009 3.80096,0.76019 5.75903,1.1518 0,1.52039 0,3.04078 0,4.60724 -1.1518,1.1518 -1.1518,1.1518 -4.666,1.28256 -1.55366,-1.8e-4 -3.10732,-0.007 -4.66094,-0.0183 -1.2247,-0.002 -1.2247,-0.002 -2.47415,-0.005 -2.61726,-0.006 -5.2344,-0.0209 -7.85163,-0.0356 -1.77045,-0.006 -3.54091,-0.011 -5.31136,-0.0157 -4.34857,-0.0127 -8.69705,-0.0326 -13.04558,-0.0562 0,-1.90048 0,-3.80096 0,-5.75904 1.52039,-0.76019 3.04078,-1.52038 4.60724,-2.30361 0,-18.62474 0,-37.24947 0,-56.43859 -1.52039,-0.76019 -3.04078,-1.52039 -4.60724,-2.30361 0,-1.90049 0,-3.80097 0,-5.75904 z"
       fill="#f5f5f5"
       id="path5"
       style="stroke-width:1.15181" /><path
       d="m 226.05946,140.83984 c 11.783,0 23.56599,0 35.70605,0 0.57014,2.28058 0.57014,2.28058 1.1518,4.60723 -2.28058,1.14029 -2.28058,1.14029 -4.60723,2.30362 0,19.00483 0,38.00966 0,57.59039 1.52039,0.7602 3.04078,1.52039 4.60723,2.30362 0,1.14029 0,2.28058 0,3.45542 -3.36555,1.68278 -6.33371,1.28006 -10.08731,1.26429 -1.14557,-0.002 -1.14557,-0.002 -2.31427,-0.005 -2.44109,-0.006 -4.88207,-0.0209 -7.32313,-0.0356 -1.65422,-0.006 -3.30844,-0.011 -4.96267,-0.0157 -4.05686,-0.0127 -8.11365,-0.0326 -12.17047,-0.0562 -0.3801,-1.52038 -0.76019,-3.04077 -1.15181,-4.60723 1.52039,-0.76019 3.04078,-1.52039 4.60724,-2.30362 0.38009,-19.38492 0.76019,-38.76985 1.1518,-58.7422 -1.90048,-0.3801 -3.80096,-0.76019 -5.75904,-1.15181 0.3801,-1.52038 0.7602,-3.04077 1.15181,-4.60723 z"
       fill="#fefcfc"
       id="path6"
       style="stroke-width:1.15181" /><path
       d="m 143.91694,140.70908 c 1.3451,0.006 2.69019,0.0121 4.07604,0.0183 1.45135,0.004 2.90269,0.007 4.39802,0.0112 1.54399,0.01 3.08799,0.0194 4.63198,0.0292 1.54849,0.006 3.09698,0.011 4.64547,0.0157 3.80267,0.0136 7.60523,0.0326 11.40785,0.0562 0.0101,1.20444 0.0101,1.20444 0.0205,2.43321 0.0666,7.55932 0.1496,15.11825 0.25102,22.67718 0.0516,3.88636 0.0968,7.77258 0.12753,11.65916 0.0385,4.46605 0.0987,8.93134 0.16338,13.39708 0.007,1.399 0.0147,2.79799 0.0223,4.23938 0.0228,1.29119 0.0456,2.58238 0.0691,3.9127 0.0128,1.14074 0.0256,2.28148 0.0388,3.45679 0.15156,0.8995 0.30311,1.79899 0.45926,2.72574 1.14029,0.76019 2.28058,1.52039 3.45542,2.30361 -0.38009,1.52039 -0.76019,3.04078 -1.15181,4.60724 -11.78299,0 -23.56598,0 -35.70604,0 -0.3801,-1.52039 -0.76019,-3.04078 -1.15181,-4.60724 0.93345,-0.30335 1.86689,-0.6067 2.82862,-0.91925 3.12002,-2.18947 3.12002,-2.18947 3.48991,-5.0806 0.22165,-3.47305 0.26757,-6.9107 0.25488,-10.39091 0.0174,-1.27339 0.0348,-2.54678 0.0528,-3.85876 0.0496,-4.07259 0.0596,-8.1442 0.0687,-12.21706 0.0266,-2.75882 0.0558,-5.51761 0.0877,-8.27637 0.0726,-6.76763 0.11267,-13.53488 0.12823,-20.30286 -1.90048,0 -3.80097,0 -5.75904,0 -0.64789,-2.23163 -0.64789,-2.23163 -1.15181,-4.60724 1.15181,-1.1518 1.15181,-1.1518 4.24308,-1.28256 z"
       fill="#fef8f9"
       id="path7"
       style="stroke-width:1.15181" /><path
       d="m 59.04732,259.47606 c 10.2626,0 20.52521,0 31.09881,0 0,23.94608 0,47.89217 0,72.56389 -10.26261,0 -20.52522,0 -31.09881,0 -0.3801,-1.52038 -0.7602,-3.04077 -1.15181,-4.60723 0.76019,-0.76019 1.52038,-1.52038 2.30361,-2.30361 1.14029,0 2.28058,0 3.45543,0 0,-19.38493 0,-38.76986 0,-58.74221 -1.52039,-0.38009 -3.04078,-0.76019 -4.60723,-1.1518 -0.3801,-1.14029 -0.7602,-2.28058 -1.15181,-3.45543 0.38009,-0.76019 0.76019,-1.52038 1.15181,-2.30361 z"
       fill="#f5f5f5"
       id="path8"
       style="stroke-width:1.15181" /><path
       d="m 57.89551,140.83984 c 10.6427,0 21.28541,0 32.25062,0 0,23.56599 0,47.13198 0,71.41209 -10.26261,0 -20.52522,0 -31.09881,0 -0.3801,-1.52038 -0.7602,-3.04077 -1.15181,-4.60723 1.52038,-0.76019 3.04077,-1.52039 4.60723,-2.30362 0.3801,-19.38492 0.76019,-38.76985 1.15181,-58.7422 -1.90049,-0.3801 -3.80097,-0.76019 -5.75904,-1.15181 0,-1.52038 0,-3.04077 0,-4.60723 z"
       fill="#fefbfb"
       id="path9"
       style="stroke-width:1.15181" /><path
       d="m 130.45941,259.47606 c 10.2626,0 20.52521,0 31.09881,0 0,23.94608 0,47.89217 0,72.56389 -10.26261,0 -20.52522,0 -31.09881,0 0,-1.90048 0,-3.80096 0,-5.75904 1.52038,-0.76019 3.04077,-1.52038 4.60723,-2.30361 0.14581,-7.97422 0.24679,-15.94811 0.31635,-23.92336 0.029,-2.71392 0.0683,-5.42776 0.11811,-8.14139 0.0697,-3.89704 0.10249,-7.7929 0.12794,-11.69045 0.0297,-1.2167 0.0594,-2.43339 0.0901,-3.68695 10e-4,-3.109 -0.0254,-5.9512 -0.65248,-8.99644 -2.68204,-2.64628 -2.68204,-2.64628 -5.75904,-3.45542 0.38009,-1.52039 0.76019,-3.04078 1.15181,-4.60723 z"
       fill="#f9f9f9"
       id="path10"
       style="stroke-width:1.15181" /><path
       d="m 365.42822,260.62786 c 8.36212,0 16.72425,0 25.33977,0 0.3801,20.90532 0.7602,41.81063 1.15181,63.34944 1.90048,0.76019 3.80097,1.52039 5.75904,2.30361 -0.3801,1.90049 -0.76019,3.80097 -1.15181,5.75904 -12.16309,0 -24.32618,0 -36.85785,0 -0.76019,-1.52038 -1.52039,-3.04077 -2.30362,-4.60723 2.28058,-1.14029 4.56116,-2.28058 6.91085,-3.45542 0.3801,-20.90531 0.76019,-41.81063 1.15181,-63.34944 z"
       fill="#fcfcfc"
       id="path11"
       style="stroke-width:1.15181" /><path
       d="m 176.53172,140.83984 c 11.48475,-0.58812 20.1046,-0.34268 29.3711,6.83886 2.09377,2.87893 2.55701,4.58699 2.87952,8.13464 0.1663,1.47288 0.33259,2.94575 0.50392,4.46326 -0.0751,4.96292 -1.97403,7.59391 -5.34061,11.11315 -3.1708,2.59992 -6.26538,3.83985 -10.13681,5.15614 0.6815,0.16926 1.363,0.33852 2.06516,0.51291 5.2419,1.48791 9.74758,2.94932 13.1423,7.51825 2.00796,5.10848 1.30963,10.77634 0.91785,16.1568 3.99102,-0.57014 3.99102,-0.57014 8.06266,-1.15181 0,3.09549 0,3.09549 -1.15181,6.91085 -6.29349,5.22844 -12.03069,7.32803 -20.10715,7.2348 -4.30174,-0.47577 -6.6602,-2.06173 -9.83986,-4.93118 -4.20182,-5.49546 -3.93255,-10.91369 -3.86035,-17.51333 -0.006,-2.72381 -0.006,-2.72381 -0.74688,-6.67464 -2.754,-2.72021 -2.754,-2.72021 -5.75904,-4.60723 -0.71988,-2.95151 -0.71988,-2.95151 0,-5.75904 0.95321,-0.42612 1.90642,-0.85225 2.88852,-1.29128 3.38613,-2.0284 3.38613,-2.0284 3.55441,-6.66339 -0.006,-1.76407 -0.0432,-3.52824 -0.10799,-5.29112 0.003,-0.88937 0.006,-1.77873 0.009,-2.69505 0.0298,-4.88137 0.0298,-4.88137 -2.20238,-9.03224 -1.81346,-1.61421 -1.81346,-1.61421 -4.14156,-2.67031 0,-1.90048 0,-3.80096 0,-5.75904 z"
       fill="#fef7f8"
       id="path12"
       style="stroke-width:1.15181" /><path
       d="m 93.60155,140.83984 c 12.27336,-0.64502 22.07599,0.12776 32.46659,7.05483 3.09893,4.91554 3.03239,9.17927 2.08765,14.82952 -3.01821,6.95502 -8.4305,9.51023 -14.9735,12.66989 0.79137,0.37564 1.58274,0.75128 2.3981,1.13831 1.03784,0.50333 2.07568,1.00666 3.14497,1.52524 1.02894,0.49443 2.05787,0.98885 3.11798,1.49825 3.27454,1.83065 5.66818,3.47127 7.10432,6.99634 0.9063,6.70666 1.29279,12.23232 -2.47459,18.16797 -3.60998,3.60998 -8.49237,4.94964 -13.29078,6.37993 -1.07793,0.34075 -1.07793,0.34075 -2.17764,0.68839 -3.42102,0.65253 -6.72591,0.57019 -10.2043,0.53541 -1.34815,-0.0104 -2.69631,-0.0208 -4.08532,-0.0315 -1.02745,-0.0134 -2.05489,-0.0267 -3.11348,-0.0405 0,-1.90048 0,-3.80096 0,-5.75904 3.42087,-0.57014 3.42087,-0.57014 6.91085,-1.15181 1.46425,-4.39275 1.54415,-8.59173 1.65572,-13.1738 0.0527,-0.87971 0.10542,-1.75943 0.15973,-2.6658 0.0516,-2.57683 0.0168,-4.7076 -0.66364,-7.19655 -3.3311,-2.77553 -3.3311,-2.77553 -6.91085,-4.60724 -0.43193,-3.16747 -0.43193,-3.16747 0,-5.75903 0.92649,-0.33259 1.85297,-0.66517 2.80753,-1.00784 3.10429,-0.98782 3.10429,-0.98782 4.10332,-3.5994 0.17138,-2.65977 0.25495,-5.32558 0.28795,-7.99066 0.0297,-1.43576 0.0594,-2.87152 0.09,-4.35078 -0.0502,-3.71927 -0.0502,-3.71927 -1.96617,-5.9705 -2.13159,-1.44846 -3.94678,-1.9848 -6.47442,-2.4206 0,-1.90048 0,-3.80096 0,-5.75904 z"
       fill="#fef9fa"
       id="path13"
       style="stroke-width:1.15181" /><path
       d="m 308.98963,259.47606 c 9.02591,0.0377 15.08571,2.04547 21.88435,8.06265 9.79578,10.56576 11.31424,20.67727 10.91518,34.57673 -0.64425,9.53954 -4.46153,17.19562 -11.49108,23.66156 -6.88338,5.10993 -12.85649,6.87008 -21.30845,7.41476 -0.21596,-2.73554 -0.21596,-2.73554 0,-5.75904 1.14029,-0.76019 2.28058,-1.52038 3.45542,-2.30361 0.52775,-2.53601 0.52775,-2.53601 0.44712,-5.51158 0.0109,-1.1454 0.0218,-2.29079 0.033,-3.47089 -0.007,-1.24061 -0.014,-2.48121 -0.0212,-3.75941 0.003,-1.26955 0.007,-2.53911 0.01,-3.84714 0.002,-2.68784 -0.004,-5.3757 -0.0185,-8.0635 -0.0185,-4.12588 -1.8e-4,-8.25046 0.0219,-12.37631 -0.002,-2.60657 -0.007,-5.21313 -0.0135,-7.81969 0.007,-1.24061 0.014,-2.48121 0.0212,-3.75941 -0.0109,-1.14539 -0.0218,-2.29078 -0.033,-3.47089 -0.003,-1.01102 -0.006,-2.02205 -0.008,-3.06371 -0.1448,-0.80779 -0.2896,-1.61559 -0.43879,-2.44787 -1.14029,-0.76019 -2.28058,-1.52039 -3.45542,-2.30361 -0.21596,-3.0235 -0.21596,-3.0235 0,-5.75904 z"
       fill="#f5f5f5"
       id="path14"
       style="stroke-width:1.15181" /><path
       d="m 372.33907,138.53623 c 0.28795,2.66355 0.28795,2.66355 0,5.75904 -0.75384,0.52273 -1.50768,1.04546 -2.28436,1.58403 -2.54002,1.65426 -2.54002,1.65426 -2.90792,4.35482 -0.005,1.44089 -0.005,1.44089 -0.0111,2.91089 -0.0145,1.09175 -0.029,2.1835 -0.044,3.30834 0.009,1.17704 0.0186,2.35408 0.0283,3.56679 -0.007,1.817 -0.007,1.817 -0.0134,3.67071 -0.003,2.56284 0.005,5.12572 0.0246,7.68849 0.0246,3.9239 2.5e-4,7.84537 -0.0292,11.7692 0.003,2.48884 0.009,4.97767 0.018,7.4665 -0.009,1.17471 -0.0186,2.34942 -0.0283,3.55973 -0.0659,6.37693 -0.0659,6.37693 2.96402,11.74475 0.75351,0.56931 1.50702,1.13862 2.28337,1.72518 0.28795,3.16747 0.28795,3.16747 0,5.75904 -10.53599,-1.64085 -19.2857,-3.96236 -26.12715,-12.5934 -6.80734,-10.68572 -8.40351,-22.19425 -7.27528,-34.63072 2.61881,-10.04075 7.30622,-17.83856 16.1838,-23.35111 5.77932,-3.06925 10.64478,-4.29228 17.21863,-4.29228 z"
       fill="#fefbfb"
       id="path15"
       style="stroke-width:1.15181" /><path
       d="m 376.9463,138.53623 c 9.3343,-0.69723 18.21548,4.30826 25.45675,9.94784 6.35171,6.72629 9.30207,16.07223 9.6014,25.1823 -0.4208,10.17173 -3.06558,22.7183 -10.50575,30.15847 -7.02228,5.66587 -15.39133,10.00197 -24.5524,9.5789 0,-1.90048 0,-3.80097 0,-5.75904 1.90048,-0.76019 3.80096,-1.52039 5.75904,-2.30362 0.0291,-7.99553 0.0493,-15.99105 0.0633,-23.98662 0.006,-2.72168 0.0137,-5.44335 0.0236,-8.16501 0.0139,-3.90536 0.0205,-7.81067 0.0256,-11.71605 0.006,-1.22264 0.0119,-2.44527 0.018,-3.70496 9e-5,-1.12977 1.8e-4,-2.25953 2.7e-4,-3.42354 0.003,-0.99751 0.005,-1.99502 0.008,-3.02276 0.0176,-2.4869 0.0176,-2.4869 -1.29032,-4.72326 -2.32285,-1.30558 -2.32285,-1.30558 -4.60723,-2.30361 0,-1.90049 0,-3.80097 0,-5.75904 z"
       fill="#fef9fa"
       id="path16"
       style="stroke-width:1.15181" /><path
       d="m 304.3824,138.53623 c 0.35994,2.51958 0.35994,2.51958 0,5.75904 -0.94356,0.78098 -1.88712,1.56195 -2.85927,2.3666 -4.13183,4.83382 -3.69344,8.67168 -3.58366,14.83853 -4e-5,1.10307 -9e-5,2.20615 -1.4e-4,3.34266 0.006,2.32741 0.0264,4.65481 0.0598,6.98199 0.0482,3.55703 0.0473,7.11154 0.0394,10.66884 0.0121,2.26464 0.027,4.52927 0.045,6.79387 3.5e-4,1.59115 3.5e-4,1.59115 7e-4,3.21443 0.10246,5.56599 0.30971,9.50746 3.99463,13.9907 0.7602,0.3801 1.52039,0.7602 2.30362,1.15181 0,1.90048 0,3.80097 0,5.75904 -10.53444,-0.66885 -18.31641,-2.77257 -25.7717,-10.58224 -8.48444,-10.44498 -8.51638,-21.40002 -7.63073,-34.33827 1.22232,-10.5146 5.8789,-17.28453 13.82169,-24.18796 6.28381,-4.10239 12.11017,-5.92506 19.58074,-5.75904 z"
       fill="#fefbfb"
       id="path17"
       style="stroke-width:1.15181" /><path
       d="m 303.23059,259.47606 c 0.21597,2.66355 0.21597,2.66355 0,5.75904 -0.56613,0.52453 -1.13226,1.04907 -1.71555,1.5895 -2.30511,2.4721 -2.1653,3.83171 -2.15043,7.17278 -0.003,1.07241 -0.007,2.14482 -0.0105,3.24973 0.0142,1.15546 0.0284,2.31092 0.0431,3.5014 0.002,1.1885 0.004,2.37699 0.007,3.60151 0.008,2.51348 0.0238,5.02694 0.0475,7.54032 0.0358,3.85242 0.0472,7.70431 0.054,11.55688 0.0106,2.4401 0.0225,4.8802 0.036,7.32028 0.005,1.15546 0.01,2.31093 0.0148,3.5014 0.0111,1.07241 0.0221,2.14482 0.0335,3.24973 0.0118,1.41541 0.0118,1.41541 0.0238,2.85941 0.0725,2.66536 0.0725,2.66536 1.31356,5.90287 0.76019,0.3801 1.52038,0.7602 2.30361,1.15181 0,1.90049 0,3.80097 0,5.75904 -10.11493,-1.29678 -17.46543,-3.61337 -24.50291,-11.22563 -8.01588,-10.46416 -9.09051,-23.21655 -7.74771,-35.99849 3.746,-11.17516 10.57239,-19.43007 20.73254,-25.33978 3.89096,-1.2315 7.44579,-1.24436 11.51808,-1.1518 z"
       fill="#fafafa"
       id="path18"
       style="stroke-width:1.15181" /><path
       d="m 94.75336,259.47606 c 9.83448,-0.70247 15.73776,2.21128 23.32411,8.3506 7.06438,6.46759 9.75691,13.82891 10.31228,23.27012 0.1468,11.89044 -0.82878,21.16921 -8.42709,30.73888 -4.34436,4.28139 -11.93342,10.00041 -18.23546,10.31678 -2.32462,-0.0375 -4.64923,-0.075 -6.97384,-0.11249 0,-2.28058 0,-4.56116 0,-6.91084 2.85072,-0.57015 2.85072,-0.57015 5.75904,-1.15181 0.14583,-7.64614 0.2468,-15.29193 0.31635,-22.93914 0.029,-2.60221 0.0683,-5.20432 0.11811,-7.8062 0.0697,-3.73696 0.1025,-7.47268 0.12795,-11.21016 0.0297,-1.16631 0.0594,-2.33261 0.0901,-3.53425 10e-4,-2.99448 -0.025,-5.71682 -0.65248,-8.64522 -2.73562,-2.34269 -2.73562,-2.34269 -5.75904,-3.45543 -0.35994,-3.67138 -0.35994,-3.67138 0,-6.91084 z"
       fill="#f6f6f6"
       id="path19"
       style="stroke-width:1.15181" /><path
       d="m 232.97031,259.47606 c 9.45373,-0.46494 18.19414,0.63091 26.49158,5.47108 4.85457,5.46139 6.42487,11.24729 6.16847,18.40193 -0.99784,6.38183 -4.39241,12.62269 -9.62389,16.44026 -7.55285,3.65002 -14.77242,3.87248 -23.03616,3.45543 -0.35994,-2.66356 -0.35994,-2.66356 0,-5.75904 0.94606,-0.50751 1.89213,-1.01502 2.86686,-1.5379 3.16441,-1.62105 3.16441,-1.62105 3.54598,-4.74165 -0.0302,-1.09176 -0.0603,-2.18351 -0.0914,-3.30835 -0.0186,-1.18409 -0.0371,-2.36818 -0.0562,-3.58816 -0.0482,-1.23457 -0.0965,-2.46914 -0.14622,-3.74112 -0.026,-1.24794 -0.052,-2.49587 -0.0787,-3.78162 -0.0679,-3.08433 -0.16268,-6.16548 -0.2812,-9.24821 -2.85073,-1.14029 -2.85073,-1.14029 -5.75904,-2.30361 0,-1.90049 0,-3.80097 0,-5.75904 z"
       fill="#f8f8f8"
       id="path20"
       style="stroke-width:1.15181" /><path
       d="m 308.98963,139.68803 c 0.66814,0.1663 1.33628,0.33259 2.02466,0.50392 5.1429,1.22207 9.93047,2.31892 15.25246,1.7997 0.76019,-0.76019 1.52039,-1.52039 2.30362,-2.30362 3.02349,0.43193 3.02349,0.43193 5.75903,1.15181 0.0667,4.17523 0.10776,8.35032 0.14398,12.52591 0.0193,1.18929 0.0386,2.37858 0.0585,3.6039 0.007,1.13584 0.0148,2.27167 0.0225,3.44193 0.0121,1.04953 0.0241,2.09907 0.0366,3.1804 -0.26152,2.58764 -0.26152,2.58764 -2.56513,4.89125 -2.23163,-0.072 -2.23163,-0.072 -4.60723,-1.15181 -2.29228,-3.11749 -3.57092,-6.07664 -4.89519,-9.71838 -2.45326,-4.99414 -5.50341,-7.9157 -10.07832,-11.01416 -1.14029,-0.3801 -2.28058,-0.76019 -3.45542,-1.15181 0,-1.90048 0,-3.80096 0,-5.75904 z"
       fill="#fceeef"
       id="path21"
       style="stroke-width:1.15181" /><path
       d="m 186.89799,310.1556 c 2.85073,0.57015 2.85073,0.57015 5.75904,1.15181 0,7.22184 0,14.44367 0,21.88435 -8.36212,0 -16.72425,0 -25.33977,0 0,-2.28058 0,-4.56116 0,-6.91085 4.60723,-1.53574 9.21446,-3.07148 13.82169,-4.60723 1.24892,-2.01413 1.24892,-2.01413 2.30362,-4.60723 1.15181,-2.30361 2.30361,-4.60723 3.45542,-6.91085 z"
       fill="#e8e8e8"
       id="path22"
       style="stroke-width:1.15181" /><path
       d="m 167.31726,259.47606 c 7.98203,0 15.96406,0 24.18796,0 0,6.84173 0,13.68347 0,20.73254 -1.90048,0.38009 -3.80096,0.76019 -5.75904,1.15181 -0.45136,-1.04527 -0.90272,-2.09054 -1.36777,-3.16748 -4.03024,-7.22663 -9.56697,-9.26562 -17.06115,-11.80603 0,-2.28058 0,-4.56116 0,-6.91084 z"
       fill="#e9e9e9"
       id="path23"
       style="stroke-width:1.15181" /><path
       d="m 396.52703,259.47606 c 4.94126,0 9.88251,0 14.9735,0 0.0619,3.79161 0.10777,7.58223 0.14398,11.3741 0.0193,1.07941 0.0386,2.15883 0.0585,3.27095 0.007,1.03191 0.0149,2.06381 0.0225,3.12698 0.0121,0.95303 0.0241,1.90605 0.0366,2.88796 -0.26152,2.37616 -0.26152,2.37616 -2.56513,4.67978 -2.44759,-0.43193 -2.44759,-0.43193 -4.60723,-1.15181 -0.14922,-1.00221 -0.14922,-1.00221 -0.30145,-2.02466 -0.86966,-4.83498 -1.60116,-8.37507 -5.02566,-12.013 -2.73555,-3.23946 -2.73555,-3.23946 -2.73555,-10.1503 z"
       fill="#f6f6f6"
       id="path24"
       style="stroke-width:1.15181" /><path
       d="m 345.84748,259.47606 c 4.94126,0 9.88252,0 14.97351,0 0,2.28058 0,4.56116 0,6.91084 -0.90273,0.85522 -1.80546,1.71044 -2.73555,2.59157 -4.2055,4.40577 -4.56017,8.79044 -5.32711,14.68555 -1.90756,0.44021 -3.82927,0.82234 -5.75904,1.15181 -1.15181,-1.15181 -1.15181,-1.15181 -1.28257,-3.50295 0.006,-1.00731 0.0121,-2.01462 0.0183,-3.05246 0.004,-1.08758 0.007,-2.17516 0.0112,-3.2957 0.01,-1.144 0.0193,-2.288 0.0293,-3.46667 0.005,-1.14845 0.0104,-2.29691 0.0157,-3.48017 0.0136,-2.8473 0.0343,-5.69457 0.0562,-8.54182 z"
       fill="#f4f4f4"
       id="path25"
       style="stroke-width:1.15181" /><path
       d="m 175.37991,282.51221 c 1.52039,0 3.04078,0 4.60724,0 0,8.74223 0,17.48445 0,26.49159 -1.52039,0 -3.04078,0 -4.60724,0 -0.47512,-1.06903 -0.95024,-2.13805 -1.43976,-3.23946 -1.69599,-3.71802 -1.69599,-3.71802 -4.53524,-5.47109 -2.08765,-1.65573 -2.08765,-1.65573 -2.73554,-4.46326 0.89986,-4.09938 3.13067,-5.06254 6.40693,-7.55874 1.53535,-3.01564 1.53535,-3.01564 2.30361,-5.75904 z"
       fill="#f3f3f3"
       id="path26"
       style="stroke-width:1.15181" /><path
       d="m 328.57037,190.36758 c 1.52038,0.3801 3.04077,0.76019 4.60723,1.15181 0.62461,3.56923 0.49603,6.0364 -1.30928,9.21896 -5.48161,6.9947 -12.21616,10.02707 -20.57507,12.66539 -0.7602,0 -1.52039,0 -2.30362,0 0,-2.28058 0,-4.56116 0,-6.91085 0.99775,-0.28507 1.99551,-0.57014 3.0235,-0.86385 8.47841,-3.14016 12.33672,-7.56742 16.55724,-15.26146 z"
       fill="#fdeff0"
       id="path27"
       style="stroke-width:1.15181" /><path
       d="m 372.33907,144.29527 c -0.7602,1.52038 -1.52039,3.04077 -2.30362,4.60723 -0.76019,0 -1.52039,0 -2.30362,0 0,17.86454 0,35.72908 0,54.13497 -0.38009,0 -0.76019,0 -1.1518,0 -0.0875,-7.81033 -0.14808,-15.62054 -0.18982,-23.43125 -0.0174,-2.65798 -0.041,-5.31593 -0.0709,-7.97379 -0.0418,-3.81686 -0.0615,-7.63327 -0.0768,-11.45031 -0.0178,-1.1915 -0.0357,-2.383 -0.054,-3.6106 -2.6e-4,-1.10662 -5.2e-4,-2.21324 -7.9e-4,-3.3534 -0.008,-0.97449 -0.0154,-1.94898 -0.0233,-2.953 0.6175,-3.73659 2.25241,-5.96985 6.17457,-5.96985 z"
       fill="#ea4952"
       id="path28"
       style="stroke-width:1.15181" /><path
       d="m 285.95347,264.08329 c 0.7602,0.38009 1.52039,0.76019 2.30362,1.15181 -3.04077,3.04077 -6.08155,6.08154 -9.21446,9.21446 -0.7602,-0.3801 -1.52039,-0.76019 -2.30362,-1.15181 2.78226,-3.67656 5.3905,-6.61963 9.21446,-9.21446 z"
       fill="#d8d8d8"
       id="path29"
       style="stroke-width:1.15181" /></g></svg>
