<?xml version="1.0" encoding="UTF-8" standalone="no"?>
<svg
   viewBox="0 0 18.040001 21.999998"
   width="18.040001pt"
   height="21.999998pt"
   version="1.1"
   id="svg1"
   sodipodi:docname="pink_master_pin.svg"
   xml:space="preserve"
   xmlns:inkscape="http://www.inkscape.org/namespaces/inkscape"
   xmlns:sodipodi="http://sodipodi.sourceforge.net/DTD/sodipodi-0.dtd"
   xmlns="http://www.w3.org/2000/svg"
   xmlns:svg="http://www.w3.org/2000/svg"><defs
     id="defs1" /><sodipodi:namedview
     id="namedview1"
     pagecolor="#ffffff"
     bordercolor="#000000"
     borderopacity="0.25"
     inkscape:showpageshadow="2"
     inkscape:pageopacity="0.0"
     inkscape:pagecheckerboard="0"
     inkscape:deskcolor="#d1d1d1"
     inkscape:document-units="pt"
     inkscape:lockguides="true"><inkscape:page
       x="0"
       y="0"
       width="18.040001"
       height="21.999998"
       id="page2"
       margin="0"
       bleed="0" /></sodipodi:namedview><g
     id="g1"
     transform="matrix(0.08650406,0,0,0.08650406,-0.69107958,-0.36744683)"><path
       d="m 0,0 c 24.42,0 48.84,0 74,0 -1.32,5.28 -2.64,10.56 -4,16 -4.235942,2.117971 -7.132648,2.272452 -11.706055,2.227051 -0.771116,2.92e-4 -1.542232,5.84e-4 -2.336715,8.85e-4 -2.543151,-0.0014 -5.086006,-0.01694 -7.629105,-0.03262 -1.765481,-0.0037 -3.530964,-0.0066 -5.296448,-0.0086 -4.642636,-0.0076 -9.285147,-0.02727 -13.927734,-0.04941 -4.739058,-0.02047 -9.478135,-0.0296 -14.217224,-0.03967 C 5.5910907,18.076218 -3.7044442,18.04209 -13,18 c 0.324219,-2.40625 0.324219,-2.40625 1,-5 1.973001,-1.052267 3.9767639,-2.047889 6,-3 3.1399381,-3.3143791 4.2552765,-5.6381912 6,-10 z"
       fill="#f4dd00"
       transform="translate(135,113)"
       id="path2" /><path
       d="M 0,0 C 1.2258984,-0.01675781 2.4517969,-0.03351563 3.7148438,-0.05078125 7.2630698,0.33426545 8.711094,0.64911383 11.0625,3.3125 c 1.573081,7.055729 -0.209724,13.977096 -4,20 -3.9882405,3.988241 -8.5460823,4.197748 -14,4.375 -5.581683,-0.06126 -5.581683,-0.06126 -8.75,-2.4375 -2.12218,-4.987123 -1.713548,-9.035463 0,-14.0625 C -12.481591,3.3844389 -8.4786481,0.02669039 0,0 Z"
       fill="#ed1c23"
       transform="translate(122.9375,96.6875)"
       id="path3" /><path
       d="m 0,0 c 2.9169153,-0.05401695 5.8328272,-0.09368066 8.75,-0.125 0.825,-0.0167578 1.65,-0.0335156 2.5,-0.0507813 0.799219,-0.006445 1.598437,-0.0128906 2.421875,-0.0195313 0.733154,-0.0104736 1.466309,-0.0209473 2.22168,-0.0317383 C 18.298961,0.03222456 19.912515,0.80774075 22,2 21.384615,9.5076923 21.384615,9.5076923 19.4375,12 18.963125,12.33 18.48875,12.66 18,13 c 0.66,0.66 1.32,1.32 2,2 -0.143651,3.878577 -0.434075,6.258442 -2.8125,9.375 -3.289814,2.443862 -6.269605,2.753166 -10.296875,2.722656 -0.7541016,-0.0032 -1.5082031,-0.0064 -2.2851563,-0.0098 C 3.8281641,27.079512 3.0508594,27.071133 2.25,27.0625 1.4572266,27.057988 0.66445313,27.053477 -0.15234375,27.048828 -2.1015951,27.037086 -4.0508074,27.019151 -6,27 -5.3754791,20.797862 -4.0842258,15.005706 -2.4375,9 -2.2035352,8.1298828 -1.9695703,7.2597656 -1.7285156,6.3632812 -1.1570926,4.2408527 -0.58085043,2.1198641 0,0 Z"
       fill="#ed2027"
       transform="translate(23,97)"
       id="path4" /><path
       d="m 0,0 c 2.7505938,-0.08107646 5.4987902,-0.14052813 8.25,-0.1875 0.7773047,-0.0251367 1.5546094,-0.0502734 2.355469,-0.0761719 3.445503,-0.0441731 5.804096,-0.0238366 8.9375,1.5019531 C 21,3 21,3 21.347656,5.0859375 20.657818,10.623541 19.557411,13.377443 15,17 c 0.464063,1.36125 0.464063,1.36125 0.9375,2.75 0.789726,2.415633 1.491993,4.777803 2.0625,7.25 -2.64,0 -5.28,0 -8,0 C 8.35,23.04 6.7,19.08 5,15 3.68,18.96 2.36,22.92 1,27 c -2.31,0 -4.62,0 -7,0 0.2655469,-1.111172 0.5310938,-2.222344 0.8046875,-3.367188 C -3.3273555,15.778742 -1.5046708,7.9334253 0,0 Z"
       fill="#ed1e25"
       transform="translate(50,97)"
       id="path5" /><path
       d="M 0,0 C -0.33,1.98 -0.66,3.96 -1,6 -1.7592578,6.01418 -2.5185156,6.028359 -3.3007813,6.042969 -9.3029557,6.0994329 -9.3029557,6.0994329 -14.125,9.125 -15.132688,12.435974 -15.734474,15.548165 -16,19 c 1.663428,1.663428 3.782571,1.360481 6.0625,1.5625 0.9191016,0.08379 1.8382031,0.167578 2.7851563,0.253906 C -6.0869336,20.907285 -6.0869336,20.907285 -5,21 c -0.33,1.98 -0.66,3.96 -1,6 -2.2489395,0.108238 -4.499376,0.185696 -6.75,0.25 -1.879453,0.06961 -1.879453,0.06961 -3.796875,0.140625 C -20,27 -20,27 -22.421875,25.28125 -25.142015,21.349166 -24.677121,17.594751 -24,13 -22.567704,8.3571076 -20.008649,3.8560181 -16.125,0.83203125 -11.105076,-1.1334906 -5.2880698,-0.32597691 0,0 Z"
       fill="#ed1d24"
       transform="translate(108,97)"
       id="path6" /><path
       d="m 0,0 c 8.0319691,-0.04632222 16.063882,-0.08186855 24.095952,-0.10362434 3.729539,-0.0104412 7.458986,-0.0246065 11.188472,-0.0472546 3.598562,-0.0217165 7.197037,-0.0336872 10.79566,-0.0388756 1.37354,-0.003698 2.747076,-0.010919 4.120579,-0.0217056 1.922404,-0.0144982 3.844896,-0.0153567 5.767355,-0.0155907 1.094761,-0.004441 2.189523,-0.008882 3.317459,-0.0134583 C 62,0 62,0 65,2 62.36,2.99 59.72,3.98 57,5 57,4.34 57,3.68 57,3 56.01,3 55.02,3 54,3 53.67,4.32 53.34,5.64 53,7 51.68,7 50.36,7 49,7 49,5.68 49,4.36 49,3 45.599519,3.0701788 42.32573,3.2597568 39,4 36.550878,6.7459853 35.664604,9.4111374 35,13 34.01,12.67 33.02,12.34 32,12 32.33,9.36 32.66,6.72 33,4 30.69,3.67 28.38,3.34 26,3 26,4.65 26,6.3 26,8 24.68,8 23.36,8 22,8 21.67,6.35 21.34,4.7 21,3 19.35,4.32 17.7,5.64 16,7 15.34,6.67 14.68,6.34 14,6 13.67,6.66 13.34,7.32 13,8 13,6.35 13,4.7 13,3 12.21625,3.78375 11.4325,4.5675 10.625,5.375 9.0833333,6.9166667 7.5416667,8.4583333 6,10 5.67,7.69 5.34,5.38 5,3 4.01,3 3.02,3 2,3 1.67,3.66 1.34,4.32 1,5 0.34,5 -0.32,5 -1,5 -0.67,3.35 -0.34,1.7 0,0 Z"
       fill="#f6e000"
       transform="translate(135,113)"
       id="path7" /><path
       d="M 0,0 C 2.31,0 4.62,0 7,0 5.6945098,9.2243191 3.5185501,18.050589 1,27 -1.31,27 -3.62,27 -6,27 -5.4375511,20.541535 -4.2627153,14.649367 -2.4375,8.4375 -2.2035352,7.6195898 -1.9695703,6.8016797 -1.7285156,5.9589844 -1.1588005,3.9707947 -0.58033086,1.985117 0,0 Z"
       fill="#ed232a"
       transform="translate(77,97)"
       id="path8" /><path
       d="M 0,0 C -0.08754551,1.7509102 -0.19573373,3.5007955 -0.3125,5.25 -0.37050781,6.2245312 -0.42851563,7.1990625 -0.48828125,8.203125 -1.0619756,11.338737 -1.693079,12.806619 -4,15 c -2.2265625,0.425781 -2.2265625,0.425781 -4.625,0.3125 -0.7966406,-0.02449 -1.593281,-0.04898 -2.414063,-0.07422 C -13,15 -13,15 -14,14 c 0.34298,-5.1446965 0.789185,-8.8012426 4,-13 3.8503105,-2.5668737 5.5856976,-1.83288724 10,-1 z"
       fill="#fdf3f3"
       transform="translate(127,103)"
       id="path9" /><path
       d="M 0,0 C 0.99,0 1.98,0 3,0 3.33,1.65 3.66,3.3 4,5 4.78375,4.175 5.5675,3.35 6.375,2.5 9,0 9,0 11,0 10.125,7.625 10.125,7.625 9,11 8.34,11 7.68,11 7,11 7,9.68 7,8.36 7,7 6.54625,7.66 6.0925,8.32 5.625,9 5.08875,9.66 4.5525,10.32 4,11 3.34,11 2.68,11 2,11 1.67,9.68 1.34,8.36 1,7 0.67,8.32 0.34,9.64 0,11 -0.66,11 -1.32,11 -2,11 -1.8589225,9.5411989 -1.7119758,8.0829645 -1.5625,6.625 -1.4812891,5.8128906 -1.4000781,5.0007812 -1.3164062,4.1640625 -1,2 -1,2 0,0 Z"
       fill="#100f00"
       transform="translate(137,116)"
       id="path11" /><path
       d="M 0,0 C 2.3329478,-0.04241723 4.6670257,-0.04092937 7,0 8,1 8,1 8.125,3.25 8.0029428,5.9352591 7.5980384,8.383582 7,11 4,11 4,11 2.3125,9.5 1.879375,9.005 1.44625,8.51 1,8 0.67,8.99 0.34,9.98 0,11 -0.66,11 -1.32,11 -2,11 -1.34,7.37 -0.68,3.74 0,0 Z"
       fill="#4a4300"
       transform="translate(161,116)"
       id="path12" /><path
       d="M 0,0 C 0.66,0 1.32,0 2,0 2,1.32 2,2.64 2,4 3.32,4 4.64,4 6,4 6.33,2.68 6.66,1.36 7,0 7.66,0 8.32,0 9,0 8.125,7.625 8.125,7.625 7,11 6.34,11 5.68,11 5,11 5,9.68 5,8.36 5,7 3.0150836,7.266762 3.0150836,7.266762 1,8 0.67,8.99 0.34,9.98 0,11 -0.66,11 -1.32,11 -2,11 -1.125,3.375 -1.125,3.375 0,0 Z"
       fill="#242000"
       transform="translate(182,116)"
       id="path13" /><path
       d="m 0,0 c 0,0.66 0,1.32 0,2 -1.65,0 -3.3,0 -5,0 0,0.66 0,1.32 0,2 0.99,0 1.98,0 3,0 0,0.99 0,1.98 0,3 -1.32,0 -2.64,0 -4,0 0,0.66 0,1.32 0,2 1.32,0 2.64,0 4,0 0,0.66 0,1.32 0,2 -2.64,0 -5.28,0 -8,0 C -9.5514934,9.1850434 -9.0909043,7.3730687 -8.625,5.5625 -8.3697656,4.5531641 -8.1145313,3.5438281 -7.8515625,2.5039063 -6.3241265,-1.9873162 -4.0195157,-0.95199057 0,0 Z"
       fill="#322d00"
       transform="translate(201,116)"
       id="path14" /><path
       d="M 0,0 C 0.66,0 1.32,0 2,0 3.2027282,2.4054564 3.1007147,3.9499695 3.0625,6.625 3.0534766,7.4422656 3.0444531,8.2595313 3.0351563,9.1015625 3.0235547,9.7280469 3.0119531,10.354531 3,11 2.34,11 1.68,11 1,11 1,10.34 1,9.68 1,9 c -1.65,0 -3.3,0 -5,0 0,0.66 0,1.32 0,2 C -4.99,10.67 -5.98,10.34 -7,10 -5.8832192,8.3278148 -4.7563365,6.662372 -3.625,5 -2.9985156,4.071875 -2.3720313,3.14375 -1.7265625,2.1875 -1.1567969,1.465625 -0.58703125,0.74375 0,0 Z"
       fill="#0a0900"
       transform="translate(154,116)"
       id="path15" /><path
       d="M 0,0 C 2.31,0 4.62,0 7,0 7.0425436,1.9995475 7.0408078,4.0004164 7,6 6,7 6,7 2.4375,7.0625 1.303125,7.041875 0.16875,7.02125 -1,7 -0.67,4.69 -0.34,2.38 0,0 Z"
       fill="#fef7f7"
       transform="translate(56,103)"
       id="path16" /><path
       d="m 0,0 c 1.4540625,0.0309375 1.4540625,0.0309375 2.9375,0.0625 0,0.66 0,1.32 0,2 -1.98,0.66 -3.96,1.32 -6,2 -0.33,1.65 -0.66,3.3 -1,5 1.65,0 3.3,0 5,0 0,0.66 0,1.32 0,2 -2.31,0 -4.62,0 -7,0 -1.0443489,-3.3229282 -1.2162055,-4.567589 0.375,-7.75 C -3.3444333,0.06825374 -3.3444333,0.06825374 0,0 Z"
       fill="#0b0a00"
       transform="translate(177.0625,115.9375)"
       id="path17" /><path
       d="M 0,0 C 2.97,0 5.94,0 9,0 8.67,1.65 8.34,3.3 8,5 5.03,5 2.06,5 -1,5 -0.67,3.35 -0.34,1.7 0,0 Z"
       fill="#fefafa"
       transform="translate(26,113)"
       id="path18" /><path
       d="M 0,0 C 2.97,0 5.94,0 9,0 8.67,1.65 8.34,3.3 8,5 5.36,5 2.72,5 0,5 0,3.35 0,1.7 0,0 Z"
       fill="#fce9e9"
       transform="translate(28,103)"
       id="path19" /><path
       d="m 0,0 c 0.33,0.99 0.66,1.98 1,3 -4.8571429,8.326531 -4.8571429,8.326531 -9.1875,9.6875 C -8.785625,12.790625 -9.38375,12.89375 -10,13 c 0,-0.66 0,-1.32 0,-2 -0.66,-0.33 -1.32,-0.66 -2,-1 1.639688,-0.556875 1.639688,-0.556875 3.3125,-1.125 C -4.6828597,7.1956347 -3.6534503,5.0030902 -2,1 -1.34,0.67 -0.68,0.34 0,0 Z"
       fill="#fdf0e6"
       transform="translate(134,113)"
       id="path20" /><path
       d="m 0,0 c 1.2065625,0.0309375 1.2065625,0.0309375 2.4375,0.0625 -1.32,0.33 -2.64,0.66 -4,1 0.33,1.65 0.66,3.3 1,5 -0.66,0 -1.32,0 -2,0 -0.33,1.32 -0.66,2.64 -1,4 -0.66,0 -1.32,0 -2,0 C -5.2545167,8.5823863 -4.940982,7.1034267 -4.625,5.625 -4.4509766,4.8012891 -4.2769531,3.9775781 -4.0976562,3.1289063 -3.3171335,0.11506273 -3.1906201,0.07782 0,0 Z"
       fill="#0b0a00"
       transform="translate(164.5625,116.9375)"
       id="path21" /><path
       d="M 0,0 C 0.66,0 1.32,0 2,0 1.125,7.625 1.125,7.625 0,11 c -0.66,0 -1.32,0 -2,0 0.33,-1.65 0.66,-3.3 1,-5 -0.66,-0.33 -1.32,-0.66 -2,-1 0.66,0 1.32,0 2,0 0.33,-1.65 0.66,-3.3 1,-5 z"
       fill="#0d0c00"
       transform="translate(189,116)"
       id="path22" /><path
       d="M 0,0 C 0.66,0 1.32,0 2,0 2.33,1.65 2.66,3.3 3,5 2.34,5 1.68,5 1,5 1,5.66 1,6.32 1,7 0.01,6.67 -0.98,6.34 -2,6 -1.125,1.125 -1.125,1.125 0,0 Z"
       fill="#3e3900"
       transform="translate(154,116)"
       id="path23" /><path
       d="m 0,0 c 5.61,0 11.22,0 17,0 0,0.33 0,0.66 0,1 C 16.02418,1.060586 15.048359,1.1211719 14.042969,1.1835937 12.134512,1.3092773 12.134512,1.3092773 10.1875,1.4375 8.9229297,1.5187109 7.6583594,1.5999219 6.3554687,1.6835937 3.0081811,1.8718455 3.0081811,1.8718455 0,3 0,2.01 0,1.02 0,0 Z"
       fill="#ee3137"
       transform="translate(50,97)"
       id="path24" /><path
       d="M 0,0 C 0.33,0.66 0.66,1.32 1,2 3.321566,2.4072923 5.6568787,2.7443868 8,3 8,3.66 8,4.32 8,5 5.69,5 3.38,5 1,5 0.67,3.35 0.34,1.7 0,0 Z"
       fill="#1d1b00"
       transform="translate(170,122)"
       id="path25" /><path
       d="M 0,0 C 0.33,0.66 0.66,1.32 1,2 2.65,2 4.3,2 6,2 6,2.66 6,3.32 6,4 3.36,4 0.72,4 -2,4 -1.34,2.68 -0.68,1.36 0,0 Z"
       fill="#040400"
       transform="translate(193,123)"
       id="path27" /><path
       d="M 0,0 C 1.65,0.33 3.3,0.66 5,1 5,1.66 5,2.32 5,3 3.02,3.33 1.04,3.66 -1,4 -0.67,2.68 -0.34,1.36 0,0 Z"
       fill="#161400"
       transform="translate(196,115)"
       id="path29" /></g></svg>
