<?xml version="1.0" encoding="UTF-8" standalone="no"?>
<svg
   viewBox="0 0 16.027563 2.9540162"
   width="16.027563pt"
   height="2.9540162pt"
   version="1.1"
   id="svg1"
   xmlns="http://www.w3.org/2000/svg"
   xmlns:svg="http://www.w3.org/2000/svg">
  <defs
     id="defs1" />
  <path
     d="m 15.346743,0.11515818 c 1.53e-4,0.063323 0.01435,0.4439286 0.03157,0.845768 0.01731,0.40183972 0.03149,0.76813152 0.03157,0.81400152 1.44e-4,0.07275 0.004,0.08338 0.03189,0.08338 0.03975,0 0.03983,0.0744 -3.69e-4,-0.91327042 C 15.404304,0.03333858 15.401814,8.4509276e-8 15.369364,8.4509276e-8 15.351574,8.4509276e-8 15.346524,0.02549108 15.346684,0.11515208 m 0.157368,-0.1032398 c -0.0048,0.044603 0.0032,1.01489072 0.01162,1.38976102 0.0096,0.4297754 0.01194,0.4566344 0.03959,0.4566344 0.02821,0 0.02901,-0.02565 0.02107,-0.6551723 C 15.564152,0.23824478 15.554452,2.8450927e-7 15.527532,2.8450927e-7 c -0.01218,0 -0.02268,0.005369995491 -0.0234,0.0119159954907 m 0.128367,0.9172418 c 0,0.80031162 0.0032,0.92915362 0.023,0.92915362 0.01947,0 0.02372,-0.07599 0.02781,-0.4963419 0.0024,-0.2729815 0.0024,-0.69111632 1.68e-4,-0.92915482 -0.004,-0.3658958 -0.0083,-0.4328106954907 -0.0278,-0.4328106954907 -0.01996,0 -0.02308,0.1268731954907 -0.02308,0.9291537954907 m 0.121292,-0.5281085 c -0.0048,0.2205828 -0.01274,0.63868632 -0.01691,0.92915402 -0.0072,0.5042841 -0.0065,0.5281081 0.02156,0.5281081 0.02749,0 0.02965,-0.03054 0.03878,-0.5439908 0.02308,-1.30391352 0.023,-1.3143166154907 -0.0072,-1.3143166154907 -0.02477,0 -0.02805,0.036517995491 -0.03654,0.4010452954907 m 0.158385,-0.3026823 c -0.0072,0.085339 -0.07397,1.65208342 -0.07341,1.73214942 1.44e-4,0.01713 0.01242,0.0278 0.03198,0.0278 0.02733,0 0.03173,-0.01055 0.03173,-0.07545 1.5e-5,-0.05975 0.03149,-0.84529172 0.06708,-1.67146042 0.004,-0.085673 -1.6e-5,-0.1038748 -0.02196,-0.1081153 -0.02172,-0.004169995 -0.02805,0.012877 -0.03534,0.095075 M 4.6571682,0.40185048 c 0,0.015866 1.0987989,1.03815882 1.4830282,1.37975322 0.03606,0.03208 0.06635,0.07345 0.06739,0.09195 8.01e-4,0.0185 -0.0032,0.03157 -0.0098,0.02905 C 6.1914034,1.9001147 5.8545724,1.5942631 5.4492195,1.2229987 5.0438902,0.85173388 4.6998479,0.53815638 4.6847105,0.52618018 c -0.024281,-0.019216 -0.027566,-0.017934 -0.027566,0.01077 0,0.022695 0.2323665,0.2453284 0.7663521,0.73420612 0.6866818,0.6286954 0.8347783,0.7777574 0.7727548,0.7777574 -0.0081,0 -0.07004,-0.05205 -0.137607,-0.115661 C 5.9910104,1.8696427 5.818392,1.7106057 5.675007,1.5798581 5.531614,1.4491093 5.2457174,1.1876441 5.0396831,0.99882668 4.7397711,0.72397188 4.6640197,0.66186988 4.6597326,0.68731418 c -0.00321,0.01747 0.0016,0.036165 0.010333,0.041517 0.00865,0.00537 0.0597,0.051703 0.1134226,0.1030009 0.069878,0.066696 0.096314,0.1028899 0.092772,0.1270639 -0.004,0.02945 -0.018752,0.020683 -0.1120203,-0.067994 -0.099079,-0.094171 -0.1070844,-0.098729 -0.1070844,-0.061039 0,0.030083 0.02941,0.067931 0.1123729,0.1447737 0.079254,0.073411 0.1108582,0.11337302 0.1072125,0.13572022 -0.004,0.026573 -0.022518,0.015073 -0.1123729,-0.071143 L 4.6571557,0.93638838 V 1.8103007 c 0,0.766242 0.00321,0.873929 0.0238,0.873929 0.020835,0 0.0238,-0.100874 0.0238,-0.812494 0,-0.8114919 2.4e-5,-0.8124608 0.031733,-0.7837445 0.030932,0.027999 0.031734,0.048923 0.031734,0.8124925 0,0.686081 0.00321,0.783746 0.0238,0.783746 0.020834,0 0.0238,-0.09441 0.0238,-0.754442 0,-0.4149412 0.004,-0.7544401 0.00905,-0.7544401 0.00481,0 0.019313,0.010214 0.031733,0.022695 0.019072,0.019008 0.022678,0.1425976 0.022678,0.7632081 v 0.740528 l 0.083388,-0.0048 0.083388,-0.0048 0.004,-0.657476 c 0.004,-0.6551091 0.004,-0.6573641 0.03574,-0.6288859 0.030531,0.027607 0.031573,0.049932 0.031573,0.6535049 0,0.542641 0.00321,0.624916 0.023639,0.624916 0.020434,0 0.0242,-0.08084 0.027807,-0.596248 l 0.004,-0.596246 0.4219492,0.385797 c 0.2320621,0.212196 0.5411495,0.495295 0.686841,0.629125 0.202173,0.185719 0.273332,0.242136 0.30049,0.238244 0.02871,-0.004 -0.115236,-0.143336 -0.7424336,-0.718601 -0.4278928,-0.392572 -0.7803652,-0.7153772 -0.783258,-0.7174423 -0.00321,-0.00209 -0.00321,-0.017694 0,-0.034739 0.004,-0.024113 0.1750142,0.1241414 0.7675621,0.6657183 0.4192565,0.383193 0.7676975,0.696723 0.7742935,0.696723 0.03678,0 -0.0016,-0.05621 -0.107128,-0.156765 -0.0734,-0.06999 -0.11912,-0.12619 -0.11912,-0.146488 0,-0.04443 0.01307,-0.03726 0.12606,0.06916 0.07853,0.07394 0.0991,0.08646 0.107245,0.06522 0.0072,-0.01902 -0.02356,-0.05679 -0.111611,-0.136625 -0.08973,-0.08137 -0.121692,-0.120774 -0.121692,-0.150015 0,-0.0366 0.0082,-0.03215 0.105534,0.05701 0.05801,0.05319 0.11045,0.09671 0.116475,0.09671 0.0367,0 -0.004,-0.06207 -0.105545,-0.160354 -0.06715,-0.06512 -0.116467,-0.126207 -0.116467,-0.144266 0,-0.02483 0.02252,-0.01129 0.108574,0.06516 0.05971,0.05308 0.111548,0.09649 0.115154,0.09649 0.004,-1.6e-5 0.0065,-0.391214 0.0065,-0.8693229 0,-0.81527292 -0.0016,-0.86965632 -0.02781,-0.87472322 -0.02621,-0.00505 -0.02781,0.041775 -0.02781,0.80580642 0,0.4461537 -0.0056,0.8111917 -0.01274,0.8111917 -0.04808,0 -0.0508,-0.0442 -0.0508,-0.8290914 0,-0.69249752 -0.0032,-0.79097192 -0.0238,-0.79097192 -0.02084,0 -0.0238,0.095568 -0.0238,0.76484402 0,0.7638443 -4.8e-5,0.7648133 -0.03173,0.7360963 -0.03085,-0.02795 -0.03173,-0.04892 -0.03173,-0.76567 V 0.44304528 l -0.08339,0.00481 -0.08339,0.00481 -0.004,0.65612532 c -0.004,0.5787601 -0.0072,0.6533631 -0.027649,0.6326671 -0.01979,-0.01976 -0.02412,-0.1231726 -0.02757,-0.6561257 -0.004,-0.54993252 -0.0072,-0.63266672 -0.02797,-0.63266672 -0.0206,0 -0.02492,0.080638 -0.03173,0.59872482 L 6.0782224,1.6501097 5.8311577,1.4246362 C 5.6952573,1.3006222 5.4672901,1.0919512 5.3245382,0.96091658 4.6798145,0.36911698 4.6566876,0.34975568 4.6566876,0.40183608 M 0.27298309,1.5644701 c 0,1.0556766 0.0016,1.1197636 0.027807,1.1201616 0.015305,2.22e-4 0.2614153,4.7e-5 0.5469594,-3.98e-4 C 1.309133,2.6835197 1.3804369,2.6800337 1.488234,2.6524037 1.708957,2.5959637 1.8792433,2.4715767 1.966582,2.3030257 2.00745,2.2241557 2.011858,2.2002467 2.012018,2.0568407 2.0121701,1.9220257 2.006408,1.8865587 1.974916,1.8222487 1.9228283,1.7164367 1.816137,1.6155341 1.6892517,1.5520648 L 1.5812943,1.4980621 1.6682484,1.4280163 C 1.9507793,1.200476 1.9300003,0.79512668 1.6253763,0.59172958 1.4361944,0.46539648 1.3122901,0.44546298 0.71377199,0.44503428 l -0.4407568,-3.173e-4 V 1.5644661 M 2.353961,1.1709656 c 3.124e-4,0.8063301 0.00641,0.8678141 0.098839,1.0525171 0.062344,0.124237 0.2239364,0.292326 0.3404522,0.354221 0.087339,0.04641 0.2978527,0.106514 0.373011,0.106514 h 0.045116 v -0.230304 c 0,-0.214721 -0.0024,-0.230303 -0.02981,-0.230303 -0.09992,0 -0.2226544,-0.102015 -0.2865136,-0.238149 l -0.041029,-0.08745 -0.0024,-0.7226738 -0.0024,-0.72267552 -0.2479447,-0.0044 -0.2479528,-0.0044 2.724e-4,0.72705892 M 3.7457323,0.45524738 c -0.00561,0.00584 -0.01058,0.326157 -0.01058,0.71184292 0,0.5904174 -0.004,0.7145114 -0.024922,0.7850624 -0.039186,0.13202 -0.1426638,0.228764 -0.2967387,0.277492 -0.024762,0.0079 -0.027807,0.03333 -0.027807,0.231654 v 0.222853 l 0.043673,-2.37e-4 c 0.07741,-4.14e-4 0.2445151,-0.04689 0.3519997,-0.09788 0.1313167,-0.06232 0.2928442,-0.221949 0.3556137,-0.351442 0.1013863,-0.209179 0.106387,-0.2591 0.106387,-1.0618568 V 0.44465898 H 3.9998314 c -0.1339612,0 -0.2483215,0.00473 -0.2541312,0.010591 m 3.2651597,1.11312612 0.004,1.1237216 0.250156,0.0043 0.250157,0.0044 v -0.243994 -0.243996 l 0.107213,-0.144567 c 0.05898,-0.07951 0.112701,-0.144995 0.119425,-0.145534 0.0065,-5.4e-4 0.142327,0.174125 0.301363,0.388147 l 0.289165,0.389134 h 0.314088 c 0.172755,0 0.314096,-0.0034 0.314096,-0.0076 0,-0.0042 -0.207269,-0.261895 -0.460606,-0.572598 -0.253327,-0.31074 -0.460603,-0.572078 -0.460603,-0.5807822 0,-0.0138 0.58483,-0.73751022 0.796722,-0.98590372 0.04224,-0.049539 0.07685,-0.094218 0.07685,-0.099268 0,-0.00505 -0.13929,-0.0092 -0.309527,-0.0092 h -0.309529 l -0.385351,0.5122286 -0.385352,0.51222602 -0.004,-0.51222602 -0.004,-0.5122258 h -0.254048 -0.254003 l 0.004,1.12372052 m 2.271264,-1.59e-4 0.004,1.1238796 h 0.7703271 0.770318 l 0.0048,-0.218392 0.0048,-0.218391 H 10.320041 9.8033969 v -0.214165 -0.214167 l 0.4328151,-0.0042 0.432807,-0.0042 0.0048,-0.2025086 0.0048,-0.2025079 H 10.241337 9.8040749 V 1.151359 0.88928978 h 0.5007621 0.500753 l -0.0048,-0.2183903 -0.0048,-0.2183911 -0.758523,-0.00417 -0.7585071,-0.00409 0.004,1.12386372 M 11.320032,0.46283158 c -0.0048,0.011788 -0.0065,0.5181662 -0.004,1.12529252 l 0.004,1.1038666 0.250157,0.0043 0.250156,0.0044 v -0.34982 -0.349823 l 0.13897,2.86e-4 0.138977,2.86e-4 0.195217,0.33073 c 0.107375,0.181908 0.203509,0.339023 0.21363,0.34914 0.01915,0.01915 0.567956,0.0278 0.567956,0.0089 0,-0.0052 -0.01386,-0.02892 -0.03085,-0.05273 -0.03542,-0.04978 -0.46156,-0.732808 -0.46156,-0.739861 0,-0.0026 0.03517,-0.02724 0.07821,-0.05485 0.207685,-0.133256 0.334764,-0.363654 0.334764,-0.6068863 0,-0.36699202 -0.236671,-0.65444242 -0.620275,-0.75337742 -0.140933,-0.036341 -1.042641,-0.05337 -1.055406,-0.019929 m 2.684184,-0.00368 c -0.188461,0.030259 -0.377851,0.1405323 -0.46596,0.2713128 -0.110193,0.1635942 -0.130171,0.43316012 -0.04503,0.60725372 0.08326,0.1701549 0.222349,0.2665966 0.566624,0.3928332 0.243586,0.08933 0.339611,0.136117 0.396955,0.193455 0.04166,0.0417 0.04776,0.05905 0.04776,0.136371 0,0.08238 -0.004,0.09274 -0.06218,0.147759 -0.07901,0.07519 -0.183003,0.102069 -0.350429,0.09059 -0.168058,-0.01152 -0.279253,-0.06601 -0.419216,-0.205415 -0.09398,-0.0936 -0.112766,-0.105922 -0.134987,-0.08856 -0.116484,0.09101 -0.272041,0.226095 -0.272041,0.236229 0,0.0068 0.04071,0.05641 0.09048,0.110179 0.214993,0.23221 0.466817,0.337641 0.806909,0.337831 0.290103,1.59e-4 0.485937,-0.07036 0.6526,-0.235004 0.134418,-0.132798 0.172514,-0.23124 0.172202,-0.444946 -2.89e-4,-0.191628 -0.03238,-0.272742 -0.157929,-0.3989316 -0.09226,-0.09274 -0.213351,-0.15559 -0.528761,-0.2744425 -0.341182,-0.1285723 -0.404809,-0.1765554 -0.403046,-0.3039047 7.05e-4,-0.051046 0.01154,-0.0783 0.04496,-0.11315022 0.0593,-0.061912 0.135331,-0.081751 0.285095,-0.074381 0.146791,0.00721 0.266601,0.055236 0.369213,0.1479503 l 0.06515,0.058891 0.04408,-0.034611 c 0.02428,-0.01904 0.0897,-0.078396 0.145469,-0.13189212 l 0.10139,-0.097267 -0.09608,-0.090311 c -0.105414,-0.0988916 -0.245195,-0.1746691 -0.392707,-0.2127563 -0.115065,-0.0296982 -0.351502,-0.0425518 -0.46067,-0.0250345 M 0.10213589,0.62366658 c -0.054331,0.054828 -0.098806,0.1100369 -0.098806,0.1226636 0,0.012645 0.050004,-0.026684 0.1111789,-0.087356 0.061143,-0.06067 0.1111789,-0.115882 0.1111789,-0.1226638 0,-0.02824 -0.03005,-0.00697 -0.1235517,0.087356 M 10.867285,0.77088588 v 0.1992678 l -0.46458,-0.00152 c -0.255525,-8.814e-4 -0.4806641,-0.00121 -0.5003131,-7.308e-4 -0.03494,7.622e-4 -0.03575,0.00481 -0.03575,0.18343242 0,0.1517778 0.004,0.1826544 0.0238,0.1826544 0.01963,0 0.0238,-0.029113 0.0238,-0.1667717 V 1.0004446 h 0.5003201 0.500314 V 0.78602418 c 0,-0.1800018 -0.004,-0.2144204 -0.0238,-0.2144204 -0.01995,0 -0.0238,0.032736 -0.0238,0.1992686 M 0.10260069,0.73770458 c -0.092571,0.095361 -0.1180944,0.1356721 -0.085912,0.1356721 0.019392,0 0.2089993,-0.2005066 0.2089993,-0.2209795 0,-0.033232 -0.024602,-0.016171 -0.123087,0.085307 M 11.55025,1.5629841 c 0,0.8164796 0.0032,0.9304546 0.0238,0.9304546 0.02044,0 0.0238,-0.04765 0.0238,-0.333542 v -0.333542 l 0.270013,-0.003 c 0.148506,-0.0017 0.289415,-0.0034 0.313151,-0.004 0.03935,-8.81e-4 0.06131,0.02855 0.250157,0.336052 0.140731,0.229129 0.215906,0.337196 0.234809,0.337515 0.01531,2.54e-4 0.0278,-0.003 0.0278,-0.0073 0,-0.0043 -0.09275,-0.159656 -0.206098,-0.345248 l -0.206083,-0.337466 0.07581,-0.02471 c 0.101283,-0.03302 0.178557,-0.08247 0.246583,-0.1577496 0.28391,-0.3142443 0.150918,-0.81695672 -0.250982,-0.94880162 -0.06203,-0.020362 -0.161623,-0.027751 -0.44147,-0.032719 l -0.361342,-0.00643 V 1.5629545 m 0.05826,-0.86960902 c -0.0056,0.00584 -0.01055,0.2495377 -0.01055,0.54159342 v 0.5310158 l 0.337512,-0.0066 c 0.301651,-0.0059 0.347047,-0.01033 0.427206,-0.04183 0.114152,-0.04482 0.216107,-0.1345272 0.27616,-0.2429449 0.04343,-0.07838 0.04712,-0.097505 0.04712,-0.243883 0,-0.1346086 -0.0056,-0.1703928 -0.03734,-0.23459192 -0.0831,-0.1687565 -0.23086,-0.2642289 -0.460278,-0.2974087 -0.120201,-0.017389 -0.563683,-0.021508 -0.579807,-0.00537 M 0.10653539,0.85211768 c -0.1340653,0.1447416 -0.1291611,0.17900092 0.00641,0.045548 0.099391,-0.097775 0.137383,-0.1543195 0.1006813,-0.1498719 -0.00641,7.941e-4 -0.054812,0.047744 -0.1072125,0.1043193 m 0.6786126,0.22142412 0.004,0.2843062 0.1729628,-0.00265 C 1.1868244,1.3517517 1.2592822,1.3257302 1.3226687,1.2257653 1.3796444,1.1359948 1.3828497,1.0509731 1.3330015,0.95222868 1.2785133,0.84413228 1.1960627,0.80972958 0.96421699,0.79831048 l -0.1838932,-0.00907 0.004,0.28430512 M 11.819414,1.2217967 v 0.3642444 l 0.04368,0.005 c 0.02405,0.0027 0.115579,9.62e-4 0.203462,-0.004 0.189863,-0.01077 0.272137,-0.047392 0.347504,-0.1547473 0.04063,-0.057881 0.04904,-0.086436 0.05393,-0.1841 0.0065,-0.1321309 -0.02075,-0.2047162 -0.110722,-0.29262792 -0.07212,-0.07055 -0.176986,-0.098029 -0.373981,-0.098029 H 11.819414 V 1.221841 M 0.10127849,0.97315788 c -0.083636,0.084387 -0.1196811,0.13854732 -0.092187,0.13854732 0.00993,0 0.2069879,-0.20674832 0.2130861,-0.22361582 0.013463,-0.037135 -0.030291,-0.00633 -0.1208992,0.085068 m 4.567e-4,0.11639082 c -0.092643,0.096346 -0.1167481,0.1333377 -0.08689,0.1333377 0.020274,0 0.209985,-0.1977275 0.209985,-0.2188198 0,-0.034834 -0.022358,-0.019345 -0.123095,0.085482 m -4.567e-4,0.1218548 c -0.054331,0.054828 -0.098806,0.1100373 -0.098806,0.1226641 0,0.012646 0.050004,-0.026685 0.1111789,-0.087356 0.061142,-0.06067 0.1111789,-0.1158821 0.1111789,-0.1226638 0,-0.02824 -0.03005,-0.00697 -0.1235517,0.087356 m 0.3808562,0.014656 c -0.053931,0.053907 0.00946,0.143725 0.076208,0.1080042 0.056094,-0.030003 0.031813,-0.1270642 -0.031733,-0.1270642 -0.013944,0 -0.033977,0.00858 -0.044475,0.019064 m -0.381345,0.1006349 c -0.092708,0.097903 -0.1158026,0.1344339 -0.084958,0.1344339 0.019392,0 0.2089993,-0.2005068 0.2089993,-0.2209805 0,-0.03453 -0.027647,-0.01525 -0.1240405,0.086547 M 7.1974619,1.2705395 c -0.0234,0.043722 0.0056,0.095297 0.05417,0.095297 0.04992,0 0.07878,-0.037847 0.06643,-0.08715 -0.0081,-0.031341 -0.02012,-0.039915 -0.05682,-0.039915 -0.03054,0 -0.05273,0.011042 -0.06378,0.031766 m -7.09840281,0.176586 c -0.056094,0.060085 -0.096987,0.1142146 -0.090905,0.1202986 0.013944,0.01389 0.2166763,-0.1854666 0.2166763,-0.2130394 0,-0.035035 -0.020835,-0.019665 -0.1257714,0.092741 m 0.0024,0.1137064 c -0.083636,0.08439 -0.1196811,0.1385466 -0.092187,0.1385466 0.00993,0 0.2069879,-0.2067478 0.2130862,-0.2236161 0.013463,-0.037135 -0.030291,-0.00633 -0.1208993,0.085069 m 0.3871467,-0.078957 c -0.059541,0.043553 0.004,0.1515551 0.065951,0.1125625 0.034458,-0.02161 0.044555,-0.079734 0.019152,-0.1103547 -0.02356,-0.028447 -0.048321,-0.029081 -0.085104,-0.00224 m 6.71197031,0.037863 c -0.0089,0.017045 -0.0094,0.043745 -8.02e-4,0.065549 0.01055,0.02797 0.02396,0.0356 0.0561,0.03177 0.05425,-0.0065 0.08361,-0.05008 0.05962,-0.088421 -0.0246,-0.039338 -0.09563,-0.044852 -0.114505,-0.00889 m 3.5491171,0.015947 c -0.0056,0.00561 -0.01023,0.087578 -0.01023,0.1822253 v 0.17206 h -0.43673 -0.4367831 v 0.142946 c 0,0.116471 0.0048,0.142947 0.0238,0.142947 0.01907,0 0.0238,-0.02382 0.0238,-0.119121 v -0.119133 h 0.4367811 0.436783 v -0.1976 c 0,-0.1802236 -0.0096,-0.2322719 -0.0375,-0.2043338 M 0.10622279,1.6777847 c -0.097709,0.104792 -0.1169005,0.132733 -0.091201,0.132733 0.020274,0 0.2103216,-0.1996636 0.2103216,-0.2209786 0,-0.03181 -0.023239,-0.01458 -0.1191203,0.08824 m -0.00481,0.12125 c -0.054331,0.05483 -0.098806,0.110038 -0.098806,0.122665 0,0.01265 0.050004,-0.02668 0.1111789,-0.08736 0.061142,-0.06067 0.1111787,-0.115882 0.1111787,-0.122664 0,-0.02824 -0.03005,-0.007 -0.1235516,0.08735 m 0.679462,0.193375 v 0.297393 l 0.25015661,-0.0054 c 0.2265167,-0.0048 0.2561906,-0.0088 0.3139517,-0.04195 0.167153,-0.09584 0.2005931,-0.316992 0.066912,-0.442896 -0.076048,-0.07166 -0.1383444,-0.08675 -0.3967708,-0.0961 l -0.23427081,-0.0085 v 0.297392 M 0.48853739,1.7359627 c -0.034539,0.02525 -0.028689,0.08804 0.010419,0.112563 0.062184,0.03899 0.125539,-0.06902 0.065951,-0.112563 -0.015626,-0.0114 -0.032775,-0.02075 -0.038144,-0.02075 -0.00561,0 -0.022598,0.0094 -0.038224,0.02075 m 6.71905451,0.04048 c -0.03054,0.03372 -0.02068,0.07491 0.02364,0.0986 0.04119,0.02204 0.09343,-0.0081 0.09343,-0.05397 0,-0.07178 -0.06876,-0.09798 -0.117045,-0.04463 m -7.10718841,0.135926 c -0.086578,0.09016 -0.1167082,0.136387 -0.088909,0.136387 0.014665,0 0.2134467,-0.208496 0.2134467,-0.22395 0,-0.03157 -0.031173,-0.0096 -0.1245373,0.08756 m 0.00642,0.119726 c -0.060581,0.06108 -0.1049684,0.116295 -0.098565,0.12268 0.015466,0.01548 0.222534,-0.192438 0.214801,-0.215642 -0.00321,-0.0099 -0.055613,0.03189 -0.1162354,0.09296 m -0.00481,0.116359 c -0.083636,0.08438 -0.1196812,0.138547 -0.092187,0.138547 0.00993,0 0.2069879,-0.206749 0.2130862,-0.223617 0.013463,-0.03713 -0.030291,-0.0063 -0.1208993,0.08507 m -0.0024,0.124538 c -0.056094,0.06008 -0.096987,0.114214 -0.090905,0.120299 0.013944,0.0139 0.2166763,-0.185467 0.2166763,-0.213039 0,-0.03504 -0.020835,-0.01966 -0.1257714,0.09274 M 15.496247,2.2133967 c -0.150854,0.07025 -0.220234,0.190755 -0.211116,0.366707 0.0048,0.09484 0.01363,0.123172 0.05697,0.18591 0.06299,0.09119 0.149459,0.146806 0.229506,0.14768 0.0331,3.65e-4 0.06026,0.007 0.06026,0.01464 1.44e-4,0.02859 0.146839,-0.0039 0.218833,-0.04836 0.04103,-0.02534 0.09602,-0.078 0.122269,-0.117026 0.03943,-0.05864 0.04873,-0.09036 0.05345,-0.182844 0.0065,-0.125507 -0.0137,-0.190136 -0.08571,-0.275538 -0.0613,-0.07273 -0.184927,-0.128446 -0.284975,-0.128446 -0.05001,0 -0.109071,0.0138 -0.159484,0.03727 M 0.10186349,2.3866957 c -0.083636,0.08438 -0.1196811,0.138548 -0.092187,0.138548 0.00993,0 0.206988,-0.206749 0.2130862,-0.223617 0.013463,-0.03713 -0.030291,-0.0064 -0.1208992,0.08507 M 10.898779,2.5647937 v 0.198378 l -0.750478,0.0042 c -0.4903201,0.0027 -0.7490831,0.0097 -0.7464941,0.02001 0.0024,0.01023 0.277426,0.01734 0.7742931,0.02001 l 0.770327,0.0041 v -0.222505 c 0,-0.187214 -0.004,-0.222521 -0.0238,-0.222521 -0.01987,0 -0.0238,0.03262 -0.0238,0.198378 m -10.79790621,-0.0648 c -0.088421,0.09209 -0.1167402,0.136387 -0.087179,0.136387 0.016989,0 0.2117159,-0.204366 0.2117159,-0.222156 0,-0.03345 -0.029729,-0.01299 -0.1245373,0.08577 m 0.00642,0.119726 c -0.060582,0.06108 -0.1049684,0.116296 -0.098565,0.12268 0.015466,0.01548 0.2225341,-0.192438 0.2148011,-0.215643 -0.00321,-0.0099 -0.055613,0.03189 -0.1162354,0.09296 m -0.00481,0.11636 c -0.083636,0.08438 -0.1196812,0.138546 -0.092187,0.138546 0.00993,0 0.2069879,-0.206748 0.2130862,-0.223617 0.013463,-0.03713 -0.030291,-0.0063 -0.1208993,0.08507 m 1.41264651,0.0032 c -0.1169165,0.113149 -0.083925,0.114039 0.038545,10e-4 0.051687,-0.04765 0.084334,-0.08696 0.072683,-0.08736 -0.0117,-3.97e-4 -0.061704,0.03845 -0.1111789,0.08632 m 14.4340354,-0.03975 c -0.04776,0.05759 -0.06034,0.05965 -0.05048,0.0083 0.004,-0.02184 8.01e-4,-0.03971 -0.0072,-0.03971 -0.0082,0 -0.03045,0.01787 -0.04936,0.03971 -0.019,0.02184 -0.04175,0.03971 -0.05048,0.03971 -0.0088,0 -0.01603,0.01429 -0.01603,0.03176 0,0.02085 -0.01055,0.03176 -0.03085,0.03176 -0.03959,0 -0.0581,0.02913 -0.02621,0.04134 0.01338,0.0052 0.04343,-0.0056 0.06667,-0.02394 0.06427,-0.05052 0.07885,-0.03979 0.01963,0.01436 -0.02869,0.02621 -0.04696,0.04765 -0.04055,0.04765 0.02764,0 0.144378,-0.09877 0.188228,-0.159307 0.05578,-0.07695 0.05345,-0.09994 -0.0032,-0.03165 m -14.5130329,0.01213 c -0.031092,0.01105 -0.1990145,0.178684 -0.1890458,0.188674 0.014745,0.01476 0.063867,-0.02021 0.1453964,-0.103586 0.075647,-0.07738 0.087644,-0.100745 0.043673,-0.08508 m -1.31333561,0.131177 c -0.060662,0.06115 -0.1009698,0.111181 -0.089535,0.111181 0.022918,0 0.2245375,-0.187642 0.2245375,-0.209005 0,-0.02978 -0.02981,-0.0082 -0.135003,0.09783 m 0.119553,-0.0084 c -0.056015,0.05654 -0.096667,0.108019 -0.09028,0.11442 0.00641,0.0065 0.063146,-0.03989 0.1260438,-0.102811 0.062905,-0.06293 0.1035584,-0.114421 0.090263,-0.114421 -0.013302,0 -0.069957,0.04627 -0.1260279,0.102812 m 0.1142641,-0.0031 c -0.097844,0.09871 -0.1139756,0.122665 -0.082627,0.122665 0.016187,0 0.2220613,-0.198538 0.2220613,-0.214119 0,-0.03 -0.054492,0.0058 -0.1394344,0.09146 m 0.1239764,0.0031 c -0.056014,0.05654 -0.096723,0.107956 -0.090432,0.114261 0.011619,0.01165 0.2170689,-0.182066 0.2170689,-0.204699 0,-0.02841 -0.030291,-0.0068 -0.1266369,0.09043 m 0.114264,-0.0031 c -0.097011,0.09787 -0.1139114,0.122664 -0.08362,0.122664 0.013784,0 0.2230548,-0.203286 0.2230548,-0.216675 0,-0.02748 -0.057376,0.01118 -0.1394343,0.09401 m 0.116596,0.002 c -0.1053688,0.10279 -0.1182308,0.120662 -0.086954,0.120662 0.020434,0 0.2209794,-0.189626 0.2209794,-0.209003 0,-0.03106 -0.0359,-0.0074 -0.1340253,0.08834 m 0.1185674,0.0011 c -0.056015,0.05654 -0.096658,0.10802 -0.09028,0.114421 0.00641,0.0065 0.063146,-0.03989 0.126052,-0.102811 0.062906,-0.06293 0.1035584,-0.114421 0.090264,-0.114421 -0.013302,0 -0.070038,0.04627 -0.1260358,0.102811 m 0.1111788,0 c -0.096202,0.09706 -0.1184711,0.141438 -0.05337,0.106428 0.031573,-0.01696 0.19592921,-0.18475 0.19592921,-0.199966 0,-0.03129 -0.05385,0.004 -0.14251951,0.09353 m 0.12706961,0 c -0.056015,0.05654 -0.097107,0.10758 -0.091282,0.113405 0.00561,0.0058 0.062586,-0.0403 0.12617221,-0.102543 0.063947,-0.06259 0.1047197,-0.113261 0.091282,-0.113404 -0.013382,-1.42e-4 -0.070118,0.04599 -0.126172,0.102542 m 0.1107461,4.28e-4 c -0.1022043,0.103124 -0.1111307,0.144139 -0.0125,0.05734 0.141622,-0.124601 0.1739324,-0.160576 0.1441623,-0.160576 -0.016187,0 -0.075407,0.04645 -0.1317014,0.103242"
     style="fill:#f9f9f9;fill-rule:evenodd;stroke:none;stroke-width:0.0158829"
     id="path1-4" />
</svg>
