<?xml version="1.0" encoding="UTF-8" standalone="no"?>
<svg
   viewBox="0 0 24 24"
   width="24pt"
   height="24pt"
   version="1.1"
   id="svg1"
   xml:space="preserve"
   xmlns="http://www.w3.org/2000/svg"
   xmlns:svg="http://www.w3.org/2000/svg"><defs
     id="defs1" /><path
     d="M 15.161744,2.2718802 C 14.394374,2.6516964 14.311797,3.4131781 14.909287,4.599598 15.11176,5.0017371 15.147091,5.1325185 15.11087,5.3469751 15.02953,5.8284043 14.97947,5.8494245 14.37438,5.6570857 12.24975,4.9816738 9.7154517,5.507611 8.2927331,6.9191684 7.6686071,7.5383636 7.3537028,8.0964143 7.502151,8.3199765 c 0.093122,0.1403 0.1222229,0.1411213 4.904265,0.1411213 4.782042,0 4.811142,-8.261e-4 4.904266,-0.1411213 C 17.57204,7.9264657 16.428347,6.5911859 15.40352,6.0932547 L 15.103954,5.9477507 15.203444,5.54034 c 0.07759,-0.3173689 0.139477,-0.4280204 0.280325,-0.5008748 0.382897,-0.1979533 1.042834,-0.7477872 1.237844,-1.0311939 0.291422,-0.4235702 0.2893,-0.9208851 -0.0057,-1.328022 -0.375222,-0.518062 -1.00065,-0.6823271 -1.554181,-0.4083691 m 0.394402,0.5887939 c -0.38598,0.1419431 -0.478076,0.6564447 -0.161938,0.9050679 0.239311,0.1882988 0.473213,0.1792603 0.678561,-0.026154 0.273616,-0.2735471 0.204459,-0.6576084 -0.152625,-0.8478247 -0.160842,-0.085658 -0.205279,-0.089425 -0.363998,-0.03109 m -4.656123,3.6230782 c 0,0.1518719 0.01589,0.1664576 0.102709,0.094351 0.0565,-0.046903 0.102709,-0.127701 0.102709,-0.1795351 0,-0.051906 -0.04621,-0.094351 -0.102709,-0.094351 -0.06518,0 -0.102709,0.065594 -0.102709,0.1795338 m 2.474456,0.116409 c -0.10942,0.132837 -0.04705,0.3852943 0.06703,0.2712196 0.03965,-0.039647 0.06175,-0.1422855 0.04916,-0.2282185 -0.02088,-0.1420117 -0.03136,-0.1459146 -0.116203,-0.043002 M 9.7622673,6.9033545 C 9.6474451,7.0176315 9.6491531,7.024209 9.7995157,7.0461196 9.9793246,7.0722117 10.116132,6.9685338 10.047796,6.8579574 9.9825419,6.7523777 9.9009235,6.7653874 9.7622673,6.9033581 m 1.7098917,-0.016159 c -0.0243,0.063474 0.0057,0.1611846 0.06895,0.2244524 0.103799,0.1037385 0.112084,0.098602 0.112084,-0.069773 0,-0.2141816 -0.119146,-0.316 -0.181041,-0.1546785 m 0.523403,0.1572114 c 0,0.1319467 0.186108,0.2605381 0.264166,0.1825477 0.05067,-0.05067 -0.07888,-0.2561555 -0.183437,-0.2910079 -0.04444,-0.01479 -0.08072,0.034026 -0.08072,0.1084626 m 0.456505,0.2640982 c -0.06689,0.066902 -0.05573,0.2966914 0.01445,0.2966914 0.03301,0 0.09731,-0.044843 0.142834,-0.099693 0.121607,-0.1465989 -0.02458,-0.3296953 -0.157282,-0.1969952 m 1.255306,0.1255097 c 0,0.069361 0.06943,0.1027088 0.213769,0.1027088 0.182343,0 0.201241,-0.015129 0.128592,-0.1027088 -0.0469,-0.056497 -0.143107,-0.1027088 -0.213771,-0.1027088 -0.07073,0 -0.12859,0.046224 -0.12859,0.1027088 m -2.986424,0.132768 c -0.02081,0.054231 -0.0064,0.154337 0.03191,0.222535 0.06409,0.1138651 0.07511,0.1099646 0.134685,-0.047169 0.03567,-0.094145 0.05121,-0.1943242 0.03464,-0.2225337 -0.04971,-0.084357 -0.160772,-0.058265 -0.201241,0.047169 m 1.069471,1.5102943 c -0.197474,0.2102109 -0.142629,0.2808061 0.152625,0.1965156 0.153584,-0.043826 0.230546,-0.1114062 0.24561,-0.2156195 0.03047,-0.2115106 -0.191655,-0.2008291 -0.398235,0.019115 m 6.231465,-0.069082 c -0.122017,0.1470096 -0.0317,0.3229155 0.152283,0.2966902 0.175495,-0.02499 0.249102,-0.25006 0.110449,-0.3379106 -0.128319,-0.081341 -0.16591,-0.075454 -0.262729,0.041222 M 5.2793493,9.062444 C 5.0971447,9.2023322 4.9997765,9.450545 5.045516,9.6587014 5.1044739,9.9273178 5.2203945,10.013114 5.3732936,9.9013675 5.4784675,9.8244721 5.4834654,9.7867391 5.4097862,9.6250809 5.333029,9.456707 5.340836,9.4245934 5.4870231,9.306273 5.5856921,9.2263614 5.6742949,9.1993245 5.712434,9.2374572 c 0.055733,0.055733 0.020887,0.204801 -0.2641668,1.1289048 -0.031909,0.103532 -0.00549,0.121196 0.1542003,0.102708 0.1597459,-0.01841 0.205759,-0.06923 0.2688221,-0.296141 0.069911,-0.2516364 0.097163,-0.2756704 0.3361999,-0.2956646 0.2185633,-0.018352 0.2531426,-0.00363 0.2165782,0.091552 -0.1958316,0.5103246 -0.079497,0.8444706 0.2640292,0.7582636 0.1842589,-0.04629 0.2405434,-0.246021 0.069363,-0.246021 -0.1292073,0 -0.1378349,0.0582 0.1022981,-0.6934202 C 7.1086554,9.00856 7.1100935,8.9746657 6.894132,8.9746657 c -0.1452985,0 -0.1839853,0.046903 -0.2538269,0.3081264 -0.079019,0.2952528 -0.093054,0.3081256 -0.3373643,0.3081256 H 6.0480421 l 0.063682,-0.2220565 c 0.034989,-0.1221543 0.063683,-0.2608105 0.063683,-0.3081252 0,-0.1141437 -0.7471026,-0.1127023 -0.8960984,0.0017 m 4.8615383,0.4043292 c -0.141464,0.473824 -0.2899115,0.7403888 -0.4124776,0.7403888 -0.030126,0 -0.011144,-0.1238 0.042251,-0.2751229 C 9.8240161,9.7807758 9.8500476,9.6110319 9.8285465,9.5548854 9.7751389,9.4158173 9.5054262,9.3574796 9.3356823,9.4483367 9.2591262,9.4892797 9.1799087,9.4959299 9.1596407,9.4631271 9.1393751,9.4303363 8.9556622,9.4020517 8.7513403,9.4002105 L 8.3799457,9.3968188 8.3044894,9.6821431 C 8.2247184,9.983629 8.0527161,10.258477 7.9856816,10.19151 c -0.021909,-0.0219 0.00862,-0.182547 0.067785,-0.3568772 0.1419431,-0.4181614 0.1375612,-0.4491787 -0.06354,-0.4491787 -0.09415,0 -0.1711804,0.031083 -0.1711804,0.069022 0,0.042857 -0.048137,0.039029 -0.1266054,-0.010054 -0.4032337,-0.2517741 -0.9406734,0.4406873 -0.696296,0.8972609 0.057995,0.10833 0.160773,0.126263 0.7483347,0.130372 l 0.6811635,0.0048 0.1112669,-0.335036 c 0.061211,-0.1842589 0.1609104,-0.3759121 0.22144,-0.4258977 0.09908,-0.08168 0.1055845,-0.063207 0.064772,0.1830261 -0.02499,0.1506396 -0.064434,0.3432526 -0.087645,0.4279536 -0.035606,0.129823 -0.015477,0.154062 0.127975,0.154062 0.1451607,0 0.1833007,-0.04801 0.2582785,-0.325244 0.048417,-0.178849 0.1188679,-0.3650949 0.1566639,-0.4137093 0.1155853,-0.148995 0.1865875,0.011871 0.1151734,0.2608103 -0.1145556,0.399537 -0.047181,0.478143 0.4100818,0.478143 0.25636,0 0.412955,-0.0308 0.435073,-0.08558 0.02759,-0.06848 0.03561,-0.06848 0.03991,0 0.0074,0.117838 0.360711,0.107772 0.522991,-0.01492 0.172687,-0.130646 0.347635,-0.131604 0.397346,-0.0022 0.04724,0.12318 0.392757,0.13708 0.509297,0.02053 0.06388,-0.06389 0.08216,-0.06389 0.08216,0 0,0.04519 0.0871,0.08218 0.193503,0.08218 0.212264,0 0.409466,-0.178028 0.587699,-0.5306621 0.115924,-0.2293814 0.305866,-0.3236678 0.206855,-0.1027089 -0.02958,0.065933 -0.05594,0.22767 -0.05868,0.35948 -0.0045,0.213224 0.01623,0.242118 0.187408,0.261702 0.105858,0.01211 0.238147,-0.01582 0.293952,-0.0621 0.07682,-0.06383 0.120722,-0.06499 0.180699,-0.0051 0.04361,0.04361 0.173234,0.081 0.288131,0.08312 l 0.208841,0.0039 -0.233081,0.08168 c -0.266356,0.09339 -0.390497,0.251362 -0.32716,0.416381 0.113054,0.294499 0.532921,0.210278 0.739228,-0.148175 0.173235,-0.300936 0.465817,-0.545383 0.530456,-0.443153 0.0643,0.101752 0.942522,0.08518 1.086588,-0.02054 0.100722,-0.07388 0.14071,-0.07127 0.236845,0.01541 0.153653,0.138588 0.544151,0.132561 0.764358,-0.01175 0.09744,-0.06383 0.230204,-0.236366 0.295115,-0.3834462 0.161869,-0.3668057 0.242254,-0.3352408 0.188026,0.073806 -0.03835,0.288954 -0.02671,0.348319 0.07622,0.387758 0.06683,0.02568 0.209388,0.01348 0.316753,-0.02711 0.109698,-0.04137 0.195352,-0.04629 0.195352,-0.01115 0,0.09066 0.437606,0.07682 0.531208,-0.01678 0.05601,-0.05601 0.105168,-0.05806 0.167758,-0.007 0.04862,0.03972 0.295663,0.07306 0.548873,0.07416 0.428706,0.0018 0.472392,-0.01226 0.633371,-0.203636 0.172482,-0.204939 0.227328,-0.4004271 0.112363,-0.4004271 -0.03335,0 -0.111067,0.077029 -0.172757,0.1711821 -0.106137,0.162004 -0.30566,0.254649 -0.207949,0.09662 0.02534,-0.04102 0.08558,-0.2244528 0.133931,-0.4076171 l 0.08785,-0.3330495 -0.431035,0.01685 c -0.497863,0.019514 -0.618578,0.096483 -0.794279,0.5064214 -0.06971,0.1625532 -0.171796,0.2919662 -0.230272,0.2919662 -0.128728,0 -0.12866,0.0045 -0.0024,-0.2975807 0.150845,-0.3610556 0.13448,-0.5240875 -0.05272,-0.5240875 -0.127495,0 -0.179878,0.070051 -0.291008,0.3890591 -0.165566,0.4751981 -0.332228,0.5818791 -0.266495,0.1704962 0.03725,-0.232669 0.02184,-0.2884738 -0.100856,-0.3650942 -0.07963,-0.049774 -0.144819,-0.1446826 -0.144819,-0.2109631 0,-0.082855 -0.05348,-0.1204427 -0.171181,-0.1204427 -0.09414,0 -0.174399,0.023136 -0.178302,0.05136 -0.004,0.028212 -0.01438,0.1666623 -0.02321,0.3076467 -0.02293,0.3659845 -0.382281,0.7145092 -0.63686,0.6176902 -0.117293,-0.04465 -0.03691,-0.155022 0.112836,-0.155022 0.161321,0 0.348935,-0.2132925 0.348935,-0.3967293 0,-0.2549914 -0.450685,-0.3835815 -0.694447,-0.1980903 -0.06183,0.047048 -0.180766,0.2309573 -0.264304,0.4086427 -0.08353,0.1777539 -0.179328,0.3231219 -0.212812,0.3231219 -0.08443,0 -0.07682,-0.07464 0.04177,-0.4108344 0.135507,-0.3841302 0.131467,-0.4108352 -0.06299,-0.4108352 -0.13941,0 -0.184123,0.056969 -0.282312,0.3594808 -0.130713,0.4030278 -0.193709,0.4968348 -0.292513,0.4357568 -0.04341,-0.02683 -0.03328,-0.156596 0.02821,-0.3609862 0.126605,-0.4206252 0.124277,-0.4342514 -0.07416,-0.4342514 -0.144065,0 -0.181862,0.046358 -0.246363,0.3025119 -0.04184,0.1663873 -0.150914,0.3727627 -0.242393,0.4586267 l -0.166182,0.156186 0.09401,-0.270397 c 0.22654,-0.6514483 0.231676,-0.6358355 -0.210519,-0.6345345 -0.487523,0.00145 -0.671987,0.1123631 -0.840566,0.5055311 -0.14975,0.3494824 -0.294979,0.4172034 -0.202405,0.094423 0.07292,-0.2540998 0.02923,-0.388101 -0.144339,-0.4431524 -0.07189,-0.022797 -0.130645,-0.1031933 -0.130645,-0.1785769 0,-0.1029874 -0.03828,-0.1316717 -0.154064,-0.115234 -0.118867,0.01691 -0.155637,0.068949 -0.160909,0.2280138 -0.0074,0.2224659 -0.182548,0.6106359 -0.311482,0.6903379 -0.05731,0.03547 -0.06704,-0.01126 -0.03472,-0.166867 0.02472,-0.1187953 0.06471,-0.3112068 0.08895,-0.4274728 0.03991,-0.1919283 0.02937,-0.2093194 -0.114277,-0.1882991 -0.119897,0.017528 -0.184533,0.10134 -0.266563,0.3454427 -0.184123,0.5481912 -0.422749,0.6550072 -0.280121,0.1253728 0.04218,-0.1568008 0.0947,-0.3318176 0.116603,-0.3889222 0.03074,-0.080118 -0.003,-0.098736 -0.147558,-0.081341 -0.14838,0.017867 -0.206376,0.077925 -0.278203,0.2879263 -0.113201,0.3310153 -0.270344,0.5113023 -0.201049,0.230636 0.07135,-0.2887487 -0.127838,-0.5525053 -0.388307,-0.5142284 -0.163786,0.024033 -0.193777,0.00908 -0.157485,-0.078737 0.08826,-0.2135662 0.06218,-0.3139468 -0.08696,-0.335242 -0.132905,-0.018897 -0.168509,0.037999 -0.300251,0.4793069 m 0.374339,0.2920351 c -0.02096,0.054704 -0.01821,0.1317408 0.0062,0.1711805 0.07977,0.1290712 0.173235,0.075381 0.173235,-0.099426 0,-0.1856293 -0.117632,-0.2326701 -0.179397,-0.071759 m 5.693068,0.011387 c -0.129208,0.1292079 -0.10346,0.1846699 0.05703,0.1231137 0.0619,-0.023754 0.112497,-0.086138 0.112497,-0.1385885 0,-0.1233184 -0.03382,-0.1202368 -0.169538,0.015481 m -8.7866717,0.03978 c -0.1166088,0.1166149 -0.103805,0.39714 0.018145,0.39714 0.1244145,0 0.2656732,-0.2505411 0.2152085,-0.381939 C 7.6093513,9.7060524 7.5305353,9.7009127 7.4215959,9.8098514 m 6.2724801,0.090862 c -0.05997,0.1315356 -0.05943,0.1924756 0.0022,0.2541006 0.108729,0.10873 0.390701,-0.1628279 0.330858,-0.3187384 -0.06321,-0.1647448 -0.244584,-0.1295495 -0.333051,0.064637 m 5.082637,-0.040604 c -0.09744,0.1821374 -0.08887,0.3468804 0.01815,0.3468804 0.13715,0 0.253348,-0.147557 0.253348,-0.3218192 0,-0.1935029 -0.172757,-0.2094574 -0.271494,-0.025062 m -8.424521,0.2058952 c 0,0.03547 0.03047,0.08327 0.06773,0.10627 0.03875,0.02397 0.05026,-0.0035 0.02692,-0.06444 -0.04552,-0.118589 -0.09463,-0.1402997 -0.09463,-0.04184 m -0.246159,0.578387 c -0.02006,0.05225 -0.1261248,0.112908 -0.2356813,0.134821 -0.19994,0.03999 -0.3368156,0.293542 -0.2416401,0.447536 0.07073,0.114483 1.1769724,0.08676 1.2755034,-0.03198 0.04602,-0.05553 0.06224,-0.122428 0.03601,-0.148653 -0.02621,-0.02621 -0.07682,-0.0024 -0.112363,0.053 -0.04417,0.06875 -0.05108,0.03012 -0.02197,-0.121813 0.0406,-0.211649 0.03252,-0.222536 -0.165566,-0.222536 -0.147489,0 -0.249239,0.05492 -0.348661,0.188299 l -0.140506,0.188296 0.06628,-0.239173 c 0.03643,-0.131605 0.06628,-0.262523 0.06628,-0.291009 0,-0.09004 -0.139616,-0.05607 -0.177685,0.04321 m 3.466344,0.17618 c -0.05539,0.03506 -0.07778,0.08661 -0.04971,0.114689 0.02801,0.02808 0.103048,-0.0011 0.166732,-0.06477 0.123726,-0.12373 0.0497,-0.155364 -0.117027,-0.04992 m -8.3354161,0.146806 c -0.7216987,0.27745 -1.1463643,0.983605 -1.0144867,1.687021 0.046973,0.250335 0.2336275,0.634876 0.3072355,0.632822 0.020129,-5.48e-4 0.1563911,-0.102431 0.3028536,-0.226301 C 5.067109,12.86247 5.0895678,12.818168 5.02089,12.689782 4.8979136,12.45992 4.927972,12.063533 5.085257,11.842711 5.2145326,11.66119 5.6071531,11.396203 5.6635059,11.452555 c 0.021361,0.02136 -0.1167457,0.534769 -0.3464016,1.287896 -0.0517,0.16947 -0.154542,0.508408 -0.2286295,0.753197 -0.074022,0.244788 -0.1802189,0.591396 -0.2360924,0.770313 l -0.1014769,0.325245 h 0.4011797 0.401248 l 0.1564596,-0.514502 c 0.1214016,-0.399126 0.1796028,-0.504847 0.2596475,-0.471363 0.2690962,0.112363 0.6715081,0.167071 0.9222538,0.125303 0.6050903,-0.100649 1.0371512,-0.466365 1.6373804,-1.385811 0.2813528,-0.430965 0.3392805,-0.485264 0.4528074,-0.424529 0.2078136,0.1112 0.2142495,0.168442 0.070318,0.62748 -0.2747102,0.87631 -0.1330405,1.290225 0.441511,1.290225 0.2353399,0 0.3654369,-0.04977 0.6018031,-0.230203 l 0.301484,-0.230136 0.219042,0.230136 c 0.194326,0.204252 0.259511,0.230203 0.578661,0.230203 0.265536,0 0.42131,-0.04224 0.595232,-0.161389 l 0.235544,-0.161389 0.126948,0.161389 c 0.241843,0.307441 0.871927,0.183643 1.229763,-0.241639 l 0.170359,-0.202542 0.147079,0.198982 c 0.08094,0.10942 0.239311,0.246569 0.352018,0.304838 0.194802,0.100722 0.200212,0.115101 0.110861,0.292173 -0.12031,0.238283 -0.07615,0.357357 0.132562,0.357357 0.09099,0 0.165497,0.03486 0.165497,0.07737 0,0.05108 -0.103739,0.06567 -0.305387,0.04293 -0.235749,-0.02657 -0.330447,-0.0067 -0.415215,0.08689 -0.101473,0.112157 -0.09799,0.129549 0.04677,0.230957 0.100031,0.07005 0.300457,0.109625 0.555242,0.109625 0.332023,0 0.426788,-0.02814 0.566746,-0.168099 0.09244,-0.09244 0.168099,-0.224178 0.168099,-0.292857 0,-0.18912 -0.195967,-0.429185 -0.350304,-0.429185 -0.23671,0 -0.07326,-0.12277 0.230821,-0.17344 0.349345,-0.05813 0.722316,-0.238558 0.90041,-0.435552 0.15112,-0.167074 0.246159,-0.185424 0.246159,-0.04759 0,0.05313 0.09483,0.176386 0.210689,0.273891 0.283065,0.238214 0.764494,0.246021 1.100626,0.01788 l 0.234929,-0.159404 0.120164,0.159404 c 0.241365,0.319903 0.890688,0.177617 1.297003,-0.28416 0.130646,-0.148517 0.526963,-0.796676 0.528059,-0.863505 3.65e-4,-0.02225 -0.07196,-0.07347 -0.160703,-0.113938 -0.145163,-0.06608 -0.17214,-0.0508 -0.26903,0.152215 -0.141327,0.296484 -0.517034,0.721012 -0.638094,0.721012 -0.05258,0 -0.09559,-0.05765 -0.09559,-0.128112 0,-0.104283 0.224795,-0.889044 0.507654,-1.771996 0.04752,-0.148241 0.03369,-0.154062 -0.366121,-0.154062 -0.369751,0 -0.415422,0.01507 -0.415422,0.136945 0,0.161047 -0.08676,0.177206 -0.202541,0.03773 -0.04526,-0.05458 -0.185698,-0.133315 -0.312029,-0.175016 -0.556955,-0.183779 -1.281392,0.322505 -1.513035,1.057419 -0.12907,0.409534 -0.463488,0.821395 -0.757851,0.933278 -0.253896,0.09654 -0.65802,0.07656 -0.82564,-0.04087 -0.431102,-0.301963 -0.09901,-1.401698 0.423227,-1.401698 0.08608,0 0.09024,0.02945 0.02478,0.173167 -0.06621,0.14523 -0.05657,0.203157 0.05957,0.359479 0.18823,0.253211 0.452671,0.27567 0.671441,0.0569 0.370572,-0.370572 0.104417,-1.005038 -0.478007,-1.139243 -0.743952,-0.171454 -1.433058,0.277039 -1.68127,1.094119 -0.155432,0.511764 -0.480196,0.96197 -0.693967,0.96197 -0.167552,0 -0.167279,-0.0019 0.17611,-1.09556 0.135986,-0.433086 0.247323,-0.825912 0.24746,-0.873021 1.81e-4,-0.05794 -0.119147,-0.08559 -0.368999,-0.08559 -0.342019,0 -0.372489,0.01329 -0.4146,0.181041 -0.04526,0.180357 -0.04581,0.180493 -0.146394,0.03691 -0.144545,-0.206444 -0.541137,-0.300937 -0.88213,-0.21021 -0.391867,0.104356 -0.860971,0.606664 -1.016334,1.088367 -0.193092,0.598723 -0.6133771,1.099461 -0.7816141,0.931156 -0.021634,-0.02163 0.028357,-0.267453 0.1111276,-0.546272 0.09257,-0.311825 0.1329703,-0.576813 0.1049013,-0.68856 -0.048199,-0.191997 -0.3677639,-0.470199 -0.6326155,-0.550792 -0.1339309,-0.04066 -0.1513922,-0.07915 -0.1138046,-0.250403 0.026637,-0.1214 0.011265,-0.242186 -0.038484,-0.302169 -0.1168814,-0.140846 -0.5009437,-0.125577 -0.6375455,0.02534 -0.130988,0.144751 -0.1501604,0.495261 -0.033412,0.612006 0.060873,0.06087 0.04964,0.146942 -0.047176,0.361671 l -0.1270843,0.281821 -0.080728,-0.27341 C 8.0620787,11.492619 7.8468703,11.254609 7.3776973,11.030706 6.9824751,10.842064 6.8822999,10.823713 6.2683078,10.826932 c -0.5040249,0.0027 -0.7651789,0.03828 -1.0313307,0.140574 m 4.6016864,0.06128 c -0.023282,0.03765 -0.00969,0.06848 0.030198,0.06848 0.039853,0 0.07251,-0.03082 0.07251,-0.06848 0,-0.03766 -0.013567,-0.06848 -0.030199,-0.06848 -0.016644,0 -0.049241,0.03082 -0.07251,0.06848 m 0.6276865,-0.0228 c -0.02512,0.02506 -0.04568,0.07744 -0.04568,0.116408 0,0.04286 0.03191,0.03882 0.081,-0.0103 0.04458,-0.04458 0.06512,-0.09695 0.04568,-0.116409 -0.01944,-0.01951 -0.05595,-0.01486 -0.081,0.0103 m -4.0124817,0.618442 c -0.039099,0.143176 -0.1469417,0.504642 -0.2396532,0.803318 -0.092712,0.298676 -0.1529673,0.568252 -0.1338631,0.599133 0.019031,0.03082 0.2053487,0.05607 0.4140521,0.05607 0.3383908,0 0.4039874,-0.02458 0.6068019,-0.227397 0.5264162,-0.526411 0.3238744,-1.213874 -0.4258293,-1.444968 -0.1301659,-0.04012 -0.1600202,-0.01126 -0.2215084,0.21384 M 11.4757,12.16056 c -0.281285,0.298266 -0.362288,0.648776 -0.205212,0.88843 0.06156,0.09401 0.176932,0.170905 0.25636,0.170905 0.200419,0 0.579825,-0.42309 0.632891,-0.705743 0.110583,-0.589411 -0.274095,-0.788253 -0.684039,-0.353592 m 5.655064,-0.04649 c -0.355097,0.35503 -0.354139,1.053447 0.0013,1.08823 0.317374,0.03102 0.683497,-0.445548 0.683497,-0.889661 0,-0.430416 -0.351332,-0.532235 -0.68493,-0.198569"
     stroke="none"
     fill="#faf9f0"
     fill-rule="evenodd"
     id="path1-8"
     style="stroke-width:0.0684723" /></svg>
