<svg xmlns="http://www.w3.org/2000/svg" width="24" height="24"><path fill="#a77b72" fill-rule="evenodd" d="M11 2.2c-.11.11-.2.28-.2.37 0 .1-.12.27-.27.38-.21.18-.25.27-.2.5.05.15.17.3.27.32q.18.06.2.15c0 .13-.73.78-.87.78q-.12.02-.13.2 0 .5-.37.5-.25.02-.36-.3c-.06-.16-.16-.3-.2-.3-.06 0-.3-.16-.54-.36l-.44-.36.26-.24c.14-.12.25-.28.25-.34 0-.12-.36-.5-.48-.5-.04 0-.13-.13-.19-.3-.12-.32-.38-.49-.54-.33-.06.06-.04.57.06 1.39.08.7.17 1.67.2 2.14.04.83.13 1.02.38.82a7 7 0 0 1 2.43-.52c1.27-.11 2.91.02 3.89.3 1.08.32 1 .39 1.06-.8.03-.58.12-1.55.2-2.17.07-.62.1-1.15.07-1.19-.13-.13-.46.08-.58.36-.07.17-.16.3-.2.3-.15 0-.4.31-.4.5 0 .1.1.28.2.39.22.2.22.2.02.38-.34.31-.66.53-.78.53-.06 0-.14.14-.17.3-.05.23-.12.3-.3.3q-.46-.02-.47-.47-.02-.21-.12-.23c-.15 0-.88-.65-.88-.77q.02-.09.22-.18c.34-.15.36-.6.04-.8-.14-.1-.26-.26-.26-.36 0-.2-.33-.59-.5-.59-.05 0-.19.09-.3.2M9.5 6.41q-1.48.3-1.98.76c-.18.18-.32.38-.3.45.04.1.9.14 4.11.16 3.97.02 4.07.02 4.07-.17 0-.46-.98-.96-2.34-1.2a17 17 0 0 0-3.56 0M7.32 8.78l.03.77.42.03c.32.02.46-.02.61-.18.17-.18.22-.2.29-.07.04.07.17.19.28.25.19.1.18.11-.08.12-.21 0-.31.08-.44.35q-.29.65-.35.03c-.03-.3-.07-.33-.37-.36-.19-.02-.37 0-.4.06s-.04.61-.01 1.23l.05 1.14h.35c.33 0 .35-.02.4-.39l.05-.39.25.4.25.38 1.32.02c1.45.02 1.5 0 1.55-.57l.03-.35.29.48c.25.43.32.48.6.45l.31-.03.03-.8c.01-.44.07-.9.13-1.01q.27-.56-.3-.62c-.43-.04-.61.12-.61.57v.36l-.32-.48c-.27-.42-.35-.48-.62-.45l-.31.03-.05.9c-.05.89-.06.92-.4.87-.17-.03-.12-.98.06-1.12a.5.5 0 0 0 .12-.4c-.03-.23-.08-.25-.63-.3-.33-.04-.52-.07-.43-.08.29-.03.48-.32.48-.73 0-.58.18-.47.22.13.03.46.06.53.26.56q.22.04.22-.14c0-.16.01-.16.18 0 .2.18.48.21.57.07q.06-.09.35.02c.16.07.47.1.7.09l.4-.04v-.44c0-.23-.06-.47-.12-.51-.07-.04-.13-.2-.13-.33 0-.22-.05-.25-.4-.28-.31-.02-.46.02-.6.18l-.18.2-.22-.2c-.2-.18-.33-.2-.96-.18l-.74.03-.05.5c-.07.68-.28.7-.32.03-.03-.47-.06-.53-.26-.56a.5.5 0 0 0-.37.08q-.13.11-.2 0C8.22 8.05 8 8 7.74 8h-.45zm5.54-.1c.03.37.07.73.1.8.04.15 1.04.17 1.04.01q0-.08.1-.04c.18.11.1.25-.15.25-.15 0-.38.14-.6.35-.3.3-.35.42-.35.8 0 .54.2.96.54 1.18.19.13.47.16 1.28.14 1.03-.02 1.03-.02 1.03-.27 0-.2-.05-.25-.22-.24-.2 0-.23-.04-.23-.36 0-.44-.14-.6-.56-.6-.35 0-.5.2-.34.5q.15.3-.2.3c-.24 0-.5-.32-.5-.63 0-.33.3-.5.73-.42.26.05.37.02.52-.15.2-.22.2-.22-.04-.4a1 1 0 0 0-.43-.2c-.18 0-.18-.01-.03-.16q.17-.19.28-.05c.16.16.47.14.54-.05.03-.08-.01-.23-.1-.31-.12-.12-.13-.2-.05-.39.08-.18.07-.29-.06-.48-.15-.24-.2-.25-1.26-.25h-1.1zm-1.02-.03a.5.5 0 0 0 0 .3c.07.19.36.2.36 0 0-.07.03-.2.06-.3q.07-.15-.15-.15c-.12 0-.24.07-.27.15m-2.81 1.86-.22.4.2.35c.12.2.27.33.33.31.16-.05.2-1.03.04-1.26-.13-.18-.15-.17-.35.2m-1.78 2c-.12.19.27.6.79.85 1.94.89 6.01.67 7.13-.38.13-.12.23-.3.23-.4 0-.17-.2-.18-4.04-.18q-4.05 0-4.11.1m.13 2.17c-.14.04-.16.13-.12.56.03.29.07.58.1.64.05.17.42.16.76-.01.23-.12.27-.12.32 0 .07.18.25.18.31-.01.16-.5.16-.5.3-.17.15.34.38.42.53.16.08-.14.1-.14.21 0 .17.2.38.2.5 0 .07-.15.1-.15.32 0 .14.08.34.13.46.1.28-.08.36-.58.13-.79-.17-.16-.88-.18-1.07-.03q-.11.08-.18-.02c-.03-.05-.15-.1-.26-.1q-.17-.02-.19-.15-.02-.14-.2-.15-.18.01-.2.15c0 .2-.67.2-.9.01a1 1 0 0 0-.82-.19m4.4 0c-.22.06-.24.41-.03.5.08.03.15.17.15.33 0 .3.23.56.4.45.05-.03.1-.22.1-.4q0-.36.15-.35.15-.01.15.34 0 .5.38.39.1-.06.13-.21 0-.18.1.05c.06.18.15.21.46.2.29-.02.39-.08.41-.22q.13-.53.31-.12.1.25.18.28l.43.02.35.02v-.45c0-.36-.04-.45-.19-.48-.1-.02-.22.02-.27.1q-.1.15-.09 0c0-.1-.2-.12-.8-.1-.63.01-.83-.02-.93-.14-.12-.16-1.06-.3-1.4-.21"/></svg>