<svg xmlns="http://www.w3.org/2000/svg" width="24" height="24"><path fill="#e42116" fill-rule="evenodd" d="M12.95 4.4a3 3 0 0 0-1.31 1.17c-.17.38-.18 1.6-.03 2 .05.15.27.45.47.66.87.9 2.61.88 3.53-.04C16 7.8 16 7.8 16 7v-.8h-1.2c-1.18 0-1.2 0-1.26.24a2 2 0 0 0-.02.47c.03.22.09.24.66.27q1.06.06.33.47c-.48.24-1.14.2-1.5-.1-.29-.25-.31-.31-.31-.95s.02-.7.3-.94c.5-.42 1.4-.34 1.8.15.15.18.17.18.62.01.26-.1.5-.2.54-.25.13-.13-.47-.75-.98-1.01a3 3 0 0 0-2.03-.15m4.96.03a2.7 2.7 0 0 0-1.27 1.12 4 4 0 0 0 0 2.07c.07.18.32.5.55.7.95.8 2.54.74 3.42-.14C21 7.8 21 7.8 21 7v-.8h-2.4v1h.6c.69 0 .81.19.3.45-.47.24-1.13.2-1.5-.1-.28-.25-.3-.31-.3-.95s.02-.7.3-.94c.25-.2.42-.26.85-.26.46 0 .58.04.84.3l.3.3.47-.19c.27-.1.5-.23.51-.28.07-.2-.51-.76-1.02-1a3 3 0 0 0-2.04-.1M3 6.62v2.2l1.53-.03c1.44-.03 1.56-.05 1.9-.28.62-.43.77-1.15.33-1.67-.24-.28-.24-.29-.05-.52.4-.5.15-1.37-.5-1.7-.35-.18-.6-.21-1.8-.21H3zm4.2-1.87c0 .26.16.56.75 1.33l.75.99V8.8h1.1V7.04l.76-1.02c.59-.79.75-1.07.72-1.29-.03-.26-.07-.28-.48-.31l-.45-.03-.54.76c-.38.53-.57.72-.66.65a7 7 0 0 1-.56-.75c-.44-.65-.44-.65-.91-.65s-.48 0-.48.33M4.1 5.75v.36l.78-.03.77-.03v-.6l-.78-.03-.77-.03zm0 1.7v.35h.73c.83 0 1-.08.95-.41-.03-.23-.07-.24-.85-.27L4.1 7.1zM3 11.5v2.2h1.1v-1.42l.01-1.43.52 1.03.52 1.02h.8l.52-1.03.52-1.02v1.43L7 13.7h1.1V9.3H6.6l-.52 1.06-.51 1.07-.54-1.07L4.5 9.3H3zm6.94-1.82c-.09.2-.22.55-.3.77l-.24.6c-.3.6-.7 1.92-.7 2.26v.39h.44c.42 0 .45-.02.6-.4l.16-.4h1.8l.16.4c.16.4.17.4.63.38.4-.03.46-.06.49-.28s-1.09-3.36-1.39-3.92c-.08-.15-.22-.18-.8-.18h-.69zm3.46-.07c0 .23.16.5.6 1.04.33.4.6.77.6.8 0 .05-.27.42-.6.82-.5.62-.6.8-.58 1.06.03.3.06.32.44.35.4.03.43.01.99-.68.32-.39.61-.67.65-.63l.55.7c.46.6.5.63.91.63.44 0 .44 0 .44-.36 0-.3-.1-.5-.53-1.03-.3-.36-.56-.7-.6-.77-.03-.05.2-.44.54-.85.44-.56.59-.82.59-1.06 0-.33 0-.33-.47-.33s-.49.02-.97.65c-.26.36-.51.65-.55.65s-.29-.3-.56-.65c-.48-.64-.5-.65-.97-.65s-.48 0-.48.3m5.45.5c-.11.04-.32.2-.48.33-.25.24-.27.32-.27 1.02s.02.79.28 1.05c.5.5 1.33.6 2.04.24.46-.24.58-.51.58-1.32 0-.67-.02-.75-.27-.99a2 2 0 0 0-.51-.34c-.29-.11-1.1-.1-1.37 0m.2.3c-.46.2-.65.5-.65 1.02 0 .6.11.84.5 1.04.6.31 1.51.1 1.7-.41.32-.84-.1-1.63-.9-1.7-.25-.02-.54 0-.65.05m-8.52.73c-.12.34-.2.66-.17.7.07.1.94.1.94 0 0-.13-.45-1.32-.5-1.32-.03 0-.15.28-.27.62m8.4.3c.02.7.05.83.2.86.13.03.17-.03.17-.27q0-.6.42-.01c.34.46.63.37.37-.12q-.12-.2 0-.31c.15-.15.14-.7-.01-.85-.07-.07-.36-.12-.65-.12h-.54zm.45-.45c-.04.03-.07.15-.07.25 0 .2.44.26.55.08.14-.22-.3-.52-.48-.33"/></svg>