<svg xmlns="http://www.w3.org/2000/svg" width="24" height="24"><path fill="#4b3326" fill-rule="evenodd" d="M15.32 5.83c.03.19.1.22.53.25s.48.01.35-.12a2 2 0 0 0-.53-.24c-.36-.1-.38-.1-.35.11m-7.15.44c-.04.03-.07.34-.07.69 0 .7.04.74.8.74.47 0 .5-.02.5-.25S9.36 7.2 9 7.2c-.4 0-.41-.01-.38-.27.02-.16.09-.29.16-.3l.37-.02q.26 0 .25-.21c0-.18-.07-.2-.58-.2-.32 0-.62.03-.65.07m1.64.07c-.07.09-.1.37-.09.73.03.54.05.58.3.61q.27.04.3-.17c.08-.27.34-.27.4-.01q.06.2.33.2c.26 0 .26 0 .23-.72l-.03-.73-.66-.03c-.48-.02-.7.01-.78.12m1.89.62v.75l.28-.03c.2-.02.28-.09.3-.3q.03-.25.23-.31.18-.06.19-.26 0-.2.15-.21.14-.02.15-.2c0-.18-.07-.2-.65-.2h-.65zm1.52-.03c.03.7.04.72.28.72.2 0 .26-.06.28-.28q.04-.28.22-.27.18 0 .22-.22.04-.21.18-.23t.18-.22c.03-.22 0-.23-.68-.23h-.7zm1.58.02v.76l.72-.03c.67-.03.73-.05.76-.25s0-.23-.35-.23c-.2 0-.33-.04-.27-.08.07-.04.13-.16.16-.27q.04-.19.23-.2.2 0 .23-.22c.03-.22 0-.23-.72-.23h-.76zM3 10.2v1.9h1.2v-.75c0-.41.02-.75.05-.75.02 0 .7.38 1.49.85s1.47.85 1.5.85.06-.9.06-2v-2H6.2v.85c0 .47-.02.85-.04.85s-.7-.38-1.49-.85c-.8-.47-1.5-.85-1.56-.85-.08 0-.11.6-.11 1.9m5.07-1.84c-.04.04-.07.9-.07 1.9v1.84h3.8v-1h-1.2c-1.13 0-1.2-.01-1.2-.2 0-.17.07-.2.5-.2.27 0 .5-.03.53-.07s.08-.27.12-.5l.07-.43H10c-.48 0-.61-.03-.61-.15s.2-.15 1.2-.15h1.21l-.03-.53-.03-.52-1.8-.03c-1-.01-1.84 0-1.88.04m4.43 1.84v1.9h1.3v-.5c0-.5 0-.5.32-.5.28 0 .38.07.67.5l.34.5h.74c.4 0 .73-.03.73-.06s-.14-.25-.3-.49c-.34-.5-.36-.58-.15-.75.18-.15.21-1.66.04-2.04-.18-.38-.58-.46-2.2-.46H12.5zm5-1.83c-.47.18-.5.29-.5 1.88 0 1.34.02 1.54.18 1.68s.44.17 1.84.17c1.47 0 1.67-.02 1.81-.18s.17-.43.17-1.69c0-1.97.1-1.87-1.89-1.9-.8-.01-1.53 0-1.61.04m-3.63 1c-.04.03-.07.21-.07.4v.33h1.11l-.03-.37c-.03-.37-.04-.38-.48-.41-.25-.02-.49 0-.53.04m4.43.89v.86l.73-.03.72-.03v-1.6l-.72-.03-.73-.03z"/></svg>