<svg xmlns="http://www.w3.org/2000/svg" width="24" height="24"><path fill="#883b9a" fill-rule="evenodd" d="M12.52 2.16c-.42.3-.18 1.04.35 1.04.1 0 .27-.08.36-.18.46-.5-.16-1.25-.7-.86m1.2 0c-.2.12-.22.24-.22.74 0 .33.05.63.1.66.12.07.12.44 0 .44l-.24.05q-.15.09-.1-.24c.04-.23 0-.3-.16-.36-.23-.07-.51.09-.51.29 0 .06-.09.17-.2.24q-.18.12-.2.26c0 .07-.07.2-.16.27-.1.07-.14.22-.11.36q.04.23-.07.2c-.06-.02-.1-.13-.08-.25.02-.1-.02-.23-.07-.27-.1-.06-.05-.57.1-.86.14-.28-.16-.45-.49-.28-.65.32-.76.57-.42.95q.2.21.22.65c0 .24.08.52.16.62q.13.16.08.17c-.04 0-.16-.1-.25-.22-.3-.37-.78.02-.52.43.1.17.08.19-.28.19-.3 0-.44.06-.63.29-.2.23-.3.27-.56.23-.26-.03-.33 0-.43.22s-.1.3.06.46c.19.2.5.27.6.1.03-.04.18.05.34.2q.3.32.64.3c.41 0 .87-.38.87-.73 0-.24.87-1.27 1.07-1.27q.1-.02.23-.15.12-.14.39-.09.27.07.45-.15c.1-.11.23-.18.28-.15.16.1.8.12 1.03.04.17-.06.28-.03.49.17.34.32.58.25.5-.15q-.07-.29.1-.35c.19-.07.33.3.17.46-.17.17-.13.47.07.53.34.11.67.3.84.47.14.14.23.15.38.07.11-.06.2-.18.2-.28 0-.13.08-.17.33-.17.26 0 .35-.06.47-.32.08-.17.24-.34.35-.37s.35-.19.52-.35c.49-.45.42-.86-.18-1.06-.18-.06-.33-.19-.35-.29-.03-.22-.23-.46-.4-.46-.06 0-.15-.07-.18-.16q-.06-.16-.31-.12t-.25-.09c0-.07-.12-.19-.26-.25-.23-.1-.29-.1-.43.07-.16.2-.16.2-.37-.02-.12-.12-.2-.24-.17-.27.11-.1-.2-.36-.38-.3q-.16.03-.24-.06c-.1-.15-.41-.12-.59.05-.14.14-.17.14-.36-.05-.24-.24-.57-.26-.88-.05m-2.46.18c-.28.2-.18.61.16.65.36.04.53-.26.32-.56-.18-.26-.24-.27-.48-.09m3.46.6a.6.6 0 0 1-.3.32c-.24.07-.37.34-.23.48q.09.07.16-.12.05-.22.36-.21c.23 0 .29-.04.29-.22 0-.4-.15-.52-.28-.24m-4.84.14a1 1 0 0 1-.36.26c-.44.14-.49.79-.07.98.17.07.2.16.17.4-.05.35.2.68.54.68.56 0 .75-.77.27-1.08-.31-.19-.39-.68-.14-.88.17-.14.1-.48-.1-.52-.1-.02-.23.06-.3.16m-2.21.53c-.26.14-.23.65.03.8.11.06.27.08.34.05q.12-.02.18.15c.07.26.35.35.54.16s.1-.47-.17-.54q-.18-.06-.2-.23c0-.18-.3-.5-.46-.5zm7.34.3c-.12.2-.57.28-.64.1-.01-.04-.14 0-.28.12l-.25.2.32-.06q.61-.14.88.46c.12.3.13.3.2.1.08-.28.45-.4.6-.18.19.25.27.19.1-.07-.14-.22-.14-.26.05-.5.1-.13.17-.27.13-.3-.09-.1-.33.13-.33.29 0 .17-.4.39-.5.27a1 1 0 0 1-.12-.36c-.03-.27-.04-.27-.16-.07m-8.82.75c-.18.22-.08.5.2.5.3 0 .48-.28.3-.5q-.25-.3-.5 0m2.62.67c-.06.06-.12.17-.12.23s-.15.1-.32.1c-.28 0-.33.04-.36.27-.04.33.3.48.56.25q.16-.15.37-.07c.1.04.28.05.37.02.22-.05.35-.5.21-.71s-.54-.26-.7-.1m-2.23.74c-.26.32.13.8.48.59.22-.14.27-.4.12-.6a.38.38 0 0 0-.6 0m-2.1.41c-.16.2-.05.47.17.43s.3-.43.1-.51q-.15-.04-.27.08m3.03.86c-.27.1-.32.6-.08.79.22.18.64.04.7-.25.11-.4-.22-.7-.62-.54m-2.01.41c-.3.3 0 .78.37.58.26-.14.27-.46.02-.6-.24-.13-.24-.13-.39.02m3.7.24c-.27.19-.3.69-.05.83.14.07.15.12.04.25a.4.4 0 0 0-.06.37q.08.23-.05.14c-.15-.09-.5.23-.5.45 0 .26.26.43.57.37q.28-.05.46.1c.15.14.23.15.47.06.24-.1.3-.09.3.03 0 .07.1.18.2.24.18.1.19.13.05.26-.08.09-.15.2-.15.24 0 .05-.12.1-.27.12q-.29.03-.31.24c-.04.28.24.51.46.37.1-.05.23-.08.3-.06.15.06.16.47.01.74-.14.26-.03.56.23.65.21.06.21.07-.04.2-.35.18-.44.49-.24.8.24.36.7.33.94-.05.19-.31.37-.3.43.04.06.29.55.33.64.06.03-.12.03-.26-.01-.33a2 2 0 0 1-.09-.54c0-.37.02-.4.18-.3.1.06.17.19.17.29q.02.17.15.23c.21.09.19.32-.04.39a.4.4 0 0 0-.26.24 1 1 0 0 1-.25.36c-.54.49.16 1.24.74.82q.19-.14.2-.5c0-.34.16-.56.4-.57.1 0-.03.42-.23.63-.15.18-.14.2.07.37.13.1.23.21.22.24-.01.23.03.27.22.24q.24-.03.22-.24 0-.2.28-.32c.15-.05.28-.06.28-.02 0 .13.3.4.45.4.18 0 .45-.27.45-.45 0-.07-.07-.2-.15-.28-.13-.13-.13-.16 0-.2a.3.3 0 0 0 .15-.23q0-.16.07-.1.07.08.08.28c0 .34.3.46.57.23q.24-.21.1-.03-.12.17-.07.28c.07.12.32.14.37.03s.66-.53.77-.53q.09-.01.16-.19.05-.18.28-.14c.27.05.67-.3.67-.57q.01-.18.13-.2c.2 0 .46-.33.53-.68.06-.3.04-.33-.34-.5-.23-.1-.43-.25-.46-.34q-.05-.17-.28-.18a.4.4 0 0 1-.33-.22 1 1 0 0 0-.42-.38c-.18-.08-.33-.2-.33-.27 0-.15-.44-.28-.6-.18-.05.03-.1.17-.1.3q0 .26-.2.25c-.1 0-.25.08-.32.18-.23.31-1.15.72-1.48.65-.17-.03-.36 0-.44.06-.15.13-.65.12-.83-.02-.07-.05-.24-.07-.37-.05q-.24.04-.3-.08-.06-.13-.23-.14c-.1 0-.24-.09-.3-.2-.08-.11-.2-.2-.28-.2q-.13-.02-.15-.18c0-.3-.3-.62-.57-.62-.25 0-.25 0-.09-.2.14-.14.15-.23.07-.39-.06-.1-.11-.31-.11-.45s-.04-.27-.09-.3-.08-.3-.06-.58c.04-.71-.08-.92-.49-.85A.6.6 0 0 1 9.81 8c-.28-.23-.3-.23-.59-.03m-.87.18c-.2.15-.17.44.07.6q.16.1.32-.03c.36-.3 0-.85-.39-.57m-.94.32c-.38.27-.22.84.25.84.29 0 .46-.23.42-.56s-.37-.48-.67-.28m.39 1.5c-.18.21 0 .49.31.49.2 0 .24-.05.24-.3 0-.23-.05-.3-.2-.33a.4.4 0 0 0-.35.13m-1.12.16c-.22.12-.23.52-.03.69.08.07.25.1.39.06.32-.08.4-.42.15-.67-.22-.22-.27-.22-.51-.08m1.84.62c-.19.23-.22.53-.08.72.13.18.12.2-.15.32-.17.07-.29.2-.29.3 0 .11-.11.25-.25.31a.43.43 0 0 0-.1.72c.2.17.59.08.7-.17.05-.13.15-.23.2-.23.07 0 .2-.09.3-.2.15-.17.16-.24.07-.45-.1-.22-.1-.25.08-.25.27 0 .6-.35.6-.63a.6.6 0 0 0-.18-.4c-.22-.2-.75-.22-.9-.04m-3.92.72c-.11.13-.1.19.03.33.16.15.18.15.34 0 .13-.14.14-.2.03-.32q-.12-.15-.2-.16-.08.02-.2.15m2.17.22c-.04.03-.07.17-.07.29 0 .29.36.42.57.21s.08-.57-.21-.57c-.12 0-.26.03-.3.07m2.47.6c-.28.29-.33.43-.33.83 0 .62.16.76.66.58.7-.25.92-.88.46-1.28a1 1 0 0 1-.25-.32c-.1-.25-.18-.22-.54.18m2.21.25c-.03.05-.02.18.01.3a.4.4 0 0 1-.05.34c-.18.22-.02.18.28-.05.36-.29.39-.56.07-.63-.14-.02-.28 0-.3.04m5.86.27c0 .07-.12.24-.25.37-.26.25-.38.68-.2.73q.09 0 .14-.28c.03-.18.14-.37.26-.43.16-.1.2-.17.13-.32q-.07-.17-.08-.07m-3.61.66c0 .2.42.64.58.59.2-.08.14-.28-.18-.51-.34-.26-.4-.27-.4-.08m-7.5.11c-.18.22 0 .5.31.5.2 0 .24-.05.24-.3 0-.23-.05-.3-.2-.33a.4.4 0 0 0-.35.13m1.57.31c-.04.04-.07.16-.07.26q-.01.2.23.16.21-.03.22-.23c0-.2-.25-.32-.38-.19m2.22 1q-.14.15-.02.32c.15.24.44.27.6.07.27-.38-.28-.75-.58-.4m1.15.19c-.12.31 0 .51.31.51.27 0 .3-.03.3-.3 0-.25-.04-.3-.28-.33q-.27-.03-.33.12"/></svg>