<?xml version="1.0" encoding="UTF-8" standalone="no"?>
<svg
   viewBox="0 0 26.28233 31.667158"
   width="26.28233pt"
   height="31.667158pt"
   version="1.1"
   id="svg133"
   xml:space="preserve"
   sodipodi:docname="carlsjr.svg"
   xmlns:inkscape="http://www.inkscape.org/namespaces/inkscape"
   xmlns:sodipodi="http://sodipodi.sourceforge.net/DTD/sodipodi-0.dtd"
   xmlns="http://www.w3.org/2000/svg"
   xmlns:svg="http://www.w3.org/2000/svg"><sodipodi:namedview
     id="namedview1"
     pagecolor="#ffffff"
     bordercolor="#000000"
     borderopacity="0.25"
     inkscape:showpageshadow="2"
     inkscape:pageopacity="0.0"
     inkscape:pagecheckerboard="0"
     inkscape:deskcolor="#d1d1d1"
     inkscape:document-units="pt"><inkscape:page
       x="0"
       y="0"
       width="26.28233"
       height="31.667158"
       id="page2"
       margin="0"
       bleed="0" /></sodipodi:namedview><defs
     id="defs137"><clipPath
       clipPathUnits="userSpaceOnUse"
       id="clipPath16"><path
         d="M 0,617.62 H 1991 V 0 H 0 Z"
         id="path14" /></clipPath></defs><g
     id="g12"
     clip-path="url(#clipPath16)"
     transform="matrix(0.03291895,0,0,-0.03103602,4.3748284,22.890857)"><g
       id="g22"
       transform="translate(384.4814,228.2077)"><path
         d="m 0,0 177.485,60.807 c 5.237,1.795 8.781,6.664 8.858,12.177 l 0.293,20.908 c -0.064,-4.349 -2.552,-8.666 -7.546,-10.376 l -199.85,-68.41 3.624,-210.487 c 0.187,-10.813 -13.64,-15.546 -20.178,-6.907 l -127.22,168.122 -199.946,-68.587 c -2.136,-0.732 -4.196,-0.78 -6.083,-0.366 l -1.401,0.376 25.702,-9.54 c 5.741,-2.156 12.059,-2.247 17.86,-0.26 l 164.063,56.218 122.294,-161.488 c 14.928,-19.971 45.878,-9.211 45.523,15.677 z"
         style="fill:#d81f33;fill-opacity:1;fill-rule:evenodd;stroke:none"
         id="path24" /></g><g
       id="g26"
       transform="translate(357.3425,606.2454)"><path
         d="m 0,0 3.53,-210.621 19.351,-6.29 -2.434,148.296 c -0.228,12.913 -2.841,25.652 -7.696,37.498 L -0.59,3.556 C -0.237,2.468 -0.022,1.284 0,0"
         style="fill:#d81f33;fill-opacity:1;fill-rule:evenodd;stroke:none"
         id="path28" /></g><g
       id="g30"
       transform="translate(1.649,484.8384)"><path
         d="m 0,0 c -0.743,0.962 -1.269,1.975 -1.649,3.003 l 8.852,-25.244 c 3.436,-10.605 8.655,-20.561 15.439,-29.443 l 97.539,-128.254 8.041,11.395 z"
         style="fill:#d81f33;fill-opacity:1;fill-rule:evenodd;stroke:none"
         id="path32" /></g><g
       id="g34"
       transform="translate(563.2027,333.3476)"><path
         d="m 0,0 -201.733,61.963 -3.748,211.27 c -0.193,10.863 -14.142,15.137 -20.362,6.238 L -346.854,106.414 c -26.025,8.108 -143.627,43.969 -201.866,61.714 -10.37,3.162 -18.688,-8.978 -12.183,-17.491 l 127.015,-168.788 -121.027,-173.318 c -6.218,-8.905 2.568,-20.58 12.821,-17.04 l 199.536,68.919 105.423,-140.28 21.536,-28.657 c 6.525,-8.682 20.323,-3.926 20.137,6.94 l -3.616,211.51 199.44,68.743 C 10.615,-17.801 10.367,-3.183 0,0"
         style="fill:#ffce34;fill-opacity:1;fill-rule:evenodd;stroke:none"
         id="path36" /></g><g
       id="g38"
       transform="translate(357.3425,606.2454)"><path
         d="m 0,0 3.53,-210.621 19.351,-6.29 -2.434,148.296 c -0.228,12.913 -2.841,25.652 -7.696,37.498 L -0.59,3.556 C -0.414,3.014 -0.271,2.45 -0.172,1.857 -0.07,1.263 -0.012,0.643 0,0"
         style="fill:#d81f33;fill-opacity:1;fill-rule:evenodd;stroke:none"
         id="path40" /></g><g
       id="g42"
       transform="translate(1.6472,484.8419)"><path
         d="m 0,0 c -0.374,0.486 -0.695,0.985 -0.969,1.491 -0.274,0.497 -0.492,1.001 -0.678,1.508 l 8.85,-25.241 c 3.436,-10.605 8.655,-20.561 15.439,-29.444 l 97.539,-128.255 8.042,11.393 z"
         style="fill:#d81f33;fill-opacity:1;fill-rule:evenodd;stroke:none"
         id="path44" /></g><g
       id="g46"
       transform="translate(201.4769,394.1326)"><path
         d="m 0,0 1.511,-0.737 0.875,0.226 c 10.674,5.559 21.377,7.615 32.715,6.254 2.584,-0.326 4.349,1.588 4.928,3.63 0.607,2.113 0.07,4.949 -2.528,6.169 C 27.194,20.405 9.841,16.988 -0.184,2.978 Z"
         style="fill:#221f1f;fill-opacity:1;fill-rule:nonzero;stroke:none"
         id="path48" /></g><g
       id="g50"
       transform="translate(346.9333,349.4701)"><path
         d="m 0,0 -1.666,0.241 -0.593,0.667 c -5.761,10.621 -13.485,18.32 -23.636,23.553 -2.33,1.191 -2.725,3.772 -2.076,5.786 0.678,2.098 2.697,4.155 5.535,3.701 C -11.183,32.189 1.299,19.597 1.807,2.354 Z"
         style="fill:#221f1f;fill-opacity:1;fill-rule:nonzero;stroke:none"
         id="path52" /></g><g
       id="g54"
       transform="translate(231.6208,302.7486)"><path
         d="m 0,0 c 7.991,-10.068 11.592,-12.011 17.367,-13.783 2.386,-0.738 4.645,-1.206 7.314,-1.22 3.671,-0.042 8.132,0.766 14.755,2.879 3.896,1.233 6.057,3.19 5.803,5.246 -0.212,1.659 -2.076,2.837 -4.745,2.964 -3.219,0.17 -5.125,0.255 -6.452,0.326 -3.036,0.142 -3.036,0.142 -8.726,0.624 l -0.593,0.057 c -1.271,0.113 -2.527,0.354 -3.812,0.723 -1.285,0.426 -2.457,0.922 -3.587,1.546 l -0.409,0.241 C 11.846,2.439 11.846,2.439 9.262,4.027 8.133,4.722 6.495,5.715 3.699,7.402 1.412,8.792 -0.777,8.877 -1.892,7.601 -3.248,6.041 -2.542,3.205 0,0"
         style="fill:#221f1f;fill-opacity:1;fill-rule:nonzero;stroke:none"
         id="path56" /></g><g
       id="g58"
       transform="translate(222.3726,372.1744)"><path
         d="m 0,0 c -9.277,2.014 -18.313,-0.085 -24.187,-5.601 -3.375,-3.191 -3.728,-7.19 -2.612,-9.558 0.791,-1.659 3.361,-2.439 5.506,-2.198 1.638,0.184 9.729,0.638 16.775,-1.531 7.059,-2.17 10.476,-5.829 11.451,-6.637 0.974,-0.808 3.543,-2.099 5.068,-2.113 1.652,-0.042 3.304,0.539 4.759,1.702 2.795,2.198 4.701,6.665 2.965,10.905 C 16.689,-7.643 9.318,-2.028 0,0"
         style="fill:#221f1f;fill-opacity:1;fill-rule:nonzero;stroke:none"
         id="path60" /></g><g
       id="g62"
       transform="translate(317.384,342.9996)"><path
         d="m 0,0 c 8.825,-3.531 15.15,-10.352 16.929,-18.222 1.031,-4.552 -0.918,-8.054 -3.163,-9.387 -1.567,-0.936 -4.137,-0.156 -5.775,1.262 -1.256,1.063 -7.709,5.984 -14.769,8.154 -7.045,2.169 -11.93,1.049 -13.173,0.935 -1.257,-0.127 -4.123,0.256 -5.394,1.078 -1.383,0.908 -2.428,2.297 -2.993,4.084 -1.087,3.403 -0.198,8.168 3.615,10.721 C -18.101,3.034 -8.853,3.559 0,0"
         style="fill:#221f1f;fill-opacity:1;fill-rule:nonzero;stroke:none"
         id="path64" /></g><g
       id="g66"
       transform="translate(317.1324,262.8152)"><path
         d="m 0,0 c -2.245,3.8 -4.293,9.373 -7.455,8.111 -1.977,-0.794 -1.384,-2.779 -1.794,-5.02 -0.31,-1.73 -1.016,-3.332 -4.475,-5.346 -2.612,-1.474 -5.027,-2.722 -7.3,-3.758 -5.888,-2.779 -12.298,-4.963 -19.09,-6.494 -12.721,-2.751 -25.09,-2.411 -39.209,1.928 -14.134,4.325 -24.568,10.99 -33.591,20.42 -4.772,5.077 -8.881,10.508 -12.199,16.123 -1.313,2.127 -2.626,4.509 -3.968,7.204 -1.751,3.616 -1.44,5.332 -0.734,6.934 0.918,2.099 2.513,3.417 1.313,5.19 -1.92,2.808 -6.721,-0.667 -10.702,-2.552 -5.902,-2.794 -8.656,-3.106 -7.823,-6.779 0.819,-3.573 5.168,-0.326 6.369,-4.282 h 0.013 c 3.064,-10.749 13.386,-40.386 37.572,-56.722 4.985,-3.36 10.548,-6.154 16.774,-8.111 l 0.099,-0.028 0.085,-0.029 c 6.241,-1.871 12.425,-2.68 18.426,-2.694 29.143,-0.042 54.205,18.732 62.733,25.922 3.205,2.595 4.998,-2.524 7.667,-0.028 C 5.45,-7.445 3.332,-5.63 0,0"
         style="fill:#221f1f;fill-opacity:1;fill-rule:nonzero;stroke:none"
         id="path68" /></g></g></svg>
