<?xml version="1.0" encoding="UTF-8" standalone="no"?>
<svg
   viewBox="0 0 24 24"
   width="24pt"
   height="24pt"
   version="1.1"
   id="svg12919"
   sodipodi:docname="cash_generator.svg"
   xml:space="preserve"
   inkscape:version="1.2.2 (732a01da63, 2022-12-09)"
   inkscape:export-filename="cash_generator.svg"
   inkscape:export-xdpi="96"
   inkscape:export-ydpi="96"
   xmlns:inkscape="http://www.inkscape.org/namespaces/inkscape"
   xmlns:sodipodi="http://sodipodi.sourceforge.net/DTD/sodipodi-0.dtd"
   xmlns="http://www.w3.org/2000/svg"
   xmlns:svg="http://www.w3.org/2000/svg"><defs
     id="defs12923" /><sodipodi:namedview
     id="namedview12921"
     pagecolor="#ffffff"
     bordercolor="#000000"
     borderopacity="0.25"
     inkscape:showpageshadow="2"
     inkscape:pageopacity="0.0"
     inkscape:pagecheckerboard="0"
     inkscape:deskcolor="#d1d1d1"
     inkscape:document-units="pt"
     showgrid="false"
     inkscape:zoom="12.640625"
     inkscape:cx="-7.7132262"
     inkscape:cy="18.749073"
     inkscape:window-width="1920"
     inkscape:window-height="974"
     inkscape:window-x="-11"
     inkscape:window-y="1609"
     inkscape:window-maximized="1"
     inkscape:current-layer="svg12919" /><ellipse
     style="fill:#ffffff;fill-rule:evenodd;stroke-width:0.895901"
     id="path13892"
     cx="12.009289"
     cy="9.9569044"
     rx="7.8671021"
     ry="7.5836034" /><g
     id="g13838"
     transform="matrix(0.03524608,0,0,0.03524608,4.3477984,7.4037686)"><path
       d="M 0,0 C 0.65179703,-0.00115384 1.3035941,-0.00230769 1.9751425,-0.0034965 4.1743452,-0.00615793 6.3734757,-0.00164487 8.5726747,0.00279331 10.159187,0.00235751 11.7457,0.00148245 13.332212,2.0415e-4 c 4.371436,-0.00224327 8.742847,0.00177404 13.114279,0.00677806 4.709603,0.0043067 9.419204,0.00285792 14.128808,0.00209772 8.163641,-5.2509e-4 16.327273,0.0026202 24.490912,0.00823784 11.803343,0.008117 23.606682,0.01073042 35.410029,0.01198799 19.14879,0.0021902 38.29758,0.0088495 57.44636,0.01830262 18.6045,0.0091749 37.20899,0.01625536 55.81348,0.02050781 1.14622,2.6272e-4 2.29244,5.2545e-4 3.47339,7.9613e-4 5.75007,0.001305 11.50014,0.0025687 17.25021,0.0038119 47.72471,0.01037165 95.44941,0.02826379 143.17411,0.05032361 0,21.12000017 0,42.24000017 0,64.00000017 -131.34,0 -262.68,0 -398.000004,0 0,-53.948387 0,-53.948387 5.816406,-59.8398439 0.576211,-0.3622266 1.152422,-0.7244532 1.746094,-1.0976563 0.868184,-0.5704101 0.868184,-0.5704101 1.753906,-1.1523437 C -7.310129,0.0115217 -4.1718039,-0.00135934 0,0 Z m -1.3662138,23.123048 c -2.1699632,6.185409 -2.6137512,12.015383 -0.1015625,18.121094 1.86507423,3.181208 3.7559524,4.391968 7.1015625,5.878906 4.1789288,0.987613 7.7862398,1.252867 11.9999998,0.375 2.257786,-1.248035 2.257786,-1.248035 2.8125,-4 0.06188,-0.78375 0.12375,-1.5675 0.1875,-2.375 -0.99,-0.66 -1.98,-1.32 -3,-2 -0.33,0.33 -0.66,0.66 -1,1 -3.375,0.375 -3.375,0.375 -6.9999998,0 C 7.242067,37.80607 6.6591583,36.174178 6.5790987,32.857423 6.7547866,30.489456 6.929076,28.393285 7.6337862,26.123048 c 3.9411858,-2.627457 6.2507268,-2.310982 10.8124998,-1.5 1.082813,0.2475 1.082813,0.2475 2.1875,0.5 0.772423,-1.837008 0.772423,-1.837008 1,-4 -1.523016,-1.958164 -2.78226,-2.89113 -5,-4 -7.5299615,-0.693023 -12.9105518,0.01001 -17.9999998,6 z M 32.073972,18.286866 c -1.869128,2.383067 -2.577427,4.638625 -3.483155,7.527588 -0.351269,1.109238 -0.702539,2.218477 -1.064453,3.361328 -0.356425,1.158223 -0.712851,2.316446 -1.080078,3.509766 -0.368027,1.16209 -0.736054,2.32418 -1.115234,3.521484 -1.907432,5.358723 -1.907432,5.358723 -2.697266,10.916016 2.64,0 5.28,0 8,0 0.99,-3.465 0.99,-3.465 2,-7 2.97,0 5.94,0 9,0 0.144375,0.969375 0.28875,1.93875 0.4375,2.9375 0.238124,2.927368 0.238124,2.927368 1.5625,4.0625 2.670589,0.141151 5.324323,0.04247 8,0 -1.673433,-6.796486 -3.734163,-13.443652 -6,-20.0625 -0.373425,-1.125231 -0.373425,-1.125231 -0.754394,-2.273194 -1.580581,-4.576411 -1.580581,-4.576411 -5.245606,-7.664306 -4.034381,-0.498458 -4.034381,-0.498458 -7.559814,1.163818 z m 22.559814,2.836182 c -1.564302,3.128605 -1.356273,5.556029 -1,9 3.435086,3.85146 7.14161,4.856849 12,6 0,1.32 0,2.64 0,4 -7.428571,0.142857 -7.428571,0.142857 -11,-1 -0.33,1.98 -0.66,3.96 -1,6 4.552155,2.664676 7.730567,3.564582 13,3 3.980661,-1.577243 5.606673,-2.410009 8,-6 0.536244,-3.065058 0.53967,-5.934453 0,-9 -3.046526,-3.404941 -6.884605,-5.085863 -11,-7 0,-0.66 0,-1.32 0,-2 3.3,0.33 6.6,0.66 10,1 0.33,-1.65 0.66,-3.3 1,-5 -4.023023,-3.568658 -7.161976,-3.495224 -12.363281,-3.363281 -3.518566,0.48478 -5.304548,1.720154 -7.636719,4.363281 z m 24,-4 c 0,9.9 0,19.8 0,30 2.64,0 5.28,0 8,0 0,-3.96 0,-7.92 0,-12 2.64,0 5.28,0 8,0 0,3.96 0,7.92 0,12 2.97,0 5.940004,0 9.000004,0 0.0871,-4.249871 0.14042,-8.499513 0.1875,-12.75 0.0251,-1.206563 0.0503,-2.413125 0.0762,-3.65625 0.01,-1.160156 0.0193,-2.320313 0.0293,-3.515625 0.0157,-1.068311 0.0314,-2.136621 0.0476,-3.237305 -0.39381,-3.284891 -0.8425,-4.661045 -3.34057,-6.84082 -1.980004,0 -3.960004,0 -6.000004,0 0,3.96 0,7.92 0,12 -2.64,0 -5.28,0 -8,0 0.03481,-0.698672 0.06961,-1.397344 0.105469,-2.117188 0.02707,-0.910078 0.05414,-1.820156 0.08203,-2.757812 0.03481,-0.904922 0.06961,-1.809844 0.105469,-2.742188 -0.14502,-1.179492 -0.14502,-1.179492 -0.292969,-2.382812 -3.09245,-2.46225 -3.09245,-2.46225 -8,-2 z"
       fill="#dfad25"
       transform="translate(35.366214,22.876952)"
       id="path13622" /><path
       d="m 0,0 c 1.9765814,-0.00597315 1.9765814,-0.00597315 3.9930937,-0.01206696 1.466006,0.00570617 2.9320112,0.01159737 4.3980158,0.01765358 1.5543778,-8.7185e-4 3.1087555,-0.00262245 4.6631315,-0.00517833 4.277992,-0.00448155 8.555884,0.00354123 12.833863,0.01355612 4.610743,0.0086206 9.22148,0.0057153 13.832229,0.0041955 7.990658,-0.0010497 15.981282,0.0052361 23.971932,0.01647567 11.553195,0.01624007 23.106375,0.02146148 34.659581,0.02397599 18.743384,0.0043795 37.486744,0.01769533 56.230124,0.03660522 18.20963,0.01835233 36.41926,0.032512 54.6289,0.04101563 1.68309,7.8817e-4 1.68309,7.8817e-4 3.40018,0.001592 5.62893,0.00261 11.25786,0.005137 16.88679,0.007624 46.71262,0.0207403 93.42523,0.0559726 140.13784,0.10064721 0,0.66 0,1.32000007 0,2.00000007 -84.48,0 -168.96,0 -256,0 0,15.1800003 0,30.3600003 0,46.0000003 84.48,0 168.96,0 256,0 0,0.66 0,1.32 0,2 -126.72,0 -253.44,0 -384.000003,0 0,-42.0000003 0,-42.0000003 4,-48.0000003 C -7.0838397,-0.16192465 -3.9898586,-0.00265636 0,0 Z m -2.3643227,16.246096 c -2.1699631,6.185409 -2.6137512,12.015383 -0.1015625,18.121093 1.86507426,3.181209 3.7559524,4.391969 7.1015625,5.878907 4.1789288,0.987612 7.7862397,1.252866 11.9999997,0.375 2.257786,-1.248035 2.257786,-1.248035 2.8125,-4 0.06188,-0.78375 0.12375,-1.5675 0.1875,-2.375 -0.99,-0.66 -1.98,-1.32 -3,-2 -0.33,0.33 -0.66,0.66 -1,1 -3.375,0.375 -3.375,0.375 -6.9999997,0 -2.3917191,-2.316978 -2.9746278,-3.94887 -3.0546875,-7.265625 0.1756879,-2.367967 0.3499773,-4.464138 1.0546875,-6.734375 3.9411857,-2.627457 6.2507267,-2.310982 10.8124997,-1.5 1.082813,0.2475 1.082813,0.2475 2.1875,0.5 0.772423,-1.837008 0.772423,-1.837008 1,-4 -1.523016,-1.958164 -2.78226,-2.89113 -5,-4 -7.5299614,-0.6930234 -12.9105516,0.01001 -17.9999997,6 z M 31.075863,11.409914 c -1.869128,2.383067 -2.577427,4.638625 -3.483154,7.527588 -0.35127,1.109238 -0.702539,2.218476 -1.064454,3.361328 -0.356425,1.158223 -0.712851,2.316445 -1.080078,3.509766 -0.368027,1.162089 -0.736054,2.324179 -1.115234,3.521484 -1.907432,5.358723 -1.907432,5.358723 -2.697266,10.916016 2.64,0 5.28,0 8,0 0.99,-3.465 0.99,-3.465 2,-7 2.97,0 5.94,0 9,0 0.144375,0.969375 0.28875,1.93875 0.4375,2.9375 0.238124,2.927367 0.238124,2.927367 1.5625,4.0625 2.670589,0.141151 5.324323,0.04247 8,0 -1.673432,-6.796486 -3.734163,-13.443652 -6,-20.0625 -0.373425,-1.125231 -0.373425,-1.125231 -0.754394,-2.273194 -1.580581,-4.576411 -1.580581,-4.576411 -5.245606,-7.664306 -4.034381,-0.4984583 -4.034381,-0.4984583 -7.559814,1.163818 z m 22.559814,2.836182 c -1.564302,3.128605 -1.356273,5.556029 -1,9 3.435087,3.85146 7.14161,4.856849 12,6 0,1.32 0,2.64 0,4 -7.428571,0.142857 -7.428571,0.142857 -11,-1 -0.33,1.98 -0.66,3.96 -1,6 4.552155,2.664675 7.730567,3.564582 13,3 3.980661,-1.577243 5.606673,-2.410009 8,-6 0.536244,-3.065058 0.53967,-5.934453 0,-9 -3.046526,-3.404941 -6.884604,-5.085863 -11,-7 0,-0.66 0,-1.32 0,-2 3.3,0.33 6.6,0.66 10,1 0.33,-1.65 0.66,-3.3 1,-5 C 69.612654,9.6774377 66.473701,9.7508721 61.272396,9.8828144 57.75383,10.367595 55.967848,11.602969 53.635677,14.246096 Z m 24,-4 c 0,9.9 0,19.8 0,30 2.64,0 5.28,0 8,0 0,-3.96 0,-7.92 0,-12 2.64,0 5.28,0 8,0 0,3.96 0,7.92 0,12 2.97,0 5.94,0 9.000003,0 0.0871,-4.249871 0.14042,-8.499513 0.1875,-12.75 0.0251,-1.206563 0.0503,-2.413125 0.0762,-3.65625 0.01,-1.160157 0.0193,-2.320313 0.0293,-3.515625 0.0157,-1.068311 0.0314,-2.136621 0.0476,-3.237305 -0.39381,-3.284891 -0.8425,-4.661045 -3.340573,-6.84082 -1.98,0 -3.96,0 -6,0 0,3.96 0,7.92 0,12 -2.64,0 -5.28,0 -8,0 0.03481,-0.698672 0.06961,-1.397344 0.105469,-2.117188 0.02707,-0.910078 0.05414,-1.820156 0.08203,-2.757812 0.03481,-0.904922 0.06961,-1.809844 0.105469,-2.742188 -0.145019,-1.179492 -0.145019,-1.179492 -0.292969,-2.382812 -3.09245,-2.4622505 -3.09245,-2.4622505 -8,-2 z"
       fill="#1c4b87"
       transform="translate(36.364323,29.753904)"
       id="path13624" /><path
       d="M 0,0 C 1.2052734,-0.0103125 2.4105469,-0.020625 3.6523438,-0.03125 7.6198861,0.58683219 9.2273455,1.7158375 12.0625,4.5 c 3.508505,5.0812824 3.710183,10.026678 3,16 -1.888698,5.367879 -4.919832,8.459916 -10,11 -4.98066973,0.54644 -8.8958307,0.542047 -13.4375,-1.6875 -3.521406,-3.177854 -5.358732,-5.698341 -5.960938,-10.46875 0.0077,-1.103437 0.01547,-2.206875 0.02344,-3.34375 -0.0077,-1.103437 -0.01547,-2.206875 -0.02344,-3.34375 0.565496,-4.4796134 2.45485,-6.9289549 5.1523442,-10.4375 C -6.0705124,-0.163434 -3.8815318,-0.03314008 0,0 Z"
       fill="#1c4778"
       transform="translate(362.9375,39.5)"
       id="path13626" /><path
       d="M 0,0 C 2.84625,-0.0825 5.6925,-0.165 8.625,-0.25 9.5101025,-0.286416 10.395205,-0.322832 11.307129,-0.36035156 16.641035,-0.43478375 19.890904,0.25790443 24,4 c 0.821685,5.7517964 0.03979,8.109908 -3,13 0.294936,3.834169 1.736906,7.37913 3,11 0.66,0 1.32,0 2,0 0,0.66 0,1.32 0,2 -1.435348,0.222675 -2.873455,0.427619 -4.3125,0.625 -1.200762,0.174023 -1.200762,0.174023 -2.425781,0.351562 C 17,31 17,31 14,29 12.928639,26.698559 11.920103,24.365979 11,22 10.67,24.64 10.34,27.28 10,30 6.7,30 3.4,30 0,30 0,20.1 0,10.2 0,0 Z"
       fill="#1e4a7b"
       transform="translate(380,40)"
       id="path13628" /><path
       d="m 0,0 c 2.64,0 5.28,0 8,0 4,4.6 4,4.6 4,8 0.66,0 1.32,0 2,0 0.66,1.98 1.32,3.96 2,6 0.66,0 1.32,0 2,0 0,-4.62 0,-9.24 0,-14 1.98,0 3.96,0 6,0 2,2 2,2 2.227051,4.7973633 -0.01047,1.1625732 -0.02095,2.3251465 -0.03174,3.5229492 -0.0064,1.2568359 -0.01289,2.5136715 -0.01953,3.8085935 -0.01676,1.318711 -0.03352,2.637422 -0.05078,3.996094 -0.01003,1.339837 -0.01916,2.679682 -0.02734,4.019531 C 26.074021,23.429866 26.041072,26.714845 26,30 20.776918,30.420868 20.776918,30.420868 18,30 15.90625,27.882812 15.90625,27.882812 14.5,25.125 14.015313,24.220078 13.530625,23.315156 13.03125,22.382812 12,20 12,20 12,18 c -0.66,0 -1.32,0 -2,0 0,3.96 0,7.92 0,12 C 6.7,30 3.4,30 0,30 0,20.1 0,10.2 0,0 Z"
       fill="#1d497e"
       transform="translate(216,40)"
       id="path13630" /><path
       d="M 0,0 C 2.536875,-0.061875 5.07375,-0.12375 7.6875,-0.1875 8.4772925,-0.214812 9.267085,-0.242124 10.080811,-0.2702637 14.614769,-0.32357739 17.437125,0.16424198 21,3 c 2.454104,3.6811554 2.232878,5.652936 2,10 -0.33,0.99 -0.66,1.98 -1,3 -0.66,0 -1.32,0 -2,0 0.493173,4.339926 1.379101,6.581436 4,10 0,1.32 0,2.64 0,4 -3.127715,0.490622 -5.896475,0.705818 -9,0 C 12.710714,27.616634 11.335306,25.006117 10,22 9.67,24.64 9.34,27.28 9,30 6.03,30 3.06,30 0,30 0,20.1 0,10.2 0,0 Z"
       fill="#19467b"
       transform="translate(270,40)"
       id="path13632" /><path
       d="M 0,0 C 1.3747852,0.01740234 1.3747852,0.01740234 2.7773438,0.03515625 3.6964453,0.04417969 4.6155469,0.05320313 5.5625,0.0625 6.2727734,0.07410156 6.9830469,0.08570313 7.7148437,0.09765625 17.714844,22.63099 17.714844,22.63099 17.714844,30.097656 c -3.3,0 -6.6,0 -10.0000003,0 0,-1.98 0,-3.96 0,-6 -2.6399999,0 -5.2799999,0 -7.99999995,0 0,0.66 0,1.32 0,2 -0.66,0 -1.31999995,0 -2.00000005,0 0,1.32 0,2.64 0,4 -3.2999999,0 -6.6,0 -9.9999997,0 1.979132,-6.70706 4.0381067,-13.388309 6.1249998,-20.0625 0.265708,-0.8576291 0.531416,-1.7152585 0.8051757,-2.5988767 C -4.9762378,6.230321 -4.9762378,6.230321 -4.5898437,5 -4.3628076,4.2728882 -4.1357715,3.5457764 -3.9018555,2.7966309 -2.9773357,0.2496264 -2.7859513,0.11905775 0,0 Z"
       fill="#204a79"
       transform="translate(308.28516,39.902344)"
       id="path13634" /><path
       d="M 0,0 C 1.216875,0.00386719 2.43375,0.00773437 3.6875,0.01171875 6.7336143,0.28831167 8.4464577,0.7101522 11,2.3125 c 0,1.65 0,3.3 0,5 -1.875,1.0625 -1.875,1.0625 -4,2 -0.66,-0.33 -1.32,-0.66 -2,-1 -3.5,-0.25 -3.5,-0.25 -7,0 -2.2155935,1.801977 -2.2155935,1.801977 -2.265625,4.277344 0.00516,0.877851 0.010313,1.755703 0.015625,2.660156 -0.00516,0.875273 -0.010313,1.750547 -0.015625,2.652344 0.1072866,2.671212 0.1072866,2.671212 2.265625,5.410156 2.56282742,0.729654 2.56282742,0.729654 5,1 0,-3.3 0,-6.6 0,-10 2.64,0 5.28,0 8,0 0,4.95 0,9.9 0,15 C 7.1021799,31.26141 5.7203884,31.563435 1.5625,31.5 0.63566406,31.493555 -0.29117188,31.487109 -1.2460937,31.480469 -3.9171606,31.317553 -6.3934196,30.903829 -9,30.3125 c 0,-0.66 0,-1.32 0,-2 -0.66,0 -1.32,0 -2,0 -4.17981,-6.792191 -4.473161,-12.113977 -4,-20 0.66,0 1.32,0 2,0 C -12.7525,7.549375 -12.505,6.78625 -12.25,6 -9.5832712,0.26653319 -6.0018674,-0.08265283 0,0 Z"
       fill="#1d487a"
       transform="translate(177,39.6875)"
       id="path13636" /><path
       d="m 0,0 c 6.6,0 13.2,0 20,0 0,1.98 0,3.96 0,6 C 17.594544,7.2027282 16.05003,7.1007147 13.375,7.0625 12.149102,7.0489648 12.149102,7.0489648 10.898438,7.0351562 9.9587109,7.0177539 9.9587109,7.0177539 9,7 c 0,1.32 0,2.64 0,4 2.97,0 5.94,0 9,0 0,2.64 0,5.28 0,8 -2.97,0 -5.94,0 -9,0 0,1.32 0,2.64 0,4 1.048008,-0.0348 1.048008,-0.0348 2.117188,-0.07031 C 12.027266,22.91164 12.937344,22.8936 13.875,22.875 15.232383,22.8402 15.232383,22.8402 16.617187,22.80469 19,23 19,23 21,25 c 0,1.65 0,3.3 0,5 C 14.07,30 7.14,30 0,30 0,20.1 0,10.2 0,0 Z"
       fill="#1d4777"
       transform="translate(246,40)"
       id="path13638" /><path
       d="m 0,0 c 6.93,0 13.86,0 21,0 0,1.65 0,3.3 0,5 C 19,7 19,7 16.617187,7.1953125 15.712266,7.1721094 14.807344,7.1489062 13.875,7.125 12.509883,7.0979297 12.509883,7.0979297 11.117188,7.0703125 10.418516,7.0471094 9.7198438,7.0239062 9,7 c 0.33,1.32 0.66,2.64 1,4 2.64,0.33 5.28,0.66 8,1 0,1.98 0,3.96 0,6 -2.97,0 -5.94,0 -9,0 0,1.65 0,3.3 0,5 0.6870703,-0.0348 1.374141,-0.06961 2.082031,-0.105469 0.901055,-0.02707 1.80211,-0.05414 2.730469,-0.08203 1.33998,-0.05221 1.33998,-0.05221 2.707031,-0.105469 C 19,23 19,23 20.824219,24.261719 22,26 22,26 22,30 14.74,30 7.48,30 0,30 0,20.1 0,10.2 0,0 Z"
       fill="#18467b"
       transform="translate(192,40)"
       id="path13640" /><path
       d="m 0,0 c 8.25,0 16.5,0 25,0 0,1.98 0,3.96 0,6 -3,2 -3,2 -9,2 0,7.26 0,14.52 0,22 -2.64,0 -5.28,0 -8,0 C 7.67,22.74 7.34,15.48 7,8 4.36,7.67 1.72,7.34 -1,7 -0.67,4.69 -0.34,2.38 0,0 Z"
       fill="#17457e"
       transform="translate(324,40)"
       id="path13642" /><path
       d="m 0,0 c 4.4753806,0.0641172 7.6590065,0.43962036 11.3125,3.25 1.0625,2.875 1.0625,2.875 1,6 -1.4375,2.875 -1.4375,2.875 -3,5 0.66,0 1.32,0 2,0 1.389941,2.779882 1.184882,4.918633 1,8 -0.66,1.32 -1.32,2.64 -2,4 -5.28,0 -10.56,0 -16,0 C -5.714325,22.104124 -5.734253,17.95842 -5.75,13.8125 -5.75838,12.628496 -5.766758,11.444492 -5.775391,10.224609 -5.778611,9.0999023 -5.781841,7.9751953 -5.785161,6.8164062 -5.790401,5.7742798 -5.795635,4.7321533 -5.80103,3.6584473 -5.6032093,-0.53823116 -3.7503806,0.0672714 0,0 Z m -0.6875,5.25 c 0,1.98 0,3.96 0,6 1.98,0 3.96,0 6,0 0.66,-1.32 1.32,-2.64 2,-4 C 5.4149486,4.9002618 5.4149486,4.9002618 2.1875,5.125 1.23875,5.16625 0.29,5.2075 -0.6875,5.25 Z m 0,10 c 0,2.31 0,4.62 0,7 1.98,0 3.96,0 6,0 0.66,-1.65 1.32,-3.3 2,-5 -3.2279155,-2.151944 -4.2840081,-2.200864 -8,-2 z"
       fill="#355c8d"
       transform="translate(133.6875,109.75)"
       id="path13644" /><path
       d="M 0,0 C 2.5625,1.6875 2.5625,1.6875 4,4 4.25,6.75 4.25,6.75 4,9 2.35,9 0.7,9 -1,9 -1.66,7.68 -2.32,6.36 -3,5 c -1.65,0 -3.3,0 -5,0 0.1947111,1.9499913 0.1947111,1.9499913 1,4 1.9837767,1.284367 1.9837767,1.284367 4,2 0,0.99 0,1.98 0,3 3.3,0 6.6,0 10,0 0,1.32 0,2.64 0,4 C 6.34,18 5.68,18 5,18 4.7525,18.928125 4.505,19.85625 4.25,20.8125 2.8932032,24.272332 2.3055481,25.391896 -1,27 c -4.9873185,0.544071 -7.9938686,0.06351 -12,-3 -1.389941,-2.779882 -1.184882,-4.918633 -1,-8 1,-2.375 1,-2.375 2,-4 -0.33,-0.33 -0.66,-0.66 -1,-1 C -13.580076,3.8070618 -13.580076,3.8070618 -11.5625,1 -7.6870028,-0.51238917 -4.0987086,-0.67685096 0,0 Z m -7,15 c -0.66,0.66 -1.32,1.32 -2,2 0.320414,2.602806 0.320414,2.602806 1,5 1.7814175,0.863586 1.7814175,0.863586 4,1 2.2714407,-1.854321 2.2714407,-1.854321 4,-4 -0.99,-0.33 -1.98,-0.66 -3,-1 0,-0.99 0,-1.98 0,-3 -1.32,0 -2.64,0 -4,0 z"
       fill="#496d9b"
       transform="translate(211,110)"
       id="path13646" /><path
       d="M 0,0 C 2.6613534,1.9107153 3.7184621,3.1553864 4.75,6.25 4.87375,7.11625 4.87375,7.11625 5,8 2.625,8.1875 2.625,8.1875 0,8 -0.66,7.01 -1.32,6.02 -2,5 c -1.65,0.33 -3.3,0.66 -5,1 0.6824833,3.1460195 0.6824833,3.1460195 3.25,4.316406 0.9075,0.411211 1.815,0.822422 2.75,1.246094 4.8978841,2.233268 4.8978841,2.233268 6,4.4375 0.5298102,3.973576 0.3188147,5.541704 -2,8.875 -3.34331296,2.36818 -5.0598763,2.878607 -9.0625,2.613281 C -9.481369,26.626671 -11.009663,24.798912 -13,22 c -0.3125,-2.8125 -0.3125,-2.8125 0,-5 1.65,0 3.3,0 5,0 0.33,1.32 0.66,2.64 1,4 3.0491323,1.011111 3.0491323,1.011111 6,0 -0.1590148,-1.953946 -0.1590148,-1.953946 -1,-4 -2.01316,-1.208386 -2.01316,-1.208386 -4.4375,-2 -4.245971,-1.526641 -4.245971,-1.526641 -5.855469,-3.933594 C -13.330926,8.0328173 -12.906501,6.0432536 -12,3 -8.8682378,-0.7581147 -4.5649878,-0.85300593 0,0 Z"
       fill="#436896"
       transform="translate(241,110)"
       id="path13648" /><path
       d="M 0,0 C 2.6613534,1.9107153 3.7184621,3.1553864 4.75,6.25 4.87375,7.11625 4.87375,7.11625 5,8 2.625,8.1875 2.625,8.1875 0,8 -0.66,7.01 -1.32,6.02 -2,5 c -1.65,0.33 -3.3,0.66 -5,1 0.6824833,3.1460195 0.6824833,3.1460195 3.25,4.316406 0.9075,0.411211 1.815,0.822422 2.75,1.246094 4.8978841,2.233268 4.8978841,2.233268 6,4.4375 0.5298102,3.973576 0.3188147,5.541704 -2,8.875 -3.34331296,2.36818 -5.0598763,2.878607 -9.0625,2.613281 C -9.481369,26.626671 -11.009663,24.798912 -13,22 c -0.3125,-2.8125 -0.3125,-2.8125 0,-5 1.65,0 3.3,0 5,0 0.33,1.32 0.66,2.64 1,4 3.0491323,1.011111 3.0491323,1.011111 6,0 -0.1573297,-1.96225 -0.1573297,-1.96225 -1,-4 -2.0218045,-1.098735 -2.0218045,-1.098735 -4.4375,-1.8125 -3.781294,-1.531816 -4.362526,-1.794693 -6.3125,-5.625 C -13.033773,5.518739 -12.546312,4.0919502 -10,1 -6.802493,-0.59875351 -3.4704101,-0.50166324 0,0 Z"
       fill="#456997"
       transform="translate(307,110)"
       id="path13650" /><path
       d="m 0,0 c 1.65,0 3.3,0 5,0 0.33,4.29 0.66,8.58 1,13 1.65,-0.33 3.3,-0.66 5,-1 0.33,-3.96 0.66,-7.92 1,-12 1.32,0 2.64,0 4,0 0.116325,3.4163795 0.187289,6.832249 0.25,10.25 0.05027,1.452129 0.05027,1.452129 0.101562,2.933594 0.09833,7.128874 0.09833,7.128874 -2.082031,10.460937 C 11.744454,25.152624 10.359408,25.51166 7.4375,25.4375 6.6730859,25.436211 5.9086719,25.434922 5.1210937,25.433594 2.5038979,24.898587 1.5733526,24.136341 0,22 c 0,-0.99 0,-1.98 0,-3 1.65,0 3.3,0 5,0 0,0.66 0,1.32 0,2 1.98,-0.33 3.96,-0.66 6,-1 C 9.05,17.65 9.05,17.65 5.5,17.5 2,17 2,17 0,15 -0.14497985,12.419359 -0.18677545,9.9505612 -0.125,7.375 -0.11597656,6.6685938 -0.10695312,5.9621875 -0.09765625,5.234375 -0.07407603,3.489439 -0.03820461,1.744677 0,0 Z m 11,16 c 1,2 1,2 1,2 z"
       fill="#305481"
       transform="translate(169,119)"
       id="path13652" /><path
       d="M 0,0 C 1.65,0 3.3,0 5,0 5.33,2.64 5.66,5.28 6,8 7.093125,7.938125 8.18625,7.87625 9.3125,7.8125 13,8 13,8 14.71875,9.03125 c 1.978427,3.040022 1.596069,6.159881 1.46875,9.65625 -0.0203,1.052842 -0.0203,1.052842 -0.04102,2.126953 C 16.111202,22.543298 16.057396,24.271748 16,26 14.68,26 13.36,26 12,26 11.67,21.71 11.34,17.42 11,13 9.02,13.33 7.04,13.66 5,14 5,17.96 5,21.92 5,26 3.35,26 1.7,26 0,26 0,17.42 0,8.84 0,0 Z"
       fill="#486a99"
       transform="translate(79,110)"
       id="path13654" /><path
       d="M 0,0 C 1.625,1.875 1.625,1.875 1.875,5.5625 1.7925,6.655625 1.71,7.74875 1.625,8.875 0.55958984,8.9484766 0.55958984,8.9484766 -0.52734375,9.0234375 -1.4464453,9.0982031 -2.3655469,9.1729688 -3.3125,9.25 -4.2290234,9.3196094 -5.1455469,9.3892188 -6.0898437,9.4609375 -7.2209961,9.6658984 -7.2209961,9.6658984 -8.375,9.875 c -0.33,0.66 -0.66,1.32 -1,2 0.66,0 1.32,0 2,0 0.33,-0.66 0.66,-1.32 1,-2 0.33,0.66 0.66,1.32 1,2 3.465,-0.495 3.465,-0.495 7,-1 0,3 0,3 -1.5625,4.6875 -3.3596603,1.809048 -5.6679483,1.709295 -9.4375,1.3125 -2.8125,-0.875 -2.8125,-0.875 -5,-3 C -15.828356,9.8263667 -17.057286,5.7975008 -15.582031,1.640625 -11.941355,-3.6848945 -5.0522282,-2.3931607 0,0 Z m -10.375,3.875 c 0,0.66 0,1.32 0,2 2.31,0 4.62,0 7,0 0,-0.99 0,-1.98 0,-3 -3.8945907,-0.2108185 -3.8945907,-0.2108185 -7,1 z"
       fill="#184278"
       transform="translate(374.375,120.125)"
       id="path13656" /><path
       d="M 0,0 C 2.4375,1.5 2.4375,1.5 4,4 4.7026284,8.2716615 4.3250893,11.938042 3.0625,16.0625 0.20546982,18.746377 -1.943134,18.480485 -5.7460937,18.371094 -8.1945069,17.967975 -9.8927241,17.301417 -12,16 c -0.33,-0.66 -0.66,-1.32 -1,-2 -0.99,-0.66 -1.98,-1.32 -3,-2 0.66,0 1.32,0 2,0 -0.0825,-1.051875 -0.165,-2.10375 -0.25,-3.1875 C -13.962056,4.421347 -13.109726,3.0208766 -10,0 -6.1942687,-1.2685771 -3.8943095,-0.88817586 0,0 Z m -9,6 c -0.1668111,3.0834783 -0.1668111,3.0834783 0,6 2.475,0.99 2.475,0.99 5,2 2.1664166,-1.665453 2.1664166,-1.665453 4,-4 C -0.19198522,6.6678502 -0.19198522,6.6678502 -2,4 -5.961168,3.6090967 -5.961168,3.6090967 -9,6 Z"
       fill="#446896"
       transform="translate(340,119)"
       id="path13658" /><path
       d="m 0,0 c 2.375,1.6875 2.375,1.6875 4,4 0,1.98 0,3.96 0,6 -3.96,0 -7.92,0 -12,0 2.5599632,3.243498 2.5599632,3.243498 5.2617187,3.074219 C -1.9377734,12.946602 -1.1372656,12.818984 -0.3125,12.6875 0.89986328,12.507676 0.89986328,12.507676 2.1367188,12.324219 2.7516016,12.217227 3.3664844,12.110234 4,12 2.630165,15.161158 2.0109362,15.992709 -1,18 -5.0069773,18.21777 -8.7811342,17.886448 -12.0625,15.5 -13.504463,11.654766 -13.684387,8.0468091 -13,4 -9.4081956,-0.95421303 -5.7483711,-1.5250781 0,0 Z m -6,3 c -0.66,1.32 -1.32,2.64 -2,4 2.31,0 4.62,0 7,0 C -1,6.01 -1,5.02 -1,4 -2.65,3.67 -4.3,3.34 -6,3 Z"
       fill="#3e6390"
       transform="translate(261,119)"
       id="path13660" /><path
       d="m 0,0 c 2.375,1.6875 2.375,1.6875 4,4 0,1.98 0,3.96 0,6 -3.96,0 -7.92,0 -12,0 2.5599632,3.243498 2.5599632,3.243498 5.2617187,3.074219 C -1.9377734,12.946602 -1.1372656,12.818984 -0.3125,12.6875 0.89986328,12.507676 0.89986328,12.507676 2.1367188,12.324219 2.7516016,12.217227 3.3664844,12.110234 4,12 2.630165,15.161158 2.0109362,15.992709 -1,18 -5.0069773,18.21777 -8.7811342,17.886448 -12.0625,15.5 -13.504463,11.654766 -13.684387,8.0468091 -13,4 -9.4081956,-0.95421303 -5.7483711,-1.5250781 0,0 Z m -6,3 c -0.66,1.32 -1.32,2.64 -2,4 2.31,0 4.62,0 7,0 C -1,6.01 -1,5.02 -1,4 -2.65,3.67 -4.3,3.34 -6,3 Z"
       fill="#35557c"
       transform="translate(112,119)"
       id="path13662" /><path
       d="m 0,0 c 1.65,0 3.3,0 5,0 0,4.29 0,8.58 0,13 1.32,0.33 2.64,0.66 4,1 0,-0.66 0,-1.32 0,-2 0.66,0 1.32,0 2,0 0,-3.96 0,-7.92 0,-12 1.65,0 3.3,0 5,0 0,5.61 0,11.22 0,17 C 4.625,18.25 4.625,18.25 -1,16 -0.67,10.72 -0.34,5.44 0,0 Z"
       fill="#44648f"
       transform="translate(149,119)"
       id="path13664" /><path
       d="m 0,0 c 6.27,0 12.54,0 19,0 0,1.65 0,3.3 0,5 -2.31,0 -4.62,0 -7,0 0,6.93 0,13.86 0,21 -1.65,0 -3.3,0 -5,0 C 7,19.07 7,12.14 7,5 4.69,5 2.38,5 0,5 0,3.35 0,1.7 0,0 Z"
       fill="#18437b"
       transform="translate(58,110)"
       id="path13666" /><path
       d="M 0,0 C 1.65,0 3.3,0 5,0 5,1.65 5,3.3 5,5 6.32,5 7.64,5 9,5 9,6.32 9,7.64 9,9 7.68,9 6.36,9 5,9 c 0,2.97 0,5.94 0,9 1.32,0 2.64,0 4,0 0,1.65 0,3.3 0,5 C 5.625,22.75 5.625,22.75 2,22 -0.01650075,19.104512 -0.22698653,16.717542 -0.125,13.25 -0.1069531,12.450781 -0.08890625,11.651563 -0.0703125,10.828125 -0.04710937,10.224844 -0.02390625,9.6215625 0,9 -0.66,9 -1.32,9 -2,9 -2,7.68 -2,6.36 -2,5 -1.34,5 -0.68,5 0,5 0,3.35 0,1.7 0,0 Z"
       fill="#446897"
       transform="translate(315,114)"
       id="path13668" /><path
       d="m 0,0 c 0.804375,0.12375 1.60875,0.2475 2.4375,0.375 2.151647,3.2274706 2.2724508,4.2050564 2.25,7.9375 0.00516,0.8546484 0.010313,1.709297 0.015625,2.589844 C 4.4246363,13.494746 3.7441917,15.140142 2.4375,17.375 c -1.98,0 -3.96,0 -6,0 C -5.3784434,14.256786 -5.8587219,11.909967 -5.875,8.3125 -5.8917578,7.4552734 -5.9085156,6.5980469 -5.9257812,5.7148437 -5.3367532,1.9209966 -3.7401676,0.54734159 0,0 Z"
       fill="#e3af21"
       transform="translate(363.5625,46.625)"
       id="path13670" /><path
       d="M 0,0 C 1.65,0 3.3,0 5,0 5,8.58 5,17.16 5,26 3.35,26 1.7,26 0,26 0,17.42 0,8.84 0,0 Z"
       fill="#4c709c"
       transform="translate(277,110)"
       id="path13672" /><path
       d="M 0,0 C 1.65,0 3.3,0 5,0 5,8.58 5,17.16 5,26 3.35,26 1.7,26 0,26 0,17.42 0,8.84 0,0 Z"
       fill="#4c709d"
       transform="translate(268,110)"
       id="path13674" /><path
       d="m 0,0 c 1.65,0 3.3,0 5,0 0.33,4.29 0.66,8.58 1,13 1.65,-0.33 3.3,-0.66 5,-1 0.33,-0.66 0.66,-1.32 1,-2 0.125,2.875 0.125,2.875 0,6 -2,2 -2,2 -4.875,2.3125 C 3.5519781,17.955198 2.4270319,17.614528 0,15 -0.29642569,12.287705 -0.38061189,10.002603 -0.25,7.3125 -0.23195312,6.6106055 -0.21390625,5.9087109 -0.1953125,5.1855469 -0.14826213,3.4564456 -0.07651873,1.728048 0,0 Z"
       fill="#466892"
       transform="translate(169,119)"
       id="path13676" /><path
       d="M 0,0 C 3.96,0 7.92,0 12,0 11.67,1.32 11.34,2.64 11,4 9.35,4.66 7.7,5.32 6,6 5.67,9.63 5.34,13.26 5,17 3.35,17 1.7,17 0,17 0,11.39 0,5.78 0,0 Z"
       fill="#4a6d9a"
       transform="translate(347,119)"
       id="path13678" /><path
       d="M 0,0 C 0.99,0.33 1.98,0.66 3,1 3,1.66 3,2.32 3,3 3.66,3.66 4.32,4.32 5,5 4.625,7 4.625,7 4,9 c 0,0.66 0,1.32 0,2 4.478837,-0.44704 4.478837,-0.44704 8,-3 0,3 0,3 -1,6 0.66,0.33 1.32,0.66 2,1 C 9.9357022,16.532149 7.3834358,16.229385 4,16 -0.6,13.8 -0.6,13.8 -2,11 -2.2600318,7.0128461 -2.0424508,4.4466357 0,1 0,0.67 0,0.34 0,0 Z"
       fill="#4c709d"
       transform="translate(199,121)"
       id="path13680" /><path
       d="M 0,0 C 0.33,0 0.66,0 1,0 1,1.65 1,3.3 1,5 2.299375,4.979375 3.59875,4.95875 4.9375,4.9375 6.2916563,4.9160055 7.6475608,4.928518 9,5 c 1,1 1,1 1.113525,3.1330566 -0.0052,0.9164429 -0.01047,1.8328858 -0.01587,2.7770994 -0.0032,0.989356 -0.0064,1.978711 -0.0098,2.998047 -0.0084,1.040918 -0.01676,2.081836 -0.02539,3.154297 -0.0045,1.044785 -0.009,2.08957 -0.01367,3.166016 C 10.036999,22.819067 10.020517,25.409506 10,28 c 2.64,0 5.28,0 8,0 0,-7.26 0,-14.52 0,-22 0.33,0 0.66,0 1,0 0.33,7.92 0.66,15.84 1,24 -3.96,0 -7.92,0 -12,0 C 8,22.08 8,14.16 8,6 5.36,6 2.72,6 0,6 0,4.02 0,2.04 0,0 Z"
       fill="#a18933"
       transform="translate(322,42)"
       id="path13682" /><path
       d="M 0,0 C 3.9666801,5.9500202 2.008428,14.193111 1,21 0.67,21 0.34,21 0,21 -0.04125,19.7625 -0.0825,18.525 -0.125,17.25 -0.57377836,13.614895 -0.76657589,13.196288 -3.75,10.6875 -4.8225,10.130625 -5.895,9.57375 -7,9 -7.94875,8.4225 -8.8975,7.845 -9.875,7.25 -10.57625,6.8375 -11.2775,6.425 -12,6 c 0.33,-0.99 0.66,-1.98 1,-3 7.75,0.875 7.75,0.875 10,2 0.33,-1.65 0.66,-3.3 1,-5 z"
       fill="#40689d"
       transform="translate(110,43)"
       id="path13684" /><path
       d="m 0,0 c 5.4098361,-0.36065574 5.4098361,-0.36065574 7.6875,1.03125 2.021374,3.032061 1.6277647,6.1476361 1.5,9.65625 C 9.173965,11.389395 9.16043,12.091289 9.146484,12.814453 9.1112018,14.543298 9.0573958,16.271748 9,18 7.68,18 6.36,18 5,18 4.67,13.71 4.34,9.42 4,5 2.35,5 0.7,5 -1,5 -0.67,3.35 -0.34,1.7 0,0 Z"
       fill="#395b88"
       transform="translate(86,118)"
       id="path13686" /><path
       d="M 0,0 C 1.625,1.875 1.625,1.875 1.875,5.5625 1.7925,6.655625 1.71,7.74875 1.625,8.875 c -0.33,0 -0.66,0 -1,0 C 0.50125,7.905625 0.3775,6.93625 0.25,5.9375 0.04375,4.926875 -0.1625,3.91625 -0.375,2.875 c -0.66,-0.33 -1.32,-0.66 -2,-1 -0.33,1.32 -0.66,2.64 -1,4 0,-0.99 0,-1.98 0,-3 -2.64,0.99 -5.28,1.98 -8,3 0,-0.66 0,-1.32 0,-2 -0.99,0.495 -0.99,0.495 -2,1 -0.407292,2.321566 -0.744387,4.6568787 -1,7 -0.33,0 -0.66,0 -1,0 C -15.597675,10.439652 -15.802619,9.0015448 -16,7.5625 -16.116016,6.7619922 -16.232031,5.9614844 -16.351562,5.1367187 -16.375,2.875 -16.375,2.875 -14.375,-0.125 -9.1052644,-2.5203343 -5.2176195,-2.471504 0,0 Z"
       fill="#536f93"
       transform="translate(374.375,120.125)"
       id="path13688" /><path
       d="M 0,0 C 0.66,0.33 1.32,0.66 2,1 2,1.66 2,2.32 2,3 2.66,3 3.32,3 4,3 4.33,2.34 4.66,1.68 5,1 5.33,1.66 5.66,2.32 6,3 9.465,2.505 9.465,2.505 13,2 13,5 13,5 11.4375,6.6875 8.0778397,8.4965479 5.7695517,8.3967949 2,8 -0.9375,6.5 -0.9375,6.5 -3,5 -2.67,4.34 -2.34,3.68 -2,3 -1.34,3.33 -0.68,3.66 0,4 0,2.68 0,1.36 0,0 Z"
       fill="#3e5d83"
       transform="translate(363,129)"
       id="path13690" /><path
       d="M 0,0 C 2.5625,1.6875 2.5625,1.6875 4,4 4.25,6.75 4.25,6.75 4,9 2.35,9 0.7,9 -1,9 -1.268125,8.38125 -1.53625,7.7625 -1.8125,7.125 -2.9555685,4.7004767 -2.9555685,4.7004767 -6,3 c -2.0291984,0.2572397 -2.0291984,0.2572397 -4,1 -0.99,0.33 -1.98,0.66 -3,1 2.697282,-5.97255331 6.8946364,-5.7807925 13,-5 z"
       fill="#4f719b"
       transform="translate(211,110)"
       id="path13692" /><path
       d="M 0,0 C 1.3747852,0.01740234 1.3747852,0.01740234 2.7773438,0.03515625 3.6964453,0.04417969 4.6155469,0.05320312 5.5625,0.0625 c 0.7102734,0.01160156 1.4205469,0.02320312 2.1523437,0.03515625 0.3300001,0.66 0.6600001,1.31999995 1.0000001,2.00000005 -3.3000001,0 -6.6,0 -10,0 0,7.9199997 0,15.8399997 0,23.9999997 -0.66,0 -1.32,0 -2.0000001,0 -0.028868,-4.145819 -0.046753,-8.291612 -0.0625,-12.4375 -0.00838,-1.184004 -0.016758,-2.368008 -0.025391,-3.58789 -0.00322,-1.1247074 -0.00645,-2.2494144 -0.00977,-3.4082035 -0.00524,-1.0421265 -0.010474,-2.0842529 -0.015869,-3.157959 C -3.2492637,0.33619402 -3.1657642,0.13528907 0,0 Z"
       fill="#6b88b0"
       transform="translate(131.28516,109.90234)"
       id="path13694" /><path
       d="M 0,0 C 1.32,0 2.64,0 4,0 4,5.61 4,11.22 4,17 2.68,17 1.36,17 0,17 -1.2232907,13.330128 -0.88021006,10.660322 -0.5625,6.8125 -0.46066406,5.5401953 -0.35882813,4.2678906 -0.25390625,2.9570313 -0.17011719,1.9812109 -0.08632812,1.0053906 0,0 Z"
       fill="#2d527f"
       transform="translate(161,119)"
       id="path13696" /><path
       d="m 0,0 c 0.66,0 1.32,0 2,0 0.33,1.32 0.66,2.64 1,4 2.97,0 5.94,0 9,0 0,-1.32 0,-2.64 0,-4 0.66,0 1.32,0 2,0 0,1.98 0,3.96 0,6 C 10.04,6 6.08,6 2,6 2.33,7.65 2.66,9.3 3,11 1.68,10.67 0.36,10.34 -1,10 -1.0268922,8.5209311 -1.0463462,7.0417252 -1.0625,5.5625 -1.0741016,4.7387891 -1.0857031,3.9150781 -1.0976562,3.0664063 -1,1 -1,1 0,0 Z"
       fill="#295487"
       transform="translate(100,122)"
       id="path13698" /><path
       d="m 0,0 c 6.27,0 12.54,0 19,0 0,0.33 0,0.66 0,1 C 13.555,1.495 13.555,1.495 8,2 8,9.92 8,17.84 8,26 7.67,26 7.34,26 7,26 7,19.07 7,12.14 7,5 4.69,5 2.38,5 0,5 0,3.35 0,1.7 0,0 Z"
       fill="#7994b8"
       transform="translate(58,110)"
       id="path13700" /><path
       d="M 0,0 C 2,3 2,3 3,6 0.67313547,7.1634323 -0.84721413,7.1989599 -3.4375,7.25 -4.6111914,7.2886719 -4.6111914,7.2886719 -5.8085937,7.328125 -8,7 -8,7 -9.7851563,5.671875 -11,4 -11,4 -11,1 c 1.65,0 3.3,0 5,0 0,0.66 0,1.32 0,2 C -4.02,2.67 -2.04,2.34 0,2 0,1.34 0,0.68 0,0 Z"
       fill="#4f739f"
       transform="translate(180,137)"
       id="path13702" /><path
       d="M 0,0 C 0.99,0.66 1.98,1.32 3,2 2.67,2.66 2.34,3.32 2,4 1.34,3.67 0.68,3.34 0,3 -0.33,4.32 -0.66,5.64 -1,7 -1,6.01 -1,5.02 -1,4 -4.7173664,3.6509944 -4.7173664,3.6509944 -7.8125,5.5 -8.4003125,6.2425 -8.4003125,6.2425 -9,7 -9.66,5.02 -10.32,3.04 -11,1 -6.9280978,-1.0359511 -4.3975861,-1.1471964 0,0 Z"
       fill="#52749c"
       transform="translate(112,119)"
       id="path13704" /><path
       d="M 0,0 C 2.64,0 5.28,0 8,0 7.4376861,3.9361974 6.3831418,6.7919245 4,10 3.01,10 2.02,10 1,10 1.33,7.69 1.66,5.38 2,3 1.34,3 0.68,3 0,3 0,2.01 0,1.02 0,0 Z"
       fill="#2d5586"
       transform="translate(209,125)"
       id="path13706" /><path
       d="M 0,0 C 3.63,0 7.26,0 11,0 10.67,1.32 10.34,2.64 10,4 6.985724,5.4066621 4.9402295,6.1484573 1.625,5.625 1.08875,5.41875 0.5525,5.2125 0,5 0,3.35 0,1.7 0,0 Z"
       fill="#395882"
       transform="translate(348,119)"
       id="path13708" /><path
       d="M 0,0 C 1.1875,3.0625 1.1875,3.0625 2,6 -0.375,6.1875 -0.375,6.1875 -3,6 -3.66,5.01 -4.32,4.02 -5,3 c -1.98,0.33 -3.96,0.66 -6,1 -0.33,-1.32 -0.66,-2.64 -1,-4 1.436402,-0.19573608 2.874195,-0.38127816 4.3125,-0.5625 0.8005078,-0.10441406 1.6010156,-0.20882812 2.4257813,-0.31640625 C -3,-1 -3,-1 0,0 Z"
       fill="#3a6294"
       transform="translate(244,112)"
       id="path13710" /><path
       d="M 0,0 C 2.64,0 5.28,0 8,0 8.33,0.99 8.66,1.98 9,3 6.69,3 4.38,3 2,3 2,9.93 2,16.86 2,24 1.67,24 1.34,24 1,24 0.67,16.08 0.34,8.16 0,0 Z"
       fill="#3a6398"
       transform="translate(68,112)"
       id="path13712" /><path
       d="M 0,0 C 1.875,1.4375 1.875,1.4375 3,3 3,3.33 3,3.66 3,4 1.5417679,4.027004 0.08339325,4.046398 -1.375,4.0625 -2.1871094,4.074102 -2.9992187,4.085703 -3.8359375,4.097656 -6,4 -6,4 -8,3 -8,2.34 -8,1.68 -8,1 -5.2012997,-0.39935013 -3.0950121,-0.25265405 0,0 Z"
       fill="#3a5b83"
       transform="translate(338,133)"
       id="path13714" /><path
       d="M 0,0 C 1.1875,3.0625 1.1875,3.0625 2,6 -0.3125,6.25 -0.3125,6.25 -3,6 -4.9761039,3.9557546 -6,2.8823175 -6,0 c 3,-1 3,-1 6,0 z"
       fill="#3a6192"
       transform="translate(310,112)"
       id="path13716" /><path
       d="m 0,0 c 0,0.66 0,1.32 0,2 -4.455,0.495 -4.455,0.495 -9,1 -0.66,1.98 -1.32,3.96 -2,6 -0.66,0 -1.32,0 -2,0 0.477612,-5.3731343 0.477612,-5.3731343 2.5625,-7.875 C -6.8566033,-0.52772156 -3.9236417,-0.19618208 0,0 Z"
       fill="#56769b"
       transform="translate(241,110)"
       id="path13718" /><path
       d="M 0,0 C 2.2963382,3.4445074 2.5401649,5.9381228 3,10 1.35,10 -0.3,10 -2,10 -1.125,2.25 -1.125,2.25 0,0 Z"
       fill="#7089ac"
       transform="translate(72,48)"
       id="path13720" /><path
       d="M 0,0 C 2.6908287,0.17635452 5.3285145,0.61835921 8,1 7.67,1.99 7.34,2.98 7,4 5.02,4.33 3.04,4.66 1,5 0.34,3.68 -0.32,2.36 -1,1 -0.67,0.67 -0.34,0.34 0,0 Z"
       fill="#4e709c"
       transform="translate(99,46)"
       id="path13722" /><path
       d="M 0,0 C 1.32,0.33 2.64,0.66 4,1 4,2.98 4,4.96 4,7 2.02,7.99 2.02,7.99 0,9 0,6.03 0,3.06 0,0 Z"
       fill="#c6ab53"
       transform="translate(279,46)"
       id="path13724" /><path
       d="m 0,0 c -1.369835,3.1611578 -1.9890638,3.9927092 -5,6 -3.1875,0.125 -3.1875,0.125 -6,0 0,-0.33 0,-0.66 0,-1 1.65,0 3.3,0 5,0 -0.33,-1.32 -0.66,-2.64 -1,-4 2.462788,-1.231394 4.2795055,-1.07159196 7,-1 z"
       fill="#5f7b9f"
       transform="translate(116,131)"
       id="path13726" /><path
       d="M 0,0 C 1.2258984,0.01353516 1.2258984,0.01353516 2.4765625,0.02734375 3.4162891,0.04474609 3.4162891,0.04474609 4.375,0.0625 c 0,0.66 0,1.32 0,2 C 3.7717187,2.1114844 3.1684375,2.1604688 2.546875,2.2109375 1.3480469,2.3230859 1.3480469,2.3230859 0.125,2.4375 -1.0583594,2.5419141 -1.0583594,2.5419141 -2.265625,2.6484375 -4.710877,3.0775711 -6.473369,3.8485064 -8.625,5.0625 -6.518992,0.39919656 -5.01779,-0.07168271 0,0 Z"
       fill="#5779a2"
       transform="translate(206.625,109.9375)"
       id="path13728" /><path
       d="M 0,0 C 1.98,0.99 1.98,0.99 4,2 4,3.98 4,5.96 4,8 2.68,8 1.36,8 0,8 0,5.36 0,2.72 0,0 Z"
       fill="#e0ac20"
       transform="translate(390,46)"
       id="path13730" /><path
       d="m 0,0 c 0.33,0 0.66,0 1,0 0,5.61 0,11.22 0,17 -0.99,-0.33 -1.98,-0.66 -3,-1 0,-1.32 0,-2.64 0,-4 0.66,0 1.32,0 2,0 C 0,8.04 0,4.08 0,0 Z"
       fill="#83a2c6"
       transform="translate(160,119)"
       id="path13732" /><path
       d="m 0,0 c 0.33,0.99 0.66,1.98 1,3 -2.97,0 -5.94,0 -9,0 0,-0.66 0,-1.32 0,-2 2.7087933,-1.35439668 5.0093327,-1.06501451 8,-1 z"
       fill="#325888"
       transform="translate(180,141)"
       id="path13734" /><path
       d="M 0,0 C 0.99,0.33 1.98,0.66 3,1 2.67,2.32 2.34,3.64 2,5 6.455,4.505 6.455,4.505 11,4 11,4.66 11,5.32 11,6 7.7,6 4.4,6 1,6 0.34,4.68 -0.32,3.36 -1,2 -0.67,1.34 -0.34,0.68 0,0 Z"
       fill="#6084b5"
       transform="translate(56,65)"
       id="path13736" /><path
       d="M 0,0 C -2,2 -2,2 -5.125,2.125 -6.548125,2.063125 -6.548125,2.063125 -8,2 -8.33,1.34 -8.66,0.68 -9,0 c 3.0689019,-1.5344509 5.7009427,-0.54984289 9,0 z"
       fill="#5173a1"
       transform="translate(262,135)"
       id="path13738" /><path
       d="M 0,0 C 0.66,0 1.32,0 2,0 2.33,2.31 2.66,4.62 3,7 1.68,7 0.36,7 -1,7 -0.67,4.69 -0.34,2.38 0,0 Z"
       fill="#c7a846"
       transform="translate(310,50)"
       id="path13740" /><path
       d="M 0,0 C 0.66,0.33 1.32,0.66 2,1 2,1.66 2,2.32 2,3 2.66,3.33 3.32,3.66 4,4 3.01,4 2.02,4 1,4 1,4.99 1,5.98 1,7 -0.32,6.34 -1.64,5.68 -3,5 -2.67,4.34 -2.34,3.68 -2,3 -1.34,3.33 -0.68,3.66 0,4 0,2.68 0,1.36 0,0 Z"
       fill="#718fb2"
       transform="translate(363,129)"
       id="path13742" /><path
       d="M 0,0 C -0.66,1.32 -1.32,2.64 -2,4 -2.99,4 -3.98,4 -5,4 -5,3.34 -5,2.68 -5,2 -5.66,1.67 -6.32,1.34 -7,1 -4.537212,-0.231394 -2.7204945,-0.07159196 0,0 Z"
       fill="#496891"
       transform="translate(265,131)"
       id="path13744" /><path
       d="M 0,0 C 1.98,0 3.96,0 6,0 6,0.99 6,1.98 6,3 4.02,3 2.04,3 0,3 0,2.01 0,1.02 0,0 Z"
       fill="#18447a"
       transform="translate(104,133)"
       id="path13746" /><path
       d="M 0,0 C 1.32,1.32 2.64,2.64 4,4 3.01,4 2.02,4 1,4 1,4.99 1,5.98 1,7 -0.32,6.34 -1.64,5.68 -3,5 -2.67,4.34 -2.34,3.68 -2,3 -1.34,3.33 -0.68,3.66 0,4 0,2.68 0,1.36 0,0 Z"
       fill="#7797bc"
       transform="translate(103,129)"
       id="path13748" /><path
       d="M 0,0 C 2.64,0 5.28,0 8,0 8,0.66 8,1.32 8,2 4.7130377,2.7995314 3.2897681,3.0965894 0,2 0,1.34 0,0.68 0,0 Z"
       fill="#456a98"
       transform="translate(299,110)"
       id="path13750" /><path
       d="M 0,0 C 0.33,0.99 0.66,1.98 1,3 3.31,3 5.62,3 8,3 8,3.33 8,3.66 8,4 4.37,4 0.74,4 -3,4 -2.01,2.68 -1.02,1.36 0,0 Z"
       fill="#19427b"
       transform="translate(56,68)"
       id="path13752" /><path
       d="M 0,0 C 2,1 2,1 2,1 Z"
       fill="#000000"
       transform="translate(166,135)"
       id="path13754" /><path
       d=""
       fill="#000000"
       id="path13756" /><path
       d=""
       fill="#000002"
       id="path13758" /><path
       d=""
       fill="#000002"
       id="path13760" /></g></svg>
