<svg xmlns="http://www.w3.org/2000/svg" width="24" height="24"><path fill="#222" fill-rule="evenodd" d="M5.14 6.04a3.07 3.07 0 0 0-1.63 4.58 2.9 2.9 0 0 0 2.6 1.33c.6 0 .85-.06 1.3-.28.3-.14.66-.38.8-.52l.23-.26-.4-.4-.42-.42-.33.26c-.98.73-2.23.47-2.7-.57-.65-1.43.46-2.92 1.9-2.56.25.06.6.22.77.35l.32.24.41-.5.42-.48-.42-.3a3.4 3.4 0 0 0-2.85-.47m6.2.04a3.06 3.06 0 0 0-1.53 4.54 2.9 2.9 0 0 0 2.6 1.33c.6 0 .85-.06 1.3-.28.3-.14.66-.38.8-.52l.23-.26-.4-.4-.42-.42-.33.26c-.96.72-2.17.48-2.7-.54-.7-1.38.45-2.95 1.9-2.59.25.06.6.22.77.35l.3.23.43-.49.42-.48-.42-.3a3.3 3.3 0 0 0-2.94-.43m6.28 0a3 3 0 0 0-2 3.17 2.94 2.94 0 0 0 3.02 2.7c.67 0 .9-.05 1.36-.27.3-.15.65-.38.77-.51l.23-.24-.42-.42c-.37-.36-.44-.4-.58-.27-.72.62-1.82.67-2.43.1-1.07-1-.6-2.9.79-3.19.4-.08 1 .08 1.45.39l.36.24.37-.45c.46-.55.42-.66-.38-1.07a3.4 3.4 0 0 0-2.54-.18"/></svg>