<?xml version="1.0" encoding="UTF-8" standalone="no"?>
<svg
   viewBox="0 0 24 24"
   width="24pt"
   height="24pt"
   version="1.1"
   id="svg1"
   sodipodi:docname="centra.svg"
   xml:space="preserve"
   inkscape:version="1.3.2 (091e20e, 2023-11-25, custom)"
   xmlns:inkscape="http://www.inkscape.org/namespaces/inkscape"
   xmlns:sodipodi="http://sodipodi.sourceforge.net/DTD/sodipodi-0.dtd"
   xmlns="http://www.w3.org/2000/svg"
   xmlns:svg="http://www.w3.org/2000/svg"><defs
     id="defs1" /><sodipodi:namedview
     id="namedview1"
     pagecolor="#505050"
     bordercolor="#eeeeee"
     borderopacity="1"
     inkscape:showpageshadow="0"
     inkscape:pageopacity="0"
     inkscape:pagecheckerboard="0"
     inkscape:deskcolor="#505050"
     inkscape:document-units="pt"
     inkscape:zoom="17.169437"
     inkscape:cx="18.550405"
     inkscape:cy="17.793246"
     inkscape:window-width="1920"
     inkscape:window-height="991"
     inkscape:window-x="-9"
     inkscape:window-y="-9"
     inkscape:window-maximized="1"
     inkscape:current-layer="svg1" /><g
     id="g1"
     transform="matrix(0.09926744,0,0,0.09926744,0.90355524,-0.96758701)"><path
       d="m 52,131.5 v 9.5 h 3 c 2,0 3,-0.5 3,-1.5 0,-0.825 -0.675,-1.5 -1.5,-1.5 -1.208,0 -1.5,-1.556 -1.5,-8 0,-6.444 -0.292,-8 -1.5,-8 -1.228,0 -1.5,1.722 -1.5,9.5 m 8,0 c 0,7.778 0.272,9.5 1.5,9.5 1.228,0 1.5,-1.722 1.5,-9.5 0,-7.778 -0.272,-9.5 -1.5,-9.5 -1.228,0 -1.5,1.722 -1.5,9.5 m 6.393,-4.25 c 1.728,13.935 1.711,13.877 3.978,13.554 1.804,-0.258 2.234,-1.215 2.831,-6.304 0.387,-3.3 0.921,-7.463 1.188,-9.25 0.338,-2.27 0.086,-3.25 -0.836,-3.25 -1.517,0 -2.486,2.959 -2.619,8 -0.111,4.188 -0.552,3.178 -1.418,-3.25 -0.454,-3.374 -1.094,-4.75 -2.207,-4.75 -1.307,0 -1.459,0.873 -0.917,5.25 M 77,131.5 v 9.5 h 3.5 c 2.444,0 3.5,-0.452 3.5,-1.5 0,-0.833 -0.889,-1.5 -2,-1.5 -1.556,0 -2,-0.667 -2,-3 0,-2 0.5,-3 1.5,-3 0.825,0 1.5,-0.675 1.5,-1.5 0,-0.825 -0.675,-1.5 -1.5,-1.5 -0.833,0 -1.5,-0.889 -1.5,-2 0,-1.333 0.667,-2 2,-2 1.111,0 2,-0.667 2,-1.5 0,-1.048 -1.056,-1.5 -3.5,-1.5 H 77 v 9.5 m 14.212,-0.25 0.288,9.25 3.25,0.313 c 2.414,0.233 3.25,-0.088 3.25,-1.25 0,-0.859 -0.675,-1.563 -1.5,-1.563 -1,0 -1.5,-1 -1.5,-3 0,-1.65 0.45,-3 1,-3 0.55,0 1,-0.675 1,-1.5 0,-0.825 -0.45,-1.5 -1,-1.5 -0.55,0 -1,-0.9 -1,-2 0,-1.111 0.667,-2 1.5,-2 0.825,0 1.5,-0.675 1.5,-1.5 0,-1.051 -1.06,-1.5 -3.538,-1.5 h -3.537 l 0.287,9.25 m 9.398,-6 c 0.267,1.787 0.801,5.95 1.188,9.25 0.597,5.089 1.027,6.046 2.831,6.304 2.267,0.323 2.25,0.381 3.978,-13.554 0.552,-4.451 0.403,-5.25 -0.978,-5.25 -1.168,0 -1.633,0.92 -1.644,3.25 -0.009,1.787 -0.452,3.925 -0.985,4.75 -0.701,1.085 -0.974,0.185 -0.985,-3.25 -0.013,-4.027 -0.31,-4.75 -1.952,-4.75 -1.618,0 -1.858,0.535 -1.453,3.25 M 112,131.5 v 9.5 h 3 c 2,0 3,-0.5 3,-1.5 0,-0.825 -0.675,-1.5 -1.5,-1.5 -1,0 -1.5,-1 -1.5,-3 0,-2 0.5,-3 1.5,-3 0.825,0 1.5,-0.675 1.5,-1.5 0,-0.825 -0.675,-1.5 -1.5,-1.5 -0.833,0 -1.5,-0.889 -1.5,-2 0,-1.111 0.667,-2 1.5,-2 0.825,0 1.5,-0.675 1.5,-1.5 0,-1 -1,-1.5 -3,-1.5 h -3 v 9.5 m 9,0 c 0,7.778 0.272,9.5 1.5,9.5 1.083,0 1.5,-1.111 1.5,-4 0,-5.057 1.774,-5.266 2.19,-0.258 0.227,2.735 0.82,3.838 2.206,4.101 1.49,0.283 1.742,-0.037 1.179,-1.492 -0.394,-1.018 -0.697,-5.339 -0.672,-9.601 L 128.948,122 H 124.974 121 v 9.5 m 11.579,-4.25 c 0.768,2.887 1.403,7.195 1.409,9.573 0.01,3.576 0.315,4.266 1.762,3.988 1.315,-0.252 1.905,-1.698 2.374,-5.823 0.344,-3.018 0.956,-7.175 1.362,-9.238 0.596,-3.036 0.442,-3.75 -0.811,-3.75 -1.001,0 -1.686,1.15 -1.936,3.25 l -0.388,3.25 -0.801,-3.25 c -0.53,-2.153 -1.402,-3.25 -2.584,-3.25 -1.664,0 -1.69,0.356 -0.387,5.25 M 148,131.56 v 9.561 l 3.75,-0.311 3.75,-0.31 0.288,-9.25 0.287,-9.25 H 152.038 148 v 9.56 m 12.673,-7.31 c -1.325,5.488 -1.898,16.75 -0.852,16.75 0.594,0 1.552,-0.787 2.129,-1.75 1,-1.667 1.1,-1.667 2.1,0 1.586,2.644 4.293,2.271 3.623,-0.5 -0.299,-1.238 -0.855,-5.512 -1.237,-9.5 -0.638,-6.659 -0.879,-7.25 -2.957,-7.25 -1.518,0 -2.441,0.74 -2.806,2.25 m 8.688,0.5 c 0.327,1.513 1.146,5.787 1.82,9.5 1.423,7.832 3.812,9.392 3.831,2.5 0.006,-2.338 0.648,-6.639 1.425,-9.559 1.296,-4.869 1.275,-5.282 -0.254,-4.988 -0.939,0.181 -1.917,1.628 -2.238,3.309 l -0.57,2.988 -0.767,-3.25 c -0.982,-4.161 -4.143,-4.647 -3.247,-0.5 M 124,127.5 c 0,1.375 0.45,2.5 1,2.5 0.55,0 1,-1.125 1,-2.5 0,-1.375 -0.45,-2.5 -1,-2.5 -0.55,0 -1,1.125 -1,2.5 m 27,4 c 0,3.667 0.436,6.5 1,6.5 0.564,0 1,-2.833 1,-6.5 0,-3.667 -0.436,-6.5 -1,-6.5 -0.564,0 -1,2.833 -1,6.5 m 11.531,0.793 c -0.428,0.986 -0.497,2.074 -0.155,2.417 1.016,1.015 1.835,-0.411 1.367,-2.382 -0.414,-1.747 -0.468,-1.748 -1.212,-0.035"
       stroke="none"
       fill="#ffffff"
       fill-rule="evenodd"
       id="path1-5"
       sodipodi:nodetypes="ccsssssccssscccccsccscccssssssssssscccccssssssssssccccccscccscccssssssssssscccsscccccccccccccscccscccccccccccsccccsccccccccsccsssccsssccccc" /><path
       d="m 39.129,81.623 c -9.744,4.856 -13.599,15.355 -8.948,24.373 3.296,6.391 8.276,8.971 17.319,8.972 3.85,10e-4 7.595,-0.376 8.322,-0.837 0.728,-0.461 1.68,-2.423 2.117,-4.359 l 0.794,-3.52 -6.419,0.515 c -7.488,0.601 -10.607,-0.645 -12.391,-4.952 -1.432,-3.458 -0.012,-9.533 2.818,-12.059 3.816,-3.406 13.602,-4.134 18.112,-1.347 1.021,0.631 1.667,-0.963 2.369,-5.843 0.357,-2.483 -2.54,-3.336 -11.776,-3.466 -5.737,-0.081 -8.036,0.39 -12.317,2.523 m 97.065,-0.349 c -3.587,0.861 -4.401,1.509 -4.875,3.88 -0.429,2.145 -1.139,2.846 -2.885,2.846 -2.584,0 -2.877,0.326 -3.815,4.25 -0.59,2.469 -0.389,2.75 1.969,2.75 2.083,0 2.488,0.359 1.959,1.738 -0.367,0.955 -0.923,4.483 -1.237,7.84 -0.512,5.488 -0.336,6.32 1.749,8.262 1.758,1.639 3.572,2.16 7.513,2.16 4.542,0 5.271,-0.283 5.798,-2.25 0.995,-3.715 0.74,-5.006 -0.87,-4.388 -2.297,0.881 -4.5,-0.356 -4.5,-2.526 0,-1.073 0.503,-3.95 1.119,-6.393 1.037,-4.122 1.355,-4.443 4.383,-4.443 2.54,0 3.399,-0.499 3.868,-2.25 1.084,-4.048 0.721,-4.75 -2.458,-4.75 -3.048,0 -3.079,-0.051 -2.412,-4 0.372,-2.2 0.299,-3.946 -0.162,-3.88 -0.461,0.066 -2.776,0.585 -5.144,1.154 m -63.921,6.89 c -7.561,1.69 -13.229,9.924 -11.86,17.226 0.337,1.793 1.984,4.574 3.66,6.18 2.74,2.625 3.828,2.954 10.738,3.25 8.571,0.366 10.527,-0.509 11.62,-5.196 0.524,-2.25 0.36,-2.758 -0.752,-2.331 -6.127,2.351 -14.343,1.263 -15.433,-2.043 -0.311,-0.941 1.937,-1.25 9.103,-1.25 8.77,0 9.568,-0.164 10.179,-2.087 C 91.254,96.475 86.062,88 81.005,88 c -1.013,0 -2.441,-0.176 -3.173,-0.391 -0.733,-0.215 -3.234,0.035 -5.559,0.555 m 38.669,-0.206 c -1.408,0.422 -3.545,1.294 -4.75,1.939 C 104.379,90.868 104,90.805 104,89.535 104,88.392 102.898,88 99.689,88 h -4.312 l -2.688,12.268 C 91.21,107.015 90,113.09 90,113.768 90,114.575 91.673,115 94.846,115 h 4.846 l 1.695,-7.717 C 103.307,98.547 105.06,96 109.155,96 c 3.753,0 3.781,1.5 0.318,16.75 -0.477,2.1 -0.18,2.25 4.449,2.25 2.728,0 5.164,-0.338 5.413,-0.75 1.308,-2.163 3.894,-18.201 3.31,-20.526 -1.085,-4.327 -6.917,-7.199 -11.703,-5.766 m 51.86,0.888 c -2.609,1.33 -3.477,1.47 -3.105,0.5 C 160.089,88.326 158.976,88 155.107,88 150.66,88 150,88.259 150,90.008 c 0,1.105 -1.125,6.77 -2.5,12.589 -1.375,5.819 -2.5,10.99 -2.5,11.492 0,0.501 2.214,0.911 4.92,0.911 h 4.92 l 1.64,-7.25 c 2.313,-10.223 3.637,-11.967 8.8,-11.594 4.076,0.294 4.152,0.239 4.946,-3.579 0.443,-2.134 0.686,-3.98 0.54,-4.104 -1.549,-1.31 -4.978,-1.149 -7.964,0.373 m 14.937,-0.908 c -4.512,0.901 -4.326,0.724 -5.235,4.962 -0.653,3.048 -0.536,3.324 1.134,2.665 3.748,-1.48 8.14,-1.754 10.225,-0.638 3.614,1.934 2.391,3.073 -3.298,3.073 -2.989,0 -6.546,0.422 -7.904,0.939 -6.404,2.435 -8.811,9.98 -4.472,14.022 2.694,2.51 10.308,2.78 13.588,0.482 2.012,-1.409 2.223,-1.409 2.223,0 0,1.149 1.045,1.557 3.981,1.557 4.427,0 3.916,0.923 6.504,-11.731 1.655,-8.09 1.029,-11.26 -2.69,-13.621 -2.976,-1.888 -9.304,-2.658 -14.056,-1.71 M 73.223,95.557 C 69.754,97.986 70.571,99 76,99 c 5.111,0 6.355,-1.245 3.8,-3.8 -1.631,-1.631 -3.916,-1.507 -6.577,0.357 m 103.952,9.033 c -1.801,1.261 -2.028,1.882 -1.1,3 0.643,0.776 1.729,1.41 2.413,1.41 1.579,0 6.512,-3.843 6.512,-5.073 0,-1.511 -5.371,-1.056 -7.825,0.663 M 51,145.5 c 0,1.318 7.722,1.5 63.5,1.5 55.778,0 63.5,-0.182 63.5,-1.5 0,-1.318 -7.722,-1.5 -63.5,-1.5 -55.778,0 -63.5,0.182 -63.5,1.5"
       stroke="none"
       fill="#ffd400"
       fill-rule="evenodd"
       id="path2" /></g></svg>
