<svg xmlns="http://www.w3.org/2000/svg" width="24" height="24" viewBox="0 0 24 24"><path fill="#564332" fill-rule="evenodd" d="M3.04 4.84a29 29 0 0 0-.02 2.43c.03 2.52.07 2.66.71 3.1.18.12 2.1.81 4.29 1.54l3.96 1.31 2.29-.77 3.88-1.32c2.9-.98 2.87-.92 2.83-4.15l-.03-2.23-8.93-.03c-7.6-.02-8.93 0-8.98.12m9.78 1.95.03.86.53.03c.53.03.75-.14.24-.2-.25-.03-.27-.06-.27-.48s.02-.45.28-.48c.37-.04.35-.22-.03-.22-.23 0-.3-.05-.3-.19q.01-.19-.25-.18h-.26zm-5.16-.3c-.12.14-.16.32-.14.67l.03.49.9.03c.99.03 1.12-.15.15-.2l-.55-.03v-.9l.63-.03c.87-.04.78-.22-.11-.22-.6 0-.77.04-.91.19m2.55-.05c-.07.08-.1.37-.1.68l.04.53.93.03c.56.02.92-.01.92-.07s-.33-.11-.72-.13c-.57-.02-.73-.06-.73-.18s.16-.16.72-.18c.72-.03.73-.03.73-.3 0-.16-.05-.33-.12-.4-.18-.18-1.52-.16-1.67.02m4.64-.04c-.03.05.22.1.62.12.61.03.68.05.71.25s-.01.22-.65.25l-.68.03v.6l.93.03.92.03v-.59c0-.32-.05-.63-.12-.7-.14-.14-1.64-.17-1.73-.02m-4.31.24q-.17.38.52.36c.41 0 .45-.02.42-.22-.02-.2-.1-.24-.46-.26q-.43-.04-.48.12m4.68.64q.01.17.5.22c.45.06.48.04.48-.17s-.04-.23-.5-.23c-.44 0-.5.03-.48.18m-9.1 1.44.03 1.13.83.03c.53.02.9-.01.98-.09.17-.14.19-1 .02-1.17-.07-.07-.4-.12-.75-.12H6.6v-.45c0-.41-.02-.45-.25-.45h-.26zm2.9-.15q-.13.08-.1.68l.03.59.93.03c.7.02.93 0 .9-.1q-.04-.11-.64-.1c-.45.03-.64 0-.73-.12-.17-.2-.06-.25.74-.28l.6-.03v-.7l-.8-.03a4 4 0 0 0-.93.06m2.38-.01c0 .03.17.35.37.7.37.63.38.64.77.61.36-.03.43-.08.77-.63.44-.7.45-.75.2-.75q-.2 0-.48.52c-.15.28-.33.53-.4.56-.07.02-.26-.22-.43-.52-.25-.44-.37-.56-.56-.56-.13 0-.24.03-.24.07m3 .12c-.14.27-.13.94.02 1.09.17.17 1.78.16 1.78 0q0-.14-.45-.1c-.62.05-.97-.04-.93-.26.03-.13.14-.17.48-.18.94-.02.92 0 .88-.37l-.03-.32-.82-.03c-.73-.02-.83 0-.92.17m2.99-.12c-.24.1-.3.25-.3.8 0 .46.03.53.2.53.16 0 .2-.08.22-.57.03-.57.03-.58.36-.61.17-.02.32-.07.32-.13 0-.1-.55-.11-.8-.02m-10.76.26c-.03.09-.04.3-.02.49.03.32.05.33.51.36l.48.03-.03-.48-.03-.48-.43-.03q-.44-.04-.48.11m2.73.01c-.07.19.16.31.58.31.23 0 .3-.04.3-.2s-.08-.2-.41-.23c-.3-.02-.43.01-.47.12m5.43.06c0 .17.07.2.51.2.43 0 .5-.03.45-.16l-.06-.2c0-.02-.2-.04-.45-.04-.38 0-.45.03-.45.2"/></svg>