<svg xmlns="http://www.w3.org/2000/svg" width="24" height="24"><path fill="#490404" fill-rule="evenodd" d="M10.92 2.51c-3.94.46-7.07 2.57-7.77 5.24-.86 3.32 1.97 6.5 6.6 7.44 2.66.53 4.1.33 5.26-.75.14-.14.58-.33 1-.45.4-.1 1.1-.38 1.56-.6.8-.38.84-.39 1.92-.39h1.11v-1.12c0-.85.05-1.29.2-1.76a3.4 3.4 0 0 0 0-2.24c-.15-.48-.2-.91-.2-1.85V4.8h-1.29c-1.25 0-1.3 0-2.02-.34-.4-.19-1-.4-1.32-.5q-.57-.14-.95-.48c-1.08-.97-2.06-1.2-4.1-.97m.2.7C7.34 3.58 4.45 5.63 4 8.27c-.24 1.38.33 2.85 1.56 4a9.8 9.8 0 0 0 6.55 2.34 3.2 3.2 0 0 0 2.56-1.04c.55-.52 1.41-1.73 1.83-2.56l.22-.43.51.72c.54.77.54.72.01 1.06-.14.1.06.12 1.05.12l1.22.01v-2.35l-.27.44-.26.45-.32-.39a8 8 0 0 1-.7-1.06l-.36-.68.22-.43a9 9 0 0 1 1.1-1.68c.05 0 .2.2.33.43l.26.42V5.3h-2.45l.32.21c.18.12.33.23.33.25 0 .03-.22.36-.49.75l-.5.7-.36-.68c-1.2-2.16-2.43-3.24-3.85-3.36-.3-.03-.92-.01-1.38.03m-.77 1.65a7.4 7.4 0 0 0-3.62 1.69c-.77.71-1.14 1.4-1.2 2.22-.05.57-.02.7.26 1.28.83 1.69 3.15 2.9 5.81 3.03.97.05 1.08.03 1.5-.2.62-.32 1.22-1.11 2.04-2.63l.68-1.29-.61-1.22c-.76-1.5-1.37-2.35-1.98-2.73-.43-.28-.54-.3-1.32-.3-.48.01-1.18.08-1.56.15m.82.86c-1.1.16-1.38.43-1.61 1.61a7 7 0 0 0 .04 3.1c.32 1.04.68 1.28 2.24 1.48 1.03.13 1.32.06 1.4-.32.03-.17.06-.43.06-.6 0-.27-.01-.28-.53-.28q-1.1 0-1.53-.4c-.41-.4-.31-.45.84-.46 1.1-.01 1.77-.17 2.14-.5.31-.3.24-1.04-.2-1.98-.76-1.62-1.23-1.89-2.85-1.65m-2.42.57c-1.06.36-2 1.12-2.31 1.88-.29.7-.1 1.6.44 2.17.37.4.75.6 1.6.91l.75.27-.07-.53c-.15-1.21-.12-1.15-.73-1.22-.72-.08-1.1-.3-1.3-.7-.15-.32-.15-.37 0-.6q.36-.54 1.39-.63l.58-.06v-.53c0-.29.05-.65.1-.8s.1-.28.08-.3a2 2 0 0 0-.53.14m2.35.65c-.2.1-.26.21-.28.54-.05.74.06.83 1.04.83h.86l-.07-.53c-.1-.79-.26-.97-.83-.97-.26 0-.58.06-.72.13"/></svg>