<?xml version="1.0" encoding="UTF-8" standalone="no"?>
<svg
   viewBox="0 0 15.500376 3.1932099"
   width="15.500376pt"
   height="3.1932099pt"
   version="1.1"
   id="svg1"
   xmlns="http://www.w3.org/2000/svg"
   xmlns:svg="http://www.w3.org/2000/svg">
  <defs
     id="defs1" />
  <path
     d="M 2.5964839,0.08508855 C 2.183494,0.29411115 2.1711197,0.77934625 2.5728709,1.0139811 2.738785,1.1109121 2.8549388,1.1274727 3.121372,1.0920851 3.4519357,1.0482471 3.4593205,1.0423911 3.4593205,0.82298975 c 0,-0.2663677 -0.077235,-0.2861253 -0.2267175,-0.057942 -0.1538731,0.2349006 -0.4833059,0.2322396 -0.5733146,-0.004534 -0.1480189,-0.3892401 0.1339142,-0.7304485 0.4386011,-0.5308061 0.08901,0.058343 0.1618564,0.1353125 0.1618564,0.1710367 0,0.035724 0.044908,0.064996 0.09979,0.064996 0.065523,0 0.09979,-0.065527 0.09979,-0.1908612 0,-0.1689077 -0.028738,-0.1956509 -0.2494699,-0.2321067 -0.3487246,-0.057678 -0.4262268,-0.052289 -0.6133633,0.042376 m 1.2619855,0.014703 c 0,0.054883 0.029934,0.099787 0.066531,0.099787 0.036584,0 0.066531,0.153873 0.066531,0.3419401 0,0.2476072 -0.032126,0.3662873 -0.1164132,0.4302856 -0.1009234,0.076568 -0.063269,0.0883429 0.2827328,0.0883429 0.3459981,0 0.3836511,-0.011712 0.2827328,-0.0883429 -0.064063,-0.0486356 -0.1164133,-0.1524098 -0.1164133,-0.2307104 0,-0.1217402 0.038586,-0.1423632 0.266102,-0.1423632 0.2394909,0 0.2661007,0.016636 0.2661007,0.1663133 0,0.091478 -0.029934,0.1663133 -0.066531,0.1663133 -0.036584,0 -0.066531,0.029934 -0.066531,0.066518 0,0.036584 0.1496812,0.0665309 0.3326253,0.0665309 0.1829453,0 0.3326278,-0.029934 0.3326278,-0.0665309 0,-0.036584 -0.044908,-0.066518 -0.09979,-0.066518 -0.076366,0 -0.09979,-0.084225 -0.09979,-0.3587717 0,-0.2575187 0.028134,-0.3695473 0.09979,-0.3970888 C 5.4999351,0.09452905 5.3745941,6.3349628e-5 5.055944,6.3349628e-5 c -0.2513324,0 -0.3326252,0.02441500037 -0.3326252,0.09978700037 0,0.054883 0.029934,0.099787 0.066531,0.099787 0.036584,0 0.066531,0.059873 0.066531,0.1330506 0,0.1108974 -0.044367,0.1330506 -0.2661008,0.1330506 -0.2167409,0 -0.2661019,-0.023351 -0.2661019,-0.1259325 0,-0.069252 0.046835,-0.1438943 0.1039835,-0.1658477 C 4.615963,0.10191135 4.4553006,6.1249628e-5 4.1539445,6.1249628e-5 3.935676,6.1249628e-5 3.8585062,0.02613925 3.8585062,0.09984825 m 2.1620718,0.3658892 c -0.128993,0.2561223 -0.2640386,0.4656775 -0.3002282,0.4656775 -0.03613,0 -0.065662,0.029934 -0.065662,0.066518 0,0.036584 0.1257324,0.0665309 0.2794052,0.0665309 0.217339,0 0.261645,-0.017757 0.199576,-0.079829 -0.0439,-0.043901 -0.07983,-0.103782 -0.07983,-0.1330503 0,-0.077034 0.317193,-0.065523 0.36589,0.013299 0.02262,0.036584 0.0093,0.066531 -0.02933,0.066531 -0.03873,0 -0.07045,0.029935 -0.07045,0.066518 0,0.0365839 0.149681,0.066531 0.332626,0.066531 0.182944,0 0.332627,-0.029934 0.332627,-0.066531 0,-0.036584 -0.03912,-0.066518 -0.08695,-0.066518 -0.04783,0 -0.188267,-0.2095551 -0.312204,-0.4656776 C 6.462104,0.20961255 6.336966,5.7749628e-5 6.307894,5.7749628e-5 c -0.029,0 -0.15833,0.209554800372 -0.287324,0.465677300372 m 1.263716,-0.3986863 c -0.02282,0.036856 0.0054,0.084952 0.0626,0.1069065 0.15394,0.059074 0.144294,0.6789573 -0.01247,0.7979043 -0.101188,0.0767689 -0.06625,0.0886829 0.266101,0.090471 0.212083,0.0012 0.382521,-0.027542 0.382521,-0.064403 0,-0.036584 -0.04491,-0.066531 -0.09979,-0.066531 -0.06207,0 -0.09979,-0.062803 -0.09979,-0.1663133 0,-0.2682961 0.216273,-0.1865369 0.288519,0.1090336 C 8.121547,1.0768866 8.355907,1.1639673 8.592871,1.067706 8.743551,1.006565 8.744082,1.003505 8.611291,0.96365955 8.438724,0.91190055 8.311859,0.60123075 8.403799,0.45547365 c 0.09294,-0.147287 0.01196,-0.3128686 -0.19053,-0.3899048 -0.225121,-0.085552 -0.875872,-0.084553 -0.929026,0.00146 m 1.696662,0.032797 c 0,0.054883 0.04491,0.099788 0.09979,0.099788 0.07663,0 0.09979,0.085019 0.09979,0.3658893 0,0.2808702 -0.02315,0.3658894 -0.09979,0.3658894 -0.05488,0 -0.09979,0.029934 -0.09979,0.066531 0,0.0396439 0.254991,0.066531 0.631991,0.066531 h 0.63199 V 0.86483395 c 0,-0.2285145 -0.163519,-0.2782092 -0.218868,-0.066531 -0.02661,0.1019182 -0.09074,0.1330503 -0.273818,0.1330503 H 9.513124 v -0.3658892 c 0,-0.2012386 0.02993,-0.3658888 0.06653,-0.3658888 0.03658,0 0.06653,-0.044904 0.06653,-0.099787 C 9.646184,0.02441525 9.564894,2.4962768e-7 9.313557,2.4962768e-7 9.062226,2.4962768e-7 8.980931,0.02441525 8.980931,0.09978825 m 1.596608,0 c 0,0.054883 0.02993,0.099787 0.06653,0.099787 0.03658,0 0.06653,0.1646502 0.06653,0.3658888 0,0.2012398 -0.02993,0.3658894 -0.06653,0.3658894 -0.03658,0 -0.06653,0.029934 -0.06653,0.066531 0,0.0393799 0.241353,0.0665309 0.590944,0.0665309 0.550763,0 0.593539,-0.00982 0.628797,-0.14462615 0.02083,-0.079502 0.02255,-0.1693079 0.0039,-0.1995761 -0.05934,-0.095936 -0.142497,-0.059542 -0.178486,0.078104 -0.0276,0.1057089 -0.09074,0.1330504 -0.307083,0.1330504 -0.246142,0 -0.272354,-0.015968 -0.272354,-0.1663133 0,-0.1889977 0.0777,-0.2121494 0.223326,-0.066531 0.146953,0.1468879 0.175825,0.1250649 0.175825,-0.1330516 0,-0.22419 -0.0807,-0.3048851 -0.166312,-0.1663128 -0.07231,0.1170845 -0.232839,0.071183 -0.232839,-0.066526 0,-0.1079039 0.04437,-0.1330506 0.2349,-0.1330506 0.147488,0 0.249205,0.037188 0.27322,0.099787 0.06459,0.1683756 0.245412,0.1230059 0.199044,-0.049894 -0.02201,-0.082291 -0.04051,-0.1721009 -0.04098,-0.1995759 -5.52e-4,-0.027476 -0.25541,-0.049896000372 -0.566417,-0.049896000372 -0.458292,0 -0.565464,0.018894000372 -0.565464,0.099787000372 m 1.793523,0.022019 c -0.20702,0.1676454 -0.138567,0.4594254 0.120085,0.5116489 0.539123,0.1087691 0.68621,0.2480053 0.301427,0.2852603 -0.157531,0.015238 -0.235499,-0.015175 -0.298765,-0.1164133 -0.130789,-0.2094216 -0.253129,-0.1686417 -0.253129,0.084426 V 1.1082601 l 0.349259,0.00793 c 0.407466,0.00932 0.64862,-0.11768515 0.64862,-0.34160815 0,-0.084552 -0.02155,-0.1752936 -0.04789,-0.2016377 -0.02635,-0.026344 -0.03939,-0.1469552 -0.029,-0.2680312 0.01723,-0.1997755 -5.32e-4,-0.2239907 -0.19319,-0.262509 -0.329766,-0.0659259 -0.435208,-0.0519569 -0.597397,0.0793651 m 0.210352,0.071382 c -0.137773,0.087214 -0.03752,0.1880006 0.216541,0.2176043 0.245678,0.028739 0.266899,-0.090541 0.03798,-0.2130806 -0.144826,-0.077502 -0.13957,-0.077369 -0.254527,-0.00452 m -4.797938,0.139437 c 0,0.1095007 0.03446,0.1373749 0.149683,0.1210766 0.08236,-0.011712 0.149681,-0.066193 0.149681,-0.1210766 0,-0.054883 -0.06732,-0.1093672 -0.149681,-0.1210766 -0.115217,-0.016298 -0.149683,0.011573 -0.149683,0.1210766 m -1.620689,0.2328396 c -0.02308,0.060209 -3.38e-4,0.09979 0.05734,0.09979 0.05768,0 0.08043,-0.039581 0.05734,-0.09979 -0.02109,-0.054883 -0.04691,-0.099789 -0.05734,-0.099789 -0.01045,0 -0.03626,0.044904 -0.05734,0.099789 M 3.9915651,1.8866925 c 0,0.064654 0.054151,0.1090336 0.1330504,0.1090336 0.1212113,0 0.1330503,0.044366 0.1330503,0.49894 0,0.454568 -0.011838,0.498939 -0.1330503,0.498939 -0.07318,0 -0.1330504,0.02994 -0.1330504,0.06653 0,0.03752 0.1884663,0.06653 0.4324152,0.06653 0.2439477,0 0.4324127,-0.02902 0.4324127,-0.06653 0,-0.03658 -0.044908,-0.06653 -0.09979,-0.06653 -0.069717,0 -0.09979,-0.07025 -0.09979,-0.232837 0,-0.128061 0.027806,-0.232839 0.061796,-0.232839 0.1025102,0 0.2708245,0.201372 0.2708245,0.324045 0,0.187402 0.141566,0.274683 0.4457202,0.274683 0.2150081,0 0.2860574,-0.02582 0.2860574,-0.103984 0,-0.06965 -0.049429,-0.09706 -0.1496812,-0.08315 -0.1163504,0.01617 -0.1548043,-0.01624 -0.1726995,-0.145495 -0.012644,-0.09148 -0.050424,-0.199775 -0.08396,-0.240622 -0.038851,-0.04736 -0.024406,-0.104714 0.039644,-0.157864 C 5.4927543,2.2807911 5.4805136,2.1058905 5.3243783,1.9645247 5.2269811,1.8764466 5.0401821,1.8374612 4.5925994,1.8119823 4.0661179,1.7819849 3.9915437,1.7912284 3.9915437,1.8866862 M 1.8929175e-5,2.0955122 c 0,0.1625882 0.03007000082,0.2328389 0.09978700082,0.2328389 0.054887,0 0.099789,-0.043838 0.099789,-0.09746 0,-0.096931 0.19299,-0.2351676 0.3282354,-0.2351676 0.043901,0 0.070913,0.1901299 0.070913,0.4989416 0,0.454566 -0.011838,0.498939 -0.1330504,0.498939 -0.07318,0 -0.1330504,0.02993 -0.1330504,0.06653 0,0.03751 0.1884663,0.06653 0.432414,0.06653 0.24394767,0 0.43241397,-0.02902 0.43241397,-0.06653 0,-0.03658 -0.044908,-0.06653 -0.09979,-0.06653 -0.079968,0 -0.09979,-0.100583 -0.09979,-0.506057 0,-0.4341459 0.014961,-0.500338 0.10524297,-0.4656784 0.057879,0.022215 0.130655,0.040374 0.1617897,0.040374 0.031131,0 0.075636,0.059869 0.098858,0.1330517 0.053887,0.1698397 0.2328378,0.1740297 0.2328378,0.00542 0,-0.3232457 -0.036722,-0.3380807 -0.83868397,-0.3380807 H 2.9174804e-8 v 0.232833 M 1.9624965,1.9292015 c 0.022618,0.036584 0.081164,0.066531 0.1300569,0.066531 0.0489,0 0.1818144,0.1448252 0.2954395,0.3218496 0.2195342,0.342139 0.2742171,0.676029 0.1106329,0.676029 -0.052754,0 -0.1143605,0.02994 -0.1369757,0.06653 -0.025942,0.04197 0.1323854,0.06653 0.4284898,0.06653 0.268695,0 0.4696023,-0.02847 0.4696023,-0.06653 0,-0.03658 -0.059869,-0.06653 -0.1330504,-0.06653 -0.097725,0 -0.1330516,-0.04437 -0.1330516,-0.167111 0,-0.191326 0.392566,-0.8277741 0.5116465,-0.8295699 0.043573,-6.662e-4 0.097725,-0.031131 0.1203424,-0.067715 0.025338,-0.040979 -0.088015,-0.066531 -0.2954395,-0.066531 -0.1850737,0 -0.3365519,0.029935 -0.3365519,0.066531 0,0.036584 0.046973,0.066531 0.104311,0.066531 0.085748,0 0.078293,0.036521 -0.041646,0.2050304 L 2.9102796,2.4058081 2.7866125,2.2174086 C 2.7185579,2.1137651 2.692414,2.0190301 2.7284689,2.0068561 c 0.036055,-0.012216 0.065586,-0.04963 0.065586,-0.083154 0,-0.033599 -0.1963825,-0.061002 -0.4363393,-0.061002 -0.2739502,0 -0.4210384,0.024746 -0.395227,0.066531 m 3.8687124,0.051355 c 0.07883,0.063269 0.266235,0.361966 0.416516,0.66379 0.150281,0.301825 0.303356,0.548834 0.340078,0.548834 0.03679,0 0.117484,-0.106112 0.179286,-0.235766 l 0.112421,-0.235699 0.120947,0.235699 c 0.06653,0.129658 0.149881,0.235766 0.185207,0.235766 0.03532,0 0.199575,-0.269428 0.364958,-0.598728 0.176558,-0.3515192 0.341607,-0.5987273 0.399817,-0.5987273 0.05456,0 0.09912,-0.029934 0.09912,-0.066531 0,-0.041911 -0.437006,-0.065989 -1.180826,-0.065057 -1.1298649,0.00151 -1.1746369,0.00642 -1.037529,0.1164132 M 8.465337,1.955292 c 0.09074,0.068848 0.116413,0.1878668 0.116413,0.5393871 0,0.351521 -0.02568,0.470532 -0.116413,0.539386 -0.100521,0.0763 -0.05508,0.08868 0.332626,0.09047 0.256456,0.0012 0.449046,-0.02641 0.449046,-0.0644 0,-0.03658 -0.05987,-0.06653 -0.13305,-0.06653 -0.107711,0 -0.133052,-0.04437 -0.133052,-0.232839 v -0.23284 h 0.36589 0.365889 v 0.232837 c 0,0.162588 -0.03007,0.23284 -0.09979,0.23284 -0.05488,0 -0.09979,0.02993 -0.09979,0.06653 0,0.03699 0.177423,0.06653 0.399153,0.06653 0.221729,0 0.399152,-0.02953 0.399152,-0.06653 0,-0.03658 -0.04491,-0.06653 -0.09979,-0.06653 -0.07983,0 -0.09979,-0.09979 -0.09979,-0.498939 0,-0.3991534 0.01996,-0.4989408 0.09979,-0.4989408 0.05488,0 0.09979,-0.029934 0.09979,-0.066531 0,-0.036987 -0.177423,-0.066531 -0.399152,-0.066531 -0.22173,0 -0.399153,0.029532 -0.399153,0.066531 0,0.036584 0.04491,0.066531 0.09979,0.066531 0.06653,0 0.09979,0.066531 0.09979,0.1995749 0,0.1975819 -0.0038,0.1995769 -0.365889,0.1995769 -0.362163,0 -0.36589,-0.002 -0.36589,-0.1995769 0,-0.1293907 0.03373,-0.1995749 0.09586,-0.1995749 0.05275,0 0.114361,-0.029934 0.136976,-0.066531 0.02594,-0.041911 -0.126332,-0.065725 -0.411858,-0.064402 -0.39097,0.00176 -0.437005,0.014167 -0.336552,0.090471 m 2.245229,-0.026081 c 0,0.036584 0.04491,0.066531 0.09979,0.066531 0.07983,0 0.09979,0.09979 0.09979,0.4989408 0,0.399151 -0.01996,0.498939 -0.09979,0.498939 -0.05488,0 -0.09979,0.02994 -0.09979,0.06653 0,0.03699 0.177423,0.06653 0.399153,0.06653 0.221728,0 0.399151,-0.02953 0.399151,-0.06653 0,-0.03658 -0.04491,-0.06653 -0.09979,-0.06653 -0.07983,0 -0.09979,-0.09979 -0.09979,-0.498939 0,-0.3991533 0.01996,-0.4989408 0.09979,-0.4989408 0.05488,0 0.09979,-0.029935 0.09979,-0.066531 0,-0.036987 -0.177423,-0.066531 -0.399151,-0.066531 -0.22173,0 -0.399153,0.029532 -0.399153,0.066531 m 1.237837,0.038725 c -0.07059,0.183876 -0.04364,0.3604348 0.05495,0.3604348 0.05243,0 0.114285,-0.05987 0.137507,-0.1330524 0.02322,-0.07318 0.06773,-0.1330491 0.09886,-0.1330491 0.03113,0 0.103908,-0.01816 0.16179,-0.040374 0.09027,-0.034657 0.105242,0.031534 0.105242,0.4656775 0,0.405471 -0.01982,0.506057 -0.09979,0.506057 -0.05488,0 -0.09979,0.02993 -0.09979,0.06653 0,0.03751 0.188466,0.06653 0.432415,0.06653 0.243947,0 0.432414,-0.029 0.432414,-0.06653 0,-0.03658 -0.05987,-0.06653 -0.133051,-0.06653 -0.121211,0 -0.13305,-0.04437 -0.13305,-0.498939 0,-0.3088108 0.02701,-0.4989394 0.07091,-0.4989394 0.135246,0 0.328236,0.1382388 0.328236,0.2351663 0,0.053623 0.04491,0.09746 0.09979,0.09746 0.06972,0 0.09979,-0.070246 0.09979,-0.2328375 V 1.8627021 H 12.7467 c -0.629729,0 -0.764775,0.017769 -0.798304,0.1052429 m 2.020973,-0.022089 c -4.7e-4,0.045777 -0.01895,0.1505463 -0.04098,0.2328378 -0.05316,0.1983783 0.06074,0.1913273 0.268696,-0.016636 0.26131,-0.2613102 0.305417,-0.2132135 0.305417,0.3326283 0,0.399151 -0.01996,0.498938 -0.09979,0.498938 -0.05488,0 -0.09979,0.02993 -0.09979,0.06653 0,0.03752 0.188467,0.06653 0.432416,0.06653 0.243947,0 0.432414,-0.029 0.432414,-0.06653 0,-0.03658 -0.05987,-0.06653 -0.133051,-0.06653 -0.121211,0 -0.13305,-0.04437 -0.13305,-0.498938 0,-0.3088117 0.02701,-0.4989416 0.07091,-0.4989416 0.135246,0 0.328235,0.1382401 0.328235,0.2351676 0,0.05361 0.04491,0.09746 0.09979,0.09746 0.06972,0 0.09979,-0.070246 0.09979,-0.2328378 V 1.8626984 h -0.76504 c -0.567196,0 -0.765308,0.021497 -0.765974,0.083154 m -9.3126119,0.24947 c 0,0.2196667 0.098657,0.2547247 0.3007615,0.1069687 C 5.0650843,2.2236575 5.0708017,2.19366 4.9953673,2.1027144 4.9465428,2.0439033 4.8503419,1.9957462 4.7816866,1.9957462 c -0.094463,0 -0.124939,0.048699 -0.124939,0.1995762 M 6.389399,2.0456399 c 0.0086,0.1419652 0.315065,0.6262032 0.355245,0.5612082 0.05382,-0.08715 -0.197446,-0.6111019 -0.293043,-0.6111019 -0.03587,0 -0.06386,0.022479 -0.0622,0.049895 m 0.813671,0.1027116 c -0.04923,0.1080387 -0.0475,0.2054963 0.0059,0.3340903 l 0.07543,0.181547 0.186803,-0.334156 0.186736,-0.3340904 H 7.465217 c -0.136377,0 -0.213014,0.044568 -0.262242,0.1526091"
     style="fill:#ffffff;fill-rule:evenodd;stroke:none;stroke-width:0.0665253"
     id="path1-7" />
</svg>
