<?xml version="1.0" encoding="UTF-8" standalone="no"?>
<svg
   viewBox="0 0 24 24"
   width="24pt"
   height="24pt"
   version="1.1"
   id="svg1"
   xml:space="preserve"
   xmlns="http://www.w3.org/2000/svg"
   xmlns:svg="http://www.w3.org/2000/svg"><defs
     id="defs1" /><g
     id="g1"
     transform="matrix(0.03778579,0,0,0.03778579,-2.9368142,-3.3869568)"><path
       d="m 415.5,157.227 c -10.625,3.788 -19.125,14.837 -24.057,31.273 -2.316,7.715 -2.637,30.537 -0.535,38 10.068,35.745 41.24,27.282 55.253,-15 1.971,-5.948 2.317,-9.029 2.303,-20.5 -0.015,-11.924 -0.277,-14.029 -2.247,-18.031 -6.641,-13.487 -19.112,-19.878 -30.717,-15.742 m -77.009,23.579 c -5.071,2.379 -10.074,8.032 -11.431,12.917 -3.862,13.906 2.633,33.558 15.486,46.862 13.582,14.058 26.407,14.969 33.449,2.376 2.244,-4.013 2.492,-5.566 2.469,-15.461 -0.037,-15.628 -4.509,-28.011 -13.781,-38.156 -8.415,-9.208 -18.061,-12.352 -26.192,-8.538 m 166.425,6.716 c -34.239,8.314 -67.406,51.025 -59.686,76.862 1.646,5.511 8.152,11.877 14.266,13.96 18.294,6.233 48.177,-3.832 68.644,-23.121 20.271,-19.105 25.22,-43.354 11.934,-58.485 -8.241,-9.387 -20.845,-12.691 -35.158,-9.216 m -205.645,42.442 c -15.181,6.891 -8.337,29.567 11.729,38.864 18.732,8.679 30.464,-1.775 22.021,-19.622 -3.971,-8.394 -12.061,-16.329 -19.477,-19.104 -6.877,-2.573 -8.868,-2.592 -14.273,-0.138 M 380,263.597 c -13.408,2.415 -34.765,11.393 -43,18.075 -0.825,0.67 -3.918,3.008 -6.872,5.197 -19.919,14.755 -41.491,42.36 -55.196,70.631 -14.333,29.568 -21.221,54.352 -24.036,86.485 -3.527,40.262 7.717,76.846 31.186,101.464 10.353,10.861 27.988,21.517 40.918,24.726 17.376,4.312 31.059,4.821 48.075,1.789 36.606,-6.521 72.593,-27.584 100.581,-58.867 8.318,-9.298 20.336,-24.755 24.293,-31.246 5.347,-8.77 -0.153,-19.851 -9.852,-19.851 -5.572,0 -8.121,2.153 -15.335,12.955 -26.097,39.075 -60.197,64.241 -99.906,73.731 -8.726,2.085 -29.91,2.342 -36.856,0.446 C 277.352,533.673 259.801,465.019 291.784,384 c 18.529,-46.938 49.813,-83.886 80.979,-95.64 8.979,-3.387 22.529,-4.289 30.334,-2.02 16.198,4.709 24.598,19.657 25.655,45.66 0.593,14.561 -0.685,25.728 -4.746,41.478 -9.32,36.145 -29.594,68.478 -48.649,77.586 -4.893,2.339 -7.497,2.936 -12.8,2.936 -7.474,0 -11.061,-1.434 -14.847,-5.933 -6.301,-7.488 -7.906,-24.493 -3.746,-39.678 2.05,-7.482 8.194,-20.931 12.064,-26.409 0.98,-1.387 2.57,-4.932 3.534,-7.88 1.685,-5.152 1.682,-5.492 -0.096,-8.793 -1.609,-2.987 -4.342,-4.547 -7.966,-4.547 -7.809,0 -18.099,11.528 -25.806,28.911 -6.437,14.52 -9.457,37.601 -6.745,51.549 1.436,7.385 5.726,16.801 9.988,21.922 8.566,10.294 24.836,16.207 38.188,13.88 29.743,-5.183 56.711,-32.874 73.75,-75.729 13.426,-33.764 16.894,-73.187 8.605,-97.793 -6.27,-18.611 -19.441,-32.221 -36.408,-37.621 -6.415,-2.042 -26.655,-3.439 -33.072,-2.282 m 24,54.498 c -6.828,2.763 -14,14.145 -14,22.22 0,3.929 2.317,7.475 5.733,8.773 5.967,2.269 15.671,-6.448 18.381,-16.51 1.265,-4.699 0.621,-11.285 -1.287,-13.15 -1.932,-1.887 -5.955,-2.495 -8.827,-1.333 m 58.659,22.155 c -0.359,7.837 -1.357,18.3 -2.217,23.25 -0.86,4.95 -1.822,10.698 -2.138,12.773 l -0.574,3.773 5.385,-3.63 c 8.447,-5.693 16.42,-9.464 29.293,-13.855 6.55,-2.233 12.354,-4.779 12.898,-5.656 3.997,-6.449 -14.197,-22.632 -32.328,-28.755 -10.217,-3.45 -9.572,-4.205 -10.319,12.1"
       stroke="none"
       fill="#e11837"
       fill-rule="evenodd"
       id="path1-0" /></g></svg>
