<?xml version="1.0" encoding="UTF-8" standalone="no"?>
<svg
   viewBox="0 0 24 24"
   width="24pt"
   height="24pt"
   version="1.1"
   id="svg1"
   xml:space="preserve"
   xmlns="http://www.w3.org/2000/svg"
   xmlns:svg="http://www.w3.org/2000/svg"><defs
     id="defs1" /><g
     id="g1"
     transform="matrix(0.00614557,0,0,0.00614557,4.0968602,4.0791504)"><path
       d="m 163.002,649.75 c 0.002,32.488 2.791,78.832 7.056,117.25 17.816,160.492 68.716,316.438 149.174,457.039 l 10.036,17.539 128.116,46.461 128.116,46.461 868.617,0.252 868.618,0.251 8.768,-12.251 c 100.023,-139.766 170.751,-307.991 200.916,-477.874 11.58,-65.211 18.57,-140.133 18.579,-199.128 L 2551,631 H 1357 163 l 0.002,18.75 M 1449,712.04 c -128.15,7.646 -235.012,101.205 -255.943,224.083 -11.072,65 3.014,136.097 38.142,192.521 58.451,93.887 168.463,142.932 278.801,124.293 45.124,-7.622 84.247,-24.344 120.5,-51.504 61.617,-46.161 100.133,-113.433 107.576,-187.891 1.51,-15.113 0.656,-50.207 -1.572,-64.542 -8.099,-52.111 -28.35,-97.741 -61.024,-137.5 -9.924,-12.076 -30.833,-32.556 -42.48,-41.61 -53.429,-41.53 -117.884,-61.795 -184,-57.85 m 411.191,2.985 c -17.811,4.666 -32.366,17.465 -39.663,34.88 -5.853,13.968 -5.583,2.493 -5.542,235.706 0.037,208.348 0.091,214.37 1.971,221.722 5.05,19.745 16.417,34.002 33.103,41.522 8.521,3.841 15.137,5.145 26.095,5.145 27.639,0 48.457,-16.077 56.996,-44.016 2.285,-7.478 2.287,-7.553 2.818,-91.473 l 0.531,-83.99 22.5,20.946 c 12.375,11.52 60.26,56.29 106.411,99.489 46.152,43.199 86.854,80.898 90.45,83.775 13.478,10.783 25.444,15.279 40.599,15.254 15.344,-0.025 28.041,-4.352 39.078,-13.317 14.163,-11.503 21.426,-26.749 21.45,-45.024 0.021,-15.319 -3.74,-25.303 -14.649,-38.888 -3.063,-3.815 -46.493,-44.422 -99.997,-93.499 l -94.582,-86.755 9.438,-9.001 c 28.821,-27.485 153.927,-150.008 157.381,-154.131 10.794,-12.887 15.012,-21.713 16.731,-35.003 2.821,-21.816 -8.633,-44.615 -28.432,-56.597 -10.007,-6.056 -18.38,-8.258 -31.378,-8.253 -15.071,0.006 -24.067,3.139 -37.515,13.065 -3.567,2.633 -49.554,47.757 -102.194,100.276 l -95.71,95.488 -0.314,-77.923 c -0.31,-76.746 -0.348,-78.041 -2.513,-85.723 -3.253,-11.544 -8.7,-21.168 -16.244,-28.7 -14.601,-14.578 -36.402,-20.324 -56.819,-14.975 m -1356.546,0.559 c -15.452,3.741 -32.009,17.087 -38.971,31.416 -7.334,15.094 -8.505,27.93 -4.179,45.789 1.371,5.659 9.668,31.984 18.436,58.5 8.769,26.516 39.194,118.861 67.612,205.211 28.417,86.35 52.919,159.762 54.448,163.137 10.662,23.531 27.693,34.774 52.509,34.663 24.229,-0.108 44.454,-12.157 54.361,-32.386 3.231,-6.597 61.709,-174.099 94.842,-271.664 3.035,-8.937 5.825,-16.25 6.199,-16.25 0.837,0 5.041,11.546 50.613,139 51.243,143.313 53.181,148.626 55.942,153.337 6.621,11.297 18.984,20.797 32.828,25.226 10.38,3.321 24.929,3.757 34.215,1.025 17.216,-5.065 30.805,-17.921 38.599,-36.517 2.235,-5.335 111.187,-343.292 131.232,-407.071 6.336,-20.16 7.83,-27.412 7.818,-37.943 -0.019,-15.9 -4.605,-26.574 -16.606,-38.651 -12.762,-12.841 -26.431,-18.35 -45.633,-18.389 -16.44,-0.033 -29.745,5.071 -39.566,15.177 -12.407,12.769 -16.378,22.154 -31.769,75.094 -12.841,44.164 -54.644,188.838 -59.873,207.212 -2.155,7.57 -3.905,12 -4.74,12 -1.403,0 -6.195,-13.358 -43.586,-121.5 -46.795,-135.343 -53.588,-154.619 -56.15,-159.327 -7.164,-13.162 -21.073,-23.12 -37.991,-27.199 -8.585,-2.07 -26.644,-1.588 -34.509,0.922 -9.931,3.168 -20.741,9.786 -27.399,16.774 -9.795,10.28 -8.221,6.062 -57.488,154.108 -25.4,76.329 -46.491,138.429 -46.868,138 -0.805,-0.914 -15.459,-47.95 -53.363,-171.278 -15.129,-49.225 -28.891,-92.852 -30.583,-96.95 -12.218,-29.588 -29.981,-43.22 -55.985,-42.967 -4.697,0.046 -11.175,0.721 -14.395,1.501 M 1447.5,832.632 c -47.646,7.068 -87.355,32.25 -112.946,71.628 -14.488,22.294 -22.106,46.473 -23.264,73.839 -2.873,67.932 39.092,128.974 103.21,150.127 47.577,15.696 95.633,9.401 136.957,-17.94 12.716,-8.413 31.673,-27.174 40.203,-39.786 30.869,-45.644 34.494,-102.046 9.831,-153 -20.592,-42.543 -57.221,-71.837 -103.361,-82.665 -6.744,-1.582 -12.891,-2.093 -28.13,-2.336 -10.725,-0.172 -20.85,-0.111 -22.5,0.133 M 442.105,1399.75 c 9.083,11.775 38.135,43.483 62.865,68.61 262.53,266.754 637.936,394.89 1011.03,345.094 23.021,-3.073 56.077,-8.425 57.761,-9.352 0.929,-0.511 -772.948,-307.757 -991.803,-393.767 l -23.542,-9.252 -50.353,-1.541 c -27.693,-0.848 -54.167,-1.542 -58.83,-1.542 -7.922,0 -8.389,0.115 -7.128,1.75 m 349.085,8.774 c 0.288,0.287 216.701,78.83 480.917,174.538 l 480.393,174.014 17,-6.207 c 68.825,-25.128 141.656,-59.896 204.003,-97.386 84.675,-50.915 157.903,-108 226.985,-176.943 l 26.012,-25.961 -4,-0.276 c -2.2,-0.152 -35.05,-1.182 -73,-2.288 -146.304,-4.264 -649.425,-19.067 -696.5,-20.492 -100.435,-3.04 -153.536,-4.625 -285,-8.506 -73.975,-2.184 -149.8,-4.446 -168.5,-5.027 -76.959,-2.393 -199.331,-5.987 -203.917,-5.988 -2.704,-10e-4 -4.681,0.234 -4.393,0.522"
       stroke="none"
       fill="#000000"
       fill-rule="evenodd"
       id="path1-8" /><path
       d="m 38.627,1143.468 c -15.349,5.471 -22.093,23.275 -14.542,38.386 1.697,3.396 4.589,7.321 6.428,8.724 1.841,1.404 65.683,27.239 142.165,57.53 76.352,30.239 156.597,62.048 178.322,70.686 l 39.5,15.706 -103.5,0.5 -103.5,0.5 -4,2.162 c -8.614,4.657 -14.447,13.807 -15.26,23.94 -0.411,5.112 -0.074,7.076 1.976,11.53 3.834,8.33 11.292,14.609 19.284,16.234 3.526,0.717 147.881,5.112 285,8.676 23.65,0.614 53.35,1.475 66,1.913 l 23,0.795 508,201.235 c 279.4,110.679 642.325,254.441 806.5,319.472 164.175,65.031 300.75,119.01 303.5,119.952 7.413,2.541 21.483,3.113 30.309,1.232 21.426,-4.567 39.061,-20.355 45.868,-41.063 3.362,-10.228 3.773,-25.595 0.937,-35.078 -4.899,-16.387 -16.818,-31.085 -30.66,-37.811 -5.956,-2.894 -470.477,-171.689 -472.485,-171.689 -0.304,0 -206.297,-74.516 -457.761,-165.592 C 1042.244,1500.332 827.05,1422.429 815.5,1418.29 c -20.091,-7.201 -27.09,-10.059 -26.343,-10.758 0.189,-0.177 28.243,0.515 62.343,1.537 34.1,1.022 85.175,2.553 113.5,3.402 28.325,0.85 74,2.212 101.5,3.029 27.5,0.816 80.15,2.382 117,3.48 36.85,1.098 97.6,2.908 135,4.022 37.4,1.114 90.275,2.693 117.5,3.511 59.004,1.771 199.112,5.893 271,7.973 28.325,0.819 66.125,1.952 84,2.516 17.875,0.564 94.375,2.831 170,5.038 130.136,3.797 204.82,6.077 309,9.435 134.577,4.337 219.226,6.642 225.037,6.128 7.48,-0.661 18.174,-4.099 25.463,-8.187 7.039,-3.948 17.51,-14.744 21.74,-22.416 5.621,-10.196 7.91,-18.914 7.877,-30 -0.054,-17.771 -5.144,-30.1 -17.574,-42.566 -8.87,-8.895 -14.327,-12.344 -25.485,-16.104 l -7.442,-2.508 -956.558,-0.196 c -700.656,-0.142 -957.361,-0.493 -959.558,-1.31 -1.65,-0.613 -58.8,-21.389 -127,-46.168 -68.2,-24.779 -184.75,-67.152 -259,-94.162 -74.25,-27.011 -137.25,-49.752 -140,-50.536 -6.26,-1.786 -13.832,-1.778 -18.873,0.018"
       stroke="none"
       fill="#009947"
       fill-rule="evenodd"
       id="path2" /><path
       d="M 413.146,7.004 C 361.752,11.318 315.513,28.824 274.488,59.5 184.03,127.14 144.023,238.636 171.504,346.506 c 9.249,36.307 27.955,73.305 52.327,103.494 9.53,11.806 28.936,31.283 40.181,40.328 40.055,32.222 84.727,51.78 137.488,60.193 13.806,2.201 49.035,3.055 64.042,1.553 79.723,-7.984 164.093,-56.163 188.569,-107.682 5.224,-10.996 7.23,-19.967 6.572,-29.392 -2.078,-29.76 -26.058,-52.702 -57.183,-54.707 -20.087,-1.294 -32.791,4.713 -59.5,28.136 -32.631,28.617 -57.13,39.849 -92.718,42.505 -70.494,5.261 -135.209,-37.384 -157.235,-103.614 -18.8,-56.528 -3.626,-116.098 40.24,-157.975 20.39,-19.465 44.827,-32.227 73.713,-38.494 14.863,-3.224 43.635,-3.232 58.688,-0.015 28.053,5.994 48.401,16.873 76.691,41.002 25.202,21.495 35.391,26.04 55.896,24.935 C 630.187,195.107 654.26,171.748 655.722,142 657.114,113.663 644.704,94.063 607.698,66.149 562.512,32.065 521.533,14.715 471.449,8.464 456.519,6.6 426.82,5.857 413.146,7.004 M 793,10.007 c -11.704,1.461 -23.534,6.619 -32.203,14.041 -6.595,5.648 -14.216,17.498 -17.515,27.237 L 740.5,59.5 740.239,277.487 c -0.254,212.205 -0.21,218.189 1.661,225.589 7.084,28.012 28.146,45.9 56.051,47.601 29.644,1.808 53.837,-16.256 62.331,-46.541 2.096,-7.474 2.149,-9.394 2.483,-90.386 L 863.106,331 h 63.784 c 35.081,0 79.365,0.298 98.409,0.661 l 34.625,0.661 0.316,82.589 c 0.352,92.406 -0.105,86.363 7.801,102.967 14.002,29.404 51.295,41.619 81.459,26.682 13.973,-6.92 23.803,-18.71 29.71,-35.635 l 3.29,-9.425 0.278,-216 c 0.25,-195.173 0.122,-216.771 -1.331,-224 C 1175.225,28.544 1152.815,9.786 1122,9.739 1090.298,9.691 1067.724,29.103 1061.414,61.838 1060.273,67.759 1060,83.64 1060,144.088 V 219 h -98.454 -98.455 l -0.325,-77.75 C 862.448,65.291 862.391,63.324 860.295,55.882 856.649,42.937 852.376,35.328 844.027,26.914 830.711,13.493 812.748,7.542 793,10.007 m 561,-0.318 c -27.184,3.338 -46.195,20.203 -53.068,47.077 -1.88,7.35 -1.932,13.348 -1.932,221.936 0,241.037 -0.604,222.249 7.685,239.125 6.05,12.319 13.992,20.438 25.579,26.15 33.393,16.459 71.613,2.155 84.299,-31.548 5.657,-15.03 5.439,-5.657 5.417,-232.31 C 1421.968,146.905 1421.6,68.97 1420.963,64.5 1416.408,32.52 1395.178,11.752 1365,9.756 c -4.125,-0.273 -9.075,-0.303 -11,-0.067 m 225.531,0.391 c -24.696,3.737 -43.43,20.566 -49.556,44.516 -1.937,7.575 -1.975,11.892 -1.975,223.617 0,242.175 -0.626,222.376 7.575,239.472 17.257,35.972 66.569,44.603 95.463,16.708 7.921,-7.647 13.753,-17.835 17.234,-30.106 l 2.209,-7.787 0.509,-128.445 0.51,-128.445 72.968,93.445 c 40.132,51.395 89.62,114.82 109.973,140.945 41.902,53.784 51.604,64.525 63.559,70.363 18.632,9.099 38.922,8.746 58.933,-1.025 17.05,-8.326 27.353,-21.117 31.688,-39.338 1.676,-7.048 1.804,-20.069 2.122,-216 0.221,-136.915 -0.013,-212.01 -0.683,-218.724 -1.321,-13.24 -5.159,-24.761 -11.315,-33.965 -6.148,-9.193 -12.171,-14.406 -22.245,-19.255 -10.489,-5.049 -16.866,-6.443 -29,-6.336 -28.46,0.251 -49.578,17.109 -57.803,46.144 -2.155,7.605 -2.166,8.169 -2.68,137.347 l -0.517,129.711 -28.497,-35.711 C 1674.287,82.048 1634.576,32.765 1627.928,26.499 1613.598,12.994 1597.15,7.413 1579.531,10.08 m 707.229,2.934 c -14.456,1.756 -26.141,7.385 -36.3,17.486 -4.066,4.044 -8.382,9.568 -10.218,13.08 -7.145,13.669 -185.699,412.723 -189.009,422.42 -3.177,9.309 -3.632,11.918 -4.012,23 -0.509,14.885 1.169,21.293 8.442,32.241 12.146,18.282 38.198,29.18 63.947,26.75 18.762,-1.771 33.932,-15.796 48.122,-44.491 2.72,-5.5 8.696,-18.663 13.28,-29.25 l 8.335,-19.25 h 106.814 106.814 l 3.534,7.018 c 1.944,3.859 6.215,13.076 9.491,20.482 12.186,27.545 19.827,40.265 31.045,51.685 11.283,11.487 22.394,15.395 41.428,14.574 9.052,-0.391 12.479,-1.017 19.135,-3.496 19.174,-7.141 33.105,-20.406 39.015,-37.15 1.877,-5.317 2.339,-8.698 2.356,-17.254 0.026,-13.102 -2.72,-24.572 -9.822,-41.02 C 2534.765,439.665 2361.958,66.234 2353.205,48 2348.149,37.468 2335.509,24.77 2325,19.664 c -12.353,-6.001 -25.194,-8.234 -38.24,-6.65 m -21.855,261.307 -30.594,74.179 62.503,0.258 c 34.377,0.141 62.671,0.09 62.875,-0.114 0.308,-0.308 -61.51,-143.638 -63.54,-147.323 -0.357,-0.648 -14.417,32.202 -31.244,73"
       stroke="none"
       fill="#e40414"
       fill-rule="evenodd"
       id="path3" /><path
       d="m 1151.332,1335.75 c 214.958,0.139 566.408,0.139 781,0 214.593,-0.139 38.718,-0.253 -390.832,-0.253 -429.55,0 -605.125,0.114 -390.168,0.253"
       stroke="none"
       fill="#040404"
       fill-rule="evenodd"
       id="path4" /></g></svg>
