<?xml version="1.0" encoding="UTF-8" standalone="no"?>
<svg
   viewBox="0 0 24 24"
   width="24pt"
   height="24pt"
   version="1.1"
   id="svg1"
   sodipodi:docname="pink_master_pin.svg"
   xml:space="preserve"
   xmlns:inkscape="http://www.inkscape.org/namespaces/inkscape"
   xmlns:sodipodi="http://sodipodi.sourceforge.net/DTD/sodipodi-0.dtd"
   xmlns="http://www.w3.org/2000/svg"
   xmlns:svg="http://www.w3.org/2000/svg"><defs
     id="defs1" /><sodipodi:namedview
     id="namedview1"
     pagecolor="#ffffff"
     bordercolor="#000000"
     borderopacity="0.25"
     inkscape:showpageshadow="2"
     inkscape:pageopacity="0.0"
     inkscape:pagecheckerboard="0"
     inkscape:deskcolor="#d1d1d1"
     inkscape:document-units="pt"
     inkscape:lockguides="true"><inkscape:page
       x="0"
       y="0"
       width="24"
       height="24"
       id="page2"
       margin="0"
       bleed="0" /></sodipodi:namedview><g
     id="g1"
     transform="matrix(0.02091593,0,0,0.01969052,-0.56975786,-1.7265433)"><path
       d="M 0,0 C 0.8508316,6.0425e-4 1.7016632,0.0012085 2.5782776,0.00183105 91.878723,0.1729147 179.3436,29.647982 250.125,84.1875 c 0.55929,0.427808 1.11858,0.855615 1.69482,1.296387 7.14213,5.47136 14.02621,11.080138 20.60987,17.219243 2.08055,1.91772 4.18569,3.76801 6.33203,5.60937 4.81836,4.20277 9.35234,8.67799 13.87182,13.19824 1.41814,1.41596 2.84443,2.82374 4.27076,4.23145 5.44007,5.42873 10.48962,11.00518 15.26855,17.02563 1.84477,2.28659 3.76745,4.45363 5.76465,6.60718 17.54278,19.64516 31.60802,42.78183 44.1875,65.8125 0.45681,0.81936 0.91362,1.63872 1.38428,2.48291 32.38706,58.17273 47.89104,126.10969 47.80322,192.39209 -9.1e-4,1.27625 -9.1e-4,1.27625 -0.002,2.57828 -0.1711,89.30969 -29.65708,176.7795 -84.18567,247.54672 -0.42781,0.55929 -0.85562,1.11858 -1.29639,1.69482 -5.47136,7.14213 -11.08014,14.02621 -17.21924,20.60987 -1.91772,2.08055 -3.76801,4.18569 -5.60937,6.33203 -4.20277,4.81836 -8.67799,9.35234 -13.19824,13.87182 -1.41596,1.41814 -2.82374,2.84443 -4.23145,4.27076 -5.42873,5.44007 -11.00518,10.48962 -17.02563,15.26855 -2.28659,1.84477 -4.45363,3.76745 -6.60718,5.76465 -19.64516,17.54278 -42.78183,31.60802 -65.8125,44.1875 -0.81936,0.45681 -1.63872,0.91362 -2.48291,1.38428 C 135.46936,805.95884 67.532403,821.46282 1.25,821.375 c -1.27624741,-9.1e-4 -1.27624741,-9.1e-4 -2.5782776,-0.002 C -90.628723,821.20209 -178.0936,791.72702 -248.875,737.1875 c -0.55929,-0.42781 -1.11858,-0.85562 -1.69482,-1.29639 -7.14213,-5.47136 -14.02621,-11.08014 -20.60987,-17.21924 -2.08055,-1.91772 -4.18569,-3.76801 -6.33203,-5.60937 -4.81836,-4.20277 -9.35234,-8.67799 -13.87182,-13.19824 -1.41814,-1.41596 -2.84443,-2.82374 -4.27076,-4.23145 -5.44007,-5.42873 -10.48962,-11.00518 -15.26855,-17.02563 -1.84477,-2.28659 -3.76745,-4.45363 -5.76465,-6.60718 -17.54278,-19.64516 -31.60802,-42.78183 -44.1875,-65.8125 -0.68522,-1.22904 -0.68522,-1.22904 -1.38428,-2.48291 -32.38706,-58.17273 -47.89104,-126.10969 -47.80322,-192.39209 6e-4,-0.85083 10e-4,-1.70166 0.002,-2.57828 0.17108,-89.30044 29.64615,-176.76532 84.18567,-247.54672 0.42781,-0.55929 0.85562,-1.11858 1.29639,-1.69482 5.47136,-7.14213 11.08014,-14.02621 17.21924,-20.60987 1.91772,-2.08055 3.76801,-4.18569 5.60937,-6.33203 4.20277,-4.81836 8.67799,-9.35234 13.19824,-13.87182 1.41596,-1.41814 2.82374,-2.84443 4.23145,-4.27076 5.42873,-5.44007 11.00518,-10.48962 17.02563,-15.268552 2.28659,-1.844772 4.45363,-3.767452 6.60718,-5.764648 19.64516,-17.542781 42.78183,-31.608021 65.8125,-44.1875 0.81936,-0.456812 1.63872,-0.913623 2.48291,-1.384277 C -134.21936,15.416157 -66.282403,-0.08781603 0,0 Z"
       fill="#0f4091"
       transform="translate(598.875,188.8125)"
       id="path1-0" /><path
       d="M 0,0 C 39.234499,34.547408 64.506334,82.507859 68,135 70.928034,190.75168 52.887244,242.47284 15.659668,283.87988 -0.27927522,301.35542 -18.852502,315.4037 -40,326 c -0.757969,0.38495 -1.515937,0.76989 -2.296875,1.1665 C -89.552607,350.8241 -144.12899,353.32057 -194,337 c -7.18617,-2.59484 -14.12387,-5.67776 -21,-9 -1.13405,-0.54527 -1.13405,-0.54527 -2.29102,-1.10156 C -255.38996,308.30054 -287.03684,276.8456 -306,239 c -0.38495,-0.75797 -0.76989,-1.51594 -1.1665,-2.29688 C -330.8241,189.44739 -333.32057,134.87101 -317,85 c 2.59484,-7.186169 5.67776,-14.123868 9,-21 0.36352,-0.756035 0.72703,-1.51207 1.10156,-2.291016 22.80252,-46.712349 64.28452,-82.387432 113.07105,-99.753906 C -127.68219,-60.388419 -52.573551,-45.982919 0,0 Z"
       fill="#112f6d"
       transform="translate(729,450)"
       id="path2" /><path
       d="M 0,0 C 0.8508316,6.0425e-4 1.7016632,0.0012085 2.5782776,0.00183105 91.878723,0.1729147 179.3436,29.647982 250.125,84.1875 c 0.55929,0.427808 1.11858,0.855615 1.69482,1.296387 7.14213,5.47136 14.02621,11.080138 20.60987,17.219243 2.08055,1.91772 4.18569,3.76801 6.33203,5.60937 4.81836,4.20277 9.35234,8.67799 13.87182,13.19824 1.41814,1.41596 2.84443,2.82374 4.27076,4.23145 5.44007,5.42873 10.48962,11.00518 15.26855,17.02563 1.84477,2.28659 3.76745,4.45363 5.76465,6.60718 17.54278,19.64516 31.60802,42.78183 44.1875,65.8125 0.45681,0.81936 0.91362,1.63872 1.38428,2.48291 32.38706,58.17273 47.89104,126.10969 47.80322,192.39209 -9.1e-4,1.27625 -9.1e-4,1.27625 -0.002,2.57828 -0.1711,89.30969 -29.65708,176.7795 -84.18567,247.54672 -0.42781,0.55929 -0.85562,1.11858 -1.29639,1.69482 -5.47136,7.14213 -11.08014,14.02621 -17.21924,20.60987 -1.91772,2.08055 -3.76801,4.18569 -5.60937,6.33203 -4.20277,4.81836 -8.67799,9.35234 -13.19824,13.87182 -1.41596,1.41814 -2.82374,2.84443 -4.23145,4.27076 -5.42873,5.44007 -11.00518,10.48962 -17.02563,15.26855 -2.28659,1.84477 -4.45363,3.76745 -6.60718,5.76465 -19.64516,17.54278 -42.78183,31.60802 -65.8125,44.1875 -0.81936,0.45681 -1.63872,0.91362 -2.48291,1.38428 C 135.46936,805.95884 67.532403,821.46282 1.25,821.375 c -1.27624741,-9.1e-4 -1.27624741,-9.1e-4 -2.5782776,-0.002 C -90.628723,821.20209 -178.0936,791.72702 -248.875,737.1875 c -0.55929,-0.42781 -1.11858,-0.85562 -1.69482,-1.29639 -7.14213,-5.47136 -14.02621,-11.08014 -20.60987,-17.21924 -2.08055,-1.91772 -4.18569,-3.76801 -6.33203,-5.60937 -4.81836,-4.20277 -9.35234,-8.67799 -13.87182,-13.19824 -1.41814,-1.41596 -2.84443,-2.82374 -4.27076,-4.23145 -5.44007,-5.42873 -10.48962,-11.00518 -15.26855,-17.02563 -1.84477,-2.28659 -3.76745,-4.45363 -5.76465,-6.60718 -17.54278,-19.64516 -31.60802,-42.78183 -44.1875,-65.8125 -0.68522,-1.22904 -0.68522,-1.22904 -1.38428,-2.48291 -32.38706,-58.17273 -47.89104,-126.10969 -47.80322,-192.39209 6e-4,-0.85083 10e-4,-1.70166 0.002,-2.57828 0.17108,-89.30044 29.64615,-176.76532 84.18567,-247.54672 0.42781,-0.55929 0.85562,-1.11858 1.29639,-1.69482 5.47136,-7.14213 11.08014,-14.02621 17.21924,-20.60987 1.91772,-2.08055 3.76801,-4.18569 5.60937,-6.33203 4.20277,-4.81836 8.67799,-9.35234 13.19824,-13.87182 1.41596,-1.41814 2.82374,-2.84443 4.23145,-4.27076 5.42873,-5.44007 11.00518,-10.48962 17.02563,-15.268552 2.28659,-1.844772 4.45363,-3.767452 6.60718,-5.764648 19.64516,-17.542781 42.78183,-31.608021 65.8125,-44.1875 0.81936,-0.456812 1.63872,-0.913623 2.48291,-1.384277 C -134.21936,15.416157 -66.282403,-0.08781603 0,0 Z m -87.875,26.1875 c -0.774082,0.164678 -1.548164,0.329355 -2.345703,0.499023 -41.952857,8.930559 -82.450517,26.621688 -118.654297,49.500977 -0.61311,0.387363 -1.22622,0.774727 -1.85791,1.173828 -3.43896,2.194954 -6.80235,4.483651 -10.14209,6.826172 -0.53464,0.371572 -1.06928,0.743145 -1.62012,1.125977 -26.27853,18.291773 -51.5429,39.502563 -72.37988,63.874023 -0.84949,0.96035 -1.69898,1.9207 -2.57422,2.91016 -16.56957,18.8315 -30.86986,39.40282 -43.42578,61.08984 -0.39155,0.67337 -0.78311,1.34675 -1.18652,2.04053 -12.02622,20.80118 -21.58832,42.40033 -29.81348,64.95947 -0.29213,0.78053 -0.58427,1.56105 -0.88525,2.36523 -9.21815,24.71078 -14.42586,51.59983 -18.11475,77.63477 -0.18691,1.25547 -0.37383,2.51093 -0.56641,3.80444 -1.81771,13.26646 -1.73738,26.55633 -1.69433,39.92481 0.0107,3.93351 7e-5,7.86655 -0.0127,11.80005 -0.0113,19.17295 0.54119,38.33622 4.14844,57.2207 0.17217,0.94134 0.34434,1.88268 0.52173,2.85254 0.51924,2.80232 1.05707,5.60028 1.60327,8.39746 0.16258,0.84047 0.32517,1.68094 0.49268,2.54687 5.84469,29.87157 15.10223,58.65151 27.50732,86.45313 0.42507,0.95326 0.85014,1.90652 1.28809,2.88867 8.83615,19.58713 19.30051,38.54755 31.71191,56.11133 0.77217,1.10935 1.54431,2.21872 2.31641,3.32812 17.02742,24.29696 36.69245,48.24765 59.26562,67.58985 1.86984,1.61006 3.71612,3.23766 5.55469,4.88281 19.03167,16.91939 39.84667,31.45248 61.86328,44.19922 0.67337,0.39155 1.34675,0.78311 2.04053,1.18652 20.80118,12.02622 42.40033,21.58832 64.95947,29.81348 1.17079,0.4382 1.17079,0.4382 2.36523,0.88525 24.71078,9.21815 51.599832,14.42586 77.63477,18.11475 1.255466,0.18691 2.510933,0.37383 3.804443,0.56641 13.266455,1.81771 26.556322,1.73738 39.9248051,1.69433 3.9335081,-0.0107 7.8665548,-7e-5 11.8000488,0.0127 19.1729571,0.0113 38.3362221,-0.54119 57.2207031,-4.14844 1.412007,-0.25826 1.412007,-0.25826 2.852539,-0.52173 2.802321,-0.51924 5.600282,-1.05707 8.397461,-1.60327 1.260703,-0.24387 1.260703,-0.24387 2.546875,-0.49268 29.871565,-5.84469 58.651505,-15.10223 86.453125,-27.50732 0.95326,-0.42507 1.90652,-0.85014 2.88867,-1.28809 19.58713,-8.83615 38.54755,-19.30051 56.11133,-31.71191 1.10935,-0.77217 2.21872,-1.54431 3.32812,-2.31641 24.29696,-17.02742 48.24765,-36.69245 67.58985,-59.26562 1.61006,-1.86984 3.23766,-3.71612 4.88281,-5.55469 34.80496,-39.15013 60.04487,-85.5455 77.19922,-134.86328 0.30277,-0.86963 0.60554,-1.73927 0.91748,-2.63525 6.49999,-18.9484 11.04052,-38.52562 13.79883,-58.35743 0.41047,-2.90439 0.88181,-5.79862 1.34619,-8.69482 0.14389,-0.97493 0.28778,-1.94987 0.43604,-2.95435 0.31732,-2.12503 0.65401,-4.24733 1.01733,-6.36499 2.02962,-13.34759 1.85884,-26.79921 1.85474,-40.26831 -1.7e-4,-2.83164 0.0135,-5.66263 0.041,-8.49414 0.83228,-87.05872 -30.15653,-173.29786 -84.41162,-241.23071 -1.10408,-1.39412 -1.10408,-1.39412 -2.23047,-2.81641 -4.80302,-5.97615 -9.86379,-11.65905 -15.07812,-17.27343 -2.45145,-2.65069 -4.85769,-5.33465 -7.25391,-8.03516 -6.30724,-7.0168 -12.90791,-13.73793 -20.08984,-19.86328 -1.84613,-1.58196 -3.66513,-3.1837 -5.47657,-4.80469 C 220.84853,78.583429 174.44401,53.342282 125.125,36.1875 124.25537,35.884731 123.38573,35.581963 122.48975,35.27002 103.54135,28.770033 83.964127,24.229496 64.132324,21.471191 61.227927,21.060718 58.333698,20.589384 55.4375,20.125 54.462566,19.981108 53.487632,19.837217 52.483154,19.688965 50.358123,19.371639 48.235817,19.034947 46.118164,18.671631 32.770574,16.642011 19.318952,16.81279 5.8498535,16.816895 3.0182088,16.817055 0.18722242,16.803408 -2.6442871,16.775879 -31.698899,16.498034 -59.451851,19.932737 -87.875,26.1875 Z"
       fill="#f6f6f7"
       transform="translate(598.875,188.8125)"
       id="path3" /><path
       d="M 0,0 C 0.58652344,0.48500977 1.1730469,0.97001953 1.7773437,1.4697266 12.653974,10.524004 22.149923,19.917893 31,31 c 0.658711,0.791484 1.317422,1.582969 1.996094,2.398437 C 68.589501,76.511579 83.401882,133.29975 78.492187,188.46875 74.009652,229.97167 57.611143,269.82274 31,302 c -0.48501,0.58652 -0.97002,1.17305 -1.469727,1.77734 C 20.474927,314.65526 11.078315,324.14361 0,333 c -0.76828125,0.64711 -1.5365625,1.29422 -2.328125,1.96094 -42.574648,35.47887 -99.923885,50.18782 -154.506345,45.72558 -53.02314,-5.5889 -106.44744,-31.52344 -140.66553,-73.06152 -1.50062,-1.8745 -3.00065,-3.74948 -4.5,-5.625 -0.64711,-0.76828 -1.29422,-1.53656 -1.96094,-2.32813 C -326.46263,272.66984 -340.01196,239.17827 -347,205 c -0.15388,-0.74089 -0.30776,-1.48178 -0.46631,-2.24512 -10.23285,-51.61781 2.37281,-109.327575 31.4126,-152.958982 C -303.27851,31.100703 -288.71004,14.143087 -271,0 c 0.79148,-0.65871094 1.58297,-1.3174219 2.39844,-1.9960937 C -195.16572,-62.623362 -85.607921,-62.675755 0,0 Z m -219,-13 c -0.78955,0.380273 -1.5791,0.760547 -2.39258,1.152344 -47.51896,23.245041 -83.9036,64.172426 -101.65234,114.007076 -16.34425,48.61078 -13.74757,102.87921 8.70508,149.20386 0.77487,1.54812 1.55481,3.09372 2.33984,4.63672 0.38914,0.77134 0.77827,1.54269 1.1792,2.3374 12.42803,24.30111 30.47287,45.74218 51.8208,62.6626 0.96551,0.79406 1.93102,1.58812 2.92578,2.40625 40.36229,32.41292 93.12752,45.16163 144.08984,39.97266 C -88.991923,360.49516 -66.630056,353.49599 -46,343 c 0.771343,-0.38914 1.542686,-0.77827 2.337402,-1.1792 C -19.361491,329.39277 2.0795775,311.34793 19,290 c 1.191094,-1.44826 1.191094,-1.44826 2.40625,-2.92578 C 53.75647,246.79001 66.151453,193.56394 61.274902,142.75757 58.899537,122.02382 53.062484,101.78611 44,83 43.619727,82.210449 43.239453,81.420898 42.847656,80.607422 19.629822,33.144079 -21.098086,-3.364419 -71.126953,-20.540039 -74.736717,-21.746854 -78.352516,-22.911995 -82,-24 c -1.251519,-0.374513 -1.251519,-0.374513 -2.52832,-0.756592 C -128.37083,-37.325465 -178.01785,-32.769929 -219,-13 Z"
       fill="#fbfbfd"
       transform="translate(735,433)"
       id="path4" /><path
       d="M 0,0 C 2.6066929,0.23548957 5.0420942,0.59613785 7.6054687,1.0820312 8.791872,1.2934954 8.791872,1.2934954 10.002243,1.5092316 12.671233,1.9908721 15.335778,2.4926655 18,3 19.409862,3.2680142 19.409862,3.2680142 20.848206,3.5414429 29.069752,5.1117154 37.289919,6.6916003 45.500244,8.3195801 63.612089,11.901821 79.209475,12.226135 97.452637,9.7844238 118.13845,7.045951 138.96865,6.7425168 159.8125,6.6875 c 1.60972,-0.00542 1.60972,-0.00542 3.25195,-0.010956 23.90873,-0.031808 47.60104,1.7783801 71.3848,4.082901 1.80644,0.170361 3.61374,0.33166 5.42157,0.486603 4.74431,0.407995 9.40133,0.857032 14.07449,1.804733 1.00563,0.201739 2.01126,0.403477 3.04737,0.611328 1.03366,0.214629 2.06733,0.429258 3.13232,0.650391 1.63751,0.335479 1.63751,0.335479 3.30811,0.677734 3.19125,0.659579 6.37964,1.331134 9.56689,2.009766 0.84562,0.179663 1.69125,0.359326 2.5625,0.544434 C 292.14337,21.118983 308.31459,25.587186 322,36 c -0.34528,2.589603 -0.68693,3.722125 -2.66797,5.480469 C 317,42 317,42 314.01172,40.550781 312.89312,39.820565 311.78527,39.073672 310.6875,38.3125 262.48156,6.1942232 162.10418,8.175311 106.04272,18.547119 105.36863,18.69657 104.69453,18.846021 104,19 c 13.8247,2.839257 27.67113,5.510835 41.5625,8 10.61416,1.903606 21.19017,3.928573 31.73877,6.171387 18.45045,3.916026 37.00211,7.308033 55.59058,10.496093 10.12128,1.748553 20.18018,3.729264 30.23315,5.83252 12.54425,2.612105 12.54425,2.612105 25.09766,5.179687 1.17828,0.239605 2.35656,0.479209 3.57055,0.726075 8.26711,1.57107 8.26711,1.57107 16.03882,-0.976075 C 310.3174,52.712526 312.68093,50.934201 315,49 c 3.16116,1.369835 3.99271,1.989064 6,5 -3.465,2.475 -3.465,2.475 -7,5 7.92333,2.524247 16.12902,3.712488 24.30469,5.144531 1.7557,0.315176 1.7557,0.315176 3.54687,0.636719 1.06042,0.18627 2.12083,0.372539 3.21338,0.564453 C 348,66 348,66 353,68 c 0,4.62 0,9.24 0,14 -6.4001,0.274078 -11.82173,-0.706162 -18,-2.3125 -6.41386,-1.602483 -12.80005,-3.108212 -19.3125,-4.25 -6.80514,-1.208259 -13.40506,-2.847518 -20.06641,-4.667969 -6.28295,-1.335213 -11.07443,-0.894059 -17.12109,1.167969 -6.93306,2.271175 -6.93306,2.271175 -10.625,2.6875 -3.06881,0.184678 -3.06881,0.184678 -5.875,2.375 3.32581,1.046528 6.66147,2.057375 10,3.0625 0.93457,0.294551 1.86914,0.589102 2.83203,0.892578 6.72965,2.00007 11.86502,2.79563 18.55859,0.07227 0.9204,-0.539473 0.9204,-0.539473 1.85938,-1.089844 C 298.35315,78.13588 299.12258,78 303,78 c -1.4982,3.813604 -3.80001,5.539267 -7,8 0.85642,0.19634 1.71284,0.392681 2.59521,0.594971 3.22491,0.741009 6.44909,1.485014 9.67286,2.230957 1.38644,0.320184 2.77316,0.639226 4.16015,0.957031 C 320.36658,91.602763 328.23995,93.505451 336,96 c -0.77316,3.773088 -1.74216,4.91773 -4.9375,7.125 -2.2196,1.55493 -4.14131,2.95381 -6.0625,4.875 -5.72414,0.49712 -10.61639,-0.71903 -16.0625,-2.25 -0.83491,-0.22744 -1.66982,-0.45488 -2.53003,-0.68921 C 303.93534,104.38408 301.46716,103.69459 299,103 c -0.6658,-0.18643 -1.3316,-0.37286 -2.01758,-0.56494 -5.2303,-1.46842 -10.45092,-2.958919 -15.63867,-4.571779 -11.71515,-3.567114 -18.63366,-3.227999 -30.36719,0.05859 C 235.36214,102.23609 219.08504,103.58342 203,105 c -1.11705,0.0986 -2.23411,0.19723 -3.38501,0.29883 -12.81754,0.96155 -25.66336,0.92355 -38.51074,0.9414 -4.00171,0.007 -8.00305,0.0408 -12.00464,0.0723 C 132.82489,106.3793 117.09882,105.33938 101,103 99.590973,102.8113 98.181585,102.62526 96.771729,102.44287 75.334624,99.642745 54.303943,96.640786 34,89 32.774102,88.541094 31.548203,88.082188 30.285156,87.609375 22.306415,84.459622 22.306415,84.459622 20,81 c 0.33,-0.66 0.66,-1.32 1,-2 1.763437,0.587812 1.763437,0.587812 3.5625,1.1875 0.836602,0.275859 1.673203,0.551719 2.535156,0.835937 1.994394,0.671062 3.981158,1.365101 5.960938,2.078125 16.924859,5.955399 34.643329,10.009335 52.39975,12.534562 1.685265,0.241271 3.36957,0.489358 5.052795,0.744476 19.627471,2.919138 39.082891,3.086047 58.879241,3.010513 4.48564,-0.01695 8.97074,-0.007 13.45636,0.01033 29.00344,0.09474 58.30459,-0.582177 86.90717,-5.850663 C 253,93 253,93 257,93 c 0,-0.66 0,-1.32 0,-2 -0.61529,-0.10812 -1.23057,-0.21624 -1.8645,-0.327637 -4.3201,-0.804639 -8.47301,-1.701405 -12.61597,-3.180176 -18.16701,-6.362131 -36.93729,-5.597625 -55.9043,-3.708251 -4.59907,0.379964 -9.19065,0.363473 -13.80273,0.341064 -1.07693,-0.0041 -2.15386,-0.0082 -3.26343,-0.01245 C 155.35578,84.018647 141.17879,83.629182 127,83 126.10831,82.960885 125.21662,82.92177 124.29791,82.88147 51.669569,79.637974 51.669569,79.637974 25,68 24.18209,67.644702 23.36418,67.289404 22.521484,66.92334 6.4931253,59.84623 6.4931253,59.84623 1,55 2.4518544,51.249376 2.4518544,51.249376 4.7773437,50.191406 7.9364127,49.91936 9.1965274,51.110101 11.8125,52.875 c 5.93578,3.622572 12.03924,6.313111 18.5,8.875 1.385057,0.564368 1.385057,0.564368 2.798096,1.140137 12.600937,4.897875 26.019773,6.573582 39.345947,8.362549 2.251577,0.304157 4.500933,0.621949 6.750488,0.940673 26.129879,3.61363 52.092109,4.084344 78.414059,3.94397 4.34569,-0.02088 8.69139,-0.02968 13.03711,-0.03967 C 179.10554,76.07654 187.55275,76.042649 196,76 c -1.56198,-0.471601 -3.1242,-0.942386 -4.68652,-1.412842 -0.86994,-0.262259 -1.73988,-0.524517 -2.63617,-0.794723 -4.29062,-1.269947 -8.60772,-2.438108 -12.92731,-3.604935 -1.94793,-0.528596 -3.89585,-1.057244 -5.84375,-1.585938 -1.47533,-0.39977 -1.47533,-0.39977 -2.98047,-0.807617 -3.66762,-0.995252 -7.33333,-1.997428 -10.99902,-2.999756 C 146.95667,62.342223 137.98024,59.914506 129,57.5 c -3.28881,-0.885151 -6.57754,-1.770573 -9.86621,-2.65625 -2.01355,-0.542133 -4.02721,-1.083836 -6.04102,-1.625 C 102.79635,50.448993 92.537335,47.586405 82.3125,44.5625 69.292053,40.717255 56.159252,37.333616 43,34 42.20916,33.795361 41.41832,33.590723 40.603516,33.379883 27.706319,30.068764 20.219308,33.658098 9,40 8.01,40.66 7.02,41.32 6,42 3.9375,41.875 3.9375,41.875 2,41 0.87890625,38.945312 0.87890625,38.945312 0,37 1.5379248,35.890627 3.0805404,34.787757 4.625,33.6875 5.4835156,33.072617 6.3420312,32.457734 7.2265625,31.824219 10.059373,29.960948 12.941612,28.457443 16,27 6.691401,24.239067 -2.6151689,21.493162 -12,19 c 0.33,-1.98 0.66,-3.96 1,-6 3.5893851,-0.903 6.0772184,-1.011145 9.6601563,-0.109375 0.87011714,0.213743 1.74023432,0.427485 2.6367187,0.647705 0.9126563,0.234851 1.8253125,0.469702 2.765625,0.71167 0.9423047,0.231628 1.8846094,0.463257 2.8554687,0.701904 3.9070913,0.965001 7.7959363,1.968089 11.6718753,3.052002 C 26.799037,20.28485 36.19272,22.199339 44,18 24.62434,13.400151 24.62434,13.400151 5.0742187,9.640625 2.187115,9.0389922 -0.30939951,8.1913353 -3,7 -2.25,2.25 -2.25,2.25 0,0 Z"
       fill="#f7f8fa"
       transform="translate(431,522)"
       id="path5" /><path
       d="M 0,0 C 1.3144812,0.00858032 1.3144812,0.00858032 2.6555176,0.01733398 14.156919,0.33121033 24.129929,4.2854034 32.3125,12.5 c 8.842915,10.284504 12.96252,22.542215 12,36 C 42.27372,60.202918 36.636752,70.9067 27.097656,78.191406 15.964135,85.391204 3.2617024,88.596528 -9.8203125,85.839844 -20.295475,82.745518 -29.534083,76.625067 -35.6875,67.5 -41.610795,56.564686 -44.718727,45.797218 -42.003906,33.371094 -38.204536,21.027081 -30.918977,11.473054 -19.972656,4.640625 -13.150503,1.2353795 -7.5713528,-0.05766286 0,0 Z"
       fill="#0f4191"
       transform="translate(448.6875,295.5)"
       id="path6" /><path
       d="m 0,0 c 8.4872092,6.2455709 15.196283,14.261281 18.027344,24.59375 2.00781,14.338607 0.747813,26.590947 -7.863281,38.574219 -7.4098426,8.815157 -15.6389341,13.116589 -26.6875,15.9375 C -31.043662,80.290793 -42.399622,77.981237 -53.816406,68.503906 -63.407733,59.470424 -67.594802,48.428856 -68.023437,35.355469 -67.690135,22.095836 -61.339503,11.290137 -51.9375,2.2148438 -36.882418,-9.6891745 -16.023646,-10.190265 0,0 Z"
       fill="#0f4191"
       transform="translate(818.58594,335.64453)"
       id="path7" /><path
       d="M 0,0 C 3,1 3,1 4.059082,2.534668 4.3721631,3.1806494 4.6852441,3.8266309 5.0078125,4.4921875 5.3545703,5.1973047 5.7013281,5.9024219 6.0585937,6.6289062 6.4105078,7.3701172 6.7624219,8.1113281 7.125,8.875 7.6644727,9.9752148 7.6644727,9.9752148 8.2148438,11.097656 12.636665,20.189716 13.908685,31.11138 10.8125,40.980469 4.877115,55.733325 -2.4666666,63.367725 -17,70 -27.245708,73.015811 -40.005202,72.18815 -49.484375,67.488281 -55.772032,63.76841 -60.56816,59.81679 -65,54 c -4.973577,1.734273 -9.31499,4.43328 -13.8125,7.125 -0.788262,0.46793 -1.576523,0.935859 -2.388672,1.417969 C -83.136025,63.692154 -85.068872,64.84457 -87,66 c -2.891381,-2.819546 -5.216284,-5.338688 -7,-9 1.314032,-3.942095 2.788567,-4.300575 6.378906,-6.300781 1.13647,-0.6401 2.27294,-1.2802 3.443848,-1.939698 1.246582,-0.690673 2.493164,-1.381347 3.739746,-2.072021 1.930498,-1.083303 3.859099,-2.169936 5.78772,-3.256577 1.311483,-0.738521 2.623582,-1.475949 3.936279,-2.21231 5.986011,-3.359416 11.918195,-6.807281 17.838501,-10.281113 9.556176,-5.595266 19.141694,-11.137866 28.746826,-16.648682 4.699668,-2.702999 9.383207,-5.4190027 13.995361,-8.2692868 C -9.0800916,5.370448 -9.0800916,5.370448 -8.0061035,4.7082519 -6.7558939,3.9310522 -5.5110652,3.1450924 -4.2731934,2.3483887 -2.6601563,1.34375 -2.6601563,1.34375 0,0 Z"
       fill="#fafbfc"
       transform="translate(894,402)"
       id="path8" /><path
       d="m 0,0 c 12.123789,7.3675334 19.68422,16.599407 23.289062,30.417969 0.0825,1.03125 0.165,2.0625 0.25,3.125 0.07477,0.849492 0.149532,1.698984 0.226563,2.574218 0.580533,11.687047 -3.801199,22.452002 -11.226562,31.425782 -5.3720157,5.84532 -11.57128076,9.286141 -19.0000005,12 -0.66,0 -1.32,0 -2,0 0.1211719,0.538908 0.2423437,1.077817 0.3671875,1.633056 0.5519119,2.474848 1.0924243,4.952056 1.6328125,7.429444 0.1907812,0.847558 0.3815625,1.695117 0.578125,2.568359 1.0610661,4.907431 1.6398362,9.349222 1.421875,14.369142 -5.9400005,0.99 -5.9400005,0.99 -11.9999995,2 -0.220269,-1.26215 -0.440538,-2.52431 -0.667481,-3.82471 -1.065785,-6.100691 -2.135976,-12.200607 -3.207519,-18.300291 -0.295463,-1.682725 -0.295463,-1.682725 -0.596894,-3.399445 -2.390039,-13.593143 -4.825652,-27.176628 -7.352325,-40.745087 -0.344814,-1.85211 -0.344814,-1.85211 -0.696594,-3.741638 -1.120114,-6.007395 -2.246405,-12.013578 -3.37909,-18.018615 -0.409704,-2.18668 -0.819374,-4.373366 -1.229004,-6.560059 -0.190192,-0.998767 -0.380384,-1.997533 -0.576339,-3.0265656 -0.171471,-0.9179887 -0.342941,-1.8359774 -0.519608,-2.781784 -0.150503,-0.7965953 -0.301006,-1.5931906 -0.45607,-2.4139252 -0.319076,-2.1878814 -0.319076,-2.1878814 -0.319076,-6.1878814 C -24.790887,-5.7841366 -10.210634,-5.1340794 0,0 Z"
       fill="#f9fafc"
       transform="translate(547.46094,255.45703)"
       id="path9" /><path
       d="M 0,0 C 10.962708,8.5371888 19.613584,20.918577 21.992187,34.835937 23.610634,50.775179 21.272722,66.333612 11.082031,79.277344 10.175176,80.315684 10.175176,80.315684 9.25,81.375 8.6557422,82.077539 8.0614844,82.780078 7.4492187,83.503906 -2.3114791,94.153777 -15.46049,99.753554 -29.695312,100.61328 -46.143614,101.04927 -60.429636,96.605269 -72.625,85.0625 -76.828946,80.592481 -79.87557,75.772248 -82.75,70.375 -83.140586,69.707266 -83.531172,69.039531 -83.933594,68.351562 -89.723845,57.958805 -90.341083,44.384658 -88.0625,32.914062 -83.66949,17.501919 -75.356383,5.0832814 -61.449219,-3.1601563 -41.441343,-14.018265 -19.0534,-13.004278 0,0 Z m -68.957031,19.835937 c -6.985007,9.891622 -8.871274,20.851995 -7.554688,32.679688 2.309641,11.104938 8.972369,22.279577 18.402344,28.640625 2.737755,1.560062 5.485434,2.928578 8.359375,4.21875 0.741211,0.340312 1.482422,0.680625 2.246094,1.03125 10.860048,4.304166 22.239694,2.262722 32.753906,-2.03125 11.116819,-5.180501 18.5449661,-13.618921 23,-25 3.743178,-11.268729 2.472468,-22.128463 -2,-33 C 0.53954752,15.767639 -8.7493817,6.9127932 -20.292969,3.0703125 -40.343906,-0.9625313 -55.652218,4.3800463 -68.957031,19.835937 Z"
       fill="#f9fafc"
       transform="translate(482.75,293.625)"
       id="path10" /><path
       d="m 0,0 c 13.43143,8.8105255 22.457331,20.767054 26.096924,36.42749 3.029127,14.687154 0.439963,28.446548 -7.16333,41.404541 C 10.8094,89.846429 0.00326264,98.00662 -13.820313,102.42578 c -16.931607,3.15708 -32.206394,1.49181 -46.605468,-8.292968 -0.790196,-0.56332 -1.580391,-1.12664 -2.394531,-1.707031 -1.051876,-0.7425 -2.103751,-1.485 -3.1875,-2.25 C -77.217177,79.215513 -83.697762,65.759014 -84.176025,50.076172 -84.323005,33.212553 -78.562971,19.624997 -66.820312,7.4257812 -48.364206,-8.8443694 -21.612199,-12.063319 0,0 Z m -56.820312,15.425781 c -0.594258,0.478242 -1.188516,0.956485 -1.800782,1.449219 -7.141683,6.286581 -12.680458,17.028 -13.4375,26.546875 -0.2976,13.799234 2.954722,25.221122 12.460938,35.378906 9.45745,9.112726 19.44034,13.00777 32.460937,12.832031 C -14.381395,90.836544 -4.3173671,86.429251 4.5546875,77.175781 14.097505,65.771428 14.984666,53.613142 14.179688,39.425781 12.768117,29.065634 6.2921584,20.491316 -1.6445312,13.957031 -18.725848,1.9357097 -40.825825,1.4092903 -56.820312,15.425781 Z"
       fill="#fafbfc"
       transform="translate(822.82031,323.57422)"
       id="path11" /><path
       d="m 0,0 c 4.5332643,1.4580184 7.6776211,4.0222231 11.1875,7.125 1.16317,1.0062409 2.327239,2.0114432 3.492188,3.015625 0.568154,0.491777 1.136308,0.983555 1.721679,1.490234 2.877272,2.464224 5.852856,4.801681 8.821289,7.154297 3.530978,2.815843 7.027493,5.672976 10.527344,8.527344 5.606623,4.567484 11.257273,9.070947 16.957764,13.520508 4.498259,3.52021 8.931797,7.11528 13.354736,10.729492 C 72.93892,57.179634 79.926256,62.634129 87,68 85.419963,72.393093 83.44803,74.824183 80,78 76.166541,76.329243 73.055876,73.838817 69.8125,71.25 69.206641,70.770469 68.600781,70.290937 67.976562,69.796875 62.373027,65.341325 56.857058,60.780444 51.34375,56.214111 46.172478,51.939452 40.938896,47.754735 35.640625,43.638672 31.215088,40.197192 31.215088,40.197192 29.415527,38.547363 27.697989,36.939607 27.697989,36.939607 25,35 c -2.538842,0.203755 -3.690949,0.710247 -5.552246,2.455322 -0.485493,0.614158 -0.970986,1.228316 -1.471192,1.861084 -0.546562,0.682559 -1.093125,1.365117 -1.65625,2.06836 C 15.760859,42.103418 15.201406,42.82207 14.625,43.5625 14.073281,44.254082 13.521563,44.945664 12.953125,45.658203 6.4038965,53.45292 6.4038965,53.45292 1,62 c 0.5899072,0.275295 1.1798144,0.550591 1.7875977,0.834229 2.1142147,1.114033 3.7755657,2.297693 5.6108398,3.818115 0.6367163,0.523279 1.2734326,1.046557 1.9294435,1.585693 0.675549,0.560823 1.351098,1.121646 2.047119,1.699463 1.445821,1.188466 2.89245,2.37595 4.339844,3.5625 0.723003,0.592969 1.446006,1.185937 2.190918,1.796875 2.978334,2.42211 6.001768,4.783687 9.031738,7.140625 5.432574,4.242695 10.794566,8.567196 16.125,12.9375 1.072057,0.87483 1.072057,0.87483 2.165771,1.767334 C 50.020916,100.26513 53.595942,103.45659 57,107 c -3.465,4.455 -3.465,4.455 -7,9 C 44.512941,112.58913 39.649437,108.50151 34.679199,104.38623 25.268431,96.617353 15.771772,88.954938 6.140625,81.460937 4.154544,79.90468 2.1835263,78.328831 0.234375,76.726562 -0.56484375,76.074297 -1.3640625,75.422031 -2.1875,74.75 -2.8616797,74.187969 -3.5358594,73.625938 -4.2304687,73.046875 -4.8144141,72.701406 -5.3983594,72.355937 -6,72 c -3.277735,0.7515 -3.277735,0.7515 -5,4 -3.995006,-1.369716 -6.800095,-3.257224 -10,-6 0.629364,-2.937034 1.624202,-5.337886 3,-8 -0.468977,-0.378098 -0.937954,-0.756196 -1.421143,-1.145752 -2.131908,-1.720455 -4.261649,-3.443571 -6.391357,-5.166748 -0.737988,-0.594902 -1.475977,-1.189805 -2.236328,-1.802734 -0.712207,-0.576856 -1.424414,-1.153711 -2.158203,-1.748047 -0.654602,-0.528919 -1.309204,-1.057837 -1.983643,-1.602783 C -33.871195,49.1092 -35.442113,47.557887 -37,46 c 2.31,-2.97 4.62,-5.94 7,-9 3.131121,1.565561 5.197816,2.829776 7.820313,5.003906 0.69996,0.575567 1.399921,1.151133 2.121093,1.744141 0.720586,0.598769 1.441172,1.197539 2.183594,1.814453 1.438736,1.190458 2.878778,2.379339 4.320312,3.566406 0.63438,0.526663 1.26876,1.053325 1.922364,1.595948 C -10.01509,52.075036 -10.01509,52.075036 -8,53 c 0.2709448,-0.584832 0.5418897,-1.169663 0.8210449,-1.772217 1.1697348,-2.21036 2.4472852,-3.951978 4.0422363,-5.872314 0.5575196,-0.677403 1.1150391,-1.354805 1.6894532,-2.052735 C -0.86654297,42.604707 -0.28582031,41.90668 0.3125,41.1875 4.4101039,36.245316 8.32887,31.26907 12,26 8.2533346,22.140441 4.3147868,18.633807 0.1875,15.1875 -0.40998047,14.68541 -1.0074609,14.18332 -1.6230469,13.666016 -3.0802885,12.441933 -4.5398986,11.22067 -6,10 -5.1525608,5.5192872 -2.9796501,3.3616565 0,0 Z"
       fill="#f9fbfc"
       transform="translate(340,354)"
       id="path12" /><path
       d="M 0,0 C 1.4379339,0.31049726 2.8753318,0.6234776 4.3125,0.9375 5.1130078,1.1115234 5.9135156,1.2855469 6.7382812,1.4648437 9,2 9,2 12,3 10.736992,9.3150392 8.9765868,15.236902 6.8046875,21.300781 5.8095377,24.169445 5.8095377,24.169445 6,28 c 10.89,3.63 21.78,7.26 33,11 0.33,-2.31 0.66,-4.62 1,-7 0.355558,-1.405707 0.746592,-2.80353 1.191406,-4.183594 0.333545,-1.048974 0.333545,-1.048974 0.673828,-2.11914 C 42.095332,24.992793 42.32543,24.28832 42.5625,23.5625 42.796465,22.830957 43.03043,22.099414 43.271484,21.345703 43.842672,19.562198 44.420631,17.780864 45,16 c 3.614747,-1.242569 5.74079,-0.893271 9.1875,0.480469 0.71543,0.281257 1.430859,0.562514 2.167969,0.852295 C 56.898164,17.552952 57.440859,17.77314 58,18 52.921217,35.436751 47.296751,52.693894 41.681091,69.962891 39.714426,76.011884 37.751335,82.062037 35.788759,88.112358 35.115671,90.186055 34.441352,92.259349 33.76683,94.332581 30.776911,103.53427 27.868518,112.75977 25,122 c -5.263443,1.18607 -7.221194,0.34255 -12,-2 0.633286,-7.12644 2.99879,-13.68052 5.21875,-20.449219 0.422697,-1.303033 0.844848,-2.606243 1.266479,-3.909622 1.105995,-3.414562 2.218574,-6.82694 3.332825,-10.238815 1.784946,-5.470022 3.558941,-10.943609 5.334549,-16.416666 0.619281,-1.906068 1.241071,-3.81132 1.8629,-5.716559 0.377091,-1.158328 0.754182,-2.316657 1.1427,-3.510086 0.332296,-1.018133 0.664592,-2.036265 1.006958,-3.085251 C 32.856753,54.458783 33.470079,52.258067 34,50 33.424595,49.903481 32.849189,49.806963 32.256348,49.70752 25.057491,48.395399 18.286192,46.251509 11.375,43.875 10.27543,43.502461 9.1758594,43.129922 8.0429688,42.746094 5.36005,41.836234 2.679183,40.920789 0,40 c -0.24548584,1.217117 -0.49097168,2.434233 -0.74389648,3.688232 -1.38705092,6.226522 -3.37727192,12.239987 -5.35375972,18.300049 -0.6024251,1.864986 -1.2048491,3.729973 -1.8072043,5.594981 -0.8369369,2.587825 -1.6776321,5.174422 -2.5182965,7.761037 -1.477238,4.547636 -2.948935,9.097067 -4.419967,13.646714 -0.781819,2.416732 -1.565262,4.83294 -2.350495,7.248565 -0.530764,1.637716 -0.530764,1.637716 -1.07225,3.308518 -0.311515,0.958804 -0.62303,1.917614 -0.943985,2.905474 C -19.880289,104.6142 -20.451321,106.80528 -21,109 c -3.63,-0.99 -7.26,-1.98 -11,-3 -1.045763,-4.18305 -0.915713,-5.127 0.383545,-9.02124 0.327517,-0.998817 0.655035,-1.997634 0.992477,-3.026718 0.546701,-1.614015 0.546701,-1.614015 1.104447,-3.260636 0.369261,-1.117703 0.738522,-2.235405 1.118973,-3.386978 1.186263,-3.583968 2.386738,-7.162982 3.588058,-10.741928 1.180341,-3.54779 2.35776,-7.096537 3.5345,-10.645523 0.732968,-2.207092 1.46854,-4.413322 2.207245,-6.6185 C -16.598165,51.899784 -14.264469,44.464954 -12,37 c -1.98,-0.99 -3.96,-1.98 -6,-3 0.50797,-4.317746 1.196828,-8.033021 3,-12 2.64,0.66 5.28,1.32 8,2 0.1701563,-0.727031 0.3403125,-1.454063 0.515625,-2.203125 C -4.6979026,14.384915 -2.5136828,7.1965334 0,0 Z"
       fill="#f9fafc"
       transform="translate(685,254)"
       id="path13" /><path
       d="m 0,0 c 1.3241492,0.27954781 1.3241492,0.27954781 2.6750488,0.56474304 2.835545,0.60109276 5.6680921,1.21516746 8.5007322,1.82978826 1.95339,0.4168443 3.906923,0.8330207 5.860596,1.2485351 10.582446,2.2585817 21.149133,4.5821678 31.689209,7.0314946 6.16276,1.425498 12.3421,2.606108 18.567383,3.731689 4.945244,0.918743 9.847994,2.023433 14.757812,3.113281 8.65635,1.918921 17.339715,3.653008 26.050359,5.305542 14.52304,2.756854 28.89041,5.914492 43.19964,9.628052 13.62236,3.514566 27.35171,6.215604 41.1875,8.753906 -2.3927,2.392701 -3.54668,2.471996 -6.83203,3.035156 -0.96357,0.169512 -1.92715,0.339024 -2.91992,0.513672 -1.00998,0.169512 -2.01996,0.339024 -3.06055,0.513672 -1.98571,0.34484 -3.97139,0.689885 -5.95703,1.035156 -0.88277,0.149612 -1.76553,0.299224 -2.67505,0.45337 -1.73592,0.304993 -3.46768,0.634531 -5.19482,0.985839 -7.03884,1.380979 -12.22433,-0.2719 -18.95826,-2.454834 -7.73063,-2.458538 -15.55347,-4.150452 -23.53881,-5.525146 -2.69881,-0.524852 -5.29099,-1.189975 -7.93384,-1.943604 -6.03949,-1.674564 -12.12732,-3.057501 -18.242189,-4.425781 -8.184562,-1.855832 -16.298864,-3.843884 -24.375,-6.125 -8.177376,-2.294743 -16.39205,-4.243395 -24.6875,-6.0625 C 29.735901,17.170388 11.511244,12.516875 -6.7319336,7.9179687 -8.5329251,7.4643446 -8.5329251,7.4643446 -10.3703,7.0015564 -12.64688,6.4277074 -14.923142,5.8525944 -17.199036,5.2760315 -18.220839,5.0181686 -19.242643,4.7603058 -20.29541,4.4946289 -21.185639,4.2692545 -22.075867,4.04388 -22.993073,3.811676 -25.489314,3.21241 -27.991275,2.6934153 -30.511719,2.2070313 c 0,-0.6600001 0,-1.32000005 0,-2.00000005 1.81067,-0.34313868 3.623681,-0.67392018 5.4375,-1 1.514004,-0.27843745 1.514004,-0.27843745 3.058594,-0.56249995 C -14.378762,-2.3090124 -7.4882972,-1.64424 0,0 Z"
       fill="#163371"
       transform="translate(509.51172,545.79297)"
       id="path14" /><path
       d="m 0,0 c 0,4.29 0,8.58 0,13 -2.10375,0.0825 -4.2075,0.165 -6.375,0.25 -12.577438,0.925557 -21.153577,5.924748 -29.8125,14.875 -8.983771,10.737999 -10.093396,21.949017 -9.081543,35.491699 C -44.00994,74.770387 -37.08294,82.781945 -29,90 c 7.132611,5.250253 14.270572,7.116393 23,8 0.027241,1.416558 0.046505,2.83327 0.0625,4.25 0.011602,0.78891 0.023203,1.57781 0.035156,2.39063 C -5.9961469,106.90691 -6.3675894,108.82889 -7,111 -21.941493,110.62899 -34.256694,103.94306 -44.574219,93.359375 -54.62478,81.730626 -59.736172,67.683421 -59.277344,52.285156 -58.088194,38.199593 -52.578048,24.674292 -42,15 -28.787661,4.2439279 -17.115426,-0.54623701 0,0 Z"
       fill="#f7f9fb"
       transform="translate(649,246)"
       id="path15" /><path
       d="M 0,0 C 3.63,1.32 7.26,2.64 11,4 10.67,5.19625 10.34,6.3925 10,7.625 7.1244581,20.898334 9.2452401,32.529287 15.75,44.3125 22.008125,54.018028 31.087794,59.162716 42,62.636719 54.698517,64.943285 65.774774,61.670255 76.765625,55.429687 83.374621,50.776415 87.426899,44.146203 91,37 c 4.388893,0.664984 7.981149,2.187577 12,4 C 96.119069,56.704712 86.43599,65.968394 70.8125,72.875 66.197844,74.674834 61.960415,75.856587 57,76 55.912031,76.073477 54.824062,76.146953 53.703125,76.222656 38.447588,76.839841 25.542338,71.979655 13.757813,62.125 3.0735133,52.126109 -3.3789049,37.940828 -4.203125,23.421875 -4.3040787,15.513832 -3.838608,8.4421536 -1,1 -0.67,0.67 -0.34,0.34 0,0 Z"
       fill="#fafbfc"
       transform="translate(281,438)"
       id="path16" /><path
       d="m 0,0 c 7.6528167,-0.08402849 15.240962,0.15657836 22.878906,0.62109375 1.639076,0.0963247 1.639076,0.0963247 3.311264,0.19459534 2.293392,0.13549209 4.586691,0.27255171 6.879898,0.41111751 3.486184,0.2103165 6.972665,0.4149881 10.459229,0.6188965 2.241556,0.1331296 4.483093,0.2665822 6.724609,0.4003907 1.544164,0.09069 1.544164,0.09069 3.119522,0.1832122 C 59.600454,2.8086109 65.797649,3.3280702 72,4 70.369392,9.0608514 67.362348,12.953684 64.25,17.1875 63.387617,18.371826 63.387617,18.371826 62.507812,19.580078 57.885228,25.888605 53.098297,32.060239 48.26416,38.207275 41.930576,46.293477 35.948847,54.628545 30,63 c -2.971939,-1.124517 -5.334407,-2.222938 -8,-4 1.707993,-3.937068 4.306042,-7.150872 6.9375,-10.5 0.884285,-1.135284 1.768404,-2.270697 2.652344,-3.40625 C 34,42 34,42 35.941406,39.96875 37.327547,37.934752 37.327547,37.934752 36.22876,35.214355 35.091388,32.239065 33.835484,29.442237 32.398437,26.601562 31.956772,25.723228 31.515107,24.844893 31.060059,23.939941 30.225955,22.299045 30.225955,22.299045 29.375,20.625 27.60125,17.11875 25.8275,13.6125 24,10 15.75,9.67 7.5,9.34 -1,9 -0.67,6.03 -0.34,3.06 0,0 Z"
       fill="#f6f8fb"
       transform="translate(275,714)"
       id="path17" /><path
       d="m 0,0 c 0.14121281,7.578421 -0.08619382,15.118085 -0.4375,22.6875 -0.0392358,0.878093 -0.0784717,1.756187 -0.11889648,2.660889 C -0.74953837,29.297603 -0.99608789,33.214503 -1.46875,37.140625 -2.2908472,44.088153 -2.6298617,51.082124 -3.0625,58.0625 -3.154101,59.514986 -3.2458965,60.96746 -3.3378906,62.419922 -3.5608321,65.946476 -3.7811472,69.473189 -4,73 c -2.97,0 -5.94,0 -9,0 0.141387,-3.375239 0.287952,-6.750121 0.4375,-10.125 0.03932,-0.951328 0.07863,-1.902656 0.119141,-2.882813 C -12.22947,55.25371 -11.934382,50.664057 -11,46 c -0.834023,-0.238477 -1.668047,-0.476953 -2.527344,-0.722656 -4.023117,-1.47982 -7.406817,-3.462144 -11.035156,-5.714844 -0.646465,-0.395098 -1.29293,-0.790195 -1.958984,-1.197266 -0.633575,-0.387363 -1.267149,-0.774726 -1.919922,-1.173828 -0.612466,-0.372378 -1.224932,-0.744756 -1.855957,-1.128418 -1.481087,-0.92467 -2.922298,-1.912619 -4.354981,-2.910644 -2.261278,-1.323162 -2.261278,-1.323162 -4.683593,-1.15625 -3.840949,1.447395 -6.955735,3.699874 -10.289063,6.066406 -1.321076,0.9347 -2.646437,1.86338 -3.976562,2.785156 -0.580884,0.412581 -1.161768,0.825161 -1.760254,1.250244 C -57,43 -57,43 -60,43 c -3,-5.75 -3,-5.75 -3,-8 1.423125,-0.730898 1.423125,-0.730898 2.875,-1.476563 11.918032,-6.184532 23.477985,-12.926981 35.053223,-19.726074 C -20.084387,10.879133 -15.076478,7.9972488 -10.0625,5.125 -9.1624121,4.6070386 -8.2623242,4.0890771 -7.3349609,3.5554199 -6.5141504,3.0859595 -5.6933398,2.616499 -4.8476562,2.1328125 -4.1258618,1.7191846 -3.4040674,1.3055566 -2.6604004,0.87939453 -1,0 -1,0 0,0 Z"
       fill="#f7f9fb"
       transform="translate(446,832)"
       id="path18" /><path
       d="m 0,0 c 4.095761,3.205773 6.2488796,6.8303698 7.2734375,11.921875 0.6088085,9.375652 -3.7299105,17.405026 -9.6367188,24.457031 -2.2174462,2.405366 -4.5568924,4.691842 -6.875,7 0.5053125,1.05961 1.010625,2.119219 1.5312501,3.210938 0.6564513,1.387925 1.3126903,2.775951 1.96875,4.164062 0.5008007,1.048008 0.5008007,1.048008 1.0117187,2.117188 2.4882812,5.28125 2.4882812,5.28125 2.4882812,7.507812 -5.7499999,3 -5.7499999,3 -7.9999997,3 -0.39679,-0.879221 -0.793579,-1.758442 -1.202393,-2.664306 -1.525118,-3.37741 -3.053075,-6.753527 -4.582275,-10.12909 -0.683516,-1.508969 -1.366623,-3.018124 -2.049317,-4.527466 -4.855117,-10.727209 -9.8098,-21.38954 -15.102783,-31.909851 -0.423054,-0.859724 -0.846108,-1.719448 -1.281982,-2.605224 -0.370606,-0.737827 -0.741211,-1.475655 -1.123047,-2.2358401 -0.658203,-1.9282227 -0.658203,-1.9282227 0.341797,-4.9282227 2.440084,-1.1832493 4.781949,-2.1828493 7.3125,-3.125 0.677402,-0.26425776 1.354804,-0.52851557 2.052734,-0.8007812 C -17.299945,-2.8487343 -8.412127,-4.8971206 0,0 Z"
       fill="#f5f7fa"
       transform="translate(735.23828,858.62109)"
       id="path19" /><path
       d="m 0,0 c 0.66,0 1.32,0 2,0 9.732773,20.636264 19.420327,41.292173 29,62 4.019952,-9.282415 7.470963,-18.710039 10.8125,-28.25 0.506849,-1.438912 1.014009,-2.877715 1.521484,-4.316406 C 44.559562,25.956979 45.780971,22.478918 47,19 c 2.762762,0.522685 5.326088,1.108696 8,2 -0.642392,5.904831 -2.788612,11.097076 -4.929688,16.585937 -0.390998,1.015752 -0.781997,2.031503 -1.184844,3.078034 C 47.6373,43.903064 46.381332,47.139066 45.125,50.375 c -0.837769,2.169067 -1.675014,4.338335 -2.511719,6.507812 -1.542113,3.997869 -3.087864,7.994297 -4.63623,11.989747 C 36.288476,73.23764 34.634241,77.614303 33,82 32.34,82 31.68,82 31,82 13.342071,45.966505 13.342071,45.966505 6.375,30.8125 5.9208472,29.82959 5.4666943,28.84668 4.9987793,27.833984 4.5944165,26.946465 4.1900537,26.058945 3.7734375,25.144531 3.2540259,24.005282 3.2540259,24.005282 2.7241211,22.843018 2,21 2,21 2,19 c -0.66,0 -1.32,0 -2,0 -0.14767822,0.589585 -0.29535645,1.17917 -0.44750977,1.786621 -2.16783063,8.30937 -4.86502333,16.409085 -7.68603513,24.514649 -0.5413163,1.564606 -1.0753671,3.131743 -1.6025391,4.701171 -0.768989,2.288743 -1.558739,4.569311 -2.35376,6.849121 -0.232429,0.70404 -0.464858,1.40808 -0.70433,2.133454 -1.69962,4.761789 -1.69962,4.761789 -4.215836,6.020355 C -19.673888,64.998181 -21.612105,64.127617 -24,63 c 2.257833,-8.315991 5.378408,-16.216361 8.625,-24.1875 1.072172,-2.651594 2.141349,-5.304394 3.210937,-7.957031 0.266595,-0.659879 0.533189,-1.319759 0.807862,-1.999634 C -8.7758247,22.463127 -6.2547453,16.0477 -3.75,9.625 -3.3676318,8.6450708 -2.9852637,7.6651416 -2.5913086,6.6555176 -1.7265394,4.4373987 -0.86266295,2.2189387 0,0 Z"
       fill="#f6f8fb"
       transform="translate(486,856)"
       id="path20" /><path
       d="M 0,0 C 3,1 3,1 4.1640625,3.2070313 6.4268475,10.767271 5.5931434,18.570676 2.3164063,25.683594 -2.6958583,34.503395 -9.5010261,38.833675 -19,42 -29.022807,42.857491 -37.444862,41.713263 -45.5625,35.5 -47.983326,33.017101 -48.392482,32.221894 -49,29 -35.798091,21.151463 -22.54637,13.397024 -9.2192383,5.7634277 -8.1607568,5.1557153 -7.1022754,4.5480029 -6.0117187,3.921875 -5.0677222,3.3814356 -4.1237256,2.8409961 -3.151123,2.2841797 -1.0928685,1.1744323 -1.0928685,1.1744323 0,0 Z"
       fill="#114392"
       transform="translate(889,419)"
       id="path21" /><path
       d="M 0,0 C 8.6865628,-0.56042341 14.961801,1.3596388 22.25,6.125 30.618497,14.873884 32.56997,23.276596 32.351562,35 32.060621,40.232054 30.16212,43.884661 27,48 26.401875,48.9075 25.80375,49.815 25.1875,50.75 20.778599,55.284869 16.193522,57.858702 10,59 9.910249,58.410254 9.8204981,57.820508 9.7280273,57.212891 7.4220986,42.176972 4.7958127,27.226867 1.9311523,12.289063 1.739077,11.283405 1.739077,11.283405 1.5431213,10.257431 1.1930658,8.4272002 0.84027326,6.5974935 0.48730469,4.7678223 0,2 0,2 0,0 Z"
       fill="#104292"
       transform="translate(526,264)"
       id="path22" /><path
       d="M 0,0 C 4.2148883,3.6127614 6.0024197,5.6617483 6.46875,11.238281 6.510603,16.276306 6.503893,20.997653 5.1875,25.875 c 4.2284484,1.148495 8.457879,2.29333 12.6875,3.4375 1.198184,0.325488 2.396367,0.650977 3.630859,0.986328 1.735401,0.468897 1.735401,0.468897 3.50586,0.947266 1.063073,0.288025 2.126147,0.57605 3.221435,0.872802 2.641575,0.676057 5.275428,1.251506 7.954346,1.756104 -0.33,2.64 -0.66,5.28 -1,8 -3.756389,1.380129 -6.251925,0.594716 -10.015625,-0.546875 -1.16918,-0.350625 -2.338359,-0.70125 -3.542969,-1.0625 C 20.410742,39.889219 19.192578,39.512813 17.9375,39.125 16.133457,38.583594 16.133457,38.583594 14.292969,38.03125 8.1705107,36.176367 2.1416976,34.215207 -3.8125,31.875 c 0.495,-1.36125 0.495,-1.36125 1,-2.75 1.4938853,-5.343093 1.7387488,-10.75993 1,-16.25 -1.7539992,-3.4225149 -1.7539992,-3.4225149 -5,-5 -6.959881,-1.1599802 -11.221507,1.2546805 -17,5 1.637442,5.223232 4.879377,9.183326 8.125,13.5 0.606584,0.818635 1.213169,1.637271 1.838135,2.480713 3.45781,4.64801 6.9792169,9.239885 10.5563962,13.796631 0.7365381,0.944883 1.4730762,1.889765 2.2319336,2.863281 1.44087815,1.8435 2.8928227,3.678412 4.3564454,5.503906 0.654038,0.837891 1.3080761,1.675781 1.9819335,2.539063 0.5864429,0.737907 1.1728858,1.475815 1.7770997,2.236084 C 8.1875,57.875 8.1875,57.875 7.9865723,60.031494 6.8898286,62.561745 5.5735443,63.541622 3.1875,64.875 -1.1335733,63.434642 -2.6705829,60.128269 -5.125,56.5 c -1.0750497,-1.555914 -2.151945,-3.110554 -3.2304688,-4.664063 -0.8457055,-1.220581 -0.8457055,-1.220581 -1.7084962,-2.46582 -2.893574,-4.12906 -5.879088,-8.18889 -8.873535,-12.245117 -0.583784,-0.793901 -1.167568,-1.587803 -1.769043,-2.405762 -2.697799,-3.653254 -5.423136,-7.274433 -8.250488,-10.828613 -0.474859,-0.599736 -0.949717,-1.199473 -1.438965,-1.817383 -1.263184,-1.584332 -2.540491,-3.157376 -3.818848,-4.729492 -0.527226,-0.814688 -1.054453,-1.629375 -1.597656,-2.46875 1.110962,-3.332887 1.514878,-3.618922 4.351563,-5.375 0.68707,-0.4279687 1.37414,-0.8559375 2.082031,-1.296875 0.723164,-0.4382813 1.446328,-0.8765625 2.191406,-1.328125 0.699961,-0.4382813 1.399922,-0.8765625 2.121094,-1.328125 C -17.165399,0.68020634 -9.2977177,-3.7190871 0,0 Z"
       fill="#f7f8fb"
       transform="translate(783.8125,826.125)"
       id="path23" /><path
       d="M 0,0 C 5.9977626,1.4465192 11.94597,2.9786398 17.858154,4.7458496 74.935482,21.511867 135.11321,19.448063 193,9 194.48307,8.734856 194.48307,8.734856 195.99609,8.4643555 205.90801,6.6665027 215.61086,4.45092 225.2688,1.5742187 228.70149,0.56195739 231.38379,0 235,0 c 0,0.99 0,1.98 0,3 -3.14543,1.1053222 -6.29142,2.20904 -9.4375,3.3125 -0.8785,0.3087305 -1.75699,0.6174609 -2.66211,0.9355469 -1.77494,0.6222125 -3.55092,1.2414829 -5.32788,1.8579101 -1.61419,0.5609897 -3.22608,1.128665 -4.83447,1.706055 -6.0012,2.102541 -12.06628,3.461343 -18.30054,4.687988 -1.63377,0.322548 -1.63377,0.322548 -3.30054,0.651611 C 179.81351,18.321948 168.46069,19.787959 157,21 c -0.90879,0.104414 -1.81758,0.208828 -2.75391,0.316406 C 111.80622,26.140507 34.358177,30.500804 -1,3 -0.67,2.01 -0.34,1.02 0,0 Z"
       fill="#f2f4f7"
       transform="translate(475,629)"
       id="path24" /><path
       d="M 0,0 C 2.31,1.32 4.62,2.64 7,4 6.3633928,7.2675783 5.1792966,9.5801598 3.3828125,12.371094 2.8581641,13.192871 2.3335156,14.014648 1.7929687,14.861328 1.2425391,15.711465 0.69210937,16.561602 0.125,17.4375 c -1.5910838,2.481108 -3.1811516,4.962772 -4.7646484,7.44873 -1.0754699,1.671109 -2.1846957,3.320491 -3.3056641,4.961426 -1.2464032,2.051521 -1.2464032,2.051521 -0.8234863,4.115967 0.9327422,2.470626 1.8823844,3.243002 4.0148926,4.770752 1.0025683,0.731986 1.0025683,0.731986 2.0253906,1.47876 0.7147851,0.507165 1.4295703,1.014331 2.1660156,1.536865 1.45772941,1.065452 2.9147606,2.131859 4.3710938,3.199219 0.7139794,0.518686 1.4279589,1.037373 2.1635742,1.571777 C 8.6804945,48.49632 11.350967,50.50807 14,52.5625 c 0.78375,0.599414 1.5675,1.198828 2.375,1.816406 C 17.179375,55.181348 17.179375,55.181348 18,56 c 0,3 0,3 -2.5,5.6875 C 14.2625,62.832188 14.2625,62.832188 13,64 12.391562,63.501133 11.783125,63.002266 11.15625,62.488281 2.789946,55.635294 -5.603397,48.815805 -14,42 c -2.875881,3.390037 -4.979074,6.652181 -6.875,10.667969 -0.510469,1.057676 -1.020937,2.115351 -1.546875,3.205078 -1.056634,2.219193 -2.108683,4.440575 -3.15625,6.664062 -0.510469,1.053809 -1.020937,2.107618 -1.546875,3.19336 -0.456328,0.963171 -0.912656,1.926343 -1.382812,2.918701 C -30.122208,71.192529 -31.21268,71.973073 -34,73 c -1.65,-1.65 -3.3,-3.3 -5,-5 1.937888,-3.469389 3.876806,-6.938199 5.81665,-10.406494 0.981576,-1.755478 1.962352,-3.511403 2.943116,-5.267334 0.621972,-1.111817 1.243945,-2.223633 1.884765,-3.369141 0.85622,-1.531769 0.85622,-1.531769 1.729737,-3.094482 1.076674,-1.895782 2.196842,-3.767564 3.360351,-5.611328 1.515095,-2.122243 1.515095,-2.122243 0.866944,-4.227784 -2.346442,-2.964528 -5.229752,-5.13698 -8.226563,-7.398437 -0.627935,-0.483157 -1.255869,-0.966313 -1.902832,-1.464111 C -34.345675,25.765522 -36.17119,24.380948 -38,23 -38.892031,22.323242 -39.784062,21.646484 -40.703125,20.949219 -42.461966,19.623762 -44.229657,18.310054 -46,17 c 0.723663,-3.344307 1.817155,-5.342623 4,-8 2.749784,1.277032 4.960492,2.652492 7.242188,4.644531 0.591679,0.512403 1.183359,1.024805 1.792968,1.552735 0.607149,0.533027 1.214297,1.066054 1.839844,1.615234 1.795637,1.562011 3.592125,3.122893 5.393555,4.678223 1.148541,1.001167 2.284909,2.016484 3.408203,3.045898 C -20.599585,26.117827 -20.599585,26.117827 -18,28 c 4.040162,-1.346721 4.36741,-3.021479 6.320312,-6.75 0.926192,-1.747969 0.926192,-1.747969 1.8710942,-3.53125 C -9.1636812,16.479365 -8.5191546,15.239779 -7.875,14 -6.6046366,11.581703 -5.3294842,9.165967 -4.0546875,6.75 -3.4924951,5.6723437 -2.9303027,4.5946875 -2.3510742,3.484375 -1,1 -1,1 0,0 Z"
       fill="#f7f8fb"
       transform="translate(678,871)"
       id="path25" /><path
       d="M 0,0 C -0.28466797,1.904541 -0.28466797,1.904541 -1,4 -3.7473074,5.2179107 -6.2561696,6.111391 -9.125,6.9375 -9.9746533,7.1912842 -10.824307,7.4450684 -11.699707,7.706543 -36.292654,14.851037 -62.375141,19.400436 -88,20 c -0.755229,0.02046 -1.510459,0.04093 -2.288574,0.06201 C -110.23642,20.541585 -130.52653,19.571478 -150,15 c -0.90605,-0.211729 -1.8121,-0.423457 -2.74561,-0.641602 C -165.31989,11.383132 -177.73668,8.0757491 -190,4 c 0.33,-1.32 0.66,-2.64 1,-4 1.00934,0.23074219 2.01867,0.46148438 3.05859,0.69921875 12.20269,2.76580785 24.43493,5.37222805 36.73194,7.68505855 2.04027,0.3914169 4.07759,0.7988153 6.11035,1.2275391 43.197914,9.0618236 88.2466,4.3660236 130.120604,-8.1586914 1.685127,-0.50080078 1.685127,-0.50080078 3.4042972,-1.01171875 0.9839576,-0.30220459 1.9679151,-0.60440918 2.9816895,-0.91577148 C -3.9477225,-1.0105993 -2.5120533,-0.89750671 0,0 Z"
       fill="#eef0f5"
       transform="translate(687,655)"
       id="path26" /><path
       d="M 0,0 C 2.5,1.3125 2.5,1.3125 5,3 5,6.461323 4.6482348,6.7450863 2.375,9.1367188 1.8335937,9.7135742 1.2921875,10.29043 0.734375,10.884766 0.16203125,11.479668 -0.4103125,12.07457 -1,12.6875 -1.5723437,13.294004 -2.1446875,13.900508 -2.734375,14.525391 -4.1496339,16.023206 -5.5739728,17.512433 -7,19 c 4.5479963,5.597534 9.5233185,10.314395 15,15 3.934725,-1.311575 5.126834,-3.333834 7.6875,-6.5625 0.808242,-1.011914 1.616484,-2.023828 2.449219,-3.066406 C 18.751602,23.588633 19.366484,22.806172 20,22 c 1.98,1.32 3.96,2.64 6,4 -2.833879,3.379231 -5.656087,6.663729 -8.8125,9.75 C 14.798,37.881713 14.798,37.881713 14,41 c 0.556875,0.223008 1.11375,0.446016 1.6875,0.675781 3.996932,2.288784 6.783936,5.935617 9.875,9.304688 2.178753,2.23334 2.178753,2.23334 4.53125,2.054687 C 32.452495,51.75428 33.789588,50.318044 35.5,48.25 36.099414,47.533281 36.698828,46.816563 37.316406,46.078125 38.149785,45.049453 38.149785,45.049453 39,44 c 0.804375,-0.99 1.60875,-1.98 2.4375,-3 0.515625,-0.66 1.03125,-1.32 1.5625,-2 2.885758,0.398036 3.821895,0.790091 5.75,3.0625 0.4125,0.639375 0.825,1.27875 1.25,1.9375 -0.424102,0.4125 -0.848203,0.825 -1.285156,1.25 -3.85543,3.796115 -7.473001,7.718319 -11.003907,11.816406 C 35.2581,59.838449 32.64889,62.415717 30,65 27.200002,63.715799 25.084751,62.354561 22.855469,60.234375 22.268542,59.680964 21.681616,59.127554 21.076904,58.557373 20.453401,57.96094 19.829897,57.364507 19.1875,56.75 17.84384,55.480373 16.500088,54.210845 15.15625,52.941406 14.46918,52.289302 13.782109,51.637197 13.074219,50.965332 9.7934898,47.856826 6.4915709,44.771158 3.1875,41.6875 2.5647217,41.106052 1.9419434,40.524604 1.300293,39.925537 -8.0184482,31.069709 -8.0184482,31.069709 -18,23 c 1.395573,-3.045583 3.050125,-5.464553 5.1875,-8.039062 0.924258,-1.117618 0.924258,-1.117618 1.867187,-2.257813 C -9.9823828,11.550703 -9.9823828,11.550703 -9,10.375 -8.3580469,9.5989844 -7.7160937,8.8229687 -7.0546875,8.0234375 -2.32956,2.32956 -2.32956,2.32956 0,0 Z"
       fill="#f6f8fb"
       transform="translate(815,779)"
       id="path27" /><path
       d="m 0,0 c 9.57,0 19.14,0 29,0 0,1.98 0,3.96 0,6 -6.93,0 -13.86,0 -21,0 0,7.59 0,15.18 0,23 5.94,0 11.88,0 18,0 0,2.31 0,4.62 0,7 -1.479052,0.02779 -2.958271,0.04674 -4.4375,0.0625 -1.235566,0.0174 -1.235566,0.0174 -2.496094,0.03516 C 15.02971,35.969099 11.014041,35.446005 7,35 c 0,7.59 0,15.18 0,23 7.26,0 14.52,0 22,0 0,2.64 0,5.28 0,8 C 22.237384,66.110976 15.662144,65.692587 8.9375,65 7.9765039,64.904609 7.0155078,64.809219 6.0253906,64.710937 3.6831708,64.477881 1.3414304,64.240837 -1,64 -1.1030276,42.63367 -1.1233484,21.343619 0,0 Z"
       fill="#f8fafc"
       transform="translate(586,881)"
       id="path28" /><path
       d="m 0,0 c 0.33,1.65 0.66,3.3 1,5 -6.1250104,2.2065425 -12.15964,3.7845516 -18.5625,4.9375 -1.338893,0.247137 -1.338893,0.247137 -2.704834,0.499268 C -23.176463,10.968236 -26.087704,11.486177 -29,12 c -1.543008,0.273604 -1.543008,0.273604 -3.117187,0.552734 -3.147002,0.55364 -6.295634,1.096581 -9.445313,1.634766 -0.961721,0.166853 -1.923442,0.333706 -2.914307,0.505615 C -77.778031,20.26193 -110.90053,15.315263 -143,6 c 0.66,-1.65 1.32,-3.3 2,-5 8.54388,0.6446646 16.7441,2.2878517 25.10742,4.0957031 14.44511,3.0158132 28.838364,4.3426297 43.58008,4.3417969 0.744192,0.00173 1.488384,0.00346 2.255127,0.00525 C -54.325307,9.4268951 -39.407558,7.2163537 -24,4 c 1.006919,-0.2077002 2.013838,-0.4154004 3.05127,-0.6293945 5.148715,-1.0668548 5.148715,-1.0668548 10.282714,-2.2016602 C -7.0425283,0.34914409 -3.7197418,-0.19577589 0,0 Z"
       fill="#f0f2f6"
       transform="translate(663,679)"
       id="path29" /><path
       d="m 0,0 c 4.7484255,2.1470367 7.4949442,4.4942818 9.7695313,9.3164063 1.3725967,4.8354867 1.4887687,8.6982987 -0.625,13.3124997 -2.8992793,5.011469 -6.7901205,8.09182 -12.3750001,9.6875 -5.518299,0.728832 -8.7642252,-0.43106 -13.1992182,-3.53125 -3.584695,-2.923742 -5.50907,-5.432847 -6.175782,-10.085937 -0.258455,-5.960635 0.240018,-9.8008054 4.375,-14.3828128 C -12.512367,-0.72096878 -7.4843237,-2.2937945 0,0 Z"
       fill="#fafbfd"
       transform="translate(911.23047,583.68359)"
       id="path30" /><path
       d="m 0,0 c 4.7395607,2.1430284 7.6681295,4.4131356 9.7695313,9.3164063 0.7393607,5.6068197 0.7764797,10.3275827 -1.625,15.4999997 -4.2508043,4.474531 -8.39411277,7.149308 -14.5625,7.875 C -11.974489,32.144863 -15.871639,29.919709 -19.625,25.777344 -22.82064,21.012114 -23.142858,15.892121 -22.230469,10.316406 -17.655104,1.1656762 -9.8760356,-3.026806 0,0 Z"
       fill="#fbfcfd"
       transform="translate(302.23047,585.68359)"
       id="path31" /><path
       d="M 0,0 C 2.31,0.33 4.62,0.66 7,1 6.855625,1.6290625 6.71125,2.258125 6.5625,2.90625 4.4546675,12.479112 4.4546675,12.479112 6.0625,22 c 1.837854,2.316157 1.837854,2.316157 5.027344,2.378906 5.598731,-0.542534 9.70709,-2.978656 14.59375,-5.623047 C 30.55755,16.265999 33.48814,15.584235 39,17 c 4.024293,1.437247 5.715347,3.72913 7.8125,7.3125 3.684087,7.949261 3.386122,16.823919 0.6875,25.0625 -0.495,1.19625 -0.99,2.3925 -1.5,3.625 -2.31,-0.33 -4.62,-0.66 -7,-1 0.144375,-0.689648 0.28875,-1.379297 0.4375,-2.089844 2.399498,-10.684993 2.399498,-10.684993 0,-20.972656 C 36.056727,26.250219 34.273588,26.591558 30,27 27.017561,28.094043 24.24609,29.522057 21.4375,31 12.258853,35.804384 12.258853,35.804384 7,35 4.953125,33.898437 4.953125,33.898437 3.25,32.375 2.6776563,31.887734 2.1053125,31.400469 1.515625,30.898437 -2.6126724,25.727426 -2.3080204,19.660541 -2.25,13.375 c -0.00773,-0.845625 -0.015469,-1.69125 -0.023437,-2.5625 0.00258,-0.8172656 0.00516,-1.6345312 0.00781,-2.4765625 0.00226,-0.7368604 0.00451,-1.4737207 0.00684,-2.2329102 C -1.9651298,3.7166301 -1.181778,2.0777934 0,0 Z"
       fill="#f4f6fa"
       transform="translate(840,743)"
       id="path32" /><path
       d="M 0,0 C 2.1651774,1.2232862 4.0282847,2.4789625 6,4 5.25,6.4375 5.25,6.4375 4,9 2.1757813,9.8085938 2.1757813,9.8085938 0,10 -2.0351563,9.0390625 -2.0351563,9.0390625 -4.0625,7.625 -8.2025741,4.780189 -11.148358,3.8720566 -16.1875,3.9375 -17.088555,3.94652 -17.989609,3.955547 -18.917969,3.964844 -19.948574,3.9822461 -19.948574,3.9822461 -21,4 c 0.01571,0.822019 0.03142,1.6440381 0.04761,2.4909668 0.06244,3.7321072 0.101414,7.4641052 0.139893,11.1965332 0.02514,1.293574 0.05027,2.587148 0.07617,3.919922 0.0097,1.247168 0.01934,2.494336 0.0293,3.779297 0.01571,1.146863 0.03142,2.293725 0.04761,3.475342 C -21.040114,32.369597 -21.903672,34.191076 -24,37 c -5.066904,3.583908 -10.024924,3.652816 -16,3 -7.105847,-1.452643 -12.967767,-5.108643 -19,-9 0.3125,-2.375 0.3125,-2.375 1,-5 0.99,-0.66 1.98,-1.32 3,-2 0.675469,0.409922 1.350938,0.819844 2.046875,1.242187 0.892031,0.538829 1.784062,1.077657 2.703125,1.632813 0.881719,0.533672 1.763438,1.067344 2.671875,1.617187 C -43.149395,31.082323 -40.266536,32.752362 -35,32 c 3.202992,-1.532155 3.202992,-1.532155 5,-5 0.132632,-4.382901 -0.464339,-8.655194 -1,-13 C -32.019066,3.5411646 -32.019066,3.5411646 -28.1875,-1.125 -20.289017,-9.2770141 -8.6956022,-4.0282776 0,0 Z"
       fill="#f6f8fa"
       transform="translate(376,771)"
       id="path33" /><path
       d="M 0,0 C 1.134375,0.020625 2.26875,0.04125 3.4375,0.0625 3.4026953,1.2316797 3.3678906,2.4008594 3.3320313,3.6054688 3.3038828,5.1536314 3.2765838,6.7018097 3.25,8.25 3.224863,9.0189258 3.199727,9.7878516 3.173828,10.580078 3.12835,14.112224 3.3287029,16.753517 4.5117186,20.113281 6.3709297,22.361852 6.3709297,22.361852 9.6367187,22.683594 14.475378,21.892898 17.346652,19.971919 21.25,17.125 c 1.318676,-0.926258 2.637671,-1.852061 3.957031,-2.777344 1.066055,-0.754101 2.13211,-1.508203 3.230469,-2.285156 3.064298,-1.532149 5.616564,-1.229385 9,-1 5.165692,2.213868 8.730082,6.333392 11.132324,11.377686 0.90859,2.745966 1.098343,4.822992 1.062988,7.704345 -0.0064,0.931348 -0.01289,1.862696 -0.01953,2.822266 -0.01676,0.959707 -0.03352,1.919414 -0.05078,2.908203 -0.009,0.979043 -0.01805,1.958086 -0.02734,2.966797 -0.02348,2.407154 -0.05633,4.8138 -0.09766,7.220703 -2.31,-0.33 -4.62,-0.66 -7,-1 -0.01458,-0.554619 -0.02916,-1.109238 -0.04419,-1.680664 C 42.318631,40.858038 42.22204,38.335533 42.125,35.8125 42.091162,34.503457 42.091162,34.503457 42.056641,33.167969 41.852565,28.145572 41.852565,28.145572 40.121094,23.492187 37.79571,21.5175 35.6623,21.395554 32.675781,21.542969 28.305605,22.557338 25.010436,25.467868 21.4375,28.0625 17.505792,30.581657 13.897389,32.741324 9.3125,33.75 4.9804389,32.714072 2.3255175,30.396515 -0.5625,27.0625 -4.1942935,21.040326 -4.7018999,14.695666 -4.6875,7.8125 -4.6900781,6.5698438 -4.6926562,5.3271875 -4.6953125,4.046875 -4.5029652,-0.27528117 -4.4358245,0.07782148 0,0 Z"
       fill="#f6f8fb"
       transform="translate(866.5625,697.9375)"
       id="path34" /><path
       d="M 0,0 C 2.8605891,1.3593708 4.859277,2.6452047 7,5 5.6851643,7.9183422 4.2836672,9.9492093 1.9882812,12.171875 1.3990185,12.749536 0.80975586,13.327197 0.20263672,13.922363 -0.4211084,14.525483 -1.0448535,15.128604 -1.6875,15.75 c -4.3453196,4.266453 -8.542834,8.54273 -12.476563,13.195312 -2.99076,3.347107 -6.214921,6.460501 -9.414306,9.606934 -3.570921,3.531929 -6.881693,7.191648 -10.019287,11.119629 C -35,51 -35,51 -38,51 c -2.6875,-1.875 -2.6875,-1.875 -5,-4 0,-2 0,-2 2.156738,-4.283936 C -39.904985,41.819763 -38.966709,40.923462 -38,40 c 0.87769,-0.872454 1.755381,-1.744907 2.659668,-2.643799 0.934731,-0.928367 1.869463,-1.856733 2.83252,-2.813232 1.585194,-1.577809 3.169902,-3.156105 4.754394,-4.734619 1.081128,-1.076104 2.163153,-2.151307 3.246094,-3.225586 C -18.449252,20.571689 -12.507494,14.528229 -7,8 -3.5,4 -3.5,4 0,0 Z"
       fill="#f7f9fb"
       transform="translate(399,799)"
       id="path35" /><path
       d="m 0,0 c 3.0390615,2.0983996 4.2524395,3.3810987 5.625,6.8125 0.7349678,7.594667 -1.130167,12.92702 -6,18.875 -2.0915266,2.429221 -2.8508967,3.075299 -6,4.125 -1.8563823,-3.806191 -3.707656,-7.61481 -5.554199,-11.425781 -0.629128,-1.296582 -1.259656,-2.592485 -1.891602,-3.887696 C -14.727962,12.63913 -15.630088,10.776869 -16.53125,8.9140625 -17.348193,7.2330444 -17.348193,7.2330444 -18.181641,5.5180664 -19.375,2.8125 -19.375,2.8125 -19.375,0.8125 -12.754453,-1.4413031 -6.7208702,-2.3647506 0,0 Z"
       fill="#124393"
       transform="translate(728.375,865.1875)"
       id="path36" /><path
       d="M 0,0 C 9.3935594,-0.14256667 18.640722,0.27507668 28,1 23.871388,9.2572239 17.559879,16.540678 11,23 9.3470388,19.920437 7.7038983,16.835739 6.0625,13.75 5.5939258,12.877305 5.1253516,12.004609 4.6425781,11.105469 4.1946289,10.261133 3.7466797,9.4167969 3.2851563,8.546875 2.8714478,7.7718262 2.4577393,6.9967773 2.0314941,6.1982422 1.0607156,4.1293925 0.46441571,2.2309731 0,0 Z"
       fill="#174795"
       transform="translate(306,723)"
       id="path37" /><path
       d="m 0,0 c -0.96355353,19.004556 -0.96355353,19.004556 -2,27 -4.9407793,-1.74264 -9.312813,-4.359781 -13.8125,-7 -0.788262,-0.451172 -1.576523,-0.902344 -2.388672,-1.367188 -0.744433,-0.435703 -1.488867,-0.871406 -2.255859,-1.320312 -0.680384,-0.395742 -1.360767,-0.791484 -2.061768,-1.199219 C -23.007595,15.745898 -23.496392,15.378516 -24,15 c 0,-0.66 0,-1.32 0,-2 1.987793,-1.42041 1.987793,-1.42041 4.742188,-3.0390625 0.983554,-0.5800781 1.967109,-1.1601562 2.980468,-1.7578125 C -15.23707,7.5998437 -14.196797,6.9965625 -13.125,6.375 -12.092461,5.7639844 -11.059922,5.1529688 -9.9960938,4.5234375 -2.2719203,0 -2.2719203,0 0,0 Z"
       fill="#164694"
       transform="translate(438,845)"
       id="path38" /><path
       d="m 0,0 c 0.66,0.33 1.32,0.66 2,1 -12.87,12.87 -25.74,25.74 -39,39 -0.66,-0.33 -1.32,-0.66 -2,-1 6.813229,-7.688323 13.932245,-15.041211 21.1875,-22.3125 1.264087,-1.270854 1.264087,-1.270854 2.553711,-2.567383 C -10.335809,9.2087256 -5.3056327,4.4961895 0,0 Z"
       fill="#c7c7c7"
       transform="translate(331,288)"
       id="path39" /></g></svg>
