<svg xmlns="http://www.w3.org/2000/svg" width="24" height="24"><path fill="#d85944" fill-rule="evenodd" d="M11.13 3.96q-.06.16-.26.1c-.2-.05-1.15.51-1.78 1.06-.37.32-.8 1.03-.78 1.3.01.13-.03.36-.1.51-.06.16-.11.5-.11.75q0 .5-.1.32c-.1-.15-.06.36.07.9l.1.43c.04.21.52 1.07.6 1.07q.04-.02 0-.14c-.11-.29.18-.05.43.34.13.22.29.4.35.4s.19.08.3.17q.27.2.02.1-.19-.07-.14.05c.02.07.17.13.33.14.16 0 .36.03.44.06.33.13 1.24.28 1.63.27.58 0 1.65-.3 2.08-.57.2-.12.55-.42.78-.67.36-.39.54-.7 1.04-1.82.05-.12.07-.57.04-1-.04-.68-.1-.9-.51-1.69-.46-.89-.48-.91-1.28-1.4a5 5 0 0 0-.9-.46q-.07 0-.08-.08t-.07-.09c-.27.04-.63-.03-.58-.11.04-.06-.22-.1-.7-.1-.6 0-.77.03-.82.16m1.57.54c0 .05.1.1.21.1.31 0 1.36.59 1.65.92q.23.29.24.15c0-.23-.79-.86-1.22-.97-.2-.06-.4-.15-.43-.2-.08-.13-.45-.13-.45 0m.13.8c-.26.15-.33.28-.4.67-.1.58-.1 4.4 0 4.5.2.18.42-.16.45-.66.02-.28.06-.51.09-.51s.24.17.47.38l.7.6c.15.11.25.26.21.32q-.13.22.3-.06c.15-.1.24-.23.2-.3q-.02-.13.1-.14c.1 0 .24-.18.3-.4 0-.03.1-.31.23-.63.23-.6.28-1.12.13-1.21-.05-.03-.1.17-.1.44 0 .58-.41 1.6-.64 1.6a4 4 0 0 1-1.17-1c0-.04.16-.27.35-.5.42-.5.47-.9.12-.9q-.46.02-.47.47c0 .14-.17.41-.4.66l-.42.42.06-1.2c.03-.66.13-1.5.2-1.85.23-1.01.23-1.03-.3-.7m-3.68.4q-.35.3-.48.24-.11-.06-.06 0 .05.1-.08.23-.12.15-.1.21.07.04.18-.06c.22-.22.29-.12.13.18-.08.16-.15.35-.14.42s.1-.1.23-.37.35-.65.5-.82q.51-.62-.18-.02m1.41.1c-1.29.85-1.9 2.5-1.37 3.66.27.61.7.85 1.43.8.47-.03.63-.09.88-.33.56-.52.77-1.14.39-1.14q-.18.01-.2.1c0 .06-.12.22-.26.35-.2.19-.38.25-.7.25-.55 0-.87-.28-1.04-.9-.23-.84.18-1.56 1.44-2.57.28-.24.3-.46.05-.5-.08-.02-.36.1-.62.27m-2.85 6.36c-.18.14-.4.4-.48.56-.18.35-.13.93.1 1.16.22.23.77.18 1-.1q.19-.24.25-.1.07.16.29-.12.37-.48.47-.03c.06.2.13.24.55.25.37 0 .52-.04.6-.16.1-.16.1-.16.24 0 .12.16.15.16.26.03.16-.2.29-.19.51.01.17.15.2.14.38-.17.25-.4.29-.75.06-.45a1 1 0 0 0-.15.3q-.01.07-.18-.07c-.23-.2-.27-.2-.46-.02-.13.13-.15.13-.21-.05-.07-.22-.2-.26-.3-.1q-.07.09-.29-.05c-.2-.14-.25-.13-.5.06-.22.17-.26.18-.26.04 0-.26-.3-.3-.54-.06-.3.29-.36.18-.3-.57.04-.63-.06-.8-.26-.42-.06.11-.08.42-.04.76.05.42.04.55-.04.5q-.11-.06-.12.03-.02.1-.2.2c-.25.14-.57-.04-.63-.36-.05-.26.23-.77.53-.95.2-.12.28-.38.13-.38-.05 0-.23.12-.4.26m4.8-.08q-.26.16-.38 1.2-.08.63.04.62.1-.01.11-.15c0-.22.07-.19.4.18.26.3.3.3.36.13q.07-.19-.04-.24c-.07-.02-.17-.13-.23-.24-.08-.15-.07-.24.06-.38q.15-.17.06-.24c-.05-.04-.2.03-.3.16-.25.26-.26.17-.05-.45q.25-.75-.03-.59m3.54.38c-.13.37-.14.45-.03.4.08-.02.24.02.36.1.27.2.32.15.34-.36.02-.3-.01-.4-.14-.4a.4.4 0 0 1-.26-.1q-.1-.09-.27.36m-1.21.4c-.32.32-.08.82.34.7.16-.06.2-.03.2.14q-.01.21-.2.27c-.26.07-.26.23 0 .23s.41-.32.39-.83c-.02-.24 0-.49.05-.55.11-.19-.6-.15-.78.04m-1.8.2c-.1.25-.07.54.04.54a1 1 0 0 0 .35-.16c.23-.15.25-.15.25 0 0 .22.17.2.3-.04.14-.26.28-.25.32.02.05.37.28.34.28-.04 0-.43-.06-.5-.36-.38q-.23.09-.24 0c0-.18-.3-.1-.42.1q-.12.18-.2.2-.05-.02 0-.2c.05-.24-.23-.28-.32-.04m3.04.3q0 .13-.1.14-.07.02-.05.18l.04.26c0 .04.13.05.27.02.21-.06.25-.04.2.08q-.04.15.04.16.1-.01.1-.14.01-.14.13-.2.15-.06 0-.12c-.08-.03-.1-.15-.08-.27.05-.19.01-.22-.25-.23q-.3 0-.3.12"/></svg>