<?xml version="1.0" encoding="UTF-8" standalone="no"?>
<svg
   viewBox="0 0 24 24"
   width="24pt"
   height="24pt"
   version="1.1"
   id="svg1"
   sodipodi:docname="cineworld.svg"
   xml:space="preserve"
   inkscape:version="1.3 (0e150ed6c4, 2023-07-21)"
   xmlns:inkscape="http://www.inkscape.org/namespaces/inkscape"
   xmlns:sodipodi="http://sodipodi.sourceforge.net/DTD/sodipodi-0.dtd"
   xmlns="http://www.w3.org/2000/svg"
   xmlns:svg="http://www.w3.org/2000/svg"><defs
     id="defs1" /><sodipodi:namedview
     id="namedview1"
     pagecolor="#ffffff"
     bordercolor="#000000"
     borderopacity="0.25"
     inkscape:showpageshadow="2"
     inkscape:pageopacity="0.0"
     inkscape:pagecheckerboard="0"
     inkscape:deskcolor="#d1d1d1"
     inkscape:document-units="pt"
     inkscape:zoom="11.546875"
     inkscape:cx="8.0541272"
     inkscape:cy="19.529093"
     inkscape:window-width="1920"
     inkscape:window-height="974"
     inkscape:window-x="-11"
     inkscape:window-y="1609"
     inkscape:window-maximized="1"
     inkscape:current-layer="svg1" /><style
     type="text/css"
     id="style1">&#10;	.st0{fill:#E52728;}&#10;</style><g
     id="g1"
     transform="matrix(0.03433635,0,0,0.03433635,1.0747589,3.0059289)"><path
       class="st0"
       d="m 115.8,202.6 c 0,0 11.4,-15.2 15.9,-21.3 l 4.1,21 H 158 l -21.1,15.8 c 0,0 1.3,21.2 1.7,28.5 l -21.8,-16 -27.8,15.2 c 5.7,-9.1 16.3,-26.2 16.3,-26.2 l -12.8,-17 m 90.3,-8.9 h -38.7 c -0.7,-3.4 -7,-33.5 -7,-33.5 0,0 -24,31.9 -25.4,33.8 H 74.4 c 0,0 17.8,24.5 19.6,26.8 L 66,268 114.7,241.6 149,266.9 c 0,0 -2.2,-43.2 -2.3,-45.6 l 36.1,-27.6"
       id="path1-8" /><polyline
       points="495.6,192.3 495.6,258.6 504.8,258.6 504.8,192.3 504,192.3 "
       id="polyline1" /><path
       d="m 472.5,216.1 v -3.9 h -8.9 v 46.4 h 9.2 v -26.7 c -0.2,-3.3 1.1,-6.4 3.5,-8.7 2.5,-2.3 6.2,-3.4 10.6,-3.2 h 0.8 v -8.7 l -0.7,-0.1 c -5.4,-0.7 -10.7,1.2 -14.5,4.9"
       id="path2" /><path
       d="m 403,212.2 h -8.6 c 0,0 -7.9,27.4 -9.2,31.7 -1.3,-4.3 -9.3,-31.7 -9.3,-31.7 h -9.1 c 0,0 -8,27.4 -9.3,31.8 -1.3,-4.3 -9.3,-31.8 -9.3,-31.8 h -9.7 l 14.3,46.4 h 9 c 0,0 8,-27.9 9.3,-32.3 1.3,4.4 9.3,32.3 9.3,32.3 h 9.1 l 14.3,-46.4"
       id="path3" /><polyline
       points="234.2,197.2 225.9,197.2 224.6,207.5 233.8,207.5 235.1,197.2 "
       id="polyline3" /><path
       d="m 264.6,211.7 c -4.9,0 -9.6,1.8 -13.2,4.9 0.2,-1.4 0.5,-3.8 0.5,-3.8 H 243 l -5.9,46.4 h 9.1 l 3.6,-28.1 c 0.9,-6.4 6.4,-11.1 12.8,-11.1 3,0 5.4,0.9 7,2.6 1.8,2 2.5,4.9 2,8.5 l -3.5,28.1 h 9.1 l 3.5,-27.7 c 0.8,-6.3 -0.5,-11.5 -3.7,-15 -2.9,-3 -7.2,-4.7 -12.4,-4.8"
       id="path4" /><polyline
       points="223.9,212.9 218.1,259.3 227.2,259.3 233.1,212.9 232.3,212.9 "
       id="polyline4" /><path
       d="m 195,220.1 c 5.1,-0.2 9.8,2.9 11.6,7.7 l 0.2,0.5 h 9.6 l -0.2,-0.9 c -2.1,-9.6 -9.9,-15.6 -20.4,-15.6 -13.2,0 -25.2,10.9 -26.9,24.3 -0.9,6.3 1,12.8 5.2,17.6 4,4.4 9.8,6.8 15.7,6.7 10.4,0 19.8,-6 24.1,-15.5 l 0.5,-1.1 h -9.8 l -0.2,0.4 c -2.9,4.8 -8.1,7.8 -13.7,7.8 -3.5,0.1 -6.9,-1.4 -9.3,-4 -2.8,-3.3 -4,-7.6 -3.4,-11.8 1.2,-8.9 8.8,-16.1 17,-16.1"
       id="path5" /><path
       d="m 562,258.6 v -66.4 h -9.2 v 25.5 c -3.9,-4.2 -9.3,-6.6 -14.9,-6.7 -13.4,0 -23.9,10.7 -23.9,24.4 -0.2,13.2 10.2,24 23.4,24.3 0.2,0 0.3,0 0.5,0 5.8,0 11.3,-2.6 15.2,-6.9 v 5.8 m 0.1,-23.1 c 0,8.8 -7,16.3 -15.3,16.3 -8.3,0 -15.2,-7.3 -15.2,-16.3 0,-9.2 6.7,-16.5 15.2,-16.5 8.5,0 15.3,7.4 15.3,16.5"
       id="path6" /><path
       d="m 454.5,235.6 c 0,-13.7 -10.5,-24.5 -24,-24.5 -13.5,0 -24,10.8 -24,24.5 0,13.3 10.7,24 24,24 13.3,0 24,-10.8 24,-24 m -8.8,-0.1 c 0,8.9 -6.8,16.2 -15.2,16.2 -8.4,0 -15.1,-7.3 -15.1,-16.2 0,-9.1 6.8,-16.6 15.1,-16.6 8.3,0 15.2,7.4 15.2,16.6"
       id="path7" /><path
       d="m 334.4,234 c 0.2,-5.7 -1.8,-11.2 -5.5,-15.6 -4,-4.4 -9.7,-6.8 -15.6,-6.7 -13.2,0 -25.3,10.9 -27,24.3 -1.9,11.4 5.8,22.1 17.2,24 1.4,0.2 2.9,0.3 4.3,0.3 10.9,0 19.8,-5.6 24.4,-15.4 l 0.5,-1.1 H 323 l -0.2,0.4 c -2.9,5 -8.3,8.1 -14.1,7.9 -3.5,0.1 -7,-1.3 -9.5,-3.8 -2.5,-2.6 -3.9,-6 -3.8,-9.6 H 334 l 0.1,-0.6 c 0.2,-1.4 0.3,-2.7 0.3,-4.1 m -9.1,-3.1 h -28.9 c 3.1,-7.5 10.4,-11.4 16,-11.4 6.6,0 11.8,4.7 12.9,11.4"
       id="path8" /></g></svg>
