<svg xmlns="http://www.w3.org/2000/svg" width="24" height="24"><path fill="#544192" fill-rule="evenodd" d="M5.7 8.9V11h1V6.8h-1zm5.13-1.84c-.15.24-.15.3-.02.53.28.5 1.09.32 1.09-.24 0-.54-.77-.75-1.07-.29m7.13.68c-.33.94-.33.98.05.94.28-.03.36-.12.76-.85l.45-.83h-1zm-9.83.37c-.74.15-1.16.7-1.17 1.52 0 1.04 1.14 1.78 2.05 1.32.16-.09.29-.11.29-.05s.24.1.55.1h.55V8.1h-.5c-.27 0-.52.05-.55.1a.12.12 0 0 1-.17.04c-.21-.13-.74-.2-1.05-.13m-4.44.22c-1.25.83-.64 2.76.88 2.77.63 0 .73-.07.73-.5 0-.38 0-.39-.32-.33-.73.11-1.15-.68-.63-1.17.2-.19.3-.22.65-.16l.4.06v-.39c0-.46-.09-.51-.84-.51-.38 0-.62.06-.87.23m7.18-.17c-.04.04-.07.7-.07 1.46V11h1.11l-.03-1.42-.03-1.43-.45-.03c-.25-.02-.49 0-.53.04m1.4 0c-.04.04-.07.7-.07 1.46V11h1.1v-.8c0-.97.17-1.23.78-1.18l.37.03.03-.47c.03-.47.02-.48-.25-.48-.15 0-.42.09-.6.2-.3.18-.31.18-.36 0-.04-.16-.14-.2-.5-.2-.24 0-.47.03-.5.07m3.04.1c-.55.28-.76.65-.76 1.31.01.97.61 1.52 1.65 1.52.8 0 1.5-.4 1.5-.87 0-.18-.8-.16-1.04.02-.27.2-.7.19-.9-.03-.33-.37-.21-.42.95-.42h1.12l-.06-.4c-.1-.83-.67-1.3-1.57-1.3-.33 0-.69.07-.9.18m3.61-.05c-.5.3-.66 1-.3 1.33.11.1.4.24.62.3q.41.1.45.28c.03.16-.01.18-.35.13a4 4 0 0 1-.58-.11c-.17-.06-.24 0-.37.28l-.17.34.4.16c1.07.43 2.19-.04 2.19-.91q.01-.63-.85-.84-.44-.12-.45-.26c0-.12.1-.15.44-.1.39.04.45.02.55-.2q.1-.23.28-.16c.16.06.16.05-.01-.12-.25-.25-1.48-.33-1.85-.12m-3.09.63q-.54.35.33.34c.43 0 .55-.03.55-.15 0-.09-.12-.2-.26-.25-.33-.13-.36-.13-.62.06M8.42 9c-.28.12-.44.52-.33.84.16.4.77.5 1.11.16q.4-.41-.05-.85c-.26-.27-.37-.29-.73-.15"/></svg>