<?xml version="1.0" encoding="UTF-8" standalone="no"?>
<svg
   viewBox="0 0 24 24"
   width="24pt"
   height="24pt"
   version="1.1"
   id="svg1"
   xml:space="preserve"
   xmlns="http://www.w3.org/2000/svg"
   xmlns:svg="http://www.w3.org/2000/svg"><defs
     id="defs1" /><path
     d="m 7.8212856,5.7631447 c -0.484138,0.136716 -0.625781,0.220757 -1.120676,0.664785 -0.612209,0.54938 -0.909468,1.631352 -0.680668,2.477589 0.300676,1.1122313 1.396119,1.8680943 2.69523,1.8597503 0.824522,-0.0053 1.249249,-0.119728 1.6889544,-0.455187 0.441213,-0.3364633 0.858501,-1.1854143 0.840909,-1.7103663 -0.0089,-0.267101 -0.02865,-0.320882 -0.057,-0.156219 -0.238852,1.387976 -0.997529,2.1116713 -2.2122984,2.1104643 -0.809645,-7.07e-4 -1.28564,-0.155515 -1.739319,-0.5653643 -0.8585,-0.775566 -0.997127,-2.276233 -0.299369,-3.239483 0.850861,-1.174658 2.803296,-1.154553 3.4928124,0.03599 l 0.232719,0.401806 -0.06263,-0.402108 C 10.56557,6.5636417 10.51752,6.3092087 10.49319,6.2193367 10.381809,5.8084817 8.6860188,5.5188637 7.8212858,5.7631447 m 7.9802382,0.0016 c -0.550587,0.305501 -0.799291,1.174859 -0.470467,1.644421 0.08344,0.119124 0.533095,0.51892 0.999239,0.888256 1.108612,0.878506 1.336004,1.342438 1.023968,2.0890533 -0.187785,0.449456 -0.613718,0.7058 -1.186621,0.714143 -0.567274,0.0082 -0.954806,-0.239455 -1.225023,-0.783205 -0.173308,-0.3489303 -0.17552,-0.4078393 -0.03136,-0.8458353 0.182858,-0.555412 0.146367,-0.669108 -0.0764,-0.238249 -0.31475,0.608792 -0.153807,1.4054683 0.367828,1.8201423 0.235133,0.18698 0.463329,0.257249 0.931383,0.287105 0.836586,0.05328 1.393204,-0.219953 1.664225,-0.817083 0.42724,-0.9410343 0.161447,-1.5807883 -1.049904,-2.5266463 -0.476297,-0.372051 -0.933796,-0.773053 -1.01653,-0.891173 -0.231513,-0.330533 -0.180345,-0.658351 0.155114,-0.99381 0.255539,-0.255539 0.358479,-0.295449 0.628294,-0.243677 0.17753,0.03408 0.424525,0.17753 0.548877,0.318972 l 0.226186,0.257048 v -0.346716 c 0,-0.223472 -0.0566,-0.368432 -0.159034,-0.407738 -0.274539,-0.105352 -1.0874,-0.05951 -1.329771,0.07499 m -3.788864,0.03488 c 0.420304,0.09842 0.452472,0.272428 0.450864,2.436876 -8.96e-4,1.136759 -0.03478,2.1157923 -0.07539,2.1758063 -0.04061,0.06001 -0.164362,0.160442 -0.274942,0.223171 -0.192911,0.109373 -0.191303,0.114098 0.03931,0.117113 0.132193,0.0016 0.901225,0.294143 1.70896,0.650008 1.712779,0.754556 2.3653,0.87931 3.251647,0.621659 0.305501,-0.08887 0.662573,-0.248502 0.79356,-0.354759 0.237244,-0.19251 0.236038,-0.192711 -0.31475,-0.04454 -0.338877,0.09118 -0.766921,0.128072 -1.105797,0.0954 -0.611004,-0.05891 -3.16429,-0.795974 -3.381227,-0.976017 -0.10877,-0.09027 -0.137219,-0.599845 -0.137219,-2.4555743 v -2.341677 l 0.276449,-0.10103 c 0.221864,-0.08102 0.107665,-0.100225 -0.57803,-0.09721 -0.469964,0.002 -0.764006,0.02493 -0.653426,0.05077"
     stroke="none"
     fill="#121248"
     fill-rule="evenodd"
     id="path1-8"
     style="stroke-width:0.100527;fill:#ffffff" /></svg>
