<svg xmlns="http://www.w3.org/2000/svg" width="24" height="24"><path fill="#fbfbfb" fill-rule="evenodd" d="M4 6.84c0 .15-.74.86-.9.86-.06 0-.1.5-.1 1.27v1.28l.37.2c.2.11.44.35.52.52l.16.33h15.9l.2-.33c.11-.17.35-.4.52-.52l.32-.2v-2.5l-.32-.2a2 2 0 0 1-.52-.52l-.2-.32h-7.97C5.25 6.7 4 6.71 4 6.83M5.3 8.2c-.51.15-.82.47-.78.83q.07.68 1.26.74c.57.03.71 0 .95-.18.15-.12.26-.24.23-.27s-.15.04-.27.16a.94.94 0 0 1-1.24-.04c-.79-.78.45-1.66 1.26-.9l.29.29v-.3c0-.25-.04-.3-.27-.3-.16 0-.46-.03-.68-.07a2 2 0 0 0-.75.04m2.94 0c-.56.13-.86.43-.82.81.05.49.45.72 1.32.76 1.24.07 2-.43 1.66-1.08-.23-.42-1.36-.68-2.16-.5M11.2 9l-.76.79h.45c.4 0 .43-.01.26-.13-.29-.22-.08-.37.5-.37q.53 0 .66.16c.1.13.1.17-.02.25q-.12.08.61.08c.41 0 .68-.03.58-.06a4 4 0 0 1-.78-.79c-.34-.4-.64-.73-.68-.73s-.4.37-.82.8m2.8-.59c-.37.25-.45.45-.36.83.16.65 2.17.8 2.4.17.04-.08-.06-.04-.2.07-.4.32-1.06.29-1.34-.06-.25-.32-.21-.8.07-1 .3-.22.88-.16 1.22.13l.31.26v-.57l-.88-.03c-.78-.03-.9-.01-1.22.2m2.63-.15c.14.04.17.16.17.68 0 .5-.04.66-.18.74s0 .1.48.1c.36 0 .6-.03.52-.06-.06-.02-.12-.2-.12-.39V9h1v.34q0 .35-.18.4c-.1.02.14.04.53.04.38 0 .62-.02.52-.05-.14-.04-.17-.16-.17-.73q0-.68.13-.73c.06-.03-.17-.05-.53-.05s-.57.02-.48.05q.18.04.18.34c0 .28-.01.29-.5.29s-.5 0-.5-.3c0-.15.06-.3.13-.33.06-.03-.17-.05-.53-.05s-.57.02-.48.05m-8.33.2c-.2.24-.17.92.06 1.09.28.21.91.18 1.15-.06s.26-.67.04-.98c-.12-.18-.25-.22-.63-.22q-.49 0-.62.16m3.18.42c-.24.27-.21.32.18.32q.59.02.17-.34c-.18-.15-.2-.15-.35.02"/></svg>