<svg xmlns="http://www.w3.org/2000/svg" width="24" height="24"><path fill="#e63721" fill-rule="evenodd" d="M4.43 7.2a1 1 0 0 0-.33.3.4.4 0 0 1-.36.2c-.14 0-.36.12-.5.26-.21.2-.25.31-.2.57.08.4.08.54 0 .92-.07.4.26.85.63.85.15 0 .36.12.53.3q.28.3.55.3t.55-.3c.17-.18.38-.3.53-.3.47 0 .86-.77.55-1.08-.09-.09-.09-.18 0-.37.07-.14.12-.35.12-.46 0-.27-.44-.69-.72-.69-.12 0-.31-.11-.43-.25a.8.8 0 0 0-.92-.25m2.92.8c-.67.6-.7 1.6-.05 2.14.56.46 1.24.47 1.8 0 .37-.31.37-.37.04-.59-.23-.15-.28-.15-.42-.02-.28.25-.72.26-.96.01-.22-.21-.2-.77.02-.97.23-.21.7-.22.78-.02q.08.15.4.15h.34v-1h-.8c-.74 0-.81.02-1.15.3m2.9-.2c-.28.1-.73.65-.81.96-.33 1.3 1.36 2.27 2.34 1.36.53-.5.61-1.25.2-1.85a1.5 1.5 0 0 0-1.74-.47m1.96.2c0 .17.05.3.1.3s.1.31.1.74c0 .41-.04.78-.1.81-.05.03-.1.2-.1.36 0 .29 0 .29.6.29s.6 0 .6-.28a1 1 0 0 0-.1-.39c-.07-.06-.1-.21-.08-.34.03-.2.09-.16.46.38.4.6.45.63.82.63h.4V9.4c0-.67.04-1.1.1-1.1s.1-.13.1-.3v-.3h-.6c-.6 0-.6 0-.6.3 0 .15.05.3.1.32.07.02.1.16.08.32-.03.27-.05.25-.46-.33-.42-.6-.43-.61-.92-.61s-.5 0-.5.3m3.57-.23c-.11.1-.08.51.04.55a5 5 0 0 1-.72 1.7q-.36.48.6.48c.6 0 .61 0 .61-.28 0-.15-.05-.33-.12-.4-.1-.1 0-.12.42-.12s.51.03.42.12c-.07.07-.12.25-.12.4 0 .28.01.28.6.28.54 0 .6-.02.6-.2 0-.12-.18-.58-.39-1.03s-.46-.99-.54-1.2C17 7.7 17 7.7 16.42 7.7a2 2 0 0 0-.65.07M18.3 8c0 .17.04.3.1.3s.1.31.1.74c0 .41-.04.78-.1.81-.05.03-.1.2-.1.36v.29h.81c1 0 1.42-.18 1.7-.71a1.5 1.5 0 0 0-.36-1.87c-.24-.19-.4-.22-1.21-.22h-.94zm-7.85.6c-.2.22-.23.74-.04.96.18.22.65.17.83-.08.22-.3.2-.64-.04-.88q-.39-.38-.75 0m8.85.45v.65h.34q.6 0 .6-.6c0-.39-.3-.7-.66-.7-.28 0-.28 0-.28.65"/></svg>