<svg xmlns="http://www.w3.org/2000/svg" width="24" height="24"><path fill="#ed1c24" fill-rule="evenodd" d="M10.5 2.15c-.36.08-1.08.36-1.6.61-.79.4-1.1.61-1.81 1.33A6 6 0 0 0 5.76 5.9a6.96 6.96 0 0 0 4.63 9.91 7.6 7.6 0 0 0 3.71-.11 7 7 0 0 0 4.6-4.6c.34-1 .39-2.61.11-3.7a7 7 0 0 0-4.66-5.06c-1-.33-2.63-.42-3.65-.19m.11 1.5a5.7 5.7 0 0 0-3.5 2.85 5 5 0 0 0-.58 2.85 5.5 5.5 0 0 0 4.08 5c.7.2 2.1.19 2.84 0q1.36-.37 2.45-1.45a5.4 5.4 0 0 0 1.45-2.45c.19-.74.2-2.13 0-2.84a5.6 5.6 0 0 0-3.41-3.77 6.6 6.6 0 0 0-3.33-.19m.6 1.26c-.75.15-1.68.65-2.2 1.18a4.18 4.18 0 0 0 2.28 7.03 4.2 4.2 0 0 0 2.61-.43q1.54-.82 1.28-1.86c-.19-.7-1.16-.98-1.75-.5-.96.81-2.12.8-2.87-.03-1.12-1.24-.27-3.2 1.38-3.2.56 0 .88.12 1.4.53.7.55 1.56.34 1.82-.44.16-.48.02-.88-.48-1.33a3.6 3.6 0 0 0-1.87-.92 3 3 0 0 0-1.6-.03m.24 3.54a.8.8 0 0 0-.25.55q.01.31.25.55a.8.8 0 0 0 .55.25q.31-.01.55-.25A.8.8 0 0 0 12.8 9q-.01-.31-.25-.55A.8.8 0 0 0 12 8.2q-.31.01-.55.25"/></svg>