<?xml version="1.0" encoding="UTF-8" standalone="no"?>
<svg
   viewBox="0 0 24 24"
   width="24pt"
   height="24pt"
   version="1.1"
   id="svg1205"
   xml:space="preserve"
   xmlns="http://www.w3.org/2000/svg"
   xmlns:svg="http://www.w3.org/2000/svg"><defs
     id="defs1209" /><g
     transform="matrix(5.9896235e-4,0,0,-5.9896235e-4,4.2836354,14.187444)"
     fill="#000000"
     stroke="none"
     id="g1432"
     style="fill:#2a1100;fill-opacity:1"><path
       d="m 13390,13917 v -225 l 63,-11 c 34,-6 96,-16 137,-21 87,-11 224,-74 306,-139 49,-39 104,-123 117,-181 24,-101 26,-378 27,-2935 1,-2676 1,-2731 -18,-2785 -29,-83 -70,-158 -118,-221 -71,-89 -108,-112 -299,-179 l -130,-45 -3,-182 -2,-183 h 22 c 33,0 1979,237 1982,241 6,8 -9,348 -16,354 -4,4 -53,18 -110,31 -200,46 -218,53 -275,111 -32,32 -66,82 -87,126 -71,147 -64,-128 -88,3255 -22,3059 -22,3064 -43,3072 -11,4 -330,35 -710,69 -379,34 -705,64 -722,67 l -33,5 z"
       id="path1384"
       style="fill:#2a1100;fill-opacity:1" /><path
       d="M 4350,13294 C 3458,13187 2433,12650 1803,11960 1556,11690 1155,11100 976,10742 579,9948 270,8780 166,7675 124,7233 112,6625 139,6290 248,4903 589,3694 1135,2760 1468,2191 1893,1722 2365,1404 2885,1053 3447,847 4070,779 c 148,-16 542,-16 690,0 465,51 901,179 1365,400 343,164 661,380 982,669 60,53 248,234 418,402 354,349 577,547 995,880 334,267 588,443 985,685 234,143 344,215 364,239 11,13 11,59 1,268 -7,139 -16,256 -19,260 -8,9 -379,-207 -629,-366 -422,-268 -956,-641 -1167,-815 -185,-152 -659,-568 -940,-826 -394,-361 -609,-517 -945,-684 -288,-143 -672,-274 -940,-321 -159,-27 -433,-37 -591,-21 -335,35 -657,139 -948,308 -547,318 -1017,925 -1336,1728 -277,697 -435,1478 -507,2515 -21,296 -17,1465 5,1740 129,1582 485,2854 1014,3625 287,417 651,779 975,969 389,228 721,315 1161,303 291,-7 501,-57 724,-171 237,-122 537,-395 760,-693 98,-131 135,-206 238,-478 101,-265 144,-365 157,-365 15,0 322,132 335,144 34,33 -102,387 -314,810 -156,314 -241,435 -453,646 -375,375 -853,598 -1425,665 -161,19 -515,18 -675,-1 z"
       id="path1386"
       style="fill:#2a1100;fill-opacity:1" /><path
       d="m 12133,12175 c -42,-9 -123,-46 -243,-109 -100,-53 -182,-96 -184,-96 -2,0 -18,36 -36,80 -18,44 -36,80 -39,80 -13,0 -1195,-140 -1233,-146 l -38,-6 v -212 c 0,-154 3,-217 13,-228 9,-13 36,-17 122,-20 90,-3 118,-8 155,-27 57,-30 106,-76 131,-124 19,-37 20,-99 35,-2820 10,-1963 12,-2808 4,-2869 -14,-114 -49,-235 -109,-368 -86,-194 -162,-278 -387,-428 -67,-44 -124,-88 -128,-97 -7,-18 -9,-525 -2,-525 2,0 154,76 338,168 393,198 607,296 956,437 278,112 763,295 781,295 8,0 11,62 11,210 0,171 -3,210 -14,210 -7,0 -55,-14 -106,-31 -189,-62 -313,-30 -364,95 -14,33 -16,105 -16,552 0,344 3,514 10,514 6,0 45,-18 88,-39 176,-88 313,-106 494,-62 177,42 398,139 514,224 394,290 692,960 813,1829 40,283 52,453 58,783 6,348 -2,514 -38,795 -93,740 -300,1288 -606,1611 -183,191 -354,285 -596,324 -112,18 -300,18 -384,0 z m 263,-463 c 65,-33 156,-140 208,-245 118,-237 246,-859 286,-1392 18,-241 24,-771 11,-1050 -37,-795 -137,-1358 -302,-1686 -112,-225 -230,-327 -389,-337 -248,-14 -405,200 -464,633 -34,250 -40,516 -41,1730 0,1054 2,1212 18,1382 43,480 73,614 171,768 74,114 149,180 242,209 71,23 206,16 260,-12 z"
       id="path1388"
       style="fill:#2a1100;fill-opacity:1" /><path
       d="m 16205,12129 c -94,-12 -237,-57 -297,-95 -100,-64 -249,-243 -373,-448 -131,-219 -195,-412 -254,-766 -69,-414 -74,-476 -78,-1055 -8,-907 24,-1331 127,-1722 95,-359 275,-691 458,-846 64,-54 207,-127 297,-152 37,-10 117,-19 206,-22 224,-8 340,20 584,142 l 143,72 32,-67 32,-66 382,-12 c 209,-7 434,-15 499,-19 l 117,-6 v 190 189 l -96,39 c -107,43 -121,57 -159,160 l -26,67 -6,1796 c -5,1438 -4,1805 6,1835 17,49 66,106 108,123 19,8 69,14 123,14 h 90 v 144 c 0,129 -2,145 -17,150 -83,25 -1057,235 -1065,230 -7,-4 -9,-33 -5,-80 3,-41 4,-74 2,-74 -2,0 -39,25 -82,56 -153,110 -295,181 -415,208 -86,20 -236,27 -333,15 z m 449,-425 c 122,-42 269,-245 331,-460 l 25,-87 5,-571 c 3,-314 10,-983 15,-1486 6,-567 6,-946 0,-996 -24,-218 -108,-393 -253,-532 -118,-112 -253,-150 -365,-102 -94,41 -187,167 -241,326 -68,204 -132,669 -152,1104 -16,347 -16,1207 -1,1435 19,271 49,562 72,692 36,205 160,510 243,600 80,87 204,117 321,77 z"
       id="path1390"
       style="fill:#2a1100;fill-opacity:1" /><path
       d="m 22050,11858 c 1,-70 48,-450 57,-459 5,-5 77,-51 158,-102 142,-87 151,-95 177,-147 l 28,-55 -2,-298 -3,-297 -135,65 c -164,79 -223,95 -365,102 -196,10 -320,-27 -447,-132 -208,-171 -349,-447 -489,-955 -105,-382 -133,-610 -133,-1095 0,-443 24,-716 90,-1015 65,-294 198,-608 362,-856 85,-128 131,-176 241,-249 201,-134 326,-171 545,-162 112,4 144,9 220,36 50,17 93,31 96,31 4,0 10,-37 13,-81 4,-45 8,-83 9,-84 11,-8 1004,-392 1007,-389 7,7 60,327 55,335 -2,4 -64,57 -137,118 -141,117 -177,163 -218,276 l -22,60 -8,1770 c -5,974 -10,2045 -11,2380 l -3,610 -535,307 c -294,169 -538,307 -542,307 -5,1 -8,-9 -8,-21 z m 181,-1637 c 112,-70 200,-264 229,-501 6,-54 10,-539 10,-1340 0,-1060 -2,-1271 -15,-1355 -46,-312 -162,-469 -345,-469 -81,0 -126,22 -196,95 -98,105 -155,241 -184,444 -40,276 -45,396 -44,1080 1,695 13,1074 40,1252 54,366 204,723 339,805 46,28 112,24 166,-11 z"
       id="path1392"
       style="fill:#2a1100;fill-opacity:1" /><path
       d="m 8936,11780 c -197,-31 -450,-139 -613,-262 -310,-232 -544,-600 -701,-1103 -113,-362 -178,-724 -224,-1255 -20,-230 -17,-934 5,-1150 89,-871 300,-1531 627,-1960 72,-94 225,-242 309,-299 131,-90 363,-181 548,-217 318,-62 584,35 863,315 167,168 299,363 406,601 176,388 326,1110 384,1845 45,564 -50,1588 -200,2170 -52,202 -96,321 -186,502 -190,384 -407,620 -668,730 -176,74 -395,107 -550,83 z m 263,-450 c 64,-32 115,-92 165,-193 74,-150 117,-305 160,-577 197,-1223 200,-2644 10,-3790 -95,-571 -251,-870 -454,-870 -63,0 -106,18 -158,64 -129,117 -224,365 -321,838 -82,402 -127,701 -151,1013 -28,359 -20,1331 15,1835 37,528 107,928 210,1205 51,137 137,316 179,374 87,118 230,160 345,101 z"
       id="path1394"
       style="fill:#2a1100;fill-opacity:1" /><path
       d="m 18237,11688 c -4,-46 -7,-116 -7,-156 v -72 l 83,-38 c 86,-40 120,-71 160,-146 l 22,-41 3,-1800 2,-1800 -20,-56 c -12,-31 -34,-72 -51,-92 -24,-30 -40,-37 -104,-52 l -75,-16 v -185 c 0,-101 2,-184 5,-184 12,0 1242,-181 1263,-185 22,-5 22,-5 21,117 0,68 -3,131 -7,140 -4,10 -45,50 -92,91 -96,82 -119,118 -152,232 l -23,80 v 1660 c 0,1541 1,1662 17,1691 9,17 44,56 77,87 79,73 147,99 256,99 151,0 242,-57 310,-196 71,-143 68,-58 66,-1841 -3,-1568 -3,-1601 -23,-1660 -25,-75 -68,-152 -105,-187 -15,-14 -63,-38 -106,-53 l -78,-28 3,-130 3,-131 630,-148 c 347,-81 633,-148 638,-148 4,0 7,60 7,133 l -1,132 -105,115 c -112,122 -116,129 -141,230 -15,58 -17,239 -23,1665 -6,1445 -8,1610 -24,1707 -38,241 -71,323 -185,466 -177,222 -234,273 -397,349 -242,114 -434,128 -682,47 -118,-39 -124,-37 -165,51 -20,41 -39,75 -42,75 -4,0 -215,59 -469,130 -255,72 -467,130 -473,130 -6,0 -13,-37 -16,-82 z"
       id="path1396"
       style="fill:#2a1100;fill-opacity:1" /><path
       d="m 5420,10639 c -310,-39 -638,-191 -863,-399 -212,-197 -436,-531 -571,-851 -149,-356 -229,-719 -313,-1414 -28,-230 -28,-230 -28,-880 0,-549 3,-677 18,-825 39,-382 93,-722 148,-928 88,-335 300,-815 475,-1080 95,-143 295,-349 419,-431 322,-211 727,-275 1110,-176 315,82 541,256 756,582 176,267 296,549 414,968 168,603 215,1008 215,1865 0,725 -34,1141 -130,1620 -167,829 -453,1445 -801,1724 -229,182 -538,265 -849,225 z m 260,-421 c 94,-57 196,-211 259,-392 107,-304 212,-929 271,-1616 30,-347 22,-1537 -15,-2138 -63,-1019 -166,-1499 -404,-1869 -91,-142 -164,-191 -264,-179 -131,15 -220,96 -307,279 -207,434 -352,1232 -422,2332 -38,608 4,1606 93,2205 52,346 163,771 264,1010 103,246 266,397 430,399 29,1 57,-8 95,-31 z"
       id="path1398"
       style="fill:#2a1100;fill-opacity:1" /><path
       d="m 23952,9665 c -243,-55 -447,-264 -546,-558 -84,-252 -135,-718 -107,-978 36,-330 162,-809 362,-1376 154,-436 252,-677 549,-1348 189,-427 271,-647 405,-1090 94,-311 118,-502 119,-960 1,-302 -10,-453 -40,-585 -18,-77 -115,-276 -193,-392 -65,-96 -130,-146 -300,-231 -102,-51 -106,-52 -205,-55 -161,-6 -313,41 -461,140 -225,150 -418,504 -535,982 -59,243 -78,482 -61,796 13,228 33,425 56,543 8,43 15,93 15,111 v 32 l -111,18 c -61,10 -112,16 -114,14 -7,-6 -63,-356 -79,-488 -52,-423 -55,-630 -15,-952 40,-330 104,-548 236,-812 74,-148 149,-253 268,-371 403,-403 914,-511 1394,-294 104,47 249,150 341,242 322,321 501,789 541,1418 30,473 -63,1038 -275,1674 -126,375 -224,618 -579,1435 -480,1106 -614,1479 -693,1940 -34,195 -43,450 -20,570 30,162 97,255 205,286 139,41 275,-36 371,-209 76,-138 100,-307 100,-714 v -303 h 125 125 v 331 c 0,347 -7,436 -51,614 -55,222 -95,303 -203,411 -97,97 -151,130 -242,149 -105,22 -306,28 -382,10 z"
       id="path1400"
       style="fill:#2a1100;fill-opacity:1" /><path
       d="m 16623,6320 c -513,-27 -1298,-100 -1878,-175 -690,-90 -1531,-273 -2075,-452 l -85,-28 -3,-199 c -2,-157 0,-197 10,-193 30,11 994,250 1214,301 1128,259 2582,401 3759,367 1762,-52 3195,-318 5143,-955 177,-58 327,-106 332,-106 9,0 106,197 116,236 5,19 -3,26 -51,49 -231,109 -1022,381 -1540,529 -1153,330 -2452,542 -3770,616 -249,14 -976,20 -1172,10 z"
       id="path1402"
       style="fill:#2a1100;fill-opacity:1" /><path
       d="m 13370,1875 c -36,-8 -116,-19 -177,-26 -106,-11 -113,-13 -113,-34 0,-19 7,-23 47,-28 59,-6 87,-35 78,-81 -4,-17 -65,-245 -137,-506 -76,-277 -132,-502 -135,-540 -5,-60 -3,-68 21,-97 78,-93 228,-55 339,84 29,38 63,82 76,100 l 22,32 -22,12 c -20,10 -25,8 -43,-17 -38,-53 -98,-113 -118,-120 -39,-12 -49,13 -33,87 11,55 250,930 300,1102 l 14,47 -27,-1 c -15,-1 -56,-7 -92,-14 z"
       id="path1404"
       style="fill:#2a1100;fill-opacity:1" /><path
       d="m 18600,1870 c -58,-10 -135,-21 -172,-25 -62,-6 -68,-9 -68,-29 0,-19 8,-24 52,-32 89,-16 93,15 -87,-647 -87,-320 -160,-588 -163,-594 -3,-10 24,-13 114,-13 h 119 l 49,185 c 48,183 49,184 87,209 l 38,26 6,-38 c 52,-306 143,-430 287,-392 53,14 139,99 182,179 28,52 28,55 11,67 -17,13 -22,9 -53,-40 -53,-81 -106,-96 -136,-38 -25,48 -64,186 -86,300 l -21,111 48,44 c 142,132 211,180 287,204 47,14 56,21 54,38 -3,19 -11,20 -205,23 l -203,2 v -24 c 0,-20 6,-25 39,-31 85,-14 79,-61 -22,-160 -72,-70 -224,-192 -231,-184 -1,2 50,200 115,439 65,239 119,436 119,438 0,5 -62,-2 -160,-18 z"
       id="path1406"
       style="fill:#2a1100;fill-opacity:1" /><path
       d="m 10136,1854 c -146,-32 -271,-108 -403,-248 -188,-198 -274,-391 -276,-621 -2,-120 12,-193 50,-269 45,-88 155,-173 261,-200 l 45,-12 -174,-144 c -96,-79 -176,-145 -178,-147 -2,-1 1,-14 7,-27 l 11,-24 76,24 c 111,35 191,33 346,-11 222,-64 343,-67 483,-15 83,31 193,115 250,190 l 48,64 -22,18 c -22,18 -23,17 -76,-31 -85,-78 -131,-96 -244,-96 -79,0 -116,7 -225,38 -82,23 -163,40 -218,44 -48,3 -90,9 -92,13 -3,4 17,28 43,52 46,44 50,45 127,51 98,7 219,44 305,94 136,80 294,258 380,430 104,209 118,459 33,615 -95,175 -323,262 -557,212 z m 219,-68 c 44,-19 90,-83 105,-148 49,-202 -130,-778 -298,-959 -114,-124 -262,-154 -352,-73 -57,51 -75,108 -74,229 0,149 44,334 127,544 111,281 244,421 400,421 32,0 73,-6 92,-14 z"
       id="path1408"
       style="fill:#2a1100;fill-opacity:1" /><path
       d="m 13819,1860 c -66,-18 -99,-59 -99,-125 0,-76 54,-128 133,-128 72,0 136,77 122,149 -13,70 -90,121 -156,104 z"
       id="path1410"
       style="fill:#2a1100;fill-opacity:1" /><path
       d="m 16090,1817 c 0,-27 16,-37 61,-37 19,0 40,-10 56,-26 22,-22 25,-32 20,-67 -8,-57 -265,-995 -282,-1027 -19,-37 -45,-57 -92,-69 -36,-10 -43,-16 -43,-36 v -25 h 329 c 502,0 607,23 733,159 69,74 98,144 98,238 0,134 -43,200 -171,261 l -79,38 72,23 c 100,32 143,55 199,108 57,53 84,115 83,193 -1,140 -77,223 -246,266 -50,13 -135,17 -400,21 l -338,5 z m 620,-65 c 56,-28 75,-72 75,-172 0,-105 -22,-172 -75,-233 -22,-25 -58,-52 -79,-61 -40,-15 -219,-42 -227,-33 -8,8 121,463 139,491 16,23 24,26 75,26 34,0 71,-7 92,-18 z m -156,-585 c 96,-28 139,-125 117,-262 -13,-78 -54,-173 -96,-223 -39,-47 -114,-82 -188,-88 -79,-6 -118,5 -135,39 -12,25 -7,52 53,275 36,136 69,255 72,266 5,17 12,18 72,12 36,-4 84,-12 105,-19 z"
       id="path1412"
       style="fill:#2a1100;fill-opacity:1" /><path
       d="m 14395,1640 c -59,-80 -157,-164 -244,-206 -75,-37 -80,-41 -80,-71 -1,-33 -1,-33 50,-33 48,0 50,-1 43,-22 -21,-68 -163,-600 -169,-636 -13,-81 50,-162 127,-162 49,0 125,30 168,67 24,21 70,73 102,116 46,63 56,82 47,93 -19,23 -32,16 -68,-37 -41,-59 -93,-102 -118,-97 -32,7 -18,88 65,388 l 79,285 82,3 81,3 v 39 40 h -69 -70 l 14,48 c 7,26 25,89 39,140 l 25,92 h -34 c -28,0 -39,-7 -70,-50 z"
       id="path1414"
       style="fill:#2a1100;fill-opacity:1" /><path
       d="m 11285,1419 c -22,-4 -103,-15 -180,-24 -165,-19 -165,-19 -165,-44 0,-15 9,-22 38,-27 60,-11 72,-21 72,-61 0,-19 -30,-144 -66,-277 -76,-274 -86,-353 -55,-403 42,-67 113,-87 202,-58 65,22 157,109 239,227 29,43 55,76 58,73 2,-2 -3,-26 -12,-52 -27,-77 -32,-163 -12,-202 34,-65 134,-78 228,-30 50,26 153,129 185,185 21,39 22,40 3,52 -17,10 -23,7 -49,-31 -45,-65 -85,-99 -112,-95 -21,3 -24,8 -22,43 1,22 43,189 92,372 50,182 91,334 91,337 0,3 -51,6 -113,6 h -114 l -32,-112 c -37,-126 -105,-307 -146,-389 -78,-153 -192,-271 -245,-254 -44,14 -38,55 44,318 63,201 136,443 136,451 0,7 -13,6 -65,-5 z"
       id="path1416"
       style="fill:#2a1100;fill-opacity:1" /><path
       d="m 12344,1412 c -158,-55 -354,-299 -408,-508 -19,-75 -20,-215 -2,-267 18,-48 39,-72 95,-105 51,-30 134,-34 193,-9 47,20 119,86 176,162 29,39 43,51 38,35 -29,-110 -12,-169 57,-201 54,-24 72,-24 132,5 51,23 143,113 192,188 25,37 26,39 7,53 -17,12 -21,11 -44,-18 -48,-63 -99,-109 -117,-105 -27,5 -27,46 2,165 20,84 132,497 161,595 4,14 -3,16 -58,12 -147,-11 -143,-9 -157,-62 l -13,-47 -19,42 c -34,80 -122,104 -235,65 z m 165,-72 c 10,-5 24,-23 31,-40 43,-104 -82,-470 -203,-595 -60,-62 -95,-75 -133,-51 -52,35 -58,125 -18,262 28,100 115,287 163,352 51,69 113,97 160,72 z"
       id="path1418"
       style="fill:#2a1100;fill-opacity:1" /><path
       d="m 13815,1415 c -38,-7 -123,-19 -187,-25 -112,-12 -118,-14 -118,-35 0,-25 17,-35 61,-35 19,0 34,-8 44,-24 15,-23 12,-40 -60,-302 -87,-317 -96,-374 -67,-420 59,-92 209,-79 308,28 17,18 54,64 83,102 39,54 48,72 40,82 -19,23 -32,15 -74,-42 -45,-63 -87,-97 -113,-92 -32,7 -17,94 72,423 48,176 89,328 92,338 3,9 2,16 -3,16 -4,-1 -39,-7 -78,-14 z"
       id="path1420"
       style="fill:#2a1100;fill-opacity:1" /><path
       d="m 14770,1409 c -52,-10 -112,-18 -132,-18 -35,-1 -38,-3 -38,-31 0,-25 4,-30 23,-30 42,0 65,-27 92,-110 32,-103 111,-492 126,-624 12,-100 12,-103 -13,-157 -30,-65 -104,-144 -141,-151 -19,-4 -48,5 -94,28 -103,52 -168,42 -199,-31 -17,-41 -4,-92 32,-126 22,-21 35,-24 97,-24 90,1 148,29 242,117 160,149 398,527 509,808 82,208 80,311 -5,356 -63,32 -136,0 -159,-70 -15,-45 0,-81 55,-132 35,-33 45,-49 45,-73 0,-42 -60,-196 -118,-301 -54,-99 -44,-114 -91,130 -49,249 -104,455 -121,456 -8,1 -58,-7 -110,-17 z"
       id="path1422"
       style="fill:#2a1100;fill-opacity:1" /><path
       d="m 17618,1417 c -110,-41 -215,-136 -307,-277 -206,-313 -163,-634 85,-632 94,1 181,56 257,163 45,64 53,65 39,3 -16,-76 11,-133 77,-161 84,-35 178,23 309,193 24,31 28,44 20,52 -20,20 -31,14 -91,-53 -90,-100 -120,-85 -92,47 8,42 51,205 95,364 44,159 80,292 80,295 0,8 -161,-2 -187,-12 -13,-5 -23,-15 -23,-23 0,-8 -5,-27 -11,-43 l -10,-27 -18,39 c -28,62 -53,79 -124,82 -35,2 -78,-3 -99,-10 z m 172,-94 c 80,-101 -102,-599 -243,-667 -73,-34 -127,13 -127,110 0,152 158,502 254,564 45,29 90,26 116,-7 z"
       id="path1424"
       style="fill:#2a1100;fill-opacity:1" /><path
       d="m 19617,1419 c -175,-41 -376,-260 -432,-469 -8,-30 -15,-95 -15,-145 0,-73 5,-99 24,-140 45,-99 143,-157 261,-157 134,1 229,58 326,195 l 49,70 -27,19 c -28,18 -28,18 -43,-4 -30,-46 -112,-127 -145,-142 -68,-33 -151,-10 -179,49 -16,33 -22,147 -10,179 3,9 14,16 23,16 41,0 182,45 246,78 94,49 196,150 218,216 9,27 17,62 17,78 0,69 -56,138 -128,158 -44,12 -132,12 -185,-1 z m 118,-69 c 45,-49 -13,-229 -98,-306 -39,-36 -116,-77 -169,-89 l -27,-7 26,84 c 49,162 116,282 178,320 39,23 67,23 90,-2 z"
       id="path1426"
       style="fill:#2a1100;fill-opacity:1" /><path
       d="m 20391,1414 c -40,-8 -126,-20 -190,-27 -106,-11 -116,-14 -119,-33 -3,-18 4,-23 44,-30 66,-13 72,-27 51,-126 -14,-69 -147,-572 -171,-645 -7,-23 -7,-23 111,-23 h 118 l 63,193 c 88,270 166,435 233,492 32,26 60,23 72,-9 10,-26 66,-48 103,-41 53,10 88,63 89,136 0,68 -24,109 -74,123 -91,26 -182,-58 -301,-277 -22,-40 -40,-66 -40,-59 0,8 23,85 50,171 28,86 50,160 50,164 0,8 3,9 -89,-9 z"
       id="path1428"
       style="fill:#2a1100;fill-opacity:1" /><path
       d="m 21056,1414 c -147,-54 -202,-207 -128,-356 17,-35 68,-108 112,-163 86,-106 130,-183 130,-224 0,-70 -81,-125 -146,-100 -78,29 -117,81 -144,189 -13,52 -20,66 -38,68 -24,4 -23,6 -47,-172 -21,-151 -20,-156 10,-156 14,0 25,4 25,10 0,5 10,16 23,25 22,14 29,13 83,-6 80,-29 192,-30 255,-2 107,48 162,129 161,241 -1,83 -34,152 -133,277 -101,127 -129,173 -129,212 0,97 91,142 175,87 35,-23 76,-95 90,-158 10,-43 15,-51 36,-54 25,-3 26,-1 43,120 10,68 20,135 23,151 5,24 3,27 -23,27 -18,0 -34,-8 -42,-20 -15,-25 -40,-25 -120,0 -74,23 -160,25 -216,4 z"
       id="path1430"
       style="fill:#2a1100;fill-opacity:1" /></g></svg>
