<svg xmlns="http://www.w3.org/2000/svg" width="24" height="24"><path fill="#3d3962" fill-rule="evenodd" d="M19.21 7.78a1 1 0 0 0-.26.4c-.06.22-.05.23.17.17.2-.06.2-.04-.1.21a2 2 0 0 0-.38.56l-.06.28.35-.15q.35-.15.84-.08c.47.06.48.06.3-.14-.25-.28-.22-.33.24-.33.36 0 .41-.03.55-.35.18-.45.18-.48-.07-.35-.26.14-.35.07-.14-.1.25-.21.17-.25-.55-.27-.53 0-.75.03-.89.15m-15.3.24c-1.13.58-1.22 1.83-.17 2.23q.45.18.88.1c.46-.06 1.08-.38 1.08-.55s-.6-.1-.9.12c-.25.18-.35.2-.58.12-.25-.1-.27-.14-.27-.66q0-1.02.74-1.22c.26-.08.35-.05.54.12.23.22.71.3.81.13.03-.04-.06-.19-.2-.32-.37-.35-1.33-.39-1.94-.07m3.32 0c-.51.25-.88.76-.98 1.34-.05.34-.02.45.19.7s.33.28.91.32c1.14.07 1.9-.37 2.17-1.28q.24-.77-.34-1.1c-.45-.28-1.38-.27-1.95.01m3.13 0c.06.18-.04.5-.54 1.77l-.2.52h.76l.27-.75c.47-1.32.64-1.65.84-1.65.1 0 .25.07.32.15.16.2-.09.59-.56.87-.19.1-.34.24-.34.3s.1.31.21.59c.21.48.22.49.66.49.25 0 .43-.03.41-.07l-.3-.6c-.27-.5-.27-.52-.08-.58.36-.11.8-.56.8-.8 0-.36-.28-.45-1.35-.45-.92 0-.96 0-.9.2m4.17-.13c-.15.06-1.82 2.29-1.82 2.43 0 .06.13.1.3.1.22 0 .36-.09.57-.37.38-.51.42-.54.88-.5.37.02.4.05.5.4.08.35.1.37.47.37.2 0 .38-.04.38-.1 0-.1-.25-1.13-.47-1.87-.13-.47-.17-.53-.41-.52-.15 0-.33.03-.4.06m2.34.2q.05.29-.3 1.18a11 11 0 0 0-.36.97c0 .05.47.08 1.04.08 1.01 0 1.16-.05 1.16-.36 0-.02-.27-.04-.6-.04s-.6-.04-.6-.09.16-.52.35-1.05l.35-.96h-.55c-.54 0-.54 0-.5.28m-9 .08c-.65.31-1.04 1.58-.6 1.9.24.18.7.11.98-.14.27-.24.57-.9.57-1.29q0-.32-.22-.47c-.28-.2-.35-.2-.74 0m6.48.74c-.12.16-.22.32-.22.35s.16.05.36.05c.29 0 .35-.03.3-.16a1 1 0 0 1-.06-.35q0-.4-.38.1"/></svg>