<?xml version="1.0" encoding="UTF-8" standalone="no"?>
<svg
   viewBox="0 0 16.573069 6.3553262"
   width="16.573069pt"
   height="6.3553262pt"
   version="1.1"
   id="svg1"
   xmlns="http://www.w3.org/2000/svg"
   xmlns:svg="http://www.w3.org/2000/svg">
  <defs
     id="defs1" />
  <path
     d="m 1.3303531,0.04312773 c -0.0819,0.019335 -0.258682,0.090477 -0.39274641,0.1581703 -0.660682,0.3335217 -1.042642,1.09975777 -0.9121961,1.82983917 0.208161,1.1646651 1.45415771,1.7909851 2.52815091,1.2707761 0.1314818,-0.06367 0.2877407,-0.166643 0.3473632,-0.2288454 L 3.0092038,2.959955 2.671467,2.6239666 C 2.3504692,2.3046428 2.3293106,2.2908027 2.2445518,2.3442157 2.0382691,2.4742335 1.9464667,2.5051303 1.7660245,2.5053693 1.1933193,2.5060847 0.81680089,1.9177066 1.0636606,1.4077591 1.2651923,0.99147163 1.7822111,0.84670493 2.1780651,1.0957523 l 0.1419368,0.08933 0.3452639,-0.33984717 C 3.0503195,0.46617443 3.0486207,0.48152683 2.728935,0.27638633 2.3471269,0.03139523 1.7807886,-0.06306177 1.3302979,0.04312773 m 3.3823127,0.031144 C 3.9125331,0.33899063 3.4460906,1.023773 3.498117,1.857301 3.5941042,3.3949013 5.5050091,4.0541513 6.5525537,2.9109642 6.8921967,2.5402948 6.9656997,2.3306601 6.9668047,1.7292375 6.9676887,1.2710319 6.9626607,1.2404085 6.8407087,0.99346733 6.6649627,0.63687833 6.3609387,0.33787753 5.9994192,0.16614463 5.7403918,0.04304623 5.6636711,0.02571193 5.3233102,0.01326263 5.0251007,0.00235183 4.8886884,0.01602483 4.712583,0.07426623 m 3.4348087,0.1627446 c -0.276885,0.2686951 -0.344256,0.440189 -0.34438,0.87660067 -1.24e-4,0.3565103 0.0069,0.3912701 0.135073,0.616456 0.419429,0.7399053 0.451443,0.8154313 0.453073,1.0689342 0.0014,0.3186886 -0.139313,0.6062346 -0.387968,0.7891436 -0.09751,0.07179 -0.178094,0.141427 -0.178923,0.154829 -0.0028,0.04482 1.038181,0.320915 1.126559,0.298724 0.136591,-0.03428 0.454427,-0.377709 0.572028,-0.618047 0.124438,-0.254337 0.162584,-0.6246496 0.09281,-0.9015375 -0.02514,-0.099992 -0.154947,-0.3614422 -0.288335,-0.5810595 -0.371546,-0.6115241 -0.431915,-0.9141048 -0.256375,-1.28481277 0.09074,-0.1916582 0.254538,-0.373295 0.460793,-0.5110221 0.09336,-0.062357 0.06505,-0.065658 -0.56196,-0.065658 h -0.660295 l -0.162225,0.1574549 m 2.1412193,0.2601447 v 0.4175995 h 0.377816 0.377831 V 2.1675578 3.4203553 h 0.517032 0.517019 V 2.1675578 0.91476053 h 0.377831 0.37783 v -0.4175995 -0.4175996 h -1.27268 -1.272679 v 0.4175996 m 3.718171,0.2873884 C 13.882633,1.1733528 13.648563,1.9048678 13.486489,2.4101624 c -0.162101,0.5052959 -0.294701,0.9398379 -0.294701,0.9656499 0,0.03417 0.137696,0.04391 0.507088,0.0358 l 0.507075,-0.01119 0.05966,-0.238628 c 0.03287,-0.1312476 0.07417,-0.2609809 0.09184,-0.2883434 0.03563,-0.055037 0.96541,-0.072149 1.046896,-0.019294 0.02472,0.016062 0.07071,0.1455636 0.102064,0.2877464 l 0.05704,0.258514 0.472243,0.01119 c 0.259746,0.0062 0.494673,0.0028 0.522074,-0.0079 0.0366,-0.01405 0.0097,-0.142898 -0.104136,-0.4885113 C 16.329065,2.5356432 15.842955,1.0188839 15.601979,0.25837523 l -0.05041,-0.1590846 -0.659729,-0.010911 -0.659729,-0.010911 -0.225507,0.7068967 m 0.779526,0.1973055 C 14.70064,1.300358 14.543966,1.9903913 14.543966,2.0477419 c 0,0.048753 0.06325,0.059968 0.338055,0.059968 0.406419,0 0.391821,0.051143 0.204501,-0.715885 -0.09612,-0.39365657 -0.148262,-0.54021317 -0.195441,-0.54936167 -0.04516,-0.0087 -0.07638,0.032732 -0.104965,0.1392008 M 4.9812367,1.0118968 C 4.7494172,1.0971252 4.631498,1.1969532 4.5315055,1.3926276 4.3698741,1.7089697 4.4283366,2.0504866 4.6858585,2.2942043 4.850915,2.4503872 4.9905868,2.50543 5.2221438,2.50543 c 0.4104799,0 0.7725105,-0.3592946 0.769845,-0.764007 C 5.9892266,1.2368038 5.4422376,0.84239173 4.9812367,1.0118968 M 4.2122618,5.0157583 c -0.3320052,0.164335 -0.4650062,0.601382 -0.288376,0.947592 0.199612,0.391311 0.6660131,0.50971 1.0380291,0.263526 0.085905,-0.05683 0.1561346,-0.116538 0.1560241,-0.132642 -1.243e-4,-0.0161 -0.043229,-0.08296 -0.095849,-0.148585 l -0.095711,-0.119314 -0.1052406,0.09851 c -0.1608027,0.150614 -0.3921112,0.137614 -0.5422379,-0.03047 -0.1577781,-0.176546 -0.157419,-0.370073 9.944e-4,-0.528482 0.1349345,-0.13499 0.3629421,-0.158211 0.514077,-0.05234 0.085767,0.06005 0.097092,0.05842 0.1878449,-0.02681 0.1353489,-0.127186 0.1216759,-0.176982 -0.075132,-0.272196 -0.2201767,-0.106594 -0.4776157,-0.106152 -0.6944501,0.0012 m 1.5806398,0.0052 c -0.2321094,0.117159 -0.3550421,0.330777 -0.3559537,0.618443 -7.181e-4,0.242447 0.065603,0.393737 0.2355623,0.536715 0.3704277,0.311728 0.9072246,0.200885 1.1160206,-0.230474 0.304176,-0.628309 -0.360249,-1.2454 -0.9956292,-0.924684 m 1.4909372,-0.03938 c -0.01105,0.02888 -0.01519,0.338136 -0.0097,0.687249 l 0.01105,0.63475 0.16902,0.01215 0.169035,0.01229 v -0.280705 -0.280667 h 0.298292 0.298278 v -0.139144 -0.139199 h -0.300762 -0.300833 l 0.01243,-0.129258 0.01243,-0.129258 0.350387,-0.0116 0.350416,-0.0116 -0.01243,-0.12767 -0.01243,-0.12767 -0.507876,-0.01119 c -0.392028,-0.0086 -0.512461,8.36e-4 -0.528012,0.04137 m 1.493257,0.645886 v 0.695999 h 0.15909 0.15909 v -0.278405 -0.278398 h 0.300778 0.300834 l -0.01243,-0.129259 -0.01243,-0.129258 -0.290738,-0.01174 -0.290724,-0.01174 0.01243,-0.127462 0.01243,-0.127463 0.328125,-0.0116 0.32811,-0.0116 v -0.137574 -0.137614 h -0.497144 -0.497145 v 0.695998 m 1.4715463,0 v 0.696 h 0.519532 0.519574 l -0.01243,-0.129258 -0.01243,-0.129258 -0.347998,-0.01146 -0.347999,-0.01146 v -0.137662 -0.137655 h 0.300792 0.300834 l -0.01243,-0.129259 -0.01243,-0.129258 -0.288335,-0.01174 -0.288348,-0.01174 v -0.137448 -0.137448 h 0.338055 0.338054 v -0.1392 -0.139199 h -0.497131 -0.497144 v 0.695998 m 1.511308,0 v 0.696 h 0.517032 0.517019 v -0.139201 -0.139199 h -0.357942 -0.357943 v -0.1392 -0.139199 h 0.300792 0.300834 l -0.01243,-0.129258 -0.01243,-0.129258 -0.288348,-0.01174 -0.288349,-0.01174 v -0.137448 -0.137448 h 0.338069 0.338054 v -0.139201 -0.1392 h -0.497145 -0.497144 v 0.695999 M 5.8705063,5.3654703 c -0.1584134,0.15841 -0.1587725,0.351936 -9.944e-4,0.528482 0.093915,0.105241 0.1448923,0.129024 0.2761389,0.129024 0.1953859,0 0.3515339,-0.128499 0.3871669,-0.318569 0.06988,-0.372459 -0.3922629,-0.608978 -0.6623114,-0.338931"
     style="fill:#fbfbfb;fill-rule:evenodd;stroke:none;stroke-width:0.0397713"
     id="path1-2" />
</svg>
