<?xml version="1.0" encoding="UTF-8" standalone="no"?>
<svg
   viewBox="0 0 18.040001 21.999998"
   width="18.040001pt"
   height="21.999998pt"
   version="1.1"
   id="svg1"
   xml:space="preserve"
   xmlns="http://www.w3.org/2000/svg"
   xmlns:svg="http://www.w3.org/2000/svg"><defs
     id="defs1" /><path
     d="M 15.239,15.551 C 16.916,13.836 18.04,11.588 18.04,9.02 18.04,4.042 13.998,1.7462993e-8 9.0199999,1.7462993e-8 4.0419999,1.7462993e-8 -8.3887577e-8,4.042 -8.3887577e-8,9.02 -8.3887577e-8,11.62 1.0269999,13.787 2.8639999,15.61 v 0 L 8.6529999,22 15.25,15.551 Z"
     fill="#FF69B4"
     id="path1"
     style="fill:#6d1f37;fill-opacity:1" /><path
     d="M 2.2388826,5.4804584 C 1.7150579,5.6398451 1.1778767,6.1484942 1.037039,6.6185612 c -0.20032968,0.6687105 -0.00194,1.3828827 0.5131006,1.8472837 0.2648125,0.2386422 0.8061755,0.4590725 1.1275805,0.4590725 0.2507825,0 0.8030057,-0.1921008 1.0266731,-0.3570863 L 3.9198992,8.4088487 3.5686145,8.0637687 C 3.2455905,7.7465461 3.2068065,7.7265808 3.0864059,7.8159535 2.8960591,7.9572634 2.4628201,7.9374328 2.2376686,7.777102 1.8426076,7.4957634 1.833164,6.8690749 2.2195217,6.5652076 2.4254508,6.40319 2.8850622,6.3828873 3.0903159,6.5266253 c 0.1295067,0.090722 0.1633,0.072915 0.4905726,-0.25854 L 3.9324433,5.9120781 3.6699235,5.7383916 C 3.2339875,5.449903 2.672254,5.3486588 2.2388808,5.4804584 m 3.4400074,-0.00398 C 5.1410325,5.6528613 4.6172745,6.150583 4.4770437,6.618559 4.2792101,7.278838 4.4233483,7.870182 4.902188,8.3626426 5.6046917,9.085179 6.6511279,9.089361 7.3679319,8.372559 7.9611639,7.7793264 8.0073689,6.7610166 7.4727509,6.060132 7.1296949,5.6103679 6.19644,5.3067028 5.6788882,5.4764773 m 3.2721877,0.2394515 c -0.257798,0.273312 -0.387977,0.7148469 -0.309869,1.0505513 0.03022,0.1298433 0.180497,0.4727648 0.33395,0.7620628 0.153451,0.2892304 0.279044,0.5845987 0.279044,0.6562318 0,0.2434987 -0.217259,0.6745788 -0.419883,0.8331563 l -0.201948,0.158038 0.534753,0.144278 c 0.294087,0.07932 0.564633,0.144278 0.601191,0.144278 0.116219,0 0.4869301,-0.429056 0.5953921,-0.6892153 C 10.559719,8.305445 10.487411,7.9115303 10.079534,7.2267666 9.6846739,6.5639243 9.7271689,6.0985791 10.221587,5.6722204 l 0.213009,-0.1836692 -0.6328251,-0.00182 -0.632827,-0.00182 -0.217868,0.2310201 M 11.121789,5.5284172 c -0.02549,0.025563 -0.04641,0.2234656 -0.04641,0.4399163 v 0.3934368 h 0.369428 0.369498 l 0.01835,1.2309829 0.01841,1.2309834 0.489022,0.019828 0.489021,0.019828 V 7.6125968 6.3617833 h 0.407943 0.407877 L 13.624902,5.940213 13.604803,5.5186434 12.3865,5.5002976 c -0.669991,-0.010055 -1.239144,0.00257 -1.264709,0.028127 m 3.494507,1.1537514 c -0.207952,0.6584582 -0.437152,1.3776897 -0.509323,1.5981872 -0.195811,0.5983586 -0.203636,0.5859482 0.355872,0.5632165 l 0.487064,-0.019828 0.07547,-0.2698042 0.07548,-0.2698044 h 0.493742 0.493742 l 0.07548,0.2698044 0.07547,0.2698042 0.487064,0.019828 c 0.52956,0.021515 0.544467,0.00876 0.423662,-0.3638983 C 17.115161,8.3721641 16.886362,7.6542818 16.64165,6.8845296 L 16.196608,5.4849187 h -0.601125 -0.601056 l -0.378131,1.1972575 m 0.964078,-0.348992 c -0.07183,0.1222213 -0.279112,1.106738 -0.241002,1.1448477 0.02138,0.021382 0.156688,0.029409 0.300629,0.017806 l 0.261845,-0.021113 -0.14239,-0.601934 C 15.681146,6.5417414 15.600543,6.2989174 15.580374,6.3331826 M 5.5713685,6.6585665 C 5.3833828,6.8465528 5.3420351,6.938961 5.3420351,7.1711952 c 0,0.2322343 0.041347,0.3246423 0.2293334,0.5126286 C 5.8284924,7.9409473 6.1480089,7.9881634 6.4775752,7.8177143 6.8924668,7.6031522 6.9728012,6.9703932 6.6288006,6.6263924 6.4670527,6.464712 6.3749145,6.429233 6.1161714,6.429233 c -0.2688602,0 -0.3493963,0.033927 -0.5448029,0.2293335 M 3.3684829,10.504495 c -0.3459571,0.124515 -0.4549583,0.226433 -0.6057115,0.566522 -0.42103,0.949779 0.7735969,1.86961 1.5503645,1.193749 l 0.1857605,-0.16168 -0.1473808,-0.149472 c -0.1403658,-0.14239 -0.1555421,-0.14421 -0.3180324,-0.03771 -0.2530087,0.165727 -0.5326615,0.140771 -0.7395344,-0.06604 -0.2415425,-0.24161 -0.234595,-0.517755 0.019357,-0.771708 0.2209029,-0.220903 0.4395112,-0.249906 0.6695199,-0.08876 0.1452898,0.10178 0.164648,0.09909 0.3164809,-0.0435 0.1822521,-0.171261 0.1678179,-0.228392 -0.09133,-0.360798 -0.2961096,-0.151227 -0.570164,-0.1776 -0.8394961,-0.08061 m 2.2851091,-0.02798 c -0.4469988,0.138678 -0.7469537,0.600786 -0.7009521,1.079959 0.037504,0.389732 0.2051188,0.630398 0.5624746,0.807456 0.337795,0.167415 0.5232862,0.168965 0.8788204,0.0075 0.7107324,-0.32275 0.7669204,-1.38072 0.09477,-1.782054 -0.22785,-0.136098 -0.5987631,-0.186214 -0.8351122,-0.112895 m 1.9143296,0.97784 v 0.978039 h 0.269806 0.269803 v -0.370951 -0.370981 h 0.404707 0.404706 v -0.236078 -0.236079 h -0.404706 c -0.386698,0 -0.404707,-0.0075 -0.404707,-0.168628 0,-0.164851 0.01126,-0.168627 0.505883,-0.168627 h 0.505884 v -0.202353 -0.202354 h -0.775688 -0.775688 v 0.978041 m 2.158436,0 v 0.978042 h 0.23608 0.2360791 V 12.06464 11.69683 l 0.421569,-0.02004 c 0.419006,-0.01997 0.42157,-0.02132 0.42157,-0.222453 0,-0.20114 -0.0025,-0.202489 -0.42157,-0.222455 -0.397085,-0.01889 -0.421569,-0.02968 -0.421569,-0.18549 0,-0.160869 0.01389,-0.165391 0.505883,-0.165391 h 0.505884 V 10.678654 10.476301 H 10.468319 9.7263559 v 0.97804 m 2.0909871,0 v 0.978042 h 0.77569 0.775688 v -0.202354 -0.202352 h -0.505883 c -0.494619,0 -0.505883,-0.0037 -0.505883,-0.168629 0,-0.161141 0.01801,-0.168628 0.404706,-0.168628 h 0.404706 v -0.236073 -0.236079 h -0.404706 c -0.386696,0 -0.404706,-0.0075 -0.404706,-0.168628 0,-0.16485 0.01127,-0.168627 0.505883,-0.168627 h 0.505883 v -0.202352 -0.202354 h -0.775688 -0.775688 v 0.97804 m 2.225888,0 v 0.978042 h 0.780139 0.780207 l -0.02138,-0.185491 c -0.02098,-0.182591 -0.02948,-0.185828 -0.544061,-0.205186 -0.501971,-0.01895 -0.522746,-0.02617 -0.522746,-0.182253 0,-0.152305 0.02657,-0.16384 0.421569,-0.182658 0.419006,-0.01997 0.42157,-0.02132 0.42157,-0.222454 0,-0.201139 -0.0025,-0.202487 -0.42157,-0.222454 -0.397084,-0.01889 -0.421569,-0.02968 -0.421569,-0.18549 0,-0.16087 0.01389,-0.16539 0.505884,-0.16539 h 0.505878 v -0.202354 -0.202353 h -0.741961 -0.741962 v 0.97804 M 5.7130183,10.958914 c -0.3487902,0.190752 -0.4152288,0.625947 -0.1379372,0.903172 0.2132125,0.213279 0.5108071,0.215506 0.7547098,0.0057 C 6.8215777,11.444749 6.2810249,10.648219 5.7130183,10.9589"
     style="fill:#ffffff;fill-rule:evenodd;stroke:none;stroke-width:0.0674511"
     id="path1-1" /></svg>
