<svg xmlns="http://www.w3.org/2000/svg" width="24" height="24"><path fill="#e4d0d6" fill-rule="evenodd" d="M4.25 5.07c-1.32.68-1.66 2.17-.72 3.14.3.3.71.64.75.6.01 0 .19.01.38.05.43.08 1.33-.17 1.57-.44.15-.16.13-.2-.2-.55-.3-.33-.4-.37-.62-.3-.71.2-1.15-.03-1.15-.6 0-.62.53-.99 1.03-.72.28.14.3.13.65-.2.2-.18.36-.4.36-.48 0-.24-.34-.46-.8-.52l-.7-.1a1 1 0 0 0-.55.12M8.45 5c-.67.08-1.05.3-1.4.8-.26.37-.3.53-.3 1.1 0 .56.04.73.28 1.1.36.54 1.2.95 1.75.87.66-.1.7-.13 1.1-.44 1.03-.83.96-2.4-.13-3.14-.47-.33-.64-.36-1.3-.29m3.43.1c-.3.18-.58.75-.58 1.22 0 .33.09.57.35.98.43.68.44.96.05 1.37-.17.18-.3.36-.3.4s.27.16.6.25l.6.16.3-.25c.7-.58.76-1.16.25-2.17-.2-.37-.35-.8-.35-.93 0-.14.16-.45.36-.69l.36-.44h-.73c-.4 0-.82.05-.9.1m2.32.04c-.07.08-.1.31-.08.52.04.37.06.4.4.42l.36.03.03 1.32.03 1.32h1.2l.03-1.32.03-1.33h.69V5h-1.29c-.98 0-1.31.03-1.4.14m4.15-.05c-.06.1-1 3.04-1.1 3.44l-.06.27h.6c.56 0 .6-.02.75-.3.13-.26.21-.3.54-.3s.4.04.5.3c.1.29.12.3.7.3.7 0 .75-.07.5-.7-.09-.25-.34-.99-.54-1.65s-.42-1.26-.48-1.33c-.1-.14-1.33-.17-1.41-.03M8.29 6.28c-.32.22-.39.32-.39.65 0 .34.43.77.76.77.26 0 .72-.37.75-.6q.06-.58-.19-.67L9 6.28c-.1-.16-.47-.16-.7 0m-3.37 5.8.03.97.55-.02c.59-.02.84-.2.96-.7.2-.75-.24-1.23-1.1-1.23H4.9zm1.85-.91a4 4 0 0 0-.07.95c0 .8.02.88.19.88q.19 0 .25-.32l.07-.33.28.33c.15.17.35.32.44.32.22 0 .21-.08-.03-.47-.17-.28-.18-.35-.06-.58.18-.34.1-.64-.21-.76-.28-.1-.77-.12-.86-.02m1.6 0a4 4 0 0 0-.07.95c0 .8.02.88.2.88.16 0 .19-.09.22-.72.05-.93-.1-1.37-.35-1.11m.51-.02c-.05.06.41 1.5.56 1.74.04.06.15.11.25.11.13 0 .26-.22.5-.8.34-.9.38-1.1.17-1.1-.19 0-.31.18-.46.65-.2.62-.26.61-.47-.02-.18-.52-.38-.74-.55-.58m1.8.67c0 .75.02 1.1.07 1.16.02.02.25.04.52.05.38.02.48-.01.51-.15.03-.15-.04-.18-.32-.18s-.36-.04-.36-.2q0-.2.27-.22.28-.04.31-.2c.03-.14-.03-.18-.27-.18s-.31-.04-.31-.2c0-.14.08-.2.33-.22q.31-.03.32-.18c0-.11-.14-.16-.52-.18l-.53-.03zm1.96-.62c-.1.15.03.3.25.3.17 0 .2.09.22.72.02.6.06.73.2.76.16.03.18-.05.18-.72 0-.74 0-.75.28-.78q.25-.04.27-.18c0-.12-.15-.16-.67-.18-.38-.02-.69.01-.73.08m1.62-.03a4 4 0 0 0-.07.95c0 .81.02.88.2.88q.27 0 .21-.33c-.04-.24.2-.43.48-.4.26.04.3.09.26.27-.07.27.09.5.27.43.12-.04.15-.25.14-.93 0-.75-.04-.9-.18-.92s-.17.05-.2.35c-.03.35-.06.38-.36.41-.28.03-.32 0-.32-.22 0-.46-.22-.71-.43-.5m1.9 0a7 7 0 0 0-.01 1.87c.15.14.34-.08.34-.4q0-.64.39.02.2.34.4.35.4.02 0-.5c-.18-.23-.2-.33-.1-.42.16-.17.14-.64-.05-.82-.15-.16-.84-.22-.97-.1m1.47.2c-.04.13-.04.5-.02.81q.08 1.03.86.9c.56-.1.62-.2.62-1.13 0-.68-.03-.84-.15-.84q-.16-.02-.15.44-.01 1.5-.6 1c-.16-.13-.2-.3-.2-.8s-.03-.64-.15-.64q-.13.02-.21.25m-12.34.68c0 .3.03.56.06.6s.19 0 .35-.05c.25-.09.29-.15.29-.47q.01-.63-.47-.61c-.21 0-.23.04-.23.53"/></svg>