<?xml version="1.0" encoding="UTF-8" standalone="no"?>
<svg
   viewBox="0 0 24 24"
   width="24pt"
   height="24pt"
   version="1.1"
   id="svg1"
   xml:space="preserve"
   xmlns="http://www.w3.org/2000/svg"
   xmlns:svg="http://www.w3.org/2000/svg"><defs
     id="defs1" /><g
     id="g1"
     transform="matrix(0.0639466,0,0,0.0639466,2.471945,0.30135395)"><path
       d="m 81.5,163.463 c -4.95,0.688 -14.85,2.417 -22,3.841 -7.15,1.425 -15.7,3.042 -19,3.593 l -6,1.003 6.5,-0.513 c 3.575,-0.281 11.9,-1.571 18.5,-2.865 6.6,-1.294 14.475,-2.653 17.5,-3.021 7.728,-0.938 23.37,1.014 36.951,4.613 20.437,5.416 36.043,4.97 41.618,-1.19 1.797,-1.986 1.787,-1.99 -1.128,-0.47 -4.05,2.112 -7.508,1.942 -18.486,-0.91 -21.027,-5.463 -36.285,-6.606 -54.455,-4.081 m -51.75,7.199 c 0.688,0.278 1.813,0.278 2.5,0 0.688,-0.277 0.125,-0.504 -1.25,-0.504 -1.375,0 -1.937,0.227 -1.25,0.504"
       stroke="none"
       fill="#ef3f35"
       fill-rule="evenodd"
       id="path1-0" /><path
       d="m 30.994,123.934 c -4.107,1.25 -8.352,3.724 -10.696,6.235 -7.467,7.997 -6.82,24.342 1.214,30.662 5.759,4.53 16.356,6.238 25.078,4.042 4.927,-1.241 6.025,-2.611 7.006,-8.748 0.835,-5.223 -0.777,-5.441 -3.264,-0.44 -2.626,5.283 -6.103,7.482 -11.832,7.482 -8.39,0 -13.204,-5.815 -14.236,-17.193 -0.663,-7.306 1.518,-13.772 5.885,-17.446 4.246,-3.573 12.837,-3.633 16.356,-0.114 1.327,1.328 2.706,3.578 3.063,5 0.883,3.518 3.461,3.391 3.332,-0.164 -0.211,-5.831 -1.331,-7.663 -5.44,-8.902 -4.474,-1.349 -12.711,-1.556 -16.466,-0.414 m 87.744,1.726 c -2.056,1.463 -3.738,3.214 -3.738,3.891 0,0.678 -1.125,1.515 -2.5,1.86 -3.194,0.801 -3.253,2.589 -0.086,2.589 2.391,0 2.417,0.108 2.75,11.398 0.28,9.504 0.653,11.748 2.241,13.5 2.134,2.354 6.479,2.736 11.446,1.004 C 133.014,158.451 132.856,157 128.535,157 123.802,157 123,155.054 123,143.566 V 134 h 3.5 c 1.925,0 3.5,-0.402 3.5,-0.893 0,-1.104 -2.483,-2.107 -5.213,-2.107 -1.815,0 -1.989,-0.46 -1.514,-4 0.295,-2.2 0.237,-4 -0.13,-4 -0.367,0 -2.349,1.197 -4.405,2.66 m 81.512,-0.076 c -1.787,1.408 -3.25,3.172 -3.25,3.919 0,0.747 -0.977,1.502 -2.172,1.677 -3.201,0.472 -3.544,2.82 -0.411,2.82 H 197 v 11.5 c 0,10.167 0.232,11.732 2,13.5 2.23,2.23 6.114,2.553 10.851,0.902 4.049,-1.411 4.016,-2.691 -0.078,-3.089 -4.491,-0.436 -5.74,-3.464 -5.758,-13.954 l -0.015,-8.64 3.605,-0.421 c 1.982,-0.231 4.907,-0.23 6.5,0.004 l 2.895,0.425 v 11.386 c 0,10.054 0.234,11.621 2,13.387 2.247,2.247 6.962,2.606 11.851,0.902 4.131,-1.44 4.016,-2.902 -0.229,-2.902 -1.857,0 -3.924,-0.659 -4.592,-1.464 -0.676,-0.814 -1.46,-5.917 -1.768,-11.5 L 223.709,134 h 3.587 c 4.808,0 5.642,-1.733 1.232,-2.561 C 225.192,130.814 225,130.56 225,126.797 v -3.981 l -3.25,1.881 c -1.787,1.034 -3.694,2.875 -4.237,4.091 -1.134,2.541 -5.771,3.754 -10.434,2.729 -2.945,-0.647 -3.05,-0.843 -2.45,-4.596 0.734,-4.591 0.024,-4.807 -4.379,-1.337 M 64.02,132.25 c -6.389,3.265 -8.487,6.631 -8.487,13.62 0,6.953 1.891,10.285 7.442,13.117 10.461,5.337 22.92,-0.435 24.561,-11.379 1.952,-13.013 -11.242,-21.63 -23.516,-15.358 m 29.991,-0.555 c -4.43,2.291 -6.045,6.373 -3.978,10.053 0.807,1.437 3.916,4.05 6.91,5.807 2.994,1.758 5.75,4.039 6.125,5.07 1.062,2.924 -0.776,5.375 -4.032,5.375 -3.172,0 -5.716,-2.028 -7.095,-5.655 -1.37,-3.604 -2.941,-2.785 -2.941,1.533 0,4.928 1.744,6.366 8.311,6.85 13.419,0.99 18.704,-10.141 7.91,-16.66 -7.606,-4.593 -9.491,-6.695 -8.189,-9.128 1.718,-3.21 6.103,-2.226 7.968,1.788 0.825,1.776 2.063,3.238 2.75,3.25 1.787,0.031 1.584,-6.456 -0.251,-7.978 -2.577,-2.139 -9.633,-2.298 -13.488,-0.305 m 45.959,0.555 c -6,3.031 -8.97,7.665 -8.97,13.994 0,6.318 2.321,10.249 7.544,12.777 4.838,2.342 10.198,2.532 14.988,0.53 4.877,-2.038 4.312,-3.109 -1.43,-2.711 -2.694,0.186 -5.868,-0.18 -7.054,-0.814 -5.374,-2.876 -7.774,-12.788 -4.588,-18.949 2.278,-4.404 6.337,-4.689 11.818,-0.829 1.457,1.025 1.952,0.98 2.735,-0.248 1.591,-2.496 1.119,-3.999 -1.578,-5.025 -4.126,-1.568 -8.692,-1.136 -13.465,1.275 m 22.547,-1.117 c -4.623,1.082 -7.009,2.867 -3.834,2.867 2.699,0 3.286,2.336 3.303,13.139 0.011,6.796 0.396,9.111 1.803,10.849 2.387,2.948 9.467,3.767 14.474,1.675 3.285,-1.372 3.798,-1.377 4.543,-0.046 0.711,1.272 1.554,1.321 5.517,0.323 4.365,-1.099 6.421,-2.94 3.284,-2.94 -2.201,0 -2.607,-2.357 -2.607,-15.127 v -11.964 l -3.75,0.686 c -2.062,0.377 -4.875,1.152 -6.25,1.723 l -2.5,1.039 2.282,0.395 c 2.237,0.388 2.277,0.618 2,11.572 -0.274,10.878 -0.345,11.185 -2.634,11.509 -7.313,1.035 -9.148,-2.372 -9.148,-16.982 0,-10.742 0.321,-10.31 -6.483,-8.718 m 77.503,0.619 c -5.257,2.641 -8.02,7.461 -8.02,13.992 0,6.711 2.195,10.776 7.21,13.351 5.633,2.892 14.69,2.069 18.73,-1.702 1.213,-1.133 0.63,-1.248 -3.717,-0.733 -3.258,0.386 -6.29,0.141 -8.236,-0.666 -4.499,-1.863 -8.191,-9.994 -4.539,-9.994 2.844,0 17.552,-5.106 17.552,-6.093 0,-2.688 -3.483,-7.211 -6.534,-8.486 -4.52,-1.888 -8.225,-1.79 -12.446,0.331 m 26.48,-1.015 c -1.1,0.277 -3.021,0.892 -4.268,1.366 l -2.268,0.861 2.018,2.018 c 1.722,1.722 2.018,3.325 2.018,10.936 0,9.765 -0.5,12.082 -2.607,12.082 -0.766,0 -1.393,0.45 -1.393,1 0,0.588 3.5,1 8.5,1 5,0 8.5,-0.412 8.5,-1 0,-0.55 -1.116,-1 -2.481,-1 -3.177,0 -3.695,-2.031 -3.314,-13 l 0.295,-8.5 h 4.879 c 3.627,0 5.167,-0.464 6,-1.809 0.901,-1.454 0.741,-2.091 -0.82,-3.25 -2.642,-1.962 -4.82,-1.81 -7.812,0.543 -2.515,1.979 -2.523,1.979 -3.041,0 -0.533,-2.037 -0.782,-2.111 -4.206,-1.247 m -200.427,4.898 c -1.624,2.064 -2.072,4.068 -2.069,9.25 0.005,8.695 2.449,13.122 7.231,13.1 3.825,-0.018 5.052,-0.699 6.615,-3.669 1.628,-3.093 1.432,-13.869 -0.313,-17.244 -2.525,-4.883 -8.195,-5.593 -11.464,-1.437 m 175.103,-0.885 c -0.492,0.963 -1.171,3.213 -1.51,5 -0.577,3.045 -0.438,3.25 2.21,3.25 4.424,0 9.124,-1.996 9.124,-3.875 0,-0.924 -0.701,-2.68 -1.557,-3.902 -1.923,-2.746 -6.958,-3.034 -8.267,-0.473 M 164,169 c 0,2.75 0.45,5 1,5 0.55,0 1,-0.626 1,-1.392 0,-0.765 1.075,-1.661 2.39,-1.991 5.063,-1.271 4.258,-6.617 -0.997,-6.617 H 164 v 5 m 37,-3.57 c 0,0.787 -1.012,1.575 -2.25,1.75 -1.762,0.251 -2.25,0.97 -2.25,3.32 0,2.654 0.375,3.036 3.25,3.313 l 3.25,0.314 v -5.064 c 0,-2.784 -0.45,-5.063 -1,-5.063 -0.55,0 -1,0.644 -1,1.43 m 24,3.63 v 5.061 l 3.75,-0.311 c 3.431,-0.284 3.75,-0.565 3.75,-3.31 0,-2.616 -0.352,-2.995 -2.75,-2.961 -1.99,0.029 -2.75,-0.455 -2.75,-1.75 0,-0.984 -0.45,-1.789 -1,-1.789 -0.55,0 -1,2.277 -1,5.06 M 246,169 c 0,2.75 0.45,5 1,5 0.55,0 1,-2.25 1,-5 0,-2.75 -0.45,-5 -1,-5 -0.55,0 -1,2.25 -1,5 m 29,0 c 0,2.75 0.45,5 1,5 0.55,0 1,-2.25 1,-5 0,-2.75 -0.45,-5 -1,-5 -0.55,0 -1,2.25 -1,5 m -109,-2 c 0,1.922 1.956,2.711 3.325,1.342 0.757,-0.757 -1.136,-3.342 -2.447,-3.342 -0.483,0 -0.878,0.9 -0.878,2 m 42.797,-0.891 c -0.71,2.13 0.431,7.891 1.562,7.892 0.956,0 1.217,-3.024 0.713,-8.251 -0.112,-1.161 -1.86,-0.885 -2.275,0.359 M 173,170.625 c 0,1.856 0.45,3.375 1,3.375 0.55,0 1,-1.125 1,-2.5 0,-1.556 0.567,-2.5 1.5,-2.5 0.825,0 1.5,-0.394 1.5,-0.875 0,-0.481 -1.125,-0.875 -2.5,-0.875 -2.173,0 -2.5,0.442 -2.5,3.375 m 5.93,-2.041 c -1.889,2.276 0.08,4.916 3.665,4.916 1.975,0 2.986,-0.564 3.224,-1.798 0.767,-3.984 -4.275,-6.267 -6.889,-3.118 m 8.257,1.666 c 0.286,2.967 0.639,3.277 4.063,3.56 3.689,0.306 3.75,0.253 3.75,-3.25 0,-2.498 -0.448,-3.56 -1.5,-3.56 -1.009,0 -1.5,1.009 -1.5,3.083 0,3.826 -2.356,3.483 -2.816,-0.41 -0.457,-3.856 -2.371,-3.302 -1.997,0.577 m 26.893,-1.846 c -0.685,0.825 -0.953,2.422 -0.595,3.548 0.818,2.58 6.255,2.89 7.206,0.412 1.429,-3.726 -4.071,-7.021 -6.611,-3.96 m 20.886,0.66 c -0.82,1.532 -0.798,2.434 0.087,3.5 1.381,1.664 5.947,1.947 5.947,0.369 0,-0.597 -0.845,-0.8 -1.916,-0.46 -1.054,0.335 -2.205,0.14 -2.559,-0.432 -0.392,-0.635 0.552,-1.041 2.416,-1.041 3.251,0 3.813,-0.846 1.859,-2.8 -1.839,-1.839 -4.607,-1.43 -5.834,0.864 m 14.964,-0.48 c -1.889,2.276 0.08,4.916 3.665,4.916 1.975,0 2.986,-0.564 3.224,-1.798 0.767,-3.984 -4.275,-6.267 -6.889,-3.118 m 8.48,-0.209 c -1.57,4.091 3.073,7.663 5.955,4.581 0.879,-0.941 0.515,-1.068 -1.615,-0.566 -2.341,0.552 -2.75,0.332 -2.75,-1.479 0,-1.792 0.41,-2.025 2.598,-1.476 1.883,0.473 2.481,0.296 2.173,-0.641 -0.628,-1.913 -5.661,-2.244 -6.361,-0.419 m 9.024,-0.268 c -0.461,0.745 0.011,0.887 1.441,0.433 1.198,-0.38 2.125,-0.239 2.125,0.323 0,0.549 -1.012,1.142 -2.25,1.317 -3.836,0.545 -2.705,3.282 1.5,3.63 3.174,0.263 3.75,0.007 3.75,-1.668 0,-1.088 -0.273,-2.69 -0.607,-3.56 -0.692,-1.804 -4.929,-2.142 -5.959,-0.475 m -68.795,0.587 c -1.236,1.236 -0.622,4.306 0.861,4.306 0.825,0 1.5,-0.873 1.5,-1.941 0,-2.087 -1.318,-3.408 -2.361,-2.365 m -18.449,2.056 c 0.186,0.963 1,1.75 1.81,1.75 0.81,0 1.624,-0.787 1.81,-1.75 0.236,-1.228 -0.304,-1.75 -1.81,-1.75 -1.506,0 -2.046,0.522 -1.81,1.75 m 35,0 c 0.186,0.963 1,1.75 1.81,1.75 0.81,0 1.624,-0.787 1.81,-1.75 0.236,-1.228 -0.304,-1.75 -1.81,-1.75 -1.506,0 -2.046,0.522 -1.81,1.75 m 12,0 c 0.186,0.963 1,1.75 1.81,1.75 0.81,0 1.624,-0.787 1.81,-1.75 0.236,-1.228 -0.304,-1.75 -1.81,-1.75 -1.506,0 -2.046,0.522 -1.81,1.75 m 24,0 c 0.186,0.963 1,1.75 1.81,1.75 0.81,0 1.624,-0.787 1.81,-1.75 0.236,-1.228 -0.304,-1.75 -1.81,-1.75 -1.506,0 -2.046,0.522 -1.81,1.75 M 268.5,172 c -0.34,0.55 0.084,1 0.941,1 0.857,0 1.559,-0.45 1.559,-1 0,-0.55 -0.423,-1 -0.941,-1 -0.518,0 -1.219,0.45 -1.559,1"
       stroke="none"
       fill="#0d5b43"
       fill-rule="evenodd"
       id="path2" /></g></svg>
