<svg xmlns="http://www.w3.org/2000/svg" width="24" height="24"><path fill="#750809" fill-rule="evenodd" d="M3.7 7.78c-1.2.64-.73 2.52.64 2.52.58 0 .66-.07.66-.61 0-.46-.1-.62-.25-.39-.16.25-.75-.02-.75-.35 0-.07.07-.21.16-.3.16-.16.28-.16.67 0 .15.06.17 0 .17-.43 0-.36-.04-.52-.16-.56a1.6 1.6 0 0 0-1.14.12m2.15-.04q-.81.35-.77 1.35c.05 1.25 1.96 1.68 2.62.58.11-.18.2-.48.2-.67.01-.31.02-.32.1-.12.05.12.2.26.32.31l.48.2q.39.14-.05.08a2 2 0 0 1-.46-.11c-.13-.05-.2 0-.28.25-.15.44-.15.46.2.58.67.23 1.45.05 1.69-.38.16-.3.12-.76-.07-.94a2 2 0 0 0-.53-.3q-.37-.15-.15-.16c.11 0 .27.04.35.09.12.07.18.02.3-.26l.16-.36.34.53c.27.43.35.68.4 1.19l.05.65.53.03.52.03v-.58c0-.5.06-.68.4-1.27.22-.37.4-.7.4-.72s-.24-.04-.54-.04c-.44 0-.56.04-.7.23l-.15.22-.07-.23c-.06-.22-.12-.23-.78-.23-.39 0-.91-.02-1.16-.05-.37-.04-.51-.01-.8.18-.2.13-.36.34-.38.46q-.05.45-.33-.06c-.3-.54-1.19-.77-1.84-.48m7.1.05c-1.38.84-.48 2.87 1.1 2.47.23-.06.25-.11.25-.57s-.02-.5-.18-.44q-.81.34-.82-.31c0-.32.38-.51.68-.35s.32.15.32-.38c0-.42-.03-.5-.22-.55-.41-.1-.83-.06-1.13.13m1.47 1.18.03 1.28h1.7l.03-.47.03-.48h-.71V7.7h-1.11zm1.88-.31c0 .52.05 1.04.1 1.15.16.28.63.49 1.14.49.36 0 .52-.06.78-.3.33-.28.33-.3.36-1.3l.04-1H17.6v.86c0 .64-.03.85-.12.82q-.13-.05-.16-.86l-.03-.82h-.99zm2.5.34v1.3h.69c1.08 0 1.51-.23 1.51-.81 0-.12-.08-.3-.17-.4-.13-.15-.14-.22-.05-.31.2-.2.14-.63-.11-.86-.2-.19-.35-.22-1.05-.22h-.82zM6.2 8.75a.4.4 0 0 0-.05.34c.11.36.58.37.68.02.1-.42-.36-.69-.63-.36"/></svg>