<svg xmlns="http://www.w3.org/2000/svg" width="24" height="24"><path fill="#919457" fill-rule="evenodd" d="M7.26 3.56A5.7 5.7 0 0 0 3.31 7.1c-.21.56-.25.82-.25 1.85s.04 1.29.25 1.85a5.6 5.6 0 0 0 4 3.55c.52.12 1.42.15 4.69.15 4.28 0 4.67-.04 5.73-.5l.49-.2.98.25c1.18.3 1.42.3 1.63.07.23-.25.22-.36-.17-1.45l-.35-.95.24-.58c.37-.9.48-1.6.42-2.54a5.5 5.5 0 0 0-4.28-5.05 11 11 0 0 0-2.25-.15c-1.43 0-1.63.02-1.77.18-.22.24-.22.65 0 .85.15.12.53.16 1.98.2 1.55.03 1.88.06 2.35.25A4.4 4.4 0 0 1 19.28 11l-.3.65.3.63c.18.35.29.63.25.63l-.76-.2-.7-.22-.6.31c-1 .5-1.3.52-5.78.49-4.02-.03-4.16-.04-4.69-.25a4.7 4.7 0 0 1-2.52-2.53 5.3 5.3 0 0 1 0-3.1A4.7 4.7 0 0 1 7 4.88c.48-.19.8-.22 2.35-.26 1.97-.04 2.15-.1 2.15-.62 0-.54-.2-.6-2-.6-1.06.01-1.86.07-2.24.16m1.39 2.73A2.85 2.85 0 0 0 6.5 8.95a2.76 2.76 0 0 0 3.25 2.65c1.05-.22 1.78-.94 1.56-1.53-.2-.52-.75-.61-1.33-.2-1.11.77-2.48-.4-1.78-1.52.38-.6 1.16-.74 1.8-.3.56.39 1.11.3 1.3-.22.23-.57-.4-1.23-1.42-1.5a2 2 0 0 0-1.23-.04m3.7.36c-.24.23-.25.3-.25 1.43 0 1.44.16 2.07.68 2.64a2.54 2.54 0 0 0 3.85-.03c.52-.6.67-1.19.67-2.61 0-1.13-.01-1.2-.25-1.43-.31-.32-.74-.33-1.03-.02-.2.2-.22.34-.22 1.28 0 1.23-.11 1.7-.47 1.99-.31.24-.9.26-1.22.04-.4-.28-.51-.73-.51-1.97 0-1.06-.02-1.15-.23-1.35-.3-.3-.72-.28-1.02.03"/></svg>