<svg xmlns="http://www.w3.org/2000/svg" width="24" height="24"><path fill="#858585" fill-rule="evenodd" d="M3 7.4q0 .09.1.15c.06.03.1.3.1.6s-.04.55-.1.55q-.1.01-.1.15c0 .11.12.15.5.15.6 0 1.02-.19 1.18-.55.18-.39.15-.54-.17-.86-.26-.26-.36-.29-.9-.29-.34 0-.61.04-.61.1m2.95.6c-.16.4-.32.73-.37.76-.15.1.02.24.27.24.22 0 .24-.03.19-.3-.06-.28-.05-.3.24-.3.3 0 .5.23.31.35-.17.1.01.25.32.25.27 0 .39-.13.2-.24a4 4 0 0 1-.36-.75c-.15-.4-.33-.71-.4-.71-.06 0-.25.32-.4.7M8 7.4q0 .09.1.1c.06 0 .1.26.1.6 0 .32-.04.62-.1.65-.2.13-.09.25.24.25.35 0 .55-.13.36-.25-.05-.03-.1-.18-.1-.33v-.27l.26.33c.3.37.6.56.75.47.05-.04-.03-.2-.2-.38q-.46-.47-.22-.47c.2 0 .23-.41.05-.6-.13-.15-.3-.2-.7-.2-.3 0-.54.05-.54.1m2.4-.01q.02.08.15.15c.22.08.21 1.11 0 1.2-.34.13 0 .26.65.26.6 0 .7-.02.75-.2.08-.26-.01-.38-.17-.22-.07.07-.27.12-.45.12H11v-.6c0-.33.04-.6.1-.6a.1.1 0 0 0 .1-.1c0-.05-.18-.1-.4-.1s-.4.04-.4.09m2.4.01q0 .09.1.1c.06 0 .1.26.1.6 0 .32-.04.62-.1.65-.22.13-.08.25.3.25.4 0 .54-.15.25-.26-.1-.05-.15-.21-.15-.6 0-.4.04-.56.15-.6.28-.11.15-.24-.25-.24-.22 0-.4.05-.4.1m1.6 0q0 .09.1.15c.06.03.1.3.1.6s-.04.57-.1.6c-.2.13-.09.25.25.25q.56 0 .2-.3c-.08-.07-.15-.29-.15-.48v-.36l.58.57c.32.32.61.54.65.5.04-.03.07-.37.07-.75 0-.39.04-.68.1-.68a.1.1 0 0 0 .1-.1c0-.05-.16-.1-.35-.1-.33 0-.48.14-.24.22.05.02.13.24.16.48l.05.45-.59-.57c-.53-.53-.93-.73-.93-.49m3.17.02c-.29.17-.49.73-.37 1.03.1.28.57.56.92.56.49 0 .68-.11.68-.4 0-.14.05-.31.12-.38.1-.1.02-.12-.33-.12-.39 0-.42.02-.27.14.24.18.23.43-.02.5-.35.12-.8-.27-.8-.68 0-.43.73-.73 1-.41q.12.13.21.15c.16 0 .1-.38-.07-.44-.25-.1-.87-.06-1.07.05m2.44.03q-.3.36.32.75c.45.3.48.51.07.51q-.3 0-.3-.16-.02-.14-.12-.11c-.07.02-.11.13-.1.23.1.57 1.12.42 1.12-.16 0-.24-.08-.35-.4-.55-.23-.14-.38-.3-.35-.35.1-.15.45-.12.51.05.1.23.26.18.22-.08-.02-.18-.1-.23-.44-.25q-.4-.03-.53.12M3.5 8.09v.61h.33q.59.01.57-.5 0-.55-.58-.66l-.32-.06zm2.64 1.87c-.15.23-.15.27 0 .5.28.43.76.27.76-.25s-.48-.68-.76-.25m1.4.25c0 .4.03.5.15.48q.15-.05.13-.2-.04-.19.14-.11.17.07.12-.13-.05-.17-.16-.16-.11 0-.12-.09.01-.1.21-.04.22.07.17-.06c-.03-.08-.18-.15-.34-.17-.3-.03-.3-.03-.3.48m2.08-.38c-.17.17-.15.63.03.78.19.15.65.05.65-.15q-.02-.28-.28-.03-.13.15-.22-.02c-.2-.33-.01-.62.26-.4.17.15.29.07.2-.15-.06-.18-.47-.2-.64-.03m1.24.36q0 .49.18.5.15.03.16-.17t.1-.21c.05 0 .1.1.1.2q0 .21.16.18.17-.01.18-.5c.02-.4-.01-.48-.17-.48q-.17 0-.15.16t-.1.21q-.11.03-.12-.16 0-.21-.18-.21c-.15 0-.17.08-.16.48m1.48-.32a2 2 0 0 1 .06.5c0 .34.02.35.32.32.17-.02.33-.1.36-.17q.05-.14-.17-.06-.2.05-.21-.04.01-.1.16-.11.14-.02.11-.12-.05-.12-.16-.1-.1 0-.11-.09.02-.1.2-.04.2.08.2-.1c0-.11-.1-.15-.41-.15-.33 0-.4.03-.35.16m1.36.35v.5l.32-.03q.35-.02.36-.23.05-.24-.09-.07-.34.33-.27-.28c.03-.33 0-.4-.14-.4s-.18.09-.18.5m1.27-.44c-.14.14-.07.43.13.49q.18.06.2.16c0 .13-.14.11-.29-.04q-.14-.15-.1.08a.3.3 0 0 0 .25.23c.25.04.49-.22.38-.4a1 1 0 0 1-.09-.33c0-.2-.34-.33-.48-.19m1.18.44v.5l.34-.02c.2-.02.36-.09.39-.16q.05-.14-.22-.06-.24.05-.26-.04.01-.1.18-.14.16-.06.2-.31c.02-.24-.02-.27-.3-.27-.33 0-.33 0-.33.5m1.4-.04c-.18.47-.13.72.1.41q.24-.32.25-.02c0 .15.21.2.33.09.07-.07-.34-.94-.44-.94-.03 0-.14.2-.24.46"/></svg>