<?xml version="1.0" encoding="UTF-8" standalone="no"?>
<svg
   viewBox="0 0 24 24"
   width="24pt"
   height="24pt"
   version="1.1"
   id="svg1"
   xml:space="preserve"
   xmlns="http://www.w3.org/2000/svg"
   xmlns:svg="http://www.w3.org/2000/svg"><defs
     id="defs1" /><g
     id="g1"
     transform="matrix(0.04677871,0,0,0.04677871,0.06750999,-2.1725335)"><path
       d="m 228.5,96.596 c -68.071,12.051 -120.274,64.429 -131.888,132.33 -2.16,12.628 -2.162,39.492 -0.005,52.148 5.607,32.9 20.242,61.558 43.8,85.772 24.465,25.145 54.946,40.937 90.093,46.676 11.731,1.916 37.322,1.91 49,-0.01 55.274,-9.09 101.096,-44.742 122.97,-95.677 13.759,-32.042 16.489,-70.095 7.483,-104.313 C 398.059,168.333 364.722,128.912 321.522,108.954 310.851,104.024 293.48,98.721 281.074,96.607 269.17,94.578 239.933,94.572 228.5,96.596 m 4,2.517 c -44.209,6.403 -83.828,31.816 -109.487,70.228 -9.54,14.281 -17.113,32.315 -21.695,51.659 -3.688,15.572 -4.363,42.716 -1.481,59.583 10.973,64.237 57.807,113.463 121.919,128.143 10.777,2.468 13.514,2.691 33.244,2.703 20.089,0.013 22.287,-0.171 33.5,-2.8 61.26799,-14.36519 105.77582,-58.91223 120.129,-120.129 2.629,-11.213 2.813,-13.411 2.8,-33.5 -0.012,-19.73 -0.235,-22.467 -2.703,-33.244 C 394.108,157.914 344.829,110.827 281.261,99.959 273.59254,98.64829 261.05645,97.987297 249.88126,98.084396 243.13468,98.143016 236.88409,98.477935 232.5,99.113 m -18,23.58 c -15.961,5.423 -15.558,5.202 -14.892,8.139 0.872,3.844 4.423,11.168 5.415,11.168 1.28,0 1.641,-5.262 0.498,-7.253 -1.26,-2.196 0.383,-5.126 3.105,-5.537 1.618,-0.244 2.453,1.329 5.276,9.942 l 3.354,10.232 -2.865,2.285 c -2.694,2.147 -2.764,2.387 -1.171,3.979 1.827,1.827 1.449,1.918 13.607,-3.269 4.015,-1.714 3.685,-3.997 -0.518,-3.586 -3.626,0.355 -4.748,-0.878 -7.199,-7.901 -1.036,-2.965 -2.487,-6.866 -3.225,-8.667 -0.99,-2.416 -1.057,-3.729 -0.255,-5 1.731,-2.745 4.581,-2.104 5.671,1.275 1.304,4.044 2.581,5.5 4.821,5.5 2.268,0 2.262,0.128 0.306,-6.599 -0.864,-2.974 -2.327,-5.785 -3.25,-6.247 -1.079,-0.54 -4.177,0.01 -8.678,1.539 m 77.903,1.738 c -2.493,1.746 -8.737,14.975 -8.736,18.51 0,1.408 0.8,4.242 1.776,6.3 1.42,2.989 2.6,3.963 5.877,4.845 5.63,1.516 10.646,-0.065 13.034,-4.108 3.545,-6.001 -0.27,-7.882 -6.883,-3.394 -3.165,2.148 -4.205,2.403 -6.168,1.508 -4.729,-2.154 -4.636,-8.249 0.255,-16.72 2.29,-3.967 5.925,-5.93 8.28,-4.471 0.532,0.329 2.111,3.187 3.51,6.349 1.398,3.162 2.979,5.75 3.514,5.75 0.535,0 1.46,-2.272 2.055,-5.049 1.325,-6.178 1.326,-5.951 -0.023,-5.951 -0.608,0 -2.442,-1.125 -4.076,-2.5 -3.401,-2.861 -9.15,-3.356 -12.415,-1.069 M 319,133.453 c 0,0.249 0.52,1.594 1.156,2.99 1.005,2.205 0.756,3.18 -1.906,7.461 -1.683,2.709 -3.328,5.751 -3.654,6.76 -0.709,2.196 -6.53,6.336 -8.908,6.336 -4.21,0 1.18,5.924 7.53,8.276 2.097,0.777 3.431,-1.027 1.895,-2.563 -1.68,-1.68 -1.345,-4.602 0.956,-8.324 2.067,-3.345 2.07,-3.346 4.75,-1.578 1.474,0.973 3.581,2.261 4.681,2.862 3.997,2.183 0.124,9.327 -5.056,9.327 -1.829,0 -3.566,0.389 -3.86,0.864 -0.867,1.403 9.279,9.403 11.058,8.72 1.041,-0.399 1.32,-1.185 0.833,-2.342 -1.823,-4.336 -1.528,-5.893 1.943,-10.26 1.959,-2.465 3.567,-5.012 3.572,-5.659 0.015,-1.838 5.021,-5.323 7.645,-5.323 3.922,0 2.731,-2.701 -2.85,-6.459 -5.72,-3.852 -8.151,-3.462 -5.8,0.93 1.512,2.827 0.119,7.529 -2.231,7.529 -2.067,0 -8.754,-4.939 -8.754,-6.465 0,-2.318 2.968,-4.535 6.071,-4.535 1.611,0 2.929,-0.255 2.929,-0.566 0,-1.519 -2.222,-4.434 -3.38,-4.434 -0.721,0 -2.125,-0.9 -3.12,-2 -1.569,-1.734 -5.5,-2.84 -5.5,-1.547 m -136,3.944 c -2.925,1.041 -3.772,2.055 -5.158,6.174 -1.433,4.259 -1.475,5.369 -0.306,8.168 2.268,5.43 7.395,12.174 10.461,13.76 8.211,4.246 17.253,-1.681 16.482,-10.805 -0.372,-4.405 -1.467,-6.26 -7.937,-13.444 -5.112,-5.677 -6.946,-6.199 -13.542,-3.853 m 1.2,4.803 c -0.66,0.66 -1.2,3.55 -1.2,6.422 0,4.893 0.264,5.448 4.18,8.8 4.343,3.717 6.604,4.299 9.886,2.543 4.137,-2.214 0.696,-13.095 -5.316,-16.81 -3.957,-2.446 -5.823,-2.682 -7.55,-0.955 m -24.566,12.05 c -3.757,4.522 -3.485,6.885 0.583,5.063 1.704,-0.763 2.854,-0.65 4.533,0.447 3.217,2.102 2.79,4.559 -1.437,8.27 l -3.687,3.237 -2.191,-2.547 c -1.481,-1.722 -2.03,-3.386 -1.696,-5.134 0.764,-3.999 -2.628,-3.286 -6.489,1.365 -3.912,4.712 -4.348,7.406 -1,6.168 3.042,-1.125 4.525,-0.495 9.478,4.024 2.325,2.121 4.604,3.857 5.064,3.857 1.137,0 4.208,6.594 4.208,9.034 0,1.081 0.623,1.966 1.384,1.966 1.491,0 8.616,-7.396 8.616,-8.944 0,-1.445 -1.785,-2.213 -2.49,-1.072 -1.095,1.771 -4.253,1.103 -7.433,-1.573 -3.364,-2.83 -3.916,-4.875 -1.562,-5.778 0.833,-0.32 1.947,-1.718 2.475,-3.107 1.211,-3.185 3.698,-3.177 7.336,0.023 2.328,2.048 2.711,3.006 2.176,5.444 -1.106,5.034 0.352,5.249 5.598,0.826 5.819,-4.907 6.137,-7.438 0.887,-7.055 -3.071,0.224 -4.291,-0.514 -10.237,-6.194 -5.458,-5.215 -6.75,-7.035 -6.75,-9.51 0,-4.481 -3.065,-3.986 -7.366,1.19 m 188.957,2.603 c -0.29,0.469 0.119,1.706 0.909,2.75 0.79,1.043 1.451,2.46 1.468,3.147 0.035,1.351 -6.323,8.076 -11.797,12.479 -3.107,2.499 -3.571,2.604 -5.505,1.25 -2.454,-1.719 -5.273,-1.924 -6.184,-0.45 -0.601,0.973 10.993,14.988 12.371,14.956 0.356,-0.009 1.252,-0.399 1.991,-0.868 1.109,-0.702 1.057,-1.408 -0.296,-4.024 -1.638,-3.168 -1.635,-3.179 2.156,-7.271 8.928,-9.637 13.097,-11.714 15.569,-7.757 1.73,2.77 4.048,2.54 3.168,-0.315 -1.415,-4.585 -3.497,-7.642 -7.595,-11.15 -4.372,-3.742 -5.369,-4.18 -6.255,-2.747 m 8.724,27.054 c -7.534,3.643 -8.198,4.22 -9.855,8.557 -1.66,4.349 -1.669,4.875 -0.131,8.1 2.213,4.64 7.187,7.679 11.51,7.032 3.405,-0.509 6.161,-2.161 6.161,-3.693 0,-1.311 -5.597,-3.903 -8.427,-3.903 -1.553,0 -3.124,-0.911 -4.077,-2.365 -2.248,-3.432 -0.579,-6.81 4.975,-10.065 6.239,-3.657 10.457,-4.262 13.34,-1.914 l 2.264,1.844 -1.934,5.607 c -2.597,7.525 -1.707,8.529 4.169,4.707 4.348,-2.828 4.621,-3.233 3.22,-4.781 -0.841,-0.93 -1.53,-2.846 -1.53,-4.258 0,-3.128 -6.009,-8.775 -9.338,-8.775 -1.247,0 -5.903,1.758 -10.347,3.907 m -227.274,8.843 c -0.636,1.512 -2.029,4.325 -3.097,6.25 -5.192,9.363 1.797,17.288 11.035,12.511 1.584,-0.819 3.166,-2.394 3.518,-3.5 0.351,-1.106 1.057,-2.011 1.57,-2.011 0.513,0 0.933,-0.605 0.933,-1.345 0,-1.8 3.253,-4.655 5.303,-4.655 1.698,0 4.697,4.736 4.697,7.417 0,0.834 -1.626,3.142 -3.613,5.13 -2.623,2.623 -4.201,3.465 -5.759,3.075 -1.948,-0.489 -5.721,0.819 -4.599,1.595 2.1,1.451 8.967,4.783 9.857,4.783 0.613,0 1.122,-1.012 1.131,-2.25 0.01,-1.238 1.16,-3.334 2.557,-4.66 5.237,-4.969 8.067,-14.541 4.674,-15.806 -0.961,-0.359 -2.296,-1.413 -2.967,-2.342 -0.917,-1.273 -2.399,-1.612 -6,-1.373 -5.098,0.34 -5.84,0.945 -11.583,9.453 -1.8,2.666 -3.321,3.953 -4.25,3.596 -0.797,-0.305 -1.448,-0.093 -1.448,0.472 0,0.566 -0.459,0.744 -1.021,0.397 -1.41,-0.871 -0.68,-6.325 1.37,-10.237 1.478,-2.823 2.217,-3.25 5.615,-3.25 3.431,0 3.895,-0.276 3.772,-2.25 -0.186,-2.99 -1.428,-3.716 -6.388,-3.735 -3.59,-0.013 -4.309,0.358 -5.307,2.735 m 251.781,15.87 c -0.309,2.631 -0.755,2.831 -11.322,5.094 -10.968,2.349 -11.005,2.351 -12.626,0.364 -2.911,-3.568 -3.802,0.094 -1.716,7.056 1.307,4.361 3.448,5.032 4.79,1.502 1.323,-3.48 7.975,-5.188 9.65,-2.477 1.08,1.747 -7.451,9.388 -8.883,7.956 -0.613,-0.613 -1.527,-1.115 -2.031,-1.115 -1.372,0 -0.307,12.544 1.221,14.385 1.191,1.436 1.511,1.356 3.209,-0.803 1.037,-1.319 1.886,-3.348 1.886,-4.509 0,-3.278 7.073,-11.949 9.802,-12.016 3.79,-0.094 9.818,4.003 11.098,7.543 0.637,1.762 1.82,3.753 2.629,4.424 1.264,1.049 1.471,0.451 1.471,-4.252 0,-8.955 -2.536,-13.836 -5.599,-10.773 -1.067,1.067 -11.401,-2.72 -11.401,-4.178 0,-0.431 1.238,-1.056 2.75,-1.389 1.512,-0.334 3.2,-0.732 3.75,-0.884 1.688,-0.469 4.5,1.435 4.5,3.046 0,0.838 0.45,1.246 1,0.906 1.385,-0.856 1.227,-6.498 -0.265,-9.421 -1.767,-3.463 -3.535,-3.67 -3.913,-0.459 m -260.167,8.209 c -3.651,4.034 -1.514,6.745 5.494,6.97 5.838,0.187 8.076,-1.827 4.676,-4.209 -1.248,-0.874 -2.79,-1.59 -3.425,-1.59 -0.635,0 -1.715,-0.675 -2.4,-1.5 -1.615,-1.946 -2.336,-1.891 -4.345,0.329 m -3.188,13.447 c -0.314,1.252 -1.119,6.314 -1.789,11.25 -1.797,13.243 -0.177,18.972 3.525,12.467 1.618,-2.842 2.021,-2.989 8,-2.919 11.164,0.132 15.132,1.1 15.781,3.852 1.762,7.48 5.016,-2.69 5.016,-15.676 0,-7.582 -0.695,-9.748 -2.617,-8.153 -0.761,0.631 -1.383,0.74 -1.383,0.242 0,-0.498 -1.238,-0.851 -2.75,-0.785 -4.296,0.187 -4.057,3.046 0.434,5.192 3.8,1.815 4.277,3.139 2.615,7.254 -0.333,0.825 -0.649,2.175 -0.702,3 -0.054,0.825 -0.772,1.5 -1.597,1.5 -0.825,0 -1.831,0.45 -2.235,1 -0.415,0.565 -0.741,0.238 -0.75,-0.75 -0.019,-2.23 -1.6,-2.273 -2.447,-0.067 -0.584,1.521 -0.847,1.483 -2.728,-0.399 -2.337,-2.336 -1.797,-3.97 1.757,-5.321 3.793,-1.442 2.844,-2.598 -3.115,-3.795 -4.075,-0.818 -6.168,-0.813 -8,0.022 -2.911,1.327 -3.182,2.623 -0.732,3.497 3.46,1.233 4.275,2.398 3.15,4.501 -1.021,1.907 -1.108,1.912 -2.448,0.145 -0.763,-1.008 -1.403,-1.409 -1.42,-0.892 -0.018,0.518 -0.693,0.068 -1.5,-1 -0.808,-1.067 -1.483,-3.628 -1.5,-5.691 -0.031,-3.582 0.116,-3.75 3.268,-3.75 3.045,0 5.7,-1.438 5.7,-3.086 0,-1.041 -6.52,-3.914 -8.882,-3.914 -1.33,0 -2.286,0.821 -2.651,2.276 m 103.194,2.206 c -0.815,0.815 -2.278,3.566 -3.251,6.114 -1.588,4.159 -1.623,5.055 -0.34,8.758 1.88,5.424 5.853,7.582 9.528,5.174 1.37,-0.898 2.959,-2.847 3.53,-4.33 1.27,-3.297 0.289,-11.874 -1.711,-14.948 -1.684,-2.59 -5.551,-2.973 -7.756,-0.768 m 35.636,2.645 c -2.177,3.29 -2.738,5.314 -2.764,9.975 -0.028,5.019 0.343,6.225 2.622,8.505 5.866,5.871 11.58,-0.567 10.553,-11.889 -0.988,-10.896 -5.621,-13.829 -10.411,-6.591 m 132.417,12.819 c -1.377,3.648 -5.601,4.581 -16.238,3.584 -6.627,-0.621 -7.354,-0.907 -7.906,-3.107 -0.334,-1.333 -1.001,-2.423 -1.481,-2.423 -2.098,0 -3.74,16.87 -2.198,22.595 1.086,4.033 1.162,4.088 5.648,4.047 3.912,-0.036 4.507,-0.311 4.254,-1.966 -0.181,-1.189 -1.631,-2.365 -3.793,-3.076 -2.589,-0.852 -3.439,-1.665 -3.266,-3.126 0.128,-1.085 0.401,-3.296 0.607,-4.911 0.386,-3.033 3.588,-5.18 4.833,-3.241 0.459,0.716 1.134,0.667 2.123,-0.154 1.935,-1.605 4.703,-0.433 4.703,1.991 0,1.262 -1.053,2.312 -3,2.991 -3.851,1.342 -3.809,2.438 0.125,3.225 7.87,1.574 13.713,0.25 12.528,-2.837 -0.351,-0.916 -1.041,-1.416 -1.533,-1.112 -1.326,0.819 -3.434,-2.165 -2.763,-3.913 0.761,-1.983 2.643,-1.95 2.643,0.046 0,0.857 0.43,1.293 0.956,0.968 1.465,-0.905 3.85,3.605 3.688,6.973 -0.129,2.696 -0.478,3 -3.43,3 -4.382,0 -5.918,2.424 -2.962,4.675 1.21,0.921 2.436,1.637 2.724,1.591 0.288,-0.046 1.342,0.273 2.341,0.708 2.517,1.096 3.753,-0.467 4.8,-6.072 1.061,-5.68 1.345,-20.846 0.418,-22.346 -1.161,-1.878 -2.682,-1.126 -3.821,1.89 m -272.61,12.859 c -1.218,2.276 -0.214,10.215 1.368,10.823 0.794,0.304 1.036,2.255 0.734,5.901 -0.328,3.95 -0.005,6.129 1.175,7.929 l 1.626,2.482 4.304,-4.22 c 2.799,-2.744 6.793,-5.199 11.424,-7.019 3.916,-1.539 8.329,-3.75 9.806,-4.912 l 2.687,-2.114 -2.37,-1.242 C 144.542,266.696 134.701,265 127.938,265 c -5.385,0 -5.763,-0.163 -6.938,-3 -1.423,-3.436 -2.517,-3.772 -3.896,-1.195 m 5.826,9.265 c -2.278,2.278 -1.437,5.765 1.574,6.52 2.659,0.668 10.496,-3 10.496,-4.913 0,-0.74 -2.174,-1.727 -5.144,-2.336 -4.482,-0.918 -5.373,-0.824 -6.926,0.729 m 236.154,10.633 c -1.106,3.687 -1.797,6.917 -1.535,7.179 0.262,0.262 2.145,-0.319 4.184,-1.292 2.122,-1.012 3.848,-1.347 4.035,-0.785 0.18,0.54 1.206,0.753 2.28,0.472 1.119,-0.292 1.952,-0.008 1.952,0.665 0,0.647 0.387,0.937 0.86,0.645 1.021,-0.631 6.121,1.584 6.132,2.663 0.004,0.413 -1.454,0.807 -3.242,0.878 -1.788,0.07 -4.15,0.294 -5.25,0.499 -1.1,0.204 -4.578,0.651 -7.729,0.994 -3.151,0.343 -6.225,1.222 -6.832,1.953 -1.919,2.312 -0.116,5.302 3.617,6.003 1.894,0.355 3.444,1.031 3.444,1.503 0,0.471 0.675,0.598 1.5,0.282 0.862,-0.331 1.5,-0.02 1.5,0.731 0,1.017 0.267,1.04 1.2,0.107 1.607,-1.607 2.861,-1.524 2.221,0.146 -0.363,0.947 0.435,1.374 2.683,1.438 1.76,0.05 3.47,0.489 3.798,0.976 0.329,0.487 1.386,1.176 2.348,1.532 0.962,0.355 1.75,1.592 1.75,2.75 0,3.291 3.238,2.01 5.16,-2.042 2.595,-5.469 3.293,-10 1.542,-10 -0.801,0 -2.017,0.675 -2.702,1.5 -1.475,1.777 -5.461,1.932 -9.896,0.386 -4.017,-1.4 -3.541,-3.173 0.96,-3.582 10.11,-0.92 12.344,-1.558 15.099,-4.313 1.887,-1.887 2.837,-3.868 2.837,-5.914 0,-3.552 -0.105,-3.591 -4.075,-1.538 -2.79,1.443 -3.548,1.356 -12.2,-1.392 -8.444,-2.682 -9.306,-3.194 -10.182,-6.039 -1.496,-4.861 -3.274,-3.691 -5.459,3.595 m -212.697,-1.557 c -0.496,1.73 -1.792,3.642 -2.879,4.25 -1.088,0.607 -2.558,1.871 -3.268,2.809 -0.71,0.938 -4.204,3.621 -7.765,5.962 -8.307,5.462 -9.7,8.983 -3.987,10.076 1.385,0.264 6.839,0.084 12.12,-0.402 7.884,-0.725 10.148,-0.61 12.651,0.638 1.676,0.837 3.429,1.521 3.895,1.521 1.626,0 0.821,-5.529 -1.311,-9 l -2.15,-3.5 -0.949,2.806 c -0.704,2.085 -1.501,2.728 -3.096,2.5 -1.788,-0.255 -2.148,-0.976 -2.148,-4.306 0,-3.415 0.292,-3.964 2,-3.754 3.061,0.377 5.291,-1.355 3.742,-2.904 -0.683,-0.683 -1.242,-2.177 -1.242,-3.319 0,-2.217 -2.583,-6.523 -3.912,-6.523 -0.439,0 -1.205,1.416 -1.701,3.146 m -10.179,15.996 c -4.147,2.655 -3.539,3.285 2.325,2.405 3.556,-0.533 4.491,-1.042 4.046,-2.202 -0.318,-0.83 -0.579,-1.697 -0.579,-1.927 0,-1.033 -2.779,-0.206 -5.792,1.724 m 12.024,13.307 c -1.247,0.689 -4.509,3.376 -7.25,5.97 -6.561,6.212 -6.72,9.547 -0.895,18.676 4.324,6.774 6.658,9.181 8.064,8.312 0.471,-0.291 0.606,-1.526 0.3,-2.745 -0.698,-2.782 1.875,-5.285 10.337,-10.053 4.664,-2.628 7.023,-3.397 9.129,-2.976 1.569,0.314 3.137,0.089 3.502,-0.503 1.177,-1.903 -8.417,-15.231 -12.058,-16.753 -3.962,-1.655 -8.051,-1.629 -11.129,0.072 m -0.732,7.393 c -1.65,1.008 -3.498,2.469 -4.106,3.246 -2.838,3.625 -2.23,9.994 1.076,11.262 2.256,0.866 14.231,-6.871 16.035,-10.361 1.357,-2.623 1.297,-2.889 -0.995,-4.391 -3.237,-2.121 -8.311,-2.018 -12.01,0.244 m 223.973,1.188 c -2.634,2.91 -1.008,7.346 2.856,7.792 3.569,0.412 5.671,-1.346 5.671,-4.744 0,-5.088 -5.048,-6.892 -8.527,-3.048 m 0.727,0.17 c -0.66,0.66 -1.2,1.955 -1.2,2.878 0,4.312 7.228,5.344 7.827,1.117 0.598,-4.223 -3.767,-6.855 -6.627,-3.995 m 1.19,1.373 c 0.301,0.785 0.011,1.427 -0.644,1.427 -0.655,0 -0.153,0.727 1.116,1.616 1.609,1.127 2.624,1.298 3.355,0.567 1.485,-1.485 0.338,-3.805 -2.211,-4.471 -1.599,-0.418 -2.021,-0.193 -1.616,0.861"
       stroke="none"
       fill="#000000"
       fill-rule="evenodd"
       id="path1-0" /><path
       d="m 216.898,222.289 c -5.374,3.62 -8.321,9.938 -8.253,17.698 0.062,7.165 2.975,15.84 6.68,19.892 6.857,7.499 20.273,6.497 25.141,-1.879 1.676,-2.885 2.034,-5.258 2.034,-13.5 0,-11.542 -1.737,-16.077 -8.199,-21.403 -4.865,-4.011 -12.147,-4.349 -17.403,-0.808 m 38.892,1.758 c -5.634,2.976 -8.997,9.494 -9.579,18.568 -0.581,9.056 1.351,14.915 6.372,19.324 4.137,3.632 7.038,4.477 13.053,3.799 8.757,-0.988 15.337,-10.851 15.354,-23.02 0.01,-7.008 -2.181,-14.336 -3.958,-13.238 -0.569,0.352 -0.772,0.006 -0.465,-0.793 0.314,-0.82 -0.775,-2.526 -2.589,-4.052 -2.598,-2.187 -4.097,-2.627 -8.805,-2.591 -3.631,0.028 -7.008,0.749 -9.383,2.003 m -33.281,6.124 c -5.289,4.161 -8.052,14.043 -5.353,19.145 3.598,6.8 9.055,8.564 13.317,4.302 2.235,-2.236 2.361,-2.976 2.052,-12.063 -0.446,-13.118 -3.458,-16.542 -10.016,-11.384 m 36.727,0.079 c -5.746,6.122 -7.782,16.702 -4.31,22.397 1.998,3.276 7.896,6.019 10.66,4.958 2.898,-1.112 4.176,-6.606 3.395,-14.598 -0.402,-4.122 -0.486,-8.133 -0.186,-8.914 0.377,-0.983 0.137,-1.169 -0.78,-0.603 -0.872,0.54 -1.085,0.432 -0.623,-0.315 1.141,-1.847 -1.272,-5.175 -3.753,-5.175 -1.26,0 -3.241,1.012 -4.403,2.25"
       stroke="none"
       fill="#ffffff"
       fill-rule="evenodd"
       id="path2" /><path
       d="m 231.882,177.863 c -3.09,2.632 -6.915,5.339 -8.5,6.016 -3.12,1.333 -6.278,5.248 -13.566,16.811 -4.436,7.039 -7.79,17.109 -7.831,23.507 -0.008,1.267 -0.64,4.103 -1.405,6.303 -0.765,2.2 -1.711,8.536 -2.102,14.08 -0.752,10.649 0.669,19.198 7.084,42.617 l 2.382,8.697 -2.46,4.303 c -2.967,5.191 -3.069,6.417 -0.586,7.066 3.184,0.833 5.182,5.19 6.516,14.207 1.309,8.856 0.814,10.74 -2.196,8.366 -1.577,-1.243 -1.586,-1.168 -0.133,1.091 0.859,1.334 2.453,3.018 3.542,3.741 1.97,1.308 1.971,1.244 0.217,-12.28 -2.554,-19.693 -0.758,-30.449 6.521,-39.06 4.098,-4.847 11.921,-8.328 18.717,-8.328 4.977,0 6.444,0.503 11.705,4.016 3.308,2.21 8.686,6.873 11.951,10.363 5.6,5.987 6.172,7.077 10.093,19.234 5.409,16.77 5.415,16.746 -8.55,38.598 -6.686,10.464 -8.026,11.981 -12.578,14.25 -2.959,1.474 -6.796,2.535 -9.149,2.529 -7.828,-0.019 -17.739,-6.577 -21.897,-14.49 -1.741,-3.312 -1.597,-4.889 -2.158,23.69 l -0.171,8.69 4.086,0.623 c 2.247,0.343 8.358,1.321 13.579,2.173 10.501,1.715 16.604,1.39 31.507,-1.676 5.17,-1.064 12.4,-2.241 16.067,-2.617 l 6.667,-0.683 -0.751,-9.1 c -0.413,-5.005 -0.665,-13.119 -0.561,-18.032 0.177,-8.326 0.389,-9.158 3.128,-12.278 3.978,-4.531 6.465,-9.671 7.982,-16.502 1.107,-4.98 1.053,-6.277 -0.417,-10.127 -0.928,-2.429 -2.571,-5.216 -3.651,-6.194 -2.536,-2.294 -2.481,-2.923 0.61,-6.975 1.416,-1.856 3.378,-6.032 4.362,-9.28 0.983,-3.248 3.187,-8.787 4.898,-12.309 2.134,-4.393 3.426,-9.012 4.118,-14.716 0.554,-4.572 1.292,-8.773 1.64,-9.335 0.347,-0.563 0.621,-7.678 0.608,-15.812 -0.022,-14.002 -0.195,-15.288 -3.234,-24.165 -6.056,-17.688 -10.864,-24.924 -22.55,-33.94 l -5.478,-4.226 -2.414,2.269 c -2.816,2.645 -5.107,2.794 -23.891,1.554 l -12.868,-0.849 -1.396,-3.342 c -0.768,-1.837 -1.502,-3.323 -1.632,-3.302 -0.131,0.022 -2.765,2.193 -5.855,4.824 m -12.178,40.518 c -4.927,1.452 -10.175,6.668 -12.294,12.216 -2.302,6.028 -1.485,15.376 2.013,23.015 4.464,9.752 8.094,12.386 17.423,12.645 6.927,0.192 11.512,-2.095 15.038,-7.5 l 2.385,-3.654 2.115,3.106 c 5.185,7.611 12.718,10.933 21.189,9.343 5.76,-1.08 13.833,-9.702 15.972,-17.057 2.813,-9.678 0.218,-20.862 -6.135,-26.44 -9.832,-8.633 -25.635,-5.031 -30.718,7 l -2.052,4.857 -1.87,-4.177 c -5.154,-11.511 -13.307,-16.231 -23.066,-13.354 m 8.796,80.814 c -3.229,1.831 -3.469,2.781 -3.485,13.812 -0.008,5.778 -0.465,12.075 -1.015,13.993 -1.98,6.902 3.202,17.985 10.069,21.536 7.398,3.825 13.356,0.33 21.213,-12.445 11.944,-19.419 10.851,-25.029 -6.639,-34.08 -6.184,-3.2 -8.801,-4.005 -12.947,-3.981 -2.858,0.017 -6.096,0.541 -7.196,1.165 m 60.696,22.705 c -11.129,12.13 -12.342,13.864 -12.015,17.172 0.715,7.234 5.814,6.161 13.506,-2.843 7.013,-8.208 8.616,-14.926 4.134,-17.325 -1.615,-0.864 -2.53,-0.376 -5.625,2.996"
       stroke="none"
       fill="#fbed1b"
       fill-rule="evenodd"
       id="path3" /><path
       d="m 246.753,115.936 c -4.437,0.886 -7.102,3.079 -8.839,7.273 -1.024,2.47 -1.028,6.092 -0.022,18.677 0.687,8.588 0.94,18.991 0.563,23.119 -0.518,5.661 -0.318,8.386 0.812,11.091 l 1.498,3.587 12.868,0.849 c 20.289,1.339 21.293,1.234 24.709,-2.588 2.935,-3.286 2.936,-3.291 2.285,-12.865 -0.975,-14.353 -2.907,-21.694 -9.045,-34.367 -5.048,-10.419 -5.915,-11.627 -9.324,-12.98 -5.078,-2.017 -10.979,-2.7 -15.505,-1.796 M 227.22,277.578 c -13.589,6.771 -17.671,19.839 -14.246,45.607 3.174,23.876 8.06,33.326 20.026,38.736 6.101,2.759 11.526,2.618 17.703,-0.46 4.552,-2.269 5.892,-3.786 12.578,-14.25 13.965,-21.852 13.959,-21.828 8.55,-38.598 -3.921,-12.157 -4.493,-13.247 -10.093,-19.234 -3.265,-3.49 -8.643,-8.153 -11.951,-10.363 -5.261,-3.513 -6.728,-4.016 -11.705,-4.016 -4.11,0 -7.125,0.716 -10.862,2.578 m 1.28,21.617 c -3.229,1.831 -3.469,2.781 -3.485,13.812 -0.008,5.778 -0.465,12.075 -1.015,13.993 -1.98,6.902 3.202,17.985 10.069,21.536 7.398,3.825 13.356,0.33 21.213,-12.445 11.944,-19.419 10.851,-25.029 -6.639,-34.08 -6.184,-3.2 -8.801,-4.005 -12.947,-3.981 -2.858,0.017 -6.096,0.541 -7.196,1.165 M 203,310.067 c 0,4.046 4.726,18.46 6.548,19.973 2.664,2.211 3.133,0.005 1.847,-8.693 -1.309,-8.859 -3.539,-13.539 -6.751,-14.17 -1.251,-0.246 -1.644,0.444 -1.644,2.89 m 86.196,11.833 c -11.129,12.13 -12.342,13.864 -12.015,17.172 0.715,7.234 5.814,6.161 13.506,-2.843 7.013,-8.208 8.616,-14.926 4.134,-17.325 -1.615,-0.864 -2.53,-0.376 -5.625,2.996"
       stroke="none"
       fill="#c32424"
       fill-rule="evenodd"
       id="path4" /></g></svg>
