<?xml version="1.0" encoding="UTF-8" standalone="no"?>
<svg
   viewBox="0 0 24 24"
   width="24pt"
   height="24pt"
   version="1.1"
   id="svg1"
   sodipodi:docname="dean_and_david.svg"
   xml:space="preserve"
   inkscape:version="1.3 (0e150ed6c4, 2023-07-21)"
   inkscape:export-filename="..\..\..\..\..\..\..\GitHub\MapIcons\brands_2024\dean_and_david.svg"
   inkscape:export-xdpi="96"
   inkscape:export-ydpi="96"
   xmlns:inkscape="http://www.inkscape.org/namespaces/inkscape"
   xmlns:sodipodi="http://sodipodi.sourceforge.net/DTD/sodipodi-0.dtd"
   xmlns="http://www.w3.org/2000/svg"
   xmlns:svg="http://www.w3.org/2000/svg"><defs
     id="defs1" /><sodipodi:namedview
     id="namedview1"
     pagecolor="#ffffff"
     bordercolor="#000000"
     borderopacity="0.25"
     inkscape:showpageshadow="2"
     inkscape:pageopacity="0.0"
     inkscape:pagecheckerboard="0"
     inkscape:deskcolor="#d1d1d1"
     inkscape:document-units="pt"
     inkscape:zoom="8.1648736"
     inkscape:cx="-3.3068485"
     inkscape:cy="12.921204"
     inkscape:window-width="1920"
     inkscape:window-height="974"
     inkscape:window-x="-11"
     inkscape:window-y="1609"
     inkscape:window-maximized="1"
     inkscape:current-layer="svg1" /><g
     id="g1"
     transform="matrix(0.0565821,0,0,0.0565821,-22.649046,1.4005681)"><g
       id="g2"
       transform="matrix(1.8946787,0,0,1.8946787,325.96873,37.338819)"><path
         d="m 0,0 c 5.1031855,2.3651507 7.6206238,5.7165112 9.75,10.875 1.317442,3.780486 1.571185,7.11019 1.25,11.125 -0.33,0.66 -0.66,1.32 -1,2 2.64,0 5.28,0 8,0 0.20625,-0.556875 0.4125,-1.11375 0.625,-1.6875 3.407005,-5.729964 8.206729,-7.919655 14.324219,-9.832031 C 35,12 35,12 38,12 c 0.34616,5.653946 -0.565748,9.030068 -3,14 0.94875,-0.06188 1.8975,-0.12375 2.875,-0.1875 5.482367,0 11.3191,1.369084 15.945312,4.367187 2.6765,4.129963 0.69448,10.173324 -0.288085,14.777344 C 50.472961,56.700121 43.232964,66.413708 33.042969,72.875 19.553511,80.078613 4.7747249,80.896044 -9.96875,77.03125 -21.54261,73.093751 -30.403735,64.949448 -35.9375,54.125 -39.289206,46.923888 -40.921221,40.411615 -41.0625,32.5 -40,30 -40,30 -37.1875,28.25 -26.397134,24.529934 -14.288679,24.17904 -3,23 -3.2023828,22.177578 -3.4047656,21.355156 -3.6132813,20.507812 -5.1853137,12.902337 -5.1675033,8.4635282 -1.1640625,1.7304687 -0.58785156,0.87388672 -0.58785156,0.87388672 0,0 Z m -23.125,29.375 c -1.387233,0.188646 -1.387233,0.188646 -2.80249,0.381104 -1.308197,0.194205 -1.308197,0.194205 -2.642822,0.392333 -0.781334,0.11521 -1.562667,0.23042 -2.367676,0.349122 C -33.289527,30.946052 -33.289527,30.946052 -36,33 c 12.189689,5.397502 26.9719188,4.315403 40.0158691,4.260742 3.0450425,-0.01074 6.0894969,-3.8e-5 9.1345219,0.0127 C 25.724215,37.283165 38.008095,37.245671 50,33 46.9309,30.953933 45.193118,30.490867 41.625,29.875 40.689141,29.707422 39.753281,29.539844 38.789062,29.367187 33.279949,28.517722 33.279949,28.517722 28.5,30.875 27.675,31.57625 26.85,32.2775 26,33 c -3.897366,1.948683 -7.691239,2.493087 -12,3 0.66,-2.64 1.32,-5.28 2,-8 C 10.86274,27.515102 10.86274,27.515102 6.5625,30 6.046875,30.66 5.53125,31.32 5,32 4.1782227,31.023535 4.1782227,31.023535 3.3398438,30.027344 -0.59840628,26.61507 -4.8058285,27.456766 -9.8071289,27.802246 -14.262626,28.204044 -18.693266,28.768313 -23.125,29.375 Z"
         fill="#4f614f"
         transform="translate(143,35)"
         id="path1-0" /><path
         d="m 0,0 c 5.1031855,2.3651507 7.6206238,5.7165112 9.75,10.875 1.317442,3.780486 1.571185,7.11019 1.25,11.125 -0.33,0.66 -0.66,1.32 -1,2 2.64,0 5.28,0 8,0 0.20625,-0.556875 0.4125,-1.11375 0.625,-1.6875 3.407005,-5.729964 8.206729,-7.919655 14.324219,-9.832031 C 35,12 35,12 38,12 c 0.446741,7.44568 -1.655018,11.52896 -6.25,17.1875 -4.406298,4.841373 -8.007061,6.681884 -14.6875,7 C 16.051875,36.125625 15.04125,36.06375 14,36 14.33,33.69 14.66,31.38 15,29 12.16848,28.581908 12.16848,28.581908 9,29 6.5959362,31.378426 6.5959362,31.378426 5,34 -0.74230183,27.619665 -4.598621,21.348709 -5.25,12.609375 -4.795352,7.8639862 -2.4616995,4.0034559 0,0 Z"
         fill="#b5d0af"
         transform="translate(143,35)"
         id="path2" /><path
         d="m 0,0 c 5.8830111,0.78918442 8.9990169,3.8167595 13,8 3.865644,5.611419 4.493742,12.473271 3.5625,19.125 C 16.376875,27.74375 16.19125,28.3625 16,29 12.276222,28.492212 9.192069,28.021644 6,26 4.3671875,23.792969 4.3671875,23.792969 2.875,21.1875 2.3774219,20.33543 1.8798437,19.483359 1.3671875,18.605469 -0.89932635,14.286141 -2.3808728,11.232941 -1.6875,6.3125 -1.5882422,5.5455078 -1.4889844,4.7785156 -1.3867187,3.9882813 -1,2 -1,2 0,0 Z"
         fill="#ee6a55"
         transform="translate(141)"
         id="path12" /><path
         d="m 0,0 c 0.44674082,7.4456803 -1.6550178,11.52896 -6.25,17.1875 -4.406298,4.841373 -8.007061,6.681884 -14.6875,7 C -21.948125,24.125625 -22.95875,24.06375 -24,24 -22.467646,15.887535 -20.649028,9.6825096 -14.039063,4.3242187 -9.7763013,1.5558738 -5.0761299,0 0,0 Z"
         fill="#e8e981"
         transform="translate(181,47)"
         id="path13" /><path
         d="m 0,0 c 5.316378,-0.50632171 7.825178,0.75291624 12,4 2.790964,2.341687 3.516306,4.1250068 4.1875,7.6875 0.158555,0.808242 0.317109,1.616484 0.480469,2.449219 C 16.777539,14.751602 16.887109,15.366484 17,16 13.243734,16.35774 11.260707,16.135568 7.875,14.375 3.7404076,10.959467 1.4211958,7.895381 0.25,2.625 0.1675,1.75875 0.085,0.8925 0,0 Z"
         fill="#506250"
         transform="translate(116,21)"
         id="path15" /><path
         d="M 0,0 C -0.96558746,6.2226748 -2.3647405,8.9997029 -7.34375,12.871094 -10.674299,15.141209 -13.002285,15.086907 -17,15 c 0.283627,-5.8143533 2.816962,-9.1990192 7,-13 3.4505287,-2.06626573 5.9869234,-2.18241257 10,-2 z"
         fill="#6bab6a"
         transform="translate(176,14)"
         id="path16" /><path
         d="M 0,0 C 2.31,0 4.62,0 7,0 6.67,1.32 6.34,2.64 6,4 3.69,4 1.38,4 -1,4 -0.67,2.68 -0.34,1.36 0,0 Z"
         fill="#516350"
         transform="translate(153,59)"
         id="path18" /><path
         d="M 0,0 C 0,0.99 0,1.98 0,3 -5.1428571,7 -5.1428571,7 -9,7 -9,6.34 -9,5.68 -9,5 -8.4341016,4.7228516 -7.8682031,4.4457031 -7.2851562,4.1601562 -6.5516797,3.7979297 -5.8182031,3.4357031 -5.0625,3.0625 -3.9661523,2.5230273 -3.9661523,2.5230273 -2.8476563,1.9726562 -1.0375097,1.1362817 -1.0375097,1.1362817 0,0 Z"
         fill="#efef85"
         transform="translate(173,63)"
         id="path19" /></g></g></svg>
