<svg xmlns="http://www.w3.org/2000/svg" width="24" height="24"><path fill="#e4362e" fill-rule="evenodd" d="M3 9v1.9h18V7.1H3zm1.22-.18a12 12 0 0 0-.32 1.31c0 .14.11.17.68.17.37 0 .84-.05 1.04-.1.83-.23 1.28-.96 1.07-1.72-.13-.5-.52-.7-1.44-.76l-.7-.04zm3.15-1.04c-.05.07-.67 2.37-.67 2.47 0 .03.5.05 1.1.05.81 0 1.1-.03 1.1-.12 0-.07.03-.23.06-.35.06-.22.04-.23-.6-.23-.5 0-.67-.03-.64-.12s.28-.14.64-.16c.59-.03.74-.12.74-.45 0-.14-.1-.17-.6-.17-.49 0-.58-.03-.54-.15.05-.11.23-.15.75-.15q.7 0 .7-.12c0-.07.02-.23.05-.35.06-.23.05-.23-1-.23-.57 0-1.07.03-1.1.08m2.5 0a24 24 0 0 0-.66 2.39q0 .13.38.13h.38l.2-.68.2-.67.29.68c.29.65.3.67.66.67h.37L12 9.12l.34-1.27c0-.05-.17-.1-.39-.1h-.4l-.15.58c-.08.31-.17.57-.2.57-.04 0-.18-.27-.33-.6-.24-.57-.27-.6-.6-.6-.2 0-.38.04-.41.08m2.8.1-.62 2.25c-.05.16 0 .18.37.15l.43-.03.15-.57c.08-.32.18-.58.22-.58.03 0 .18.27.33.6.27.6.28.61.64.58l.37-.03.32-1.15c.18-.63.33-1.2.33-1.27q0-.12-.39-.13h-.38l-.17.6c-.1.33-.2.6-.22.6s-.16-.27-.3-.6c-.26-.58-.28-.6-.65-.6q-.4 0-.43.17m2.89-.04c-.09.25-.65 2.32-.65 2.4 0 .04.5.07 1.1.07.81 0 1.1-.03 1.1-.12 0-.07.03-.23.06-.35.06-.22.04-.23-.6-.23-.9 0-.86-.23.05-.3.61-.05.64-.06.67-.33s.03-.27-.57-.27c-.5 0-.6-.03-.55-.15s.23-.15.75-.15q.7 0 .7-.12c0-.07.02-.23.05-.35.06-.23.05-.23-1-.23-.76 0-1.08.04-1.11.13m2.51-.05a24 24 0 0 0-.66 2.39q0 .13.39.13c.37 0 .4-.02.48-.37.11-.48.33-.49.48-.03.1.33.15.35.58.38.26.02.47 0 .47-.02s-.07-.2-.17-.4c-.16-.35-.16-.35.15-.6.61-.52.48-1.25-.25-1.45-.45-.13-1.4-.14-1.47-.03m-12.9.75c-.03.07-.1.27-.15.46-.16.49-.15.51.22.51.51 0 .84-.48.6-.87-.12-.17-.63-.25-.68-.1m13.46.09q-.17.49.36.32c.38-.13.38-.48 0-.52q-.29-.06-.36.2"/></svg>