<svg xmlns="http://www.w3.org/2000/svg" width="24" height="24"><path fill="#4d2e1f" fill-rule="evenodd" d="M9.28 2.07c-.46.07-.31.21.3.28q1.29.14.25.14c-1.02.02-.73.2.35.23l.97.02-.87.03c-.49.02-.88.08-.88.13s.75.1 1.9.1c1.14 0 1.9-.04 1.9-.1 0-.05-.3-.1-.67-.13l-.68-.03.72-.02c.76-.02 1.13-.2.46-.23-.31-.02-.27-.04.25-.12.38-.06.61-.14.59-.2-.04-.12-3.97-.2-4.6-.1m5.23.03c0 .06.15.24.34.4.4.35.66 1.03.66 1.66 0 .24.05.46.1.5q.1.07-.18.24c-.17.1-.42.38-.55.62-.41.71-.5 1.34-.45 3.6l.03 2.07-.65.07a38 38 0 0 1-4.4-.12l-.37-.06-.07-1.52c-.1-2.44-.39-3.58-1.05-4.2-.27-.26-.3-.36-.3-.75l.02-.46.04.42c.06.58.23.54.23-.04 0-.69.18-1.23.5-1.53.23-.21.25-.27.13-.38-.18-.18-.47-.07-.77.29q-.45.54-.46 1.54v.5l-.48-.03c-.36-.03-.53.01-.74.18-.77.6-.53 2.25.4 2.72.19.09.35.18.37.2s.09.62.15 1.33c.13 1.49.24 1.9.5 2.05.11.06.53.1.92.08.4-.01 1.18.04 1.73.1.79.11 1.32.11 2.5.02 1.63-.12 1.95-.17 1.95-.32 0-.05.18-.06.45-.02.55.08.98-.08 1.14-.42.06-.14.11-.71.11-1.28 0-1.35.08-1.96.27-1.96.08 0 .3-.15.48-.33.6-.6.6-1.75-.01-2.35-.3-.3-.4-.34-.78-.3l-.44.03-.04-.7a4 4 0 0 0-.24-1.1c-.24-.5-1.04-1.07-1.04-.75m-.2.5q.02.08.2.15c.3.1.59.66.74 1.42l.14.68v-.6c.02-.75-.24-1.37-.67-1.6-.35-.17-.41-.18-.41-.06m-5.93.6c-.29.35-.45 1.2-.28 1.48q.12.25.1-.17c.01-.56.2-1.1.48-1.36q.28-.25.1-.24c-.08 0-.26.13-.4.3m6.05-.03a2 2 0 0 1 .42.88l.14.6.01-.51c.01-.57-.3-1.16-.64-1.22-.17-.04-.16 0 .07.25m1.4 2.03c-.35.14-.26.2.13.07.4-.12.85.03.85.28 0 .18-.01.18-.35.05-.54-.2-1.19.3-1.31 1.03-.05.3-.04.3.15-.1.25-.53.79-.82 1.18-.64q.21.1.23.26c0 .18-.05.19-.28.04-.27-.17-.73.08-.94.51-.14.28-.18.61-.18 1.67 0 1.5-.17 1.84-.23.46l-.03-.88-.02 1c-.01.54-.05.95-.09.91s-.1-.66-.13-1.39l-.07-1.32-.01 1.88-.02 1.88.57-.03c.7-.04.7-.03.72-1.9L16 7.63l-.26-.06c-.36-.1-.25-.32.14-.28.73.08 1.3-.61 1.17-1.42a1.4 1.4 0 0 0-.22-.58c-.17-.2-.63-.23-1-.08m-9.28.18c-.33.07-.44.21-.5.67-.14.9.3 1.45 1.19 1.45.5 0 .6.15.2.3-.21.09-.24.14-.2.42l.17 1.48c.06.63.13 1.19.16 1.23.1.16.52.26.87.2l.36-.06-.06-.8c-.04-.45-.1-1.09-.15-1.42-.07-.51-.07-.46-.04.33.03.57.01.92-.05.92s-.1-.26-.12-.57l-.01-.58-.06.5-.07.5-.07-.6C7.9 7.15 7.8 6.82 7.4 6.6c-.26-.13-.64-.13-.78 0-.16.17-.28-.07-.13-.25.32-.39 1.19-.03 1.46.6q.12.26.14.17c0-.26-.29-.8-.55-1-.3-.24-.84-.29-1.03-.1q-.12.12-.22.02t.1-.29c.25-.22.8-.22 1.15 0 .14.1.25.15.25.11 0-.2-.9-.55-1.25-.48m4.39 2.03c-.4.04-.8.12-.9.17-.14.08.18.1 1.16.05a14 14 0 0 1 2.4.07c0-.2-1.63-.38-2.66-.29m-.64.4c-.3.05-.58.13-.62.17s.9.07 2.07.07 2.08-.03 2.02-.06c-.45-.25-2.43-.35-3.47-.18m-.3.42c-1.06.24-.67.32 1.47.32 1.15 0 2.23.03 2.41.07.55.13.33-.15-.24-.3-.68-.19-2.95-.24-3.63-.1m-.77 1.2c-.1.15 0 .19.93.35 1.31.23 3.73.06 3.73-.27 0-.05-.74-.06-1.67-.03s-1.96 0-2.3-.05c-.38-.05-.66-.05-.7 0m.6.61c.12.05.57.11 1 .14.42.03.75.08.72.11-.06.07-1.11.04-1.49-.04q-.28-.05-.22.04c.17.28 2.4.4 3.24.16.42-.12.22-.2-.4-.18l-.63.03.58-.1c1.13-.17.83-.24-1.08-.24-1.15 0-1.85.03-1.72.08m5.79 2.56c-.05.03-.13.3-.17.6l-.07.53.28-.04c.25-.02.3-.08.34-.38s.1-.36.32-.38q.29-.03.28-.22c0-.15-.08-.18-.44-.18-.25 0-.5.04-.54.07m-5.49.09c-.12.08-.38 1.4-.29 1.5.03.02.16.02.3-.02.2-.05.25-.14.3-.53l.12-.76c.04-.21.02-.27-.13-.27a1 1 0 0 0-.3.08m4.17 0c-.3.06-.35.12-.42.47a1.4 1.4 0 0 0-.04.52c.09.22 1.3.12 1.4-.12.03-.1-.08-.11-.42-.08q-.5.05-.32-.06a1 1 0 0 1 .46-.1c.26-.01.33-.06.38-.26.04-.14.04-.3 0-.35-.06-.1-.48-.11-1.04-.01m-1.4.09-.57.03-.1.57c-.06.31-.1.59-.08.6s.17 0 .34-.03c.25-.05.31-.12.31-.34 0-.3.24-.7.35-.59.04.04.03.25-.03.48-.1.4-.1.4.2.4s.33-.04.43-.62c.07-.46-.07-.54-.86-.5m-1.99.25c-.21.1-.25.2-.25.57v.45h.38c.2 0 .37.03.37.07s-.2.08-.45.08c-.35 0-.45.04-.45.16 0 .15.09.16.62.1.34-.03.66-.1.72-.16s.14-.38.21-.74l.13-.66h-.52c-.28 0-.62.06-.76.13m-5.46.04c-.17.03-.23.14-.28.51l-.12.75-.06.29.69-.07c.37-.04.74-.13.82-.2s.14-.36.15-.72l.01-.58-.5-.01c-.28-.01-.6 0-.71.03m3.26.16c-.25.13-.42.67-.2.67q.09 0 .1.1-.02.08-.15.04-.15-.06-.15.11c0 .16.07.17.57.12.66-.07.79-.18.86-.74l.05-.43h-.41c-.23 0-.53.06-.67.13m-1.32.04c-.45.05-.56.17-.6.68l-.03.4.52.03c.5.03.93-.1.93-.26 0-.04-.21-.06-.47-.05l-.48.02.5-.12c.46-.11.5-.14.5-.42 0-.33-.11-.36-.87-.28m-1.62.34c-.09.47-.07.59.08.59.14 0 .26-.3.26-.67 0-.34-.27-.28-.34.08m12.5.27c-.1.2-.17 1.12-.07 1.12q.1-.02.11-.2c0-.28.17-.34.32-.1.07.1.19.2.26.2q.14.01-.04-.25c-.16-.24-.16-.27.02-.4q.16-.14.08-.15a1 1 0 0 0-.3.15c-.27.2-.31.19-.26-.15.04-.28-.01-.4-.11-.22m-4.2.73c-.06.47-.05.44-.35.54-.23.07-.23.06-.17-.4.07-.44.07-.45-.19-.45-.24 0-.26.03-.26.43q0 .44-.1.27a1 1 0 0 1-.1-.42q-.02-.6-.9.11c-.33.29-.5.37-.6.3q-.19-.1.03-.09.16-.01.17-.1c0-.12-.78-.04-.92.09-.04.03-.1.22-.13.41l-.05.35.45-.03c.28-.03.49-.1.52-.18.06-.16.83-.2.83-.04s.4.12.46-.05c.07-.17.34-.2.34-.05 0 .17.86.12 1-.06.19-.22.3-1.04.15-1.04-.07 0-.15.18-.18.4m3.1-.34c-.04.04-.07.25-.07.47v.39l.43-.07.43-.09c.08-.08.13-.76.06-.76-.06 0-.13.16-.16.35-.06.28-.11.35-.3.35-.21 0-.25-.06-.28-.36q-.03-.32-.1-.28m-1.35.1c-.07.03-.13.14-.13.24 0 .37-.12.5-.46.5-.38 0-.38 0-.25-.34a.5.5 0 0 1 .38-.29q.36-.04-.1-.05c-.4-.02-.44.03-.5.53-.02.28 0 .3.28.28l.74-.03c.62-.01.81-.14.81-.55 0-.33-.02-.35-.32-.34-.18 0-.39.03-.46.06m.27.1c-.1.02-.19.15-.22.29-.04.2 0 .24.24.24.26 0 .29-.04.29-.3 0-.16-.03-.3-.07-.29q-.09 0-.24.06m-7.18.2a1 1 0 0 0-.33.25c-.1.1-.23.16-.28.13-.06-.04-.3-.03-.55 0q-.47.07-.45.24 0 .15-.08.04c-.04-.06-.2-.13-.37-.16l-.3-.04.33-.01q.33-.02.32-.18c0-.13-.08-.14-.47-.08-.53.08-.64.17-.6.54.01.19.1.26.32.31q.45.08-.08.08c-.56.02-.44.21.13.21.43 0 .52-.03.6-.22q.1-.28.1-.05c0 .15.08.18.53.15.5-.03.53-.05.62-.36.12-.4.29-.42.2-.02-.06.27-.04.3.19.3.2 0 .25-.05.28-.32.03-.29.07-.33.33-.36q.36-.04.13.08a.4.4 0 0 0-.18.3c0 .17.07.2.54.2h.54l.04-.36c.02-.2 0-.38-.06-.42a2 2 0 0 0-.71-.05c-.33.01-.52 0-.43-.03q.16-.06.18-.15c0-.1-.26-.1-.49-.02"/></svg>