<svg xmlns="http://www.w3.org/2000/svg" width="24" height="24"><path fill="#4f4f4f" fill-rule="evenodd" d="M3.05 8.95v.65h.42q.74.01.73-.65.02-.66-.73-.65h-.42zm1.5 0v.65h.53c.5 0 .52 0 .51-.27v-.28l-.16.22c-.22.32-.53.3-.53-.02q0-.23.1-.25.09.01.1.16.01.13.1.09c.05-.03.1-.17.1-.3s-.04-.27-.1-.3q-.09-.05-.1.1 0 .13-.1.15-.09-.02-.1-.25c0-.3.33-.35.5-.07q.11.24.1-.05c0-.2-.05-.23-.47-.23h-.48zm1.42-.58c-.18.17-.06.53.23.68q.5.26.14.42-.16.05-.36-.18l-.19-.24.03.25c.02.2.1.26.31.28.59.07.78-.47.27-.76-.31-.18-.4-.42-.15-.42.07 0 .18.07.23.16q.09.17.16.05.06-.1.01-.21c-.07-.11-.58-.14-.68-.03m1 0c.08.03.13.25.13.58s-.05.55-.12.58q-.1.05.17.06l.3.01V8.3h-.3q-.27.02-.17.07m.98.08c-.19.2-.22.85-.04 1.03.13.13.67.16.84.04.06-.04.13-.2.16-.34.04-.24.02-.28-.18-.28s-.22.05-.2.28c0 .21-.03.27-.19.27-.17 0-.2-.08-.23-.48-.04-.58.2-.75.5-.36l.2.24-.04-.25c-.02-.2-.1-.26-.34-.28q-.31-.03-.48.13m1.29.5c0 .51.03.65.15.65s.14-.11.12-.52l-.04-.53.32.47c.18.27.36.5.4.54.06.03.1-.21.1-.55q0-.58.13-.64.09-.05-.17-.06c-.24 0-.26.01-.16.13.06.08.1.25.08.38-.03.21-.05.2-.28-.14-.15-.23-.33-.38-.45-.38-.18 0-.2.07-.2.65m1.44-.56q.13.07.1.65l-.04.56h.48c.26 0 .47-.04.47-.1l.06-.24q.05-.15-.04-.16-.09.02-.15.2c-.08.3-.47.27-.47-.05 0-.29.16-.34.23-.07q.04.13.06-.22c0-.37 0-.38-.14-.2s-.14.18-.15-.08q0-.48.42-.11c.17.15.18.15.18-.05s-.05-.22-.57-.22q-.55 0-.45.09m1.37.56v.65h.3q.26-.02.18-.07c-.18-.07-.17-.53 0-.53.08 0 .17.13.2.3q.06.32.28.3.26.02.1-.15a1 1 0 0 1-.15-.52c-.03-.53-.12-.63-.54-.63h-.37zm1.37-.53q-.31.29.23.6.57.31.18.45-.16.05-.35-.16l-.18-.23v.26c0 .23.04.26.35.26.6 0 .71-.57.14-.8q-.48-.21-.14-.37.16-.03.3.13c.15.18.16.18.13-.01-.04-.24-.47-.32-.66-.13m1.95.06c-.22.24-.22.75.01.95.19.17.77.23.85.1.02-.05.07-.2.1-.35.07-.25.05-.28-.18-.28s-.24.03-.18.3q.07.32-.09.3c-.32 0-.49-.5-.32-.94.09-.23.39-.2.58.06l.16.23-.02-.25c-.03-.2-.09-.25-.39-.28q-.35-.03-.52.16m1.21.37c.04.62.17.78.64.73.32-.03.33-.04.36-.53.02-.27.08-.55.14-.62q.13-.14-.18-.13-.3 0-.16.09t.1.57c-.03.45-.05.49-.28.49s-.25-.04-.28-.49q-.03-.49.1-.57.13-.09-.17-.09h-.3zm1.4-.43c.07.07.12.3.12.53s-.05.46-.12.53q-.16.13.22.12.37 0 .22-.12c-.07-.07-.12-.3-.12-.53s.05-.46.12-.53q.16-.13-.22-.12-.37 0-.22.12m.7 0c.07.07.12.3.12.53s-.05.46-.12.53c-.1.1.1.12.9.12 1.28 0 1.42-.06 1.42-.65 0-.51-.16-.65-.77-.65h-.38l.03.6q.04.6-.07.6-.1-.02-.11-.22v-.22l-.16.22c-.08.12-.22.22-.3.22-.13 0-.15-.11-.12-.6l.03-.6h-.3q-.32 0-.17.12M3.4 8.94q0 .58.14.56c.23 0 .37-.27.34-.67-.02-.3-.07-.39-.25-.41-.22-.03-.23 0-.23.52m16.8.01c0 .53.01.56.23.53.2-.03.22-.09.22-.53s-.03-.5-.22-.53c-.22-.03-.23 0-.23.53"/></svg>