<svg xmlns="http://www.w3.org/2000/svg" width="24" height="24"><path fill="#d4201f" fill-rule="evenodd" d="M3 8.94V13h1.65c.9 0 1.88-.05 2.17-.11a4.2 4.2 0 0 0 2.86-2.27c.24-.51.27-.69.27-1.67 0-1.04-.02-1.14-.33-1.77a4.4 4.4 0 0 0-2.1-2c-.51-.2-.77-.23-2.54-.26L3 4.9zm9.03-2.32-.93.4V13h2.1V9.6c0-2.66-.03-3.4-.12-3.4-.07.01-.55.2-1.05.42m4.3-.12a3.7 3.7 0 0 0-1.78 1.67c-.27.52-.3.68-.3 1.53 0 .76.04 1.04.22 1.42a3.5 3.5 0 0 0 2.55 1.94c.7.1 1.3-.03 1.93-.41l.57-.35.75.35.74.34-.03-2.07c-.03-2-.04-2.09-.3-2.63a3.5 3.5 0 0 0-1.6-1.65 4 4 0 0 0-2.75-.14M5 8.95V11h.73q1.72 0 2.22-1.39.39-1.11-.37-1.97c-.49-.55-.95-.74-1.83-.74H5zm11.9-.52c-.73.37-1 1.18-.64 1.93.46.96 1.71 1.1 2.43.28.26-.3.31-.43.31-.87q0-1-.83-1.37c-.54-.25-.73-.25-1.27.03"/></svg>