<svg xmlns="http://www.w3.org/2000/svg" width="24" height="24"><path fill="snow" fill-rule="evenodd" d="M12.4 5.68q-.66.33-.81 1.17c-.17.93.27 1.88 1.21 2.6.86.66 1.13 1.3.72 1.68q-.56.51-.72-.43c-.05-.34-.07-.35-.54-.38-.27-.02-.53.01-.58.06q-.09.1.02.68c.21 1.01.99 1.52 1.9 1.25q1.2-.37 1.21-1.66c0-.8-.28-1.32-1.2-2.22-.83-.82-1.02-1.17-.82-1.6.18-.4.53-.28.7.24.12.4.13.41.63.45.27.01.52 0 .54-.04.08-.12-.17-1.04-.37-1.37-.35-.57-1.22-.77-1.88-.43m8 .07c-.27.31.12.82.43.56a.4.4 0 0 0 .04-.59q-.25-.24-.48.03M3 8.95v3.25h1.03c1.28 0 1.56-.14 1.95-.98.26-.54.27-.64.27-2.17 0-1.71-.08-2.15-.52-2.73-.38-.5-.7-.62-1.78-.62H3zm3.8 0v3.25H8V5.7H6.8zm1.8 0v3.25h2.8v-1H9.8l.02-.87.03-.88.53-.03.52-.03V8.3h-1V6.7h1.5v-1H8.6zm6.62.03.03 3.27h2.7l.03-.52.03-.53H16.4V9.5h1.1V8.41l-.52-.03-.53-.03V6.77l.73.02.72.02V5.7h-2.7zm3.3 0 .03 3.28 1.23.03 1.22.03V11.2h-1.2V5.7h-1.3zM4.3 8.96c0 2.4.03 2.52.46 2.04.17-.2.19-.38.19-2.04s-.02-1.85-.2-2.04c-.42-.48-.45-.35-.45 2.04"/></svg>