<svg xmlns="http://www.w3.org/2000/svg" width="24" height="24"><path fill="#dc2e27" fill-rule="evenodd" d="M5.8 6.9v1.09l-.35-.15q-.69-.28-1.4.05c-.5.23-.7.46-.9 1-.33.95-.11 2.32.46 2.87.27.26.37.29.97.29.54 0 .73-.04 1-.23.32-.23.32-.23.32-.03s.06.21.95.21h.95V5.8h-2zm3.42-.85c-.39.32-.48.74-.27 1.14.47.91 1.75.7 1.92-.32.05-.32.01-.4-.3-.72q-.67-.66-1.35-.1m4.73 1.72c-.11.03-.32.14-.47.25-.28.2-.28.2-.28-.01 0-.2-.06-.21-1-.21h-1V12h2.1v-1.29c0-1.3.04-1.45.38-1.34.09.03.12.4.12 1.34V12h2.1v-1.6c0-1.75-.09-2.16-.53-2.45a2.6 2.6 0 0 0-1.42-.18m4.13.05a2.6 2.6 0 0 0-1.44 1.33c-.34.91.02 1.95.88 2.52.37.25.5.28 1.23.28.72 0 .86-.03 1.23-.28 1.23-.81 1.36-2.4.26-3.36a2.2 2.2 0 0 0-2.16-.5M8.5 9.9V12h2.1V9.97c0-1.12-.03-2.06-.06-2.1-.03-.03-.2.03-.37.14q-.61.36-1.25-.01c-.18-.11-.35-.2-.37-.2s-.05.95-.05 2.1m9.82-.35c-.32.4-.09.88.43.88s.75-.48.43-.88c-.25-.32-.6-.32-.86 0m-13.25.03c-.2.22-.22.63-.05.8.2.2.66.14.83-.12.36-.55-.35-1.16-.78-.68"/></svg>