<svg xmlns="http://www.w3.org/2000/svg" width="24" height="24"><path fill="#908677" fill-rule="evenodd" d="M14.47 2.54c-.03.07.02.43.12.8.14.52.2.63.3.54.1-.1.1 0 .04.47a8 8 0 0 0 0 2.12l.08.41-.46-.05c-.48-.05-.54 0-.3.23.1.11.15.37.15.89s-.04.78-.15.89q-.14.14-.15.2c0 .03.3.06.66.06q1.17-.01 1.42-.68c.08-.24.1-.25.17-.09.04.1.03.29-.03.42-.13.28-.07.35.27.35q.28 0 .13-.12c-.07-.07-.12-.32-.12-.56 0-.4-.02-.44-.2-.4-.17.05-.2.01-.2-.23q-.01-.29-.31-.64c-.31-.35-.32-.37-.19-.76.1-.32.11-.45.02-.6q-.22-.35-.02-.24.1.04.1-.14a.4.4 0 0 0-.16-.29c-.12-.07-.17-.28-.19-.93-.03-1.08-.03-1.09-.15-1.09-.06 0-.07.29-.03.75.03.41.02.75-.03.75s-.1-.3-.12-.68c-.05-1.15-.07-1.27-.19-1.4-.15-.16-.4-.15-.46.02m-8.93 4.6c-.3.3-.34.4-.34.86 0 .44.04.56.3.8.35.37.8.4 1.27.07.18-.12.33-.25.33-.3q.02-.18-.37.13a1 1 0 0 1-.5.2q-.62-.01-.63-.95c0-.6.22-.95.6-.95.3 0 .6.18.6.35 0 .07.05.17.1.2.06.04.1-.1.1-.32v-.38l-.56-.02c-.52-.03-.59 0-.9.31m1.75-.26v1q.03.92-.1 1.07c-.1.13 0 .15.76.15.75 0 .86-.02.75-.14-.18-.22-.09-.72.13-.68q.16.02.17-.12.01-.15-.28-.11l-.33.04c-.04 0-.04.22-.01.47.04.37.02.46-.1.42q-.12-.06-.16-.29c-.07-.63-.12-.71-.37-.65s-.25.05-.25-.59c0-.37-.04-.65-.1-.65q-.09 0-.1.08m7.42 1.1.03.87.28-.02c.37-.03.62-.22.47-.37-.05-.05-.1-.21-.1-.35 0-.38-.33-1-.53-1-.16-.01-.17.08-.15.87m-3.97-.12c-.1.24-.06 1.06.06 1.18q.09.1.21-.02.15-.13 0-.12c-.16 0-.16-.67 0-.73q.14-.05.02-.14l-.16-.22q-.04-.18-.13.05m6.45-.02c0 .08-.08.2-.19.28-.28.2-.15.92.17.96.22.03.26.11.22.46q0 .16.1.12.09-.08.1-.28c0-.1.1-.31.2-.45.24-.3.19-.56-.19-.95q-.43-.45-.41-.14m-7.95.24c-.05.04-.1.28-.1.55 0 .43.02.47.24.47q.25.01.13-.13a1 1 0 0 1-.14-.54q-.04-.4-.13-.35m.54.08c-.11.14-.1.2.14.4.25.22.36.44.2.44a1 1 0 0 1-.26-.17c-.19-.17-.2-.17-.16.02q.03.21.34.2c.4 0 .47-.37.1-.6q-.21-.16-.19-.27c.03-.05.14-.02.25.08.18.16.19.16.19-.04 0-.27-.4-.3-.6-.06m1.5-.06q-.18.11-.01.1c.1 0 .12.11.09.45-.05.4-.03.45.14.45q.2 0 .14-.16a2 2 0 0 1-.06-.55c0-.4-.05-.45-.3-.29m.7.05c-.07.08-.1.19-.06.23q.08.05.17-.1t.2-.13q.24.15-.17.33-.26.12-.22.35c.03.2.1.22.68.24l.65.02v-.41q0-.4.14-.46c.1-.03.12.06.1.42-.04.4-.02.46.16.46s.2-.05.17-.42c-.06-.64-.13-.69-.96-.6q-.09.03.02.14c.13.13.16.64.04.72-.16.1-.3-.1-.34-.5-.02-.3-.07-.4-.24-.42a.4.4 0 0 0-.34.13m6.2-.12-.03.55c-.02.46 0 .52.18.52s.2-.05.17-.45c-.03-.38-.02-.44.12-.39q.16.06.16-.1T18.5 8c-.16 0-.3.01-.3.03m-10.63.24c-.13.12-.07.6.07.66q.15.06.2-.25c.08-.4-.07-.62-.27-.41M17 9.3c-.14.09-.19 1.06-.08 1.75.03.17.06.4.06.53q.02.21.2.22.21.01.02-.1-.12-.09-.04-.1.13.01.04-.35c-.04-.2-.04-.33 0-.3s.08-.12.08-.33c0-.35 0-.36-.11-.12l-.1.25-.05-.28a3 3 0 0 1 .07-.75c.1-.53.1-.54-.09-.42m-2.33.17q-.2.03-.15.36c.02.24.08.31.28.34.24.03.26 0 .26-.37 0-.4-.03-.42-.4-.33m1 .07c-.1.26-.07.84.04.91.06.03.1.23.11.43l.02.37.07-.35q.1-.48.14-.03.02.12.11.13.1 0 .09-.1l-.02-.32q-.02-.19-.1-.14c-.03.04-.14-.19-.22-.5q-.17-.61-.23-.4m-6.77.25q-.01.51.4.36c.33-.1.23-.6-.12-.63-.25-.03-.28 0-.28.27m.9 0c0 .33.24.48.47.3.23-.2.12-.54-.2-.57-.24-.03-.27 0-.27.26m.9 0c0 .33.24.5.46.31.16-.13.19-.59.04-.59q-.09.02-.1.2c0 .1-.04.22-.1.25q-.1.04-.1-.2c0-.13-.04-.25-.1-.25-.05 0-.1.13-.1.29m2.07-.15c-.07.17 0 .45.12.47l.3.05c.2.04.22 0 .2-.28-.03-.27-.09-.34-.3-.36q-.27-.02-.32.12m.93.15c0 .28.22.47.4.35.13-.07.13-.64 0-.64q-.07.02-.13.28l-.04.27-.01-.28c-.03-.36-.22-.35-.22.02m-2.34.87c-.11.29-.06.39.19.4.29.02.28.03.15-.3-.1-.3-.25-.34-.34-.1m.54.13q-.02.33.19.28c.27-.02.27-.57 0-.57-.14 0-.19.07-.19.3m-5.28 3.76c-.02.34.02.5.16.62q.15.16.07.1-.1-.05-.13.28-.01.34.08.29.09-.04.1.04c0 .06.13.11.3.11s.3-.05.3-.12q0-.13.1.02.1.18.1-.17c0-.17-.04-.33-.1-.35-.05-.01-.1-.27-.13-.56-.04-.5-.17-.85-.17-.46 0 .19-.3.66-.3.48q-.01-.07-.1.06-.14.18-.05-.07c.06-.23-.03-.73-.14-.73-.03 0-.07.2-.09.46"/></svg>