<svg xmlns="http://www.w3.org/2000/svg" width="24" height="24"><path fill="#626262" fill-rule="evenodd" d="M10.12 2.2c-1 .27-1.64.64-2.25 1.3C6.78 4.68 6.4 6.03 6.4 8.75c0 2.78.25 4.1 1 5.22a5 5 0 0 0 3.08 1.92c.65.13 2.31.14 2.98.02 1.9-.36 3.23-1.66 3.8-3.71.16-.55.19-1.03.19-3.05 0-2.68-.11-3.44-.66-4.53-.86-1.74-2.26-2.5-4.69-2.58a6 6 0 0 0-1.98.16m.58 0c-1.32.2-2.5.9-3.12 1.8-.85 1.26-1.13 2.72-1.04 5.4.06 2.04.24 3.08.66 4a4.5 4.5 0 0 0 3.1 2.31c.8.2 2.9.17 3.65-.05 1.63-.48 2.75-1.74 3.22-3.62.2-.86.24-4.71.04-5.73q-.61-3.2-3.28-3.9a10 10 0 0 0-3.23-.21m-.59.46q-2.47.65-3.06 3.57a17 17 0 0 0 .14 6.28 4.3 4.3 0 0 0 2.88 2.8 8 8 0 0 0 3.78.04q2.7-.87 3.06-4.28c.17-1.53.06-4.33-.2-5.3-.45-1.71-1.42-2.64-3.26-3.12a10 10 0 0 0-3.34 0m.54.22c-1.01.22-2 .74-1.91.99q.05.15-.1.12c-.27-.05-.81.76-1.08 1.6-.69 2.2-.57 6.02.23 7.6.12.23.26.44.32.47.18.12.29-.09.16-.32-.47-.84-.47-.82-.26-.88.24-.08.25-.25.02-.19-.1.03-.27-.02-.38-.1-.18-.14-.18-.15-.03-.16.2 0 .24-.15.09-.25-.13-.08-.1-.47.06-.63a.3.3 0 0 1 .3-.08c.14.06.14.08-.02.2-.15.1-.16.16-.06.32q.15.23.07.02-.04-.17.02-.18c.09 0 .33 1 .27 1.1q-.03.07.1.14.13.06.15.2c0 .07.07.2.15.26.22.18.18.33-.15.55l-.3.2.23.23c.58.63 1.82 1.1 3.16 1.19 2.02.14 3.69-.7 4.4-2.22.47-1 .55-1.56.55-4.05.01-2.55-.06-3.07-.6-4.17-.45-.92-1.59-1.68-2.89-1.92-.57-.1-2.1-.13-2.5-.04m.75.22q-.02.1-.22.08c-.2-.02-.23.03-.26.4-.02.26.01.43.07.43q.1-.01.11-.15c0-.14.05-.17.4-.2q.15 0 .12-.25c-.02-.24-.02-.24.13-.06.1.15.12.23.03.33-.06.07-.08.16-.05.19q.06.03.23-.18c.17-.23.19-.23.36-.06.1.1.18.22.18.27 0 .04-.42.1-.92.14-1.25.08-1.84.27-2.3.75a3.5 3.5 0 0 0-.78 1.7q.02.24-.1 0-.11-.16-.28-.1c-.15.05-.15.04-.02-.12.2-.25.23-.56.05-.56A.15.15 0 0 1 8 5.55c0-.13.04-.14.2-.05q.2.12.2 0-.01-.1-.15-.16-.14-.07-.15-.15.02-.08.2.01c.25.13.26.02.03-.17q-.26-.18.03-.08c.15.04.32-.06.62-.34.23-.22.37-.43.32-.46-.06-.03-.1-.14-.1-.23q-.01-.2.2.08c.18.2.2.22.18.06a.5.5 0 0 0-.2-.3c-.14-.08-.22-.06-.4.11-.18.18-.2.24-.08.37.14.18 0 .22-.18.04s-.45.09-.32.32q.13.2-.09.13c-.21-.05-.4.35-.61 1.3-.15.65-.1.76.36.8l.29.02v2c.01 1.1.07 2.27.13 2.6a3.3 3.3 0 0 0 1.03 1.95c.32.23.36.29.2.33-.24.06-.34.57-.16.76q.14.13.22.07.05-.07-.06-.15-.14-.08-.03-.15.1-.08.06-.2c-.07-.17.12-.3.22-.15q.07.12.13 0c.05-.08.16-.08.42 0 .18.07.6.18.94.25.48.1.55.13.38.2a.3.3 0 0 0-.24.28q0 .29-.08-.04c-.07-.25-.41-.42-.41-.2q0 .1-.16-.04-.36-.4-.52.24c-.09.36-.02.54.12.31.05-.07.6-.06 1.1.02.1.02.11-.03.15-.35.01-.16.12-.04.15.18.03.17.13.2.57.15.12-.01.08-.43-.06-.53q-.1-.05-.22.04-.14.12-.13-.04-.01-.15.52-.22a2.9 2.9 0 0 0 2.45-1.85c.1-.32.23-.5.3-.47q.12.04.18-.05t.16-.03-.04.17a1 1 0 0 0-.21.33q-.08.22.15.27.2.05.14.17-.07.13-.18 0c-.13-.12-.27-.13-.27-.02q.02.1.22.2.34.16-.04.07-.26-.04-.28.04c0 .05-.2.28-.45.52-.36.34-.42.45-.34.6.12.24 0 .25-.17.02q-.12-.15-.2-.1c-.04.04.02.17.14.3.2.2.23.2.39.04.13-.13.15-.2.05-.29q-.11-.12-.12-.22.02-.07.25.19c.28.34.34.22.08-.15q-.25-.36.03-.08c.24.21.49.09.4-.2q-.1-.23.12-.15c.16.04.24-.07.44-.59.47-1.2.44-1.46-.2-1.5-.3-.03-.31-.04-.24-.43.03-.22.07-1.14.07-2.05 0-2.29-.25-3.4-.9-4.06-.18-.18-.2-.25-.1-.33.15-.13.26-.04.18.15-.08.21.14.17.37-.08q.42-.44-.1-.36c-.26.04-.29.02-.24-.18.03-.12 0-.25-.07-.3q-.13-.08-.06.1.05.15-.03.16c-.06 0-.1.1-.1.2 0 .17-.04.2-.21.15q-.22-.07-.15.03c.03.06-.17.02-.44-.09-.28-.1-.59-.19-.7-.19-.16 0-.2-.08-.22-.47-.03-.43-.05-.48-.28-.5-.14 0-.28.04-.32.1q-.08.13-.15 0c-.11-.15-.53-.27-.53-.14m-1.16.1q.05.08-.1.15c-.18.07-.19.45 0 .52.28.1.43-.08.34-.43-.05-.18-.13-.33-.19-.33q-.1 0-.05.09m2.64.07q-.08.08-.08.25c0 .22.05.25.55.32q.35.06.28 0c-.2-.08-.15-.22.07-.16s.27-.1.08-.24c-.24-.18-.56-.13-.63.1-.07.2-.08.2-.14-.06q-.06-.26-.13-.21m2.4 1.32c-.26.28-.27.52-.02.52q.12 0 .07.16c-.03.1 0 .22.08.28a.4.4 0 0 1 .15.26c0 .36.17 1 .25 1q.08-.02.03-.17-.08-.23.07 0c.1.17.08.22-.06.3-.17.09-.16.11.06.28.21.16.22.17.04.16q-.19 0-.19.1l.03.38q0 .24.15.19t.2.04q.03.09-.14.15a.3.3 0 0 0-.2.26c0 .18.06.21.42.21.4 0 .4 0 .25-.18a.7.7 0 0 1-.17-.4q0-.21-.18-.22-.24.02 0-.1c.23-.14.23-.56 0-.64q-.2-.07-.02-.16c.15-.1.21-.48.08-.56s-.1-.24.07-.24q.13-.01.15-.11-.02-.1-.15-.05-.14.04-.15-.08 0-.14-.23-.1-.29.09-.05-.09c.2-.16.14-.55-.1-.74q-.14-.12-.1-.38.1-.54-.34-.07m-1.92.03a2.1 2.1 0 0 1 1.43 1.36c.44 1.63.35 5.37-.16 6.37q-.7 1.41-2.63 1.4c-1.37 0-2.43-.55-2.86-1.47-.13-.29-.24-.46-.24-.4 0 .23.37.87.67 1.14.64.6 1.88.96 2.9.86 1.13-.12 2.15-.9 2.43-1.85.32-1.1.4-4.15.14-5.4-.19-.92-.44-1.43-.83-1.71a3 3 0 0 0-1.3-.5c-.09 0 .12.09.45.2m-2.71.02c-.67.18-.9.3-1.2.7-.47.63-.57 1.35-.53 3.9.03 2.16.05 2.36.27 2.83.43.97 1.22 1.44 2.53 1.52 1.93.11 2.85-.63 3.09-2.5a22 22 0 0 0 0-4.45c-.18-1.05-.53-1.55-1.28-1.83a6 6 0 0 0-2.88-.17m1.24.05c-.36.16-.9.73-.85.9q.03.1-.1.12-.15 0-.1.16.07.17-.13.1c-.1-.04-.22-.02-.26.03-.08.13.17.52.3.47.17-.06.45.14.45.32 0 .15-.02.15-.15-.02-.12-.16-.19-.18-.4-.08q-.45.2-.07.42c.16.1.16.1-.02.08-.24-.04-.33.2-.1.29q.16.06.3-.12c.13-.18.14-.17.15.06 0 .13.02.39.05.57q.06.5-.23.2c-.17-.16-.32-.01-.3.3 0 .15-.03.37-.07.5-.09.27.12.71.25.5.06-.1.1-.1.2 0 .07.06.23.12.36.12q.23 0 .17.15c-.09.22 1.12.21 1.37-.01.1-.09.34-.16.53-.16.2 0 .36-.05.36-.11l.04-.7c.03-.61-.09-.82-.3-.52-.15.2-.2.12-.26-.35q-.04-.24-.19-.25c-.08 0-.23-.08-.33-.17q-.16-.17-.07-.18c.05 0 .15.08.21.18q.12.18.16.04.06-.1.15-.12.09.01.03.13-.04.08.15-.07c.18-.17.2-.17.15-.03-.08.21.04.22.27.01.1-.09.15-.22.12-.3-.07-.19-.42-.18-.5.01q-.06.13-.15.15-.08-.01-.03-.1c.08-.13-.14-.42-.26-.34q-.08.03-.09-.1-.02-.2.19-.07c.1.06.22.07.26.03q.07-.05.01.06c-.11.2.09.14.29-.08s.14-.5-.13-.57c-.17-.05-.62-.66-.62-.85 0-.15-.36-.58-.44-.51q-.05.04-.06-.05c0-.13-.07-.14-.3-.04m-.2.35c0 .15-.05.27-.1.27q-.1 0-.04-.12.08-.1-.06-.03c-.1.06-.05.15.19.37.17.15.28.28.25.28q-.05.01.07.16c.11.14.1.18-.05.3q-.16.12-.11.23c.1.17.23.13.3-.1.06-.18.13-.2.43-.15q.37.06.24-.06c-.06-.06-.08-.18-.04-.27q.08-.2-.1-.04c-.12.1-.2.1-.37-.06-.24-.21-.2-.41.07-.41q.18.01-.08-.17a1 1 0 0 0-.33-.18q-.08-.01-.17-.15-.11-.19-.1.13m-.08.77q.03.15-.14.12t-.11.17q.12.4.47.16c.17-.13.17-.15-.04-.37q-.2-.21-.18-.08m-.04.88q-.15.18 0 .08.12-.08.26.26c.16.37.13.48-.15.48-.15 0-.19.07-.19.3q0 .5.38-.02.13-.21.28-.07.15.11.14 0a.2.2 0 0 0-.08-.15c-.05-.03-.1-.19-.1-.35s-.1-.39-.2-.5c-.19-.18-.22-.18-.34-.03M11 7.1q.02.11.15.06c.13-.05.13-.02.02.22-.14.3-.12.82.04.82.05 0 .09-.18.09-.4q0-.4.17-.49c.21-.11.17-.17-.2-.26Q11 6.98 11 7.1m-3.62.11q-.1.06 0 .13c.05.03.07.17.04.3-.04.23-.01.26.27.26.36 0 .42-.17.08-.23q-.32-.05 0-.06c.32-.02.29-.46-.04-.46-.14 0-.3.03-.35.06m-.08.89q0 .09.1.1.07.02.03.2-.05.2.11.26c.15.06.15.08-.01.2-.15.1-.16.15-.05.26.11.1.16.1.29-.07.15-.2.15-.2.08.04q-.06.23.03.17c.05-.03.1-.33.1-.66L8 8h-.35c-.2 0-.35.04-.35.1m3.57.74c.11.17.74.36 1.2.36.4 0 1.33-.3 1.33-.42 0-.02-.58-.04-1.29-.03-.71 0-1.27.04-1.24.09m4.94.76v.6h.34c.41 0 .48-.2.08-.2q-.4 0-.05-.1c.25-.1.29-.28.07-.37-.13-.05-.13-.07.02-.18q.3-.24-.21-.32c-.23-.03-.24 0-.25.57m-8.26-.1q-.44.06-.22.14.16.1.17.37 0 .3.17.29c.15 0 .16.01 0 .13-.17.13-.13.72.04.61q.08-.06.04-.14-.03-.07.13-.06c.13 0 .18-.08.2-.36.03-.34 0-.38-.2-.38s-.2 0-.04-.13c.1-.07.16-.22.14-.33-.03-.16-.09-.18-.43-.13m8.25.88q.02.1.23.14l.22.04-.22.02q-.21.01-.23.1c0 .05-.03.16-.06.24q-.08.16.25.13c.17 0 .31-.05.31-.09v-.37c0-.25-.04-.3-.25-.3q-.23 0-.25.1m-6.45.4c0 .4.01.4.3.38.54-.05.4-.78-.15-.78-.12 0-.16.1-.15.4m1.15.02q0 .4.15.38.12-.01.1-.13c-.03-.07.09-.2.26-.31l.32-.19-.05.32c-.04.24 0 .31.12.31.13 0 .16-.07.12-.3q-.05-.3.1-.26.4.06.35.37-.06.2.11.19t.18-.22c0-.13.04-.3.08-.4q.07-.17-.03-.18-.1.02-.11.15t-.1.15q-.09-.01-.1-.14c0-.1-.18-.13-.75-.13h-.75zm2.08-.31a.4.4 0 0 0-.18.29c0 .24.46.6.74.59q.24 0 .04-.06c-.2-.05-.22-.12-.1-.31.08-.11.1-.1.16.03q.06.16.33.13c.22-.02.3-.1.35-.33l.07-.3-.03.32c-.02.3 0 .33.24.33s.27-.03.26-.37c-.02-.36-.03-.38-.39-.41s-.37-.03-.37.32q.01.38-.16.36-.17.02-.12-.32.03-.3-.1-.35-.1-.03-.12.12c0 .15-.01.15-.16 0-.18-.18-.23-.18-.46-.04m-2.38 1.45c0 .22.02.25.15.14q.14-.1.15-.03c0 .05.23.1.5.12q.5.02.5-.1t.15 0c.19.16.35.05.34-.22q0-.3-.06-.03-.05.21-.13.06c-.05-.08-.18-.15-.3-.17q-.21-.04-.2.2l-.01.22-.1-.22c-.04-.13-.13-.23-.19-.23q-.09.02-.1.23.01.29-.1.04-.11-.16-.2-.12-.08.04-.15-.05c-.12-.19-.25-.1-.25.16m2.4-.02c0 .21.04.23.55.24.6 0 .6 0 .45-.29-.13-.24-.4-.25-.4-.02q.01.22-.1.04a.5.5 0 0 0-.3-.18c-.15-.02-.2.02-.2.2m-.8.75q.01.21-.1.02c-.09-.13-.11-.13-.2 0-.16.25-.13.26.53.26.55 0 .62-.03.65-.22.02-.17-.02-.21-.22-.21q-.24 0-.3.16-.04.21-.05-.01-.02-.17-.16-.18-.13.02-.15.18m-2.74.98q-.45.45-.09.44.39.02.4-.42c0-.16 0-.28-.02-.28zm4.27.6q-.12.06-.13.22.02.22-.15-.02c-.12-.16-.18-.17-.28-.07s-.08.14.06.22c.2.12.22.29.02.29q-.14 0-.15.1c0 .17.3.11.41-.08q.12-.18.35-.14c.13.02.24 0 .24-.07q-.02-.09-.15-.05-.13.05-.15-.05.01-.1.16-.11t.12-.12q-.09-.21-.35-.11"/></svg>