<svg xmlns="http://www.w3.org/2000/svg" width="24" height="24"><path fill="#7f7f7f" fill-rule="evenodd" d="M7.35 7.99c-.01.44.14.54.54.4.18-.07.22-.15.2-.41-.04-.3-.08-.33-.39-.36-.35-.03-.35-.02-.35.37M9 7.8c0 .11.07.23.15.26q.13.06.15.16-.01.1-.14-.01-.14-.12-.2-.01c-.09.13.19.24.39.16q.31-.1-.07-.47-.26-.24-.05-.16.16.05.17-.03-.02-.1-.2-.1-.2 0-.2.2m.83-.1q.16.13.17.4c0 .17.04.3.1.3.04 0 .08-.15.07-.32-.02-.26.02-.32.16-.3q.16.02.17-.08c0-.05-.2-.1-.42-.1q-.5 0-.25.1m.92.27c0 .51.22.54.27.03.03-.31 0-.4-.12-.4q-.17-.02-.15.37m.63.03c.02.22.08.4.13.4s.06-.12.03-.28l-.07-.27.3.28c.16.15.32.27.35.27s.08-.18.1-.4c.03-.34 0-.4-.15-.4q-.2-.02-.11.23l.06.22-.24-.23c-.35-.32-.44-.28-.4.18m1.15-.2c-.17.25-.07.49.24.56q.24.06.41-.1c.16-.15.15-.16-.14-.1q-.33.07-.37-.1c-.09-.22.19-.42.38-.26q.16.16.15-.04c0-.24-.52-.21-.67.04m.97-.1q0 .1.1.05.1-.04.11.14c.03.4.04.44.16.49q.13.04.13-.33c0-.21.04-.34.1-.3q.1.04.1-.04c0-.06-.16-.11-.35-.11-.2 0-.35.05-.35.1m1.63.03c.16.37.33.67.38.67s.39-.65.39-.75q-.01-.05-.15-.05-.15 0-.16.28l-.01.27-.11-.28c-.06-.15-.17-.27-.25-.27q-.13.01-.09.13m1.07.02c.07.08.1.25.06.4-.06.23-.04.25.25.25s.3-.03.25-.22c-.03-.13-.06-.3-.06-.4q.02-.19-.31-.18c-.27 0-.3.02-.2.15m-12.75.6c-.4.3-.5.8-.3 1.29q.29.65 1.2.66c.43 0 .47-.02.65-.39.24-.47.15-.62-.15-.24-.3.37-.88.37-1.21-.02-.7-.8.4-1.85 1.12-1.08l.25.28v-.32c0-.36-.13-.43-.78-.43-.35 0-.55.07-.78.25m1.86.45q.01.09.1.1c.17 0 .12 1.1-.05 1.16-.25.1-.06.24.3.24.34 0 .46-.12.25-.25-.05-.03-.1-.15-.1-.26 0-.15.07-.19.35-.19s.35.04.35.19c0 .1-.07.22-.16.25-.38.15.04.25.94.23l.97-.02-.03-.5q-.03-.78-.21-.46c-.11.18-.34.1-.37-.13-.02-.15.02-.17.27-.12.24.05.29.02.29-.14 0-.18-.07-.2-.55-.2-.53 0-.72.11-.4.24q.15.04.15.55c0 .42-.03.5-.22.54-.12.03-.25.04-.3 0-.12-.06-.1-1.13.02-1.13a.1.1 0 0 0 .1-.1c0-.05-.16-.1-.35-.1-.2 0-.35.05-.35.1q.01.09.1.1t.1.25c0 .22-.04.25-.35.25-.3 0-.35-.03-.35-.25q.01-.23.1-.25a.1.1 0 0 0 .1-.1c0-.05-.16-.1-.35-.1-.2 0-.35.05-.35.1m3.22.02q-.32.3.25.75.33.29.29.41c-.11.19-.37.14-.43-.08-.08-.3-.25-.24-.21.08.03.23.07.27.37.27.2 0 .38-.06.44-.16.15-.24 0-.64-.28-.77-.27-.13-.34-.42-.1-.42q.13 0 .15.12 0 .13.11 0c.06-.05.08-.15.05-.21-.1-.15-.49-.14-.64.01m.88.08c0 .16.05.19.3.13l.3-.05v.5c0 .4-.04.52-.15.52a.15.15 0 0 0-.15.15c0 .11.12.15.45.15.44 0 .6-.15.3-.26q-.15-.04-.15-.56v-.5l.3.05c.17.04.3.02.3-.03q.02-.1.15-.1c.11 0 .15.13.15.54 0 .39-.04.55-.15.6q-.13.06-.15.15c0 .07.4.1 1.05.1.96 0 1.3-.1.9-.25-.15-.06-.22-.44-.08-.44.04 0 .23.18.43.4.33.39.37.4.64.3a1 1 0 0 1 .46-.05c.23.07.37-.13.16-.21s-.21-.44-.03-.44q.13 0 .25.12.13.16.12-.2c0-.18-.04-.32-.1-.32a.1.1 0 0 0-.1.1q-.02.09-.15.1-.15-.01-.15-.25t.15-.25q.13 0 .15.1 0 .09.1.1.1-.02.1-.2c0-.18-.07-.2-.55-.2-.3 0-.55.05-.55.1q.01.09.15.1c.25 0 .2 1.02-.04 1.17-.17.11-.23.09-.42-.18-.18-.26-.2-.35-.1-.55.14-.31.14-.3-.05-.48-.17-.18-1.04-.22-1.04-.06q.01.09.1.1c.06 0 .1.27.1.6s-.03.6-.07.6c-.11 0-.33-.5-.33-.74q0-.23-.12-.08c-.2.2-.38.14-.38-.13s.18-.33.38-.13c.15.15.24.06.16-.15-.05-.14-.26-.16-1.35-.16-1.21 0-1.29 0-1.29.19m5.5-.1q0 .09.1.1c.06 0 .1.24.1.54s-.04.58-.1.61c-.27.17-.02.24.85.24.9 0 .96 0 1.04-.22q.09-.21-.02-.26a.1.1 0 0 0-.15.07c-.02.07-.15.12-.28.12q-.25.02-.24-.21c0-.19.04-.2.3-.15.27.05.3.03.3-.2 0-.25-.15-.33-.22-.12-.07.19-.4 0-.36-.2.04-.17.1-.18.4-.07q.2.09.18-.14c0-.19-.06-.21-.55-.21-.3 0-.55.05-.55.1q0 .09.1.1c.06 0 .1.24.1.54 0 .4-.04.55-.16.6q-.15.05-.25 0c-.12-.07-.11-1.14.01-1.14a.1.1 0 0 0 .1-.1c0-.05-.16-.1-.35-.1-.2 0-.35.05-.35.1m2.1 0q0 .09.1.1c.13 0 .13 1.07 0 1.15-.22.14.04.25.56.25.47 0 .56-.03.63-.22q.14-.42-.11-.2c-.07.07-.25.12-.4.12-.27 0-.28-.02-.28-.5q0-.52.15-.56c.28-.11.15-.24-.25-.24-.22 0-.4.05-.4.1m1.4-.01q.02.08.15.15.15.04.15.55 0 .5-.15.55-.13.06-.15.16c0 .15 1.12.12 1.32-.04.45-.34.4-1.13-.08-1.35-.3-.13-1.24-.15-1.24-.02m1.82.03q-.32.3.25.75.33.29.29.41c-.11.19-.37.14-.43-.08-.08-.3-.25-.24-.21.08.03.23.07.27.37.27.2 0 .38-.06.44-.16.15-.24 0-.64-.28-.77-.14-.06-.25-.18-.25-.27 0-.18.26-.2.33-.03q.04.11.12.06.06-.08.02-.23c-.07-.18-.48-.2-.65-.03m-1.32.63c0 .62.14.76.56.57.5-.24.2-1.12-.38-1.12-.15 0-.18.09-.18.55"/></svg>