<?xml version="1.0" encoding="UTF-8" standalone="no"?>
<svg
   viewBox="0 0 16.056133 10.597558"
   width="16.056133pt"
   height="10.597558pt"
   version="1.1"
   id="svg1245"
   xmlns="http://www.w3.org/2000/svg"
   xmlns:svg="http://www.w3.org/2000/svg">
  <defs
     id="defs1249" />
  <g
     id="g3924"
     transform="matrix(0.83033854,0,0,-0.82867241,0.34625079,9.3147743)">
    <path
       d="m 0,0 c 0.192,-0.683 0.581,-1.548 0.581,-1.548 0,0 3.169,1.771 7.426,1.477 0.967,-0.069 1.816,-0.337 1.816,-0.337 0,0 -1.735,1.136 -2.083,1.246 C 6.069,1.256 4.479,1.378 3.538,1.412 3.538,1.412 1.229,1.146 0,0 M 18.346,1.3 C 17.488,0.716 15.766,0.068 13.11,0.738 12.856,0.805 12.614,0.869 12.38,0.941 10.704,1.667 9.002,2.455 8.312,2.967 c 1.921,-0.302 5.212,-0.592 10.032,0.254 0,0 0.268,-0.665 0.422,-1.5 L 18.346,1.3"
       style="fill:#ed1c24;fill-opacity:1;fill-rule:nonzero;stroke:none"
       id="path3926" />
  </g>
  <g
     id="g3928"
     transform="matrix(0.83033854,0,0,-0.82867241,15.927554,7.8886623)">
    <path
       d="M 0,0 C -0.108,-0.101 -0.201,-0.173 -0.421,-0.319 -1.279,-0.904 -3,-1.653 -5.656,-0.983 c -0.254,0.066 -0.496,0.133 -0.73,0.203 -2.422,0.713 -3.887,1.642 -7.113,2.035 -2.748,-0.078 -4.472,-0.384 -5.683,-0.821 0.062,-0.904 0.259,-1.588 0.416,-2.155 0.23,0.114 1.925,0.983 3.538,1.413 0.756,0.204 1.567,0.338 2.31,0.295 2.48,-0.158 4.48,-1.443 6.698,-2.487 1.54,-0.431 4.843,-0.71 6.306,-0.219 0,0 0.202,1.141 -0.086,2.719"
       style="fill:#ffc50b;fill-opacity:1;fill-rule:nonzero;stroke:none"
       id="path3930" />
  </g>
  <g
     id="g3932"
     transform="matrix(0.83033854,0,0,-0.82867241,13.716363,6.5254637)">
    <path
       d="m 0,0 h -1.454 l 0.528,3.289 c 0.108,0.538 0.031,0.742 -0.214,0.742 -0.495,0 -1.388,-1.31 -1.593,-2.593 L -2.964,0 h -1.452 l 0.543,3.289 c 0.108,0.538 0.033,0.742 -0.214,0.742 -0.495,0 -1.363,-1.293 -1.601,-2.562 L -5.967,0 h -1.452 l 0.785,4.124 V 4.156 C -6.87,4.198 -7.223,4.242 -7.536,4.264 l 0.205,1.003 c 0.772,0.087 1.504,0.13 2.309,0.097 C -5.108,4.944 -5.248,4.46 -5.431,3.986 l 0.022,-0.001 c 0.484,0.83 0.999,1.467 1.944,1.467 0.634,0 1.046,-0.334 1.046,-1.056 0,-0.129 -0.032,-0.268 -0.086,-0.484 l 0.011,-0.01 c 0.493,0.894 1.093,1.55 2.036,1.55 1.042,0 1.253,-0.755 1.06,-1.756 z M -8.81,0.001 -10.272,0 c 0.065,0.387 0.191,0.816 0.395,1.386 h -0.022 c -0.459,-0.774 -1.114,-1.516 -1.943,-1.516 -0.849,0 -1.275,0.55 -1.275,1.701 0,2.026 1.048,3.881 3.401,3.881 0.128,0 0.257,-0.012 0.461,-0.043 L -9.02,6.648 V 6.657 C -9.256,6.7 -9.608,6.743 -9.922,6.765 l 0.206,1.004 c 0.744,0.072 1.507,0.129 2.398,0.096 z m -1.189,4.232 c -0.999,0 -1.587,-1.411 -1.587,-2.403 0,-0.407 0.102,-0.589 0.317,-0.589 0.569,0 1.53,1.639 1.72,2.662 l 0.051,0.263 c -0.14,0.032 -0.297,0.067 -0.501,0.067"
       style="fill:#143f90;fill-opacity:1;fill-rule:nonzero;stroke:none"
       id="path3934" />
  </g>
</svg>
