<svg xmlns="http://www.w3.org/2000/svg" width="24" height="24"><path fill="#9b9693" fill-rule="evenodd" d="M5.01 5.33c.01 2.16.04 3.1.1 2.7.1-.78.49-1.9.9-2.61a9 9 0 0 1 2.4-2.4 8 8 0 0 1 2.63-.91c.4-.06-.55-.09-2.71-.1L5 2zM13 2.1q2.24.29 3.95 2.03a7 7 0 0 1 1.95 3.74c.05.29.08-.76.09-2.7L19 2l-3.32.01c-2.3.01-3.13.04-2.68.1m-2.54 1.46c-.03.04-.26.06-.5.04-.36-.01-.48.02-.58.19A.5.5 0 0 1 9 4q-.49.01-.5.47 0 .24-.19.23c-.26 0-.71.38-.71.6 0 .1.07.23.15.3.12.1.11.16-.07.4-.27.37-.19.74.21.88.16.06.31.08.34.06.1-.1.31 1.41.32 2.18 0 .68-.03.8-.25 1.03-.23.25-.3.27-.9.23a9 9 0 0 1-1.47-.27c-.74-.2-.82-.26-.86-.5a46 46 0 0 0-.05 3.07L5 16l3.18-.01q3.16 0 2.67-.1a8 8 0 0 1-1.03-.26l-.52-.18.52-.52.53-.52.6.21c.44.16.86.22 1.55.22.83 0 1.02-.02 1.52-.26.31-.14.72-.44.92-.65l.8-.87c.24-.27.5-.65.6-.85.6-1.48.66-1.7.47-2-.07-.12-.17-.1-.54.12a6 6 0 0 1-3.02.81c-.55 0-1.23-.05-1.5-.12l-.5-.13-.13-.92c-.2-1.55-.17-1.67.54-1.67.64 0 1.64.35 2.26.8.31.22.64.4.72.4.2 0 .21-.5.01-1.16l-.15-.51c0-.02.32-.03.7-.03.72 0 .76.02 1.13.54.16.22.68.26.91.06.22-.17.22-1.37 0-1.88-.34-.82-1.3-1.4-2.12-1.28l-1.2.12-.82.07-.58-.59c-1.05-1.07-1.4-1.34-1.7-1.34-.16 0-.32.03-.36.07m.24.48c0 .12-.04.14-.2.05-.3-.16-.53-.13-.47.09.04.16 0 .18-.4.13-.33-.04-.44-.01-.49.12-.03.09 0 .23.06.31.1.13.07.15-.23.15-.4 0-.88.33-.72.48.05.06.21.12.35.14l.25.03-.3.19c-.36.2-.59.52-.5.66.1.15.41.12.55-.05q.12-.13.2-.15c.04 0 .1.4.13.88.04.48.1 1.2.17 1.6.18 1.34-.1 2.06-.9 2.31-.47.15-.39.16-2.72-.26l-.28-.05.2.54c.1.3.25.69.34.86.16.3.2.32.72.32.65 0 .7.2.1.34-.2.05-.36.13-.36.16a5 5 0 0 0 .6.73c.65.71 1.48 1.37 1.73 1.37.3 0 1.26-1.1 1.64-1.88.38-.76.38-.76.38-2.02 0-1.24 0-1.26-.52-2.75-.28-.82-.54-1.69-.58-1.91-.14-.9.4-1.83 1.18-2.06.52-.14.49-.12.41-.32s-.34-.21-.34 0m3.9 1.77c-.26.13-.7.8-.7 1.09 0 .15.12.17.98.16 1.05 0 1.51.13 1.72.52.34.64.41-.33.07-1q-.45-.9-1.36-.9c-.25 0-.57.06-.7.13m4.29 4.15c0 .46-.36 1.57-.76 2.34a7.7 7.7 0 0 1-2.89 2.85 8 8 0 0 1-2.35.77c-.14.02 1.18.04 2.93.05L19 16v-3.15c0-1.73-.02-3.15-.05-3.15s-.05.12-.05.28m-7.8 2.6c0 .12-.09.44-.2.72l-.2.55c0 .07 1.01.35 1.25.35q.43 0 .9-1l.25-.55-.43-.06c-1.47-.22-1.57-.22-1.57 0"/></svg>