<?xml version="1.0" encoding="UTF-8" standalone="no"?>
<svg
   viewBox="0 0 25.384331 30.575188"
   width="25.384331pt"
   height="30.575188pt"
   version="1.1"
   id="svg133"
   sodipodi:docname="domino.svg"
   xml:space="preserve"
   inkscape:export-filename="..\brands_pin\fnb\domino.svg.png"
   inkscape:export-xdpi="96"
   inkscape:export-ydpi="96"
   inkscape:version="1.4 (86a8ad7, 2024-10-11)"
   xmlns:inkscape="http://www.inkscape.org/namespaces/inkscape"
   xmlns:sodipodi="http://sodipodi.sourceforge.net/DTD/sodipodi-0.dtd"
   xmlns="http://www.w3.org/2000/svg"
   xmlns:svg="http://www.w3.org/2000/svg"><sodipodi:namedview
     id="namedview1"
     pagecolor="#ffffff"
     bordercolor="#000000"
     borderopacity="0.25"
     inkscape:showpageshadow="2"
     inkscape:pageopacity="0.0"
     inkscape:pagecheckerboard="0"
     inkscape:deskcolor="#d1d1d1"
     inkscape:document-units="pt"
     inkscape:zoom="18.029325"
     inkscape:cx="16.916884"
     inkscape:cy="20.383459"
     inkscape:window-width="1920"
     inkscape:window-height="974"
     inkscape:window-x="-11"
     inkscape:window-y="1609"
     inkscape:window-maximized="1"
     inkscape:current-layer="svg133"><inkscape:page
       x="0"
       y="0"
       width="25.384331"
       height="30.575188"
       id="page2"
       margin="0"
       bleed="0" /></sodipodi:namedview><defs
     id="defs137" /><path
     style="fill:#ffffff;fill-opacity:1;stroke-width:3.8402"
     id="path2106"
     d="M 22.679787,12.35478 A 10.000001,10.000002 0 0 1 12.699319,22.354761 10.000001,10.000002 0 0 1 2.6798636,12.393848 10.000001,10.000002 0 0 1 12.621185,2.354951 10.000001,10.000002 0 0 1 22.679482,12.276645" /><g
     id="g1"
     transform="matrix(0.05516111,0,0,0.05543141,3.8322843,5.7876706)"><path
       d="m 0,0 c 2.8427,1.282421 3.5748403,1.5522017 6.75,1 2.2720121,-1.60377325 3.641805,-3.1581137 5.125,-5.5 5.75,0.75 5.75,0.75 8,3 -0.3125,2.3125 -0.3125,2.3125 -1,5 -0.338959,1.6655317 -0.673117,3.3320563 -1,5 2.061781,1.750853 4.124399,3.500704 6.1875,5.25 0.578145,0.491133 1.156289,0.982266 1.751953,1.488281 2.549799,2.160847 5.09838,4.291059 7.740234,6.339844 10.496596,8.69415 17.8783,22.773402 19.195313,36.296875 0.823138,13.905145 -3.813601,27.785331 -12.6875,38.5 -5.558619,5.94741 -11.728055,8.81745 -19.8125,9.375 -12.297978,-0.29281 -23.887999,-7.54144 -33.609375,-14.597656 -2.52728,-1.820631 -2.52728,-1.820631 -4.851562,-1.691407 -2.701762,1.466671 -4.450775,3.412521 -6.539063,5.664063 -8.550261,8.7756 -19.450175,17.41972 -32.1875,17.9375 -5.564719,-0.29288 -8.78983,-2.0015 -12.621094,-6.09375 -5.526355,-6.3874 -5.102769,-12.391287 -4.732422,-20.453613 C -73.493855,76.83901 -68.226119,69.783556 -61.125,63.5 c 5.642887,-3.808949 11.350695,-5.128669 18.125,-5.25 0.848203,-0.02578 1.696406,-0.05156 2.570313,-0.07813 4.928926,0.489397 9.563699,1.932664 14.304687,3.328125 0.417737,-0.724775 0.835474,-1.449551 1.265869,-2.196289 1.585854,-2.751119 3.17199,-5.502075 4.758301,-8.25293 1.009731,-1.751181 2.019152,-3.502541 3.028564,-5.253906 0.981299,-1.701563 0.981299,-1.701563 1.982422,-3.4375 0.652427,-1.138887 1.304854,-2.277773 1.977051,-3.451172 1.327459,-2.276016 2.688214,-4.532929 4.0810547,-6.769531 0.6485596,-1.051231 1.2971192,-2.102461 1.9653321,-3.185547 0.5896655,-0.93167 1.179331,-1.86334 1.7868652,-2.823242 C -3.9106886,23.011829 -3.9459885,21.66579 -5.125,18.5 -7.3001083,16.650705 -9.2902552,15.187912 -11.6875,13.6875 -12.353542,13.258806 -13.019585,12.830112 -13.705811,12.388428 -25.514492,4.9447534 -39.671148,-3.9453852 -54.125,-2.5 c -3.162984,1.1935789 -5.361262,2.46428462 -7.9375,4.625 -1.702815,3.8062921 -1.187775,7.4211636 -0.0625,11.375 2.568252,5.078135 5.563133,9.167337 9.4375,13.3125 0.51208,0.55325 1.02416,1.106499 1.551758,1.676514 5.45202,5.729562 11.591023,10.423994 18.010742,15.010986 -0.308594,3.378906 -0.308594,3.378906 -1,7 -3.0625,1.9375 -3.0625,1.9375 -6,3 -13.453133,-10.106097 -30.475392,-23.409002 -34,-41 -0.641889,-7.3659445 -0.717672,-13.9842703 4,-20 C -53.069548,-24.776377 -17.905367,-8.7465361 0,0 Z m 7.875,26.5 c -3.5313421,3.646471 -5.5134928,7.850515 -7.48828125,12.460937 -0.46118477,1.06319 -0.46118477,1.06319 -0.9316864,2.147858 -0.64358635,1.492531 -1.28290795,2.986908 -1.91816715,4.483002 -0.9717328,2.277035 -1.969351,4.541529 -2.9685058,6.80664 -0.6246671,1.457641 -1.2477674,2.915953 -1.8691406,4.375 -0.448269,1.005031 -0.448269,1.005031 -0.9055939,2.030365 C -10.121919,63.416328 -10.410471,66.671484 -9.125,71.5 c 2.1155231,1.907997 3.7647833,3.126288 6.1875,4.5 0.6227783,0.373828 1.2455566,0.747656 1.887207,1.132812 C 0.90758466,78.288958 2.88506,79.400077 4.875,80.5 5.8173852,81.027871 5.8173852,81.027871 6.7788086,81.566406 16.283373,86.939925 16.283373,86.939925 26.875,88.5 c 4.627259,-1.787805 6.7791,-4.634784 9,-9 C 39.300144,67.327566 37.010621,58.000233 31.066406,47.042969 26.276918,38.878713 19.044313,31.265433 10.875,26.5 c -0.99,0 -1.98,0 -3,0 z m -62.6875,49.1875 c -3.741374,4.55032 -6.500534,8.990133 -6.75,15 0.444846,3.876511 1.034491,5.786489 3.4375,8.8125 2.772027,2.23456 2.772027,2.23456 5.6875,2.0625 7.738475,-2.482152 11.902858,-8.446815 15.875,-15.1875 0.358843,-0.597722 0.717686,-1.195444 1.087402,-1.811279 1.549466,-2.784015 2.370677,-4.672724 2.201661,-7.884034 C -34.50522,73.526775 -36.073315,72.856305 -39.125,71.5 c -6.34771,-1.931912 -10.673907,0.106668 -15.6875,4.1875 z"
       fill="#44210e"
       transform="translate(166.125,100.5)"
       id="path1" /><path
       d="M 0,0 C 0.84348999,5.4382e-4 1.68698,0.00108765 2.5560303,0.00164795 15.271628,0.03936805 27.252319,0.69060135 39.5,4.375 40.255391,4.5893066 41.010781,4.8036133 41.789062,5.0244141 79.405187,15.828042 111.87588,41.372672 131.25,75.3125 c 7.21071,13.082699 12.70029,26.5437 16.25,41.0625 0.16516,0.66064 0.33032,1.32129 0.50049,2.00195 4.94695,20.77004 4.41833,45.26251 -0.50049,65.99805 -0.16629,0.70689 -0.33258,1.41378 -0.50391,2.14209 -9.43666,38.48937 -34.90558,71.9299 -68.394283,92.69629 C 61.579621,289.47954 43.143261,296.26519 23.5,299.375 c -1.155,0.18434 -2.31,0.36867 -3.5,0.55859 -17.2556169,2.05917 -36.631634,1.69149 -53.5,-2.55859 -1.158706,-0.28206 -1.158706,-0.28206 -2.34082,-0.56982 -38.78883,-9.72429 -72.37559,-34.71431 -93.34668,-68.70752 -11.88533,-20.05118 -20.30636,-43.50192 -20.55078,-66.98047 -0.01,-0.77694 -0.0197,-1.55389 -0.0298,-2.35437 -0.32943,-32.75689 -0.32943,-32.75689 4.2681,-48.38782 0.23606,-0.81984 0.47212,-1.63969 0.71533,-2.48437 11.50575,-38.693722 38.09972,-70.956963 73.333498,-90.396001 C -61.572034,12.187321 -51.624639,8.2496176 -40.875,5.125 -40.028489,4.8785474 -39.181978,4.6320947 -38.309814,4.3781738 -25.50662,0.81289873 -13.212083,-0.03197878 0,0 Z m -94.5,41.375 c -0.855937,0.669023 -1.711875,1.338047 -2.59375,2.027344 -2.167025,1.776538 -3.91603,3.526411 -5.71875,5.660156 -1.81973,2.14132 -3.63633,4.258128 -5.5625,6.304687 -26.9893,28.839372 -36.08145,67.193163 -35.25684,105.624023 0.28486,7.31139 1.37694,14.28948 3.13184,21.38379 0.19336,0.78746 0.38672,1.57491 0.58594,2.38623 9.58366,37.63213 33.36624,69.80439 66.66406,89.80127 8.252033,4.80123 16.76332,8.60968 25.75,11.8125 1.011995,0.36134 1.011995,0.36134 2.044434,0.72998 36.2616004,12.56987 75.785664,8.74952 110.115722,-7.69482 C 85.766289,268.93691 103.82737,253.52413 117.5,234.375 c 0.39671,-0.55381 0.79342,-1.10763 1.20215,-1.67822 13.10443,-18.60215 22.2073,-40.64606 24.79785,-63.32178 0.16436,-1.2723 0.16436,-1.2723 0.33203,-2.57031 C 148.06365,129.00221 137.28666,90.668913 113.73828,60.808594 111.09752,57.565929 108.33178,54.451248 105.5,51.375 104.63891,50.431406 103.77781,49.487812 102.89063,48.515625 78.636213,23.113076 42.857343,7.2668014 7.8046875,6.0898437 -30.725113,5.3552432 -65.075751,16.04156 -94.5,41.375 Z"
       fill="#44220e"
       transform="translate(149.5,-0.375)"
       id="path2" /><path
       d="M 0,0 C 0.67417969,0.50144531 1.3483594,1.0028906 2.0429688,1.5195312 19.237557,15.1729 30.993868,38.242106 33.789062,59.80957 36.307821,85.965017 30.295868,110.42255 14.0625,131.3125 0.48419889,147.45824 -16.571676,158.49449 -37,164 c -1.193027,0.33645 -1.193027,0.33645 -2.410156,0.67969 -22.071164,5.1068 -47.755975,0.91149 -67.080564,-10.80493 -2.90989,-1.86038 -5.72364,-3.83395 -8.50928,-5.87476 -1.56041,-1.14275 -1.56041,-1.14275 -3.15234,-2.30859 -18.99518,-14.88811 -30.98799,-37.39177 -34.1875,-61.22266 -2.70598,-24.02016 3.27353,-48.732027 18.01562,-68.113281 C -117.41736,-4.7089088 -94.684545,-17.140494 -68.0625,-20.8125 -42.971911,-22.516445 -19.872219,-15.206323 0,0 Z m -117,9 c -0.75926,0.6651563 -1.51852,1.330313 -2.30078,2.015625 C -133.57122,24.324846 -144.17447,45.42816 -145,65 c -0.0516,1.073789 -0.10312,2.147578 -0.15625,3.253906 C -145.73259,91.283524 -138.2902,112.61835 -123,130 c 0.99967,1.14275 0.99967,1.14275 2.01953,2.30859 14.32342,15.33323 35.789707,24.7271 56.601564,25.89453 25.645449,0.315 47.898851,-8.27214 66.566406,-26.07812 C 18.326273,115.37172 26.454767,92.680419 26.214844,69.621094 24.709414,44.247762 13.658171,23.877779 -4.4296875,6.6914062 -36.479946,-20.988362 -85.9472,-18.671841 -117,9 Z"
       fill="#44220e"
       transform="translate(209,77)"
       id="path3" /><path
       d="m 0,0 c 0.33,2.31 0.66,4.62 1,7 -0.99,0.495 -0.99,0.495 -2,1 0,1.65 0,3.3 0,5 0.61875,0.165 1.2375,0.33 1.875,0.5 2.7819669,1.963741 2.9611113,3.890492 3.6210937,7.125 C 5.0642539,23.30284 5.8255685,25.882327 6.625,28.5 7.0155859,29.783906 7.0155859,29.783906 7.4140625,31.09375 7.6074219,31.722812 7.8007812,32.351875 8,33 4.6708394,34.343944 1.3370002,35.675643 -2,37 -2.7721484,37.308086 -3.5442969,37.616172 -4.3398437,37.933594 -7.3657881,39.111289 -9.7233088,40 -13,40 c -0.66,-1.98 -1.32,-3.96 -2,-6 1.560209,-0.651349 3.123286,-1.29583 4.6875,-1.9375 0.8701172,-0.359648 1.7402344,-0.719297 2.6367188,-1.089844 C -5.1182073,30.042969 -2.6778677,29.458374 0,29 -0.33,28.401875 -0.66,27.80375 -1,27.1875 -2,25 -2,25 -2,22 -3.8954539,21.519335 -5.7913804,21.040533 -7.6875,20.5625 -8.7432422,20.295664 -9.7989844,20.028828 -10.886719,19.753906 -13.938498,18.975261 -13.938498,18.975261 -16.832031,18.527344 -17.905176,18.266309 -17.905176,18.266309 -19,18 c -1.512755,-3.025509 -1.608279,-4.644258 -1,-8 2.48771,-2.2877834 5.344935,-3.7868608 8.3125,-5.375 0.785684,-0.4498828 1.571367,-0.8997656 2.3808594,-1.3632812 C -3.4821429,0 -3.4821429,0 0,0 Z m -9,11 c -0.66,0.66 -1.32,1.32 -2,2 1.32,0 2.64,0 4,0 0,-0.66 0,-1.32 0,-2 -0.66,0 -1.32,0 -2,0 z"
       fill="#45210e"
       transform="translate(43,156)"
       id="path4" /><path
       d="M 0,0 C 2.5418661,0.31094086 5.083486,0.62370536 7.625,0.9375 8.6942773,1.0680176 8.6942773,1.0680176 9.7851563,1.2011719 13.87592,1.707826 17.938426,2.2889043 22,3 21.67,5.31 21.34,7.62 21,10 10.441913,9.0364465 10.441913,9.0364465 6,8 5.34,9.98 4.68,11.96 4,14 7.8078079,16.059234 11.694175,17.097699 15.855469,18.21875 18,19 18,19 19,21 c -0.777344,2.601562 -0.777344,2.601562 -1.9375,5.625 -0.380273,1.002891 -0.760547,2.005781 -1.152344,3.039062 C 15.609805,30.434922 15.309453,31.205781 15,32 13.35,31.67 11.7,31.34 10,31 10.33,28.69 10.66,26.38 11,24 10.34,24 9.68,24 9,24 8.67,25.65 8.34,27.3 8,29 6.02,28.67 4.04,28.34 2,28 2.33,26.35 2.66,24.7 3,23 2.34,22.67 1.68,22.34 1,22 0.67,23.65 0.34,25.3 0,27 -1.98,26.67 -3.96,26.34 -6,26 -5.8182422,25.379961 -5.6364844,24.759922 -5.4492187,24.121094 -3.1870498,16.151298 -1.5476472,8.1333799 0,0 Z"
       fill="#44220e"
       transform="translate(255,162)"
       id="path5" /><path
       d="M 0,0 C 3.0188306,0.60901119 5.1321908,1.5555438 7.671875,3.2851563 8.6676758,3.9570801 8.6676758,3.9570801 9.6835938,4.6425781 10.365508,5.1111523 11.047422,5.5797266 11.75,6.0625 12.447383,6.5349414 13.144766,7.0073828 13.863281,7.4941406 15.57905,8.6575728 17.290004,9.8280997 19,11 c -1.875,4.875 -1.875,4.875 -3,6 -2.013114,0.395691 -4.035972,0.742522 -6.0625,1.0625 C 8.8327734,18.239102 7.7280469,18.415703 6.5898437,18.597656 5.3078711,18.796816 5.3078711,18.796816 4,19 5.98,20.32 7.96,21.64 10,23 9.4939601,25.168743 9.0001619,26.999676 8,29 3.5134311,28.469769 0.93866134,26.776969 -2.625,24.0625 -3.5660156,23.352227 -4.5070312,22.641953 -5.4765625,21.910156 -6.3092969,21.279805 -7.1420312,20.649453 -8,20 c -0.99,-0.66 -1.98,-1.32 -3,-2 1.875,-4.875 1.875,-4.875 3,-6 2.8397254,-0.323513 5.6807374,-0.513043 8.53125,-0.71875 C 2.9413605,11.266147 2.9413605,11.266147 4,10 2.02,8.68 0.04,7.36 -2,6 -1.4939601,3.8312575 -1.0001619,2.0003237 0,0 Z"
       fill="#44220e"
       transform="translate(50,67)"
       id="path6" /><path
       d="M 0,0 C 10.565972,7.6213569 10.565972,7.6213569 11.398438,12.183594 11.34966,16.874359 11.304655,20.37554 8,24 3.1823787,26.726955 0.32182254,27.358906 -5,26 -7.7734375,24.371094 -7.7734375,24.371094 -10.375,22.4375 -11.685977,21.476504 -11.685977,21.476504 -13.023438,20.496094 -13.675703,20.002383 -14.327969,19.508672 -15,19 c 1.351538,-2.953995 2.896798,-5.235575 5.0390625,-7.671875 0.5800781,-0.663867 1.1601562,-1.327734 1.7578125,-2.0117187 C -7.5998437,8.6344922 -6.9965625,7.9525781 -6.375,7.25 -5.4584766,6.2039258 -5.4584766,6.2039258 -4.5234375,5.1367187 -3.019362,3.4211326 -1.511475,1.7090659 0,0 Z m 1,10 c -1.00593243,1.119699 -2.0045849,2.245941 -3,3.375 -0.556875,0.626484 -1.11375,1.252969 -1.6875,1.898438 C -5.2017249,16.903898 -5.2017249,16.903898 -5,19 -2.0221112,19.90991 -0.56502006,20.259604 2.3125,18.9375 4.3165028,17.025078 4.3165028,17.025078 4.25,13.8125 4.12625,12.420313 4.12625,12.420313 4,11 3.01,10.67 2.02,10.34 1,10 Z"
       fill="#44210e"
       transform="translate(75,223)"
       id="path7" /><path
       d="m 0,0 c 6.376833,0.28919878 10.760634,1.2575961 16,5 2.357328,2.8697911 2.547682,6.221117 2.4375,9.898438 C 17.595344,18.943793 15.27328,21.585171 12,24 5.9232143,25.69353 0.99712203,24.679749 -5,23 -3.8367552,15.158361 -2.2452987,7.6040783 0,0 Z m 6,7 c -1.2725344,3.647932 -2.3282919,7.193654 -3,11 3.465,-0.495 3.465,-0.495 7,-1 0.33,-2.31 0.66,-4.62 1,-7 C 9.35,9.01 7.7,8.02 6,7 Z"
       fill="#44220e"
       transform="translate(118,249)"
       id="path8" /><path
       d="M 0,0 C 3.7521228,2.0150289 5.6364409,3.4546614 8,7 8.6834371,10.776889 8.851071,14.471869 6.9492187,17.886719 5.1797749,20.042413 3.5083344,21.745833 1,23 c -5.3401391,0.350173 -8.6646222,0.468302 -13,-3 -2.970886,-3.076989 -3.832743,-5.734955 -4,-10 1.172306,-3.8425593 2.165176,-6.2605843 5.1875,-8.9375 C -7.1350864,-0.32674512 -3.845651,-0.6923677 0,0 Z m -8,8 c -0.9984378,2.408827 -0.9984378,2.408827 -1,5 0.99,1.485 0.99,1.485 2,3 2.9572063,0.666804 2.9572063,0.666804 6,0 C 1.1525437,13.857017 1.1525437,13.857017 2,11 1.5913075,8.6825088 1.5913075,8.6825088 0,7 -3.1905168,5.5110922 -5.2144467,5.8868217 -8,8 Z"
       fill="#44210e"
       transform="translate(177,23)"
       id="path9" /><path
       d="m 0,0 c 0,2.31 0,4.62 0,7 -2.64,0 -5.28,0 -8,0 0.33,2.31 0.66,4.62 1,7 0.66,-0.33 1.32,-0.66 2,-1 1.9996001,-0.03999 4.00047242,-0.04347 6,0 0,2.31 0,4.62 0,7 -3.4783155,0.362889 -6.9577309,0.713848 -10.4375,1.0625 -0.993223,0.10377 -1.986445,0.207539 -3.009766,0.314453 -0.944238,0.09346 -1.888476,0.186914 -2.861328,0.283203 -0.874548,0.08903 -1.749096,0.178052 -2.650146,0.269776 -0.673616,0.02312 -1.347232,0.04624 -2.04126,0.07007 -1,-1 -1,-1 -1.0625,-4.0625 0.02062,-0.969375 0.04125,-1.93875 0.0625,-2.9375 2.64,-0.33 5.28,-0.66 8,-1 0,-1.98 0,-3.96 0,-6 -4.455,0.495 -4.455,0.495 -9,1 0,-2.31 0,-4.62 0,-7 2.728763,-0.3369586 5.457932,-0.6696843 8.1875,-1 0.768926,-0.0953906 1.537852,-0.19078125 2.330078,-0.2890625 C -7.6307119,0.24807106 -3.8882915,-0.12467468 0,0 Z"
       fill="#44220e"
       transform="translate(277,130)"
       id="path10" /><path
       d="M 0,0 C 3.5359986,0.56156348 6.1514337,1.4156926 9.1875,3.3125 9.8616797,3.7211328 10.535859,4.1297656 11.230469,4.5507812 14.325631,7.085671 14.931198,9.4692381 15.4375,13.375 14.994985,17.041555 14.249644,19.131007 11.675781,21.828125 8.3476395,24.155497 4.9675052,24.415278 1,24 -2.1761956,22.957285 -5.0747173,21.611326 -8,20 -6.5488468,15.421118 -4.794181,11.023506 -2.875,6.625 -2.5978516,5.9843359 -2.3207031,5.3436719 -2.0351563,4.6835937 -1.3589961,3.1214308 -0.67981293,1.5605768 0,0 Z m 4,8 c -0.99,2.97 -1.98,5.94 -3,9 1.32,0.33 2.64,0.66 4,1 C 6.8735939,16.960405 6.8735939,16.960405 8,15 8.2506991,12.374293 8.2506991,12.374293 8,10 6.68,9.34 5.36,8.68 4,8 Z"
       fill="#44220e"
       transform="translate(193,29)"
       id="path11" /><path
       d="M 0,0 C 2.499017,3.9458164 2.488016,8.0611713 1.75,12.515625 0.68866443,16.640361 -0.01596477,19.197945 -3.3125,22 c -2.5,0.875 -2.5,0.875 -5.5,0.875 0.33,-1.98 0.66,-3.96 1,-6 -1.093125,-0.2475 -2.18625,-0.495 -3.3125,-0.75 -3.812716,-1.292446 -4.89398,-1.762599 -6.6875,-5.25 -1.162066,-3.2371849 -1.243763,-4.461156 0.1875,-7.625 2.248234,-2.94596182 4.288672,-4.7146746 7.6875,-6.1875 C -6.2003606,-3.2672476 -3.140166,-1.9490685 0,0 Z m -9.8125,3.875 c -0.33,1.65 -0.66,3.3 -1,5 0.99,0.33 1.98,0.66 3,1 0.99,-0.66 1.98,-1.32 3,-2 -0.33,-1.32 -0.66,-2.64 -1,-4 -1.32,0 -2.64,0 -4,0 z"
       fill="#44210e"
       transform="translate(195.8125,247.125)"
       id="path12" /><path
       d="m 0,0 c 3.6333258,2.9727211 4.5253599,4.5277591 5.125,9.125 -0.4999333,4.166111 -1.5756866,5.984307 -4.375,9.125 -2.8741365,1.727595 -5.754562,3.133354 -9,4 -3,-1 -3,-1 -3.999023,-2.626465 -0.283916,-0.687876 -0.567832,-1.375752 -0.860352,-2.084473 -0.310664,-0.750234 -0.621328,-1.500468 -0.941406,-2.273437 C -14.364023,14.476719 -14.677266,13.687813 -15,12.875 -15.328711,12.093828 -15.657422,11.312656 -15.996094,10.507813 -18.378819,4.6364563 -18.378819,4.6364563 -17.25,1.25 -11.628621,-2.0101314 -5.824149,-3.1360802 0,0 Z m -8.25,4.25 c -0.8046985,1.7011299 -0.8046985,1.7011299 -1,4 1.3581401,3.217129 1.3581401,3.217129 3,6 1.32,-0.66 2.64,-1.32 4,-2 C -1.932241,8.5988369 -1.932241,8.5988369 -3.5625,5.4375 -5.3149954,3.9622533 -5.3149954,3.9622533 -8.25,4.25 Z"
       fill="#44220e"
       transform="translate(111.25,31.75)"
       id="path13" /><path
       d="M 0,0 C 0.78761719,0.78890625 1.5752344,1.5778125 2.3867188,2.390625 3.852048,3.853764 5.3228064,5.3116751 6.8125,6.75 8.7336958,10.39016 8.7932584,13.990829 8,18 5.5625,21 5.5625,21 3,23 2.67,23.33 2.34,23.66 2,24 -2.4363386,24.559125 -5.9297857,24.642129 -9.8125,22.3125 -12.027979,19.970423 -14.0657,17.579066 -16,15 c 1.32565,-3.038184 2.629044,-4.789452 5.257812,-6.796875 0.625196,-0.4833984 1.2503911,-0.9667969 1.8945317,-1.4648438 C -7.8711914,6.001582 -7.8711914,6.001582 -6.875,5.25 -5.8869336,4.4900977 -5.8869336,4.4900977 -4.8789062,3.7148438 -3.2578589,2.4696914 -1.6296179,1.2339143 0,0 Z m -3.5625,11.5 c -0.6406641,0.464063 -1.2813281,0.928125 -1.9414062,1.40625 C -5.9976172,13.267188 -6.4913281,13.628125 -7,14 c 0.66,1.32 1.32,2.64 2,4 3.9307564,-0.574527 3.9307564,-0.574527 7,-3 -0.3219897,-3.099268 -0.3219897,-3.099268 -1,-6 -1.81298005,0 -3.1436835,1.468133 -4.5625,2.5 z"
       fill="#44220e"
       transform="translate(244,63)"
       id="path14" /><path
       d="M 0,0 C 2.2324398,0.39875785 4.4609084,0.81978497 6.6875,1.25 7.9288672,1.4820312 9.1702344,1.7140625 10.449219,1.953125 14.211833,3.0624545 16.238521,4.243644 19,7 20.225751,11.136908 20.277653,13.26422 18.75,17.3125 17,20 17,20 14,22 7.3936904,22.702799 1.333233,20.747099 -5,19 c 0.99,-3.465 0.99,-3.465 2,-7 5.28,0.99 10.56,1.98 16,3 0,-1.65 0,-3.3 0,-5 C 8.05,9.01 3.1,8.02 -2,7 -1.34,4.69 -0.68,2.38 0,0 Z"
       fill="#44210e"
       transform="translate(28,108)"
       id="path15" /><path
       d="m 0,0 c 1.9492027,3.0776885 1.8925136,6.2761661 2.1875,9.875 1.65,-0.66 3.3,-1.32 5,-2 2,3 2,3 2,6 -2.265625,2.191406 -2.265625,2.191406 -5.25,4.5625 -0.9745312,0.785039 -1.9490625,1.570078 -2.953125,2.378906 -2.2429752,1.650905 -4.262614,2.942312 -6.796875,4.058594 0.011602,-1.276172 0.023203,-2.552344 0.035156,-3.867188 C -5.767964,19.338543 -5.758866,17.669272 -5.75,16 c 0.00838,-0.841758 0.016758,-1.683516 0.025391,-2.550781 0.00322,-0.805664 0.00645,-1.611328 0.00977,-2.441406 0.00524,-0.743628 0.010474,-1.4872564 0.015869,-2.2534185 C -5.69463,6.7836743 -5.69463,6.7836743 -6.8124954,4.875 c -0.66,0 -1.32,0 -2,0 0.33,1.32 0.66,2.64 1,4 -2.3124996,2.0625 -2.3124996,2.0625 -4.9999996,4 -0.99,-0.33 -1.98,-0.66 -3,-1 C -17.27367,4.6909156 -17.27367,4.6909156 -15.1875,1 -9.8865256,-3.7429771 -6.0555177,-3.7585972 0,0 Z"
       fill="#45220e"
       transform="translate(228.8125,227.125)"
       id="path16" /><path
       d="M 0,0 C 0.33,1.65 0.66,3.3 1,5 0.01,5.495 0.01,5.495 -1,6 0.093125,6.4125 1.18625,6.825 2.3125,7.25 5.5184115,8.6452854 7.4216033,9.7503597 9,13 c 0.5,2.9375 0.5,2.9375 0,6 -2.5710652,3.142413 -5.1208422,5.66654 -9,7 -2.75,0.125 -2.75,0.125 -5,0 -0.66,-1.98 -1.32,-3.96 -2,-6 2.31,-0.66 4.62,-1.32 7,-2 0.33,-1.32 0.66,-2.64 1,-4 -0.9075,0.309375 -1.815,0.61875 -2.75,0.9375 C -4.1689407,15.728308 -6.5320008,16.404461 -9,17 c -0.5075786,-1.413969 -1.005749,-2.831317 -1.5,-4.25 -0.417656,-1.183359 -0.417656,-1.183359 -0.84375,-2.390625 C -12,8 -12,8 -12,4 -10.56988,3.1335333 -9.1305938,2.2821817 -7.6875,1.4375 -6.4867383,0.72400391 -6.4867383,0.72400391 -5.2617187,-0.00390625 -3,-1 -3,-1 0,0 Z"
       fill="#44220e"
       transform="translate(209,236)"
       id="path17" /><path
       d="m 0,0 c 3.8725072,0.93474312 5.7532312,2.1772778 8.625,4.875 -1,3 -1,3 -2.75,4.375 -2.25,0.625 -2.25,0.625 -5,-0.75 C 0.1325,7.96375 -0.61,7.4275 -1.375,6.875 -0.941875,7.3107031 -0.50875,7.7464062 -0.0625,8.1953125 2.6945682,11.143844 4.4597399,13.032174 5.25,17.0625 4.471897,20.563964 3.5101827,21.769596 0.625,23.875 -2.9217182,25.312859 -4.3235612,24.892737 -8,23.625 c -2.746447,-1.424084 -4.465138,-2.390759 -6.375,-4.75 0.973822,-2.515706 1.461511,-3.739441 3.9375,-4.9375 2.0625,-0.0625 2.0625,-0.0625 3.8125,1.375 0.61875,0.773437 0.61875,0.773437 1.25,1.5625 0.66,-0.33 1.32,-0.66 2,-1 -0.804375,-0.556875 -1.60875,-1.11375 -2.4375,-1.6875 -2.5625,-2.3125 -2.5625,-2.3125 -3.5625,-4.75 0,-3.3572831 0.99217,-4.9092961 3,-7.5625 3,-2 3,-2 6.375,-1.875 z"
       fill="#44220e"
       transform="translate(108.375,244.125)"
       id="path18" /><path
       d="M 0,0 C 2.3569495,0.09031574 4.7115358,0.24688128 7.0625,0.4375 8.3528516,0.53933594 9.6432031,0.64117187 10.972656,0.74609375 12.471191,0.87177734 12.471191,0.87177734 14,1 13.67,2.98 13.34,4.96 13,7 10.69,7 8.38,7 6,7 c 0,0.66 0,1.32 0,2 1.98,0 3.96,0 6,0 1.125,4.75 1.125,4.75 0,7 -1.98,0 -3.96,0 -6,0 0,0.66 0,1.32 0,2 1.98,0 3.96,0 6,0 0,2.31 0,4.62 0,7 -6.93,-0.495 -6.93,-0.495 -14,-1 0.1401104,-3.812791 0.2868044,-7.625126 0.4375,-11.4375 0.039316,-1.088613 0.078633,-2.177227 0.1191406,-3.2988281 0.041895,-1.0344727 0.083789,-2.0689453 0.1269532,-3.1347657 0.036658,-0.9583373 0.073315,-1.9166748 0.1110839,-2.9040527 C -1,1 -1,1 0,0 Z"
       fill="#44220e"
       transform="translate(138,252)"
       id="path19" /><path
       d="M 0,0 C 3.2846687,0.75450415 5.8176836,1.8807303 8.75,3.5625 9.5492188,4.0175391 10.348437,4.4725781 11.171875,4.9414062 11.775156,5.2907422 12.378438,5.6400781 13,6 11.25,10.875 11.25,10.875 9,12 6.9685536,11.065535 4.9646641,10.067752 3,9 c 1.6341244,1.708403 2.8690609,2.93453 5,4 -0.5060399,2.168743 -0.9998381,3.999676 -2,6 -4.75,-1.875 -4.75,-1.875 -7,-3 0,0.99 0,1.98 0,3 2.475,0.99 2.475,0.99 5,2 -0.99,2.475 -0.99,2.475 -2,5 -3.6703474,0 -5.0999431,-1.075289 -8.1875,-3 C -7.0885547,22.443125 -7.9896094,21.88625 -8.9179688,21.3125 -9.9485742,20.662812 -9.9485742,20.662812 -11,20 -9.3604742,15.360682 -6.9312895,11.361441 -4.375,7.1875 -3.9547656,6.4946289 -3.5345313,5.8017578 -3.1015625,5.0878906 -2.0710533,3.3898925 -1.0359832,1.6946639 0,0 Z"
       fill="#45210e"
       transform="translate(90,236)"
       id="path20" /><path
       d="m 0,0 c 0.77496826,0.4007373 1.5499365,0.80147461 2.3483887,1.2143555 0.66,0.33 1.32,0.66 2,1 -1.352589,7.8841695 -3.54399355,15.3935335 -6,22.9999995 -1.98,-0.99 -3.96,-1.98 -6,-3 0.092812,-1.175625 0.092812,-1.175625 0.1875,-2.375 -0.061875,-0.86625 -0.12375,-1.7325 -0.1875,-2.625 -2.8073447,-2.297365 -2.8073447,-2.297365 -5.9374997,-1.875 -3.0625,-0.125 -3.0625,-0.125 -5.253907,-2.132812 -0.596836,-0.657422 -1.193671,-1.314844 -1.808593,-1.992188 2.875428,-2.0716643 5.777976,-4.1015679 8.6875,-6.1249995 0.816621,-0.5891016 1.633242,-1.1782032 2.4746091,-1.7851563 C -8.2955078,2.4824219 -8.2955078,2.4824219 -7.0773926,1.644043 -6.3494751,1.130835 -5.6215576,0.61762695 -4.871582,0.08886719 -2.6516113,-0.78564453 -2.6516113,-0.78564453 0,0 Z m -5.6516113,9.2143555 c 0,2.9999995 0,2.9999995 0,2.9999995 z"
       fill="#45210e"
       transform="translate(223.65161,44.785645)"
       id="path21" /><path
       d="M 0,0 C 0.66,0.33 1.32,0.66 2,1 1.625,3.4375 1.625,3.4375 1,6 -1,7 -1,7 -4,7 -2.576875,7.6496875 -2.576875,7.6496875 -1.125,8.3125 2,10 2,10 4,13 3.8572814,16.425245 3.6643237,18.31195 1.25,20.8125 -2.9057942,23.005836 -5.1851164,23.200381 -9.8125,22.0625 -11.390313,21.536562 -11.390313,21.536562 -13,21 c 0.50604,-2.168743 0.999838,-3.999676 2,-6 2.31,0.33 4.62,0.66 7,1 C -6.8577919,13.971239 -6.8577919,13.971239 -9.6875,12.8125 -12,11 -12,11 -12.5625,7.5625 -12,4 -12,4 -10.5,1.5625 -6.8185549,-0.7384032 -4.3063183,-0.34728373 0,0 Z"
       fill="#44210e"
       transform="translate(155,21)"
       id="path22" /><path
       d="m 0,0 c 0.33,1.98 0.66,3.96 1,6 -1.98,0.33 -3.96,0.66 -6,1 0,0.66 0,1.32 0,2 3.465,-0.495 3.465,-0.495 7,-1 0.33,1.65 0.66,3.3 1,5 -1.65,0.66 -3.3,1.32 -5,2 0,0.33 0,0.66 0,1 1.65,-0.33 3.3,-0.66 5,-1 0.66,1.98 1.32,3.96 2,6 -1.6025611,0.505122 -3.2071179,1.003916 -4.8125,1.5 -0.89332031,0.278437 -1.7866406,0.556875 -2.7070313,0.84375 C -5,24 -5,24 -8,24 c -0.8678228,-3.100514 -1.7168677,-6.205867 -2.5625,-9.3125 -0.246855,-0.881074 -0.493711,-1.762148 -0.748047,-2.669922 -0.228808,-0.847558 -0.457617,-1.695117 -0.693359,-2.5683592 C -12.32597,8.2787903 -12.32597,8.2787903 -12.654541,7.0847168 -13,5 -13,5 -12,2 -7.6896452,0.65743047 -4.5221835,0 0,0 Z"
       fill="#44210e"
       transform="translate(128,23)"
       id="path23" /><path
       d="M 0,0 C 2.97,0.495 2.97,0.495 6,1 5.34,2.98 4.68,4.96 4,7 4.66,7.33 5.32,7.66 6,8 6.33,6.35 6.66,4.7 7,3 c 1.98,0.66 3.96,1.32 6,2 -0.66,1.98 -1.32,3.96 -2,6 0.66,0 1.32,0 2,0 0.66,-1.65 1.32,-3.3 2,-5 1.65,0.66 3.3,1.32 5,2 -0.664984,4.388893 -2.187577,7.981149 -4,12 C 9.0600135,17.838365 2.5688243,15.106379 -4,12 -3.4566021,7.4354575 -2.2053618,4.0271824 0,0 Z"
       fill="#44210e"
       transform="translate(35,91)"
       id="path24" /><path
       d="M 0,0 C 3.1114129,1.6437653 5.2889372,3.0303689 7.375,5.875 8.1875686,8.6377331 8.130104,11.137711 8,14 3.375,16.125 3.375,16.125 0,15 0.20625,14.401875 0.4125,13.80375 0.625,13.1875 1.3067191,10.715492 1.3067191,10.715492 -1,8 -3.5420797,7.6665645 -3.5420797,7.6665645 -6,8 -7.4157748,9.1842433 -7.4157748,9.1842433 -7.0625,12.5625 -7.041875,13.696875 -7.02125,14.83125 -7,16 c 0.66,0 1.32,0 2,0 0,0.66 0,1.32 0,2 -3.96,0.495 -3.96,0.495 -8,1 -2.247439,-3.8565 -2.202702,-6.474359 -1.617188,-10.8085937 C -13.66446,4.8086188 -11.71321,3.1176275 -9,1 -5.8904662,-0.5547669 -3.4373324,-0.28644437 0,0 Z"
       fill="#44220e"
       transform="translate(267,110)"
       id="path25" /><path
       d="M 0,0 C 0.84114171,1.432945 1.6726569,2.871544 2.5,4.3125 2.9640625,5.1130078 3.428125,5.9135156 3.90625,6.7382812 5,9 5,9 5,12 2.75,12.75 2.75,12.75 0,13 -2.3125,11.0625 -2.3125,11.0625 -4,9 c 0.66,1.98 1.32,3.96 2,6 -1.65,0.66 -3.3,1.32 -5,2 -0.99,-1.32 -1.98,-2.64 -3,-4 0.33,1.98 0.66,3.96 1,6 -1.65,0.66 -3.3,1.32 -5,2 -0.844436,-1.242527 -1.675146,-2.494389 -2.5,-3.75 -0.464062,-0.696094 -0.928125,-1.392187 -1.40625,-2.109375 C -19,13 -19,13 -19,9 -16.400114,7.4921262 -13.795598,5.9935454 -11.1875,4.5 -10.449512,4.0707422 -9.7115234,3.6414844 -8.9511719,3.1992188 -8.2389648,2.7931641 -7.5267578,2.3871094 -6.7929687,1.96875 -6.1383667,1.5916992 -5.4837647,1.2146484 -4.8093262,0.82617188 -3,0 -3,0 0,0 Z"
       fill="#44220e"
       transform="translate(260,83)"
       id="path26" /><path
       d="M 0,0 C 0.66,1.65 1.32,3.3 2,5 0.68,6.32 -0.64,7.64 -2,9 -1.38125,8.505 -0.7625,8.01 -0.125,7.5 2,6 2,6 4,6 c 2,3 2,3 2,6 -1.5,1.6875 -1.5,1.6875 -3,3 1.98,-0.99 3.96,-1.98 6,-3 0.99,1.65 1.98,3.3 3,5 C 7.545,20.465 7.545,20.465 3,24 -1.3426555,21.828672 -3.418006,19.328887 -6.25,15.5625 -6.9383594,14.683682 -6.9383594,14.683682 -7.640625,13.787109 -11,9.3829288 -11,9.3829288 -11,6 -9.3554688,4.3945312 -9.3554688,4.3945312 -7.1875,2.8125 -6.4798047,2.2826953 -5.7721094,1.7528906 -5.0429687,1.2070312 -3,0 -3,0 0,0 Z"
       fill="#44220e"
       transform="translate(80,43)"
       id="path27" /><path
       d="M 0,0 C 1.65,0 3.3,0 5,0 6,1 6,1 6.0625,4.0625 6.041875,5.031875 6.02125,6.00125 6,7 6.66,7 7.32,7 8,7 8,5.02 8,3.04 8,1 c 2.97,0.495 2.97,0.495 6,1 0,1.98 0,3.96 0,6 2.64,0 5.28,0 8,0 -0.33,2.31 -0.66,4.62 -1,7 C 17.874634,14.861422 14.749818,14.712904 11.625,14.5625 10.735547,14.523184 9.8460938,14.483867 8.9296875,14.443359 8.0789062,14.401465 7.228125,14.35957 6.3515625,14.316406 5.56604,14.279749 4.7805176,14.243091 3.9711914,14.205322 2,14 2,14 0,13 0,8.71 0,4.42 0,0 Z"
       fill="#44210e"
       transform="translate(22,132)"
       id="path28" /><path
       d="m 0,0 c 1.32,0.66 2.64,1.32 4,2 0,2.3333333 0,4.6666667 0,7 1.4627057,1.864966 1.4627057,1.864966 3.375,3.625 0.6264844,0.611016 1.2529688,1.222031 1.8984375,1.851563 C 10.9362,16.074948 10.9362,16.074948 13,17 c 0,0.99 0,1.98 0,3 -2.5,1.6875 -2.5,1.6875 -5,3 C 7.3013281,22.289727 6.6026562,21.579453 5.8828125,20.847656 4.9727344,19.928555 4.0626562,19.009453 3.125,18.0625 2.2200781,17.145977 1.3151562,16.229453 0.3828125,15.285156 -1.7768225,12.988124 -1.7768225,12.988124 -4,12 c 0,0.66 0,1.32 0,2 -2.1687425,-0.50604 -3.9996763,-0.999838 -6,-2 C -8.5227858,8.5479836 -6.56206,6.3503806 -3.875,3.75 -3.1505469,3.0435938 -2.4260938,2.3371875 -1.6796875,1.609375 -1.1253906,1.0782812 -0.57109375,0.5471875 0,0 Z"
       fill="#44210e"
       transform="translate(65,52)"
       id="path29" /><path
       d="M 0,0 C 0.50612064,2.8740422 1.0050654,5.7490287 1.5,8.625 1.6430859,9.4332422 1.7861719,10.241484 1.9335937,11.074219 2.6787625,15.438779 3.1727231,19.552381 3,24 0.69,24.33 -1.62,24.66 -4,25 -6.2961276,13.47836 -6.2961276,13.47836 -6,8 -7.32,8 -8.64,8 -10,8 -10.33,6.02 -10.66,4.04 -11,2 -9.5422647,1.664061 -8.0837889,1.3313338 -6.625,1 -5.4068359,0.7215625 -5.4068359,0.7215625 -4.1640625,0.4375 -2,0 -2,0 0,0 Z"
       fill="#44210e"
       transform="translate(172,250)"
       id="path30" /><path
       d="M 0,0 C 7.4023965,-0.12886183 14.639591,0.20274098 22,1 21.67,3.31 21.34,5.62 21,8 14.07,7.67 7.14,7.34 0,7 -1.3333209,4.3333581 -0.67102033,2.833197 0,0 Z"
       fill="#44210e"
       transform="translate(256,154)"
       id="path31" /><path
       d="M 0,0 C 0.86625,0.5259375 0.86625,0.5259375 1.75,1.0625 4.4138678,2.1724449 5.3342834,1.9458994 8,1 8.99,0.67 9.98,0.34 11,0 c -0.33,2.31 -0.66,4.62 -1,7 0.99,0.66 1.98,1.32 3,2 0,0.66 0,1.32 0,2 -1.98,0 -3.96,0 -6,0 C 6.67,12.65 6.34,14.3 6,16 5.34,16 4.68,16 4,16 3.67,14.35 3.34,12.7 3,11 0.03,10.505 0.03,10.505 -3,10 -2.34,9.01 -1.68,8.02 -1,7 -0.34,7 0.32,7 1,7 0.67,4.69 0.34,2.38 0,0 Z"
       fill="#45200e"
       transform="translate(45,208)"
       id="path32" /><path
       d="M 0,0 C 1.98,0.66 3.96,1.32 6,2 6.66,1.34 7.32,0.68 8,0 c 0.99,0.33 1.98,0.66 3,1 -0.33,1.65 -0.66,3.3 -1,5 0.99,0.66 1.98,1.32 3,2 0,0.66 0,1.32 0,2 -1.175625,0.09281 -1.175625,0.09281 -2.375,0.1875 C 9.75875,10.455625 8.8925,10.72375 8,11 6.6253337,13.47636 6.6253337,13.47636 6,16 4,15 4,15 3,12 0.03,11.505 0.03,11.505 -3,11 -2.67,10.01 -2.34,9.02 -2,8 -1.34,7.67 -0.68,7.34 0,7 0,4.69 0,2.38 0,0 Z"
       fill="#44220e"
       transform="translate(244,207)"
       id="path33" /></g></svg>
