<svg xmlns="http://www.w3.org/2000/svg" width="24" height="24"><path fill="#4b5360" fill-rule="evenodd" d="M12.67 5.14c-.21.08-.47.22-.57.31-.44.4-.62 1.22-.4 1.8.11.3.68.85.88.85q.11.01.07.1c-.03.06-.17.1-.3.1-.38 0-1 .68-1.08 1.16-.2 1.22.74 2.12 1.98 1.88.45-.08 1.14-.7 1.17-1.05 0-.13.04.03.07.36l.06.6.99.03c.92.03 1 .01 1.32-.23.66-.5.83-1.33.43-2.05-.33-.59-.67-.72-1.79-.68l-.95.03-.06.6c-.03.33-.06.52-.07.42-.03-.3-.4-.76-.8-.96l-.35-.18.35-.07c.2-.04.48-.16.62-.27.3-.24.6-.75.5-.9-.12-.2-.74-.06-.74.17 0 .2-.33.34-.8.34-.86 0-1.22-.9-.6-1.52.28-.27.36-.3.73-.25q.42.06.62.31c.2.25.68.36.79.18.08-.14-.18-.54-.54-.83a1.6 1.6 0 0 0-1.53-.25M3 6.65V8.2h.8c.46 0 .95-.06 1.13-.14.4-.16.87-.7.88-1q.01-.16.1.2c.05.23.21.52.35.65.22.2.36.24.94.24.62 0 .72-.03 1-.3l.3-.29V5.1h-.58l-.04 1.1a4 4 0 0 1-.14 1.2c-.07.07-.28.13-.47.15-.56.05-.66-.14-.7-1.35l-.02-1.05h-.3c-.3 0-.3 0-.36.65-.03.36-.06.56-.07.45-.03-.3-.36-.74-.71-.96-.25-.15-.5-.19-1.21-.19H3zm5.68-.09c-.02.8 0 1.5.03 1.56.04.05.17.08.3.06.23-.03.24-.07.29-.98l.05-.95.8.98c.66.81.83.97 1.07.97h.28V5.09l-.32.03-.33.03-.03.93-.03.94-.76-.96c-.64-.8-.81-.96-1.04-.96H8.7zm6.92-1.14-.26.63c-.82 1.94-.87 2.15-.51 2.15q.44.01.48-.35c.04-.17.13-.2.7-.23.65-.03.66-.02.79.28.1.24.19.3.41.3q.29 0 .29-.15c0-.14-.41-1.3-.6-1.7l-.28-.7c-.18-.46-.23-.5-.54-.53s-.36 0-.48.3m2.07-.25c-.1.1-.08 2.76.02 2.91.04.08.19.12.32.1.23-.03.24-.07.29-.96l.05-.93.75.93c.65.8.8.93 1.05.93h.3v-3h-.6l-.05.93-.05.93-.75-.95c-.6-.76-.8-.96-1-.96-.15 0-.3.03-.33.07M3.7 6.6v.9h.53c.69 0 .89-.2.89-.87q0-.94-.98-.93H3.7zm12.17-.16c-.1.27-.17.51-.17.53s.16.03.35.03c.4 0 .42-.08.17-.65l-.18-.4zm-8.74 2c-.25.18-.34.59-.2.97.08.25.06.33-.12.52-.3.33-.26.92.1 1.18.35.27.91.33 1.27.15q.3-.14.4-.05c.05.05.28.08.52.06l.42-.03-.22-.28c-.17-.21-.2-.31-.11-.4.06-.06.11-.33.11-.59 0-.47 0-.48-.3-.48-.26 0-.3.04-.3.28q0 .69-.4.27c-.2-.22-.21-.25-.06-.3.1-.05.24-.2.32-.37.13-.25.13-.35.03-.6a1 1 0 0 0-.3-.38c-.27-.15-.92-.12-1.16.05m1.54-.07c-.03.04 0 .17.04.3.07.19.16.22.6.22h.5l-.02 1.18-.03 1.17h.69v-2.3l.5-.05c.46-.05.5-.07.53-.32l.03-.28h-1.4c-.77 0-1.42.03-1.44.07m8.95 1.4.03 1.48 1 .03 1.02.03.44-.4.44-.39V9.8c0-.71 0-.72-.42-1.1l-.42-.4h-2.12zm-5.36-.66c-.22.17-.26.28-.26.69s.04.52.26.7c.38.29.94.27 1.24-.05.34-.36.32-1-.04-1.32a.94.94 0 0 0-1.2-.02m2.94.69v.9h.54c.77 0 1-.2 1-.9s-.23-.9-1-.9h-.54zm3.15 0v.9h.53q1.03 0 1.02-.9 0-.9-1.02-.9h-.53zm-11.05.65c0 .22.04.25.37.25h.36l-.23-.25c-.13-.14-.3-.25-.37-.25q-.12.01-.13.25m13.04.4c-.1.27.04.45.36.45.27 0 .3-.03.3-.3s-.03-.3-.3-.3c-.18 0-.33.06-.36.15M6.72 12.02q-.27.26.1.53l.23.17-.22-.07q-.24-.07-.23.09c0 .13.17.15 1.05.14.81 0 1.05-.04 1.05-.14q.01-.13.15-.14.13.02.15.15.01.14.14.15.15 0 .19-.37l.04-.38.01.38c.03.5.32.53.32.03 0-.2.05-.38.1-.41.16-.1.01-.25-.25-.25q-.53.01-.55.26-.02.13-.15.14a.15.15 0 0 1-.15-.16q-.01-.14-.17-.13c-.1.02-.28 0-.4-.05-.13-.04-.28-.04-.35 0-.18.12-.68.13-.68.03 0-.13-.24-.11-.38.03m5.08-.03q-.01.08-.18.07t-.15.19c.01.19 0 .19-.17-.02-.23-.3-.4-.3-.4 0v.21l-.16-.22c-.2-.28-.28-.28-.42 0-.29.6-.27.64.33.65.45.01.55-.02.55-.15q-.02-.23.14 0c.16.21.95.25 1.14.06.18-.18.15-.53-.06-.71s-.62-.23-.62-.08m1.97-.02c-.04.03-.07.26-.07.5v.42l.8-.01c.48 0 .8-.05.8-.12q0-.09.12.02c.07.07.3.12.5.12.29 0 .38-.04.38-.17 0-.15.01-.15.18 0q.34.31.32 0c0-.15.01-.15.13 0q.14.2.42.15c.26-.03.3-.08.33-.36.06-.59-.41-.84-.72-.4q-.18.27-.16.05 0-.16-.1-.17-.09.02-.1.23v.22l-.18-.23a.5.5 0 0 0-.48-.21 2 2 0 0 1-.46-.05q-.38-.19-.39.42v.37l-.13-.34q-.24-.71-.53-.07c-.09.2-.24.36-.32.36q-.2.02-.01-.1c.13-.09.13-.11 0-.2s-.13-.12.03-.2q.16-.12.12-.2c-.07-.11-.38-.13-.48-.03m4.37.18c-.13.2-.14.31-.06.49.1.22.14.23 1.46.23.75 0 1.36-.03 1.36-.07q-.02-.08-.17-.13-.26-.05 0-.06.16-.01.17-.1-.02-.1-.17-.2c-.17-.1-.17-.1 0-.1q.16-.02.17-.11c0-.16-.3-.24-.42-.12q-.1.1-.3-.01c-.24-.15-.53.02-.52.32 0 .28-.14.27-.18 0-.05-.35-.27-.34-.41 0-.08.18-.18.33-.23.33l-.22.06c-.18.07-.36-.13-.29-.33q.06-.15.32-.1c.27.08.33-.03.13-.23s-.46-.14-.64.13m-5.24.14c0 .16-.03.36-.06.45q-.07.17.15.16.2 0 .21-.15t.1-.15q.1.02.1.15 0 .14.1.15c.06 0 .1-.2.1-.45s-.04-.45-.1-.45q-.09.02-.1.15 0 .13-.1.15-.1-.02-.1-.15a.15.15 0 0 0-.15-.15q-.15 0-.15.3"/></svg>