<?xml version="1.0" encoding="UTF-8" standalone="no"?>
<svg
   viewBox="0 0 24 24"
   width="24pt"
   height="24pt"
   version="1.1"
   id="svg1"
   xml:space="preserve"
   xmlns="http://www.w3.org/2000/svg"
   xmlns:svg="http://www.w3.org/2000/svg"><defs
     id="defs1"><clipPath
       id="_clipPath_E3TOXdWodoOJUKSuCIxRR4D9BQLGUMcT"><rect
         width="24"
         height="24"
         id="rect1" /></clipPath></defs><path
     d="M 6.6984953,11.128454 C 6.4455176,10.808502 6.096858,10.620834 5.6624933,10.573459 H 4.9510596 a 0.58029926,0.51869441 0 0 0 -0.5775465,0.516539 v 1.506243 c 0,0.286114 0.2577965,0.516543 0.5775465,0.516543 h 0.7114337 c 0.4343647,-0.04276 0.7878437,-0.230429 1.036002,-0.550692 0.1576391,-0.226119 0.2340491,-0.452242 0.2340491,-0.716819 0,-0.264578 -0.07641,-0.494696 -0.2340491,-0.716819 z m 1.8045736,-0.60176 c -0.8115934,0 -1.4703666,0.593454 -1.4703666,1.318579 a 1.4710551,1.3148872 0 0 0 1.4703666,1.314273 1.4720877,1.3158101 0 0 0 1.475184,-1.314273 1.4765621,1.3198095 0 0 0 -1.475184,-1.318579 z m 3.2560091,2.449495 -0.773389,-0.878951 v 0.601757 a 0.46775013,0.41809351 0 0 1 -0.467748,0.414098 0.46121058,0.41224821 0 0 1 -0.462935,-0.367026 v -1.753901 c 0,-0.234736 0.209957,-0.418092 0.467752,-0.418092 h 0.04783 c 0.123908,0.0087 0.229228,0.05568 0.310111,0.140902 l 0.773389,0.874951 v -0.597453 c 0.0048,-0.230429 0.209953,-0.418093 0.46775,-0.418093 0.23852,0 0.434364,0.158128 0.463274,0.371332 v 1.753898 c 0,0.230428 -0.209952,0.418095 -0.46775,0.418095 -0.01447,0 -0.02857,0 -0.04783,-0.0043 -0.12425,-0.0092 -0.229228,-0.05165 -0.310457,-0.137176 z m 3.666624,-2.031092 v 1.198902 c -0.06678,0.58453 -0.610932,1.015854 -1.265232,1.015854 -0.654299,0 -1.193639,-0.431016 -1.26523,-1.015854 v -1.198902 a 0.465685,0.41624764 0 0 1 0.463274,-0.371331 c 0.24334,0 0.438838,0.15813 0.467752,0.371331 v 1.109376 a 0.33454974,0.29903377 0 0 0 0.334204,0.2815 0.33145207,0.29626493 0 0 0 0.334208,-0.2815 v -1.109376 c 0.02857,-0.213201 0.229226,-0.371331 0.467747,-0.371331 0.238522,0 0.439527,0.157821 0.463277,0.371331 z m 2.429615,0.874639 c 0.148345,0.140907 0.315275,0.226124 0.520412,0.273197 0.05747,0.01292 0.100502,0.02123 0.157637,0.02985 0.0382,0.0087 0.0716,0.01725 0.109796,0.03015 0.01929,0.01261 0.0382,0.02123 0.05231,0.03846 a 0.11599101,0.10367735 0 0 1 0.02857,0.0683 v 0.01261 c 0,0.03415 -0.0141,0.05969 -0.04303,0.08983 a 0.11427008,0.10213912 0 0 1 -0.08123,0.02986 c -0.0048,0 -0.01447,-0.0043 -0.01929,-0.0043 a 0.47566641,0.42516943 0 0 1 -0.133545,-0.03845 1.0015841,0.89525539 0 0 1 -0.147999,-0.05968 0.50836417,0.45439596 0 0 1 -0.128727,-0.0683 0.33627068,0.300572 0 0 0 -0.353137,-0.01292 0.40304297,0.36025571 0 0 0 -0.195841,0.21351 0.43642906,0.39009754 0 0 0 -0.01894,0.119366 c 0,0.123676 0.05265,0.230429 0.152818,0.311648 0.252978,0.196279 0.534868,0.294419 0.868729,0.294419 0.01446,0 0.02857,0 0.04303,-0.0043 h 0.0093 a 0.92414202,0.8260346 0 0 0 0.878707,-0.537769 c 0.04785,-0.106753 0.0716,-0.204584 0.0716,-0.319951 0,-0.162132 -0.04302,-0.302727 -0.138363,-0.443628 a 0.82811391,0.74020087 0 0 0 -0.310116,-0.273157 1.785298,1.5957698 0 0 0 -0.209954,-0.09414 c -0.126659,-0.04646 -0.248847,-0.07045 -0.382047,-0.106754 a 0.27569377,0.24642599 0 0 1 -0.08604,-0.03384 0.12356312,0.11044561 0 0 1 -0.04784,-0.08123 0.11358171,0.10152382 0 0 1 0.06196,-0.09414 0.12803754,0.11444501 0 0 1 0.06678,-0.02123 c 0.05748,0 0.105321,0.01292 0.15282,0.03845 0.08088,0.04276 0.152474,0.07691 0.243338,0.106754 a 0.48943391,0.43747537 0 0 0 0.281546,0.01292 c 0.109795,-0.04277 0.191023,-0.115372 0.224409,-0.222125 0.0093,-0.02552 0.0093,-0.05108 0.0093,-0.0766 0,-0.115367 -0.05714,-0.213512 -0.157637,-0.277498 a 1.1547474,1.0321588 0 0 0 -0.386524,-0.166131 1.1850358,1.0592317 0 0 0 -0.367589,-0.05138 1.1323752,1.0121616 0 0 0 -0.334207,0.04276 0.77132304,0.68943896 0 0 0 -0.390995,0.217202 0.83017901,0.74204677 0 0 0 -0.234046,0.529464 c 4.25e-4,0.204585 0.07675,0.379635 0.234046,0.528844 z m -1.861706,-0.413784 h 0.104977 z m 0.104977,0 v 1.339809 a 0.46121058,0.41224821 0 0 0 0.462931,0.367023 c 0.257797,0 0.463275,-0.183667 0.467749,-0.414097 v -1.293043 h 0.100157 c 0.25814,0 0.467751,-0.187664 0.467751,-0.414095 0,-0.230427 -0.209954,-0.41809 -0.467751,-0.41809 h -1.13616 a 0.46465242,0.41532468 0 0 0 -0.463275,0.41809 c 0,0.226124 0.20548,0.414095 0.463275,0.414095 h 0.105323 z"
     fill="#cb0879"
     id="path3942"
     style="stroke-width:0.325404" /><path
     fill="#e0912f"
     d="M 5.0115654,8.5805672 V 7.2195302 Z M 6.3839252,6.7985613 C 6.1357263,6.3050606 5.7936471,6.0158827 5.3674863,5.9433501 H 4.6694872 c -0.3137115,0 -0.5666384,0.3550739 -0.5666384,0.7959533 v 2.3210162 c 0,0.4404054 0.2529269,0.7954786 0.5666384,0.7954786 H 5.3674863 C 5.7936471,9.789905 6.1404533,9.500725 6.3839251,9.0010609 6.5385869,8.6587885 6.6135529,8.3103499 6.6135529,7.9031312 A 1.4047784,1.9721056 0 0 0 6.3839252,6.7985613 Z M 5.6251424,8.2975501 A 0.47985346,0.67364468 0 0 1 5.3067038,8.5805672 H 5.0115654 v -1.361037 h 0.2856832 c 0.1404776,0.039349 0.2434718,0.1379527 0.3278938,0.2891786 0.056055,0.1246788 0.079695,0.2493581 0.079695,0.3944224 0,0.1445891 -0.028022,0.2692682 -0.079695,0.3944189 z m 1.2133101,0.065889 V 6.5155435 Z m 0,-1.8479003 a 0.45317619,0.63619364 0 0 1 0.4541872,-0.57219 c 0.239085,0 0.4308911,0.2436703 0.4589192,0.5721947 V 8.218855 c 0.00948,0.2493583 0.1499329,0.4404053 0.3278948,0.4404053 0.177959,0 0.3184387,-0.1905734 0.3278939,-0.4404053 V 6.515545 A 0.45790374,0.64283051 0 0 1 8.8662628,5.9433501 c 0.2343568,0 0.4308899,0.2436703 0.4545275,0.5721949 V 8.3629736 A 1.2410004,1.7421843 0 0 1 8.0794537,9.9278587 1.2410004,1.7421843 0 0 1 6.8381153,8.3629736 V 6.515545 Z M 11.601867,5.9433432 c -0.2482,0 -0.454188,0.2891785 -0.454188,0.6442523 V 7.5082331 L 10.384167,6.1604698 a 0.42210887,0.59257974 0 0 0 -0.304255,-0.217121 h -0.04693 A 0.45587763,0.63998614 0 0 0 9.5740652,6.5814387 V 9.2907136 A 0.45587763,0.63998614 0 0 0 10.028252,9.8557964 0.45587763,0.63998614 0 0 0 10.48717,9.2181804 V 8.2909137 l 0.758785,1.3544022 c 0.09759,0.1450609 0.218819,0.2171214 0.35592,0.2171214 a 0.45587763,0.63998614 0 0 0 0.45419,-0.6442542 V 6.515545 A 0.45317619,0.63619364 0 0 0 11.601871,5.9433501 Z m 6.384314,3.7024381 -0.758785,-1.3548742 z m 0,0 c 0.09759,0.1450636 0.219834,0.2171204 0.355923,0.2171204 0.252927,0 0.458914,-0.2891782 0.458914,-0.6442514 V 6.515545 A 0.45655302,0.64093429 0 0 0 18.346831,5.9433501 c -0.252929,0 -0.458918,0.2891787 -0.458918,0.6442523 V 7.5082346 L 17.128794,6.1604712 C 17.031541,6.0087711 16.915036,5.9433501 16.772871,5.9433501 a 0.45587763,0.63998614 0 0 0 -0.458917,0.6380901 v 2.7092743 a 0.45587763,0.63998614 0 0 0 0.454527,0.5650837 0.45587763,0.63998614 0 0 0 0.458915,-0.6376151 V 8.2909137 Z M 13.325422,9.2181804 A 0.45587763,0.63998614 0 0 1 12.866506,9.8557964 0.45587763,0.63998614 0 0 1 12.412317,9.2907136 V 6.5880768 c 0,-0.3550738 0.205988,-0.6442524 0.458916,-0.6442524 0.247862,0 0.454189,0.2891786 0.454189,0.6442524 v 0.920632 l 0.763511,-1.3681481 c 0.08882,-0.1313153 0.196871,-0.1972106 0.327894,-0.1972106 0.252929,0 0.45419,0.2891787 0.45419,0.6442523 0,0.151226 -0.02803,0.2763798 -0.09354,0.394422 l -0.538612,0.8812842 0.538612,0.9595052 c 0.06551,0.1185165 0.09354,0.2436685 0.09354,0.3948957 a 0.45587763,0.63998614 0 0 1 -0.45419,0.6442532 c -0.13136,0 -0.239081,-0.065893 -0.327894,-0.1976851 L 13.325422,8.2966022 Z m 1.775222,0.072528 V 6.5880768 c 0,-0.3550738 0.201261,-0.6442524 0.454188,-0.6442524 0.252929,0 0.45453,0.2891786 0.45453,0.6442524 v 2.6301063 c 0,0.3550732 -0.201601,0.6376151 -0.45453,0.6376151 A 0.45250075,0.6352455 0 0 1 15.100644,9.2907145 Z M 19.897151,6.51554 V 6.469553 c 0,-0.3289995 -0.187416,-0.5982676 -0.426498,-0.5982676 -0.234018,0 -0.426161,0.2692681 -0.426161,0.5982676 l 0.009,0.6840747 c 0.03749,0.2564691 0.192146,0.4271313 0.379562,0.4271313 0.182689,0 0.33701,-0.1706622 0.379222,-0.4271313 z"
     id="path3944"
     style="stroke-width:0.400107" /></svg>
