<?xml version="1.0" encoding="UTF-8" standalone="no"?>
<svg
   viewBox="0 0 24 24"
   width="24pt"
   height="24pt"
   version="1.1"
   id="svg1"
   xml:space="preserve"
   xmlns="http://www.w3.org/2000/svg"
   xmlns:svg="http://www.w3.org/2000/svg"><defs
     id="defs1" /><g
     id="g1"
     transform="matrix(0.01306725,0,0,0.01306725,3.2599123,6.5069913)"><path
       d="m 1122.053,128.528 c -22.138,4.006 -39.441,15.531 -47.498,31.635 -4.573,9.141 -5.891,16.176 -5.342,28.516 0.402,9.033 0.836,10.981 3.792,17.011 4.058,8.278 12.193,16.577 20.522,20.937 8.698,4.553 19.216,7.733 43.973,13.293 23.722,5.329 28.68,6.823 35.087,10.578 5.065,2.968 7.413,7.541 7.413,14.435 0,6.871 -1.873,10.947 -7.078,15.402 -6.591,5.642 -14.898,7.92 -28.922,7.932 -23.661,0.019 -41.344,-8.072 -53.801,-24.619 l -2.147,-2.851 -14.526,10.151 c -7.989,5.583 -14.526,10.553 -14.526,11.045 0,2.074 10.144,13.905 16.079,18.751 8.541,6.976 22.155,13.651 34.421,16.875 12.199,3.207 35.388,4.356 48.712,2.414 34.022,-4.96 56.558,-23.853 59.931,-50.241 3.593,-28.117 -9.963,-47.93 -39.613,-57.893 -4.454,-1.497 -18.334,-5.023 -30.843,-7.835 -24.806,-5.577 -32.183,-7.928 -36.636,-11.674 -5.81,-4.889 -6.61,-15.346 -1.67,-21.823 1.508,-1.977 5.292,-4.749 8.874,-6.501 22.263,-10.891 50.919,-3.729 65.245,16.308 2.2,3.077 4.54,5.399 5.201,5.16 0.66,-0.238 7.292,-5.007 14.737,-10.597 l 13.537,-10.164 -2.196,-3.136 c -1.207,-1.725 -4.914,-5.866 -8.237,-9.201 -12.923,-12.97 -29.704,-21.581 -47.542,-24.395 -8.872,-1.4 -27.905,-1.149 -36.947,0.487 M 119,224.444 V 317 l 37.25,-0.008 c 49.067,-0.011 58.77,-1.161 75.25,-8.922 15.754,-7.418 26.429,-17.954 34.016,-33.57 8.153,-16.783 11.59,-38.82 9.522,-61.045 C 273.545,197.414 270.9,187.509 264.77,175 c -4.524,-9.232 -6.3,-11.658 -14.708,-20.085 -7.858,-7.877 -11.077,-10.331 -18.062,-13.768 -17.491,-8.607 -16.669,-8.499 -67.75,-8.902 L 119,131.888 v 92.556 m 191,-23.993 c 0,45.781 0.363,70.206 1.097,73.75 0.603,2.914 2.604,8.449 4.445,12.299 8.147,17.033 24.465,28.401 47.451,33.059 10.527,2.133 37.253,1.547 46.507,-1.019 22.659,-6.285 40.387,-21.631 46.749,-40.468 2.196,-6.501 2.223,-7.32 2.53,-76.322 L 459.089,132 H 441.61 424.131 l -0.356,64.25 c -0.33,59.56 -0.491,64.633 -2.216,69.496 -2.528,7.13 -7.421,12.529 -14.609,16.121 -8.277,4.136 -15.684,5.494 -26.45,4.848 -15.916,-0.954 -25.787,-6.49 -31.189,-17.491 L 346.5,263.5 346.222,197.75 345.945,132 H 327.972 310 v 68.451 M 509,224.5 V 317 h 16 16 V 252.766 188.532 L 581.064,252.766 621.128,317 H 636.564 652 V 224.5 132 H 636.507 621.015 L 620.757,195.382 620.5,258.765 580.666,195.382 540.832,132 H 524.916 509 v 92.5 m 193,-0.025 V 317 h 15.993 15.992 l 0.258,-63.937 0.257,-63.936 39.852,63.936 L 814.205,317 H 829.602 845 V 224.5 132 H 829.507 814.015 L 813.757,195.291 813.5,258.582 773.885,195.541 734.269,132.5 718.135,132.225 702,131.95 v 92.525 M 894,224.5 V 317 h 69 69 V 301 285 H 980.5 929 v -24 -24 h 44.5 44.5 V 221.5 206 H 973.5 929 V 184.5 163 h 48.5 48.5 V 147.5 132 h -66 -66 v 92.5 M 154,224.404 V 285 l 12.75,-10e-4 c 40.976,-0.003 56.709,-5.873 65.325,-24.376 5.602,-12.031 7.51,-35.03 4.416,-53.242 -2.671,-15.722 -11.173,-29.58 -22.071,-35.977 -10.093,-5.924 -14.239,-6.702 -38.17,-7.166 L 154,163.807 v 60.597 m 610,136.531 c -15.253,4.657 -22.825,18.183 -17.11,30.565 3.652,7.914 11.197,12.049 29.192,15.999 6.28,1.379 12.671,3.017 14.202,3.639 4.361,1.774 6.716,5.501 6.716,10.629 0,9.781 -7.656,15.566 -20.599,15.566 -10.343,0 -15.901,-2.908 -19.651,-10.283 -1.513,-2.975 -2.75,-6.453 -2.75,-7.729 0,-1.969 -0.511,-2.321 -3.375,-2.321 -1.856,0 -4.81,0.287 -6.565,0.638 -3.114,0.623 -3.173,0.734 -2.504,4.75 2.284,13.695 12.921,22.823 28.541,24.492 13.147,1.405 24.438,-1.213 31.697,-7.348 8.87,-7.497 10.699,-22.518 3.869,-31.77 -3.903,-5.286 -8.881,-7.673 -24.239,-11.621 -17.88,-4.596 -21.091,-6.099 -23.052,-10.793 -3.053,-7.308 1.725,-13.43 12.11,-15.516 12.863,-2.583 25.518,4.724 25.518,14.734 0,2.66 0.01,2.663 5.75,1.953 3.163,-0.392 5.907,-0.863 6.099,-1.048 0.192,-0.185 0.044,-2.143 -0.329,-4.352 -1.44,-8.526 -9.449,-16.788 -19.082,-19.688 -5,-1.505 -20.128,-1.812 -24.438,-0.496 m 149,0.496 c -18.496,5.147 -29,20.384 -29,42.069 0,29.161 19.858,46.921 48.5,43.375 18.857,-2.334 31.719,-15.933 34.646,-36.631 3.265,-23.086 -8.124,-42.821 -28.078,-48.656 -6.419,-1.877 -19.601,-1.956 -26.068,-0.157 m 257.173,0.412 c -5.959,2.127 -12.687,7.984 -14.789,12.875 -2.2,5.115 -1.774,14.127 0.871,18.456 4.397,7.196 10.453,10.271 27.963,14.199 14.213,3.189 15.645,3.73 18.782,7.101 1.953,2.099 2.5,3.747 2.5,7.533 0,5.894 -2.363,9.48 -8.505,12.91 -7.626,4.258 -22.149,2.871 -28.315,-2.705 -2.502,-2.263 -5.253,-7.846 -6.06,-12.301 l -0.65,-3.589 -4.735,0.779 c -2.604,0.429 -5.297,0.807 -5.985,0.839 -2.25,0.108 -1.338,6.565 1.821,12.886 5.655,11.318 15.428,16.317 31.897,16.317 11.864,0 18.403,-1.957 24.513,-7.335 6.117,-5.385 8.469,-10.502 8.497,-18.493 0.026,-7.433 -0.835,-9.944 -5.066,-14.763 -4.381,-4.989 -9.015,-7.151 -21.664,-10.106 -15.848,-3.703 -19.89,-5.232 -22.718,-8.593 -5.886,-6.995 -1.188,-15.537 9.799,-17.818 13.281,-2.757 24.256,3.008 26.298,13.814 l 0.633,3.349 5.62,-0.696 c 3.091,-0.382 5.774,-0.843 5.963,-1.024 0.188,-0.181 -0.397,-2.873 -1.301,-5.981 -1.982,-6.817 -7.652,-13.404 -14.318,-16.63 -6.601,-3.196 -23.416,-3.75 -31.051,-1.024 M 818,367 v 5 h 12.5 12.5 v 36.5 36.5 h 6 6 V 408.5 372 h 12.5 12.5 v -5 -5 h -31 -31 v 5 m 171,36.436 V 445 h 6 6 V 427.465 409.93 l 10.164,0.285 10.164,0.285 11.086,17.238 11.086,17.238 7.372,0.012 c 5.762,0.009 7.156,-0.261 6.381,-1.238 -2.49,-3.138 -21.253,-32.828 -21.253,-33.631 0,-0.496 1.237,-1.203 2.75,-1.571 1.513,-0.369 4.429,-1.768 6.48,-3.11 10.308,-6.743 11.734,-27.388 2.498,-36.152 -6.924,-6.569 -7.827,-6.755 -34.478,-7.1 L 989,361.871 v 41.565 m 88,0.064 V 445 h 29.5 29.5 v -5 -5 h -24 -24 v -14 -14 h 20.5 20.5 v -5 -5 h -20.5 -20.5 v -11.982 -11.981 l 23.25,-0.269 23.25,-0.268 0.302,-5.25 0.303,-5.25 H 1106.052 1077 v 41.5 M 915.388,371.326 c -12.774,4.818 -18.875,16.367 -18.223,34.495 0.282,7.829 0.841,10.732 2.925,15.185 4.934,10.546 13.135,16.066 24.276,16.342 9.51,0.236 15.29,-1.895 21.231,-7.825 6.884,-6.87 8.903,-12.771 8.903,-26.023 0,-11.923 -1.859,-18.223 -7.228,-24.495 -5.327,-6.224 -11.952,-9.002 -21.272,-8.919 -4.125,0.036 -8.901,0.594 -10.612,1.24 M 1001,386 v 14 l 14.75,-0.022 c 16.852,-0.025 21.875,-1.419 24.684,-6.85 2.185,-4.226 1.979,-10.938 -0.46,-14.938 -3.199,-5.247 -6.846,-6.19 -23.942,-6.19 H 1001 v 14"
       stroke="none"
       fill="#fffcfc"
       fill-rule="evenodd"
       id="path1-0" /><path
       d=""
       stroke="none"
       fill="#fcfcfc"
       fill-rule="evenodd"
       id="path2" /></g></svg>
