<?xml version="1.0" encoding="UTF-8" standalone="no"?>
<svg
   viewBox="0 0 24 24"
   width="24pt"
   height="24pt"
   version="1.1"
   id="svg1718"
   sodipodi:docname="east_england_coop.svg"
   xml:space="preserve"
   inkscape:version="1.2.2 (732a01da63, 2022-12-09)"
   inkscape:export-filename="east_england_coop.svg"
   inkscape:export-xdpi="96"
   inkscape:export-ydpi="96"
   xmlns:inkscape="http://www.inkscape.org/namespaces/inkscape"
   xmlns:sodipodi="http://sodipodi.sourceforge.net/DTD/sodipodi-0.dtd"
   xmlns="http://www.w3.org/2000/svg"
   xmlns:svg="http://www.w3.org/2000/svg"><defs
     id="defs1722" /><sodipodi:namedview
     id="namedview1720"
     pagecolor="#ffffff"
     bordercolor="#000000"
     borderopacity="0.25"
     inkscape:showpageshadow="2"
     inkscape:pageopacity="0.0"
     inkscape:pagecheckerboard="0"
     inkscape:deskcolor="#d1d1d1"
     inkscape:document-units="pt"
     showgrid="false"
     inkscape:zoom="17.876543"
     inkscape:cx="5.0904696"
     inkscape:cy="13.145718"
     inkscape:window-width="1920"
     inkscape:window-height="974"
     inkscape:window-x="-11"
     inkscape:window-y="1609"
     inkscape:window-maximized="1"
     inkscape:current-layer="svg1718" /><g
     id="g1996"
     transform="matrix(0.05024888,0,0,0.05024888,-44.019453,4.4008341)"><g
       id="g2085"
       transform="matrix(0.75124803,0,0,0.75124803,855.47079,-45.138072)"><path
         fill="#f8fbf4"
         opacity="1"
         stroke="none"
         d="m 386.20172,107.3129 c 7.88703,-16.776493 33.03693,-15.226688 40.87134,-3.58042 7.96344,11.83808 4.26797,33.5484 -7.42099,39.31139 -9.52643,4.69678 -19.24011,4.73128 -27.74451,-1.5952 -8.64346,-6.4299 -9.51388,-16.21771 -8.11715,-26.1811 0.36328,-2.59135 1.48474,-5.07642 2.41131,-7.95467 m 21.29846,28.84231 c 4.59336,0.45473 7.81891,-1.77247 9.48697,-5.73685 2.73413,-6.49801 2.77835,-13.2433 -0.0335,-19.75179 -1.98904,-4.60407 -5.95214,-6.82655 -10.83383,-6.24843 -4.82046,0.57088 -8.55566,3.45735 -9.14477,8.44583 -0.58969,4.99316 -0.67212,10.18277 0.008,15.15147 0.6983,5.10219 4.20438,8.08577 10.51718,8.13977 z"
         id="path1936" /><g
         id="g2063"><path
           fill="#fbfdf9"
           opacity="1"
           stroke="none"
           d="m 308.94904,355.01294 c 9.51828,-1.09622 18.59622,-2.62646 27.99786,0.26633 -4.8923,8.60705 -12.48801,13.74188 -21.29739,16.2387 -12.73343,3.60892 -25.71052,3.53742 -37.89112,-2.63797 -10.88785,-5.51989 -17.31024,-14.78112 -20.04458,-26.48126 -3.41672,-14.61984 -3.36167,-29.1221 3.89703,-42.74121 8.82523,-16.55832 23.7038,-22.64435 41.50427,-22.07492 15.07874,0.48236 28.05921,6.01822 35.54608,20.05869 2.96427,5.55896 4.51975,11.86917 6.97971,18.55194 -8.31244,0 -15.04376,0 -22.04096,0 -0.57522,-1.80219 -1.12615,-3.66434 -1.76184,-5.49707 -3.46533,-9.9914 -11.14508,-15.63041 -21.28698,-15.65897 -10.27826,-0.029 -17.86792,5.41916 -21.30194,15.54166 -3.72233,10.97223 -3.49274,21.96905 0.91391,32.66269 3.6755,8.91934 13.0722,15.91653 28.78595,11.77139 z"
           id="path1910" /><path
           fill="#fafcf8"
           opacity="1"
           stroke="none"
           d="m 428.35236,283.60352 c 8.85571,5.01162 14.32708,12.54406 17.1481,21.57534 4.8024,15.37461 4.78091,30.77957 -2.33533,45.67972 -3.53574,7.40317 -8.96274,13.10452 -16.0582,17.09177 -1.7265,0.97018 -4.1167,1.35162 -6.11602,1.15078 -16.90378,-1.69824 -30.20987,-9.76748 -40.95063,-22.81719 -5.88608,-7.15149 -12.6687,-13.55939 -18.85879,-20.4712 -1.17426,-1.31118 -2.15897,-3.45654 -2.05759,-5.1466 1.66089,-27.68888 20.85608,-44.82672 48.55005,-42.93659 6.8833,0.46979 13.57693,3.71839 20.67841,5.87397 m -36.45359,70.2478 c 14.20963,5.7933 27.02225,2.36902 32.27277,-9.90393 5.51883,-12.90012 5.40015,-26.26606 -1.62372,-38.8678 -4.6644,-8.36856 -12.41077,-10.84961 -21.55801,-10.18368 -8.25174,0.60073 -14.22528,4.92065 -17.53937,12.06906 -4.46625,9.63348 -4.65729,19.93634 -2.18906,30.21328 1.55341,6.46778 3.41504,12.85581 10.63739,16.67307 z"
           id="path1912" /><path
           fill="#fbfdf9"
           opacity="1"
           stroke="none"
           d="m 211.87759,300.76553 c -3.24884,4.68262 -7.69215,8.83356 -8.76843,13.72531 -1.56589,7.11689 -1.79889,14.94294 -0.64192,22.15235 2.10364,13.10837 12.22795,19.56671 27.96342,18.63009 6.15981,-0.36666 12.23732,-2.11569 18.88193,-3.33212 0,5.21246 0.10448,11.29654 -0.11265,17.36917 -0.0326,0.91095 -1.41164,2.22357 -2.4365,2.58194 -16.01129,5.59833 -43.063,4.00806 -56.14757,-10.02185 -5.72377,-6.13727 -8.95251,-13.45495 -10.58549,-21.60718 -2.97536,-14.85363 -1.78741,-29.21374 5.94388,-42.42974 7.42257,-12.68824 19.32527,-19.09162 33.55363,-20.47361 7.68892,-0.74685 15.57004,0.40326 23.359,0.80365 3.71133,0.19077 5.68411,1.80201 5.33517,6.0427 -0.39162,4.75937 -0.09,9.57577 -0.09,14.93298 -12.597,-4.04593 -24.56272,-6.47748 -36.25447,1.62631 z"
           id="path1914" /><path
           fill="#fbfcf8"
           opacity="1"
           stroke="none"
           d="m 524.18744,308.04553 c 0.58093,11.63077 -2.93524,20.57059 -13.09869,26.44849 -9.29407,5.37512 -19.5683,4.20276 -30.13941,4.86774 0,10.88037 0,21.44033 0,32.68792 -6.17792,0 -11.78445,0.20163 -17.34631,-0.20621 -0.88639,-0.065 -2.22696,-2.85739 -2.2478,-4.4038 -0.17957,-13.32312 -0.10517,-26.64972 -0.10486,-39.97525 3.3e-4,-14.32496 0.0276,-28.65003 -0.0196,-42.9748 -0.008,-2.5412 0.0145,-4.6546 3.51783,-4.54959 11.97,0.3588 23.97619,0.1409 35.9075,0.99533 13.44427,0.96283 24.31756,12.11869 23.53131,27.11017 m -41.32797,14.69171 c 5.09384,-0.432 10.32242,-0.29171 15.2452,-1.45041 5.3555,-1.26055 7.78248,-5.74697 7.77723,-11.86419 -0.005,-5.52622 -2.55237,-10.32956 -7.11441,-11.30356 -5.71195,-1.21948 -11.62751,-1.48535 -17.94345,-2.21961 0,7.02421 -0.11405,12.8245 0.0504,18.61686 0.0768,2.70303 0.69278,5.39074 1.98499,8.22091 z"
           id="path1916" /><path
           fill="#f7faf3"
           opacity="1"
           stroke="none"
           d="m 291.70239,253.31522 c -4.30456,-7.18758 -3.8511,-9.91315 2.47681,-16.84494 -5.33661,-7.51912 -4.99652,-11.68659 1.33353,-17.20577 -1.46555,-3.30089 -3.60285,-6.44473 -4.24131,-9.86812 -1.86605,-10.00518 3.83658,-18.77801 14.04142,-19.85708 10.11786,-1.06986 20.43719,-0.23407 30.87213,-0.23407 1.43298,7.19656 1.25952,7.49994 -5.50672,9.09211 0.18293,4.00235 1.06946,8.03858 0.39032,11.79145 -1.34402,7.42669 -8.1774,12.02208 -17.15555,12.42273 -2.82644,0.12611 -5.7236,-0.20235 -8.46063,0.33183 -1.41314,0.27582 -2.5462,1.98668 -3.80581,3.04916 1.32208,0.71772 2.61453,1.98108 3.97162,2.05483 4.81781,0.26178 9.65777,0.10743 14.48922,0.12982 9.95044,0.0461 15.34888,3.88414 16.39456,11.6383 1.0358,7.68041 -3.80712,13.79546 -12.76007,16.37456 -8.86059,2.55252 -17.70495,2.58869 -26.52224,0.0102 -1.84436,-0.53939 -3.49161,-1.75295 -5.51728,-2.88501 m 25.38086,-4.24399 c 1.43982,-0.3416 3.34995,-0.22827 4.21662,-1.12427 1.56332,-1.61617 3.47048,-3.88286 3.37863,-5.78842 -0.0667,-1.38478 -3.05844,-3.62705 -4.85569,-3.73993 -5.08377,-0.31932 -10.29779,-0.15848 -15.30007,0.72328 -1.64457,0.28989 -3.96167,3.44283 -3.84629,5.14229 0.11319,1.66705 2.72202,4.1003 4.6026,4.50917 3.48847,0.75845 7.24423,0.28748 11.8042,0.27788 m -1.71866,-35.93944 c 1.06864,-0.77126 2.36695,-1.35773 3.16355,-2.34785 2.5524,-3.17244 2.00259,-8.5663 -0.9339,-10.8619 -3.48895,-2.72746 -10.73252,-2.28909 -13.39023,0.81037 -2.789,3.25256 -2.92654,8.22792 0.74509,10.60369 2.5903,1.67608 6.40689,1.45698 10.41549,1.79569 z"
           id="path1918" /><path
           fill="#f6faf2"
           opacity="1"
           stroke="none"
           d="m 214.89618,84.886566 c -6.31441,0.0019 -12.14555,0.09265 -17.97208,-0.03217 -2.95361,-0.06328 -4.06048,1.07 -4.26736,4.056236 -0.96138,13.877658 -1.03565,13.872518 12.86394,13.872508 4.97869,0 9.95741,0 15.33879,0 0,3.72585 0,7.1229 0,11.34852 -7.3427,0 -14.76526,0.30624 -22.14762,-0.10658 -5.005,-0.27989 -6.16728,1.61442 -6.10219,6.27424 0.18735,13.41592 0.0114,13.41835 13.39241,13.41839 4.49685,2e-5 9.00609,0.20609 13.48662,-0.0642 3.65561,-0.22052 5.2977,0.89556 4.84195,4.73787 -0.24763,2.08785 -0.0442,4.2292 -0.0442,7.00591 -9.06056,0 -17.49897,4.7e-4 -25.93739,-1.9e-4 -4.66338,-3.6e-4 -9.32916,-0.0934 -13.98926,0.0294 -2.88461,0.076 -4.31756,-0.90768 -4.31053,-3.98611 0.0487,-21.31814 0.0576,-42.636557 -0.0125,-63.954581 -0.0109,-3.32341 1.44328,-4.240951 4.57208,-4.205299 11.49042,0.130982 22.98703,0.223755 34.47328,-0.03127 4.61493,-0.102463 4.64829,2.449364 4.5604,5.714546 -0.0811,3.014237 0.57859,6.367051 -4.26587,5.926499 -1.32096,-0.120125 -2.66294,-0.009 -4.48047,-0.0037 z"
           id="path1920" /><path
           fill="#f8fbf4"
           opacity="1"
           stroke="none"
           d="m 180.06262,214 c 3e-5,-15.44615 3e-5,-30.39229 3e-5,-45.75678 14.61753,0 28.65514,0 42.67034,0 0.22407,0.30465 0.55648,0.55124 0.59278,0.83564 1.21441,9.51405 1.16332,9.56895 -8.20085,9.57251 -5.99281,0.002 -11.98774,0.10177 -17.97757,-0.0307 -3.13815,-0.0694 -4.38493,1.05479 -4.54077,4.31288 -0.64476,13.48018 -0.73433,13.47587 12.67549,13.47587 5.11895,0 10.23787,2e-5 15.66046,2e-5 0,4.22658 0,7.81111 0,12.06061 -7.67225,0 -15.12959,0.2118 -22.56695,-0.0819 -4.24939,-0.16783 -6.12816,0.99457 -5.77924,5.53949 0.3404,4.43395 0.074,8.91446 0.074,13.85022 10.63226,0 20.71782,0 31.20523,0 0,3.99094 0,7.50694 0,11.44406 -12.96365,0 -25.76033,0 -38.55701,0 -1.47134,0 -2.94269,0 -5.25596,0 0,-8.52754 0,-16.62472 1e-5,-25.22189 z"
           id="path1922" /><path
           fill="#f6faf1"
           opacity="1"
           stroke="none"
           d="m 482.0863,199.16292 c 7.22348,-10.28974 17.45172,-11.0336 29.15412,-9.72649 0,-6.30517 0.31958,-12.40689 -0.0991,-18.45753 -0.34732,-5.01982 2.28317,-5.23986 6.06296,-5.21494 3.9027,0.0258 6.56133,0.15881 6.48815,5.4659 -0.28259,20.47651 -0.0502,40.95976 -0.21386,61.43887 -0.0168,2.10082 -1.26947,5.912 -2.17249,5.98059 -3.46741,0.26328 -8.31933,2.7236 -9.52307,-3.97146 -5.37198,4.13113 -10.94238,6.15179 -17.3609,4.95523 -9.31821,-1.73714 -15.10446,-7.44361 -16.19046,-16.97214 -0.90854,-7.97162 -0.93326,-15.9924 3.85464,-23.49803 m 13.7356,1.92352 c -6.91714,3.94142 -6.81461,18.99132 -3.35092,24.20554 2.23187,3.35978 5.48761,4.76815 9.43042,4.17302 3.99551,-0.60308 7.51318,-2.32245 8.15802,-6.73789 0.71234,-4.87749 1.04022,-9.83807 1.14755,-14.77092 0.17892,-8.22169 -2.961,-10.6243 -11.11053,-8.80188 -1.27927,0.28607 -2.48414,0.90505 -4.27454,1.93213 z"
           id="path1924" /><path
           fill="#f9cb00"
           opacity="1"
           stroke="none"
           d="m 405.31146,374.55887 c -16.73874,1.14978 -30.35873,-6.0098 -43.64877,-14.12659 -12.7226,-7.7702 -26.18778,-12.81686 -41.42044,-11.65497 -0.41794,0.0319 -0.86926,-0.37365 -0.49564,-0.20086 1.4643,-8.40049 2.7049,-16.49497 4.4462,-24.48029 0.26898,-1.23361 2.74191,-2.5939 4.35324,-2.83298 14.83893,-2.20153 26.54669,3.83182 36.31848,14.43998 3.93228,4.26879 7.75672,8.65399 11.38352,13.18371 8.06308,10.07059 17.65551,17.93711 30.14856,21.87396 1.24279,0.39167 2.39221,1.08341 3.57388,1.65863 0.0972,0.0473 0.10855,0.27085 0.3674,0.98624 -1.57162,0.38559 -3.09122,0.75842 -5.02643,1.15317 z"
           id="path1926" /><path
           fill="#f8fbf4"
           opacity="1"
           stroke="none"
           d="m 423.09631,200.06467 c 9e-5,-1.81974 -0.005,-3.15136 10e-4,-4.48291 0.0263,-5.55358 4.90201,-8.50521 9.93012,-5.76752 1.18658,0.64609 1.71899,2.49368 2.73944,4.07928 4.99231,-4.41296 10.98746,-5.60162 17.55087,-5.06723 7.28006,0.59276 13.14484,4.81624 13.56415,12.16338 0.70758,12.39905 0.19406,24.8678 0.19406,37.7715 -3.27948,0 -7.15366,0 -11.8598,0 0,-6.01408 0.0792,-12.1108 -0.0258,-18.20435 -0.08,-4.64497 -0.008,-9.34401 -0.69742,-13.91447 -0.93283,-6.18761 -6.34854,-8.4624 -11.96112,-5.47371 -4.33847,2.31023 -6.63256,5.82889 -6.6138,10.82286 0.0331,8.79637 0.009,17.59296 0.009,26.80943 -4.24503,0 -8.12936,0 -12.83118,0 0,-12.74284 0,-25.49548 3e-5,-38.73626 z"
           id="path1928" /><path
           fill="#f9fbf6"
           opacity="1"
           stroke="none"
           d="m 255.81079,189.27463 c 1.41168,-0.20151 2.409,-0.27321 3.40125,-0.38837 14.62671,-1.69743 20.6662,6.51796 20.59985,19.51245 -0.0509,9.96996 -0.0101,19.9404 -0.0101,30.36426 -4.23383,0 -8.12256,0 -12.90125,0 0,-4.76996 -10e-4,-9.6925 3.4e-4,-14.61505 0.001,-4.49724 0.0375,-8.99474 9.1e-4,-13.49166 -0.0595,-7.32557 -2.35193,-10.49319 -7.60959,-10.61697 -6.05,-0.14244 -11.16371,4.57578 -11.3231,10.88892 -0.19753,7.82362 -0.0552,15.65582 -0.0594,23.48433 -7.1e-4,1.31308 -10e-5,2.62616 -10e-5,4.37109 -4.17185,0 -8.06055,0 -12.37752,0 0,-16.06769 0,-32.27298 0.006,-48.48007 6.88887,-2.04871 9.6304,-1.33193 12.02118,3.26239 2.61122,-1.39374 5.22293,-2.78772 8.25137,-4.29132 z"
           id="path1930" /><path
           fill="#f7faf3"
           opacity="1"
           stroke="none"
           d="m 243.7565,95.770859 c 6.46178,0.140831 12.66049,-0.367371 18.54019,0.771553 6.76865,1.311142 10.1135,6.752948 10.58441,13.410018 0.46863,6.62444 0.23566,13.29845 0.31278,19.95069 0.0558,4.81613 0.0577,4.81612 5.96881,5.79807 -0.83875,2.96988 -0.74826,7.06515 -2.6485,8.4725 -4.14471,3.06963 -9.98685,0.88814 -14.29498,-4.18094 -6.40773,5.88799 -13.81137,7.86125 -22.01639,4.56197 -6.01412,-2.41829 -8.28626,-7.11055 -7.87131,-14.58245 0.29895,-5.38317 3.78942,-10.41519 9.155,-11.80232 4.43517,-1.14659 9.13333,-1.24592 13.69107,-1.96157 2.06394,-0.32408 4.06986,-1.01732 6.10211,-1.5431 -1.19607,-2.59057 -1.88434,-6.90131 -3.68799,-7.43378 -4.54327,-1.34124 -9.59379,-1.25503 -14.43229,-1.18004 -2.34247,0.0363 -4.66538,1.3331 -6.99979,2.06004 -2.26429,-8.567478 -1.79156,-9.338017 7.59688,-12.340641 m 7.51605,41.113631 c 7.357,-2.0517 9.70615,-4.77333 9.82166,-12.29143 -3.22714,0 -6.46567,-0.0455 -9.70241,0.0115 -4.07654,0.0718 -7.26669,1.595 -7.57393,6.09549 -0.3073,4.50142 2.89607,5.80232 7.45468,6.18445 z"
           id="path1932" /><path
           fill="#f8fbf4"
           opacity="1"
           stroke="none"
           d="m 370.06482,233.6916 c -4.64114,-12.69029 -0.01,-20.96676 12.94076,-22.99098 4.35273,-0.68034 8.90128,-0.1076 13.23475,-0.1076 1.61474,-6.95354 -1.24955,-11.18195 -8.12006,-11.25435 -5.181,-0.0546 -10.37561,1.17892 -15.69586,1.85583 -2.24097,-7.12022 -1.25006,-9.55265 6.50918,-11.11305 9.54044,-1.91858 19.55475,-3.33574 26.60663,5.65067 4.77365,6.08313 4.08921,13.76034 3.81116,21.07891 -0.10715,2.82024 -0.60465,5.69335 -0.20551,8.43783 0.21411,1.47219 2.18952,2.60379 2.94376,4.10351 0.91415,1.81769 1.89761,3.87398 1.85254,5.8037 -0.0297,1.26962 -1.62473,3.29766 -2.86151,3.60438 -4.95609,1.22908 -9.5387,0.40477 -12.49985,-4.29439 -13.3891,7.75844 -21.05453,7.59555 -28.51599,-0.77446 m 21.67419,-4.16342 c 3.51273,-2.55765 6.19583,-5.50749 4.72083,-11.68219 -4.59641,0.67794 -9.34012,0.88942 -13.70206,2.28998 -1.49478,0.47994 -3.06909,4.13442 -2.71744,5.97815 0.34989,1.8342 2.83481,3.88145 4.82758,4.59483 1.73868,0.62241 4.09558,-0.48211 6.87109,-1.18077 z"
           id="path1934" /><path
           fill="#fafcf7"
           opacity="1"
           stroke="none"
           d="m 457.28375,86.840233 c -0.11728,3.03421 -0.11728,5.653114 -0.11728,8.681816 3.63242,0 6.90503,0 10.56357,0 0,3.60173 0,6.801491 0,10.453701 -3.45657,0.19751 -6.85947,0.39194 -10.71359,0.61216 0,6.5606 0,12.8524 0,19.14421 0,6.30128 0,12.60257 0,18.80526 -0.84207,0.32509 -1.28247,0.603 -1.74973,0.65967 -10.72946,1.30132 -10.93533,1.12108 -10.93911,-9.46484 -0.003,-9.61047 -7.4e-4,-19.22093 -7.4e-4,-29.05118 -4.38922,-0.38705 -8.32473,0.0242 -8.06173,-6.29488 0.25012,-6.00864 4.43841,-3.966442 7.68991,-4.965076 0.74045,-8.563835 0.0854,-18.102051 9.65152,-22.699089 5.50702,-2.646439 11.44784,-3.123718 17.34951,-0.432999 0,3.238404 0,6.346596 0,9.778321 -5.10607,0.01248 -10.77697,-1.925583 -13.67233,4.772926 z"
           id="path1938" /><path
           fill="#f7faf3"
           opacity="1"
           stroke="none"
           d="m 304.18652,104.72057 c -1.75424,0.23721 -3.27737,0.12226 -4.32242,0.77398 -1.27136,0.79286 -2.87902,2.18022 -2.96392,3.4058 -0.0766,1.10579 1.47833,2.93705 2.7091,3.40211 3.2414,1.22482 6.68054,1.95418 10.07199,2.74841 8.30295,1.94445 12.76099,6.77082 12.9347,14.13121 0.20364,8.62805 -3.82062,14.74509 -12.38672,16.15886 -6.28064,1.03659 -12.98026,0.77268 -19.3198,-0.12964 -6.4992,-0.92503 -7.13388,-3.27186 -5.2951,-11.85057 5.4924,0.87973 10.96133,1.81359 16.45227,2.59232 1.28409,0.1821 2.94415,0.28563 3.90173,-0.36 1.76789,-1.19194 4.24378,-2.88449 4.36365,-4.51956 0.11249,-1.53408 -2.12393,-4.04535 -3.88034,-4.75336 -4.42526,-1.78382 -9.2453,-2.56176 -13.75415,-4.17136 -5.76206,-2.05696 -8.18356,-6.94423 -8.06073,-12.56247 0.12521,-5.72859 2.73502,-10.322498 8.50464,-12.905483 7.98874,-3.576477 15.91925,-2.887963 23.83484,-0.348023 1.33481,0.428322 2.60522,2.579598 2.96695,4.150846 0.50503,2.19379 0.12726,4.59079 0.12726,6.85546 -5.41532,-0.92269 -10.42814,-1.77679 -15.88395,-2.61853 z"
           id="path1940" /><path
           fill="#fafcf7"
           opacity="1"
           stroke="none"
           d="m 349.5119,119.9773 c 0.0106,2.82864 -0.0677,5.16607 0.0492,7.49369 0.33908,6.75183 3.44531,9.13507 10.18054,7.92162 1.11108,-0.20018 2.23083,-0.35234 4.19858,-0.65982 0,2.79057 0.21542,5.23066 -0.0943,7.60216 -0.14646,1.1213 -1.056,2.56625 -2.03394,3.0872 -6.55527,3.49208 -19.70352,-0.38504 -23.02936,-6.94672 -1.14831,-2.26558 -1.62753,-5.06932 -1.69577,-7.64621 -0.21109,-7.97035 -0.0771,-15.94984 -0.0771,-23.86898 -3.45938,-0.58543 -7.42053,-0.1381 -9.2431,-1.90132 -1.59204,-1.54018 -0.7764,-5.569082 -1.07467,-9.090971 3.565,-0.219711 6.63119,-0.408684 10.28811,-0.634064 0,-3.807457 0,-7.540199 0,-12.192192 4.34943,0.442284 9.13867,-0.430412 11.38773,1.562943 2.01199,1.783264 1.22326,6.726486 1.75103,10.916534 4.26008,0 8.49939,0 14.31797,0 -1.23102,4.168373 -1.2518,8.90715 -3.33182,10.12299 -2.71747,1.58844 -7.06454,0.38903 -11.59287,0.38903 0,4.82255 0,9.08548 -2.1e-4,13.84411 z"
           id="path1942" /><path
           fill="#fcfdfa"
           opacity="1"
           stroke="none"
           d="m 345.56891,185.00162 c 7.3e-4,-5.16402 0.19821,-9.83948 -0.0583,-14.48987 -0.21756,-3.94359 1.24844,-5.51526 5.18433,-5.12383 2.27014,0.22577 4.58111,0.041 7.18271,0.041 0,24.81449 0,49.03095 0,73.51032 -3.99192,0 -7.7497,0 -12.30884,0 0,-17.93358 0,-35.68588 1.2e-4,-53.93759 z"
           id="path1944" /></g></g></g></svg>
