<svg xmlns="http://www.w3.org/2000/svg" width="24" height="24"><path fill="#036fbd" fill-rule="evenodd" d="M6.2 9v7h11.6V2H6.2zm.2 0v6.8h11.2V2.2H6.4zm1.1-1.25v4.55h9V9.9h-6.2v-1h6.2V6.5h-6.2v-.9h6.2V3.2h-9zm0 6.25v.8h.8c.78 0 .81 0 .78-.22-.03-.2-.08-.22-.5-.2-.25.02-.49-.01-.53-.07q-.06-.1.5-.11c.48 0 .55-.02.55-.2s-.07-.2-.55-.2c-.3 0-.55-.04-.55-.1 0-.05.25-.1.55-.1.48 0 .55-.02.55-.2s-.07-.2-.8-.2h-.8zm1.9 0v.8h.6c.51 0 .65-.04.85-.25a.8.8 0 0 0 .02-1.13c-.19-.18-.35-.22-.85-.22H9.4zm1.9 0v.8h.8c.76 0 .8-.01.8-.23 0-.2-.04-.22-.46-.18-.25.02-.5-.02-.57-.08-.08-.08.04-.11.46-.11.5 0 .57-.02.57-.2 0-.17-.07-.2-.5-.2-.27 0-.52-.04-.55-.1q-.04-.1.5-.1c.48 0 .55-.02.55-.2s-.07-.2-.8-.2h-.8zm1.9 0c0 .79 0 .8.25.8q.24-.01.25-.14c0-.07.06-.19.14-.25.11-.1.18-.06.34.14s.28.25.76.25c.41 0 .58-.04.62-.15q.07-.15.39-.15.31 0 .39.15c.08.21.46.2.45-.03 0-.1-.1-.44-.22-.77-.22-.59-.23-.6-.63-.63l-.4-.03-.24.76c-.13.41-.26.75-.3.75s-.2-.2-.38-.43l-.3-.44.3-.31.33-.32h-.35a1 1 0 0 0-.62.27l-.28.27v-.27c0-.22-.05-.27-.25-.27-.25 0-.25.01-.25.8m-3.3-.04c0 .34.01.35.33.32.25-.02.33-.08.35-.27q.05-.4-.46-.4c-.19-.01-.22.04-.22.35"/></svg>