<?xml version="1.0" encoding="UTF-8" standalone="no"?>
<svg
   viewBox="0 0 16.900736 4.2796159"
   width="16.900736pt"
   height="4.2796159pt"
   version="1.1"
   id="svg1"
   xml:space="preserve"
   xmlns="http://www.w3.org/2000/svg"
   xmlns:svg="http://www.w3.org/2000/svg"><defs
     id="defs1" /><g
     id="g1"
     transform="matrix(0.0143701,0,0,0.0143701,-0.15038851,-0.84824649)"><path
       d="m 150.874,83.966 c -8.699,1.109 -20.24,4.308 -31.374,8.697 -44.693,17.618 -75.978,54.336 -82.956,97.364 -6.531,40.272 6.056,76.118 37.297,106.216 16.739,16.127 36.55,26.63 61.159,32.425 13.014,3.064 38.379,4.217 53.518,2.431 42.848,-5.053 78.684,-22.095 110.114,-52.367 l 10.143,-9.769 1.605,7.108 c 2.426,10.745 7.847,20.191 16.688,29.078 6.232,6.265 9.312,8.462 17.021,12.142 12.573,6.002 17.093,6.962 32.203,6.838 43.085,-0.354 82.854,-16.219 110.757,-44.182 l 9.549,-9.57 -9.299,25.974 c -5.114,14.285 -9.299,26.576 -9.299,27.311 0,1.091 6.219,1.338 33.644,1.338 h 33.644 l 26.223,-17.386 c 25.12,-16.655 26.287,-17.569 27.749,-21.75 0.84,-2.4 14.4,-40.291 30.133,-84.203 C 645.127,157.75 658,121.412 658,120.911 658,120.374 635.912,120 604.216,120 h -53.784 l -12.386,34.75 c -6.813,19.113 -14.743,39.475 -17.623,45.25 -12.671,25.411 -29.805,42.608 -50.845,51.033 -9.73,3.895 -20.011,6.118 -24.578,5.313 -12.228,-2.154 -21.654,-14.715 -19.532,-26.027 0.374,-1.994 9.034,-26.845 19.243,-55.223 10.21,-28.378 18.779,-52.383 19.043,-53.346 0.452,-1.651 -2.525,-1.75 -52.444,-1.75 h -52.924 l -11.328,31.75 c -13.224,37.062 -18.336,48.474 -28.763,64.215 C 308.806,230.288 289.9,249.602 276.5,258.662 252.253,275.055 228.312,283 203.158,283 185.825,283 172.446,279.777 159.329,272.442 152.449,268.594 141,259.541 141,257.948 c 0,-0.539 32.215,-22.353 71.588,-48.475 l 71.589,-47.496 -2.753,-4.738 C 258.672,118.074 227.877,92.617 194.5,85.383 186.267,83.599 160.354,82.757 150.874,83.966 m 863.33,0.138 c -30.993,4.183 -59.741,18.74 -80.269,40.646 -7.512,8.017 -17.009,21.564 -20.35,29.028 -1.053,2.354 -2.271,4.154 -2.708,4 -0.436,-0.153 -7.674,-6.6 -16.085,-14.326 -8.411,-7.726 -15.821,-14.369 -16.467,-14.762 -0.69,-0.42 -24.571,14.784 -57.87,36.844 -31.182,20.658 -56.806,37.426 -56.942,37.263 -0.203,-0.245 11.156,-32.283 26.431,-74.547 l 2.982,-8.25 -54.213,0.014 -54.213,0.015 -36,100.663 c -19.8,55.365 -36.144,101.484 -36.32,102.486 -0.305,1.744 1.977,1.822 53.301,1.822 h 53.621 l 1.35,-3.25 c 0.742,-1.787 7.501,-20.746 15.02,-42.13 7.519,-21.384 14.845,-40.654 16.28,-42.822 4.507,-6.81 12.644,-9.683 21.978,-7.759 11.049,2.276 24.311,9.608 39.419,21.792 4.207,3.393 7.924,6.169 8.26,6.169 0.335,0 18.151,-11.7 39.591,-26 21.44,-14.3 39.147,-26 39.351,-26 0.204,0 0.618,5.063 0.921,11.25 1.417,28.941 13.612,55.049 36.087,77.26 15.635,15.45 30.788,24.948 50.355,31.562 15.562,5.261 23.182,6.389 43.286,6.409 20.449,0.021 26.7,-0.862 42.576,-6.014 33.104,-10.743 61.077,-34.378 75.904,-64.134 8.781,-17.622 12.52,-33.766 12.52,-54.057 0,-58.666 -42.761,-108.914 -103.266,-121.348 -11.864,-2.438 -33.436,-3.321 -44.53,-1.824 m 10.106,83.864 -6.81,20.967 -22.809,0.033 c -12.793,0.018 -22.571,0.417 -22.268,0.908 0.298,0.482 8.193,6.364 17.545,13.072 9.351,6.707 17.254,12.602 17.562,13.1 0.307,0.498 -2.396,9.998 -6.008,21.111 -3.612,11.113 -6.444,20.529 -6.294,20.924 0.149,0.395 7.697,-4.669 16.772,-11.253 9.075,-6.584 17.241,-12.379 18.146,-12.879 1.271,-0.703 5.703,2.018 19.5,11.971 9.82,7.085 17.995,12.747 18.168,12.582 0.172,-0.164 -2.669,-9.566 -6.314,-20.893 -3.646,-11.327 -6.354,-21.038 -6.019,-21.58 0.335,-0.543 7.451,-5.893 15.814,-11.89 8.363,-5.997 16.33,-11.842 17.705,-12.989 l 2.5,-2.085 -23.055,-0.034 -23.055,-0.033 -6.725,-21 c -3.699,-11.55 -6.91,-21 -7.135,-21 -0.225,0 -3.474,9.435 -7.22,20.968 M 153.347,153.095 c -16.939,2.83 -32.739,14.097 -39.339,28.053 -5.523,11.677 -6.115,24.479 -1.631,35.213 l 1.531,3.663 17.296,-11.304 c 9.513,-6.217 27.534,-17.983 40.046,-26.146 12.512,-8.163 22.75,-15.424 22.75,-16.135 0,-1.858 -6.653,-7.105 -12.586,-9.925 -4.968,-2.361 -15.417,-4.608 -20.414,-4.39 -1.375,0.061 -4.819,0.497 -7.653,0.971"
       stroke="none"
       fill="#fbeb34"
       fill-rule="evenodd"
       id="path1-3" /><path
       d="m 149,59.526 c -0.825,0.162 -4.875,0.844 -9,1.516 C 125.855,63.348 100.6,72.868 86.506,81.208 60.743,96.452 37.74,120.692 25.019,146 c -5.451,10.846 -10.065,24.519 -12.665,37.536 -2.515,12.594 -2.519,41.647 -0.007,53.232 5.806,26.782 18.46,50.288 38.374,71.285 31.31,33.015 76.825,50.802 124.384,48.608 31.188,-1.439 57.967,-8.125 84.73,-21.154 12.821,-6.241 25.704,-14.009 34.973,-21.086 l 4.389,-3.352 3.783,4.716 c 13.101,16.329 33.784,28.326 55.454,32.164 18.256,3.234 51.351,-0.648 76.524,-8.976 6.343,-2.098 11.667,-3.681 11.831,-3.518 0.163,0.164 -0.622,2.716 -1.746,5.671 -1.123,2.956 -2.042,5.937 -2.042,6.624 -10e-4,0.985 11.716,1.25 55.254,1.25 h 55.256 l 14.338,-9.573 c 7.886,-5.265 14.518,-9.393 14.738,-9.173 0.22,0.22 -0.947,4.09 -2.594,8.602 -1.646,4.511 -2.993,8.641 -2.993,9.179 0,0.63 28.476,0.886 80.202,0.721 l 80.202,-0.256 16.569,-46.924 c 9.113,-25.808 17.087,-47.096 17.719,-47.307 3.478,-1.159 20.633,10.594 35.752,24.496 l 10.945,10.064 4.055,-2.772 C 835.539,277.107 880.222,248 880.866,248 c 0.423,0 1.58,2.588 2.571,5.75 2.992,9.542 10.199,24.011 17.273,34.676 8.763,13.212 27.29,31.84 40.248,40.467 37.756,25.139 81.541,33.583 125.125,24.13 13.206,-2.864 23.219,-6.479 37.417,-13.509 42.18,-20.886 71.982,-59.515 81.195,-105.244 2.539,-12.607 2.49,-41.413 -0.093,-53.77 -4.126,-19.74 -13.611,-41.394 -25.29,-57.737 -7.475,-10.459 -21.384,-24.476 -32.812,-33.067 -10.144,-7.625 -32.724,-19.257 -45,-23.181 -18.33,-5.859 -26.279,-6.966 -50,-6.966 -19.087,0 -23.357,0.297 -32.249,2.244 -34.713,7.601 -66.061,25.645 -86.818,49.973 -3.63,4.254 -6.731,7.734 -6.892,7.734 -0.16,0 -5.76,-4.95 -12.443,-11 -6.684,-6.05 -12.556,-11.139 -13.049,-11.308 -0.494,-0.169 -15.669,9.534 -33.723,21.563 -18.054,12.029 -33.387,22.206 -34.073,22.615 -0.976,0.582 -1.011,0.134 -0.163,-2.063 0.596,-1.544 4.157,-11.357 7.913,-21.807 3.756,-10.45 7.14,-19.788 7.52,-20.75 C 828.179,95.088 820.786,95 680.705,95 H 533.196 l -0.988,2.75 c -0.543,1.512 -7.606,21.2 -15.695,43.75 -8.09,22.55 -16.041,44.15 -17.669,48 -8.351,19.754 -19.944,31.9 -36.709,38.462 -5.853,2.29 -9.135,1.946 -9.135,-0.958 0,-1.023 10.35,-30.696 23,-65.939 12.65,-35.243 23,-64.526 23,-65.072 C 499,95.344 471.668,95 420.109,95 h -78.892 l -1.458,3.75 c -0.802,2.063 -6.589,18.256 -12.859,35.984 -6.27,17.729 -11.625,32.237 -11.9,32.239 -0.275,0.002 -3.154,-5.054 -6.399,-11.235 C 296.7,133.064 284.724,116.547 268.55,100.5 245.981,78.109 221.583,64.86 194.973,60.544 186.693,59.202 154.316,58.484 149,59.526 m 1.874,24.44 c -8.699,1.109 -20.24,4.308 -31.374,8.697 -44.693,17.618 -75.978,54.336 -82.956,97.364 -6.531,40.272 6.056,76.118 37.297,106.216 16.739,16.127 36.55,26.63 61.159,32.425 13.014,3.064 38.379,4.217 53.518,2.431 42.848,-5.053 78.684,-22.095 110.114,-52.367 l 10.143,-9.769 1.605,7.108 c 2.426,10.745 7.847,20.191 16.688,29.078 6.232,6.265 9.312,8.462 17.021,12.142 12.573,6.002 17.093,6.962 32.203,6.838 43.085,-0.354 82.854,-16.219 110.757,-44.182 l 9.549,-9.57 -9.299,25.974 c -5.114,14.285 -9.299,26.576 -9.299,27.311 0,1.091 6.219,1.338 33.644,1.338 h 33.644 l 26.223,-17.386 c 25.12,-16.655 26.287,-17.569 27.749,-21.75 0.84,-2.4 14.4,-40.291 30.133,-84.203 C 645.127,157.75 658,121.412 658,120.911 658,120.374 635.912,120 604.216,120 h -53.784 l -12.386,34.75 c -6.813,19.113 -14.743,39.475 -17.623,45.25 -12.671,25.411 -29.805,42.608 -50.845,51.033 -9.73,3.895 -20.011,6.118 -24.578,5.313 -12.228,-2.154 -21.654,-14.715 -19.532,-26.027 0.374,-1.994 9.034,-26.845 19.243,-55.223 10.21,-28.378 18.779,-52.383 19.043,-53.346 0.452,-1.651 -2.525,-1.75 -52.444,-1.75 h -52.924 l -11.328,31.75 c -13.224,37.062 -18.336,48.474 -28.763,64.215 C 308.806,230.288 289.9,249.602 276.5,258.662 252.253,275.055 228.312,283 203.158,283 185.825,283 172.446,279.777 159.329,272.442 152.449,268.594 141,259.541 141,257.948 c 0,-0.539 32.215,-22.353 71.588,-48.475 l 71.589,-47.496 -2.753,-4.738 C 258.672,118.074 227.877,92.617 194.5,85.383 186.267,83.599 160.354,82.757 150.874,83.966 m 863.33,0.138 c -30.993,4.183 -59.741,18.74 -80.269,40.646 -7.512,8.017 -17.009,21.564 -20.35,29.028 -1.053,2.354 -2.271,4.154 -2.708,4 -0.436,-0.153 -7.674,-6.6 -16.085,-14.326 -8.411,-7.726 -15.821,-14.369 -16.467,-14.762 -0.69,-0.42 -24.571,14.784 -57.87,36.844 -31.182,20.658 -56.806,37.426 -56.942,37.263 -0.203,-0.245 11.156,-32.283 26.431,-74.547 l 2.982,-8.25 -54.213,0.014 -54.213,0.015 -36,100.663 c -19.8,55.365 -36.144,101.484 -36.32,102.486 -0.305,1.744 1.977,1.822 53.301,1.822 h 53.621 l 1.35,-3.25 c 0.742,-1.787 7.501,-20.746 15.02,-42.13 7.519,-21.384 14.845,-40.654 16.28,-42.822 4.507,-6.81 12.644,-9.683 21.978,-7.759 11.049,2.276 24.311,9.608 39.419,21.792 4.207,3.393 7.924,6.169 8.26,6.169 0.335,0 18.151,-11.7 39.591,-26 21.44,-14.3 39.147,-26 39.351,-26 0.204,0 0.618,5.063 0.921,11.25 1.417,28.941 13.612,55.049 36.087,77.26 15.635,15.45 30.788,24.948 50.355,31.562 15.562,5.261 23.182,6.389 43.286,6.409 20.449,0.021 26.7,-0.862 42.576,-6.014 33.104,-10.743 61.077,-34.378 75.904,-64.134 8.781,-17.622 12.52,-33.766 12.52,-54.057 0,-58.666 -42.761,-108.914 -103.266,-121.348 -11.864,-2.438 -33.436,-3.321 -44.53,-1.824 m 10.106,83.864 -6.81,20.967 -22.809,0.033 c -12.793,0.018 -22.571,0.417 -22.268,0.908 0.298,0.482 8.193,6.364 17.545,13.072 9.351,6.707 17.254,12.602 17.562,13.1 0.307,0.498 -2.396,9.998 -6.008,21.111 -3.612,11.113 -6.444,20.529 -6.294,20.924 0.149,0.395 7.697,-4.669 16.772,-11.253 9.075,-6.584 17.241,-12.379 18.146,-12.879 1.271,-0.703 5.703,2.018 19.5,11.971 9.82,7.085 17.995,12.747 18.168,12.582 0.172,-0.164 -2.669,-9.566 -6.314,-20.893 -3.646,-11.327 -6.354,-21.038 -6.019,-21.58 0.335,-0.543 7.451,-5.893 15.814,-11.89 8.363,-5.997 16.33,-11.842 17.705,-12.989 l 2.5,-2.085 -23.055,-0.034 -23.055,-0.033 -6.725,-21 c -3.699,-11.55 -6.91,-21 -7.135,-21 -0.225,0 -3.474,9.435 -7.22,20.968 M 153.347,153.095 c -16.939,2.83 -32.739,14.097 -39.339,28.053 -5.523,11.677 -6.115,24.479 -1.631,35.213 l 1.531,3.663 17.296,-11.304 c 9.513,-6.217 27.534,-17.983 40.046,-26.146 12.512,-8.163 22.75,-15.424 22.75,-16.135 0,-1.858 -6.653,-7.105 -12.586,-9.925 -4.968,-2.361 -15.417,-4.608 -20.414,-4.39 -1.375,0.061 -4.819,0.497 -7.653,0.971 m 156.685,20.666 c -1.908,1.506 -30.635,20.789 -63.838,42.849 -50.263,33.395 -59.979,40.215 -58.032,40.735 5.607,1.498 18.128,1.844 25.963,0.717 38.481,-5.535 75.898,-35.104 94.351,-74.562 4.136,-8.845 5.675,-12.511 5.243,-12.489 -0.121,0.006 -1.78,1.244 -3.687,2.75"
       stroke="none"
       fill="#0454ab"
       fill-rule="evenodd"
       id="path2" /></g></svg>
