<?xml version="1.0" encoding="UTF-8" standalone="no"?>
<svg
   viewBox="0 0 16.814173 1.5130134"
   width="16.814173pt"
   height="1.5130134pt"
   version="1.1"
   id="svg1"
   xml:space="preserve"
   xmlns="http://www.w3.org/2000/svg"
   xmlns:svg="http://www.w3.org/2000/svg"><defs
     id="defs1" /><g
     id="g1"
     transform="matrix(0.84070869,0,0,0.84070869,-56.327482,-51.28323)"><path
       d="m 67.30262,61.212057 0.13049,0.2121 -0.216555,0.626917 C 67.09746,62.395891 67,62.695641 67,62.717232 c 0,0.023 0.654506,0.0392 1.584515,0.0392 h 1.584472 l 0.06486,-0.155166 c 0.120509,-0.288483 0.18057,-0.273232 -1.07545,-0.273232 h -1.140223 l 0.02583,-0.09639 c 0.01418,-0.05299 0.02609,-0.11087 0.02639,-0.12852 3.42e-4,-0.01765 0.442106,-0.03213 0.981716,-0.03213 h 0.981117 l 0.04704,-0.134902 c 0.02587,-0.0742 0.04704,-0.15131 0.04704,-0.171359 0,-0.02005 -0.424114,-0.03646 -0.942475,-0.03646 -0.556018,0 -0.942475,-0.01641 -0.942475,-0.04006 0,-0.02202 0.01868,-0.08919 0.04151,-0.149254 l 0.04151,-0.109198 1.156803,-0.0114 1.156802,-0.0114 L 70.506607,61.203489 70.374189,61 H 68.773181 67.17213 l 0.13049,0.212057 m 17.347368,-0.04382 c -0.223838,0.01756 -0.474451,0.04712 -0.556917,0.06563 -0.623105,0.139787 -0.874403,0.6701 -0.385558,0.813656 0.0589,0.01731 0.550705,0.04494 1.092885,0.06148 0.542181,0.01649 1.008834,0.04421 1.03698,0.0616 0.08033,0.04965 0.01799,0.147026 -0.126206,0.197277 -0.138072,0.04815 -1.39859,0.06332 -1.564551,0.01885 -0.05304,-0.01422 -0.09639,-0.05252 -0.09639,-0.08512 0,-0.04648 -0.09219,-0.05925 -0.428398,-0.05925 -0.404364,0 -0.428397,0.005 -0.428397,0.08851 0,0.148011 0.07493,0.240631 0.252197,0.31153 0.547021,0.218869 2.481837,0.20636 2.948448,-0.01906 0.206916,-0.09995 0.355056,-0.309561 0.355056,-0.50234 0,-0.249241 -0.222595,-0.304462 -1.379484,-0.342289 -0.904776,-0.0296 -1.067481,-0.06242 -0.940333,-0.189652 0.03881,-0.03886 0.263508,-0.05355 0.817983,-0.05355 0.674298,0 0.774458,0.009 0.849213,0.07664 0.07111,0.06434 0.149297,0.07467 0.486488,0.06426 0.37849,-0.01165 0.402523,-0.01791 0.415332,-0.10787 0.02103,-0.148012 -0.159407,-0.296023 -0.424971,-0.348502 -0.311016,-0.06148 -1.420224,-0.09133 -1.923377,-0.05179 m -13.623049,0.08067 c 0,0.01906 0.208801,0.361268 0.463998,0.760406 l 0.46404,0.725706 0.555889,0.01191 0.555932,0.01187 0.96141,-0.711483 c 0.528771,-0.391298 0.989642,-0.738858 1.024128,-0.772315 0.05432,-0.05261 -0.0045,-0.06079 -0.43688,-0.06079 h -0.499641 l -0.76092,0.540938 c -0.716409,0.509279 -0.764433,0.536268 -0.820381,0.460527 -0.03273,-0.04421 -0.192137,-0.287669 -0.354243,-0.540938 l -0.29478,-0.460527 h -0.429255 c -0.236132,0 -0.429297,0.01559 -0.429297,0.0347 m 4.814505,0.02853 c 0.01452,0.0359 0.0353,0.08941 0.04623,0.118838 0.01165,0.03149 -0.336892,0.318257 -0.846086,0.696146 l -0.86592,0.642597 0.48289,0.01212 c 0.476421,0.01195 0.485417,0.01037 0.671727,-0.11781 l 0.188838,-0.129933 h 0.85174 0.851741 l 0.09502,0.12852 c 0.0945,0.127833 0.09725,0.128519 0.522131,0.128519 0.23489,0 0.426684,-0.01448 0.426127,-0.03213 -5.57e-4,-0.01765 -0.210943,-0.359854 -0.467553,-0.760406 l -0.466526,-0.728276 -0.758392,-0.01174 c -0.665259,-0.01028 -0.755094,-0.0037 -0.731961,0.05355 m 3.196533,-0.04383 c 0,0.01067 0.02048,0.06435 0.0455,0.119223 0.03736,0.082 0.0067,0.213685 -0.171359,0.736031 -0.119266,0.349915 -0.216855,0.643924 -0.216855,0.653392 0,0.0094 0.197449,0.01169 0.438722,0.005 l 0.438722,-0.01221 0.194878,-0.546807 0.194879,-0.54685 0.618692,0.55756 0.618735,0.557517 h 0.645981 0.645981 l 0.250098,-0.717566 c 0.137559,-0.394683 0.258924,-0.741643 0.269677,-0.771116 0.01491,-0.04066 -0.08735,-0.05355 -0.424671,-0.05355 H 82.142629 L 81.948864,61.771328 81.7551,62.328374 81.086071,61.771328 80.417043,61.21424 h -0.68955 c -0.379217,0 -0.689506,0.0087 -0.689506,0.01941 m -2.671274,0.656091 -0.293667,0.202718 0.241702,0.0129 c 0.132889,0.0071 0.336935,0.0071 0.453331,0 l 0.211714,-0.0129 -0.132632,-0.203489 c -0.07296,-0.111897 -0.144841,-0.203146 -0.159707,-0.202717 -0.01491,4.28e-4 -0.159235,0.09202 -0.320741,0.203488"
       stroke="none"
       fill="#ebdd06"
       fill-rule="evenodd"
       id="path1-2"
       style="stroke-width:0.0428398" /></g></svg>
