<svg xmlns="http://www.w3.org/2000/svg" width="24" height="24"><path fill="#403a30" fill-rule="evenodd" d="M11.86 4.1c-.24.12-.63.2-1 .22l-.61.02.58.03c.5.04.58.06.52.21-.14.33-.18 1.62-.05 1.62q.14 0 .02.13a.2.2 0 0 0-.02.27q.1.15.1.03.01-.12.16-.13c.13 0 .13-.04-.03-.26-.17-.23-.18-.35-.1-.83.08-.55.3-.87.51-.74q.09.05-.03-.1c-.16-.2-.07-.2 1.16-.01.45.07.62.25.76.85.06.24.04.25-.25.2-.3-.03-.3-.02-.25.25.15.76.17.72-.35.59-.2-.05-.3-.01-.46.15-.12.13-.26.2-.34.15q-.1-.05.06.1c.18.13.21.13.37 0q.16-.16.56-.13c.36.03.38.05.38.35 0 .18.03.32.06.3.04 0 .16.06.27.16q.2.2.25.05.04-.09 0 .2c-.05.27-.03.31.1.26q.4-.14-.2.5l-.36.38-.61-.07-.77-.08c-.28-.04-.8-.49-.75-.64q.04-.13-.03-.09c-.12.08-.22-.34-.14-.64.03-.14.13-.33.21-.43q.13-.17.09-.24-.06-.04-.07.05-.01.1-.13.06-.12-.02-.15.13a4 4 0 0 1-.24 1.2q-.09.11.02.18c.15.1.12.23-.07.27-.1.02.25.21.77.44l.93.4.96-.42c.54-.23.95-.47.93-.53q-.02-.12.16-.07.2.05.33-.1.12-.16.02-.1c-.06.03-.23.02-.37-.04q-.27-.1-.26-.35a2 2 0 0 0-.2-.68q-.22-.43-.26-1.22a5 5 0 0 0-.2-1.17l-.14-.37.78-.04.77-.03-.82-.02c-.62-.02-.9-.07-1.15-.22-.41-.25-.92-.25-1.42 0m.34 0q.02.1.2.1t.2.1c0 .05.17.1.38.1h.37l-.24-.2c-.24-.2-.91-.28-.91-.1m.27 1.57c-.13.13-.07.32.08.27q.13-.04.15.06 0 .13.2-.05c.11-.1.2-.22.2-.27 0-.1-.54-.11-.63-.01m.46 1.32c-.3.15-.73.81-.53.81q.1-.02.2-.25c.1-.23.17-.25.28-.25.25 0 .53-.23.44-.36q-.06-.12-.39.05m-.23.9c0 .13.25.31.49.36a1 1 0 0 1 .3.1q.09.04.16-.05c.06-.1-.34-.31-.46-.24q-.07.02-.2-.11c-.13-.17-.29-.2-.29-.06m-7.66.35a1.6 1.6 0 0 0-.8.92c-.07.27.19.79.43.89.14.05.1.1-.2.2-.57.2-.86.42-1.18.93-.59.93-.26 1.96.76 2.43 1.22.56 2.75-.2 2.75-1.35 0-.7-.52-1.18-1.04-.94-.38.17-.46.58-.11.58.38 0 .59.66.35 1.1-.13.23-.6.5-.9.5-.84 0-1.26-1.06-.81-2.05.22-.5.77-.99 1.27-1.15l.37-.13-.3-.12q-.84-.38-.2-1.27c.36-.5 1.06-.6 1.22-.2q.06.17-.2.38l-.26.2.21.2c.2.17.24.17.48.03.38-.2.41-.67.07-.99-.21-.2-.38-.25-.93-.27-.42-.02-.79.02-.98.1m13.34 1.97c.04 1.4-.02 1.6-.43 1.6-.5 0-.72-.63-.35-1 .16-.16.24-.18.4-.1q.22.14.26-.05c.1-.25-.15-.45-.56-.45-.54 0-.9.43-.9 1.09 0 .39.05.52.28.74.32.3.76.35 1.09.12.18-.13.22-.13.33 0 .15.18.42.2.58.03.09-.09.17-.09.34 0 .6.29 1.27.2 1.48-.18q.37-.69-.65-1.02c-.49-.16-.54-.42-.1-.46.27-.03.32 0 .3.2 0 .32.49.34.53.01.08-.53-1.08-.74-1.53-.28-.44.43-.26.82.5 1.08.46.16.53.4.13.45-.22.03-.28 0-.28-.16 0-.22-.22-.34-.45-.26q-.13.07-.15.2 0 .13-.1.14c-.06 0-.1-.57-.1-1.5V8.9h-.65zm-10.43.04q-.24.36.13.79c.14.16.14.2-.04.43-.1.14-.23.27-.28.28-.05 0-.17-.27-.26-.61-.21-.78-.34-.93-.76-.93-.38 0-.4.08-.18.53.1.17.24.58.33.92.16.59.17.6.53.63.4.03.6-.1 1-.68.15-.2.2-.22.25-.1.03.08.2.3.39.48.27.27.4.32.78.32.37 0 .52-.05.73-.26.28-.28.25-.41-.05-.25a.9.9 0 0 1-.87-.03c-.18-.13-.17-.14.12-.2.42-.1.83-.5.83-.8 0-.28-.42-.66-.72-.66-.38 0-.86.31-1.05.68l-.18.37-.03-.45c-.05-.7-.37-.92-.67-.46m2.97.99.03 1.02.36.03.36.03-.05-.7c-.02-.38-.02-.77.02-.86.05-.14.08-.14.29 0 .31.2.63 0 .53-.33-.08-.25-.53-.3-.74-.1-.1.1-.15.1-.24 0a.6.6 0 0 0-.35-.12c-.23 0-.24.01-.2 1.03m1.91-.8c-.38.33-.45 1.1-.14 1.5.32.4.63.5 1.06.32.32-.13.38-.13.61.02.25.17.26.16.51-.12l.25-.3-.22-.03c-.21-.03-.22-.08-.2-.8s.01-.77-.2-.8a.5.5 0 0 0-.36.08q-.13.11-.2 0c-.12-.2-.82-.11-1.1.13m2.37.8.03 1.02h.7l-.03-.72c-.04-.85.01-.99.3-.79s.6.04.56-.27c-.04-.26-.5-.36-.74-.16q-.15.15-.26 0a.6.6 0 0 0-.35-.11c-.23 0-.24.01-.2 1.03m-5.57-.5q-.31.46.03.47c.2 0 .51-.35.51-.57s-.38-.15-.54.1m3.7.05c-.2.23-.21.75-.02.92.08.06.27.1.43.08.26-.03.28-.06.31-.56q.03-.53-.07-.48a.12.12 0 0 1-.16-.04c-.1-.15-.3-.12-.48.08m-2.05 2.74q.02.35.23.36.24.05.05-.07c-.13-.1-.13-.12 0-.21.12-.08.13-.11.01-.19q-.16-.1 0-.14.12-.05-.1-.06c-.2 0-.22.03-.2.31m2.76-.26c-.1.1-.08.52.03.59q.1.04.1-.11c0-.16.01-.16.2.01.18.16.3.08.13-.09a.4.4 0 0 1-.08-.24c0-.17-.26-.28-.38-.16m1.33.23c0 .17.04.33.1.36q.1.05.1-.1c0-.2.2-.2.36.03.12.15.13.13.14-.2 0-.21-.04-.38-.1-.38a.1.1 0 0 0-.1.1q-.01.1-.15.1t-.15-.1a.1.1 0 0 0-.1-.1c-.05 0-.1.13-.1.3m1.41.08c0 .2.03.3.06.2q.04-.16.1-.18.06.02.2.18.11.15.13.05a.2.2 0 0 0-.1-.17q-.07-.08-.03-.26.07-.21-.16-.2c-.18 0-.2.06-.2.38"/></svg>