<?xml version="1.0" encoding="UTF-8" standalone="no"?>
<svg
   viewBox="0 0 24 24"
   width="24pt"
   height="24pt"
   version="1.1"
   id="svg1"
   sodipodi:docname="fabryka_formy.svg"
   xml:space="preserve"
   inkscape:version="1.3 (0e150ed6c4, 2023-07-21)"
   xmlns:inkscape="http://www.inkscape.org/namespaces/inkscape"
   xmlns:sodipodi="http://sodipodi.sourceforge.net/DTD/sodipodi-0.dtd"
   xmlns="http://www.w3.org/2000/svg"
   xmlns:svg="http://www.w3.org/2000/svg"><defs
     id="defs1" /><sodipodi:namedview
     id="namedview1"
     pagecolor="#ffffff"
     bordercolor="#000000"
     borderopacity="0.25"
     inkscape:showpageshadow="2"
     inkscape:pageopacity="0.0"
     inkscape:pagecheckerboard="0"
     inkscape:deskcolor="#d1d1d1"
     inkscape:document-units="pt"
     inkscape:zoom="11.546875"
     inkscape:cx="-10.305819"
     inkscape:cy="12.947226"
     inkscape:window-width="1920"
     inkscape:window-height="974"
     inkscape:window-x="-11"
     inkscape:window-y="1609"
     inkscape:window-maximized="1"
     inkscape:current-layer="svg1" /><g
     id="g3"><circle
       style="fill:#b81621;fill-opacity:1;stroke-width:0.873239"
       id="path2"
       cx="18.878601"
       cy="18.637257"
       r="8.0541267"
       transform="translate(-6.7974108,-8.634549)" /><rect
       style="fill:#ffffff;fill-opacity:1;stroke-width:0.75"
       id="rect2"
       width="8.7686062"
       height="8.7036533"
       x="7.9891748"
       y="5.3261166" /><g
       id="g2"
       style="fill:#b81621;fill-opacity:1"
       transform="matrix(0.45066532,0,0,0.45066532,-27.396097,2.56328)"><path
         d="M 74.382783,16.60828 75.464729,27.713365 86.569811,30.526426 100.70435,27.929754 100.92073,16.1755 100.48795,4.204856 86.137033,2.473741 75.24834,4.4212452 Z M 92.6571,9.2081148 V 10.84921 h -4.759177 -4.759178 v 4.759178 4.775588 l -1.591861,-0.04923 -1.608276,-0.04923 -0.04923,-6.154108 c -0.01641,-3.380657 0,-6.252574 0.04923,-6.3510396 0.04923,-0.1641093 1.476987,-0.2133414 6.400275,-0.2133414 H 92.6571 Z m 4.84123,4.7591762 v 1.559041 l -4.791998,0.04923 -4.808409,0.03282 v 4.759178 4.759176 h -1.55904 -1.559041 v -6.400269 -6.400273 l 6.367449,0.03282 6.351039,0.04923 z m -4.84123,4.759177 v 1.641096 h -1.559041 -1.559042 v -1.641096 -1.641095 h 1.559042 1.559041 z"
         id="path1-5"
         style="fill:#b81621;fill-opacity:1;stroke:none;stroke-width:0.0164109"
         sodipodi:nodetypes="cccccccccccccccccccscccccccccccccccccccccccc" /></g></g></svg>
