<svg xmlns="http://www.w3.org/2000/svg" width="24" height="24"><path fill="#736a39" fill-rule="evenodd" d="M3 7.15q.02.13.18.15c.39 0 .57.44.22.53-.28.07-.25.27.04.27.22 0 .26.06.36.58.24 1.18.29 1.34.44 1.51.09.1.16.24.16.33 0 .24.34.48.67.48.29 0 .55-.2.66-.5q.07-.2.06.01c.01.23.34.49.62.49.36 0 .56-.19.74-.7.14-.4.55-2.2.55-2.41 0-.05-.83-.09-1.84-.09-1.83 0-1.85 0-1.92-.22a1 1 0 0 0-.22-.4C3.53 6.96 3 6.94 3 7.15m5.3.95c-.06.12-.1.61-.08 1.18.03.92.04.97.25 1 .22.03.23 0 .23-.66 0-.53.04-.71.15-.76.18-.07.2-.32.03-.4q-.15-.06 0-.12c.06-.03.12-.14.12-.25 0-.27-.55-.27-.7.01m6.1 1c0 1.2 0 1.21.22 1.18s.23-.06.23-1.18 0-1.15-.22-1.18c-.23-.03-.23-.02-.23 1.18m-5-.68c-.14.08-.26.21-.28.31-.03.16.02.17.47.11q.52-.06.51.05c0 .06-.12.13-.27.16-.55.11-.78.3-.81.62-.04.43.32.68.85.6.52-.09.66-.28.7-.94.04-.48.02-.61-.14-.75a1 1 0 0 0-1.03-.16m1.84.03c-.39.16-.44.3-.44 1.16 0 .67 0 .69.25.69.23 0 .24-.03.27-.72.03-.7.04-.73.28-.73s.25.03.28.73c.03.69.04.72.27.72s.24-.03.27-.72c.03-.7.04-.73.28-.73s.25.04.28.6c.03.6.14.85.38.85.1 0 .14-.18.14-.78 0-1.07-.15-1.2-1.25-1.1-.11.01-.31-.01-.45-.04-.14-.04-.39 0-.56.07m2.46.9v.95h.51l-.03-.93c-.03-.87-.04-.92-.25-.95-.22-.03-.23-.01-.23.92m1.75.07c.33.97.34 1.01.15 1.06-.3.08-.26.43.04.43.37 0 .51-.2.87-1.27l.37-1.11q.06-.15-.24-.1c-.25.03-.3.1-.44.58-.17.6-.2.59-.4-.12-.11-.43-.16-.48-.4-.48h-.29zm4.75-.13-.17.76q-.04.18.08.14c.07-.02.16-.17.2-.32.18-.65.53-.7.43-.05-.08.47.1.54.2.08.12-.62.09-.72-.23-.67-.28.04-.3.03-.24-.24q.04-.26-.05-.28c-.06 0-.16.26-.22.58m-2.88.05c-.2.25-.24.63-.07.8.2.2.26.21.5.01.2-.15.2-.15-.02-.1-.32.06-.45-.14-.3-.44q.14-.25.35-.23T18 9.3c0-.14-.56-.12-.68.03m.9 0c-.35.42-.13 1.1.29.87q.2-.12.19.02c0 .27.18-.1.28-.54l.1-.48h-.38c-.2 0-.42.06-.48.13m1.15-.06c-.13.12-.07.42.1.51.21.12.07.35-.18.27-.23-.08-.26.1-.03.2.18.06.64-.19.64-.35 0-.05-.1-.16-.21-.24-.22-.15-.17-.41.07-.32q.13.04.14-.04c0-.11-.43-.14-.53-.03m-9.75.2c-.14.06-.16.3-.02.38s.5-.13.5-.3c0-.15-.22-.18-.47-.08m8.74 0c-.1.1-.08.63.02.63.12 0 .41-.4.41-.57 0-.14-.32-.18-.43-.06m-13.51.69q-.3.27.07.48c.24.15.56-.17.41-.41q-.22-.36-.48-.07m1.34-.01c-.25.3.15.7.45.45.19-.16.19-.25 0-.44-.2-.2-.3-.2-.45-.01"/></svg>