<?xml version="1.0" encoding="UTF-8" standalone="no"?>
<svg
   viewBox="0 0 14.157645 14.157644"
   width="14.157645pt"
   height="14.157644pt"
   version="1.1"
   id="svg1"
   xmlns="http://www.w3.org/2000/svg"
   xmlns:svg="http://www.w3.org/2000/svg">
  <defs
     id="defs1" />
  <path
     d="m 7.0788218,2.1378046 c -2.7239303,0 -4.9410176,2.2170873 -4.9410176,4.9410182 0,2.7239309 2.2170873,4.9410182 4.9410176,4.9410182 2.723932,0 4.9410202,-2.2170873 4.9410202,-4.9410182 0,-2.7239309 -2.2170882,-4.9410182 -4.9410202,-4.9410182 m 0,10.0037924 c -2.791887,0 -5.0627733,-2.2708863 -5.0627733,-5.0627742 0,-2.7918876 2.2708863,-5.0656055 5.0627733,-5.0656055 2.791889,0 5.0656072,2.2708864 5.0656072,5.0656055 0,2.7947189 -2.2708862,5.0627742 -5.0656072,5.0627742"
     id="path1-3"
     style="fill:#f9f9f9;stroke-width:0.0283153" />
  <path
     d="m 7.0788218,0.24634309 c -3.765933,0 -6.82964754,3.06371461 -6.82964754,6.82964871 0,3.7659332 3.06371454,6.8296472 6.82964754,6.8296472 3.7659352,0 6.8296502,-3.063714 6.8296502,-6.8296472 0,-3.7659341 -3.063715,-6.82964871 -6.8296502,-6.82964871 m 0,13.91130191 C 3.1769754,14.157645 -3.3757935e-7,10.98067 -3.3757935e-7,7.0788228 -3.3757935e-7,3.1741443 3.1741439,9.277954e-8 7.0788218,9.277954e-8 10.983502,9.277954e-8 14.157646,3.1741443 14.157646,7.0788228 c 0,3.9018472 -3.174144,7.0788222 -7.0788242,7.0788222"
     id="path2"
     style="fill:#f9f9f9;stroke-width:0.0283153" />
  <path
     d="m 7.0788218,2.4124629 c -2.5738592,0 -4.6663593,2.0925001 -4.6663593,4.6663599 0,2.5738599 2.0925001,4.6663602 4.6663593,4.6663602 2.573861,0 4.6663612,-2.0925003 4.6663612,-4.6663602 0,-2.5738598 -2.0925002,-4.6663599 -4.6663612,-4.6663599 m 0,9.3921821 c -2.6078376,0 -4.7286529,-2.1208153 -4.7286529,-4.7286532 0,-2.6078387 2.1208153,-4.728654 4.7286529,-4.728654 2.60784,0 4.7286552,2.1208153 4.7286552,4.728654 0,2.6078379 -2.1208152,4.7286532 -4.7286552,4.7286532"
     id="path3"
     style="fill:#f9f9f9;stroke-width:0.0283153" />
  <path
     d="m 8.4917548,5.2892965 c 0.104767,-0.014158 0.195376,-0.019821 0.322795,-0.019821 0.733367,0 0.90609,0.4162348 0.90609,0.7843336 0,0.3284577 -0.152903,0.6739047 -0.758851,0.6739047 -0.116092,0 -0.33412,-0.0057 -0.467202,-0.01416 V 5.2892965 Z m -0.838132,3.0297362 c 0,0.379425 -0.138745,0.540822 -0.733366,0.540822 v 0.252006 h 2.35017 c 1.0023612,0 1.5658352,-0.552148 1.5658352,-1.206231 0,-0.521002 -0.37093,-0.9428999 -0.9598882,-1.0788129 v -0.01133 c 0.5040122,-0.116093 0.7475242,-0.359604 0.7475242,-0.7503553 0,-0.198207 -0.07928,-0.4247293 -0.232186,-0.583295 C 10.063255,5.13639 9.4799598,5.0259603 8.7211088,5.0259603 c -0.2605,0 -0.620105,0.025484 -0.985372,0.045305 -0.322794,0.019821 -0.614442,0.045305 -0.764513,0.050968 v 0.2520061 h 0.152903 c 0.461539,0 0.526664,0.070788 0.526664,0.5634743 v 2.381316 z m 0.838132,-1.3279869 c 0.09061,-0.0057 0.328458,-0.01982 0.44455,-0.01982 0.789998,0 0.95989,0.5719689 0.95989,0.9570569 0,0.430392 -0.169892,0.891932 -0.84946,0.891932 -0.387919,0 -0.552148,-0.11043 -0.552148,-0.577632 V 6.9910468 Z"
     id="path4"
     style="fill:#f9f9f9;stroke-width:0.0283153" />
  <path
     d="m 10.717338,5.0344589 c -0.138745,0 -0.249174,0.1132612 -0.249174,0.2491746 0,0.1387449 0.110429,0.2491746 0.249174,0.2491746 0.138745,0 0.249175,-0.1104297 0.249175,-0.2491746 0,-0.1359134 -0.113261,-0.2491746 -0.249175,-0.2491746 m 0,0.050968 c 0.11043,0 0.201039,0.087777 0.201039,0.2010386 0,0.1104297 -0.09061,0.2010386 -0.201039,0.2010386 -0.110429,0 -0.201038,-0.090609 -0.201038,-0.2010386 0,-0.1132611 0.09061,-0.2010386 0.201038,-0.2010386 m 0.116093,0.331289 -0.03115,-0.053799 c -0.02548,-0.048136 -0.03398,-0.053799 -0.05663,-0.062294 v 0 c 0.0453,-0.00566 0.07079,-0.033978 0.07079,-0.07362 0,-0.042473 -0.02548,-0.07362 -0.08211,-0.07362 h -0.13025 v 0.2661638 h 0.0538 V 5.3119488 h 0.0085 c 0.02265,0 0.03398,0.00283 0.04247,0.014158 0.01133,0.011326 0.02548,0.033978 0.03681,0.050968 l 0.02265,0.042473 h 0.06513 z M 10.657876,5.2666443 v -0.07362 h 0.04814 c 0.03681,0 0.0538,0.014158 0.0538,0.03681 0,0.019821 -0.01133,0.03681 -0.04814,0.03681 z"
     id="path5"
     style="fill:#f9f9f9;stroke-width:0.0283153" />
  <polygon
     points="106.1,263.8 114.1,266.1 118.6,250.4 125.1,252.2 120.7,267.9 135.3,272.1 132.8,281 97,270.8 104,246.2 110.6,248.1 "
     id="polygon5"
     transform="matrix(0.02831529,0,0,0.02831529,-1.9990599,-2.0302063)"
     style="fill:#f9f9f9" />
  <path
     d="M 2.0103854,4.2104839 1.5686668,4.168011 1.8574828,4.4964684 Z M 1.4157643,3.9188364 2.5625336,4.0009508 2.4294517,4.2501253 2.2057609,4.2303046 1.9849016,4.6465394 2.1321411,4.8135996 2.0018908,5.0599427 1.2741878,4.1906632 Z"
     id="path6"
     style="fill:#f9f9f9;stroke-width:0.0283153" />
  <path
     d="m 2.2567284,3.0382309 0.1812179,0.1585656 0.090609,-0.1047666 c 0.028315,-0.033978 0.045305,-0.065125 0.045305,-0.099104 0,-0.033978 -0.011326,-0.062294 -0.042473,-0.087777 -0.059462,-0.050968 -0.1217558,-0.039641 -0.186881,0.033978 z M 1.9395972,3.1090191 2.2482338,2.755078 c 0.067957,-0.076451 0.144408,-0.1189243 0.2293539,-0.1274189 0.087777,-0.00849 0.1613972,0.014158 0.2236908,0.067957 0.087777,0.076451 0.1104296,0.1783864 0.07362,0.3058052 0.053799,-0.022652 0.1330818,-0.019821 0.246343,0.014158 0.1104296,0.033978 0.2151962,0.065125 0.3142997,0.09344 L 3.1458286,3.3242153 C 3.1090187,3.3128892 3.0382305,3.2930685 2.939127,3.2619217 2.8371919,3.2307749 2.7664037,3.2166172 2.7267623,3.2194487 c -0.039641,0.00566 -0.07362,0.019821 -0.096272,0.045305 l -0.050967,0.05663 0.3199627,0.2831529 -0.1698917,0.198207 z"
     id="path7"
     style="fill:#f9f9f9;stroke-width:0.0283153" />
  <path
     d="m 3.2477636,2.0896686 0.1415765,0.192544 0.1104296,-0.082114 c 0.03681,-0.025484 0.056631,-0.053799 0.065125,-0.087777 0.00849,-0.031147 0,-0.065125 -0.022652,-0.096272 -0.048136,-0.065125 -0.1104297,-0.065125 -0.192544,-0.00849 z M 2.9221378,2.0868371 3.3015627,1.8093472 c 0.082114,-0.059462 0.1670602,-0.084946 0.2520061,-0.076451 0.087777,0.00849 0.1529026,0.048136 0.2038701,0.1160927 0.067957,0.09344 0.070788,0.1982071 0.00566,0.3142998 0.056631,-0.011326 0.1359134,0.011326 0.235017,0.067957 0.101935,0.056631 0.1953755,0.1104296 0.2888159,0.1585656 L 4.0547494,2.5597024 C 4.0207711,2.5427133 3.9584774,2.5059034 3.865037,2.4521043 3.7744281,2.3983053 3.7064714,2.36999 3.6668299,2.3643269 c -0.039641,-0.00283 -0.076451,0.00283 -0.101935,0.025484 l -0.059462,0.045304 0.2520061,0.3454465 -0.2123647,0.1557341 z"
     id="path8"
     style="fill:#f9f9f9;stroke-width:0.0283153" />
  <path
     d="m 4.9296922,1.8659778 c 0.09061,-0.03681 0.1557336,-0.096272 0.1868806,-0.1727233 0.03398,-0.076451 0.03115,-0.1613971 -0.0057,-0.2491745 -0.03681,-0.087777 -0.09344,-0.1500711 -0.1727236,-0.1812179 -0.07928,-0.031147 -0.1642284,-0.028315 -0.2548373,0.011326 -0.09344,0.03681 -0.1557341,0.096272 -0.1897124,0.1727233 -0.033978,0.076451 -0.033978,0.1613972 0.00283,0.2491746 0.03681,0.087777 0.09344,0.150071 0.1727233,0.1812178 0.084946,0.031147 0.1698917,0.028315 0.2605004,-0.011326 M 4.6012346,1.0703181 c 0.1642287,-0.067957 0.3199626,-0.07362 0.4643702,-0.016989 0.144408,0.056631 0.243512,0.1529026 0.297311,0.2859845 0.05663,0.1359134 0.05097,0.2718268 -0.01133,0.4134032 -0.06229,0.1415765 -0.175555,0.2463431 -0.3397836,0.3142998 -0.1642286,0.067957 -0.3199627,0.07362 -0.4643707,0.019821 C 4.4030275,2.0302065 4.303924,1.936766 4.2472934,1.8008526 4.1934944,1.6677708 4.1963259,1.5290258 4.255788,1.3874494 4.3237447,1.2458729 4.4370059,1.1411063 4.6012346,1.0703181"
     id="path9"
     style="fill:#f9f9f9;stroke-width:0.0283153" />
  <polygon
     points="314.8,130.1 301.2,107 291.9,132.2 287.9,132.5 268.3,96.5 278.1,95.6 288.6,115.3 296.3,94 303.7,93.3 315.1,112.9 321.9,91.7 331.6,90.8 318.8,129.7 "
     id="polygon9"
     transform="matrix(0.02831529,0,0,0.02831529,-1.9990599,-2.0302063)"
     style="fill:#f9f9f9" />
  <path
     d="m 8.8796748,1.2458729 c 0.07928,-0.016989 0.124587,-0.048136 0.141576,-0.09344 0.0085,-0.025484 0.0057,-0.048136 -0.0057,-0.067957 -0.01133,-0.019821 -0.03115,-0.03681 -0.05946,-0.045305 -0.02831,-0.00849 -0.05097,-0.00849 -0.07362,0 -0.02265,0.00849 -0.03681,0.025484 -0.04247,0.045305 -0.01416,0.039641 0,0.09344 0.03964,0.1613971 m -0.05663,0.4558762 -0.116092,-0.2520061 c -0.08211,0.022652 -0.130251,0.056631 -0.144408,0.1019351 -0.01133,0.031147 -0.0057,0.062294 0.01133,0.09344 0.01699,0.031147 0.04247,0.050968 0.07645,0.062294 0.04814,0.016989 0.107598,0.014158 0.172723,-0.00566 m 0.379426,-0.2208593 0.215196,0.067957 c -0.0991,0.1132612 -0.198207,0.192544 -0.297311,0.235017 l 0.13025,0.2859844 -0.302974,-0.096272 -0.04814,-0.101935 c -0.116093,0.031147 -0.232186,0.028315 -0.345447,-0.00849 -0.09061,-0.028315 -0.158566,-0.079283 -0.20387,-0.1472395 -0.0453,-0.070788 -0.0538,-0.1415765 -0.03115,-0.2180278 0.03681,-0.1132611 0.141577,-0.1840494 0.3143,-0.2123647 -0.03398,-0.101935 -0.03964,-0.1868809 -0.01982,-0.2520061 0.02265,-0.07362 0.07362,-0.12741881 0.14724,-0.15573411 0.07362,-0.031147 0.155734,-0.031147 0.243511,-0.00283 0.08495,0.028315 0.14724,0.070788 0.186883,0.13308191 0.03964,0.062294 0.04814,0.1274188 0.02548,0.198207 -0.03115,0.096272 -0.121758,0.1642287 -0.268996,0.1982071 l 0.08494,0.2010385 c 0.06229,-0.033978 0.116093,-0.07362 0.169894,-0.1245873"
     id="path10"
     style="fill:#f9f9f9;stroke-width:0.0283153" />
  <path
     d="m 10.73999,1.9594183 -0.135913,0.1783863 0.11043,0.082114 c 0.03398,0.025484 0.06513,0.03681 0.0991,0.033978 0.03115,-0.00283 0.05663,-0.016989 0.07645,-0.042473 0.01982,-0.025484 0.02548,-0.053799 0.01982,-0.084946 -0.0057,-0.031147 -0.02548,-0.059462 -0.05946,-0.084946 z m -0.252006,0.3341204 -0.150071,0.198207 0.118925,0.087778 c 0.05663,0.042473 0.101935,0.065125 0.138745,0.067957 0.03681,0.00283 0.06796,-0.014158 0.09627,-0.053799 0.02265,-0.028315 0.02831,-0.062294 0.01699,-0.096272 -0.01133,-0.033978 -0.03398,-0.065125 -0.07362,-0.096272 z m 0.158566,-0.6455886 0.362436,0.2746583 c 0.08778,0.065125 0.138745,0.1387449 0.155734,0.2151962 0.01699,0.079283 0.0057,0.1472395 -0.03681,0.2038701 -0.0538,0.07362 -0.135913,0.099104 -0.24068,0.082114 0.0453,0.059462 0.07079,0.1189243 0.07079,0.1812179 0.0028,0.062294 -0.01699,0.1189242 -0.05663,0.1698918 -0.0538,0.07362 -0.124588,0.1132611 -0.209533,0.1217557 -0.08495,0.00849 -0.175555,-0.025484 -0.271827,-0.099104 L 10.012288,2.4889142 Z"
     id="path11"
     style="fill:#f9f9f9;stroke-width:0.0283153" />
  <path
     d="M 11.651743,3.4686233 11.855613,3.0750408 11.44221,3.2194487 Z M 12.144429,3.0297363 11.634754,4.0632444 11.453536,3.8480482 11.558302,3.6470096 11.255329,3.2845739 11.045796,3.3581937 10.867409,3.145829 11.946222,2.7975509 Z"
     id="path12"
     style="fill:#f9f9f9;stroke-width:0.0283153" />
  <polygon
     points="504.8,245.4 498.7,248.5 485.8,223.3 518.9,206.4 523.1,214.7 496.1,228.5 "
     id="polygon12"
     transform="matrix(0.02831529,0,0,0.02831529,-1.9990599,-2.0302063)"
     style="fill:#f9f9f9" />
  <polygon
     points="516.2,283.2 509.6,285.1 502,257.8 537.8,247.8 540.2,256.7 511,264.9 "
     id="polygon13"
     transform="matrix(0.02831529,0,0,0.02831529,-1.9990599,-2.0302063)"
     style="fill:#f9f9f9" />
  <path
     d="m 13.143959,7.2232308 c 0,0.07362 -0.05946,0.1330819 -0.133082,0.1330819 -0.07362,0 -0.133082,-0.05946 -0.133082,-0.1330819 0,-0.07362 0.05946,-0.133082 0.133082,-0.133082 0.07362,-0.0028 0.133082,0.05946 0.133082,0.133082"
     id="path13"
     style="fill:#f9f9f9;stroke-width:0.0283153" />
  <path
     d="m 1.2798509,7.2232308 c 0,0.07362 -0.059462,0.1330819 -0.1330819,0.1330819 -0.07362,0 -0.1330819,-0.05946 -0.1330819,-0.1330819 0,-0.07362 0.059462,-0.133082 0.1330819,-0.133082 0.07362,-0.0028 0.1330819,0.05946 0.1330819,0.133082"
     id="path14"
     style="fill:#f9f9f9;stroke-width:0.0283153" />
  <path
     d="M 4.7767894,8.3020437 V 7.2685358 h 0.8183114 c 0.0538,-0.158566 0.169892,-0.285985 0.319963,-0.353942 H 4.7767894 V 5.4705144 h 1.1722524 c 0.274659,0 0.359604,0.1302504 0.382257,0.5521482 l 0.218027,-0.053799 V 5.1165733 H 3.4827806 v 0.2435115 h 0.079283 c 0.2661637,0 0.3765933,0.1217557 0.3765933,0.5323275 v 2.5993434 c 0,0.274659 -0.096272,0.365267 -0.3596042,0.365267 h -0.096272 v 0.252007 h 1.8150101 v -0.252007 h -0.116093 c -0.3256256,0.0028 -0.4049084,-0.09344 -0.4049084,-0.554979"
     id="path15"
     style="fill:#f9f9f9;stroke-width:0.0283153" />
  <path
     d="m 6.3935918,6.5776428 c 0,-0.08211 0.05097,-0.133082 0.133082,-0.133082 0.09627,0 0.158566,0.06796 0.158566,0.172723 0,0.08211 -0.03115,0.147239 -0.104767,0.215196 -0.13025,-0.0991 -0.186881,-0.155734 -0.186881,-0.254837 m 1.078813,1.0165179 c -0.04247,0.03964 -0.09627,0.06229 -0.135913,0.06229 -0.107599,0 -0.167061,-0.133082 -0.274659,-0.317131 0.141577,-0.1925439 0.226523,-0.4134029 0.288816,-0.4756969 0.03398,-0.03398 0.07079,-0.04247 0.14724,-0.04247 h 0.03964 v -0.09344 h -0.484191 v 0.09344 h 0.02832 c 0.08211,0 0.113261,0.01133 0.113261,0.04247 0,0.05663 -0.0991,0.254838 -0.189712,0.385088 -0.135914,-0.184049 -0.212365,-0.263332 -0.336952,-0.353941 0.144408,-0.06796 0.220859,-0.16706 0.220859,-0.283153 0,-0.155734 -0.141577,-0.254838 -0.356773,-0.254838 -0.24068,0 -0.404908,0.118924 -0.404908,0.297311 0,0.113261 0.0538,0.206701 0.181217,0.322794 -0.271826,0.11043 -0.393582,0.24068 -0.393582,0.4275609 0,0.254838 0.198207,0.416235 0.427561,0.416235 0.169892,0 0.365267,-0.08495 0.495517,-0.223691 0.107598,0.164229 0.18405,0.223691 0.334121,0.223691 0.121756,0 0.260501,-0.0538 0.348278,-0.135914 z M 6.2152058,7.3053448 c 0,-0.110429 0.05663,-0.201038 0.172723,-0.271826 0.150071,0.133082 0.305805,0.2944789 0.396414,0.4643699 -0.107598,0.0991 -0.189712,0.141577 -0.280321,0.141577 -0.155734,0 -0.288816,-0.155734 -0.288816,-0.3341209"
     id="path16"
     style="fill:#f9f9f9;stroke-width:0.0283153" />
  <path
     d="m 1.8178414,9.3327197 c -0.033978,0.07645 -0.099104,0.135914 -0.198207,0.172724 -0.050968,0.01982 -0.1019351,0.03115 -0.1500711,0.03115 -0.039641,0 -0.079283,-0.0085 -0.1132611,-0.02265 -0.076451,-0.03115 -0.1274189,-0.09627 -0.1727233,-0.215196 -0.011326,-0.02548 -0.019821,-0.05097 -0.014158,-0.05946 0.00283,-0.01133 0.022652,-0.01982 0.050968,-0.03115 L 1.772537,8.9901097 c 0.011326,0.02265 0.019821,0.04814 0.025484,0.06513 0.048136,0.121755 0.053799,0.201038 0.019821,0.277489 m 0.1019351,0.138745 c 0.042473,-0.0991 0.028315,-0.235017 -0.045304,-0.421898 -0.016989,-0.04247 -0.039641,-0.0991 -0.065125,-0.158565 -0.022652,-0.0453 -0.065125,-0.141577 -0.076451,-0.175555 l -0.00849,-0.01699 -0.067957,0.02548 0.00849,0.01982 c 0.016989,0.04247 0.022652,0.06513 0.014158,0.07928 -0.00566,0.01416 -0.025484,0.02832 -0.062294,0.04247 l -0.4530459,0.18122 c -0.019821,0.0085 -0.039641,0.01416 -0.053799,0.01416 -0.016989,0 -0.031147,-0.01133 -0.056631,-0.07645 l -0.00849,-0.01699 -0.067957,0.02548 0.14723954,0.37093 c 0.1189242,0.297311 0.3171312,0.342615 0.4247293,0.342615 0.050968,0 0.1047666,-0.01133 0.1529026,-0.02832 0.1019351,-0.04247 0.1783864,-0.113261 0.2180278,-0.206702"
     id="path17"
     style="fill:#f9f9f9;stroke-width:0.0283153" />
  <path
     d="m 1.7923576,10.371892 c 0.019821,-0.08778 0.079283,-0.164229 0.1698918,-0.223691 0.07362,-0.04814 0.1472395,-0.07362 0.2151962,-0.07362 0.084946,0 0.1585656,0.03964 0.2067016,0.116093 0.09344,0.141576 0.03681,0.322794 -0.1387449,0.438887 -0.1585656,0.104766 -0.3312889,0.08778 -0.4162348,-0.03964 -0.039641,-0.06512 -0.053799,-0.141576 -0.03681,-0.218027 m 0.7531868,0.121755 C 2.5597023,10.38322 2.5285553,10.264295 2.4521033,10.153866 2.3586633,10.015121 2.219918,9.9358377 2.0698469,9.9358377 c -0.084946,0 -0.1698917,0.02548 -0.2435115,0.07645 -0.192544,0.127419 -0.2236908,0.382257 -0.076451,0.603116 0.093441,0.141577 0.2350169,0.223691 0.3879195,0.223691 0.082114,0 0.1642287,-0.02548 0.2321854,-0.07079 0.101935,-0.06513 0.1642287,-0.164229 0.1755548,-0.274659"
     id="path18"
     style="fill:#f9f9f9;stroke-width:0.0283153" />
  <path
     d="m 2.9957575,10.972176 c 0.00849,0.0085 0.022652,0.01699 0.028315,0.02548 0.042473,0.04247 0.065125,0.08494 0.065125,0.127418 0,0.04247 -0.019821,0.08211 -0.059462,0.124588 -0.087777,0.08778 -0.1585656,0.08211 -0.2633322,-0.01416 -0.00283,-0.0028 -0.00849,-0.0085 -0.014158,-0.01416 z m 0.09344,-0.01699 c -0.016989,-0.01699 -0.059462,-0.05946 -0.1075981,-0.101935 -0.028315,-0.02548 -0.053799,-0.04814 -0.076451,-0.06513 -0.025484,-0.02265 -0.045305,-0.03964 -0.053799,-0.04814 l -0.014158,-0.01416 -0.050968,0.05097 0.014158,0.01416 c 0.065125,0.06513 0.059462,0.07362 0.011326,0.121756 l -0.342615,0.351109 c -0.050967,0.05097 -0.065125,0.05946 -0.1274188,-0.0057 l -0.014158,-0.01416 -0.050968,0.05097 0.2944791,0.288816 0.050967,-0.05097 -0.014158,-0.01416 c -0.03681,-0.03398 -0.053799,-0.05663 -0.053799,-0.07079 0,-0.01699 0.016989,-0.03964 0.050967,-0.07362 l 0.099104,-0.0991 c 0.019821,0.01982 0.042473,0.04247 0.059462,0.05663 0.00849,0.05663 0.011326,0.08211 0.011326,0.16706 v 0.09061 c 0.00283,0.164229 0.019821,0.24068 0.1953755,0.404908 l 0.014158,0.01416 0.050968,-0.05097 -0.011326,-0.01416 c -0.062294,-0.07362 -0.084946,-0.161397 -0.087777,-0.314299 v -0.113262 c 0,-0.0028 0,-0.05663 -0.00283,-0.09627 0.096272,0.03115 0.1783863,0.01416 0.24068,-0.05097 0.048136,-0.04814 0.067957,-0.107598 0.059462,-0.175555 -0.011326,-0.07362 -0.059462,-0.152903 -0.144408,-0.237848"
     id="path19"
     style="fill:#f9f9f9;stroke-width:0.0283153" />
  <path
     d="m 4.1142116,11.784824 -0.00849,0.0028 c -0.00566,0.0028 -0.00849,0.0057 -0.019821,-0.0057 -0.011326,-0.0085 -0.022652,-0.01982 -0.03681,-0.03398 l -0.00849,-0.0085 c -0.019821,-0.01982 -0.042473,-0.03964 -0.076451,-0.06229 -0.1160927,-0.07645 -0.2491746,-0.06513 -0.3114682,0.02831 -0.067957,0.101935 -0.016989,0.229354 0.031147,0.342615 0.039641,0.09627 0.076451,0.186881 0.03681,0.246343 -0.033978,0.05097 -0.1047666,0.05663 -0.1698918,0.01416 -0.079283,-0.0538 -0.1047665,-0.138745 -0.070788,-0.24068 l 0.00566,-0.01416 -0.062294,-0.04247 -0.1104296,0.226522 0.039641,0.02548 0.011326,0.0057 0.00849,-0.0028 c 0.00283,0 0.00566,0 0.014158,0.0057 0.00849,0.0057 0.016989,0.01416 0.028315,0.02832 0.019821,0.01982 0.045304,0.04814 0.096272,0.08211 0.059462,0.03964 0.1217558,0.06229 0.1812179,0.06229 0.076451,0 0.1387449,-0.03398 0.1812179,-0.09627 0.076451,-0.116093 0.019821,-0.246343 -0.031147,-0.362436 -0.039642,-0.08778 -0.07362,-0.169892 -0.039642,-0.223691 0.025484,-0.03964 0.079283,-0.0453 0.1274189,-0.01133 0.065125,0.04247 0.090609,0.127419 0.070788,0.218028 l -0.00283,0.01416 0.059462,0.03964 0.101935,-0.206702 z"
     id="path20"
     style="fill:#f9f9f9;stroke-width:0.0283153" />
  <path
     d="m 4.3690492,12.045325 0.016989,0.0085 c 0.033978,0.01699 0.062294,0.02832 0.070788,0.04247 0.00566,0.0085 0.011326,0.02265 -0.00566,0.05663 l -0.2236908,0.478528 c -0.016989,0.03398 -0.028315,0.03964 -0.042473,0.03964 -0.016989,0 -0.039641,-0.0085 -0.079283,-0.02548 l -0.016989,-0.0085 -0.031147,0.06513 0.6342625,0.29448 0.1189242,-0.201039 -0.062294,-0.02831 -0.00849,0.01133 c -0.048136,0.05663 -0.07362,0.07362 -0.1019351,0.07362 -0.025484,0 -0.05663,-0.01133 -0.096272,-0.03115 l -0.1217558,-0.05663 c -0.042473,-0.01982 -0.048136,-0.02265 -0.019821,-0.08495 l 0.084946,-0.184049 0.1529025,0.07079 c 0.048136,0.02265 0.059462,0.02831 0.031147,0.101935 l -0.00566,0.01699 0.065125,0.02832 0.1189242,-0.25767 -0.065125,-0.03115 -0.00849,0.01416 c -0.025484,0.0453 -0.03681,0.0538 -0.048136,0.0538 -0.011326,0 -0.028315,-0.0057 -0.048136,-0.01699 l -0.1529026,-0.07079 0.1047666,-0.223691 0.1783863,0.08211 c 0.065125,0.03115 0.07362,0.03398 0.056631,0.121756 l -0.0085,0.03964 0.06229,0.02832 0.08211,-0.206702 -0.6002842,-0.280321 z"
     id="path21"
     style="fill:#f9f9f9;stroke-width:0.0283153" />
  <path
     d="m 5.9547048,12.538011 c -0.0028,0.0028 -0.0028,0.0028 -0.0057,0.0028 -0.0085,0 -0.02832,-0.0057 -0.0538,-0.01133 l -0.498311,-0.133047 c -0.02831,-0.0085 -0.04247,-0.01133 -0.0538,-0.01699 -0.0028,0 -0.0028,0 -0.0057,-0.0085 l -0.0028,-0.01133 -0.05946,-0.01699 -0.08778,0.235017 0.07079,0.01982 0.0057,-0.01699 c 0.03964,-0.09061 0.05663,-0.09627 0.07645,-0.09627 0.01133,0 0.02548,0.0028 0.0453,0.0085 l 0.150071,0.03964 -0.141576,0.53799 c -0.01416,0.05097 -0.02548,0.05946 -0.05097,0.05946 -0.01699,0 -0.0453,-0.0057 -0.08495,-0.01699 l -0.01982,-0.0057 -0.01982,0.07079 0.441718,0.118925 0.01982,-0.07079 -0.01982,-0.0057 c -0.118924,-0.03115 -0.116092,-0.03964 -0.0991,-0.104766 l 0.141576,-0.537991 0.150071,0.03964 c 0.05946,0.01699 0.07645,0.01982 0.06229,0.138745 l -0.0028,0.01699 0.07079,0.01982 0.03964,-0.246343 -0.06229,-0.01699 z"
     id="path22"
     style="fill:#f9f9f9;stroke-width:0.0283153" />
  <path
     d="m 7.5035518,13.226072 c -0.02832,0.11043 -0.0453,0.124588 -0.158566,0.127419 l -0.144408,0.0028 c -0.03964,0 -0.0453,0 -0.0453,-0.06796 l -0.0028,-0.20387 0.178386,-0.0028 c 0.04247,0 0.0538,0 0.06513,0.07928 l 0.0028,0.01699 0.07079,-0.0028 -0.0057,-0.283153 h -0.07079 v 0.01699 c -0.0057,0.07645 -0.01133,0.07645 -0.07079,0.07645 l -0.169892,0.0028 -0.0057,-0.246343 0.218028,-0.0057 c 0.04814,0 0.06229,0 0.08495,0.08495 l 0.01133,0.03964 0.06796,-0.0028 -0.01699,-0.22086 -0.662577,0.01416 v 0.07079 h 0.0453 c 0.06229,0 0.07645,0.0085 0.07928,0.06229 l 0.01133,0.526664 c 0,0.03398 -0.0057,0.0453 -0.01416,0.05097 -0.01416,0.0085 -0.03964,0.01416 -0.08778,0.01416 h -0.01982 l 0.0028,0.07079 0.699387,-0.01416 0.01699,-0.232185 -0.07079,0.0028 z"
     id="path23"
     style="fill:#f9f9f9;stroke-width:0.0283153" />
  <path
     d="m 8.7380978,12.498369 0.01982,-0.0028 -0.01416,-0.07079 -0.328458,0.07079 0.01416,0.07079 0.01982,-0.0057 c 0.03115,-0.0085 0.05097,-0.01133 0.06513,-0.01133 0.02548,0 0.03681,0.0057 0.05097,0.07362 l 0.08211,0.379425 -0.620105,-0.42473 -0.243512,0.0538 0.01416,0.06796 0.01699,-0.0028 c 0.03681,-0.0057 0.06229,-0.0028 0.08778,0.01133 l 0.113262,0.529495 c 0.0085,0.03964 0.0085,0.06229 0,0.07362 -0.0085,0.01133 -0.02832,0.01982 -0.06229,0.02832 l -0.01982,0.0028 0.01416,0.07079 0.322794,-0.07079 -0.01416,-0.07079 -0.01982,0.0057 c -0.02548,0.0057 -0.0453,0.01133 -0.05946,0.01133 -0.03115,0 -0.0453,-0.01133 -0.05946,-0.08778 l -0.08778,-0.410572 0.682399,0.467202 0.09061,-0.01982 -0.135914,-0.631431 c -0.01133,-0.08211 0,-0.09344 0.07079,-0.107598"
     id="path24"
     style="fill:#f9f9f9;stroke-width:0.0283153" />
  <path
     d="m 9.8792058,12.498369 c 0,-0.0057 0.0028,-0.02548 0.04247,-0.04247 l 0.01699,-0.0085 -0.02832,-0.06512 -0.37093,0.164228 0.02831,0.06513 0.01699,-0.0085 c 0.04247,-0.01982 0.07645,-0.03115 0.09627,-0.03115 0.01699,0 0.02831,0.0085 0.04814,0.05097 l 0.0538,0.121755 c -0.03398,0.03964 -0.06796,0.06513 -0.113262,0.08495 -0.03681,0.01699 -0.07362,0.02265 -0.113261,0.02265 -0.06796,0 -0.195375,-0.02832 -0.27749,-0.212365 -0.04247,-0.09344 -0.05097,-0.18405 -0.02832,-0.263332 0.02265,-0.07645 0.07362,-0.133082 0.150071,-0.167061 0.107598,-0.04814 0.206702,-0.01699 0.280322,0.08495 l 0.0085,0.01133 0.06513,-0.02832 -0.107598,-0.24068 -0.05946,0.02548 -0.0028,0.0085 c 0,0.0028 -0.0028,0.0085 -0.01133,0.01133 -0.01133,0.0057 -0.03115,0.0085 -0.0538,0.01416 -0.04247,0.0085 -0.101935,0.01982 -0.172723,0.05097 -0.325627,0.144408 -0.300143,0.433224 -0.235018,0.580463 0.06796,0.152903 0.195377,0.24068 0.353942,0.24068 0.06513,0 0.135914,-0.01416 0.20387,-0.0453 0.09627,-0.04247 0.169892,-0.0991 0.274659,-0.20387 l 0.0085,-0.0085 -0.05946,-0.158566 c -0.0085,-0.01699 -0.01699,-0.03681 -0.01416,-0.0538"
     id="path25"
     style="fill:#f9f9f9;stroke-width:0.0283153" />
  <path
     d="m 10.773969,12.005683 v 0.01133 c -0.0057,0.150071 -0.0085,0.152903 -0.08778,0.206702 l -0.104766,0.07079 c -0.01133,0.0085 -0.02831,0.01699 -0.03681,0.01699 -0.0057,0 -0.01416,-0.0085 -0.02548,-0.02548 l -0.285984,-0.430393 c -0.04247,-0.06229 -0.04247,-0.06513 0.06229,-0.135913 l 0.01699,-0.01133 -0.03964,-0.05946 -0.3652672,0.246342 0.03964,0.05946 0.01699,-0.01133 c 0.03681,-0.02548 0.05946,-0.03681 0.07362,-0.03681 0.01416,0 0.02832,0.01133 0.0538,0.0538 l 0.271827,0.402077 c 0.04531,0.06796 0.03964,0.07645 -0.03398,0.127419 l -0.01699,0.01133 0.03964,0.05946 0.515338,-0.348278 -0.03115,-0.249174 z"
     id="path26"
     style="fill:#f9f9f9;stroke-width:0.0283153" />
  <path
     d="m 11.289307,11.323285 -0.127419,0.124588 -0.0991,-0.229354 z m 0.487023,-0.02548 c -0.02832,0.02548 -0.04247,0.03398 -0.05663,0.03398 -0.01699,0 -0.04247,-0.01133 -0.08495,-0.03115 l -0.6286,-0.294479 -0.127419,0.124587 0.04531,0.02548 0.260501,0.583295 c 0.03964,0.08778 0.03681,0.0991 -0.01416,0.150071 l -0.01416,0.01416 0.05097,0.05097 0.24068,-0.235017 -0.05097,-0.05097 -0.01416,0.01416 c -0.03681,0.03964 -0.06513,0.05946 -0.07928,0.05946 -0.0028,0 -0.0085,0 -0.01416,-0.0085 -0.0057,-0.0085 -0.01416,-0.01982 -0.02265,-0.03964 l -0.06513,-0.144408 0.181218,-0.175555 0.135913,0.06229 c 0.03398,0.01699 0.04814,0.02548 0.05097,0.03115 0.0057,0.0057 0.0085,0.01133 0.0028,0.02265 -0.0085,0.01416 -0.02548,0.03681 -0.05946,0.07079 l -0.01416,0.01416 0.05097,0.05097 0.288816,-0.280321 -0.05097,-0.05097 z"
     id="path27"
     style="fill:#f9f9f9;stroke-width:0.0283153" />
  <path
     d="m 12.002852,9.9018577 c -0.0028,-0.01416 0.0057,-0.03398 0.02832,-0.06796 l 0.01133,-0.01699 -0.05946,-0.03964 -0.186881,0.2774903 0.05946,0.03964 0.01133,-0.01699 c 0.03115,-0.04814 0.04814,-0.06513 0.06513,-0.06513 0.01416,0 0.03964,0.01416 0.06229,0.03115 l 0.322794,0.218028 -0.74186,0.124587 -0.138745,0.206702 0.05946,0.03964 0.01133,-0.01416 c 0.02548,-0.03115 0.04247,-0.0453 0.07079,-0.0538 l 0.447382,0.302973 c 0.03398,0.02265 0.04814,0.03681 0.05097,0.0538 0.0028,0.01416 -0.0057,0.03398 -0.02548,0.06229 l -0.01133,0.01699 0.05946,0.03964 0.18405,-0.274658 -0.05946,-0.03964 -0.01133,0.01699 c -0.03398,0.05663 -0.05097,0.06513 -0.06513,0.06513 -0.01699,0 -0.04247,-0.01416 -0.07362,-0.03398 l -0.348278,-0.235017 0.81548,-0.135914 0.0538,-0.07928 -0.535159,-0.3596053 c -0.03681,-0.02832 -0.0538,-0.04814 -0.05663,-0.06229"
     id="path28"
     style="fill:#f9f9f9;stroke-width:0.0283153" />
  <path
     d="m 12.897616,9.5026117 c -0.01982,0.05097 -0.02832,0.0538 -0.03964,0.0538 -0.01133,0 -0.03398,-0.0085 -0.05097,-0.01416 l -0.552148,-0.218028 c 0.0085,-0.02548 0.01982,-0.05097 0.02548,-0.06513 0.04814,-0.121756 0.0991,-0.18405 0.175555,-0.218028 0.07645,-0.03398 0.164229,-0.03115 0.263332,0.0085 0.06796,0.02548 0.155734,0.07928 0.198207,0.175555 0.03398,0.07645 0.02832,0.155734 -0.01982,0.27749 m -0.124584,-0.63143 c -0.0991,-0.03964 -0.201038,-0.03964 -0.294479,0.0028 -0.0991,0.04247 -0.181217,0.152902 -0.254837,0.336952 -0.01699,0.04247 -0.03964,0.101935 -0.06229,0.164228 -0.01699,0.04814 -0.05097,0.14724 -0.06513,0.181218 l -0.0085,0.01699 0.06796,0.02548 0.0057,-0.01982 c 0.02265,-0.05946 0.03964,-0.07079 0.05946,-0.07079 0.01416,0 0.03115,0.0057 0.05663,0.01416 l 0.453044,0.181218 c 0.03681,0.01416 0.05097,0.02548 0.05663,0.03681 0.0057,0.01416 0,0.03681 -0.01699,0.08211 l -0.0085,0.01699 0.06796,0.02548 0.150071,-0.37093 c 0.127419,-0.322795 -0.01133,-0.546486 -0.206702,-0.622937"
     id="path29"
     style="fill:#f9f9f9;stroke-width:0.0283153" />
</svg>
