<?xml version="1.0" encoding="UTF-8" standalone="no"?>
<svg
   viewBox="0 0 24 24"
   width="24pt"
   height="24pt"
   version="1.1"
   id="svg1"
   sodipodi:docname="fcb_coffee.svg"
   xml:space="preserve"
   inkscape:version="1.3 (0e150ed6c4, 2023-07-21)"
   xmlns:inkscape="http://www.inkscape.org/namespaces/inkscape"
   xmlns:sodipodi="http://sodipodi.sourceforge.net/DTD/sodipodi-0.dtd"
   xmlns="http://www.w3.org/2000/svg"
   xmlns:svg="http://www.w3.org/2000/svg"><defs
     id="defs1" /><sodipodi:namedview
     id="namedview1"
     pagecolor="#ffffff"
     bordercolor="#000000"
     borderopacity="0.25"
     inkscape:showpageshadow="2"
     inkscape:pageopacity="0.0"
     inkscape:pagecheckerboard="0"
     inkscape:deskcolor="#d1d1d1"
     inkscape:document-units="pt"
     inkscape:zoom="16.329747"
     inkscape:cx="14.390915"
     inkscape:cy="18.953141"
     inkscape:window-width="1920"
     inkscape:window-height="974"
     inkscape:window-x="-11"
     inkscape:window-y="1609"
     inkscape:window-maximized="1"
     inkscape:current-layer="svg1" /><g
     id="g1"
     transform="matrix(0.01877178,0,0,0.01877178,-19.389873,-0.30761811)"><g
       id="g2"
       transform="matrix(1.3341347,0,0,1.3341347,1019.6762,4.582697)"><path
         d="M 0,0 C 55.865337,0 55.865337,0 65.820312,8.5664063 75.516063,19.066076 75.557758,32.176106 75.131836,45.655762 74.614285,54.858578 72.233339,63.064102 66,70 c -1.950388,1.627534 -3.759177,2.772883 -6,4 0.59168,0.424102 1.183359,0.848203 1.792969,1.285156 C 69.84715,81.263383 74.851279,87.048294 77,97 c 0.39484,4.69682 0.474044,9.35266 0.446045,14.06396 -0.0085,2.16846 0.02027,4.33425 0.052,6.50245 0.06608,12.67783 -1.69589,23.96698 -10.927735,33.33593 C 48.638099,165.53699 19.682912,159 0,159 0,106.53 0,54.06 0,0 Z"
         fill="#fefdfc"
         transform="translate(415,212)"
         id="path2" /><path
         d="m 0,0 c 8.1024484,7.2210751 12.332836,16.571703 13.183601,27.319441 0.0738,2.454203 0.08689,4.90082 0.07519,7.356096 0.0035,0.921594 0.007,1.843188 0.01062,2.792709 0.0087,3.019778 0.003,6.039318 -0.0038,9.059098 0.0013,2.115524 0.0033,4.231049 0.0058,6.346573 0.0029,4.423812 -0.0013,8.847544 -0.01068,13.271347 -0.01139,5.649797 -0.0048,11.299404 0.0071,16.949195 0.0073,4.365928 0.0049,8.731813 -2.55e-4,13.097743 -0.0013,2.082259 2.79e-4,4.164518 0.005,6.246778 0.0051,2.9188 -0.0027,5.83731 -0.0138,8.75609 0.004,0.84758 0.0081,1.69516 0.01227,2.56842 C 13.190271,125.34498 10.487443,136.89365 3,146 c -8.7585745,7.33778 -18.334932,9.52824 -29.5625,9.4375 -0.881074,0.02 -1.762148,0.04 -2.669922,0.0606 C -39.031451,155.49082 -46.800165,151.50511 -54,145 c -10.400814,-10.51146 -9.581055,-26.29896 -9.514616,-39.95882 0.0061,-1.07965 0.01222,-2.15929 0.01852,-3.27165 -1.55e-4,-2.244328 -0.0016,-4.488658 -0.0044,-6.732985 -0.0014,-4.68247 0.01107,-9.364631 0.03395,-14.047043 0.02843,-5.981591 0.02563,-11.962672 0.01291,-17.944301 -0.007,-4.626732 8.52e-4,-9.253347 0.01326,-13.880065 0.0045,-2.205062 0.0049,-4.410137 9.35e-4,-6.6152 -0.0029,-3.086158 0.01368,-6.171628 0.0354,-9.2577 -0.0045,-0.897399 -0.009,-1.794798 -0.01364,-2.719391 0.123013,-10.597705 3.19238,-19.8208 10.355181,-27.7056575 C -38.958997,-10.782989 -16.050447,-10.496567 0,0 Z"
         fill="#fefdfc"
         transform="translate(401,453)"
         id="path3" /><path
         d="m 0,0 c 5.7968537,4.8307114 9.5512848,10.00479 12.148438,17.082031 0.368671,0.978399 0.737343,1.956797 1.117187,2.964844 1.56752,5.66884 1.090456,11.646277 1.007813,17.472656 -0.009,1.208496 -0.01805,2.416992 -0.02734,3.66211 -0.02345,2.966882 -0.05932,5.933662 -0.09766,8.90039 -7.9200005,0 -15.8400005,0 -24.0000005,0 -0.037383,-1.746679 -0.074766,-3.493359 -0.1132813,-5.292969 -0.065663,-2.298198 -0.1321102,-4.596374 -0.1992192,-6.894531 -0.03384,-1.725732 -0.03384,-1.725732 -0.06836,-3.486328 -0.03545,-1.111816 -0.0709,-2.223633 -0.107422,-3.369141 -0.02618,-1.021179 -0.05237,-2.042358 -0.07935,-3.094482 -0.493768,-3.269017 -1.514737,-5.191618 -3.432374,-7.862549 -4.227587,-2.900424 -9.072688,-2.638873 -13.999999,-2 -3.366921,1.823749 -4.596026,3.066112 -6.107834,6.561035 -1.129343,4.35319 -1.179625,8.359529 -1.166825,12.837403 -0.0051,0.927581 -0.01022,1.855162 -0.01549,2.810852 -0.01386,3.055303 -0.01294,6.11038 -0.01064,9.16571 -0.0039,2.129396 -0.0082,4.25879 -0.01299,6.388184 -0.0075,4.458522 -0.0072,8.916964 -0.0019,13.375488 0.0058,5.709751 -0.01115,11.419178 -0.03434,17.128876 -0.01474,4.395802 -0.01561,8.791525 -0.01249,13.187347 -5.13e-4,2.105114 -0.0057,4.210224 -0.01581,6.315304 -0.01235,2.944 -0.0056,5.88737 0.006,8.83136 -0.0076,0.86668 -0.01529,1.73335 -0.02316,2.62629 0.04332,4.9866 0.578657,8.4771 3.395478,12.77215 4.661659,3.10777 9.54471,2.73621 15,2 3.482423,-2.52646 4.652268,-3.9568 5.999999,-8 0.151091,-2.20959 0.248739,-4.423 0.316407,-6.63672 0.04189,-1.29873 0.08379,-2.59746 0.126953,-3.93554 0.03981,-1.37175 0.07952,-2.74349 0.11914,-4.11524 0.04321,-1.38348 0.08682,-2.76694 0.13086,-4.15039 0.10622,-3.38725 0.2069474,-6.774664 0.3066405,-10.162109 7.92,0 15.84,0 24.0000005,0 0.06965,3.910761 0.129136,7.819899 0.164794,11.730959 0.02214,1.96874 0.0603,3.93727 0.09888,5.90576 0.09829,12.90909 -1.610903,25.57625 -11.0449215,35.17578 -11.1172493,9.1125 -24.4677435,9.50882 -38.2187495,8.1875 -8.358178,-1.67361 -14.94576,-6.57474 -19.757813,-13.54687 -5.26382,-9.0019 -6.550386,-17.92047 -6.500977,-28.22632 -0.0035,-0.92014 -0.007,-1.84027 -0.01062,-2.78829 -0.0087,-3.00953 -0.003,-6.01883 0.0038,-9.02836 -0.0014,-2.1117 -0.0033,-4.223402 -0.0058,-6.335101 -0.0029,-4.41364 0.0013,-8.827199 0.01068,-13.240829 0.01139,-5.632855 0.0048,-11.26552 -0.0071,-16.898368 -0.0073,-4.357389 -0.0049,-8.714733 2.56e-4,-13.072124 0.0013,-2.07585 -2.74e-4,-4.151705 -0.005,-6.22755 -0.0565,-32.071367 -0.0565,-32.071367 11.022591,-44.0111867 C -37.414807,-9.1643182 -14.133137,-9.5059866 0,0 Z"
         fill="#fefcfb"
         transform="translate(311.85156,451.91797)"
         id="path4" /><path
         d="M 0,0 C 1.4714648,-0.01063477 1.4714648,-0.01063477 2.9726563,-0.02148438 13.07433,0.06594689 21.049,2.4738021 28.5,9.4375 c 7.389618,8.07508 10.156148,16.956427 10.097656,27.835937 -0.0025,0.959546 -0.005,1.919092 -0.0076,2.907715 -0.0091,1.198345 -0.01821,2.39669 -0.02759,3.631348 -0.02063,3.83625 -0.04125,7.6725 -0.0625,11.625 -7.92,0 -15.84,0 -24,0 C 14.1875,43.75 14.1875,43.75 14.112061,40.091064 c -0.03311,-0.962043 -0.06623,-1.924086 -0.100342,-2.915283 -0.02618,-0.979284 -0.05237,-1.958569 -0.07935,-2.967529 C 13.279906,30.027087 11.57078,27.350812 8.375,24.625 4.3477124,22.961555 0.7960269,22.73579 -3.5,23.4375 c -4.1150121,2.363943 -5.6447593,4.528831 -7,9 -0.29519,3.084762 -0.293765,6.15604 -0.290527,9.253174 -0.0067,0.924222 -0.01343,1.848445 -0.02036,2.800674 -0.01897,3.051116 -0.0229,6.102012 -0.02506,9.153183 -0.0064,2.126034 -0.01316,4.252066 -0.02017,6.378098 -0.01197,4.456101 -0.01568,8.912124 -0.0145,13.36824 2.03e-4,5.699574 -0.02709,11.398648 -0.06155,17.098104 -0.02228,4.391599 -0.02629,8.783079 -0.02524,13.174727 -0.0024,2.10068 -0.01117,4.20136 -0.02666,6.30198 -0.01968,2.94384 -0.01381,5.8866 -0.0018,8.83046 -0.01686,1.29158 -0.01686,1.29158 -0.03406,2.60926 0.05909,5.71595 1.1441944,10.32045 4.519897,15.0321 4.247408,2.83161 8.0134604,2.64522 13,2 4.160557,-2.34031 5.552197,-4.55026 7,-9 0.363026,-3.18893 0.363026,-3.18893 0.414063,-6.61328 0.03867,-1.24717 0.07734,-2.49434 0.117187,-3.7793 0.03094,-1.29357 0.06188,-2.58715 0.09375,-3.91992 0.03867,-1.31291 0.07734,-2.62582 0.117188,-3.97852 0.09414,-3.2361 0.17706,-6.47252 0.257812,-9.70898 7.92,0 15.84,0 24,0 1.108071,38.04376 1.108071,38.04376 -9.25,50.6875 -4.156499,4.1565 -8.162517,6.57776 -13.75,8.3125 -1.825313,0.61875 -1.825313,0.61875 -3.6875,1.25 -10.2583496,2.26828 -22.372437,1.77856 -31.59375,-3.57422 C -29.919781,150.9066 -34.446012,141.40324 -36.5,129.4375 c -0.264366,-3.27922 -0.284076,-6.53869 -0.274658,-9.82739 -0.0051,-0.93789 -0.01022,-1.87578 -0.01549,-2.84209 -0.01381,-3.07508 -0.01295,-6.14994 -0.01064,-9.22505 -0.0039,-2.15558 -0.0082,-4.31115 -0.01299,-6.46672 -0.0074,-4.509574 -0.0072,-9.019068 -0.0019,-13.528643 0.0058,-5.752792 -0.01113,-11.505261 -0.03434,-17.258 -0.0148,-4.450082 -0.0156,-8.900088 -0.01249,-13.35019 -5.1e-4,-2.119688 -0.0057,-4.23938 -0.01581,-6.359043 C -37.003785,20.625011 -37.003785,20.625011 -25.871094,8.6914063 -18.223398,1.5760326 -10.215862,-0.20807603 0,0 Z"
         fill="#fefdfb"
         transform="translate(362.5,210.5625)"
         id="path5" /><path
         d="m 0,0 c 22.44,0 44.88,0 68,0 0,7.59 0,15.18 0,23 -14.19,0 -28.38,0 -43,0 0,14.52 0,29.04 0,44 11.22,0 22.44,0 34,0 0,7.59 0,15.18 0,23 -11.22,0 -22.44,0 -34,0 0,15.18 0,30.36 0,46 14.19,0 28.38,0 43,0 0,7.59 0,15.18 0,23 -22.44,0 -44.88,0 -68,0 C 0,106.53 0,54.06 0,0 Z"
         fill="#fefdfc"
         transform="translate(583,448)"
         id="path6" /><path
         d="m 0,0 c 22.44,0 44.88,0 68,0 0,7.26 0,14.52 0,22 -14.19,0 -28.38,0 -43,0 0,14.85 0,29.7 0,45 11.22,0 22.44,0 34,0 0,7.26 0,14.52 0,22 -11.22,0 -22.44,0 -34,0 0,15.51 0,31.02 0,47 14.52,0 29.04,0 44,0 0,7.59 0,15.18 0,23 -22.77,0 -45.54,0 -69,0 C 0,106.53 0,54.06 0,0 Z"
         fill="#fefdfb"
         transform="translate(665,448)"
         id="path7" /><path
         d="m 0,0 c 21.78,0 43.56,0 66,0 0,7.59 0,15.18 0,23 -13.53,0 -27.06,0 -41,0 0,15.51 0,31.02 0,47 10.56,0 21.12,0 32,0 0,7.59 0,15.18 0,23 -10.56,0 -21.12,0 -32,0 0,21.78 0,43.56 0,66 -8.25,0 -16.5,0 -25,0 C 0,106.53 0,54.06 0,0 Z"
         fill="#fefdfc"
         transform="translate(506,448)"
         id="path8" /><path
         d="m 0,0 c 21.78,0 43.56,0 66,0 0,7.59 0,15.18 0,23 -13.53,0 -27.06,0 -41,0 0,15.51 0,31.02 0,47 10.56,0 21.12,0 32,0 0,7.59 0,15.18 0,23 -10.56,0 -21.12,0 -32,0 0,21.78 0,43.56 0,66 -8.25,0 -16.5,0 -25,0 C 0,106.53 0,54.06 0,0 Z"
         fill="#fefdfb"
         transform="translate(429,448)"
         id="path9" /><path
         d="m 0,0 c 21.78,0 43.56,0 66,0 0,7.59 0,15.18 0,23 -13.53,0 -27.06,0 -41,0 0,15.84 0,31.68 0,48 10.56,0 21.12,0 32,0 0,7.26 0,14.52 0,22 -10.56,0 -21.12,0 -32,0 0,21.78 0,43.56 0,66 -8.25,0 -16.5,0 -25,0 C 0,106.53 0,54.06 0,0 Z"
         fill="#fefdfc"
         transform="translate(251,212)"
         id="path10" /><path
         d="m 0,0 c 159.39,0 318.78,0 483,0 0,3.63 0,7.26 0,11 C 323.61,11 164.22,11 0,11 0,7.37 0,3.74 0,0 Z"
         fill="#fdf7f3"
         transform="translate(251,404)"
         id="path11" /><path
         d="m 0,0 c 159.39,0 318.78,0 483,0 0,3.3 0,6.6 0,10 C 323.61,10 164.22,10 0,10 0,6.7 0,3.4 0,0 Z"
         fill="#fefefe"
         transform="translate(251,640)"
         id="path12" /><path
         d="m 0,0 c 159.39,0 318.78,0 483,0 0,3.3 0,6.6 0,10 C 323.61,10 164.22,10 0,10 0,6.7 0,3.4 0,0 Z"
         fill="#fefefd"
         transform="translate(251,169)"
         id="path13" /></g><path
       d="m 1526.6474,630.29187 c 5.0204,2.13628 7.7926,4.73025 10.6731,9.33895 1.7789,5.33693 1.5531,10.4784 1.5702,16.04446 0.014,1.23265 0.017,2.4653 0.026,3.73529 0.026,4.08505 0.041,8.17001 0.054,12.25512 0,1.39602 0.014,2.79205 0.016,4.23038 0.028,7.39105 0.047,14.78207 0.059,22.17317 0.015,7.62497 0.06,15.24943 0.1134,22.87422 0.035,5.8704 0.045,11.74071 0.051,17.61121 0,2.81004 0.022,5.62009 0.047,8.43003 0.032,3.94049 0.031,7.87965 0.021,11.82024 0.017,1.15295 0.035,2.30592 0.052,3.4938 -0.066,7.67476 -1.5522,13.72777 -6.0153,20.08449 -5.0863,3.69915 -9.8694,4.80914 -16.0616,4.56003 -4.921,-1.04887 -7.2071,-3.5705 -10.6211,-7.22829 -3.4338,-6.22784 -3.0628,-12.50481 -3.0558,-19.42542 -0.014,-1.27635 -0.017,-2.55271 -0.026,-3.86776 -0.025,-4.21335 -0.031,-8.42645 -0.033,-12.63987 -0.014,-2.93255 -0.016,-5.86508 -0.026,-8.79764 -0.015,-6.14465 -0.021,-12.28921 -0.018,-18.43389 3e-4,-7.87046 -0.036,-15.74028 -0.083,-23.61059 -0.029,-6.05574 -0.035,-12.1113 -0.033,-18.16709 0,-2.90162 -0.015,-5.80322 -0.036,-8.70476 -0.026,-4.059 -0.018,-8.11661 0,-12.17564 -0.015,-1.19578 -0.031,-2.39155 -0.045,-3.62357 0.073,-7.3007 1.1034,-11.55448 6.03,-17.3086 5.6754,-3.78359 10.6826,-3.36103 17.3438,-2.66827 z"
       fill="#eb7627"
       id="path14"
       style="stroke-width:1.33413" /><path
       d="m 1606.6954,404.8231 c 24.0144,0 24.0144,0 32.0192,5.33655 3.7364,5.71545 4.5142,10.207 4.5341,16.96851 0.014,2.52552 0.014,2.52552 0.016,5.10204 -0.016,1.74214 -0.031,3.48428 -0.047,5.27921 0.016,1.74214 0.031,3.48428 0.047,5.27922 0,1.68365 -0.014,3.36733 -0.016,5.10201 0,1.52802 -0.013,3.05605 -0.013,4.63039 -0.598,5.00293 -1.7883,8.10847 -4.5204,12.33814 -6.6706,4.0024 -6.6706,4.0024 -32.0191,4.0024 0,-21.13269 0,-42.26538 0,-64.03847 z"
       fill="#eb7425"
       id="path15"
       style="stroke-width:1.33413" /><path
       d="m 1606.6954,318.10436 c 21.3462,0 21.3462,0 28.0168,4.0024 6.0476,6.91143 5.62,13.6191 5.6702,22.34675 0.028,1.17633 0.054,2.35267 0.083,3.56465 0.045,7.54321 -0.7903,12.79609 -4.4193,19.44918 -9.4876,9.01336 -14.6027,6.67067 -29.351,6.67067 0,-18.4911 0,-36.98222 0,-56.03365 z"
       fill="#eb7627"
       id="path16"
       style="stroke-width:1.33413" /></g></svg>
