<svg xmlns="http://www.w3.org/2000/svg" width="24" height="24" viewBox="0 0 24 24"><path fill="#4f515c" fill-rule="evenodd" d="M3.2 4.3q.02.1.2.2c.22.12.53.65.48.82q-.05.07-.17-.2c-.12-.29-.38-.49-.5-.37-.02.03.05.15.16.28.1.12.4.62.63 1.11a5.7 5.7 0 0 0 2.08 2.39c1.85 1 4.62.65 6.8-.87.86-.6 2.55-1.48 3.17-1.65.22-.06.75-.1 1.17-.1L18 5.9l.38.41q.62.7 1.35.7c.4 0 .58.13.87.6.25.4.26.77.06 1.47-.19.62-.42.86-1.06 1.07-.52.18-.89.13-.89-.1q0-.14-.1-.15a.1.1 0 0 0-.1.1c0 .17.39.5.59.5.1 0 .24.07.31.15.1.13.06.26-.3.76-.22.34-.38.64-.35.68q.06.04.16-.12c.12-.21.6-.67.71-.67.26 0-.1 1.1-.46 1.4q-.15.12-.16.21c0 .16.3.1.37-.08.03-.09.21-.41.4-.71.28-.47.33-.66.33-1.16s.05-.67.3-1.06q.87-1.35.48-2.62c-.25-.83-1.74-2.09-2.87-2.42-1.29-.38-2.9-.01-3.65.83-.26.29-1.8.76-2.96.91a9 9 0 0 1-3.92-.36c-.37-.12-.55-.26-.83-.65-.31-.44-.37-.48-.55-.37-.15.1-.22.1-.32 0-.16-.16-.3-.15-.27 0q.1.7-.5.06-.29-.3-.3-.19c-.01.12-.04.11-.18-.02a4 4 0 0 0-.93-.73q-.02.05-.2-.04-.2-.1-.2 0m-.1 5.06c.06.14.1 1.15.1 2.25v1.99h1.2v-2h1.61l-.03-.32-.03-.33-.77-.03-.78-.03V9.81l.87-.03c.75-.03.88-.06.91-.21.08-.41-.13-.47-1.69-.47H3.01zm3.47 2.01c.01 1.1.05 2.04.07 2.1q.06.13.55.13h.5v-1.98c0-1.4-.03-2.01-.12-2.1-.07-.07-.32-.12-.58-.12h-.45zm2.65-.97c-1.28.4-1.48 2.34-.31 3.05.42.25 1.68.28 2.11.04.28-.15.28-.16.1-.38-.17-.2-.21-.21-.64-.1-.54.14-.96 0-1.16-.41l-.12-.25 1.12-.05 1.12-.05v-.48c-.01-.5-.2-.85-.66-1.2-.29-.2-1.11-.3-1.56-.17m6.54-.03c-.33.05-.45.27-.26.49.1.12.24.14.65.1q.94-.11.94.37c0 .2-.05.22-.58.23q-1.1 0-1.38.7-.34.86.54 1.26c.46.2.51.2 2 .02l.52-.07v-1.19c0-.66-.05-1.28-.1-1.39s-.24-.26-.41-.35a5 5 0 0 0-1.92-.17m-4.14.27c.12.13.4.5.63.83l.42.59-.6.73c-.32.4-.58.75-.58.77s.21.04.48.04c.44 0 .5-.03.82-.46l.34-.46.18.23c.52.68.54.69 1.12.69.3 0 .56-.02.56-.06s-.24-.37-.53-.77l-.6-.83c-.03-.05.19-.4.49-.78s.54-.7.54-.72-.21-.04-.47-.04c-.44 0-.5.04-.78.4l-.3.4-.33-.4c-.33-.4-.35-.4-.97-.4h-.64zm-2.2.38a1 1 0 0 0-.15.38c-.03.24 0 .25.55.28.54.03.57.02.57-.2 0-.46-.7-.79-.98-.46m6.86 1.19c-.2.12-.24.59-.06.77.07.07.24.12.38.12.36 0 .5-.17.5-.62 0-.36-.01-.38-.32-.38-.18 0-.4.05-.5.1"/></svg>