<?xml version="1.0" encoding="UTF-8" standalone="no"?>
<svg
   viewBox="0 0 24 24"
   width="24pt"
   height="24pt"
   version="1.1"
   id="svg1"
   xml:space="preserve"
   xmlns="http://www.w3.org/2000/svg"
   xmlns:svg="http://www.w3.org/2000/svg"><defs
     id="defs1" /><g
     id="g1"
     transform="matrix(0.048228,0,0,0.048228,3.43953,5.9491515)"><path
       d="M 33.754,5.599 C 24.555,8.428 20.465,15.069 19.29,29.084 L 18.71,36 H 12.355 6 V 44.5 53 H 12.5 19 V 79.5 106 H 32 45 V 79.5 53 H 53.5 62 V 44.5 36 H 53.364 44.728 L 45.37,31.315 C 46.531,22.849 50.78,19.28 58.205,20.535 L 62,21.176 V 13.219 5.262 L 58.25,4.642 C 51.763,3.57 38.693,4.08 33.754,5.599 M 275,56 v 50 h 13 13 V 82.223 c 0,-20.768 0.216,-24.091 1.704,-26.25 2.737,-3.972 4.512,-4.907 9.372,-4.941 5.028,-0.035 7.884,2.075 9.857,7.283 0.641,1.69 1.067,11.786 1.067,25.25 V 106 h 13 13 l -0.01,-26.25 c -0.009,-25.386 -0.086,-26.415 -2.341,-31.257 -2.982,-6.403 -8.237,-10.996 -14.816,-12.95 -9.413,-2.795 -18.834,-1.222 -26.669,4.453 L 301,43.013 V 24.506 6 H 288 275 V 56 M 123.971,35.039 c -0.809,0.512 -4.174,0.937 -7.478,0.946 C 105.17,36.014 100.546,38.661 96.377,47.5 L 94.02,52.5 94.01,44.25 94,36 H 80.5 67 v 35 35 H 80.5 94 V 79.981 53.962 l 2.75,0.769 c 5.244,1.467 15.552,0.82 18.541,-1.163 3.147,-2.088 6.892,-8.001 9.187,-14.507 1.711,-4.848 1.644,-5.382 -0.507,-4.022 M 146,35.367 c -11.147,3.22 -18.487,8.852 -22.689,17.409 -2.611,5.316 -2.81,6.579 -2.797,17.724 0.008,6.6 0.569,13.843 1.247,16.095 2.676,8.89 10.413,16.787 19.126,19.52 6.527,2.048 24.903,2.293 31.353,0.418 11.003,-3.199 20.084,-11.594 21.416,-19.799 L 194.262,83 182.381,83.022 170.5,83.043 169,86.211 c -2.262,4.776 -6.19,7.174 -11.746,7.171 -8.037,-0.003 -11.842,-3.934 -12.472,-12.882 l -0.282,-4 25.25,-0.267 25.25,-0.267 -0.017,-3.733 C 194.956,66.484 192.33,55.379 189.799,50.311 186.798,44.304 180.369,38.767 173.8,36.535 167.058,34.243 152.071,33.614 146,35.367 m 73.733,0.45 C 207.135,39.22 201,45.759 201,55.784 c 0,11.605 6.275,16.641 27.757,22.274 C 238.534,80.621 242,82.966 242,87.016 242,90.682 238.797,93 233.732,93 229.398,93 225,89.497 225,86.045 225,84.094 224.426,84 212.5,84 200.01,84 200,84.002 200,86.374 c 0,3.863 2.886,10.897 5.656,13.789 4.793,5.003 11.608,7.135 24.37,7.625 17.987,0.691 28.218,-2.666 33.791,-11.088 2.318,-3.502 2.683,-5.086 2.683,-11.627 0,-13.432 -3.723,-16.74 -24.951,-22.165 -7.123,-1.821 -13.727,-4.086 -14.676,-5.035 -2.191,-2.191 -1.399,-5.482 1.829,-7.597 3.937,-2.58 9.328,-0.737 11.63,3.974 l 1.833,3.75 h 12.029 12.029 l -0.695,-3.75 C 263.1,41.129 254.238,35.273 235.5,34.405 c -6.652,-0.308 -10.766,0.061 -15.767,1.412 M 152.5,47.945 c -2.767,1.133 -5.01,3.938 -6.358,7.954 C 144.051,62.123 143.822,62 157.5,62 169.415,62 170,61.904 170,59.96 170,57.007 166.394,50.389 163.791,48.566 161.412,46.9 155.808,46.592 152.5,47.945 M 18.116,123.25 c 0.084,1.625 0.241,1.776 0.565,0.542 0.36,-1.366 1.884,-1.776 7.634,-2.051 l 7.185,-0.344 -7.75,-0.198 c -7.46,-0.192 -7.746,-0.115 -7.634,2.051 m 19.575,-1.602 c 1.565,0.34 2.317,1.387 2.631,3.664 0.423,3.074 0.434,3.063 0.309,-0.312 -0.112,-2.984 -0.5,-3.524 -2.631,-3.664 -2.087,-0.137 -2.138,-0.085 -0.309,0.312 m 10.02,0.053 c 2.031,0.393 2.237,1.092 2.546,8.613 l 0.336,8.186 0.203,-8.75 L 51,121 l -2.75,0.136 c -2.298,0.114 -2.387,0.207 -0.539,0.565 m 10.039,0.022 c 1.788,0.222 4.712,0.222 6.5,0 1.787,-0.221 0.325,-0.403 -3.25,-0.403 -3.575,0 -5.038,0.182 -3.25,0.403 m 76.454,8.027 0.203,8.75 0.336,-8.197 0.336,-8.197 4.711,-0.373 4.71,-0.373 -5.25,-0.18 -5.25,-0.18 0.204,8.75 m 28.546,-8.027 c 1.787,0.222 4.713,0.222 6.5,0 1.787,-0.221 0.325,-0.403 -3.25,-0.403 -3.575,0 -5.037,0.182 -3.25,0.403 m 52.5,-0.007 c 1.512,0.229 3.988,0.229 5.5,0 1.512,-0.229 0.275,-0.416 -2.75,-0.416 -3.025,0 -4.262,0.187 -2.75,0.416 M 239,121.395 c 0,0.217 1.762,0.563 3.916,0.768 2.154,0.206 3.702,0.028 3.441,-0.395 C 245.882,120.999 239,120.65 239,121.395 m 12.643,0.373 c -0.261,0.423 1.287,0.601 3.441,0.395 2.154,-0.205 3.916,-0.551 3.916,-0.768 0,-0.745 -6.882,-0.396 -7.357,0.373 m 17.607,-0.079 c 0.962,0.252 2.538,0.252 3.5,0 0.962,-0.251 0.175,-0.457 -1.75,-0.457 -1.925,0 -2.712,0.206 -1.75,0.457 m 16,0.027 c 1.512,0.229 3.988,0.229 5.5,0 1.512,-0.229 0.275,-0.416 -2.75,-0.416 -3.025,0 -4.262,0.187 -2.75,0.416 m 16.5,-0.054 c 0.688,0.278 1.813,0.278 2.5,0 0.688,-0.277 0.125,-0.504 -1.25,-0.504 -1.375,0 -1.937,0.227 -1.25,0.504 m 9.5,0.027 c 0.962,0.252 2.538,0.252 3.5,0 0.962,-0.251 0.175,-0.457 -1.75,-0.457 -1.925,0 -2.712,0.206 -1.75,0.457 m 10.478,0.033 c 1.775,0.221 4.925,0.224 7,0.008 2.074,-0.217 0.622,-0.397 -3.228,-0.402 -3.85,-0.004 -5.548,0.173 -3.772,0.394 m 16.048,0.011 c 2.352,0.212 5.952,0.209 8,-0.006 2.048,-0.215 0.124,-0.388 -4.276,-0.384 -4.4,0.003 -6.076,0.179 -3.724,0.39 m -316.57,2.889 c 1.324,0.394 1.788,1.948 2.074,6.947 l 0.368,6.439 -0.074,-6.744 c -0.066,-5.981 -0.3,-6.766 -2.074,-6.946 -1.473,-0.15 -1.55,-0.069 -0.294,0.304 m 8.063,0.071 c 0.973,0.254 2.323,0.237 3,-0.037 0.677,-0.274 -0.119,-0.481 -1.769,-0.461 -1.65,0.02 -2.204,0.244 -1.231,0.498 m 31.981,-0.004 c 0.962,0.252 2.538,0.252 3.5,0 0.963,-0.251 0.175,-0.457 -1.75,-0.457 -1.925,0 -2.712,0.206 -1.75,0.457 m 105.512,0.018 c 1.244,0.239 3.044,0.23 4,-0.02 0.956,-0.25 -0.062,-0.446 -2.262,-0.435 -2.2,0.011 -2.982,0.216 -1.738,0.455 m 120.618,0.745 c -0.682,1.777 0.318,3.576 1.929,3.469 0.859,-0.057 0.842,-0.22 -0.059,-0.583 -0.687,-0.278 -1.25,-1.105 -1.25,-1.838 0,-0.733 0.563,-1.56 1.25,-1.838 0.979,-0.395 0.972,-0.521 -0.031,-0.583 -0.705,-0.043 -1.533,0.574 -1.839,1.373 m 39.382,-0.745 c 1.244,0.239 3.044,0.23 4,-0.02 0.956,-0.25 -0.062,-0.446 -2.262,-0.435 -2.2,0.011 -2.982,0.216 -1.738,0.455 m 7.238,-0.32 c 0,0.212 1.326,0.581 2.947,0.819 1.621,0.237 2.72,0.064 2.441,-0.387 -0.495,-0.802 -5.388,-1.194 -5.388,-0.432 m 11.269,0.306 c 0.973,0.254 2.323,0.237 3,-0.037 0.677,-0.274 -0.119,-0.481 -1.769,-0.461 -1.65,0.02 -2.204,0.244 -1.231,0.498 m -91.645,1.846 c -0.965,2.514 -0.681,3.163 0.498,1.136 0.584,-1.004 0.851,-2.036 0.593,-2.293 -0.257,-0.258 -0.749,0.263 -1.091,1.157 M 100.195,129.5 c 0.02,1.65 0.244,2.204 0.498,1.231 0.254,-0.973 0.237,-2.323 -0.037,-3 -0.274,-0.677 -0.481,0.119 -0.461,1.769 m 12,0 c 0.02,1.65 0.244,2.204 0.498,1.231 0.254,-0.973 0.237,-2.323 -0.037,-3 -0.274,-0.677 -0.481,0.119 -0.461,1.769 m 81,0 c 0.02,1.65 0.244,2.204 0.498,1.231 0.254,-0.973 0.237,-2.323 -0.037,-3 -0.274,-0.677 -0.481,0.119 -0.461,1.769 m 12,0 c 0.02,1.65 0.244,2.204 0.498,1.231 0.254,-0.973 0.237,-2.323 -0.037,-3 -0.274,-0.677 -0.481,0.119 -0.461,1.769 m 19,0 c 0.02,1.65 0.244,2.204 0.498,1.231 0.254,-0.973 0.237,-2.323 -0.037,-3 -0.274,-0.677 -0.481,0.119 -0.461,1.769 M 85.667,128.667 c -1.31,1.309 -0.636,3.332 1.083,3.254 1.045,-0.047 1.247,-0.282 0.5,-0.583 -2.41,-0.973 -1.215,-2.221 2.5,-2.61 l 3.75,-0.392 -3.583,-0.168 c -1.971,-0.092 -3.884,0.132 -4.25,0.499 m 80.583,0.022 c 0.963,0.252 2.537,0.252 3.5,0 0.963,-0.251 0.175,-0.457 -1.75,-0.457 -1.925,0 -2.713,0.206 -1.75,0.457 M 270.5,131 c -1.908,0.82 -1.897,0.863 0.25,0.93 1.238,0.038 2.25,-0.38 2.25,-0.93 0,-0.55 -0.113,-0.968 -0.25,-0.93 -0.137,0.039 -1.15,0.457 -2.25,0.93 m -230.248,3.5 c 0.011,2.2 0.216,2.982 0.455,1.738 0.239,-1.244 0.23,-3.044 -0.02,-4 -0.25,-0.956 -0.446,0.062 -0.435,2.262 m 125.998,-2.811 c 0.963,0.252 2.537,0.252 3.5,0 0.963,-0.251 0.175,-0.457 -1.75,-0.457 -1.925,0 -2.713,0.206 -1.75,0.457 m 121.14,0.738 c -0.302,0.785 -0.349,2.473 -0.105,3.75 0.325,1.707 0.479,1.43 0.579,-1.044 0.115,-2.847 0.445,-3.285 2.137,-2.843 1.101,0.288 1.75,0.115 1.441,-0.383 -0.866,-1.402 -3.442,-1.072 -4.052,0.52 m -226.64,2.279 c 1.237,0.238 3.263,0.238 4.5,0 1.237,-0.239 0.225,-0.434 -2.25,-0.434 -2.475,0 -3.487,0.195 -2.25,0.434 m 79,-0.044 c 0.688,0.278 1.813,0.278 2.5,0 0.688,-0.277 0.125,-0.504 -1.25,-0.504 -1.375,0 -1.937,0.227 -1.25,0.504 m 129.5,0.027 c 0.962,0.252 2.538,0.252 3.5,0 0.962,-0.251 0.175,-0.457 -1.75,-0.457 -1.925,0 -2.712,0.206 -1.75,0.457 m 56.5,0.017 c 1.238,0.238 3.262,0.238 4.5,0 1.238,-0.239 0.225,-0.434 -2.25,-0.434 -2.475,0 -3.488,0.195 -2.25,0.434"
       stroke="none"
       fill="#91bf39"
       fill-rule="evenodd"
       id="path1-0" /><path
       d="m 81.315,122.007 c -7.66,3.086 -4.513,16.014 3.89,15.979 C 91.741,137.959 93,137.135 93,132.883 93,129.112 92.899,129 89.5,129 c -3.575,0 -4.698,1.326 -2,2.362 2.498,0.958 1.778,3.638 -0.977,3.638 -3.572,0 -6.19,-4.24 -4.674,-7.569 1.349,-2.959 3.843,-4.139 5.418,-2.564 1.369,1.369 5.733,1.513 5.733,0.19 0,-1.595 -4.304,-4.061 -6.973,-3.994 -1.39,0.035 -3.51,0.46 -4.712,0.944 m 19,0 c -4.817,1.941 -5.861,9.537 -1.86,13.538 2.647,2.648 6.373,3.141 9.861,1.305 3.086,-1.624 3.651,-2.784 3.669,-7.527 0.024,-6.501 -5.342,-9.865 -11.67,-7.316 m 19.185,0.148 c -3.173,1.735 -4.5,3.971 -4.5,7.582 0,9.556 14.476,11.48 16.515,2.196 1.639,-7.465 -5.549,-13.315 -12.015,-9.778 m 58.815,-0.148 c -4.817,1.941 -5.861,9.537 -1.86,13.538 6.358,6.359 16.402,-0.388 13.531,-9.089 -1.527,-4.624 -6.515,-6.526 -11.671,-4.449 m 18.32,1.066 c -2.102,1.653 -2.632,2.917 -2.62,6.25 0.018,4.743 0.583,5.903 3.669,7.527 3.274,1.724 6.737,1.394 9.681,-0.923 2.126,-1.672 2.635,-2.913 2.635,-6.427 0,-3.514 -0.509,-4.755 -2.635,-6.427 C 205.916,121.933 203.502,121 202,121 c -1.502,0 -3.916,0.933 -5.365,2.073 M 19,123.329 c 0,0.736 1.005,1.294 2.25,1.25 2.091,-0.073 2.271,0.398 2.546,6.671 0.259,5.93 0.533,6.75 2.25,6.75 1.753,0 1.954,-0.721 1.954,-7 0,-6.8 0.071,-7 2.5,-7 1.375,0 2.5,-0.45 2.5,-1 0,-0.571 -3,-1 -7,-1 -5.156,0 -7,0.35 -7,1.329 M 36,130 c 0,7.333 0.167,8 2,8 1.619,0 2,-0.667 2,-3.5 0,-3.222 0.238,-3.5 3,-3.5 2.762,0 3,0.278 3,3.5 0,2.833 0.381,3.5 2,3.5 1.833,0 2,-0.667 2,-8 0,-7.333 -0.167,-8 -2,-8 -1.556,0 -2,0.667 -2,3 0,2.667 -0.333,3 -3,3 -2.667,0 -3,-0.333 -3,-3 0,-2.333 -0.444,-3 -2,-3 -1.833,0 -2,0.667 -2,8 m 19,0 v 8 h 6 c 4.667,0 6,-0.333 6,-1.5 0,-1.083 -1.111,-1.5 -4,-1.5 -3.333,0 -4,-0.333 -4,-2 0,-1.619 0.667,-2 3.5,-2 2.444,0 3.5,-0.452 3.5,-1.5 0,-1.053 -1.064,-1.5 -3.573,-1.5 -2.869,0 -3.505,-0.345 -3.227,-1.75 0.256,-1.292 1.323,-1.75 4.074,-1.75 2.316,0 3.727,-0.473 3.727,-1.25 C 67,122.389 65.133,122 61,122 h -6 v 8 m 80,0.14 v 8.14 l 5.667,-0.585 c 7.012,-0.724 9.533,-2.914 9.533,-8.283 0,-5.31 -2.782,-7.412 -9.811,-7.412 H 135 v 8.14 m 25.208,-0.39 c 0.263,6.986 0.489,7.75 2.292,7.75 1.525,0 2.074,-0.771 2.313,-3.25 0.276,-2.858 0.668,-3.25 3.25,-3.25 1.616,0 2.937,-0.45 2.937,-1 0,-0.55 -1.35,-1 -3,-1 -2.533,0 -3,-0.389 -3,-2.5 0,-2.19 0.433,-2.5 3.5,-2.5 1.925,0 3.5,-0.45 3.5,-1 0,-0.556 -2.681,-1 -6.042,-1 h -6.042 l 0.292,7.75 m 53,0 0.292,7.75 5.775,-0.118 c 7.432,-0.151 9.725,-2.033 9.725,-7.98 0,-5.661 -2.414,-7.402 -10.265,-7.402 h -5.819 l 0.292,7.75 m 25.999,-0.074 c 0.244,6.497 0.586,7.858 2.043,8.136 1.522,0.291 1.76,-0.553 1.829,-6.489 0.083,-7.168 0.537,-6.789 2.906,2.427 1.565,6.09 4.344,5.857 5.971,-0.5 2.245,-8.774 2.904,-9.2 2.976,-1.927 0.059,5.94 0.295,6.78 1.818,6.489 1.457,-0.278 1.799,-1.639 2.043,-8.136 l 0.293,-7.802 -3.767,0.313 c -3.561,0.296 -3.812,0.545 -4.602,4.563 -0.459,2.338 -1.194,4.25 -1.634,4.25 -0.439,0 -1.2,-1.912 -1.691,-4.25 -0.842,-4.013 -1.104,-4.267 -4.685,-4.563 l -3.793,-0.313 0.293,7.802 m 26.288,-0.926 c -1.495,3.713 -2.941,7.313 -3.214,8 -0.838,2.116 3.559,1.417 4.719,-0.75 0.692,-1.294 2.094,-2 3.968,-2 2.019,0 3.09,0.606 3.532,2 0.415,1.308 1.513,2 3.174,2 1.63,0 2.362,-0.448 2.045,-1.25 C 273.882,122.019 273.87,122 271,122 c -2.506,0 -3.062,0.681 -5.505,6.75 M 283,129.952 c 0,7.294 0.182,8.048 1.937,8.048 1.454,0 2.014,-0.81 2.25,-3.25 0.238,-2.473 0.789,-3.25 2.303,-3.25 1.43,0 2.136,0.845 2.507,3 0.377,2.193 1.145,3.089 2.857,3.332 2.165,0.308 2.288,0.082 1.638,-3 -0.386,-1.832 -1.099,-3.753 -1.584,-4.268 -0.517,-0.55 -0.181,-1.71 0.814,-2.809 2.92,-3.227 0.577,-5.206 -6.576,-5.553 L 283,121.905 v 8.047 M 301,130 c 0,7.333 0.167,8 2,8 1.681,0 2.005,-0.678 2.033,-4.25 0.033,-4.149 0.074,-4.201 1.75,-2.196 0.944,1.13 2.402,3.087 3.239,4.35 1.006,1.516 2.278,2.176 3.75,1.945 2.223,-0.348 2.222,-0.359 -0.701,-4.758 l -2.93,-4.409 2.548,-3.341 2.548,-3.341 h -2.295 c -1.353,0 -3.439,1.335 -5.079,3.25 l -2.782,3.25 -0.04,-3.25 C 305.009,122.68 304.581,122 303,122 c -1.833,0 -2,0.667 -2,8 m 18.208,-0.25 0.292,7.75 h 5.917 c 3.844,0 6.062,-0.438 6.333,-1.25 0.288,-0.864 -0.844,-1.25 -3.667,-1.25 -3.416,0 -4.083,-0.327 -4.083,-2 0,-1.619 0.667,-2 3.5,-2 2.444,0 3.5,-0.452 3.5,-1.5 0,-1.053 -1.064,-1.5 -3.573,-1.5 -2.863,0 -3.508,-0.348 -3.242,-1.75 0.232,-1.223 1.458,-1.843 4.073,-2.06 6.291,-0.522 4.158,-2.19 -2.8,-2.19 h -6.542 l 0.292,7.75 M 334,122.934 c 0,0.513 1.19,1.076 2.645,1.25 2.544,0.304 2.65,0.565 2.75,6.816 0.094,5.798 0.321,6.5 2.105,6.5 1.773,0 2.034,-0.765 2.296,-6.75 0.281,-6.42 0.416,-6.75 2.75,-6.75 1.35,0 2.454,-0.45 2.454,-1 0,-0.578 -3.167,-1 -7.5,-1 -4.125,0 -7.5,0.42 -7.5,0.934 m -232.429,2.637 c -2.835,2.836 -1.252,9.429 2.264,9.429 2.633,0 4.165,-2.023 4.165,-5.5 0,-5.042 -3.299,-7.058 -6.429,-3.929 M 121.2,125.2 c -1.281,1.281 -1.593,5.611 -0.593,8.218 0.718,1.872 3.499,2.076 5.193,0.382 2.587,-2.587 0.894,-9.8 -2.3,-9.8 -0.605,0 -1.64,0.54 -2.3,1.2 m 18.398,-0.464 c -0.329,0.328 -0.598,2.772 -0.598,5.431 0,4.031 0.306,4.833 1.845,4.833 3.937,0 6.829,-6.46 3.905,-8.722 -1.86,-1.439 -4.473,-2.221 -5.152,-1.542 m 40.787,0.029 c -3.213,2.117 -2.11,10.235 1.39,10.235 2.691,0 4.225,-1.997 4.225,-5.5 0,-4.442 -2.658,-6.683 -5.615,-4.735 m 18.65,1.169 c -1.478,2.763 -1.278,6.619 0.417,8.026 3.772,3.13 8.043,-2.383 5.748,-7.42 -1.382,-3.033 -4.691,-3.359 -6.165,-0.606 M 218,129.433 c 0,6.031 0.861,6.753 4.777,4.01 3.962,-2.775 2.678,-7.292 -2.527,-8.888 -2.147,-0.658 -2.25,-0.434 -2.25,4.878 m 69.336,-3.866 c -0.79,2.06 0.893,3.666 2.997,2.859 2.11,-0.81 2.16,-3.023 0.085,-3.819 -2.226,-0.854 -2.408,-0.798 -3.082,0.96 m -17.688,1.617 c -1.027,3.832 -0.747,4.816 1.371,4.816 1.693,0 1.914,-0.444 1.371,-2.75 -0.925,-3.925 -2.023,-4.752 -2.742,-2.066"
       stroke="none"
       fill="#0b140c"
       fill-rule="evenodd"
       id="path2" /></g></svg>
