<svg xmlns="http://www.w3.org/2000/svg" width="24" height="24"><path fill="#d67855" fill-rule="evenodd" d="M13.38 3.68c-.1.27-.31.64-.48.83s-.3.37-.3.42q-.02.07-.12.07c-.07 0-.25.17-.4.37-.23.3-.27.43-.22.71s.04.34-.07.3q-.14-.05-.15-.57c-.01-.3-.1-.7-.2-.9l-.24-.51c-.11-.24-.4-.25-.4-.02 0 .15-.12.24-.43.35-.33.1-.42.19-.43.38q0 .49.45.5h.26l-.26.22c-.15.12-.32.32-.38.45-.14.27-.12 1.03.04 1.15q.1.08-.03.14c-.06.02-.12.13-.12.22 0 .1-.03.21-.07.25a.3.3 0 0 0-.08.2c0 .06-.13.1-.3.08a2 2 0 0 0-.55.04c-.24.05-.24.06-.06.2.11.08.3.14.41.14.21 0 .65.4.65.6a24 24 0 0 1-3.45.1c-3 0-3.45.02-3.45.15s1.07.15 9 .15 9-.02 9-.15-.43-.15-3.25-.15c-1.8 0-3.25-.04-3.25-.09q.02-.09.15-.21c.08-.07.15-.27.15-.45 0-.28-.04-.33-.3-.39q-.5-.08-.36-.61c.05-.2.13-.25.36-.25q.48-.02.5-.59c0-.11-.16-.35-.35-.54-.2-.19-.35-.37-.35-.4 0-.12.36-.07.56.08.26.2.7.19.78 0 .08-.22.08-.7 0-.62q-.08.05-.2-.04c-.2-.16-.36-.02-.24.2.09.17.06.18-.28.1a1.4 1.4 0 0 0-.54-.03q-.32.1-.04-.31c.2-.3.27-.77.1-.71q-.15.08-.04-.2c.12-.3.13-1.14.02-1.14-.04 0-.14.15-.2.34-.07.19-.2.4-.27.46-.13.1-.15.08-.15-.17a1 1 0 0 0-.13-.46c-.1-.16-.14-.12-.3.31m.53 2.3c0 .1-.08.3-.18.47l-.18.3.49.22c.62.3.67.29.67-.05q0-.29-.35-.62c-.19-.18-.32-.37-.29-.42q.04-.07-.05-.08-.1.01-.11.18m-2.2 2.34c0 .11-.37.47-.43.42-.02-.03-.07.05-.1.16q-.06.21.11.26c.1.03.25.1.35.15q.16.08.17 0c0-.05.18-.12.4-.16.3-.05.44-.14.52-.31.1-.21.08-.27-.13-.42-.24-.17-.89-.24-.89-.1m-1.73.16c-.16.17-.16.2-.02.32.08.07.15.18.15.24s.15.11.34.12c.3 0 .35-.03.38-.26.05-.31-.14-.52-.37-.43q-.16.04-.24-.06-.07-.12-.24.07m3.17.58-.38.34h.31c.18 0 .35-.04.38-.1.03-.05.16-.1.29-.1.23 0 .65-.25.56-.33a2 2 0 0 0-.42-.1c-.32-.05-.42-.01-.74.29m-9.64 2.9v1.55l.32-.03.32-.03-.03-.62-.02-.63h.51c.48 0 .51-.02.48-.22s-.1-.23-.5-.26l-.48-.03v-.8l.65.03.65.03v-.55H3.5zm14.44-1.31a.5.5 0 0 0 .02.33c.04.1.06.23.05.3q-.05.15.19 0c.22-.14.36-.5.25-.67-.1-.16-.45-.13-.51.04m-11.86.32c-.02.04-.01.55.02 1.11.04.94.07 1.06.29 1.23q.24.19.68.19c.36 0 .5-.06.74-.3.28-.28.29-.31.29-1.3 0-1 0-1.01-.22-.98s-.23.08-.26 1-.04 1-.26 1.1q-.24.1-.45-.01c-.19-.1-.21-.21-.22-.96 0-.47-.02-.9-.03-.97-.01-.14-.52-.24-.58-.11m2.82-.05-.03 1.3-.02 1.29.8-.03c.78-.03.8-.04.83-.3s.02-.26-.35-.17c-.64.15-.62.18-.65-.98l-.03-1.08-.27-.03q-.26-.03-.28 0m2.2 1.28v1.3h.8c.44 0 .8-.04.8-.1l.06-.25c.06-.15 0-.17-.47-.14l-.54.04-.03-1.07-.03-1.08h-.59zm2.3-1.28-.03 1.3-.02 1.28h.81c.75 0 .82-.02.87-.22.09-.32.01-.37-.45-.27-.56.13-.65.08-.6-.36.04-.35.06-.36.4-.33.31.03.37 0 .37-.17 0-.16-.08-.2-.36-.23-.3-.03-.38-.08-.42-.28-.04-.23-.02-.24.5-.24.5 0 .54-.02.51-.22s-.09-.23-.8-.26a5 5 0 0 0-.78 0m2.35 1.27v1.31h.3c.3 0 .3-.01.27-.4q-.09-.96.48-.15c.3.45.81.85 1.07.85q.12-.02.23-.2c.09-.16.05-.21-.23-.35a2 2 0 0 1-.56-.46l-.22-.3.2-.17a.73.73 0 0 0 .09-1.07c-.2-.24-.33-.28-.94-.32l-.69-.05zm3.45-1.2a.7.7 0 0 0-.5.67c0 .37.2.58.72.74q.73.25.48.56-.24.3-.82 0-.46-.25-.48.2c0 .18.47.35.94.35 1.19 0 1.4-1.17.27-1.55-.46-.15-.68-.35-.54-.49.1-.1.78-.07.9.04q.09.1.21-.15c.1-.23.1-.26-.14-.35a2 2 0 0 0-1.04-.03m-2.9.79c0 .32.02.35.26.32.56-.06.54-.68-.02-.68-.2 0-.24.05-.24.36M3 14.65c0 .13 1.07.15 9 .15s9-.02 9-.15-1.07-.15-9-.15-9 .02-9 .15"/></svg>