<svg xmlns="http://www.w3.org/2000/svg" width="24" height="24"><path fill="#c43d48" fill-rule="evenodd" d="m9.03 8.33-.87 2-.26.57h.25c.2 0 .3-.1.5-.55l.24-.55h1.59l.22.55c.19.46.26.55.47.55q.23 0 .21-.1A80 80 0 0 0 9.7 6.9c-.03 0-.33.64-.67 1.43M4.1 7.23a2 2 0 0 0-.28 3.37c1.18.86 2.98.1 2.98-1.24V9h-.9c-.83 0-.9.01-.9.2 0 .18.07.2.65.2.6 0 .65.02.65.2 0 .3-.5.76-.95.89a1.5 1.5 0 0 1-1.46-.45c-.28-.29-.33-.43-.36-.91-.05-.76.17-1.2.78-1.51q.9-.47 1.69.17c.33.26.4.28.5.16s.1-.2-.06-.36c-.54-.6-1.56-.76-2.34-.36m8.8 1.71v1.96h.5l-.02-1.93c-.03-1.9-.03-1.92-.26-1.95l-.22-.03zm2.47-1.87c-.04.03-.07.91-.07 1.95v1.88h1.15c1.08 0 1.15-.01 1.15-.2s-.07-.2-.9-.2h-.9V8.75c0-1.63-.01-1.75-.18-1.75-.1 0-.22.03-.25.07m2.74.49c-.24.65-.26.84-.07.84.07 0 .25-.28.4-.62.21-.48.24-.63.14-.7-.22-.13-.24-.1-.47.48m-8.75 1.1c-.15.37-.25.68-.23.7.03.03.3.04.6.02l.55-.03-.25-.6a5 5 0 0 0-.32-.68c-.04-.04-.2.23-.35.6M20 8.46c-.3.1-.5.36-.5.62 0 .35.08.45.58.7.32.16.42.27.42.46 0 .38-.6.46-.74.09q-.04-.17-.26-.04c-.17.09-.18.14-.08.3.42.67 1.58.4 1.58-.38 0-.31-.17-.5-.68-.76-.18-.1-.36-.24-.39-.33-.09-.22.18-.35.42-.2.23.16.45.12.45-.08 0-.25-.5-.49-.8-.38"/></svg>