<?xml version="1.0" encoding="UTF-8" standalone="no"?>
<svg
   viewBox="0 0 18.040001 21.999998"
   width="18.040001pt"
   height="21.999998pt"
   version="1.1"
   id="svg1"
   sodipodi:docname="pink_master_pin.svg"
   xml:space="preserve"
   inkscape:export-filename="..\brands_2024\galitossvg"
   inkscape:export-xdpi="96"
   inkscape:export-ydpi="96"
   xmlns:inkscape="http://www.inkscape.org/namespaces/inkscape"
   xmlns:sodipodi="http://sodipodi.sourceforge.net/DTD/sodipodi-0.dtd"
   xmlns="http://www.w3.org/2000/svg"
   xmlns:svg="http://www.w3.org/2000/svg"><defs
     id="defs1" /><sodipodi:namedview
     id="namedview1"
     pagecolor="#ffffff"
     bordercolor="#000000"
     borderopacity="0.25"
     inkscape:showpageshadow="2"
     inkscape:pageopacity="0.0"
     inkscape:pagecheckerboard="0"
     inkscape:deskcolor="#d1d1d1"
     inkscape:document-units="pt"
     inkscape:lockguides="true"><inkscape:page
       x="0"
       y="0"
       width="18.040001"
       height="21.999998"
       id="page2"
       margin="0"
       bleed="0" /></sodipodi:namedview><g
     id="g1"
     transform="matrix(0.06110845,0,0,0.06110845,-0.33042648,5.006056)"><path
       d="M 57.495114,1.6817255 C 61.799086,3.2556219 64.976518,2.3601435 69.426382,1.455086 81.778484,0.52867907 92.32035,1.1652704 102.24367,9.1608025 l 3.20315,2.7700275 c 5.765,4.932374 9.94595,5.909896 17.33534,6.789088 7.28445,1.696078 11.96278,7.416534 16.18704,13.27599 5.24408,11.413576 2.64274,22.513166 -1.24399,33.950473 -1.119,3.428879 -1.92044,6.741856 -2.54339,10.289396 7.77227,5.526949 13.81256,5.768915 23.20779,5.157289 -0.0266,-1.249837 -0.0532,-2.499673 -0.0806,-3.787384 0.0806,-3.948549 0.0806,-3.948549 1.36991,-5.237872 1.81597,-0.140378 3.63826,-0.200881 5.45947,-0.22664 22.13137,-0.334881 22.13137,-0.334881 42.24546,-8.798615 -0.79007,-3.818652 -1.61647,-5.64799 -3.86797,-9.025256 0.48349,-3.465053 0.48349,-3.465053 1.28932,-6.446612 h 5.15728 v 3.867967 h 5.1573 c -0.87755,-1.356205 -1.75509,-2.712411 -2.65923,-4.109714 -1.9778,-3.433303 -2.52193,-4.549619 -2.25631,-8.622343 1.04758,-2.73981 1.04758,-2.73981 2.3369,-4.029132 3.06213,-0.402913 3.06213,-0.402913 6.4466,0 2.57802,2.578016 3.70021,4.423357 4.51263,7.977682 l 0.64467,2.336896 3.86796,1.289322 c -0.38726,-0.855938 -0.7745,-1.711878 -1.17348,-2.593754 -0.73545,-1.707722 -0.73545,-1.707722 -1.48575,-3.449943 -0.49363,-1.121862 -0.98725,-2.243724 -1.49582,-3.399581 -1.14059,-3.926184 -0.96908,-6.03603 0.28709,-9.896556 2.57864,-2.578645 2.57864,-2.578645 6.12428,-3.303888 5.30638,0.918414 7.24578,2.566729 10.46063,6.794124 4.74076,9.562984 1.11016,21.844541 -1.02459,31.82731 -1.07869,5.084341 -1.5708,9.770568 -1.37778,14.966022 h -3.86796 v 3.867967 l 9.02525,1.289323 -1.28932,5.157289 c -3.62622,0.32233 -3.62622,0.32233 -7.73593,0 -0.55845,-0.877546 -1.11688,-1.755091 -1.69224,-2.659228 -1.92452,-2.793287 -1.92452,-2.793287 -4.89541,-2.734774 -4.53105,0.332668 -4.53105,0.332668 -8.88423,1.526035 -1.69869,2.548558 -1.69869,2.548558 -2.57864,5.157289 1.09028,0.425476 2.18056,0.850953 3.30389,1.289322 5.73853,3.338782 9.83461,7.317451 13.45731,12.893218 0.56407,4.51262 0.56407,4.51262 0,7.73594 -7.79904,-0.41577 -14.6315,-1.11166 -21.84295,-4.17015 -5.00808,-1.8626 -10.2973,-2.65132 -15.5474,-3.56579 0.0398,1.87475 0.0398,1.87475 0.0806,3.78738 -0.0806,3.94856 -0.0806,3.94856 -1.3699,5.23788 2.2836,0.0947 2.2836,0.0947 4.61334,0.19139 2.00789,0.0968 4.01573,0.19416 6.02356,0.2921 1.00219,0.0399 2.00439,0.0798 3.03697,0.12088 9.51177,0.48778 9.51177,0.48778 13.4019,3.26359 1.53106,2.65923 1.53106,2.65923 2.57864,5.1573 l 1.28932,1.28932 c 0.0523,2.14823 0.055,4.29845 0,6.4466 3.51647,0.68624 7.03481,1.35519 10.55633,2.01458 0.99138,0.19527 1.98278,0.39057 3.00421,0.59177 5.26876,0.97236 9.58769,1.69818 14.80455,-0.0277 0.87753,-0.66482 1.75508,-1.32962 2.65923,-2.01457 2.49806,-1.8534 2.49806,-1.8534 7.65535,-1.8534 l -1.28932,3.86797 c 2.43318,-0.11965 2.43318,-0.11965 4.91552,-0.24174 5.04104,-0.0269 5.04104,-0.0269 7.9777,2.17572 l 1.28932,1.93399 -9.02526,2.57863 c 1.03709,0.55844 2.0742,1.11688 3.14273,1.69225 3.30388,2.17573 3.30388,2.17573 4.59321,6.04369 -4.27088,0.24176 -4.27088,0.24176 -9.02526,0 -2.09515,-1.93397 -2.09515,-1.93397 -3.86796,-3.86796 -3.38539,-0.32323 -3.38539,-0.32323 -6.44662,0 -0.55844,2.15397 -0.55844,2.15397 -1.12815,4.35146 -1.45049,4.67378 -1.45049,4.67378 -4.02914,7.25244 l -2.57865,-2.57866 c 0.0302,-2.79016 0.0302,-2.79016 0.4835,-5.9631 0.14294,-1.05373 0.28585,-2.10743 0.43312,-3.19309 0.12301,-0.80774 0.24598,-1.61548 0.37271,-2.4477 -1.1202,-0.17118 -2.2404,-0.34238 -3.39455,-0.51875 -2.22876,-0.34155 -2.22876,-0.34155 -4.50255,-0.68999 -2.19885,-0.33656 -2.19885,-0.33656 -4.44212,-0.67992 -4.05752,-0.63312 -8.10853,-1.29621 -12.1579,-1.9793 l -2.57865,3.86796 c -12.16992,1.56933 -27.02764,1.06034 -37.0932,-6.57756 -5.39685,-3.17155 -9.18387,-2.95844 -15.28552,-2.60887 -10.71613,0.49715 -10.71613,0.49715 -15.95537,-2.41747 -2.6392,0.0993 -2.6392,0.0993 -5.31844,0.8864 l -3.09237,0.77057 c -2.09049,0.60342 -4.1674,1.2567 -6.225,1.9642 -10.2007,3.47223 -20.87315,4.84275 -31.2157,1.21379 -3.14272,-2.25631 -3.14272,-2.25631 -5.30838,-4.93569 -4.073477,-3.37399 -7.689467,-3.12911 -12.742138,-3.12259 -9.691043,-0.31395 -19.56432,-1.12081 -27.267148,-7.68051 -1.7426,-1.98939 -1.7426,-1.98939 -4.24066,-5.85735 l -1.692237,-2.49807 c -1.687009,-5.06102 -1.61674,-9.904297 0.402914,-14.827201 l 1.289323,-2.014566 h 2.578644 l 1.289322,16.761187 2.578645,-6.44661 c 3.38447,-1.69224 3.38447,-1.69224 6.446611,-2.578657 v 7.735937 l -3.867966,1.28933 v 5.15729 h 2.578644 l 0.966991,-2.49807 c 1.611653,-2.65922 1.611653,-2.65922 4.351463,-3.62621 l 2.417478,-0.32234 c -0.726809,4.2155 -1.933495,6.22197 -5.157288,9.02526 8.448628,2.9472 16.895296,3.35989 25.786445,3.86796 v -9.02524 l 5.157287,-2.57865 v 2.57865 h 2.57864 v -2.57865 l 16.76119,2.57865 V 100.7329 l -2.73981,-0.4835 c -3.70679,-0.805837 -3.70679,-0.805837 -7.09127,-2.095147 -5.04692,-1.495377 -9.81658,-1.896325 -15.048805,-2.296598 -4.209896,-0.340695 -8.338445,-0.922391 -12.510451,-1.571367 0.539148,-6.290154 3.27532,-8.655641 7.735925,-12.893223 L 95.21283,77.525098 C 94.277106,77.430363 93.341392,77.33563 92.377323,77.238023 80.168287,73.849462 70.414615,56.800482 62.989843,47.090043 52.196279,32.913223 52.196279,32.913223 36.629246,25.38813 32.95713,25.681832 32.95713,25.681832 30.102052,29.256097 26.878747,32.39882 26.878747,32.39882 23.413693,32.559987 20.432135,31.109498 20.432135,31.109498 18.739899,28.530853 16.98991,20.894537 16.545083,14.494352 20.512717,7.4987845 30.046633,-5.8062046 43.748864,-4.4492309 57.495114,1.6817255 Z"
       fill="#0c0807"
       id="path2"
       sodipodi:nodetypes="cccccccccccccccccccccccccccccccccccccccccccccccccccccccccccccccccccccccccccccccccccccccccccccccccccccccccccccccccccccccccccccccccc"
       style="stroke-width:1.28932" /><path
       d="m 50.570042,2.3364598 c 2.955676,1.271996 5.729699,2.7125667 8.541761,4.2759152 l 3.041994,1.5209985 c 17.695447,9.5239815 31.962204,27.0439645 39.586223,45.5392635 1.17107,4.371977 1.74353,7.756331 1.20874,12.248561 l -2.57865,2.578645 C 91.492144,68.158383 86.300903,64.699264 80.068325,58.573069 78.902146,57.297388 77.745669,56.012781 76.598236,54.720212 L 74.730356,52.65654 C 71.206922,48.722577 67.912544,44.692456 64.752587,40.457084 58.073491,31.673833 49.33245,22.755961 38.482647,19.505597 c -4.470754,0.08435 -6.650142,0.319868 -9.992249,3.303888 l -1.611651,1.853401 H 24.300102 C 23.18997,10.798592 23.18997,10.798592 27.362243,5.8065488 33.911261,-0.11875333 42.202362,-0.07200103 50.570042,2.3364598 Z"
       fill="#cf252c"
       id="path3"
       sodipodi:nodetypes="cccccccccccccccc"
       style="stroke-width:1.28932" /><path
       d="m 124.73629,75.866231 c 2.77162,1.204741 5.48224,2.490962 8.18921,3.8346 l 2.67811,1.323947 c 5.50775,2.882894 9.47899,6.096374 13.76075,10.682866 l 2.57864,1.289322 1.28933,-3.867966 5.15728,1.289322 0.32234,2.417479 0.96699,2.739814 2.57864,1.208731 2.57865,1.369907 0.56408,3.223307 0.72524,3.22331 c 3.10665,1.60796 3.10665,1.60796 6.44661,2.57863 l 2.57865,2.57865 c 2.99477,0.51634 6.00488,0.95373 9.02525,1.28933 -0.28905,5.05841 -1.23713,6.39669 -4.99612,9.99224 -4.9317,3.55082 -8.02667,4.35659 -13.94079,4.27088 -1.56314,-0.0174 -1.56314,-0.0174 -3.15784,-0.0352 -0.79278,-0.015 -1.58556,-0.0299 -2.40237,-0.0454 l -1.28933,-5.1573 c -4.07858,0 -6.04914,0.75061 -9.7505,2.3369 -21.65637,8.83229 -21.65637,8.83229 -32.79713,6.68836 -3.21654,-1.84534 -5.14647,-3.72086 -7.73593,-6.4466 1.12815,-6.28545 1.12815,-6.28545 2.57864,-7.73594 3.55358,-0.34315 7.07491,-0.60565 10.63692,-0.80583 0.98557,-0.0665 1.97114,-0.13296 2.98659,-0.20146 5.15624,-0.30278 9.69579,-0.34498 14.74158,1.00729 -2.88783,-4.33174 -4.30921,-4.75367 -9.02525,-6.44661 -1.28933,-1.28933 -1.28933,-1.28933 -1.36991,-4.59321 l 0.0806,-3.14273 3.86798,-1.289317 v -3.867958 l -2.98156,1.289318 c -3.46505,1.28932 -3.46505,1.28932 -7.33302,1.28932 2.2563,-4.996123 2.2563,-4.996123 5.15728,-6.44661 6.6973,-0.623005 10.84762,1.029449 16.7612,3.867972 v -3.867952 l -2.71464,-0.992174 c -4.19747,-1.784354 -7.94439,-4.022607 -11.87082,-6.340846 -7.81002,-4.374105 -7.81002,-4.374105 -16.39353,-4.185261 -4.57551,2.165437 -8.51813,5.168384 -12.4752,8.300012 -2.961417,1.928947 -2.961417,1.928947 -8.118701,1.928947 1.807053,-4.303409 3.804749,-6.469162 7.574771,-9.186422 l 2.64915,-1.944056 c 7.08357,-4.677832 13.64594,-6.51506 21.87818,-3.421612 z"
       fill="#cd252c"
       id="path4"
       sodipodi:nodetypes="cccccccccccccccccccccccccccccccccccccccccccccc"
       style="stroke-width:1.28932" /><path
       d="m 72.005026,5.323053 c 11.102928,-1.326456 19.076256,1.6969115 28.365084,7.735933 11.94237,9.802856 20.54884,23.411846 22.41709,38.961708 0.059,3.443839 0.0887,6.638467 -0.49861,10.032538 l -2.57865,2.578644 c -4.35146,0 -4.35146,0 -9.02525,-1.289322 -3.7635,-4.19362 -5.54639,-8.663375 -7.49418,-13.860213 C 96.956003,33.340278 83.993487,19.926245 70.715704,9.1910195 Z"
       fill="#7ebe3f"
       id="path5"
       sodipodi:nodetypes="ccccccccc"
       style="stroke-width:1.28932" /><path
       d="m 213.83047,62.053232 h 3.86797 c 0.25021,2.121028 0.49005,4.243283 0.72525,6.366028 l 0.40794,3.580892 0.15613,2.946303 c -2.1447,2.144694 -4.87695,1.754098 -7.81651,2.014565 -1.18503,0.108033 -2.37004,0.216062 -3.59097,0.327367 l -2.77507,0.236712 c -1.20452,3.881269 -1.34669,4.985169 0,9.025256 h 2.57866 V 89.129 l -3.54564,1.611652 c -4.09036,2.202499 -6.57415,3.715678 -9.34759,7.413601 -1.04134,4.702427 -1.04134,4.702427 -1.28933,9.025247 -2.49805,0.72525 -2.49805,0.72525 -5.15728,1.28933 l -1.28932,-1.28933 -4.1903,-0.32232 c -7.40402,-1.4808 -10.01511,-5.58428 -14.18255,-11.6039 l -2.25631,-3.545636 -1.28933,-1.289322 c -0.33431,-2.139634 -0.59155,-4.291645 -0.80582,-6.446612 l -0.3727,-3.545636 -0.1108,-2.900975 c 2.75053,-2.750533 8.97071,-1.648372 12.81264,-1.772818 9.18719,-0.383547 17.22998,-1.350518 25.86703,-4.673793 l 4.51263,-1.20874 c 3.3934,-1.08292 3.3934,-1.08292 4.91553,-4.029132 l 0.88642,-2.498062 z"
       fill="#7cbb3e"
       id="path6"
       sodipodi:nodetypes="ccccccccccccccccccccccccccccc"
       style="stroke-width:1.28932" /><path
       d="m 191.91199,112.3368 c 3.97634,0.14209 7.95114,0.31041 11.92624,0.48349 l 3.40965,0.12088 3.29885,0.15109 3.02815,0.12276 c 3.15495,0.45761 5.28364,1.32114 7.99153,2.98974 1.53107,2.65923 1.53107,2.65923 2.57864,5.1573 l 1.28932,1.28932 c 0.0523,2.14823 0.055,4.29845 0,6.4466 3.51648,0.68624 7.03482,1.35519 10.55633,2.01457 l 3.00422,0.59178 c 5.26876,0.97235 9.58769,1.69818 14.80454,-0.0277 l 2.65923,-2.01456 c 2.49807,-1.85341 2.49807,-1.85341 7.65535,-1.85341 l -1.28932,3.86797 c 1.62212,-0.0797 3.24425,-0.15956 4.91553,-0.24174 5.04103,-0.0268 5.04103,-0.0268 7.97769,2.17572 l 1.28932,1.93399 -9.02525,2.57863 3.14272,1.69225 c 3.30388,2.17573 3.30388,2.17573 4.59321,6.04369 -4.27087,0.24176 -4.27087,0.24176 -9.02526,0 -2.09514,-1.93397 -2.09514,-1.93397 -3.86796,-3.86796 -3.38538,-0.32323 -3.38538,-0.32323 -6.44662,0 l -1.12815,4.35147 c -1.45049,4.67378 -1.45049,4.67378 -4.02913,7.25243 l -2.57865,-2.57865 c 0.0302,-2.79017 0.0302,-2.79017 0.4835,-5.96311 l 0.43313,-3.19309 0.3727,-2.44769 -3.39455,-0.51876 -4.50256,-0.68999 -4.44211,-0.67992 c -4.05752,-0.63312 -8.10854,-1.2962 -12.15791,-1.9793 l -2.57865,3.86797 c -2.79017,0.37773 -2.79017,0.37773 -5.96311,0.24174 -1.58058,-0.0523 -1.58058,-0.0523 -3.19308,-0.10576 l -2.4477,-0.13598 3.2233,-2.57865 c 3.23911,-3.88691 3.7308,-4.56041 3.86797,-9.267 l -0.64466,-4.91554 -3.86797,-2.57866 v -2.57863 h -14.18254 v -1.28933 l -7.73594,-1.28932 z"
       fill="#110e0e"
       id="path9"
       sodipodi:nodetypes="ccccccccccccccccccccccccccccccccccccccccccccccc"
       style="stroke-width:1.28932" /><path
       d="m 115.84198,22.084242 c 4.11888,-0.720805 6.81551,-0.566814 10.41027,1.646908 7.46271,6.083285 10.88254,11.579273 11.86075,21.137834 0.28224,7.859142 -0.58661,14.043977 -4.22051,21.052215 -2.63907,0.997209 -2.63907,0.997209 -5.15729,1.289322 -2.47199,-2.472 -2.04068,-6.925508 -2.41748,-10.233995 -1.46863,-11.781194 -3.60039,-21.304002 -10.47574,-31.024318 z"
       fill="#c8242b"
       id="path13"
       sodipodi:nodetypes="cccccccc"
       style="stroke-width:1.28932" /><path
       d="m 197.83986,117.36818 c 1.91891,0.008 3.83781,0.0241 5.75663,0.0454 l 2.96392,0.0177 c 2.42341,0.0153 4.84674,0.0383 7.27007,0.0629 v 2.57864 l 5.15728,2.57864 c 0.46185,9.39089 0.46185,9.39089 -1.28932,12.89322 -4.22856,2.11429 -8.21476,1.51941 -12.89322,1.28932 v -3.86796 l -4.1903,-0.967 c -4.86543,-1.62181 -7.11186,-2.56837 -9.99225,-6.76894 0.43473,-6.23111 0.83096,-7.68849 7.21719,-7.86184 z"
       fill="#c9242b"
       id="path15"
       sodipodi:nodetypes="cccccccccccc"
       style="stroke-width:1.28932" /><path
       d="m 218.98776,55.606621 c 6.28545,1.128157 6.28545,1.128157 7.73594,2.578644 1.96646,-0.115237 3.92832,-0.316363 5.88252,-0.564079 l 3.22835,-0.397876 2.49303,-0.327367 c 1.36077,4.082329 1.26065,6.259362 0.80583,10.475744 -0.11634,1.14679 -0.23269,2.293583 -0.35255,3.475126 -0.45328,2.810319 -0.45328,2.810319 -1.7426,4.099642 -5.75135,0.401256 -10.10433,-0.533866 -15.47187,-2.578645 -0.12592,-7.932354 -0.12592,-7.932354 0,-10.314578 l 1.28931,-1.289322 -5.15728,-1.289323 z"
       fill="#614b2f"
       id="path18"
       sodipodi:nodetypes="ccccccccccccc"
       style="stroke-width:1.28932" /><path
       d="m 122.28859,74.946455 c 5.37055,2.217845 10.42362,4.865854 15.47187,7.735933 v 5.157289 c -3.05193,-1.144475 -5.98255,-2.310496 -8.80869,-3.943513 -5.22331,-2.977389 -9.30934,-4.695857 -15.49705,-3.570818 -4.80812,1.853307 -8.6862,4.986044 -12.70183,8.164028 -2.961418,1.928948 -2.961418,1.928948 -8.118712,1.928948 1.807064,-4.303409 3.80475,-6.469163 7.574772,-9.186421 l 2.64916,-1.944057 c 6.53057,-4.312643 11.63792,-5.714527 19.43048,-4.341389 z"
       fill="#c12329"
       id="path19"
       sodipodi:nodetypes="cccccccccc"
       style="stroke-width:1.28932" /><path
       d="m 117.58048,78.476981 c 3.75827,0.370947 5.86856,1.283593 9.12505,3.157832 l 3.10999,1.762746 3.19057,1.863473 3.26611,1.863474 c 2.65225,1.515574 5.29655,3.043471 7.93488,4.583138 v 3.867971 c -6.12429,-1.128159 -6.12429,-1.128159 -9.02526,-2.578649 -1.98587,-0.08962 -3.97544,-0.108974 -5.96312,-0.08059 -1.05372,0.0116 -2.10744,0.02327 -3.19309,0.03526 -0.80774,0.01495 -1.61548,0.02992 -2.44769,0.04533 l 1.28932,-6.446611 h -7.73593 l -1.28933,-2.578645 -3.86797,-2.578644 c 2.57865,-2.578645 2.57865,-2.578645 5.60647,-2.916085 z"
       fill="#0c0202"
       id="path20"
       sodipodi:nodetypes="cccccccccccccccc"
       style="stroke-width:1.28932" /><path
       d="m 209.9625,91.707644 c 4.20743,-0.736298 6.84799,-0.582107 10.4556,1.782891 4.76648,4.018458 8.65283,7.415945 10.17356,13.688965 h 2.57865 v 3.86798 l -14.18255,-1.28933 -1.28932,-5.15728 c -0.82071,-1.73799 -1.67103,-3.46308 -2.57865,-5.157297 h 3.86797 v 2.578647 l 2.57865,-1.28932 -1.28932,-3.867967 c -2.71511,-1.038732 -2.71511,-1.038732 -5.88254,-1.531077 l -3.22834,-0.619465 -2.49302,-0.428102 z"
       fill="#b42126"
       id="path22"
       sodipodi:nodetypes="cccccccccccccccc"
       style="stroke-width:1.28932" /><path
       d="m 229.30234,76.235777 h 9.02526 l -3.86797,1.289322 v 3.867967 l 9.02525,1.289322 -1.28932,5.157289 c -3.54564,0.483495 -3.54564,0.483495 -7.73593,0 -3.40264,-4.029436 -5.15729,-6.272112 -5.15729,-11.6039 z"
       fill="#242115"
       id="path29"
       sodipodi:nodetypes="cccccccc"
       style="stroke-width:1.28932" /><path
       d="m 215.11979,99.443573 h 3.86797 v 2.578647 l 2.3369,0.40291 c 2.82039,0.88641 2.82039,0.88641 4.75437,2.90098 2.10812,2.44813 2.10812,2.44813 7.09128,1.85339 v 3.86798 l -14.18255,-1.28933 -1.28932,-5.15728 c -0.82071,-1.73799 -1.67103,-3.46308 -2.57865,-5.157297 z"
       fill="#502426"
       id="path31"
       sodipodi:nodetypes="cccccccccc"
       style="stroke-width:1.28932" /><path
       d="m 229.30234,27.241531 c 2.25632,0.161166 2.25632,0.161166 5.15729,1.289322 3.77983,4.409815 5.10258,6.888045 5.47961,12.732058 l -0.32232,4.029131 h -2.57864 l -1.0375,-2.120329 -1.37999,-2.795211 -1.35982,-2.764993 c -1.46463,-2.90798 -1.46463,-2.90798 -3.95863,-6.502012 z"
       fill="#be2228"
       id="path32"
       sodipodi:nodetypes="cccccccccc"
       style="stroke-width:1.28932" /><path
       d="m 124.86724,77.525099 c 5.07181,0.724545 8.80833,2.00609 12.89322,5.157289 v 5.157289 c -5.20269,-2.04954 -10.33793,-4.231972 -15.47187,-6.446611 l 2.57865,-1.289322 z"
       fill="#b32026"
       id="path36"
       sodipodi:nodetypes="cccccc"
       style="stroke-width:1.28932" /><path
       d="m 59.111803,91.707644 h 2.578645 V 107.1795 l -3.867967,1.28933 c -1.949697,-3.8994 -1.511903,-7.30068 -1.289322,-11.603897 1.289322,-3.142723 1.289322,-3.142723 2.578644,-5.157289 z"
       fill="#2b2b2b"
       id="path38"
       sodipodi:nodetypes="cccccc"
       style="stroke-width:1.28932" /><path
       d="m 203.51589,98.154253 h 2.57865 l 1.28933,2.578647 5.15728,-1.289327 1.28932,6.446617 3.86797,1.28931 c -5.43936,0.253 -9.24459,-0.25489 -14.18255,-2.57863 z"
       fill="#611f22"
       id="path39"
       sodipodi:nodetypes="cccccccc"
       style="stroke-width:1.28932" /><path
       d="m 226.7237,24.662886 c 3.38447,-0.564079 3.38447,-0.564079 7.73593,0 3.21068,2.572802 5.82634,5.369556 7.73593,9.025256 -0.43816,2.880829 -0.43816,2.880829 -1.28932,5.157289 v -2.578645 h -2.57864 l -2.49807,-3.787384 c -2.28611,-4.261276 -2.28611,-4.261276 -6.52719,-5.237871 l -1.28932,2.578644 z"
       fill="#1e1717"
       id="path40"
       sodipodi:nodetypes="cccccccccc"
       style="stroke-width:1.28932" /><path
       d="m 265.40336,138.12323 c 7.29954,1.90424 7.29954,1.90424 9.50876,5.31847 l 0.80582,2.41747 h -9.02526 l -2.57864,-6.4466 z"
       fill="#0a0a0a"
       id="path41"
       sodipodi:nodetypes="cccccc"
       style="stroke-width:1.28932" /><path
       d="m 260.24608,131.67664 c 2.0672,-0.10473 4.13593,-0.1796 6.20486,-0.24175 l 3.49023,-0.13598 c 3.19813,0.37773 3.19813,0.37773 7.06609,4.24569 l -12.89322,2.57863 v -3.86795 h -3.86796 z"
       fill="#222222"
       id="path42"
       sodipodi:nodetypes="cccccccc"
       style="stroke-width:1.28932" /><path
       d="m 115.84198,82.682388 c -0.4821,3.495318 -1.04897,4.925217 -3.62621,7.413602 -2.8204,1.611654 -2.8204,1.611654 -7.97769,1.611654 v -3.867967 c 6.6308,-5.157289 6.6308,-5.157289 11.6039,-5.157289 z"
       fill="#b12026"
       id="path43"
       sodipodi:nodetypes="ccccc"
       style="stroke-width:1.28932" /><path
       d="m 220.27709,91.707644 c 4.02041,1.756748 6.50768,3.675966 9.34758,7.010679 l 2.03471,2.331867 c 1.51093,2.26135 1.51093,2.26135 1.51093,6.12931 h -2.57865 c -1.80808,-2.12032 -1.80808,-2.12032 -3.78739,-4.91554 -2.40841,-3.381627 -4.79781,-6.410489 -7.81651,-9.266994 z"
       fill="#180f0f"
       id="path45"
       sodipodi:nodetypes="cccccccc"
       style="stroke-width:1.28932" /><path
       d="m 124.86724,86.550355 c -0.40291,2.417479 -0.40291,2.417479 -1.28933,5.157289 -3.86797,2.578645 -3.86797,2.578645 -9.02526,2.578645 0.40292,-2.41748 0.40292,-2.41748 1.28933,-5.157289 3.86796,-2.578645 3.86796,-2.578645 9.02526,-2.578645 z"
       fill="#bb2228"
       id="path46"
       sodipodi:nodetypes="ccccc"
       style="stroke-width:1.28932" /><path
       d="m 221.56641,62.053232 6.44661,1.289322 -1.28932,3.867967 -2.57865,-1.289322 v 2.578644 h 2.57865 l -1.28933,3.867967 h -3.86796 z"
       fill="#dcdcdc"
       id="path47"
       sodipodi:nodetypes="ccccccccc"
       style="stroke-width:1.28932" /><path
       d="m 218.98776,55.606621 c 5.40376,0.75052 6.93066,1.652351 11.6039,5.157289 l -12.89322,-1.289323 z"
       fill="#b32026"
       id="path51"
       sodipodi:nodetypes="cccc"
       style="stroke-width:1.28932" /><path
       d="m 206.09454,46.581365 3.86796,1.289322 v 6.446611 h -5.15729 c -0.80582,-2.417479 -0.80582,-2.417479 -1.28932,-5.157289 z"
       fill="#4c2a2c"
       id="path52"
       sodipodi:nodetypes="cccccc"
       style="stroke-width:1.28932" /><path
       d="m 224.14505,37.556109 c 1.93398,1.611653 1.93398,1.611653 3.86797,3.867967 v 5.157289 l -5.1573,-1.289323 z"
       fill="#cccccc"
       id="path54"
       sodipodi:nodetypes="ccccc"
       style="stroke-width:1.28932" /><path
       d="m 217.69844,80.103744 c -2.25631,2.014565 -2.25631,2.014565 -5.15729,3.867966 -2.90098,-0.402913 -2.90098,-0.402913 -5.15728,-1.289322 v -2.578644 c 3.93582,-1.265089 6.37873,-1.265089 10.31457,0 z"
       fill="#a81e24"
       id="path57"
       sodipodi:nodetypes="ccccc"
       style="stroke-width:1.28932" /></g></svg>
