<?xml version="1.0" encoding="UTF-8" standalone="no"?>
<svg
   viewBox="0 0 24 24"
   width="24pt"
   height="24pt"
   version="1.1"
   id="svg1"
   sodipodi:docname="game_nation.svg"
   xml:space="preserve"
   inkscape:version="1.3 (0e150ed6c4, 2023-07-21)"
   xmlns:inkscape="http://www.inkscape.org/namespaces/inkscape"
   xmlns:sodipodi="http://sodipodi.sourceforge.net/DTD/sodipodi-0.dtd"
   xmlns="http://www.w3.org/2000/svg"
   xmlns:svg="http://www.w3.org/2000/svg"><defs
     id="defs1" /><sodipodi:namedview
     id="namedview1"
     pagecolor="#ffffff"
     bordercolor="#000000"
     borderopacity="0.25"
     inkscape:showpageshadow="2"
     inkscape:pageopacity="0.0"
     inkscape:pagecheckerboard="0"
     inkscape:deskcolor="#d1d1d1"
     inkscape:document-units="pt"
     inkscape:zoom="23.09375"
     inkscape:cx="13.29364"
     inkscape:cy="12.925575"
     inkscape:window-width="1920"
     inkscape:window-height="974"
     inkscape:window-x="-11"
     inkscape:window-y="1609"
     inkscape:window-maximized="1"
     inkscape:current-layer="svg1" /><g
     id="g1"
     transform="matrix(0.12268457,0,0,0.12268457,31.260764,-26.098553)"><g
       id="g2"
       transform="matrix(0.35626495,0,0,0.35626495,-233.14148,279.50354)"><path
         d="M 0,0 C 2.542769,1.0590708 3.908038,2.1282445 6,4 6,4.66 6,5.32 6,6 6.680625,5.690625 7.36125,5.38125 8.0625,5.0625 11.660159,3.7612192 14.134269,2.9344791 18,3 22.040879,5.1825066 25.220934,7.8822575 26.832031,12.261719 27.604395,17.260863 26.927093,20.760761 24,25 20.766005,27.930808 18.042173,28.882018 13.6875,29.375 9.4807855,28.947199 8.8799275,27.91107 6,25.09375 2.978884,23.441577 0.3393565,23.858256 -3.0625,24 -9.6396104,24.2495 -9.6396104,24.2495 -13.25,21.75 -13.8275,20.8425 -14.405,19.935 -15,19 -15.433125,18.38125 -15.86625,17.7625 -16.3125,17.125 -17.356401,13.898396 -17.348871,11.372424 -17,8 -12.770112,0.26951512 -8.3861661,-1.0921519 0,0 Z"
         fill="#e2275b"
         id="path2"
         transform="translate(338,38)" /><path
         d="M 0,0 C 6,0 6,0 7.5673828,1.3894043 7.9421777,2.0278931 8.3169727,2.6663818 8.703125,3.3242188 9.1259375,4.0235352 9.54875,4.7228516 9.984375,5.4433594 10.402031,6.1839258 10.819688,6.9244922 11.25,7.6875 11.899688,8.7693457 11.899688,8.7693457 12.5625,9.8730469 14.698721,13.482864 16.591901,17.033856 18,21 c 0.66,0 1.32,0 2,0 0.246211,-0.688359 0.492422,-1.376719 0.746094,-2.085938 C 22.206977,15.518988 24.080665,12.480702 26.0625,9.375 28.928165,4.8922766 28.928165,4.8922766 31,0 c 2.31,0 4.62,0 7,0 0,11.55 0,23.1 0,35 -2.31,0 -4.62,0 -7,0 -0.495,-9.405 -0.495,-9.405 -1,-19 -2.798257,4.927272 -2.798257,4.927272 -5.563477,9.873047 -0.355459,0.609082 -0.710918,1.218164 -1.077148,1.845703 -0.356104,0.628418 -0.712207,1.256836 -1.079102,1.904297 C 21.857783,30.077441 21.435293,30.531836 21,31 19.68,31 18.36,31 17,31 15.202415,28.553617 13.723261,26.254795 12.25,23.625 11.838789,22.926328 11.427578,22.227656 11.003906,21.507812 8,16.31834 8,16.31834 8,14 7.34,14 6.68,14 6,14 6,20.93 6,27.86 6,35 4.02,35 2.04,35 0,35 0,23.45 0,11.9 0,0 Z"
         fill="#e8e9ee"
         transform="translate(92,32)"
         id="path3" /><path
         d="m 0,0 c 7.92,0 15.84,0 24,0 0,1.65 0,3.3 0,5 -5.94,0 -11.88,0 -18,0 0,2.97 0,5.94 0,9 5.61,0 11.22,0 17,0 0,1.98 0,3.96 0,6 -5.61,0 -11.22,0 -17,0 0,2.64 0,5.28 0,8 6.27,0 12.54,0 19,0 0,1.98 0,3.96 0,6 C 16.75,34 8.5,34 0,34 0,22.78 0,11.56 0,0 Z"
         fill="#eeeef2"
         transform="translate(141,33)"
         id="path4" /><path
         d="m 0,0 c 1.9140625,1.1015625 1.9140625,1.1015625 4.7265625,3.1015625 -0.33,1.32 -0.66,2.64 -1,4 -4,0 -4,0 -7,-1 -6.109356,-0.8278116 -6.109356,-0.8278116 -11.7656255,1.09375 -2.437046,2.6331305 -3.234306,4.9058255 -3.796874,8.4062505 0.65739,4.090431 1.97168,6.299576 4.562499,9.499999 2.33938,1.16969 3.773694,1.133643 6.3750005,1.125 0.7708594,0.0026 1.5417188,0.0052 2.3359375,0.0078 2.6043511,-0.07993 2.6043511,-0.07993 6.2890625,-1.132813 0,-3.3 0,-6.6 0,-9.999999 1.98,0 3.96,0 6,0 0.7784819,9.87807 0.7784819,9.87807 -2.125,14.062499 -5.2612423,3.54562 -10.5375977,4.907762 -16.8750005,3.9375 -4.67485,-1.613016 -8.428428,-4.595663 -11.105468,-8.75 C -25.362624,19.36195 -25.300284,14.312808 -24.273437,9.1015625 -19.198686,0.11042724 -9.9326172,-3.9252611 0,0 Z"
         fill="#eff0f3"
         transform="translate(40.273437,33.898437)"
         id="path5" /><path
         d="M 0,0 C 0.51887286,5.811376 -0.0217107,9.3949689 -3.375,14.234375 -6.0714001,17.164117 -9.1862052,18.902089 -13,20 c -1.65,0 -3.3,0 -5,0 2.31,2.97 4.62,5.94 7,9 -0.33,0.66 -0.66,1.32 -1,2 -3.606952,1.180457 -7.209025,1.83201 -11,2 -2.125,-1.75 -2.125,-1.75 -4,-4 -2.951875,-0.952886 -5.941331,-1.503293 -9,-2 0,-0.33 0,-0.66 0,-1 1.60875,-0.12375 1.60875,-0.12375 3.25,-0.25 4.085002,-0.817 5.098917,-1.706164 7.75,-4.75 0.66,0 1.32,0 2,0 0,-0.99 0,-1.98 0,-3 -0.897187,-0.433125 -0.897187,-0.433125 -1.8125,-0.875 C -27,16 -27,16 -30,14 c 0,-0.66 0,-1.32 0,-2 3.995006,1.369716 6.800095,3.257224 10,6 0,-0.969375 0,-1.93875 0,-2.9375 C -19.207674,9.435834 -15.090714,5.6395319 -11,2 -7.2142331,0.14423189 -4.1870202,-0.2462953 0,0 Z"
         fill="#ad2558"
         id="path6"
         transform="translate(367,11)" /><path
         d="M 0,0 C 0.66,0 1.32,0 2,0 2.2412158,0.54301758 2.4824316,1.0860352 2.730957,1.6455078 9.0715662,15.905132 9.0715662,15.905132 16.003906,29.882812 17,32 17,32 17,34 14.69,34 12.38,34 10,34 9.34,32.35 8.68,30.7 8,29 4.7,28.67 1.4,28.34 -2,28 c 0.33,-1.65 0.66,-3.3 1,-5 1.65,-0.33 3.3,-0.66 5,-1 -1.485,-3.465 -1.485,-3.465 -3,-7 -2.4772395,3.98645 -4.6129627,8.107123 -6.6875,12.3125 -0.480498,0.967764 -0.480498,0.967764 -0.9707031,1.955078 C -7.4406445,30.844139 -8.2205807,32.421943 -9,34 c -2.31,0 -4.62,0 -7,0 C -10.990938,22.489814 -5.7233747,11.172758 0,0 Z"
         fill="#efeff3"
         transform="translate(68,33)"
         id="path7" /><path
         d="m 0,0 c 4.7250905,1.1812726 5.9882296,3.0782071 8.6875,6.8125 0.4284522,0.5751636 0.8569043,1.1503271 1.2983398,1.7429199 0.8945622,1.2023249 1.7848022,2.4078771 2.6708982,3.6164551 1.699665,2.313175 3.426507,4.605209 5.155518,6.896484 C 19.547771,21.374203 21.272868,23.687871 23,26 23.33,17.42 23.66,8.84 24,0 c 1.32,0 2.64,0 4,0 0,11.22 0,22.44 0,34 C 23.291744,32.822936 22.057695,30.971209 19.375,27.25 18.500312,26.073987 17.625302,24.898213 16.75,23.722656 16.301406,23.113091 15.852813,22.503525 15.390625,21.875488 13.095157,18.779669 10.731879,15.736634 8.375,12.6875 6.93125,10.810625 5.4875,8.93375 4,7 3.67,15.91 3.34,24.82 3,34 2.01,34 1.02,34 0,34 0,22.78 0,11.56 0,0 Z"
         fill="#c0265a"
         transform="translate(378,33)"
         id="path8" /><path
         d="M 0,0 C 4.3180116,1.0795029 4.7486694,1.4523574 7.2773437,4.7890625 7.8735352,5.5663672 8.4697266,6.3436719 9.0839844,7.1445312 9.6956445,7.9630859 10.307305,8.7816406 10.9375,9.625 c 0.607793,0.795352 1.215586,1.590703 1.841797,2.410156 C 16.27783,16.631934 19.64021,21.296294 23,26 23.33,17.42 23.66,8.84 24,0 c 0.99,0 1.98,0 3,0 0,11.22 0,22.44 0,34 -4.179831,-2.089916 -6.020443,-4.240068 -8.6875,-7.875 -0.428452,-0.570652 -0.856904,-1.141304 -1.29834,-1.729248 -0.893727,-1.192018 -1.783982,-2.386646 -2.670898,-3.58374 C 12.636849,18.510122 10.91249,16.222003 9.1877441,13.933838 7.4532717,11.626477 5.7274833,9.3125986 4,7 3.67,15.91 3.34,24.82 3,34 2.01,34 1.02,34 0,34 0,22.78 0,11.56 0,0 Z"
         fill="#d0265a"
         transform="translate(190,33)"
         id="path9" /><path
         d="M 0,0 C 2.6622108,2.3520363 3.9432419,4.6601634 5.375,7.8945312 5.8029687,8.8503711 6.2309375,9.8062109 6.671875,10.791016 7.3292969,12.28665 7.3292969,12.28665 8,13.8125 c 0.8740275,1.965277 1.749002,3.930132 2.625,5.894531 0.408633,0.921197 0.817266,1.842393 1.238281,2.791504 0.934755,2.057022 1.911224,4.069746 2.949219,6.075684 C 16,31 16,31 16,33 14.1875,32.9375 14.1875,32.9375 12,32 10.25,28.4375 10.25,28.4375 9,25 4.71,24.67 0.42,24.34 -4,24 c 0,-0.99 0,-1.98 0,-3 3.63,0 7.26,0 11,0 C 4.69,16.38 2.38,11.76 0,7 c -4.29,8.58 -8.58,17.16 -13,26 -0.99,0 -1.98,0 -3,0 1.476416,-4.875957 3.499057,-9.236057 5.8125,-13.75 0.7162097,-1.412728 1.4323555,-2.825488 2.1484375,-4.238281 0.3477246,-0.68272 0.6954492,-1.36544 1.0537109,-2.068848 C -5.2648483,9.5504616 -3.5906899,6.1349941 -1.9101562,2.7226563 -1,1 -1,1 0,0 Z"
         fill="#c9265a"
         transform="translate(245,34)"
         id="path10" /><path
         d="M 0,0 C 4.8899008,1.2224752 6.3949558,3.5240101 9.25,7.375 9.7089063,7.9653906 10.167813,8.5557813 10.640625,9.1640625 14,13.603237 14,13.603237 14,17 13.34,17.33 12.68,17.66 12,18 9.36,14.37 6.72,10.74 4,7 3.67,15.91 3.34,24.82 3,34 2.01,34 1.02,34 0,34 0,22.78 0,11.56 0,0 Z"
         fill="#cf265a"
         transform="translate(378,33)"
         id="path11" /><path
         d="m 0,0 c -0.33451901,6.4673676 -1.2164278,9.5353326 -6,14 -3.6860418,1.654958 -5.928211,2 -10,2 0.395328,-5.402813 2.125078,-9.2573922 6,-13 3.1478814,-1.7126404 6.3619969,-3 10,-3 z"
         fill="#191c4e"
         transform="translate(365,13)"
         id="path12" /><path
         d="m 0,0 c 8.58,0 17.16,0 26,0 0,0.66 0,1.32 0,2 -3.63,0.33 -7.26,0.66 -11,1 -0.33,9.9 -0.66,19.8 -1,30 -0.66,0 -1.32,0 -2,0 C 12,22.77 12,12.54 12,2 8.04,2 4.08,2 0,2 0,1.34 0,0.68 0,0 Z"
         fill="#e0285b"
         transform="translate(266,33)"
         id="path13" /><path
         d="M 0,0 C 0.99,0 1.98,0 3,0 3,11.22 3,22.44 3,34 2.01,34 1.02,34 0,34 0,22.78 0,11.56 0,0 Z"
         fill="#d5265a"
         transform="translate(305,33)"
         id="path14" /><path
         d="m 0,0 c 3.6646431,1.6490894 5.1668,3.85852 7.5,7.125 0,0.66 0,1.32 0,2 -3.3281684,1.014607 -6.51528484,1.835075 -10,2 -3.125,-2.25 -3.125,-2.25 -5,-5 0,-2 0,-2 2.1875,-4.1875 C -2.5,0.125 -2.5,0.125 0,0 Z"
         fill="#1e1c4e"
         id="path15"
         transform="translate(346.5,32.875)" /><path
         d="m 0,0 c 0.66,0 1.32,0 2,0 0,11.22 0,22.44 0,34 -1.32,-0.66 -2.64,-1.32 -4,-2 0,-1.32 0,-2.64 0,-4 0.66,0 1.32,0 2,0 C 0,18.76 0,9.52 0,0 Z"
         fill="#e3275b"
         transform="translate(215,33)"
         id="path16" /><path
         d="m 0,0 c 0.33,0 0.66,0 1,0 0,9.24 0,18.48 0,28 -0.66,0 -1.32,0 -2,0 -0.33,0.66 -0.66,1.32 -1,2 C -3.5058745,28.213268 -5.0045485,26.420465 -6.5,24.625 -7.3353125,23.627266 -8.170625,22.629531 -9.03125,21.601562 -11,19 -11,19 -11,17 c 4,1 4,1 10,9 0.33,-8.58 0.66,-17.16 1,-26 z"
         fill="#ab2558"
         transform="translate(214,33)"
         id="path17" /><path
         d="m 0,0 c 0.33,0 0.66,0 1,0 0,9.24 0,18.48 0,28 -1.32,0.33 -2.64,0.66 -4,1 C -4.3664615,27.406293 -5.7178717,25.79967 -7.0625,24.1875 -7.8166016,23.29418 -8.5707031,22.400859 -9.3476563,21.480469 -10.165566,20.252637 -10.165566,20.252637 -11,19 c 0.495,-1.485 0.495,-1.485 1,-3 3.3016678,3.209955 6.1019433,6.377429 9,10 0.33,-8.58 0.66,-17.16 1,-26 z"
         fill="#ab2458"
         transform="translate(402,33)"
         id="path18" /><path
         d="M 0,0 C 2.7923307,2.5527742 3.4896761,4.2236028 4,8 3.38125,8.061875 2.7625,8.12375 2.125,8.1875 -0.27761141,8.828919 -0.27761141,8.828919 -1.25,11.5625 -1.4975,12.366875 -1.745,13.17125 -2,14 c 3.3,0 6.6,0 10,0 0,0.33 0,0.66 0,1 -3.63,0 -7.26,0 -11,0 -0.33,-0.66 -0.66,-1.32 -1,-2 -0.99,0.495 -0.99,0.495 -2,1 1.4917027,-4.9723422 3.6045742,-9.4184574 6,-14 z"
         fill="#29325f"
         transform="translate(68,47)"
         id="path19" /><path
         d="M 0,0 C 0.33,0.66 0.66,1.32 1,2 4.465,1.505 4.465,1.505 8,1 7.67,1.66 7.34,2.32 7,3 5.35,3 3.7,3 2,3 4.31,5.97 6.62,8.94 9,12 8.34,12.66 7.68,13.32 7,14 6.5178906,13.361914 6.0357813,12.723828 5.5390625,12.066406 4.9074219,11.240117 4.2757812,10.413828 3.625,9.5625 2.9985156,8.7387891 2.3720313,7.9150781 1.7265625,7.0664062 0.16246096,4.9147191 0.16246096,4.9147191 -2,4 -2,3.34 -2,2.68 -2,2 -1.34,2 -0.68,2 0,2 0,1.34 0,0.68 0,0 Z"
         fill="#c9265a"
         id="path20"
         transform="translate(347,28)" /><path
         d="m 0,0 c 1,3 1,3 0,6 3.3,0 6.6,0 10,0 0,0.33 0,0.66 0,1 C 6.37,7 2.74,7 -1,7 -1.33,6.34 -1.66,5.68 -2,5 -2.99,5.495 -2.99,5.495 -4,6 -3.6875,4.125 -3.6875,4.125 -3,2 -2.01,1.34 -1.02,0.68 0,0 Z"
         fill="#363f69"
         transform="translate(66,55)"
         id="path21" /><path
         d="M 0,0 C 3.9140295,1.269415 5.7907287,2.5116769 8,6 4.6575037,5.4031257 2.5356366,4.2639612 0,2 0,1.34 0,0.68 0,0 Z"
         fill="#bd2659"
         id="path22"
         transform="translate(337,23)" /></g></g></svg>
