<?xml version="1.0" encoding="UTF-8" standalone="no"?>
<svg
   viewBox="0 0 16.5 4.9777141"
   width="16.5pt"
   height="4.9777141pt"
   version="1.1"
   id="svg1"
   xmlns="http://www.w3.org/2000/svg"
   xmlns:svg="http://www.w3.org/2000/svg">
  <defs
     id="defs1" />
  <path
     fill="currentcolor"
     d="M 16.5,0.14858788 H 14.182764 L 12.611441,1.5245166 V 0.14858788 H 10.952452 V 1.8796429 C 10.705795,0.76597278 9.7890049,0.14858788 8.3952449,0.14858788 H 5.775631 V 1.4509653 C 5.308321,0.49925658 4.245171,-5.1730957e-7 3.008172,-5.1730957e-7 1.20208,-5.1730957e-7 -1.671448e-8,1.0274883 -1.671448e-8,2.5520055 -1.671448e-8,3.9086174 1.094354,4.9777114 2.971768,4.9777114 h 0.07429 0.04606 a 4.2117385,4.2117385 0 0 0 1.5,-0.274146 2.0014859,2.0014859 0 0 0 1.188707,-1.453195 v 1.578752 h 2.6002969 c 1.441307,0 2.3358111,-0.58098 2.5780101,-1.660475 v 1.660475 h 1.658988 v -1.565379 l 0.45766,-0.36627 1.376672,1.931649 H 16.47994 L 14.317979,1.8937588 Z m -8.0527491,0.7251114 0.05647,-0.028975 0.05126,-0.020802 h 0.06315 l 0.02897,0.010401 0.0104,0.014859 0.02675,0.00446 0.02452,0.013373 0.0052,0.020802 -0.0044,0.022288 -0.04458,0.033432 -0.01189,0.02006 -0.01783,0.021545 -0.0097,0.00817 -0.01709,0.022289 -0.04681,0.03046 h -0.0275 l -0.03343,-0.00446 -0.02081,-0.015601 -0.01189,-0.029718 -0.0074,-0.013373 -0.02971,-0.020803 -0.0074,-0.014116 v -0.014859 l -0.0067,-0.017088 v -0.022288 z m -0.603269,0 0.05646,-0.028975 0.05201,-0.020802 h 0.06612 l 0.02823,0.010401 0.01114,0.014859 0.02675,0.00446 0.02452,0.013373 0.0052,0.020802 -0.0052,0.022288 -0.04458,0.033432 -0.01114,0.02006 -0.01858,0.021545 -0.0097,0.00817 -0.01709,0.022289 -0.04606,0.03046 h -0.02749 l -0.03418,-0.00446 -0.02006,-0.015601 -0.01189,-0.029718 -0.0074,-0.013373 -0.02972,-0.020803 -0.0082,-0.014116 v -0.014859 l -0.0067,-0.017088 v -0.022288 z M 1.665676,2.4985137 c 0,-0.7429421 0.375929,-1.2429421 1.329123,-1.2429421 0.668648,0 1.00743,0.2288261 1.222883,0.6924219 L 5.77786,1.4665671 V 2.1493308 H 3.062407 v 1.1010396 h 1.027489 c -0.04086,0.228084 -0.235513,0.470283 -0.994057,0.470283 -0.946508,0 -1.430163,-0.436107 -1.430163,-1.2221397 m 7.2756309,-0.5200595 -0.293461,0.034918 -0.01932,0.074294 c -0.185736,0.049034 -0.297176,0.022289 -0.497028,0.035661 v 0.044576 0 c 0.222882,0 0.641901,0 0.786775,-0.090639 0.0082,0.089896 -0.01114,0.2347696 -0.07429,0.2904903 a 0.22734027,0.22734027 0 0 1 -0.121843,0.042349 c -0.05052,0.00669 -0.106241,0.00892 -0.156018,0.014859 l -0.218425,0.039376 c 0,0 0.106241,0 -0.05497,0.046063 a 1.1329866,1.1329866 0 0 1 -0.119614,0.023774 0.10104012,0.10104012 0 0 0 0.02229,0.00966 l 0.05201,0.018574 h 0.01858 a 0.6077266,0.6077266 0 0 0 0.104011,0 c 0.03492,0 0.05944,0 0.07949,0 a 0.12927192,0.12927192 0 0 1 0.07429,0.019316 l 0.266717,-0.00594 c -0.03715,0.1315009 -0.03046,0.1404159 -0.153789,0.1931649 -0.04458,0.01857 -0.08247,0.03715 -0.122586,0.05052 a 0.4398217,0.4398217 0 0 1 -0.13373,0.02675 l -0.05944,0.104012 0.297177,-0.03343 a 0.87667163,0.87667163 0 0 1 -0.371472,0.364784 v 0.698366 c -0.127048,-0.0082 -0.104017,0.0156 -0.105503,-0.118131 v -0.594356 c -0.148587,-0.04606 -0.322436,-0.243685 -0.39673,-0.396731 l 0.01932,0.01263 -0.01932,-0.01263 C 7.6270429,2.7600364 7.4970279,2.3744493 7.4836549,2.173855 v 0 c -0.05869,-0.1991086 -0.06538,-0.4056464 0.08618,-0.5200595 0.190937,-0.1404161 0.339525,-0.097325 0.562408,-0.1552749 0.02749,-0.1582466 0,-0.3350669 0.0082,-0.4286776 0.01114,-0.10624062 -0.0156,-0.056464 0.04532,-0.083952 0.07429,0.023031 0.05423,-0.017088 0.06166,0.1054977 V 1.511894 c 0.280089,-0.011144 0.602527,0.083952 0.664191,0.256315 l -0.43165,0.023774 a 1.1196136,1.1196136 0 0 0 0.118871,0.083209 v 0 a 0.81054975,0.81054975 0 0 0 0.33581,-0.04309 z"
     id="path1-5"
     style="fill:#fc7f0a;fill-opacity:1;stroke-width:0.0742942" />
</svg>
