<svg xmlns="http://www.w3.org/2000/svg" width="24" height="24"><path fill="#2c404e" fill-rule="evenodd" d="M18.56 6.56c-.14.63.21 1.28 1.23 2.29.4.38.71.76.71.85.01.3.5-.4.5-.72 0-.27-.18-.5-1.19-1.51-1.18-1.2-1.19-1.2-1.25-.91M3.64 8c-.36.14-.64.6-.64 1.02 0 .32.07.47.34.74q.6.58 1.37.19c.26-.14.29-.2.29-.66v-.5l-.47.03c-.53.03-.66.25-.25.43.12.05.22.15.22.21 0 .21-.44.25-.7.05-.3-.22-.38-.66-.14-.92.2-.21.73-.26.92-.07q.1.13.27-.02c.22-.18.19-.28-.14-.45A1.3 1.3 0 0 0 3.64 8m1.93-.04c-.04.04-.07.54-.07 1.1 0 .97.01 1.04.2 1.04.26 0 .32-.26.28-1.3-.02-.67-.06-.85-.18-.88-.09-.01-.2 0-.23.04m1.35.07c-.49.28-.7.89-.48 1.41.23.56 1.04.84 1.6.54.3-.16.36-.27.36-.76V8.8h-.5c-.43 0-.5.03-.5.2q0 .2.25.26c.14.03.25.12.25.19 0 .19-.4.26-.7.12-.2-.1-.26-.2-.28-.5-.02-.21.02-.45.09-.53.14-.17.62-.18.9-.03q.2.11.35-.02c.2-.16.18-.22-.15-.42-.34-.2-.86-.22-1.19-.04m2.6 0c-.06.07-.3.53-.52 1.02-.31.68-.38.9-.28.97.2.12.26.1.38-.12.16-.3 1.02-.29 1.22.02q.14.22.32.15c.2-.08.18-.18-.35-1.34-.37-.81-.55-.97-.77-.7m1.7-.06c-.08.03-.12.35-.12 1.1 0 1.03 0 1.04.23 1.01.2-.03.22-.1.25-.66l.03-.64.5.67c.72.95.83.89.87-.48.02-.87 0-1.07-.11-1.07q-.35-.01-.39.74l-.03.49-.47-.62c-.48-.6-.52-.64-.75-.54m2.2 0c-.07.02-.13.13-.13.24 0 .15.07.19.35.19H14v.85c0 .77.02.85.19.85.25 0 .31-.19.31-1 0-.67 0-.69.28-.72q.28-.03.3-.26c.03-.21 0-.22-.75-.21-.43 0-.84.03-.9.06m1.94 0c-.04.03-.07.15-.07.25q-.02.19.3.18h.3v.86c0 .83 0 .85.22.82.21-.03.23-.09.26-.86.03-.78.04-.82.26-.82.26 0 .51-.24.41-.4a4 4 0 0 0-1.68-.03m2.03.13c-.06.11-.1.58-.08 1.08.03.8.05.87.23.87.19 0 .2-.08.23-1.08.02-.9 0-1.07-.12-1.07q-.15.02-.26.2m-7.87.8c-.1.29-.1.3.17.3.28 0 .29-.01.19-.3-.06-.17-.14-.3-.18-.3s-.12.13-.18.3m10.17.15c0 .12-.19.39-.41.6-.47.45-.79 1.06-.79 1.5 0 .62.13.58.93-.24.67-.68.77-.83.77-1.14a1 1 0 0 0-.25-.64c-.22-.26-.24-.26-.25-.08"/></svg>