<svg xmlns="http://www.w3.org/2000/svg" width="24" height="24"><path fill="#b28e5b" fill-rule="evenodd" d="M13.26 4.33c.04.11-.17.14-1.02.15-.58 0-1.09.03-1.12.06q-.06.04-.19-.05-.12-.1-.13-.02c0 .06-.23.17-.5.26-.48.16-.53.16-.68 0-.15-.15-.17-.14-.3.16-.09.23-.18.31-.37.31q-.23 0-.25.1c0 .1-1.02.85-1.13.82q-.07-.01-.03.07c.03.05-.01.15-.1.22-.26.22-.38.5-.23.6q.12.08-.24.14-.37.08-.61-.08c-.22-.15-.24-.15-.29.03q-.06.2-.28.2-.2 0-.16.07c.04.03-.02.2-.13.39-.12.18-.16.34-.1.36s.07.19.03.4q-.04.4-.24.38-.19 0-.19.2c0 .25.17.26.23.03q.05-.13.06.24c0 .25-.05.48-.14.57-.2.2-.19.3.08.6.27.29.47.35 1.12.37.64.01.85.07.85.23 0 .15.64.86.78.86q.1.02.28.22.16.19.07.14-.12-.05-.13.03.01.1.24.11.25-.02.31.28.07.23.12.15.06-.12.22-.13c.29 0 1.12.32 1.17.44q.04.12.6.08c.3-.02.54 0 .54.05 0 .04.33.06.72.04l1.13-.05c.22 0 .45-.04.5-.08.16-.1 1.17-.46 1.4-.5.1-.02.28-.11.38-.21s.25-.16.32-.13q.12.02.18-.15c.03-.1.13-.22.22-.25.2-.08.85-.73.85-.86q-.02-.07-.25-.08t-.25.15q-.01.14-.1.15c-.06 0-.22.12-.36.27-.27.29-.43.4-1.19.77q-.5.23-.6.15-.12-.09-.3.11c-.18.2-.7.27-.8.11-.06-.11.37-.25 1.06-.34.36-.05 1.89-1.02 1.89-1.2 0-.03-.13-.1-.3-.15q-.29-.1-.3-.01c0 .05-.13.09-.3.09s-.3-.04-.3-.1c0-.05.14-.1.3-.1.23 0 .35-.07.5-.32.17-.29.2-.3.2-.11 0 .31.16.37.96.36.76-.02 1.71-.36 1.44-.53-.1-.06-.09-.15.04-.41.1-.2.14-.5.12-.74-.02-.22.02-.55.1-.72.07-.18.1-.33.06-.33q-.05-.01.1-.1c.1-.06.18-.16.18-.21q0-.1-.09-.05c-.05.03-.14-.08-.21-.24-.07-.18-.23-.33-.36-.36s-.24-.1-.24-.14-.15-.03-.34.02-.47.07-.62.04c-.25-.07-.27-.09-.11-.17q.16-.1.12-.2-.05-.08.1-.09.13-.01.15-.1-.02-.1-.17-.06-.18.06-.68-.42a5 5 0 0 0-.78-.61c-.15-.08-.27-.18-.27-.23q-.02-.07-.18-.08c-.1 0-.3-.11-.42-.25-.24-.25-.47-.35-.34-.14q.06.11-.12.06l-.61-.18q-.44-.13-.43-.3c0-.1-.04-.19-.1-.19q-.08.01-.04.13m-2.54.65c-1.1.31-1.28.38-1.42.52a1 1 0 0 1-.33.18 1 1 0 0 0-.4.25l-.48.4q-.2.16-.1.11.13-.06.09.07a.2.2 0 0 1-.2.11c-.09-.01-.23.1-.33.25q-.15.26-.1.2c.05-.04.2.04.35.18l.26.25.12-.6c.11-.53.16-.6.37-.61.37-.02.43-.03.5-.11q.06-.08-.1-.08c-.18 0-.17-.03.05-.2.14-.1.34-.23.45-.26.11-.04.28-.15.38-.26.19-.2.55-.17.68.05q.07.08.15-.06c.11-.18.9-.35 1.24-.27q.48.12.5-.16c0-.18-.98-.15-1.68.04m2.12-.06c-.08.13.14.28.43.28q.2 0 .28.1.06.08.36-.02c.27-.1.29-.12.15-.2a.4.4 0 0 0-.33-.04c-.08.04-.2.02-.27-.02-.19-.15-.56-.2-.62-.1m1.56.4c0 .2.18.43.26.36.03-.04.24.02.45.12.47.25.7.26.48.04a1 1 0 0 0-.33-.18q-.16-.02-.24-.14c-.12-.18-.62-.34-.62-.2m-2.29.5q-.02.17-.2.18-.3-.01-.33.65c-.02.17-.08.2-.45.16-.25-.02-.43.01-.43.07q0 .16-.43-.03c-.1-.04-.34-.04-.55 0-.36.07-.36.08-.12.17.13.05.65.08 1.15.06l.9-.03.09-.42c.08-.38.12-.43.37-.43.16 0 .29-.04.29-.1q0-.09-.1-.1-.07-.02-.13-.17-.05-.25-.06 0m.53.7c.17.5.25.57.56.57q.32 0 .24-.15t-.29-.15c-.17 0-.24-.07-.28-.3-.04-.16-.13-.3-.2-.3-.12 0-.13.06-.03.33m-3.5.42q0 .66.09.5c.18-.32.17-1.15-.01-1.15-.04 0-.07.3-.08.65m7.3-.2q-.08.14-.25.15c-.25 0-.25.16 0 .23.1.02.2.14.23.25.03.19.04.19.22-.06q.16-.23.06-.17-.15.1-.08-.24c.05-.32-.08-.43-.18-.16m-2.67.13q.1.08.1.22l.03.6c.02.46.04.43.15-.22.04-.29.1-.38.25-.38q.18-.02.2-.15c0-.11-.11-.15-.42-.15-.24 0-.38.04-.31.08m1.18.12q-.06.08-.23.03c-.1-.04-.03.06.15.2.3.26.33.27.52.1.1-.08.17-.22.14-.3-.06-.15-.49-.18-.58-.03m0 1.34c-.04.42-.05.8-.02.83s0 .15-.08.27a1 1 0 0 0-.15.33c0 .17.3.17.3 0l.05-.27q.32-1.58.11-1.78c-.12-.12-.15-.04-.21.62m-4.8.02q.06.25-.05.2-.09-.06-.12.2l-.03.57q-.01.26.11.27.13-.02.15-.12l.08-.63q.14-.77-.11-.75-.09.01-.04.26m2.33.22c-.03.15-.02.28.03.3s.02.19-.06.37c-.17.43-.19.88-.02.83.13-.05.22-.38.33-1.24.05-.44.04-.54-.08-.54q-.14.02-.2.28M7.6 10.13c0 .12-.07.35-.15.5-.14.27-.1.71.05.48q.07-.1.2.14c.07.14.19.25.26.25q.1.01.17.14c.05.13.89.76 1.01.76.14 0 .04-.31-.12-.37-.38-.14-.92-.66-.87-.84q.07-.17-.22-.26c-.25-.09-.27-.13-.24-.56.01-.26 0-.47-.03-.47q-.05.02-.06.22m1.08.22c-.12.78-.11.83.22.88.34.05.43-.17.1-.27-.15-.05-.2-.17-.22-.58l-.03-.52zm2.42-.04a2 2 0 0 0 .03.46c.05.13-.51.33-.95.34-.27 0-.48.05-.48.1s.35.1.85.1c.67 0 .85-.03.85-.14a.3.3 0 0 0-.11-.22q-.11-.08-.07-.55c.03-.27.01-.49-.03-.49-.05 0-.09.18-.09.4m2.36.29q-.07.35-.37.44c-.16.06-.29.15-.29.2 0 .1.68.09.9-.03q.19-.1.2-.01c0 .05.13.1.3.13q.3.04.3-.09c0-.12-.4-.19-.78-.14q-.13.02-.09-.06c.03-.05.02-.24-.02-.43l-.08-.35zM11.2 12.9q.01.1.18.1c.1.01.26.03.37.06.31.06 1.35-.08 1.3-.17-.1-.14-.73-.1-.78.04q-.06.12-.06-.03c-.01-.13-.02-.13-.12 0q-.11.17-.16.03c-.06-.15-.73-.18-.73-.03"/></svg>