<?xml version="1.0" encoding="UTF-8" standalone="no"?>
<svg
   viewBox="0 0 18.041018 21.999023"
   width="18.041018pt"
   height="21.999023pt"
   version="1.1"
   id="svg1"
   xmlns="http://www.w3.org/2000/svg"
   xmlns:svg="http://www.w3.org/2000/svg">
  <defs
     id="defs1" />
  <path
     d="M 9.0205078,1.875e-8 C 4.0425128,1.875e-8 1.2499998e-8,4.0410479 1.2499998e-8,9.0190427 1.2499998e-8,11.619041 1.0282362,13.786377 2.8652344,15.609375 l 5.7875974,6.389649 6.5976562,-6.448242 h -0.01025 C 16.917236,13.835783 18.041019,11.587041 18.041019,9.0190427 18.041019,4.0410479 13.998506,1.8750002e-8 9.0205108,1.8750002e-8 Z"
     style="fill:#003399"
     id="path4" />
  <path
     d="M 5.5462898,3.6675238 C 4.7628786,3.7873135 4.123438,4.1674148 3.7259759,4.7495774 3.5309176,5.035263 3.3759203,5.4237022 3.2970777,5.8244489 3.2616347,6.0045838 3.2562207,6.089129 3.2559697,6.4650804 c -2.405e-4,0.3839999 0.0046,0.4576454 0.042642,0.6496545 0.2108481,1.0639536 0.8782427,1.7423556 1.9535831,1.9857418 0.205759,0.04656 0.824502,0.05733 1.035098,0.01801 0.475004,-0.08871 0.75138,-0.2178512 1.027518,-0.4801672 0.07544,-0.07166 0.140022,-0.12708 0.143473,-0.123146 0.0034,0.0039 0.01577,0.08835 0.02743,0.187606 0.01166,0.09925 0.02579,0.214981 0.0315,0.257155 l 0.01029,0.07669 h 0.557386 0.557367 V 7.5929528 6.1492762 H 7.4512548 6.2602218 V 6.70834 7.2674217 l 0.388818,0.00485 0.388819,0.00487 -0.05608,0.1122273 c -0.102854,0.2057353 -0.356851,0.3953624 -0.622217,0.4644783 -0.125004,0.032555 -0.399104,0.036525 -0.536073,0.00776 -0.246936,-0.051851 -0.49967,-0.2288091 -0.62554,-0.4380158 -0.23088,-0.3836751 -0.285325,-1.1947688 -0.116397,-1.7337473 0.1631,-0.5203914 0.476811,-0.7857392 0.928934,-0.7857392 0.437741,0 0.749107,0.2142406 0.89822,0.6180742 l 0.01829,0.049626 h 0.821542 c 0.570919,0 0.821543,-0.00588 0.821543,-0.019294 0,-0.066915 -0.104131,-0.409174 -0.170061,-0.5590096 -0.300461,-0.6827658 -0.8775,-1.1164462 -1.732409,-1.3020489 -0.217417,-0.047208 -0.877087,-0.061284 -1.121321,-0.023929 m 5.8475212,0.00103 C 10.57568,3.788053 9.9107058,4.1914171 9.5169058,4.8070372 c -0.263256,0.41152 -0.398582,0.8698332 -0.417926,1.4154346 -0.02103,0.5921601 0.0689,1.0740051 0.284349,1.5238729 0.370683,0.7739907 1.0683392,1.2489967 2.0258032,1.379343 0.21297,0.029 0.78462,0.02404 0.985435,-0.0085 0.487549,-0.07907 0.837929,-0.2123203 1.206517,-0.4588813 0.515123,-0.344552 0.888675,-0.9246571 1.033746,-1.6053146 0.0473,-0.2219835 0.06753,-0.8123387 0.03683,-1.0755751 C 14.647495,5.7700233 14.566774,5.4513679 14.488591,5.2545046 14.142182,4.3824519 13.385516,3.8091317 12.395315,3.6684092 12.162413,3.6352956 11.620927,3.6353848 11.393818,3.6685537 m 0.230844,1.2633795 c -0.217701,0.058612 -0.414769,0.2065709 -0.548344,0.4116643 -0.185719,0.2851261 -0.275111,0.7689924 -0.232828,1.2600411 0.02709,0.3143605 0.07338,0.506604 0.172437,0.7156664 0.06609,0.1394773 0.104702,0.194121 0.211576,0.2992561 0.198201,0.1949874 0.368769,0.2625508 0.663801,0.2629115 0.301584,3.802e-4 0.492601,-0.074295 0.686774,-0.2684877 0.126557,-0.126593 0.236349,-0.3230587 0.293538,-0.5253176 0.08618,-0.3048506 0.10765,-0.7977036 0.0492,-1.1302004 -0.09851,-0.5605436 -0.352763,-0.9039582 -0.75831,-1.0242706 -0.121641,-0.036111 -0.406016,-0.036778 -0.537824,-0.00126 M 4.3924673,9.2890937 c -0.3569492,0.0401 -0.6110002,0.25932 -0.6958522,0.600497 -0.013076,0.05251 -0.018449,0.1688373 -0.013808,0.2988053 0.00711,0.199589 0.011659,0.221353 0.07314,0.350814 0.1059293,0.223067 0.2549895,0.345905 0.5095818,0.419911 0.1480683,0.04304 0.4457712,0.02949 0.5929549,-0.02701 0.157054,-0.06028 0.31205,-0.187462 0.392662,-0.322211 0.203162,-0.339535 0.144694,-0.8564443 -0.125455,-1.1091233 -0.186377,-0.174342 -0.4326326,-0.245425 -0.7332239,-0.211679 m 4.2317779,0.315985 c 0,0.153842 -0.0069,0.279712 -0.01532,0.279712 -0.0085,0 -0.03073,-0.0174 -0.04963,-0.03864 -0.09249,-0.103963 -0.337371,-0.139441 -0.488559,-0.0708 -0.110852,0.05035 -0.211347,0.16366 -0.26089,0.2942583 -0.03569,0.094 -0.04286,0.146207 -0.04286,0.311437 0,0.175769 0.0053,0.209893 0.04661,0.297866 0.09501,0.202511 0.243655,0.296893 0.467696,0.296911 0.153738,1.8e-5 0.214181,-0.02461 0.314958,-0.128379 l 0.06401,-0.0659 v 0.08399 0.08397 h 0.207529 0.207529 V 10.13744 9.3253717 h -0.225566 -0.225566 v 0.279713 m -1.642183,-0.01804 v 0.189482 h -0.07974 -0.07972 l -0.0059,0.126358 -0.0059,0.1263753 0.08442,-4.8e-5 0.0844,-2.4e-5 0.0062,0.374454 c 0.0071,0.424585 0.01417,0.452935 0.13122,0.509527 0.06342,0.03071 0.111423,0.03636 0.308516,0.03636 h 0.233405 v -0.162413 -0.162413 h -0.0767 c -0.05265,0 -0.08801,-0.01132 -0.112794,-0.03609 -0.03276,-0.03277 -0.0361,-0.06015 -0.0361,-0.297759 v -0.261675 h 0.117298 0.117298 V 9.9037247 9.7782517 l -0.112795,-0.0053 -0.112794,-0.0054 -0.0053,-0.18497 -0.0053,-0.184972 h -0.224948 -0.224949 v 0.189482 m -2.6180709,0.122243 c -0.090482,0.06098 -0.1373467,0.143482 -0.1609342,0.283375 -0.039051,0.2314763 0.031004,0.4870613 0.155898,0.5688993 0.1153501,0.07558 0.2913339,0.05022 0.384018,-0.05536 0.1699391,-0.193524 0.1332341,-0.6813433 -0.060256,-0.8009163 -0.085286,-0.05271 -0.2374126,-0.0508 -0.3187278,0.004 m 5.2062039,0.06307 c -0.168094,0.05986 -0.282708,0.164382 -0.354819,0.3236363 -0.05564,0.12284 -0.0564,0.409571 -0.0014,0.530894 0.04812,0.106218 0.155224,0.225052 0.24326,0.269968 0.272926,0.139223 0.6651922,0.100895 0.8632292,-0.08435 0.149988,-0.140289 0.213266,-0.344605 0.177581,-0.57332 -0.0326,-0.208893 -0.141119,-0.3504463 -0.339076,-0.4423003 -0.134557,-0.06244 -0.4458962,-0.07541 -0.5887842,-0.02454 m 1.4048602,0.0024 c -0.240662,0.08906 -0.37375,0.2719713 -0.396668,0.5451693 -0.01372,0.164397 0.0398,0.34096 0.136981,0.451347 0.254736,0.289403 0.858336,0.276193 1.07839,-0.02358 0.08342,-0.113636 0.114875,-0.221623 0.114875,-0.394485 0,-0.268686 -0.0978,-0.4346013 -0.320895,-0.5444283 -0.111079,-0.0547 -0.135997,-0.0597 -0.319358,-0.06414 -0.160642,-0.0039 -0.217039,0.0019 -0.293302,0.03012 m 1.663639,-7.03e-4 c -0.06968,0.0425 -0.149395,0.136682 -0.163614,0.193344 -0.02057,0.08222 -0.04314,0.04383 -0.04314,-0.07357 v -0.117329 h -0.207528 -0.207528 v 0.5864923 0.586494 h 0.234595 0.234598 v -0.270328 c 0,-0.205759 0.0069,-0.287562 0.0289,-0.34253 0.03911,-0.09777 0.125642,-0.149691 0.252516,-0.151513 l 0.09755,-0.0014 V 9.9621107 9.7404697 l -0.08573,7.2e-5 c -0.05162,2.4e-5 -0.107559,0.01337 -0.140638,0.03355 m 0.597574,-0.01337 c -0.185125,0.0434 -0.317086,0.190799 -0.317086,0.3542063 0,0.209712 0.114509,0.299761 0.478219,0.376023 0.19475,0.04084 0.243621,0.0672 0.243621,0.131447 0,0.07072 -0.05308,0.112606 -0.144342,0.113871 -0.08714,0.0012 -0.1683,-0.04863 -0.177238,-0.108835 -0.0055,-0.03723 -0.0144,-0.0388 -0.223074,-0.0388 h -0.217313 l 0.01234,0.06767 c 0.0414,0.228751 0.364364,0.365737 0.742897,0.315082 0.266557,-0.03566 0.412458,-0.135218 0.46028,-0.314071 0.06042,-0.225845 -0.08308,-0.371963 -0.441658,-0.449742 -0.202362,-0.04391 -0.289637,-0.08386 -0.297071,-0.136011 -0.0073,-0.05065 0.05816,-0.09649 0.137643,-0.09649 0.04442,0 0.07462,0.01465 0.111514,0.05414 0.05034,0.05387 0.05155,0.05414 0.2512,0.05414 h 0.200625 l -0.01234,-0.04963 c -0.03146,-0.1256563 -0.134398,-0.2221653 -0.284567,-0.2667573 -0.09956,-0.02956 -0.408345,-0.03324 -0.523513,-0.0062 m -7.7486102,0.4805283 0.0056,0.464683 0.05011,0.08523 c 0.03248,0.05527 0.08007,0.102862 0.135344,0.135344 0.07558,0.04445 0.102591,0.05002 0.238621,0.04928 0.171437,-9.21e-4 0.255766,-0.03288 0.35076,-0.132854 0.02914,-0.0307 0.05764,-0.0558 0.06329,-0.0558 0.0057,0 0.0074,0.03654 0.0038,0.08121 l -0.0065,0.08121 h 0.218356 0.218373 V 10.36303 9.7765367 h -0.234452 -0.234598 v 0.3582483 c 0,0.341682 -0.0019,0.361028 -0.0406,0.418323 -0.04757,0.07038 -0.115368,0.09348 -0.20318,0.06924 -0.10694,-0.02953 -0.117136,-0.07166 -0.117136,-0.483993 V 9.7765337 h -0.226674 -0.226693 l 0.0056,0.4646833 m 4.300548,-0.199066 c -0.105433,0.0257 -0.16071,0.135454 -0.161556,0.320876 -5.58e-4,0.121161 0.0062,0.155447 0.04211,0.213358 0.09352,0.150809 0.286426,0.131663 0.3562102,-0.03535 0.0366,-0.08758 0.0312,-0.288663 -0.01029,-0.379831 -0.04661,-0.102663 -0.1249342,-0.143807 -0.2265952,-0.119049 m 1.3805172,0.01863 c -0.09087,0.04538 -0.132501,0.141048 -0.130809,0.300718 7.75e-4,0.07372 0.01349,0.156296 0.03004,0.195077 0.05205,0.121936 0.198316,0.159308 0.297359,0.07597 0.139839,-0.117659 0.118807,-0.497202 -0.03187,-0.575125 -0.06915,-0.03577 -0.08719,-0.03539 -0.164734,0.0034 m -2.8673942,0.06879 c -0.09453,0.07955 -0.12107,0.276248 -0.05649,0.41854 0.06127,0.134967 0.198133,0.153806 0.309346,0.04261 0.06918,-0.06921 0.07005,-0.07177 0.07005,-0.208432 0,-0.08552 -0.01006,-0.157668 -0.02615,-0.188923 -0.05935,-0.11479 -0.20019,-0.145053 -0.296767,-0.06379"
     style="fill:#ffffff;fill-rule:evenodd;stroke:none;stroke-width:0.018046"
     id="path1-7" />
  <path
     d="m 8.5211198,9.3962657 c 0.03372,0.0023 0.08569,0.0022 0.115473,-6e-5 0.02979,-0.0023 0.0022,-0.0043 -0.06133,-0.0042 -0.0635,3e-5 -0.08788,0.0019 -0.05416,0.0043 m 0.942633,-4.5e-5 c 0.02999,0.0023 0.07907,0.0023 0.109056,0 0.02999,-0.0023 0.0054,-0.0043 -0.05453,-0.0043 -0.05998,0 -0.08452,0.0019 -0.05453,0.0043 m -2.4949326,0.571023 c 0.047921,0.0021 0.1229756,0.0021 0.1667906,-3e-5 0.0438,-0.0021 0.0045,-0.0039 -0.08714,-0.0039 -0.091746,1.1e-5 -0.1275838,0.0018 -0.07965,0.0039 m 4.1564452,0 c 0.04763,0.0021 0.125582,0.0021 0.173207,0 0.04763,-0.0021 0.0088,-0.0039 -0.08659,-0.0039 -0.09525,0 -0.134229,0.0017 -0.0866,0.0039 m 4.359064,1.2821193 c 0,0.0017 0.04474,0.04074 0.09943,0.08676 l 0.09943,0.08368 -0.09591,-0.08675 c -0.08908,-0.08058 -0.102969,-0.09186 -0.102969,-0.08368 m -8.2826142,0.623804 c 0,0.187785 0.0018,0.264601 0.0039,0.170714 0.0021,-0.09389 0.0021,-0.24754 0,-0.341428 -0.0022,-0.09389 -0.0039,-0.01707 -0.0039,0.170714 m 2.013507,-0.212691 c 0,0.07081 0.0021,0.09977 0.0046,0.06436 0.0025,-0.0354 0.0025,-0.09333 0,-0.128735 -0.0025,-0.03539 -0.0046,-0.0064 -0.0046,0.06436 m -4.1568435,0.06156 c 1.28e-5,0.08005 0.00206,0.111316 0.00452,0.06949 0.00247,-0.04181 0.00246,-0.107297 -3.44e-5,-0.145526 -0.00248,-0.03822 -0.00451,-0.0039 -0.00449,0.07603 m 3.8985969,1.771413 c 0.04763,0.0021 0.125583,0.0021 0.173208,0 0.04763,-0.0021 0.0088,-0.0039 -0.0866,-0.0039 -0.09525,0 -0.134228,0.0017 -0.08659,0.0039 m -0.07506,0.1764 c 1.5e-5,0.09235 0.002,0.128646 0.0043,0.08064 0.0024,-0.048 0.0024,-0.123553 -3.3e-5,-0.167914 -0.0024,-0.04435 -0.0043,-0.005 -0.0043,0.08727 m -0.999934,-0.131725 0.159952,0.0036 0.0043,0.114418 0.0043,0.114406 -7.44e-4,-0.117541 -7.45e-4,-0.11754 -0.163611,-5.26e-4 -0.163598,-5.16e-4 0.159954,0.0036 m 1.819139,0.212637 c 0.02647,0.0025 0.06978,0.0025 0.09623,0 0.02646,-0.0025 0.0048,-0.0044 -0.04811,-0.0044 -0.05293,0 -0.07458,0.0019 -0.04811,0.0044 m 1.0007572,0 c 0.02647,0.0025 0.06978,0.0025 0.09623,0 0.02647,-0.0025 0.0048,-0.0044 -0.04811,-0.0044 -0.05293,0 -0.07458,0.0019 -0.04811,0.0044 m 1.584529,4.4e-5 c 0.02999,0.0023 0.07907,0.0023 0.109054,0 0.02999,-0.0023 0.0055,-0.0043 -0.05453,-0.0043 -0.05998,0 -0.08452,0.0019 -0.05453,0.0043 m -0.687878,0.08417 c -9.64e-4,0.04155 0.0025,0.07556 0.0079,0.07556 0.0054,0 0.0079,-0.02393 0.0059,-0.05318 -0.0067,-0.09199 -0.01202,-0.100696 -0.01384,-0.02238 M 8.0476518,14.08954 c 0,0.08928 0.002,0.125802 0.0043,0.08115 0.0024,-0.04464 0.0024,-0.117675 0,-0.162318 -0.0024,-0.04464 -0.0043,-0.0081 -0.0043,0.08115 m -0.33338,0.05037 c 1.2e-5,0.110824 0.002,0.154649 0.0042,0.09738 0.0023,-0.05726 0.0023,-0.147933 -1.6e-5,-0.201498 -0.0023,-0.05356 -0.0042,-0.0067 -0.0042,0.104122 m 0.550607,0.01119 c 6.8e-5,0.0431 0.0023,0.05934 0.0052,0.03614 0.0029,-0.02323 0.0027,-0.05849 -1.04e-4,-0.07836 -0.0029,-0.01988 -0.0052,-8.73e-4 -0.005,0.04222 m -2.342176,0.383217 c 0.030176,0.0023 0.076366,0.0023 0.1026416,-7.6e-5 0.026276,-0.0025 0.00161,-0.0044 -0.054862,-0.0043 -0.056452,3e-5 -0.077956,0.002 -0.04778,0.0044 m 6.5004726,0.381192 c -0.04285,0.03519 -0.193441,0.154123 -0.334676,0.26431 -0.244684,0.190895 -0.26067,0.20124 -0.339101,0.219442 -0.688033,0.159687 -0.814256,0.192934 -0.845703,0.222744 -0.04879,0.04626 -0.453611,0.450885 -0.468739,0.468506 -0.01117,0.01293 -0.0424,0.0097 -0.192452,-0.01949 -0.09855,-0.01922 -0.2513572,-0.04899 -0.3395652,-0.06614 l -0.160379,-0.03122 -0.404149,0.02548 c -0.222284,0.01402 -0.427247,0.03028 -0.455473,0.03615 -0.02821,0.0059 -0.218756,0.05207 -0.423397,0.102688 -0.693599,0.171509 -0.880947,0.216285 -0.904528,0.216207 -0.01989,-6e-5 -0.09879,-0.01801 -0.6222655,-0.141586 L 6.6249012,16.13993 6.3026598,16.1271 5.9804284,16.11427 5.7814578,16.21015 c -0.1094293,0.05274 -0.2093889,0.09588 -0.222142,0.09588 -0.020863,0 -0.1571059,-0.0259 -0.3906412,-0.07423 C 5.1228066,16.2223 5.001561,16.1977 4.8992403,16.1771 4.7904405,16.1552 4.6066604,16.1053 4.4565988,16.056907 l -0.2566049,-0.08275 -0.3720757,0.0198 c -0.2046411,0.01089 -0.3835201,0.02006 -0.3975056,0.0204 -0.020262,5.03e-4 -0.016349,0.006 0.019242,0.02692 0.1028167,0.06053 0.3623387,0.193652 0.4937318,0.253273 l 0.1411327,0.06404 0.2630192,-0.01409 c 0.14466,-0.0077 0.4079618,-0.02019 0.5851212,-0.02766 l 0.3221023,-0.01356 0.1141237,0.04188 c 0.062764,0.02303 0.1516529,0.05616 0.1975209,0.07361 0.315623,0.12007 0.4586798,0.168565 0.570944,0.193539 0.070566,0.01569 0.3032415,0.06856 0.5170561,0.117495 l 0.3887573,0.08894 0.271999,-0.150978 0.272,-0.150978 0.205284,0.0075 c 0.112909,0.004 0.326528,0.01399 0.474717,0.02189 l 0.269434,0.01441 0.594808,0.174406 0.594808,0.174421 0.6240632,-0.182514 c 0.343232,-0.100391 0.753965,-0.220495 0.912739,-0.266906 l 0.28868,-0.08438 0.372075,-0.03 c 0.204641,-0.01649 0.455357,-0.03684 0.557152,-0.04522 l 0.185076,-0.01524 0.107662,0.0692 c 0.173258,0.111361 0.15822,0.1041 0.174824,0.08456 0.0079,-0.0094 0.121348,-0.134243 0.251894,-0.277429 0.130548,-0.143177 0.235769,-0.263683 0.23383,-0.267791 -0.0033,-0.007 -0.16198,-0.232776 -0.347479,-0.494421 -0.04584,-0.06464 -0.109319,-0.154258 -0.141081,-0.199124 -0.04521,-0.06387 -0.08719,-0.102837 -0.19339,-0.179512 -0.152357,-0.109984 -0.239772,-0.170076 -0.246557,-0.169494 -0.0025,2.13e-4 -0.03961,0.02917 -0.08245,0.06436 m 3.144002,0.475367 -0.102351,0.09235 0.105843,-0.0893 c 0.0983,-0.08293 0.111701,-0.09541 0.102351,-0.09541 -0.002,0 -0.04957,0.04155 -0.105843,0.09235 m -11.6842407,0.47569 c 0.030172,0.0023 0.076361,0.0023 0.1026436,-7.5e-5 0.026271,-0.0025 0.00161,-0.0044 -0.054861,-0.0043 -0.056454,3e-5 -0.077955,0.002 -0.047784,0.0044 m -0.3592455,0.0112 c 0.030172,0.0023 0.076361,0.0023 0.1026437,-7.3e-5 0.026271,-0.0025 0.00161,-0.0044 -0.054861,-0.0043 -0.056454,2.9e-5 -0.077955,0.002 -0.047784,0.0044 M 8.5336238,17.3219 c 0.0335,0.0023 0.08838,0.0023 0.121888,0 0.0335,-0.0023 0.0061,-0.0042 -0.06095,-0.0042 -0.06704,0 -0.09444,0.0019 -0.06095,0.0042 m 0.910944,0 c 0.0335,0.0023 0.08839,0.0023 0.121887,0 0.03351,-0.0023 0.0061,-0.0042 -0.06093,-0.0042 -0.06704,0 -0.09444,0.0019 -0.06095,0.0042"
     stroke="none"
     fill="#acdac2"
     fill-rule="evenodd"
     id="path2"
     style="stroke-width:0.0119844" />
  <path
     d="m 3.4969592,13.032 c -0.045324,0.06781 -0.1720925,0.255273 -0.2817187,0.416578 l -0.199325,0.293277 -0.1714975,0.14852 C 2.7019888,14.01373 2.6260392,14.09489 2.3961521,14.36938 l -0.2767812,0.330473 0.045198,0.0633 c 0.2252787,0.315521 0.5919485,0.682964 0.9643536,0.966378 l 0.1192728,0.09077 0.1022836,-8.86e-4 c 0.056251,-4.81e-4 0.2874411,-0.008 0.5137453,-0.01677 l 0.4114622,-0.0159 0.2683368,0.09771 c 0.1475819,0.05374 0.3555287,0.118566 0.4621038,0.144061 0.1065756,0.02549 0.2649815,0.06369 0.3520216,0.0849 0.2177205,0.05304 0.225608,0.05247 0.3608208,-0.02678 0.062669,-0.03672 0.1506837,-0.08697 0.1955901,-0.111669 l 0.081659,-0.04487 0.3298028,0.0223 0.3298155,0.02228 0.455419,0.113372 0.455419,0.113373 0.259893,-0.07149 c 0.142935,-0.0393 0.316863,-0.08739 0.386495,-0.10681 0.06963,-0.01945 0.254791,-0.06989 0.411463,-0.11213 l 0.284858,-0.07678 0.398625,-0.02438 0.398625,-0.02439 0.3103182,0.06878 0.310319,0.06878 0.06335,-0.06716 c 0.03484,-0.03693 0.114615,-0.123899 0.177283,-0.193234 0.06266,-0.06935 0.150975,-0.16494 0.196236,-0.212415 l 0.08229,-0.08633 0.329169,-0.08805 c 0.568616,-0.15208 0.491577,-0.119488 0.679089,-0.287267 0.09025,-0.08076 0.159547,-0.150885 0.153976,-0.155824 -0.0056,-0.0049 -0.08421,-0.01867 -0.174726,-0.03049 -0.09052,-0.01187 -0.228494,-0.03034 -0.306596,-0.04116 l -0.142024,-0.01963 -0.06688,0.04864 c -0.03679,0.02675 -0.195312,0.143101 -0.352276,0.258538 -0.156963,0.115453 -0.292606,0.214366 -0.30143,0.219822 -0.0096,0.0059 -0.03481,-0.0028 -0.06277,-0.02167 -0.0257,-0.01737 -0.140733,-0.08985 -0.255626,-0.161066 -0.114894,-0.07122 -0.274414,-0.170801 -0.3544912,-0.221303 -0.443302,-0.279541 -0.424362,-0.269616 -0.490728,-0.257258 -0.03299,0.0061 -0.265096,0.048 -0.515771,0.093 -0.981103,0.176143 -0.738619,0.110384 -2.0130002,0.545839 -0.5160116,0.176321 -0.4458478,0.159065 -0.5977976,0.147101 l -0.1349101,-0.0106 -0.1671298,0.104996 c -0.091927,0.05775 -0.173485,0.104995 -0.1812458,0.104995 -0.00776,0 -0.014155,-0.01851 -0.01423,-0.04115 -6.71e-5,-0.02263 -0.019927,-0.194965 -0.04412,-0.382972 C 5.8087063,14.980347 5.7888153,14.817522 5.7887273,14.80652 5.7885585,14.78943 5.7382253,14.79633 5.443542,14.85392 5.2537883,14.89099 5.0887857,14.92136 5.076847,14.9214 5.064909,14.921434 4.999391,14.89103 4.9312525,14.85382 4.8631145,14.81661 4.7674779,14.76542 4.7187354,14.740084 l -0.088623,-0.04609 -0.078646,-0.174283 C 4.4836441,14.369429 4.310704,13.987959 4.228513,13.807371 4.2142451,13.77604 4.1221663,13.640407 4.0238706,13.505965 3.9255885,13.37151 3.833775,13.245187 3.8198486,13.225222 3.7323145,13.099773 3.5909617,12.908801 3.5856316,12.908801 c -0.00348,0 -0.043412,0.05549 -0.088736,0.123272 m 11.7235974,0.404899 c -0.08007,0.09537 -0.3138,0.370138 -0.519405,0.610585 -0.254866,0.298076 -0.387356,0.463344 -0.416424,0.519455 -0.02344,0.04527 -0.117812,0.221874 -0.209707,0.392471 -0.09189,0.170599 -0.197375,0.367152 -0.234407,0.436784 -0.214074,0.402549 -0.227645,0.424401 -0.375937,0.605621 -0.08222,0.100485 -0.229266,0.281302 -0.326751,0.40179 -0.09748,0.120493 -0.191667,0.235647 -0.20929,0.255891 l -0.03203,0.03683 -0.119892,-0.09338 c -0.215379,-0.16775 -0.170979,-0.152634 -0.401005,-0.136564 -0.109979,0.0077 -0.3424,0.02453 -0.51648,0.03746 l -0.31651,0.0235 -0.189905,0.06374 c -0.104451,0.03506 -0.434884,0.146948 -0.734301,0.248662 -0.299418,0.1017 -0.6248672,0.212036 -0.7232122,0.245181 l -0.178814,0.06027 -0.182006,-0.06016 c -0.100105,-0.03309 -0.367163,-0.122838 -0.593468,-0.199426 l -0.411462,-0.139258 -0.259538,-0.01299 c -0.142745,-0.0071 -0.34045,-0.01674 -0.43934,-0.02128 l -0.179803,-0.0082 -0.206339,0.130797 c -0.113488,0.07189 -0.233799,0.149753 -0.267374,0.172986 l -0.06102,0.04225 L 6.561368,16.910142 C 5.9599876,16.758521 6.0071221,16.77503 5.4634095,16.525481 l -0.1795113,-0.08239 -0.2889226,0.01805 c -0.158913,0.0099 -0.3544399,0.02256 -0.4345167,0.02808 l -0.1455944,0.01005 0.1102211,0.05226 c 0.1422268,0.06745 0.5383827,0.224613 0.7570147,0.300334 0.9976123,0.34554 2.0966845,0.544662 3.2600475,0.590658 2.2664602,0.08959 4.4704792,-0.439443 6.0073482,-1.44198 0.615966,-0.401814 1.112329,-0.875173 1.450791,-1.383588 0.04461,-0.06702 0.08112,-0.12922 0.08112,-0.138197 0,-0.04081 -0.106266,-0.478132 -0.122489,-0.504111 -0.01558,-0.02495 -0.469397,-0.570831 -0.561171,-0.675027 l -0.03165,-0.03592 -0.145594,0.173422 m -2.24098,1.542983 c 0,0.0042 0.106099,0.175397 0.235762,0.380432 0.207326,0.327853 0.237635,0.370049 0.251346,0.35002 0.01508,-0.02203 0.03851,-0.06322 0.128898,-0.226798 l 0.04278,-0.07743 -0.117324,-0.184867 c -0.101644,-0.160192 -0.122405,-0.185754 -0.155309,-0.19135 -0.07609,-0.01285 -0.368923,-0.05765 -0.377418,-0.05765 -0.0047,0 -0.0087,0.0035 -0.0087,0.0077"
     stroke="none"
     fill="#307e3d"
     fill-rule="evenodd"
     id="path3"
     style="stroke-width:0.0126604" />
</svg>
