<svg xmlns="http://www.w3.org/2000/svg" width="24" height="24"><path fill="#5e6064" fill-rule="evenodd" d="M6.05 2.74a4.2 4.2 0 0 0-2.62 2.32 3.3 3.3 0 0 0-.4 1.73 4.3 4.3 0 0 0 1.18 3.46c1.9 2 5.43 1.73 6.76-.53.34-.58.63-1.54.63-2.1q0-.9.2.28a4.45 4.45 0 0 0 3.86 3.63c3.09.45 5.76-2.18 5.26-5.17a4.43 4.43 0 0 0-4.56-3.76 4.4 4.4 0 0 0-4.55 3.47l-.06.45-2.12-.02H7.5v1.7h.95c.7 0 .95.03.95.13 0 .23-.38.74-.76 1.03-.3.23-.49.3-1.04.32-1.24.07-1.94-.45-2.26-1.68-.36-1.4.17-2.96 1.12-3.36.47-.2 1.41-.17 1.89.05.22.1.55.35.74.54l.34.36.76-.41c.42-.23.8-.45.85-.49.12-.1-.6-1.03-1.04-1.34a3.7 3.7 0 0 0-2.45-.72 5 5 0 0 0-1.5.1m9.5 1.99c-.58.16-1.38 1-1.53 1.6-.24.94-.08 1.76.45 2.38a2.44 2.44 0 0 0 4.19-2.34 2.47 2.47 0 0 0-3.1-1.64M4.24 12.54a1.5 1.5 0 0 0-.8 1.92c.25.66.67.94 1.43.94.5 0 .65-.04.92-.26.83-.7.78-1.8-.12-2.47a1.7 1.7 0 0 0-1.43-.13m4.78-.07c-.07.02-.13.16-.13.29s-.04.24-.1.24q-.09.02-.1.2 0 .18.1.2c.05 0 .1.44.12.97.03.93.04.98.26 1.01s.22.01.22-.97c0-.94.01-1.01.2-1.01q.2 0 .2-.2t-.2-.2-.22-.27q-.04-.4-.36-.26m2.68.4c0 .3-.03.34-.17.27-.46-.2-.9-.16-1.2.1q-.7.6-.38 1.42c.1.24.26.5.38.59.26.18 1.08.2 1.25.03q.13-.15.12 0 .02.11.25.12h.25v-2.9h-.25c-.22 0-.25.04-.25.36m-7.46.19c-.3.2-.47.68-.4 1.08.19 1 1.65 1.16 1.96.2.15-.45 0-1.05-.33-1.28-.27-.2-.96-.2-1.23 0m15.34.04c-.25.12-.34.23-.36.48-.03.35.13.56.66.85.43.23.44.58.03.58-.17 0-.33-.04-.36-.1-.08-.12-.16-.12-.35 0-.12.07-.12.12.04.3.26.28.98.28 1.26 0 .38-.38.21-.89-.4-1.2q-.39-.2-.4-.4c0-.23.25-.33.4-.14.15.17.36.18.45.03.09-.13-.2-.45-.45-.52-.1-.03-.34.02-.52.12m-12.98.9c0 .89.02 1 .23 1.2.23.21.85.29 1.22.15q.45-.16.45-1.5c0-.83 0-.85-.22-.82s-.23.09-.28.98l-.05.95-.33.03c-.54.05-.62-.09-.62-1.1 0-.81-.02-.88-.2-.88s-.2.07-.2.98m6.19-.6c-.32.33-.39.47-.39.78 0 .75.5 1.23 1.29 1.24.47 0 .57-.04.87-.34.27-.27.34-.42.34-.74 0-.23-.04-.52-.1-.66-.14-.37-.67-.66-1.19-.66-.37 0-.49.06-.82.39m2.65-.05c-.3.3-.34.4-.34.86s.04.56.34.86.4.34.88.34.58-.04.85-.32c.52-.56.5-1.34-.08-1.82-.24-.2-.41-.26-.8-.26-.45 0-.55.04-.85.34m2.46.86c0 1.13.01 1.2.2 1.2.18 0 .2-.07.2-.78 0-.88.16-1.22.56-1.22q.25.01.24-.2.02-.21-.28-.2c-.15 0-.33.05-.4.12q-.14.15-.12 0-.02-.11-.2-.12c-.19 0-.2.07-.2 1.2m-7.4-.54c-.3.39-.23 1.02.14 1.26.22.15.73.08.92-.13.24-.26.23-.92-.01-1.2-.27-.29-.79-.25-1.04.07m2.64-.01a.8.8 0 0 0-.02 1.13.8.8 0 0 0 1.14-.04c.21-.21.24-.32.2-.62-.12-.7-.84-.96-1.32-.47m2.77-.18c-.22.09-.44.63-.37.94.2.92 1.55.72 1.55-.23 0-.57-.62-.94-1.18-.71"/></svg>