<?xml version="1.0" encoding="UTF-8" standalone="no"?>
<svg
   viewBox="0 0 24 24"
   width="24pt"
   height="24pt"
   version="1.1"
   id="svg1"
   sodipodi:docname="gong_cha.svg"
   xml:space="preserve"
   inkscape:version="1.3 (0e150ed6c4, 2023-07-21)"
   xmlns:inkscape="http://www.inkscape.org/namespaces/inkscape"
   xmlns:sodipodi="http://sodipodi.sourceforge.net/DTD/sodipodi-0.dtd"
   xmlns="http://www.w3.org/2000/svg"
   xmlns:svg="http://www.w3.org/2000/svg"><defs
     id="defs1" /><sodipodi:namedview
     id="namedview1"
     pagecolor="#ffffff"
     bordercolor="#000000"
     borderopacity="0.25"
     inkscape:showpageshadow="2"
     inkscape:pageopacity="0.0"
     inkscape:pagecheckerboard="0"
     inkscape:deskcolor="#d1d1d1"
     inkscape:document-units="pt"
     inkscape:zoom="23.09375"
     inkscape:cx="14.116373"
     inkscape:cy="16.216509"
     inkscape:window-width="1920"
     inkscape:window-height="974"
     inkscape:window-x="-11"
     inkscape:window-y="1609"
     inkscape:window-maximized="1"
     inkscape:current-layer="svg1" /><g
     id="g1"
     transform="matrix(0.0259543,0,0,0.0259543,-11.125279,2.2024082)"><g
       id="g2"
       transform="matrix(1.107714,0,0,1.107714,689.53708,25.610406)"><path
         d="m 0,0 c 0.923573,-0.0071553 1.847146,-0.01431061 2.798706,-0.02168274 1.0062694,-0.0026889 2.0125388,-0.0053778 3.0493012,-0.0081482 1.5983418,-0.0098568 1.5983418,-0.0098568 3.2289734,-0.01991272 3.5290634,-0.0197212 7.0580844,-0.03139461 10.5871884,-0.04136658 1.207217,-0.0040755 2.414433,-0.008151 3.658232,-0.01235008 6.392811,-0.0208582 12.785601,-0.0351596 19.178438,-0.0445347 6.588209,-0.0110486 13.176079,-0.0454318 19.764169,-0.0851717 5.077975,-0.0262073 10.15587,-0.0345239 15.233907,-0.0381098 2.42755,-0.004857 4.855097,-0.0164465 7.282581,-0.035038 3.407856,-0.0244724 6.814843,-0.0234109 10.222761,-0.0164852 0.9921,-0.0128101 1.9842,-0.0256201 3.006363,-0.0388184 10.845,0.0798312 19.87592,3.87303172 28.36839,10.50878912 0.61617,0.478242 1.23235,0.956484 1.86719,1.449219 6.39112,5.638388 11.4574,15.155556 13.13281,23.550781 0.0914,1.677224 0.13082,3.357644 0.13422,5.037354 0.004,1.021816 0.009,2.043631 0.0135,3.096411 -1.8e-4,1.120893 -3.7e-4,2.241786 -5.6e-4,3.396646 0.004,1.192137 0.007,2.384274 0.0111,3.612537 0.009,3.310401 0.0137,6.620752 0.0164,9.931161 0.004,3.570052 0.0135,7.140089 0.0222,10.710132 0.0197,8.622855 0.0298,17.245711 0.0387,25.868582 0.004,4.062566 0.01,8.125126 0.015,12.187686 0.017,13.50848 0.0315,27.01696 0.0387,40.52545 0.002,3.50489 0.004,7.00977 0.006,10.51466 4.8e-4,0.8711 9.7e-4,1.7422 0.001,2.6397 0.008,14.10555 0.0336,28.21101 0.0661,42.31653 0.0331,14.48807 0.0511,28.97609 0.0543,43.4642 0.002,8.13198 0.0109,16.26384 0.0365,24.39578 0.0217,6.92686 0.0297,13.85357 0.02,20.78046 -0.005,3.53155 -0.003,7.06278 0.0168,10.59429 0.021,3.8365 0.0106,7.67258 -0.003,11.50912 0.011,1.10528 0.0219,2.21056 0.0332,3.34933 -0.0923,11.18546 -3.65684,20.2852 -10.52099,29.06997 -0.47824,0.61617 -0.95648,1.23234 -1.44922,1.86719 -5.88619,6.67201 -16.70762,12.70456 -25.74018,13.26983 -0.79798,0.006 -1.59596,0.0111 -2.41813,0.0169 -0.92068,0.009 -1.841361,0.0172 -2.789943,0.0261 -1.504691,0.006 -1.504691,0.006 -3.03978,0.0129 -1.062348,0.008 -2.124697,0.0164 -3.219238,0.0248 -3.519444,0.0248 -7.038848,0.0414 -10.55835,0.0558 -1.20472,0.005 -2.40944,0.0106 -3.650667,0.0161 -6.382144,0.0267 -12.764269,0.0461 -19.146452,0.0605 -5.267756,0.0133 -10.535122,0.0411 -15.802734,0.082 -6.371873,0.0495 -12.743393,0.0741 -19.11545,0.0812 -2.420331,0.007 -4.840655,0.0218 -7.260876,0.0459 -16.80868794,0.1574 -31.066854,-0.11632 -43.808977,-12.55922 -10.100295,-11.14446 -13.309481,-22.01394 -13.267425,-36.84611 -0.0045,-1.17781 -0.0091,-2.35562 -0.01373,-3.56912 -0.01044,-3.25193 -0.01198,-6.50371 -0.0096,-9.75565 4.09e-4,-3.51413 -0.01064,-7.02823 -0.02012,-10.54235 -0.01658,-6.87873 -0.02211,-13.75744 -0.02322,-20.6362 -9.52e-4,-5.59466 -0.0051,-11.18932 -0.0114,-16.78399 -0.01761,-15.87943 -0.02684,-31.75883 -0.02534,-47.63828 8e-5,-0.8553 1.6e-4,-1.7106 2.43e-4,-2.59182 8.1e-5,-0.85636 1.63e-4,-1.71271 2.47e-4,-2.59502 8.13e-4,-13.87115 -0.01832,-27.7422 -0.04652,-41.61332 -0.02877,-14.25995 -0.04254,-28.51985 -0.04081,-42.77983 6.63e-4,-7.99895 -0.0048,-15.997791 -0.02636,-23.996719 -0.01826,-6.811799 -0.02252,-13.623434 -0.009,-20.435247 0.0065,-3.471064 0.0067,-6.941811 -0.01071,-10.412844 -0.0155,-3.774435 -0.0061,-7.548047 0.0093,-11.322466 -0.01029,-1.08116 -0.02058,-2.16232 -0.03117,-3.276243 0.121062,-13.526307 4.394068,-24.54744 13.592055,-34.42354 C -19.330592,5.001663 -10.160476,0.05423657 0,0 Z"
         fill="#b10124"
         transform="translate(134.62099,-0.14717102)"
         id="path1-5" /><path
         d="m 0,0 c 3.1883015,0.10211752 4.9792557,1.0630553 7.6953125,2.7053223 0.8391797,0.4872656 1.6783594,0.9745312 2.5429685,1.4765625 3.550024,2.969555 4.968811,5.8399212 5.640381,10.4370112 0.259681,3.031244 0.405896,6.045689 0.50415,9.086426 0.03899,1.079429 0.07799,2.158858 0.118165,3.270996 0.153993,6.44529 -0.08274,12.195457 -2.110352,18.369629 -1.075291,3.330547 -1.636408,6.666654 -2.257812,10.109375 -1.222304,5.691547 -2.1585934,8.853368 -6.6250005,12.625 -2.5962788,1.524952 -5.22666673,2.830108 -8,4 -0.3163745,5.352714 0.833027,9.796466 2.3125,14.875 0.21333984,0.764414 0.42667969,1.528828 0.64648438,2.316407 1.93420272,6.801465 4.34856982,13.291041 7.22851562,19.746091 2.0011801,4.90784 2.1519554,8.80094 1.8125,14.0625 -2.6549061,-0.61978 -4.4800202,-1.28315 -6.1142578,-3.53613 -1.0842982,-1.99914 -2.0617541,-4.0221 -3.0107422,-6.08887 -0.33386719,-0.68707 -0.66773438,-1.37414 -1.01171875,-2.08203 C -4.9343483,102.37407 -7.2819273,93.925371 -8.7773438,84.062744 -9.6023261,78.91594 -9.6023261,78.91594 -12.8125,74.998291 c -2.730134,-0.93525 -4.800478,-1.319961 -7.679687,-1.292969 -0.825,-0.0077 -1.65,-0.01547 -2.5,-0.02344 -3.218988,0.513026 -4.96801,1.328364 -7.5,3.398437 -1.302239,3.03384 -1.302239,3.03384 -2,6.625 -0.324943,1.354619 -0.651843,2.70877 -0.980469,4.0625 -0.165484,0.706407 -0.330967,1.412813 -0.501465,2.140625 -2.775526,11.635756 -6.317207,21.896676 -12.518066,32.171876 -1.32,0 -2.64,0 -4,0 -0.433291,-5.3728 -0.381133,-8.81727 2.277343,-13.55078 2.991917,-5.72357 4.828882,-11.567166 6.597657,-17.761721 0.479531,-1.586513 0.479531,-1.586513 0.96875,-3.205078 0.296484,-1.021582 0.592968,-2.043164 0.898437,-3.095703 0.266675,-0.915637 0.53335,-1.831274 0.808105,-2.774658 0.496178,-2.881981 0.306226,-4.826385 -0.550292,-7.612061 -1.672881,-1.032143 -1.672881,-1.032143 -3.75,-1.4375 -4.432681,-1.453856 -6.904722,-3.529572 -9.25,-7.5625 -5.812712,-11.709909 -7.360576,-22.532205 -7.375,-35.5 -0.02449,-1.158867 -0.04899,-2.317734 -0.07422,-3.511718 -0.03054,-9.008426 1.382161,-17.0032459 7.449219,-23.9882817 2.787033,-0.9290112 4.579786,-1.14866656 7.468017,-1.2053223 1.352043,-0.0299178 1.352043,-0.0299178 2.7314,-0.0604401 1.457831,-0.0250687 1.457831,-0.0250687 2.945114,-0.0506439 1.002543,-0.0207811 2.005086,-0.0415622 3.038009,-0.062973 3.209917,-0.0654104 6.419917,-0.12426714 9.62996,-0.18312072 2.151701,-0.0432056 4.303393,-0.0868205 6.455078,-0.13085938 C -9.9357844,0.18079974 -9.9357844,0.18079974 -5.7831268,0.11657715 -3.8552677,0.08606813 -1.9275908,0.04433567 0,0 Z"
         fill="#fcf7f8"
         transform="translate(206.49219,63.919678)"
         id="path2" /><path
         d="m 0,0 c 0.94679626,-0.00525696 1.8935925,-0.01051392 2.8690796,-0.01593018 3.1312101,-0.01320811 6.2619121,-0.0044575 9.3931274,0.0056763 2.177095,-0.0020208 4.354188,-0.0049324 6.531281,-0.0086975 4.564671,-0.0044247 9.129166,0.0020114 13.693817,0.01602173 5.846588,0.01707152 11.692762,0.00726435 17.539335,-0.01071739 4.497043,-0.01085102 8.993988,-0.007385 13.491033,3.8338e-4 2.155343,0.0019994 4.310695,-4.4815e-4 6.466027,-0.0074387 3.016088,-0.0076337 6.031511,0.004018 9.04755,0.02070236 0.888517,-0.00607269 1.777033,-0.01214539 2.692474,-0.0184021 5.071287,0.05187133 8.481073,0.67535336 12.921296,3.4065857 -0.33,1.32 -0.66,2.64 -1,4 -1.778302,-0.01571 -1.778302,-0.01571 -3.59253,-0.031738 -4.407521,-0.036259 -8.815029,-0.059184 -13.222656,-0.078125 -1.905947,-0.010044 -3.811879,-0.023682 -5.717773,-0.041016 -2.742959,-0.024318 -5.485713,-0.03562 -8.22876,-0.044434 -0.849145,-0.010323 -1.69829,-0.020645 -2.573166,-0.03128 -4.301301,-8.118e-4 -7.801889,0.084007 -11.665115,2.226593 -1.024521,1.7495494 -1.024521,1.7495494 -1.3125,3.8125004 -0.140508,0.666445 -0.281016,1.33289 -0.425782,2.019531 -0.29051,2.406468 -0.278473,4.746025 -0.261718,7.167969 0.981701,0.01982 1.963403,0.03964 2.974853,0.06006 3.718479,0.07733 7.43663,0.165824 11.154785,0.257324 1.594985,0.03777 3.190041,0.07271 4.785156,0.104493 10.50403,0.211734 20.699555,0.939147 31.085206,2.578125 -0.495,2.475 -0.495,2.475 -1,5 -7.499847,0.17407 -14.999851,0.339529 -22.5,0.5 -1.686532,0.03651 -1.686532,0.03651 -3.407135,0.07376 -11.931283,0.253816 -23.857722,0.473518 -35.792084,0.422332 -0.900783,-0.0035 -1.801566,-0.0071 -2.729645,-0.01071 -4.188131,-0.02003 -8.375515,-0.05512 -12.563324,-0.110382 -8.402903,-0.08103 -16.4288355,0.358713 -24.7363281,1.665283 -4.6971839,0.660059 -9.5485249,1.06454 -14.2714839,0.459717 -2,-2 -2,-2 -2.125,-4.625 0.04125,-0.78375 0.0825,-1.5675 0.125,-2.375 5.867742,-1.926239 11.544695,-2.623326 17.6874995,-3.125 1.0036963,-0.08419 2.0073926,-0.168384 3.0415039,-0.255127 6.7182393,-0.521708 13.4077836,-0.800946 20.1459966,-0.807373 0.788503,-8.06e-4 1.577006,-0.0016 2.389404,-0.0024 5.303916,0.05089 10.472204,0.535942 15.735596,1.189942 0.02693,-2.124932 0.04637,-4.24996 0.0625,-6.375 0.0116,-1.18336 0.0232,-2.366719 0.03516,-3.585938 0.117009,-2.958278 0.117009,-2.958278 -1.097656,-5.0390624 -1.134295,0.00524 -2.268589,0.010474 -3.437256,0.015869 -4.243645,0.01822 -8.487285,0.029625 -12.730957,0.039063 -1.830084,0.005 -3.660165,0.011805 -5.490235,0.020508 -2.643809,0.01225 -5.287564,0.017831 -7.9313962,0.022217 -0.8066258,0.00516 -1.6132517,0.010323 -2.4443207,0.01564 -5.3952697,5.224e-4 -10.6120718,-0.4373517 -15.9658351,-1.1132965 -0.33,-1.32 -0.66,-2.64 -1,-4 C -9.5071352,-0.6239399 -5.1856442,-0.03528127 0,0 Z"
         fill="#fcf6f7"
         transform="translate(145.35498,25.611816)"
         id="path3" /><path
         d="m 0,0 c 2.75,0.82421875 2.75,0.82421875 5,2 0,1.32 0,2.64 0,4 -3.63,1.32 -7.26,2.64 -11,4 1.32,1.32 2.64,2.64 4,4 2.32174352,4.864605 2.25847581,8.881493 1,14 -1.4481727,3.620432 -2.5741536,4.746304 -5.9375,6.75 -4.324184,1.64819 -8.806969,1.794756 -13.390625,2.039062 C -23.101636,36.900222 -23.101636,36.900222 -26,38 c 0,0.66 0,1.32 0,2 3.975438,0.915101 7.804435,1.18795 11.875,1.375 6.8493804,0.472865 11.1735293,1.20328 16.5625,5.625 2.4008713,4.609673 2.2881834,8.912735 1.5625,14 -2.3381817,5.144 -5.8271579,7.891858 -11,10 -3.043991,0.519437 -5.981695,0.517154 -9.0625,0.4375 -1.16499,0.01063 -1.16499,0.01063 -2.353516,0.02148 C -24.527298,71.391714 -28.776152,70.048282 -33.375,65.8125 -35.694234,61.798441 -35.585248,59.608824 -35,55 c 1.625,-2.5 1.625,-2.5 4,-4 3.25,-0.25 3.25,-0.25 6,0 0,0.99 0,1.98 0,3 -0.66,0 -1.32,0 -2,0 -0.948513,4.664934 -0.948513,4.664934 -0.375,9.3125 2.369985,2.908618 5.45429,3.58564 9.09375,3.988281 C -11.134577,67.407131 -11.134577,67.407131 -5,64 -3.1338145,62.133814 -3.6514474,59.502223 -3.4765625,57.007812 -3.8472221,54.78161 -3.8472221,54.78161 -6.0976562,53.273437 -9.5010586,51.780155 -12.105487,51.598091 -15.8125,51.5 -21.542963,51.20505 -25.849898,50.52456 -31,48 c -1.587913,-3.175826 -1.410197,-6.541612 -1,-10 1.375,-2 1.375,-2 3,-3 0.66,0 1.32,0 2,0 0,-0.66 0,-1.32 0,-2 -0.598125,-0.20625 -1.19625,-0.4125 -1.8125,-0.625 C -31.937417,30.410766 -32.707039,28.426347 -34,25 -34.611746,20.193422 -34.0515,16.701482 -31.371094,12.574219 -27.971407,8.6708751 -24.008423,7.1622968 -18.90625,6.75 -17.802813,6.70875 -16.699375,6.6675 -15.5625,6.625 -9.6214992,6.3840556 -6.4655376,4.9457679 -2,1.0820312 -1.34,0.72496094 -0.68,0.36789062 0,0 Z m -24,14 c -1.958882,3.917764 -1.358316,8.718736 -1,13 1.372527,3.11938 1.979543,4.489771 5,6 2.91538,0.500421 2.91538,0.500421 6,0 4.0631491,-4.172964 5.2900841,-7.075619 5.2265625,-12.898438 C -9.2211674,15.948482 -11.10009,12.89991 -14,10 c -4.937782,-0.6440586 -6.912558,0.112111 -10,4 z"
         fill="#38291e"
         transform="translate(202,411)"
         id="path4"
         style="fill:#ffffff" /><path
         d="M 0,0 C 0.75579346,-0.01015137 1.5115869,-0.02030273 2.2902832,-0.03076172 7.7580812,0.05367845 11.913372,1.287561 16.9375,3.4375 c 0.66,-0.99 1.32,-1.98 2,-3 0.99,0.33 1.98,0.66 3,1 -0.33,5.61 -0.66,11.22 -1,17 -0.99,0 -1.98,0 -3,0 C 17.608789,17.54998 17.608789,17.54998 17.273437,16.644531 15.088527,11.200019 13.155087,7.5294034 7.9375,4.4375 2.2748657,2.9173297 -2.9281299,2.964197 -8.3125,5.3632812 c -5.856662,3.5950493 -8.748314,9.9283528 -10.3125,16.4023438 -1.686831,10.301718 -0.55893,19.859557 4.375,29.046875 3.428543,4.114251 6.8135323,6.606194 12.125,7.5 4.0552829,0.310155 7.284253,-0.276511 11.0625,-1.875 3.91213,-3.603277 4.71405,-6.757577 5,-12 0.116051,-2.297083 0.116051,-2.297083 -1,-4 -2.9961595,-1.304566 -2.9961595,-1.304566 -6,-2 0,-0.99 0,-1.98 0,-3 7.92,0 15.84,0 24,0 0,0.99 0,1.98 0,3 -1.65,0.66 -3.3,1.32 -5,2 -0.33,4.62 -0.66,9.24 -1,14 -1.670625,0.598125 -3.34125,1.19625 -5.0625,1.8125 -3.31909,1.201519 -6.591044,2.432131 -9.8125,3.875 -7.9400214,3.334809 -16.4192988,3.250198 -24.566406,0.542969 C -21.273103,57.412553 -27.875467,51.519456 -30.5,44.339844 -32.595969,33.525224 -32.588291,22.473843 -26.828125,12.824219 -24.244946,9.3323551 -21.740419,6.7515242 -18.0625,4.4375 -17.464375,4.0275781 -16.86625,3.6176563 -16.25,3.1953125 -11.033459,0.24063132 -5.8589379,0.05607781 0,0 Z"
         fill="#38291e"
         transform="translate(31.0625,397.5625)"
         id="path5"
         style="fill:#ffffff" /><path
         d="m 0,0 c 2.375,-0.125 2.375,-0.125 5,0 2,2 2,2 2.2270508,4.4301758 -0.010474,0.9949951 -0.020947,1.9899902 -0.031738,3.0151367 -0.005,0.9695361 -0.00999,1.9390723 -0.015137,2.9379885 C 7.1619678,11.618062 7.1437598,12.852822 7.125,14.125 7.08375,18.04375 7.0425,21.9625 7,26 c 12.87,-0.33 25.74,-0.66 39,-1 0,1.32 0,2.64 0,4 -5.473325,3.283995 -11.814033,3.125271 -18.027344,3.097656 -1.740113,-0.0037 -1.740113,-0.0037 -3.515381,-0.0076 C 23.007,32.080984 21.556724,32.07188 20.0625,32.0625 13.101563,32.031562 13.101563,32.031562 6,32 c 0,18.81 0,37.62 0,57 -1.98,0 -3.96,0 -6,0 -1,-1 -1,-1 -1.1202545,-3.246231 0.00222,-0.992613 0.00444,-1.985227 0.00673,-3.007919 7.55e-5,-1.121087 1.511e-4,-2.242174 2.289e-4,-3.397232 0.00516,-1.219771 0.010323,-2.439541 0.01564,-3.696274 0.00141,-1.241564 0.00283,-2.483127 0.00429,-3.762314 0.00466,-3.306085 0.013653,-6.612101 0.024704,-9.918167 0.010216,-3.371475 0.014794,-6.742956 0.019836,-10.114441 C -1.0377739,45.238262 -1.0210174,38.619135 -1,32 c -1.0998926,0.01571 -2.1997852,0.03142 -3.3330078,0.04761 -4.0850491,0.05435 -8.1700662,0.08876 -12.2553712,0.117188 -1.767307,0.01508 -3.534577,0.03554 -5.301758,0.06152 -2.541923,0.03644 -5.083351,0.05342 -7.625488,0.06665 -0.788685,0.01548 -1.577369,0.03097 -2.389954,0.04692 -3.400086,10e-4 -5.67252,-0.08672 -8.624694,-1.858201 C -41.015283,29.992732 -41.500293,29.503774 -42,29 c 0.495,-1.485 0.495,-1.485 1,-3 3.331553,-1.665776 7.065361,-1.120079 10.726563,-1.097656 1.294223,0.0021 1.294223,0.0021 2.614593,0.0043 2.761316,0.0056 5.522552,0.01816 8.283844,0.03087 1.869791,0.005 3.739582,0.0096 5.609375,0.01367 C -9.1770522,24.96221 -4.5885398,24.979479 0,25 c -0.495,-0.99 -0.495,-0.99 -1,-2 -0.095726,-1.570625 -0.1307405,-3.145212 -0.1328125,-4.71875 -0.00129,-0.931992 -0.00258,-1.863984 -0.00391,-2.824219 0.00387,-0.97582 0.00773,-1.95164 0.011719,-2.957031 -0.0058,-1.46373 -0.0058,-1.46373 -0.011719,-2.9570312 0.00129,-0.9319922 0.00258,-1.8639844 0.00391,-2.8242188 0.00113,-0.856582 0.00226,-1.7131641 0.00342,-2.5957031 C -1,2 -1,2 0,0 Z"
         fill="#fcf5f6"
         transform="translate(183,251)"
         id="path6" /><path
         d="M 0,0 C 0.33,9.24 0.66,18.48 1,28 2.65,26.68 4.3,25.36 6,24 11.339245,22.077054 17.204684,22.314516 22.4375,24.3125 25,26 25,26 27,29 c 0.27124,2.863281 0.27124,2.863281 0.308594,6.3125 0.02514,1.240078 0.05027,2.480156 0.07617,3.757812 0.03515,2.619743 0.0664,5.23954 0.09375,7.859375 0.02642,1.240079 0.05285,2.480157 0.08008,3.757813 0.01345,1.138242 0.02691,2.276484 0.04077,3.449219 0.168571,2.849018 0.168571,2.849018 1.740723,4.695312 C 31.110121,60.19632 31.110121,60.19632 34,61 c -0.33,0.99 -0.66,1.98 -1,3 -6.6,0 -13.2,0 -20,0 0,-0.99 0,-1.98 0,-3 1.220219,-0.66141 1.220219,-0.66141 2.465088,-1.336182 2.788192,-1.413166 2.788192,-1.413166 3.134277,-4.235839 -0.01345,-1.006194 -0.02691,-2.012388 -0.04077,-3.049073 -0.0071,-1.100215 -0.01418,-2.200429 -0.02148,-3.333984 -0.03287,-1.149199 -0.06574,-2.298399 -0.09961,-3.482422 -0.0058,-1.145332 -0.0116,-2.290664 -0.01758,-3.470703 C 18.513453,35.222482 18.513453,35.222482 16,29 13.146756,27.573378 11.165455,27.689661 8,28 4.8731287,29.847697 3.3507906,31.211025 1.8710937,34.539062 0.74599456,39.009188 0.74615885,43.161986 0.8125,47.75 0.81314453,48.612383 0.813789,49.474766 0.814453,50.363281 0.70310257,54.833344 0.70310257,54.833344 2,59 c 1.6436313,0.721594 3.3105039,1.393514 5,2 -0.33,0.99 -0.66,1.98 -1,3 -6.6,0 -13.2,0 -20,0 0,-0.99 0,-1.98 0,-3 0.814929,-0.320735 1.629858,-0.64147 2.469482,-0.971924 2.7211618,-1.735757 2.7211618,-1.735757 2.9774479,-4.264252 0.1335029,-3.081638 0.1136931,-6.129253 0.041351,-9.213043 -0.00707,-1.127753 -0.014149,-2.255507 -0.021439,-3.417434 C -8.5611815,39.525727 -8.6239389,35.919651 -8.6875,32.3125 -8.7125723,29.869163 -8.7353873,27.425802 -8.7558594,24.982422 -8.8110345,18.987753 -8.8947418,12.993987 -9,7 c -1.98,-0.99 -3.96,-1.98 -6,-3 0,-0.66 0,-1.32 0,-2 1.561168,-0.3395162 3.124013,-0.6713254 4.6875,-1 C -9.4423828,0.814375 -8.5722656,0.62875 -7.6757812,0.4375 -5,0 -5,0 0,0 Z"
         fill="#38291e"
         transform="translate(282,395)"
         id="path7"
         style="fill:#ffffff" /><path
         d="M 0,0 C -0.08754551,1.7509102 -0.19573373,3.5007955 -0.3125,5.25 -0.39951172,6.7117969 -0.39951172,6.7117969 -0.48828125,8.203125 -1.0585457,11.31999 -1.7894674,12.753482 -4,15 c -3.5625,1.0625 -3.5625,1.0625 -5.7175293,1.502686 -2.3637377,0.515021 -4.5732097,1.243727 -6.8645017,2.016845 -5.55081,1.678176 -10.767885,2.06542 -16.542969,2.105469 -0.937148,0.04512 -1.874297,0.09023 -2.839844,0.136719 -6.496992,0.06361 -9.804926,-1.374613 -14.472168,-5.892334 C -53.796408,10.851438 -55,7.2985452 -55,2 c 2.878116,-0.9593719 4.794567,-1.1508308 7.791016,-1.20532227 0.971107,-0.0199452 1.942214,-0.0398904 2.942749,-0.0604401 1.04692,-0.0167125 2.09384,-0.033425 3.172485,-0.0506439 1.076246,-0.0207811 2.152493,-0.0415622 3.261353,-0.062973 C -34.388331,0.55518695 -30.944186,0.49630317 -27.5,0.4375 -25.178378,0.39430326 -22.856763,0.3506886 -20.535156,0.30664062 -4.1372015,0 -4.1372015,0 0,0 Z"
         fill="#b20628"
         transform="translate(213,109)"
         id="path8" /><path
         d="M 0,0 C 0.66,1.65 1.32,3.3 2,5 2.763125,4.360625 3.52625,3.72125 4.3125,3.0625 9.1856086,-0.67732752 14.081688,-0.51543619 20,0 c 5.253808,1.8763598 5.253808,1.8763598 7.130371,4.7021484 1.13557,3.000557 1.196258,5.6075746 1.283691,8.8134766 0.05801,1.875586 0.05801,1.875586 0.117188,3.789062 0.03094,1.301954 0.06188,2.603907 0.09375,3.945313 0.05801,1.976133 0.05801,1.976133 0.117187,3.992187 C 28.836462,28.494652 28.922067,31.74711 29,35 c 1.98,0.99 3.96,1.98 6,3 -0.33,0.99 -0.66,1.98 -1,3 -6.6,0 -13.2,0 -20,0 -0.33,-0.99 -0.66,-1.98 -1,-3 1.98,-0.99 3.96,-1.98 6,-3 0.05822,-3.89577 0.09367,-7.791428 0.125,-11.6875 0.01676,-1.102793 0.03352,-2.205586 0.05078,-3.341797 0.0064,-1.066699 0.01289,-2.133398 0.01953,-3.232422 0.01047,-0.979284 0.02095,-1.958569 0.03174,-2.967529 C 18.983014,10.792721 18.343928,8.6616137 17,6 14.146756,4.5733778 12.165455,4.6896613 9,5 5.8706078,6.8491863 4.3495648,8.2070847 2.8789063,11.542969 1.7496154,15.984846 1.6700404,20.123556 1.6875,24.6875 c -0.016113,0.854004 -0.032227,1.708008 -0.048828,2.587891 -6.446e-4,0.820488 -0.00129,1.640976 -0.00195,2.486328 -0.00298,0.742097 -0.00596,1.484194 -0.00903,2.248779 C 2.1060276,34.56657 2.9696788,35.417487 5,37 c 1.485,0.495 1.485,0.495 3,1 -0.33,0.99 -0.66,1.98 -1,3 -6.6,0 -13.2,0 -20,0 0,-0.99 0,-1.98 0,-3 2.475,-0.495 2.475,-0.495 5,-1 0,-10.23 0,-20.46 0,-31 -2.97,-0.495 -2.97,-0.495 -6,-1 0,-0.66 0,-1.32 0,-2 1.581129,-0.5069269 3.165014,-1.0052644 4.75,-1.5 C -7.9274219,1.0823437 -7.9274219,1.0823437 -6.578125,0.65625 -4,0 -4,0 0,0 Z"
         fill="#38291e"
         transform="translate(128,418)"
         id="path9"
         style="fill:#ffffff" /><path
         d="M 0,0 C 0.92240479,0.35989014 1.8448096,0.71978027 2.795166,1.0905762 13.080677,5.1399128 23.267592,9.4260241 33.125,14.4375 c 0,1.98 0,3.96 0,6 C 24.188772,21.274861 18.228894,19.249595 10.375,15.125 8.4015163,14.127966 6.4275692,13.131849 4.453125,12.136719 3.5330566,11.667339 2.6129883,11.197959 1.6650391,10.714355 -4.6025894,7.5636733 -9.7605926,5.2231245 -16.875,6.4375 c -2.709053,1.0078193 -5.243212,2.2147189 -7.832031,3.5 -4.373882,2.070987 -8.878876,3.698938 -13.422119,5.355957 -3.222619,1.181183 -6.387713,2.409968 -9.523194,3.808105 -3.385344,1.40338 -5.600047,1.672925 -9.222656,1.335938 -0.66,-0.33 -1.32,-0.66 -2,-1 0.875,-4.75 0.875,-4.75 2,-7 1.958496,-0.88208 1.958496,-0.88208 4.523438,-1.769531 0.933764,-0.329114 1.867529,-0.658228 2.829589,-0.9973147 C -48.524722,9.3255884 -47.527471,8.9805225 -46.5,8.625 -39.542418,6.1633862 -32.73423,3.6303315 -26.058594,0.46875 -16.1131,-4.2282275 -10.069747,-4.0141984 0,0 Z"
         fill="#fbf4f6"
         transform="translate(198.875,239.5625)"
         id="path10" /><path
         d="m 0,0 c 2.6419055,-0.00984683 5.2830763,-0.04101412 7.9248047,-0.07226562 1.6796829,-0.0065185 3.3593713,-0.01177345 5.0390623,-0.015625 0.789511,-0.01234681 1.579021,-0.02469361 2.392456,-0.03741456 2.207154,0.009094 2.207154,0.009094 5.763794,0.36553956 2.280628,3.42094242 2.21925,4.68187222 2.125,8.68750002 -0.01805,0.9938672 -0.03609,1.9877346 -0.05469,3.0117186 -0.0232,0.759258 -0.04641,1.518516 -0.07031,2.300781 -0.654844,-0.0052 -1.309687,-0.01047 -1.984375,-0.01587 -3.005198,-0.02096 -6.010381,-0.03385 -9.015625,-0.04663 -1.029961,-0.0084 -2.059922,-0.01676 -3.1210936,-0.02539 -4.9804371,-0.01586 -9.76791449,0.108498 -14.7075195,0.827392 -5.0094089,0.600972 -10.0706439,0.688488 -15.1088869,0.885498 -1.14791,0.05156 -2.29582,0.103125 -3.478515,0.15625 -1.088614,0.04383 -2.177227,0.08766 -3.298829,0.132813 -0.991208,0.04077 -1.982417,0.08153 -3.003662,0.123535 -2.281494,-0.0376 -2.281494,-0.0376 -3.281494,-1.037598 -0.627711,-3.217019 -0.409933,-5.2753443 1.210938,-8.1406246 4.189037,-5.4673818 4.189037,-5.4673818 7.592773,-6.30126956 C -16.808255,-0.21122011 -8.3190712,0.01881433 0,0 Z"
         fill="#b3092a"
         transform="translate(188.87988,71.759766)"
         id="path11" /><path
         d="m 0,0 c 5.1310181,2.9816799 8.6045797,7.0747649 11.0625,12.4375 1.725958,8.284597 0.02624,14.327514 -4.5,21.25 -4.7278258,4.522268 -9.8508525,6.925854 -16.4375,7.1875 -5.997338,-0.313997 -10.656894,-1.933877 -15.25,-5.8125 -4.824906,-5.789887 -6.569622,-10.529464 -6.460937,-17.996094 0.707036,-6.797648 4.276301,-11.1510061 9.394531,-15.4023435 C -15.591864,-2.6441623 -7.2141611,-3.2324991 0,0 Z m -19.3125,6.4375 c -3.622934,7.625896 -3.862659,15.904413 -1.074219,23.828125 1.815505,3.670621 3.498503,5.108962 7.074219,7.171875 C -8.7102459,38.259331 -6.9480655,37.845221 -3,35.3125 2.3026798,29.639866 2.1176706,23.294394 2.0078125,15.863281 1.481903,10.238615 -0.38085589,6.5689694 -4.125,2.4375 c -6.423822,-2.93660419 -10.575696,-0.8263062 -15.1875,4 z"
         fill="#38291e"
         transform="translate(99.3125,419.5625)"
         id="path12"
         style="fill:#ffffff" /><path
         d="M 0,0 C 2.375,-0.1875 2.375,-0.1875 5,0 7.7787613,4.168142 7.3833578,7.8555263 7.5585937,12.773438 8.047426,16.346672 8.6086112,18.288744 11,21 c 3.126352,0.417466 3.126352,0.417466 6,0 C 16.9884,20.154375 16.9768,19.30875 16.96484,18.4375 16.915103,12.184394 17.030598,6.1799407 18,0 c 1.98,0 3.96,0 6,0 0,6.6 0,13.2 0,20 5.719432,0.629802 5.719432,0.629802 8.3125,-1.875 C 35.047503,14.680923 35.207207,12.350062 35.5,8 35.888889,2.2222222 35.888889,2.2222222 37,0 c 2.4375,0.375 2.4375,0.375 5,1 2.383871,4.7677417 1.497574,11.06636 0.210937,16.066406 C 39.221613,25.635043 39.221613,25.635043 36,28 c -2.699219,0.730469 -2.699219,0.730469 -5.6875,1.1875 -1.490801,0.237832 -1.490801,0.237832 -3.011719,0.480469 C 26.541523,29.777539 25.782266,29.887109 25,30 c -0.33,1.32 -0.66,2.64 -1,4 -1.875,0.625 -1.875,0.625 -4,1 -0.66,-0.66 -1.32,-1.32 -2,-2 0,-0.99 0,-1.98 0,-3 C 17.336133,29.96262 16.672266,29.92523 15.988281,29.886719 6.0545656,29.147128 6.0545656,29.147128 3,26 -0.76241486,17.710452 -0.32379598,8.8864008 0,0 Z"
         fill="#fcf5f6"
         transform="translate(189,203)"
         id="path13" /><path
         d="m 0,0 c 3.25,2.125 3.25,2.125 4.25,4.125 0.1552056,2.3227316 0.2501917,4.6495931 0.3164062,6.976563 0.020781,0.685247 0.041562,1.370495 0.062973,2.076507 0.065422,2.190541 0.1243462,4.381202 0.1831207,6.57193 0.043192,1.484387 0.086807,2.968763 0.1308594,4.453125 C 5.0504755,27.843621 5.1517636,31.484253 5.25,35.125 c 1.98,-0.66 3.96,-1.32 6,-2 -0.48,4.56 -0.48,4.56 -2.625,6.375 -3.4105446,0.897512 -5.9671168,0.4305 -9.375,-0.375 -1.9375,-1.5625 -1.9375,-1.5625 -3,-3 -0.70125,0.28875 -1.4025,0.5775 -2.125,0.875 -5.503638,2.153597 -9.874422,3.670507 -15.875,3.125 -4.6,-2.2 -4.6,-2.2 -6,-5 -0.495261,-4.292263 -0.446907,-6.343497 2.015625,-9.960938 3.145331,-3.564038 6.854464,-5.422236 11.109375,-7.414062 1.073145,-0.531738 1.073145,-0.531738 2.167969,-1.074219 C -9.4034646,15.197513 -7.1833887,14.125 -3.75,14.125 -3.8374628,12.686387 -3.9456535,11.249025 -4.0625,9.8125 -4.1205078,9.0119922 -4.1785156,8.2114844 -4.2382812,7.3867187 -4.8493695,4.6858018 -5.50666,3.7281174 -7.75,2.125 c -3.395561,-0.5648062 -6.884501,-0.5577494 -10,1 -0.726939,1.9788896 -1.398163,3.9795456 -2,6 -2.375,0.625 -2.375,0.625 -5,1 -2,-2 -2,-2 -2.125,-4.875 1.190471,-3.3068636 1.504526,-3.8043616 4.375,-5.5 C -15.456259,-3.2651267 -6.9266399,-3.3138241 0,0 Z m -10.6875,19.875 c -0.875273,0.510469 -1.750547,1.020937 -2.652344,1.546875 -2.449911,1.731217 -3.916119,3.109797 -5.410156,5.703125 0.0465,4.345768 0.0465,4.345768 2,8 4.16401,0.400386 6.322507,0.441843 9.875,-1.875 2.556006,-2.556006 3.0976863,-3.336179 3.2226562,-6.945313 C -3.6639453,25.214141 -3.6755469,24.123594 -3.6875,23 -3.6965234,21.904297 -3.7055469,20.808594 -3.7148438,19.679687 -3.7264453,18.836641 -3.7380469,17.993594 -3.75,17.125 c -2.8666406,0 -4.4848276,1.294964 -6.9375,2.75 z"
         fill="#38291e"
         transform="translate(348.75,419.875)"
         id="path14"
         style="fill:#ffffff" /><path
         d="M 0,0 C 2.475,0.495 2.475,0.495 5,1 5.1643555,2.1949609 5.1643555,2.1949609 5.3320312,3.4140625 6.1899157,9.1472414 6.9602166,14.025809 10,19 c 1.98,0 3.96,0 6,0 0.09088,-1.680293 0.09088,-1.680293 0.183594,-3.394531 C 16.268014,14.1328 16.352661,12.660145 16.4375,11.1875 16.47682,10.449512 16.51613,9.7115234 16.556641,8.9511719 16.74381,5.7692866 16.987208,3.0383762 18,0 c 1.65,0 3.3,0 5,0 1.009265,4.1562637 1.102396,8.0436509 1.0625,12.3125 -0.009,1.254258 -0.01805,2.508516 -0.02734,3.800781 C 24.023555,17.065898 24.011953,18.018516 24,19 c 3.332002,0.417718 3.332002,0.417718 7,0 3.047338,-2.644014 3.884146,-4.366514 4.609375,-8.332031 C 35.655781,9.5194141 35.702187,8.3708594 35.75,7.1875 35.835078,5.445332 35.835078,5.445332 35.921875,3.6679688 35.960547,2.3473242 35.960547,2.3473242 36,1 c 1.9375,-0.5625 1.9375,-0.5625 4,-1 2.296929,2.2969286 1.280225,7.6688025 1.3125,10.75 0.029,0.9075 0.05801,1.815 0.08789,2.75 0.04032,4.24291 0.0124,6.796522 -2.169922,10.515625 C 35.570886,27.271436 33.14946,28.269102 28.25,28.125 27.450781,28.106953 26.651562,28.088906 25.828125,28.070312 25.224844,28.047109 24.621562,28.023906 24,28 c 0.02062,0.969375 0.04125,1.93875 0.0625,2.9375 C 24,34 24,34 23,35 c -1.666171,0.04064 -3.333881,0.04272 -5,0 0,-1.98 0,-3.96 0,-6 -1.175625,0.103125 -2.35125,0.20625 -3.5625,0.3125 C 10.234656,29.305048 7.8910876,28.113237 4.5429687,25.679687 -0.25870945,20.452544 -0.39592349,15.326617 -0.1875,8.625 -0.17396484,7.7935547 -0.16042969,6.9621094 -0.14648438,6.1054687 -0.11139059,4.0700293 -0.05759228,2.0349271 0,0 Z"
         fill="#fcf5f7"
         transform="translate(141,203)"
         id="path15" /><path
         d="m 0,0 c 1.8154681,3.8578697 2.0938048,6.76706 2,11 -0.5710547,0.02284 -1.14210937,0.04567 -1.73046875,0.0692 -5.97038415,0.23941 -11.94056225,0.483544 -17.91064425,0.730362 -2.224886,0.09137 -4.449821,0.181554 -6.674805,0.270507 -3.207332,0.128437 -6.41446,0.261203 -9.621582,0.394776 -0.986777,0.03859 -1.973555,0.07717 -2.990234,0.116928 C -42.338341,12.811724 -47.636927,13.24374 -53,14 c -2.324886,-3.632635 -2.239612,-6.7668523 -2,-11 1,-1 1,-1 3.458252,-1.0817871 1.623614,0.026949 1.623614,0.026949 3.280029,0.054443 1.805977,0.020303 1.805977,0.020303 3.648438,0.041016 1.943261,0.02417 1.943261,0.02417 3.925781,0.048828 10.732311,0.079225 21.194359,-0.3221552 31.84375,-1.625 C -5.8375387,0.09532961 -3.0161254,-0.09575001 0,0 Z"
         fill="#b30729"
         transform="translate(211,91)"
         id="path16" /><path
         d="M 0,0 C 1.5430078,-0.03867187 1.5430078,-0.03867187 3.1171875,-0.078125 6.8137907,0.3251408 9.4772872,1.6022872 12.125,4.25 c 0.04064,1.6661711 0.04272,3.3338809 0,5 -2.3125,0.6875 -2.3125,0.6875 -5,1 -2.3094244,-1.7106848 -3.3832429,-3.5748643 -5,-6 -3.5833307,-0.557407 -5.48204,-0.2770484 -8.6875,1.4375 -3.979087,4.409259 -5.420384,9.736844 -5.6875,15.625 0.550332,5.77849 1.702545,10.079217 5.625,14.4375 3.6142649,1.971417 5.67505344,2.062062 9.75,1.5 2.4789829,-1.161867 4.6720113,-2.539301 7,-4 0.66,0 1.32,0 2,0 -1.269095,3.913042 -2.4625698,5.856103 -6,8 -6.23348826,2.077829 -13.126819,1.685461 -19.175781,-0.878906 C -17.322741,37.745714 -20.302595,33.967216 -21.875,29.25 -22.979379,15.001704 -22.979379,15.001704 -19.351562,8.9335938 -14.149957,3.0026623 -7.7721503,0.11629153 0,0 Z"
         fill="#38291e"
         transform="translate(249.875,417.75)"
         id="path17"
         style="fill:#ffffff" /><path
         d="m 0,0 c 2.5,0.125 2.5,0.125 3.5,1.125 0.8710317,16.103959 -6.7198344,30.413408 -17.148438,42.058594 -4.011648,4.272689 -8.483757,8.692481 -14.546874,9.140625 C -30.5,52.125 -30.5,52.125 -31.5,51.125 c -0.386719,-2.839844 -0.386719,-2.839844 0,-6 2.230469,-1.941406 2.230469,-1.941406 5.1875,-3.5625 C -15.017446,34.938768 -9.6042188,25.377521 -5.5,13.125 -4.814033,9.8953934 -4.2839425,6.6991966 -3.859375,3.4257813 -3.3614538,0.23800315 -3.2549905,0.16274952 0,0 Z"
         fill="#fbf3f4"
         transform="translate(168.5,287.875)"
         id="path18" /><path
         d="M 0,0 C 1.6754298,0.28604898 3.3438534,0.61781233 5,1 5.2565234,2.0067578 5.5130469,3.0135156 5.7773437,4.0507812 8.0077793,12.397348 10.759147,20.334282 14.375,28.1875 c 0.350544,0.788665 0.701089,1.577329 1.062256,2.389893 C 18.608427,37.228371 22.723536,41.422443 29.375,44.625 32,46 32,46 33,48 c 0,2 0,2 -2,5 C 21.480886,51.470142 16.570095,46.287651 10.8125,38.8125 6.8920453,33.200869 4.2798018,27.433532 2,21 1.6803125,20.132461 1.360625,19.264922 1.03125,18.371094 -0.92419695,12.58623 -1.6409514,7.1013641 -1,1 -0.67,0.67 -0.34,0.34 0,0 Z"
         fill="#fcf5f6"
         transform="translate(199,288)"
         id="path19" /></g></g></svg>
