<svg xmlns="http://www.w3.org/2000/svg" width="24" height="24" viewBox="0 0 24 24"><path fill="#445470" fill-rule="evenodd" d="M4.65 5.38c-.63.3-1.02.68-1.3 1.29a4 4 0 0 0-.26 2.4c.18.67.7 1.33 1.31 1.67.48.27.65.31 1.3.31.62 0 .83-.04 1.2-.26.47-.26.47-.26.56-.05q.08.22.39.21h.3l.03-1.52.03-1.53-.98-.02-1.28-.02c-.28 0-.3.03-.33.42l-.03.41.83.03.83.03-.03.29c-.07.68-.65 1.1-1.52 1.1-.43 0-.63-.05-.89-.23-.73-.52-.97-1.93-.5-2.89.31-.6.66-.84 1.31-.9q1.04-.07 1.43.77c.2.4.21.42.65.39s.45-.03.42-.38c-.04-.5-.44-1.04-.98-1.36a3.3 3.3 0 0 0-2.49-.16m5.5-.06A2.4 2.4 0 0 0 8.7 6.64c-.32.63-.35.76-.34 1.5 0 .93.24 1.6.77 2.14a2.7 2.7 0 0 0 3.77.1c.65-.65.84-1.16.85-2.23 0-.79-.04-.97-.28-1.47A2.5 2.5 0 0 0 12 5.35a3.6 3.6 0 0 0-1.86-.03m3.8.1c-.03.08-.04 1.35-.03 2.83l.03 2.7h.9l.03-1.12.03-1.13h1c.94 0 1 .01 1.15.25.1.14.2.6.24 1s.13.82.2.9c.14.17.95.21 1.05.05.03-.05 0-.2-.08-.32a3 3 0 0 1-.2-.9 3 3 0 0 0-.26-1.1l-.2-.42.2-.22c.27-.29.4-.99.29-1.5a1.5 1.5 0 0 0-1.07-1.03c-.56-.16-3.22-.14-3.28.02m4.74-.06v5.11l.01.53.48-.03.47-.03v-5.6l-.47-.03c-.27-.02-.48 0-.49.05m1.43.06c-.23.28-.14.82.16.9.52.13.91-.45.57-.83-.2-.23-.57-.26-.73-.07m-9.81.9c-.63.33-.91.88-.91 1.79q.01 1.72 1.37 2.02c1.27.28 2.26-1.01 1.95-2.53-.12-.55-.48-1.13-.83-1.31-.1-.06-.4-.13-.67-.16a1.3 1.3 0 0 0-.91.18m4.63.02c-.03.07-.04.42-.02.77l.03.64h.96c1.01 0 1.23-.08 1.39-.5.13-.34 0-.7-.3-.88-.37-.22-1.98-.24-2.06-.03m-6.77 4.93c-.04.03-.07.4-.07.8 0 .71 0 .74.23.71a.3.3 0 0 0 .25-.25q.03-.24.24-.23c.12 0 .3-.08.4-.17q.22-.22.18-.03l-.01.43c.02.42.34.32.41-.12.06-.38.3-.55.3-.21q0 .6.54.6c.37 0 .53-.14.66-.57.08-.26.08-.25.1.14 0 .36.03.43.2.43s.2-.07.21-.43q.01-.4.06-.17c.1.52.7.8 1.01.48.1-.1.15-.1.24 0 .15.15.62.16.88.02q.19-.1.25 0c.08.13.72.13.8 0q.06-.09.26.03c.17.1.22.1.32-.04s.14-.14.25-.03c.17.19.66.18.82-.01.11-.14.14-.13.25.01.13.19.4.15.4-.07.02-.08.03-.24.03-.36.03-.4.22-.25.22.17 0 .33.03.4.2.4q.18-.01.2-.11 0-.12.14 0c.08.07.41.1.82.09l.69-.03V12c0-.68-.02-.75-.2-.75q-.2-.02-.25.3-.06.3-.13.18c-.1-.17-.72-.16-.86 0a.3.3 0 0 0-.05.3q.04.14-.05.22-.1.05-.11-.17a.6.6 0 0 0-.12-.36c-.18-.18-.85-.15-.96.04-.08.14-.1.14-.21 0-.17-.2-.65-.2-.8-.01-.17.19-.34.09-.28-.16.06-.2-.17-.44-.33-.34-.05.03-.1.2-.1.36 0 .28-.01.29-.16.15-.2-.2-.58-.2-.77-.01-.13.13-.16.13-.27 0-.07-.08-.25-.15-.4-.15a.7.7 0 0 0-.43.15c-.13.13-.17.13-.28-.01s-.34-.15-.78-.03q-.15.04-.15-.2c-.01-.37-.3-.37-.56-.01q-.22.32-.34.2a3 3 0 0 0-.94-.06c-.62.02-.82 0-.82-.1 0-.07-.09-.18-.2-.24-.2-.11-.83-.14-.93-.03"/></svg>