<?xml version="1.0" encoding="UTF-8" standalone="no"?>
<svg
   viewBox="0 0 24 24"
   width="24pt"
   height="24pt"
   version="1.1"
   id="svg1"
   sodipodi:docname="gravity.svg"
   xml:space="preserve"
   inkscape:version="1.3 (0e150ed6c4, 2023-07-21)"
   xmlns:inkscape="http://www.inkscape.org/namespaces/inkscape"
   xmlns:sodipodi="http://sodipodi.sourceforge.net/DTD/sodipodi-0.dtd"
   xmlns="http://www.w3.org/2000/svg"
   xmlns:svg="http://www.w3.org/2000/svg"><defs
     id="defs1" /><sodipodi:namedview
     id="namedview1"
     pagecolor="#ffffff"
     bordercolor="#000000"
     borderopacity="0.25"
     inkscape:showpageshadow="2"
     inkscape:pageopacity="0.0"
     inkscape:pagecheckerboard="0"
     inkscape:deskcolor="#d1d1d1"
     inkscape:document-units="pt"
     inkscape:zoom="8.1648736"
     inkscape:cx="-11.390256"
     inkscape:cy="12.676253"
     inkscape:window-width="1920"
     inkscape:window-height="974"
     inkscape:window-x="-11"
     inkscape:window-y="1609"
     inkscape:window-maximized="1"
     inkscape:current-layer="svg1" /><g
     id="g1"
     transform="matrix(0.05322963,0,0,0.05322963,-15.864987,-32.555599)"><g
       id="g2"
       transform="matrix(0.36312182,0,0,0.36312182,363.28901,729.61494)"><path
         fill="#190e40"
         opacity="1"
         stroke="none"
         d="m 99.981354,153.90686 c 18.057216,-0.31702 34.063796,5.55472 49.924836,12.33546 0,6.8886 0,13.70949 0,21.27279 -2.45734,-1.24294 -4.5789,-2.31614 -6.70056,-3.38918 -17.76142,-8.98315 -36.51181,-13.99797 -56.341143,-10.53592 -30.310097,5.29189 -49.792031,33.22994 -45.435707,63.73403 3.928508,27.50845 24.084854,45.93655 52.206619,48.14093 12.399931,0.97204 24.096751,-1.8978 35.727101,-5.44446 1.06912,-0.32602 2.48679,-1.88727 2.50791,-2.90067 0.19349,-9.28595 0.11384,-18.57757 0.11384,-28.30505 -9.48501,0 -18.56149,0 -27.85182,0 0,-6.37695 0,-12.31484 0,-18.90793 8.05305,0 16.14553,2e-5 24.23802,2e-5 7.99033,0 15.98064,-2e-5 24.2354,-2e-5 0.14322,1.0439 0.38246,1.97945 0.38358,2.91528 0.0221,18.49767 0.087,36.9961 -0.10305,55.49182 -0.0171,1.66416 -1.32484,4.25684 -2.69496,4.82639 -27.91566,11.60501 -56.38851,15.22021 -85.512732,4.73883 -25.565083,-9.2005 -43.687462,-34.9498 -44.996048,-62.24347 -0.909725,-18.97444 2.730789,-36.50194 14.617756,-51.53523 16.550346,-20.93102 38.349842,-31.15648 65.680958,-30.19362 z"
         id="path2"
         style="fill:#ffffff" /><path
         fill="#1a0f41"
         opacity="1"
         stroke="none"
         d="m 297.99658,300.93426 c -5.22897,0.35804 -10.50165,0.40986 -15.67624,1.14872 -7.05682,1.00766 -11.4783,-1.36264 -15.21866,-7.71671 -7.1473,-12.14175 -15.07029,-23.85092 -23.13037,-35.41986 -3.38432,-4.85762 -7.83688,-8.99733 -11.97813,-13.29549 -7.41202,-7.69282 -16.92027,-7.19262 -26.74483,-6.94421 0,21.26537 0,42.05446 0,63.11507 -6.88571,0 -13.4763,0 -20.43695,0 0,-48.48246 0,-97.00916 0,-144.92563 17.38405,0 34.73349,-1.1236 51.8622,0.33865 14.98273,1.27905 30.87062,13.13741 32.93468,34.09879 1.53357,15.57348 -4.6554,32.52951 -22.52601,39.96299 -0.42852,0.17826 -0.74217,0.63276 -1.28022,1.1099 17.46367,13.36923 26.47963,33.01524 38.27034,50.59404 4.16174,6.20477 8.72183,12.14236 13.51275,18.15567 0.41269,-0.0463 0.41144,-0.22193 0.41144,-0.22193 m -90.09816,-81.14238 c 6.80698,-0.31838 13.6514,-0.29402 20.41251,-1.0324 11.22403,-1.2258 18.75824,-9.63123 19.47423,-21.04274 0.66101,-10.53537 -5.6431,-20.17846 -16.0833,-22.22817 -8.49855,-1.6685 -17.35068,-1.5359 -26.48909,-2.23593 0,15.46286 -0.0293,29.75764 0.0753,44.05145 0.006,0.82614 1.09936,1.64433 2.61038,2.48779 z"
         id="path3"
         style="fill:#ffffff" /><path
         fill="#1a0f41"
         opacity="1"
         stroke="none"
         d="m 298.19281,301.41284 c -0.19623,-0.47858 -0.19498,-0.30292 -0.19153,-0.26129 20.70264,-48.65221 41.40186,-97.34602 62.04846,-145.91606 0.53424,-0.14061 0.8505,-0.29126 1.16983,-0.29814 13.98621,-0.30219 13.93634,-0.27846 19.60923,12.47458 19.02221,42.76327 38.08676,85.50773 57.11764,128.26715 0.80066,1.79898 1.42716,3.6755 2.30682,5.96332 -7.23046,0 -14.08193,0 -21.28503,0 -5.69974,-12.76179 -11.60776,-25.75174 -17.27057,-38.84778 -1.30258,-3.01239 -2.85711,-4.08301 -6.24835,-4.04734 -19.31857,0.2034 -38.64038,0.0987 -58.27106,0.0987 -5.13131,12.28198 -10.56317,24.38437 -15.19244,36.78631 -1.97406,5.28852 -4.62561,7.23893 -10.12848,6.55967 -4.4342,-0.54734 -8.97485,-0.2327 -13.66452,-0.77909 m 80.09781,-90.15173 c -3.48334,-7.6866 -6.96668,-15.3732 -10.80417,-23.84128 -7.43735,18.04651 -14.47934,35.13373 -21.61157,52.43994 15.29321,0 29.99243,0 45.08224,0 -4.18731,-9.53673 -8.22976,-18.74357 -12.6665,-28.59866 z"
         id="path4"
         style="fill:#ffffff" /><path
         fill="#1c1142"
         opacity="1"
         stroke="none"
         d="m 610.60413,173.22819 c -1.34961,-0.81286 -3.00055,-1.58966 -3.04151,-2.44375 -0.24609,-5.12413 -0.12213,-10.26601 -0.12213,-15.64009 40.83411,0 81.24146,0 121.8858,0 0,5.94754 0,11.7256 0,17.90494 -16.6585,0 -33.26928,0 -50.53576,0 0,42.75683 0,85.1239 0,127.72482 -7.39893,0 -14.14008,0 -21.435,0 0,-42.43686 0,-84.70145 0,-127.54555 -15.80078,0 -31.05475,0 -46.7514,-3.7e-4 z"
         id="path5"
         style="fill:#ffffff" /><path
         fill="#1a0f40"
         opacity="1"
         stroke="none"
         d="m 764.49634,194.53754 c -10.28199,-13.08406 -20.33405,-25.8944 -31.06122,-39.56507 8.77771,0 16.78595,-0.20413 24.76489,0.18811 1.43689,0.0707 2.90845,2.47553 4.10065,4.00763 11.32764,14.55806 22.5979,29.16071 33.88721,43.74854 0.40277,0.52044 0.83209,1.02035 1.71386,2.09793 5.55469,-7.03194 10.85913,-13.74004 16.15583,-20.45423 7.2033,-9.13101 14.35479,-18.30375 21.65985,-27.35253 0.89038,-1.10292 2.57532,-2.16204 3.92151,-2.20012 7.47991,-0.21155 14.96887,-0.10147 23.41723,-0.10147 -3.33917,4.3096 -6.20032,8.05664 -9.11822,11.75882 -13.4784,17.10116 -26.89746,34.25009 -40.51703,51.2382 -3.16406,3.94667 -4.59735,7.91437 -4.5351,13.08597 0.27869,23.13199 0.12128,46.26923 0.12128,69.71087 -7.1142,0 -14.02905,0 -21.55957,0 0,-1.69982 0,-3.47634 0,-5.25283 0,-22.48807 0.0856,-44.9769 -0.11755,-67.46311 -0.0233,-2.57052 -1.10498,-5.54172 -2.64997,-7.61674 -6.45288,-8.66645 -13.27014,-17.06162 -20.18365,-25.82997 z"
         id="path6"
         style="fill:#ffffff" /><path
         fill="#ee7304"
         opacity="1"
         stroke="none"
         d="m 541.04578,170.11009 c -6.44489,15.5103 -12.85712,31.0343 -19.35016,46.52445 -2.77002,6.60833 -5.7088,13.14593 -9.05731,20.09207 -6.3545,4.26005 -11.94089,8.69865 -18.17444,11.862 -5.5748,2.82907 -11.60764,5.69993 -18.34467,3.41908 6.97354,-16.76608 13.87683,-33.56183 20.93686,-50.29141 10.90079,-25.83078 21.90695,-51.61708 32.8754,-77.41929 0.77008,-1.81152 1.69678,-3.562 2.37658,-5.40508 1.12214,-3.04215 3.02906,-3.66648 6.62238,-2.06638 5.76337,0.0889 10.69311,0.0889 17.39862,0.0889 -4.24481,13.26503 -8.20355,25.27879 -11.90497,37.37132 -1.57745,5.15334 -6.18963,9.72037 -3.37829,15.82431 z"
         id="path7" /><path
         fill="#190e3f"
         opacity="1"
         stroke="none"
         d="m 566.1582,231.99994 c 0,-25.94922 0,-51.39844 0,-77.21359 6.75824,0 13.48078,0 20.5708,0 0,48.5802 0,97.21791 0,146.14077 -6.66711,0 -13.37725,0 -20.5708,0 0,-22.91211 0,-45.66964 0,-68.92718 z"
         id="path8"
         style="fill:#ffffff" /><path
         fill="#eb5c05"
         opacity="1"
         stroke="none"
         d="m 469.89386,257.96225 c 0.4841,0.62552 0.96823,1.25101 1.94064,2.09598 2.04865,-0.53617 3.60901,-1.29178 5.80164,-2.35358 0.27563,6.16238 0.52295,11.69187 0.80612,18.0231 7.45087,-2.09378 13.93555,-3.91604 20.42026,-5.73831 -4.72959,11.61902 -9.42957,23.25022 -14.20099,34.85199 -2.482,6.03494 -5.21878,11.96805 -7.57727,18.04923 -0.92896,2.39526 -2.27362,3.68719 -4.6854,2.98931 -1.86343,-0.53915 -4.53549,-1.29757 -5.14721,-2.70025 -10.5011,-24.08011 -20.73746,-48.2757 -30.67505,-72.81031 2.22604,0.23014 4.16278,0.66877 5.95279,1.44555 8.7384,3.79205 17.68286,6.58796 27.36447,6.14729 z"
         id="path9" /><path
         fill="#eb5c05"
         opacity="1"
         stroke="none"
         d="m 430.1662,235.98643 c -6.39353,-14.80705 -12.79254,-29.61175 -19.17697,-44.42273 -1.68573,-3.91076 -3.32639,-7.84098 -4.7349,-12.37126 3.13492,-12.17588 7.59644,-22.89795 16.60834,-31.18603 9.06848,21.08354 18.13562,42.16766 27.20645,63.2502 2.00022,4.64894 4.01328,9.29234 5.72904,14.44366 -8.73825,3.76563 -17.18509,7.0259 -25.63196,10.28616 z"
         id="path10" /><path
         fill="#eb5c05"
         opacity="1"
         stroke="none"
         d="m 393.16528,149.96748 c -4.61728,-10.78389 -9.23456,-21.56779 -14.15106,-33.05054 10.04337,0 19.55386,-0.0996 29.05564,0.14306 1.03155,0.0263 2.22958,1.90367 2.9617,3.15063 0.89968,1.53245 1.3909,3.3047 1.78668,5.48342 -1.25302,1.40814 -2.37781,2.19258 -3.19196,3.22253 -5.52365,6.98801 -10.98172,14.02783 -16.461,21.0509 z"
         id="path11" /><path
         fill="#f28d03"
         opacity="1"
         stroke="none"
         d="m 499.0491,269.67438 c -6.67129,2.13733 -13.15597,3.95959 -20.60684,6.05337 -0.28317,-6.33123 -0.53049,-11.86072 -0.80612,-18.0231 -2.19263,1.0618 -3.75299,1.81741 -5.50473,2.3941 0.58224,-1.73913 1.35592,-3.29934 2.68115,-4.81414 2.96256,-0.3111 5.56412,-0.20436 7.75156,-1.10425 9.48913,-3.90369 18.85745,-8.10112 28.26965,-12.19177 -3.86603,9.12356 -7.73205,18.24716 -11.78467,27.68579 z"
         id="path12" /><path
         fill="#f28d03"
         opacity="1"
         stroke="none"
         d="m 430.19226,236.35056 c 8.42081,-3.62439 16.86765,-6.88466 25.65375,-10.27802 2.53985,4.64774 4.74051,9.42857 6.60653,14.57376 -6.46621,2.7632 -12.59783,5.16203 -18.72943,7.56088 -0.003,0.51128 -0.006,1.02257 -0.009,1.53386 8.40702,2.11263 16.81406,4.22525 25.2211,6.33788 0.33939,0.44299 0.67878,0.88598 0.98835,1.60614 -9.7114,0.71786 -18.65586,-2.07805 -27.39426,-5.8701 -1.79001,-0.77678 -3.72675,-1.21541 -5.97949,-1.80724 -2.36628,-4.42924 -4.34891,-8.86114 -6.35764,-13.65716 z"
         id="path13" /><path
         fill="#f28d03"
         opacity="1"
         stroke="none"
         d="m 393.19531,150.32312 c 5.44925,-7.37871 10.90732,-14.41853 16.43097,-21.40654 0.81415,-1.02995 1.93894,-1.81439 3.2396,-2.84467 1.85821,2.9901 3.39679,6.11248 4.71359,9.79769 -6.6286,8.74051 -13.03543,16.9182 -19.44226,25.09588 -1.63727,-3.42891 -3.2746,-6.8578 -4.9419,-10.64236 z"
         id="path21" /><path
         fill="#eb5c05"
         opacity="1"
         stroke="none"
         d="m 398.14996,161.33195 c 6.39408,-8.54415 12.80091,-16.72184 19.46088,-25.10899 1.30777,2.23671 2.36237,4.68289 3.0683,7.62122 -8.34763,9.04884 -14.35758,18.69819 -16.74399,30.33809 -1.92413,-4.16127 -3.84827,-8.32256 -5.78519,-12.85032 z"
         id="path23" /><path
         fill="#f28d03"
         opacity="1"
         stroke="none"
         d="m 541.36914,169.92941 c -3.1347,-5.92326 1.47748,-10.49029 3.05493,-15.64363 3.70142,-12.09253 7.66016,-24.10629 11.90497,-37.37132 -6.70551,0 -11.63525,0 -17.03497,-0.0697 5.06408,-0.30378 10.59778,-0.68659 16.1325,-0.70327 2.41797,-0.007 4.83826,0.73483 7.88581,1.24098 -7.24841,17.55661 -14.43414,34.96141 -21.94324,52.5469 z"
         id="path24" /><path
         fill="#eb5c05"
         opacity="1"
         stroke="none"
         d="m 468.9787,255.70187 c -8.45044,-1.73558 -16.85748,-3.8482 -25.2645,-5.96083 0.003,-0.51129 0.006,-1.02258 0.009,-1.53386 6.1316,-2.39885 12.26322,-4.79768 18.76645,-7.207 2.42524,4.76792 4.47885,9.5463 6.48914,14.70169 z"
         id="path33" /><path
         fill="#f28d03"
         opacity="1"
         stroke="none"
         d="m 403.9444,174.53342 c 2.37716,-11.99105 8.38711,-21.6404 16.69116,-30.32038 0.93869,0.96816 1.57227,2.05954 2.21649,3.47214 -9.00128,8.60931 -13.4628,19.33138 -16.63849,31.1369 -0.9491,-1.15343 -1.60452,-2.54547 -2.26916,-4.28866 z"
         id="path37" /><path
         fill="#eb5c05"
         opacity="1"
         stroke="none"
         d="m 510.97675,241.6745 c -9.55518,4.40474 -18.9235,8.60217 -28.41263,12.50586 -2.18744,0.89989 -4.789,0.79315 -7.45493,0.92337 0.0672,-0.99198 0.38938,-1.75771 0.86078,-2.80972 6.88626,1.99453 12.9191,-0.87633 18.4939,-3.7054 6.23355,-3.16335 11.81994,-7.60195 18.02173,-11.52252 -0.23273,1.40681 -0.79929,2.85057 -1.50885,4.60841 z"
         id="path38" /></g></g></svg>
