<svg xmlns="http://www.w3.org/2000/svg" width="24" height="24"><path fill="#475724" fill-rule="evenodd" d="M10.3 4.44q0 .18-.14.13-.15-.06-.1.09.05.13-.1.14c-.21 0-.2.05.06.4.12.17.31.3.43.3.26 0 .7.55.58.73a1 1 0 0 0-.08.32c0 .23-.31.33-.48.16q-.13-.12.02-.2.11-.1.06-.2-.06-.15-.2 0c-.12.09-.18.09-.3-.01q-.15-.11-.15-.02c0 .15.34.72.43.72q.06.01.07.13c0 .3.37.57.79.57.22 0 .41.03.41.06 0 .16-.57.84-.7.84q-.16.01-.27.4c-.12.45-.06.49.38.23.3-.18.37-.37.2-.48s.6-1.05.84-1.05c.3 0 .87.83.8 1.14-.05.19 0 .26.27.39.26.13.34.13.36.03.05-.2-.16-.66-.3-.66-.08 0-.28-.2-.46-.45l-.32-.45h.43c.47 0 .93-.3.83-.56q-.04-.13.04-.14c.09 0 .5-.61.5-.75q-.02-.06-.15.05-.16.14-.27.02c-.11-.11-.38-.05-.38.1q.01.07.16.08t.12.13c-.03.06-.16.12-.29.12q-.25.02-.24-.22c0-.33-.13-.39-.24-.1-.06.15-.15.27-.21.27-.13 0-.08-.09.37-.72q.35-.48.56-.48c.13 0 .31-.13.45-.33l.22-.32-.21-.03c-.12-.02-.24-.12-.26-.23-.07-.26-.16-.24-.42.11q-.21.31-.16.5.06.19-.38.84c-.44.63-.57.71-.57.34q0-.18.2-.18c.28 0 .2-.24-.08-.28a.3.3 0 0 1-.24-.23c-.04-.28-.21-.28-.33-.01-.05.12-.15.22-.22.22q-.12.01-.21.17c-.08.14-.14.1-.37-.25-.17-.25-.25-.5-.22-.62s-.04-.31-.16-.47c-.34-.45-.37-.48-.37-.29m4 2.46q.01.18.11.2.1.01.05.16c-.08.2.14.14.27-.08.14-.22.01-.48-.23-.48q-.2 0-.2.2m.77-.13c-.13.12-.07.33.1.33.13 0 .14.02.02.17q-.18.2 0 .12c.21-.07.35-.34.28-.53-.06-.16-.28-.21-.4-.1M3.3 10.79c-.6.61-.26 1.52.59 1.52.63 0 .71-.07.71-.56 0-.44 0-.44-.35-.44-.4 0-.5.24-.14.33.29.08.19.31-.15.35-.57.07-.87-.57-.46-.98q.35-.34.8-.1.18.1.26 0 .13-.28-.54-.37c-.36-.05-.45-.02-.72.25m1.87-.21c-.04.03-.07.44-.07.9 0 .67.03.83.15.83q.15.01.15-.35.02-.67.48 0c.12.2.29.35.37.35.2 0 .19-.1-.09-.5-.2-.3-.21-.37-.1-.48q.3-.27-.06-.62c-.2-.2-.7-.27-.83-.13m1.7 0c-.04.03-.07.44-.07.9v.83h.55c.42 0 .55-.03.55-.15q.01-.15-.35-.15c-.28 0-.35-.04-.35-.2q0-.2.27-.22c.39-.04.42-.28.04-.28-.26 0-.31-.04-.31-.23 0-.18.05-.23.27-.22q.28 0 .31-.17c.03-.15-.04-.18-.4-.18-.25 0-.48.03-.51.07m1.53.83v.9h.5c.38 0 .5-.04.5-.15q.01-.15-.35-.15c-.28 0-.35-.04-.35-.2s.07-.2.3-.2c.39 0 .41-.27.03-.32-.33-.04-.46-.38-.15-.38.3 0 .52-.1.52-.26q.02-.14-.5-.14h-.5zm1.6 0c0 .73.03.9.15.9s.15-.13.15-.57v-.58l.51.58c.71.8.8.77.77-.3q-.03-.87-.15-.9-.14-.08-.13.59v.63l-.58-.63c-.31-.34-.6-.62-.64-.62s-.08.4-.08.9m2.2 0v.9h.5c.38 0 .5-.04.5-.15q.01-.15-.35-.15c-.28 0-.35-.04-.35-.2s.07-.2.3-.2c.39 0 .4-.27.03-.32q-.29-.02-.31-.26c-.03-.2 0-.23.16-.18.25.08.52-.02.52-.2q.02-.14-.5-.14h-.5zm2.4 0c0 .73.03.9.15.9s.15-.11.15-.42v-.42l.43.42c.23.23.51.42.62.42.15 0 .1-.09-.23-.43a2 2 0 0 1-.42-.53c0-.06.13-.23.3-.39s.3-.32.3-.37c0-.19-.28-.06-.6.28l-.35.35-.05-.32c-.03-.18-.1-.34-.17-.37-.1-.03-.13.19-.13.87m1.87-.83c-.04.04-.07.45-.07.91 0 .75.02.84.18.81.15-.03.17-.15.17-.87q0-1.15-.28-.85m.87.07c-.03.08-.04.47-.02.88.02.6.06.74.2.77.16.03.18-.05.18-.55v-.58l.51.58c.71.8.8.77.77-.3q-.03-.87-.16-.9-.13-.08-.12.59v.63l-.58-.63c-.6-.65-.7-.71-.78-.49m2.6-.03c-.89.36-.58 1.7.38 1.7.6 0 .68-.07.68-.57 0-.44 0-.44-.32-.41-.35.03-.52.28-.19.28q.21 0 .21.2c0 .16-.07.2-.34.2-.6 0-.86-.6-.45-1.01q.3-.3.92-.04.18.08.17-.09c0-.3-.59-.45-1.06-.26M7.1 13.25c0 .3.03.36.18.33q.17-.03.17-.33t-.17-.33c-.15-.03-.18.04-.18.33m.6-.12c0 .32.14.5.36.45.14-.02.2-.12.2-.38q.01-.39-.03-.07c-.06.34-.33.36-.33.02q0-.23-.1-.25-.09.02-.1.22m.87-.16c-.1.11-.08.64.03.64q.09 0 .1-.12 0-.15.12 0 .3.3.19-.2c-.06-.31-.29-.47-.44-.32m3.23.29c0 .28.04.35.2.35q.18 0 .2-.1-.02-.09-.12-.1-.15 0 0-.09.18-.1 0-.14-.15-.06 0-.06c.2-.02.13-.21-.08-.21-.16 0-.2.07-.2.35m.6 0c0 .3.03.35.25.35.13 0 .28-.08.34-.17.13-.25-.05-.53-.34-.53-.22 0-.25.04-.25.35m.8 0c0 .2.04.35.1.35q.1-.01.1-.13c0-.07.1-.13.2-.14q.18-.01.15.07-.04.08.05.15.1.04.1-.3c0-.37-.13-.47-.25-.17-.06.16-.07.16-.2 0q-.26-.4-.25.17m.92-.02c.02.27.07.32.28.32s.25-.05.26-.35q.02-.39-.03-.07c-.06.34-.33.36-.33.02q-.01-.23-.1-.25c-.07 0-.1.14-.08.33m.78.02c0 .2.04.35.1.35q.1-.01.1-.17c0-.15.01-.15.18 0 .1.1.22.14.25.1.1-.1.08-.63-.03-.63q-.09.02-.1.22v.22l-.16-.22q-.34-.47-.34.13m.9 0c0 .28.04.35.19.35a.5.5 0 0 0 .32-.16c.16-.2.01-.48-.3-.52-.18-.03-.21.01-.21.32m.75-.24q-.05.11.05.25.14.15.01.15-.1 0-.11.1.02.1.15.1c.21 0 .31-.3.14-.4q-.15-.1-.01-.1.1 0 .12-.1c0-.13-.27-.13-.35 0"/></svg>