<?xml version="1.0" encoding="UTF-8" standalone="no"?>
<svg
   viewBox="0 0 14.458747 14"
   width="14.458747pt"
   height="14pt"
   version="1.1"
   id="svg1232"
   xmlns="http://www.w3.org/2000/svg"
   xmlns:svg="http://www.w3.org/2000/svg">
  <defs
     id="defs1236" />
  <g
     id="g4338"
     transform="translate(-4.6662378,-2.9033506)">
    <path
       style="fill:#0b5a94;fill-opacity:1;stroke:#0b5a94;stroke-width:0.794617;stroke-opacity:1"
       id="path2881"
       d="M 18.727677,9.9033508 A 6.8320656,6.6026917 0 0 1 11.896617,16.506042 6.8320656,6.6026917 0 0 1 5.0635465,9.905294 6.8320656,6.6026917 0 0 1 11.892596,3.3006598 6.8320656,6.6026917 0 0 1 18.727676,9.8994644" />
    <path
       id="Layer"
       class="s0"
       d="m 7.2835051,6.0762444 c 0,-0.3277349 0.2659441,-0.5936788 0.593679,-0.5936788 h 2.6776119 c 0.328341,0 0.593679,0.2659439 0.593679,0.5936788 v 2.6715547 c 0,0.327734 -0.265338,0.593678 -0.593679,0.593678 H 7.8771841 c -0.3277349,0 -0.593679,-0.265944 -0.593679,-0.593678 z m 9.2692639,2.6685257 c 0,0.316224 -0.280483,0.596101 -0.597314,0.596101 h -2.661256 c -0.31683,0 -0.597919,-0.279877 -0.597919,-0.596101 V 6.0786676 c 0,-0.3162248 0.281089,-0.596102 0.597919,-0.596102 h 2.669737 c 0.316831,0 0.59792,0.2798772 0.59792,0.596102 V 8.7447701 Z M 7.2835051,11.371495 c 0,-0.327735 0.2659441,-0.593679 0.593679,-0.593679 h 2.6776119 c 0.327735,0 0.593679,0.265944 0.593679,0.593679 v 2.670948 c 0,0.328341 -0.265944,0.593679 -0.593679,0.593679 H 7.8771841 c -0.3277349,0 -0.593679,-0.265338 -0.593679,-0.593679 z m 9.2692639,2.668525 c 0,0.316831 -0.28109,0.596708 -0.59792,0.596708 h -2.66065 c -0.31683,0 -0.597919,-0.279877 -0.597919,-0.596708 v -2.665496 c 0,-0.316224 0.281089,-0.596708 0.597919,-0.596708 h 2.669737 c 0.316831,0 0.59792,0.280484 0.59792,0.596708 v 2.665496 z"
       style="fill:#fab622;stroke-width:0.00605793" />
  </g>
</svg>
