<?xml version="1.0" encoding="UTF-8" standalone="no"?>
<svg
   viewBox="0 0 15 6.9991765"
   width="15pt"
   height="6.9991765pt"
   version="1.1"
   id="svg1"
   xml:space="preserve"
   xmlns="http://www.w3.org/2000/svg"
   xmlns:svg="http://www.w3.org/2000/svg"><defs
     id="defs1"><clipPath
       id="clip-path"><rect
         id="Rectangle_30"
         data-name="Rectangle 30"
         width="147.189"
         height="147.189"
         fill="none"
         x="0"
         y="0" /></clipPath></defs><g
     id="g1"
     transform="matrix(0.1280977,0,0,0.1280977,-1.8757194,-4.397594)"><g
       id="Group_10"
       data-name="Group 10"><g
         id="Group_9"
         data-name="Group 9"
         clip-path="url(#clip-path)" /></g><g
       id="Group_12"
       data-name="Group 12"><g
         id="Group_11"
         data-name="Group 11"
         clip-path="url(#clip-path)" /></g><g
       id="Group_14"
       data-name="Group 14"><g
         id="Group_13"
         data-name="Group 13"
         clip-path="url(#clip-path)" /></g><g
       id="Group_16"
       data-name="Group 16"><g
         id="Group_15"
         data-name="Group 15"
         clip-path="url(#clip-path)"><path
           id="Path_25"
           data-name="Path 25"
           d="m 64.661,44.162 c 0.07,0.923 0.07,1.706 0.07,2.771 0,17.62 -13.5,28.208 -28.062,28.208 A 27.493,27.493 0 0 1 8.746,47.571 c 0,-15.7 12.647,-27.066 28.134,-27.066 12.575,0 23.376,8.452 26.289,18.613 H 48.106 A 12.88,12.88 0 0 0 36.527,32.3 c -6.608,0 -14.352,4.9 -14.352,15.271 0,11.016 7.814,15.775 14.42,15.775 6.68,0 11.155,-3.34 12.579,-8.455 h -15.7 V 44.162 Z"
           transform="translate(5.897,13.825)"
           fill="#ffffff" /><path
           id="Path_26"
           data-name="Path 26"
           d="m 63.057,36.846 c -0.283,-1.776 -0.712,-5.116 -4.83,-5.116 -2.344,0 -4.619,1.634 -4.619,4.12 0,3.126 1.421,3.765 10.871,8.028 9.8,4.407 12.289,8.952 12.289,15.063 0,7.675 -4.4,16.128 -18.331,16.128 -15.2,0 -18.967,-9.947 -18.967,-16.7 v -1.702 h 13.356 c 0,6.109 3.767,7.174 5.471,7.174 A 5.069,5.069 0 0 0 63.412,58.8 c 0,-3.484 -2.2,-4.333 -10.3,-7.745 -3.7,-1.49 -12.862,-5.187 -12.862,-15.063 0,-9.876 9.592,-15.487 18.4,-15.487 5.185,0 10.8,1.915 14.211,5.965 3.124,3.836 3.337,7.39 3.479,10.375 z"
           transform="translate(26.612,13.825)"
           fill="#ffffff" /></g></g><path
       id="Path_27"
       data-name="Path 27"
       d="M 61.324,21.1 H 89.362 V 32.62 H 73.884 v 8.743 H 88.806 V 52.882 H 73.884 v 19.573 h -12.56 z"
       transform="translate(42.379,14.681)"
       fill="#ffffff" /></g></svg>
