<svg xmlns="http://www.w3.org/2000/svg" width="24" height="24"><path fill-rule="evenodd" d="M6.1 2.23a1.38 1.38 0 0 0 0 2.5c.8.4 2 .08 2-.53 0-.16.03-.35.06-.44.05-.12 0-.16-.24-.16-.3 0-.3 0-.24.46.06.55-.03.64-.71.64-.4 0-.54-.05-.77-.29a1.5 1.5 0 0 1-.35-.65c-.1-.53.18-1.22.58-1.42.43-.23 1.05-.13 1.34.2.27.32.31.32.26.02-.1-.54-1.18-.73-1.93-.33m6.33-.04a1.4 1.4 0 0 0-.1 2.51c.59.36 1.97.18 1.97-.26 0-.13-.05-.12-.26.05-.33.26-1.09.28-1.42.05-.72-.5-.68-1.8.08-2.19a1.1 1.1 0 0 1 1.42.29l.18.21v-.22c0-.53-1.12-.8-1.87-.44m3.27-.08c-.64.26-1.08 1-.95 1.62.16.73.76 1.17 1.62 1.17.48 0 1.13-.29 1.13-.5 0-.15-.09-.12-.37.1-.38.3-1.16.28-1.48-.04-.8-.8-.3-2.26.75-2.26.3 0 .48.08.76.32.35.31.36.31.32.07-.06-.47-1.1-.75-1.78-.48m-6.88 1.1c.03 1.1.03 1.11.36 1.4.26.24.41.29.8.29.92 0 1.22-.48 1.22-1.97 0-.6-.04-.83-.12-.83-.1 0-.12.23-.1.91.02.53-.01 1.03-.08 1.19-.22.53-.95.66-1.36.25-.24-.24-.25-.3-.22-1.3l.03-1.05h-.57zm9.28.29v1.4h.55V2.1h-.55zM9.55 7.93a4.2 4.2 0 0 0-2.79 2.26c-.29.61-.31.74-.31 1.76 0 1 .03 1.15.28 1.66a4.1 4.1 0 0 0 4.97 2.2c.54-.2.56-.2 1.12 0 1.04.35 2.36.2 3.34-.37a5 5 0 0 0 1.6-1.79 4.1 4.1 0 0 0-5.02-5.6c-.47.16-.55.15-1 0a4.4 4.4 0 0 0-2.19-.12m-.18.91a3.3 3.3 0 0 0-1.9 4.38c.3.66.96 1.33 1.62 1.65.45.22.7.27 1.33.27a3 3 0 0 0 .83-.06c.04-.04-.07-.24-.25-.45a5 5 0 0 1-.96-2l-.07-.44 1 .03.98.03v.8l-.47.03-.48.03.16.3c.2.4.93 1.19 1.09 1.19s.89-.79 1.1-1.19l.16-.31h-.91v-.9h.95c.93 0 .95 0 .95.23 0 .6-.5 1.66-1.08 2.3-.14.14-.22.3-.18.34s.42.08.84.07c1.28 0 2.3-.64 2.9-1.79.37-.73.42-1.79.11-2.6a3.3 3.3 0 0 0-1.82-1.83c-.56-.21-1.85-.31-2-.16-.03.04.09.25.27.48q.5.6.76 1.3c.1.25.08.26-.33.26-.4 0-.43-.03-.66-.45a4 4 0 0 0-.63-.8l-.4-.36-.31.24c-.18.13-.47.5-.66.8-.32.54-.36.57-.72.57q-.38 0-.39-.12c0-.28.4-1 .8-1.41.33-.36.37-.46.24-.5a5 5 0 0 0-1.87.07"/></svg>