<svg xmlns="http://www.w3.org/2000/svg" width="24" height="24"><path fill="#82b77c" fill-rule="evenodd" d="M6.07 5a4.3 4.3 0 0 0-2.35 1.7 4.1 4.1 0 1 0 7.15 4.02c.25-.52.28-.67.28-1.67 0-1.27-.19-1.86-.66-2.1-.42-.22-.67-.18-1 .14l-.29.3v1.46c0 1.76-.1 2.26-.6 2.74a2.1 2.1 0 0 1-2.97-.04c-.58-.57-.56-.77.06-.97.49-.15.49-.15.6.09.13.29.74.56 1.04.47.4-.12.67-.45.67-.81 0-.3-.02-.33-.2-.23-.27.14-1.25.12-1.63-.04a2.4 2.4 0 0 1-1.06-1.1 3 3 0 0 1 .08-1.72c.42-.92 1.7-1.4 2.67-.99.35.14.37.14.67-.1.16-.15.43-.29.59-.32.48-.1.42-.22-.29-.55a3 3 0 0 0-1.53-.35A6 6 0 0 0 6.07 5m7.61.23c-.02.24-.08.32-.23.32q-.2 0-.23-.22c-.05-.32-.4-.3-.52.02-.05.14-.14.25-.2.25q-.09.02-.1.2.02.18.15.2c.1 0 .15.1.15.38 0 .5.23.82.6.82.23 0 .3-.05.3-.19 0-.1-.09-.21-.2-.24-.15-.04-.2-.14-.2-.41 0-.32.03-.36.25-.36.24 0 .25.03.25.6s.01.6.25.6.25-.04.25-.47c0-.57.1-.76.36-.71.16.03.2.14.22.6.03.54.05.58.28.58s.24-.03.24-.65c0-.81-.22-1.1-.76-1.02-.33.06-.34.05-.34-.29 0-.3-.03-.34-.24-.34s-.25.06-.28.33m2.25.37c-.48.2-.58.95-.18 1.35.3.3.83.33 1.16.06l.23-.18-.22-.12c-.16-.09-.26-.09-.4 0-.2.13-.52.06-.52-.1 0-.07.25-.11.6-.11.65 0 .7-.06.49-.53-.18-.4-.68-.56-1.16-.37M6.58 7.36c-.4.21-.56.8-.33 1.23.2.4.67.62 1.1.5.7-.2.9-1.06.36-1.6q-.49-.5-1.13-.13m7.37.38q-.2.12-.6.08c-.37-.04-.47 0-.7.21-.33.34-.33.8 0 1.12.24.25.38.29.83.25.2-.01.22 0 .12.2-.12.23-.42.27-.6.06-.11-.14-.5-.1-.5.05 0 .2.46.49.8.49.6 0 .78-.3.82-1.25.02-.63.06-.8.18-.8q.15-.02.2.53c.07.65.22.78.88.72q.37-.01.1.28c-.17.17-.47.15-.54-.03q-.06-.15-.28-.1c-.31.1-.32.13-.06.4.25.27.75.34 1.1.15.25-.13.4-.62.4-1.32q-.01-.62.13-.56.11.06.15.67c.03.58.05.62.25.6.2-.04.23-.12.27-.64.05-.58.08-.62.4-.56.05 0 .1.27.12.59.03.5.06.57.25.6.21.03.23 0 .23-.51q0-.56.16-.68c.24-.2.44.13.44.73 0 .41.03.48.2.48s.2-.07.2-.68c0-.54-.04-.72-.18-.85-.2-.19-.64-.22-.92-.07q-.18.09-.24 0a4 4 0 0 0-1.01-.1h-.95v.49c0 .51-.18.78-.45.67Q15 8.91 15 8.5c0-.68-.58-1.1-1.05-.76m-.87.57c-.37.21-.1.77.32.64.2-.06.24-.16.2-.45-.02-.14-.18-.3-.3-.3zm.87 2.34q-.2.12-.6.08c-.37-.04-.47 0-.7.21-.52.53-.16 1.37.6 1.37.3 0 .36.03.33.17-.04.24-.35.28-.57.09-.18-.16-.51-.13-.51.05 0 .04.1.17.22.29.28.26.78.26 1.11 0 .24-.19.26-.28.3-1.03.01-.65.05-.82.17-.82.11 0 .16.15.18.63.03.58.04.62.27.62s.25-.03.25-.54c0-.5.03-.56.27-.68.36-.17.31-.33-.1-.33a1 1 0 0 1-.54-.13c-.28-.16-.45-.15-.68.02m1.8.3c-.67.67.08 1.72.96 1.36.36-.15.49-.37.49-.84 0-.7-.94-1.03-1.45-.51m1.65.35c0 .52.04.65.26.87.2.2.32.24.56.2.17-.04.41-.07.54-.07.23 0 .24-.03.24-.6 0-.45.03-.6.13-.58q.12.03.15 1.02c.03.94.03.97.25.94.18-.02.23-.1.25-.4.03-.34.06-.37.27-.32.74.18 1.27-.85.71-1.4-.22-.23-.32-.25-1.25-.25H18.5v.47c0 .55-.1.75-.36.7-.16-.03-.2-.14-.22-.6-.03-.54-.05-.58-.28-.58s-.24.03-.24.6m-4.38-.08c-.28.28 0 .75.38.63q.2-.05.2-.35c0-.36-.33-.53-.58-.28m3.08.02a.6.6 0 0 0-.08.38c.02.18.1.23.33.23s.3-.05.33-.23c.04-.25-.13-.52-.33-.52q-.12.02-.25.14m3.8 0c-.2.26-.08.6.22.64.22.03.29-.02.34-.22.1-.44-.29-.74-.56-.42"/></svg>