<?xml version="1.0" encoding="UTF-8" standalone="no"?>
<svg
   viewBox="0 0 766.843 79.803"
   width="766.84302pt"
   height="79.803001pt"
   version="1.1"
   id="svg1"
   sodipodi:docname="gymfinity_report_logo.svg"
   xml:space="preserve"
   inkscape:version="1.4 (86a8ad7, 2024-10-11)"
   xmlns:inkscape="http://www.inkscape.org/namespaces/inkscape"
   xmlns:sodipodi="http://sodipodi.sourceforge.net/DTD/sodipodi-0.dtd"
   xmlns="http://www.w3.org/2000/svg"
   xmlns:svg="http://www.w3.org/2000/svg"><defs
     id="defs1" /><sodipodi:namedview
     id="namedview1"
     pagecolor="#ffffff"
     bordercolor="#000000"
     borderopacity="0.25"
     inkscape:showpageshadow="2"
     inkscape:pageopacity="0.0"
     inkscape:pagecheckerboard="0"
     inkscape:deskcolor="#d1d1d1"
     inkscape:document-units="pt"
     inkscape:zoom="1.23"
     inkscape:cx="490.65041"
     inkscape:cy="28.04878"
     inkscape:window-width="1920"
     inkscape:window-height="974"
     inkscape:window-x="-11"
     inkscape:window-y="402"
     inkscape:window-maximized="1"
     inkscape:current-layer="g1"
     showgrid="false"><inkscape:page
       x="0"
       y="0"
       width="766.84302"
       height="79.803001"
       id="page2"
       margin="0"
       bleed="0" /></sodipodi:namedview><g
     id="g1"
     transform="matrix(0.04886788,0,0,0.04886788,2.0633029,1.5845695)"><path
       d="m 1,13 c -368.22207,-230.42558 -368.22207,-230.42558 0,0 z"
       fill="#532c55"
       transform="translate(325,185)"
       id="path52"
       sodipodi:nodetypes="cc" /><path
       d="M 0,0 C -338.22207,-200.42558 -338.22207,-200.42558 0,0 Z"
       fill="#654367"
       transform="translate(296,168)"
       id="path81"
       sodipodi:nodetypes="cc" /><g
       id="g2"
       transform="matrix(44.131497,0,0,28.868649,-1020.8669,-4593.1017)"><path
         d="m -14.089849,18.230469 v 19 h -9 v -20 h -3 v -5 h 3 c 0.09281,-1.60875 0.09281,-1.60875 0.1875,-3.2500002 0.8125,-3.7500001 0.8125,-3.7500001 2.75,-6.1875 3.845907,-1.96219712 6.0625,15.4375002 6.0625,15.4375002 z"
         fill="#f1c5df"
         transform="translate(162.08984,164.76953)"
         id="path3"
         sodipodi:nodetypes="cccccccccc" /><path
         d="M 0,0 C 2.97,0 5.94,0 9,0 9,0.66 9,1.32 9,2 9.495,1.67 9.99,1.34 10.5,1 13.998224,-0.39928968 17.316538,-0.62728259 21,0 c 3,2 3,2 5,4 0.474375,-0.66 0.94875,-1.32 1.4375,-2 3.23499,-2.52486996 5.25796,-2.51099621 9.246094,-2.62890625 C 40.420463,0.38565681 41.756408,1.8464192 44,5 c 0.601704,3.6262224 0.472394,7.149694 0.3125,10.8125 -0.02256,0.979043 -0.04512,1.958086 -0.06836,2.966797 C 44.18542,21.186857 44.095744,23.593628 44,26 c -2.97,0 -5.94,0 -9,0 0,-5.94 0,-11.88 0,-18 -1.98,0 -3.96,0 -6,0 -2.934474,2.934474 -2.461584,6.182595 -2.625,10.125 -0.03867,0.754102 -0.07734,1.508203 -0.117188,2.285156 C 26.16349,22.273032 26.080653,24.136483 26,26 23.36,26 20.72,26 18,26 17.939414,24.784414 17.878828,23.568828 17.816406,22.316406 17.732017,20.731758 17.647368,19.147123 17.5625,17.5625 17.523184,16.760059 17.483867,15.957617 17.443359,15.130859 17.59457,11.247604 17.59457,11.247604 16,8 13.5,7.8333333 13.5,7.8333333 11,8 8.880744,10.119256 9.5816898,14.619609 9.4375,17.5625 9.3943164,18.368809 9.3511328,19.175117 9.3066406,20.005859 9.2002474,22.003688 9.0995911,24.001821 9,26 6.03,26 3.06,26 0,26 0,17.42 0,8.84 0,0 Z"
         fill="#5e3760"
         transform="translate(89,176)"
         id="path4"
         style="fill:#592b5c;fill-opacity:1" /><path
         d="m 0,0 c 2.64,0 5.28,0 8,0 0,4.62 0,9.24 0,14 0.66,0 1.32,0 2,0 0.246211,-0.551719 0.492422,-1.103437 0.746094,-1.671875 C 13.32517,7.5395599 16.809822,3.4530174 21,0 c 3.41935,-0.85483762 5.451976,-0.56317846 9,0 -1.904507,4.4337729 -5.084637,7.3720277 -8.417969,10.78125 -1.829622,2.030696 -1.829622,2.030696 -1.32373,4.132324 0.774482,2.178645 1.708521,3.79277 3.026855,5.687988 0.671924,0.982266 0.671924,0.982266 1.357422,1.984375 0.702861,1.009336 0.702861,1.009336 1.419922,2.039063 C 31,31.738233 31,31.738233 31,34 27.424844,34.791223 24.542401,35.023583 21,34 17.668764,30.36012 15.313574,26.342798 13,22 9.8275404,23.947578 9.8275404,23.947578 8.390625,27.261719 8.3210156,28.46248 8.3210156,28.46248 8.25,29.6875 8.1932813,30.495742 8.1365625,31.303984 8.078125,32.136719 8.0523438,32.751602 8.0265625,33.366484 8,34 5.36,34 2.72,34 0,34 0,22.78 0,11.56 0,0 Z"
         fill="#542a56"
         transform="translate(275,168)"
         id="path5"
         style="fill:#592b5c;fill-opacity:1" /><path
         d="m 0,0 c 0.54527344,0.28875 1.0905469,0.5775 1.6523437,0.875 -0.5734493,2.8672469 -0.86145145,3.8614515 -2.9999999,6 -2.2627479,-0.3535544 -3.9508886,-0.9754443 -6,-2 -3.9329778,-0.3710357 -6.3647008,-0.3108913 -9.9374998,1.4375 -2.610704,3.2436018 -2.797989,5.283172 -2.535156,9.367188 0.399682,2.469481 0.399682,2.469481 2.410156,5.257812 4.288633,2.713217 7.049225,2.311625 12.0624998,1.9375 0,-2.97 0,-5.94 0,-9 2.3099999,0 4.61999995,0 6.9999999,0 0.1349626,2.102416 0.2319731,4.207296 0.3125,6.3125 0.058008,1.171758 0.1160157,2.343516 0.1757813,3.550781 C 1.6523437,26.875 1.6523437,26.875 -0.6171875,28.730469 -7.1381385,31.463857 -13.303208,31.788335 -20.097656,29.75 c -4.303661,-2.482881 -6.998357,-5.371714 -9.25,-9.875 -0.505024,-5.530421 -0.738073,-10.4103052 1.625,-15.5 C -19.390965,-4.3952013 -10.471547,-5.1552231 0,0 Z"
         fill="#59315b"
         transform="translate(53.347656,171.125)"
         id="path6"
         style="fill:#592b5c;fill-opacity:1" /><path
         d="M 0,0 C 2.97,0 5.94,0 9,0 9.2655469,0.75925781 9.5310938,1.5185156 9.8046875,2.3007813 10.157891,3.2946484 10.511094,4.2885156 10.875,5.3125 11.39707,6.7916992 11.39707,6.7916992 11.929688,8.3007813 12.953059,11.155944 12.953059,11.155944 15,14 15.277148,13.073164 15.554297,12.146328 15.839844,11.191406 16.20207,9.9938672 16.564297,8.7963281 16.9375,7.5625 17.297148,6.3675391 17.656797,5.1725781 18.027344,3.9414063 19,1 19,1 20,0 c 2.670589,-0.14115161 5.324322,-0.04247107 8,0 -2.043413,8.7830889 -5.262843,16.807758 -9,25 -0.580078,1.28584 -0.580078,1.28584 -1.171875,2.597656 C 16.196504,31.055438 15.244128,32.837248 12,35 9.84375,35.300781 9.84375,35.300781 7.5,35.3125 6.3398437,35.337637 6.3398437,35.337637 5.15625,35.363281 2.529841,34.920788 1.664429,34.021854 0,32 0.5625,30.0625 0.5625,30.0625 2,28 5.625,27.25 5.625,27.25 9,27 8.450493,21.230176 6.8015152,16.546258 4.5,11.25 3.8638823,9.7555065 3.2284378,8.2607263 2.59375,6.765625 2.3120898,6.1136816 2.0304297,5.4617383 1.7402344,4.7900391 1.0910532,3.2201854 0.53720356,1.6116107 0,0 Z"
         fill="#573359"
         transform="translate(234,176)"
         id="path7"
         style="fill:#592b5c;fill-opacity:1" /><path
         d="m 0,0 c 2.64,0 5.28,0 8,0 0.8398608,1.9346794 1.6716803,3.8728513 2.5,5.8125 0.464063,1.0789453 0.928125,2.1578906 1.40625,3.2695313 C 13,12 13,12 13,15 c 0.66,0 1.32,0 2,0 0.10957,-0.580078 0.219141,-1.160156 0.332031,-1.757812 C 16.314336,8.4025372 17.548219,4.3463388 20,0 c 2.31,0 4.62,0 7,0 -0.92837,6.6327998 -3.291609,12.429287 -5.75,18.625 -0.430547,1.131797 -0.861094,2.263594 -1.304688,3.429687 -0.430546,1.087969 -0.861093,2.175938 -1.304687,3.296875 -0.386396,0.988228 -0.772793,1.976456 -1.170898,2.994629 C 15.747928,31.455153 13.931913,33.024741 11,35 8.6132813,35.425781 8.6132813,35.425781 6.3125,35.3125 5.5455078,35.288008 4.7785156,35.263516 3.9882813,35.238281 2,35 2,35 0,34 0.875,29.125 0.875,29.125 2,28 4.3329743,27.959071 6.6670522,27.957583 9,28 8.4728313,21.816227 6.4479312,16.828383 3.9375,11.1875 3.1935421,9.4948367 2.4525037,7.8008862 1.7148437,6.1054687 1.3860523,5.3644995 1.0572607,4.6235303 0.71850586,3.8601074 0,2 0,2 0,0 Z"
         fill="#583159"
         transform="translate(58,176)"
         id="path8"
         style="fill:#592b5c;fill-opacity:1" /><path
         d="M 0,0 C 2.64,0 5.28,0 8,0 8,0.99 8,1.98 8,3 8.474375,2.505 8.94875,2.01 9.4375,1.5 13.111671,-0.65073438 16.85972,-1.0612523 21,0 c 2.765625,1.8554687 2.765625,1.8554687 5,5 0.601645,3.6262427 0.472395,7.149679 0.3125,10.8125 -0.02256,0.979043 -0.04512,1.958086 -0.06836,2.966797 C 26.185397,21.187775 26.103321,23.593091 26,26 23.36,26 20.72,26 18,26 17.67,20.39 17.34,14.78 17,9 14.03,8.505 14.03,8.505 11,8 8.0655264,10.934474 8.5384158,14.182595 8.375,18.125 8.3169922,19.256152 8.3169922,19.256152 8.2578125,20.410156 8.1634897,22.273032 8.0806534,24.136483 8,26 5.36,26 2.72,26 0,26 0,17.42 0,8.84 0,0 Z"
         fill="#59335b"
         transform="translate(170,176)"
         id="path9"
         style="fill:#592b5c;fill-opacity:1" /><path
         d="M 0,0 C 2.64,0 5.28,0 8,0 8,11.22 8,22.44 8,34 5.69,34 3.38,34 1,34 0.89042969,32.868203 0.78085937,31.736406 0.66796875,30.570312 0.50852939,29.088464 0.34833382,27.606697 0.1875,26.125 0.11724609,25.378633 0.04699219,24.632266 -0.02539062,23.863281 -0.24710223,21.894482 -0.61579339,19.943633 -1,18 -3.7698808,15.684568 -3.7698808,15.684568 -6.625,16.3125 -8.9350196,16.774151 -8.9350196,16.774151 -10,18 c -0.07206,1.68609 -0.08386,3.375007 -0.0625,5.0625 0.01353,1.378652 0.01353,1.378652 0.02734,2.785156 0.0116,0.710274 0.0232,1.420547 0.03516,2.152344 -0.66,0 -1.32,0 -2,0 0,-0.66 0,-1.32 0,-2 -2.510831,1.255416 -2.871254,2.500635 -4,5 -3.499386,-3.984635 -3.634835,-7.064073 -3.46875,-12.226563 0.635138,-3.757897 1.861164,-5.920827 4.546875,-8.593749 C -11.459153,8.0541954 -7.894212,8.1618172 -4,9 c 0.99,0.66 1.98,1.32 3,2 0.33,-3.63 0.66,-7.26 1,-11 z"
         fill="#552957"
         transform="translate(342,167)"
         id="path10"
         style="fill:#592b5c;fill-opacity:1" /><path
         d="m 0,0 2,1 v 6 h -6 v 4 h 5 v 6 h -5 v 19 h -9 V 16 h -3 v -5 h 3 c 0.09281,-1.60875 0.09281,-1.60875 0.1875,-3.25 C -12,4 -12,4 -9.875,1.5625 -6.3257962,-0.36641508 -3.9855897,-0.37599902 0,0 Z"
         fill="#6b496a"
         transform="translate(152,166)"
         id="path11"
         sodipodi:nodetypes="ccccccccccccccccc"
         style="fill:#592b5c;fill-opacity:1" /><path
         d="M 0,0 C 2.3398438,1.0234375 2.3398438,1.0234375 4,2 3.67,3.65 3.34,5.3 3,7 -2.445,6.505 -2.445,6.505 -8,6 c 0,0.99 0,1.98 0,3 0.6032813,0.097969 1.2065625,0.1959375 1.828125,0.296875 C -2.4434378,9.9944536 0.40042234,10.590532 3.5625,12.75 5.4924372,15.770771 5.5868802,17.478719 5,21 c -1.8670991,2.302756 -3.3564774,3.678239 -6,5 -11.237936,0.941019 -11.237936,0.941019 -16,-3 0.33,-1.65 0.66,-3.3 1,-5 4.29,0.66 8.58,1.32 13,2 0,-0.99 0,-1.98 0,-3 C -3.86625,16.9175 -4.7325,16.835 -5.625,16.75 -9.5113315,15.886371 -11.859043,14.410502 -15,12 -16.437352,9.1252951 -16.381726,7.1810541 -16,4 -11.995312,-1.2475217 -6.0549877,-0.7760491 0,0 Z"
         fill="#5a335a"
         transform="translate(371,176)"
         id="path12"
         style="fill:#592b5c;fill-opacity:1" /><path
         d="m 0,0 c 2.64,0 5.28,0 8,0 0,2.31 0,4.62 0,7 2.31,0 4.62,0 7,0 0,1.98 0,3.96 0,6 -2.31,0 -4.62,0 -7,0 0,3.96 0,7.92 0,12 1.98,0 3.96,0 6,0 0.33,1.98 0.66,3.96 1,6 -2.287262,1.143631 -3.828524,1.265019 -6.375,1.375 C 7.8541406,32.42398 7.0832812,32.47297 6.2890625,32.523437 4,32 4,32 1.7265625,29.933594 -0.43683526,26.257775 -0.40825134,23.920723 -0.25,19.6875 -0.21390625,18.433242 -0.1778125,17.178984 -0.140625,15.886719 -0.07101563,14.457793 -0.07101563,14.457793 0,13 c -1.32,0 -2.64,0 -4,0 0,-1.98 0,-3.96 0,-6 1.32,0 2.64,0 4,0 C 0,4.69 0,2.38 0,0 Z"
         fill="#542956"
         transform="translate(217,170)"
         id="path14"
         style="fill:#592b5c;fill-opacity:1" /><path
         d="m 0,0 c 2.9344736,2.9344736 2.4615842,6.1825946 2.625,10.125 l 0.1171875,2.285156 C 2.8365103,14.273032 2.9193466,16.136483 3,18 h 7 v 1 H 2 l -1,-2 -1.5625,1 c -3.3199779,1.362042 -5.8793625,1.317691 -9.4375,1 -2.4375,-1.5 -3.276817,-3.058731 -4.839317,-4.558731 L -12,10 h 2 l 1,1 -0.140625,-1.8632812 C -9.434875,2.5476204 -9.434875,2.5476204 -7.3125,-0.125 -4.4057291,-1.2248592 -2.9191519,-0.99865722 0,0 Z"
         fill="#5e3761"
         transform="translate(340,183)"
         id="path18"
         sodipodi:nodetypes="ccccccccccccccccc" /><path
         d="M 0,0 H 7 V 25 H 0 Z"
         fill="#da4086"
         transform="translate(158,176)"
         id="path20"
         sodipodi:nodetypes="ccccc" /><path
         d="M 0,0 C 2,2 2,2 2.25,5.4375 2,9 2,9 0,12 -3.5,12.375 -3.5,12.375 -7,12 -9.4694353,8.2958471 -9.4691309,6.3785549 -9,2 -6.1726677,-1.3509123 -4.0306659,-1.378912 0,0 Z"
         fill="#f7f3f7"
         transform="translate(340,183)"
         id="path26" /><path
         d="m -1.3363813,0 h 7.6727626 l 0.3340954,23.835238 -8.006858,0.167048 z"
         fill="#f4bd43"
         transform="translate(202,177)"
         id="path29"
         sodipodi:nodetypes="ccccc" /><path
         d="M -1.6704767,-1.002286 H 5 L 5.1670477,23 h -7.505715 z"
         fill="#17aa90"
         transform="translate(312,177)"
         id="path31"
         sodipodi:nodetypes="ccccc" /><path
         d="M 0,0 C -1.4991671,3.4199749 -3.4943714,5.8706509 -6,8.625 -7.051875,9.7890234 -7.051875,9.7890234 -8.125,10.976563 -9.3905891,12.342344 -10.683361,13.683361 -12,15 c -0.66,0 -1.32,0 -2,0 0.2475,-0.959062 0.2475,-0.959062 0.5,-1.9375 0.539267,-1.870768 0.539267,-1.870768 0.5,-3.0625 -0.99,-0.33 -1.98,-0.66 -3,-1 3.29277,-8.08225262 7.851245,-9.79889755 16,-9 z"
         fill="#582f59"
         transform="translate(305,168)"
         id="path33" /><path
         d="M 0,0 C 2.3251025,2.8417919 4.577006,5.728266 6.75,8.6875 7.1779687,9.2688672 7.6059375,9.8502344 8.046875,10.449219 9,12 9,12 9,14 5.5996101,14.350422 2.3854069,14.541241 -1,14 -3.625,11 -3.625,11 -5,8 -3.25,4.125 -3.25,4.125 -1,3 -0.67,2.01 -0.34,1.02 0,0 Z"
         fill="#592f5b"
         transform="translate(297,188)"
         id="path34" /><path
         d="m 0,0 c 2.5625,0.1875 2.5625,0.1875 4.5625,2.1875 -0.5555556,4.5555556 -0.5555556,4.5555556 -2,6 -2.4375,0.25 -2.4375,0.25 -5,0 -2,-3 -2,-3 -1.6875,-5.125 C -3.1212496,0.32499884 -2.9934121,0.23026247 0,0 Z"
         fill="#d14f8c"
         transform="translate(161.4375,164.8125)"
         id="path48"
         sodipodi:nodetypes="cccccc" /><path
         d="M 0,0 C 0.33,0.66 0.66,1.32 1,2 1.99,2.33 2.98,2.66 4,3 3.6875,4.875 3.6875,4.875 3,7 2.01,7.66 1.02,8.32 0,9 -1.32,8.67 -2.64,8.34 -4,8 -2.68,5.36 -1.36,2.72 0,0 Z"
         fill="#532a54"
         transform="translate(69,202)"
         id="path67" /><path
         d="M 0,0 C 2.31,0 4.62,0 7,0 6.67,1.98 6.34,3.96 6,6 4.35,6.33 2.7,6.66 1,7 0.67,4.69 0.34,2.38 0,0 Z"
         fill="#59325c"
         transform="translate(78,176)"
         id="path79" /><path
         d="M -1.1693337,1.1693337 6.004572,0.83523837 6.002286,8.3386673 -1.1693337,8.8398103 Z"
         fill="#f0bc4c"
         transform="translate(202,165)"
         id="path82"
         sodipodi:nodetypes="ccccc" /><path
         d="M -0.83523833,-1.002286 -1.002286,6.1693337 -7.3386673,6.503429 v -6.83981033 c 3.875,-0.99999997 5.378429,-0.66590467 6.50342897,-0.66590467 z"
         fill="#22a78d"
         transform="translate(318,167)"
         id="path101"
         sodipodi:nodetypes="ccccc" /><path
         d="m 0,0 c 1.9726562,0.36328125 1.9726562,0.36328125 4.9726562,3.3632813 -4.28999995,-0.33 -8.58,-0.6600001 -13,-1 C -5.4339847,-0.2300778 -3.5398734,0.08601562 0,0 Z"
         fill="#5d3c5f"
         transform="translate(108.02734,175.63672)"
         id="path103" /><path
         d="M 0,0 C 1.32,0.33 2.64,0.66 4,1 2.515,4.465 2.515,4.465 1,8 0.67,8 0.34,8 0,8 0,5.36 0,2.72 0,0 Z"
         fill="#4d2a4f"
         transform="translate(343,167)"
         id="path120" /></g></g></svg>
