<?xml version="1.0" encoding="UTF-8" standalone="no"?>
<svg
   viewBox="0 0 24 24"
   width="24pt"
   height="24pt"
   version="1.1"
   id="svg1"
   sodipodi:docname="gymfinity.svg"
   xml:space="preserve"
   inkscape:version="1.4 (86a8ad7, 2024-10-11)"
   xmlns:inkscape="http://www.inkscape.org/namespaces/inkscape"
   xmlns:sodipodi="http://sodipodi.sourceforge.net/DTD/sodipodi-0.dtd"
   xmlns="http://www.w3.org/2000/svg"
   xmlns:svg="http://www.w3.org/2000/svg"><defs
     id="defs1" /><sodipodi:namedview
     id="namedview1"
     pagecolor="#ffffff"
     bordercolor="#000000"
     borderopacity="0.25"
     inkscape:showpageshadow="2"
     inkscape:pageopacity="0.0"
     inkscape:pagecheckerboard="0"
     inkscape:deskcolor="#d1d1d1"
     inkscape:document-units="pt"
     inkscape:zoom="16.241359"
     inkscape:cx="16.839724"
     inkscape:cy="15.362015"
     inkscape:window-width="1920"
     inkscape:window-height="974"
     inkscape:window-x="-11"
     inkscape:window-y="1609"
     inkscape:window-maximized="1"
     inkscape:current-layer="g1"
     showgrid="false"><inkscape:page
       x="0"
       y="0"
       width="24"
       height="24"
       id="page2"
       margin="0"
       bleed="0" /></sodipodi:namedview><g
     id="g1"
     transform="matrix(0.30805996,0,0,0.30805996,-34.569316,-17.769851)"><path
       d="m 141.0654,72.756827 2.66464,0.966017 c 0.67533,6.846883 0.94868,13.681551 1.16578,20.58821 l 0.13791,3.450866 -0.3978,3.29993 -0.296,3.71759 c -0.1763,2.51197 -0.27615,2.07755 -1.17846,3.85181 -1.55663,1.59586 -1.55934,1.1647 -3.42837,0.83418 -1.54051,-0.96602 -1.54051,-0.96602 -2.66465,-1.93204 v -6.76211 h -1.33232 c -1.75337,-4.482726 -1.82144,-8.474912 -1.33231,-13.524216 1.09558,-4.577212 2.27715,-9.098253 4.6631,-12.558205 h 1.99848 z"
       fill="#752961"
       id="path6"
       style="fill:#e7388b;fill-opacity:1;stroke-width:0.802198"
       sodipodi:nodetypes="ccccccccccccccc" /><path
       d="m 157.71938,74.688859 c 2.41481,-0.181128 2.41481,-0.181128 4.6631,0 l 1.81469,2.596647 c 0.79669,3.487044 -0.50146,1.17014 1.11668,2.090543 0.7728,3.362003 1.20159,9.158923 1.23212,12.701094 0.0257,1.793167 0.0257,1.793167 0.052,3.622559 -0.23686,3.402008 0.52483,5.415508 -1.21849,7.485668 l -1.39833,2.52399 c -0.83271,2.83768 -0.93256,1.82403 -3.22248,3.27306 -2.3732,0.48301 -2.3732,0.48301 -4.37168,-1.44903 -0.24801,-2.92233 -0.24801,-2.92233 -0.242,-6.63758 l -7.8e-4,-1.985111 c 0.002,-1.386156 0.008,-2.772316 0.0191,-4.158382 0.0157,-2.120361 0.0137,-4.239545 0.009,-6.359996 0.0288,-10.400878 0.0288,-10.400878 1.547,-13.703462 z"
       fill="#465068"
       id="path7"
       style="fill:#14ae92;fill-opacity:1;stroke-width:0.802198"
       sodipodi:nodetypes="ccccccccccccccc" /><path
       d="m 148.39316,71.790811 c 1.33201,-0.04109 2.6649,-0.03942 3.99695,0 1.24244,1.801708 0.75198,4.373133 0.75871,6.769997 -0.002,0.813039 -0.003,1.626079 -0.004,2.463756 6.5e-4,0.830278 0.002,1.660557 0.002,2.515995 4.6e-4,1.759784 -7.7e-4,3.519568 -0.004,5.279347 -0.004,2.698969 -4e-5,5.397784 0.004,8.096749 -4.4e-4,1.706252 -0.002,3.412495 -0.003,5.118745 0.002,0.81109 0.003,1.62218 0.004,2.45784 -0.016,5.71611 -0.016,5.71611 -0.75872,7.87023 -1.31899,0 -2.638,0 -3.99695,0 -0.84327,-3.66848 -0.76141,-7.11042 -0.75463,-10.93183 -6.5e-4,-0.78465 -0.002,-1.569313 -0.002,-2.377755 -4.6e-4,-1.657278 7.7e-4,-3.31456 0.004,-4.971836 0.004,-2.5419 3e-5,-5.083638 -0.004,-7.625532 4.3e-4,-1.609398 0.002,-3.218796 0.003,-4.828192 -0.002,-0.762763 -0.003,-1.525525 -0.004,-2.311402 0.0157,-5.371963 0.0157,-5.371963 0.7584,-7.526112 z"
       fill="#e9ad3e"
       id="path9"
       style="fill:#fabd3c;fill-opacity:1;stroke-width:0.802198" /><path
       d="m 149.14518,69.636144 c 0.53498,0.01369 1.06996,0.0274 1.62117,0.04151 0.80504,0.0094 0.80504,0.0094 1.62636,0.01887 1.32971,0.162261 1.32971,0.162261 1.99587,1.128276 0.059,2.926814 0.0769,5.831519 0.0651,8.758292 -8e-4,0.877743 -0.002,1.755487 -0.004,2.65983 -0.004,2.815224 -0.0121,5.630376 -0.0206,8.445577 -0.004,1.903729 -0.006,3.80746 -0.009,5.711191 -0.008,4.67728 -0.0189,9.35451 -0.0325,14.03176 -0.43968,0 -0.87933,0 -1.33232,0 0,0.95635 0,1.91271 0,2.89804 -0.85184,0.0598 -1.7037,0.11954 -2.58137,0.18113 -0.71875,0.0504 -0.71875,0.0504 -1.45201,0.10186 -0.42766,-0.0934 -0.85529,-0.18679 -1.2959,-0.28301 -1.75735,-3.8226 -1.52377,-7.13011 -1.50925,-11.56578 -0.002,-0.84899 -0.003,-1.69797 -0.004,-2.572685 -7.9e-4,-1.793711 0.002,-3.587437 0.008,-5.381136 0.008,-2.751955 7e-5,-5.503301 -0.008,-8.255237 8e-4,-1.741471 0.003,-3.482943 0.005,-5.224408 -0.003,-0.826155 -0.005,-1.652308 -0.008,-2.503497 0.0425,-7.736423 0.0425,-7.736423 2.93563,-8.190601 z m -0.75202,2.154667 c -1.06566,3.09066 -0.76065,6.443802 -0.75464,9.837514 -6.3e-4,0.783735 -0.002,1.567472 -0.002,2.37496 -4.6e-4,1.658999 7.8e-4,3.318 0.004,4.976994 0.004,2.539858 3e-5,5.079549 -0.004,7.619402 4.4e-4,1.610655 0.002,3.221307 0.003,4.831959 -0.002,0.76081 -0.003,1.52163 -0.004,2.30549 0.009,3.12716 0.0718,5.63832 0.75872,8.62634 1.319,0 2.63799,0 3.99695,0 1.10668,-3.20965 0.76051,-6.80011 0.75464,-10.32807 6.4e-4,-0.8312 0.002,-1.6624 0.002,-2.518787 4.5e-4,-1.758065 -7.8e-4,-3.51613 -0.004,-5.27419 -0.004,-2.701013 -2e-5,-5.401873 0.004,-8.102882 -4.4e-4,-1.704992 -0.002,-3.409985 -0.003,-5.114977 0.002,-0.813039 0.003,-1.626078 0.004,-2.463756 0.23849,-3.682577 0.23849,-3.682577 -0.75871,-6.769997 -1.33204,-0.03942 -2.66494,-0.04109 -3.99695,0 z"
       fill="#98614c"
       id="path13"
       style="fill:#fabd3c;fill-opacity:1;stroke-width:0.802198" /><path
       d="m 159.71785,79.518938 c 0.87933,0 1.75865,0 2.66463,0 0.83714,2.807245 1.33231,4.633056 1.33231,7.728126 0.43967,0 0.87934,0 1.33233,0 0.39349,11.877128 0.39349,11.877128 -1.99849,16.422276 -1.79029,0.84526 -1.79029,0.84526 -3.33078,0.96601 -0.66123,-2.87659 -0.75205,-4.793784 -0.75464,-7.796051 -7.9e-4,-0.945149 -0.002,-1.890297 -0.003,-2.864085 0.003,-0.984998 0.004,-1.969993 0.008,-2.984839 -0.003,-0.992468 -0.004,-1.984936 -0.008,-3.007479 7.8e-4,-0.942658 0.002,-1.885315 0.003,-2.856539 7.6e-4,-0.866852 0.002,-1.733706 0.003,-2.626827 0.0857,-2.014577 0.0857,-2.014577 0.75191,-2.980592 z"
       fill="#2d7c7b"
       id="path14"
       style="fill:#14ae92;fill-opacity:1;stroke-width:0.802198" /><path
       d="m 146.39467,67.926748 c 1.19305,-0.07812 2.38678,-0.134398 3.5806,-0.181127 l 2.0141,-0.101889 1.73304,0.283013 c 1.39399,3.032167 1.4999,3.733471 1.50472,7.186866 0.004,0.86386 0.008,1.727723 0.0128,2.61776 -0.003,0.929851 -0.005,1.859702 -0.008,2.817729 0.002,0.956195 0.003,1.91239 0.004,2.897561 7.9e-4,2.021109 -0.002,4.042227 -0.008,6.063319 -0.008,3.101766 -7e-5,6.202994 0.008,9.304742 -7.9e-4,1.961598 -0.003,3.923188 -0.005,5.884778 0.003,0.9318 0.005,1.86361 0.008,2.82366 -0.004,0.86081 -0.008,1.72162 -0.0128,2.60853 -0.002,1.13882 -0.002,1.13882 -0.004,2.30066 -0.16786,1.86316 -0.16786,1.86316 -1.50018,3.79519 -1.37133,0.29055 -1.37133,0.29055 -2.95606,0.30188 l -1.57954,0.0491 c -1.83493,-0.44112 -2.31628,-1.15123 -3.4583,-3.24898 -0.2448,-1.98582 -0.2448,-1.98582 -0.23744,-4.28882 l -0.006,-2.61776 0.025,-2.81774 c 0.002,-0.95618 0.003,-1.91237 0.004,-2.89755 0.004,-2.021144 0.0137,-4.04227 0.0275,-6.063324 0.0207,-3.101694 0.0272,-6.202915 0.0312,-9.30474 0.006,-1.961598 0.013,-3.923189 0.0208,-5.884773 l 0.008,-2.823653 c 0.006,-0.860817 0.0129,-1.721634 0.0194,-2.608535 0.004,-0.759222 0.009,-1.518442 0.0138,-2.300669 0.0944,-1.86317 0.0944,-1.86317 0.7606,-3.795202 z m 0,3.864063 c -0.1333,2.876825 -0.18634,5.661866 -0.17694,8.53943 l -0.004,2.569884 c -8e-4,1.795437 0.002,3.590883 0.008,5.386302 0.008,2.749912 7e-5,5.499212 -0.008,8.249105 7.9e-4,1.742728 0.003,3.485458 0.005,5.228178 l -0.008,2.49758 c 0.0212,4.82062 0.0212,4.82062 1.51745,9.0682 1.31731,0.35064 1.31731,0.35064 2.74791,0.18113 l 2.58044,-0.18113 v -2.89804 h 1.33231 c 0.0163,-5.62292 0.0284,-11.245783 0.0367,-16.868727 0.004,-1.914428 0.008,-3.828852 0.0137,-5.743266 0.008,-2.745465 0.0118,-5.490883 0.0147,-8.23637 0.004,-0.861361 0.008,-1.722722 0.0104,-2.610185 1.3e-4,-2.049693 -0.0342,-4.099291 -0.0756,-6.148106 -1.05849,-1.534942 -2.1637,-1.130223 -3.62224,-1.147144 l -1.62117,-0.04151 c -1.56228,0.02787 -1.56228,0.02787 -2.75049,2.154668 z"
       fill="#6e3b53"
       id="path16"
       style="fill:#fabd3c;fill-opacity:1;stroke-width:0.802198"
       sodipodi:nodetypes="ccccccccccccccccccccccccccccccccccccccccccccccccc" /><path
       d="m 139.06692,78.552922 c 0.65952,0.318785 1.31901,0.637571 1.99848,0.966016 0,8.288415 0,16.57683 0,25.116412 -2.66463,-0.96601 -2.66463,-0.96601 -3.8148,-3.05653 -1.65522,-5.34545 -1.47341,-11.968535 -0.41894,-17.584513 0.58357,-2.009352 1.1595,-3.881385 2.23526,-5.441385 z"
       fill="#c1327c"
       id="path17"
       style="fill:#e7388b;fill-opacity:1;stroke-width:0.802198" /><path
       d="m 148.39316,71.790811 c 1.33201,-0.04109 2.6649,-0.03942 3.99695,0 1.24244,1.801708 0.75198,4.373133 0.75871,6.769997 -0.002,0.813039 -0.003,1.626079 -0.004,2.463756 6.5e-4,0.830278 0.002,1.660557 0.002,2.515995 4.6e-4,1.759784 -7.7e-4,3.519568 -0.004,5.279347 -0.004,2.698969 -4e-5,5.397784 0.004,8.096749 -4.4e-4,1.706252 -0.002,3.412495 -0.003,5.118745 0.002,0.81109 0.003,1.62218 0.004,2.45784 -0.016,5.71611 -0.016,5.71611 -0.75872,7.87023 -1.31899,0 -2.638,0 -3.99695,0 -0.84327,-3.66848 -0.76141,-7.11042 -0.75463,-10.93183 -6.5e-4,-0.78465 -0.002,-1.569313 -0.002,-2.377755 -4.6e-4,-1.657278 7.7e-4,-3.31456 0.004,-4.971836 0.004,-2.5419 3e-5,-5.083638 -0.004,-7.625532 4.3e-4,-1.609398 0.002,-3.218796 0.003,-4.828192 -0.002,-0.762763 -0.003,-1.525525 -0.004,-2.311402 0.0157,-5.371963 0.0157,-5.371963 0.7584,-7.526112 z m 0,2.898048 c 0,11.476267 0,22.952535 0,34.776571 1.31898,0 2.63798,0 3.99695,0 0,-11.476271 0,-22.952538 0,-34.776571 -1.31901,0 -2.638,0 -3.99695,0 z"
       fill="#c58c44"
       id="path20"
       style="fill:#fabd3c;fill-opacity:1;stroke-width:0.802198" /><path
       d="m 138.40077,77.586907 c 3.24753,0.845263 3.24753,0.845263 3.99695,1.932031 0.0666,1.920024 0.0871,3.843463 0.0884,5.765906 0.002,1.753942 0.002,1.753942 0.003,3.543317 -0.003,1.231557 -0.004,2.463112 -0.008,3.73199 0.003,1.231557 0.004,2.463114 0.008,3.73199 -8e-4,1.169295 -0.002,2.338589 -0.003,3.543315 -7.5e-4,1.081504 -0.002,2.163014 -0.003,3.277294 -0.0858,2.48861 -0.0858,2.48861 -0.75195,3.45463 -1.10992,0.0393 -2.22088,0.0412 -3.33078,0 -0.43967,-1.91271 -0.87933,-3.82542 -1.33232,-5.7961 0.28853,0.45826 0.57706,0.91652 0.87433,1.38866 1.13952,1.73822 1.13952,1.73822 3.12262,2.47541 -0.21983,-8.288417 -0.43966,-16.576833 -0.66616,-25.116412 -0.87934,0.318786 -1.75865,0.63757 -2.66464,0.966015 0.21984,-0.956354 0.43967,-1.91271 0.66617,-2.898046 z"
       fill="#9b2d6f"
       id="path25"
       style="fill:#e7388b;fill-opacity:1;stroke-width:0.802198" /><path
       d="m 139.06692,80.484953 c 0.43967,0 0.87934,0 1.33233,0 0,7.650845 0,15.30169 0,23.184387 -0.43967,0 -0.87934,0 -1.33233,0 -0.81233,-3.674252 -0.75466,-7.213761 -0.74942,-11.048814 -0.002,-1.253971 -0.004,-2.507943 -0.005,-3.799913 0.0738,-2.927049 0.27997,-5.50039 0.75463,-8.33566 z"
       fill="#de3688"
       id="path29"
       style="fill:#e7388b;fill-opacity:1;stroke-width:0.802198" /><path
       d="m 161.55078,87.241308 c 1.04942,1.423616 3.30478,-6.10935 3.84155,-4.848647 0.6804,1.597973 -2.98812,3.365094 -2.87188,6.061923 l -1.16708,3.622559 1.25034,3.767366 c -0.21858,3.139553 -1.01744,2.994744 -2.0271,4.866401 l 3.80435,1.02639 -0.66617,-1.932027 0.66617,-1.932036 c 0.15155,-1.806998 0.27288,-3.619525 0.37471,-5.433838 l 0.16914,-2.935783 0.12231,-2.256552 h -1.33233 z"
       fill="#484a66"
       id="path32"
       style="fill:#14ae92;fill-opacity:1;stroke-width:0.802198"
       sodipodi:nodetypes="cscccccccccccc" /><path
       d="m 161.05016,81.450969 c 1.33232,1.932032 1.33232,1.932032 1.46243,5.713077 -0.009,1.517062 -0.0248,3.034063 -0.0468,4.550841 -0.006,0.774549 -0.012,1.549097 -0.0182,2.347117 -0.0157,1.914544 -0.0396,3.82894 -0.0651,5.743269 -0.65949,0 -1.31899,0 -1.99847,0 -0.0178,-2.877983 -0.0311,-5.755732 -0.0416,-8.63377 -0.005,-0.821246 -0.0111,-1.642491 -0.017,-2.488622 -0.003,-0.781398 -0.004,-1.562795 -0.006,-2.367872 -0.004,-0.723414 -0.008,-1.446829 -0.0106,-2.192167 0.0754,-1.705856 0.0754,-1.705856 0.74162,-2.671873 z"
       fill="#0ea88f"
       id="path33"
       style="fill:#14ae92;fill-opacity:1;stroke-width:0.802198" /><path
       d="m 136.40229,81.450969 c 0.43967,0 0.87933,0 1.33232,0 -0.10905,0.641306 -0.21812,1.282612 -0.33048,1.943353 -0.40631,3.494189 -0.40759,6.904006 -0.37731,10.433725 0.004,0.669323 0.006,1.338648 0.009,2.028255 0.008,1.638364 0.0198,3.276689 0.0325,4.914978 -0.43968,0 -0.87934,0 -1.33233,0 -1.75761,-4.407011 -1.70456,-8.548608 -1.33232,-13.524216 0.99925,-3.501807 0.99925,-3.501807 1.99849,-5.796095 z"
       fill="#922c6c"
       id="path34"
       style="fill:#e7388b;fill-opacity:1;stroke-width:0.802198" /><path
       d="m 134.40382,81.450969 3.29662,-7.674741 -1.96431,9.969029 c -1.07091,5.629534 -1.11917,11.39116 0,17.026023 h 1.33232 l 0.49929,6.85545 c -2.58137,-0.84526 -3.08066,-5.76867 -3.83009,-6.85545 -0.0656,-1.355782 -0.0871,-2.716243 -0.0884,-4.075374 l -0.003,-2.486736 c 0.003,-0.862962 0.004,-1.725923 0.008,-2.615035 -0.003,-0.862961 -0.004,-1.725924 -0.008,-2.615034 l 0.003,-2.486737 c 7.6e-4,-0.757737 0.002,-1.515474 0.003,-2.296174 0.0858,-1.779204 0.0858,-1.779204 0.75195,-2.745221 z"
       fill="#69265e"
       id="path35"
       style="fill:#e7388b;fill-opacity:1;stroke-width:0.802198"
       sodipodi:nodetypes="cccccccccccccc" /><path
       d="m 160.384,80.484953 c 0.43967,0.318786 0.87933,0.637571 1.33232,0.966016 -0.21982,0.318786 -0.43967,0.637571 -0.66616,0.966017 -0.1038,1.294607 -0.16683,2.596253 -0.21077,3.898023 -0.0279,0.781398 -0.0559,1.562796 -0.0846,2.367872 -0.0262,0.821245 -0.0524,1.642491 -0.0795,2.488622 -0.0288,0.824982 -0.0575,1.649962 -0.0871,2.499944 -0.0709,2.044406 -0.13793,4.089093 -0.20428,6.133826 0.43967,0 0.87933,0 1.33232,0 0,1.275137 0,2.550277 0,3.864067 -0.43966,0 -0.87933,0 -1.33232,0 -0.81176,-2.35434 -0.75225,-3.895703 -0.75464,-6.524388 -7.9e-4,-0.904678 -0.002,-1.809355 -0.003,-2.741447 0.003,-0.947017 0.004,-1.894032 0.008,-2.869746 -0.003,-0.950752 -0.004,-1.901504 -0.008,-2.881066 8e-4,-0.903433 0.002,-1.806866 0.003,-2.737674 7.7e-4,-0.832531 0.002,-1.665061 0.003,-2.52282 0.0858,-1.94123 0.0858,-1.94123 0.75198,-2.907246 z"
       fill="#1d9486"
       id="path44"
       style="fill:#14ae92;fill-opacity:1;stroke-width:0.802198" /><path
       d="m 141.0654,72.756827 c 0,0.637571 0,1.275142 0,1.932032 -0.78315,0.657494 -0.78315,0.657494 -1.58213,1.328272 -1.83099,1.643686 -2.33435,2.579446 -3.08098,5.433838 0.20818,-3.260303 0.20818,-3.260303 0.66616,-6.76211 1.99847,-1.932032 1.99847,-1.932032 3.99695,-1.932032 z"
       fill="#65285c"
       id="path65"
       style="fill:#e7388b;fill-opacity:1;stroke-width:0.802198" /></g></svg>
