<svg xmlns="http://www.w3.org/2000/svg" width="24" height="24"><path fill="#cc071e" fill-rule="evenodd" d="M10.68 3.24c-.32.12-.62.26-.67.31-.05.06-.46 1-.91 2.1l-.85 2.02a20 20 0 0 1-2.1.41c0-.01.38-1.02.86-2.23.49-1.21.88-2.3.89-2.42 0-.18-.06-.23-.24-.23-.13 0-.3.07-.37.16-.08.1-.57 1.25-1.1 2.57l-.97 2.4-1 .27c-.54.15-1.04.3-1.1.34-.2.12-.13.35.16.53.15.1.42.32.6.5s.39.33.46.33q.15-.02-.5 1.76c-.67 1.84-.74 2.2-.48 2.3.3.12.55-.32 1.23-2.2.37-1.02.7-1.9.74-1.92.03-.04.54-.17 1.12-.3.95-.2 1.06-.2 1-.06-.23.55-1.25 3.74-1.25 3.9 0 .1.23.4.5.67.61.6.64.58 1.1-.75.17-.52.6-1.7.92-2.63l.6-1.68.5-.25c.26-.13.48-.28.48-.33s.2-.3.46-.55c.6-.6.56-.8-.12-.86l-.51-.05.78-2.02c.44-1.1.76-2.09.73-2.17-.08-.2-.27-.2-.96.08m9.37-.02c-.33.11-.66.25-.73.31-.26.2-1.89 3.65-2.94 6.22l-.5 1.2.06-1.05c.03-.58.19-2.03.36-3.23.33-2.39.38-3.42.17-3.5a5 5 0 0 0-1.64.56c-.25.25-2.1 5.86-2.98 9.05-.3 1.06-.34 1.36-.25 1.47q.28.31.54-.07c.08-.13.4-1.09.7-2.13a75 75 0 0 1 1.71-5.33c.03.02-.05 1-.16 2.19a30 30 0 0 0-.17 2.96c.04.72.08.86.34 1.18.64.82.62.8.8.7.08-.05.5-.98.93-2.05 1.07-2.68 2.4-5.68 2.4-5.44 0 .06-.15.89-.34 1.85-.57 2.78-1.05 5.7-.97 5.83.17.29 1.03.98 1.15.93.09-.03.48-1.78 1.15-5.08.56-2.77 1.1-5.4 1.2-5.82.14-.68.15-.8.02-.87-.19-.12-.14-.13-.85.12m-10 6.78c-.12.14-.16.3-.13.62.04.37 0 .49-.3.85-.44.55-.53 1.12-.23 1.42.23.23.8.29.99.1q.1-.15.26 0c.26.21.47.06.4-.28q-.05-.3.1-.52a1 1 0 0 0 .16-.42c0-.15-.06-.18-.32-.15q-.64.05-.14-.69c.14-.2.26-.48.26-.6 0-.5-.7-.72-1.05-.33"/></svg>