<svg xmlns="http://www.w3.org/2000/svg" width="24" height="24"><path fill="#382d20" fill-rule="evenodd" d="M3 9v1.9h18V7.1H3zm.1-.05v1.75h.7v-.73c0-.81.16-1.17.54-1.17s.46.19.46 1.07v.83h.7v-.94c0-.52-.04-1.06-.1-1.2-.16-.42-.9-.54-1.3-.2-.24.2-.3.08-.3-.58V7.2h-.7zm5.98-1.67-.28.03v3.39h.7V9c0-.93-.03-1.7-.07-1.72s-.2-.02-.35 0m1.37.16a1 1 0 0 0-.25.5c0 .2-.05.26-.2.26q-.2 0-.2.2.01.21.2.27c.18.05.2.14.2 1.04v.99h.7v-.91c0-.85.02-.93.25-1.15q.46-.42.03-.46c-.32-.04-.29-.3.05-.46.4-.2.32-.46-.15-.5-.3-.03-.43.02-.63.22m7.35.36c0 .33-.02.6-.05.6s-.2-.07-.36-.16c-.38-.2-.79-.11-1.1.21-.27.3-.38 1.2-.19 1.65.26.63.9.88 1.4.53q.25-.18.28-.05c.02.07.19.12.38.12h.34V7.2h-.7zm-11.1.4c-.32.08-.7.4-.7.61 0 .15.67.1.8-.06.16-.2.54-.2.7 0 .21.26.04.4-.61.53q-.64.11-.81.33c-.57.68.44 1.56 1.2 1.04q.2-.15.27-.05c.03.05.22.1.4.1h.35v-1c0-.89-.02-1.01-.22-1.24-.26-.28-.84-.4-1.38-.26m8.93-.02a.6.6 0 0 0-.34.18c-.15.18-.3.18-.23-.01.05-.12-.02-.15-.3-.15h-.36v2.5h.7v-.78c0-.64.04-.82.18-.95.1-.1.25-.17.33-.17.15 0 .43-.57.3-.63h-.28m4.03.04q-.64.19-.66.74c0 .38.2.6.75.77.44.14.54.41.17.46a1 1 0 0 1-.54-.12c-.36-.19-.38-.18-.4.2-.03.25.02.3.37.42.82.27 1.6-.13 1.53-.8-.02-.28-.1-.36-.45-.54a4 4 0 0 0-.64-.27c-.2-.05-.2-.08-.09-.22q.2-.24.8 0c.2.07.46-.4.28-.51-.21-.14-.83-.2-1.12-.13m-7.56.21c-.44.3-.7.82-.7 1.4q0 .5.2.67c.5.52 1.6.3 2.08-.42.37-.56.39-1.4.03-1.68-.34-.28-1.18-.26-1.61.04m.3.52c-.18.19-.24.37-.24.73-.01.45 0 .47.3.5q.55.05.73-.7c.17-.73-.3-1.04-.8-.53m4.47-.03c-.34.48-.09 1.28.39 1.28.13 0 .3-.1.4-.22.33-.48.08-1.28-.4-1.28-.13 0-.3.1-.4.22m-9.71.7c-.38.1-.57.3-.48.51.15.4.79.26.9-.19q.14-.49-.42-.33"/></svg>