<?xml version="1.0" encoding="UTF-8" standalone="no"?>
<svg
   viewBox="0 0 16.097725 3.332041"
   width="16.097725pt"
   height="3.332041pt"
   version="1.1"
   id="svg1"
   xmlns="http://www.w3.org/2000/svg"
   xmlns:svg="http://www.w3.org/2000/svg">
  <defs
     id="defs1" />
  <g
     id="g15469"
     transform="matrix(0.0645717,0,0,0.0645717,-0.0193717,-0.03214458)"
     style="fill:#000000">
    <g
       id="g15467"
       style="fill:#000000">
      <path
         id="path15451"
         d="m 0.3,0.8 h 11.4 v 18.7 h 0.1 c 1.7,-3.7 6.4,-6 10.6,-6 11.6,0 12.5,8.8 12.5,14.1 V 50.9 H 23.5 V 33.3 c 0,-5 0.5,-10 -5.7,-10 -4.3,0 -6.2,3.8 -6.2,7.8 V 50.9 H 0.3 Z"
         class="st0"
         style="fill:#000000" />
      <path
         id="path15453"
         d="m 40.8,25.7 c 0.2,-4.8 2.3,-7.9 5.4,-9.8 3.1,-1.8 7.1,-2.5 11,-2.5 8.2,0 16.2,1.9 16.2,12.2 v 15.9 c 0,3.1 0,6.5 1.3,9.3 H 63.4 c -0.4,-1.1 -0.5,-2.2 -0.7,-3.4 -2.9,3.2 -7.3,4.5 -11.4,4.5 -6.6,0 -11.8,-3.5 -11.8,-11 0,-11.9 12.3,-10.9 20.2,-12.6 1.9,-0.4 3,-1.1 3,-3.4 0,-2.7 -3.1,-3.8 -5.5,-3.8 -3.1,0 -5.1,1.5 -5.7,4.6 z m 14.7,18.8 c 5.4,0 7.2,-3.2 6.9,-10.7 -1.6,1.1 -4.5,1.3 -7,2 -2.5,0.6 -4.7,1.8 -4.7,4.6 0.1,3 2.3,4.1 4.8,4.1"
         class="st0"
         style="fill:#000000" />
      <rect
         id="rect15455"
         height="49.799999"
         width="11.4"
         class="st0"
         y="1"
         x="79"
         style="fill:#000000" />
      <path
         id="path15457"
         d="m 138.3,13.5 c 9.5,0 15.8,5.5 14.7,15.9 -1.3,12.8 -10.1,22.2 -22.7,22.2 -9.6,0 -16.1,-5.1 -15,-15.6 1.3,-12.8 10.4,-22.5 23,-22.5 m -6.9,29.4 c 6.5,0 9.5,-7.5 10.1,-13 0.5,-4.5 -0.7,-7.7 -4.9,-7.7 -6.1,0 -9.4,8.4 -10,13.3 -0.4,4.1 0.8,7.4 4.8,7.4"
         class="st0"
         style="fill:#000000" />
      <path
         id="path15459"
         d="m 117.3,14.3 h -7 v -1.6 c 0,-3.3 1.6,-3.7 4.2,-3.7 1,0 2,0.1 3.1,0.2 V 0.7 C 115.8,0.6 113.9,0.5 112.1,0.5 102.5,0.4 99,3.7 99,14.3 h -5.5 v 7.8 H 99 v 28.7 h 11.4 V 22.1 h 4.2 z"
         class="st0"
         style="fill:#000000" />
      <path
         id="path15461"
         d="m 156.9,43.4 v -29 h 11 v 5.9 h 0.1 c 1.7,-4.4 5.5,-6.8 10.4,-6.8 0.8,0 1.6,0.1 2.4,0.2 l -0.5,1.5 -3,8.3 c -0.2,0 -0.4,0 -0.5,0 -5.6,0 -8.6,3.9 -8.6,8.2 v 19.1 h -11.4 v -7.4 z"
         class="st0"
         style="fill:#000000" />
      <path
         id="path15463"
         d="m 215.5,50.9 h -10.8 v -4.1 h -0.1 c -2.2,3.5 -5.5,5.3 -9.6,5.3 -10.9,0 -15.5,-9.9 -15.5,-20.2 0,-9.5 4.8,-18.6 14.6,-18.6 4.3,0 7.6,1.7 9.9,5 h 0.1 V 0.5 h 11.4 z M 190.9,32.2 c 0,5 1.7,10.6 6.9,10.6 5.5,0 6.7,-5.6 6.7,-10.2 0,-5.3 -1.8,-10.2 -6.7,-10.2 -5.2,0 -6.9,5.2 -6.9,9.8"
         class="st0"
         style="fill:#000000" />
      <path
         id="path15465"
         d="m 234.1,51.5 c -5.8,0 -10.4,-1.6 -14.7,-4.5 l 3.3,-9.3 c 3.6,2.6 8.1,4.5 11.4,4.5 2.8,0 4.1,-1 4.1,-2.5 0,-4.6 -17.1,-1.8 -17.1,-14.1 0,-7.5 6.3,-12.4 14.9,-12.4 4.4,0 9.6,1.7 13.2,3.6 l -3.3,8.8 c -3.6,-2 -7.4,-3.3 -10.4,-3.3 -2.4,0 -3.6,1 -3.6,2.3 0,4.7 17.7,1.8 17.7,14.9 -0.1,7.6 -6.8,12 -15.5,12"
         class="st0"
         style="fill:#000000" />
    </g>
  </g>
</svg>
