<svg xmlns="http://www.w3.org/2000/svg" width="24" height="24"><path fill="#fef7f7" fill-rule="evenodd" d="M3.4 2.25c0 .24.02.25.75.25h.75v2.71l1.13-.03 1.12-.03.03-1.33.03-1.32H8.6v6.9H7.2l-.02-1.47-.03-1.48-1.12-.03L4.9 6.4l-.03 1.43-.03 1.43-.5.03c-.27.01-.6.05-.72.07l-.23.05V16h11.44l-.54-.27c-.78-.4-1.03-.9-.98-2 .03-.71.07-.86.33-1.24.17-.23.48-.51.7-.63a3 3 0 0 1 1.8-.2c.19.08.2.14.12.52l-.08.42-.38-.06c-.74-.12-1.31.42-1.31 1.26 0 .82.48 1.26 1.3 1.18.42-.04.5.06.5.64q.01.29-.23.3c-.12.03.34.06 1.02.07l1.25.01-.5-.25c-.71-.36-.98-.8-1.02-1.7-.05-.87.09-1.34.51-1.82.39-.44.82-.63 1.44-.63 1.02 0 1.62.67 1.7 1.91l.06.69H19.2c-.8 0-1.31.04-1.31.1 0 .05.13.24.28.4.32.37.93.49 1.55.32.35-.1.37-.1.43.16l.1.43c.03.12-.05.2-.33.27l-.38.1.53.01.52.01-.02-6.87c0-3.79-.03-6.67-.05-6.4l-.04.47h-.38c-.47 0-.7.24-.78.8l-.06.4h1.03v1h-1v4h-1.4v-4h-.7v-.5c0-.48 0-.49.33-.52.3-.03.32-.05.38-.54q.17-1.46 1.35-1.73c.25-.06-2.64-.1-7.74-.1L3.4 2zM15 5.75V9.4h1.4V2.1H15zm-4.52-1.29c-.51.16-.53.2-.38.76l.1.37.35-.15c.19-.08.59-.14.88-.14.57 0 .82.15.89.55.03.17-.04.2-.55.26-1.21.13-1.98.67-2.12 1.48-.1.56.02.96.37 1.37.53.6 1.34.67 2.1.19l.36-.24.06.24c.06.23.1.25.69.25h.62l-.02-.78-.06-1.92c-.03-1.38-.23-1.87-.92-2.2a4 4 0 0 0-2.37-.04m.81 2.83c-.33.34-.37.6-.1.91.23.3.65.29.97 0 .19-.19.24-.33.24-.72V7H12a.8.8 0 0 0-.7.3m-7.43 2.77-.37.04v5.79h1.2v-2.07l.66-.06c1.48-.14 2.29-1.17 1.94-2.49-.29-1.05-1.34-1.42-3.42-1.2m7.22.32c0 .2.41.5.7.5s.7-.3.7-.5c0-.06-.3-.1-.7-.1s-.7.04-.7.1m-6.27.57q-.14.03-.13.93c0 .98.03 1.03.68.89.64-.14.92-.66.7-1.3-.15-.43-.81-.7-1.25-.52m4.84.83a1 1 0 0 0-.32.42q-.07.24-.16.07a1 1 0 0 1-.09-.36c0-.2-.05-.23-.5-.23h-.5v4.2h1.2v-1.15c0-1.5.11-1.8.74-1.97l.46-.12v-.53c0-.52 0-.53-.29-.53-.15 0-.4.1-.54.2m1.53 2v2.1h1.2v-4.2h-1.2zm7.07-1.22c-.08.1-.2.3-.26.45-.13.35-.04.4.75.35.59-.03.59-.03.57-.33-.04-.55-.72-.85-1.06-.47"/></svg>