<svg xmlns="http://www.w3.org/2000/svg" width="24" height="24"><path fill="#ed920c" fill-rule="evenodd" d="M10.97 7.05q-.77.16-.77.72 0 .24-.2.23c-.16 0-.2.07-.2.3s.04.3.2.3c.19 0 .2.07.2 1.05v1.05h.4c.22 0 .4-.03.41-.07l.03-1.03c.01-.79.04-.95.18-.98.09-.02.19-.13.22-.25.09-.34.08-.37-.14-.37q-.18-.02-.2-.15.01-.15.25-.15c.2 0 .25-.05.25-.27 0-.45-.1-.5-.63-.38m6.73.55c0 .57-.01.6-.2.5a1.3 1.3 0 0 0-1 0c-.31.17-.52.68-.51 1.26q0 .97.6 1.29c.38.19.6.19.88 0q.21-.15.28-.05c.03.05.24.1.46.1h.4l-.03-1.82-.03-1.83-.43-.03-.42-.03zM3.1 8.9v1.8H4v-.8c0-.87.1-1.2.38-1.2.34 0 .42.21.42 1.13v.88l.43-.03.42-.03.03-.7C5.75 8.52 5.51 8 4.82 8c-.2 0-.48.07-.6.16L4 8.3V7.1h-.9zm5.7 0v1.8h.8V7.1h-.8zm-2.44-.68a1 1 0 0 0-.28.43c-.02.16.04.2.32.23q.34.04.46-.13c.15-.2.69-.17.69.05q-.01.15-.4.23c-.99.2-1.4.66-1.13 1.24.07.15.27.34.43.42.26.12.35.12.72-.01.24-.09.43-.12.43-.07s.2.09.46.09c.38 0 .45-.03.4-.16a7 7 0 0 1-.06-1.1c0-.87-.02-.97-.25-1.2-.2-.2-.33-.24-.89-.24-.53 0-.7.04-.9.22m5.84 0c-.7.48-1.02 1.3-.76 1.92.18.43.42.56 1.04.56q.95 0 1.4-.9c.5-.99.11-1.8-.86-1.8q-.5 0-.82.22m2.14-.09c-.02.07-.03.67-.02 1.33l.03 1.19.42.03.42.03.03-.88c.03-.88.03-.88.35-1.03q.31-.15.41-.47c.1-.32.09-.33-.17-.33a1 1 0 0 0-.4.13q-.13.15-.18 0c-.06-.17-.82-.17-.89 0m4.85.16c-.5.51-.31 1.08.45 1.34.22.08.42.19.44.25.05.17-.43.15-.78-.03-.28-.14-.28-.14-.4.17-.15.46.04.61.85.66.6.04.66.03.95-.26.52-.52.33-1.09-.44-1.35-.22-.08-.42-.19-.44-.25-.05-.15.42-.16.69-.02.17.1.21.06.34-.22.13-.32.13-.33-.13-.45a2 2 0 0 0-.75-.13c-.4 0-.53.05-.78.3m-6.64.54c-.5.5-.4 1.34.13 1.2.44-.12.73-1.24.36-1.38-.22-.09-.22-.09-.49.18m4.35.05c-.26.5-.04 1.11.4 1.11q.26 0 .34-.16c.1-.27.07-.9-.06-1.02-.18-.18-.56-.14-.68.07m-9.67.68c-.28.05-.47.29-.4.48.07.16.34.2.54.07.14-.09.29-.63.17-.6z"/></svg>