<?xml version="1.0" encoding="UTF-8" standalone="no"?>
<svg
   viewBox="0 0 24 24"
   width="24pt"
   height="24pt"
   version="1.1"
   id="svg7073"
   xml:space="preserve"
   xmlns="http://www.w3.org/2000/svg"
   xmlns:svg="http://www.w3.org/2000/svg"><defs
     id="defs7077" /><g
     id="g7231"
     transform="matrix(0.10152947,0,0,0.10152947,-85.568994,-31.639087)"><g
       id="g7235"
       transform="matrix(0.16889946,0,0,0.16889946,893.15502,338.2898)"><path
         fill="#d6cb00"
         opacity="1"
         stroke="none"
         d="m 498.92819,44.081848 c -4.10446,-1.732727 -8.20892,-3.465454 -12.31338,-5.198181 0.46539,-0.377361 0.93081,-0.754723 1.39624,-1.132084 5.24447,6.164921 10.91497,12.02515 15.60663,18.585434 4.20428,5.878807 9.34192,11.067082 9.79168,19.535778 0.37238,7.012161 6.56415,10.272087 13.8039,11.230766 6.28137,0.83178 7.22949,3.617989 4.96136,9.65139 -0.55859,1.485726 -0.54114,3.967379 0.34876,5.088629 4.88,6.14874 5.00152,6.05231 -1.21039,12.41812 -0.60742,0.78891 -0.76813,1.12878 -0.9289,1.46865 0.5719,-0.20773 1.1438,-0.41546 1.7157,-0.62321 6.1015,-0.1471 6.37195,0.48757 7.02759,6.12262 0.49817,4.28171 2.00733,8.47608 3.33801,12.6222 1.35315,4.21609 -0.0225,7.50662 -3.49023,9.57054 -6.84278,4.07275 -13.8169,7.96346 -20.95246,11.49326 -5.46905,2.70539 -9.32727,5.96174 -8.04852,12.74296 0.14997,0.79523 0.0993,1.69087 -0.0989,2.47951 -1.95819,7.79176 -2.13952,8.18614 5.12214,11.231 10.33227,4.33243 13.41876,14.00363 18.04248,22.67311 2.34326,4.39359 4.34466,9.20911 7.63781,12.7873 3.12262,3.39288 2.42798,5.23196 -0.74981,7.75535 16.03234,11.94492 31.99255,23.71477 47.80487,35.68009 5.86969,4.44162 11.5213,9.19598 17.0379,14.07287 5.67871,5.0202 13.00037,5.73596 19.7309,7.47516 19.93292,5.15079 40.06652,9.52478 60.12115,14.20493 6.66852,1.55624 15.13074,0.51236 22.38635,-0.29639 8.72132,-0.97214 18.1908,-3.67685 25.66205,4.30752 0.91266,0.97538 2.52698,1.40384 3.89661,1.8219 4.33734,1.32386 4.3836,3.65809 1.70056,6.7006 6.24713,4.73758 6.66894,8.62884 1.42352,12.69851 0.69135,4.69333 0.56372,8.87268 -5.5097,9.87766 -0.68707,0.11371 -1.55792,1.2529 -1.71857,2.04358 -0.71643,3.52511 -2.96387,4.78753 -6.29742,4.87082 -0.70124,0.0175 -1.87983,0.38436 -2.01056,0.83209 -1.7558,6.01178 -5.95612,4.68603 -9.87708,3.14847 -10.01776,-3.92841 -19.94281,-8.09311 -29.96203,-12.18659 -0.68518,3.74997 -1.91388,8.14557 -2.19403,12.60083 -0.3443,5.47501 -3.92713,5.06989 -7.27955,4.39298 -5.22937,-1.05585 -10.37774,-2.57874 -15.49047,-4.13379 -19.83454,-6.03256 -39.64893,-12.13175 -59.45557,-18.25559 -9.94806,-3.07574 -18.30097,-8.93643 -26.30579,-15.36071 -2.77044,-2.22342 -5.48907,-4.51145 -9.45825,-7.78043 2.47058,6.49542 4.10498,11.73776 6.40222,16.67151 10.89661,23.40222 21.82788,46.79086 33.06476,70.03061 4.02258,8.31936 9.03919,16.15283 13.41303,24.30939 3.01471,5.62197 2.64373,7.17565 -2.57337,10.51547 -4.50909,2.88653 -9.15576,5.61511 -13.96277,7.95993 -3.32995,1.62433 -3.828,3.22863 -1.92566,6.37039 12.01764,19.84747 23.46906,40.05423 36.00727,59.56406 7.9732,12.40661 17.5802,23.7565 26.27106,35.71353 2.08386,2.867 4.2882,6.09649 4.95245,9.45306 1.4447,7.29974 6.13952,12.42615 10.47601,17.78754 12.25256,15.1485 25.13263,29.81372 36.81934,45.37976 3.2832,4.37298 6.00653,9.35199 10.34204,12.58026 3.98035,2.96374 8.97125,4.57031 13.56293,6.79712 5.20044,-11.64594 18.50311,-13.02472 28.40814,-3.69751 9.74414,-4.98285 19.31579,-10.62018 29.49695,-14.75751 4.79589,-1.94891 10.79394,-1.53106 16.18743,-1.20282 3.40143,0.20709 4.75324,3.34326 3.67402,6.78247 -4.50196,14.34772 -11.03766,27.55786 -20.19355,39.65796 -5.84625,7.72638 -13.51062,12.08746 -21.90258,15.81653 -3.39747,1.50964 -5.34894,3.68866 -4.66193,7.63 0.64392,3.6941 -1.08105,6.14191 -4.16425,7.97156 -4.32275,2.56537 -8.49163,5.39655 -12.86578,7.86713 -6.19568,3.49939 -13.95392,1.84747 -18.11707,-6.73688 -0.62109,-1.28076 -1.93414,-2.23102 -2.94628,-3.31628 -4.89014,-5.24347 -9.93061,-10.35767 -14.59101,-15.79761 -1.34357,-1.56836 -1.08276,-4.54071 -2.45843,-6.04602 -3.24274,-3.5481 -6.88184,-6.78101 -10.62702,-9.81219 -5.95147,-4.8169 -12.12011,-9.36542 -18.45996,-14.22931 -8.9798,9.25262 -14.73999,21.93701 -29.68909,24.11987 -6.75366,-9.74298 -13.61956,-20.17108 -21.02325,-30.20233 -10.3465,-14.01844 -20.79309,-27.98645 -31.8064,-41.47852 -4.97247,-6.09173 -11.73669,-10.68445 -17.12567,-16.4801 -12.54156,-13.48792 -24.78149,-27.25763 -37.0664,-40.9823 -8.20246,-9.1637 -16.27198,-18.44632 -24.86719,-28.20508 -4.46655,4.83347 -8.84351,9.21549 -12.81137,13.94092 -7.23844,8.62042 -14.50525,17.24066 -21.26703,26.23181 -9.77008,12.99139 -19.32053,26.16345 -28.47278,39.59363 -2.44849,3.59302 -2.64127,8.64465 -4.67792,12.61163 -5.90936,11.51026 -12.28671,22.77911 -18.37451,34.1991 -9.4797,17.7829 -18.86377,35.6167 -28.30807,53.41852 -2.02405,3.81506 -7.27487,4.99334 -14.07154,3.32006 -5.03357,-1.23925 -10.06973,-2.47943 -15.13894,-3.55847 -3.23529,-0.68866 -3.87021,1.58045 -3.98105,4.06635 -0.0943,2.11499 -0.0195,4.23749 -0.0195,6.45117 12.68664,1.93427 19.58523,14.9281 11.5813,24.45654 -3.39173,4.03772 -4.08622,7.62677 -3.44287,11.79224 0.38101,2.46692 2.20321,5.58844 4.29986,6.74878 6.29465,3.48358 13.44495,5.83929 17.50781,12.15619 2.08088,3.23529 3.29752,7.35333 3.74271,11.20666 0.33435,2.89405 -1.87668,5.67798 -5.2818,5.76191 -10.50156,0.25884 -21.00986,0.25591 -31.51572,0.32171 -5.19015,0.0325 -10.38055,-0.33527 -13.5018,-5.26013 -1.81216,-2.85944 -3.26321,-6.026 -4.38989,-9.22571 -2.53436,-7.19769 -7.01981,-13.02002 -12.89249,-17.55389 -1.94302,-1.50006 -5.49066,-1.70105 -8.14019,-1.32801 -4.20178,0.59156 -7.7811,0.44379 -10.78684,-2.91497 -3.7431,-4.18287 -7.74499,-8.14417 -11.33465,-12.45148 -3.69171,-4.42981 -0.98542,-14.5044 4.1492,-17.47113 1.35849,-0.78497 2.19458,-2.6864 2.97403,-4.22528 3.85339,-7.60785 8.47268,-14.39533 16.1452,-18.87805 1.91199,-1.11707 2.44763,-4.45606 3.83905,-6.63111 1.84122,-2.87823 0.092,-3.87207 -1.74371,-5.90436 -1.28214,-1.41937 -1.0514,-5.48016 0.037,-7.55792 6.78492,-12.95227 14.26062,-25.54407 20.99063,-38.52325 4.96879,-9.58246 9.10965,-19.59229 13.71976,-29.36432 0.96833,-2.05255 2.03824,-4.2514 3.63843,-5.77789 7.01062,-6.68769 9.07016,-15.99097 12.8757,-24.28492 6.47223,-14.10595 12.09616,-28.59967 18.15616,-42.8966 5.94217,-14.01898 11.98361,-27.99585 17.98038,-41.98859 -0.17368,-0.27924 -0.25305,-0.58786 -0.43784,-0.67624 -2.0086,-0.96118 -5.47052,-1.55585 -5.77832,-2.88775 -0.84131,-3.64045 -0.61764,-7.60743 -0.33111,-11.40854 0.3927,-5.2092 1.34045,-10.3739 1.85916,-15.57676 1.38238,-13.86523 2.70889,-27.73651 3.95996,-41.61419 0.48736,-5.40619 0.80118,-10.83209 1.03866,-16.25583 0.40543,-9.25974 0.60794,-18.52872 1.05472,-27.78613 0.24069,-4.98685 0.81168,-9.95777 0.62613,-15.12104 -10.28546,14.92374 -23.71548,27.38031 -30.9884,44.20401 -4.69095,10.85111 -9.73346,21.55091 -14.68054,32.28986 -0.87284,1.89468 -2.10932,3.61829 -3.07853,5.47281 -2.15939,4.1319 -4.35989,4.70764 -8.09442,1.81381 -4.22281,-3.27225 -8.33664,-6.68521 -12.92901,-10.38425 -1.35376,5.30469 -4.0835,9.73731 -2.00357,15.34226 3.71289,10.0054 -2.1009,17.28409 -7.97382,24.27893 -2.25232,2.68256 -4.23654,6.26816 -9.13419,3.8035 -1.05679,-0.53186 -3.6781,1.57513 -5.33419,2.79785 -3.97367,2.93371 -6.51508,2.75412 -9.73978,-0.87781 -0.77756,-0.8757 -1.71619,-1.93713 -2.75763,-2.1929 -4.51248,-1.10831 -8.19669,-2.68863 -6.98132,-8.45715 0.0621,-0.29499 -0.0553,-0.89594 -0.18515,-0.92493 -7.65937,-1.7121 -3.42893,-9.20075 -6.24085,-13.4679 -1.21667,-1.84634 0.31235,-7.16339 2.32556,-9.14355 4.72315,-4.64554 10.92752,-7.77478 15.71027,-12.37283 4.65451,-4.47477 8.28598,-10.01365 12.70761,-15.50913 -6.80646,-7.66309 0.4877,-12.87906 3.74991,-18.54971 10.92245,-18.98633 23.39902,-37.16678 33.12884,-56.72617 9.65625,-19.41153 20.94745,-37.64306 33.06134,-55.4639 3.2822,-4.82839 7.25065,-9.28411 11.41205,-13.39691 5.03165,-4.97282 4.62864,-11.62237 6.27295,-17.60318 2.27292,-8.26733 4.00131,-16.68493 5.92356,-25.04722 0.18167,-0.79045 0.36547,-1.76653 0.0715,-2.45186 -3.43979,-8.01784 -5.7219,-16.95255 -10.87332,-23.68289 -4.1186,-5.38091 -11.75708,-8.06763 -18.56711,-12.41903 0.27496,2.70856 0.41244,4.0626 0.65393,6.44123 -3.52539,-4.90268 -6.46741,-8.99411 -10.2847,-14.30278 0.87653,3.81273 1.42261,6.18802 1.96869,8.56331 -0.17911,0.073 -0.35822,0.14602 -0.53732,0.21904 -2.76801,-4.85855 -5.27753,-9.89138 -8.39454,-14.51465 -2.09313,-3.10471 -4.63699,-6.32283 -7.76037,-8.1678 -2.05356,-1.21305 -5.50495,-0.16185 -8.3179,0.0451 -2.2666,0.16673 -4.51563,0.85069 -6.77051,0.84134 -4.7749,-0.0198 -6.66934,-2.17856 -7.0466,-6.92201 -0.72195,-9.0773 2.55463,-16.96241 7.02594,-24.50816 2.4223,-4.08783 4.23785,-8.24368 2.71356,-13.1165 -13.12039,0.0786 -25.37891,9.17734 -29.33594,26.60337 -4.93213,0 -9.93048,0.12171 -14.92092,-0.0252 -10.48893,-0.30887 -14.84168,-8.31982 -10.77323,-18.12966 5.90433,-14.23654 16.18543,-22.997103 31.7898,-24.844027 3.94992,-0.467499 7.92532,-0.719315 11.33963,-1.021599 -1.18921,-7.596092 -3.69864,-15.983162 -3.57154,-24.330101 0.30896,-20.293156 12.81949,-39.211123 32.84006,-46.24622 18.41495,-6.470898 36.67453,-5.479589 54.33206,1.9993 6.39795,2.709862 8.66431,-2.12379 12.62436,-4.0027 6.19928,-2.941354 12.08234,-6.683861 18.48932,-9.015467 6.61316,-2.406663 12.41574,2.557727 12.4722,9.709776 0.0197,2.499658 0.0653,5.001612 -0.0153,7.498825 -0.0724,2.240969 -0.30167,4.476873 -0.45853,6.670219 4.40354,0.389733 9.18662,0.813055 13.9697,1.23638 -0.0342,0.399727 -0.0684,0.799457 -0.10266,1.199184 -3.54972,0 -7.09946,0 -10.14572,0 5.60595,3.008087 11.30691,6.067128 17.04001,9.568215 -0.0971,0.566013 -0.22642,0.689983 -0.35569,0.813953 z"
         id="path7213" /><path
         fill="#d6cb00"
         opacity="1"
         stroke="none"
         d="m 255.93159,424.05325 c 0.46331,6.14411 -4.35903,7.74512 -7.95643,9.80783 -7.23146,4.14643 -12.36591,9.73069 -15.03188,17.68198 -0.64103,1.91202 -2.02948,3.62616 -3.28447,5.27084 -6.70915,8.79273 -14.26655,17.06162 -19.95605,26.46442 -3.64285,6.02039 -5.16622,13.56781 -6.58096,20.64236 -3.24012,16.20249 1.45681,31.72922 5.51667,47.13297 3.59322,13.63336 9.43499,26.35095 16.19838,38.83337 10.94116,20.19281 8.06079,43.19953 -7.21429,60.96167 -8.99239,10.45649 -18.20859,20.72138 -27.14083,31.22821 -2.923,3.4383 -3.77395,7.28083 -2.72203,12.20075 1.99358,9.3241 -4.32322,15.1203 -10.56926,20.75622 -3.57577,3.22651 -9.47459,4.60712 -9.5164,10.88691 -0.0559,8.40197 2.15318,16.42199 6.75284,23.22754 1.47905,2.18841 6.55275,1.86242 9.92526,2.87542 5.25267,1.57776 10.47228,3.27167 15.66547,5.03534 0.79687,0.27057 1.37753,1.1778 1.71423,3.03632 -3.43257,-0.56989 -6.86514,-1.13983 -10.75114,-1.78504 1.55914,1.30719 2.82953,2.37226 4.0999,3.43732 -0.0716,0.4375 -0.14316,0.87506 -0.21476,1.31256 -6.52244,-0.35986 -13.04489,-0.71979 -19.91577,-1.09888 0.41129,2.1424 0.73207,3.81336 1.25034,6.51307 -1.77554,-0.73829 -3.00562,-0.94104 -3.8085,-1.63672 -3.60912,-3.12726 -7.45255,-6.10205 -10.45491,-9.75391 -1.21567,-1.4787 -0.53463,-4.54254 -0.65772,-6.88812 -0.22642,-4.31494 -0.002,-8.70325 -0.73791,-12.92621 -0.59841,-3.43292 -2.74723,-6.58289 -3.44936,-10.01367 -0.9068,-4.43073 -4.23947,-4.26624 -6.94518,-3.69483 -7.27014,1.53528 -14.53363,3.33234 -21.55725,5.7345 -6.01613,2.05762 -8.46009,7.6261 -9.43902,13.3617 -0.74408,4.35955 1.70938,7.57464 5.73341,9.86981 6.14552,3.50531 12.01029,7.5028 18.29633,11.48254 -0.53444,0.38959 -0.94701,0.87463 -1.46157,1.03754 -7.01628,2.22119 -14.03026,4.74469 -21.45098,4.76239 -2.08969,0.005 -4.65127,-1.71741 -6.18299,-3.39166 -3.54787,-3.87812 -7.86811,-6.00782 -12.64942,-7.88544 -1.912871,-0.75116 -3.519561,-3.45892 -4.303298,-5.62439 -1.095322,-3.02619 1.700416,-3.40204 3.836868,-4.45471 6.26735,-3.08808 8.95133,-9.25855 11.79372,-15.12085 0.33912,-0.69953 -0.59576,-2.54016 -1.44597,-3.19501 -2.55321,-1.96625 -5.17719,-4.03192 -8.10673,-5.27136 -3.953697,-1.67267 -8.380088,-4.05591 -12.319816,-3.61243 -15.77076,1.77496 -25.340164,-6.67163 -33.99836,-18.05914 -3.853275,-5.06799 -8.809425,-9.43415 -13.787392,-13.47534 -6.124061,-4.9715 -12.793636,-9.27118 -19.113084,-13.77961 1.380293,-0.37518 3.356807,-0.91235 5.64909,-1.5354 -4.948658,-1.42492 -9.611792,-2.7677 -14.274928,-4.11041 0.0746,-0.3598 0.149205,-0.71954 0.223807,-1.07935 4.20141,0 8.402822,0 13.432682,0 -1.545174,-2.01336 -2.63543,-3.43395 -4.40621,-5.74133 5.22661,1.69147 9.469238,3.06446 14.016247,4.53595 -0.43726,-1.40918 -0.791981,-2.55237 -1.300492,-4.19116 11.463673,5.22437 20.284611,0.77411 27.699227,-7.43091 10.812606,-11.96527 22.222313,-23.10565 35.873619,-31.94147 16.7456,-10.83862 34.56879,-18.87524 53.98577,-23.51641 5.90411,-1.4112 11.90894,-3.08686 17.25557,-5.83295 2.39523,-1.23029 4.53279,-5.35315 4.63229,-8.23761 0.3786,-10.97553 -0.0545,-21.8299 -2.35778,-32.83582 -1.97663,-9.44519 -0.51626,-19.62713 -0.43415,-29.48211 0.18497,-22.19922 7.1438,-43.26404 10.96041,-64.85633 1.12786,-6.38082 1.23182,-13.07058 3.25714,-19.13369 2.76216,-8.26895 7.76194,-15.84058 16.87926,-17.80262 5.13093,-1.10412 10.87271,0.53156 16.32659,1.06324 3.40351,0.33181 6.79644,1.37396 10.17113,1.27914 8.10719,-0.22781 16.20085,-0.93777 24.35104,-1.03702 z"
         id="path7215" /></g><path
       fill="#d6cb00"
       opacity="1"
       stroke="none"
       d="m 499.51211,43.526283 c 0.89057,0.468846 1.58503,1.121346 2.27948,1.773846 -0.13406,0.226482 -0.26812,0.452969 -0.40216,0.679451 -0.73953,-0.435104 -1.47906,-0.870209 -2.33993,-1.601521 0.008,-0.420181 0.13724,-0.544151 0.46261,-0.851776 z"
       id="path7217" /><path
       fill="#000000"
       opacity="1"
       stroke="none"
       d="m 531.90259,114.91076 c -0.3747,0.40413 -0.9466,0.61186 -1.5185,0.81959 0.16077,-0.33987 0.32148,-0.67974 0.7016,-1.21117 0.35273,-0.0627 0.48615,0.0663 0.8169,0.39158 z"
       id="path7219" /></g></svg>
