<?xml version="1.0" encoding="UTF-8" standalone="no"?>
<svg
   viewBox="0 0 24 24"
   width="24pt"
   height="24pt"
   version="1.1"
   id="svg1"
   xmlns="http://www.w3.org/2000/svg"
   xmlns:svg="http://www.w3.org/2000/svg">
  <defs
     id="defs1" />
  <path
     d="M 11.466105,2.8905979 C 10.030413,3.0748704 8.70864,3.8129599 7.9109364,4.8759125 7.6138975,5.271667 7.3326798,5.7550163 7.3592351,5.8242144 7.3915641,5.9084996 8.4435471,6.1188651 8.8297958,6.1182883 8.9724632,6.1180931 8.9935935,6.1033558 9.1184419,5.9170051 9.5425223,5.2840212 10.321177,4.7312814 11.147131,4.476964 c 0.313201,-0.096407 0.388057,-0.1041057 1.011728,-0.1037591 0.739897,4.261e-4 0.972778,0.04295 1.549342,0.2829513 0.914394,0.3806679 1.72657,1.2467244 2.044698,2.1803632 l 0.0575,0.1687238 h -0.185851 -0.18581 L 15.245073,6.6107584 C 14.906316,5.920584 14.379709,5.3981717 13.684954,5.063033 13.125557,4.7932054 12.933548,4.7537187 12.197344,4.7571056 11.623745,4.7598227 11.529608,4.7700344 11.224104,4.8630197 10.090721,5.208049 9.2701932,6.0278454 8.9475628,7.1376355 L 8.8843687,7.3550837 8.6454072,7.3307976 C 8.2660095,7.292273 7.7718466,7.2044094 7.4613011,7.1202782 6.932807,6.9770708 6.9726786,6.9734917 6.9437358,7.1665005 c -0.013973,0.093329 -0.019671,0.3989482 -0.012573,0.6792047 0.0099,0.393369 0.025557,0.5173722 0.068659,0.5439274 0.030671,0.018942 0.2038614,0.06154 0.3848633,0.094599 1.5175889,0.2775633 2.7531919,0.3057351 4.3508329,0.099257 1.131111,-0.1462105 2.165738,-0.2022456 3.329063,-0.1802695 1.107481,0.020897 1.335436,0.046299 1.982775,0.2209866 0.17084,0.046069 0.318628,0.075781 0.328403,0.066004 0.0098,-0.00978 0.03449,-0.1461334 0.05484,-0.3029646 C 17.747732,5.9437523 16.159441,3.6807209 13.679078,3.0420025 12.968468,2.8590004 12.149017,2.8029259 11.466115,2.8905974 m 0.234767,3.3852531 c -0.338563,0.088672 -0.573021,0.2189101 -0.796819,0.4427463 -0.152521,0.152521 -0.361617,0.4973197 -0.361617,0.5963068 0,0.048455 0.177536,0.035675 1.116102,-0.080359 C 11.986643,7.1939786 12.565746,7.1253974 12.945491,7.082177 13.325196,7.038918 13.645594,6.993735 13.657487,6.9816888 13.700368,6.9383149 13.165093,6.4747092 12.962654,6.3798789 12.546734,6.1851 12.16699,6.1538106 11.700882,6.2758512 m 2.209112,2.5016474 C 13.655985,8.7964612 13.119102,8.8468105 12.71692,8.8893392 9.7719505,9.20073 8.6133976,9.1931493 7.3110619,8.8538928 7.1531133,8.8127516 7.0182965,8.7846936 7.0114458,8.7915444 c -0.041216,0.041221 0.1660304,0.4515599 0.2882996,0.5707525 0.3819773,0.3723928 1.290445,0.5939955 2.7947586,0.6817451 0.875985,0.05111 3.347383,0.05123 4.200353,2.04e-4 1.168522,-0.069848 2.112436,-0.2525861 2.520852,-0.4879677 0.167376,-0.096448 0.461835,-0.3691603 0.461835,-0.4276982 0,-0.039026 -0.67224,-0.221451 -1.096859,-0.2976915 C 15.763802,8.75607 14.571534,8.7280134 13.909993,8.7774698"
     stroke="none"
     fill="#e23222"
     fill-rule="evenodd"
     id="path1-5"
     style="stroke-width:0.0384863" />
  <path
     d="M 11.635435,2.2200902 C 10.626517,2.3196545 9.5206143,2.7327659 8.6829987,3.3229528 7.9585703,3.8333579 7.2510017,4.6611593 6.8851894,5.4262278 6.7223531,5.7667542 6.715271,5.8891795 6.8437386,6.1424188 c 0.052843,0.1041057 0.09614,0.1914694 0.096217,0.1941249 7.69e-5,0.00268 -0.049609,0.014778 -0.1104171,0.026939 -0.1464398,0.02929 -0.337756,0.2253757 -0.3929067,0.402797 -0.065736,0.2114437 -0.092021,1.433153 -0.037831,1.7581301 0.09125,0.5473143 0.1253501,0.6770509 0.2363436,0.8991549 0.3600783,0.7205793 1.250805,1.0806173 3.0759776,1.2434153 0.31882,0.02845 1.307686,0.04745 2.559338,0.04927 1.121875,0.0016 1.961838,0.0076 1.866584,0.01309 -0.362196,0.0212 -0.346376,0.0018 -0.346376,0.423464 v 0.374472 l -0.233807,-0.237458 c -0.25828,-0.262322 -0.407954,-0.348954 -0.657845,-0.380821 -0.09168,-0.0117 -0.564132,0.02198 -1.049829,0.07486 -0.485734,0.05288 -0.893805,0.08956 -0.906852,0.08148 -0.05246,-0.03241 -2.244096,0.207939 -2.2694201,0.24889 -0.016365,0.02647 -0.2475438,0.05354 -0.6006559,0.07035 l -0.5740988,0.02736 -0.031098,0.537809 c -0.017077,0.295806 -0.037368,0.544118 -0.045065,0.551815 -0.00766,0.0077 -0.1192678,0.02351 -0.2479274,0.03521 l -0.2339581,0.02122 V 12.033064 11.50815 l -0.1443245,1.54e-4 c -0.079358,7.8e-5 -0.4214253,0.02586 -0.7601035,0.05726 -0.3386787,0.0314 -0.6460681,0.05734 -0.6831308,0.05758 -0.063233,4.05e-4 -0.067351,0.116227 -0.067351,1.888869 0,1.780182 0.00384,1.887328 0.067351,1.869162 0.037063,-0.01058 0.3487235,-0.04103 0.6925977,-0.06758 0.3438764,-0.02655 0.641067,-0.05808 0.6603862,-0.07001 0.019325,-0.01193 0.058345,-0.28126 0.086748,-0.598501 l 0.051609,-0.576793 0.2079424,-0.02979 c 0.1143433,-0.01639 0.2137525,-0.02402 0.2208346,-0.01689 0.00712,0.007 3.83e-5,0.268787 -0.015654,0.581527 l -0.028596,0.568635 0.1733821,-0.0214 c 0.095329,-0.01175 0.3898263,-0.0403 0.6544201,-0.06346 0.2645938,-0.02314 0.6282882,-0.05853 0.8082112,-0.07871 0.1799246,-0.02012 0.6601164,-0.05696 1.0670709,-0.08183 l 0.7399759,-0.04522 0.07481,-0.214408 0.07486,-0.214408 0.0031,0.187198 0.0031,0.187159 0.163567,-0.02201 c 0.08994,-0.01208 0.391406,-0.0426 0.669854,-0.06782 l 0.506287,-0.04587 0.0229,-0.114494 c 0.01258,-0.06301 0.0229,-0.172997 0.0229,-0.244427 0,-0.07143 0.01731,-0.129891 0.03848,-0.129891 0.02117,0 0.03853,0.01298 0.03856,0.02887 4e-5,0.01589 0.09094,0.127542 0.202054,0.248158 l 0.201976,0.219333 0.365621,-0.112959 c 0.39306,-0.121461 0.486658,-0.135472 0.506748,-0.07597 0.01278,0.0379 1.501581,-0.09102 1.574935,-0.136358 0.01929,-0.01192 0.03507,-0.261167 0.03507,-0.553855 v -0.532198 l 0.577294,-0.02795 c 0.31751,-0.01538 0.576947,-0.03898 0.576524,-0.05246 -3.85e-4,-0.01346 -0.02621,-0.24966 -0.05735,-0.524837 -0.03109,-0.275177 -0.05676,-0.558859 -0.05697,-0.630442 -3.85e-4,-0.126816 0.0029,-0.129586 0.132009,-0.10861 0.114692,0.0186 0.133971,0.01023 0.144323,-0.06235 0.0077,-0.05391 0.07836,0.07643 0.198243,0.365735 l 0.186351,0.44952 -0.342798,0.782042 c -0.315587,0.72 -0.336447,0.782849 -0.263285,0.792162 0.136781,0.01748 1.525711,-0.132355 1.560772,-0.168339 0.03117,-0.03198 1.462903,-3.758955 1.462903,-3.808103 0,-0.0222 -0.679206,0.0043 -1.138886,0.04433 l -0.234458,0.02043 -0.08859,0.21891 c -0.04873,0.120386 -0.101913,0.233805 -0.118192,0.252086 -0.01628,0.01827 -0.06027,-0.064 -0.09771,-0.182811 l -0.06808,-0.216021 -0.156563,7.96e-4 c -0.08609,4.05e-4 -0.270635,0.01728 -0.410148,0.03745 -0.139474,0.02015 -0.442554,0.04518 -0.673509,0.05557 l -0.419886,0.01887 0.365118,-0.07793 c 1.0167,-0.217068 1.590031,-0.6366844 1.779229,-1.3024203 C 18.216479,8.5161202 18.271015,7.558389 18.160251,6.9232118 17.85821,5.1911369 16.733488,3.6681189 15.181412,2.8895031 14.520256,2.5578286 13.701769,2.3115547 13.001703,2.2336591 12.677111,2.1975185 11.93829,2.1902088 11.63544,2.2201122 M 11.62293,2.5430124 C 9.7370283,2.7621916 8.0882382,3.8396917 7.2731377,5.3856087 7.0665809,5.7773988 7.0449513,5.9450837 7.1841184,6.075783 7.2923801,6.1775023 7.8446203,6.3228652 8.4865312,6.4186574 L 8.9360891,6.4857004 8.8317928,6.7356306 8.7274941,6.9855604 8.5746662,6.9731667 C 8.3365893,6.953809 7.678513,6.8207996 7.4019494,6.7360911 6.9159835,6.5872653 6.7811666,6.6548855 6.7118519,7.0822368 c -0.049917,0.3078145 -0.048648,0.984981 0.00234,1.270048 0.020824,0.1164203 0.042832,0.2722903 0.048917,0.3463769 0.041179,0.5022065 0.2791025,0.8886482 0.6984107,1.1343831 0.2577051,0.1510204 0.8009776,0.3152022 1.3259285,0.4007192 0.8438137,0.137434 1.6184649,0.177537 3.4252809,0.177345 2.724289,-2.03e-4 3.913014,-0.126118 4.72215,-0.4999768 0.442707,-0.2045143 0.781386,-0.570519 0.781386,-0.8443872 0,-0.055767 0.0244,-0.1397449 0.05426,-0.1866211 0.07675,-0.1205788 0.153803,-1.00226 0.126363,-1.4459693 C 17.843166,6.5654422 17.538394,5.6914191 17.016405,4.9090699 16.752388,4.5133926 16.209886,3.9467204 15.802047,3.6406005 14.678672,2.7975202 13.06956,2.3749024 11.622937,2.5430104 m 0.244349,4.0621111 c -0.22776,0.061193 -0.493662,0.2019762 -0.581295,0.3077364 -0.05027,0.060693 -0.04383,0.064157 0.08004,0.043104 0.07408,-0.012546 0.437782,-0.059654 0.808212,-0.1046441 0.865979,-0.1052222 0.903311,-0.1201542 0.563631,-0.2258375 -0.30408,-0.094561 -0.571175,-0.1008346 -0.870598,-0.02036 m 6.284271,4.0096947 c -0.0252,0.01603 -0.134548,0.236538 -0.242925,0.490085 -0.108411,0.253548 -0.211444,0.4755 -0.228916,0.493241 -0.01747,0.01774 -0.09648,-0.164107 -0.175614,-0.404106 -0.07909,-0.240002 -0.154638,-0.448367 -0.167877,-0.46299 -0.02175,-0.02414 -0.883299,0.06484 -0.912702,0.09425 -0.0068,0.0068 0.159756,0.431316 0.370122,0.943338 l 0.382554,0.930983 -0.272482,0.619283 c -0.149866,0.340602 -0.265402,0.626403 -0.256704,0.635062 0.0329,0.0329 0.936679,-0.07051 0.980477,-0.112193 0.04376,-0.04164 0.368428,-0.869981 0.96843,-2.470585 0.151212,-0.403414 0.274946,-0.745479 0.274946,-0.760104 0,-0.03621 -0.661925,-0.0328 -0.719309,0.0037 m -3.090833,0.302772 c -0.497435,0.05111 -0.926057,0.100441 -0.952536,0.109645 -0.03333,0.01151 -0.04811,0.115529 -0.04811,0.338216 0,0.390058 -0.0659,1.536758 -0.132046,2.297938 -0.02668,0.306928 -0.04503,0.562746 -0.04083,0.568442 0.01151,0.0156 0.958771,-0.07755 0.981093,-0.09645 0.01058,-0.009 0.0279,-0.261707 0.03848,-0.56163 l 0.01924,-0.54539 0.534959,-0.02821 c 0.294189,-0.01552 0.541232,-0.03449 0.54889,-0.04218 0.0137,-0.01371 -0.06396,-0.805633 -0.08082,-0.824338 -0.0048,-0.0052 -0.205286,0.01642 -0.445633,0.04811 -0.240386,0.03172 -0.451136,0.05765 -0.468339,0.05765 -0.03703,0 -0.04156,-0.285567 -0.0074,-0.457022 l 0.02406,-0.12027 h 0.572486 0.572483 v -0.42335 -0.42335 l -0.105842,0.0047 c -0.05819,0.0026 -0.512828,0.04646 -1.010265,0.09756 m -3.13663,0.336021 -0.731241,0.08136 0.01382,0.711996 c 0.01263,0.649767 -0.04253,2.029846 -0.09352,2.340584 l -0.02093,0.127622 0.281219,-0.02605 c 0.154715,-0.01435 0.341874,-0.03787 0.41596,-0.05227 l 0.134703,-0.02621 0.03848,-0.479154 c 0.04838,-0.602158 0.0926,-0.632985 0.318589,-0.221951 0.08495,0.15456 0.225837,0.370431 0.313085,0.479769 l 0.158642,0.198783 0.374548,-0.09814 c 0.206018,-0.05399 0.380591,-0.103259 0.387904,-0.109493 0.0074,-0.0062 -0.04376,-0.09433 -0.11353,-0.195743 -0.132702,-0.192895 -0.379591,-0.724234 -0.3804,-0.818716 -2.63e-4,-0.03018 0.121078,-0.180155 0.269597,-0.333332 0.322284,-0.332367 0.442477,-0.569596 0.405568,-0.800514 -0.05534,-0.346069 -0.381822,-0.71038 -0.729045,-0.813523 -0.105296,-0.03125 -0.218641,-0.05449 -0.251854,-0.05161 -0.03318,0.0029 -0.389404,0.04183 -0.791585,0.08659 m -2.0974435,0.178994 c -0.3492631,0.0388 -0.6802449,0.0717 -0.7355501,0.07309 l -0.1005261,0.0025 -0.023015,1.048749 c -0.012658,0.576833 -0.049301,1.265238 -0.081477,1.529828 -0.082013,0.674975 -0.082513,0.667932 0.045758,0.641184 0.05819,-0.01213 0.427428,-0.04283 0.820489,-0.06827 l 0.7146527,-0.04618 0.100676,-0.330711 c 0.05538,-0.181889 0.111727,-0.359463 0.125197,-0.394563 0.02228,-0.05804 -0.0182,-0.06188 -0.443592,-0.0423 l -0.4681091,0.02159 0.027551,-0.227146 c 0.015177,-0.124886 0.035482,-0.235767 0.045182,-0.24635 0.00965,-0.01058 0.1937021,-0.0279 0.4089191,-0.03848 l 0.391289,-0.01924 0.08183,-0.394485 c 0.045,-0.216946 0.07963,-0.394137 0.07698,-0.393713 -0.0027,4.05e-4 -0.143399,0.02578 -0.312737,0.05639 -0.16934,0.03059 -0.392331,0.05623 -0.495512,0.05696 l -0.1876213,0.0014 0.02405,-0.120269 c 0.013247,-0.06616 0.024051,-0.168301 0.024051,-0.226954 0,-0.100912 0.013246,-0.109028 0.2436953,-0.149135 0.13401,-0.02336 0.359153,-0.04245 0.500321,-0.04245 0.141128,0 0.255585,-0.01295 0.254276,-0.02887 -0.0013,-0.0159 -0.03275,-0.184735 -0.06993,-0.375242 l -0.06758,-0.346357 -0.132122,-0.0057 c -0.07267,-0.0032 -0.417882,0.02605 -0.7671463,0.06481 m -1.7703694,0.226835 -0.2886461,0.02193 -0.029712,0.500321 c -0.016347,0.275177 -0.036177,0.518601 -0.044026,0.540925 -0.00786,0.02232 -0.2142536,0.06143 -0.4586418,0.0869 -0.2443883,0.02549 -0.4713801,0.05669 -0.5044006,0.06935 -0.052687,0.0202 -0.060078,-0.04372 -0.060078,-0.519872 V 11.816163 H 6.4071207 c -0.1449795,0 -0.3979481,0.0114 -0.5621313,0.02525 l -0.2985373,0.0252 0.013687,1.587981 c 0.00755,0.873408 0.022359,1.595141 0.032947,1.603914 0.018515,0.01532 0.8548561,-0.04835 0.8766009,-0.06673 0.00588,-0.005 0.033523,-0.262745 0.061426,-0.572905 0.027905,-0.310159 0.057767,-0.570789 0.066312,-0.57922 0.015739,-0.01552 0.856128,-0.137665 0.947031,-0.137665 0.039142,0 0.044143,0.121041 0.024171,0.58276 l -0.025249,0.58272 0.1313532,-0.02248 c 0.072201,-0.01238 0.280719,-0.03402 0.4633366,-0.04811 l 0.3319827,-0.0256 0.025633,-0.736703 c 0.029173,-0.83977 0.089019,-1.91042 0.1233866,-2.208803 l 0.023282,-0.202053 -0.1487496,0.0069 c -0.081822,0.0039 -0.2786405,0.0168 -0.4373959,0.02887 m 3.9640904,0.851393 v 0.544308 l 0.121616,-0.07697 c 0.343528,-0.217521 0.563939,-0.536071 0.495472,-0.716109 -0.0411,-0.108075 -0.254741,-0.229803 -0.472766,-0.269366 l -0.144323,-0.02621 v 0.544349 m 1.482799,0.497162 -0.188467,0.191358 0.09298,0.203128 c 0.05111,0.111763 0.121924,0.252662 0.157332,0.313164 l 0.06442,0.10996 0.02402,-0.302387 c 0.01324,-0.166337 0.03344,-0.393369 0.04495,-0.504478 0.01151,-0.11111 0.01467,-0.202053 0.007,-0.202053 -0.0076,0 -0.09864,0.08609 -0.202285,0.191312"
     stroke="none"
     fill="#0a6fb5"
     fill-rule="evenodd"
     id="path2"
     style="stroke-width:0.0384863" />
</svg>
