<svg xmlns="http://www.w3.org/2000/svg" width="24" height="24"><path fill="#282828" fill-rule="evenodd" d="M14.15 3.9q-.07.1-.15.05c-.11-.07-.22.58-.14.89q.15.53-.88.33c-.49-.09-.6-.08-.9.1-.25.14-.35.29-.42.6-.11.49-.18.52-.4.21-.14-.2-.14-.25.06-.57.18-.3.19-.33.04-.22-.1.08-.28.36-.42.63-.48.94-1.07.93-1.67-.04-.18-.28-.68-.48-1.24-.48-.17 0-.34-.04-.37-.1-.08-.11-.39-.06-.44.08-.02.06.06.17.17.24.25.15.28.63.06.72-.08.03-.2.17-.25.32-.06.14-.2.28-.31.31q-.18.06-.12.12c.04.03.13.2.2.39.1.26.09.32-.03.32q-.13.02-.14.2c0 .2.07.2 5 .2s5 0 5-.2q0-.18-.09-.2c-.12 0-.21-.53-.11-.65.13-.17.23-1.12.11-1.2q-.1-.05 0-.32.09-.26 0-.36c-.14-.14-.38.07-.44.4-.03.16-.1.46-.17.68a2.5 2.5 0 0 0-.1 1.2c.04.16 0 .2-.23.23-.39.05-.53-.1-.67-.69-.16-.67-.07-.98.3-1.06.32-.06.51-.23.26-.23a1 1 0 0 1-.32-.07q-.18-.07-.1.05.05.11-.04.12-.1-.01-.09-.12a1 1 0 0 0-.08-.38l-.17-.5q-.09-.28.03-.1t.1-.07q0-.21.09-.23t.2-.2c.1-.16.08-.2-.2-.34-.35-.18-.84-.2-.93-.06M10.8 6.45c-.2.34-.2.36-.02.3.1-.03.39-.1.62-.13.4-.08.42-.09.19-.16a1 1 0 0 1-.41-.23c-.15-.12-.19-.1-.38.22m1.84.17c-.28.29-.28.3-.12.58.1.15.17.35.17.44 0 .14.16.16 1.1.16.6 0 1.1-.02 1.1-.05l-.2-.59c-.2-.55-.46-.73-.92-.67a2 2 0 0 1-.51-.07c-.31-.09-.37-.07-.62.2m-5.18-.16q-.2.19.17.2c.13.01.35.1.49.19.25.16.25.18.12.56l-.14.39h.75c.74 0 .75 0 .68-.22-.03-.13-.1-.25-.15-.26-.16-.06-.1-.2.12-.25.2-.05.2-.06.01-.25q-.2-.2-.78-.25l-.9-.12c-.16-.04-.32-.03-.37 0m3.97.33a1 1 0 0 0-.17.25q-.05.19-.32.11c-.2-.05-.25-.03-.25.14 0 .11-.03.27-.06.36-.05.13.02.16.34.16.4 0 .4 0 .47-.42.04-.24.12-.49.17-.55.11-.14 0-.17-.18-.05m.43.29c-.04.03-.07.21-.07.4 0 .3.02.33.33.33.4 0 .46-.23.14-.57-.22-.24-.3-.27-.4-.16m4.83 1.68c.1.13.06.15-.34.15-.42 0-.46.02-.46.25q-.01.26.2.25c.19 0 .2.07.2.9s-.01.9-.2.9q-.21-.01-.2.25v.25h2.3v-.5c0-.47-.02-.5-.25-.5-.2 0-.25.05-.25.25 0 .23-.03.25-.5.25h-.5v-.8h.45c.38 0 .45-.03.45-.2 0-.15-.1-.2-.45-.26-.39-.05-.45-.1-.45-.3 0-.22.04-.24.5-.24.38 0 .5.04.5.15q.01.15.26.15c.23 0 .25-.03.22-.37s-.06-.38-.33-.41c-.17-.02-.34-.1-.38-.18q-.1-.13-.49-.14c-.35 0-.39.02-.28.15M3 9.15q-.01.26.2.25c.19 0 .2.07.2.9s-.01.9-.2.9q-.21-.01-.2.26c0 .24.02.25.57.22.47-.02.58-.07.61-.21q.04-.18-.17-.24c-.17-.04-.21-.13-.21-.44v-.39H5v.39c0 .3-.04.4-.2.44q-.21.06-.18.24c.03.14.14.19.6.21.56.03.58.02.58-.22q.01-.28-.2-.26c-.19 0-.2-.07-.2-.9s.01-.9.2-.9q.21.01.2-.25c0-.25-.02-.26-.57-.23-.47.02-.58.07-.61.21q-.04.18.17.24.22.04.21.33c0 .26-.01.27-.6.27s-.6-.01-.6-.28q0-.27.2-.32.21-.06.18-.24c-.03-.14-.14-.19-.6-.21-.56-.03-.58-.02-.58.23m3.2-.04q.01.2.2.26c.18.05.2.14.2.93 0 .8-.02.88-.2.93a.3.3 0 0 0-.2.26c0 .2.05.21 1.15.21H8.5v-.5c0-.43-.03-.5-.2-.5q-.21-.01-.2.25c0 .23-.03.25-.5.25h-.5v-.8h.45c.37 0 .45-.03.45-.19 0-.21-.4-.36-.7-.26-.17.05-.2.01-.2-.24 0-.3 0-.31.5-.31.38 0 .5.04.5.15q.02.13.2.15c.17 0 .2-.07.2-.4v-.4H7.35c-1.1 0-1.15 0-1.15.2m2.9.05q0 .25.15.25c.12 0 .15.17.15.9s-.03.9-.15.9q-.15.01-.15.25c0 .24.03.25.55.25s.55-.01.55-.25q0-.25-.18-.25-.18.02-.17-.32c0-.3.04-.34.35-.4.56-.1.7.04.7.67v.55h.4c.36 0 .4-.02.4-.25q0-.25-.15-.25t-.15-.28a1 1 0 0 0-.14-.47c-.11-.16-.11-.2 0-.33.24-.23.17-.78-.12-1.01-.22-.18-.4-.21-1.15-.21-.88 0-.89 0-.89.25m3-.02q0 .24.19.3c.17.04.19.14.17.88 0 .71-.04.84-.19.87q-.16.04-.17.28c0 .24.02.25.57.22.47-.02.58-.07.61-.21q.04-.18-.17-.24c-.19-.05-.21-.13-.21-.8 0-.4.02-.73.04-.73s.19.36.37.8q.33.8.47.78c.08-.02.3-.39.48-.83l.33-.8v.78c0 .62-.02.77-.14.77q-.15.01-.15.26c0 .24.02.25.57.22.47-.02.58-.07.61-.21q.04-.18-.17-.24c-.2-.05-.21-.13-.21-.93s.02-.88.2-.93q.21-.06.18-.24c-.02-.14-.14-.19-.54-.21l-.5-.03-.29.68c-.15.37-.31.72-.35.76s-.2-.25-.37-.65l-.3-.73-.51-.03c-.5-.03-.52-.02-.52.21m7.12-.16c-.2.07-.44.62-.37.82q.14.46.96.64.88.2.63.65c-.22.35-.98.27-1.16-.13s-.45-.32-.53.15c-.08.48 0 .63.32.57.13-.02.41 0 .62.05.77.2 1.4-.34 1.26-1.04-.08-.36-.37-.55-1-.67-.57-.1-.74-.25-.59-.49.18-.28.68-.27.92.02.26.33.48.33.56 0 .13-.52.02-.6-.77-.62-.4 0-.78.02-.85.05m-9.34.73c.04.3.05.3.56.28.47-.03.51-.05.51-.28s-.04-.25-.56-.28l-.56-.03zM8.4 13.4c0 .64.03.8.15.8q.15.01.15-.35c0-.3.03-.35.24-.35.45 0 .72-.5.44-.78-.07-.07-.31-.12-.55-.12H8.4zm1.9-.76-.35.8c-.27.59-.31.76-.2.76q.15-.02.27-.25.1-.26.4-.25.29-.01.4.25c.1.21.38.36.38.2 0-.21-.67-1.55-.77-1.55q-.12 0-.13.04m1.4.76c0 .64.03.8.15.8q.15.01.15-.35c0-.2.04-.35.1-.35.09 0 .46.43.52.62.02.06.12.09.21.07.15-.04.14-.08-.1-.41-.22-.31-.24-.4-.13-.53.1-.12.1-.21.02-.4-.1-.2-.19-.25-.52-.25h-.4zm1.8 0c0 .64.03.8.15.8s.15-.16.15-.8-.03-.8-.15-.8-.15.16-.15.8m1.12-.68q-.3.3.23.72c.2.15.35.32.35.38q-.01.1-.35.05-.36-.06-.35.08c0 .3.6.33.84.06.23-.26.13-.57-.25-.77-.36-.18-.33-.4.05-.37q.26.02.26-.13c0-.18-.6-.2-.78-.02"/></svg>