<svg xmlns="http://www.w3.org/2000/svg" width="24" height="24"><path fill="#eff4f9" fill-rule="evenodd" d="M6 9v7h12l-.01-3.87c-.01-2.74-.04-3.66-.1-3.13-.32 2.81-2 5.1-4.74 6.47-1.1.56-1.04.59-1.07-.54l-.03-.98-.6-.06a6 6 0 0 1-4.85-3.54 6.7 6.7 0 0 1-.25-3.9A5.83 5.83 0 0 1 12.9 2.2a5.9 5.9 0 0 1 5 5.12c.05.43.08-.29.09-2.34L18 2H6zm2.4-2c0 .79 0 .8.25.8.21 0 .25-.05.25-.3 0-.27.03-.3.3-.3s.3.03.3.3.03.3.23.28c.2-.03.22-.09.25-.8.03-.77.03-.78-.22-.78-.2 0-.25.06-.28.28-.02.21-.08.27-.28.27s-.26-.06-.28-.27-.09-.28-.28-.28c-.23 0-.24.02-.24.8m3.17-.6q-.05.2-.3.2-.26.01-.46.26l-.21.27v-.27c0-.23-.04-.27-.22-.24-.2.03-.23.1-.26.6-.03.56-.02.58.23.58q.27.02.25-.21v-.21l.18.2c.18.23.27.25.85.23L12 7.8V7c0-.72-.02-.8-.19-.8-.1 0-.21.09-.24.2m1.4 0q-.05.2-.3.2c-.47 0-.75.63-.44 1.02.13.18.24.2.8.2l.37-.02V7c0-.72-.02-.8-.19-.8-.1 0-.21.09-.24.2m.7.38c-.18.2-.22.59-.1.79.14.21.6.33.9.23.2-.08.23-.13.14-.24q-.14-.14.04-.2c.2-.07.12-.44-.13-.63-.23-.19-.66-.16-.85.05m1.23.43c0 .52.02.59.2.59.15 0 .2-.08.22-.37.04-.52.28-.56.28-.04 0 .37.02.41.25.41s.25-.03.25-.49c0-.27-.06-.53-.13-.59-.06-.06-.33-.1-.6-.1h-.47zM8.02 9.43c.03.74.05.82.23.82.15 0 .2-.08.23-.33.03-.3.06-.33.3-.3.21.02.28.1.32.33q.04.32.25.3c.18 0 .2-.07.2-.8 0-.75-.01-.8-.22-.83s-.23.01-.23.27c0 .28-.03.31-.3.31s-.3-.03-.3-.3c0-.25-.04-.3-.25-.3-.26 0-.26 0-.23.83M9.9 9.2c-.49.49-.03 1.21.66 1.04.36-.1.3-.34-.08-.35-.31-.02-.3-.02.07-.08.34-.05.42-.03.52.15.16.28.32.34.82.27l.42-.06-.03-.56-.03-.56-.47-.02c-.39-.02-.5.02-.63.2l-.15.2-.23-.21q-.45-.4-.87-.02m2.5.41c0 .52.02.59.2.59.16 0 .2-.07.2-.35q0-.35.15-.41a.3.3 0 0 0 .15-.23q.01-.18-.35-.18l-.35-.01zm.89-.6-.06.62c-.05.56-.04.57.22.57.25 0 .26-.01.23-.57-.02-.46-.07-.59-.2-.61q-.16-.03-.19 0m.61.59c0 .52.02.59.2.59q.2 0 .2-.24c0-.13.03-.31.06-.4.11-.3.24-.16.24.24 0 .36.03.4.25.4.2 0 .25-.05.25-.27 0-.26.01-.27.12-.08.15.28.13.26.5.35l.33.08-.37.01q-.38 0-.38.15c0 .31.7.35 1 .06.18-.17.2-.31.18-.83l-.03-.62-.45-.02c-.48-.01-.67.09-.8.42-.09.2-.09.2-.1-.01 0-.31-.2-.42-.73-.42h-.47z"/></svg>