<svg xmlns="http://www.w3.org/2000/svg" width="24" height="24" viewBox="0 0 24 24"><path fill="#112a57" fill-rule="evenodd" d="M10.35 2.19a7.2 7.2 0 0 0-5.2 5.16c-.22.88-.2 2.53.05 3.43a7.1 7.1 0 0 0 4.8 4.94c.62.19.96.23 2 .22a5 5 0 0 0 2.05-.28 6.9 6.9 0 0 0 4.83-6.37 6.8 6.8 0 0 0-1.53-4.71 7.1 7.1 0 0 0-7-2.4m3.5 5.41a2 2 0 0 0-.5.42c-.24.3-.27.4-.23.88.04.45.1.59.36.82.58.52 1.3.48 1.86-.1.5-.52.4-1.48-.18-1.86-.3-.2-1.02-.29-1.32-.16m-3.91.26c-.27.11-.33.2-.33.44q-.01.31.25.46l.5.3c.4.24.22.48-.32.43-.35-.02-.43 0-.4.12.04.23.94.26 1.19.04.27-.26.2-.64-.18-.89l-.5-.32c-.18-.12-.18-.13.01-.28.11-.09.3-.14.41-.1q.22.05.27-.1.05-.13-.16-.19c-.3-.08-.38-.07-.74.09M6.1 8.8v1h.25c.23 0 .25-.04.25-.4 0-.39 0-.4.35-.4s.35.01.35.4c0 .36.03.4.25.4h.25v-2h-.25c-.22 0-.25.04-.25.4 0 .4 0 .4-.35.4s-.35 0-.35-.4c0-.36-.02-.4-.25-.4H6.1zm2.4 0v1H9v-2h-.5zm2.8-.85q.01.15.25.15c.25 0 .25.01.25.85s0 .85.25.85.25-.01.25-.85 0-.85.25-.85q.25 0 .25-.15c0-.12-.15-.15-.75-.15s-.75.03-.75.15m4.9.85v1h.25q.22 0 .24-.07v-.4c.02-.47.29-.43.48.07.12.3.21.4.4.4.23 0 .23 0 .08-.37l-.2-.41c-.02-.03.05-.16.15-.3.25-.31.25-.47 0-.72-.16-.16-.33-.2-.8-.2h-.6zm-2.25-.78c-.32.17-.45.4-.45.79 0 .3.07.43.32.64.87.73 2-.45 1.19-1.26-.31-.3-.7-.37-1.06-.17m2.75.38c0 .41.08.47.4.3.35-.19.19-.7-.22-.7-.14 0-.18.08-.18.4"/></svg>