<svg xmlns="http://www.w3.org/2000/svg" width="24" height="24"><path fill="#ee137d" fill-rule="evenodd" d="M10.91 6.74c-.08.1-.1.75-.09 2.17l.03 2.04.24.03c.4.06.51-.21.51-1.2 0-.96.1-1.18.6-1.18.47 0 .6.26.6 1.22 0 .48.03.93.06 1.02.09.24.51.2.65-.05.17-.32.07-1.86-.15-2.27-.22-.43-.93-.77-1.42-.67l-.34.06v-.46c0-.26-.05-.55-.1-.66a.35.35 0 0 0-.59-.05m-4.2.2q-.11.15-.06.26c.04.06-.03.22-.15.35-.26.28-.24.68.05.73.7.1.65 0 .65 1.42 0 .8-.04 1.3-.1 1.3-.16 0-.11.2.06.27.26.1.44-.25.44-.86 0-.31.04-.63.1-.7.21-.35.25.87.04 1.42q-.08.18.19.17c.22 0 .25-.05.33-.62.07-.52.09-.57.12-.28.02.2.1.4.2.47.15.12.14.13-.01.13q-.16.02-.17.15c0 .12.14.15.64.15.63 0 .64 0 .75-.31.33-.95-.24-2.24-1.27-2.9a2 2 0 0 1-.58-.58 1 1 0 0 0-.55-.5c-.5-.25-.53-.25-.69-.06m-1.73.82c-.04.03-.07.22-.07.4 0 .27-.16.58-.66 1.3-.36.52-.68.92-.72.89-.1-.1-.32.16-.32.4 0 .12-.04.26-.1.29-.29.18 0 .25 1 .25s1.29-.07 1-.25c-.05-.03-.1-.17-.1-.3q-.02-.41-.42-.37-.54.08.56-.44c.63-.3.78-.34.96-.24s.25.09.38-.04c.14-.13.14-.2.01-.58-.25-.75-1.23-1.6-1.52-1.31m9.54.2c-.64.33-.76.6-.76 1.8 0 .9.03 1.07.18 1.17q.17.12.35 0c.14-.1.17-.29.2-1.1.03-1.06.11-1.24.58-1.24.43 0 .54.24.54 1.23 0 1.03.07 1.2.41 1.15.23-.03.24-.07.29-1.04.05-1.1.16-1.34.6-1.34.47 0 .59.25.62 1.35l.03 1h.6l.03-1.1c.03-1.27-.12-1.65-.73-1.9-.45-.2-.63-.19-1.08.04-.36.18-.38.18-.74 0-.46-.24-.69-.24-1.12-.01m3.74-.02c-.19.2-.19.2.5 1.76.5 1.15.56 1.23.82 1.23s.31-.08.85-1.3c.6-1.35.65-1.6.36-1.78-.26-.17-.44.06-.79 1a4 4 0 0 1-.4.88c-.04.03-.24-.37-.44-.9-.3-.79-.48-1.05-.7-1.05q-.04.01-.2.16"/></svg>