<svg xmlns="http://www.w3.org/2000/svg" width="24" height="24"><path fill="#ea9aae" fill-rule="evenodd" d="M17.99 7.6a.6.6 0 0 0-.23.35q-.07.23-.16.25-.1.02-.1.25t.1.25c.05 0 .1.24.12.53.03.48.05.52.3.55.28.03.28.02.28-.51 0-.44.04-.56.18-.6q.44-.12.42.37c0 .45.25.76.6.76.23 0 .3-.04.3-.2 0-.11-.07-.23-.15-.26-.09-.04-.15-.19-.15-.35q0-.3.15-.29.15-.01.15-.25-.01-.24-.14-.25-.12-.02-.19-.2c-.06-.25-.57-.29-.57-.04 0 .08-.06.21-.13.28-.1.11-.16.11-.3 0-.16-.1-.16-.13-.04-.2a.5.5 0 0 0 .19-.29q.05-.2-.22-.22a1 1 0 0 0-.41.07m-13.85.13c-.03.08-.03.56-.02 1.08l.03.94.27.03c.27.03.28.02.28-.46 0-.37.04-.52.16-.56.27-.1.44.13.44.6 0 .4.02.44.25.44s.25-.03.25-.6c0-.76-.23-1.05-.76-.97-.33.06-.34.05-.34-.29 0-.3-.03-.34-.25-.34-.14 0-.28.06-.3.13m3.6 0c-.04.08-.04.56-.03 1.08l.03.94.62.03c.52.02.66 0 .83-.18.5-.5.08-1.48-.6-1.38-.28.04-.3.03-.3-.29 0-.29-.03-.33-.25-.33-.14 0-.28.06-.3.13m1.8 0c-.04.08-.04.56-.03 1.08l.03.94.5.02c.75.04.95-.03 1.1-.41.26-.63-.18-1.25-.8-1.14-.23.05-.25.02-.25-.28s-.03-.34-.25-.34c-.14 0-.28.06-.3.13m-3.22.59c-.28.13-.46.58-.37.92.21.85 1.64.68 1.64-.2 0-.65-.65-1.02-1.27-.72m4.93-.04c-.03.05.04.4.15.76.15.49.26.7.4.73q.21.05.09.18c-.06.07-.2.1-.3.08q-.18-.05-.3.16c-.1.18-.07.22.15.31.37.14.5.13.73-.07.2-.18.85-2.07.74-2.18-.03-.03-.16-.05-.28-.05-.19 0-.26.08-.35.43-.13.45-.29.7-.3.46 0-.07-.04-.3-.1-.51-.08-.3-.15-.38-.34-.38-.13 0-.26.04-.29.08m1.92.22c-.25.26-.3.36-.24.63.03.18.16.4.27.5.29.23.91.22 1.13-.02q.33-.35-.44-.36c-.28 0-.36-.04-.38-.21a.26.26 0 0 1 .43-.24q.12.11.35-.08l.23-.19-.24-.16q-.57-.39-1.1.13m1.47-.22c-.04.03-.06.39-.06.8v.73l.28-.03c.25-.03.27-.07.3-.5.03-.4.06-.47.25-.5q.22-.02.25-.3c.03-.25.01-.26-.47-.26-.27 0-.52.03-.55.06m1.28.17c-.3.3-.31.73-.04 1.08.19.24.27.26.86.26h.65l-.03-.77-.03-.77-.58-.02c-.5-.02-.62.01-.83.22m-9.4.4c-.1.23.04.47.23.43q.18-.03.18-.28c0-.29-.32-.4-.41-.16m1.88-.05c-.2.13-.1.46.16.5.27.03.4-.23.22-.44-.14-.17-.2-.18-.38-.06m1.78.06c-.16.2-.06.45.19.45.23 0 .35-.28.2-.46s-.24-.18-.39 0m6.14 0c-.1.24.04.48.23.44q.18-.03.18-.28c0-.29-.32-.4-.41-.16m3.96 1.74q.01.1.1.18.14.06 0 .17c-.16.17-.12.31.05.17.12-.1.18-.1.3 0q.15.12.15.02-.01-.1-.1-.18-.14-.06 0-.17c.16-.17.12-.31-.05-.17-.12.1-.18.1-.3 0q-.15-.12-.15-.02"/></svg>