<?xml version="1.0" encoding="UTF-8" standalone="no"?>
<svg
   viewBox="0 0 595.27557 841.88977"
   width="595.27557pt"
   height="841.88977pt"
   version="1.1"
   id="svg1"
   sodipodi:docname="pink_master_pin.svg"
   xml:space="preserve"
   xmlns:inkscape="http://www.inkscape.org/namespaces/inkscape"
   xmlns:sodipodi="http://sodipodi.sourceforge.net/DTD/sodipodi-0.dtd"
   xmlns="http://www.w3.org/2000/svg"
   xmlns:svg="http://www.w3.org/2000/svg"><defs
     id="defs1" /><sodipodi:namedview
     id="namedview1"
     pagecolor="#ffffff"
     bordercolor="#000000"
     borderopacity="0.25"
     inkscape:showpageshadow="2"
     inkscape:pageopacity="0.0"
     inkscape:pagecheckerboard="0"
     inkscape:deskcolor="#d1d1d1"
     inkscape:document-units="pt"
     showgrid="false"
     inkscape:lockguides="true"><inkscape:page
       x="0"
       y="0"
       width="595.27557"
       height="841.88977"
       id="page2"
       margin="0"
       bleed="0" /></sodipodi:namedview><g
     id="g1"
     transform="matrix(0.03661049,0,0,0.03673947,0.95608818,-1.2251285)"><path
       d="M 0,0 C 1.9869211,1.0267982 3.9658341,2.0692047 5.9375,3.125 7.2249761,3.7443222 8.5155532,4.3572249 9.8085938,4.9648437 28.619215,13.881029 48.076857,27.145444 57.9375,46.125 c 0,0.66 0,1.32 0,2 0.66,0 1.32,0 2,0 0.100547,-0.559453 0.201094,-1.118906 0.304687,-1.695313 C 64.300613,32.977602 78.455654,25.26968 89.915527,19.051758 98.01199,14.771227 106.14976,10.775621 114.9375,8.125 115.60636,7.9121435 116.27522,7.6992871 116.96436,7.4799805 133.16602,2.4215751 154.30107,-1.0635068 170.39062,6.2382812 181.60539,13.722921 187.17877,24.117182 193,36 c 0.50338,1.011914 1.00676,2.023828 1.52539,3.066406 2.89112,5.842075 5.62408,11.716839 8.15479,17.72461 1.78477,3.313093 4.21404,5.283112 7.13232,7.58789 6.52698,5.363164 12.44561,11.820507 13.625,20.371094 -0.13964,4.86862 -2.33273,8.874716 -4.50391,13.152344 -2.76622,8.949546 1.78916,18.089666 4.81641,26.472656 2.87836,8.08985 5.66898,16.17079 8.14917,24.39209 1.14611,3.70648 2.3739,7.38225 3.61645,11.05713 0.66637,1.99193 1.33137,3.98432 1.9961,5.97681 0.45287,1.34798 0.91061,2.69433 1.37305,4.03906 2.6771,7.80415 4.89771,14.94012 4.05273,23.28491 -6.20363,2.43083 -12.28646,4.23607 -19,3 -1.78906,-1.52344 -1.78906,-1.52344 -3,-3 -0.48598,0.62648 -0.97195,1.25297 -1.47266,1.89844 -3.38006,2.81062 -6.75536,3.08097 -10.96484,3.72656 -7.47357,1.38064 -12.20337,3.67534 -17.93262,8.58472 -17.92836,15.30034 -42.40101,14.91661 -64.62988,13.79028 -9.40216,-1.02035 -22.15271,-4.15271 -29,-11 -1.899221,-0.1618 -1.899221,-0.1618 -4.125,-0.125 -0.745078,-0.003 -1.490156,-0.005 -2.257813,-0.008 -2.728814,0.0961 -2.728814,0.0961 -5.847656,0.61328 -4.336779,0.59771 -8.584571,0.85249 -12.957031,0.95703 -0.793418,0.0458 -1.586836,0.0915 -2.404297,0.13867 -2.287365,0.0442 -4.194834,0.009 -6.408203,-0.57617 -4,-4.5513 -4,-4.5513 -4,-8 -0.66,0 -1.32,0 -2,0 -0.144375,0.80437 -0.28875,1.60875 -0.4375,2.4375 -0.5625,2.5625 -0.5625,2.5625 -1.5625,3.5625 -8.535673,0.94497 -15.905359,-0.44374 -22.992188,-5.39063 C 30.25,202.25 30.25,202.25 27.9375,199.125 c 0.260346,-5.23755 2.41758,-9.67741 4.5625,-14.375 0.329355,-0.73605 0.658711,-1.47211 0.998047,-2.23047 0.806931,-1.80098 1.622336,-3.59815 2.439453,-5.39453 -0.631641,0.76184 -1.263281,1.52367 -1.914063,2.30859 -13.72698,16.04612 -31.3021727,24.46235 -52.336181,26.47754 -31.6715,2.46331 -66.929814,-2.58706 -91.866946,-23.56738 -12.70753,-11.97332 -19.63612,-28.42355 -20.28784,-45.73462 -0.21775,-15.40122 3.98906,-27.97039 11.26685,-41.384032 1.21354,-2.239154 2.40243,-4.490232 3.5874,-6.744629 1.54709,-2.94104 3.10234,-5.877385 4.66797,-8.808594 0.33153,-0.629304 0.66306,-1.258608 1.00464,-1.906982 0.671,-1.253031 1.38142,-2.485034 2.10864,-3.706299 1.13607,-2.854597 1.096,-5.562738 1.20703,-8.621094 0.84803,-13.387705 0.84803,-13.387705 5.17578,-18.050781 1.15681,-0.998273 2.344968,-1.962159 3.570314,-2.875 C -92.904885,40.714348 -90.423419,36.442256 -87.5625,31 c 3.659551,-6.778312 7.584181,-13.28963 11.875,-19.6875 0.499512,-0.745884 0.999023,-1.4917676 1.513672,-2.2602539 C -66.925878,-1.63628 -66.925878,-1.63628 -61.5,-5.125 c 0.764414,-0.5001562 1.528828,-1.0003125 2.316406,-1.515625 C -43.579028,-15.721735 -15.109941,-6.8069536 0,0 Z"
       fill="#0f0c06"
       transform="translate(240.0625,133.875)"
       id="path3" /><path
       d="m 0,0 c 4.5497126,0.97493841 6.2305003,2.4805003 9.5,5.75 1.278616,2.5572323 1.113366,4.367371 1.097656,7.226563 -0.0025,0.92893 -0.005,1.857861 -0.0076,2.814941 -0.0091,1.182554 -0.01821,2.365107 -0.02759,3.583496 -0.02063,3.75375 -0.04125,7.5075 -0.0625,11.375 8.58,0 17.16,0 26,0 C 36.342237,23.076205 36.342237,23.076205 36.139648,15.403564 36.05758,7.5004693 36.05758,7.5004693 38.390625,3.5429688 40.886534,1.4214458 41.985927,0.80841735 45.25,0.4375 c 4.059019,0.39029027 6.083017,1.8083738 9.25,4.3125 1.476424,2.9528472 1.222729,5.68449 1.316406,8.976563 0.02078,0.685247 0.04156,1.370495 0.06297,2.076507 0.06542,2.190541 0.124347,4.381202 0.183121,6.57193 0.04319,1.484387 0.08681,2.968763 0.130859,4.453125 C 56.300476,30.468621 56.401764,34.109253 56.5,37.75 56.747419,37.221082 56.994839,36.692163 57.249756,36.147217 61.557219,27.195595 67.257162,21.408202 76.574219,17.59375 84.882211,15.197854 93.657799,16.226309 101.5,19.75 c 6.94686,4.093683 12.46814,9.758841 16,17 0.004,-0.847075 0.008,-1.69415 0.0125,-2.566895 0.0271,-3.165168 0.0763,-6.329028 0.14014,-9.493652 0.0231,-1.36544 0.0375,-2.731055 0.043,-4.09668 0.0608,-12.807835 0.0608,-12.807835 3.10913,-16.7294917 2.90693,-2.279202 4.8388,-2.7897299 8.53515,-2.8125001 3.36293,1.088543 5.89085,3.0412277 8.16016,5.6992188 0.77295,3.41333 0.77295,3.41333 0.80469,7.269531 0.0206,1.021504 0.0206,1.021504 0.0415,2.063645 0.0372,2.160453 0.0336,4.318597 0.0288,6.479324 0.0181,1.470739 0.0389,2.941447 0.0625,4.412109 0.0517,3.591965 0.0669,7.183007 0.0625,10.775391 0.50451,-0.479451 1.00901,-0.958901 1.52881,-1.452881 2.27977,-2.16397 4.56293,-4.324331 6.84619,-6.484619 0.79406,-0.754746 1.58812,-1.509492 2.40625,-2.287109 0.76055,-0.718653 1.52109,-1.437305 2.30469,-2.177735 0.70173,-0.665075 1.40346,-1.330151 2.12646,-2.015381 2.59,-2.292515 3.61676,-2.56962 7.1626,-2.832275 3.86649,0.266655 4.77381,0.863545 7.625,3.25 0.0142,-1.16918 0.0284,-2.338359 0.043,-3.542969 0.0469,-1.548216 0.0952,-3.096391 0.14453,-4.644531 0.009,-1.153389 0.009,-1.153389 0.0176,-2.330078 0.029,-0.750879 0.058,-1.501758 0.0879,-2.275391 0.0236,-1.0290342 0.0236,-1.0290342 0.0476,-2.0788572 C 169.91233,5.4192699 171.64951,3.9329974 174.5,1.75 c 2.95546,-0.4881078 5.31968,-0.6806187 8.26562,-0.6289063 1.18926,-0.00362 1.18926,-0.00362 2.40253,-0.00731 1.67431,9.77e-4 3.34865,0.014336 5.02277,0.039291 2.53776,0.034137 5.07201,0.020697 7.60986,0.00122 15.66916,0.015169 15.66916,0.015169 22.69922,4.5957031 1.39219,0.8971875 1.39219,0.8971875 2.8125,1.8125 4.50402,4.5040252 6.43306,8.2531362 6.8125,14.5625002 -0.20646,5.979211 -2.51461,10.324589 -6.625,14.625 -0.99,0.33 -1.98,0.66 -3,1 2.78249,2.937069 5.87938,5.434159 9,8 0.21914,-0.773438 0.43828,-1.546875 0.66406,-2.34375 3.74661,-12.305928 9.49787,-19.380937 20.77344,-25.53125 7.64598,-2.414519 14.30039,-1.308201 21.5625,1.875 5.70487,3.080632 11.06358,8.127163 14,14 0.0258,-0.59168 0.0516,-1.183359 0.0781,-1.792969 0.37733,-5.25685 0.97991,-8.384515 4.92188,-12.207031 3.10049,-1.550245 5.57894,-1.28992 9,-1 2.9375,2 2.9375,2 5,4 0.70125,-0.28875 1.4025,-0.5775 2.125,-0.875 7.98863,-3.125985 16.23054,-5.343632 24.57812,-2.0625 5.42211,3.303534 8.08271,7.02923 10.29688,12.9375 0.52201,3.133508 0.53965,6.184113 0.49609,9.355469 0.001,0.864664 0.003,1.729327 0.004,2.620193 -0.002,1.814381 -0.0131,3.628777 -0.034,5.443039 -0.0291,2.771845 -0.0206,5.541788 -0.008,8.313721 -0.006,1.770191 -0.0146,3.540377 -0.0254,5.310547 0.003,0.824048 0.006,1.648096 0.009,2.497116 -0.076,4.640653 -0.47127,7.671912 -3.44249,11.459915 -3.20529,2.32107 -6.1216,2.554058 -10,2 -2.57286,-2.172635 -4.48997,-3.979938 -6,-7 -0.11948,-2.361306 -0.17927,-4.725729 -0.21094,-7.089844 -0.0281,-1.438162 -0.0567,-2.876313 -0.0859,-4.314453 -0.0413,-2.269121 -0.0782,-4.538025 -0.10449,-6.807373 -0.0276,-2.189014 -0.0735,-4.37704 -0.12207,-6.565674 -0.0198,-1.312185 -0.0396,-2.62437 -0.0601,-3.976318 -0.15308,-3.179917 -0.15308,-3.179917 -1.73535,-5.135254 C 318.27819,36.942502 315.9398,36.75 312.5,36.75 c -3.45216,2.620671 -4.84508,4.109454 -5.59595,8.425781 0.01,1.282617 0.0195,2.565235 0.0295,3.886719 -0.006,0.69134 -0.0113,1.382681 -0.0171,2.094971 -0.0164,2.198208 -9.6e-4,4.394392 0.021,6.592529 0.0166,2.197947 0.0256,4.394561 0.0103,6.592529 -0.0135,1.993861 0.002,3.987855 0.0188,5.98169 -0.5439,3.993771 -1.64295,5.608395 -4.46655,8.425781 -2.14844,0.953125 -2.14844,0.953125 -4.375,1.25 -0.72961,0.128906 -1.45922,0.257812 -2.21094,0.390625 -3.42775,-0.909629 -5.00316,-2.660672 -7.1831,-5.403809 -2.29689,-4.173761 -2.11872,-8.507023 -2.10596,-13.174316 -0.0309,-1.455029 -0.0309,-1.455029 -0.0625,-2.939453 -0.0468,-2.375216 -0.067,-4.747467 -0.0625,-7.123047 -0.67507,0.651943 -1.35013,1.303887 -2.04565,1.975586 -3.69729,2.533502 -5.77628,2.488251 -10.22388,2.415039 -0.681,-0.0057 -1.36201,-0.01132 -2.06365,-0.01715 -2.16051,-0.02227 -4.31932,-0.07244 -6.47932,-0.123474 -1.47068,-0.02008 -2.94138,-0.03833 -4.41211,-0.05469 -3.59234,-0.04394 -7.1837,-0.112897 -10.77539,-0.195312 3.08508,4.585247 3.08508,4.585247 7.90234,6.691406 5.93018,-0.25186 9.80614,-0.861057 15.09766,-3.691406 3.44049,0.116627 5.91058,0.402574 8.9375,2.0625 1.77977,3.245462 1.90357,6.414662 1.0625,9.9375 -5.45109,5.982908 -12.60776,8.42019 -20.54297,9.273437 -8.64441,0.331987 -14.20069,-2.43588 -21.26953,-7.148437 -2.82071,-2.740117 -5.21395,-5.715377 -7.1875,-9.125 0,-0.66 0,-1.32 0,-2 -0.66,0 -1.32,0 -2,0 -0.0619,0.86625 -0.12375,1.7325 -0.1875,2.625 -1.18716,4.931292 -3.56124,7.992649 -7.81641,10.605469 -4.28105,2.183887 -8.15745,3.883668 -13.02099,3.930664 -0.80449,0.0096 -1.60897,0.01921 -2.43784,0.02911 -0.86565,0.0042 -1.73131,0.0085 -2.6232,0.01288 -1.3409,0.0085 -1.3409,0.0085 -2.70889,0.01727 -1.89129,0.0094 -3.78261,0.01598 -5.67392,0.01984 -2.88831,0.0097 -5.77592,0.04073 -8.66406,0.07227 -1.83854,0.0065 -3.67708,0.01178 -5.51563,0.01563 -0.8616,0.01235 -1.72321,0.02469 -2.61093,0.03741 -4.7685,-0.01765 -7.81799,-0.335817 -11.74063,-3.36554 -0.70125,0.66 -1.4025,1.32 -2.125,2 -3.4232,2.381355 -4.78824,2.525662 -8.875,2 -2.30859,-1.835938 -2.30859,-1.835938 -4.4375,-4.375 -0.76055,-0.902344 -1.52109,-1.804688 -2.30469,-2.734375 C 148.49278,68.460484 145.42666,64.172929 142.5,59.75 c -2.05925,0.609033 -2.05925,0.609033 -4,2 -0.5934,2.484099 -0.5934,2.484099 -0.5625,5.3125 -0.24991,4.339344 -0.48002,7.291877 -3.4375,10.6875 -3.20529,2.32107 -6.1216,2.554058 -10,2 -3.81343,-3.220233 -5.83153,-5.265352 -6.31641,-10.257813 -0.0812,-1.276171 -0.16242,-2.552343 -0.24609,-3.867187 -0.0838,-1.281328 -0.16758,-2.562656 -0.25391,-3.882813 -0.0606,-0.987421 -0.12117,-1.974843 -0.18359,-2.992187 -0.36352,0.779238 -0.36352,0.779238 -0.73437,1.574219 C 112.1829,69.859822 106.60406,74.257367 97.164062,78.898437 89.724882,81.276357 79.997904,81.003132 72.9375,77.625 71.427752,76.715605 69.945136,75.758919 68.5,74.75 67.845156,74.315586 67.190313,73.881172 66.515625,73.433594 61.369402,69.573927 58.996513,64.571363 56.5,58.75 c -0.02578,1.024805 -0.05156,2.049609 -0.07813,3.105469 -0.05631,1.360718 -0.113652,2.721393 -0.171875,4.082031 -0.01418,0.673535 -0.02836,1.34707 -0.04297,2.041016 C 55.971478,72.807362 54.913139,75.343277 51.5,78.75 c -3.100489,1.550245 -5.578942,1.28992 -9,1 -3.389396,-2.136793 -4.725826,-3.177477 -6,-7 -0.0821,-1.773139 -0.107463,-3.549208 -0.09766,-5.324219 0.0025,-0.926433 0.005,-1.852866 0.0076,-2.807373 0.0091,-1.17345 0.01821,-2.346899 0.02759,-3.555908 0.02063,-3.733125 0.04125,-7.46625 0.0625,-11.3125 -8.58,0 -17.16,0 -26,0 0.118265,7.015371 0.118265,7.015371 0.270264,14.030029 0.0542,6.375756 -0.471529,10.07125 -5.020294,14.782471 -3.3177918,1.751057 -5.55597275,1.70596 -9.25,1.1875 -2.6301616,-2.172742 -4.4733689,-3.946738 -6,-7 -0.1222408,-2.025095 -0.1802173,-4.054183 -0.2087402,-6.082764 -0.019291,-1.278604 -0.038581,-2.557208 -0.058457,-3.874557 -0.014809,-1.403539 -0.028582,-2.807089 -0.041397,-4.210648 -0.00986,-1.059818 -0.00986,-1.059818 -0.019915,-2.141046 -0.032601,-3.742759 -0.057045,-7.48549 -0.076521,-11.228339 -0.017785,-3.09157 -0.052557,-6.182223 -0.1025388,-9.273437 -0.06035,-3.737166 -0.09096,-7.473485 -0.100634,-11.211115 -0.0085,-1.42056 -0.0273,-2.841099 -0.05674,-4.261379 C -10.409848,7.9766891 -10.409848,7.9766891 -6.6799316,3.369873 -4.3107823,1.0170297 -3.4425402,0.73768719 0,0 Z"
       fill="#e52825"
       transform="translate(130.5,368.25)"
       id="path4" /><path
       d="M 0,0 C 0.66644531,0.44730469 1.3328906,0.89460937 2.0195313,1.3554687 14.250246,9.3781335 26.405421,14.341525 41,16 c 0,-4.62 0,-9.24 0,-14 3.777567,1.8887835 5.344494,3.2335104 8.125,6.25 7.417321,7.550639 17.569487,13.936506 28.347656,14.992187 C 79.31686,23.248693 81.161014,23.138791 83,23 82.48667,18.902697 80.393904,17.171827 77.4375,14.4375 74.933594,12.121094 74.933594,12.121094 73,10 c 0,-0.99 0,-1.98 0,-3 12.186752,1.829156 23.312904,9.938522 30.875,19.328125 7.08206,10.010225 7.20627,21.357303 5.67188,33.15625 C 109.08924,62.007883 108.59205,64.504949 108,67 c 3.80735,-1.31793 6.26914,-2.942222 9.25,-5.625 3.98905,-3.196569 6.63704,-4.117232 11.70703,-3.914063 C 131.5972,58.157578 133.05332,59.083272 135,61 c 1.19722,4.306899 0.69284,8.471966 -1.14063,12.515625 C 129.55784,80.352803 124.20617,83.568493 117,87 c 0,0.66 0,1.32 0,2 0.96422,0.408633 1.92844,0.817266 2.92188,1.238281 2.60218,1.662846 3.03908,2.604865 3.79882,5.657715 0.3842,3.785778 0.52183,7.486024 0.5293,11.291504 0.003,0.99568 0.003,0.99568 0.007,2.01147 -0.0909,12.41953 -0.0909,12.41953 -3.83496,16.53931 -3.44793,2.6629 -7.30327,3.98048 -11.42188,5.26172 -1.33539,0.50369 -2.66876,1.01279 -4,1.52734 C 76.255766,143.03701 39.032853,139.3664 11.411377,126.7937 -4.2131855,119.22287 -16.213723,106.49089 -22,90 c -5.486025,-20.425954 -0.929723,-38.85318 8.861816,-56.899902 1.213548,-2.239154 2.402429,-4.490232 3.5874027,-6.744629 1.5470886,-2.94104 3.1023371,-5.877385 4.6679688,-8.808594 0.3317725,-0.627451 0.6635449,-1.254902 1.0053711,-1.901367 0.6808988,-1.276922 1.384126,-2.54195 2.0961914,-3.801758 C -0.77538033,9.4698976 -0.57742836,7.3140926 -0.375,4.75 -0.30023438,3.8579688 -0.22546875,2.9659375 -0.1484375,2.046875 -0.09945312,1.3714062 -0.05046875,0.6959375 0,0 Z"
       fill="#f4dacc"
       transform="translate(139,197)"
       id="path5" /><path
       d="m 0,0 c 0.66,0 1.32,0 2,0 2.475,4.455 2.475,4.455 5,9 2.5836152,0.054076 5.166093,0.093707 7.75,0.125 0.729609,0.016758 1.459219,0.033516 2.210937,0.050781 C 20.804462,9.2107224 23.746068,9.1749968 27,7 c 0.99,0.99 0.99,0.99 2,2 2.222236,0.4630559 2.222236,0.4630559 4.796875,0.6328125 0.959063,0.083789 1.918125,0.1675781 2.90625,0.2539063 1.005469,0.078633 2.010937,0.1572652 3.046875,0.2382812 0.99,0.08637 1.98,0.172734 3,0.261719 C 52.208847,11.652709 52.208847,11.652709 61,9 c 0.469219,0.5929688 0.938437,1.185938 1.421875,1.796875 3.58295,3.061794 7.370242,4.087898 11.828125,5.453125 0.840469,0.268125 1.680937,0.53625 2.546875,0.8125 C 78.861124,17.719306 80.930124,18.361149 83,19 c 0.609742,62.071735 0.609742,62.071735 -7.75,77.9375 -0.35707,0.690212 -0.714141,1.380425 -1.082031,2.091553 C 73.125312,101.02678 72.065068,103.01416 71,105 c -0.520781,0.99258 -1.041562,1.98516 -1.578125,3.00781 -7.149473,12.84548 -19.787427,19.20755 -33.457031,23.48438 C 16.196189,136.60138 -8.6166259,134.40699 -26.625,124.75 -41.064343,115.40571 -48.592884,102.2262 -53,86 c -0.949849,-4.725806 -1.188477,-9.354368 -1.238281,-14.160156 -0.01002,-0.779082 -0.02004,-1.558165 -0.03036,-2.360855 C -54.556494,41.26233 -54.556494,41.26233 -52.6875,29.375 c 0.147316,-1.229886 0.147316,-1.229886 0.297607,-2.484619 C -51.915199,24.475362 -51.463837,22.982881 -50,21 c 3.486333,-2.051892 7.09192,-3.029248 11,-4 0.959788,-0.2475 1.919575,-0.495 2.908447,-0.75 2.895974,-0.702947 5.798967,-1.33097 8.716553,-1.9375 1.45793,-0.318076 1.45793,-0.318076 2.945313,-0.642578 4.502526,-0.959208 8.862951,-1.743686 13.457031,-2.072266 C -7.687622,11.29458 -7.687622,11.29458 -5.0976562,9.2578125 -4.7560547,8.5539844 -4.4144531,7.8501563 -4.0625,7.125 -3.7028516,6.4263281 -3.3432031,5.7276562 -2.9726563,5.0078125 -2.6516797,4.3452344 -2.3307031,3.6826563 -2,3 -1.34,2.01 -0.68,1.02 0,0 Z"
       fill="#f4dacb"
       transform="translate(369,218)"
       id="path6" /><path
       d="m 0,0 c 5.5139866,2.5619648 9.16312,6.6715994 12,12 0.458993,3.14708 0.381512,6.203538 0.25,9.375 -0.01805,0.831445 -0.03609,1.662891 -0.05469,2.519531 C 12.148516,25.930191 12.076783,27.965251 12,30 c 3.3,0 6.6,0 10,0 C 21.94199,28.709648 21.883984,27.419297 21.824219,26.089844 21.777299,24.372432 21.731799,22.654981 21.6875,20.9375 21.6456,20.089941 21.60371,19.242383 21.560547,18.369141 21.455444,12.924799 22.155044,9.602985 25.665283,5.3649902 29.506804,1.4363374 34.059977,-0.20924016 39.5,-0.5 c 6.08532,0.30479153 10.707898,2.6135767 14.875,7 0.53625,0.825 1.0725,1.65 1.625,2.5 0.587812,0.8971875 0.587812,0.8971875 1.1875,1.8125 C 58.426838,14.149179 58.64625,17.462502 59,21 c 0.68707,-0.277148 1.374141,-0.554297 2.082031,-0.839844 0.901055,-0.362226 1.80211,-0.724453 2.730469,-1.097656 0.89332,-0.359648 1.786641,-0.719297 2.707031,-1.089844 9.627626,-3.775242 20.708045,-3.056994 30.148438,0.957031 C 97.437539,19.282891 98.207109,19.636094 99,20 c 1.66409,0.673064 3.33008,1.341524 5,2 -0.0464,-0.652266 -0.0928,-1.304531 -0.14062,-1.976563 C 103.61396,14.080826 103.9007,10.638687 108,6 c 2.94841,-2.9011111 5.73395,-5.61217707 10,-6 1.0725,-0.103125 2.145,-0.20625 3.25,-0.3125 6.08893,0.50741105 10.70742,2.7577554 14.6875,7.4375 3.13661,4.372245 3.18784,7.260296 3.125,12.5 -0.005,0.706406 -0.009,1.412812 -0.0137,2.140625 C 139.03704,23.510453 139.0191,25.255237 139,27 c 0.66,0 1.32,0 2,0 0.33,-0.99 0.66,-1.98 1,-3 4.08984,-3.328942 6.72612,-4.502274 12,-4 -0.009,-0.556875 -0.018,-1.11375 -0.0273,-1.6875 0.23787,-6.122555 1.99801,-9.2354494 6.14062,-13.6835938 3.11625,-2.6904268 5.79737,-3.87119933 9.91406,-3.93530268 0.78182,-0.0159874 1.56364,-0.0319748 2.36914,-0.0484467 0.83854,-0.005363 1.67707,-0.0107254 2.54102,-0.0162506 0.87592,-0.009028 1.75184,-0.0180569 2.6543,-0.027359 1.85592,-0.0144994 3.71189,-0.0233885 5.56787,-0.0270844 2.80316,-0.0118063 5.60405,-0.0609153 8.40674,-0.11157227 11.66666,-0.10504413 21.15403,0.67760045 30.87109,7.84960935 3.69199,3.8720831 7.42837,7.9102571 7.69531,13.4375001 -0.0657,1.11375 -0.0657,1.11375 -0.13281,2.25 0.66387,-0.409922 1.32773,-0.819844 2.01172,-1.242188 0.88301,-0.538828 1.76601,-1.077656 2.67578,-1.632812 1.30518,-0.800508 1.30518,-0.800508 2.63672,-1.617188 C 244.82015,15.283829 252.56025,14.923573 261,16 c 4.25491,1.250897 8.0808,2.940547 12,5 0.76828,0.384141 1.53656,0.768281 2.32812,1.164062 0.55172,0.27586 1.10344,0.551719 1.67188,0.835938 0.9075,-0.825 1.815,-1.65 2.75,-2.5 5.95131,-4.282039 13.17194,-2.954141 20.0625,-1.9375 3.64694,0.500561 6.54752,-0.02954 10.1875,-0.5625 9.06823,-0.679632 16.76444,-1.049166 24,5 6.30686,5.79984 10.00423,12.180712 10.40405,20.852051 0.0262,1.780921 0.0353,3.562156 0.0295,5.343261 0.005,0.951077 0.0105,1.902153 0.0159,2.88205 0.006,1.998454 0.005,3.996946 -0.003,5.995392 -0.009,3.050647 0.0204,6.099438 0.052,9.149902 0.002,1.949218 0.001,3.89844 -0.002,5.847656 0.0112,0.906383 0.0225,1.812765 0.0341,2.746613 -0.0729,6.643597 -1.45006,10.012622 -6.1278,14.827606 C 332.47804,95.368179 327.38865,95.731445 320,95 c -5.65884,-2.51504 -8.1213,-6.752097 -11,-12 -0.4125,0.556875 -0.825,1.11375 -1.25,1.6875 -0.5775,0.763125 -1.155,1.52625 -1.75,2.3125 -0.61875,0.845625 -1.2375,1.69125 -1.875,2.5625 -3.04075,3.487917 -5.61334,5.227495 -10.24609,5.871094 C 282.5777,95.446905 282.5777,95.446905 278,91 c 0,-0.66 0,-1.32 0,-2 -1.21236,0.524004 -1.21236,0.524004 -2.44922,1.058594 -1.06863,0.455039 -2.13726,0.910078 -3.23828,1.378906 -1.58361,0.678691 -1.58361,0.678691 -3.19922,1.371094 -8.52036,3.260616 -19.00428,3.955827 -27.6875,0.957031 C 236.9617,91.547309 232.93315,89.060138 229,86 c -2.161,1.077994 -4.31881,2.16167 -6.47266,3.253906 -1.28197,0.647754 -1.28197,0.647754 -2.58984,1.308594 -0.85723,0.434414 -1.71445,0.868828 -2.59766,1.316406 -3.55189,1.701824 -6.23826,2.242599 -10.13086,2.21875 -0.9711,-0.0033 -1.94221,-0.0066 -2.94274,-0.01001 -1.04692,-0.0083 -2.09384,-0.0166 -3.17249,-0.02515 -1.61437,-0.0057 -1.61437,-0.0057 -3.26135,-0.01148 -4.61199,-0.01638 -9.22388,-0.04454 -13.83582,-0.07153 -3.36344,-0.01803 -6.72686,-0.03016 -10.09033,-0.04199 -1.04692,-0.0083 -2.09384,-0.0166 -3.17249,-0.02515 -0.9711,-0.0033 -1.94221,-0.0066 -2.94274,-0.01001 -1.28216,-0.0079 -1.28216,-0.0079 -2.59021,-0.01587 C 162.82209,93.911004 162.82209,93.911004 160,95 154.73251,95.504422 150.36821,95.671666 145.5625,93.3125 143.04682,91.042249 141.04109,88.697158 139,86 c -0.66,-0.33 -1.32,-0.66 -2,-1 -0.165,0.721875 -0.33,1.44375 -0.5,2.1875 -2.24121,4.20226 -5.08431,6.108807 -9.5,7.8125 -5.86695,0.971349 -11.16654,1.09628 -16.1875,-2.375 C 108,90 108,90 107,88 103.39333,89.311515 100.20842,90.984686 96.941406,93 88.378851,97.410491 77.801275,97.343886 68.625,94.8125 63.77734,93.120699 59.371072,90.671211 55,88 54.329043,88.614883 54.329043,88.614883 53.644531,89.242187 48.339248,93.970563 44.469177,96.52625 37.054687,96.316406 32.261323,95.578265 28.910083,93.00847 25.6875,89.4375 c -3.939146,-5.689877 -3.939146,-5.689877 -3.882813,-9.886719 0.0064,-0.847558 0.01289,-1.695117 0.01953,-2.568359 0.01676,-0.881074 0.03352,-1.762149 0.05078,-2.669922 0.009,-0.892676 0.01805,-1.785352 0.02734,-2.705078 C 21.925901,69.404833 21.961772,67.202383 22,65 c -3.3,0 -6.6,0 -10,0 0.04641,1.229766 0.09281,2.459531 0.140625,3.726562 0.03754,1.632789 0.07393,3.265603 0.109375,4.898438 0.05027,1.212363 0.05027,1.212363 0.101563,2.449219 0.103407,6.359566 -1.419748,9.836502 -5.8789068,14.535156 -4.9373037,3.993609 -8.8716338,5.969691 -15.3554687,5.761719 -5.4781055,-0.960185 -9.4098715,-4.136032 -12.7001955,-8.481934 -3.889453,-6.375322 -3.115196,-13.77849 -3.045898,-20.990723 -8.3e-4,-1.566031 -0.0033,-3.132062 -0.0073,-4.698089 -0.0028,-3.269851 0.01174,-6.539014 0.03929,-9.808746 0.03414,-4.180909 0.02804,-8.360592 0.0093,-12.54156 -0.01059,-3.229224 -0.0016,-6.458166 0.01338,-9.687364 0.0052,-1.541295 0.0047,-3.082619 -0.0015,-4.623909 -0.0055,-2.156307 0.015,-4.310883 0.0423,-6.466992 0.0062,-1.223854 0.0124,-2.447708 0.01878,-3.708648 C -23.484417,8.6308671 -19.140634,4.9113521 -14,1 -9.7522287,-1.1238857 -4.6006193,-0.60534465 0,0 Z m -14.749481,12.550964 c -2.702882,5.293367 -2.037731,11.368267 -1.941925,17.175598 0.0036,1.43533 0.0049,2.870667 0.0042,4.306 0.0047,2.997737 0.02939,5.994388 0.06981,8.991852 0.05106,3.834552 0.06244,7.667919 0.06017,11.502771 8.17e-4,2.959837 0.01729,5.919417 0.039,8.879168 0.0095,1.41372 0.01545,2.827469 0.01768,4.241219 0.0065,1.97647 0.0352,3.952829 0.06479,5.929088 0.01143,1.122502 0.02287,2.245003 0.03465,3.40152 0.452877,3.411574 1.352147,5.277667 3.401138,8.02182 3.7687587,2.512506 5.5315013,2.530161 10,2 3.47681295,-2.013299 5.7051205,-4.115361 7,-8 0.081781,-1.700168 0.107495,-3.403363 0.097656,-5.105469 -0.0025,-0.885827 -0.005,-1.771655 -0.00757,-2.684326 C 4.0809839,70.088962 4.0718799,68.96772 4.0625,67.8125 4.041875,64.244375 4.02125,60.67625 4,57 c 8.58,0 17.16,0 26,0 -0.1875,11.1875 -0.1875,11.1875 -0.270264,14.688232 -0.01124,1.382157 -0.01124,1.382157 -0.0227,2.792237 -0.02357,1.406085 -0.02357,1.406085 -0.04761,2.840576 C 30.070923,80.557873 31.081635,82.379609 33,85 c 3.737386,2.49159 5.573316,2.457933 10,2 2.75329,-1.795624 4.526275,-3.052549 6,-6 0.231728,-2.54615 0.418945,-5.073962 0.5625,-7.625 0.06477,-1.059609 0.06477,-1.059609 0.130859,-2.140625 C 49.799448,69.489815 49.900229,67.744933 50,66 c 0.402187,0.960996 0.402187,0.960996 0.8125,1.941406 3.903606,8.616184 9.504066,14.852732 18.449219,18.390625 10.120323,2.468724 19.26771,1.530318 28.3125,-3.683594 C 100.45886,80.68818 102.78496,78.699584 105,76 c 0.72187,-0.825 1.44375,-1.65 2.1875,-2.5 1.7814,-2.457098 2.74534,-4.679324 3.8125,-7.5 0.0258,0.941016 0.0516,1.882031 0.0781,2.851562 0.22309,9.423627 0.22309,9.423627 4.9219,17.148438 2.86608,1.433041 4.81301,1.306442 8,1 4.68667,-2.473015 4.68667,-2.473015 7,-7 0.1895,-2.834017 0.31647,-5.665697 0.42578,-8.503906 C 131.61527,70.672383 131.80477,69.848672 132,69 c 2.03589,-1.156006 2.03589,-1.156006 4,-2 0.34257,0.46374 0.68514,0.92748 1.03809,1.405273 1.5672,2.117474 3.1395,4.231115 4.71191,6.344727 0.53883,0.729609 1.07766,1.459219 1.63281,2.210937 4.57868,6.924668 4.57868,6.924668 11.49219,10.539063 3.8424,-0.614784 6.05793,-2.163184 9.125,-4.5 0.47349,0.486057 0.94698,0.972114 1.43481,1.4729 3.79406,2.258666 7.26788,1.97572 11.60816,1.960694 0.88303,0.0052 1.76606,0.01048 2.67586,0.01588 1.86853,0.0064 3.73711,0.0051 5.60563,-0.0034 2.83596,-0.0085 5.66987,0.02018 8.50562,0.052 1.82096,0.0016 3.64193,10e-4 5.46289,-0.002 0.83782,0.01123 1.67565,0.02247 2.53886,0.03404 C 209.93192,86.436007 217.12325,83.703906 223,78 c 2.50798,-3.459278 3,-4.612534 3,-9 0.66,0 1.32,0 2,0 0.22687,0.70125 0.45375,1.4025 0.6875,2.125 3.46493,7.589854 9.09684,11.120413 16.3125,14.875 9.25926,3.08642 17.85066,0.288594 26.375,-3.5 3.30309,-1.751249 3.30309,-1.751249 5.625,-4.5 0.3931,-3.095629 0.62339,-5.043366 0,-8 -1.91182,-2.74613 -1.91182,-2.74613 -5,-4 -3.34822,0.117481 -5.89261,0.385306 -8.84375,2.023437 -2.77283,1.255811 -5.05669,1.384647 -8.09375,1.476563 -1.01965,0.05156 -2.0393,0.103125 -3.08984,0.15625 C 247.65204,68.70242 246.53338,66.545794 244,63 c 1.36935,0.03142 1.36935,0.03142 2.76636,0.06348 3.40131,0.06835 6.80188,0.118406 10.20361,0.15625 1.46952,0.02006 2.93896,0.04732 4.4082,0.08203 2.11763,0.04876 4.23421,0.07126 6.3523,0.08887 1.27255,0.02095 2.54509,0.04189 3.8562,0.06348 C 275.54102,62.928024 277.16785,61.735146 280,59 c -10e-4,0.599495 -0.002,1.198989 -0.003,1.81665 0.0122,2.749723 0.07,5.496737 0.12842,8.24585 -0.004,1.414424 -0.004,1.414424 -0.008,2.857422 0.16552,5.937952 1.00992,9.613851 5.2876,13.884521 1.60718,1.359984 1.60718,1.359984 4.00927,1.836182 0.72961,-0.128906 1.45922,-0.257813 2.21094,-0.390625 0.73477,-0.09797 1.46953,-0.195938 2.22656,-0.296875 C 296.96365,85.572489 298.14323,83.842266 300,81 c 0.55886,-3.491452 0.55886,-3.491452 0.43359,-7.3125 0.01,-1.419272 0.0194,-2.838543 0.0293,-4.257813 -0.009,-2.218552 -0.0255,-4.436815 -0.0476,-6.655273 -0.0145,-2.154542 7.5e-4,-4.30743 0.0183,-6.461914 -0.01,-1.282617 -0.0195,-2.565234 -0.0295,-3.886719 C 301.15492,48.109454 302.54784,46.620671 306,44 c 3.44566,0 5.78343,0.192765 8.68774,2.119873 2.02684,2.903933 1.68138,5.460825 1.68335,8.962158 0.0174,1.421227 0.035,2.84245 0.0527,4.263672 0.01,2.231573 0.0137,4.462986 0.012,6.69458 0.004,2.160227 0.031,4.319239 0.0603,6.479248 0.002,1.29011 0.004,2.58022 0.006,3.909424 0.58031,4.158818 1.88134,6.327248 4.49829,9.571045 2.82001,1.410007 4.87007,1.245485 8,1 2.65135,-1.20516 4.41026,-2.180585 6.11963,-4.555664 1.34352,-3.730253 1.20574,-7.367053 1.21631,-11.303711 0.007,-0.863209 0.0133,-1.726417 0.0202,-2.615784 0.0101,-1.825641 0.0148,-3.65132 0.0145,-5.476989 0.004,-2.774395 0.0406,-5.547178 0.0786,-8.32129 0.006,-1.77864 0.01,-3.557288 0.0117,-5.335937 0.0215,-1.231669 0.0215,-1.231669 0.0435,-2.48822 C 336.45215,40.205601 334.64363,34.90962 330.09766,29.90625 323.61012,25.423498 317.74422,24.960776 310,26 c -2.60139,0.760059 -4.58489,1.715369 -7,3 -2.125,0.9375 -2.125,0.9375 -4,1 -1.14469,-0.959063 -1.14469,-0.959063 -2.3125,-1.9375 -2.59602,-2.341401 -2.59602,-2.341401 -6.1875,-2.5625 -4.03761,0.576802 -5.6465,1.646502 -8.5,4.5 -1.14815,2.2963 -1.3077,4.076981 -1.5625,6.625 -0.0838,0.817266 -0.16758,1.634531 -0.25391,2.476562 C 280.12301,39.728047 280.06242,40.354531 280,41 279.505,40.154375 279.01,39.30875 278.5,38.4375 274.02668,31.743382 267.40865,26.607977 259.6875,24.3125 258.80063,24.209375 257.91375,24.10625 257,24 256.37609,23.912344 255.75219,23.824687 255.10937,23.734375 247.76806,23.153407 242.03405,26.018351 236,30 c -7.32524,6.253253 -10.82374,13.766732 -13,23 -6.42857,-5.285714 -6.42857,-5.285714 -9,-8 0.60328,-0.259102 1.20656,-0.518203 1.82812,-0.785156 C 219.61523,42.096518 221.36656,38.945885 223,35 224.193,28.990838 223.62983,24.283971 220.375,19.0625 216.21488,13.593799 211.58139,10.82157 205,9 c -2.83536,-0.3046497 -5.65375,-0.3510531 -8.50391,-0.3710937 -0.8009,-0.00903 -1.60181,-0.018057 -2.42698,-0.027359 -1.68503,-0.014444 -3.37011,-0.023374 -5.05519,-0.027084 -2.57266,-0.011945 -5.14294,-0.061225 -7.71509,-0.1115723 -1.64257,-0.00946 -3.28515,-0.016697 -4.92774,-0.021484 -0.7647,-0.019532 -1.5294,-0.039065 -2.31727,-0.059189 -3.96275,0.033403 -5.84843,0.4611424 -9.03282,2.889756 -1.96458,2.651866 -2.65448,3.723525 -2.72803,6.935058 -0.029,0.750879 -0.058,1.501758 -0.0879,2.275391 -0.009,1.153389 -0.009,1.153389 -0.0176,2.330078 -0.0251,0.788262 -0.0503,1.576523 -0.0762,2.388672 C 162.05277,27.133584 162.02345,29.066843 162,31 161.40703,30.517891 160.81406,30.035781 160.20312,29.539062 156.8718,27.211863 154.99005,27.334992 151,28 c -2.10684,1.392658 -3.82625,2.949368 -5.63379,4.712402 -2.66103,2.572626 -5.38889,5.060384 -8.13184,7.54541 -0.50547,0.458343 -1.01094,0.916685 -1.53173,1.388917 C 134.46902,42.765146 133.2346,43.882667 132,45 c 0.001,-0.912898 0.002,-1.825796 0.003,-2.766357 -0.01,-3.402191 -0.0466,-6.801957 -0.10108,-10.203614 -0.0181,-1.469308 -0.0257,-2.938786 -0.0225,-4.408203 0.003,-2.118757 -0.0326,-4.234023 -0.0752,-6.352295 -0.0105,-1.272546 -0.0209,-2.545093 -0.0317,-3.856201 C 130.7042,12.69375 128.9521,11.676854 125,9 c -3.1625,-1.0236658 -4.55869,-0.6008629 -8,0 -3.63979,2.853804 -4.7869,4.606214 -5.49097,9.211182 -0.2261,3.89124 -0.30608,7.767652 -0.32153,11.663818 -0.0232,1.369831 -0.0485,2.739627 -0.0762,4.109375 C 111.05255,37.323208 111.0162,40.660733 111,44 110.61256,43.395269 110.22511,42.790537 109.82593,42.16748 104.12573,33.416784 98.144823,26.874388 87.640625,24.457031 77.365433,22.678633 69.721294,24.206305 61,30 c -5.541884,4.417444 -8.420355,8.484239 -11,15 -0.0041,-0.912898 -0.0082,-1.825796 -0.01245,-2.766357 -0.02704,-3.401991 -0.07619,-6.802194 -0.140137,-10.203614 -0.02313,-1.469288 -0.03756,-2.938742 -0.04297,-4.408203 -0.0093,-2.118469 -0.05038,-4.234367 -0.09741,-6.352295 -0.01571,-1.272546 -0.03142,-2.545093 -0.04761,-3.856201 C 48.838958,13.166411 47.303202,11.698245 44,9 41.146756,7.5733778 39.165455,7.6896613 36,8 c -2.699907,1.7999377 -4.541887,3.083773 -6,6 -0.08471,1.813418 -0.107211,3.629942 -0.09766,5.445312 0.0025,0.969537 0.005,1.939073 0.0076,2.937989 0.0091,1.234761 0.01821,2.469521 0.02759,3.741699 C 29.958125,30.04375 29.97875,33.9625 30,38 21.42,38 12.84,38 4,38 4.3125,26.875 4.3125,26.875 4.4504394,23.401855 4.5915771,16.892856 4.5915771,16.892856 1.6054687,11.320313 -1.3826801,8.6592024 -2.3158262,8.1052575 -6.25,7.5 c -4.53669,0.6048921 -5.715811,1.5852646 -8.499481,5.050964 z"
       fill="#fef9f7"
       transform="translate(137,361)"
       id="path7" /><path
       d="M 0,0 C 2.6439141,0.0215012 5.285121,3.791e-5 7.9289551,-0.02539062 20.585418,-0.04807391 34.596706,0.14401779 44.641846,8.7714844 c 1.514157,1.5499046 2.995507,3.1327376 4.4375,4.7499996 0.689648,0.733477 1.379297,1.466954 2.089843,2.222657 6.774462,7.411732 6.774462,7.411732 7.027344,11.820312 -0.664888,5.887482 -2.438146,10.686174 -5.117187,15.957031 -6.720459,-2.190371 -13.36724,-4.557656 -20,-7 0,-2.97 0,-5.94 0,-9 -1.65,0 -3.3,0 -5,0 -0.309375,0.969375 -0.61875,1.93875 -0.9375,2.9375 -1.0625,3.0625 -1.0625,3.0625 -2.0625,4.0625 -9.03006,0.405578 -18.016351,-0.06316 -27.0000003,-1 -0.99,-4.455 -0.99,-4.455 -2,-9 -1.32,0 -2.64,0 -4,0 -0.185625,1.11375 -0.185625,1.11375 -0.375,2.25 -0.625,2.75 -0.625,2.75 -2.6249997,6.75 -3.96,0 -7.92,0 -12,0 -0.705762,-1.390254 -0.705762,-1.390254 -1.425782,-2.808593 -0.628397,-1.2099 -1.257331,-2.419521 -1.886718,-3.628907 -0.308731,-0.61166 -0.617461,-1.22332 -0.935547,-1.853515 -1.933892,-3.872571 -1.933892,-3.872571 -5.751953,-5.708985 -0.226875,0.804375 -0.45375,1.60875 -0.6875,2.4375 -0.433125,1.175625 -0.86625,2.35125 -1.3125,3.5625 -0.248064,0.72679 -0.496128,1.453579 -0.751709,2.202393 -1.689509,3.936933 -3.016312,6.26315 -7.039063,8.008301 -3.51656,0.859013 -7.006995,1.485314 -10.584228,2.039306 -2.527208,0.4611 -5.053275,0.928506 -7.578125,1.402344 -1.213653,0.221558 -2.427305,0.443115 -3.677735,0.671387 -6.943619,1.393755 -14.019325,3.501362 -20.36914,6.676269 -0.623669,2.366361 -1.126467,4.660856 -1.5625,7.0625 -0.248789,1.290352 -0.497578,2.580703 -0.753907,3.910157 -1.33489,7.189637 -1.857447,14.242155 -1.921875,21.539062 -0.0081,0.890083 -0.01614,1.780165 -0.02446,2.69722 -0.01376,1.874915 -0.02451,3.749853 -0.03242,5.624802 -0.0115,1.89363 -0.03193,3.787229 -0.06152,5.680664 -0.310062,19.894241 3.473787,35.932011 16.719971,51.524661 1.636719,1.96093 1.636719,1.96093 2.636719,3.96093 -8.349866,1.94426 -17.525858,3.82718 -26,2 -3.122818,-2.90432 -4.719684,-5.95524 -5.999994,-10 0,-0.99 0,-1.98 0,-3 -0.66,0 -1.32,0 -2,0 -0.28875,0.88688 -0.5775,1.77375 -0.875,2.6875 -0.95679,2.81722 -2.00769,5.55678 -3.125,8.3125 -14.06897,-0.51724 -14.06897,-0.51724 -19,-5 -1.13547,-2.55007 -1.24324,-4.23072 -0.39991,-6.89794 0.9402,-2.25909 1.9638,-4.45971 3.02491,-6.66456 0.74986,-1.61534 1.49856,-3.23123 2.24609,-4.84765 0.55083,-1.1778 0.55083,-1.1778 1.11279,-2.3794 1.3194,-2.8702 2.51938,-5.78222 3.70362,-8.71045 1.40195,-3.4327 2.91902,-6.68098 4.6875,-9.9375 5.63318,-11.319346 9.25289,-23.119942 11.05468,-35.617183 0.11741,-0.79506 0.23482,-1.590119 0.35579,-2.409271 0.58219,-3.998003 1.1088,-7.993116 1.55803,-12.00821 0.891972,-7.040466 1.762386,-12.611858 7.218994,-17.66455 1.776371,-1.337158 3.589647,-2.626785 5.4375,-3.863282 0.838132,-0.613432 1.676264,-1.226865 2.539795,-1.858886 2.508634,-1.805199 5.059469,-3.514843 7.647705,-5.203614 0.914187,-0.600703 1.828374,-1.201406 2.770263,-1.820312 C -51.065159,8.7656869 -27.540973,-0.26552899 0,0 Z"
       fill="#562e17"
       id="path8"
       transform="translate(400.92065,190.47852)" /><path
       d="M 0,0 C 0.88042969,0.00902344 1.7608594,0.01804688 2.6679688,0.02734375 34.090767,0.8388364 67.302537,17.951885 88.75,40.4375 c 5.494502,6.417722 9.441435,12.944322 12,21 0.51119,1.56899 0.51119,1.56899 1.03271,3.169678 0.99644,3.94575 1.25708,7.563703 1.23292,11.599853 0.002,0.721044 0.004,1.442089 0.006,2.184983 0.001,1.516874 -0.002,3.033761 -0.0107,4.550613 -0.0107,2.290881 -1e-4,4.58097 0.0127,6.871826 0.0198,19.183167 0.0198,19.183167 -4.27344,25.623047 -0.571055,-0.89719 -1.142109,-1.79438 -1.730469,-2.71875 C 74.176391,77.346871 43.687556,54.683273 2.75,44.4375 1.6014453,44.137148 0.45289063,43.836797 -0.73046875,43.527344 -13.763453,40.574666 -26.957044,41.153026 -40.25,41.4375 c 1.870054,-6.286477 5.071157,-11.270301 8.602295,-16.749268 1.075611,-1.673307 2.134214,-3.357508 3.192627,-5.041748 C -20.951307,7.9249074 -14.662312,-0.18129598 0,0 Z"
       fill="#f7b41b"
       transform="translate(196.25,129.5625)"
       id="path9" /><path
       d="m 0,0 c 6.6659042,5.4724643 10.477644,11.77802 14.25,19.4375 0.502734,0.985488 1.005469,1.970977 1.523438,2.986328 C 24,38.672366 24,38.672366 24,42 22.964883,41.855625 21.929766,41.71125 20.863281,41.5625 1.0412205,39.024681 -20.583795,37.532099 -40,43 c -0.705923,0.198677 -1.411846,0.397354 -2.13916,0.602051 C -53.389114,46.853553 -63.760278,51.347799 -74,57 c -0.929092,0.508052 -0.929092,0.508052 -1.876953,1.026367 -10.291933,5.6979 -19.498628,12.600233 -28.687007,19.923096 C -106,79 -106,79 -107,79 c -0.0251,-0.837729 -0.0501,-1.675459 -0.0759,-2.538574 -0.0951,-3.104949 -0.19431,-6.209728 -0.29638,-9.314453 -0.0647,-2.005921 -0.12452,-4.011995 -0.18433,-6.018067 -0.0419,-1.256836 -0.0838,-2.513672 -0.12695,-3.808594 -0.0367,-1.162573 -0.0733,-2.325146 -0.11109,-3.522949 C -107.81822,51.04645 -107.81822,51.04645 -109,49 c -0.98214,-7.716813 1.86589,-12.601292 6,-19 0.39832,-0.629063 0.79664,-1.258125 1.20703,-1.90625 C -88.318704,9.9569615 -57.785332,0.41674472 -36.591064,-3.6184082 -25.3573,-5.2728295 -9.9131509,-6.2361661 0,0 Z"
       fill="#f6b41b"
       transform="translate(411,146)"
       id="path10" /><path
       d="M 0,0 C 1.0184299,-0.00101212 1.0184299,-0.00101212 2.0574341,-0.00204468 11.944682,0.01361128 21.084376,0.42860392 30.625,3.25 31.929621,3.6057145 33.234311,3.9611711 34.539062,4.3164062 70.373229,14.462043 100.48029,38.655065 118.875,70.9375 c 0.37069,0.646626 0.74137,1.293252 1.12329,1.959473 2.57384,4.717776 4.27059,8.809655 2.91748,14.154541 -0.57899,1.418895 -0.57899,1.418895 -1.16968,2.866455 -0.42732,1.058965 -0.85464,2.117929 -1.29492,3.208984 -0.45826,1.092481 -0.91652,2.184961 -1.38867,3.310547 -0.43119,1.073145 -0.86238,2.146289 -1.30664,3.251953 -2.92219,7.134987 -6.28667,13.880347 -10.13086,20.560547 -0.56594,0.98795 -0.56594,0.98795 -1.14331,1.99585 -0.95367,1.63783 -1.93549,3.25918 -2.91919,4.87915 -0.63035,1.0493 -1.2607,2.09859 -1.91016,3.17969 -2.080693,3.02282 -4.357629,5.43754 -7.02734,7.94531 -0.03758,-1.05127 -0.03758,-1.05127 -0.07593,-2.12378 -0.116337,-3.18807 -0.238892,-6.37588 -0.361572,-9.56372 -0.03932,-1.10279 -0.07863,-2.20559 -0.119141,-3.3418 -0.04189,-1.0667 -0.08379,-2.1334 -0.126953,-3.23242 -0.03666,-0.97928 -0.07331,-1.95857 -0.111084,-2.96753 -0.197515,-2.6654 -0.621052,-5.16545 -1.205322,-7.77075 0.86625,-0.495 1.7325,-0.99 2.625,-1.5 5.710652,-3.81612 9.944682,-9.777511 11.375002,-16.5 0.45297,-4.227694 0.28654,-6.426928 -1.625,-10.25 -3.50173,-4.054631 -6.455649,-5.501195 -11.750002,-6.1875 -3.335938,0.402613 -4.961633,0.954063 -7.851563,2.464844 -0.70979,0.367302 -1.41958,0.734604 -2.150878,1.113037 C 82.444392,78.815892 82.444392,78.815892 81.625,79.25 81.568926,77.474961 81.568926,77.474961 81.511719,75.664062 80.99596,62.201613 79.920285,52.608155 70.625,42.25 70.077148,41.620937 69.529297,40.991875 68.964844,40.34375 61.957624,32.789868 51.080974,25.864855 40.6875,24.875 c -3.166795,0.06868 -3.166795,0.06868 -5.0625,2.375 0.271675,4.799598 1.254378,8.060629 4,12 C 29.907238,38.751653 23.204716,31.142745 16.886719,24.519531 13.024909,20.476776 13.024909,20.476776 7.875,19.0625 7.1325,19.124375 6.39,19.18625 5.625,19.25 c -2.4469767,4.362002 -3.5026935,8.026935 -4,13 -11.684157,-1.062196 -23.605237,-5.605237 -32,-14 -0.5,-3.3125 -0.5,-3.3125 0,-7 2.6875,-2.625 2.6875,-2.625 4.351563,-3.8046875 C -24.099184,6.1305243 -24.099184,6.1305243 -21.8125,3.5 -16.256753,-1.6283815 -7.1439437,0.00632549 0,0 Z"
       fill="#562e17"
       transform="translate(172.375,174.75)"
       id="path11" /><path
       d="m 0,0 c 1.5857805,0.57664747 3.1689387,1.1605364 4.75,1.75 6.083346,2.126218 12.076129,4.0559633 18.375,5.4375 5.168312,1.2447243 8.010134,2.6622498 11.625,6.5625 2.550543,4.345699 2.713023,8.067646 2,13 -3.468194,11.059521 -8.666836,22.081383 -19,28 -6.817951,3.550735 -13.2384979,4.037656 -20.625,2 C -13.62621,50.378913 -17.061245,39.138483 -20.066406,27.621094 -21.801058,19.093401 -22.871794,10.45299 -18.25,2.75 -12.550292,-2.4195029 -6.9169168,-2.2639457 0,0 Z"
       fill="#090807"
       transform="translate(160.25,262.25)"
       id="path12" /><path
       d="M 0,0 C 1.9880704,3.092554 1.6411551,5.1369143 1.125,8.75 -2.6646982,18.20884 -9.7125425,23.606614 -18.585937,28.132812 -30.53478,32.919044 -45.229483,32.283875 -57.199219,27.949219 -63.942876,24.926879 -68.799446,20.938886 -71.625,13.875 c -0.12375,-1.051875 -0.12375,-1.051875 -0.25,-2.125 -0.07477,-0.621328 -0.149531,-1.242656 -0.226562,-1.8828125 C -72.150547,9.1685156 -72.199531,8.4698438 -72.25,7.75 c -0.04898,-0.66 -0.09797,-1.32 -0.148437,-2 0.838636,-3.2043408 2.820656,-4.217865 5.523437,-6 C -48.267053,-7.8929957 -17.569247,-11.712831 0,0 Z"
       fill="#0d0c0b"
       transform="translate(424.875,304.25)"
       id="path13" /><path
       d="M 0,0 C 1.3351971,0.92553438 2.6626512,1.8623831 3.9804688,2.8125 5.7578781,4.0938257 5.7578781,4.0938257 8.375,3.3046875 c 0.763125,-0.495 1.52625,-0.99 2.3125,-1.5 1.392188,-0.804375 1.392188,-0.804375 2.8125,-1.625 0.721875,-0.45375 1.44375,-0.9075 2.1875,-1.375 -0.543398,4.5645425 -1.794638,7.9728176 -4,12.0000005 3.465,-1.4850005 3.465,-1.4850005 7,-3.0000005 -1.646843,5.7006095 -1.646843,5.7006095 -3.560303,7.3227535 -2.145559,2.499575 -1.747469,4.457592 -1.662353,7.700684 0.02804,1.778906 0.02804,1.778906 0.05664,3.59375 0.03416,1.240078 0.06832,2.480156 0.103516,3.757812 0.0601,2.445102 0.111232,4.890444 0.152344,7.335938 0.02957,1.085874 0.05914,2.171748 0.0896,3.290527 -0.184505,3.083116 -0.86895,5.221821 -2.179443,7.998535 -0.760305,0.01982 -1.52061,0.03964 -2.3039551,0.06006 -3.5031484,0.09628 -7.0057826,0.205537 -10.5085449,0.314941 -1.7934082,0.04641 -1.7934082,0.04641 -3.6230469,0.09375 -7.3612251,0.240695 -14.3650221,0.962912 -21.5644531,2.53125 -3.060993,-6.75362 -3.457737,-12.511398 -3.375,-19.875 -0.0116,-1.024804 -0.0232,-2.049609 -0.03516,-3.105468 0.03783,-9.923501 1.541839,-18.125421 8.601562,-25.3906252 C -15.449055,-1.6749165 -7.0602389,-3.6493802 0,0 Z"
       fill="#0a0a0a"
       transform="translate(364.3125,237.19531)"
       id="path14" /><path
       d="m 0,0 c 3.9444758,1.33593 7.0556191,3.0556191 10,6 4.132633,-0.3443861 7.381082,-2.0642997 11,-4 -0.531151,4.514784 -2.366203,7.3466686 -5,11 3.465,-0.495 3.465,-0.495 7,-1 -1.44077,3.361798 -3.2475,5.591563 -6,8 -0.66,0 -1.32,0 -2,0 0.05221,1.740234 0.05221,1.740234 0.105469,3.515625 C 15.295761,32.713758 15.169482,41.21413 12,50 11.67,50.33 11.34,50.66 11,51 9.0390625,50.914062 9.0390625,50.914062 6.625,50.625 5.4377734,50.489648 5.4377734,50.489648 4.2265625,50.351562 2,50 2,50 -1,49 c -1.9076428,-0.07111 -3.8177168,-0.0841 -5.7265625,-0.0625 -1.670625,0.0116 -1.670625,0.0116 -3.3750005,0.02344 -1.162734,0.01289 -2.325468,0.02578 -3.523437,0.03906 -2.304642,0.02538 -4.609337,0.04646 -6.914062,0.0625 -1.023033,0.0116 -2.046065,0.0232 -3.100098,0.03516 C -26,49 -26,49 -27,48 -28.217282,34.117952 -27.789835,20.941026 -21.125,8.5 -14.840522,1.1064964 -9.6478362,-0.9738731 0,0 Z"
       fill="#0c0c0c"
       transform="translate(424,237)"
       id="path15" /><path
       d="m 0,0 c 3.7680336,3.6714174 6.6019482,6.9883778 6.9335937,12.371094 0.006,1.480585 -0.014687,2.96146 -0.058594,4.441406 -0.013213,0.786248 -0.026426,1.572495 -0.040039,2.382568 C 6.5023548,30.194355 4.4542292,40.514532 -0.5625,50.375 -5.5756456,49.711939 -9.8304696,47.594012 -14.375,45.5 c -8.016652,-3.668979 -15.386509,-6.892861 -24.1875,-8.125 -0.66,-0.66 -1.32,-1.32 -2,-2 0.756076,-11.46715 7.276415,-25.011158 15.894531,-32.6875 C -17.544326,-2.5914946 -8.1319945,-3.7093308 0,0 Z"
       fill="#0c0d0c"
       transform="translate(226.5625,227.625)"
       id="path16" /><path
       d="M 0,0 C 4.5602347,2.0483677 7.9018709,4.9874128 10,9.5625 13.371798,21.297245 9.962132,31.976783 6,43 0.40226544,42.492802 -4.2633947,41.369994 -9.4375,39.125 -14.898849,36.843357 -20.354802,34.782694 -26,33 -26.644198,21.78619 -24.235904,12.750809 -17,4 -12.012514,-0.75550968 -6.5875104,-1.2129977 0,0 Z"
       fill="#0b0b0a"
       transform="translate(160,212)"
       id="path17" /><path
       d="M 0,0 C 1.6952984,2.5429477 2.6022813,4.3843888 3.5859375,7.2109375 3.8747681,8.036582 4.1635986,8.8622266 4.4611816,9.7128906 4.7627417,10.591387 5.0643018,11.469883 5.375,12.375 5.6888061,13.281855 6.0026123,14.188711 6.3259277,15.123047 8.70398,22.03878 10.923177,28.987763 13,36 c 0.735466,2.456111 1.472761,4.911669 2.210205,7.367187 0.523287,1.744398 1.045276,3.489186 1.565918,5.234375 1.140322,3.818345 2.288558,7.632385 3.497314,11.429688 0.363516,1.144688 0.727032,2.289375 1.101563,3.46875 0.317109,0.979687 0.634219,1.959375 0.960937,2.96875 C 23,69 23,69 23,73 13.754438,75.95858 13.754438,75.95858 10,75 7.604755,71.864805 5.7717073,68.518284 4,65 3.8388672,65.759258 3.6777344,66.518516 3.5117188,67.300781 2.6295222,70.524352 1.7363091,73.135724 0,76 c -4.7926413,2.60359 -9.6192932,3 -15,3 1.106926,-2.965184 2.373403,-5.774515 3.839844,-8.574219 0.340957,-0.669668 0.681914,-1.339336 1.033203,-2.029297 0.6883138,-1.347579 1.3930632,-2.686944 2.1171874,-4.015625 C -1.1331222,50.588722 -1.4302138,33.454567 -0.8125,18.375 -0.730807,16.57808 -0.64812899,14.781204 -0.56445312,12.984375 -0.36500672,8.6566758 -0.17867442,4.3286044 0,0 Z"
       fill="#552d17"
       transform="translate(456,251)"
       id="path18" /><path
       d="m 0,0 c 4.3165771,2.0084636 7.1537522,4.2006346 9.7695313,8.28125 1.7969407,5.390823 2.1622837,11.802303 0.1992187,17.203125 -3.1276363,4.94403 -7.6827391,7.223382 -13.1992188,8.796875 -4.5473193,0.906045 -8.1972272,0.209922 -12.2500002,-2 -4.160394,-2.923742 -6.387685,-6.10418 -7.75,-11 -0.743328,-5.00972 -0.622021,-8.732034 1.625,-13.3125 C -15.444712,0.99736708 -9.4700923,-3.0516585 0,0 Z"
       fill="#e52c25"
       transform="translate(397.23047,146.71875)"
       id="path19" /><path
       d="m 0,0 c 5.0082617,2.1693036 8.7782624,5.1831586 10.824219,10.335938 0.932707,6.170214 0.713647,11.800894 -3.0000003,16.999999 -4.4286451,4.334168 -7.5549926,6.166101 -13.7499999,6.3125 -5.2761018,-0.06311 -8.3404408,-0.500679 -12.2499998,-4.3125 -4.13256,-5.220074 -4.634284,-9.588444 -4.378906,-16.195312 0.727809,-5.3872917 3.564466,-8.3199191 7.566406,-11.6796875 C -10.152024,-1.7322324 -5.4381976,-1.6597731 0,0 Z"
       fill="#e52923"
       transform="translate(210.17578,134.66406)"
       id="path20" /><path
       d="m 0,0 c 5.1267467,2.3542176 8.5019534,4.8388707 11,10 0.966426,5.077237 1.180972,9.965579 -1.4648437,14.523437 C 5.7065457,29.007687 3.2433856,30.738272 -2.75,31.4375 c -4.4584588,-0.0329 -6.644728,-1.85579 -9.804688,-4.832031 -4.143533,-4.602682 -3.978194,-8.397569 -3.898437,-14.359375 0.57439,-4.1148119 1.859493,-6.0933554 4.75,-8.9765627 C -7.8273839,0.38050404 -4.859764,-0.65419899 0,0 Z"
       fill="#fef7f6"
       transform="translate(220,401)"
       id="path21" /><path
       d="m 0,0 c 5.9142804,0.12215198 11.013353,1.7132105 16.5625,3.6445313 1.853908,0.6218642 3.708074,1.2429626 5.5625,1.8632812 1.347715,0.4633374 1.347715,0.4633374 2.722656,0.9360352 3.500365,1.1451732 7.048908,2.0768134 10.621094,2.9709472 2.658364,1.1645841 3.641398,2.4289311 5.09375,4.9172361 0.1875,3.25 0.1875,3.25 0,6 -16.898732,-1.845264 -31.6157217,-5.717017 -47,-12.9999998 -0.125,-2.375 -0.125,-2.375 0,-4.9999999 C -4.011111,-0.0943577 -3.3342277,0.02767409 0,0 Z"
       fill="#f2f2f2"
       transform="translate(151.4375,266.66797)"
       id="path22" /><path
       d="M 0,0 C -0.875,4.875 -0.875,4.875 -2,6 -3.5245604,5.9346192 -5.0461846,5.7963089 -6.5625,5.625 -7.3887891,5.5347656 -8.2150781,5.4445312 -9.0664063,5.3515625 -11.275529,5.0868208 -13.480793,4.7895798 -15.683594,4.4765625 -28.733815,2.8512378 -41.985649,3.4427074 -54.785156,6.34375 -57.642809,6.9270862 -60.098856,7.1316209 -63,7 c 0,-1.65 0,-3.3 0,-5 14.871985,-8.9231909 47.900423,-12.066384 63,-2 z"
       fill="#f3f3f2"
       transform="translate(421,308)"
       id="path23" /><path
       d="m 0,0 c 4.8384873,2.4192436 7.5525922,5.1925918 10,10 2.915143,9.325145 2.191076,19.350668 2,29 C 9.03,39 6.06,39 3,39 2.9626172,37.972617 2.9252344,36.945234 2.8867188,35.886719 2.8311738,21.260241 2.8311738,21.260241 -3.6875,8.9375 -7.5386793,6.6849235 -10.634933,5.8278575 -15,5 -10.538745,0.2310726 -6.5005428,-0.8757847 0,0 Z"
       fill="#f1f1f1"
       transform="translate(361,241)"
       id="path24" /><path
       d="m 0,0 c 3.8969919,-0.13499972 7.7893065,-0.2341331 11.6875,-0.3125 1.654189,-0.0628418 1.654189,-0.0628418 3.341797,-0.12695312 C 24.17659,-0.57762976 24.17659,-0.57762976 27.265625,2.328125 29,5 29,5 29.0625,8.0625 27.850047,11.414576 26.76272,12.775426 24,15 c -2.657227,0.454102 -2.657227,0.454102 -5.640625,0.390625 -1.069922,-0.01289 -2.139844,-0.02578 -3.242187,-0.03906 C 14.006016,15.318047 12.894844,15.284531 11.75,15.25 10.623359,15.231953 9.4967188,15.213906 8.3359375,15.195313 5.5569282,15.148211 2.7783563,15.076469 0,15 0,10.05 0,5.1 0,0 Z"
       fill="#fdf6f6"
       transform="translate(317,416)"
       id="path25" /><path
       d="m 0,0 c 4.0710517,0.84299555 6.8716982,3.1839964 9.3203125,6.4804687 2.4687065,5.3721023 2.2987145,10.6445333 2.2500005,16.4375003 0.0077,0.915879 0.01547,1.831758 0.02344,2.77539 -0.01528,5.319711 -0.529485,9.755946 -2.2734375,14.78711 -2.64,-0.33 -5.28,-0.66 -8,-1 0.023566,-1.088855 0.023566,-1.088855 0.047607,-2.199707 0.062596,-3.308351 0.1014617,-6.616577 0.1398926,-9.925293 0.025137,-1.14211 0.050273,-2.284219 0.076172,-3.460938 0.1952642,-8.1861 0.1952642,-8.1861 -3.2636719,-15.4140622 C -3.8820693,6.739593 -3.8820693,6.739593 -6.3671875,5.6054687 -7.5795508,4.9905859 -7.5795508,4.9905859 -8.8164063,4.3632812 -9.4312891,4.0719531 -10.046172,3.780625 -10.679688,3.4804688 -7.0440682,0.40291287 -4.6800164,-0.16217879 0,0 Z"
       fill="#f6f6f6"
       transform="translate(422.67969,241.51953)"
       id="path26" /><path
       d="m 0,0 c 3.2300673,-0.1081697 6.4564975,-0.18739234 9.6875,-0.25 1.368018,-0.0502734 1.368018,-0.0502734 2.763672,-0.1015625 4.33546,-0.0630612 6.852269,-0.0593637 10.654297,2.1835937 C 25,4 25,4 25.625,6.9375 24.762664,11.162948 23.45104,12.412805 20,15 16.540275,15.606561 13.186275,15.473221 9.6875,15.3125 8.7561523,15.289941 7.8248047,15.267383 6.8652344,15.244141 4.5761287,15.185446 2.2878544,15.095771 0,15 0,10.05 0,5.1 0,0 Z"
       fill="#fef7f7"
       transform="translate(317,386)"
       id="path27" /><path
       d="M 0,0 C 3.1875,1.375 3.1875,1.375 5,3 5,3.66 5,4.32 5,5 4.4315234,5.0141797 3.8630469,5.0283594 3.2773438,5.0429687 -2.7312632,5.4141181 -6.7819314,6.5897412 -11,11 c -4.619098,6.129814 -7.20116,12.58373 -9,20 -5.75,-0.875 -5.75,-0.875 -8,-2 C -27.588911,18.311692 -22.432785,9.6318508 -14.734375,2.4257813 -10.435544,-1.1081675 -5.3198151,-0.4445955 0,0 Z"
       fill="#f3f2f2"
       transform="translate(221,231)"
       id="path28" /><path
       d="M 0,0 C 0.33,0 0.66,0 1,0 1,10.89 1,21.78 1,33 -2.8249572,29.175043 -6.065557,25.559982 -9.3125,21.3125 -9.7668945,20.731777 -10.221289,20.151055 -10.689453,19.552734 -14,15.246534 -14,15.246534 -14,13 c 1.574219,-1.550781 1.574219,-1.550781 3.6875,-3.3125 C -7.0465282,6.9137402 -3.982989,4.0733826 -1,1 -0.67,0.67 -0.34,0.34 0,0 Z"
       fill="#fdf0f0"
       transform="translate(299,401)"
       id="path29" /><path
       d="m 0,0 c 2.775115,1.4140101 5.0837772,2.9034764 7.2539062,5.1484375 0,0.66 0,1.32 0,2 -24.8655432,0.9276265 -24.8655432,0.9276265 -34.0000002,-7 0,-0.66 0,-1.32 0,-2 C -18.227317,-4.6911546 -8.1343224,-3.4185975 0,0 Z"
       fill="#d6211e"
       transform="translate(388.74609,322.85156)"
       id="path30" /><path
       d="m 0,0 c 1.875,1.125 1.875,1.125 3,3 0.6404535,3.1311061 0.4970571,5.0793146 -1.03125,7.910156 -2.11161534,2.856547 -3.8500921,4.715056 -7.265625,5.859375 C -7.6821384,17.124203 -9.6139174,17.372683 -12,17 c -1.757813,-1.304687 -1.757813,-1.304687 -3,-3 -0.218019,-3.778994 0.223121,-6.0519135 2.648437,-9.0117188 C -8.5018564,1.3524477 -5.5395432,-1.2882658 0,0 Z"
       fill="#161413"
       transform="translate(268,259)"
       id="path31" /><path
       d="M 0,0 C 2.475,0.495 2.475,0.495 5,1 5,2.65 5,4.3 5,6 6.0828125,5.8453125 6.0828125,5.8453125 7.1875,5.6875 11.196969,6.1329965 12.498279,7.9423411 15,11 c 1.510097,3.484839 1.072068,7.252468 1,11 -1.9375,0.5625 -1.9375,0.5625 -4,1 C 10.336572,21.336572 10.639519,19.217429 10.4375,16.9375 10.35371,16.018398 10.269922,15.099297 10.183594,14.152344 10.123008,13.44207 10.062422,12.731797 10,12 9.01,12 8.02,12 7,12 7,15.96 7,19.92 7,24 5.35,23.67 3.7,23.34 2,23 1.6611496,20.4798 1.3287966,17.959015 1,15.4375 0.90460938,14.733027 0.80921875,14.028555 0.7109375,13.302734 0.13333583,8.8263215 -0.09489383,4.5133876 0,0 Z"
       fill="#fceeee"
       transform="translate(384,151)"
       id="path32" /><path
       d="M 0,0 C 2.5625,2 2.5625,2 4,4 2.783125,4.0825 1.56625,4.165 0.3125,4.25 -4.8087393,4.9014651 -7.4468782,7.02873 -10.625,11.0625 -12.71435,15.526111 -13.821293,20.226653 -15,25 c -1.65,0 -3.3,0 -5,0 -0.594689,-8.028304 1.498731,-14.361791 6.0625,-21 C -9.6578359,-0.41771775 -5.8864969,-0.91378832 0,0 Z"
       fill="#ebebeb"
       transform="translate(159,217)"
       id="path33" /><path
       d="m 0,0 c 4.1249415,-0.05784708 8.2497794,-0.09354407 12.375,-0.125 1.175625,-0.0167578 2.35125,-0.0335156 3.5625,-0.0507813 1.682227,-0.009668 1.682227,-0.009668 3.398437,-0.0195313 1.03689,-0.0104736 2.07378,-0.0209473 3.14209,-0.0317383 C 25,0 25,0 27,2 20.538773,7.3843562 16.581327,8.4876765 8.1523438,8.4023438 3.6314653,7.8253295 1.9507818,6.372322 -1,3 -0.67,2.01 -0.34,1.02 0,0 Z"
       fill="#dd221f"
       transform="translate(154,307)"
       id="path34" /><path
       d="m 0,0 c 2.25,0.4375 2.25,0.4375 3.25,1.4375 0.64966,4.9281352 0.9411425,9.535207 -2.1875,13.625 -2.8125,2.375 -2.8125,2.375 -5.625,2.75 -0.721875,-0.12375 -1.44375,-0.2475 -2.1875,-0.375 -1.7462884,-3.492577 -1.568059,-7.189537 -1,-11 C -6.0130369,2.8842933 -4.0528862,0.64477734 0,0 Z"
       fill="#f5f5f5"
       transform="translate(220.75,243.5625)"
       id="path35" /><path
       d="M 0,0 C 0.99,0 1.98,0 3,0 3.144375,1.051875 3.28875,2.10375 3.4375,3.1875 3.8752697,6.1546055 4.3780487,9.0679437 5,12 3.68,12 2.36,12 1,12 0.75571657,17.797442 0.75571657,17.797442 3,23 2,24 2,24 -0.4375,24.1875 -3,24 -3,24 -5,22 c 0.017479,-2.755898 0.1386327,-5.387867 0.375,-8.125 0.056719,-0.754102 0.1134375,-1.508203 0.171875,-2.285156 C -4.3115535,9.725819 -4.1570004,7.8627886 -4,6 -3.34,6 -2.68,6 -2,6 -1.855625,5.195625 -1.71125,4.39125 -1.5625,3.5625 -1,1 -1,1 0,0 Z"
       fill="#fceded"
       transform="translate(204,138)"
       id="path36" /><path
       d="M 0,0 C 4.9633857,2.5771426 5.8470074,3.6175186 8,9 1.07,9 -5.86,9 -13,9 -10.372489,2.4312234 -7.4424266,-1.21509 0,0 Z"
       fill="#fcebeb"
       transform="translate(393,401)"
       id="path37" /><path
       d="m 0,0 c 2.4375,0.875 2.4375,0.875 4.4375,3.875 0.5968343,4.2088445 0.6685773,7.857847 -1.5,11.5625 -0.495,0.474375 -0.99,0.94875 -1.5,1.4375 -2.375,-0.1875 -2.375,-0.1875 -5,-1 -2.6016849,-4.088362 -2.3773988,-8.3202551 -2,-13 C -3.9297847,0.0392313 -3.2633111,-0.15918591 0,0 Z"
       fill="#ededed"
       transform="translate(350.5625,255.125)"
       id="path38" /><path
       d="M 0,0 C 2.8672469,0.57344937 3.8614515,0.8614515 6,3 6.3007812,5.4609375 6.3007812,5.4609375 6.3125,8.375 6.329258,9.3314844 6.346016,10.287969 6.363281,11.273438 5.9520426,14.359938 5.0550065,15.71184 3,18 1.125,17.75 1.125,17.75 -1,17 -3.6046784,12.869071 -3.6002965,8.7414722 -3,4 -1.5,1.4375 -1.5,1.4375 0,0 Z"
       fill="#f3f3f2"
       transform="translate(411,254)"
       id="path39" /><path
       d="M 0,0 C 1.8125,1.0625 1.8125,1.0625 3,3 3.5081519,6.9926218 3.5903816,9.1253606 1.3125,12.5 -1,14 -1,14 -3.625,14 -6,13 -6,13 -7.3125,11.3125 -8.188122,8.367226 -8.3252605,6.0574487 -8,3 -5.9053424,-0.30735407 -3.7595164,-0.56392746 0,0 Z"
       fill="#f9bb29"
       transform="translate(220,410)"
       id="path40" /><path
       d="M 0,0 C 1.65,0.33 3.3,0.66 5,1 5.6301969,9.0350109 5.6301969,9.0350109 3,13.0625 2.34,13.701875 1.68,14.34125 1,15 -2.875,14.125 -2.875,14.125 -4,13 -4.5925926,5.8888889 -4.5925926,5.8888889 -2,2 -1.34,1.34 -0.68,0.68 0,0 Z"
       fill="#ededed"
       transform="translate(157,227)"
       id="path41" /><path
       d="M 0,0 C -0.3492558,3.1433022 -0.83925733,4.7949145 -2.8125,7.3125 -5,9 -5,9 -9,9 -8.6507442,5.8566978 -8.1607427,4.2050855 -6.1875,1.6875 -4,0 -4,0 0,0 Z"
       fill="#e4ccbe"
       transform="translate(267,263)"
       id="path42" /><path
       d="M 0,0 C 0.33,0 0.66,0 1,0 1,4.95 1,9.9 1,15 0.67,15 0.34,15 0,15 -0.33,12.69 -0.66,10.38 -1,8 -1.99,8.495 -1.99,8.495 -3,9 -2.01,6.03 -1.02,3.06 0,0 Z"
       fill="#fadddd"
       transform="translate(248,425)"
       id="path43" /><path
       d="M 0,0 C 0.66,0.33 1.32,0.66 2,1 -0.97,3.97 -3.94,6.94 -7,10 -7,7 -7,7 -4.625,4.4375 -3.75875,3.633125 -2.8925,2.82875 -2,2 -1.34,1.34 -0.68,0.68 0,0 Z"
       fill="#2c2826"
       transform="translate(147,213)"
       id="path44" /></g></svg>
