<svg xmlns="http://www.w3.org/2000/svg" width="24" height="24"><path fill="#0f6546" fill-rule="evenodd" d="M4.52 6.73c.03 1.69.03 1.72.25 1.75.21.03.22 0 .25-.75l.03-.78h1.4l.03.78c.03.74.04.78.25.75.22-.03.22-.05.22-1.73s0-1.7-.22-1.73c-.2-.03-.22 0-.25.7l-.03.73-.72.03L5 6.5v-.76C5 5.01 5 5 4.75 5H4.5zm5.8 0c.03 1.7.03 1.72.26 1.75l.22.03V5h-.5zm1.1 0c.03 1.7.03 1.72.26 1.75l.22.03V5h-.5zm8.38-1.18c0 .52-.01.55-.2.45-.1-.05-.37-.1-.6-.1-.34 0-.48.06-.76.34-.3.3-.34.4-.34.86 0 .28.07.64.15.8.26.5.99.75 1.46.5q.2-.12.35 0c.07.07.2.1.29.06.13-.04.15-.33.15-1.76V5h-.25c-.24 0-.25.03-.25.55m-11.81.5c-.15.08-.34.3-.44.51-.43.9.15 1.94 1.1 1.94 1.14 0 1.68-1.46.84-2.3-.26-.25-.38-.3-.77-.3-.26 0-.59.07-.73.15m4.82.1c-.6.51-.6 1.54-.01 2.07.33.3.84.37 1.21.17.15-.07.24-.07.35.01.07.07.2.1.29.06.12-.04.15-.28.15-1.3V5.9h-.25q-.23.01-.25.1 0 .1-.2 0a1.3 1.3 0 0 0-1.29.16M15.4 7.2c0 1.3 0 1.3.22 1.27s.23-.09.28-.98c.05-.87.07-.95.28-1.06.32-.16.62-.06.73.23.05.13.09.6.09 1.04 0 .78 0 .8.23.77.21-.03.22-.07.22-1.05 0-.94-.02-1.03-.24-1.27-.26-.28-.85-.36-1.22-.16q-.2.1-.19 0-.02-.09-.2-.1c-.19 0-.2.07-.2 1.3m-7.06-.78C7.62 6.76 7.87 8 8.65 8c.8 0 1.03-1.25.28-1.59-.28-.13-.31-.13-.6 0m4.81.12c-.21.18-.27.32-.27.65q0 .8.69.82c.8 0 1.01-1.25.27-1.59-.33-.15-.38-.14-.69.12m5.76-.16c-.35.13-.5.37-.5.8 0 .52.26.83.7.83.81 0 .95-1.42.15-1.63a1 1 0 0 0-.35 0M3.85 9.3q-.4.14-.5.61c-.05.2 0 .34.2.57.24.29.25.32.08.32-.1 0-.3.11-.43.25-.33.35-.23.86.27 1.37.44.45.96.64 1.34.5.44-.17.98-.71 1.08-1.09.1-.36-.02-.83-.22-.83q-.08-.02.05-.17c.23-.27.3-.6.18-.83s-.45-.27-.52-.07.03.37.24.37c.34 0 .03.27-.4.35q-.61.11-.62.4 0 .11.3.07c.24-.03.32 0 .41.21q.23.5-.47 1.18l-.35.34-.45-.48c-.4-.41-.45-.52-.42-.85.03-.36.04-.37.4-.36.45.01.47-.1.11-.48-.5-.52-.3-1.32.31-1.26.25.02.32.08.34.3q.04.45-.25.17c-.15-.15-.33-.03-.33.21 0 .45.66.45.9 0 .15-.28.13-.38-.15-.65-.25-.26-.7-.32-1.1-.15m2.65 1.75v1.77l.96-.04c.9-.03.97-.05 1.2-.31.3-.36.32-.92.04-1.22-.19-.2-.2-.24-.06-.56q.26-.65-.2-1.1c-.22-.2-.38-.25-1.1-.28l-.84-.03zM18 9.88q0 .3-.2.35a.3.3 0 0 0-.2.26q0 .21.2.21c.18 0 .2.07.2.83 0 .74.03.86.23 1.04.27.25.58.36.8.27.24-.09.22-.44-.02-.44-.46 0-.51-.08-.51-.9v-.79l.32-.03c.25-.02.33-.08.33-.23s-.08-.2-.32-.23c-.26-.03-.32-.08-.35-.3q-.03-.28-.25-.3c-.2-.03-.23.01-.23.26m1.8 0q0 .3-.2.35c-.24.06-.28.47-.05.47.12 0 .15.13.15.58 0 .91.15 1.31.56 1.48.42.18.74.1.74-.17q0-.19-.22-.2c-.44 0-.52-.14-.56-.94l-.04-.75h.36c.32 0 .36-.03.36-.25s-.04-.25-.35-.25c-.32 0-.35-.02-.35-.3 0-.23-.04-.3-.2-.3q-.21-.02-.2.29M7 10.3v.5h.5c.4 0 .52-.04.64-.22.2-.29.2-.34-.04-.58q-.19-.2-.65-.2H7zm2.76.1c-.34.28-.56.7-.56 1.1 0 .42.27.98.57 1.17.3.2.97.2 1.2.02.13-.1.17-.11.2-.01q.06.1.24.12c.18 0 .19-.09.19-1.3s-.01-1.3-.2-1.3q-.17.01-.22.11-.04.13-.25 0a1.2 1.2 0 0 0-1.17.1m2.5-.14c-.03.03-.06.62-.06 1.3v1.23h.25c.25 0 .25-.01.25-.83 0-.93.14-1.24.58-1.29.31-.03.43-.35.16-.45a1 1 0 0 0-.45.04q-.27.1-.35.02c-.06-.1-.28-.12-.37-.02m1.6 0c-.04.03-.07.62-.07 1.3v1.23h.25c.25 0 .25-.01.25-.83 0-.93.14-1.24.58-1.29.31-.03.43-.35.16-.45a1 1 0 0 0-.45.04q-.27.1-.35.02c-.06-.1-.28-.12-.37-.02m1.94.06c-.77.38-.85 1.86-.14 2.33.3.2 1.09.23 1.4.05a.4.4 0 0 0 .23-.36c0-.23 0-.24-.35-.1-.47.2-.68.19-.99-.06-.49-.38-.35-.49.64-.49 1 0 1 0 .8-.72-.2-.68-.94-.98-1.6-.65m-5.9.65c-.17.2-.2.36-.17.66.1.67.62.94 1.1.56.22-.18.27-.3.27-.66 0-.8-.74-1.15-1.2-.56m6-.08c-.32.32-.24.4.4.4.66 0 .76-.07.54-.38-.2-.28-.67-.29-.94-.02m-8.9.9v.5h.54c.75 0 1.03-.3.76-.8-.09-.16-.22-.2-.7-.2H7z"/></svg>