<svg xmlns="http://www.w3.org/2000/svg" width="24" height="24"><path fill="#bde3f5" fill-rule="evenodd" d="M3 8.95v1.95h6v-.38c0-.34.03-.4.35-.5q.74-.29.75-1.07c0-.51-.26-.89-.75-1.06-.32-.12-.35-.17-.35-.51V7H3zm7.8-.21v.93l.47.07c.43.06.5.04.7-.2.27-.3.3-.7.07-1.03-.13-.18-.24-.22-.5-.19-.31.04-.34.02-.34-.24q.01-.3-.2-.28c-.19 0-.2.07-.2.94m-6.75-.71c-.1.29-.35 1.6-.3 1.65S4 9.25 4 9.07c0-.23.31-.57.52-.57.19 0 .2.04.14.63-.08.75.1.58.2-.2.05-.42.03-.51-.1-.56a.5.5 0 0 0-.36.03c-.26.14-.27.13-.22-.2.04-.3-.04-.41-.13-.17m1.5.37c-.46.18-.7.84-.4 1.13q.36.36.8-.08c.32-.3.35-.9.06-1.05-.22-.11-.2-.11-.46 0m1.36 0c-.08.04-.2.06-.26.04-.13-.05-.43 1.11-.32 1.23.07.07.11-.03.27-.64q.1-.42.31-.48c.3-.1.33-.02.22.55-.13.66.01.75.17.1q.19-.81.56-.66c.16.06.15.15-.03.95q-.06.24.05.17c.06-.03.15-.3.21-.58q.2-.94-.4-.7-.25.1-.4.01c-.17-.1-.2-.1-.38 0m1.83.03c-.38.18-.58.9-.32 1.16.16.16.49.15.72-.03.25-.19.15-.3-.12-.14-.23.14-.52.06-.52-.15q-.01-.15.47-.18c.46-.03.48-.04.46-.32q-.05-.65-.7-.34m3.75-.01c-.24.14-.23.39.02.39q.18 0 .2-.1c0-.05.12-.1.26-.1.37 0 .25.24-.16.3a1 1 0 0 0-.47.27c-.13.2-.12.24.07.43q.22.22.43.16c.12-.03.34-.06.5-.06.26 0 .27-.01.27-.58 0-.32-.05-.63-.12-.7-.15-.15-.76-.15-1-.01m1.32.6c0 .62.02.69.2.69.17 0 .2-.07.2-.45 0-.4.03-.47.25-.55.43-.16.31-.38-.2-.38l-.45.01zm1.12-.63c-.19.11-.32.6-.23.84q.2.53.71.44.5-.09.14.24c-.12.1-.2.1-.35 0-.25-.15-.52-.14-.47.02.07.2.5.38.78.32.45-.1.6-.4.6-1.2v-.72h-.53c-.3-.01-.59.02-.65.06m1.43.1c-.17.2-.17.21 0 .27q.16.06.28-.05c.15-.15.5-.14.45.01-.03.07-.18.15-.34.16q-.55.06-.54.48-.01.47.83.37l.47-.06V9.1c0-.31-.05-.62-.12-.69-.2-.2-.82-.15-1.03.08m1.35.5c0 .63.02.7.2.7s.2-.07.2-.7-.02-.7-.2-.7-.2.07-.2.7m.6.02c0 .6.02.68.2.68.16 0 .2-.08.22-.52.03-.45.06-.53.23-.53s.2.08.23.53c.03.44.06.52.23.52s.19-.07.19-.59c0-.36-.05-.63-.13-.7-.07-.05-.36-.1-.65-.09l-.52.01zm1.5-.52c-.16.3.03.56.45.64.2.04.35.11.35.17 0 .15-.3.23-.43.1-.15-.15-.5-.14-.45.02.09.24.55.42.84.32.59-.21.57-.69-.03-.9-.52-.17-.52-.28 0-.2.51.07.55.05.31-.2-.23-.23-.9-.2-1.04.05m-14.45.24c-.22.33-.16.7.11.74.31.04.56-.25.52-.62-.04-.41-.4-.48-.63-.12m3.3-.04c-.18.2-.17.2.25.2.34 0 .41-.03.36-.16l-.06-.2c0-.12-.4-.01-.55.16m2.59.04c-.11.29 0 .6.23.64q.24.06.29-.22c.1-.42-.38-.8-.52-.42m3.9 0c-.1.25 0 .6.18.64.24.05.42-.32.28-.58-.12-.23-.38-.26-.46-.06"/></svg>