<svg xmlns="http://www.w3.org/2000/svg" width="24" height="24"><path fill="#2a3c20" fill-rule="evenodd" d="M9.5 8.49v6.48l1.25.53 1.26.52 1.22-.5 1.22-.5.03-6.51L14.5 2h-5zm.4.05c0 4.71.03 6.06.13 6.13.14.12 1.85.83 1.98.83.05 0 .54-.19 1.09-.41l1-.42V2.5H9.9zM11 3.8c0 .28.03.3.35.3q.35 0 .35.15.01.15-.35.15c-.32 0-.35.02-.35.3V5h2v-.3c0-.28-.02-.3-.4-.3q-.42 0-.4-.15-.02-.15.4-.15c.38 0 .4-.02.4-.3v-.3h-2zm.24 1.78c-.38.25-.39.9 0 1.17.33.24 1.37.2 1.64-.05.26-.24.29-.66.06-.98-.13-.2-.24-.22-.87-.22-.4 0-.77.04-.83.08m.21.62c.03.05.3.1.6.1s.55-.04.55-.1-.27-.1-.6-.1q-.59 0-.55.1M11 7.65c0 .23.04.25.43.26h.42l-.42.2c-.34.15-.43.25-.43.44 0 .25 0 .25 1 .25s1 0 1-.24c0-.21-.05-.25-.37-.28l-.38-.03.38-.17c.29-.13.37-.23.37-.42V7.4h-2zm0 2.25c0 .57.01.6.25.6.21 0 .25-.05.25-.3q0-.3.15-.3.13.02.15.2-.01.21.25.2.26.01.25-.2.02-.18.15-.2.15 0 .15.3c0 .23.04.3.2.3.18 0 .2-.07.2-.6v-.6h-2zm.15 1.24q-.48.46 0 .91c.34.35.58.31 1-.17.19-.23.38-.38.42-.35q.05.08-.05.2c-.14.13-.16.43-.03.51.15.1.61-.34.61-.57a.64.64 0 0 0-.65-.67c-.27 0-.37.06-.55.35-.12.2-.28.35-.36.35-.19 0-.18-.17.02-.28.18-.1.16-.43-.03-.5-.07-.02-.24.08-.38.22m1.38 1.66c-.05.18-.14.2-.8.2H11v.6h.74c.65 0 .74.02.79.2q.06.19.26.2c.2 0 .21-.06.21-.7s-.02-.7-.2-.7a.3.3 0 0 0-.27.2"/></svg>