<?xml version="1.0" encoding="UTF-8" standalone="no"?>
<svg
   viewBox="0 0 24 24"
   width="24pt"
   height="24pt"
   version="1.1"
   id="svg1"
   sodipodi:docname="hood_burger.svg"
   xml:space="preserve"
   inkscape:version="1.4.2 (f4327f4, 2025-05-13)"
   xmlns:inkscape="http://www.inkscape.org/namespaces/inkscape"
   xmlns:sodipodi="http://sodipodi.sourceforge.net/DTD/sodipodi-0.dtd"
   xmlns="http://www.w3.org/2000/svg"
   xmlns:svg="http://www.w3.org/2000/svg"><defs
     id="defs1" /><sodipodi:namedview
     id="namedview1"
     pagecolor="#ffffff"
     bordercolor="#000000"
     borderopacity="0.25"
     inkscape:showpageshadow="2"
     inkscape:pageopacity="0.0"
     inkscape:pagecheckerboard="0"
     inkscape:deskcolor="#d1d1d1"
     inkscape:document-units="pt"
     inkscape:zoom="24.15625"
     inkscape:cx="6.8926261"
     inkscape:cy="12.025873"
     inkscape:window-width="1920"
     inkscape:window-height="991"
     inkscape:window-x="-9"
     inkscape:window-y="1341"
     inkscape:window-maximized="1"
     inkscape:current-layer="svg1" /><g
     id="g1"
     transform="matrix(0.1010314,0,0,0.1010314,0.49762431,-2.6156073)"><path
       d="m 43.572,155.884 c -0.301,0.486 -0.665,3.543 -0.809,6.794 -0.517,11.628 3.691,14.194 25.237,15.395 19.287,1.074 71.615,1.066 91.113,-0.014 16.151,-0.895 19.49,-1.753 23.328,-5.994 2.398,-2.649 3.46,-13.274 1.557,-15.567 -1.082,-1.304 -10.216,-1.498 -70.561,-1.498 -39.065,0 -69.557,0.386 -69.865,0.884"
       stroke="none"
       fill="#bb2735"
       fill-rule="evenodd"
       id="path1-8" /><path
       d="M 97.002,51.127 C 72.353,53.98 52.423,64.483 45.572,78.23 c -3.336,6.696 -3.477,12.513 -0.322,13.277 1.238,0.299 32.85,0.42 70.25,0.269 l 68,-0.276 0.31,-4.309 C 184.735,74.357 167.823,59.597 145.847,54.06 131.005,50.32 113.21,49.251 97.002,51.127"
       stroke="none"
       fill="#2c2c2c"
       fill-rule="evenodd"
       id="path2" /></g></svg>
