<?xml version="1.0" encoding="UTF-8" standalone="no"?>
<svg
   viewBox="0 0 24 24"
   width="24pt"
   height="24pt"
   version="1.1"
   id="svg3083"
   sodipodi:docname="horizon_holidays.svg"
   xml:space="preserve"
   inkscape:version="1.2.2 (732a01da63, 2022-12-09)"
   inkscape:export-filename="horizon_holidays.svg"
   inkscape:export-xdpi="96"
   inkscape:export-ydpi="96"
   xmlns:inkscape="http://www.inkscape.org/namespaces/inkscape"
   xmlns:sodipodi="http://sodipodi.sourceforge.net/DTD/sodipodi-0.dtd"
   xmlns="http://www.w3.org/2000/svg"
   xmlns:svg="http://www.w3.org/2000/svg"><defs
     id="defs3087" /><sodipodi:namedview
     id="namedview3085"
     pagecolor="#ffffff"
     bordercolor="#000000"
     borderopacity="0.25"
     inkscape:showpageshadow="2"
     inkscape:pageopacity="0.0"
     inkscape:pagecheckerboard="0"
     inkscape:deskcolor="#d1d1d1"
     inkscape:document-units="pt"
     showgrid="false"
     inkscape:zoom="17.876543"
     inkscape:cx="7.2161602"
     inkscape:cy="15.495166"
     inkscape:window-width="1920"
     inkscape:window-height="974"
     inkscape:window-x="-11"
     inkscape:window-y="1609"
     inkscape:window-maximized="1"
     inkscape:current-layer="svg3083" /><g
     id="g5831"
     transform="matrix(0.03389923,0,0,0.03389923,-68.662821,8.4605688)"><g
       id="g5980"
       transform="matrix(1.1011974,0,0,1.1011974,1340.1937,-267.98038)"><path
         fill="#8a56c8"
         opacity="1"
         stroke="none"
         d="m 1012.8234,245.06314 c -1.4746,0.24001 -2.9413,0.58955 -4.4256,0.69669 -2.9012,0.20938 -4.6407,-0.71526 -4.8763,-4.11924 -0.214,-3.09092 -1.2384,-6.12574 -2.9133,-9.43748 -1.93187,5.03642 -1.28581,12.27251 -10.35942,7.92461 -0.14612,2.47457 -0.33557,4.22897 -0.33929,5.98376 -0.024,11.32996 0.5332,22.69244 -0.1449,33.98154 -0.79578,13.24859 -2.4328,26.46167 -4.12171,39.63675 -1.32666,10.34878 -2.70172,20.75644 -5.12609,30.8815 -2.54358,10.62317 -6.30195,20.96042 -9.64612,31.38513 -2.22583,6.93838 -4.659,13.81018 -6.99103,20.7146 -0.21216,0.62808 -0.2674,1.32382 -0.5556,1.9093 -5.54719,11.26883 -10.59998,22.82245 -16.82636,33.70416 -6.60303,11.54004 -14.06653,22.61859 -21.63672,33.5651 -6.6842,9.66555 -14.06421,18.84826 -21.07379,28.29114 -3.43231,4.62365 -7.8681,6.97009 -13.67834,6.73687 -6.13929,-0.24649 -12.28296,-0.38223 -19.12372,-0.96939 -4.12268,-0.87237 -7.54645,-1.3417 -10.50861,-1.88745 10.28644,-0.0887 20.11847,-0.32538 29.93299,-0.0119 4.43829,0.14175 7.34326,-1.35141 10.14965,-4.70609 59.64954,-71.30377 89.05432,-153.19043 86.27283,-246.31602 -0.32416,-10.85407 -1.54224,-21.68141 -2.39813,-33.22557 6.22485,4.56537 8.21881,10.89651 9.74078,17.51736 0.42102,-0.0984 0.84204,-0.19675 1.26312,-0.29513 0.30542,-4.14328 0.61084,-8.28656 0.96418,-13.07935 5.32618,3.99089 8.87058,8.30392 10.04868,14.37387 0.3272,1.68591 1.0929,3.28673 1.9288,5.03885 1.8925,-0.40811 3.5136,-0.92851 5.2806,-1.16324 0.2154,1.13242 0.2848,1.97914 0.056,2.83362 -0.4962,0.0172 -0.6945,0.0266 -0.893,0.036 z"
         id="path4269" /><path
         fill="#8a59bf"
         opacity="1"
         stroke="none"
         d="m 1012.8453,245.48837 c 0.1766,-0.43466 0.3749,-0.44409 1.0037,-0.14862 0.9828,1.69023 1.5353,3.07558 2.2968,4.71939 1.2109,1.09172 2.2128,1.92498 3.367,3.01801 1.6777,3.71228 2.2446,0.44346 3.4798,-0.12183 1.2146,-9.4e-4 2.1391,-0.0535 3.1547,0.24939 0.2764,1.73807 0.4616,3.12076 0.6468,4.50342 0.4138,0.0492 0.8276,0.0984 1.2414,0.14752 1.2318,-4.13154 2.4635,-8.26308 3.9601,-13.28287 3.9877,6.95351 1.3561,13.41114 1.0419,21.00159 2.505,-3.37662 4.213,-5.67883 6.5761,-8.86401 0.9338,5.19949 1.6858,9.38736 2.4378,13.57522 0.4459,0.0667 0.892,0.13349 1.3379,0.20023 1.6628,-3.90296 3.3257,-7.80594 4.9886,-11.70892 0.4246,-0.008 0.8493,-0.015 1.2738,-0.0225 1.1299,6.15946 2.2597,12.31891 3.6689,20.0008 2.0986,-5.20499 3.6705,-9.10361 5.7183,-14.18256 1.3101,5.80524 2.394,10.60858 3.2626,15.48367 -0.5742,0.33808 -0.9328,0.60434 -1.2916,0.87064 -1.2554,-2.35828 -2.4746,-3.54523 -5.3518,-1.51422 -3.4528,2.43716 -5.4242,1.45862 -5.4168,-2.63272 0.01,-4.90799 -1.3459,-7.03363 -6.3713,-4.7182 -0.4464,0.20572 -1.1592,0.55584 -1.401,0.37488 -3.7654,-2.81726 -8.9605,-3.04712 -12.3724,-5.26423 -4.7625,-3.09463 -7.453,-9.24026 -13.1706,-11.92399 -3.9662,-1.86164 -4.2564,-5.5454 -4.0807,-9.76006 z"
         id="path4287" /><path
         fill="#8a56c8"
         opacity="1"
         stroke="none"
         d="m 909.01386,440.07944 c 4.57196,-7.02539 9.58776,-13.80667 13.61572,-21.13123 6.68573,-12.1575 12.55456,-24.76144 19.10077,-36.99902 8.19995,-15.32926 13.13818,-31.77829 17.47723,-48.47208 2.15265,-8.28216 4.35816,-16.55057 7.03839,-25.10464 0.68884,-0.25779 0.87903,-0.23612 1.01331,0.14767 -0.26398,2.82416 -0.22577,5.3367 -0.71851,7.74045 -4.66022,22.73364 -11.92755,44.6492 -21.45135,65.77896 -9.65314,21.41653 -20.7016,42.06156 -35.72785,60.29413 -0.12457,-0.11487 -0.37335,-0.34497 -0.36877,-0.66358 0.0101,-0.74261 0.0156,-1.16665 0.0211,-1.59066 z"
         id="path4291" /><path
         fill="#8c4ed9"
         opacity="1"
         stroke="none"
         d="m 928.98596,166.0885 c 1.25824,-0.19365 2.54975,-0.67442 3.76917,-0.53308 6.52502,0.75633 6.96527,0.24074 4.81927,-6.51213 -6.72864,0.40651 -6.93884,-5.93109 -9.31476,-9.7842 -2.18225,-3.5392 -2.93676,-7.93347 -4.71966,-11.76516 -0.36634,-0.78708 -2.48328,-0.91379 -3.82459,-1.06321 -3.62201,-0.40347 -5.88269,-3.3451 -3.75189,-5.57966 3.22138,-3.37827 2.35303,-5.95566 -0.54883,-8.97565 4.54047,-4.21059 8.90515,-3.12888 13.33832,-0.23302 -0.27814,0.64496 -0.52948,0.85519 -1.03485,1.09967 -0.78571,-0.11994 -1.30249,-0.25628 -2.05859,-0.65158 -1.95057,-0.15182 -3.66187,-0.0447 -5.30372,0.31962 0.61603,0.69215 1.16266,1.12712 1.95087,1.81311 2.50952,1.20909 4.77747,2.16719 6.63886,2.95356 -2.61884,1.14934 -5.24018,2.29978 -8.05811,3.59189 -0.49811,0.27391 -0.81335,0.33447 -1.36688,0.44811 0.12951,0.92019 0.47778,2.3966 0.83844,2.39962 2.20257,0.0185 4.40784,-0.29747 6.9751,-0.50332 1.0849,0.0512 1.807,0.1037 2.61706,0.3103 0.0879,0.15408 0.26703,0.46049 0.14514,0.67172 0.28937,1.06413 1.25415,2.46152 1.03003,2.68939 -4.43426,4.50835 0.57953,5.31933 2.92633,6.89052 -1.63397,2.03734 -3.02966,3.7777 -5.03015,6.2721 3.20087,0.20797 5.08948,0.33069 6.55048,0.42561 0.22211,1.67194 0.39526,2.97516 0.83667,4.48396 2.44531,1.19577 4.62243,2.18595 6.94427,3.53399 3.60932,1.1681 7.07379,1.97834 10.53833,2.78857 -0.0457,0.28358 -0.0914,0.56717 -0.13714,0.85075 -2.45044,0.43784 -4.90082,0.87567 -8.4397,1.50798 2.12219,1.00186 3.11102,1.46866 3.98956,2.01203 -0.11029,0.0765 -0.10205,0.37507 -0.10205,0.37507 0,0 0.2948,-0.37864 0.64789,-0.32396 1.69476,0.2204 3.03638,0.38611 5.91528,0.74166 -3.27893,1.77823 -5.21618,2.82886 -7.17639,3.93095 -0.17834,0.16471 -0.29162,0.30972 -0.60132,0.65448 -0.51452,0.44171 -0.79059,0.71549 -1.33825,1.00852 -0.75708,-0.19461 -1.2425,-0.40847 -1.93872,-0.85215 -0.80018,-0.34492 -1.38959,-0.46003 -2.01355,-0.4468 -0.0346,0.12834 -0.29456,0.0728 -0.27472,-0.0673 0.0198,-0.14011 -0.24085,-0.30864 -0.24085,-0.30864 0,0 -0.26623,0.29977 -0.63556,0.2725 -1.07452,-0.24159 -1.77972,-0.45592 -2.65484,-0.98221 -3.38373,-0.74147 -6.59754,-1.17099 -9.82898,-1.58029 -0.0176,0.0202 -0.0308,-0.0315 -0.0333,-0.34064 -0.0163,-0.72035 -0.03,-1.13153 -0.0437,-1.54269 z"
         id="path4293" /><path
         fill="#8c55cd"
         opacity="1"
         stroke="none"
         d="m 944.65185,254.85356 c -3.04009,4.19515 -6.21313,8.30324 -9.04852,12.63249 -0.99689,1.52198 -1.19836,3.57712 -1.70556,5.40476 -0.79254,2.85577 -1.53601,5.72516 -2.3852,8.90683 -2.63269,-1.33048 -4.1643,-2.10453 -6.60608,-3.33853 0,3.86154 0.0232,6.91076 -0.007,9.95944 -0.0261,2.6326 -0.58014,4.58841 -4.04376,4.02524 -1.81659,-0.29535 -11.31689,8.37097 -12.06616,9.93921 -1.19861,2.50857 -2.88513,4.78402 -4.36542,7.15802 -1.43664,-2.53962 -3.99737,-5.03125 -4.10815,-7.62745 -0.40076,-9.39392 0.0215,-18.82296 0.59857,-28.58944 0.65869,-0.34009 0.85205,-0.32947 1.07983,0.083 0.0743,1.47397 0.1142,2.54603 0.0718,4.07401 -0.048,4.4812 -0.0138,8.5065 -0.0608,12.97467 0.37799,4.98874 0.83716,9.53458 1.29639,14.08041 0.53192,-0.0128 1.0639,-0.0255 1.59582,-0.0383 0.62213,-2.84664 1.24421,-5.69326 1.97797,-8.84103 0.16943,-0.93747 0.22723,-1.57376 0.50317,-2.53656 0.39655,-1.58386 0.57502,-2.84122 0.85486,-4.36572 0.9029,0.29516 1.70441,0.85745 2.53595,1.75101 1.02789,1.65884 2.02588,2.98642 3.30243,4.10086 1.37903,-2.72907 2.47943,-5.24503 3.58838,-7.78046 1.73187,0.8916 3.22967,1.66269 4.72748,2.43378 0.50366,-0.24302 1.00738,-0.48606 1.51104,-0.72907 -0.78045,-3.1546 -1.56091,-6.30917 -2.45367,-9.81213 -0.043,-0.82596 0.0263,-1.30353 0.3385,-1.92609 0.91089,-1.12637 1.57886,-2.10773 2.16535,-2.96927 1.76824,1.12628 3.2254,2.05445 4.95001,3.03317 0.64264,-0.27197 1.01788,-0.59454 1.56762,-0.91326 0.17457,0.004 0.52356,0.009 0.7085,-0.20252 0.0728,-1.05676 -0.0394,-1.90252 -0.15369,-3.17511 -0.3786,-4.59317 0.14124,-8.27457 5.13593,-9.77014 0.24261,-0.54361 0.32318,-0.93899 0.40375,-1.33438 -0.23187,0.46515 -0.46381,0.93033 -0.70587,1.40488 -0.0102,0.009 0.0262,0.0149 -0.0692,-0.32172 0.0295,-1.47025 0.1543,-2.60379 0.48212,-3.82651 0.68622,-0.63376 1.16955,-1.1784 2.07049,-1.91208 0.73627,-0.70468 1.05487,-1.2203 1.54761,-1.67007 1.1366,-0.40312 2.09906,-0.87209 3.27973,-1.20856 0.64068,0.39719 1.06329,0.66188 1.48583,0.92659 z"
         id="path4297" /><path
         fill="#8a55cb"
         opacity="1"
         stroke="none"
         d="m 987.02991,155.09869 c 6.53039,-6.02214 12.51867,-12.82566 19.74759,-17.84095 6.8692,-4.76586 14.9809,-7.78161 22.6637,-11.31137 2.5096,-1.15303 5.3621,-1.98264 8.1026,-2.13076 8.0796,-0.4367 16.1814,-0.53436 24.2754,-0.577 1.5974,-0.008 3.3317,0.57432 4.7581,1.34033 1.1852,0.63647 2.9981,2.28065 2.7922,2.88311 -0.4465,1.30583 -1.8801,2.43019 -3.1559,3.24321 -0.8934,0.56947 -2.1933,0.50104 -3.7105,0.79468 0.4565,1.127 0.6734,2.05397 1.1632,2.80246 2.0096,3.07103 0.4719,4.19507 -2.434,4.65236 -1.804,0.28387 -3.6056,0.58307 -5.6732,0.58568 1.3004,-0.95759 2.8658,-1.62542 4.6568,-2.36304 0.3747,-0.60671 0.5238,-1.14362 0.4351,-1.96433 -0.9125,-0.56321 -1.5869,-0.84266 -2.3578,-1.056 -0.096,0.0661 -0.2916,-0.0622 -0.4236,-0.32301 -2.3244,-5.17319 3.3999,-2.82779 4.4866,-5.1209 1.0931,-0.22496 1.905,-0.32099 2.8269,-0.36676 0.3634,0.0947 0.5764,0.0169 0.9558,-0.43161 -0.2776,-0.74887 -0.7702,-1.69275 -1.2452,-1.68386 -9.016,0.16881 -18.0299,0.45001 -27.4304,0.7335 -2.6304,0.57588 -4.928,0.96684 -7.1102,1.70122 -19.4527,6.54626 -34.70411,18.77322 -47.03212,34.56059 1.22473,-2.96454 2.4668,-5.54605 3.70893,-8.12755 z"
         id="path4303" /><path
         fill="#884fca"
         opacity="1"
         stroke="none"
         d="m 923.87152,199.77544 c -6.7337,0.76378 -13.27337,1.86139 -19.8092,-2.0562 -2.58216,-1.54775 -6.77234,-0.41904 -10.23072,-0.4886 -0.32354,-0.007 -0.71923,0.29159 -0.96508,0.18354 -4.57123,-2.00929 -9.1839,-3.94407 -13.61585,-6.22837 -0.63586,-0.32776 -0.38141,-2.38302 -0.64136,-4.4542 -1.59619,0.66635 -3.18219,1.16951 -4.61114,1.95761 -3.0893,1.7038 -5.35431,2.04219 -7.09894,-2.01118 -0.67279,-1.56293 -3.22833,-2.36032 -4.992,-3.39404 -1.32489,-0.77652 -2.75507,-1.37349 -4.13843,-2.05045 1.17639,-1.0892 2.35278,-2.17839 3.78662,-3.04071 2.29919,3.8038 4.84863,3.30128 7.84534,1.03201 0.591,-0.12571 0.94122,-0.14227 1.3327,0.23429 0.10986,2.55377 0.17834,4.71443 0.28491,7.01849 0.3512,0.2657 0.66437,0.38803 1.29035,0.37167 2.10937,-1.28765 3.906,-2.43661 6.01916,-3.67013 0.74817,-0.15335 1.17969,-0.22214 1.87952,-0.16889 1.78613,0.76101 3.30389,1.39998 4.80981,2.02045 -0.0118,-0.0185 0.0299,-0.001 -0.27722,0.0529 -1.0011,1.08079 -1.69507,2.10716 -2.38904,3.13354 1.21124,0.57544 2.38239,1.49064 3.64405,1.63971 1.55371,0.18358 4.35144,-0.85602 4.59967,-0.36014 2.64245,5.28034 6.20568,1.46943 9.46264,0.98729 0.17096,1.25432 0.0154,3.02456 0.50342,3.22451 3.30188,1.35299 6.66852,2.79376 10.15356,3.38488 3.51935,0.59691 7.21216,0.101 10.80005,0.41485 0.8454,0.074 1.57453,1.47604 2.35718,2.26715 z"
         id="path4313" /><path
         fill="#8c55cd"
         opacity="1"
         stroke="none"
         d="m 860.01495,504.13715 c 3.42371,0.46933 6.84748,0.93866 10.60785,1.61138 -3.15808,0.22437 -6.65973,0.37937 -10.14404,0.19883 -1.34729,-0.0698 -3.65765,-0.72513 -3.77893,-1.41941 -0.2793,-1.59951 -0.0102,-3.80078 0.96002,-5.02713 4.80097,-6.06802 9.8634,-11.93185 14.90589,-17.80557 10.18267,-11.86127 20.40978,-23.68429 30.63293,-35.51074 0.31457,-0.36395 0.7876,-0.59094 1.55371,-0.55447 0.46283,0.90124 0.55872,1.47515 0.54401,2.35403 -0.68805,1.11575 -1.20624,1.97736 -1.85157,2.72998 -14.1651,16.51932 -28.36651,33.00769 -42.45996,49.58789 -0.76294,0.89749 -4.34161,1.68018 -0.96991,3.83521 z"
         id="path4315" /><path
         fill="#8854c6"
         opacity="1"
         stroke="none"
         d="m 1061.0742,281.28332 c 0.2945,-0.62271 0.6531,-0.88897 1.4011,-0.97454 2.2481,1.18399 2.3825,1.20193 2.7539,-1.58023 2.3917,-17.91135 -3.6442,-33.24732 -15.7308,-45.9368 -7.1426,-7.49887 -15.8013,-13.55353 -23.3863,-20.36951 1.1971,-0.20883 2.0026,-0.30582 2.8081,-0.4028 3.6677,2.50236 7.2729,5.10258 11.0155,7.48769 9.0306,5.7554 14.8524,14.27563 20.2457,23.18325 4.3466,7.17887 7.2892,14.91564 7.9026,23.28487 0.3711,5.0618 -0.01,10.21179 -0.4955,15.27914 -0.1173,1.21946 -1.9006,2.98768 -3.1143,3.16596 -0.9552,0.14032 -2.2125,-1.77719 -3.4,-3.13703 z"
         id="path4323" /><path
         fill="#8c4ed9"
         opacity="1"
         stroke="none"
         d="m 1053.9814,143.00944 c 3.3781,0.98317 2.616,2.33794 0.7951,4.52103 -1.5348,1.84012 -2.1754,4.39844 -3.4483,6.49538 -0.7493,1.23474 -1.8552,2.31613 -2.9816,3.24768 -3.9297,3.24965 -9.7702,3.97471 -12.2161,9.16859 -0.5437,1.15456 -0.7444,2.47063 -1.5398,4.12607 -4.6969,0.41371 -8.9572,0.41371 -13.2173,0.41371 1.4041,-1.46245 3.0086,-1.59889 4.4291,-2.18283 0.3644,-0.14979 0.1482,-1.71181 0.5326,-2.82864 2.7295,-1.00885 5.1252,-1.8141 7.521,-2.61937 -0.052,-0.42384 -0.1046,-0.84769 -0.157,-1.27153 -2.5646,-0.99733 -5.1292,-1.99468 -8.7994,-3.42203 2.2785,-0.40889 3.2371,-0.58092 4.6254,-0.68791 3.6785,0.065 6.9272,0.065 10.5762,0.065 -0.9211,-0.65304 -1.5587,-1.10502 -2.3199,-1.81701 -1.1429,-1.08674 -2.1619,-1.91346 -3.7918,-3.23568 3.7432,0 6.6334,0 9.9,-0.0296 0.975,-0.3461 1.5739,-0.66259 2.3893,-1.05529 -0.2739,-1.33526 -0.7645,-2.59433 -0.8786,-2.8874 3.0547,-2.13449 5.7474,-4.01613 8.4754,-5.92325 0.035,-0.0255 0.1057,-0.0769 0.1057,-0.0769 z"
         id="path4325" /><path
         fill="#8a59bf"
         opacity="1"
         stroke="none"
         d="m 924.19788,200.02667 c -1.10901,-1.04234 -1.83814,-2.44443 -2.68354,-2.51838 -3.58789,-0.31385 -7.2807,0.18206 -10.80005,-0.41485 -3.48504,-0.59112 -6.85168,-2.03189 -10.15356,-3.38488 -0.48798,-0.19995 -0.33246,-1.97019 -0.50342,-3.22451 -3.25696,0.48214 -6.82019,4.29305 -9.46264,-0.98729 -0.24823,-0.49588 -3.04596,0.54372 -4.59967,0.36014 -1.26166,-0.14907 -2.43281,-1.06427 -3.64405,-1.63971 0.69397,-1.02638 1.38794,-2.05275 2.34693,-2.73083 0.50201,3.89526 2.65167,2.528 4.47644,1.98514 2.28979,-0.68119 4.57812,-1.3675 7.12512,-2.12871 0,1.45149 0,2.45241 0,3.9975 2.51355,-0.8541 4.61121,-1.56688 6.84045,-1.99524 0.38507,1.28709 0.63855,2.28976 0.6424,3.53746 1.4433,0.99742 3.13617,1.74981 5.09308,2.61955 -0.0284,0.46637 -0.0908,1.49104 -0.16114,2.64671 7.1167,-0.72574 13.93525,-1.42108 20.84174,-2.12539 -0.68689,0.99218 -1.49023,2.15269 -2.54559,3.44197 -0.38227,0.49293 -0.51258,0.85713 -0.64283,1.2213 0.65863,-0.0949 1.31726,-0.18975 2.35144,-0.3761 7.32508,-2.05547 14.2909,-3.4737 22.27399,-0.77416 -3.99908,1.84789 -7.25024,3.35015 -10.56488,4.5287 -0.50092,-4.71057 -3.12946,-2.7581 -5.29907,-2.13331 -3.53491,0.11537 -7.06989,0.23076 -10.93115,0.0949 z"
         id="path4327" /><path
         fill="#8854c6"
         opacity="1"
         stroke="none"
         d="m 967.31519,308.15805 c -0.19019,-0.0217 -0.38038,-0.0434 -0.85425,-0.0931 0.85089,-8.39987 1.98913,-16.77127 3.11902,-25.14383 0.72583,-5.37793 1.43921,-10.75756 2.27185,-16.8732 0.11981,-1.47879 0.12591,-2.22076 0.13195,-2.96277 0.0435,-1.46621 0.087,-2.93246 0.33472,-5.09362 0.33679,-1.51148 0.46942,-2.32804 0.60205,-3.1446 -0.0138,-5.93986 -0.0276,-11.87971 -0.085,-18.63287 -1.26642,-3.03847 -2.48926,-5.26366 -3.30072,-7.44151 1.56409,-3.75991 2.71686,-7.56714 3.73877,-10.94202 0.14026,1.12294 0.42499,2.73262 0.53143,4.35401 1.62036,24.68179 0.5459,49.24949 -3.40393,73.66648 -0.67291,4.15985 -2.03967,8.20749 -3.08587,12.30698 z"
         id="path4331" /><path
         fill="#8f5dca"
         opacity="1"
         stroke="none"
         d="m 945.02777,254.79716 c -0.79846,-0.20831 -1.22107,-0.473 -1.86102,-1.12107 -0.2312,-0.89707 -0.24512,-1.41074 0.14062,-2.16224 0.55103,-2.34234 0.70252,-4.44686 1.14368,-6.69996 4.00275,-1.35576 2.81281,-4.32871 3.01294,-7.11933 1.54193,-3.38913 2.79407,-6.56437 4.0462,-9.7396 2.23908,2.18383 2.94922,4.21127 4.06848,5.97981 0.57795,0.91318 1.88269,1.36644 2.98505,2.28761 0.22778,1.00055 0.32959,1.74097 0.43134,2.48137 0,0 -0.13849,0.15215 -0.4505,0.23363 -0.63373,0.0887 -0.95514,0.0812 -1.27625,0.0591 0,0 -0.18079,-0.0997 -0.39691,-0.2898 -0.39551,-0.37098 -0.59046,-0.53311 -0.80103,-0.67646 -4.37378,-1.54318 -4.37542,2.59089 -3.9165,4.13867 1.99469,6.72635 -3.62817,8.89018 -7.1261,12.62829 z"
         id="path4347" /><path
         fill="#8c4ed9"
         opacity="1"
         stroke="none"
         d="m 1029.0741,211.68146 c -0.9594,0.43496 -1.7649,0.53195 -2.9683,0.71801 -0.3979,0.0891 -0.367,0.0527 -0.4356,-0.27081 -3.7952,-5.203 4.8136,-5.42605 2.7799,-9.63071 1.916,0.22182 3.2253,0.37339 4.5704,0.57905 0.036,0.0541 0,-0.0923 0,-0.27546 -0.01,-0.18312 -0.022,-0.54922 0.3114,-0.76713 2.3907,-4.53702 5.4825,-0.88185 8.0585,-1.1854 1.5434,-0.18188 3.1262,-0.0305 4.8869,-0.25789 1.0135,-1.07077 1.8315,-1.91258 2.8691,-2.59742 2.1165,-1.04157 4.0133,-2.24011 6.5062,-3.81529 1.1314,0.69577 2.7526,1.69296 4.3739,2.69015 -2.9858,1.78989 -5.9719,3.57906 -8.9571,5.36996 -1.7331,1.03966 -3.6944,3.20392 -5.1515,2.90508 -3.8034,-0.77995 -7.084,0.50882 -10.5641,0.83086 -4.3309,0.40078 -5.3038,2.1802 -6.2749,5.707 z"
         id="path4355" /><path
         fill="#8c55cd"
         opacity="1"
         stroke="none"
         d="m 902.72192,262.76462 c -3.61981,-5.23114 0.19623,-9.94533 1.52179,-14.51921 2.45221,-8.46157 7.90106,-15.33336 13.79462,-21.85973 2.82745,-3.13104 4.40442,-7.48027 9.70862,-8.02782 0.55652,0.5802 0.63611,0.82804 0.56543,1.04905 -0.15027,-0.0268 -0.12805,-0.3308 -0.3385,-0.0953 -0.43274,0.59388 -0.65503,0.95223 -0.77698,1.41031 0.10028,0.0998 0.2981,0.30201 0.0247,0.45703 -1.39203,1.06377 -2.5105,1.97251 -3.92707,3.09891 -0.61914,0.58771 -0.94018,0.95772 -1.31512,1.61981 -1.49548,1.90838 -2.93701,3.52463 -4.65894,5.33286 -0.59918,0.76981 -0.91784,1.34764 -1.23205,1.88986 0.005,-0.0356 0.0699,-0.006 -0.12427,0.0107 -0.30664,0.36327 -0.41913,0.70998 -0.65802,1.36606 -0.49432,1.11249 -0.8623,1.91562 -1.35345,2.70383 -0.12323,-0.0149 -0.36023,-0.0888 -0.61646,-0.0156 -0.526,0.6921 -0.79571,1.31099 -1.11572,2.24244 -0.12018,0.72734 -0.19013,1.14212 -0.46692,1.73993 -0.40124,0.69534 -0.59576,1.20765 -0.97406,1.84115 -0.39972,0.35988 -0.46704,0.63495 -0.51068,1.21588 -0.16095,0.46421 -0.19708,0.65888 -0.40442,0.85321 -0.17108,-3.6e-4 -0.51282,0.0144 -0.74756,0.16419 -0.50549,0.40315 -0.77612,0.65649 -0.79224,0.91229 0.27735,0.17055 0.30018,0.33867 0.006,0.61926 -1.32178,3.48706 -2.32605,6.86161 -3.27374,10.49607 0.10882,0.42935 0.16107,0.59878 0.0848,1.06646 -0.20319,0.72263 -0.2779,1.14701 -0.53894,1.83997 -0.29975,1.12515 -0.41315,1.98175 -0.66651,2.94623 -0.14001,0.10788 -0.44079,0.29364 -0.63415,0.13092 -0.32215,-0.27143 -0.45093,-0.38013 -0.57972,-0.4888 z"
         id="path4357" /><path
         fill="#8a59bf"
         opacity="1"
         stroke="none"
         d="m 1026.0013,166.17401 c -0.051,0.91325 0.1656,2.47527 -0.1988,2.62506 -1.4205,0.58394 -3.025,0.72038 -4.4291,2.18283 4.2601,0 8.5204,0 13.2284,-0.0345 1.1639,-0.0507 1.88,-0.0669 3.385,-0.047 2.2249,0.005 3.6611,-0.0267 5.0973,-0.0581 0.731,0.018 1.462,0.036 2.8772,0.29207 8.4305,2.46141 16.177,4.68477 23.9233,6.90814 0.8156,0.29607 1.6311,0.59215 2.9496,1.19608 2.1785,2.15884 3.854,4.00984 5.2569,5.79551 -0.4558,-0.0895 -0.6392,-0.11367 -1.1133,-0.3307 -15.1059,-10.97009 -31.8096,-13.99313 -49.556,-11.44066 -5.2234,0.7513 -8.8764,-1.06692 -12.8657,-3.79266 3.9775,-1.14545 7.7114,-2.22075 11.4452,-3.29604 z"
         id="path4363" /><path
         fill="#9357db"
         opacity="1"
         stroke="none"
         d="m 935.07574,200.30185 c 2.2229,-0.99486 4.85144,-2.94733 5.32319,1.79892 0.0343,0.35937 -0.0457,0.31834 -0.22596,0.25484 -0.42852,-0.0261 -0.67681,0.0113 -0.92505,0.0487 0.14966,0.17526 0.29938,0.35052 0.4245,0.99951 0.0837,0.77078 0.19214,1.06784 0.4881,1.58331 1.21039,1.66466 2.2331,3.11093 3.19446,4.55625 -0.0613,-9.8e-4 -0.0646,-0.12365 -0.3822,-0.14295 -0.76984,0.37288 -1.22211,0.76505 -1.6211,1.19518 0.0532,0.0379 -7.3e-4,0.15707 -0.35907,0.0654 -3.8836,1.70613 -7.40887,3.50395 -10.93408,5.30179 0.69391,-1.21396 1.15644,-2.67484 2.13159,-3.58862 1.82874,-1.71372 2.70868,-3.10465 1.60499,-5.8732 -0.61225,-1.53588 0.75323,-3.86016 1.28063,-6.19916 m 3.42658,6.16731 c 0,0 0.0182,0.0434 0,0 z"
         id="path4391" /><path
         fill="#8a59bf"
         opacity="1"
         stroke="none"
         d="m 1060.2629,196.92558 c -1.8625,-1.05421 -3.4837,-2.0514 -4.6151,-2.74717 -2.4929,1.57518 -4.3897,2.77372 -6.4955,3.54559 -0.2117,-0.79001 -0.2147,-1.15334 0.071,-1.72058 0.1642,-1.53714 0.039,-2.87038 -0.164,-5.04752 5.22,1.59769 9.8938,3.02817 14.7835,4.61475 0.3717,-0.23418 0.5274,-0.62448 0.537,-1.30869 -1.3555,-1.7072 -2.5649,-3.12051 -3.7742,-4.53384 0.2236,-0.36174 0.4471,-0.72348 0.6708,-1.08521 3.8823,1.56623 7.7646,3.13246 11.6184,4.8512 -0.029,0.15248 -0.056,0.46156 -0.4052,0.45756 -1.7802,-0.12788 -3.2113,-0.25177 -4.5617,-0.36869 -1.8254,3.76523 -1.8254,3.76523 -6.9355,3.48651 0,0 -0.4881,-0.0869 -0.7295,-0.14391 z"
         id="path4395" /><path
         fill="#8a55cb"
         opacity="1"
         stroke="none"
         d="m 865.78357,175.90451 c 1.00696,-1.18562 1.80756,-3.07408 3.05511,-3.44043 6.99805,-2.05501 14.10389,-3.74297 22.01178,-5.56166 2.64405,-0.34851 4.44916,-0.69157 6.25434,-1.03464 0.39447,-0.0139 0.78894,-0.0277 1.67883,0.12401 0.73407,0.40346 0.97266,0.64136 0.84564,1.01163 -5.12976,1.2194 -9.8999,2.28087 -14.656,3.40182 -3.60242,0.84905 -7.18708,1.77393 -11.16877,2.65525 -2.9331,0.94146 -5.47699,1.89274 -8.02093,2.84402 z"
         id="path4399" /><path
         fill="#8c4ed9"
         opacity="1"
         stroke="none"
         d="m 940.02533,124.05682 c 3.15356,0.90636 6.78839,1.10806 9.36084,2.86516 5.42926,3.70828 10.38776,8.13336 15.3501,12.48041 1.4093,1.23453 2.16565,3.21434 3.2373,5.22703 0.0159,0.37467 -0.0305,0.4123 -0.30353,0.22657 -3.77459,-3.60607 -7.11547,-7.21746 -10.85028,-10.36077 -1.69616,-1.42752 -4.1726,-1.9279 -6.32684,-2.8195 -0.0318,0.0294 -0.10095,-0.0226 -0.13623,-0.36951 -3.46729,-2.64772 -6.89935,-4.94856 -10.33136,-7.24939 z"
         id="path4409" /><path
         fill="#8a59bf"
         opacity="1"
         stroke="none"
         d="m 959.33185,238.707 c -0.43854,-0.74365 -0.54035,-1.48407 -0.92182,-2.92053 -0.27966,-4.3991 -0.27966,-8.10211 -0.27966,-12.22017 2.57526,4.58423 4.75415,8.46284 7.24524,12.36687 0.72986,0.0194 1.14746,0.0134 1.57196,0.014 0.007,0.007 -0.0117,-0.007 -0.0117,-0.007 -2.42242,0.92321 -4.84479,1.84641 -7.604,2.76636 z"
         id="path4417" /><path
         fill="#8c4ed9"
         opacity="1"
         stroke="none"
         d="m 1061.2169,197.34236 c 4.8856,0.006 4.8856,0.006 6.711,-3.75938 1.3504,0.11692 2.7815,0.24081 4.6229,0.41137 0.4104,0.0467 0.5256,0.13594 0.6433,0.28479 0.2865,0.33844 0.4737,0.50731 0.7236,0.70064 0.044,0.0452 0.1388,0.12869 0.3064,0.3673 1.0036,0.65094 1.8395,1.06329 2.9904,1.51419 0.7334,0.0835 1.1516,0.12846 1.5699,0.1734 -0.3559,0.71692 -0.7582,2.0771 -1.0608,2.05528 -5.4345,-0.39207 -10.857,-0.95131 -16.5067,-1.74759 z"
         id="path4427" /><path
         fill="#8c4ed9"
         opacity="1"
         stroke="none"
         d="m 1069.8604,177.68346 c -7.7221,-1.86435 -15.4686,-4.08771 -23.5337,-6.53556 8.6594,-1.94554 16.4622,0.70854 23.5337,6.53556 z"
         id="path4431" /><path
         fill="#8a55cb"
         opacity="1"
         stroke="none"
         d="m 976.81921,157.04562 c 0.0549,0.42409 0.10993,0.84821 0.24964,1.95542 0.75995,3.91325 2.81476,5.24527 5.94519,5.32719 -0.87403,1.86322 -1.67432,3.39531 -2.65332,5.26947 -3.91394,-6.76457 -7.45789,-12.88974 -10.5885,-19.12733 0.974,-0.21218 1.53448,-0.31191 2.09503,-0.41165 0.24353,0.53036 0.48706,1.06073 0.99206,2.14499 1.49433,1.98324 2.72712,3.41258 3.9599,4.84191 z"
         id="path4433" /><path
         fill="#8854c6"
         opacity="1"
         stroke="none"
         d="m 1059.9905,137.24719 c -1.5656,0.66783 -3.131,1.33566 -4.8301,2.28705 -0.3156,0.30898 -0.4974,0.3344 -1.1741,0.19646 -5.1494,-1.70629 -1.9111,2.36454 -3.3713,3.30772 -2.9611,-1.06271 -5.5502,-2.07471 -8.1393,-3.0867 0.054,-0.4185 0.1074,-0.83699 0.1611,-1.25549 1.7786,-0.55352 3.5573,-1.10704 5.7973,-1.6041 4.1597,0.0893 7.858,0.12219 11.5564,0.15506 z"
         id="path4437" /><path
         fill="#9d6cd3"
         opacity="1"
         stroke="none"
         d="m 1078.8645,196.77075 c -0.4984,0.21898 -0.9166,0.17403 -1.8219,-0.13281 -1.3199,-0.68442 -2.1531,-1.10693 -2.9861,-1.52947 0,0 -0.095,-0.0835 -0.2503,-0.28181 -0.3182,-0.39743 -0.5096,-0.56346 -0.7298,-0.69637 0,0 -0.1152,-0.0893 -0.1763,-0.13194 -0.061,-0.0427 -0.034,-0.35176 0.3211,-0.66888 0.4867,-1.46492 0.6184,-2.61272 0.6821,-3.16861 2.7278,-0.44905 5.2277,-0.8606 7.9506,-1.25699 0.5159,0.0703 0.8114,0.10078 1.1192,0.11487 0.01,0.008 0.034,0.0168 0.1442,0.22226 0.2932,0.46229 0.518,0.67509 0.8212,1.18481 0.079,0.79747 0.1217,1.25397 0.164,1.71048 -0.2065,0.0363 -0.4128,0.0726 -1.1233,0.21033 -0.7543,0.22391 -0.9724,0.3889 -1.1582,0.5964 0,0 -0.3388,0.0231 -0.8437,0.12543 -0.98,1.03371 -1.4548,1.96507 -1.9298,2.89642 -0.034,0.18065 -0.068,0.36132 -0.183,0.80588 z"
         id="path4439" /><path
         fill="#8a59bf"
         opacity="1"
         stroke="none"
         d="m 969.12347,228.72527 c 1.22278,2.22518 2.44562,4.45037 3.72602,7.02742 -1.70838,0.24397 -3.47437,0.13606 -5.57703,0.10806 -0.33661,0.0799 -0.31799,0.0931 -0.3045,-0.28957 -0.64087,-1.78628 -1.29523,-3.18992 -2.00605,-4.98649 0.57258,-2.90575 1.2016,-5.41858 1.83057,-7.93143 0.31555,0.0813 0.63104,0.16269 0.94659,0.24402 0.44513,1.36252 0.89026,2.72505 1.24006,4.20213 -0.22583,0.40955 -0.17566,0.67867 0.10913,1.09392 0.0539,0.17196 0.0352,0.53194 0.0352,0.53194 z"
         id="path4443" /><path
         fill="#8745e1"
         opacity="1"
         stroke="none"
         d="m 1084.3285,192.293 c -0.2683,-0.61322 -0.3107,-1.06972 -0.5009,-2.07266 -0.3278,-0.80605 -0.5521,-1.01883 -0.8206,-1.18477 0,0 -0.024,-0.009 -0.1928,-0.2215 -0.6196,-0.45457 -1.0704,-0.6963 -1.719,-1.1042 -0.6448,-0.41293 -1.092,-0.65973 -1.693,-1.0076 -0.1537,-0.10109 -0.3457,-0.41478 -0.3926,-0.51559 -0.047,-0.10082 -0.4343,-0.29673 -0.5565,-0.34519 -0.1222,-0.0485 -0.2712,-0.26503 -0.2173,-0.38106 0.054,-0.11602 0.1278,-0.36102 0.1278,-0.36102 -1.6754,-1.85101 -3.3509,-3.70201 -5.2008,-5.8264 0.5933,-0.30203 1.6374,-0.66986 2.0845,-0.3053 3.3242,2.71051 6.7382,5.3712 9.6571,8.4852 0.9883,1.05435 3.4403,3.62662 -0.5759,4.84009 z"
         id="path4445" /><path
         fill="#8c4ed9"
         opacity="1"
         stroke="none"
         d="m 983.08765,163.9971 c -3.20404,0.24921 -5.25885,-1.08281 -5.99378,-4.67628 1.15161,0.12063 2.36292,0.60458 3.1778,0.93013 2.18762,-1.74625 4.15393,-3.31577 6.43927,-5.01879 -0.92316,2.44803 -2.16523,5.02954 -3.40589,8.12125 0.002,0.51019 -0.2174,0.64369 -0.2174,0.64369 z"
         id="path4459" /><path
         fill="#8f5dca"
         opacity="1"
         stroke="none"
         d="m 929.8562,216.1687 c 3.72754,-2.00371 7.25281,-3.80153 10.89728,-5.3027 -3.81751,3.09483 -7.75415,5.89303 -11.83942,8.65329 -0.1485,-0.0379 -0.45141,-0.0855 -0.45141,-0.0855 -0.0796,-0.24785 -0.15918,-0.49569 -0.35523,-1.11655 0.43781,-0.89621 0.99219,-1.4194 1.74878,-2.1485 z"
         id="path4469" /><path
         fill="#8a55cb"
         opacity="1"
         stroke="none"
         d="m 939.70734,124.01152 c 3.75,2.34613 7.18206,4.64697 10.32409,7.15881 -4.16009,-1.37854 -8.03015,-2.96811 -11.92791,-4.85485 -0.69208,-0.65273 -1.35651,-1.00826 -2.09925,-1.5436 -0.0783,-0.17982 -0.24121,-0.5366 0.14978,-0.59987 0.91303,-0.14883 1.435,-0.23439 1.95703,-0.31994 0.42609,0.038 0.85218,0.0761 1.59626,0.15945 z"
         id="path4473" /><path
         fill="#8a55cb"
         opacity="1"
         stroke="none"
         d="m 905.01471,164.99728 c 2.03686,-0.0264 4.07379,-0.0529 6.92853,-0.0531 2.55536,0.56083 4.2929,1.09546 5.57544,1.69902 -4.47144,-0.007 -8.4878,-0.0826 -12.50599,-0.40634 -0.005,-0.57854 -0.004,-0.90906 0.002,-1.23957 z"
         id="path4479" /><path
         fill="#8c4ed9"
         opacity="1"
         stroke="none"
         d="m 904.71191,164.80597 c 0.29682,0.52182 0.29554,0.85234 -0.1062,1.54166 -1.80707,0.41368 -3.20892,0.46855 -4.61078,0.52342 -0.23864,-0.2379 -0.47723,-0.4758 -0.91534,-0.87368 1.64356,-0.56756 3.48651,-0.97514 5.63232,-1.1914 z"
         id="path4497" /><path
         fill="#8c4ed9"
         opacity="1"
         stroke="none"
         d="m 917.97369,166.57426 c -1.73755,-0.53463 -3.47509,-1.06926 -5.59393,-1.62815 2.85242,0.0862 6.086,0.19659 9.32239,0.77575 -0.25171,0.67398 -0.48157,0.90383 -1.07092,1.20012 -1.14197,-0.088 -1.89979,-0.21786 -2.65754,-0.34772 z"
         id="path4501" /><path
         fill="#8a59bf"
         opacity="1"
         stroke="none"
         d="m 869.15985,179.33404 c -2.7558,2.16008 -5.30524,2.6626 -7.24945,-1.16828 0.76892,-0.31122 1.44037,-0.3685 2.51947,-0.36022 0.40771,0.0656 0.53937,0.17676 0.60083,0.46646 1.41736,0.54715 2.77325,0.8046 4.12915,1.06204 z"
         id="path4503" /><path
         fill="#8c4ed9"
         opacity="1"
         stroke="none"
         d="m 896.91919,165.57468 c -1.61957,0.63617 -3.42468,0.97923 -5.62512,1.31498 0.70709,-3.61195 2.84399,-3.44613 5.62512,-1.31498 z"
         id="path4507" /><path
         fill="#8a59bf"
         opacity="1"
         stroke="none"
         d="m 865.58765,176.09586 c 2.73986,-1.14263 5.28375,-2.09391 7.99908,-2.75672 -2.75824,1.74002 -5.68787,3.19158 -8.61749,4.64314 0,2e-5 -0.13166,-0.11117 -0.20215,-0.16343 0.16126,-0.5454 0.393,-1.03853 0.82056,-1.72299 z"
         id="path4517" /><path
         fill="#8c4ed9"
         opacity="1"
         stroke="none"
         d="m 971.88733,149.67541 c -0.58063,0.48305 -1.14111,0.58278 -2.13562,0.75211 -0.43396,0.0696 -0.35797,0.0104 -0.27234,-0.34708 -0.45502,-1.91786 -0.99567,-3.4783 -1.53632,-5.03872 0,0 0.0464,-0.0376 0.0696,-0.0572 1.31373,1.42281 2.60419,2.86519 3.87464,4.6909 z"
         id="path4521" /><path
         fill="#8a55cb"
         opacity="1"
         stroke="none"
         d="m 921.01544,166.88019 c 0.20514,-0.2545 0.435,-0.48435 0.88404,-0.84101 2.20416,-0.10379 4.21368,-0.0562 6.65484,0.0204 0.44537,0.44009 0.45905,0.85127 0.0624,1.59003 -2.80731,-0.0381 -5.20435,-0.40375 -7.60132,-0.76941 z"
         id="path4525" /><path
         fill="#8c4ed9"
         opacity="1"
         stroke="none"
         d="m 1050.9871,143.08913 c 1.0881,-0.99389 -2.1502,-5.06472 2.7244,-3.33715 0.2291,0.95328 0.2382,1.72193 0.2587,2.87403 0.011,0.38343 -0.059,0.43489 -0.5145,0.45602 -1.0189,0.0618 -1.5824,0.10246 -2.2516,0.16846 -0.1057,0.0254 -0.217,-0.16136 -0.217,-0.16136 z"
         id="path4533" /><path
         fill="#8c4ed9"
         opacity="1"
         stroke="none"
         d="m 976.78625,156.7009 c -1.19982,-1.08461 -2.43261,-2.51395 -3.73901,-4.27179 1.18634,1.09004 2.44623,2.50856 3.73901,4.27179 z"
         id="path4545" /><path
         fill="#8c4ed9"
         opacity="1"
         stroke="none"
         d="m 937.93939,123.56601 c -0.35034,0.37161 -0.87231,0.45717 -1.75018,0.53136 -0.35578,-0.0114 -0.20014,0.0363 -0.47888,-0.19052 -1.44318,-0.43029 -2.60749,-0.63377 -3.76117,-0.77163 0.0107,0.0656 -0.11316,0.11407 -0.23163,-0.13076 -0.34052,-0.53212 -0.56262,-0.81942 -0.78473,-1.10672 2.27832,0.46073 4.55658,0.92147 7.00659,1.66827 z"
         id="path4547" /><path
         fill="#8854c6"
         opacity="1"
         stroke="none"
         d="m 901.95984,273.00525 c -0.1933,-0.0106 -0.38666,-0.0212 -0.87097,-0.0572 -0.23877,-1.7186 -0.18646,-3.41184 0.19549,-5.53095 0.73316,-0.42651 1.13666,-0.42718 1.61347,-0.177 0.13293,0.41437 0.1925,0.57794 0.14538,1.07489 -0.14026,1.02854 -0.1737,1.72376 -0.3764,2.67542 -0.34851,0.84256 -0.52777,1.42871 -0.70697,2.01483 z"
         id="path4553" /><path
         fill="#8c4ed9"
         opacity="1"
         stroke="none"
         d="m 1042.9172,170.55997 c -1.2693,0.3137 -2.7055,0.3451 -4.5719,0.33065 1.1816,-0.23489 2.7932,-0.42393 4.5719,-0.33065 z"
         id="path4565" /><path
         fill="#8c55cd"
         opacity="1"
         stroke="none"
         d="m 902.82452,266.98929 c -0.4035,6.4e-4 -0.807,0.001 -1.51275,0.004 0.12164,-1.27591 0.54559,-2.55341 1.18982,-4.0296 0.34912,-0.09 0.4779,0.0187 0.83447,0.5769 0.24316,0.83335 0.25848,1.21707 0.11182,1.89508 -0.31574,0.71417 -0.46955,1.13407 -0.62336,1.55399 z"
         id="path4571" /><path
         fill="#8a56c8"
         opacity="1"
         stroke="none"
         d="m 905.40698,447.67911 c -0.0959,-0.57392 -0.19177,-1.14783 -0.3407,-2.15323 0.62452,-0.83811 1.30219,-1.24475 2.39332,-1.63819 0.41345,0.0132 0.67083,0.22388 0.57714,0.53525 -0.93908,1.29297 -1.78442,2.27457 -2.62976,3.25617 z"
         id="path4605" /><path
         fill="#8745e1"
         opacity="1"
         stroke="none"
         d="m 1079.3499,195.8577 c 0.1726,-0.82418 0.6474,-1.75554 1.4599,-2.76108 -0.1608,0.83519 -0.6592,1.74455 -1.4599,2.76108 z"
         id="path4615" /><path
         fill="#8a59bf"
         opacity="1"
         stroke="none"
         d="m 972.67749,254.99077 c 0.11041,0.67277 -0.0222,1.48933 -0.31042,2.56325 -0.0812,-0.63489 -0.007,-1.5272 0.31042,-2.56325 z"
         id="path4619" /><path
         fill="#8a59bf"
         opacity="1"
         stroke="none"
         d="m 957.27393,239.22281 c 0.31549,-0.20424 0.6369,-0.19676 1.19622,-0.21439 -0.23846,0.13997 -0.71447,0.29035 -1.19622,0.21439 z"
         id="path4641" /><path
         fill="#8a55cb"
         opacity="1"
         stroke="none"
         d="m 930.63348,121.89221 c 0.52143,0.29283 0.74353,0.58013 0.69635,1.08866 -1.29376,0.0624 -2.31823,-0.0964 -3.34271,-0.25522 0.23639,-0.22807 0.48773,-0.4383 0.9541,-0.77938 0.59772,-0.11897 0.99536,-0.0893 1.69226,-0.0541 z"
         id="path4659" /><path
         fill="#8a59bf"
         opacity="1"
         stroke="none"
         d="m 971.82318,263.30286 c 0.15454,0.52435 0.14844,1.26632 0.13696,2.38189 -0.10272,-0.47238 -0.20013,-1.3183 -0.13696,-2.38189 z"
         id="path4675" /><path
         fill="#8a56c8"
         opacity="1"
         stroke="none"
         d="m 907.742,443.79849 c -0.0522,-0.48303 0.0265,-0.86362 0.42225,-1.52734 0.48602,-0.28293 0.65496,-0.28269 0.82397,-0.28244 0,0 0.24878,0.2301 0.28271,0.60727 -0.35754,0.75662 -0.74902,1.13611 -1.1405,1.51559 0,0 -0.25738,-0.21063 -0.38843,-0.31308 z"
         id="path4693" /><path
         fill="#8c55cd"
         opacity="1"
         stroke="none"
         d="m 908.9928,441.6701 c -0.17359,0.31836 -0.34253,0.31812 -0.76514,0.31528 -0.0381,-0.50735 0.17737,-1.01214 0.58954,-1.71142 0.19122,0.22949 0.18573,0.65353 0.1756,1.39614 z"
         id="path4697" /><path
         fill="#8745e1"
         opacity="1"
         stroke="none"
         d="m 1082.0178,192.87909 c -0.011,-0.14357 0.2071,-0.30856 0.6494,-0.49381 0.013,0.14876 -0.2015,0.31298 -0.6494,0.49381 z"
         id="path4705" /><path
         fill="#8a59bf"
         opacity="1"
         stroke="none"
         d="m 956.1825,238.18761 c 0.0984,-0.0141 0.29339,0.14807 0.60229,0.46293 -0.11383,0.0394 -0.32044,-0.10708 -0.60229,-0.46293 z"
         id="path4723" /><path
         fill="#fcf6fd"
         opacity="1"
         stroke="none"
         d="m 908.03674,444.42291 c 0.48517,-0.69082 0.87665,-1.07031 1.35877,-1.71209 14.99231,-18.60971 26.04077,-39.25474 35.69391,-60.67127 9.5238,-21.12976 16.79113,-43.04532 21.45135,-65.77896 0.49274,-2.40375 0.45453,-4.91629 0.71851,-7.74045 1.10211,-4.46158 2.46887,-8.50922 3.14178,-12.66907 3.94983,-24.41699 5.02429,-48.98469 3.40393,-73.66648 -0.10644,-1.62139 -0.39117,-3.23107 -0.53143,-4.35401 -1.02191,3.37488 -2.17468,7.18211 -3.73877,10.94202 -0.41132,-0.0473 -0.39264,-0.40731 -0.37799,-0.83623 -0.0176,-0.6031 -0.05,-0.77731 -0.0823,-0.95154 -0.44513,-1.3625 -0.89026,-2.72503 -1.33539,-4.08755 -0.31555,-0.0813 -0.63104,-0.16268 -0.94659,-0.24402 -0.62897,2.51285 -1.25799,5.02568 -1.90186,8.34143 0.0477,2.17296 0.1103,3.543 0.1728,4.91305 -2.1789,-3.8786 -4.35779,-7.75721 -6.93305,-12.34144 0,4.11806 0,7.82107 0.15369,11.96004 -0.8227,-0.22513 -2.12744,-0.67839 -2.70539,-1.59157 -1.11926,-1.76854 -1.8294,-3.79598 -4.06848,-5.97981 -1.25213,3.17523 -2.50427,6.35047 -4.21881,9.43203 -1.0719,-1.02647 -1.68139,-1.95926 -3.13006,-4.17628 0,4.9736 0,8.36267 0,11.75174 -0.15143,2.10454 -0.30292,4.20906 -0.93091,6.32191 -0.47657,0.008 -0.831,-0.32374 -0.83637,-0.47656 -0.0752,-0.36432 -0.21679,-0.50244 -0.51831,-0.89572 -0.83453,-1.66557 -1.58075,-3.00263 -2.32702,-4.33969 -0.33551,0.10812 -0.67109,0.21624 -1.0066,0.32437 0.39002,3.05763 0.7801,6.11526 1.17011,9.1729 -0.31867,0.51564 -0.63727,1.03126 -1.62885,1.54927 -1.12127,0.73086 -1.5697,1.45935 -2.01818,2.18789 -0.12482,1.13358 -0.24964,2.26712 -0.67481,3.88745 -1.53473,-0.1369 -2.76916,-0.76049 -5.0982,-1.9371 0,5.50937 0,10.34574 0,15.18216 -0.37525,0.32257 -0.75049,0.64514 -1.52381,0.56476 -2.01294,-3.56705 -3.62787,-6.73111 -5.24286,-9.89517 -0.34887,-0.0135 -0.69775,-0.0269 -1.04663,-0.0403 -0.31268,3.4563 -0.62536,6.91263 -0.93805,10.36896 -0.0693,0.47757 -0.13867,0.95514 -0.17535,2.18665 0.0326,2.37295 0.0326,3.99197 0.0326,5.61099 -0.37451,0.0403 -0.74902,0.0807 -1.12359,0.12106 -0.84955,-1.3016 -1.6991,-2.60321 -2.80732,-4.30115 -0.6408,1.75681 -1.13196,3.10334 -1.80578,4.71012 -0.29163,0.87991 -0.40058,1.49966 -0.49945,2.39633 -0.11267,0.62198 -0.23542,0.96701 -0.67682,1.4711 -1.461,0.45328 -2.60334,0.74753 -3.74561,1.04175 -0.80151,-0.56229 -1.60302,-1.12458 -2.74518,-1.11942 -0.50506,1.84226 -0.66943,3.11707 -0.8338,4.39188 -0.0577,0.63632 -0.11554,1.27261 -0.65051,2.20166 -1.79266,-1.68335 -3.10809,-3.65949 -4.42346,-5.63559 -0.0342,-4.02527 -0.0684,-8.05057 0.29339,-12.57108 4.16077,-2.52993 0.53015,-4.63611 0.45612,-6.70788 0.0335,-0.69519 0.0669,-1.39041 0.37292,-2.61701 0.31531,-1.34622 0.3581,-2.16107 0.40082,-2.97589 -0.0153,-0.38376 -0.0306,-0.76748 -0.0804,-1.43808 -0.0344,-0.28683 0.26636,-0.47259 0.6394,-0.74243 0.45533,-1.19751 0.5376,-2.12518 0.61988,-3.05286 0.0746,-0.42437 0.14935,-0.84875 0.69189,-1.6987 1.09296,-2.84753 1.71802,-5.2695 2.32495,-7.83229 -0.0182,-0.14082 0.14722,-0.37169 0.47333,-0.51313 0.80298,-1.68935 1.27985,-3.23726 1.75665,-4.78518 0.0362,-0.19468 0.0723,-0.38935 0.37195,-1.00552 0.42499,-0.6515 0.52246,-0.90604 0.55585,-1.18509 0.19446,-0.51233 0.38898,-1.02464 1.00348,-1.90605 0.63067,-0.88364 0.84124,-1.39818 1.13195,-2.24329 0.21802,-0.76242 0.35584,-1.19432 0.49366,-1.6262 0,0 0.237,0.0738 0.60925,0.20051 1.16083,-1.3681 1.9494,-2.86288 2.83319,-4.68158 0.25214,-0.74682 0.40906,-1.1697 0.56598,-1.5926 1.44153,-1.61626 2.88306,-3.23251 4.72681,-5.29643 0.68982,-0.85907 0.97735,-1.2705 1.26495,-1.68195 1.11847,-0.90872 2.23694,-1.81746 3.84674,-2.9458 0.86859,-0.66547 1.24591,-1.1113 1.62329,-1.55713 3.93671,-2.79822 7.87335,-5.59642 12.0492,-8.59958 0.23913,-0.20494 0.29309,-0.32406 0.53955,-0.40517 0.71057,-0.43164 1.1748,-0.78217 1.63897,-1.13272 0,0 0.003,0.12267 0.41999,0.0521 5.29236,-2.29126 10.16797,-4.51197 15.04364,-6.73265 -0.097,-0.0375 -0.19403,-0.0751 -0.29102,-0.11261 -0.0694,-0.39975 -0.13879,-0.7995 -0.20819,-1.19925 -6.09393,1.1138 -12.18793,2.2276 -18.28186,3.3414 -0.10834,-0.29706 -0.21674,-0.59412 -0.0975,-1.44225 0.22747,-0.55105 0.47784,-0.90741 0.47784,-0.90741 0,0 0.08,0.041 0.10919,0.005 3.28034,-1.53793 6.5315,-3.04019 10.53058,-4.88808 -7.98309,-2.69954 -14.94891,-1.28131 -22.53656,0.49996 -0.82336,-0.35503 -1.00867,-0.52739 -1.19403,-0.69974 0.80335,-1.16054 1.60669,-2.32105 2.29358,-3.31323 -6.90649,0.70431 -13.72504,1.39965 -20.84174,2.12539 0.0704,-1.15567 0.13276,-2.18034 0.16114,-2.64671 -1.95691,-0.86974 -3.64978,-1.62213 -4.79822,-2.74365 3.19134,-2.17162 5.83813,-3.97411 8.48492,-5.7766 -0.21374,-0.46776 -0.42749,-0.93552 -0.64117,-1.40326 -2.97089,1.16069 -5.94171,2.32138 -8.9126,3.48207 -2.09765,0.71279 -4.19531,1.42557 -6.70886,2.27967 0,-1.54509 0,-2.54601 0,-3.9975 -2.547,0.76121 -4.83533,1.44752 -7.12512,2.12871 -1.82477,0.54286 -3.97443,1.91012 -4.16932,-2.03955 0.0421,-0.4027 3.7e-4,-0.41974 0.35352,-0.47348 2.25031,-1.38999 4.14746,-2.72626 6.04456,-4.06254 -0.1482,-0.39065 -0.29639,-0.78131 -0.44458,-1.17198 -3.67316,1.05477 -7.34626,2.10952 -11.01941,3.16428 -0.43152,0.0688 -0.86304,0.13759 -1.94556,0.32385 -1.82159,-0.1739 -2.99225,-0.4653 -5.22455,-1.02095 3.10675,-2.05556 4.9281,-3.26066 6.74951,-4.46577 -0.13507,-0.36711 -0.27008,-0.73424 -0.40515,-1.10135 -2.80707,0.81401 -5.61413,1.628 -8.4212,2.442 -0.35016,0.0166 -0.70038,0.0331 -1.29138,0.15886 -1.59681,-0.14827 -2.9527,-0.40572 -4.37006,-0.95287 2.86816,-1.74128 5.79779,-3.19284 8.94519,-4.92305 3.8103,-1.16978 7.39496,-2.09466 10.99738,-2.94371 4.7561,-1.12095 9.52624,-2.18242 14.656,-3.40182 1.76752,-0.18724 3.16937,-0.24211 4.97827,-0.40778 4.42334,-0.035 8.4397,0.0407 12.91114,0.0476 1.21276,0.0609 1.97058,0.19076 3.11255,0.27881 2.78118,0.32385 5.17822,0.68951 7.98803,1.03677 0.41291,-0.0184 0.42603,0.0333 0.78748,0.15878 3.45935,0.66587 6.55719,1.2062 9.65509,1.74654 0.7052,0.21432 1.4104,0.42865 2.59039,0.76114 0.47473,0.11816 0.7511,0.0853 0.7511,0.0853 0,0 0.25995,0.0555 0.49585,0.15854 0.8316,0.2171 1.42737,0.33118 2.02307,0.44527 0.48541,0.21386 0.97083,0.42772 2.04627,0.80241 6.5263,2.8 12.46252,5.43913 19.57995,8.60342 -4.53161,-7.0941 -10.15112,-9.39555 -17.15674,-9.84722 -0.42828,-0.36681 -0.6037,-0.50878 -0.77905,-0.65073 1.93726,-1.05064 3.87451,-2.10127 7.15344,-3.8795 -2.8789,-0.35555 -4.22052,-0.52126 -5.94506,-0.7495 -0.38288,-0.0626 -0.40577,-0.11984 -0.40577,-0.11984 -0.98883,-0.4668 -1.97766,-0.9336 -4.09985,-1.93546 3.53888,-0.63231 5.98926,-1.07014 8.4397,-1.50798 0.0457,-0.28358 0.0914,-0.56717 0.13714,-0.85075 -3.46454,-0.81023 -6.92901,-1.62047 -10.15631,-2.78146 2.12756,-0.65294 4.01788,-0.95513 5.90821,-1.25731 -0.0148,-0.2504 -0.0297,-0.50081 -0.0444,-0.75122 -4.21979,-1.08553 -8.43951,-2.17107 -12.36035,-3.33974 0.46912,-0.20055 0.6394,-0.31799 1.17029,-0.50728 3.75348,-0.82643 7.1463,-1.58104 10.53918,-2.33565 0.009,-0.38763 0.0181,-0.77527 0.0271,-1.1629 -2.91089,-0.28534 -5.82178,-0.57069 -9.14953,-0.92601 -2.05127,0.2381 -3.68561,0.54617 -5.65735,0.78622 -0.76557,-0.0221 -1.19373,0.0238 -1.71765,-0.36079 2.13501,-2.16463 4.36566,-3.89874 6.62213,-5.65294 -2.10852,-1.01652 -4.07569,-1.9649 -7.21601,-3.47885 2.83411,-0.98427 4.18067,-1.45193 6.52625,-2.26657 -3.38287,-1.35092 -5.77423,-2.30588 -8.16559,-3.26085 0,-2e-5 -0.17908,-0.30643 -0.13055,-0.79376 2.93066,-0.89058 5.81286,-1.29379 8.69567,-1.69719 -0.21704,-1.59354 -0.43457,-3.18691 -0.65216,-4.78026 3.87012,1.58955 7.74018,3.17912 11.93555,4.90454 0.32526,0.13588 0.39441,0.1879 0.61151,0.41574 6.38324,6.32021 12.54938,12.41255 18.71552,18.50492 0,1e-5 -0.076,0.0592 -0.0555,0.10208 3.56457,6.16801 7.10852,12.29318 11.02246,19.05775 0.979,-1.87416 1.77929,-3.40625 2.65332,-5.26947 0.0736,-0.33113 0.29254,-0.46463 0.30847,-0.5918 12.32648,-16.29756 27.57791,-28.52452 47.03061,-35.07078 2.1822,-0.73438 4.4798,-1.12534 7.5805,-1.65935 4.7552,-0.25786 8.6521,-0.56882 12.5537,-0.79225 2.3696,-0.13569 5.1775,-0.95817 5.3569,2.93207 -0.1568,0.059 -0.487,0.003 -0.8667,-0.0488 -1.5516,0.24368 -2.7235,0.53883 -4.1796,0.94383 -1.0097,0.29929 -1.7353,0.48873 -3.6957,1.00057 4.0979,1.32263 7.0211,2.26616 9.6759,3.5267 -3.114,1.03378 -5.9597,1.75053 -8.8053,2.46728 -1.7787,0.55352 -3.5574,1.10704 -5.336,1.66056 -0.054,0.4185 -0.1074,0.83699 -0.1611,1.25549 2.5891,1.01199 5.1782,2.02399 8.1393,3.0867 0.3721,0.0507 0.4834,0.23743 0.7559,0.57175 -0.7087,0.97252 -1.6205,1.97456 -2.6849,2.17727 -2.6572,0.50611 -5.3836,0.64913 -8.3654,0.90043 -0.7491,0.25238 -1.2149,0.5422 -1.6807,0.83203 0.6096,0.38202 1.2191,0.76405 2.0796,1.35254 1.2755,1.20817 2.3002,2.20985 2.9204,3.40249 -6.5516,-0.52353 -12.7311,-2.36116 -20.0715,0.44478 1.9846,0.74278 2.7368,1.02431 3.6743,1.51305 0.7412,1.36207 1.297,2.51693 1.8528,3.6718 -0.9587,0.17202 -1.9173,0.34405 -4.1958,0.75294 3.6702,1.42735 6.2348,2.4247 8.7994,3.42203 0.052,0.42384 0.1046,0.84769 0.157,1.27153 -2.3958,0.80527 -4.7915,1.61052 -7.521,2.61937 -4.0676,1.27887 -7.8015,2.35417 -11.779,3.49962 3.9893,2.72574 7.6423,4.54396 12.8657,3.79266 17.7464,-2.55247 34.4501,0.47057 49.6617,11.60854 0.5885,0.56112 0.8224,0.67596 1.0984,0.70521 0,0 0.149,0.21658 0.2888,0.39034 0.1399,0.17373 0.3339,0.33535 0.3339,0.33535 0,0 0.2519,-0.0147 0.2519,-0.0147 0,0 0.192,0.31369 0.4208,0.64644 0.7196,0.72897 1.2102,1.1252 1.7837,1.66142 0.083,0.13999 0.37,0.29337 0.37,0.29335 -2.5,0.41156 -4.9999,0.82311 -7.7277,1.27216 -0.064,0.55589 -0.1954,1.70369 -0.6535,3.01611 -4.2088,-1.4016 -8.0911,-2.96783 -11.9734,-4.53406 -0.2237,0.36173 -0.4472,0.72347 -0.6708,1.08521 1.2093,1.41333 2.4187,2.82664 3.5436,4.74237 -0.2304,0.64961 -0.3764,0.79683 -0.5224,0.94406 -4.6737,-1.43048 -9.3475,-2.86096 -14.5675,-4.45865 0.2035,2.17714 0.3282,3.51038 -0.1306,4.86452 -3.3861,-1.64998 -6.189,-3.32086 -9.0727,-5.08974 -0.3237,-0.24032 -0.5573,-0.22586 -1.2051,-0.0616 -0.9769,-0.10959 -1.5307,-0.21219 -2.2644,-0.33957 0.014,0.53372 0.2086,1.09222 0.7118,1.74798 1.1648,0.73168 2.0206,1.36608 3.0162,2.19095 0.3557,0.42859 0.6134,0.6063 0.8998,0.72881 -0.013,0.005 5e-4,-0.0208 -0.03,0.33519 -0.2626,3.16759 -1.7915,3.14197 -4.1942,2.81218 -4.5995,-0.6313 -9.2764,-0.69811 -13.9212,-0.99915 -0.084,0.54111 -0.1683,1.08222 -0.2524,1.62332 0.7801,0.40824 1.5603,0.81646 2.327,1.62743 -0.9565,6.93524 -5.2231,2.30049 -8.3068,2.60825 -3.7283,-1.00597 -7.1203,-1.84949 -10.5123,-2.693 -0.111,0.46924 -0.222,0.93848 -0.3331,1.40773 2.8974,1.56757 5.7948,3.13513 8.7856,4.68672 0.093,-0.016 0.06,-0.20262 0.1601,0.0828 0.4521,0.46231 0.8045,0.63919 1.1372,0.75353 -0.02,-0.0626 -0.1425,-0.0171 0.044,0.25938 0.7701,0.58106 1.3537,0.88564 2.1876,1.39147 2.7112,1.32051 5.1721,2.43979 7.6331,3.55908 0,0 -0.031,0.0363 -0.025,0.0591 7.983,6.7269 16.6417,12.78156 23.7843,20.28043 12.0866,12.68948 18.1225,28.02545 15.7308,45.9368 -0.3714,2.78216 -0.5058,2.76422 -2.5385,1.50848 -1.2578,-5.05585 -2.3417,-9.85919 -3.6518,-15.66443 -2.0478,5.07895 -3.6197,8.97757 -5.7183,14.18256 -1.4092,-7.68189 -2.539,-13.84134 -3.6689,-20.0008 -0.4245,0.008 -0.8492,0.015 -1.2738,0.0225 -1.6629,3.90298 -3.3258,7.80596 -4.9886,11.70892 -0.4459,-0.0667 -0.892,-0.13349 -1.3379,-0.20023 -0.752,-4.18786 -1.504,-8.37573 -2.4378,-13.57522 -2.3631,3.18518 -4.0711,5.48739 -6.5761,8.86401 0.3142,-7.59045 2.9458,-14.04808 -1.0419,-21.00159 -1.4966,5.01979 -2.7283,9.15133 -3.9601,13.28287 -0.4138,-0.0492 -0.8276,-0.0984 -1.2414,-0.14752 -0.1852,-1.38266 -0.3704,-2.76535 -0.5922,-4.88599 -0.25,-2.61715 -0.4634,-4.49633 -0.6768,-6.37552 -0.3643,-0.0122 -0.7287,-0.0245 -1.0932,-0.0367 -0.5764,2.1646 -1.1529,4.3292 -1.7294,6.49379 -0.9451,0.61688 -1.512,3.8857 -3.167,-0.25194 -0.5935,-3.83506 -1.0576,-6.985 -1.5216,-10.13494 -0.3288,0.0134 -0.6577,0.0267 -0.9865,0.0401 -0.3635,2.41457 -0.727,4.82915 -1.0906,7.24371 -0.5525,-1.38534 -1.105,-2.77069 -1.7899,-4.46867 -0.2021,-1.15938 -0.2715,-2.0061 -0.4963,-3.51059 -0.4647,-1.89511 -0.7743,-3.13243 -1.2514,-5.04001 -1.7994,2.71016 -3.0453,4.5866 -4.2912,6.46305 -0.5645,-1.63985 -1.3302,-3.24067 -1.6574,-4.92658 -1.1781,-6.06995 -4.7225,-10.38298 -10.0487,-14.37387 -0.35334,4.79279 -0.65876,8.93607 -0.96418,13.07935 -0.42108,0.0984 -0.8421,0.19676 -1.26312,0.29513 -1.52197,-6.62085 -3.51593,-12.95199 -9.74078,-17.51736 0.85589,11.54416 2.07397,22.3715 2.39813,33.22557 2.78149,93.12559 -26.62329,175.01225 -86.27283,246.31602 -2.80639,3.35468 -5.71136,4.84784 -10.14965,4.70609 -9.81452,-0.31345 -19.64655,-0.0768 -29.93299,0.0119 -3.83325,-2.07861 -0.25458,-2.8613 0.50836,-3.75879 14.09345,-16.5802 28.29486,-33.06857 42.45996,-49.58789 0.64533,-0.75262 1.16352,-1.61423 1.85157,-2.72998 0.95593,-1.28656 1.80127,-2.26816 2.74035,-3.56116 m 35.08905,-312.33456 c -0.20385,0.0228 -0.40765,0.0455 -0.61151,0.0683 0.20697,0.0628 0.41388,0.12572 0.61151,-0.0683 z"
         id="path4821" /><path
         fill="#8a59bf"
         opacity="1"
         stroke="none"
         d="m 1008.3794,243.35672 c 0.9745,-1.98872 2.2204,-3.86516 4.0198,-6.57532 0.4771,1.90758 0.7867,3.1449 1.1055,4.75432 -1.6117,0.89249 -3.2328,1.41289 -5.1253,1.821 z"
         id="path4823" /><path
         fill="#8b62b0"
         opacity="1"
         stroke="none"
         d="m 1016.1458,250.05914 c 0.1546,-2.67303 0.5181,-5.08761 0.8816,-7.50218 0.3288,-0.0134 0.6577,-0.0267 0.9865,-0.0401 0.464,3.14994 0.9281,6.29988 1.3694,9.87518 -1.0247,-0.40791 -2.0266,-1.24117 -3.2375,-2.33289 z"
         id="path4871" /><path
         fill="#8b62b0"
         opacity="1"
         stroke="none"
         d="m 1022.9926,252.95532 c 0.2864,-2.21618 0.8629,-4.38078 1.4393,-6.54538 0.3645,0.0122 0.7289,0.0245 1.0932,0.0367 0.2134,1.87919 0.4268,3.75837 0.5856,6.02012 -0.979,0.4351 -1.9035,0.48764 -3.1181,0.48858 z"
         id="path4873" /><path
         fill="#8a59bf"
         opacity="1"
         stroke="none"
         d="m 934.50647,148.97192 c 1.63434,-0.30809 3.26868,-0.61616 5.21838,-0.49868 -0.34838,1.66397 -1.01208,2.90239 -1.67578,4.1408 -0.17029,0.11747 -0.34057,0.23491 -0.90625,0.54822 -0.59741,0.62685 -0.79938,1.05785 -1.0014,1.48883 -0.17316,-1.30322 -0.34631,-2.60644 -0.56842,-4.27838 -1.461,-0.0949 -3.34961,-0.21764 -6.55048,-0.42561 2.00049,-2.4944 3.39618,-4.23476 5.03015,-6.2721 -2.3468,-1.57119 -7.36059,-2.38217 -2.92633,-6.89052 0.22412,-0.22787 -0.74066,-1.62526 -1.03003,-2.68937 2.51325,0.74374 4.90461,1.6987 8.28748,3.04962 -2.34558,0.81464 -3.69214,1.2823 -6.52625,2.26657 3.14032,1.51395 5.10749,2.46233 7.21601,3.47885 -2.25647,1.7542 -4.48712,3.48831 -6.58466,5.63741 0.76129,0.42474 1.38947,0.43455 2.01758,0.44436 z"
         id="path4895" /><path
         fill="#8b62b0"
         opacity="1"
         stroke="none"
         d="m 949.64471,171.09784 c 6.75263,0.22682 12.37214,2.52827 16.90375,9.62237 -7.11743,-3.16429 -13.05365,-5.80342 -19.30829,-8.62266 -0.0424,-0.45387 0.23371,-0.72765 0.97217,-1.08431 0.78388,-0.0161 1.10718,0.0397 1.43237,0.0846 z"
         id="path4897" /><path
         fill="#f0d8fc"
         opacity="1"
         stroke="none"
         d="m 938.10352,126.31548 c 0.24523,1.89054 0.46276,3.48391 0.6798,5.07745 -2.88281,0.4034 -5.76501,0.80661 -8.78369,1.5431 -0.85852,0.28074 -1.58062,0.2282 -3.03057,0.0521 -2.89325,-0.71443 -5.05866,-1.30527 -7.224,-1.8961 0.32904,0.0111 0.64428,-0.0495 1.60296,-0.36705 3.72357,-0.36916 6.80133,-0.4515 9.85047,-0.7905 1.10095,-0.12242 2.13342,-0.86058 3.19714,-1.31775 -0.82282,-0.84362 -1.64569,-1.68723 -2.18896,-2.76989 1.47833,-0.45775 2.67706,-0.67645 3.87585,-0.89515 0.66449,0.35553 1.32892,0.71106 2.021,1.36379 z"
         id="path4899" /><path
         fill="#8854c6"
         opacity="1"
         stroke="none"
         d="m 931.92712,126.08589 c 0.82282,0.84361 1.64569,1.68722 2.46851,2.53084 -1.06372,0.45717 -2.09619,1.19533 -3.19714,1.31775 -3.04914,0.339 -6.1269,0.42134 -9.65387,0.64882 2.16076,-1.10675 4.7821,-2.25719 7.40094,-3.40653 -1.86139,-0.78637 -4.12934,-1.74447 -6.245,-2.96674 3.177,0.44916 6.20178,1.16251 9.22656,1.87586 z"
         id="path4901" /><path
         fill="#8b62b0"
         opacity="1"
         stroke="none"
         d="m 936.40967,154.85667 c -0.0662,-0.63656 0.13574,-1.06756 0.43432,-1.61129 4.31623,0.97279 8.53595,2.05833 12.75574,3.14386 0.0148,0.25041 0.0296,0.50082 0.0444,0.75122 -1.89033,0.30218 -3.78065,0.60437 -6.05298,0.89944 -2.55909,-0.99728 -4.73621,-1.98746 -7.18152,-3.18323 z"
         id="path4903" /><path
         fill="#dbb8f3"
         opacity="1"
         stroke="none"
         d="m 932.20667,125.84685 c -3.30433,-0.47431 -6.32911,-1.18766 -9.74769,-1.88784 -0.94049,-0.42179 -1.48712,-0.85676 -1.70849,-1.50505 1.93292,-0.17704 3.54071,-0.14078 5.14844,-0.10452 0.51672,0.13634 1.0335,0.27268 1.81921,0.39262 1.29346,0.14241 2.31793,0.30123 3.7301,0.48364 0.38776,0.0236 0.5116,-0.0249 0.76642,0.14858 1.42804,0.36875 2.6012,0.56406 3.77441,0.75937 0,0 -0.15564,-0.0477 -0.19085,0.027 -0.0352,0.0747 0.12774,0.43143 0.20605,0.61124 -1.12054,0.39852 -2.31927,0.61722 -3.7976,1.07498 z"
         id="path4905" /><path
         fill="#8a55cb"
         opacity="1"
         stroke="none"
         d="m 938.89191,169.55212 c -2.92798,-0.22837 -6.02582,-0.7687 -9.46753,-1.45477 2.86999,0.28378 6.0838,0.7133 9.46753,1.45477 z"
         id="path4907" /><path
         fill="#8a59bf"
         opacity="1"
         stroke="none"
         d="m 919.52057,131.21677 c 2.38983,0.46609 4.55524,1.05693 7.08563,1.77273 -1.83935,0.32942 -4.04462,0.64539 -6.24719,0.62689 -0.36066,-0.003 -0.70893,-1.47943 -0.83844,-2.39962 z"
         id="path4909" /><path
         fill="#8a55cb"
         opacity="1"
         stroke="none"
         d="m 925.65955,122.09049 c -1.36835,0.22269 -2.97614,0.18643 -4.97852,0.1063 1.31665,-0.151 3.02795,-0.25813 4.97852,-0.1063 z"
         id="path4911" /><path
         fill="#8a55cb"
         opacity="1"
         stroke="none"
         d="m 944.71143,171.08455 c -0.38489,0.11574 -0.98066,0.002 -1.77771,-0.34378 0.38812,-0.11624 0.97753,-0.001 1.77771,0.34378 z"
         id="path4913" /><path
         fill="#8a55cb"
         opacity="1"
         stroke="none"
         d="m 949.39172,170.87299 c -0.0722,0.17994 -0.3955,0.12413 -0.94091,-0.0277 -0.15271,-0.26188 -0.0394,-0.40689 0.13891,-0.5716 0.1983,0.0905 0.37372,0.23247 0.802,0.59928 z"
         id="path4915" /><path
         fill="#8a55cb"
         opacity="1"
         stroke="none"
         d="m 949.46796,165.53856 c 0.0298,0.008 -0.26502,0.3865 -0.26502,0.3865 0,0 -0.008,-0.29853 0.10205,-0.37509 0.11029,-0.0765 0.13318,-0.0193 0.16297,-0.0114 z"
         id="path4917" /><path
         fill="#8a55cb"
         opacity="1"
         stroke="none"
         d="m 942.42316,170.57047 c -0.0198,0.1401 -0.29621,0.17292 -0.40168,0.082 -0.1054,-0.0909 0.16083,-0.39067 0.16083,-0.39067 0,0 0.26068,0.16853 0.24085,0.30864 z"
         id="path4919" /><path
         fill="#8a59bf"
         opacity="1"
         stroke="none"
         d="m 915.84406,285.00497 c 0.49114,-1.34655 0.9823,-2.69308 1.6231,-4.44989 1.10822,1.69794 1.95777,2.99955 2.80732,4.30115 0.37457,-0.0403 0.74908,-0.0807 1.12359,-0.12106 0,-1.61902 0,-3.23804 0.0797,-5.26264 0.86017,2.74906 1.64063,5.90363 2.42108,9.05823 -0.50366,0.24301 -1.00738,0.48605 -1.51104,0.72907 -1.49781,-0.77109 -2.99561,-1.54218 -4.72748,-2.43378 -1.10895,2.53543 -2.20935,5.05139 -3.56171,7.41373 0.0671,-1.85782 0.38611,-3.56205 0.70514,-5.26624 0.12274,-0.345 0.24549,-0.69003 0.55756,-1.5668 0.28711,-1.15509 0.38495,-1.77841 0.48273,-2.40177 m 5.5725,1.7096 c 0,0 0.14112,-0.35175 0.14112,-0.35175 0,0 -0.34821,0.0935 -0.14112,0.35175 z"
         id="path4921" /><path
         fill="#8a59bf"
         opacity="1"
         stroke="none"
         d="m 921.78369,276.79254 c 0.0698,-3.31134 0.38251,-6.76767 0.69519,-10.22397 0.34888,0.0134 0.69776,0.0269 1.04663,0.0403 1.61499,3.16406 3.22992,6.32812 4.97547,9.84457 -1.32654,-0.57577 -2.7837,-1.50394 -4.55194,-2.63022 -0.58649,0.86154 -1.25446,1.8429 -2.16535,2.96927 z"
         id="path4923" /><path
         fill="#f4e1fc"
         opacity="1"
         stroke="none"
         d="m 902.00537,290.45581 c 1.39655,1.5332 2.71198,3.50934 4.39295,5.49384 -0.25653,2.85504 -0.87861,5.70166 -1.50074,8.5483 -0.53192,0.0128 -1.0639,0.0255 -1.59582,0.0383 -0.45923,-4.54583 -0.9184,-9.09167 -1.29639,-14.08041 z"
         id="path4925" /><path
         fill="#8b62b0"
         opacity="1"
         stroke="none"
         d="m 939.88629,255.13553 c -0.56408,-3.12351 -0.95416,-6.18114 -1.34418,-9.23877 0.33551,-0.10813 0.67109,-0.21625 1.0066,-0.32437 0.74627,1.33706 1.49249,2.67412 2.39038,4.46539 0.24206,0.61868 0.34497,0.77489 0.46032,0.92284 0,0 0.35443,0.33204 0.4314,0.56155 0.0908,0.74318 0.10474,1.25685 0.1178,2.02141 -0.96326,0.71986 -1.92572,1.18883 -3.06232,1.59195 z"
         id="path4927" /><path
         fill="#8a59bf"
         opacity="1"
         stroke="none"
         d="m 930.46667,275.94318 c -0.17449,-4.84027 -0.17449,-9.67664 -0.17449,-15.18601 2.32904,1.17661 3.56347,1.8002 5.19354,2.27377 0.39575,-0.15008 0.35937,-0.15567 0.39972,-0.13983 0.0403,0.0158 0.10992,0.0525 0.10992,0.0525 -4.83264,1.34741 -5.35248,5.02881 -4.98041,9.99253 -0.0111,1.53674 -0.0179,2.27618 -0.0247,3.01559 0,0 -0.34899,-0.005 -0.52356,-0.009 z"
         id="path4929" /><path
         fill="#f0d8fc"
         opacity="1"
         stroke="none"
         d="m 914.48511,289.13263 c -3.7e-4,1.5451 -0.31934,3.24933 -0.66504,5.32025 -1.02466,-0.96081 -2.02265,-2.28839 -3.05054,-3.9472 1.11224,-0.62552 2.25458,-0.91977 3.71558,-1.37305 z"
         id="path4931" /><path
         fill="#f4e1fc"
         opacity="1"
         stroke="none"
         d="m 902.66681,270.99042 c 0.24328,1.8153 3.8739,3.92148 -0.20465,5.99548 -0.35364,-1.03274 -0.3935,-2.1048 -0.46784,-3.57877 0.14472,-0.988 0.32398,-1.57415 0.67249,-2.41671 z"
         id="path4933" /><path
         fill="#8b62b0"
         opacity="1"
         stroke="none"
         d="m 936.26813,258.71765 c 0.24554,-0.63937 0.69397,-1.36786 1.39764,-1.9097 -0.22803,0.73133 -0.71136,1.27597 -1.39764,1.9097 z"
         id="path4935" /><path
         fill="#f4e1fc"
         opacity="1"
         stroke="none"
         d="m 907.37866,293.12036 c -0.0538,-0.94833 0.1106,-2.22314 0.51428,-3.79828 0.0608,0.95706 -0.11767,2.21442 -0.51428,3.79828 z"
         id="path4937" /><path
         fill="#8854c6"
         opacity="1"
         stroke="none"
         d="m 935.89563,262.88171 c 0.20172,-0.49035 0.43366,-0.95553 0.66553,-1.42068 -0.0806,0.39539 -0.16114,0.79077 -0.40375,1.33438 -0.16205,0.14816 -0.23163,0.11151 -0.26178,0.0863 z"
         id="path4939" /><path
         fill="#8854c6"
         opacity="1"
         stroke="none"
         d="m 931.17517,275.74066 c -0.1781,-0.52838 -0.17133,-1.26782 -0.15796,-2.37775 0.11859,0.47523 0.23071,1.32099 0.15796,2.37775 z"
         id="path4941" /><path
         fill="#f0d8fc"
         opacity="1"
         stroke="none"
         d="m 1056.001,129.0871 c -0.3362,-3.83122 -3.1441,-3.00874 -5.5137,-2.87305 -3.9016,0.22343 -7.7985,0.53439 -12.1675,0.76659 8.544,-0.2997 17.5579,-0.5809 26.5739,-0.74971 0.475,-0.009 0.9676,0.93499 1.0243,1.67534 -0.4278,0.24002 -0.8449,0.38987 -0.8449,0.38987 -0.8119,0.096 -1.6238,0.19206 -3.1529,0.39029 -2.4513,0.20169 -4.1852,0.30118 -5.9192,0.40067 z"
         id="path4947" /><path
         fill="#8a59bf"
         opacity="1"
         stroke="none"
         d="m 1055.8442,129.14612 c 1.8908,-0.15851 3.6247,-0.258 5.7947,-0.33075 -0.3694,2.1909 -6.0937,-0.1545 -3.9314,5.04022 -0.2546,0.24081 -0.4649,0.27861 -0.6609,0.39578 -2.9233,-0.94352 -5.8465,-1.88705 -9.9444,-3.20968 1.9604,-0.51184 2.686,-0.70128 4.0588,-0.96907 1.8302,-0.36019 3.0132,-0.64202 4.1962,-0.92386 0,0 0.3302,0.0564 0.487,-0.003 z"
         id="path4949" /><path
         fill="#f0d8fc"
         opacity="1"
         stroke="none"
         d="m 1056.7781,134.56839 c 0.4645,-0.43419 0.6748,-0.47199 1.0615,-0.45194 0.162,-0.0215 0.3573,0.10674 0.6941,0.32038 1.0095,0.49576 1.6824,0.77789 2.3552,1.06003 -0.1492,0.53692 -0.2983,1.07383 -0.673,1.68054 -3.9238,0.0369 -7.6221,0.004 -11.7818,-0.0853 2.3843,-0.77321 5.23,-1.48996 8.344,-2.52374 z"
         id="path4951" /><path
         fill="#8a59bf"
         opacity="1"
         stroke="none"
         d="m 1060.651,135.21307 c -0.4349,0.002 -1.1078,-0.28048 -2.0211,-0.84237 0.4342,-2.9e-4 1.1086,0.27916 2.0211,0.84237 z"
         id="path4953" /><path
         fill="#8a59bf"
         opacity="1"
         stroke="none"
         d="m 1065.1831,128.3464 c -0.11,-0.0503 0.3071,-0.20011 0.5281,-0.19158 0.048,0.20846 -0.1647,0.28623 -0.5281,0.19158 z"
         id="path4955" /><path
         fill="#8a59bf"
         opacity="1"
         stroke="none"
         d="m 870.73346,179.45912 c 2.76575,-1.20711 5.57281,-2.0211 8.37988,-2.83511 0.13507,0.36711 0.27008,0.73424 0.40515,1.10135 -1.82141,1.20511 -3.64276,2.41021 -6.74951,4.46577 2.2323,0.55565 3.40296,0.84705 4.90796,1.10552 -1.46222,1.11604 -3.25885,2.265 -5.50964,3.40062 -0.65949,-0.21164 -0.90375,-0.32821 -1.18701,-0.36303 -0.0685,-2.16067 -0.13697,-4.32133 -0.24683,-6.87512 z"
         id="path4995" /><path
         fill="#8a59bf"
         opacity="1"
         stroke="none"
         d="m 880.2074,183.01025 c 3.40484,-1.17678 7.07794,-2.23153 10.7511,-3.2863 0.14819,0.39067 0.29638,0.78133 0.44458,1.17198 -1.8971,1.33628 -3.79425,2.67255 -6.03272,4.08106 -1.85907,-0.56673 -3.37683,-1.2057 -5.16296,-1.96674 z"
         id="path4997" /><path
         fill="#8a55cb"
         opacity="1"
         stroke="none"
         d="m 871.01837,186.47763 c 0.24518,-0.10857 0.48944,0.008 0.83612,0.35834 -0.17175,0.0297 -0.48492,-0.0926 -0.83612,-0.35834 z"
         id="path4999" /><path
         fill="#8b62b0"
         opacity="1"
         stroke="none"
         d="m 1027.0574,154.02554 c -0.7522,-0.28152 -1.5044,-0.56305 -3.489,-1.30583 7.3404,-2.80594 13.5199,-0.96831 20.0533,-0.47096 0.3862,-0.21716 0.3549,-0.27281 0.1322,-0.0705 -0.2288,0.40277 -0.2347,0.60324 -0.2406,0.80369 -2.8903,0 -5.7805,0 -9.5237,0 1.6299,1.32222 2.6489,2.14894 3.4533,3.17383 -3.6051,-0.57796 -6.9953,-1.35408 -10.3855,-2.13022 z"
         id="path5019" /><path
         fill="#8854c6"
         opacity="1"
         stroke="none"
         d="m 1044.0261,152.05778 c -1.0064,-0.97549 -2.0311,-1.97717 -3.2624,-3.66957 -0.1911,-1.01477 -0.1754,-1.33883 -0.1599,-1.6629 2.6986,-0.28874 5.425,-0.43176 8.0822,-0.93787 1.0644,-0.20271 1.9762,-1.20475 2.7906,-2.20263 0.3967,-0.40032 0.9602,-0.44097 1.9438,-0.4773 -2.2727,1.88599 -4.9654,3.76763 -8.0201,5.90212 0.1141,0.29307 0.6047,1.55214 0.5244,2.82565 -1.03,0.0565 -1.489,0.0986 -1.9481,0.14067 0,-1e-5 0.031,0.0556 0.05,0.0818 z"
         id="path5021" /><path
         fill="#f0d8fc"
         opacity="1"
         stroke="none"
         d="m 1027.2427,154.23276 c 3.2049,0.56892 6.5951,1.34504 10.3238,2.18303 0.9761,0.51381 1.6137,0.96579 2.5348,1.61883 -3.649,0 -6.8977,0 -10.5762,-0.065 -0.9854,-1.2199 -1.5412,-2.37476 -2.2824,-3.73683 z"
         id="path5023" /><path
         fill="#fcf6fd"
         opacity="1"
         stroke="none"
         d="m 1043.7539,152.17825 c 0.6818,-0.24438 1.1408,-0.28645 1.9541,-0.26675 -0.2445,0.37823 -0.8434,0.69472 -1.8184,1.04082 -0.3704,-0.17084 -0.3645,-0.37131 -0.1357,-0.77407 z"
         id="path5025" /><path
         fill="#8b62b0"
         opacity="1"
         stroke="none"
         d="m 903.13989,187.34505 c 2.8393,-1.44512 5.81012,-2.60581 8.78101,-3.7665 0.21368,0.46774 0.42743,0.9355 0.64117,1.40326 -2.64679,1.80249 -5.29358,3.60498 -8.23529,5.53159 -0.54834,-0.87859 -0.80182,-1.88126 -1.18689,-3.16835 z"
         id="path5027" /><path
         fill="#fcf6fd"
         opacity="1"
         stroke="none"
         d="m 928.08093,198.12785 c -0.39612,0.36905 -1.05475,0.46392 -1.71338,0.5588 0.13025,-0.36417 0.26056,-0.72837 0.64283,-1.22129 0.43737,0.0436 0.62268,0.21596 1.07055,0.66249 z"
         id="path5029" /><path
         fill="#8b62b0"
         opacity="1"
         stroke="none"
         d="m 944.45105,244.81389 c -0.28973,-3.24051 -0.28973,-6.62958 -0.28973,-11.60318 1.44867,2.21702 2.05816,3.14981 2.84027,4.39018 0.26227,2.88429 1.45221,5.85724 -2.55054,7.213 z"
         id="path5033" /><path
         fill="#8c55cd"
         opacity="1"
         stroke="none"
         d="m 1025.6702,212.12866 c -2.3924,-0.79574 -4.8533,-1.91502 -7.7356,-3.53187 -1.0153,-0.78891 -1.609,-1.08027 -2.2028,-1.3716 0,0 0.1229,-0.0455 -0.022,-0.21483 -0.4541,-0.38193 -0.7633,-0.5945 -1.0726,-0.80705 0,1e-5 0.033,0.18664 0.106,-0.10721 0.7918,-1.17227 1.5109,-2.0507 2.23,-2.92914 2.7474,-0.47023 7.014,4.16452 8.3721,-2.80348 2.8259,0.33926 5.2371,1.11404 7.6482,1.88884 0,0 0.016,0.3661 0.012,0.5574 0,0.1913 -0.02,0.21318 -0.02,0.21318 -1.3092,-0.15156 -2.6185,-0.30313 -4.5345,-0.52495 2.0337,4.20466 -6.5751,4.42771 -2.7799,9.63071 z"
         id="path5051" /><path
         fill="#f0d8fc"
         opacity="1"
         stroke="none"
         d="m 1033.3271,202.03439 c -2.7448,-0.55687 -5.156,-1.33165 -7.9687,-2.07367 -1.1815,-0.37545 -1.9617,-0.78367 -2.7418,-1.19191 0.084,-0.5411 0.1683,-1.08221 0.2524,-1.62332 4.6448,0.30104 9.3217,0.36785 13.9212,0.99915 2.4027,0.32979 3.9316,0.35541 4.4912,-2.67043 1.8169,1.63913 3.3061,3.49249 4.7955,5.34586 -1.5651,-0.002 -3.1479,-0.15294 -4.6913,0.0289 -2.576,0.30355 -5.6678,-3.35162 -8.0585,1.18538 z"
         id="path5053" /><path
         fill="#8b62b0"
         opacity="1"
         stroke="none"
         d="m 1046.2725,200.59112 c -1.685,-1.62442 -3.1742,-3.47778 -4.9607,-5.47291 -0.297,-0.14175 -0.3105,-0.11571 -0.3922,-0.35188 -0.3029,-0.51403 -0.5906,-0.66475 -0.9449,-0.68833 -0.8558,-0.63441 -1.7116,-1.26881 -2.9205,-2.40805 -0.3979,-0.77511 -0.4429,-1.04538 -0.4878,-1.31564 0.5538,0.1026 1.1076,0.2052 2.2918,0.39871 0.6302,0.0909 1.0788,0.0756 1.0788,0.0756 2.8027,1.67089 5.6056,3.34177 8.7029,5.19565 0.2977,0.54634 0.3007,0.90967 0.293,1.5427 -0.8289,1.11152 -1.6469,1.95333 -2.6604,3.0241 z"
         id="path5055" /><path
         fill="#8c55cd"
         opacity="1"
         stroke="none"
         d="m 1033.0112,202.99284 c 0.011,-0.008 0.045,0.13826 0.01,0.0842 -0.036,-0.0541 -0.02,-0.076 -0.01,-0.0842 z"
         id="path5057" /><path
         fill="#8854c6"
         opacity="1"
         stroke="none"
         d="m 907.95276,250.005 c 0,0 -0.16541,0.23087 -0.3963,0.63916 -1.00611,2.39414 -1.78138,4.37995 -2.55664,6.36576 1.00427,-3.37454 2.00854,-6.74909 3.23968,-9.90656 0.0557,1.11194 -0.11554,2.00679 -0.28674,2.90164 z"
         id="path5059" /><path
         fill="#f4e1fc"
         opacity="1"
         stroke="none"
         d="m 905.0564,257.26984 c 0.71868,-2.24573 1.49395,-4.23154 2.51818,-6.48484 -0.37597,2.15448 -1.00103,4.57645 -1.96545,7.12577 -0.39166,-0.0421 -0.44391,-0.21158 -0.55273,-0.64093 z"
         id="path5061" /><path
         fill="#f4e1fc"
         opacity="1"
         stroke="none"
         d="m 916.93964,232.95508 c -0.78858,1.49478 -1.57715,2.98956 -2.61481,4.37262 0.11896,-0.91489 0.48694,-1.71802 1.16785,-2.95809 0.5249,-0.66896 0.64239,-0.94165 0.66558,-1.25503 0,0 -0.0653,-0.0298 0.1413,-0.0564 0.20667,-0.0266 0.64008,-0.10307 0.64008,-0.10307 z"
         id="path5063" /><path
         fill="#f4e1fc"
         opacity="1"
         stroke="none"
         d="m 908.27887,249.86356 c -0.15491,-0.75341 0.0163,-1.64826 0.27814,-2.87269 0.0678,-0.49769 0.0449,-0.66581 0.0929,-0.82293 0.28107,-0.35117 0.49134,-0.71334 0.70166,-1.0755 0,0 0.34174,-0.0148 0.51282,-0.0144 -0.30566,1.54827 -0.78253,3.09618 -1.58551,4.78553 z"
         id="path5065" /><path
         fill="#f4e1fc"
         opacity="1"
         stroke="none"
         d="m 904.60236,260.17627 c 0.10406,0.65909 0.0218,1.58676 -0.29352,2.67639 -0.11969,-0.69464 -0.006,-1.55124 0.29352,-2.67639 z"
         id="path5067" /><path
         fill="#8854c6"
         opacity="1"
         stroke="none"
         d="m 913.33618,237.18542 c 0.11841,0.35869 -0.0194,0.79059 -0.42499,1.55317 -0.26776,0.33067 -0.64038,0.37674 -0.64044,0.37674 0.26972,-0.61892 0.53943,-1.23781 1.06543,-1.92991 z"
         id="path5069" /><path
         fill="#f4e1fc"
         opacity="1"
         stroke="none"
         d="m 928.91406,219.5193 c -0.22882,0.48378 -0.60614,0.92961 -1.20129,1.44003 -0.21777,0.0646 -0.41559,-0.13766 -0.2179,-0.40521 0.36164,-0.67103 0.52558,-1.07452 0.68946,-1.47801 0,0 -0.0222,0.30396 0.12805,0.3308 0.15027,0.0268 0.45318,0.0744 0.60168,0.11239 z"
         id="path5071" /><path
         fill="#f4e1fc"
         opacity="1"
         stroke="none"
         d="m 912.22052,239.42787 c 0.0503,-0.31254 0.42291,-0.35861 0.61053,-0.35875 -0.023,0.51442 -0.23358,1.02896 -0.65747,1.72956 -0.14325,-0.2287 -0.0733,-0.64348 0.0469,-1.37081 z"
         id="path5073" /><path
         fill="#8f5dca"
         opacity="1"
         stroke="none"
         d="m 915.96411,233.13113 c 0.17096,0.29683 0.0535,0.56952 -0.34509,0.92911 -0.074,-0.21913 0.0385,-0.56584 0.34509,-0.92911 z"
         id="path5075" /><path
         fill="#8854c6"
         opacity="1"
         stroke="none"
         d="m 917.03485,232.63116 c -0.0952,0.32392 -0.52862,0.40036 -0.73981,0.4626 0.10755,-0.51559 0.42621,-1.09342 1.02539,-1.86323 0.12348,0.23093 -0.0334,0.65381 -0.28558,1.40063 z"
         id="path5077" /><path
         fill="#8f5dca"
         opacity="1"
         stroke="none"
         d="m 927.97388,219.31161 c 0.0466,0.16799 -0.11737,0.57148 -0.57929,1.14277 -0.0757,-0.19054 0.14655,-0.54889 0.57929,-1.14277 z"
         id="path5079" /><path
         fill="#8f5dca"
         opacity="1"
         stroke="none"
         d="m 923.29449,224.27788 c 0.0105,0.19375 -0.27703,0.60518 -0.9129,1.17215 -0.0273,-0.21445 0.29376,-0.58446 0.9129,-1.17215 z"
         id="path5081" /><path
         fill="#f4e1fc"
         opacity="1"
         stroke="none"
         d="m 910.77948,243.00894 c 0.15045,0.15788 0.053,0.41242 -0.24713,0.7944 -0.21991,-0.15945 -0.15259,-0.43452 0.24713,-0.7944 z"
         id="path5083" /><path
         fill="#8854c6"
         opacity="1"
         stroke="none"
         d="m 909.11682,245.24222 c 0.0244,0.21238 -0.18585,0.57455 -0.72143,0.92328 -0.0547,-0.26679 0.21594,-0.52013 0.72143,-0.92328 z"
         id="path5085" /><path
         fill="#9d6cd3"
         opacity="1"
         stroke="none"
         d="m 1078.2358,185.46043 c -0.3299,0.0868 -0.5638,-0.0281 -0.8615,-0.39634 0.078,-0.14369 0.261,-0.11953 0.7168,-0.03 0.2725,0.0653 0.1986,0.31034 0.1447,0.42636 z"
         id="path5095" /><path
         fill="#8f5dca"
         opacity="1"
         stroke="none"
         d="m 940.16052,204.98717 c 5.90631,-1.3322 12.00031,-2.446 18.09424,-3.5598 0.0694,0.39975 0.13879,0.7995 0.20819,1.19925 0.097,0.0375 0.19403,0.0751 0.29102,0.11261 -4.87567,2.22068 -9.75128,4.44139 -14.9823,6.73361 -1.37805,-1.37473 -2.40076,-2.821 -3.61115,-4.48567 z"
         id="path5103" /><path
         fill="#8f5dca"
         opacity="1"
         stroke="none"
         d="m 942.97278,209.40048 c -0.14661,0.36985 -0.61084,0.72038 -1.3747,1.11408 0.15259,-0.34903 0.60486,-0.7412 1.3747,-1.11408 z"
         id="path5105" /><path
         fill="#8a59bf"
         opacity="1"
         stroke="none"
         d="m 940.17297,202.35561 c 0.18024,0.0635 -0.0701,0.41986 -0.27307,0.4972 -0.3526,-0.0979 -0.50232,-0.27319 -0.65198,-0.44845 0.24824,-0.0374 0.49653,-0.0748 0.92505,-0.0487 z"
         id="path5107" /><path
         fill="#8f5dca"
         opacity="1"
         stroke="none"
         d="m 938.51148,206.49084 c 0.009,0.0217 -0.009,-0.0217 0,0 z"
         id="path5109" /><path
         fill="#fcf6fd"
         opacity="1"
         stroke="none"
         d="m 1064.2954,194.76437 c 0.075,0.1818 -0.081,0.5721 -0.4526,0.80629 -0.07,-0.30334 0.076,-0.45056 0.4526,-0.80629 z"
         id="path5111" /><path
         fill="#8a55cb"
         opacity="1"
         stroke="none"
         d="m 969.47937,150.08044 c -6.25177,-5.73494 -12.41791,-11.82728 -18.76941,-18.17688 1.9372,0.66376 4.41364,1.16414 6.1098,2.59166 3.73481,3.14331 7.07569,6.7547 10.85028,10.36077 0.81366,1.74615 1.35431,3.30659 1.80933,5.22445 z"
         id="path5127" /><path
         fill="#8854c6"
         opacity="1"
         stroke="none"
         d="m 965.37561,235.93317 c -0.37469,-1.39548 -0.43726,-2.76552 -0.42859,-4.54557 0.72571,0.99366 1.38007,2.3973 2.01404,4.17693 -0.43799,0.38202 -0.85559,0.38805 -1.58545,0.36864 z"
         id="path5129" /><path
         fill="#8a59bf"
         opacity="1"
         stroke="none"
         d="m 1074.2241,195.34708 c 0.6654,0.18393 1.4986,0.60644 2.5034,1.25228 -0.6639,-0.18899 -1.4998,-0.60134 -2.5034,-1.25228 z"
         id="path5131" /><path
         fill="#8a59bf"
         opacity="1"
         stroke="none"
         d="m 1073.1941,194.27914 c 0.1025,-0.0159 0.2939,0.15009 0.5681,0.50235 -0.094,0.005 -0.2816,-0.16391 -0.5681,-0.50235 z"
         id="path5133" /><path
         fill="#8a59bf"
         opacity="1"
         stroke="none"
         d="m 1081.2928,187.87604 c 0.451,0.24173 0.9018,0.48346 1.5116,0.92984 -0.1391,0.19877 -0.4346,0.16827 -0.9505,0.098 -0.2229,-0.0152 -0.5099,-0.16853 -0.5573,-0.45195 -0.047,-0.28342 0,-0.57588 0,-0.57588 z"
         id="path5135" /><path
         fill="#8a59bf"
         opacity="1"
         stroke="none"
         d="m 1083.1173,189.241 c 0.1582,-0.0395 0.3825,0.17329 0.6733,0.63836 -0.1553,0.0367 -0.3801,-0.17607 -0.6733,-0.63836 z"
         id="path5137" /><path
         fill="#8854c6"
         opacity="1"
         stroke="none"
         d="m 968.97913,227.0994 c 0.12768,0.0597 0.16003,0.23387 0.12377,0.665 -0.29943,0.0137 -0.3496,-0.25544 -0.12377,-0.665 z"
         id="path5139" /><path
         fill="#9d6cd3"
         opacity="1"
         stroke="none"
         d="m 1081.0952,187.70987 c 0.1976,0.16617 0.1542,0.45863 0.1185,0.60206 -0.5262,-0.2528 -1.0168,-0.64903 -1.5826,-1.27693 0.3721,0.0151 0.8193,0.26194 1.4641,0.67487 z"
         id="path5141" /><path
         fill="#9d6cd3"
         opacity="1"
         stroke="none"
         d="m 1079.0096,186.18668 c 0.047,0.10081 -0.205,0.11547 -0.205,0.11547 0,0 -0.194,-0.16162 -0.2116,-0.28691 -0.018,-0.12529 0.3698,0.0706 0.4166,0.17144 z"
         id="path5143" /><path
         fill="#8a55cb"
         opacity="1"
         stroke="none"
         d="m 935.71033,123.90685 c -0.89447,0.0315 -2.06763,-0.16382 -3.50635,-0.59819 0.89886,-0.0356 2.06317,0.1679 3.50635,0.59819 z"
         id="path5147" /><path
         fill="#f4e1fc"
         opacity="1"
         stroke="none"
         d="m 903.44788,265.4353 c 0.1192,0.52057 0.0764,1.33542 -0.13208,2.3483 -0.22547,0.0345 -0.28504,-0.12912 -0.41797,-0.54349 0.0805,-0.67074 0.23431,-1.09064 0.55005,-1.80481 z"
         id="path5149" /><path
         fill="#8b62b0"
         opacity="1"
         stroke="none"
         d="m 1016.6368,203.0045 c -0.3828,1.0409 -1.1019,1.91933 -1.9871,3.10759 -3.0635,-1.25774 -5.9609,-2.8253 -8.8583,-4.39287 0.1111,-0.46925 0.2221,-0.93849 0.3331,-1.40773 3.392,0.84351 6.784,1.68703 10.5123,2.69301 z"
         id="path5189" /><path
         fill="#8b62b0"
         opacity="1"
         stroke="none"
         d="m 938.40967,152.54222 c 0.3031,-1.16659 0.9668,-2.40501 1.73205,-3.99901 3.01245,-0.0702 5.92334,0.21512 8.83423,0.50046 -0.009,0.38763 -0.0181,0.77527 -0.0271,1.1629 -3.39288,0.75461 -6.7857,1.50922 -10.53918,2.33565 z"
         id="path5191" /><path
         fill="#f0d8fc"
         opacity="1"
         stroke="none"
         d="m 1036.3865,190.32953 c 0.2248,0.29504 0.2698,0.56531 0.3587,1.24315 -0.1501,-0.15093 -0.3443,-0.70943 -0.3587,-1.24315 z"
         id="path5193" /><path
         fill="#f0d8fc"
         opacity="1"
         stroke="none"
         d="m 1054.9775,129.09729 c -0.8033,0.33331 -1.9863,0.61514 -3.5324,0.86549 0.8089,-0.32666 1.9808,-0.62181 3.5324,-0.86549 z"
         id="path5195" /><path
         fill="#8b62b0"
         opacity="1"
         stroke="none"
         d="m 934.16907,148.90388 c -0.29071,0.0582 -0.91889,0.0484 -1.58447,0.0542 0.39074,-0.0304 0.8189,-0.0763 1.58447,-0.0542 z"
         id="path5197" /><path
         fill="#8c4ed9"
         opacity="1"
         stroke="none"
         d="m 1040.3206,146.68787 c 0.2677,0.36151 0.252,0.68557 0.1922,1.49388 -0.6538,0.1022 -1.2633,-0.27983 -1.8729,-0.66185 0.4658,-0.28983 0.9316,-0.57965 1.6807,-0.83203 z"
         id="path5199" /><path
         fill="#f0d8fc"
         opacity="1"
         stroke="none"
         d="m 943.13049,132.21677 c -0.20233,0.0656 -0.40924,0.003 -0.61621,-0.0601 0.20386,-0.0228 0.40766,-0.0455 0.61621,0.0601 z"
         id="path5201" /><path
         fill="#8b62b0"
         opacity="1"
         stroke="none"
         d="m 1015.9181,207.50165 c 0.4075,0.0149 1.0012,0.30623 1.7662,0.89392 -0.4125,-0.008 -0.9961,-0.31285 -1.7662,-0.89392 z"
         id="path5203" /><path
         fill="#f0d8fc"
         opacity="1"
         stroke="none"
         d="m 915.66138,285.2652 c 0.0849,0.36313 -0.0129,0.98645 -0.31018,1.86459 -0.0904,-0.36493 0.0186,-0.98468 0.31018,-1.86459 z"
         id="path5205" /><path
         fill="#f0d8fc"
         opacity="1"
         stroke="none"
         d="m 1039.856,190.73068 c 0.081,0.098 -0.3676,0.11327 -0.5747,0.0293 0.017,-0.25519 0.251,-0.26965 0.5747,-0.0293 z"
         id="path5207" /><path
         fill="#f0d8fc"
         opacity="1"
         stroke="none"
         d="m 1040.1145,194.26846 c 0.2145,-0.16688 0.5022,-0.0162 0.818,0.49263 -0.2046,0.11367 -0.4623,-0.064 -0.818,-0.49263 z"
         id="path5209" /><path
         fill="#8b62b0"
         opacity="1"
         stroke="none"
         d="m 1014.7371,206.48874 c 0.2093,-0.0729 0.5185,0.13969 0.9922,0.58417 -0.1877,0.055 -0.5401,-0.12185 -0.9922,-0.58417 z"
         id="path5211" /><path
         fill="#8f5dca"
         opacity="1"
         stroke="none"
         d="m 942.39404,250.8078 c -0.10998,0.005 -0.21289,-0.15134 -0.3667,-0.4415 0.14991,-0.0609 0.29145,0.0772 0.3667,0.4415 z"
         id="path5213" /><path
         fill="#fcf6fd"
         opacity="1"
         stroke="none"
         d="m 921.31299,286.58545 c -0.10352,-0.12912 0.24469,-0.22263 0.24469,-0.22263 0,0 -0.14112,0.35175 -0.24469,0.22263 z"
         id="path5277" /></g></g></svg>
