<svg xmlns="http://www.w3.org/2000/svg" width="24" height="24" viewBox="0 0 24 24"><path fill="#3a3a3a" fill-rule="evenodd" d="M10.81 4.36c-.2.14-.22.22-.17.55s.02.44-.3.86c-.2.27-.52.8-.7 1.19-.3.62-.38.72-.74.87-.4.16-.4.16-.34-.06.17-.54.76-1.72 1.24-2.46.6-.92.58-1.1-.06-.92-.22.06-.92.1-1.57.1-1.32.01-1.71.12-2.25.64-.98.93-1.07 2.41-.18 2.84.3.14.42.15.75.04.79-.23 1.31-.87 1.31-1.61 0-.81-.85-1.18-1.49-.65-.32.28-.46.58-.36.76q.09.1.4-.21c.46-.44.79-.4.83.13a.96.96 0 0 1-.63 1.03c-1.1.46-1.32-.99-.31-1.96.32-.3.45-.35 1.09-.42.97-.1 1.87-.1 1.87 0a12 12 0 0 0-1 2.01l-.46 1.16-.74.38c-.98.49-1.34.85-1.34 1.33 0 .66.59.92 1.2.55a5 5 0 0 0 1.18-1.57q.08-.21.54-.4l.54-.22q.05-.01.01.17c-.1.41.08 1.11.38 1.46.56.64 1.34.57 1.88-.17l.29-.4.28.37c.3.4.71.65 1.06.65.67 0 1.34-.91 1.26-1.71l-.01-.39.48.22c.35.17.52.35.81.84q.7 1.2 1.36 1.3c.46.08.78-.2.78-.7s-.33-.83-1.23-1.27l-.8-.38-.42-1.03q-.6-1.48-.97-2-.11-.17-.06-.24c.04-.03.62-.03 1.28.01 1.17.07 1.23.09 1.57.38.8.7.96 1.73.33 2.07-.6.32-1.65-.91-1.18-1.38.2-.2.53-.13.83.18.35.37.54.25.3-.19-.3-.6-1.04-.78-1.52-.37-.53.46-.28 1.49.48 1.98.58.38.92.43 1.37.21 1-.49.66-2.27-.6-3.1-.4-.27-.5-.28-1.92-.34a16 16 0 0 1-1.73-.14c-.35-.11-.4.19-.11.58a11 11 0 0 1 1.55 3.03 2 2 0 0 1-.4-.13c-.32-.13-.44-.27-.77-.92a10 10 0 0 0-.73-1.23c-.27-.34-.32-.49-.25-.62.13-.23.02-.63-.2-.75q-.2-.1-.5-.01c-.2.05-.45.05-.64 0l-.33-.1zm.68.9c-.13.16-.04.44.19.52.18.06.36-.37.21-.54s-.23-.18-.4.02m-.82 1.1c-.19.33-.33.6-.31.63.06.07.94-.72.94-.84 0-.07-.06-.18-.14-.24-.12-.1-.2-.02-.49.46m1.46-.38c-.11.18-.07.25.34.6.26.22.5.38.52.36.05-.05-.6-1.15-.69-1.15q-.05.02-.17.2m-1.04.98-.9.72c-.3.23-.33.32-.36.85-.03.48 0 .67.16.92.34.54.83.42 1.27-.32.33-.57.57-.59.84-.06.51 1.01 1.32.92 1.47-.17.09-.67-.12-1.08-.75-1.51-.31-.21-.68-.5-.81-.65-.14-.14-.27-.26-.3-.25-.03 0-.31.21-.62.47M6.84 9.31c-.49.23-.79.53-.7.68.18.29.75-.08 1.05-.66.14-.28.16-.28-.35-.02m9.26-.12c0 .06.16.29.36.51.41.45.77.54.72.18q-.03-.23-.55-.51c-.3-.16-.53-.23-.53-.18M3.02 12q0 .4.05.28c.05-.22.43-.24.43-.03q.01.14.1.15c.05 0 .1-.15.1-.34s-.05-.38-.1-.41q-.09-.05-.1.1c0 .2-.37.2-.43-.02-.03-.1-.05.02-.05.27m1.32-.2c-.24.28-.08.55.32.55.23 0 .3-.05.32-.23.04-.25-.13-.52-.33-.52-.06 0-.2.1-.3.2m1.25.13c0 .39.19.6.44.51.2-.08.31-.47.2-.71q-.08-.22-.13.16c-.08.45-.31.54-.31.12 0-.16-.04-.33-.1-.36q-.1-.04-.1.28m1.33-.26c-.18.06-.16.32.02.4q.13.06.15.15 0 .08-.1.03-.09-.04-.1.04c0 .14.27.14.35 0 .04-.05 0-.19-.1-.29q-.18-.19-.04-.22.11-.04.04-.1a.3.3 0 0 0-.22 0m.97.32c0 .35.03.4.22.4q.32 0 .03-.1c-.2-.08-.2-.08-.01-.16.18-.07.18-.08 0-.2-.16-.13-.16-.14 0-.14q.14 0 .16-.1-.02-.09-.2-.1c-.17 0-.2.07-.2.4m1.96-.24c-.3.3-.08.69.36.62.26-.03.37-.4.18-.64q-.25-.28-.54.02m1.3-.1c-.1.11-.07.74.04.74q.1-.01.1-.14.01-.14.13-.2.13-.04-.03-.15-.15-.1-.03-.1.12-.01.13-.11c0-.11-.23-.14-.33-.03m1.83.3c0 .24.04.43.1.43q.1-.01.1-.15.01-.14.15-.15.14.02.15.15 0 .14.1.15c.06 0 .1-.18.1-.4s-.04-.4-.1-.4q-.09.02-.1.15c0 .2-.2.19-.36-.02-.12-.16-.13-.13-.14.25m1.47-.08c-.23.39-.22.58.02.36.17-.16.2-.16.35 0 .24.24.3.11.12-.24-.22-.43-.3-.45-.5-.12m1.26-.18c-.19.19-.14.56.08.68.2.11.4.06.4-.1q-.01-.07-.19-.03t-.25-.12c-.09-.23.03-.38.25-.32.23.06.35-.09.13-.17s-.28-.08-.42.06m1.15-.05c-.07.12-.03.6.06.7q.06.04.07-.07-.02-.15.15 0 .15.1.2.08.04-.05-.1-.18c-.14-.12-.14-.15.02-.33.17-.2.17-.2-.01-.13q-.18.06-.26-.05t-.13-.02m1.14.34q.02.38.06.22.07-.42.3-.03.32.47.31-.22 0-.47-.05-.14l-.05.28-.29-.28-.29-.28zm-7.48 1.3c-.17.17-.04.39.24.39.2 0 .24-.04.21-.22-.03-.26-.28-.35-.45-.17m1.27.14q-.01.26.2.25.35-.01.24-.34c-.1-.27-.44-.2-.44.09m.64-.1c-.08.2.04.35.26.35.25 0 .35-.17.2-.35-.16-.2-.39-.2-.46 0"/></svg>