<?xml version="1.0" encoding="UTF-8" standalone="no"?>
<svg
   viewBox="0 0 24 24"
   width="24pt"
   height="24pt"
   version="1.1"
   id="svg1"
   xml:space="preserve"
   xmlns="http://www.w3.org/2000/svg"
   xmlns:svg="http://www.w3.org/2000/svg"><defs
     id="defs1"><clipPath
       id="_clipPath_50gj8kNnfnTXczc6VGemtvoTx0pVLKC9"><rect
         width="24"
         height="24"
         id="rect1" /></clipPath></defs><g
     style="isolation:isolate"
     id="g1"><g
       clip-path="url(#_clipPath_50gj8kNnfnTXczc6VGemtvoTx0pVLKC9)"
       id="g18"><clipPath
         id="_clipPath_yDM7gMISTgXDrpQyegQEPoUB0pO8sauv"><rect
           x="2.7690001"
           y="0"
           width="18.462"
           height="24"
           fill="#ffffff"
           id="rect2" /></clipPath><g
         clip-path="url(#_clipPath_yDM7gMISTgXDrpQyegQEPoUB0pO8sauv)"
         id="g17"><g
           id="g16"><g
             id="g15"><g
               id="g6"><path
                 d="m 16.482,5.493 v 0.269 h -0.827 v 0.663 h 0.65 v 0.256 h -0.65 v 0.684 h 0.827 V 7.634 H 15.364 V 5.493 Z"
                 fill="#ffffff"
                 id="path2" /><path
                 d="M 14.627,7.062 C 14.627,6.828 14.38,6.75 14.125,6.659 13.834,6.546 13.522,6.447 13.522,6.087 c 0,-0.607 0.594,-0.637 0.715,-0.637 0.334,0 0.559,0.112 0.616,0.134 -0.009,0.022 -0.065,0.234 -0.065,0.269 -0.07,-0.044 -0.269,-0.156 -0.538,-0.156 -0.303,0 -0.438,0.177 -0.438,0.346 0,0.226 0.226,0.291 0.469,0.369 0.303,0.1 0.637,0.199 0.637,0.628 0,0.369 -0.304,0.629 -0.728,0.629 -0.36,0 -0.672,-0.178 -0.729,-0.213 0.013,-0.008 0.078,-0.225 0.091,-0.255 0.065,0.056 0.347,0.225 0.672,0.225 0.291,-0.004 0.403,-0.195 0.403,-0.364 z"
                 fill="#ffffff"
                 id="path3" /><path
                 d="m 13.045,5.493 v 1.253 c 0,0.446 -0.225,0.906 -0.841,0.906 -0.615,0 -0.841,-0.46 -0.841,-0.906 V 5.493 h 0.278 v 1.253 c 0,0.403 0.212,0.65 0.572,0.65 0.156,0 0.546,-0.057 0.546,-0.65 V 5.493 Z"
                 fill="#ffffff"
                 id="path4" /><path
                 d="m 9.833,7.409 c -0.403,0 -0.819,-0.312 -0.819,-0.85 0,-0.55 0.425,-0.841 0.819,-0.841 0.416,0 0.841,0.282 0.841,0.841 0,0.546 -0.438,0.85 -0.841,0.85 z m 0,-1.959 c -0.728,0 -1.118,0.572 -1.118,1.109 0,0.551 0.412,1.118 1.118,1.118 0.737,0 1.132,-0.58 1.132,-1.118 0,-0.537 -0.395,-1.109 -1.132,-1.109 z"
                 fill="#ffffff"
                 id="path5" /><path
                 d="M 8.039,5.493 V 6.412 H 6.942 V 5.493 H 6.665 V 7.634 H 6.942 V 6.672 H 8.039 V 7.634 H 8.321 V 5.493 Z"
                 fill="#ffffff"
                 id="path6" /></g><g
               id="g12"><path
                 d="m 16.473,12.989 -0.278,-0.013 h -0.022 v -0.781 h 0.022 0.304 c 0.303,0 0.468,0.148 0.468,0.417 0,0.143 -0.07,0.377 -0.494,0.377 z m 0.368,0.177 h 0.013 c 0.247,-0.112 0.39,-0.325 0.39,-0.559 0,-0.446 -0.282,-0.672 -0.819,-0.672 h -0.538 v 2.137 h 0.282 v -0.836 h 0.416 c 0,0 0.39,0.819 0.403,0.841 h 0.347 c -0.022,-0.048 -0.494,-0.911 -0.494,-0.911 z"
                 fill="#ffffff"
                 id="path7" /><path
                 d="m 15.428,11.935 v 0.269 H 14.6 v 0.663 h 0.65 v 0.256 H 14.6 v 0.694 h 0.828 v 0.26 h -1.11 v -2.142 z"
                 fill="#ffffff"
                 id="path8" /><path
                 d="m 13.581,13.504 c 0,-0.234 -0.247,-0.312 -0.502,-0.403 -0.291,-0.112 -0.603,-0.212 -0.603,-0.572 0,-0.607 0.594,-0.637 0.715,-0.637 0.334,0 0.56,0.113 0.616,0.134 -0.009,0.022 -0.065,0.234 -0.065,0.269 -0.065,-0.043 -0.269,-0.156 -0.538,-0.156 -0.303,0 -0.437,0.178 -0.437,0.347 0,0.225 0.225,0.29 0.459,0.368 0.312,0.1 0.65,0.2 0.65,0.629 0,0.368 -0.303,0.628 -0.728,0.628 -0.36,0 -0.672,-0.177 -0.728,-0.212 0.013,-0.009 0.078,-0.225 0.091,-0.256 0.065,0.056 0.347,0.226 0.672,0.226 0.286,-0.005 0.398,-0.195 0.398,-0.365 z"
                 fill="#ffffff"
                 id="path9" /><path
                 d="m 10.872,13.327 0.369,-1.062 0.022,-0.044 0.368,1.11 h -0.759 z m 0.56,-1.392 h -0.325 c -0.014,0.022 -0.807,2.094 -0.82,2.137 h 0.312 c 0,-0.021 0.191,-0.494 0.191,-0.494 h 0.928 c 0,0 0.177,0.468 0.19,0.494 h 0.312 c -0.017,-0.043 -0.78,-2.111 -0.788,-2.137 z"
                 fill="#ffffff"
                 id="path10" /><path
                 d="M 9.121,12.98 H 8.84 8.818 V 12.182 H 8.84 9.143 c 0.303,0 0.472,0.156 0.472,0.425 0,0.239 -0.177,0.373 -0.494,0.373 z m 0.373,0.186 0.013,-0.013 c 0.247,-0.099 0.39,-0.312 0.39,-0.55 0,-0.447 -0.282,-0.672 -0.819,-0.672 H 8.54 v 2.137 h 0.282 v -0.845 h 0.412 c 0,0 0.394,0.828 0.403,0.849 h 0.347 c -0.03,-0.043 -0.49,-0.906 -0.49,-0.906 z"
                 fill="#ffffff"
                 id="path11" /><path
                 d="m 8.081,11.935 v 0.269 H 7.162 v 0.663 h 0.72 v 0.256 h -0.72 v 0.954 H 6.885 v -2.142 z"
                 fill="#ffffff"
                 id="path12" /></g><g
               id="g14"><path
                 d="m 13.748,8.714 v 0.269 h -0.906 v 0.663 h 0.719 v 0.256 h -0.719 v 0.953 H 12.564 V 8.714 Z"
                 fill="#ffffff"
                 id="path13" /><path
                 d="m 10.974,10.63 c -0.403,0 -0.828,-0.312 -0.828,-0.85 0,-0.55 0.425,-0.84 0.828,-0.84 0.416,0 0.827,0.29 0.827,0.84 0,0.56 -0.424,0.85 -0.827,0.85 z m 0,-1.959 c -0.729,0 -1.132,0.572 -1.132,1.109 0,0.551 0.425,1.119 1.132,1.119 0.736,0 1.131,-0.581 1.131,-1.119 0,-0.537 -0.395,-1.109 -1.131,-1.109 z"
                 fill="#ffffff"
                 id="path14" /></g></g></g></g></g></g></svg>
