<svg xmlns="http://www.w3.org/2000/svg" width="24" height="24"><path fill="#1d1d1d" fill-rule="evenodd" d="M3 9v1.5h.8v-3H3zm.9 0v1.5h.7V10a2 2 0 0 1 .04-.57q.07-.04.07.13c0 .1.05.36.1.56.1.35.14.38.45.38h.35v-3h-.3c-.28 0-.3.02-.31.43l-.01.42-.12-.4c-.12-.37-.15-.4-.54-.43l-.42-.03zm1.9-1.44v1.48l-.01 1.42h.64c.94 0 .97-.04.97-1.46 0-1.1-.01-1.19-.22-1.33S5.8 7.42 5.8 7.55M7.5 9v1.5l1.17-.02 1.17-.03V10c0-.41.03-.45.28-.48a1 1 0 0 0 .48-.29l.2-.26v1.53H13v-.62l.02-.63.15.63c.14.6.15.62.48.62H14l.03-1.5.03-1.5h-.32c-.32 0-.33 0-.34.48l-.01.47-.12-.45-.12-.45-1.17-.03-1.17-.03v.33c0 .3-.02.3-.12.13-.22-.41-.37-.45-1.8-.45H7.5zm6.68-1.34c-.02.1-.02.77 0 1.5l.03 1.34h.49q.93 0 1.1-.42.1-.33.1.1v.32H17l1.1-.02.01-.66v-.67l.18.65c.17.64.17.65.54.68l.37.03V7.9h.5v2.6h.8V7.9h.25q.26.01.25-.2c0-.19-.07-.2-1.25-.2H18.5l-.01.38-.01.37-.1-.37c-.1-.36-.12-.38-.49-.38h-.39v1.43a5 5 0 0 1-.08 1.3c-.04-.06-.2-.13-.37-.15-.27-.03-.3-.07-.33-.46-.03-.4-.01-.42.22-.42.34 0 .37-.37.04-.42-.2-.02-.24-.1-.26-.45l-.03-.43h.35c.3 0 .36-.04.36-.2 0-.18-.07-.2-.75-.2h-.75l-.01.38q-.01.34-.06.15-.1-.54-1.04-.53c-.45 0-.58.04-.6.16m-5.89.69c0 .41.02.45.25.45q.26-.01.25.2.01.21-.26.2c-.23 0-.25.03-.22.43s.05.42.36.45l.32.03V7.9h-.35c-.35 0-.35 0-.35.45m3.3 0c0 .41.02.45.25.45q.26-.01.25.2.01.21-.25.2c-.23 0-.25.04-.25.45 0 .45 0 .45.35.45h.35V7.9h-.35c-.35 0-.35 0-.35.45"/></svg>