<svg xmlns="http://www.w3.org/2000/svg" width="24" height="24"><path fill="#388dc4" fill-rule="evenodd" d="M3.4 6.8q-.2.38.39.94c.3.29.3.3.13.58-.1.16-.27.35-.4.44-.52.34-.62.83-.2 1.05.26.14.46 0 .77-.57.35-.66.52-.63.71.1.16.6.36.8.64.7.36-.14.4-.78.06-.99a2 2 0 0 1-.3-.46c-.2-.37-.2-.4-.03-.45.1-.03.34-.13.53-.22.43-.2.54-.64.2-.82-.17-.09-.24-.07-.44.15-.29.31-.36.31-.36.01 0-.48-.56-.62-.75-.18q-.2.47-.3-.13c-.05-.29-.1-.35-.3-.35a.4.4 0 0 0-.35.2m7.56.07c-.27.26-.27.26-.24 1.67l.03 1.41.42.03.42.03.03-.78.03-.78.35-.05c.31-.04.35-.08.35-.35 0-.28-.03-.3-.38-.33-.3-.03-.37-.07-.35-.2q.01-.17.46-.2c.36-.03.42-.06.42-.26 0-.34-.2-.46-.76-.46-.42 0-.56.05-.78.27m1.96-.19c-.1.07-.12.47-.1 1.68l.03 1.59.43.03.42.03V6.8l-.26-.1c-.3-.12-.35-.12-.52-.02M6.4 8.38c0 1.64 0 1.62.61 1.62h.3l-.03-1.53-.03-1.52-.42-.03-.43-.03zm10.4-.13c0 .69.04 1.34.1 1.44.2.38 1.13.47 1.4.14.2-.22.07-.48-.25-.54-.27-.05-.3-.09-.3-.45s.03-.4.3-.45c.25-.04.3-.1.3-.35 0-.27-.04-.3-.32-.33q-.34-.02-.33-.22c0-.39-.11-.5-.51-.5h-.39zM4.59 7.18v.25q.02.17-.16.23c-.15.04-.18.12-.15.34.03.24-.05.38-.46.82q-.52.55-.42.68c.07.11.11.11.24 0q.15-.13.16-.25c0-.22.5-.75.7-.75.24 0 .46.33.55.83q.12.63.38.38.13-.12 0-.29c-.5-.7-.77-1.52-.5-1.52q.1-.01-.05-.1c-.13-.08-.16-.18-.11-.4q.04-.3-.06-.3t-.12.08m3.91.34c-.63.18-.7.3-.7 1.33 0 1.01.07 1.15.57 1.15h.32l.03-.87c.03-.86.03-.88.28-.88.24 0 .25.02.28.75.02.4.08.8.14.87s.26.13.44.13h.34v-.98c0-1.13-.1-1.36-.68-1.52-.43-.12-.55-.12-1.02.02m6.2-.05q-.51.09-.5.49c0 .3.1.35.48.25.33-.1.72-.04.72.1 0 .05-.13.09-.29.09-.5 0-.88.2-1.01.5-.26.63.11 1.08.96 1.14.42.04 1.05-.12 1.22-.29.03-.02.05-.43.05-.9 0-.97-.11-1.18-.72-1.35-.37-.1-.48-.1-.91-.03m4.53 0q-.46.11-.41.55c.03.21.07.23.6.2.71-.05.77.13.09.22-.62.08-.96.44-.87.9a1 1 0 0 0 .2.44c.36.36 1.76.34 2.03-.04.16-.22.17-1.44.02-1.78-.2-.41-.93-.63-1.66-.49m-14.61 3.1c-.11.2-.04.83.1.83.04 0 .08-.11.08-.24 0-.14.05-.28.11-.32q.12-.07-.02-.15-.17-.1 0-.09.1 0 .06-.1-.17-.22-.33.08m3.68.32c0 .46.02.5.24.5.13 0 .29-.07.36-.15.16-.2.03-.55-.2-.55q-.18-.02-.2-.15 0-.13-.1-.15c-.05 0-.1.22-.1.5m4-.02q0 .5.1.47c.05-.03.1-.15.1-.26q.01-.17.1-.19.1.02.1.25.01.23.1.25c.18 0 .11-.6-.07-.67a1 1 0 0 1-.3-.22c-.1-.13-.12-.07-.13.37m7.3.04c0 .45.03.5.13.36.12-.15.14-.15.24 0q.1.16.18.1c.04-.04.03-.14-.04-.21a.4.4 0 0 1-.04-.32q.09-.2-.1-.12-.17.06-.17-.08c0-.07-.04-.17-.1-.2q-.1-.04-.1.47m-8.27-.35q.17.03.17.38c0 .19.05.37.1.4q.1.04.1-.34c0-.3.05-.4.18-.44.1-.03-.03-.05-.28-.05s-.37.02-.27.05m5.67.4c0 .4.03.45.13.33.07-.08.21-.2.32-.26.33-.18.25-.48-.12-.52l-.33-.03zm-10.32-.32c-.1.1.05.67.19.72.2.08.3-.06.13-.17-.12-.08-.13-.13-.03-.29s.1-.2-.03-.25c-.19-.07-.2-.07-.26-.01m-3.08.4c0 .19.05.35.1.35q.09-.02.1-.25t.1-.25q.1.02.1.2c0 .1.05.22.1.25q.11.06.08-.26c-.02-.29-.07-.34-.3-.37-.26-.03-.28 0-.28.32m2.2-.23q.01.1.18.05.23-.09-.02.09c-.22.17-.15.45.13.45q.38 0 .27-.46-.06-.25-.31-.24c-.14 0-.25.05-.25.11m1.6 0q.02.1.15.05.13-.04.15.04-.01.1-.16.1c-.22 0-.13.34.1.38.26.05.4-.12.32-.42q-.06-.28-.31-.26c-.14 0-.25.05-.25.11m2.47-.05c-.23.24.1.72.4.6.17-.08.16-.09-.02-.16q-.27-.1-.02-.1c.25 0 .18-.34-.09-.38-.1-.02-.23 0-.27.04m3.4 0c-.23.24.1.72.4.6.17-.08.16-.09-.02-.16q-.26-.1-.02-.1c.25 0 .18-.34-.09-.38-.1-.02-.23 0-.27.04m.94.32q0 .42.07.14c.07-.23.26-.31.28-.12l.03.22c.01.17.18-.02.24-.27q.05-.28.06.02c.02.38.21.37.21-.01 0-.36 0-.36-.45-.36h-.45zm1.36-.32c-.04.04-.07.18-.07.31 0 .27.21.39.48.28.15-.07.14-.09-.08-.15-.25-.08-.25-.08-.02-.09q.24 0 .2-.18c-.03-.18-.38-.3-.5-.17m2.42.05q.02.1.18.05.17-.05-.05.1c-.27.2-.2.44.13.44.2 0 .24-.05.24-.35s-.03-.35-.25-.35q-.23.01-.25.11m2.5.08c0 .1.06.22.13.24q.15.06 0 .06c-.21.02-.15.21.06.21.27 0 .37-.2.18-.35-.18-.13-.24-.3-.07-.2q.1.04.1-.04-.02-.1-.2-.11-.2 0-.2.2"/></svg>