<svg xmlns="http://www.w3.org/2000/svg" width="24" height="24"><path fill="#0e0f11" fill-rule="evenodd" d="M3 7.55c0 .2.02.35.04.35l.35-.11c.23-.08.31-.17.31-.35 0-.2-.05-.24-.35-.24-.33 0-.35.02-.35.35m3.44-.16a1.7 1.7 0 0 0-.66 2.5c.1.14.34.37.53.5.28.19.44.22.92.19q1.41-.12 1.55-1.52a1.6 1.6 0 0 0-.91-1.65c-.53-.26-.9-.26-1.43-.02m4.26 1.5v1.71h1.8v-.3c0-.3 0-.3-.55-.3h-.54l-.03-1.37-.03-1.38-.32-.03-.33-.03zm3.74-1.56c-.02.07-.03.82-.02 1.67l.03 1.55.93.03.92.03V10h-1.2V7.2h-.3c-.17 0-.33.06-.36.13m4.17 1.5-.78 1.65q-.05.12.24.12c.28 0 .33-.06.8-1.07l.5-1.08.54 1.08c.49.97.56 1.07.81 1.07H21l-.34-.72-.77-1.66c-.23-.5-.46-.92-.5-.92s-.39.69-.78 1.53M6.58 8c-.25.14-.48.62-.48 1 0 .22.1.4.35.66.32.32.4.35.76.3.48-.06.68-.21.86-.66.3-.69-.17-1.41-.9-1.4-.23 0-.5.04-.6.1m-3.34.1C3 8.18 3 8.23 3 9.4v1.2h.7V9.3c0-1.37 0-1.39-.48-1.2m15.84 1.87c-.3.62-.26.73.3.73.64 0 .66-.06.34-.7a5 5 0 0 0-.33-.6c-.02 0-.15.25-.3.57"/></svg>