<svg xmlns="http://www.w3.org/2000/svg" width="24" height="24"><path fill="#41282a" fill-rule="evenodd" d="M14.31 4.4a3.67 3.67 0 0 0-.66 6.87c.52.24.72.28 1.5.27.79 0 .97-.03 1.49-.29a4 4 0 0 0 1.81-1.8c.27-.53.3-.7.3-1.5a3 3 0 0 0-.82-2.33 3.8 3.8 0 0 0-3.62-1.22m-6.51.2c-.48.1-1.1.38-1.33.59-.54.49-.73 1.56-.4 2.18.3.54.77.84 1.89 1.19 1.42.45 1.73.76 1.23 1.21-.46.41-2.07.07-2.77-.58-.27-.26-.33-.21-.66.53-.23.53-.24.58-.08.71.33.28.88.56 1.55.78.56.19.81.22 1.47.17 1.68-.11 2.56-1.03 2.35-2.45-.05-.38-.15-.55-.5-.88s-.6-.46-1.46-.73a5 5 0 0 1-1.26-.55c-.28-.27-.21-.64.14-.72.42-.1 1.25.03 1.83.3.57.25.91.3.84.12-.02-.06.05-.29.16-.5.36-.7.28-.82-.73-1.13a4 4 0 0 0-1.37-.28c-.3-.02-.7 0-.9.04m12.48.02c-.15.08-.18.25-.2.97 0 .77-.01.82-.09.42l-.16-.9c-.07-.36-.13-.46-.3-.48-.31-.05-.37.17-.23.8l.31 1.78.35 2.1c.08.48.14 1.57.14 2.51 0 1.34.03 1.68.14 1.72q.27.13.27-.32l.01-.26.07.25q.07.23.21.25c.19 0 .19-.89 0-1.9-.08-.46-.13-1.77-.14-3.84 0-2-.05-3.15-.11-3.17s-.18.01-.27.07M3.12 7.98l.03 3.37.68.03c.43.02.74-.02.83-.09.12-.1.14-.64.14-3.27-.01-1.73-.04-3.2-.07-3.28-.04-.1-.26-.14-.84-.14h-.8zm.04 4.38c-.19.18-.19.2-.06.45q.1.2 0 .19c-.17 0-.1.29.1.4.28.15.48.12.7-.1.18-.18.19-.18.36 0 .4.45.94.07.94-.65 0-.38-.03-.45-.2-.45s-.2.07-.2.45c0 .33-.04.45-.15.45s-.15-.12-.15-.45c0-.38-.03-.45-.2-.45q-.19.01-.2.16c0 .14-.01.14-.16 0a.6.6 0 0 0-.39-.16c-.13 0-.3.07-.4.16m2.25-.01c-.17.2-.09.47.2.63l.25.14-.27-.06c-.15-.04-.3-.01-.34.05-.17.27.64.5.9.24.14-.15.16-.15.16 0 0 .2.3.2.37-.02.1-.3.28-.34.33-.1.05.17.13.22.4.23.55 0 .57-.02.54-.63-.04-.61-.07-.68-.27-.6-.08.03-.14.22-.15.48-.03.61-.12.62-.12 0 0-.39-.04-.51-.15-.51q-.21-.01-.16.38 0 .1-.19.12-.21.02-.2-.25.01-.26-.2-.25c-.16 0-.2.07-.2.36q0 .34-.1.29c-.06-.04-.08-.16-.04-.27.1-.35-.5-.54-.76-.23m2.96-.06c-.1.15.3 1.16.47 1.2.09 0 .22-.1.31-.26.14-.25.15-.26.16-.06q.01.2.13.26c.18.06.47-.11.47-.3 0-.11.07-.09.3.11.4.33.64.33.96 0 .25-.24.25-.24.22-.02-.04.3.3.37.4.08l.08-.21.18.2c.2.23.46.28.46.1 0-.06-.08-.24-.17-.4-.17-.3-.17-.31 0-.43q.16-.13.17-.25c0-.16-.3-.13-.52.06-.17.15-.18.15-.18 0q-.01-.16-.2-.17-.21-.01-.2.26v.27l-.2-.27c-.27-.33-.63-.34-.96-.01l-.24.24.06-.24q.06-.26-.08-.25c-.2 0-.38.2-.4.45q0 .2-.07-.1c-.09-.43-.39-.45-.53-.03l-.12.33-.08-.32c-.08-.31-.3-.44-.42-.24m4.75.05a.3.3 0 0 0-.05.29q.04.14-.05.22c-.17.1-.13.43.07.54.1.05.33.08.52.07.32-.01.35-.04.34-.31q0-.32-.17-.29-.3.02-.05-.24.13-.1-.02-.27c-.16-.19-.44-.2-.59-.01m1.52-.04c-.49.2-.37 1.03.16 1.15.17.03.38.02.47-.03q.18-.1.36.02c.16.09.22.07.34-.08q.13-.17.14-.1.02.11.25.22.25.12.25.01.02-.1.2-.04.17.04.25-.05.07-.1.18-.02c.07.06.47.1.9.1.7.01.77 0 .77-.18q0-.2-.2-.2c-.17 0-.2-.07-.2-.45s-.03-.45-.2-.45c-.2 0-.22.02-.22.62 0 .33-.03.36-.22.29-.21-.08-.23-.13-.25-.63q0-.29-.2-.28c-.17 0-.2.08-.24.53l-.03.52-.02-.52c-.02-.46-.05-.53-.22-.53q-.19.01-.2.17c0 .15-.01.15-.18 0-.2-.19-.87-.23-.97-.07q-.06.1-.25 0c-.22-.12-.37-.12-.67 0m.73.3c-.04.04-.18.07-.32.05-.29-.03-.45.22-.23.36q.3.2.29-.06.02-.13.2-.15t.2-.15q-.01-.26-.14-.06"/></svg>