<svg xmlns="http://www.w3.org/2000/svg" width="24" height="24"><path fill="#c0a454" fill-rule="evenodd" d="M7.55 2.26c-.64.33-1.05.9-1.46 1.99-.18.47-.22.8-.22 1.55 0 1.39.4 2.45 1.21 3.32.2.2.34.4.31.41-.07.06-.98.47-1.04.47s-1.05.65-1.32.87c-.33.28-.63.85-.63 1.2 0 .67.78 1 2.18.9.68-.05.91-.03 1.06.08.22.17.67.2.94.07a9 9 0 0 0 1.92-1.14c.32-.26.61-.44.65-.4q.07.06.01-.05c-.03-.07.07-.31.25-.55a38 38 0 0 0 3.33-6.17c.2-.7.21-1.4.01-1.47-.42-.16-1.35.51-2.4 1.75-.33.39-.62.7-.65.7s-.27-.43-.54-.97c-.64-1.27-1.3-2.02-2.08-2.41-.68-.35-1.09-.38-1.53-.15m.44.14c-1.29.19-2.21 2.43-1.84 4.45.17.87.8 1.94 1.57 2.63.42.38 1.02.82 1.12.82.13 0 .05-.48-.09-.6a.4.4 0 0 1-.15-.3l-.08-.25a7 7 0 0 1-.55-1.83c-.08-.7.09-2.15.31-2.58.32-.62.57-.79 1.16-.79.38 0 .59.06.8.23q.52.4.25-.1a4 4 0 0 0-1.28-1.36c-.55-.34-.75-.4-1.22-.32m5.91 1.44c-.4.3-1.45 1.39-2 2.08-.2.25-.2.31-.09.69l.13.41.31-.33c.7-.75 1.25-1.19 1.5-1.19q.25 0 .25.15 0 .13.1.15.1-.01.1-.13c0-.08.07-.28.16-.45.17-.35.44-1.53.37-1.64-.09-.16-.4-.06-.83.26M6.92 9.96c-1.7.77-2.72 1.95-2.14 2.47.2.18.9.36 1.44.37.4 0 .6-.15.3-.24-.28-.1-.45-.52-.3-.8.13-.25.79-.85.94-.86.06 0 .28-.11.48-.25s.47-.25.59-.25c.2 0 .17-.05-.18-.35a2 2 0 0 0-.5-.34c-.05 0-.34.12-.63.25m5.2.77c-.23.1-.39.48-.27.66.11.2.63.12.79-.1.27-.39-.08-.76-.52-.56m1.4.37q-.21.1-.28.39c-.04.17-.14.31-.25.34-.23.06-.27.57-.05.57.12 0 .12.07 0 .44-.06.24-.15.68-.19.98-.09.68.08.9.64.86.42-.04.58-.36.22-.45-.25-.06-.25-.17-.02-1.08.15-.58.23-.7.42-.75.33-.08.4-.6.09-.6-.2 0-.21-.04-.15-.27l.08-.37c.03-.14-.24-.17-.5-.06m-1.6.8a.5.5 0 0 0-.26.37l-.48 2.23q-.06.15.32.18l.36.03.16-.78.3-1.4c.18-.76.13-.84-.4-.63m3.04.2c-.65.57-.6 1 .17 1.39.25.12.46.29.46.37 0 .23-.44.35-.8.22-.26-.08-.34-.07-.5.07q-.37.34.39.55c.78.2 1.71-.34 1.71-1 0-.3-.18-.5-.77-.79-.31-.15-.4-.25-.36-.37.05-.13.16-.15.6-.1.46.05.53.04.64-.15.16-.3 0-.41-.64-.47-.5-.04-.57-.02-.9.28m2.47-.23c-.23.04-.36.36-.58 1.47q-.21 1.05.17 1.28c.17.1.96.1 1.38-.02.54-.15.72-.42.9-1.38.25-1.23.24-1.42-.03-1.42-.37 0-.45.12-.57.85-.2 1.14-.3 1.43-.58 1.5-.36.09-.63-.03-.63-.28 0-.12.1-.58.2-1.02.28-1.13.29-1.09-.26-.98m-9.22.87c-.24.06-.4.14-.36.19.1.1.62.09.69-.03.03-.06.15-.1.26-.1q.18 0 .14-.1c-.07-.12-.17-.12-.73.04m5.31 2.38c-.05.07-.08.29-.08.48 0 .3.04.36.24.38.15.02.3-.03.37-.12.1-.15.12-.15.17-.01.04.08.18.15.33.15q.27 0 .2-.14a.3.3 0 0 1 .06-.24q.09-.1.04-.21c-.09-.13-.43-.15-.5-.02-.08.12-.56-.1-.56-.27q0-.1-.09-.12-.09.01-.18.13m3.57.11c-.14.38-.13.79.02.74.16-.06.3-.8.17-.92q-.09-.07-.19.18m.42-.04c-.14.23-.16.8-.03.8.1 0 .37-.6.33-.72q0-.08.08-.08a.1.1 0 0 0 .1-.1c0-.18-.35-.1-.48.1m1.3-.02c-.14.25-.16.82-.03.82.12 0 .3-.76.2-.9q-.07-.15-.18.08m-2.19.04c-.07.07-.12.27-.12.45 0 .47.26.43.33-.04.07-.41-.02-.6-.21-.41m-4.04.26q-.09.54.19.52.15 0 .09-.16a.3.3 0 0 1 .05-.3c.12-.15.04-.34-.15-.34-.08 0-.16.13-.18.28m2.67-.18q-.17.08-.12.1.06.01-.07.16c-.09.08-.16.2-.16.25 0 .17.32.23.53.1q.2-.14.3-.02c.2.2.54.13.6-.12.1-.35.08-.47-.07-.47-.08 0-.17.1-.19.22l-.04.23-.02-.22c0-.13-.08-.23-.16-.23q-.14.02-.16.22 0 .3-.06.03c-.07-.29-.15-.34-.38-.25m-4.15.2c-.09.16-.08.25 0 .36.18.21.5.18.5-.05 0-.11.05-.23.1-.26.16-.1.01-.25-.25-.25a.4.4 0 0 0-.35.2m.85-.1q.03.07-.05.15c-.05.03-.1.15-.1.26 0 .16.06.2.28.17s.28-.08.3-.36c.03-.29 0-.32-.23-.32-.14 0-.24.04-.2.1m5.99.04c-.11.29 0 .51.29.54q.26.03.27-.1c0-.07.03-.23.06-.36q.08-.23-.1-.22c-.08 0-.17.1-.19.22l-.04.23-.02-.22c-.01-.26-.19-.3-.27-.09"/></svg>