<svg xmlns="http://www.w3.org/2000/svg" width="24" height="24"><path fill="#364585" fill-rule="evenodd" d="M3.78 7.97c-.02.04-.03.24-.02.43.02.2 0 .5-.02.69-.05.3-.07.31-.18.16-.15-.21-.5-.16-.54.08-.1.46.7.75 1.14.43.16-.12.19-.27.19-.98 0-.82 0-.83-.27-.86-.14-.02-.28 0-.3.05m1.19.25L4.3 9.86c0 .15.57.03.68-.15.16-.26.58-.26.72 0q.12.22.38.18c.3-.03.3-.04.08-.63-.4-1.1-.55-1.35-.8-1.35-.2 0-.3.08-.4.32m1.62-.09c-.34.32-.43.76-.24 1.2.18.45.48.6 1.03.54.48-.05.83-.3.83-.59 0-.23-.32-.24-.7-.01-.35.2-.6.05-.6-.37 0-.39.25-.58.53-.4.34.2.77.2.77 0 0-.55-1.15-.8-1.62-.37m1.8-.11c-.03.52-.02 1.72.03 1.8.1.15.55.05.51-.11a1 1 0 0 1 .03-.3c.05-.12.1-.08.27.17.15.24.27.32.49.32.37 0 .36-.11-.02-.65l-.32-.44.32-.4c.17-.21.31-.42.31-.45s-.13-.06-.3-.06a.5.5 0 0 0-.46.25c-.2.31-.36.32-.32.03.02-.19-.02-.24-.24-.26q-.27-.03-.3.1m2.2-.01q-.17.1-.18.42a1 1 0 0 1-.15.51c-.42.55.25 1.28.82.9q.24-.15.36-.05c.2.16.45-.1.43-.47-.04-.39-.25-.67-.4-.53q-.09.11-.28-.06-.33-.3-.02-.3c.25.03.43-.31.24-.43-.2-.13-.6-.12-.82 0m2.22.65c0 .7-.1.95-.24.6-.08-.21-.5-.15-.54.07-.05.25.34.58.68.58.53 0 .7-.29.7-1.2v-.8h-.6zm1-.46c-.67.66-.21 1.71.73 1.71.61 0 1.07-.43 1.07-1s-.46-1-1.07-1c-.36 0-.5.06-.74.3m1.91.7v1.01l.28-.03c.24-.03.28-.08.32-.45l.05-.42.3.45c.23.34.36.44.58.44h.27v-2h-.3c-.29 0-.3.01-.3.47v.46l-.36-.46q-.37-.47-.6-.47c-.24 0-.24.01-.24 1m2-.7-.02.98v.67h.73c.7 0 .74-.01.77-.22.03-.23-.04-.26-.7-.26q-.16-.01-.18-.11c0-.07.12-.12.27-.12.23 0 .29-.04.31-.27s0-.27-.27-.27c-.17 0-.31-.03-.31-.07s.2-.08.45-.08c.36 0 .45.04.45.17 0 .1.1.23.2.31l.2.14-.2.06c-.25.07-.25.18 0 .5.28.35.95.38 1.28.07.3-.27.29-.73 0-.94q-.2-.14-.13-.15.63.07.1-.46c-.31-.32-.91-.34-1.23-.05l-.22.2v-.2c0-.18-.06-.2-.75-.2h-.75zm-3.43.38q-.33.35.03.67c.18.17.21.17.45.01.3-.2.32-.46.07-.7-.24-.2-.35-.2-.55.02"/></svg>