<svg xmlns="http://www.w3.org/2000/svg" width="24" height="24"><path fill="#505050" fill-rule="evenodd" d="M5.17 4.56c-.04.04-.07.66-.07 1.38s-.04 1.36-.08 1.42c-.04.07-.16.13-.27.15-.25.05-.33.47-.1.55.21.08.73-.14.86-.37.05-.1.1-.85.11-1.66.02-1.4 0-1.48-.18-1.5a.4.4 0 0 0-.27.03m3.37.32-.7 1.6c-.3.67-.54 1.25-.54 1.28q.02.05.28.02c.2-.02.31-.12.46-.46.19-.4.2-.42.67-.42.26 0 .54-.03.63-.06.1-.04.2.08.37.45.19.44.25.51.5.51.26 0 .28-.02.2-.22a83 83 0 0 0-1.34-2.95c-.15-.24-.38-.13-.53.25m4.4-.27a2 2 0 0 0-.6.41c-1.25 1.31-.04 3.21 1.76 2.78.52-.12.75-.36.64-.64-.07-.2-.05-.2-.4-.01-.16.08-.5.15-.77.15-.42 0-.54-.05-.83-.34-.38-.38-.44-.74-.2-1.3.22-.53.99-.7 1.94-.4.2.06.22.03.22-.23 0-.27-.04-.3-.5-.41-.59-.14-.82-.14-1.25-.01m5.65-.03c-.15.02-.5.3-.87.7l-.62.67v-.67c-.01-.66-.02-.68-.26-.68h-.25v3.2h.25c.24 0 .25-.02.25-.7 0-.38.04-.7.08-.7s.39.32.77.7c.58.58.75.7 1.02.7.18 0 .33-.04.33-.09s-.36-.43-.8-.85l-.8-.77.55-.64c.31-.35.62-.66.68-.68.21-.08-.06-.23-.33-.2M8.63 5.9l-.21.5h.88l-.14-.35c-.29-.68-.3-.69-.53-.15M3 10.2a22 22 0 0 0 1.32 3.18c.05-.02.3-.56.55-1.2.25-.65.49-1.18.53-1.18.03 0 .27.53.52 1.17s.5 1.19.55 1.2c.08.03 1.34-2.98 1.33-3.2 0-.05-.12-.07-.26-.05-.23.03-.3.14-.63 1-.32.86-.51 1.2-.51.88 0-.05-.1-.33-.24-.62-.13-.3-.3-.7-.37-.9-.1-.29-.19-.38-.35-.38-.28 0-.3.04-.75 1.14-.41 1.01-.35 1.04-.89-.31-.28-.72-.36-.83-.56-.83-.13 0-.24.04-.24.1m6.52 1.52c.03 1.6.03 1.63.26 1.66.22.03.22.03.24-1.47 0-.83.01-1.57.02-1.63q-.01-.12-.27-.16l-.27-.03zm2.53-1.5c-.03.08-.04.81-.03 1.63l.03 1.5H13c.95 0 .95 0 .95-.25 0-.26.05-.25-1.12-.3-.22 0-.22-.03-.25-1.32-.03-1.3-.04-1.33-.26-1.36-.12-.02-.24.03-.27.1m3.65 1.53v1.65h.94c.98 0 1.12-.06 1-.4-.05-.18-.12-.2-.56-.17-.91.08-.88.13-.88-1.4V10.1h-.5zm3.78-1.45c-.55.42-.37 1.06.43 1.59.55.36.68.55.52.8-.15.24-.52.25-.84.02-.37-.27-.39-.27-.39.08 0 .7 1.2.84 1.67.22.07-.09.13-.34.13-.57 0-.44-.12-.59-.88-1.08-.33-.2-.42-.32-.4-.49.03-.19.1-.22.43-.21.22 0 .47.04.56.08q.17.09.21-.18.08-.25-.19-.35c-.38-.17-.97-.13-1.25.09"/></svg>