<svg xmlns="http://www.w3.org/2000/svg" width="24" height="24"><path fill="#0a0a0a" fill-rule="evenodd" d="M11.05 4.89a2.05 2.05 0 0 0-1.5 2.24 2.05 2.05 0 0 0 2.3 1.72c.75-.1 1.65-.85 1.65-1.34 0-.06-.22-.11-.5-.11-.36 0-.59.07-.86.25-.48.33-.79.32-1.15-.04-.24-.24-.29-.38-.29-.76s.05-.52.3-.76c.34-.34.63-.36 1.08-.09.33.2 1.42.3 1.42.11 0-.04-.1-.23-.23-.42-.42-.63-1.46-1-2.22-.8m7.6.05C18.23 5.12 18 5.5 18 6c0 .37.07.48.56 1 .49.51.55.62.44.75a.4.4 0 0 1-.34.13c-.16-.02-.21-.1-.21-.35q-.01-.31-.25-.58l-.25-.26-.22.25c-.69.8-.13 1.91.96 1.91.36 0 .56-.06.83-.27l.35-.27.26.27.27.27.32-.32.32-.33-.27-.28c-.27-.29-.27-.29-.07-.47.27-.24.25-.36-.1-.7l-.3-.29-.25.24-.25.24-.4-.4c-.42-.4-.52-.74-.22-.74.1 0 .23.05.3.12.1.1.19.05.42-.17.36-.35.37-.48.06-.69a1.6 1.6 0 0 0-1.31-.12M4.6 6.34c0 1.15-.03 1.46-.15 1.56-.2.17-.43.06-.47-.22-.03-.2-.09-.23-.48-.23h-.45l.01.4c.03.78.93 1.23 1.8.9.67-.26.74-.46.74-2.3V4.9h-1zm1.97.14-.82 1.95-.15.37h.53c.51 0 .54-.01.7-.35.17-.35.17-.35.85-.35h.68l.13.35c.12.34.14.35.67.35.3 0 .54-.04.54-.08s-.34-.9-.75-1.92L8.2 4.93c0-.02-.22-.03-.49-.03h-.48zm7.33.36V8.8h1.09l.03-.72.03-.72.5.72.49.72h.59c.71 0 .72.04-.17-1.2l-.66-.9.65-.82c.36-.45.65-.86.65-.9s-.25-.08-.54-.08H16l-.48.67-.48.68L15 5.6l-.05-.65-.52-.03-.53-.03zm-6.44-.08-.16.5c0 .03.18.04.39.04h.4l-.18-.45c-.1-.24-.2-.47-.23-.5s-.13.15-.22.41M7.4 9.14c-1.12.4-1.67 1.4-1.35 2.48.64 2.23 4.06 1.8 4.06-.5 0-.28-.05-.63-.1-.79a2.3 2.3 0 0 0-1.34-1.18c-.6-.18-.8-.18-1.27-.01m11.18 0c-.78.29-1.12.92-.84 1.58q.25.64 1.28.75c.28.03.6.14.72.23.18.15.2.2.08.34-.21.25-.78.2-1.05-.09-.19-.2-.33-.25-.7-.25-.47 0-.48 0-.41.27.36 1.45 2.84 1.5 3.24.07.2-.7-.26-1.26-1.13-1.39-.82-.12-.97-.17-1.03-.32-.07-.18.21-.43.48-.43.1 0 .3.11.47.25.23.19.41.25.77.25.43 0 .46-.01.4-.22-.25-.88-1.36-1.38-2.28-1.04M4.6 10.52c0 .79-.04 1.5-.09 1.56-.13.2-.46.1-.5-.16-.02-.2-.08-.22-.52-.22-.46 0-.49.02-.49.26 0 .89 1.05 1.41 1.96.98.57-.27.64-.53.64-2.28V9.1h-1zm5.84-1.3c-.02.07-.03.94-.02 1.92l.03 1.8.53.03.52.03v-2.05l.76 1.02.76 1.02H14l-.02-1.92-.03-1.93-.47-.03-.47-.03-.03 1.08-.03 1.07-.8-1.07-.8-1.07h-.42c-.26 0-.46.05-.49.13m4.03-.06c-.04.03-.07.91-.07 1.95V13h3v-.9h-1.9v-.6h1.3v-.9h-.65c-.63 0-.65 0-.65-.25s0-.25.95-.25h.95v-1h-1.43c-.8 0-1.47.03-1.5.07m-6.82.97c-.6.27-.75 1.18-.26 1.67.89.89 2.19-.48 1.34-1.4q-.5-.55-1.08-.27"/></svg>