<svg xmlns="http://www.w3.org/2000/svg" width="24" height="24"><path fill="#1e1c1f" fill-rule="evenodd" d="M7.2 8.2q0 .18-.1.2-.09.02-.1.15.01.13.1.15c.06 0 .1.18.1.39q0 .38.16.45.44.16.44-.14 0-.18-.1-.2-.09-.02-.1-.25.01-.23.1-.25t.1-.15-.1-.15q-.09-.02-.1-.2 0-.2-.2-.2t-.2.2m1.1.6c0 .73.02.8.2.8.15 0 .2-.07.2-.3 0-.67.27-.82.32-.18.02.36.07.44.26.46.2.03.22 0 .22-.41 0-.66-.07-.77-.46-.77-.27 0-.34-.04-.34-.2q0-.2-.2-.2c-.18 0-.2.07-.2.8m-5.24-.18c.25.8.32.93.52.96.17.03.23-.04.3-.3l.08-.33.12.33c.18.52.48.44.67-.2.2-.67.2-.7-.07-.66q-.22.03-.29.28l-.06.25-.08-.28c-.1-.35-.48-.35-.53 0-.04.27-.22.2-.22-.08q.01-.2-.26-.19c-.22 0-.24.03-.18.22m2.38.03c-.34.51.14 1.1.73.9.15-.06.28-.16.31-.24.04-.1-.02-.13-.26-.08-.17.04-.34.02-.37-.03q-.04-.1.34-.1c.45 0 .51-.11.25-.48-.22-.32-.78-.3-1 .03m4.72-.06c-.42.46.1 1.17.7.96.15-.06.3-.16.32-.24.04-.1-.03-.12-.3-.07-.22.04-.4.02-.43-.04q-.05-.1.4-.1c.43 0 .46-.01.4-.22a1 1 0 0 0-.17-.36c-.16-.19-.72-.15-.92.07m1.58-.05c-.03.08-.04.33-.02.57.02.37.07.45.26.47.2.03.22-.01.22-.33 0-.28.05-.38.2-.42q.18-.06.2-.23c0-.14-.09-.18-.4-.18q-.4 0-.46.12m1.36 0c-.18.23-.05.46.3.52.16.04.3.1.3.16q-.02.1-.12.05c-.51-.19-.6-.19-.56 0 .09.48 1.08.38 1.08-.12q-.02-.23-.12-.25-.14 0 .01-.1a.2.2 0 0 0 .08-.24c-.08-.21-.8-.22-.97-.01m1.57-.08c-.04.03-.07.37-.07.75 0 .66 0 .68.25.68q.26.01.25-.2-.01-.2.2-.13c.44.12.75-.5.5-.98-.08-.15-.21-.19-.59-.19-.26 0-.5.03-.54.07m1.85.05c-.32.41-.06 1.08.41 1.08.58 0 .89-.67.49-1.03-.22-.2-.75-.22-.9-.04m1.7 0c-.32.4-.06 1.07.42 1.07.55 0 .88-.67.5-1.04-.18-.2-.77-.21-.92-.04m1.58.5c0 .56.01.6.23.56.16-.02.23-.1.25-.33.02-.17.05-.37.08-.45.08-.23.24.08.24.47 0 .27.04.33.2.33.2 0 .2-.05.18-.57l-.03-.58-.57-.02-.58-.02z"/></svg>