<?xml version="1.0" encoding="UTF-8" standalone="no"?><!-- Generator: Gravit.io --><svg xmlns="http://www.w3.org/2000/svg" xmlns:xlink="http://www.w3.org/1999/xlink" style="isolation:isolate" viewBox="0 0 24 24" width="24pt" height="24pt"><defs><clipPath id="_clipPath_plp9koyULP4aHwxvE59tNrDvFkH1fx9f"><rect width="24" height="24"/></clipPath></defs><g clip-path="url(#_clipPath_plp9koyULP4aHwxvE59tNrDvFkH1fx9f)"><clipPath id="_clipPath_LHbEq0PiTbiW3sdMLhnRIBdLog84X2eg"><rect x="2.769" y="0" width="18.462" height="24" transform="matrix(1,0,0,1,0,0)" fill="rgb(255,255,255)"/></clipPath><g clip-path="url(#_clipPath_LHbEq0PiTbiW3sdMLhnRIBdLog84X2eg)"><g><g><g><g><path d=" M 7.403 4.171 L 7.705 4.171 L 7.705 5.975 C 7.705 6.177 7.695 6.403 7.549 6.562 C 7.479 6.638 7.39 6.685 7.287 6.705 C 7.281 6.701 7.009 6.426 7.009 6.426 C 7.091 6.426 7.174 6.433 7.254 6.4 C 7.307 6.38 7.347 6.343 7.37 6.29 C 7.397 6.237 7.407 6.118 7.407 5.942 L 7.407 4.171 L 7.403 4.171 Z " fill="rgb(255,255,255)"/><path d=" M 9.728 4.426 C 9.486 4.426 9.29 4.503 9.134 4.652 C 8.978 4.805 8.902 4.997 8.902 5.229 C 8.902 5.458 8.982 5.647 9.134 5.796 C 9.29 5.945 9.486 6.022 9.718 6.022 C 9.953 6.022 10.149 5.945 10.305 5.789 C 10.461 5.637 10.54 5.445 10.54 5.216 C 10.54 4.994 10.461 4.805 10.305 4.652 C 10.152 4.503 9.957 4.426 9.728 4.426 Z  M 9.718 4.141 C 10.043 4.141 10.315 4.244 10.53 4.45 C 10.746 4.655 10.855 4.914 10.855 5.226 C 10.855 5.537 10.746 5.793 10.527 5.998 C 10.308 6.201 10.033 6.303 9.701 6.303 C 9.383 6.303 9.118 6.201 8.909 5.998 C 8.697 5.796 8.59 5.541 8.59 5.232 C 8.59 4.917 8.697 4.659 8.909 4.45 C 9.121 4.241 9.393 4.141 9.718 4.141 Z " fill="rgb(255,255,255)"/><path d=" M 13.273 4.171 L 13.574 4.171 L 13.574 6.277 L 13.273 6.277 L 13.273 5.362 L 12.039 5.362 L 12.039 6.277 L 11.737 6.277 L 11.737 4.171 L 12.039 4.171 L 12.039 5.09 L 13.273 5.09 L 13.273 4.171 Z " fill="rgb(255,255,255)"/><path d=" M 16.376 4.171 L 16.662 4.171 L 16.662 6.277 L 16.403 6.277 L 14.931 4.655 L 14.931 6.277 L 14.649 6.277 L 14.649 4.171 L 14.891 4.171 L 16.376 5.806 L 16.376 4.171 Z " fill="rgb(255,255,255)"/><path d=" M 6.166 8.691 L 6.166 10.81 L 7.466 10.81 L 7.466 10.538 L 6.471 10.538 L 6.471 8.691 L 6.166 8.691 Z " fill="rgb(255,255,255)"/><path d=" M 8.481 8.691 L 8.481 10.81 L 9.847 10.81 L 9.847 10.538 L 8.786 10.538 L 8.786 9.878 L 9.791 9.878 L 9.791 9.603 L 8.786 9.603 L 8.786 8.963 L 9.821 8.963 L 9.821 8.691 L 8.481 8.691 Z " fill="rgb(255,255,255)"/><path d=" M 13.651 8.691 L 13.074 10.15 L 12.483 8.691 L 12.195 8.691 L 11.608 10.15 L 11.021 8.691 L 10.719 8.691 L 11.575 10.83 L 11.635 10.83 L 12.337 9.096 L 13.034 10.83 L 13.094 10.83 L 13.952 8.691 L 13.651 8.691 Z " fill="rgb(255,255,255)"/><path d=" M 14.871 10.81 L 15.173 10.81 L 15.173 8.691 L 14.871 8.691 L 14.871 10.81 Z " fill="rgb(255,255,255)"/><path d=" M 16.887 9.928 L 16.655 9.789 C 16.509 9.699 16.42 9.613 16.353 9.53 C 16.284 9.444 16.25 9.341 16.25 9.228 C 16.25 9.062 16.307 8.926 16.423 8.82 C 16.539 8.714 16.691 8.664 16.877 8.664 C 17.073 8.664 17.215 8.714 17.365 8.814 L 17.365 9.158 C 17.212 9.013 17.046 8.94 16.871 8.94 C 16.771 8.94 16.691 8.963 16.625 9.009 C 16.562 9.056 16.529 9.115 16.529 9.188 C 16.529 9.251 16.546 9.304 16.592 9.361 C 16.638 9.417 16.721 9.48 16.827 9.543 L 17.066 9.679 C 17.325 9.835 17.444 10.031 17.444 10.269 C 17.444 10.438 17.384 10.581 17.272 10.684 C 17.159 10.79 17.013 10.846 16.831 10.843 C 16.622 10.84 16.436 10.78 16.26 10.647 L 16.26 10.263 C 16.423 10.472 16.615 10.571 16.827 10.571 C 16.924 10.571 17.003 10.548 17.066 10.495 C 17.129 10.442 17.162 10.375 17.162 10.296 C 17.169 10.163 17.073 10.044 16.887 9.928 Z " fill="rgb(255,255,255)"/><path d=" M 6.382 13.393 C 6.382 13.42 6.392 13.446 6.412 13.479 C 6.432 13.512 6.455 13.542 6.481 13.565 C 6.521 13.542 6.554 13.516 6.578 13.489 C 6.601 13.463 6.614 13.433 6.614 13.4 C 6.614 13.37 6.604 13.343 6.581 13.32 C 6.558 13.3 6.531 13.29 6.495 13.29 C 6.465 13.29 6.438 13.3 6.415 13.317 C 6.392 13.34 6.382 13.363 6.382 13.393 Z  M 6.246 13.987 C 6.246 14.023 6.259 14.053 6.289 14.079 C 6.319 14.106 6.352 14.116 6.389 14.116 C 6.455 14.116 6.524 14.083 6.597 14.02 L 6.402 13.798 C 6.352 13.827 6.316 13.857 6.289 13.887 C 6.259 13.92 6.246 13.95 6.246 13.987 Z  M 6.498 13.128 C 6.584 13.128 6.66 13.151 6.717 13.201 C 6.776 13.25 6.803 13.313 6.803 13.39 C 6.803 13.446 6.786 13.496 6.75 13.546 C 6.717 13.595 6.66 13.642 6.591 13.688 L 6.75 13.871 C 6.796 13.824 6.84 13.764 6.879 13.688 L 7.088 13.688 C 7.035 13.821 6.962 13.927 6.879 14.013 L 7.111 14.275 L 6.826 14.275 L 6.72 14.156 C 6.66 14.206 6.607 14.239 6.551 14.259 C 6.498 14.278 6.432 14.292 6.359 14.292 C 6.266 14.292 6.19 14.265 6.123 14.209 C 6.06 14.152 6.027 14.083 6.027 14.003 C 6.027 13.937 6.05 13.874 6.097 13.821 C 6.143 13.768 6.206 13.718 6.292 13.672 C 6.253 13.622 6.223 13.575 6.206 13.536 C 6.186 13.496 6.18 13.453 6.18 13.41 C 6.18 13.327 6.209 13.257 6.272 13.204 C 6.326 13.154 6.405 13.128 6.498 13.128 Z " fill="rgb(255,255,255)"/><path d=" M 8.269 13.619 C 8.328 13.619 8.375 13.605 8.408 13.579 C 8.441 13.552 8.458 13.512 8.458 13.459 C 8.458 13.353 8.391 13.3 8.255 13.3 L 8.103 13.3 L 8.103 13.619 L 8.269 13.619 Z  M 8.325 13.128 C 8.431 13.128 8.521 13.158 8.587 13.221 C 8.653 13.284 8.687 13.363 8.687 13.459 C 8.687 13.559 8.653 13.638 8.584 13.701 C 8.517 13.764 8.425 13.794 8.315 13.794 L 8.103 13.794 L 8.103 14.275 L 7.881 14.275 L 7.881 13.128 L 8.325 13.128 Z " fill="rgb(255,255,255)"/><path d=" M 9.247 13.827 L 9.618 13.827 L 9.426 13.373 L 9.247 13.827 Z  M 9.539 13.128 L 10.046 14.275 L 9.811 14.275 L 9.691 13.997 L 9.181 13.997 L 9.071 14.275 L 8.839 14.275 L 9.313 13.128 L 9.539 13.128 Z " fill="rgb(255,255,255)"/><path d=" M 10.703 13.615 C 10.762 13.615 10.806 13.602 10.839 13.572 C 10.872 13.542 10.888 13.502 10.888 13.453 C 10.888 13.4 10.872 13.36 10.839 13.333 C 10.806 13.307 10.759 13.294 10.699 13.294 L 10.56 13.294 L 10.56 13.612 L 10.703 13.612 L 10.703 13.615 Z  M 10.752 13.128 C 10.862 13.128 10.948 13.158 11.018 13.217 C 11.084 13.277 11.121 13.353 11.121 13.449 C 11.121 13.516 11.104 13.572 11.071 13.619 C 11.038 13.668 10.988 13.705 10.922 13.731 C 10.958 13.751 10.991 13.778 11.021 13.811 C 11.051 13.844 11.084 13.904 11.127 13.983 C 11.197 14.123 11.25 14.219 11.283 14.272 L 11.034 14.272 C 11.018 14.245 10.994 14.206 10.965 14.152 C 10.902 14.03 10.855 13.947 10.825 13.907 C 10.796 13.864 10.769 13.834 10.739 13.818 C 10.713 13.801 10.679 13.791 10.643 13.791 L 10.563 13.791 L 10.563 14.275 L 10.341 14.275 L 10.341 13.128 L 10.752 13.128 Z " fill="rgb(255,255,255)"/><path d=" M 12.49 13.128 L 12.49 13.3 L 12.082 13.3 L 12.082 14.275 L 11.86 14.275 L 11.86 13.3 L 11.452 13.3 L 11.452 13.128 L 12.49 13.128 Z " fill="rgb(255,255,255)"/><path d=" M 13.047 13.128 L 13.73 13.927 L 13.73 13.128 L 13.946 13.128 L 13.946 14.275 L 13.757 14.275 L 13.07 13.459 L 13.07 14.275 L 12.851 14.275 L 12.851 13.128 L 13.047 13.128 Z " fill="rgb(255,255,255)"/><path d=" M 15.153 13.128 L 15.153 13.3 L 14.632 13.3 L 14.632 13.602 L 15.13 13.602 L 15.13 13.774 L 14.632 13.774 L 14.632 14.103 L 15.163 14.103 L 15.163 14.275 L 14.41 14.275 L 14.41 13.128 L 15.153 13.128 Z " fill="rgb(255,255,255)"/><path d=" M 15.955 13.615 C 16.012 13.615 16.058 13.602 16.091 13.572 C 16.124 13.542 16.141 13.502 16.141 13.453 C 16.141 13.4 16.124 13.36 16.091 13.333 C 16.058 13.307 16.012 13.294 15.952 13.294 L 15.813 13.294 L 15.813 13.612 L 15.955 13.612 L 15.955 13.615 Z  M 16.005 13.128 C 16.114 13.128 16.201 13.158 16.27 13.217 C 16.337 13.277 16.373 13.353 16.373 13.449 C 16.373 13.516 16.357 13.572 16.323 13.619 C 16.29 13.668 16.24 13.705 16.174 13.731 C 16.211 13.751 16.244 13.778 16.27 13.811 C 16.3 13.844 16.333 13.904 16.376 13.983 C 16.446 14.123 16.499 14.219 16.532 14.272 L 16.284 14.272 C 16.267 14.245 16.244 14.206 16.214 14.152 C 16.151 14.03 16.104 13.947 16.075 13.907 C 16.045 13.864 16.015 13.834 15.988 13.818 C 15.962 13.801 15.929 13.791 15.896 13.791 L 15.816 13.791 L 15.816 14.275 L 15.591 14.275 L 15.591 13.128 L 16.005 13.128 Z " fill="rgb(255,255,255)"/><path d=" M 17.195 13.111 C 17.308 13.111 17.414 13.138 17.517 13.194 L 17.517 13.39 C 17.398 13.317 17.292 13.28 17.202 13.28 C 17.146 13.28 17.103 13.29 17.073 13.313 C 17.04 13.337 17.026 13.363 17.026 13.4 C 17.026 13.443 17.056 13.483 17.113 13.519 C 17.129 13.529 17.192 13.562 17.302 13.612 C 17.394 13.655 17.464 13.705 17.507 13.761 C 17.55 13.814 17.57 13.88 17.57 13.957 C 17.57 14.056 17.534 14.136 17.464 14.196 C 17.394 14.255 17.302 14.285 17.189 14.285 C 17.116 14.285 17.053 14.278 17 14.262 C 16.947 14.245 16.887 14.219 16.821 14.179 L 16.821 13.96 C 16.943 14.063 17.06 14.113 17.169 14.113 C 17.222 14.113 17.268 14.099 17.302 14.076 C 17.335 14.053 17.351 14.02 17.351 13.983 C 17.351 13.93 17.322 13.887 17.265 13.854 C 17.215 13.827 17.156 13.798 17.079 13.758 C 16.99 13.718 16.92 13.668 16.877 13.615 C 16.834 13.562 16.811 13.496 16.811 13.426 C 16.811 13.33 16.847 13.254 16.917 13.194 C 16.983 13.141 17.079 13.111 17.195 13.111 Z " fill="rgb(255,255,255)"/></g></g></g></g></g></g></svg>