<?xml version="1.0" encoding="UTF-8" standalone="no"?>
<svg
   viewBox="0 0 24 24"
   width="24pt"
   height="24pt"
   version="1.1"
   id="svg1"
   xml:space="preserve"
   xmlns="http://www.w3.org/2000/svg"
   xmlns:svg="http://www.w3.org/2000/svg"><defs
     id="defs1"><clipPath
       id="_clipPath_YjD7dJCzKXKynjpupR4KR8uLVS8u3Gfe"><rect
         width="24"
         height="24"
         id="rect1" /></clipPath></defs><g
     style="isolation:isolate"
     id="g1"><g
       clip-path="url(#_clipPath_YjD7dJCzKXKynjpupR4KR8uLVS8u3Gfe)"
       id="g24"><clipPath
         id="_clipPath_PFEgvvxJMxqu1q4JD74watWtXC6uzRKS"><rect
           x="2.7690001"
           y="0"
           width="18.462"
           height="24"
           fill="#ffffff"
           id="rect2" /></clipPath><g
         clip-path="url(#_clipPath_PFEgvvxJMxqu1q4JD74watWtXC6uzRKS)"
         id="g23"><g
           id="g22"><g
             id="g21"><g
               id="g20"><g
                 id="g19"><path
                   d="m 7.403,4.171 h 0.302 v 1.804 c 0,0.202 -0.01,0.428 -0.156,0.587 C 7.479,6.638 7.39,6.685 7.287,6.705 7.281,6.701 7.009,6.426 7.009,6.426 7.091,6.426 7.174,6.433 7.254,6.4 7.307,6.38 7.347,6.343 7.37,6.29 7.397,6.237 7.407,6.118 7.407,5.942 V 4.171 Z"
                   fill="#ffffff"
                   id="path2" /><path
                   d="M 9.728,4.426 C 9.486,4.426 9.29,4.503 9.134,4.652 8.978,4.805 8.902,4.997 8.902,5.229 c 0,0.229 0.08,0.418 0.232,0.567 0.156,0.149 0.352,0.226 0.584,0.226 0.235,0 0.431,-0.077 0.587,-0.233 C 10.461,5.637 10.54,5.445 10.54,5.216 10.54,4.994 10.461,4.805 10.305,4.652 10.152,4.503 9.957,4.426 9.728,4.426 Z M 9.718,4.141 c 0.325,0 0.597,0.103 0.812,0.309 0.216,0.205 0.325,0.464 0.325,0.776 0,0.311 -0.109,0.567 -0.328,0.772 C 10.308,6.201 10.033,6.303 9.701,6.303 9.383,6.303 9.118,6.201 8.909,5.998 8.697,5.796 8.59,5.541 8.59,5.232 8.59,4.917 8.697,4.659 8.909,4.45 9.121,4.241 9.393,4.141 9.718,4.141 Z"
                   fill="#ffffff"
                   id="path3" /><path
                   d="m 13.273,4.171 h 0.301 V 6.277 H 13.273 V 5.362 H 12.039 V 6.277 H 11.737 V 4.171 h 0.302 V 5.09 h 1.234 z"
                   fill="#ffffff"
                   id="path4" /><path
                   d="m 16.376,4.171 h 0.286 V 6.277 H 16.403 L 14.931,4.655 V 6.277 H 14.649 V 4.171 h 0.242 l 1.485,1.635 z"
                   fill="#ffffff"
                   id="path5" /><path
                   d="m 6.166,8.691 v 2.119 h 1.3 V 10.538 H 6.471 V 8.691 Z"
                   fill="#ffffff"
                   id="path6" /><path
                   d="M 8.481,8.691 V 10.81 H 9.847 V 10.538 H 8.786 V 9.878 H 9.791 V 9.603 H 8.786 V 8.963 H 9.821 V 8.691 Z"
                   fill="#ffffff"
                   id="path7" /><path
                   d="M 13.651,8.691 13.074,10.15 12.483,8.691 H 12.195 L 11.608,10.15 11.021,8.691 h -0.302 l 0.856,2.139 h 0.06 l 0.702,-1.734 0.697,1.734 h 0.06 l 0.858,-2.139 z"
                   fill="#ffffff"
                   id="path8" /><path
                   d="m 14.871,10.81 h 0.302 V 8.691 h -0.302 z"
                   fill="#ffffff"
                   id="path9" /><path
                   d="M 16.887,9.928 16.655,9.789 C 16.509,9.699 16.42,9.613 16.353,9.53 16.284,9.444 16.25,9.341 16.25,9.228 c 0,-0.166 0.057,-0.302 0.173,-0.408 0.116,-0.106 0.268,-0.156 0.454,-0.156 0.196,0 0.338,0.05 0.488,0.15 V 9.158 C 17.212,9.013 17.046,8.94 16.871,8.94 c -0.1,0 -0.18,0.023 -0.246,0.069 -0.063,0.047 -0.096,0.106 -0.096,0.179 0,0.063 0.017,0.116 0.063,0.173 0.046,0.056 0.129,0.119 0.235,0.182 l 0.239,0.136 c 0.259,0.156 0.378,0.352 0.378,0.59 0,0.169 -0.06,0.312 -0.172,0.415 -0.113,0.106 -0.259,0.162 -0.441,0.159 C 16.622,10.84 16.436,10.78 16.26,10.647 v -0.384 c 0.163,0.209 0.355,0.308 0.567,0.308 0.097,0 0.176,-0.023 0.239,-0.076 0.063,-0.053 0.096,-0.12 0.096,-0.199 0.007,-0.133 -0.089,-0.252 -0.275,-0.368 z"
                   fill="#ffffff"
                   id="path10" /><path
                   d="m 6.382,13.393 c 0,0.027 0.01,0.053 0.03,0.086 0.02,0.033 0.043,0.063 0.069,0.086 0.04,-0.023 0.073,-0.049 0.097,-0.076 0.023,-0.026 0.036,-0.056 0.036,-0.089 0,-0.03 -0.01,-0.057 -0.033,-0.08 -0.023,-0.02 -0.05,-0.03 -0.086,-0.03 -0.03,0 -0.057,0.01 -0.08,0.027 -0.023,0.023 -0.033,0.046 -0.033,0.076 z m -0.136,0.594 c 0,0.036 0.013,0.066 0.043,0.092 0.03,0.027 0.063,0.037 0.1,0.037 0.066,0 0.135,-0.033 0.208,-0.096 L 6.402,13.798 c -0.05,0.029 -0.086,0.059 -0.113,0.089 -0.03,0.033 -0.043,0.063 -0.043,0.1 z m 0.252,-0.859 c 0.086,0 0.162,0.023 0.219,0.073 0.059,0.049 0.086,0.112 0.086,0.189 0,0.056 -0.017,0.106 -0.053,0.156 -0.033,0.049 -0.09,0.096 -0.159,0.142 l 0.159,0.183 c 0.046,-0.047 0.09,-0.107 0.129,-0.183 h 0.209 c -0.053,0.133 -0.126,0.239 -0.209,0.325 l 0.232,0.262 H 6.826 L 6.72,14.156 C 6.66,14.206 6.607,14.239 6.551,14.259 6.498,14.278 6.432,14.292 6.359,14.292 6.266,14.292 6.19,14.265 6.123,14.209 6.06,14.152 6.027,14.083 6.027,14.003 6.027,13.937 6.05,13.874 6.097,13.821 6.143,13.768 6.206,13.718 6.292,13.672 6.253,13.622 6.223,13.575 6.206,13.536 6.186,13.496 6.18,13.453 6.18,13.41 c 0,-0.083 0.029,-0.153 0.092,-0.206 0.054,-0.05 0.133,-0.076 0.226,-0.076 z"
                   fill="#ffffff"
                   id="path11" /><path
                   d="m 8.269,13.619 c 0.059,0 0.106,-0.014 0.139,-0.04 0.033,-0.027 0.05,-0.067 0.05,-0.12 C 8.458,13.353 8.391,13.3 8.255,13.3 H 8.103 v 0.319 z m 0.056,-0.491 c 0.106,0 0.196,0.03 0.262,0.093 0.066,0.063 0.1,0.142 0.1,0.238 0,0.1 -0.034,0.179 -0.103,0.242 -0.067,0.063 -0.159,0.093 -0.269,0.093 H 8.103 v 0.481 H 7.881 v -1.147 z"
                   fill="#ffffff"
                   id="path12" /><path
                   d="M 9.247,13.827 H 9.618 L 9.426,13.373 Z m 0.292,-0.699 0.507,1.147 H 9.811 l -0.12,-0.278 h -0.51 l -0.11,0.278 H 8.839 l 0.474,-1.147 z"
                   fill="#ffffff"
                   id="path13" /><path
                   d="m 10.703,13.615 c 0.059,0 0.103,-0.013 0.136,-0.043 0.033,-0.03 0.049,-0.07 0.049,-0.119 0,-0.053 -0.016,-0.093 -0.049,-0.12 -0.033,-0.026 -0.08,-0.039 -0.14,-0.039 H 10.56 v 0.318 h 0.143 z m 0.049,-0.487 c 0.11,0 0.196,0.03 0.266,0.089 0.066,0.06 0.103,0.136 0.103,0.232 0,0.067 -0.017,0.123 -0.05,0.17 -0.033,0.049 -0.083,0.086 -0.149,0.112 0.036,0.02 0.069,0.047 0.099,0.08 0.03,0.033 0.063,0.093 0.106,0.172 0.07,0.14 0.123,0.236 0.156,0.289 h -0.249 c -0.016,-0.027 -0.04,-0.066 -0.069,-0.12 -0.063,-0.122 -0.11,-0.205 -0.14,-0.245 -0.029,-0.043 -0.056,-0.073 -0.086,-0.089 -0.026,-0.017 -0.06,-0.027 -0.096,-0.027 h -0.08 v 0.484 h -0.222 v -1.147 z"
                   fill="#ffffff"
                   id="path14" /><path
                   d="M 12.49,13.128 V 13.3 h -0.408 v 0.975 H 11.86 V 13.3 h -0.408 v -0.172 z"
                   fill="#ffffff"
                   id="path15" /><path
                   d="m 13.047,13.128 0.683,0.799 v -0.799 h 0.216 v 1.147 H 13.757 L 13.07,13.459 v 0.816 h -0.219 v -1.147 z"
                   fill="#ffffff"
                   id="path16" /><path
                   d="M 15.153,13.128 V 13.3 h -0.521 v 0.302 h 0.498 v 0.172 h -0.498 v 0.329 h 0.531 v 0.172 H 14.41 v -1.147 z"
                   fill="#ffffff"
                   id="path17" /><path
                   d="m 15.955,13.615 c 0.057,0 0.103,-0.013 0.136,-0.043 0.033,-0.03 0.05,-0.07 0.05,-0.119 0,-0.053 -0.017,-0.093 -0.05,-0.12 -0.033,-0.026 -0.079,-0.039 -0.139,-0.039 h -0.139 v 0.318 h 0.142 z m 0.05,-0.487 c 0.109,0 0.196,0.03 0.265,0.089 0.067,0.06 0.103,0.136 0.103,0.232 0,0.067 -0.016,0.123 -0.05,0.17 -0.033,0.049 -0.083,0.086 -0.149,0.112 0.037,0.02 0.07,0.047 0.096,0.08 0.03,0.033 0.063,0.093 0.106,0.172 0.07,0.14 0.123,0.236 0.156,0.289 h -0.248 c -0.017,-0.027 -0.04,-0.066 -0.07,-0.12 -0.063,-0.122 -0.11,-0.205 -0.139,-0.245 -0.03,-0.043 -0.06,-0.073 -0.087,-0.089 -0.026,-0.017 -0.059,-0.027 -0.092,-0.027 h -0.08 v 0.484 h -0.225 v -1.147 z"
                   fill="#ffffff"
                   id="path18" /><path
                   d="m 17.195,13.111 c 0.113,0 0.219,0.027 0.322,0.083 v 0.196 c -0.119,-0.073 -0.225,-0.11 -0.315,-0.11 -0.056,0 -0.099,0.01 -0.129,0.033 -0.033,0.024 -0.047,0.05 -0.047,0.087 0,0.043 0.03,0.083 0.087,0.119 0.016,0.01 0.079,0.043 0.189,0.093 0.092,0.043 0.162,0.093 0.205,0.149 0.043,0.053 0.063,0.119 0.063,0.196 0,0.099 -0.036,0.179 -0.106,0.239 -0.07,0.059 -0.162,0.089 -0.275,0.089 -0.073,0 -0.136,-0.007 -0.189,-0.023 -0.053,-0.017 -0.113,-0.043 -0.179,-0.083 V 13.96 c 0.122,0.103 0.239,0.153 0.348,0.153 0.053,0 0.099,-0.014 0.133,-0.037 0.033,-0.023 0.049,-0.056 0.049,-0.093 0,-0.053 -0.029,-0.096 -0.086,-0.129 -0.05,-0.027 -0.109,-0.056 -0.186,-0.096 -0.089,-0.04 -0.159,-0.09 -0.202,-0.143 -0.043,-0.053 -0.066,-0.119 -0.066,-0.189 0,-0.096 0.036,-0.172 0.106,-0.232 0.066,-0.053 0.162,-0.083 0.278,-0.083 z"
                   fill="#ffffff"
                   id="path19" /></g></g></g></g></g></g></g></svg>
