<svg xmlns="http://www.w3.org/2000/svg" width="24" height="24"><path fill="#355776" fill-rule="evenodd" d="M6.1 8.7c0 .87-.04 1.4-.1 1.4-.05 0-.1-.22-.1-.48 0-.44-.02-.48-.22-.47s-.23.07-.23.58c0 .44.05.6.2.71.26.2.45.2.73 0 .21-.14.22-.21.22-1.65V7.3h-.5zm2.38-1.32c-.16.03-.18.19-.18 1.58v1.55l.28-.03c.24-.03.28-.08.33-.48q.05-.4.08-.2c.03.51.13.7.36.7.2 0 .23-.07.32-.72l.1-.73.02.72c.01.7.02.73.26.73h.25V7.3h-.35c-.38 0-.38.01-.54 1.22l-.07.53-.07-.4-.12-.86c-.06-.48-.14-.53-.68-.41m7.67.05c-.02.07-.03.8-.02 1.62l.03 1.5.42.03q.92.05.93-.96 0-.49-.15-.62c-.13-.1-.13-.15 0-.33.22-.31.2-.93-.05-1.17-.23-.23-1.07-.29-1.16-.07M3.7 8.75a5 5 0 0 1-.1 1.35c-.05 0-.1-.21-.12-.47-.03-.4-.06-.48-.23-.48s-.2.08-.23.52c-.04.64.22 1 .66.88.5-.12.52-.18.52-1.71V7.4h-.5zm14.37-1.08c-.04.03-.07.14-.07.24s-.1.23-.2.3c-.2.1-.2.18-.18 1.17l.03 1.07.4.03c.29.03.43-.01.52-.14.12-.16.13-.16.13 0q0 .14.08.17l.44.04c.53.06.6-.07.56-1.26l-.03-1.04-.27-.03c-.24-.03-.28-.08-.28-.33 0-.26-.03-.3-.22-.27s-.24.11-.28.43c-.05.38-.06.4-.22.23-.14-.14-.14-.19-.03-.35.08-.1.15-.21.15-.25 0-.1-.44-.1-.53-.01m2.3 0c-.04.03-.07.14-.07.24s-.1.23-.2.3c-.2.1-.2.18-.18 1.17l.03 1.07.38.03c.5.04.69-.12.65-.57-.02-.28-.07-.36-.23-.36q-.21-.02-.26.35l-.06.35-.02-.42c0-.41 0-.43.29-.43.3 0 .3-.01.3-.5 0-.38-.04-.53-.2-.62-.18-.12-.18-.12.01-.4l.2-.28h-.29c-.16 0-.32.03-.35.07m-15.95.65q-.12.14-.12 1.1c0 .95 0 .98.24 1.04.13.03.35.04.47.02.23-.03.24-.06.27-1.07.02-.77 0-1.07-.1-1.13-.2-.12-.62-.1-.76.04m2.4 0a4.4 4.4 0 0 0 0 2.06c.2.2.76.15.88-.07.17-.32.13-1.77-.06-1.95-.18-.19-.65-.21-.82-.04m3.7 0c-.07.07-.12.25-.12.4 0 .22.05.28.22.29h.23l-.22.16c-.19.13-.23.25-.23.68 0 .62.1.73.65.71l.4-.01.03-1.04q.03-1.02-.09-1.17c-.14-.17-.7-.18-.87-.02M11.6 9.4c0 1.19 0 1.2.23 1.16.2-.03.22-.09.28-1.02l.05-.99.02 1.03c.02 1.01.03 1.03.25 1 .2-.03.22-.09.28-1.03l.05-1 .02 1.03c.02.95.03 1.02.22 1.02s.2-.07.2-1.2V8.23l-.8-.01h-.8zm1.8-1.02c-.18.34-.12.61.13.61.21 0 .21.01.03.15-.22.17-.33.93-.17 1.23.08.16.2.2.53.19l.43-.02.03-1.1c.03-1.19 0-1.25-.55-1.25q-.33 0-.43.2m1.12.97c.03 1.1.04 1.18.23 1.18.18 0 .2-.08.25-1l.06-1 .04 1c.05.92.07 1 .25 1 .19 0 .2-.07.2-1.15V8.25l-.53-.03-.53-.03z"/></svg>