<?xml version="1.0" encoding="UTF-8" standalone="no"?>
<svg
   viewBox="0 0 24 24"
   width="24pt"
   height="24pt"
   version="1.1"
   id="svg1"
   sodipodi:docname="jollibee_white.svg"
   inkscape:version="1.3 (0e150ed6c4, 2023-07-21)"
   xmlns:inkscape="http://www.inkscape.org/namespaces/inkscape"
   xmlns:sodipodi="http://sodipodi.sourceforge.net/DTD/sodipodi-0.dtd"
   xmlns="http://www.w3.org/2000/svg"
   xmlns:svg="http://www.w3.org/2000/svg">
  <defs
     id="defs1" />
  <sodipodi:namedview
     id="namedview1"
     pagecolor="#ffffff"
     bordercolor="#000000"
     borderopacity="0.25"
     inkscape:showpageshadow="2"
     inkscape:pageopacity="0.0"
     inkscape:pagecheckerboard="0"
     inkscape:deskcolor="#d1d1d1"
     inkscape:document-units="pt"
     inkscape:zoom="23.09375"
     inkscape:cx="16"
     inkscape:cy="16"
     inkscape:window-width="1649"
     inkscape:window-height="1266"
     inkscape:window-x="170"
     inkscape:window-y="129"
     inkscape:window-maximized="0"
     inkscape:current-layer="svg1" />
  <g
     id="g3">
    <path
       style="fill:#ffffff;stroke-width:0.83296"
       id="path2"
       sodipodi:type="arc"
       sodipodi:cx="12.032475"
       sodipodi:cy="9.9539919"
       sodipodi:rx="8.1353178"
       sodipodi:ry="8.0054121"
       sodipodi:start="0"
       sodipodi:end="6.2753717"
       sodipodi:open="true"
       sodipodi:arc-type="arc"
       d="M 20.167793,9.9539919 A 8.1353178,8.0054121 0 0 1 12.048367,17.959389 8.1353178,8.0054121 0 0 1 3.8972198,9.9852674 8.1353178,8.0054121 0 0 1 11.984801,1.9487172 8.1353178,8.0054121 0 0 1 20.167545,9.8914414" />
    <g
       id="g2"
       transform="matrix(0.91850916,0,0,0.91212832,6.7913853,10.187102)">
      <path
         d="m 8.1808669,-8.0669277 c -0.206565,0.023458 -0.479524,0.1104386 -0.723345,0.23049 -0.599444,0.2951488 -1.052533,0.7671764 -1.397324,1.4557533 -0.09443,0.18856 -0.144011,0.3078223 -0.222981,0.5363276 -0.06285,0.1818885 -0.100192,0.2437734 -0.147096,0.2437734 -0.02131,0 -0.02279,-0.00654 -0.01721,-0.076017 0.0033,-0.04181 0.02366,-0.1361204 0.04512,-0.2095788 0.02147,-0.073458 0.03656,-0.1360367 0.03354,-0.1390616 -0.0088,-0.00878 -0.466958,0.1079996 -0.637452,0.1624717 -0.790587,0.2526089 -1.2704696,0.6371775 -1.3822115,1.1076628 -0.027906,0.1174689 -0.032808,0.2997997 -0.011275,0.4185598 0.083956,0.4629888 0.4722548,0.7757968 1.0280715,0.8282124 0.216716,0.020433 0.436566,-0.013749 0.591051,-0.091895 0.03203,-0.016212 0.05355,-0.033465 0.04782,-0.038355 -0.0057,-0.00488 -0.07499,-0.065173 -0.153899,-0.1339684 -0.170044,-0.1482678 -0.326275,-0.2793188 -0.444497,-0.3728635 -0.07548,-0.059721 -0.112591,-0.1069834 -0.09657,-0.1229926 0.0092,-0.00922 0.132485,0.038439 0.242733,0.093832 0.223292,0.1121962 0.422326,0.2652226 0.724505,0.5570237 0.09631,0.092995 0.1797,0.1690595 0.18532,0.1690475 0.0056,-1.19e-5 0.05977,-0.056122 0.120314,-0.1246784 0.260488,-0.2949814 0.635743,-0.5789631 1.060209,-0.8023274 0.08298,-0.043664 0.150862,-0.081816 0.150862,-0.084793 0,-0.00297 -0.01084,-0.026662 -0.0241,-0.052631 -0.0535,-0.104891 -0.132701,-0.3150438 -0.160523,-0.4259607 -0.04199,-0.1673976 -0.05568,-0.3284346 -0.04254,-0.5002799 0.026,-0.3401038 0.115114,-0.5495511 0.265809,-0.6248149 0.14908,-0.074451 0.300086,-0.029316 0.367447,0.1098409 0.05226,0.1079398 0.06432,0.2268793 0.05289,0.520952 -0.01817,0.4671376 -0.0092,0.6877878 0.03048,0.75204 0.0072,0.011621 0.05305,0.00263 0.19932,-0.039049 0.32107,-0.091488 0.687812,-0.1627587 0.838615,-0.16295 0.02794,-3.58e-5 0.05081,-0.00415 0.05081,-0.00915 0,-0.005 -0.01922,-0.07897 -0.04273,-0.1643966 -0.07385,-0.268403 -0.158646,-0.6266681 -0.19241,-0.8128966 -0.02779,-0.1533134 -0.0326,-0.2128788 -0.03319,-0.4104297 -6.34e-4,-0.2153895 8.97e-4,-0.2322477 0.02252,-0.2480895 0.01277,-0.00935 0.02636,-0.017002 0.03022,-0.017002 0.0039,0 0.02237,0.082055 0.04113,0.1823308 0.02805,0.1499178 0.09144,0.4486175 0.120578,0.568107 0.0066,0.026889 0.0071,0.026758 0.07507,-0.016631 0.340415,-0.2173861 0.591254,-0.5396394 0.687513,-0.8832583 0.0296,-0.1056682 0.0411,-0.3479112 0.02145,-0.4518338 -0.08956,-0.4735819 -0.455073,-0.8468639 -0.897545,-0.9166637 -0.07401,-0.011669 -0.317352,-0.013977 -0.406509,-0.00386 m 2.1580801,4.3796821 c -0.109554,0.016918 -0.264708,0.068341 -0.3685951,0.1221796 -0.174464,0.090388 -0.348234,0.2842209 -0.450459,0.502444 -0.109219,0.2331444 -0.143234,0.4061494 -0.143342,0.7290483 -4.8e-5,0.1334662 -0.0045,0.2122212 -0.01203,0.2122212 -0.0066,0 -0.01196,-0.00464 -0.01196,-0.010318 0,-0.02463 -0.197718,-0.3041039 -0.285954,-0.4042125 -0.218797,-0.248209 -0.533877,-0.4630127 -0.819987,-0.5590083 -0.46379,-0.1556209 -1.01731,-0.019417 -1.381219,0.3398646 -0.44741,0.4417308 -0.578425,1.1815516 -0.351247,1.9834605 0.05164,0.1822831 0.104102,0.3179611 0.203398,0.5260095 0.04201,0.088045 0.0764,0.1637032 0.0764,0.1681031 0,0.00441 -0.08742,-0.00511 -0.194287,-0.021126 -0.154187,-0.023135 -0.243642,-0.029293 -0.43341,-0.029818 -0.223065,-6.218e-4 -0.247145,0.00149 -0.358683,0.03148 -0.31355,0.08429 -0.57949,0.2924581 -0.705304,0.5521091 -0.06997,0.144394 -0.09338,0.253016 -0.09278,0.430421 0.0022,0.633495 0.382966,1.16333 1.091522,1.518678 0.565393,0.283563 1.389636,0.45004 2.898845,0.585491 l 0.07174,0.0064 -0.03587,-0.02645 c -0.05044,-0.03718 -0.149487,-0.135762 -0.149272,-0.148555 1.07e-4,-0.0059 0.0053,-0.01875 0.01166,-0.02861 0.01346,-0.02104 0.04961,-0.009 0.406628,0.136025 0.340952,0.138463 0.564341,0.186826 0.8623711,0.186742 0.708507,-2.15e-4 1.27793,-0.392352 1.510261,-1.040075 0.04815,-0.134231 0.08979,-0.171175 0.09102,-0.08076 3.71e-4,0.02794 0.0044,0.07082 0.009,0.09527 l 0.0083,0.04445 0.131517,-0.108155 c 0.746014,-0.613504 1.263547,-1.313571 1.444156,-1.953511 0.06576,-0.233024 0.07413,-0.2957219 0.0742,-0.5559588 1.2e-4,-0.2134287 -0.0035,-0.2612173 -0.02786,-0.3698626 -0.07917,-0.3536859 -0.215772,-0.5566889 -0.451918,-0.6715513 -0.13392,-0.065137 -0.241872,-0.086383 -0.398928,-0.078528 -0.133298,0.00666 -0.218593,0.025359 -0.343224,0.075216 -0.0423,0.016918 -0.07936,0.028312 -0.08235,0.025323 -0.003,-0.003 -0.01077,-0.080178 -0.01729,-0.1715344 -0.04139,-0.5801498 -0.229926,-1.0569001 -0.575422,-1.4549432 -0.318666,-0.3671246 -0.643908,-0.5513087 -0.996363,-0.5642093 -0.07233,-0.00265 -0.163799,1.674e-4 -0.203254,0.00625 m 0.137495,0.5196369 c -0.281745,0.06369 -0.4973501,0.2998595 -0.5622241,0.6158359 -0.04638,0.2259587 -0.0281,0.512499 0.05408,0.8471389 0.09293,0.3785188 0.2767371,0.7791564 0.4633481,1.0100171 l 0.02737,0.03386 0.208981,-0.1085855 c 0.114935,-0.059721 0.441743,-0.223974 0.726215,-0.3650084 0.2987,-0.1480885 0.52051,-0.2649596 0.524993,-0.2766168 0.01102,-0.028731 -0.0112,-0.058155 -0.04721,-0.062471 -0.02879,-0.00347 -0.03127,-0.0089 -0.03805,-0.083693 -0.03336,-0.3682453 -0.100866,-0.6152348 -0.244077,-0.893095 -0.197025,-0.3822611 -0.431114,-0.6042025 -0.736736,-0.6984885 -0.109542,-0.033788 -0.274238,-0.04205 -0.37669,-0.018891 m 0.006,0.1415127 c -0.145973,0.037375 -0.292423,0.1522731 -0.357321,0.2803351 -0.106362,0.2099017 -0.1316011,0.5270736 -0.06587,0.8276624 l 0.01437,0.065759 0.01632,-0.070948 c 0.05722,-0.2487232 0.235846,-0.4183208 0.477252,-0.4531011 0.149595,-0.021545 0.337318,0.027069 0.438109,0.1134516 l 0.03265,0.028001 -0.09582,0.2198014 c -0.0527,0.1208883 -0.0943,0.221236 -0.09244,0.2229816 0.0019,0.00175 0.08409,-0.049988 0.182725,-0.1149581 0.09864,-0.064982 0.182833,-0.118246 0.187101,-0.1183656 0.0043,-1.315e-4 0.03251,0.047693 0.06276,0.106266 0.08634,0.1671705 0.134901,0.3349387 0.15708,0.5426405 0.0086,0.080871 -0.0011,0.080572 0.163966,0.00507 l 0.104616,-0.047848 v -0.057664 c 0,-0.093628 -0.03483,-0.3158568 -0.07223,-0.4609323 -0.08554,-0.331652 -0.233075,-0.6110904 -0.437273,-0.8281657 -0.104126,-0.1106898 -0.217984,-0.1907599 -0.335083,-0.2356432 -0.09816,-0.037638 -0.282917,-0.049438 -0.380933,-0.024343 m -2.8944221,0.4724341 c -0.164193,0.057162 -0.34589,0.1860253 -0.454081,0.32205 -0.07646,0.096139 -0.167027,0.2865285 -0.20329,0.4273716 -0.09643,0.3745852 -0.02223,0.8804725 0.199882,1.3627226 0.03937,0.085486 0.07413,0.1612403 0.07724,0.1683303 0.0031,0.0071 -0.01608,0.022717 -0.04265,0.034697 -0.02658,0.011992 -0.04833,0.023482 -0.04833,0.02555 0,0.00207 0.009,0.022633 0.02001,0.04572 0.01544,0.032377 0.02567,0.040687 0.04484,0.036383 0.05513,-0.012363 0.538491,-0.077057 0.70632,-0.094537 0.301772,-0.031445 0.523749,-0.042396 0.862442,-0.0426 l 0.324406,-1.793e-4 0.0071,-0.074726 c 0.041708,-0.4402124 -0.00613,-0.9150138 -0.129277,-1.283059 -0.109303,-0.3266293 -0.312533,-0.6087698 -0.563456,-0.7822411 -0.186468,-0.128899 -0.346345,-0.179557 -0.565895,-0.179306 -0.120829,1.435e-4 -0.150946,0.00447 -0.235261,0.033824 m 0.06082,0.1437723 c -0.222647,0.063977 -0.425482,0.2620543 -0.527839,0.5154523 -0.06367,0.1576414 -0.07965,0.2451722 -0.08082,0.4426275 -0.0011,0.1799635 0.0096,0.298903 0.0267,0.298903 0.0046,0 0.01498,-0.02824 0.02303,-0.06277 0.05563,-0.2385844 0.261971,-0.458864 0.485622,-0.5184174 0.146379,-0.038977 0.330635,-0.010569 0.479823,0.073972 0.129198,0.073207 0.124248,0.062578 0.07899,0.169478 -0.104293,0.2463678 -0.169669,0.4124503 -0.164408,0.417711 0.0032,0.00319 0.07213,-0.03661 0.153217,-0.088451 0.231973,-0.1483396 0.262162,-0.1643249 0.274262,-0.1453147 0.02529,0.039706 0.08584,0.1993564 0.107437,0.2832166 0.0223,0.086622 0.04872,0.3383343 0.04014,0.3823567 -0.0022,0.011143 -0.0069,0.070039 -0.01053,0.1308597 l -0.0066,0.1105942 h 0.210643 0.210631 l -0.0064,-0.3018921 c -0.00846,-0.3944439 -0.042438,-0.6149865 -0.136831,-0.8877415 -0.14681,-0.424227 -0.441492,-0.7380991 -0.773992,-0.8244103 -0.096019,-0.024929 -0.289768,-0.022992 -0.383074,0.00383 m 4.4049811,2.0151801 c -0.122657,0.043676 -0.229103,0.057939 -0.396692,0.053181 -0.122155,-0.00348 -0.15244,-0.00114 -0.15244,0.011801 0,0.029603 0.07821,0.094848 0.132115,0.1102115 0.02926,0.00835 0.05766,0.018998 0.0631,0.023661 C 11.728904,-0.170998 11.58501,0.03528 11.42218,0.202248 11.054326,0.579439 10.505946,0.834141 9.8592869,0.92814 9.6331609,0.96101 9.1861699,0.9724 8.9081539,0.95237 8.7004879,0.93741 8.3544299,0.89151 8.2201269,0.86112 8.1474969,0.84468 7.9957709,0.79953 7.9759119,0.78845 c -0.0042,-0.0024 0.0051,-0.03526 0.02065,-0.07312 0.01557,-0.03787 0.02843,-0.08632 0.02859,-0.107701 5.02e-4,-0.06756 -0.03992,-0.051 -0.148256,0.06074 -0.07808,0.08055 -0.115998,0.109183 -0.198185,0.149691 -0.05589,0.02755 -0.150049,0.0616 -0.209232,0.07566 -0.104353,0.02481 -0.151221,0.04792 -0.13337,0.06576 0.03233,0.03233 0.309938,0.02348 0.432835,-0.0138 0.03257,-0.0099 0.08007,-0.01802 0.105561,-0.01809 0.100826,-2.87e-4 0.531581,0.147419 0.937718,0.321524 0.228302,0.09787 0.336792,0.153588 0.603414,0.30983 0.333312,0.195352 0.495916,0.256973 0.7195911,0.272696 0.195949,0.01377 0.400386,-0.03226 0.540333,-0.121654 0.139468,-0.08909 0.284197,-0.266657 0.390881,-0.479572 0.0236,-0.04709 0.07577,-0.16277 0.115927,-0.257056 0.1404,-0.329631 0.339482,-0.685361 0.537547,-0.960543 0.116632,-0.1620291 0.156338,-0.2012213 0.274955,-0.271332 0.109063,-0.064467 0.203254,-0.1357976 0.203254,-0.1539111 0,-0.019106 -0.06242,-0.011454 -0.144323,0.017719 m -1.667854,0.1873046 c 0.0049,0.015902 0.01185,0.059948 0.01533,0.097873 0.0056,0.060446 0.0025,0.074832 -0.02517,0.1165605 -0.126651,0.191382 -0.5063781,0.231387 -0.7834731,0.08253 -0.03564,-0.01914 -0.06703,-0.03258 -0.06974,-0.02987 -0.0027,0.0027 0.0054,0.02825 0.01798,0.05674 0.08699,0.196654 0.4617101,0.291478 0.7405381,0.187376 0.07699,-0.02873 0.1734,-0.117361 0.206004,-0.189373 0.05173,-0.114229 0.01399,-0.263609 -0.08393,-0.3321893 -0.02556,-0.01791 -0.02621,-0.017528 -0.01754,0.010342 m 0.562762,1.9985133 c -0.110068,0.109518 -0.271272,0.222002 -0.372493,0.259926 -0.148794,0.05574 -0.207175,0.06586 -0.374764,0.06495 -0.183969,-10e-4 -0.2961771,-0.02519 -0.5145201,-0.110905 -0.06814,-0.02676 -0.126866,-0.04564 -0.130489,-0.04197 -0.01606,0.01626 0.153672,0.156398 0.240952,0.198938 0.150838,0.07353 0.2711051,0.09628 0.4698151,0.08889 0.101615,-0.0038 0.195579,-0.01411 0.239123,-0.02629 0.15904,-0.04449 0.333815,-0.157462 0.423557,-0.273795 0.05293,-0.0686 0.124475,-0.212568 0.118402,-0.238249 -0.0024,-0.01021 -0.04099,0.02019 -0.09958,0.0785"
         stroke="none"
         fill="#ffffff"
         fill-rule="evenodd"
         id="path1-9"
         style="stroke-width:0.0119561" />
      <path
         d="m 8.1808669,-8.2474054 c -0.256243,0.031887 -0.512523,0.1106061 -0.771169,0.2368986 -0.70424,0.343846 -1.278468,0.9696055 -1.536708,1.674622 -0.02168,0.059183 -0.04258,0.1112756 -0.04644,0.1157711 -0.0039,0.0045 -0.07696,0.022262 -0.162448,0.039479 -0.702565,0.1415724 -1.249773,0.3715603 -1.6395665,0.6891508 -0.2364083,0.192613 -0.3989757,0.4405949 -0.4674364,0.713039 -0.014622,0.058191 -0.02017,0.1303337 -0.019979,0.2598902 2.989e-4,0.2013291 0.020971,0.3072723 0.092014,0.4715972 0.1287076,0.2977074 0.4001594,0.526153 0.7584959,0.6383492 0.174583,0.054663 0.308528,0.071474 0.515058,0.064611 0.214421,-0.00711 0.341383,-0.034745 0.524527,-0.114181 l 0.107282,-0.046533 0.09621,0.1096018 0.09621,0.1095898 -0.08329,0.1307401 c -0.09967,0.1564698 -0.266143,0.4908825 -0.326964,0.6568095 -0.202501,0.5524206 -0.268223,1.0912351 -0.196152,1.6080981 0.03563,0.2555262 0.113165,0.567019 0.185344,0.744675 0.03072,0.075598 0.03614,0.104209 0.01973,0.104209 -0.01805,0 -0.19137,0.167243 -0.251067,0.242303 -0.176951,0.222432 -0.253541,0.471944 -0.237377,0.773262 0.01721,0.320364 0.13624,0.648106 0.328399,0.904146 0.330646,0.440547 0.904445,0.772485 1.682214,0.973132 0.508434,0.131159 1.034886,0.205036 2.265685,0.317926 0.226054,0.02074 0.378985,0.04081 0.454332,0.05963 0.4322381,0.10794 0.8112351,0.09756 1.2015901,-0.03292 0.377395,-0.126126 0.637154,-0.321883 0.845358,-0.637023 0.08666,-0.131182 0.110474,-0.157139 0.224715,-0.244933 0.250756,-0.192708 0.652996,-0.570366 0.866113,-0.813183 0.450017,-0.51275 0.729742,-0.999329 0.851193,-1.480658 l 0.04024,-0.1595064 v -0.3269284 c 0,-0.3514142 -0.0071,-0.4134187 -0.06725,-0.5898193 -0.04066,-0.1191786 -0.12411,-0.2807297 -0.179981,-0.3484252 -0.140126,-0.1697769 -0.375159,-0.2955673 -0.594195,-0.3180089 l -0.07571,-0.00775 -0.0077,-0.1342313 c -0.01445,-0.253563 -0.08309,-0.571536 -0.181071,-0.8389227 -0.06927,-0.1890621 -0.221942,-0.4875586 -0.338502,-0.6618908 -0.32144,-0.4807556 -0.747114,-0.8611754 -1.255249,-1.1217949 -0.353602,-0.1813624 -0.705088,-0.2930206 -1.1543761,-0.3667062 -0.04556,-0.00747 -0.04595,-0.00799 -0.03828,-0.051615 0.0272,-0.154772 0.09963,-0.2887762 0.2967871,-0.5491685 0.205262,-0.2710692 0.285667,-0.4218837 0.3028,-0.5679516 0.02072,-0.1765914 -0.111051,-0.3051675 -0.285861,-0.2789597 -0.1143851,0.017157 -0.2792831,0.1327249 -0.4108011,0.2879153 -0.215999,0.2548686 -0.350924,0.6092241 -0.370472,0.9729891 l -0.008,0.1480048 -0.07878,-0.00744 c -0.04333,-0.0041 -0.106278,-0.00748 -0.139886,-0.00753 l -0.0611,-8.37e-5 -0.02033,-0.068748 c -0.02655,-0.089898 -0.174308,-0.6054938 -0.174308,-0.6083034 0,-0.0012 0.02384,-0.016141 0.05298,-0.033226 0.02914,-0.017073 0.107198,-0.07139 0.173471,-0.1207209 0.64581,-0.4806241 0.85937,-1.1631751 0.557382,-1.7814141 -0.177835,-0.3640519 -0.462797,-0.6001374 -0.843611,-0.698883 -0.07822,-0.020278 -0.144323,-0.02726 -0.286947,-0.030273 -0.101926,-0.00215 -0.204151,-0.00158 -0.227167,0.00129 m 0.03587,0.1673259 c -0.420186,0.05281 -0.857983,0.2398159 -1.234972,0.527528 -0.232212,0.1772136 -0.498211,0.4645072 -0.67674,0.7309134 -0.200743,0.2995487 -0.336529,0.5777317 -0.473438,0.9699761 -0.06715,0.1923621 -0.08357,0.2226708 -0.129366,0.2386322 l -0.03485,0.012147 0.0084,-0.067158 c 0.0046,-0.036932 0.0267,-0.1323662 0.04907,-0.2120776 0.02236,-0.0797 0.04072,-0.1483635 0.04078,-0.1525721 3.34e-4,-0.020122 -0.500699,0.109267 -0.741148,0.1913936 -0.720081,0.2459254 -1.1668339,0.6069166 -1.2918112,1.0438171 -0.032521,0.1137027 -0.043437,0.3145416 -0.023757,0.4370918 0.056038,0.3488318 0.2880588,0.6282463 0.6380742,0.768396 0.177286,0.070995 0.278626,0.088499 0.516086,0.089133 0.189074,5.022e-4 0.226533,-0.00271 0.308456,-0.026447 0.107701,-0.031217 0.243355,-0.096211 0.228051,-0.109255 -0.0057,-0.00489 -0.075,-0.065029 -0.153911,-0.1336336 -0.21894,-0.1903534 -0.288262,-0.2489145 -0.421453,-0.3560413 -0.166322,-0.133777 -0.166083,-0.1575099 9.44e-4,-0.090424 0.247815,0.099535 0.485849,0.2741777 0.833808,0.6117588 0.09659,0.0937 0.180693,0.1703747 0.18691,0.1703747 0.0062,0 0.05007,-0.04517 0.09747,-0.1003956 0.268702,-0.3129992 0.685947,-0.6301234 1.103933,-0.8390326 0.0744,-0.037196 0.137483,-0.069656 0.140185,-0.072143 0.0027,-0.0025 -0.0224,-0.062411 -0.05576,-0.1331433 -0.149966,-0.317985 -0.202644,-0.5971963 -0.170853,-0.9055565 0.0338,-0.3278488 0.120984,-0.5088645 0.279857,-0.5810077 0.06038,-0.027415 0.14865,-0.029316 0.208096,-0.00447 0.164289,0.06864 0.207786,0.2614804 0.175636,0.7786662 -0.01313,0.2111451 -0.0146,0.3150677 -0.0057,0.4017018 0.0102,0.099331 0.03231,0.2206382 0.04258,0.2335986 0.0016,0.00203 0.09883,-0.023553 0.216,-0.056887 0.319898,-0.090974 0.661747,-0.1560632 0.819687,-0.1560632 0.03102,0 0.05906,-0.0043 0.06232,-0.00956 0.0033,-0.00527 -0.02866,-0.138428 -0.07091,-0.295914 -0.158979,-0.5924775 -0.227308,-1.0228619 -0.198051,-1.2472902 0.0108,-0.082772 0.02749,-0.1229209 0.04417,-0.1062421 0.004,0.00402 0.02042,0.078504 0.03648,0.1655444 0.01607,0.087041 0.05054,0.2541991 0.07662,0.3714647 0.02608,0.1172537 0.04741,0.2159156 0.04741,0.2192394 0,0.017229 0.03864,3.945e-4 0.113714,-0.049534 0.373151,-0.248233 0.627314,-0.6136359 0.68786,-0.9889505 0.02982,-0.1848775 -0.0046,-0.4190022 -0.08997,-0.6120457 -0.07119,-0.1609653 -0.233372,-0.3588749 -0.382811,-0.4671376 -0.08018,-0.058083 -0.257021,-0.1408311 -0.352706,-0.1650423 -0.07661,-0.019381 -0.3671,-0.034314 -0.454332,-0.02335 m 1.730804,1.93566 c -0.1866,0.068533 -0.412678,0.3718831 -0.534523,0.7171759 -0.06313,0.1789114 -0.08472,0.3412874 -0.09132,0.686915 -0.0032,0.1673617 -0.0079,0.3063755 -0.01044,0.3089102 -0.0025,0.00253 -0.01403,-0.00977 -0.02555,-0.027356 -0.02498,-0.038116 -0.03906,-0.1154602 -0.04003,-0.2198372 l -7.17e-4,-0.076376 -0.266024,0.00671 c -0.362282,0.00912 -0.681307,0.06051 -1.045742,0.1684498 -0.188045,0.055704 -0.206661,0.063391 -0.206661,0.085379 0,0.010306 0.03497,0.085737 0.07772,0.1676367 0.106158,0.2034334 0.105524,0.2480178 -0.0019,0.134064 -0.12261,-0.1300467 -0.232379,-0.3282075 -0.281256,-0.5077286 -0.02775,-0.1019379 -0.03025,-0.1937728 -0.02077,-0.7626092 0.0046,-0.2774776 0.0039,-0.2892065 -0.02275,-0.3554195 -0.04359,-0.1084301 -0.104891,-0.1396953 -0.196774,-0.1003836 -0.230717,0.09871 -0.271643,0.7251745 -0.07922,1.2123266 0.07395,0.187209 0.189026,0.3924118 0.319993,0.5706059 0.05098,0.069357 0.09174,0.1471081 0.08215,0.1566969 -0.01639,0.016404 -0.128098,-0.086323 -0.222265,-0.2043899 -0.06037,-0.075694 -0.115926,-0.1376269 -0.123459,-0.1376269 -0.0229,0 -0.282451,0.1413811 -0.421883,0.2297966 -0.447087,0.2835035 -0.852137,0.6918887 -1.102187,1.1112736 -0.207809,0.3485209 -0.351163,0.7167574 -0.427467,1.0979783 -0.04641,0.231877 -0.05874,0.3921248 -0.05138,0.6678449 0.0093,0.3496926 0.05167,0.5951279 0.159794,0.9264319 0.04444,0.1361803 0.05754,0.1643967 0.07391,0.159136 0.01094,-0.0035 0.06832,-0.025084 0.1275,-0.047944 0.274919,-0.1062063 0.593095,-0.1192862 0.90845,-0.037339 0.13716,0.035629 0.238943,0.079484 0.249727,0.1075931 0.0045,0.011609 0.0066,0.022334 0.0048,0.023829 -0.0018,0.00148 -0.08936,-0.00943 -0.194574,-0.024247 -0.267099,-0.037638 -0.453615,-0.046928 -0.597351,-0.029771 -0.40126,0.04792 -0.72698,0.2611935 -0.885674,0.5799315 -0.07384,0.148316 -0.101172,0.264362 -0.101113,0.429344 1.8e-4,0.506832 0.236911,0.948886 0.690383,1.289229 0.458971,0.34448 1.014931,0.533817 2.023609,0.689175 0.359819,0.05542 1.357964,0.165855 1.372024,0.151794 0.002,-0.002 -0.01674,-0.01859 -0.04158,-0.03693 -0.07623,-0.0563 -0.146785,-0.12927 -0.146785,-0.151807 0,-0.03341 0.03673,-0.0266 0.183048,0.03387 0.392352,0.162173 0.478041,0.192493 0.65388,0.231399 0.3412521,0.07551 0.6970181,0.05807 1.0007151,-0.04907 0.439101,-0.154904 0.777782,-0.487427 0.936165,-0.919127 0.06746,-0.183861 0.09566,-0.201485 0.09566,-0.05978 0,0.05261 0.0031,0.09565 0.0069,0.09565 0.027,0 0.421967,-0.346201 0.605159,-0.530433 0.775199,-0.779599 1.148864,-1.597409 1.060532,-2.3211014 -0.0452,-0.3706665 -0.178467,-0.6343468 -0.392446,-0.7766007 -0.107975,-0.071785 -0.216178,-0.1111919 -0.352634,-0.1284207 -0.139695,-0.017647 -0.298663,0.00514 -0.460836,0.066046 -0.09107,0.034218 -0.107976,0.037518 -0.107976,0.021114 0,-0.040089 0.19999,-0.1415844 0.356137,-0.1807407 l 0.05127,-0.012853 -0.007,-0.092086 c -0.03324,-0.4349753 -0.126827,-0.7838908 -0.310186,-1.1561685 -0.16894,-0.3430091 -0.340152,-0.5789034 -0.611855,-0.8430499 -0.252274,-0.245232 -0.48757,-0.4084928 -0.835386,-0.5796088 -0.231362,-0.1138223 -0.373832,-0.168928 -0.590154,-0.2282662 -0.14535,-0.039874 -0.3740351,-0.083848 -0.4739401,-0.091141 l -0.04782,-0.00349 -0.0086,0.1314934 c -0.0047,0.072335 -0.01015,0.1476461 -0.01204,0.1673737 l -0.0034,0.035868 -0.02547,-0.039802 c -0.03363,-0.052547 -0.04614,-0.2167525 -0.02909,-0.3819382 0.02748,-0.266215 0.08388,-0.3932009 0.325242,-0.7320254 0.2692881,-0.3780645 0.3216081,-0.5148903 0.2313871,-0.6051232 -0.03336,-0.033358 -0.113416,-0.037817 -0.1879021,-0.01045 m 0.4989881,2.9931907 c -0.147526,0.042265 -0.260284,0.1166917 -0.356137,0.2350693 -0.1965821,0.242781 -0.2440121,0.5977701 -0.1445011,1.0816582 0.08859,0.4307551 0.2701841,0.8490997 0.4917311,1.1327826 l 0.02089,0.026746 0.723346,-0.3616487 c 0.661424,-0.3306943 0.723345,-0.3641595 0.723345,-0.3909651 0,-0.02243 -0.0086,-0.031767 -0.03654,-0.03979 l -0.03654,-0.010474 -0.01417,-0.1513765 c -0.06126,-0.6545862 -0.398654,-1.2514237 -0.822917,-1.4556462 -0.178027,-0.085702 -0.391085,-0.1114669 -0.548547,-0.066357 m 0.04487,0.1146353 c -0.1036,0.023613 -0.187664,0.071617 -0.27303,0.1559198 -0.08576,0.084709 -0.136061,0.1815895 -0.17456,0.3362539 -0.03468,0.1393725 -0.03721,0.4110155 -0.0053,0.5721601 0.02849,0.1438799 0.03613,0.1537318 0.05428,0.069884 0.02579,-0.1190949 0.0991,-0.2556577 0.174021,-0.3241304 0.109733,-0.1002879 0.227991,-0.1452071 0.383002,-0.145494 0.127452,-2.272e-4 0.260428,0.042289 0.344623,0.1101995 l 0.03378,0.027224 -0.09757,0.2249544 c -0.05367,0.123722 -0.09528,0.22725 -0.09247,0.2300597 0.0028,0.00281 0.08693,-0.048733 0.186946,-0.1145396 0.100013,-0.065806 0.186444,-0.1196449 0.192075,-0.1196449 0.01599,0 0.115783,0.2107505 0.149906,0.3165621 0.03245,0.1006467 0.06571,0.2806102 0.06579,0.3559696 0,0.024665 0.0052,0.044835 0.0116,0.044835 0.0064,0 0.06957,-0.026662 0.140484,-0.059243 0.100372,-0.046115 0.129832,-0.065041 0.132988,-0.085426 0.0022,-0.014407 -0.0022,-0.08056 -0.0097,-0.1470124 -0.05645,-0.4948639 -0.241531,-0.9177757 -0.526409,-1.2027857 C 11.06008,-2.9126808 10.978002,-2.9679898 10.849976,-3.014535 10.748564,-3.051396 10.597199,-3.06071 10.4914,-3.036594 m -2.8230791,0.4665517 c -0.156566,0.035677 -0.324513,0.1355226 -0.463157,0.2753495 -0.142756,0.1439755 -0.231267,0.3197783 -0.280132,0.5564497 -0.02286,0.1107017 -0.02508,0.1503722 -0.01944,0.3462134 0.01034,0.3587673 0.0876,0.6565464 0.263668,1.0161746 0.03031,0.061921 0.05512,0.1140733 0.05512,0.1158787 0,0.00182 -0.02152,0.014276 -0.04783,0.02769 -0.0263,0.013415 -0.04782,0.027332 -0.04782,0.030919 0,0.00566 0.02278,0.053252 0.02957,0.061801 0.0013,0.00167 0.112244,-0.012913 0.246476,-0.032413 0.518274,-0.075288 0.753367,-0.0948 1.256421,-0.1042932 0.395197,-0.00745 0.402753,-0.00806 0.409664,-0.032616 0.0039,-0.013761 0.01028,-0.1326293 0.01422,-0.2641466 0.0136,-0.4546796 -0.0588,-0.8844543 -0.20496,-1.2165594 -0.101328,-0.230227 -0.287329,-0.465117 -0.473594,-0.5980212 -0.094872,-0.067707 -0.254271,-0.1450038 -0.351199,-0.1703149 -0.104329,-0.027248 -0.294467,-0.033202 -0.387007,-0.012112 m 0.0122,0.1434615 c -0.294671,0.067014 -0.546036,0.3576793 -0.631008,0.72967 -0.01523,0.066715 -0.02193,0.1444778 -0.02213,0.2570566 -2.63e-4,0.151496 0.02053,0.3157851 0.04162,0.3288172 0.0051,0.00314 0.01302,-0.019787 0.01765,-0.050957 0.01407,-0.094764 0.07418,-0.2314226 0.140568,-0.3195751 0.110834,-0.1471798 0.252729,-0.2329411 0.429668,-0.2596989 0.133095,-0.020122 0.301987,0.025718 0.454033,0.1232318 l 0.0556,0.035653 -0.06587,0.1519743 c -0.08662,0.1998704 -0.149057,0.3610867 -0.144562,0.3733059 0.002,0.0054 0.07682,-0.036813 0.166298,-0.093808 0.08949,-0.056995 0.184794,-0.1159624 0.211791,-0.1310511 l 0.04908,-0.027415 0.0362,0.071701 c 0.102595,0.203254 0.144932,0.5422818 0.100575,0.8054001 l -0.0076,0.04511 0.219801,-0.00326 0.219813,-0.00326 0.0037,-0.1912979 c 0.010098,-0.5251444 -0.097327,-1.018418 -0.288255,-1.3235621 -0.15146,-0.2420756 -0.357918,-0.4198751 -0.576296,-0.4963225 -0.106589,-0.037315 -0.297672,-0.047418 -0.410681,-0.021712 m 4.3509751,2.0464573 c -0.126328,0.041392 -0.249117,0.055859 -0.392316,0.046198 -0.101842,-0.00687 -0.12255,-0.00539 -0.12255,0.00873 0,0.035079 0.08745,0.093784 0.164397,0.110355 0.02136,0.0046 0.03886,0.014981 0.03886,0.023063 0,0.022107 -0.07691,0.145829 -0.150647,0.242326 -0.08466,0.11081 -0.284855,0.302299 -0.407572,0.389889 -0.49001,0.349705 -1.141248,0.535001 -1.8795741,0.534798 -0.412713,-1.2e-4 -0.938508,-0.06339 -1.203957,-0.144885 l -0.120686,-0.03705 0.02774,-0.06743 c 0.02905,-0.07062 0.03749,-0.157092 0.01534,-0.157092 -0.0071,0 -0.06007,0.04743 -0.11766,0.105406 -0.08472,0.08528 -0.123889,0.114754 -0.205239,0.154389 -0.0553,0.02694 -0.140891,0.05821 -0.19021,0.06951 -0.169119,0.03871 -0.187196,0.05866 -0.06502,0.07175 0.100575,0.01076 0.224118,-0.0012 0.350195,-0.03387 l 0.09985,-0.0259 0.126018,0.03302 c 0.231387,0.06062 0.759357,0.263417 1.045945,0.401749 0.06756,0.03262 0.206243,0.108789 0.308169,0.169287 0.240486,0.142732 0.448343,0.243403 0.567916,0.275051 0.1323301,0.03503 0.3531841,0.04407 0.4726731,0.01936 0.13361,-0.02763 0.216298,-0.06243 0.312712,-0.131589 0.165366,-0.118628 0.294587,-0.306303 0.439173,-0.637859 0.20592,-0.472183 0.389781,-0.798059 0.623499,-1.10508 0.08289,-0.108884 0.112244,-0.1346614 0.239481,-0.2102121 0.05344,-0.031732 0.11674,-0.074965 0.140652,-0.096056 l 0.04347,-0.038367 -0.03587,6.815e-4 c -0.01973,3.826e-4 -0.07588,0.013797 -0.124786,0.029831 m -1.632596,0.1926729 c 0.0048,0.011502 0.01141,0.046222 0.01471,0.077153 0.0049,0.046186 2.51e-4,0.066021 -0.02616,0.1110967 -0.06722,0.114695 -0.195399,0.173842 -0.3954491,0.182486 -0.153265,0.0066 -0.237042,-0.01015 -0.37413,-0.07489 -0.08375,-0.03956 -0.08708,-0.04017 -0.07932,-0.01463 0.02409,0.07933 0.133741,0.166023 0.269706,0.213225 0.100407,0.03486 0.3177341,0.03883 0.4158221,0.0076 0.174942,-0.05569 0.276282,-0.168162 0.276282,-0.30659 0,-0.06888 -0.01316,-0.1091363 -0.0561,-0.1715353 -0.03161,-0.045947 -0.06097,-0.061419 -0.04536,-0.023912 m 0.149284,1.2790783 c -0.04223,0.0077 -0.198172,0.08098 -0.208706,0.098 -0.0048,0.0078 0.0043,0.03406 0.02023,0.05835 0.07654,0.116512 0.07883,0.109912 -0.0212,0.06112 -0.122024,-0.05952 -0.210882,-0.07703 -0.3821541,-0.07532 -0.159315,0.0016 -0.291346,0.03266 -0.422015,0.09933 -0.124308,0.06343 -0.123674,0.05885 -0.01791,0.128254 0.237795,0.156051 0.46202,0.231291 0.6892701,0.231291 0.06067,0 0.141011,-0.008 0.178553,-0.01778 0.160068,-0.04169 0.334723,-0.161013 0.435119,-0.297253 0.05738,-0.07785 0.128887,-0.209495 0.119119,-0.219275 -0.0032,-0.0032 -0.05063,-0.02141 -0.105405,-0.04047 -0.0968,-0.03369 -0.194969,-0.04273 -0.284903,-0.02624 m 0.406508,0.703892 c -0.19492,0.196463 -0.386158,0.294193 -0.640824,0.32749 -0.160499,0.02098 -0.3644941,-0.01182 -0.5863881,-0.0943 -0.05167,-0.0192 -0.11008,-0.04083 -0.129807,-0.04806 -0.03027,-0.0111 -0.02422,-0.002 0.03876,0.05827 0.177477,0.169837 0.4815211,0.248699 0.7666991,0.198878 0.276832,-0.04836 0.493668,-0.20109 0.600675,-0.423079 0.01994,-0.04136 0.03453,-0.08023 0.03242,-0.08636 -0.0021,-0.0061 -0.0388,0.02408 -0.08154,0.06716"
         stroke="none"
         fill="#1e191a"
         fill-rule="evenodd"
         id="path3"
         style="stroke-width:0.0119561" />
      <path
         d="m 7.5041149,-5.5049345 c 0,0.09535 0.0019,0.1343629 0.0041,0.086682 0.0023,-0.047681 0.0023,-0.1256827 0,-0.1733638 -0.0023,-0.047681 -0.0041,-0.00867 -0.0041,0.086682 m 1.817008,0.7532356 c 0,0.069047 0.002,0.097287 0.0044,0.06277 0.0024,-0.034517 0.0024,-0.091022 0,-0.1255393 -0.0024,-0.034517 -0.0044,-0.00628 -0.0044,0.06277 m -5.03e-4,0.2570566 c 6e-5,0.046031 0.0022,0.063391 0.0048,0.038594 0.0026,-0.024809 0.0025,-0.062471 -9.6e-5,-0.083693 -0.0026,-0.021234 -0.0048,-9.326e-4 -0.0047,0.045098 m -2.426996,3.0428325 c 0,0.049319 0.0021,0.069501 0.0047,0.044835 0.0026,-0.024654 0.0026,-0.065005 0,-0.089671 -0.0026,-0.024654 -0.0047,-0.00448 -0.0047,0.044835"
         stroke="none"
         fill="#a21731"
         fill-rule="evenodd"
         id="path4"
         style="stroke-width:0.0119561" />
      <a
         id="a2"
         transform="translate(-5.7722411,-10.077254)">
        <path
           d="m 15.727672,3.9358833 c -0.165736,0.058968 -0.319061,0.2381898 -0.465835,0.5445415 -0.12573,0.2624249 -0.160941,0.4591509 -0.160941,0.8991719 0,0.2251338 -0.003,0.2788048 -0.01558,0.2739984 -0.03467,-0.013307 -0.05856,-0.079126 -0.06405,-0.1764723 -0.003,-0.053767 -0.0082,-0.1106778 -0.01144,-0.1264479 l -0.0059,-0.028683 -0.235452,0.00739 c -0.332978,0.01045 -0.581665,0.046701 -0.916963,0.1336575 -0.216262,0.056086 -0.352705,0.1004912 -0.352705,0.1147907 0,0.00667 0.03495,0.080417 0.07767,0.1638825 0.04272,0.083466 0.0811,0.1670629 0.08527,0.1857623 l 0.0076,0.034003 -0.03459,-0.017886 c -0.07156,-0.037004 -0.22627,-0.2542588 -0.289888,-0.40707 -0.08093,-0.1944065 -0.102835,-0.3566391 -0.08372,-0.6203672 0.007,-0.096952 0.01074,-0.2745005 0.0082,-0.3945519 -0.0041,-0.1988781 -0.0071,-0.2240099 -0.03314,-0.282559 -0.03531,-0.079233 -0.08208,-0.1050704 -0.154795,-0.085486 -0.06635,0.017862 -0.104891,0.053157 -0.145148,0.1329042 -0.0484,0.095876 -0.07022,0.1946218 -0.07901,0.3575956 -0.02146,0.3977323 0.112818,0.8249245 0.379559,1.2075682 0.11839,0.1698366 0.12872,0.1863241 0.136826,0.2186535 0.0049,0.019548 0.0033,0.032425 -0.0042,0.032425 -0.02366,0 -0.115041,-0.078552 -0.167086,-0.1436289 -0.02885,-0.036084 -0.07914,-0.096462 -0.111742,-0.1341835 l -0.05929,-0.068592 -0.110032,0.055237 c -0.208383,0.1046041 -0.481138,0.2811601 -0.677948,0.4388494 -0.04932,0.039515 -0.162424,0.1448484 -0.251353,0.2340769 -0.511471,0.5132643 -0.843146,1.188534 -0.945861,1.9257722 -0.0093,0.06656 -0.01565,0.2199926 -0.01539,0.3706398 4.66e-4,0.2785536 0.01858,0.4523717 0.07207,0.6916495 0.02861,0.1279305 0.114683,0.4152002 0.137113,0.4575966 0.0091,0.017253 0.02119,0.015029 0.109303,-0.02017 0.179174,-0.071569 0.272671,-0.090675 0.477491,-0.09761 0.251366,-0.0085 0.444888,0.021485 0.633639,0.098184 0.03846,0.015627 0.06993,0.026889 0.06993,0.025024 0,-0.00187 -0.02899,-0.064707 -0.06443,-0.1396475 C 12.380592,9.6154707 12.309871,9.4196653 12.261282,9.2293 c -0.06756,-0.2646487 -0.08331,-0.3899608 -0.08337,-0.6636364 -4.8e-5,-0.255024 0.0086,-0.3323323 0.06029,-0.5380254 0.149799,-0.5962517 0.601895,-1.0148594 1.188714,-1.1006685 0.132736,-0.019405 0.384676,-0.00793 0.502276,0.022896 0.428603,0.1123278 0.866209,0.4540098 1.140016,0.8901332 l 0.06385,0.1016987 0.008,-0.2350095 c 0.0089,-0.2633694 0.02386,-0.3643986 0.07757,-0.5244791 0.139863,-0.4168382 0.39081,-0.6687297 0.767846,-0.7707035 0.08428,-0.0228 0.131242,-0.02732 0.286146,-0.027559 0.158119,-2.391e-4 0.199177,0.00374 0.279713,0.027069 0.273329,0.079162 0.513037,0.2474798 0.769651,0.5404047 0.333026,0.3801568 0.530159,0.8845975 0.571204,1.4616118 l 0.0083,0.1163928 0.03148,-0.022215 c 0.05978,-0.042193 0.176843,-0.095195 0.270089,-0.1222872 l 0.09358,-0.027188 -0.0072,-0.1321749 C 18.259284,7.6754348 18.038921,7.0934587 17.677703,6.6101326 17.20222,5.9739355 16.377152,5.4980819 15.552084,5.3841759 c -0.05763,-0.00795 -0.108179,-0.011059 -0.11234,-0.0069 -0.0042,0.00415 -0.01191,0.076268 -0.01722,0.1602478 -0.0053,0.08398 -0.0099,0.1540427 -0.01021,0.1556807 -0.0029,0.015531 -0.02791,-0.00469 -0.04434,-0.035868 -0.0266,-0.050491 -0.03602,-0.2879871 -0.01707,-0.4304442 0.03187,-0.2394931 0.0883,-0.34986 0.420222,-0.8219594 0.110331,-0.156924 0.166704,-0.2764374 0.166704,-0.3534229 0,-0.1175645 -0.08038,-0.1617902 -0.210152,-0.1156276 m 0.605374,7.2372907 c -0.05276,0.01035 -0.227836,0.08727 -0.227836,0.100096 0,0.0037 0.02152,0.03824 0.04782,0.07677 0.0263,0.03853 0.04782,0.07317 0.04782,0.07699 0,0.0038 -0.03901,-0.01147 -0.08668,-0.03395 -0.129437,-0.06104 -0.211492,-0.07895 -0.361672,-0.07892 -0.100575,1.2e-5 -0.158443,0.0069 -0.245938,0.02938 -0.106553,0.02734 -0.275409,0.100491 -0.291299,0.126196 -0.0038,0.0062 0.0294,0.03529 0.07384,0.06467 0.285967,0.189002 0.59899,0.269694 0.844449,0.217697 0.1418,-0.03005 0.250182,-0.09261 0.372397,-0.214983 0.102428,-0.102547 0.197061,-0.238249 0.197061,-0.282571 0,-0.01314 -0.02298,-0.02814 -0.06875,-0.0449 -0.132497,-0.04847 -0.198938,-0.05652 -0.301222,-0.03647 m -5.130802,1.780696 c -0.311995,0.05175 -0.412558,0.465213 -0.158083,0.650007 0.198089,0.143868 0.45817,0.07536 0.556963,-0.146702 0.03858,-0.08672 0.03563,-0.215545 -0.0069,-0.302537 -0.07031,-0.143653 -0.233204,-0.227095 -0.391934,-0.200768 m -4.7818618,0.209352 c -0.07475,0.02304 -0.1460201,0.08766 -0.1802624,0.16344 l -0.028599,0.0633 -0.00598,0.837275 -0.00598,0.837263 -0.030548,0.05934 C 6.1298628,15.199964 6.051586,15.251057 5.9628476,15.25841 5.8328727,15.26919 5.7516667,15.22093 5.6465126,15.070412 5.5245841,14.895888 5.4588852,14.850515 5.326806,14.849666 c -0.0981,-6.22e-4 -0.1695737,0.02689 -0.2319966,0.08931 -0.056815,0.05682 -0.072932,0.103719 -0.072562,0.211145 2.63e-4,0.07534 0.00686,0.108358 0.034661,0.173519 0.1950402,0.457166 0.7611386,0.67032 1.2646227,0.476153 0.2816862,-0.108622 0.4679147,-0.345628 0.5172337,-0.658256 0.0075,-0.04751 0.012303,-0.396597 0.012351,-0.898323 1.076e-4,-0.936954 0.0032,-0.904421 -0.095637,-1.003693 -0.087531,-0.0879 -0.2082278,-0.115388 -0.3350583,-0.07629 m 5.6719355,-0.0053 c -0.06535,0.01894 -0.151556,0.08607 -0.189337,0.147443 l -0.03622,0.05884 -0.0034,0.837873 c -0.0022,0.55456 9.68e-4,0.866173 0.0095,0.921565 0.04984,0.324525 0.255048,0.580578 0.546502,0.681942 0.194263,0.06755 0.434008,0.0813 0.615238,0.03526 0.111491,-0.02831 0.279833,-0.114432 0.37015,-0.189361 0.298449,-0.247551 0.413646,-0.663361 0.286241,-1.033116 -0.04325,-0.125504 -0.09614,-0.214254 -0.18459,-0.309735 -0.08496,-0.0917 -0.15384,-0.143438 -0.265725,-0.199596 -0.143103,-0.07182 -0.251485,-0.09647 -0.423402,-0.09632 -0.0835,1.19e-4 -0.173196,0.0068 -0.203254,0.01523 -0.02959,0.0083 -0.06283,0.01769 -0.07386,0.02089 -0.01836,0.0053 -0.02038,-0.0218 -0.02391,-0.320532 l -0.0038,-0.326342 -0.03361,-0.06844 c -0.07171,-0.146044 -0.234005,-0.219789 -0.386469,-0.175599 m -2.7739394,0.171666 c -0.054054,0.02352 -0.1332749,0.09873 -0.1635239,0.15525 l -0.02604,0.04864 v 1.034205 1.034204 l 0.025885,0.04783 c 0.033764,0.06236 0.1061943,0.131577 0.1620413,0.154843 0.072167,0.03007 0.1960804,0.02441 0.2697779,-0.01231 0.067576,-0.03367 0.1287076,-0.101615 0.1532536,-0.170327 0.020505,-0.05744 0.02408,-2.025642 0.00381,-2.098658 -0.017145,-0.06172 -0.098889,-0.148387 -0.1723953,-0.182773 -0.069334,-0.03242 -0.1912501,-0.03769 -0.2528122,-0.01089 m 0.897773,0.01108 c -0.03346,0.01558 -0.08036,0.0514 -0.105058,0.08026 -0.0829,0.09687 -0.0805,0.05989 -0.07687,1.177629 l 0.0033,1.003322 0.02604,0.04864 c 0.08538,0.15953 0.271487,0.220985 0.429738,0.141919 0.04533,-0.02266 0.08405,-0.05346 0.10904,-0.08673 0.0777,-0.103468 0.07586,-0.07375 0.07218,-1.163163 l -0.0033,-0.98516 -0.03351,-0.06825 c -0.07669,-0.156147 -0.263596,-0.222001 -0.421489,-0.148471 m 7.527275,0.569183 c -0.05458,0.01351 -0.126365,0.09127 -0.143701,0.155669 -0.02058,0.07641 -0.005,0.138547 0.04945,0.197646 0.170063,0.184507 0.460083,-0.02007 0.345866,-0.243976 -0.04472,-0.08764 -0.151615,-0.134088 -0.251616,-0.109339 m -0.02126,0.05996 c -0.136671,0.08332 -0.102237,0.288956 0.05329,0.318129 0.139863,0.02624 0.245423,-0.1113 0.183538,-0.239135 -0.04641,-0.09588 -0.151603,-0.130967 -0.236826,-0.07899 m -9.8352006,0.0023 c -0.5508782,0.05148 -0.9444976,0.578222 -0.8395707,1.123529 0.1017825,0.529022 0.6180118,0.868289 1.1441409,0.751932 C 8.7694761,15.719822 9.0961771,15.07742 8.8583938,14.536657 8.8169147,14.44267 8.7544679,14.352485 8.6697349,14.264369 8.4587213,14.044998 8.1881304,13.943957 7.8869677,13.972113 m 3.2639493,0.01527 c -0.07092,0.02529 -0.129389,0.07933 -0.168904,0.156147 l -0.03587,0.06972 v 0.688326 c 0,0.686509 7.2e-5,0.688446 0.02633,0.737525 0.06746,0.12609 0.159674,0.183933 0.293235,0.183933 0.04495,0 0.100073,-0.0077 0.122479,-0.01703 0.06913,-0.02889 0.146355,-0.109925 0.173256,-0.181817 0.02342,-0.0626 0.02435,-0.09036 0.02435,-0.726071 0,-0.753953 0.002,-0.736091 -0.09507,-0.83321 -0.08754,-0.08754 -0.224214,-0.118724 -0.339805,-0.07752 m 3.429888,6.22e-4 c -0.407644,0.08965 -0.682683,0.424167 -0.707587,0.860602 -0.0081,0.142684 0.0084,0.261791 0.05512,0.397672 0.0483,0.140437 0.09991,0.221308 0.216071,0.338681 0.135176,0.136563 0.253303,0.203685 0.454333,0.258145 0.117552,0.03184 0.415439,0.02862 0.541564,-0.0059 0.186061,-0.05086 0.328411,-0.142576 0.381544,-0.24583 0.05512,-0.107114 0.02781,-0.243067 -0.0608,-0.302776 -0.06846,-0.04614 -0.131374,-0.04728 -0.299477,-0.0054 -0.197802,0.04929 -0.283228,0.05647 -0.393763,0.03306 -0.105488,-0.02233 -0.175814,-0.06128 -0.234567,-0.129879 l -0.04358,-0.0509 0.475985,-0.006 c 0.469637,-0.0059 0.476834,-0.0064 0.539042,-0.03447 0.108729,-0.04914 0.14614,-0.116919 0.14596,-0.264434 -1.07e-4,-0.09967 -0.03635,-0.273807 -0.07506,-0.360775 -0.1058,-0.23764 -0.314614,-0.410514 -0.575245,-0.476225 -0.110833,-0.02794 -0.306244,-0.03058 -0.41954,-0.0057 m 1.883089,0.0058 c -0.415045,0.10287 -0.685194,0.461195 -0.685002,0.908617 2.51e-4,0.587129 0.440583,0.994044 1.043685,0.964488 0.158538,-0.0078 0.256734,-0.03022 0.38146,-0.08724 0.115903,-0.05298 0.183036,-0.109435 0.221188,-0.186014 0.06149,-0.123375 0.02844,-0.265928 -0.07318,-0.315749 -0.0611,-0.02995 -0.176998,-0.02777 -0.28611,0.0054 -0.17261,0.05242 -0.370986,0.05628 -0.482477,0.0094 -0.06275,-0.02639 -0.134782,-0.08322 -0.1591,-0.125491 l -0.02159,-0.03757 h 0.440535 c 0.480935,0 0.542569,-0.0067 0.622472,-0.06765 0.07979,-0.06086 0.08809,-0.08703 0.08291,-0.261146 -0.0039,-0.130082 -0.01,-0.171032 -0.03727,-0.251078 -0.101424,-0.297253 -0.327406,-0.498487 -0.63169,-0.562488 -0.11387,-0.02396 -0.304833,-0.02093 -0.415833,0.0066 m 1.255392,0.124104 c 0,0.106996 0.0017,0.11497 0.02391,0.11497 0.02003,0 0.02391,-0.008 0.02391,-0.0491 0,-0.03986 0.0036,-0.04774 0.01891,-0.04185 0.0104,0.004 0.02658,0.0073 0.03596,0.0073 0.0094,0 0.02566,0.02152 0.03619,0.04782 0.01052,0.0263 0.02392,0.04782 0.0298,0.04782 0.01405,0 0.01345,-0.192267 -6.69e-4,-0.214589 -0.0071,-0.01126 -0.0384,-0.01907 -0.08949,-0.02232 l -0.07853,-0.005 v 0.114982 m 0.06102,-0.0654 c -0.02493,0.01579 -0.0063,0.04885 0.02757,0.04885 0.039,0 0.05218,-0.02345 0.02453,-0.04366 -0.02578,-0.01884 -0.02989,-0.01925 -0.05211,-0.0052 m -3.12179,0.432394 c -0.08869,0.0401 -0.152333,0.111658 -0.171918,0.193342 l -0.0079,0.03288 h 0.30591 0.305921 l -0.0083,-0.0269 c -0.02987,-0.09659 -0.101328,-0.176867 -0.183143,-0.205729 -0.07327,-0.02585 -0.175229,-0.02313 -0.240569,0.0064 m 1.891398,0.0061 c -0.07239,0.03608 -0.125994,0.09603 -0.150719,0.168629 l -0.01755,0.05148 h 0.309604 0.309604 l -0.01725,-0.0489 C 16.922424,14.488829 16.716963,14.407719 16.5499,14.490969 m -8.6721924,0.107342 c -0.070434,0.02168 -0.167027,0.107701 -0.2002052,0.178266 -0.033417,0.0711 -0.034541,0.205896 -0.00231,0.276892 0.078958,0.173878 0.2878196,0.251891 0.4507576,0.16839 0.1689639,-0.0866 0.2417289,-0.290666 0.1604631,-0.449969 -0.07671,-0.15036 -0.2479221,-0.223077 -0.408708,-0.173579 m 4.8597569,-0.0065 c -0.102404,0.02077 -0.190365,0.08806 -0.240497,0.183969 -0.04447,0.08507 -0.04572,0.214014 -0.0029,0.297946 0.130896,0.256519 0.493848,0.250684 0.617414,-0.0099 0.113464,-0.239314 -0.112901,-0.524958 -0.374035,-0.471992"
           stroke="none"
           fill="#e6103d"
           fill-rule="evenodd"
           id="path2-6"
           style="stroke-width:0.0119561" />
      </a>
    </g>
  </g>
</svg>
