<svg xmlns="http://www.w3.org/2000/svg" width="24" height="24"><path fill="#a87b83" fill-rule="evenodd" d="M5 6.67c-.32.12-.6.47-.6.77 0 .16.14.64.31 1.06.33.8.34 1.3.03 1.3-.13 0-.15-.08-.1-.49.07-.43.05-.51-.15-.7-.25-.23-.65-.27-.9-.08-.3.23-.59.82-.59 1.21 0 1.22 1.46 2.04 2.6 1.46.81-.42 1.15-1.19 1.08-2.49C6.59 7.2 5.9 6.34 5 6.67m10.55.12c-.66.3-.68.36-.44 1.32.17.66.2 1.03.17 1.8l-.05.97.34.16c.47.22 1.33.3 1.75.17.2-.06.48-.25.64-.42.24-.25.29-.39.29-.8 0-.45-.04-.54-.33-.8l-.33-.3.2-.2c.58-.63.26-1.65-.62-1.98a2.5 2.5 0 0 0-1.62.08m2.98 0a2 2 0 0 0-.43.24l.16.36c.18.36.13.88-.13 1.28-.15.23-.14.25.1.52.36.36.44.89.23 1.32-.22.43-.09.52.72.45.68-.06 1.1-.25 1.4-.65.7-.96.46-2.86-.45-3.42a1.7 1.7 0 0 0-1.6-.1M7.1 7.01c-.3.18-.33.23-.27.57.18 1.18.18 1.92.01 2.44l-.17.52.34.32c.92.84 2.38.31 2.88-1.04.24-.64.36-1.7.26-2.26-.05-.26-.15-.4-.36-.51-.4-.2-.57-.19-.85.1-.2.19-.25.34-.25.73 0 .83-.1 1.14-.34 1.1-.3-.04-.31-.34-.07-1.06.23-.68.2-.84-.15-1-.36-.17-.65-.15-1.03.09m3.6.05c-.3.24-.3.27-.24.87a4.6 4.6 0 0 1-.47 2.27c-.23.45-.15.7.27.9.58.26 1.18 0 1.29-.56l.06-.33.33.34c.18.2.42.35.53.35.25 0 .62-.37.62-.62q0-.16.1-.18.1.01.1.14c0 .08.12.28.26.45.35.42.92.44 1.24.04.2-.26.22-.36.17-1.33-.05-1.17-.32-2.09-.7-2.35a1.5 1.5 0 0 0-.68-.15c-.4 0-.53.05-.78.3-.17.18-.31.37-.31.43 0 .07-.12-.03-.26-.2-.28-.36-.72-.63-1.03-.63-.1 0-.33.11-.5.26m5.42.8c-.03.08.02.23.1.32.15.15.19.15.32 0a.3.3 0 0 0 .1-.31c-.09-.21-.44-.22-.52-.01m2.8-.04q-.26.25.03.48c.22.19.54-.12.38-.37q-.2-.33-.42-.11m-2.68 1.73q-.05.17.09.32c.21.21.5.1.45-.2-.04-.27-.45-.37-.54-.12"/></svg>