<svg xmlns="http://www.w3.org/2000/svg" width="24" height="24"><path fill="#f2f4f8" fill-rule="evenodd" d="M3.4 5.03c-.3.1-.36.17-.38.45l-.03.33.3-.15c.38-.2 1.13-.2 1.5-.02.32.17.51.54.51 1 0 .43-.24.74-.63.8l-.6.1c-.33.06-.64.3-.72.57-.1.3.14.88.66 1.64.72 1.05.92 1.57.97 2.53.04.78.06.82.28.82.2 0 .24-.07.3-.43a4.8 4.8 0 0 0-1.04-3.19c-.76-1-.74-1.3.12-1.43.36-.05.58-.16.9-.44.34-.32.51-.4 1-.45.36-.05.6-.13.63-.22.07-.18-.46-.76-.97-1.06l-.88-.56a2.2 2.2 0 0 0-1.92-.3m.84 1.03c-.04.08 0 .22.06.3.18.21.5.2.5-.03 0-.36-.45-.57-.56-.27m3.66 1.9c0 .67-.03 1.3-.06 1.4-.09.21-.29.19-.46-.07-.14-.2-.15-.19-.36.39a6 6 0 0 0-.22.67c0 .13.85.46 1.18.46.43 0 .85-.22 1.11-.59.2-.27.21-.43.21-1.9V6.7H7.9zm1.86-.76.7 1.15c.43.66.44.7.44 1.52v.85h1.4V9.9c0-.8 0-.83.51-1.68l.71-1.19.2-.32h-1.7l-.18.45c-.09.25-.2.45-.24.45s-.15-.2-.24-.45l-.18-.45h-1.7zm4.64-.37c-.71.29-1.13 1.13-.85 1.72.18.38.44.56 1.04.72.52.13.64.31.27.4q-.26.07-.67-.14c-.23-.12-.42-.2-.43-.19l-.24.56-.21.53.37.16c.2.09.64.18.97.2 1.38.12 2.34-.93 1.8-1.97-.17-.34-.4-.48-1.02-.64-.78-.2-.47-.37.45-.24.2.03.27-.05.42-.45l.19-.49-.34-.14a3.3 3.3 0 0 0-1.75-.03M17 8.7v2h1.4l.02-.72.03-.73.4.7.4.7.88.03.88.03-.68-1.01-.67-1.01.19-.32c.1-.18.38-.61.62-.97l.43-.65-.71-.03c-.4-.02-.78 0-.85.02s-.3.38-.5.78l-.39.73-.03-.77-.03-.78H17z"/></svg>