<svg xmlns="http://www.w3.org/2000/svg" width="24" height="24"><path fill="#e5eaee" fill-rule="evenodd" d="M3 9v4.4h18V4.6H3zm.28-4.14q-.05.06-.01.23c.04.16.14.17.8.13.71-.05.76-.04 1.26.3.29.2.68.44.87.56.48.29.94.78.87.95-.05.14-.5.27-.91.27-.12 0-.35.14-.51.3-.27.28-.54.4-1.28.55q-.58.1.08 1.01c.84 1.18 1.17 2.02 1.14 2.94v.58c0 .1 1.58.12 7.49.12 4.1 0 7.52-.04 7.58-.08.13-.08.19-6.23.08-7.35l-.06-.57h-8.67c-4.77 0-8.7.03-8.73.06m.3.96-.28.1.02 3.41.03 3.42.71.03c.9.04 1.07-.09 1-.77a4 4 0 0 0-.88-2.22c-.96-1.45-.9-2.08.17-2.22q.96-.13.95-.9c0-.57-.43-.97-1.02-.96-.24 0-.55.05-.7.1m.74.5c.04.3.33.48.5.31s-.01-.46-.31-.5c-.18-.03-.22 0-.2.19m9.62.52c-.17.05-.45.24-.61.4-.67.72-.41 1.6.56 1.87.54.15.7.4.26.4-.14 0-.39-.07-.56-.16-.35-.18-.39-.15-.61.43l-.17.43.33.17c.42.22 1.6.24 2.02.03.37-.2.75-.75.75-1.11 0-.6-.32-.93-1.12-1.16q-.26-.07-.25-.18c.02-.11.3-.12.68 0 .26.06.28.03.53-.85q-.02-.06-.28-.19a2.6 2.6 0 0 0-1.53-.08m-6.18.07c-.03.05-.05.6-.04 1.22.01.84-.02 1.13-.11 1.16-.07.03-.2-.03-.27-.13-.16-.22-.14-.24-.41.48l-.22.58.47.2q.46.22.84.16c.43-.06.94-.42 1.03-.72.03-.11.06-.84.06-1.62V6.8h-.64c-.36 0-.68.04-.71.1m1.55-.05c0 .02.3.52.65 1.1.65 1.05.65 1.05.65 1.8v.75h1.3v-.76c0-.74.02-.79.52-1.63l.66-1.08.14-.23h-1.61l-.2.43-.19.42-.18-.42-.17-.43h-.79c-.43 0-.78.02-.78.05m6.9 1.8v1.85h1.4V9.25l.2.25c.1.14.27.42.36.63l.17.37h1.68l-.6-.88c-.34-.49-.61-.94-.61-1s.25-.5.55-.97l.55-.85h-.72c-.4 0-.78.04-.84.08s-.24.32-.4.62l-.29.55-.03-.62-.03-.63H16.2z"/></svg>