<svg xmlns="http://www.w3.org/2000/svg" width="24" height="24"><path fill="#fffbf9" fill-rule="evenodd" d="M5.7 9c0 4.39.03 5.61.12 5.52.17-.17 12.09-.17 12.26 0 .1.1.12-1.13.12-5.52s-.03-5.61-.12-5.52c-.17.17-12.09.17-12.26 0-.1-.1-.12 1.13-.12 5.52m2.15-3.87c-.03.06-.04 1.85-.03 3.97l.03 3.85 1.28.03h1.29l.07-1.94.06-1.92 1.35 1.92 1.35 1.91h1.45c1.27 0 1.45-.02 1.44-.16 0-.1-.65-1-1.43-2.02a25 25 0 0 1-1.41-1.96c0-.06.63-.86 1.4-1.78s1.4-1.76 1.4-1.85c0-.16-.13-.18-1.4-.18h-1.39l-1.4 1.81-1.41 1.81V6.93c0-1.18-.04-1.73-.12-1.81-.17-.17-2.47-.17-2.53 0"/></svg>