<?xml version="1.0" encoding="UTF-8" standalone="no"?>
<svg
   viewBox="0 0 24 24"
   width="24pt"
   height="24pt"
   version="1.1"
   id="svg1"
   xml:space="preserve"
   xmlns="http://www.w3.org/2000/svg"
   xmlns:svg="http://www.w3.org/2000/svg"><defs
     id="defs1" /><path
     d="m 12.738761,7.4437019 c -0.04177,0.066598 -0.08503,0.303712 -0.0961,0.5269542 l -0.02009,0.4058565 0.383304,0.014827 c 0.348028,0.013517 0.383303,-0.00415 0.383303,-0.1913884 0,-0.1226751 0.06221,-0.2225417 0.153568,-0.24641 0.146284,-0.038176 0.146284,-0.040628 0,-0.050279 -0.167609,-0.011156 -0.205518,-0.1432135 -0.06582,-0.2295621 0.17296,-0.1068754 0.08302,-0.2193818 -0.175506,-0.2193818 -0.144792,0 -0.263258,0.039486 -0.263258,0.087755 0,0.048268 0.058,0.087755 0.128902,0.087755 0.07845,0 0.10908,0.05142 0.07836,0.1316295 -0.02781,0.072396 -0.08582,0.1316283 -0.128915,0.1316283 -0.04309,0 -0.07836,-0.05923 -0.07836,-0.1316283 0,-0.072396 -0.03659,-0.1316295 -0.08135,-0.1316295 -0.04466,0 -0.09495,-0.069062 -0.111714,-0.1535677 -0.02448,-0.1233756 -0.04536,-0.1297863 -0.106356,-0.032559 m 1.108668,0.063977 c -0.05897,0.063095 -0.107239,0.2891446 -0.107239,0.5023842 0,0.3549587 0.01851,0.3876037 0.219382,0.3876037 0.18665,0 0.21982,-0.040978 0.222189,-0.2742282 0.0026,-0.259221 0.0097,-0.2650129 0.130665,-0.1051241 0.16243,0.2146431 0.263872,0.1253084 0.133823,-0.1176809 -0.0795,-0.1486526 -0.07266,-0.1830528 0.03676,-0.1830528 0.193407,0 0.178139,0.4925567 -0.01886,0.6072489 -0.137157,0.079855 -0.132418,0.089688 0.04387,0.092139 0.178137,0.00233 0.197443,-0.039227 0.197443,-0.425863 0,-0.3685624 -0.0272,-0.4356931 -0.194283,-0.4793941 -0.106889,-0.027902 -0.219645,-0.00986 -0.250535,0.040109 -0.03641,0.059061 -0.10013,0.047127 -0.181122,-0.03396 -0.102763,-0.1026725 -0.144002,-0.1045145 -0.232105,-0.010118 m -2.301051,0.1587434 c 0,0.1166302 -0.04932,0.2319308 -0.109691,0.2563257 -0.06555,0.026411 -0.04783,0.047036 0.04387,0.051161 0.187966,0.00856 0.193934,0.080114 0.02256,0.2694896 -0.120392,0.1330331 -0.08661,0.1452306 0.416826,0.1497928 0.415333,0.00389 0.484131,-0.011026 0.284582,-0.061604 -0.212624,-0.053885 -0.225262,-0.068712 -0.06582,-0.077131 0.108548,-0.00571 0.197442,-0.049838 0.197442,-0.098106 0,-0.048268 -0.0889,-0.092399 -0.197442,-0.098106 -0.159623,-0.00843 -0.146987,-0.023259 0.06582,-0.077403 0.144792,-0.036853 0.219382,-0.071696 0.165765,-0.077403 -0.05545,-0.00584 -0.0795,-0.1049556 -0.05564,-0.2297373 0.03984,-0.2084127 0.02168,-0.2193818 -0.363121,-0.2193818 -0.369966,0 -0.405154,0.018433 -0.405154,0.2120981 m 5.911372,0.00662 c -0.03037,0.079245 -0.01051,0.1887551 0.04414,0.2434251 0.161815,0.1618165 0.118991,0.4153338 -0.07029,0.4153338 -0.117681,0 -0.180858,-0.073888 -0.20622,-0.2413199 -0.03396,-0.224647 -0.03748,-0.2215753 -0.04967,0.043871 -0.01206,0.2613276 0.0088,0.2851972 0.250095,0.2851972 0.229826,0 0.26326,-0.031236 0.26326,-0.2457082 0,-0.1351385 -0.04291,-0.2886179 -0.09538,-0.3410944 -0.06871,-0.068712 -0.06853,-0.1120641 5.85e-4,-0.1547961 0.110482,-0.068271 0.161027,0.045895 0.211835,0.4783395 0.02168,0.1849829 0.03177,0.132858 0.02527,-0.1308383 -0.0083,-0.3425874 -0.04422,-0.4443804 -0.164536,-0.4671953 -0.08459,-0.016059 -0.178665,0.035634 -0.209115,0.1147752 m 2.425162,-0.043261 c 0,0.048268 0.04186,0.087755 0.09293,0.087755 0.05107,0 0.06853,-0.039486 0.0387,-0.087755 -0.02984,-0.048268 -0.07161,-0.087755 -0.09293,-0.087755 -0.02133,0 -0.0387,0.039486 -0.0387,0.087755 m -7.101035,0.2266655 c 0.0042,0.1022314 0.02501,0.1230253 0.053,0.053094 0.02536,-0.063355 0.02221,-0.1390885 -0.0069,-0.168222 -0.02914,-0.029135 -0.04984,0.022636 -0.04608,0.1151255 m 3.814082,0.030536 c -0.06494,0.1050333 0.10013,0.2090263 0.217013,0.1368053 0.0982,-0.060631 0.0337,-0.2185035 -0.08916,-0.2185035 -0.04256,0 -0.100129,0.036762 -0.12785,0.081697 m -1.495306,0.1807696 c -0.07819,0.2462349 0.01396,0.3518014 0.306871,0.3518014 0.310294,0 0.430251,-0.1638349 0.228157,-0.3116106 -0.113465,-0.082929 -0.121974,-0.1204828 -0.03536,-0.1552345 0.06291,-0.025178 -0.01129,-0.048969 -0.164975,-0.052744 -0.205429,-0.00506 -0.293885,0.039318 -0.334689,0.1677823 m 0.758798,0.1104815 c 0.01219,0.2654514 0.01571,0.2685231 0.04967,0.043871 0.02009,-0.1327698 0.07081,-0.2413198 0.112674,-0.2413198 0.04186,0 0.08951,0.1085487 0.105916,0.2413198 0.0293,0.2364061 0.03089,0.2355279 0.07845,-0.043871 0.04317,-0.2539571 0.02615,-0.2851972 -0.155672,-0.2851972 -0.174541,0 -0.20227,0.041419 -0.191037,0.2851972 m 2.32698,-0.2266712 c -0.120833,0.1207423 -0.05897,0.4679853 0.08337,0.4679853 0.104774,0 0.130663,-0.058529 0.0989,-0.2244719 -0.03159,-0.1652385 -0.01115,-0.2122732 0.07757,-0.1782259 0.06617,0.02536 0.120392,0.00791 0.120392,-0.038786 0,-0.096005 -0.290548,-0.1162799 -0.380232,-0.026501 m 0.434902,0.07669 c -0.03037,0.079154 -0.02923,0.1858611 0.0025,0.2372842 0.03405,0.055014 0.01615,0.067661 -0.04352,0.030717 -0.05573,-0.034402 -0.101349,-0.020716 -0.101349,0.030367 0,0.05107 0.07897,0.092931 0.175506,0.092931 0.09652,0 0.175505,0.039486 0.175505,0.087755 0,0.048268 0.04186,0.087755 0.09302,0.087755 0.157779,0 0.05853,-0.6528801 -0.103905,-0.6836805 -0.07836,-0.014827 -0.167344,0.037826 -0.197707,0.1168896 m 0.485009,0.1499706 c 0.01219,0.2654514 0.01571,0.2685231 0.04967,0.043871 0.02009,-0.1327699 0.07345,-0.2413199 0.118459,-0.2413199 0.0451,0 0.08731,0.1085487 0.09389,0.2413199 0.01181,0.2371947 0.01258,0.2375463 0.05274,0.021935 0.02247,-0.1206644 0.08617,-0.2484284 0.141632,-0.2838806 0.05545,-0.035452 -0.02755,-0.065028 -0.184368,-0.065819 -0.266241,-0.00123 -0.284319,0.017642 -0.272033,0.2838806 m 0.614269,-0.043884 c -0.01206,0.2613277 0.0088,0.2851972 0.250095,0.2851972 0.234037,0 0.263258,-0.029226 0.263258,-0.2632592 0,-0.1447908 -0.03949,-0.2632578 -0.08775,-0.2632578 -0.04827,0 -0.08776,0.098716 -0.08776,0.2193818 0,0.3023084 -0.241847,0.2838805 -0.28818,-0.021935 -0.03396,-0.2246471 -0.03748,-0.2215753 -0.04967,0.043871 M 11.72194,8.1124471 c 0,0.072396 0.03949,0.1316295 0.08775,0.1316295 0.04827,0 0.08775,-0.05923 0.08775,-0.1316295 0,-0.072396 -0.03949,-0.1316283 -0.08775,-0.1316283 -0.04827,0 -0.08775,0.05923 -0.08775,0.1316283 m 1.263024,0.00713 c 0.02932,0.076352 0.05326,0.1553227 0.05326,0.1755057 0,0.020184 0.03949,0.036684 0.08776,0.036684 0.04827,0 0.08775,-0.078973 0.08775,-0.1755057 0,-0.1026725 -0.05853,-0.1755044 -0.141019,-0.1755044 -0.09258,0 -0.122675,0.047737 -0.08775,0.1388238 m 0.937726,8.82e-5 c 0.0042,0.1022314 0.02501,0.1230253 0.053,0.053094 0.02536,-0.063355 0.02221,-0.1390871 -0.0069,-0.168222 -0.02914,-0.029135 -0.04985,0.022636 -0.04608,0.1151255 m 4.833326,0.036594 c 0,0.1206644 0.01992,0.1700652 0.04423,0.1096902 0.0244,-0.06028 0.0244,-0.159008 0,-0.2193818 -0.02431,-0.06028 -0.04423,-0.011026 -0.04423,0.1096903 m -3.611726,0.087755 c 0,0.048268 0.05923,0.087755 0.131629,0.087755 0.0724,0 0.131628,-0.039486 0.131628,-0.087755 0,-0.048268 -0.05923,-0.087755 -0.131628,-0.087755 -0.0724,0 -0.131629,0.039486 -0.131629,0.087755 m 0.351011,0 c 0,0.048268 0.04186,0.087755 0.09293,0.087755 0.05107,0 0.06853,-0.039486 0.03869,-0.087755 -0.02984,-0.048268 -0.0716,-0.087755 -0.09293,-0.087755 -0.02133,0 -0.03869,0.039486 -0.03869,0.087755 m 0.877527,0.043871 c 0,0.072396 0.05923,0.1316296 0.131628,0.1316296 0.0724,0 0.13163,-0.05923 0.13163,-0.1316296 0,-0.072396 -0.05923,-0.1316296 -0.13163,-0.1316296 -0.0724,0 -0.131628,0.05923 -0.131628,0.1316296 m 0.438764,0 c 0,0.072396 0.05923,0.1316296 0.131628,0.1316296 0.0724,0 0.131629,-0.05923 0.131629,-0.1316296 0,-0.072396 -0.05923,-0.1316296 -0.131629,-0.1316296 -0.0724,0 -0.131628,0.05923 -0.131628,0.1316296 m -0.482641,0.6920175 c -0.478515,0.2085009 -0.485974,0.2271039 -0.794513,1.9661876 -0.09188,0.517829 -0.102841,0.7767 -0.03825,0.897447 0.103814,0.194022 0.358382,0.349345 0.572412,0.349345 0.281861,0 0.727733,-0.277914 0.819347,-0.510721 0.14365,-0.364788 0.362419,-1.654316 0.362419,-2.1359905 0,-0.4118236 -0.01527,-0.439992 -0.304327,-0.5607395 C 16.589606,8.8365176 16.65665,8.8371312 16.32898,8.979851 M 4.3138808,9.0556762 C 4.2966801,9.1160474 4.1663685,9.8287771 4.0242965,10.6397 l -0.2582559,1.474333 0.2689629,-0.02641 c 0.2489538,-0.02448 0.2757187,-0.06064 0.3582056,-0.48378 0.141195,-0.724136 0.2680847,-0.748444 0.3950626,-0.07556 0.104255,0.552229 0.1196007,0.576799 0.3621555,0.576799 0.2989733,0 0.2988864,0.0012 0.079673,-0.96528 l -0.1691868,-0.7459 0.4346385,-0.6632351 c 0.2391263,-0.3647875 0.434728,-0.6905258 0.434728,-0.7239595 0,-0.033429 -0.098716,-0.060721 -0.2192949,-0.060721 -0.1769092,0 -0.3042386,0.1305763 -0.6581453,0.6751696 -0.2414067,0.3713691 -0.4387636,0.657618 -0.4387636,0.636207 8.82e-5,-0.02142 0.054754,-0.3252999 0.1214558,-0.6751697 L 4.8568968,8.945986 H 4.6010109 c -0.1406684,0 -0.2698399,0.04941 -0.2871275,0.1096902 M 6.3608906,8.9679215 C 6.3563505,8.9799853 6.2257521,9.6907407 6.0706045,10.54747 l -0.2820372,1.557611 h 0.6756963 c 0.5352912,0 0.6868404,-0.02887 0.7290496,-0.138825 0.1007396,-0.262556 0.052043,-0.299939 -0.3913773,-0.299939 -0.3815484,0 -0.4385884,-0.02184 -0.4014681,-0.153566 0.023778,-0.08451 0.069062,-0.28195 0.1006489,-0.438763 0.052653,-0.26168 0.084862,-0.285198 0.3912021,-0.285198 0.2855475,0 0.339779,-0.03142 0.3753181,-0.217275 0.052822,-0.276159 0.015709,-0.309241 -0.3467981,-0.309241 -0.2944981,0 -0.296078,-0.0022 -0.2379861,-0.3290732 C 6.7587642,9.5063726 6.7797268,9.4885583 7.246577,9.4560897 7.6040808,9.4312615 7.6440965,9.4058107 7.6691932,9.1873032 L 7.6970049,8.9459834 H 7.0329794 c -0.365139,0 -0.6676226,0.00986 -0.6720979,0.021935 m 1.6830097,0.6142692 c -0.05958,0.3498698 -0.1843681,1.0429404 -0.2772986,1.5401484 -0.092931,0.497119 -0.169012,0.921667 -0.169012,0.943342 0,0.02168 0.2729116,0.0394 0.6064589,0.0394 0.9274585,0 1.0192475,-0.161991 1.3742075,-2.4254847 C 9.6635371,9.1355221 9.4388084,8.9459756 8.7085303,8.9459756 H 8.1521779 L 8.0438886,9.5821829 m 1.9373157,0.9433411 -0.5273058,1.579549 h 0.2494818 c 0.2059546,0 0.2596595,-0.04599 0.3073977,-0.263258 0.05046,-0.229912 0.09582,-0.263258 0.357943,-0.263258 0.275017,0 0.300202,0.02203 0.300202,0.263258 0,0.234036 0.02923,0.263258 0.263257,0.263258 h 0.263258 v -1.040132 c 0,-0.572149 0.02536,-1.2829457 0.05634,-1.5795491 l 0.05643,-0.5394163 H 10.908402 10.5086 L 9.9812069,10.525524 M 11.866837,10.32808 c -0.131892,0.760116 -0.258783,1.470913 -0.281774,1.579549 -0.03598,0.169451 -0.0054,0.197444 0.21596,0.197444 0.210694,0 0.267294,-0.04423 0.30845,-0.24132 0.06134,-0.293093 0.490012,-2.8046639 0.490012,-2.8707413 0,-0.025892 -0.110832,-0.047036 -0.246322,-0.047036 h -0.24641 L 11.866837,10.32808 m 1.877293,-0.307133 c -0.104605,0.591189 -0.227279,1.264516 -0.27256,1.496095 -0.114165,0.583994 -0.112933,0.588031 0.17068,0.588031 0.267032,0 0.357592,-0.155761 0.360049,-0.619446 7.02e-4,-0.123466 0.05599,-0.299324 0.122857,-0.390851 0.110741,-0.151549 0.132681,-0.116098 0.246848,0.400065 0.118732,0.536871 0.139351,0.56776 0.396466,0.593208 l 0.271244,0.02685 L 14.87,11.342148 c -0.09337,-0.424985 -0.182174,-0.812237 -0.197444,-0.860501 -0.01518,-0.04827 0.156727,-0.364174 0.382075,-0.7020217 0.59084,-0.8858641 0.573202,-0.833651 0.280986,-0.833651 -0.223419,0 -0.313014,0.084862 -0.672098,0.6362073 -0.413667,0.6352424 -0.414282,0.6356804 -0.363999,0.2851959 0.02773,-0.1930553 0.07608,-0.4793928 0.107498,-0.6362072 0.0544,-0.2714185 0.0444,-0.285196 -0.20771,-0.285196 h -0.264926 l -0.190248,1.0749707 m 4.112882,-1.0530326 c -0.0042,0.012064 -0.134525,0.7247494 -0.289759,1.5838486 l -0.282213,1.561823 0.267909,-0.02615 c 0.253957,-0.02492 0.272471,-0.05335 0.357505,-0.549244 0.08855,-0.51625 0.09416,-0.523884 0.434375,-0.594614 0.440343,-0.09144 0.638752,-0.274315 0.751251,-0.692192 0.259661,-0.9642274 0.07186,-1.30541 -0.718519,-1.30541 -0.282124,0 -0.516337,0.00986 -0.520549,0.021935 m 1.816656,0.1265407 c -0.02694,0.087223 -0.107757,0.514055 -0.179629,0.9484313 -0.07195,0.434377 -0.171557,1.026707 -0.221488,1.316291 -0.04984,0.289585 -0.09083,0.575921 -0.09109,0.636208 -5.85e-4,0.11689 0.40103,0.15462 0.467284,0.04387 0.02939,-0.04914 0.388657,-2.0655243 0.527744,-2.9616544 0.0074,-0.048268 -0.09161,-0.099948 -0.220172,-0.1147752 -0.164272,-0.019043 -0.248339,0.020184 -0.282651,0.1316283 M 16.38312,9.503991 c -0.137947,0.1662035 -0.46035,2.01059 -0.367596,2.103346 0.170592,0.170591 0.394449,0.01012 0.46895,-0.336357 0.150058,-0.697108 0.305907,-1.7561069 0.26791,-1.8204306 -0.06205,-0.1051241 -0.261591,-0.076262 -0.369264,0.053444 M 8.4374646,10.32334 c -0.081347,0.473163 -0.1691871,0.97195 -0.1951619,1.108317 -0.043793,0.229563 -0.028785,0.245797 0.2024456,0.219382 0.2390381,-0.02738 0.2560624,-0.06072 0.3969046,-0.774505 C 9.0865712,9.6346581 9.0844658,9.5208428 8.8154108,9.4896895 8.5893589,9.4634474 8.58269,9.4782742 8.4374594,10.32334 M 18.27322,9.5383055 c -0.02229,0.036153 -0.06853,0.2534291 -0.102841,0.4826395 -0.05792,0.386726 -0.04888,0.416826 0.125231,0.416826 0.21043,0 0.35882,-0.292656 0.35882,-0.7077268 0,-0.1964773 -0.04046,-0.2575541 -0.170328,-0.2575541 -0.09372,0 -0.188581,0.029667 -0.21087,0.065819 m -7.80139,0.8775269 c -0.201129,0.662708 -0.202007,0.680874 -0.0365,0.709656 0.09346,0.01632 0.203323,-0.02317 0.244303,-0.08775 0.07547,-0.119082 0.109872,-1.301987 0.03783,-1.301987 -0.02158,0 -0.132154,0.305994 -0.245618,0.680083 m 1.028373,2.219618 c -0.03116,0.05037 0.0091,0.192003 0.0896,0.314769 0.08039,0.122675 0.123298,0.24597 0.0953,0.273963 -0.02799,0.02799 -0.0509,0.0048 -0.0509,-0.05142 0,-0.05634 -0.03949,-0.1024 -0.08776,-0.1024 -0.139176,0 -0.101791,0.175593 0.04976,0.233773 0.230701,0.08855 0.355222,-0.116358 0.18507,-0.304414 -0.189809,-0.209729 -0.190424,-0.379268 -0.0011,-0.306609 0.0982,0.03774 0.125218,0.02247 0.08258,-0.04659 -0.07871,-0.127422 -0.286775,-0.133735 -0.362593,-0.01103 m 0.748267,0.303274 c 0,0.353028 0.02088,0.394185 0.197443,0.387955 0.108549,-0.0038 0.148126,-0.02685 0.08775,-0.05116 -0.06028,-0.0244 -0.10969,-0.100221 -0.10969,-0.168574 0,-0.06845 0.04941,-0.124958 0.10969,-0.125658 0.07433,-9.35e-4 0.06731,-0.03133 -0.02194,-0.09442 -0.09907,-0.07011 -0.104515,-0.104164 -0.02194,-0.137596 0.171908,-0.06976 0.128474,-0.205429 -0.06582,-0.205429 -0.149531,0 -0.175506,0.05853 -0.175506,0.394887 m 0.877527,-0.05634 c 0,0.197004 -0.04774,0.368123 -0.10969,0.393133 -0.06924,0.0279 -0.0566,0.04678 0.03448,0.05116 0.228596,0.01103 0.366281,-0.613304 0.162957,-0.738967 -0.05291,-0.03265 -0.08775,0.08442 -0.08775,0.294674 m 0.581801,-0.141106 c -0.104333,0.389534 -0.06415,0.547928 0.142247,0.559774 0.180595,0.01038 0.194724,-0.02124 0.166555,-0.372948 -0.03326,-0.415422 -0.217627,-0.526956 -0.308802,-0.186826 m 0.73449,0.197443 c 0,0.37374 0.108549,0.524586 0.205166,0.285196 0.03536,-0.08776 0.04564,-0.08776 0.05116,0 0.0038,0.06037 0.04545,0.109691 0.09249,0.109691 0.05564,0 0.05564,-0.0789 0,-0.225086 -0.05687,-0.149531 -0.0551,-0.282214 0.0053,-0.394887 0.05475,-0.102323 0.05765,-0.169802 0.0074,-0.169802 -0.04598,0 -0.103464,0.04941 -0.127851,0.10969 -0.03536,0.08775 -0.04564,0.08775 -0.05116,0 -0.0038,-0.06029 -0.04643,-0.10969 -0.09468,-0.10969 -0.04827,0 -0.08775,0.177699 -0.08775,0.394887 M 15.7989,12.637513 c -0.03186,0.05142 -0.03203,0.119432 -4.67e-4,0.151022 0.03159,0.03159 0.09416,-7.01e-4 0.139087,-0.0717 0.07144,-0.112933 0.08144,-0.112583 0.08021,0.0026 -8.18e-4,0.0724 -0.05941,0.208326 -0.130313,0.301958 -0.178401,0.235967 -0.161553,0.312575 0.06862,0.310996 0.147074,-0.0011 0.166467,-0.02097 0.07608,-0.07819 -0.102141,-0.06476 -0.09969,-0.107758 0.01536,-0.272034 0.07512,-0.107316 0.115658,-0.249832 0.09004,-0.316699 -0.05529,-0.144002 -0.256676,-0.160588 -0.338637,-0.0279 m 0.786526,0.02413 c -0.02755,0.07186 -0.03729,0.242637 -0.02168,0.379443 0.02072,0.180683 0.07652,0.248691 0.204026,0.248691 0.146196,0 0.175506,-0.05853 0.175506,-0.349782 0,-0.263609 -0.0379,-0.357154 -0.153831,-0.379443 -0.08459,-0.01632 -0.176383,0.02914 -0.204026,0.10109 m 0.793022,-0.02413 c -0.03186,0.05142 -0.03203,0.119432 -4.68e-4,0.151021 0.03159,0.03159 0.09416,-7.01e-4 0.139088,-0.0717 0.07144,-0.112934 0.08144,-0.112583 0.0802,0.0026 -8.2e-4,0.0724 -0.05941,0.208325 -0.130313,0.301957 -0.178401,0.235968 -0.161553,0.312576 0.06862,0.310996 0.147073,-0.0011 0.166467,-0.02098 0.07608,-0.07818 -0.102141,-0.06476 -0.09969,-0.107757 0.01536,-0.272033 0.07512,-0.107317 0.115658,-0.249832 0.09004,-0.3167 -0.05529,-0.144002 -0.256677,-0.160586 -0.338639,-0.0279 m 0.786528,0.02413 c -0.02755,0.07186 -0.03729,0.242635 -0.02168,0.379443 0.0207,0.180682 0.07652,0.248691 0.204025,0.248691 0.146197,0 0.175505,-0.05853 0.175505,-0.349783 0,-0.263609 -0.0379,-0.357153 -0.153829,-0.379443 -0.08459,-0.01632 -0.176384,0.02914 -0.204026,0.10109 m -1.418962,0.277124 c 9.37e-4,0.193055 0.01895,0.261678 0.03993,0.152514 0.02097,-0.109158 0.02018,-0.26712 -0.0018,-0.351011 -0.02194,-0.08389 -0.03914,0.0054 -0.03818,0.198497 m 1.57955,0 c 9.35e-4,0.193055 0.01895,0.261678 0.03993,0.152514 0.02097,-0.109158 0.02018,-0.26712 -0.0018,-0.351011 -0.02194,-0.08389 -0.03914,0.0054 -0.03818,0.198497 m -7.936267,0.01606 c 0.06328,0.02536 0.139,0.02221 0.168135,-0.0069 0.02914,-0.02914 -0.02264,-0.04984 -0.115126,-0.04608 -0.102231,0.0042 -0.123025,0.02501 -0.053,0.053 m 9.126281,0 c 0.06326,0.02536 0.139002,0.02219 0.168135,-0.0069 0.02914,-0.02914 -0.02264,-0.04984 -0.115138,-0.04606 -0.102232,0.0042 -0.123026,0.02501 -0.053,0.053"
     stroke="none"
     fill="#fcf1e7"
     fill-rule="evenodd"
     id="path1-8"
     style="stroke-width:0.0877527" /></svg>
