<?xml version="1.0" encoding="UTF-8" standalone="no"?>
<svg
   viewBox="0 0 24 24"
   width="24pt"
   height="24pt"
   version="1.1"
   id="svg1"
   sodipodi:docname="knoops.svg"
   xml:space="preserve"
   inkscape:version="1.3 (0e150ed6c4, 2023-07-21)"
   xmlns:inkscape="http://www.inkscape.org/namespaces/inkscape"
   xmlns:sodipodi="http://sodipodi.sourceforge.net/DTD/sodipodi-0.dtd"
   xmlns="http://www.w3.org/2000/svg"
   xmlns:svg="http://www.w3.org/2000/svg"><defs
     id="defs1" /><sodipodi:namedview
     id="namedview1"
     pagecolor="#ffffff"
     bordercolor="#000000"
     borderopacity="0.25"
     inkscape:showpageshadow="2"
     inkscape:pageopacity="0.0"
     inkscape:pagecheckerboard="0"
     inkscape:deskcolor="#d1d1d1"
     inkscape:document-units="pt"
     inkscape:zoom="16.329747"
     inkscape:cx="16.411767"
     inkscape:cy="19.320569"
     inkscape:window-width="1920"
     inkscape:window-height="974"
     inkscape:window-x="-11"
     inkscape:window-y="1609"
     inkscape:window-maximized="1"
     inkscape:current-layer="svg1" /><path
     style="fill:#ffffff;stroke-width:0.834923"
     id="path2"
     sodipodi:type="arc"
     sodipodi:cx="11.987326"
     sodipodi:cy="9.9103861"
     sodipodi:rx="8.2211924"
     sodipodi:ry="8.2110319"
     sodipodi:start="0"
     sodipodi:end="6.2753717"
     sodipodi:open="true"
     sodipodi:arc-type="arc"
     d="M 20.208518,9.9103861 A 8.2211924,8.2110319 0 0 1 12.003385,18.121402 8.2211924,8.2110319 0 0 1 3.766196,9.9424649 8.2211924,8.2110319 0 0 1 11.939148,1.6994952 8.2211924,8.2110319 0 0 1 20.208267,9.846229" /><path
     d="m 15.207932,2.7374039 c 0.01849,0.00837 0.03698,0.016734 0.05604,0.025359 0.479251,0.2171928 0.927374,0.4827132 1.350667,0.7952209 0.01211,0.00885 0.02423,0.017803 0.03671,0.026972 0.170449,0.126026 0.331933,0.2626552 0.490805,0.4028481 0.01424,0.012503 0.02849,0.025005 0.04316,0.03789 0.126154,0.1119805 0.246749,0.2288449 0.365976,0.3480897 0.03161,0.031562 0.06337,0.062971 0.09513,0.09437 0.127544,0.1268654 0.243572,0.257723 0.355378,0.3988417 0.01686,0.020087 0.03383,0.040076 0.05098,0.059911 0.926392,1.0802278 1.482879,2.4692204 1.687863,3.8671425 0.0049,0.03279 0.0049,0.03279 0.0098,0.06624 0.0971,0.68512 0.09201,1.4182892 -0.0098,2.1024262 -0.0034,0.02357 -0.007,0.04715 -0.01049,0.07143 -0.253373,1.680391 -1.043315,3.213447 -2.242767,4.412709 -0.03015,0.03018 -0.06014,0.06053 -0.09012,0.09089 -0.124304,0.124997 -0.253897,0.238463 -0.391897,0.348432 -0.02176,0.01849 -0.04341,0.03711 -0.06487,0.05594 -0.152682,0.133332 -0.313427,0.251251 -0.480675,0.365654 -0.03762,0.02575 -0.07505,0.05172 -0.112475,0.07776 -0.20292,0.139657 -0.416084,0.260585 -0.63146,0.379836 -0.0151,0.0084 -0.03021,0.01692 -0.04576,0.02565 -1.114815,0.622178 -2.412385,0.917495 -3.683471,0.915824 -0.0167,-1.2e-5 -0.03341,-2.4e-5 -0.05061,-2.7e-5 -0.278613,-5.21e-4 -0.554081,-0.01005 -0.831018,-0.0427 -0.02103,-0.0024 -0.04205,-0.0048 -0.06372,-0.0073 -0.853496,-0.101397 -1.6807968,-0.346331 -2.4566298,-0.715582 -0.02401,-0.01137 -0.02401,-0.01137 -0.0485,-0.02295 -0.337843,-0.16101 -0.660299,-0.349264 -0.967453,-0.563174 -0.01049,-0.0072 -0.021,-0.01458 -0.03182,-0.02208 -0.494395,-0.344202 -0.981249,-0.742355 -1.373732,-1.201008 -0.03199,-0.03727 -0.06431,-0.07411 -0.09693,-0.110815 -0.362117,-0.409352 -0.67588,-0.864152 -0.939712,-1.34275 -0.01343,-0.02423 -0.01343,-0.02423 -0.02712,-0.04896 -0.529641,-0.964587 -0.849312,-2.037454 -0.93023,-3.135663 -0.0016,-0.02076 -0.0016,-0.02076 -0.0034,-0.04195 -0.131372,-1.6895742 0.307892,-3.4520926 1.253744,-4.8619841 0.0092,-0.013803 0.01838,-0.027628 0.02785,-0.041846 0.120462,-0.1805059 0.247508,-0.3548053 0.382442,-0.5247376 0.02164,-0.027344 0.02164,-0.027344 0.04373,-0.055256 0.09471,-0.1177607 0.194636,-0.2295695 0.297414,-0.3402286 0.03876,-0.042098 0.07621,-0.084665 0.113104,-0.1283681 0.15901,-0.1832654 0.336487,-0.3561649 0.52263,-0.5116396 0.01718,-0.015005 0.03435,-0.030021 0.05205,-0.045485 0.523984,-0.4558504 1.108118,-0.8140387 1.72587,-1.1267678 0.0143,-0.00733 0.02858,-0.014603 0.04329,-0.022127 0.760876,-0.3859813 1.6148198,-0.5966819 2.4575178,-0.7007672 0.0182,-0.00231 0.03639,-0.00463 0.05515,-0.00703 1.366638,-0.166283 2.821111,0.073468 4.067278,0.6517608 z m -3.184624,3.7707509 c 0,2.224353 0,4.4487042 0,6.7404622 0.29658,0 0.59316,0 0.898728,0 0,-1.115399 0,-2.230799 0,-3.3800002 0.03868,0 0.07738,0 0.117225,0 0.0044,0.01082 0.0087,0.02156 0.0132,0.03267 0.03399,0.05976 0.07779,0.1003372 0.127223,0.1480582 0.07663,0.07484 0.149334,0.151454 0.218881,0.232925 0.04246,0.04823 0.08819,0.09267 0.134016,0.137678 0.048,0.04885 0.09209,0.100774 0.136764,0.152639 0.04298,0.04835 0.08877,0.09331 0.134936,0.138598 0.03472,0.0353 0.06717,0.07167 0.09944,0.109211 0.07167,0.08241 0.145956,0.162008 0.221094,0.241244 0.02766,0.02928 0.05531,0.05856 0.08296,0.08784 0.01375,0.01455 0.0275,0.0291 0.04166,0.04411 0.06003,0.06367 0.11976,0.127633 0.179433,0.191647 0.01113,0.01192 0.02224,0.02385 0.03371,0.03614 0.02235,0.02398 0.04471,0.04797 0.06706,0.07194 0.04533,0.04862 0.0907,0.09723 0.136055,0.145825 0.03417,0.03661 0.06834,0.07321 0.102501,0.109823 0.04609,0.04938 0.09217,0.09872 0.13829,0.148058 0.106927,0.114428 0.213688,0.22899 0.319774,0.344196 0.111703,0.121281 0.224481,0.241536 0.337328,0.36175 0.07125,0.0759 0.142354,0.151937 0.213388,0.228041 0.0097,0.01049 0.01956,0.02095 0.02965,0.03174 0.01503,0.0161 0.01503,0.0161 0.03035,0.03252 0.01156,0.01151 0.02311,0.02303 0.03504,0.03488 0.03309,0.03785 0.05564,0.07144 0.081,0.11423 0.07274,0.110856 0.144767,0.189665 0.278427,0.218513 0.182791,0.0188 0.365753,0.01203 0.549052,0.0045 0.07609,-0.0028 0.152195,-0.004 0.228318,-0.0054 0.148724,-0.0028 0.297323,-0.0075 0.445967,-0.01335 -0.03229,-0.06859 -0.06911,-0.112487 -0.123559,-0.165764 -0.01688,-0.01667 -0.03377,-0.03334 -0.05117,-0.05052 -0.01769,-0.01728 -0.03539,-0.03456 -0.05362,-0.05236 -0.105539,-0.103474 -0.208969,-0.206725 -0.305108,-0.319031 -0.05987,-0.06781 -0.124882,-0.130511 -0.189438,-0.19383 -0.09003,-0.08831 -0.176036,-0.177973 -0.258337,-0.273525 -0.06059,-0.06817 -0.125934,-0.13153 -0.191026,-0.195376 -0.09003,-0.0883 -0.176037,-0.177974 -0.258338,-0.273526 -0.06059,-0.06817 -0.125935,-0.13153 -0.191026,-0.195376 -0.09003,-0.0883 -0.176037,-0.177974 -0.258339,-0.273526 -0.06059,-0.06817 -0.125934,-0.131529 -0.191026,-0.195375 -0.09023,-0.0885 -0.176463,-0.178371 -0.258949,-0.274137 -0.05729,-0.06459 -0.118988,-0.12461 -0.180647,-0.184997 -0.07412,-0.0726 -0.146558,-0.14542 -0.214302,-0.224071 -0.07116,-0.08252 -0.147539,-0.158798 -0.225292,-0.235061 -0.09101,-0.08927 -0.178193,-0.1798962 -0.261401,-0.2765032 -0.04396,-0.05012 -0.09044,-0.09674 -0.137898,-0.143555 -0.0169,-0.01672 -0.03379,-0.03344 -0.05121,-0.05068 -0.01252,-0.01229 -0.02503,-0.02458 -0.03793,-0.03724 0.122747,-0.149288 0.257826,-0.29015 0.405404,-0.415173 0.08094,-0.06889 0.154835,-0.144336 0.229568,-0.219798 0.08447,-0.08529 0.168936,-0.168144 0.26078,-0.245517 0.06205,-0.05575 0.120156,-0.115268 0.178815,-0.174541 0.142255,-0.143741 0.142255,-0.143741 0.213692,-0.203923 0.07989,-0.067463 0.15239,-0.1419066 0.225903,-0.2161347 0.08405,-0.084862 0.168083,-0.1672504 0.259483,-0.2442194 0.06582,-0.059332 0.127539,-0.1226589 0.189881,-0.1856064 0.08405,-0.084862 0.168084,-0.1672515 0.259484,-0.2442194 0.06582,-0.059332 0.127538,-0.12266 0.18988,-0.1856086 0.08405,-0.084862 0.168083,-0.1672504 0.259484,-0.2442194 0.07943,-0.071594 0.153484,-0.1488125 0.22867,-0.2248199 0.07536,-0.075889 0.151546,-0.1490704 0.234431,-0.2168352 0.03468,-0.031912 0.06038,-0.067485 0.08823,-0.105397 -0.751541,-0.1109104 -0.751541,-0.1109104 -1.441363,0.1169366 -0.191932,0.1635139 -0.353716,0.357166 -0.503161,0.5595567 -0.05482,0.072447 -0.114214,0.12972 -0.183802,0.1878053 -0.07353,0.062742 -0.14032,0.1324248 -0.208245,0.2011099 -0.02318,0.023289 -0.02318,0.023289 -0.04683,0.047059 -0.04895,0.04919 -0.09785,0.098446 -0.146715,0.147712 -0.06446,0.064971 -0.12898,0.1298915 -0.193545,0.1947646 -0.01451,0.014677 -0.02903,0.029355 -0.04399,0.04448 -0.07776,0.078119 -0.157442,0.1521338 -0.240924,0.2240669 -0.07213,0.064064 -0.139381,0.133009 -0.207193,0.201579 -0.01545,0.01553 -0.03091,0.03106 -0.04683,0.04706 -0.04895,0.04919 -0.09785,0.09845 -0.146717,0.147713 -0.06446,0.06497 -0.12898,0.129891 -0.193542,0.194764 -0.01451,0.01468 -0.02903,0.02936 -0.04399,0.04447 -0.07901,0.07938 -0.159663,0.155259 -0.244997,0.227829 -0.07435,0.06574 -0.141453,0.139625 -0.208843,0.212395 -0.01126,0.01166 -0.02251,0.02332 -0.03412,0.03533 -0.0098,0.01049 -0.01971,0.02097 -0.02985,0.03177 -0.03593,0.02516 -0.03593,0.02516 -0.153164,0.04469 0,-0.960663 0,-1.9213247 0,-2.9110985 -0.296579,0 -0.593159,0 -0.898727,0 z"
     fill="#2a2623"
     id="path1-4"
     style="stroke-width:0.0195376" /></svg>
