<svg xmlns="http://www.w3.org/2000/svg" width="24" height="24"><path fill="#616462" fill-rule="evenodd" d="M9.8 2.23c-.5.26-.9.9-.9 1.44 0 .26-.05.35-.24.43-.18.06-.36.34-.65.96-.23.48-.41.88-.41.9 0 .01.18.24.4.49.36.42.4.51.4 1.02v.55l1.06 1.21 1.19 1.35c.1.1.53-.05 2.26-.8l2.14-.93.03-.68c.03-.66.03-.67.37-.82.2-.07.35-.16.35-.2 0-.02-.13-.41-.3-.87-.16-.45-.3-.86-.3-.9s.16-.01.36.07c.4.16.74.2.74.07 0-.05-.36-.34-.8-.66-.64-.46-.8-.62-.8-.83 0-.33-.34-.93-.68-1.18-.37-.27-1.33-.33-1.68-.1-.26.17-.27.16-.63-.18-.63-.62-1.2-.72-1.91-.34M7.88 13.36c-.4.21-.48.43-.48 1.29 0 .67.03.79.24 1 .48.48 1.22.4 1.51-.16.18-.34.2-1.38.03-1.74a1.1 1.1 0 0 0-.85-.55c-.1 0-.3.07-.45.16m4.83-.02c-.37.2-.5.55-.5 1.34-.01.64.02.76.23.97q.5.48 1.07.25c.47-.2.59-.46.59-1.28 0-.84-.09-1.06-.5-1.27-.35-.18-.57-.18-.89-.01m2.4 0c-.4.23-.5.54-.5 1.59-.01.96 0 .97.23.97s.25-.04.28-.53c.03-.48.05-.52.28-.53.37-.03.6.23.6.68 0 .34.03.38.25.38.23 0 .25-.03.25-.48 0-.26-.05-.53-.12-.6-.09-.09-.09-.18 0-.37.07-.14.12-.36.12-.49 0-.51-.89-.91-1.39-.63m2.23.21c-.32.32-.34.38-.34 1 0 .84.18 1.2.65 1.36.42.14.87 0 1.1-.34.22-.3.2-1.64-.03-1.92-.42-.53-.91-.57-1.38-.1M5 14.6v1.3h.25c.22 0 .25-.04.25-.38 0-.49.28-.8.58-.63.23.12.32.32.32.72 0 .24.04.29.25.29.23 0 .25-.04.25-.45a1 1 0 0 0-.3-.77l-.28-.34.24-.4c.3-.49.3-.64.01-.64-.17 0-.3.13-.52.52-.42.72-.55.73-.55.04 0-.53-.01-.56-.25-.56H5zm4.8 0v1.3h.25c.22 0 .25-.04.25-.38 0-.38.23-.72.47-.72.2 0 .43.38.43.73 0 .33.03.37.25.37.23 0 .25-.04.25-.45a1 1 0 0 0-.3-.77l-.28-.34.24-.4c.3-.48.3-.64.04-.64q-.2 0-.55.55c-.2.31-.4.53-.45.5-.06-.03-.1-.28-.1-.56 0-.46-.02-.49-.25-.49H9.8zm-1.74-.74q-.16.16-.16.7 0 .95.4.94.51.02.5-.9 0-.9-.45-.9c-.07 0-.2.07-.3.16m4.8 0q-.15.15-.15.74 0 .9.45.9t.45-.9-.45-.9c-.07 0-.2.07-.3.16m2.4 0c-.26.26-.15.49.24.49.4 0 .62-.25.42-.5-.17-.2-.45-.2-.66.01m2.4 0q-.15.15-.15.74-.01.92.49.9c.3 0 .41-.22.41-.86q0-.94-.45-.94c-.07 0-.2.07-.3.16"/></svg>