<?xml version="1.0" encoding="UTF-8" standalone="no"?>
<svg
   viewBox="0 0 24 24"
   width="24pt"
   height="24pt"
   version="1.1"
   id="svg1"
   sodipodi:docname="pink_master_pin.svg"
   xml:space="preserve"
   xmlns:inkscape="http://www.inkscape.org/namespaces/inkscape"
   xmlns:sodipodi="http://sodipodi.sourceforge.net/DTD/sodipodi-0.dtd"
   xmlns="http://www.w3.org/2000/svg"
   xmlns:svg="http://www.w3.org/2000/svg"><defs
     id="defs1" /><sodipodi:namedview
     id="namedview1"
     pagecolor="#ffffff"
     bordercolor="#000000"
     borderopacity="0.25"
     inkscape:showpageshadow="2"
     inkscape:pageopacity="0.0"
     inkscape:pagecheckerboard="0"
     inkscape:deskcolor="#d1d1d1"
     inkscape:document-units="pt"
     showgrid="false"
     inkscape:lockguides="true"><inkscape:page
       x="0"
       y="0"
       width="24"
       height="24"
       id="page2"
       margin="0"
       bleed="0" /></sodipodi:namedview><g
     id="g1"
     transform="matrix(0.24719158,0,0,0.21387001,-35.301768,-13.340193)"><path
       d="m 198.33243,103.22576 c 6.2935,2.73445 10.27132,7.79178 13.29304,14.2872 0.64196,10.34965 -0.84472,16.01746 -7.22809,24.10966 -5.11263,4.24174 -10.66168,4.02452 -16.90188,3.73364 -7.08478,-1.30566 -9.74674,-5.24304 -14.25367,-11.05583 -2.16367,-5.68454 -2.39096,-10.73467 -1.49547,-16.78747 6.17593,-13.02979 13.55483,-16.01945 26.58607,-14.2872 z"
       fill="#f9f7f6"
       id="path6"
       style="fill:#f60002;fill-opacity:1;stroke-width:1.37812" /><path
       d="m 190.35661,80.366229 c 2.11331,-1.2054 3.27728,-0.885011 6.64652,1.025315 v 4.689566 c 1.06925,-0.02946 2.13852,-0.05893 3.24018,-0.08929 3.40634,0.08929 3.40634,0.08929 4.73564,1.518016 0.0954,2.170626 0.11153,4.345701 0.0831,6.518542 -0.012,1.180523 -0.0239,2.36106 -0.0363,3.577373 -0.0154,0.911652 -0.0308,1.823286 -0.0468,2.762579 -0.72826,-0.23207 -1.45652,-0.464123 -2.20686,-0.703203 -3.52619,-0.822533 -6.73146,-0.914871 -10.33844,-0.904113 -1.23205,-0.0043 -2.46409,-0.0071 -3.73347,-0.01143 -3.56595,0.184805 -6.83209,0.764323 -10.3073,1.618456 -0.0358,-2.113179 -0.0616,-4.226556 -0.0831,-6.339948 -0.0154,-1.176865 -0.0308,-2.353711 -0.0468,-3.566226 0.12988,-2.952316 0.12988,-2.952316 1.45913,-4.381036 2.21484,-0.05806 4.43174,-0.06104 6.64652,0 0.43867,-1.414434 0.87734,-2.828867 1.3293,-4.286161 0.87734,-0.471478 1.75468,-0.942956 2.65861,-1.428721 z"
       fill="#f6e9e4"
       id="path20"
       style="fill:#f60002;fill-opacity:1;stroke-width:1.37812"
       sodipodi:nodetypes="ccccccccccccccccccc" /><path
       d="m 183.71009,113.2268 c 2.22716,-0.50739 4.84128,-0.64409 6.91071,1.12337 0.50805,2.36616 -0.10771,5.05523 0.27253,7.44895 -1.3293,1.42872 -0.53672,1.42872 -3.85998,1.60731 -3.32326,-0.17859 -3.32326,-0.17859 -4.65256,-1.60731 -0.16616,-3.5718 -0.16616,-3.5718 0,-7.1436 0.43867,-0.47148 0.87734,-0.94295 1.3293,-1.42872 z"
       fill="#d81e1e"
       id="path74"
       style="fill:#f3f4f3;fill-opacity:1;stroke-width:1.37812"
       sodipodi:nodetypes="ccccccc" /></g></svg>
