<svg xmlns="http://www.w3.org/2000/svg" width="24" height="24"><path fill="#e2212d" fill-rule="evenodd" d="m5.22 7.43-.32.33.3.3.3.28.33-.32.32-.32-.3-.3-.3-.3zm1.38.4a1.6 1.6 0 0 0 .3 2.98 1.5 1.5 0 0 0 1.5-.38c.7-.62.76-1.53.16-2.2q-.84-.97-1.96-.4M3 9.3v1.6l.43-.03c.42-.03.42-.03.45-.46l.03-.44.5.46c.46.44.51.46 1.06.46h.58l-.73-.73c-.4-.4-.72-.77-.72-.84s.19-.27.41-.48l.41-.37-.3-.3-.3-.3-.46.37-.46.37V7.7H3zm6.2 0v1.6h.9V9.47l.74.71c.4.4.79.72.85.72.08 0 .11-.5.11-1.6V7.68l-.43.03-.42.03-.03.63-.03.63-.72-.65c-.4-.36-.78-.66-.84-.66-.1 0-.13.39-.13 1.6m3-1.2v.4h.5c.28 0 .5.02.5.05s-.22.5-.5 1.05c-.27.55-.5 1.06-.5 1.15 0 .13.2.15 1.2.15h1.2v-.8h-.56c-.3 0-.54-.03-.52-.07l.56-1.1c.28-.57.52-1.07.52-1.13s-.45-.1-1.2-.1h-1.2zm2.67-.34a6 6 0 0 0 .07 2.27c.32.75 1.23 1.1 1.95.73.58-.3.7-.66.71-1.93V7.7h-.9v1c0 1.12-.09 1.4-.44 1.4-.38 0-.45-.2-.48-1.3l-.03-1.05-.4-.03c-.23-.02-.44 0-.48.04M18 9.3v1.6h.8V9.36l.35.34.35.34.28-.27c.15-.15.31-.27.35-.27s.07.32.07.7v.7h.8V9.3c0-1.2-.03-1.6-.12-1.6-.07 0-.4.28-.75.62l-.62.62-.65-.62a4 4 0 0 0-.75-.62Q18 7.69 18 9.3M6.8 8.7a.8.8 0 0 0-.2.55c0 .45.3.75.73.75.66 0 .98-.7.56-1.24A.75.75 0 0 0 6.8 8.7"/></svg>