<svg xmlns="http://www.w3.org/2000/svg" width="24" height="24"><path fill="#000101" fill-rule="evenodd" d="M6 7.2c0 1.1.02 1.21.18 1.18q.17-.03.22-.4c.04-.31.42-.78.63-.78.03 0 .31.27.63.6.5.52.94.77.94.52 0-.04-.27-.37-.6-.74l-.6-.67.57-.43c.55-.41.56-.43.3-.46-.22-.03-.47.1-1.02.52-.41.3-.77.56-.8.56s-.05-.25-.05-.55c0-.48-.02-.55-.2-.55S6 6.07 6 7.2m3.3-.27c0 .88.02.95.26 1.18.23.21.35.24 1.04.24s.81-.03 1.04-.24c.24-.23.26-.3.26-1.18 0-.86-.01-.93-.2-.93-.18 0-.2.07-.2.83 0 .69-.03.87-.18 1-.24.22-1.1.23-1.4.01-.2-.14-.22-.24-.22-1 0-.77-.02-.84-.2-.84s-.2.07-.2.93m3.62.24c.03 1.03.05 1.18.2 1.21s.18-.04.18-.42V7.5h.6c.59 0 .6 0 .9.45.19.27.39.45.5.45.26 0 .25-.08-.06-.53L15 7.49l.25-.2c.33-.26.35-.8.06-1.09-.18-.18-.33-.2-1.3-.2h-1.1zm3.25-.97c.04.17.14.2.54.2h.48l.03.97c.03.9.05.98.23.98s.2-.08.23-.97l.03-.97.52-.03c.4-.02.53-.07.55-.2.03-.16-.08-.18-1.31-.18-1.3 0-1.35 0-1.3.2m-2.87.55v.35h.79q1.27 0 .94-.48c-.08-.13-.29-.18-.92-.2l-.81-.03zM3.8 9.6c-.89.36-1.08 1.5-.34 2.05.85.65 2.26.26 2.48-.68L6 10.7h-.8c-.73 0-.8.02-.8.2 0 .17.07.2.52.2.5 0 .5 0 .33.2-.37.4-1.18.38-1.6-.05-.76-.76.5-1.76 1.47-1.17.35.2.58.2.58-.04 0-.38-1.29-.67-1.9-.43m8.2.1c-.43.27-.58.45-.66.86-.14.72.6 1.43 1.5 1.43.5 0 1.12-.33 1.3-.7.3-.55.24-.6-.65-.6-.71 0-.8.02-.77.18q.01.17.5.22.74.07.11.38c-.63.34-1.53-.09-1.53-.71 0-.37.06-.47.4-.7.32-.22.87-.22 1.26.02.22.13.35.16.48.09.14-.08.15-.12.04-.25-.37-.45-1.41-.56-1.98-.22m-5.2 1.04v1.15h1.26c1.14 0 1.25-.02 1.22-.17s-.17-.18-1.06-.2l-1.02-.04v-.59h.7c.63 0 .7-.02.7-.2s-.07-.2-.7-.2c-.68 0-.7 0-.7-.25 0-.24.01-.24.97-.27.84-.03.98-.05 1.01-.2S9.1 9.6 8.01 9.6H6.8zm3.2 0v1.15h.5V9.6H10zm5.1 0v1.15h1.25c1.18 0 1.25-.01 1.25-.2s-.07-.2-1-.2h-1v-.6h.65c.58 0 .65-.02.65-.2s-.07-.2-.65-.2c-.62 0-.65-.01-.65-.25s.02-.24.92-.27c.8-.03.93-.06.96-.2.03-.16-.08-.18-1.17-.18H15.1zm3.3 0c0 1.08.01 1.15.2 1.15.17 0 .2-.07.2-.4v-.4h.59c.57 0 .59 0 .85.4.2.3.33.4.52.4H21l-.31-.45c-.17-.25-.26-.45-.2-.45.2 0 .5-.4.5-.68 0-.17-.1-.37-.23-.5-.2-.2-.34-.22-1.3-.22H18.4zm.4-.4v.35h.63c.9 0 1.09-.07 1.05-.39-.03-.25-.05-.26-.86-.29L18.8 10z"/></svg>