<svg xmlns="http://www.w3.org/2000/svg" width="24" height="24"><path fill="#b29600" fill-rule="evenodd" d="m10.43 3.77-.33.04v2.03c0 2.03 0 2.04.23 2.1.12.03.31.06.42.06.21 0 .19.06 1.24-3.62l.2-.68-.72.02c-.4 0-.87.03-1.04.05m1.52 1.96-.63 2.19q-.04.16.27.32l.3.16.44-.67L13.7 5.6c.51-.79.89-1.47.84-1.51a9 9 0 0 0-1.82-.4c-.13 0-.3.42-.76 2.03M8.71 4.3c-.4.16-.75.3-.78.33-.05.06.86 3.19.97 3.3.04.05.24.05.44.02l.36-.07V5.94C9.7 4.45 9.67 4 9.58 4c-.07 0-.46.14-.87.3m5.06 2.13a33 33 0 0 0-1.36 2.23c0 .05.13.19.28.31l.28.22 2.17-1.87 2.17-1.87-.28-.23a8 8 0 0 0-1.77-.92c-.06 0-.73.96-1.49 2.13M6.82 5.31l-.62.42.19.3.76 1.34.57 1.03.36-.16.4-.18c.02-.03-.15-.67-.38-1.43l-.46-1.55c-.07-.24-.1-.24-.82.23m8.6 2.3L13.2 9.5l.23.32.23.35a91 91 0 0 0 5.72-2.66c.03-.1-1.54-1.82-1.68-1.82-.04 0-1.07.86-2.28 1.9m-10.17-1c-.4.4-.48.54-.4.67.07.1.52.54 1 .99l.9.82.32-.26.32-.27-.77-1.22c-.42-.67-.8-1.22-.82-1.23-.03 0-.28.23-.55.5m-1.2 1.57c-.19.32-.35.62-.35.68s.51.36 1.14.67l1.13.57.22-.3c.11-.15.21-.32.21-.37s-.45-.47-1-.95l-.99-.86zm12.67 1.06a20 20 0 0 0-2.83 1.44c0 .1.67.13 3.55.13 1.95 0 3.55-.02 3.55-.04l-.3-.83c-.36-.91-.9-1.96-1.05-1.99-.05-.01-1.37.57-2.92 1.29m-13.38.29c-.15.4-.35 1.01-.35 1.04 0 .02.63.04 1.4.04s1.4-.04 1.4-.08c0-.06-1.5-.77-2.32-1.1q-.07-.03-.13.1M3 12.85v1.35h.65c.63 0 .65 0 .65-.25 0-.22-.04-.25-.35-.25H3.6v-2.2H3zm2.2-1.3-.25 1.21c-.32 1.5-.32 1.52.04 1.46q.28-.04.34-.23c.07-.25.43-.25.5.01q.04.21.36.2c.17 0 .3-.03.3-.07s-.12-.64-.28-1.33l-.27-1.25-.37-.03c-.2-.02-.37 0-.37.03m2.47.15a1.4 1.4 0 0 0-.38.57c-.14.44-.06 1.36.15 1.69.31.47 1.05.44 1.3-.06.15-.28.15-.3-.05-.4-.19-.1-.25-.09-.39.1-.28.38-.46-.07-.41-1.08.01-.38.26-.53.45-.27.1.14.16.16.34.06.2-.11.21-.14.07-.4-.23-.46-.66-.54-1.08-.2m1.53.81c0 .62.05 1.13.13 1.28.27.54.94.63 1.37.2.18-.18.2-.34.2-1.35V11.5h-.6v1.05c0 .86-.03 1.07-.15 1.12q-.15.04-.23-.02a5 5 0 0 1-.1-1.1l-.04-1.05H9.2zm2.1.32v1.35h.3c.27 0 .3-.02.32-.47l.04-.48.14.48c.13.44.16.47.47.47.18 0 .33-.01.33-.03l-.16-.5c-.14-.42-.14-.48 0-.69.19-.26.2-.86.03-1.09q-.3-.39-1.01-.39h-.46zm2.27-.07-.27 1.35c0 .04.13.07.3.07q.29 0 .35-.2c.03-.11.15-.2.25-.2s.22.09.25.2q.05.2.36.2c.16 0 .29-.03.29-.07l-.27-1.36-.26-1.27h-.74zm2.17-1.13c-.34.23-.47.68-.42 1.46.03.63.07.74.31.95.47.4 1.05.28 1.22-.27.08-.24.07-.24-.21-.33q-.23-.09-.27.14c-.03.1-.1.2-.16.2-.3 0-.42-1.22-.16-1.56.14-.18.16-.18.28-.02.16.2.57.14.57-.09 0-.22-.47-.63-.72-.63a1 1 0 0 0-.44.15m1.72 1.13-.26 1.35c0 .04.13.07.29.07q.29 0 .34-.2.07-.19.25-.2a.3.3 0 0 1 .27.2q.06.2.37.2c.26 0 .3-.03.25-.22l-.28-1.36-.23-1.12h-.73zm2.2-1.17c-.49.29-.63 1.7-.23 2.3s1.15.5 1.43-.16a2.6 2.6 0 0 0-.01-1.7c-.23-.48-.77-.68-1.18-.44m.24.68c-.23.42-.06 1.58.22 1.49.18-.07.3-.8.2-1.24s-.27-.54-.42-.25"/></svg>