<svg xmlns="http://www.w3.org/2000/svg" width="24" height="24"><path fill="#f68c30" fill-rule="evenodd" d="M3 6.17c0 .29.03.34.12.25a.5.5 0 0 1 .3-.12c.18 0 .2.07.16 1.05L3.55 8.4h.8l-.03-1.06-.04-1.07.31.06c.3.06.31.05.31-.23v-.3H3zm2.33.75-.48 1.31c-.07.16-.03.18.36.15q.44-.03.45-.18l.02-.27q.03-.12.42-.13.38 0 .42.13l.02.27q0 .15.44.18c.5.04.51.2-.08-1.47l-.38-1.06-.39-.03-.38-.03zm2.32.2v1.3l.8-.04c.66-.04.81-.08.97-.28a.7.7 0 0 0-.02-.95c-.18-.2-.19-.23-.05-.35.21-.17.19-.56-.05-.8-.16-.16-.33-.2-.93-.2h-.72zm2.4-.01v1.3h.72c.52 0 .73-.04.73-.12s.03-.23.06-.35c.06-.2.03-.21-.36-.16l-.41.06.03-1.02.03-1.01h-.8zm1.9 0v1.3h.74l.03-1.3.03-1.3h-.8zm1.15-1c0 .28.02.3.33.28l.32-.03v2.06l.39-.03.39-.03-.02-1.04-.02-1.04.3.06c.3.06.31.05.31-.23v-.3h-2zm2.75-.17L15 8.37c0 .02.18.03.4.03.35 0 .39-.03.42-.28.03-.24.07-.27.43-.27s.4.03.43.28.07.27.49.27c.24 0 .43-.03.41-.08l-.47-1.3-.44-1.22h-.39c-.22 0-.4.05-.43.13m2.19.67.01.6h.4c.5 0 .65-.14.65-.55 0-.4-.27-.65-.72-.65h-.36zm1.26 0v.6h.4q.42 0 .4-.15t-.2-.12q-.17 0-.17-.08.02-.09.14-.07t.13-.13q-.02-.14-.2-.15t-.2-.1c0-.05.12-.1.26-.1.4 0 .23-.25-.2-.28l-.36-.03zm1 .01v.6h.35q.36 0 .35-.15t-.21-.15c-.19 0-.2-.05-.17-.45.03-.38 0-.45-.14-.45s-.18.1-.18.6m-12-.04c0 .2.04.25.22.22a.3.3 0 0 0 .26-.25c.03-.19-.01-.23-.22-.23s-.26.05-.26.26m10.1.09c0 .33.02.35.2.25.25-.14.23-.53-.03-.58-.14-.03-.17.04-.17.33m-2.23.07-.13.42q-.09.17.2.16c.29 0 .31-.1.12-.55l-.13-.3zm-10.24.23c-.1.34-.1.35.17.35.28 0 .28 0 .17-.35-.06-.2-.13-.35-.17-.35s-.11.16-.17.35m2.37.6c0 .36.1.42.44.29.22-.08.2-.41-.03-.54-.32-.17-.41-.12-.41.25m9.77.11c-.18.18.17.24 1.49.24 1.21 0 1.44-.02 1.44-.15s-.23-.15-1.43-.15c-.8 0-1.47.03-1.5.06M6.53 9.06c-.1.23-.1.24.2.24.27 0 .56-.22.57-.43 0-.04-.15-.07-.32-.07-.25 0-.36.06-.45.25m11.6.6c-.9.38-.98 1.88-.14 2.38.36.21 1.12.22 1.51.02.16-.09.36-.29.45-.45.2-.39.2-1.15-.02-1.5-.32-.55-1.12-.75-1.8-.45M3.6 9.9c0 .28.02.3.3.23l.31-.06-.02 1.04-.02 1.04.4.03.38.03-.03-1.07-.04-1.07.36.07c.35.07.36.06.36-.24v-.3h-2zm2.76-.22c-.08.13-.86 2.34-.86 2.44 0 .04.18.08.4.08q.4 0 .4-.12c-.06-.43 0-.5.43-.46.38.03.42.06.45.3.03.25.07.28.41.28q.62 0 .42-.24c-.04-.06-.26-.62-.47-1.23L7.15 9.6h-.37c-.2 0-.4.04-.42.08m1.89 1.22v1.3l.4-.02.4-.03-.03-.45c-.04-.48-.02-.48.42.13.22.3.33.37.62.37.18 0 .34-.03.34-.07s-.15-.28-.34-.52l-.33-.43.24-.24a.75.75 0 0 0-.02-1.1c-.21-.21-.33-.24-.97-.24h-.73zm2.25-1c0 .28.02.3.3.23l.31-.06-.02 1.04-.02 1.04.4.03.38.03-.03-1.07-.04-1.07.31.06c.3.06.31.05.31-.23v-.3h-1.9zm2.32.87-.45 1.28c0 .05.16.1.38.1q.4 0 .41-.15l.02-.27q.03-.12.42-.13.38 0 .42.13l.02.27q0 .15.44.18c.23.02.42 0 .42-.05 0-.04-.2-.62-.44-1.28l-.43-1.2-.4-.03-.38-.03zm2.33.13v1.3h.37c.37 0 .57-.13.38-.25-.11-.07-.14-.65-.03-.65.05 0 .2.2.36.45.26.4.32.45.68.45.21 0 .39-.03.39-.06s-.16-.26-.35-.51c-.34-.44-.34-.47-.16-.6.28-.19.35-.65.17-1.01-.2-.37-.32-.42-1.14-.42h-.67zM9 10.4c0 .26.04.3.26.3s.25-.04.22-.27q-.02-.29-.26-.31c-.19-.03-.22.01-.22.27m6.8.01c0 .28.03.31.27.28.22-.02.28-.08.28-.28s-.06-.26-.28-.28c-.24-.03-.27 0-.27.28m2.57-.1c-.53.42-.25 1.3.41 1.3.38 0 .66-.32.66-.76 0-.61-.6-.91-1.07-.54m-11.75.3c-.17.46-.15.5.13.5s.28-.01.11-.5l-.13-.34zm6.8.16c-.1.34-.1.35.18.35s.28 0 .17-.35c-.06-.2-.13-.35-.17-.35s-.11.16-.17.35"/></svg>