<svg xmlns="http://www.w3.org/2000/svg" width="24" height="24"><path fill="#d4272b" fill-rule="evenodd" d="M3.18 6.3c-.16.1-.18.34-.18 2.65 0 2.17.02 2.56.16 2.7.14.13 1.07.15 8.8.15q8.65 0 8.85-.1c.18-.1.19-.24.19-2.7s-.01-2.6-.2-2.7c-.26-.14-17.38-.13-17.62 0m1.28 2.35c-.4 1.63-.36 1.78.56 1.73.4-.02.54-.07.56-.2.03-.15-.04-.18-.42-.18-.56 0-.57-.04-.21-1.38l.25-.98q-.01-.04-.24-.04c-.22 0-.26.08-.5 1.05m4.9-.7c-.06.32-.1.35-.41.35-.52 0-.83.19-1.05.65s-.26 1.15-.08 1.33c.07.07.38.12.7.12.44 0 .6-.04.67-.17.07-.15.71-2.46.71-2.6q-.01-.02-.24-.03c-.2 0-.25.07-.3.35m.8-.22c-.22.65-.65 2.5-.6 2.58.03.05.3.09.59.09q1-.01 1.25-.88.33-1.22-.63-1.22c-.27 0-.28-.02-.21-.35.06-.31.04-.35-.15-.35q-.2.01-.26.13m5 0c-.1.33-.65 2.45-.65 2.55q.02.11.2.12c.15 0 .23-.12.34-.47l.14-.48.2.48c.17.38.26.47.47.47.3 0 .3-.03 0-.6l-.24-.45.52-.52c.47-.49.5-.53.27-.53q-.24.02-.67.42c-.47.46-.5.41-.28-.42l.15-.62c0-.13-.4-.09-.45.05m-8.64.69c-.13.07-.33.25-.44.4-.24.33-.35 1.21-.17 1.43.14.17.53.2.8.05q.2-.1.2 0 .02.09.18.1c.15 0 .24-.19.44-.97.15-.54.25-1 .23-1-.1-.12-1.04-.12-1.24-.01m5.43-.01c-.07.12-.54 1.78-.54 1.92q.02.08.22.05c.17-.02.25-.16.4-.73.23-.82.32-.95.64-.95q.25 0 .24-.2.01-.33-.4-.1-.2.1-.2 0c0-.13-.27-.13-.36.01m1.51-.02c-.4.17-.75.81-.75 1.4 0 .64.89.84 1.4.33.26-.27.5-.85.5-1.24 0-.44-.62-.7-1.15-.49m3.44.06c-.5.27-.77 1.45-.43 1.8.25.24 1.27.17 1.32-.09.04-.17 0-.18-.35-.13-.45.08-.8-.1-.7-.36.04-.12.22-.17.69-.19l.63-.03.03-.42c.03-.33-.01-.44-.2-.57q-.44-.3-1 0m1.74 0c-.35.25-.3.66.16 1.02.3.25.35.33.24.44-.07.07-.32.13-.55.13q-.44 0-.42.15c0 .11.14.16.52.18.45.03.56 0 .78-.22.34-.34.32-.52-.15-.93-.22-.2-.37-.4-.34-.44.03-.05.25-.09.49-.09q.43 0 .48-.14c.11-.29-.83-.37-1.2-.1m-12.11.37a2 2 0 0 0-.24.6c-.1.4-.1.5.01.57.35.21.73-.19.86-.92.07-.37.06-.38-.23-.38-.16 0-.34.06-.4.13m1.9 0a2 2 0 0 0-.22.55q-.18.72.3.72c.24 0 .34-.16.53-.82l.16-.58h-.34c-.18 0-.37.06-.43.13m1.95-.05c-.03.04-.12.33-.2.65-.16.62-.11.73.3.63.28-.08.53-.57.53-1.06 0-.27-.03-.3-.3-.3-.16 0-.3.03-.33.08m3.11.1c-.2.23-.39.79-.32.97.08.21.48.19.68-.04.1-.1.18-.38.19-.62.02-.38-.01-.44-.19-.47a.5.5 0 0 0-.36.15m3.6-.06c-.33.19-.21.39.22.39.4 0 .45-.05.34-.34-.07-.18-.3-.2-.57-.05"/></svg>