<svg xmlns="http://www.w3.org/2000/svg" width="24" height="24" viewBox="0 0 24 24"><path fill="#5a6568" fill-rule="evenodd" d="M12.82 2.12c-.07.07-.12.28-.12.48 0 .3-.07.4-.56.78a2.1 2.1 0 0 0-.94 1.82c0 1.04.19 1.4 1.44 2.75L13.8 9.2c.27.3.5.62.5.7 0 .1.09.24.2.31q.2.13.28.69c.06.47.1.55.3.58.14.02.35 0 .49-.03a3.6 3.6 0 0 0 1.38-1.32c.08-.18.19-.33.24-.33.06 0 .11-.18.11-.4s-.04-.4-.1-.4c-.05 0-.18-.17-.29-.37-.26-.52-.89-1.09-1.99-1.83a7 7 0 0 1-1.17-.94c-.57-.74-.12-1.44 1.08-1.7q.27-.06.27-.25c0-.11-.12-.3-.27-.4-.16-.13-.58-.51-.95-.87-.68-.65-.85-.73-1.06-.52m-4.67.56c-.18.13-.62.76-.9 1.3-.26.5-.27.6-.22 1.34.06.7.04.83-.13 1.06-.3.37-.21 1.2.17 1.64.13.15.12.2-.07.46-.19.25-.2.34-.11.68.06.22.26.55.45.73.29.28.33.38.25.53-.22.4.27 1 1 1.22.45.13.56.13 1.32-.06.46-.12.93-.3 1.05-.4.25-.22.86-.25.78-.04-.03.08-.17.17-.32.2-.15.04-.36.16-.47.26l-.57.52c-.72.65-.92 1.04-.96 1.93-.07 1.6.38 1.77 1.56.57.13-.13.3-.22.4-.2.16.03.2.1.6.93.1.22.31.47.46.55.26.14.28.14.56-.2a2 2 0 0 0 .36-.6c.07-.25.54-1.32.8-1.81.22-.43.45-1.57.39-1.97l-.1-.7a.6.6 0 0 0-.35-.47c-.37-.19-.69-.2-.76 0-.03.08-.16.17-.27.21s-.35.17-.5.3c-.3.26-.72.33-.65.12.03-.07.14-.18.26-.24s.3-.18.4-.27c.1-.08.3-.2.45-.26.23-.09.27-.16.27-.5 0-.3-.05-.4-.25-.5a32 32 0 0 1-3.1-3.2L9.39 5a7 7 0 0 1-.89-1.98c0-.23-.22-.44-.35-.34"/></svg>