<svg xmlns="http://www.w3.org/2000/svg" width="24" height="24"><path fill="#42778f" fill-rule="evenodd" d="M10.55 2.14a7.02 7.02 0 0 0-.4 13.63c.84.25 2.86.25 3.7 0a7.3 7.3 0 0 0 4.25-3.32c.16-.27.41-.86.56-1.3.26-.72.28-.93.28-2.15s-.02-1.43-.28-2.15a7 7 0 0 0-4.51-4.5 8 8 0 0 0-3.6-.21m.11 1.52a5.7 5.7 0 0 0-4 4.06A5.52 5.52 0 0 0 12 14.5a5.56 5.56 0 0 0 5.35-4.22 5.5 5.5 0 0 0-6.69-6.62m1.24 1c-.33.07-1.4.55-1.4.63 0 .03.4.05.9.03l.9-.03v1c0 .6-.04 1.01-.1 1.01-.05 0-.19.09-.3.2-.18.18-.2.33-.2 1.85V11h.44c.47 0 .9-.26 1.01-.6.06-.19.14-.2.83-.18l.77.03.05.7.05.7.5-.5c.28-.28.64-.77.8-1.1.27-.54.3-.7.3-1.6 0-.88-.03-1.07-.27-1.57a4.2 4.2 0 0 0-1.85-1.9 3 3 0 0 0-1.41-.34 7 7 0 0 0-1.02.03M8.8 6.4q0 .51.13.5c.08 0 .21.08.3.18.15.16.17.46.17 2.15 0 1.84-.01 1.98-.2 2.17-.11.11-.24.2-.3.2s-.1.3-.1.7v.7h5.4l-.02-1.07-.03-1.08-.29-.03c-.21-.03-.36.04-.54.23-.36.39-.82.55-1.57.55h-.65V9.47c0-1.76.03-2.16.16-2.35.08-.12.22-.22.3-.22.1 0 .14-.13.14-.5v-.5H8.8z"/></svg>