<svg xmlns="http://www.w3.org/2000/svg" width="24" height="24"><path fill="#593953" fill-rule="evenodd" d="M3 7.65V8.7h.6c.47 0 .6-.03.6-.15s-.12-.15-.45-.15H3.3v-.9c0-.73-.03-.9-.15-.9S3 6.78 3 7.65m1.8 0V8.7h.6c.47 0 .6-.03.6-.15s-.12-.15-.45-.15c-.43 0-.45-.01-.45-.3s.02-.3.4-.3q.42 0 .4-.15.02-.15-.4-.15c-.38 0-.4-.02-.4-.3 0-.29.02-.3.46-.3.69 0 .52-.24-.2-.28l-.56-.03zm1.8 0c0 .96.02 1.06.18 1.03q.16-.04.15-.1c-.02-.05-.03-.5-.03-1.03 0-.78-.03-.95-.15-.95s-.15.18-.15 1.06m1.5-.93c-.34.17-.62.74-.55 1.12.11.62.73.95 1.5.8.34-.06.35-.07.35-.56v-.5l-.32.03c-.37.04-.5.27-.19.35.34.09.22.37-.18.41-.72.07-1.1-.83-.55-1.27.3-.23.59-.26.98-.11q.28.11.26-.05c0-.33-.81-.47-1.3-.22m2 .92c0 .96.02 1.06.18 1.03q.17-.01.2-.46l.03-.42h1.09v.45c0 .33.04.45.15.45.12 0 .15-.18.15-1.05s-.03-1.05-.15-1.05-.15.12-.15.45v.45h-1.09l-.03-.42q-.03-.45-.2-.46c-.16-.03-.18.07-.18 1.03m2.3-.9q-.01.15.35.15h.35v.9c0 .83.01.9.2.9s.2-.07.2-.9v-.9h.35q.35 0 .35-.15c0-.12-.17-.15-.9-.15s-.9.03-.9.15m2.38.14c-.28.25-.33.36-.33.76s.05.5.33.76c.82.73 2.15-.05 1.82-1.07-.26-.77-1.2-1-1.82-.45m2.52.76c0 .85.03 1.05.15 1.05.1 0 .15-.17.17-.75l.03-.76.64.76c.35.41.7.75.78.75.1 0 .13-.24.13-1.05 0-.85-.03-1.05-.15-1.05-.1 0-.15.17-.17.76l-.03.76-.65-.76a3 3 0 0 0-.77-.76c-.1 0-.13.27-.13 1.05m2.7-.86c-.35.36-.28.5.5 1.1q.23.17.17.36-.1.26-.7 0c-.24-.1-.23.21.02.35.5.26 1.01.01 1.01-.5 0-.23-.09-.35-.4-.56-.24-.16-.4-.34-.4-.47 0-.17.05-.19.36-.14.3.05.35.03.32-.11-.05-.26-.62-.28-.87-.03m-4.95.32c-.53.41-.18 1.29.5 1.29.33 0 .74-.42.74-.75s-.41-.75-.73-.75a1 1 0 0 0-.5.2M3 9.66c0 .13 1.07.15 9 .15s9-.02 9-.15-1.07-.15-9-.15-9 .02-9 .15m.04 1.2c-.1.23.03.45.24.45.25 0 .44-.23.36-.44s-.53-.21-.6-.01M8.1 11c0 .17.05.3.1.3q.1-.01.1-.17c0-.15.01-.15.19 0 .17.16.2.16.25.02.09-.25.07-.45-.04-.45q-.09.01-.1.17c0 .15-.01.15-.18 0-.26-.24-.32-.21-.32.13m5.62-.05c-.15.33-.16.32.17.32.27 0 .28-.02.19-.29-.12-.35-.21-.35-.36-.03m2.05-.18c-.1.1-.08.53.03.53q.1-.01.1-.17c0-.15.01-.15.18 0 .1.1.22.17.25.17.11 0 .08-.48-.03-.55q-.09-.03-.1.11c0 .16-.01.16-.18 0-.1-.09-.22-.13-.25-.1m1 0c-.24.24.14.72.42.54.14-.08.07-.3-.1-.3q-.09.01-.03.11t-.07.07c-.2-.07-.17-.33.04-.32q.16.01.17-.07c0-.1-.34-.12-.43-.02m3.03.23c0 .3.14.4.23.18q.06-.15.06 0 .01.1.1.12c.04 0 .06-.13.03-.3q-.04-.3-.23-.3c-.14 0-.19.07-.19.3m.8 0c0 .3.13.45.31.34q.12-.07-.02-.15-.18-.1 0-.09.15.01.02-.14-.14-.14.01-.2.1-.04-.1-.05c-.18 0-.22.04-.22.28"/></svg>