<svg xmlns="http://www.w3.org/2000/svg" width="24" height="24"><path fill="#313131" fill-rule="evenodd" d="M11.73 6.45a2.82 2.82 0 0 0-.14 5.02c.66.4 1.7.44 2.42.1a2.8 2.8 0 0 0 1.47-1.45c.2-.45.23-.65.2-1.25A2.6 2.6 0 0 0 14.9 7a2.5 2.5 0 0 0-1.9-.78c-.65-.03-.82 0-1.27.23M3 9v2.7h2.7v-1H4.1V6.3H3zm3.5 0v2.7h2.9v-1.11l-.93.02-.92.02-.03-.67-.03-.66H9.4v-1l-.93-.02-.92-.03-.03-.47-.03-.48H9.4v-1H6.5zm10.2 0v2.7h1l.02-1.72.03-1.72 1.12 1.72L20 11.7h1V6.3h-1l-.02 1.73-.03 1.72-1.14-1.72-1.13-1.73h-.98zm-4.61-1.59c-1 .58-1.2 1.98-.4 2.83.53.57 1.32.71 2 .36 1.27-.64 1.27-2.56 0-3.2a1.7 1.7 0 0 0-1.6.01"/></svg>