<svg xmlns="http://www.w3.org/2000/svg" width="24" height="24"><path fill="#43810a" fill-rule="evenodd" d="M11.25 4.4c-.75.75-.78.8-.62.97s.2.15.57-.22c.47-.46.49-.42.15.24-.22.44-.23.5-.1.62.13.1.24.09.6-.1.62-.29.65-.27.22.17l-.38.38.21.2c.2.18.22.17 1-.61l.8-.8-.26-.26-.26-.27-.54.24-.58.24c-.02 0 .09-.24.25-.53l.29-.54-.28-.26-.28-.27zm-1.19 1.1c-.17.19-.17.47 0 .92.07.17.04.17-.36.03-.42-.15-.44-.15-.66.08l-.23.23.72.23q.73.22 1.09.57l.35.35.19-.21c.18-.2.18-.21-.13-.53-.24-.25-.35-.5-.48-1.1-.1-.42-.2-.77-.24-.77s-.15.09-.25.2m3.22.98-.78.78.55.6c.52.56.55.58.72.42.17-.17.17-.2-.16-.53-.32-.33-.33-.36-.17-.52s.18-.15.45.1c.26.25.29.26.45.1s.15-.19-.1-.45c-.2-.22-.24-.3-.15-.4.1-.1.2-.04.47.22.33.32.36.33.52.17s.14-.2-.37-.72a5 5 0 0 0-.6-.55c-.03 0-.4.35-.83.78m-4.87.73a1.16 1.16 0 0 0-.18 2.09c.53.32.94.27 1.4-.19.29-.3.38-.47.38-.72 0-.46-.33-.97-.75-1.15-.4-.16-.5-.17-.85-.03m6.35.79-.8.8.23.22.23.23.41-.44.41-.43-.07.33c-.19.93-.19 1.14.02 1.32s.2.17.37-.32c.13-.42.2-.51.4-.51.33 0 .75-.37.75-.66q0-.26-.51-.8c-.29-.3-.55-.54-.58-.54-.04 0-.42.36-.86.8M8.4 10.9l-3.55 3.49h7.1l7.1.01-3.5-3.5C13.63 8.97 12.03 7.4 12 7.4s-1.65 1.57-3.6 3.5m-.08-3.08c-.4.4.29 1.29.84 1.08q.45-.18.19-.7c-.24-.46-.76-.65-1.03-.38m7.18.34c-.11.13-.1.19.08.37.2.2.23.2.39.04.16-.15.16-.18-.02-.37-.22-.24-.29-.25-.45-.04m-8.76.7c-.16.06-.46.3-.67.51l-.38.4.8.84.8.84.22-.22.23-.23-.37-.38c-.2-.2-.37-.4-.37-.44s.29.03.64.12l.64.18.21-.22.21-.22-.54-.17c-.45-.15-.53-.2-.49-.37.07-.25-.2-.66-.45-.72a1 1 0 0 0-.48.07m9.73.89-.78.8.56.55.55.56.2-.2.2-.2-.35-.35-.35-.34.62-.63c.6-.61.61-.63.43-.83-.1-.1-.2-.2-.24-.18-.03 0-.41.37-.84.82M6.7 9.49c-.24.19-.24.2-.05.4.18.2.2.2.38.05q.32-.3.04-.53c-.1-.09-.19-.07-.37.08m-1.77 1.04a3 3 0 0 0-.52.63c0 .05.33.42.74.83.72.71.74.73.97.58.13-.09.4-.34.6-.56.35-.37.36-.4.2-.55-.16-.14-.2-.13-.51.19-.32.33-.35.34-.52.18s-.17-.17.09-.45c.25-.27.26-.3.1-.45s-.18-.15-.45.1c-.24.23-.3.25-.4.14s-.05-.2.18-.42c.33-.31.37-.47.17-.63-.1-.09-.25 0-.65.41m13 .6-.83.83.21.2c.2.18.21.17 1.03-.64l.82-.82-.2-.2-.2-.2zm.73.77c-.78.79-.79.8-.6 1l.19.2.52-.51.53-.52-.15.64-.2.84q-.04.21.2.45l.27.24.8-.8c.43-.43.79-.8.79-.84s-.1-.11-.21-.18c-.2-.13-.26-.1-.72.35-.27.26-.47.41-.45.32.03-.08.14-.43.23-.78l.18-.63-.3-.29-.28-.29zm-15.48.38c-.15.17-.12.23.63.97l.8.8.55-.55c.52-.5.54-.55.38-.72-.16-.18-.18-.17-.48.12-.17.16-.35.3-.4.3a3 3 0 0 1-.65-.55c-.3-.3-.57-.55-.6-.55q-.08.02-.23.18"/></svg>