<svg xmlns="http://www.w3.org/2000/svg" width="24" height="24" viewBox="0 0 24 24"><path fill="#5a545b" fill-rule="evenodd" d="M3.2 4.4q.02.1.2.2c.2.11.55.68.46.77-.02.03-.12-.1-.2-.26-.1-.17-.23-.31-.31-.31-.19 0-.2.14 0 .3.07.06.34.54.6 1.05.8 1.66 2 2.68 3.44 2.95 1.82.34 3.76-.17 5.66-1.5 1.79-1.25 3.12-1.9 3.9-1.9.44 0 1.1.34 1.37.7.28.4.86.7 1.3.7.9 0 1.33 1.03.92 2.23-.17.5-.5.77-1.14.95-.38.1-.85-.01-.75-.18q.04-.09-.04-.1c-.16 0-.13.26.03.4.08.06.27.15.43.19.41.1.39.39-.07 1-.5.65-.44.8.1.22.65-.72.78-.25.19.73-.3.5-.3.79 0 .39.59-.8.75-1.17.8-1.94q.06-.77.23-.96c.54-.59.78-1.75.53-2.58-.38-1.32-2.33-2.64-3.9-2.65a3.6 3.6 0 0 0-2.51.86c-1.33 1.07-4.44 1.38-6.9.68-.43-.11-.57-.21-.75-.52-.31-.52-.47-.64-.71-.5q-.2.1-.31-.01-.25-.24-.27.07.01.48-.44.03c-.17-.17-.33-.3-.36-.29a3 3 0 0 1-.87-.56q-.21-.16-.23-.12t-.2-.04q-.2-.1-.2 0m-.14 4.57c.05.1.11 1.17.14 2.38l.05 2.2h1.5c1.45 0 1.5 0 1.53-.21.06-.41-.23-.55-1.07-.53l-.76.02-.03-1.93c-.02-1.4-.06-1.96-.15-2.02a2 2 0 0 0-.7-.08c-.53 0-.58.02-.5.17m10.65.5.03.38.53.03q.9.07.48-.53c-.14-.2-.25-.25-.62-.25h-.45zm-6.65.82c-1.22.67-1.1 2.62.2 3.16.68.29 2.23.08 2.23-.3 0-.28-.28-.4-.69-.27-.5.15-.97.04-1.21-.27-.38-.48-.3-.52 1-.52h1.2v-.37a2 2 0 0 0-.73-1.37c-.4-.3-1.49-.33-2-.06m2.63-.18.73 1.73.73 1.7h.86l.64-1.6c.36-.87.62-1.65.6-1.72-.06-.14-.54-.18-.72-.05-.06.04-.25.49-.43 1l-.36.92c-.02 0-.2-.42-.4-.94-.28-.71-.42-.95-.58-1a4 4 0 0 0-1.07-.04m4.04.1c-.02.08-.03.86-.02 1.73l.03 1.6h1.1l.03-1.52c.02-1.42.01-1.54-.18-1.73-.23-.23-.88-.28-.96-.07m2.3-.07c-.13.03-.34.16-.48.29-.6.55-.4 1.31.4 1.6l.77.27q.25.11.27.3c0 .3-.46.4-1.27.24-.43-.08-.43-.07-.43.21 0 .45.16.53 1.02.53q1.86.01 1.82-1.13-.02-.78-1.18-1.11c-.6-.18-.7-.25-.56-.46.07-.11.27-.14.75-.13.62.02.66 0 .76-.24.05-.14.07-.29.03-.32a8 8 0 0 0-1.9-.05m-8.5.79c-.25.38-.13.51.5.54.53.02.56 0 .56-.22 0-.55-.76-.78-1.06-.32"/></svg>