<svg xmlns="http://www.w3.org/2000/svg" width="24" height="24"><path fill="#f87219" fill-rule="evenodd" d="M8.12 5.4c-.3.12-.45.55-.37 1.02.08.45.27.58.89.58.59 0 .76-.18.76-.8 0-.78-.52-1.1-1.28-.8m9.48.6c-.54.11-1.13.48-1.4.87-.35.52-.5 1.26-.5 2.44 0 1.15.15 1.85.52 2.4.72 1.06 2.93 1.21 3.94.28.64-.6.8-1.12.79-2.78 0-1.19-.03-1.41-.24-1.86-.27-.6-.61-.97-1.14-1.19A4.4 4.4 0 0 0 17.6 6M3.02 8.68c.03 3.1.06 3.18.92 3.61.43.22.66.25 1.88.3l1.38.04V11H5.96c-1.04 0-1.25-.03-1.3-.16a31 31 0 0 1-.06-2.5V6H2.99zm7.38.62v3.3H12v-1.98l.9-.04c.76-.03.95-.08 1.36-.34.68-.41.93-.96.94-1.97 0-.84-.17-1.32-.62-1.74C14.1 6.08 13.71 6 12 6h-1.6zm-2.58.68.03 2.57h1.5l.03-2.57.02-2.58H7.8zm9.9-2.31c-.25.25-.3.4-.37 1-.12 1.18.1 2.21.5 2.37.21.08.79.08 1 0 .43-.17.68-1.59.46-2.65-.14-.67-.35-.89-.9-.96-.35-.05-.44-.02-.7.24M12 8.3v.8h.6c.47 0 .64-.04.8-.2.24-.24.27-.86.04-1.18-.13-.19-.24-.22-.8-.22H12z"/></svg>