<?xml version="1.0" encoding="UTF-8" standalone="no"?>
<!-- Generator: Gravit.io -->

<svg
   style="isolation:isolate"
   viewBox="0 0 24 24"
   width="24pt"
   height="24pt"
   version="1.1"
   id="svg8"
   sodipodi:docname="londis.svg"
   inkscape:version="1.4 (86a8ad7, 2024-10-11)"
   xmlns:inkscape="http://www.inkscape.org/namespaces/inkscape"
   xmlns:sodipodi="http://sodipodi.sourceforge.net/DTD/sodipodi-0.dtd"
   xmlns="http://www.w3.org/2000/svg"
   xmlns:svg="http://www.w3.org/2000/svg">
  <sodipodi:namedview
     id="namedview8"
     pagecolor="#ffffff"
     bordercolor="#000000"
     borderopacity="0.25"
     inkscape:showpageshadow="2"
     inkscape:pageopacity="0.0"
     inkscape:pagecheckerboard="0"
     inkscape:deskcolor="#d1d1d1"
     inkscape:document-units="pt"
     inkscape:zoom="24.15625"
     inkscape:cx="16"
     inkscape:cy="16"
     inkscape:window-width="1920"
     inkscape:window-height="991"
     inkscape:window-x="-9"
     inkscape:window-y="-9"
     inkscape:window-maximized="1"
     inkscape:current-layer="svg8" />
  <defs
     id="defs1">
    <clipPath
       id="_clipPath_mQudfkUxdn84G63L1PdvUQNvvqLIQVPu">
      <rect
         width="24"
         height="24"
         id="rect1" />
    </clipPath>
  </defs>
  <g
     clip-path="url(#_clipPath_mQudfkUxdn84G63L1PdvUQNvvqLIQVPu)"
     id="g8"
     style="fill:#000000">
    <g
       id="g7"
       style="fill:#000000">
      <path
         d=" M 16.695 7.618 C 16.769 7.545 16.834 7.545 16.908 7.618 L 17.238 7.947 C 17.313 8.024 17.325 8.086 17.244 8.167 L 16.907 8.503 C 16.834 8.576 16.769 8.576 16.695 8.503 L 16.366 8.174 C 16.289 8.097 16.278 8.035 16.359 7.954 L 16.695 7.618 Z "
         fill="rgb(255,255,255)"
         id="path1"
         style="fill:#000000" />
      <path
         d=" M 6.345 11.814 L 4.184 11.814 C 4.06 11.814 3.994 11.785 3.994 11.625 L 3.994 7.888 C 3.994 7.782 4.048 7.723 4.16 7.723 L 4.758 7.723 C 4.888 7.723 4.935 7.764 4.935 7.9 L 4.935 11.021 L 6.137 11.021 C 6.278 11.021 6.302 11.091 6.342 11.193 C 6.383 11.296 6.481 11.537 6.522 11.642 C 6.562 11.747 6.445 11.814 6.345 11.814"
         fill="rgb(255,255,255)"
         id="path2"
         style="fill:#000000" />
      <path
         d=" M 8.053 9.548 C 7.615 9.548 7.474 9.926 7.474 10.359 C 7.474 10.797 7.598 11.193 8.035 11.193 C 8.473 11.193 8.615 10.802 8.615 10.371 C 8.615 9.933 8.491 9.548 8.053 9.548 M 8.023 11.891 C 7.023 11.891 6.556 11.246 6.556 10.365 C 6.556 9.495 7.106 8.85 8.065 8.85 C 9.064 8.85 9.533 9.495 9.533 10.376 C 9.533 11.246 8.981 11.891 8.023 11.891"
         fill="rgb(255,255,255)"
         id="path3"
         style="fill:#000000" />
      <path
         d=" M 12.468 11.814 L 11.924 11.814 C 11.799 11.814 11.752 11.749 11.752 11.637 L 11.752 10.063 C 11.752 9.814 11.687 9.649 11.415 9.649 C 11.22 9.649 10.977 9.738 10.811 9.88 L 10.811 11.643 C 10.811 11.755 10.764 11.814 10.645 11.814 L 10.09 11.814 C 9.989 11.814 9.924 11.761 9.924 11.654 L 9.924 9.105 C 9.924 8.992 9.965 8.933 10.096 8.933 L 10.581 8.933 C 10.669 8.933 10.735 8.957 10.746 9.057 L 10.758 9.182 C 11.03 8.969 11.356 8.85 11.705 8.85 C 12.355 8.85 12.64 9.259 12.64 9.903 L 12.64 11.637 C 12.64 11.755 12.598 11.814 12.468 11.814"
         fill="rgb(255,255,255)"
         id="path4"
         style="fill:#000000" />
      <path
         d=" M 14.967 9.749 C 14.861 9.649 14.671 9.56 14.5 9.56 C 14.068 9.56 13.932 10.016 13.932 10.371 C 13.932 10.738 14.032 11.169 14.482 11.169 C 14.654 11.169 14.873 11.057 14.967 10.957 L 14.967 9.749 Z  M 15.695 11.814 L 15.198 11.814 C 15.097 11.814 15.05 11.761 15.044 11.696 L 15.032 11.572 C 14.884 11.731 14.565 11.891 14.281 11.891 C 13.423 11.891 13.009 11.229 13.009 10.424 C 13.009 9.637 13.429 8.844 14.305 8.844 C 14.565 8.844 14.807 8.933 14.967 9.081 L 14.967 7.847 C 14.967 7.741 14.997 7.682 15.11 7.664 L 15.689 7.587 C 15.7 7.587 15.724 7.581 15.737 7.581 C 15.819 7.581 15.855 7.628 15.855 7.711 L 15.855 11.648 C 15.855 11.767 15.783 11.814 15.695 11.814"
         fill="rgb(255,255,255)"
         id="path5"
         style="fill:#000000" />
      <path
         d=" M 18.817 11.891 C 18.503 11.891 18.154 11.808 17.829 11.672 C 17.764 11.648 17.746 11.607 17.746 11.566 C 17.746 11.542 17.752 11.518 17.758 11.494 L 17.876 11.122 C 17.899 11.045 17.923 11.015 17.965 11.015 C 17.988 11.015 18.018 11.021 18.06 11.039 C 18.35 11.158 18.627 11.223 18.841 11.223 C 19.029 11.223 19.16 11.145 19.16 11.015 C 19.16 10.903 19.101 10.844 18.882 10.761 L 18.355 10.566 C 18.036 10.447 17.752 10.163 17.752 9.738 C 17.752 9.104 18.355 8.85 18.882 8.85 C 19.189 8.85 19.497 8.898 19.81 9.039 C 19.864 9.063 19.893 9.093 19.893 9.14 C 19.893 9.158 19.887 9.182 19.882 9.205 L 19.757 9.619 C 19.745 9.666 19.704 9.69 19.657 9.69 C 19.639 9.69 19.615 9.684 19.592 9.678 C 19.367 9.596 19.125 9.537 18.935 9.537 C 18.74 9.537 18.651 9.643 18.651 9.726 C 18.651 9.797 18.675 9.874 18.876 9.95 L 19.473 10.187 C 19.775 10.306 20.006 10.554 20.006 10.95 C 20.006 11.631 19.403 11.891 18.817 11.891"
         fill="rgb(255,255,255)"
         id="path6"
         style="fill:#000000" />
      <path
         d=" M 17.245 9.109 L 17.245 11.643 C 17.245 11.761 17.192 11.814 17.074 11.814 L 16.541 11.814 C 16.417 11.814 16.358 11.773 16.358 11.643 L 16.358 9.109 C 16.358 9.003 16.364 8.933 16.482 8.933 L 17.079 8.933 C 17.214 8.933 17.245 8.952 17.245 9.109"
         fill="rgb(255,255,255)"
         id="path7"
         style="fill:#000000" />
    </g>
  </g>
</svg>
