<svg xmlns="http://www.w3.org/2000/svg" width="24" height="24"><path fill="#587a6e" fill-rule="evenodd" d="M13.2 3.78c-.2.1-.46.34-.59.54-.18.29-.32.38-.63.43-.33.06-.44.03-.63-.15q-.23-.22-.47-.17c-.6.15-1.57.54-1.86.76-.42.3-.7.25-1.41-.23-.59-.4-1.19-.5-1.06-.18.24.61.27 1.1.12 1.62-.09.3-.14.57-.11.61.07.12.73-.1 1.18-.39A2 2 0 0 1 9.7 6.5c.4.2.47.2.82.1.34-.12.5-.11 1.06.04l1.04.27c.28.07.35.13.31.28-.05.2.2.51.42.51.08 0 .3-.14.5-.31.2-.18.38-.3.4-.27s-.06.13-.2.22q-.23.16-.2.27c.1.14.46 0 .75-.27.15-.14.48-.28.78-.34a6 6 0 0 0 1.82-.56c.12-.12.12-.18.02-.35s-.1-.24.08-.46q.2-.26.1-.38c-.1-.12-1.86-.75-2.1-.75-.05 0-.37-.2-.71-.45-.67-.49-.86-.53-1.39-.27M3.1 8.2c.05.11.1.6.1 1.1v.91h1.6l-.16-.25c-.12-.19-.25-.25-.5-.25H3.8V8h-.4c-.37 0-.4.02-.3.2m2.21-.08c-.56.3-.77.94-.52 1.55.26.64 1.24.84 1.8.38.82-.7.46-1.91-.61-2.02a1.4 1.4 0 0 0-.67.1m1.89.06c.05.11.1.6.1 1.1v.91h.3c.3 0 .3 0 .3-.56v-.57l.35.47c.33.42.79.76 1.05.76.06 0 .1-.42.1-1.16V8l-.32.03c-.33.03-.33.04-.33.55 0 .48-.01.5-.17.36a4 4 0 0 1-.44-.54c-.23-.34-.32-.39-.66-.39s-.38.02-.28.2m2.89-.05c-.28.15-.59.7-.59 1.05 0 .84 1.07 1.38 1.91.94.27-.14.3-.2.27-.57-.03-.4-.05-.42-.35-.45-.31-.03-.32-.02-.27.26.05.25.02.31-.15.37-.35.1-.71-.19-.71-.59 0-.46.2-.6.75-.53.37.06.46.03.55-.13.22-.42-.81-.68-1.41-.35m2.89-.03c.07.07.12.43.12.93 0 .62-.04.87-.2 1.13l-.2.32h.2c.12 0 .35-.13.5-.3.29-.27.3-.32.3-1.24V8h-.42c-.33 0-.4.03-.3.12m1.44.08c-.6.37-.71 1.22-.23 1.7a1.2 1.2 0 0 0 1.77 0c.23-.25.29-.4.29-.76 0-.4-.05-.5-.37-.8q-.68-.6-1.46-.14m1.98 0c.05.1.1.6.1 1.1v.9h.3c.28 0 .3-.02.3-.4v-.4h.8v.4c0 .38.02.4.3.4h.3V8h-.3c-.28 0-.3.02-.3.4v.4h-.8V8h-.4c-.37 0-.4.02-.3.2m2.48.9.03 1.1h.3c.29 0 .29 0 .29-.57v-.56l.58.61c.85.91.92.87.92-.53V8h-.3c-.28 0-.3.01-.32.55l-.03.56-.43-.56c-.36-.46-.48-.55-.75-.55h-.32zM5.46 8.76c-.18.18-.2.47-.06.75q.1.2.45.19.35 0 .45-.2c.23-.44 0-.9-.45-.9-.13 0-.3.07-.4.16m9.18.1c-.15.24-.15.29-.02.53.16.29.61.4.85.2.17-.14.19-.7.02-.87-.22-.22-.66-.14-.85.14m1.54 1.86c-.25.13-.2.43.08.62.14.1.25.26.25.39 0 .21.01.22.15.03.37-.5 0-1.3-.48-1.04m-10.52.73q-.7.7.56 1.16.6.22.5.32c-.17.17-.73.12-.86-.07-.12-.15-.14-.15-.29 0-.2.19-.2.25-.03.48s.71.34 1.2.25c.45-.08.63-.23.72-.61.06-.22.01-.33-.23-.58-.17-.16-.4-.3-.52-.3s-.3-.05-.42-.11q-.25-.11-.07-.2c.22-.14.65-.1.79.06.15.18.3.1.3-.15 0-.29-.39-.5-.93-.5-.38 0-.53.05-.72.25m11.61-.04c-.3.24-.35.68-.09.91.1.09.36.21.58.28q.67.2.52.37c-.12.12-.79.06-.87-.08-.11-.17-.4-.03-.4.2 0 .6 1.55.73 1.92.17.14-.2.08-.73-.08-.87-.1-.08-.37-.2-.63-.29-.25-.08-.46-.2-.46-.25 0-.17.61-.17.78 0 .12.12.17.12.26.01.14-.17.05-.43-.2-.56-.32-.18-1.04-.12-1.33.1m-9.66.1c.05.1.1.62.1 1.15v.96l.28-.03.27-.03.03-1.12.03-1.13H7.9c-.37 0-.4.02-.3.2m1.04-.07c-.02.07-.03.58-.02 1.13l.03.99.88.03c.9.03.97 0 .77-.39-.08-.14-.21-.19-.55-.19H9.3v-1.7H9c-.17 0-.33.06-.36.13m1.13 0c.05.06.24.49.42.94.33.83.68 1.33.94 1.33.09 0 .3-.43.56-1.12.22-.62.41-1.17.41-1.21s-.14-.07-.31-.05c-.28.03-.34.09-.51.58-.11.3-.24.58-.27.63-.04.04-.18-.22-.3-.58l-.23-.65h-.4q-.44-.01-.3.13m2.52.86c0 .55-.03 1.06-.06 1.15-.05.14.06.16.9.16h.96v-.3c0-.3 0-.3-.55-.3-.42 0-.55-.03-.55-.15s.12-.15.5-.15c.47 0 .5-.02.5-.25s-.03-.25-.5-.25c-.43 0-.5-.03-.5-.2s.07-.2.55-.2c.52 0 .55-.01.55-.25 0-.25 0-.25-.9-.25h-.9zm2.1.15v1.16l.28-.03c.22-.02.28-.08.3-.35q.06-.7.6.16c.53.82 1.21 1.11 2.19.96l.48-.08-.55-.11a2.1 2.1 0 0 1-1.48-.92l-.32-.44.2-.2c.27-.27.27-.81 0-1.06-.16-.14-.41-.2-.96-.22l-.74-.04zm.6-.3c0 .2.05.25.23.25.31 0 .51-.15.44-.34q-.07-.15-.37-.16c-.25 0-.3.04-.3.25"/></svg>