<?xml version="1.0" encoding="UTF-8" standalone="no"?>
<svg
   viewBox="0 0 24 24"
   width="24pt"
   height="24pt"
   version="1.1"
   id="svg1"
   sodipodi:docname="pink_master_pin.svg"
   xml:space="preserve"
   xmlns:inkscape="http://www.inkscape.org/namespaces/inkscape"
   xmlns:sodipodi="http://sodipodi.sourceforge.net/DTD/sodipodi-0.dtd"
   xmlns="http://www.w3.org/2000/svg"
   xmlns:svg="http://www.w3.org/2000/svg"><defs
     id="defs1" /><sodipodi:namedview
     id="namedview1"
     pagecolor="#ffffff"
     bordercolor="#000000"
     borderopacity="0.25"
     inkscape:showpageshadow="2"
     inkscape:pageopacity="0.0"
     inkscape:pagecheckerboard="0"
     inkscape:deskcolor="#d1d1d1"
     inkscape:document-units="pt"><inkscape:page
       x="0"
       y="0"
       width="24"
       height="24"
       id="page2"
       margin="0"
       bleed="0" /></sodipodi:namedview><g
     id="g1"
     transform="matrix(0.03263121,0,0,0.02742935,-4.3996368,1.5802623)"><path
       d="m 0,0 c 14.25728,13.349732 19.434248,31.210128 20.260254,50.243896 0.197698,8.773532 -0.888,17.194813 -2.447754,25.818604 -0.17926,1.003696 -0.358521,2.007393 -0.543213,3.041504 -2.144427,10.962289 -5.338138,21.656956 -8.4087828,32.387636 -0.9839078,3.44028 -1.9607819,6.88249 -2.9359437,10.32525 -8.6258774,30.41517 -17.4427045,60.74754 -27.2877805,90.79419 -0.770208,2.35216 -1.537038,4.70539 -2.303284,7.05884 -7.258663,22.26574 -14.683781,44.54409 -23.458496,66.26758 1.139128,-0.58266 2.278257,-1.16531 3.451904,-1.76563 C 56.703428,232.9375 56.703428,232.9375 76.875,232.9375 73.966236,227.11997 70.175726,222.78488 65.703125,218.07422 63.875,215.9375 63.875,215.9375 63.875,213.9375 c -0.598125,-0.26813 -1.19625,-0.53625 -1.8125,-0.8125 -2.185979,-1.18667 -3.600826,-2.28349 -5.1875,-4.1875 0,-0.66 0,-1.32 0,-2 59.34917,-13.25488 132.3728,-1.11961 191,12 0,0.66 0,1.32 0,2 -1.17691,0.57105 -2.35383,1.14211 -3.56641,1.73047 -49.18267,24.09318 -94.8384,55.04574 -136.47363,90.56128 -4.84328,4.13034 -9.676292,8.14485 -14.95996,11.70825 0.880237,-10.18827 0.880237,-10.18827 1.5625,-14.8125 1.469448,-10.35381 1.469448,-10.35381 -0.5625,-20.1875 -8.646245,2.35458 -16.932628,5.57231 -25.25,8.875 -0.720636,0.28534 -1.441273,0.57067 -2.183746,0.86465 -35.070419,13.90824 -70.1166328,29.0883 -102.936371,47.77109 -2.88826,1.63557 -5.792687,3.23973 -8.700195,4.84082 -5.28812,2.91504 -10.536938,5.8944 -15.780762,8.88819 -3.146683,1.759 -6.329865,3.42871 -9.527832,5.09228 -13.262117,7.12316 -19.374752,12.96426 -24.536621,27.01856 -2.039654,4.98296 -4.818278,9.56605 -7.521973,14.21191 -1.12582,1.95656 -2.25083,3.91359 -3.375,5.87109 -0.5427,0.94215 -1.08539,1.88429 -1.64453,2.85498 -1.40109,2.46211 -2.76403,4.93911 -4.10547,7.43409 -8.40274,15.61855 -17.59525,31.86149 -30.4375,44.27734 -0.63937,0.6484 -1.27875,1.2968 -1.9375,1.96484 -8.63006,8.22988 -19.73186,11.846 -31.5,12.34766 -11.55134,-0.34695 -19.50865,-4.87837 -27.3125,-13.0625 -8.5336,-10.48636 -8.43372,-22.25023 -7.25,-35.25 0.77907,-4.36279 2.08275,-8.01428 4,-12 0.27376,-0.57911 0.54753,-1.15822 0.82959,-1.75488 6.88694,-14.3562 16.75926,-26.31969 27.17041,-38.24512 0.44021,-0.50483 0.88043,-1.00966 1.33398,-1.52979 4.54406,-5.18083 9.13954,-10.10054 14.41602,-14.53662 2.35349,-2.02253 4.61834,-4.12014 6.88428,-6.2395 17.85517,-16.69409 17.85517,-16.69409 21.36572,-16.69409 0.15783,-0.54568 0.31566,-1.09135 0.47827,-1.65356 2.10975,-7.17053 4.46379,-14.25318 6.84613,-21.33658 2.57455,-7.66458 5.12292,-15.33798 7.6756,-23.00986 0.34001,-1.02178 0.68002,-2.04357 1.03033,-3.09631 19.433332,-58.44354 37.814653,-117.15264 50.325139,-177.51697 0.153549,-0.7344 0.307099,-1.46881 0.465301,-2.22547 0.958031,-4.70522 1.633992,-9.39017 2.17923,-14.16125 -0.473086,0.75023 -0.946172,1.50047 -1.433594,2.27344 -4.078155,6.312 -8.280627,11.929 -13.417968,17.42578 -1.934033,2.07117 -3.763569,4.1944 -5.585938,6.36328 -13.949003,15.89612 -36.47286,32.42842 -58.21484,34.24219 -10.11427,0.34354 -17.6643,-1.06781 -25.59766,-7.49219 -11.04108,-10.50791 -14.90256,-24.55393 -17.40475,-39.18668 -4.35335,-26.555968 -4.35335,-26.555968 -20.39994,-47.383633 -6.05073,-3.863719 -13.00315,-5.699486 -19.94531,-7.242187 2.79305,-2.24853 5.41636,-3.751338 8.75,-5.0625 0.79922,-0.320977 1.59844,-0.641953 2.42188,-0.972656 13.01065,-4.438717 29.37353,-5.501081 42.28906,-0.234375 15.93232,7.96616 25.5032,18.628569 31.76172,35.296875 0.81421,3.113659 0.92536,5.768744 0.77734,8.972656 3.99246,-3.722989 6.91103,-7.57823 9.8125,-12.1875 0.46229,-0.725581 0.92458,-1.451162 1.40088,-2.19873 1.60552,-2.53177 3.19719,-5.071867 4.78662,-7.61377 0.92063,-1.467356 0.92063,-1.467356 1.85986,-2.964355 7.89862,-12.617687 15.61625,-25.299647 22.71582,-38.387696 2.898234,-5.266072 6.040432,-9.94805 9.906498,-14.557861 1.649397,-2.27127 2.531411,-4.473284 3.517822,-7.090088 8.061225,-10.4097711 20.724651,-17.844192 33,-22 1.06541,-0.367383 1.06541,-0.367383 2.152344,-0.742188 C -34.223008,-15.778677 -14.229418,-11.310563 0,0 Z"
       fill="#d34346"
       transform="translate(527.125,61.0625)"
       id="path1-0" /><path
       d="M 0,0 C 0,0.66 0,1.32 0,2 -1.1769141,2.5710547 -2.3538281,3.1421094 -3.5664063,3.7304688 -52.749075,27.823655 -98.404813,58.776213 -140.04004,94.291748 -144.88332,98.422089 -149.71633,102.4366 -155,106 c 0.88024,-10.18827 0.88024,-10.18827 1.5625,-14.8125 C -151.96805,80.833693 -151.96805,80.833693 -154,71 c -8.64625,2.354581 -16.93263,5.572307 -25.25,8.875 -0.72064,0.285336 -1.44127,0.570672 -2.18375,0.864655 -35.07041,13.908238 -70.11663,29.088295 -102.93637,47.771085 -2.88826,1.63557 -5.79268,3.23973 -8.70019,4.84082 -5.28812,2.91504 -10.53694,5.8944 -15.78076,8.88819 -3.14669,1.759 -6.32987,3.42871 -9.52784,5.09228 -13.26211,7.12316 -19.37475,12.96426 -24.53662,27.01856 -2.03965,4.98296 -4.81828,9.56605 -7.52197,14.21191 -1.12582,1.95656 -2.25083,3.91359 -3.375,5.87109 -0.5427,0.94215 -1.08539,1.88429 -1.64453,2.85498 -1.40109,2.46211 -2.76403,4.93911 -4.10547,7.43409 -8.40274,15.61855 -17.59525,31.86149 -30.4375,44.27734 -0.63937,0.6484 -1.27875,1.2968 -1.9375,1.96484 -8.63006,8.22988 -19.73186,11.846 -31.5,12.34766 -11.55134,-0.34695 -19.50865,-4.87837 -27.3125,-13.0625 -8.5336,-10.48636 -8.43372,-22.25023 -7.25,-35.25 0.77907,-4.36279 2.08275,-8.01428 4,-12 0.27376,-0.57911 0.54753,-1.15822 0.82959,-1.75488 6.88694,-14.3562 16.75926,-26.31969 27.17041,-38.24512 0.44021,-0.50483 0.88043,-1.00966 1.33398,-1.52979 4.54406,-5.18083 9.13954,-10.10054 14.41602,-14.53662 2.35349,-2.02253 4.61834,-4.12014 6.88428,-6.2395 C -385.51055,124 -385.51055,124 -382,124 c 0.15058,-0.5232 0.30116,-1.0464 0.4563,-1.58545 2.521,-8.58695 5.38765,-17.0556 8.2312,-25.53955 0.53498,-1.599884 1.06981,-3.199819 1.60449,-4.799805 1.06588,-3.189034 2.13248,-6.377823 3.19971,-9.566406 2.0918,-6.251029 4.17512,-12.504882 6.2583,-18.758789 0.64058,-1.92189 1.2812,-3.843767 1.92188,-5.765625 0.25877,-0.776338 0.51755,-1.552676 0.78417,-2.352539 0.26926,-0.807759 0.26926,-0.807759 0.54395,-1.631836 0.66,0.33 1.32,0.66 2,1 -4.83341,16.085385 -9.95,32.052664 -15.31763,47.96655 -0.22953,0.68194 -0.45905,1.36387 -0.69554,2.06647 -0.62398,1.85243 -1.25039,3.70405 -1.87697,5.5556 -1.12332,3.45276 -2.13389,6.91468 -3.10986,10.41138 2.19149,-1.09574 3.96645,-2.41061 5.92969,-3.87891 1.18312,-0.88087 1.18312,-0.88087 2.39013,-1.77954 0.84321,-0.62833 1.68642,-1.25667 2.55518,-1.90405 7.24656,-5.36057 14.5128,-10.60321 22.125,-15.4375 0.70189,-0.446016 1.40379,-0.892031 2.12695,-1.351563 11.90028,-7.532571 23.99695,-14.690975 36.2544,-21.623291 1.04978,-0.597399 2.09956,-1.194799 3.18115,-1.810302 0.92941,-0.524729 1.85883,-1.049458 2.81641,-1.590088 2.65238,-1.560752 2.65238,-1.560752 4.9375,-3.549317 3.46594,-2.680492 7.14965,-4.541738 11.05859,-6.497314 0.82458,-0.417163 1.64916,-0.834326 2.49873,-1.26413 2.7046,-1.363144 5.41463,-2.714925 8.12627,-4.063995 0.93194,-0.46509 1.86388,-0.930179 2.82407,-1.409363 C -189.15072,14 -189.15072,14 -171,14 -173.90876,8.1824723 -177.69927,3.8473777 -182.17187,-0.86328125 -184,-3 -184,-3 -184,-5 c -0.59812,-0.268125 -1.19625,-0.53625 -1.8125,-0.8125 -2.18598,-1.1866741 -3.60083,-2.2834911 -5.1875,-4.1875 0,-0.66 0,-1.32 0,-2 11.38979,-2.507843 23.51482,-2.164282 35.125,-2.5625 1.89287,-0.06574 1.89287,-0.06574 3.82397,-0.132813 C -100.91899,-16.348065 -49.885784,-11.163454 0,0 Z"
       fill="#1e8f54"
       transform="translate(775,280)"
       id="path2" /><path
       d="M 0,0 C 6.7097444,0.93705052 12.520496,3.1717504 16.875,8.5 28.746605,26.208478 26.381509,53.717687 23.242187,73.84375 20.525329,86.210139 12.197619,96.556259 3.7109375,105.63672 1.7769052,107.70789 -0.05263101,109.83112 -1.875,112 c -13.949003,15.89612 -36.472858,32.42842 -58.214844,34.24219 -10.114267,0.34354 -17.664294,-1.06781 -25.597656,-7.49219 -11.041081,-10.50791 -14.90256,-24.55393 -17.40475,-39.186676 -4.35335,-26.555972 -4.35335,-26.555972 -20.39994,-47.383637 -6.05073,-3.863719 -13.00315,-5.699486 -19.94531,-7.242187 2.79305,-2.24853 5.41636,-3.751338 8.75,-5.0625 0.79922,-0.320977 1.59844,-0.641953 2.42188,-0.972656 13.01065,-4.438717 29.37353,-5.501081 42.289058,-0.234375 15.93232,7.96616 25.503201,18.628569 31.761718,35.296875 0.814216,3.113659 0.925364,5.768744 0.777344,8.972656 3.992462,-3.722989 6.911025,-7.57823 9.8125,-12.1875 0.46229,-0.725581 0.92458,-1.451162 1.400879,-2.19873 1.605525,-2.53177 3.19719,-5.071867 4.786621,-7.61377 0.613755,-0.978237 1.22751,-1.956475 1.859863,-2.964355 C -32.264871,46.291334 -25.140041,34.543412 -18.4375,22.5 -6.0242539,0.4147507 -6.0242539,0.4147507 0,0 Z"
       fill="#1a7d49"
       transform="translate(443.4375,75.0625)"
       id="path5" /><path
       d="M 0,0 C 0.66,0 1.32,0 2,0 1.4542859,4.2300572 0.49577466,7.4754947 -1.484375,11.246094 -2.2587793,12.731577 -2.2587793,12.731577 -3.0488281,14.24707 -3.8909082,15.826333 -3.8909082,15.826333 -4.75,17.4375 -5.3320117,18.540615 -5.9140234,19.64373 -6.5136719,20.780273 -45.761316,94.733989 -45.761316,94.733989 -70.6875,103.875 c -6.590825,1.931 -11.500616,1.62321 -17.515625,-1.66406 C -91.801981,99.785621 -93.646996,97.059013 -95,93 c -1.088182,-8.524093 3.018496,-16.691972 8,-23.4375 8.555536,-10.218599 18.281697,-18.984515 28.906738,-26.978516 2.387767,-1.806838 4.75427,-3.6398 7.120606,-5.474609 9.483034,-7.328545 19.047502,-14.357664 29.098633,-20.882324 C -18.324269,13.902785 -14.817309,11.516288 -11.3125,9.125 -10.640496,8.6721362 -9.9684912,8.2192725 -9.2761231,7.7526855 -5.8321233,5.3988095 -2.9477897,2.9685002 0,0 Z"
       fill="#adaeaf"
       transform="translate(437,437)"
       id="path14" /><path
       d="m 0,0 c 11.590536,8.1826875 18.172793,19.244108 22.351562,32.660156 0.412501,1.19625 0.825,2.3925 1.25,3.625 -0.708492,9.564648 -9.907483,17.802029 -16.2499995,24.375 -0.4655127,0.485977 -0.9310254,0.971953 -1.4106445,1.472656 -10.9371135,11.377217 -10.9371135,11.377217 -16.901856,11.714844 -5.476854,-1.763733 -7.846992,-5.290027 -10.687499,-10.1875 -1.346055,-4.150768 -1.998427,-8.313774 -2.625,-12.625 -0.393957,-2.31632 -0.79497,-4.631452 -1.203125,-6.945312 -0.194004,-1.107627 -0.388008,-2.215254 -0.587891,-3.356446 -2.40974,-12.681359 -7.265003,-24.597245 -17.638672,-32.8310543 -6.050731,-3.8637199 -13.003157,-5.6994861 -19.945312,-7.24218745 2.793046,-2.24853025 5.416356,-3.75133765 8.75,-5.06249995 C -54.099219,-4.7233203 -53.3,-5.0442969 -52.476562,-5.375 -34.642037,-11.459431 -16.028145,-9.8867769 0,0 Z"
       fill="#c8c9cb"
       transform="translate(363.64844,119.33984)"
       id="path15" /><path
       d="m 0,0 c 0.66,0.33 1.32,0.66 2,1 -4.8334147,16.085385 -9.9500008,32.052664 -15.317627,47.966553 -0.229529,0.681934 -0.459057,1.363868 -0.695541,2.066467 -0.623987,1.852431 -1.250389,3.704048 -1.876969,5.555603 -1.172191,3.463452 -1.172191,3.463452 -2.067383,7.285645 C -18.473547,65.421505 -18.473547,65.421505 -19,67 c -1.485,0.495 -1.485,0.495 -3,1 0.646372,-5.324068 2.349229,-9.905433 4.25,-14.875 4.258957,-11.389052 8.0117216,-22.931944 11.75,-34.5 0.2968469,-0.918276 0.5936939,-1.836552 0.8995361,-2.782654 C -3.3951179,10.563226 -1.6953193,5.2823479 0,0 Z"
       fill="#4a3435"
       transform="translate(416,334)"
       id="path21" /><path
       d="M 0,0 C 0,0.33 0,0.66 0,1 -0.98097656,1.0257813 -1.9619531,1.0515625 -2.9726563,1.078125 -23.772856,1.8525452 -38.59701,8.6277301 -54.066406,22.425781 -57,25 -57,25 -60,27 -54.669921,15.354663 -40.225796,7.2588338 -28.746094,2.9296875 -27.839883,2.6228906 -26.933672,2.3160937 -26,2 -25.289727,1.7550781 -24.579453,1.5101563 -23.847656,1.2578125 -16.182669,-0.89014926 -7.8828581,-0.16290637 0,0 Z"
       fill="#fdf3f4"
       transform="translate(499,49)"
       id="path22" /><path
       d="m 0,0 c 0.66,0.33 1.32,0.66 2,1 -8.58,8.58 -17.16,17.16 -26,26 -0.66,-0.33 -1.32,-0.66 -2,-1 0.796641,-0.779238 0.796641,-0.779238 1.609375,-1.574219 4.393312,-4.31503 4.393312,-4.31503 8.390625,-8.988281 2.391804,-2.915011 5.09916,-5.212485 7.9609375,-7.65625 C -5.2173462,5.3163025 -2.6157615,2.6811556 0,0 Z"
       fill="#43755b"
       transform="translate(373,419)"
       id="path23" /><path
       d="M 0,0 C 0,0.99 0,1.98 0,3 -1.5888672,4.3186035 -1.5888672,4.3186035 -3.796875,5.6289062 -4.5909375,6.1065039 -5.385,6.5841016 -6.203125,7.0761719 -7.0435938,7.5666602 -7.8840625,8.0571484 -8.75,8.5625 -9.9875,9.3040332 -9.9875,9.3040332 -11.25,10.060547 -14.781593,12.165263 -18.303852,14.196276 -22,16 c 1.453279,-3.685348 3.181201,-5.042219 6.570312,-7.015625 0.895899,-0.5285156 1.791797,-1.0570312 2.714844,-1.6015625 C -11.777695,6.8439844 -10.840547,6.3051562 -9.875,5.75 -8.9301172,5.1957031 -7.9852344,4.6414062 -7.0117187,4.0703125 -4.6797629,2.7041161 -2.3425869,1.3478592 0,0 Z"
       fill="#aa3e3d"
       transform="translate(448,365)"
       id="path24" /><path
       d="M 0,0 C 0.66,0 1.32,0 2,0 0.64746536,6.4505498 -1.0306023,12.711057 -3,19 -3.33,19 -3.66,19 -4,19 -4.6262103,12.111687 -2.3580607,6.4109774 0,0 Z"
       fill="#482e2f"
       transform="translate(408,358)"
       id="path25" /></g></svg>
