<?xml version="1.0" encoding="UTF-8" standalone="no"?>
<svg
   viewBox="0 0 24 24"
   width="24pt"
   height="24pt"
   version="1.1"
   id="svg4"
   sodipodi:docname="luckyburger.svg"
   xml:space="preserve"
   inkscape:version="1.2.2 (732a01da63, 2022-12-09)"
   xmlns:inkscape="http://www.inkscape.org/namespaces/inkscape"
   xmlns:sodipodi="http://sodipodi.sourceforge.net/DTD/sodipodi-0.dtd"
   xmlns="http://www.w3.org/2000/svg"
   xmlns:svg="http://www.w3.org/2000/svg"><defs
     id="defs8" /><sodipodi:namedview
     id="namedview6"
     pagecolor="#ffffff"
     bordercolor="#000000"
     borderopacity="0.25"
     inkscape:showpageshadow="2"
     inkscape:pageopacity="0.0"
     inkscape:pagecheckerboard="0"
     inkscape:deskcolor="#d1d1d1"
     inkscape:document-units="pt"
     showgrid="false"
     inkscape:zoom="25.125"
     inkscape:cx="15.462687"
     inkscape:cy="15.741294"
     inkscape:window-width="2400"
     inkscape:window-height="1261"
     inkscape:window-x="2391"
     inkscape:window-y="-9"
     inkscape:window-maximized="1"
     inkscape:current-layer="svg4" /><g
     id="g258"
     transform="matrix(0.08261581,0,0,0.08261581,2.8550495,0.84158179)"><path
       d="m 60.48,160.391 -1.902,1.391 -0.403,7.127 -0.403,7.127 1.199,2.895 1.2,2.895 2.357,0.592 2.357,0.591 2.473,-1.126 2.472,-1.127 0.572,-2.128 0.571,-2.128 0.013,-2.25 L 71,172 H 68.5 66 v 3 3 H 64.5 63 v -7 -7 h 1.5 1.5 v 2.5 2.5 h 2.5 2.5 v -3 -3 l -2,-2 -2,-2 h -2.309 -2.309 l -1.902,1.391 m 89.644,0.359 -2.098,1.75 -0.62,5.5 -0.62,5.5 1.145,4.25 1.146,4.25 1.712,0.158 1.711,0.157 1.5,-0.223 1.5,-0.223 2.25,0.054 2.25,0.055 V 175.989 170 h -3.088 -3.088 l 0.696,4.119 0.696,4.12 -1.358,-0.453 -1.358,-0.453 V 171 164.667 l 1.25,-0.417 1.25,-0.417 v 1.584 1.583 h 2.5 2.5 v -2.443 -2.444 l -2.223,-1.556 -2.222,-1.557 h -1.667 -1.666 l -2.098,1.75 M 33,171 v 11 h 4.5 4.5 v -1.883 -1.884 l -2,-0.523 -2,-0.523 V 168.594 160 H 35.5 33 v 11 m 11.215,-0.761 0.285,10.239 2.75,1.315 2.75,1.316 2.75,-1.316 2.75,-1.315 0.285,-10.239 L 56.07,160 H 53.535 51 v 9 9 h -1 -1 v -9 -9 H 46.465 43.93 l 0.285,10.239 M 72,171 v 11 h 2.5 2.5 l 0.084,-4.25 0.085,-4.25 1.953,4.25 1.954,4.25 h 2.449 2.45 l -2.542,-5.748 -2.542,-5.748 2.27,-4.847 2.27,-4.847 1.707,4.845 1.707,4.845 0.077,5.75 L 89,182 h 2.5 2.5 v -4.343 -4.344 l 2,-5.813 2,-5.813 V 160.843 160 h -2.031 -2.032 l -0.468,1.5 -0.469,1.5 -0.628,1.75 -0.627,1.75 -0.901,-3.25 -0.901,-3.25 -4.722,0.005 -4.721,0.005 -1.654,3.745 -1.654,3.745 -0.096,-3.75 L 77,160 H 74.5 72 v 11 m 32,0 v 11 h 5.3 5.3 l 1.2,-1.2 1.2,-1.2 v -3.6 -3.6 l -1.037,-1.037 -1.037,-1.037 1.012,-2.663 L 116.95,165 116,162.5 115.05,160 H 109.525 104 v 11 m 15,-1.934 v 9.065 l 0.974,1.82 0.973,1.819 2.633,0.661 2.632,0.66 2.327,-1.525 2.327,-1.524 0.317,-10.023 0.317,-10.023 -2.211,0.002 -2.211,0.002 -0.289,8.669 -0.289,8.67 -1.25,0.414 -1.25,0.414 V 169.083 160 h -2.5 -2.5 v 9.066 M 134,171 v 11 h 2 2 v -4.5 -4.5 h 1.5 1.5 v 2.918 2.918 l 0.607,1.582 0.607,1.582 h 1.893 1.893 v -4.3 -4.3 l -1.2,-1.2 -1.2,-1.2 1.2,-1.2 1.2,-1.2 v -3.1 -3.1 l -1.2,-1.2 -1.2,-1.2 h -4.8 -4.8 v 11 m 28,0 v 11 h 6 6 v -1.937 -1.936 l -3.25,-0.314 -3.25,-0.313 -0.32,-2.25 -0.319,-2.25 h 2.569 2.57 v -2.5 -2.5 h -2.5 -2.5 v -2 -2 h 3 3 v -2 -2 h -5.5 -5.5 v 11 m 13,0 v 11 h 2.5 2.5 v -4.583 -4.584 l 1.25,0.411 1.25,0.411 0.307,4.173 0.308,4.172 h 2.442 2.443 v -2.935 -2.935 l -0.944,-2.483 -0.944,-2.483 1.137,-3.012 1.136,-3.011 -1.171,-2.571 -1.171,-2.57 H 180.521 175 v 11 m -36.277,-7.389 -0.723,0.722 v 2.334 2.333 h 1.393 1.393 l 0.538,-1.403 0.539,-1.403 -1.209,-1.653 -1.209,-1.653 -0.722,0.723 m 41.916,0.083 -0.639,0.639 v 2.334 2.333 h 1.5 1.5 v -2.441 -2.441 l -0.861,-0.532 -0.86,-0.532 -0.64,0.64 M 109,166.583 v 2.584 l 1.25,-0.412 1.25,-0.412 0.32,-2.171 0.319,-2.172 H 110.57 109 v 2.583 m 0.639,6.111 -0.639,0.639 v 2.334 2.333 h 1.5 1.5 v -2.441 -2.441 l -0.861,-0.532 -0.86,-0.532 -0.64,0.64"
       stroke="none"
       fill="#fefafb"
       fill-rule="evenodd"
       id="path241" /><path
       d="m 85.151,13.526 -3.017,2.539 -1.146,3.471 -1.145,3.471 0.71,3.246 0.71,3.247 5.369,5.164 5.368,5.163 v 3.652 3.652 L 90.841,49.316 89.683,51.5 87.841,52.807 86,54.113 V 55.057 56 h 1.099 1.099 l 2.785,-2.981 2.785,-2.982 0.478,-3.257 0.478,-3.257 -0.864,-3.01 -0.863,-3.01 L 87.998,32.907 83,28.312 V 23.541 18.77 l 3.578,-3.278 3.578,-3.277 -0.993,-0.614 -0.994,-0.614 -3.018,2.539 m 23.693,-0.271 -2.656,2.245 -1.094,2.184 -1.094,2.185 0.035,3.815 0.036,3.816 1.22,2.195 1.221,2.195 4.207,3.602 4.208,3.601 0.625,3.332 0.625,3.332 -1.599,3.092 -1.599,3.092 -2.097,1.122 -2.097,1.122 1.123,1.123 1.123,1.123 3.015,-3.015 3.015,-3.015 0.591,-3.646 0.592,-3.646 -0.655,-2.609 -0.654,-2.608 -5.468,-5.295 L 106,27.301 V 23.551 19.8 l 3.5,-3.5 3.5,-3.5 V 11.9 11 l -0.75,0.005 -0.75,0.005 -2.656,2.245 m 23.754,-0.153 -2.638,2.075 -1.48,2.862 -1.48,2.862 v 2.615 2.615 l 1.121,2.185 1.122,2.184 4.878,4.728 4.879,4.727 v 3.988 3.987 l -3.133,3.569 -3.133,3.568 0.547,0.548 0.548,0.547 2.075,-1.111 2.075,-1.11 1.511,-2.921 1.51,-2.921 V 43.36 38.621 l -5.021,-4.64 -5.021,-4.641 -0.819,-2.92 -0.819,-2.92 0.801,-3 0.802,-3 3.12,-2.641 3.12,-2.64 -0.964,-0.596 -0.964,-0.596 -2.637,2.075 m -40.856,50.455 -8.758,1.363 -7.242,2.14 -7.242,2.139 -7.895,4.087 -7.894,4.087 -5.789,5.36 -5.789,5.359 -2.567,5.151 -2.566,5.15 v 1.803 1.804 h 75 75 v -1.34 -1.341 l -3.069,-6.14 -3.068,-6.141 -5.682,-5.082 -5.681,-5.082 -8,-3.919 -8,-3.919 -8.5,-2.412 -8.5,-2.413 -9,-1.102 -9,-1.103 -8.5,0.094 -8.5,0.094 -8.758,1.363 M 35,131.451 v 2.451 l 1.118,5.212 1.118,5.213 2.336,2.336 2.337,2.337 h 68.611 68.611 l 1.814,-0.971 1.814,-0.971 1.621,-4.049 1.62,-4.049 V 133.98 129 H 110.5 35 v 2.451 m 96.355,38.049 -0.006,9 0.382,-4.22 0.381,-4.22 -0.376,-4.78 -0.376,-4.78 -0.005,9 m -1.95,11.655 -0.714,1.154 1.154,-0.714 1.155,-0.713 V 180.441 180 h -0.441 -0.441 l -0.713,1.155"
       stroke="none"
       fill="#fbd442"
       fill-rule="evenodd"
       id="path243" /></g></svg>
