<svg xmlns="http://www.w3.org/2000/svg" width="24" height="24"><path fill="#ec474b" fill-rule="evenodd" d="M5.75 5.44c-.4.18-.8.62-1.02 1.11-.13.31-.18.78-.23 2.15l-.05 1.75-.41-.03a.8.8 0 0 0-.72.23c-.37.3-.4.54-.12.8.26.24.65.22 1-.04.36-.26.6-.26 1.1 0q.84.4 1.4 0l.3-.22.31.25q.7.59 1.5-.26.31-.36.29-.15c0 .26.45.67.73.67.13 0 .4-.11.61-.25l.37-.25.32.22c.5.36 1.3.32 1.94-.08l.5-.32.07.3c.05.26.09.28.5.28.49 0 .56-.09.56-.68v-.36l.48.46c.8.78 1.12.85 1.84.39l.45-.29.25.24c.37.37.85.41 1.3.1l.37-.25.03.72.03.72h.89l-.03-1.95a24 24 0 0 0-.07-2.02c-.09-.13-.62-.09-.77.06-.09.09-.18.47-.22.91q-.1 1.16-.6 1.15c-.32 0-.45-.3-.45-1.03 0-.9-.16-1.17-.66-1.17-.45 0-.48.11-.37 1.17l.1.86-.31.18c-.43.26-.68.24-1.01-.11q-.31-.31-.13-.3c.1 0 .3-.12.47-.26a.8.8 0 0 0 .05-1.25c-.35-.33-1.02-.34-1.36-.02a1 1 0 0 1-.3.23c-.03 0-.06-.47-.06-1.06 0-.66-.05-1.1-.12-1.2-.07-.08-.3-.14-.51-.14h-.39v1.78c0 1.6-.02 1.8-.18 1.95-.46.42-1.48.61-1.71.33-.07-.09-.1-.4-.09-.78.03-.6.04-.63.28-.63.2 0 .26.06.28.28.04.3.33.51.62.42.16-.05.2-.15.2-.53 0-.26-.04-.52-.08-.58-.26-.4-1.21-.46-1.73-.11-.39.26-.58.7-.58 1.4 0 .38-.05.5-.25.62-.13.09-.3.12-.4.09-.16-.06-.18-.2-.15-1.18l.04-1.11-.36-.03c-.48-.04-.59.12-.7 1.05-.1.84-.28 1.13-.65 1.13-.33 0-.44-.28-.44-1.14 0-.87-.14-1.09-.64-1.04l-.31.03v1.04c0 1.23-.07 1.34-.74 1.08-.23-.1-.52-.17-.66-.17h-.24l.18-.32c.16-.28.2-.61.24-2.18.02-1.02.08-1.92.11-2.02.1-.24.47-.3.68-.11q.18.15.18.58-.02.77.6.6c.3-.07.3-.07.3-.71 0-.56-.04-.68-.25-.9-.28-.28-.9-.32-1.4-.1m9.16 4.11c-.17.15-.31.31-.31.36 0 .06.23.09.53.07.5-.03.52-.04.52-.33 0-.4-.32-.45-.74-.1m5.66 1.73c-.12.18 0 .47.19.47q.2.01.19-.25c0-.24-.27-.4-.38-.22"/></svg>