<?xml version="1.0" encoding="UTF-8" standalone="no"?>
<svg
   viewBox="0 0 24 24"
   width="24pt"
   height="24pt"
   version="1.1"
   id="svg1"
   sodipodi:docname="lush.svg"
   xml:space="preserve"
   inkscape:version="1.4 (86a8ad7, 2024-10-11)"
   inkscape:export-filename="brands_2024\lush.svg"
   inkscape:export-xdpi="96"
   inkscape:export-ydpi="96"
   xmlns:inkscape="http://www.inkscape.org/namespaces/inkscape"
   xmlns:sodipodi="http://sodipodi.sourceforge.net/DTD/sodipodi-0.dtd"
   xmlns="http://www.w3.org/2000/svg"
   xmlns:svg="http://www.w3.org/2000/svg"><defs
     id="defs1" /><sodipodi:namedview
     id="namedview1"
     pagecolor="#ffffff"
     bordercolor="#000000"
     borderopacity="0.25"
     inkscape:showpageshadow="2"
     inkscape:pageopacity="0.0"
     inkscape:pagecheckerboard="0"
     inkscape:deskcolor="#d1d1d1"
     inkscape:document-units="pt"
     inkscape:zoom="22.96875"
     inkscape:cx="20.04898"
     inkscape:cy="15.564626"
     inkscape:window-width="1920"
     inkscape:window-height="974"
     inkscape:window-x="-11"
     inkscape:window-y="1609"
     inkscape:window-maximized="1"
     inkscape:current-layer="svg1"><inkscape:page
       x="0"
       y="0"
       width="24"
       height="24"
       id="page2"
       margin="0"
       bleed="0" /></sodipodi:namedview><g
     id="g1"
     transform="matrix(0.08614274,0,0,0.08614274,-177.55886,-44.232111)"><g
       id="g2"
       transform="matrix(0.83530261,0,0,0.83530261,883.30256,966.66309)"><path
         d="m 1638.3037,-427.30741 c 5.9311,0 11.8621,0 17.973,0 0,6.71445 0,13.42892 0,20.34687 6.267,0 12.5338,0 18.9904,0 0,-6.71447 0,-13.42894 0,-20.34687 6.043,0 12.0861,0 18.3123,0 0,19.13623 0,38.27247 0,57.98861 -6.0431,0 -12.086,0 -18.3123,0 0,-7.72164 0,-15.4433 0,-23.39891 -6.2668,0 -12.5338,0 -18.9904,0 0,7.72163 0,15.44328 0,23.39891 -5.9311,0 -11.8622,0 -17.973,0 0,-19.13623 0,-38.27249 0,-57.98861 z"
         fill="#000000"
         id="path1-9"
         style="fill:#ffffff;stroke-width:0.339115" /><path
         d="m 1513.1704,-427.30741 c 6.0429,0 12.086,0 18.3123,0 0,2.70239 0.019,5.40479 0.025,8.18909 0,1.71546 0.019,3.43088 0.028,5.14633 0.019,2.72082 0.032,5.44157 0.038,8.16243 0,2.19443 0.019,4.38875 0.034,6.58317 0,0.83578 0,1.67159 0,2.50739 0,1.17376 0.019,2.34722 0.02,3.52094 0,0.34294 0,0.6859 0,1.03926 0.038,2.59937 0.5685,4.93489 2.1656,7.03804 2.5712,2.11851 4.8948,2.77047 8.2235,2.67318 2.409,-0.23478 4.6834,-1.07498 6.4179,-2.80961 2.0197,-2.82741 2.1354,-6.43948 2.1428,-9.7888 0,-0.3511 0,-0.70219 0.019,-1.06394 0.019,-1.14857 0.019,-2.29711 0.023,-3.44573 0,-0.80106 0.019,-1.60214 0.021,-2.4032 0.019,-2.09949 0.031,-4.19901 0.042,-6.29854 0.019,-2.52385 0.038,-5.04768 0.057,-7.57151 0.03,-3.82616 0.054,-7.65232 0.078,-11.4785 5.9312,0 11.8623,0 17.973,0 0.042,9.09183 0.042,9.09183 0.05,12.99497 0,2.65365 0.019,5.30729 0.027,7.96092 0.019,2.14163 0.019,4.28322 0.02,6.42489 0,0.81329 0,1.62658 0.019,2.43986 0.054,8.38947 -0.6759,16.20563 -6.7044,22.60835 -5.7558,5.40282 -12.4424,6.37662 -20.0236,6.34382 -0.2866,-3.2e-4 -0.5732,-6.7e-4 -0.8688,-9.8e-4 -7.9554,-0.0251 -15.5031,-0.72823 -21.6043,-6.41896 -6.5073,-6.94053 -6.6846,-15.89647 -6.6206,-24.89846 0,-0.79671 0,-1.59344 0,-2.39015 0,-2.0744 0.019,-4.14871 0.024,-6.22311 0.019,-2.50098 0.019,-5.002 0.023,-7.50299 0.019,-3.7792 0.03,-7.55826 0.045,-11.33749 z"
         fill="#000000"
         id="path2"
         style="fill:#ffffff;stroke-width:0.339115" /><path
         d="m 1600.0686,-428.05455 c 0.263,-9.9e-4 0.5261,-0.004 0.797,-0.005 0.5554,-0.003 1.1105,-0.005 1.6655,-0.008 0.8321,-0.004 1.6638,-0.013 2.4956,-0.0246 6.3451,-0.0428 12.784,0.99375 17.6432,5.44306 3.1688,3.3417 5.1212,8.37948 5.1212,12.9751 -5.7073,0 -11.4145,0 -17.295,0 -0.4475,-1.23099 -0.8951,-2.46197 -1.3564,-3.73024 -1.1994,-1.78515 -2.1583,-2.67953 -4.2413,-3.24411 -2.4638,-0.42863 -5.1012,-0.49551 -7.2885,0.87029 -1.0619,1.13946 -1.3507,1.70347 -1.3775,3.26397 0.4369,1.38823 0.8697,1.69051 2.0557,2.50099 2.9329,1.18868 6.1213,1.77876 9.1986,2.47978 7.2902,1.71533 15.1021,3.79883 19.7532,10.15224 2.4987,4.12411 2.8172,8.77593 2.0228,13.43742 -0.6893,2.72181 -1.8345,4.92044 -3.5064,7.16378 -0.1697,0.23958 -0.3393,0.47913 -0.5138,0.72592 -3.4129,4.37812 -9.0155,6.36114 -14.2981,7.27899 -2.1448,0.25487 -4.2945,0.24682 -6.4518,0.24091 -0.8127,-6.7e-4 -1.6247,0.008 -2.437,0.015 -6.6746,0.0276 -13.6831,-0.90243 -18.792,-5.58677 -4.1997,-4.32012 -5.6919,-9.7308 -6.3397,-15.56087 5.7074,0 11.4146,0 17.2949,0 0.4477,1.34289 0.8952,2.68579 1.3564,4.06938 1.23,2.36019 2.5169,3.78881 5.0085,4.78338 2.6291,0.72795 5.6042,0.73631 8.1109,-0.39608 1.5331,-0.90806 2.196,-1.69927 2.8191,-3.36996 0.2621,-1.4383 0.1122,-2.4898 -0.551,-3.81504 -1.6655,-1.92829 -3.5813,-2.61752 -5.9558,-3.28516 -0.445,-0.1299 -0.445,-0.1299 -0.8991,-0.2623 -1.7489,-0.50483 -3.5056,-0.97112 -5.2695,-1.41929 -6.5105,-1.65709 -13.8442,-3.84897 -17.6331,-9.84831 -0.3076,-0.56648 -0.6051,-1.13858 -0.8902,-1.71677 -0.1734,-0.33639 -0.1734,-0.33639 -0.3497,-0.67956 -1.4561,-3.44489 -1.1034,-8.23626 0.2412,-11.63984 2.3026,-4.65988 5.9009,-7.43697 10.6211,-9.38394 3.0285,-0.97264 6.0632,-1.40673 9.241,-1.42534 z"
         fill="#000000"
         id="path3"
         style="fill:#ffffff;stroke-width:0.339115" /><path
         d="m 1461.964,-427.30741 c 5.9312,0 11.8622,0 17.9731,0 0,14.32419 0,28.6484 0,43.40667 9.1765,0 18.3529,0 27.8074,0 0,4.81205 0,9.62408 0,14.58194 -15.1076,0 -30.215,0 -45.7805,0 0,-19.13623 0,-38.27249 0,-57.98861 z"
         fill="#000000"
         id="path4"
         style="fill:#ffffff;stroke-width:0.339115" /></g></g></svg>
