<?xml version="1.0" encoding="UTF-8" standalone="no"?>
<svg
   viewBox="0 0 24 24"
   width="24pt"
   height="24pt"
   version="1.1"
   id="svg1"
   sodipodi:docname="maestro.svg"
   xml:space="preserve"
   inkscape:version="1.4 (86a8ad7, 2024-10-11)"
   xmlns:inkscape="http://www.inkscape.org/namespaces/inkscape"
   xmlns:sodipodi="http://sodipodi.sourceforge.net/DTD/sodipodi-0.dtd"
   xmlns="http://www.w3.org/2000/svg"
   xmlns:svg="http://www.w3.org/2000/svg"><defs
     id="defs1" /><sodipodi:namedview
     id="namedview1"
     pagecolor="#505050"
     bordercolor="#eeeeee"
     borderopacity="1"
     inkscape:showpageshadow="0"
     inkscape:pageopacity="0"
     inkscape:pagecheckerboard="0"
     inkscape:deskcolor="#505050"
     inkscape:document-units="pt"
     inkscape:zoom="24.9375"
     inkscape:cx="20.87218"
     inkscape:cy="12.190476"
     inkscape:window-width="2400"
     inkscape:window-height="1261"
     inkscape:window-x="2391"
     inkscape:window-y="-9"
     inkscape:window-maximized="1"
     inkscape:current-layer="svg1" /><g
     id="g1"
     transform="matrix(0.12248131,0,0,0.12082445,-1.8962169,-2.2021843)"><path
       d="m 133.082,59.145 c 0.676,1.295 1.518,2.986 1.871,3.758 0.354,0.772 1.671,1.784 2.928,2.249 2.097,0.775 2.026,0.518 -0.871,-3.14 -3.779,-4.77 -5.626,-6.119 -3.928,-2.867 m -51.475,78.973 c -16.072,1.233 -14.386,2.243 2.393,1.434 16.117,-0.776 26.515,-2.377 15,-2.309 -3.575,0.022 -11.402,0.415 -17.393,0.875 m 35.521,-0.701 c 0.834,0.893 34.872,3.323 34.872,2.49 0,-0.357 -2.137,-0.912 -4.75,-1.233 -8.284,-1.018 -30.776,-1.957 -30.122,-1.257 M 92,153.5 c 0,6.889 0.284,8.5 1.5,8.5 0.833,0 1.5,-0.889 1.5,-2 0,-1.344 0.667,-2 2.031,-2 2.185,0 2.628,-0.758 3.322,-5.67 0.602,-4.267 -1.658,-7.33 -5.41,-7.33 H 92 v 8.5 m 10,-0.083 c 0,6.835 0.296,8.583 1.451,8.583 1.167,0 1.412,-1.603 1.25,-8.168 -0.135,-5.494 -0.61,-8.304 -1.451,-8.583 -0.935,-0.311 -1.25,1.746 -1.25,8.168 m 4,-7.323 c 0,0.601 0.9,1.329 2,1.616 1.1,0.288 2,0.625 2,0.75 0,0.125 -0.9,2.843 -2,6.04 -2.563,7.449 -2.556,7.5 1,7.5 1.65,0 3,-0.45 3,-1 0,-0.55 -0.675,-1 -1.5,-1 -0.825,0 -1.497,-0.113 -1.492,-0.25 0.004,-0.137 0.9,-3.175 1.992,-6.75 1.092,-3.575 1.988,-6.838 1.992,-7.25 0.005,-0.412 -1.567,-0.75 -3.492,-0.75 -1.925,0 -3.5,0.492 -3.5,1.094 m 9,0.513 c 0,1.018 0.55,1.396 1.5,1.031 1.846,-0.708 1.869,0.049 0.152,4.986 -0.741,2.132 -1.649,5.114 -2.019,6.626 -0.62,2.541 -0.442,2.75 2.348,2.75 1.66,0 3.019,-0.45 3.019,-1 0,-0.55 -0.675,-1 -1.5,-1 -0.825,0 -1.497,-0.113 -1.492,-0.25 0.004,-0.137 0.9,-3.175 1.992,-6.75 2.518,-8.246 2.549,-8 -1,-8 -2.089,0 -3,0.488 -3,1.607 m 9.556,-0.431 c -0.241,0.728 -1.081,4.586 -1.867,8.574 -1.204,6.109 -1.213,7.25 -0.059,7.25 0.754,0 1.37,-0.675 1.37,-1.5 0,-0.933 0.944,-1.5 2.5,-1.5 1.556,0 2.5,0.567 2.5,1.5 0,0.825 0.664,1.5 1.475,1.5 1.554,0 1.515,-0.488 -0.915,-11.49 -0.745,-3.374 -1.663,-5.099 -2.834,-5.324 -0.953,-0.184 -1.929,0.262 -2.17,0.99 m -29.723,5.871 c 0.479,5.019 2.543,4.76 2.977,-0.374 0.255,-3.01 -0.021,-3.673 -1.526,-3.673 -1.543,0 -1.775,0.646 -1.451,4.047 m 31.253,-1.547 c -0.062,1.1 -0.385,3.012 -0.716,4.25 -0.444,1.654 -0.175,2.25 1.013,2.25 1.728,0 1.925,-1.916 0.617,-6 -0.667,-2.083 -0.82,-2.166 -0.914,-0.5"
       stroke="none"
       fill="#e3ebec"
       fill-rule="evenodd"
       id="path1-8"
       sodipodi:nodetypes="ccccccccccscccssscscccscccccssssscscscccccsssccscccssssscccccscccscc" /><path
       d="m 97.024,62.603 c -8.521,2.29 -18.558,8.74 -26.07,16.756 -3.466,3.698 -11.623,19.306 -10.615,20.313 0.945,0.946 2.086,-0.504 3.675,-4.672 2.08,-5.453 7.982,-13.952 12.798,-18.428 5.437,-5.053 16.365,-11.257 21.298,-12.091 3.894,-0.657 8.752,-3.448 5.89,-3.383 -0.825,0.018 -3.964,0.696 -6.976,1.505 M 44.707,66.75 c -0.289,1.513 -0.192,3.347 0.217,4.077 0.431,0.772 0.809,-0.378 0.902,-2.75 0.184,-4.693 -0.353,-5.33 -1.119,-1.327 M 103.041,66 c -0.424,0.275 -1.087,1.512 -1.473,2.749 -0.567,1.817 -0.209,2.437 1.865,3.225 1.412,0.537 2.567,1.438 2.567,2.001 0,1.328 -1.683,1.328 -2.342,0 -0.279,-0.564 -0.392,-0.451 -0.25,0.25 0.446,2.204 3.3,2 3.895,-0.277 0.309,-1.182 0.996,-1.881 1.526,-1.554 0.529,0.327 2.022,-0.274 3.317,-1.337 3.489,-2.863 1.542,-5.502 -4.084,-5.533 -2.337,-0.013 -4.596,0.201 -5.021,0.476 M 67,75.726 c 0,0.765 -0.399,1.146 -0.886,0.845 -0.487,-0.301 -1.106,0.606 -1.375,2.016 -0.27,1.411 -0.202,2.193 0.15,1.739 0.353,-0.454 1.655,-1.988 2.894,-3.409 1.732,-1.987 1.902,-2.584 0.735,-2.584 -0.835,0 -1.518,0.627 -1.518,1.393 m 30.679,0.669 c -0.393,1.023 -0.114,1.325 0.872,0.947 0.947,-0.363 1.444,0.087 1.434,1.301 -0.01,1.127 -0.304,1.424 -0.75,0.755 -0.404,-0.606 -1.938,-1.043 -3.408,-0.97 -1.592,0.078 -2.424,-0.285 -2.058,-0.898 0.338,-0.567 -0.169,-0.393 -1.128,0.385 -1.134,0.921 -1.638,2.492 -1.442,4.5 0.268,2.742 0.695,3.118 3.843,3.383 2.384,0.201 4.263,-0.328 5.75,-1.617 2.832,-2.457 2.79,-4.286 -0.164,-7.061 -1.965,-1.846 -2.471,-1.971 -2.949,-0.725 m 52.363,0.346 c -0.023,0.683 1.6,3.383 3.607,6 3.645,4.753 8.323,13.699 8.341,15.95 0.013,1.556 1.718,2.591 2.413,1.465 0.883,-1.427 -6.864,-16.325 -10.74,-20.656 -1.969,-2.2 -3.598,-3.441 -3.621,-2.759 M 54.195,79.5 c 0.02,1.65 0.244,2.204 0.498,1.231 0.254,-0.973 0.237,-2.323 -0.037,-3 -0.274,-0.677 -0.481,0.119 -0.461,1.769 M 56,78.382 c 0,0.825 0.45,1.778 1,2.118 0.55,0.34 1,-0.057 1,-0.882 0,-0.825 -0.45,-1.778 -1,-2.118 -0.55,-0.34 -1,0.057 -1,0.882 m 58.5,0.903 c -2.733,1.66 -2.988,4.384 -0.532,5.698 1.118,0.598 2.032,0.831 2.032,0.517 0,-0.314 0.89,-0.094 1.977,0.488 1.441,0.771 2.525,0.715 4,-0.206 2.663,-1.663 2.532,-2.773 -0.683,-5.782 -1.469,-1.375 -2.335,-1.937 -1.923,-1.25 0.512,0.856 0.019,1.245 -1.562,1.235 C 115.951,79.972 115.793,79.78 117,79 c 2.189,-1.415 -0.138,-1.149 -2.5,0.285 m 61.488,15.363 c -1.535,1.568 -3.608,3.524 -4.607,4.345 -1.745,1.434 -1.74,1.506 0.152,1.857 4.272,0.793 4.616,1.915 3.894,12.706 -0.377,5.62 -0.392,10.692 -0.034,11.271 M 141,87.059 c 0,0.582 0.409,0.806 0.91,0.497 1.372,-0.848 4.09,0.476 4.09,1.992 0,0.734 0.445,1.609 0.989,1.945 1.56,0.965 -0.067,-2.831 -1.82,-4.243 C 143.274,85.723 141,85.619 141,87.059 m -57.541,2.008 c -0.363,0.586 -0.389,1.336 -0.059,1.666 0.33,0.33 0.6,0.049 0.6,-0.625 0,-0.674 0.52,-0.905 1.155,-0.513 0.715,0.443 0.883,0.275 0.44,-0.44 -0.884,-1.431 -1.296,-1.448 -2.136,-0.088 m 32.269,-0.345 c 1.775,0.221 4.925,0.224 7,0.008 2.074,-0.217 0.622,-0.397 -3.228,-0.402 -3.85,-0.004 -5.548,0.173 -3.772,0.394 m -25.915,0.961 c 0.721,0.289 1.584,0.253 1.916,-0.079 0.332,-0.332 -0.258,-0.568 -1.312,-0.525 -1.165,0.048 -1.402,0.285 -0.604,0.604 m 40.587,1.882 c 0,2.507 1.01,3.198 2.1,1.435 0.34,-0.55 0.115,-1 -0.5,-1 -0.615,0 -0.859,-0.419 -0.543,-0.931 0.317,-0.512 0.208,-1.158 -0.241,-1.435 -0.449,-0.278 -0.816,0.591 -0.816,1.931 m 8.679,-0.982 c 0.048,1.165 0.285,1.402 0.604,0.605 0.289,-0.722 0.253,-1.585 -0.079,-1.917 -0.332,-0.332 -0.568,0.258 -0.525,1.312 M 88,91.383 c 0,0.211 1.111,0.596 2.47,0.856 1.358,0.26 2.232,0.087 1.941,-0.383 C 91.899,91.027 88,90.61 88,91.383 m 33.8,0.817 c 0.933,0.933 1.467,0.933 2.4,0 0.933,-0.933 0.667,-1.2 -1.2,-1.2 -1.867,0 -2.133,0.267 -1.2,1.2 m 13.838,0.3 c -0.316,0.825 -0.139,1.5 0.393,1.5 0.533,0 0.969,-0.675 0.969,-1.5 0,-0.825 -0.177,-1.5 -0.393,-1.5 -0.216,0 -0.652,0.675 -0.969,1.5 m -36.766,1.25 c -1.243,1.586 -1.208,1.621 0.378,0.378 1.666,-1.307 2.195,-2.128 1.372,-2.128 -0.207,0 -0.995,0.787 -1.75,1.75 m 6.207,-0.167 c 0.048,1.165 0.285,1.402 0.604,0.605 0.289,-0.722 0.253,-1.585 -0.079,-1.917 -0.332,-0.332 -0.568,0.258 -0.525,1.312 m -13,3 c 0.048,1.165 0.285,1.402 0.604,0.605 0.289,-0.722 0.253,-1.585 -0.079,-1.917 -0.332,-0.332 -0.568,0.258 -0.525,1.312 m -44.467,4.886 c -1.575,2.404 -1.559,2.447 0.635,1.637 1.239,-0.458 2.398,-1.568 2.576,-2.469 0.485,-2.453 -1.374,-1.972 -3.211,0.832 m 64.263,2.431 c -1.853,1.501 -2.322,2.811 -2.233,6.233 0.103,3.901 0.625,4.784 5.236,8.85 4.827,4.256 6.283,7.181 4.212,8.461 -1.742,1.077 -3.972,-0.63 -4.608,-3.528 -0.491,-2.232 -1.203,-2.916 -3.036,-2.916 -2.155,0 -2.338,0.327 -1.818,3.25 0.601,3.38 4.471,7.75 6.863,7.75 5.241,0 9.265,-4.852 8.047,-9.705 -0.315,-1.255 -2.815,-3.956 -5.555,-6.002 -5.273,-3.937 -6.345,-6.918 -3.375,-9.383 1.367,-1.134 1.818,-1.048 3,0.569 0.766,1.047 1.392,3.167 1.392,4.712 0,2.114 0.48,2.809 1.941,2.809 2.748,0 3.041,-0.947 1.919,-6.208 -0.832,-3.903 -1.481,-4.813 -4.074,-5.717 -4.221,-1.471 -5.201,-1.369 -7.911,0.825 m -29.33,0.286 c -0.242,0.723 -1.141,5.88 -1.997,11.461 -0.856,5.581 -1.836,11.543 -2.177,13.25 -0.568,2.84 -0.399,3.103 2.004,3.103 2.1,0 2.625,-0.477 2.625,-2.387 0,-1.924 0.629,-2.482 3.25,-2.88 3.946,-0.601 4.75,-0.202 4.75,2.357 0,2.177 2.632,3.682 4.009,2.293 0.501,-0.505 -0.506,-6.657 -2.353,-14.383 l -3.229,-13.5 -3.22,-0.314 c -2.004,-0.195 -3.387,0.183 -3.662,1 M 97,117.204 c 0.275,7.863 0.838,14.183 1.25,14.046 0.412,-0.137 2.55,-0.25 4.75,-0.25 3.288,0 4,-0.344 4,-1.934 0,-1.366 -0.807,-2.026 -2.75,-2.25 -2.388,-0.274 -2.791,-0.81 -3.06,-4.066 -0.285,-3.438 -0.098,-3.75 2.25,-3.75 1.893,0 2.56,-0.521 2.56,-2 0,-1.467 -0.667,-2 -2.5,-2 -2.243,0 -2.5,-0.404 -2.5,-3.934 0,-3.547 0.27,-3.964 2.75,-4.25 1.637,-0.188 2.75,-0.923 2.75,-1.816 0,-1.094 -1.354,-1.58 -5,-1.796 l -5,-0.295 0.5,14.295 M 126,105 c 0,1.333 0.667,2 2,2 1.889,0 2,0.667 2,12 0,11.15 0.135,12 1.912,12 1.737,0 1.978,-1.1 2.629,-12 0.645,-10.804 0.903,-12 2.587,-12 1.205,0 1.872,-0.712 1.872,-2 0,-1.795 -0.667,-2 -6.5,-2 -5.833,0 -6.5,0.205 -6.5,2 m 15.68,-0.61 c -0.293,0.765 -0.644,7.178 -0.779,14.25 -0.239,12.524 -0.189,12.868 1.927,13.18 1.959,0.288 2.172,-0.129 2.172,-4.25 0,-6.854 4.183,-5.905 5.619,1.275 0.439,2.194 1.202,3.155 2.506,3.155 2.14,0 2.513,-3.193 0.876,-7.499 -0.74,-1.946 -0.577,-3.923 0.63,-7.613 2.869,-8.771 -0.336,-13.839 -8.774,-13.873 -2.199,-0.009 -3.854,0.536 -4.177,1.375 m -74.625,6.36 c -2.197,12.651 -2.072,12.572 -5.101,3.25 -2.761,-8.499 -2.762,-8.5 -6.457,-8.816 l -3.695,-0.317 0.552,3.817 c 0.304,2.099 0.842,8.654 1.196,14.566 0.578,9.677 0.832,10.75 2.546,10.75 1.721,0 1.912,-0.842 1.982,-8.75 l 0.079,-8.75 2.756,8 c 2.12,6.154 3.186,8 4.621,8 1.533,0 2.124,-1.377 3.325,-7.75 0.804,-4.263 1.84,-7.75 2.301,-7.75 0.462,0 0.84,3.375 0.84,7.5 0,7.366 0.045,7.5 2.542,7.5 h 2.541 l -0.577,-7.75 c -0.317,-4.263 -0.822,-10.562 -1.121,-14 L 74.841,104 h -3.307 c -3.301,0 -3.31,0.014 -4.479,6.75 m 93.74,-5.545 c -2.725,2.069 -3.795,6.339 -3.795,15.138 0,10.17 1.356,12.657 6.902,12.657 5.554,0 7.181,-2.379 8.41,-12.296 0.925,-7.466 0.833,-8.737 -0.89,-12.267 -1.627,-3.332 -2.46,-3.982 -5.422,-4.232 -1.925,-0.161 -4.267,0.289 -5.205,1 m -15.02,7.045 c -0.475,5.949 0.408,7.751 3.003,6.126 2.078,-1.302 2.852,-7.912 1.164,-9.946 -2.352,-2.834 -3.738,-1.564 -4.167,3.82 m 17.444,-3 c -1.444,1.758 -2.575,12.038 -1.787,16.237 0.937,4.997 4.1,4.861 5.515,-0.237 1.145,-4.12 1.402,-13.176 0.446,-15.668 -0.728,-1.897 -2.757,-2.058 -4.174,-0.332 m -77.549,3.5 c -1.999,9.7 -2.037,9.25 0.77,9.25 2.183,0 2.514,-0.36 2.075,-2.25 -0.288,-1.237 -0.895,-4.05 -1.349,-6.25 l -0.826,-4 -0.67,3.25 m -39.361,4.169 4.191,-0.08 -5.25,-1.548 m 5.036,11.209 c 0.008,2.75 0.202,3.756 0.432,2.236 0.229,-1.52 0.223,-3.77 -0.014,-5 -0.237,-1.23 -0.425,0.014 -0.418,2.764 M 61,137.61 c 0,2.699 7.713,14.101 13.267,19.613 26.049,25.847 70.211,18.744 86.619,-13.933 1.163,-2.316 2.114,-4.733 2.114,-5.373 0,-1.81 -2.792,0.846 -3.598,3.423 -1.652,5.28 -9.279,14.357 -17.125,20.382 -9.398,7.216 -27.773,10.992 -40.54,8.332 C 87.637,167.115 72.971,156.056 66.191,143.25 64.372,139.812 62.459,137 61.941,137 61.424,137 61,137.275 61,137.61"
       stroke="none"
       fill="#ce0400"
       fill-rule="evenodd"
       id="path2"
       sodipodi:nodetypes="ccccccccccsccscsccccccccscccsccccscccccccccccccccssccssscccsccccccccccccccsccccssccccccccsccccscccccsccccccssccssscccscccsccssccccccccccscsccccssccccscsscsccccccsssccsssscsccccssscsssccccscscsccccccccscccscsssccccsccssccccccccccccccscccccccccsccccsccccsc" /><path
       d="m 114.63511,56.441078 c 2.32483,-0.09049 4.22606,-0.559828 4.22606,-1.041101 0,-2.160758 5.03547,-5.758373 8.06132,-5.758373 3.17402,0 7.7998,3.938683 16.06,13.672531 3.52404,4.153466 4.84455,4.167388 3.66126,0.03978 -1.06895,-3.724895 -0.1412,-5.068283 3.177,-4.598943 m -26.31888,-4.472657 c -1.50448,1.504475 -0.45841,4.416973 2.86676,7.981774 3.16507,3.393771 11.50779,18.665243 12.02288,22.009295 0.5469,3.549887 1.33643,4.404047 2.88366,3.120321 2.00862,-1.667552 6.46934,0.275439 6.30726,2.747433 -0.10143,1.548227 -0.16804,1.561154 -0.55386,0.105402 -1.05602,-3.986412 -6.57077,-3.048725 -6.09646,1.037124 0.22075,1.900233 0.96155,2.700698 2.73252,2.950284 3.34107,0.471329 5.05635,-2.243289 4.89228,-7.742133 -0.0745,-2.49387 -0.33212,-3.507129 -0.57176,-2.252239 -0.34803,1.814718 -0.87803,2.146836 -2.59928,1.627777 -3.27942,-0.988399 -3.97746,-2.041433 -2.69473,-4.061985 1.06099,-1.670535 1.12164,-1.628771 0.67816,0.458403 -0.40172,1.893272 -0.23964,2.089163 0.92675,1.121645 1.98873,-1.650648 1.77196,-2.435202 -1.02519,-3.709979 -2.11004,-0.961553 -2.37256,-0.882997 -1.95294,0.585682 0.2665,0.933709 -0.31322,0.131255 -1.28869,-1.782898 -0.97547,-1.914155 -2.00265,-3.704014 -2.28108,-3.977464 -0.27843,-0.273451 -1.77196,-2.865763 -3.31919,-5.761356 -2.11303,-3.953599 -2.54061,-5.591319 -1.72026,-6.57972 1.24694,-1.502487 -0.9874,-4.107725 -2.41332,-2.814055 -0.44746,0.404707 -0.5489,-0.003 -0.22572,-0.905868 0.78654,-2.201526 -0.25854,-3.085517 -1.96984,-1.665563 -1.09878,0.912829 -1.5005,0.706001 -1.94697,-1.003315 -0.57276,-2.187604 -1.45575,-2.683794 -2.65098,-1.488565 m 9.7776,3.314222 c 0.98939,1.093802 2.02353,1.988731 2.29698,1.988731 0.27346,0 -0.31322,-0.894929 -1.30262,-1.988731 -0.98939,-1.093803 -2.02353,-1.988733 -2.29698,-1.988733 -0.27345,0 0.31322,0.89493 1.30262,1.988733 m -2.93039,2.898576 c -0.3202,0.518065 -0.15811,1.203183 0.35996,1.523368 0.51806,0.320186 1.20318,0.158105 1.52336,-0.35996 0.32018,-0.518064 0.15811,-1.203183 -0.35996,-1.523369 -0.51806,-0.320186 -1.20318,-0.158103 -1.52336,0.359961 M 118.86117,61.574 c -0.82035,0.529997 -1.08685,0.970501 -0.59165,0.979451 0.49519,0.008 0.0895,0.909844 -0.89991,2.003647 -0.98939,1.093802 -1.39509,2.040439 -0.8999,2.103083 0.4952,0.06364 1.34737,0.21876 1.89427,0.34604 0.5469,0.127279 1.5194,0.299304 2.16076,0.382831 1.56016,0.201855 8.28008,11.03945 8.28008,13.354333 0,1.006299 0.35201,1.612862 0.78157,1.346372 0.42957,-0.265495 0.78058,0.348028 0.78058,1.362281 0,1.014254 -0.23964,1.823668 -0.53198,1.797814 -1.71827,-0.150149 -3.0189,0.300298 -3.0189,1.045078 0,0.47133 1.23003,0.710972 2.73451,0.53298 1.67451,-0.197879 1.96387,-0.103414 0.74577,0.245609 -1.0938,0.312231 -2.5585,1.030163 -3.25455,1.595957 -0.81241,0.660259 -4.81374,0.78356 -11.18662,0.345045 -7.80876,-0.537952 -9.92377,-0.409679 -9.9357,0.604575 -0.011,0.862115 -0.25755,0.932715 -0.74578,0.214783 -0.96056,-1.412 -10.812737,-1.80378 -11.641044,-0.462381 -0.353,0.571761 -1.622805,1.083859 -2.821016,1.13855 -1.998676,0.09049 -1.972822,0.15512 0.307259,0.784554 1.890289,0.521048 2.560493,1.45078 2.797151,3.878028 0.402719,4.123635 1.765,4.02917 5.82599,-0.404708 2.29897,-2.509779 3.88498,-3.444483 5.24329,-3.089495 1.07193,0.280411 2.09016,0.08452 2.26318,-0.435532 0.17301,-0.520054 1.11567,-0.639377 2.09413,-0.263507 1.06895,0.410673 1.54823,1.281737 1.2012,2.185617 -0.47631,1.240968 -0.31422,1.285715 0.92575,0.256546 0.82731,-0.686112 1.26185,-1.638716 0.96553,-2.118 -0.29533,-0.478289 0.0448,-0.689095 0.75672,-0.467351 4.48856,1.396089 6.88697,1.572092 6.19588,0.45542 -0.5111,-0.827314 -0.30924,-0.924761 0.66225,-0.319192 0.76865,0.477295 2.4541,0.731853 3.74578,0.564799 1.47763,-0.190918 2.10408,0.09248 1.68943,0.763674 -0.44747,0.724892 1.35034,1.013258 5.58336,0.896917 5.99802,-0.166059 6.12729,-0.221743 3.28241,-1.43487 -1.62779,-0.694067 -3.85516,-1.314551 -4.94896,-1.377196 l -1.98874,-0.115347 1.98874,-0.85416 c 2.66092,-1.143521 3.71395,-1.182301 3.0527,-0.113358 -0.5111,0.827313 3.42559,2.419293 4.16142,1.682468 0.68313,-0.682136 -0.99337,-5.546573 -1.91117,-5.546573 -0.52005,0 -0.62347,0.559828 -0.23069,1.242957 0.39376,0.684123 0.33212,0.893934 -0.13523,0.468346 -1.16938,-1.063971 -1.50051,-3.844219 -0.37488,-3.149157 1.3941,0.862116 1.07491,-1.235002 -0.41565,-2.725556 -0.72788,-0.727877 -1.11766,-1.941003 -0.86609,-2.695726 0.30427,-0.912829 0.0298,-1.108719 -0.81936,-0.583693 -0.82532,0.510109 -1.03215,0.393768 -0.58568,-0.329136 0.66126,-1.069937 -1.85051,-7.143524 -2.95426,-7.143524 -0.29135,0 -0.25357,0.447465 0.0845,0.994366 0.33809,0.546901 0.37984,0.994365 0.0935,0.994365 -0.28637,0 -1.02817,-0.948624 -1.64965,-2.10905 -0.86809,-1.62181 -0.85217,-1.938019 0.0686,-1.369241 0.65827,0.40769 0.43056,-0.429566 -0.50713,-1.859465 -0.93669,-1.429897 -2.21346,-2.308917 -2.83692,-1.951939 -0.62447,0.355982 -0.81439,0.293337 -0.4236,-0.139211 0.7766,-0.860128 -0.84223,-4.512433 -1.98873,-4.488568 -0.39079,0.009 -1.38218,0.449453 -2.20252,0.97945 m -14.04841,5.717604 c -1.18727,1.514419 -1.17037,1.590986 0.12728,0.592642 0.82035,-0.631423 2.61022,-1.353333 3.97747,-1.604907 l 2.48591,-0.457408 -2.61319,-0.135234 c -1.43984,-0.07457 -3.22473,0.645343 -3.97747,1.604907 m 34.19823,3.411669 c -0.91878,1.107723 -0.77162,1.421943 0.71595,1.534307 1.03016,0.07756 2.46106,-0.61253 3.18097,-1.532318 1.15844,-1.480611 1.11966,-1.525358 -0.33411,-0.388797 -1.19621,0.935698 -1.74709,0.973484 -2.02452,0.139211 -0.2655,-0.795493 -0.73384,-0.719921 -1.53829,0.247597 m -39.170046,1.560158 c -1.203183,1.5353 -1.179318,1.595957 0.200856,0.521047 1.23601,-0.962546 1.85251,-0.962546 2.93537,0 1.15645,1.029169 1.1654,0.948625 0.0528,-0.521047 -0.7239,-0.957575 -1.43089,-1.740141 -1.57011,-1.740141 -0.13921,0 -0.86808,0.782566 -1.618826,1.740141 m 12.615476,-0.216773 c -1.06198,0.802453 -1.45177,1.45973 -0.86808,1.45973 0.58469,0 1.61982,-0.671197 2.30096,-1.491549 1.54823,-1.865431 1.06099,-1.855487 -1.43288,0.03182 m 3.41068,2.311901 c -1.23998,1.327479 -1.18827,1.427909 0.41863,0.811402 1.00828,-0.386807 2.41233,-0.222738 3.12032,0.364933 0.99237,0.823335 1.17434,0.637388 0.79549,-0.811402 -0.59363,-2.270138 -2.41133,-2.423271 -4.33444,-0.364933 m -10.4299,0.142195 c 0.33808,0.546901 0.81139,0.994365 1.05303,0.994365 0.24163,0 0.43851,-0.447464 0.43851,-0.994365 0,-0.546901 -0.47431,-0.994366 -1.05304,-0.994366 -0.57871,0 -0.77659,0.447465 -0.4385,0.994366 m 2.48591,0.497182 c 0,0.820353 0.176,1.491549 0.39079,1.491549 0.21478,0 0.64832,-0.671196 0.96354,-1.491549 0.31422,-0.820352 0.13821,-1.491548 -0.39079,-1.491548 -0.53,0 -0.96354,0.671196 -0.96354,1.491548 m -11.69971,1.008288 c 0.401724,0.431555 0.03679,1.291681 -0.812396,1.912165 -1.277761,0.934704 -1.060989,1.104741 1.257872,0.991383 1.541268,-0.07557 3.131258,0.355983 3.532984,0.958568 0.44348,0.665231 0.73583,0.369905 0.74577,-0.750745 0.0101,-1.229037 -0.48028,-1.656614 -1.464699,-1.278756 -0.813391,0.312232 -1.373219,0.08055 -1.242957,-0.51508 0.130262,-0.595626 -0.434538,-1.311569 -1.254889,-1.591981 -0.820352,-0.279416 -1.162415,-0.156115 -0.761685,0.274446 m 20.15182,0.483261 c -0.33808,0.546901 0.0835,0.994366 0.93569,0.994366 0.85218,0 1.55023,-0.447465 1.55023,-0.994366 0,-0.546901 -0.42063,-0.994366 -0.9357,-0.994366 -0.51508,0 -1.21214,0.447465 -1.55022,0.994366 m 2.48592,3.068614 c -2.16275,0.766655 -2.05834,0.821345 0.79549,0.413655 1.80477,-0.258534 3.05469,-0.103414 2.77825,0.344051 -0.27643,0.447465 0.1412,0.814386 0.92875,0.814386 1.08087,0 1.16241,-0.326152 0.33211,-1.326484 -1.22804,-1.478622 -1.3414,-1.484589 -4.8346,-0.245608 m -28.275794,3.18893 c 0.373881,0.980445 0.929732,1.532319 1.235997,1.226054 0.306264,-0.305271 9.93e-4,-1.107724 -0.679152,-1.782898 -0.982434,-0.974478 -1.095791,-0.860126 -0.556845,0.556844 m 14.375544,0.230694 c 0.85416,1.029168 0.64933,1.195227 -0.95857,0.775605 -1.12463,-0.294332 -2.04441,-0.147166 -2.04341,0.326152 9.8e-4,0.474312 1.29665,0.952602 2.87968,1.062977 1.98575,0.138217 3.01491,-0.324163 3.32019,-1.491548 0.31819,-1.219094 -0.21877,-1.73318 -1.92212,-1.837588 -1.85051,-0.114353 -2.12694,0.138217 -1.27577,1.164402 m 9.95361,3.514089 c 2.70666,2.079219 3.59065,2.315878 4.30859,1.155453 0.2635,-0.426583 -1.15049,-1.285715 -3.1422,-1.909182 l -3.62049,-1.132583 2.4541,1.886312 m -28.782919,1.18429 c -0.951609,2.517734 -0.53497,3.766658 1.217103,3.650317 0.906862,-0.05966 0.90388,-0.191913 -0.009,-0.563805 -0.836261,-0.340074 -0.917799,-1.207161 -0.273451,-2.904543 0.506133,-1.330462 0.693074,-2.419292 0.415646,-2.419292 -0.277428,0 -0.884986,1.007292 -1.350349,2.237323 m 9.610546,-0.584687 c 0.684124,0.276433 1.802786,0.276433 2.485915,0 0.684123,-0.27544 0.124295,-0.501161 -1.242957,-0.501161 -1.367254,0 -1.926087,0.225721 -1.242958,0.501161 m -0.745775,7.296657 c 0,1.640703 0.362944,2.983097 0.807426,2.983097 0.444481,0 1.799802,-1.342394 3.012928,-2.983097 l 2.205505,-2.983098 h -3.01293 c -2.684788,0 -3.012929,0.325158 -3.012929,2.983098 m 33.081559,-2.294002 c 0.96752,0.252568 2.30992,0.235664 2.9831,-0.03679 0.67319,-0.272457 -0.11833,-0.47829 -1.75903,-0.458403 -1.64071,0.01989 -2.19159,0.242625 -1.22407,0.495195 m -21.34804,4.481606 c 0.92774,0.927744 1.45873,0.927744 2.38648,0 0.92774,-0.927743 0.66324,-1.193238 -1.19324,-1.193238 -1.85648,0 -2.12098,0.265495 -1.19324,1.193238 m -2.28704,40.522391 c 1.80179,0.73086 1.73119,0.85218 -0.75771,1.29368 l -2.74743,0.48823 2.67087,-0.12131 c 1.46768,-0.0667 2.85283,-0.68015 3.07756,-1.36428 0.25157,-0.76665 -0.48028,-1.2161 -1.91217,-1.17335 -2.16871,0.0657 -2.19059,0.12231 -0.33112,0.87703 m 14.23236,-0.26748 c 0.71693,0.28737 1.57508,0.25158 1.9052,-0.0786 0.33014,-0.33012 -0.25654,-0.5648 -1.30461,-0.52203 -1.15843,0.0477 -1.3941,0.28338 -0.60059,0.60059 m -28.899259,0.97348 c 0.684123,0.27643 1.802785,0.27643 2.485915,0 0.684123,-0.27544 0.124295,-0.50116 -1.242958,-0.50116 -1.367253,0 -1.926086,0.22572 -1.242957,0.50116 m 42.820389,0.0209 c 0.71693,0.28737 1.57506,0.25158 1.9052,-0.0786 0.33012,-0.33013 -0.25655,-0.5648 -1.30461,-0.52204 -1.15844,0.0477 -1.3941,0.28339 -0.60059,0.60059 m -59.227427,1.00033 c 0.957574,0.25058 2.522707,0.25058 3.480281,0 0.957575,-0.24958 0.174014,-0.45442 -1.740141,-0.45442 -1.914154,0 -2.697715,0.20484 -1.74014,0.45442 m 46.754087,0.004 c 0.96753,0.25256 2.30992,0.23566 2.98311,-0.0368 0.67318,-0.27245 -0.11834,-0.47829 -1.75904,-0.4584 -1.64071,0.0199 -2.19158,0.24263 -1.22407,0.4952 m 27.84225,0 c 2.34425,0.61196 5.20293,-0.54342 1.22406,-0.4952 -1.6407,0.0199 -2.19158,0.24263 -1.22406,0.4952 m -60.178031,0.96354 c 0.684124,0.27643 1.802785,0.27643 2.485914,0 0.684125,-0.27545 0.124297,-0.50116 -1.242957,-0.50116 -1.367253,0 -1.926087,0.22571 -1.242957,0.50116 m 47.792211,0.0209 c 0.71693,0.28738 1.57508,0.25158 1.9052,-0.0786 0.33014,-0.33014 -0.25654,-0.5648 -1.30461,-0.52205 -1.15843,0.0477 -1.3941,0.2834 -0.60059,0.60059 m -63.18599,1.00432 c 0.967518,0.25257 2.309912,0.23566 2.983098,-0.0368 0.673185,-0.27246 -0.11833,-0.4783 -1.759033,-0.45841 -1.640704,0.0199 -2.191583,0.24263 -1.224065,0.4952 m 77.10712,-0.0101 c 1.73732,0.69637 3.14315,-0.70432 0.60059,-0.60059 -1.15844,0.0477 -1.3941,0.28339 -0.60059,0.60059 m -34.53832,5.86676 c 0.0477,1.15844 0.2834,1.3941 0.60061,0.60159 0.28737,-0.71793 0.25156,-1.57607 -0.0786,-1.9062 -0.33013,-0.33013 -0.5648,0.25655 -0.52205,1.30461 m -13.84257,7.37521 c 0,1.36726 0.22573,1.92709 0.50117,1.24296 0.27643,-0.68313 0.27643,-1.80179 0,-2.48592 -0.27544,-0.68312 -0.50117,-0.12429 -0.50117,1.24296 m 25.51047,2.66788 c 0.71693,0.28737 1.57507,0.25158 1.9052,-0.0786 0.33013,-0.33013 -0.25655,-0.5648 -1.30461,-0.52204 -1.15843,0.0477 -1.3941,0.2834 -0.60059,0.60059 m -5.78026,4.23003 c 0,0.51211 -1.45475,1.10873 -3.23169,1.3255 -1.77693,0.21776 -0.77062,0.38681 2.23733,0.37586 3.00795,-0.0101 4.68048,-0.1929 3.71694,-0.40668 -0.96354,-0.2138 -1.49652,-0.80147 -1.18429,-1.3076 0.31223,-0.50514 0.0935,-0.9188 -0.48525,-0.9188 -0.57872,0 -1.05304,0.41863 -1.05304,0.93172 m -10.93802,1.05702 -3.48028,0.73285 3.17303,0.13026 c 1.74511,0.0726 3.44944,-0.31621 3.78753,-0.86311 0.33809,-0.5469 0.47631,-0.9357 0.30726,-0.86311 -0.16904,0.0716 -1.87338,0.46039 -3.78754,0.86311 m -16.095801,0.67915 c 0.716938,0.28737 1.575075,0.25158 1.905205,-0.0786 0.33013,-0.33012 -0.256546,-0.56479 -1.304608,-0.52204 -1.158436,0.0477 -1.394101,0.2834 -0.600597,0.6006 m 9.943661,0 c 0.71693,0.28737 1.57508,0.25158 1.9052,-0.0786 0.33013,-0.33012 -0.25654,-0.56479 -1.3046,-0.52204 -1.15844,0.0477 -1.3941,0.2834 -0.6006,0.6006 m 26.84788,0 c 0.71694,0.28737 1.57507,0.25158 1.90521,-0.0786 0.33012,-0.33012 -0.25656,-0.56479 -1.30461,-0.52204 -1.15844,0.0477 -1.3941,0.2834 -0.6006,0.6006"
       stroke="none"
       fill="#f07033"
       fill-rule="evenodd"
       id="path3"
       sodipodi:nodetypes="csscccccccccccccccccccssccccccccsssccssscccscscscscsccccccccccccsccccccccccccccccscccssccssscccccccccscccccccccccccsccscccccsccsssccscsccccsccscccssscccssccccccccscccccccccccccscccsccsccsccssccsscccccccccsccccsccsccccsccssccscccsccscccsscccccssccccccscccccscsccccscccscccscccscc"
       style="stroke-width:0.994366" /><path
       d="m 125,54.751527 c 0,1.843451 1.672,2.877848 2.5,1.547625 0.997,-1.601231 2.485,-0.136993 1.797,1.768998 -0.339,0.938105 -0.248,1.373902 0.202,0.969872 1.434,-1.291508 3.681,1.309376 2.427,2.809351 -0.825,0.986747 -0.395,2.62173 1.73,6.568719 1.556,2.890753 3.109,5.478732 3.452,5.751725 0.342,0.272994 0.936,1.492034 1.318,2.710081 0.383,1.217055 1.006,2.13332 1.385,2.037028 1.233,-0.316673 5.189,1.321288 5.189,2.147218 0,0.442745 -0.685,1.368938 -1.523,2.058867 -1.291,1.064178 -1.421,0.968879 -0.853,-0.623418 0.549,-1.537698 0.427,-1.652851 -0.677,-0.636323 -1.543,1.421552 -0.602,2.656475 2.803,3.677967 2.003,0.600586 2.25,0.329578 2.25,-2.467861 0,-1.72929 -0.627,-4.551546 -1.393,-6.271902 -0.766,-1.720355 -1.671,-3.959894 -2.012,-4.977415 -0.436,-1.30342 -0.984,-1.562516 -1.857,-0.879536 -0.681,0.533082 -2.018,0.955974 -2.972,0.939098 -1.361,-0.02383 -1.487,-0.325607 -0.588,-1.400705 0.837,-1.001638 1.338,-1.062193 1.859,-0.225344 0.533,0.856703 0.901,0.843798 1.459,-0.05261 0.994,-1.596267 -2.344,-4.809649 -5.496,-5.289125 -1.999,-0.30476 -2.44,-0.875564 -2.199,-2.850052 0.2,-1.64491 -0.685,-3.516156 -2.652,-5.605797 C 128.053,53.168165 125,52.320396 125,54.751527 m 52.232,3.533033 c 0,1.910954 0.206,2.692212 0.457,1.737231 0.252,-0.954981 0.252,-2.519482 0,-3.474463 -0.251,-0.954981 -0.457,-0.173723 -0.457,1.737232 m -62.482,2.737876 c -2.723,1.675684 -3.738,4.211049 -1.687,4.211049 0.597,0 0.926,1.411624 0.75,3.219338 -0.23,2.370576 -1.038,3.562813 -3.063,4.521764 -1.513,0.71574 -2.75,1.724327 -2.75,2.240532 0,1.786867 -3.934,0.929171 -5.026,-1.094952 -1.129,-2.094604 -4.281,-1.946691 -6.474,0.30476 -0.672,0.689929 -0.629,0.820966 0.132,0.398075 1.432,-0.794163 6.368,2.985059 6.368,4.877152 0,0.859682 1.011,1.416588 2.573,1.416588 3.886,0 2.851,3.432769 -1.087,3.606493 -1.642,0.07247 -4.436,0.72368 -6.208,1.447361 -2.944,1.203157 -3.497,1.114807 -6.407,-1.020499 -3.058,-2.244503 -3.238,-2.264357 -4.528,-0.51422 -2.869,3.895369 -1.86,4.433414 7.353,3.924157 6.286,-0.346454 8.914,-0.137986 9.484,0.753462 0.628,0.980791 0.793,0.979798 0.805,-0.0069 0.01,-0.844791 1.852,-1.247828 5.765,-1.262719 5.733,-0.02184 5.743,-0.0278 3.416,-1.804735 -1.706,-1.302427 -2.244,-2.566139 -2,-4.693503 0.31,-2.703132 0.665,-2.931453 4.992,-3.20941 3.812,-0.244206 4.926,0.08239 6.139,1.801757 2.103,2.980096 1.009,5.79044 -2.664,6.847669 -2.996,0.861667 -2.926,0.905346 1.586,0.990718 3.793,0.07147 4.606,-0.200526 4.146,-1.39177 -0.32,-0.827915 0.1,-1.736239 0.954,-2.061846 0.839,-0.31965 1.781,-1.239886 2.092,-2.044969 0.318,-0.822951 0.133,-1.198193 -0.422,-0.857696 C 128.445,81.953591 128,81.404626 128,80.40001 c 0,-1.004616 -1.61,-4.381793 -3.577,-7.503846 -2.713,-4.305356 -4.148,-5.677272 -5.941,-5.677272 -2.98,0 -3.907,-1.392763 -1.982,-2.978111 0.813,-0.670075 1.231,-1.614136 0.93,-2.097583 -0.301,-0.484439 -0.071,-0.880528 0.511,-0.880528 0.582,0 1.059,-0.446716 1.059,-0.992703 0,-1.392763 -1.072,-1.203157 -4.25,0.752469 m 14.803,-0.836849 c -0.322,0.517198 -0.159,1.201171 0.362,1.520822 0.521,0.31965 1.21,0.15784 1.532,-0.359359 0.322,-0.517198 0.159,-1.201171 -0.362,-1.520822 -0.521,-0.31965 -1.21,-0.15784 -1.532,0.359359 M 126,70.197003 c 0.589,1.091974 1.295,1.985407 1.57,1.985407 0.275,0 0.019,-0.893433 -0.57,-1.985407 -0.589,-1.091974 -1.295,-1.985407 -1.57,-1.985407 -0.275,0 -0.019,0.893433 0.57,1.985407 m -11,3.47347 c -0.924,1.105871 -1.001,1.886136 -0.258,2.623715 1.538,1.526778 5.436,0.02184 5.053,-1.951655 -0.431,-2.221671 -3.177,-2.605847 -4.795,-0.67206 m 17.379,10.800615 c 0.127,0.853725 0.509,1.82856 0.85,2.168065 0.342,0.338511 0.518,-0.08239 0.392,-0.935127 -0.127,-0.853725 -0.509,-1.82856 -0.85,-2.168065 -0.342,-0.338512 -0.518,0.08239 -0.392,0.935127 M 106,92.532834 c 0,1.459274 0.574,2.481759 1.393,2.481759 1.915,0 2.97,-3.129002 1.391,-4.124684 C 106.651,89.546781 106,89.929965 106,92.532834 M 94,94.021889 C 94,95.65985 94.365,97 94.812,97 c 0.447,0 1.81,-1.34015 3.03,-2.978111 l 2.218,-2.978111 h -3.03 c -2.7,0 -3.03,0.324614 -3.03,2.978111"
       stroke="none"
       fill="#fccc20"
       fill-rule="evenodd"
       id="path4"
       sodipodi:nodetypes="cccccccccsccccsscccccccccccccccsccscscssccccccccccccccccccscsccssccsssccsssccsccccccccscccsccsc"
       style="stroke-width:0.996345" /><path
       d="m 96.360604,46.321 c 9.030756,-31.807354 -9.624614,-10.048859 -18.719,10.281 0,0.689 -1.237,2.231 -2.75,3.428 l -2.75,2.174 -1.5,-3.596 c -0.825,-1.978 -1.95,-3.452 -2.5,-3.274 -1.894,0.611 -1.677,4.849 0.359,7.016 1.3,1.384 2.106,3.76 2.256,6.652 0.203,3.925 -0.304,5.199 -3.978,9.998 -2.316,3.025 -6.074,9.224 -8.35,13.775 -2.44,4.879 -4.433,7.799 -4.855,7.115 -0.492,-0.796 -1.04,-0.568 -1.746,0.725 -0.566,1.037 -3.202,2.696 -5.858,3.688 -7.573,2.828 -9.789,4.134 -10.144,5.981 -0.243,1.262 0.35,1.716 2.243,1.716 1.415,0 2.573,0.408 2.573,0.908 0,0.499 2.199,1.471 4.886,2.159 4.782,1.226 4.899,1.348 5.5,5.732 0.338,2.464 0.614,6.41 0.614,8.769 0,4.229 1.859,7.428 4.321,7.436 0.649,0.002 2.636,2.814 4.416,6.25 5.327,10.28 15.669,21.205 24.565,25.952 9.049,4.829 15.802996,6.296 28.697996,6.234 11.039,-0.054 13.283,-0.367 19.197,-2.685 14.522,-5.693 25.484,-15.229 32.803,-28.539 21.01669,-12.44452 3.2135,-55.23282 10.132,-25.576 0.971,-15.511 0.6,-17.64 -3.078,-17.64 -2.461,0 -3.997,-6.575 -2.453,-10.5 1.552,-3.948 2.704,-18.64 1.592,-20.299 -0.644,-0.959 -1.895,-0.06 -4.782,3.433 -2.151,2.603 -4.153,5.357 -4.449,6.12 -0.37,0.954 -2.187,-0.356 -5.808,-4.185 -2.899,-3.065 -4.986,-6.033 -4.638,-6.595 0.348,-0.563 0.262,-0.959 -0.192,-0.88 -2.189,0.38 -2.415,-0.306 -0.877,-2.653 2.285,-3.488 1.679,-6.852 -1.312,-7.276 -3.337,-0.472 -4.27,0.879 -3.195,4.625 1.19,4.151 -0.138,4.137 -3.682,-0.04 -8.307,-9.789 -12.959,-13.75 -16.151,-13.75 -3.043,0 -8.107,3.618 -8.107,5.791 0,0.484 -1.912,0.956 -4.25,1.047 -2.338,0.091 -6.888,0.644 -10.111,1.228 -3.224,0.584 -6.509996,0.814 -7.301996,0.51 -0.793,-0.304 -1.189,-0.145 -0.88,0.354 0.308,0.499 -0.906,1.223 -2.698,1.609 -1.793,0.386 -4.43,1.3 -5.86,2.03 -3.622,1.85 -4.982,0.312 -3.627,-4.103 0.776,-2.53 1.962,-3.743 4.752,-4.859 4.092,-1.637 7.976,-1.146 7.976,1.01 0,1.777 2.963,1.726 5.364996,-0.093 m 59.046,0.974 c -0.789,3.142 0.079,5.502 2.022,5.502 2.311,0 3.851,-3.601 2.567,-6 -1.478,-2.761 -3.835,-2.506 -4.589,0.498 m -38.43,0.537 c -0.927,1.733 -0.475,2.733 3.053,6.741 4.061,4.613 11.178,17.982 12.529,23.534 0.44,1.806 1.17,2.623 2.046,2.287 1.095,-0.421 1.132,-0.155 0.187,1.359 -2.284,3.656 3.834,7.014 7.004,3.844 1.815,-1.815 1.439,-10.17 -0.736,-16.358 -2.291,-6.519 -9.772,-17.355 -14.44,-20.915 -4.049,-3.089 -8.141,-3.297 -9.643,-0.492 m -8.375,5.903 c -3.034,1.772 -4.323,3.022 -3.468,3.362 0.749,0.298 -0.064,0.578 -1.806,0.621 -4.059,0.101 -6.332,0.984 -6.332,2.46 0,0.641 -2.465,3.631 -5.477996,6.643 -3.012,3.012 -5.487,6.114 -5.5,6.893 -0.012,0.779 -0.301,1.138 -0.641,0.797 -0.341,-0.34 -1.143,-0.078 -1.783,0.584 -2.159,2.23 -5.82,7.814 -5.399,8.235 0.23,0.229 2.191,0.698 4.359,1.041 5.166,0.817 5.555,1.126 4.871,3.852 -1.035,4.125 2.173,3.898 6.487,-0.459 4.700996,-4.749 6.083996,-4.969 6.083996,-0.967 0,2.298 0.452,3 1.933,3 1.063,0 2.218,-0.9 2.567,-2.001 0.729,-2.295 4.062,-4.387 5.538,-3.475 0.989,0.611 5.148,1.087 16.212,1.856 4.538,0.315 5.75,0.094 5.75,-1.049 0,-0.797 -0.338,-1.242 -0.75,-0.988 -0.412,0.253 -0.798,-0.853 -0.857,-2.459 -0.16,-4.344 -5.144,-15.567 -9.965,-22.437 -6.178,-8.803 -6.18,-8.804 -11.822,-5.509 m -16.581996,1.665 c -8.521,2.29 -18.558,8.74 -26.07,16.756 -3.466,3.698 -11.623,19.306 -10.615,20.313 0.945,0.946 2.086,-0.504 3.675,-4.672 2.08,-5.453 7.982,-13.952 12.798,-18.428 5.437,-5.053 16.365,-11.257 21.298,-12.091 3.893996,-0.657 8.751996,-3.448 5.889996,-3.383 -0.825,0.018 -3.964,0.696 -6.975996,1.505 M 115.9746,74.456 c 0,0.801 0.383,1.22 0.85,0.931 0.467,-0.289 0.591,-0.944 0.274,-1.456 -0.808,-1.308 -1.124,-1.161 -1.124,0.525 m 34.709,2.285 c -0.023,0.683 1.6,3.383 3.607,6 3.645,4.753 8.323,13.699 8.341,15.95 0.013,1.556 1.718,2.591 2.413,1.465 0.883,-1.427 -6.864,-16.325 -10.74,-20.656 -1.969,-2.2 -3.598,-3.441 -3.621,-2.759 m -36.535,2.248 c -0.35,0.566 0.051,0.734 0.941,0.393 1.732,-0.665 2.049,-1.382 0.611,-1.382 -0.518,0 -1.216,0.445 -1.552,0.989 m 7.493,0.389 c 0,0.207 0.787,0.995 1.75,1.75 1.586,1.243 1.621,1.208 0.378,-0.378 -1.307,-1.666 -2.128,-2.195 -2.128,-1.372 M 87.454604,89.683 c 0.721,0.289 1.584,0.253 1.916,-0.079 0.332,-0.332 -0.258,-0.568 -1.312,-0.525 -1.165,0.048 -1.402,0.285 -0.604,0.604 M 112.5166,103.9 c -1.853,1.501 -2.322,2.811 -2.233,6.233 0.103,3.901 0.625,4.784 5.236,8.85 4.827,4.256 6.283,7.181 4.212,8.461 -1.742,1.077 -3.972,-0.63 -4.608,-3.528 -0.491,-2.232 -1.203,-2.916 -3.036,-2.916 -2.155,0 -2.338,0.327 -1.818,3.25 0.601,3.38 4.471,7.75 6.863,7.75 5.241,0 9.265,-4.852 8.047,-9.705 -0.315,-1.255 -2.815,-3.956 -5.555,-6.002 -5.273,-3.937 -6.345,-6.918 -3.375,-9.383 1.367,-1.134 1.818,-1.048 3,0.569 0.766,1.047 1.392,3.167 1.392,4.712 0,2.114 0.48,2.809 1.941,2.809 2.748,0 3.041,-0.947 1.919,-6.208 -0.832,-3.903 -1.481,-4.813 -4.074,-5.717 -4.221,-1.471 -5.201,-1.369 -7.911,0.825 m -29.329996,0.286 c -0.242,0.723 -1.141,5.88 -1.997,11.461 -0.856,5.581 -1.836,11.543 -2.177,13.25 -0.568,2.84 -0.399,3.103 2.004,3.103 2.1,0 2.625,-0.477 2.625,-2.387 0,-1.924 0.629,-2.482 3.25,-2.88 3.946,-0.601 4.75,-0.202 4.75,2.357 0,2.177 2.632,3.682 4.009,2.293 0.501,-0.505 -0.506,-6.657 -2.353,-14.383 l -3.229,-13.5 -3.22,-0.314 c -2.004,-0.195 -3.387,0.183 -3.662,1 m 14.455,13.018 c 0.275,7.863 0.838,14.183 1.25,14.046 0.412,-0.137 2.549996,-0.25 4.749996,-0.25 3.288,0 4,-0.344 4,-1.934 0,-1.366 -0.807,-2.026 -2.75,-2.25 -2.388,-0.274 -2.791,-0.81 -3.06,-4.066 -0.285,-3.438 -0.098,-3.75 2.25,-3.75 1.893,0 2.56,-0.521 2.56,-2 0,-1.467 -0.667,-2 -2.5,-2 -2.243,0 -2.5,-0.404 -2.5,-3.934 0,-3.547 0.27,-3.964 2.75,-4.25 1.637,-0.188 2.75,-0.923 2.75,-1.816 0,-1.094 -1.354,-1.58 -5,-1.796 l -4.999996,-0.295 0.5,14.295 M 126.6416,105 c 0,1.333 0.667,2 2,2 1.889,0 2,0.667 2,12 0,11.15 0.135,12 1.912,12 1.737,0 1.978,-1.1 2.629,-12 0.645,-10.804 0.903,-12 2.587,-12 1.205,0 1.872,-0.712 1.872,-2 0,-1.795 -0.667,-2 -6.5,-2 -5.833,0 -6.5,0.205 -6.5,2 m 15.68,-0.61 c -0.293,0.765 -0.644,7.178 -0.779,14.25 -0.239,12.524 -0.189,12.868 1.927,13.18 1.959,0.288 2.172,-0.129 2.172,-4.25 0,-6.854 4.183,-5.905 5.619,1.275 0.439,2.194 1.202,3.155 2.506,3.155 2.14,0 2.513,-3.193 0.876,-7.499 -0.74,-1.946 -0.577,-3.923 0.63,-7.613 2.869,-8.771 -0.336,-13.839 -8.774,-13.873 -2.199,-0.009 -3.854,0.536 -4.177,1.375 m -74.624996,6.36 c -2.197,12.651 -2.072,12.572 -5.101,3.25 -2.761,-8.499 -2.762,-8.5 -6.457,-8.816 l -3.695,-0.317 0.552,3.817 c 0.304,2.099 0.842,8.654 1.196,14.566 0.578,9.677 0.832,10.75 2.546,10.75 1.721,0 1.912,-0.842 1.982,-8.75 l 0.079,-8.75 2.756,8 c 2.12,6.154 3.186,8 4.621,8 1.533,0 2.124,-1.377 3.325,-7.75 0.804,-4.263 1.84,-7.75 2.301,-7.75 0.462,0 0.84,3.375 0.84,7.5 0,7.366 0.045,7.5 2.542,7.5 h 2.541 l -0.577,-7.75 c -0.317,-4.263 -0.822,-10.562 -1.121,-14 l -0.544,-6.25 h -3.307 c -3.301,0 -3.31,0.014 -4.479,6.75 m 93.739996,-5.545 c -2.725,2.069 -3.795,6.339 -3.795,15.138 0,10.17 1.356,12.657 6.902,12.657 5.554,0 7.181,-2.379 8.41,-12.296 0.925,-7.466 0.833,-8.737 -0.89,-12.267 -1.627,-3.332 -2.46,-3.982 -5.422,-4.232 -1.925,-0.161 -4.267,0.289 -5.205,1 m -15.02,7.045 c -0.475,5.949 0.408,7.751 3.003,6.126 2.078,-1.302 2.852,-7.912 1.164,-9.946 -2.352,-2.834 -3.738,-1.564 -4.167,3.82 m 17.444,-3 c -1.444,1.758 -2.575,12.038 -1.787,16.237 0.937,4.997 4.1,4.861 5.515,-0.237 1.145,-4.12 1.402,-13.176 0.446,-15.668 -0.728,-1.897 -2.757,-2.058 -4.174,-0.332 m -77.548996,3.5 c -1.999,9.7 -2.037,9.25 0.77,9.25 2.183,0 2.514,-0.36 2.075,-2.25 -0.288,-1.237 -0.895,-4.05 -1.349,-6.25 l -0.826,-4 -0.67,3.25 m 8.33,24.306 c -4.675,0.41 -11.736,0.79 -15.691,0.845 -6.058,0.083 -9.588,1.195 -8.159,2.569 0.192,0.185 8.188,-0.182 17.769,-0.817 12.188996,-0.807 17.542996,-1.528 17.832996,-2.403 0.241,-0.726 -0.354,-1.185 -1.419,-1.095 -1.008,0.085 -5.657996,0.49 -10.332996,0.901 m 23.201996,0.053 c 0.35,1.053 4.574,1.665 17.38,2.517 9.305,0.62 17.321,0.757 17.813,0.306 1.337,-1.227 -2.462,-1.764 -17.395,-2.456 -7.425,-0.344 -14.571,-0.881 -15.88,-1.192 -1.747,-0.416 -2.258,-0.196 -1.918,0.825 m -56.201996,0.501 c 0,2.699 7.713,14.101 13.267,19.613 26.048996,25.847 70.210996,18.744 86.618996,-13.933 1.163,-2.316 2.114,-4.733 2.114,-5.373 0,-1.81 -2.792,0.846 -3.598,3.423 -1.652,5.28 -9.279,14.357 -17.125,20.382 -9.398,7.216 -27.773,10.992 -40.54,8.332 -14.099996,-2.939 -28.765996,-13.998 -35.545996,-26.804 -1.819,-3.438 -3.732,-6.25 -4.25,-6.25 -0.517,0 -0.941,0.275 -0.941,0.61 m 31,16.39 c 0,7.333 0.278,9 1.5,9 0.833,0 1.5,-0.889 1.5,-2 0,-1.321 0.667,-2 1.965,-2 2.406996,0 4.034996,-2.824 4.034996,-7 0,-4.992 -1.588,-7 -5.534996,-7 h -3.465 v 9 m 9.999996,0 c 0,7.333 0.278,9 1.5,9 1.222,0 1.5,-1.667 1.5,-9 0,-7.333 -0.278,-9 -1.5,-9 -1.222,0 -1.5,1.667 -1.5,9 m 4,-7.5 c 0,0.825 0.853,1.5 1.895,1.5 1.86,0 1.86,0.112 0,6.089 -2.549,8.19 -2.464,8.911 1.046,8.911 3.474,0 5.124,-1.909 2.29,-2.65 -1.947,-0.509 -1.948,-0.585 -0.1,-6.522 2.588,-8.317 2.494,-8.828 -1.631,-8.828 -2.444,0 -3.5,0.452 -3.5,1.5 m 8,0 c 0,0.825 0.859,1.5 1.908,1.5 1.877,0 1.877,0.103 0.008,6.25 -2.668,8.774 -2.677,8.75 3.084,8.75 3.778,0 5,-0.367 5,-1.5 0,-0.933 0.944,-1.5 2.5,-1.5 1.556,0 2.5,0.567 2.5,1.5 0,0.825 0.675,1.5 1.5,1.5 1.886,0 1.874,-0.712 -0.17,-10.227 -1.485,-6.908 -1.922,-7.773 -3.928,-7.773 -2.034,0 -2.376,0.739 -3.467,7.5 -1.002,6.216 -1.528,7.5 -3.072,7.5 -2.242,0 -2.291,-1.019 -0.352,-7.409 2.143,-7.064 2.003,-7.591 -2.011,-7.591 -2.444,0 -3.5,0.452 -3.5,1.5 M 95.641604,152 c 0,2.889 0.383,4.039 1.25,3.75 0.688,-0.229 1.25,-1.917 1.25,-3.75 0,-1.833 -0.562,-3.521 -1.25,-3.75 -0.867,-0.289 -1.25,0.861 -1.25,3.75 m 30.797996,1.278 c -0.361,1.884 -0.102,2.722 0.841,2.722 1.509,0 1.583,-0.571 0.45,-3.472 -0.692,-1.77 -0.824,-1.694 -1.291,0.75"
       stroke="none"
       fill="#000100"
       fill-rule="evenodd"
       id="path5"
       sodipodi:nodetypes="csccccccccccccssccscccccccscccccccccccssscccccccsccscccccccsccccccsccccccccsscccscccccccccccccsccccccccccsccccccscccccccscsccccssccccscsscsccccccsssccsssscsccccssscsssccccscscsccccccccscccscsssccccsccssccccccccccccccsccccccccccccccccccccsccccsccssssscccsssccscsccsccscssssscscscscccscccscc" /></g></svg>
