<svg xmlns="http://www.w3.org/2000/svg" width="24" height="24"><path fill="#f5e71b" fill-rule="evenodd" d="M12.72 6.72c-.09.08-.12.68-.12 2.04 0 1.87 0 1.93.22 2.08.3.22.62 0 .66-.45.02-.18.1-.41.17-.52.13-.18.15-.17.4.23l.31.54c.1.25.5.36.73.2.3-.21.27-.4-.18-1.14l-.4-.65.35-.37c.38-.42.42-.59.18-.82-.25-.25-.42-.2-1 .35l-.54.52v-.95c0-.99-.07-1.18-.45-1.18a.5.5 0 0 0-.33.12m5.64 1.03c-.21.08-.46.2-.54.29-.13.13-.17.12-.34-.1a.6.6 0 0 0-.77-.15q-.15.08-.36-.01a.5.5 0 0 0-.44.01c-.2.11-.21.2-.21 1.56s.01 1.45.2 1.55c.17.09.27.08.45-.04.22-.15.24-.23.27-1.08l.03-.93.35-.17c.48-.23.5-.22.38.13-.26.76.12 1.77.78 2.05 1.25.52 2.45-.55 2.14-1.9-.22-.98-1.07-1.5-1.94-1.2m-13.3.1c-.13.12-.16.4-.16 1.5 0 1.26.01 1.34.22 1.48.19.13.25.14.43.02.17-.11.2-.27.25-1.11.04-.79.08-1 .23-1.09q.17-.12.34 0c.15.09.19.3.23 1.08.04.8.08 1 .23 1.11.2.14.46.1.6-.1.03-.05.07-.49.07-.96 0-.96.12-1.23.5-1.17.24.03.25.06.3 1.03.03.55.09 1.06.13 1.13s.22.12.38.12c.41 0 .52-.33.47-1.52-.03-.8-.08-1.03-.24-1.25-.3-.4-.65-.5-1.17-.34-.53.15-.56.15-.94 0-.26-.1-.42-.1-.75-.02q-.42.1-.52.02c-.15-.14-.43-.1-.6.07m5.24-.05c-.37.15-.6.4-.6.64 0 .45.52.61.83.25.22-.26.8-.28.75-.02-.02.12-.2.2-.62.29-.84.16-1.1.39-1.14.96-.03.39.01.51.21.71.3.3.88.42 1.3.29q.33-.1.49 0t.42 0c.26-.13.26-.13.26-1.42 0-1.4-.04-1.52-.57-1.72-.31-.12-1-.1-1.33.02m8.1.95c-.3.4-.27.97.07 1.23.48.38.93.06.93-.66 0-.75-.58-1.09-1-.57m-7.7.93c-.29.08-.33.29-.08.44.23.15.68-.06.68-.33 0-.21-.14-.24-.6-.11"/></svg>