<svg xmlns="http://www.w3.org/2000/svg" width="24" height="24"><path fill="#969696" fill-rule="evenodd" d="M8.7 4.35c0 .2.05.25.25.25s.25-.05.25-.25-.05-.25-.25-.25-.25.05-.25.25m2.1 0c0 .2.05.25.25.25s.25-.05.25-.25-.05-.25-.25-.25-.25.05-.25.25m2.1 0c0 .2.05.25.25.25s.25-.05.25-.25-.05-.25-.25-.25-.25.05-.25.25m4.2 0c0 .2.05.25.25.25s.25-.05.25-.25-.05-.25-.25-.25-.25.05-.25.25M8.71 5.43c0 .22-.06.27-.26.27q-.23 0-.25.1.02.07.2.03.2-.06.2.12t-.2.12q-.18-.04-.2.04.02.08.25.09c.2 0 .25.05.25.25s.05.25.26.25c.2 0 .25-.04.22-.22a.3.3 0 0 0-.25-.26c-.34-.05-.32-.52.01-.52q.25-.01.28.23.03.21.25.25c.19.03.23-.01.23-.22s-.05-.26-.25-.26-.25-.05-.25-.25q0-.23-.1-.25-.07.02-.03.2.06.2-.1.2-.15-.02-.2-.22-.04-.31-.06.05m4.6-.06q-.01.21-.23.26-.31.05.04.06c.23 0 .28.06.28.26s-.05.25-.26.25c-.2 0-.25.04-.22.23q.03.21.26.25c.18.03.22-.01.22-.22s.05-.26.25-.26.25-.05.25-.25-.05-.25-.24-.25c-.2 0-.26-.06-.29-.27q-.04-.32-.05-.06m3.8.06c-.02.22-.07.27-.27.27q-.23 0-.25.1.02.07.2.03.2-.06.2.12t-.2.12q-.18-.04-.2.04.02.08.25.09c.2 0 .25.05.25.25s.05.25.26.25c.2 0 .25-.04.22-.22a.3.3 0 0 0-.25-.26c-.34-.05-.32-.52.01-.52q.25-.01.28.23.03.21.25.25c.19.03.23-.01.23-.22s-.05-.26-.25-.26-.25-.05-.25-.25q0-.23-.1-.25-.07.02-.03.2.05.2-.1.2-.15-.02-.2-.22-.05-.31-.06.05M7.1 5.95c0 .2.05.25.25.25s.25-.05.25-.25-.05-.25-.25-.25-.25.05-.25.25m8.4 0c0 .2.05.25.25.25s.25-.05.25-.25-.05-.25-.25-.25-.25.05-.25.25m-5.73.32c-.04.03-.07.14-.07.24q-.01.17-.22.2a.3.3 0 0 0-.26.27q-.03.2.06.22.1-.02.08-.17.01-.17.14-.17c.19.01.35-.16.35-.36q.02-.13.18-.14.16.01.17-.07c0-.1-.34-.12-.43-.02m1.1 0c-.04.03-.07.15-.07.25q-.01.19.25.18c.2 0 .25-.05.25-.25q0-.26-.18-.25c-.1 0-.22.03-.25.07m7.3 0c-.04.03-.07.14-.07.24q-.01.17-.23.2a.3.3 0 0 0-.25.27q-.03.2.06.22.1-.02.08-.17.01-.17.14-.17c.19.01.35-.16.35-.36q.02-.13.18-.14.16.01.17-.07c0-.1-.34-.12-.43-.02M5.05 9.1c0 1.26 0 1.3.21 1.3.26 0 .34-.23.34-1.05v-.6l.37.6c.45.73.42.7.5.62.12-.13.08-.72-.07-.84-.13-.11-.13-.12.03-.13q.17.02.23.15.14.32.32-.07c.1-.22.1-.22.12.07v.63q-.02.33.14.32.15.01.16.11-.01.1-.15.05-.14-.04-.15.04c0 .06.11.1.25.1.25 0 .25 0 .25-.95 0-.57.04-.95.1-.95q.09-.01.1-.1 0-.1-.1-.05-.1.04-.1-.23c0-.25-.03-.29-.23-.25a1 1 0 0 0-.4.34q-.16.28-.28.23-.11-.06-.06.04a.24.24 0 0 1-.23.37c-.12 0-.33-.21-.5-.48-.18-.26-.38-.47-.45-.47l-.27-.05c-.1-.04-.13.2-.13 1.25m3.33-1.23c.12.02.22.1.22.18s-.1.16-.22.18q-.3.04.05.06c.24 0 .27.04.22.21-.1.3-.51 1-.56.96q-.05-.03-.05.12a1 1 0 0 1-.09.35q-.1.18.17.17.25 0 .4-.32t.17-.15c.01.2.21.23.21.02 0-.2.18-.19.23.03q.05.24.06 0c.02-.3.48-.23.66.11.17.33.3.38.92.32l.43-.03v-.69c0-.4.04-.69.1-.69q.09 0 .1.08c0 .04.22.3.5.57.34.35.5.58.5.78q-.01.29.2.27.18-.01.2-.15 0-.14.09-.15c.05 0 .09-.17.08-.37q0-.33-.05-.2c-.04.18-.05.18-.23.01q-.16-.15-.13-.25.03-.08-.05-.09c-.06 0-.4-.29-.74-.64-.52-.55-.68-.65-1.02-.69q-.35-.03-.22 0c.25.06.21.3-.05.36q-.34.04-.01.06c.2 0 .22.07.25.8.04 1.12-.12 1.14-.62.09a5 5 0 0 1-.4-1q0-.16-.1-.13-.09.05-.1-.04.01-.09.13-.15.07-.04-.23 0c-.44.08-.44.08-.3.33q.17.32-.24.15c-.09-.03-.16-.17-.16-.3 0-.2-.05-.24-.27-.23q-.36.01-.05.06m4.06.52q0 .56.19.73c.3.32.38.22.35-.49-.03-.62-.05-.67-.3-.74s-.25-.06-.24.5m.96-.34q.01.23.1.25t.05.1q-.07.09-.13.06c-.04-.02-.07.28-.07.67s.01.63.03.53c.03-.14.07-.13.23.08.1.13.19.31.19.4 0 .25-.28.19-.33-.06q-.04-.31-.06.04c0 .23-.06.28-.26.28s-.25.05-.25.25.05.25.25.25.25-.05.25-.25.05-.25.25-.25q.26.01.25-.2c0-.23-.02-.23.4-.09.24.09.46.08.9-.01.34-.07.58-.15.56-.17s.02-.26.1-.5c.07-.26.12-.49.1-.5a9 9 0 0 0-1.31-.04c-.06 0-.1.1-.1.21 0 .15.06.2.28.2q.26 0 .22.1-.05.09.04.1.09-.02.14-.12.04-.11.13-.05c.15.14-.27.37-.68.37a.8.8 0 0 1-.64-.25c-.14-.14-.31-.25-.4-.25q-.12 0-.14-.1.02-.09.22-.1.19 0 .15-.06-.05-.08.04-.25c.07-.15.16-.18.36-.13.22.06.25.04.2-.1-.06-.14-.02-.17.26-.14q.3.04.3.15c-.04.18.42.16.57-.02.07-.08.19-.15.26-.15q.13-.01.14-.25c0-.2-.05-.25-.24-.25-.13 0-.26.05-.28.1q-.03.1-.36 0a1.2 1.2 0 0 0-.75-.02q-.4.1-.45.02c-.02-.06-.15-.1-.28-.1-.19 0-.24.05-.24.25m3.28-.18q.15.05-.19.39c-.29.3-.32.4-.3.8q.01.46-.11.55-.15.09.06.09c.2 0 .86.4.86.52q-.02.07-.22.1-.31.06.04.07c.23 0 .28.06.28.26s.05.25.25.25.25-.05.25-.25.05-.25.25-.25.25.05.25.25q0 .23.1.25.08-.01.04-.15-.06-.15.17-.24c.24-.1.24-.1-.04-.1-.35-.01-.37-.32-.04-.5.25-.13.74-1.01.57-1.01q-.1-.01-.1-.16c0-.08-.17-.32-.37-.53-.37-.35-.4-.37-1.13-.38-.41 0-.69.01-.62.04m.5.7q0 .36-.05.05-.09-.44-.4.04c-.13.2-.14.27-.04.33.07.05.11.17.1.27q-.05.2.29.34t.3.35q-.04.18-.16.18-.1-.02-.12.13 0 .15.27.12.26-.04.26-.13c-.09-.57-.11-.86-.05-.68l.07.23.33-.2c.26-.16.32-.26.32-.55 0-.21-.04-.34-.1-.3q-.08.04-.04-.09c.07-.18-.25-.36-.65-.36-.27 0-.31.04-.32.28m-8.62 1.51q.07.2-.19.24-.31.04.04.06c.23 0 .28.06.28.26s.05.25.25.25.25-.05.25-.25.05-.25.25-.25.25.05.25.25q0 .23.1.25.08-.01.04-.15-.06-.15.17-.24c.24-.1.24-.1-.03-.1-.23 0-.28-.06-.28-.26s-.05-.25-.25-.25-.25.05-.25.25-.05.25-.25.25-.25-.05-.25-.25q0-.23-.1-.25-.07.02-.03.2m2.23.55c0 .2.05.25.25.25s.25-.05.25-.25-.05-.25-.25-.25-.25.05-.25.25m-2.1 2.1c0 .2.05.25.25.25s.25-.05.25-.25-.05-.25-.25-.25-.25.05-.25.25m2.1 0c0 .2.05.25.25.25s.25-.05.25-.25-.05-.25-.25-.25-.25.05-.25.25m2.1 0c0 .2.05.25.25.25s.25-.05.25-.25-.05-.25-.25-.25-.25.05-.25.25m4.2 0c0 .2.05.25.25.25s.25-.05.25-.25-.05-.25-.25-.25-.25.05-.25.25m-8.39 1.08c0 .22-.06.27-.29.28q-.34.01-.04.06c.12.02.22.11.22.2q0 .15-.2.1-.18-.04-.2.04.02.08.25.09c.2 0 .25.05.25.25s.05.25.26.25c.2 0 .25-.04.22-.22a.3.3 0 0 0-.25-.26c-.34-.05-.32-.52.01-.52q.25-.01.28.23.03.21.25.25c.19.03.23-.01.23-.22s-.05-.26-.25-.26-.25-.05-.25-.25q0-.23-.1-.25-.07.02-.03.2.06.2-.1.2-.15-.02-.2-.22-.04-.31-.06.05m4.6-.06q-.01.21-.23.26-.31.04.04.06c.23 0 .28.06.28.26s-.05.25-.26.25c-.2 0-.25.04-.22.23q.03.21.26.25c.18.03.22-.01.22-.22s.05-.26.25-.26.25-.05.25-.25-.05-.25-.24-.25c-.2 0-.26-.06-.29-.27q-.04-.32-.05-.06m3.8.06c-.02.22-.07.27-.3.28q-.34.01-.04.06.2.05.22.2 0 .15-.2.1-.18-.04-.2.04.02.08.25.09c.2 0 .25.05.25.25s.05.25.26.25c.2 0 .25-.04.22-.22a.3.3 0 0 0-.25-.26c-.34-.05-.32-.52.01-.52q.25-.01.28.23.03.21.25.25c.19.03.23-.01.23-.22s-.05-.26-.25-.26-.25-.05-.25-.25q0-.23-.1-.25-.07.02-.03.2.05.2-.1.2-.15-.02-.2-.22-.05-.31-.06.05m-10.01.52c0 .2.05.25.25.25s.25-.05.25-.25-.05-.25-.25-.25-.25.05-.25.25m8.4 0c0 .2.05.25.25.25s.25-.05.25-.25-.05-.25-.25-.25-.25.05-.25.25m-5.73.32c-.04.03-.07.14-.07.24q-.01.17-.22.2a.3.3 0 0 0-.26.27c-.02.12 0 .22.06.22q.1-.02.08-.17.01-.17.14-.17c.19.01.35-.16.35-.36q.02-.13.18-.14.16.01.17-.07c0-.1-.34-.12-.43-.02m1.1 0c-.04.03-.07.15-.07.25q-.01.19.25.18c.2 0 .25-.05.25-.25q0-.26-.18-.25c-.1 0-.22.03-.25.07m7.3 0c-.04.03-.07.14-.07.24q-.01.17-.23.2a.3.3 0 0 0-.25.27c-.02.12 0 .22.06.22q.1-.02.08-.17.01-.17.14-.17c.19.01.35-.16.35-.36q.02-.13.18-.14.16.01.17-.07c0-.1-.34-.12-.43-.02"/></svg>