<svg xmlns="http://www.w3.org/2000/svg" width="24" height="24"><path fill="#fff9f9" fill-rule="evenodd" d="M8.7 3.5c-.8.24-1.6.89-2.05 1.65-.13.22-.44.96-.7 1.65-.58 1.6-.61 1.65-1.18 2.24-.26.27-.46.54-.44.6.06.18 1.45.2 1.71.02.3-.19.87-1.3 1.21-2.36.26-.8.63-1.56.71-1.47.02.02-.05.88-.16 1.92s-.16 1.93-.12 1.97c.12.12.76-.1 1.2-.42a18 18 0 0 0 2.36-2.62c.33-.43.62-.75.63-.7.02.04-.24.9-.56 1.92l-.6 1.85.57.03c.78.04 1-.03 1.17-.4a50 50 0 0 0 .85-2.98l.76-2.82c.12-.4-1.28-.13-2.05.38-.2.13-.87.84-1.5 1.59-.63.74-1.18 1.35-1.22 1.35-.11 0-.11.08.1-1.87l.17-1.63h-.3c-.17.01-.42.05-.56.1m6.23.13q-.2.21-.87 2.72a64 64 0 0 0-.66 2.63c0 .3.42.05 1.17-.72.86-.86 1.68-1.4 2.06-1.34.17.02.23.1.25.35.07.71-1.6 1.9-3.98 2.87-.82.33-1.12.56-.72.56.47 0 2.37-.66 3.47-1.2 1.87-.92 2.9-1.77 3.2-2.66.27-.8-.18-1.3-1.18-1.29-.51 0-.74.07-1.35.37-.4.2-.72.35-.72.33l.35-1.34c.2-.7.35-1.34.35-1.4q-.02-.1-.58-.11c-.48 0-.62.04-.79.23m-3.3 8.32c-.03.09-.03.48 0 .87.05.79.21 1.03.74 1.14.27.05.37.01.63-.24q.6-.62 0-1.16c-.32-.27-.6-.34-.6-.16q0 .09-.08.1c-.04 0-.07-.15-.07-.32 0-.29-.04-.33-.28-.36q-.28-.03-.33.13m-8.44.22c-.16.2-.2.4-.2 1.04V14h.6v-.75c0-.68.02-.75.2-.75s.2.07.2.75V14h.6l.02-.72c.03-.65.05-.73.23-.73s.2.08.23.72l.03.73h.59v-.79c0-.64-.04-.83-.2-1.04-.2-.25-.25-.26-1.15-.26s-.96.02-1.15.26m2.88.43c-.25.26-.3.36-.24.63.06.33.47.77.71.77.08 0 .19-.08.24-.17.1-.17.1-.17.1 0q0 .17.31.17c.3 0 .3 0 .3-.56 0-.48-.04-.6-.3-.85q-.55-.57-1.12.01m1.81 0c-.25.25-.29.36-.29.84 0 .56 0 .56.3.56.29 0 .3-.02.3-.42q0-.42.19-.62c.1-.12.22-.31.26-.44.05-.19.03-.22-.2-.22-.16 0-.38.12-.56.3m1 0c-.25.25-.29.36-.29.84 0 .56 0 .56.3.56.29 0 .3-.02.3-.42q0-.42.19-.62c.1-.12.22-.31.26-.44.05-.19.03-.22-.2-.22-.16 0-.38.12-.56.3m.91-.25c0 .02.12.34.27.7l.27.67-.2.16a1 1 0 0 0-.29.4c-.05.2-.03.22.22.22.46 0 .69-.24 1.07-1.16.2-.47.36-.9.36-.95s-.13-.09-.29-.09c-.24 0-.31.06-.4.32l-.13.33-.16-.32c-.12-.26-.22-.33-.44-.33-.15 0-.28.02-.28.05m3.9.24c-.26.26-.3.37-.3.85 0 .56 0 .56.3.56.29 0 .3-.02.3-.42q0-.42.19-.62c.1-.12.22-.31.26-.44.05-.19.03-.22-.2-.22-.16 0-.38.12-.56.3m1.15-.18c-.24.11-.44.48-.44.8 0 .1.14.33.3.5.26.25.36.3.62.24.49-.1.68-.33.68-.82 0-.66-.56-1.01-1.16-.72m1.36.51c0 .86.16 1 1.12 1.03.62.02.73 0 .94-.21s.24-.34.24-.85v-.6h-.3c-.3 0-.3.01-.3.5 0 .67-.18.74-.22.08-.03-.52-.04-.53-.33-.53s-.3.02-.33.48c-.04.63-.22.6-.22-.03 0-.49 0-.5-.3-.5h-.3zm2.7-.34c-.26.26-.3.37-.3.85 0 .56 0 .56.3.56.29 0 .3-.02.3-.44 0-.26.06-.48.15-.56.18-.15.23-.05.27.55.03.37.05.4.33.4.3 0 .3 0 .3-.59 0-.51-.04-.61-.28-.82q-.55-.48-1.08.05m1.6-.14c-.1.13-.1.19.04.32.21.21.5.1.45-.2-.04-.27-.3-.34-.48-.12"/></svg>