<svg xmlns="http://www.w3.org/2000/svg" width="24" height="24"><path fill-rule="evenodd" d="M3.8 7.69q-.7.36-.77 1.12a1.41 1.41 0 0 0 2.02 1.43c.73-.34 1-1.16.65-1.9a1.37 1.37 0 0 0-1.9-.65m2.9.59c0 .15-.03.57-.07.95-.05.57-.03.67.1.67.12 0 .14-.08.1-.37-.02-.21 0-.48.04-.6.07-.2.11-.16.32.37.14.34.28.57.32.53s.18-.35.32-.67l.24-.59.07.47c.04.25.04.55.01.66-.06.17-.02.2.3.2.3 0 .35-.03.31-.17a7 7 0 0 1-.08-.95C8.65 8 8.65 8 8.38 8c-.22 0-.29.08-.49.57l-.23.56-.24-.56C7.22 8.1 7.13 8 6.94 8c-.2 0-.24.05-.24.28m2.64.59-.42.95q-.02.07.11.08c.08 0 .18-.12.21-.26.06-.21.11-.25.39-.22.26.02.32.07.3.26-.02.2.02.22.37.22.22 0 .4-.01.4-.03l-.28-.63c-.16-.32-.34-.74-.41-.91-.08-.18-.17-.33-.2-.33-.05 0-.25.39-.47.87m1.56-.08c0 .44-.03.86-.06.95-.05.13.01.16.33.16h.39l-.04-.4c-.02-.22-.01-.4.02-.4s.15.18.26.4l.2.38.83.01c.7 0 .87-.02 1.01-.18.28-.31.17-.73-.24-.93q-.66-.32-.55-.49c.1-.16.38-.1.62.13l.23.21v-.31c0-.3-.02-.32-.4-.32-.9 0-1.2.84-.42 1.17.55.23.7.53.28.53a.6.6 0 0 1-.44-.25c-.26-.33-.3-.32-.34.08l-.03.32-.22-.42c-.2-.36-.2-.42-.07-.54.22-.18.13-.61-.16-.76a2 2 0 0 0-.72-.13h-.48zm3.1-.48v.31l.23-.21a1 1 0 0 1 .31-.22c.05 0 .06.38.05.85l-.04.85h.6l-.04-.85c-.01-.47 0-.85.05-.85.04 0 .18.1.3.22l.24.21V8H14zm2.18-.17c-.36.2-.54.76-.38 1.16a.97.97 0 0 0 1.6.3c.83-.82-.18-2.02-1.22-1.46m1.57.8c0 .7.03.95.13.95q.12 0 .12-.62v-.63l.41.63q.41.61.6.62c.17 0 .19-.08.19-.8 0-.43.03-.85.06-.94q.05-.15-.1-.16c-.11 0-.16.13-.18.56l-.03.56-.35-.54c-.25-.37-.42-.54-.6-.56L17.75 8zm2.23-.84a1 1 0 0 0-.29.3c-.14.28.1.64.56.83.4.17.47.46.1.46-.14 0-.32-.1-.44-.26l-.21-.27v.73h.48q.87 0 .8-.67c-.02-.21-.13-.33-.43-.49-.44-.23-.6-.54-.26-.54.11 0 .3.1.4.22l.21.22v-.32c0-.3-.02-.32-.37-.32-.21 0-.46.05-.55.1m-16.22.17c-.03.03.06.19.2.35.3.37.3.41-.05.7q-.3.26-.19.36.1.12.35-.19c.3-.35.34-.36.7-.04.38.31.5.22.17-.13-.3-.33-.3-.4 0-.74.15-.15.22-.3.17-.32s-.19.06-.31.2c-.3.3-.39.3-.72 0-.14-.14-.28-.22-.32-.19m7.74.33c0 .3.03.38.15.34.2-.08.29-.42.15-.6q-.3-.37-.3.26m4.97-.22c-.33.36-.16 1.32.22 1.32.4 0 .63-.74.39-1.2q-.28-.47-.61-.12"/></svg>