<svg xmlns="http://www.w3.org/2000/svg" width="24" height="24"><path fill="#da222a" fill-rule="evenodd" d="M4 8.92c-.52.61-.96 1.15-.98 1.2q-.01.07.17.08c.13 0 .43-.26.82-.72l.67-.78c.03-.03.02.13-.02.35-.19 1.06-.19 1.15-.05 1.15.08 0 .43-.34.78-.75.35-.42.65-.74.67-.72.02.01-.03.27-.11.57s-.15.63-.15.72c0 .25.3.23.37-.02q.05-.18.1-.2c.01 0 .12.09.23.2s.29.2.4.2c.31 0 .7-.21.76-.43.06-.2.07-.2.2.05.16.3.32.37.91.36q.43 0 .46-.17.05-.2.06.02c.01.24.32.21.38-.04l.06-.2.21.2c.16.16.33.2.71.18l.5-.02.09-.5.11-.53c.01-.01.19.07.38.18q.36.22.6.15.3-.09.03.06c-.14.09-.27.08-.56-.04-.32-.12-.38-.13-.33 0 .06.16.46.27.76.2l.45-.1c.31-.08.27.07-.1.37q-.33.26-.17.26c.19 0 .49-.31.66-.68l.12-.27-.06.3c-.03.17-.1.34-.14.4-.14.14-.1.25.06.19.19-.08.3-.7.18-.97a1 1 0 0 1-.1-.3q-.02-.1-.15-.18-.15-.1 0-.09.1 0 .08-.1c-.07-.1.34 0 .52.13.2.15.25.02.07-.17-.2-.19-.67-.2-.98-.04-.54.3-.54 0 0-.41.23-.19.24-.21.06-.21-.42 0-.86.95-.6 1.3q.09.12-.1-.04a.7.7 0 0 1-.23-.53c0-.18-.04-.33-.1-.33-.18 0-.1.57.1.84q.2.24.08.2a1 1 0 0 1-.32-.34c-.15-.27-.22-.3-.7-.3-.4 0-.58.05-.75.22l-.24.21.07-.46.07-.46h-.4c-.34.01-.4.05-.44.28-.05.24-.1.27-.4.23-.29-.03-.41.01-.62.22-.3.3-.35.32-.35.11 0-.34-.7-.46-1.1-.18-.23.16-.23.16-.16-.12.2-.77.2-.85 0-.85-.12 0-.44.28-.79.7-.32.38-.6.68-.62.66s.03-.33.1-.7c.14-.65.14-.66-.07-.66q-.2 0-1.16 1.12m10.53-.22c-.42.5-.8.9-.84.9s-.1-.12-.14-.27c-.07-.31-.23-.53-.36-.53-.05 0-.02.11.07.24q.15.25.12.68c-.02.37 0 .43.18.46.14.02.34-.15.72-.61.8-.98.82-.99.66-.25l-.14.76q.01.42.91-.62c.35-.41.65-.73.67-.71.02.01-.04.33-.13.7-.19.81-.19.75.05.75q.2 0 .26-.25l.06-.25.2.25c.17.22.25.24.9.22.8-.03.7.06.92-.88.03-.15.13-.3.22-.33q.18-.1.1.22c-.18.93-.19 1.02-.02 1.02q.17-.02.28-.31l.1-.31.2.31c.16.25.27.31.53.31.36 0 .34.02.5-.92q.07-.4.26-.38.17-.01.19-.15a.15.15 0 0 0-.15-.15q-.15-.01-.15-.26c0-.33-.33-.3-.38.04-.03.16-.1.22-.3.22a1 1 0 0 0-.45.18c-.19.17-.2.16-.12-.25.06-.36.04-.43-.1-.43-.08 0-.2.11-.25.25-.07.19-.17.25-.39.25-.16 0-.32.06-.34.13q-.06.15-.06 0c-.01-.2-1.01-.17-1.29.03q-.2.14-.22.12l.14-.55c.13-.5.13-.53-.04-.53-.1 0-.48.32-.83.72l-.65.72.13-.65c.18-.82.18-.79-.05-.79-.12 0-.48.33-.97.9m5.29.33c-.22.24-.22.25-.05.55.1.18.2.32.24.32.1 0 .2-.93.1-1.02-.04-.05-.17.02-.3.15m-11.5.1c-.2.24-.1.61.17.65.32.05.54-.16.5-.47q-.02-.28-.29-.29c-.14-.02-.31.04-.38.12m1.89.06c-.16.3-.03.6.25.6s.59-.4.5-.64c-.1-.24-.62-.2-.75.04m6.88.04c-.15.33-.04.56.26.56s.6-.39.5-.64c-.1-.26-.62-.2-.76.08"/></svg>