<svg xmlns="http://www.w3.org/2000/svg" width="24" height="24"><path fill="#dc383f" fill-rule="evenodd" d="m4.18 8.58-.88 1.2-.32.42h.29c.23 0 .36-.12.72-.6.24-.34.45-.6.48-.57.02.02 0 .3-.05.6-.08.51-.07.57.09.57.1 0 .38-.27.65-.65.26-.36.49-.64.5-.62l-.06.47c-.14.69-.12.8.1.8q.19 0 .29-.32.09-.29.1-.17c.03.52.86.65 1.29.21.27-.27.27-.27.05-.3a1 1 0 0 0-.42.07.5.5 0 0 1-.35.05c-.3-.12-.04-.24.5-.24.46 0 .54.03.54.18 0 .38.32.52 1.13.52.75 0 .77 0 .83-.27q.13-.63.13-.27.03.53.9.54c.56 0 .5.1.71-1.03.07-.32.1-.6.07-.63-.02-.02-.3-.05-.61-.07-.53-.02-.6 0-.82.27l-.25.28.07-.26c.05-.23.03-.26-.22-.27q-.41-.01-.04-.06.38-.1.4-.35c0-.05-.22-.08-.5-.08-.47 0-.5.02-.5.26 0 .2-.04.24-.2.2-.32-.11-.71.05-.9.37l-.2.3-.09-.26c-.2-.54-.92-.6-1.31-.09q-.24.32-.16.07l.11-.62c.06-.4.05-.43-.14-.43q-.2 0-.67.63l-.46.62.07-.45c.03-.25.09-.53.11-.62q.08-.2-.19-.18c-.18 0-.37.18-.8.78m8.29-.69a.13.13 0 0 1-.18.05c-.16-.1-.7.56-.65.78q.04.16-.05.18t-.03.18l.1.33c.06.28.49.66.83.74.27.06.39.03.6-.17q.23-.19.13-.05c-.26.33-.02.29.33-.06.26-.26.33-.4.29-.58q-.08-.23.06-.14.13.06.06.56c-.06.45-.05.49.13.49q.2-.01.66-.62c.48-.64.53-.62.37.2-.08.39-.07.42.13.42q.21 0 .6-.56l.46-.6c.03 0 .04.16.02.37q-.05.4.13.6c.25.26.82.25 1.12-.03l.23-.21v.22q-.02.24.22.2c.19-.03.24-.13.33-.64.08-.45.14-.6.29-.63s.17 0 .12.25c-.2 1.03-.2 1.05.05 1.01q.26-.01.27-.32l.04-.29.19.32c.18.3.22.31.77.31h.59l.16-1c.21-1.23.21-1.2-.03-1.2q-.2 0-.26.25c-.05.2-.1.24-.3.2-.26-.08-.62.09-.86.39-.16.2-.17.2-.08-.19.14-.6.13-.67-.12-.63a.3.3 0 0 0-.26.25c-.03.18-.1.22-.45.25s-.43.07-.45.24c-.03.2-.04.2-.32-.07-.3-.3-.5-.35-.8-.19-.27.14-.25.05.06-.36l.26-.34h-.28c-.24 0-.37.11-.69.56-.22.3-.44.58-.49.61-.08.05-.04-.35.1-.95q.09-.24-.15-.22-.21-.01-.68.65c-.26.35-.49.63-.5.6-.02 0 0-.22.06-.46.15-.64.14-.79-.08-.79s-.28.12-.37.82c-.04.3-.1.46-.12.38a1 1 0 0 0-.2-.34q-.15-.17-.04-.12c.22.13.12-.09-.17-.36-.31-.3-1.04-.48-1.15-.29m-4.2 1.2c-.2.22-.2.45-.02.6.19.16.46.03.57-.27.17-.44-.22-.69-.54-.34m2.09-.02c-.32.32-.11.83.28.68.2-.08.35-.48.24-.67-.11-.21-.32-.22-.52-.01m6.5.06c-.2.28-.2.42-.02.57.32.26.82-.33.56-.64q-.27-.31-.54.07m2.9 0c-.2.28-.2.42-.02.57.2.17.54-.02.62-.35.11-.44-.34-.6-.6-.22"/></svg>