<?xml version="1.0" encoding="UTF-8" standalone="no"?>
<svg
   viewBox="0 0 24 24"
   width="24pt"
   height="24pt"
   version="1.1"
   id="svg1"
   sodipodi:docname="mega_coffee.svg"
   xml:space="preserve"
   inkscape:version="1.3 (0e150ed6c4, 2023-07-21)"
   inkscape:export-filename="mega_coffee.svg"
   inkscape:export-xdpi="96"
   inkscape:export-ydpi="96"
   xmlns:inkscape="http://www.inkscape.org/namespaces/inkscape"
   xmlns:sodipodi="http://sodipodi.sourceforge.net/DTD/sodipodi-0.dtd"
   xmlns="http://www.w3.org/2000/svg"
   xmlns:svg="http://www.w3.org/2000/svg"><defs
     id="defs1" /><sodipodi:namedview
     id="namedview1"
     pagecolor="#ffffff"
     bordercolor="#000000"
     borderopacity="0.25"
     inkscape:showpageshadow="2"
     inkscape:pageopacity="0.0"
     inkscape:pagecheckerboard="0"
     inkscape:deskcolor="#d1d1d1"
     inkscape:document-units="pt"
     inkscape:zoom="16.329747"
     inkscape:cx="1.7759001"
     inkscape:cy="22.259989"
     inkscape:window-width="1920"
     inkscape:window-height="974"
     inkscape:window-x="-11"
     inkscape:window-y="1609"
     inkscape:window-maximized="1"
     inkscape:current-layer="svg1" /><g
     id="g1"
     transform="matrix(0.75,0,0,0.75,-180.01624,-180)"><g
       id="g2"
       transform="matrix(0.05786952,0,0,0.05786952,241.2545,240.16938)"><path
         d="m 0,0 c 8.1308412,1.9686586 16.169151,4.1554156 24.1875,6.5390625 1.105532,0.3263242 2.211064,0.6526483 3.350098,0.9888611 C 31.025762,8.5579426 34.512927,9.5912924 38,10.625 c 3.515808,1.04026 7.031824,2.079808 10.548096,3.1185 2.177229,0.643346 4.354161,1.287696 6.530761,1.933166 1.473036,0.435829 1.473036,0.435829 2.97583,0.880463 1.291399,0.382806 1.291399,0.382806 2.608887,0.773346 2.301401,0.69422 2.301401,0.69422 4.553879,1.111099 C 67,19 67,19 68.466064,21.377686 c 0.461082,1.07548 0.922164,2.150961 1.397217,3.259033 0.264893,0.606735 0.529785,1.213471 0.802704,1.838592 0.896765,2.064752 1.771401,4.138177 2.646515,6.212189 0.635255,1.475054 1.271769,2.949566 1.909424,4.423584 1.847946,4.285108 3.674337,8.57915 5.497436,12.874878 1.890581,4.449558 3.790639,8.895058 5.689591,13.341049 3.614613,8.4635 7.22552,16.928544 10.820785,25.400284 0.484295,1.140991 0.96859,2.281983 1.46756,3.45755 0.909376,2.143398 1.818094,4.287076 2.726014,6.431091 2.22351,5.241264 4.48692,10.454914 6.87376,15.624164 C 109,116 109,116 109,118 c 0.66,0 1.32,0 2,0 0.10095,-0.67192 0.2019,-1.34385 0.30591,-2.03613 0.85674,-3.65841 2.2853,-6.96395 3.79956,-10.38574 0.31617,-0.72563 0.63233,-1.45126 0.95808,-2.19887 0.68203,-1.56408 1.36624,-3.12721 2.05242,-4.689471 1.81871,-4.141058 3.62173,-8.288951 5.427,-12.435883 0.36922,-0.846929 0.73845,-1.693858 1.11886,-2.566452 3.83652,-8.809136 7.5946,-17.651001 11.33817,-26.499954 0.30659,-0.724171 0.61317,-1.448342 0.92905,-2.194458 C 138.62117,50.996124 140.31155,46.998473 142,43 c 4.57262,0.576148 8.85596,1.417219 13.27075,2.734131 1.19426,0.353842 2.38852,0.707685 3.61897,1.07225 1.28295,0.385856 2.5658,0.772017 3.84856,1.158463 1.33034,0.397598 2.66076,0.794938 3.99126,1.192032 2.7755,0.829686 5.54984,1.663119 8.32344,2.49913 3.55645,1.071542 7.11592,2.13261 10.67636,3.190818 2.74223,0.816452 5.48264,1.638877 8.22255,2.463084 1.31236,0.393885 2.62531,0.785787 3.93885,1.175671 1.83034,0.544141 3.65798,1.097304 5.48548,1.650896 1.04034,0.31231 2.08068,0.624621 3.15254,0.946395 C 209,62 209,62 211,64 c 0.0118,1.901537 0.0118,1.901537 -0.32895,4.264679 -0.12346,0.89465 -0.24692,1.789299 -0.37413,2.71106 -0.14745,0.983987 -0.2949,1.967975 -0.44682,2.981781 -0.14601,1.03417 -0.29203,2.068341 -0.44246,3.13385 -0.48727,3.432087 -0.99037,6.861658 -1.49358,10.291442 -0.34013,2.373549 -0.67928,4.747239 -1.01748,7.121064 -0.89437,6.258464 -1.80215,12.514904 -2.71268,18.771024 -0.92613,6.37987 -1.83965,12.76154 -2.75421,19.14307 C 199.63218,144.94712 197.82093,157.47424 196,170 c -4.24983,0.28867 -8.49991,0.57334 -12.75024,0.85449 -1.44213,0.0959 -2.88419,0.19292 -4.32618,0.29102 C 171.27564,171.66509 163.67092,172.13713 156,172 c 0.49053,-16.00153 1.63403,-31.91155 2.98364,-47.85986 0.0665,-0.80037 0.1329,-1.60074 0.20136,-2.42536 0.12445,-1.49665 0.25191,-2.99306 0.38318,-4.48913 C 159.98964,112.13633 160.04986,107.10692 160,102 c -11.3233,26.44301 -11.3233,26.44301 -22.375,53 -0.50648,1.23871 -0.50648,1.23871 -1.02319,2.50244 -1.95155,4.80749 -3.77803,9.63415 -5.60181,14.49756 -13.86,0 -27.72,0 -42,0 C 84.535581,161.95506 84.535581,161.95506 83.0625,158.1875 80.783125,152.42674 78.392037,146.71472 76,141 c -0.833702,-1.99985 -1.667038,-3.99985 -2.5,-6 -0.413789,-0.99258 -0.827578,-1.98516 -1.253906,-3.00781 -0.821796,-1.97334 -1.642142,-3.94729 -2.460938,-5.92188 C 66.582156,118.35446 63.300895,110.67435 60,103 c -0.250542,12.88088 0.542256,25.59794 1.5,38.4375 0.216392,2.93824 0.431043,5.87657 0.641968,8.8152 0.13017,1.81009 0.263482,3.61996 0.400635,5.42954 C 62.938017,161.13719 63.057838,166.53049 63,172 c -10.01182,0.12243 -19.994619,-0.0438 -30,-0.4375 -1.068633,-0.0392 -2.137266,-0.0785 -3.238281,-0.1189 -0.993867,-0.042 -1.987735,-0.084 -3.011719,-0.12719 -1.338047,-0.055 -1.338047,-0.055 -2.703125,-0.11109 C 22,171 22,171 21,170 c -0.427656,-2.83516 -0.797139,-5.65934 -1.133301,-8.50586 -0.110178,-0.90101 -0.220356,-1.80203 -0.333874,-2.73035 -0.242218,-1.98182 -0.482641,-3.96386 -0.721542,-5.94609 -0.661089,-5.47701 -1.3381,-10.95205 -2.015385,-16.42708 -0.143893,-1.16441 -0.287787,-2.32882 -0.43604,-3.52852 C 14.695118,119.44988 12.91592,106.05315 11.132813,92.65625 10.801642,90.161634 10.470568,87.667005 10.139587,85.172363 8.7899996,75.005337 7.4379243,64.838648 6.0791016,54.672852 5.2313254,48.328725 4.3885883,41.983946 3.549099,35.638718 3.2328494,33.255902 2.9147017,30.873337 2.5945473,28.491043 2.152184,25.198417 1.7162401,21.904999 1.2817383,18.611328 1.1509035,17.649516 1.0200687,16.687704 0.88526917,15.696747 0.19566279,10.411567 -0.12796488,5.3301636 0,0 Z"
         fill="#432412"
         transform="translate(147,140)"
         id="path2" /><path
         d="m 0,0 c 8.3956553,0.59968967 16.370782,4.6725078 24.027344,7.9453125 3.521129,1.4144706 7.090747,2.6187585 10.699218,3.7851565 5.619292,1.818382 11.043978,3.921599 16.472657,6.246093 7.572311,3.136403 15.361025,5.72122 23.152343,8.253907 3.984684,1.310682 7.832221,2.785237 11.6875,4.4375 5.78493,2.473818 11.65679,4.439079 17.644528,6.351562 3.60563,1.232354 7.04503,2.703274 10.54297,4.210938 1.99172,0.691005 3.99162,1.359027 6,2 4.45348,1.455098 8.693,3.15414 13,5 1.89181,0.637067 3.78817,1.260726 5.6875,1.875 5.17902,1.692027 10.14925,3.690879 15.15625,5.832031 4.58031,1.876337 9.24805,3.478434 13.92969,5.082031 4.1792,1.568465 8.04262,3.026993 11.22656,6.210938 0.14293,5.740898 -1.50154,11.505673 -3,17 0.74766,0.170156 1.49531,0.340312 2.26563,0.515625 1.47726,0.363515 1.47726,0.363515 2.98437,0.734375 0.97453,0.232031 1.94906,0.464062 2.95313,0.703125 3.2018,1.198441 4.74747,2.317596 6.79687,5.046875 0.27735,2.164062 0.27735,2.164062 -0.0625,4.625 -0.12633,0.950039 -0.25265,1.900078 -0.38281,2.878906 -0.18305,1.153711 -0.36609,2.307425 -0.55469,3.496095 -0.22671,1.55076 -0.45326,3.10154 -0.67969,4.65234 -0.25014,1.6371 -0.50275,3.27382 -0.75781,4.91016 -0.12189,0.79809 -0.24379,1.59618 -0.36938,2.41846 -0.95873,5.78465 -0.95873,5.78465 -3.19312,8.01904 -1.12269,-0.33733 -2.24538,-0.67466 -3.4021,-1.02222 -4.25115,-1.27718 -8.5025,-2.55372 -12.7539,-3.83008 -1.82395,-0.54768 -3.64784,-1.09552 -5.47168,-1.64355 -10.56309,-3.17387 -21.13219,-6.32499 -31.71582,-9.42969 -4.49471,-1.32077 -8.98325,-2.66112 -13.469,-4.01196 -1.694,-0.50913 -3.38801,-1.01824 -5.08203,-1.52734 -0.84385,-0.25379 -1.6877,-0.50757 -2.55713,-0.769048 -3.30457,-0.993461 -6.60972,-1.984999 -9.91495,-2.976288 C 98.406605,96.284468 95.953294,95.548513 93.5,94.8125 90.19493,93.820962 86.889839,92.829497 83.584717,91.838135 75.931876,89.542599 68.27917,87.246619 60.627228,84.94809 57.272152,83.940313 53.916965,82.932909 50.561768,81.925537 48.874544,81.418864 47.18737,80.912027 45.500244,80.405029 35.971318,77.541676 26.437889,74.69547 16.890518,71.89418 12.080254,70.482794 7.2756729,69.054246 2.4765625,67.605469 -4.411012,65.530246 -11.305401,63.47868 -18.203125,61.4375 c -1.691741,-0.501108 -3.383473,-1.002248 -5.075195,-1.503418 -2.55742,-0.757621 -5.115018,-1.514608 -7.673218,-2.269592 -2.41248,-0.712033 -4.824277,-1.426333 -7.235962,-2.141053 -0.735561,-0.216416 -1.471122,-0.432832 -2.228973,-0.655807 -5.129585,-1.523472 -5.129585,-1.523472 -7.356964,-2.637161 0.962761,-5.556772 3.104538,-10.401169 5.3125,-15.5625 0.39123,-0.945528 0.78246,-1.891055 1.185546,-2.865235 0.388653,-0.912011 0.777305,-1.824023 1.177735,-2.763672 0.349739,-0.827014 0.699477,-1.654028 1.059814,-2.506103 1.449694,-2.639904 2.939368,-4.389645 5.264405,-6.30249 7.49679,0 14.874754,2.848416 21.999999,5 0.380918,-1.701563 0.380918,-1.701563 0.769532,-3.4375 0.347366,-1.5209 0.695038,-3.04173 1.0429685,-4.5625 0.1656445,-0.743789 0.3312891,-1.487578 0.5019531,-2.253907 C -5.6552859,0.46994629 -5.6552859,0.46994629 0,0 Z"
         fill="#432412"
         transform="translate(183.77344,70.769531)"
         id="path3" /><path
         d="M 0,0 C 1.0596899,0.00173218 2.1193799,0.00346436 3.2111816,0.00524902 16.019097,0.08968964 28.782205,0.86947245 41.5625,1.65625 c 2.443972,0.1451768 4.887983,0.289711 7.332031,0.4335938 5.889893,0.3469334 11.778778,0.7068916 17.667969,1.0664062 0,9.24 0,18.48 0,28 -18.863325,0.169178 -37.232464,-0.08894 -56,-2 0.406814,5.531978 0.815828,11.063788 1.226807,16.595459 0.139264,1.878537 0.277946,3.757117 0.416015,5.635742 0.199527,2.713416 0.401205,5.426665 0.603272,8.139893 0.06046,0.828499 0.12092,1.656999 0.183212,2.510605 0.177975,2.373974 0.369487,4.746187 0.570694,7.118301 0.103523,1.244479 0.103523,1.244479 0.209137,2.514099 0.07608,0.803187 0.15217,1.606373 0.23056,2.433899 0.06607,0.719876 0.132139,1.439752 0.200211,2.181442 0.272876,2.10154 0.272876,2.10154 2.078842,4.331497 2.610633,1.761284 4.709495,2.478698 7.78125,3.164063 1.046719,0.235898 2.093437,0.471797 3.171875,0.714844 5.09392,1.010413 10.195889,1.865881 15.328125,2.660156 0,-5.28 0,-10.56 0,-16 -5.28,-0.33 -10.56,-0.66 -16,-1 -0.698104,-8.115464 -1,-15.803103 -1,-24 20.295,0.495 20.295,0.495 41,1 0,24.75 0,49.5 0,75 -21.939291,0 -47.525418,-0.2697 -65,-16 -7.0679258,-8.060183 -9.8069856,-17.781516 -11.3828125,-28.183594 -0.1256282,-0.813423 -0.2512565,-1.626847 -0.3806915,-2.46492 -1.619062,-10.644088 -3.042816,-21.316083 -4.453537,-31.989425 -0.474895,-3.583032 -0.957936,-7.16491 -1.441162,-10.746827 -0.305834,-2.302668 -0.61119,-4.6054 -0.916016,-6.908203 -0.143705,-1.058416 -0.28741,-2.116832 -0.43547,-3.207321 C -18.170554,17.115937 -18.815587,11.742215 -18.4375,6.15625 -13.131666,-0.58359296 -7.9109169,-0.02111174 0,0 Z"
         fill="#422412"
         transform="translate(187.4375,319.84375)"
         id="path4" /><path
         d="m 0,0 c -0.51648735,7.7880856 -1.4487653,15.34925 -3,23 -13.554842,4.790057 -27.815217,6.165329 -42,8 -1.644461,5.107188 -2.40157,9.880098 -2.625,15.25 -0.03795,0.791243 -0.07589,1.582485 -0.11499,2.397705 C -48.232316,60.422207 -48.085882,72.218339 -48,84 c 1.722994,-0.139113 3.445573,-0.283362 5.167969,-0.429688 0.959304,-0.07976 1.918608,-0.159521 2.906982,-0.241699 8.553338,-0.960921 15.802914,-4.008505 23.330567,-7.991211 C -12.175703,73 -12.175703,73 -10,73 c 0,2.381375 -0.0011,4.762674 -0.0078,7.144043 0.0049,1.803892 0.028505,3.607916 0.078126,5.411133 0.3234921,14.669794 0.3234921,14.669794 -3.541993,19.150874 -3.787019,2.96599 -8.034856,4.80673 -12.505371,6.51368 -2.227366,0.82594 -2.227366,0.82594 -5.081543,2.27246 C -41.323447,118.41349 -54.576954,121.6711 -66,121 c -4.76532,-1.86875 -8.586663,-3.98087 -10.818008,-8.74741 -3.126274,-8.95089 -2.635626,-18.185501 -2.615586,-27.541653 -0.0046,-1.872265 -0.0099,-3.744529 -0.01588,-5.61679 -0.0089,-3.908405 -0.0065,-7.816606 0.0034,-11.725006 0.01151,-4.994379 -0.0088,-9.988054 -0.03792,-14.98234 -0.01839,-3.860611 -0.01806,-7.721054 -0.01236,-11.581698 1.53e-4,-1.841097 -0.0059,-3.682206 -0.01829,-5.523262 -0.01497,-2.576976 -0.0042,-5.152657 0.01291,-7.729595 -0.0097,-0.75034 -0.01934,-1.50068 -0.0293,-2.273758 0.09677,-7.003878 2.684223,-12.459518 7.343506,-17.653488 9.131638,-7.09974131 28.012022,-5.3521073 39.105713,-6.0576172 3.038747,-0.1936228 6.076861,-0.3955539 9.11499,-0.5986328 1.956349,-0.12808741 3.912728,-0.25570833 5.869141,-0.3828125 1.343961,-0.0890208 1.343961,-0.0890208 2.715072,-0.17984009 C -10.242726,0.08267084 -5.1500539,-0.0559829 0,0 Z"
         fill="#432512"
         transform="translate(340,320)"
         id="path5" /></g></g></svg>
