<?xml version="1.0" encoding="UTF-8" standalone="no"?>
<svg
   viewBox="0 0 19.999996 20"
   width="19.999996pt"
   height="20pt"
   version="1.1"
   id="svg133"
   xmlns="http://www.w3.org/2000/svg"
   xmlns:svg="http://www.w3.org/2000/svg">
  <defs
     id="defs137" />
  <g
     id="g1"
     transform="matrix(0.094439,0,0,0.094439,8.797722,9.0572424)">
    <path
       d="m -57.75,-52.5 c 5.1975,0 10.395,0 15.75,0 0.19916,2.414092 0.39832,4.828184 0.603515,7.31543 0.197942,2.375727 0.39684,4.751373 0.595826,7.127014 0.136252,1.63273 0.271531,3.265541 0.405762,4.898438 0.685333,8.329292 1.382628,16.633907 2.577026,24.9076533 0.457573,3.2409667 0.776425,6.4918724 1.067871,9.7514647 1.614577,-11.0698425 2.688048,-22.203295 3.84375,-33.328125 0.209635,-2.008335 0.419753,-4.016619 0.629883,-6.024902 0.510458,-4.882152 1.018955,-9.764504 1.526367,-14.646973 5.1975,0 10.395,0 15.75,0 0,35.8875 0,71.775 0,108.75 -4.455,0 -8.91,0 -13.5,0 -0.2475,-14.85 -0.495,-29.7 -0.75,-45 -1.449027,13.406325 -1.449027,13.406325 -2.894348,26.813048 -0.182544,1.682452 -0.365214,3.364882 -0.548035,5.047305 -0.09333,0.871477 -0.186652,1.742954 -0.282806,2.64084 -0.09127,0.837029 -0.182544,1.674067 -0.276581,2.536462 -0.07828,0.724477 -0.156553,1.448955 -0.237201,2.195377 -0.25199,1.947128 -0.601491,3.847396 -1.011029,5.766968 -1.98,0 -3.96,0 -6,0 -0.09046,-0.979883 -0.09046,-0.979883 -0.182739,-1.97955 -0.22972,-2.473013 -0.462102,-4.94574 -0.696167,-7.41834 -0.09991,-1.060935 -0.198821,-2.121967 -0.296631,-3.183105 C -42.160681,38.41266 -42.683239,33.18342 -43.529297,27.969728 -44.261119,23.17719 -44.628168,18.333811 -45,13.5 c -0.2475,14.1075 -0.495,28.215 -0.75,42.75 -3.96,0 -7.92,0 -12,0 0,-35.8875 0,-71.775 0,-108.75 z"
       fill="#fefcfc"
       id="path2"
       style="stroke-width:0.75" />
    <path
       d="m -3.75,-53.25 c 8.1675,0 16.335,0 24.75,0 0,4.455 0,8.91 0,13.5 -3.465,0 -6.93,0 -10.5,0 0,10.395 0,20.79 0,31.5 2.7225,0 5.445,0 8.25,0 0,4.455 0,8.91 0,13.5 -2.7225,0 -5.445,0 -8.25,0 0,12.6225 0,25.245 0,38.25 3.465,0 6.93,0 10.5,0 0,4.455 0,8.91 0,13.5 -8.1675,0 -16.335,0 -24.75,0 0,-36.3825 0,-72.765 0,-110.25 z"
       fill="#fdf5f5"
       id="path3"
       style="stroke-width:0.75" />
    <path
       d="m 60.75,-52.5 c 10.1475,0 20.295,0 30.75,0 0,4.2075 0,8.415 0,12.75 -2.97,0 -5.94,0 -9,0 0,31.68 0,63.36 0,96 -4.455,0 -8.91,0 -13.5,0 0,-31.68 0,-63.36 0,-96 -2.7225,0 -5.445,0 -8.25,0 0,-4.2075 0,-8.415 0,-12.75 z"
       fill="#fefdfd"
       id="path4"
       style="stroke-width:0.75" />
    <path
       d="m 33,-52.5 c 4.455,0 8.91,0 13.5,0 0,31.68 0,63.36 0,96 3.7125,0 7.425,0 11.25,0 0,4.2075 0,8.415 0,12.75 -8.1675,0 -16.335,0 -24.75,0 0,-35.8875 0,-71.775 0,-108.75 z"
       fill="#fefdfd"
       id="path5"
       style="stroke-width:0.75" />
    <path
       d="M 44.203125,68.765625 C 46.5,69 46.5,69 47.90625,69.9375 48.75,71.25 48.75,71.25 48.75,74.25 c -1.2375,0 -2.475,0 -3.75,0 0,-0.99 0,-1.98 0,-3 -0.495,0 -0.99,0 -1.5,0 0.03576,1.409107 0.03576,1.409107 0.75,3 1.136953,0.696094 1.136953,0.696094 2.296875,1.40625 0.727031,0.525937 1.454062,1.051875 2.203125,1.59375 0.375,2.34375 0.375,2.34375 0,4.5 -1.743962,1.743962 -2.134994,1.721333 -4.5,1.734375 -0.525937,0.01257 -1.051875,0.02514 -1.59375,0.03808 -0.464062,-0.08991 -0.928125,-0.179824 -1.40625,-0.272461 -1.5,-2.25 -1.5,-2.25 -1.5,-4.5 1.2375,0 2.475,0 3.75,0 0,0.7425 0,1.485 0,2.25 0.495,0 0.99,0 1.5,0 0,-0.99 0,-1.98 0,-3 -0.603281,-0.232026 -1.206562,-0.464057 -1.828125,-0.70312 C 41.25,76.499999 41.25,76.499999 40.5,75.749999 c -0.140625,-2.578125 -0.140625,-2.578125 0,-5.25 1.5,-1.5 1.5,-1.5 3.703125,-1.734374 z"
       fill="#fce7e7"
       id="path6"
       style="stroke-width:0.75" />
    <path
       d="m 29.25,69.75 c 1.7325,0 3.465,0 5.25,0 0.377662,1.827612 0.752226,3.655766 1.125,5.484375 0.107314,0.51772 0.214629,1.035439 0.325195,1.568848 C 36.394688,78.993936 36.75,81.008311 36.75,83.25 c -0.99,0 -1.98,0 -3,0 0,-0.99 0,-1.98 0,-3 -0.99,0 -1.98,0 -3,0 0,0.99 0,1.98 0,3 -0.99,0 -1.98,0 -3,0 0.106461,-1.547078 0.216542,-3.093908 0.328125,-4.640625 0.06091,-0.861416 0.121816,-1.722832 0.18457,-2.610352 C 28.465529,73.863014 28.781413,71.840921 29.25,69.75 Z"
       fill="#fbe4e4"
       id="path7"
       style="stroke-width:0.75" />
    <path
       d="m -15,69.75 c 2.2275,0 4.455,0 6.75,0 1.5,1.5 1.5,1.5 1.6875,4.125 C -6.75,76.5 -6.75,76.5 -8.25,78 c -1.96875,0.09375 -1.96875,0.09375 -3.75,0 0,1.7325 0,3.465 0,5.25 -0.99,0 -1.98,0 -3,0 0,-4.455 0,-8.91 0,-13.5 z"
       fill="#fef8f8"
       id="path8"
       style="stroke-width:0.75" />
    <path
       d="m 5.25,69.75 c 2.2275,0 4.455,0 6.75,0 -0.426156,4.091094 -1.459785,7.432944 -3,11.25 1.2375,0 2.475,0 3.75,0 0,0.7425 0,1.485 0,2.25 -2.475,0 -4.95,0 -7.5,0 C 5.6108618,78.919658 6.8885038,75.781051 9,72 c -1.2375,0 -2.475,0 -3.75,0 0,-0.7425 0,-1.485 0,-2.25 z"
       fill="#fdf4f4"
       id="path9"
       style="stroke-width:0.75" />
    <path
       d="m 16.5,69.75 c 2.2275,0 4.455,0 6.75,0 -0.426156,4.091094 -1.459785,7.432944 -3,11.25 0.99,0 1.98,0 3,0 0,0.7425 0,1.485 0,2.25 -2.2275,0 -4.455,0 -6.75,0 0.360862,-4.330342 1.638504,-7.468949 3.75,-11.25 -1.2375,0 -2.475,0 -3.75,0 0,-0.7425 0,-1.485 0,-2.25 z"
       fill="#fef7f7"
       id="path10"
       style="stroke-width:0.75" />
    <path
       d="m -2.25,69.75 c 0.99,0 1.98,0 3,0 0,4.455 0,8.91 0,13.5 -0.99,0 -1.98,0 -3,0 0,-4.455 0,-8.91 0,-13.5 z"
       fill="#fefaf9"
       id="path11"
       style="stroke-width:0.75" />
  </g>
</svg>
