<svg xmlns="http://www.w3.org/2000/svg" width="24" height="24"><path fill="#fde8e7" fill-rule="evenodd" d="M13.4 6.97q-.74.25-.83.53a.3.3 0 0 1-.26.2q-.2 0-.22.08l-.05.44c-.04.3-.01.38.12.38s.15.07.1.38c-.04.2-.08.59-.09.85-.02.45.01.52.35.83.31.28.45.34.82.34.35 0 .48-.05.56-.2.13-.25.1-.76-.05-.73a1 1 0 0 1-.28-.09c-.16-.08-.18-.17-.12-.61.09-.63.19-.77.55-.77.33 0 .45-.15.45-.55 0-.27-.04-.3-.34-.33-.33-.03-.33-.04-.28-.43.05-.4-.02-.46-.43-.32m-9.25.82c-.47.28-.63.52-.8 1.16-.2.71-.25.95-.32 1.58l-.05.47h.53c.3 0 .59-.04.64-.08s.16-.36.23-.72l.21-1.21c.01-.2.3-.34.44-.2.05.05.02.4-.08.87-.28 1.32-.3 1.29.38 1.32.55.03.58.02.68-.25.06-.15.13-.46.15-.68a5 5 0 0 1 .2-.96q.09-.46.4-.35.15.06.1.24c-.05.1-.1.28-.11.42l-.09.47c-.02.11-.08.42-.11.67l-.07.46h.55c.58 0 .7-.08.8-.5l.1-.5c.04-.13.1-.42.12-.65.03-.22.08-.48.11-.58s0-.33-.06-.51c-.2-.62-1.06-.84-1.8-.46l-.4.2-.32-.2a1.5 1.5 0 0 0-1.43-.01m5.42-.04c-1.25.44-1.66 2.12-.72 2.94.34.3.4.31 1.23.3.53 0 .93-.04 1.03-.12.16-.12.42-.77.35-.85-.03-.02-.2 0-.37.07-.57.2-1.13.14-1.39-.14-.27-.28-.33-.27.93-.25 1.04.01 1.17-.06 1.17-.64 0-.56-.3-1.03-.83-1.26-.5-.23-.88-.24-1.4-.05m9.14 0c-.26.08-.62.32-.88.57l-.44.43.07-.54.07-.54-.54.07-.64.06-.69-.06c-.32-.03-.62-.02-.67.03a20 20 0 0 0-.62 3.16c.02.04.29.07.58.07.6 0 .69-.08.78-.75.14-1 .43-1.32 1.27-1.42l.48-.06-.15.46c-.14.42-.13.48.05.9.28.63.69.87 1.5.87 1.24 0 2.12-.8 2.12-1.93 0-.65-.23-1-.84-1.28-.48-.22-.85-.23-1.45-.04m-8.87.86c-.17.19-.16.19.34.19q.76 0 .4-.27a.56.56 0 0 0-.74.08m9.14.03c-.42.31-.53 1.27-.18 1.46a.5.5 0 0 0 .7-.22c.19-.33.24-1.14.09-1.24-.2-.12-.45-.12-.61 0"/></svg>