<svg xmlns="http://www.w3.org/2000/svg" width="24" height="24"><path fill="#282828" fill-rule="evenodd" d="M10.65 3.91A4.3 4.3 0 0 0 8.09 6.4c-.17.46-.2.72-.17 1.6.03.93.06 1.12.33 1.64a4.6 4.6 0 0 0 2.02 1.99c.63.3.75.32 1.73.32.97 0 1.1-.02 1.72-.32a4.16 4.16 0 0 0-.51-7.77 4.7 4.7 0 0 0-2.56.05m.17.86C10.42 4.9 9.3 5.82 9.3 6c0 .05.2.09.43.09h.42l.39 1 .39 1 .41-.97.41-.98.57-.03.57-.03.03.52.03.52.56-.5c.43-.4.64-.52.94-.55l.38-.03-.44-.45a4 4 0 0 0-.99-.73c-.46-.23-.66-.27-1.34-.26-.45 0-1 .07-1.24.16m3.5 2.32-.52.6.57.75c.32.41.61.72.66.67s.13-.38.2-.75c.09-.54.08-.77-.03-1.23-.08-.31-.2-.58-.25-.6-.06-.02-.34.24-.63.56m-5.51.01a2.6 2.6 0 0 0 .04 1.55c.12.38.13.33.14-.83 0-.67 0-1.22-.03-1.22s-.1.23-.15.5m1.07 1.75c-.03.68-.04.7-.3.73q-.26.04-.28.1c0 .16.87.91 1.3 1.13.61.3 1.68.37 2.43.15.44-.13.71-.3 1.2-.76l.62-.6h-.32c-.27 0-.4-.1-.85-.64-.3-.36-.58-.65-.65-.65q-.12 0-.15.62l-.03.62h-.9v-.62c0-.35-.02-.63-.05-.63s-.16.28-.3.63c-.25.6-.26.62-.66.65l-.42.03-.3-.73-.3-.73zm-3.93 3.98c-.44.44-.46.78-.06 1.18.36.36.9.4 1.21.09q.38-.39 0-.4c-.1 0-.22.04-.25.1s-.2.1-.36.1q-.3.01-.38-.22c-.18-.5.23-.9.66-.62.25.16.53.18.53.05 0-.2-.37-.51-.67-.57-.28-.06-.38-.01-.68.29m10.53-.17c-.8.43-.52 1.64.4 1.64.4 0 .92-.45.92-.8 0-.33-.26-.75-.55-.88-.33-.15-.44-.15-.77.04m3.4.04c-.48.37-.29.77.45.94.15.04.27.1.27.15 0 .17-.33.21-.54.08-.24-.16-.46-.12-.46.08 0 .3.8.47 1.2.25.23-.12.27-.62.07-.79a1 1 0 0 0-.45-.17c-.18-.04-.32-.1-.32-.15 0-.16.19-.19.45-.07.33.15.58-.03.34-.27a.8.8 0 0 0-1.02-.05M3 13.44c0 .8.02.86.2.86.16 0 .2-.07.2-.37l.02-.38.12.35c.18.5.48.52.68.03l.16-.38.01.38c0 .3.05.37.21.37.18 0 .2-.07.2-.85v-.85h-.29c-.22 0-.3.06-.35.25-.03.13-.11.37-.17.52l-.1.28-.17-.5c-.14-.42-.21-.5-.44-.53L3 12.59zm2.1.02c0 .76.02.85.18.82.14-.03.17-.16.2-.86.03-.77.02-.82-.18-.82s-.2.06-.2.86m2.4-.01c0 .78.02.85.2.85.16 0 .2-.07.2-.36 0-.34.01-.35.32-.32.3.03.33.07.36.36.03.25.08.32.2.3.14-.03.18-.18.2-.86.03-.77.02-.82-.18-.82-.16 0-.2.06-.2.3 0 .28-.03.3-.35.3s-.35-.02-.35-.3c0-.23-.04-.3-.2-.3-.18 0-.2.07-.2.85m1.97-.18-.32.86q-.08.18.13.17a.3.3 0 0 0 .27-.2q.05-.2.35-.2t.4.2c.09.16.5.3.5.16l-.33-.83c-.46-1.06-.65-1.1-1-.16m1.43.18v.86l.63-.03c.47-.02.62-.07.62-.18q0-.15-.42-.18c-.58-.04-.6-.32-.04-.32.42 0 .63-.16.4-.31a1 1 0 0 0-.46-.09c-.48 0-.4-.18.1-.22q.43-.02.42-.18c0-.11-.15-.16-.62-.18l-.63-.03zm1.6 0v.86l.53-.03c.38-.02.52-.07.52-.18q-.01-.15-.32-.18l-.33-.03v-.65c0-.57-.02-.64-.2-.64s-.2.07-.2.86m2.1-.01c0 .78.02.85.2.85.15 0 .2-.07.2-.3q.01-.65.4-.05.22.36.46.35c.27 0 .27-.04-.13-.56-.3-.4-.29-.52.04-.86l.27-.28h-.24c-.13 0-.37.12-.52.27l-.28.27v-.27q.01-.28-.2-.27c-.18 0-.2.07-.2.85m3.42-.03c.03.7.06.83.2.86q.2.05.18-.22c0-.35.36-.36.52-.01q.11.25.35.25c.27 0 .28-.03.07-.35-.14-.21-.14-.26.01-.49.14-.2.14-.29.04-.48-.17-.33-.28-.38-.87-.38H18zm-1.41-.35c-.23.16-.28.52-.09.71.21.21.67.15.8-.12.2-.47-.29-.89-.71-.6m1.8.12q.05.16.29.17.25 0 .28-.17c.03-.14-.03-.18-.28-.18s-.3.04-.28.18"/></svg>