<svg xmlns="http://www.w3.org/2000/svg" width="24" height="24"><path fill="#fc6c0e" fill-rule="evenodd" d="M3.07 7.37C3.03 7.4 3 8.15 3 9.02v1.6l.43-.04.42-.03.03-.8.03-.8.34.8c.28.66.38.8.58.83.22.03.28-.05.58-.8l.34-.82.03.82.03.82h.9l-.03-1.62-.03-1.63-.48-.03-.48-.03-.4.88-.42.88-.21-.46c-.12-.26-.3-.65-.38-.88-.16-.4-.17-.41-.66-.41-.27 0-.52.03-.55.07M7.3 8.94v1.66h.8l-.02-1.62-.03-1.63-.37-.03-.38-.03zm2.25-1.5c-1.2.52-1.27 2.45-.11 3a3 3 0 0 0 1.2.16h.84l.04-.79c.04-1.14.06-1.11-.63-1.11h-.59v.35c0 .28.04.35.2.35q.21-.01.2.25c0 .22-.04.25-.34.25q-.72-.01-.83-.76c-.1-.83.48-1.33 1.26-1.06.26.1.32.08.45-.13.23-.35.2-.43-.21-.54a2.4 2.4 0 0 0-1.48.03m2.68-.08c-.1.04-.13.47-.13 1.65v1.6l.43-.03.42-.03L13 10c.05-.52.08-.56.38-.51.05 0 .19.26.31.56.23.55.23.55.67.55.24 0 .44-.02.44-.05 0-.14-.44-1.13-.57-1.27s-.12-.19.06-.37c.3-.3.29-1-.03-1.3-.19-.18-.38-.23-1.07-.26a5 5 0 0 0-.96 0m3.61.1c-1.03.44-1.21 2-.33 2.8.35.32.45.35.98.35q1 .01 1.42-.8c.4-.76.1-1.95-.6-2.32a1.8 1.8 0 0 0-1.47-.04m3.3 0a1 1 0 0 0-.64.94c0 .43.32.73 1.05.96.42.13.55.22.53.34-.04.23-.6.27-1 .08l-.34-.16c-.02 0-.1.14-.2.32-.15.3-.15.32.02.45.25.18.77.26 1.36.2.65-.06 1.08-.47 1.08-1.03 0-.45-.3-.74-1.05-.98-.42-.13-.55-.22-.53-.34.04-.21.58-.28.88-.12.18.1.26.08.46-.1a1 1 0 0 0 .24-.3c0-.03-.16-.14-.35-.23a2 2 0 0 0-1.51-.03M13 8.4c0 .36.03.41.24.41.3 0 .49-.22.44-.52-.02-.18-.1-.24-.35-.26C13 7.99 13 8 13 8.39m3.12-.19c-.17.16-.22.32-.22.73q0 .97.6.97c.5 0 .78-.47.67-1.17-.11-.68-.61-.93-1.05-.53"/></svg>