<svg xmlns="http://www.w3.org/2000/svg" width="24" height="24"><path fill="#f0675e" fill-rule="evenodd" d="M3.07 7.96C3.03 8 3 8.48 3 9.02c0 .9.01.98.2.98.16 0 .2-.08.22-.62l.03-.63.35.63c.19.34.4.62.47.62s.27-.27.45-.6l.33-.61.05.58.05.58h.7v-2l-.36-.03c-.35-.03-.38 0-.69.54l-.32.57-.32-.54c-.28-.47-.37-.54-.67-.57-.2-.02-.38 0-.42.04m3.53.99v1.06l.38-.03.37-.03v-2l-.37-.03-.38-.03zm1.45-.92c-.03.07-.05.54-.03 1.03l.03.89h.9c.73 0 .9-.03.9-.15s-.14-.16-.52-.18l-.52-.03-.03-.82-.03-.82-.33-.03q-.31-.03-.37.1m3.17 0c-.15.2-.92 1.76-.92 1.88 0 .15.26.12.4-.05q.13-.15.6-.15.49 0 .54.15t.46.15c.22 0 .4-.02.4-.05a13 13 0 0 0-.98-1.87q-.28-.32-.5-.05m2.02 0a6 6 0 0 0-.02 1.03c.03.75.06.9.2.92.16.03.18-.05.18-.65v-.67l.7.68c.9.9 1 .87 1-.31 0-.94-.08-1.2-.34-1.1q-.16.06-.16.46v.4l-.41-.44c-.34-.36-.48-.45-.76-.45-.19 0-.36.06-.39.13m3.2 0c-.84.39-.86 1.4-.04 1.82q.3.15 1 .13l.7-.02-.02-.56-.03-.55h-.5c-.4 0-.5.04-.53.18q-.02.16.12.17.16.01.16.2c0 .47-.56.35-.66-.15-.15-.8.18-1.17.82-.9.27.11.35.11.44 0 .27-.33-.87-.58-1.46-.31m3.08-.01c-.15.18-.92 1.75-.92 1.87 0 .15.26.12.4-.05q.13-.15.6-.15.49 0 .54.15t.46.15c.22 0 .4-.02.4-.05s-.23-.5-.5-1.05c-.5-1-.72-1.2-.98-.87"/></svg>