<svg xmlns="http://www.w3.org/2000/svg" width="24" height="24"><path fill="#718650" fill-rule="evenodd" d="M4.45 6.9c-.45.14-1 .64-1.24 1.13-.28.59-.27 1.25.03 1.85.3.58.48.75 1.1 1.03 1.85.81 3.67-1.33 2.61-3.07a2.2 2.2 0 0 0-2.5-.93m7.8.43c-.13.31 0 .51.3.51.27 0 .3-.03.3-.3 0-.25-.04-.3-.28-.33q-.27-.03-.33.12m.96 1.56v1.7h.6V7.2h-.6zm1 0v1.7h.6V7.2h-.6zm-9.86-.62C3.17 9.74 3.23 9.66 3.4 9.54l.77-.57.61-.47.18.82c.2.9.22.88.44-.25l.11-.57.57.43c.83.63.91.66.51.16L5.14 7.3zm13.36-.29c0 .23-.05.3-.22.33a.3.3 0 0 0-.26.26c-.03.18.01.22.22.22.26 0 .26.01.26.73 0 .98.15 1.2.78 1.15.4-.03.47-.06.5-.25.03-.2-.01-.23-.27-.23-.36 0-.44-.2-.4-.9.04-.4.07-.45.32-.48.21-.03.27-.09.27-.28s-.05-.24-.3-.24c-.27 0-.3-.03-.3-.3s-.03-.3-.3-.3-.3.03-.3.3m-1.85.36c-.2.06-.45.2-.55.29-.44.4-.5 1.18-.12 1.65s1.4.56 1.8.16c.15-.15.15-.18 0-.33-.15-.14-.21-.15-.41-.04-.33.18-.77.1-.95-.16l-.14-.23h.9c1 0 .98.01.86-.59-.08-.37-.45-.77-.78-.83-.14-.03-.4 0-.6.08m-7.52.07c-.02.07-.03.6-.02 1.18l.03 1.04.28.03.27.03v-.65c0-.77.11-1.12.4-1.21.37-.12.49.1.52.98.03.81.03.82.3.85l.28.03v-.73c0-.74.1-1 .4-1.1a.5.5 0 0 1 .32.04c.15.07.18.23.18.93v.85h.6v-.94c0-.8-.03-.97-.2-1.2-.25-.3-.82-.36-1.18-.1-.2.14-.24.14-.38 0-.18-.18-.76-.21-1.05-.06q-.2.1-.19 0c0-.15-.5-.12-.56.03m3.96 1.02v1.15h.6V8.3h-.6zm7.05-.9c-.48.47-.26.95.56 1.18.26.08.44.19.44.27 0 .2-.51.26-.7.1-.12-.1-.2-.09-.36.06l-.2.19.21.17c.35.28 1.15.24 1.45-.07.47-.46.28-.97-.45-1.18-.54-.15-.69-.47-.23-.47.16 0 .34.05.4.1q.09.1.27-.09c.16-.18.16-.2-.06-.35-.36-.25-1.04-.2-1.33.09m-3.53.21a1 1 0 0 0-.22.25c-.1.18-.07.19.5.19h.62l-.14-.22c-.15-.22-.5-.32-.76-.22"/></svg>