<?xml version="1.0" encoding="UTF-8" standalone="no"?>
<svg
   viewBox="0 0 24 24"
   width="24pt"
   height="24pt"
   version="1.1"
   id="svg1"
   sodipodi:docname="mns.svg"
   xml:space="preserve"
   inkscape:version="1.3 (0e150ed6c4, 2023-07-21)"
   xmlns:inkscape="http://www.inkscape.org/namespaces/inkscape"
   xmlns:sodipodi="http://sodipodi.sourceforge.net/DTD/sodipodi-0.dtd"
   xmlns="http://www.w3.org/2000/svg"
   xmlns:svg="http://www.w3.org/2000/svg"><defs
     id="defs1" /><sodipodi:namedview
     id="namedview1"
     pagecolor="#ffffff"
     bordercolor="#000000"
     borderopacity="0.25"
     inkscape:showpageshadow="2"
     inkscape:pageopacity="0.0"
     inkscape:pagecheckerboard="0"
     inkscape:deskcolor="#d1d1d1"
     inkscape:document-units="pt"
     inkscape:zoom="11.546875"
     inkscape:cx="8.3139377"
     inkscape:cy="29.401894"
     inkscape:window-width="1920"
     inkscape:window-height="974"
     inkscape:window-x="-11"
     inkscape:window-y="1609"
     inkscape:window-maximized="1"
     inkscape:current-layer="svg1" /><g
     id="g1"
     transform="translate(16.297086,4.265378)"><g
       id="g5"
       transform="matrix(0.00595609,0,0,0.00595609,-11.797111,3.1813091)"><path
         d="m 0,0 c 22.44,0 44.88,0 68,0 2.5575,4.99125 5.115,9.9825 7.75,15.125 5.4899,10.683784 11.05345,21.310867 16.860352,31.82666 C 96.529385,54.07244 100.27797,61.274559 104,68.5 c 4.23618,8.222728 8.53729,16.397913 13,24.5 5.09113,9.24299 9.95646,18.59234 14.78906,27.97266 C 135.436,128.03357 139.16587,135.03911 143,142 c 5.09113,9.24299 9.95646,18.59234 14.78906,27.97266 C 161.436,177.03357 165.16587,184.03911 169,191 c 5.09113,9.24299 9.95646,18.59234 14.78906,27.97266 C 187.436,226.03357 191.16587,233.03911 195,240 c 5.09113,9.24299 9.95646,18.59234 14.78906,27.97266 C 213.436,275.03357 217.16587,282.03911 221,289 c 5.09192,9.24442 9.95805,18.5952 14.79126,27.97705 3.6248,7.01828 7.3329,13.98049 11.14624,20.89795 5.00751,9.0862 9.78811,18.28016 14.52948,27.50671 4.55656,8.86161 9.23403,17.6455 14.04474,26.3722 3.94797,7.18868 7.7324,14.45547 11.48828,21.74609 4.23621,8.22271 8.53729,16.39791 13,24.5 5.09113,9.24299 9.95646,18.59234 14.78906,27.97266 C 318.436,473.03357 322.16587,480.03911 326,487 c 5.09113,9.24299 9.95646,18.59234 14.78906,27.97266 C 344.436,522.03357 348.16587,529.03911 352,536 c 5.09113,9.24299 9.95646,18.59234 14.78906,27.97266 C 370.436,571.03357 374.16587,578.03911 378,585 c 4.46271,8.10209 8.76374,16.27731 13,24.5 4.76328,9.24471 9.6333,18.4173 14.64771,27.52808 4.09667,7.45674 8.05483,14.98143 11.96435,22.53784 0.43095,0.83032 0.8619,1.66063 1.30591,2.51611 0.37922,0.73453 0.75845,1.46905 1.14917,2.22583 0.81894,1.67084 0.81894,1.67084 1.93286,2.69214 2.14694,-3.99941 4.2926,-7.9995 6.4375,-12 0.49761,-0.92803 0.49761,-0.92803 1.00528,-1.87482 3.98702,-7.43753 7.96349,-14.8805 11.91659,-22.33612 0.35791,-0.67501 0.71582,-1.35002 1.08457,-2.04548 1.44394,-2.72363 2.88775,-5.44732 4.33151,-8.17104 4.92685,-9.29092 9.91757,-18.54313 14.97919,-27.7615 4.02667,-7.35606 7.89994,-14.78732 11.75976,-22.23194 3.29523,-6.33988 6.66946,-12.62985 10.1106,-18.8916 5.22565,-9.51011 10.31073,-19.09089 15.375,-28.6875 4.94283,-9.36536 9.89888,-18.71951 15,-28 5.03215,-9.15884 9.93167,-18.38497 14.8125,-27.625 7.40457,-14.01728 14.8617,-28.0047 22.36084,-41.97168 3.11256,-5.79914 6.21932,-11.60139 9.32666,-17.40332 3.7247,-6.95413 7.45013,-13.90785 11.17969,-20.85938 7.02048,-13.08915 14.00953,-26.19425 20.97015,-39.3153 5.30797,-10.00389 10.65635,-19.98502 16.03742,-29.94983 4.68601,-8.6874 9.31543,-17.40411 13.93774,-26.12549 4.71914,-8.90397 9.46151,-17.7919 14.3125,-26.625 5.05118,-9.2014 9.97227,-18.46898 14.875,-27.75 7.40465,-14.01724 14.8617,-28.0047 22.36084,-41.97168 3.11256,-5.79914 6.21932,-11.60139 9.32666,-17.40332 3.7247,-6.95413 7.45013,-13.90785 11.17969,-20.85938 7.02048,-13.08915 14.00953,-26.19425 20.97015,-39.3153 5.30797,-10.00389 10.65635,-19.985019 16.03742,-29.949832 4.31333,-7.99649 8.57994,-16.017016 12.83483,-24.044677 C 751.58752,50.500741 758.75337,37.232986 766,24 c 4.29,-7.92 8.58,-15.84 13,-24 21.45,0 42.9,0 65,0 0,312.51 0,625.02 0,947 -23.43,0 -46.86,0 -71,0 -0.33,-265.32 -0.66,-530.64 -1,-804 -5.445,10.89 -5.445,10.89 -11,22 -4.89079,9.31894 -4.89079,9.31894 -7.07813,13.44141 -3.82181,7.24039 -7.5533,14.52755 -11.29687,21.80859 -4.89224,9.51288 -9.79256,19.02086 -14.75,28.5 -4.41747,8.44719 -8.81009,16.907 -13.1875,25.375 -0.47181,0.91269 -0.47181,0.91269 -0.95316,1.84381 -1.60247,3.1001 -3.20462,6.20037 -4.80661,9.30072 -3.16195,6.11924 -6.32596,12.23742 -9.49023,18.35547 -0.31038,0.60014 -0.62076,1.20028 -0.94055,1.8186 -6.24565,12.07573 -12.50292,24.14541 -18.76306,36.21363 -2.91193,5.61393 -5.82286,11.22838 -8.73389,16.84277 -1.16666,2.25 -2.33333,4.5 -3.5,6.75 -0.86625,1.67062 -0.86625,1.67062 -1.75,3.375 -47.25,91.125 -47.25,91.125 -48.99976,94.49951 -1.1675,2.25162 -2.33498,4.50325 -3.50244,6.75488 -2.90377,5.60033 -5.80786,11.20049 -8.71264,16.8003 -6.01852,11.60326 -12.03147,23.20937 -18.03516,34.82031 -6.57923,12.724 -13.17026,25.44184 -19.76611,38.15723 -2.91193,5.61393 -5.82286,11.22838 -8.73389,16.84277 -1.16666,2.25 -2.33333,4.5 -3.5,6.75 -0.5775,1.11375 -1.155,2.2275 -1.75,3.375 -47.25,91.125 -47.25,91.125 -48.99976,94.49951 -1.1675,2.25162 -2.33498,4.50325 -3.50244,6.75488 -2.90377,5.60033 -5.80786,11.20049 -8.71264,16.8003 -5.703,10.99497 -11.40183,21.99207 -17.09089,32.99426 -1.87461,3.62515 -3.7498,7.25 -5.62493,10.87488 -1.58247,3.05926 -3.16446,6.11877 -4.74561,9.17871 -1.26999,2.45771 -2.54064,4.91508 -3.81201,7.37207 -1.17412,2.26904 -2.34737,4.53854 -3.51953,6.80859 -0.53496,1.03319 -1.06992,2.06637 -1.6211,3.13086 -0.45963,0.88897 -0.91926,1.77794 -1.39282,2.69385 -2.52905,4.78088 -5.13835,9.51891 -7.72827,14.26709 -15.84,0 -31.68,0 -48,0 -6.32709,-11.47705 -12.55855,-22.94756 -18.3645,-34.69556 -2.65842,-5.3721 -5.38892,-10.69714 -8.198,-15.99194 -4.67564,-8.8177 -9.24879,-17.68655 -13.8125,-26.5625 -4.89227,-9.51287 -9.79256,-19.02086 -14.75,-28.5 -4.41747,-8.44719 -8.81009,-16.907 -13.1875,-25.375 -0.31454,-0.60846 -0.62908,-1.21692 -0.95316,-1.84381 -1.60247,-3.1001 -3.20462,-6.20037 -4.80661,-9.30072 -3.16195,-6.11924 -6.32596,-12.23742 -9.49023,-18.35547 -0.46557,-0.90021 -0.46557,-0.90021 -0.94055,-1.8186 C 307.2513,597.48067 300.99403,585.41099 294.73389,573.34277 291.82196,567.72884 288.91103,562.11439 286,556.5 c -1.16666,-2.25 -2.33333,-4.5 -3.5,-6.75 -24.5,-47.25 -24.5,-47.25 -49,-94.5 -0.86613,-1.67038 -0.86613,-1.67038 -1.74976,-3.37451 -1.1675,-2.25162 -2.33498,-4.50325 -3.50244,-6.75488 -2.90377,-5.60033 -5.80786,-11.20049 -8.71264,-16.8003 -6.33479,-12.21301 -12.66245,-24.42967 -18.98163,-36.65075 -6.26389,-12.11377 -12.54008,-24.22114 -18.81964,-36.32679 C 178.82196,349.72884 175.91103,344.11439 173,338.5 c -1.16666,-2.25 -2.33333,-4.5 -3.5,-6.75 -24.5,-47.25 -24.5,-47.25 -49,-94.5 -0.86613,-1.67038 -0.86613,-1.67038 -1.74976,-3.37451 -1.1675,-2.25162 -2.33498,-4.50325 -3.50244,-6.75488 -2.90377,-5.60033 -5.80786,-11.20049 -8.71264,-16.8003 -1.15758,-2.23176 -2.31513,-4.46353 -3.47266,-6.69531 -0.57202,-1.10279 -1.14404,-2.20559 -1.7334,-3.3418 -3.068587,-5.91762 -6.133257,-11.83724 -9.192381,-17.75976 -0.65568,-1.26905 -1.31136,-2.53809 -1.967041,-3.80713 -1.223969,-2.36904 -2.446993,-4.73857 -3.669434,-7.1084 C 81.38688,161.70936 76.189582,151.86021 71,142 70.67,407.65 70.34,673.3 70,947 46.9,947 23.8,947 0,947 0,634.49 0,321.98 0,0 Z"
         fill="#000000"
         transform="translate(0,8)"
         id="path1-8" /><path
         d="M 0,0 C 0.96560852,5.4382e-4 1.931217,0.00108765 2.9260864,0.00164795 59.709433,0.14824161 112.17051,20.337039 152.875,60.25 c 31.74608,31.955386 48.63072,74.92501 53.8125,119.125 0.13148,1.0957 0.26297,2.19141 0.39844,3.32031 5.39011,55.79491 -11.12506,112.97135 -46.69922,156.42969 -0.89918,1.0838 -1.79891,2.16714 -2.69922,3.25 -0.86858,1.06243 -1.73707,2.12493 -2.60547,3.1875 -10.87298,13.1801 -22.61208,25.48055 -35.39453,36.8125 -0.81598,0.7541 -1.63195,1.5082 -2.47266,2.28516 -6.23806,5.75119 -12.82819,10.98762 -19.536617,16.16992 -2.105904,1.63431 -4.199448,3.28355 -6.291504,4.93554 -9.225882,7.26684 -18.60415,14.23009 -28.257813,20.917 -2.807558,1.9462 -5.608955,3.9011 -8.410156,5.85644 -17.152839,11.9631 -17.152839,11.9631 -23.03125,15.83594 1.996035,2.33682 3.99664,4.66947 6,7 0.483398,0.56719 0.966797,1.13437 1.464844,1.71875 4.657142,5.40371 9.541083,10.58861 14.419922,15.79102 2.922798,3.12201 5.826833,6.24658 8.615234,9.49023 3.941628,4.58189 8.107361,8.95533 12.239502,13.3645 4.072622,4.35009 8.089034,8.74412 12.061279,13.18628 2.506575,2.79151 5.037333,5.5603 7.574219,8.32422 0.460276,0.50153 0.920552,1.00305 1.394775,1.51978 1.409721,1.5354 2.819889,3.07038 4.230225,4.60522 10.3619,11.27661 10.3619,11.27661 15.4375,16.9375 3.99767,4.45537 8.05451,8.85334 12.12085,13.24585 3.00561,3.2503 5.98717,6.51962 8.94165,9.81665 4.43371,4.9459 8.93943,9.82287 13.44922,14.69922 6.20395,6.70862 12.38765,13.43542 18.48828,20.23828 3.99767,4.45537 8.05451,8.85334 12.12085,13.24585 3.73692,4.04115 7.42464,8.12376 11.0979,12.2229 2.75843,3.05267 5.54875,6.07459 8.34375,9.09375 3.52698,3.80984 7.0351,7.63337 10.5,11.5 3.42623,3.82205 6.89035,7.60634 10.375,11.375 0.50483,0.54608 1.00966,1.09216 1.52979,1.65479 1.02259,1.10598 2.04521,2.21194 3.06787,3.31787 2.47064,2.67284 4.93894,5.34781 7.40234,8.02734 0.68413,0.74383 0.68413,0.74383 1.38208,1.50269 2.49418,2.72305 4.92853,5.48402 7.30542,8.30981 2.12677,2.81672 2.12677,2.81672 4.4375,3.8125 0.24492,-0.66773 0.48984,-1.33547 0.74219,-2.02344 1.55311,-3.67537 3.43774,-7.1241 5.38281,-10.60156 0.43031,-0.77215 0.86061,-1.5443 1.30396,-2.33984 4.63676,-8.25455 9.48759,-16.38159 14.33105,-24.51587 7.20287,-12.10245 14.22674,-24.30612 21.23999,-36.51929 8.21812,-14.31138 16.50669,-28.57321 24.94897,-42.75366 4.77079,-8.03413 9.43513,-16.1228 14.05103,-24.24634 9.74609,-17.15101 19.83833,-34.09215 30,-51 6.86918,3.29124 13.37413,6.93533 19.8125,11 1.82385,1.14512 3.64808,2.28963 5.47266,3.43359 0.93215,0.58508 1.8643,1.17015 2.8247,1.77295 2.94474,1.82734 5.91108,3.61377 8.88623,5.39112 0.96382,0.58072 1.92764,1.16144 2.92066,1.75976 1.85909,1.11882 3.72371,2.22853 5.59424,3.32813 0.83684,0.50724 1.67368,1.01449 2.53588,1.53711 0.74089,0.44094 1.48178,0.88188 2.24512,1.33618 1.70801,1.44116 1.70801,1.44116 2.64405,3.27124 0.0953,3.23214 -1.24744,4.94718 -2.95948,7.66601 -0.68256,1.10086 -1.36511,2.20172 -2.06836,3.33594 -0.55675,0.87906 -0.55675,0.87906 -1.12475,1.77588 -1.99153,3.14531 -3.94221,6.31595 -5.90064,9.48193 -0.40696,0.65508 -0.81392,1.31015 -1.23321,1.98508 -3.81152,6.14692 -7.47331,12.37584 -11.10633,18.62943 -5.99058,10.31083 -12.08467,20.55214 -18.29327,30.73315 -6.56549,10.76813 -13.02597,21.59284 -19.42285,32.46191 -3.68193,6.24806 -7.37772,12.48789 -11.07715,18.72559 -0.40489,0.68281 -0.80977,1.36562 -1.22693,2.06912 -5.65663,9.53451 -11.37454,19.02927 -17.14807,28.49338 -8.01886,13.14697 -15.84385,26.40397 -23.55225,39.73535 -1.19717,2.02106 -2.43379,4.01937 -3.71191,5.99024 -0.56896,0.88204 -1.13792,1.76408 -1.72412,2.67285 -0.50958,0.76103 -1.01917,1.52206 -1.54419,2.30615 -1.09888,2.09145 -1.09888,2.09145 -0.1438,4.20801 1.97462,2.88301 4.33901,5.3735 6.73877,7.8999 1.09139,1.16513 2.18254,2.3305 3.27344,3.49609 0.55139,0.58637 1.10279,1.17273 1.6709,1.77686 2.41473,2.57722 4.79837,5.18237 7.18066,7.78955 0.90746,0.99097 1.81502,1.98185 2.72266,2.97266 0.67119,0.73307 0.67119,0.73307 1.35595,1.48095 2.28531,2.49553 4.57219,4.98964 6.85889,7.48389 0.91667,0.99999 1.83334,1.99999 2.75,3 0.45375,0.495 0.9075,0.99 1.375,1.5 34.375,37.5 68.75,75 103.125,112.5 0.45456,0.49564 0.90911,0.99129 1.37744,1.50195 0.90948,0.99263 1.81802,1.98611 2.72559,2.98047 2.39446,2.62091 4.80696,5.2217 7.24853,7.79883 0.75894,0.80824 0.75894,0.80824 1.53321,1.63281 0.96936,1.03162 1.94435,2.05798 2.92578,3.07813 4.41881,4.72558 4.41881,4.72558 4.43945,8.00781 -1.15234,1.67578 -1.15234,1.67578 -2.9375,3.3125 -0.97646,0.91072 -0.97646,0.91072 -1.97266,1.83984 -2.64697,2.34022 -5.31084,4.65956 -7.98828,6.96485 -2.28821,2.05003 -4.44417,4.19576 -6.60156,6.38281 -3.36114,3.40719 -6.83701,6.57458 -10.46875,9.6875 -3.06003,2.73049 -5.89846,5.67091 -8.77734,8.58984 -3.28065,3.23517 -6.74,6.24493 -10.25391,9.22266 -5.96896,-4.82597 -10.96019,-10.22222 -16,-16 -0.59812,-0.6832 -1.19625,-1.36641 -1.8125,-2.07031 -1.12871,-1.2907 -2.25631,-2.58238 -3.38281,-3.875 -3.56107,-4.05438 -7.18817,-8.04982 -10.80469,-12.05469 -4.76787,-5.27986 -9.51512,-10.57292 -14.1875,-15.9375 -2.08461,-2.37214 -4.19679,-4.71806 -6.3125,-7.0625 -3.26391,-3.61676 -6.48791,-7.2639 -9.6875,-10.9375 -2.84519,-3.23763 -5.74104,-6.42936 -8.62891,-9.62891 -1.89208,-2.1087 -3.76265,-4.23279 -5.62109,-6.37109 -2.81073,-3.2281 -5.6783,-6.39988 -8.5625,-9.5625 -3.45328,-3.78663 -6.86099,-7.60476 -10.22266,-11.47266 -2.07093,-2.36223 -4.17247,-4.6953 -6.27734,-7.02734 -3.26391,-3.61676 -6.48791,-7.2639 -9.6875,-10.9375 -2.84519,-3.23763 -5.74104,-6.42936 -8.62891,-9.62891 -1.89208,-2.1087 -3.76265,-4.23279 -5.62109,-6.37109 -5.99198,-6.87192 -12.07387,-13.65469 -18.5625,-20.0625 -0.27675,0.73396 -0.55349,1.46792 -0.83862,2.22412 -1.07782,2.57617 -2.28114,4.81659 -3.74341,7.18994 -0.51297,0.83354 -1.02593,1.66708 -1.55444,2.52588 -0.55309,0.88607 -1.10618,1.77214 -1.67603,2.68506 -0.57823,0.92861 -1.15645,1.85722 -1.7522,2.81396 -12.63471,20.14229 -26.2728,39.8771 -41.93725,57.792 -1.14805,1.35572 -2.26638,2.73666 -3.3711,4.12793 -5.69244,7.14921 -11.82895,13.65263 -18.31006,20.08496 -1.69002,1.67929 -3.36907,3.36904 -5.04736,5.06006 -6.61194,6.62034 -13.40112,12.71545 -20.76953,18.49609 -1.08422,0.88042 -2.16772,1.76172 -3.25,2.64453 -48.16695,37.97253 -107.103934,53.55891 -167.625,53.60547 -0.915859,10e-4 -1.831718,0.002 -2.77533,0.003 -73.306131,-0.0541 -148.30778,-19.52436 -202.34967,-71.25305 -0.55301,-0.52046 -1.10602,-1.04092 -1.67578,-1.57715 -46.63283,-44.0275 -65.59894,-107.06787 -67.51563,-169.71582 -0.54789,-29.68099 4.04964,-58.52382 13.19141,-86.70703 0.23413,-0.72703 0.46825,-1.45406 0.70947,-2.20313 11.3619,-34.4845 32.12869,-66.6371 56.80616,-93.10156 1.97297,-2.14049 3.88438,-4.30827 5.78515,-6.51172 3.71139,-4.25644 7.6331,-8.26564 11.63672,-12.24609 0.66451,-0.66838 1.32902,-1.33676 2.01367,-2.02539 4.51857,-4.5098 9.21271,-8.74752 14.04883,-12.91211 1.15643,-1.02176 2.31143,-2.04515 3.46484,-3.07031 8.53787,-7.53399 17.36772,-14.56127 26.48243,-21.38282 1.89134,-1.42525 3.76388,-2.87117 5.63086,-4.32812 20.1784,-15.62949 42.06148,-29.23705 63.786616,-42.59155 3.55415,-2.19459 7.094646,-4.41085 10.635254,-6.6272 -0.422938,-0.42072 -0.845877,-0.84144 -1.281631,-1.2749 -4.432246,-4.40999 -8.860862,-8.8236 -13.287461,-13.23926 -1.648825,-1.64382 -3.298551,-3.28674 -4.949219,-4.92871 -2.383032,-2.3708 -4.762729,-4.7449 -7.141849,-7.11963 -1.09418,-1.08644 -1.09418,-1.08644 -2.21046,-2.19482 -4.02249,-4.02206 -7.87392,-8.1337 -11.57776,-12.45171 -2.555,-2.94912 -5.25005,-5.76517 -7.92662,-8.60347 -5.47631,-5.8653 -10.65692,-11.88186 -15.625,-18.1875 -0.52207,-0.65484 -1.04414,-1.30969 -1.58203,-1.98438 -32.97961,-41.39201 -57.20727,-89.58771 -57.65625,-143.50781 -0.0146,-1.46395 -0.0146,-1.46395 -0.0295,-2.95749 -0.16804,-21.17609 -0.12653,-41.74707 4.26782,-62.55032 0.18724,-0.90943 0.37447,-1.81887 0.56738,-2.75586 10.51816,-49.59337 38.53786,-94.772139 81.19141,-122.816894 C -94.208173,18.845818 -72.21707,9.8330185 -48.6875,4.625 -47.348365,4.3269849 -47.348365,4.3269849 -45.982178,4.0229492 -30.646251,0.79680659 -15.621107,-0.03320001 0,0 Z m -84.3125,95.375 c -0.825,0.683203 -1.65,1.366406 -2.5,2.070312 -27.32192,23.138258 -39.76752,59.261378 -43.1875,93.929688 -3.81578,64.38108 21.93057,112.31725 63.582031,159.52734 3.777117,4.24145 7.607863,8.43213 11.472657,12.59375 2.030349,2.22013 4.019126,4.46026 5.992187,6.73047 3.585157,4.1121 7.278384,8.11209 11.015625,12.08594 0.977915,1.04269 0.977915,1.04269 1.975586,2.10645 4.217489,4.48095 8.495453,8.87663 12.915039,13.15917 1.763216,1.82676 3.256503,3.73516 4.734375,5.79688 4.26211,-0.91111 7.548373,-2.99737 11.1875,-5.3125 0.7034253,-0.4444 1.4068506,-0.88881 2.1315918,-1.34668 8.092756,-5.16631 15.9107602,-10.70468 23.6809082,-16.34082 0.783428,-0.56799 1.566855,-1.13599 2.374023,-1.72119 10.376165,-7.54346 20.682791,-15.16986 30.625977,-23.27881 0.549463,-0.44505 1.098926,-0.8901 1.665039,-1.34863 17.645948,-14.41716 35.098742,-31.04662 48.334961,-49.65137 0.84665,-1.13194 1.69567,-2.26211 2.54688,-3.39063 26.31764,-35.27558 37.24895,-78.92617 30.93139,-122.46875 C 129.47085,143.4738 112.1597,110.32311 83,89.1875 34.316502,55.299043 -39.071077,54.628719 -84.3125,95.375 Z m 41.25,397.75 c -1.004099,0.61327 -2.008198,1.22654 -3.042725,1.8584 -8.707469,5.37043 -17.258269,10.96673 -25.769775,16.6416 -0.617179,0.41085 -1.234358,0.8217 -1.870239,1.245 -11.952865,7.9699 -23.731612,16.19272 -35.129761,24.9425 -1.06142,0.81332 -1.06142,0.81332 -2.14429,1.64307 -6.61061,5.1018 -12.98933,10.44548 -19.29321,15.91943 -0.73477,0.63422 -1.46953,1.26844 -2.22656,1.92187 -1.93529,1.68085 -3.85546,3.37758 -5.77344,5.07813 -0.7193,0.62648 -1.43859,1.25297 -2.17969,1.89844 -11.5502,10.1869 -22.31246,20.98407 -31.82031,33.10156 -1.4788,1.75031 -2.95798,3.5003 -4.4375,5.25 -33.61232,41.21163 -47.472,92.59135 -42.875,145.1875 2.59553,25.53611 8.9754,50.00856 21.3125,72.5625 0.63329,1.20157 1.26611,2.40339 1.89844,3.60547 20.36426,37.92472 57.91237,63.28124 98.277341,75.98437 24.688947,7.41433 50.285657,10.63892 76.011719,10.66016 0.741725,6.7e-4 1.483449,10e-4 2.24765,0.002 49.366846,-0.0707 94.00169,-15.47255 132.56485,-46.25204 0.85658,-0.68087 0.85658,-0.68087 1.73047,-1.37549 14.26342,-11.46643 28.06589,-24.61405 39.28906,-39.08545 1.87504,-2.40389 3.84048,-4.70544 5.84326,-7.00317 6.69948,-7.71938 12.6382,-15.92691 18.53174,-24.27027 1.5232,-2.14953 3.06151,-4.28722 4.60547,-6.42187 8.13953,-11.30955 15.66389,-22.99916 23,-34.84375 0.56558,-0.88172 1.13115,-1.76344 1.71387,-2.67188 1.5559,-2.19177 1.5559,-2.19177 0.79785,-4.28125 -2.0517,-2.778 -4.32664,-5.29526 -6.69922,-7.79687 -0.5261,-0.56219 -1.0522,-1.12438 -1.59424,-1.70361 -1.13923,-1.21627 -2.28059,-2.43056 -3.42383,-3.64307 -1.81464,-1.92476 -3.62362,-3.85469 -5.43115,-5.78613 -2.51884,-2.69068 -5.03975,-5.3794 -7.5625,-8.06641 -7.94583,-8.46541 -15.87302,-16.94792 -23.73828,-25.48828 -5.71864,-6.20883 -11.49218,-12.36537 -17.26953,-18.51953 -5.36561,-5.71628 -10.71181,-11.45066 -16.05908,-17.18408 -2.91053,-3.12035 -5.82227,-6.23956 -8.73389,-9.35889 -1.16667,-1.24999 -2.33334,-2.49999 -3.5,-3.75 -0.86625,-0.92813 -0.86625,-0.92813 -1.75,-1.875 -1.75,-1.875 -3.5,-3.75 -5.25,-5.625 -0.57766,-0.61891 -1.15532,-1.23782 -1.75049,-1.87549 -1.16508,-1.24833 -2.33012,-2.4967 -3.49512,-3.74512 -2.940474,-3.15092 -5.881787,-6.30106 -8.824703,-9.4497 C 87.644429,614.69782 82.179885,608.83416 76.75,602.9375 71.031405,596.72863 65.257817,590.57213 59.480469,584.41797 54.114861,578.70169 48.768662,572.96731 43.421387,567.23389 c -2.910524,-3.12035 -5.82227,-6.23956 -8.733887,-9.35889 -1.166672,-1.24999 -2.333339,-2.49999 -3.5,-3.75 -0.5775,-0.61875 -1.155,-1.2375 -1.75,-1.875 -1.75,-1.875 -3.5,-3.75 -5.25,-5.625 -0.866492,-0.92837 -0.866492,-0.92837 -1.750488,-1.87549 -1.165086,-1.24833 -2.330125,-2.4967 -3.495117,-3.74512 -2.940479,-3.15092 -5.881792,-6.30106 -8.824707,-9.4497 C 4.6444283,525.69782 -0.82005108,519.8341 -6.25,513.9375 c -4.664439,-5.06332 -9.356611,-10.10018 -14.0625,-15.125 -0.635427,-0.67926 -1.270854,-1.35851 -1.925537,-2.05835 -1.686209,-1.79813 -3.37922,-3.58955 -5.074463,-5.37915 -0.763125,-0.8134 -1.52625,-1.6268 -2.3125,-2.46484 -4.10227,-3.73193 -9.575709,1.84978 -13.4375,4.21484 z"
         fill="#000000"
         transform="translate(1352.3125,-0.375)"
         id="path2" /><path
         d="M 0,0 C 1.2393127,0.00432037 2.4786255,0.00864075 3.7554932,0.01309204 22.565486,0.08975581 41.060686,0.5989658 59.6875,3.375 60.895674,3.5519238 62.103848,3.7288477 63.348633,3.9111328 126.77117,13.466596 188.64827,36.424932 236.02344,80.898437 c 2.17567,2.022546 4.3857,3.948246 6.66406,5.851563 32.0566,27.95864 54.72277,68.87146 70.25,107.875 0.30011,0.74468 0.60022,1.48935 0.90942,2.25659 1.9635,5.12466 1.9635,5.12466 0.84058,8.49341 -2.25055,1.08208 -2.25055,1.08208 -5.2666,2.08472 -1.68745,0.57025 -1.68745,0.57025 -3.409,1.15202 -1.22596,0.40012 -2.45192,0.80024 -3.71503,1.21248 -1.2519,0.41748 -2.5038,0.83496 -3.79364,1.26509 -2.65408,0.88411 -5.31071,1.75993 -7.96954,2.62968 -3.40176,1.11319 -6.79756,2.24342 -10.19171,3.37957 -2.61296,0.87313 -5.22838,1.73866 -7.84466,2.6018 -1.86061,0.61483 -3.71954,1.23475 -5.57844,1.85474 -1.70636,0.55607 -1.70636,0.55607 -3.4472,1.12337 -0.99848,0.32848 -1.99696,0.65697 -3.0257,0.9954 -2.71139,0.68916 -4.97533,0.83913 -7.75848,0.70113 -0.48469,-1.18594 -0.96938,-2.37188 -1.46875,-3.59375 C 230.06747,169.48925 195.66156,125.75544 146.6875,98.375 145.91696,97.941875 145.14643,97.50875 144.35254,97.0625 116.35143,81.473112 86.19766,71.889019 54.6875,66.375 53.781611,66.209839 52.875723,66.044678 51.942383,65.874512 19.344557,60.207108 -17.747364,60.803797 -50.3125,66.375 c -1.077012,0.176924 -2.154023,0.353848 -3.263672,0.536133 -14.864305,2.488847 -29.397514,5.81505 -43.736328,10.463867 -0.886069,0.287139 -1.772139,0.574277 -2.685059,0.870117 -34.548391,11.419427 -67.863101,30.946513 -90.314941,60.129883 -0.72832,0.91266 -1.45664,1.82531 -2.20703,2.76562 -28.15618,36.09514 -39.12927,83.53444 -34.29688,128.75 2.71237,20.34886 9.54266,40.69965 21.50391,57.48438 1.05768,1.5024 1.05768,1.5024 2.13672,3.03516 9.97008,13.5626 22.03453,25.36533 35.86328,34.96484 0.60441,0.42168 1.20882,0.84337 1.83154,1.27783 29.18197,20.11703 61.76294,33.38985 95.16846,44.72217 1.141948,0.39413 2.283896,0.78826 3.460449,1.19434 19.921038,6.84482 40.144912,12.57079 60.4194224,18.25609 C 183.66981,484.1353 183.66981,484.1353 266.6875,552.375 c 1.39412,1.31291 1.39412,1.31291 2.81641,2.65234 37.35756,36.18848 56.75114,88.37614 57.61718,139.89063 0.0371,3.88205 0.0291,7.76243 0.004,11.64453 -0.005,1.52881 -0.005,1.52881 -0.0102,3.0885 -0.0789,16.53234 -0.94488,32.50969 -4.42728,48.724 -0.23074,1.09506 -0.46148,2.19012 -0.69922,3.31836 -9.73511,44.63214 -31.65,84.85354 -63.30078,117.68164 -0.66451,0.69174 -1.32902,1.38349 -2.01367,2.09619 -8.92603,9.24254 -17.90309,18.04499 -28.27979,25.646 -1.75293,1.292 -3.47844,2.61526 -5.20263,3.94531 -9.98909,7.6245 -20.58101,14.1169 -31.50391,20.3125 -0.82742,0.46938 -1.65483,0.93876 -2.50732,1.42236 -84.21225,47.1701 -187.9956284,51.46879 -319.34034,24.70264 -41.05178,-11.96079 -81.90389,-30.9721 -115.15234,-58.125 -0.94875,-0.75797 -1.8975,-1.51594 -2.875,-2.29688 -5.42125,-4.36712 -10.65358,-8.90332 -15.79687,-13.59375 -2.05966,-1.86613 -4.15202,-3.68007 -6.26563,-5.48437 -7.9501,-6.93622 -15.25659,-14.57253 -22.0625,-22.625 -0.80824,-0.9307 -1.61648,-1.86141 -2.44922,-2.82031 -19.20721,-22.21826 -34.99987,-46.82977 -48.86328,-72.67969 -0.72981,-1.33539 -0.72981,-1.33539 -1.47437,-2.69775 -0.65657,-1.2479 -0.65657,-1.2479 -1.32641,-2.521 -0.3897,-0.73154 -0.7794,-1.46309 -1.18091,-2.2168 -0.8682,-2.53943 -0.81159,-3.62449 0.29419,-6.06445 1.69214,-1.42529 1.69214,-1.42529 3.91797,-2.74219 1.24753,-0.75301 1.24753,-0.75301 2.52026,-1.52124 0.90726,-0.53182 1.81452,-1.06364 2.74927,-1.61157 1.91759,-1.15341 3.83423,-2.30841 5.75,-3.46484 0.99645,-0.59797 1.99289,-1.19593 3.01953,-1.81202 4.96214,-3.01375 9.84462,-6.15024 14.73047,-9.28564 3.42935,-2.20067 6.86697,-4.38725 10.3125,-6.5625 1.36633,-0.88003 1.36633,-0.88003 2.76025,-1.77783 0.88994,-0.55929 1.77988,-1.11859 2.69678,-1.69483 0.80027,-0.50926 1.60053,-1.01852 2.42505,-1.54321 2.11792,-0.98413 2.11792,-0.98413 5.11792,0.0159 1.14404,1.70801 1.14404,1.70801 2.24219,3.95312 0.41967,0.83653 0.83934,1.67305 1.27173,2.53492 0.67373,1.36717 0.67373,1.36717 1.36108,2.76196 8.34716,16.4165 18.02075,32.05217 29.125,46.75 0.4299,0.57267 0.8598,1.14533 1.30273,1.73535 5.92747,7.85282 12.23617,15.211 18.98633,22.36621 2.18475,2.33586 4.27723,4.70312 6.33594,7.14844 4.06841,4.68454 8.69263,8.69327 13.375,12.75 0.96809,0.85594 1.93617,1.71187 2.93359,2.59375 18.26748,15.98078 39.14552,29.16765 61.09766,39.47949 1.31127,0.61726 2.61863,1.24292 3.92188,1.87696 63.813222,30.99589 143.4601568,37.59265 213.04687,28.0498 1.022065,-0.13922 2.044131,-0.27844 3.097168,-0.42188 49.012112,-6.9821 97.003882,-25.71193 133.695802,-59.55859 1.92185,-1.75858 3.8835,-3.42773 5.89453,-5.08203 32.36355,-27.58602 50.38406,-74.73501 54.3125,-115.9375 0.14771,-2.9054 0.18683,-5.806 0.20312,-8.71484 0.006,-0.81401 0.0114,-1.62802 0.0173,-2.46669 0.009,-1.7169 0.016,-3.43382 0.0198,-5.15075 0.01,-2.56731 0.0407,-5.1338 0.0723,-7.70092 0.23891,-37.24701 -13.90493,-69.97404 -39.8125,-96.5293 -0.825,-0.80438 -1.65,-1.60875 -2.5,-2.4375 -0.57363,-0.61875 -1.14727,-1.2375 -1.73828,-1.875 -52.67506,-55.55185 -146.428062,-74.47915 -217.38672,-95 -175.91446,-50.88561 -175.91446,-50.88561 -233.875,-106.125 -1.36826,-1.17457 -2.74262,-2.34209 -4.125,-3.5 -28.29402,-24.74271 -45.93818,-61.42171 -53.6875,-97.625 -0.19497,-0.90387 -0.38994,-1.80775 -0.59082,-2.73901 -3.15267,-15.76475 -3.98007,-31.66027 -3.90918,-47.69849 0.002,-0.86535 0.004,-1.73071 0.006,-2.62228 0.20297,-57.59713 17.65312,-112.25985 57.30698,-154.81522 1.35643,-1.560538 2.71063,-3.12301 4.0625,-4.6875 3.70007,-4.15803 7.66766,-7.753053 11.9375,-11.3125 0.84949,-0.737344 1.69898,-1.474688 2.57422,-2.234375 18.52276,-15.869433 39.34256,-28.484456 61.42578,-38.765625 0.74314,-0.347402 1.48629,-0.694805 2.25195,-1.052734 C -108.00584,9.684756 -53.816791,-0.35890598 0,0 Z"
         fill="#000000"
         transform="translate(2233.3125,-0.375)"
         id="path3" /></g></g></svg>
