<svg xmlns="http://www.w3.org/2000/svg" width="24" height="24"><path fill="#1f4c79" fill-rule="evenodd" d="M3.07 7.77c-.1.1-.08 3.01.03 3.08q.34.22.27-1.67c-.05-1.2-.13-1.59-.3-1.41m2.6 0c-.12.12-.08 3.01.04 3.09.22.13.29-.23.29-1.53 0-1.5-.07-1.83-.33-1.56m1.67.11c-1.13.54-1.18 2.17-.08 2.8.49.27 1.06.28 1.53.01.53-.3.74-.65.79-1.29.03-.45 0-.61-.2-.9-.51-.74-1.27-.97-2.04-.62m2.8-.05c-.02.07-.03.78-.02 1.57.03 1.29.05 1.45.2 1.48.17.03.18-.1.18-1.57 0-1.38-.02-1.61-.15-1.61q-.15.01-.2.13m.45.07c0 .16.07.2.35.2s.38.05.47.26c.1.23.1.29-.11.45a1 1 0 0 1-.47.19q-.23 0-.24.15-.02.15.4.15c.67 0 .99.49.64.98-.12.17-.25.22-.6.22-.37 0-.44.03-.44.2 0 .4 1.15.17 1.4-.3.19-.35.12-.85-.15-1.1q-.26-.24-.15-.34c.2-.2.11-.76-.15-1.01-.32-.33-.95-.36-.95-.05m2.15-.08c-.03.08-.04.79-.03 1.58.03 1.3.05 1.45.2 1.48.17.03.18-.08.16-1.54-.02-1.15-.06-1.58-.15-1.62q-.12-.02-.18.1m.45.08c0 .2.05.2.73.18.56-.02.72-.06.72-.18s-.16-.16-.72-.18c-.68-.03-.73-.02-.73.18m2.25-.08c-.03.08-.04.79-.03 1.58.02 1.04.06 1.45.16 1.48.15.05.18-3.03.02-3.13q-.1-.04-.15.07m2.3 0c-.03.08-.04.79-.03 1.58.03 1.21.05 1.45.18 1.45s.15-.24.15-1.54c0-1.15-.03-1.55-.12-1.58q-.12-.03-.18.1m1 0c-.04.1.33.72.97 1.61.94 1.33 1.25 1.64 1.22 1.24a27 27 0 0 0-2.05-2.94q-.09-.03-.15.1m1.9.08c-.11.13-.33.4-.48.61-.24.33-.26.4-.15.52s.21.04.58-.5q.45-.66.35-.75-.1-.1-.3.12m-13.26.34c-.53.28-.73 1.05-.44 1.63q.32.6 1.07.61c1.18 0 1.7-1.28.84-2.07-.28-.27-.43-.33-.77-.33-.24 0-.55.07-.7.16m-3.87.37q0 .37.44 1.33c.36.78.47.94.59.85.07-.06.32-.53.55-1.05.4-.91.52-1.46.31-1.46q-.09 0-.1.09c0 .05-.19.49-.41.97l-.42.89-.48-1c-.45-.94-.48-.98-.48-.62m9.69.68c0 .18.05.2.52.17.4-.02.54-.07.56-.2.03-.15-.05-.18-.52-.18-.5 0-.56.02-.56.2m5.91.72c-.26.38-.4.67-.36.77.05.13.13.08.4-.23.53-.63.67-.92.52-1.05-.1-.08-.23.03-.56.5m-5.91.69c0 .2.05.2.73.18.56-.02.72-.06.72-.18s-.16-.16-.72-.18c-.68-.03-.73-.02-.73.18m2.7 0c0 .18.07.2.54.2.33 0 .58-.05.65-.13.17-.21.03-.27-.6-.27-.52 0-.59.02-.59.2"/></svg>