<svg xmlns="http://www.w3.org/2000/svg" width="24" height="24"><path fill="#ca407f" fill-rule="evenodd" d="M3 9v3.8h3.48c3-.01 3.41-.03 3.05-.14-.6-.19-.99-.5-1.3-1.04-.24-.4-.28-.59-.28-1.18 0-.61.04-.77.3-1.2.19-.3.5-.6.79-.78a2.4 2.4 0 0 1 2.23-.08 2.34 2.34 0 0 1-.4 4.27c-.38.12-.26.14 1.43.13 1.02 0 1.76-.02 1.65-.04l-1.35-.3.35-1.02c.04-.1.1-.1.32.01.36.18.89.28 1.08.2.08-.03.15-.14.15-.24 0-.14-.19-.28-.65-.5-.83-.4-1.05-.67-1.05-1.3 0-.4.06-.55.3-.83.4-.46.87-.6 1.9-.6.72 0 1.7.17 1.7.28l-.35 1.05q-.04.17-.25-.04a1.5 1.5 0 0 0-.75-.23c-.5-.04-.55-.03-.55.17 0 .17.17.3.84.6.99.46 1.21.75 1.13 1.48q-.1 1.03-1.47 1.26c-.14.02.47.04 1.35.04 1.21 0 1.48-.01 1.09-.08a5 5 0 0 1-.77-.18l-.26-.1.2-.6.2-.6.32.19c.47.27 1.01.34 1.17.15.18-.22.01-.38-.75-.74q-.64-.29-.8-.6c-.35-.68-.05-1.49.7-1.86.31-.15.6-.2 1.3-.19.88 0 1.75.17 1.75.33a5 5 0 0 1-.36 1.01l-.35-.16a1.5 1.5 0 0 0-.72-.12c-.34.02-.42.07-.42.22s.17.26.7.48c.9.36 1.25.73 1.25 1.33 0 .24-.05.56-.12.7-.15.32-.64.63-1.2.74-.37.08-.3.09.5.1l.92.01V5.2h-3.6c-3.13 0-3.6.02-3.6.15q-.01.15-.26.15-.29 0-.2-.15.07-.15-.14-.15-.2 0-.14.15.09.16-.26.15-.34 0-.26-.15c.05-.13-.52-.15-4.74-.15H3zm.32-3.14c-.45.31-.13.94.48.94.4 0 .7.11.7.25 0 .2-.36.24-.65.09-.4-.2-.77-.18-.73.03.08.44 1.34.6 1.82.22.51-.4.24-.82-.63-.95-.3-.05-.56-.14-.58-.2-.06-.2.36-.27.6-.12.25.16.8.1.7-.08-.24-.35-1.3-.47-1.7-.18m2.17.79v.95h.73c.4 0 .83-.06.97-.13.26-.13.37-.46.24-.75-.04-.1-.06-.32-.05-.5.03-.4-.23-.52-1.2-.52H5.5zm3.64-.82c-.03.08-.04.5-.02.93.03.77.04.79.28.79s.25-.02.25-.63c0-.34.03-.62.06-.62s.14.28.25.63c.17.54.23.62.45.62.2 0 .27-.09.44-.57.28-.8.35-.8.35-.05 0 .65 0 .67.25.67s.25 0 .25-.96V5.7l-.42.03c-.43.03-.43.03-.65.63-.2.56-.22.59-.3.35-.4-1-.4-1-.78-1-.2 0-.38.06-.4.13m3.35 0c-.53.27-.64 1.13-.2 1.53.32.28 1.26.3 1.67.05.57-.36.53-1.28-.07-1.58a2 2 0 0 0-.7-.13c-.25 0-.56.06-.7.13m2.2.82v.95h.69c.37 0 .82-.05 1-.11.37-.13.52-.52.28-.76-.12-.13-.13-.2-.04-.4.1-.22.08-.28-.12-.44-.18-.15-.4-.19-1.02-.19h-.79zm2.44-.82c-.03.08-.04.5-.02.93l.03.79.88.03c.82.03.87.02.87-.18 0-.18-.06-.2-.6-.2-.53 0-.6-.02-.6-.2s.07-.2.55-.2c.42 0 .55-.03.55-.15s-.13-.15-.55-.15c-.48 0-.55-.02-.55-.2s.07-.2.6-.2.6-.02.6-.2-.07-.2-.85-.2c-.62 0-.87.04-.9.13m2.07.79.03.93h.8c.68 0 .8-.03.83-.17s-.05-.18-.52-.18h-.55l-.03-.72c-.03-.72-.04-.73-.3-.76l-.29-.03zm-13.2-.34c.04.2.53.29.73.12q.31-.3-.36-.3c-.33 0-.4.03-.37.18m6.71.08c-.15.24-.15.29-.02.53.11.2.22.26.49.26s.38-.06.49-.26c.13-.24.13-.3-.02-.53q-.17-.26-.47-.26t-.47.26m2.57-.06q-.02.21.28.2c.15 0 .33-.04.4-.09.23-.14.04-.31-.34-.31-.27 0-.34.04-.34.2m-7.43.37q-.28.31.38.33c.38 0 .45-.03.45-.2s-.07-.2-.38-.2c-.21 0-.42.03-.45.07M6 7c0 .18.05.2.42.17q.45-.02.46-.2c.03-.15-.04-.18-.42-.18-.4 0-.46.03-.46.2m9.3 0c0 .19.05.2.43.18q.44-.02.42-.18 0-.15-.42-.18c-.38-.03-.43 0-.43.18M3.1 10.45v2.25h1.68c.92 0 1.84-.05 2.04-.1.87-.24 1.18-1.28.57-1.9l-.3-.3.26-.32c.23-.27.26-.39.22-.76-.1-.93-.6-1.12-2.86-1.12H3.1zm1.9-.9c0 .34.04.45.16.45.28 0 .54-.2.54-.43q-.02-.46-.47-.47c-.2 0-.23.05-.23.45m4.72.35c-.32.3-.3.83.04 1.1.15.1.33.2.4.2.28 0 .63-.24.74-.5.3-.72-.6-1.33-1.18-.8M5 11.2c0 .49 0 .5.3.5a.5.5 0 0 0 .5-.5c0-.17-.39-.5-.6-.5-.17 0-.2.07-.2.5"/></svg>