<svg xmlns="http://www.w3.org/2000/svg" width="24" height="24"><path fill="#5e163f" fill-rule="evenodd" d="M15.72 6.32c-.22.22-.12.48.34.93l.47.44-.3.06c-.56.13-.64.17-.79.4-.28.43.1.79.6.59.19-.07.2-.35.04-.52q-.16-.13.2-.12c.56 0 .68.64.13.76l-.55.13a1 1 0 0 0-.48.32c-.16.2-.17.3-.08.54.14.37.26.45.69.45h.33l-.36.4c-.37.42-.45.67-.24.88q.44.46 1.38-.72.43-.53.7-.6t.35-.26c.08-.24.41-.26.73-.04.12.08.5.5.82.95.62.8.9.96 1.18.67s.13-.6-.66-1.37a4 4 0 0 1-.86-1.04c-.1-.44.26-1.08.95-1.68q.92-.78.59-1.14c-.25-.3-.57-.17-1.12.46-1 1.16-1.14 1.29-1.45 1.29-.33 0-.65-.26-1.18-.95q-.98-1.3-1.43-.83m-7.54.53c-.14.32.05.57.41.53q.26-.03.3-.26c.06-.5-.5-.72-.7-.27m1.21-.1c-.2.24-.08.6.2.63.37.04.56-.21.42-.53-.13-.28-.43-.33-.62-.1M4.85 7.76c-.11.03-.3.14-.42.26l-.23.2v-.21c0-.2-.05-.22-.6-.22-.57 0-.6.01-.6.25q-.01.26.2.25c.18 0 .2.07.2.75s-.02.75-.2.75q-.2 0-.2.2c0 .16.09.19.76.22.59.02.78 0 .82-.1q.04-.15-.12-.27c-.25-.19-.2-1.43.07-1.59.28-.17.47.17.47.86 0 .43-.04.6-.15.64a.3.3 0 0 0-.15.25c0 .17.08.19.6.19h.68q.07-.01.1-.2.03-.2-.12-.2c-.23 0-.23-1.22 0-1.44.19-.2.26-.2.42-.04.15.15.16 1.48.02 1.48q-.09.02-.1.22c0 .22.04.23.73.21.58 0 .73-.04.75-.18q.03-.16-.17-.22C7.42 9.78 7.4 9.7 7.4 9c0-.6-.04-.82-.17-.98q-.41-.45-1.08-.12c-.33.17-.41.18-.54.06a1 1 0 0 0-.76-.19m3.85.03a1.4 1.4 0 0 0-.62.4c-.24.25-.28.4-.28.86 0 .5.03.6.34.9.3.3.4.34.86.34q1.41.01 1.4-1.28c0-.48-.04-.58-.34-.88-.19-.19-.43-.34-.54-.34s-.26-.02-.34-.04a2 2 0 0 0-.48.04m3.38.08c-.3.16-.38.17-.42.06q-.05-.14-.6-.14c-.53 0-.56.01-.56.25q0 .25.15.25c.12 0 .15.15.15.74 0 .66-.02.74-.2.8q-.21.04-.18.21c.02.14.16.17.78.17.69 0 .75-.02.78-.2q.03-.22-.12-.22c-.23 0-.23-1.22 0-1.44.19-.2.26-.2.42-.04.15.15.16 1.48.02 1.48q-.09.02-.1.22c0 .22.04.23.65.23.6 0 .65-.01.65-.22q0-.21-.1-.23c-.16 0-.13-1.35.04-1.49.18-.15.43-.05.5.22.12.46.07 1.16-.1 1.25a.3.3 0 0 0-.13.27c.03.14.15.17.74.17.62 0 .7-.02.73-.2q.03-.2-.17-.25c-.19-.05-.21-.13-.21-.85 0-.85-.1-1.03-.6-1.15-.26-.07-.9.19-.9.36 0 .06-.1 0-.2-.11-.12-.12-.25-.22-.3-.22l-.22-.05c-.07-.03-.3.03-.5.13M8.8 8.4c-.05.11-.1.4-.1.66q0 .85.4.85.4-.01.4-.85c0-.25-.05-.55-.1-.66a.33.33 0 0 0-.6 0m7.57.87c-.32.17-.33.47-.03.52.22.05.46-.22.46-.5 0-.22-.06-.22-.43-.02"/></svg>