<?xml version="1.0" encoding="UTF-8" standalone="no"?>
<svg
   viewBox="0 0 24 24"
   width="24pt"
   height="24pt"
   version="1.1"
   id="svg1"
   xml:space="preserve"
   xmlns="http://www.w3.org/2000/svg"
   xmlns:svg="http://www.w3.org/2000/svg"><defs
     id="defs1" /><g
     id="g1"
     transform="matrix(0.08612031,0,0,0.08612031,2.3526966,0.21304413)"><path
       d="m 160.821,69.332 c -0.726,0.733 -2.631,4.087 -4.232,7.453 -2.423,5.093 -2.696,6.381 -1.628,7.668 2.73,3.29 4.924,1.812 8.73,-5.88 3.101,-6.265 3.471,-7.673 2.37,-9 -1.597,-1.924 -3.484,-2.01 -5.24,-0.241 m -73.071,4.33 c 0.688,0.278 1.813,0.278 2.5,0 0.688,-0.277 0.125,-0.504 -1.25,-0.504 -1.375,0 -1.937,0.227 -1.25,0.504 M 75,103.378 c 0,0.207 0.787,0.995 1.75,1.75 1.586,1.243 1.621,1.208 0.378,-0.378 C 75.821,103.084 75,102.555 75,103.378 m -2.086,14.578 c -10.049,3.045 -14.934,14.898 -9.861,23.925 4.692,8.349 15.259,11.18 23.263,6.233 10.914,-6.745 9.903,-23.931 -1.717,-29.209 -4.345,-1.973 -7.47,-2.227 -11.685,-0.949 m 71,0 c -4.588,1.39 -7.769,4.112 -9.865,8.443 -3.647,7.535 -2.176,14.648 4.185,20.233 6.084,5.342 15.322,5.289 21.159,-0.121 2.229,-2.065 2.504,-2.834 1.612,-4.501 -1.269,-2.372 -5.221,-2.66 -7.005,-0.51 -1.981,2.387 -8.432,1.893 -11.672,-0.894 -3.723,-3.203 -3.901,-9.302 -0.381,-13.05 2.784,-2.963 9.232,-3.491 12.494,-1.024 2.593,1.961 5.243,1.855 6.425,-0.256 1.436,-2.568 -0.4,-5.161 -5.197,-7.339 -4.411,-2.003 -7.526,-2.263 -11.755,-0.981 M 29.12,119.776 C 27.363,123.06 29.565,125 35.05,125 H 40 v 10.566 c 0,11.226 0.889,14.434 4,14.434 3.111,0 4,-3.208 4,-14.434 V 125 h 4.965 c 5.482,0 7.729,-2.009 5.901,-5.276 C 58.024,118.221 56.119,118 43.985,118 31.679,118 29.96,118.205 29.12,119.776 m 71.118,-0.614 c -1.952,1.952 -1.636,19.197 0.432,23.555 4.546,9.58 19.922,9.773 24.815,0.312 1.218,-2.355 1.517,-5.532 1.299,-13.794 L 126.5,118.5 h -3 -3 l -0.5,10.834 c -0.546,11.828 -1.487,13.666 -7,13.666 -5.51,0 -6.454,-1.843 -7,-13.669 -0.457,-9.894 -0.674,-10.856 -2.512,-11.119 -1.106,-0.159 -2.569,0.269 -3.25,0.95 m 67.228,0.067 c -0.288,0.75 -0.398,7.867 -0.245,15.817 L 167.5,149.5 h 3 c 2.951,0 3.005,-0.094 3.3,-5.75 l 0.3,-5.75 h 6.9 6.9 l 0.3,5.75 c 0.271,5.198 0.529,5.782 2.687,6.087 1.313,0.186 2.768,-0.264 3.235,-1 0.466,-0.735 0.847,-7.412 0.847,-14.837 0,-7.425 -0.381,-14.102 -0.847,-14.837 -0.467,-0.736 -1.922,-1.186 -3.235,-1 -2.145,0.303 -2.438,0.944 -2.887,6.337 l -0.5,6 h -6.5 -6.5 l -0.5,-6 c -0.472,-5.662 -0.655,-6.018 -3.256,-6.317 -1.648,-0.19 -2.966,0.231 -3.278,1.046 m -96.543,7.694 c -2.261,2.262 -2.923,3.833 -2.923,6.944 0,10.935 14.285,13.874 18.493,3.805 1.797,-4.302 0.861,-8.196 -2.688,-11.183 -4.183,-3.52 -9.094,-3.354 -12.882,0.434"
       stroke="none"
       fill="#f5a705"
       fill-rule="evenodd"
       id="path1-0" /><path
       d="m 30.2,75.2 c -0.828,0.828 -1.2,5.906 -1.2,16.378 0,12.628 0.266,15.398 1.584,16.492 1.145,0.95 2.045,1.025 3.25,0.269 1.244,-0.781 1.793,-3.041 2.166,-8.933 l 0.5,-7.886 4.5,7.99 c 6.202,11.012 7.497,11.053 13.15,0.421 l 4.35,-8.183 0.5,7.773 c 0.545,8.471 2.256,11.171 5.416,8.549 2.273,-1.887 2.358,-31.182 0.097,-33.059 -2.526,-2.096 -4.201,-0.46 -9.402,9.182 -8.05,14.927 -6.979,14.665 -13.108,3.21 C 34.789,73.923 33.16,72.24 30.2,75.2 m 51.25,0.207 c -6.788,2.957 -11.148,11.45 -9.957,19.395 1.286,8.573 12.238,16.48 20.22,14.598 14.359,-3.387 19.75,-18.566 10.498,-29.561 C 97.557,74.308 88.44,72.362 81.45,75.407 m 31.779,-0.236 C 112.365,76.035 112,80.906 112,91.578 c 0,12.628 0.266,15.398 1.584,16.492 3.148,2.613 4.871,-0.08 5.416,-8.467 l 0.5,-7.691 4.423,8.044 c 2.933,5.332 5.017,8.044 6.182,8.044 1.996,0 4.354,-3.046 8.517,-11 l 2.878,-5.5 0.5,7.897 c 0.374,5.9 0.921,8.16 2.166,8.942 1.205,0.756 2.105,0.681 3.25,-0.269 2.35,-1.951 2.35,-31.189 0,-33.14 -2.509,-2.082 -4.286,-0.217 -10.458,10.975 -3.112,5.643 -6.063,10.192 -6.558,10.108 -0.495,-0.084 -3.608,-4.954 -6.918,-10.823 -5.951,-10.549 -7.858,-12.414 -10.253,-10.019 m 61.131,0.697 c -3.135,1.466 -4.427,2.806 -5.322,5.518 -2.201,6.667 1.072,10.878 9.857,12.685 7.1,1.46 9.105,2.53 9.105,4.857 0,3.297 -7.312,4.222 -13.369,1.691 -3.822,-1.597 -6.631,-0.577 -6.631,2.408 0,2.949 4.341,5.15 11.252,5.705 8.379,0.673 13.264,-1.328 15.333,-6.282 3.086,-7.385 -1.639,-13.137 -12.243,-14.902 -2.287,-0.381 -4.952,-1.274 -5.923,-1.984 -1.643,-1.201 -1.578,-1.414 0.933,-3.059 2.426,-1.59 3.309,-1.638 8.767,-0.48 5.135,1.09 6.209,1.072 6.974,-0.118 3.686,-5.733 -9.972,-10.136 -18.733,-6.039 m -91.143,6.693 c -1.226,0.858 -2.941,2.938 -3.811,4.621 -5.27,10.191 8.134,19.669 16.828,11.9 2.804,-2.505 3.266,-3.578 3.266,-7.582 0,-4.004 -0.462,-5.077 -3.266,-7.582 -3.75,-3.351 -9.339,-3.934 -13.017,-1.357"
       stroke="none"
       fill="#4a3529"
       fill-rule="evenodd"
       id="path2" /></g></svg>
