<?xml version="1.0" encoding="UTF-8" standalone="no"?>
<svg
   viewBox="0 0 24 24"
   width="24pt"
   height="24pt"
   version="1.1"
   id="svg1"
   sodipodi:docname="pink_master_pin.svg"
   xml:space="preserve"
   xmlns:inkscape="http://www.inkscape.org/namespaces/inkscape"
   xmlns:sodipodi="http://sodipodi.sourceforge.net/DTD/sodipodi-0.dtd"
   xmlns="http://www.w3.org/2000/svg"
   xmlns:svg="http://www.w3.org/2000/svg"><defs
     id="defs1" /><sodipodi:namedview
     id="namedview1"
     pagecolor="#ffffff"
     bordercolor="#000000"
     borderopacity="0.25"
     inkscape:showpageshadow="2"
     inkscape:pageopacity="0.0"
     inkscape:pagecheckerboard="0"
     inkscape:deskcolor="#d1d1d1"
     inkscape:document-units="pt"
     inkscape:lockguides="false"
     showguides="true"><sodipodi:guide
       position="24.553766,1.4379626"
       orientation="0,-1"
       id="guide1"
       inkscape:locked="false" /><inkscape:page
       x="0"
       y="0"
       width="24"
       height="24"
       id="page2"
       margin="0"
       bleed="0" /></sodipodi:namedview><g
     id="g1"
     transform="matrix(0.06886857,0,0,0.07211549,3.4252921,1.6402399)"><path
       d="M 0,0 C 0.7734375,-0.020625 1.546875,-0.04125 2.34375,-0.0625 12.690475,-0.13194111 19.945138,4.0431897 27.25,11.25 c 2.447183,3.15833 4.278355,6.400686 6,10 0.4125,0.831445 0.825,1.662891 1.25,2.519531 4.247058,9.836068 4.428482,22.146456 0.785156,32.246094 C 31.350068,64.509476 25.302764,72.20092 16.625,76.1875 4.1054897,80.107503 -8.6183957,76.214018 -20.0625,70.9375 -28.073124,66.627083 -33.827663,61.394411 -37.675781,53.023437 -40.760854,42.186419 -40.53216,28.875212 -35.34375,18.757812 -29.210065,9.1062782 -21.927712,3.8901002 -10.818359,0.69433594 -7.2366633,-0.07510303 -3.6507689,0.02386123 0,0 Z"
       fill="#050505"
       transform="translate(195.75,63.75)"
       id="path2" /><path
       d="m 0,0 c 5.8818913,4.1240847 9.8010541,8.4900067 11.566406,15.542969 1.736725,13.829697 -0.09495,25.241485 -8.1249997,36.8125 -7.6463816,9.135936 -20.3328503,15.197583 -32.1718753,16.425781 -8.471539,0.256305 -13.595474,-2.072235 -19.828125,-7.738281 -4.597734,-4.859688 -7.307282,-10.372674 -9.875,-16.5 -0.341601,-0.801797 -0.683203,-1.603594 -1.035156,-2.429688 -3.622676,-10.008696 -3.4815,-22.337469 0.714844,-32.109375 4.848371,-9.03690527 11.313167,-15.1823647 20.945312,-18.8359373 C -25.518784,-11.107922 -10.617945,-6.3571326 0,0 Z"
       fill="#050505"
       transform="translate(140.43359,73.457031)"
       id="path3" /><path
       d="m 0,0 c 5.2096579,2.0721889 8.4687901,4.5919005 11.3125,9.4375 3.623741,8.729921 2.529668,19.067927 0,28 C 8.4263033,44.231649 4.6836276,49.442343 -1.75,53.25 c -5.4738364,2.088701 -12.456672,2.490305 -17.972656,0.425781 -3.067025,-1.906529 -4.726611,-3.91092 -5.964844,-7.238281 -0.215397,-2.624588 -0.327821,-5.140528 -0.335937,-7.765625 -0.0067,-0.752228 -0.01331,-1.504457 -0.02017,-2.27948 -0.01011,-1.590246 -0.01482,-3.180535 -0.0145,-4.770813 -0.0044,-2.412349 -0.04064,-4.82284 -0.07861,-7.234863 C -26.243314,9.9137392 -26.243314,9.9137392 -21.6875,3.4375 -14.991543,-2.7801745 -8.4422639,-2.6987565 0,0 Z"
       fill="#fcfcfc"
       transform="translate(203.6875,75.5625)"
       id="path4"
       style="fill:#f7bf01;fill-opacity:1" /><path
       d="m 0,0 -0.2154541,0.8922119 -0.2154541,0.8922119 c -0.8775705,4.1095516 -1.3381829,8.1596499 -1.5709592,12.2272572 -0.2327764,4.067608 -0.2377167,8.152725 -0.2039431,12.332313 0.00918,1.174819 0.014306,2.349539 0.017108,3.524268 0.0028,1.174729 0.00328,2.349465 0.00316,3.524316 0.00245,0.759442 0.00514,1.518883 0.00807,2.278324 0.00293,0.75944 0.00609,1.518879 0.00951,2.278317 5.55e-4,0.344892 0.00111,0.689784 0.00167,1.037289 5.613e-4,0.347505 0.00113,0.697623 0.0017,1.052966 0.022746,2.369431 0.1590415,4.687632 0.3670777,6.999439 C -1.5894846,49.350721 -1.3097078,51.656137 -1,54 c 0.0665699,1.339988 0.0881959,2.667877 0.0901789,3.996824 C -0.90783804,59.325772 -0.925498,60.655778 -0.9375,62 l -0.006836,1.029297 -0.006836,1.029297 c -0.0058,0.823588 -0.0131814,1.647163 -0.0215257,2.47073 C -0.98104193,67.352891 -0.990349,68.176449 -1,69 l 1.44140625,0.449219 1.44140625,0.449218 C 3.354185,70.418396 4.4010748,70.854178 5.3213251,71.454775 6.2415753,72.055372 7.0351859,72.820783 8,74 L 7.5,75 7,76 6,75.5 5,75 C 3.5367681,74.95045 2.0807812,74.915728 0.6248457,74.895129 -0.83108976,74.874531 -2.2869738,74.868056 -3.75,74.875 -4.1496093,74.8731 -4.5492187,74.8711 -4.9518555,74.8692 -5.3544922,74.8673 -5.7601563,74.8653 -6.171875,74.8633 c -2.20427,0.0036 -4.32326,0.100569 -6.435203,0.290223 C -14.719021,75.343158 -16.823917,75.625525 -19,76 c -1.228771,0.03289 -2.457943,0.05431 -3.687211,0.06461 -1.229268,0.0103 -2.458633,0.0095 -3.687789,-0.0021 -0.622617,-0.0045 -1.245234,-0.009 -1.872568,-0.01356 -0.627334,-0.0045 -1.259385,-0.0091 -1.900869,-0.01378 -0.470508,-0.0058 -0.941016,-0.0116 -1.415088,-0.01745 C -32.037598,76.011865 -32.515234,76.005977 -33,76 c 0.714853,-1.712814 1.180306,-2.694902 1.906195,-3.476491 0.725889,-0.78159 1.712213,-1.362683 3.468805,-2.273509 1.8125,-0.625 2.71875,-0.9375 3.671875,-1.09375 C -23,69 -22,69 -20,69 -19.692543,62.163995 -19.396645,55.335954 -19.200561,48.505934 -19.004476,41.675915 -18.908204,34.843917 -19,28 l -0.892578,1.398438 -0.892578,1.398437 c -1.747572,2.527353 -3.767032,4.953926 -6.116725,6.935766 C -29.251573,39.71448 -31.931499,41.251585 -35,42 c -3.498305,0.250848 -5.247457,0.376271 -6.497457,0.251271 -1.25,-0.125 -2.000848,-0.500423 -3.502543,-1.251271 0.703384,-1.537496 1.478943,-2.91304 2.34615,-4.230598 0.867206,-1.317558 1.826061,-2.57713 2.896038,-3.882683 1.887553,-2.387544 3.598949,-4.839767 5.21811,-7.35327 1.619161,-2.513503 3.146088,-5.088286 4.664702,-7.720949 3.678014,-6.362869 7.145584,-11.8610551 11.694241,-15.2459931 C -13.632102,-0.81843112 -8.002359,-2.0901214 0,0 Z"
       fill="#040404"
       transform="translate(73,66)"
       id="path5"
       sodipodi:nodetypes="cccscscscscscscccscccscccccscscscscscscscscscccscscscscsc" /><path
       d="M 0,0 C 5.0795122,2.5859335 8.0081694,5.4316372 10.052734,10.726074 11.706281,16.441038 11.452314,22.211922 11.5,28.125 c 0.04125,1.255547 0.0825,2.511094 0.125,3.804687 C 11.697655,40.684554 10.324228,47.849031 5,55 0.79711659,57.957289 -1.5500167,58.476396 -6.5273437,57.695312 -13.860183,55.633313 -19.166876,51.805619 -23.018555,45.267822 -24.736076,41.299152 -24.65632,37.514026 -24.5,33.25 c 0.01918,-0.878174 0.03835,-1.756348 0.05811,-2.661133 C -24.081427,20.008672 -22.64067,10.816993 -15,3 -10.6576,-0.85991114 -5.5446456,-0.80859415 0,0 Z"
       fill="#fbfbfb"
       transform="translate(120,74)"
       id="path6"
       style="fill:#f7bf01;fill-opacity:1" /><path
       d="m 0,0 c 4.3922816,1.6603969 7.3586263,3.0379395 10,7 0.753825,4.601837 0.399698,8.169857 -1.625,12.375 C 5.6792264,22.354539 3.8140378,23.728654 0,25 c -3.625,0.0625 -3.625,0.0625 -7,-1 -4.602375,-5.450181 -5.491949,-9.989733 -5,-17 2.6768166,-5.7360355 5.6700143,-7.71660215 12,-7 z"
       fill="#151515"
       transform="translate(64,156)"
       id="path8" /><path
       d="M 0,0 C 3.9487783,3.8475276 5.1962786,6.9106031 5.4375,12.3125 5.3879017,16.086931 5.3337661,18.547633 2.5625,21.25 -2.0375629,23.50968 -5.1425244,23.49392 -10,22 c -3.461212,-2.163257 -4.707416,-3.122248 -6,-7 -0.469956,-3.491104 -0.67927,-5.9424281 1.269531,-8.9765625 C -10.419786,0.92613418 -6.9766781,-1.2709988 0,0 Z"
       fill="#121212"
       transform="translate(200,160)"
       id="path9" /><path
       d="m 0,0 c 4.7764644,0.13050449 8.4813351,1.6449591 12.375,4.375 3.002087,3.377348 3.525706,6.486297 3.363281,11 -0.597896,3.291644 -2.264271,5.468841 -4.363281,8 C 8.6104797,24.75726 6.3288637,24.470254 3.25,24.4375 2.1542969,24.4285 1.0585937,24.41945 -0.0703125,24.41016 -1.3348828,24.39276 -1.3348828,24.39276 -2.625,24.375 c 0.33,-0.66 0.66,-1.32 1,-2 0.1506721,-1.446524 0.2486104,-2.898793 0.3164063,-4.351563 0.041895,-0.850781 0.083789,-1.701562 0.1269531,-2.578124 0.039316,-0.889454 0.078633,-1.778907 0.1191406,-2.695313 0.0647754,-1.345781 0.0647754,-1.345781 0.13085938,-2.71875 C -0.82543139,7.8126572 -0.72338806,5.5939512 -0.625,3.375 c -1.32,0 -2.64,0 -4,0 0,0.66 0,1.32 0,2 0.99,0 1.98,0 3,0 0,0.66 0,1.32 0,2 -1.65,-0.33 -3.3,-0.66 -5,-1 C -5.7158344,1.8291718 -4.8825612,0.50509254 0,0 Z"
       fill="#0e0e0e"
       transform="translate(137.625,156.625)"
       id="path10" /><path
       d="M 0,0 C 1.2760932,0.90933009 2.5456555,1.8278285 3.8125,2.75 4.874043,3.5157031 4.874043,3.5157031 5.9570312,4.296875 8.0297769,6.0248236 9.4737585,7.7852648 11,10 c 1.32,-2.97 2.64,-5.94 4,-9 3,1 3,1 4,3 0.09843,2.8227454 0.138983,5.615281 0.125,8.4375 0.0058,1.16499 0.0058,1.16499 0.01172,2.353516 C 19.131,18.110812 19.056688,20.829935 18,24 c 0.99,0.33 1.98,0.66 3,1 0,0.33 0,0.66 0,1 -1.98,0 -3.96,0 -6,0 -0.33,-3.96 -0.66,-7.92 -1,-12 -0.639375,0.99 -1.27875,1.98 -1.9375,3 C 11.041563,18.485 11.041563,18.485 10,20 9.67,20 9.34,20 9,20 8.34,16.7 7.68,13.4 7,10 6.9020312,10.808242 6.8040625,11.616484 6.703125,12.449219 5.1187887,23.77176 5.1187887,23.77176 1,27 c -3.5625,1 -3.5625,1 -7,1 -2,-1.1875 -2,-1.1875 -3,-3 0.3125,-2.1875 0.3125,-2.1875 1,-4 0.99,0.33 1.98,0.66 3,1 0,1.32 0,2.64 0,4 1.9675645,-0.03123 1.9675645,-0.03123 4,-1 C 2.8718474,17.837082 1.412587,7.7692283 0,0 Z"
       fill="#0e0e0e"
       transform="translate(31,155)"
       id="path11" /><path
       d="M 0,0 C 1.8577216,0.08984301 3.7124798,0.24611861 5.5625,0.4375 7.0803711,0.59025391 7.0803711,0.59025391 8.6289063,0.74609375 9.8025977,0.87177734 9.8025977,0.87177734 11,1 11.10957,2.0596094 11.219141,3.1192188 11.332031,4.2109375 11.491475,5.5990403 11.651671,6.987057 11.8125,8.375 11.88275,9.0736719 11.953008,9.7723437 12.025391,10.492188 12.247883,12.343323 12.616625,14.175382 13,16 c 0.99,0.66 1.98,1.32 3,2 0.33,-0.66 0.66,-1.32 1,-2 -0.33,1.32 -0.66,2.64 -1,4 -0.66,0 -1.32,0 -2,0 0,1.32 0,2.64 0,4 -1.98,0 -3.96,0 -6,0 0.33,-2.31 0.66,-4.62 1,-7 -2.7896754,0 -4.515413,0.727407 -7,2 -1.66299965,2.410553 -1.66299965,2.410553 -3,5 -1.375,1.8125 -1.375,1.8125 -3,3 -2.6875,0.1875 -2.6875,0.1875 -5,0 -0.33,-0.66 -0.66,-1.32 -1,-2 0.78375,-0.2475 1.5675,-0.495 2.375,-0.75 3.0849652,-1.469031 3.3671978,-2.179002 4.625,-5.25 0.4008706,-1.488199 0.7547688,-2.98979 1.0625,-4.5 0.9175643,-4.428575 0.9175643,-4.428575 1.52734375,-6.6132813 C 0.12987825,5.4025601 -0.46846437,3.4583523 -1,1 -0.67,0.67 -0.34,0.34 0,0 Z"
       fill="#101010"
       transform="translate(117,158)"
       id="path12" /><path
       d="M 0,0 C -0.33,0.99 -0.66,1.98 -1,3 -2.32,3 -3.64,3 -5,3 -7.5446416,9.9977643 -7.9222367,17.49547 -6.4257812,24.804687 -6.2852734,25.529141 -6.1447656,26.253594 -6,27 c -1,1 -1,1 -3.25,1.4375 -3.420986,-0.544248 -4.626592,-1.99149 -6.679688,-4.703125 C -17.442438,21.283056 -18.273331,18.774555 -19,16 c -0.170156,0.770859 -0.340312,1.541719 -0.515625,2.335937 -0.242344,1.002891 -0.484687,2.005782 -0.734375,3.039063 -0.232031,0.997734 -0.464062,1.995469 -0.703125,3.023437 C -22,27 -22,27 -24.109375,28.351562 -24.733281,28.565547 -25.357187,28.779531 -26,29 c -0.33,-1.32 -0.66,-2.64 -1,-4 0.99,0 1.98,0 3,0 0.98601,-4.108374 1.133891,-7.968618 1.125,-12.1875 0.0026,-1.231055 0.0052,-2.462109 0.0078,-3.7304687 C -22.786111,6.087536 -22.786111,6.087536 -24,4 c 3.3125,0.125 3.3125,0.125 7,1 2.378265,3.4881213 3.389219,6.846691 4,11 0.33,0 0.66,0 1,0 0.09797,-0.652266 0.195937,-1.304531 0.296875,-1.976562 C -10.737582,8.3800055 -9.6505029,4.4490505 -6,0 c 2.4909281,-1.245464 3.4108073,-0.7767578 6,0 z"
       fill="#181818"
       transform="translate(100,152)"
       id="path13" /><path
       d="M 0,0 C -0.33,2.31 -0.66,4.62 -1,7 0.06541016,7.6322852 0.06541016,7.6322852 1.1523437,8.2773438 2.0714453,8.8251953 2.9905469,9.3730469 3.9375,9.9375 4.8540234,10.482773 5.7705469,11.028047 6.7148437,11.589844 9,13 9,13 10,14 c 0.470948,6.357798 0.470948,6.357798 -1.375,8.875 -2.8084506,1.944312 -4.618549,2.284415 -8,2.3125 -0.77085937,0.01418 -1.54171875,0.02836 -2.3359375,0.04297 C -4.2689468,24.972922 -5.8473319,24.395424 -8,23 c -0.875,-2.5 -0.875,-2.5 -1,-5 0.66,-0.66 1.32,-1.32 2,-2 0.99,0 1.98,0 3,0 0,0.99 0,1.98 0,3 -0.66,0 -1.32,0 -2,0 -0.33,0.66 -0.66,1.32 -1,2 1.4573609,0.194915 2.9159459,0.380694 4.375,0.5625 0.8121094,0.104414 1.6242188,0.208828 2.4609375,0.316406 C 2.0489919,22.182373 2.0489919,22.182373 4,21 4,19.68 4,18.36 4,17 3.3129297,16.746055 2.6258594,16.492109 1.9179687,16.230469 1.0169141,15.886289 0.11585938,15.542109 -0.8125,15.1875 -1.7058203,14.851055 -2.5991406,14.514609 -3.5195313,14.167969 -5.9597066,13.018973 -7.3539572,12.116341 -9,10 -9.5462416,6.3323779 -9.478983,4.6741242 -7.3125,1.625 -4.6120976,-0.27258004 -3.2293992,-0.35882213 0,0 Z"
       fill="#0e0e0e"
       transform="translate(217,159)"
       id="path14" /><path
       d="m 0,0 c 3.96,0.33 7.92,0.66 12,1 0.99,3.3 1.98,6.6 3,10 C 13.68,10.34 12.36,9.68 11,9 10.25,6.375 10.25,6.375 10,4 9.34,4 8.68,4 8,4 8.1637109,4.8482031 8.3274219,5.6964062 8.4960938,6.5703125 9.0094845,10.064553 9.0985074,13.346276 9.0625,16.875 9.0534766,18.027422 9.0444531,19.179844 9.0351563,20.367187 9.0235547,21.236016 9.0119531,22.104844 9,23 c 0.99,0 1.98,0 3,0 0,0.66 0,1.32 0,2 C 8.04,25 4.08,25 0,25 0.99,24.01 1.98,23.02 3,22 3.5460328,18.712165 3.5460328,18.712165 3.625,15.0625 3.9639144,7.3885094 3.9639144,7.3885094 5,4 4.01,4 3.02,4 2,4 1.67,5.65 1.34,7.3 1,9 0.01,9.33 -0.98,9.66 -2,10 -1.34,6.7 -0.68,3.4 0,0 Z"
       fill="#0a0a0a"
       transform="translate(168,158)"
       id="path15" /><path
       d="m 0,0 c 3.96,0.33 7.92,0.66 12,1 2,5 2,5 2,9 -0.66,0 -1.32,0 -2,0 C 11.71125,9.195625 11.4225,8.39125 11.125,7.5625 10.267374,4.8673532 10.267374,4.8673532 8,4 c 0.4486422,2.7935457 0.9084123,5.5844467 1.375,8.375 0.1263281,0.794063 0.2526562,1.588125 0.3828125,2.40625 0.1289063,0.760547 0.2578125,1.521094 0.3906255,2.304687 0.115209,0.701734 0.230419,1.403467 0.349121,2.126465 C 10.908722,21.234985 10.908722,21.234985 13,23 9.04,23 5.08,23 1,23 1.33,22.34 1.66,21.68 2,21 2.66,21 3.32,21 4,21 3.9883984,20.11957 3.9767969,19.239141 3.9648438,18.332031 3.9558203,17.170586 3.9467969,16.009141 3.9375,14.8125 3.9258984,13.663945 3.9142969,12.515391 3.9023438,11.332031 3.9880717,8.4069941 4.3215098,5.8368371 5,3 4.34,3 3.68,3 3,3 2.731875,3.969375 2.46375,4.93875 2.1875,5.9375 1.795625,6.948125 1.40375,7.95875 1,9 0.01,9.33 -0.98,9.66 -2,10 -1.34,6.7 -0.68,3.4 0,0 Z"
       fill="#121212"
       transform="translate(97,157)"
       id="path16" /><path
       d="m 0,0 c 0.721875,0.268125 1.44375,0.53625 2.1875,0.8125 0,0.66 0,1.32 0,2 -1.32,0 -2.64,0 -4,0 0.33,0.99 0.66,1.98 1,3 0.66,0.33 1.32,0.66 2,1 0,-0.66 0,-1.32 0,-2 -0.66,-0.33 -1.32,-0.66 -2,-1 0.99,0 1.98,0 3,0 2.1871903,3.2807855 2.2179193,3.8059005 1.75,7.5 C 3.8060156,12.472656 3.8060156,12.472656 3.671875,13.65625 3.1875,15.8125 3.1875,15.8125 1.1875,18.8125 -4.2318548,18.45121 -4.2318548,18.45121 -6.6875,15.75 -8.1370982,11.964938 -8.6725611,8.8073632 -7.8125,4.8125 -4.1761364,-0.27840909 -4.1761364,-0.27840909 0,0 Z"
       fill="#efefef"
       transform="translate(64.8125,159.1875)"
       id="path17"
       style="fill:#f7bf01;fill-opacity:1" /><path
       d="M 0,0 C 6.4615385,0.46153846 6.4615385,0.46153846 9,3 9.5707911,6.0582384 9.5167791,8.9362384 9,12 6.8125,15.125 6.8125,15.125 4,17 1.3125,17.125 1.3125,17.125 -1,16 -3.6341494,12.16851 -2.9870597,8.386772 -2.484375,3.9882813 -2,2 -2,2 0,0 Z"
       fill="#f4f4f4"
       transform="translate(192,163)"
       id="path18"
       style="fill:#f7bf01;fill-opacity:1" /><path
       d="M 0,0 C 3.63,0 7.26,0 11,0 10.67,0.66 10.34,1.32 10,2 9.34,2 8.68,2 8,2 c 0,5.94 0,11.88 0,18 1.32,0.33 2.64,0.66 4,1 0,0.33 0,0.66 0,1 -4.29,0 -8.58,0 -13,0 0.33,-0.66 0.66,-1.32 1,-2 0.99,0 1.98,0 3,0 C 3,14.06 3,8.12 3,2 2.01,1.67 1.02,1.34 0,1 0,0.67 0,0.34 0,0 Z"
       fill="#0b0b0b"
       transform="translate(154,160)"
       id="path19" /><path
       d="M 0,0 C 1.9836207,2.9170892 1.9876191,4.123809 1.625,7.75 1.41875,8.8225 1.2125,9.895 1,11 1.99,11 2.98,11 4,11 3.67,11.99 3.34,12.98 3,14 2.38125,14.12375 1.7625,14.2475 1.125,14.375 -1.9842474,15.289485 -2.4845842,17.232719 -4,20 c -1.375,1.8125 -1.375,1.8125 -3,3 -2.6875,0.1875 -2.6875,0.1875 -5,0 -0.33,-0.66 -0.66,-1.32 -1,-2 0.78375,-0.2475 1.5675,-0.495 2.375,-0.75 C -7.5452619,18.783458 -7.2457908,18.070765 -6,15 -5.6678962,13.550341 -5.376999,12.090709 -5.125,10.625 -4.229888,6.2577195 -2.7044578,3.5157952 0,0 Z"
       fill="#101010"
       transform="translate(120,162)"
       id="path20" /><path
       d="M 0,0 C 4,1 4,1 5.75,2.625 7.9033116,6.716292 7.3615846,10.487919 6.3125,14.875 5.6628125,15.926875 5.6628125,15.926875 5,17 3.35,17.33 1.7,17.66 0,18 0,12.06 0,6.12 0,0 Z"
       fill="#e4e4e4"
       transform="translate(141,161)"
       id="path21"
       style="fill:#f7bf01;fill-opacity:1" /><path
       d="M 0,0 C 1.4386129,0.08746284 2.8759751,0.19565348 4.3125,0.3125 5.1130078,0.37050781 5.9135156,0.42851562 6.7382812,0.48828125 9.4005779,1.0906316 10.393811,1.8145293 12,4 11.578947,8.4210526 11.578947,8.4210526 10,10 6.5625,10.1875 6.5625,10.1875 3,10 2.34,9.34 1.68,8.68 1,8 1.3269756,5.3841952 1.8203907,3.3592186 3,1 2.01,0.67 1.02,0.34 0,0 Z"
       fill="#3b3b3b"
       transform="translate(214,158)"
       id="path22" /><path
       d="M 0,0 C 0.99,0 1.98,0 3,0 3.3146488,5.2441472 2.8385673,8.5393942 0,13 -2.2403098,15.24031 -3.4252941,15.915897 -6.5625,16.375 -9,16 -9,16 -10.875,14.75 -12,13 -12,13 -11.6875,10.8125 -11.347188,9.9153125 -11.347188,9.9153125 -11,9 c 0.99,0.33 1.98,0.66 3,1 0,1.32 0,2.64 0,4 1.9717065,-0.120514 1.9717065,-0.120514 4,-1 1.1092987,-2.211282 1.1092987,-2.211282 1.6875,-4.875 C -1.9663867,6.7985547 -1.9663867,6.7985547 -1.6132812,5.4453125 -1.4108984,4.6383594 -1.2085156,3.8314063 -1,3 -0.67,2.01 -0.34,1.02 0,0 Z"
       fill="#080808"
       transform="translate(34,167)"
       id="path23" /><path
       d="M 0,0 C 2,2 2,2 2.25,5.5 2,9 2,9 0,11 -0.99,11 -1.98,11 -3,11 -3.6875,9.375 -3.6875,9.375 -4,7 -1.7241379,1.7241379 -1.7241379,1.7241379 0,0 Z"
       fill="#cbcbcb"
       transform="translate(124,162)"
       id="path28"
       style="fill:#f7bf01;fill-opacity:1" /><path
       d="m 0,0 c 1.4540625,0.0309375 1.4540625,0.0309375 2.9375,0.0625 0.33,1.65 0.66,3.3 1,5 -2.4906489,0.6870756 -4.37886292,1 -7,1 -0.3821877,-1.6561466 -0.713951,-3.3245702 -1,-5 1,-1 1,-1 4.0625,-1.0625 z"
       fill="#f4f4f4"
       transform="translate(219.0625,160.9375)"
       id="path29"
       style="fill:#f7bf01;fill-opacity:1" /><path
       d="M 0,0 C 0.99,0 1.98,0 3,0 3.99,3.3 4.98,6.6 6,10 4.68,9.34 3.36,8.68 2,8 1.375,5.4375 1.375,5.4375 1,3 0.34,2.67 -0.32,2.34 -1,2 -0.67,1.34 -0.34,0.68 0,0 Z"
       fill="#151515"
       transform="translate(177,159)"
       id="path35" /></g></svg>
