<?xml version="1.0" encoding="UTF-8" standalone="no"?>
<svg
   viewBox="0 0 18.040001 21.999998"
   width="18.040001pt"
   height="21.999998pt"
   version="1.1"
   id="svg1"
   xmlns="http://www.w3.org/2000/svg"
   xmlns:svg="http://www.w3.org/2000/svg">
  <defs
     id="defs1" />
  <path
     d="M 15.239,15.551 C 16.916,13.836 18.04,11.588 18.04,9.02 18.04,4.042 13.998,0 9.02,0 4.042,0 -1.9073487e-8,4.042 -1.9073487e-8,9.02 -1.9073487e-8,11.62 1.027,13.787 2.864,15.61 v 0 L 8.653,22 15.25,15.551 Z"
     fill="#FF69B4"
     id="path1"
     style="fill:#6f8ab0;fill-opacity:1" />
  <path
     style="fill:#f9f9f9;stroke-width:0.0497132"
     id="path5342"
     d="M 4.4616328,5.0407027 H 4.8941376 V 8.2621255 H 4.4318047 V 5.7565749 L 3.4375394,7.004378 H 3.3530186 L 2.3537809,5.7565749 V 8.2621255 H 1.891448 V 5.0407027 H 2.3289251 L 3.3977607,6.3630788 M 7.633331,5.4334378 c -0.367877,0 -0.6711278,0.1143402 -0.9097508,0.3430243 -0.2386251,0.2336523 -0.3529653,0.526959 -0.3529653,0.8848953 0,0.3479929 0.1193184,0.6363309 0.3579353,0.8650112 0.238624,0.2286803 0.5369038,0.3430219 0.8948398,0.3430219 0.357936,0 0.661186,-0.1143431 0.89981,-0.3529651 C 8.761823,7.2827728 8.881136,6.9894668 8.881136,6.6365019 8.881136,6.2984493 8.761818,6.0101144 8.5232,5.7764621 8.279606,5.5527499 7.986297,5.4334378 7.633331,5.4334378 M 7.618421,4.9959636 c 0.497132,0 0.914725,0.154111 1.242833,0.472273 0.328108,0.3131938 0.497132,0.7109007 0.497132,1.1831771 0,0.4772491 -0.164053,0.869984 -0.502105,1.1782055 C 8.518232,8.1378407 8.100639,8.2969245 7.593564,8.2969245 7.106374,8.2969245 6.7036962,8.142813 6.3805606,7.8296192 6.0574226,7.5213977 5.8933694,7.1286628 5.8933694,6.6613574 c 0,-0.4822201 0.1640532,-0.879927 0.4871902,-1.1931208 C 6.7086672,5.1500746 7.121287,4.9959636 7.61842,4.9959636 M 11.242519,6.9099248 10.894526,6.6961562 C 10.675787,6.5619326 10.516705,6.4277049 10.42722,6.2984493 10.33276,6.1691966 10.28803,6.0200545 10.28803,5.8510316 c 0,-0.2535393 0.08948,-0.4573645 0.263481,-0.6164473 0.173997,-0.1590794 0.407649,-0.2386207 0.686044,-0.2386207 0.268452,0 0.517018,0.07457 0.740728,0.2286806 V 5.7466315 C 11.74463,5.5229226 11.496065,5.4135541 11.227612,5.4135541 c -0.149139,0 -0.273423,0.034799 -0.37285,0.1043969 -0.09446,0.069598 -0.144166,0.1590828 -0.144166,0.2684513 0,0.094457 0.0348,0.1889133 0.104393,0.2684514 0.06959,0.084513 0.18891,0.173998 0.343022,0.2634828 l 0.352964,0.2087936 c 0.392734,0.2336523 0.591588,0.5319347 0.591588,0.8948415 0,0.2585085 -0.08451,0.4673053 -0.258508,0.631357 -0.173997,0.1640547 -0.397708,0.2435959 -0.676102,0.2435959 -0.318165,0 -0.606502,-0.099432 -0.869982,-0.2933074 V 7.4170008 c 0.248566,0.3131938 0.536903,0.4722761 0.865011,0.4722761 0.144165,0 0.26348,-0.039773 0.357936,-0.1193183 0.09446,-0.079546 0.144165,-0.1789702 0.144165,-0.3032536 0,-0.1938813 -0.139205,-0.3778194 -0.422563,-0.5567865 m 2.91817,0 -0.347993,-0.2137686 C 13.593959,6.5619263 13.434877,6.4276986 13.345392,6.298443 c -0.08948,-0.1292527 -0.13919,-0.2783948 -0.13919,-0.4474177 0,-0.2535393 0.08948,-0.4573645 0.263481,-0.6164473 0.173996,-0.1590794 0.407649,-0.2386207 0.686044,-0.2386207 0.268451,0 0.517018,0.07457 0.740727,0.2286806 V 5.746631 c -0.233652,-0.2237088 -0.482219,-0.3330774 -0.75067,-0.3330774 -0.14914,0 -0.273423,0.034799 -0.372851,0.104397 -0.09446,0.069598 -0.144165,0.1590827 -0.144165,0.2684513 0,0.094457 0.0348,0.1889132 0.104393,0.2684513 0.06959,0.084513 0.18891,0.173998 0.343022,0.2634828 l 0.352963,0.2087936 c 0.392735,0.2336524 0.591589,0.5319337 0.591589,0.894842 0,0.2585085 -0.08452,0.4673053 -0.25851,0.6313556 -0.173996,0.1590838 -0.397706,0.2435958 -0.676101,0.2435958 -0.318164,0 -0.606501,-0.099417 -0.869982,-0.2933059 V 7.4170008 c 0.248567,0.3131938 0.536904,0.4722761 0.865011,0.4722761 0.144166,0 0.263481,-0.039773 0.357936,-0.1193183 0.09446,-0.079546 0.144166,-0.1789702 0.144166,-0.3032536 0,-0.1938813 -0.139205,-0.3778194 -0.422563,-0.5567865" />
  <path
     d="M 2.7966077,10.770329 H 2.3509029 v 1.050226 H 2.817101 c 0.2612755,0 0.4354582,-0.02049 0.5276736,-0.06148 0.092212,-0.04099 0.1639375,-0.102452 0.2254145,-0.189552 0.056353,-0.0871 0.081973,-0.174184 0.081973,-0.276645 0,-0.102466 -0.030733,-0.194674 -0.087085,-0.276643 -0.06148,-0.08197 -0.1434533,-0.143453 -0.2510304,-0.184432 -0.1075786,-0.04099 -0.2817673,-0.06148 -0.5174284,-0.06148 M 2.7607583,9.351236 H 2.3509149 v 0.998995 h 0.3176284 c 0.2561529,0 0.4354597,-0.05123 0.5379203,-0.143439 C 3.3140422,10.109452 3.3652785,9.986499 3.3652785,9.827684 3.3704085,9.510056 3.1654799,9.351241 2.7607587,9.351241 m 0.2407837,2.894525 H 1.8795942 V 8.926035 h 0.8709194 c 0.2715206,0 0.4866899,0.03586 0.6403808,0.112706 0.1536924,0.07172 0.2715222,0.174181 0.3483668,0.302258 0.081973,0.128072 0.12296,0.276644 0.12296,0.450829 0,0.327876 -0.1690601,0.558413 -0.5071818,0.70186 0.2407837,0.0461 0.4354597,0.143439 0.5789054,0.297135 0.1434381,0.153691 0.2151678,0.338124 0.2151678,0.548169 0,0.169058 -0.046114,0.317628 -0.128072,0.45595 -0.087085,0.133199 -0.2151678,0.240782 -0.3842294,0.322751 -0.1690601,0.08197 -0.3842294,0.128072 -0.6352582,0.128072 M 5.9626779,9.330746 H 5.8243518 v 1.045102 h 0.1793067 c 0.2407837,0 0.4047212,-0.02049 0.4969367,-0.06148 0.0871,-0.04099 0.158815,-0.102467 0.210045,-0.184428 0.05123,-0.08197 0.07685,-0.174185 0.07685,-0.281767 0,-0.102467 -0.03073,-0.199803 -0.08197,-0.281769 C 6.6491702,9.479304 6.5723212,9.422951 6.4698592,9.387096 6.3622805,9.346106 6.198337,9.330746 5.9626774,9.330746 M 5.347904,12.245768 V 8.9260275 h 0.8299342 c 0.3329991,0 0.60452,0.081974 0.799196,0.2510305 C 7.171711,9.34612 7.274172,9.571533 7.274172,9.8533 c 0,0.194679 -0.05123,0.358614 -0.143438,0.502061 -0.09734,0.138326 -0.2356608,0.245906 -0.4149678,0.317628 0.107578,0.07172 0.210045,0.163939 0.3125068,0.286892 0.102467,0.117832 0.245906,0.327876 0.430336,0.630135 0.117833,0.189555 0.210044,0.327875 0.276644,0.425215 L 7.909437,12.25089 H 7.340779 L 7.197326,12.030598 c -0.0051,-0.01025 -0.01537,-0.02049 -0.03073,-0.04099 L 7.074381,11.86154 6.9258162,11.620756 6.7670012,11.359479 C 6.6696612,11.22628 6.5825712,11.113573 6.4954786,11.036727 6.4135053,10.954753 6.3417878,10.898401 6.2751882,10.862541 6.2085812,10.826681 6.1010041,10.806188 5.9421891,10.806188 H 5.8243563 v 1.444701 H 5.3479115 Z m 4.938623,-2.915019 c -0.379107,0 -0.691613,0.117833 -0.937519,0.353494 -0.245906,0.240782 -0.363736,0.543041 -0.363736,0.911901 0,0.358614 0.12296,0.655752 0.368859,0.891413 0.245906,0.23566 0.553289,0.35349 0.922149,0.35349 0.368861,0 0.681366,-0.117833 0.927273,-0.363738 0.245906,-0.240782 0.36886,-0.543041 0.36886,-0.906779 0,-0.34837 -0.12296,-0.645505 -0.36886,-0.886287 -0.251029,-0.23054 -0.558412,-0.353494 -0.917026,-0.353494 m -0.02049,-0.4508262 c 0.512306,0 0.942643,0.1588152 1.280763,0.4866872 0.338123,0.322753 0.512306,0.732598 0.512306,1.219288 0,0.491814 -0.16906,0.896535 -0.517427,1.214163 -0.343246,0.31763 -0.778706,0.481568 -1.301257,0.481568 -0.502059,0 -0.917027,-0.158815 -1.250024,-0.481568 -0.333,-0.322752 -0.50206,-0.722349 -0.50206,-1.203917 0,-0.496936 0.16906,-0.906781 0.50206,-1.229534 0.338121,-0.327872 0.763334,-0.4866872 1.275639,-0.4866872 m 3.770569,1.9723762 -0.358614,-0.220294 c -0.225416,-0.138326 -0.389353,-0.276644 -0.481569,-0.409845 -0.09734,-0.133199 -0.143438,-0.286891 -0.143438,-0.461072 0,-0.261277 0.09221,-0.471324 0.271521,-0.635262 0.179306,-0.1639344 0.42009,-0.2459032 0.706983,-0.2459032 0.276643,0 0.532796,0.076846 0.763333,0.2356602 V 9.653501 C 14.55404,9.422964 14.297886,9.310259 14.021241,9.310259 c -0.153691,0 -0.281767,0.03586 -0.384226,0.107578 -0.09734,0.07172 -0.148566,0.163938 -0.148566,0.276645 0,0.09734 0.03586,0.194679 0.112706,0.276643 0.07172,0.0871 0.194679,0.17931 0.353494,0.271525 l 0.363736,0.215167 c 0.404723,0.240782 0.609644,0.548168 0.609644,0.922152 0,0.266397 -0.0871,0.481566 -0.266401,0.650625 -0.179304,0.169062 -0.409846,0.25103 -0.696735,0.25103 -0.327872,0 -0.625011,-0.102451 -0.896534,-0.302259 v -0.60452 c 0.256153,0.322753 0.553291,0.48669 0.891413,0.48669 0.148565,0 0.27152,-0.04099 0.368857,-0.12296 0.09734,-0.08197 0.148565,-0.184432 0.148565,-0.312508 -0.0051,-0.199799 -0.148565,-0.389351 -0.440582,-0.57378 m 1.910897,0.865795 c 0.08197,0 0.148565,0.03075 0.210045,0.08197 0.05635,0.05635 0.0871,0.122945 0.0871,0.204922 0,0.07685 -0.03075,0.143438 -0.08197,0.1998 -0.05635,0.05635 -0.12296,0.08197 -0.210046,0.08197 -0.08197,0 -0.148566,-0.02562 -0.204923,-0.08197 -0.05635,-0.05635 -0.08197,-0.117833 -0.08197,-0.1998 0,-0.08197 0.03075,-0.148566 0.08197,-0.204922 0.05123,-0.05635 0.117833,-0.08197 0.1998,-0.08197"
     style="fill:#f9f9f9;stroke-width:0.0512304"
     id="path1-6" />
</svg>
