<?xml version="1.0" encoding="UTF-8" standalone="no"?>
<svg
   viewBox="0 0 25.384331 30.575188"
   width="25.384331pt"
   height="30.575188pt"
   version="1.1"
   id="svg133"
   sodipodi:docname="pink_master_pin_2_layers_foreground.svg"
   xml:space="preserve"
   xmlns:inkscape="http://www.inkscape.org/namespaces/inkscape"
   xmlns:sodipodi="http://sodipodi.sourceforge.net/DTD/sodipodi-0.dtd"
   xmlns="http://www.w3.org/2000/svg"
   xmlns:svg="http://www.w3.org/2000/svg"><sodipodi:namedview
     id="namedview1"
     pagecolor="#ffffff"
     bordercolor="#000000"
     borderopacity="0.25"
     inkscape:showpageshadow="2"
     inkscape:pageopacity="0.0"
     inkscape:pagecheckerboard="0"
     inkscape:deskcolor="#d1d1d1"
     inkscape:document-units="pt"><inkscape:page
       x="0"
       y="0"
       width="25.384331"
       height="30.575188"
       id="page2"
       margin="0"
       bleed="0" /></sodipodi:namedview><defs
     id="defs137" /><path
     style="fill:#ffffff;fill-opacity:1;stroke-width:3.8402"
     id="path2106"
     d="M 22.679787,12.35478 A 10.000001,10.000002 0 0 1 12.699319,22.354761 10.000001,10.000002 0 0 1 2.6798636,12.393848 10.000001,10.000002 0 0 1 12.621185,2.354951 10.000001,10.000002 0 0 1 22.679482,12.276645" /><g
     id="g1"
     transform="matrix(0.06731377,0,0,0.06391472,5.2255073,5.5013962)"><path
       d="m 0,0 c 29.242506,13.699819 40.128016,44.318957 50.433594,72.65625 1.89982,5.259218 3.778165,10.525851 5.640136,15.798584 C 56.997361,90.992748 57.983457,93.498023 59,96 c 1.65,0 3.3,0 5,0 6.741601,-17.584343 13.058927,-35.311216 19.326172,-53.069092 1.597715,-4.524471 3.206999,-9.044645 4.826904,-13.561218 0.538943,-1.50796 1.074043,-3.017303 1.604004,-4.528442 0.647108,-1.843263 1.311478,-3.680442 1.977295,-5.517029 0.521587,-1.462401 0.521587,-1.462401 1.053711,-2.954346 C 94.205058,13.599014 95.360726,12.620179 98,11 c 2.37248,-0.367493 2.37248,-0.367493 5.02808,-0.356445 0.9975,-0.003 1.99501,-0.006 3.02275,-0.0091 1.60486,0.01852 1.60486,0.01852 3.24214,0.03741 1.10177,0.0019 2.20354,0.0037 3.3387,0.0057 2.32585,0.0067 4.65169,0.02063 6.97746,0.0412 3.57506,0.03122 7.14967,0.04098 10.72485,0.04687 2.25717,0.0092 4.51433,0.01954 6.77149,0.03125 1.61397,0.0064 1.61397,0.0064 3.26054,0.01288 0.98805,0.0096 1.97611,0.01922 2.9941,0.02911 1.31094,0.01024 1.31094,0.01024 2.64836,0.02069 C 148,11 148,11 149,12 c 0.5227,5.284822 0.5227,5.284822 -1.49857,8.0504 -0.64129,0.672936 -1.28259,1.345872 -1.94332,2.0392 -5.76158,7.810751 -4.56502,17.19203 -4.4878,26.476806 -0.005,2.004396 -0.0115,4.008787 -0.0203,6.013169 -0.0103,4.187 0.005,8.372951 0.0374,12.559829 0.0399,5.349101 0.0169,10.695745 -0.025,16.044755 -0.0254,4.134442 -0.0172,8.268308 8.9e-4,12.402768 0.005,1.971445 -9.8e-4,3.942944 -0.0174,5.914323 -0.52412,12.20704 -0.52412,12.20704 4.51218,22.83835 0.64129,0.56972 1.28259,1.13944 1.94332,1.72642 C 149,128 149,128 149,135 c -13.53,0 -27.06,0 -41,0 0,-7.65705 0,-7.65705 3.45508,-11.40796 5.10692,-6.83702 4.44738,-13.93789 4.26367,-22.0647 -0.0105,-1.575129 -0.0181,-3.150284 -0.0228,-4.725445 -0.0209,-4.115174 -0.0847,-8.228608 -0.15698,-12.343155 -0.0521,-3.374258 -0.0739,-6.7484 -0.0941,-10.122979 -0.0421,-6.954696 -0.10315,-13.909487 -0.22021,-20.863349 -0.0189,-1.228925 -0.0378,-2.457849 -0.0572,-3.724014 C 115.31018,47.089235 115.31018,47.089235 114,46 c -2.33297,-0.04093 -4.66705,-0.04242 -7,0 -3.48361,8.111211 -6.59852,16.286445 -9.46875,24.632812 -0.826657,2.37636 -1.653485,4.752661 -2.480469,7.128907 -1.279386,3.689725 -2.55661,7.380173 -3.830566,11.071777 -1.244604,3.601845 -2.497554,7.200703 -3.751465,10.799316 -0.37411,1.091928 -0.74822,2.183858 -1.133667,3.308868 -6.181826,17.69602 -6.181826,17.69602 -10.31691,20.31217 -4.678198,1.72961 -10.032506,1.11579 -14.955673,1.12115 -1.180137,0.0245 -2.360273,0.049 -3.576172,0.0742 -1.70833,0.006 -1.70833,0.006 -3.451172,0.0117 -1.556422,0.0123 -1.556422,0.0123 -3.144287,0.0249 C 46.974015,123.82757 45.674598,122.98533 43,120 c -1.785577,-3.65156 -3.08478,-7.43879 -4.398438,-11.28125 -0.398048,-1.1233 -0.796096,-2.24659 -1.206207,-3.40393 C 36.12363,101.71493 34.874059,98.107804 33.625,94.5 32.793117,92.133604 31.959798,89.767713 31.125,87.402344 28.011928,78.563572 24.937806,69.711428 21.874023,60.855469 21.548968,59.919086 21.223913,58.982703 20.889008,58.017944 20.285637,56.279357 19.684769,54.539899 19.086823,52.799438 18.041158,49.117055 18.041158,49.117055 16,46 c -3.5,-0.166667 -3.5,-0.166667 -7,0 -1.8639594,1.863959 -1.186304,4.980753 -1.2246094,7.472412 -0.01139,0.676587 -0.02278,1.353173 -0.034515,2.050263 -0.1110748,7.112059 -0.1581728,14.225176 -0.2008361,21.337921 -0.022199,3.369013 -0.063843,6.736906 -0.1230469,10.105468 -0.071448,4.073211 -0.1078392,8.145374 -0.1200714,12.21918 -0.010347,1.546496 -0.032645,3.092966 -0.067596,4.639106 -0.1869176,8.72644 0.021202,15.1056 6.2646948,21.88367 C 15,128 15,128 15,135 c -13.2,0 -26.4,0 -40,0 0,-8.87464 0,-8.87464 2.957428,-11.89246 3.740323,-4.5242 3.86584,-8.10381 3.723724,-13.82824 8.77e-4,-0.93751 0.0018,-1.87503 0.0027,-2.84095 -0.0042,-3.07407 -0.0507,-6.14591 -0.09787,-9.2196 -0.0112,-2.140898 -0.01974,-4.281811 -0.02573,-6.422729 -0.02283,-5.616201 -0.08171,-11.23146 -0.148224,-16.847291 -0.06154,-5.737989 -0.08882,-11.476131 -0.119018,-17.214355 C -18.771248,45.489171 -18.873562,34.244664 -19,23 c -0.967844,-0.05261 -1.935688,-0.10522 -2.932861,-0.159424 -1.266101,-0.07758 -2.532202,-0.155171 -3.83667,-0.235107 -1.884892,-0.109853 -1.884892,-0.109853 -3.807862,-0.221924 C -34.074987,21.879535 -35.82414,21.17586 -39,18 c -3.096603,-4.295288 -3.424284,-7.73516 -2.644531,-12.8164063 1.228909,-4.1633947 3.723839,-6.9147995 7.359375,-9.3164062 C -23.515426,-8.219787 -10.120802,-4.2985767 0,0 Z"
       fill="#e31f2b"
       transform="translate(59,24)"
       id="path2" /><path
       d="m 0,0 c 0.763125,0.165 1.52625,0.33 2.3125,0.5 1.65,0 3.3,0 5,0 0,8.25 0,16.5 0,25 -2.97,0 -5.94,0 -9,0 -0.66,0.33 -1.32,0.66 -2,1 -3.850199,0.437523 -5.7263638,0.144866 -9.1875,-1.6875 -3.602514,-2.962067 -5.455521,-4.944539 -6.164062,-9.644531 C -19.291108,10.743912 -19.24142,7.524571 -16.375,4 -11.110776,-0.89695256 -6.8285476,-1.2704275 0,0 Z"
       fill="#e32531"
       transform="translate(206.6875,179.5)"
       id="path3" /><path
       d="m 0,0 c 1.0242004,0.06840088 1.0242004,0.06840088 2.0690918,0.13818359 1.2903113,0.10562256 1.2903113,0.10562256 2.6066894,0.21337891 4.1146876,0.309375 4.1146876,0.309375 8.3124998,0.625 0,8.25 0,16.4999995 0,24.9999995 -2.64,0 -5.2799998,0 -7.9999998,0 -1.5463926,0.218875 -3.0898798,0.462525 -4.62499995,0.75 -3.45800055,0.405421 -4.39190345,0.242488 -7.74999995,-1.25 -3.6646373,-3.49013 -5.4632353,-6.642158 -5.7539063,-11.777343 0.234091,-4.2633007 0.763361,-6.2705342 3.5039062,-9.6601565 C -4.1034218,-0.30852796 -4.1034218,-0.30852796 0,0 Z"
       fill="#e31f2c"
       transform="translate(145.01172,179.02344)"
       id="path4" /><path
       d="m 0,0 c 4.3604585,2.2213656 7.1327742,4.4356703 9,9 0.5807578,3.968512 0.4091349,7.05253 -1.1875,10.75 -3.3041645,4.101721 -6.0033237,6.368206 -11.25,7.25 -3.5457207,0.253687 -4.6038794,-0.02069 -7.9375,-1.6875 -4.650683,-4.09703 -6.26085,-6.860312 -6.75,-13.066406 C -17.919821,8.5592805 -16.436049,6.6859007 -14,4 -9.5243005,0.13462317 -5.755403,-1.1372952 0,0 Z"
       fill="#e3202d"
       transform="translate(72,179)"
       id="path5" /><path
       d="M 0,0 C 5.2742561,0.21527576 8.4504508,1.3048463 12.355469,4.9101562 15.672973,9.1259871 19,15.532797 19,21 c 0.66,0 1.32,0 2,0 0.12375,-0.706406 0.2475,-1.412813 0.375,-2.140625 C 22.02828,15.870617 22.944958,13.120334 24,10.25 24.525938,8.8036719 24.525938,8.8036719 25.0625,7.328125 26,5 26,5 27,4 28.852875,3.927735 30.708339,3.916188 32.5625,3.9375 33.574414,3.94652 34.586328,3.955547 35.628906,3.964844 36.411367,3.9764453 37.193828,3.9880469 38,4 c -0.33,0.99 -0.66,1.98 -1,3 -0.09183,1.4456799 -0.130666,2.8951583 -0.132813,4.34375 -0.0013,0.834023 -0.0026,1.668047 -0.0039,2.527344 0.0058,1.301308 0.0058,1.301308 0.01172,2.628906 -0.0039,0.867539 -0.0077,1.735078 -0.01172,2.628906 0.0019,1.251035 0.0019,1.251035 0.0039,2.527344 0.0017,1.141787 0.0017,1.141787 0.0034,2.306641 C 36.925829,26.203242 36.925829,26.203242 38,29 c -2.64,0 -5.28,0 -8,0 0.33,-5.94 0.66,-11.88 1,-18 -2.75486,1.37743 -2.94392,3.223899 -3.904297,6.015625 C 26.878496,17.670469 26.661289,18.325312 26.4375,19 24.112184,25.887816 24.112184,25.887816 23,27 c -1.999584,0.04081 -4.000453,0.04254 -6,0 -2.45856,-5.263228 -4.561765,-10.366913 -6,-16 -0.99,0 -1.98,0 -3,0 0.1409349,2.437874 0.2875454,4.875179 0.4375,7.3125 0.039316,0.690293 0.078633,1.380586 0.1191406,2.091797 C 8.7492742,23.471615 9.0232272,26.069682 10,29 7.36,29 4.72,29 2,29 2.33,21.41 2.66,13.82 3,6 1.68,5.67 0.36,5.34 -1,5 -0.67,3.35 -0.34,1.7 0,0 Z"
       fill="#e3202d"
       transform="translate(13,176)"
       id="path6" /><path
       d="M 0,0 C 0,1.98 0,3.96 0,6 -0.84304687,5.7544336 -0.84304687,5.7544336 -1.703125,5.5039062 -4.1305906,4.97135 -6.2688968,4.9010132 -8.75,4.9375 -9.9488281,4.9510352 -9.9488281,4.9510352 -11.171875,4.9648437 -12.076797,4.9822461 -12.076797,4.9822461 -13,5 c 0.33,1.32 0.66,2.64 1,4 0.759258,0.1817578 1.518516,0.3635156 2.3007812,0.5507813 0.9938672,0.2513671 1.9877344,0.5027347 3.0117188,0.7617187 0.9861328,0.243633 1.9722656,0.487266 2.9882812,0.738281 C -0.96082366,12.013777 0.33473535,12.644677 2,15 1.931773,18.820698 1.8856724,21.114328 -0.875,23.875 -6.0807845,26.631004 -10.833124,26.630364 -16.4375,25 -17.283125,24.67 -18.12875,24.34 -19,24 c 0,-1.98 0,-3.96 0,-6 0.639375,0.33 1.27875,0.66 1.9375,1 4.074868,1.330569 7.8144043,1.166592 12.0625,1 0.33,-1.32 0.66,-2.64 1,-4 C -4.9036328,15.829844 -5.8072656,15.659688 -6.7382812,15.484375 -7.9177734,15.242031 -9.0972656,14.999688 -10.3125,14.75 -12.070137,14.401953 -12.070137,14.401953 -13.863281,14.046875 -17.290061,12.903193 -18.352101,12.164918 -20,9 -20,5.2102149 -19.447084,3.5309126 -17,0.625 -11.6651,-2.2647377 -5.7648498,-1.4877032 0,0 Z"
       fill="#e3222f"
       transform="translate(104,180)"
       id="path7" /><path
       d="M 0,0 C 7.26,0 14.52,0 22,0 20.951946,5.2402682 20.226436,6.2711394 16.6875,9.9375 13.36668,13.475125 10.508593,16.855367 8,21 c 1.771198,-0.141335 3.541953,-0.288232 5.3125,-0.4375 0.986133,-0.08121 1.972266,-0.162422 2.988281,-0.246094 C 19.093756,20.081874 19.093756,20.081874 22,19 c 0,1.98 0,3.96 0,6 C 15.07,25 8.14,25 1,25 1,19.300988 1.4803286,18.911213 5.25,15.0625 8.6089784,11.523671 11.477905,8.1669389 14,4 12.228802,4.141335 10.458047,4.2882321 8.6875,4.4375 7.7013672,4.5187109 6.7152344,4.5999219 5.6992187,4.6835937 2.906244,4.9181256 2.906244,4.9181256 0,6 0,4.02 0,2.04 0,0 Z"
       fill="#e21826"
       transform="translate(163,180)"
       id="path8" /><path
       d="M 0,0 C 2.4382665,2.1269984 3.6616743,3.2072381 5,6 5.1490515,10.322493 4.6794601,12.200635 1.875,15.5 -1.9161301,17.477981 -3.9279797,17.131117 -8,16 -10.111303,14.389518 -10.891538,13.490793 -11.46875,10.878906 -11.552562,4.666325 -11.552562,4.666325 -8.875,1.4375 -5.445712,-0.27714397 -3.7717377,-0.78577869 0,0 Z"
       fill="#fdf6f7"
       transform="translate(71,184)"
       id="path9" /><path
       d="m 0,0 c 7.59,0 15.18,0 23,0 0,1.98 0,3.96 0,6 -2.97,-0.66 -5.94,-1.32 -9,-2 0.33,6.93 0.66,13.86 1,21 -2.64,0 -5.28,0 -8,0 0.33,-0.99 0.66,-1.98 1,-3 0.1449212,-1.406649 0.2462893,-2.818113 0.3164063,-4.230469 0.041894,-0.802441 0.083789,-1.604883 0.1269531,-2.43164 C 8.4826758,14.504512 8.5219922,13.671133 8.5625,12.8125 8.6056836,11.96752 8.6488672,11.122539 8.6933594,10.251953 8.7993152,8.1681557 8.9001502,6.084099 9,4 6.03,4.66 3.06,5.32 0,6 0,4.02 0,2.04 0,0 Z"
       fill="#e21725"
       transform="translate(108,180)"
       id="path10" /><path
       d="m 0,0 c 3.375,1.0625 3.375,1.0625 5.3125,2.6875 1.5215889,3.4011987 1.5799979,5.6878273 1.0625,9.375 -2.0625,3 -2.0625,3 -5,5 -3.8189454,0.06584 -5.9797181,-0.14428 -8.9375,-2.625 C -9.0840889,11.036301 -9.1424979,8.7496727 -8.625,5.0625 -5.9459047,1.1656341 -4.7824172,0.08245547 0,0 Z"
       fill="#fdf7f8"
       transform="translate(146.625,183.9375)"
       id="path11" /><path
       d="m 0,0 c 2.9375,0.5625 2.9375,0.5625 5.3125,2 2.4001356,3.7848292 2.4092297,7.2012226 1.625,11.5625 -1.625,2.5625 -1.625,2.5625 -4,4 -2.9375,0.625 -2.9375,0.625 -6,0 C -6.2229143,14.676904 -7.8266906,12.717966 -8.6875,8.5 -7.6226087,3.4950109 -5.0321528,0.92427297 0,0 Z"
       fill="#fdf7f8"
       transform="translate(201.0625,183.4375)"
       id="path12" /></g></svg>
