<?xml version="1.0" encoding="UTF-8" standalone="no"?>
<svg
   viewBox="0 0 24 24"
   width="24pt"
   height="24pt"
   version="1.1"
   id="svg1"
   xml:space="preserve"
   xmlns="http://www.w3.org/2000/svg"
   xmlns:svg="http://www.w3.org/2000/svg"><defs
     id="defs1" /><g
     id="g1"
     transform="matrix(0.07972489,0,0,0.07972489,3.0307906,1.6165785)"><path
       d="m 108.132,33.25 0.131,4.25 0.619,-3.5 0.618,-3.5 2.359,3.308 c 1.298,1.819 2.589,3.078 2.869,2.797 0.281,-0.28 -0.221,-1.241 -1.116,-2.135 -0.894,-0.894 -2.088,-2.491 -2.654,-3.548 C 110.393,29.865 109.495,29 108.965,29 H 108 l 0.132,4.25 m 6.063,-1.75 0.037,3 0.461,-1.769 c 0.254,-0.973 0.237,-2.323 -0.037,-3 -0.274,-0.677 -0.481,0.119 -0.461,1.769 m 5.207,1.743 0.098,4.257 h 2.417 2.416 l 0.259,-1.275 0.258,-1.275 -0.508,1.025 C 124.062,36.539 122.997,37 121.974,37 h -1.859 l -0.406,-4.007 -0.405,-4.008 0.098,4.258 M 100,31.059 c 0,0.582 0.403,0.81 0.895,0.506 0.493,-0.305 1.168,0.156 1.5,1.023 0.931,2.425 0.76,2.686 -1.395,2.122 l -2,-0.523 v 1.233 1.234 l 3,-0.441 3,-0.44 v 1.28 c 0,0.704 0.243,1.037 0.541,0.74 C 106.262,37.072 102.051,30 100.901,30 100.406,30 100,30.477 100,31.059 M 125.158,32 c 0,1.375 0.227,1.938 0.504,1.25 0.278,-0.687 0.278,-1.812 0,-2.5 -0.277,-0.687 -0.504,-0.125 -0.504,1.25 M 92,32.5 c 0,0.825 0.414,1.5 0.921,1.5 0.506,0 1.224,1.382 1.595,3.072 0.371,1.689 0.888,2.858 1.148,2.597 C 96.388,38.945 93.801,31 92.842,31 92.379,31 92,31.675 92,32.5 m 38,-0.594 v 0.907 l 2,-0.523 c 1.1,-0.288 2,-0.696 2,-0.907 0,-0.21 -0.9,-0.383 -2,-0.383 -1.1,0 -2,0.408 -2,0.906 m -43.93,2.67 c 0.039,1.058 0.496,2.824 1.016,3.924 l 0.945,2 -0.591,-2.973 -0.59,-2.973 1.904,1.723 c 2.415,2.186 3.267,2.179 3.167,-0.027 L 91.842,34.5 91.313,35.823 90.785,37.146 88.392,34.899 86,32.651 l 0.07,1.925 m 42.568,1.7 c -0.709,2.712 -0.519,2.791 1.535,0.635 l 1.672,-1.756 -1.324,-0.508 -1.324,-0.509 -0.559,2.138 m 7.891,1.474 -2.709,3.75 3.09,-3.266 3.09,-3.266 V 36.984 39 l -1.25,0.015 -1.25,0.016 1.1,0.734 c 0.605,0.404 1.357,1.41 1.671,2.235 l 0.571,1.5 0.079,-4.75 L 141,34 h -0.881 c -0.485,0 -2.101,1.688 -3.59,3.75 m 8.671,1.45 c -1.383,1.383 -1.608,5.43 -0.344,6.211 l 0.855,0.528 -0.502,-2.626 -0.502,-2.626 1.838,-1.343 c 1.01,-0.739 1.391,-1.344 0.846,-1.344 -0.545,0 -1.531,0.54 -2.191,1.2 m 3.8,-0.807 c 0,0.216 0.698,0.661 1.552,0.989 l 1.552,0.595 -0.611,-0.988 C 150.906,38.038 149,37.583 149,38.393 M 76,43 c 1.122,2.2 2.266,4 2.541,4 0.275,0 -0.419,-1.8 -1.541,-4 -1.122,-2.2 -2.266,-4 -2.541,-4 -0.275,0 0.419,1.8 1.541,4 m 79.888,-0.672 1.388,1.71 -1.486,1.731 c -0.817,0.952 -1.812,2.406 -2.21,3.231 -0.399,0.825 0.389,0.198 1.75,-1.394 l 2.475,-2.895 1.598,0.613 c 2.382,0.915 1.957,0.316 -1.653,-2.327 l -3.25,-2.379 1.388,1.71 m -87.772,3.365 0.116,2.807 0.457,-1.75 C 68.941,45.788 69.541,45 70.024,45 c 0.482,0 1.335,0.788 1.896,1.75 0.561,0.962 1.033,1.357 1.05,0.878 0.016,-0.48 0.817,-0.255 1.78,0.5 L 76.5,49.5 75.327,48 c -0.645,-0.825 -2.558,-2.313 -4.25,-3.307 L 68,42.887 l 0.116,2.806 m 12.391,-0.704 -0.611,0.988 1.552,-0.595 C 83.18,44.717 83.497,44 82.059,44 c -0.518,0 -1.216,0.445 -1.552,0.989 m 80.812,4.265 c -3.536,3.928 -3.717,5.371 -0.254,2.028 1.833,-1.77 3.095,-3.456 2.804,-3.746 -0.29,-0.29 -1.438,0.483 -2.55,1.718 m -91.974,0.289 c -0.326,0.849 -0.369,1.767 -0.096,2.04 0.274,0.273 0.737,-0.422 1.03,-1.543 0.624,-2.383 -0.069,-2.751 -0.934,-0.497 m -5.51,1.781 c 1.201,1.278 1.879,2.628 1.507,3 C 64.971,54.696 65.501,55 66.52,55 h 1.854 L 65.5,52 c -1.581,-1.65 -3.093,-3 -3.361,-3 -0.268,0 0.495,1.046 1.696,2.324 m 100.979,2.895 c -1.478,1.53 -2.344,2.781 -1.925,2.781 0.949,0 5.608,-4.886 5.032,-5.277 -0.232,-0.157 -1.63,0.966 -3.107,2.496 M 60,55.5 c 4.331,4.468 4.858,4.468 1.293,0 -1.536,-1.925 -3.219,-3.5 -3.739,-3.5 -0.521,0 0.58,1.575 2.446,3.5 m 1.813,-1.817 c 0.721,0.289 1.584,0.253 1.916,-0.079 0.332,-0.332 -0.258,-0.568 -1.312,-0.525 l -1.917,0.079 1.313,0.525 m 105.421,4.346 c -1.796,1.634 -2.835,2.971 -2.309,2.971 0.526,0 1.24,-0.457 1.585,-1.016 l 0.628,-1.017 1.086,0.671 1.085,0.671 -0.649,-1.05 -0.649,-1.049 1.585,-0.608 c 0.871,-0.335 2.106,-0.296 2.744,0.087 l 1.16,0.695 -1.372,-1.692 c -0.755,-0.931 -1.43,-1.679 -1.5,-1.663 -0.071,0.016 -1.598,1.366 -3.394,3 M 56.311,58.604 59.122,60.128 58.811,62.314 58.5,64.5 H 56.03 53.559 L 52.294,62 51.029,59.5 51.015,61.095 C 50.997,63.027 54.097,66 56.129,66 58.118,66 60,63.985 60,61.857 c 0,-1.756 -3.563,-4.891 -5.473,-4.817 -0.565,0.022 0.238,0.726 1.784,1.564 m 114.439,2.057 c -1.512,0.796 -2.714,1.986 -2.671,2.644 l 0.079,1.195 0.504,-1.25 c 0.278,-0.687 1.319,-1.25 2.314,-1.25 0.996,0 2.069,-0.675 2.386,-1.5 0.316,-0.825 0.477,-1.452 0.357,-1.394 -0.121,0.058 -1.457,0.758 -2.969,1.555 m -61.004,0.363 c -2.065,0.521 -5.938,2.053 -8.608,3.406 l -4.853,2.459 -4.551,5.061 -4.55,5.062 -1.592,4.672 c -1.994,5.851 -2.033,11.563 -0.106,15.29 1.682,3.251 3.88,4.067 7.494,2.783 3.05,-1.085 3.985,-2.47 4.005,-5.936 L 97,91.143 95.429,89.571 C 94.564,88.707 92.764,88 91.429,88 H 89 V 86.696 C 89,84.386 94.664,76.375 97.954,74.033 101.808,71.289 109.033,69 113.843,69 h 3.526 l 4.413,2.137 4.413,2.136 1.899,3.114 1.899,3.113 0.003,4.3 0.004,4.299 -1.485,2.872 c -1.74,3.365 -5.844,6.454 -9.871,7.429 l -2.856,0.691 -2.394,-1.568 L 111,95.954 v -2.777 c 0,-1.527 0.505,-3.282 1.122,-3.899 l 1.123,-1.123 -3.873,0.87 -3.872,0.869 -2.568,2.865 -2.568,2.866 -2.649,19.311 -2.648,19.312 -1.556,2.376 -1.557,2.376 h 1.958 c 3.381,0 6.921,-1.816 8.633,-4.428 l 1.649,-2.517 1.87,-13.278 c 1.029,-7.302 1.885,-13.545 1.903,-13.873 0.018,-0.328 2.395,0.219 5.283,1.217 6.548,2.262 8.194,2.288 14.254,0.223 l 4.861,-1.656 4.161,-4.162 4.162,-4.161 1.656,-4.861 c 2.07,-6.075 2.089,-9.878 0.077,-15.78 l -1.578,-4.633 -4.032,-3.643 c -2.218,-2.003 -5.591,-4.294 -7.496,-5.09 -4.434,-1.852 -14.726,-2.554 -19.569,-1.334 m 63.504,4.091 c -3.651,2.338 -4.073,4.017 -1.5,5.964 l 1.75,1.325 -1.25,-1.402 C 171.563,70.231 171,68.963 171,68.183 v -1.416 l 2.001,0.523 2.002,0.523 -0.491,-0.793 c -0.269,-0.436 0.109,-1.29 0.841,-1.898 l 1.331,-1.105 0.818,0.742 0.819,0.741 -0.72,-1.25 c -0.883,-1.535 -0.477,-1.616 -4.351,0.865 M 47,65.389 c 0,0.689 7.054,4.891 7.486,4.459 0.209,-0.209 -1.39,-1.399 -3.553,-2.644 C 48.77,65.959 47,65.142 47,65.389 m -3.404,7.221 c -0.888,2.315 -0.692,3.091 0.36,1.427 l 0.926,-1.464 3.559,1.697 c 4.83,2.304 4.538,1.27 -0.345,-1.221 L 44.192,71.057 43.596,72.61 M 177,73.054 l -3.5,1.97 2,-0.262 2,-0.262 -0.176,1 c -0.097,0.55 -0.49,1.9 -0.873,3 l -0.697,2 1.623,-2.169 1.623,-2.168 -0.558,-1.453 -0.557,-1.452 1.595,-0.612 1.596,-0.612 0.574,1.496 0.574,1.495 -1.254,1.511 -1.253,1.51 1.642,-0.63 c 1.723,-0.661 2.049,-2.188 1.034,-4.834 C 181.634,70.604 181.3,70.633 177,73.054 M 41,79.878 c 0,0.482 0.788,1.495 1.75,2.25 L 44.5,83.5 43.178,81.811 41.856,80.122 46.178,79.736 50.5,79.349 45.75,79.175 41,79 v 0.878 m 4.666,2.549 -0.547,1.427 1.69,1.275 1.691,1.275 -1.172,-1.324 C 46.684,84.352 46.394,83.136 46.685,82.378 46.976,81.62 46.989,81 46.714,81 c -0.275,0 -0.746,0.642 -1.048,1.427 m -5.853,5.256 c 0.721,0.289 1.584,0.253 1.916,-0.079 0.332,-0.332 -0.258,-0.568 -1.312,-0.525 l -1.917,0.079 1.313,0.525 M 44,89 l 1.5,0.969 -1.417,0.016 C 43.304,89.993 42.902,90.236 43.19,90.524 43.937,91.271 47,89.96 47,88.893 47,88.402 45.987,88.007 44.75,88.015 L 42.5,88.031 44,89 m -5.559,3.468 -1.941,1.468 2.309,0.032 2.309,0.032 -0.565,-0.915 c -0.311,-0.503 0,-1.142 0.691,-1.421 L 42.5,91.158 41.441,91.079 c -0.582,-0.043 -1.932,0.582 -3,1.389 m 4.309,2.194 c 0.688,0.278 1.813,0.278 2.5,0 0.688,-0.277 0.125,-0.504 -1.25,-0.504 -1.375,0 -1.937,0.227 -1.25,0.504 m 148.327,2.425 c -6.002,1.178 -13.073,4.861 -15.343,7.993 -1.029,1.418 -2.299,4.487 -2.823,6.82 l -0.953,4.241 1.271,2.643 1.271,2.644 3.303,0.946 3.303,0.946 3.38,-1.612 3.379,-1.612 0.318,0.85 0.317,0.85 6,-0.928 c 11.472,-1.775 14.366,-3.563 12.956,-8.007 l -0.589,-1.856 -2.447,-0.614 -2.446,-0.614 -1.487,1.234 C 199.669,111.69 199,113.315 199,114.622 V 117 h -1.15 -1.149 l 0.629,-8.865 c 0.346,-4.875 0.911,-9.6 1.256,-10.5 l 0.628,-1.635 -1.857,0.11 c -1.021,0.06 -3.847,0.5 -6.28,0.977 m -29.262,6.349 c -7.552,1.369 -9.216,2.407 -10.705,6.679 l -1.046,2.999 1.718,-0.503 c 0.945,-0.278 3.471,-0.816 5.613,-1.196 l 3.894,-0.692 -0.799,1.389 c -0.44,0.763 -3.259,4.938 -6.265,9.276 l -5.464,7.889 2.37,-0.583 c 1.303,-0.32 4.782,-0.897 7.73,-1.282 l 5.361,-0.699 2.308,-2.107 c 1.27,-1.158 2.614,-3.163 2.988,-4.455 l 0.679,-2.348 -1.848,0.524 c -4.327,1.226 -8.349,1.784 -8.349,1.157 0,-0.371 2.475,-4.268 5.5,-8.659 3.025,-4.392 5.5,-8.174 5.5,-8.405 0,-0.559 -1.277,-0.417 -9.185,1.016 m 21.124,3.625 -2.06,2.06 0.31,2.69 0.311,2.689 2.586,0.301 2.585,0.3 1.034,-1.3 c 0.569,-0.716 1.338,-2.988 1.71,-5.051 L 190.091,105 H 187.545 185 l -2.061,2.061 m -41.939,0.512 -7.5,1.356 -2.25,2.591 c -1.238,1.425 -2.25,3.277 -2.25,4.115 v 1.524 l 3.25,-0.654 c 1.787,-0.36 4.037,-0.876 5,-1.147 0.963,-0.271 1.75,-0.213 1.75,0.129 0,0.895 -7.91,12.597 -10.317,15.263 l -2.032,2.25 h 1.491 c 1.748,0 12.563,-1.879 15.119,-2.627 1.651,-0.482 4.739,-5.165 4.739,-7.185 v -0.911 l -4.499,1.03 c -2.474,0.566 -4.748,0.78 -5.052,0.475 -0.305,-0.305 2.157,-4.431 5.471,-9.168 3.315,-4.738 5.701,-8.565 5.303,-8.506 -0.397,0.06 -4.098,0.719 -8.223,1.465 m -75.5,1.372 c -2.62,1.073 -5.112,3.904 -6.386,7.255 -0.563,1.482 -2.148,3.431 -3.52,4.331 l -2.496,1.635 -1.998,-0.634 c -1.099,-0.349 -2.269,-1.489 -2.6,-2.533 l -0.603,-1.899 1.652,-3.195 1.652,-3.195 -3.302,0.66 c -6.857,1.372 -8.999,5.25 -11.204,20.287 l -1.343,9.157 -1.728,2.638 c -0.951,1.45 -2.908,3.086 -4.349,3.633 l -2.62,0.997 -1.577,-0.696 -1.578,-0.696 2,-0.448 c 1.1,-0.247 2.788,-1.147 3.75,-2 L 31,142.69 v -2.654 c 0,-1.459 -0.611,-3.49 -1.358,-4.512 l -1.359,-1.857 h -3.189 -3.189 l -1.651,1.651 -1.651,1.651 0.103,3.647 0.104,3.648 2.534,2.535 2.535,2.534 h 6.065 6.065 l 2.581,-1.381 c 3.458,-1.851 5.115,-5.345 6.425,-13.548 0.602,-3.765 1.232,-6.984 1.401,-7.153 0.169,-0.169 1.382,0.098 2.695,0.593 l 2.389,0.901 2.395,-0.894 c 1.318,-0.492 2.634,-0.655 2.926,-0.363 0.292,0.292 0.039,3.713 -0.563,7.603 l -1.095,7.071 -1.736,1.919 L 51.69,146 h 1.687 c 0.928,0 3.218,-0.64 5.089,-1.421 l 3.401,-1.421 1.508,-2.915 c 0.829,-1.604 2.019,-6.927 2.645,-11.829 1.017,-7.961 2.045,-13.283 3.607,-18.664 l 0.508,-1.75 -1.318,0.063 c -0.724,0.035 -2.217,0.432 -3.317,0.882 m 52.275,3.614 c -1.499,0.813 -3.188,2.345 -3.755,3.403 l -1.03,1.924 2.755,-1.437 c 1.515,-0.79 3.677,-1.439 4.805,-1.443 2.065,-0.006 4.45,-1.724 4.45,-3.206 0,-1.292 -4.274,-0.843 -7.225,0.759 m -38.46,5.905 -3.186,1.385 -1.56,3.018 c -0.859,1.66 -1.972,5.923 -2.475,9.473 -0.503,3.551 -1.42,7.402 -2.039,8.558 L 68.93,143 h 2.519 2.519 l 3.056,-2.75 3.055,-2.75 1.111,-6.768 1.112,-6.769 1.678,1.519 c 4.78,4.325 10.917,-1.442 6.371,-5.988 l -1.649,-1.649 -1.851,0.484 -1.851,0.484 v -0.907 c 0,-1.261 -1.943,-1.07 -5.685,0.558 m 38.15,0.488 c -3.128,1.268 -4.646,3.635 -5.598,8.732 -0.479,2.565 -1.658,5.553 -2.619,6.64 l -1.748,1.977 3.946,-0.62 3.946,-0.619 2.245,-2.281 2.245,-2.281 1.425,-6.25 1.425,-6.25 -1.616,0.063 c -0.889,0.035 -2.532,0.435 -3.651,0.889 m 37.437,39.254 c 1.459,1.96 0.697,3.794 -1.578,3.794 h -1.557 l 0.523,-2.001 0.523,-2.002 -0.906,0.561 c -1.551,0.958 -0.998,3.323 1.032,4.41 l 1.94,1.037 0.619,-1.002 c 0.929,-1.503 2.485,-1.21 3.179,0.598 l 0.614,1.601 -1.395,0.975 -1.396,0.975 1.5,-0.409 c 0.825,-0.225 1.635,-1.106 1.801,-1.959 l 0.3,-1.549 -3.234,-3.368 c -1.779,-1.852 -2.663,-2.599 -1.965,-1.661 m -9.652,4.512 -1.25,0.449 v 2.761 2.762 l 1.829,1.655 c 3.873,3.505 7.511,0.891 5.352,-3.847 -1.211,-2.658 -4.037,-4.459 -5.931,-3.78 m 0.087,1.846 c -0.33,0.86 -0.1,2.66 0.51,4 l 1.11,2.436 h 2.022 2.021 v -1.811 c 0,-1.636 -3.362,-6.189 -4.57,-6.189 -0.271,0 -0.763,0.704 -1.093,1.564 M 154,166 c 0,0.55 0.477,1 1.059,1 h 1.059 l -0.618,-1 c -0.34,-0.55 -0.816,-1 -1.059,-1 -0.243,0 -0.441,0.45 -0.441,1 m -16.75,0.662 c -2.543,1.027 -1.256,7.729 1.798,9.364 l 1.813,0.97 1.603,-1.603 1.604,-1.604 -0.652,-2.144 c -0.698,-2.295 -3.339,-5.696 -4.321,-5.566 -0.327,0.043 -1.157,0.306 -1.845,0.583 m -50.908,1.889 -0.595,1.551 2.313,2.462 2.314,2.462 -1.212,1.212 -1.212,1.212 -2.072,-1.294 c -1.14,-0.712 -2.312,-1.055 -2.605,-0.763 -0.908,0.909 4.511,2.904 6.163,2.27 l 1.564,-0.6 v -1.996 -1.997 L 89,172 c -1.1,-0.589 -2,-1.73 -2,-2.535 V 168 h 1.8 c 0.99,0 2.431,0.563 3.202,1.25 l 1.402,1.25 -1.325,-1.75 C 91.351,167.787 89.896,167 88.846,167 h -1.909 l -0.595,1.551 m 51.325,-0.884 c -1.207,1.207 -0.697,4.074 1.125,6.325 l 1.793,2.213 1.27,-1.53 1.271,-1.531 -1.589,-3.072 c -1.578,-3.052 -2.593,-3.683 -3.87,-2.405 m -9.746,3.083 -1.325,1.75 1.402,-1.25 c 1.878,-1.674 4.002,-1.585 4.002,0.169 0,0.78 -0.779,2.776 -1.731,4.435 -2.106,3.669 -1.322,4.721 2.419,3.244 l 2.812,-1.11 -2.742,0.523 -2.742,0.523 1.634,-3.426 1.634,-3.426 -0.611,-1.591 c -0.806,-2.1 -3.101,-2.023 -4.752,0.159 m -33.274,3 c -0.269,0.963 -0.8,2.875 -1.18,4.25 l -0.692,2.5 1.007,-1 c 1.1,-1.092 2.693,-7.5 1.865,-7.5 -0.282,0 -0.732,0.787 -1,1.75 m 3.783,2.769 c -0.368,1.966 -0.391,3.853 -0.05,4.194 0.341,0.341 0.62,-0.49 0.62,-1.846 0,-1.357 0.489,-2.956 1.087,-3.554 l 1.087,-1.087 -1.036,-0.641 -1.037,-0.641 -0.671,3.575 m 4.893,1.736 -0.177,4.245 0.856,-2 c 1.084,-2.529 1.236,-6.502 0.248,-6.495 -0.412,0.003 -0.83,1.916 -0.927,4.25 m 4.763,-2.005 -0.85,2.25 0.917,1.75 0.917,1.75 2.215,-0.136 2.215,-0.136 -2.25,-0.434 -2.25,-0.433 v -2.463 -2.462 l 2.25,-0.905 2.25,-0.904 -2.282,-0.064 -2.282,-0.063 -0.85,2.25 m 8.304,-0.823 c -0.302,0.785 -0.4,2.473 -0.219,3.75 l 0.329,2.323 2.5,0.24 2.5,0.24 -2.25,-0.958 -2.25,-0.958 v -2.605 -2.606 l 1.75,0.383 c 0.963,0.211 1.638,0.919 1.5,1.573 -0.138,0.655 0.248,1.191 0.857,1.191 h 1.107 l -0.607,-1.582 c -0.334,-0.87 -0.607,-1.77 -0.607,-2 0,-0.23 -0.914,-0.418 -2.031,-0.418 h -2.032 l -0.547,1.427"
       stroke="none"
       fill="#000000"
       fill-rule="evenodd"
       id="path1-0" /><path
       d="M 93.5,20.599 C 68.646,26.128 46.181,43.688 34.777,66.5 26.025,84.008 23.605,106.838 28.466,126.032 l 0.641,2.531 -3.924,-0.374 -3.924,-0.374 -3.113,1.609 -3.112,1.61 -1.517,2.933 c -0.834,1.614 -1.515,4.644 -1.513,6.733 l 0.003,3.8 1.949,3.196 c 2.667,4.373 5.879,6.26 11.862,6.969 l 5.071,0.6 4.768,-1.2 4.769,-1.201 2.014,2.818 c 10.443,14.609 28.675,27.254 46.56,32.295 l 7.5,2.114 10.5,0.581 10.5,0.581 7.5,-1.169 c 10.209,-1.592 22.512,-5.972 31.097,-11.072 l 7.138,-4.241 7.507,-7.131 c 11.444,-10.871 18.191,-21.131 22.721,-34.555 l 2.165,-6.416 6.422,-1.758 6.421,-1.757 2.265,-2.633 2.264,-2.633 v -3.721 -3.722 l -1.545,-2.206 -1.545,-2.205 -3.137,-0.813 -3.138,-0.813 0.254,-6.21 0.253,-6.21 -2.321,-0.863 c -1.277,-0.474 -2.798,-0.681 -3.38,-0.46 l -1.059,0.403 -1.77,-7.506 -1.769,-7.506 -4.682,-9.336 c -2.575,-5.134 -7.134,-12.416 -10.13,-16.181 l -5.447,-6.846 -7.432,-5.906 C 157.41,30.841 146.025,24.885 135.815,21.917 l -7.315,-2.127 -14,-0.374 -14,-0.374 -7,1.557 m 8.31,0.396 C 68.985,25.06 41.686,47.957 31.463,80 l -2.712,8.5 -0.47,13 -0.47,13 1.555,7 c 0.855,3.85 1.841,7.977 2.191,9.172 l 0.636,2.172 -4.074,-2.015 -4.073,-2.015 -3.773,1.843 -3.773,1.843 -1.729,3.534 -1.729,3.534 0.973,3.523 0.972,3.523 3.006,2.879 3.005,2.879 5.751,0.406 5.751,0.406 4.131,-1.434 4.131,-1.434 5.346,7.011 5.346,7.01 7.523,5.988 7.523,5.988 9,4.327 c 4.95,2.38 11.925,5.122 15.5,6.094 l 6.5,1.766 15.5,-0.036 15.5,-0.035 9.5,-3.256 9.5,-3.257 7.906,-4.708 7.906,-4.708 7.22,-7 7.219,-7 5.029,-7.732 c 2.766,-4.253 6.246,-11.003 7.733,-15 1.487,-3.998 3.066,-8.217 3.51,-9.378 l 0.806,-2.11 5.112,-0.678 5.112,-0.678 3.131,-2.797 3.13,-2.797 -0.093,-3.265 -0.093,-3.266 -1.701,-1.88 c -0.936,-1.034 -3.211,-2.163 -5.056,-2.509 l -3.354,-0.629 0.434,-2.141 c 0.239,-1.177 0.693,-3.765 1.011,-5.752 l 0.577,-3.611 -1.386,-1.15 c -0.763,-0.633 -2.434,-1.033 -3.715,-0.889 l -2.329,0.262 -0.782,-4.425 C 191.33,68.292 177.319,47.152 159.744,35.145 143.566,24.092 121.103,18.605 101.81,20.995 m 12.971,9.642 0.493,2.576 -1.387,0.878 -1.387,0.878 1.25,0.016 c 0.688,0.008 1.25,0.492 1.25,1.074 v 1.059 l -1.155,-0.713 -1.154,-0.714 0.714,1.154 C 113.797,37.48 114.541,38 115.059,38 H 116 v -4.441 c 0,-2.443 -0.385,-4.679 -0.856,-4.97 l -0.855,-0.528 0.492,2.576 m -14.773,1.337 -1.491,0.943 1.107,1.107 1.108,1.108 0.54,-2.066 c 0.298,-1.136 0.47,-2.059 0.384,-2.051 -0.086,0.009 -0.827,0.44 -1.648,0.959 m 8.802,2.526 c -0.225,1.925 -0.049,3.5 0.391,3.5 0.439,0 0.799,-1.575 0.799,-3.5 0,-1.925 -0.176,-3.5 -0.391,-3.5 -0.214,0 -0.574,1.575 -0.799,3.5 M 134,32 c 0,0.55 0.477,1 1.059,1 h 1.059 L 135.5,32 c -0.34,-0.55 -0.816,-1 -1.059,-1 -0.243,0 -0.441,0.45 -0.441,1 m -9.985,1.191 c -0.008,0.93 0.435,1.969 0.985,2.309 1.266,0.782 1.266,-0.542 0,-2.5 l -0.969,-1.5 -0.016,1.691 M 129,32.882 c 0,0.55 0.45,1.278 1,1.618 l 1,0.618 v -1 c 0,-0.55 -0.45,-1.278 -1,-1.618 l -1,-0.618 v 1 M 92.5,34 l -2,0.859 1.691,0.071 c 0.93,0.038 1.969,-0.38 2.309,-0.93 0.711,-1.15 0.676,-1.15 -2,0 m 25.579,0.583 0.079,1.917 0.525,-1.312 c 0.289,-0.722 0.253,-1.585 -0.079,-1.917 -0.332,-0.332 -0.568,0.258 -0.525,1.312 m -31.515,2.124 -0.682,1.793 1.242,-1.233 c 0.684,-0.679 0.991,-1.486 0.683,-1.793 -0.308,-0.308 -0.867,0.247 -1.243,1.233 M 132,36 c 0,0.55 0.45,1 1,1 0.55,0 1,-0.45 1,-1 0,-0.55 -0.45,-1 -1,-1 -0.55,0 -1,0.45 -1,1 m -33.5,2 c 0.34,0.55 0.816,1 1.059,1 0.243,0 0.441,-0.45 0.441,-1 0,-0.55 -0.477,-1 -1.059,-1 h -1.059 l 0.618,1 m 35.91,1.274 c -1.021,1.224 -1.252,1.699 -0.512,1.054 0.74,-0.644 1.966,-0.934 2.724,-0.643 L 138,40.214 v -1.048 c 0,-2.114 -1.782,-2.06 -3.59,0.108 m 13.1,-1.258 c 0.346,0.559 1.047,0.758 1.559,0.441 C 150.456,37.6 150.198,37 148.441,37 h -1.559 l 0.628,1.016 m -2.177,1.44 c 0,0.801 0.383,1.22 0.85,0.931 0.467,-0.289 0.591,-0.944 0.274,-1.456 -0.808,-1.308 -1.124,-1.161 -1.124,0.525 M 87.5,40 86.882,41 h 1.059 C 88.523,41 89,40.55 89,40 89,39.45 88.802,39 88.559,39 88.316,39 87.84,39.45 87.5,40 m 63.233,0.124 c 0.679,0.684 1.486,0.991 1.793,0.683 0.308,-0.308 -0.247,-0.867 -1.233,-1.243 l -1.793,-0.682 1.233,1.242 m 4.75,3.902 c 0.196,2.658 1.065,3.323 1.244,0.951 0.08,-1.066 -0.199,-2.151 -0.62,-2.411 -0.421,-0.26 -0.702,0.397 -0.624,1.46 m -88.404,0.557 0.079,1.917 0.525,-1.312 c 0.289,-0.722 0.253,-1.585 -0.079,-1.917 -0.332,-0.332 -0.568,0.258 -0.525,1.312 m 78.485,0.71 c 0.376,0.986 0.935,1.541 1.243,1.233 0.308,-0.307 0.001,-1.114 -0.683,-1.793 l -1.242,-1.233 0.682,1.793 m -67.961,0.54 c -0.283,0.459 0.14,0.834 0.941,0.834 C 79.345,46.667 80,46.292 80,45.833 80,45.375 79.577,45 79.059,45 c -0.518,0 -1.173,0.375 -1.456,0.833 m 19.469,0.758 c -2.986,0.803 -8.377,2.91 -11.981,4.684 L 78.54,54.5 72.279,60.357 c -3.444,3.221 -8.078,8.621 -10.298,12 l -4.037,6.143 -2.416,8 c -1.328,4.4 -2.594,10.63 -2.812,13.845 l -0.396,5.846 5.59,-0.808 c 3.074,-0.444 7.84,-0.824 10.59,-0.845 l 5,-0.038 -0.09,6.129 -0.089,6.13 4.089,-1.858 c 4.943,-2.244 9.139,-2.385 12.885,-0.431 l 2.795,1.458 0.381,-1.214 c 0.209,-0.668 0.668,-3.368 1.021,-6 l 0.641,-4.786 -2.482,0.623 -2.481,0.623 -3.508,-1.664 -3.507,-1.665 -1.701,-3.582 -1.7,-3.583 0.473,-6.59 0.473,-6.59 2.221,-4.349 c 4.861,-9.519 13.541,-16.485 24.517,-19.676 l 5.912,-1.719 6.591,0.472 6.591,0.471 4.535,2.006 c 12.266,5.426 18.472,16.548 16.515,29.598 l -0.669,4.459 -3.269,5.429 -3.27,5.43 6.563,-1.207 c 3.61,-0.664 10.9,-1.973 16.201,-2.909 l 9.639,-1.701 -1.401,-6.152 c -0.77,-3.384 -3.04,-9.527 -5.045,-13.652 l -3.644,-7.5 -8.093,-8.043 -8.094,-8.043 -6.535,-3.163 c -3.594,-1.741 -9.201,-3.859 -12.46,-4.708 L 121.58,45 l -9.54,0.066 -9.54,0.066 -5.428,1.459 M 71,47.802 v 1.135 l -1.75,-0.563 -1.75,-0.563 1.492,1.053 1.491,1.053 0.942,-0.942 C 71.943,48.457 72.059,47.726 71.683,47.35 71.308,46.974 71,47.178 71,47.802 m 2.613,0.381 c 0.289,0.467 0.944,0.591 1.456,0.274 1.308,-0.808 1.161,-1.124 -0.525,-1.124 -0.801,0 -1.22,0.383 -0.931,0.85 m -10.204,1.924 2.68,2.108 -1.795,1.361 -1.794,1.36 1.191,0.032 c 0.655,0.018 1.474,-0.425 1.819,-0.984 l 0.628,-1.017 1.181,0.671 C 67.969,54.007 67.178,52.89 65.563,51.155 63.948,49.42 62.199,48 61.678,48 c -0.521,0 0.258,0.948 1.731,2.107 m 89.943,-1.347 0.66,1.069 -1.256,0.507 -1.256,0.506 1.191,0.079 c 1.721,0.114 2.548,-1.656 1.171,-2.506 l -1.171,-0.724 0.661,1.069 M 69.5,52 68.882,53 h 1.059 C 70.523,53 71,52.55 71,52 71,51.45 70.802,51 70.559,51 70.316,51 69.84,51.45 69.5,52 m -10,1 c 0.34,0.55 0.816,1 1.059,1 C 60.802,54 61,53.55 61,53 61,52.45 60.523,52 59.941,52 h -1.059 l 0.618,1 m 98.833,0.544 c 0,0.801 0.375,1.456 0.834,1.456 0.458,0 0.833,-0.423 0.833,-0.941 0,-0.518 -0.375,-1.173 -0.833,-1.456 -0.459,-0.283 -0.834,0.14 -0.834,0.941 m 6.072,0.706 -1.905,2.25 2.25,-1.905 c 1.238,-1.048 2.25,-2.06 2.25,-2.25 0,-0.8 -0.805,-0.209 -2.595,1.905 M 57,53.313 c 0,0.172 1.462,1.635 3.25,3.25 L 63.5,59.5 60.563,56.25 C 57.825,53.221 57,52.54 57,53.313 M 161,57 c 0,0.55 0.477,1 1.059,1 h 1.059 L 162.5,57 c -0.34,-0.55 -0.816,-1 -1.059,-1 C 161.198,56 161,56.45 161,57 M 52.211,58.601 50.921,60 h 0.981 c 1.038,0 2.541,-1.902 1.948,-2.466 -0.192,-0.183 -0.93,0.297 -1.639,1.067 m 113.652,0.102 -1.363,1.681 1.189,-0.713 1.188,-0.713 0.923,1.649 0.923,1.65 0.698,-1.129 L 170.118,60 H 169 c -0.615,0 -0.859,-0.419 -0.543,-0.931 1.072,-1.735 -1.221,-2.058 -2.594,-0.366 m -108.31,0.212 c -0.322,0.521 -0.159,1.21 0.362,1.532 0.521,0.322 1.21,0.159 1.532,-0.362 0.322,-0.521 0.159,-1.21 -0.362,-1.532 -0.521,-0.322 -1.21,-0.159 -1.532,0.362 M 172,58.941 c 0,0.518 0.375,1.173 0.833,1.456 0.459,0.283 0.834,-0.14 0.834,-0.941 0,-0.801 -0.375,-1.456 -0.834,-1.456 -0.458,0 -0.833,0.423 -0.833,0.941 m -49.187,1.742 c 0.721,0.289 1.584,0.253 1.916,-0.079 0.332,-0.332 -0.258,-0.568 -1.312,-0.525 l -1.917,0.079 1.313,0.525 M 51.5,63 c -0.34,0.55 -0.479,1.034 -0.309,1.077 0.17,0.042 1.122,0.23 2.115,0.419 l 1.806,0.343 -1.179,-1.419 C 52.532,61.732 52.308,61.693 51.5,63 m 124.638,1.667 c 0.609,0.733 1.614,1.297 2.234,1.254 l 1.128,-0.079 -1.256,-0.506 c -0.691,-0.279 -1.048,-0.843 -0.794,-1.255 0.254,-0.411 -0.186,-0.748 -0.978,-0.748 h -1.44 l 1.106,1.334 M 57.613,65.183 c 0.289,0.467 0.944,0.591 1.456,0.274 1.308,-0.808 1.161,-1.124 -0.525,-1.124 -0.801,0 -1.22,0.383 -0.931,0.85 M 167,65 c 0,0.55 0.45,1 1,1 0.55,0 1,-0.45 1,-1 0,-0.55 -0.45,-1 -1,-1 -0.55,0 -1,0.45 -1,1 M 49.603,66.833 c -0.283,0.459 0.12,0.834 0.897,0.834 0.777,0 1.18,-0.375 0.897,-0.834 C 51.114,66.375 50.71,66 50.5,66 c -0.21,0 -0.614,0.375 -0.897,0.833 M 137.5,68 c 0.995,1.1 2.035,2 2.31,2 0.275,0 -0.315,-0.9 -1.31,-2 -0.995,-1.1 -2.035,-2 -2.31,-2 -0.275,0 0.315,0.9 1.31,2 M 92.437,70.25 89.5,73.5 92.75,70.563 C 94.537,68.948 96,67.485 96,67.313 96,66.54 95.175,67.221 92.437,70.25 M 174.5,69 c 0.34,0.55 0.816,1 1.059,1 0.243,0 0.441,-0.45 0.441,-1 0,-0.55 -0.477,-1 -1.059,-1 h -1.059 l 0.618,1 m -63.236,0.718 c 1.52,0.229 3.77,0.223 5,-0.014 1.23,-0.237 -0.014,-0.425 -2.764,-0.418 l -5,0.014 2.764,0.418 M 44.5,71 c 0.34,0.55 0.816,1 1.059,1 C 45.802,72 46,71.55 46,71 46,70.45 45.523,70 44.941,70 h -1.059 l 0.618,1 m 80.5,2.378 c 0,0.207 0.787,0.995 1.75,1.75 l 1.75,1.372 -1.372,-1.75 C 125.821,73.084 125,72.555 125,73.378 m 50,0 c 0,0.207 0.787,0.995 1.75,1.75 l 1.75,1.372 -1.372,-1.75 C 175.821,73.084 175,72.555 175,73.378 M 50.603,74.833 c -0.283,0.459 0.12,0.834 0.897,0.834 0.777,0 1.18,-0.375 0.897,-0.834 C 52.114,74.375 51.71,74 51.5,74 c -0.21,0 -0.614,0.375 -0.897,0.833 M 94.924,76.75 92.5,79.5 95.25,77.076 C 97.82,74.81 98.459,74 97.674,74 c -0.179,0 -1.416,1.237 -2.75,2.75 M 179,76.833 c 0,0.459 0.655,0.834 1.456,0.834 0.801,0 1.224,-0.375 0.941,-0.834 C 181.114,76.375 180.459,76 179.941,76 179.423,76 179,76.375 179,76.833 m -135.112,6.01 c 1.213,1.703 2.747,3.422 3.409,3.819 L 48.5,87.384 47.259,85.85 c -0.683,-0.844 -1.007,-1.769 -0.719,-2.057 0.287,-0.287 -0.688,-1.315 -2.167,-2.284 l -2.69,-1.763 2.205,3.097 M 41.5,88 40.882,89 h 1 c 0.55,0 1.278,-0.45 1.618,-1 l 0.618,-1 h -1 c -0.55,0 -1.278,0.45 -1.618,1 m 48.25,-0.338 c 0.688,0.278 1.813,0.278 2.5,0 0.688,-0.277 0.125,-0.504 -1.25,-0.504 -1.375,0 -1.937,0.227 -1.25,0.504 m 20.063,1.021 c 0.721,0.289 1.584,0.253 1.916,-0.079 0.332,-0.332 -0.258,-0.568 -1.312,-0.525 l -1.917,0.079 1.313,0.525 m -7.408,3.567 -1.905,2.25 2.25,-1.905 c 1.237,-1.048 2.25,-2.06 2.25,-2.25 0,-0.8 -0.805,-0.209 -2.595,1.905 m -62.387,0.4 1.338,2.15 1.522,-0.583 1.521,-0.584 -1.45,-0.451 c -0.797,-0.248 -2.084,-0.953 -2.86,-1.566 l -1.41,-1.116 1.339,2.15 M 97.158,94 c 0,1.375 0.227,1.938 0.504,1.25 0.278,-0.687 0.278,-1.812 0,-2.5 -0.277,-0.687 -0.504,-0.125 -0.504,1.25 m 28.247,0.25 -1.905,2.25 2.25,-1.905 c 1.237,-1.048 2.25,-2.06 2.25,-2.25 0,-0.8 -0.805,-0.209 -2.595,1.905 m 67.408,2.433 c 0.721,0.289 1.584,0.253 1.916,-0.079 0.332,-0.332 -0.258,-0.568 -1.312,-0.525 l -1.917,0.079 1.313,0.525 m -77,2 c 0.721,0.289 1.584,0.253 1.916,-0.079 0.332,-0.332 -0.258,-0.568 -1.312,-0.525 l -1.917,0.079 1.313,0.525 m 82.266,0.9 0.079,1.917 0.525,-1.312 c 0.289,-0.722 0.253,-1.585 -0.079,-1.917 -0.332,-0.332 -0.568,0.258 -0.525,1.312 m -99,1 0.079,1.917 0.525,-1.312 c 0.289,-0.722 0.253,-1.585 -0.079,-1.917 -0.332,-0.332 -0.568,0.258 -0.525,1.312 m 66.734,2.1 c 0.721,0.289 1.584,0.253 1.916,-0.079 0.332,-0.332 -0.258,-0.568 -1.312,-0.525 l -1.917,0.079 1.313,0.525 m -6,1 c 0.721,0.289 1.584,0.253 1.916,-0.079 0.332,-0.332 -0.258,-0.568 -1.312,-0.525 l -1.917,0.079 1.313,0.525 M 197.158,107 c 0,1.375 0.227,1.938 0.504,1.25 0.278,-0.687 0.278,-1.812 0,-2.5 -0.277,-0.687 -0.504,-0.125 -0.504,1.25 m -51.345,-0.317 c 0.721,0.289 1.584,0.253 1.916,-0.079 0.332,-0.332 -0.258,-0.568 -1.312,-0.525 l -1.917,0.079 1.313,0.525 M 69.5,108 c 0.34,0.55 0.816,1 1.059,1 0.243,0 0.441,-0.45 0.441,-1 0,-0.55 -0.477,-1 -1.059,-1 h -1.059 l 0.618,1 m 70.313,-0.317 c 0.721,0.289 1.584,0.253 1.916,-0.079 0.332,-0.332 -0.258,-0.568 -1.312,-0.525 l -1.917,0.079 1.313,0.525 m -32.734,1.9 0.079,1.917 0.525,-1.312 c 0.289,-0.722 0.253,-1.585 -0.079,-1.917 -0.332,-0.332 -0.568,0.258 -0.525,1.312 m 23.793,1.167 -1.372,1.75 1.75,-1.372 c 1.666,-1.307 2.195,-2.128 1.372,-2.128 -0.207,0 -0.995,0.787 -1.75,1.75 m -70,1 -1.372,1.75 1.75,-1.372 c 1.666,-1.307 2.195,-2.128 1.372,-2.128 -0.207,0 -0.995,0.787 -1.75,1.75 m 111.207,0.833 0.079,1.917 0.525,-1.312 c 0.289,-0.722 0.253,-1.585 -0.079,-1.917 -0.332,-0.332 -0.568,0.258 -0.525,1.312 m -131.207,2.167 -1.372,1.75 1.75,-1.372 c 0.962,-0.755 1.75,-1.543 1.75,-1.75 0,-0.823 -0.821,-0.294 -2.128,1.372 m 156.859,0.17 -0.619,2.368 1.056,-1.056 c 0.582,-0.582 0.86,-1.647 0.62,-2.369 l -0.437,-1.311 -0.62,2.368 m -100.652,0.663 0.079,1.917 0.525,-1.312 c 0.289,-0.722 0.253,-1.585 -0.079,-1.917 -0.332,-0.332 -0.568,0.258 -0.525,1.312 m 9.079,1.417 c 0,1.375 0.227,1.938 0.504,1.25 0.278,-0.687 0.278,-1.812 0,-2.5 -0.277,-0.687 -0.504,-0.125 -0.504,1.25 m 12.655,-1.317 c 0.721,0.289 1.584,0.253 1.916,-0.079 0.332,-0.332 -0.258,-0.568 -1.312,-0.525 l -1.917,0.079 1.313,0.525 m 9.266,0.9 0.079,1.917 0.525,-1.312 c 0.289,-0.722 0.253,-1.585 -0.079,-1.917 -0.332,-0.332 -0.568,0.258 -0.525,1.312 m 9.254,-0.127 c 0,0.801 0.375,1.224 0.834,0.941 0.458,-0.283 0.833,-0.938 0.833,-1.456 0,-0.518 -0.375,-0.941 -0.833,-0.941 -0.459,0 -0.834,0.655 -0.834,1.456 m -89.254,1.127 0.079,1.917 0.525,-1.312 c 0.289,-0.722 0.253,-1.585 -0.079,-1.917 -0.332,-0.332 -0.568,0.258 -0.525,1.312 m 19,2 0.079,1.917 0.525,-1.312 c 0.289,-0.722 0.253,-1.585 -0.079,-1.917 -0.332,-0.332 -0.568,0.258 -0.525,1.312 M 160,119.031 c 0,0.533 0.675,0.969 1.5,0.969 0.825,0 1.5,-0.177 1.5,-0.393 0,-0.216 -0.675,-0.652 -1.5,-0.969 l -1.5,-0.575 v 0.968 m -46.128,1.719 -1.372,1.75 1.75,-1.372 c 1.666,-1.307 2.195,-2.128 1.372,-2.128 -0.207,0 -0.995,0.787 -1.75,1.75 m -62.059,0.933 c 0.721,0.289 1.584,0.253 1.916,-0.079 0.332,-0.332 -0.258,-0.568 -1.312,-0.525 l -1.917,0.079 1.313,0.525 m 44.266,0.9 0.079,1.917 0.525,-1.312 c 0.289,-0.722 0.253,-1.585 -0.079,-1.917 -0.332,-0.332 -0.568,0.258 -0.525,1.312 m 94.734,-0.9 c 0.721,0.289 1.584,0.253 1.916,-0.079 0.332,-0.332 -0.258,-0.568 -1.312,-0.525 l -1.917,0.079 1.313,0.525 m -85.734,2.9 0.079,1.917 0.525,-1.312 c 0.289,-0.722 0.253,-1.585 -0.079,-1.917 -0.332,-0.332 -0.568,0.258 -0.525,1.312 m -39,2 0.079,1.917 0.525,-1.312 c 0.289,-0.722 0.253,-1.585 -0.079,-1.917 -0.332,-0.332 -0.568,0.258 -0.525,1.312 m 92.734,1.1 c 0.721,0.289 1.584,0.253 1.916,-0.079 0.332,-0.332 -0.258,-0.568 -1.312,-0.525 l -1.917,0.079 1.313,0.525 m -63.734,1.9 0.079,1.917 0.525,-1.312 c 0.289,-0.722 0.253,-1.585 -0.079,-1.917 -0.332,-0.332 -0.568,0.258 -0.525,1.312 m 57.734,-0.9 c 0.721,0.289 1.584,0.253 1.916,-0.079 0.332,-0.332 -0.258,-0.568 -1.312,-0.525 l -1.917,0.079 1.313,0.525 m -71.734,1.9 0.079,1.917 0.525,-1.312 c 0.289,-0.722 0.253,-1.585 -0.079,-1.917 -0.332,-0.332 -0.568,0.258 -0.525,1.312 m 2.164,3.798 c -0.644,2.409 -2.354,5.786 -3.799,7.503 l -2.626,3.122 -3.852,0.615 -3.851,0.616 5.192,4.451 c 5.941,5.092 16.66,10.483 24.693,12.419 l 5.5,1.325 8.5,-0.065 8.5,-0.065 6.429,-1.725 c 15.655,-4.2 28.501,-14.212 37.142,-28.948 l 2.27,-3.872 -1.921,0.558 c -1.056,0.307 -11.108,2.048 -22.338,3.868 l -20.418,3.31 -0.392,-1.177 -0.392,-1.177 -3.19,1.845 -3.19,1.845 -11.039,1.672 c -6.072,0.92 -12.372,1.521 -14,1.336 L 87.5,141.5 l -0.311,-2.182 -0.31,-2.183 2.06,-1.103 L 91,134.93 V 132.465 130 h -3.293 -3.292 l -1.172,4.381 M 45.158,133 c 0,1.375 0.227,1.938 0.504,1.25 0.278,-0.687 0.278,-1.812 0,-2.5 -0.277,-0.687 -0.504,-0.125 -0.504,1.25 m 10.921,-0.417 0.079,1.917 0.525,-1.312 c 0.289,-0.722 0.253,-1.585 -0.079,-1.917 -0.332,-0.332 -0.568,0.258 -0.525,1.312 m 82.734,-0.9 c 0.721,0.289 1.584,0.253 1.916,-0.079 0.332,-0.332 -0.258,-0.568 -1.312,-0.525 l -1.917,0.079 1.313,0.525 m -21.941,2.067 -1.372,1.75 1.75,-1.372 c 0.963,-0.755 1.75,-1.543 1.75,-1.75 0,-0.823 -0.821,-0.294 -2.128,1.372 m 15.941,-1.067 c 0.721,0.289 1.584,0.253 1.916,-0.079 0.332,-0.332 -0.258,-0.568 -1.312,-0.525 l -1.917,0.079 1.313,0.525 m -101.734,6.9 0.079,1.917 0.525,-1.312 c 0.289,-0.722 0.253,-1.585 -0.079,-1.917 -0.332,-0.332 -0.568,0.258 -0.525,1.312 m 45.793,1.167 -1.372,1.75 1.75,-1.372 c 0.963,-0.755 1.75,-1.543 1.75,-1.75 0,-0.823 -0.821,-0.294 -2.128,1.372 m -8.205,0.917 c -1.331,1.331 -0.617,2.33 1.583,2.217 l 2.25,-0.116 -1.762,-0.46 -1.762,-0.459 0.571,-0.925 c 0.661,-1.07 0.097,-1.235 -0.88,-0.257 m -37.262,3.583 -1.905,2.25 2.25,-1.905 c 2.114,-1.79 2.705,-2.595 1.905,-2.595 -0.19,0 -1.202,1.012 -2.25,2.25 m -6.637,1.918 c 0.582,0.582 1.647,0.86 2.369,0.62 l 1.311,-0.437 -2.368,-0.62 -2.368,-0.619 1.056,1.056 m 1.045,2.515 c 0.721,0.289 1.584,0.253 1.916,-0.079 0.332,-0.332 -0.258,-0.568 -1.312,-0.525 l -1.917,0.079 1.313,0.525 m 7,0 c 0.721,0.289 1.584,0.253 1.916,-0.079 0.332,-0.332 -0.258,-0.568 -1.312,-0.525 l -1.917,0.079 1.313,0.525 M 153,158.148 v 0.97 l -1.155,-0.713 -1.154,-0.714 0.724,1.171 0.723,1.171 1.043,-0.645 1.043,-0.644 0.872,1.378 0.873,1.378 0.016,-1.25 c 0.008,-0.687 0.128,-1.545 0.265,-1.905 0.137,-0.36 -0.537,-0.77 -1.5,-0.911 -0.963,-0.141 -1.75,0.18 -1.75,0.714 m -2.921,2.543 c -0.114,1.721 1.656,2.548 2.506,1.171 l 0.724,-1.171 -1.069,0.661 -1.069,0.66 -0.507,-1.256 -0.506,-1.256 -0.079,1.191 m -4.466,2.492 c 0.289,0.467 0.944,0.591 1.456,0.274 1.308,-0.808 1.161,-1.124 -0.525,-1.124 -0.801,0 -1.22,0.383 -0.931,0.85 m 2.99,0.65 c -0.283,0.459 0.12,0.834 0.897,0.834 0.777,0 1.18,-0.375 0.897,-0.834 C 150.114,163.375 149.71,163 149.5,163 c -0.21,0 -0.614,0.375 -0.897,0.833 m 4.397,0.726 v 1.559 l 1.016,-0.628 c 0.559,-0.346 0.758,-1.047 0.441,-1.559 C 153.6,162.544 153,162.802 153,164.559 m -9.921,1.024 0.079,1.917 0.525,-1.312 c 0.289,-0.722 0.253,-1.585 -0.079,-1.917 -0.332,-0.332 -0.568,0.258 -0.525,1.312 m -5.291,1.605 c 0.472,0.472 1.918,1.063 3.212,1.312 l 2.353,0.453 -1.161,-1.161 c -0.638,-0.638 -2.084,-1.229 -3.212,-1.312 l -2.051,-0.151 0.859,0.859 m 12.671,-0.121 c -0.363,0.586 -0.445,1.281 -0.183,1.543 0.262,0.262 0.743,-0.218 1.069,-1.067 0.676,-1.762 0.1,-2.072 -0.886,-0.476 M 155.5,167 l -0.618,1 h 1.618 1.618 l -0.618,-1 c -0.34,-0.55 -0.79,-1 -1,-1 -0.21,0 -0.66,0.45 -1,1 m -64.887,2.183 c 0.289,0.467 0.944,0.591 1.456,0.274 1.308,-0.808 1.161,-1.124 -0.525,-1.124 -0.801,0 -1.22,0.383 -0.931,0.85 m 36.99,0.65 c -0.283,0.459 0.12,0.834 0.897,0.834 0.777,0 1.18,-0.375 0.897,-0.834 C 129.114,169.375 128.71,169 128.5,169 c -0.21,0 -0.614,0.375 -0.897,0.833 m 17.95,0.082 c -0.322,0.521 -0.159,1.21 0.362,1.532 0.521,0.322 1.21,0.159 1.532,-0.362 0.322,-0.521 0.159,-1.21 -0.362,-1.532 -0.521,-0.322 -1.21,-0.159 -1.532,0.362 M 86.624,170.8 c -0.317,0.513 0.417,1.78 1.632,2.816 l 2.21,1.884 -1.483,-1.904 c -0.816,-1.047 -1.333,-2.097 -1.15,-2.333 0.184,-0.236 0.116,-0.647 -0.15,-0.913 -0.265,-0.266 -0.742,-0.063 -1.059,0.45 m 55.95,0.867 c -0.352,0.917 -0.287,2.019 0.143,2.449 l 0.783,0.782 0.144,-2.449 c 0.169,-2.861 -0.175,-3.112 -1.07,-0.782 M 101,174 c 0,0.55 0.417,1 0.927,1 0.509,0 1.134,0.787 1.388,1.75 l 0.462,1.75 -0.107,-2.75 -0.106,-2.75 h -1.282 c -0.705,0 -1.282,0.45 -1.282,1 m -2.914,0.5 c 0.03,0.55 0.441,1.9 0.914,3 l 0.859,2 0.055,-1.5 c 0.031,-0.825 -0.381,-2.175 -0.914,-3 -0.533,-0.825 -0.945,-1.05 -0.914,-0.5 m 21.164,1.86 c -2.456,1.216 -2.99,2.64 -0.991,2.64 0.693,0 1.822,-0.9 2.509,-2 0.687,-1.1 1.133,-1.945 0.99,-1.877 -0.142,0.067 -1.271,0.624 -2.508,1.237 m 20.353,-0.527 c -0.283,0.459 0.12,0.834 0.897,0.834 0.777,0 1.18,-0.375 0.897,-0.834 C 141.114,175.375 140.71,175 140.5,175 c -0.21,0 -0.614,0.375 -0.897,0.833 M 115.158,178 c 0,1.375 0.227,1.938 0.504,1.25 0.278,-0.687 0.278,-1.812 0,-2.5 -0.277,-0.687 -0.504,-0.125 -0.504,1.25 M 130,178.393 c 0,0.216 0.698,0.661 1.552,0.989 l 1.552,0.595 -0.611,-0.988 C 131.906,178.038 130,177.583 130,178.393 m -25.921,2.19 0.079,1.917 0.525,-1.312 c 0.289,-0.722 0.253,-1.585 -0.079,-1.917 -0.332,-0.332 -0.568,0.258 -0.525,1.312 M 120.5,181 c 0.34,0.55 0.816,1 1.059,1 0.243,0 0.441,-0.45 0.441,-1 0,-0.55 -0.477,-1 -1.059,-1 h -1.059 l 0.618,1"
       stroke="none"
       fill="#0e552a"
       fill-rule="evenodd"
       id="path2" /></g></svg>
