<?xml version="1.0" encoding="UTF-8" standalone="no"?>
<svg
   viewBox="0 0 24 24"
   width="24pt"
   height="24pt"
   version="1.1"
   id="svg1"
   sodipodi:docname="multisport_gyms.svg"
   xml:space="preserve"
   inkscape:version="1.3 (0e150ed6c4, 2023-07-21)"
   xmlns:inkscape="http://www.inkscape.org/namespaces/inkscape"
   xmlns:sodipodi="http://sodipodi.sourceforge.net/DTD/sodipodi-0.dtd"
   xmlns="http://www.w3.org/2000/svg"
   xmlns:svg="http://www.w3.org/2000/svg"><defs
     id="defs1" /><sodipodi:namedview
     id="namedview1"
     pagecolor="#ffffff"
     bordercolor="#000000"
     borderopacity="0.25"
     inkscape:showpageshadow="2"
     inkscape:pageopacity="0.0"
     inkscape:pagecheckerboard="0"
     inkscape:deskcolor="#d1d1d1"
     inkscape:document-units="pt"
     inkscape:zoom="8.1648736"
     inkscape:cx="-23.637843"
     inkscape:cy="38.396185"
     inkscape:window-width="1920"
     inkscape:window-height="974"
     inkscape:window-x="-11"
     inkscape:window-y="1609"
     inkscape:window-maximized="1"
     inkscape:current-layer="svg1" /><g
     id="g1"
     transform="matrix(0.42275979,0,0,0.42275979,-235.50863,-79.131236)"><path
       d="m 596.67404,198.15752 c 0.093,0.0805 0.18601,0.161 0.28184,0.24394 0.13433,0.11385 0.13433,0.11385 0.27138,0.23 0.55631,0.48033 1.04946,0.98419 1.51287,1.55426 0.0848,0.10292 0.16963,0.20585 0.25701,0.31189 2.91883,3.61801 4.14216,8.13175 3.7267,12.74364 -0.48539,4.15988 -2.63011,8.35419 -5.87948,11.03192 -0.12334,0.10457 -0.12334,0.10457 -0.24917,0.21127 -3.66485,3.03608 -8.27277,4.30157 -12.98507,3.86211 -3.44034,-0.39097 -6.54456,-1.86795 -9.18047,-4.07338 -0.0967,-0.0808 -0.19349,-0.16158 -0.29316,-0.24482 -0.54945,-0.47414 -1.03156,-0.97852 -1.49109,-1.53944 -0.13757,-0.1628 -0.13757,-0.1628 -0.27792,-0.32888 -1.24886,-1.50722 -2.19238,-3.18017 -2.84453,-5.02389 -0.0489,-0.12707 -0.0978,-0.25415 -0.14811,-0.38507 -1.50411,-4.11366 -1.11158,-8.77447 0.68712,-12.72412 1.04709,-2.21126 2.57155,-4.30329 4.47921,-5.84852 0.10278,-0.0847 0.20556,-0.16934 0.31146,-0.25657 6.32437,-5.10355 15.60499,-5.02228 21.82141,0.23566 z"
       fill="#3642ae"
       id="path2"
       style="fill:#ffffff;stroke-width:0.111516" /><path
       d="m 592.7113,202.26967 c 2.41548,2.00345 4.00088,4.66586 4.29837,7.82332 0.25233,3.06957 -0.50874,5.9299 -2.44442,8.36044 -0.16738,0.19475 -0.33692,0.38768 -0.50879,0.57848 -0.0778,0.087 -0.15554,0.17394 -0.23566,0.26355 -1.86525,1.97436 -4.79244,3.33888 -7.50773,3.45394 -3.49494,0.057 -6.4205,-1.0903 -8.94916,-3.53627 -2.04698,-2.09874 -3.19442,-4.97409 -3.20608,-7.89673 0.041,-3.23894 1.32547,-6.00417 3.55457,-8.31491 1.35855,-1.32294 3.13325,-2.32842 4.96943,-2.81577 0.11184,-0.0331 0.22368,-0.0661 0.33891,-0.10019 3.36025,-0.87415 6.98117,0.10032 9.69056,2.18414 z"
       fill="#fefefe"
       id="path3"
       style="fill:#3440a9;fill-opacity:1;stroke-width:0.111516" /><path
       d="m 587.70005,204.08878 c 0.79891,0.48202 1.31771,1.34817 1.56122,2.23032 0.0324,0.32547 0.0339,0.64913 0.0342,0.97604 9.3e-4,0.0958 0.002,0.19167 0.003,0.29042 0.003,0.31577 0.004,0.63152 0.004,0.94731 10e-4,0.22085 0.002,0.44171 0.003,0.66257 0.002,0.46289 0.003,0.92576 0.003,1.38866 6e-4,0.59018 0.005,1.18027 0.01,1.77043 0.003,0.45637 0.004,0.91271 0.004,1.36909 4.7e-4,0.21739 0.002,0.43479 0.004,0.65217 0.0148,1.48953 -0.0568,2.69149 -1.06941,3.87552 -0.9307,0.75925 -1.79089,1.07336 -2.99046,1.04285 -0.51981,-0.0574 -0.91283,-0.219 -1.35866,-0.48527 -0.0697,-0.0391 -0.13944,-0.0782 -0.21127,-0.11849 -0.83332,-0.52287 -1.30598,-1.40752 -1.57299,-2.33486 -0.0445,-0.33643 -0.047,-0.66765 -0.0451,-1.00667 -10e-4,-0.14461 -10e-4,-0.14461 -0.002,-0.29215 -0.002,-0.31618 -0.002,-0.6323 -9.7e-4,-0.94849 -5.1e-4,-0.22134 -10e-4,-0.44268 -0.002,-0.66402 -9.9e-4,-0.46297 -7.2e-4,-0.92591 3.8e-4,-1.38887 10e-4,-0.59145 -9.7e-4,-1.18283 -0.004,-1.77427 -0.002,-0.45683 -0.002,-0.91364 -10e-4,-1.37048 2e-5,-0.21798 -6.5e-4,-0.43596 -0.002,-0.65394 -0.002,-0.30553 -4.7e-4,-0.61093 10e-4,-0.91646 -10e-4,-0.0888 -0.002,-0.17767 -0.003,-0.2692 0.0141,-1.08589 0.5466,-1.9869 1.28589,-2.75918 1.33348,-1.06008 2.89076,-1.0171 4.34912,-0.22303 z"
       fill="#3642ae"
       id="path4"
       style="fill:#ffffff;stroke-width:0.111516" /></g></svg>
