<svg xmlns="http://www.w3.org/2000/svg" width="24" height="24" viewBox="0 0 24 24"><path fill="#6a6a6a" fill-rule="evenodd" d="M11.25 2.8c-.03.11-.13.2-.2.2s-.3.16-.5.35c-.19.2-.43.35-.53.35s-.3.13-.46.3c-.46.47-1.08.51-1.2.07a3 3 0 0 0-.46-.66c-.35-.38-.47-.45-.9-.49-.42-.04-.52-.01-.75.22-.26.26-.26.27-.24 1.7.02 1.6-.03 1.78-.57 2-.2.1-.45.27-.56.4-.1.15-.26.26-.34.26s-.26.11-.4.25c-.32.32-.57.45-.88.45C3 8.2 3 8.2 3 9v.78l.39.07q.38.07.65.36c.14.16.35.29.45.29s.29.13.4.3c.12.15.37.34.56.4s.4.2.45.3.24.21.4.25.37.17.46.3c.08.13.28.28.44.35s.38.22.5.35c.13.13.35.27.5.3s.37.2.49.35c.12.17.28.3.36.3s.3.13.48.3c.18.15.45.32.59.35.14.04.35.2.47.36s.28.29.36.29.2.09.27.2c.1.17.24.2.78.2s.67-.03.78-.2c.07-.11.19-.2.27-.2s.24-.13.36-.3c.12-.15.33-.31.47-.35s.4-.2.6-.36c.18-.16.38-.3.45-.3s.33-.21.6-.48c.43-.45.47-.52.47-.98 0-.37-.05-.55-.2-.67-.24-.22-.53-.14-.68.2q-.12.23-.32.24c-.12 0-.33.12-.47.26-.15.15-.41.33-.59.4s-.39.23-.47.34a1 1 0 0 1-.44.3.8.8 0 0 0-.41.36c-.15.32-.56.32-.77 0-.1-.14-.3-.3-.47-.35a1.3 1.3 0 0 1-.49-.35 1 1 0 0 0-.5-.31 1 1 0 0 1-.45-.3 1 1 0 0 0-.43-.3 1 1 0 0 1-.5-.35c-.12-.17-.28-.3-.36-.3s-.3-.13-.47-.29a2 2 0 0 0-.58-.36 2 2 0 0 1-.5-.33 5 5 0 0 0-1.37-.91c-.36-.17-.43-.25-.43-.49 0-.28.06-.32.82-.7.04-.02.1.24.14.58l.07.61.55.25c.5.22.57.23.79.09s.23-.17.23-2c0-1.13.04-1.85.1-1.85.05 0 .16.14.25.3.09.17.2.3.26.3s.16.15.24.33.21.4.3.47c.1.08.25.3.36.52.1.2.28.42.4.48a1 1 0 0 1 .3.4c.06.15.21.32.35.38.13.07.24.19.24.27s.11.27.25.4c.14.15.35.47.48.73.21.46.24.47.7.5.56.04.82-.13.92-.58.03-.15.2-.4.35-.55.17-.16.3-.34.3-.41s.1-.2.23-.31.3-.3.37-.43c.07-.14.22-.3.32-.38.1-.07.27-.3.37-.5s.29-.45.4-.54.21-.25.21-.33.12-.25.26-.38c.14-.12.3-.32.35-.45q.1-.21.2-.2c.07.02.1 1.35.1 4.38 0 4.94-.04 4.7.78 4.7.26 0 .56-.07.68-.15l.22-.15V9.06c0-4.66-.03-5.78-.14-5.93-.18-.24-1.35-.27-1.43-.03-.03.08-.2.3-.39.47-.18.17-.33.37-.33.43 0 .1-.26.4-.9 1.08-.15.15-.31.4-.37.58-.06.16-.25.44-.42.61s-.31.38-.31.46c0 .07-.1.2-.24.26-.13.07-.3.28-.4.47-.08.19-.2.34-.26.34s-.2.21-.33.47c-.12.26-.3.5-.4.51-.23.05-.47-.15-.47-.4 0-.1-.16-.35-.35-.57-.2-.21-.35-.43-.35-.49s-.13-.2-.29-.31a1 1 0 0 1-.35-.44.6.6 0 0 0-.3-.35q-.26-.12-.26-.37c0-.2.08-.3.43-.44.23-.1.53-.3.66-.45.14-.14.32-.26.42-.26s.27-.13.39-.3.3-.3.39-.3.3.14.44.3c.15.17.33.3.4.3.06 0 .24.14.38.32.26.3.28.32.75.22.49-.09.49-.1.63-.63.14-.52.14-.54-.08-.72a1 1 0 0 0-.41-.19c-.17 0-.72-.39-1.28-.9-.18-.16-.36-.2-.87-.2-.55 0-.65.03-.7.2m7.3 4.23c-.2.16-.36.92-.24 1.24.05.13.2.28.34.33.38.14.35.64-.05.85-.3.16-.35.29-.3.95.02.44.3.75.58.66a.5.5 0 0 0 .27-.26c.03-.1.21-.24.4-.3.18-.06.4-.22.49-.35q.16-.22.56-.3l.4-.07V8.23l-.4-.07a1 1 0 0 1-.58-.3 1 1 0 0 0-.44-.31 1 1 0 0 1-.47-.36c-.24-.33-.3-.34-.55-.16M6.2 12.7c-.11.07-.16.33-.18 1.04-.04.85-.02.96.17 1.15.16.16.34.21.7.21.7 0 .81-.15.8-1.03 0-1.04-.03-1.13-.6-1.31-.55-.18-.68-.2-.89-.06"/></svg>