<svg xmlns="http://www.w3.org/2000/svg" width="24" height="24" viewBox="0 0 24 24"><path fill="#535051" fill-rule="evenodd" d="M11.4 4.67a.6.6 0 0 1-.15.33c-.14.15-.14.18 0 .3q.13.13.15.31c0 .1.04.19.1.19a.1.1 0 0 0 .1-.1q0-.1.2 0 .2.12.4 0 .2-.1.2 0 0 .09.1.1c.05 0 .1-.1.1-.21 0-.12.08-.28.18-.35.16-.12.16-.13 0-.2-.1-.03-.18-.17-.18-.3 0-.25-.15-.33-.23-.12q-.02.15-.2 0c-.14-.12-.2-.12-.34 0-.13.1-.17.1-.2 0-.07-.18-.23-.15-.23.05m.17.42q-.07.22.18.37c.32.21.65.04.65-.34v-.27l-.18.28c-.2.33-.23.33-.43 0-.16-.25-.16-.25-.22-.04M3 10.1c0 .91.03 1.1.15 1.1s.15-.15.15-.77v-.78l.4.45.4.45.4-.44.4-.44v.77c0 .7.02.76.2.76.2 0 .2-.05.18-1.07-.04-1.29-.14-1.38-.71-.63-.21.28-.42.5-.46.5s-.24-.22-.45-.5c-.58-.76-.66-.7-.66.6m2.9-.92.46.52c.28.3.33.44.36.9.02.43.07.56.2.58.15.03.18-.05.18-.51 0-.5.03-.58.45-1.05.5-.55.53-.62.29-.62-.09 0-.33.2-.54.43l-.38.42-.37-.42C6.35 9.18 6.1 9 5.98 9c-.18 0-.19.02-.07.18m2.69.92v1.1h.85c.69 0 .85-.03.85-.15s-.14-.15-.7-.15h-.7v-.95c0-.78-.03-.95-.15-.95s-.15.19-.15 1.1m2.75 0c-.47.94-.52 1.1-.37 1.1.1 0 .24-.11.3-.25.1-.23.17-.25.72-.25s.62.02.72.25c.06.14.2.25.29.25.15 0 .1-.15-.28-.97-.49-1.04-.6-1.23-.74-1.23-.05 0-.34.5-.64 1.1m2.32-1.03c-.04.03-.07.53-.07 1.1 0 .96.01 1.03.2 1.03.17 0 .2-.08.22-.79l.03-.79.68.8c.37.43.74.78.82.78.12 0 .15-.2.15-1.1S15.67 9 15.55 9s-.15.18-.17.82l-.03.83-.7-.83c-.66-.78-.83-.9-.98-.75m2.73 1.03v1.1h.66q1.44 0 1.44-1.05c0-.74-.52-1.15-1.47-1.15h-.63zm2.8-.9c-.44.44-.12.87.74 1 .66.08.86.22.7.48-.15.23-.98.28-1.3.08-.29-.2-.3-.2-.38 0-.09.23.76.58 1.21.5q.84-.12.83-.7c0-.43-.19-.58-.86-.67-.3-.04-.62-.13-.7-.2-.4-.32.59-.55 1.04-.23.22.15.42.12.42-.06s-.59-.4-1.04-.4c-.33 0-.52.06-.66.2m-2.4.9v.8h.4c.52 0 .68-.07.86-.41.3-.58-.15-1.19-.87-1.19h-.39zm-5.03-.15-.17.35h.8l-.17-.35c-.1-.2-.2-.35-.23-.35s-.14.16-.23.35M7.8 13q-.01.1-.2.05c-.16-.05-.2-.02-.2.2 0 .26.14.34.24.13q.06-.15.12 0 .06.1.15.12c.12 0 .12-.47-.01-.55q-.09-.04-.1.05m.42.08c-.13.25-.04.42.23.42s.4-.26.24-.46-.37-.17-.47.04M9.65 13c-.08.12-.08.11.2.28q.3.16-.02.06-.22-.05-.23.04c0 .14.47.14.55.01.08-.14-.13-.5-.3-.5a.3.3 0 0 0-.2.1m3.55.04c-.18.22-.05.48.22.44q.24-.02.23-.28c0-.29-.26-.38-.45-.16m1.4 0c-.18.22-.05.48.22.44.26-.03.37-.36.16-.5-.18-.11-.24-.1-.38.07m1.47-.08c-.1.1-.08.53.03.53q.09-.01.1-.11 0-.12.14 0 .14.14.19-.08c.07-.3-.26-.54-.46-.34"/></svg>