<?xml version="1.0" encoding="UTF-8" standalone="no"?>
<svg
   viewBox="0 0 24 24"
   width="24pt"
   height="24pt"
   version="1.1"
   id="svg1"
   sodipodi:docname="nanas_green_tea.svg"
   xml:space="preserve"
   inkscape:version="1.3 (0e150ed6c4, 2023-07-21)"
   xmlns:inkscape="http://www.inkscape.org/namespaces/inkscape"
   xmlns:sodipodi="http://sodipodi.sourceforge.net/DTD/sodipodi-0.dtd"
   xmlns="http://www.w3.org/2000/svg"
   xmlns:svg="http://www.w3.org/2000/svg"><defs
     id="defs1" /><sodipodi:namedview
     id="namedview1"
     pagecolor="#ffffff"
     bordercolor="#000000"
     borderopacity="0.25"
     inkscape:showpageshadow="2"
     inkscape:pageopacity="0.0"
     inkscape:pagecheckerboard="0"
     inkscape:deskcolor="#d1d1d1"
     inkscape:document-units="pt"
     inkscape:zoom="16.329747"
     inkscape:cx="28.16945"
     inkscape:cy="17.238479"
     inkscape:window-width="1920"
     inkscape:window-height="974"
     inkscape:window-x="-11"
     inkscape:window-y="1609"
     inkscape:window-maximized="1"
     inkscape:current-layer="svg1" /><g
     id="g1"
     transform="matrix(0.03399948,0,0,0.03399948,-6.3444005,-15.597604)"><ellipse
       style="fill:#ffffff;stroke-width:24.7063"
       id="path2"
       cx="539.50092"
       cy="749.1944"
       rx="229.96999"
       ry="226.94405" /><path
       d="m 390.35877,607.44476 c 0.98232,0 1.96465,0 2.97676,0 8.76535,17.18446 17.24985,34.46944 25.30232,52.00002 7.93839,17.27115 16.19581,34.37228 24.55811,51.44188 11.47538,23.427 22.64486,46.97127 33.48843,70.69769 -2.04083,-9.67562 -4.08894,-19.3497 -6.13954,-29.02327 -0.31885,-1.50572 -0.63769,-3.01145 -0.96611,-4.56281 -4.14597,-19.56318 -8.36439,-39.1091 -12.68232,-58.63497 -0.72125,-3.26224 -1.44141,-6.52473 -2.16111,-9.78729 -0.47794,-2.16585 -0.95598,-4.33168 -1.43393,-6.4975 -0.23574,-1.06811 -0.47148,-2.13623 -0.71432,-3.23672 -1.41617,-6.41173 -2.84117,-12.82141 -4.2721,-19.22985 -0.68197,-3.06084 -1.35966,-6.12258 -2.03553,-9.18476 -0.83233,-3.76978 -1.67177,-7.53801 -2.51932,-11.30438 -0.3696,-1.68296 -0.73929,-3.36594 -1.1201,-5.09991 -0.32522,-1.46137 -0.65053,-2.92276 -0.98569,-4.42843 -0.72918,-4.45362 -0.81119,-8.64478 -0.6909,-13.1497 0.98232,0 1.96464,0 2.97676,0 10.28548,29.07431 20.43627,58.19095 30.1745,87.45352 0.49608,1.49057 0.49608,1.49057 1.00218,3.01127 3.29816,9.91406 6.58629,19.83142 9.86048,29.7534 0.93621,2.83523 1.87461,5.66972 2.81301,8.50418 1.14798,3.46782 2.29214,6.93685 3.43165,10.40746 3.7474,11.31164 7.88782,22.43399 12.25313,33.52139 -0.14917,-1.83373 -0.29834,-3.66743 -0.45207,-5.55671 -1.41115,-17.36146 -2.81282,-34.72367 -4.20539,-52.08663 -0.71605,-8.92439 -1.43539,-17.84851 -2.16229,-26.77202 -0.70266,-8.62693 -1.39657,-17.25454 -2.08456,-25.88266 -0.26271,-3.27606 -0.52852,-6.55188 -0.79752,-9.82743 -1.4394,-17.54757 -2.64698,-34.91144 -2.20512,-52.52577 0.98232,0 1.96465,0 2.97667,0 0.16603,0.82651 0.33206,1.65301 0.5031,2.50455 4.04538,20.13869 8.09549,40.27643 12.15061,60.41316 1.961,9.7381 3.92036,19.47653 5.87616,29.21568 1.88773,9.40028 3.77966,18.7997 5.6744,28.19858 0.72189,3.58447 1.44232,7.16921 2.16111,10.75427 1.00784,5.02451 2.02087,10.04795 3.03508,15.07114 0.29552,1.47955 0.59094,2.95908 0.89539,4.48346 0.27966,1.37936 0.55923,2.75874 0.84727,4.17991 0.23875,1.18676 0.47749,2.37351 0.72344,3.59622 1.10187,4.79054 2.504,9.50775 3.85447,14.23425 5.15718,-84.72561 5.15718,-84.72561 10.41852,-171.16285 1.47357,0 2.94705,0 4.46518,0 0.62922,8.83659 1.24768,17.67391 1.8604,26.51165 0.0967,1.39132 0.19327,2.78267 0.29287,4.21615 1.40769,20.3789 2.68763,40.76361 3.88163,61.15596 0.0656,1.12655 0.13231,2.25312 0.20038,3.41382 0.66639,11.35026 1.32768,22.70078 1.97211,34.0523 0.24458,4.28845 0.49399,8.57661 0.7444,12.86473 0.17259,2.98579 0.33862,5.97197 0.50455,8.95813 0.15719,2.68036 0.15719,2.68036 0.31757,5.41489 0.13359,2.34613 0.13359,2.34613 0.26973,4.73966 0.24476,4.04621 0.24476,4.04621 1.86331,8.34719 0.16603,-0.83692 0.33206,-1.67383 0.5031,-2.5361 4.04191,-20.37432 8.09194,-40.74701 12.15061,-61.11801 1.96264,-9.85135 3.92254,-19.70319 5.87607,-29.55631 1.885,-9.50698 3.77747,-19.01244 5.67449,-28.51701 0.72289,-3.62825 1.44332,-7.25701 2.16111,-10.88627 1.00501,-5.07913 2.01895,-10.15642 3.03508,-15.23337 0.44323,-2.25622 0.44323,-2.25622 0.89539,-4.55804 0.27957,-1.3878 0.55923,-2.77561 0.84727,-4.20548 0.35812,-1.8007 0.35812,-1.8007 0.72344,-3.6378 0.96191,-3.80604 2.32431,-7.30326 3.85438,-10.91446 1.47348,0.73674 1.47348,0.73674 2.97676,1.48837 -1.05923,14.28554 -2.12083,28.57088 -3.1838,42.85613 -0.25688,3.45382 -0.51358,6.90764 -0.77018,10.36147 -3.3511,45.08584 -3.3511,45.08584 -4.9763,65.24755 -0.10671,1.32695 -0.21342,2.65389 -0.3234,4.02104 -0.47257,5.85444 -0.95234,11.70815 -1.44296,17.56109 -0.16511,2.01914 -0.33023,4.03827 -0.49526,6.05741 -0.13969,1.66465 -0.27939,3.32927 -0.42327,5.04434 -0.23182,4.07515 -0.32176,8.07097 -0.31001,12.14839 0,1.19696 0.009,2.39395 0.009,3.62718 0.009,1.3612 0.009,1.3612 0.01,2.74988 0.50765,-1.51106 1.0154,-3.0221 1.53845,-4.57896 4.85374,-14.44444 9.71167,-28.88746 14.57352,-43.3292 2.49763,-7.41948 4.99398,-14.8394 7.48687,-22.26047 11.18087,-33.28003 22.42562,-66.51851 34.44802,-99.50585 1.47348,0 2.94696,0 4.46509,0 -1.75542,8.56065 -3.52487,17.11835 -5.30234,25.67443 -0.28112,1.35371 -0.56233,2.7074 -0.85201,4.10212 -4.23045,20.31427 -8.61846,40.59162 -13.10141,60.85139 -0.2526,1.14165 -0.5051,2.28331 -0.76526,3.45955 -2.5523,11.5352 -5.11217,23.06871 -7.68525,34.5993 -0.97312,4.36398 -1.94259,8.72876 -2.91142,13.09368 -0.45708,2.05452 -0.91599,4.10865 -1.37662,6.16237 -0.63413,2.82723 -1.26207,5.65586 -1.88974,8.48454 -0.53435,2.39253 -0.53435,2.39253 -1.07946,4.8334 -0.89757,4.00935 -0.89757,4.00935 -0.75742,8.4137 10.69226,-21.93297 21.34898,-43.87266 31.53495,-66.04653 9.46436,-20.57888 19.40849,-40.9175 29.39062,-61.24929 7.13914,-14.55057 14.1528,-29.1464 20.93491,-43.86703 0.98232,0 1.96464,0 2.97676,0 -0.81483,9.81554 -3.37333,18.18147 -6.77327,27.39536 -0.81611,2.25895 -0.81611,2.25895 -1.64881,4.56353 -1.80162,4.97908 -3.62019,9.9518 -5.43839,14.92485 -1.28057,3.53183 -2.55978,7.06419 -3.83752,10.59701 -1.9969,5.51949 -3.99435,11.03874 -5.99772,16.55586 -6.40631,17.64406 -12.72442,35.31916 -19.02686,53.00055 -3.08556,8.65535 -6.17604,17.30899 -9.26579,25.9629 -1.24759,3.49514 -2.49517,6.9903 -3.74276,10.48546 -3.90531,10.93972 -7.81373,21.87835 -11.72242,32.81686 -1.95972,5.48501 -3.91944,10.97004 -5.87916,16.45504 -1.27319,3.56323 -2.54656,7.12641 -3.82011,10.68951 -5.8911,16.48233 -11.78065,32.96499 -17.60304,49.47176 -0.59723,1.6917 -0.59723,1.6917 -1.20667,3.41759 -1.76444,4.99849 -3.52479,9.99831 -5.27629,15.00138 -0.57927,1.64413 -1.15855,3.28824 -1.75542,4.98219 -0.73291,2.09207 -0.73291,2.09207 -1.48068,4.22638 -1.19956,3.08177 -1.19956,3.08177 -2.68789,4.57015 -2.83151,0.13975 -5.6683,0.17478 -8.50327,0.16897 -1.81757,-1.2e-4 -3.63523,-2.4e-4 -5.50783,-3.5e-4 -1.99827,-0.007 -3.99653,-0.0153 -5.99471,-0.0232 -2.03344,-0.003 -4.06688,-0.005 -6.10032,-0.006 -5.36112,-0.006 -10.72215,-0.0204 -16.08318,-0.0367 -5.467,-0.0152 -10.93392,-0.0221 -16.40083,-0.0294 -10.73354,-0.0165 -21.46708,-0.042 -32.20062,-0.0733 -14.9228,-40.75948 -29.74431,-81.54611 -44.09302,-122.51168 -9.12757,-26.05699 -18.35008,-52.07599 -27.72095,-78.04653 -1.10278,-3.05896 -2.20548,-6.11795 -3.30818,-9.17696 -4.34326,-12.04483 -8.68998,-24.08837 -13.05083,-36.12683 -2.67532,-7.38602 -5.34162,-14.77522 -8.00199,-22.1666 -0.99034,-2.74583 -1.98414,-5.4904 -2.9815,-8.23366 -1.36349,-3.75065 -2.71532,-7.50529 -4.06451,-11.26109 -0.60479,-1.65014 -0.60479,-1.65014 -1.2218,-3.33361 -1.82258,-5.11064 -2.72006,-8.75845 -2.72006,-14.25942 z m 217.3024,174.13959 c 1.48843,2.97675 1.48843,2.97675 1.48843,2.97675 z m -26.79065,1.48837 c 1.48833,4.46512 1.48833,4.46512 1.48833,4.46512 z"
       fill="#000000"
       id="path1-2"
       style="stroke-width:1.48837" /></g></svg>
