<?xml version="1.0" encoding="UTF-8" standalone="no"?>
<!-- Generator: Gravit.io -->

<svg
   style="isolation:isolate"
   viewBox="0 0 24 24"
   width="24pt"
   height="24pt"
   version="1.1"
   id="svg7262"
   xmlns="http://www.w3.org/2000/svg"
   xmlns:svg="http://www.w3.org/2000/svg">
  <defs
     id="defs7063">
    <clipPath
       id="_clipPath_OQIqtg9hbvv6MQS3GA37G8007xq6wAre">
      <rect
         width="24"
         height="24"
         id="rect7060"
         x="0"
         y="0" />
    </clipPath>
  </defs>
  <g
     clip-path="url(#_clipPath_OQIqtg9hbvv6MQS3GA37G8007xq6wAre)"
     id="g7260">
    <g
       id="g7258">
      <path
         d="m 12.111,3.617 c 0.023,0 0.035,0.012 0.131,0.012 0.105,0.03 0.223,0.072 0.332,0.098 0.07,0.015 0.154,0.016 0.227,0.05 0.094,0.037 0.2,0.098 0.285,0.161 0.082,0.056 0.155,0.146 0.249,0.232 0.024,0.024 0.06,0.065 0.093,0.109 0.037,0.057 0.049,0.135 0.084,0.2 0.002,0.018 0.035,0.036 0.038,0.054 0.045,0.094 0.116,0.296 0.116,0.32 0,0.024 -0.023,0.102 -0.023,0.128 0,0.026 0.075,0.211 0.074,0.235 0,0.024 -0.026,0.114 -0.039,0.173 -0.011,0.005 -0.022,0.014 -0.024,0.023 -0.02,0.056 -0.033,0.083 -0.057,0.137 -0.012,0.041 0.01,0.091 -0.002,0.139 -0.01,0.033 -0.024,0.07 -0.034,0.099 -10e-4,0.023 -0.014,0.049 -0.026,0.065 -0.094,0.083 -0.163,0.175 -0.212,0.286 -0.024,0 -0.049,0.011 -0.07,0.018 -10e-4,0.006 -10e-4,0.029 -0.002,0.041 -0.036,0.029 -0.094,0.047 -0.13,0.083 -0.037,0.03 -0.072,0.083 -0.109,0.108 -0.034,0.023 -0.081,0.035 -0.117,0.052 0.095,0.128 0.248,0.137 0.37,0.22 0,0 0.011,-0.005 0.022,0 0.083,0.056 0.177,0.084 0.238,0.143 0.082,0.071 0.108,0.126 0.201,0.167 v 0.065 c -0.035,0.048 -0.047,0.042 -0.081,0.09 -0.061,0.1 -0.167,0.19 -0.226,0.262 -0.025,0.041 -0.096,0.036 -0.142,0.065 -0.027,0.028 -0.096,0.059 -0.096,0.083 0,0.024 0.034,0.053 0.034,0.066 0.095,0.023 0.12,0.136 0.213,0.214 0.013,0.011 0.014,0.046 0.036,0.07 0.074,0.104 0.11,0.202 0.121,0.303 0.011,0.096 -0.012,0.114 -0.012,0.138 0,0.082 -0.156,0.162 -0.178,0.162 -0.025,0 -0.12,-0.044 -0.167,-0.074 -0.047,-0.03 -0.071,-0.088 -0.095,-0.118 -0.011,0.047 -0.013,0.131 -0.013,0.155 0,0.024 0.024,0.171 0.024,0.195 0,0.024 -0.034,0.149 -0.034,0.173 0,0.025 0.023,0.071 0.023,0.101 0,0.012 0,0.197 -10e-4,0.22 -0.011,0.064 -0.046,0.19 -0.082,0.238 -0.001,0.077 -0.012,0.219 -0.012,0.243 -10e-4,0.168 -0.072,0.136 -0.072,0.257 0,0.035 0.013,0.041 0.035,0.041 0.024,0 0.168,-0.037 0.192,-0.037 0.024,0 0.214,0.031 0.238,0.031 0.024,0 0.035,-0.018 0.059,-0.018 0.024,0 0.144,0.041 0.215,0.053 0.012,0.007 0.034,0.03 0.045,0.036 0.132,0.059 0.252,0.113 0.357,0.243 0.01,10e-4 0.025,0.012 0.037,0.013 0.07,0.1 0.128,0.167 0.165,0.261 0.024,0.065 0.109,0.107 0.145,0.173 0.056,0.09 0.068,0.248 0.153,0.327 0,0.29 0.011,0.273 0.011,0.362 0,0.006 -0.022,0.083 -0.045,0.1 0.046,0.018 0.011,0.072 0.023,0.108 0.01,0.03 0.024,0.084 0.024,0.113 0,0.024 -0.003,0.048 -0.012,0.19 -0.062,0.024 -0.049,0.114 -0.072,0.149 -0.024,0.03 -0.071,0.059 -0.084,0.089 -0.035,0.06 -0.049,0.137 -0.085,0.203 -0.058,0.036 -0.083,0.106 -0.093,0.16 -0.011,0.005 -0.025,0.023 -0.035,0.041 -0.001,0.018 10e-4,0.059 -0.014,0.083 -0.08,0.088 -0.129,0.269 -0.191,0.377 -0.032,0.046 -0.069,0.107 -0.104,0.154 -0.035,0.046 -0.085,0.06 -0.118,0.104 -0.026,0.038 -0.06,0.099 -0.096,0.156 -0.047,0.061 -0.095,0.13 -0.141,0.189 0,0 0.009,0.003 0.008,0.015 -0.08,0.009 -0.131,0.13 -0.165,0.164 -0.024,0.015 -0.059,0.026 -0.084,0.036 0,0.011 -10e-4,0.023 -0.01,0.025 -0.036,0.024 -0.05,0.072 -0.086,0.108 -0.036,0.02 -0.071,0.059 -0.119,0.093 -0.035,0.014 -0.069,0.036 -0.105,0.059 -0.012,0.002 -0.037,10e-4 -0.058,0.013 -0.05,0.047 -0.108,0.118 -0.167,0.166 0,0.084 -0.038,0.251 -0.038,0.275 0,0.033 0.014,0.141 0.048,0.203 0.011,0.022 0.026,0.023 0.026,0.047 -10e-4,0.032 -0.015,0.021 -0.024,0.045 0,0.024 0.046,0.085 0.045,0.11 0,0.032 -0.011,0.08 -0.011,0.104 0,0.025 -0.011,0.06 -0.013,0.085 -0.033,0.024 -0.035,0.049 -0.035,0.081 0,0.024 0.002,0.025 10e-4,0.026 0.108,0.071 0.239,0.141 0.345,0.225 0.058,0.047 0.109,0.12 0.166,0.177 0.025,0.037 0.308,0.369 0.308,0.405 0,0.024 -0.046,0.047 -0.047,0.061 -0.022,0.012 -0.036,0.012 -0.06,0.012 -0.024,0 -0.212,-0.071 -0.321,-0.106 -0.022,-0.002 -0.046,0.01 -0.081,-10e-4 -0.049,-0.012 -0.13,-0.036 -0.154,-0.036 -0.048,0 -0.084,0.06 -0.121,0.059 -0.024,0 -0.166,-0.037 -0.19,-0.037 -0.024,-10e-4 -0.058,0.014 -0.082,0.014 -0.024,0 -0.38,-0.083 -0.404,-0.083 -0.096,-10e-4 0.01,0.023 -0.24,0.021 -0.06,0 -0.154,0.06 -0.178,0.06 -0.048,0 -0.069,-0.035 -0.142,-0.035 -0.024,0 -10e-4,-0.022 -0.025,-0.022 -0.033,0 -0.082,0.034 -0.119,0.035 -0.057,0.009 -0.106,-0.013 -0.153,0 -0.108,0.035 -0.298,0.119 -0.323,0.119 -0.024,0 -0.07,-0.049 -0.07,-0.073 0,-0.024 0.06,-0.131 0.094,-0.179 0.086,-0.082 0.179,-0.187 0.288,-0.285 0.021,-0.012 0.048,-0.024 0.07,-0.036 0.023,-0.021 0.037,-0.057 0.06,-0.069 0.025,-0.013 0.058,-0.013 0.082,-0.035 0.095,-0.073 0.238,-0.182 0.238,-0.214 0,-0.024 -0.022,-0.155 -0.022,-0.179 0,-0.024 0.023,-0.179 0.023,-0.202 0,-0.025 -0.025,-0.252 -0.025,-0.275 0,-0.035 0.048,-0.239 0.06,-0.272 C 11.705,14.26 11.708,14.21 11.671,14.164 11.587,14.068 11.445,13.986 11.351,13.902 11.324,13.867 11.3,13.808 11.256,13.761 11.182,13.674 11.112,13.579 11.016,13.497 10.934,13.426 10.84,13.377 10.768,13.285 10.635,13.127 10.52,12.964 10.365,12.783 10.314,12.713 10.326,12.617 10.292,12.54 10.267,12.475 10.211,12.427 10.175,12.361 10.157,12.326 10.11,12.279 10.086,12.226 10.077,12.22 10.089,12.195 10.077,12.178 10.056,12.154 10.032,12.13 10.021,12.1 9.993,12 9.875,11.613 9.876,11.428 c 0,-0.024 -10e-4,-0.112 0.013,-0.171 0.019,-0.048 0.058,-0.119 0.06,-0.143 0,-0.024 -0.027,-0.078 -0.027,-0.102 0,-0.028 0.071,-0.243 0.116,-0.362 0.004,-0.011 0.015,-0.011 0.024,-0.018 0.002,-0.041 0.04,-0.096 0.04,-0.124 C 10.103,10.454 9.982,10.406 9.97,10.394 9.884,10.323 9.744,10.317 9.634,10.299 9.563,10.287 9.455,10.223 9.427,10.223 9.375,10.223 9.3,10.288 9.245,10.317 9.178,10.353 9.083,10.383 9.019,10.448 8.983,10.484 8.96,10.549 8.924,10.603 8.912,10.626 8.881,10.65 8.859,10.685 8.841,10.71 8.787,10.847 8.787,10.911 c -0.001,0.024 -0.053,0.137 -0.053,0.161 0,0.029 0.029,0.166 0.029,0.191 0,0.023 -0.019,0.106 -0.019,0.13 0,0.024 0.054,0.06 0.062,0.094 0.01,0.03 -0.006,0.072 0.006,0.108 0.01,0.025 0.046,0.059 0.071,0.072 0.005,0.01 0.017,0.023 0.017,0.047 0,0.06 -0.078,0.077 -0.107,0.077 -0.024,0 -0.023,-0.012 -0.041,-0.018 C 8.674,11.755 8.579,11.768 8.502,11.744 8.376,11.702 8.274,11.672 8.168,11.642 8.115,11.63 8.052,11.59 7.996,11.56 7.907,11.511 7.806,11.47 7.734,11.406 7.639,11.328 7.556,11.262 7.455,11.191 7.391,11.149 7.284,11.078 7.241,10.995 7.235,10.988 7.226,10.989 7.217,10.983 7.187,10.959 7.159,10.912 7.141,10.888 7.11,10.845 7.062,10.799 7.028,10.745 6.997,10.691 6.956,10.595 6.944,10.513 6.943,10.495 6.908,10.477 6.891,10.447 6.856,10.383 6.86,10.292 6.837,10.215 6.802,10.092 6.73,9.967 6.712,9.846 c -0.011,-0.058 0,-0.13 0,-0.189 C 6.712,9.634 6.688,9.61 6.679,9.586 6.659,9.52 6.647,9.401 6.647,9.377 6.647,9.35 6.66,9.324 6.665,9.295 6.682,9.188 6.7,9.135 6.7,9.044 6.701,9.02 6.706,8.891 6.73,8.825 6.807,8.611 6.945,8.361 7.052,8.242 7.057,8.231 7.057,8.224 7.058,8.213 7.087,8.171 7.128,8.147 7.141,8.112 7.203,8.004 7.277,7.863 7.372,7.767 7.384,7.766 7.402,7.755 7.413,7.754 7.438,7.726 7.479,7.68 7.514,7.649 7.615,7.564 7.754,7.481 7.89,7.375 7.973,7.311 8.073,7.279 8.156,7.238 8.262,7.184 8.413,7.124 8.55,7.061 8.662,7.012 8.805,7.017 8.923,7 8.99,6.988 9.072,6.982 9.15,6.969 9.169,6.964 9.202,6.981 9.217,6.976 9.292,6.959 9.407,6.937 9.432,6.937 9.458,6.94 9.533,6.978 9.558,6.981 c 0.029,0 0.053,-0.022 0.079,-0.022 0.024,0 0.051,0.022 0.083,0.024 0.038,0.005 0.095,-0.013 0.142,0.002 0.096,0.032 0.179,0.068 0.275,0.127 0.068,0.037 0.155,0.025 0.228,0.055 0.045,0.019 0.092,0.049 0.129,0.064 0.012,0.007 0.012,0.018 0.023,0.024 0.059,0.024 0.131,0.048 0.189,0.079 0.085,0.048 0.097,0.117 0.155,0.172 0.002,0.028 0.002,0.058 0.002,0.084 0.036,0.029 0.071,0.059 0.106,0.087 0.118,0.083 0.263,0.186 0.32,0.276 0.049,0.099 0.085,0.313 0.085,0.337 0,0.024 -0.026,0.054 -0.026,0.082 0,0.024 0.085,0.149 0.085,0.173 0,0.025 -0.034,0.101 -0.034,0.125 -10e-4,0.054 0.033,0.143 0.058,0.166 0.011,0.031 -0.014,0.084 0.023,0.107 v 0.228 c 0,0.025 -0.023,0.017 -0.023,0.041 0,0.024 0.023,0.058 0.022,0.082 0,0.007 -0.01,0.037 -0.036,0.071 0.024,0.162 -0.081,0.268 -0.081,0.392 0,0.02 0,0.03 0.022,0.043 0.036,0.005 0.097,0.024 0.121,0.024 0.024,0 0.105,-0.018 0.129,-0.018 0.024,0 0.085,0.012 0.12,0.03 L 11.776,9.823 C 11.743,9.771 11.753,9.688 11.741,9.627 11.729,9.556 11.683,9.443 11.683,9.419 c 0,-0.024 0.023,-0.106 0.023,-0.13 0,-0.024 -0.011,-0.155 -0.023,-0.222 C 11.681,9.033 11.658,9.009 11.645,8.979 11.636,8.968 11.648,8.944 11.647,8.928 11.612,8.837 11.527,8.497 11.527,8.349 V 8.206 c 0,-0.024 -0.022,-0.047 -0.022,-0.07 0,-0.108 -0.047,-0.22 -0.072,-0.327 C 11.422,7.779 11.443,7.737 11.431,7.712 11.397,7.648 11.396,7.583 11.396,7.535 11.396,7.511 11.409,7.44 11.419,7.387 11.446,7.202 11.48,7 11.517,6.803 11.528,6.762 11.586,6.726 11.601,6.684 11.612,6.667 11.612,6.631 11.634,6.607 11.683,6.53 11.741,6.473 11.79,6.417 11.909,6.364 12.04,6.305 12.158,6.25 12.17,6.173 12.207,6.019 12.207,5.995 12.207,5.971 12.17,5.816 12.147,5.727 12.145,5.716 12.123,5.698 12.112,5.686 12.109,5.573 11.92,5.437 11.826,5.437 11.801,5.437 11.8,5.451 11.777,5.463 11.755,5.472 11.72,5.46 11.706,5.468 11.66,5.49 11.623,5.55 11.588,5.561 11.564,5.568 11.517,5.58 11.482,5.604 11.445,5.633 11.41,5.677 11.375,5.71 c -0.038,0.047 -0.086,0.208 -0.086,0.285 0,0.054 0.038,0.077 0.073,0.172 0,0 -0.011,0.007 -0.012,0.023 L 11.256,6.187 C 11.113,6.186 10.945,6.073 10.85,5.965 10.828,5.941 10.826,5.888 10.803,5.864 10.707,5.724 10.574,5.502 10.544,5.323 10.541,5.294 10.553,5.257 10.553,5.231 10.554,5.205 10.538,5.116 10.538,5.091 c 0,-0.023 -0.006,-0.075 0.014,-0.112 0.049,-0.125 0.013,-0.236 0.06,-0.337 0.06,-0.139 0.155,-0.263 0.228,-0.374 0.024,-0.036 0.081,-0.068 0.116,-0.097 0.074,-0.061 0.121,-0.118 0.205,-0.177 0.045,-0.025 0.07,-0.068 0.106,-0.092 0.178,-0.112 0.426,-0.22 0.607,-0.213 0.082,0.002 0.212,-0.072 0.237,-0.072 z"
         fill="#070909"
         id="path7067" />
      <path
         d="m 9.483,7.107 c 0.026,0 0.166,0.047 0.247,0.059 0.038,0.006 0.086,0.023 0.124,0.025 0.033,0.005 0.068,-0.007 0.093,0.001 0.08,0.028 0.133,0.095 0.228,0.14 0.339,0.143 0.579,0.488 0.747,0.788 0.13,0.224 0.212,0.496 0.248,0.74 10e-4,0.036 -0.01,0.115 -0.01,0.142 l -10e-4,0.126 c 0,0.024 0.034,0.088 0.025,0.112 0,0.025 -0.024,0.269 -0.05,0.41 C 11.123,9.687 11.088,9.746 11.063,9.781 11.029,9.812 10.992,9.87 10.933,9.884 10.885,9.9 10.816,9.87 10.768,9.878 c -0.026,0.01 -0.071,0.059 -0.122,0.094 -0.117,0.065 -0.247,0.167 -0.322,0.279 -0.09,-0.005 -0.083,-0.066 -0.154,-0.1 -0.057,-0.024 -0.128,-0.037 -0.177,-0.049 -0.13,-0.029 -0.358,-0.047 -0.382,-0.047 -0.024,0 -0.197,0.007 -0.221,0.007 -0.026,0 -0.126,0.005 -0.182,0.022 -0.069,0.019 -0.13,0.073 -0.201,0.12 -0.042,0.029 -0.167,0.042 -0.183,0.136 -0.044,0.036 -0.114,0.048 -0.143,0.102 -0.114,0.213 -0.132,0.161 -0.132,0.285 0,0.024 -0.047,0.101 -0.054,0.149 -0.012,0.07 -0.04,0.184 -0.041,0.208 v 0.201 c 0,0.108 0.059,0.143 0.107,0.274 C 8.395,11.506 8.239,11.458 8.079,11.399 7.949,11.274 7.782,11.155 7.664,11.018 7.645,10.995 7.635,10.958 7.604,10.93 7.568,10.906 7.515,10.887 7.485,10.851 7.415,10.768 7.343,10.679 7.259,10.567 7.235,10.537 7.23,10.488 7.224,10.447 7.223,10.436 7.199,10.418 7.189,10.395 7.199,10.354 7.199,10.306 7.193,10.269 7.17,10.251 7.146,10.215 7.134,10.179 7.087,10.073 7.092,9.954 7.069,9.847 7.056,9.776 7.015,9.704 6.986,9.627 6.968,9.573 6.967,9.461 6.967,9.437 6.967,9.413 7.01,9.199 7.027,9.08 7.033,9.021 7.033,8.92 7.057,8.86 7.07,8.824 7.092,8.772 7.092,8.747 7.092,8.723 7.063,8.712 7.063,8.688 7.063,8.663 7.099,8.616 7.105,8.581 7.11,8.552 7.112,8.517 7.112,8.492 7.116,8.468 7.146,8.462 7.152,8.451 7.164,8.432 7.164,8.403 7.165,8.373 7.176,8.361 7.199,8.361 7.217,8.348 7.236,8.331 7.247,8.313 7.256,8.295 7.278,8.29 7.309,8.277 7.321,8.254 7.337,8.218 7.366,8.164 7.397,8.117 7.414,8.094 7.461,8.081 7.486,8.063 7.521,8.034 7.538,7.998 7.563,7.968 7.567,7.95 7.556,7.914 7.569,7.897 7.61,7.85 7.669,7.862 7.717,7.834 7.728,7.82 7.735,7.779 7.759,7.772 7.913,7.708 7.973,7.612 8.139,7.528 8.169,7.516 8.187,7.477 8.187,7.445 8.233,7.445 8.263,7.422 8.299,7.421 8.318,7.405 8.336,7.379 8.353,7.35 8.384,7.338 8.418,7.308 8.442,7.303 8.465,7.308 8.49,7.308 8.508,7.303 8.549,7.268 8.603,7.255 8.65,7.234 8.673,7.226 8.69,7.201 8.721,7.172 c 0.083,0 0.186,-0.021 0.287,-0.036 0.13,-0.023 0.367,-0.011 0.391,-0.011 0.024,0 0.06,-0.018 0.084,-0.018 z"
         fill="#da1f31"
         id="path7069" />
      <path
         d="m 9.483,7.107 c 0.026,0 0.166,0.047 0.247,0.059 0.038,0.006 0.086,0.023 0.124,0.025 0.033,0.005 0.068,-0.007 0.093,0.001 0.08,0.028 0.133,0.095 0.228,0.14 0.339,0.143 0.579,0.488 0.747,0.788 0.13,0.224 0.212,0.496 0.248,0.74 10e-4,0.036 -0.01,0.115 -0.01,0.142 l -10e-4,0.126 c 0,0.024 0.034,0.088 0.025,0.112 0,0.025 -0.024,0.269 -0.05,0.41 C 11.123,9.687 11.088,9.746 11.063,9.781 11.029,9.812 10.992,9.87 10.933,9.884 10.885,9.9 10.816,9.87 10.768,9.878 c -0.026,0.01 -0.071,0.059 -0.122,0.094 -0.117,0.065 -0.247,0.167 -0.322,0.279 -0.09,-0.005 -0.083,-0.066 -0.154,-0.1 -0.057,-0.024 -0.128,-0.037 -0.177,-0.049 -0.13,-0.029 -0.358,-0.047 -0.382,-0.047 -0.025,0 -0.197,0.007 -0.221,0.007 -0.026,0 -0.126,0.005 -0.182,0.022 -0.069,0.019 -0.13,0.073 -0.201,0.12 -0.042,0.029 -0.167,0.042 -0.183,0.136 -0.044,0.036 -0.114,0.048 -0.143,0.102 -0.114,0.213 -0.132,0.161 -0.132,0.285 0,0.024 -0.047,0.101 -0.054,0.149 -0.012,0.07 -0.04,0.184 -0.041,0.208 v 0.201 c 0,0.108 0.059,0.143 0.107,0.274 C 8.395,11.506 8.239,11.458 8.079,11.399 7.949,11.274 7.782,11.155 7.664,11.018 7.645,10.995 7.635,10.958 7.604,10.93 7.568,10.906 7.515,10.887 7.485,10.851 7.415,10.768 7.343,10.679 7.259,10.567 7.235,10.537 7.23,10.488 7.224,10.447 7.223,10.436 7.199,10.418 7.189,10.395 7.199,10.354 7.199,10.306 7.193,10.269 7.17,10.251 7.146,10.215 7.134,10.179 7.087,10.073 7.092,9.954 7.069,9.847 7.056,9.776 7.015,9.704 6.986,9.627 6.968,9.573 6.967,9.461 6.967,9.437 6.967,9.413 7.01,9.199 7.027,9.08 7.033,9.021 7.033,8.92 7.057,8.86 7.07,8.824 7.092,8.772 7.092,8.747 7.092,8.723 7.063,8.712 7.063,8.688 7.063,8.663 7.099,8.616 7.105,8.581 7.11,8.552 7.112,8.517 7.112,8.492 7.116,8.468 7.146,8.462 7.152,8.451 7.164,8.432 7.164,8.403 7.165,8.373 7.176,8.361 7.199,8.361 7.217,8.348 7.236,8.331 7.247,8.313 7.256,8.295 7.278,8.29 7.309,8.277 7.321,8.254 7.337,8.218 7.366,8.164 7.397,8.117 7.414,8.094 7.461,8.081 7.486,8.063 7.521,8.034 7.538,7.998 7.563,7.968 7.567,7.95 7.556,7.914 7.569,7.897 7.61,7.85 7.669,7.862 7.717,7.834 7.728,7.82 7.735,7.779 7.759,7.772 7.913,7.708 7.973,7.612 8.139,7.528 8.169,7.516 8.187,7.477 8.187,7.445 8.233,7.445 8.263,7.422 8.299,7.421 8.318,7.405 8.336,7.379 8.353,7.35 8.384,7.338 8.418,7.308 8.442,7.303 8.465,7.308 8.49,7.308 8.508,7.303 8.549,7.268 8.603,7.255 8.65,7.234 8.673,7.226 8.69,7.201 8.721,7.172 c 0.083,0 0.186,-0.021 0.287,-0.036 0.13,-0.023 0.367,-0.011 0.391,-0.011 0.024,0 0.06,-0.018 0.084,-0.018 z"
         fill="#da1f31"
         id="path7071" />
      <mask
         id="_mask_fGi5xmU1VybMY3O68V6pBJZCrfGfcQwE"
         x="-200%"
         y="-200%"
         width="400%"
         height="400%">
        <rect
           x="-200%"
           y="-200%"
           width="400%"
           height="400%"
           style="fill:#ffffff"
           id="rect7073" />
        <path
           d="m 9.483,7.107 c 0.026,0 0.166,0.047 0.247,0.059 0.038,0.006 0.086,0.023 0.124,0.025 0.033,0.005 0.068,-0.007 0.093,0.001 0.08,0.028 0.133,0.095 0.228,0.14 0.339,0.143 0.579,0.488 0.747,0.788 0.13,0.224 0.212,0.496 0.248,0.74 10e-4,0.036 -0.01,0.115 -0.01,0.142 l -10e-4,0.126 c 0,0.024 0.034,0.088 0.025,0.112 0,0.025 -0.024,0.269 -0.05,0.41 C 11.123,9.687 11.088,9.746 11.063,9.781 11.029,9.812 10.992,9.87 10.933,9.884 10.885,9.9 10.816,9.87 10.768,9.878 c -0.026,0.01 -0.071,0.059 -0.122,0.094 -0.117,0.065 -0.247,0.167 -0.322,0.279 -0.09,-0.005 -0.083,-0.066 -0.154,-0.1 -0.057,-0.024 -0.128,-0.037 -0.177,-0.049 -0.13,-0.029 -0.358,-0.047 -0.382,-0.047 -0.025,0 -0.197,0.007 -0.221,0.007 -0.026,0 -0.126,0.005 -0.182,0.022 -0.069,0.019 -0.13,0.073 -0.201,0.12 -0.042,0.029 -0.167,0.042 -0.183,0.136 -0.044,0.036 -0.114,0.048 -0.143,0.102 -0.114,0.213 -0.132,0.161 -0.132,0.285 0,0.024 -0.047,0.101 -0.054,0.149 -0.012,0.07 -0.04,0.184 -0.041,0.208 v 0.201 c 0,0.108 0.059,0.143 0.107,0.274 C 8.395,11.506 8.239,11.458 8.079,11.399 7.949,11.274 7.782,11.155 7.664,11.018 7.645,10.995 7.635,10.958 7.604,10.93 7.568,10.906 7.515,10.887 7.485,10.851 7.415,10.768 7.343,10.679 7.259,10.567 7.235,10.537 7.23,10.488 7.224,10.447 7.223,10.436 7.199,10.418 7.189,10.395 7.199,10.354 7.199,10.306 7.193,10.269 7.17,10.251 7.146,10.215 7.134,10.179 7.087,10.073 7.092,9.954 7.069,9.847 7.056,9.776 7.015,9.704 6.986,9.627 6.968,9.573 6.967,9.461 6.967,9.437 6.967,9.413 7.01,9.199 7.027,9.08 7.033,9.021 7.033,8.92 7.057,8.86 7.07,8.824 7.092,8.772 7.092,8.747 7.092,8.723 7.063,8.712 7.063,8.688 7.063,8.663 7.099,8.616 7.105,8.581 7.11,8.552 7.112,8.517 7.112,8.492 7.116,8.468 7.146,8.462 7.152,8.451 7.164,8.432 7.164,8.403 7.165,8.373 7.176,8.361 7.199,8.361 7.217,8.348 7.236,8.331 7.247,8.313 7.256,8.295 7.278,8.29 7.309,8.277 7.321,8.254 7.337,8.218 7.366,8.164 7.397,8.117 7.414,8.094 7.461,8.081 7.486,8.063 7.521,8.034 7.538,7.998 7.563,7.968 7.567,7.95 7.556,7.914 7.569,7.897 7.61,7.85 7.669,7.862 7.717,7.834 7.728,7.82 7.735,7.779 7.759,7.772 7.913,7.708 7.973,7.612 8.139,7.528 8.169,7.516 8.187,7.477 8.187,7.445 8.233,7.445 8.263,7.422 8.299,7.421 8.318,7.405 8.336,7.379 8.353,7.35 8.384,7.338 8.418,7.308 8.442,7.303 8.465,7.308 8.49,7.308 8.508,7.303 8.549,7.268 8.603,7.255 8.65,7.234 8.673,7.226 8.69,7.201 8.721,7.172 c 0.083,0 0.186,-0.021 0.287,-0.036 0.13,-0.023 0.367,-0.011 0.391,-0.011 0.024,0 0.06,-0.018 0.084,-0.018 z"
           fill="#000000"
           stroke="none"
           id="path7075" />
      </mask>
      <path
         d="m 9.483,7.107 c 0.026,0 0.166,0.047 0.247,0.059 0.038,0.006 0.086,0.023 0.124,0.025 0.033,0.005 0.068,-0.007 0.093,0.001 0.08,0.028 0.133,0.095 0.228,0.14 0.339,0.143 0.579,0.488 0.747,0.788 0.13,0.224 0.212,0.496 0.248,0.74 10e-4,0.036 -0.01,0.115 -0.01,0.142 l -10e-4,0.126 c 0,0.024 0.034,0.088 0.025,0.112 0,0.025 -0.024,0.269 -0.05,0.41 C 11.123,9.687 11.088,9.746 11.063,9.781 11.029,9.812 10.992,9.87 10.933,9.884 10.885,9.9 10.816,9.87 10.768,9.878 c -0.026,0.01 -0.071,0.059 -0.122,0.094 -0.117,0.065 -0.247,0.167 -0.322,0.279 -0.09,-0.005 -0.083,-0.066 -0.154,-0.1 -0.057,-0.024 -0.128,-0.037 -0.177,-0.049 -0.13,-0.029 -0.358,-0.047 -0.382,-0.047 -0.025,0 -0.197,0.007 -0.221,0.007 -0.026,0 -0.126,0.005 -0.182,0.022 -0.069,0.019 -0.13,0.073 -0.201,0.12 -0.042,0.029 -0.167,0.042 -0.183,0.136 -0.044,0.036 -0.114,0.048 -0.143,0.102 -0.114,0.213 -0.132,0.161 -0.132,0.285 0,0.024 -0.047,0.101 -0.054,0.149 -0.012,0.07 -0.04,0.184 -0.041,0.208 v 0.201 c 0,0.108 0.059,0.143 0.107,0.274 C 8.395,11.506 8.239,11.458 8.079,11.399 7.949,11.274 7.782,11.155 7.664,11.018 7.645,10.995 7.635,10.958 7.604,10.93 7.568,10.906 7.515,10.887 7.485,10.851 7.415,10.768 7.343,10.679 7.259,10.567 7.235,10.537 7.23,10.488 7.224,10.447 7.223,10.436 7.199,10.418 7.189,10.395 7.199,10.354 7.199,10.306 7.193,10.269 7.17,10.251 7.146,10.215 7.134,10.179 7.087,10.073 7.092,9.954 7.069,9.847 7.056,9.776 7.015,9.704 6.986,9.627 6.968,9.573 6.967,9.461 6.967,9.437 6.967,9.413 7.01,9.199 7.027,9.08 7.033,9.021 7.033,8.92 7.057,8.86 7.07,8.824 7.092,8.772 7.092,8.747 7.092,8.723 7.063,8.712 7.063,8.688 7.063,8.663 7.099,8.616 7.105,8.581 7.11,8.552 7.112,8.517 7.112,8.492 7.116,8.468 7.146,8.462 7.152,8.451 7.164,8.432 7.164,8.403 7.165,8.373 7.176,8.361 7.199,8.361 7.217,8.348 7.236,8.331 7.247,8.313 7.256,8.295 7.278,8.29 7.309,8.277 7.321,8.254 7.337,8.218 7.366,8.164 7.397,8.117 7.414,8.094 7.461,8.081 7.486,8.063 7.521,8.034 7.538,7.998 7.563,7.968 7.567,7.95 7.556,7.914 7.569,7.897 7.61,7.85 7.669,7.862 7.717,7.834 7.728,7.82 7.735,7.779 7.759,7.772 7.913,7.708 7.973,7.612 8.139,7.528 8.169,7.516 8.187,7.477 8.187,7.445 8.233,7.445 8.263,7.422 8.299,7.421 8.318,7.405 8.336,7.379 8.353,7.35 8.384,7.338 8.418,7.308 8.442,7.303 8.465,7.308 8.49,7.308 8.508,7.303 8.549,7.268 8.603,7.255 8.65,7.234 8.673,7.226 8.69,7.201 8.721,7.172 c 0.083,0 0.186,-0.021 0.287,-0.036 0.13,-0.023 0.367,-0.011 0.391,-0.011 0.024,0 0.06,-0.018 0.084,-0.018 z"
         fill="none"
         id="path7078" />
      <path
         d="m 9.483,7.107 c 0.026,0 0.166,0.047 0.247,0.059 0.038,0.006 0.086,0.023 0.124,0.025 0.033,0.005 0.068,-0.007 0.093,0.001 0.08,0.028 0.133,0.095 0.228,0.14 0.339,0.143 0.579,0.488 0.747,0.788 0.13,0.224 0.212,0.496 0.248,0.74 10e-4,0.036 -0.01,0.115 -0.01,0.142 l -10e-4,0.126 c 0,0.024 0.034,0.088 0.025,0.112 0,0.025 -0.024,0.269 -0.05,0.41 C 11.123,9.687 11.088,9.746 11.063,9.781 11.029,9.812 10.992,9.87 10.933,9.884 10.885,9.9 10.816,9.87 10.768,9.878 c -0.026,0.01 -0.071,0.059 -0.122,0.094 -0.117,0.065 -0.247,0.167 -0.322,0.279 -0.09,-0.005 -0.083,-0.066 -0.154,-0.1 -0.057,-0.024 -0.128,-0.037 -0.177,-0.049 -0.13,-0.029 -0.358,-0.047 -0.382,-0.047 -0.025,0 -0.197,0.007 -0.221,0.007 -0.026,0 -0.126,0.005 -0.182,0.022 -0.069,0.019 -0.13,0.073 -0.201,0.12 -0.042,0.029 -0.167,0.042 -0.183,0.136 -0.044,0.036 -0.114,0.048 -0.143,0.102 -0.114,0.213 -0.132,0.161 -0.132,0.285 0,0.024 -0.047,0.101 -0.054,0.149 -0.012,0.07 -0.04,0.184 -0.041,0.208 v 0.201 c 0,0.108 0.059,0.143 0.107,0.274 C 8.395,11.506 8.239,11.458 8.079,11.399 7.949,11.274 7.782,11.155 7.664,11.018 7.645,10.995 7.635,10.958 7.604,10.93 7.568,10.906 7.515,10.887 7.485,10.851 7.415,10.768 7.343,10.679 7.259,10.567 7.235,10.537 7.23,10.488 7.224,10.447 7.223,10.436 7.199,10.418 7.189,10.395 7.199,10.354 7.199,10.306 7.193,10.269 7.17,10.251 7.146,10.215 7.134,10.179 7.087,10.073 7.092,9.954 7.069,9.847 7.056,9.776 7.015,9.704 6.986,9.627 6.968,9.573 6.967,9.461 6.967,9.437 6.967,9.413 7.01,9.199 7.027,9.08 7.033,9.021 7.033,8.92 7.057,8.86 7.07,8.824 7.092,8.772 7.092,8.747 7.092,8.723 7.063,8.712 7.063,8.688 7.063,8.663 7.099,8.616 7.105,8.581 7.11,8.552 7.112,8.517 7.112,8.492 7.116,8.468 7.146,8.462 7.152,8.451 7.164,8.432 7.164,8.403 7.165,8.373 7.176,8.361 7.199,8.361 7.217,8.348 7.236,8.331 7.247,8.313 7.256,8.295 7.278,8.29 7.309,8.277 7.321,8.254 7.337,8.218 7.366,8.164 7.397,8.117 7.414,8.094 7.461,8.081 7.486,8.063 7.521,8.034 7.538,7.998 7.563,7.968 7.567,7.95 7.556,7.914 7.569,7.897 7.61,7.85 7.669,7.862 7.717,7.834 7.728,7.82 7.735,7.779 7.759,7.772 7.913,7.708 7.973,7.612 8.139,7.528 8.169,7.516 8.187,7.477 8.187,7.445 8.233,7.445 8.263,7.422 8.299,7.421 8.318,7.405 8.336,7.379 8.353,7.35 8.384,7.338 8.418,7.308 8.442,7.303 8.465,7.308 8.49,7.308 8.508,7.303 8.549,7.268 8.603,7.255 8.65,7.234 8.673,7.226 8.69,7.201 8.721,7.172 c 0.083,0 0.186,-0.021 0.287,-0.036 0.13,-0.023 0.367,-0.011 0.391,-0.011 0.024,0 0.06,-0.018 0.084,-0.018 z"
         fill="none"
         mask="url(#_mask_fGi5xmU1VybMY3O68V6pBJZCrfGfcQwE)"
         vector-effect="non-scaling-stroke"
         stroke-width="0.007"
         stroke="#da1f31"
         stroke-linejoin="miter"
         stroke-linecap="butt"
         stroke-miterlimit="3.864"
         id="path7080" />
      <path
         d="m 12.266,3.807 c 0.024,0 0.178,0.027 0.259,0.05 0.026,0.006 0.062,0.033 0.097,0.04 0.07,0.02 0.154,0.025 0.224,0.059 0.083,0.045 0.167,0.103 0.214,0.172 0.107,0.161 0.191,0.335 0.229,0.471 0.035,0.1 0.034,0.557 0.034,0.588 0,0.025 0.022,0.11 0.013,0.135 0,0.025 -0.035,0.144 -0.059,0.215 -0.024,0.077 -0.036,0.179 -0.085,0.258 -0.071,0.111 -0.178,0.229 -0.273,0.327 -0.036,0.04 -0.095,0.075 -0.153,0.105 C 12.742,6.241 12.68,6.25 12.67,6.3 12.646,6.292 12.623,6.269 12.599,6.269 c -0.024,0 -0.039,0.03 -0.071,0.03 -0.024,0 -0.097,-0.042 -0.146,-0.061 0.003,-0.046 0.036,-0.076 0.038,-0.095 0.012,-0.047 0.022,-0.123 0.022,-0.148 0,-0.024 -0.011,-0.018 -0.022,-0.03 0,-0.048 0.011,-0.13 0.011,-0.154 0,-0.024 -0.025,-0.093 -0.036,-0.134 C 12.371,5.525 12.216,5.474 12.124,5.412 12.086,5.379 12.016,5.367 11.969,5.353 11.895,5.331 11.776,5.287 11.694,5.287 11.669,5.287 11.445,5.385 11.433,5.388 11.242,5.549 11.125,5.757 11.146,5.959 11.125,5.947 11.101,5.924 11.1,5.905 11.03,5.715 10.875,5.635 10.876,5.502 10.884,5.478 10.825,5.277 10.825,5.252 c 0,-0.024 0.061,-0.273 0.061,-0.297 0,-0.024 -0.026,-0.19 -0.026,-0.215 0.001,-0.07 0.074,-0.154 0.107,-0.235 0.025,-0.074 0.036,-0.157 0.063,-0.229 0.033,-0.029 0.058,-0.067 0.083,-0.088 0.071,-0.055 0.152,-0.113 0.224,-0.167 0.023,-0.012 0.096,-0.024 0.107,-0.066 0.097,-0.021 0.311,-0.142 0.439,-0.142 0.024,0 0.133,0.032 0.158,0.032 0.032,10e-4 0.201,-0.038 0.225,-0.038 z"
         fill="#da1f31"
         id="path7082" />
      <mask
         id="_mask_TUk8B6YTZboMFRVwxfsbAeQi49JS3eHW"
         x="-200%"
         y="-200%"
         width="400%"
         height="400%">
        <rect
           x="-200%"
           y="-200%"
           width="400%"
           height="400%"
           style="fill:#ffffff"
           id="rect7084" />
        <path
           d="m 12.266,3.807 c 0.024,0 0.178,0.027 0.259,0.05 0.026,0.006 0.062,0.033 0.097,0.04 0.07,0.02 0.154,0.025 0.224,0.059 0.083,0.045 0.167,0.103 0.214,0.172 0.107,0.161 0.191,0.335 0.229,0.471 0.035,0.1 0.034,0.557 0.034,0.588 0,0.025 0.022,0.11 0.013,0.135 0,0.025 -0.035,0.144 -0.059,0.215 -0.024,0.077 -0.036,0.179 -0.085,0.258 -0.071,0.111 -0.178,0.229 -0.273,0.327 -0.036,0.04 -0.095,0.075 -0.153,0.105 C 12.742,6.241 12.68,6.25 12.67,6.3 12.646,6.292 12.623,6.269 12.599,6.269 c -0.024,0 -0.039,0.03 -0.071,0.03 -0.024,0 -0.097,-0.042 -0.146,-0.061 0.003,-0.046 0.036,-0.076 0.038,-0.095 0.012,-0.047 0.022,-0.123 0.022,-0.148 0,-0.024 -0.011,-0.018 -0.022,-0.03 0,-0.048 0.011,-0.13 0.011,-0.154 0,-0.024 -0.025,-0.093 -0.036,-0.134 C 12.371,5.525 12.216,5.474 12.124,5.412 12.086,5.379 12.016,5.367 11.969,5.353 11.895,5.331 11.776,5.287 11.694,5.287 11.669,5.287 11.445,5.385 11.433,5.388 11.242,5.549 11.125,5.757 11.146,5.959 11.125,5.947 11.101,5.924 11.1,5.905 11.03,5.715 10.875,5.635 10.876,5.502 10.884,5.478 10.825,5.277 10.825,5.252 c 0,-0.024 0.061,-0.273 0.061,-0.297 0,-0.024 -0.026,-0.19 -0.026,-0.215 0.001,-0.07 0.074,-0.154 0.107,-0.235 0.025,-0.074 0.036,-0.157 0.063,-0.229 0.033,-0.029 0.058,-0.067 0.083,-0.088 0.071,-0.055 0.152,-0.113 0.224,-0.167 0.023,-0.012 0.096,-0.024 0.107,-0.066 0.097,-0.021 0.311,-0.142 0.439,-0.142 0.024,0 0.133,0.032 0.158,0.032 0.032,10e-4 0.201,-0.038 0.225,-0.038 z"
           fill="#000000"
           stroke="none"
           id="path7086" />
      </mask>
      <path
         d="m 12.266,3.807 c 0.024,0 0.178,0.027 0.259,0.05 0.026,0.006 0.062,0.033 0.097,0.04 0.07,0.02 0.154,0.025 0.224,0.059 0.083,0.045 0.167,0.103 0.214,0.172 0.107,0.161 0.191,0.335 0.229,0.471 0.035,0.1 0.034,0.557 0.034,0.588 0,0.025 0.022,0.11 0.013,0.135 0,0.025 -0.035,0.144 -0.059,0.215 -0.024,0.077 -0.036,0.179 -0.085,0.258 -0.071,0.111 -0.178,0.229 -0.273,0.327 -0.036,0.04 -0.095,0.075 -0.153,0.105 C 12.742,6.241 12.68,6.25 12.67,6.3 12.646,6.292 12.623,6.269 12.599,6.269 c -0.024,0 -0.039,0.03 -0.071,0.03 -0.024,0 -0.097,-0.042 -0.146,-0.061 0.003,-0.046 0.036,-0.076 0.038,-0.095 0.012,-0.047 0.022,-0.123 0.022,-0.148 0,-0.024 -0.011,-0.018 -0.022,-0.03 0,-0.048 0.011,-0.13 0.011,-0.154 0,-0.024 -0.025,-0.093 -0.036,-0.134 C 12.371,5.525 12.216,5.474 12.124,5.412 12.086,5.379 12.016,5.367 11.969,5.353 11.895,5.331 11.776,5.287 11.694,5.287 11.669,5.287 11.445,5.385 11.433,5.388 11.242,5.549 11.125,5.757 11.146,5.959 11.125,5.947 11.101,5.924 11.1,5.905 11.03,5.715 10.875,5.635 10.876,5.502 10.884,5.478 10.825,5.277 10.825,5.252 c 0,-0.024 0.061,-0.273 0.061,-0.297 0,-0.024 -0.026,-0.19 -0.026,-0.215 0.001,-0.07 0.074,-0.154 0.107,-0.235 0.025,-0.074 0.036,-0.157 0.063,-0.229 0.033,-0.029 0.058,-0.067 0.083,-0.088 0.071,-0.055 0.152,-0.113 0.224,-0.167 0.023,-0.012 0.096,-0.024 0.107,-0.066 0.097,-0.021 0.311,-0.142 0.439,-0.142 0.024,0 0.133,0.032 0.158,0.032 0.032,10e-4 0.201,-0.038 0.225,-0.038 z"
         fill="none"
         id="path7089" />
      <path
         d="m 12.266,3.807 c 0.024,0 0.178,0.027 0.259,0.05 0.026,0.006 0.062,0.033 0.097,0.04 0.07,0.02 0.154,0.025 0.224,0.059 0.083,0.045 0.167,0.103 0.214,0.172 0.107,0.161 0.191,0.335 0.229,0.471 0.035,0.1 0.034,0.557 0.034,0.588 0,0.025 0.022,0.11 0.013,0.135 0,0.025 -0.035,0.144 -0.059,0.215 -0.024,0.077 -0.036,0.179 -0.085,0.258 -0.071,0.111 -0.178,0.229 -0.273,0.327 -0.036,0.04 -0.095,0.075 -0.153,0.105 C 12.742,6.241 12.68,6.25 12.67,6.3 12.646,6.292 12.623,6.269 12.599,6.269 c -0.024,0 -0.039,0.03 -0.071,0.03 -0.024,0 -0.097,-0.042 -0.146,-0.061 0.003,-0.046 0.036,-0.076 0.038,-0.095 0.012,-0.047 0.022,-0.123 0.022,-0.148 0,-0.024 -0.011,-0.018 -0.022,-0.03 0,-0.048 0.011,-0.13 0.011,-0.154 0,-0.024 -0.025,-0.093 -0.036,-0.134 C 12.371,5.525 12.216,5.474 12.124,5.412 12.086,5.379 12.016,5.367 11.969,5.353 11.895,5.331 11.776,5.287 11.694,5.287 11.669,5.287 11.445,5.385 11.433,5.388 11.242,5.549 11.125,5.757 11.146,5.959 11.125,5.947 11.101,5.924 11.1,5.905 11.03,5.715 10.875,5.635 10.876,5.502 10.884,5.478 10.825,5.277 10.825,5.252 c 0,-0.024 0.061,-0.273 0.061,-0.297 0,-0.024 -0.026,-0.19 -0.026,-0.215 0.001,-0.07 0.074,-0.154 0.107,-0.235 0.025,-0.074 0.036,-0.157 0.063,-0.229 0.033,-0.029 0.058,-0.067 0.083,-0.088 0.071,-0.055 0.152,-0.113 0.224,-0.167 0.023,-0.012 0.096,-0.024 0.107,-0.066 0.097,-0.021 0.311,-0.142 0.439,-0.142 0.024,0 0.133,0.032 0.158,0.032 0.032,10e-4 0.201,-0.038 0.225,-0.038 z"
         fill="none"
         mask="url(#_mask_TUk8B6YTZboMFRVwxfsbAeQi49JS3eHW)"
         vector-effect="non-scaling-stroke"
         stroke-width="0.007"
         stroke="#da1f31"
         stroke-linejoin="miter"
         stroke-linecap="butt"
         stroke-miterlimit="3.864"
         id="path7091" />
      <path
         d="m 12.441,6.887 c 0.024,0 0.06,0.05 0.086,0.065 0.001,0.03 0.034,0.065 0.034,0.09 0,0.025 -0.022,0.071 -0.034,0.124 -0.071,-0.027 -0.082,0.041 -0.143,0.038 -0.061,0 -0.154,-0.092 -0.154,-0.145 0,-0.119 0.13,-0.173 0.211,-0.172 z"
         fill="#070909"
         id="path7093" />
      <path
         d="m 9.356,7.255 c 0.028,0 0.129,0.023 0.202,0.024 C 9.569,7.299 9.593,7.32 9.605,7.35 9.616,7.386 9.557,7.447 9.628,7.481 9.611,7.523 9.601,7.564 9.581,7.606 9.555,7.617 9.53,7.663 9.495,7.671 9.459,7.68 9.399,7.695 9.375,7.695 9.221,7.694 9.113,7.578 9.114,7.452 9.114,7.305 9.28,7.255 9.356,7.255 Z"
         fill="#070909"
         id="path7095" />
      <path
         d="m 8.561,7.398 c 0.024,0 0.113,0.001 0.167,0.024 0.035,0.013 0.059,0.047 0.106,0.059 0,0.032 0.007,0.078 0.007,0.102 0,0.059 -0.083,0.16 -0.107,0.219 C 8.709,7.819 8.675,7.838 8.651,7.837 8.626,7.837 8.608,7.831 8.478,7.826 8.394,7.82 8.313,7.689 8.317,7.613 8.317,7.588 8.325,7.535 8.325,7.51 8.325,7.486 8.336,7.481 8.348,7.469 8.437,7.38 8.477,7.398 8.561,7.398 Z"
         fill="#070909"
         id="path7097" />
      <path
         d="m 9.923,7.481 c 0.151,0 0.154,0.011 0.179,0.011 0.025,0 0.121,0.072 0.179,0.114 0.007,0.042 0.023,0.107 0.023,0.131 C 10.303,7.844 10.148,7.921 10.078,7.921 10.032,7.92 9.842,7.85 9.828,7.832 9.804,7.798 9.806,7.742 9.806,7.718 9.806,7.694 9.816,7.594 9.816,7.57 9.818,7.542 9.89,7.499 9.923,7.481 Z"
         fill="#070909"
         id="path7099" />
      <path
         d="M 7.925,7.838 C 8.062,7.839 8.17,8.005 8.169,8.089 8.169,8.195 8.103,8.206 8.067,8.302 8.049,8.319 8.02,8.325 8.008,8.343 7.978,8.348 7.931,8.356 7.907,8.355 7.883,8.355 7.788,8.301 7.735,8.26 7.711,8.241 7.68,8.19 7.669,8.152 7.658,8.134 7.664,8.117 7.664,8.089 7.664,8.064 7.681,8.019 7.693,7.98 7.699,7.951 7.705,7.909 7.729,7.88 7.789,7.879 7.901,7.838 7.925,7.838 Z"
         fill="#070909"
         id="path7101" />
      <path
         d="m 10.637,8.034 c 0.118,10e-4 0.201,0.167 0.201,0.244 0,0.047 -0.036,0.083 -0.048,0.106 C 10.744,8.468 10.649,8.512 10.599,8.51 10.574,8.51 10.481,8.487 10.422,8.467 10.397,8.456 10.314,8.396 10.303,8.345 10.292,8.307 10.28,8.249 10.28,8.225 c 0,-0.055 0.047,-0.119 0.085,-0.168 0.059,-0.005 0.176,-0.005 0.2,-0.005 0.026,0 0.048,-0.018 0.072,-0.018 z"
         fill="#070909"
         id="path7103" />
      <path
         d="m 7.521,8.432 c 0.024,0 0.131,0.048 0.184,0.083 C 7.711,8.521 7.718,8.551 7.711,8.564 7.728,8.575 7.735,8.593 7.758,8.605 7.759,8.618 7.74,8.628 7.74,8.653 7.74,8.677 7.759,8.675 7.758,8.7 7.758,8.736 7.664,8.944 7.581,8.95 7.492,8.956 7.484,8.961 7.456,8.961 7.432,8.961 7.378,8.943 7.342,8.925 7.294,8.902 7.211,8.783 7.211,8.712 7.212,8.57 7.384,8.432 7.521,8.432 Z"
         fill="#070909"
         id="path7105" />
      <path
         d="m 10.792,8.694 c 0.024,0 0.035,0.011 0.046,0.005 0.048,0.007 0.072,0.102 0.108,0.131 0.01,0.006 0.01,0.013 0.01,0.037 0,0.172 -0.093,0.255 -0.247,0.254 C 10.506,9.117 10.472,8.95 10.473,8.808 10.478,8.711 10.777,8.694 10.792,8.694 Z"
         fill="#070909"
         id="path7107" />
      <path
         d="m 10.828,9.241 c 0.083,0 0.13,0.07 0.177,0.159 10e-4,0.014 0.012,0.048 0.012,0.072 0,0.018 -0.012,0.006 -0.012,0.072 v 0.012 c 0,0.024 -0.026,0.053 -0.059,0.071 0,0 0.011,-0.006 0.011,0.018 0,0.024 -0.108,0.065 -0.132,0.065 -0.152,-0.001 -0.275,-0.113 -0.273,-0.232 0,-0.064 0.084,-0.214 0.132,-0.214 0.082,-0.005 0.093,-0.023 0.144,-0.023 z"
         fill="#070909"
         id="path7109" />
      <path
         d="m 7.331,9.27 h 0.107 c 0.048,0 0.124,0.083 0.142,0.114 0.013,0.024 0.024,0.076 0.024,0.1 0,0.025 -0.012,0.136 -0.012,0.161 0,0.023 -0.023,0.03 -0.035,0.048 C 7.527,9.709 7.502,9.745 7.467,9.752 7.431,9.763 7.378,9.764 7.353,9.764 7.247,9.764 7.086,9.687 7.086,9.538 7.087,9.42 7.171,9.265 7.331,9.27 Z"
         fill="#070909"
         id="path7111" />
      <path
         d="m 9.747,9.52 c 0.059,0 0.128,0.031 0.178,0.088 0.007,0.048 0.034,0.119 0.034,0.144 0,0.024 -10e-4,0.077 -0.013,0.113 C 9.937,9.889 9.91,9.907 9.896,9.935 9.887,9.937 9.876,9.96 9.852,9.96 L 9.723,9.959 C 9.699,9.959 9.687,9.978 9.664,9.977 9.551,9.977 9.443,9.817 9.443,9.711 9.444,9.646 9.566,9.55 9.61,9.543 9.647,9.532 9.721,9.52 9.747,9.52 Z"
         fill="#070909"
         id="path7113" />
      <path
         d="m 9.071,9.562 c 0.074,0 0.11,0.071 0.15,0.106 10e-4,0.06 0.04,0.174 0.04,0.202 0,0.024 -0.028,0.049 -0.032,0.079 -0.031,0.023 -0.056,0.064 -0.091,0.077 -0.043,0.023 -0.136,0.023 -0.16,0.023 -0.079,0 -0.244,-0.053 -0.244,-0.185 0,-0.024 0.011,-0.095 0.012,-0.119 0,-0.023 0.041,-0.088 0.083,-0.12 C 8.846,9.61 8.881,9.609 8.9,9.603 8.919,9.602 8.947,9.585 8.971,9.574 8.996,9.567 9.044,9.562 9.071,9.562 Z"
         fill="#070909"
         id="path7115" />
      <path
         d="m 10.244,9.625 c 0.024,10e-4 0.107,0.013 0.145,0.032 0.072,0.041 0.128,0.173 0.128,0.243 0,0.024 -0.012,0.072 -0.026,0.101 -0.046,0.031 -0.152,0.113 -0.176,0.113 -0.024,0 -0.084,-0.018 -0.122,-0.028 -0.021,-10e-4 -0.056,-0.025 -0.071,-0.042 -0.042,-0.037 -0.071,-0.179 -0.071,-0.233 0,-0.041 0.012,-0.118 0.062,-0.147 0.035,-0.019 0.107,-0.039 0.131,-0.039 z"
         fill="#070909"
         id="path7117" />
      <path
         d="m 8.43,9.895 c 0.025,0 0.025,0.011 0.049,0.011 0.028,0 0.023,0.029 0.035,0.042 0.023,0.018 0.059,0.03 0.095,0.06 0.005,0.011 0.005,0.03 0.006,0.041 0.017,0.007 0.029,0.029 0.053,0.053 0.006,0.03 0.024,0.078 0.024,0.103 0,0.023 -0.053,0.118 -0.083,0.176 C 8.466,10.424 8.49,10.435 8.401,10.434 8.282,10.43 8.144,10.371 8.145,10.238 8.145,10.132 8.169,10.043 8.299,9.96 8.306,9.954 8.306,9.935 8.317,9.925 8.348,9.913 8.406,9.895 8.43,9.895 Z"
         fill="#070909"
         id="path7119" />
      <path
         d="m 7.592,10.048 c 0.025,0 0.095,0.008 0.136,0.031 -0.012,0.065 0.025,0.1 0.066,0.142 0.001,0.019 0.012,0.055 0.012,0.083 0,0.024 -0.041,0.083 -0.054,0.12 -0.005,0.01 -0.034,0.006 -0.047,0.023 -0.017,0.012 -0.03,0.042 -0.053,0.054 -0.048,0.018 -0.132,0.042 -0.156,0.042 -0.112,-10e-4 -0.23,-0.119 -0.228,-0.232 0.003,-0.148 0.063,-0.22 0.205,-0.238 0.042,-0.006 0.095,-0.029 0.119,-0.025 z"
         fill="#070909"
         id="path7121" />
      <path
         d="m 8.067,10.59 c 0.025,0 0.03,0.011 0.049,0.006 0.04,0.03 0.13,0.047 0.16,0.107 0.005,0.007 -0.006,0.029 -0.006,0.053 0,0.024 0.029,0.018 0.035,0.025 0.013,0.053 0.054,0.13 0.054,0.154 0,0.024 -0.012,0.053 -0.017,0.072 -0.024,0.018 -0.054,0.066 -0.066,0.077 -0.018,0.012 -0.108,0.053 -0.166,0.053 L 7.949,11.136 C 7.943,11.119 7.789,10.994 7.789,10.952 L 7.794,10.757 C 7.89,10.685 7.943,10.71 7.943,10.649 7.943,10.602 8.04,10.59 8.067,10.59 Z"
         fill="#070909"
         id="path7123" />
      <path
         d="m 12.385,7.017 c 0.009,0.024 -0.002,0.054 -0.003,0.086 -0.021,0.003 -0.023,0.01 -0.036,0.01 V 7.047 c 0.013,-10e-4 0.026,-0.021 0.039,-0.03 z"
         fill="#070909"
         id="path7125" />
      <path
         d="m 12.266,3.807 c 0.024,0 0.178,0.027 0.259,0.05 0.026,0.006 0.062,0.033 0.097,0.04 0.07,0.023 0.154,0.025 0.224,0.059 0.083,0.045 0.167,0.103 0.214,0.172 0.107,0.161 0.191,0.335 0.229,0.471 0.035,0.1 0.034,0.557 0.034,0.588 0,0.025 0.022,0.11 0.013,0.135 0,0.025 -0.035,0.144 -0.059,0.215 -0.024,0.077 -0.036,0.179 -0.085,0.258 -0.071,0.111 -0.178,0.229 -0.273,0.327 -0.036,0.04 -0.095,0.075 -0.153,0.105 C 12.742,6.241 12.68,6.25 12.67,6.3 12.646,6.292 12.623,6.269 12.599,6.269 c -0.024,0 -0.039,0.03 -0.071,0.03 -0.024,0 -0.097,-0.042 -0.146,-0.061 0.003,-0.046 0.036,-0.076 0.038,-0.095 0.012,-0.047 0.022,-0.123 0.022,-0.148 0,-0.024 -0.011,-0.018 -0.022,-0.03 0,-0.048 0.011,-0.13 0.011,-0.154 0,-0.024 -0.025,-0.093 -0.036,-0.134 C 12.371,5.525 12.216,5.474 12.124,5.412 12.086,5.379 12.016,5.367 11.969,5.353 11.895,5.331 11.776,5.287 11.694,5.287 11.669,5.287 11.445,5.385 11.433,5.388 11.242,5.549 11.125,5.757 11.146,5.959 11.125,5.947 11.101,5.924 11.1,5.905 11.03,5.715 10.875,5.635 10.876,5.502 10.884,5.478 10.825,5.277 10.825,5.252 c 0,-0.024 0.061,-0.273 0.061,-0.297 0,-0.024 -0.026,-0.19 -0.026,-0.215 0.001,-0.07 0.074,-0.154 0.107,-0.235 0.025,-0.074 0.036,-0.157 0.063,-0.229 0.033,-0.029 0.058,-0.067 0.083,-0.088 0.071,-0.055 0.152,-0.113 0.224,-0.167 0.023,-0.012 0.096,-0.024 0.107,-0.066 0.097,-0.021 0.311,-0.142 0.439,-0.142 0.024,10e-4 0.133,0.032 0.158,0.032 0.032,10e-4 0.201,-0.038 0.225,-0.038 z"
         fill="#da1f31"
         id="path7127" />
      <path
         d="m 12.468,6.658 c 0.024,0.002 0.021,0.009 0.036,0.009 0.033,0 0.048,0.024 0.069,0.035 0.039,0.03 0.084,0.077 0.118,0.122 0.05,0.086 0.038,0.182 0.038,0.259 -10e-4,0.102 -0.013,0.208 -0.155,0.267 -0.07,0.025 -0.179,0.054 -0.203,0.054 -0.059,0 -0.154,-0.03 -0.201,-0.066 C 12.159,7.332 12.123,7.266 12.112,7.238 12.111,7.231 12.086,7.222 12.074,7.198 12.061,7.162 12.063,7.088 12.063,7.064 c 0,-0.153 0.081,-0.314 0.203,-0.35 0.036,-0.012 0.058,-0.045 0.094,-0.045 0.132,0.003 0.06,-0.012 0.108,-0.011 z"
         fill="#070909"
         id="path7129" />
      <path
         d="m 13.087,6.726 c 0.199,0.072 0.309,0.219 0.487,0.296 -0.12,0.091 -0.251,0.2 -0.372,0.31 -0.009,-0.024 -0.02,-0.035 -0.02,-0.059 0,-0.027 0.034,-0.19 0.034,-0.214 0,-0.084 -0.081,-0.279 -0.129,-0.333 z"
         fill="#070909"
         id="path7131" />
      <path
         d="m 9.419,7.356 c 0.024,0 0.061,0.03 0.09,0.054 C 9.498,7.434 9.507,7.458 9.495,7.475 9.468,7.511 9.396,7.553 9.372,7.553 9.347,7.553 9.332,7.542 9.323,7.529 L 9.324,7.386 C 9.356,7.385 9.391,7.356 9.419,7.356 Z"
         fill="#070909"
         id="path7133" />
      <path
         d="m 8.626,7.477 c 0.024,0 0.126,0.028 0.126,0.052 0,0.072 -0.049,0.16 -0.108,0.16 C 8.579,7.688 8.526,7.612 8.525,7.601 8.531,7.576 8.566,7.529 8.555,7.488 8.579,7.487 8.597,7.477 8.626,7.477 Z"
         fill="#070909"
         id="path7135" />
      <path
         d="m 10.074,7.6 c 0.018,0.023 0.06,0.041 0.089,0.053 0,0.066 -0.071,0.178 -0.133,0.178 -0.06,0 -0.072,-0.082 -0.072,-0.107 0,-0.041 0.083,-0.094 0.116,-0.124 z"
         fill="#070909"
         id="path7137" />
      <path
         d="m 12.419,7.784 c 0.049,0 0.06,0.007 0.072,0.012 -0.035,0.129 -0.013,0.238 -0.095,0.352 -0.037,0.064 -0.107,0.119 -0.165,0.16 C 12.23,8.272 12.23,8.23 12.23,8.206 c 0,-0.024 -0.014,-0.028 -0.014,-0.053 0,-0.024 0.012,-0.095 0.025,-0.131 0.035,-0.066 0.07,-0.142 0.13,-0.207 0.023,-0.004 0.036,-0.012 0.048,-0.031 z"
         fill="#070909"
         id="path7139" />
      <path
         d="m 13.205,7.82 c 0.048,0.053 0.261,0.25 0.261,0.338 L 13.465,8.319 C 13.442,8.338 13.417,8.368 13.393,8.368 13.369,8.367 13.346,8.313 13.334,8.296 13.217,8.165 13.31,8.016 13.205,7.886 V 7.82"
         fill="#070909"
         id="path7141" />
      <path
         d="m 7.907,7.957 0.06,0.001 c 0.048,0 0.095,0.123 0.095,0.126 0,0.054 -0.059,0.104 -0.09,0.104 -0.035,0 -0.076,-0.012 -0.089,-0.054 0,-0.011 0.011,-0.022 0.001,-0.1 0,-0.023 0.011,-0.053 0.023,-0.077 z"
         fill="#070909"
         id="path7143" />
      <path
         d="m 10.6,8.135 c 0.036,0 0.047,0.03 0.061,0.083 0.01,0.007 0.036,0.025 0.036,0.053 -10e-4,0.024 -0.038,0.083 -0.072,0.108 -0.023,0.005 -0.049,0.005 -0.073,0.012 -0.023,-0.042 -0.061,-0.113 -0.06,-0.137 0,-0.066 0.084,-0.119 0.108,-0.119 z"
         fill="#070909"
         id="path7145" />
      <path
         d="m 7.497,8.563 c 0.09,0 0.113,0.042 0.113,0.101 0,0.048 -0.053,0.107 -0.107,0.107 H 7.443 C 7.431,8.725 7.402,8.67 7.402,8.646 7.402,8.61 7.431,8.562 7.497,8.563 Z"
         fill="#070909"
         id="path7147" />
      <path
         d="m 10.753,8.79 c 0.051,0.004 0.087,0.064 0.086,0.101 0,0.076 -0.096,0.141 -0.096,0.141 -0.072,-0.004 -0.082,-0.147 -0.082,-0.153 0,-0.031 0.023,-0.089 0.092,-0.089 z"
         fill="#070909"
         id="path7149" />
      <path
         d="m 10.765,9.372 c 0.061,-0.006 0.122,0.076 0.121,0.135 0,0.037 -0.036,0.091 -0.071,0.091 -0.035,0 -0.085,-0.037 -0.085,-0.065 l 10e-4,-0.12 c 0.011,-0.012 0.025,-0.018 0.034,-0.041 z"
         fill="#070909"
         id="path7151" />
      <path
         d="M 7.443,9.371 C 7.462,9.412 7.492,9.46 7.492,9.484 7.492,9.538 7.427,9.657 7.391,9.657 7.337,9.657 7.306,9.532 7.306,9.526 7.306,9.502 7.336,9.431 7.337,9.389 7.36,9.378 7.39,9.378 7.443,9.371 Z"
         fill="#070909"
         id="path7153" />
      <path
         d="M 9.709,9.65 C 9.745,9.65 9.84,9.709 9.84,9.74 9.839,9.8 9.78,9.859 9.733,9.859 9.672,9.859 9.601,9.769 9.601,9.728 9.602,9.662 9.682,9.65 9.709,9.65 Z"
         fill="#070909"
         id="path7155" />
      <path
         d="M 8.978,9.67 C 9.024,9.692 9.061,9.704 9.102,9.723 9.103,9.769 9.114,9.834 9.114,9.858 9.114,9.9 9.012,9.942 8.996,9.942 8.948,9.941 8.905,9.906 8.905,9.865 V 9.745 C 8.928,9.722 8.959,9.693 8.978,9.67 Z"
         fill="#070909"
         id="path7157" />
      <path
         d="m 10.306,9.775 c 0.054,0 0.071,0.061 0.071,0.089 0,0.06 -0.035,0.108 -0.083,0.108 -0.083,0 -0.097,-0.077 -0.097,-0.108 0,-0.028 0.001,-0.04 0.013,-0.059 0.034,-0.005 0.072,-0.03 0.096,-0.03 z"
         fill="#070909"
         id="path7159" />
      <path
         d="m 8.383,10.032 c 0.029,0.005 0.06,0.029 0.078,0.035 0.029,0.013 0.071,0.096 0.071,0.143 0,0.053 -0.096,0.143 -0.137,0.143 C 8.335,10.352 8.334,10.293 8.334,10.274 8.335,10.246 8.317,10.252 8.306,10.246 8.305,10.24 8.305,10.227 8.305,10.204 c 0,-0.035 0.024,-0.172 0.078,-0.172 z"
         fill="#070909"
         id="path7161" />
      <path
         d="m 7.581,10.138 h 0.046 c 0.008,0.042 0.042,0.095 0.042,0.119 -0.005,0.065 -0.083,0.137 -0.129,0.137 -0.031,0 -0.091,-0.118 -0.091,-0.119 0,-0.065 0.114,-0.13 0.132,-0.137 z"
         fill="#070909"
         id="path7163" />
      <path
         d="m 8.067,10.75 c 0.024,0 0.042,0.012 0.06,0.031 10e-4,0.041 0.03,0.107 0.03,0.131 0,0.053 -0.054,0.124 -0.089,0.124 -0.024,0 -0.047,-0.03 -0.078,-0.042 0,-0.012 0.011,-0.012 0.011,-0.036 0,-0.028 -0.052,-0.082 -0.052,-0.106 0,-0.024 0.012,-0.048 0.024,-0.095 0.034,0 0.067,-0.007 0.094,-0.007 z"
         fill="#070909"
         id="path7165" />
      <path
         d="m 12.811,10.941 c 0.024,10e-4 0.096,0.047 0.143,0.065 0.024,0.012 0.025,0.047 0.046,0.06 0.109,0.095 0.167,0.297 0.158,0.409 0,0.024 -0.025,0.155 -0.038,0.226 -0.021,0.049 -0.048,0.108 -0.081,0.156 -10e-4,0.011 0.011,0.005 0.01,0.029 0,0.024 -0.189,0.344 -0.286,0.506 -0.06,0.101 -0.154,0.195 -0.224,0.274 -0.049,0.069 -0.119,0.141 -0.178,0.189 -0.024,0.023 -0.074,0.047 -0.106,0.047 -0.06,0 -0.264,-0.26 -0.322,-0.338 -0.037,-0.06 -0.097,-0.113 -0.145,-0.161 -0.071,-0.071 -0.107,-0.165 -0.166,-0.249 -0.011,-0.013 -0.046,-0.036 -0.057,-0.049 -0.025,-0.035 -0.061,-0.077 -0.074,-0.123 -0.093,-0.245 -0.128,-0.215 -0.119,-0.411 0,-0.209 0.132,-0.601 0.429,-0.6 0.273,0.005 0.381,0.207 0.478,0.207 0.032,0 0.044,-0.017 0.045,-0.035 0.025,-0.017 0.072,-0.012 0.107,-0.029 0.062,-0.031 0.141,-0.101 0.203,-0.131 0.022,-0.007 0.141,-0.042 0.177,-0.042 z"
         fill="#070909"
         id="path7167" />
      <path
         d="m 8.067,10.75 c 0.024,0 0.042,0.012 0.06,0.031 10e-4,0.041 0.03,0.107 0.03,0.131 0,0.053 -0.054,0.124 -0.089,0.124 -0.024,0 -0.047,-0.03 -0.078,-0.042 0,-0.012 0.011,-0.012 0.011,-0.036 0,-0.028 -0.052,-0.082 -0.052,-0.106 0,-0.024 0.012,-0.048 0.024,-0.095 0.034,0 0.067,-0.007 0.094,-0.007 z"
         fill="#fee6d3"
         id="path7169" />
      <path
         d="m 7.581,10.138 h 0.046 c 0.008,0.042 0.042,0.095 0.042,0.119 -0.005,0.065 -0.083,0.137 -0.129,0.137 -0.031,0 -0.091,-0.118 -0.091,-0.119 0,-0.065 0.114,-0.13 0.132,-0.137 z"
         fill="#fee6d3"
         id="path7171" />
      <path
         d="m 8.383,10.032 c 0.029,0 0.06,0.029 0.078,0.035 0.029,0.013 0.071,0.096 0.071,0.143 0,0.053 -0.096,0.143 -0.137,0.143 C 8.335,10.352 8.334,10.293 8.334,10.274 8.335,10.246 8.317,10.252 8.306,10.246 8.305,10.24 8.305,10.227 8.305,10.204 c 0,-0.035 0.024,-0.172 0.078,-0.172 z"
         fill="#fee6d3"
         id="path7173" />
      <path
         d="m 10.306,9.775 c 0.054,0 0.071,0.061 0.071,0.089 0,0.06 -0.035,0.108 -0.083,0.108 -0.083,0 -0.097,-0.077 -0.097,-0.108 0,-0.028 0.001,-0.04 0.013,-0.059 0.034,-0.005 0.072,-0.03 0.096,-0.03 z"
         fill="#fee6d3"
         id="path7175" />
      <path
         d="M 8.978,9.67 C 9.024,9.692 9.061,9.704 9.102,9.723 9.103,9.769 9.114,9.834 9.114,9.858 9.114,9.9 9.012,9.942 8.996,9.942 8.948,9.941 8.905,9.906 8.905,9.865 V 9.745 C 8.928,9.722 8.959,9.692 8.978,9.67 Z"
         fill="#fee6d3"
         id="path7177" />
      <path
         d="M 9.709,9.65 C 9.745,9.65 9.84,9.709 9.84,9.74 9.839,9.8 9.78,9.859 9.733,9.859 9.672,9.859 9.601,9.769 9.601,9.728 9.602,9.662 9.682,9.65 9.709,9.65 Z"
         fill="#fee6d3"
         id="path7179" />
      <path
         d="M 7.443,9.371 C 7.462,9.412 7.492,9.46 7.492,9.484 7.492,9.538 7.427,9.657 7.391,9.657 7.337,9.657 7.306,9.532 7.306,9.526 7.306,9.502 7.336,9.431 7.337,9.389 7.36,9.378 7.39,9.378 7.443,9.371 Z"
         fill="#fee6d3"
         id="path7181" />
      <path
         d="m 10.757,9.372 c 0.069,-0.006 0.13,0.076 0.129,0.135 0,0.037 -0.036,0.091 -0.071,0.091 -0.035,0 -0.085,-0.037 -0.085,-0.065 l 10e-4,-0.12 c 0.011,-0.012 0.025,-0.018 0.026,-0.041 z"
         fill="#fee6d3"
         id="path7183" />
      <path
         d="m 10.753,8.79 c 0.051,0.004 0.087,0.064 0.086,0.101 0,0.076 -0.096,0.141 -0.096,0.141 -0.072,-0.004 -0.082,-0.147 -0.082,-0.153 0,-0.031 0.023,-0.089 0.092,-0.089 z"
         fill="#fee6d3"
         id="path7185" />
      <path
         d="m 7.497,8.563 c 0.09,0 0.113,0.042 0.113,0.101 0,0.048 -0.053,0.107 -0.107,0.107 H 7.443 C 7.431,8.725 7.402,8.67 7.402,8.646 7.402,8.61 7.431,8.562 7.497,8.563 Z"
         fill="#fee6d3"
         id="path7187" />
      <path
         d="m 10.6,8.135 c 0.036,0 0.047,0.03 0.061,0.083 0.01,0.007 0.036,0.025 0.035,0.053 0,0.024 -0.037,0.083 -0.071,0.108 -0.023,0.005 -0.049,0.005 -0.073,0.012 -0.023,-0.042 -0.061,-0.113 -0.06,-0.138 0,-0.065 0.084,-0.118 0.108,-0.118 z"
         fill="#fee6d3"
         id="path7189" />
      <path
         d="m 7.907,7.957 0.06,0.001 c 0.048,0 0.095,0.123 0.095,0.126 0,0.054 -0.059,0.104 -0.09,0.104 -0.035,0 -0.076,-0.012 -0.089,-0.054 0,-0.011 0.011,-0.022 0.001,-0.1 0,-0.023 0.011,-0.053 0.023,-0.077 z"
         fill="#fee6d3"
         id="path7191" />
      <path
         d="m 10.074,7.6 c 0.018,0.023 0.06,0.041 0.089,0.053 0,0.066 -0.071,0.178 -0.133,0.178 C 9.97,7.826 9.958,7.749 9.958,7.724 9.958,7.683 10.041,7.63 10.074,7.6 Z"
         fill="#fee6d3"
         id="path7193" />
      <path
         d="m 8.626,7.477 c 0.024,0 0.126,0.028 0.126,0.052 0,0.072 -0.049,0.16 -0.108,0.16 C 8.579,7.688 8.526,7.612 8.525,7.601 8.531,7.576 8.566,7.529 8.555,7.488 8.579,7.487 8.597,7.477 8.626,7.477 Z"
         fill="#fee6d3"
         id="path7195" />
      <path
         d="m 9.415,7.356 c 0.028,0 0.065,0.03 0.094,0.054 C 9.498,7.434 9.507,7.458 9.495,7.475 9.468,7.511 9.396,7.553 9.372,7.553 9.344,7.553 9.332,7.542 9.324,7.529 V 7.386 C 9.356,7.385 9.391,7.356 9.415,7.356 Z"
         fill="#fee6d3"
         id="path7197" />
      <path
         d="m 12.419,7.784 c 0.049,0 0.06,0.007 0.072,0.012 -0.035,0.129 -0.013,0.238 -0.095,0.352 -0.037,0.064 -0.107,0.119 -0.165,0.16 C 12.23,8.272 12.23,8.23 12.23,8.206 c 0,-0.024 -0.014,-0.028 -0.014,-0.053 0,-0.024 0.012,-0.095 0.025,-0.131 0.035,-0.066 0.07,-0.142 0.13,-0.207 0.023,-0.004 0.036,-0.012 0.048,-0.031 z"
         fill="#ffe6cb"
         id="path7199" />
      <mask
         id="_mask_E2Vzf96P05ywN6uiHrRzHj7fPeD580rY"
         x="-200%"
         y="-200%"
         width="400%"
         height="400%">
        <rect
           x="-200%"
           y="-200%"
           width="400%"
           height="400%"
           style="fill:#ffffff"
           id="rect7201" />
        <path
           d="m 12.419,7.784 c 0.049,0 0.06,0.007 0.072,0.012 -0.035,0.129 -0.013,0.238 -0.095,0.352 -0.037,0.064 -0.107,0.119 -0.165,0.16 C 12.23,8.272 12.23,8.23 12.23,8.206 c 0,-0.024 -0.014,-0.028 -0.014,-0.053 0,-0.024 0.012,-0.095 0.025,-0.131 0.035,-0.066 0.07,-0.142 0.13,-0.207 0.023,-0.004 0.036,-0.008 0.048,-0.031 z"
           fill="#000000"
           stroke="none"
           id="path7203" />
      </mask>
      <path
         d="m 12.419,7.784 c 0.049,0 0.06,0.007 0.072,0.012 -0.035,0.129 -0.013,0.238 -0.095,0.352 -0.037,0.064 -0.107,0.119 -0.165,0.16 C 12.23,8.272 12.23,8.23 12.23,8.206 c 0,-0.024 -0.014,-0.028 -0.014,-0.053 0,-0.024 0.012,-0.095 0.025,-0.131 0.035,-0.066 0.07,-0.142 0.13,-0.207 0.023,-0.004 0.036,-0.008 0.048,-0.031 z"
         fill="none"
         id="path7206" />
      <path
         d="m 12.419,7.784 c 0.049,0 0.06,0.007 0.072,0.012 -0.035,0.129 -0.013,0.238 -0.095,0.352 -0.037,0.064 -0.107,0.119 -0.165,0.16 C 12.23,8.272 12.23,8.23 12.23,8.206 c 0,-0.024 -0.014,-0.028 -0.014,-0.053 0,-0.024 0.012,-0.095 0.025,-0.131 0.035,-0.066 0.07,-0.142 0.13,-0.207 0.023,-0.004 0.036,-0.008 0.048,-0.031 z"
         fill="none"
         mask="url(#_mask_E2Vzf96P05ywN6uiHrRzHj7fPeD580rY)"
         vector-effect="non-scaling-stroke"
         stroke-width="0.007"
         stroke="#ffe6cb"
         stroke-linejoin="miter"
         stroke-linecap="butt"
         stroke-miterlimit="3.864"
         id="path7208" />
      <path
         d="m 13.087,6.726 c 0.199,0.072 0.309,0.219 0.487,0.296 -0.12,0.091 -0.251,0.2 -0.372,0.31 -0.009,-0.024 -0.02,-0.035 -0.02,-0.059 0,-0.027 0.034,-0.19 0.034,-0.214 0,-0.084 -0.081,-0.279 -0.129,-0.333 z"
         fill="#ffe6cb"
         id="path7210" />
      <mask
         id="_mask_DqljTv1tsQyvunUeDKzbl74joYdUMWBm"
         x="-200%"
         y="-200%"
         width="400%"
         height="400%">
        <rect
           x="-200%"
           y="-200%"
           width="400%"
           height="400%"
           style="fill:#ffffff"
           id="rect7212" />
        <path
           d="m 13.087,6.726 c 0.199,0.072 0.309,0.219 0.487,0.296 -0.12,0.091 -0.251,0.2 -0.372,0.31 -0.009,-0.024 -0.02,-0.035 -0.02,-0.059 0,-0.027 0.034,-0.19 0.034,-0.214 0,-0.084 -0.081,-0.279 -0.129,-0.333 z"
           fill="#000000"
           stroke="none"
           id="path7214" />
      </mask>
      <path
         d="m 13.087,6.726 c 0.199,0.072 0.309,0.219 0.487,0.296 -0.12,0.091 -0.251,0.2 -0.372,0.31 -0.009,-0.024 -0.02,-0.035 -0.02,-0.059 0,-0.027 0.034,-0.19 0.034,-0.214 0,-0.084 -0.081,-0.279 -0.129,-0.333 z"
         fill="none"
         id="path7217" />
      <path
         d="m 13.087,6.726 c 0.199,0.072 0.309,0.219 0.487,0.296 -0.12,0.091 -0.251,0.2 -0.372,0.31 -0.009,-0.024 -0.02,-0.035 -0.02,-0.059 0,-0.027 0.034,-0.19 0.034,-0.214 0,-0.084 -0.081,-0.279 -0.129,-0.333 z"
         fill="none"
         mask="url(#_mask_DqljTv1tsQyvunUeDKzbl74joYdUMWBm)"
         vector-effect="non-scaling-stroke"
         stroke-width="0.007"
         stroke="#ffe6cb"
         stroke-linejoin="miter"
         stroke-linecap="butt"
         stroke-miterlimit="3.864"
         id="path7219" />
      <path
         d="m 12.468,6.658 c 0.024,0.002 0.021,0.009 0.036,0.009 0.033,0 0.048,0.024 0.069,0.035 0.039,0.03 0.084,0.077 0.118,0.122 0.05,0.086 0.038,0.182 0.038,0.259 -10e-4,0.102 -0.013,0.208 -0.155,0.267 -0.07,0.025 -0.179,0.054 -0.203,0.054 -0.059,0 -0.154,-0.03 -0.201,-0.066 C 12.159,7.332 12.123,7.266 12.112,7.238 12.111,7.231 12.086,7.222 12.074,7.198 12.061,7.162 12.063,7.088 12.063,7.064 c 0,-0.153 0.081,-0.314 0.203,-0.35 0.036,-0.012 0.058,-0.045 0.094,-0.045 0.132,0.003 0.06,-0.012 0.108,-0.011 z"
         fill="#ffe6cb"
         id="path7221" />
      <mask
         id="_mask_Zlhi0053dxovFFRyZw5TKXB2yReF2P2L"
         x="-200%"
         y="-200%"
         width="400%"
         height="400%">
        <rect
           x="-200%"
           y="-200%"
           width="400%"
           height="400%"
           style="fill:#ffffff"
           id="rect7223" />
        <path
           d="m 12.468,6.658 c 0.024,0.002 0.021,0.009 0.036,0.009 0.033,0 0.048,0.024 0.069,0.035 0.039,0.03 0.084,0.077 0.118,0.122 0.05,0.086 0.038,0.182 0.038,0.259 -10e-4,0.102 -0.013,0.208 -0.155,0.267 -0.07,0.025 -0.179,0.054 -0.203,0.054 -0.059,0 -0.154,-0.03 -0.201,-0.066 C 12.159,7.332 12.123,7.266 12.112,7.238 12.111,7.231 12.086,7.222 12.074,7.198 12.061,7.162 12.063,7.088 12.063,7.064 c 0,-0.153 0.081,-0.314 0.203,-0.35 0.036,-0.012 0.058,-0.045 0.094,-0.045 0.132,0.003 0.06,-0.012 0.108,-0.011 z"
           fill="#000000"
           stroke="none"
           id="path7225" />
      </mask>
      <path
         d="m 12.468,6.658 c 0.024,0.002 0.021,0.009 0.036,0.009 0.033,0 0.048,0.024 0.069,0.035 0.039,0.03 0.084,0.077 0.118,0.122 0.05,0.086 0.038,0.182 0.038,0.259 -10e-4,0.102 -0.013,0.208 -0.155,0.267 -0.07,0.025 -0.179,0.054 -0.203,0.054 -0.059,0 -0.154,-0.03 -0.201,-0.066 C 12.159,7.332 12.123,7.266 12.112,7.238 12.111,7.231 12.086,7.222 12.074,7.198 12.061,7.162 12.063,7.088 12.063,7.064 c 0,-0.153 0.081,-0.314 0.203,-0.35 0.036,-0.012 0.058,-0.045 0.094,-0.045 0.132,0.003 0.06,-0.012 0.108,-0.011 z"
         fill="none"
         id="path7228" />
      <path
         d="m 12.468,6.658 c 0.024,0.002 0.021,0.009 0.036,0.009 0.033,0 0.048,0.024 0.069,0.035 0.039,0.03 0.084,0.077 0.118,0.122 0.05,0.086 0.038,0.182 0.038,0.259 -10e-4,0.102 -0.013,0.208 -0.155,0.267 -0.07,0.025 -0.179,0.054 -0.203,0.054 -0.059,0 -0.154,-0.03 -0.201,-0.066 C 12.159,7.332 12.123,7.266 12.112,7.238 12.111,7.231 12.086,7.222 12.074,7.198 12.061,7.162 12.063,7.088 12.063,7.064 c 0,-0.153 0.081,-0.314 0.203,-0.35 0.036,-0.012 0.058,-0.045 0.094,-0.045 0.132,0.003 0.06,-0.012 0.108,-0.011 z"
         fill="none"
         mask="url(#_mask_Zlhi0053dxovFFRyZw5TKXB2yReF2P2L)"
         vector-effect="non-scaling-stroke"
         stroke-width="0.007"
         stroke="#ffe6cb"
         stroke-linejoin="miter"
         stroke-linecap="butt"
         stroke-miterlimit="3.864"
         id="path7230" />
      <path
         d="m 12.811,10.941 c 0.024,0 0.096,0.047 0.143,0.065 0.024,0.012 0.025,0.047 0.046,0.06 0.109,0.095 0.167,0.297 0.158,0.409 0,0.024 -0.025,0.155 -0.038,0.226 -0.021,0.049 -0.048,0.108 -0.081,0.156 -10e-4,0.011 0.011,0.005 0.01,0.029 0,0.024 -0.189,0.344 -0.286,0.506 -0.06,0.101 -0.154,0.195 -0.224,0.274 -0.049,0.069 -0.119,0.141 -0.178,0.189 -0.024,0.023 -0.074,0.047 -0.106,0.047 -0.06,0 -0.264,-0.26 -0.322,-0.338 -0.037,-0.06 -0.097,-0.113 -0.145,-0.161 -0.071,-0.071 -0.107,-0.165 -0.166,-0.249 -0.011,-0.013 -0.046,-0.036 -0.057,-0.049 -0.025,-0.035 -0.061,-0.077 -0.074,-0.123 -0.093,-0.245 -0.128,-0.215 -0.119,-0.411 0,-0.209 0.132,-0.601 0.429,-0.6 0.273,0.005 0.381,0.207 0.478,0.207 0.032,0 0.044,-0.017 0.045,-0.035 0.025,-0.017 0.072,-0.012 0.107,-0.029 0.062,-0.031 0.141,-0.101 0.203,-0.131 0.022,-0.007 0.141,-0.042 0.177,-0.042 z"
         fill="#da1f31"
         id="path7232" />
      <mask
         id="_mask_jaIIBM3d71FFOjWv3SksCSjWc3TDVObx"
         x="-200%"
         y="-200%"
         width="400%"
         height="400%">
        <rect
           x="-200%"
           y="-200%"
           width="400%"
           height="400%"
           style="fill:#ffffff"
           id="rect7234" />
        <path
           d="m 12.811,10.941 c 0.024,0 0.096,0.047 0.143,0.065 0.024,0.012 0.025,0.047 0.046,0.06 0.109,0.095 0.167,0.297 0.158,0.409 0,0.024 -0.025,0.155 -0.038,0.226 -0.021,0.049 -0.048,0.108 -0.081,0.156 -10e-4,0.011 0.011,0.005 0.01,0.029 0,0.024 -0.189,0.344 -0.286,0.506 -0.06,0.101 -0.154,0.195 -0.224,0.274 -0.049,0.069 -0.119,0.141 -0.178,0.189 -0.024,0.023 -0.074,0.047 -0.106,0.047 -0.06,0 -0.264,-0.26 -0.322,-0.338 -0.037,-0.06 -0.097,-0.113 -0.145,-0.161 -0.071,-0.071 -0.107,-0.165 -0.166,-0.249 -0.011,-0.013 -0.046,-0.036 -0.057,-0.049 -0.025,-0.035 -0.061,-0.077 -0.074,-0.123 -0.093,-0.245 -0.128,-0.215 -0.119,-0.411 0,-0.209 0.132,-0.601 0.429,-0.6 0.273,0.005 0.381,0.207 0.478,0.207 0.032,0 0.044,-0.017 0.045,-0.035 0.025,-0.017 0.072,-0.012 0.107,-0.029 0.062,-0.031 0.141,-0.101 0.203,-0.131 0.022,-0.007 0.141,-0.042 0.177,-0.042 z"
           fill="#000000"
           stroke="none"
           id="path7236" />
      </mask>
      <path
         d="m 12.811,10.941 c 0.024,0 0.096,0.047 0.143,0.065 0.024,0.012 0.025,0.047 0.046,0.06 0.109,0.095 0.167,0.297 0.158,0.409 0,0.024 -0.025,0.155 -0.038,0.226 -0.021,0.049 -0.048,0.108 -0.081,0.156 -10e-4,0.011 0.011,0.005 0.01,0.029 0,0.024 -0.189,0.344 -0.286,0.506 -0.06,0.101 -0.154,0.195 -0.224,0.274 -0.049,0.069 -0.119,0.141 -0.178,0.189 -0.024,0.023 -0.074,0.047 -0.106,0.047 -0.06,0 -0.264,-0.26 -0.322,-0.338 -0.037,-0.06 -0.097,-0.113 -0.145,-0.161 -0.071,-0.071 -0.107,-0.165 -0.166,-0.249 -0.011,-0.013 -0.046,-0.036 -0.057,-0.049 -0.025,-0.035 -0.061,-0.077 -0.074,-0.123 -0.093,-0.245 -0.128,-0.215 -0.119,-0.411 0,-0.209 0.132,-0.601 0.429,-0.6 0.273,0.005 0.381,0.207 0.478,0.207 0.032,0 0.044,-0.017 0.045,-0.035 0.025,-0.017 0.072,-0.012 0.107,-0.029 0.062,-0.031 0.141,-0.101 0.203,-0.131 0.022,-0.007 0.141,-0.042 0.177,-0.042 z"
         fill="none"
         id="path7239" />
      <path
         d="m 12.811,10.941 c 0.024,0 0.096,0.047 0.143,0.065 0.024,0.012 0.025,0.047 0.046,0.06 0.109,0.095 0.167,0.297 0.158,0.409 0,0.024 -0.025,0.155 -0.038,0.226 -0.021,0.049 -0.048,0.108 -0.081,0.156 -10e-4,0.011 0.011,0.005 0.01,0.029 0,0.024 -0.189,0.344 -0.286,0.506 -0.06,0.101 -0.154,0.195 -0.224,0.274 -0.049,0.069 -0.119,0.141 -0.178,0.189 -0.024,0.023 -0.074,0.047 -0.106,0.047 -0.06,0 -0.264,-0.26 -0.322,-0.338 -0.037,-0.06 -0.097,-0.113 -0.145,-0.161 -0.071,-0.071 -0.107,-0.165 -0.166,-0.249 -0.011,-0.013 -0.046,-0.036 -0.057,-0.049 -0.025,-0.035 -0.061,-0.077 -0.074,-0.123 -0.093,-0.245 -0.128,-0.215 -0.119,-0.411 0,-0.209 0.132,-0.601 0.429,-0.6 0.273,0.005 0.381,0.207 0.478,0.207 0.032,0 0.044,-0.017 0.045,-0.035 0.025,-0.017 0.072,-0.012 0.107,-0.029 0.062,-0.031 0.141,-0.101 0.203,-0.131 0.022,-0.007 0.141,-0.042 0.177,-0.042 z"
         fill="none"
         mask="url(#_mask_jaIIBM3d71FFOjWv3SksCSjWc3TDVObx)"
         vector-effect="non-scaling-stroke"
         stroke-width="0.007"
         stroke="#da1f31"
         stroke-linejoin="miter"
         stroke-linecap="butt"
         stroke-miterlimit="3.864"
         id="path7241" />
      <path
         d="m 13.205,7.82 c 0.048,0.053 0.261,0.25 0.261,0.338 L 13.465,8.319 C 13.442,8.338 13.417,8.368 13.393,8.368 13.369,8.367 13.346,8.313 13.334,8.296 13.217,8.165 13.31,8.016 13.205,7.886 V 7.82"
         fill="#da1f31"
         id="path7243" />
      <mask
         id="_mask_OLGic4YhjMJOVfnJf7fSN0kMblpUZyn5"
         x="-200%"
         y="-200%"
         width="400%"
         height="400%">
        <rect
           x="-200%"
           y="-200%"
           width="400%"
           height="400%"
           style="fill:#ffffff"
           id="rect7245" />
        <path
           d="m 13.205,7.82 c 0.048,0.053 0.261,0.25 0.261,0.338 L 13.465,8.319 C 13.442,8.338 13.417,8.368 13.393,8.368 13.369,8.367 13.346,8.313 13.334,8.296 13.217,8.165 13.31,8.016 13.205,7.886 Z"
           fill="#000000"
           stroke="none"
           id="path7247" />
      </mask>
      <path
         d="m 13.205,7.82 c 0.048,0.053 0.261,0.25 0.261,0.338 L 13.465,8.319 C 13.442,8.338 13.417,8.368 13.393,8.368 13.369,8.367 13.346,8.313 13.334,8.296 13.217,8.165 13.31,8.016 13.205,7.886 Z"
         fill="none"
         id="path7250" />
      <path
         d="m 13.205,7.82 c 0.048,0.053 0.261,0.25 0.261,0.338 L 13.465,8.319 C 13.442,8.338 13.417,8.368 13.393,8.368 13.369,8.367 13.346,8.313 13.334,8.296 13.217,8.165 13.31,8.016 13.205,7.886 Z"
         fill="none"
         mask="url(#_mask_OLGic4YhjMJOVfnJf7fSN0kMblpUZyn5)"
         vector-effect="non-scaling-stroke"
         stroke-width="0.007"
         stroke="#da1f31"
         stroke-linejoin="miter"
         stroke-linecap="butt"
         stroke-miterlimit="3.864"
         id="path7252" />
      <path
         d="m 12.441,6.887 c 0.024,0 0.06,0.05 0.086,0.065 0.001,0.03 0.034,0.065 0.034,0.09 0,0.025 -0.022,0.071 -0.034,0.124 -0.071,-0.027 -0.082,0.041 -0.143,0.038 -0.061,0 -0.154,-0.092 -0.154,-0.145 0,-0.119 0.13,-0.173 0.211,-0.172 z"
         fill="#221f20"
         id="path7254" />
      <path
         d="m 12.385,7.017 c 0.009,0.024 -0.002,0.054 -0.003,0.086 -0.021,0.003 -0.023,0.01 -0.036,0.01 V 7.047 c 0.013,-10e-4 0.026,-0.021 0.039,-0.03 z"
         fill="#ffe6cb"
         id="path7256" />
    </g>
  </g>
</svg>
