<svg xmlns="http://www.w3.org/2000/svg" width="24" height="24"><path fill="#817671" fill-rule="evenodd" d="M6.29 5.11q-.22.21-.16.47c.03.15-.06.66-.2 1.15l-.27.87h-.4c-.98 0-1.8.53-2.12 1.36-.35.91.01 1.67.86 1.8.4.07.4.07.34.45-.1.62.02.69 1.17.69h.99l-.06.29-.06.28h.85l.85.01.05-.28c.04-.16.14-.3.26-.33q.2-.04.21.03c0 .04-.1.1-.2.13q-.21.06-.18.24c.05.27 1.03.28 1.22 0q.14-.17.2-.08c.04.06.28.11.54.11.36 0 .5.05.6.19.06.1.34.27.63.36.6.2 1.77.16 2.69-.1 1.8-.5 2.15-.57 2.76-.52.54.04.7.1 1.09.42.25.2.48.36.5.33s-.04-.3-.15-.63a4 4 0 0 1-.2-.72c0-.07.18-.2.4-.3.46-.17.48-.23.2-.48a.6.6 0 0 1-.2-.38c0-.2 0-.2.2.01.24.26.54.35 1 .3l.34-.03.47-1.45c.54-1.63.55-1.7.34-1.7q-.13-.02-.15-.2c0-.1-.07-.23-.16-.28-.13-.07-.14-.13-.05-.3.06-.11.11-.38.11-.6 0-.77-.8-1.21-1.6-.89-.36.14-.43.14-.7 0a1 1 0 0 0-.6-.08c-.27.06-.3.04-.28-.12.03-.17-.09-.18-1.96-.2-1.38-.03-2.03 0-2.12.08q-.15.12-.14 0c0-.16-5.01-.16-5.18.01q-.13.15-.12 0 .01-.12-.7-.12c-.58 0-.74.04-.91.21"/></svg>