<svg xmlns="http://www.w3.org/2000/svg" width="24" height="24"><path fill="#7e7044" fill-rule="evenodd" d="M13.89 3.07c-.1.1-1.17 1.64-2.4 3.43-1.22 1.79-2.8 4.07-3.5 5.08s-1.3 1.91-1.34 2.02c-.03.1.03.4.13.64.3.67.46.7 3.66.63 3.73-.09 4.22-.13 4.46-.45.29-.36.25-.64-.15-1.02-.38-.37-.5-.74-.4-1.22l.07-.32.15.3c.26.5.38.54 1.64.54 2.1 0 2.09.02 2.09-2.18 0-1.38-.01-1.5-.19-1.55-.18-.04-.18-.09-.05-.83.07-.44.2-1.03.28-1.32.14-.5.13-.55-.03-.71a2 2 0 0 0-.7-.32q-.51-.13-.66-.36-.13-.21-.05-.23.09-.01.1-.11-.02-.11-.3-.07-.3.05-.3-.1c0-.1-.08-.13-.34-.08q-.33.06-.38-.05-.03-.14-.26 0c-.34.18-.42.06-.42-.65 0-.35-.03-.64-.07-.64s-.17.1-.3.21q-.4.37-.44-.2c0-.14-.04-.34-.08-.44-.06-.18-.07-.18-.22 0m-6 2.53c-.03.08-.27.13-.61.14q-.56.02-.5-.07.04-.1-.12-.04c-.39.15-1.28.2-1.35.08-.1-.17-.61-.03-.61.17 0 .13-.03.12-.2-.03-.2-.17-.2-.17-.2 0s0 .18-.16 0c-.15-.2-.15-.19-.1.08.06.24.02.29-.2.26-.03 0-.14.09-.23.2a.6.6 0 0 1-.4.21h-.22l.01 4c.01 2.19.05 4.01.08 4.05a.3.3 0 0 1 .07.18c0 .09.5.13 1.78.15.97.01 1.77 0 1.77-.01l-.15-.34c-.12-.24-.13-.4-.04-.9.09-.48.25-.82.82-1.7.4-.6 1.06-1.63 1.47-2.28s.88-1.32 1.03-1.5c.15-.19.3-.5.34-.7.03-.2.1-.38.14-.4a.2.2 0 0 0 .09-.16q0-.09-.1-.04-.09.05-.1-.09.01-.14.11-.22c.12-.07-.06-.24-.26-.24q-.07.01.05.1.2.11-.02.1-.3 0-.07-.27.13-.11-.11-.18t-.32.06q-.09.15-.03-.11c.05-.22.02-.25-.2-.27-.16 0-.3-.06-.34-.12q-.07-.09-.2-.01c-.08.04-.24.04-.37 0-.12-.05-.25-.06-.29-.02q-.06.04-.14-.07-.1-.15-.13 0m6.54 2.51c-.15.15-.17 1.52-.02 1.43.06-.03.1-.15.1-.26 0-.16.07-.19.54-.19.7 0 .86-.07.86-.37 0-.21-.04-.25-.25-.2q-.24.05-.51-.24-.44-.46-.72-.17m5.18 3.78q-.02.08-.15.04t-.15.06-.19.05c-.14-.04-.22.03-.35.29-.09.19-.16.41-.16.5q-.01.15-.1.11t-.16.09c-.05.12-.29.14-1.43.11-1-.02-1.41 0-1.54.1q-.17.13-.08.2c.17.1 0 1.07-.22 1.33l-.2.22h1.92q1.9 0 1.86-.1-.05-.1.04-.1.09.01.14.13c.03.1.1.09.3-.02q.3-.14.15-.24t-.01-.13q.11-.06.06-.2-.08-.19.15-.1.2.07.22-.03-.02-.1-.24-.11-.24 0-.3-.2-.05-.24.1-.16.17.07.1-.09-.06-.15.14-.15.18-.01.2-.16 0-.12-.1-.1c-.05.04-.26-.02-.47-.12-.34-.18-.35-.2-.15-.26q.22-.07.22-.32 0-.23.16-.24.17-.01.12.25-.04.23.03.25c.14 0 .67-.6.58-.66q-.08-.04-.09.05a.1.1 0 0 1-.11.11q-.1-.02-.06-.2c.03-.1-.01-.21-.1-.24q-.12-.04-.13.04"/></svg>