<?xml version="1.0" encoding="UTF-8" standalone="no"?>
<svg
   viewBox="0 0 24 24"
   width="24pt"
   height="24pt"
   version="1.1"
   id="svg1"
   xml:space="preserve"
   xmlns="http://www.w3.org/2000/svg"
   xmlns:svg="http://www.w3.org/2000/svg"><defs
     id="defs1"><clipPath
       id="_clipPath_n3ypnW9G8CiN5wTf9hWlC1m56Ch8Ntkm"><rect
         width="24"
         height="24"
         id="rect1" /></clipPath></defs><g
     style="isolation:isolate"
     id="g1"><g
       clip-path="url(#_clipPath_n3ypnW9G8CiN5wTf9hWlC1m56Ch8Ntkm)"
       id="g6"><g
         id="g5"><path
           d="m 16.587,7.448 h 0.399 v 0.397 c 0.685,0.022 1.401,0.004 2.098,0.011 v 0.419 c -0.681,0.022 -1.397,0.004 -2.091,0.011 -0.016,0.456 -0.01,0.94 -0.01,1.417 0,0.48 -0.035,0.953 0.067,1.34 0.098,0.376 0.342,0.589 0.659,0.676 0.409,0.112 0.979,0.018 1.248,-0.246 0.089,0.101 0.168,0.213 0.241,0.332 -0.342,0.3 -0.846,0.452 -1.416,0.373 C 17.268,12.105 16.907,11.845 16.717,11.372 16.521,10.88 16.574,10.194 16.574,9.511 V 7.488 c 0.004,-0.026 0.004,-0.04 0.013,-0.04 z"
           fill="#ffffff"
           id="path2" /><path
           d="M 8.116,12.102 H 7.708 V 10.346 C 7.708,9.601 7.762,8.839 7.416,8.485 7.055,8.116 6.304,8.127 5.851,8.38 5.499,8.575 5.245,8.926 5.211,9.5 c -0.051,0.853 0.038,1.735 0,2.602 H 4.802 V 7.961 H 5.211 V 8.434 C 5.483,8.077 5.879,7.802 6.443,7.762 7.375,7.694 7.955,8.12 8.085,9.016 c 0.066,0.463 0.031,0.99 0.031,1.528 z"
           fill="#ffffff"
           id="path3" /><path
           d="M 12.382,10.172 H 9.099 c 0.054,0.824 0.44,1.42 1.131,1.558 0.827,0.166 1.407,-0.275 1.658,-0.911 h 0.415 C 12.055,11.553 11.602,12.022 10.88,12.16 9.66,12.391 8.801,11.509 8.681,10.281 8.636,9.815 8.696,9.359 8.829,8.991 9.067,8.33 9.615,7.82 10.379,7.766 c 0.678,-0.051 1.182,0.249 1.499,0.636 0.342,0.412 0.526,0.968 0.504,1.77 z M 11.507,8.608 C 11.263,8.348 10.886,8.156 10.423,8.189 9.609,8.247 9.203,8.85 9.099,9.746 h 2.855 C 11.916,9.258 11.764,8.882 11.507,8.608 Z"
           fill="#ffffff"
           id="path4" /><path
           d="m 12.547,7.867 c 0.155,-0.022 0.345,-0.003 0.516,-0.011 0.377,0.492 0.758,1.008 1.131,1.529 0.029,0.039 0.14,0.216 0.159,0.216 0.025,0 0.136,-0.177 0.168,-0.216 0.361,-0.506 0.741,-1.034 1.106,-1.529 h 0.475 c 0.013,0.04 -0.041,0.08 -0.076,0.123 -0.472,0.632 -0.951,1.319 -1.423,1.955 0.52,0.722 1.084,1.449 1.582,2.164 -0.146,-0.04 -0.346,0.051 -0.501,0 -0.044,-0.014 -0.133,-0.152 -0.184,-0.217 -0.383,-0.52 -0.798,-1.091 -1.166,-1.597 -0.466,0.589 -0.894,1.222 -1.356,1.814 h -0.482 c -0.01,-0.036 0.041,-0.09 0.076,-0.134 0.494,-0.657 1.011,-1.355 1.508,-2.012 C 13.577,9.247 13.06,8.557 12.547,7.867 Z"
           fill="#ffffff"
           id="path5" /></g></g></g></svg>
