<svg xmlns="http://www.w3.org/2000/svg" width="24" height="24"><path fill="#0e0e0e" fill-rule="evenodd" d="M7.05 4.58 6.34 6.5 5.5 8.74c-.11.27-.2.53-.2.58s.28.08.62.06l.63-.03.32-.85.33-.85-.03.88-.03.87h1.22l.92-2.42c.5-1.34.92-2.46.92-2.5s-.29-.08-.64-.08h-.64l-.25.67-.26.68v-.67L8.4 4.4h-.64c-.52 0-.65.03-.7.17m2.46 2.26a61 61 0 0 0-.92 2.5c0 .04.28.07.62.05l.62-.03.37-1 .92-2.47.54-1.48h-1.22zm2.23-2.3-1.7 4.71c-.07.16-.02.18.61.15l.69-.03.3-.8.3-.8.03.82.03.82.47.03c.4.03.22.1-1.48.51l-2.8.73q-2.26.64-2.96-.5c-.28-.47-.25-1.36.1-2.1.14-.32.26-.61.26-.64s-.2.14-.46.38a9 9 0 0 0-1.7 2.45 3 3 0 0 0-.38 1.5c0 .57.03.76.22 1.02.54.76 1.96 1.03 3.3.64.4-.12 1.5-.55 2.45-.95 2.6-1.11 6.73-2.82 9.42-3.91a34 34 0 0 0 2.5-1.07q.1-.12-.06-.05c-.39.13-4.9 1.27-5.05 1.27q-.18.02-.1-.25c.06-.25.05-.25-.54-.25h-.6l.19-.47c.18-.48.19-.48.69-.51s.5-.04.7-.5l.2-.47-.49-.03c-.53-.03-.54-.04-.38-.5.1-.29.15-.31.62-.34.51-.03.51-.03.7-.5L17 4.4h-3.34l-.43.47-.43.48.15-.39c.08-.21.15-.42.15-.47 0-.15-1.3-.1-1.35.04m2.01 1.23-.66.75v.79c0 1.19.09 1.26.42.34.7-1.85.97-2.64.94-2.64-.02 0-.33.34-.7.76"/></svg>