<?xml version="1.0" encoding="UTF-8" standalone="no"?>
<svg
   viewBox="0 0 24 24"
   width="24pt"
   height="24pt"
   version="1.1"
   id="svg1"
   sodipodi:docname="ninja_warrior.svg"
   xml:space="preserve"
   inkscape:version="1.3 (0e150ed6c4, 2023-07-21)"
   xmlns:inkscape="http://www.inkscape.org/namespaces/inkscape"
   xmlns:sodipodi="http://sodipodi.sourceforge.net/DTD/sodipodi-0.dtd"
   xmlns="http://www.w3.org/2000/svg"
   xmlns:svg="http://www.w3.org/2000/svg"><defs
     id="defs1" /><sodipodi:namedview
     id="namedview1"
     pagecolor="#ffffff"
     bordercolor="#000000"
     borderopacity="0.25"
     inkscape:showpageshadow="2"
     inkscape:pageopacity="0.0"
     inkscape:pagecheckerboard="0"
     inkscape:deskcolor="#d1d1d1"
     inkscape:document-units="pt"
     inkscape:zoom="11.546875"
     inkscape:cx="17.147497"
     inkscape:cy="14.679296"
     inkscape:window-width="1920"
     inkscape:window-height="974"
     inkscape:window-x="-11"
     inkscape:window-y="1609"
     inkscape:window-maximized="1"
     inkscape:current-layer="svg1" /><g
     transform="matrix(0.00459825,0,0,-0.00459825,3.0573917,13.732898)"
     fill="#000000"
     stroke="none"
     id="g15"
     style="fill:#c30e37;fill-opacity:1"><path
       d="M 180,795 V 510 h 71 70 l -3,210 c -2,156 0,210 9,210 24,0 146,-71 210,-121 64,-51 188,-185 242,-261 26,-37 26,-38 99,-38 h 72 v 285 285 H 885 820 V 894 708 l -77,79 c -98,100 -217,189 -334,248 -82,40 -98,45 -160,45 h -69 z"
       id="path1-3"
       style="fill:#c30e37;fill-opacity:1" /><path
       d="M 1060,795 V 510 h 70 70 v 285 285 h -70 -70 z"
       id="path2"
       style="fill:#c30e37;fill-opacity:1" /><path
       d="M 1310,795 V 510 h 65 65 v 211 210 l 23,-7 c 115,-35 275,-166 404,-331 l 65,-83 h 69 69 v 285 285 h -65 -65 V 897 714 l -77,76 c -105,103 -227,192 -338,246 -78,38 -100,44 -153,44 h -62 z"
       id="path3"
       style="fill:#c30e37;fill-opacity:1" /><path
       d="m 2620,1015 v -65 h 55 56 l -3,-152 -3,-153 -130,-3 c -195,-5 -232,2 -277,49 -36,38 -40,39 -103,39 -73,0 -75,-3 -46,-65 25,-53 76,-103 131,-129 41,-19 66,-21 303,-24 l 257,-3 v 285 286 h -120 -120 z"
       id="path4"
       style="fill:#c30e37;fill-opacity:1" /><path
       d="m 3132,1061 c -61,-21 -104,-58 -135,-116 -20,-36 -22,-58 -25,-237 l -4,-198 h 66 66 v 110 110 h 235 235 V 620 510 h 65 65 v 285 285 h -257 c -224,-1 -265,-3 -311,-19 z m 438,-156 v -45 h -231 -231 l 19,33 c 27,45 75,55 276,56 l 167,1 z"
       id="path5"
       style="fill:#c30e37;fill-opacity:1" /><path
       d="m 183,363 c 4,-38 7,-99 7,-137 v -68 l 163,3 c 135,3 168,7 190,22 48,31 61,62 65,158 l 4,89 H 576 540 V 347 C 540,231 539,230 377,230 H 250 v 100 100 h -36 -37 z"
       id="path6"
       style="fill:#c30e37;fill-opacity:1" /><path
       d="m 360,345 v -85 h 30 30 v 85 85 h -30 -30 z"
       id="path7"
       style="fill:#c30e37;fill-opacity:1" /><path
       d="M 704,411 C 664,386 650,346 650,249 v -79 h 29 c 28,0 30,2 33,48 l 3,47 108,3 107,3 v -51 -50 h 35 35 V 300 430 H 868 c -113,0 -138,-3 -164,-19 z m 226,-61 c 0,-19 -7,-20 -105,-20 -87,0 -103,2 -99,14 8,20 25,23 122,25 76,1 82,-1 82,-19 z"
       id="path8"
       style="fill:#c30e37;fill-opacity:1" /><path
       d="M 1050,300 V 170 h 30 30 v 100 100 h 115 c 113,0 115,-1 105,-20 -9,-18 -21,-20 -100,-20 h -90 v -30 c 0,-29 2,-30 43,-30 39,0 48,-5 97,-55 45,-45 60,-55 88,-55 h 34 l -47,52 -46,52 36,18 c 40,21 55,50 55,109 v 39 h -175 -175 z"
       id="path9"
       style="fill:#c30e37;fill-opacity:1" /><path
       d="M 1450,300 V 170 h 30 30 v 100 100 h 115 c 63,0 115,-4 115,-8 0,-24 -30,-32 -112,-32 h -88 v -30 c 0,-29 2,-30 42,-30 38,0 48,-6 99,-56 48,-47 61,-55 88,-52 l 32,3 -45,50 -44,50 31,15 c 39,19 57,52 57,108 v 42 h -175 -175 z"
       id="path10"
       style="fill:#c30e37;fill-opacity:1" /><path
       d="M 1850,300 V 170 h 30 30 v 130 130 h -30 -30 z"
       id="path11"
       style="fill:#c30e37;fill-opacity:1" /><path
       d="m 2019,407 c -43,-28 -58,-71 -58,-164 l -1,-73 h 135 c 196,0 214,14 223,173 l 4,87 h -134 c -124,0 -138,-2 -169,-23 z m 231,-91 c 0,-79 -11,-86 -126,-86 h -94 v 60 c 0,75 7,79 128,80 h 92 z"
       id="path12"
       style="fill:#c30e37;fill-opacity:1" /><path
       d="M 2370,300 V 170 h 30 30 v 100 100 h 115 c 113,0 115,-1 105,-20 -9,-18 -21,-20 -100,-20 h -90 v -30 c 0,-28 2,-30 38,-30 32,0 45,-8 92,-55 48,-48 59,-55 94,-55 h 40 l -52,53 -52,53 36,13 c 41,15 64,57 64,116 v 35 h -175 -175 z"
       id="path13"
       style="fill:#c30e37;fill-opacity:1" /><path
       d="M 2980,300 V 170 h 123 c 103,0 127,3 154,20 45,27 55,52 61,152 l 5,88 h -37 -36 v -80 c 0,-111 -11,-122 -122,-118 l -81,3 2,98 2,97 h -35 -36 z"
       id="path14"
       style="fill:#c30e37;fill-opacity:1" /><path
       d="M 3365,300 V 170 h 33 c 32,0 32,0 32,50 v 50 h 85 c 97,0 125,-16 125,-70 0,-28 3,-30 36,-30 h 36 l -7,43 c -9,54 -27,82 -66,103 l -31,16 48,49 48,49 -44,-1 c -41,0 -48,-5 -85,-49 -38,-47 -42,-49 -92,-49 l -53,-1 v 50 c 0,50 0,50 -32,50 h -33 z"
       id="path15"
       style="fill:#c30e37;fill-opacity:1" /></g></svg>
