<?xml version="1.0" encoding="UTF-8" standalone="no"?>
<svg
   viewBox="0 0 24 24"
   width="24pt"
   height="24pt"
   version="1.1"
   id="svg19486"
   sodipodi:docname="no1_currency.svg"
   xml:space="preserve"
   inkscape:version="1.2.2 (732a01da63, 2022-12-09)"
   inkscape:export-filename="no1_currency.svg"
   inkscape:export-xdpi="96"
   inkscape:export-ydpi="96"
   xmlns:inkscape="http://www.inkscape.org/namespaces/inkscape"
   xmlns:sodipodi="http://sodipodi.sourceforge.net/DTD/sodipodi-0.dtd"
   xmlns="http://www.w3.org/2000/svg"
   xmlns:svg="http://www.w3.org/2000/svg"><defs
     id="defs19490" /><sodipodi:namedview
     id="namedview19488"
     pagecolor="#ffffff"
     bordercolor="#000000"
     borderopacity="0.25"
     inkscape:showpageshadow="2"
     inkscape:pageopacity="0.0"
     inkscape:pagecheckerboard="0"
     inkscape:deskcolor="#d1d1d1"
     inkscape:document-units="pt"
     showgrid="false"
     inkscape:zoom="12.640625"
     inkscape:cx="5.3794808"
     inkscape:cy="8.6229913"
     inkscape:window-width="1920"
     inkscape:window-height="974"
     inkscape:window-x="-11"
     inkscape:window-y="1609"
     inkscape:window-maximized="1"
     inkscape:current-layer="svg19486" /><g
     id="g20226"
     transform="matrix(0.10121204,0,0,0.10121204,-43.793841,-78.294265)"><path
       d="m 785.85844,593.76355 c 1,3 1,3 0.22265,5.04297 -0.38285,0.7077 -0.7657,1.41539 -1.16015,2.14453 -0.38028,0.71543 -0.76055,1.43086 -1.15235,2.16797 -0.45053,0.81404 -0.45053,0.81404 -0.91015,1.64453 -0.33,0 -0.66,0 -1,0 0,-1.98 0,-3.96 0,-6 0.99,0 1.98,0 3,0 0.33,-1.65 0.66,-3.3 1,-5 z"
       fill="#c4454b"
       id="path20051" /><g
       id="g20361"
       transform="matrix(0.18806307,0,0,0.18806307,439.78841,819.0135)"><g
         id="g20239"
         style="fill:#ffffff"><path
           d="m 0,0 c 15.18,0 30.36,0 46,0 0,64.35 0,128.7 0,195 -19.47,0 -38.94,0 -59,0 0,-36.96 0,-73.92 0,-112 -14.85,0 -29.7,0 -45,0 0,-13.53 0,-27.06 0,-41 11.3125,-1.25 11.3125,-1.25 14.805908,-1.614258 C -31.418858,38.995353 -22.272139,35.378533 -13,28 c 0.587812,-0.438281 1.175625,-0.876562 1.78125,-1.328125 C -3.7227898,20.323256 -2.0074856,9.0336852 0,0 Z"
           fill="#d9333a"
           transform="translate(300,204)"
           id="path19859"
           style="fill:#ffffff" /><path
           d="M 0,0 C 0.83402344,-0.00257813 1.6680469,-0.00515625 2.5273438,-0.0078125 5.0625,0.125 5.0625,0.125 10.0625,1.125 c 0.495,8.415 0.495,8.415 1,17 1.19625,-1.4025 2.3925,-2.805 3.625,-4.25 C 22.566091,5.0889269 32.904146,0.58067608 44.699219,-0.078125 52.688643,-0.23150306 59.54397,0.14812026 67.0625,3.125 68.37541,3.5774609 68.37541,3.5774609 69.714844,4.0390625 74.962226,5.9345926 78.37094,7.8006013 82.0625,12.125 c 0.825,0.721875 1.65,1.44375 2.5,2.1875 9.615732,10.817699 10.5,23.825242 10.5,37.8125 -20.13,0 -40.26,0 -61,0 1.32,3.3 2.64,6.6 4,10 0.33,0.99 0.66,1.98 1,3 7.271918,2.763329 13.179029,2.62191 20.300781,-0.148438 1.896667,-0.838773 1.896667,-0.838773 3.699219,-2.851562 2.980957,-0.227051 2.980957,-0.227051 6.757812,-0.195313 0.994578,0.0042 0.994578,0.0042 2.009247,0.0086 2.119497,0.0112 4.238572,0.03631 6.357941,0.06174 1.436192,0.01003 2.87239,0.01916 4.308594,0.02734 3.522272,0.02206 7.044298,0.05659 10.566406,0.09766 -1.899345,8.26145 -8.006457,15.36249 -15,20 -0.99,0 -1.98,0 -3,0 0,0.66 0,1.32 0,2 -1.538367,0.653654 -3.080888,1.297536 -4.625,1.9375 -0.858516,0.359648 -1.717031,0.719297 -2.601563,1.089844 C 54.884622,91.694425 38.340451,90.146621 25.980469,84.789062 15.948611,79.6154 8.582502,70.892065 5.0625,60.125 4.670625,58.949375 4.27875,57.77375 3.875,56.5625 1.7512851,47.389479 2.8176178,38.133932 5.0625,29.125 1.9151428,29.401544 -1.2299185,29.698756 -4.375,30 c -0.897832,0.07863 -1.7956641,0.157266 -2.7207031,0.238281 -1.2810059,0.125684 -1.2810059,0.125684 -2.5878907,0.253906 -1.1861392,0.109974 -1.1861392,0.109974 -2.3962402,0.222168 -0.919545,0.20327 -0.919545,0.20327 -1.857666,0.410645 -0.33,0.66 -0.66,1.32 -1,2 -0.66,0 -1.32,0 -2,0 -3.171657,7.476049 -4.308596,13.812892 -4.414062,21.871094 -0.01937,0.922329 -0.03873,1.844658 -0.05869,2.794937 -0.05941,2.923731 -0.106027,5.847503 -0.152252,8.771469 -0.03822,1.991553 -0.07727,3.98309 -0.117187,5.974609 -0.09721,4.862544 -0.177082,9.724934 -0.257813,14.587891 -10.56,0 -21.12,0 -32,0 0,-28.05 0,-56.1 0,-85 10.23,0 20.46,0 31,0 0.33,3.63 0.66,7.26 1,11 0.474375,-0.86625 0.94875,-1.7325 1.4375,-2.625 C -17.402737,5.8263518 -12.270903,2.240535 -6.9648437,0.46484375 -4.6125952,0.07053618 -2.3851263,-0.00735016 0,0 Z"
           fill="#d8343b"
           transform="translate(670.9375,310.875)"
           id="path19861"
           style="fill:#ffffff" /><path
           d="m 0,0 c 11.22,0 22.44,0 34,0 1.497396,5.2408854 2.994792,10.481771 4.492187,15.722656 0.390345,1.364513 0.390345,1.364513 0.788575,2.756592 0.598279,2.096822 1.190747,4.195302 1.781738,6.294189 1.273155,4.381775 2.707143,8.708725 4.132812,13.042969 C 46.003651,41.014444 46.148097,43.717193 46,47 c 0.66,0 1.32,0 2,0 0.185625,-1.825313 0.185625,-1.825313 0.375,-3.6875 C 48.799376,39.893584 49.677875,37.188655 51,34 51.311521,32.664633 51.600567,31.323948 51.875,29.980469 52.994519,24.812776 54.500048,19.798508 56.0625,14.75 56.59723,13.016295 57.129851,11.281938 57.660156,9.546875 57.893557,8.7924512 58.126958,8.0380273 58.367432,7.2607422 59.035865,4.8718226 59.5135,2.4325002 60,0 c 11.22,0 22.44,0 34,0 -3.326733,12.19802 -3.326733,12.19802 -5.75,17.875 -2.520372,6.05955 -4.656846,12.197938 -6.6875,18.4375 -2.462329,7.564774 -5.181112,14.965809 -8.141602,22.348389 -2.256675,5.707796 -3.925375,11.435471 -5.526367,17.362548 -0.981159,3.26482 -2.263869,6.084553 -3.90625,9.058594 -1.14754,2.227046 -1.952673,4.498813 -2.800781,6.855469 -3.130079,7.825197 -7.058465,13.4203 -14.8125,17.0625 -5.819696,2.40125 -10.917945,3.12536 -17.207031,3.09766 -1.292285,-0.003 -2.584571,-0.006 -3.916016,-0.01 -1.354818,-0.008 -2.709636,-0.0168 -4.064453,-0.0254 -1.374347,-0.005 -2.748696,-0.01 -4.123047,-0.0137 C 13.709617,112.03706 10.354803,112.01912 7,112 7,103.42 7,94.84 7,86 15.375,85.625 15.375,85.625 18.009277,85.521973 22.475438,85.452089 22.475438,85.452089 26,83 26.560518,76.610097 25.23269,71.930308 23,66 22.166119,63.625192 21.332822,61.250179 20.5,58.875 19.27528,55.41281 18.009379,52.021606 16.546875,48.652344 14.741879,44.390547 13.243015,40.066014 11.75,35.6875 9.1188222,28.03517 6.3114665,20.480522 3.2216797,13.000732 2.9448535,12.31342 2.6680273,11.626108 2.3828125,10.917969 2.1393408,10.32782 1.8958691,9.7376709 1.6450195,9.1296387 0.74866734,6.1701836 0.43730587,3.0611411 0,0 Z"
           fill="#d9333a"
           transform="translate(948,313)"
           id="path19863"
           style="fill:#ffffff" /><path
           d="M 0,0 C 0,0.66 0,1.32 0,2 0.60585938,2.2552344 1.2117187,2.5104687 1.8359375,2.7734375 4.2640409,4.149655 5.1702215,5.2691974 6.625,7.625 7.0297656,8.2566406 7.4345312,8.8882813 7.8515625,9.5390625 11.600366,17.572212 11.263578,25.648128 11.195313,34.34375 c -0.0037,1.378619 -0.0066,2.757241 -0.0086,4.135864 -0.0076,3.603592 -0.02719,7.20702 -0.04941,10.810547 -0.02057,3.687111 -0.02973,7.374249 -0.03967,11.061401 C 11.077363,67.567853 11.038204,74.783693 11,82 c -10.89,0 -21.78,0 -33,0 -0.04898,-3.851719 -0.09797,-7.703438 -0.148437,-11.671875 -0.054,-3.726602 -0.111309,-7.45314 -0.168946,-11.179688 -0.03831,-2.591747 -0.07315,-5.183549 -0.104492,-7.77539 -0.04562,-3.723502 -0.103618,-7.446635 -0.164062,-11.169922 -0.01155,-1.160539 -0.0231,-2.321078 -0.035,-3.516785 -0.01987,-1.080818 -0.03974,-2.161637 -0.06021,-3.275207 -0.01332,-0.950422 -0.02665,-1.900844 -0.04037,-2.880066 C -23.01291,27.882659 -23.596777,26.249117 -25,24 c -3.44364,-2.550844 -6.84288,-2.430047 -11,-2 -4.240286,2.258794 -4.240286,2.258794 -7,6 -0.119172,1.725271 -0.177173,3.454929 -0.205322,5.184082 -0.01994,1.08097 -0.03989,2.161939 -0.06044,3.275665 -0.02507,1.756293 -0.02507,1.756293 -0.05064,3.548065 -0.02078,1.195757 -0.04156,2.391514 -0.06297,3.623505 -0.06554,3.831168 -0.124403,7.662405 -0.183121,11.493683 -0.04318,2.592455 -0.0868,5.184903 -0.130859,7.777344 C -43.801427,69.268158 -43.900465,75.634023 -44,82 c -10.89,0 -21.78,0 -33,0 0,-28.05 0,-56.1 0,-85 10.56,0 21.12,0 32,0 0.495,3.96 0.495,3.96 1,8 0.825,-0.7425 1.65,-1.485 2.5,-2.25 C -28.822227,-7.7749438 -14.281287,-6.4120064 0,0 Z"
           fill="#d8373d"
           transform="translate(848,316)"
           id="path19865"
           style="fill:#ffffff" /><path
           d="m 0,0 c 10.89,0 21.78,0 33,0 0.01418,3.9123047 0.02836,7.8246094 0.04297,11.855469 0.03061,3.789557 0.0697,7.578939 0.109619,11.368408 0.0232,2.6334 0.03758,5.266894 0.04297,7.900391 0.0093,3.78599 0.05025,7.570516 0.09741,11.356201 -0.0039,1.177251 -0.0079,2.354503 -0.01192,3.567428 0.06545,6.526319 0.06545,6.526319 3.017044,12.195511 2.963226,1.926485 5.157851,2.482416 8.70581,2.240967 C 48.617956,59.607385 50.542294,57.691773 53,55 c 2.569681,-5.583626 2.347168,-11.276984 2.414062,-17.304688 0.01937,-1.079116 0.03873,-2.158233 0.05869,-3.27005 0.05959,-3.433341 0.1061,-6.866716 0.152252,-10.300262 0.0382,-2.333348 0.07725,-4.666681 0.117187,-7 C 55.839626,11.41674 55.919358,5.7086205 56,0 c 10.56,0 21.12,0 32,0 0,28.05 0,56.1 0,85 -10.23,0 -20.46,0 -31,0 0,-3.3 0,-6.6 0,-10 -0.66,0 -1.32,0 -2,0 0,0.66 0,1.32 0,2 -0.66,0 -1.32,0 -2,0 0,0.66 0,1.32 0,2 -1.976563,1.4375 -1.976563,1.4375 -4.625,3 -0.858516,0.515625 -1.717031,1.03125 -2.601563,1.5625 -5.570434,2.887211 -10.477799,3.779485 -16.710937,3.75 -1.016104,0.02417 -1.016104,0.02417 -2.052734,0.04883 C 19.176665,87.368838 12.814657,84.108484 7,79 4.7713539,75.980544 4,74.758565 4,71 3.34,71 2.68,71 2,71 -0.3943381,63.510444 -0.25677628,56.237955 -0.1953125,48.4375 c 0.003737,-1.40104 0.006581,-2.802082 0.008575,-4.203125 0.007586,-3.662775 0.0271897,-7.325387 0.049408,-10.988098 0.0205685,-3.747434 0.0297272,-7.494896 0.03967285,-11.242371 C -0.07736079,14.669128 -0.03820205,7.3347938 0,0 Z"
           fill="#d8353b"
           transform="translate(451,313)"
           id="path19867"
           style="fill:#ffffff" /><path
           d="m 0,0 c 8.91,0 17.82,0 27,0 4.694726,8.0481024 9.16735,16.096124 13.208984,24.492187 1.487388,3.05585 3.004026,5.826539 4.900391,8.664063 C 47,36 47,36 49,41 49.33,27.47 49.66,13.94 50,0 c 8.25,0 16.5,0 25,0 0,27.39 0,54.78 0,83 -8.58,0 -17.16,0 -26,0 C 46.94029,79.56715 45.417205,76.607499 43.910645,72.980957 41.66452,68.094884 38.701888,63.545913 35.939453,58.939453 33.438603,54.705944 31.310182,50.783329 30,46 29.34,46 28.68,46 28,46 27.34,45.01 26.68,44.02 26,43 25.67,56.2 25.34,69.4 25,83 16.75,83 8.5,83 0,83 0,55.61 0,28.22 0,0 Z"
           fill="#d9343a"
           transform="translate(159,204)"
           id="path19869"
           style="fill:#ffffff" /><path
           d="m 0,0 c 7.5363386,5.3794308 13.183864,11.754217 15,21 0,2.31 0,4.62 0,7 -9.9,0 -19.8,0 -30,0 -0.99,-2.31 -1.98,-4.62 -3,-7 -2.16064,-2.196576 -3.38,-2.888098 -6.402344,-3.433594 -4.153517,-0.0064 -6.889998,0.05028 -10.597656,2.058594 -4.44332,5.276442 -4.338179,11.24393 -4.3125,17.8125 -0.01611,0.820488 -0.03223,1.640977 -0.04883,2.486328 C -39.36573,45.409845 -38.449033,49.095734 -36,54 c 0.33,0.99 0.66,1.98 1,3 8.495693,0.825519 8.495693,0.825519 16.125,-2.125 2.229911,-3.299808 2.229911,-3.299808 4.875,-8.875 9.9,0 19.8,0 30,0 C 14.40001,58.799917 10.74756,65.571173 0.796875,73.828125 -1.4050818,75.396425 -3.6170421,76.724839 -6,78 -6.7502344,78.4125 -7.5004687,78.825 -8.2734375,79.25 -18.188936,83.754201 -31.248716,83.671814 -41.707031,81.082031 -44.644224,79.916957 -47.27965,78.602456 -50,77 c -0.804375,-0.434414 -1.60875,-0.868828 -2.4375,-1.316406 -10.122915,-6.001931 -16.376218,-15.66598 -19.25,-26.871094 -2.635422,-12.378072 -1.486489,-23.449981 4.625,-34.75 4.486615,-6.6619437 9.335481,-13.33163358 17.4375,-15.375 1.19625,-0.226875 2.3925,-0.45375 3.625,-0.6875 0,-0.66 0,-1.32 0,-2 16.114583,-4.3040539 31.168106,-4.5300271 46,4 z"
           fill="#d8353b"
           transform="translate(430,318)"
           id="path19871"
           style="fill:#ffffff" /><path
           d="M 0,0 C 2.7074584,2.44403 4.8589663,5.0575738 7,8 8.175625,9.36125 8.175625,9.36125 9.375,10.75 11,14 11,14 12,26 c -10.23,0 -20.46,0 -31,0 -0.66,-2.31 -1.32,-4.62 -2,-7 -2.944276,-2.765835 -5.585653,-3.229082 -9.5,-3.4375 -3.229364,0.123586 -4.522735,0.450077 -7.4375,2.0625 -4.507049,5.189935 -4.427215,11.208767 -4.4375,17.75 -0.03674,1.218164 -0.03674,1.218164 -0.07422,2.460937 -0.02559,5.322139 0.905699,8.946666 3.587403,13.557129 C -38,53 -38,53 -38,55 c 8.516497,0.812096 8.516497,0.812096 16.1875,-2.125 2.195524,-3.229311 2.195524,-3.229311 3.8125,-8.875 10.23,0 20.46,0 31,0 -1.620659,11.344611 -5.0552785,19.478875 -14,27 -4.4264457,2.820177 -9.176335,4.94936 -14,7 -0.763125,0.38543 -1.52625,0.770859 -2.3125,1.167969 -4.121976,1.276135 -8.147984,1.160395 -12.4375,1.144531 -0.855937,0.01611 -1.711875,0.03223 -2.59375,0.04883 -8.753944,0.0066 -15.562058,-2.385461 -23.03125,-6.923828 -1.496602,-0.899121 -1.496602,-0.899121 -3.023437,-1.816406 C -62.583212,69.013464 -64.499663,67.200566 -67,63 c -0.647109,-0.603281 -1.294219,-1.206562 -1.960937,-1.828125 -2.292507,-2.441827 -3.144879,-4.39454 -4.226563,-7.546875 -0.323555,-0.915234 -0.647109,-1.830469 -0.980469,-2.773438 C -77.676554,38.826835 -76.749753,26.538947 -72,15 -65.782038,3.8248616 -57.08429,-3.624599 -44.859375,-7.3085937 -29.112319,-11.116283 -13.708978,-8.8285023 0,0 Z"
           fill="#d8353c"
           transform="translate(940,320)"
           id="path19873"
           style="fill:#ffffff" /><path
           d="m 0,0 c 0,9.57 0,19.14 0,29 -1.32,0 -2.64,0 -4,0 0,-0.66 0,-1.32 0,-2 -10.992356,0.140529 -10.992356,0.140529 -21,4 -5.795491,6.891935 -6.301345,14.258932 -6.414062,22.871094 -0.01937,0.922329 -0.03873,1.844658 -0.05869,2.794937 -0.05941,2.923731 -0.106027,5.847503 -0.152252,8.771469 -0.03822,1.991553 -0.07727,3.98309 -0.117187,5.974609 C -31.839398,76.274653 -31.919269,81.137043 -32,86 c -10.56,0 -21.12,0 -32,0 0,-28.05 0,-56.1 0,-85 10.23,0 20.46,0 31,0 0.33,3.63 0.66,7.26 1,11 0.515625,-0.886875 1.03125,-1.77375 1.5625,-2.6875 C -23.533527,-1.0068657 -11.417051,-2.8542626 0,0 Z"
           fill="#d8343b"
           transform="translate(612,312)"
           id="path19875"
           style="fill:#ffffff" /><path
           d="m 0,0 c 10.23,0 20.46,0 31,0 0.33,3.63 0.66,7.26 1,11 0.5775,-0.928125 1.155,-1.85625 1.75,-2.8125 C 37.333104,3.1114367 40.302493,1.5480115 46.273437,0.33984375 51.499416,-0.31153181 56.744749,-0.14620482 62,0 c 1.594123,3.1882457 1.101747,6.6289666 1.0625,10.125 -0.0045,0.754102 -0.009,1.508203 -0.01367,2.285156 C 63.037035,14.273471 63.019099,16.136746 63,18 c 0.66,0 1.32,0 2,0 -0.3125,1.9375 -0.3125,1.9375 -1,4 -0.99,0.33 -1.98,0.66 -3,1 0,0.66 0,1.32 0,2 C 60.093789,24.9768 59.187578,24.95359 58.253906,24.92969 51.138029,24.824267 44.865832,25.105977 38,27 c 0,0.99 0,1.98 0,3 -0.66,0 -1.32,0 -2,0 0,0.66 0,1.32 0,2 -0.99,0 -1.98,0 -3,0 0.185625,1.0725 0.37125,2.145 0.5625,3.25 0.395871,3.393176 0.262848,4.640718 -0.5625,7.75 -0.109315,1.433992 -0.175007,2.871737 -0.205322,4.30957 -0.01994,0.84057 -0.03989,1.681139 -0.06044,2.54718 -0.02507,1.347081 -0.02507,1.347081 -0.05064,2.721375 -0.02078,0.926574 -0.04156,1.853148 -0.06297,2.8078 -0.06529,2.954618 -0.124285,5.909323 -0.183121,8.864075 -0.04321,2.005217 -0.08682,4.010426 -0.130859,6.015625 C 32.198899,75.176995 32.099673,80.088433 32,85 21.44,85 10.88,85 0,85 0,56.95 0,28.9 0,0 Z"
           fill="#da3339"
           transform="translate(617,313)"
           id="path19877"
           style="fill:#ffffff" /><path
           d="m 0,0 c 3.1627097,2.8151592 3.7124702,5.6738008 4.0078125,9.8085938 -0.01418,1.1214842 -0.028359,2.2429682 -0.042969,3.3984372 -0.00645,1.126641 -0.012891,2.253282 -0.019531,3.414063 -0.1679687,2.960937 -0.1679687,2.960937 -1.1679687,5.960937 -0.6600001,0 -1.3200001,0 -2.00000005,0 -0.309375,0.897188 -0.309375,0.897188 -0.625,1.8125 -2.05082225,3.262672 -3.70964955,3.923586 -7.37499995,5.1875 -5.5495018,0.630971 -10.3234718,0.718512 -15.4999998,-1.5 -4.691059,-4.691058 -6.72392,-9.076951 -6.8125,-15.75 0.09268,-3.0634988 0.480364,-5.8003163 1.3125,-8.7499997 0.66,0 1.32,0 2,0 0.02062,-0.598125 0.04125,-1.19625 0.0625,-1.8125001 0.9375,-2.18749995 0.9375,-2.18749995 3.8125,-3.9375 C -14.428328,-5.0890323 -7.2146979,-4.109638 0,0 Z"
           fill="#d13f45"
           transform="translate(271.22266,206.41797)"
           id="path19879"
           style="fill:#ffffff" /></g><path
         d="m 0,0 c 15.18,0 30.36,0 46,0 0,64.35 0,128.7 0,195 -19.47,0 -38.94,0 -59,0 0,-36.96 0,-73.92 0,-112 -14.85,0 -29.7,0 -45,0 0,-13.53 0,-27.06 0,-41 11.3125,-1.25 11.3125,-1.25 14.805908,-1.614258 C -33.457791,39.236105 -24.991925,36.737793 -17,31 c 0.66,0 1.32,0 2,0 0,0.66 0,1.32 0,2 -0.99,0 -1.98,0 -3,0 -0.66,1.32 -1.32,2.64 -2,4 -1.32,0 -2.64,0 -4,0 0,0.66 0,1.32 0,2 -10.914218,4.403983 -19.644577,4 -32,4 0,12.54 0,25.08 0,38 3.164648,-0.0116 6.329297,-0.0232 9.589844,-0.03516 3.05135,-0.0078 6.102698,-0.01387 9.154052,-0.01978 2.127284,-0.005 4.254564,-0.01187 6.381836,-0.02051 3.050546,-0.01207 6.101046,-0.01779 9.151612,-0.02222 1.435927,-0.0077 1.435927,-0.0077 2.900863,-0.01564 1.321257,-1.13e-4 1.321257,-1.13e-4 2.669205,-2.28e-4 0.779435,-0.0022 1.558869,-0.0044 2.361923,-0.0067 C -12,81 -12,81 -11,82 c 0.09562,1.454815 0.121884,2.914255 0.120255,4.372208 0.0014,0.94376 0.0027,1.887519 0.0042,2.859878 -0.0054,1.565531 -0.0054,1.565531 -0.0109,3.162689 1.46e-4,1.092546 2.92e-4,2.185092 4.43e-4,3.310746 -7e-4,3.630731 -0.0085,7.261409 -0.01631,10.892139 -0.0019,2.50963 -0.0033,5.01927 -0.0043,7.52891 -0.0034,5.94278 -0.01133,11.88553 -0.02135,17.8283 -0.01421,8.61288 -0.01947,17.22577 -0.02581,25.83866 -0.0097,12.06884 -0.02887,24.13763 -0.04621,36.20647 18.48,0 36.96,0 56,0 C 45,130.31 45,66.62 45,1 31.14,1.33 17.28,1.66 3,2 2.01,5.63 1.02,9.26 0,13 c -0.66,0 -1.32,0 -2,0 -0.33,2.64 -0.66,5.28 -1,8 -0.99,0.33 -1.98,0.66 -3,1 0.7113355,-3.964214 1.7897985,-7.72278 3,-11.5625 C -1.9076661,6.9637175 -0.88360115,3.5344046 0,0 Z"
         fill="#cc696e"
         transform="translate(300,204)"
         id="path19881"
         style="fill:#ffffff" /><path
         d="m 0,0 c 10.23,0 20.46,0 31,0 0.33,3.63 0.66,7.26 1,11 0.66,-0.66 1.32,-1.32 2,-2 0.495,1.485 0.495,1.485 1,3 -0.66,0.99 -1.32,1.98 -2,3 -0.99,0 -1.98,0 -3,0 C 29,13 29,13 29,2 20.09,2 11.18,2 2,2 c 0,26.73 0,53.46 0,81 9.24,0 18.48,0 28,0 -0.0348,-2.90168 -0.06961,-5.803359 -0.105469,-8.792969 -0.02341,-2.816477 -0.04162,-5.632944 -0.05933,-8.449463 -0.01507,-1.954476 -0.03553,-3.908919 -0.06152,-5.863281 -0.03647,-2.812503 -0.05343,-5.624559 -0.06665,-8.437256 -0.01548,-0.871018 -0.03097,-1.742037 -0.04692,-2.63945 C 29.658785,44.01959 29.939464,40.943044 33,37 c 1.272849,2.545698 0.721448,3.311059 0,6 -0.109315,1.433992 -0.175007,2.871737 -0.205322,4.30957 -0.01994,0.84057 -0.03989,1.681139 -0.06044,2.54718 -0.02507,1.347081 -0.02507,1.347081 -0.05064,2.721375 -0.02078,0.926574 -0.04156,1.853148 -0.06297,2.8078 -0.06529,2.954618 -0.124285,5.909323 -0.183121,8.864075 -0.04321,2.005217 -0.08682,4.010426 -0.130859,6.015625 C 32.198899,75.176995 32.099673,80.088433 32,85 21.44,85 10.88,85 0,85 0,56.95 0,28.9 0,0 Z"
         fill="#c25156"
         transform="translate(617,313)"
         id="path19883"
         style="fill:#ffffff" /><path
         d="m 0,0 c 10.56,0 21.12,0 32,0 0,28.05 0,56.1 0,85 -10.23,0 -20.46,0 -31,0 0,-2.97 0,-5.94 0,-9 0.33,0 0.66,0 1,0 0,2.31 0,4.62 0,7 8.91,0 17.82,0 27,0 C 29.33,56.27 29.66,29.54 30,2 20.43,2 10.86,2 1,2 1.072188,4.4247266 1.144375,6.8494531 1.21875,9.3476563 1.288771,11.750718 1.3580418,14.1538 1.4272461,16.556885 c 0.047724,1.643577 0.0962,3.287133 0.1455078,4.930664 0.1421624,4.747935 0.264777,9.495763 0.3686523,14.24469 0.056767,2.197067 0.1415515,4.391618 0.2304688,6.587585 0.054141,1.974441 0.054141,1.974441 0.109375,3.98877 0.041895,1.151697 0.083789,2.303393 0.1269531,3.48999 C 1.898764,53.793964 0.57470651,55.936598 -2,59 c -0.99,0 -1.98,0 -3,0 0,0.66 0,1.32 0,2 -0.66,0 -1.32,0 -2,0 0,0.66 0,1.32 0,2 -5.653946,0.34616 -9.030068,-0.565748 -14,-3 0.33,-0.66 0.66,-1.32 1,-2 0.99,0.66 1.98,1.32 3,2 5.06853,0.581635 7.0070464,0.625193 11.375,-2.125 5.40396219,-5.918625 4.95460348,-12.569319 5.0390625,-20.179688 0.0193661,-1.079116 0.0387323,-2.158233 0.0586853,-3.27005 C -0.4676606,30.991921 -0.42115239,27.558546 -0.375,24.125 c 0.0381985,-2.333348 0.0772513,-4.666681 0.1171875,-7 C -0.16037421,11.41674 -0.08064222,5.7086205 0,0 Z"
         fill="#c05a5e"
         transform="translate(507,313)"
         id="path19885"
         style="fill:#ffffff" /><path
         d="M 0,0 C 0,1.32 0,2.64 0,4 -0.84884766,4.1643555 -0.84884766,4.1643555 -1.7148437,4.3320312 -2.4483203,4.4905859 -3.1817969,4.6491406 -3.9375,4.8125 -4.6683984,4.9633203 -5.3992969,5.1141406 -6.1523437,5.2695312 -7.0669336,5.6311133 -7.0669336,5.6311133 -8,6 c -0.9777119,2.9331358 -1.1341901,4.88179 -1.125,7.9375 -0.00258,0.854648 -0.00516,1.709297 -0.00781,2.589844 C -9.063238,19.285814 -9.063238,19.285814 -8,23 c 2.97,-0.33 5.94,-0.66 9,-1 -0.99,2.475 -0.99,2.475 -2,5 1.32,0.66 2.64,1.32 4,2 -4.68814,3.125427 -9.5136844,2.566798 -15,2 -4.866556,-2.085667 -7.17372,-4.994098 -9.320312,-9.695313 C -22.521002,17.233383 -22.309653,13.197524 -22,9 c 0.66,0 1.32,0 2,0 0,-0.66 0,-1.32 0,-2 0.66,0 1.32,0 2,0 0,-0.99 0,-1.98 0,-3 1.32,-0.33 2.64,-0.66 4,-1 0,0.99 0,1.98 0,3 0.66,0 1.32,0 2,0 -0.33,-1.32 -0.66,-2.64 -1,-4 4.8807745,-2.44038726 7.5266707,-3.4684542 13,-2 z m -15,6 c 1,3 1,3 1,3 z M 3,19 c 0,0.99 0,1.98 0,3 C 2.34,21.67 1.68,21.34 1,21 1.66,20.34 2.32,19.68 3,19 Z"
         fill="#d5373d"
         transform="translate(264,205)"
         id="path19887"
         style="fill:#ffffff" /><path
         d="m 0,0 c 8.91,0 17.82,0 27,0 0.33,1.32 0.66,2.64 1,4 C 26.02,3.34 24.04,2.68 22,2 15.4,1.67 8.8,1.34 2,1 c 0,26.4 0,52.8 0,80 6.6,0 13.2,0 20,0 0,-14.19 0,-28.38 0,-43 2.475,-0.495 2.475,-0.495 5,-1 4.061538,6.4 4.061538,6.4 3.75,9.4375 C 30.5025,46.953125 30.255,47.46875 30,48 c 0,-0.66 0,-1.32 0,-2 -0.66,0 -1.32,0 -2,0 C 27.34,45.01 26.68,44.02 26,43 25.67,56.2 25.34,69.4 25,83 16.75,83 8.5,83 0,83 0,55.61 0,28.22 0,0 Z"
         fill="#c25055"
         transform="translate(159,204)"
         id="path19889"
         style="fill:#ffffff" /><path
         d="m 0,0 c 15.18,0 30.36,0 46,0 0,64.35 0,128.7 0,195 -19.14,0 -38.28,0 -58,0 0,-0.33 0,-0.66 0,-1 18.81,0 37.62,0 57,0 C 45,130.31 45,66.62 45,1 24.21,1.495 24.21,1.495 3,2 2.01,5.63 1.02,9.26 0,13 c -0.66,0 -1.32,0 -2,0 -0.33,2.64 -0.66,5.28 -1,8 -0.99,0.33 -1.98,0.66 -3,1 0.7113355,-3.964214 1.7897985,-7.72278 3,-11.5625 C -1.9076661,6.9637175 -0.88360115,3.5344046 0,0 Z"
         fill="#b8575d"
         transform="translate(300,204)"
         id="path19891"
         style="fill:#ffffff" /><path
         d="m 0,0 c 1.9687982,1.8164269 3.4695055,3.24625 4.7929687,5.5820312 0,1.9800001 0,3.9600001 0,5.9999998 -9.9,0 -19.7999997,0 -29.9999997,0 3,-8.9999997 3,-8.9999997 5.9375,-11.49999975 C -13.124234,-2.9279101 -6.0290575,-3.8735361 0,0 Z"
         fill="#fcf4f3"
         transform="translate(730.20703,334.41797)"
         id="path19893"
         style="fill:#ffffff" /><path
         d="m 0,0 c 8.25,0 16.5,0 25,0 0,27.39 0,54.78 0,83 -8.58,0 -17.16,0 -26,0 -0.99,-1.65 -1.98,-3.3 -3,-5 0.495,-0.99 0.495,-0.99 1,-2 3,2 3,2 4,5 7.26,0.33 14.52,0.66 22,1 C 23,55.27 23,28.54 23,1 15.74,1 8.48,1 1,1 1,15.19 1,29.38 1,44 0.34,43.67 -0.32,43.34 -1,43 -0.67,28.81 -0.34,14.62 0,0 Z"
         fill="#ca676b"
         transform="translate(209,204)"
         id="path19895"
         style="fill:#ffffff" /><path
         d="m 0,0 c 10.23,0 20.46,0 31,0 1,11 1,11 1,14 C 31.01,13.67 30.02,13.34 29,13 29,9.37 29,5.74 29,2 19.76,2 10.52,2 1,2 1,29.06 1,56.12 1,84 10.9,84 20.8,84 31,84 30.9768,80.965547 30.95359,77.931094 30.92969,74.804687 30.91408,71.855799 30.90194,68.906914 30.89014,65.958008 30.8801,63.91339 30.86647,61.868787 30.84912,59.824219 30.82478,56.880172 30.81349,53.936316 30.80469,50.992187 30.79437,50.082583 30.78404,49.172978 30.77341,48.235809 30.772568,43.455128 30.975283,39.435898 33,35 c 0.66,-0.33 1.32,-0.66 2,-1 -0.32146,1.27738 -0.64292,2.554761 -0.974121,3.87085 -1.127417,5.092012 -1.371067,9.994725 -1.439942,15.195556 -0.01937,0.9195 -0.03873,1.838999 -0.05869,2.786362 -0.05922,2.903153 -0.105948,5.806347 -0.152252,8.709732 -0.03823,1.982438 -0.07729,3.96486 -0.117188,5.947266 C 32.160849,75.339757 32.080826,80.169605 32,85 21.44,85 10.88,85 0,85 0,56.95 0,28.9 0,0 Z"
         fill="#be4e53"
         transform="translate(548,313)"
         id="path19897"
         style="fill:#ffffff" /><path
         d="M 0,0 C 11.22,0 22.44,0 34,0 30.66283,12.23629 30.66283,12.23629 28.0625,18.375 25.255122,25.137432 23.019132,31.956792 21,39 c -0.33,0 -0.66,0 -1,0 0,-4.62 0,-9.24 0,-14 1.32,0 2.64,0 4,0 C 23.95875,24.236875 23.9175,23.47375 23.875,22.6875 24,20 24,20 26,17 26.684734,14.671905 27.348532,12.337622 28,10 28.99,7.36 29.98,4.72 31,2 21.1,2 11.2,2 1,2 0.67,4.97 0.34,7.94 0,11 c -0.82105859,4.971137 -2.0690469,9.318593 -4.2070312,13.898437 -1.5108062,4.004009 -2.2593597,8.22786 -3.1445313,12.40625 C -8,40 -8,40 -9,41 c -0.3676073,2.32818 -0.7024158,4.661839 -1,7 -2.475,0.495 -2.475,0.495 -5,1 -1.746853,-3.827455 -2.348863,-7.124427 -2.625,-11.3125 -0.07477,-1.068633 -0.149531,-2.137266 -0.226562,-3.238281 C -17.900547,33.640977 -17.949531,32.832734 -18,32 c 3.268457,4.902686 4.279441,9.131737 4,15 0.66,0 1.32,0 2,0 0.185625,-1.825313 0.185625,-1.825313 0.375,-3.6875 C -11.200624,39.893584 -10.322125,37.188655 -9,34 -8.6884787,32.664633 -8.3994335,31.323948 -8.125,29.980469 -7.0054808,24.812776 -5.4999524,19.798508 -3.9375,14.75 -3.4027701,13.016295 -2.8701489,11.281938 -2.3398438,9.546875 -1.9897424,8.4152393 -1.9897424,8.4152393 -1.6325684,7.2607422 -0.96413524,4.8718226 -0.48650004,2.4325002 0,0 Z"
         fill="#c06669"
         transform="translate(1008,313)"
         id="path19899"
         style="fill:#ffffff" /><path
         d="M 0,0 C 3.7573664,1.4586524 3.7573664,1.4586524 4.828125,3.8476563 5.8718273,9.3270935 6.1771429,14.419999 6,20 c -0.99,0.33 -1.98,0.66 -3,1 0,0.99 0,1.98 0,3 -5.61,0 -11.22,0 -17,0 0,7.26 0,14.52 0,22 4.2925814,-0.08754 8.5832347,-0.194521 12.875,-0.3125 C 0.07898438,45.66494 1.2829687,45.64238 2.5234375,45.61914 8.9875363,45.42592 14.700573,44.877592 20.820801,42.729736 23.191361,41.93592 25.542772,41.447676 28,41 c 0.33,-0.99 0.66,-1.98 1,-3 0.99,0.33 1.98,0.66 3,1 -7.502171,6.776154 -15.903267,9.141395 -25.8320313,9.097656 -1.2922851,-0.0032 -2.5845703,-0.0064 -3.9160156,-0.0098 -1.35481836,-0.0084 -2.70963607,-0.01682 -4.0644531,-0.02539 -1.3743473,-0.005 -2.7486964,-0.0096 -4.1230469,-0.01367 C -9.2903834,48.037057 -12.645197,48.019122 -16,48 c 0,-8.58 0,-17.16 0,-26 8.375,-0.375 8.375,-0.375 11.0092773,-0.478027 C -0.52456182,21.452089 -0.52456182,21.452089 3,19 3.4952568,13.354072 2.6443793,9.1660821 0.65625,3.8828125 0,2 0,2 0,0 Z"
         fill="#c33c43"
         transform="translate(971,377)"
         id="path19901"
         style="fill:#ffffff" /><path
         d="m 0,0 c 0.66,0 1.32,0 2,0 0.66,4.29 1.32,8.58 2,13 4.455,-0.495 4.455,-0.495 9,-1 -0.66,1.65 -1.32,3.3 -2,5 1.32,0.66 2.64,1.32 4,2 -4.661865,3.10791 -9.5395693,2.618705 -15,2 -2.5223282,-1.068389 -3.9294359,-2.159499 -6,-4 0.33,-1.32 0.66,-2.64 1,-4 0.66,0.33 1.32,0.66 2,1 0,-0.66 0,-1.32 0,-2 -0.66,-0.33 -1.32,-0.66 -2,-1 0.2771484,-0.542695 0.5542969,-1.0853906 0.8398438,-1.6445312 C -3.7979297,8.6400391 -3.4357031,7.9246094 -3.0625,7.1875 -2.5230273,6.125957 -2.5230273,6.125957 -1.9726562,5.0429687 -0.89269484,2.8818972 -0.89269484,2.8818972 0,0 Z m 15,9 c 0,0.99 0,1.98 0,3 -0.66,-0.33 -1.32,-0.66 -2,-1 0.66,-0.66 1.32,-1.32 2,-2 z"
         fill="#d23c42"
         transform="translate(252,215)"
         id="path19903"
         style="fill:#ffffff" /><path
         d="m 0,0 c 9.9,0 19.8,0 30,0 0,3.3 0,6.6 0,10 C 32.236003,9.1217875 32.236003,9.1217875 33.3125,6.5625 35.272864,3.5856505 36.646624,2.9969496 40,2 c 0,0.99 0,1.98 0,3 -1.65,0.66 -3.3,1.32 -5,2 0.495,1.485 0.495,1.485 1,3 -0.61875,0.28875 -1.2375,0.5775 -1.875,0.875 C 31.866742,11.9372 31.866742,11.9372 30,14 29,11 29,11 29,1 19.76,1 10.52,1 1,1 c 0,26.73 0,53.46 0,81 8.91,0 17.82,0 27,0 0,0.33 0,0.66 0,1 C 18.76,83 9.52,83 0,83 0,55.61 0,28.22 0,0 Z"
         fill="#c33c44"
         transform="translate(772,314)"
         id="path19905"
         style="fill:#ffffff" /><path
         d="m 0,0 c 0.33,0 0.66,0 1,0 0,20.46 0,40.92 0,62 -10.89,0 -21.78,0 -33,0 -0.04898,-3.840117 -0.09797,-7.680234 -0.148437,-11.636719 -0.05401,-3.72001 -0.11132,-7.439956 -0.168946,-11.159912 -0.03828,-2.584912 -0.07313,-5.169877 -0.104492,-7.754883 -0.04568,-3.716094 -0.103667,-7.431824 -0.164062,-11.147705 -0.01733,-1.733066 -0.01733,-1.733066 -0.035,-3.501144 -0.01987,-1.080743 -0.03974,-2.161486 -0.06021,-3.274979 -0.01332,-0.948201 -0.02665,-1.896402 -0.04038,-2.873337 C -33.02141,7.7961596 -33.816045,5.6029495 -35,3 c 1.32,0.33 2.64,0.66 4,1 0,18.81 0,37.62 0,57 10.23,0 20.46,0 31,0 C 0,40.87 0,20.74 0,0 Z"
         fill="#cd7378"
         transform="translate(858,336)"
         id="path19907"
         style="fill:#ffffff" /><path
         d="m 0,0 c 4.5709907,6.856486 3,13.607212 3,22 -20.13,0 -40.26,0 -61,0 0,-0.66 0,-1.32 0,-2 19.47,0 38.94,0 59,0 C 0.67,13.4 0.34,6.8 0,0 Z"
         fill="#c75a5d"
         transform="translate(763,341)"
         id="path19909"
         style="fill:#ffffff" /><path
         d="M 0,0 C 1.1150391,0.00644531 2.2300781,0.01289063 3.3789063,0.01953125 5.9130946,0.15870124 8.0244199,0.45000609 10.4375,1.1875 c 0.33,2.31 0.66,4.62 1,7 -0.66,0 -1.32,0 -2,0 0.5573276,9.344131 1.169951,18.675196 2,28 0.66,0 1.32,0 2,0 1.848274,3.612536 3.550495,7.208988 5,11 C 10.712595,39.880158 7.9392866,32.15169 7.1796875,21.609375 7.0765848,14.804595 7.8137639,8.7707412 9.4375,2.1875 6.2901428,2.4640442 3.1450815,2.7612556 0,3.0625 -0.89783203,3.1411328 -1.7956641,3.2197656 -2.7207031,3.3007813 -3.574707,3.3845703 -4.4287109,3.4683594 -5.3085937,3.5546875 -6.099353,3.6280029 -6.8901123,3.7013184 -7.704834,3.7768555 -8.3178638,3.9123682 -8.9308936,4.0478809 -9.5625,4.1875 c -0.33,0.66 -0.66,1.32 -1,2 -0.66,0 -1.32,0 -2,0 -0.66,1.65 -1.32,3.3 -2,5 -0.66,-1.32 -1.32,-2.64 -2,-4 0.99,0 1.98,0 3,0 0,-0.66 0,-1.32 0,-2 0.66,0 1.32,0 2,0 0,-0.99 0,-1.98 0,-3 C -7.5693742,0.29916201 -4.3991379,-0.05607244 0,0 Z"
         fill="#cd6368"
         transform="translate(666.5625,337.8125)"
         id="path19911"
         style="fill:#ffffff" /><path
         d="m 0,0 c 2.5625,0.3125 2.5625,0.3125 4.375,1.375 1.8689767,3.0493831 1.5494205,5.4389348 1.1875,8.9375 -1.1875,2.9375 -1.1875,2.9375 -3,5 -2.5625,0.5 -2.5625,0.5 -5,0 C -4.6047178,12.061673 -4.7097102,11.020178 -4.6875,7.25 -4.6926562,6.3721484 -4.6978125,5.4942969 -4.703125,4.5898437 -4.3155963,1.2673553 -3.2818636,0.42075174 0,0 Z"
         fill="#fcf0ef"
         transform="translate(258.4375,211.6875)"
         id="path19913"
         style="fill:#ffffff" /><path
         d="m 0,0 c 2.0625,0.9375 2.0625,0.9375 3.875,3.75 1.168185,3.1356544 1.4570023,4.1868581 0.1875,7.1875 0,-0.66 0,-1.32 0,-2 -0.66,0 -1.32,0 -2,0 -0.66,-0.99 -1.32,-1.98 -2,-3 -0.33,13.2 -0.66,26.4 -1,40 -0.99,-0.66 -1.98,-1.32 -3,-2 -0.3607635,-1.872955 -0.3607635,-1.872955 -0.3405762,-4.174316 2.266e-4,-0.860742 4.532e-4,-1.721483 6.867e-4,-2.608307 0.023226,-1.395375 0.023226,-1.395375 0.046921,-2.81894 0.00424,-0.9516 0.00849,-1.9032 0.012863,-2.883636 0.016827,-3.046885 0.054486,-6.093115 0.092606,-9.139801 0.015042,-2.06249 0.028731,-4.124991 0.041016,-6.1875 0.033122,-5.062753 0.084932,-10.1250155 0.1464844,-15.1875 2,-1 2,-1 3.9374991,-0.9375 z"
         fill="#d9686c"
         transform="translate(184.9375,241.0625)"
         id="path19915"
         style="fill:#ffffff" /><path
         d="m 0,0 c 5.28,0 10.56,0 16,0 0,0.33 0,0.66 0,1 -4.95,0 -9.9,0 -15,0 0,7.92 0,15.84 0,24 4.3134246,-0.08741 8.6248965,-0.194377 12.9375,-0.3125 1.212363,-0.02256 2.424727,-0.04512 3.673828,-0.06836 7.801057,-0.232552 14.504371,-1.006635 21.443115,-4.718018 C 41,19 41,19 44,19 c 0.495,-1.485 0.495,-1.485 1,-3 0.99,0.33 1.98,0.66 3,1 -7.502171,6.776154 -15.903267,9.141395 -25.832031,9.097656 -1.292285,-0.0032 -2.584571,-0.0064 -3.916016,-0.0098 -1.354818,-0.0084 -2.709636,-0.01682 -4.064453,-0.02539 -1.374347,-0.005 -2.748696,-0.0096 -4.123047,-0.01367 C 6.7096166,26.037057 3.3548027,26.019122 0,26 0,17.42 0,8.84 0,0 Z"
         fill="#bd6266"
         transform="translate(955,399)"
         id="path19917"
         style="fill:#ffffff" /><path
         d="M 0,0 C 10.56,0 21.12,0 32,0 30.656816,6.715922 29.697882,11.320217 27.125,17.3125 24.280346,24.095839 22.028625,30.923678 20,38 c -0.33,0 -0.66,0 -1,0 0,-4.62 0,-9.24 0,-14 1.32,0 2.64,0 4,0 C 22.95875,23.236875 22.9175,22.47375 22.875,21.6875 23,19 23,19 25,16 25.684734,13.671905 26.348532,11.337622 27,9 27.99,6.36 28.98,3.72 30,1 20.1,1 10.2,1 0,1 0,0.67 0,0.34 0,0 Z"
         fill="#c0494f"
         transform="translate(1009,314)"
         id="path19919"
         style="fill:#ffffff" /><path
         d="m 0,0 c -5.9701688,3.9801126 -10.737333,4.3384344 -17.75,4.3125 -0.855937,0.016113 -1.711875,0.032227 -2.59375,0.048828 C -26.40386,4.3659191 -31.382067,3.2538247 -37,1 c 0,-0.33 0,-0.66 0,-1 0.796963,0.00523682 1.593926,0.01047363 2.415039,0.01586914 C -30.973315,0.036659 -27.361682,0.04966661 -23.75,0.0625 c 1.254258,0.0083789 2.508516,0.01675781 3.800781,0.02539062 1.205274,0.0032227 2.410547,0.0064453 3.652344,0.0097656 1.110205,0.0052368 2.22041,0.01047363 3.364258,0.01586914 C -1.5913758,-0.32550868 -1.5913758,-0.32550868 0,0 Z"
         fill="#c9565b"
         transform="translate(928,396)"
         id="path19921"
         style="fill:#ffffff" /><path
         d="M 0,0 C 1.3129102,0.45246094 1.3129102,0.45246094 2.6523438,0.9140625 7.9276034,2.8196629 11.396761,4.6761135 15,9 14.34,9.33 13.68,9.66 13,10 12.566875,9.525625 12.13375,9.05125 11.6875,8.5625 9.9769039,6.7631304 9.9769039,6.7631304 7,6 7,5.34 7,4.68 7,4 6.175,3.896875 5.35,3.79375 4.5,3.6875 1,3 1,3 -2.4960938,1.4726562 -7.8008241,-0.55490517 -12.951227,-0.36592043 -18.5625,-0.25 c -1.002246,0.005156 -2.004492,0.0103125 -3.037109,0.015625 C -26.826755,-0.17931619 -31.849081,0.10418797 -37,1 -26.774851,-5.8167657 -10.935708,-4.3298742 0,0 Z"
         fill="#c3585c"
         transform="translate(738,314)"
         id="path19923"
         style="fill:#ffffff" /><path
         d="m 0,0 c 14.85,0 29.7,0 45,0 0,0.33 0,0.66 0,1 C 24.21,1.495 24.21,1.495 3,2 2.01,5.63 1.02,9.26 0,13 c -0.66,0 -1.32,0 -2,0 -0.33,2.64 -0.66,5.28 -1,8 -0.99,0.33 -1.98,0.66 -3,1 0.7113355,-3.964214 1.7897985,-7.72278 3,-11.5625 C -1.9076661,6.9637175 -0.88360115,3.5344046 0,0 Z"
         fill="#c0464c"
         transform="translate(300,204)"
         id="path19925"
         style="fill:#ffffff" /><path
         d="M 0,0 C 0.69287109,0.00451172 1.3857422,0.00902344 2.0996094,0.01367188 3.7956107,0.02536844 5.491567,0.04330076 7.1875,0.0625 c 0.33,0.99 0.66,1.98 1,3 2.000165,1.208821 2.000165,1.208821 4,2 -0.66,1.32 -1.32,2.64 -2,4 C 9.56875,8.258125 8.95,7.45375 8.3125,6.625 5.1725278,3.5028181 2.0691971,3.1535315 -2.2421875,2.921875 -7.6926273,3.2200754 -12.081992,5.0011522 -15.8125,9.0625 -16,6.1875 -16,6.1875 -15.8125,3.0625 -10.781989,-0.29117404 -5.8984437,-0.07337777 0,0 Z"
         fill="#c74d54"
         transform="translate(722.8125,329.9375)"
         id="path19927"
         style="fill:#ffffff" /><path
         d="m 0,0 c 0.33,0 0.66,0 1,0 0.015461,0.85777542 0.015461,0.85777542 0.031235,1.7328796 0.1079484,5.9369783 0.2225557,11.8738014 0.3410797,17.8105774 0.043386,2.217415 0.085059,4.434864 0.125,6.652344 0.057613,3.182234 0.1213332,6.364295 0.1862793,9.546386 0.016712,0.995872 0.033425,1.991743 0.050644,3.017792 0.019945,0.920804 0.03989,1.841607 0.06044,2.790314 0.015544,0.812744 0.031089,1.625488 0.047104,2.46286 C 1.8810241,46.074383 1.8810241,46.074383 3,48 c 12.87,0.495 12.87,0.495 26,1 0,0.33 0,0.66 0,1 C 19.43,50 9.86,50 0,50 0,33.5 0,17 0,0 Z"
         fill="#c93b42"
         transform="translate(827,347)"
         id="path19929"
         style="fill:#ffffff" /><path
         d="M 0,0 C 1.5756191,3.1512382 0.69813146,5.6256979 0,9 -0.50273437,9.5594531 -1.0054687,10.118906 -1.5234375,10.695313 -3.7225848,14.127844 -3.4440932,17.554738 -3.375,21.5 c 0.00653,0.79938 0.013052,1.59876 0.019775,2.422363 C -3.2058255,30.588379 -2.0115635,36.642209 0,43 0.34281457,44.330927 0.67984738,45.663441 1,47 -2.5485886,44.315681 -3.2088015,40.623628 -4.1875,36.5 -4.3589453,35.780945 -4.5303906,35.06189 -4.7070312,34.321045 -7.4586654,22.109303 -5.9743379,11.168244 0,0 Z"
         fill="#c3575b"
         transform="translate(363,332)"
         id="path19931"
         style="fill:#ffffff" /><path
         d="M 0,0 C 0.66386719,0.20496094 1.3277344,0.40992188 2.0117188,0.62109375 2.8947266,0.89050781 3.7777344,1.1599219 4.6875,1.4375 5.5576172,1.7043359 6.4277344,1.9711719 7.3242187,2.2460938 13.110099,3.8762762 18.331816,4.1238646 24.3125,4.0625 25.566436,4.05573 25.566436,4.05573 26.845703,4.048828 28.897166,4.0371055 30.948593,4.019172 33,4 29.179737,7.8202627 24.336053,7.2119682 19.1875,7.25 18.501074,7.270625 17.814648,7.29125 17.107422,7.3125 10.957722,7.3590446 6.2530635,6.02198 1.5625,1.8125 0.7890625,0.9153125 0.7890625,0.9153125 0,0 Z"
         fill="#c85e62"
         transform="translate(461,393)"
         id="path19933"
         style="fill:#ffffff" /><path
         d="M 0,0 C 0.33,0 0.66,0 1,0 1.288967,5.3940514 0.81750615,9.0729806 -1.265625,14.035156 -2.3719479,16.995158 -2.673511,19.865705 -3,23 c -1.65,0.33 -3.3,0.66 -5,1 -1.7468531,-3.827455 -2.348863,-7.124427 -2.625,-11.3125 -0.112148,-1.602949 -0.112148,-1.602949 -0.226563,-3.2382812 C -10.900547,8.6409766 -10.949531,7.8327344 -11,7 c 3.2684571,4.902686 4.2794411,9.131737 4,15 0.66,0 1.32,0 2,0 0.185625,-1.825313 0.185625,-1.825313 0.375,-3.6875 C -4.200624,14.893584 -3.3221252,12.188655 -2,9 -1.2564376,6.0156338 -0.61700837,3.0128387 0,0 Z"
         fill="#ca575c"
         transform="translate(1001,338)"
         id="path19935"
         style="fill:#ffffff" /><path
         d="M 0,0 C 0.33,0 0.66,0 1,0 1.108836,2.3762518 1.187667,4.7474398 1.25,7.125 1.3002734,8.1227344 1.3002734,8.1227344 1.3515625,9.140625 1.4515908,14.242067 0.32992731,17.155012 -3,21 c -0.99,0 -1.98,0 -3,0 0,0.66 0,1.32 0,2 -0.66,0 -1.32,0 -2,0 0,0.66 0,1.32 0,2 -5.653946,0.34616 -9.030068,-0.565748 -14,-3 0.33,-0.66 0.66,-1.32 1,-2 1.485,0.99 1.485,0.99 3,2 5.06853,0.581635 7.007046,0.625193 11.375,-2.125 C -3.921522,16.914048 -2.8993592,14.867245 -2,11 c 0.66,0 1.32,0 2,0 C 0,7.37 0,3.74 0,0 Z"
         fill="#cd454c"
         transform="translate(508,351)"
         id="path19937"
         style="fill:#ffffff" /><path
         d="M 0,0 C -0.48726563,1.6841602 -0.48726563,1.6841602 -0.984375,3.4023438 -2.1690877,8.1568932 -2.296734,12.682694 -2.25,17.5625 -2.25773,18.373965 -2.265469,19.18543 -2.273437,20.021484 -2.2571769,25.058192 -1.6146158,29.226632 0,34 -0.66,34 -1.32,34 -2,34 -6.0899036,27.865145 -5.2124392,19.838139 -5.25,12.6875 -5.270625,11.686543 -5.29125,10.685586 -5.3125,9.6542969 -5.3176562,8.6997461 -5.3228125,7.7451953 -5.328125,6.7617187 -5.3374707,5.8950659 -5.3468164,5.0284131 -5.3564453,4.135498 -5.1800049,3.0784265 -5.1800049,3.0784265 -5,2 -2,0 -2,0 0,0 Z"
         fill="#c43c44"
         transform="translate(393,338)"
         id="path19939"
         style="fill:#ffffff" /><path
         d="M 0,0 C -4.3547018,4.3547018 -9.8778999,4.2567814 -15.699219,4.2734375 -16.623477,4.2657031 -17.547734,4.2579687 -18.5,4.25 -19.424258,4.25773 -20.348516,4.265469 -21.300781,4.273437 -26.265286,4.2592329 -30.348181,3.9537642 -35,2 -31.615478,0.96110581 -28.590667,0.93022167 -25.0625,1 -19.287867,1.0520824 -13.62454,0.73620856 -7.875,0.21875 -5.2353245,0.01790513 -2.6457761,-0.03890847 0,0 Z"
         fill="#ca6468"
         transform="translate(421,396)"
         id="path19941"
         style="fill:#ffffff" /><path
         d="m 0,0 c 11.22,0 22.44,0 34,0 1.268437,4.021875 1.268437,4.021875 2.5625,8.125 0.270139,0.8328955 0.540278,1.665791 0.818604,2.523926 C 38.746411,15.135014 39.243498,18.338743 38,23 37.67,23 37.34,23 37,23 36.94393,22.095078 36.94393,22.095078 36.886719,21.171875 36.633859,16.242206 36.633859,16.242206 34.4375,12 33,10 33,10 33,1 22.11,1 11.22,1 0,1 0,0.67 0,0.34 0,0 Z"
         fill="#c3686b"
         transform="translate(948,313)"
         id="path19943"
         style="fill:#ffffff" /><path
         d="m 0,0 c 12.0663,-0.42010329 22.306093,1.1155223 33,7 0.66,0.66 1.32,1.32 2,2 -0.99,0.33 -1.98,0.66 -3,1 C 31.67,9.01 31.34,8.02 31,7 29.868203,6.8788281 28.736406,6.7576562 27.570312,6.6328125 26.08849,6.4639972 24.606722,6.2947014 23.125,6.125 22.378633,6.0463672 21.632266,5.9677344 20.863281,5.8867187 15.226563,5.2265625 15.226563,5.2265625 13,3 10.807089,2.5433785 8.5941411,2.179588 6.375,1.875 5.1864844,1.7074219 3.9979688,1.5398437 2.7734375,1.3671875 1.8582031,1.2460156 0.94296875,1.1248437 0,1 0,0.67 0,0.34 0,0 Z"
         fill="#c74f54"
         transform="translate(397,311)"
         id="path19945"
         style="fill:#ffffff" /><path
         d="M 0,0 C 0,0.66 0,1.32 0,2 0.99,2.33 1.98,2.66 3,3 2.01,3.33 1.02,3.66 0,4 -0.495,2.515 -0.495,2.515 -1,1 -3.0738585,0.23078715 -3.0738585,0.23078715 -5.5,-0.125 -9.9227799,-0.92277992 -9.9227799,-0.92277992 -11,-2 -16.898511,-2.3724464 -22.836779,-2.5424368 -28.5625,-0.9375 -31.925344,-0.02036062 -32.858781,-0.01708036 -36,-1 -23.906674,-7.6225356 -12.063948,-5.4164665 0,0 Z"
         fill="#c4545a"
         transform="translate(848,316)"
         id="path19947"
         style="fill:#ffffff" /><path
         d="M 0,0 C 1.3957205,-0.02736707 2.7916022,-0.04655989 4.1875,-0.0625 4.9648047,-0.07410156 5.7421094,-0.08570313 6.5429687,-0.09765625 9,0 9,0 11.294922,0.5 c 2.879209,0.5321859 5.516992,0.6133053 8.443359,0.5976562 1.600049,-0.00483 1.600049,-0.00483 3.232422,-0.00977 1.102793,-0.00838 2.205586,-0.016758 3.341797,-0.025391 1.683193,-0.00677 1.683193,-0.00677 3.400391,-0.013672 C 32.475315,1.0370731 35.23763,1.0206408 38,1 33.514627,5.4853734 25.015399,4.2351017 18.98877,4.2597656 12.356502,4.1894541 6.3125166,3.0794173 0,1 0,0.67 0,0.34 0,0 Z"
         fill="#c86367"
         transform="translate(700,396)"
         id="path19949"
         style="fill:#ffffff" /><path
         d="M 0,0 C 10.89,0 21.78,0 33,0 32.67,0.99 32.34,1.98 32,3 32,2.34 32,1.68 32,1 22.43,1.33 12.86,1.66 3,2 3.99,5.3 4.98,8.6 6,12 6,13.65 6,15.3 6,17 3.9777481,13.966622 3.0065248,11.386555 1.875,7.9375 1.5217969,6.8740234 1.1685938,5.8105469 0.8046875,4.7148437 0,2 0,2 0,0 Z"
         fill="#bb3a42"
         transform="translate(948,314)"
         id="path19951"
         style="fill:#ffffff" /><path
         d="m 0,0 c 2.6950482,2.6950482 5,6.0836048 5,10 7.880222,2.573134 14.063786,2.227709 22,0 0,0.66 0,1.32 0,2 0.66,0.33 1.32,0.66 2,1 -3.097422,1.548711 -6.353926,1.184457 -9.75,1.1875 -1.055742,0.01837 -1.055742,0.01837 -2.132813,0.03711 C 12.730826,14.236839 9.0566718,13.872789 5,12 4.67,11.01 4.34,10.02 4,9 3.01,8.67 2.02,8.34 1,8 0.67,5.36 0.34,2.72 0,0 Z"
         fill="#be4e52"
         transform="translate(705,366)"
         id="path19953"
         style="fill:#ffffff" /><path
         d="m 0,0 c 0.66,0 1.32,0 2,0 0.66,3.3 1.32,6.6 2,10 0.66,0 1.32,0 2,0 0.66,2.97 1.32,5.94 2,9 0.66,0 1.32,0 2,0 0.33,3.63 0.66,7.26 1,11 C 8.3422124,26.456283 7.3264806,24.511532 6.0625,20.4375 4.4376122,15.318162 2.6499412,10.294654 0.734375,5.2773437 0,3 0,3 0,0 Z"
         fill="#c34a4c"
         transform="translate(957,338)"
         id="path19955"
         style="fill:#ffffff" /><path
         d="M 0,0 C 0.83402344,-0.00257813 1.6680469,-0.00515625 2.5273438,-0.0078125 5.1246612,0.12825652 7.5283004,0.55378507 10.0625,1.125 10.123086,2.3289844 10.183672,3.5329688 10.246094,4.7734375 10.330497,6.3489708 10.415145,7.924491 10.5,9.5 c 0.03932,0.794063 0.07863,1.588125 0.119141,2.40625 0.132293,4.244762 0.132293,4.244762 1.443359,8.21875 -0.99,0 -1.98,0 -3,0 -0.33,-5.94 -0.66,-11.88 -1,-18 -10.0341667,0.7017038 -10.0341667,0.7017038 -20,2 C -8.485001,0.15462615 -5.0855768,-0.01567204 0,0 Z"
         fill="#c1595d"
         transform="translate(670.9375,310.875)"
         id="path19957"
         style="fill:#ffffff" /><path
         d="M 0,0 C 10.23,0 20.46,0 31,0 30.67,2.31 30.34,4.62 30,7 29.67,7 29.34,7 29,7 29,5.02 29,3.04 29,1 19.76,1 10.52,1 1,1 1.33,3.31 1.66,5.62 2,8 0.35,8.33 -1.3,8.66 -3,9 -2.01,6.03 -1.02,3.06 0,0 Z"
         fill="#c04c51"
         transform="translate(922,364)"
         id="path19959"
         style="fill:#ffffff" /><path
         d="M 0,0 C 9.9,0 19.8,0 30,0 29.67,2.64 29.34,5.28 29,8 28.67,8 28.34,8 28,8 28,5.69 28,3.38 28,1 19.09,1 10.18,1 1,1 1,2.65 1,4.3 1,6 -1.5,7.8125 -1.5,7.8125 -4,9 -2.7931075,5.896562 -1.4940305,2.9880611 0,0 Z"
         fill="#bf494e"
         transform="translate(416,364)"
         id="path19961"
         style="fill:#ffffff" /><path
         d="m 0,0 c 9.57,0 19.14,0 29,0 0.33,3.3 0.66,6.6 1,10 0.99,-0.66 1.98,-1.32 3,-2 0.495,1.485 0.495,1.485 1,3 -0.66,0.99 -1.32,1.98 -2,3 -0.99,0 -1.98,0 -3,0 C 28,12 28,12 28,1 18.76,1 9.52,1 0,1 0,0.67 0,0.34 0,0 Z"
         fill="#bb3c43"
         transform="translate(618,314)"
         id="path19963"
         style="fill:#ffffff" /><path
         d="m 0,0 c 0.66,0.33 1.32,0.66 2,1 -3.1999051,2.7427758 -6.0049938,4.6302836 -10,6 0,0.99 0,1.98 0,3 -2.5,2.6875 -2.5,2.6875 -5,5 -0.99,-0.66 -1.98,-1.32 -3,-2 C -11.307861,7.2805882 -7.1973236,2.3991079 0,0 Z"
         fill="#cc454c"
         transform="translate(699,315)"
         id="path19965"
         style="fill:#ffffff" /><path
         d="M 0,0 C 0,0.66 0,1.32 0,2 -1.1459766,1.9909766 -2.2919531,1.9819531 -3.4726563,1.9726562 -11.932196,1.8433119 -11.932196,1.8433119 -19.6875,4.625 -21.345066,6.3378181 -22.739607,7.9802078 -24,10 -24.33,9.34 -24.66,8.68 -25,8 -18.64822,-1.400635 -10.383576,-0.38884403 0,0 Z"
         fill="#f1c7c8"
         transform="translate(608,339)"
         id="path19967"
         style="fill:#ffffff" /><path
         d="M 0,0 C 3.7573664,1.4586524 3.7573664,1.4586524 4.828125,3.8476563 5.8718273,9.3270935 6.1771429,14.419999 6,20 4.35,20.66 2.7,21.32 1,22 1.66,21.01 2.32,20.02 3,19 3.4874789,13.345245 2.6479382,9.1755394 0.65625,3.8828125 0,2 0,2 0,0 Z"
         fill="#c95257"
         transform="translate(971,377)"
         id="path19969"
         style="fill:#ffffff" /><path
         d="m 0,0 c 5,7.5 5,7.5 5,10 2.0830454,0.05418 4.1664977,0.09288 6.25,0.125 1.160156,0.0232 2.320313,0.04641 3.515625,0.07031 C 17.82786,10.010395 19.442028,9.6082302 22,8 c -0.33,1.32 -0.66,2.64 -1,4 -2.584458,0.108187 -5.164374,0.187372 -7.75,0.25 -0.729609,0.03352 -1.459219,0.06703 -2.210937,0.101563 -3.603841,0.06552 -5.5930237,-0.0078 -8.492188,-2.242188 C -0.05999331,6.5545546 -0.09519143,4.3788057 0,0 Z"
         fill="#cb5c61"
         transform="translate(897,365)"
         id="path19971"
         style="fill:#ffffff" /><path
         d="M 0,0 C 0,0.66 0,1.32 0,2 -0.99,2 -1.98,2 -3,2 -3.2114063,2.6148828 -3.4228125,3.2297656 -3.640625,3.8632813 -6.0511874,7.6522975 -10.10721,8.0043587 -14.246094,9.1835938 -20.136528,10.464656 -25.9749,10.819337 -32,11 c 0,-0.33 0,-0.66 0,-1 1.050586,-0.1701562 2.101172,-0.3403125 3.183594,-0.515625 C -19.833384,7.9606318 -7.9254951,0 0,0 Z"
         fill="#cd777b"
         transform="translate(285,235)"
         id="path19973"
         style="fill:#ffffff" /><path
         d="m 0,0 c 0.33,0 0.66,0 1,0 0,14.19 0,28.38 0,43 -0.99,-0.99 -1.98,-1.98 -3,-3 0,-0.66 0,-1.32 0,-2 0.66,0 1.32,0 2,0 C 0,25.46 0,12.92 0,0 Z"
         fill="#ffe9eb"
         transform="translate(208,204)"
         id="path19975"
         style="fill:#ffffff" /><path
         d="m 0,0 c -2.64,0.66 -5.28,1.32 -8,2 0,0.66 0,1.32 0,2 -0.7824609,0.1817578 -1.5649219,0.3635156 -2.371094,0.5507812 -1.011914,0.2513672 -2.023828,0.5027344 -3.066406,0.7617188 -1.009336,0.2436328 -2.018672,0.4872656 -3.058594,0.7382812 C -17.322383,6.3640234 -18.148672,6.6772656 -19,7 c -0.33,0.99 -0.66,1.98 -1,3 -0.99,-0.66 -1.98,-1.32 -3,-2 2.770799,-3.8098484 6.628681,-4.0684075 11,-5 0,-0.66 0,-1.32 0,-2 7.5,-2.125 7.5,-2.125 12,-1 z"
         fill="#ca5056"
         transform="translate(396,313)"
         id="path19977"
         style="fill:#ffffff" /><path
         d="M 0,0 C 0,4.4001111 -1.446316,7.1408352 -3.8125,10.8125 -6,13 -6,13 -8.75,13.3125 -9.86375,13.157813 -9.86375,13.157813 -11,13 c 0,-0.66 0,-1.32 0,-2 0.99,0 1.98,0 3,0 0.091523,-0.582656 0.1830469,-1.1653125 0.2773438,-1.765625 C -6.8279893,6.4681615 -5.5383523,5.2362604 -3.4375,3.25 -2.7968359,2.6364062 -2.1561719,2.0228125 -1.4960937,1.390625 -1.0023828,0.93171875 -0.50867188,0.4728125 0,0 Z"
         fill="#ce484e"
         transform="translate(293,226)"
         id="path19979"
         style="fill:#ffffff" /><path
         d="m 0,0 c 4.95,0 9.9,0 15,0 0.33,0.99 0.66,1.98 1,3 2.000165,1.208821 2.000165,1.208821 4,2 C 19.34,6.32 18.68,7.64 18,9 16.29116,7.376602 14.625533,5.7068095 13,4 13,3.34 13,2.68 13,2 8.71,1.67 4.42,1.34 0,1 0,0.67 0,0.34 0,0 Z"
         fill="#d1373f"
         transform="translate(715,330)"
         id="path19981"
         style="fill:#ffffff" /><path
         d="m 0,0 c -1.98,0.66 -3.96,1.32 -6,2 0,1.32 0,2.64 0,4 -0.66,0 -1.32,0 -2,0 0,-0.99 0,-1.98 0,-3 -1.32,0.33 -2.64,0.66 -4,1 0,0.99 0,1.98 0,3 -0.66,0 -1.32,0 -2,0 -0.33,0.66 -0.66,1.32 -1,2 0,-1.32 0,-2.64 0,-4 0.66,0 1.32,0 2,0 0.33,-1.32 0.66,-2.64 1,-4 8.0357143,-2.2767857 8.0357143,-2.2767857 12,-1 z"
         fill="#d23941"
         transform="translate(258,205)"
         id="path19983"
         style="fill:#ffffff" /><path
         d="m 0,0 c 1.3108583,3.932575 0.4573495,5.1137347 -1,9 -0.7092974,1.957984 -1.4175667,3.916341 -2.125,5.875 C -3.7492159,16.58362 -4.3739542,18.29205 -5,20 -5.33,20 -5.66,20 -6,20 -6.25,13.375 -6.25,13.375 -4,10 -3.6579583,8.0147111 -3.6579583,8.0147111 -3.5625,5.9375 -3.376875,4.638125 -3.19125,3.33875 -3,2 -2.01,1.34 -1.02,0.68 0,0 Z"
         fill="#c7474c"
         transform="translate(1015,384)"
         id="path19985"
         style="fill:#ffffff" /><path
         d="M 0,0 C 0.66,1.32 1.32,2.64 2,4 1.484375,3.835 0.96875,3.67 0.4375,3.5 -6.4638604,2.0843363 -10.293292,3.2731704 -16,7 -16.33,5.68 -16.66,4.36 -17,3 -11.102615,0.70657253 -6.3339308,-0.34548714 0,0 Z"
         fill="#c54348"
         transform="translate(821,335)"
         id="path19987"
         style="fill:#ffffff" /><path
         d="M 0,0 C 1.2278706,3.6836117 0.6048575,4.4840733 -0.9375,7.9375 -2.4905758,11.427972 -3,13.063106 -3,17 c -1.32,-0.66 -2.64,-1.32 -4,-2 0.33,-2.97 0.66,-5.94 1,-9 0.99,1.485 0.99,1.485 2,3 1.32,-2.97 2.64,-5.94 4,-9 z"
         fill="#de343b"
         transform="translate(252,212)"
         id="path19989"
         style="fill:#ffffff" /><path
         d="M 0,0 C 0.99,0.33 1.98,0.66 3,1 2.525625,1.5775 2.05125,2.155 1.5625,2.75 c -2.8923674,4.1650091 -2.8021893,8.519492 -3.125,13.5 -0.083789,1.263281 -0.1675781,2.526562 -0.2539062,3.828125 C -1.8769922,21.042344 -1.9375781,22.006562 -2,23 c -0.33,0 -0.66,0 -1,0 -0.33,-5.28 -0.66,-10.56 -1,-16 0.66,0 1.32,0 2,0 0,-1.65 0,-3.3 0,-5 0.66,0 1.32,0 2,0 C 0,1.34 0,0.68 0,0 Z"
         fill="#c75b61"
         transform="translate(899,337)"
         id="path19991"
         style="fill:#ffffff" /><path
         d="M 0,0 C 1.742168,0.02707031 1.742168,0.02707031 3.5195313,0.0546875 4.3999609,0.07789063 5.2803906,0.10109375 6.1875,0.125 c 0,0.33 0,0.66 0,1 C 5.2838672,1.2577734 4.3802344,1.3905469 3.4492188,1.5273437 1.6799805,1.7922461 1.6799805,1.7922461 -0.125,2.0625 -1.8826367,2.3235352 -1.8826367,2.3235352 -3.6757813,2.5898438 -6.828914,3.0459303 -6.828914,3.0459303 -9.8125,4.125 c -0.33,0.66 -0.66,1.32 -1,2 -0.66,0 -1.32,0 -2,0 -0.66,1.65 -1.32,3.3 -2,5 -0.66,-1.32 -1.32,-2.64 -2,-4 0.99,0 1.98,0 3,0 0,-0.66 0,-1.32 0,-2 0.66,0 1.32,0 2,0 0,-0.99 0,-1.98 0,-3 C -7.7352627,0.17468308 -4.4955758,-0.09081971 0,0 Z"
         fill="#c44b52"
         transform="translate(666.8125,337.875)"
         id="path19993"
         style="fill:#ffffff" /><path
         d="m 0,0 c 1.9375,0.8125 1.9375,0.8125 4,2 0.33,0.99 0.66,1.98 1,3 7.59,0.33 15.18,0.66 23,1 0,0.33 0,0.66 0,1 C 23.896203,7.1448923 19.79306,7.2339354 15.6875,7.3125 14.520254,7.354394 13.353008,7.396289 12.150391,7.4394531 11.032129,7.4555661 9.9138672,7.4716801 8.7617188,7.4882811 7.2142395,7.5275574 7.2142395,7.5275574 5.635498,7.5676269 3,7 3,7 1.1398926,4.5944824 0,2 0,2 0,0 Z"
         fill="#ba5b5f"
         transform="translate(205,280)"
         id="path19995"
         style="fill:#ffffff" /><path
         d="M 0,0 C 0.66,0 1.32,0 2,0 1.34,1.65 0.68,3.3 0,5 -0.66,5 -1.32,5 -2,5 -2.309375,5.61875 -2.61875,6.2375 -2.9375,6.875 -3.625,8.25 -4.3125,9.625 -5,11 c -0.66,0 -1.32,0 -2,0 -0.12375,0.804375 -0.2475,1.60875 -0.375,2.4375 C -7.58125,14.283125 -7.7875,15.12875 -8,16 -8.66,16.33 -9.32,16.66 -10,17 -8.7814933,9.9935866 -4.892797,5.0660835 0,0 Z"
         fill="#ce696d"
         transform="translate(877,323)"
         id="path19997"
         style="fill:#ffffff" /><path
         d="m 0,0 c 8.58,0 17.16,0 26,0 0.33,1.32 0.66,2.64 1,4 C 26.234297,3.6828906 25.468594,3.3657813 24.679687,3.0390625 19.816239,1.6657322 15.155745,1.5386015 10.125,1.375 9.1504688,1.3363281 8.1759375,1.2976562 7.171875,1.2578125 4.7814328,1.1640697 2.3909876,1.0783617 0,1 0,0.67 0,0.34 0,0 Z"
         fill="#c1454b"
         transform="translate(160,204)"
         id="path19999"
         style="fill:#ffffff" /><path
         d="M 0,0 C 1,3 1,3 -0.5625,6.375 -2.8175563,10.101777 -5.5338577,12.400393 -9,15 -9,13.35 -9,11.7 -9,10 -8.01,9.67 -7.02,9.34 -6,9 -6,8.34 -6,7.68 -6,7 -5.071875,6.6596875 -5.071875,6.6596875 -4.125,6.3125 -1.3858979,4.6207016 -0.94975528,3.0075584 0,0 Z"
         fill="#ca5960"
         transform="translate(443,373)"
         id="path20001"
         style="fill:#ffffff" /><path
         d="M 0,0 C 1,2 1,2 0.47094727,3.8793945 0.17244873,4.6230225 -0.1260498,5.3666504 -0.43359375,6.1328125 -0.75263672,6.9384766 -1.0716797,7.7441406 -1.4003906,8.5742188 -1.9137598,9.8368555 -1.9137598,9.8368555 -2.4375,11.125 -2.7758789,11.974492 -3.1142578,12.823984 -3.4628906,13.699219 -4.3017696,15.802324 -5.1477113,17.902302 -6,20 -7.1344152,16.178388 -6.6176899,14.661088 -5,11 -4.3174401,8.6712663 -3.6494923,6.3381721 -3,4 -2.67,3.01 -2.34,2.02 -2,1 -1.34,0.67 -0.68,0.34 0,0 Z"
         fill="#c7565c"
         transform="translate(1027,353)"
         id="path20003"
         style="fill:#ffffff" /><path
         d="M 0,0 C 3,1 3,1 4.6054687,3.6523438 5.1275391,4.7364453 5.6496094,5.8205469 6.1875,6.9375 6.7173047,8.0190234 7.2471094,9.1005469 7.7929687,10.214844 9,13 9,13 9,15 8.34,15 7.68,15 7,15 6.731875,14.21625 6.46375,13.4325 6.1875,12.625 5.1518557,9.7188508 5.1518557,9.7188508 2,8 1.0148462,5.3764354 0.57761071,2.7547588 0,0 Z"
         fill="#c64f55"
         transform="translate(754,325)"
         id="path20005"
         style="fill:#ffffff" /><path
         d="M 0,0 C 0.33,0.66 0.66,1.32 1,2 0.34,2 -0.32,2 -1,2 -1.2475,2.763125 -1.495,3.52625 -1.75,4.3125 -3.1213067,7.2608094 -4.2351079,8.3583453 -7,10 c -0.66,0 -1.32,0 -2,0 1.3528217,-4.4274164 3.2329889,-6.3630922 7,-9 0.66,-0.33 1.32,-0.66 2,-1 z"
         fill="#cc5b5f"
         transform="translate(590,314)"
         id="path20007"
         style="fill:#ffffff" /><path
         d="M 0,0 C 0.33,0.66 0.66,1.32 1,2 0.67,2.66 0.34,3.32 0,4 c -0.66,0 -1.32,0 -2,0 0,0.66 0,1.32 0,2 -5.6539463,0.34616 -9.030068,-0.5657476 -14,-3 0.33,-0.66 0.66,-1.32 1,-2 1.485,0.99 1.485,0.99 3,2 5.5455632,0.5293483 5.5455632,0.5293483 10.5,-1.5 C -1.005,1.005 -0.51,0.51 0,0 Z"
         fill="#cb545b"
         transform="translate(502,370)"
         id="path20009"
         style="fill:#ffffff" /><path
         d="m 0,0 c 0.33,0 0.66,0 1,0 0,2.97 0,5.94 0,9 -0.66,0 -1.32,0 -2,0 -0.33,2.64 -0.66,5.28 -1,8 -0.99,0.33 -1.98,0.66 -3,1 0.7240477,-4.047046 1.8344629,-7.890704 3.0625,-11.8125 C -1.5752734,5.0260547 -1.2130469,3.8646094 -0.83984375,2.6679688 -0.56269531,1.7875391 -0.28554688,0.90710938 0,0 Z"
         fill="#ca6468"
         transform="translate(299,208)"
         id="path20011"
         style="fill:#ffffff" /><path
         d="M 0,0 C 0.33,0 0.66,0 1,0 1.0489844,1.1459766 1.0979687,2.2919531 1.1484375,3.4726563 1.223528,5.0026253 1.2990731,6.5325722 1.375,8.0625 1.4059375,8.814668 1.436875,9.5668359 1.46875,10.341797 1.7205846,15.189613 2.4916837,19.38308 4,24 3.34,24 2.68,24 2,24 -0.16926659,20.7461 -0.24080049,19.86604 -0.1953125,16.113281 -0.1888675,15.175488 -0.1824219,14.237695 -0.1757812,13.271484 -0.1590234,12.29502 -0.1422656,11.318555 -0.1249999,10.3125 -0.1159769,9.3244336 -0.106953,8.3363672 -0.09765615,7.3183594 -0.0740843,4.8786623 -0.04118022,2.439453 0,0 Z"
         fill="#c6666b"
         transform="translate(389,348)"
         id="path20013"
         style="fill:#ffffff" /><path
         d="M 0,0 C 0.33,0 0.66,0 1,0 1.3324905,6.2064899 0.54922986,10.313256 -2,16 -2.66,16.66 -3.32,17.32 -4,18 -3.3515591,13.807169 -2.4878335,9.7350008 -1.4375,5.625 -1.1680859,4.5653906 -0.89867187,3.5057813 -0.62109375,2.4140625 -0.31365234,1.2191016 -0.31365234,1.2191016 0,0 Z"
         fill="#ca6164"
         transform="translate(1001,338)"
         id="path20015"
         style="fill:#ffffff" /><path
         d="M 0,0 C 4.5695837,1.9732293 7.134633,3.9223623 10,8 7.5090719,9.2454641 6.5891927,8.7767578 4,8 3.896875,7.360625 3.79375,6.72125 3.6875,6.0625 3.460625,5.381875 3.23375,4.70125 3,4 2.01,3.67 1.02,3.34 0,3 0,2.01 0,1.02 0,0 Z"
         fill="#c7474f"
         transform="translate(935,318)"
         id="path20017"
         style="fill:#ffffff" /><path
         d="M 0,0 C 0.33,0 0.66,0 1,0 1.3255315,3.1359538 1.372155,4.52487 -0.609375,7.0546875 -1.3157812,7.6553906 -2.0221875,8.2560938 -2.75,8.875 -3.4460938,9.4911719 -4.1421875,10.107344 -4.859375,10.742188 -7,12 -7,12 -9.265625,11.695313 -9.8379688,11.465859 -10.410313,11.236406 -11,11 -10.113125,10.484375 -9.22625,9.96875 -8.3125,9.4375 -4.5187606,6.9472967 -2.5126748,3.7331168 0,0 Z"
         fill="#f7d7d7"
         transform="translate(1007,409)"
         id="path20019"
         style="fill:#ffffff" /><path
         d="M 0,0 C 0.66,0 1.32,0 2,0 0.59928507,5.2915897 -2.8548724,7.7747804 -7,11 -7.33,9.68 -7.66,8.36 -8,7 c 1.32,0 2.64,0 4,0 0,-1.32 0,-2.64 0,-4 0.66,0 1.32,0 2,0 0.66,-0.99 1.32,-1.98 2,-3 z"
         fill="#c6464d"
         transform="translate(759,379)"
         id="path20021"
         style="fill:#ffffff" /><path
         d="m 0,0 c 1.5960053,3.1920106 0.73185132,5.5659284 0,9 -1.1792068,2.473458 -2.5300463,4.676525 -4,7 C -5.1616178,13.134212 -4.9946154,11.983698 -4.00391,8.984375 -3.5282422,7.9170312 -3.0525781,6.8496875 -2.5625,5.75 -2.0894141,4.6723437 -1.6163281,3.5946875 -1.1289062,2.484375 -0.75636719,1.6645312 -0.38382812,0.8446875 0,0 Z"
         fill="#c85d62"
         transform="translate(363,332)"
         id="path20023"
         style="fill:#ffffff" /><path
         d="M 0,0 C 0.66,0 1.32,0 2,0 2.508783,1.5596622 3.0066347,3.1228924 3.5,4.6875 3.7784375,5.5576172 4.056875,6.4277344 4.34375,7.3242187 4.998508,9.9939168 5.1183149,12.263967 5,15 3.3928223,12.589233 2.3845749,10.719008 1.375,8.0625 0.98441406,7.0589648 0.98441406,7.0589648 0.5859375,6.0351562 0,4 0,4 0,0 Z"
         fill="#c44d52"
         transform="translate(949,316)"
         id="path20025"
         style="fill:#ffffff" /><path
         d="M 0,0 C -3.6896473,2.4597649 -5.2742848,3.1246531 -9.625,3.0625 -10.850898,3.048965 -10.850898,3.048965 -12.101563,3.035156 -13.041289,3.0177539 -13.041289,3.0177539 -14,3 -13,1 -13,1 -10.375,-0.1875 -6.5549566,-1.1071401 -3.824524,-0.76490479 0,0 Z"
         fill="#d5555b"
         transform="translate(899,315)"
         id="path20027"
         style="fill:#ffffff" /><path
         d="M 0,0 C 1.8125,0.125 1.8125,0.125 4,1 7.146948,5.8831952 7.146948,5.8831952 6.6875,9.375 6.460625,9.91125 6.23375,10.4475 6,11 6,10.34 6,9.68 6,9 5.34,9 4.68,9 4,9 2,6 2,6 2,2 1.34,2 0.68,2 0,2 0,1.34 0,0.68 0,0 Z"
         fill="#cd585f"
         transform="translate(183,241)"
         id="path20029"
         style="fill:#ffffff" /><path
         d="m 0,0 c 3.3,0 6.6,0 10,0 0,0.66 0,1.32 0,2 0.99,0.33 1.98,0.66 3,1 C 12.67,3.66 12.34,4.32 12,5 11.505,4.690625 11.01,4.38125 10.5,4.0625 7.0201322,2.5835562 3.7597149,2.3759715 0,2 0,1.34 0,0.68 0,0 Z"
         fill="#c54e53"
         transform="translate(906,333)"
         id="path20031"
         style="fill:#ffffff" /><path
         d="M 0,0 C 0.33,0.66 0.66,1.32 1,2 1.66,2 2.32,2 3,2 3.33,5.63 3.66,9.26 4,13 0.19083766,7.9211169 -0.11573285,6.2495737 0,0 Z"
         fill="#c74f55"
         transform="translate(964,355)"
         id="path20033"
         style="fill:#ffffff" /><path
         d="M 0,0 C 0.33,0 0.66,0 1,0 1.33,2.64 1.66,5.28 2,8 2.99,7.34 3.98,6.68 5,6 5.33,6.99 5.66,7.98 6,9 5.01,10.485 5.01,10.485 4,12 3.01,12 2.02,12 1,12 -0.26237731,9.4752454 -0.09856404,7.6879953 -0.0625,4.875 -0.05347656,3.9649219 -0.04445313,3.0548437 -0.03515625,2.1171875 -0.02355469,1.4185156 -0.01195312,0.71984375 0,0 Z"
         fill="#cb4c51"
         transform="translate(646,316)"
         id="path20035"
         style="fill:#ffffff" /><path
         d="M 0,0 C 0.66,0.33 1.32,0.66 2,1 -1.4585685,3.9499555 -4.8002148,6.2267574 -9,8 -9.66,7.67 -10.32,7.34 -11,7 -9.7329928,6.0158875 -8.4612381,5.037885 -7.1875,4.0625 -6.4798047,3.5172266 -5.7721094,2.9719531 -5.0429687,2.4101563 -3,1 -3,1 0,0 Z"
         fill="#cc666b"
         transform="translate(699,315)"
         id="path20037"
         style="fill:#ffffff" /><path
         d="M 0,0 C 1.4552777,2.9105554 0.63516661,4.9584905 0.0625,8.125 -0.13214844,9.2207031 -0.32679688,10.316406 -0.52734375,11.445313 -0.68332031,12.288359 -0.83929687,13.131406 -1,14 -1.33,14 -1.66,14 -2,14 -3.4529541,5.9649891 -3.4529541,5.9649891 -1.5625,1.9375 -1.046875,1.298125 -0.53125,0.65875 0,0 Z"
         fill="#c24c50"
         transform="translate(650,350)"
         id="path20039"
         style="fill:#ffffff" /><path
         d="m 0,0 c 0,0.99 0,1.98 0,3 -1.65,0.66 -3.3,1.32 -5,2 0.33,0.99 0.66,1.98 1,3 C -4.66,8 -5.32,8 -6,8 -6.33,6.68 -6.66,5.36 -7,4 -2.25,0 -2.25,0 0,0 Z"
         fill="#cf5459"
         transform="translate(812,316)"
         id="path20041"
         style="fill:#ffffff" /><path
         d="M 0,0 C 4.9927506,1.2772153 7.5761191,3.1733096 11,7 10.01,7.495 10.01,7.495 9,8 8.566875,7.525625 8.13375,7.05125 7.6875,6.5625 5.9769039,4.7631304 5.9769039,4.7631304 3,4 3,3.34 3,2.68 3,2 1.68,1.67 0.36,1.34 -1,1 -0.67,0.67 -0.34,0.34 0,0 Z"
         fill="#c96367"
         transform="translate(742,316)"
         id="path20043"
         style="fill:#ffffff" /><path
         d="m 0,0 c 0.33,0 0.66,0 1,0 0,4.62 0,9.24 0,14 0.66,0 1.32,0 2,0 C 2.34,15.32 1.68,16.64 1,18 0.67,18 0.34,18 0,18 0,12.06 0,6.12 0,0 Z"
         fill="#fee3e3"
         transform="translate(681,312)"
         id="path20045"
         style="fill:#ffffff" /><path
         d="M 0,0 C 0,0.66 0,1.32 0,2 -0.99,2 -1.98,2 -3,2 -3.20625,2.639375 -3.4125,3.27875 -3.625,3.9375 -5,6 -5,6 -8.125,6.75 -9.548125,6.87375 -9.548125,6.87375 -11,7 -4.4827586,0 -4.4827586,0 0,0 Z"
         fill="#cc6066"
         transform="translate(285,235)"
         id="path20047"
         style="fill:#ffffff" /><path
         d="M 0,0 C 0,0.66 0,1.32 0,2 0.66,2.33 1.32,2.66 2,3 -0.76250036,4.3812502 -2.947311,4.1907931 -6,4 -6.66,3.34 -7.32,2.68 -8,2 -2.25,0 -2.25,0 0,0 Z"
         fill="#cc5356"
         transform="translate(732,376)"
         id="path20049"
         style="fill:#ffffff" /><path
         d="M 0,0 C 0.99,0 1.98,0 3,0 2.885706,1.7715565 2.7581696,3.5422623 2.625,5.3125 2.5205859,6.7916992 2.5205859,6.7916992 2.4140625,8.3007813 2,11 2,11 0,14 0,9.38 0,4.76 0,0 Z"
         fill="#cb4549"
         transform="translate(1028,338)"
         id="path20053"
         style="fill:#ffffff" /><path
         d="m 0,0 c 0,0.33 0,0.66 0,1 -2.97,0 -5.94,0 -9,0 -0.66,1.32 -1.32,2.64 -2,4 -0.99,-0.33 -1.98,-0.66 -3,-1 3.634849,-5.2870535 8.2035382,-4.3982302 14,-4 z"
         fill="#d24048"
         transform="translate(915,332)"
         id="path20055"
         style="fill:#ffffff" /><path
         d="M 0,0 C 3.3941777,3.1262163 5.6062718,5.5654103 7,10 6.34,10 5.68,10 5,10 4.34,9.34 3.68,8.68 3,8 3,6.68 3,5.36 3,4 2.01,4 1.02,4 0,4 0,2.68 0,1.36 0,0 Z"
         fill="#cc666b"
         transform="translate(436,324)"
         id="path20057"
         style="fill:#ffffff" /><path
         d="M 0,0 C 2.9706954,2.5463104 4.4775751,5.4223015 6,9 5.67,9.66 5.34,10.32 5,11 4.34,9.68 3.68,8.36 3,7 2.34,7 1.68,7 1,7 0.67,4.69 0.34,2.38 0,0 Z"
         fill="#ca6568"
         transform="translate(190,213)"
         id="path20059"
         style="fill:#ffffff" /><path
         d="M 0,0 C 0.66,0.33 1.32,0.66 2,1 -0.64,3.64 -3.28,6.28 -6,9 -6.33,8.34 -6.66,7.68 -7,7 -4.7807181,4.0919754 -3.0703086,2.0468724 0,0 Z"
         fill="#f6cfd2"
         transform="translate(590,340)"
         id="path20061"
         style="fill:#ffffff" /><path
         d="M 0,0 C 0,1.65 0,3.3 0,5 -1.98,5.33 -3.96,5.66 -6,6 -3.4,0 -3.4,0 0,0 Z"
         fill="#cd5459"
         transform="translate(373,322)"
         id="path20063"
         style="fill:#ffffff" /><path
         d="M 0,0 C 0.66,0.33 1.32,0.66 2,1 1.67,2.32 1.34,3.64 1,5 -0.32,5.33 -1.64,5.66 -3,6 -3,3 -3,3 -1.5,1.3125 -0.7575,0.6628125 -0.7575,0.6628125 0,0 Z"
         fill="#ce4c4f"
         transform="translate(883,318)"
         id="path20065"
         style="fill:#ffffff" /><path
         d="m 0,0 c -0.66,1.32 -1.32,2.64 -2,4 -0.66,0 -1.32,0 -2,0 0,0.99 0,1.98 0,3 -0.66,0 -1.32,0 -2,0 -0.33,0.66 -0.66,1.32 -1,2 0,-1.32 0,-2.64 0,-4 0.66,0 1.32,0 2,0 C -4.87625,4.360625 -4.7525,3.72125 -4.625,3.0625 -4.41875,2.381875 -4.2125,1.70125 -4,1 -2,0 -2,0 0,0 Z"
         fill="#cb686c"
         transform="translate(250,205)"
         id="path20067"
         style="fill:#ffffff" /><path
         d="M 0,0 C 0.66,0 1.32,0 2,0 2,0.66 2,1.32 2,2 3.65,2 5.3,2 7,2 7.66,3.65 8.32,5.3 9,7 5.0735352,5.6911784 2.7222508,4.1255472 0,1 0,0.67 0,0.34 0,0 Z"
         fill="#ca5d60"
         transform="translate(687,387)"
         id="path20069"
         style="fill:#ffffff" /><path
         d="M 0,0 C -1.5550098,3.8168423 -4.0359549,6.1919573 -7,9 -4.4,0 -4.4,0 0,0 Z"
         fill="#fce2e0"
         transform="translate(398,336)"
         id="path20071"
         style="fill:#ffffff" /><path
         d="M 0,0 C 7.5714286,1.8571429 7.5714286,1.8571429 10,5 9.01,5.33 8.02,5.66 7,6 6.67,5.01 6.34,4.02 6,3 3.36,2.67 0.72,2.34 -2,2 -1.34,1.34 -0.68,0.68 0,0 Z"
         fill="#c7575d"
         transform="translate(422,315)"
         id="path20073"
         style="fill:#ffffff" /><path
         d="M 0,0 C 1.98,0 3.96,0 6,0 6.66,1.65 7.32,3.3 8,5 5.36,3.68 2.72,2.36 0,1 0,0.67 0,0.34 0,0 Z"
         fill="#c84e54"
         transform="translate(879,389)"
         id="path20075"
         style="fill:#ffffff" /><path
         d="M 0,0 C -0.66,2.64 -1.32,5.28 -2,8 -3.5,6.6875 -3.5,6.6875 -5,5 -5,4.01 -5,3.02 -5,2 -2,0 -2,0 0,0 Z"
         fill="#cc5158"
         transform="translate(393,338)"
         id="path20077"
         style="fill:#ffffff" /><path
         d="M 0,0 C 2.31,0.66 4.62,1.32 7,2 6.34,3.32 5.68,4.64 5,6 3.35,4.02 1.7,2.04 0,0 Z"
         fill="#ce595d"
         transform="translate(728,333)"
         id="path20079"
         style="fill:#ffffff" /><path
         d="M 0,0 C 0.66,0 1.32,0 2,0 1.34,1.65 0.68,3.3 0,5 -0.66,5 -1.32,5 -2,5 -2.33,5.99 -2.66,6.98 -3,8 -3.33,7.01 -3.66,6.02 -4,5 -2.1875,2.3125 -2.1875,2.3125 0,0 Z"
         fill="#c75256"
         transform="translate(877,323)"
         id="path20081"
         style="fill:#ffffff" /><path
         d="M 0,0 C 0.33,0 0.66,0 1,0 1,4.62 1,9.24 1,14 0.01,13.01 -0.98,12.02 -2,11 -2,10.34 -2,9.68 -2,9 -1.34,9 -0.68,9 0,9 0,6.03 0,3.06 0,0 Z"
         fill="#fad6d8"
         transform="translate(208,233)"
         id="path20083"
         style="fill:#ffffff" /><path
         d="m 250.65512,213.82756 c 0.33,0 0.66,0 1,0 0.22227,1.76914 0.42734,3.54044 0.625,5.3125 0.11602,0.98613 0.23203,1.97227 0.35156,2.98828 0.0234,2.69922 0.0234,2.69922 -1.97656,5.69922 -1.39152,-4.793 -0.68663,-9.15136 0,-14 z"
         fill="#d4535b"
         id="path20085"
         style="fill:#ffffff" /><path
         d="M 0,0 C 0.33,0.99 0.66,1.98 1,3 0,4 0,4 -2.5039063,4.0976562 -4.0179102,4.0802539 -4.0179102,4.0802539 -5.5625,4.0625 -6.5744141,4.0534766 -7.5863281,4.0444531 -8.6289063,4.0351562 -9.4113672,4.0235547 -10.193828,4.0119531 -11,4 -11,3.67 -11,3.34 -11,3 -10.289727,2.8672266 -9.5794531,2.7344531 -8.8476563,2.5976563 -7.9285547,2.4210547 -7.0094531,2.2444531 -6.0625,2.0625 -4.6877148,1.8014648 -4.6877148,1.8014648 -3.2851563,1.5351562 -1.0471016,1.2228501 -1.0471016,1.2228501 0,0 Z"
         fill="#c85d62"
         transform="translate(411,373)"
         id="path20087"
         style="fill:#ffffff" /><path
         d="M 0,0 C 0.99,0.33 1.98,0.66 3,1 3.33,3.31 3.66,5.62 4,8 2,6.25 2,6.25 0,4 0,2.68 0,1.36 0,0 Z"
         fill="#cc3f47"
         transform="translate(364,376)"
         id="path20089"
         style="fill:#ffffff" /><path
         d="M 0,0 C 2.125,0.375 2.125,0.375 4,1 3.34,2.32 2.68,3.64 2,5 0.68,4.01 -0.64,3.02 -2,2 -1.34,1.34 -0.68,0.68 0,0 Z"
         fill="#cd4246"
         transform="translate(657,315)"
         id="path20091"
         style="fill:#ffffff" /><path
         d="M 0,0 C 0.33,0 0.66,0 1,0 1,2.31 1,4.62 1,7 1.66,7 2.32,7 3,7 2.34,8.65 1.68,10.3 1,12 0.67,12 0.34,12 0,12 0,8.04 0,4.08 0,0 Z"
         fill="#ffeaeb"
         transform="translate(579,313)"
         id="path20093"
         style="fill:#ffffff" /><path
         d="M 0,0 C 2.6465335,2.6465335 3.59942,5.5622126 5,9 3.68,8.67 2.36,8.34 1,8 0.67,5.36 0.34,2.72 0,0 Z"
         fill="#d16e71"
         transform="translate(705,366)"
         id="path20095"
         style="fill:#ffffff" /><path
         d="M 0,0 C 0.66,0.66 1.32,1.32 2,2 1.875,4 1.875,4 1,6 -1.0625,7.25 -1.0625,7.25 -3,8 -2.690625,7.236875 -2.38125,6.47375 -2.0625,5.6875 -1.3210641,3.8121032 -0.63771783,1.9131535 0,0 Z"
         fill="#c95a62"
         transform="translate(415,365)"
         id="path20097"
         style="fill:#ffffff" /></g></g></svg>
