<svg xmlns="http://www.w3.org/2000/svg" width="24" height="24"><path fill="#7f631a" fill-rule="evenodd" d="M3 8.23v1.53l.38.37.38.37h9.2l.34.35.34.35H21V8.14l-.38-.37-.38-.37h-7.2l-.34-.35-.34-.35H3zm.2.02V9.6h9V6.9h-9zm9.2.12c0 1.25 0 1.3.25 1.53l.25.23v-1.3c0-1.25 0-1.3-.25-1.53l-.25-.23zm-1.13-.67q-.05.2-.2.14t-.42.22c-.23.25-.25.25-.25.07 0-.25-.15-.32-.57-.26-.32.05-.33.07-.33.54 0 .36.04.49.14.49q.15-.01.18-.32c.04-.46.28-.49.28-.03 0 .3.03.36.18.33q.17-.02.14-.28l-.04-.25.21.27c.18.22.3.27.61.25l.4-.01v-.68c0-.51-.03-.68-.14-.68q-.12.02-.19.2m-7.47.55c0 .58.02.65.2.65.16 0 .2-.07.2-.32v-.33l.22.32c.26.37.58.44.58.13v-.2l.2.2c.11.11.29.2.4.2.2 0 .6-.32.6-.5 0-.57-.99-.78-1.13-.23q-.04.13-.06-.2c0-.3-.05-.37-.21-.37s-.2.07-.2.33v.32l-.21-.32c-.12-.18-.3-.33-.4-.33-.17 0-.19.08-.19.65m2.72-.03c.03.63.03.63.35.66.53.05.72-.11.7-.6 0-.57-.11-.68-.64-.68H6.5zm1.46-.36c-.26.04-.28.08-.28.54 0 .42.03.49.2.49.16 0 .2-.07.2-.35q0-.36.15-.35.14-.02.15-.2c0-.11-.03-.2-.07-.18zm.7 0c-.26.06-.22.23.04.24q.31-.01-.04.1-.29.11-.28.34c0 .26.17.34.65.31.25 0 .3-.06.33-.3.04-.3-.21-.77-.4-.75-.07 0-.2.03-.3.06m11.62 1.2c0 1.25 0 1.3.25 1.53l.25.23v-1.3c0-1.25 0-1.3-.25-1.53l-.25-.23zm-16.7.98.23.25h8.9l-.23-.25-.23-.25h-8.9zm9.9.7.23.25h6.9l-.23-.25-.23-.25h-6.9z"/></svg>