<?xml version="1.0" encoding="UTF-8" standalone="no"?>
<svg
   viewBox="0 0 24 24"
   width="24pt"
   height="24pt"
   version="1.1"
   id="svg1"
   xml:space="preserve"
   xmlns="http://www.w3.org/2000/svg"
   xmlns:svg="http://www.w3.org/2000/svg"><defs
     id="defs1" /><g
     id="g1"
     transform="matrix(0.08918215,0,0,0.08918215,1.9772013,0.39173255)"><path
       d="m 168.537,86.605 c -1.574,1.575 -1.502,2.601 0.572,8.145 0.993,2.655 1.317,2.679 5.891,0.443 2.6,-1.272 3.5,-2.35 3.5,-4.193 0,-1.843 -0.9,-2.921 -3.5,-4.193 -4.387,-2.144 -4.516,-2.148 -6.463,-0.202 m -26.546,3.099 c 1.92,0.252 3.867,0.985 4.326,1.627 0.57,0.797 0.707,0.692 0.432,-0.331 -0.264,-0.979 -1.765,-1.544 -4.326,-1.627 -3.758,-0.122 -3.776,-0.108 -0.432,0.331 m -34.119,3.046 c -1.243,1.586 -1.208,1.621 0.378,0.378 1.666,-1.307 2.195,-2.128 1.372,-2.128 -0.207,0 -0.995,0.787 -1.75,1.75 M 139.4,105.5 c 0.001,8.25 0.156,11.492 0.344,7.204 0.188,-4.287 0.187,-11.037 -0.002,-15 -0.19,-3.962 -0.343,-0.454 -0.342,7.796 M 161,91.378 c 0,0.207 0.787,0.995 1.75,1.75 1.586,1.243 1.621,1.208 0.378,-0.378 C 161.821,91.084 161,90.555 161,91.378 m 41.924,4.372 -2.424,2.75 2.75,-2.424 C 205.82,93.81 206.459,93 205.674,93 c -0.179,0 -1.416,1.237 -2.75,2.75 M 109.5,97 c 0.995,1.1 2.035,2 2.31,2 0.275,0 -0.315,-0.9 -1.31,-2 -0.995,-1.1 -2.035,-2 -2.31,-2 -0.275,0 0.315,0.9 1.31,2 m 7.769,-1.307 c 0.973,0.254 2.323,0.237 3,-0.037 0.677,-0.274 -0.119,-0.481 -1.769,-0.461 -1.65,0.02 -2.204,0.244 -1.231,0.498 m 74.981,-0.004 c 0.963,0.252 2.537,0.252 3.5,0 0.963,-0.251 0.175,-0.457 -1.75,-0.457 -1.925,0 -2.713,0.206 -1.75,0.457 M 181.158,99 c 0,1.375 0.227,1.938 0.504,1.25 0.278,-0.687 0.278,-1.812 0,-2.5 -0.277,-0.687 -0.504,-0.125 -0.504,1.25 m -15.946,10.19 -0.212,11.689 -3.75,0.393 -3.75,0.392 3.781,0.168 c 2.333,0.104 3.975,-0.336 4.286,-1.146 0.277,-0.723 0.359,-6.236 0.181,-12.25 L 165.425,97.5 165.212,109.19 M 146,110.94 v 9.939 l -3.75,0.393 -3.75,0.392 4.25,0.168 L 147,122 v -10.5 c 0,-5.775 -0.225,-10.5 -0.5,-10.5 -0.275,0 -0.5,4.473 -0.5,9.94 M 57.252,105.5 c 0.011,2.2 0.216,2.982 0.455,1.738 0.239,-1.244 0.23,-3.044 -0.02,-4 -0.25,-0.956 -0.446,0.062 -0.435,2.262 m 27,0 c 0.011,2.2 0.216,2.982 0.455,1.738 0.239,-1.244 0.23,-3.044 -0.02,-4 -0.25,-0.956 -0.446,0.062 -0.435,2.262 m 32.516,-2.775 c 1.797,0.222 4.497,0.218 6,-0.01 1.503,-0.229 0.032,-0.411 -3.268,-0.405 -3.3,0.005 -4.529,0.192 -2.732,0.415 m 81.045,-0.042 c 0.721,0.289 1.584,0.253 1.916,-0.079 0.332,-0.332 -0.258,-0.568 -1.312,-0.525 -1.165,0.048 -1.402,0.285 -0.604,0.604 m -89.941,3.067 c -1.243,1.586 -1.208,1.621 0.378,0.378 1.666,-1.307 2.195,-2.128 1.372,-2.128 -0.207,0 -0.995,0.787 -1.75,1.75 m 85.941,2.933 c 0.721,0.289 1.584,0.253 1.916,-0.079 0.332,-0.332 -0.258,-0.568 -1.312,-0.525 -1.165,0.048 -1.402,0.285 -0.604,0.604 m -91.677,9.004 c -0.12,2.81 -0.52,3.234 -3.386,3.59 l -3.25,0.403 3.281,0.16 c 3.579,0.174 4.661,-1.206 3.934,-5.017 -0.344,-1.804 -0.473,-1.611 -0.579,0.864 m 15.133,-1.994 c 0.973,0.254 2.323,0.237 3,-0.037 0.677,-0.274 -0.119,-0.481 -1.769,-0.461 -1.65,0.02 -2.204,0.244 -1.231,0.498 m 75,0 c 0.973,0.254 2.323,0.237 3,-0.037 0.677,-0.274 -0.119,-0.481 -1.769,-0.461 -1.65,0.02 -2.204,0.244 -1.231,0.498 m -147.37,5.606 c 0.466,0.466 2.366,0.69 4.224,0.499 3.294,-0.339 3.273,-0.36 -0.847,-0.847 -2.323,-0.274 -3.843,-0.118 -3.377,0.348 m -25.149,0.407 c 1.238,0.238 3.262,0.238 4.5,0 1.238,-0.239 0.225,-0.434 -2.25,-0.434 -2.475,0 -3.488,0.195 -2.25,0.434 m 107.012,10e-4 c 1.244,0.239 3.044,0.23 4,-0.02 0.956,-0.25 -0.062,-0.446 -2.262,-0.435 -2.2,0.011 -2.982,0.216 -1.738,0.455 m 4.446,7.974 c 1.366,0.36 1.776,1.884 2.051,7.634 l 0.344,7.185 0.198,-7.75 c 0.192,-7.46 0.115,-7.746 -2.051,-7.634 -1.625,0.084 -1.776,0.241 -0.542,0.565 m -27.048,1.559 c -0.638,0.638 -1.16,3.508 -1.16,6.377 0,3.264 -0.464,5.371 -1.241,5.63 -0.903,0.301 -0.786,0.869 0.429,2.083 2.051,2.052 2.812,2.111 2.812,0.22 0,-0.798 0.787,-1.909 1.75,-2.47 1.667,-0.971 1.667,-1.021 0,-1.05 -1.422,-0.024 -1.743,-0.921 -1.715,-4.78 0.034,-4.481 0.111,-4.615 1.358,-2.365 1.546,2.789 2.748,1.608 1.56,-1.533 -1.067,-2.82 -2.363,-3.542 -3.793,-2.112 m 11.712,0.51 c -1.243,1.586 -1.208,1.621 0.378,0.378 0.963,-0.755 1.75,-1.543 1.75,-1.75 0,-0.823 -0.821,-0.294 -2.128,1.372 M 125,130.378 c 0,0.207 0.787,0.995 1.75,1.75 1.586,1.243 1.621,1.208 0.378,-0.378 -1.307,-1.666 -2.128,-2.195 -2.128,-1.372 m 72.079,3.205 c 0.048,1.165 0.285,1.402 0.604,0.605 0.289,-0.722 0.253,-1.585 -0.079,-1.917 -0.332,-0.332 -0.568,0.258 -0.525,1.312 m 3.654,0.541 c 0.679,0.684 1.486,0.991 1.793,0.683 0.308,-0.308 -0.247,-0.867 -1.233,-1.243 -1.425,-0.542 -1.54,-0.428 -0.56,0.56 m -6.408,0.534 c 0.362,0.362 0.099,1.374 -0.584,2.25 -1.096,1.406 -1.038,1.433 0.498,0.229 1.564,-1.227 1.586,-3.137 0.035,-3.137 -0.334,0 -0.311,0.296 0.051,0.658 m -103.68,2.84 c -2.301,2.301 -3.105,6.243 -1.634,8.015 2.823,3.401 10.989,0.88 10.989,-3.393 0,-4.463 -6.368,-7.609 -9.355,-4.622 M 197.405,142 c 0.072,4.18 0.455,5.5 1.595,5.5 1.111,0 1.565,-1.361 1.75,-5.25 L 201,137 l -0.552,5 c -0.722,6.538 -2.237,6.4 -2.741,-0.25 l -0.398,-5.25 0.096,5.5 M 90.958,140.078 c -1.432,2.677 -0.552,4.922 1.929,4.922 5.043,0 6.525,-2.412 3.284,-5.345 -2.434,-2.203 -3.87,-2.086 -5.213,0.423 m 67.44,2.413 c 0.082,4.005 0.452,5.022 1.872,5.148 1.138,0.101 1.246,-0.007 0.302,-0.304 -0.93,-0.293 -1.616,-2.178 -1.872,-5.148 l -0.404,-4.687 0.102,4.991 m -37.585,2.192 c 0.721,0.289 1.584,0.253 1.916,-0.079 0.332,-0.332 -0.258,-0.568 -1.312,-0.525 -1.165,0.048 -1.402,0.285 -0.604,0.604 m 58.955,2.485 c 0.582,0.582 1.647,0.86 2.369,0.62 0.749,-0.25 0.295,-0.703 -1.057,-1.057 -1.663,-0.435 -2.054,-0.305 -1.312,0.437 m -58.955,0.515 c 0.721,0.289 1.584,0.253 1.916,-0.079 0.332,-0.332 -0.258,-0.568 -1.312,-0.525 -1.165,0.048 -1.402,0.285 -0.604,0.604 m 13,0 c 0.721,0.289 1.584,0.253 1.916,-0.079 0.332,-0.332 -0.258,-0.568 -1.312,-0.525 -1.165,0.048 -1.402,0.285 -0.604,0.604 m 8,0 c 0.721,0.289 1.584,0.253 1.916,-0.079 0.332,-0.332 -0.258,-0.568 -1.312,-0.525 -1.165,0.048 -1.402,0.285 -0.604,0.604 m 10,0 c 0.721,0.289 1.584,0.253 1.916,-0.079 0.332,-0.332 -0.258,-0.568 -1.312,-0.525 -1.165,0.048 -1.402,0.285 -0.604,0.604 m 24,0 c 0.721,0.289 1.584,0.253 1.916,-0.079 0.332,-0.332 -0.258,-0.568 -1.312,-0.525 -1.165,0.048 -1.402,0.285 -0.604,0.604 m 11,0 c 0.721,0.289 1.584,0.253 1.916,-0.079 0.332,-0.332 -0.258,-0.568 -1.312,-0.525 -1.165,0.048 -1.402,0.285 -0.604,0.604"
       stroke="none"
       fill="#69b34d"
       fill-rule="evenodd"
       id="path1-0" /><path
       d="m 18,99 v 22 h 4.053 4.052 L 25.803,106.998 C 25.636,99.297 25.725,93.009 26,93.024 c 0.275,0.015 4.664,6.316 9.753,14.002 C 44.717,120.563 45.116,121 48.503,121 H 52 V 99 77 h -4.051 -4.052 l 0.302,14.502 C 44.364,99.477 44.275,105.973 44,105.936 43.725,105.9 39.282,99.374 34.126,91.435 25.114,77.556 24.623,77 21.376,77 H 18 v 22 m 71.192,-1.91 c 0.303,19.733 0.35,20.124 2.669,22 1.418,1.148 3.913,1.91 6.25,1.91 3.635,0 3.889,-0.192 3.889,-2.934 0,-2.456 -0.447,-2.985 -2.75,-3.25 L 96.5,114.5 96.228,95.75 95.956,77 H 92.42 88.883 l 0.309,20.09 M 66.035,90.274 C 60.469,92.243 58,96.922 58,105.5 c 0,9.002 2.411,13.25 8.783,15.469 3.709,1.292 4.718,1.292 8.376,0 5.999,-2.119 8.2,-5.623 8.661,-13.791 0.437,-7.727 -1.306,-13.155 -4.986,-15.526 -3.407,-2.195 -8.836,-2.78 -12.799,-1.378 m 47.608,-0.297 c -1.572,0.499 -3.697,1.666 -4.722,2.594 -1.809,1.637 -1.791,1.743 0.597,3.622 2.264,1.781 2.639,1.81 4.694,0.371 4.374,-3.064 10.788,-0.69 10.788,3.993 0,2.343 -0.269,2.443 -6.577,2.443 -5.936,0 -6.862,0.285 -9.5,2.923 -8.147,8.147 2.773,20.136 13.327,14.63 1.513,-0.789 2.75,-1.011 2.75,-0.494 0,0.518 1.575,0.941 3.5,0.941 h 3.5 v -11.435 c 0,-12.572 -0.74,-15.693 -4.27,-18.006 -2.97,-1.946 -10.337,-2.773 -14.087,-1.582 m 35.607,0.466 C 147.463,91.246 146,91.475 146,90.952 146,90.428 144.537,90 142.75,90 h -3.25 v 15.5 15.5 h 3.25 3.25 l 0.015,-9.75 c 0.017,-11.711 1.14,-14.616 5.823,-15.068 5.582,-0.54 6.162,0.725 6.162,13.44 V 121 h 3.5 3.5 v -12.484 c 0,-12.213 -0.06,-12.551 -2.75,-15.535 -3.298,-3.659 -8.322,-4.64 -13,-2.538 m 40.077,-0.747 C 185.704,90.401 182,94.88 182,98.555 c 0,1.805 0.28,4.01 0.621,4.9 0.844,2.199 5.626,4.545 9.264,4.545 4.154,0 8.115,1.669 8.115,3.419 0,1.882 -3.835,4.581 -6.511,4.581 -1.136,0 -3.714,-0.84 -5.728,-1.867 -3.648,-1.86 -3.67,-1.859 -5.773,0.379 l -2.11,2.247 2.549,2.005 c 4.686,3.686 14.998,3.97 20.207,0.556 2.835,-1.858 4.756,-6.631 3.954,-9.826 -1.1,-4.383 -3.995,-6.328 -10.515,-7.065 -6.364,-0.72 -8.518,-2.106 -7.48,-4.811 0.883,-2.301 4.978,-3.085 9.255,-1.773 3.189,0.979 3.882,0.869 5.644,-0.897 1.736,-1.741 1.805,-2.144 0.508,-2.977 -3.683,-2.366 -9.543,-3.275 -14.673,-2.275 M 66.655,97.829 c -2.422,2.676 -2.303,13.275 0.174,15.516 2.415,2.186 6.455,2.103 8.516,-0.174 2.422,-2.676 2.303,-13.275 -0.174,-15.516 -2.415,-2.186 -6.455,-2.103 -8.516,0.174 m 47.385,11.623 c -3.311,3.989 2.775,8.279 7.778,5.483 1.683,-0.94 2.8,-2.51 2.998,-4.217 0.307,-2.634 0.163,-2.718 -4.627,-2.718 -3.102,0 -5.393,0.541 -6.149,1.452 m 3.595,21.621 c -2.18,1.714 -2.635,2.885 -2.635,6.777 0,6.213 2.087,9.15 6.5,9.15 2.376,0 3.856,-0.67 4.959,-2.245 1.997,-2.852 0.195,-3.657 -2.575,-1.15 -3.005,2.72 -5.312,0.772 -5.682,-4.795 -0.353,-5.304 1.771,-8.053 4.632,-5.996 4.776,3.435 7.136,2.281 2.86,-1.399 -3.429,-2.951 -4.675,-3.004 -8.059,-0.342 m 81.615,-1.411 c -0.687,0.278 -1.25,1.555 -1.25,2.838 0,1.283 -0.562,2.596 -1.25,2.917 -1,0.466 -1,0.7 0,1.166 0.751,0.351 1.25,2.545 1.25,5.5 0,2.704 0.45,4.917 1,4.917 0.55,0 1,-2.25 1,-5 0,-3.778 0.367,-5 1.5,-5 2.057,0 1.892,-1.634 -0.25,-2.464 -1.667,-0.647 -1.667,-0.74 0,-1.968 3.192,-2.35 1.764,-4.425 -2,-2.906 M 130,136.566 c 0,7.416 1.167,10.434 4.035,10.434 2.315,0 2.617,-1.536 0.465,-2.362 -1.137,-0.436 -1.5,-2.279 -1.5,-7.607 0,-5.583 -0.309,-7.031 -1.5,-7.031 -1.181,0 -1.5,1.396 -1.5,6.566 m 34.866,-3.316 c -0.297,4.963 0.394,11.32 1.358,12.5 1.168,1.43 4.776,1.7 4.776,0.357 0,-0.491 -0.675,-1.152 -1.5,-1.469 -0.941,-0.361 -1.5,-1.89 -1.5,-4.107 0,-2.472 0.45,-3.531 1.5,-3.531 0.825,0 1.5,-0.45 1.5,-1 0,-0.55 -0.675,-1 -1.5,-1 -0.833,0 -1.5,-0.889 -1.5,-2 0,-2.785 -2.967,-2.548 -3.134,0.25 M 139,136 c -2.182,2.182 -2.591,6.026 -0.965,9.066 0.715,1.335 2.098,1.934 4.465,1.934 3.883,0 5.5,-2.022 5.5,-6.878 0,-1.975 -0.763,-3.543 -2.223,-4.565 -2.937,-2.058 -4.37,-1.964 -6.777,0.443 m 12,4.636 c 0,4.99 0.324,6.364 1.5,6.364 1.136,0 1.5,-1.23 1.5,-5.07 0,-4.685 0.171,-5.045 2.25,-4.75 1.92,0.273 2.295,1.017 2.555,5.07 0.214,3.335 0.735,4.75 1.75,4.75 1.035,0 1.445,-1.214 1.445,-4.277 0,-6.064 -1.966,-8.45 -6.961,-8.45 H 151 v 6.363 m 23.028,-5.674 c -1.28,0.809 -1.267,1.009 0.101,1.534 0.865,0.332 1.977,0.528 2.472,0.435 2.15,-0.402 3.399,0.175 3.399,1.569 0,0.986 -0.986,1.5 -2.878,1.5 -3.637,0 -5.933,2.49 -4.457,4.834 0.7,1.112 2.591,1.725 5.692,1.845 L 183,146.857 V 142 c 0,-3.082 -0.574,-5.431 -1.571,-6.429 -1.75,-1.749 -5.155,-2.03 -7.401,-0.609 M 186,140.589 c 0,4.924 0.335,6.411 1.445,6.411 1.013,0 1.537,-1.41 1.75,-4.71 0.257,-3.974 0.666,-4.794 2.614,-5.25 3.879,-0.907 2.942,-2.53 -1.559,-2.701 L 186,134.177 v 6.412 m -45.582,-2.236 c -1.112,2.897 -0.011,6.147 2.082,6.147 1.618,0 2,-0.667 2,-3.486 0,-2.528 -0.482,-3.579 -1.753,-3.824 -0.964,-0.186 -2.012,0.338 -2.329,1.163 m 34.832,4.897 c 0.229,0.688 1.242,1.25 2.25,1.25 1.008,0 2.021,-0.562 2.25,-1.25 0.264,-0.792 -0.561,-1.25 -2.25,-1.25 -1.689,0 -2.514,0.458 -2.25,1.25"
       stroke="none"
       fill="#2a7661"
       fill-rule="evenodd"
       id="path2" /></g></svg>
