<?xml version="1.0" encoding="UTF-8" standalone="no"?>
<svg
   viewBox="0 0 24 24"
   width="24pt"
   height="24pt"
   version="1.1"
   id="svg1"
   sodipodi:docname="noyon_pizza.svg"
   xml:space="preserve"
   inkscape:version="1.4.2 (f4327f4, 2025-05-13)"
   xmlns:inkscape="http://www.inkscape.org/namespaces/inkscape"
   xmlns:sodipodi="http://sodipodi.sourceforge.net/DTD/sodipodi-0.dtd"
   xmlns="http://www.w3.org/2000/svg"
   xmlns:svg="http://www.w3.org/2000/svg"><defs
     id="defs1" /><sodipodi:namedview
     id="namedview1"
     pagecolor="#ffffff"
     bordercolor="#000000"
     borderopacity="0.25"
     inkscape:showpageshadow="2"
     inkscape:pageopacity="0.0"
     inkscape:pagecheckerboard="0"
     inkscape:deskcolor="#d1d1d1"
     inkscape:document-units="pt"
     inkscape:zoom="24.15625"
     inkscape:cx="22.747736"
     inkscape:cy="27.508409"
     inkscape:window-width="3200"
     inkscape:window-height="1711"
     inkscape:window-x="-9"
     inkscape:window-y="-9"
     inkscape:window-maximized="1"
     inkscape:current-layer="svg1" /><g
     id="g5"
     transform="matrix(0.01830466,0,0,0.01830466,2.2098629,0.13255635)"><path
       d="m 502.852,127.302 -6.648,0.906 -0.687,5.646 c -2.272,18.646 -12.006,47.542 -19.185,56.956 l -2.599,3.407 1.383,0.876 1.384,0.876 17,-0.054 c 19.058,-0.061 39.08,-1.162 40.125,-2.206 0.378,-0.379 -0.422,-1.719 -1.78,-2.977 C 526.031,185.344 513,162.101 513,157.119 c 0,-1.101 -0.511,-2.317 -1.135,-2.702 l -1.135,-0.702 0.666,4.893 c 1.057,7.77 2.579,14.304 5.29,22.705 2.553,7.913 2.533,9.944 -0.076,7.779 -4.615,-3.831 -8.434,-18.775 -9.223,-36.092 l -0.525,-11.5 1.496,1.841 1.495,1.841 0.324,-9.19 c 0.178,-5.054 0.098,-9.281 -0.177,-9.392 -0.275,-0.112 -3.492,0.204 -7.148,0.702 m -5.595,18.198 c -1.113,5.375 -3.396,21.328 -4.794,33.5 l -0.517,4.5 1.536,-1.954 c 3.217,-4.091 5.886,-21.38 5.333,-34.546 l -0.315,-7.5 -1.243,6 m 3.813,26.55 c 0.039,5.198 0.432,10.35 0.874,11.45 l 0.803,2 0.749,-6.803 c 0.803,-7.302 0.214,-13.387 -1.46,-15.061 L 501,162.6 l 0.07,9.45 M 558,198.516 c -5.225,0.707 -21.65,3.399 -36.5,5.983 l -27,4.698 -15.5,-0.644 c -15.546,-0.646 -39.639,-2.383 -65.177,-4.7 l -13.676,-1.241 -2.574,1.173 -2.573,1.172 v 2.041 c 0,11.135 32.169,59.402 44.979,67.489 4.495,2.837 20.259,8.037 28.946,9.547 12.166,2.116 25.408,3.966 28.488,3.981 l 3.087,0.016 -1.5,1.011 -1.5,1.011 -19,-0.224 -19,-0.224 -5.22,1.768 -5.221,1.768 -2.521,2.996 -2.521,2.996 -2.126,6.999 -2.126,6.999 -0.132,7.152 -0.133,7.152 3.838,2.507 3.837,2.507 -2.452,2.025 c -1.349,1.114 -3.602,4.353 -5.006,7.196 -1.405,2.844 -5.277,8.74 -8.604,13.103 -3.328,4.362 -6.514,9.152 -7.082,10.645 l -1.031,2.713 1.144,2.184 c 0.63,1.202 2.655,3.874 4.5,5.938 l 3.356,3.753 v 3.029 c 0,1.666 -0.675,4.645 -1.5,6.619 -1.978,4.735 -1.899,5.977 0.606,9.495 l 2.107,2.958 -1.76,1.944 -1.759,1.944 1.753,3.886 1.752,3.886 -0.71,8.518 -0.709,8.518 1.186,3.594 1.186,3.594 4.174,3.38 c 5.698,4.614 10.094,6.728 17.174,8.26 l 6,1.299 h 10.5 10.5 l 8,-1.445 c 4.4,-0.795 8.9,-1.416 10,-1.379 l 2,0.066 -6,2.767 c -3.3,1.522 -9.937,3.578 -14.75,4.57 l -8.75,1.804 v 1.733 c 0,0.953 0.794,2.713 1.764,3.911 l 1.765,2.179 6.485,-1.062 c 8.949,-1.465 29.948,-4.586 45.337,-6.738 l 12.851,-1.797 6.222,-7.52 c 13.12,-15.857 28.455,-31.663 39.576,-40.79 29.75,-24.418 39.724,-35.749 45.76,-51.987 l 2.507,-6.742 0.486,-10.532 0.486,-10.531 -2.184,-8.717 c -1.201,-4.794 -3.714,-11.98 -5.586,-15.968 -3.38,-7.207 -5.476,-10.597 -16.969,-27.453 l -6,-8.799 v -26 -26 l -1.789,-4.486 c -1.987,-4.984 -5.812,-9.462 -9.911,-11.603 L 591.099,197 579.3,197.115 c -6.49,0.064 -16.075,0.694 -21.3,1.401 m -12.118,89.234 c -0.065,0.413 -0.186,19.875 -0.269,43.25 l -0.151,42.5 -1.278,10 c -0.702,5.5 -2.182,14.886 -3.289,20.858 -1.106,5.972 -1.766,11.104 -1.466,11.404 0.944,0.944 5.197,-9.827 8.396,-21.262 3.848,-13.76 6.545,-27.987 8.717,-46 l 1.689,-14 0.134,-21 c 0.074,-11.55 -0.211,-22.238 -0.634,-23.75 L 556.962,287 h -5.481 c -3.015,0 -5.534,0.337 -5.599,0.75 m 43.949,142.144 c -2.932,2.692 -6.144,6.292 -7.138,8 l -1.806,3.106 1.806,-0.059 c 0.994,-0.032 3.832,-1.146 6.307,-2.475 2.475,-1.328 5.288,-2.704 6.25,-3.057 L 597,434.767 V 429.883 425 h -0.919 c -0.506,0 -3.319,2.202 -6.25,4.894 m 3.622,10.167 c -3.423,3.517 -10.044,7.985 -16.953,11.439 -2.711,1.355 -6.64,9.56 -7.274,15.191 l -0.519,4.599 2.897,-0.702 c 1.593,-0.386 7.805,-2.683 13.805,-5.106 10.114,-4.083 13.496,-4.756 12.037,-2.394 -0.989,1.599 -10.425,6.038 -20.874,9.819 l -9.928,3.594 -0.931,2.999 -0.932,3 -0.068,17.5 -0.068,17.5 2.139,10 c 1.177,5.5 2.428,10.988 2.78,12.196 l 0.641,2.195 -11.321,11.002 c -6.226,6.052 -12.381,11.57 -13.677,12.264 l -2.356,1.261 -3.356,-3.959 -3.356,-3.959 -2.468,1.5 c -1.358,0.825 -4.969,3.451 -8.025,5.837 l -5.557,4.336 -1.085,-0.671 c -1.564,-0.966 -4.825,-6.386 -11.905,-19.786 l -6.227,-11.784 1.165,-5.716 c 1.569,-7.697 7.249,-22.788 12.589,-33.446 2.406,-4.802 4.374,-8.964 4.374,-9.25 0,-1.12 -5.433,-0.321 -29.591,4.352 l -25.091,4.854 -7.42,6.016 c -8.135,6.595 -12.492,11.097 -21.192,21.897 l -5.752,7.139 -1.579,4.635 -1.58,4.636 1.225,1.475 1.225,1.476 h 34.425 34.425 l 2.446,2.638 c 2.394,2.583 7.459,12.255 7.459,14.243 0,0.553 0.833,1.594 1.851,2.312 1.018,0.719 2.547,2.658 3.398,4.309 0.85,1.652 2.436,3.808 3.523,4.792 l 1.977,1.788 3.331,-2.791 c 1.832,-1.535 4.429,-3.804 5.772,-5.041 1.342,-1.237 3.343,-2.25 4.447,-2.25 h 2.008 l 5.346,5.057 5.347,5.056 1.884,-1.319 c 3.931,-2.754 11.536,-9.584 19.43,-17.453 4.502,-4.487 9.228,-8.681 10.502,-9.32 l 2.316,-1.162 45.184,0.187 c 24.851,0.102 45.972,-0.139 46.934,-0.537 l 1.75,-0.723 v -2.697 c 0,-3.462 -4.653,-12.833 -6.994,-14.086 -0.989,-0.529 -4.265,-4.24 -7.28,-8.246 -14.022,-18.63 -30.842,-36.688 -45.726,-49.088 -10.148,-8.455 -10.082,-8.374 -9.815,-12.169 0.491,-6.976 -3.107,-23.5 -5.118,-23.5 -0.364,0 -2.44,1.828 -4.614,4.061 m -68.958,22.955 c -2.203,0.438 -10.753,1.513 -19,2.389 -16.769,1.781 -27.931,3.451 -31.134,4.656 -1.176,0.443 -3.702,2.178 -5.614,3.856 l -3.474,3.051 -1.718,6.123 -1.718,6.122 0.6,2.394 0.601,2.393 2.731,-0.008 c 4.404,-0.012 26.535,-3.775 44.731,-7.606 3.85,-0.811 8.031,-1.551 9.291,-1.646 l 2.291,-0.172 5.792,-9.034 c 3.185,-4.969 6.333,-10.046 6.994,-11.284 l 1.202,-2.25 -3.785,0.11 c -2.082,0.06 -5.587,0.468 -7.79,0.906 M 585,571.427 c 0,0.785 1.688,2.826 3.75,4.535 l 3.75,3.107 5.274,1.543 5.273,1.544 5.027,-1.078 c 2.764,-0.593 6.314,-1.744 7.888,-2.558 2.861,-1.48 7.038,-6.023 7.038,-7.655 V 570 h -19 -19 v 1.427 m 60,-0.116 c 0,3.39 8.292,8.903 15.392,10.235 l 3.8,0.713 5.998,-1.817 5.999,-1.816 2.905,-2.714 c 1.598,-1.493 2.906,-3.434 2.906,-4.313 V 570 H 663.5 645 v 1.311 m -186,14.631 c -15.832,1.678 -28.269,5.118 -39.5,10.925 l -7,3.619 -4.169,4.149 c -2.292,2.282 -4.961,5.661 -5.93,7.507 l -1.761,3.358 -0.02,8.065 -0.02,8.065 2.359,3.435 c 11.352,16.534 32.624,24.532 70.689,26.578 l 11.852,0.637 11.687,-1.205 c 15.626,-1.611 27.584,-4.167 37.558,-8.026 l 8.245,-3.191 5.852,-4.399 5.852,-4.399 2.801,-4.232 2.801,-4.232 0.463,-6.548 0.464,-6.548 -1.194,-4.412 -1.193,-4.412 -5.668,-5.668 -5.668,-5.668 -6.852,-3.269 c -7.919,-3.78 -16.81,-6.526 -28.148,-8.695 l -8,-1.531 -19,-0.349 c -10.45,-0.192 -22.375,0.009 -26.5,0.446 m 131.519,0.872 -4.98,0.314 -0.754,1.186 c -0.415,0.652 -0.761,16.178 -0.77,34.502 l -0.015,33.315 1.035,1.935 1.035,1.934 50.215,-0.015 50.215,-0.016 1.302,-0.825 1.302,-0.826 -0.302,-6.409 -0.302,-6.409 -29.788,-0.5 -29.787,-0.5 -0.738,-1.196 c -0.406,-0.658 -0.62,-9.855 -0.476,-20.437 l 0.263,-19.241 0.797,-0.797 0.796,-0.796 27.467,-0.267 27.466,-0.266 0.294,-7.25 0.294,-7.25 -0.794,-0.093 c -2.323,-0.272 -89.559,-0.359 -93.775,-0.093 m -350.926,5.416 c -0.305,2.898 -0.45,18.77 -0.321,35.27 l 0.233,30 0.807,1.25 0.806,1.25 19.191,-0.015 19.191,-0.016 1.5,-0.947 1.5,-0.947 0.288,-31.288 0.288,-31.287 -0.832,-4 -0.832,-4 -20.632,-0.27 -20.631,-0.27 -0.556,5.27 m 96.884,-4.193 c -0.353,0.571 -0.723,4.559 -0.824,8.864 l -0.182,7.827 -1.358,1.636 -1.358,1.636 H 313.578 294.4 l -1.2,1.2 -1.2,1.2 v 5.1 5.1 l 1.2,1.2 1.2,1.2 19.05,0.015 19.05,0.016 1.5,0.947 1.5,0.947 0.5,17.287 0.5,17.288 19.872,0.272 19.871,0.271 1.379,-1.144 1.378,-1.144 v -33.796 c 0,-18.587 -0.273,-34.507 -0.607,-35.377 L 377.786,587 h -20.334 -20.334 l -0.641,1.037 m 373.209,-0.39 C 709.309,588.024 709,603.918 709,622.967 V 657.6 l 1.2,1.2 1.2,1.2 19.05,-0.015 19.05,-0.016 1.263,-0.801 1.263,-0.802 -0.263,-35.433 -0.263,-35.433 -20.564,-0.27 c -11.31,-0.148 -20.872,0.039 -21.25,0.417 m 96.155,2.603 c -0.088,1.788 -0.225,5.799 -0.306,8.913 l -0.146,5.664 -1.317,1.586 -1.317,1.587 h -19.77 -19.771 l -0.607,1.582 c -0.334,0.87 -0.607,3.705 -0.607,6.3 v 4.718 l 1.2,1.2 1.2,1.2 19.05,0.015 19.05,0.016 1.313,0.832 1.313,0.833 0.585,16.902 0.585,16.902 1.102,0.735 c 0.606,0.404 9.749,0.741 20.317,0.75 l 19.215,0.015 1.035,-1.934 1.035,-1.935 v -31.44 c 0,-17.293 -0.281,-32.847 -0.625,-34.566 L 847.75,587 H 826.875 806 l -0.159,3.25 M 468,601.343 c -8.259,1.527 -15.086,4.852 -18.914,9.212 l -3.002,3.419 -1.123,4.172 -1.124,4.172 0.656,3.591 c 1.474,8.067 7.339,14.656 15.794,17.745 l 4.213,1.539 11.081,0.535 11.082,0.536 6.816,-1.187 c 7.96,-1.386 13.573,-4.019 17.958,-8.423 4.022,-4.039 5.563,-7.663 5.563,-13.079 0,-5.621 -2.024,-10.286 -6.211,-14.317 l -3.367,-3.241 -6.02,-2.359 -6.019,-2.359 -10.442,-0.579 -10.441,-0.578 -6.5,1.201 m 171.751,8.303 -1.75,0.5 -0.624,2.488 c -0.343,1.368 -0.378,4.324 -0.076,6.571 l 0.547,4.083 1.326,0.841 1.326,0.84 26.05,0.016 26.05,0.015 1.2,-1.2 1.2,-1.2 -0.015,-5.05 c -0.009,-2.778 -0.442,-5.725 -0.963,-6.55 l -0.947,-1.5 -25.788,-0.177 c -14.183,-0.097 -26.574,0.048 -27.536,0.323"
       stroke="none"
       fill="#ffffff"
       fill-rule="evenodd"
       id="path1-8" /><path
       d="m 496.678,100.49 c -5.742,1.989 -8.681,6.503 -8.674,13.325 l 0.003,3.685 1.953,3.201 c 5.149,8.447 17.711,8.422 22.943,-0.045 L 515,117.264 v -3.746 -3.746 l -2.128,-3.785 c -2.251,-4.006 -4.483,-5.512 -9.372,-6.322 l -3,-0.498 -3.822,1.323 m 16.572,33.184 -2.25,1.57 0.026,5.128 c 0.014,2.82 0.844,8.728 1.845,13.128 l 1.82,8 4.031,8.2 c 4.206,8.556 10.43,17.343 11.024,15.562 0.189,-0.568 -1.51,-5.472 -3.777,-10.897 C 520.388,161.007 515,145.917 515,143.643 v -1.865 l 1.785,2.205 1.785,2.204 15.965,0.987 15.965,0.987 14,-0.605 c 7.7,-0.333 22.535,-1.35 32.967,-2.261 l 18.967,-1.655 11.033,1.133 11.033,1.133 11.767,3.045 c 6.472,1.674 14.597,4.328 18.055,5.896 l 6.288,2.851 3.719,3.829 3.719,3.829 1.474,5.072 1.474,5.072 -0.972,10 c -1.21,12.448 -1.21,11.5 -0.003,11.5 0.562,0 1.548,-1.155 2.191,-2.567 l 1.17,-2.566 1.808,0.472 1.808,0.473 0.751,-1.156 c 0.413,-0.636 0.976,-4.074 1.251,-7.641 l 0.5,-6.485 2.511,2.717 c 2.952,3.195 12.469,21.851 18.748,36.753 2.433,5.775 5.56,13.2 6.947,16.5 3.306,7.86 4.083,9.51 5.892,12.5 l 1.512,2.5 -0.651,-7.5 c -0.358,-4.125 -1.228,-11.769 -1.933,-16.986 -1.334,-9.868 -1.166,-12.014 0.941,-12.014 1.371,0 7.361,3.861 11.927,7.688 l 2.893,2.425 1.024,-1.024 1.023,-1.023 -3.176,-13.191 c -1.747,-7.254 -2.962,-13.404 -2.701,-13.666 0.692,-0.691 6.988,5.042 12.74,11.602 4.757,5.425 16.726,22.889 21.883,31.931 1.331,2.334 2.773,4.246 3.204,4.25 l 0.785,0.008 -0.649,-5.25 c -2.243,-18.136 -8.733,-38.103 -16.475,-50.685 -1.62,-2.632 -2.945,-5.074 -2.945,-5.426 0,-1.465 3.38,-0.388 12.109,3.861 8.991,4.376 11.895,5.292 11.887,3.75 -0.007,-1.37 -3.671,-6.69 -7.832,-11.371 -2.259,-2.542 -8.125,-7.373 -13.035,-10.737 C 743.901,154.028 726.86,147.432 704,143.419 l -9.5,-1.668 -36,-0.242 -36,-0.242 -7.5,-1.095 c -4.125,-0.602 -11.325,-1.748 -16,-2.546 -18.109,-3.093 -51.398,-5.648 -72.5,-5.565 l -11,0.044 -2.25,1.569 m -21.26,3.576 c -0.532,1.238 -3.484,10.317 -6.561,20.176 -3.078,9.859 -7.133,21.254 -9.012,25.323 -1.879,4.068 -3.417,7.884 -3.417,8.479 v 1.082 l 2.08,-1.883 c 5.574,-5.044 16.081,-34.003 18.386,-50.677 0.704,-5.096 0.088,-6.14 -1.476,-2.5 m 5.701,9.75 c -1.589,7.89 -4.784,31.241 -4.336,31.689 1.205,1.204 2.563,-4.208 4.111,-16.381 0.923,-7.255 1.51,-14.455 1.304,-16 l -0.374,-2.808 -0.705,3.5 m 10.312,8.691 c 0.008,11.54 4.55,29.034 8.36,32.196 l 1.637,1.358 v -1.251 c 0,-0.689 -1.087,-4.681 -2.415,-8.873 -2.694,-8.503 -5.617,-21.459 -5.598,-24.812 0.007,-1.205 -0.437,-2.469 -0.987,-2.809 l -1,-0.618 0.003,4.809 m -6.933,15.059 c 0.039,2.063 0.457,4.65 0.93,5.75 l 0.859,2 0.071,-5.75 L 503,167 h -1 -1 l 0.07,3.75 m -112.795,20.148 c -4.243,1.104 -7.858,3.536 -9.909,6.666 l -1.662,2.536 1.176,5.256 c 4.085,18.253 21.107,40.476 57.318,74.831 l 3.698,3.509 -1.495,4.902 c -0.823,2.696 -2.175,8.052 -3.005,11.902 l -1.51,7 -0.268,13.5 -0.268,13.5 -8.862,13.5 c -4.874,7.425 -9.457,15.206 -10.184,17.29 l -1.322,3.791 0.582,2.209 0.583,2.21 3.955,2.761 3.956,2.761 1.047,2.739 1.047,2.739 -1.141,5.826 -1.142,5.826 1.566,2.389 1.565,2.389 v 4.167 4.167 l 2.069,3.347 2.068,3.347 -1.245,7.414 -1.246,7.413 1.727,4.521 c 2.828,7.406 8.453,11.968 16.162,13.11 2.181,0.323 3.29,0.292 2.465,-0.069 -0.825,-0.361 -3.821,-2.632 -6.659,-5.045 l -5.159,-4.389 -1.633,-4.082 -1.633,-4.081 0.682,-8.402 0.681,-8.402 -1.843,-4.088 -1.843,-4.087 1.703,-1.246 c 2.249,-1.644 2.149,-3.003 -0.481,-6.562 l -2.186,-2.956 2.186,-5.273 c 1.202,-2.9 2.185,-6.034 2.185,-6.964 0,-0.931 -2.025,-4.178 -4.5,-7.217 l -4.5,-5.525 v -2.402 -2.402 l 3.665,-5.362 c 2.015,-2.949 5.157,-7.198 6.981,-9.442 1.824,-2.243 4.265,-6.293 5.425,-9 1.16,-2.706 3.207,-5.848 4.55,-6.982 l 2.441,-2.063 -3.781,-2.44 -3.781,-2.439 -0.324,-2.829 c -0.444,-3.869 2.544,-18.141 4.985,-23.819 2.522,-5.863 5.09,-8.229 11.124,-10.247 l 4.785,-1.601 17.715,-0.102 17.715,-0.102 -8.5,-1.353 c -19.819,-3.155 -22.947,-3.806 -31.799,-6.616 -10.418,-3.308 -15.139,-5.719 -20.055,-10.241 -8.524,-7.844 -26.193,-33.284 -34.476,-49.64 l -4.831,-9.539 -0.169,-3.397 -0.17,-3.397 2.5,-1.361 2.5,-1.361 7,0.5 c 3.85,0.275 13.525,1.187 21.5,2.028 17.495,1.843 46.647,3.583 59.861,3.574 l 9.639,-0.006 11.5,-2.03 c 6.325,-1.116 20.95,-3.587 32.5,-5.49 l 21,-3.46 13.545,-0.648 13.545,-0.647 3.699,1.755 c 2.034,0.965 5.032,3.274 6.662,5.13 l 2.963,3.375 1.594,5.264 c 0.877,2.895 1.856,8.414 2.176,12.264 0.32,3.85 0.931,7.657 1.356,8.46 l 0.774,1.46 0.7,-4.664 c 0.385,-2.566 0.539,-10.038 0.343,-16.606 l -0.357,-11.941 -1.868,-2.063 c -1.027,-1.135 -4.163,-2.826 -6.968,-3.758 l -5.101,-1.694 -23.531,0.679 c -12.943,0.373 -30.057,1.107 -38.032,1.631 -7.975,0.524 -27.417,0.963 -43.204,0.975 L 462.092,196 439.85,193.483 c -12.233,-1.384 -28.117,-2.721 -35.296,-2.97 l -13.054,-0.454 -3.225,0.839 m 232.018,95.352 c 6.785,11.61 9.868,18.063 12.781,26.75 l 3.185,9.5 0.501,8.613 0.502,8.613 -1.708,7.674 -1.707,7.674 -3.868,7.713 c -6.74,13.44 -11.248,18.114 -47.38,49.118 -12.193,10.462 -23.731,22.777 -38.405,40.991 l -3.307,4.104 -4.193,-0.003 c -3.816,-0.003 -32.312,4.047 -52.194,7.417 l -8,1.356 -1.618,-0.849 -1.618,-0.85 -0.627,-3.138 c -0.76,-3.799 -0.174,-4.933 2.548,-4.933 1.137,0 6.056,-0.936 10.93,-2.081 l 8.863,-2.08 2.261,-1.843 2.261,-1.842 -7,1.586 -7,1.586 -15.154,0.087 -15.154,0.087 0.472,0.765 c 0.26,0.421 2.129,1.455 4.154,2.299 4.329,1.803 11.182,8.171 11.182,10.389 0,0.851 -1.58,2.807 -3.51,4.348 -4.933,3.936 -6.189,6.336 -6.902,13.199 l -0.624,6 1.937,-5.232 c 1.066,-2.878 2.861,-6.529 3.99,-8.115 l 2.053,-2.882 4.778,-2.053 4.778,-2.052 10.5,-1.157 c 5.775,-0.637 18.996,-2.266 29.379,-3.62 10.384,-1.355 19.095,-2.249 19.357,-1.986 0.263,0.262 -2.729,5.544 -6.647,11.736 l -7.125,11.259 -8.732,1.705 c -14.665,2.863 -35.338,6.665 -42.935,7.895 l -7.203,1.167 -2.058,-0.653 -2.058,-0.654 -0.602,3.013 -0.603,3.013 -3.636,2.494 c -4.972,3.408 -12.248,10.346 -15.599,14.872 -4.022,5.434 -1.796,4.561 3.462,-1.359 2.475,-2.786 7.875,-7.884 12,-11.329 l 7.5,-6.264 16.5,-3.156 c 23.963,-4.583 39.304,-7.072 40.195,-6.522 0.428,0.265 -0.736,3.496 -2.588,7.181 C 509.326,510.29 502,530.566 502,536.229 v 2.514 l 8.25,15.125 c 4.538,8.32 8.753,15.127 9.367,15.129 0.614,0.002 4.214,-2.469 8,-5.491 3.786,-3.022 7.321,-5.497 7.856,-5.5 0.535,-0.003 2.59,1.872 4.567,4.168 l 3.595,4.174 12.683,-11.816 L 569,542.716 v -1.779 c 0,-0.979 -1.004,-5.752 -2.231,-10.608 l -2.231,-8.829 -0.019,-21 -0.019,-21 1.165,-2.026 1.165,-2.026 7.335,-2.342 c 8.466,-2.703 21.349,-8.51 22.302,-10.053 L 597.118,462 h -0.97 c -0.534,0 -4.608,1.557 -9.053,3.459 -9.297,3.98 -17.992,6.723 -19.113,6.03 l -0.772,-0.477 0.886,-3.946 c 0.488,-2.17 1.802,-6.391 2.921,-9.381 l 2.033,-5.435 6.415,-3.158 c 3.528,-1.737 8.579,-5.15 11.225,-7.585 l 4.81,-4.428 H 594 c -0.825,0 -3.975,1.332 -7,2.96 -3.025,1.629 -6.088,2.961 -6.807,2.961 h -1.306 l 2.467,-4.137 c 2.991,-5.016 18.709,-21.138 27.646,-28.356 10.525,-8.501 22.969,-20.302 29.53,-28.005 5.829,-6.844 10.883,-15.821 12.95,-23.002 l 1.727,-6 -0.007,-8 -0.008,-8 -2.196,-7 c -4.065,-12.958 -13.015,-27.982 -23.496,-39.442 -2.2,-2.405 -4.952,-5.427 -6.115,-6.715 -3.303,-3.66 -3.819,-2.76 -1.092,1.907 m -74.68,2.567 c -0.278,0.45 -0.034,9.562 0.541,20.25 l 1.047,19.433 -0.615,19.131 c -0.821,25.556 -2.943,47.26 -6.195,63.369 l -0.505,2.5 1.539,-2.5 c 4.349,-7.065 11.521,-36.578 14.096,-58 l 1.623,-13.5 0.567,-23.128 c 0.312,-12.72 0.271,-24.308 -0.091,-25.75 L 556.962,288 h -5.422 c -2.982,0 -5.649,0.368 -5.927,0.817 m 58.765,172.38 -0.739,1.196 5.93,5.047 c 11.037,9.39 28.565,27 39.16,39.341 5.798,6.754 10.759,12.064 11.024,11.8 0.743,-0.743 -5.342,-10.221 -12.298,-19.153 -6.692,-8.594 -26.222,-27.811 -35.629,-35.057 -6.269,-4.829 -6.392,-4.882 -7.448,-3.174 m 261.122,33.308 -4,1.417 -2.335,2.789 c -3.326,3.973 -5.168,8.632 -5.143,13.007 l 0.022,3.782 1.923,4.237 1.924,4.238 4.75,3.012 4.751,3.013 h 4.336 c 5.644,0 10.588,-2.127 14.242,-6.128 l 2.938,-3.217 1.057,-4.929 1.057,-4.929 -1.065,-3.955 -1.065,-3.955 -3.409,-3.774 -3.41,-3.775 -3.902,-1.169 c -4.989,-1.494 -7.709,-1.422 -12.671,0.336 m 3.238,3.187 -1.762,0.459 0.571,0.925 c 0.314,0.508 2.794,0.924 5.512,0.924 H 878 v -0.883 c 0,-1.65 -5.284,-2.463 -9.262,-1.425 m -9.289,7.776 c -0.797,1.907 -1.447,4.945 -1.445,6.75 l 0.003,3.282 1.988,3.259 c 1.093,1.793 3.453,4.153 5.246,5.246 l 3.259,1.988 4.139,0.003 4.139,0.004 2.361,-1.935 2.361,-1.935 -1.792,-1.332 c -0.985,-0.733 -2.345,-2.449 -3.023,-3.815 l -1.231,-2.483 -2.67,-0.311 -2.67,-0.311 -1.583,3.061 c -0.87,1.684 -2.215,3.061 -2.989,3.061 -1.613,0 -2.994,-3.459 -2.015,-5.044 0.362,-0.585 0.346,-3.739 -0.033,-7.009 L 862.804,502 h -0.953 c -0.524,0 -1.605,1.561 -2.402,3.468 m 22.106,0.782 c -1.152,5.566 -0.239,13.75 1.533,13.75 1.218,0 3.912,-5.497 3.912,-7.982 0,-2.775 -2.655,-9.018 -3.835,-9.018 -0.516,0 -1.241,1.462 -1.61,3.25 m -11.95,-0.42 c -0.32,0.519 0.03,1.452 0.779,2.074 l 1.363,1.131 1.669,-0.641 c 0.917,-0.352 1.502,-1.147 1.298,-1.767 -0.473,-1.439 -4.339,-2.043 -5.109,-0.797 M 164,544.978 l -1.5,0.948 -0.853,110.101 c -0.469,60.555 -0.557,110.396 -0.195,110.759 0.816,0.815 4.162,-0.469 28.048,-10.764 49.549,-21.356 110.556,-40.403 164.5,-51.359 55.932,-11.359 92.34,-16.045 145.809,-18.767 l 22.691,-1.154 21,0.614 c 82.581,2.414 170.695,17.968 253.363,44.724 20.954,6.781 42.187,14.328 53.137,18.887 4.125,1.717 11.55,4.732 16.5,6.699 4.95,1.967 15.474,6.672 23.387,10.455 7.912,3.784 14.766,6.879 15.231,6.879 0.464,0 1.084,-1.013 1.379,-2.25 0.706,-2.973 2.478,-216.13 1.817,-218.657 -0.655,-2.506 -2.706,-3.275 -5.701,-2.136 l -2.369,0.901 -0.648,89.821 c -0.357,49.401 -0.889,91.734 -1.184,94.071 l -0.535,4.25 h -1.323 c -0.727,0 -5.762,-1.556 -11.188,-3.457 C 843.954,721.032 776.155,704.355 723,695.604 667.384,686.448 628.007,682.128 570.5,678.874 l -20,-1.131 -36,0.567 -36,0.567 -22.5,1.571 c -94.063,6.565 -182.332,22.414 -267.353,48.004 -10.369,3.121 -19.142,5.387 -19.494,5.035 -0.352,-0.352 -0.484,-42.466 -0.292,-93.586 l 0.347,-92.945 -1.226,-1.478 c -1.428,-1.72 -1.947,-1.785 -3.982,-0.5 m 22.053,18.913 -1.447,0.97 -0.255,5.32 c -0.214,4.447 -0.513,103.798 -0.389,129.069 L 184,707 l 2.25,-0.004 c 3.286,-0.006 26.099,-4.57 42.25,-8.454 25.171,-6.052 56.782,-11.145 99.344,-16.005 11.911,-1.36 28.856,-3.351 37.656,-4.424 34.38,-4.193 70.47,-7.517 105,-9.671 l 25,-1.56 34.69,0.003 c 19.08,10e-4 36.18,0.247 38,0.547 1.821,0.3 11.86,1.013 22.31,1.585 26.777,1.466 77.779,6.513 106,10.488 5.5,0.775 15.4,2.124 22,2.999 35.069,4.648 85.674,13.717 145.841,26.137 l 17.841,3.683 0.894,-1.412 0.893,-1.412 0.036,-51 c 0.02,-28.05 0.292,-59.1 0.606,-69 l 0.571,-18 -1.341,-1.688 -1.341,-1.688 -105,-0.457 c -57.75,-0.251 -102.898,-0.255 -100.33,-0.01 l 4.671,0.446 1.289,1.554 1.289,1.553 -4.557,4.306 -4.557,4.306 -3.902,1.083 c -5,1.388 -10.84,1.379 -15.9,-0.026 l -3.996,-1.109 -4.38,-4.38 -4.38,-4.38 1.226,-1.477 1.226,-1.478 13.651,-0.308 c 7.507,-0.17 -2.325,-0.408 -21.85,-0.53 -19.525,-0.122 -45.206,-0.515 -57.07,-0.873 l -21.569,-0.652 -5.691,5.154 c -3.13,2.835 -6.46,5.154 -7.399,5.154 h -1.708 l -5.163,-5.099 -5.163,-5.098 -1.93,1.033 c -1.062,0.568 -4.145,2.862 -6.85,5.098 -2.706,2.237 -5.5,4.066 -6.209,4.066 -0.709,0 -2.728,-2.041 -4.486,-4.536 l -3.197,-4.535 -2.033,-0.403 c -1.117,-0.221 -64.582,-0.88 -141.032,-1.465 -76.45,-0.584 -148.225,-1.305 -159.5,-1.602 l -20.5,-0.539 -1.447,0.971 m 400.197,5.14 c -1.237,0.498 -2.25,1.51 -2.25,2.25 0,2.06 4.989,6.37 10,8.638 l 4.5,2.037 4.507,0.022 c 2.478,0.012 6.039,-0.418 7.913,-0.955 4.176,-1.198 10.842,-5.71 12.209,-8.264 l 1.01,-1.887 -1.192,-1.436 -1.192,-1.436 -16.627,0.063 -16.628,0.064 -2.25,0.904 M 457,585.695 c -26.631,2.852 -47.708,12.68 -54.693,25.503 l -1.799,3.302 -0.004,9 -0.004,9 2.641,4 c 7.948,12.038 22.55,19.13 48.44,23.525 l 12.919,2.194 20,-0.502 c 26.324,-0.66 40.867,-3.445 56,-10.721 l 8,-3.847 4.379,-4.236 4.379,-4.235 2.499,-5.457 2.498,-5.457 -0.509,-6.342 -0.509,-6.342 -2.534,-4.29 C 555.094,604.677 550.591,600.731 542,596.151 l -7.5,-3.999 -9.5,-2.516 c -5.225,-1.383 -13.55,-2.991 -18.5,-3.573 l -9,-1.057 -18.5,0.157 c -10.175,0.086 -20.075,0.326 -22,0.532 m -217.537,1.54 c -0.269,0.702 -0.371,17.248 -0.226,36.77 L 239.5,659.5 H 261 282.5 V 623 586.5 l -21.274,-0.27 -21.273,-0.27 -0.49,1.275 M 336.22,587.18 335,588.4 v 7.718 c 0,4.245 -0.273,8.43 -0.607,9.3 l -0.607,1.582 -18.643,0.014 c -10.254,0.007 -19.655,0.285 -20.893,0.616 l -2.25,0.603 v 7.384 c 0,4.06 0.113,7.463 0.25,7.562 0.137,0.098 9.7,0.435 21.25,0.75 l 21,0.571 0.56,17.5 c 0.308,9.625 0.646,17.621 0.75,17.77 0.105,0.148 9.753,0.148 21.44,0 L 378.5,659.5 V 623 586.5 l -20.53,-0.27 -20.531,-0.269 -1.219,1.219 m 248.236,0.075 c -0.265,0.691 -0.364,17.228 -0.219,36.75 l 0.263,35.495 51.935,0.259 51.936,0.259 0.681,-1.102 c 0.917,-1.485 0.279,-12.985 -0.779,-14.043 l -0.842,-0.842 -29.466,-0.266 -29.465,-0.265 -0.272,-19.428 -0.272,-19.428 1.053,-1.053 1.053,-1.053 26.719,-0.263 c 14.696,-0.144 27.282,-0.476 27.969,-0.737 l 1.25,-0.475 v -5.95 c 0,-3.272 -0.273,-6.661 -0.607,-7.531 L 684.786,586 h -49.924 -49.925 l -0.481,1.255 m 125,0 c -0.265,0.691 -0.364,17.228 -0.219,36.75 l 0.263,35.495 20.928,0.271 20.928,0.271 0.807,-1.271 0.806,-1.271 0.016,-34.168 c 0.008,-18.793 -0.258,-34.88 -0.592,-35.75 L 751.786,586 h -20.924 -20.925 l -0.481,1.255 m 96.158,0.307 c -0.337,0.881 -0.614,4.903 -0.614,8.938 0,4.035 -0.273,8.048 -0.607,8.918 L 803.786,607 h -19.311 c -10.621,0 -20.023,0.273 -20.893,0.607 L 762,608.214 v 6.771 6.77 l 1.326,1.101 1.327,1.101 19.923,0.271 19.924,0.272 0.5,17.5 0.5,17.5 H 827 848.5 V 623 586.5 l -21.136,-0.27 -21.135,-0.269 -0.615,1.601 M 467,602.098 c -2.475,0.483 -7.273,2.243 -10.663,3.91 l -6.163,3.032 -2.233,3.73 -2.234,3.73 -0.469,4.633 -0.47,4.634 1.245,3.771 1.244,3.772 4.152,4.152 4.152,4.151 6.133,1.721 6.134,1.721 12.358,0.016 12.357,0.016 6.259,-1.948 c 7.093,-2.208 12.478,-5.91 15.279,-10.505 l 1.912,-3.134 0.003,-5.864 0.004,-5.864 -2.196,-3.908 -2.197,-3.908 -4.563,-2.928 c -2.51,-1.611 -7.241,-3.626 -10.514,-4.478 l -5.95,-1.55 -9.54,0.11 c -5.247,0.06 -11.565,0.505 -14.04,0.988 m 170.423,8.242 c -0.289,0.754 -0.39,4.248 -0.224,7.765 l 0.301,6.395 h 28.5 28.5 v -7.5 -7.5 l -28.275,-0.266 -28.276,-0.265 -0.526,1.371 m -126.645,111.449 -1.721,0.347 -1.023,3.682 c -0.563,2.025 -1.025,5.82 -1.028,8.432 L 507,739 h 1 c 0.55,0 1,-0.434 1,-0.965 0,-1.81 6.301,-8.148 9.952,-10.01 5.063,-2.583 10.136,-3.369 16.561,-2.567 l 5.487,0.686 v 1.028 c 0,0.565 -4.068,7.62 -9.04,15.678 -4.972,8.057 -9.585,15.541 -10.25,16.629 -0.666,1.089 -3.291,5.364 -5.835,9.5 -10.112,16.444 -12.919,21.553 -12.64,23.005 l 0.292,1.516 30.651,0.264 30.65,0.265 1.453,-1.453 1.453,-1.452 0.719,-10.143 c 0.395,-5.578 0.486,-10.375 0.203,-10.659 -0.284,-0.284 -1.496,1.44 -2.694,3.831 -2.805,5.6 -7.424,10.472 -12.462,13.144 l -4,2.122 -11.741,0.396 -11.741,0.395 -0.595,-1.551 -0.596,-1.551 7.929,-12.804 c 4.361,-7.042 12.948,-20.904 19.082,-30.804 6.135,-9.9 11.156,-18.757 11.158,-19.683 l 0.004,-1.682 -1.75,-0.525 c -1.876,-0.563 -47.597,-0.401 -50.472,0.179 m 74.329,1.06 -1.393,0.946 -0.797,4.852 c -1.059,6.442 -1.1,10.353 -0.109,10.353 0.445,0 2.132,-1.783 3.75,-3.962 l 2.942,-3.963 4.685,-2.037 4.686,-2.038 7.814,0.015 c 4.298,0.009 8.364,0.364 9.035,0.791 l 1.219,0.775 -3.419,5.675 c -1.88,3.122 -6.029,9.257 -9.219,13.635 -3.191,4.378 -7.479,10.581 -9.53,13.784 -2.05,3.204 -7.338,10.992 -11.75,17.307 -4.411,6.316 -8.021,12.24 -8.021,13.165 v 1.682 l 7.25,0.549 c 3.987,0.302 14,0.793 22.25,1.091 8.25,0.299 19.113,0.828 24.14,1.177 l 9.14,0.634 1.158,-2.163 c 1.401,-2.619 3.36,-18.826 2.452,-20.295 l -0.646,-1.046 -2.622,4.823 -2.622,4.822 -4.275,3.25 c -2.352,1.787 -5.952,3.714 -8,4.283 -4.124,1.146 -17.23,1.395 -22.1,0.421 L 598,790.75 l 0.019,-1.625 c 0.018,-1.598 2.472,-5.689 8.562,-14.279 C 619.352,756.833 639,727.45 639,726.364 v -1.326 l -2.25,-0.463 c -1.237,-0.255 -9.225,-0.72 -17.75,-1.035 -8.525,-0.314 -19.325,-0.811 -24,-1.103 l -8.5,-0.533 -1.393,0.945 m -122.054,1.097 -1.446,0.915 2.298,1.861 2.298,1.861 0.852,15.458 c 0.468,8.503 0.985,22.494 1.148,31.091 l 0.297,15.633 -2.422,1.966 -2.422,1.966 2.422,0.515 c 1.332,0.284 3.997,0.431 5.922,0.326 1.925,-0.104 6.988,-0.268 11.25,-0.364 L 491,795 v -1 c 0,-0.55 -0.863,-1.863 -1.918,-2.918 l -1.918,-1.918 -0.569,-5.332 c -0.314,-2.932 -0.996,-16.068 -1.517,-29.189 l -0.947,-23.857 0.873,-2.296 c 0.48,-1.263 1.35,-2.591 1.934,-2.952 0.584,-0.361 1.062,-1.079 1.062,-1.597 V 723 l -11.75,0.015 -11.75,0.016 -1.447,0.915 m -53.553,2.715 c -2.2,0.179 -6.812,0.589 -10.25,0.912 l -6.25,0.586 v 1.014 c 0,0.558 0.872,1.242 1.937,1.521 l 1.937,0.506 1.079,3.094 c 0.593,1.702 1.528,9.644 2.078,17.65 0.549,8.006 1.439,19.803 1.977,26.216 1.034,12.329 0.627,17.068 -1.629,18.94 -0.758,0.63 -1.379,1.604 -1.379,2.165 v 1.02 l 11.25,-0.7 c 6.188,-0.384 12.342,-0.967 13.677,-1.295 l 2.427,-0.596 -2.832,-2.258 -2.831,-2.258 -1.398,-12.251 -1.398,-12.251 1.391,-1.39 1.39,-1.391 6.804,-0.964 c 8.608,-1.218 14.078,-3.688 18.52,-8.36 l 3.5,-3.681 v -7.868 -7.868 l -2.106,-2.827 c -1.158,-1.555 -4.472,-4.064 -7.364,-5.577 l -5.258,-2.75 -10.636,0.168 c -5.85,0.093 -12.436,0.314 -14.636,0.493 m 273.572,12.548 c -2.896,5.11 -10.059,17.585 -15.918,27.722 l -10.654,18.431 -5.234,5.502 c -2.878,3.026 -5.009,5.726 -4.735,6 0.274,0.274 2.854,0.834 5.733,1.244 10.823,1.542 15.891,0.759 10.5,-1.621 l -2.236,-0.987 -0.939,-2.699 -0.939,-2.698 1.814,-4.022 c 0.997,-2.212 2.654,-4.783 3.682,-5.713 l 1.868,-1.691 11.548,1.33 11.548,1.33 1.022,1.91 c 0.562,1.051 1.697,4.182 2.522,6.959 l 1.499,5.048 -0.596,2.373 -0.595,2.373 -2.731,0.039 -2.731,0.039 3.176,1.382 c 3.429,1.491 24.826,3.966 26.318,3.044 l 0.907,-0.561 -2.383,-3.512 c -2.861,-4.216 -3.532,-6.048 -12.058,-32.931 -3.663,-11.55 -7.866,-24.596 -9.34,-28.992 l -2.68,-7.992 -1.551,-0.299 -1.552,-0.299 -5.265,9.291 m -266.477,4.041 c 0.393,6.737 1.012,13.375 1.376,14.75 l 0.661,2.5 3.251,0.318 3.252,0.319 3.432,-3.64 3.433,-3.639 v -6.979 -6.978 l -1.494,-2.89 c -0.822,-1.589 -2.497,-3.592 -3.723,-4.45 L 424.555,731 h -4.338 -4.337 l 0.715,12.25 m 258.542,17.659 c -2.1,3.25 -4.406,7.325 -5.122,9.056 l -1.304,3.146 1.086,1.086 c 0.598,0.598 4.375,1.409 8.395,1.803 l 7.308,0.716 0.976,-0.884 0.975,-0.883 -1.674,-6.384 C 683.598,760.257 681.37,755 680.029,755 c -0.59,0 -2.791,2.659 -4.892,5.909 m -160.835,63.194 -5.198,1.998 -5.111,4.595 -5.112,4.596 -3.047,6.038 -3.048,6.038 -0.525,7.66 -0.525,7.66 1.758,5.406 c 2.923,8.989 8.22,14.935 17.393,19.523 l 5.613,2.808 10.5,-0.018 10.5,-0.018 3.838,-1.68 c 5.011,-2.194 11.662,-7.494 11.662,-9.293 0,-2.236 -2.241,-1.666 -6.164,1.568 -4.969,4.095 -7.859,5.016 -15.751,5.016 H 524.3 l -4.183,-3.03 c -7.384,-5.349 -10.296,-13.052 -10.343,-27.367 l -0.024,-7.103 1.738,-5.895 1.738,-5.895 4,-4.339 3.999,-4.339 3.638,-1.011 c 2,-0.555 5.407,-1.012 7.571,-1.015 l 3.935,-0.006 4.37,2.116 4.371,2.116 4.104,5.435 4.104,5.436 0.826,-1.301 c 0.454,-0.716 0.832,-4.313 0.841,-7.993 l 0.015,-6.691 -0.925,-0.572 c -0.509,-0.314 -2.013,-0.076 -3.343,0.53 l -2.417,1.102 -6.763,-2.089 -6.763,-2.089 -7.644,0.052 -7.645,0.052 -5.198,1.999 m -47.802,-0.4 c -4.4,0.165 -8.989,0.528 -10.198,0.805 l -2.199,0.504 2.283,2.283 2.283,2.284 0.662,15.96 c 0.364,8.779 0.664,21.188 0.666,27.576 l 0.003,11.615 -2.015,2.561 -2.014,2.561 5.514,0.689 c 5.043,0.63 15.975,-0.105 17.754,-1.193 0.406,-0.249 -0.029,-1.623 -0.966,-3.055 l -1.706,-2.602 -0.533,-19.596 C 475.74,853.318 475.5,840.752 475.5,836.17 v -8.329 l 1.995,-1.46 1.995,-1.46 -1.495,-0.945 c -0.822,-0.52 -1.945,-0.862 -2.495,-0.759 -0.55,0.102 -4.6,0.321 -9,0.486 m 103.083,0.163 c -0.295,0.477 0.395,1.709 1.532,2.738 l 2.068,1.872 -0.712,27.012 -0.711,27.012 -1.577,2.719 -1.578,2.719 0.779,0.781 c 0.429,0.43 5.062,0.938 10.298,1.131 l 9.518,0.35 0.915,-0.915 0.916,-0.916 -1.495,-2.997 -1.495,-2.996 0.729,-10.938 0.73,-10.938 h 1.486 1.486 l 5.792,7.5 c 3.186,4.125 6.977,9.206 8.425,11.292 l 2.632,3.791 -0.126,3.351 -0.126,3.351 2.215,0.594 c 2.944,0.789 21.114,0.789 23.171,0 l 1.618,-0.621 -5.343,-5.629 C 624.779,877.859 604,850.623 604,849.092 c 0,-0.971 5.856,-5.649 21.754,-17.379 l 8.254,-6.09 -1.254,-0.796 c -0.69,-0.438 -4.49,-0.803 -8.445,-0.812 l -7.191,-0.015 -0.575,0.931 c -0.317,0.512 -0.118,1.213 0.441,1.559 0.559,0.345 1.008,1.839 0.999,3.319 l -0.018,2.691 -2.232,2.051 c -2.878,2.644 -13.829,10.981 -19.995,15.223 l -4.803,3.304 -1.108,-0.685 -1.108,-0.685 0.557,-12.076 0.556,-12.076 0.834,-0.294 c 0.459,-0.162 1.509,-0.737 2.334,-1.278 l 1.5,-0.984 -1.5,-0.985 -1.5,-0.984 -10.691,-0.016 -10.691,-0.015 -0.535,0.866 M 417,826.015 415.5,827 l 1.187,0.77 c 0.654,0.424 1.643,1.969 2.2,3.433 1.16,3.05 1.701,22.037 0.675,23.696 l -0.68,1.101 h -10.334 -10.334 l -0.607,-1.582 C 397.273,853.548 397,847.846 397,841.747 v -11.09 l 1.565,-1.729 1.566,-1.73 -4.011,-0.678 c -3.669,-0.62 -11.631,-0.141 -18.268,1.099 l -2.647,0.495 2.248,2.248 2.248,2.248 0.629,10.445 c 0.346,5.745 0.926,18.215 1.289,27.712 l 0.66,17.268 -1.85,2.043 -1.849,2.044 1.46,0.98 1.46,0.98 8.5,-0.604 c 4.675,-0.333 9.284,-0.831 10.242,-1.106 l 1.742,-0.502 -1.669,-3.185 -1.67,-3.185 -0.455,-11.417 -0.454,-11.416 1.823,-1.334 1.823,-1.333 h 8.687 8.686 l 1.081,1.303 1.081,1.302 0.292,12.144 0.291,12.143 -1.25,1.254 c -0.687,0.69 -1.25,1.904 -1.25,2.698 v 1.443 l 10.414,-0.531 c 5.728,-0.293 10.899,-0.831 11.491,-1.197 l 1.076,-0.665 -1.977,-2.697 -1.978,-2.697 -1.159,-26.808 -1.158,-26.807 2.175,-2.943 2.176,-2.942 -10.78,0.015 -10.78,0.016 -1.5,0.984 m 232,-0.623 c 0,0.373 0.721,1.779 1.602,3.124 l 1.603,2.445 -0.691,19.27 c -0.38,10.598 -1.047,22.999 -1.482,27.557 l -0.791,8.288 -1.831,2.023 -1.83,2.023 1.46,0.924 c 0.803,0.508 2.585,0.94 3.96,0.961 1.375,0.02 11.933,0.478 23.462,1.017 l 20.963,0.98 1.351,-1.352 c 0.744,-0.743 1.862,-4.33 2.486,-7.971 l 1.134,-6.619 -0.721,-0.721 -0.721,-0.72 -1.701,2.439 c -0.935,1.342 -3.062,3.692 -4.727,5.222 l -3.026,2.781 -4.932,1.469 c -5.839,1.738 -10.144,1.86 -14.319,0.405 l -3.05,-1.063 -0.515,-3.187 c -0.283,-1.753 -0.216,-7.687 0.15,-13.187 l 0.666,-10 2.308,-0.327 2.308,-0.327 2.298,1.506 c 1.265,0.828 3.339,3.676 4.61,6.327 l 2.31,4.821 0.76,-3.5 c 1.078,-4.97 1.833,-22.5 1.026,-23.806 l -0.676,-1.094 -2.258,4.255 -2.258,4.256 -2.976,1.758 -2.976,1.758 -1.988,-0.631 L 668,855.865 V 845.498 835.13 l 1.025,-2.695 1.024,-2.695 7.364,0.473 7.363,0.472 3.362,1.924 3.362,1.925 2,4.197 c 1.1,2.308 2.527,4.213 3.17,4.233 l 1.171,0.036 0.697,-6.506 0.696,-6.507 -1.116,-1.345 -1.117,-1.345 -15.25,-0.671 c -8.388,-0.369 -19.188,-0.95 -24.001,-1.292 -4.812,-0.341 -8.75,-0.316 -8.75,0.058 m -319.617,3.504 c -1.715,0.439 -5.315,1.859 -8,3.158 l -4.883,2.36 -4.812,4.807 -4.812,4.807 -2.688,5.736 -2.688,5.736 0.045,9 0.044,9 2.136,4.67 c 4.575,10.005 13.223,16.792 24.066,18.89 l 6.291,1.216 5.719,-0.597 c 3.145,-0.329 7.631,-1.273 9.97,-2.098 7.242,-2.555 16.135,-11.285 13.288,-13.044 -0.414,-0.256 -2.059,0.909 -3.656,2.59 -1.597,1.681 -4.703,4.017 -6.903,5.191 l -4,2.136 -7.677,0.023 -7.676,0.023 -2.824,-2.094 c -4.292,-3.184 -8.223,-9.347 -9.842,-15.431 l -1.457,-5.475 -0.012,-8.307 c -0.007,-4.569 0.485,-10.28 1.092,-12.692 l 1.104,-4.384 3.496,-4.085 c 1.923,-2.246 4.914,-4.82 6.646,-5.72 l 3.15,-1.635 h 5.5 5.5 l 3.06,1.589 c 3.867,2.008 11.44,9.522 11.44,11.352 0,2.634 2.001,1.369 2.164,-1.368 0.247,-4.132 -0.224,-12.507 -0.82,-14.573 l -0.525,-1.823 -1.738,1.573 c -1.982,1.794 -5.128,1.994 -9.887,0.629 -4.896,-1.404 -16.253,-2.069 -19.811,-1.16 M 721,829.402 c 0,0.373 0.992,2.02 2.204,3.66 l 2.204,2.981 -0.171,7.228 c -0.094,3.976 -0.839,15.429 -1.654,25.452 l -1.483,18.222 -1.073,2.005 c -0.59,1.102 -1.963,2.48 -3.05,3.062 -1.087,0.582 -1.977,1.493 -1.977,2.023 V 895 h 7.155 7.155 l -1.585,-1.752 c -0.872,-0.963 -2.055,-2.986 -2.629,-4.495 l -1.043,-2.744 1.547,-18.254 c 0.851,-10.04 1.756,-19.299 2.01,-20.576 l 0.464,-2.321 1.139,0.38 c 1.229,0.409 4.373,4.794 22.868,31.891 11.462,16.794 16.3,22.823 17.416,21.707 0.905,-0.905 2.404,-15.95 3.472,-34.836 0.575,-10.175 1.509,-20.174 2.077,-22.221 l 1.032,-3.72 2.069,-1.45 2.07,-1.449 -0.668,-1.08 -0.667,-1.08 h -6.53 -6.53 l 2.589,3.077 2.589,3.076 -0.063,6.174 c -0.035,3.395 -0.42,9.911 -0.857,14.48 l -0.793,8.306 -1.14,1.14 -1.14,1.14 -1.476,-1.947 c -0.812,-1.07 -6.742,-9.718 -13.178,-19.218 -6.435,-9.499 -12.299,-17.768 -13.031,-18.376 l -1.33,-1.104 -8.996,-0.512 C 725.048,828.953 721,829.028 721,829.402"
       stroke="none"
       fill="#e3190c"
       fill-rule="evenodd"
       id="path2" /></g></svg>
