<svg xmlns="http://www.w3.org/2000/svg" width="24" height="24"><path fill="#0ca60c" fill-rule="evenodd" d="m4.24 6.1-.83.2-.41.1v1.73c0 1.94.08 2.25.74 2.9.46.47 1.3.9 1.76.9.46.02 1.41-.45 1.87-.9.65-.65.73-.96.73-2.9V6.4l-.38-.1a8.5 8.5 0 0 0-3.48-.2M9.4 7.32V8.6h.25c.23 0 .24-.03.27-.66l.03-.65.78.71.77.72V6.2h-.25c-.24 0-.25.02-.25.65 0 .36-.03.65-.07.65s-.4-.33-.8-.72l-.73-.73zm4.47-1.05a.6.6 0 0 0-.17.35q0 .16-.1.17c-.05 0-.1.11-.1.25s.04.25.1.25.1.28.1.65c0 .63 0 .65.25.65.24 0 .25-.02.25-.67 0-.66 0-.68.25-.68.24 0 .25.02.25.66 0 .73.03.8.3.72.17-.05.2-.14.2-.68 0-.58.02-.64.23-.67a.3.3 0 0 0 .25-.25c.03-.19-.01-.23-.22-.23-.14 0-.26-.04-.26-.1q.02-.09.25-.1.26.01.25-.2c0-.45-.7-.37-.9.1q-.13.3-.36.3c-.13 0-.24-.04-.24-.1q.01-.09.18-.1c.25 0 .3-.07.25-.3-.07-.26-.54-.27-.76-.02m4.8-.1c-.15.03-.17.17-.17 1.22 0 1.08.02 1.18.2 1.23.1.03.21.02.24 0 .09-.1.07-2.41-.02-2.46q-.08-.03-.25 0m2.05 0c-.17.03-.22.11-.22.36 0 .32 0 .32-.42.29-.6-.05-.93.3-.93.95 0 .37.05.5.28.69q.43.39.87.14.18-.09.24-.01c.03.05.15.07.26.04.19-.05.2-.14.2-1.3 0-.67-.01-1.22-.02-1.22zm-15.65 1-.03.98-.92.03-.93.03v1l.92-.02.93-.02.03 1.26c.03 1.26.03 1.27.28 1.33.14.04.36.02.5-.05.24-.1.24-.13.24-1.33V9.15l.9.03.9.03V8.2H6.1v-2h-1zm6.62.35c0 1.05.1 1.15 1.23 1.09l.37-.02v-.9c0-.89 0-.91-.22-.88-.2.03-.23.1-.25.58l-.02.68c0 .07-.14.12-.31.12h-.3v-.7c0-.68 0-.7-.25-.7-.24 0-.25.02-.25.73m4.1.17c0 .9 0 .9.25.9s.25 0 .25-.9 0-.9-.25-.9-.25 0-.25.9m1-.6c-.79.77.05 1.86 1.14 1.5.38-.12.41-.17.27-.39-.07-.1-.15-.11-.4-.03a1 1 0 0 1-.53.03c-.2-.07-.14-.11.4-.36.68-.3.77-.48.39-.83-.35-.33-.9-.3-1.28.07m.31.26c-.21.25-.06.34.32.18.21-.08.35-.2.32-.24-.08-.14-.5-.1-.64.06m2.66 0a.48.48 0 0 0 .4.83c.25-.03.3-.08.32-.36.05-.55-.37-.82-.72-.46M9.4 10.35v1.25h.25c.23 0 .25-.03.25-.5v-.5h1v.5c0 .47.02.5.25.5h.25v-1.26c0-1.24 0-1.25-.22-1.22-.2.03-.23.1-.26.5l-.03.48H9.9v-.5c0-.47-.02-.5-.25-.5H9.4zm6.13-1.18c-.1.03-.13.38-.13 1.24v1.19h.5v-1.25c0-1.27-.02-1.33-.37-1.18m1.9.01c-.1.06-.13.4-.12 1.25.01 1.16.01 1.17.25 1.17s.24-.03.24-.65c0-.6.02-.65.24-.7.39-.1.46.01.46.7 0 .63 0 .65.25.65.24 0 .25-.02.25-.69 0-.9-.19-1.16-.79-1.14-.4.02-.41.01-.41-.33q0-.5-.38-.26m-1.22.32c0 .11-.06.3-.12.41q-.15.23 0 .26.11.06.12.53-.02.99.83.91c.26-.02.22-.39-.05-.43-.2-.03-.23-.1-.26-.5-.03-.46-.02-.48.22-.48q.28.01.26-.2.01-.21-.25-.2c-.2 0-.25-.05-.25-.25s-.05-.25-.25-.25q-.26-.01-.25.2m-3.86.27c-.32.06-.64.45-.7.85-.05.27 0 .4.2.65.14.17.37.34.51.37.32.08 1.05-.1 1.05-.27 0-.23-.15-.36-.3-.27-.18.12-.8.13-.8.03 0-.05.28-.2.6-.35l.6-.27-.15-.31c-.14-.27-.53-.53-.73-.49zm1.66.02q-.23.08-.28.26c-.02.17.03.2.44.2.26 0 .49.05.5.1q.03.11-.35.07c-.45-.05-.81.23-.81.61 0 .3.31.6.62.58h.66l.42-.01v-.69c0-.51-.04-.74-.17-.9-.2-.22-.66-.33-1.03-.22m-1.8.62c-.16.28-.11.3.33.12.45-.18.48-.33.07-.33q-.3 0-.4.2m1.87.46c-.19.19-.06.35.26.32.39-.04.45-.32.07-.36-.14-.02-.29 0-.33.04"/></svg>