<svg xmlns="http://www.w3.org/2000/svg" width="24" height="24"><path fill="#1d0d47" fill-rule="evenodd" d="m14.23 8.27.57.58.57-.58.58-.57h-2.3zM5.8 9.1v1.21h.7q1.02.01 1.22-.34c.13-.2.09-.63-.07-.76q-.17-.13-.05-.24c.17-.17.11-.62-.1-.81-.14-.13-.42-.2-.95-.23l-.75-.05zm2.3 0v1.21h.4c.4 0 .4 0 .4-.37v-.38l.2.38c.2.35.23.37.7.37h.51l-.3-.45-.32-.44.2-.2c.27-.27.26-.64-.02-.97-.2-.24-.32-.27-1-.32l-.77-.05zm2.77-.17-.42 1.2c-.06.16 0 .18.38.18q.45 0 .5-.15c.08-.2.57-.2.71 0q.1.17.53.13l.41-.03-.41-1.15-.42-1.15-.46-.03-.46-.03zM17.45 8c-.03.06-.24.6-.45 1.2l-.4 1.1h.45q.46 0 .51-.15c.04-.09.19-.15.35-.15.17 0 .32.06.35.15.08.2.99.22.92.03l-.43-1.2-.38-1.08h-.43c-.23 0-.46.05-.49.1m1.82-.03c-.04.03-.07.21-.07.4 0 .29.03.33.25.33.25 0 .25.01.25.8v.8h.8v-.8c0-.79 0-.8.25-.8.23 0 .25-.04.25-.4v-.4h-.83c-.46 0-.87.03-.9.07m-15.87.3c-.6.54-.48 1.53.24 1.87q.62.3 1.14.02c.63-.33.87-.97.58-1.54-.34-.66-1.4-.85-1.96-.34m10.06.69-.22 1.15c-.05.15.02.18.4.18.45 0 .46 0 .46-.33 0-.47.1-.51.42-.2l.28.27.29-.28c.24-.23.3-.25.35-.1.03.08.06.27.06.4 0 .21.04.24.41.24h.42l-.06-.47c-.03-.27-.1-.79-.17-1.16l-.12-.69-.6.58-.58.58-.59-.58-.58-.58zm-9.5-.11c-.09.08-.16.22-.16.29 0 .13.26.45.36.45.2 0 .44-.24.44-.43 0-.43-.35-.6-.64-.31"/></svg>