<?xml version="1.0" encoding="UTF-8" standalone="no"?>
<svg
   viewBox="0 0 24 24"
   width="24pt"
   height="24pt"
   version="1.1"
   id="svg1"
   sodipodi:docname="odeon.svg"
   xml:space="preserve"
   inkscape:version="1.3 (0e150ed6c4, 2023-07-21)"
   xmlns:inkscape="http://www.inkscape.org/namespaces/inkscape"
   xmlns:sodipodi="http://sodipodi.sourceforge.net/DTD/sodipodi-0.dtd"
   xmlns="http://www.w3.org/2000/svg"
   xmlns:svg="http://www.w3.org/2000/svg"><defs
     id="defs1" /><sodipodi:namedview
     id="namedview1"
     pagecolor="#ffffff"
     bordercolor="#000000"
     borderopacity="0.25"
     inkscape:showpageshadow="2"
     inkscape:pageopacity="0.0"
     inkscape:pagecheckerboard="0"
     inkscape:deskcolor="#d1d1d1"
     inkscape:document-units="pt"
     inkscape:zoom="8.1648736"
     inkscape:cx="-7.7159798"
     inkscape:cy="4.715321"
     inkscape:window-width="1920"
     inkscape:window-height="974"
     inkscape:window-x="-11"
     inkscape:window-y="1609"
     inkscape:window-maximized="1"
     inkscape:current-layer="svg1" /><g
     transform="matrix(0.00368585,0,0,-0.00368585,3.9896813,12.612831)"
     fill="#000000"
     stroke="none"
     id="g5"
     style="fill:#ffffff"><path
       d="M 97,1085 0,990 V 587 185 L 93,92 185,0 h 151 150 l 92,94 92,93 v 399 399 l -98,98 -97,97 H 335 195 Z M 450,590 V 200 H 335 220 v 390 390 h 115 115 z"
       id="path1-4"
       style="fill:#ffffff" /><path
       d="M 950,590 V 0 h 238 237 l 93,93 92,92 v 405 405 l -93,93 -92,92 H 1187 950 Z m 440,0 V 200 h -110 -110 v 390 390 h 110 110 z"
       id="path2"
       style="fill:#ffffff" /><path
       d="M 1890,590 V 0 h 275 275 v 100 100 h -165 -165 v 155 155 h 140 141 l -3,98 -3,97 -137,3 -138,3 v 134 135 h 165 165 v 100 100 h -275 -275 z"
       id="path3"
       style="fill:#ffffff" /><path
       d="m 2745,1089 -95,-92 V 591 185 l 93,-93 92,-92 h 151 150 l 92,94 92,93 v 399 399 l -98,98 -97,97 H 2982 2839 Z M 3090,590 V 200 h -110 -110 v 390 390 h 110 110 z"
       id="path4"
       style="fill:#ffffff" /><path
       d="M 3590,590 V 0 h 103 102 l -3,352 -2,353 45,-120 c 25,-66 82,-223 128,-350 l 82,-230 113,-3 112,-3 v 591 590 h -100 -101 l 3,-350 c 2,-193 1,-350 -2,-350 -3,0 -36,87 -74,193 -37,105 -94,263 -125,350 l -56,157 h -112 -113 z"
       id="path5"
       style="fill:#ffffff" /></g></svg>
