<svg xmlns="http://www.w3.org/2000/svg" width="24" height="24"><path fill="#7f8182" fill-rule="evenodd" d="M3.8 5.63c-.5.33-.72.7-.77 1.24-.1 1.2 1.19 2.01 2.33 1.47 1.08-.51 1.1-2.2.04-2.74-.53-.27-1.18-.26-1.6.03m3.84-.1c-.02.07-.03.75-.02 1.51l.03 1.38h.75c.69 0 .75-.02.78-.2.03-.2-.01-.22-.52-.22H8.1V6.7c0-1.24 0-1.3-.2-1.3-.11 0-.23.06-.26.13m2.8 0c-.02.07-.03.75-.02 1.52.03 1.35.03 1.38.26 1.4.22.02.22.01.22-1.52 0-1.47 0-1.53-.2-1.53-.11 0-.23.06-.26.13m1.66-.05c0 .12 1.24 3.02 1.3 3.02.05 0 1.3-2.9 1.3-3.02s-.37-.09-.47.04c-.05.07-.25.5-.44.95-.19.46-.36.83-.4.83-.03 0-.2-.37-.38-.82a8 8 0 0 0-.44-.95c-.1-.14-.47-.18-.47-.05m3.8 1.45v1.52h.8c.76 0 .8-.01.8-.22S17.45 8 16.95 8h-.55v-.9h.55c.52 0 .55-.01.55-.25s-.03-.25-.55-.25h-.55v-.7h.55c.52 0 .55-.01.55-.25 0-.25-.01-.25-.8-.25h-.8zm3.05-1.41c-.03.08-.04.77-.03 1.53.03 1.32.04 1.4.23 1.4.17 0 .2-.08.25-.65l.05-.65.5.67c.4.55.55.67.78.68.32 0 .32 0-.29-.8l-.42-.56.28-.16c.44-.25.48-1.02.06-1.37-.24-.2-1.34-.27-1.41-.1m-14.6.36c-.32.08-.74.54-.8.89-.1.46.18.98.62 1.2.3.14.42.14.75.05.96-.3 1.04-1.62.12-2.06-.33-.16-.36-.16-.69-.08m15.05.43c0 .4 0 .41.33.38.3-.03.32-.06.32-.38s-.03-.35-.32-.38c-.32-.03-.33-.03-.33.38M7.54 9.4c-.46.14-.9.6-1.04 1.07-.42 1.4 1.07 2.53 2.35 1.78q.75-.43.75-1.38c0-1-1.07-1.76-2.06-1.46M11 10.83v1.57h.5v-2l.28.28c.15.16.64.64 1.1 1.07l.82.78V9.4h-.5v2.05l-1.1-1.1-1.1-1.1zm4.97-.96-.72 1.57-.44.96h.28c.23 0 .3-.07.44-.4.15-.4.15-.4.71-.4s.56 0 .76.4c.15.3.26.4.45.4.22 0 .23-.02.14-.28-.06-.15-.38-.85-.72-1.56l-.63-1.3zm3.23-.39a.8.8 0 0 0-.44.5c-.12.43.09.73.74 1.09q.8.44.5.8c-.16.19-.6.18-.81-.02-.1-.1-.25-.14-.34-.1-.45.17.15.76.77.76.3 0 .46-.07.69-.3.54-.53.34-1.12-.52-1.56-.44-.22-.5-.28-.47-.52.03-.3.38-.42.63-.22.14.12.55.05.55-.1 0-.14-.35-.38-.65-.44a1 1 0 0 0-.65.11M3.3 10.9v1.5h.69c.88 0 1.21-.22 1.21-.8q0-.4-.2-.6c-.19-.19-.2-.22-.05-.36.23-.23.19-.71-.1-1-.2-.2-.33-.24-.9-.24H3.3zm.5-.65c0 .39.03.45.2.45.35 0 .6-.19.6-.45S4.35 9.8 4 9.8c-.17 0-.2.06-.2.45m3.69-.3c-.15.08-.34.3-.44.51-.35.74.17 1.54 1 1.54.37 0 .48-.05.74-.35.48-.56.4-1.28-.21-1.65q-.56-.35-1.1-.05m8.62.72-.18.46c-.02.04.13.07.33.07.33 0 .36-.02.3-.22l-.2-.46c-.1-.22-.11-.22-.25.15m-12.3.88c0 .44 0 .45.33.45q.57 0 .57-.45t-.57-.45c-.32 0-.33 0-.33.45"/></svg>