<svg xmlns="http://www.w3.org/2000/svg" width="24" height="24"><path fill="#2c555c" fill-rule="evenodd" d="M18.28 4.8q-.46.34-.36.42.12.05.18.03c.03-.02.03.56 0 1.28-.04 1-.1 1.4-.23 1.65-.1.17-.2.32-.23.32-.04 0-.05-.8-.03-1.77.02-.98 0-1.8-.03-1.8-.1-.04-.87.5-.88.6q.01.07.16.07c.15 0 .16.13.12 1.18-.05 1.09-.07 1.21-.36 1.72l-.32.55v-.91c0-.7-.04-.95-.15-1.04-.24-.2-.6.02-.75.45-.14.42-.05.59.17.3.13-.18.14-.13.08.57-.1.98-.02 1.28.29 1.28.27 0 .46-.2.73-.74l.2-.39.11.31c.06.18.17.32.24.32.18 0 .48-.25.69-.56.17-.26.17-.26.28-.05.07.11.18.21.26.21.16 0 .85-.78.85-.97 0-.2-.17-.16-.34.09-.14.2-.16.06-.18-1.63l-.03-1.84zm.82.07c0 .3.24.84.35.8.05-.01.1-.23.1-.47 0-.38-.03-.44-.22-.47q-.23-.04-.23.14m.93.76c-.12.06-.3.26-.38.44-.14.31-.15.37 0 .67.08.18.31.48.5.66.43.4.34.61-.13.37-.39-.2-.48-.2-.56 0-.12.3.12.54.54.54.51 0 .89-.32.97-.83.05-.36.03-.4-.48-.87q-.85-.8-.06-.52c.26.1.34.1.46-.03.13-.13.12-.17-.04-.35q-.3-.33-.82-.08m-4.47.44c-.29.28-.12.64.3.64.33 0 .5-.25.36-.55-.13-.29-.43-.33-.66-.1m-2.2.16c-.5.4-.86 1.44-.86 2.5 0 .45-.02.48-.18.38-.1-.06-.41-.43-.7-.83-.72-.99-.7-.96-1.02-.96-.45 0-1.33.37-1.64.68-.34.37-.44.93-.22 1.27.2.3.6.33.76.05.1-.2.08-.25-.35-.55-.18-.13-.19-.15-.04-.3.2-.2 1.02-.45 1.19-.35.08.05.12.38.12 1.08 0 .84-.04 1.09-.22 1.48-.54 1.1-1.8 1.14-1.8.04 0-.37.14-.6.37-.6q.14-.02.07.43c-.05.32-.02.46.1.56.14.12.2.11.36-.04.3-.27.26-.71-.1-1.06q-.54-.54-1.05-.05c-.86.86.08 2.42 1.28 2.12.85-.21 1.46-1.16 1.54-2.42l.05-.79.81.8c1.06 1.04 2.52 2.13 2.96 2.21.7.14 1.2-.3 1.28-1.13.04-.4.01-.51-.15-.66-.3-.27-.66-.19-.7.15-.03.22.02.3.22.4q.45.2.1.52c-.36.37-.97.13-1.7-.67a2.4 2.4 0 0 1-.74-1.85c0-.58.31-1.5.59-1.76.16-.15.2-.15.3-.01q.28.32.55-.07c.2-.29.2-.34-.04-.58-.26-.26-.8-.26-1.14.01m.71 1.52c-.53.53-.72 1.48-.42 2.07.36.7 1.37.44 1.68-.42.11-.31-.12-.3-.41.03q-.3.33-.45.26c-.3-.11-.18-.46.28-.9q.76-.74.27-1.2-.4-.39-.95.16m.26.3c-.16.19-.24.65-.14.72.13.08.41-.35.41-.62 0-.25-.12-.3-.27-.1m-9.42.65c-.52.26-.72.6-.74 1.23-.01.9.52 1.57 1.04 1.29.3-.17.25-.6-.1-.73C4.38 10.2 4.47 9 5.2 9c.29 0 .67.56.8 1.17.26 1.28-.08 2.58-.76 2.9-.31.15-.36.15-.6-.01-.55-.36-1-2.08-.78-3.02.2-.85-.32-.6-.67.33-.35.95-.22 2.02.33 2.61.35.38.72.52 1.35.52.5 0 .66-.05 1-.3.78-.56 1.12-1.27 1.13-2.38.02-1.19-.42-2-1.2-2.22-.47-.13-.5-.13-.9.08m2.22-.01c-.04.09.01.3.1.45.1.17.17.36.17.45q.02.13.12.1c.17-.05.28-.65.17-.94-.1-.27-.46-.31-.56-.06"/></svg>