<svg xmlns="http://www.w3.org/2000/svg" width="24" height="24"><path fill="#00489a" fill-rule="evenodd" d="M3.3 8.1a.95.95 0 0 0 .25 1.55c.41.19.58.19.95 0s.5-.43.5-.9c0-.86-1.09-1.28-1.7-.66m7.94-.16a5 5 0 0 0-.02.98c.03.7.06.84.2.87.16.03.18-.07.18-.97 0-.84-.03-1.01-.15-1.01a.2.2 0 0 0-.2.13m.7 0c-.04.08-.05.52-.03.98l.03.84h.65c.54 0 .65-.03.68-.17s-.04-.18-.48-.18c-.48 0-.51-.02-.48-.22.02-.2.1-.24.46-.26.58-.04.58-.3 0-.34q-.44-.03-.46-.2c-.03-.14.06-.17.45-.2.36-.02.49-.07.51-.2.03-.16-.05-.18-.63-.18q-.66 0-.7.13m-5.05.32q0 .23-.1.25-.09.02-.1.15.01.13.1.15c.06 0 .1.17.1.38q0 .62.41.62c.26 0 .35-.21.16-.35s-.23-.65-.07-.65q.09-.02.1-.15 0-.13-.1-.15-.09-.02-.1-.25.01-.26-.2-.25-.21-.01-.2.25M3.73 8.2c-.51.2-.35 1.12.2 1.18.59.07.9-.65.47-1.08-.22-.22-.33-.23-.67-.1m2.09.29a1 1 0 0 1-.38.03c-.24-.04-.24-.04-.24.82 0 .8.02.86.2.86q.21.01.2-.25c0-.22.03-.24.29-.19.63.13.97-.74.45-1.15-.3-.23-.33-.24-.52-.12m2.98.04c-.3.15-.49.61-.34.85.06.1.23.24.37.32.24.13.3.13.54 0 .44-.25.4-.41-.09-.38-.4.03-.43.01-.43-.22s.03-.25.43-.22q.64.03.3-.26a.7.7 0 0 0-.78-.1m1.33-.02c-.33.13-.2.37.17.32q.29-.04.3.07c0 .06-.13.11-.29.11-.34 0-.55.22-.46.49.07.23.27.3.75.28.35-.03.35-.03.38-.54.03-.44 0-.53-.2-.67-.25-.18-.33-.19-.65-.06m5.29-.01a1 1 0 0 1-.38.03c-.24-.04-.24-.04-.24.82 0 .8.02.86.2.86q.21.01.2-.25c0-.22.03-.25.25-.2a.6.6 0 0 0 .75-.58c0-.51-.44-.9-.78-.68m1.6 0a1 1 0 0 1-.38.03c-.25-.04-.25-.04-.22.6.02.48.07.63.18.63q.15 0 .18-.42c.02-.31.08-.44.23-.48q.17-.08.19-.26c0-.22 0-.22-.18-.1m.54.12a.6.6 0 0 0-.26.49q0 .29.26.5c.32.24.52.25.83.03.23-.16.23-.17.05-.24-.1-.03-.24-.03-.3.02-.13.1-.44.02-.44-.12 0-.05.2-.09.45-.09.36 0 .45-.03.45-.17 0-.24-.1-.38-.37-.51-.3-.16-.36-.15-.67.09m1.46-.05q-.46.31.08.62c.36.2.4.35.06.26-.33-.08-.43.13-.12.28.36.16.76-.03.76-.36q.02-.24-.3-.36c-.36-.15-.4-.33-.06-.24.34.08.43-.14.11-.26s-.26-.13-.53.06m1.2-.06c-.35.14-.3.58.08.72.17.05.3.14.3.19s-.13.06-.3.03c-.41-.09-.42.22 0 .3.65.15.96-.4.4-.72-.36-.2-.4-.35-.06-.26s.43-.14.11-.26l-.28-.1zM7.6 8.58q0 .07.1.18c.05.05.1.3.12.54q.02.46.18.45c.11 0 .16-.15.18-.62l.03-.63h-.3c-.17 0-.31.04-.31.08m5.86.04.22.3c.12.15.12.2-.07.47a1 1 0 0 0-.21.35c0 .14.3.04.49-.15l.2-.2.1.2q.13.2.31.21c.25 0 .25-.05 0-.41l-.21-.29.21-.3.21-.3h-.24c-.14 0-.28.07-.31.16-.06.16-.08.16-.24 0-.22-.2-.57-.22-.46-.04m-7.82.32c-.1.26.04.48.28.44q.24-.02.23-.28.01-.26-.23-.28-.2-.02-.28.12m9.6 0c-.1.26.04.46.31.46.23 0 .26-.04.23-.28-.03-.31-.44-.45-.54-.18"/></svg>