<svg xmlns="http://www.w3.org/2000/svg" width="24" height="24"><path fill="#ff7f23" fill-rule="evenodd" d="M10.7 2.1c-.7.12-1.9.62-2.55 1.06A7.3 7.3 0 0 0 5.49 6.4l-.24.6h-.43C3.99 7 4 6.98 4 8.94s-.06 1.8.98 2.45c.41.26.6.48.89 1a8.5 8.5 0 0 0 2.93 2.83 7 7 0 0 0 5.35.44 7.2 7.2 0 0 0 4.03-3.41q.2-.4.99-.95l.78-.56.03-1.71C20 7.04 19.99 7 19.2 7h-.48l-.18-.47a7 7 0 0 0-4.2-4.11 5 5 0 0 0-2.05-.38c-.63-.01-1.35 0-1.6.05m.25.47c-.9.22-1.19.31-1.8.6A6.5 6.5 0 0 0 5.9 6.75c-.09.24-.07.26.2.26.25 0 .33-.07.53-.48a6 6 0 0 1 3.26-3.06c.42-.16.44-.16.3 0-.08.1-.5.41-.94.7a6 6 0 0 0-2.35 2.6c-.22.57.34.13 2.28-1.78 1.1-1.08 2.1-2 2.2-2.03.12-.03.35.01.52.1.23.12.35.13.5.05q.2-.12.43.01c.12.07 1.06.96 2.1 1.98 1.83 1.82 2.42 2.27 2.15 1.64a6 6 0 0 0-2.29-2.55 4 4 0 0 1-1.09-.82c0-.1.84.27 1.47.66a6 6 0 0 1 2.06 2.26c.34.64.41.72.67.72.28 0 .29-.01.2-.27a6.7 6.7 0 0 0-4.26-3.99c-.48-.15-2.49-.28-2.89-.18m-.23 3.16A10 10 0 0 0 9.55 7c.03.02.3-.19.58-.47l.53-.52.29.3c.28.3.28.3.1.52l-.2.23.23-.19c.22-.19.22-.19.45 0l.22.19-.2-.23-.19-.23.32-.31.32-.32.3.29.3.29-.22.23c-.25.26-.14.31.14.06.17-.15.2-.15.4.03l.23.19-.2-.23c-.18-.22-.18-.22.06-.49l.24-.27-.31.22-.31.21-.28-.3-.29-.29.25-.27.24-.28-.28.25-.28.24-.32-.32-.32-.32.32-.32.32-.32 1.17 1.22A10 10 0 0 0 14.43 7c.07 0-.44-.56-1.13-1.25A23 23 0 0 0 12 4.5c-.03 0-.6.55-1.28 1.22m.24-.1-.28.3.3.31.32.32.32-.32.32-.33-.29-.3a1 1 0 0 0-.35-.3c-.04 0-.2.14-.34.31M4.5 9v1.5h15v-3h-15zm.89-.81c-.33.33-.39.45-.39.8s.06.5.33.76c.43.43.8.52 1.31.34.46-.16.86-.67.86-1.08 0-.63-.65-1.21-1.36-1.21-.29 0-.44.08-.75.39m2.22-.25c-.1.11-.1.19 0 .35.18.28.34.21.34-.14 0-.32-.16-.42-.34-.21m.69.16c0 .27.03.3.3.3h.3v1.8h.6V8.4h.3c.27 0 .3-.03.3-.3v-.3H8.3zm2.21.8c-.28.61-.51 1.15-.51 1.2 0 .13.47.13.55 0 .03-.05.26-.1.5-.1s.47.05.5.1c.07.12.65.14.65.03 0-.14-1.04-2.33-1.1-2.33-.04 0-.3.5-.59 1.1m2.22-.9c-.41.26-.53.5-.53 1.04 0 1.05 1.34 1.55 2.05.77.16-.17.15-.2-.1-.36-.24-.16-.27-.16-.45 0-.44.41-1.05-.15-.78-.72q.24-.47.73-.22c.17.1.28.1.44 0 .26-.13.26-.22.01-.45-.3-.27-.99-.3-1.37-.06m2.17.19c-.33.33-.4.46-.4.8 0 .72.72 1.31 1.44 1.18.74-.14 1.23-.92.97-1.54q-.29-.73-1.1-.8c-.49-.04-.53-.03-.9.36M17.45 8c-.48.38-.28.95.46 1.27.16.06.28.16.28.22 0 .13-.26.13-.5 0-.22-.12-.6.06-.6.26 0 .16.62.44.98.44.44 0 .82-.34.82-.74 0-.37-.2-.6-.68-.77-.4-.14-.43-.34-.03-.26q.29.06.46-.12c.15-.18.15-.2-.07-.35a1 1 0 0 0-1.12.05m-11.6.55c-.34.34-.06 1.04.41 1.04.21 0 .53-.38.53-.63 0-.48-.61-.74-.94-.41m9.5 0c-.43.42.05 1.2.6.96.31-.15.4-.55.2-.87a.5.5 0 0 0-.8-.1M5.9 11.28a7.2 7.2 0 0 0 3.05 3.46c1.9.98 3.94 1 5.94.05a6.8 6.8 0 0 0 3.2-3.5c.1-.27.08-.28-.23-.27-.3 0-.34.05-.66.72a6 6 0 0 1-3.82 3.02 7 7 0 0 1-2.6.05 6.2 6.2 0 0 1-3.97-2.99c-.4-.73-.46-.81-.72-.81-.28 0-.29.01-.2.27m1-.02a6 6 0 0 0 2.64 2.73q2.42 1.18 4.92-.03a4 4 0 0 0 1.52-1.1c.34-.36.76-.93.92-1.25l.3-.6h-2l-.46.5a3.7 3.7 0 0 1-3.86 1.06 4 4 0 0 1-1.83-1.25l-.2-.3L7.83 11H6.8zm2.5-.05c.28.52 1.72 1.2 2.54 1.2.9 0 2.2-.59 2.63-1.2.14-.2.14-.2-2.57-.2-2.66 0-2.7 0-2.6.2m-1.4.26c-.12.14-.11.19.07.34q.2.17.18.22c-.1.1 1.17 1.2 1.32 1.14q.12-.04.13.04c0 .1.8.5 1 .5q.11-.01.06-.16a1 1 0 0 1-.06-.3c0-.2-.18-.17-.23.04q-.05.2-.06-.05c-.01-.28-.08-.29-.34-.05-.2.16-.2.16-.08-.05q.21-.4 0-.3c-.06.01-.25-.1-.41-.25-.17-.15-.37-.28-.46-.28q-.13 0-.09-.07c.04-.03-.06-.18-.21-.33a2 2 0 0 1-.35-.44c-.08-.2-.3-.2-.48 0m7.51.01c0 .05-.18.27-.4.49s-.38.45-.35.53q.06.13-.1.07-.15-.07-.16.22-.01.34-.06.05-.06-.38-.3-.12c-.09.09-.07.17.07.32.19.2.2.2.47.02.7-.45 1.58-1.55 1.24-1.55l-.25-.06q-.15-.04-.16.03m-1.8 1.6q0 .2-.08.05c-.07-.1-.15-.1-.38 0-.16.06-.33.1-.38.1q-.09-.03-.15.06c-.03.05-.4.05-.81.01l-.77-.05-.09.3c-.06.25-.05.28.1.23.1-.04.23-.04.3 0 .17.12 1.16.12 1.16.01 0-.05.1-.06.21-.03q.2.05.16-.01c-.03-.05.11-.1.3-.1.2 0 .39-.06.4-.12q.05-.1.2-.05c.13.05.15.02.1-.18l-.07-.31c0-.17-.2-.07-.2.1"/></svg>