<svg xmlns="http://www.w3.org/2000/svg" width="24" height="24"><path fill="#f7faf5" fill-rule="evenodd" d="M5 7.98c0 5.18.03 5.93.15 5.65.26-.6 1.18-.82 1.82-.43.43.26.56.74.52 1.88l-.04.92h.35c.33 0 .38-.04.63-.55l.27-.55-.45-.9c-.25-.5-.45-.92-.45-.95 0-.04.17-.05.38-.03.34.03.39.07.61.56.14.28.28.52.3.52.04 0 .19-.25.34-.55.25-.51.3-.55.62-.55.2 0 .35.05.35.1s-.2.48-.45.93l-.45.84.3.56c.31.56.32.57.76.57H11v-3l.98.02.97.03.03.32.03.32-.68.03-.68.03v.8l.58.03c.56.03.57.04.57.32s-.01.3-.57.32l-.58.03-.03.38-.03.37h1.49l.1-.32c.06-.18.2-.71.32-1.18.38-1.56.36-1.51.83-1.48l.4.03.37 1.45.37 1.45.31.03.32.03v-2.99h.36c.35 0 .37.02.68.69.17.38.34.69.39.69s.22-.3.4-.67c.3-.64.34-.68.7-.71l.37-.03V2h-4.29l.59.56a4.7 4.7 0 0 1 1.47 3.79 4.7 4.7 0 0 1-4.62 4.42c-1.4.08-2.5-.36-3.54-1.4a4.74 4.74 0 0 1 .05-6.74L9.28 2H5zm6.08-4.73c-.55.3-1 .89-1.01 1.37-.02.33-.01.33.45.36s.48.02.62-.32c.17-.4.42-.56.88-.56q.63 0 .88.6c.12.3.16.3.59.28.56-.04.62-.22.29-.88-.5-1-1.72-1.37-2.7-.85m-1.08 2c0 .3.31.9.62 1.22l.31.32-.28.22c-.3.24-.64.9-.65 1.25 0 .24.17.34.6.34q.44 0 .51-.44c.06-.3.55-.6.95-.59.36.01.84.34.84.59 0 .39.93.63 1.07.28.1-.26-.16-.93-.52-1.33l-.34-.38.3-.29c.32-.3.59-.83.59-1.15 0-.16-.08-.19-.49-.19-.45 0-.5.02-.61.3-.14.34-.55.6-.93.6-.3 0-.75-.35-.87-.66-.08-.2-.16-.24-.6-.24-.38 0-.5.04-.5.15M5.8 13.9c-.1.21-.14 1.69-.04 1.95.09.22.9.22.98 0 .1-.26.07-1.74-.04-1.95q-.1-.2-.45-.19-.34 0-.45.2m8.42.51c-.06.15-.14.43-.17.63-.07.35-.06.36.24.36.35 0 .36-.04.17-.75-.13-.49-.14-.5-.24-.24m2.58.94V16h1.5v-.66c0-.72-.07-.75-.35-.14q-.41.86-.85-.05a2 2 0 0 0-.25-.45c-.03 0-.05.3-.05.65"/></svg>