<svg xmlns="http://www.w3.org/2000/svg" width="24" height="24"><path fill="#b9b9b9" fill-rule="evenodd" d="M3.9 3.1v.4H3v.4c0 .39 0 .39.43.42.42.03.42.03.45.46l.03.42H3v.9h.9v.8H3v.89l.43.03c.41.03.42.04.45.43.02.22.07.42.11.45s.1.24.15.48c.05.34.03.42-.09.42q-.15-.02-.15.4v.4H3v.9h.9v.9H3v.9h.9v.8H3v.9h.45c.41 0 .45.02.45.25s.04.25.45.25.45-.02.45-.25c0-.22.04-.25.4-.25s.4.03.4.25c0 .23.04.25.45.25s.45-.02.45-.25.04-.25.45-.25.45.02.45.25c0 .22.04.25.4.25s.4-.03.4-.25c0-.23.04-.25.45-.25s.45.02.45.25.04.25.45.25.45-.02.45-.25c0-.22.04-.25.4-.25s.4.03.4.25c0 .23.04.25.45.25s.45-.02.45-.25.04-.25.45-.25.45.02.45.25.04.25.45.25.45-.02.45-.25c0-.22.04-.25.4-.25s.4.03.4.25c0 .23.04.25.45.25s.45-.02.45-.25.04-.25.45-.25.45.02.45.25.04.25.45.25.45-.02.45-.25c0-.22.04-.25.4-.25s.4.03.4.25c0 .23.04.25.45.25s.45-.02.45-.25.04-.25.45-.25.45.02.45.25c0 .22.04.25.4.25s.4-.03.4-.25c0-.21.05-.25.3-.25.29 0 .3-.02.3-.45s-.01-.45-.3-.45-.3-.02-.3-.4.02-.4.3-.4c.29 0 .3-.02.3-.44 0-.41-.02-.45-.27-.48s-.28-.07-.31-.45c-.03-.42-.02-.43.27-.43s.31-.01.31-.45c0-.43-.01-.45-.3-.45s-.3-.02-.3-.4.02-.4.3-.4c.29 0 .3-.02.3-.45 0-.44-.01-.45-.3-.45-.3 0-.31-.01-.28-.42.03-.39.06-.43.3-.46.26-.03.28-.07.28-.48 0-.42-.01-.44-.3-.44s-.3-.02-.3-.4.02-.4.3-.4c.29 0 .3-.02.3-.45 0-.44-.01-.45-.3-.45-.3 0-.31-.01-.28-.42.03-.39.06-.43.3-.46.25-.03.28-.07.28-.42s-.03-.39-.27-.42-.28-.08-.31-.4c-.03-.37-.04-.38-.42-.38s-.39.01-.42.38c-.03.36-.04.37-.45.4l-.43.03V2.7h-.9v.8H17v-.8h-.9v.81l-.43-.03c-.4-.03-.42-.04-.45-.4-.03-.38-.03-.38-.48-.38h-.45l.03.38c.03.36.04.37.46.4s.42.03.42.43v.39h-.9v-.8h-.8v-.8h-.44c-.44 0-.45 0-.48.38-.03.36-.04.37-.46.4l-.42.03V2.7h-.9v.8H10v-.8h-.9v.81l-.42-.03c-.42-.03-.43-.04-.46-.4s-.04-.38-.43-.38-.39 0-.39.4v.4h-.9v-.8h-.9v.8h-.8v-.8h-.9zm0 .8v.4h.8v-.8h-.8zm1.7 0v.4h-.8v.9h.8v.9h-.8v.8h.8v-.8h.9v.8h.9v-.4c0-.4 0-.4.4-.4.38 0 .39.01.42.38.03.35.05.37.43.42.39.05.4.06.43.47.03.42.03.43-.28.43-.36 0-.36 0 .05.63q.44.68.45.37a.1.1 0 0 0-.1-.1c-.05 0-.1-.2-.1-.45 0-.45 0-.45.36-.45.2 0 .33-.04.3-.09q-.05-.08.1-.15c.07-.03.14-.16.14-.3 0-.22-.05-.25-.42-.28-.43-.03-.43-.03-.46-.46l-.03-.42H10v.8h.8v-.8H10v-.9h.8v-.9H10v-.8h-.9v.8h.9v.9h-.89l-.03-.42c-.03-.43-.03-.43-.43-.43s-.4 0-.43.43c-.03.42-.03.42-.42.42s-.39 0-.42-.42c-.03-.43-.03-.43-.45-.46s-.43-.03-.43-.43V3.5h-.9zm1.8 0v.4h.8v-.8h-.8zm3.5 0v.4h.8v-.8h-.8zm1.7 0v.4h.9v.9h-.89l-.03-.42c-.03-.43-.03-.43-.43-.43s-.4 0-.43.43c-.03.42-.03.42-.43.42h-.39v.9h.8v.8h.9v-.4c0-.39 0-.39.43-.42.42-.03.42-.03.45-.46.03-.42.03-.42.43-.42h.4l-.03-.42c-.03-.42-.04-.43-.4-.46s-.38-.04-.38-.43V3.5h-.9zm3.5 0v.4h.8v-.8h-.8zm1.7 0v.4h.9v.9h-.89l-.03-.42c-.03-.42-.04-.43-.4-.46L17 4.29v.91h.8v.9H17v.8h.8v-.8h.9v.8h.9v-.8h.8v-.9H20c-.39 0-.39 0-.42-.42-.03-.43-.03-.43-.45-.46s-.43-.03-.43-.43V3.5h-.9zm1.8 0v.4h.8v-.8h-.8zm-14 .85v.45h.9v.9h.9v-.9h-.9v-.9h-.9zm9.6-.01v.45l-.42.03c-.43.03-.43.03-.46.46-.03.42-.03.42-.43.42-.39 0-.39 0-.39.4v.4h.8v-.8h.9v.4c0 .39 0 .39.43.42.42.03.42.03.45.46.02.33 0 .42-.12.42s-.16.1-.16.45c0 .33.04.45.15.45s.15.12.15.45c0 .34-.04.45-.16.45q-.16-.02-.12.32c.04.46.28.49.28.04 0-.32.03-.36.25-.36.23 0 .25-.04.25-.45s-.02-.45-.25-.45-.25-.04-.25-.46v-.46l.43.03.42.04-.04-.42C16.88 7 16.88 7 16.5 7h-.39v-.9h.8v-.9h-.4c-.39 0-.39 0-.42-.42-.03-.43-.03-.43-.45-.46l-.43-.03zm-11.3.91v.45h.8v-.9h-.8zm4.3 0v.45h.9v-.9h-.9zm3.5 0v.45h.9v-.9h-.9zm3.5 0v.45h.9v-.9h-.9zm3.5 0v.45h.9v-.9h-.9zM3.9 7.4v.4h.8V7h-.8zm1.7-.2q0 .2.23.2c.12 0 .32.03.45.06.19.05.22.02.22-.2 0-.24-.03-.26-.45-.26-.38 0-.45.03-.45.2m1.8.2c0 .3.04.4.16.4q.13 0 .09-.1c-.04-.06.07-.1.24-.1.28 0 .31-.03.31-.3 0-.28-.02-.3-.4-.3h-.4zm3.5.02c0 .38.01.4.18.26.1-.09.27-.19.4-.22q.2-.08.22-.27c0-.16-.07-.19-.4-.19h-.4zm1.7-.02c0 .22-.04.4-.1.4q-.09.02-.1.23v.22l-.19-.24c-.27-.35-.51-.22-.51.29v.4h.89l.03.43c.03.4.05.42.36.45.32.03.32.03.32-.42 0-.46 0-.46-.35-.46s-.35 0-.35-.45V7.8h.38q.36 0 .24-.09-.16-.08.07-.14.22-.04.21-.31c0-.24-.03-.26-.45-.26h-.45zm1.7 0c0 .33-.03.4-.2.4s-.2.07-.2.44v.45l.43.06c.76.12.92.05.95-.39.02-.2 0-.46-.04-.55a1 1 0 0 1-.05-.48c.03-.33.02-.33-.43-.33h-.46zm3.5-.2c0 .17.07.2.45.2s.45-.03.45-.2-.07-.2-.45-.2-.45.03-.45.2m1.8.2c0 .2-.03.4-.07.43q-.07.03.05 0c.08-.01.29-.03.48-.03.33 0 .34-.01.34-.4V7H20c-.4 0-.4 0-.4.4m-14.17.37c-.27.05-.63.48-.63.74 0 .15.08.19.4.19.39 0 .39 0 .42.43.03.42.03.42.46.45.36.03.42.06.42.25 0 .22 0 .22.16.02.13-.18.13-.2 0-.23-.23-.05-.23-.92 0-.92.13 0 .15-.06.1-.27-.12-.46-.26-.51-.26-.1v.37h-.9v-.44c0-.44 0-.45.38-.49l.37-.04H6c-.2 0-.45.02-.57.04m12.24.04c-.16.1-.47.65-.47.84 0 .03.14.05.3.05.29 0 .3.02.3.45 0 .41-.02.45-.25.45-.31 0-.32.11 0 .47l.24.28v-.37l.01-.38h.45c.43 0 .45.01.45.3q.01.54.34.08c.22-.3.2-.38-.09-.38-.23 0-.25-.04-.25-.45s.02-.45.25-.45c.2 0 .25-.05.25-.25 0-.42-.42-.75-.92-.75-.24 0-.51.05-.61.11M10.1 8c-.05.11-.1.31-.1.45 0 .2-.05.26-.2.26-.2 0-.5.45-.5.75 0 .12.08.16.32.13.31-.03.33-.06.36-.46.03-.42.03-.42.43-.42h.39v-.45c0-.43-.01-.45-.3-.45q-.29 0-.4.2m4.2.25v.45h.9v-.9h-.9zm3.5 0v.45h.9v-.9h-.9zm-9.6.28c0 .13-.09.17-.38.17h-.38l-.02.45-.02.45h.4c.36 0 .38.02.42.35.02.2.02.38 0 .4s-.23.05-.44.05c-.37 0-.38 0-.38-.36v-.36l-.33.34-.32.33.3.05c.27.05.3.09.33.47l.03.43H6.5v-.41c0-.38-.02-.4-.22-.35-.13.03-.33.06-.46.06-.19 0-.22.05-.22.35 0 .34 0 .35-.4.35h-.4v.9h.8v.8h.9v-.4c0-.39 0-.39.43-.42.42-.03.42-.03.45-.45s.03-.43.43-.43h.39v-.45c0-.37.03-.45.18-.45q.4-.02.42-.52c0-.24-.04-.28-.3-.28-.29 0-.3-.02-.3-.44 0-.26.05-.46.13-.49.1-.04.1-.07 0-.18q-.14-.16-.13.04M3 9.15v.45h.9v-.9H3zm16.9-.16c0 .16-.03.36-.06.45-.05.13 0 .16.25.16.3 0 .31-.01.31-.45 0-.41-.02-.45-.25-.45-.21 0-.25.05-.25.3m-9 .2c0 .4 0 .4.4.4.39 0 .4 0 .4.35q-.01.54.28.23c.19-.19.14-.5-.08-.55q-.18-.05-.2-.17c0-.06-.19-.23-.4-.38l-.4-.28zm3.42.13c.02.18.1.23.46.25.4.03.42.05.42.34 0 .17.03.29.06.25s.03-.29 0-.56l-.08-.51h-.45c-.4 0-.44.02-.41.23m-9.46.4c.15.25.48.57.6.57q.15-.01.14-.35c0-.34 0-.35-.4-.35q-.44-.01-.34.13M10 10c0 .39.01.4.34.4.32 0 .34-.02.38-.4l.04-.4h-.38c-.38 0-.38 0-.38.4m2.52-.25c-.01.11-.09.3-.18.43-.14.2-.14.22.05.22.18 0 .21.06.21.45v.45h-.45c-.45 0-.45 0-.45-.35 0-.27-.04-.35-.17-.35-.1 0-.28-.03-.4-.06-.21-.06-.23-.03-.23.35v.41h.4c.39 0 .39 0 .42.43.03.42.03.42.46.45.42.03.42.03.42.43V13h.9v-.8h.8v.8h.9v-.8h.9v.8h.8v-.8h-.8v-.9h.8v-.9h-.8v.9h-.9v-.39c0-.42-.1-.51-.6-.51-.28 0-.3-.02-.3-.4 0-.33-.03-.4-.2-.4-.16 0-.2.07-.2.34 0 .26.05.36.2.41s.2.15.2.5v.45h-.4c-.4 0-.4 0-.4-.4 0-.38 0-.39-.44-.45-.44-.07-.45-.08-.49-.49-.02-.22-.04-.32-.05-.2m6.78.49c-.1.13-.09.15.09.15s.21.06.21.45v.45h-.45c-.45 0-.45 0-.45-.35s0-.35-.45-.35-.45 0-.45.35 0 .35-.4.35H17v.9h.8v.8h.9v-.8h.9v.8h.8v-.8h-.8v-.9h.8v-.9H20q-.42 0-.4-.15 0-.14-.09-.15-.09.02-.21.15m-15.4.6v.45h.8v-.9h-.8zm5.48-.38c-.25.04-.28.08-.28.43 0 .39 0 .39-.42.42-.43.03-.43.03-.43.43s0 .4.43.43c.42.03.42.03.42.43V13h.9v-.81l.43.03c.4.03.42.04.45.4s.04.38.43.38.39 0 .39-.4c0-.39 0-.39-.42-.42-.43-.03-.43-.03-.46-.45s-.03-.43-.42-.43-.39 0-.42-.42c-.03-.45-.09-.49-.6-.4M5.6 11.74v.45h.9v-.9h-.9zm3.5 0v.45h.9v-.9h-.9zm3.5 0v.45h.9v-.9h-.9zm1.7 0v.45h.9v-.9h-.9zm3.5 0v.45h.9v-.9h-.9zm-13.9.85v.4h.8v-.8h-.8zm3.5 0v.4h.8v-.8h-.8zm-2.6.9v.4h.8v-.8h-.8zm1.7 0c0 .39 0 .39-.42.42-.43.03-.43.03-.46.46l-.03.42h.91v-.9h.9v.9h.8v-.9h-.8v-.8h-.9zm1.72-.02c.03.36.04.37.46.4l.42.03v.89h.9v-.9h.8v-.8H10v.8h-.9v-.8h-.91zm3.48.02v.4h-.8v.9h.8v-.9h.9v.9h.91l-.03-.43c-.03-.42-.03-.42-.46-.45-.42-.03-.42-.03-.42-.43v-.39h-.9zm1.8 0c0 .4 0 .4.4.4.39 0 .39 0 .42.43.03.42.03.42.46.45l.42.03v-.91h.9v.9h.8v-.9h-.8v-.8h-.9v.8h-.9v-.8h-.8zm3.5 0v.4h.8v.9h.9v-.9h.9v.9h.8v-.9h-.8v-.8h-.9v.8h-.9v-.8H17zm-13.1.85v.45h.8v-.9h-.8z"/></svg>