<svg xmlns="http://www.w3.org/2000/svg" width="24" height="24"><path fill="#155144" fill-rule="evenodd" d="M5 9v7h14V2H5zm7.12-4.3c-.3.04-.56.1-.59.13s0 .54.06 1.14c.16 1.5.4 4.22.48 5.2.03.45.09.86.12.91s.4.07.84.04l.78-.05-.06-.66-.1-1.17-.06-.51.43-.05A3.6 3.6 0 0 0 16 8.7c.4-.53.53-.93.53-1.66q-.01-1.78-1.75-2.3a8 8 0 0 0-2.65-.05m-5.45.5c-.27.05-.51.1-.54.13-.02.03 0 .54.07 1.13l.4 4.24c.06.47.1 1.08.1 1.37 0 .28.04.54.09.57s.44.03.86 0l.77-.07-.08-.86c-.14-1.54-.2-1.4.66-1.62.9-.23 1.4-.55 1.77-1.1.26-.4.28-.5.28-1.4 0-.92-.02-1-.3-1.4q-.3-.45-.9-.74c-.53-.27-.68-.3-1.64-.32a12 12 0 0 0-1.54.07m6.68 1.82c.08 1.19.1 1.28.37 1.28.46 0 1.05-.5 1.14-.95.13-.72-.43-1.35-1.22-1.35h-.37zm-5.4.4c.1 1.5.16 1.57.89 1.23 1.14-.54.7-2.15-.6-2.15h-.37z"/></svg>