<svg xmlns="http://www.w3.org/2000/svg" width="24" height="24"><path fill="#232019" fill-rule="evenodd" d="M3 9.55v1.35h.25c.23 0 .25-.03.25-.5 0-.48.01-.5.28-.5.26 0 .69-.22.84-.44.1-.13.1-.59.02-.8-.1-.26-.59-.46-1.13-.46H3zM5.6 8.3c0 .06-.22.64-.5 1.3-.27.66-.5 1.22-.5 1.25q.02.05.23.05c.17 0 .26-.09.36-.35.12-.34.13-.35.7-.35s.57 0 .7.35c.1.27.18.35.37.35.14 0 .24-.04.22-.09l-.57-1.35c-.47-1.1-.57-1.26-.77-1.26-.13 0-.24.05-.24.1m1.92 1.22c.03 1.29.04 1.33.25 1.36s.22 0 .25-.87l.03-.91.68.9q.68.89.88.9c.18 0 .19-.09.19-1.35 0-1.34 0-1.35-.23-1.35s-.23.01-.19.9c.03.5.02.9 0 .9-.04 0-.37-.4-.75-.9-.5-.67-.74-.9-.9-.9-.23 0-.24 0-.2 1.33m2.87-.08c0 .69-.01 1.28-.03 1.33 0 .04.25.08.58.1.97.04 1.65-.5 1.65-1.33 0-.81-.65-1.35-1.62-1.35h-.58zm3.2-1.08c-.34.23-.48.42-.59.8-.2.7.2 1.44.9 1.65 1.38.4 2.31-1.32 1.25-2.3-.3-.27-.43-.32-.84-.32-.28 0-.57.07-.72.17m2.5 1.18v1.35h.25c.24 0 .25-.03.25-.55s.01-.55.2-.45c.1.06.31.3.46.55.2.34.32.45.5.45.31 0 .3-.06-.1-.68-.26-.39-.32-.54-.22-.6.22-.12.37-.5.3-.77-.1-.42-.5-.65-1.1-.65h-.54zm2.82-.08c-.29.7-.52 1.31-.52 1.36 0 .04.1.07.2.07q.21 0 .36-.35c.14-.34.16-.35.7-.35s.55.01.7.35c.11.27.2.35.4.35q.26 0 .2-.12l-.58-1.35c-.71-1.65-.77-1.65-1.46.04m-5.04-.72c-.3.16-.52.71-.42 1.01.14.4.46.64.84.64.48 0 .8-.33.8-.82 0-.5-.08-.66-.4-.83-.35-.18-.48-.18-.82 0m-10.38.3c0 .35.01.36.33.33.28-.03.32-.06.32-.33s-.04-.3-.33-.33-.32-.02-.32.33m7.3.5v.85h.4c.54 0 .9-.34.9-.85 0-.5-.36-.85-.9-.85h-.4zm5.8-.5c0 .33.02.36.26.33.56-.06.54-.68-.02-.68-.2 0-.24.05-.24.36m-10.87.1-.18.46c-.06.15-.01.18.29.18.41 0 .44-.1.17-.59l-.18-.34zm13.74.12c-.1.23-.17.45-.17.47 0 .03.16.05.35.05.4 0 .4 0 .16-.54l-.17-.4z"/></svg>