<svg xmlns="http://www.w3.org/2000/svg" width="24" height="24"><path fill="#4d4d4c" fill-rule="evenodd" d="M3.48 7.58C3.13 7.95 3 8.4 3 9.25q0 1.34.42 1.35c.18 0 .2-.04.13-.51-.07-.5-.07-.51.39-.98.56-.57.71-1 .51-1.47-.18-.44-.6-.47-.97-.06m.17.22c-.21.24-.35 1.3-.16 1.3.06 0 .24-.19.4-.41.53-.73.31-1.5-.24-.89m7.67-.08q-.33.35.26 1c.51.57.72.89.72 1.1 0 .24-.3.23-.63-.02a1 1 0 0 0-.37-.2c-.22 0-.05.34.29.57.59.4 1.14.25 1.14-.31 0-.23-.23-.6-.87-1.4-.22-.28-.26-.4-.18-.48.15-.15.65.1.58.29q-.04.13.15.13c.33 0 .36-.3.05-.57-.3-.25-.93-.32-1.14-.11m-3.01.16c-.36.28-.38.83-.07 1.47.15.3.25.6.21.65q-.2.3-.67-.35c-.18-.25-.36-.45-.4-.45s-.18.16-.3.35c-.1.2-.24.35-.29.35s-.13-.18-.19-.4q-.24-.87-.6.23c-.06.2-.15.35-.2.32a2 2 0 0 1-.25-.54c-.16-.5-.29-.61-.71-.61-.52 0-.86 1.17-.46 1.53q.36.32.8.02c.2-.14.24-.14.46 0 .24.16.26.16.52-.1.24-.24.28-.25.43-.1.24.2.3.2.63-.12l.28-.26.2.26q.42.52.86.22c.2-.13.3-.14.59-.04s.37.1.6-.05c.32-.21.23-.4-.16-.3-.5.1-.6-.07-.52-.94.05-.69.03-.8-.17-1.04-.25-.33-.3-.34-.6-.1m8.69.1v.82c.02 1.17-.34 1.43-.8.6-.14-.22-.3-.4-.35-.4-.07 0-.19.18-.28.4s-.18.4-.2.4-.18-.18-.32-.4c-.33-.5-.5-.5-.68-.05-.08.2-.19.35-.24.35s-.17-.16-.28-.35c-.22-.4-.3-.43-.45-.14q-.11.22-.22.1c-.28-.28-.35.04-.16.71q.17.69.39.08c.07-.16.16-.3.2-.3.03 0 .17.14.3.32l.23.31.21-.25c.12-.14.26-.33.31-.43.1-.15.13-.12.35.21q.46.74.7.14c.16-.38.24-.38.52 0q.36.52.73.1l.18-.2.27.25q.44.43.7.1a.3.3 0 0 1 .33-.1c.15.06.28-.02.53-.31l.33-.39.41.43c.46.47.78.6 1.1.43.33-.19.26-.4-.12-.35-.29.05-.39 0-.78-.4-.24-.25-.5-.46-.56-.46s-.26.11-.42.25a2 2 0 0 1-.36.25c-.03 0-.06-.26-.06-.59 0-.43-.05-.65-.2-.82-.15-.2-.2-.21-.25-.08-.08.21-.62.13-.76-.12-.1-.19-.28-.26-.3-.11m-8.52.08c-.12.12-.07.77.07 1.03l.13.23.06-.23c.1-.38.08-.74-.06-.93q-.12-.15-.2-.1m9.2.67c-.25.08-.27.12-.21.45.18 1.03.6.9.52-.15-.03-.39-.04-.4-.3-.3m-12.93.6c-.21.33-.16.8.09.85.1.02.22-.02.27-.1.14-.2.1-.74-.05-.87-.12-.1-.18-.07-.31.13"/></svg>