<svg xmlns="http://www.w3.org/2000/svg" width="24" height="24"><path fill="#3c3c3c" fill-rule="evenodd" d="M3.16 6.89q-.03.09.23.14.28.06.35.29c.1.39.07 3.08-.04 3.29a.4.4 0 0 1-.35.19c-.32 0-.4.16-.12.23.17.05 1.69.02 1.97-.04.03 0-.15-.06-.4-.12l-.45-.12-.03-.75-.03-.75.54-.02c1.67-.04 2.18-1.66.72-2.27-.41-.17-2.3-.23-2.4-.07m5.35.01q0 .09.1.1c.14 0 .12.24-.05.62-.08.18-.35.9-.6 1.58-.56 1.5-.68 1.7-1 1.7q-.23 0-.25.1c-.02.1.35.1.85.1s.85-.04.85-.1c0-.05-.14-.1-.3-.1-.42 0-.46-.2-.2-.95l.24-.65h1.45l.2.53c.32.86.31 1.01-.04 1.05a1 1 0 0 0-.4.13c-.05.05.35.09 1.04.09q1.1 0 1.06-.1c-.03-.05-.2-.1-.35-.1q-.29 0-.4-.2a59 59 0 0 1-1.26-3.42c-.14-.47-.16-.48-.54-.48-.22 0-.4.05-.4.1m8.84 0c-.03.02.1.09.28.14l.33.11.03 1.69c.02 1.47 0 1.71-.14 1.87-.1.1-.25.19-.36.19q-.17 0-.18.1c0 .06.58.1 1.55.1h1.54l.3-.44q.47-.68.21-.66-.09 0-.1.1c0 .04-.12.22-.26.4-.25.29-.29.3-1.04.3-.58 0-.8-.04-.9-.15-.17-.2-.06-3.2.11-3.41.06-.08.25-.14.42-.14q.3 0 .21-.1a8 8 0 0 0-2-.1m-5.89.1c.03.05.17.1.3.1s.27.05.31.12.06.58.05 1.14c-.04 1.57.21 2.18 1.03 2.55.62.28 1.73.26 2.17-.04.63-.43.79-.78.8-1.86V7.84c-.03-.4.17-.74.44-.74q.23 0 .25-.1c0-.06-.35-.1-.86-.1q-.83 0-.79.1c.03.05.17.1.3.1.4 0 .47.3.43 1.59-.05 1.3-.15 1.62-.63 1.9-.85.54-2.15.23-2.47-.58-.1-.27-.13-2.65-.03-2.82.04-.05.2-.09.36-.09s.29-.04.29-.1-.4-.1-1-.1q-1 0-.95.1M4.3 8.05V9.1h.44c.66 0 .98-.3 1.04-1 .03-.46 0-.6-.18-.82-.19-.24-.28-.28-.76-.28H4.3zm4.26.17c-.14.4-.25.72-.24.74.08.08 1.13.07 1.11-.01A7 7 0 0 0 8.9 7.5c-.04 0-.19.32-.34.72"/></svg>