<?xml version="1.0" encoding="UTF-8" standalone="no"?>
<svg
   viewBox="0 0 15.999999 4.432302"
   width="15.999999pt"
   height="4.432302pt"
   version="1.1"
   id="svg1"
   xmlns="http://www.w3.org/2000/svg"
   xmlns:svg="http://www.w3.org/2000/svg">
  <defs
     id="defs1" />
  <path
     d="M 5.0617199,0.21859321 C 3.5989009,3.7030885 3.3279809,4.2373275 3.0239029,4.2373275 c -0.05051,0 -0.09181,0.03027 -0.09181,0.06726 0,0.04036 0.269036,0.06726 0.672591,0.06726 0.689003,0 0.84074,-0.05717 0.454134,-0.17104 -0.289887,-0.08542 -0.30233,-0.217045 -0.07331,-0.775498 l 0.190881,-0.465433 0.84565,-2.69e-4 0.845582,-2.06e-4 0.1801199,0.438529 c 0.099,0.241192 0.180052,0.492405 0.180052,0.558251 0,0.153755 -0.127994,0.281144 -0.282488,0.281144 -0.06659,0 -0.1210669,0.03027 -0.1210669,0.06726 0,0.04123 0.3250639,0.06726 0.8407399,0.06726 0.843161,0 1.028998,-0.05098 0.623223,-0.17104 -0.284506,-0.08421 -0.343963,-0.1968 -1.261647,-2.3895163 C 5.6096139,0.81511421 5.2425809,2.0686645e-7 5.2109689,2.0686645e-7 c -0.03161,0 -0.0988,0.0983300031336 -0.149248,0.21859200313355 m -5.05950202,-0.09073 c 0.02509,0.04062 0.130954,0.07392 0.235272,0.07392 0.363133,0 0.374163,0.06006 0.374163,2.03351399 0,1.7151753 -0.0069,1.8161313 -0.13055,1.9065953 -0.07183,0.05246 -0.198683,0.09544 -0.281883,0.09544 -0.08327,0 -0.170031,0.03027 -0.192899,0.06726 -0.02697,0.04365 0.290761,0.06726 0.90403,0.06726 0.58555802,0 0.94559602,-0.02563 0.94559602,-0.06726 0,-0.03699 -0.08865,-0.06726 -0.197002,-0.06726 -0.359971,0 -0.40833,-0.122076 -0.40833,-1.030478 v -0.819145 h 0.622147 c 0.748729,0 1.03337,-0.1349213 1.256334,-0.5954453 0.284304,-0.58724 0.122344,-1.14279999 -0.434091,-1.48958799 -0.323651,-0.201711 -0.324256,-0.201778 -1.531154,-0.225251 -0.86576002,-0.01688 -1.19445602,-0.0026 -1.16163302,0.05044 m 7.60438692,0.0067 c 0.02287,0.03699 0.126851,0.06726 0.23117,0.06726 0.349411,0 0.371068,0.09167 0.41055,1.74207899 0.02085,0.8718133 0.06786,1.5916883 0.110237,1.6881383 0.204603,0.465702 0.667951,0.746307 1.308258,0.792111 0.5774202,0.04136 1.0502522,-0.07526 1.3682532,-0.337372 0.428979,-0.353649 0.464088,-0.506193 0.504107,-2.1921783 0.03296,-1.38634499 0.0458,-1.50942999 0.166265,-1.59740499 0.07183,-0.05246 0.200432,-0.09537 0.285851,-0.09537 0.08542,0 0.155302,-0.03027 0.155302,-0.06726 0,-0.04076 -0.291434,-0.06726 -0.739851,-0.06726 -0.448417,0 -0.739851,0.0265 -0.739851,0.06726 0,0.03699 0.08905,0.06726 0.197944,0.06726 0.366697,0 0.407389,0.152275 0.407389,1.52496699 0,1.4887813 -0.05986,1.8257493 -0.373087,2.1007723 -0.400057,0.351295 -0.9953012,0.435974 -1.4889162,0.211866 -0.487763,-0.221484 -0.521796,-0.35042 -0.547893,-2.0772993 -0.02045,-1.35190799 -0.0111,-1.51467599 0.09423,-1.63103399 0.0643,-0.07109 0.203056,-0.129272 0.308316,-0.129272 0.105261,0 0.191353,-0.03027 0.191353,-0.06726 0,-0.04163 -0.360039,-0.06726 -0.945597,-0.06726 -0.613269,0 -0.931001,0.02361 -0.90403,0.06726 m 4.7417702,0 c 0,0.03699 0.08865,0.06726 0.197002,0.06726 0.402143,0 0.408331,0.03067 0.408331,2.01777499 0,1.9871043 -0.0062,2.0177743 -0.408331,2.0177743 -0.108354,0 -0.197002,0.03027 -0.197002,0.06726 0,0.04305 0.599548,0.06719 1.664664,0.06706 l 1.664664,-2.69e-4 0.176824,-0.588249 c 0.09719,-0.323584 0.161153,-0.603449 0.142119,-0.621945 -0.0191,-0.0185 -0.04843,0.0049 -0.06524,0.05199 -0.106068,0.297353 -0.47828,0.729291 -0.690886,0.801796 -0.282085,0.09618 -1.404371,0.112121 -1.546961,0.02199 -0.08542,-0.05401 -0.100888,-0.330713 -0.100888,-1.8079263 0,-1.62074399 0.0091,-1.75411899 0.128128,-1.88567799 0.08159,-0.09019 0.209782,-0.14158 0.353111,-0.14158 0.123757,0 0.224982,-0.03027 0.224982,-0.06726 0,-0.04177 -0.369926,-0.06726 -0.975258,-0.06726 -0.605332,0 -0.975258,0.02549 -0.975258,0.06726 M 1.2506169,1.2364712 c 0,0.876656 0.004,0.901206 0.151333,0.940754 0.634927,0.1700993 1.126591,-0.206284 1.126591,-0.862531 0,-0.61690099 -0.338784,-0.97835199 -0.917079,-0.97835199 H 1.2506169 V 1.2364712 m 3.439028,0.551795 c -0.189806,0.431265 -0.345107,0.8106743 -0.345107,0.8430933 0,0.03249 0.318203,0.05905 0.707096,0.05905 h 0.707162 l -0.106269,-0.252222 c -0.05845,-0.1386893 -0.21301,-0.5094883 -0.343493,-0.8239253 -0.130415,-0.314436 -0.245496,-0.580312 -0.255719,-0.590939 -0.01022,-0.01056 -0.173865,0.333673 -0.36367,0.764939"
     stroke="none"
     fill="#090909"
     fill-rule="evenodd"
     id="path1-4"
     style="stroke-width:0.0672592" />
</svg>
