<?xml version="1.0" encoding="UTF-8" standalone="no"?>
<svg
   viewBox="0 0 18.040001 21.999998"
   width="18.040001pt"
   height="21.999998pt"
   version="1.1"
   id="svg1"
   xmlns="http://www.w3.org/2000/svg"
   xmlns:svg="http://www.w3.org/2000/svg">
  <defs
     id="defs1" />
  <path
     d="M 15.239,15.551 C 16.916,13.836 18.04,11.588 18.04,9.02 18.04,4.042 13.998,0 9.02,0 4.042,0 -1.9073487e-8,4.042 -1.9073487e-8,9.02 -1.9073487e-8,11.62 1.027,13.787 2.864,15.61 v 0 L 8.653,22 15.25,15.551 Z"
     fill="#FF69B4"
     id="path1"
     style="fill:#1a1a1a" />
  <path
     d="m 1.6119874,9.110866 c 0,0 0.15556,-0.1132298 0.42436,-0.3537998 0.26879,-0.24041 0.49509,-0.57993 0.49509,-0.98308 0,-0.40315 -0.20509,-0.62243 -0.39606,-0.62243 -0.25468,0 -0.62953,0.27589 -0.79929,0.89123 -0.16967,0.61533 -0.0707,1.3296098 -0.007,1.6408198 0.0636,0.31122 0.17677,0.41743 0.25459,0.43864 0.0778,0.0212 0.15565,-0.0212 0.15565,-0.10621 0,-0.0848 -0.0707,-0.24041 -0.0919,-0.42428 -0.0212,-0.18387 -0.0353,-0.48089 -0.0353,-0.48089 z m 2.52495,-0.2475898 c 0,0 -0.0919,0.2262898 -0.13435,0.3464498 -0.0424,0.12025 -0.14146,0.36082 -0.16267,0.40324 -0.0212,0.0424 -0.0566,0.0848 -0.0919,0.0848 -0.0353,0 -0.0919,-0.0424 -0.13436,-0.12025 -0.0425,-0.0778 -0.17686,-0.45266 -0.19807,-0.52331 -0.0212,-0.0708 -0.11314,-0.3254098 -0.24049,-0.3961298 -0.12734,-0.0707 -0.29,-0.0848 -0.42436,-0.0212 -0.13435,0.0637 -0.42436,0.3819398 -0.42436,0.8558198 0,0.47387 0.29702,0.55871 0.50929,0.55871 0.21209,0 0.5375,-0.36065 0.5375,-0.36065 0,0 0.15557,0.30404 0.39606,0.30404 0.24048,0 0.38895,-0.36065 0.42436,-0.43848 0.0353,-0.0778 0.0565,-0.0706 0.0848,-0.0282 0.0283,0.0424 0.16267,0.32541 0.36783,0.32541 0.20509,0 0.33243,-0.23347 0.38896,-0.31121 0.0566,-0.0778 0.0778,-0.14145 0.14145,-0.14145 0.0636,0 0.12025,0.0494 0.16266,0.12725 0.0424,0.0778 0.16267,0.38904 0.56582,0.38904 0.32532,0 0.47388,-0.31121 0.47388,-0.31121 0,0 0.18387,0.22629 0.5446,0.22629 0.3607296,0 0.4314596,-0.16985 0.4455696,-0.21227 0.0142,-0.0424 -0.0283,-0.12024 -0.0919,-0.12024 -0.0636,0 -0.0919,0.0284 -0.12725,0.0638 -0.0354,0.0352 -0.11315,0.0706 -0.2262896,0.0706 -0.11315,0 -0.24759,-0.0424 -0.33953,-0.14847 -0.0919,-0.10604 -0.12024,-0.18387 -0.12024,-0.18387 0,0 0.14855,-0.4526698 0.14855,-0.8982398 0,-0.44557 -0.14855,-0.79219 -0.41735,-0.79219 -0.19798,0 -0.44557,0.15557 -0.44557,0.68606 0,0.53049 0.2617,0.8204998 0.29711,0.8699298 0.0353,0.0496 0.15556,0.19807 0.15556,0.19807 0,0 -0.0707,0.33944 -0.2971,0.33944 -0.22638,0 -0.47388,-0.40307 -0.5517,-0.53033 -0.0777,-0.12742 -0.14847,-0.2899998 -0.23339,-0.2899998 -0.0849,0 -0.12735,0.1342698 -0.13444,0.1554798 -0.007,0.0212 -0.19098,0.37484 -0.2263,0.42444 -0.0354,0.0494 -0.0778,0.12025 -0.12725,0.12025 -0.0495,0 -0.12734,-0.0638 -0.17686,-0.18387 -0.0495,-0.12025 -0.099,-0.30421 -0.11315,-0.37502 -0.0141,-0.0706 -0.0283,-0.2120898 -0.099,-0.2120898 -0.0706,-9e-5 -0.10605,0.0495 -0.10605,0.0495 z m 5.3753196,-0.8488 c 0,0 0.0354,-0.007 0.0284,-0.0707 -0.007,-0.0636 -0.17635,-0.23664 -0.42436,-0.27581 -0.2688,-0.0425 -0.33593,0.13145 -0.29001,0.23339 0.0637,0.14146 0.37485,0.50219 0.44557,0.58001 0.0707,0.0778 0.39221,0.46422 0.47397,0.6507398 0.0989,0.22629 0.14145,0.44548 -0.0284,0.65775 -0.16967,0.21209 -0.62944,0.021 -0.77089,-0.0638 -0.14145,-0.0848 -0.34654,-0.29001 -0.34654,-0.29001 0,0 -0.0707,-0.0776 -0.0212,-0.14846 0.0495,-0.0706 0.14847,0.0142 0.14847,0.0142 0,0 0.18387,0.14846 0.29001,0.2191 0.10613,0.0708 0.21927,0.12025 0.33952,0.11323 0.12024,-0.007 0.24758,-0.0918 0.22629,-0.24048 -0.0212,-0.14847 -0.14145,-0.37485 -0.3042,-0.5657298 -0.16258,-0.19097 -0.49509,-0.49518 -0.62944,-0.74977 -0.13436,-0.25469 -0.0778,-0.28291 -0.0778,-0.31122 0,-0.0283 0.099,-0.33242 0.49509,-0.31831 0.39605,0.0142 0.72146,0.26178 0.73566,0.45267 0.014,0.19097 -0.15565,0.21927 -0.19807,0.21927 -0.0424,0 -0.10605,-0.0212 -0.10605,-0.0212 -0.0142,-0.0353 0.014,-0.0848 0.014,-0.0848 z m 0.81348,1.0892098 -0.12024,-0.1696798 c 0,0 -0.0494,-0.099 -0.10605,-0.0636 -0.0566,0.0354 -0.0636,0.0778 -0.0424,0.1626598 0.0212,0.0848 0.16267,0.74268 0.16267,0.74268 0,0 0.0494,0.0636 0.0919,0.0636 0.0424,0 0.0848,-0.0778 0.12024,-0.16968 0.0354,-0.092 0.13444,-0.39622 0.22629,-0.39622 0.092,0 0.19089,0.19807 0.22629,0.24758 0.0354,0.0496 0.14847,0.24049 0.14847,0.24049 0,0 0.0496,0.0778 0.10605,0.0778 0.0566,0 0.113231,-0.0566 0.148631,-0.10605 0.0352,-0.0496 0.13427,-0.21227 0.16968,-0.31122 0.0354,-0.099 0.11306,-0.26879 0.19088,-0.26879 0.0778,0 0.26179,0.29702 0.31122,0.37484 0.0459,0.072 0.20508,0.34662 0.31121,0.34662 0.12743,0 0.14864,-0.12024 0.19106,-0.21226 0.0424,-0.0918 0.11306,-0.35364 0.23339,-0.35364 0.12033,0 0.20508,0.15565 0.26178,0.2121 0.0565,0.0566 0.18388,0.34662 0.38186,0.34662 0.19807,0 0.37484,-0.24759 0.43146,-0.30403 0.0566,-0.0566 0.10604,-0.099 0.10604,-0.099 0,0 0.19106,0.48089 0.50929,0.48089 0.3184,0 0.22629,-0.2758 0.43146,-0.2758 0.20516,0 0.13427,0.14846 0.28299,0.14846 0.0564,0 0.20508,-0.24758 0.26161,-0.3184 0.0566,-0.0706 0.2688,-0.31822 0.36783,-0.31822 0.099,0 0.24049,0.16266 0.2688,0.19088 0.0284,0.0284 0.3184,0.35363 0.36783,0.39622 0.0496,0.0422 0.25477,0.17669 0.41025,0.16968 0.15565,-0.007 0.29,-0.0636 0.36783,-0.099 0.0778,-0.0354 0.11306,-0.10605 0.0919,-0.16267 -0.0212,-0.0566 -0.0777,-0.0566 -0.11306,-0.0354 -0.0354,0.0212 -0.18387,0.0778 -0.32541,0.0778 -0.14154,0 -0.2546,-0.0848 -0.32541,-0.16266 -0.0707,-0.0778 -0.54452,-0.5657298 -0.54452,-0.5657298 0,0 -0.0636,-0.099 -0.16267,-0.099 -0.099,0 -0.22629,0.1202398 -0.29,0.1766798 -0.0636,0.0566 -0.3042,0.29719 -0.39605,0.29719 -0.092,0 -0.15565,-0.0778 -0.15565,-0.24048 0,-0.1626698 0.007,-0.7708998 -0.007,-0.8487298 -0.0142,-0.0778 -0.0636,-0.33242 -0.20508,-0.32532 -0.14145,0.007 -0.092,0.32532 -0.092,0.32532 0,0 0,0.9407498 -0.0212,1.0538098 -0.0212,0.11323 -0.0989,0.25477 -0.18387,0.25477 -0.0848,0 -0.16267,-0.085 -0.24759,-0.2688 -0.0848,-0.18387 -0.14145,-0.5446898 -0.14847,-0.6719398 -0.007,-0.12735 0,-0.16267 0,-0.16267 0,0 0.17686,-0.0849 0.26179,-0.10613 0.0849,-0.0212 0.16266,-0.0353 0.17669,-0.0707 0.0142,-0.0353 0.0284,-0.10604 0.007,-0.15556 -0.0212,-0.0495 -0.0778,-0.0636 -0.11323,-0.0566 -0.0352,0.007 -0.28282,0.0495 -0.28282,0.0495 l -0.19106,-0.28291 c 0,0 -0.0352,-0.0848 -0.0989,-0.0848 -0.0638,0 -0.11323,0.0353 -0.099,0.15557 0.014,0.12024 0.10605,0.7992 0.0778,1.02558 -0.0284,0.2262898 -0.22646,0.6153298 -0.42445,0.6153298 -0.19807,0 -0.5021,-0.6365398 -0.53049,-0.6931598 -0.0282,-0.0566 -0.0636,-0.16266 -0.14145,-0.16266 -0.0778,0 -0.16968,0.2688 -0.20509,0.3536398 -0.0352,0.085 -0.14145,0.36783 -0.2191,0.36783 -0.16985,0 -0.46687,-0.5869398 -0.46687,-0.5869398 0,0 -0.0636,-0.16968 -0.16967,-0.16968 -0.10605,0 -0.14847,0.16249 -0.17686,0.21911 -0.0282,0.0566 -0.17669,0.4738798 -0.283001,0.4738798 -0.10604,0 -0.19088,-0.15548 -0.26161,-0.2688 -0.0708,-0.1130598 -0.17686,-0.3890398 -0.24758,-0.3890398 -0.0708,0 -0.10605,0.13444 -0.14864,0.21928 -0.0427,0.0847 -0.0851,0.1696798 -0.15574,0.1696798 0,0 0.0706,0 0,0 z m 2.351691,-1.3580098 c 0,0 -0.0282,-0.11314 -0.0883,-0.14855 -0.0601,-0.0354 -0.10604,-0.0424 -0.15214,-0.0318 -0.0459,0.0106 -0.0883,0.0813 -0.0848,0.12375 0.004,0.0425 0.0177,0.10254 0.0354,0.14145 0.0177,0.0389 0.0706,0.0884 0.12375,0.10613 0.0531,0.0177 0.11674,0.0142 0.14145,-0.0248 0.0247,-0.0388 0.0389,-0.10605 0.0247,-0.16617 0,0 0.0142,0.0601 0,0 z"
     id="path2"
     style="fill:#f9f9f9;stroke-width:0.085522" />
  <path
     d="m 1.6287904,8.913333 c 0,0 0.1028082,-0.05489 0.260523,-0.205799 C 2.0470194,8.556709 2.2596171,8.344112 2.3349861,8.0355826 2.4104411,7.7270511 2.3556311,7.439 2.1704811,7.439 1.98533,7.439 1.7179264,7.6515152 1.6424729,8.0355826 1.5670179,8.41965 1.6288479,8.913333 1.6288479,8.913333 Z m 4.5806208,0.198749 c 0,0 0.089139,-0.322295 0.089139,-0.637625 0,-0.3154125 -0.048013,-0.644591 -0.1919502,-0.644591 -0.1439345,0 -0.2468419,0.288051 -0.2468419,0.4319932 0,0.1440268 0.061697,0.3703038 0.1577059,0.5485748 0.095937,0.178186 0.1919532,0.301648 0.1919532,0.301648 z M 2.9864604,8.80355 c 0,0 0.2331593,0.02736 0.2331593,0.514331 0,0.4868 -0.2948487,0.521126 -0.3497405,0.521126 -0.054899,0 -0.2469234,-0.02056 -0.2469234,-0.370385 8.44e-5,-0.349575 0.1372257,-0.665072 0.3635046,-0.665072 0,0 -0.2262789,0 0,0 z"
     fill="#ffffff"
     id="path3"
     style="fill:#1a1a1a;stroke-width:0.082916" />
</svg>
