<svg xmlns="http://www.w3.org/2000/svg" width="24" height="24"><path fill="#d32b1b" fill-rule="evenodd" d="m3.01 8.88.01 1.67.24-1.4.28-1.67c.05-.26.03-.28-.24-.28H3zm2.69-1.6c.41.13.63.3.8.63.18.32.2.33.2.1.01-.71 0-.7 1.42-.7 1.15 0 1.3.02 1.24.16-.03.09-.06.27-.06.4 0 .23-.03.24-.69.24-.54 0-.7.04-.75.16-.12.3-.06.34.54.34.59 0 .6 0 .6.28 0 .43-.11.5-.75.54-.48.02-.6.07-.63.2-.03.16.05.18.68.18.7 0 .72 0 .66.22-.03.13-.06.33-.06.46 0 .22-.02.22-1.31.22H6.27l.06-.42.13-.88.07-.45-.27.32q-.44.53-1.43.53c-.45 0-.46.01-.55.65-.03.17-.13.2-.68.26-.36.03 3.41.06 8.38.07l9.02.02V7.2h-7.72c-4.25.01-7.66.04-7.58.07m4.1.1-.25 1.61-.25 1.62c0 .06.24.1.54.1.6 0 .57.05.72-1.02.03-.27.1-.48.13-.48s.2.33.36.73l.3.72.58.03c.66.03.57.24.9-1.9l.23-1.48h-1.14l-.07.58c-.1.9-.18.91-.53.13L11 7.3h-.6c-.33 0-.6.04-.6.08m3.75.05L13.3 8.9c-.11.74-.23 1.45-.26 1.58-.04.22-.03.23.53.2l.58-.03.1-.68c.07-.37.14-.7.17-.72s.2.28.38.7l.33.75h1.14l.23-1.52c.12-.84.26-1.59.3-1.65.03-.07.23.4.44 1.03l.38 1.16-.3.45a4 4 0 0 0-.32.48c0 .03.31.05.7.05h.68l.93-1.47c.5-.82.99-1.58 1.07-1.7l.14-.23H19.1l-.29.58c-.3.6-.32.6-.5-.15l-.12-.43h-1.23c-1.39 0-1.3-.05-1.41.83-.04.32-.1.57-.14.57-.03 0-.2-.32-.36-.7l-.3-.7h-.58q-.57 0-.62.13m-8.9.85-.1.45c-.04.23.15.3.47.18.38-.14.46-.5.18-.73q-.46-.38-.55.1"/></svg>