<?xml version="1.0" encoding="UTF-8" standalone="no"?>
<svg
   viewBox="0 0 18.040001 21.999998"
   width="18.040001pt"
   height="21.999998pt"
   version="1.1"
   id="svg1"
   sodipodi:docname="pink_master_pin.svg"
   xml:space="preserve"
   xmlns:inkscape="http://www.inkscape.org/namespaces/inkscape"
   xmlns:sodipodi="http://sodipodi.sourceforge.net/DTD/sodipodi-0.dtd"
   xmlns="http://www.w3.org/2000/svg"
   xmlns:svg="http://www.w3.org/2000/svg"><defs
     id="defs1" /><sodipodi:namedview
     id="namedview1"
     pagecolor="#ffffff"
     bordercolor="#000000"
     borderopacity="0.25"
     inkscape:showpageshadow="2"
     inkscape:pageopacity="0.0"
     inkscape:pagecheckerboard="0"
     inkscape:deskcolor="#d1d1d1"
     inkscape:document-units="pt"><inkscape:page
       x="0"
       y="0"
       width="18.040001"
       height="21.999998"
       id="page2"
       margin="0"
       bleed="0" /></sodipodi:namedview><g
     id="g1"
     transform="matrix(0.0503595,0,0,0.0503595,0.95313162,1.1870091)"><path
       d="M 0,0 C 1.2321373,-0.01475876 1.2321373,-0.01475876 2.4891663,-0.02981567 37.031935,-0.35853063 37.031935,-0.35853063 52.304687,4.2382812 c 0.827579,0.2466944 1.655157,0.4933887 2.507813,0.7475586 14.371608,4.4205721 29.553609,9.9643052 41.632812,19.1235352 2.246916,1.364199 4.276948,1.741543 6.859378,2.128906 0.33,0.99 0.66,1.98 1,3 1.94933,1.608291 1.94933,1.608291 4.3125,3.0625 0.77988,0.506602 1.55976,1.013203 2.36328,1.535156 2.24553,1.426644 2.24553,1.426644 4.49219,2.335938 2.34636,1.365791 2.64828,2.6393 3.83203,5.066406 1.75496,1.944386 3.51237,3.791785 5.375,5.625 0.72316,0.734766 0.72316,0.734766 1.46094,1.484375 2.57015,2.556189 4.89774,4.356216 8.16406,5.890625 0.33333,1.333334 0.66666,2.666667 1,4 1.31647,0.699376 2.65022,1.367292 4,2 0.33,0.99 0.66,1.98 1,3 0.59812,0.592969 1.19625,1.185938 1.8125,1.796875 7.20078,7.252217 13.74893,19.133166 15.1875,29.203125 0.66,0.66 1.32,1.32 2,2 1.97749,2.966242 2.40231,4.584619 3,7.999999 0.77639,3.07454 0.77639,3.07454 3,5 0,2.33333 0,4.66667 0,7 0.88065,2.3537 0.88065,2.3537 2,4 0.33,0 0.66,0 1,0 -0.0174,0.87012 -0.0174,0.87012 -0.0352,1.75781 -0.009,0.78118 -0.0181,1.56235 -0.0273,2.36719 -0.0174,1.14856 -0.0174,1.14856 -0.0352,2.32031 0.0313,2.56387 0.0313,2.56387 0.59546,5.0708 0.66456,4.61026 0.64499,9.12905 0.63501,13.78077 0.001,1.48321 0.001,1.48321 0.003,2.9964 6.8e-4,2.08778 -0.001,4.17558 -0.005,6.26336 -0.005,3.16867 -6e-5,6.3372 0.006,9.50586 -6.7e-4,2.03646 -0.002,4.07292 -0.004,6.10938 0.002,0.93575 0.004,1.87151 0.006,2.83563 -0.0185,5.28461 -0.30228,10.44834 -0.92486,15.69739 -0.22797,2.444 -0.24819,4.84191 -0.21408,7.2951 -0.66,0 -1.32,0 -2,0 -0.14438,1.03125 -0.28875,2.0625 -0.4375,3.125 -0.47911,3.3005 -1.00125,6.58768 -1.5625,9.875 -0.66,0 -1.32,0 -2,0 0,1.98 0,3.96 0,6 -0.66,0 -1.32,0 -2,0 0,1.65 0,3.3 0,5 -0.66,0 -1.32,0 -2,0 -0.10055,0.85078 -0.2011,1.70156 -0.30469,2.57813 -1.91924,9.44523 -8.35097,20.21382 -14.69531,27.42187 -0.99,0.33 -1.98,0.66 -3,1 -0.30938,0.96938 -0.61875,1.93875 -0.9375,2.9375 -1.0625,3.0625 -1.0625,3.0625 -3.125,4.1875 -0.63938,0.28875 -1.27875,0.5775 -1.9375,0.875 -0.14438,0.63938 -0.28875,1.27875 -0.4375,1.9375 -0.5625,2.0625 -0.5625,2.0625 -2.78907,3.37891 -3.11718,1.89226 -5.21082,4.03324 -7.71093,6.68359 -18.19416,18.64536 -41.332899,31.67064 -66.125003,39.3125 -0.741694,0.2305 -1.483388,0.461 -2.247558,0.69849 -14.379943,4.17893 -28.53453,5.54477 -43.439941,5.42651 -0.830388,-0.003 -1.6607763,-0.007 -2.5163274,-0.0102 -12.932917,-0.0759 -25.2466276,-0.80192 -37.7336726,-4.42728 -0.868184,-0.24669 -1.736368,-0.49339 -2.63086,-0.74756 -26.665924,-7.77358 -49.679762,-21.77975 -69.712888,-40.90478 -2.44442,-2.16043 -4.87153,-3.6818 -7.65625,-5.34766 -0.33334,-1.33333 -0.66667,-2.66667 -1,-4 -1.64821,-1.03013 -3.31504,-2.03115 -5,-3 -0.33,-0.99 -0.66,-1.98 -1,-3 -0.66,-0.33 -1.32,-0.66 -2,-1 -0.33,-0.99 -0.66,-1.98 -1,-3 -1.11762,-1.07314 -1.11762,-1.07314 -2.25782,-2.16797 -3.30954,-3.41798 -5.36912,-6.98194 -7.61718,-11.14453 -0.42982,-0.78891 -0.85965,-1.57781 -1.30249,-2.39062 -11.27461,-20.99946 -11.27461,-20.99946 -11.58423,-30.59766 -0.39006,-4.41859 -1.63217,-8.62942 -2.78003,-12.9043 -1.95075,-7.35304 -2.62837,-14.39748 -2.69653,-21.96289 -0.008,-0.87489 -0.0161,-1.74979 -0.0245,-2.6512 -0.0138,-1.85151 -0.0245,-3.70306 -0.0324,-5.55461 -0.0114,-1.85262 -0.0317,-3.7052 -0.0615,-5.55762 -0.20377,-12.6964 0.9298,-24.36537 3.82353,-36.73263 1.17902,-5.16576 2.24677,-10.35732 3.00581,-15.60159 1.70672,-8.849626 7.30583,-17.370366 11.58985,-25.234379 0.41113,-0.765381 0.82226,-1.530761 1.24585,-2.319336 2.4399,-4.399114 4.97422,-7.719607 8.69165,-11.180664 0.6958,-1.318363 1.37224,-2.647911 2,-4 0.99,-0.495 0.99,-0.495 2,-1 0.33,-0.99 0.66,-1.98 1,-3 0.66,-0.309375 1.32,-0.61875 2,-0.9375 0.66,-0.350625 1.32,-0.70125 2,-1.0625 0.14437,-0.639375 0.28875,-1.27875 0.4375,-1.9375 0.83684,-3.068412 2.83837,-3.439612 5.5625,-5.0625 2.06197,-1.943175 4.024808,-3.965127 5.996091,-6 1.763542,-1.760104 3.555505,-3.327333 5.503907,-4.875 0.825,-0.70125 1.65,-1.4025 2.5,-2.125 0,-0.66 0,-1.32 0,-2 0.794707,-0.106347 0.794707,-0.106347 1.605468,-0.214844 3.380316,-1.10839 5.906515,-3.223504 8.707032,-5.347656 C -57.041064,11.343837 -27.809659,0.27310241 0,0 Z m 151.30469,82.238281 c 1,2 1,2 1,2 z m -284,6 c 1,2 1,2 1,2 z m -4,9 c 1,2 1,2 1,2 z m -1,2 c 1,2.999999 1,2.999999 1,2.999999 z m 298,1.999999 c 1,2 1,2 1,2 z m -299,1 c 1,2 1,2 1,2 z m -1,3 c 1,2 1,2 1,2 z m 303,5 c 1,3 1,3 1,3 z m 0,93 c 1,3 1,3 1,3 z m -303,6 c 1,2 1,2 1,2 z m 1,3 c 1,2 1,2 1,2 z m 1,2 c 1,3 1,3 1,3 z m 1,3 c 1,2 1,2 1,2 z m 292,7 c 1,2 1,2 1,2 z m -4,8 c 1,2 1,2 1,2 z m -4,7 c 1,2 1,2 1,2 z"
       fill="#cd181a"
       transform="translate(146.69531,-0.23828125)"
       id="path1-0" /><path
       d="M 0,0 C 1.2321373,-0.01475876 1.2321373,-0.01475876 2.4891663,-0.02981567 37.031935,-0.35853063 37.031935,-0.35853063 52.304687,4.2382812 c 0.827579,0.2466944 1.655157,0.4933887 2.507813,0.7475586 14.371608,4.4205721 29.553609,9.9643052 41.632812,19.1235352 2.246916,1.364199 4.276948,1.741543 6.859378,2.128906 0.33,0.99 0.66,1.98 1,3 1.94933,1.608291 1.94933,1.608291 4.3125,3.0625 0.77988,0.506602 1.55976,1.013203 2.36328,1.535156 2.24553,1.426644 2.24553,1.426644 4.49219,2.335938 2.34636,1.365791 2.64828,2.6393 3.83203,5.066406 1.75496,1.944386 3.51237,3.791785 5.375,5.625 0.72316,0.734766 0.72316,0.734766 1.46094,1.484375 2.57015,2.556189 4.89774,4.356216 8.16406,5.890625 0.33333,1.333334 0.66666,2.666667 1,4 1.31647,0.699376 2.65022,1.367292 4,2 0.33,0.99 0.66,1.98 1,3 0.59812,0.592969 1.19625,1.185938 1.8125,1.796875 7.20078,7.252217 13.74893,19.133166 15.1875,29.203125 0.66,0.66 1.32,1.32 2,2 1.97749,2.966242 2.40231,4.584619 3,7.999999 0.77639,3.07454 0.77639,3.07454 3,5 0,2.33333 0,4.66667 0,7 0.88065,2.3537 0.88065,2.3537 2,4 0.33,0 0.66,0 1,0 -0.0174,0.87012 -0.0174,0.87012 -0.0352,1.75781 -0.009,0.78118 -0.0181,1.56235 -0.0273,2.36719 -0.0174,1.14856 -0.0174,1.14856 -0.0352,2.32031 0.0313,2.56387 0.0313,2.56387 0.59546,5.0708 0.66456,4.61026 0.64499,9.12905 0.63501,13.78077 0.001,1.48321 0.001,1.48321 0.003,2.9964 6.8e-4,2.08778 -0.001,4.17558 -0.005,6.26336 -0.005,3.16867 -6e-5,6.3372 0.006,9.50586 -6.7e-4,2.03646 -0.002,4.07292 -0.004,6.10938 0.002,0.93575 0.004,1.87151 0.006,2.83563 -0.0185,5.28461 -0.30228,10.44834 -0.92486,15.69739 -0.22797,2.444 -0.24819,4.84191 -0.21408,7.2951 -0.66,0 -1.32,0 -2,0 -0.14438,1.03125 -0.28875,2.0625 -0.4375,3.125 -0.47911,3.3005 -1.00125,6.58768 -1.5625,9.875 -0.66,0 -1.32,0 -2,0 0,1.98 0,3.96 0,6 -0.66,0 -1.32,0 -2,0 0,1.65 0,3.3 0,5 -0.66,0 -1.32,0 -2,0 -0.10055,0.85078 -0.2011,1.70156 -0.30469,2.57813 -1.91924,9.44523 -8.35097,20.21382 -14.69531,27.42187 -0.99,0.33 -1.98,0.66 -3,1 -0.30938,0.96938 -0.61875,1.93875 -0.9375,2.9375 -1.0625,3.0625 -1.0625,3.0625 -3.125,4.1875 -0.63938,0.28875 -1.27875,0.5775 -1.9375,0.875 -0.14438,0.63938 -0.28875,1.27875 -0.4375,1.9375 -0.5625,2.0625 -0.5625,2.0625 -2.78907,3.37891 -3.11718,1.89226 -5.21082,4.03324 -7.71093,6.68359 -18.19416,18.64536 -41.332899,31.67064 -66.125003,39.3125 -0.741694,0.2305 -1.483388,0.461 -2.247558,0.69849 -14.379943,4.17893 -28.53453,5.54477 -43.439941,5.42651 -0.830388,-0.003 -1.6607763,-0.007 -2.5163274,-0.0102 -12.932917,-0.0759 -25.2466276,-0.80192 -37.7336726,-4.42728 -0.868184,-0.24669 -1.736368,-0.49339 -2.63086,-0.74756 -26.665924,-7.77358 -49.679762,-21.77975 -69.712888,-40.90478 -2.44442,-2.16043 -4.87153,-3.6818 -7.65625,-5.34766 -0.33334,-1.33333 -0.66667,-2.66667 -1,-4 -1.64821,-1.03013 -3.31504,-2.03115 -5,-3 -0.33,-0.99 -0.66,-1.98 -1,-3 -0.66,-0.33 -1.32,-0.66 -2,-1 -0.33,-0.99 -0.66,-1.98 -1,-3 -1.11762,-1.07314 -1.11762,-1.07314 -2.25782,-2.16797 -3.30954,-3.41798 -5.36912,-6.98194 -7.61718,-11.14453 -0.42982,-0.78891 -0.85965,-1.57781 -1.30249,-2.39062 -11.27461,-20.99946 -11.27461,-20.99946 -11.58423,-30.59766 -0.39006,-4.41859 -1.63217,-8.62942 -2.78003,-12.9043 -1.95075,-7.35304 -2.62837,-14.39748 -2.69653,-21.96289 -0.008,-0.87489 -0.0161,-1.74979 -0.0245,-2.6512 -0.0138,-1.85151 -0.0245,-3.70306 -0.0324,-5.55461 -0.0114,-1.85262 -0.0317,-3.7052 -0.0615,-5.55762 -0.20377,-12.6964 0.9298,-24.36537 3.82353,-36.73263 1.17902,-5.16576 2.24677,-10.35732 3.00581,-15.60159 1.70672,-8.849626 7.30583,-17.370366 11.58985,-25.234379 0.41113,-0.765381 0.82226,-1.530761 1.24585,-2.319336 2.4399,-4.399114 4.97422,-7.719607 8.69165,-11.180664 0.6958,-1.318363 1.37224,-2.647911 2,-4 0.99,-0.495 0.99,-0.495 2,-1 0.33,-0.99 0.66,-1.98 1,-3 0.66,-0.309375 1.32,-0.61875 2,-0.9375 0.66,-0.350625 1.32,-0.70125 2,-1.0625 0.14437,-0.639375 0.28875,-1.27875 0.4375,-1.9375 0.83684,-3.068412 2.83837,-3.439612 5.5625,-5.0625 2.06197,-1.943175 4.024808,-3.965127 5.996091,-6 1.763542,-1.760104 3.555505,-3.327333 5.503907,-4.875 0.825,-0.70125 1.65,-1.4025 2.5,-2.125 0,-0.66 0,-1.32 0,-2 0.794707,-0.106347 0.794707,-0.106347 1.605468,-0.214844 3.380316,-1.10839 5.906515,-3.223504 8.707032,-5.347656 C -57.041064,11.343837 -27.809659,0.27310241 0,0 Z m -20.695312,18.238281 c -1.227188,0.278438 -2.454375,0.556875 -3.71875,0.84375 -35.719589,8.560893 -66.621758,32.507422 -86.281248,63.15625 -0.67934,1.055742 -1.35867,2.111485 -2.0586,3.199219 -13.47294,22.19228 -19.11607,46.75273 -19.1289,72.48828 -0.0122,1.27295 -0.0245,2.5459 -0.0371,3.85742 -0.0191,12.51485 1.43021,24.51434 5.22461,36.45508 0.38801,1.25168 0.77601,2.50336 1.17578,3.79297 12.20617,37.75169 38.700864,66.89854 73.601073,85.14453 11.564819,6.17437 11.564819,6.17437 24.223145,8.0625 2.404638,-13.23404 3.786857,-26.49683 4.988891,-39.8871 0.06296,-0.70112 0.125925,-1.40225 0.190796,-2.12462 0.06393,-0.71309 0.127859,-1.42617 0.193726,-2.16087 0.748733,-8.2869 1.582262,-16.56503 2.428863,-24.84242 0.170695,-1.67104 0.340387,-3.34218 0.508972,-5.01343 0.93749,-9.29043 1.977612,-18.55161 3.258332,-27.80139 1.32678,-9.77212 1.550007,-19.3241 1.430419,-29.17017 -3.299999,-0.33 -6.6,-0.66 -9.999999,-1 0.329999,-1.65 0.66,-3.3 1,-5 5.445,-0.99 5.445,-0.99 10.999999,-2 3.3794817,-14.27638 3.3794817,-14.27638 0.75,-27.83203 -1.81937,-1.59616 -3.721558,-2.84911 -5.749999,-4.16797 -1.117618,-0.98033 -1.117618,-0.98033 -2.257813,-1.98047 -2.183054,-1.91295 -4.212544,-3.59431 -6.742187,-5.01953 -3.510592,0.33071 -3.510592,0.33071 -6,2 0.375,-1.9375 0.375,-1.9375 1,-4 0.66,-0.33 1.32,-0.66 2,-1 -0.634803,-5.04569 -1.621751,-9.89678 -2.9375,-14.812499 -0.254268,-1.000635 -0.254268,-1.000635 -0.513672,-2.021484 -1.046665,-3.971975 -1.046665,-3.971975 -3.548828,-7.166016 0,-4 0,-4 2,-7 0.339575,-4.074907 0.313324,-5.530012 -2,-9 0.659999,0 1.32,0 2,0 -0.33,-1.65 -0.66,-3.3 -1,-5 0.659999,0 1.32,0 2,0 -0.495,-2.97 -0.495,-2.97 -1,-6 -2.97,0 -5.94,0 -9,0 0,-1.32 0,-2.64 0,-4 3.299999,0.33 6.6,0.66 10,1 0.329999,-0.99 0.659999,-1.98 1,-3 2.0625,-0.6875 2.0625,-0.6875 4,-1 0.495,2.475 0.495,2.475 1,5 0.989999,0 1.98,0 3,0 0,-0.66 0,-1.32 0,-2 1.179492,0.181758 2.358984,0.363516 3.574218,0.550781 10.950041,1.645818 21.91137653,2.995584 32.925782,4.136719 1.886583,0.196864 1.886583,0.196864 3.811279,0.397705 7.329513,0.746519 7.329513,0.746519 14.68872,0.914795 0,0.66 0,1.32 0,2 0.99,0 1.98,0 3,0 0.33,-1.32 0.66,-2.64 1,-4 1.32,0.33 2.64,0.66 4,1 0.33,1.32 0.66,2.64 1,4 1.918126,-0.03094 1.918126,-0.03094 3.875,-0.0625 3.875,-0.0625 3.875,-0.0625 6.125,1.0625 0,0.99 0,1.98 0,3 -3.521972,0.08004 -6.619814,0.04006 -10,-1 0,0.66 0,1.32 0,2 -0.659999,0 -1.32,0 -2,0 0,1.32 0,2.64 0,4 0.66,0 1.32,0 2,0 0,0.66 0,1.32 0,2 -0.659999,0 -1.32,0 -2,0 0.33,1.65 0.66,3.3 1,5 -0.659999,0 -1.32,0 -2,0 -0.329999,2.64 -0.659999,5.28 -1,8 0.66,0 1.32,0 2,0 0,0.66 0,1.32 0,2 -0.659999,0 -1.32,0 -2,0 0.33,1.65 0.66,3.3 1,5 -0.585234,0.02707 -1.170468,0.05414 -1.773437,0.08203 -3.451059,1.422809 -4.36761,4.384769 -5.851563,7.605469 -0.299062,0.61295 -0.598125,1.2259 -0.90625,1.85742 -1.791856,3.73832 -3.24093,7.4981 -4.46875,11.45508 0.99,0.66 1.98,1.32 3,2 0,0.99 0,1.98 0,3 -0.989999,-0.33 -1.98,-0.66 -3,-1 -0.329999,-0.66 -0.66,-1.32 -1,-2 -7.495579,2.03025 -14.7861017,4.20827 -20.9999995,9 -1.92944567,4.34545 -2.06802585,8.28921 -2,13 -0.0257812,0.93715 -0.0515625,1.8743 -0.078125,2.83984 -0.0389229,2.05319 0.008553,4.10779 0.078125,6.16016 0.79664063,0.0374 1.59328125,0.0748 2.4140625,0.11328 11.134518,0.69083 11.134518,0.69083 15.585937,3.88672 4.141751,5.68495 3.684337,11.22507 3,18 -2.279349,10.03649 -6.968948,21.17516 -15.1874995,27.75 -2.7150039,1.20667 -4.57001734,1.54342 -7.4882813,1.82813 -0.809934,0.0815 -1.6198681,0.16306 -2.4543456,0.24707 -0.6170582,0.0577 -1.2341163,0.11537 -1.8698731,0.1748 -2.8319339,22.39322 -5.4712645,44.79978 -7.8125005,67.25 -0.110728,1.05405 -0.221456,2.1081 -0.33554,3.19409 -0.314564,3.00269 -0.625129,6.00576 -0.933991,9.00904 -0.09351,0.8941 -0.187015,1.78821 -0.283355,2.70941 -0.401873,3.96273 -0.754876,7.84781 -0.634613,11.83746 38.432397,6.98041 77.200025,-0.67223 109.54663,-22.63403 7.379012,-5.18561 13.969852,-11.11574 20.453372,-17.36597 0.64324,-0.59168 1.28648,-1.18336 1.94922,-1.79297 19.45475,-18.36637 32.17398,-45.16353 37.05078,-71.20703 0.17515,-0.92369 0.3503,-1.84739 0.53076,-2.79907 1.51172,-8.75407 1.86834,-17.40235 1.84424,-26.26343 -3.2e-4,-1.08242 -3.2e-4,-1.08242 -6.4e-4,-2.18671 -0.0349,-11.9582 -1.06708,-23.22285 -4.37436,-34.75079 -0.18192,-0.66548 -0.36384,-1.33096 -0.55127,-2.0166 -2.86818,-10.28852 -7.39611,-19.629891 -12.44873,-28.9834 -0.59039,-1.096992 -1.18078,-2.193984 -1.78907,-3.324219 C 129.50019,75.187891 121.64383,66.21546 113.3047,57.23828 112.70399,56.571835 112.10329,55.90539 111.48439,55.218749 89.679592,32.045269 54.421422,16.566176 22.737793,15.069824 8.0748969,14.631715 -6.4259372,14.441842 -20.695312,18.238281 Z m 172.000002,64 c 1,2 1,2 1,2 z m -284,6 c 1,2 1,2 1,2 z m -4,9 c 1,2 1,2 1,2 z m -1,2 c 1,2.999999 1,2.999999 1,2.999999 z m 298,1.999999 c 1,2 1,2 1,2 z m -299,1 c 1,2 1,2 1,2 z m -1,3 c 1,2 1,2 1,2 z m 303,5 c 1,3 1,3 1,3 z m 0,93 c 1,3 1,3 1,3 z m -303,6 c 1,2 1,2 1,2 z m 1,3 c 1,2 1,2 1,2 z m 1,2 c 1,3 1,3 1,3 z m 1,3 c 1,2 1,2 1,2 z m 292,7 c 1,2 1,2 1,2 z m -4,8 c 1,2 1,2 1,2 z m -4,7 c 1,2 1,2 1,2 z"
       fill="#fcf5f5"
       transform="translate(146.69531,-0.23828125)"
       id="path2" /><path
       d="M 0,0 C 1.2321373,-0.01475876 1.2321373,-0.01475876 2.4891663,-0.02981567 37.031935,-0.35853063 37.031935,-0.35853063 52.304687,4.2382812 c 0.827579,0.2466944 1.655157,0.4933887 2.507813,0.7475586 14.371608,4.4205721 29.553609,9.9643052 41.632812,19.1235352 2.246916,1.364199 4.276948,1.741543 6.859378,2.128906 0.33,0.99 0.66,1.98 1,3 1.94933,1.608291 1.94933,1.608291 4.3125,3.0625 0.77988,0.506602 1.55976,1.013203 2.36328,1.535156 2.24553,1.426644 2.24553,1.426644 4.49219,2.335938 2.34636,1.365791 2.64828,2.6393 3.83203,5.066406 1.75496,1.944386 3.51237,3.791785 5.375,5.625 0.72316,0.734766 0.72316,0.734766 1.46094,1.484375 2.57015,2.556189 4.89774,4.356216 8.16406,5.890625 0.33333,1.333334 0.66666,2.666667 1,4 1.31647,0.699376 2.65022,1.367292 4,2 0.33,0.99 0.66,1.98 1,3 0.59812,0.592969 1.19625,1.185938 1.8125,1.796875 7.20078,7.252217 13.74893,19.133166 15.1875,29.203125 0.66,0.66 1.32,1.32 2,2 1.97749,2.966242 2.40231,4.584619 3,7.999999 0.77639,3.07454 0.77639,3.07454 3,5 0,2.33333 0,4.66667 0,7 0.88065,2.3537 0.88065,2.3537 2,4 0.33,0 0.66,0 1,0 -0.0174,0.87012 -0.0174,0.87012 -0.0352,1.75781 -0.009,0.78118 -0.0181,1.56235 -0.0273,2.36719 -0.0174,1.14856 -0.0174,1.14856 -0.0352,2.32031 0.0313,2.56387 0.0313,2.56387 0.59546,5.0708 0.66456,4.61026 0.64499,9.12905 0.63501,13.78077 0.001,1.48321 0.001,1.48321 0.003,2.9964 6.8e-4,2.08778 -0.001,4.17558 -0.005,6.26336 -0.005,3.16867 -6e-5,6.3372 0.006,9.50586 -6.7e-4,2.03646 -0.002,4.07292 -0.004,6.10938 0.002,0.93575 0.004,1.87151 0.006,2.83563 -0.0185,5.28461 -0.30228,10.44834 -0.92486,15.69739 -0.22797,2.444 -0.24819,4.84191 -0.21408,7.2951 -0.66,0 -1.32,0 -2,0 -0.14438,1.03125 -0.28875,2.0625 -0.4375,3.125 -0.47911,3.3005 -1.00125,6.58768 -1.5625,9.875 -0.66,0 -1.32,0 -2,0 0,1.98 0,3.96 0,6 -0.66,0 -1.32,0 -2,0 0,1.65 0,3.3 0,5 -0.66,0 -1.32,0 -2,0 -0.10055,0.85078 -0.2011,1.70156 -0.30469,2.57813 -1.91924,9.44523 -8.35097,20.21382 -14.69531,27.42187 -0.99,0.33 -1.98,0.66 -3,1 -0.30938,0.96938 -0.61875,1.93875 -0.9375,2.9375 -1.0625,3.0625 -1.0625,3.0625 -3.125,4.1875 -0.63938,0.28875 -1.27875,0.5775 -1.9375,0.875 -0.14438,0.63938 -0.28875,1.27875 -0.4375,1.9375 -0.5625,2.0625 -0.5625,2.0625 -2.78907,3.37891 -3.11718,1.89226 -5.21082,4.03324 -7.71093,6.68359 -18.19416,18.64536 -41.332899,31.67064 -66.125003,39.3125 -0.741694,0.2305 -1.483388,0.461 -2.247558,0.69849 -14.379943,4.17893 -28.53453,5.54477 -43.439941,5.42651 -0.830388,-0.003 -1.6607763,-0.007 -2.5163274,-0.0102 -12.932917,-0.0759 -25.2466276,-0.80192 -37.7336726,-4.42728 -0.868184,-0.24669 -1.736368,-0.49339 -2.63086,-0.74756 -26.665924,-7.77358 -49.679762,-21.77975 -69.712888,-40.90478 -2.44442,-2.16043 -4.87153,-3.6818 -7.65625,-5.34766 -0.33334,-1.33333 -0.66667,-2.66667 -1,-4 -1.64821,-1.03013 -3.31504,-2.03115 -5,-3 -0.33,-0.99 -0.66,-1.98 -1,-3 -0.66,-0.33 -1.32,-0.66 -2,-1 -0.33,-0.99 -0.66,-1.98 -1,-3 -1.11762,-1.07314 -1.11762,-1.07314 -2.25782,-2.16797 -3.30954,-3.41798 -5.36912,-6.98194 -7.61718,-11.14453 -0.42982,-0.78891 -0.85965,-1.57781 -1.30249,-2.39062 -11.27461,-20.99946 -11.27461,-20.99946 -11.58423,-30.59766 -0.39006,-4.41859 -1.63217,-8.62942 -2.78003,-12.9043 -1.95075,-7.35304 -2.62837,-14.39748 -2.69653,-21.96289 -0.008,-0.87489 -0.0161,-1.74979 -0.0245,-2.6512 -0.0138,-1.85151 -0.0245,-3.70306 -0.0324,-5.55461 -0.0114,-1.85262 -0.0317,-3.7052 -0.0615,-5.55762 -0.20377,-12.6964 0.9298,-24.36537 3.82353,-36.73263 1.17902,-5.16576 2.24677,-10.35732 3.00581,-15.60159 1.70672,-8.849626 7.30583,-17.370366 11.58985,-25.234379 0.41113,-0.765381 0.82226,-1.530761 1.24585,-2.319336 2.4399,-4.399114 4.97422,-7.719607 8.69165,-11.180664 0.6958,-1.318363 1.37224,-2.647911 2,-4 0.99,-0.495 0.99,-0.495 2,-1 0.33,-0.99 0.66,-1.98 1,-3 0.66,-0.309375 1.32,-0.61875 2,-0.9375 0.66,-0.350625 1.32,-0.70125 2,-1.0625 0.14437,-0.639375 0.28875,-1.27875 0.4375,-1.9375 0.83684,-3.068412 2.83837,-3.439612 5.5625,-5.0625 2.06197,-1.943175 4.024808,-3.965127 5.996091,-6 1.763542,-1.760104 3.555505,-3.327333 5.503907,-4.875 0.825,-0.70125 1.65,-1.4025 2.5,-2.125 0,-0.66 0,-1.32 0,-2 0.794707,-0.106347 0.794707,-0.106347 1.605468,-0.214844 3.380316,-1.10839 5.906515,-3.223504 8.707032,-5.347656 C -57.041064,11.343837 -27.809659,0.27310241 0,0 Z m -77.695312,37.238281 c -0.841758,0.598125 -1.683516,1.19625 -2.550782,1.8125 -13.444621,10.123009 -25.558926,22.89395 -34.449216,37.1875 -0.35353,0.567832 -0.70705,1.135664 -1.07129,1.720703 -9.16421,14.956127 -15.53979,30.309506 -19.92871,47.279296 -0.18079,0.6766 -0.36158,1.35319 -0.54785,2.05029 -4.92574,19.19864 -4.47282,42.84782 0.54785,61.94971 0.20496,0.97195 0.40992,1.94391 0.62109,2.94531 5.72791,26.11356 18.93064,49.85282 37.378908,69.05469 0.892031,0.9552 1.784062,1.91039 2.703125,2.89453 26.327644,27.70084 64.498737,43.32994 102.4978022,44.58057 38.1768148,0.35552 73.8471598,-12.8585 102.7990748,-37.4751 0.77988,-0.65742 1.55976,-1.31484 2.36328,-1.99219 5.0121,-4.32978 9.46079,-8.8709 13.63672,-14.00781 0.76054,-0.92297 1.52109,-1.84594 2.30468,-2.79687 25.3483,-31.40267 35.94308,-70.20247 32.69532,-110.20313 -3.66598,-31.11184 -16.55427,-59.377872 -37,-82.999999 -0.68063,-0.803086 -1.36125,-1.606172 -2.0625,-2.433594 -4.30799,-4.98953 -8.8285,-9.406093 -13.9375,-13.566406 -0.91137,-0.760547 -1.82274,-1.521093 -2.76172,-2.304687 C 52.723613,-1.6134904 -23.309245,-2.4016107 -77.695312,37.238281 Z m 229.000002,45 c 1,2 1,2 1,2 z m -284,6 c 1,2 1,2 1,2 z m -4,9 c 1,2 1,2 1,2 z m -1,2 c 1,2.999999 1,2.999999 1,2.999999 z m 298,1.999999 c 1,2 1,2 1,2 z m -299,1 c 1,2 1,2 1,2 z m -1,3 c 1,2 1,2 1,2 z m 303,5 c 1,3 1,3 1,3 z m 0,93 c 1,3 1,3 1,3 z m -303,6 c 1,2 1,2 1,2 z m 1,3 c 1,2 1,2 1,2 z m 1,2 c 1,3 1,3 1,3 z m 1,3 c 1,2 1,2 1,2 z m 292,7 c 1,2 1,2 1,2 z m -4,8 c 1,2 1,2 1,2 z m -4,7 c 1,2 1,2 1,2 z"
       fill="#ce1b1d"
       transform="translate(146.69531,-0.23828125)"
       id="path3" /><path
       d="M 0,0 C 1.0112695,-0.03226685 1.0112695,-0.03226685 2.0429688,-0.06518555 6.70143,-0.09574229 9.7966932,0.8118372 13.75,3.25 18.329772,8.2011045 19.221285,12.303247 19.160156,18.878906 17.894413,29.282108 12.865285,41.853391 4.921875,48.863281 0.97132824,51.809592 -2.3441324,53.391043 -7.25,53.4375 -8.2709375,53.45877 -8.2709375,53.45877 -9.3125,53.480469 -11.25,53.25 -11.25,53.25 -14.25,51.25 c -0.02887,4.145819 -0.04675,8.291612 -0.0625,12.4375 -0.01257,1.776006 -0.01257,1.776006 -0.02539,3.587891 -0.0032,1.124707 -0.0064,2.249414 -0.0098,3.408203 -0.0052,1.042126 -0.01047,2.084253 -0.01587,3.157959 -0.159531,2.359734 -0.159531,2.359734 1.113525,3.408447 1.347471,0.230751 2.703776,0.411531 4.0625,0.5625 1.299375,0.144375 2.59875,0.28875 3.9375,0.4375 0,1.65 0,3.3 0,5 -2.5559447,1.277972 -4.85224,1.477436 -7.6875,1.875 -6.366499,0.933753 -12.616378,2.181025 -18.902344,3.539062 -3.218327,0.552978 -6.153547,0.69532 -9.410156,0.585938 0,-2.25 0,-2.25 1,-5 1.949827,-1.092952 3.883519,-1.877986 5.992188,-2.617188 3.470024,-2.389861 4.644747,-6.453071 5.400787,-10.471527 0.278407,-2.317689 0.483303,-4.630645 0.661713,-6.95816 0.15719,-1.781904 0.314418,-3.563805 0.471679,-5.345703 0.115472,-1.38119 0.115472,-1.38119 0.233277,-2.790283 0.397279,-4.656378 0.858848,-9.306424 1.310669,-13.957764 0.176316,-1.848907 0.352098,-3.697866 0.527343,-5.546875 0.08653,-0.912656 0.173057,-1.825313 0.262207,-2.765625 0.0875,-0.922969 0.174991,-1.845938 0.265137,-2.796875 0.183549,-1.932296 0.367142,-3.864588 0.550781,-5.796875 0.441921,-4.650993 0.883246,-9.302042 1.324219,-13.953125 -2.400137,0.398513 -4.79337,0.817943 -7.1875,1.25 -0.673535,0.10957 -1.34707,0.219141 -2.041016,0.332031 -4.574362,0.847931 -7.481158,2.112302 -10.771484,5.417969 -0.600036,2.580223 -0.600036,2.580223 -0.3125,5.25 0.04512,0.892031 0.09023,1.784062 0.136719,2.703125 0.08701,1.013203 0.08701,1.013203 0.175781,2.046875 1.98,0.33 3.96,0.66 6,1 -0.495,-0.556875 -0.99,-1.11375 -1.5,-1.6875 -1.786159,-2.753662 -1.995759,-4.090065 -1.5,-7.3125 1.125,-1.8125 1.125,-1.8125 3,-3 5.145729,-0.643216 5.145729,-0.643216 7.660156,1.25 2.114468,2.761754 1.810387,5.157315 1.695313,8.527344 -0.651746,4.075203 -2.924518,6.149442 -6.105469,8.535156 -3.507664,1.071786 -6.677213,1.464482 -10.25,0.6875 -3.872114,-2.351456 -6.555827,-4.66748 -8,-9 -0.521661,-4.968603 -0.572405,-8.85519 1.6875,-13.375 C -41.060787,3.0892716 -24.696548,1.4774452 -10.953125,0.37890625 -7.3021555,0.20479932 -3.6543191,0.06756511 0,0 Z"
       fill="#fdf7f7"
       transform="translate(82.25,134.75)"
       id="path4" /><path
       d="M 0,0 C 1.3747852,0.01740234 1.3747852,0.01740234 2.7773438,0.03515625 3.6964453,0.04417969 4.6155469,0.05320312 5.5625,0.0625 c 0.7102734,0.01160156 1.4205469,0.02320312 2.1523437,0.03515625 0.027253,1.72907735 0.04651,3.45828175 0.0625,5.18749995 0.011602,0.9629297 0.023203,1.9258594 0.035156,2.9179688 -0.09279,2.750296 -0.4765394,5.219327 -1.0976563,7.894531 0.66,-0.33 1.3200001,-0.66 2.0000001,-1 5.2284035,-0.521131 9.6403675,-0.642735 14.4375005,1.625 4.378501,4.058124 6.788633,7.203537 7.1875,13.25 -0.436181,11.403 -6.133391,24.741584 -14.265625,32.738281 -5.0985,4.393125 -7.864326,4.491478 -14.3593756,4.386719 -0.8649789,6.595465 -1.67044009,13.352416 -0.99999995,20 2.68555935,2.68556 5.37621325,3.0605 9.00000005,4 -0.495,1.98 -0.495,1.98 -1,4 -4.0409505,0.505904 -8.08286279,1.003676 -12.1250001,1.5 -1.1421093,0.143086 -2.2842187,0.286172 -3.4609374,0.433594 -1.1085938,0.135352 -2.2171876,0.270703 -3.359375,0.410156 -1.523913,0.188526 -1.523913,0.188526 -3.078613,0.38086 -3.010156,0.278544 -5.954908,0.322658 -8.976074,0.27539 0,-1.32 0,-2.64 0,-4 1.679687,-1.308594 1.679687,-1.308594 3.875,-2.4375 2.500887,-1.286298 3.841749,-2.025692 5.166015,-4.5354 1.345973,-4.248655 1.770945,-8.481422 2.248047,-12.9021 0.162226,-1.441373 0.162226,-1.441373 0.327729,-2.911865 0.226949,-2.03371 0.450306,-4.067823 0.6703178,-6.102295 0.3338223,-3.073384 0.6826524,-6.144793 1.0332031,-9.216309 1.1154428,-9.999343 2.093006,-19.820196 1.6796876,-29.894531 -2.9699995,0 -5.9399995,0 -8.9999995,0 -0.33,-1.65 -0.66,-3.3 -1,-5 3.981333,-2.774869 7.224478,-3.420637 11.9999995,-4 0.1327734,-1.143398 0.2655468,-2.286797 0.4023437,-3.464843 0.1781593,-1.490913 0.3565571,-2.981797 0.5351563,-4.4726567 0.087012,-0.7547461 0.1740234,-1.5094922 0.2636718,-2.2871094 C -3.2687348,0.13968952 -3.2687348,0.13968952 0,0 Z"
       fill="#fdf8f8"
       transform="translate(180.28516,126.90234)"
       id="path5" /><path
       d="M 0,0 C 2.625,1.6875 2.625,1.6875 4.625,4.6875 5.5620024,10.211456 4.7002167,14.99468 1.9453125,19.839844 -3.1637221,26.989469 -10.959345,30.768807 -19.375,32.6875 c -0.384981,4.65951 -0.384981,4.65951 1.125,8.9375 2.789352,1.580633 4.716497,1.44152 7.875,1.0625 3.4940677,-1.667623 4.8267068,-2.74006 7,-6 1.875,0.3125 1.875,0.3125 4,1 0.66,0.99 1.32,1.98 2,3 -4.086225,5.228878 -7.3803564,9.173891 -14,11 -5.719432,0.701156 -10.106012,0.300597 -15,-3 -5.163366,-5.450219 -6.470802,-10.563176 -6.3125,-17.894531 C -31.450086,18.496164 -26.38101,9.7254143 -17.085937,1.9140625 -11.566757,-2.0426104 -6.2657276,-2.4366719 0,0 Z"
       fill="#fdf6f6"
       transform="translate(121.375,169.3125)"
       id="path6" /><path
       d="m 0,0 c 2.7931399,1.8620932 3.7378024,2.5560886 4.625,5.75 0.6901733,5.981502 -0.6213468,10.151537 -4,15 -5.0784452,5.757131 -10.796237,8.620071 -18,11 -1.485,0.495 -1.485,0.495 -3,1 0.154688,1.918125 0.154688,1.918125 0.3125,3.875 0.08701,1.078945 0.08701,1.078945 0.175781,2.179687 0.385649,2.340505 0.385649,2.340505 3.511719,3.945313 6.5526716,0 10.2213041,-2.941212 15,-7 1.5625,1.25 1.5625,1.25 3,3 -0.1090171,2.73633 -0.83924756,3.82197 -2.671875,5.851562 -5.9520955,5.07942 -10.143129,7.691274 -18.121094,7.453125 C -24.174877,51.363468 -27.262132,48.268314 -30.25,44.4375 -34.182616,37.615875 -33.306408,29.094743 -31.710937,21.652344 -28.628241,12.12279 -22.856469,4.9693657 -14.375,-0.25 -9.2680297,-1.9523234 -4.9712437,-1.8412014 0,0 Z"
       fill="#fdf7f7"
       transform="translate(238.375,160.25)"
       id="path7" /><path
       d="M 0,0 C 1.32,0 2.64,0 4,0 4.33,1.65 4.66,3.3 5,5 5.99,5 6.98,5 8,5 8,4.34 8,3.68 8,3 c 10.316728,0.5791847 20.548993,1.5286721 30.810547,2.7294922 2.346519,0.2742556 4.693694,0.542277 7.041015,0.8095703 1.510459,0.1741199 3.020877,0.3485859 4.53125,0.5234375 0.692721,0.079197 1.385441,0.1583936 2.099152,0.2399902 C 56.027841,7.7200969 59.511064,8.2390837 63,9 c 0,0.66 0,1.32 0,2 0.99,0 1.98,0 3,0 0.33,-1.32 0.66,-2.64 1,-4 1.65,0.33 3.3,0.66 5,1 0,1.32 0,2.64 0,4 0.66,-0.33 1.32,-0.66 2,-1 4.051421,-0.258601 5.543377,-0.304416 9,2 -0.33,1.32 -0.66,2.64 -1,4 -3.947276,0.179422 -6.598051,0.09351 -10,-2 0,0.66 0,1.32 0,2 -0.66,0 -1.32,0 -2,0 0,1.32 0,2.64 0,4 0.66,0 1.32,0 2,0 0,0.66 0,1.32 0,2 -0.66,0 -1.32,0 -2,0 0.495,2.475 0.495,2.475 1,5 -0.66,0 -1.32,0 -2,0 0.02062,0.94875 0.04125,1.8975 0.0625,2.875 C 69,34 69,34 68,36 c 0.66,0 1.32,0 2,0 0,0.66 0,1.32 0,2 -0.66,0 -1.32,0 -2,0 0.495,2.475 0.495,2.475 1,5 -1.485,0.495 -1.485,0.495 -3,1 -1.320073,2.219722 -2.460953,4.363592 -3.5625,6.6875 -0.303574,0.612949 -0.607148,1.225898 -0.919922,1.857422 C 59.697404,56.284408 58.226325,60.02817 57,64 c 1.485,0.99 1.485,0.99 3,2 -0.495,1.98 -0.495,1.98 -1,4 -1.98,-0.99 -1.98,-0.99 -4,-2 0,-0.66 0,-1.32 0,-2 -3.435832,1.414754 -6.623925,2.774355 -9.8125,4.6875 C 43,72 43,72 41,72 c 0,-1.32 0,-2.64 0,-4 1.134375,-0.5775 2.26875,-1.155 3.4375,-1.75 2.935603,-1.604926 2.935603,-1.604926 4.5,-4.5 C 48.95813,61.1725 48.97875,60.595 49,60 c -0.99,-0.33 -1.98,-0.66 -3,-1 0,-1.32 0,-2.64 0,-4 2.867247,0.573449 3.861451,0.861451 6,3 3.187483,-0.713033 3.187483,-0.713033 4.605469,-3.511719 0.52207,-1.048008 1.04414,-2.096015 1.582031,-3.175781 0.529805,-1.035117 1.059609,-2.070234 1.605469,-3.136719 C 61.050889,44.866109 61.236529,42.505884 61,39 c 0.66,0 1.32,0 2,0 -0.495,-1.98 -0.495,-1.98 -1,-4 0.66,-0.33 1.32,-0.66 2,-1 0.07428,-3.342527 0.06547,-5.803591 -1,-9 0.66,0 1.32,0 2,0 -0.33,-1.65 -0.66,-3.3 -1,-5 0.66,0 1.32,0 2,0 C 65.505,17.03 65.505,17.03 65,14 64.182493,13.92483 63.364985,13.849663 62.522705,13.772217 43.001157,11.9723 23.49584,10.06138 4,8 3.67,9.98 3.34,11.96 3,14 c 0.66,0 1.32,0 2,0 0,0.66 0,1.32 0,2 -0.66,0 -1.32,0 -2,0 0.33,1.65 0.66,3.3 1,5 -0.66,0.33 -1.32,0.66 -2,1 -0.2008644,3.715992 -0.1519437,4.772084 2,8 0,4 0,4 -1,6 -0.4237919,6.144982 0.2697347,10.44196 3,16 2.6634477,1.056924 3.5679994,1.18 6.25,0.0625 C 12.8275,51.711875 13.405,51.36125 14,51 c 0.33,1.32 0.66,2.64 1,4 -1.32,0.99 -2.64,1.98 -4,3 0.66,1.65 1.32,3.3 2,5 -1.485,0.99 -1.485,0.99 -3,2 C 9.46375,64.46375 8.9275,63.9275 8.375,63.375 5.9605293,61.609321 5.9605293,61.609321 2.75,62.8125 1.8425,63.204375 0.935,63.59625 0,64 -0.33,62.68 -0.66,61.36 -1,60 0.32,59.34 1.64,58.68 3,58 2.7228516,57.165977 2.4457031,56.331953 2.1601563,55.472656 0.05109376,48.920302 -1.5341772,42.870886 -2,36 -2.99,35.67 -3.98,35.34 -5,35 -4.835,34.401875 -4.67,33.80375 -4.5,33.1875 -3.8885876,30.886557 -3.8885876,30.886557 -4,28 c 0.33,-0.33 0.66,-0.66 1,-1 0.1463605,-3.366293 0.071935,-5.784196 -1,-9 0.66,0 1.32,0 2,0 -0.33,-1.65 -0.66,-3.3 -1,-5 0.66,0 1.32,0 2,0 -0.33,-1.98 -0.66,-3.96 -1,-6 -4.455,0.495 -4.455,0.495 -9,1 -0.66,-1.32 -1.32,-2.64 -2,-4 0.66,-0.66 1.32,-1.32 2,-2 3.5321758,0.3211069 6.6344951,0.878165 10,2 0.33,-1.32 0.66,-2.64 1,-4 z"
       fill="#faebeb"
       transform="translate(114,56)"
       id="path8" /><path
       d="M 0,0 C 7.6382244,-0.22110368 14.992072,0.47033557 22.5625,1.4375 31.521371,2.5378568 40.393618,3.3845251 49.414062,3.6914063 53.480931,4.0413873 57.068658,4.9195319 61,6 c 0.495,2.97 0.495,2.97 1,6 -0.66,0 -1.32,0 -2,0 0.495,2.475 0.495,2.475 1,5 -0.66,0 -1.32,0 -2,0 0.495,1.082812 0.495,1.082812 1,2.1875 1.006035,2.829474 1.169774,4.841455 1,7.8125 -0.99,0 -1.98,0 -3,0 0.495,1.98 0.495,1.98 1,4 -0.66,0 -1.32,0 -2,0 0.219141,0.861094 0.438281,1.722187 0.664062,2.609375 C 58.070082,37.70734 57.231926,39.609328 55.375,43.25 54.613164,44.804609 54.613164,44.804609 53.835937,46.390625 51.771298,49.325049 50.40339,50.047515 47,51 c -0.66,-0.99 -1.32,-1.98 -2,-3 -0.99,-0.33 -1.98,-0.66 -3,-1 0.347867,1.975367 0.347867,1.975367 1,4 0.99,0.495 0.99,0.495 2,1 -0.0625,2.25 -0.0625,2.25 -1,5 -3.069819,2.47006 -5.99496,4 -10,4 0,-0.66 0,-1.32 0,-2 -0.99,0 -1.98,0 -3,0 0,-0.99 0,-1.98 0,-3 -0.99,0 -1.98,0 -3,0 1.731121,-4.563863 4.746944,-5.792176 8.894531,-8.015625 7.410782,-4.250927 12.116647,-10.056432 14.589844,-18.28125 0.904881,-4.743768 1.045024,-9.531621 1.207031,-14.347656 C 52.981073,12.205798 53.523738,10.694903 55,8 54.388662,7.9452148 53.777324,7.8904297 53.147461,7.8339844 45.532585,7.1470539 37.920704,6.429931 30.310059,5.6977539 28.92959,5.5652368 27.549055,5.4334078 26.168457,5.3022461 24.138192,5.1093207 22.108142,4.9142587 20.078125,4.71875 18.290034,4.5476269 18.290034,4.5476269 16.46582,4.3730469 12.962652,3.99598 9.4847753,3.5186539 6,3 6.0837891,3.5916797 6.1675781,4.1833594 6.2539062,4.7929687 6.3557422,5.5831641 6.4575781,6.3733594 6.5625,7.1875 6.6669141,7.9648047 6.7713281,8.7421094 6.8789062,9.5429688 7.0108319,12.219784 6.555064,14.384411 6,17 c -0.7189222,9.899005 0.3729459,18.326988 6.464844,26.375 2.33317,2.469717 5.02556,4.31705 7.863281,6.167969 C 22.31619,51.275558 22.626103,52.432208 23,55 16.730841,58.978505 16.730841,58.978505 13.875,59.0625 10.342825,57.060934 7.5475856,54.558513 6.1875,50.6875 6.125625,50.130625 6.06375,49.57375 6,49 7.32,48.34 8.64,47.68 10,47 10,46.01 10,45.02 10,44 9.071875,44.37125 8.14375,44.7425 7.1875,45.125 5.6096875,45.558125 5.6096875,45.558125 4,46 0.1019547,43.401303 -0.89344332,40.387805 -2,36 c -0.2326988,-2.729363 -0.1398782,-5.249063 0,-8 0,-0.99 0,-1.98 0,-3 0.309375,-1.020937 0.309375,-1.020937 0.625,-2.0625 C -1.25125,22.298125 -1.1275,21.65875 -1,21 c -0.66,-0.66 -1.32,-1.32 -2,-2 -0.125,-3.125 -0.125,-3.125 0,-6 0.99,0 1.98,0 3,0 C -0.33,11.35 -0.66,9.7 -1,8 -0.34,8 0.32,8 1,8 1,7.34 1,6.68 1,6 0.34,6 -0.32,6 -1,6 -0.67,4.02 -0.34,2.04 0,0 Z"
       fill="#cc191b"
       transform="translate(118,64)"
       id="path9" /><path
       d="m 0,0 c 2.7333325,3.1474738 3.0625,5.239805 3.0625,9.375 -1.0625,2.4375 -1.0625,2.4375 -3,4 -3.0625,0.375 -3.0625,0.375 -6,0 -2,-2 -2,-2 -2.125,-5.125 0.04125,-0.94875 0.0825,-1.8975 0.125,-2.875 -3.930756,0.5745275 -3.930756,0.5745275 -7,3 0.312452,6.873954 4.149714,11.092758 8.5625,16 4.6125154,5.236096 7.1141153,9.606387 6.8515625,16.695312 C -0.74795725,47.886036 -5.5723597,52.440564 -10.9375,56.375 c -3.199686,1.599843 -6.519579,1.362949 -10,1 -4.080067,-1.539648 -7.014559,-3.029117 -9,-7 -0.498574,-3.988594 -0.627791,-6.093191 1.6875,-9.4375 2.762551,-1.866588 4.044857,-2.149 7.3125,-1.5625 1.875,1.125 1.875,1.125 3,3 -0.244715,2.997756 -0.653389,5.306778 -2,8 5.407874,-1.097864 5.407874,-1.097864 9,-5 0.836297,-4.390558 -0.276419,-6.828555 -2.625,-10.4375 -2.4918,-3.507416 -5.168389,-6.789174 -8.078125,-9.957031 C -25.217144,20.552911 -25.368254,16.616947 -25.25,11.066406 -24.803964,7.2249192 -23.55053,5.1943221 -20.9375,2.375 -14.165964,-2.8447253 -7.7486934,-4.2865112 0,0 Z"
       fill="#fdf6f6"
       transform="translate(270.9375,142.625)"
       id="path10" /><path
       d="m 0,0 c 1.98,0 3.96,0 6,0 3,6.625 3,6.625 3,10 -0.66,0 -1.32,0 -2,0 -0.33,2.31 -0.66,4.62 -1,7 0.6213281,0.08766 1.2426562,0.175312 1.8828125,0.265625 C 10,18 10,18 11.054688,19.671875 11.325391,20.357656 11.596094,21.043437 11.875,21.75 14.972151,28.498656 20.697377,31.596584 27,35 c 0,1.65 0,3.3 0,5 C 14.591846,39.397838 2.2849968,38.286804 -10.0625,36.9375 -11.815715,36.748977 -13.56897,36.560824 -15.322266,36.373047 -19.548646,35.919609 -23.774464,35.461241 -28,35 c 0.277344,-2.402344 0.277344,-2.402344 1,-5 2.685706,-1.177941 5.226425,-2.102667 8,-3 5.559742,-2.148545 8.79464,-4.280212 11.796875,-9.511719 C -5.6502631,15.567371 -4.3909576,15.376727 -2,15 -1.7985952,11.374714 -2.1422324,9.1349829 -4,6 -3.01,5.34 -2.02,4.68 -1,4 -0.27617533,1.9407486 -0.27617533,1.9407486 0,0 Z"
       fill="#fdf7f7"
       transform="translate(150,22)"
       id="path11" /><path
       d="m 0,0 c 0.99,0 1.98,0 3,0 1.359375,1.6523437 1.359375,1.6523437 2.75,3.9375 2.7082591,4.2897738 5.666934,8.253232 8.832031,12.214844 C 17.157167,19.507824 17.496511,21.779653 17,26 14.8125,28.875 14.8125,28.875 12,31 9.1875,31.3125 9.1875,31.3125 7,31 7.3255208,28.981771 7.6510417,26.963542 7.9765625,24.945312 7.9842969,24.303359 7.9920312,23.661406 8,23 6.0436602,20.588781 6.0436602,20.588781 2.375,20.875 0.704375,20.936875 0.704375,20.936875 -1,21 c -1.2176273,3.652882 -1.3907585,6.157541 -1,10 1.45649078,2.332422 3.0609936,4.012518 5,6 C 2.21625,36.95875 1.4325,36.9175 0.625,36.875 -2.1611612,36.712713 -2.1611612,36.712713 -4,39 -5.32,37.68 -6.64,36.36 -8,35 -8.4241016,35.421523 -8.8482031,35.843047 -9.2851563,36.277344 -13.340567,40.065365 -16.19392,42.109549 -22,42 c -2.375,-0.9375 -2.375,-0.9375 -4,-3 -0.628127,-2.704142 -0.817042,-5.209889 -1,-8 0.796641,-0.314531 1.593281,-0.629063 2.414063,-0.953125 C -15.200141,26.256018 -7.7353613,22.759225 -2.6875,13.625 -2.0430594,11.164409 -1.9495204,9.3898032 -2,6.875 -2,3 -2,3 0,0 Z"
       fill="#cd1a1c"
       transform="translate(244,162)"
       id="path12" /><path
       d="M 0,0 C 0.66,0 1.32,0 2,0 3.2169388,2.4338775 3.319599,4.4183885 3.5625,7.125 3.6881836,8.4901172 3.6881836,8.4901172 3.8164063,9.8828125 3.8769922,10.581484 3.9375781,11.280156 4,12 5.65,10.68 7.3,9.36 9,8 c 0.1084503,3.042633 0.1875206,6.081362 0.25,9.125 0.050273,1.283906 0.050273,1.283906 0.1015625,2.59375 C 9.4626229,26.937673 7.1857142,30.78959 2.3125,36.0625 0.0577546,38.926636 -0.68545526,40.43516 -1,44 -3.4375,42.5 -3.4375,42.5 -6,40 -6.4830949,37.949997 -6.6246145,36.006262 -6.7539062,33.90625 -7.0879385,31.318826 -8.2211359,29.856206 -10,28 c -0.99,0.33 -1.98,0.66 -3,1 -1.681862,-7.343575 -1.681862,-7.343575 -0.199219,-10.945313 C -10.967086,14.811916 -8.3824916,12.43926 -5.3125,10 -1.6275253,7.0359986 -0.82796838,4.5998243 0,0 Z"
       fill="#ec9e1e"
       transform="translate(147,71)"
       id="path13" /><path
       d="M 0,0 C 0.82113281,-0.02578125 1.6422656,-0.0515625 2.4882813,-0.078125 4.6875,0.25 4.6875,0.25 6.484375,1.5 8.440246,4.3449032 7.7572611,6.6090545 7.2695312,9.8945313 6.0522187,14.820971 3.9750764,18.391616 -0.3125,21.25 c -3.1875,0.125 -3.1875,0.125 -6,0 0.1135152,1.813256 0.2411296,3.625634 0.375,5.4375 0.069609,1.009336 0.1392188,2.018672 0.2109375,3.058594 0.1366406,0.826289 0.2732813,1.652578 0.4140625,2.503906 0.66,0.33 1.32,0.66 2,1 0,0.99 0,1.98 0,3 -5.080868,0.846811 -9.848284,1.090381 -15,1 1,-3 1,-3 4,-5 2.498563,-8.711567 2.242268,-18.022622 2,-27 -0.66,-0.33 -1.32,-0.66 -2,-1 0.33,-0.99 0.66,-1.98 1,-3 C -8.8706621,0.59194994 -4.4905722,0.13188171 0,0 Z"
       fill="#fbedee"
       transform="translate(160.3125,235.75)"
       id="path14" /><path
       d="m 0,0 c 8.7919463,-0.60402685 8.7919463,-0.60402685 12.625,1.3125 3.270317,6.3919836 1.690662,13.417753 -0.375,20 C 10.138548,27.064901 8.2212174,31.519188 3,35 c -3.1875,0.125 -3.1875,0.125 -6,0 -1.171048,-3.550712 -0.9001945,-6.46687 -0.4765625,-10.15625 0.1340625,-1.187227 0.268125,-2.374453 0.40625,-3.597656 C -2.9233594,20.009883 -2.7764063,18.773672 -2.625,17.5 -2.4857813,16.263789 -2.3465625,15.027578 -2.203125,13.753906 -1.0555616,3.7830963 -1.0555616,3.7830963 0,0 Z"
       fill="#cd191b"
       transform="translate(73,144)"
       id="path15" /><path
       d="m 0,0 c 4.068288,0.39118154 5.4042749,1.4192669 8.25,4.3125 2.344619,9.928611 -1.0876875,19.459787 -6,28 -3.3602585,3.941842 -3.3602585,3.941842 -6.75,4.25 -0.7425,-0.0825 -1.485,-0.165 -2.25,-0.25 -0.2122373,-7.391395 0.6014313,-14.599539 1.4375,-21.9375 0.2020605,-1.864951 0.2020605,-1.864951 0.4082031,-3.767578 C -4.772168,9.4285742 -4.6400391,8.2497266 -4.5039062,7.0351562 -4.3834595,5.9601587 -4.2630127,4.8851611 -4.138916,3.7775879 -3.5956129,0.33393978 -3.5094943,0.39880617 0,0 Z"
       fill="#cd1b1c"
       transform="translate(147.75,160.6875)"
       id="path16" /><path
       d="m 0,0 c 6.6328125,-0.1640625 6.6328125,-0.1640625 9.9375,1.3125 2.74982,3.5830984 2.757884,5.9619114 2.554688,10.402344 C 11.257536,19.955655 8.8834517,28.901576 3,35 c -3.25,0.8125 -3.25,0.8125 -6,1 -0.2016298,-7.787951 0.5877878,-15.333351 1.5,-23.0625 0.1430859,-1.247168 0.2861719,-2.494336 0.4335938,-3.7792969 C -0.71545379,6.1049167 -0.3598759,3.0522453 0,0 Z"
       fill="#cd191a"
       transform="translate(186,150)"
       id="path17" /><path
       d="m 0,0 c 3.3,0 6.6,0 10,0 2.115461,6.0441749 3.810258,12.061286 5.253906,18.300781 C 15.938813,20.778638 16.669467,22.805876 18,25 c 0.66,0.33 1.32,0.66 2,1 0,0.66 0,1.32 0,2 -4.672012,1.205681 -9.214963,1.093824 -14,1 0.66,-0.99 1.32,-1.98 2,-3 0.3901372,-1.9897 0.7320265,-3.990199 1,-6 -3.96,0.495 -3.96,0.495 -8,1 -0.33,1.98 -0.66,3.96 -1,6 0.66,0.33 1.32,0.66 2,1 0,0.66 0,1.32 0,2 -4.0527516,0.982485 -7.8386174,1.081596 -12,1 0.8430469,-0.922324 0.8430469,-0.922324 1.703125,-1.863281 C -5.2447689,24.968621 -3.3170275,20.528959 -1.25,15.8125 -0.83878906,14.89791 -0.42757812,13.98332 -0.00390625,13.041016 2.1615448,8.6795348 2.1615448,8.6795348 3,4 2.01,3.67 1.02,3.34 0,3 0,2.01 0,1.02 0,0 Z"
       fill="#fbeded"
       transform="translate(231,224)"
       id="path18" /><path
       d="M 0,0 C 3.5855288,1.6368718 4.7931505,2.6897258 7,6 7.4935939,10.360079 7.2752186,12.504606 5.125,16.375 2.9940314,19.007373 2.2919925,19.845164 -0.98828125,20.238281 -5.1541033,20.371307 -7.3786933,20.388317 -11,18.125 -14.080847,14.8516 -14.333875,12.538735 -14.292969,8.0390625 -13.83745,4.8686543 -12.246843,3.1807598 -10,1 -6.8087623,-0.59561887 -3.4725491,-0.3799142 0,0 Z"
       fill="#cd1e1f"
       transform="translate(107,232)"
       id="path19" /><path
       d="M 0,0 C -1.3381156,3.487293 -2.8589673,6.7792055 -4.6015625,10.082031 -5.0914063,11.013379 -5.58125,11.944727 -6.0859375,12.904297 -6.5938281,13.864004 -7.1017187,14.823711 -7.625,15.8125 -8.140625,16.791543 -8.65625,17.770586 -9.1875,18.779297 -10.456141,21.187365 -11.72704,23.594213 -13,26 c 5.1190175,-0.567452 7.6879215,-0.893023 11,-5 0.097656,6.152344 0.097656,6.152344 0,8 -1.5495027,1.549503 -3.0999059,1.216552 -5.2539062,1.316406 -0.854004,0.0419 -1.7080079,0.08379 -2.5878907,0.126953 -1.3467481,0.05898 -1.3467481,0.05898 -2.7207031,0.119141 -0.901699,0.04318 -1.803398,0.08637 -2.732422,0.130859 C -17.529785,30.799781 -19.764763,30.9018 -22,31 c 0.581949,-3.585388 1.531493,-6.380229 3.25,-9.574219 0.443438,-0.83209 0.886875,-1.664179 1.34375,-2.521484 0.464063,-0.855293 0.928125,-1.710586 1.40625,-2.591797 0.464063,-0.866895 0.928125,-1.733789 1.40625,-2.626953 0.856388,-1.599503 1.715478,-3.197565 2.578125,-4.7937013 C -11.324607,7.6046586 -10.653354,6.3067077 -10,5 c -2.33165,-0.334983 -2.33165,-0.334983 -5,0 -2.313771,1.8958411 -2.313771,1.8958411 -4,4 -0.04242,-2.3329478 -0.04093,-4.6670257 0,-7 3.618128,-3.6181278 14.197617,-2.08856854 19,-2 z"
       fill="#fcf1f1"
       transform="translate(225,239)"
       id="path20" /><path
       d="M 0,0 C -1.2575844,4.0649721 -2.7625223,7.6769021 -4.8203125,11.398438 -5.3552734,12.37168 -5.8902344,13.344922 -6.4414062,14.347656 -6.9969922,15.34668 -7.5525781,16.345703 -8.125,17.375 -8.6883203,18.397227 -9.2516406,19.419453 -9.8320313,20.472656 -11.216933,22.984258 -12.606365,25.493237 -14,28 c 1.4835,-0.422573 2.961764,-0.863563 4.4375,-1.3125 0.8237109,-0.243633 1.6474219,-0.487266 2.4960938,-0.738281 C -6.3844922,25.635977 -5.7025781,25.322734 -5,25 c 0.33,-0.99 0.66,-1.98 1,-3 0.99,0 1.98,0 3,0 -0.33,2.64 -0.66,5.28 -1,8 -2.3953176,0.337454 -4.7911427,0.670083 -7.1875,1 -0.6735352,0.09539 -1.34707,0.190781 -2.041016,0.289062 C -14.846646,31.783246 -18.347964,32.113461 -22,32 c 0.606319,-3.961495 1.847974,-6.987235 3.722656,-10.519531 0.538184,-1.021582 1.076367,-2.043164 1.63086,-3.095703 0.845947,-1.582647 0.845947,-1.582647 1.708984,-3.197266 0.567832,-1.074434 1.135664,-2.148867 1.720703,-3.255859 C -11.816856,9.2846933 -10.411099,6.641011 -9,4 c -4.824422,1.2694651 -4.824422,1.2694651 -8,5 -0.66,0 -1.32,0 -2,0 -0.04242,-2.3329478 -0.04093,-4.6670257 0,-7 1.837729,-1.83772939 4.771138,-1.38742344 7.25,-1.5625 1.709297,-0.12568359 1.709297,-0.12568359 3.453125,-0.25390625 C -5.5203338,0.02897593 -2.779495,-0.0365723 0,0 Z"
       fill="#fbefef"
       transform="translate(204,234)"
       id="path21" /><path
       d="M 0,0 C 0.66,0 1.32,0 2,0 3.2169388,2.4338775 3.319599,4.4183885 3.5625,7.125 3.6881836,8.4901172 3.6881836,8.4901172 3.8164063,9.8828125 3.8769922,10.581484 3.9375781,11.280156 4,12 5.65,10.68 7.3,9.36 9,8 9,14.27 9,20.54 9,27 7,28 7,28 3,27 2.34,23.37 1.68,19.74 1,16 c -3.2108185,2.894591 -3.2108185,2.894591 -5,7 -2.97,-0.99 -5.94,-1.98 -9,-3 1.997146,-3.994292 3.8479372,-5.921241 7,-9 3.2252323,-3.3959271 5.57385608,-6.1703689 6,-11 z"
       fill="#cd1b1b"
       transform="translate(147,71)"
       id="path22" /><path
       d="m 0,0 c -0.639375,0.70125 -1.27875,1.4025 -1.9375,2.125 -3.6193054,5.0450924 -3.2922037,11.216021 -3.625,17.25 -0.043184,0.736055 -0.086367,1.472109 -0.1308594,2.230469 C -5.798438,23.403481 -5.8996209,25.20172 -6,27 c 0.99,0.33 1.98,0.66 3,1 -0.33,0.66 -0.66,1.32 -1,2 -2.9414062,0.414062 -2.9414062,0.414062 -6.5625,0.625 -1.197539,0.07477 -2.395078,0.149531 -3.628906,0.226562 C -15.58166,30.925039 -15.58166,30.925039 -17,31 c 0.495,-1.485 0.495,-1.485 1,-3 0.66,0 1.32,0 2,0 0.801684,-2.924825 1.245037,-5.748381 1.535156,-8.765625 0.130518,-1.33418 0.130518,-1.33418 0.263672,-2.695313 0.08701,-0.92039 0.174024,-1.840781 0.263672,-2.789062 0.136318,-1.403789 0.136318,-1.403789 0.275391,-2.835937 C -11.43872,8.6096203 -11.218113,6.3049466 -11,4 c -0.99,-0.33 -1.98,-0.66 -3,-1 0,-0.66 0,-1.32 0,-2 4.7630744,-0.95261487 9.1666528,-1.08333357 14,-1 z"
       fill="#fcf1f2"
       transform="translate(184,230)"
       id="path23" /><path
       d="M 0,0 C 2.25,0.875 2.25,0.875 3.25,1.875 2.8544593,8.5991919 0.65476309,12.53352 -4.125,17.1875 -7.0625622,19.075933 -9.29935,19.554009 -12.75,19.875 -12.150255,12.678057 -9.810827,7.4642442 -5.3125,1.8125 -2.75,-0.125 -2.75,-0.125 0,0 Z"
       fill="#cd1e20"
       transform="translate(113.75,175.125)"
       id="path24" /><path
       d="m 0,0 c 0.763125,0.20625 1.52625,0.4125 2.3125,0.625 0.4596998,5.7462475 -0.324993,8.5513073 -4,13 -3.2842184,3.338206 -6.199825,5.576455 -11,6 0.238258,-7.505133 2.112908,-12.2497649 7,-18 3,-2 3,-2 5.6875,-1.625 z"
       fill="#cd1b1d"
       transform="translate(230.6875,166.375)"
       id="path25" /><path
       d="m 0,0 c 2.3595309,2.3595309 2.4914141,3.7789562 3,7 1.65,0 3.3,0 5,0 3,5.75 3,5.75 3,8 -0.66,0 -1.32,0 -2,0 -0.66,-0.99 -1.32,-1.98 -2,-3 -0.66,0 -1.32,0 -2,0 0.33,1.65 0.66,3.3 1,5 -2.475,-0.99 -2.475,-0.99 -5,-2 0.66,1.98 1.32,3.96 2,6 -3,-1 -3,-1 -5,-4 0,-0.99 0,-1.98 0,-3 2,-1.6875 2,-1.6875 4,-3 -1.32,-0.66 -2.64,-1.32 -4,-2 0,0.66 0,1.32 0,2 C -4.97,10.505 -4.97,10.505 -8,10 -8.75,7.25 -8.75,7.25 -9,4 -6.4756674,0.31059085 -4.4222003,-0.69824215 0,0 Z"
       fill="#ce2122"
       transform="translate(259,67)"
       id="path26" /><path
       d="M 0,0 C 2.31,0.33 4.62,0.66 7,1 6.67,2.32 6.34,3.64 6,5 5.34,5 4.68,5 4,5 4.33,5.66 4.66,6.32 5,7 6.65,5.68 8.3,4.36 10,3 c 0.66,0.66 1.32,1.32 2,2 0,-0.66 0,-1.32 0,-2 1.98,0.66 3.96,1.32 6,2 -1.55501,3.8168423 -4.035955,6.191957 -7,9 1.32,0.33 2.64,0.66 4,1 -3,1 -3,1 -5.625,0.1875 C 7,14 7,14 6,12 5.01,12.33 4.02,12.66 3,13 -0.1875,12.0625 -0.1875,12.0625 -3,11 -3,10.34 -3,9.68 -3,9 -1.46875,7.4921875 -1.46875,7.4921875 0.5,5.875 1.1496875,5.3361719 1.799375,4.7973437 2.46875,4.2421875 2.9740625,3.8322656 3.479375,3.4223438 4,3 2.68,2.01 1.36,1.02 0,0 Z"
       fill="#cd1d1e"
       transform="translate(191,27)"
       id="path27" /><path
       d="M 0,0 C 3.5855288,1.6368718 4.7931505,2.6897258 7,6 7.4935939,10.360079 7.2752186,12.504606 5.125,16.375 2.9940314,19.007373 2.2919925,19.845164 -0.98828125,20.238281 -5.1541033,20.371307 -7.3786933,20.388317 -11,18.125 -14.080847,14.8516 -14.333875,12.538735 -14.292969,8.0390625 -13.83745,4.8686543 -12.246843,3.1807598 -10,1 -6.8087623,-0.59561887 -3.4725491,-0.3799142 0,0 Z M -9.4375,3.5 C -11.638289,7.0212624 -11.804147,9.9543964 -11,14 c 1.3968501,2.646987 1.3968501,2.646987 4,4 3.9061468,0.558021 6.05111671,0.583928 9.4375,-1.5 C 4.638289,12.978738 4.8041466,10.045604 4,6 2.6031499,3.3530128 2.6031499,3.3530128 0,2 -3.9061468,1.441979 -6.0511167,1.4160718 -9.4375,3.5 Z"
       fill="#f6d9d9"
       transform="translate(107,232)"
       id="path28" /><path
       d="M 0,0 C 8.5068296,-0.24617835 16.656801,0.18340378 25.086426,1.2160644 31.165559,1.9482795 37.227079,2.3790214 43.343018,2.657959 47.297021,2.84907 51.109148,3.2689548 55,4 52.87895,5.8861893 51.639523,6.9638058 48.756836,7.1269531 47.924424,7.0128711 47.092012,6.8987891 46.234375,6.78125 45.264355,6.6626563 44.294336,6.5440625 43.294922,6.421875 42.207598,6.2826562 41.120273,6.1434375 40,6 37.464278,5.7527436 34.927754,5.5136202 32.390625,5.28125 31.045502,5.1530807 29.700451,5.0241661 28.355469,4.8945312 26.293221,4.6961341 24.230939,4.4981892 22.168457,4.3022461 20.138192,4.1093207 18.108142,3.9142587 16.078125,3.71875 14.290034,3.547627 14.290034,3.547627 12.46582,3.3730469 8.9626515,2.99598 5.4847753,2.5186539 2,2 1.67,2.66 1.34,3.32 1,4 0.67,2.68 0.34,1.36 0,0 Z"
       fill="#cf2c2d"
       transform="translate(122,65)"
       id="path29" /><path
       d="M 0,0 C 2.5654594,2.5654594 2.5404609,4.4768667 3,8 2.01,8.495 2.01,8.495 1,9 c 0.99,0.66 1.98,1.32 3,2 -2.64,0.33 -5.28,0.66 -8,1 -0.33,1.98 -0.66,3.96 -1,6 0.66,0.33 1.32,0.66 2,1 0,0.66 0,1.32 0,2 -4.0527516,0.982485 -7.838617,1.081596 -12,1 0.5775,-0.639375 1.155,-1.27875 1.75,-1.9375 1.984686,-2.701379 2.989068,-4.745491 4.1875,-7.8125 C -8.0820313,9.8945313 -8.0820313,9.8945313 -7,8 -4.25,6.9375 -4.25,6.9375 -2,7 -1.855625,6.21625 -1.71125,5.4325 -1.5625,4.625 -1,2 -1,2 0,0 Z"
       fill="#f7dcdc"
       transform="translate(236,233)"
       id="path30" /><path
       d="M 0,0 C 1.6549736,3.3099471 1.1008434,6.99123 1.0625,10.625 1.05799,11.426797 1.05348,12.228594 1.048828,13.054688 1.0370317,15.03649 1.019096,17.018254 1,19 -1.4909281,20.245464 -2.4108073,19.776758 -5,19 -5.3369279,17.396584 -5.6694109,15.792234 -6,14.1875 -6.185625,13.29418 -6.37125,12.400859 -6.5625,11.480469 -7.25619,7.5474943 -6.9010845,5.4457157 -5,2 c 0.33,0.66 0.66,1.32 1,2 1.32,-1.32 2.64,-2.64 4,-4 z"
       fill="#d23323"
       transform="translate(155,79)"
       id="path31" /><path
       d="m 0,0 c 0.66,0 1.32,0 2,0 1.9589887,3.9179773 1.3578178,8.7185245 1,13 -1.375,3.1875 -1.375,3.1875 -3,5 -0.66,0 -1.32,0 -2,0 C -3.9589887,14.082023 -3.3578178,9.2814755 -3,5 -1.625,1.8125 -1.625,1.8125 0,0 Z"
       fill="#fdf7f4"
       transform="translate(146,87)"
       id="path32" /><path
       d="M 0,0 C 2.64,0 5.28,0 8,0 8.9461633,3.4298419 9,6.4417557 9,10 8.01,10 7.02,10 6,10 5.67,9.01 5.34,8.02 5,7 4.34,6.67 3.68,6.34 3,6 3,7.32 3,8.64 3,10 2.01,10 1.02,10 0,10 0,6.7 0,3.4 0,0 Z"
       fill="#f6d5d5"
       transform="translate(99,237)"
       id="path33" /><path
       d="M 0,0 C 3.125,-0.1875 3.125,-0.1875 6,0 7.0303955,4.5337404 7.1776607,5.6446785 5,10 2.03,9.01 -0.94,8.02 -4,7 -2,3 -2,3 0,0 Z"
       fill="#d43818"
       transform="translate(138,84)"
       id="path34" /><path
       d="M 0,0 C 4.5694444,2.1388889 4.5694444,2.1388889 6,5 6.040224,7.3329866 6.043202,9.6670667 6,12 5.7525,11.443125 5.505,10.88625 5.25,10.3125 3.7039615,7.4523288 2.3445574,5.281191 0,3 -3.9141634,2.370938 -5.9945253,2.3206252 -9.3125,4.5625 -11.400968,7.5791758 -12.179586,10.444871 -13,14 c -0.33,0 -0.66,0 -1,0 C -14.490296,6.7681307 -14.490296,6.7681307 -12.125,3.0625 -8.4518935,-0.50257399 -4.9406469,-0.54896076 0,0 Z"
       fill="#f8e0e0"
       transform="translate(107,232)"
       id="path35" /><path
       d="M 0,0 C 0.33,1.65 0.66,3.3 1,5 -5.4,8.0769231 -5.4,8.0769231 -8.4375,7.6875 -8.953125,7.460625 -9.46875,7.23375 -10,7 -10.625,5.125 -10.625,5.125 -11,3 -7.7243064,-0.27569364 -4.4890931,-0.12469703 0,0 Z"
       fill="#f6d7d7"
       transform="translate(289,122)"
       id="path36" /><path
       d="M 0,0 C 1.65,0 3.3,0 5,0 5.33,0.33 5.66,0.66 6,1 5.7181766,6.6364678 5.2135892,9.9140953 1,14 0.34,14 -0.32,14 -1,14 -0.67,9.38 -0.34,4.76 0,0 Z"
       fill="#cc1a1b"
       transform="translate(156,240)"
       id="path37" /><path
       d="m 0,0 c 0.598125,0.20625 1.19625,0.4125 1.8125,0.625 0.12375,1.1446875 0.12375,1.1446875 0.25,2.3125 0.8961579,3.2112326 1.9661102,3.981245 4.75,5.6875 -0.99,0.495 -0.99,0.495 -2,1 -2.625,-0.9375 -2.625,-0.9375 -5,-2 0.33,1.65 0.66,3.3 1,5 -0.66,0 -1.32,0 -2,0 C -2.5117188,10.980469 -2.5117188,10.980469 -3.875,8.8125 -4.3326172,8.1048047 -4.7902344,7.3971094 -5.2617187,6.6679687 -6.1875,4.625 -6.1875,4.625 -5.1875,1.625 c 3,-2 3,-2 5.1875,-1.625 z"
       fill="#f7dbdb"
       transform="translate(87.1875,43.375)"
       id="path38" /><path
       d="m 0,0 c 1.2065625,0.0309375 1.2065625,0.0309375 2.4375,0.0625 0,0.66 0,1.32 0,2 1.98,0 3.96,0 6,0 -0.33,0.66 -0.66,1.32 -1,2 -1.3333333,0.3333333 -2.6666667,0.6666667 -4,1 -0.33,0.66 -0.66,1.32 -1,2 1.32,0.66 2.64,1.32 4,2 C 4.9786989,8.9214225 3.5204645,8.7744759 2.0625,8.625 0.84433594,8.5031836 0.84433594,8.5031836 -0.3984375,8.3789063 -2.5625,8.0625 -2.5625,8.0625 -4.5625,7.0625 -3.5234375,0.0859375 -3.5234375,0.0859375 0,0 Z"
       fill="#f7dede"
       transform="translate(30.5625,119.9375)"
       id="path39" /><path
       d="M 0,0 C 2.31,0.33 4.62,0.66 7,1 7.625,3.375 7.625,3.375 8,6 6,8 6,8 3.375,8.125 2.59125,8.08375 1.8075,8.0425 1,8 0.67,9.32 0.34,10.64 0,12 -0.33,12 -0.66,12 -1,12 -1.081596,7.8386174 -0.9824852,4.0527516 0,0 Z"
       fill="#eba5a6"
       transform="translate(172,23)"
       id="path40" /><path
       d="M 0,0 C 3.3437348,0.55728913 6.03313,1.3517389 9,3 9,5.31 9,7.62 9,10 7.68,10 6.36,10 5,10 4.67,9.34 4.34,8.68 4,8 3.01,8.33 2.02,8.66 1,9 0.67,6.03 0.34,3.06 0,0 Z"
       fill="#df650c"
       transform="translate(133,91)"
       id="path41" /><path
       d="m 0,0 c 0,0.33 0,0.66 0,1 -11.484599,0.3090027 -22.604532,-0.62616537 -34,-2 0,-0.33 0,-0.66 0,-1 11.115692,-1.7368269 23.220997,-1.3684385 34,2 z"
       fill="#d03030"
       transform="translate(177,63)"
       id="path42" /><path
       d="M 0,0 C 4.2742558,1.5830577 6.2653179,4.505684 9,8 6,8 6,8 4,7 4,8.32 4,9.64 4,11 2.35,10.67 0.7,10.34 -1,10 0.32,11.65 1.64,13.3 3,15 -1.2742558,13.416942 -3.2653179,10.494316 -6,7 -3.36,7.33 -0.72,7.66 2,8 1.67,7.236875 1.34,6.47375 1,5.6875 0,3 0,3 0,0 Z"
       fill="#fbefef"
       transform="translate(65,58)"
       id="path43" /><path
       d="M 0,0 C 0.66,0 1.32,0 2,0 2,2.97 2,5.94 2,9 2.45375,8.34 2.9075,7.68 3.375,7 3.91125,6.34 4.4475,5.68 5,5 5.66,5 6.32,5 7,5 5.4722133,8.4375201 3.4981894,11.189537 1,14 0.34,14 -0.32,14 -1,14 -1,11.03 -1,8.06 -1,5 -1.928125,6.2375 -1.928125,6.2375 -2.875,7.5 -3.57625,8.325 -4.2775,9.15 -5,10 -5.66,10 -6.32,10 -7,10 -5.3259802,6.043226 -2.8685072,3.1553579 0,0 Z"
       fill="#f6d7d8"
       transform="translate(246,55)"
       id="path44" /><path
       d="M 0,0 C 0.66,0.33 1.32,0.66 2,1 2.6328125,3.5039063 2.6328125,3.5039063 3.125,6.5625 3.2925781,7.5744141 3.4601562,8.5863281 3.6328125,9.6289063 3.7539844,10.411367 3.8751563,11.193828 4,12 1.0655311,10.582084 -1.4333241,9.0166739 -4,7 c 0,1.98 0,3.96 0,6 C -4.66,12.67 -5.32,12.34 -6,12 -6.4140625,9.7148438 -6.4140625,9.7148438 -6.625,6.9375 -6.6997656,6.0183984 -6.7745312,5.0992969 -6.8515625,4.1523437 -6.9005469,3.4420703 -6.9495312,2.7317969 -7,2 -4.5063843,3.2038145 -2.3185692,4.4542872 0,6 0,4.02 0,2.04 0,0 Z"
       fill="#f9e5e5"
       transform="translate(130,25)"
       id="path45" /><path
       d="m 0,0 c 3.96,0.33 7.92,0.66 12,1 0,0.66 0,1.32 0,2 C 11.01,3.33 10.02,3.66 9,4 9,5.98 9,7.96 9,10 4.7109576,8.4114658 2.6765447,5.5687263 0,2 0,1.34 0,0.68 0,0 Z"
       fill="#e79797"
       transform="translate(36,98)"
       id="path46" /><path
       d="M 0,0 C 1.8149566,0.44850658 3.6269313,0.90909571 5.4375,1.375 6.4468359,1.6302344 7.4561719,1.8854687 8.4960938,2.1484375 11,3 11,3 12,5 11.175,5.433125 10.35,5.86625 9.5,6.3125 8.675,6.869375 7.85,7.42625 7,8 7,8.99 7,9.98 7,11 6.34,11 5.68,11 5,11 4.161512,9.5446243 3.3293607,8.0855963 2.5,6.625 1.8039062,5.4068359 1.8039062,5.4068359 1.09375,4.1640625 0,2 0,2 0,0 Z"
       fill="#efbbbb"
       transform="translate(52,72)"
       id="path47" /><path
       d="M 0,0 C 0.12375,0.969375 0.2475,1.93875 0.375,2.9375 0.58125,3.948125 0.7875,4.95875 1,6 c 0.66,0.33 1.32,0.66 2,1 0,0.66 0,1.32 0,2 -4.0527516,0.9824852 -7.8386174,1.081596 -12,1 0.928125,-1.11375 0.928125,-1.11375 1.875,-2.25 2.1223191,-2.5636803 2.1223191,-2.5636803 3.25,-5 C -2.9455596,0.89111918 -2.2167332,0 0,0 Z"
       fill="#fbecec"
       transform="translate(230,245)"
       id="path48" /><path
       d="M 0,0 C 0.33,0 0.66,0 1,0 1.12375,1.03125 1.2475,2.0625 1.375,3.125 1.8719821,6.9392941 1.8719821,6.9392941 3.125,10.1875 4.0180267,13.057943 4.0590096,14.246575 3,17 2.34,16.01 1.68,15.02 1,14 c -0.66,2.31 -1.32,4.62 -2,7 -1.125,-1.5625 -1.125,-1.5625 -2,-4 0.429313,-1.651204 0.8721172,-3.301544 1.4179688,-4.917969 C -0.48272789,8.1496239 -0.31033002,4.05879 0,0 Z m 0,16 c 0.99,0.495 0.99,0.495 2,1 C 1.67,17.66 1.34,18.32 1,19 0.67,18.01 0.34,17.02 0,16 Z"
       fill="#cf2425"
       transform="translate(168,165)"
       id="path49" /><path
       d="M 0,0 C 1.65,0.33 3.3,0.66 5,1 5.625,2.875 5.625,2.875 6,5 4,7 4,7 1.6171875,7.1953125 0.71226562,7.1721094 -0.19265625,7.1489062 -1.125,7.125 -2.4901172,7.0979297 -2.4901172,7.0979297 -3.8828125,7.0703125 -4.5814844,7.0471094 -5.2801562,7.0239062 -6,7 c 0,-0.66 0,-1.32 0,-2 1.65,0 3.3,0 5,0 0.33,-1.65 0.66,-3.3 1,-5 z"
       fill="#ecadad"
       transform="translate(277,101)"
       id="path50" /><path
       d="M 0,0 C 0.99,0.66 1.98,1.32 3,2 2.67,3.32 2.34,4.64 2,6 -1.3670428,6.2295711 -3.4137027,6.3394353 -6.375,4.625 -6.91125,4.08875 -7.4475,3.5525 -8,3 -8,2.34 -8,1.68 -8,1 -5.2289961,-0.38550197 -3.0665294,-0.1877467 0,0 Z"
       fill="#f8e0e0"
       transform="translate(194,67)"
       id="path51" /><path
       d="M 0,0 C 4.5726903,2.2863451 5.9952155,3.9936207 9,8 9,8.66 9,9.32 9,10 6.36,9.67 3.72,9.34 1,9 0.67,9.99 0.34,10.98 0,12 0,8.04 0,4.08 0,0 Z"
       fill="#fae8e9"
       transform="translate(113,30)"
       id="path52" /><path
       d="M 0,0 C 2.0072092,0.28674418 4.0085944,0.61866701 6,1 6,1.66 6,2.32 6,3 4.35,3 2.7,3 1,3 1.33,5.31 1.66,7.62 2,10 3.32,10 4.64,10 6,10 6,8.68 6,7.36 6,6 6.66,6 7.32,6 8,6 7.67,7.65 7.34,9.3 7,11 5.35,11.33 3.7,11.66 2,12 -2.0483271,6.7249071 -2.0483271,6.7249071 -1.8125,3.1875 -1,1 -1,1 0,0 Z"
       fill="#f5d1d2"
       transform="translate(101,34)"
       id="path53" /><path
       d="M 0,0 C 1,3 1,3 0,6 0.99,5.67 1.98,5.34 3,5 3.33,4.34 3.66,3.68 4,3 4.66,3.33 5.32,3.66 6,4 5.67,5.32 5.34,6.64 5,8 8.1133225,7.3313169 8.1133225,7.3313169 9.1875,4.9375 9.455625,4.298125 9.72375,3.65875 10,3 11,6 11,6 10.0625,8.1875 9.711875,8.785625 9.36125,9.38375 9,10 4.9439383,9.5319929 1.5341132,9.1204679 -2,7 -1.125,1.125 -1.125,1.125 0,0 Z"
       fill="#f6d7d7"
       transform="translate(32,107)"
       id="path54" /><path
       d="M 0,0 C 1.98,0.66 3.96,1.32 6,2 6,4.31 6,6.62 6,9 4,10 4,10 0,9 0,6.03 0,3.06 0,0 Z"
       fill="#dc5613"
       transform="translate(150,89)"
       id="path55" /><path
       d="m 0,0 c 1.84375,0.80078125 1.84375,0.80078125 3.09375,3.3632813 0.2475,0.8043749 0.495,1.6087499 0.75,2.4374999 -0.66,0 -1.32,0 -2,0 -0.66,-0.99 -1.32,-1.9799999 -2,-2.9999999 -0.66,0 -1.32,0 -2,0 0.33,1.65 0.66,3.2999999 1,4.9999999 -2.475,-0.99 -2.475,-0.99 -5,-2 0.66,1.9800001 1.32,3.9600001 2,5.9999998 -3,-1 -3,-1 -5,-3.9999998 0,-3 0,-3 1.390625,-4.4218749 C -7.1520312,2.940625 -6.5384375,2.5023438 -5.90625,2.0507813 -5.3029687,1.6021875 -4.6996875,1.1535937 -4.078125,0.69140625 -2.15625,-0.19921875 -2.15625,-0.19921875 0,0 Z"
       fill="#f6d9da"
       transform="translate(266.15625,76.199219)"
       id="path56" /><path
       d="M 0,0 C 1.9375,0.1875 1.9375,0.1875 4,1 5.25,3.0625 5.25,3.0625 6,5 3.525,4.01 3.525,4.01 1,3 1.350625,3.556875 1.70125,4.11375 2.0625,4.6875 3.2184599,7.5388678 2.8096744,9.0851722 2,12 -0.97,11.505 -0.97,11.505 -4,11 -4.33,9.68 -4.66,8.36 -5,7 -3.02,7.99 -1.04,8.98 1,10 0.484375,9.2575 -0.03125,8.515 -0.5625,7.75 -2,5 -2,5 -1.75,2.75 -1,1 -1,1 0,0 Z"
       fill="#f7dbdb"
       transform="translate(230,44)"
       id="path57" /><path
       d="M 0,0 C 0,0.66 0,1.32 0,2 -2.31,2.33 -4.62,2.66 -7,3 -7.33,6.63 -7.66,10.26 -8,14 -8.99,13.34 -9.98,12.68 -11,12 -11.765027,5.2240437 -11.765027,5.2240437 -9.4375,1.5 -6.1797198,-0.50478781 -3.7521717,-0.28862859 0,0 Z"
       fill="#c90e0f"
       transform="translate(107,234)"
       id="path58" /><path
       d="M 0,0 C 0.66,0.33 1.32,0.66 2,1 1.505,1.61875 1.01,2.2375 0.5,2.875 -1.1922277,4.838809 -1.1922277,4.838809 -1,7 0.65,6.34 2.3,5.68 4,5 3.34,6.32 2.68,7.64 2,9 5.0527046,9.1581139 5.0527046,9.1581139 8,8 7.67,8.99 7.34,9.98 7,11 4.4375,12.1875 4.4375,12.1875 2,13 0.99106869,11.903988 -0.00688225,10.797861 -1,9.6875 -1.556875,9.0726172 -2.11375,8.4577344 -2.6875,7.8242187 -4,6 -4,6 -4,3 -2,1.3125 -2,1.3125 0,0 Z"
       fill="#f8dfdf"
       transform="translate(75,50)"
       id="path59" /><path
       d="M 0,0 C 2.31,0.33 4.62,0.66 7,1 6.6512037,4.2554323 5.9786674,5.0187311 3.4375,7.25 2.2309375,8.11625 2.2309375,8.11625 1,9 c 1.32,0.66 2.64,1.32 4,2 0,0.66 0,1.32 0,2 C 2.36,12.34 -0.28,11.68 -3,11 -3,10.34 -3,9.68 -3,9 -1.46875,7.4921875 -1.46875,7.4921875 0.5,5.875 1.1496875,5.3361719 1.799375,4.7973437 2.46875,4.2421875 2.9740625,3.8322656 3.479375,3.4223438 4,3 2.68,2.01 1.36,1.02 0,0 Z"
       fill="#f6d7d7"
       transform="translate(191,27)"
       id="path60" /><path
       d="M 0,0 C 2,2 2,2 2,6 1.34,6 0.68,6 0,6 -0.33,4.68 -0.66,3.36 -1,2 c -2.0162233,0.7156327 -2.0162233,0.7156327 -4,2 -0.8052889,2.0500087 -0.8052889,2.0500087 -1,4 0.99,0.66 1.98,1.32 3,2 -1.65,0 -3.3,0 -5,0 C -8.75,7.25 -8.75,7.25 -9,4 -6.4756674,0.31059085 -4.4222003,-0.69824215 0,0 Z"
       fill="#f7dada"
       transform="translate(259,67)"
       id="path61" /><path
       d="m 0,0 c 1.98,0.66 3.96,1.32 6,2 -1.5550098,3.8168423 -4.035955,6.1919573 -7,9 1.32,0.33 2.64,0.66 4,1 -3,1 -3,1 -5.1875,0.0625 C -2.785625,11.711875 -3.38375,11.36125 -4,11 -2.6666791,7.0000371 -0.5042173,6.1621766 3,4 2.01,3.34 1.02,2.68 0,2 0,1.34 0,0.68 0,0 Z"
       fill="#f6d9da"
       transform="translate(203,30)"
       id="path62" /><path
       d="M 0,0 C 0.09765625,6.1523437 0.09765625,6.1523437 0,8 -1,9 -1,9 -4.0625,9.0625 -5.031875,9.041875 -6.00125,9.02125 -7,9 -6.6322962,5.6906654 -3.8132371,0 0,0 Z"
       fill="#f9e2e3"
       transform="translate(223,260)"
       id="path63" /><path
       d="M 0,0 C 0,1.65 0,3.3 0,5 -0.33,4.34 -0.66,3.68 -1,3 c -1.32,1.32 -2.64,2.64 -4,4 1.32,-0.33 2.64,-0.66 4,-1 0,1.98 0,3.96 0,6 -0.33,-0.99 -0.66,-1.98 -1,-3 -2.31,0 -4.62,0 -7,0 1.5433402,-3.7881987 4.5532343,-9 9,-9 z"
       fill="#fae9e9"
       transform="translate(218,36)"
       id="path64" /><path
       d="M 0,0 C 4.875,2.625 4.875,2.625 6,6 5.5625,8.6875 5.5625,8.6875 5,11 2.5,9.4375 2.5,9.4375 0,7 -0.3125,3.25 -0.3125,3.25 0,0 Z"
       fill="#f4c020"
       transform="translate(141,104)"
       id="path65" /><path
       d="M 0,0 C 0.33,0.99 0.66,1.98 1,3 0.67,3.66 0.34,4.32 0,5 -2.97,4.01 -5.94,3.02 -9,2 -6.9151984,-2.1696033 -3.9920135,-0.78104613 0,0 Z"
       fill="#da5216"
       transform="translate(143,89)"
       id="path66" /><path
       d="m 0,0 c 0.66,0.33 1.32,0.66 2,1 -3.7234684,4.420948 -7.2952104,8.5783348 -12,12 -0.66,-0.33 -1.32,-0.66 -2,-1 0.531094,-0.447305 1.062187,-0.894609 1.609375,-1.355469 C -6.5211168,7.3328536 -3.014127,4.1444246 0,0 Z"
       fill="#ce2526"
       transform="translate(269,258)"
       id="path67" /><path
       d="M 0,0 C 2,3 2,3 1.6875,4.9375 1.460625,5.618125 1.23375,6.29875 1,7 0.814375,7.7425 0.62875,8.485 0.4375,9.25 0.293125,9.8275 0.14875,10.405 0,11 c -0.66,0 -1.32,0 -2,0 -0.33,0.66 -0.66,1.32 -1,2 -0.99,-0.33 -1.98,-0.66 -3,-1 1.98,-3.96 3.96,-7.92 6,-12 z"
       fill="#cf2526"
       transform="translate(206,172)"
       id="path68" /><path
       d="M 0,0 C 0.33,0 0.66,0 1,0 1,2.31 1,4.62 1,7 2.65,7.33 4.3,7.66 6,8 5.34,9.32 4.68,10.64 4,12 2.68,11.67 1.36,11.34 0,11 0,7.37 0,3.74 0,0 Z"
       fill="#e58126"
       transform="translate(149,91)"
       id="path69" /><path
       d="m 0,0 c 5,2 5,2 10,4 0.66,-0.99 1.32,-1.98 2,-3 0.66,0.33 1.32,0.66 2,1 C 12.515,4.475 12.515,4.475 11,7 6.8063955,6.3290233 3.5966565,4.1441606 0,2 0,1.34 0,0.68 0,0 Z"
       fill="#f6d6d7"
       transform="translate(40,89)"
       id="path70" /><path
       d="M 0,0 C 4.2742558,1.5830577 6.2653179,4.505684 9,8 6,8 6,8 3,6 2.34,6 1.68,6 1,6 0.67,4.02 0.34,2.04 0,0 Z"
       fill="#f4cdce"
       transform="translate(65,58)"
       id="path71" /><path
       d="M 0,0 C 1.32,0 2.64,0 4,0 5,4 6,8 7,12 4,11 4,11 2.8320313,9.0039063 2.4955859,8.1982422 2.1591406,7.3925781 1.8125,6.5625 1.4683203,5.7594141 1.1241406,4.9563281 0.76953125,4.1289062 0,2 0,2 0,0 Z"
       fill="#cc3434"
       transform="translate(298,86)"
       id="path72" /><path
       d="M 0,0 C 2.5654594,2.5654594 2.5404609,4.4768667 3,8 1.02,8 -0.96,8 -3,8 -2.01,5.36 -1.02,2.72 0,0 Z"
       fill="#ce2525"
       transform="translate(236,233)"
       id="path73" /><path
       d="M 0,0 C 2.64,0 5.28,0 8,0 8,0.66 8,1.32 8,2 7.01,2.33 6.02,2.66 5,3 5,4.98 5,6.96 5,9 3.68,8.34 2.36,7.68 1,7 1,6.34 1,5.68 1,5 1.66,5 2.32,5 3,5 3,3.68 3,2.36 3,1 2.01,0.67 1.02,0.34 0,0 Z"
       fill="#f6d6d7"
       transform="translate(40,99)"
       id="path74" /><path
       d="M 0,0 C 0.99,0 1.98,0 3,0 3.625,1.875 3.625,1.875 4,4 3.34,4.66 2.68,5.32 2,6 1.67,6.99 1.34,7.98 1,9 0.67,9.99 0.34,10.98 0,12 -1.4949891,9.0100218 -1.1157745,6.2995722 -1,3 -0.67,2.01 -0.34,1.02 0,0 Z"
       fill="#d33d3e"
       transform="translate(308,203)"
       id="path75" /><path
       d="m 0,0 c 0,0.99 0,1.98 0,3 -2.64,0.33 -5.28,0.66 -8,1 0,-0.99 0,-1.98 0,-3 2.7087933,-1.35439668 5.0093327,-1.06501451 8,-1 z"
       fill="#cb1819"
       transform="translate(288,124)"
       id="path76" /><path
       d="M 0,0 C 0.99,0.495 0.99,0.495 2,1 2.6328125,3.5039063 2.6328125,3.5039063 3.125,6.5625 3.2925781,7.5744141 3.4601562,8.5863281 3.6328125,9.6289063 3.7539844,10.411367 3.8751563,11.193828 4,12 3.01,11.67 2.02,11.34 1,11 0.67,7.37 0.34,3.74 0,0 Z"
       fill="#f3cacb"
       transform="translate(130,25)"
       id="path77" /><path
       d="M 0,0 C 0.33,0 0.66,0 1,0 1.103125,1.0725 1.20625,2.145 1.3125,3.25 1.9740049,6.8582087 2.5748342,8.3639502 5,11 4.01,11.33 3.02,11.66 2,12 0.48046875,10.792969 0.48046875,10.792969 -1,9 -1.0742187,6.7382812 -1.0742187,6.7382812 -0.6875,4.3125 -0.56761719,3.5042578 -0.44773437,2.6960156 -0.32421875,1.8632812 -0.21722656,1.2483984 -0.11023438,0.63351563 0,0 Z"
       fill="#f3cbcb"
       transform="translate(95,239)"
       id="path78" /><path
       d="m 0,0 c 0.33,0 0.66,0 1,0 0,3 0,6 0,9 0.3108837,1.671 0.6408033,3.338715 1,5 -2.64465038,-3.125496 -3.8441471,-6.0878827 -5,-10 0.66,0 1.32,0 2,0 0.33,-1.32 0.66,-2.64 1,-4 z"
       fill="#ca1010"
       transform="translate(98,36)"
       id="path79" /><path
       d="M 0,0 C 0.5775,0.45375 1.155,0.9075 1.75,1.375 3.7800333,2.8411352 5.7353984,3.9485778 8,5 8,5.66 8,6.32 8,7 5.36,6.34 2.72,5.68 0,5 0,3.35 0,1.7 0,0 Z"
       fill="#e38788"
       transform="translate(114,33)"
       id="path80" /><path
       d="M 0,0 C 1,2 1,2 0.9375,4.375 1.0040222,7.1689327 1.5927685,8.6252968 3,11 1.35,10.67 -0.3,10.34 -2,10 -1.67,9.34 -1.34,8.68 -1,8 -1.2784375,7.071875 -1.2784375,7.071875 -1.5625,6.125 -2.119897,3.4176433 -1.403319,2.3113489 0,0 Z"
       fill="#ca1314"
       transform="translate(42,153)"
       id="path81" /><path
       d="M 0,0 C 0.66,0 1.32,0 2,0 2,1.32 2,2.64 2,4 2.66,4 3.32,4 4,4 3.67,5.65 3.34,7.3 3,9 2.34,9 1.68,9 1,9 0.67,6.03 0.34,3.06 0,0 Z"
       fill="#e68946"
       transform="translate(133,91)"
       id="path82" /><path
       d="M 0,0 C 1.875,1.5 1.875,1.5 3,3 -1.8333472,3.083334 -6.2369256,2.952615 -11,2 -11,1.67 -11,1.34 -11,1 -7.2635417,0.12083335 -3.8370291,-0.33365471 0,0 Z"
       fill="#d43d3e"
       transform="translate(154,67)"
       id="path83" /><path
       d="M 0,0 C -0.33,1.32 -0.66,2.64 -1,4 -2.65,3.67 -4.3,3.34 -6,3 c 0,-0.99 0,-1.98 0,-3 3,-1 3,-1 6,0 z"
       fill="#e58f90"
       transform="translate(108,238)"
       id="path84" /><path
       d="M 0,0 C 1.9375,0.375 1.9375,0.375 4,1 5.4783226,3.9566452 5.0603278,6.7422974 5,10 4.731875,9.4225 4.46375,8.845 4.1875,8.25 3.0494675,5.942521 3.0494675,5.942521 1.375,3.875 0,2 0,2 0,0 Z"
       fill="#fae9e9"
       transform="translate(108,234)"
       id="path85" /><path
       d="M 0,0 C 0.66,0 1.32,0 2,0 3.65,3.3 5.3,6.6 7,10 2.5732099,8.5244033 2.085673,6.0994263 0,2 0,1.34 0,0.68 0,0 Z"
       fill="#f6d7d7"
       transform="translate(92,39)"
       id="path86" /><path
       d="M 0,0 C 2.64752,2.5778485 4.9443206,4.916481 7,8 4.3333333,6.6666667 1.6666667,5.3333333 -1,4 -0.67,2.68 -0.34,1.36 0,0 Z"
       fill="#d61115"
       transform="translate(33,254)"
       id="path87" /><path
       d="M 0,0 C 0.66,0.99 1.32,1.98 2,3 1.67,3.99 1.34,4.98 1,6 0.01,6.33 -0.98,6.66 -2,7 -2.66,7.66 -3.32,8.32 -4,9 -3.4693094,5.1790276 -2.5029843,2.938286 0,0 Z"
       fill="#d42728"
       transform="translate(289,244)"
       id="path88" /><path
       d="M 0,0 C 1.65,0 3.3,0 5,0 4.34,1.98 3.68,3.96 3,6 2.01,6 1.02,6 0,6 0,4.02 0,2.04 0,0 Z"
       fill="#ce2425"
       transform="translate(190,238)"
       id="path89" /><path
       d="M 0,0 C 0.66,0 1.32,0 2,0 0.68775452,3.9367364 -0.91910327,6.2271929 -4,9 -4.66,8.67 -5.32,8.34 -6,8 -5.0495663,6.6610242 -4.0894085,5.3289457 -3.125,4 -2.5913281,3.2575 -2.0576563,2.515 -1.5078125,1.75 -1.0102344,1.1725 -0.51265625,0.595 0,0 Z"
       fill="#f7dcdd"
       transform="translate(240,51)"
       id="path90" /><path
       d="M 0,0 C 0.66,0 1.32,0 2,0 3.4783226,2.9566452 3.0603278,5.7422974 3,9 2.54625,8.360625 2.0925,7.72125 1.625,7.0625 0.16078274,4.9029759 0.16078274,4.9029759 -2,4 -1.34,2.68 -0.68,1.36 0,0 Z"
       fill="#da6060"
       transform="translate(215,39)"
       id="path91" /><path
       d="M 0,0 C -6.75,4 -6.75,4 -9,4 -8,1 -8,1 -6.1875,-0.25 -3.6605659,-1.1163774 -2.4777801,-0.88492145 0,0 Z"
       fill="#d63c3d"
       transform="translate(239,295)"
       id="path92" /><path
       d="M 0,0 C 1.125,1.75 1.125,1.75 2,4 1.125,6.25 1.125,6.25 0,8 -0.66,8 -1.32,8 -2,8 -2,5.69 -2,3.38 -2,1 -1.34,0.67 -0.68,0.34 0,0 Z"
       fill="#d02a2a"
       transform="translate(157,246)"
       id="path93" /><path
       d="M 0,0 C 1.2027282,2.4054564 1.1007147,3.9499695 1.0625,6.625 1.0534766,7.4422656 1.0444531,8.2595313 1.0351562,9.1015625 1.0235547,9.7280469 1.0119531,10.354531 1,11 0.34,11 -0.32,11 -1,11 -2.6735751,5.626943 -2.6735751,5.626943 -3,3 -1.625,1 -1.625,1 0,0 Z"
       fill="#d54445"
       transform="translate(245,59)"
       id="path94" /><path
       d="M 0,0 C 1.98,0.99 3.96,1.98 6,3 6.33,2.34 6.66,1.68 7,1 7.33,1.99 7.66,2.98 8,4 5.6875,4.625 5.6875,4.625 3,5 2.01,4.34 1.02,3.68 0,3 0,2.01 0,1.02 0,0 Z"
       fill="#f3c9ca"
       transform="translate(225,51)"
       id="path95" /><path
       d="M 0,0 C 0.66,0 1.32,0 2,0 2,1.65 2,3.3 2,5 0.02,5.66 -1.96,6.32 -4,7 -3.67,6.01 -3.34,5.02 -3,4 -2.01,4 -1.02,4 0,4 0,2.68 0,1.36 0,0 Z"
       fill="#d02e2f"
       transform="translate(147,32)"
       id="path96" /><path
       d="M 0,0 C 3.8209724,0.53069061 6.061714,1.4970157 9,4 2.25,3.125 2.25,3.125 0,2 0,1.34 0,0.68 0,0 Z"
       fill="#d73a3b"
       transform="translate(86,298)"
       id="path97" /><path
       d="M 0,0 C 0.99,0.33 1.98,0.66 3,1 3,2.32 3,3.64 3,5 1.68,5 0.36,5 -1,5 -0.67,3.35 -0.34,1.7 0,0 Z"
       fill="#cf2c2c"
       transform="translate(29,121)"
       id="path98" /><path
       d="M 0,0 C 0.33,0 0.66,0 1,0 1,3.63 1,7.26 1,11 -0.32,9.68 -1.64,8.36 -3,7 -2.34,6.67 -1.68,6.34 -1,6 -0.34227572,2.9706551 -0.34227572,2.9706551 0,0 Z"
       fill="#eb9932"
       transform="translate(142,94)"
       id="path99" /><path
       d="M 0,0 C 1.65,1.65 3.3,3.3 5,5 4.01,5.495 4.01,5.495 3,6 2.67,6.99 2.34,7.98 2,9 1.34,8.67 0.68,8.34 0,8 0,5.36 0,2.72 0,0 Z"
       fill="#d33e3f"
       transform="translate(125,30)"
       id="path100" /><path
       d="M 0,0 C 1.32,0 2.64,0 4,0 4.33,1.32 4.66,2.64 5,4 3.02,4.99 3.02,4.99 1,6 0,3 0,3 0,0 Z"
       fill="#ce2123"
       transform="translate(90,179)"
       id="path101" /><path
       d="M 0,0 C 0.99,0.33 1.98,0.66 3,1 2.67,2.65 2.34,4.3 2,6 1.34,6 0.68,6 0,6 -1.125,2.25 -1.125,2.25 0,0 Z"
       fill="#e47c11"
       transform="translate(138,95)"
       id="path102" /><path
       d="M 0,0 C 0.33,0.99 0.66,1.98 1,3 1.99,3.33 2.98,3.66 4,4 2.02,4.33 0.04,4.66 -2,5 -2.33,3.68 -2.66,2.36 -3,1 -2.01,0.67 -1.02,0.34 0,0 Z"
       fill="#d02614"
       transform="translate(147,83)"
       id="path103" /><path
       d="M 0,0 C 2.475,0.495 2.475,0.495 5,1 5,2.32 5,3.64 5,5 3.0625,4.1875 3.0625,4.1875 1,3 0.67,2.01 0.34,1.02 0,0 Z"
       fill="#d33839"
       transform="translate(280,58)"
       id="path104" /><path
       d="M 0,0 C 0.99,0.33 1.98,0.66 3,1 2.34,2.32 1.68,3.64 1,5 0.34,5 -0.32,5 -1,5 -1.33,3.68 -1.66,2.36 -2,1 -1.34,0.67 -0.68,0.34 0,0 Z"
       fill="#cd2324"
       transform="translate(85,45)"
       id="path105" /><path
       d="M 0,0 C 2.97,0.495 2.97,0.495 6,1 6,1.66 6,2.32 6,3 3.36,3.33 0.72,3.66 -2,4 -1.34,2.68 -0.68,1.36 0,0 Z"
       fill="#f2c5c5"
       transform="translate(101,34)"
       id="path106" /><path
       d="M 0,0 C -3.1349829,1.8577676 -5.3747143,2.2014048 -9,2 -5.8650171,0.14223235 -3.6252857,-0.20140476 0,0 Z"
       fill="#ae0000"
       transform="translate(126,1)"
       id="path107" /><path
       d="M 0,0 C 2.125,0.375 2.125,0.375 4,1 2.02,1.33 0.04,1.66 -2,2 -1.34,1.34 -0.68,0.68 0,0 Z"
       fill="#da0c0c"
       transform="translate(110,4)"
       id="path108" /><path
       d="M 0,0 C 0.66,0.33 1.32,0.66 2,1 0.02,1.99 0.02,1.99 -2,3 -1.34,2.01 -0.68,1.02 0,0 Z"
       fill="#7b0000"
       transform="translate(53,36)"
       id="path109" /><path
       d="M 0,0 C 2.475,0.495 2.475,0.495 5,1 4.01,1.33 3.02,1.66 2,2 1.34,1.34 0.68,0.68 0,0 Z"
       fill="#aa0000"
       transform="translate(217,9)"
       id="path110" /><path
       d="M 0,0 C 2.475,0.495 2.475,0.495 5,1 4.01,1.33 3.02,1.66 2,2 1.34,1.34 0.68,0.68 0,0 Z"
       fill="#940e0e"
       transform="translate(209,6)"
       id="path111" /><path
       d="M 0,0 C 1.65,0 3.3,0 5,0 5,0.33 5,0.66 5,1 3.35,1 1.7,1 0,1 0,0.67 0,0.34 0,0 Z"
       fill="#ff192a"
       transform="translate(127,315)"
       id="path112" /><path
       d="M 0,0 C 1.65,0 3.3,0 5,0 5,0.33 5,0.66 5,1 3.35,1 1.7,1 0,1 0,0.67 0,0.34 0,0 Z"
       fill="#b20000"
       transform="translate(194,313)"
       id="path113" /><path
       d="M 0,0 C 0.33,0 0.66,0 1,0 1,1.65 1,3.3 1,5 0.67,5 0.34,5 0,5 0,3.35 0,1.7 0,0 Z"
       fill="#bb0000"
       transform="translate(1,190)"
       id="path114" /><path
       d="M 0,0 C 0.33,0 0.66,0 1,0 1,1.65 1,3.3 1,5 0.67,5 0.34,5 0,5 0,3.35 0,1.7 0,0 Z"
       fill="#bb0000"
       transform="translate(1,121)"
       id="path115" /><path
       d="M 0,0 C 1.65,0 3.3,0 5,0 5,0.33 5,0.66 5,1 3.35,1 1.7,1 0,1 0,0.67 0,0.34 0,0 Z"
       fill="#ee1919"
       transform="translate(190,1)"
       id="path116" /><path
       d="M 0,0 C 1.65,0 3.3,0 5,0 5,0.33 5,0.66 5,1 3.35,1 1.7,1 0,1 0,0.67 0,0.34 0,0 Z"
       fill="#bf2a2a"
       transform="translate(185)"
       id="path117" /><path
       d="M 0,0 C 1.65,0 3.3,0 5,0 5,0.33 5,0.66 5,1 3.35,1 1.7,1 0,1 0,0.67 0,0.34 0,0 Z"
       fill="#7b1111"
       transform="translate(126)"
       id="path118" /><path
       d="M 0,0 C 4,1 4,1 4,1 Z"
       fill="#d92f2f"
       transform="translate(185,315)"
       id="path119" /><path
       d="M 0,0 C 4,1 4,1 4,1 Z"
       fill="#b43f3f"
       transform="translate(190,314)"
       id="path120" /><path
       d="M 0,0 C 4,1 4,1 4,1 Z"
       fill="#c90000"
       transform="translate(122,314)"
       id="path121" /><path
       d="M 0,0 C 4,1 4,1 4,1 Z"
       fill="#d40000"
       transform="translate(118,313)"
       id="path122" /><path
       d="M 0,0 C 4,1 4,1 4,1 Z"
       fill="#ff0000"
       transform="translate(202,311)"
       id="path123" /><path
       d="M 0,0 C 4,1 4,1 4,1 Z"
       fill="#9f0000"
       transform="translate(111,311)"
       id="path124" /><path
       d="M 0,0 C 0.99,0.33 1.98,0.66 3,1 2.01,1 1.02,1 0,1 0,0.67 0,0.34 0,0 Z"
       fill="#4a0000"
       transform="translate(74,294)"
       id="path125" /><path
       d="M 0,0 C 0.66,0.33 1.32,0.66 2,1 1.01,1 0.02,1 -1,1 -0.67,0.67 -0.34,0.34 0,0 Z"
       fill="#ff0000"
       transform="translate(256,283)"
       id="path126" /><path
       d="M 0,0 C 0.66,0.33 1.32,0.66 2,1 1.01,1 0.02,1 -1,1 -0.67,0.67 -0.34,0.34 0,0 Z"
       fill="#ff0000"
       transform="translate(262,278)"
       id="path127" /><path
       d="M 0,0 C 1,4 1,4 1,4 Z"
       fill="#e90000"
       transform="translate(4,202)"
       id="path128" /><path
       d="M 0,0 C 1,4 1,4 1,4 Z"
       fill="#ff1515"
       transform="translate(313,196)"
       id="path129" /><path
       d="M 0,0 C 1,4 1,4 1,4 Z"
       fill="#b40000"
       transform="translate(2,195)"
       id="path130" /><path
       d="M 0,0 C 1,4 1,4 1,4 Z"
       fill="#cf4444"
       transform="translate(315,187)"
       id="path131" /><path
       d="M 0,0 C 1,4 1,4 1,4 Z"
       fill="#d90000"
       transform="translate(0,186)"
       id="path132" /><path
       d="M 0,0 C 1,4 1,4 1,4 Z"
       fill="#d90000"
       transform="translate(0,126)"
       id="path133" /><path
       d="M 0,0 C 1,4 1,4 1,4 Z"
       fill="#cf4444"
       transform="translate(315,125)"
       id="path134" /><path
       d="M 0,0 C 1,4 1,4 1,4 Z"
       fill="#b40000"
       transform="translate(2,117)"
       id="path135" /><path
       d="M 0,0 C 1,4 1,4 1,4 Z"
       fill="#ff1515"
       transform="translate(313,116)"
       id="path136" /><path
       d="M 0,0 C 1,4 1,4 1,4 Z"
       fill="#e90000"
       transform="translate(4,110)"
       id="path137" /><path
       d="M 0,0 C 0.99,0.33 1.98,0.66 3,1 2.01,1 1.02,1 0,1 0,0.67 0,0.34 0,0 Z"
       fill="#e91f1f"
       transform="translate(255,31)"
       id="path138" /><path
       d="M 0,0 C 0.99,0.33 1.98,0.66 3,1 2.01,1 1.02,1 0,1 0,0.67 0,0.34 0,0 Z"
       fill="#aa0000"
       transform="translate(244,23)"
       id="path139" /><path
       d="M 0,0 C 0.66,0.33 1.32,0.66 2,1 1.01,1 0.02,1 -1,1 -0.67,0.67 -0.34,0.34 0,0 Z"
       fill="#8a0000"
       transform="translate(80,17)"
       id="path140" /><path
       d="M 0,0 C 4,1 4,1 4,1 Z"
       fill="#c90000"
       transform="translate(202,4)"
       id="path141" /><path
       d="M 0,0 C 4,1 4,1 4,1 Z"
       fill="#e90015"
       transform="translate(195,2)"
       id="path142" /><path
       d="M 0,0 C 3,1 3,1 3,1 Z"
       fill="#c61c1c"
       transform="translate(199,312)"
       id="path143" /><path
       d="M 0,0 C 3,1 3,1 3,1 Z"
       fill="#ff2a2a"
       transform="translate(115,312)"
       id="path144" /><path
       d="M 0,0 C 3,1 3,1 3,1 Z"
       fill="#b81c1c"
       transform="translate(108,310)"
       id="path145" /><path
       d="M 0,0 C 3,1 3,1 3,1 Z"
       fill="#e20000"
       transform="translate(105,309)"
       id="path146" /><path
       d="M 0,0 C 3,1 3,1 3,1 Z"
       fill="#b80000"
       transform="translate(211,308)"
       id="path147" /><path
       d="M 0,0 C 3,1 3,1 3,1 Z"
       fill="#ff0000"
       transform="translate(102,308)"
       id="path148" /><path
       d="M 0,0 C 3,1 3,1 3,1 Z"
       fill="#b80000"
       transform="translate(97,306)"
       id="path149" /><path
       d="M 0,0 C 3,1 3,1 3,1 Z"
       fill="#d40000"
       transform="translate(90,303)"
       id="path150" /><path
       d=""
       fill="#630000"
       id="path151" /><path
       d=""
       fill="#d47171"
       id="path152" /><path
       d=""
       fill="#940000"
       id="path153" /><path
       d=""
       fill="#940000"
       id="path154" /><path
       d=""
       fill="#d47171"
       id="path155" /><path
       d=""
       fill="#aa0000"
       id="path156" /><path
       d="M 0,0 C 3,1 3,1 3,1 Z"
       fill="#8d0000"
       transform="translate(90,12)"
       id="path157" /><path
       d="M 0,0 C 3,1 3,1 3,1 Z"
       fill="#b80000"
       transform="translate(97,9)"
       id="path158" /><path
       d="M 0,0 C 3,1 3,1 3,1 Z"
       fill="#aa1c1c"
       transform="translate(214,8)"
       id="path159" /><path
       d="M 0,0 C 3,1 3,1 3,1 Z"
       fill="#ff0000"
       transform="translate(102,7)"
       id="path160" /><path
       d="M 0,0 C 3,1 3,1 3,1 Z"
       fill="#8d0000"
       transform="translate(105,6)"
       id="path161" /><path
       d="M 0,0 C 3,1 3,1 3,1 Z"
       fill="#ff7171"
       transform="translate(199,3)"
       id="path162" /><path
       d="M 0,0 C 3,1 3,1 3,1 Z"
       fill="#c61c1c"
       transform="translate(114,3)"
       id="path163" /><path
       d="M 0,0 C 2,1 2,1 2,1 Z"
       fill="#ff2a2a"
       transform="translate(206,310)"
       id="path164" /><path
       d="M 0,0 C 2,1 2,1 2,1 Z"
       fill="#d43f3f"
       transform="translate(209,309)"
       id="path165" /><path
       d="M 0,0 C 2,1 2,1 2,1 Z"
       fill="#ff3f3f"
       transform="translate(214,307)"
       id="path166" /><path
       d="M 0,0 C 2,1 2,1 2,1 Z"
       fill="#94003f"
       transform="translate(100,307)"
       id="path167" /><path
       d="M 0,0 C 2,1 2,1 2,1 Z"
       fill="#d43f3f"
       transform="translate(217,306)"
       id="path168" /><path
       d="M 0,0 C 2,1 2,1 2,1 Z"
       fill="#d40000"
       transform="translate(219,305)"
       id="path169" /><path
       d="M 0,0 C 2,1 2,1 2,1 Z"
       fill="#df0000"
       transform="translate(95,305)"
       id="path170" /><path
       d="M 0,0 C 2,1 2,1 2,1 Z"
       fill="#ff0000"
       transform="translate(222,304)"
       id="path171" /><path
       d="M 0,0 C 2,1 2,1 2,1 Z"
       fill="#940000"
       transform="translate(93,304)"
       id="path172" /><path
       d="M 0,0 C 2,1 2,1 2,1 Z"
       fill="#d40000"
       transform="translate(224,303)"
       id="path173" /><path
       d="M 0,0 C 2,1 2,1 2,1 Z"
       fill="#d40000"
       transform="translate(226,302)"
       id="path174" /><path
       d="M 0,0 C 2,1 2,1 2,1 Z"
       fill="#943f3f"
       transform="translate(228,301)"
       id="path175" /><path
       d="M 0,0 C 2,1 2,1 2,1 Z"
       fill="#d40000"
       transform="translate(86,301)"
       id="path176" /><path
       d="M 0,0 C 2,1 2,1 2,1 Z"
       fill="#d40000"
       transform="translate(230,300)"
       id="path177" /><path
       d="M 0,0 C 2,1 2,1 2,1 Z"
       fill="#550000"
       transform="translate(84,300)"
       id="path178" /><path
       d="M 0,0 C 2,1 2,1 2,1 Z"
       fill="#d40000"
       transform="translate(232,299)"
       id="path179" /><path
       d="M 0,0 C 2,1 2,1 2,1 Z"
       fill="#d40000"
       transform="translate(234,298)"
       id="path180" /><path
       d="M 0,0 C 2,1 2,1 2,1 Z"
       fill="#7f0000"
       transform="translate(81,298)"
       id="path181" /><path
       d="M 0,0 C 2,1 2,1 2,1 Z"
       fill="#ff0000"
       transform="translate(79,297)"
       id="path182" /><path
       d="M 0,0 C 2,1 2,1 2,1 Z"
       fill="#bf3f3f"
       transform="translate(237,296)"
       id="path183" /><path
       d="M 0,0 C 2,1 2,1 2,1 Z"
       fill="#d40000"
       transform="translate(77,296)"
       id="path184" /><path
       d="M 0,0 C 2,1 2,1 2,1 Z"
       fill="#d40000"
       transform="translate(239,295)"
       id="path185" /><path
       d="M 0,0 C 2,1 2,1 2,1 Z"
       fill="#bf0000"
       transform="translate(242,293)"
       id="path186" /><path
       d="M 0,0 C 2,1 2,1 2,1 Z"
       fill="#d40000"
       transform="translate(72,293)"
       id="path187" /><path
       d="M 0,0 C 2,1 2,1 2,1 Z"
       fill="#bf3f3f"
       transform="translate(245,291)"
       id="path188" /><path
       d="M 0,0 C 2,1 2,1 2,1 Z"
       fill="#d40000"
       transform="translate(69,291)"
       id="path189" /><path
       d="M 0,0 C 2,1 2,1 2,1 Z"
       fill="#bf0000"
       transform="translate(248,289)"
       id="path190" /><path
       d="M 0,0 C 2,1 2,1 2,1 Z"
       fill="#ff0000"
       transform="translate(65,288)"
       id="path191" /><path
       d="M 0,0 C 2,1 2,1 2,1 Z"
       fill="#df0000"
       transform="translate(251,287)"
       id="path192" /><path
       d="M 0,0 C 2,1 2,1 2,1 Z"
       fill="#bf0000"
       transform="translate(62,286)"
       id="path193" /><path
       d="M 0,0 C 2,1 2,1 2,1 Z"
       fill="#7f0000"
       transform="translate(57,282)"
       id="path194" /><path
       d="M 0,0 C 2,1 2,1 2,1 Z"
       fill="#df0000"
       transform="translate(51,277)"
       id="path195" /><path
       d=""
       fill="#df0000"
       id="path196" /><path
       d=""
       fill="#ff3f3f"
       id="path197" /><path
       d=""
       fill="#aa2a2a"
       id="path198" /><path
       d=""
       fill="#aa2a2a"
       id="path199" /><path
       d=""
       fill="#aa2a2a"
       id="path200" /><path
       d=""
       fill="#ff7f7f"
       id="path201" /><path
       d=""
       fill="#bf2a2a"
       id="path202" /><path
       d=""
       fill="#bf0000"
       id="path203" /><path
       d="M 0,0 C 2,1 2,1 2,1 Z"
       fill="#ff0000"
       transform="translate(62,29)"
       id="path204" /><path
       d="M 0,0 C 2,1 2,1 2,1 Z"
       fill="#ff0000"
       transform="translate(251,28)"
       id="path205" /><path
       d="M 0,0 C 2,1 2,1 2,1 Z"
       fill="#ff0000"
       transform="translate(66,26)"
       id="path206" /><path
       d="M 0,0 C 2,1 2,1 2,1 Z"
       fill="#ff0000"
       transform="translate(69,24)"
       id="path207" /><path
       d="M 0,0 C 2,1 2,1 2,1 Z"
       fill="#bf0000"
       transform="translate(242,22)"
       id="path208" /><path
       d="M 0,0 C 2,1 2,1 2,1 Z"
       fill="#d40000"
       transform="translate(72,22)"
       id="path209" /><path
       d="M 0,0 C 2,1 2,1 2,1 Z"
       fill="#d40000"
       transform="translate(239,20)"
       id="path210" /><path
       d="M 0,0 C 2,1 2,1 2,1 Z"
       fill="#d40000"
       transform="translate(75,20)"
       id="path211" /><path
       d="M 0,0 C 2,1 2,1 2,1 Z"
       fill="#ff0000"
       transform="translate(237,19)"
       id="path212" /><path
       d="M 0,0 C 2,1 2,1 2,1 Z"
       fill="#d40000"
       transform="translate(77,19)"
       id="path213" /><path
       d="M 0,0 C 2,1 2,1 2,1 Z"
       fill="#d40000"
       transform="translate(234,17)"
       id="path214" /><path
       d="M 0,0 C 2,1 2,1 2,1 Z"
       fill="#d40000"
       transform="translate(232,16)"
       id="path215" /><path
       d="M 0,0 C 2,1 2,1 2,1 Z"
       fill="#ff0000"
       transform="translate(230,15)"
       id="path216" /><path
       d="M 0,0 C 2,1 2,1 2,1 Z"
       fill="#d40000"
       transform="translate(84,15)"
       id="path217" /><path
       d="M 0,0 C 2,1 2,1 2,1 Z"
       fill="#ff0000"
       transform="translate(228,14)"
       id="path218" /><path
       d="M 0,0 C 2,1 2,1 2,1 Z"
       fill="#d40000"
       transform="translate(86,14)"
       id="path219" /><path
       d="M 0,0 C 2,1 2,1 2,1 Z"
       fill="#d40000"
       transform="translate(226,13)"
       id="path220" /><path
       d="M 0,0 C 2,1 2,1 2,1 Z"
       fill="#ff0000"
       transform="translate(88,13)"
       id="path221" /><path
       d="M 0,0 C 2,1 2,1 2,1 Z"
       fill="#940000"
       transform="translate(224,12)"
       id="path222" /><path
       d="M 0,0 C 2,1 2,1 2,1 Z"
       fill="#ff0000"
       transform="translate(222,11)"
       id="path223" /><path
       d="M 0,0 C 2,1 2,1 2,1 Z"
       fill="#d40000"
       transform="translate(93,11)"
       id="path224" /><path
       d="M 0,0 C 2,1 2,1 2,1 Z"
       fill="#940000"
       transform="translate(95,10)"
       id="path225" /><path
       d="M 0,0 C 2,1 2,1 2,1 Z"
       fill="#d43f3f"
       transform="translate(100,8)"
       id="path226" /><path
       d="M 0,0 C 2,1 2,1 2,1 Z"
       fill="#df3f3f"
       transform="translate(206,5)"
       id="path227" /><path
       d=""
       fill="#ff0000"
       id="path228" /><path
       d=""
       fill="#aa0000"
       id="path229" /><path
       d=""
       fill="#ff7f7f"
       id="path230" /><path
       d=""
       fill="#aa0000"
       id="path231" /><path
       d=""
       fill="#aa0000"
       id="path232" /><path
       d=""
       fill="#ff0000"
       id="path233" /><path
       d=""
       fill="#aa0000"
       id="path234" /><path
       d=""
       fill="#ff0000"
       id="path235" /><path
       d=""
       fill="#bf0000"
       id="path236" /><path
       d=""
       fill="#aa0000"
       id="path237" /><path
       d=""
       fill="#ff0000"
       id="path238" /><path
       d=""
       fill="#ff0000"
       id="path239" /><path
       d=""
       fill="#aa0000"
       id="path240" /><path
       d=""
       fill="#ff0000"
       id="path241" /><path
       d=""
       fill="#aa0000"
       id="path242" /><path
       d=""
       fill="#aa0000"
       id="path243" /><path
       d=""
       fill="#aa0000"
       id="path244" /><path
       d=""
       fill="#ff0000"
       id="path245" /><path
       d=""
       fill="#aa0000"
       id="path246" /><path
       d=""
       fill="#aa0000"
       id="path247" /><path
       d=""
       fill="#aa0000"
       id="path248" /><path
       d=""
       fill="#bf0000"
       id="path249" /><path
       d=""
       fill="#aa0000"
       id="path250" /><path
       d=""
       fill="#ff0000"
       id="path251" /><path
       d=""
       fill="#ff7f7f"
       id="path252" /><path
       d=""
       fill="#ff0000"
       id="path253" /><path
       d=""
       fill="#bf0000"
       id="path254" /><path
       d=""
       fill="#ff0000"
       id="path255" /><path
       d=""
       fill="#ff5555"
       id="path256" /><path
       d=""
       fill="#ff0000"
       id="path257" /><path
       d=""
       fill="#ff5555"
       id="path258" /><path
       d=""
       fill="#ff0000"
       id="path259" /><path
       d=""
       fill="#ff0000"
       id="path260" /><path
       d=""
       fill="#aa0000"
       id="path261" /><path
       d=""
       fill="#bf0000"
       id="path262" /><path
       d=""
       fill="#ff7f7f"
       id="path263" /><path
       d=""
       fill="#aa0000"
       id="path264" /><path
       d=""
       fill="#aa0000"
       id="path265" /><path
       d=""
       fill="#bf0000"
       id="path266" /><path
       d=""
       fill="#aa0000"
       id="path267" /><path
       d=""
       fill="#bf0000"
       id="path268" /><path
       d=""
       fill="#ff0000"
       id="path269" /><path
       d=""
       fill="#bf0000"
       id="path270" /><path
       d=""
       fill="#aa0000"
       id="path271" /><path
       d=""
       fill="#ff5555"
       id="path272" /><path
       d=""
       fill="#7f0000"
       id="path273" /><path
       d=""
       fill="#ff5555"
       id="path274" /><path
       d=""
       fill="#aa5555"
       id="path275" /><path
       d=""
       fill="#bf0000"
       id="path276" /><path
       d=""
       fill="#bf0000"
       id="path277" /><path
       d=""
       fill="#aa0000"
       id="path278" /><path
       d=""
       fill="#ff5500"
       id="path279" /><path
       d=""
       fill="#ff0000"
       id="path280" /><path
       d=""
       fill="#aa0000"
       id="path281" /><path
       d=""
       fill="#bf0000"
       id="path282" /><path
       d=""
       fill="#ff7f7f"
       id="path283" /><path
       d=""
       fill="#aa0000"
       id="path284" /><path
       d=""
       fill="#ff5555"
       id="path285" /><path
       d=""
       fill="#aa0000"
       id="path286" /><path
       d=""
       fill="#ff7f7f"
       id="path287" /><path
       d=""
       fill="#7f0000"
       id="path288" /><path
       d=""
       fill="#aa0000"
       id="path289" /><path
       d=""
       fill="#ff0000"
       id="path290" /><path
       d=""
       fill="#aa0000"
       id="path291" /><path
       d=""
       fill="#ff0000"
       id="path292" /><path
       d=""
       fill="#bf0000"
       id="path293" /><path
       d=""
       fill="#aa0000"
       id="path294" /><path
       d=""
       fill="#ff0000"
       id="path295" /><path
       d=""
       fill="#ff0000"
       id="path296" /><path
       d=""
       fill="#ff0000"
       id="path297" /><path
       d=""
       fill="#ff0000"
       id="path298" /><path
       d=""
       fill="#aa0000"
       id="path299" /><path
       d=""
       fill="#bf0000"
       id="path300" /><path
       d=""
       fill="#aa0000"
       id="path301" /><path
       d=""
       fill="#bf0000"
       id="path302" /><path
       d=""
       fill="#aa0000"
       id="path303" /><path
       d=""
       fill="#aa0000"
       id="path304" /><path
       d=""
       fill="#ff0000"
       id="path305" /><path
       d=""
       fill="#bf0000"
       id="path306" /><path
       d=""
       fill="#ff0000"
       id="path307" /><path
       d=""
       fill="#ff0000"
       id="path308" /><path
       d=""
       fill="#ff0000"
       id="path309" /><path
       d=""
       fill="#bf0000"
       id="path310" /><path
       d=""
       fill="#ff0000"
       id="path311" /><path
       d=""
       fill="#bf3f3f"
       id="path312" /><path
       d=""
       fill="#ff0000"
       id="path313" /><path
       d=""
       fill="#bf0000"
       id="path314" /><path
       d=""
       fill="#ff0000"
       id="path315" /><path
       d=""
       fill="#aa5555"
       id="path316" /><path
       d=""
       fill="#ff0000"
       id="path317" /><path
       d=""
       fill="#aa0000"
       id="path318" /><path
       d=""
       fill="#aa0000"
       id="path319" /><path
       d=""
       fill="#ff0000"
       id="path320" /><path
       d=""
       fill="#ff0000"
       id="path321" /><path
       d=""
       fill="#ff0000"
       id="path322" /><path
       d=""
       fill="#aa0000"
       id="path323" /><path
       d=""
       fill="#bf0000"
       id="path324" /><path
       d=""
       fill="#aa0000"
       id="path325" /><path
       d=""
       fill="#ff0000"
       id="path326" /><path
       d=""
       fill="#ff0000"
       id="path327" /><path
       d=""
       fill="#ff0000"
       id="path328" /><path
       d=""
       fill="#ff0000"
       id="path329" /><path
       d=""
       fill="#aa0000"
       id="path330" /><path
       d=""
       fill="#aa0000"
       id="path331" /><path
       d=""
       fill="#ff0000"
       id="path332" /><path
       d=""
       fill="#aa0000"
       id="path333" /><path
       d=""
       fill="#ff0000"
       id="path334" /><path
       d=""
       fill="#aa0000"
       id="path335" /><path
       d=""
       fill="#ff0000"
       id="path336" /></g></svg>
