<?xml version="1.0" encoding="UTF-8" standalone="no"?>
<svg
   viewBox="0 0 24 24"
   width="24pt"
   height="24pt"
   version="1.1"
   id="svg8665"
   sodipodi:docname="perfect_getaways.svg"
   xml:space="preserve"
   inkscape:version="1.2.2 (732a01da63, 2022-12-09)"
   xmlns:inkscape="http://www.inkscape.org/namespaces/inkscape"
   xmlns:sodipodi="http://sodipodi.sourceforge.net/DTD/sodipodi-0.dtd"
   xmlns="http://www.w3.org/2000/svg"
   xmlns:svg="http://www.w3.org/2000/svg"><defs
     id="defs8669" /><sodipodi:namedview
     id="namedview8667"
     pagecolor="#ffffff"
     bordercolor="#000000"
     borderopacity="0.25"
     inkscape:showpageshadow="2"
     inkscape:pageopacity="0.0"
     inkscape:pagecheckerboard="0"
     inkscape:deskcolor="#d1d1d1"
     inkscape:document-units="pt"
     showgrid="false"
     inkscape:zoom="12.640625"
     inkscape:cx="-7.0012361"
     inkscape:cy="12.341162"
     inkscape:window-width="1920"
     inkscape:window-height="974"
     inkscape:window-x="-11"
     inkscape:window-y="1609"
     inkscape:window-maximized="1"
     inkscape:current-layer="svg8665" /><g
     transform="matrix(0.03786978,0,0,-0.03786978,-43.960161,17.670146)"
     fill="#000000"
     stroke="none"
     id="g8868"><path
       d="m 1307.9706,296.98909 c 22.1899,-25.88818 122.0443,-75.8154 150.7062,-75.8154 11.095,0 21.2653,-4.62289 21.2653,-10.17036 0,-13.86867 -48.078,-2.77373 -110.9493,24.96361 -44.3798,19.41614 -48.0781,20.34072 -27.7374,3.69831 12.9441,-10.17036 30.5111,-20.34072 39.7569,-24.03903 8.3212,-2.77373 15.7178,-9.24578 15.7178,-13.86867 0,-4.62289 27.7374,-8.3212 62.8713,-8.3212 l 61.9468,-0.92458 -32.3603,-27.73734 c -22.1899,-18.49156 -24.9636,-24.96361 -11.0949,-17.56698 12.0195,5.54746 23.1144,9.24578 25.8882,7.39662 1.8491,-1.84916 -20.3407,-35.13396 -49.0027,-72.117092 -27.7373,-37.907693 -41.606,-61.022145 -30.511,-50.851786 11.0949,10.170359 44.3797,53.625526 73.9662,97.080698 52.7009,78.58913 82.2874,102.62816 122.9689,100.779 14.7932,0 10.1703,-4.62289 -18.4916,-17.56698 -61.9467,-27.73734 -87.8349,-98.92985 -48.078,-134.988402 l 19.4161,-17.56698 -16.6424,29.5865 c -15.7178,26.812762 -15.7178,31.435652 -1.8492,61.022152 17.567,37.9077 71.1925,66.56962 107.2511,58.24842 l 24.9636,-5.54747 -22.1899,18.49156 c -20.3407,17.56698 -29.5865,18.49156 -116.4968,12.94409 -88.7595,-5.54747 -97.0807,-4.62289 -147.0079,17.56699 -28.6619,13.86867 -65.6451,33.28481 -82.2875,45.30432 l -29.5865,20.34072 z"
       id="path8834"
       style="fill:#8c2c85;fill-opacity:1;stroke-width:0.924578" /></g></svg>
