<?xml version="1.0" encoding="UTF-8" standalone="no"?>
<svg
   viewBox="0 0 24 24"
   width="24pt"
   height="24pt"
   version="1.1"
   id="svg542"
   xml:space="preserve"
   xmlns="http://www.w3.org/2000/svg"
   xmlns:svg="http://www.w3.org/2000/svg"><defs
     id="defs546" /><g
     id="g890"
     transform="matrix(0.09129316,0,0,0.09129316,-59.602347,-80.499064)"><g
       id="g902"
       transform="matrix(0.33436506,0,0,0.33436506,597.12454,873.10744)"><path
         fill="#fecd00"
         opacity="1"
         stroke="none"
         d="m 719.99274,370.86206 c -2.43378,9.6203 -4.85443,18.82629 -7.27503,28.03226 0.63159,0.2778 1.26325,0.55557 1.89484,0.83337 1.31024,-1.58551 2.76214,-3.07556 3.906,-4.77322 4.63123,-6.87381 9.69696,-13.53082 13.5625,-20.81934 2.81678,-5.31091 3.91767,-11.51657 5.94965,-17.26459 1.28107,-3.62396 2.53949,-7.32641 4.42377,-10.64398 1.47149,-2.59091 3.54376,-2.52682 6.64245,-0.96109 6.46955,3.26908 7.49128,11.53003 6.38739,16.90991 -0.67981,3.31275 -1.01318,6.6966 -1.47991,9.89701 3.61962,-4.538 7.18408,-9.18448 10.93896,-13.67157 5.26922,-6.29673 18.1192,-7.01508 20.89587,1.84408 1.50623,4.80585 1.0127,10.40101 0.64374,15.58481 -0.34717,4.87821 -1.71533,9.68369 -1.78692,14.84348 8.43127,-12.60987 16.86028,-25.22123 25.29431,-37.8292 7.98175,-11.93185 22.19574,-11.06216 28.31994,-3.00897 0.57807,0.7601 1.41187,1.47187 1.63544,2.33362 3.70642,14.28198 -5.01831,30.4454 -19.25024,35.79425 -6.45044,2.42429 -8.90217,7.28738 -7.17469,14.05173 0.36023,1.41031 0.27442,2.93783 0.66217,4.33706 0.91425,3.29914 3.91608,4.49625 6.55817,2.2667 4.68494,-3.95337 9.03564,-8.30063 13.58966,-12.41287 1.10608,-0.99881 2.45923,-1.724 3.81049,-2.65168 4.81799,10.93585 -9.7132,24.83918 -22.66303,26.41233 -9.89587,1.20214 -19.40191,-7.54291 -20.87597,-25.24537 -2.75574,4.42905 -4.75782,8.70722 -7.74012,12.13172 -2.78906,3.20248 -6.29376,6.14944 -10.07025,8.03165 -4.784,2.38433 -9.50598,-0.12192 -11.8045,-4.79609 -3.11805,-6.34066 -1.68,-12.73962 -0.44635,-19.09494 0.91803,-4.72882 2.24469,-9.38418 3.52331,-14.03549 1.2569,-4.57242 2.68274,-9.09845 4.03443,-13.64483 -0.53943,-0.31733 -1.07886,-0.63462 -1.61823,-0.95191 -3.11816,4.39786 -6.48157,8.6445 -9.30463,13.22424 -6.39184,10.3689 -11.00482,21.53705 -14.16168,33.31083 -0.41565,1.55047 -1.11462,3.05108 -1.85919,4.48287 -3.72388,7.16111 -11.41888,9.11521 -16.84003,3.32883 -1.91589,-2.04486 -0.82733,-6.99194 -0.91601,-10.61877 -0.0359,-1.46936 0.44757,-2.95139 0.57739,-3.72727 -4.2464,3.98697 -8.36188,8.58487 -13.25525,12.10004 -2.08441,1.49735 -6.05487,1.57385 -8.69464,0.75998 -2.72882,-0.84131 -6.42755,-1.99738 -6.11896,-6.55222 0.1366,-2.01672 -0.74121,-4.10211 -1.29339,-6.81985 -2.36524,3.62851 -4.33496,7.03775 -6.69971,10.14657 -1.67401,2.20075 -3.82324,4.05854 -5.86316,5.95905 -6.27399,5.84515 -21.05792,-4.92661 -21.30829,-14.38159 -0.43048,-16.25354 5.09387,-29.85416 14.60242,-42.45581 6.17041,-8.17767 13.20691,-14.99588 23.79193,-16.57816 4.06964,-0.60834 8.36096,-0.96298 12.37885,-0.33328 3.8128,0.59753 6.04699,3.03772 6.73425,7.73862 0.96246,6.58401 -0.2345,12.49267 -2.25775,18.91708 m -34.98725,26.62997 c -0.32403,1.68162 -0.64807,3.36326 -0.9721,5.04487 11.74615,-13.16498 21.77398,-27.12958 24.41912,-46.18128 -1.98883,0.84287 -3.33648,0.97977 -3.87615,1.71204 -3.94904,5.35876 -8.48005,10.47104 -11.3819,16.37195 -3.46485,7.04559 -5.49103,14.79861 -8.18897,23.05242 m 141.094,-28.94006 c 1.54437,-3.64062 3.08874,-7.28125 4.63318,-10.9219 -0.79944,-0.36231 -1.59888,-0.72461 -2.39826,-1.08692 -5.35882,5.6221 -7.26422,13.11255 -10.0661,20.11795 0.36109,0.27017 0.72217,0.54032 1.08325,0.81046 2.20563,-2.72449 4.41132,-5.44901 6.74793,-8.91959 z"
         id="path758" /><path
         fill="#fecd00"
         opacity="1"
         stroke="none"
         d="m 345.69928,360.70975 c -5.00821,1.1416 -4.49469,5.53683 -5.5658,8.59714 -1.66116,4.74627 -1.5444,9.99743 -5.94439,13.82812 -1.58722,1.3819 -1.69135,4.78232 -1.95066,7.31497 -0.76242,7.44644 -1.26324,14.91968 -1.86648,22.38242 -0.41098,0.0818 -0.82196,0.16357 -1.23294,0.24533 -0.53739,-0.75049 -1.07474,-1.50101 -1.55573,-2.17273 -4.76294,6.47781 -7.51144,14.7536 -7.63043,23.33395 -1.95969,0.82663 -3.94891,1.66568 -6.388,2.69452 -1.33475,-4.70611 -3.07626,-9.07013 -1.82941,-14.64255 1.41989,-6.34585 0.69727,-13.14163 1.32044,-19.70245 0.86398,-9.09653 2.32553,-18.13864 3.08917,-27.24112 0.28189,-3.36023 -0.69025,-6.82565 -1.13342,-10.61014 -5.51255,1.31073 -9.51062,2.60391 -13.60871,3.15937 -6.99423,0.94805 -12.00329,-3.69287 -16.9331,-7.46338 -1.11923,-0.85608 -0.2067,-5.46002 0.94406,-7.74894 0.6084,-1.21008 3.83053,-1.77175 5.71411,-1.50537 2.31787,0.32782 4.64548,2.93564 6.66333,2.61783 7.63086,-1.20187 15.19788,-2.9801 22.62702,-5.10763 1.11727,-0.31998 1.54647,-3.60648 2.00058,-5.58796 3.17251,-13.84359 6.26776,-27.70489 9.75814,-43.20522 -5.99103,4.63088 -10.93493,8.52032 -15.96853,12.28997 -1.09946,0.82337 -2.47492,1.57965 -3.79996,1.74234 -3.56638,0.43781 -12.79733,-4.43661 -12.9072,-7.64737 -0.10034,-2.93152 1.69794,-6.53024 3.7699,-8.83786 15.55917,-17.32885 35.33691,-27.32205 57.8194,-32.46103 14.44745,-3.30236 28.08712,-0.65707 40.84448,6.14325 7.11124,3.79065 10.58755,10.93363 11.96954,18.63999 1.9462,10.85272 1.02002,21.81347 -5.47287,30.83627 -4.94299,6.86896 -11.39492,12.96646 -18.13632,18.1601 -13.20242,10.17132 -29.33523,14.82049 -44.59622,21.94818 m 53.03665,-60.94516 c 0.70169,-8.56787 -2.23474,-13.46509 -10.44031,-15.69107 -10.08645,-2.73618 -20.00988,-0.53513 -29.81433,2.14077 -4.29327,1.17176 -7.89059,3.08787 -8.43762,8.07782 -0.44546,4.06351 -0.66922,8.15076 -1.05362,12.22162 -0.6293,6.66449 -1.36001,13.3197 -1.95068,19.98746 -0.42307,4.77566 -0.6872,9.5654 -1.12055,15.75293 6.1669,-3.1619 11.32813,-5.40137 16.07358,-8.31741 14.27539,-8.77213 27.38373,-18.88724 36.74353,-34.17212 z"
         id="path760" /><path
         fill="#fecd00"
         opacity="1"
         stroke="none"
         d="m 618.66504,308.80691 c -5.133,4.13578 -15.11902,3.37552 -18.47986,-1.60031 -0.91229,-1.3507 -0.4696,-4.39801 0.44275,-6.07144 5.43231,-9.96307 14.47925,-16.19812 23.72424,-22.16775 13.47864,-8.7034 28.22241,-13.15378 44.16834,-15.24427 13.711,-1.79751 25.9411,0.39307 36.91638,8.35813 3.46851,2.51715 6.23743,6.54175 8.23987,10.4353 6.41992,12.48346 4.03479,24.46137 -2.78803,36.16589 -9.40277,16.13044 -24.29351,25.05146 -40.90185,31.72998 -6.23993,2.50916 -12.87879,4.04441 -19.06519,6.66297 -5.83942,2.47171 -11.32934,5.29855 -12.18341,13.17474 -0.64886,5.98404 -2.9696,11.81174 -4.78229,17.63556 -1.13781,3.65527 -2.71209,7.17468 -4.57715,12.01926 -0.18872,-1.03192 -0.2279,-0.52246 -0.0113,-0.17032 3.06189,4.97812 3.06092,4.89484 -3.12042,5.63772 -0.83142,0.1 -1.95965,1.33982 -2.19,2.24527 -1.47131,5.78357 -2.7157,11.62452 -4.07257,17.43778 -0.21723,0.93048 -0.39276,2.03293 -0.99371,2.67667 -1.13837,1.21933 -2.57136,2.16369 -3.88196,3.22226 -1.03431,-1.37055 -2.67682,-2.62439 -2.96717,-4.13767 -0.49328,-2.57132 -0.27844,-5.31525 -0.10864,-7.97046 0.59796,-9.34817 1.02832,-18.71973 2.05127,-28.02423 0.88361,-8.03656 2.4873,-15.9939 3.67413,-23.37353 -1.26141,-0.92692 -2.19909,-1.96531 -3.35937,-2.37784 -1.37238,-0.48795 -3.02118,-0.83872 -4.40375,-0.54935 -6.79181,1.42133 -13.4574,3.1904 -19.52527,-2.2926 -2.6925,-2.43296 -5.375,-8.53388 -3.17615,-10.18985 1.94214,-1.46265 5.92805,-1.81375 8.27387,-0.85355 8.89307,3.6402 16.65826,-1.3811 24.89453,-2.49606 0.62622,-0.0848 1.27332,-1.74539 1.5036,-2.76538 3.43994,-15.23953 6.81122,-30.49457 10.30347,-46.21735 -4.54419,3.01462 -8.93463,5.92719 -13.60437,9.10043 m 29.39343,18.9871 c -0.27649,3.67434 -0.55298,7.34866 -0.85651,11.38293 23.54102,-5.05765 39.77845,-19.09579 51.54487,-38.88211 1.14538,-1.92612 1.15924,-5.12515 0.52307,-7.4054 -2.54877,-9.13537 -12.17401,-13.72476 -22.30439,-11.3464 -5.96991,1.40158 -12.06268,2.27341 -18.08294,3.47021 -2.62671,0.52216 -4.5824,1.26969 -5.01447,4.82624 -1.50824,12.41763 -3.54809,24.77072 -5.80963,37.95453 z"
         id="path762" /><path
         fill="#fecd00"
         opacity="1"
         stroke="none"
         d="m 553.98291,392.76312 c -0.25262,4.54633 -0.49396,8.63822 -0.73535,12.7301 0.53857,0.14383 1.07721,0.28766 1.61584,0.43146 1.57263,-2.69729 2.86603,-5.62195 4.8136,-8.01404 1.35584,-1.66528 3.82721,-3.8634 5.41541,-3.58981 3.03521,0.52289 3.63293,3.57941 2.5412,6.39008 -1.75293,4.51361 -2.73603,9.90729 -5.87909,13.15167 -3.85907,3.9834 -9.33722,7.60184 -14.62867,8.56863 -3.49572,0.63874 -9.42279,-2.67871 -11.5534,-5.97513 -3.7832,-5.85311 -4.69,-13.30868 -3.10492,-20.32092 1.97839,-8.75262 4.75867,-17.32397 7.18451,-25.94427 -1.74512,0 -4.32349,0 -7.22211,0 -6.7854,14.43805 -17.03998,26.7019 -27.78598,38.48129 -4.91711,5.38995 -11.3403,8.62103 -19.16461,9.54971 -8.00504,0.95014 -14.40939,-0.23214 -18.96347,-7.19815 -4.09021,-6.25647 -5.48712,-12.99078 -3.78986,-20.44211 3.64048,-15.98202 11.51014,-29.48272 23.11252,-40.95721 8.95004,-8.85144 16.14603,-6.64294 24.33594,-0.38406 4.74423,3.62561 3.28598,9.47708 2.45145,14.28146 -1.79523,10.3349 -9.75071,15.89703 -18.28095,20.17831 -6.78949,3.40757 -12.18103,10.14625 -12.34009,17.74582 -0.0486,2.319 -0.008,4.6399 -0.008,7.48282 6.67158,-0.0468 11.51996,-3.36267 15.92502,-7.39309 9.98325,-9.13431 17.59607,-20.09928 24.12866,-31.86851 0.39435,-0.71047 1.01453,-1.29559 1.52784,-1.94055 -10.36023,-8.42151 -8.88251,-25.96243 2.87964,-31.39984 4.91735,-2.27322 9.72772,-0.35092 13.92291,2.63034 3.83642,2.72629 2.9284,6.53729 1.9834,10.30524 -0.27564,1.0993 0.003,2.39612 -0.45124,3.3819 -1.8797,4.08062 0.48951,4.17117 3.56842,4.45416 2.66877,0.24521 5.51209,0.866 7.83832,2.13019 6.56232,3.56625 6.62061,4.8024 4.78418,12.11175 -1.73321,6.8982 -2.76825,13.97186 -4.12158,21.42276 m -57.84802,-23.52875 c 3.23434,-3.77792 6.12512,-7.68215 5.62988,-12.83154 -0.46698,-0.18634 -0.93396,-0.37268 -1.40097,-0.55902 -1.82278,4.35519 -3.64554,8.71039 -6.0719,13.35458 -0.30582,0.87882 -0.61163,1.75763 -0.91742,2.63648 0.23554,0.10431 0.4711,0.20865 0.70664,0.31299 0.51333,-0.81339 1.02667,-1.62674 2.05377,-2.91349 z"
         id="path764" /><path
         fill="#fecd00"
         opacity="1"
         stroke="none"
         d="m 418.29022,369.1333 c -4.81766,7.79465 -11.05533,13.1452 -19.61554,15.65829 -1.1889,0.349 -2.69964,1.27866 -3.11203,2.31666 -2.24527,5.65185 -4.60922,11.31726 -6.08642,17.19073 -0.87909,3.49533 1.79727,5.20685 5.30252,3.61365 5.39734,-2.45322 10.52826,-5.49256 15.92511,-7.94699 1.54068,-0.70072 3.61023,-0.23862 5.43725,-0.3097 -0.0603,1.9546 0.69599,4.69071 -0.3092,5.74088 -8.53418,8.91602 -18.75757,14.22229 -31.513,12.54804 -6.64728,-0.87256 -14.07337,-11.14335 -14.32242,-19.14228 -0.48779,-15.66626 6.69946,-28.51504 15.45743,-40.5571 3.98227,-5.47558 8.56116,-10.96356 14.02865,-14.78906 5.64261,-3.948 11.84888,-0.32098 17.03422,2.89905 4.32797,2.68759 5.87918,7.09457 4.67617,12.19354 -0.81335,3.4476 -1.75989,6.8638 -2.90274,10.58429 m -14.15039,-0.90546 c 2.47806,-4.14376 4.95609,-8.28753 7.43415,-12.4313 -0.62705,-0.35239 -1.25412,-0.70477 -1.88117,-1.05716 -3.80508,3.51508 -5.01215,8.51663 -7.30725,13.41888 -0.12549,0.49973 -0.25095,0.99945 -0.56854,2.26429 1.00146,-0.95179 1.40738,-1.33759 2.32281,-2.19471 z"
         id="path766" /><path
         fill="#fecd00"
         opacity="1"
         stroke="none"
         d="m 464.09894,351.03598 c -2.00177,3.10593 -6.28958,5.70837 -2.17203,10.18845 0.23346,0.25402 -0.47269,1.37161 -1.16531,2.50232 -0.48841,1.05474 -0.55298,1.69442 -0.61756,2.3341 -2.62771,2.36252 -3.01904,4.7464 -1.37182,7.48093 0.28814,0.47836 0.0876,1.25101 0.11279,1.88775 -4.4711,-0.85018 -2.87033,4.14838 -5.63846,5.22559 -0.33835,-2.06042 -0.21951,-3.96747 -0.12799,-5.43665 -6.18869,5.2985 -12.38751,10.60572 -18.58633,15.91291 -0.39124,-0.40909 -0.78244,-0.81818 -1.17368,-1.22724 2.87256,-3.31149 7.33322,-5.74414 7.18317,-11.21881 -1.87766,1.31958 -3.2684,2.297 -4.65915,3.27442 0.70221,-2.71201 1.40448,-5.42398 2.38229,-8.68174 3.00833,-2.2582 5.7612,-3.94015 8.45575,-5.71072 0.49753,-0.32693 0.92999,-0.96133 1.10379,-1.5404 1.94257,-6.47211 2.41773,-12.88062 -0.85565,-19.14521 -0.78995,-1.51184 -1.31338,-3.16299 -2.40024,-5.83313 4.27475,1.61164 7.345,2.76914 10.84238,4.08768 0.53686,-5.78549 -3.98566,-6.71799 -6.50537,-9.17599 -0.9151,-2.49195 -1.98374,-4.94001 -2.71097,-7.48563 -1.2287,-4.30139 0.60376,-7.4783 4.96658,-9.03803 3.57645,-1.27865 9.42554,0.63764 10.8339,3.54947 0.90478,1.8707 -1.90134,13.41754 -3.31711,15.35276 0.1629,1.66635 0.0424,2.79583 -0.0794,3.93689 1.84674,0.6061 3.478,1.14147 5.10922,1.67684 -0.41101,0.23319 -0.82202,0.46638 -1.233,0.69956 0.54141,2.12796 1.08283,4.25592 1.62424,6.38388 m -10.40787,7.98395 c 0.11371,0.89499 0.22742,1.79001 0.34116,2.68503 0.8999,-0.42429 1.79977,-0.84858 2.69964,-1.27286 -0.81363,-0.54355 -1.62723,-1.0871 -3.0408,-1.41217 m 1.76968,9.04583 c -0.36001,-0.55026 -0.72006,-1.10049 -1.08004,-1.65072 -0.32117,0.31329 -0.64234,0.62659 -0.96354,0.93988 0.54252,0.37158 1.08506,0.74319 2.04358,0.71084 z"
         id="path768" /><path
         fill="#fecd00"
         opacity="1"
         stroke="none"
         d="m 448.48047,335.98267 c 2.94476,2.43557 7.46728,3.36807 6.93042,9.15356 -3.49738,-1.31854 -6.56763,-2.47604 -10.84238,-4.08768 1.08686,2.67014 1.61029,4.32129 2.40024,5.83313 3.27338,6.26459 2.79822,12.6731 0.85565,19.14521 -0.1738,0.57907 -0.60626,1.21347 -1.10379,1.5404 -2.69455,1.77057 -5.44742,3.45252 -8.49319,5.31809 -3.26621,-1.70051 -2.76618,-3.72922 -0.70279,-5.94538 1.79287,-1.9256 3.61068,-3.85037 5.1936,-5.9447 4.32584,-5.72339 2.41901,-13.50974 -3.91522,-16.76361 -6.48401,-3.33084 -12.87787,-6.83811 -19.37744,-10.13754 -5.35874,-2.72022 -6.39206,-7.3721 -6.38819,-12.5857 0.40412,-0.31357 0.80826,-0.62716 1.21238,-0.94073 1.61016,2.00717 3.03384,4.21188 4.88717,5.96148 1.59757,1.50821 3.53409,2.94965 5.58335,3.63221 6.07144,2.02218 12.25579,3.71658 18.4349,5.39612 1.55878,0.42373 3.26288,0.31277 5.32529,0.42514 z"
         id="path770" /><path
         fill="#fecd00"
         opacity="1"
         stroke="none"
         d="m 435.5639,382.09485 c 1.70942,-1.11252 3.10016,-2.08994 4.97782,-3.40952 0.15005,5.47467 -4.31061,7.90732 -7.18317,11.21881 0.39124,0.40906 0.78244,0.81815 1.17368,1.22724 6.19882,-5.30719 12.39764,-10.61441 18.58633,-15.91291 -0.0915,1.46918 -0.21036,3.37623 -0.20032,5.58713 -6.12674,5.577 -12.43048,10.79489 -18.6008,16.16614 -1.37082,1.19333 -2.4938,2.81079 -3.34335,4.43561 -1.97079,3.76923 -4.17661,7.05102 -10.21255,6.82797 0.41317,-4.3789 0.82574,-8.81027 1.2611,-13.23935 0.0308,-0.31296 0.17997,-0.84216 0.35736,-0.87991 6.65244,-1.41654 7.41361,-9.19599 13.1839,-12.02121 z"
         id="path772" /><path
         fill="#fecd00"
         opacity="1"
         stroke="none"
         d="m 464.42422,350.89499 c -0.86669,-1.98697 -1.40811,-4.11493 -1.94952,-6.24289 0.41098,-0.23318 0.82199,-0.46637 1.233,-0.69956 -1.63122,-0.53537 -3.26248,-1.07074 -5.10922,-1.67684 0.1218,-1.14106 0.24234,-2.27054 0.38205,-3.75458 5.66721,0.25619 11.31647,0.85623 16.96286,1.48208 2.90985,0.32254 4.76239,-0.67678 6.42471,-3.3363 0.8472,-1.35538 3.65579,-1.48474 5.57779,-2.1683 0.3378,2.33673 2.94568,5.04333 -0.64816,6.81604 -4.19617,2.06973 -8.53635,3.85525 -12.85544,5.66543 -3.19665,1.33972 -6.45944,2.52167 -10.01807,3.91492 z"
         id="path794" /><path
         fill="#fecd00"
         opacity="1"
         stroke="none"
         d="m 455.25275,368.26773 c -0.75052,-0.16962 -1.29306,-0.54123 -1.83558,-0.91281 0.3212,-0.31329 0.64237,-0.62659 0.96351,-0.93988 0.36001,0.55023 0.72006,1.10046 0.87207,1.85269 z"
         id="path824" /></g></g></svg>
