<svg xmlns="http://www.w3.org/2000/svg" width="24" height="24"><path fill="#112351" fill-rule="evenodd" d="M11.7 2.39c-.15.43-.15.44-.88.62A5 5 0 0 0 6.95 8c0 .52-.04 1-.09 1.08-.1.16-.13.12.44.45a7 7 0 0 0 3.76.92l.54-.06.3-.63c.16-.35.4-1.03.5-1.52.2-.78.21-1.08.16-2.39a26 26 0 0 0-.12-1.86l-.06-.37.48.1a4.4 4.4 0 0 1 3.54 4.23c0 1.01-.57 2.53-.9 2.39a5 5 0 0 0-.66-.17c-.45-.09-.67-.06-2 .3-2.22.57-3.14.52-5.27-.33-.34-.13.2.75.87 1.42a5 5 0 0 0 4.81 1.39 5 5 0 0 0 2.4-1.4 4.7 4.7 0 0 0 1.43-2.66 5.1 5.1 0 0 0-3.62-5.83 11 11 0 0 0-.98-.2c-.32-.06-.38-.11-.5-.49l-.15-.42zm-1 1.46A4.4 4.4 0 0 0 7.72 8.1l.03.35.69-.65c.84-.8 1.78-2.04 2.34-3.08.57-1.07.56-1.11-.09-.87M13 6.5a6 6 0 0 1-.42 2.6c-.2.57-.35 1.06-.33 1.07s.34-.07.72-.18c.43-.13 1-.21 1.5-.22l.81-.01-.13-.56a9.5 9.5 0 0 0-1.87-3.95l-.24-.3zm5 2.55q-.14.17-.04.33c.15.22.27.24.5.08.15-.12.17-.18.08-.33-.15-.24-.38-.27-.54-.08m-.2.84c0 .14.13.24.5.36q.78.27.53.56-.1.09-.67-.1c-.5-.18-.58-.18-.63-.05-.03.08-.02.19.03.23.11.1 1.03.41 1.2.41.24 0 .54-.39.54-.68 0-.35-.2-.53-.8-.75-.59-.22-.7-.21-.7.02m-12.45.14q-.6.22-.63.4c-.03.16 0 .19.23.15.21-.04.28 0 .36.18.14.37.52.5.84.3.35-.23.4-.4.26-.87s-.21-.47-1.06-.16M6 11.57l-.6.4c-.06.05.3.7.47.85.25.2.39-.07.19-.38-.25-.37-.05-.57.23-.23.15.18.22.21.31.13q.13-.12-.01-.32c-.21-.34 0-.39.26-.07.18.24.26.27.36.18s.07-.2-.15-.53c-.14-.22-.32-.4-.39-.4a3 3 0 0 0-.67.37m11.22-.17a.65.65 0 0 0-.34.85c.1.21.7.67 1.06.81.25.1.27-.27.04-.46-.2-.15-.2-.2-.09-.34s.16-.15.36-.02c.17.11.25.12.34.03.18-.18.14-.24-.46-.61-.63-.4-.59-.38-.9-.26m-9.92.94q-.12.14-.01.2c.16.11.12.2-.3.7-.37.41-.45.66-.2.66.05 0 .27-.2.5-.42.34-.38.41-.42.59-.3.15.09.22.08.3-.02s0-.23-.33-.55c-.36-.36-.45-.4-.55-.27m8.71.44c-.18.15-.32.31-.32.37s.23.36.5.67l.52.58.39-.33c.21-.17.39-.37.39-.44 0-.24-.22-.25-.46-.02q-.24.24-.35.12-.1-.1.06-.23.13-.12.15-.26c0-.22-.2-.27-.4-.08-.29.25-.37.08-.1-.2.12-.14.2-.3.15-.35-.1-.16-.16-.14-.53.17m-7.91 1.05c-.45.7-.48.82-.26.9q.15.06.53-.5c.55-.83.55-.8.33-.92-.16-.1-.24-.03-.6.52m6.62-.17q-.43.25-.36.4.06.15.27.1c.18-.04.26.04.5.49.26.46.32.52.48.44.18-.1.17-.13-.11-.66-.28-.5-.3-.57-.14-.68.17-.13.1-.36-.1-.34-.07 0-.3.12-.54.25m-5.64.1c-.1.12-.08.17.06.28.18.13.18.15-.03.66-.12.29-.2.56-.16.61q.22.32.55-.46c.2-.48.25-.54.46-.49q.25.08.23-.13.01-.19-.5-.4c-.42-.18-.5-.19-.61-.07m4.07.53c-.22.24-.23.43-.07 1.09.1.4.17.52.33.52s.19-.06.16-.32c-.02-.27 0-.34.18-.36q.22-.04.28.22c.06.26.3.35.4.16.1-.16-.22-1.24-.4-1.37-.26-.19-.68-.16-.88.06m-1.76.86V16h.48c.64 0 .92-.26.72-.68a1 1 0 0 1-.11-.48c.03-.32-.25-.54-.7-.54h-.39z"/></svg>