<?xml version="1.0" encoding="UTF-8" standalone="no"?>
<svg
   viewBox="0 0 24 24"
   width="24pt"
   height="24pt"
   version="1.1"
   id="svg1"
   sodipodi:docname="pink_master_pin.svg"
   xml:space="preserve"
   xmlns:inkscape="http://www.inkscape.org/namespaces/inkscape"
   xmlns:sodipodi="http://sodipodi.sourceforge.net/DTD/sodipodi-0.dtd"
   xmlns="http://www.w3.org/2000/svg"
   xmlns:svg="http://www.w3.org/2000/svg"><defs
     id="defs1" /><sodipodi:namedview
     id="namedview1"
     pagecolor="#ffffff"
     bordercolor="#000000"
     borderopacity="0.25"
     inkscape:showpageshadow="2"
     inkscape:pageopacity="0.0"
     inkscape:pagecheckerboard="0"
     inkscape:deskcolor="#d1d1d1"
     inkscape:document-units="pt"
     inkscape:lockguides="true"><inkscape:page
       x="0"
       y="0"
       width="24"
       height="24"
       id="page2"
       margin="0"
       bleed="0" /></sodipodi:namedview><g
     id="g1"
     transform="matrix(0.06577891,0,0,0.06374917,2.3411838,3.0414873)"><path
       d="m 147.18075,-12.29906 h 2.20102 v 2.197823 l 2.20102,-1.098912 c 3.783,-0.34341 3.783,-0.34341 7.70356,0 1.78833,2.129141 1.78833,2.129141 3.30153,4.3956456 2.85975,0.8837665 2.85975,0.8837665 5.50255,1.0989114 -2.47567,2.2426473 -3.71691,3.2956527 -7.12322,3.3010264 l -2.85015,-0.4850661 c -4.61217,-0.8412298 -4.61217,-0.8412298 -8.73529,1.5796851 -0.40233,3.6868862 -0.40233,3.6868862 -0.20635,7.8297432 l 0.0902,4.2668664 0.11607,3.28815 h 3.30153 l 1.10051,9.890202 h 2.20102 v 2.197822 h 2.20102 c 1.64703,1.852691 3.10427,3.812641 4.59119,5.79504 2.6133,2.46453 5.18868,3.149057 8.61493,4.095163 -0.0227,1.11342 -0.0453,2.22684 -0.0688,3.374 -0.20115,8.330247 -0.20115,8.330247 3.20265,15.595098 2.38168,1.733541 2.38168,1.733541 4.88351,3.030591 l 1.88721,1.077449 V 61.328 l 1.75823,0.824184 c 2.66257,1.383392 5.18253,2.933419 7.724,4.525229 23.53425,14.607211 47.26132,22.397746 74.15653,28.716841 V 171.21913 H 30.526689 V 95.394254 l 15.40714,-3.29674 c 3.374653,-1.184217 3.374653,-1.184217 6.706233,-2.48113 2.407978,-0.936174 4.838198,-1.627147 7.325269,-2.326604 15.971559,-4.726336 31.563681,-12.60356 45.593789,-21.531793 2.00327,-1.133252 2.00327,-1.133252 4.20429,-1.133252 V 62.426912 L 114.16545,61.328 v -2.197822 c 1.43444,-0.818959 2.8812,-1.616464 4.33325,-2.403869 2.57655,-1.630735 2.57655,-1.630735 4.47083,-4.189599 0.74735,-4.453863 0.82807,-8.379325 0.7394,-12.895038 l 0.36111,-3.588632 c 2.74736,-2.180637 4.17422,-2.197823 7.70357,-2.197823 v -2.197823 c 1.60777,-1.541052 1.60777,-1.541052 3.71422,-3.228052 4.88602,-3.925224 6.45905,-7.026032 7.29088,-13.255618 h 4.40204 l -0.1185,-2.4036 C 146.88951,9.1988286 146.72549,5.6271846 146.56171,2.0554696 l -0.187,-3.7839476 -0.16121,-3.5950709 -0.15718,-3.3308068 c 0.0239,-2.5457933 0.0239,-2.5457933 1.12443,-3.6447043 z"
       fill="#dd0830"
       id="path2"
       sodipodi:nodetypes="cccccccccccccccccccccccccccccccccccccccccccccccccccccc"
       style="stroke-width:1.09971" /><path
       d="m 147.18075,-12.29906 h 2.20102 v 2.197823 l 2.20102,-1.098912 c 3.783,-0.34341 3.783,-0.34341 7.70356,0 1.78833,2.129141 1.78833,2.129141 3.30153,4.3956456 2.85975,0.8837665 2.85975,0.8837665 5.50255,1.0989114 -2.47567,2.2426473 -3.71691,3.2956527 -7.12322,3.3010264 l -2.85015,-0.4850661 c -4.61217,-0.8412298 -4.61217,-0.8412298 -8.73529,1.5796851 -0.40233,3.6868862 -0.40233,3.6868862 -0.20635,7.8297432 l 0.0902,4.2668664 0.11607,3.28815 h 3.30153 l 1.10051,9.890202 h 2.20102 v 2.197822 h 2.20102 c 1.64703,1.852691 3.10427,3.812641 4.59119,5.79504 2.6133,2.46453 5.18868,3.149057 8.61493,4.095163 -0.0227,1.11342 -0.0453,2.22684 -0.0688,3.374 -0.20115,8.330247 -0.20115,8.330247 3.20265,15.595098 2.38168,1.733541 2.38168,1.733541 4.88351,3.030591 l 1.88721,1.077449 V 61.328 l 1.75823,0.824184 c 2.66257,1.383392 5.18253,2.933419 7.724,4.525229 23.53425,14.607211 47.26132,22.397746 74.15653,28.716841 V 171.21913 H 30.526689 V 95.394254 l 15.40714,-3.29674 c 3.374653,-1.184217 3.374653,-1.184217 6.706233,-2.48113 2.407978,-0.936174 4.838198,-1.627147 7.325269,-2.326604 15.971559,-4.726336 31.563681,-12.60356 45.593789,-21.531793 2.00327,-1.133252 2.00327,-1.133252 4.20429,-1.133252 V 62.426912 L 114.16545,61.328 v -2.197822 c 1.43444,-0.818959 2.8812,-1.616464 4.33325,-2.403869 2.57655,-1.630735 2.57655,-1.630735 4.47083,-4.189599 0.74735,-4.453863 0.82807,-8.379325 0.7394,-12.895038 l 0.36111,-3.588632 c 2.74736,-2.180637 4.17422,-2.197823 7.70357,-2.197823 v -2.197823 c 1.60777,-1.541052 1.60777,-1.541052 3.71422,-3.228052 4.88602,-3.925224 6.45905,-7.026032 7.29088,-13.255618 h 4.40204 l -0.1185,-2.4036 C 146.88951,9.1988286 146.72549,5.6271846 146.56171,2.0554696 l -0.187,-3.7839476 -0.16121,-3.5950709 -0.15718,-3.3308068 c 0.0239,-2.5457933 0.0239,-2.5457933 1.12443,-3.6447043 z M 47.034339,100.8888 l -1.169292,1.64837 c -3.209617,2.48125 -5.892051,1.92966 -9.835808,1.64837 l -3.30153,-1.09891 v 65.93468 H 262.73429 v -65.93468 l -3.30153,1.09891 c -1.71809,0.0741 -3.43912,0.0935 -5.15864,0.0687 -1.33421,-0.0148 -1.33421,-0.0148 -2.69539,-0.03 -1.01502,-0.0191 -1.01502,-0.0191 -2.05056,-0.0387 l -1.10051,-3.29674 -1.58198,1.64837 c -4.14462,2.42259 -8.03053,1.91879 -12.72465,1.64837 l -1.10051,-3.29674 -1.58198,1.64837 c -4.14462,2.42259 -8.03053,1.91879 -12.72465,1.64837 l -1.10051,-3.29674 -2.20102,1.09892 v 2.19782 c -9.01599,0.5194 -9.01599,0.5194 -12.72464,-1.64837 l -1.58199,-1.64837 c -0.65753,0.80957 -0.65753,0.80957 -1.32834,1.63549 -2.53685,2.13579 -3.8657,2.0091 -7.13183,1.86729 -0.88947,-0.0298 -1.77896,-0.0594 -2.69539,-0.0901 -0.67668,-0.0382 -1.35337,-0.0765 -2.05056,-0.11593 l -1.10051,-3.29674 -1.71954,1.64837 c -3.67327,2.25719 -6.1425,2.10237 -10.38607,1.64837 -2.68249,-1.64837 -2.68249,-1.64837 -4.40204,-3.29674 l -1.10051,3.29674 c -9.01599,0.5194 -9.01599,0.5194 -12.72464,-1.64837 l -1.58198,-1.64837 c -0.43836,0.53971 -0.87672,1.07943 -1.32835,1.63549 -2.53684,2.13579 -3.8657,2.0091 -7.13183,1.86729 -1.33421,-0.0446 -1.33421,-0.0446 -2.69539,-0.0901 -0.67668,-0.0382 -1.35337,-0.0765 -2.05055,-0.11593 l -1.10051,-3.29674 -1.58199,1.64837 c -4.14462,2.42259 -8.03053,1.91879 -12.72464,1.64837 l -1.10051,-3.29674 -2.20102,1.09892 v 2.19782 c -9.016,0.5194 -9.016,0.5194 -12.72465,-1.64837 l -1.58198,-1.64837 c -0.43836,0.53971 -0.87671,1.07943 -1.32835,1.63549 -2.53684,2.13579 -3.8657,2.0091 -7.13182,1.86729 -1.334218,-0.0446 -1.334218,-0.0446 -2.695398,-0.0901 -0.67668,-0.0382 -1.35337,-0.0765 -2.05055,-0.11593 l -1.10051,-3.29674 -1.71955,1.64837 c -3.67327,2.25719 -6.1425,2.10237 -10.386064,1.64837 -2.682493,-1.64837 -2.682493,-1.64837 -4.40204,-3.29674 l -1.10051,3.29674 H 64.642499 l -1.10051,-3.29674 -1.719547,1.64837 c -3.673268,2.25719 -6.142494,2.10237 -10.386063,1.64837 -2.682493,-1.64837 -2.682493,-1.64837 -4.40204,-3.29674 z"
       fill="#f8ce1d"
       id="path3"
       sodipodi:nodetypes="ccccccccccccccccccccccccccccccccccccccccccccccccccccccccccccccccccccccccccccccccccccccccccccccccccccccccccccccccc"
       style="stroke-width:1.09971" /><path
       d="m 159.07141,39.105094 c 3.75125,0.379912 7.45271,0.314344 11.22004,0.24468 l -0.27082,2.575573 c -0.50916,8.167356 -0.50916,8.167356 3.22845,15.144372 1.53254,1.472515 3.12166,2.887329 4.74594,4.258281 l 2.96193,2.592744 c 16.91191,13.889465 38.26962,23.662105 59.27277,29.43022 2.69539,0.94438 2.69539,0.94438 3.7959,3.1422 -12.10442,1.11761 -21.08641,-1.74836 -31.91479,-6.59347 l -2.08817,-0.925591 c -9.27242,-4.183445 -17.43223,-9.287504 -25.42458,-15.558078 l -1.10051,3.296734 c 9.2832,7.384343 19.02596,12.547721 29.71377,17.582585 v 1.09891 c -12.78482,0.99334 -19.46726,-0.91377 -29.26238,-8.924361 -2.81277,-2.437012 -5.4996,-4.952755 -8.15496,-7.559311 l -2.05486,-2.008947 c -5.24592,-5.552121 -15.5533,-17.580688 -15.5533,-25.463837 h -2.20102 c 5.39699,16.389353 13.58112,29.559777 26.13712,41.453856 1.37563,1.40369 1.37563,1.40369 1.37563,2.5026 -4.92251,0.66523 -9.40412,0.90464 -14.30663,0 -3.7772,-3.03049 -5.62714,-6.670966 -7.70357,-10.989116 l -1.52609,-2.970494 c -4.44001,-9.532831 -6.33696,-19.747073 -8.37849,-29.996846 h -2.20102 c 0.49552,4.556911 1.00332,9.112381 1.5132,13.66771 l 0.42128,3.878385 c 0.71353,6.323281 1.511,12.475902 3.14946,18.632395 0.41861,2.283406 0.41861,2.283406 0.41861,8.876876 h -14.30663 c 0.69869,-6.735306 1.63036,-13.378744 2.75127,-20.055133 1.36439,-8.33108 2.31139,-16.563619 2.75128,-25.000233 h -2.20102 c 0.0681,0.906602 0.13618,1.813204 0.20634,2.747279 -0.20083,3.743358 -1.01905,6.492071 -2.43745,9.937421 -0.8168,2.060327 -1.54991,4.153939 -2.24402,6.258643 -2.92612,8.823503 -6.39124,18.281124 -13.13303,25.013113 -2.40615,0.0798 -4.81474,0.092 -7.2221,0.0687 -1.97686,-0.0148 -1.97686,-0.0148 -3.99365,-0.03 -1.01999,-0.0127 -2.03998,-0.0255 -3.09088,-0.0387 l 2.82005,-3.29674 1.83992,-2.163479 c 1.21919,-1.400562 2.46542,-2.778575 3.74862,-4.120917 8.92851,-9.498805 16.46905,-21.521359 19.10416,-34.37532 h -2.20102 l -0.89847,2.365236 c -6.39731,15.369191 -17.38579,27.780829 -31.01632,37.195572 l -1.78403,1.438028 c -6.277008,4.51726 -13.938708,3.32597 -21.326679,2.95762 v -2.19783 c -1.559451,0.15639 -3.118416,0.3176 -4.677167,0.48078 -0.8682,0.0892 -1.736399,0.17848 -2.630907,0.27043 -2.535662,0.27884 -2.535662,0.27884 -4.694363,0.9315 -3.092788,0.69142 -6.017448,0.61815 -9.18238,0.5838 -1.185972,-0.01 -2.371943,-0.0199 -3.593852,-0.03 -0.902247,-0.0127 -1.804493,-0.0255 -2.73408,-0.0387 3.470973,-2.31062 6.698967,-3.59229 10.592409,-5.082468 C 81.05361,84.143324 97.384112,77.325389 110.5716,66.56498 c 2.49334,-1.940265 2.49334,-1.940265 4.69436,-1.940265 v -2.197823 c 2.16999,-2.003956 4.46386,-3.813253 6.77071,-5.657676 2.97908,-2.981042 3.0856,-5.157474 3.24135,-9.26348 -0.0128,-0.968931 -0.0255,-1.937862 -0.0387,-2.936154 -0.01,-0.980263 -0.0198,-1.960527 -0.03,-2.970494 -0.0128,-0.742281 -0.0255,-1.484561 -0.0387,-2.249334 11.20014,-1.827715 22.65,-1.596632 33.90087,-0.24468 z"
       fill="#f7c71d"
       id="path4"
       sodipodi:nodetypes="ccccccccccccccccccccccccccccccccccccccccccccccccccccccccccccccccccc"
       style="stroke-width:1.09971" /><path
       d="m 147.18075,-12.29906 h 2.20102 v 2.197823 l 2.20102,-1.098912 c 3.783,-0.34341 3.783,-0.34341 7.70356,0 1.78833,2.129141 1.78833,2.129141 3.30153,4.3956456 2.85975,0.8837665 2.85975,0.8837665 5.50255,1.0989114 -2.47567,2.2426473 -3.71691,3.2956527 -7.12322,3.3010264 l -2.85015,-0.4850661 c -4.61217,-0.8412298 -4.61217,-0.8412298 -8.73529,1.5796851 -0.40233,3.6868862 -0.40233,3.6868862 -0.20635,7.8297432 l 0.0902,4.2668664 0.11607,3.28815 h 3.30153 l 1.10051,9.890202 h 2.20102 v 2.197822 h 2.20102 c 1.64703,1.852691 3.10427,3.812641 4.59119,5.79504 2.6133,2.46453 5.18868,3.149057 8.61493,4.095163 -0.0227,1.11342 -0.0453,2.22684 -0.0688,3.374 -0.20115,8.330247 -0.20115,8.330247 3.20265,15.595098 2.38168,1.733541 2.38168,1.733541 4.88351,3.030591 l 1.88721,1.077449 V 61.328 l 1.75823,0.824184 c 2.66257,1.383392 5.18253,2.933419 7.724,4.525229 17.44465,10.827532 35.69312,18.775361 55.44786,24.321193 l -1.10051,3.296738 C 221.17277,93.441114 194.3515,76.577017 176.89448,61.328 l -2.43746,-2.04758 c -3.4798,-3.323375 -5.17489,-5.321216 -5.48965,-10.22932 0.26328,-3.293935 0.68058,-6.461682 1.32405,-9.701326 -0.75897,0.09208 -1.51793,0.184153 -2.2999,0.27902 l -3.13387,0.339117 -3.0565,0.347702 c -2.9107,0.107133 -5.36108,-0.02278 -8.22372,-0.382043 -5.83314,-0.723268 -11.60022,-0.705509 -17.4706,-0.652478 -1.05759,0.0049 -2.11517,0.0099 -3.20481,0.01502 -2.57725,0.0128 -5.15433,0.03078 -7.73151,0.05366 l 0.51156,2.575573 c 1.37542,9.171231 1.37542,9.171231 -0.93715,13.40586 -2.9891,3.435297 -5.10949,5.641317 -9.479,7.095705 v 2.197823 C 100.30103,77.840813 77.342351,88.792948 58.039439,93.196424 v -2.197818 l -3.30153,-1.098912 c 3.345743,-2.227251 5.784516,-2.996885 9.629462,-4.052235 13.078598,-3.928026 24.863231,-10.225047 36.566159,-17.157611 2.90239,-1.628818 5.70942,-2.924156 8.82988,-4.065113 V 62.426912 L 114.16545,61.328 v -2.197822 c 1.43444,-0.818959 2.8812,-1.616464 4.33325,-2.403869 2.57655,-1.630735 2.57655,-1.630735 4.47083,-4.189599 0.74735,-4.453863 0.82807,-8.379325 0.7394,-12.895038 l 0.36111,-3.588632 c 2.74736,-2.180637 4.17422,-2.197823 7.70357,-2.197823 v -2.197823 c 1.60777,-1.541052 1.60777,-1.541052 3.71422,-3.228052 4.88602,-3.925224 6.45905,-7.026032 7.29088,-13.255618 h 4.40204 l -0.1185,-2.4036 C 146.88951,9.1988286 146.72549,5.6271846 146.56171,2.0554696 l -0.187,-3.7839476 -0.16121,-3.5950709 -0.15718,-3.3308068 c 0.0239,-2.5457933 0.0239,-2.5457933 1.12443,-3.6447043 z"
       fill="#f7d02a"
       id="path5"
       sodipodi:nodetypes="cccccccccccccccccccccccccccccccccccccccccccccccccccccccccccccccccccc"
       style="stroke-width:1.09971" /><path
       d="m 30.526689,100.8888 h 1.10051 l 1.10051,67.0336 H 262.73429 l 1.10051,-65.93468 h 1.10051 v 69.23141 H 30.526689 Z"
       fill="#fadb2d"
       id="path6"
       sodipodi:nodetypes="ccccccccc"
       style="stroke-width:1.09971" /><path
       d="m 203.30675,122.86703 c 3.20753,2.033 5.97657,4.24339 7.70357,7.69238 0.58879,5.89855 0.72827,10.65868 -1.99467,16.0029 -3.33862,3.71477 -4.92463,4.81326 -9.97337,5.21983 -4.19051,-0.12285 -6.74426,-0.91157 -10.04216,-3.64015 -3.90092,-4.2982 -3.97883,-9.00926 -3.84319,-14.57774 0.8593,-4.76697 3.357,-7.77083 7.14472,-10.69722 4.24558,-1.41313 6.65438,-1.03088 11.0051,0 z"
       fill="#dd0833"
       id="path7"
       sodipodi:nodetypes="cccccccc"
       style="stroke-width:1.09971" /><path
       d="m 159.07141,39.105094 c 3.75125,0.379912 7.45271,0.314344 11.22004,0.24468 v 10.989113 h -45.1209 V 39.349774 c 11.20014,-1.827715 22.65,-1.596632 33.90086,-0.24468 z"
       fill="#dd0f2e"
       id="path8"
       sodipodi:nodetypes="cccccc"
       style="stroke-width:1.09971" /><path
       d="m 211.56058,123.3478 c 4.61206,4.37692 5.22877,7.00956 5.50255,13.39299 -0.029,5.62008 -0.36943,8.99376 -4.05813,13.3243 -5.66005,5.26902 -10.38338,6.28031 -18.01656,6.12127 -3.99923,-0.52394 -6.32641,-2.08441 -9.28985,-4.74763 -1.5132,-2.47255 -1.5132,-2.47255 -2.20102,-4.39565 h -2.20102 c -1.83788,-6.29005 -2.26837,-13.50347 0.13757,-19.64304 3.48855,-3.94794 6.63941,-7.2 11.7617,-8.79129 7.49032,-0.29331 12.44855,-0.35336 18.36476,4.73905 z m -24.00488,3.91488 c -2.83061,5.02488 -2.68427,9.75172 -1.85711,15.38476 1.77025,3.59848 3.20297,5.65271 6.32794,8.10447 3.79891,1.05372 7.40648,1.3174 11.28022,0.68682 3.93334,-2.39073 5.9832,-4.57538 7.70357,-8.79129 0.68822,-4.78881 1.11562,-9.83784 -1.07901,-14.26439 -3.26664,-4.06482 -6.38714,-6.30276 -11.50807,-6.95834 -4.67776,0.56963 -7.37262,2.81973 -10.86754,5.83797 z"
       fill="#fae6e9"
       id="path9"
       sodipodi:nodetypes="cccccccccccccccccc"
       style="stroke-width:1.09971" /><path
       d="m 77.848618,118.47139 c 11.350974,0 11.350974,0 16.507654,4.39564 3.10287,4.64755 3.07426,8.82726 2.20102,14.28585 -2.67926,3.47074 -5.1721,5.27457 -8.80408,7.69238 h -4.40204 v 10.98911 h -5.502554 z"
       fill="#f9e2e6"
       id="path10"
       sodipodi:nodetypes="cccccccc"
       style="stroke-width:1.09971" /><path
       d="m 147.18075,-12.29906 h 2.20102 v 2.197823 l 2.20102,-1.098912 c 3.783,-0.34341 3.783,-0.34341 7.70356,0 1.78833,2.129141 1.78833,2.129141 3.30153,4.3956456 2.85975,0.8837665 2.85975,0.8837665 5.50255,1.0989114 -2.47567,2.2426473 -3.71691,3.2956527 -7.12322,3.3010264 l -2.85015,-0.4850661 c -4.61217,-0.8412298 -4.61217,-0.8412298 -8.73529,1.5796851 -0.40233,3.6868862 -0.40233,3.6868862 -0.20635,7.8297432 l 0.0902,4.2668664 0.11607,3.28815 h 3.30153 l 1.10051,9.890202 h 2.20102 v 2.197822 h 2.20102 c 1.65936,1.605441 1.65936,1.605441 3.4391,3.708826 l 1.79692,2.086214 c 1.36704,1.89734 1.36704,1.89734 1.36704,4.095163 -4.74751,-0.526736 -6.78541,-1.918479 -9.90459,-5.494557 l 2.20102,5.494557 c -2.08062,-0.270436 -2.08062,-0.270436 -4.402,-1.098912 -1.59534,-2.811566 -2.31548,-5.689754 -3.30153,-8.791291 v 9.890203 h -3.30153 l -1.10051,-6.593469 -3.30153,6.593469 -3.30153,-1.098912 3.30153,-6.593468 -7.70357,8.791291 -4.40204,-1.098911 2.08925,-1.729928 2.72548,-2.322308 2.70829,-2.279383 c 4.12511,-4.260389 4.881,-8.80763 5.6831,-14.547697 h 4.40204 l -0.11849,-2.4036 C 146.88947,9.1988286 146.72545,5.6271846 146.56168,2.0554696 l -0.187,-3.7839476 -0.16122,-3.5950709 -0.15717,-3.3308068 c 0.0239,-2.5457933 0.0239,-2.5457933 1.12442,-3.6447043 z"
       fill="#eb7625"
       id="path11"
       sodipodi:nodetypes="cccccccccccccccccccccccccccccccccccccccccccc"
       style="stroke-width:1.09971" /><path
       d="m 165.88941,51.437798 c 3.91472,0.613674 5.26899,1.762109 7.63479,4.876419 16.0859,18.970697 43.23499,30.591021 66.70552,37.036747 2.69539,0.94438 2.69539,0.94438 3.7959,3.1422 -12.11254,1.11837 -21.0775,-1.75769 -31.91479,-6.59347 l -2.07044,-0.907887 C 196.85627,83.118798 185.63892,75.142447 175.794,64.624735 l -2.95762,-2.884643 c -6.94697,-7.124361 -6.94697,-7.124361 -6.94697,-10.302294 z"
       fill="#de172d"
       id="path12"
       sodipodi:nodetypes="ccccccccc"
       style="stroke-width:1.09971" /><path
       d="m 139.47718,25.063926 c 0,3.296734 0,3.296734 -1.9259,5.301388 l -2.47614,2.047582 -2.47615,2.073336 -1.92589,1.566808 6.60306,-1.098912 v 2.197823 l 4.40204,1.098911 c -5.45935,1.453708 -10.90729,1.19664 -16.50765,1.098912 l 0.51156,2.575573 c 1.37541,9.171231 1.37541,9.171231 -0.93715,13.40586 -2.98911,3.435297 -5.1095,5.641317 -9.479,7.095705 v 2.197823 C 100.30103,77.840813 77.342351,88.792948 58.039439,93.196424 v -2.197818 l -3.30153,-1.098912 c 3.345743,-2.227251 5.784516,-2.996885 9.629462,-4.052235 13.078598,-3.928026 24.863231,-10.225047 36.566159,-17.157611 2.90239,-1.628818 5.70942,-2.924156 8.82988,-4.065113 V 62.426912 L 114.16545,61.328 v -2.197822 c 1.43444,-0.818959 2.8812,-1.616464 4.33325,-2.403869 2.57655,-1.630735 2.57655,-1.630735 4.47083,-4.189599 0.74735,-4.453863 0.82807,-8.379325 0.7394,-12.895038 l 0.36111,-3.588632 c 2.74736,-2.180638 4.17422,-2.197823 7.70357,-2.197823 v -2.197823 c 1.68515,-1.656953 1.68515,-1.656953 3.85178,-3.434098 l 2.16663,-1.794317 z"
       fill="#f7d02e"
       id="path13"
       sodipodi:nodetypes="ccccccccccccccccccccccccccccccc"
       style="stroke-width:1.09971" /><path
       d="m 129.57259,51.437798 c -2.38576,5.227143 -6.0427,8.992648 -9.90459,13.186937 l -1.88291,2.137726 c -12.44255,13.401072 -34.853708,27.748343 -53.482202,28.846423 -1.13632,-0.0255 -2.272639,-0.051 -3.443393,-0.0773 -1.15618,-0.0199 -2.31236,-0.0397 -3.503576,-0.0601 l -2.61801,-0.0772 c 3.470973,-2.31062 6.698967,-3.59229 10.592408,-5.082467 15.72329,-6.168442 32.053785,-12.986377 45.241273,-23.746786 2.49335,-1.940265 2.49335,-1.940265 4.69437,-1.940265 v -2.197823 c 1.80982,-1.781439 1.80982,-1.781439 4.19569,-3.777508 3.31488,-2.786723 3.31488,-2.786723 6.40961,-5.807919 1.50031,-1.403687 1.50031,-1.403687 3.70133,-1.403687 z"
       fill="#dd132d"
       id="path14"
       sodipodi:nodetypes="cccccccccccccc"
       style="stroke-width:1.09971" /><path
       d="m 133.97463,51.437798 h 2.20102 c -2.16625,14.534982 -15.06621,27.416437 -26.13712,36.264074 -1.54956,1.112219 -3.1077,2.212691 -4.67716,3.296734 l -1.78404,1.438028 c -6.276998,4.51726 -13.938698,3.32597 -21.326672,2.95762 2.531554,-2.52787 4.801794,-3.50706 8.047484,-5.013786 6.74472,-3.286129 12.620358,-7.251135 18.678568,-11.628713 2.98772,-2.038996 2.98772,-2.038996 6.28925,-3.137907 v -2.197823 c 1.82007,-1.482645 3.65556,-2.946551 5.50255,-4.395645 l 2.20102,-3.296734 h 2.20102 l 0.68781,-2.197823 c 2.05382,-4.474549 4.78789,-8.448397 8.11627,-12.088025 z"
       fill="#dd0d2e"
       id="path15"
       sodipodi:nodetypes="ccccccccccccccc"
       style="stroke-width:1.09971" /><path
       d="m 159.28635,51.437798 c 4.22221,1.641656 6.01083,3.995895 8.52896,7.69238 l 2.04625,2.953324 c 1.5304,2.541233 1.5304,2.541233 1.5304,4.739055 h 2.20102 l 2.47615,3.15937 c 9.5926,11.452753 23.84798,18.141432 37.14221,24.313417 v 1.09891 c -12.78482,0.99334 -19.46726,-0.91377 -29.26239,-8.924361 -2.81281,-2.437045 -5.49959,-4.952671 -8.15495,-7.559311 l -2.09355,-2.047581 c -4.25075,-4.494831 -7.4041,-9.454733 -10.49353,-14.779499 l -1.18273,-2.035508 c -1.7376,-3.105503 -2.73784,-4.995345 -2.73784,-8.610196 z"
       fill="#dd0e2e"
       id="path16"
       sodipodi:nodetypes="cccccccccccccc"
       style="stroke-width:1.09971" /><path
       d="m 152.6833,51.437798 3.30152,1.098912 c 1.25527,2.528354 1.25527,2.528354 2.47615,5.837966 4.86828,12.153017 11.20071,21.63963 20.24337,30.979859 2.59221,2.742979 2.59221,2.742979 4.79323,6.039719 -4.92252,0.66523 -9.40412,0.90464 -14.30663,0 -3.77665,-3.03005 -5.63579,-6.666713 -7.70357,-10.989116 l -1.56479,-3.202296 c -4.2479,-9.456566 -7.53223,-19.326669 -7.23928,-29.765044 z"
       fill="#dd0e2d"
       id="path17"
       sodipodi:nodetypes="ccccccccc"
       style="stroke-width:1.09971" /><path
       d="m 140.57769,51.437798 h 2.20102 c -0.39305,14.842483 -5.73369,33.198144 -16.50765,43.956456 -3.34452,0.21463 -3.34452,0.21463 -7.29088,0.13736 -1.96196,-0.0298 -1.96196,-0.0298 -3.96356,-0.0601 -1.51084,-0.0382 -1.51084,-0.0382 -3.05219,-0.0773 l 2.82005,-3.29674 1.83991,-2.163479 c 1.21919,-1.400562 2.46542,-2.778575 3.74861,-4.120917 9.06874,-9.647971 15.98842,-21.862682 20.20469,-34.37532 z"
       fill="#dd0e2d"
       id="path18"
       sodipodi:nodetypes="cccccccccc"
       style="stroke-width:1.09971" /><path
       d="m 146.08024,51.437798 h 3.30153 l 0.26813,2.465843 c 0.40937,3.734599 0.82716,7.468213 1.24507,11.201867 l 0.42128,3.878385 c 0.71352,6.323281 1.511,12.475901 3.14946,18.632395 0.41861,2.283406 0.41861,2.283406 0.41861,8.876876 h -14.30663 c 0.69869,-6.735306 1.63035,-13.378744 2.75127,-20.055133 1.36438,-8.331082 2.31139,-16.56362 2.75128,-25.000233 z"
       fill="#de142d"
       id="path19"
       sodipodi:nodetypes="cccccccccc"
       style="stroke-width:1.09971" /><path
       d="m 106.46188,118.47139 h 15.40714 v 3.29673 h -9.90459 v 17.58258 h 9.90459 v 3.29674 h -9.90459 v 9.8902 h 9.90459 v 3.29673 h -15.40714 z"
       fill="#fbecef"
       id="path20"
       sodipodi:nodetypes="ccccccccccccc"
       style="stroke-width:1.09971" /><path
       d="m 132.87412,118.47139 h 13.20612 c -1.5629,7.14983 -3.24486,14.26025 -5.02108,21.36008 l -0.73726,2.98553 -0.71146,2.84814 -0.63865,2.56458 c -0.59512,2.11009 -0.59512,2.11009 -1.69563,4.30792 h 6.60306 v 3.29673 H 130.6731 c 0.74532,-6.73538 2.49056,-13.0143 4.40204,-19.50568 l 0.91135,-3.14649 c 1.11174,-3.82554 2.22909,-7.63481 3.49069,-11.41408 h -6.60306 z"
       fill="#fae7ea"
       id="path21"
       sodipodi:nodetypes="ccccccccccccccc"
       style="stroke-width:1.09971" /><path
       d="m 157.08533,118.47139 h 13.20612 c -2.49239,11.48662 -5.29798,22.84318 -8.80408,34.06625 h 6.60306 v 3.29673 h -13.20611 c 1.56288,-7.14983 3.24485,-14.26025 5.02107,-21.36009 l 0.73726,-2.98552 0.71146,-2.84815 0.63865,-2.56457 c 0.59512,-2.1101 0.59512,-2.1101 1.69563,-4.30792 h -6.60306 z"
       fill="#fae8eb"
       id="path22"
       sodipodi:nodetypes="ccccccccccccc"
       style="stroke-width:1.09971" /><path
       d="m 147.18075,-12.29906 h 2.20102 v 2.197823 l 2.20102,-1.098912 c 3.783,-0.34341 3.783,-0.34341 7.70356,0 1.78833,2.129141 1.78833,2.129141 3.30153,4.3956456 2.85975,0.8837665 2.85975,0.8837665 5.50255,1.0989114 -2.47567,2.2426473 -3.71691,3.2956527 -7.12322,3.3010264 l -2.85015,-0.4850661 c -4.61217,-0.8412298 -4.61217,-0.8412298 -8.73529,1.5796851 -0.40233,3.6868862 -0.40233,3.6868862 -0.20635,7.8297432 l 0.0902,4.2668664 0.11607,3.28815 h 3.30153 v 5.494556 h -9.90459 v -4.395645 h 4.40204 l -0.11849,-2.4036 C 146.88943,9.1988286 146.72541,5.6271846 146.56164,2.0554696 l -0.187,-3.7839476 -0.16122,-3.5950709 -0.15717,-3.3308068 c 0.0239,-2.5457933 0.0239,-2.5457933 1.12442,-3.6447043 z"
       fill="#f8d937"
       id="path23"
       sodipodi:nodetypes="cccccccccccccccccccccccc"
       style="stroke-width:1.09971" /><path
       d="m 84.451682,122.86703 c 4.40204,1.09891 4.40204,1.09891 6.60306,3.29673 0.47244,5.75543 0.59667,9.67247 -3.30153,14.28585 h -3.30153 z"
       fill="#dd0d36"
       id="path26"
       sodipodi:nodetypes="ccccc"
       style="stroke-width:1.09971" /><path
       d="m 139.47718,25.063926 c 0,3.296734 0,3.296734 -1.9259,5.301388 l -2.47614,2.047582 -2.47615,2.073336 -1.92589,1.566808 6.60306,-1.098912 v 2.197823 l 4.40204,1.098911 c -5.48764,1.461246 -10.8706,1.173963 -16.50765,1.098912 v 12.088024 h -1.10051 V 36.05304 c 4.40204,-2.197823 4.40204,-2.197823 7.70357,-2.197823 v -2.197823 c 1.68515,-1.656953 1.68515,-1.656953 3.85178,-3.434098 l 2.16663,-1.794317 z"
       fill="#f6d334"
       id="path27"
       sodipodi:nodetypes="ccccccccccccccccc"
       style="stroke-width:1.09971" /><path
       d="m 147.18075,-7.9034147 h 1.10051 c 0.96868,7.37548524 1.22577,14.5430583 1.10051,21.9782277 h 3.30153 v 5.494556 h -9.90459 v -4.395645 h 4.40204 z"
       fill="#f6d345"
       id="path28"
       sodipodi:nodetypes="ccccccccc"
       style="stroke-width:1.09971" /><path
       d="m 141.6782,26.162837 1.10051,3.296734 c -1.58199,2.953325 -1.58199,2.953325 -3.30153,5.494557 h 2.20102 l 1.10051,-2.197823 h 2.20102 v 4.395646 l 3.57665,-0.618138 c 3.47091,-0.404352 5.33547,-0.529844 8.52895,0.618138 v 2.197823 c -2.66089,0.118971 -5.31643,0.205933 -7.97869,0.274727 -1.12568,0.05524 -1.12568,0.05524 -2.27411,0.111609 -3.96779,0.07693 -5.85942,-0.06599 -8.98893,-2.60133 l -1.66795,-2.180652 z"
       fill="#f8cd1c"
       id="path29"
       sodipodi:nodetypes="ccccccccccccccc"
       style="stroke-width:1.09971" /><path
       d="m 140.57769,66.822557 c -196.541961,-149.133511 -196.541961,-149.133511 0,0 z"
       fill="#f6c11d"
       id="path30"
       sodipodi:nodetypes="cc"
       style="stroke-width:1.09971" /><path
       d="m 153.78381,25.063926 c 3.89265,0.616851 5.49442,1.863289 7.97869,4.876419 l 1.73674,2.056165 c 1.28966,1.858707 1.28966,1.858707 1.28966,4.05653 -2.91264,-0.166195 -4.88933,-0.54947 -7.09312,-2.524062 -3.91197,-4.508971 -3.91197,-4.508971 -3.91197,-8.465052 z"
       fill="#e75a34"
       id="path32"
       sodipodi:nodetypes="cccccc"
       style="stroke-width:1.09971" /><path
       d="m 144.97973,20.668281 h 1.10051 c -0.51363,5.949405 -1.36792,10.115675 -4.40204,15.384759 l -3.30153,-1.098912 2.06345,-2.81596 c 2.48218,-3.682698 3.50651,-7.171571 4.53961,-11.469887 z"
       fill="#df232c"
       id="path37"
       sodipodi:nodetypes="cccccc"
       style="stroke-width:1.09971" /><path
       d="m 140.57769,25.063926 1.10051,3.296734 c -1.5777,2.245041 -1.5777,2.245041 -3.78301,4.601691 l -2.19671,2.382405 -1.72385,1.807195 -4.40204,-1.098911 2.12793,-1.845829 2.75558,-2.412453 2.74697,-2.395284 c 2.33994,-1.953535 2.33994,-1.953535 3.37462,-4.335548 z"
       fill="#e0282b"
       id="path38"
       sodipodi:nodetypes="cccccccccc"
       style="stroke-width:1.09971" /><path
       d="m 237.42256,132.75723 3.30153,1.09891 c 0.96295,2.06046 0.96295,2.06046 1.10051,4.39565 -1.58198,1.92309 -1.58198,1.92309 -3.30153,3.29673 -2.20102,-3.29673 -2.20102,-3.29673 -1.78833,-6.25005 z"
       fill="#f9dce0"
       id="path39"
       sodipodi:nodetypes="cccccc"
       style="stroke-width:1.09971" /><path
       d="m 55.838419,132.75723 3.30153,2.19783 -1.10051,5.49455 h -3.30153 c -0.687819,-1.99177 -0.687819,-1.99177 -1.10051,-4.39564 z"
       fill="#f9dfe4"
       id="path41"
       sodipodi:nodetypes="cccccc"
       style="stroke-width:1.09971" /><path
       d="m 147.18075,19.569369 h 1.10051 l 1.10051,16.483671 h -3.30153 z"
       fill="#df1f2d"
       id="path43"
       sodipodi:nodetypes="ccccc"
       style="stroke-width:1.09971" /><path
       d="m 150.48228,23.965015 c 1.7495,2.620441 3.15561,5.088412 4.5396,7.898425 l 1.17789,2.382405 0.88556,1.807195 c -2.11504,-0.394922 -2.11504,-0.394922 -4.40203,-1.098912 -2.06544,-3.712386 -2.44149,-6.787231 -2.20102,-10.989113 z"
       fill="#de1b2c"
       id="path46"
       sodipodi:nodetypes="cccccc"
       style="stroke-width:1.09971" /><path
       d="m 72.346068,83.306227 h 3.30153 l 1.10051,3.296733 -7.70357,2.197823 v -3.296734 h 2.20102 z"
       fill="#f9d31e"
       id="path48"
       sodipodi:nodetypes="ccccccc"
       style="stroke-width:1.09971" /></g></svg>
