<svg xmlns="http://www.w3.org/2000/svg" width="24" height="24"><path fill="#231f20" fill-rule="evenodd" d="M3.84 7.44c-.11.08-.28.33-.38.55q-.18.39-.32.34Q3 8.3 3 8.43q0 .16.1.17c.06 0 .1.25.1.55s.05.55.1.55q.1-.02.1-.22c0-.47.11-.66.41-.72.43-.08.79-.48.79-.89 0-.54-.33-.72-.76-.43m10.02.12c-.23.13-.27.2-.24.45q.04.28-.07.29c-.07 0-.24.1-.39.2-.32.26-.35.7-.06.95.27.24 1.03.25 1.48.01.32-.17.34-.17.47 0s.16.18.56-.04c.39-.2.44-.2.52-.06q.09.15.34.1c.27-.07.26-.05-.09.46-.22.33-.23.67-.01.75.23.09.52-.3.6-.8.04-.36.18-.55.9-1.26.46-.46.86-.81.89-.79.02.03-.1.34-.26.7-.45.94-.38 1.25.15.72l.26-.26.2.2c.26.29.5.28.88-.04q.32-.27.31-.11c0 .2.36.5.5.42q.12-.07-.1-.27c-.3-.27-.25-.82.08-.86.3-.04.28-.22-.02-.22q-.24 0-.3-.22c-.08-.23-.08-.23-.19.05-.06.15-.15.27-.2.27q-.06.01-.01.24c.1.45-.64.91-.8.5q-.05-.17-.35-.12l-.3.04.25-.55c.45-1-.09-.96-1.18.1-.53.52-.8.72-1 .73q-.44.03-.16-.22.12-.12.02-.22t-.6.23c-.8.55-.78.54-.7.13q.1-.59-.25-.2c-.4.48-1.42.7-1.73.35q-.47-.48.82-.78c.35-.09.44-.26.15-.31-.42-.07-.46-.11-.32-.28.1-.13.25-.15.69-.1l.55.05-.24-.2c-.28-.23-.66-.24-1.05-.03m-9.98.21c-.1.1-.21.3-.27.46-.1.25-.09.27.14.27.27 0 .67-.45.63-.7-.05-.22-.32-.24-.5-.03m.99.25a6 6 0 0 0-.37 1.4c0 .24.26.23.57-.02.33-.25.5-.25.72 0l.16.21.46-.2c.45-.18.46-.18.57 0 .13.2.47.26.57.1.03-.06.19-.08.34-.05q.45.1.98-.38c.21-.2.21-.2.32 0q.12.2-.04.32c-.2.16-.2.49 0 .56.19.08.44-.12.56-.43.1-.26.19-.27.69-.13.43.12.99-.02 1.4-.36.37-.31.44-.67.07-.4-.6.44-.85.56-1.16.56h-.34l.23-.25c.28-.3.17-.48-.26-.43q-.29.02-.34.27c-.07.3-.48.48-.57.26a1 1 0 0 1 0-.45c.08-.35-.11-.41-.3-.1-.16.25-.91.8-1.1.8a.14.14 0 0 1-.13-.14c0-.07-.1-.2-.23-.29-.22-.14-.28-.13-.83.1-.86.36-.94.38-.94.2 0-.26-.38-.3-.75-.08-.41.24-.42.2-.15-.69.22-.73.11-1.06-.13-.38"/></svg>