<svg xmlns="http://www.w3.org/2000/svg" width="24" height="24"><path fill="#c4c4c4" fill-rule="evenodd" d="M15.21 6.43c-.06.08-.17.3-.25.5-.12.27-.22.36-.5.41-.66.12-1.16.73-1.16 1.4q0 .46.4.46c.05 0 .25-.14.44-.3l.35-.31.2.2c.17.17.26.2.4.11.12-.06.38-.08.6-.04.47.07.75-.06 1.01-.48l.19-.31.28.31q.48.54 1.37.18c.2-.08.39-.1.47-.05.52.33 1.99-.2 1.99-.73q0-.35-.48 0c-.3.22-1.02.44-1.02.32q.01-.07.14-.13a1 1 0 0 0 .32-.32c.13-.2.15-.3.06-.5-.26-.57-1.32-.06-1.32.63 0 .32-.17.42-.72.42-.46 0-.27-.45.25-.63q.17-.07.15-.24c-.06-.28-.56-.19-.94.18l-.33.32-.28-.32-.29-.31-.4.19q-.64.31-.78.79c-.08.23-.36.31-.36.1 0-.07.16-.51.35-.97.18-.47.32-.88.29-.93-.08-.12-.3-.1-.43.05m-8.24.83c-.04.04-.07.16-.07.26q-.01.2.22.16.23-.03.23-.23c0-.2-.25-.32-.38-.19m-3.3.7c-.04.04-.07.16-.07.26 0 .14.08.18.38.18.4 0 .62.16.75.53.09.23-.02.47-.2.47-.12 0-.14-.08-.09-.34q.08-.34-.1-.46c-.18-.16-.28-.07-.43.42-.11.35-.14.36-.38.27-.53-.2-.76.21-.25.43l.3.14c.02.02-.04.34-.14.72-.18.71-.15 1.02.1 1.02q.15 0 .4-.84l.26-.84.44-.06c.24-.04.6-.16.82-.27l.39-.2.14.2q.25.4.74.01c.21-.17.26-.17.3-.05.1.27.36.16.56-.23.1-.21.26-.44.34-.5.12-.1.16-.07.21.23q.13.65.67.32.28-.14.34-.06c.1.14.37.1.57-.08q.16-.14.18-.05c0 .06-.15.2-.34.31-.37.23-.66.61-.66.86 0 .24.37.55.65.55.2 0 .3-.09.45-.42.1-.24.2-.55.2-.69q0-.25.3-.47.32-.25.3-.08c0 .14.2.26.45.26s.75-.52.86-.9c.26-.85-.42-.92-1.23-.14l-.5.49.05-.36c.04-.28 0-.4-.14-.53-.32-.27-.57-.19-1.1.36-.27.28-.5.5-.52.47l-.13-.34c-.11-.35-.38-.43-.64-.2-.1.1-.23.14-.3.1-.05-.03-.32.15-.6.41q-.82.77-.46.05c.09-.16.16-.37.16-.46 0-.25-.35-.17-.58.15-.12.16-.35.36-.5.44-.28.14-.29.14-.4-.19-.18-.48-.75-.95-1.16-.95-.18 0-.36.03-.4.07"/></svg>