<?xml version="1.0" encoding="UTF-8" standalone="no"?>
<svg
   viewBox="0 0 24 24"
   width="24pt"
   height="24pt"
   version="1.1"
   id="svg1"
   sodipodi:docname="pink_master_pin.svg"
   xml:space="preserve"
   xmlns:inkscape="http://www.inkscape.org/namespaces/inkscape"
   xmlns:sodipodi="http://sodipodi.sourceforge.net/DTD/sodipodi-0.dtd"
   xmlns="http://www.w3.org/2000/svg"
   xmlns:svg="http://www.w3.org/2000/svg"><defs
     id="defs1" /><sodipodi:namedview
     id="namedview1"
     pagecolor="#ffffff"
     bordercolor="#000000"
     borderopacity="0.25"
     inkscape:showpageshadow="2"
     inkscape:pageopacity="0.0"
     inkscape:pagecheckerboard="0"
     inkscape:deskcolor="#d1d1d1"
     inkscape:document-units="pt"
     inkscape:lockguides="true"><inkscape:page
       x="0"
       y="0"
       width="24"
       height="24"
       id="page2"
       margin="0"
       bleed="0" /></sodipodi:namedview><g
     id="g1"
     transform="matrix(0.07402896,0,0,0.08407057,3.4336733,1.7096944)"><path
       d="m 0,0 c 4.0364588,-0.31658501 6.3233319,-0.4210379 9.8125,1.75 3.379371,3.4759249 4.148588,5.0826383 4.3125,10 C 14.08375,12.8225 14.0425,13.895 14,15 14.611016,14.783438 15.222031,14.566875 15.851563,14.34375 32.266537,9.3498985 50.554464,10.622602 66.125,17.5625 78.096691,23.963051 85.493734,34.129462 89.615723,46.908936 94.591219,64.925725 89.347704,82.890751 81,99 c -0.501445,0.996445 -1.002891,1.99289 -1.519531,3.01953 C 74.883359,110.55383 68.81869,117.21615 62,124 c -0.911367,0.91137 -1.822734,1.82273 -2.761719,2.76172 C 40.489015,144.63511 16.92707,153.70533 -8.7429199,153.4729 -20.675535,153.10342 -30.13958,149.83752 -40,143 c -1.051875,-0.72188 -2.10375,-1.44375 -3.1875,-2.1875 C -47.289272,136.71073 -50.08397,131.98834 -53,127 c -0.598125,-1.01063 -1.19625,-2.02125 -1.8125,-3.0625 -6.433518,-15.91449 -3.822112,-33.892478 2.578125,-49.335938 C -46.552658,61.634383 -38.662943,51.311613 -29,41 c -0.78375,-0.763125 -1.5675,-1.52625 -2.375,-2.3125 -4.540164,-4.648264 -4.540164,-4.648264 -4.875,-8.75 C -36,27 -36,27 -34,25 c 0.66,3.96 1.32,7.92 2,12 4.042319,1.347439 7.773342,1.564572 12,1 2.631382,-1.627249 2.631382,-1.627249 4,-4 0,-0.99 0,-1.98 0,-3 0.316698,-2.335649 0.648208,-4.669378 1,-7 0.33,0 0.66,0 1,0 0.09281,1.60875 0.09281,1.60875 0.1875,3.25 0.47396,3.88532 0.47396,3.88532 3.375,6.1875 C -9.633125,33.953125 -8.82875,34.46875 -8,35 -7.3851172,34.566875 -6.7702344,34.13375 -6.1367187,33.6875 -5.3284766,33.130625 -4.5202344,32.57375 -3.6875,32 -2.8869922,31.443125 -2.0864844,30.88625 -1.2617187,30.3125 1,29 1,29 4,29 2.8980792,25.849803 1.7270848,22.862774 0,20 -3.0747177,18.330838 -3.0747177,18.330838 -6,18 -6,17.67 -6,17.34 -6,17 -2.7,16.67 0.6,16.34 4,16 3.34,17.32 2.68,18.64 2,20 3.3137199,19.524188 4.6259455,19.044249 5.9375,18.5625 6.6683984,18.295664 7.3992969,18.028828 8.1523438,17.753906 9.9830568,17.146131 9.9830568,17.146131 11,16 11.687335,11.247573 11.658053,7.9771083 8.9375,3.9375 5.3558766,1.5751526 3.2096581,1.5872884 -1,2 -0.67,1.34 -0.34,0.68 0,0 Z"
       fill="#f5020b"
       transform="translate(102,27)"
       id="path2" /><path
       d="M 0,0 C 0.33,0 0.66,0 1,0 1.061875,1.0725 1.12375,2.145 1.1875,3.25 1.673822,7.0963137 1.673822,7.0963137 4.375,9.4375 6.9205069,11.255742 6.9205069,11.255742 10,11 8.7304688,12.497396 7.4609375,13.994792 6.1914062,15.492188 3.5268706,18.864354 3.8342729,21.71791 3.8125,25.9375 3.7983203,27.184023 3.7841406,28.430547 3.7695313,29.714844 4.0285171,33.40649 4.9664104,34.96641 7.5625,37.5625 9,39 9,39 10,41 c 0.99,0 1.98,0 3,0 0.33,0.99 0.66,1.98 1,3 3.008474,1.225203 3.008474,1.225203 6,2 0,0.33 0,0.66 0,1 -2.31,0 -4.62,0 -7,0 0,0.66 0,1.32 0,2 -2.97,0.99 -5.94,1.98 -9,3 1.0587507,3.403127 2.0090215,6.013532 4,9 1.051875,-0.33 2.10375,-0.66 3.1875,-1 3.201234,-0.839668 5.553601,-1.197509 8.8125,-1 -0.99,0.66 -1.98,1.32 -3,2 -1.460786,3.094078 -1.460786,3.094078 -2.6875,6.625 -0.436992,1.188516 -0.873984,2.377031 -1.324219,3.601562 C 12.499082,72.599414 12.499082,72.599414 12,74 10.68,73.67 9.36,73.34 8,73 8.33,73.61875 8.66,74.2375 9,74.875 10,77 10,77 10,79 c 0.328434,2.063816 0.328434,2.063816 1,4 0.99,0.495 0.99,0.495 2,1 3.710386,7.594697 4.995398,15.685598 6,24 -1.98,0.495 -1.98,0.495 -4,1 0.33,0.66 0.66,1.32 1,2 -0.33,0.33 -0.66,0.66 -1,1 0.99,0.33 1.98,0.66 3,1 -5.625,4 -5.625,4 -9,4 0.9590625,0.18563 0.9590625,0.18563 1.9375,0.375 0.680625,0.20625 1.36125,0.4125 2.0625,0.625 0.33,0.66 0.66,1.32 1,2 1.98,-0.495 1.98,-0.495 4,-1 -0.99,0.33 -1.98,0.66 -3,1 0.372758,-2.70249 0.784488,-3.79935 2.8125,-5.6875 C 20,113 20,113 22.125,112.5625 c 2.090901,-0.39898 2.090901,-0.39898 3.125,-2.625 0.37125,-0.95906 0.37125,-0.95906 0.75,-1.9375 -0.66,0 -1.32,0 -2,0 -0.02685,-2.6459 -0.04676,-5.29153 -0.0625,-7.9375 C 23.9291,99.307754 23.92074,98.553008 23.91211,97.775391 23.903476,95.850057 23.947757,93.924644 24,92 25,91 25,91 28.0625,90.9375 29.031875,90.95812 30.00125,90.97875 31,91 c 0.66,1.65 1.32,3.3 2,5 0.66,0 1.32,0 2,0 0.170156,0.819844 0.340313,1.639687 0.515625,2.484375 0.363516,1.616485 0.363516,1.616485 0.734375,3.265625 0.232031,1.06734 0.464062,2.13469 0.703125,3.23438 C 38.103149,108.29713 39.423727,109.6922 42,112 c 0.309375,0.72187 0.61875,1.44375 0.9375,2.1875 0.955917,2.10884 0.955917,2.10884 3.6875,2.5625 0.78375,0.0825 1.5675,0.165 2.375,0.25 0,-0.66 0,-1.32 0,-2 1.65,0.33 3.3,0.66 5,1 -7.847974,8.99581 -24.344605,12.2956 -35.795898,13.22754 C 1.852328,130.0893 -11.259206,128.52829 -25,119 c -1.577812,-1.08281 -1.577812,-1.08281 -3.1875,-2.1875 C -32.289272,112.71073 -35.08397,107.98834 -38,103 c -0.598125,-1.01063 -1.19625,-2.02125 -1.8125,-3.0625 -6.433518,-15.914492 -3.822112,-33.892478 2.578125,-49.335938 C -31.552658,37.634383 -23.662943,27.311613 -14,17 c -0.78375,-0.763125 -1.5675,-1.52625 -2.375,-2.3125 -4.540164,-4.648264 -4.540164,-4.648264 -4.875,-8.75 C -21,3 -21,3 -19,1 c 0.66,3.96 1.32,7.92 2,12 4.042319,1.34744 7.7733422,1.564572 12,1 2.6313821,-1.627249 2.6313821,-1.627249 4,-4 0,-0.99 0,-1.98 0,-3 0.31669821,-2.3356493 0.64820803,-4.6693782 1,-7 z"
       fill="#f6030b"
       transform="translate(87,51)"
       id="path3" /><path
       d="M 0,0 C 0.99,0.33 1.98,0.66 3,1 2.125,4.875 2.125,4.875 1,6 1.5775,5.67 2.155,5.34 2.75,5 5,4 5,4 9,4 7.547443,7.8294684 5.5710444,9.120503 2,11 c 0.5310938,0.30293 1.0621875,0.605859 1.609375,0.917969 6.4743,3.839685 10.458467,7.747308 12.910156,14.980468 1.503192,6.574935 -0.88065,11.589888 -4.1875,17.117188 C 9.9324424,47.590379 8.1028341,49.632389 4,51 -3.3971565,51.5198 -9.4122332,51.504131 -16,48 -16.7425,47.855625 -17.485,47.71125 -18.25,47.5625 -20.756614,46.756803 -21.541589,45.121325 -23,43 c -0.66,-0.33 -1.32,-0.66 -2,-1 -2.137336,-6.412007 -2.248823,-14.409848 0.6875,-20.5 0.763125,-0.825 1.52625,-1.65 2.3125,-2.5 0.83346,-1.083236 1.666791,-2.166571 2.5,-3.25 2.212754,-2.434029 3.42698,-3.758703 6.5,-4.75 1.32,0 2.64,0 4,0 0.185625,-0.70125 0.37125,-1.4025 0.5625,-2.125 C -6.5119988,5.0239977 -3.7205522,2.2041579 0,0 Z"
       fill="#f6cc03"
       transform="translate(116,45)"
       id="path4" /><path
       d="m 0,0 c 5.5836697,0.25970557 8.1380634,2.2300143 12,6 0,0.66 0,1.32 0,2 3.26461,-1.8041264 4.889298,-2.8339469 7,-6 3.122906,0.4857854 5.995804,0.9986012 9,2 -1.364496,5.2098932 -3.398498,8.128386 -7,12 -2.956645,1.478323 -5.742297,1.060328 -9,1 0.495,0.99 0.495,0.99 1,2 0.468442,3.403618 0.591763,6.60832 0,10 -5.6142714,5.115225 -11.0184803,5.206253 -18.1875,5.25 -0.8256445,0.02063 -1.6512891,0.04125 -2.5019531,0.0625 C -13.893981,34.351614 -19.803609,33.72337 -24.727295,29.52832 -26,28 -26,28 -25.9375,25.875 -24.600438,21.774678 -22.827899,17.902353 -21,14 c -2.97,0.66 -5.94,1.32 -9,2 C -33.291084,12.390424 -34.546639,9.8736285 -35,5 -25.483859,1.5320789 -16.655948,0.5667739 -7,4 -7.1637109,4.5620313 -7.3274219,5.1240625 -7.4960937,5.703125 -8.02865,8.1305906 -8.0989868,10.268897 -8.0625,12.75 c 0.00902,0.799219 0.018047,1.598437 0.027344,2.421875 C -8.0235547,15.775156 -8.0119531,16.378437 -8,17 -7.54625,16.54625 -7.0925,16.0925 -6.625,15.625 -5.4166667,14.416667 -4.2083333,13.208333 -3,12 c 0.495,1.485 0.495,1.485 1,3 0.66,0 1.32,0 2,0 C 0.0947509,10.167704 0.0374043,5.7424197 -1,1 -0.67,0.67 -0.34,0.34 0,0 Z"
       fill="#f4f4f3"
       transform="translate(125,97)"
       id="path5" /><path
       d="M 0,0 C 0.804375,0.680625 1.60875,1.36125 2.4375,2.0625 4.748463,4.2387533 4.748463,4.2387533 7.1289062,3.9023438 7.9113672,3.7695703 8.6938281,3.6367969 9.5,3.5 13.666667,2.7986111 13.666667,2.7986111 17,4.8125 20.257648,8.3755528 20.455844,11.096649 20.417969,15.800781 20,18 20,18 17.25,20.5625 14,22 14,22 10,22 c 0,-0.99 0,-1.98 0,-3 -2.31,0.33 -4.62,0.66 -7,1 0.928125,0.144375 1.85625,0.28875 2.8125,0.4375 C 9,22 9,22 10.066406,24.136719 10.805505,26.411143 11.453948,28.672095 12,31 11.480508,31.253945 10.961016,31.507891 10.425781,31.769531 6.5133429,33.700439 2.7041846,35.684885 -1,38 c -1.98,-1.65 -3.96,-3.3 -6,-5 0,0.66 0,1.32 0,2 -1.3057167,3.214072 -1.9792805,3.986187 -5,6 -3.044535,0.482192 -5.952911,0.462849 -9,0 -2.501608,-1.876206 -3.619457,-3.238913 -5,-6 -0.475837,-3.403136 -0.599352,-6.609072 0,-10 1.979569,-1.690882 3.979452,-3.358305 6,-5 0.32483,-2.351766 0.188155,-4.490122 0.03125,-6.855469 C -20.014711,9.9904708 -18.984915,8.3955873 -17,6 -11.749605,1.2881066 -7.2666107,-1.274587 0,0 Z"
       fill="#ededed"
       transform="translate(94,25)"
       id="path6" /><path
       d="M 0,0 C 2.2701578,0.96854963 4.4093193,2.040357 6.5664062,3.2382813 7.18,3.5618359 7.7935938,3.8853906 8.4257813,4.21875 c 1.6406247,0.9570312 1.6406247,0.9570312 4.1406247,3.0195312 0.65625,2.6289063 0.65625,2.6289063 1,4.9999998 -5.8147569,3.27592 -10.245207,5.734217 -16.9999998,5 0,0.66 0,1.32 0,2 -2.6399999,0 -5.2799999,0 -8.0000002,0 -0.0825,0.7425 -0.165,1.485 -0.25,2.25 -0.889694,3.262214 -2.235037,4.559549 -4.75,6.75 1.875,-5.75 1.875,-5.75 3,-8 -4.455,-0.99 -4.455,-0.99 -9,-2 0,-0.66 0,-1.32 0,-2 -0.763125,-0.103125 -1.52625,-0.20625 -2.3125,-0.3125 -2.908672,-0.744079 -4.067609,-1.16767 -5.6875,-3.6875 0.0625,-2.5624997 0.0625,-2.5624997 1,-4.9999998 3.116097,-2.4236304 6.173727,-2.1739215 10,-2 0,0.33 0,0.66 0,1 2.64,0.66 5.28,1.32 8,2.0000001 -3.505385,-1.963016 -7.133517,-2.9590239 -11,-4.0000001 1.333334,-0.6666666 2.666667,-1.3333333 4,-1.9999999 0.86625,-0.5362501 1.7325,-1.0725001 2.625,-1.62500005 C -10.515737,-1.5430678 -5.481552,-1.7157346 0,0 Z"
       fill="#f69801"
       transform="translate(166.43359,80.761719)"
       id="path7" /><path
       d="m 0,0 c 4.0759154,1.2322535 7.3714961,2.8038003 11,5 3.246364,1.0552007 6.240601,1.1157415 9.640625,1.0976562 1.069922,-0.00322 2.139844,-0.00645 3.242187,-0.00977 1.111172,-0.00838 2.222344,-0.016758 3.367188,-0.025391 1.126641,-0.00451 2.253281,-0.00902 3.414062,-0.013672 C 33.442762,6.037054 36.221354,6.0206084 39,6 35.496016,11.532208 32.330885,14.889705 26,17 24.498996,16.970089 22.998455,16.904905 21.5,16.8125 19.130952,16.71885 19.130952,16.71885 17,17 c -1.774098,1.920227 -1.774098,1.920227 -3,4 -2.6875,0.25 -2.6875,0.25 -5,0 C 5,14.375 5,14.375 5,11 3.68,10.34 2.36,9.68 1,9 1,8.01 1,7.02 1,6 0.67619874,4.6643198 0.34342449,3.3307699 0,2 0,1.34 0,0.68 0,0 Z"
       fill="#f9ce03"
       transform="translate(95,124)"
       id="path8" /><path
       d="M 0,0 C 2.2701578,0.96854963 4.4093193,2.040357 6.5664062,3.2382813 7.18,3.5618359 7.7935938,3.8853906 8.4257813,4.21875 c 1.6406247,0.9570312 1.6406247,0.9570312 4.1406247,3.0195312 0.65625,2.6289063 0.65625,2.6289063 1,4.9999998 -9.2374908,5.036942 -16.5682412,6.188905 -27,6 0.33,-0.66 0.66,-1.32 1,-2 1.925781,-0.449218 1.925781,-0.449218 4.3125002,-0.6875 0.7798829,-0.08637 1.5597657,-0.172734 2.3632813,-0.261718 2.3170898,-0.05063 4.1170927,0.277484 6.32421875,0.949218 0,-0.99 0,-1.98 0,-3 2.31000005,0 4.61999995,0 6.99999995,0 0,-0.66 0,-1.32 0,-2 0.9900001,0 1.9800001,0 2.9999998,0 0,-0.99 0,-1.9799997 0,-2.9999997 -0.9281247,0.1649999 -1.8562497,0.33 -2.8124998,0.5 -3.1875,0.5 -3.1875,0.5 -6.1875,0.5 -4.6501106,0.471769 -4.6501106,0.471769 -8.9999999,1.9999997 C -9.1328125,10.3125 -9.1328125,10.3125 -11.121094,8.9257813 c -3.736365,-2.4590339 -6.968567,-3.6920154 -11.3125,-4.6875001 1.333334,-0.6666666 2.666667,-1.3333333 4,-1.9999999 1.299375,-0.8043751 1.299375,-0.8043751 2.625,-1.62500005 C -10.515737,-1.5430678 -5.481552,-1.7157346 0,0 Z"
       fill="#8e8334"
       transform="translate(166.43359,80.761719)"
       id="path9" /><path
       d="M 0,0 C 0.66,0.33 1.32,0.66 2,1 1.95875,1.928125 1.9175,2.85625 1.875,3.8125 1.7286366,7.1580972 1.7286366,7.1580972 4,10 c 2.8687187,0.918288 2.8687187,0.918288 6,0 2.066895,-2.4641682 3.554778,-5.1351345 5,-8 2.356142,2.2688771 4.543877,4.6054206 6.625,7.125 2.235749,2.798955 2.235749,2.798955 4.375,4.875 -1.65,0.99 -3.3,1.98 -5,3 -1.98,-1.65 -3.96,-3.3 -6,-5 0,0.66 0,1.32 0,2 -1.305717,3.214072 -1.979281,3.986187 -5,6 C 6.9554651,20.482192 4.0470891,20.462849 1,20 -1.5016082,18.123794 -2.6194565,16.761087 -4,14 -4.9326326,5.2240803 -4.9326326,5.2240803 -2,1.375 -1.34,0.92125 -0.68,0.4675 0,0 Z"
       fill="#cec8bb"
       transform="translate(72,46)"
       id="path10" /><path
       d="M 0,0 C -0.61875,0.061875 -1.2375,0.12375 -1.875,0.1875 -4.1914067,0.79525019 -4.1914067,0.79525019 -5,3.0625 -5.33,4.031875 -5.66,5.00125 -6,6 -6.7008436,7.2957458 -7.4097927,8.5871268 -8.125,9.875 -10.073542,13.786735 -10.631009,16.58294 -10,21 -7.1290592,29.152244 -2.1540099,32.622842 5.4257812,36.265625 5.9452734,36.507969 6.4647656,36.750312 7,37 c 0,0.66 0,1.32 0,2 -5.4891817,-0.346811 -9.3473116,-0.852593 -14,-4 -0.99,0 -1.98,0 -3,0 -1.046254,-1.297355 -2.047012,-2.63267 -3,-4 -0.66,-0.33 -1.32,-0.66 -2,-1 -2.137336,-6.412007 -2.248823,-14.409848 0.6875,-20.5 C -13.167813,8.2625 -13.167813,8.2625 -12,7 -11.16654,5.9167644 -10.333209,4.8334292 -9.5,3.75 -4.6744186,-1.5581395 -4.6744186,-1.5581395 0,0 Z"
       fill="#efb52d"
       transform="translate(106,57)"
       id="path11" /><path
       d="M 0,0 C 0,3 0,3 -1,6 1.475,6.495 1.475,6.495 4,7 2,8 2,8 -2,8 -1.8743164,8.8875195 -1.8743164,8.8875195 -1.7460937,9.7929688 -1.1911058,14.099395 -0.76773348,17.755526 -2,22 c -0.66,0 -1.32,0 -2,0 -0.33,-0.66 -0.66,-1.32 -1,-2 -1.65,1.65 -3.3,3.3 -5,5 -1.570273,-1.570273 -1.169744,-3.142699 -1.1875,-5.3125 -0.01418,-0.779883 -0.02836,-1.559766 -0.04297,-2.363281 C -10.979844,14.796733 -10.263738,13.18282 -9,11 -14.979954,10.069785 -20.970993,9.5124111 -27,9 c 0,-0.33 0,-0.66 0,-1 1.98,-0.33 3.96,-0.66 6,-1 -2.475,-0.99 -2.475,-0.99 -5,-2 3,-1 3,-1 6,0 2.121647,0.1455483 4.248567,0.2208041 6.375,0.25 1.121484,0.025781 2.242969,0.051563 3.398437,0.078125 C -5.709574,4.8687702 -3.1639344,3.1639344 0,0 Z"
       fill="#9a0d12"
       transform="translate(127,90)"
       id="path12" /><path
       d="M 0,0 C 2.97,0.495 2.97,0.495 6,1 5.67,1.66 5.34,2.32 5,3 c 0.6535808,2.0043145 1.3213694,4.0040278 2,6 0,1.32 0,2.64 0,4 -1.65,0.66 -3.3,1.32 -5,2 1.98,-0.33 3.96,-0.66 6,-1 -0.0625,2.3125 -0.0625,2.3125 -1,5 -3.4375,1.75 -3.4375,1.75 -7,3 -0.66,0.33 -1.32,0.66 -2,1 C -6.979638,18.180995 -6.979638,18.180995 -7.0625,13.375 -7.041875,12.26125 -7.02125,11.1475 -7,10 c 0.66,0 1.32,0 2,0 C -4.731875,9.46375 -4.46375,8.9275 -4.1875,8.375 -2.7916667,5.5833333 -1.3958333,2.7916667 0,0 Z"
       fill="#463a25"
       transform="translate(86,100)"
       id="path13" /><path
       d="m 0,0 c 1.4250006,3.9900017 2.4007578,7.8053043 3,12 3.63,0 7.26,0 11,0 0.959049,3.836194 0.918921,5.324315 0,9 -1.32,0 -2.64,0 -4,0 0,0.66 0,1.32 0,2 C 7.75,23.375 7.75,23.375 5,23 1,18.027027 1,18.027027 1,15 -0.32,14.34 -1.64,13.68 -3,13 -3,11.68 -3,10.36 -3,9 -3.2914204,7.5741214 -3.6250096,6.156214 -4,4.75 -4.33,3.5125 -4.66,2.275 -5,1 -2,0 -2,0 0,0 Z"
       fill="#8d5309"
       transform="translate(126,145)"
       id="path14" /><path
       d="m 0,0 c 4.0759154,1.2322535 7.3714961,2.8038003 11,5 3.113069,0.9966991 5.945549,1.1165956 9.203125,1.0976562 0.979687,-0.00322 1.959375,-0.00645 2.96875,-0.00977 1.015781,-0.00838 2.031562,-0.016758 3.078125,-0.025391 1.03125,-0.00451 2.0625,-0.00902 3.125,-0.013672 C 31.916726,6.0370609 34.458333,6.0206201 37,6 34.149577,8.8504234 32.024264,8.9539352 28.046875,9.1328125 21.936206,9.1183322 16.039822,8.9474231 10,8 c 0.144375,1.27875 0.28875,2.5575 0.4375,3.875 0.08121,0.719297 0.162422,1.438594 0.246094,2.179688 C 10.91293,16.074043 10.91293,16.074043 12,18 c 0.99,0.66 1.98,1.32 3,2 -1,1 -1,1 -3.5625,1.0625 C 10.633125,21.041875 9.82875,21.02125 9,21 5,14.375 5,14.375 5,11 3.68,10.34 2.36,9.68 1,9 1,8.01 1,7.02 1,6 0.67619874,4.6643198 0.34342449,3.3307699 0,2 0,1.34 0,0.68 0,0 Z"
       fill="#bf952e"
       transform="translate(95,124)"
       id="path15" /><path
       d="M 0,0 C 0.8353125,0.556875 0.8353125,0.556875 1.6875,1.125 4.8202967,2.3103826 5.9994958,1.3172945 9,0 11.8125,-0.125 11.8125,-0.125 14,0 13.01,0.66 12.02,1.32 11,2 9.5392139,5.0940783 9.5392139,5.0940783 8.3125,8.625 7.8755078,9.8135156 7.4385156,11.002031 6.9882812,12.226563 6.6621484,13.141797 6.3360156,14.057031 6,15 4.68,14.67 3.36,14.34 2,14 2.495,14.928125 2.495,14.928125 3,15.875 4,18 4,18 4,20 4.3180294,21.669655 4.6498495,23.336785 5,25 4.01,24.67 3.02,24.34 2,24 0.52305434,20.086094 -0.60226148,17.005654 1,13 0.34,12.67 -0.32,12.34 -1,12 -0.01,10.68 0.98,9.36 2,8 1.34,7.67 0.68,7.34 0,7 0.33,6.01 0.66,5.02 1,4 0.46375,4.33 -0.0725,4.66 -0.625,5 -3.5391061,6.226992 -5.8686771,6.1423329 -9,6 -6.03313,4.3517389 -3.3437348,3.5572891 0,3 0,2.01 0,1.02 0,0 Z"
       fill="#b60e14"
       transform="translate(93,110)"
       id="path16" /><path
       d="m 0,0 c 0.66,0 1.32,0 2,0 1.506621,3.0132419 1.1777037,5.6828638 1,9 -0.66,0.66 -1.32,1.32 -2,2 0.66,0.33 1.32,0.66 2,1 -1,3 -1,3 -3,4 -0.65213292,2.024633 -0.65213292,2.024633 -1,4 -5.75,-0.75 -5.75,-0.75 -8,-3 0,-1.32 0,-2.64 0,-4 0.825,-0.598125 1.65,-1.19625 2.5,-1.8125 C -3.5739876,9.138749 -3.5739876,9.138749 -3.6875,5.25 -3.790625,4.1775 -3.89375,3.105 -4,2 -3.01,1.67 -2.02,1.34 -1,1 -0.34,2.65 0.32,4.3 1,6 0.67,4.02 0.34,2.04 0,0 Z"
       fill="#8b6111"
       transform="translate(122,66)"
       id="path17" /><path
       d="m 0,0 c 4.0364588,-0.31658501 6.3233319,-0.4210379 9.8125,1.75 2.677001,2.7534863 4.203031,4.6865319 4.164063,8.609375 C 13.860547,11.148281 13.744531,11.937188 13.625,12.75 13.458711,13.948828 13.458711,13.948828 13.289063,15.171875 13.145977,16.076797 13.145977,16.076797 13,17 c 1.65,0.33 3.3,0.66 5,1 -0.33,0.99 -0.66,1.98 -1,3 C 16.67,20.34 16.34,19.68 16,19 10.958989,20.440289 9.0995499,22.978962 6,27 5.34,27.66 4.68,28.32 4,29 3.6712891,28.060273 3.6712891,28.060273 3.3359375,27.101562 1.3572331,21.650331 1.3572331,21.650331 -3.25,18.4375 -4.61125,18.220938 -4.61125,18.220938 -6,18 -6,17.67 -6,17.34 -6,17 -2.7,16.67 0.6,16.34 4,16 3.34,17.32 2.68,18.64 2,20 3.3137199,19.524188 4.6259455,19.044249 5.9375,18.5625 6.6683984,18.295664 7.3992969,18.028828 8.1523438,17.753906 9.9830568,17.146131 9.9830568,17.146131 11,16 11.687335,11.247573 11.658053,7.9771083 8.9375,3.9375 5.3558766,1.5751526 3.2096581,1.5872884 -1,2 -0.67,1.34 -0.34,0.68 0,0 Z"
       fill="#351d17"
       transform="translate(102,27)"
       id="path18" /><path
       d="m 0,0 c -0.99,0.495 -0.99,0.495 -2,1 0,2.97 0,5.94 0,9 1.11375,0.144375 2.2275,0.28875 3.375,0.4375 C 5,11 5,11 7,12 c 1.5366887,0.224678 3.079681,0.407968 4.625,0.5625 0.817266,0.08379 1.634531,0.167578 2.476563,0.253906 C 14.728047,12.876992 15.354531,12.937578 16,13 c 0,0.33 0,0.66 0,1 -2.64,0 -5.28,0 -8,0 C 7.9175,14.7425 7.835,15.485 7.75,16.25 6.8603054,19.512214 5.5149625,20.809549 3,23 4.875,17.25 4.875,17.25 6,15 1.545,14.01 1.545,14.01 -3,13 -3,12.34 -3,11.68 -3,11 -3.763125,10.896875 -4.52625,10.79375 -5.3125,10.6875 -8.2211721,9.9434211 -9.3801097,9.5198293 -11,7 c 0.0625,-2.5625 0.0625,-2.5625 1,-5 3.1160963,-2.42363044 6.1737268,-2.17392151 10,-2 z"
       fill="#4c251c"
       transform="translate(147,86)"
       id="path19" /><path
       d="m 0,0 c 0,0.99 0,1.98 0,3 -0.99,0 -1.98,0 -3,0 0,0.66 0,1.32 0,2 -2.31,0 -4.62,0 -7,0 0,0.99 0,1.98 0,3 -3.3,-0.33 -6.6,-0.66 -10,-1 0,-0.33 0,-0.66 0,-1 1.98,0 3.96,0 6,0 0,-0.66 0,-1.32 0,-2 -2.31,-0.33 -4.62,-0.66 -7,-1 0.33,-0.66 0.66,-1.32 1,-2 0.99,0.33 1.98,0.66 3,1 0.99,-0.66 1.98,-1.32 3,-2 3.0625,-0.125 3.0625,-0.125 6,0 z"
       fill="#6c4d0c"
       transform="translate(177,89)"
       id="path20" /><path
       d="m 0,0 c 1.9375,0.6875 1.9375,0.6875 4,2 0.6289062,2.5820312 0.6289062,2.5820312 1,5 -9.237491,5.036942 -16.568241,6.188905 -27,6 0.33,-0.66 0.66,-1.32 1,-2 1.925781,-0.449219 1.925781,-0.449219 4.3125,-0.6875 1.169824,-0.129551 1.169824,-0.129551 2.363281,-0.261719 C -12.007129,10.000156 -10.207126,10.328266 -8,11 c 0,-0.99 0,-1.98 0,-3 2.31,0 4.62,0 7,0 0,-0.66 0,-1.32 0,-2 0.99,0 1.98,0 3,0 C 2,5.01 2,4.02 2,3 1.01,2.67 0.02,2.34 -1,2 -0.67,1.34 -0.34,0.68 0,0 Z"
       fill="#edeceb"
       transform="translate(175,86)"
       id="path21" /><path
       d="M 0,0 C 0.33,0 0.66,0 1,0 1.0489844,0.62648437 1.0979687,1.2529687 1.1484375,1.8984375 1.2232031,2.7157031 1.2979687,3.5329688 1.375,4.375 1.4446094,5.1871094 1.5142187,5.9992187 1.5859375,6.8359375 1.8289259,9.2033419 1.8289259,9.2033419 4,11 c 0.99,-0.33 1.98,-0.66 3,-1 -0.6875,1.9375 -0.6875,1.9375 -2,4 -1.6666667,0.333333 -3.3333333,0.666667 -5,1 -1.3602015,1.967583 -1.3602015,1.967583 -2,4 0.99,-0.66 1.98,-1.32 3,-2 -0.66,1.32 -1.32,2.64 -2,4 -1.32,-0.33 -2.64,-0.66 -4,-1 0,-0.66 0,-1.32 0,-2 -0.99,0.33 -1.98,0.66 -3,1 -0.66,-1.32 -1.32,-2.64 -2,-4 0.556875,0.226875 1.11375,0.45375 1.6875,0.6875 C -5.0787692,16.124491 -3.6092602,14.811986 -1,13 c -1.65,0 -3.3,0 -5,0 0.66,-0.66 1.32,-1.32 2,-2 C -5.32,10.34 -6.64,9.68 -8,9 -3.545,8.505 -3.545,8.505 1,8 0.67,7.34 0.34,6.68 0,6 -0.039992,4.0003999 -0.04346799,1.9995276 0,0 Z"
       fill="#642f09"
       transform="translate(105,151)"
       id="path22" /><path
       d="M 0,0 C 1.32,0 2.64,0 4,0 4.3795229,6.1988748 3.8352113,10.447711 1,16 -0.9375,15.25 -0.9375,15.25 -3,14 -4.1215238,11.383111 -4.0520793,10.172725 -3.2226563,7.421875 -2.8398047,6.5401562 -2.4569531,5.6584375 -2.0625,4.75 -1.6822266,3.8579688 -1.3019531,2.9659375 -0.91015625,2.046875 -0.60980469,1.3714062 -0.30945313,0.6959375 0,0 Z"
       fill="#d5cec2"
       transform="translate(103,112)"
       id="path23" /><path
       d="M 0,0 C 0,3 0,3 -1,6 1.475,6.495 1.475,6.495 4,7 2,8 2,8 -2,8 -1.8743164,8.8875195 -1.8743164,8.8875195 -1.7460937,9.7929688 -1.1911058,14.099395 -0.76773348,17.755526 -2,22 c -0.33,0 -0.66,0 -1,0 0.032552,-2.050781 0.065104,-4.101563 0.097656,-6.152344 C -2.7943882,13.982679 -2.7943882,13.982679 -4,13 -4.0408078,11.000416 -4.0425436,8.9995475 -4,7 -4.5517187,7.1740234 -5.1034375,7.3480469 -5.671875,7.5273437 -8.3647565,8.0740529 -10.526474,7.8850228 -13.25,7.5625 -14.142031,7.4606641 -15.034062,7.3588281 -15.953125,7.2539062 -16.628594,7.1701172 -17.304062,7.0863281 -18,7 c 0,0.66 0,1.32 0,2 -2.97,0 -5.94,0 -9,0 0,-0.33 0,-0.66 0,-1 1.98,-0.33 3.96,-0.66 6,-1 -2.475,-0.99 -2.475,-0.99 -5,-2 3,-1 3,-1 6,0 2.121647,0.1455483 4.248567,0.2208041 6.375,0.25 1.121484,0.025781 2.242969,0.051563 3.398437,0.078125 C -5.709574,4.8687702 -3.1639344,3.1639344 0,0 Z"
       fill="#4c1f17"
       transform="translate(127,90)"
       id="path24" /><path
       d="M 0,0 C 0.66,0.33 1.32,0.66 2,1 1.67,2.32 1.34,3.64 1,5 -0.95825873,5.026948 -2.9166223,5.046372 -4.875,5.0625 -5.9655469,5.074102 -7.0560937,5.085703 -8.1796875,5.097656 -11,5 -11,5 -13,4 c 0,0.99 0,1.98 0,3 -2.31,-0.66 -4.62,-1.32 -7,-2 1.333333,-0.6666667 2.666667,-1.3333333 4,-2 1.299375,-0.804375 1.299375,-0.804375 2.625,-1.625 C -8.8827237,-0.45518666 -4.7979732,-0.44873131 0,0 Z"
       fill="#cbcbcb"
       transform="translate(164,80)"
       id="path25" /><path
       d="M 0,0 C 0,0.99 0,1.98 0,3 -1.65,3.66 -3.3,4.32 -5,5 -3.02,4.67 -1.04,4.34 1,4 0.67,5.32 0.34,6.64 0,8 -3.3,8.66 -6.6,9.32 -10,10 -10.625,6.625 -10.625,6.625 -11,3 -7.888669,-0.11133103 -4.2688172,0 0,0 Z"
       fill="#f7be2b"
       transform="translate(93,110)"
       id="path26" /><path
       d="m 0,0 c 1.65,0 3.3,0 5,0 0,4.62 0,9.24 0,14 0.66,0.33 1.32,0.66 2,1 -1.98,0.99 -1.98,0.99 -4,2 0,-0.66 0,-1.32 0,-2 -1.32,-0.33 -2.64,-0.66 -4,-1 0.99,0 1.98,0 3,0 C 1.855625,13.40832 1.71125,12.816641 1.5625,12.207031 0.59177306,8.0747006 -0.27593702,4.2770238 0,0 Z"
       fill="#de8604"
       transform="translate(105,146)"
       id="path27" /><path
       d="M 0,0 C 2.3561417,2.2688771 4.5438768,4.6054206 6.625,7.125 8.8607492,9.9239552 8.8607492,9.9239552 11,12 8.525,13.485 8.525,13.485 6,15 5.5784766,14.494688 5.1569531,13.989375 4.7226562,13.46875 3.9008789,12.494219 3.9008789,12.494219 3.0625,11.5 2.5172266,10.850312 1.9719531,10.200625 1.4101562,9.53125 0.94480469,9.0259375 0.47945313,8.520625 0,8 -0.33,8 -0.66,8 -1,8 -1.125,2.25 -1.125,2.25 0,0 Z"
       fill="#d4cdc1"
       transform="translate(87,48)"
       id="path28" /><path
       d="m 0,0 c 0.375,2.25 0.375,2.25 0,5 -3.6057684,3.0321234 -5.2294621,4 -10,4 0,-0.99 0,-1.98 0,-3 -4.455,0.495 -4.455,0.495 -9,1 0,-0.66 0,-1.32 0,-2 1.194961,-0.1643555 1.194961,-0.1643555 2.414063,-0.3320313 C -11.593737,3.9209606 -4.4952701,0 0,0 Z"
       fill="#d9d2c6"
       transform="translate(114,38)"
       id="path29" /><path
       d="M 0,0 C -0.99,1.485 -0.99,1.485 -2,3 0.31,3 2.62,3 5,3 3.68,5.97 2.36,8.94 1,12 -0.80084587,9.789871 -1.9621619,8.1222461 -2.8125,5.375 -3.8446058,2.6661043 -3.8446058,2.6661043 -7.125,1.6875 -8.07375,1.460625 -9.0225,1.23375 -10,1 c 0,-0.33 0,-0.66 0,-1 7.75,-1.125 7.75,-1.125 10,0 z"
       fill="#931013"
       transform="translate(106,44)"
       id="path30" /><path
       d="M 0,0 C 0.66,0 1.32,0 2,0 3.506621,3.0132419 3.1777037,5.6828638 3,9 0.60178077,11.398219 -0.23341704,11.981748 -3.625,12.0625 -4.40875,12.041875 -5.1925,12.02125 -6,12 -5.34,11.01 -4.68,10.02 -4,9 -3.920949,6.6680061 -3.912012,4.3316738 -4,2 -3.01,1.67 -2.02,1.34 -1,1 -0.34,2.65 0.32,4.3 1,6 0.67,4.02 0.34,2.04 0,0 Z"
       fill="#7b6d3c"
       transform="translate(122,66)"
       id="path31" /><path
       d="M 0,0 C 1.98,0.66 3.96,1.32 6,2 6,4.64 6,7.28 6,10 4.35,10.33 2.7,10.66 1,11 -0.98362069,8.0829108 -0.9876191,6.876191 -0.625,3.25 -0.41875,2.1775 -0.2125,1.105 0,0 Z"
       fill="#2a261b"
       transform="translate(105,68)"
       id="path32" /><path
       d="m 0,0 c 0.66,4.62 1.32,9.24 2,14 -0.99,0.33 -1.98,0.66 -3,1 -0.66,-0.66 -1.32,-1.32 -2,-2 0,-1.32 0,-2.64 0,-4 C -3.2914204,7.5741214 -3.6250096,6.156214 -4,4.75 -4.33,3.5125 -4.66,2.275 -5,1 -2,0 -2,0 0,0 Z"
       fill="#e98e03"
       transform="translate(126,145)"
       id="path33" /><path
       d="m 0,0 c -1.452557,3.8294684 -3.4289556,5.1205029 -7,7 0.33,0.66 0.66,1.32 1,2 -3,1 -3,1 -6,0 0.0625,-2.25 0.0625,-2.25 1,-5 3.5926378,-2.959199 6.3243058,-4 11,-4 z"
       fill="#e8c011"
       transform="translate(125,49)"
       id="path34" /><path
       d="M 0,0 C 1.4582321,-0.0270043 2.9166068,-0.04639787 4.375,-0.0625 5.1871094,-0.07410156 5.9992187,-0.08570313 6.8359375,-0.09765625 9,0 9,0 11,1 10.67,2.98 10.34,4.96 10,7 6.0638026,6.4376861 3.2080755,5.3831418 0,3 0,2.01 0,1.02 0,0 Z"
       fill="#e59c05"
       transform="translate(130,158)"
       id="path35" /><path
       d="M 0,0 C 0.33,0.66 0.66,1.32 1,2 1.8198437,1.9651953 2.6396875,1.9303906 3.484375,1.8945312 4.5620313,1.8674609 5.6396875,1.8403906 6.75,1.8125 8.3510156,1.760293 8.3510156,1.760293 9.984375,1.7070312 13.300279,2.0291721 14.590167,2.7714891 17,5 15.081875,5.4640625 15.081875,5.4640625 13.125,5.9375 10.898983,6.4760524 9.0526,6.9737 7,8 5.8251296,7.2417291 4.6602741,6.4679224 3.5,5.6875 2.5254688,5.0436133 2.5254688,5.0436133 1.53125,4.3867187 1.0259375,3.9291016 0.520625,3.4714844 0,3 0,2.01 0,1.02 0,0 Z"
       fill="#c0a614"
       transform="translate(152,84)"
       id="path36" /><path
       d="M 0,0 C -0.61875,0.721875 -1.2375,1.44375 -1.875,2.1875 -3.8366635,4.7838194 -4.95316,6.9467167 -6,10 -7.9375,9.3125 -7.9375,9.3125 -10,8 -10.75,5.375 -10.75,5.375 -11,3 -7.1667438,0.29417212 -4.6746185,-0.32613618 0,0 Z"
       fill="#e38c05"
       transform="translate(147,86)"
       id="path37" /><path
       d="m 0,0 c 2.375,0.25 2.375,0.25 5,1 2.3991607,3.0846352 2.4128684,6.2016105 2,10 -3,2 -3,2 -7,2 0,-0.66 0,-1.32 0,-2 1.32,0 2.64,0 4,0 C 4,9.68 4,8.36 4,7 3.34,6.67 2.68,6.34 2,6 2.66,6 3.32,6 4,6 3.67,5.01 3.34,4.02 3,3 1.68,3 0.36,3 -1,3 -0.67,2.01 -0.34,1.02 0,0 Z"
       fill="#d3d2cf"
       transform="translate(107,67)"
       id="path38" /><path
       d="m 0,0 c 0,0.99 0,1.98 0,3 -3.0080208,3.0080208 -5.8546333,3.5289356 -10,4 0.33,3.3 0.66,6.6 1,10 -1.98,0.99 -1.98,0.99 -4,2 0.33,-0.66 0.66,-1.32 1,-2 0.07066,-2.04055 0.08422,-4.083343 0.0625,-6.125 -0.009,-1.0957031 -0.01805,-2.1914062 -0.02734,-3.3203125 C -11.976445,6.7116406 -11.988047,5.8685937 -12,5 -11.077676,4.8356445 -11.077676,4.8356445 -10.136719,4.6679687 -9.3284766,4.5094141 -8.5202344,4.3508594 -7.6875,4.1875 -6.8869922,4.0366797 -6.0864844,3.8858594 -5.2617187,3.7304688 -2.7655441,2.9242776 -1.6757789,1.97948 0,0 Z"
       fill="#572322"
       transform="translate(149,109)"
       id="path39" /><path
       d="M 0,0 C 0.66,0.33 1.32,0.66 2,1 2.33,0.01 2.66,-0.98 3,-2 3.33,-1.01 3.66,-0.02 4,1 5.4998561,2.6671035 5.4998561,2.6671035 7,4 5.2497024,3.6891713 3.4997731,3.3762682 1.75,3.0625 0.28820312,2.8014648 0.28820312,2.8014648 -1.203125,2.5351563 -3.497218,2.0962027 -5.7429197,1.5965141 -8,1 -8.66,2.65 -9.32,4.3 -10,6 -10.66,4.68 -11.32,3.36 -12,2 -7.6958181,-2.4998265 -5.9380821,-1.9086692 0,0 Z"
       fill="#3e3321"
       transform="translate(149,86)"
       id="path40" /><path
       d="M 0,0 C 2.5,1.375 2.5,1.375 5,3 5,3.66 5,4.32 5,5 3.68,4.67 2.36,4.34 1,4 1.495,4.928125 1.495,4.928125 2,5.875 3,8 3,8 3,10 3.3180294,11.669655 3.6498495,13.336785 4,15 3.01,14.67 2.02,14.34 1,14 -0.47694566,10.086094 -1.6022615,7.0056537 0,3 -0.66,2.67 -1.32,2.34 -2,2 -1.34,1.34 -0.68,0.68 0,0 Z"
       fill="#391c0c"
       transform="translate(94,120)"
       id="path41" /><path
       d="m 0,0 c 0,0.33 0,0.66 0,1 -2.31,0 -4.62,0 -7,0 0,0.66 0,1.32 0,2 -1.32,0 -2.64,0 -4,0 0,0.99 0,1.98 0,3 -2.31,-0.66 -4.62,-1.32 -7,-2 1.333333,-0.6666667 2.666667,-1.3333333 4,-2 0.9075,-0.556875 1.815,-1.11375 2.75,-1.6875 C -6.9518918,-1.4232745 -4.5078498,-0.85493702 0,0 Z"
       fill="#a3a3a1"
       transform="translate(162,81)"
       id="path42" /><path
       d="M 0,0 C 3.1229064,0.48578543 5.9958036,0.9986012 9,2 8.34,3.32 7.68,4.64 7,6 4.69,5.01 2.38,4.02 0,3 0,2.01 0,1.02 0,0 Z"
       fill="#bfbbb3"
       transform="translate(144,99)"
       id="path43" /><path
       d="M 0,0 C 1.1794922,0.10183594 2.3589844,0.20367187 3.5742188,0.30859375 4.4778516,0.39238281 5.3814844,0.47617188 6.3125,0.5625 c 0,0.33 0,0.66 0,1 -5.70690634,0.9925055 -11.2140849,1.1047751 -17,1 C -8.5571548,-1.6981904 -4.0707951,-0.36274411 0,0 Z"
       fill="#bebeba"
       transform="translate(163.6875,96.4375)"
       id="path44" /><path
       d="M 0,0 C 1.32,0 2.64,0 4,0 5.603551,3.5077678 6.2203686,6.1435488 6,10 5.67,9.34 5.34,8.68 5,8 4.34,7.67 3.68,7.34 3,7 2.67,6.01 2.34,5.02 2,4 1.34,4 0.68,4 0,4 0,5.65 0,7.3 0,9 -0.33,9 -0.66,9 -1,9 -0.67,6.03 -0.34,3.06 0,0 Z"
       fill="#bdae7f"
       transform="translate(118,64)"
       id="path45" /><path
       d="M 0,0 C 2.0625,1.625 2.0625,1.625 4,4 3.75,7.25 3.75,7.25 3,10 2.67,9.34 2.34,8.68 2,8 1.34,7.67 0.68,7.34 0,7 0.33,6.01 0.66,5.02 1,4 0.46375,4.33 -0.0725,4.66 -0.625,5 -3.5391061,6.226992 -5.8686771,6.1423329 -9,6 -6.03313,4.3517389 -3.3437348,3.5572891 0,3 0,2.01 0,1.02 0,0 Z"
       fill="#4a2c09"
       transform="translate(93,110)"
       id="path46" /><path
       d="M 0,0 C 0.99,0.33 1.98,0.66 3,1 3.33,1.99 3.66,2.98 4,4 4.99,4.66 5.98,5.32 7,6 7.33,6.66 7.66,7.32 8,8 1.125,7.125 1.125,7.125 0,6 -0.04080783,4.0004164 -0.04254356,1.9995475 0,0 Z"
       fill="#e07905"
       transform="translate(144,90)"
       id="path47" /><path
       d="M 0,0 C -1,3 -1,3 -3,4 -3.99,5.485 -3.99,5.485 -5,7 -6.98,6.01 -8.96,5.02 -11,4 -11,3.67 -11,3.34 -11,3 -9.5429327,2.4963224 -8.084299,1.9971744 -6.625,1.5 -5.8128906,1.2215625 -5.0007812,0.943125 -4.1640625,0.65625 -2,0 -2,0 0,0 Z"
       fill="#6f3409"
       transform="translate(125,78)"
       id="path48" /><path
       d="M 0,0 C 0.86625,0.2784375 0.86625,0.2784375 1.75,0.5625 4.2069252,1.0402355 5.6439753,0.75729364 8,0 8,1.32 8,2.64 8,4 8.99,3.34 9.98,2.68 11,2 10.34,3.32 9.68,4.64 9,6 7.68,5.67 6.36,5.34 5,5 5,4.34 5,3.68 5,3 4.01,3.33 3.02,3.66 2,4 1.34,2.68 0.68,1.36 0,0 Z"
       fill="#3f1207"
       transform="translate(95,166)"
       id="path49" /><path
       d="M 0,0 C 0.66,0.33 1.32,0.66 2,1 2,3.31 2,5.62 2,8 0.68,8 -0.64,8 -2,8 -2,5.69 -2,3.38 -2,1 -1.34,0.67 -0.68,0.34 0,0 Z"
       fill="#070805"
       transform="translate(120,67)"
       id="path50" /><path
       d="M 0,0 C 2.25,0.25 2.25,0.25 4,1 4,1.99 4,2.98 4,4 3.01,4 2.02,4 1,4 0.67,4.66 0.34,5.32 0,6 -1.32,5.34 -2.64,4.68 -4,4 -2.25,1.9375 -2.25,1.9375 0,0 Z"
       fill="#84751d"
       transform="translate(173,88)"
       id="path51" /><path
       d="M 0,0 C 2.97,0.99 5.94,1.98 9,3 7.68,3.33 6.36,3.66 5,4 5,4.66 5,5.32 5,6 3.35,6 1.7,6 0,6 -0.66,4.68 -1.32,3.36 -2,2 0.475,2.99 0.475,2.99 3,4 2.01,2.68 1.02,1.36 0,0 Z"
       fill="#320d07"
       transform="translate(131,162)"
       id="path52" /><path
       d="M 0,0 C 1.245464,2.4909281 0.7767578,3.4108073 0,6 -4.75,5.25 -4.75,5.25 -7,3 -4.6404691,0.64046906 -3.2210438,0.50858587 0,0 Z"
       fill="#a55f05"
       transform="translate(140,159)"
       id="path53" /><path
       d="M 0,0 C -1.875,3.875 -1.875,3.875 -3,5 -4.9995836,5.0408078 -7.0004525,5.0425436 -9,5 -9.33,4.34 -9.66,3.68 -10,3 -8.7099036,2.4959623 -7.4178621,1.9969007 -6.125,1.5 -5.0460547,1.0823437 -5.0460547,1.0823437 -3.9453125,0.65625 -2,0 -2,0 0,0 Z"
       fill="#f0c619"
       transform="translate(95,118)"
       id="path54" /><path
       d="M 0,0 C -0.33,1.32 -0.66,2.64 -1,4 -3.3125,4.6875 -3.3125,4.6875 -6,5 -7.8125,3.5625 -7.8125,3.5625 -9,2 -2.25,0 -2.25,0 0,0 Z"
       fill="#f2ce05"
       transform="translate(94,114)"
       id="path55" /><path
       d="M 0,0 C -0.1875,2.3125 -0.1875,2.3125 -1,5 -3.5625,6.8125 -3.5625,6.8125 -6,8 -5.6240379,5.2178806 -5.3268154,3.4120716 -3.5625,1.1875 -2,0 -2,0 0,0 Z"
       fill="#d7d3cc"
       transform="translate(86,105)"
       id="path56" /><path
       d="M 0,0 C 0.99,0.33 1.98,0.66 3,1 2.67,2.98 2.34,4.96 2,7 0.68,6.67 -0.64,6.34 -2,6 -1.125,1.125 -1.125,1.125 0,0 Z"
       fill="#e9060d"
       id="path57"
       transform="translate(121,96)" /><path
       d="M 0,0 C 0.99,0.33 1.98,0.66 3,1 3,1.66 3,2.32 3,3 1.7134929,3.6971073 0.42059335,4.3824288 -0.875,5.0625 -1.9539453,5.6367773 -1.9539453,5.6367773 -3.0546875,6.2226562 -3.6966406,6.4791797 -4.3385937,6.7357031 -5,7 -5.66,6.67 -6.32,6.34 -7,6 -5.9071642,4.9670456 -4.8002942,3.9489217 -3.6875,2.9375 -3.0726172,2.3690234 -2.4577344,1.8005469 -1.8242187,1.2148437 -0.92123047,0.61349609 -0.92123047,0.61349609 0,0 Z"
       fill="#f5d102"
       transform="translate(116,45)"
       id="path58" /><path
       d="M 0,0 C 0.66,0 1.32,0 2,0 2,1.65 2,3.3 2,5 2.66,5.33 3.32,5.66 4,6 2.02,6.99 2.02,6.99 0,8 0,7.34 0,6.68 0,6 -1.32,5.67 -2.64,5.34 -4,5 c 0.99,0 1.98,0 3,0 0.33,-1.65 0.66,-3.3 1,-5 z"
       fill="#f2a004"
       transform="translate(108,155)"
       id="path59" /><path
       d="M 0,0 C 0.66,0 1.32,0 2,0 2.66,2.31 3.32,4.62 4,7 2.35,7.33 0.7,7.66 -1,8 -0.67,5.36 -0.34,2.72 0,0 Z"
       fill="#eac114"
       transform="translate(87,102)"
       id="path60" /><path
       d="M 0,0 C 3.3,0 6.6,0 10,0 9.67,0.99 9.34,1.98 9,3 6.03,2.67 3.06,2.34 0,2 0,1.34 0,0.68 0,0 Z"
       fill="#dc080e"
       transform="translate(109,97)"
       id="path61" /><path
       d="M 0,0 C 1.65,1.65 3.3,3.3 5,5 4.67,5.99 4.34,6.98 4,8 2.0625,7.3125 2.0625,7.3125 0,6 -0.8125,3.4375 -0.8125,3.4375 -1,1 -0.67,0.67 -0.34,0.34 0,0 Z"
       fill="#a09587"
       transform="translate(137,88)"
       id="path62" /><path
       d="M 0,0 C -2.8125,2.0625 -2.8125,2.0625 -6,4 -6.99,3.67 -7.98,3.34 -9,3 -6.0786859,-0.19953443 -4.3745397,-1.4581799 0,0 Z"
       fill="#e79303"
       transform="translate(105,164)"
       id="path63" /><path
       d="M 0,0 C 2.97,0.99 5.94,1.98 9,3 8.67,3.99 8.34,4.98 8,6 5.36,4.68 2.72,3.36 0,2 0,1.34 0,0.68 0,0 Z"
       fill="#645a4d"
       transform="translate(166,82)"
       id="path64" /><path
       d="M 0,0 C 0,0.99 0,1.98 0,3 -2.64,3 -5.28,3 -8,3 -8,2.34 -8,1.68 -8,1 -5.2373571,0.40267181 -2.8396723,0 0,0 Z"
       fill="#f7d104"
       transform="translate(93,110)"
       id="path65" /><path
       d="M 0,0 C 2.6875,0.3125 2.6875,0.3125 5,1 3.25,2.5625 3.25,2.5625 1,4 -1.25,3.6875 -1.25,3.6875 -3,3 -1.8125,1.4375 -1.8125,1.4375 0,0 Z"
       fill="#f69801"
       transform="translate(118,77)"
       id="path66" /><path
       d="m 0,0 c -1.625,1.625 -1.625,1.625 -4,3 -3.25,-0.8125 -3.25,-0.8125 -6,-2 0,-0.33 0,-0.66 0,-1 7.75,-1.125 7.75,-1.125 10,0 z"
       fill="#787773"
       transform="translate(106,44)"
       id="path67" /><path
       d="M 0,0 C -0.33,1.32 -0.66,2.64 -1,4 -2.9375,3.625 -2.9375,3.625 -5,3 -5.33,2.34 -5.66,1.68 -6,1 -4,0 -4,0 0,0 Z"
       fill="#e4bc17"
       transform="translate(125,141)"
       id="path68" /><path
       d="M 0,0 C 1.5344509,3.0689019 0.54984289,5.7009427 0,9 -0.99,9 -1.98,9 -3,9 -2.6918164,7.6864798 -2.3783234,6.3742043 -2.0625,5.0625 -1.8884766,4.3316016 -1.7144531,3.6007031 -1.5351562,2.8476563 -1,1 -1,1 0,0 Z"
       fill="#72573c"
       transform="translate(144,88)"
       id="path69" /><path
       d="M 0,0 C 2.64,0 5.28,0 8,0 6.515,1.98 6.515,1.98 5,4 1.125,2.25 1.125,2.25 0,0 Z"
       fill="#fbd502"
       transform="translate(154,87)"
       id="path70" /><path
       d="M 0,0 C 0.33,0 0.66,0 1,0 1.33,2.97 1.66,5.94 2,9 1.34,9 0.68,9 0,9 -1.125,2.25 -1.125,2.25 0,0 Z"
       fill="#d3ccc0"
       transform="translate(76,35)"
       id="path71" /><path
       d="M 0,0 C 0.66,0.33 1.32,0.66 2,1 1.34,2.98 0.68,4.96 0,7 -0.66,6.67 -1.32,6.34 -2,6 -1.67,5.01 -1.34,4.02 -1,3 -2.32,2.67 -3.64,2.34 -5,2 -2.625,0.9375 -2.625,0.9375 0,0 Z"
       fill="#2d210b"
       transform="translate(126,138)"
       id="path72" /><path
       d="M 0,0 C 2.0204544,0.60183749 4.0211104,1.273061 6,2 6.33,2.66 6.66,3.32 7,4 5.35,4.33 3.7,4.66 2,5 1.34,3.35 0.68,1.7 0,0 Z"
       fill="#af8c2b"
       transform="translate(95,124)"
       id="path73" /><path
       d="M 0,0 C 2.31,0.33 4.62,0.66 7,1 6.67,1.66 6.34,2.32 6,3 4.02,3 2.04,3 0,3 0,2.01 0,1.02 0,0 Z"
       fill="#f3f3f3"
       transform="translate(167,94)"
       id="path74" /></g></svg>
