<?xml version="1.0" encoding="UTF-8" standalone="no"?>
<svg
   viewBox="0 0 24 24"
   width="24pt"
   height="24pt"
   version="1.1"
   id="svg1"
   sodipodi:docname="pink_master_pin.svg"
   xml:space="preserve"
   xmlns:inkscape="http://www.inkscape.org/namespaces/inkscape"
   xmlns:sodipodi="http://sodipodi.sourceforge.net/DTD/sodipodi-0.dtd"
   xmlns="http://www.w3.org/2000/svg"
   xmlns:svg="http://www.w3.org/2000/svg"><defs
     id="defs1" /><sodipodi:namedview
     id="namedview1"
     pagecolor="#ffffff"
     bordercolor="#000000"
     borderopacity="0.25"
     inkscape:showpageshadow="2"
     inkscape:pageopacity="0.0"
     inkscape:pagecheckerboard="0"
     inkscape:deskcolor="#d1d1d1"
     inkscape:document-units="pt"
     inkscape:lockguides="true"><inkscape:page
       x="0"
       y="0"
       width="24"
       height="24"
       id="page2"
       margin="0"
       bleed="0" /></sodipodi:namedview><g
     id="g1"
     transform="matrix(0.27578979,0,0,0.29477685,-14.034066,-21.38766)"><path
       d="m 93.408032,80.880462 c 7.671768,6.46442 12.029128,14.93634 16.871498,23.512608 0.26835,0.11039 1.42216,2.7345 2.61784,4.99269 3.69313,7.63541 2.57536,4.63734 6.08698,13.7429 -6.45519,-0.11476 -6.55642,0.0644 -13.92603,-0.0896 -6.204066,-14.54726 -8.452952,-18.70964 -8.611645,-18.84666 l -5.385985,-0.0896 -1.655426,3.56543 c -2.331219,6.15141 -2.316394,6.86821 -5.300182,15.10205 -7.335439,0.43541 -7.162614,0.3458 -13.479153,0.44799 3.470253,-9.31604 7.270365,-18.11738 12.365778,-26.662724 l 4.410432,-7.438405 c 3.658551,-5.914398 3.658551,-5.914398 6.005893,-8.236631 z"
       fill="#3ebfeb"
       id="path6"
       style="stroke-width:2.33476"
       sodipodi:nodetypes="cccccccccccccc" /></g></svg>
