<svg xmlns="http://www.w3.org/2000/svg" width="24" height="24"><path fill="#6f5434" fill-rule="evenodd" d="M16.3 2.04c-.03.02-.88.06-1.9.1l-5.68.17-3.84.13.06.9c.03.5.13 3.27.22 6.16s.19 5.43.22 5.65c.06.3.16.45.42.63l.35.24 2.35-.06 3.5-.12 3.84-.14c2.21-.08 2.73-.13 2.94-.26l.25-.16-.06-1.72-.22-6.36a52 52 0 0 0-.28-4.93C18.35 2 18.35 2 17.34 2a8 8 0 0 0-1.05.04m-2.64.31-5.88.2c-1.42.05-2.6.1-2.6.14-.02.03 0 1.12.04 2.41l.22 6.28c.12 3.34.16 3.96.3 4.1.18.17 1.06.18 4.82.02 1.21-.05 3.23-.12 4.5-.15 2.92-.07 3.32-.11 3.45-.35.06-.12.04-1.6-.05-4.31l-.22-6.31-.06-2.18-.61.01zm-3.19 1.3q-.04.13.06.15t-.06.13c-.16.12-.22.1-.42-.1-.18-.18-.34-.23-.77-.23h-.54l-.27.7c-.15.38-.25.74-.21.8.1.17.54.11.65-.1.06-.11.26-.22.48-.26.2-.04.45-.1.54-.16q.3-.13.09.21-.08.15.04.28c.18.18.42.16.53-.03q.09-.17.16-.05c.1.15 1.29.14 1.44-.01q.13-.15.12 0c0 .1.16.13.57.11q1.03-.04.67-.37c-.14-.14-.13-.17.15-.4.27-.2.3-.25.17-.38-.17-.16-1.21-.2-1.31-.04q-.07.09-.18.03a4 4 0 0 0-1.27.03q-.03.06.08.24c.1.16.07.22-.19.4l-.3.22.15-.36q.15-.37.04-.36-.1-.01.06-.13c.23-.17.1-.47-.19-.47q-.21.01-.29.15m3.96.12c-.25.03-.32.09-.3.21.02.1-.07.26-.2.38-.22.18-.23.23-.11.41.16.26.3.3.89.23.42-.05.46-.07.6-.47.13-.38.13-.45 0-.57-.2-.18-.46-.24-.88-.19m-2.21.62q-.34.27-.22.35c.13.09.64-.29.67-.5.03-.2-.06-.17-.45.15M10.1 5.65q-.16.18.05.09c.22-.09.24-.13-.79 1.35l-.79 1.13-.13-.38c-.07-.21-.1-.49-.08-.61Q8.42 7 8.31 7t-.11-.14c0-.21-.34-.57-.46-.48s-1.47 2.83-1.8 3.66c-.4 1.02-.3 1.34.35 1.16.32-.08.45-.19.58-.45q.16-.32.33-.32.16.02.13.14-.04.12.06.13.1 0 .11-.09c0-.05.12-.11.27-.14q.37-.09.08.09-.25.16-.02.14c.1 0 .26-.15.36-.32.11-.18.31-.44.45-.58s.42-.57.62-.95.33-.61.3-.5l-.21 1.03c-.14.72-.14.84-.02.97q.14.12.2.08.06-.05.07.05c0 .2.46.13.73-.12.22-.2.28-.22.38-.1.2.24.48.16.94-.27.43-.4.44-.4.57-.2.2.32.7.28 1.07-.1.17-.17.31-.26.31-.2s.14.11.3.11c.23 0 .44-.12.79-.45l.48-.45.24.26c.36.4.52.45.82.29.26-.13.27-.13.17.06q-.1.18-.01.19.1-.02.16-.2t.16-.2q.08-.01.09-.11-.01-.1-.14-.06-.14.08-.35-.58l-.22-.64.36-.46c.2-.26.35-.54.35-.63q0-.21-.11.03c-.24.43-.62.95-.7.95-.05 0 .06-.2.24-.44l.43-.62c.1-.16.13-.17.28-.05.13.1.19.11.31.01q.13-.12.15-.23-.02-.07-.2.08t-.2.08q.02-.1.15-.23c.2-.17.04-.37-.43-.5-.35-.1-.39-.08-.68.25-.17.2-.36.35-.43.35-.06 0-.21-.16-.32-.35-.23-.4-.3-.42-.53-.2-.2.2-.2.24 0 .9l.15.54-.58.7a9 9 0 0 1-.6.68l.14-.75c.16-.71.16-.74-.05-1.1-.18-.32-.25-.37-.66-.4a2 2 0 0 0-.76.13c-.27.14-.93.86-1.47 1.6l-.21.3.08-.45c.1-.54.13-1.96.03-1.87q-.07.04-.2-.23c-.13-.33-.34-.38-.53-.15m4.45 4.66c-2.77.2-5.52.92-7.62 1.98-.63.32-.7.38-.6.53.13.16.17.15.67-.08a22 22 0 0 1 8.95-2.1c.9-.04 1.65-.1 1.65-.15 0-.3-.86-.34-3.05-.18m-.64.65c-1.96.27-4.1.9-6.04 1.78-.83.38-.94.48-.72.66.13.1.33.05 1.14-.34a21 21 0 0 1 8.75-1.86 6 6 0 0 0 1.2-.07q.04-.06-.05-.2c-.15-.18-2.87-.16-4.28.03m.8 1.77c-.14.35-.14.57-.01.57q.1-.01.1-.11 0-.12.13-.01c.06.05.23.09.37.07l.47-.04q.21-.01.23-.16.02-.13.15-.15.13.01.15.14c0 .21 1 .18 1.18-.03q.14-.21.06.02c-.08.21.12.23.2.01.11-.3.06-.33-.45-.32q-.5 0-.56.14-.06.13-.15.14-.1-.01.01-.14c.16-.19-.03-.25-.47-.15a1.4 1.4 0 0 1-.52.02q-.2-.07-.28.18-.09.24-.16.1c-.05-.07-.03-.18.03-.24.18-.18.13-.29-.08-.17q-.2.1-.24-.03-.06-.09-.16.16m-1.45.1c-.03.12-.06.28-.06.35 0 .18.3.15.46-.05q.18-.25.08 0-.04.16.04.17.1-.01.15-.18.05-.24.06 0c.01.18.21.26.21.09 0-.05.03-.17.07-.26.05-.15 0-.17-.4-.14q-.46.04-.4-.08.04-.12-.05-.13-.09.02-.16.23m-3.06.06c0 .1-.03.26-.06.34-.04.12.1.14.84.14.83 0 .88-.02.88-.21-.01-.2-.18-.46-.3-.46q-.05.01-.06.13t-.55.12-.55-.12-.1-.13q-.09.02-.1.2m1.79.12q-.2.39.29.36c.26-.03.62-.3.62-.47 0-.18-.8-.08-.91.11"/></svg>