<svg xmlns="http://www.w3.org/2000/svg" width="24" height="24"><path fill="#fce6e6" fill-rule="evenodd" d="m3.09 3.93-.03 2.25-.01 2.22h.81q.8 0 .92-.12c.06-.08.07-.32.02-.61-.08-.54-.03-.94.13-1.04a3 3 0 0 1 .66-.14c.68-.1 1.02-.34 1.2-.87.14-.38.13-.45-.05-.89-.3-.73-.58-.83-2.26-.83-.76 0-1.38.01-1.4.03m4.1.1c-.16.1-.16.21-.06 1.14.09.75.09 1.28.01 2q-.1 1 0 1.1c.07.1.34.13.9.1l.81-.02v-4.4l-.74-.03q-.74-.02-.92.1m2.19.06c-.23.25-.24 1.44-.01 1.66l.18.16.9-.3c.93-.32 1.05-.35.9-.2-.05.05-.3.16-.57.24-1 .3-1.67.9-1.67 1.51 0 .36.32.82.73 1.06.74.42 2.55.26 2.9-.25.1-.16.09-1.54-.02-1.6-.05-.03-.25 0-.45.1-.44.18-1.3.2-1.24.02.06-.16.48-.38 1.13-.58q.5-.15.62-.4c.16-.32.17-1.32.01-1.48-.08-.08-.6-.12-1.68-.12-1.4 0-1.59.02-1.73.18m3.9 0c-.23.25-.24 1.44-.01 1.66l.18.16.9-.3c.95-.33 1-.34.91-.2-.03.04-.3.16-.61.25-1.72.5-2.18 1.83-.9 2.56.35.2.54.24 1.27.22.88 0 1.4-.17 1.66-.52.07-.09.13-.44.13-.77 0-.77-.12-.9-.63-.7-.45.2-1.3.22-1.25.04s.54-.42 1.1-.58c.27-.07.55-.22.63-.34.18-.25.2-1.37.03-1.54-.08-.08-.6-.12-1.68-.12-1.4 0-1.59.02-1.73.18m4.63.04c-.49.33-.56.55-.69 1.98-.06.69-.16 1.42-.23 1.62-.17.57-.03.68.93.68.9 0 .93-.03.87-.98-.03-.53-.01-.57.2-.6q.45-.06.22.69c-.11.32-.1.44 0 .64.13.24.18.25.97.25H21v-.26c0-.27-.17-2.23-.26-3.02q-.04-.44-.39-.8c-.33-.37-.35-.37-1.22-.4-.8-.03-.92-.01-1.23.2M4.65 4.8c-.08.26-.03 1.01.07 1.08.19.1.38-.2.38-.61 0-.57-.31-.9-.45-.47m14.22-.12c-.22.39-.12 1.43.14 1.43.14 0 .29-.36.29-.69 0-.53-.28-1-.43-.74m-7.82 5.06q-1.45.68-1.33 2.33c.04.59.1.78.36 1.16q.6.89 1.75.88c1.25 0 2.13-.77 2.32-2 .26-1.74-1.55-3.11-3.1-2.37m-5.23 0q-.1.12 0 1.12c.05.6.05 1.38 0 2q-.1 1 0 1.13c.14.17 2.83.17 3.18 0 .31-.17.7-.74.7-1.05 0-.33-.26-.8-.53-.94a1 1 0 0 0-.6-.1c-.2 0-.37-.03-.37-.09q.01-.09.24-.1c.67 0 1.23-.84.97-1.47-.22-.52-.57-.63-2.1-.63-.99 0-1.41.04-1.49.13m8.5-.01c-.14.14-.16.54-.03.62.05.04.12.3.16.57.1.74.6 1.29 1.19 1.29.23 0 .52-.07.64-.16.13-.09.26-.14.29-.1.21.2-.7.51-1.26.41-.2-.04-.48-.13-.64-.22-.38-.2-.47-.07-.47.67 0 .95.45 1.3 1.67 1.3 1.1 0 1.94-.56 2.22-1.5.11-.39.16-2.57.05-2.84-.05-.13-.22-.16-.8-.16-1.08 0-1.06-.02-1 .94l.06.81-.18-.75c-.1-.41-.2-.8-.25-.87-.1-.17-1.49-.17-1.65-.01M7.5 10.85c0 .56.03.66.12.51.14-.25.14-.94 0-1.09-.1-.08-.12.07-.12.59m4.56-.23a6 6 0 0 0-.82 1.85c-.16.58-.16.65 0 .8.14.14.17.14.36-.03.49-.44 1-1.72 1-2.52q0-.8-.54-.1m-4.57 1.74c-.03.36 0 1.05.06 1.11.1.11.35-.3.35-.6q-.01-.57-.26-.58-.13 0-.15.07"/></svg>