<svg xmlns="http://www.w3.org/2000/svg" width="24" height="24"><path fill="#b34356" fill-rule="evenodd" d="M10.8 2.1a7 7 0 0 0-4.3 2.65A6.3 6.3 0 0 0 5.06 9c0 1.72.37 2.8 1.48 4.3a6 6 0 0 0 2.46 2 7 7 0 0 0 4.78.46 7 7 0 0 0 4.6-9.35 8 8 0 0 0-2.1-2.88 7.4 7.4 0 0 0-5.47-1.41m-.34.84A6.1 6.1 0 0 0 6.5 6.12a6 6 0 0 0-.7 2.94c0 2.86 2.08 5.5 4.73 6 1.57.3 3.24.1 4.35-.52a7 7 0 0 0 2.35-2.25c.61-1.04.87-2 .87-3.3s-.25-2.2-.88-3.27a6.5 6.5 0 0 0-3.34-2.67 10 10 0 0 0-3.4-.1m.32.5q-1.45.32-2.68 1.5A4.4 4.4 0 0 0 6.65 7.3a6.2 6.2 0 0 0 .42 4.53c.32.64 1.3 1.61 2.09 2.1 1.11.67 2.66.93 3.96.66a6.2 6.2 0 0 0 3.78-2.82c.75-1.54.86-3.02.35-4.61A5 5 0 0 0 14.9 4.2a5.6 5.6 0 0 0-4.09-.75m1.03 2.5c-.3.13-.33.18-.33.54q0 .8.6.58c.28-.1.3-.14.23-.52-.1-.72-.13-.75-.5-.6m-.06.21c-.1.11-.08.62.03.7.23.13.38-.04.31-.37-.06-.32-.2-.46-.34-.33m-1.04.14c-.29.12-.3.34-.03.25.24-.08.25.01.04.5-.08.2-.13.4-.1.42.02.03.18.02.35-.02.39-.08.55-.3.17-.23-.3.06-.31.03-.11-.45.24-.58.18-.67-.32-.47m4.12.33c-.33.12-.53.23-.45.24.12.03.15.22.15.94 0 .88 0 .92.3 1.16.23.2.36.24.68.2.83-.11 1.32-.77 1.21-1.62-.15-1.17-.58-1.38-1.89-.92m-5.07-.01c-.35.12-.37.32-.03.24L10 6.8l-.16.45c-.1.24-.14.47-.1.5.09.1.67-.05.67-.17q-.01-.1-.25-.04c-.3.07-.3.08-.1-.37.16-.4.2-.67.07-.66zm-1.65.2c-.26.1-.27.15-.12.92.12.58.29.77.29.33 0-.14.1-.3.25-.4.31-.2.35-.7.06-.86-.22-.12-.2-.11-.48 0m7.1.24c-.24.2-.27.3-.25.71q.04.94.6.95c.54 0 .76-.53.57-1.4-.06-.28-.3-.5-.54-.5-.05 0-.22.1-.38.24m-7-.07c-.15.05-.17.32-.04.52.08.12.12.12.25.02.3-.25.14-.66-.21-.54m.82.1c.05.1.1.33.13.5.02.19.09.36.15.4q.1.06.04-.33l-.07-.56q-.01-.16-.16-.18-.17 0-.09.17m4.01.18c-.2.07-.51.26-.67.41-.24.23-.29.36-.29.73q.01 2.22 1.72 1.35l.5-.26-.06-.55c-.04-.3-.09-.6-.11-.64-.06-.08-.64.08-.8.22q-.07.08.12.09c.36 0 .47.62.14.8-.27.14-.66.13-.79-.03a2.6 2.6 0 0 1-.18-1.31c.06-.24.26-.34.98-.5q.29-.06.28-.26 0-.36-.84-.05m-3.09.97c-.31.1-.55.24-.51.29q.06.08.16.03t.02.17c-.13.34-.1 1.21.05 1.56q.25.6.98.5.72-.12 1.05-.78c.15-.3.16-.44.07-.97-.18-1.01-.63-1.22-1.82-.8m.57.28q-.6.22-.48 1.05c.08.62.18.75.59.75q.65 0 .65-.78c0-.77-.31-1.19-.76-1.02m-2.33.35c-.48.15-.88.48-1.02.83-.13.34.09 1.5.32 1.73.26.26.85.24 1.4-.05l.44-.24-.03-.54a2 2 0 0 0-.1-.6c-.04-.04-.25 0-.47.07q-.41.14-.17.15c.12 0 .22.06.22.13 0 .06.03.22.06.35.05.18 0 .25-.3.37-.52.22-.72.08-.83-.57-.05-.3-.07-.61-.05-.71.06-.24.46-.5.9-.56.28-.05.38-.12.4-.29.04-.26-.11-.27-.77-.07m7.62 1.23c.1.64.27.93.27.47v-.28l.27.24c.23.21.25.22.18.04a4 4 0 0 1-.15-.55l-.07-.35-.07.28q-.16.55-.3-.08c-.11-.6-.24-.39-.13.23m-.41.32c.04.55-.2.64-.34.13-.12-.45-.28-.42-.18.03.12.5.24.6.55.46.23-.1.25-.16.2-.5-.1-.56-.27-.65-.23-.12m-1.8.28a.7.7 0 0 0-.03.48c.06.24.13.29.37.29.28 0 .29-.02.29-.45 0-.41-.02-.45-.27-.48q-.27-.03-.37.16m.21.04a.4.4 0 0 0 .01.57q.14.12.25-.01.23-.21 0-.51-.13-.2-.26-.05m-.9.14c-.22.15-.28.47-.16.78.07.18.5.22.6.05q.06-.11-.17-.07c-.2.03-.24-.02-.27-.3-.03-.26.01-.34.2-.4q.18-.09.11-.15c-.05-.03-.2 0-.31.09"/></svg>