<svg xmlns="http://www.w3.org/2000/svg" width="24" height="24"><path fill="#a91218" fill-rule="evenodd" d="M10.9 2.16a8 8 0 0 0-1.47.53l-.83.4-.25-.24c-.28-.3-.36-.3-.81-.09-.43.2-.56.6-.27.83.19.16.18.17-.12.37-.28.19-.34.2-.5.07q-.2-.15-.65-.09c-.25.04-.66.08-.92.1-.84.08-1.36.5-1.03.86.2.22.2 1.15 0 1.76-.14.39-.14.48-.03.55.14.1 1.09.02 1.47-.13.21-.08.23-.06.17.14a7.3 7.3 0 0 0 .76 5.36c.47.8 1.8 2.1 2.56 2.5.34.19.73.44.86.57.21.2.35.23 1.68.3a7.3 7.3 0 0 0 3.83-.6c.45-.2.94-.34 1.32-.37.34-.03.67-.1.75-.14s.3-.07.5-.05c.52.04 1-.14 1.33-.49.23-.24.26-.34.2-.57a1 1 0 0 1-.06-.42q.1-.57-.5-.67c-.43-.07-.45-.1-.25-.4.07-.1.26-.53.41-.94.23-.62.29-.96.33-1.96.02-.71 0-1.43-.07-1.74a7.3 7.3 0 0 0-2.18-3.78c-.36-.31-.8-.72-.99-.9s-.44-.32-.57-.32c-.14 0-.4-.07-.6-.15a8 8 0 0 0-4.07-.3m-3.38.81c-.3.2-.26.58.06.62.49.07.98-.56.56-.72-.24-.1-.38-.07-.62.1m6.8-.05c-.3.1-.58.4-.45.53.12.12.4.06.67-.15.27-.22.56-.2.56.04 0 .08-.21.19-.5.26-.82.21-1.2.7-.86 1.16.17.23.86.25 1.12.04q.18-.14.68-.11c.59.03.88-.1.68-.3-.07-.07-.12-.37-.12-.68 0-.74-.17-.9-.9-.9-.3.01-.7.06-.87.11m-2.18.33c-.82.14-.95.2-.95.47q0 .36.47-.01c.14-.11.34-.2.45-.2.16 0 .11.1-.3.63q-.82 1.03-.67 1.15c.03.03.5 0 1.03-.06 1-.13 1.22-.24 1.22-.64q.02-.35-.34.01c-.26.25-.87.42-.7.2a8 8 0 0 0 1.04-1.55c0-.16-.26-.16-1.25 0m-2.23.31c-1.06.17-1.12.2-1.12.5 0 .31.05.31.42 0 .26-.22.58-.33.58-.2 0 .03-.25.37-.55.76-.53.69-.64.92-.47 1.03a8 8 0 0 0 1.9-.24q.21-.1.22-.35c0-.3-.07-.31-.34-.06-.2.17-.76.37-.76.26 0-.02.25-.37.55-.76.48-.63.7-1.11.48-1.08zm-2.4.42q-.62.21-.32.38c.14.08.13 1.11-.01 1.37-.11.2-.1.21.52.15.34-.04.63-.08.64-.1.01 0 0-.46-.03-1-.05-1.09-.04-1.07-.8-.8m7.24-.01c-.2.19-.21.54-.03.54.2 0 .37-.22.37-.47q0-.41-.34-.07m-9.3.3q-.2.14-.32.03c-.1-.08-.23-.08-.48 0-.4.14-.68.42-.49.48.16.06.18 1.99.03 2.08a.2.2 0 0 0-.1.17q0 .1.63.04c.68-.08.88-.19.69-.38s-.16-1.92.03-2.08c.22-.18.42-.06.5.3.08.38-.09.84-.35.96-.33.15-.08.38.31.3q.6-.12.93-.74c.2-.4.2-.6-.04-1-.18-.29-.24-.32-.67-.32-.27 0-.57.07-.67.15m.04.95c0 .46.02.5.16.4.18-.16.16-.81-.04-.88-.08-.02-.12.11-.12.48m7.97-.2c-.05.2-.5.33-1.87.5l-1.68.22-.92.12-.4.58c-.59.9-.75 1.47-.74 2.64 0 .79.05 1.12.23 1.57.48 1.23 1.57 2.33 2.3 2.33.3 0 .37.04.4.22.07.58 2.68.54 3.8-.07.18-.09.19-.14.09-.3-.16-.26-.05-.36.57-.51.28-.07.62-.24.76-.37a5 5 0 0 0 1.09-2.89c0-1.38-.79-2.98-1.82-3.7a1.2 1.2 0 0 0-.9-.24q-.5.04-.68-.14c-.16-.15-.18-.14-.23.04M9.63 6.06c-1.36.67-1.7 1.91-.77 2.74.2.16.3.3.24.3-.16 0-.11.36.09.61.14.17.32.25.72.29l.54.05.05.59c.05.51.1.62.38.86.26.21.35.38.4.76q.08.51.23.45c.44-.1 1.29-.12 1.62-.03.42.12.41.13.52-.5q.06-.39.4-.7c.3-.27.34-.37.37-.87l.03-.56.54-.05c.4-.04.58-.12.72-.29.23-.28.26-.66.04-.57-.08.03.05-.14.3-.37.48-.46.6-.8.5-1.32-.1-.6-.95-1.37-1.75-1.6l-.25-.07.26.28c.44.49.59.77.59 1.11 0 .26-.06.36-.31.49-.39.2-1.13.22-1.98.05-.51-.1-.78-.1-1.3 0-.88.17-1.61.15-2-.05q-.7-.36.1-1.35c.21-.28.36-.51.31-.51s-.31.12-.6.26m1.28 4.02c0 .2.32.42.63.42s.31 0 .12-.2c-.23-.22-.75-.37-.75-.22m2.53.12c-.18.1-.33.22-.33.25 0 .12.6.04.74-.1.36-.37.1-.46-.41-.15m5.74 1.48c-.34.37-.15.82.33.82.5 0 .7-.55.28-.84-.29-.2-.41-.2-.61.02m.02.18c-.16.2-.01.48.28.52.27.04.5-.25.37-.46q-.11-.15-.22-.18t-.02.03c.05.02.1.16.1.3 0 .21-.02.24-.15.13q-.17-.15-.15.01 0 .14-.11-.04t.01-.33q.11-.12.07-.14-.05.01-.18.16m-2.66.4c-.39.14-.58.34-.33.34.15 0 .13 1.93-.02 2.08-.1.1-.01.12.38.12.5 0 .91-.17.67-.27-.1-.03-.13-.38-.13-1.24a5 5 0 0 0-.07-1.18c-.05 0-.27.07-.5.16m-1.31.2c-.32.11-.4.18-.33.26.16.16.14 2-.02 2.16-.1.1-.02.12.45.09.57-.05.85-.16.6-.25-.09-.03-.12-.38-.12-1.24a5 5 0 0 0-.07-1.18c-.05 0-.28.07-.51.16m-3.4.3q-.24.03-.2.26c.03.2.1.22.8.25.68.02.78 0 .87-.17q.12-.2 0-.26a5 5 0 0 0-1.47-.08m6.18.25c-.7.36-.66.98.06.98q.33 0 .34.14c0 .22-.3.28-.57.1-.28-.18-.5-.06-.4.2.08.2.84.22 1.3.03q.65-.27.53-.72c-.05-.2-.15-.26-.46-.31-.22-.04-.43-.1-.46-.15-.09-.15.27-.23.47-.1q.42.25.37-.11c-.04-.33-.6-.35-1.18-.06m-8.14.24q-.3.16-.17.27c.06.06.11.47.11.95 0 1.1.07 1.22.7 1.22.95 0 1.5-.4 1.5-1.1 0-.63-.52-.86-1.22-.55-.16.06-.18 0-.18-.44 0-.46-.02-.51-.22-.5-.13 0-.36.07-.52.15m3.89.35c-.17.08-.2.2-.2.72 0 .48-.03.62-.15.62s-.16-.16-.2-.65c-.05-.62-.06-.65-.3-.62-.47.07-.74.22-.62.34.07.07.12.35.12.64 0 .68.16.82.73.66.23-.07.63-.13.9-.15.46-.03.73-.16.5-.24q-.13-.05-.13-.74c0-.65-.01-.69-.22-.68-.13 0-.32.05-.43.1m-3.05.78c-.2.37-.1 1.01.16 1.01.3 0 .47-.83.22-1.08-.17-.17-.26-.15-.38.07"/></svg>