<svg xmlns="http://www.w3.org/2000/svg" width="24" height="24"><path fill="#f71313" fill-rule="evenodd" d="m14.06 4-.26.21V9.3l.26.2c.34.27.84.27 1.18 0l.26-.2V4.2l-.26-.2c-.15-.12-.41-.21-.59-.21s-.44.1-.59.2M9.72 5.38c-1.1.38-1.67 1.7-1.3 2.94.16.54.7 1.13 1.2 1.34.5.2 1.45.22 2.07.05 1.14-.3 1.76-1.63 1.4-2.95-.15-.53-.9-1.3-1.44-1.44a4 4 0 0 0-1.93.06m7.96-.07c-1.22.36-1.84 1.66-1.45 3 .28.97 1.06 1.5 2.2 1.51 1.16.01 1.75-.27 2.24-1.04.3-.48.4-1.33.23-1.97a2.6 2.6 0 0 0-1.45-1.49 4 4 0 0 0-1.77-.01m-13.45.22a2 2 0 0 0-1.12 1.25c-.06.21-.1 1.33-.1 2.51L3 11.42l.3.29c.32.32.57.36 1 .14.36-.18.4-.31.4-1.2V9.9h.65c.77 0 1.27-.18 1.73-.63 1.26-1.2.97-3.06-.58-3.76a3.2 3.2 0 0 0-2.27 0m.73 1.4c-.2.3-.21 1.12 0 1.33.61.62 1.34-.14 1.02-1.09-.12-.36-.17-.4-.5-.43-.28-.02-.4.02-.52.2m5.34-.07c-.07.09-.15.38-.18.65-.04.42-.01.52.21.74.15.14.33.26.42.26s.27-.12.42-.26c.22-.22.25-.32.2-.74-.05-.61-.2-.8-.62-.8-.18 0-.38.07-.45.15m7.8 0c-.07.09-.15.38-.18.65-.04.42-.01.52.21.74.31.3.47.32.78.07.2-.15.23-.28.23-.74 0-.31-.05-.62-.13-.7-.17-.21-.75-.22-.91-.02M5.97 10.57c-.04.03-.07.28-.07.54v.48h.4q.4 0 .43-.18.05-.21.06.02.02.16.22.17c.18 0 .2-.05.17-.52-.02-.43-.07-.54-.22-.56a.4.4 0 0 0-.32.12c-.1.15-.12.15-.17.01-.06-.15-.38-.2-.5-.08m2.9.45c-.18.6-.15.68.16.49q.21-.14.25-.02c.02.06.13.11.24.11.17 0 .2-.05.15-.27-.2-1-.57-1.13-.8-.3m2.43.02c0 .48.03.55.2.55q.17-.02.23-.17.05-.26.06 0 .01.16.24.17c.2 0 .22-.05.22-.43 0-.56-.09-.67-.56-.67h-.39zm2.6 0c0 .48.02.55.2.55q.19-.01.2-.17-.02-.26.1 0c.06.1.2.17.3.17.24 0 .24 0 .04-.39-.13-.25-.13-.35-.03-.47.16-.2.02-.31-.21-.16q-.19.1-.2.02t-.2-.1c-.18 0-.2.07-.2.55m2.57-.48c-.04.03-.07.28-.07.55v.48h.45c.33 0 .45-.04.45-.15q-.02-.14-.23-.16-.24 0-.04-.06.16-.04.17-.18c0-.07-.08-.16-.17-.18q-.2-.05.04-.06.21-.01.23-.16t-.38-.15c-.21 0-.42.03-.45.07m2.33.08q0 .13.1.15c.06 0 .1.18.1.4 0 .33.03.4.2.4s.2-.07.2-.4c0-.22.05-.4.1-.4q.1-.02.1-.15.02-.15-.4-.15t-.4.15m-7.15 1.22c-2.83.07-6.32.62-7.72 1.2-.3.12-.33.17-.33.56v.43l.82-.27c.96-.32 1.92-.52 3.44-.74 3.44-.49 9.4-.37 12.04.24.69.16.7.16.7-.32v-.44l-.73-.12-1.22-.21a49 49 0 0 0-7-.33"/></svg>