<?xml version="1.0" encoding="UTF-8" standalone="no"?>
<svg
   viewBox="0 0 24 24"
   width="24pt"
   height="24pt"
   version="1.1"
   id="svg1"
   sodipodi:docname="poundstretcher.svg"
   xml:space="preserve"
   inkscape:version="1.3 (0e150ed6c4, 2023-07-21)"
   xmlns:inkscape="http://www.inkscape.org/namespaces/inkscape"
   xmlns:sodipodi="http://sodipodi.sourceforge.net/DTD/sodipodi-0.dtd"
   xmlns="http://www.w3.org/2000/svg"
   xmlns:svg="http://www.w3.org/2000/svg"><defs
     id="defs1" /><sodipodi:namedview
     id="namedview1"
     pagecolor="#ffffff"
     bordercolor="#000000"
     borderopacity="0.25"
     inkscape:showpageshadow="2"
     inkscape:pageopacity="0.0"
     inkscape:pagecheckerboard="0"
     inkscape:deskcolor="#d1d1d1"
     inkscape:document-units="pt"
     showgrid="false"
     inkscape:zoom="23.09375"
     inkscape:cx="9.1366712"
     inkscape:cy="19.377537"
     inkscape:window-width="1920"
     inkscape:window-height="974"
     inkscape:window-x="-11"
     inkscape:window-y="1609"
     inkscape:window-maximized="1"
     inkscape:current-layer="svg1" /><g
     style="clip-rule:evenodd;fill-rule:evenodd;stroke-linejoin:round;stroke-miterlimit:2"
     id="g1"
     transform="matrix(0.03251471,0,0,0.03251471,2.8098268,3.9704262)"><g
       fill-rule="nonzero"
       id="g32"
       transform="matrix(1.0700105,0,0,1.0700105,-15.495053,-14.583365)"><path
         d="m 101.901,187.418 -0.675,2.82 0.096,0.104 c 2.685,-2.325 4.615,-3.573 8.555,-3.573 7.183,0 9.347,5.794 9.037,11.645 -0.444,8.719 -5.87,17.754 -14.077,17.754 -5.543,0 -7.513,-2.865 -8.556,-4.438 l -3.784,14.461 H 81.899 L 92.09,187.417 h 9.811 z m 0.484,21.502 c 3.205,0 5.889,-4.712 6.178,-10.236 0.194,-3.792 -1.718,-4.874 -3.36,-4.874 -5.079,0 -6.508,8.119 -6.604,10.175 -0.232,4.442 2.935,4.935 3.786,4.935"
         id="path2" /><path
         d="m 140.872,186.769 c 5.87,0 8.613,1.462 10.834,4.056 2.703,3.148 2.838,6.72 2.742,8.67 -0.232,4.49 -3.572,16.628 -18.327,16.628 -5.697,0 -8.189,-1.575 -9.772,-2.926 -3.572,-3.089 -3.88,-7.426 -3.766,-9.752 0.367,-6.768 5.292,-16.676 18.289,-16.676 m -3.688,22.092 c 4.691,0 6.757,-6.228 6.951,-9.906 0.213,-4.114 -2.396,-4.931 -4.017,-4.931 -6.275,0 -7.145,8.88 -7.184,9.421 -0.153,3.089 1.701,5.416 4.25,5.416"
         id="path3" /><path
         d="m 175.092,215.467 1.173,-4.279 -0.096,-0.106 c -2.024,2.115 -5.056,5.041 -10.906,5.041 -7.571,0 -7.243,-6.286 -7.224,-6.721 0.038,-0.916 0.484,-3.196 0.947,-5.031 l 4.499,-16.954 h 10.601 l -4.171,15.756 c -0.463,1.788 -0.482,2.009 -0.501,2.714 -0.096,1.681 0.831,2.269 1.911,2.269 4.191,0 6.33,-5.146 7.18,-8.496 l 3.245,-12.243 h 10.659 l -7.357,28.05 z"
         id="path4" /><path
         d="m 208.766,187.418 -1.119,4.229 0.096,0.105 c 2.027,-2.055 5.059,-4.983 10.911,-4.983 7.512,0 7.204,6.23 7.164,6.712 -0.039,0.927 -0.463,3.149 -0.946,4.981 l -4.441,17.005 h -10.602 l 4.112,-15.76 c 0.463,-1.783 0.522,-1.995 0.561,-2.761 0.097,-1.622 -0.83,-2.326 -1.951,-2.326 -4.152,0 -6.295,5.252 -7.164,8.612 l -3.245,12.235 h -10.64 l 7.357,-28.049 z"
         id="path5" /><path
         d="m 245.15,215.467 0.675,-2.81 -0.097,-0.107 c -2.683,2.328 -4.615,3.573 -8.555,3.573 -7.184,0 -9.346,-5.794 -9.038,-11.646 0.445,-8.716 5.872,-17.766 14.079,-17.766 5.542,0 7.512,2.87 8.555,4.442 l 3.784,-14.453 h 10.603 l -10.216,38.767 z m -0.483,-21.494 c -3.207,0 -5.909,4.711 -6.18,10.235 -0.193,3.785 1.718,4.875 3.36,4.875 5.059,0 6.488,-8.128 6.604,-10.187 0.232,-4.44 -2.935,-4.923 -3.784,-4.923"
         id="path6" /><path
         d="m 283.44,195.22 c -0.175,-0.927 -0.464,-2.549 -3.612,-2.549 -3.148,0 -3.959,1.571 -4.016,2.384 -0.096,2.057 2.394,2.386 5.618,2.869 5.698,0.866 9.773,2.325 9.502,7.742 -0.077,1.787 -0.637,4.277 -3.378,6.614 -2.667,2.268 -5.852,3.843 -13.152,3.843 -9.421,0 -12.414,-2.82 -12.819,-8.401 l 10.482,-0.917 c 0.175,0.917 0.58,3.409 4.248,3.409 1.488,0 4.462,-0.589 4.577,-2.975 0.097,-1.844 -1.333,-2.113 -4.441,-2.596 -4.075,-0.658 -10.463,-1.788 -10.154,-7.966 0.194,-3.407 3.337,-9.907 15.271,-9.907 9.444,0 11.22,3.468 11.838,7.37 z"
         id="path7" /><path
         d="m 313.661,187.418 h 5.485 l -1.99,7.694 h -5.541 l -2.53,9.908 c -0.116,0.327 -0.271,1.022 -0.29,1.351 -0.077,1.679 1.178,1.893 2.356,1.893 0.966,0 1.565,-0.155 3.341,-0.483 l -2.008,7.686 c -2.896,0.385 -4.944,0.656 -7.067,0.656 -3.554,0 -5.33,-1.034 -6.375,-2.386 -0.848,-1.139 -1.504,-2.702 -1.427,-4.499 0.057,-0.974 0.192,-1.4 0.656,-3.196 l 2.8,-10.93 h -3.784 l 1.95,-7.694 h 3.881 l 1.14,-4.383 12.127,-6.018 z"
         id="path8" /><path
         d="m 325.017,187.418 h 9.906 l -1.506,5.524 0.097,0.104 c 2.413,-3.244 4.693,-6.277 8.787,-6.277 1.603,0 2.858,0.541 3.592,0.869 l -4.326,8.285 c -0.522,-0.116 -1.159,-0.271 -2.164,-0.271 -5.908,0 -7.569,6.276 -8.708,10.613 l -2.376,9.202 h -10.621 z"
         id="path9" /><path
         d="m 352.342,204.208 c 0.02,1.409 0.232,5.629 4.655,5.629 2.931,0 4.109,-1.457 5.036,-2.549 l 10.177,0.976 c -2.395,3.851 -6.161,7.859 -15.812,7.859 -7.242,0 -10.12,-2.056 -11.915,-4.336 -1.565,-1.95 -2.684,-4.77 -2.491,-8.555 0.27,-5.416 3.128,-10.233 7.609,-13.373 3.592,-2.49 6.778,-3.089 10.926,-3.089 5.968,0 8.458,1.41 10.042,2.656 3.822,3.033 3.862,7.628 3.785,9.143 -0.096,1.843 -0.772,4.663 -0.986,5.639 z m 11.505,-5.206 c 0.04,-0.106 0.195,-1.078 0.232,-1.618 0.155,-3.032 -1.854,-4.338 -4.152,-4.338 -2.062,0 -4.861,1.41 -6.369,5.956 z"
         id="path10" /><path
         d="m 393.839,187.418 h 5.485 l -1.99,7.694 h -5.543 l -2.53,9.908 c -0.115,0.327 -0.269,1.022 -0.289,1.351 -0.076,1.679 1.178,1.893 2.355,1.893 0.966,0 1.565,-0.155 3.323,-0.483 l -1.989,7.686 c -2.897,0.385 -4.943,0.656 -7.068,0.656 -3.572,0 -5.33,-1.034 -6.373,-2.386 -0.85,-1.139 -1.506,-2.702 -1.429,-4.499 0.059,-0.974 0.194,-1.4 0.657,-3.196 l 2.799,-10.93 h -3.784 l 1.95,-7.694 h 3.882 l 1.139,-4.383 12.127,-6.018 z"
         id="path11" /><path
         d="m 422.613,197.712 c -0.155,-1.035 -0.599,-3.688 -4.654,-3.688 -6.565,0 -8.42,7.315 -8.574,10.125 -0.155,3.304 2.472,4.712 4.44,4.712 4.173,0 5.716,-3.196 6.547,-4.759 l 9.849,1.08 c -2.201,5.572 -6.585,10.941 -17.187,10.941 -3.263,0 -14.599,0 -13.981,-12.138 0.368,-7.085 5.426,-17.216 19.273,-17.216 6.353,0 13.265,2.117 13.904,10.401 z"
         id="path12" /><path
         d="m 452.619,176.701 -3.704,14.019 0.096,0.104 c 1.58,-1.514 4.476,-4.055 10.018,-4.055 7.455,0 7.127,6.277 7.107,6.712 -0.037,0.927 -0.483,3.148 -0.946,4.981 l -4.441,17.005 h -10.602 l 4.114,-15.76 c 0.463,-1.783 0.54,-1.996 0.559,-2.761 0.097,-1.622 -0.83,-2.326 -1.949,-2.326 -4.148,0 -6.293,5.252 -7.161,8.612 l -3.225,12.235 H 431.824 L 442.022,176.7 h 10.597 z"
         id="path13" /><path
         d="m 478.864,204.208 c 0.018,1.409 0.232,5.629 4.652,5.629 2.936,0 4.114,-1.457 5.041,-2.549 l 10.177,0.976 c -2.375,3.851 -6.161,7.859 -15.817,7.859 -7.241,0 -10.117,-2.056 -11.915,-4.336 -1.545,-1.95 -2.684,-4.77 -2.49,-8.555 0.269,-5.416 3.129,-10.233 7.608,-13.373 3.592,-2.49 6.779,-3.089 10.931,-3.089 5.968,0 8.458,1.41 10.041,2.656 3.843,3.033 3.863,7.628 3.787,9.143 -0.099,1.843 -0.774,4.663 -0.986,5.639 z m 11.508,-5.206 c 0.039,-0.106 0.212,-1.078 0.231,-1.618 0.155,-3.032 -1.853,-4.338 -4.131,-4.338 -2.087,0 -4.867,1.41 -6.393,5.956 z"
         id="path14" /><path
         d="m 509.124,187.418 h 9.906 l -1.506,5.524 0.116,0.104 c 2.394,-3.244 4.674,-6.277 8.786,-6.277 1.604,0 2.84,0.541 3.574,0.869 l -4.307,8.285 c -0.541,-0.116 -1.158,-0.271 -2.181,-0.271 -5.91,0 -7.571,6.276 -8.691,10.613 l -2.395,9.202 h -10.602 z"
         id="path15" /><path
         d="m 34.296,205.318 2.163,-8.99 h 4.616 c -0.347,-2.518 -0.561,-5.337 -0.561,-6.399 0,-3.052 0.85,-9.829 6.567,-14.251 4.324,-3.361 11.239,-3.361 12.918,-3.361 10.97,0 17.613,3.889 18.366,15.089 l -12.842,0.92 c -0.348,-2.367 -1.043,-6.25 -5.234,-6.25 -3.495,0 -5.793,3.044 -5.793,6.559 0,0.375 0.057,1.515 0.271,3.193 0.348,3.052 0.56,3.276 0.695,4.5 h 9.018 l -2.028,8.99 h -6.99 c -0.561,2.742 -1.256,6.248 -6.064,10.438 l 0.135,0.155 c 2.221,-0.841 3.07,-0.907 4.248,-0.907 0.85,0 4.615,0.751 5.31,0.828 1.121,0.232 2.589,0.387 3.708,0.387 3.072,0 5.177,-0.917 6.644,-1.603 l 2.51,11.664 c -2.722,1.217 -5.87,2.433 -9.849,2.433 -2.934,0 -4.479,-0.379 -8.593,-1.75 -2.722,-0.915 -5.31,-1.679 -8.323,-1.679 -2.645,0 -4.943,0.378 -10.544,3.507 l -3.013,-10.97 c 4.268,-2.596 9.501,-5.869 10.273,-12.503 z"
         id="path16" /><g
         fill="#ffffff"
         id="g31"><path
           d="m 100.916,186.094 -0.676,2.818 0.096,0.11 c 2.685,-2.329 4.616,-3.573 8.555,-3.573 7.185,0 9.348,5.794 9.039,11.644 -0.445,8.718 -5.872,17.756 -14.079,17.756 -5.542,0 -7.531,-2.868 -8.554,-4.443 L 91.511,224.87 H 80.913 l 10.193,-38.776 z m 0.503,21.502 c 3.187,0 5.87,-4.711 6.16,-10.232 0.193,-3.797 -1.718,-4.878 -3.38,-4.878 -5.059,0 -6.488,8.12 -6.584,10.177 -0.232,4.442 2.934,4.933 3.804,4.933"
           id="path17" /><path
           d="m 139.886,185.449 c 5.872,0 8.613,1.456 10.835,4.054 2.703,3.148 2.839,6.722 2.741,8.672 -0.232,4.488 -3.572,16.624 -18.326,16.624 -5.715,0 -8.188,-1.573 -9.772,-2.925 -3.553,-3.09 -3.862,-7.426 -3.745,-9.751 0.347,-6.768 5.271,-16.674 18.267,-16.674 m -3.688,22.09 c 4.694,0 6.779,-6.227 6.952,-9.906 0.212,-4.124 -2.414,-4.935 -3.996,-4.935 -6.297,0 -7.184,8.883 -7.204,9.425 -0.155,3.089 1.679,5.416 4.248,5.416"
           id="path18" /><path
           d="m 174.106,214.143 1.178,-4.277 -0.097,-0.106 c -2.028,2.114 -5.059,5.039 -10.911,5.039 -7.57,0 -7.24,-6.286 -7.222,-6.72 0.058,-0.917 0.483,-3.195 0.946,-5.03 l 4.499,-16.955 h 10.603 l -4.171,15.758 c -0.463,1.785 -0.463,2.009 -0.502,2.714 -0.097,1.678 0.85,2.268 1.893,2.268 4.21,0 6.349,-5.147 7.217,-8.497 l 3.245,-12.243 h 10.642 l -7.359,28.049 z"
           id="path19" /><path
           d="m 207.782,186.094 -1.121,4.228 0.096,0.108 c 2.028,-2.058 5.061,-4.981 10.911,-4.981 7.514,0 7.204,6.226 7.184,6.707 -0.057,0.927 -0.501,3.149 -0.964,4.984 l -4.443,17.003 h -10.602 l 4.114,-15.756 c 0.463,-1.789 0.54,-2.001 0.579,-2.761 0.077,-1.622 -0.85,-2.329 -1.969,-2.329 -4.152,0 -6.296,5.252 -7.145,8.612 l -3.244,12.234 h -10.662 l 7.359,-28.049 z"
           id="path20" /><path
           d="m 244.164,214.143 0.676,-2.81 -0.097,-0.106 c -2.684,2.327 -4.595,3.572 -8.554,3.572 -7.184,0 -9.348,-5.793 -9.038,-11.643 0.444,-8.72 5.87,-17.766 14.077,-17.766 5.544,0 7.531,2.866 8.556,4.443 l 3.785,-14.458 h 10.602 l -10.197,38.768 z m -0.483,-21.492 c -3.205,0 -5.889,4.713 -6.18,10.234 -0.193,3.784 1.72,4.866 3.379,4.866 5.061,0 6.489,-8.12 6.587,-10.175 0.232,-4.442 -2.936,-4.925 -3.786,-4.925"
           id="path21" /><path
           d="m 282.436,193.895 c -0.155,-0.928 -0.444,-2.549 -3.592,-2.549 -3.128,0 -3.959,1.576 -4.018,2.387 -0.096,2.055 2.396,2.383 5.621,2.865 5.697,0.87 9.79,2.328 9.501,7.744 -0.096,1.787 -0.638,4.277 -3.38,6.604 -2.665,2.281 -5.832,3.853 -13.132,3.853 -9.439,0 -12.432,-2.817 -12.838,-8.399 l 10.483,-0.917 c 0.173,0.917 0.578,3.407 4.248,3.407 1.506,0 4.46,-0.589 4.578,-2.973 0.096,-1.844 -1.334,-2.115 -4.442,-2.598 -4.075,-0.656 -10.465,-1.786 -10.134,-7.964 0.172,-3.41 3.315,-9.906 15.251,-9.906 9.443,0 11.24,3.463 11.838,7.365 z"
           id="path22" /><path
           d="m 312.677,186.094 h 5.485 l -1.99,7.698 h -5.541 l -2.532,9.904 c -0.133,0.318 -0.269,1.023 -0.288,1.351 -0.077,1.681 1.198,1.903 2.356,1.903 0.964,0 1.544,-0.165 3.321,-0.493 l -1.989,7.686 c -2.897,0.387 -4.924,0.656 -7.068,0.656 -3.572,0 -5.31,-1.033 -6.373,-2.384 -0.85,-1.139 -1.505,-2.714 -1.409,-4.499 0.039,-0.966 0.174,-1.4 0.638,-3.197 l 2.8,-10.927 h -3.785 l 1.949,-7.698 h 3.882 l 1.12,-4.385 12.148,-6.012 z"
           id="path23" /><path
           d="m 324.032,186.094 h 9.907 l -1.506,5.522 0.096,0.108 c 2.414,-3.244 4.692,-6.275 8.806,-6.275 1.583,0 2.838,0.541 3.572,0.869 l -4.326,8.285 c -0.52,-0.116 -1.158,-0.271 -2.162,-0.271 -5.929,0 -7.571,6.275 -8.71,10.61 l -2.394,9.202 h -10.583 z"
           id="path24" /><path
           d="m 351.339,202.885 c 0.038,1.409 0.251,5.628 4.672,5.628 2.933,0 4.129,-1.457 5.038,-2.548 l 10.177,0.985 c -2.396,3.843 -6.161,7.849 -15.794,7.849 -7.261,0 -10.138,-2.056 -11.934,-4.334 -1.546,-1.952 -2.685,-4.77 -2.491,-8.556 0.289,-5.415 3.148,-10.234 7.628,-13.382 3.592,-2.48 6.759,-3.077 10.906,-3.077 5.968,0 8.46,1.408 10.043,2.652 3.843,3.032 3.862,7.629 3.784,9.146 -0.097,1.843 -0.772,4.661 -0.984,5.637 z m 11.505,-5.204 c 0.077,-0.105 0.231,-1.082 0.251,-1.622 0.155,-3.033 -1.854,-4.335 -4.151,-4.335 -2.064,0 -4.863,1.41 -6.37,5.957 z"
           id="path25" /><path
           d="m 392.854,186.094 h 5.484 l -1.989,7.698 h -5.542 l -2.53,9.904 c -0.135,0.318 -0.271,1.023 -0.29,1.351 -0.077,1.681 1.197,1.903 2.356,1.903 0.966,0 1.546,-0.165 3.321,-0.493 l -1.987,7.686 c -2.898,0.387 -4.925,0.656 -7.07,0.656 -3.572,0 -5.33,-1.033 -6.372,-2.384 -0.849,-1.139 -1.507,-2.714 -1.409,-4.499 0.038,-0.966 0.173,-1.4 0.637,-3.197 l 2.8,-10.927 h -3.786 l 1.932,-7.698 h 3.901 l 1.121,-4.385 12.146,-6.012 z"
           id="path26" /><path
           d="m 421.627,196.386 c -0.153,-1.031 -0.599,-3.688 -4.654,-3.688 -6.546,0 -8.419,7.319 -8.574,10.128 -0.173,3.303 2.492,4.713 4.461,4.713 4.152,0 5.697,-3.197 6.527,-4.761 l 9.85,1.083 c -2.202,5.571 -6.587,10.938 -17.188,10.938 -3.244,0 -14.599,0 -13.982,-12.136 0.387,-7.087 5.428,-17.214 19.272,-17.214 6.355,0 13.268,2.112 13.904,10.398 z"
           id="path27" /><path
           d="m 451.633,175.375 -3.704,14.02 0.117,0.108 c 1.563,-1.518 4.457,-4.054 9.999,-4.054 7.454,0 7.144,6.275 7.107,6.707 -0.039,0.927 -0.463,3.148 -0.946,4.984 l -4.443,17.003 h -10.598 l 4.11,-15.756 c 0.463,-1.789 0.522,-2.001 0.56,-2.762 0.096,-1.621 -0.831,-2.328 -1.95,-2.328 -4.149,0 -6.291,5.252 -7.161,8.611 l -3.225,12.235 H 430.84 l 10.196,-38.768 z"
           id="path28" /><path
           d="m 477.858,202.885 c 0.039,1.409 0.251,5.628 4.674,5.628 2.934,0 4.132,-1.457 5.04,-2.548 l 10.178,0.985 c -2.396,3.843 -6.161,7.849 -15.798,7.849 -7.261,0 -10.119,-2.056 -11.933,-4.334 -1.546,-1.952 -2.685,-4.77 -2.492,-8.556 0.29,-5.415 3.148,-10.234 7.629,-13.382 3.59,-2.48 6.758,-3.077 10.909,-3.077 5.968,0 8.459,1.408 10.043,2.652 3.843,3.032 3.881,7.629 3.785,9.146 -0.097,1.843 -0.773,4.661 -0.985,5.637 z m 11.53,-5.204 c 0.057,-0.105 0.212,-1.082 0.231,-1.622 0.173,-3.033 -1.853,-4.335 -4.153,-4.335 -2.066,0 -4.867,1.41 -6.37,5.957 z"
           id="path29" /><path
           d="m 508.139,186.094 h 9.927 l -1.526,5.522 0.096,0.108 c 2.414,-3.244 4.712,-6.275 8.806,-6.275 1.603,0 2.858,0.541 3.572,0.869 l -4.307,8.285 c -0.54,-0.116 -1.158,-0.271 -2.181,-0.271 -5.91,0 -7.551,6.275 -8.691,10.61 l -2.394,9.202 h -10.602 z"
           id="path30" /><path
           d="m 33.311,203.994 2.163,-8.986 h 4.616 c -0.348,-2.522 -0.56,-5.342 -0.56,-6.405 0,-3.051 0.85,-9.829 6.565,-14.251 4.346,-3.36 11.258,-3.36 12.92,-3.36 10.968,0 17.612,3.894 18.383,15.094 l -12.861,0.915 c -0.347,-2.364 -1.043,-6.245 -5.233,-6.245 -3.494,0 -5.813,3.052 -5.813,6.554 0,0.378 0.078,1.518 0.29,3.198 0.348,3.052 0.56,3.284 0.696,4.5 h 9.018 l -2.027,8.987 h -6.991 c -0.56,2.743 -1.255,6.248 -6.084,10.437 l 0.155,0.155 c 2.24,-0.83 3.071,-0.907 4.248,-0.907 0.85,0 4.616,0.752 5.331,0.831 1.1,0.232 2.567,0.385 3.688,0.385 3.07,0 5.175,-0.918 6.644,-1.603 l 2.51,11.662 c -2.724,1.217 -5.872,2.435 -9.849,2.435 -2.936,0 -4.462,-0.376 -8.594,-1.746 -2.723,-0.921 -5.31,-1.681 -8.304,-1.681 -2.664,0 -4.963,0.386 -10.562,3.504 l -2.995,-10.971 c 4.25,-2.594 9.501,-5.868 10.275,-12.502 z"
           id="path31" /></g></g></g></svg>
