<svg xmlns="http://www.w3.org/2000/svg" width="24" height="24"><path fill="#5a514a" fill-rule="evenodd" d="m10.38 7.62.63.65-.33.26-.33.26h1.9c1.03 0 1.86 0 1.84-.03s-.83-.36-1.79-.74c-.96-.4-1.93-.78-2.15-.87l-.4-.17zm-7.03 1.7A25 25 0 0 0 3 10.96c0 .02.24.04.54.04.49 0 .55-.02.58-.22.03-.22.09-.23.95-.28.77-.04.95-.08 1.07-.25a1 1 0 0 0 .16-.3l.06-.31a.4.4 0 0 0-.1-.38c-.15-.13-.4-.16-1.52-.16-1.3 0-1.34 0-1.39.23m3.56-.04c-.24.24-.47 1.29-.34 1.5.08.13.35.17 1.33.19 1.47.03 1.52 0 1.7-.94.18-.92.15-.94-1.31-.94-1.04 0-1.21.02-1.38.2m3.12.72-.2.93 1.8.03c1.53.02 1.83 0 1.98-.13.14-.14.49-1.31.49-1.67 0-.05-.24-.08-.52-.06l-.53.03-.15.73c-.08.4-.19.73-.23.73-.23.01-.25-.11-.12-.71l.15-.72c0-.05-.24-.08-.54-.08h-.54l-.13.71c-.07.4-.18.73-.26.76-.26.1-.26 0 .02-1.24.05-.22.02-.23-.49-.23h-.53zm4.52-.8c-.1.25-.35 1.43-.35 1.6 0 .16.12.17 1.58.15 1.32-.03 1.57-.05 1.57-.18 0-.12-.2-.16-1.03-.18-.76-.02-1.02-.06-1-.15.03-.07.3-.14.64-.17.46-.04.6-.09.62-.22.03-.15-.05-.18-.52-.18-.5 0-.56-.02-.56-.2s.07-.2 1.05-.2 1.05-.01 1.05-.2c0-.2-.07-.2-1.5-.2-1.12 0-1.52.03-1.55.13m3.5 0a19 19 0 0 0-.35 1.68c0 .06.23.09.53.07.45-.03.52-.06.55-.25.03-.2.1-.23.43-.23s.4.04.45.25c.06.23.1.25.6.25h.54l-.06-.3a.7.7 0 0 1 .1-.51c.19-.28.21-.8.04-.97s-2.77-.17-2.83 0m-13.69.44c-.14.36-.07.44.39.44q.47 0 .45-.14c0-.08.03-.21.06-.3.05-.13-.02-.16-.39-.16q-.47 0-.5.16m3.4-.02c-.03.07-.08.33-.12.58l-.07.44.41-.04c.37-.04.42-.07.5-.4.19-.64.15-.72-.28-.72q-.37 0-.44.14m11.2.16c-.03.3-.03.3.44.3.44 0 .47-.02.51-.3.04-.3.04-.3-.43-.3-.44 0-.47.02-.51.3"/></svg>