<svg xmlns="http://www.w3.org/2000/svg" width="24" height="24" viewBox="0 0 24 24"><path fill="#1b7ead" fill-rule="evenodd" d="M5.3 2.16q-1.02.27-1.67 1.12c-.62.82-.64 1-.6 5.93.02 4.3.03 4.46.23 4.9.31.67.87 1.24 1.52 1.56l.57.28h6.6c6.27 0 6.63-.01 7.1-.2a3.4 3.4 0 0 0 1.66-1.58l.24-.52v-9.3l-.24-.52a3.5 3.5 0 0 0-1.6-1.56c-.45-.22-.53-.22-6.86-.24-5.37-.02-6.49 0-6.95.13m3.44 1.39c-.03.08-.04.82-.02 1.65l.01 1.5-.23-.35c-.41-.67-.82-.79-2.77-.83L4 5.48l-.03 3.51-.03 3.51H5.8l-.15-.22c-.12-.17-.16-.5-.16-1.42v-1.2l.34.33c.33.32.38.33.93.3.8-.07 1.3-.33 1.62-.86.14-.23.28-.43.31-.43s.05 1.25.05 2.77v2.78l1.13.03 1.14.03-.16-.23c-.13-.19-.16-.57-.16-2.3 0-1.14.03-2.08.07-2.08s.29.21.55.47c.47.46.5.48 1.06.47a3 3 0 0 0 2.24-.96c.32-.32.6-.58.61-.58s.07.25.1.56c.07.72.48 1.55.95 1.94.58.48 1.22.64 2.4.63 1.56-.03 1.43.14 1.4-1.81l-.03-1.67-.83-.03-.84-.03.16.23c.12.17.16.47.16 1.24 0 .94-.02 1.02-.2 1.07-.34.09-.87-.12-1.14-.44-.36-.42-.46-.89-.46-2.13 0-.91.04-1.17.21-1.53.43-.88 1.55-1.19 2.52-.7l.47.24V6.3c0-.78.05-.73-1.02-.83a5 5 0 0 0-2.27.33c-.2.1-.54.38-.75.61s-.4.4-.42.37a4 4 0 0 1-.15-.73c-.19-1.4-.83-2.18-2.04-2.49-.84-.21-4.63-.22-4.71 0m2.59.94c-.13.03-.32.14-.43.23-.19.17-.2.3-.2 2.43 0 2.54-.07 2.35.9 2.56s1.7-.41 2-1.7c.15-.65.08-2.02-.13-2.51a1.8 1.8 0 0 0-2.14-1.01M5.66 6.36c-.13.12-.16.41-.16 1.55v1.4l.26.1c.6.22 1.1.04 1.4-.53a3.2 3.2 0 0 0 0-2.05c-.28-.56-1.15-.83-1.5-.47"/></svg>