<svg xmlns="http://www.w3.org/2000/svg" width="24" height="24"><path fill="#6b2b4d" fill-rule="evenodd" d="M10.98 7.27c-1.3.06-.88.2.8.27 2.06.08 3.14.25 3.45.54.45.42 1.07.17 1.07-.43 0-.29-.04-.36-.25-.4a1 1 0 0 0-.54.04c-.2.1-.63.1-1.67.02a24 24 0 0 0-1.74-.09zm-7.93.15c-.03.07-.04.86-.03 1.73l.03 1.6h.9l.03-.51.03-.52.6-.06c.5-.06.67-.13.96-.4.3-.27.36-.4.36-.72 0-.88-.43-1.16-1.85-1.22-.78-.03-.99-.01-1.03.1M4 8.5V9h.35c.4 0 .7-.34.58-.66-.1-.26-.23-.34-.6-.34C4 8 4 8 4 8.5m4.8-.41c-.73.23-1 .6-1 1.4 0 .83.59 1.32 1.57 1.3.79-.02.98-.1.98-.44v-.3l-.63.04c-.5.02-.67 0-.84-.15-.2-.19-.19-.2.68-.24l.89-.05.03-.34c.04-.43-.13-.86-.43-1.05s-.92-.28-1.26-.17m3.04.06c-.18.08-.33.1-.33.05s-.18-.1-.4-.1h-.4v2.6h.9v-.9c0-.87 0-.9.25-.96.5-.12.55-.02.55.96v.9h.9v-.89c0-.95.03-1.01.55-1.01.27 0 .35.29.35 1.26v.64h.8V9.62c0-1-.02-1.1-.22-1.3q-.49-.47-1.22-.18c-.39.15-.46.15-.79.01-.44-.18-.53-.18-.94 0m5.43-.05c-1.12.34-1.3 2-.26 2.52.4.2 1.21.23 1.69.07.33-.12.34-.13.25-.45-.05-.2-.1-.21-.63-.17-.57.05-1.01-.07-1.01-.27 0-.06.34-.1.77-.1.97 0 1.08-.06 1-.55-.15-.9-.88-1.32-1.8-1.05m-11.1.07c-.04.03-.07.62-.07 1.3v1.23H7v-.85c0-.83 0-.86.26-.95.14-.06.3-.08.34-.05.11.07.3-.27.3-.54 0-.24-.37-.29-.73-.1q-.22.13-.25 0c-.04-.12-.64-.16-.75-.04m13.1 0c-.04.03-.07.62-.07 1.3v1.23h.89l.03-.87.03-.87.4-.12c.35-.1.4-.15.43-.42.03-.29 0-.32-.23-.32-.14 0-.35.05-.45.1q-.18.1-.25 0c-.07-.11-.68-.14-.78-.03m-3.9.3c-.04.03-.07.55-.07 1.15v1.1l.43-.04.42-.03v-2.2l-.35-.03c-.2-.02-.39 0-.43.04m-6.52.44c-.18.2-.18.2.3.2.39 0 .46-.03.43-.17-.05-.26-.5-.28-.73-.03m8.57-.08c-.21.21-.13.28.33.28.25 0 .45-.04.45-.08 0-.15-.24-.32-.45-.32a.5.5 0 0 0-.33.12"/></svg>