<?xml version="1.0" encoding="UTF-8" standalone="no"?>
<!-- Created with Inkscape (http://www.inkscape.org/) -->

<svg
   xmlns:dc="http://purl.org/dc/elements/1.1/"
   xmlns:cc="http://creativecommons.org/ns#"
   xmlns:rdf="http://www.w3.org/1999/02/22-rdf-syntax-ns#"
   xmlns:svg="http://www.w3.org/2000/svg"
   xmlns="http://www.w3.org/2000/svg"
   xmlns:sodipodi="http://sodipodi.sourceforge.net/DTD/sodipodi-0.dtd"
   xmlns:inkscape="http://www.inkscape.org/namespaces/inkscape"
   width="284.84656"
   height="38.805973"
   id="svg4400"
   version="1.1"
   inkscape:version="0.48.2 r9819"
   sodipodi:docname="New document 4">
  <defs
     id="defs4402" />
  <sodipodi:namedview
     id="base"
     pagecolor="#ffffff"
     bordercolor="#666666"
     borderopacity="1.0"
     inkscape:pageopacity="0.0"
     inkscape:pageshadow="2"
     inkscape:zoom="0.98994949"
     inkscape:cx="133.25317"
     inkscape:cy="39.65606"
     inkscape:document-units="px"
     inkscape:current-layer="layer1"
     showgrid="false"
     fit-margin-top="0"
     fit-margin-left="0"
     fit-margin-right="0"
     fit-margin-bottom="0"
     inkscape:window-width="477"
     inkscape:window-height="464"
     inkscape:window-x="22"
     inkscape:window-y="22"
     inkscape:window-maximized="0" />
  <metadata
     id="metadata4405">
    <rdf:RDF>
      <cc:Work
         rdf:about="">
        <dc:format>image/svg+xml</dc:format>
        <dc:type
           rdf:resource="http://purl.org/dc/dcmitype/StillImage" />
        <dc:title></dc:title>
      </cc:Work>
    </rdf:RDF>
  </metadata>
  <g
     inkscape:label="Layer 1"
     inkscape:groupmode="layer"
     id="layer1"
     transform="translate(-245.86102,-509.10585)">
    <g
       transform="matrix(1.5597569,0,0,-1.5597569,-391.01081,1712.4636)"
       id="g4276">
      <g
         transform="translate(434.8105,760.7144)"
         id="g3011">
        <path
           inkscape:connector-curvature="0"
           id="path3013"
           style="fill:#98002e;fill-opacity:1;fill-rule:evenodd;stroke:none"
           d="m 0,0 c 0,-2.364 -0.813,-4.348 -2.652,-6.572 l 0,13.082 C -1.061,5.065 0,2.514 0,0 m 2.299,0.111 c 0,3.289 -1.805,6.932 -4.528,9.015 -0.812,0.64 -1.271,0.922 -2.72,1.663 l 0,-24.685 2.297,0 0,4.242 c 3.715,3.785 4.951,6.192 4.951,9.765" />
      </g>
      <g
         transform="translate(445.7148,760.7144)"
         id="g3015">
        <path
           inkscape:connector-curvature="0"
           id="path3017"
           style="fill:#98002e;fill-opacity:1;fill-rule:evenodd;stroke:none"
           d="m 0,0 c 0,-2.364 -0.816,-4.348 -2.656,-6.572 l 0,13.082 C -1.061,5.065 0,2.514 0,0 m 2.828,-13.97 0,2.301 c -1.945,0.427 -3.291,1.484 -4.244,3.359 2.936,3.257 3.717,5.06 3.717,8.382 0,3.328 -1.807,6.933 -4.53,9.054 -0.814,0.64 -1.273,0.922 -2.724,1.663 l 0,-24.685 2.297,0 0,3.607 c 1.24,-2.263 3.043,-3.465 5.484,-3.681" />
      </g>
      <g
         transform="translate(457.6445,746.8188)"
         id="g3019">
        <path
           inkscape:connector-curvature="0"
           id="path3021"
           style="fill:#98002e;fill-opacity:1;fill-rule:evenodd;stroke:none"
           d="m 0,0 0,2.302 -3.818,0 0,2.72 3.818,0 0,2.301 -3.818,0 0,13.969 3.818,0 0,2.297 -6.119,0 L -6.119,0 0,0 z" />
      </g>
      <g
         transform="translate(468.5352,768.1108)"
         id="g3023">
        <path
           inkscape:connector-curvature="0"
           id="path3025"
           style="fill:#98002e;fill-opacity:1;fill-rule:evenodd;stroke:none"
           d="m 0,0 0,2.297 -7.816,0 0,-2.297 2.761,0 0,-21.292 2.297,0 L -2.758,0 0,0 z" />
      </g>
      <g
         transform="translate(482.8906,753.647)"
         id="g3027">
        <path
           inkscape:connector-curvature="0"
           id="path3029"
           style="fill:#98002e;fill-opacity:1;fill-rule:evenodd;stroke:none"
           d="M 0,0 -2.471,0 -1.234,6.565 0,0 z m 3.352,-6.776 -4.586,24.598 -4.59,-24.598 2.117,0 0.812,4.482 3.319,0 0.81,-4.482 2.118,0 z" />
      </g>
      <g
         transform="translate(506.7051,746.8706)"
         id="g3031">
        <path
           inkscape:connector-curvature="0"
           id="path3033"
           style="fill:#98002e;fill-opacity:1;fill-rule:evenodd;stroke:none"
           d="m 0,0 0,24.246 -4.693,-6.6 -4.731,6.6 0,-24.246 2.295,0 0,16.235 2.436,-3.282 2.4,3.282 L -2.293,0 0,0 z" />
      </g>
      <g
         transform="translate(516.9961,753.647)"
         id="g3035">
        <path
           inkscape:connector-curvature="0"
           id="path3037"
           style="fill:#98002e;fill-opacity:1;fill-rule:evenodd;stroke:none"
           d="M 0,0 -2.471,0 -1.234,6.565 0,0 z m 3.354,-6.776 -4.588,24.598 -4.588,-24.598 2.117,0 0.812,4.482 3.317,0 0.812,-4.482 2.118,0 z" />
      </g>
      <g
         transform="translate(532.5957,746.8706)"
         id="g3039">
        <path
           inkscape:connector-curvature="0"
           id="path3041"
           style="fill:#98002e;fill-opacity:1;fill-rule:evenodd;stroke:none"
           d="m 0,0 0,23.54 -2.293,0 0,-7.481 -5.471,7.94 0,-23.999 2.295,0 0,16.341 3.176,-4.623 L -2.293,0 0,0 z" />
      </g>
      <g
         transform="translate(545.7246,750.8579)"
         id="g3043">
        <path
           inkscape:connector-curvature="0"
           id="path3045"
           style="fill:#98002e;fill-opacity:1;fill-rule:evenodd;stroke:none"
           d="m 0,0 0,3.426 -4.375,0 0,-2.295 2.08,0 0,-1.024 c 0,-1.341 -0.562,-2.047 -1.656,-2.047 -1.096,0 -1.66,0.706 -1.66,2.047 l 0,15.318 c 0,1.341 0.564,2.047 1.66,2.047 1.094,0 1.656,-0.706 1.656,-2.047 l 0,-1.307 2.295,0 0,1.412 c 0,2.47 -1.658,4.235 -3.951,4.235 -2.295,0 -3.955,-1.765 -3.955,-4.235 l 0,-15.53 c 0,-2.436 1.66,-4.234 3.955,-4.234 C -1.658,-4.234 0,-2.436 0,0" />
      </g>
      <g
         transform="translate(556.8047,746.8706)"
         id="g3047">
        <path
           inkscape:connector-curvature="0"
           id="path3049"
           style="fill:#98002e;fill-opacity:1;fill-rule:evenodd;stroke:none"
           d="m 0,0 0,2.293 -3.813,0 0,2.719 3.813,0 0,2.294 -3.813,0 0,13.94 3.813,0 0,2.294 -6.105,0 L -6.105,0 0,0 z" />
      </g>
      <g
         transform="translate(567.1836,760.7231)"
         id="g3051">
        <path
           inkscape:connector-curvature="0"
           id="path3053"
           style="fill:#98002e;fill-opacity:1;fill-rule:evenodd;stroke:none"
           d="m 0,0 c 0,-2.337 -0.803,-4.291 -2.615,-6.49 l 0,12.912 C -1.045,4.99 0,2.478 0,0 m 2.793,-13.784 0,2.269 c -1.918,0.419 -3.246,1.466 -4.188,3.315 2.897,3.211 3.665,4.989 3.665,8.27 0,3.281 -1.78,6.839 -4.467,8.934 -0.803,0.627 -1.256,0.905 -2.688,1.64 l 0,-24.358 2.27,0 0,3.56 c 1.22,-2.234 3,-3.421 5.408,-3.63" />
      </g>
      <g
         transform="translate(583.7852,766.0708)"
         id="g3055">
        <path
           inkscape:connector-curvature="0"
           id="path3057"
           style="fill:#98002e;fill-opacity:1;fill-rule:evenodd;stroke:none"
           d="m 0,0 1.918,-5.624 5.234,0 -4.189,-2.947 1.631,-5.118 -4.594,2.985 -4.559,-2.946 1.629,5.079 -4.265,2.947 5.275,0 L 0,0 z" />
      </g>
      <g
         transform="translate(415.5078,765.9155)"
         id="g3059">
        <path
           inkscape:connector-curvature="0"
           id="path3061"
           style="fill:#98002e;fill-opacity:1;fill-rule:evenodd;stroke:none"
           d="m 0,0 1.918,-5.622 5.232,0 -4.185,-2.949 1.627,-5.117 -4.592,2.985 -4.559,-2.946 1.629,5.078 -4.263,2.949 5.271,0 L 0,0 z" />
      </g>
    </g>
  </g>
</svg>
