<?xml version="1.0" encoding="UTF-8" standalone="no"?>
<svg
   viewBox="0 0 24 24"
   width="24pt"
   height="24pt"
   version="1.1"
   id="svg1"
   xmlns="http://www.w3.org/2000/svg"
   xmlns:svg="http://www.w3.org/2000/svg">
  <defs
     id="defs1" />
  <g
     id="g3"
     style="isolation:isolate"
     transform="translate(1.148771,-0.36588865)">
    <path
       d="M 7.774,16.113 V 11.16 h 2.407 c 0.697,0 1.288,-0.032 1.772,-0.097 0.483,-0.064 0.885,-0.164 1.205,-0.297 0.605,-0.259 1.045,-0.629 1.321,-1.111 C 14.754,9.174 14.89,8.619 14.886,7.989 14.881,7.381 14.759,6.846 14.519,6.384 14.28,5.922 13.949,5.584 13.528,5.37 13.262,5.237 12.911,5.137 12.477,5.073 12.043,5.008 11.458,4.976 10.721,4.976 H 6.818 v 11.137 z m 0,-5.852 V 5.875 h 2.623 c 0.714,-0.008 1.286,0.013 1.716,0.063 0.429,0.051 0.778,0.182 1.045,0.395 0.218,0.168 0.387,0.392 0.509,0.672 0.121,0.28 0.183,0.603 0.185,0.968 -10e-4,0.469 -0.092,0.869 -0.274,1.201 -0.182,0.333 -0.45,0.579 -0.806,0.74 -0.304,0.131 -0.682,0.223 -1.134,0.274 -0.451,0.051 -0.952,0.075 -1.504,0.073 z"
       fill="#ffffff"
       id="path2" />
    <path
       d="M 17.182,5.679 C 17.175,5.382 17.074,5.135 16.879,4.939 16.684,4.743 16.438,4.641 16.143,4.634 15.841,4.641 15.592,4.744 15.395,4.942 15.199,5.14 15.097,5.39 15.09,5.694 15.097,6 15.2,6.252 15.399,6.452 c 0.2,0.199 0.453,0.303 0.761,0.31 0.296,-0.007 0.539,-0.111 0.728,-0.312 0.19,-0.201 0.288,-0.458 0.294,-0.771 z M 17.03,5.708 C 17.024,5.97 16.939,6.187 16.775,6.359 16.611,6.531 16.403,6.62 16.152,6.626 15.892,6.62 15.678,6.529 15.507,6.354 15.337,6.179 15.248,5.96 15.242,5.696 15.248,5.43 15.335,5.211 15.502,5.038 15.67,4.865 15.885,4.776 16.146,4.769 c 0.259,0.006 0.47,0.095 0.632,0.268 0.163,0.173 0.247,0.397 0.252,0.671 z M 16.694,6.297 16.355,5.795 C 16.451,5.771 16.522,5.727 16.569,5.664 16.617,5.6 16.64,5.521 16.64,5.425 16.64,5.356 16.626,5.295 16.598,5.24 16.57,5.185 16.527,5.143 16.468,5.113 16.431,5.094 16.387,5.081 16.335,5.072 16.283,5.063 16.215,5.058 16.132,5.058 h -0.421 v 1.239 h 0.234 V 5.826 h 0.175 l 0.3,0.471 z M 15.948,5.616 V 5.269 h 0.204 c 0.033,0 0.063,10e-4 0.088,0.003 0.025,0.003 0.047,0.007 0.067,0.014 0.035,0.013 0.06,0.033 0.074,0.058 0.015,0.025 0.022,0.056 0.022,0.092 0,0.035 -0.005,0.065 -0.016,0.089 -0.011,0.025 -0.028,0.044 -0.052,0.059 -0.02,0.011 -0.044,0.019 -0.073,0.024 -0.029,0.005 -0.064,0.008 -0.105,0.008 z"
       fill="#ffffff"
       id="path3" />
  </g>
</svg>
