<svg xmlns="http://www.w3.org/2000/svg" width="24" height="24" viewBox="0 0 24 24"><path fill="#9d5558" fill-rule="evenodd" d="M11.45 6.51c.95.12 2.2.52 2.78.89l.48.3 2.01-.02 2.02-.03-.42-.28c-1.17-.77-2.27-.97-5.24-.96-1.83.01-2.18.03-1.63.1m-3.25.24a7 7 0 0 0-2.19.63l-.56.27 1.94.03 1.94.02.98-.49c.93-.46.97-.49.67-.55a11 11 0 0 0-2.78.09M3 8.5q0 .09.1.1c.14 0 .12 1.04-.02 1.18-.1.1-.02.12.35.12.26 0 .47-.05.47-.1q0-.1-.1-.05c-.06.04-.1-.07-.1-.24 0-.3.02-.31.43-.31.55 0 .87-.21.71-.47a.7.7 0 0 0-.35-.24C4.11 8.38 3 8.39 3 8.5m5.9-.03c-.26.1-.6.46-.6.64q.02.78 1.2.79c.5 0 .5 0 .5-.32v-.33l-.21.28c-.25.33-.62.35-.83.05-.48-.68.3-1.4.84-.77l.2.24-.02-.3c-.03-.28-.06-.3-.48-.32a2 2 0 0 0-.6.04m6.43.17q.05.15 0 .16c-.05 0-.08.25-.08.55v.55h.34c.28 0 .32-.02.21-.14-.06-.09-.1-.37-.09-.68.03-.49.01-.53-.2-.56q-.26-.05-.18.12M3.7 8.85c0 .24.03.26.33.23.24-.02.32-.08.32-.23s-.08-.2-.32-.23c-.3-.03-.33 0-.33.23m10.22-.1q-.1.14-.02.15c.05 0 .1.17.1.39q0 .67.57.6c.22-.03.29-.1.3-.29q.06-.37-.07-.02c-.15.36-.3.25-.3-.22 0-.34.04-.46.18-.5q.24-.04 0-.05-.17-.01-.18-.11c0-.15-.43-.11-.58.05m-8.77.6v.55h.4q.35-.02.28-.07c-.15-.06-.18-.79-.03-.88.05-.03.15.03.22.15q.27.4.28-.05c0-.24-.03-.25-.57-.25h-.58zm1.57-.4c-.48.34-.1.95.58.95.42 0 .8-.26.8-.55 0-.47-.9-.73-1.38-.4M10.5 9c-.11.11-.2.27-.2.35 0 .29.38.55.8.55.44 0 .8-.27.8-.6 0-.47-1.01-.69-1.4-.3m1.9.1c0 .17-.05.3-.1.3q-.1.02-.08.22c.03.21.09.23.74.25l.72.02-.05-.42c-.08-.58-.18-.67-.74-.67-.48 0-.49 0-.49.3m3.75.25v.55h.35q.37 0 .22-.12c-.17-.17-.15-.54.04-.72q.4-.43.32.34c-.03.5-.03.5.27.5s.3-.01.27-.43c-.06-.6-.15-.67-.86-.67h-.61zm2.07-.43a.5.5 0 0 0-.12.3q0 .15-.12.2-.14.03-.02.38c.12.44.55.59 1.14.41.7-.2.46-.6-.4-.63l-.55-.02.5-.03c.57-.05.7-.14.78-.48.04-.24.02-.25-.52-.25-.32 0-.62.05-.69.12m1.62-.04c-.06.04-.12.28-.12.54l-.01.48h.47c.67 0 .83-.14.75-.68l-.06-.42h-.46c-.25 0-.51.04-.57.08M7 9.12c-.12.33.02.63.3.63.21 0 .24-.05.24-.4 0-.34-.03-.4-.23-.43q-.23-.04-.3.2m3.82-.09c-.03.09-.04.28-.02.44.02.22.08.28.28.28.23 0 .25-.04.25-.4 0-.34-.03-.4-.23-.43q-.2-.02-.28.11m1.76.07c-.1.17-.08.2.12.2.3 0 .52-.15.44-.29-.11-.18-.44-.13-.56.09m5.94-.05c-.04.09-.02.21.04.27.15.15.44.01.4-.2s-.36-.28-.44-.07M6.65 11.12c.07.33.21.56.29.47.1-.1.16-.79.07-.79q-.1.02-.14.18-.05.24-.06 0-.01-.16-.12-.18-.1.01-.04.32m.75.08c0 .34.03.4.2.4q.21 0 .14-.12c-.11-.18-.12-.48-.02-.48q.07 0 .08-.1-.02-.09-.2-.1c-.17 0-.2.07-.2.4m.7 0c0 .38.13.54.23.28q.06-.15.06 0 .01.1.08.12c.05 0 .08-.17.08-.37 0-.32-.04-.39-.22-.41-.2-.03-.23 0-.23.37m.8.01q.01.68.26.15.13-.25 0-.29-.11-.05.02-.05c.2-.02.13-.21-.08-.21-.17 0-.2.07-.2.4m.74-.26c-.11.3 0 .6.23.64q.25.05.23-.17 0-.2-.15-.21-.13 0-.15-.1.01-.08.16-.03.17.06.12-.08c-.07-.2-.37-.24-.44-.05m.76.26c0 .38.13.54.23.28q.06-.15.06 0c.02.27.16.1.15-.18-.02-.48-.03-.5-.24-.5-.17 0-.2.07-.2.4m.84-.26c-.1.25 0 .6.19.64.14.03.17-.04.17-.37q0-.43-.15-.41a.2.2 0 0 0-.21.14m.83-.07c-.04.03-.07.21-.07.4 0 .26.04.33.2.33.17 0 .2-.07.2-.4 0-.38-.14-.52-.33-.33m1.33.33c0 .4.15.55.23.23q.05-.26.06 0c.02.35.21.15.21-.23 0-.4-.15-.55-.23-.22q-.05.24-.06 0c-.02-.36-.21-.16-.21.22m.86-.09c-.09.45-.08.47.18.47q.23-.02.21-.12l-.1-.38c-.07-.37-.21-.35-.29.03m.64.1c0 .38.13.52.23.27q.06-.15.06 0 .01.1.11.12c.06 0 .1-.17.1-.39 0-.34-.03-.38-.25-.38s-.25.04-.25.38m.8-.01c0 .37.02.41.23.38.18-.02.22-.1.22-.38s-.04-.36-.22-.38c-.2-.03-.23 0-.23.38m.8 0c0 .33.03.4.2.4q.18 0 .2-.1-.02-.09-.12-.1-.13 0 .02-.1c.13-.09.13-.11 0-.2q-.15-.1-.02-.1.1 0 .12-.1-.02-.09-.2-.1c-.17 0-.2.07-.2.4"/></svg>