<svg xmlns="http://www.w3.org/2000/svg" width="24" height="24"><path fill="#afd0d1" fill-rule="evenodd" d="M9.56 2.28q-1.38.55-2.07 1.88l-.34.68v4.65c0 4.65 0 4.66.23 5.16.47 1.01.98 1.35 2.05 1.35.65 0 .79-.03 1.13-.28.44-.32.9-1.1 1.23-2.1a4 4 0 0 1 2.2-2.47 8 8 0 0 0 1.7-.81c.35-.3.76-.94.94-1.48.13-.38.17-.87.17-2.1 0-1.42-.03-1.69-.22-2.26a4 4 0 0 0-1.96-2.12l-.66-.33-1.86-.02C10.3 2 10.23 2 9.56 2.28m.55.78c-.78.23-1.5.82-1.83 1.49C8.04 5.04 8 5.62 8 9.37c.01 3.91.02 4.24.13 4.42q.07.12.03.18c-.1.1.15.6.44.89.24.23.38.28.79.28q.5 0 .71-.2c.23-.2.79-1.29.79-1.53 0-.2.67-1.43 1.02-1.85a6.5 6.5 0 0 1 2.22-1.47c.71-.19 1.22-.55 1.45-1.03.28-.56.31-.82.32-2.48 0-1.25-.01-1.42-.23-1.9a2.6 2.6 0 0 0-1.32-1.43c-.5-.24-.63-.26-2.2-.28-.99-.01-1.84.02-2.05.09m3.92 9.25a2 2 0 0 0-1.13 1.2 1.7 1.7 0 0 0 1.65 2.13c.97 0 1.7-.72 1.7-1.7a1.7 1.7 0 0 0-2.22-1.63"/></svg>