<svg xmlns="http://www.w3.org/2000/svg" width="24" height="24"><path fill="#151514" fill-rule="evenodd" d="M4.68 5.87c.09.03.12.38.12 1.23s-.03 1.2-.12 1.23c-.07.03.08.06.35.06s.47-.04.47-.1q0-.08-.1-.04c-.06.04-.1-.16-.1-.51v-.58l.46.62c.42.56.5.62.82.62h.37l-.26-.23c-.14-.12-.4-.4-.58-.64l-.31-.41.22-.07c.57-.18.75-.68.38-1.05-.17-.17-.33-.2-1.03-.2-.45.01-.76.04-.7.07m3.94.15L8.2 7.2c-.18.52-.4 1-.48 1.08-.13.1-.1.12.24.1q.33 0 .21-.05c-.18-.05-.18-.12.04-.7.07-.19.16-.23.48-.23.38 0 .4.02.52.4.1.35.1.43-.02.5q-.15.1.35.1c.4 0 .47-.02.37-.14a9 9 0 0 1-.5-1.27c-.4-1.18-.62-1.45-.8-.97m2.47-.15c.15.06.18 2.33.02 2.33a.1.1 0 0 0-.1.1c0 .06.38.1.95.1h.95v-.56c0-.57-.13-.66-.23-.15q-.13.6-.68.61h-.29V7.1c0-1.15 0-1.19.23-1.23.12-.02-.05-.05-.38-.05s-.54.02-.47.05m3.1 0c.15.06.18 2.33.02 2.33a.1.1 0 0 0-.1.1c0 .06.23.1.53.09.28 0 .44-.03.35-.06-.14-.04-.18-.15-.18-.58 0-.57.08-.65.72-.65.33 0 .68-.31.68-.6 0-.12-.11-.32-.25-.45-.22-.23-.32-.25-1.07-.24-.46 0-.77.03-.7.06m3.1 0c.15.06.18 2.33.02 2.33a.1.1 0 0 0-.1.1c0 .05.21.1.48.1.26-.01.41-.04.35-.07q-.13-.06-.13-.64V7.1h1v.51c0 .38-.05.55-.17.65-.16.12-.1.13.37.13.3 0 .47-.03.38-.06-.16-.04-.18-.19-.18-1.23 0-.85.03-1.2.13-1.23.06-.03-.1-.06-.37-.06-.43 0-.47 0-.32.12.13.1.17.24.14.57l-.03.45-.48.03-.47.03v-.55q0-.53.13-.6c.06-.02-.1-.04-.38-.04-.27 0-.44.02-.37.05m-11.98.6v.56l.32-.07c.37-.07.48-.2.48-.58 0-.3-.23-.48-.6-.48-.18 0-.2.06-.2.56m9.5-.01V7h.33q.59.01.57-.51c0-.36-.24-.59-.6-.59-.3 0-.3 0-.3.55m-6.28.28c-.17.46-.16.47.2.47q.33.02.24-.16l-.12-.4q-.12-.5-.32.1M3.08 9.66c.15.06.18 2.33.02 2.33a.1.1 0 0 0-.1.1c0 .06.38.1.95.1h.95v-.56q0-.53-.1-.49-.09.06-.1.2c0 .08-.05.26-.12.4-.1.2-.18.25-.5.25H3.7v-1.14c0-1.1 0-1.15.23-1.19.12-.02-.05-.05-.38-.05s-.54.02-.47.05m3.64.45-.43 1.2c-.13.38-.3.68-.36.68q-.12.01-.13.1c0 .06.16.1.35.1.2 0 .35-.04.35-.1q-.02-.09-.14-.1c-.13 0-.13-.05-.02-.37.12-.36.15-.38.56-.38.4 0 .44.02.55.35.1.3.1.37-.04.47-.13.1-.08.12.32.13.42 0 .46-.02.37-.17-.06-.1-.28-.67-.5-1.28-.23-.68-.44-1.11-.53-1.13q-.15-.04-.35.5m2.5-.45c.16.04.18.18.18 1.09 0 1.25.11 1.44.85 1.44s.85-.19.85-1.44c0-.74.04-1.06.13-1.1q.07-.04-.28-.04t-.22.05c.15.04.17.18.17 1.08 0 1.13-.1 1.35-.55 1.35-.42 0-.55-.34-.55-1.41 0-.84.02-.98.18-1.02.1-.03-.08-.05-.38-.05s-.47.02-.37.05m3.25 0c.15.06.18 2.33.02 2.33a.1.1 0 0 0-.1.1c0 .06.2.1.45.1s.45-.04.45-.1a.1.1 0 0 0-.1-.1c-.05 0-.1-.23-.1-.52v-.52l.46.62c.42.56.5.62.82.62h.37l-.26-.23c-.14-.12-.4-.4-.58-.64l-.31-.41.22-.07c.37-.11.58-.36.58-.66 0-.44-.31-.6-1.25-.58-.44 0-.74.03-.67.06m3.14 0c.16.04.18.18.18 1.15 0 .94-.03 1.13-.18 1.24s-.01.13.9.14h1.08v-.5q-.02-.91-.29-.1c-.12.4-.12.4-.61.4h-.5v-.56c0-.54 0-.55.28-.52q.29.03.3.26c.07.44.22.2.22-.33q0-.88-.25-.32c-.06.12-.19.22-.3.22-.17 0-.2-.08-.23-.53l-.03-.53.48.03c.44.03.5.06.65.38l.17.35v-.42l.01-.43-1.02.01c-.57 0-.95.03-.86.06m3.2 0c.16.04.18.18.18 1.15 0 .94-.03 1.13-.18 1.24s-.13.13.2.14c.21 0 .38-.04.38-.1q-.02-.09-.15-.1c-.12 0-.15-.19-.15-1.07 0-.58.03-1.04.06-1 .03.03.36.53.72 1.12.37.59.71 1.07.77 1.06.06 0 .11-.5.13-1.18q.03-1.17.15-1.25c.07-.04-.06-.07-.28-.07q-.35 0-.22.06c.14.04.17.17.17.86v.82l-.36-.55-.54-.87c-.17-.3-.24-.33-.62-.32-.24 0-.35.03-.25.06m-5.73.58c0 .6.14.7.58.4.45-.33.2-.95-.37-.95-.19 0-.21.06-.21.55m-6.28.05c-.26.68-.26.7.07.7.35 0 .36 0 .17-.55-.14-.4-.15-.4-.24-.15"/></svg>