<svg xmlns="http://www.w3.org/2000/svg" width="24" height="24" viewBox="0 0 24 24"><path fill="#bdc3cb" fill-rule="evenodd" d="M10.04 6.2c-.05.05-.2.1-.34.12l-.25.03-.02 1.35c-.02 1.6-.2 2.5-.22 1.07-.01-1-.09-1.2-.53-1.43-.3-.16-1.38-.26-1.38-.13q-.02.07-.23.13c-.13.03-.3.18-.38.33s-.18.31-.24.36c-.15.11.13.25.4.2q.26-.05.25.1c0 .15-.06.19-.26.16q-.07 0-.15.13-.09.12-.21.13c-.16 0-.53-.44-.44-.52q.05-.05.06.03.02.06.15-.2c.08-.15.15-.48.15-.72 0-.36-.06-.5-.33-.76l-.33-.33-1.04.02-1.33.03H3.1v3.8l.33.01c.8.03.89-.04.82-.73-.03-.27-.01-.48.03-.49l.5-.05c.43-.06.46-.03.45.44q0 .1.08.12c.05 0 .09.13.09.3q.01.29.17.38c.24.11.79.08.96-.06.11-.1.2-.08.39.07.21.17.3.18.73.08.28-.06.53-.16.57-.21q.08-.11.08 0c0 .17.35.23.77.14.2-.05.4-.06.43-.02.04.06.49.08.88.04q.11-.03.11-.14-.07-.5.19-.22c.1.1.24.2.32.23l.5.14c.46.13 1.22.01 1.46-.23.33-.33.4-.45.36-.62q-.02-.16.08-.18.1.01.09.13c-.03.17.17.64.33.73.17.1 1 .23 1.15.17q.12-.06.13-.23-.01-.2.2-.13.18.06.2.14t.15.09.15.1.14.04a.5.5 0 0 1 .32.04c.18.1 1.34-.22 1.34-.37 0-.04.07-.16.16-.27q.13-.16.1-.06-.06.1.03.12t.13.23c.02.18.1.23.47.25.24.02.48-.01.54-.07.05-.05.09-.43.08-.84-.02-.77.04-.9.46-1 .26-.06.28.01.32 1.08.02.44.04.81.06.83.05.06.84.06.9 0q.14-.12.02-1.58c-.06-.76-.1-.87-.34-1.08-.23-.19-.37-.22-.76-.19q-.48.04-.62.23c-.12.16-.14.17-.15.03q0-.17-.36-.21c-.42-.05-.61.08-.66.42q-.03.23-.1.23-.08-.04-.07-.1c0-.03-.19-.19-.43-.35-.4-.27-.49-.29-1.07-.25q-.65.05-.76.2-.12.15-.19.1t-.16.07q-.11.18-.1-.07 0-.24-.2-.23-.19 0-.15-.1.04-.09-.04-.1-.1-.01-.11-.24c0-.28-.38-.57-.6-.45l-.32.13c-.1.03-.18.15-.18.28 0 .53-.27.6-1.43.4-.32-.04-.6-.05-.63 0q-.06.07-.23.08t-.29.12q-.42.44-.43-.35v-.62c.01-.15-.35-.35-.45-.25M4.27 7.4c-.12.44-.09.49.34.49.5 0 .8-.24.57-.46a1 1 0 0 0-.5-.2c-.3-.05-.36-.03-.41.17m8.89.75q-.06.13-.16.09a.2.2 0 0 0-.2 0c-.1.07.47.75.63.75.14 0 .08-.88-.07-.93q-.14-.04-.2.1m1.56-.09c-.16.1-.13.99.04 1.13s.3-.27.14-.46q-.15-.16 0-.15.1 0 .05-.21-.08-.23.05-.14.12.07.08-.05c-.05-.17-.2-.22-.36-.12m1.5.12q-.04.18-.13.2c-.19 0-.08.57.14.76.21.19.63.22.52.03q-.05-.08.03-.09c.19 0 .23-.5.06-.82q-.16-.35-.25-.17-.09.14-.09.02c0-.2-.21-.15-.27.07m-5.68.3c-.1.17-.13.7-.03.76q.07.04.08-.05c0-.06.18-.11.4-.11s.4-.04.4-.1q-.02-.08-.2-.05-.19.04-.38-.27-.2-.3-.27-.18m-2.6.53c-.06.14-.1.15-.21.06q-.15-.15-.14.1c0 .25.17.36.34.22q.12-.1.2-.04c.1.1.07-.2-.04-.37-.08-.12-.1-.12-.16.03m3.7.12q-.11.33.32.35c.27 0 .28-.03.14-.3-.13-.23-.38-.26-.46-.05m-7.49 1.52c-.8.09-.96.15-1.07.38-.09.2-.07.3.06.5l.16.25 1.58-.01a39 39 0 0 0 2.32-.08l.75-.06v-.8l-.75-.08c-.9-.09-2.63-.15-3.05-.1m7.03.2c-.28.33-.28.51-.01.73.25.2.27.2.45.03.24-.21.2-.61-.08-.8-.18-.11-.23-.11-.36.04m1.65-.02q-.04.18-.2.03-.14-.15-.23.02-.08.15-.23.02-.27-.23-.27.3c0 .16.08.33.22.42.2.14.24.14.4-.01s.2-.15.29-.03c.07.13.1.13.18.01q.08-.14.15-.02c.1.17.23.13.29-.09q.04-.18-.02-.2c-.04 0-.07-.1-.07-.21.01-.27-.42-.47-.5-.24m3.17.06c-.26.24-.27.4-.02.67.2.23.41.29.41.11q.02-.1.23-.08c.12.01.3-.01.4-.06s.23-.03.3.02c.1.07.28.09.65.04.06 0 .12-.09.13-.18q0-.2.1.05c.12.32.29.18.29-.23 0-.4-.19-.57-.28-.24l-.06.24-.06-.25c-.05-.2-.11-.24-.3-.22q-.48.06-.2.22.13.08.09.15c-.03.03-.16-.04-.29-.15q-.39-.33-.4-.1-.01.08-.12.08-.12-.02-.1.25c.02.15-.01.27-.08.27q-.1-.01-.05-.1c.1-.15-.04-.49-.24-.6-.14-.07-.24-.04-.4.1m3.59-.05c-.13.16-.35.21-.26.06.03-.04-.12-.08-.34-.08h-.4v.42c0 .41 0 .42.35.42.28 0 .35-.04.35-.2 0-.18.02-.17.26.06.2.21.3.24.45.16.1-.05.19-.16.19-.24q.02-.14.17-.15.19 0 .05.12-.28.28.13.28c.33 0 .42-.25.2-.5q-.16-.19-.07-.2.11 0 .12-.1c0-.13-.33-.13-.46 0q-.11.12-.24-.05-.25-.3-.5 0m-10.85.18c-.12.17-.12.24-.02.36q.35.45.54.3c.07-.06.25-.08.41-.04q.3.06.45-.1.29-.29.27-.01c0 .2.4.28.47.08q.05-.15-.05-.2c-.07-.02-.12-.14-.12-.26q0-.46-.27-.24-.14.13-.21 0c-.04-.05-.35-.1-.7-.1-.52.01-.66.05-.77.21M14 10.9q0 .09.02.13l-.1.23c-.1.18-.08.25.08.39.24.22.56.12.63-.2q.03-.23-.05-.25t-.02-.11q.04-.1-.07-.2c-.19-.12-.49-.11-.49.01m1.23.03c-.22.27-.21.55.03.67.25.14.6.07.49-.1a.3.3 0 0 0-.2-.1q-.12 0-.08-.2.06-.18.2-.2.12 0 .08-.1c-.09-.14-.4-.12-.52.03"/></svg>