<?xml version="1.0" encoding="UTF-8" standalone="no"?>
<svg
   viewBox="0 0 24 24"
   width="24pt"
   height="24pt"
   version="1.1"
   id="svg1"
   xml:space="preserve"
   xmlns="http://www.w3.org/2000/svg"
   xmlns:svg="http://www.w3.org/2000/svg"><defs
     id="defs1" /><g
     id="g1"
     transform="matrix(0.17467053,0,0,0.17467053,-32.179297,-32.173317)"><path
       d="m 239.222,219.047 c -11.269,5.631 -17.196,15.281 -17.212,28.025 -0.006,4.328 0.672,9.574 1.582,12.244 2.173,6.377 9.249,13.968 16.205,17.384 4.88,2.396 6.858,2.787 13.703,2.711 13.42,-0.148 23.657,-6.684 28.953,-18.486 2.509,-5.591 2.739,-7.035 2.364,-14.878 -0.343,-7.163 -0.888,-9.492 -3.107,-13.279 -4.369,-7.455 -7.43,-10.472 -13.91,-13.71 -5.328,-2.663 -7.177,-3.058 -14.3,-3.058 -7.117,0 -8.974,0.396 -14.278,3.047 M 276,219.313 c 0,0.172 1.462,1.635 3.25,3.25 l 3.25,2.937 -2.937,-3.25 C 276.825,219.221 276,218.54 276,219.313 m -24.857,10.22 c -3.495,2.941 -5.182,7.368 -5.609,14.727 -0.167,2.882 -0.372,5.465 -0.455,5.74 -0.302,1.006 -3.009,-4.553 -3.044,-6.25 -0.05,-2.493 -1.718,-2.163 -3.602,0.712 -5.738,8.758 1.009,22.03 12.275,24.143 7.966,1.494 17.018,-4.544 19.099,-12.742 0.898,-3.538 0.754,-5.161 -0.865,-9.769 -1.068,-3.038 -1.942,-6.301 -1.942,-7.25 0,-4.447 -4.298,-2.713 -6.584,2.656 l -1.277,3 -1.57,-3.718 C 256.706,238.737 256,234.8 256,232.032 256,229.264 255.585,227 255.077,227 c -0.508,0 -2.278,1.14 -3.934,2.533"
       stroke="none"
       fill="#ee5323"
       fill-rule="evenodd"
       id="path1-8" /><path
       d="m 246,197.594 c 0,2.752 0.468,3.716 2,4.116 3.518,0.92 2.198,3.033 -2.318,3.71 -6.693,1.004 -16.194,6.005 -22.201,11.687 -17.505,16.555 -17.495,45.241 0.021,61.806 7.738,7.319 16.719,11.315 26.732,11.894 18.73,1.085 34.511,-8.341 42.489,-25.377 2.531,-5.405 2.777,-6.948 2.777,-17.43 0,-10.482 -0.246,-12.025 -2.777,-17.43 -1.528,-3.262 -4.34,-7.837 -6.25,-10.168 -3.735,-4.558 -4.294,-5.931 -2.067,-5.076 0.773,0.296 2.144,-0.276 3.046,-1.273 1.541,-1.703 1.384,-2.024 -2.646,-5.371 -3.962,-3.291 -4.417,-3.439 -6.042,-1.969 -1.207,1.093 -1.448,1.963 -0.769,2.781 1.947,2.346 -0.32,2.375 -4.884,0.062 -2.554,-1.294 -6.549,-2.866 -8.878,-3.493 C 260.177,204.97 258.178,202 261.5,202 c 0.825,0 1.506,-0.787 1.514,-1.75 0.007,-0.963 0.285,-2.762 0.616,-4 0.593,-2.213 0.453,-2.25 -8.513,-2.25 H 246 v 3.594 m -2.071,14.709 c -10.068,2.856 -19.239,10.584 -23.969,20.197 -2.14,4.349 -2.46,6.367 -2.46,15.5 0,9.628 0.243,10.98 2.929,16.281 8.136,16.056 26.457,24.052 43.202,18.854 32.263,-10.015 35.466,-54.117 4.977,-68.541 -6.983,-3.303 -17.628,-4.291 -24.679,-2.291"
       stroke="none"
       fill="#090909"
       fill-rule="evenodd"
       id="path2" /><path
       d="m 251.06689,229.63667 c -3.495,2.941 -5.182,7.368 -5.609,14.727 -0.167,2.882 -0.372,5.465 -0.455,5.74 -0.302,1.006 -3.009,-4.553 -3.044,-6.25 -0.05,-2.493 -1.718,-2.163 -3.602,0.712 -5.738,8.758 1.009,22.03 12.275,24.143 7.966,1.494 17.018,-4.544 19.099,-12.742 0.898,-3.538 0.754,-5.161 -0.865,-9.769 -1.068,-3.038 -1.942,-6.301 -1.942,-7.25 0,-4.447 -4.298,-2.713 -6.584,2.656 l -1.277,3 -1.57,-3.718 c -0.863,-2.045 -1.569,-5.982 -1.569,-8.75 0,-2.768 -0.415,-5.032 -0.923,-5.032 -0.508,0 -2.278,1.14 -3.934,2.533"
       stroke="none"
       fill="#fbfbfb"
       fill-rule="evenodd"
       id="path3"
       style="fill:#ffffff" /></g></svg>
