<svg xmlns="http://www.w3.org/2000/svg" width="24" height="24" viewBox="0 0 24 24"><path fill="#656066" fill-rule="evenodd" d="m4.15 5.8-.78.15c-.32.05-.38.1-.35.28q.02.22.3.25c.15.02.3.12.36.28.16.34.85.35 1.05.02.17-.27.11-1.09-.07-1.07zm11.14.36q-.37.13-.62.61a8 8 0 0 0-.64 1.97 1 1 0 0 1-.09.34q-.03.05.06.16.12.13-.05.19-.15.06-.15.4c0 .2-.04.36-.09.36s-.25.14-.46.3c-.42.33-.67.33-.97-.02-.28-.31-.22-.43.33-.68.61-.3.89-.62.89-1.05 0-.96-1.35-.8-1.84.2l-.28.57a1 1 0 0 0-.08.35q-.01.22.1.03.11-.2.1.03-.02.16-.17.24c-.1.03-.3.19-.45.35-.44.46-.58.38-.58-.34 0-.45-.06-.72-.2-.96-.25-.4-.25-.39.03-.46.96-.24 1.24-1.5.5-2.17-.47-.41-.67-.47-1.49-.45-.67 0-.86.05-1.27.3-.85.49-1.3 1.54-.93 2.11.13.2.22.24.4.2.43-.14.47-.25.24-.58-.2-.28-.2-.33-.07-.7.3-.88 1.7-1.39 2.33-.85.56.48.39 1.88-.24 1.96q-.57.08-.25.42c.17.2.18.27.07.94-.15.83-.07 1.16.33 1.42q.48.34 1.2-.48l.36-.39.1.3c.26.75 1.19.81 1.9.12.5-.46.52-.47.7-.26q.16.18-.05.1c-.17-.08-.23.1-.06.2q.1.07.05.15-.02.08.24.2c.36.14.58.04.98-.45.28-.33.3-.34.61-.23.26.1.37.1.52 0 .18-.1.21-.1.3.12.3.8 1.23.9 1.96.17l.3-.3.17.34c.18.38.62.54.99.34.55-.29.98-.71.98-.96s0-.25-.4.11c-.23.2-.47.36-.53.33s-.2-.2-.31-.39l-.2-.35.29-.57c.15-.3.31-.56.35-.56.07 0 .52-.96.64-1.37.1-.34.09-1.34-.02-1.45q-.1-.1-.55.1c-.4.18-.47.26-.67.78-.12.32-.24.72-.27.89-.02.16-.08.39-.13.5-.12.28-.3 1.2-.3 1.55 0 .22-.1.35-.42.6-.46.33-.71.33-1-.04-.26-.31-.22-.41.23-.62q.97-.44.99-1.06c0-.98-1.35-.85-1.84.17l-.28.57a1 1 0 0 0-.08.35q-.01.22.1.03.11-.2.1.03-.01.16-.1.17-.12.02-.26.15c-.18.18-.5.2-.6.04-.03-.06.06-.35.2-.64.3-.57.38-1.27.18-1.47q-.28-.27-.7.52c-.18.36-.21.56-.17 1.05q.08 1.03-.43.88c-.12-.03-.22-.12-.22-.2q0-.12-.1-.13a.1.1 0 0 0-.1.1.1.1 0 0 1-.1.1c-.11 0 0-.31.16-.45.06-.05.14-.29.17-.52.04-.31.19-.59.6-1.1.65-.8.84-1.17.93-1.72.1-.68-.15-.84-.87-.54m.2.54c-.06.12-.22.53-.35.92-.23.67-.23.7-.04.52.27-.25.84-1.4.75-1.54q-.16-.25-.36.1m4.87.2a7 7 0 0 0-.4 1.77c.07.09.55-1.02.64-1.5.13-.66-.02-.83-.24-.27m-11.27.07c-.53.36-.77.89-.94 2.05-.15 1.08-.55 2.07-.82 2.07q-.44.02-.43-.67 0-.75-.48-.2c-.28.3-.28.57-.01.9.17.22.29.27.65.27.56 0 .9-.17 1.37-.69.4-.45.52-.8.68-2.01.06-.47.2-1.05.3-1.29.23-.52.22-.48.05-.54-.07-.03-.24.02-.37.1m-5.99.58c0 .09.1.2.23.24.2.08.2.1.04.16-.2.08-.23.33-.04.4.06.03.44-.06.82-.19.6-.2.7-.27.73-.5l.03-.26h-.9c-.75 0-.91.03-.91.15m1.45.8c-.05.02-.3.06-.55.1-.56.07-.72.17-.64.38.05.14.16.16.58.12l.51-.04-.6.12c-.64.13-.75.29-.25.37l.32.05-.31.18c-.17.1-.3.21-.3.25 0 .24.18.3.79.23.53-.05.65-.1.68-.25.04-.17 0-.18-.4-.13-.39.05-.4.04-.23-.08.6-.41.6-.43.47-.64q-.15-.22 0-.19c.14.03.24-.3.11-.42a.2.2 0 0 0-.18-.05m7.9.21c-.1.1-.26.36-.36.59-.16.35-.16.4-.03.48q.31.2.64-.35c.24-.39.24-.48.07-.72-.13-.18-.14-.18-.32 0m5.2.01c-.1.11-.25.38-.35.61-.19.4-.18.41.03.48.42.13.96-.82.64-1.13-.14-.14-.17-.13-.32.04M5.4 10.1q0 .2-.08.22l-.27.04-.68.1q-.47.06-.44.18c.04.13.29.14 1 .04.36-.05.47-.04.47.07 0 .17.26.4.33.29.08-.16-.08-1.06-.2-1.1q-.12-.03-.13.16m-.56 1.19a1 1 0 0 0-.23.3c-.06.12-.16.22-.21.22q-.09-.02.02-.2c.16-.26.04-.36-.27-.22q-.25.12-.25.35c0 .5.56.64.93.21.2-.24.22-.24.27-.06.07.29.5.11.5-.2 0-.4-.43-.63-.76-.4"/></svg>