<?xml version="1.0" encoding="UTF-8"?>
<svg version="1.1" xmlns="http://www.w3.org/2000/svg" width="728" height="239">
<path d="M0 0 C240.24 0 480.48 0 728 0 C728 78.87 728 157.74 728 239 C487.76 239 247.52 239 0 239 C0 160.13 0 81.26 0 0 Z " fill="#FEFEFE" transform="translate(0,0)"/>
<path d="M0 0 C7.92 0 15.84 0 24 0 C24.04529314 11.17068095 24.08194051 22.34130031 24.10362434 33.51205254 C24.11403464 38.69980167 24.12814331 43.88748439 24.15087891 49.07519531 C24.17270578 54.08726779 24.18458931 59.09927662 24.18975449 64.11139297 C24.19343263 66.01782355 24.20061487 67.92425087 24.21146011 69.83065414 C24.28004054 82.3923518 24.285511 93.67058168 18.375 105.0625 C17.84495361 106.09491821 17.84495361 106.09491821 17.30419922 107.14819336 C10.24011672 120.43211436 -0.99004718 128.7919991 -15 134 C-28.13796718 137.61236576 -44.21447688 135.79003973 -56.0234375 129.3515625 C-58.76885717 127.66603675 -61.39013676 125.88706529 -64 124 C-65.03125 123.278125 -66.0625 122.55625 -67.125 121.8125 C-75.25152356 114.60462693 -80.54688844 105.15621048 -84 95 C-84.31839844 94.09507812 -84.63679687 93.19015625 -84.96484375 92.2578125 C-89.02627629 79.34358001 -87.27132683 67.22150211 -82 55 C-79.94042585 51.0966613 -77.62703555 47.54158764 -75 44 C-74.2575 42.948125 -73.515 41.89625 -72.75 40.8125 C-62.65759952 30.49072679 -49.61353647 23.01287739 -35.0625 22.75 C-21.69591927 22.97583452 -12.05867001 27.62755332 -1 35 C-0.67 23.45 -0.34 11.9 0 0 Z " fill="#242122" transform="translate(293,36)"/>
<path d="M0 0 C11.59835281 8.89947248 20.603486 21.34703491 23.72265625 35.84375 C24.73835832 43.74047592 24.27529046 51.38501056 22 59 C21.76667969 59.83917969 21.53335938 60.67835938 21.29296875 61.54296875 C16.02496737 78.21294573 4.09984968 89.91517921 -11 98 C-22.0394072 103.55862958 -35.9232195 103.84939452 -47.85546875 101.1171875 C-64.39799459 95.14843863 -75.98930477 84.50897925 -84 69 C-89.67656575 56.29988679 -91.37369242 43.05383262 -87.03125 29.64453125 C-80.808276 13.68637443 -70.33226842 1.38692578 -54.65234375 -5.93359375 C-36.44839909 -13.25270552 -16.25618181 -11.14355058 0 0 Z " fill="#252122" transform="translate(514,69)"/>
<path d="M0 0 C12.3212177 9.83055808 21.39583735 22.14946673 24 38 C24.72164948 50.55670103 24.72164948 50.55670103 23 54 C-5.05 54 -33.1 54 -62 54 C-57.7935603 65.56770918 -54.82465155 72.58767423 -44 78 C-36.96344684 81.21233949 -29.69529197 80.79728429 -22.4375 78.5 C-15.73223873 75.82169451 -9.55956603 71.46198573 -6.54296875 64.765625 C-4 62 -4 62 -1.34204102 61.52099609 C2.04063098 61.40800819 5.36872304 61.47831502 8.75 61.625 C10.51150391 61.66560547 10.51150391 61.66560547 12.30859375 61.70703125 C15.2075816 61.77773827 18.1028647 61.87638044 21 62 C17.07251011 76.17207674 9.01925794 87.25292156 -3.3359375 95.49609375 C-7.68377163 97.95051625 -12.24438182 99.52821135 -17 101 C-18.485 101.495 -18.485 101.495 -20 102 C-32.28435547 102.88928185 -45.80688636 103.82974669 -57 98 C-57.9075 97.52949219 -58.815 97.05898437 -59.75 96.57421875 C-64.48943507 93.90828652 -68.38518417 91.10330446 -72 87 C-72.54140625 86.44957031 -73.0828125 85.89914063 -73.640625 85.33203125 C-78.82227326 79.86877167 -82.06688389 73.90615519 -85 67 C-85.34289062 66.19433594 -85.68578125 65.38867188 -86.0390625 64.55859375 C-90.28770583 52.18987975 -90.06479427 35.70652849 -84.55078125 23.82421875 C-75.72979557 7.75980403 -64.61631873 -2.74450812 -46.96875 -8.68359375 C-31.37110713 -12.90310535 -13.12056937 -9.47733435 0 0 Z " fill="#252122" transform="translate(170,69)"/>
<path d="M0 0 C3.71205039 2.22260368 3.71205039 2.22260368 7.76171875 3.62109375 C10.16659347 2.4661459 10.16659347 2.4661459 12.38671875 0.49609375 C23.16314139 -7.6746864 35.51707893 -9.34971755 48.76171875 -8.37890625 C59.38281226 -6.38218878 68.81736367 -1.9666586 75.19921875 6.99609375 C77.82080902 11.32097713 79.4077401 15.77014864 80.76171875 20.62109375 C81.09171875 21.61109375 81.42171875 22.60109375 81.76171875 23.62109375 C81.8525739 26.13090249 81.88780025 28.61229296 81.87524414 31.12182617 C81.87539017 31.88304276 81.87553619 32.64425934 81.87568665 33.42854309 C81.87498999 35.94457855 81.86720913 38.46053997 81.859375 40.9765625 C81.85750994 42.72105367 81.85608645 44.46554535 81.85508728 46.21003723 C81.85126901 50.80168097 81.84144459 55.39329308 81.8303833 59.98492432 C81.82015436 64.67028373 81.81558648 69.35564826 81.81054688 74.04101562 C81.79982172 83.23439113 81.78223048 92.42773486 81.76171875 101.62109375 C73.84171875 101.62109375 65.92171875 101.62109375 57.76171875 101.62109375 C57.75237305 99.42130859 57.74302734 97.22152344 57.73339844 94.95507812 C57.6995499 87.66667859 57.64395739 80.37855984 57.57781601 73.09038544 C57.53839709 68.67384916 57.50618138 64.2575106 57.49072266 59.84082031 C57.47551904 55.57414477 57.44100849 51.30801297 57.39340973 47.0415802 C57.37863396 45.41824586 57.37067993 43.79483386 57.3698349 42.1714325 C57.50777949 30.28686252 57.50777949 30.28686252 52.76171875 19.62109375 C46.60499082 14.72084091 41.39498408 13.99912398 33.76171875 14.62109375 C29.42387709 15.55960464 26.541367 16.8414455 23.38671875 19.99609375 C20.2770451 25.01941273 19.49365736 28.97757997 19.34765625 34.890625 C19.3282901 35.57162766 19.30892395 36.25263031 19.28897095 36.95426941 C19.22953743 39.11391968 19.18293675 41.27362432 19.13671875 43.43359375 C19.09850547 44.90431919 19.05945181 46.37502304 19.01953125 47.84570312 C18.92386692 51.43730164 18.839703 55.02906288 18.76171875 58.62109375 C16.23835356 56.17709029 13.99329062 53.74650855 11.94921875 50.890625 C11.18097778 49.82171021 11.18097778 49.82171021 10.3972168 48.73120117 C9.85750244 47.97299072 9.31778809 47.21478027 8.76171875 46.43359375 C8.19428955 45.64637939 7.62686035 44.85916504 7.04223633 44.0480957 C4.14333715 40.01423309 1.29558789 35.95410576 -1.4765625 31.83203125 C-1.99412109 31.07172607 -2.51167969 30.3114209 -3.04492188 29.52807617 C-4.01929457 28.09195066 -4.98116218 26.64722646 -5.92773438 25.19262695 C-9.92411595 19.32921273 -14.49250137 15.36499863 -21.58203125 13.95703125 C-27.67169004 14.03239831 -32.36772482 14.41904419 -37.5546875 17.74609375 C-44.6125675 25.60637774 -43.84250208 34.68803132 -43.84765625 44.58984375 C-43.86265362 46.23752455 -43.87938403 47.8851904 -43.89776611 49.53283691 C-43.94127746 53.84656502 -43.96140248 58.16009039 -43.97650146 62.47399902 C-43.99613136 66.8851309 -44.03809458 71.29604568 -44.078125 75.70703125 C-44.15325147 84.34502161 -44.20158202 92.98285457 -44.23828125 101.62109375 C-52.15828125 101.62109375 -60.07828125 101.62109375 -68.23828125 101.62109375 C-68.28363868 92.16267355 -68.3202584 82.70432673 -68.34190559 73.24582195 C-68.35230016 68.8528861 -68.36637939 64.46002914 -68.38916016 60.06713867 C-68.41104403 55.82015531 -68.42288234 51.57324737 -68.42803574 47.32621193 C-68.43170379 45.71367011 -68.43886579 44.10113198 -68.44974136 42.48862267 C-68.54279923 28.10649112 -68.31917673 14.52352204 -58.125 3.29296875 C-41.23748839 -12.45704208 -18.83163692 -11.69120316 0 0 Z " fill="#252223" transform="translate(618.23828125,67.37890625)"/>
<path d="M0 0 C7.92 0 15.84 0 24 0 C24.33 21.78 24.66 43.56 25 66 C29.60080199 61.39919801 33.94870589 57.01448431 38.16015625 52.125 C40.94892077 48.90400659 43.81013303 45.74952924 46.66796875 42.58984375 C48.24288459 40.84081661 49.80778678 39.08272807 51.36328125 37.31640625 C52.13027344 36.44886719 52.89726562 35.58132812 53.6875 34.6875 C54.37199219 33.90761719 55.05648437 33.12773438 55.76171875 32.32421875 C56.50035156 31.55722656 57.23898437 30.79023437 58 30 C58.77214844 29.08476563 59.54429687 28.16953125 60.33984375 27.2265625 C65.3899443 23.11601554 72.74309442 24.49228676 78.875 24.6875 C80.24475108 24.71260778 81.61454635 24.73541661 82.984375 24.75585938 C86.32404622 24.8146564 89.66145431 24.89680166 93 25 C89.12478441 29.58151456 85.15617205 34.05066133 81.0625 38.4375 C77.82892351 41.92011723 74.60762134 45.40371093 71.5 49 C67.92862781 53.13021771 64.21089642 57.12035851 60.49902344 61.1237793 C56.26829323 65.69278037 52.10995776 70.32190102 48 75 C51.8885525 80.45922273 56.13840031 85.43582197 60.66015625 90.37890625 C62.94702036 92.94065219 65.10460145 95.56923595 67.25 98.25 C70.82850446 102.67933768 74.6000718 106.8569243 78.5 111 C84.74961337 117.64243062 90.92942439 124.39413658 96 132 C92.68767302 132.08834684 89.37565565 132.14083584 86.0625 132.1875 C85.13630859 132.21263672 84.21011719 132.23777344 83.25585938 132.26367188 C73.2467608 132.36903081 65.34140506 129.94417472 58 123 C55.99482416 120.6697746 54.12009112 118.2680095 52.25 115.828125 C48.31365082 110.88035276 43.93367904 106.33707884 39.61279297 101.72607422 C36.83052134 98.74837812 34.07319028 95.74768979 31.3125 92.75 C28.20148771 89.33165119 28.20148771 89.33165119 25 86 C24.67 101.18 24.34 116.36 24 132 C16.08 132 8.16 132 0 132 C0 88.44 0 44.88 0 0 Z " fill="#242122" transform="translate(336,36)"/>
<path d="M0 0 C6.89279722 5.59821094 10.59684355 13.05224939 13.37109375 21.375 C14.26766885 33.1457503 13.64626438 43.10411042 6.4609375 53.0078125 C0.57744461 59.67210539 -7.5487971 63.66124806 -16.32421875 64.69140625 C-25.0452144 65.06793949 -31.21224141 62.59520877 -37.87890625 57.0625 C-45.65423493 49.78182444 -49.55177096 42.4016089 -50.08447266 31.64233398 C-50.30314551 21.4067621 -47.87361815 13.01369906 -41.31640625 4.9375 C-29.85987654 -7.0160592 -14.19970897 -8.77723467 0 0 Z " fill="#FDFDFD" transform="translate(280.62890625,85.625)"/>
<path d="M0 0 C8.81653593 5.14895256 13.19572268 11.4733231 16.55859375 21.0625 C19.088809 30.95845297 17.96530604 40.91476206 13.1484375 49.90625 C7.83447638 58.43132132 1.27408142 63.96697474 -8.5625 66.5 C-17.77709609 67.9464048 -24.92553411 65.74232404 -32.5625 60.5 C-40.16756588 53.86420722 -44.98600202 45.35209022 -45.8359375 35.25 C-46.13035096 24.37934909 -44.26490869 15.6863327 -37.25 7.0625 C-27.44178829 -3.23934162 -12.97834651 -6.0620378 0 0 Z " fill="#FCFCFC" transform="translate(495.5625,83.5)"/>
<path d="M0 0 C0 6.93 0 13.86 0 21 C-2.97 21.66 -5.94 22.32 -9 23 C-15.39509369 25.62728371 -19.00946502 29.86491107 -22 36 C-23.14465838 39.43397515 -23.15979407 42.14361354 -23.20532227 45.76635742 C-23.22017166 46.79113945 -23.22017166 46.79113945 -23.23532104 47.83662415 C-23.26688679 50.09287053 -23.2916739 52.34913797 -23.31640625 54.60546875 C-23.33698004 56.17060389 -23.35797662 57.73573352 -23.37937927 59.30085754 C-23.43455609 63.41897116 -23.48398471 67.53713456 -23.53222656 71.65533447 C-23.58247365 75.85815864 -23.63814297 80.06091058 -23.69335938 84.26367188 C-23.80088728 92.50905515 -23.90184304 100.75449984 -24 109 C-31.92 109 -39.84 109 -48 109 C-48.1135353 99.70652467 -48.20502089 90.41351947 -48.25906086 81.11950397 C-48.28501401 76.80263044 -48.32014583 72.48626116 -48.37719727 68.16967773 C-48.43203343 63.9939659 -48.46152754 59.81873513 -48.47438622 55.64269066 C-48.48353459 54.0596479 -48.50139593 52.47662767 -48.52865028 50.89379311 C-48.76689535 36.46685632 -45.72010278 24.13393591 -36 13 C-25.78637583 2.94381127 -13.92850361 0 0 0 Z " fill="#242122" transform="translate(76,59)"/>
<path d="M0 0 C6.49968524 3.83661976 11.13307505 8.44491573 14.25 15.328125 C14.25 16.648125 14.25 17.968125 14.25 19.328125 C-4.56 19.328125 -23.37 19.328125 -42.75 19.328125 C-41.48846447 11.7589118 -39.1780435 7.87103886 -33.01171875 3.296875 C-22.66254389 -3.39239299 -11.61735534 -5.42652782 0 0 Z " fill="#F9F9F9" transform="translate(151.75,83.671875)"/>
<path d="M0 0 C3.33941572 3.33941572 6.09209443 6.24383071 8.8828125 9.94140625 C9.57503906 10.85470703 10.26726563 11.76800781 10.98046875 12.70898438 C11.68816406 13.65064453 12.39585937 14.59230469 13.125 15.5625 C13.84042969 16.50802734 14.55585937 17.45355469 15.29296875 18.42773438 C17.1993642 20.94880873 19.10138258 23.47306507 21 26 C21.56356201 26.65637451 22.12712402 27.31274902 22.70776367 27.98901367 C24.32108561 30.49967545 24.34720078 32.01969059 24.29296875 34.984375 C24.28172974 36.24846191 24.28172974 36.24846191 24.27026367 37.53808594 C24.24295166 38.59801758 24.21563965 39.65794922 24.1875 40.75 C24.125625 44.1325 24.06375 47.515 24 51 C16.08 51 8.16 51 0 51 C0 34.17 0 17.34 0 0 Z " fill="#D61B4A" transform="translate(613,118)"/>
<path d="M0 0 C0.99 0.99 1.98 1.98 3 3 C2.67 3.33 2.34 3.66 2 4 C1.87778475 5.44184293 1.82227242 6.88943144 1.79467773 8.33618164 C1.77473251 9.2570607 1.75478729 10.17793976 1.73423767 11.12672424 C1.71752518 12.12775681 1.70081268 13.12878937 1.68359375 14.16015625 C1.66281265 15.17975937 1.64203156 16.19936249 1.62062073 17.24986267 C1.55501148 20.52067048 1.49618766 23.79156137 1.4375 27.0625 C1.39432558 29.27409728 1.35071166 31.48568603 1.30664062 33.69726562 C1.19848797 39.13142637 1.09949927 44.56564624 1 50 C8.26 50 15.52 50 23 50 C22.67 44.06 22.34 38.12 22 32 C22 32.66 22 33.32 22 34 C21.84100471 36.20889891 21.6731634 38.4171666 21.5 40.625 C21.36078125 42.40777344 21.36078125 42.40777344 21.21875 44.2265625 C21.1465625 45.14179688 21.074375 46.05703125 21 47 C20.67 47 20.34 47 20 47 C20.020625 46.10539062 20.04125 45.21078125 20.0625 44.2890625 C19.91797138 35.81607219 18.65598504 31.19698411 12.8125 24.98828125 C11 23 11 23 10 20 C10.99 20 11.98 20 13 20 C11.68 18.02 10.36 16.04 9 14 C9.33 13.34 9.66 12.68 10 12 C17.65063909 19.85266015 24.6482617 27.11714324 25.01513672 38.52905273 C24.82654345 42.69551835 24.38758381 46.8473163 24 51 C16.08 51 8.16 51 0 51 C0 34.17 0 17.34 0 0 Z " fill="#CD2851" transform="translate(613,118)"/>
<path d="M0 0 C0.66 0 1.32 0 2 0 C2 5.61 2 11.22 2 17 C-6 18 -6 18 -8 17 C-9.55461098 13.89077804 -9.36555039 11.41180361 -9 8 C-7.875 6 -7.875 6 -6 5 C-2.8125 5.3125 -2.8125 5.3125 0 6 C0 4.02 0 2.04 0 0 Z " fill="#414041" transform="translate(533,183)"/>
<path d="M0 0 C3.53471921 0 6.56187949 0.23597322 10 1 C11.52491998 4.04983996 11.23562548 6.6423369 11 10 C9.8125 12 9.8125 12 8 13 C5.3125 12.6875 5.3125 12.6875 3 12 C2.67 13.65 2.34 15.3 2 17 C1.34 17 0.68 17 0 17 C0 11.39 0 5.78 0 0 Z " fill="#414041" transform="translate(616,188)"/>
<path d="M0 0 C2.16551116 3.24826674 2.55156953 4.23094157 2 8 C0.375 10.375 0.375 10.375 -2 12 C-5.125 11.9375 -5.125 11.9375 -8 11 C-10.31282587 7.53076119 -10.42478586 6.07794425 -10 2 C-7.65569181 -2.27491494 -4.20074737 -1.06928115 0 0 Z " fill="#353435" transform="translate(608,189)"/>
<path d="M0 0 C2.4375 0.75 2.4375 0.75 4.4375 2.75 C4.4375 4.07 4.4375 5.39 4.4375 6.75 C1.7975 6.75 -0.8425 6.75 -3.5625 6.75 C-3.2325 7.74 -2.9025 8.73 -2.5625 9.75 C0.4075 10.245 0.4075 10.245 3.4375 10.75 C3.4375 11.41 3.4375 12.07 3.4375 12.75 C-0.08153714 13.06991247 -1.98265168 13.12169764 -5 11.1875 C-6.5625 8.75 -6.5625 8.75 -6.5 5.125 C-5.38486842 1.11052632 -4.345065 -0.42390878 0 0 Z " fill="#939192" transform="translate(547.5625,188.25)"/>
<path d="M0 0 C2.4375 0.75 2.4375 0.75 4.4375 2.75 C4.4375 4.07 4.4375 5.39 4.4375 6.75 C1.7975 6.75 -0.8425 6.75 -3.5625 6.75 C-3.2325 7.74 -2.9025 8.73 -2.5625 9.75 C0.4075 10.245 0.4075 10.245 3.4375 10.75 C3.1075 11.41 2.7775 12.07 2.4375 12.75 C-0.9375 12.4375 -0.9375 12.4375 -4.5625 11.75 C-6.5625 8.75 -6.5625 8.75 -6.375 5.1875 C-5.4068221 1.09136272 -4.38870004 -0.42816586 0 0 Z " fill="#424141" transform="translate(663.5625,188.25)"/>
<path d="M0 0 C0.33 1.98 0.66 3.96 1 6 C-1.64 6 -4.28 6 -7 6 C-6.67 6.99 -6.34 7.98 -6 9 C-3.03 9.495 -3.03 9.495 0 10 C-0.33 10.66 -0.66 11.32 -1 12 C-3.70313576 12.21917317 -5.43958382 12.32851983 -7.8125 10.9375 C-9.67036623 7.90624457 -9.37133265 5.46577141 -9 2 C-6.73990077 -2.01795419 -4.05658773 -0.99161033 0 0 Z " fill="#626161" transform="translate(582,189)"/>
<path d="M0 0 C0.99 0.99 1.98 1.98 3 3 C2.67 3.33 2.34 3.66 2 4 C1.87778475 5.44184293 1.82227242 6.88943144 1.79467773 8.33618164 C1.77473251 9.2570607 1.75478729 10.17793976 1.73423767 11.12672424 C1.71752518 12.12775681 1.70081268 13.12878937 1.68359375 14.16015625 C1.66281265 15.17975937 1.64203156 16.19936249 1.62062073 17.24986267 C1.55501148 20.52067048 1.49618766 23.79156137 1.4375 27.0625 C1.39432558 29.27409728 1.35071166 31.48568603 1.30664062 33.69726562 C1.19848797 39.13142637 1.09949927 44.56564624 1 50 C8.59 50 16.18 50 24 50 C24 50.33 24 50.66 24 51 C16.08 51 8.16 51 0 51 C0 34.17 0 17.34 0 0 Z " fill="#D24E70" transform="translate(613,118)"/>
<path d="M0 0 C0.9075 0.165 1.815 0.33 2.75 0.5 C5.92546075 1.18096091 5.92546075 1.18096091 8.75 0.4375 C9.4925 0.293125 10.235 0.14875 11 0 C13 2 13 2 13.1953125 4.3828125 C13.17210937 5.28773438 13.14890625 6.19265625 13.125 7.125 C13.10695313 8.03507813 13.08890625 8.94515625 13.0703125 9.8828125 C13.04710937 10.58148438 13.02390625 11.28015625 13 12 C12.34 12 11.68 12 11 12 C10.67 9.03 10.34 6.06 10 3 C9.01 3 8.02 3 7 3 C6.67 6.3 6.34 9.6 6 13 C5.01 13 4.02 13 3 13 C2.96261719 12.30132812 2.92523437 11.60265625 2.88671875 10.8828125 C2.82097656 9.97273437 2.75523437 9.06265625 2.6875 8.125 C2.62949219 7.22007812 2.57148437 6.31515625 2.51171875 5.3828125 C2.2117961 2.63778399 2.2117961 2.63778399 -1 1 C-0.67 0.67 -0.34 0.34 0 0 Z " fill="#504F4F" transform="translate(638,188)"/>
<path d="M0 0 C3.28453 0 5.84698314 0.23304995 9 1 C10 2 10 2 10.09765625 4.28515625 C10.08605469 5.20167969 10.07445312 6.11820313 10.0625 7.0625 C10.05347656 7.98160156 10.04445313 8.90070313 10.03515625 9.84765625 C10.02355469 10.55792969 10.01195312 11.26820313 10 12 C9.34 12 8.68 12 8 12 C7.67 9.03 7.34 6.06 7 3 C5.68 3.33 4.36 3.66 3 4 C2.67 6.64 2.34 9.28 2 12 C1.34 12 0.68 12 0 12 C0 8.04 0 4.08 0 0 Z " fill="#383838" transform="translate(674,188)"/>
<path d="M0 0 C2.625 0.375 2.625 0.375 5 1 C5 3.31 5 5.62 5 8 C2.625 8.625 2.625 8.625 0 9 C-2 7 -2 7 -2.25 4.5 C-2 2 -2 2 0 0 Z " fill="#F0EEEF" transform="translate(602,190)"/>
<path d="M0 0 C0.99 0 1.98 0 3 0 C3 5.94 3 11.88 3 18 C2.01 18 1.02 18 0 18 C0 12.06 0 6.12 0 0 Z " fill="#201F20" transform="translate(589,183)"/>
<path d="M0 0 C3.53571429 0.53571429 3.53571429 0.53571429 5 2 C5.1875 4.4375 5.1875 4.4375 5 7 C4.34 7.66 3.68 8.32 3 9 C-0.53571429 8.46428571 -0.53571429 8.46428571 -2 7 C-2.1875 4.5625 -2.1875 4.5625 -2 2 C-1.34 1.34 -0.68 0.68 0 0 Z " fill="#F6F4F5" transform="translate(620,190)"/>
<path d="M0 0 C3.53571429 0.53571429 3.53571429 0.53571429 5 2 C5.1875 4.4375 5.1875 4.4375 5 7 C4.34 7.66 3.68 8.32 3 9 C-0.53571429 8.46428571 -0.53571429 8.46428571 -2 7 C-2.1875 4.5625 -2.1875 4.5625 -2 2 C-1.34 1.34 -0.68 0.68 0 0 Z " fill="#F3F1F2" transform="translate(528,190)"/>
<path d="M0 0 C0.66 0 1.32 0 2 0 C2.99 2.31 3.98 4.62 5 7 C6.32 4.69 7.64 2.38 9 0 C9.66 0 10.32 0 11 0 C9.66666667 4 8.33333333 8 7 12 C6.01 12 5.02 12 4 12 C3.32645501 10.56570999 2.66140299 9.12742943 2 7.6875 C1.62875 6.88699219 1.2575 6.08648437 0.875 5.26171875 C0 3 0 3 0 0 Z " fill="#3A3939" transform="translate(557,188)"/>
<path d="M0 0 C0.66 0 1.32 0 2 0 C2 0.99 2 1.98 2 3 C2.99 3 3.98 3 5 3 C5 3.66 5 4.32 5 5 C4.01 5 3.02 5 2 5 C2.12375 6.299375 2.2475 7.59875 2.375 8.9375 C2.44460938 9.66839844 2.51421875 10.39929688 2.5859375 11.15234375 C2.72257813 11.76207031 2.85921875 12.37179688 3 13 C3.66 13.33 4.32 13.66 5 14 C5 14.66 5 15.32 5 16 C3.68 16 2.36 16 1 16 C-0.20272819 13.59454362 -0.10071472 12.05003047 -0.0625 9.375 C-0.05347656 8.55773437 -0.04445313 7.74046875 -0.03515625 6.8984375 C-0.02355469 6.27195313 -0.01195312 5.64546875 0 5 C-0.66 5 -1.32 5 -2 5 C-2 4.34 -2 3.68 -2 3 C-1.34 3 -0.68 3 0 3 C0 2.01 0 1.02 0 0 Z " fill="#353535" transform="translate(692,185)"/>
<path d="M0 0 C0.66 0 1.32 0 2 0 C2 5.61 2 11.22 2 17 C0.68 17 -0.64 17 -2 17 C-1.855625 15.865625 -1.71125 14.73125 -1.5625 13.5625 C-0.99698633 9.04646944 -0.49225191 4.52452819 0 0 Z " fill="#2C2B2B" transform="translate(533,183)"/>
<path d="M0 0 C1.32 0 2.64 0 4 0 C4.33 0.66 4.66 1.32 5 2 C5.66 1.67 6.32 1.34 7 1 C7 2.32 7 3.64 7 5 C4.36 5 1.72 5 -1 5 C-1.33 5.66 -1.66 6.32 -2 7 C-2.125 4.625 -2.125 4.625 -2 2 C-1.34 1.34 -0.68 0.68 0 0 Z " fill="#989697" transform="translate(661,190)"/>
<path d="M0 0 C0.66 0 1.32 0 2 0 C2.268125 0.94875 2.53625 1.8975 2.8125 2.875 C3.74986588 6.25267273 3.74986588 6.25267273 7 8 C5.68 8 4.36 8 3 8 C2.67 9.65 2.34 11.3 2 13 C1.34 13 0.68 13 0 13 C0 8.71 0 4.42 0 0 Z " fill="#242223" transform="translate(616,192)"/>
<path d="M0 0 C0.99 0.99 1.98 1.98 3 3 C2.67 3.33 2.34 3.66 2 4 C1.84213692 5.85174706 1.74892644 7.7090911 1.68359375 9.56640625 C1.64169922 10.69111328 1.59980469 11.81582031 1.55664062 12.97460938 C1.51732422 14.15861328 1.47800781 15.34261719 1.4375 16.5625 C1.39431641 17.75037109 1.35113281 18.93824219 1.30664062 20.16210938 C1.20016454 23.10794784 1.09815159 26.0538743 1 29 C0.67 29 0.34 29 0 29 C0 19.43 0 9.86 0 0 Z " fill="#CC4568" transform="translate(613,118)"/>
<path d="M0 0 C0.33 0 0.66 0 1 0 C1.66 2.31 2.32 4.62 3 7 C5.97 7.495 5.97 7.495 9 8 C9 8.66 9 9.32 9 10 C5.42236811 10.32523926 3.60457419 10.42956587 0.625 8.3125 C-1.28250465 5.59797415 -1.43903308 4.2488448 -1 1 C-0.67 0.67 -0.34 0.34 0 0 Z " fill="#464646" transform="translate(542,191)"/>
<path d="M0 0 C0.66 0 1.32 0 2 0 C3.53166168 4.08443115 2.63081652 7.79455657 2 12 C1.34 12 0.68 12 0 12 C0 8.04 0 4.08 0 0 Z " fill="#323132" transform="translate(674,188)"/>
<path d="M0 0 C3.375 0.3125 3.375 0.3125 7 1 C9.1519437 4.22791555 9.20086443 5.28400809 9 9 C8.01 8.67 7.02 8.34 6 8 C5.9071875 6.824375 5.9071875 6.824375 5.8125 5.625 C5.544375 4.75875 5.27625 3.8925 5 3 C2.52363988 1.62533375 2.52363988 1.62533375 0 1 C0 0.67 0 0.34 0 0 Z " fill="#575657" transform="translate(601,188)"/>
<path d="M0 0 C2 0.3125 2 0.3125 4 1 C5.20272819 3.40545638 5.10071472 4.94996953 5.0625 7.625 C5.05347656 8.44226563 5.04445313 9.25953125 5.03515625 10.1015625 C5.02355469 10.72804687 5.01195312 11.35453125 5 12 C4.67 12 4.34 12 4 12 C3.9175 10.741875 3.835 9.48375 3.75 8.1875 C3.33442857 4.66188788 3.33442857 4.66188788 0.9375 2 C0.298125 1.67 -0.34125 1.34 -1 1 C-0.67 0.67 -0.34 0.34 0 0 Z " fill="#2C2B2C" transform="translate(638,188)"/>
<path d="M0 0 C0.66 0 1.32 0 2 0 C1.01 2.97 0.02 5.94 -1 9 C-1.66 8.67 -2.32 8.34 -3 8 C-1.125 1.125 -1.125 1.125 0 0 Z " fill="#4A494A" transform="translate(566,188)"/>
<path d="M0 0 C4.75 0.75 4.75 0.75 7 3 C7 3.99 7 4.98 7 6 C6.34 6 5.68 6 5 6 C4.67 4.68 4.34 3.36 4 2 C2.35 2 0.7 2 -1 2 C-0.67 1.34 -0.34 0.68 0 0 Z " fill="#424142" transform="translate(545,188)"/>
</svg>
