<svg xmlns="http://www.w3.org/2000/svg" width="24" height="24" viewBox="0 0 24 24"><path fill="#ccd1db" fill-rule="evenodd" d="M13.15 3.9c-.04.06-.02.17.04.23.16.2-.23.77-.53.77-.33 0-.49.3-.42.78.03.2.01.69-.03 1.07l-.07.7-.08-.62c-.12-.87-.29-.8-.24.1.03.65.01.72-.17.75q-.21.03-.07-.06c.1-.07.11-.18.04-.43-.2-.72.1-2.01.49-2.12.23-.06.74-.76.63-.86a1 1 0 0 0-.36-.15c-.3-.07-.61.16-.56.43.02.08-.1.28-.27.43-.27.24-.31.25-.42.11-.1-.13-.15-.14-.27-.04-.08.07-.2.1-.26.06-.18-.11-.52.26-.46.51.05.18.02.22-.17.2l-.24-.01.19-.33c.22-.4.17-.52-.22-.52-.45 0-.76.4-.5.66.05.05.14.32.2.6l.16.77.06.27H8.1c-1.17 0-1.5.03-1.48.13.04.09.45.13 1.52.15l1.48.03-.04.57c-.03.56-.03.57.26.6.39.05.57-.15.32-.33-.1-.08-.22-.12-.27-.1-.04.03-.07-.23-.06-.57a4 4 0 0 0-.05-.9c-.07-.23-.05-.25.17-.2q.23.05.34.35.22.6-.02.38-.37-.3-.05.57c.27.71.35.82.56.75q.52-.18.29-.42a4 4 0 0 1-.37-.86 5 5 0 0 0-.31-.8c-.05-.04 0-.2.11-.35s.2-.41.22-.59q.05-.5.22-.16c.03.08.14.15.24.15.16 0 .18.1.17.93 0 .5-.04.98-.08 1.05q-.26.37.66.28c.72-.06.85-.16.64-.46-.1-.16-.14-.4-.1-.98.05-.95.07-1.02.32-1.02.2 0 .71-.57.71-.78 0-.07.1-.12.2-.12s.23-.07.27-.17c.12-.31-.65-.71-.82-.43m.72.82q-.16.1-.17.44c0 .2-.04.33-.1.3-.1-.07-.65.18-.75.34-.04.06.02.3.13.53.24.5.33 1.67.15 1.89-.18.2 0 .35.37.3.3-.04.4-.17.2-.24-.15-.04-.3-.72-.3-1.28.01-.52.3-1.33.45-1.22.06.04.11.38.13.77.02.54 0 .66-.08.53-.18-.3-.32-.21-.25.15.13.6.43 1.17.62 1.17.44-.01.72-.6.28-.6q-.15-.01-.13-.16c.03-.13.25-.16 1.47-.17 1.05-.02 1.45-.05 1.48-.14s-.3-.13-1.51-.13H14.3l-.06-.25c-.1-.42.03-.73.33-.77.22-.02.29-.1.34-.36.12-.6-.1-.98-.28-.47q-.08.26-.22.16c-.12-.08-.12-.13.02-.35.1-.14.17-.27.17-.3 0-.11-.58-.23-.73-.14M3 8.65q0 .13.1.15c.14 0 .14 3.37 0 3.45q-.4.25.7.25c.44 0 .8-.03.8-.07a1 1 0 0 0-.15-.27c-.16-.2-.22-1.36-.08-1.36.05 0 .3.38.57.85l.48.85H6.8c.76 0 1.4-.03 1.43-.06q.05-.06-.13-.25c-.16-.16-.19-.34-.19-1.34 0-.66-.04-1.15-.1-1.15l-.6.1c-.47.11-.65.3-.4.45.16.1.13 1.8-.04 1.94-.11.1-.24-.04-.66-.7l-.52-.81.33-.34c.63-.65.34-1.53-.57-1.74-.21-.05-.83-.1-1.36-.1-.8 0-.98.03-.98.15m4.06 0c-.09.1-.16.23-.16.3 0 .16.35.55.48.55.18 0 .52-.33.52-.5 0-.24-.26-.5-.5-.5-.1 0-.26.07-.34.16m9.49.08c-.3.45.16.9.6.61.29-.18.32-.46.1-.7-.23-.22-.52-.19-.7.09m-1.72-.03c-.37.1-.39.16-.18.43.21.28.21 2.6 0 3l-.15.32c0 .02.34.04.75.04s.75-.03.75-.07a1 1 0 0 0-.15-.27c-.12-.16-.15-.56-.15-1.88V8.6h-.27a3 3 0 0 0-.6.11M4.3 9.7c0 .68 0 .68.26.65q.56-.05.56-.68-.01-.64-.56-.66c-.25 0-.26.02-.26.69m4.42.11q-.67.15-.37.4c.22.18.22 3.01 0 3.2-.25.21-.06.3.65.3.75 0 .9-.08.6-.33q-.2-.16-.2-.61v-.45l.34.14c.42.18.93.06 1.26-.3.2-.21.25-.4.28-.96l.04-.7-.4-.39c-.42-.42-.74-.5-1.26-.3q-.26.09-.26 0 .02-.16-.68 0m3.6.07c-.54.26-.74.67-.7 1.37.04.52.08.63.4.9.46.44 1.04.53 1.63.27.98-.43 1.14-1.63.31-2.4-.34-.32-1.16-.4-1.65-.14m4.4-.06c-.54.1-.58.15-.43.4.15.23.16 1.95.02 2.04q-.38.25.64.25c.7 0 1.04-.11.71-.24-.11-.04-.15-.31-.17-1.28-.03-1.37 0-1.32-.77-1.17m1.61-.01c-.44.1-.5.19-.29.35.15.11.18.27.16 1.04-.01.63-.06.94-.15 1.02q-.13.1-.14.2c0 .05.7.09 1.55.09s1.55-.03 1.55-.07a1 1 0 0 0-.15-.27c-.1-.14-.15-.46-.15-1.07 0-.68-.04-.91-.17-1.08-.24-.29-.83-.38-1.22-.18-.26.13-.31.13-.31.01 0-.15-.17-.16-.68-.04m-8.73.57c-.17.2-.21 1.2-.06 1.45.14.22.5.24.67.03.16-.2.17-1.14.01-1.43-.14-.26-.43-.29-.62-.05m3.1.09c-.17.45-.11 1.22.11 1.44.11.11.24.2.3.2.34 0 .53-1.23.25-1.66-.2-.32-.53-.31-.65.02m6.57-.1c-.04.04-.07.47-.07.96 0 .73.03.9.16.95.28.1.44-.25.44-.95 0-.35-.05-.72-.1-.83-.1-.19-.3-.25-.43-.12m-8.3 3.3c-.04.03-.07.17-.07.3 0 .19.05.23.3.23.34 0 .49-.22.3-.45-.13-.16-.42-.2-.53-.08m1.1 0c-.04.03-.07.17-.07.3 0 .18.05.23.28.23s.27-.04.28-.3c0-.25-.03-.3-.2-.3-.13 0-.26.03-.3.07m1.03-.04c-.17.51-.01.7.36.43.23-.16.14-.46-.15-.46-.1 0-.2.01-.2.03m.95.07a.5.5 0 0 0 0 .3c.09.27.58.24.63-.04.06-.3-.16-.43-.27-.15-.1.24-.1.24-.1.02-.01-.24-.15-.3-.26-.13m1.84-.02-.03.3c-.02.18.02.22.27.22q.32.01.23-.16a1 1 0 0 1-.06-.3c0-.14-.4-.2-.4-.06m2.49-.05-.05.3c-.02.22.01.27.2.27.3 0 .34-.05.28-.35q-.05-.25-.23-.25c-.1 0-.2.01-.2.03m.98.03c-.04.04-.07.18-.07.3 0 .2.05.24.26.24s.25-.04.22-.27c-.03-.27-.26-.41-.41-.27m1 0c-.04.04-.07.18-.07.3 0 .2.05.24.26.24s.25-.04.22-.27c-.03-.27-.26-.41-.41-.27"/></svg>