<svg xmlns="http://www.w3.org/2000/svg" width="24" height="24"><path fill="#837a6e" fill-rule="evenodd" d="M4.6 9v7h14.7V2H4.6zm.7.03v6.32l6.63-.02 6.62-.03.03-6.3.02-6.3H5.3zm9.9-5.94c-1.28.05-1.72.1-1.97.24-.7.37-.45.59.3.26a8 8 0 0 1 3.1-.2l.57.06-.5.42c-.26.24-.59.43-.71.43-.21 0-.2-.02.11-.3l.35-.3h-1.08c-.83 0-1.08.03-1.04.13q.04.12.65.12c.34 0 .62.02.62.04 0 .08-.81.93-1.98 2.06l-1.24 1.2.05-1.25c.02-.69.08-1.35.12-1.47q.08-.24-.07-.23c-.08 0-.2.1-.26.23l-.1.22-.01-.22q0-.24-.21-.23t-.2.23q.01.27-.19-.18c-.23-.5-.53-.78-.75-.69-.15.06-.14.1.08.33.4.41.53.88.61 2.06l.08 1.1-.64-.54a14 14 0 0 1-.87-.79c-.18-.18-.26-.22-.35-.13-.13.13-.16.1 1.07 1.15.5.42.93.76.98.76s.08-.3.08-.65c0-.51.03-.65.15-.65s.15.14.15.7c0 .4.04.7.1.7.12 0 1.76-1.48 2.65-2.39.33-.34.68-.61.8-.61.16 0 .15.04-.13.33-.53.54-.34.82.2.3.15-.15.28-.22.28-.17 0 .13-3.7 3.58-3.76 3.51-.03-.02.52-.6 1.22-1.26.9-.87 1.24-1.25 1.16-1.33-.07-.07-.47.23-1.36 1.07-.7.64-1.3 1.15-1.35 1.13s-.8-.66-1.65-1.43C9.11 5.81 8.71 5.39 8.71 5.21c-.01-.22 0-.23.17-.08.1.1.23.13.3.08q.15-.06-.43-.6a5 5 0 0 1-.55-.57c0-.11 1.35-.02 1.67.11.33.14.38.14.52 0 .31-.31-.77-.53-2.33-.47l-.6.02.29.3.29.3h-.25c-.23 0-.5-.22-.89-.73-.13-.18-.07-.18 1.36-.17 1.5.02 2.1-.05 1.68-.2a19 19 0 0 0-2.14-.1H5.85l.65.65c.35.36.6.65.54.65s-.34-.25-.64-.55-.57-.55-.61-.55c-.16 0-.18.63-.1 2.36.06 1.62.1 1.84.3 2.17.37.6.58.4.26-.23a5 5 0 0 1-.3-2.5l.08-1.13.54.56c.3.31.51.62.48.68q-.07.1-.36-.17c-.16-.15-.3-.26-.32-.23s-.02.46 0 .97c.04.72.09.92.2.92s.14-.1.08-.6c-.07-.61-.07-.61.15-.48.11.07.24.26.27.41.05.23.1.27.27.23.16-.04.48.2 1.46 1.13l1.25 1.18-.6-.03c-.6-.03-.86-.2-.43-.26.21-.04.19-.08-.3-.56-.51-.49-.82-.65-.82-.42 0 .06.15.24.32.4l.33.3h-.33a1.6 1.6 0 0 1-1.2-.55q-.22-.26-.37-.21c-.15.05-.14.09.02.36.21.37.86.7 1.36.7q.37 0 .37.14c0 .1-.1.12-.42.09a1 1 0 0 1-.53-.14c-.14-.13-.45-.1-.46.04v.54c.02.37-.01.44-.27.57q-.58.3-.42.55c.07.12.14.1.4-.12L7 9.7l.28.3c.2.22.36.3.61.31l.34.01-.29.24c-.16.13-.4.26-.54.3-.45.1-.5.12-.5.28 0 .2.42.2.78 0 .15-.07.56-.43.92-.8.55-.56.61-.65.41-.65q-.22 0-.19-.12c.03-.08.26-.14.58-.16l.53-.03-.58.66c-.32.36-.67.7-.77.76-.2.11-.24.39-.05.39.07 0 .54-.45 1.06-1l.92-1h-.8c-.72 0-1.04-.1-.87-.27.03-.03.45-.09.93-.13l.88-.06-1.05-1L8 6.23c-.47-.45-.52-.53-.33-.53q.22 0 .48.4c.23.36.27.39.45.28.27-.17.25-.28-.07-.55q-.25-.2-.18-.22c.14 0 2.91 2.65 2.84 2.73a7 7 0 0 1-1.11-.94c-.59-.55-1.11-1-1.17-1-.3 0 0 .38 1.11 1.45L11.24 9 9.7 10.56c-1.16 1.14-1.6 1.53-1.73 1.48q-.18-.06-.05-.2.1-.12.04-.25-.08-.1-.65.46l-.59.58-.06-.37c-.08-.41 0-.98.2-1.37.1-.2.11-.29.02-.38-.18-.18-.24-.14-.4.3-.12.27-.17.71-.17 1.46v1.07l.35-.34c.3-.29.35-.3.4-.16q.07.16.04.2c-.02 0-.23.18-.47.39-.23.2-.47.37-.53.37-.08 0-.1-.42-.08-1.37.03-1.35-.08-2.04-.22-1.38-.1.43-.1 3.65-.01 3.65.04 0 .41-.34.82-.75s.8-.75.86-.75-.26.37-.73.82c-.7.68-.8.84-.66.9.26.09 3.79 0 4.21-.12.5-.13.87-.4.73-.53q-.09-.1-.63.13a8 8 0 0 1-3.14.25l-.59-.07.33-.29c.18-.16.38-.26.47-.23q.13.06.1.15c-.04.05.4.09 1 .09.92 0 1.04-.02.98-.16-.05-.13-.17-.15-.66-.12-.44.03-.56.02-.45-.06.08-.06.21-.24.29-.4s.72-.84 1.44-1.51l1.3-1.23-.03 1.17-.05 1.41c-.04.5.18.34.32-.23.14-.6.07-2.87-.09-2.87a21 21 0 0 0-1.54 1.42c-1.1 1.04-1.5 1.38-1.58 1.3q-.14-.12.07-.32c.15-.16.16-.22.05-.35-.13-.16.16-.46 2.1-2.2.74-.67.59-.49-.57.67-.69.68-.95 1-.87 1.08.1.1.7-.39 2.05-1.66.48-.45.78-.44 1.32.05 2.42 2.2 4.37 4.1 4.37 4.25 0 .04-.64.06-1.42.06-.79-.01-1.5.01-1.6.05-.48.19-.01.25 1.87.25 1.2 0 2.05-.04 2.05-.1 0-.04-.2-.25-.45-.46-.25-.2-.45-.4-.45-.46s.24.11.54.36.56.46.6.46.06-.91.04-2.02c-.03-1.94-.04-2.05-.27-2.45-.14-.24-.28-.43-.32-.43-.17 0-.15.28.05.65.18.35.21.61.24 1.98.03 1.08 0 1.57-.07 1.57q-.1 0-.11-.09a13 13 0 0 0-2.07-1.81c-.22 0-.15.13.44.72.32.32.52.58.45.58s-.9-.75-1.85-1.66c-1.91-1.85-2.07-2.01-2.07-2.17 0-.06.3.18.68.53 1.46 1.4 1.62 1.54 1.72 1.44q.08-.1-1.14-1.33l-1.23-1.23 1.6-1.57c.87-.86 1.64-1.58 1.7-1.6q.1-.03.04.27c-.04.17-.03.34.02.36.05.03.34-.2.65-.52l.56-.57v.68c0 .43-.06.82-.16 1.04-.13.26-.14.37-.05.46.16.16.4-.11.52-.6.1-.48.12-2.13.01-2.13-.04 0-.24.16-.43.36q-.7.74-.69.35c0-.12.26-.42.68-.77l.67-.57.08.64c.04.35.05.98.02 1.4-.05.58-.03.78.08.87.12.1.15-.03.2-.86.09-1.28.09-2.77 0-2.86-.04-.03-.3.17-.6.46-.29.28-.55.5-.58.46s.18-.28.47-.56.5-.54.46-.58c-.11-.1-.86-.12-2.68-.05m-4.92.15c-.51.27-.53.29-.29.38q.23.08.44-.07c.12-.08.4-.15.63-.15.25 0 .47-.06.54-.15.1-.13.05-.15-.46-.15-.33 0-.71.07-.86.14m1.55.12c-.24.14-.43.32-.43.4 0 .18 0 .18.51-.1.24-.15.53-.26.64-.26s.31-.07.45-.15c.24-.14.23-.14-.25-.15-.36 0-.62.07-.92.26m1.97.33q0 .1.1.16c.06.03.1.22.1.4q0 .36.15.35c.17 0 .2-.36.05-.74-.09-.24-.4-.37-.4-.17m-1.7.09c0 .04.16.18.35.31.46.3.71.15.3-.18-.27-.2-.65-.29-.65-.13m1.12.37c-.42.35-.53.7-.5 1.56l.03.74.58-.54c.31-.3.57-.58.57-.62 0-.18-.33-.08-.52.16q-.38.5-.38-.05c0-.4.23-.83.56-1.07q.25-.2.2-.31c-.1-.17-.21-.15-.54.13m-2.8.23c-.34.29-.42.52-.17.52.22 0 .8-.55.71-.68-.1-.17-.17-.15-.54.16m-.92.02c0 .12.05.31.11.43.14.27 1.4 1.57 1.53 1.57.05 0 .06-.28.02-.67-.09-.86-.16-1.13-.28-1.13q-.1 0-.04.63l.07.62-.41-.4a3 3 0 0 1-.55-.8c-.14-.44-.45-.6-.45-.25m3.94.2c-.03.07.09.25.27.4.4.34.43.35.58.16.09-.1.03-.19-.27-.4-.43-.3-.48-.3-.58-.15m-4.13.7q-.23.21-.13.31c.13.13.4.03.49-.17.1-.28-.11-.37-.36-.14m5.34.3c-.08.12.13.39.3.39.2 0 .28-.2.15-.35-.14-.17-.36-.2-.45-.05m.8.8c-.07.12.16.5.32.5.21 0 .25-.2.07-.4q-.27-.33-.39-.1m-8.86.44q-.32.12-.38.3-.06.26.13.07c.1-.08.33-.15.54-.16.2-.02.38-.07.4-.13.05-.16-.32-.2-.69-.08m.86.17q-.38.47-.08.56c.14.05.66-.64.58-.77-.1-.17-.22-.12-.5.21m8.59-.05a8 8 0 0 0-1.34 1.31c0 .02.16.03.35.03.36 0 .47.13.2.24-.1.03-.43.06-.76.06h-.6l.8-.82q.82-.84.7-.93-.1-.11-1.04.9c-.52.54-.93 1-.92 1.02.02.01.46.03 1 .04.7 0 .97.05.97.14 0 .14-.65.25-1.51.25-.33 0-.59.04-.59.09 0 .1 1.33 1.38 2.98 2.84l1.22 1.08v-.95c0-.82-.02-.96-.16-.96s-.16.08-.1.6c.03.33.03.6 0 .6-.14 0-3.2-2.78-3.32-3 0-.03.32-.04.73-.02.74.04 1.08.22.4.22-.2 0-.35.04-.35.09a3 3 0 0 0 .56.6c.42.39.6.5.68.4q.13-.1-.13-.3l-.23-.19h.55c.49 0 .58.03.76.28.16.21.22.25.32.15s.09-.19-.1-.43c-.25-.34-.26-.41-.07-.34.18.07.63-.63.49-.77q-.1-.1-.3.15-.34.44-.33.12c0-.13-.41-.26-.86-.26q-.25 0-.24-.19c0-.14.1-.2.48-.25.61-.08 1.26-.45 1.3-.74s-.02-.28-.41.02c-.44.33-1.26.54-1.38.35q-.06-.13-.01-.16l.45-.08c.63-.1.32-.27-.36-.19l-.62.07.48-.41c.27-.23.6-.45.75-.48.47-.1.52-.13.52-.29 0-.24-.52-.18-.96.11m1.56.26c0 .15.04.3.1.33s.1.25.1.49.06.5.14.62c.14.18.15.18.22.01.03-.1.04-.4.02-.68-.04-.37-.12-.58-.32-.77l-.26-.27zm-1.34.16c-.03.05.1.24.3.42.43.43.65.3.28-.18-.25-.31-.48-.4-.58-.24M5.67 8c-.13.5.47 1.66.79 1.53.15-.05.2-.23.06-.23-.12 0-.52-.74-.52-.96a1 1 0 0 0-.14-.37c-.13-.17-.14-.16-.19.03m.83.3c-.37.52-.17.7.25.22.29-.32.3-.38.1-.45q-.14-.05-.35.22m10.87.27c-.03.04.04.2.17.38.12.17.28.5.35.73.16.59.31.63.31.1 0-.33-.07-.54-.3-.85-.3-.41-.4-.48-.53-.36m-9.95.46q.03.21.1.2L8 9.2c.49 0 .55-.24.09-.34-.58-.11-.7-.08-.67.17m-1.72.79c0 .6.33 1.3.52 1.1q.13-.1-.02-.4a3 3 0 0 1-.2-.71c-.08-.66-.3-.66-.3 0m1.92-.24c-.27.1-.1.24.3.21.5-.04.66-.28.16-.27-.18 0-.39.03-.46.06m-.77.43c-.09.14.36.7.57.7.26 0 .22-.22-.1-.53-.3-.3-.38-.32-.47-.17m5.28 1.83c.03.78.07 1.61.1 1.85.04.37 0 .46-.21.63-.14.1-.37.22-.51.25s-.39.1-.54.16c-.25.1-.26.12-.12.2.35.2 1.72-.4 1.6-.7q-.07-.25.26.04c.1.1.25.14.35.1.15-.06.14-.1-.07-.32q-.24-.26-.09-.22c.18.04.9-.37.9-.52 0-.26-.33-.21-.64.09l-.32.3-.18-.3c-.12-.2-.2-.62-.24-1.4-.04-.6-.05-1.09-.03-1.09s.41.34.87.76.88.72.95.69q.1-.08-.13-.32a18 18 0 0 0-1.93-1.63 7 7 0 0 0-.02 1.43m4.17-1.34c0 .05-.1.2-.24.32-.24.23-.25.49-.01.49.17 0 .68-.68.6-.8s-.35-.13-.35-.01m1 .41a1 1 0 0 1-.42.1c-.15 0-.3.05-.33.1-.08.13.7.13.96 0q.17-.1.19-.2c0-.13-.2-.13-.4 0m-6.79 1.24c-.32.33-.5.59-.46.66q.07.13.4-.2c.28-.27.36-.3.4-.18.11.3-.14.97-.45 1.2-.32.23-.4.48-.16.48.26 0 .75-.5.86-.88.12-.43.14-1.62.02-1.62-.04 0-.32.24-.61.54m2.22.24c.07.87.12 1.06.28.97.05-.04.06-.31.03-.63l-.07-.57.23.2c.31.27.8 1.05.8 1.27q.02.17.15.18t.15.1c0 .05-.16.02-.35-.07-.28-.13-.38-.14-.48-.04-.33.34.91.66 2.14.55l.82-.07-.84-.78q-.83-.78-.94-.68t.5.64l.6.54h-.46c-.44.01-.46 0-.41-.24.04-.21 0-.26-.27-.31-.17-.04-.31-.1-.31-.16 0-.19-.4-.66-1.02-1.2l-.61-.53zm1.53.07c-.16.12-.17.17-.06.3.12.14.15.14.31-.01.38-.34.15-.6-.25-.29m-4.72.36c-.09.15.54.7.75.67q.4-.09-.17-.48c-.49-.33-.49-.33-.58-.19m.06.9c0 .39.16.69.37.69q.19 0 .05-.12c-.07-.07-.12-.3-.12-.5q0-.4-.15-.38-.15 0-.15.3m1.37.07a.2.2 0 0 0-.07.14c0 .12.55.4.77.39q.22.01-.17-.3c-.36-.31-.42-.34-.53-.23m2.48.7c-.1.07-.36.13-.56.13-.66 0-.94.23-.41.33.38.08 1.17-.1 1.36-.32.16-.17.15-.19-.02-.23a.5.5 0 0 0-.37.08"/></svg>