<?xml version="1.0" encoding="UTF-8" standalone="no"?>
<svg
   viewBox="0 0 24 24"
   width="24pt"
   height="24pt"
   version="1.1"
   id="svg1"
   xmlns="http://www.w3.org/2000/svg"
   xmlns:svg="http://www.w3.org/2000/svg">
  <defs
     id="defs1">
    <clipPath
       id="_clipPath_DJfckhUlKDz9ZeFPf8EvbuV4IyaMqw1B">
      <rect
         width="24"
         height="24"
         id="rect1"
         x="0"
         y="0" />
    </clipPath>
  </defs>
  <g
     clip-path="url(#_clipPath_DJfckhUlKDz9ZeFPf8EvbuV4IyaMqw1B)"
     id="g3"
     style="isolation:isolate"
     transform="translate(4.5200001,4.2220721)">
    <g
       id="g2"
       transform="translate(-4.4475001,-4.6885)">
      <path
         d="M 6.532,5.655 V 5.76 H 7.096 7.66 v 4.429 4.429 H 7.096 6.532 v 0.1 0.101 h 1.752 1.751 v -0.101 -0.1 H 9.476 c -0.544,0 -0.56,-0.004 -0.584,-0.093 C 8.88,14.477 8.868,13.462 8.868,12.27 v -2.166 l 1.018,0.012 c 0.959,0.012 1.027,0.02 1.257,0.109 0.588,0.233 0.801,0.713 0.869,1.937 0.065,1.212 0.105,1.574 0.198,1.828 0.12,0.318 0.386,0.588 0.704,0.712 l 0.242,0.097 2.086,0.012 2.081,0.012 v -0.101 -0.1 L 16.752,14.61 16.176,14.598 V 10.189 5.78 l 0.563,-0.02 c 0.532,-0.021 0.564,-0.025 0.564,-0.101 0,-0.081 -0.032,-0.081 -1.739,-0.093 L 13.82,5.558 V 5.659 5.76 h 0.564 0.564 v 4.429 4.429 H 14.4 c -0.781,0 -0.882,-0.061 -0.978,-0.584 -0.025,-0.129 -0.045,-0.467 -0.045,-0.749 0,-1.562 -0.273,-2.368 -0.946,-2.794 -0.27,-0.173 -0.656,-0.318 -1.059,-0.407 -0.181,-0.036 -0.322,-0.077 -0.314,-0.085 0.008,-0.012 0.161,-0.056 0.334,-0.1 0.636,-0.161 1.083,-0.459 1.385,-0.93 0.222,-0.347 0.294,-0.616 0.29,-1.096 0,-0.302 -0.024,-0.463 -0.088,-0.64 C 12.697,6.44 12.081,5.925 11.106,5.671 10.796,5.59 10.668,5.582 8.658,5.57 L 6.532,5.554 Z m 3.938,0.161 c 0.745,0.201 1.14,0.829 1.261,2.013 C 11.803,8.562 11.67,9.255 11.396,9.565 11.328,9.645 11.183,9.742 11.05,9.79 10.837,9.875 10.756,9.883 9.854,9.883 L 8.888,9.887 8.876,7.873 C 8.872,6.766 8.876,5.836 8.888,5.808 8.916,5.735 10.184,5.743 10.47,5.816 Z"
         fill="#000000"
         id="path2" />
    </g>
  </g>
</svg>
