<?xml version="1.0" encoding="UTF-8" standalone="no"?>
<svg
   viewBox="0 0 24 24"
   width="24pt"
   height="24pt"
   version="1.1"
   id="svg4"
   sodipodi:docname="roadhouse.svg"
   inkscape:version="1.3 (0e150ed6c4, 2023-07-21)"
   xml:space="preserve"
   xmlns:inkscape="http://www.inkscape.org/namespaces/inkscape"
   xmlns:sodipodi="http://sodipodi.sourceforge.net/DTD/sodipodi-0.dtd"
   xmlns="http://www.w3.org/2000/svg"
   xmlns:svg="http://www.w3.org/2000/svg"><sodipodi:namedview
     id="namedview5"
     pagecolor="#ffffff"
     bordercolor="#000000"
     borderopacity="0.25"
     inkscape:showpageshadow="2"
     inkscape:pageopacity="0.0"
     inkscape:pagecheckerboard="0"
     inkscape:deskcolor="#d1d1d1"
     inkscape:document-units="pt"
     showgrid="false"
     inkscape:zoom="12.5625"
     inkscape:cx="7.2437811"
     inkscape:cy="12.218905"
     inkscape:window-width="1920"
     inkscape:window-height="974"
     inkscape:window-x="-11"
     inkscape:window-y="1609"
     inkscape:window-maximized="1"
     inkscape:current-layer="svg4" /><defs
     id="defs8" /><g
     transform="matrix(0.00264946,0,0,-0.00264946,4.6693417,13.251753)"
     fill="#000000"
     stroke="none"
     id="g19"
     style="fill:#ffffff;fill-opacity:1"><path
       d="m 40,1823 v -60 l 39,-7 c 27,-4 47,-16 65,-37 l 26,-31 V 1140 C 170,766 167,583 159,567 146,538 101,510 66,510 41,510 40,507 40,460 v -50 h 270 270 v 48 48 l -42,10 c -32,7 -48,18 -65,43 -22,33 -23,40 -23,297 v 264 l 25,6 c 14,3 54,3 88,0 l 62,-7 20,-61 c 28,-89 114,-262 173,-348 66,-97 184,-215 273,-275 84,-57 207,-108 310,-131 91,-19 291,-22 374,-4 73,15 161,58 197,97 58,61 87,187 57,246 -38,73 -132,118 -207,98 -78,-21 -114,-68 -126,-160 -16,-121 -61,-166 -156,-156 -286,30 -559,261 -662,560 -17,49 -30,110 -31,140 -1,52 0,55 59,117 71,76 92,116 106,205 26,153 -45,303 -174,369 -95,48 -143,54 -480,61 l -318,6 z m 565,-114 c 53,-15 110,-73 125,-129 19,-72 8,-165 -27,-214 -37,-52 -120,-95 -202,-105 l -61,-7 v 239 240 l 63,-7 c 34,-3 80,-11 102,-17 z"
       id="path1"
       style="fill:#ffffff;fill-opacity:1" /><path
       d="m 2550,1491 v -170 l -47,27 c -68,38 -166,37 -241,-1 -189,-98 -189,-417 1,-512 72,-35 173,-35 243,0 27,14 50,25 52,25 1,0 2,-9 2,-20 0,-18 7,-20 75,-20 h 75 v 420 420 h -80 -80 z m -41,-295 c 92,-88 31,-246 -94,-246 -87,0 -140,64 -133,158 4,48 10,60 43,90 35,32 40,34 96,30 48,-3 65,-10 88,-32 z"
       id="path2-6"
       style="fill:#ffffff;fill-opacity:1" /><path
       d="M 2760,1240 V 820 h 80 80 v 165 c 0,215 14,245 109,245 68,0 75,-21 79,-232 l 4,-178 h 75 74 l -3,218 c -3,214 -4,219 -28,255 -28,41 -78,72 -132,82 -43,8 -132,-10 -149,-31 -6,-8 -15,-14 -20,-14 -5,0 -9,74 -9,165 v 165 h -80 -80 z"
       id="path3"
       style="fill:#ffffff;fill-opacity:1" /><path
       d="m 1177,1369 c -137,-32 -216,-135 -217,-280 0,-179 122,-287 314,-277 95,5 145,27 199,87 53,59 70,104 71,191 0,79 -20,142 -60,186 -77,83 -195,119 -307,93 z m 150,-159 c 60,-36 80,-116 47,-186 -22,-46 -70,-74 -129,-74 -42,0 -52,5 -85,38 -49,48 -59,95 -35,158 11,29 29,53 49,65 41,25 111,25 153,-1 z"
       id="path4"
       style="fill:#ffffff;fill-opacity:1" /><path
       d="m 1763,1370 c -24,-5 -57,-16 -75,-24 -38,-18 -95,-63 -88,-68 3,-1 24,-20 46,-41 l 42,-39 41,26 c 57,36 141,37 176,1 43,-42 34,-51 -58,-58 -149,-12 -224,-47 -258,-121 -24,-53 -24,-90 1,-141 43,-89 188,-125 293,-71 44,22 47,22 47,5 0,-17 8,-19 73,-19 h 72 l -3,197 c -3,212 -12,260 -55,301 -50,47 -166,71 -254,52 z m 157,-351 c 0,-48 -47,-89 -102,-89 -52,0 -88,22 -88,55 0,37 58,63 143,64 46,1 47,0 47,-30 z"
       id="path5"
       style="fill:#ffffff;fill-opacity:1" /><path
       d="m 3517,1366 c -247,-69 -284,-406 -58,-523 56,-30 72,-33 144,-33 96,0 151,21 210,78 65,62 82,104 82,202 0,100 -17,143 -82,207 -70,67 -197,97 -296,69 z m 180,-169 c 31,-29 37,-41 41,-89 5,-66 -14,-110 -61,-138 -84,-52 -199,4 -208,101 -5,60 2,82 40,120 36,36 43,39 95,39 50,0 60,-4 93,-33 z"
       id="path6"
       style="fill:#ffffff;fill-opacity:1" /><path
       d="m 4647,1370 c -88,-23 -142,-73 -152,-144 -14,-92 31,-153 133,-182 134,-37 137,-38 140,-63 5,-31 -21,-51 -66,-51 -38,0 -66,13 -102,46 l -26,24 -53,-53 -52,-54 37,-28 c 54,-41 99,-54 189,-54 136,-1 221,56 232,154 11,92 -33,149 -137,179 -138,41 -135,40 -135,65 0,18 8,27 28,34 36,12 68,3 104,-27 l 29,-24 52,47 52,47 -27,27 c -54,51 -165,77 -246,57 z"
       id="path7"
       style="fill:#ffffff;fill-opacity:1" /><path
       d="m 5158,1367 c -67,-19 -124,-61 -159,-115 -39,-62 -52,-114 -46,-187 7,-99 61,-180 151,-228 55,-29 222,-32 273,-4 38,20 103,75 103,87 0,4 -25,27 -56,50 -48,36 -58,40 -65,27 -18,-32 -75,-57 -129,-57 -46,0 -56,4 -86,34 -19,19 -34,39 -34,45 0,8 60,11 196,11 h 197 l -5,78 c -7,123 -60,213 -145,248 -49,21 -141,26 -195,11 z m 154,-144 c 15,-15 28,-35 28,-44 0,-16 -13,-18 -115,-21 -63,-2 -115,1 -115,5 0,18 34,66 54,76 12,5 43,10 70,10 41,1 55,-4 78,-26 z"
       id="path8"
       style="fill:#ffffff;fill-opacity:1" /><path
       d="m 3942,1158 c 5,-214 11,-246 58,-295 40,-43 77,-55 156,-51 56,2 80,9 103,26 36,27 43,27 39,5 -3,-16 6,-18 71,-18 h 73 l 4,268 4,267 h -80 -80 v -161 c 0,-176 -9,-216 -56,-238 -31,-14 -69,-14 -94,-1 -31,17 -40,67 -40,236 v 164 h -81 -81 z"
       id="path9"
       style="fill:#ffffff;fill-opacity:1" /><path
       d="m 3383,600 c -24,-10 -37,-39 -27,-65 4,-9 26,-25 50,-36 47,-20 57,-46 28,-70 -12,-10 -22,-10 -47,-1 -33,13 -51,7 -27,-8 25,-16 76,-11 93,8 31,34 22,61 -29,83 -50,23 -63,41 -43,65 9,11 23,14 49,10 32,-5 34,-4 16,9 -22,17 -32,18 -63,5 z"
       id="path10"
       style="fill:#ffffff;fill-opacity:1" /><path
       d="m 2810,505 c 0,-57 4,-95 10,-95 6,0 10,20 10,45 0,36 3,45 18,45 10,0 27,-18 42,-45 14,-25 28,-45 32,-45 12,0 10,10 -13,47 l -21,34 21,23 c 44,47 21,86 -51,86 h -48 z m 84,72 c 31,-22 16,-52 -27,-55 -36,-3 -37,-3 -37,32 0,31 3,36 23,36 13,0 31,-6 41,-13 z"
       id="path11"
       style="fill:#ffffff;fill-opacity:1" /><path
       d="m 3090,505 v -95 h 61 c 37,0 58,4 54,10 -3,6 -28,10 -56,10 h -49 v 35 35 h 50 c 28,0 50,5 50,10 0,6 -23,10 -51,10 h -50 l 3,33 c 3,30 5,32 53,38 l 50,6 -57,1 -58,2 z"
       id="path12"
       style="fill:#ffffff;fill-opacity:1" /><path
       d="m 3633,593 37,-4 v -90 c 0,-53 4,-88 9,-84 5,3 9,42 9,88 v 82 l 33,6 c 21,4 3,6 -46,6 -44,0 -63,-2 -42,-4 z"
       id="path13"
       style="fill:#ffffff;fill-opacity:1" /><path
       d="m 3893,505 c -23,-52 -37,-95 -32,-95 5,0 15,11 21,25 10,22 17,25 64,25 49,0 54,-2 60,-25 5,-22 24,-36 24,-18 0,20 -76,183 -86,183 -6,0 -29,-43 -51,-95 z m 86,-12 c 1,-9 -13,-13 -39,-13 h -40 l 16,38 c 9,20 18,44 22,51 4,10 11,2 23,-25 10,-21 18,-45 18,-51 z"
       id="path14"
       style="fill:#ffffff;fill-opacity:1" /><path
       d="m 4180,597 c -3,-3 -3,-42 0,-87 5,-88 13,-100 66,-100 51,0 64,25 62,116 l -1,79 -6,-78 c -5,-62 -10,-82 -25,-93 -11,-8 -25,-14 -31,-14 -6,0 -20,6 -31,14 -15,11 -20,30 -24,91 -3,42 -7,75 -10,72 z"
       id="path15"
       style="fill:#ffffff;fill-opacity:1" /><path
       d="m 4480,504 c 0,-65 3,-93 11,-89 6,4 9,23 7,44 -2,30 0,36 17,39 16,2 26,-8 43,-43 12,-25 26,-45 32,-45 14,0 13,6 -14,48 l -23,37 23,18 c 49,37 20,87 -52,87 h -44 z m 84,73 c 10,-7 17,-22 15,-33 -3,-14 -14,-20 -45,-22 l -40,-3 4,36 c 3,28 8,35 26,35 12,0 30,-6 40,-13 z"
       id="path16"
       style="fill:#ffffff;fill-opacity:1" /><path
       d="m 4801,578 c -5,-13 -23,-54 -40,-91 -34,-76 -35,-77 -23,-77 5,0 14,11 20,25 10,22 18,25 62,25 44,0 52,-3 62,-25 9,-21 28,-35 28,-21 0,14 -81,181 -89,184 -6,2 -15,-7 -20,-20 z m 37,-35 c 5,-16 13,-36 17,-45 6,-16 1,-18 -35,-18 -36,0 -41,2 -35,18 4,9 12,29 17,45 5,15 14,27 18,27 4,0 13,-12 18,-27 z"
       id="path17"
       style="fill:#ffffff;fill-opacity:1" /><path
       d="m 5051,515 c -3,-114 13,-134 19,-25 l 5,85 58,-83 c 31,-45 62,-82 67,-82 6,0 10,40 10,96 0,52 -4,93 -8,90 -4,-2 -7,-36 -7,-75 1,-39 -1,-71 -5,-71 -3,0 -30,34 -59,75 -28,41 -58,75 -65,75 -10,0 -14,-23 -15,-85 z"
       id="path18"
       style="fill:#ffffff;fill-opacity:1" /><path
       d="m 5388,593 32,-4 v -90 c 0,-53 4,-89 10,-89 6,0 10,36 10,89 v 90 l 33,4 c 17,2 -2,4 -43,4 -41,0 -60,-2 -42,-4 z"
       id="path19"
       style="fill:#ffffff;fill-opacity:1" /></g></svg>
