<svg xmlns="http://www.w3.org/2000/svg" width="24" height="24"><path fill="#dd7784" fill-rule="evenodd" d="M10.3 2.2a7.4 7.4 0 0 0-4.73 3.68 6.3 6.3 0 0 0-.75 3.46 6.8 6.8 0 0 0 2.21 4.72c.8.75 1.54 1.18 2.64 1.57.83.3.96.32 2.28.31a5 5 0 0 0 2.17-.26 7 7 0 0 0 3-1.88 6.3 6.3 0 0 0 1.96-5.1 6.2 6.2 0 0 0-2.09-4.61 6 6 0 0 0-1.8-1.33 9 9 0 0 0-1.64-.61 8 8 0 0 0-3.24.05m.4.74A6.7 6.7 0 0 0 6.27 6.3a6.13 6.13 0 0 0 4.31 8.74 6.5 6.5 0 0 0 5.67-1.46c.74-.66 1.5-1.8 1.77-2.67a7 7 0 0 0 .15-3.24 6.4 6.4 0 0 0-7.44-4.73m-.1.28c-.31.1-.32.13-.32.67v.56l-.38-.43c-.36-.4-.4-.42-.7-.31-.38.13-.38.16-.1.96q.23.65.4.63.39.02.13-.56c-.21-.52-.2-.53.24-.1.52.5.75.46.8-.14q.06-.92.3-.2c.11.37.35.53.54.34A5 5 0 0 0 11 3.11zm1.7.67c-.24.38-.43.72-.43.75 0 .1.49.06.56-.05.1-.16.6-.03.84.2.42.43.46.3.29-.79-.1-.56-.15-.7-.33-.74-.42-.11-.52-.05-.93.63m2.17.63c-.49.58-.5.63-.33.76.16.12.22.09.57-.3.21-.24.36-.35.33-.26-.04.1-.1.4-.13.65-.05.45-.04.5.24.7l.3.22.5-.62c.37-.46.48-.65.4-.74-.17-.2-.31-.14-.67.3-.28.35-.33.38-.28.17.23-.99.2-1.17-.24-1.4-.14-.08-.27.02-.7.52m-7.18.73c-.48.52-.5.72-.13 1.07.6.56.82.56 1.33.01.39-.4.43-.65.18-.97-.2-.25-.68-.56-.87-.56-.05 0-.28.2-.5.45m3.57-.21a4.15 4.15 0 0 0-2.95 4.94c.21.85.56 1.4 1.26 2.06.85.78 1.47 1 2.8 1 .98 0 1.1-.01 1.73-.32a4.4 4.4 0 0 0 1.99-1.99c.3-.63.33-.74.33-1.68 0-1.28-.24-1.91-1.02-2.75a4 4 0 0 0-2.85-1.36 5 5 0 0 0-1.3.1m-3.31.44c-.23.25-.21.34.08.62.27.26.47.22.69-.13.08-.12.05-.22-.14-.42-.28-.3-.41-.31-.63-.07m3.5.02A4 4 0 0 0 8.7 7.45c-.3.65-.43 2.45-.16 2.45q.15 0 .1-.15-.07-.15.15-.15.2-.01.21-.14c0-.28.22-.28.5 0 .14.16.35.34.46.4q.43.25-.5.25c-.3 0-.53.05-.5.1q.06.08.25.09c.28 0 .75.26.83.46.1.25-.01.3-.24.1-.19-.18-.2-.18-.1.15.12.42.13.39-.04.39-.08 0-.22-.1-.3-.22-.23-.33-.2-.09.05.3l.2.34.24-.22c.13-.12.3-.2.37-.18q.12.05-.15.22c-.15.1-.27.23-.27.29s.13-.02.29-.17q.28-.26.35-.17.06.1.01.2-.03.09.26 0c.26-.07.37-.04.62.13l.3.21-.21.18c-.27.21-.05.34.23.13q.16-.13.06-.14c-.07 0 0-.15.15-.35.2-.27.31-.34.5-.29.12.03.3.01.4-.05q.25-.13-.11-.05a.6.6 0 0 1-.55-.18q-.22-.2-.13-.14c.22.14.23.03.02-.23-.1-.13-.2-.2-.2-.17-.05.25-.04.34.07.52.1.18.1.25-.02.4-.14.18-.15.18-.34-.05-.1-.12-.17-.27-.14-.32q.03-.08-.1-.09c-.08 0-.2.09-.26.2q-.1.18-.2.2c-.2 0-.6-.44-.6-.66 0-.12-.12-.37-.27-.55-.26-.3-.27-.32-.06-.27.12.03.23.03.25-.01s.22-.03.46.02c.23.04.4.13.37.18-.06.09.62.06 1.38-.06q.27-.04.22.05c-.03.06-.17.1-.31.1-.2 0-.23.02-.12.14s.15.12.29 0c.18-.16 1.39-.2 1.39-.04 0 .1-.52.4-.7.4-.23 0-.8.32-.74.42q.06.08.17-.06c.07-.08.29-.19.49-.24.37-.1.4-.05.2.32-.03.05-.06.22-.07.38-.03.36-.24.6-.47.55q-.17-.04-.12.04c.2.31 1.32-.2 1.99-.92.7-.75 1-1.46 1-2.44a3.5 3.5 0 0 0-2-3.25 4 4 0 0 0-2.48-.3m-.13.4c-.4.23-.45.32-.46.73 0 .17-.1.48-.2.67q-.33.64-.04.54.15-.07.09.16c-.03.12-.02.25.03.29.35.25.44.95.17 1.21-.16.15-.2.15-.4.03a.6.6 0 0 0-.4-.1q-.22.02.16.2c.32.18.36.18.7.02.21-.1.53-.15.72-.12q.52.04-.06.06c-.4.02-.84.24-.68.34.18.11 2.15.18 3.16.12.92-.06 1.08-.1 1.05-.24s-.19-.16-.88-.18c-.47-.02-.96 0-1.1.03-.23.06-.24.07-.05.14q.27.1-.08.1-.27 0-.22-.1c.04-.06-.07-.13-.24-.16-.25-.05-.31-.12-.31-.3q-.01-.28.18-.2.2.05.37-.14c.16-.17.17-.25.07-.4q-.28-.45.13-.6c.28-.1.33-.44.11-.7a1.4 1.4 0 0 1-.21-.5c-.07-.32-.06-.33.1-.17q.15.16.26.11.06-.07-.15-.25c-.3-.23-.3-.36-.01-.6.29-.26.03-.23-.3.03l-.27.21.07-.22c.07-.23.07-.23-.21-.04q-.25.15-.21.07c.07-.12-.13-.24-.41-.24-.1 0-.31.09-.48.2m5.9.14q-.06.13-.21.09-.15-.06-.11.08c.06.2.42.23.57.05.13-.16.07-.36-.1-.36q-.09.01-.15.14m-6.88.25c-.14.16-.22.51-.12.51.23 0 .56-.23.56-.39 0-.26-.25-.33-.44-.12M6.38 7c-.17.1-.52 1.13-.45 1.33.03.1 1.48.5 1.53.44l.08-.24c.06-.17.02-.22-.16-.25s-.22-.08-.2-.28q.06-.44.43-.33c.15.04.19 0 .19-.21 0-.25-.03-.27-.32-.24-.18.02-.37-.02-.43-.08-.15-.18-.48-.24-.67-.13m10.63.15c-.2.15-.22.21-.16.65.06.4.04.49-.09.49-.2 0-.32-.46-.17-.64s.03-.49-.16-.42l-.19.06c-.02 0-.04.2-.04.45 0 .83.37 1.22.86.9.22-.14.24-.2.18-.65q-.07-.51.05-.5c.17 0 .35.52.2.6q-.1.09-.04.29c.05.18.1.2.27.1s.2-.17.15-.61c-.06-.5-.29-.88-.51-.88a1 1 0 0 0-.35.16m-10.6.53c-.1.32-.06.41.2.41.22 0 .36-.5.17-.61-.2-.14-.25-.1-.36.2m1.6 4.83c-.39.47-.49.65-.4.75.14.18.35.16.42-.03.05-.14.11-.13.4.1.44.33.7.33.95 0 .28-.36.27-.45-.12-.8-.79-.72-.68-.72-1.25-.02m6.91-.3c-.23.22-.25.13.26 1.32.18.4.24.46.36.36a.5.5 0 0 0 .15-.35c0-.28.3-.55.62-.55.14 0 .3-.06.37-.14.1-.11-.03-.2-.65-.5-.42-.2-.8-.36-.83-.36-.04 0-.16.1-.28.21m-6.44.45c-.11.14-.1.19.11.34.22.17.27.17.4.05.12-.12.11-.17-.05-.35-.22-.24-.29-.25-.46-.04m5.01.41c-.75.29-.77.3-.63.44.09.09.2.08.44 0 .18-.06.34-.1.36-.08s-.08.29-.22.6c-.38.81-.29.91.53.6.77-.28.84-.33.73-.5-.06-.1-.15-.1-.45.02-.21.1-.4.15-.42.13a2 2 0 0 1 .21-.57c.42-.9.36-.98-.55-.64m-3.68.67-.3.74.23.1c.21.1.24.06.49-.57.14-.36.26-.72.26-.78 0-.09-.21-.23-.35-.23-.01 0-.16.33-.33.74m1.13-.34q-.15.26.47.32l.37.03-.49.4c-.78.63-.64.85.53.85.43 0 .57-.04.57-.14q0-.15-.47-.22l-.46-.07.51-.44c.63-.54.67-.73.14-.73-.2 0-.53-.03-.73-.06q-.36-.06-.44.06"/></svg>