<svg xmlns="http://www.w3.org/2000/svg" width="24" height="24"><path fill-rule="evenodd" d="M4.16 6.96c-.09.08-.16.2-.16.24q0 .09-.06.24-.09.17.2.16c.31 0 .32.1.08 1.2l-.17.75-.5.05c-.42.04-.5.08-.53.28s0 .22.57.22c.52 0 .62-.03.8-.25.1-.14.22-.42.25-.62.18-.99.37-.99 1.1.01.31.41.64.77.73.8.1.03 2.07.05 4.38.05h4.68c.47.01.48.02.45.29l-.03.27-1.32.03-1.33.03v.49h1.38c1.55 0 1.67-.05 1.81-.72l.07-.33 1.9-.05c1.04-.03 1.94-.08 2-.13.07-.04.17-.3.24-.6.1-.48.1-.53-.1-.7q-.23-.16-.71-.17c-.42 0-.49-.03-.49-.2s.07-.2.74-.2c.73 0 .86-.06.86-.4 0-.06-.4-.1-.89-.1-1.05 0-1.15.07-1.16.84v.51l.63.03c.62.03.63.03.6.3l-.03.27-1.72.03a9 9 0 0 1-1.73-.06l.19-.95.19-.87h-.27c-.27 0-.28.03-.4.73-.2 1.12-.24 1.17-.7 1.17-.38 0-.4-.02-.36-.22.3-1.33.35-1.6.35-1.64q-.02-.04-.24-.04c-.27 0-.27-.01-.5 1.13l-.17.77h-.6c-.52 0-.59-.02-.59-.2s.35-1.92.47-2.33c.04-.15 0-.18-.24-.15-.22.02-.29.09-.33.33-.05.3-.06.3-.77.35-.4.03-.77.1-.82.15a3 3 0 0 0-.25.88c-.08.43-.18.82-.21.87s-.35.1-.7.1c-.74 0-.73.02-.5-.95.2-.84.2-.95-.08-.95-.22 0-.25.08-.43.92l-.19.93-.43.03c-.48.04-.48.06-.27-.88.2-.91.2-1-.1-1-.21 0-.24.06-.36.73-.2 1.21-.17 1.17-1.03 1.17h-.74l-.36-.49c-.2-.27-.36-.51-.36-.55 0-.03.15-.06.34-.06.42 0 .52-.13.67-.79.1-.46.09-.55-.07-.72-.15-.17-.31-.19-1.35-.19-.94 0-1.2.03-1.33.16m13.77.37c-.08.37-.07.42.1.45.26.05.34-.06.42-.5.07-.36.06-.38-.18-.38-.22 0-.27.06-.34.42M4.2 7.2q-.1.18-.01.2.09-.01.15-.15c.05-.13.25-.15 1.18-.13l1.13.03-.03.35c-.07.66-.13.7-1.09.7h-.86l.06-.35c.03-.2.02-.33-.03-.3-.04.03-.16.47-.25.97-.22 1.21-.25 1.26-.83 1.31-.44.04-.44.04.08.03.53-.01.55-.02.66-.36.07-.2.16-.52.19-.73.12-.72.64-.62 1.24.23.23.33.49.66.57.74.12.13.64.15 3.37.13 1.77 0 3-.03 2.72-.05a2 2 0 0 1-.57-.1 5 5 0 0 1 .22-1.6c.09-.2.17-.22.75-.22.75 0 .74-.02.5.98S13.14 9.9 14.7 9.9c.71 0 1.34.02 1.4.06.14.09.13.58-.03.78-.1.14-.34.17-1.37.2l-1.25.03 1.32.02c1.48.02 1.44.04 1.58-.72l.08-.39.66.07c.36.03 1.24.03 1.94 0 1.42-.08 1.43-.08 1.49-.8l.03-.39-.68-.03c-.71-.03-.75-.07-.6-.6.05-.19.13-.22.82-.25l.76-.03-.76-.02c-.83-.02-.92.03-1.02.54-.08.43.07.54.75.54.56 0 .58.01.58.26 0 .14-.05.34-.1.45-.1.18-.23.19-1.95.19-1.52 0-1.85-.03-1.85-.14 0-.08.07-.48.16-.9s.14-.82.11-.89c-.02-.06-.1.15-.16.48-.07.33-.17.78-.24 1-.12.39-.13.4-.61.43-.3.02-.52-.01-.56-.08-.06-.1.03-.73.26-1.7q.05-.25-.04-.15a4 4 0 0 0-.26.9 4 4 0 0 1-.27.92c-.17.2-1.38.18-1.46-.03-.03-.09.05-.7.19-1.35.13-.65.21-1.19.17-1.19s-.1.15-.15.33c-.1.32-.1.32-.82.35-.83.03-.84.04-1.01 1.07-.07.38-.17.75-.23.82-.16.2-1.57.18-1.64-.01-.03-.08.01-.5.1-.91.18-.86.2-1.07.07-.85-.05.08-.14.46-.21.85-.18 1-.22 1.05-.8 1.05q-.49 0-.56-.13c-.02-.07.02-.46.1-.86q.25-1.14.1-.98a5 5 0 0 0-.2.83C8.3 9.81 8.32 9.8 7.41 9.8c-.42 0-.82-.04-.88-.08a4 4 0 0 1-.89-1.32c.03-.06.24-.1.45-.1.46 0 .6-.19.63-.83l.02-.42-1.22-.03C4.39 7 4.3 7.01 4.2 7.2m.8.23c0 .06-.03.22-.06.35-.06.23-.05.23.67.2l.73-.03.07-.33.06-.32h-.73c-.53 0-.74.04-.74.13m7.27.75c-.02.04-.07.25-.11.47l-.12.67c-.05.25-.04.26.5.3l.54.03.05-.45c.03-.25.09-.6.13-.77l.07-.33h-.51c-.28 0-.53.03-.55.08m-3.83 2.67c-.04.09-.02.21.04.27.15.15.44.01.4-.2s-.36-.28-.44-.07"/></svg>