<svg xmlns="http://www.w3.org/2000/svg" width="24" height="24"><path fill="#1163a5" fill-rule="evenodd" d="M4.35 7.24q-.93.42-.95 1.77c0 .28-.05.38-.2.42-.17.04-.2.14-.2.71v.66h.44q1.18 0 1.33-1.64c.04-.47.1-.66.22-.69.16-.04.17-.18.12-1.1q0-.46-.76-.13M5.47 9.4c-.1.55-.17 1.05-.17 1.1s.16.11.35.11c.3 0 .36-.04.4-.27.22-.93.2-.92.34-.3l.13.58.4-.03c.38-.03.44-.07.72-.55.42-.7.44-.7.35-.16l-.08.6c-.01.2 1.45.18 1.53-.02.04-.11.21-.15.66-.15.47 0 .6.03.6.15s.15.15.79.15c.83 0 .91-.05.91-.5 0-.16.07-.2.35-.2.33 0 .35.02.35.35s.02.35.35.35c.31 0 .35-.03.4-.34a1 1 0 0 0-.03-.52q-.1-.16.1-.36t.13-.46c-.1-.43-.31-.52-1.26-.52h-.87l-.07.43c-.1.67-.26 1.47-.3 1.47a9 9 0 0 1-.36-.95l-.33-.96-.5.03-.5.03-.55.88c-.3.48-.55.86-.57.84s0-.3.06-.63c.06-.32.1-.72.1-.87 0-.28 0-.28-.57-.25l-.56.03-.31.57c-.17.32-.34.58-.37.58-.04 0-.13-.26-.2-.57l-.15-.58-.55-.03-.56-.03zm8.8-.81c-.03.1-.1.5-.17.92-.06.41-.14.83-.16.93-.05.14.01.17.34.17.4 0 .4 0 .47-.46l.06-.45.35.46.35.46 1.42-.03c1.39-.03 1.42-.04 1.45-.25.03-.22 0-.23-.52-.23-.42 0-.56-.04-.56-.14q-.02-.15.52-.18c.5-.03.53-.05.56-.3.03-.27.02-.28-.47-.28-.28 0-.51-.04-.51-.1 0-.1.92-.17 1.56-.12l.4.03-.08.57c-.04.31-.1.67-.13.8-.05.2-.02.22.34.22h.39l.11-.63c.06-.35.11-.7.11-.8 0-.12.11-.17.43-.19.38-.03.42-.06.45-.3l.03-.28h-2.1c-1.91 0-2.1.02-2.15.18l-.17.95c-.06.42-.15.77-.19.77-.1 0-.6-.73-.6-.86 0-.05.18-.28.4-.49a2 2 0 0 0 .4-.47c0-.04-.16-.08-.36-.08-.28 0-.48.1-.85.41l-.5.41.07-.4.07-.42h-.36q-.37 0-.4.18m-1.67.52v.17c0 .04.12.07.27.07q.28 0 .31-.17.06-.18-.27-.17c-.17 0-.31.04-.31.1"/></svg>