<svg xmlns="http://www.w3.org/2000/svg" width="24" height="24"><path fill="#443327" fill-rule="evenodd" d="M3.23 7.35c-.13.09-.23.24-.23.34 0 .23.75 1.08 1.24 1.42.2.13.43.41.53.62.2.44.64.82 1.08.93l.3.07-.28-.33c-.15-.18-.26-.34-.23-.37s.31.07.65.22c.7.29 1.71.55 2.17.55a1 1 0 0 0 .55-.2l.24-.18-.2-.37c-.2-.37-1.04-1.2-1.13-1.1-.03.02.14.25.37.5.82.9.4 1.26-1.04.9-2.12-.53-4.6-2.53-3.5-2.81a4 4 0 0 1 1.43.1c.03.03-.07.2-.22.36-.35.42-.33.72.05 1.04.4.34.49.33.49-.04 0-.42.21-.9.6-1.33l.32-.37-.34.06c-.18.04-.4.1-.47.14s-.33.01-.57-.06c-.78-.23-1.56-.27-1.81-.1m6.73.27c-.2.16-.26.29-.26.63 0 .37.06.47.5.91.28.27.5.58.5.68 0 .27-.34.17-.38-.1-.03-.18-.1-.23-.33-.23q-.52-.02-.3.54c.22.56 1.13.67 1.51.18.34-.42.26-.77-.3-1.37-.3-.32-.5-.6-.48-.71.05-.25.22-.23.26.04.03.18.1.22.39.22.35 0 .35 0 .3-.32-.13-.65-.87-.9-1.4-.47m1.98.01L11.7 8.9l-.25 1.38c-.05.2-.01.22.3.22.4 0 .38.03.55-1.3.05-.45.12-.85.14-.87s.06.25.1.6c.18 1.66.15 1.57.52 1.57.2 0 .34-.05.34-.12s-.11-.73-.25-1.47l-.25-1.38c0-.1-.91-.01-.95.1m1.15.12c0 .2.05.25.25.25h.25v2.5h.7V9.25c0-1.18.01-1.25.2-1.25q.21.01.2-.25c0-.25-.01-.25-.8-.25s-.8 0-.8.25m1.8 1c0 .7.05 1.35.1 1.45s.27.24.47.3c.3.08.44.06.73-.08l.35-.17.03-1.37.03-1.38H16v1.1c0 1.17-.04 1.4-.26 1.4-.11 0-.14-.25-.14-1.25V7.5h-.7zm2 .24v1.5h.7V9.24c0-1.14.02-1.25.18-1.22.23.04.28.6.07.81-.14.15-.14.23.03.89.18.73.18.73.54.76l.36.03-.2-.63c-.18-.6-.18-.65-.02-1 .2-.46.12-1.01-.19-1.23q-.23-.15-.84-.15h-.63zm2.02-.03.03 1.48.33.03.32.03.01-.98v-.98l.26.97.25.98H21v-3h-.73l.06.97q.1 1.66-.28-.14l-.18-.83h-.98z"/></svg>