<svg xmlns="http://www.w3.org/2000/svg" width="24" height="24"><path fill="#2290a1" fill-rule="evenodd" d="M13.86 6.77a.3.3 0 0 1-.2.08c-.2 0-.77.48-1.6 1.33-.38.4-.72.72-.76.72-.03 0-.05-.17-.05-.37 0-.3-.05-.4-.25-.5q-.24-.12-.34-.03c-.06.06-.22.1-.36.1h-.27l-.06 1.37c-.06 1.19-.05 1.39.1 1.55.23.26.5.22.67-.1.13-.26 1.03-1.5 1.16-1.62.07-.06 1.52-1.76 1.89-2.22.13-.16.21-.31.19-.34q-.05-.02-.12.03m-9.51 1.3c-.37.1-.73.43-.85.79q-.25.71.68.97c.35.1.47.2.47.33 0 .27-.47.3-.95.06l-.38-.18-.16.33c-.09.19-.16.36-.16.39 0 .14.75.34 1.26.34.64 0 1.03-.19 1.28-.6.35-.6.08-1.08-.75-1.3q-.64-.17-.2-.4c.15-.07.31-.06.6.04.41.14.42.14.57-.15.19-.37.14-.44-.4-.58a1.7 1.7 0 0 0-1.01-.04m2.91.03c-.38.12-.85.57-1.02.97-.28.64-.15 1.6.25 1.9.26.2 1 .15 1.4-.09.29-.18.34-.2.28-.05s0 .17.43.17c.28 0 .5-.01.5-.02l.5-2.85c0-.02-.2-.03-.46-.03-.38 0-.47.04-.51.2l-.06.21-.21-.2c-.26-.25-.7-.33-1.1-.21m6.4.04c-.77.29-1.26.97-1.26 1.78q0 1.18 1.48 1.18c.45 0 .67-.05.92-.22.46-.31.48-.46.08-.62-.28-.12-.35-.12-.48-.01-.29.26-.67.28-.9.06-.42-.43-.3-.5.93-.53l1.12-.03.03-.31c.04-.42-.2-.99-.52-1.2a1.7 1.7 0 0 0-1.4-.1m5.8-.07c-.37.1-.69.37-.83.7q-.32.75.62 1.05.52.15.5.35c0 .26-.47.29-.95.05l-.38-.18-.16.33c-.2.43-.21.4.13.58.38.2 1.34.2 1.75 0 .36-.17.66-.61.66-.98 0-.31-.38-.63-.91-.77q-.64-.17-.2-.4c.15-.07.31-.06.6.04.41.14.42.14.57-.15.19-.37.14-.44-.4-.58a1.7 1.7 0 0 0-1-.04m-3.3.25a69 69 0 0 0-.46 2.6c0 .04.22.08.5.08.54 0 .52.03.7-.94.13-.75.4-1.06.9-1.06.34 0 .4-.04.49-.31.18-.51.14-.59-.23-.59q-.35 0-.66.27l-.32.26.04-.24c.03-.22 0-.24-.44-.27-.42-.03-.48 0-.52.2m-2.5.56c-.25.28-.2.32.39.32q.56 0 .55-.13c0-.37-.65-.5-.93-.19m-6.26.28c-.27.35-.28.9-.02 1.04q.47.25.86-.15c.27-.26.34-.82.13-1.03s-.75-.14-.97.14"/></svg>