<svg xmlns="http://www.w3.org/2000/svg" width="24" height="24"><path fill="#1b1b1b" fill-rule="evenodd" d="M10 8.95v2.35h.88l.04-1.11c.03-1.08.04-1.12.32-1.36.22-.18.35-.23.55-.18.55.14.61.28.61 1.52v1.13h.9V8.61l-.3-.36a1.5 1.5 0 0 0-1.56-.46l-.48.11c-.03 0-.06-.3-.06-.65V6.6H10zm7.7 0v2.35h.9v-1.09c0-1.29.12-1.55.74-1.55.61 0 .7.18.74 1.5l.04 1.14H21v-1.2c0-1.4-.12-1.8-.62-2.1q-.72-.45-1.39-.17l-.39.15V6.6h-.9zM4.45 7.75l-.37.1c-.42.09-.95.6-1.02 1-.1.46.15 1 .56 1.25.49.3.71.26.9-.15.15-.3.2-.33.4-.26.49.18.5.63 0 .82q-.38.15-1.4-.16c-.18-.06-.24-.02-.36.26-.18.42-.1.53.49.68a3 3 0 0 0 1.82-.08c1.08-.5 1.05-1.81-.07-2.28-.37-.16-.43-.12-.76.43-.1.16-.15.17-.37.07-.34-.16-.37-.57-.06-.74a3 3 0 0 1 1.45.06c.19.06.24.01.34-.3.15-.44.1-.49-.63-.65-.48-.1-.73-.11-.92-.05m3.36.1q-1.24.4-1.24 1.77c0 1.05.75 1.77 1.85 1.78.42 0 1.28-.25 1.28-.36 0-.03-.07-.2-.15-.4-.12-.28-.19-.35-.32-.29-.1.04-.4.1-.65.12-.42.05-.5.02-.78-.25-.77-.77.1-1.92 1.13-1.48.37.15.37.15.52-.14.21-.4.19-.55-.11-.69a2.3 2.3 0 0 0-1.53-.07m6.06.03c-.1.1-.08 1.83.04 2.33.17.77.76 1.2 1.61 1.2a1.6 1.6 0 0 0 1.35-.69c.21-.3.23-.46.23-1.62V7.8h-.88L16.18 9c-.03 1.07-.05 1.23-.22 1.36-.28.2-.73.17-.96-.06-.18-.18-.2-.33-.2-1.35V7.8h-.43c-.24 0-.47.03-.5.07"/></svg>