<svg xmlns="http://www.w3.org/2000/svg" width="24" height="24"><path fill="#3a5390" fill-rule="evenodd" d="M3.19 7.28c-.28.2-.23.51.16 1.12.19.3.35.58.35.63 0 .04-.16.07-.35.07-.37 0-.4.05-.29.59l.06.31h.84c.77 0 .85-.02 1-.24.14-.23.13-.28-.2-.95L4.4 8.1h.31c.3 0 .31-.02.25-.31l-.06-.44c0-.2-1.46-.25-1.71-.07m2.52 0c-.88.42-.76 1.82.2 2.45.54.34.96.36 1.09.03.2-.51.17-.6-.17-.66-.37-.06-.73-.33-.73-.54 0-.36.12-.46.57-.46h.46l-.07-.42a2 2 0 0 0-.12-.5c-.09-.14-.87-.08-1.23.1M10.2 8.5c0 .77-.04 1.4-.08 1.4-.11 0-.46-.39-.6-.66-.1-.17-.08-.25.07-.38.46-.41.5-1.07.1-1.46-.16-.17-.33-.2-1.24-.2H7.4l-.06.28-.1.4q-.01.1.06.17c.06.04.1.49.1 1V10h1V8.95l.19.4c.1.22.4.64.67.94l.5.54.55-.25.54-.25-.3-.16c-.3-.16-.28-.16.72-.17h1.01l.11-.31c.2-.56.16-.59-.52-.6q-.69-.02-.2-.06c.37-.04.41-.07.52-.42l.11-.44c0-.03-.24-.08-.53-.1l-.52-.03.62-.02.62-.02-.13-.42-.12-.43-1.02-.03-1.02-.03zm2.67-1.3c-.4.02-.47.05-.43.2.03.08.15.54.26 1.01.44 1.79.33 1.6.94 1.6h.53l.08-.42.07-.43.12.35.13.34.2-.85c.12-.47.19-.98.16-1.14-.1-.73-.09-.7-.57-.67-.44.04-.46.05-.56.46l-.14.51c-.02.05-.06-.1-.1-.35-.11-.62-.15-.65-.69-.62m2.42.13q-.06.17-.02.23c.03.03.46.06.95.06.72 0 .88-.03.88-.15l.02-.2c.02-.04-.37-.07-.85-.08-.73-.02-.9 0-.98.14m2.37-.12c-.02.03-.18.6-.35 1.26l-.37 1.38c-.04.13 0 .17.25.17.24 0 .31-.05.4-.32.1-.34.61-2.33.61-2.41 0-.07-.5-.15-.54-.08m.94.05c0 .09.11.4.25.71l.24.56-.66.72-.66.72.34.03c.3.03.39-.02.76-.45.23-.26.43-.46.45-.43l.23.48c.15.35.23.42.47.42.34 0 .34-.04.03-.72-.14-.29-.25-.58-.25-.64s.27-.4.6-.77c.33-.36.6-.68.6-.71s-.12-.06-.27-.06c-.2 0-.42.14-.75.47-.26.26-.5.45-.51.42l-.2-.44c-.11-.3-.2-.4-.4-.43q-.29-.04-.27.12m-3.44.62c-.11.3-.06.34.38.34q.45 0 .5-.16c.11-.3.06-.34-.38-.34q-.45 0-.5.16M8.4 8.4c0 .3 0 .3.22.17.13-.09.23-.22.23-.3q-.02-.12-.22-.16c-.2-.03-.23.01-.23.29m6.64-.02c-.02.02-.04.13-.04.23 0 .17.07.19.83.16.77-.03.82-.04.85-.26s.02-.22-.78-.2c-.45.02-.83.05-.86.07m-.17.8-.13.55c-.06.25-.05.26.4.26.48 0 .49 0 .62-.72l.06-.38h-.45c-.41 0-.45.02-.5.29"/></svg>