<svg xmlns="http://www.w3.org/2000/svg" width="24" height="24" viewBox="0 0 24 24"><path fill="#23191a" fill-rule="evenodd" d="M5.2 7.46c-1.15.75-2.17 1.9-2.14 2.39.03.58 0 .55.4.39s.4-.17.52.16l.1.25.15-.3a8 8 0 0 1 1.8-1.74c.2-.12.42-.31.47-.42q.22-.37-.33.03l-.31.23.27-.36c.36-.48.34-.55-.1-.29l-.38.22L6 7.7q.37-.32.17-.31-.16-.01-.17-.13-.01-.33-.8.19m-2.1.47v.72l.25-.32c.14-.18.47-.5.73-.72l.47-.4H3.1zm4.55-.5c-.4.34-.45.94-.11 1.43.27.4.34.88.14 1q-.12.09-.05-.3c.06-.37.06-.37-.26-.34-.27.03-.33.08-.4.41q-.17.75.6.77c.47 0 .8-.35.88-.93.06-.41.04-.5-.19-.78C8 8.4 7.9 7.7 8.1 7.7q.1.01.04.35c-.06.34-.05.35.24.35.32 0 .42-.17.42-.72 0-.5-.7-.65-1.15-.25m2.92.07c-.04.16 0 .2.23.2q.3 0 .33-.2c.04-.16 0-.2-.23-.2q-.3 0-.33.2m8 0c-.04.16 0 .2.23.2.16 0 .3-.07.34-.16.09-.23.08-.24-.23-.24q-.29 0-.34.2m-9.22.4c-.31.12-.4.29-.6 1.06-.23.97-.18 1.28.19 1.32.6.07.96-.22.96-.78 0-.33-.4-.25-.53.1-.06.17-.15.3-.2.3q-.07-.01-.03-.16c.03-.09.06-.24.06-.35 0-.15.07-.19.4-.19.41 0 .43-.02.55-.71.06-.31.03-.4-.16-.53-.26-.18-.34-.19-.64-.06m1.93.08a6 6 0 0 0-.48 1.85c0 .17.05.19.33.14.32-.05.34-.04.3.19-.07.31-.23.42-.23.15 0-.28-.46-.3-.55-.02-.13.43.2.68.75.56.43-.1.46-.18 1.05-2.73.05-.22.03-.23-.3-.2-.18.01-.37 0-.41-.05q-.2-.18-.46.1m2.18-.1c-.03.04-.23.06-.44.05l-.37-.03-.24 1.08-.28 1.2q-.05.13.24.13c.3 0 .3-.01.53-1 .12-.55.26-1 .31-1q.08.02.04.22l-.24 1-.18.78h.28c.27 0 .28-.02.55-1.16.23-.98.25-1.17.13-1.25-.17-.1-.24-.11-.33-.02m.92.08q-.26.16-.37.53c-.2.72-.33 1.51-.28 1.67.07.17.68.2.97.05.2-.1.43-.67.34-.81-.12-.2-.44-.08-.58.23q-.16.4-.15.11c-.02-.4.1-.53.44-.53.4 0 .43-.04.52-.66.05-.39.03-.5-.12-.6-.24-.18-.43-.17-.77.01m3.48-.08c-.03.04-.23.06-.44.05l-.38-.03-.22.98-.28 1.2c-.06.2-.03.23.23.23.3 0 .3-.01.52-1 .12-.55.27-1 .32-1q.1.02.05.17c-.2.7-.2.73.1.73.28 0 .3-.03.43-.61.1-.51.1-.63 0-.7-.17-.1-.24-.11-.33-.02m1.62.09c-.28.15-.33.28-.59 1.46-.15.7-.04.88.5.88.44 0 .66-.2.76-.68.06-.3.05-.32-.2-.32-.2 0-.28.07-.37.3-.13.39-.22.32-.13-.1.06-.26.1-.3.4-.3.4 0 .43-.04.52-.66.05-.39.03-.5-.12-.6-.24-.18-.43-.17-.77.02m-9.01.02c-.03.04-.14.52-.26 1.07l-.26 1.13q-.04.12.24.12c.29 0 .3-.01.55-1.12l.26-1.2c0-.05-.11-.08-.24-.08-.14 0-.27.03-.3.08m4.96.85c-.34 1.51-.36 1.45.36 1.46h.59l.22-.97.27-1.2c.06-.2.03-.22-.23-.22-.29 0-.3.01-.47.89-.18.9-.36 1.36-.36.96 0-.18.23-1.26.36-1.67.04-.14 0-.18-.24-.18-.3 0-.3.01-.5.93m3.07-.9-.28 1.2-.28 1.17h.29q.29.01.33-.22c.32-1.43.45-2 .45-2.08s-.48-.15-.5-.07m-6.84.48c-.07.17-.25 1-.26 1.12q.01.08.08.03a3 3 0 0 0 .28-1.23q-.06-.04-.1.08m-6.1 1.23c-.31.3-.56.6-.56.65 0 .07.25.11.65.11h.65v-.65c0-.36-.04-.65-.1-.65-.05 0-.34.24-.65.54"/></svg>