<svg xmlns="http://www.w3.org/2000/svg" width="24" height="24" viewBox="0 0 24 24"><path fill="#6e7098" fill-rule="evenodd" d="M11.02 2.26c-.18.14-.4.4-.48.56-.15.29-.15.31.1.57.14.15.26.32.26.39 0 .06.16.23.35.38.4.3.52.74.14.52-.17-.1-.22-.1-.32.03a1 1 0 0 1-.29.21c-.1.04-.19.24-.23.5a1 1 0 0 1-.31.6c-.13.11-.36.4-.52.66-.26.46-.27.51-.27 1.97 0 1.26.03 1.5.15 1.5q.15.02.15-.42v-.42l.32.34c.18.19.45.4.61.5.29.14.3.15.2.6q-.15.77.27.61c.13-.05.15-.14.1-.5l-.07-.46h.52a2.4 2.4 0 0 0 1.76-.63l.44-.39.09.24c.15.38.22.03.24-1.23.02-1.3-.08-1.62-.74-2.26-.21-.21-.39-.46-.39-.56q-.02-.17-.15-.23-.12-.07-.1-.15c.09-.13-.27-.58-.45-.59a.4.4 0 0 0-.28.12q-.13.16-.12-.2 0-.32.2-.44c.12-.07.3-.27.4-.44.18-.28.18-.35.07-.58-.17-.32-1-1.06-1.19-1.06-.07 0-.28.12-.46.26m-1.2 8.07c-.08.42-.08.55.04.67.24.25.37-.01.3-.6-.05-.27-.11-.52-.16-.55-.04-.02-.12.19-.18.48m4.1.1c-.13.5-.1.67.14.67.15 0 .18-.45.05-.9-.06-.22-.08-.2-.2.23m-6.18 1.6a.6.6 0 0 0-.28.28c-.07.2.1.59.25.59.17 0 .4.3.33.46-.05.12-.15.15-.45.11-.33-.04-.39-.03-.36.11.04.2.67.28.98.12.33-.18.27-.7-.11-1.01-.38-.3-.31-.53.13-.47.32.05.48-.1.27-.23-.18-.11-.49-.1-.76.03m1.01.56-.15.62c-.12.48-.11.6.05.6.07 0 .17-.15.22-.32.07-.25.16-.34.36-.36.26-.03.27-.01.21.32-.04.28-.02.36.1.36q.14.02.3-.72c.09-.4.14-.74.12-.77-.11-.1-.35.12-.35.34 0 .21-.05.25-.3.25-.3 0-.31-.02-.25-.3.05-.23.03-.3-.09-.3q-.15.02-.22.28m1.36.24-.16.75c-.06.21-.03.23.4.23.34 0 .46-.04.46-.15q-.01-.15-.26-.15c-.36 0-.29-.34.09-.38.34-.04.36-.22.01-.22s-.26-.23.11-.3c.49-.09.43-.3-.08-.3h-.45zm1.07.2c-.08.4-.14.74-.12.77.11.1.35-.12.35-.34 0-.35.27-.32.35.05.04.17.13.3.22.3.12 0 .14-.07.08-.36-.05-.27-.02-.4.11-.56.26-.28.07-.52-.43-.56l-.4-.03zm1.27-.26c.03.26.06.6.06.75 0 .49.32.37.62-.23l.27-.53v.53c0 .43.04.52.19.52q.18.01.55-.76c.31-.63.35-.75.2-.72-.1.02-.27.23-.39.47-.2.42-.21.43-.27.2a2 2 0 0 1-.07-.46q0-.24-.19-.23t-.38.47l-.2.48-.07-.47q-.07-.5-.23-.48c-.13 0-.15.08-.1.46m2.07.12-.17.75q-.06.2.13.15c.3-.05.58-1.48.3-1.48q-.14 0-.26.57m.64-.3-.15.63c-.12.48-.11.6.06.6q.14-.01.2-.37c.09-.44.24-.78.25-.53 0 .08.05.32.1.53.13.46.46.52.56.1l.15-.63c.12-.49.11-.6-.06-.6q-.15 0-.21.4-.14.84-.33.05c-.09-.34-.16-.45-.3-.45q-.21 0-.27.28m-8.04 1.9c0 .16.03.57.06.91.06.55.1.62.28.59.15-.02.28-.2.47-.66.26-.63.26-.63.33-.32.03.18.06.48.06.66 0 .27.04.34.2.34.2 0 .3-.18.86-1.47.13-.3.13-.33-.04-.33-.13 0-.27.2-.5.68l-.3.67-.01-.68c0-.63-.02-.67-.24-.67-.18 0-.27.12-.47.63l-.25.62-.03-.4c-.04-.62-.11-.85-.27-.85q-.15 0-.15.29m2.35.24c-.3 1.29-.29 1.27-.1 1.27q.14-.02.2-.22c.3-1.3.29-1.28.1-1.28q-.14.02-.2.23m.55.02c-.05.13-.12.47-.16.75l-.07.5h.42c.3 0 .41-.04.41-.15q-.01-.15-.26-.15c-.22 0-.25-.04-.2-.22q.23-1 .07-.98c-.06 0-.16.11-.2.25m.89.33-.17.75c-.04.16 0 .18.36.15.45-.03.6-.21.23-.26-.25-.04-.25-.16-.05-1q.05-.22-.1-.22-.15-.02-.27.58m1.05-.46c-.05.18-.25 1.17-.25 1.28q.01.1.14.1c.12 0 .36-.85.36-1.32 0-.2-.18-.25-.25-.05m.58.6c-.25.43-.37.74-.3.76.05.02.16-.04.22-.13.16-.2.75-.22.75-.01q.01.13.15.15c.16 0 .16-.06-.04-1.1-.11-.57-.32-.48-.78.32m1.27-.15-.16.76q-.04.16.09.17.13-.02.3-.52l.15-.53v.53c.02.44.05.53.19.5.09-.02.26-.22.38-.45q.41-.85.24-.16c-.12.52-.11.63.05.63q.13-.02.25-.57c.16-.8.14-.93-.1-.93q-.19 0-.41.45c-.12.25-.25.45-.3.45s-.08-.2-.1-.42c-.02-.35-.07-.44-.25-.46-.19-.03-.23.04-.33.55m1.92-.45c-.19.19-.14.54.1.7.3.2.18.53-.17.44q-.26-.08-.25.09c0 .19.6.21.78.03.19-.19.14-.56-.08-.7-.28-.18-.25-.38.05-.38q.24 0 .25-.15c0-.18-.5-.2-.68-.03"/></svg>