<?xml version="1.0" encoding="UTF-8" standalone="no"?>
<svg
   viewBox="0 0 18.040001 21.999998"
   width="18.040001pt"
   height="21.999998pt"
   version="1.1"
   id="svg1"
   sodipodi:docname="pink_master_pin.svg"
   xml:space="preserve"
   xmlns:inkscape="http://www.inkscape.org/namespaces/inkscape"
   xmlns:sodipodi="http://sodipodi.sourceforge.net/DTD/sodipodi-0.dtd"
   xmlns="http://www.w3.org/2000/svg"
   xmlns:svg="http://www.w3.org/2000/svg"><defs
     id="defs1" /><sodipodi:namedview
     id="namedview1"
     pagecolor="#ffffff"
     bordercolor="#000000"
     borderopacity="0.25"
     inkscape:showpageshadow="2"
     inkscape:pageopacity="0.0"
     inkscape:pagecheckerboard="0"
     inkscape:deskcolor="#d1d1d1"
     inkscape:document-units="pt"><inkscape:page
       x="0"
       y="0"
       width="18.040001"
       height="21.999998"
       id="page2"
       margin="0"
       bleed="0" /></sodipodi:namedview><g
     id="g1"
     transform="matrix(0.00444191,0,0,0.00444191,0.81153522,5.9340439)"><path
       d="m 0,0 c 1.8910588,-0.00709108 3.7821071,-0.01767805 5.6731294,-0.03140372 5.1350676,-0.02729004 10.2688696,-0.0054695 15.4038736,0.02526528 5.560948,0.02445783 11.121749,0.00237385 16.682702,-0.01360643 10.86678,-0.02391404 21.733082,-0.0052805 32.59982,0.02837618 12.664137,0.03776721 25.328164,0.03426834 37.992345,0.02956076 23.27578,-0.007074 46.5513,0.02867391 69.82699,0.08419252 21.23067,0.0504163 42.46111,0.0682121 63.69184,0.0566468 1.36481,-7.3328e-4 2.72962,-0.001466 4.09443,-0.002198 0.67475,-3.6234e-4 1.3495,-7.2468e-4 2.0447,-0.001098 3.39691,-0.001808 6.79382,-0.003546 10.19073,-0.005208 1.00533,-4.9631e-4 1.00533,-4.9631e-4 2.03098,-0.001003 17.77089,-0.008348 35.54176,0.007271 53.31263,0.0303518 1.26326,0.001638 2.52653,0.003276 3.82807,0.004964 2.53693,0.003291 5.07386,0.006612 7.6108,0.009966 8.82411,0.0107673 17.64818,0.0110524 26.4723,0.007703 10.7481,-0.003562 21.49598,0.0113643 32.24401,0.0495599 5.48184,0.0190925 10.96338,0.0303145 16.44525,0.0199191 5.01954,-0.009259 10.03847,0.00464 15.05792,0.0369007 1.81382,0.007656 3.62769,0.00695 5.4415,-0.003053 11.14225,-0.0556526 19.88395,0.53355279 28.58947,8.21281491 0.73992,0.8726953 1.47984,1.7453902 2.24219,2.6445312 0.82242,0.953906 1.64484,1.907812 2.49218,2.890625 2.87241,3.522233 5.68387,7.085018 8.39844,10.730469 2.69104,2.971798 4.20641,4.63139 7.98438,6.191406 4.466,-0.718515 8.58065,-2.310976 12.8125,-3.875 2.53173,-0.873041 5.06469,-1.739929 7.60156,-2.597656 0.63929,-0.218411 1.27858,-0.436821 1.93724,-0.66185 25.92816,-8.77891 53.44001,-12.245246 80.6487,-13.8654939 0.96599,-0.057847 1.93198,-0.1156934 2.92724,-0.175293 6.35527,-0.3649217 12.70991,-0.6350858 19.07276,-0.824707 0.74218,-0.023364 1.48435,-0.046729 2.24902,-0.070801 44.62769,-1.2064277 87.47688,6.9214209 129.99976,19.8327639 0.68596,0.208274 1.37193,0.416548 2.07869,0.631134 1.84762,0.563475 3.6935,1.132703 5.53923,1.702362 1.03399,0.298498 2.06798,0.596997 3.1333,0.904541 0.84748,0.313484 1.69495,0.626968 2.56811,0.949951 2.68251,0.310615 2.68251,0.310615 5.13574,-2.052002 0.9821,-1.016918 1.9484,-2.049229 2.90162,-3.093262 0.52411,-0.544457 1.04822,-1.088915 1.58821,-1.649872 1.67962,-1.746317 3.33843,-3.510534 4.99382,-5.279815 17.30759,-18.4614344 17.30759,-18.4614344 29.64395,-18.9981987 1.10526,9.011e-4 2.21053,0.0018 3.34929,0.00273 1.91737,-0.00197 1.91737,-0.00197 3.87347,-0.00399 1.42309,0.00369 2.84618,0.0075 4.26927,0.011419 1.51189,5.879e-4 3.02378,7.715e-4 4.53566,5.856e-4 4.16948,9.431e-4 8.33893,0.00854 12.5084,0.017464 3.58096,0.00695 7.16193,0.010311 10.74289,0.013815 45.3664,0.046171 90.73259,0.2543544 136.09843,0.4700115 9.38423,0.044275 18.76848,0.084148 28.15274,0.1231526 9.27957,0.038773 18.55912,0.080693 27.83872,0.1248866 5.4451,0.025884 10.8903,0.050694 16.3355,0.072195 13.8219,0.055464 27.643,0.1419173 41.4642,0.290926 1.5401,0.016493 1.5401,0.016493 3.1113,0.03332 6.2953,0.070382 12.59,0.1588111 18.8848,0.268377 1.9636,0.032765 3.9273,0.061653 5.8911,0.086182 15.9862,0.2073323 30.7243,1.9996867 46.1128,6.6121208 0.8364,0.2441166 1.6729,0.4882326 2.5346,0.7397466 19.5995,5.872961 36.8289,16.163731 52.4654,29.260254 0.7103,0.586523 1.4205,1.173047 2.1523,1.777344 4.7736,4.04057 8.8962,8.380525 12.8477,13.222656 0.7734,0.935859 1.5469,1.871719 2.3437,2.835937 69.8177,86.390324 28.6563,276.036144 28.6563,339.164064 291.06,0.495 291.06,0.495 588,1 0,-50.49 0,-100.98 0,-153 1.1746,-65.77754 1.1746,-65.77754 1.9375,-87.625 0.064,-1.87223 0.064,-1.87223 0.1292,-3.78229 0.2926,-8.53163 0.6039,-17.06242 0.9333,-25.59271 0.06,-1.554 0.06,-1.554 0.1211,-3.1394 0.2137,-5.4558 0.4443,-10.9104 0.7043,-16.3642 0.073,-1.53959 0.1422,-3.07935 0.2078,-4.61926 1.312,-30.200715 11.8666,-56.181007 34.0215,-77.189641 12.2207,-11.151041 26.847,-15.653309 42.6953,-19.5000006 1.2023,-0.2922144 1.2023,-0.2922144 2.4289,-0.5903321 12.4391,-2.8364214 24.7189,-3.8957244 37.4519,-3.8578643 1.4068,-0.00303 2.8136,-0.00692 4.2204,-0.011593 3.8195,-0.010179 7.639,-0.00812 11.4585,-0.00382 4.137,0.00249 8.274,-0.00657 12.411,-0.014037 8.0853,-0.012696 16.1706,-0.014547 24.2559,-0.0122 6.5737,0.00179 13.1474,2.27e-5 19.7212,-0.00422 0.9381,-5.952e-4 1.8762,-0.00119 2.8428,-0.0018 1.9061,-0.00121 3.8123,-0.00243 5.7185,-0.00364 17.841,-0.010855 35.682,-0.00872 53.523,-0.00262 16.306,0.00517 32.6119,-0.0061 48.9179,-0.025098 16.7699,-0.019388 33.5398,-0.027633 50.3098,-0.023877 9.4044,0.00191 18.8088,-5.547e-4 28.2133,-0.014714 8.0018,-0.011927 16.0035,-0.013304 24.0053,-0.00121 4.0785,0.00588 8.1568,0.00702 12.2353,-0.005 3.7399,-0.010893 7.4794,-0.00771 11.2192,0.00626 1.9798,0.00388 3.9595,-0.00687 5.9392,-0.018297 10.951,0.065821 20.8004,1.9040575 30.3779,7.3340682 0.6278,0.3345108 1.2555,0.6690228 1.9023,1.0136718 2.8248,1.549764 5.0649,3.014147 7.2852,5.365234 0.8972,0.833379 0.8972,0.833379 1.8125,1.683594 3.3393,-0.132776 5.7983,-1.983116 8.5625,-3.75 12.7171,-7.7643498 25.1932,-11.7293582 40.1298,-11.6309508 1.1133,-0.00468 2.2266,-0.00936 3.3737,-0.014182 3.6977,-0.01188 7.395,-0.00252 11.0927,0.00695 2.6658,-0.00407 5.3315,-0.00931 7.9973,-0.01593 6.4749,-0.013296 12.9496,-0.010475 19.4245,-0.00176 5.2788,0.00681 10.5575,0.00768 15.8363,0.00443 0.7546,-4.597e-4 1.5091,-9.194e-4 2.2866,-0.00139 1.5336,-9.593e-4 3.0673,-0.00193 4.601,-0.00292 14.3689,-0.00855 28.7378,0.00126 43.1067,0.017401 12.2545,0.013342 24.5088,0.011124 36.7632,-0.00276 14.2872,-0.016176 28.5744,-0.022304 42.8616,-0.013163 1.5344,9.554e-4 3.0689,0.0019 4.6033,0.00283 1.1318,6.942e-4 1.1318,6.942e-4 2.2866,0.0014 5.244,0.00256 10.488,-0.00177 15.7321,-0.00884 138.0769,-0.1697108 138.0769,-0.1697108 184.5296,45.1588858 25.8615,26.203391 35.9377,65.003925 35.9707,101.000135 0,1.15517 0.01,2.31034 0.015,3.50051 0.013,3.18351 0.021,6.36699 0.027,9.55052 0.01,3.44161 0.022,6.88319 0.035,10.32478 0.022,5.95522 0.04,11.91044 0.056,17.86568 0.023,8.61016 0.051,17.2203 0.08,25.83045 0.048,13.971 0.091,27.94201 0.1315,41.91303 0.039,13.56772 0.081,27.13542 0.125,40.70312 0,1.25548 0,1.25548 0.01,2.53631 0.014,4.19909 0.027,8.39818 0.041,12.59727 0.1138,34.80938 0.2206,69.61878 0.3229,104.42819 0.8581,-0.201 1.7163,-0.40201 2.6004,-0.6091 3.2284,-0.75583 6.457,-1.51101 9.6857,-2.26575 1.389,-0.32484 2.778,-0.64993 4.1669,-0.9753 10.4046,-2.43713 20.8148,-4.81722 31.297,-6.89985 0.7245,-0.14408 1.4489,-0.28816 2.1954,-0.43661 48.1124,-9.48767 97.291,-8.09104 146.096,-7.92221 6.2832,0.0217 12.5663,0.0394 18.8495,0.0544 0.9037,0.002 1.8075,0.004 2.7387,0.007 1.8375,0.004 3.6749,0.009 5.5124,0.0133 17.1013,0.0417 34.2026,0.0967 51.3039,0.15619 15.5851,0.0538 31.1702,0.091 46.7553,0.1204 16.1018,0.0305 32.2035,0.072 48.3053,0.12528 9.0009,0.0296 18.0018,0.0551 27.0028,0.0691 7.6481,0.012 15.2961,0.0346 22.9442,0.0702 3.8877,0.0178 7.7753,0.0312 11.6631,0.0315 44.3718,0.0125 88.7214,5.50989 122.1334,37.27441 22.5161,23.42697 30.3604,53.19304 29.8174,84.76953 -0.029,2.36354 -0.056,4.7271 -0.081,7.09067 -0.056,5.06578 -0.1191,10.13139 -0.1869,15.19702 -0.1028,8.01961 -0.161,16.03916 -0.2072,24.05924 -0.01,1.3709 -0.016,2.74181 -0.024,4.11271 -0.016,2.77379 -0.032,5.54757 -0.048,8.32136 -0.041,7.1059 -0.082,14.21178 -0.13,21.31764 0,0.71214 -0.01,1.42427 -0.014,2.15799 -0.079,11.54636 -0.2307,23.09077 -0.4061,34.63601 -0.1787,11.89057 -0.269,23.77959 -0.2808,35.6715 -0.01,6.66342 -0.062,13.32196 -0.2142,19.98411 -0.142,6.2668 -0.1755,12.52503 -0.1277,18.79317 0,2.2908 -0.042,4.58197 -0.1257,6.87124 -0.399,10.43382 -0.399,10.43382 2.7787,20.20531 5.6702,5.72397 12.8747,9.0698 20.0691,12.48799 4.697,2.42313 8.8536,5.51338 13.0559,8.69951 0.8125,0.61099 1.6249,1.22198 2.462,1.85148 6.6938,5.06254 13.1078,10.42587 19.413,15.96102 0.7322,0.63293 1.4644,1.26586 2.2187,1.91797 1.9389,1.68112 3.861,3.37976 5.7813,5.08203 1.2181,1.06154 1.2181,1.06154 2.4609,2.14453 4.6411,4.09058 8.9157,8.2387 12.9024,12.96875 1.5928,1.83618 3.2618,3.51341 5.0117,5.19922 4.6183,4.55665 8.5994,9.60914 12.625,14.6875 0.7837,0.9784 1.5675,1.9568 2.375,2.96485 15.2788,19.4168 28.0983,40.69686 38.625,63.03515 0.3309,0.69916 0.6619,1.39831 1.0029,2.11865 12.6218,26.89223 21.0482,55.62467 25.9971,84.88135 0.1651,0.92684 0.3303,1.85367 0.5005,2.8086 5.9033,34.43106 3.5043,70.62106 -0.688,105.06646 -0.1458,1.1993 -0.2916,2.3986 -0.4419,3.6342 -2.8408,22.9016 -6.2089,45.9142 -11.6206,68.3658 -0.2896,1.2165 -0.5791,2.4329 -0.8775,3.6863 -19.264,79.3134 -55.6723,153.0344 -110.8725,213.4387 -0.9194,1.0129 -1.8387,2.0259 -2.7578,3.039 -6.6316,7.2937 -13.2978,14.4119 -20.7852,20.8399 -1.8955,1.6364 -3.768,3.2901 -5.6328,4.9609 -49.089,43.6888 -119.7352,80.9837 -186.8633,81.3633 -1.2528,0.011 -1.2528,0.011 -2.531,0.021 -2.685,0.017 -5.3698,0.024 -8.0549,0.026 -1.3783,10e-4 -1.3783,10e-4 -2.7844,0 -14.0834,-0.016 -27.7254,-0.6067 -41.5906,-3.252 -0.8854,-0.1557 -1.7709,-0.3113 -2.6831,-0.4717 -35.149,-6.2523 -68.599,-20.644 -99.3169,-38.5283 -1.2954,-0.7464 -2.591,-1.4925 -3.8867,-2.2383 -2.7136,-1.5726 -5.4187,-3.157 -8.1133,-4.7617 -0.6781,0.5569 -1.3561,1.1137 -2.0547,1.6875 -1.9649,1.6111 -3.9326,3.2189 -5.9024,4.8242 -1.7983,1.4705 -3.5902,2.9491 -5.3671,4.4453 -30.9367,25.6456 -69.6072,42.6145 -108.6758,51.043 -1.4376,0.3154 -1.4376,0.3154 -2.9043,0.6372 -30.7848,6.4245 -65.394,5.9117 -96.0957,-0.6372 -1.2755,-0.2569 -1.2755,-0.2569 -2.5767,-0.5191 -37.7314,-7.7518 -75.691,-24.1521 -106.6064,-47.1367 -2.9112,-2.1538 -5.8655,-4.2459 -8.8169,-6.3442 -2.7562,1.2915 -5.07,2.7137 -7.4414,4.6172 -0.656,0.5184 -1.312,1.0369 -1.9878,1.571 -0.704,0.5566 -1.408,1.1133 -2.1333,1.6868 -33.2124,25.7548 -72.7922,43.0037 -114.4375,49.125 -1.1312,0.1751 -2.2623,0.3503 -3.4278,0.5307 -11.2794,1.599 -22.4405,1.8685 -33.8222,1.8443 -0.9644,-6e-4 -1.9287,0 -2.9222,0 -53.5811,-0.1384 -102.2285,-16.7414 -141.8278,-53.3733 -3.9294,1.5662 -6.3586,4.2934 -9.1875,7.3125 -30.4471,31.3814 -74.7974,50.6338 -117.8125,55.6875 -0.8611,0.1108 -1.7222,0.2217 -2.6094,0.3359 -45.0741,4.8201 -88.6057,-6.3891 -126.8096,-30.187 -0.6712,-0.4101 -1.3425,-0.8202 -2.0341,-1.2427 -0.5895,-0.368 -1.1789,-0.736 -1.7862,-1.1152 -2.0471,-1.0642 -2.0471,-1.0642 -5.7607,-0.791 -0.2076,0.8765 -0.4151,1.7531 -0.6289,2.6562 -6.218,25.6005 -13.9761,50.0315 -26.3711,73.3438 -0.3735,0.7136 -0.747,1.4273 -1.1319,2.1626 -8.4417,16.0646 -18.4733,30.6583 -30.4848,44.2654 -0.9985,1.1347 -1.9887,2.2768 -2.9737,3.4233 -10.0755,11.6832 -21.0759,22.8507 -33.4096,32.1487 -0.5374,0.4138 -1.0748,0.8276 -1.6284,1.2539 -15.8568,12.1913 -33.0811,21.8996 -50.6905,31.3115 -2.5377,1.3578 -5.0688,2.7272 -7.5991,4.0986 -77.4507,41.716 -165.8552,48.0245 -403.082,48.336 -6.6224,-3.0603 -12.7163,-8.0063 -15.795,-14.7384 -3.2573,-9.1004 -2.6019,-18.5979 -2.5456,-28.1234 8e-4,-2.0113 4e-4,-4.0226 0,-6.0339 -9e-4,-5.4374 0.017,-10.8745 0.038,-16.3118 0.019,-5.6908 0.021,-11.3816 0.024,-17.0724 0.01,-10.7662 0.034,-21.5322 0.064,-32.2984 0.034,-12.2611 0.05,-24.5223 0.065,-36.7835 0.031,-25.2128 0.084,-50.4255 0.151,-75.6382 -0.5729,0 -1.1459,0 -1.7362,0.01 -2.6236,0.01 -5.2471,0.015 -7.8708,0.021 -0.9012,0 -1.8024,0.01 -2.7309,0.011 -6.4954,0.011 -12.8461,-0.2805 -19.2871,-1.1641 -0.9845,-0.1305 -1.9691,-0.2611 -2.9834,-0.3955 -41.2519,-5.8561 -83.2982,-21.6721 -113.3916,-51.4795 -0.33,-0.66 -0.66,-1.32 -1,-2 -3.4904,1.3427 -6.8007,2.8634 -10.1211,4.582 -24.5195,12.5594 -49.4643,23.4376 -75.5672,32.2927 -2.289,0.7778 -4.5728,1.5713 -6.852,2.3775 -9.4664,3.2877 -18.9628,5.6613 -28.7722,7.6853 -0.8066,0.1682 -1.6131,0.3365 -2.4441,0.5098 -19.1586,3.9696 -38.4426,6.8809 -57.8587,9.2584 -2.1945,0.2708 -4.3873,0.5527 -6.58,0.8377 -44.441,5.5607 -93.2358,5.5088 -137.6465,-0.2648 -2.3511,-0.3035 -4.7037,-0.5925 -7.0567,-0.8807 -52.6501,-6.5172 -103.68477,-18.2546 -152.10152,-40.3979 -0.92893,-0.4246 -1.85786,-0.8492 -2.81494,-1.2866 -10.09581,-4.6454 -19.89832,-9.4288 -29.27491,-15.4126 -3.60288,-1.6105 -5.1209,-1.2516 -8.91015,-0.3008 -2.59818,1.4085 -2.59818,1.4085 -5.05469,3.2812 -0.9365,0.6729 -1.87301,1.3458 -2.83789,2.0391 -1.4763,1.0789 -1.4763,1.0789 -2.98242,2.1797 -8.52987,6.0843 -17.04953,11.667 -26.32032,16.5395 -1.7745,0.9444 -3.52438,1.9346 -5.27343,2.9253 -70.52096,39.7523 -159.1895,45.0755 -236.21875,23.7227 -38.62165,-11.1005 -76.98731,-27.3653 -108.90625,-52.211 -0.72397,-0.5626 -1.44794,-1.1253 -2.19385,-1.705 -1.35248,-1.0668 -2.6918,-2.1506 -4.01465,-3.2539 -2.78387,-2.2199 -4.54487,-3.5064 -8.1626,-3.5684 -3.73666,1.2936 -7.20605,2.9507 -10.72265,4.7383 -38.14654,18.608 -79.28125,31.7896 -120.3125,42.3125 -1.12608,0.2897 -1.12608,0.2897 -2.2749,0.5853 -87.60334,22.4628 -178.14151,29.8399 -331.6077929,27.6497 -3.07288337,-0.2317 -6.1462639,-0.4553 -9.2198487,-0.6774 -78.2971184,-5.7277 -164.5753884,-17.3609 -229.8974584,-64.5576 -1.59715,-1.1408 -1.59715,-1.1408 -3.22657,-2.3047 -23.63692,-17.2939 -23.63692,-17.2939 -26.77343,-30.6953 -0.91165,-6.0601 -1.14332,-11.939 -1.13143,-18.0614 -0.002,-0.9906 -0.004,-1.9811 -0.006,-3.0017 -0.006,-3.3215 -0.004,-6.643 -0.003,-9.9646 -0.003,-2.4045 -0.006,-4.8091 -0.009,-7.2136 -0.007,-5.9168 -0.01,-11.8335 -0.0103,-17.7503 -9.1e-4,-7.0886 -0.008,-14.1772 -0.0143,-21.2658 -0.0161,-17.1288 -0.022,-34.2577 -0.0267,-51.3865 -0.002,-8.1035 -0.006,-16.2069 -0.01,-24.3104 -0.0128,-27.742 -0.0236,-55.4839 -0.027,-83.2259 -2.2e-4,-1.7408 -4.4e-4,-3.4815 -6.7e-4,-5.2222 -2.2e-4,-1.7449 -4.4e-4,-3.4898 -6.6e-4,-5.2347 -4.4e-4,-3.5005 -8.9e-4,-7.0011 -10e-4,-10.5016 -1.1e-4,-0.8679 -2.2e-4,-1.7358 -3.3e-4,-2.6301 -0.004,-28.1532 -0.0196,-56.3063 -0.0429,-84.4595 -0.0246,-29.77 -0.0383,-59.54003 -0.0395,-89.31002 -1.7e-4,-3.26746 -3.9e-4,-6.53491 -6.3e-4,-9.80236 -6e-5,-0.80453 -1.1e-4,-1.60906 -1.7e-4,-2.43798 -0.001,-12.94831 -0.0122,-25.89659 -0.0267,-38.8449 -0.0144,-13.01153 -0.0176,-26.02304 -0.01,-39.03458 0.004,-7.72979 5.9e-4,-15.45947 -0.0152,-23.18925 -0.0109,-5.77152 -0.006,-11.54294 0.005,-17.31445 0.002,-2.33505 -0.001,-4.67012 -0.01,-7.00515 -0.0111,-3.17353 -0.004,-6.3465 0.008,-9.52001 -0.008,-0.90678 -0.0152,-1.81355 -0.023,-2.74781 0.0715,-8.74262 1.90977,-16.88809 7.55414,-23.75885 6.7154,-6.58983 13.85104,-8.74923 23.02832,-9.1189 1.1019,-0.0643 2.20381,-0.12858 3.33911,-0.19482 19.79713,-1.02893 39.65477,-1.18638 59.47339,-1.49268 -1.37058,-2.64057 -2.74163,-5.28089 -4.11328,-7.9209 -1.18844,-2.28792 -2.37591,-4.57635 -3.5625,-6.86523 -2.61971,-5.04647 -5.24053,-10.08979 -7.95704,-15.08496 -36.86946,-67.95623 -59.11652,-145.77998 -53.43516,-485.85358 5.46915,-18.4148 11.71968,-36.52073 19.06798,-54.27533 0.42217,-1.02174 0.84433,-2.04348 1.27929,-3.09619 18.91206,-45.29651 44.68809,-88.07767 78.16602,-124.130368 2.0672,-2.244208 4.07504,-4.515296 6.05469,-6.835937 6.88007,-7.919506 14.49941,-15.165575 22.5,-21.9375 0.9075,-0.796641 1.815,-1.593281 2.75,-2.414063 18.471038,-16.110325 39.02147,-29.453439 60.687497,-40.835937 1.568991,-0.831325 1.568991,-0.831325 3.169678,-1.679444 3.430389,-1.766599 6.899341,-3.433859 10.392822,-5.0705558 1.058959,-0.4998944 1.058959,-0.4998944 2.139311,-1.0098877 C -24.732581,2.0764862 -14.002858,-0.16874074 0,0 Z"
       fill="#fefefe"
       transform="translate(280.64932,12.004318)"
       id="path1-0" /><path
       d="m 0,0 c 1.2461256,-0.00556915 2.4922513,-0.01113831 3.7761383,-0.01687622 1.3704243,0.00902484 2.7408466,0.01834269 4.1112671,0.02792358 1.4555321,-7.9194e-4 2.9110636,-0.00289249 4.3665926,-0.00619507 3.967464,-0.00514335 7.934669,0.00845965 11.902092,0.02552701 4.233007,0.01520657 8.466013,0.01386753 12.699043,0.01466465 7.182025,0.0037036 14.363955,0.01865908 21.545944,0.04119873 7.206715,0.02258441 14.413368,0.03712442 21.620117,0.04101562 1.303431,7.2156e-4 1.303431,7.2156e-4 2.633194,0.001458 1.75158,9.4502e-4 3.503159,0.001884 5.254738,0.002816 16.660354,0.010062 33.320154,0.0644674 49.980244,0.15766048 9.81241,0.054149 19.62447,0.0869899 29.43703,0.0949018 7.0454,0.007275 14.0905,0.0368142 21.13575,0.0829778 4.13905,0.0264594 8.27755,0.043176 12.41669,0.034477 3.82811,-0.007716 7.65505,0.0125172 11.48293,0.0542803 1.39232,0.0103354 2.78476,0.0105987 4.17708,-2.842e-4 7.64875,-0.0536506 12.96844,0.2020233 18.82247,5.42977232 0.44472,0.4561179 0.88943,0.9122358 1.34762,1.3821755 0.33,0.33 0.66,0.66 1,1 0.0986,1.8691117 0.12566,3.7420097 0.12601,5.6137217 0.003,1.229453 0.005,2.458906 0.008,3.725615 -0.002,1.38478 -0.004,2.76956 -0.007,4.15434 0.001,1.461286 0.003,2.922573 0.005,4.383858 0.004,4.05277 0.003,8.105518 -7e-5,12.158289 -0.002,4.395241 0.002,8.790478 0.005,13.185718 0.005,7.715938 0.006,15.431871 0.005,23.147811 -0.002,11.474308 0.003,22.948609 0.008,34.422914 0.009,18.11694 0.014,36.23388 0.0172,54.35083 0.005,28.76811 0.0206,57.53622 0.0396,86.30433 0.004,6.11845 0.008,12.23689 0.0119,18.35534 7.8e-4,1.2198 0.002,2.4396 0.002,3.69637 0.002,2.47192 0.003,4.94385 0.005,7.41577 0.002,2.48116 0.003,4.96231 0.005,7.44346 0.0188,29.28086 0.0359,58.56171 0.0516,87.84256 6.9e-4,1.2817 10e-4,2.56339 0.002,3.88392 0.0223,41.54454 0.0341,83.08907 0.0416,124.63361 0.008,42.69545 0.0288,85.39087 0.0656,128.08631 0.005,6.03059 0.0102,12.06119 0.0151,18.09179 9.6e-4,1.1869 0.002,2.3738 0.003,3.59667 0.0151,19.10393 0.016,38.20784 0.0114,57.31178 -0.004,19.20613 0.006,38.41222 0.0301,57.61833 0.0141,11.41 0.0171,22.81986 0.004,34.22986 -0.008,7.62597 -6.4e-4,15.25185 0.018,22.87781 0.0102,4.34253 0.0142,8.68482 3.7e-4,13.02735 -0.0125,3.95913 -0.006,7.9178 0.0144,11.8769 0.004,1.41519 0.002,2.83041 -0.008,4.24557 -0.082,12.3955 1.10089,27.47307 9.51973,37.31917 1.04994,1.22977 1.04994,1.22977 2.12109,2.48438 6.3796,6.90017 13.85742,13.10739 23.56641,13.76562 9.81133,-3.70239 15.26524,-9.59117 19.57812,-19.01562 1.09656,-2.70668 2.07998,-5.43011 3.02854,-8.19132 0.4741,-1.37229 0.95699,-2.74157 1.44823,-4.10783 5.02676,-14.1409 6.31673,-27.29672 6.59745,-42.2282 0.0652,-2.44715 0.13163,-4.89426 0.19921,-7.34135 0.90596,-35.62655 0.88299,-71.28091 1.00355,-106.91658 0.049,-14.3761 0.10903,-28.75216 0.17562,-43.12819 0.0243,-5.33463 0.0439,-10.66924 0.0595,-16.00389 0.0472,-15.32781 0.13712,-30.64617 0.66342,-45.96619 0.0367,-1.09095 0.0735,-2.18189 0.1113,-3.3059 1.04598,-26.80692 6.97157,-52.36843 17.44754,-77.04493 0.31695,-0.7483 0.6339,-1.4966 0.96045,-2.26758 6.93346,-16.08821 16.05915,-31.08669 27.03955,-44.73242 1.20849,-1.514 1.20849,-1.514 2.4414,-3.05859 19.34878,-23.77806 42.65112,-41.55457 69.5586,-55.94141 0.62423,-0.33741 1.24846,-0.67482 1.8916,-1.02246 23.21197,-12.45017 48.4542,-20.65927 74.2334,-25.79004 0.96269,-0.19497 1.92537,-0.38994 2.91723,-0.59082 19.79782,-3.6965 39.80954,-3.89274 59.87964,-3.87134 2.7324,-0.003 5.46479,-0.009 8.19718,-0.0155 6.59106,-0.0126 13.18208,-0.0146 19.77315,-0.0122 5.35603,0.002 10.71204,10e-6 16.06806,-0.004 0.76684,-5.9e-4 1.53368,-10e-4 2.32375,-0.002 1.55838,-10e-4 3.11676,-0.002 4.67514,-0.004 14.54075,-0.0108 29.08148,-0.009 43.62224,-0.003 13.29622,0.005 26.59237,-0.006 39.88858,-0.0251 13.6897,-0.0194 27.37937,-0.0276 41.06908,-0.0239 7.67154,0.002 15.34301,-5.7e-4 23.01454,-0.0147 6.51666,-0.0119 13.03323,-0.0133 19.54989,-10e-4 3.32244,0.006 6.64455,0.005 9.967,-0.005 3.60087,-0.0104 7.20123,-0.002 10.80208,0.0103 1.0492,-0.007 2.0984,-0.0147 3.17939,-0.0224 5.40101,0.0403 9.30536,0.31105 13.94805,3.39657 5.30779,5.60268 6.29774,10.65687 6.25054,18.19017 0.003,0.82472 0.006,1.64943 0.008,2.49913 0.007,2.77553 -3.1e-4,5.55083 -0.007,8.32636 0.002,2.00525 0.005,4.01051 0.009,6.01576 0.008,5.52005 0.004,11.04004 -0.003,16.5601 -0.005,5.94974 0.002,11.89946 0.008,17.8492 0.009,10.31405 0.0104,20.62808 0.008,30.94213 -0.003,15.6123 0.01,31.22455 0.0268,46.83684 0.007,6.26554 0.0128,12.53107 0.0189,18.79661 10e-4,1.04418 10e-4,1.04418 0.002,2.10947 0.0162,16.572 0.027,33.14402 0.0362,49.71603 4e-4,0.72514 8.1e-4,1.45027 10e-4,2.19738 0.009,16.91408 0.0163,33.82817 0.0187,50.74226 10e-5,0.72719 2.1e-4,1.45439 3.2e-4,2.20362 5.3e-4,3.66678 10e-4,7.33355 0.002,11.00032 1.5e-4,1.08701 1.5e-4,1.08701 3.1e-4,2.19598 2.1e-4,1.46269 4.1e-4,2.92537 6.1e-4,4.38806 0.003,24.1745 0.0203,48.34897 0.0521,72.52346 0.004,3.41518 0.009,6.83035 0.0129,10.24553 8.3e-4,0.67212 0.002,1.34424 0.002,2.03673 0.0127,10.81059 0.0108,21.62114 0.003,32.43174 -0.008,10.86899 -9.6e-4,21.73789 0.0196,32.60686 0.0107,5.88689 0.0148,11.77359 0.002,17.66047 -0.0121,5.3914 -0.006,10.78245 0.0152,16.17382 0.004,1.94822 0.002,3.89646 -0.008,5.84465 -0.0673,14.27135 0.94623,26.22597 11.52013,36.90732 9.04037,7.27857 19.77502,8.10526 31,7 10.65462,-2.19398 19.91499,-9.03261 26,-18 6.84683,-11.88753 8.29721,-21.49838 8.27124,-35.0415 0.004,-1.51852 0.01,-3.03704 0.0158,-4.55556 0.0114,-3.25693 0.0169,-6.5138 0.0179,-9.77075 0.002,-5.15231 0.02,-10.30448 0.0408,-15.45674 0.0491,-12.79252 0.0801,-25.58507 0.1013,-38.37766 0.0165,-9.9529 0.0393,-19.90569 0.083,-29.85851 0.0218,-5.11983 0.0298,-10.23944 0.0276,-15.35931 0.002,-3.18521 0.0157,-6.37028 0.0332,-9.55544 0.006,-1.47458 0.006,-2.94919 10e-4,-4.42377 -0.006,-2.01623 0.008,-4.03248 0.0228,-6.04866 0.002,-1.12711 0.004,-2.25421 0.006,-3.41546 0.43949,-3.63556 1.47188,-6.02303 3.37918,-9.13664 4.55076,-3.03384 8.66496,-2.6381 14,-2 25.27281,7.05218 41.20187,25.9525 53.79687,47.78907 5.09495,9.12365 9.28714,18.37268 12.64063,28.27343 0.30567,0.89518 0.61134,1.79035 0.92627,2.71265 5.11804,16.0098 7.37698,31.90138 7.19873,48.66235 -0.004,0.87114 -0.009,1.74227 -0.0129,2.6398 -0.4371,65.19704 -20.04392,138.08216 -63.54959,187.9227 -0.63293,0.7412 -1.26586,1.4824 -1.91797,2.2461 -24.18917,27.6383 -53.46489,49.4319 -89.08203,59.7539 -1.01192,0.2952 -2.02383,0.5904 -3.06641,0.8945 -33.94352,9.1752 -70.56927,4.4106 -101.93359,-10.8945 -0.63535,-0.3081 -1.27069,-0.6162 -1.92529,-0.9336 -11.82597,-5.815 -22.66746,-12.9381 -32.45362,-21.7969 -1.85565,-1.4532 -3.75037,-2.3696 -5.87109,-3.3945 -9.06078,-4.8005 -15.6562,-14.5755 -21.85156,-22.5156 -1.89968,-2.3609 -3.90307,-4.5735 -5.96094,-6.7969 -3.66866,-4.0427 -6.45908,-8.3701 -9.19922,-13.082 -2.34344,-3.344 -5.08643,-5.6546 -8.73828,-7.4805 -3.38035,-0.6831 -3.38035,-0.6831 -7,0 -2.02153,2.4415 -3.3476,4.4394 -4.8125,7.1875 -0.86066,1.4848 -1.72664,2.9665 -2.59766,4.4453 -0.43199,0.7415 -0.86399,1.4831 -1.30908,2.2471 -20.42999,33.8189 -57.8391,59.0907 -95.79248,68.5185 -4.37169,1.0563 -8.75424,2.0559 -13.14917,3.0108 -2.41554,0.5527 -2.41554,0.5527 -4.9126,1.6372 -4.94432,1.376 -9.72268,1.2788 -14.83276,1.2895 -1.11573,0.01 -2.23145,0.013 -3.38098,0.02 -2.36697,0.01 -4.73397,0.015 -7.10095,0.014 -3.5443,0 -7.08728,0.041 -10.63135,0.079 -42.60348,0.2133 -82.07045,-14.385 -113.48047,-43.4492 -0.51256,-0.4741 -1.02513,-0.9481 -1.55322,-1.4365 -12.94014,-12.1261 -23.07839,-26.049 -31.17725,-41.8409 -0.47897,-0.9326 -0.95793,-1.8652 -1.45142,-2.8261 -0.94104,-1.848 -1.87051,-3.702 -2.78662,-5.5625 -2.71396,-5.3667 -5.27844,-9.5685 -10.03149,-13.334 -3.86426,0.47359 -5.47288,2.09599 -8,5 -1.60037,2.1698 -3.15603,4.3458 -4.6875,6.5625 -6.44459,9.1625 -13.50709,17.6871 -21.0586,25.9609 -1.52812,1.6791 -3.04076,3.3724 -4.53906,5.0782 -4.61705,5.2426 -9.3652,9.9188 -14.71484,14.3984 -0.91008,0.8095 -1.82016,1.6191 -2.75781,2.4531 -28.4597,25.1516 -65.42803,43.3508 -103.92969,42.9844 -0.69494,0 -1.38987,-0.01 -2.10587,-0.01 -11.78237,-0.082 -22.85328,-1.171 -34.20663,-4.4273 -0.82403,-0.2254 -1.64807,-0.4509 -2.49707,-0.6831 -20.11103,-5.6212 -39.451425,-14.6428 -54.502931,-29.3169 -0.81211,-0.7593 -1.624219,-1.5185 -2.460938,-2.3008 -14.188663,-13.6318 -24.815119,-29.9904 -34.453857,-46.9968 -2.775032,-4.8716 -5.617722,-9.6834 -8.702393,-14.3665 -0.530933,-0.809 -1.061865,-1.6181 -1.608887,-2.45162 -2.177309,-2.31275 -3.593423,-2.65615 -6.711425,-3.00928 -5.187004,0.565 -7.7774885,2.89219 -11.1367192,6.7226 -0.6355078,0.7928 -1.2710156,1.5856 -1.9257812,2.4024 -0.9687305,1.1737 -0.9687305,1.1737 -1.95703125,2.3711 -2.04447585,2.5203 -4.04351265,5.0728 -6.04296875,7.6289 -5.0497836,6.3032 -10.2140496,12.4564 -15.6640626,18.418 -1.905559,2.1063 -3.768481,4.2376 -5.625,6.3867 -9.286114,10.6299 -19.454116,20.6707 -30.710937,29.1953 -0.544146,0.4205 -1.088291,0.8411 -1.648926,1.2744 -30.45756,23.4913 -66.516983,39.0879 -105.660153,34.3228 -38.45685,-5.8769 -73.04313,-21.3299 -104.69092,-43.5972 -0.65066,-0.4557 -1.30131,-0.9114 -1.97168,-1.3809 -40.63859,-28.9155 -64.10209,-72.66497 -73.55103,-120.67989 -1.48047,-9.11685 -1.62444,-18.08846 -1.61989,-27.29857 -0.003,-1.56683 -0.006,-3.13366 -0.01,-4.70049 -0.009,-4.30846 -0.0116,-8.6169 -0.0132,-12.92537 -0.003,-4.68621 -0.0114,-9.37241 -0.0192,-14.05861 -0.0145,-9.29551 -0.0237,-18.59101 -0.0311,-27.88653 -0.006,-7.73073 -0.015,-15.46145 -0.0252,-23.19218 -10e-4,-1.11572 -0.003,-2.23145 -0.004,-3.38098 -0.003,-2.27553 -0.006,-4.55105 -0.009,-6.82658 -0.0385,-29.45905 -0.0635,-58.91812 -0.0862,-88.3772 -0.003,-3.8155 -0.006,-7.63101 -0.009,-11.44652 -0.0387,-49.21223 -0.0723,-98.42447 -0.0942,-147.63672 -0.005,-10.96266 -0.01,-21.92532 -0.0151,-32.88797 -9.6e-4,-2.06443 -0.002,-4.12886 -0.003,-6.1933 -0.0203,-43.52679 -0.0648,-87.05351 -0.12393,-130.58027 -0.0627,-46.13441 -0.10325,-92.26876 -0.11269,-138.40322 -0.001,-6.41392 -0.003,-12.82785 -0.005,-19.24177 -3.3e-4,-1.26234 -6.5e-4,-2.52469 -9.9e-4,-3.82528 -0.006,-20.33993 -0.0355,-40.67976 -0.0737,-61.01965 -0.0379,-20.42829 -0.0502,-40.85647 -0.0362,-61.28479 0.008,-12.14501 -0.005,-24.289641 -0.0444,-36.43459 -0.0247,-8.1054 -0.0241,-16.21054 -0.003,-24.315948 0.0115,-4.622935 0.0117,-9.245137 -0.0187,-13.868002 -0.0275,-4.204218 -0.0228,-8.407121 0.008,-12.611307 0.005,-1.512766 -0.001,-3.02563 -0.0208,-4.538278 -0.15321,-12.638058 -0.15321,-12.638058 4.23726,-17.8336648 5.96981,-5.7634592 12.02709,-6.6150476 19.96105,-6.5523679 0.91647,-0.00468 1.83293,-0.00936 2.77716,-0.014182 3.05998,-0.011932 6.11951,-0.0025 9.17949,0.00695 2.19817,-0.00407 4.39634,-0.00941 6.5945,-0.01593 5.96266,-0.01367 11.92516,-0.00838 17.88782,0.00114 6.24056,0.0076 12.48109,5.508e-4 18.72165,-0.00416 11.14966,-0.00581 22.29926,0.00351 33.44891,0.018778 10.10467,0.013406 20.20925,0.011071 30.31392,-0.00276 11.74268,-0.016062 23.48532,-0.022027 35.22802,-0.013163 6.21299,0.00468 12.42592,0.0053 18.63891,-0.00461 5.84,-0.00866 11.67981,-0.00266 17.51979,0.014683 2.1438,0.00397 4.28761,0.00282 6.4314,-0.00379 2.92515,-0.00819 5.84968,0.00208 8.77479,0.01704 0.84932,-0.00669 1.69864,-0.013384 2.5737,-0.020279 4.93728,0.049023 8.3295,0.6629981 12.60463,3.4012302 6.854546,8.1873755 6.288344,17.7511585 6.253332,27.8736655 0.0023,1.416881 0.0054,2.833761 0.0094,4.250638 0.0083,3.896855 0.0042,7.793613 -0.0019,11.690469 -0.0044,4.238359 0.0028,8.4767 0.0086,12.715055 0.0085,7.429603 0.0096,14.859178 0.006,22.288784 -0.0054,11.048363 7.02e-4,22.096699 0.0093,33.145059 0.01418,18.58864 0.01951,37.17727 0.02026,55.76592 0.0012,25.39012 0.01638,50.78022 0.0355,76.17033 0.0089,11.82773 0.01717,23.65545 0.02532,35.48318 8.17e-4,1.1841 0.0016,2.3682 0.0025,3.58819 0.01934,28.18934 0.03288,56.37868 0.04507,84.56802 5.36e-4,1.2335 0.0011,2.46701 0.0016,3.73789 0.01249,28.7766 0.02327,57.5532 0.03206,86.3298 0.0031,9.98036 0.0062,19.96073 0.0093,29.9411 3.82e-4,1.23178 7.64e-4,2.46356 0.0012,3.73267 0.0088,28.1262 0.01992,56.25239 0.03997,84.37859 8.43e-4,1.18239 0.0017,2.36479 0.0026,3.58302 0.0085,11.80504 0.01748,23.61008 0.02719,35.41513 0.0048,5.80804 0.0094,11.61609 0.01389,17.42414 0.0013,1.7146 0.0013,1.7146 0.0027,3.46383 0.01393,18.39614 0.01657,36.79227 0.01463,55.18841 -0.0018,18.48944 0.0069,36.97885 0.02631,55.46828 0.0112,10.98364 0.014,21.96721 0.0048,32.95085 -0.0053,7.34025 1.98e-4,14.68044 0.01448,22.02069 0.0078,4.18001 0.01096,8.35987 7.81e-4,12.53988 -0.0092,3.81037 -0.0044,7.62047 0.01117,11.43082 0.0047,2.00005 -0.0052,4.00012 -0.01585,6.00015 0.126284,20.08142 6.162058,39.95746 19.648706,55.26975 3.071193,2.7809 6.526037,3.94946 10.438721,5.14819 1.19484,0.37766 1.19484,0.37766 2.413818,0.76294 8.609712,2.49723 14.795135,1.45115 22.711182,-2.63794 12.083487,-7.45256 16.456442,-18.26155 20.1875,-31.6875 0.642224,-5.00914 0.664284,-9.96559 0.611303,-15.00632 0.0033,-1.46693 0.0088,-2.93385 0.01624,-4.40076 0.01412,-4.00798 -0.0026,-8.01531 -0.02469,-12.02324 -0.01842,-4.36893 -0.0075,-8.73781 -3.74e-4,-13.10676 0.0085,-7.6494 -0.0013,-15.2986 -0.02329,-22.94798 -0.03258,-11.37465 -0.03624,-22.74918 -0.03375,-34.12386 0.0035,-19.13794 -0.01517,-38.27579 -0.04556,-57.4137 -0.0411,-26.13015 -0.04747,-52.26023 -0.04425,-78.3904 0.0015,-12.17582 0.0014,-24.35164 9.44e-4,-36.52746 -3.9e-5,-1.2188 -7.8e-5,-2.43761 -1.19e-4,-3.69334 -0.0013,-28.99886 -0.01729,-57.9977 -0.03654,-86.99655 -8.34e-4,-1.2686 -0.0017,-2.5372 -0.0025,-3.84424 -0.01955,-29.61243 -0.04298,-59.22485 -0.07016,-88.83728 -0.0094,-10.27999 -0.01867,-20.55997 -0.02789,-30.83996 -0.0011,-1.26883 -0.0023,-2.53766 -0.0035,-3.84494 -0.02603,-28.96116 -0.04637,-57.92231 -0.04604,-86.88348 2e-5,-1.82503 2e-5,-1.82503 4e-5,-3.68693 2.92e-4,-12.14531 0.0018,-24.29062 0.0049,-36.43592 0.0066,-26.10453 -0.0051,-52.20885 -0.05385,-78.31333 -0.03519,-19.02183 -0.04612,-38.04353 -0.03171,-57.06538 0.0077,-11.307441 -0.0043,-22.614462 -0.04433,-33.921831 -0.02479,-7.546916 -0.02438,-15.093554 -0.0033,-22.64048 0.01129,-4.303884 0.01136,-8.606979 -0.01936,-12.910786 -0.02774,-3.914668 -0.02332,-7.827926 0.0068,-11.742564 0.0052,-1.407928 -0.0014,-2.815961 -0.02111,-4.22376 C -20.337292,11.790987 -20.337292,11.790987 -15.927394,6.6003524 -11.091699,1.8891314 -6.7710174,-0.00922056 0,0 Z"
       fill="#ed1c24"
       transform="translate(2640.2911,203.63251)"
       id="path2" /><path
       d="m 0,0 c 0.95060964,-0.00557199 1.9012193,-0.01114397 2.8806353,-0.0168848 1.044844,0.00921761 2.089688,0.01843523 3.1661939,0.02793216 C 7.1531177,0.00902848 8.2594062,0.0070096 9.3992186,0.00492954 13.107843,0.00195873 16.816039,0.02061859 20.524612,0.03936768 c 2.628143,0.0026874 5.256287,0.0041421 7.88443,0.0044403 6.352789,0.0033243 12.705424,0.02311168 19.058158,0.04883105 5.12805,0.0204104 10.256082,0.03427974 15.384164,0.04368299 37.926576,0.0703083 75.852806,0.26229068 113.777656,0.63822937 2.04733,0.0202917 4.09467,0.0402605 6.14202,0.059906 5.78376,0.0556509 11.56742,0.11637906 17.35103,0.18572431 1.715,0.02016 3.43002,0.039038 5.14505,0.056454 5.04221,0.052435 10.08021,0.1504639 15.12077,0.2908573 1.2037,0.022085 2.40739,0.044171 3.64756,0.066925 1.07819,0.046316 2.15638,0.092631 3.26724,0.1403504 0.9198,0.03195 1.8396,0.063899 2.78728,0.096817 2.29792,0.6959076 2.29792,0.6959076 3.99075,2.5579529 3.86783,9.2849777 3.60073,19.3476787 3.58565,29.2416377 0.005,1.506799 0.0109,3.013596 0.0175,4.520389 0.0157,4.113932 0.0192,8.227796 0.0206,12.341755 0.004,4.446357 0.0189,8.892677 0.0326,13.339013 0.0222,7.694766 0.0373,15.389519 0.0474,23.08431 0.0146,11.125248 0.0402,22.250447 0.0683,33.375667 0.0454,18.05177 0.0821,36.10355 0.11314,54.15535 0.0302,17.53126 0.0646,35.06251 0.10449,52.59375 0.002,1.08139 0.005,2.16278 0.007,3.27694 0.0124,5.42524 0.0248,10.85048 0.0373,16.27572 0.1035,44.97778 0.19272,89.95559 0.27259,134.93342 3.87632,1.34366 7.05131,2.24995 11.1623,2.25156 0.99405,0.005 1.9881,0.0108 3.01228,0.0163 1.07515,-0.004 2.15031,-0.008 3.25804,-0.0125 1.71893,0.005 1.71893,0.005 3.47258,0.011 2.48968,0.007 4.97937,0.009 7.46906,0.008 3.97528,-9.7e-4 7.95038,0.0116 11.92561,0.029 10.60279,0.0438 21.20559,0.07 31.80847,0.0762 62.44104,0.0376 120.18868,0.83775 168.63776,45.554 2.0002,1.83381 4.04734,3.57678 6.1289,5.3164 40.96857,35.84749 56.1805,83.97001 59.99763,136.75221 0.66668,10.45667 0.53254,20.94979 0.49969,31.42186 7.8e-4,2.78659 0.006,5.57315 0.0111,8.35973 0.009,6.69349 0.003,13.38686 -0.009,20.08034 -0.0138,7.83152 -0.012,15.66302 -0.01,23.49455 0.003,13.98796 -0.008,27.97587 -0.0281,41.96382 -0.019,13.50946 -0.0261,27.01885 -0.0205,40.52832 0.006,14.79887 0.006,29.59771 -0.005,44.39658 -0.001,1.58278 -0.002,3.16556 -0.004,4.74833 -9e-4,1.16745 -9e-4,1.16745 -0.002,2.35847 -0.004,5.43375 -0.003,10.86748 -0.002,16.30122 0.002,6.63236 -0.003,13.26467 -0.0176,19.89701 -0.007,3.371 -0.0103,6.74187 -0.007,10.11288 0.0504,56.58405 -11.04238,115.23387 -44.27879,162.33468 -0.46615,0.66242 -0.93231,1.32484 -1.41259,2.00733 -6.16495,8.66342 -12.71014,16.82172 -20.1128,24.46682 -1.02095,1.0565 -2.03484,2.1198 -3.04297,3.1885 -13.05689,13.833 -27.72373,25.2296 -44.43164,34.3374 -0.60038,0.3277 -1.20076,0.6555 -1.81933,0.9932 -38.14861,20.5102 -81.28442,32.9054 -124.18067,38.0068 -1.33708,0.1735 -1.33708,0.1735 -2.70117,0.3506 -58.62995,7.5241 -124.8772,-1.6641 -172.73462,-38.4124 -2.89048,-2.2701 -5.73526,-4.5921 -8.56421,-6.9382 -0.56348,-0.4658 -1.12696,-0.9317 -1.70752,-1.4116 -11.21305,-9.303 -21.933472,-19.0425 -32.233638,-29.3443 -1.61774,-1.6155 -3.243345,-3.2229 -4.869385,-4.83 -6.515605,-6.4805 -12.496574,-13.1858 -18.189453,-20.41415 -1.060103,-1.30143 -2.12234,-2.60114 -3.1875,-3.89843 -6.325725,-7.79584 -12.235839,-15.75066 -17.8125,-24.10157 -5.27161,6.2436 -10.441006,12.53448 -15.4375,19 -4.363111,5.62333 -8.987004,10.89975 -13.859375,16.08595 -1.975162,2.1293 -3.870365,4.274 -5.7539066,6.4805 -4.6599081,5.3495 -9.6956168,10.3296 -14.7189941,15.3337 -1.6644874,1.6592 -3.3235591,3.3236 -4.9821773,4.9886 -5.577045,5.5808 -11.223253,11.011 -17.248047,16.1113 -1.034075,0.911 -2.066705,1.8237 -3.097657,2.7383 -24.489043,21.2625 -52.745572,33.2198 -84.902347,37.2617 -0.73476,0.094 -1.46953,0.1885 -2.22656,0.2856 -20.71068,2.3763 -42.28471,1.2784 -62.77344,-2.2856 -1.39726,-0.2415 -1.39726,-0.2415 -2.82275,-0.4878 -34.9907,-6.303 -66.14153,-19.3045 -91.75781,-44.144 -1.24073,-1.196 -2.50591,-2.3664 -3.77491,-3.5323 -27.09756,-25.5674 -42.52164,-63.27083 -51.75415,-98.62895 -0.36806,-1.4057 -0.7424,-2.80979 -1.125,-4.21161 -7.93425,-29.3532 -9.53303,-60.00498 -9.4742,-90.24603 0.003,-4.55814 -0.0231,-9.11616 -0.0448,-13.67424 -0.0386,-9.02813 -0.0507,-18.05611 -0.0533,-27.08432 -0.003,-7.4349 -0.0152,-14.86973 -0.0344,-22.30461 -0.003,-1.07513 -0.006,-2.15027 -0.008,-3.25798 -0.006,-2.19839 -0.0114,-4.39677 -0.0172,-6.59515 -0.0488,-19.07567 -0.0753,-38.1513 -0.0904,-57.22702 -0.0198,-24.6652 -0.0723,-49.33011 -0.14861,-73.9952 -0.0912,-29.53119 -0.16444,-59.06236 -0.21426,-88.59365 -0.006,-3.26533 -0.0112,-6.53066 -0.0168,-9.796 -0.001,-0.80645 -0.003,-1.6129 -0.004,-2.44379 -0.0212,-12.22662 -0.0549,-24.45317 -0.0945,-36.67974 -0.0454,-14.01215 -0.0726,-28.0242 -0.0767,-42.03643 -0.003,-7.9441 -0.0198,-15.88788 -0.0563,-23.8319 -0.0259,-5.97437 -0.0256,-11.94843 -0.0151,-17.92286 1.9e-4,-2.43372 -0.008,-4.86745 -0.0257,-7.30111 -0.0225,-3.30239 -0.0145,-6.60331 0.002,-9.9057 -0.0139,-0.96043 -0.0278,-1.92087 -0.0421,-2.9104 0.0551,-4.59602 0.14014,-6.54076 3.06306,-10.25799 4.56639,-3.40893 8.29748,-3.07955 13.82927,-3.07844 1.4551,-0.006 1.4551,-0.006 2.93959,-0.0111 3.27118,-0.0111 6.54232,-0.0149 9.81351,-0.0187 2.33698,-0.006 4.67396,-0.0129 7.01094,-0.0199 6.36364,-0.0174 12.72728,-0.028 19.09095,-0.0362 3.97237,-0.005 7.94475,-0.0112 11.91712,-0.0175 10.99495,-0.017 21.9899,-0.0315 32.98487,-0.0387 2.85385,-0.002 5.70769,-0.004 8.56154,-0.006 0.70933,-4.9e-4 1.41865,-9.7e-4 2.14947,-10e-4 11.49403,-0.008 22.98795,-0.0336 34.48194,-0.0661 11.79629,-0.0331 23.59252,-0.0511 35.38886,-0.0543 6.62499,-0.002 13.24984,-0.0114 19.87479,-0.0365 6.23064,-0.0232 12.46099,-0.0276 18.69166,-0.0172 2.28935,5e-4 4.57872,-0.006 6.86803,-0.0196 3.12075,-0.0176 6.2405,-0.0107 9.36125,0.003 1.36517,-0.0165 1.36517,-0.0165 2.75793,-0.0332 4.157804,0.0426 6.306828,0.17082 9.904235,2.42647 7.036094,7.51496 4.102872,24.72178 4.092351,34.57179 0.0017,1.86138 0.0039,3.72276 0.0064,5.58413 0.0046,4.03014 0.006,8.06027 0.005,12.09041 -0.0016,6.55884 0.0036,13.11766 0.0096,19.67649 0.0081,9.52216 0.01305,19.04431 0.01629,28.56647 0.0055,15.05535 0.02242,30.11068 0.04134,45.16603 0.0064,5.15523 0.01266,10.31046 0.01898,15.46569 0.0016,1.28818 0.0032,2.57637 0.0048,3.90359 0.01792,14.64968 0.03417,29.29937 0.04918,43.94906 6.89e-4,0.66908 0.0014,1.33816 0.0021,2.02752 0.02227,21.70325 0.0341,43.40649 0.04158,65.10975 0.008,22.97156 0.03097,45.94308 0.06866,68.91461 0.02201,13.74481 0.03169,27.48952 0.0255,41.23434 -0.0032,9.41866 0.0082,18.83722 0.03089,28.25585 0.01265,5.4315 0.01885,10.8628 0.0076,16.2943 -0.01019,4.97736 -0.0019,9.95435 0.02086,14.93167 0.005,1.79528 0.0033,3.59059 -0.0059,5.38585 -0.07769,16.41134 3.290132,29.42355 12.713309,43.15446 8.419823,8.41983 14.946993,12.11425 26.752929,12.1272 10.887878,-0.22021 21.923625,-3.91473 30.059571,-11.3147 7.216228,-10.11775 11.1222426,-24.69003 11.1271582,-37.06776 0.00291,-1.22888 0.00582,-2.45775 0.00882,-3.72386 -0.00181,-1.36333 -0.00371,-2.72667 -0.0057,-4.09 0.00154,-1.45454 0.00351,-2.90907 0.00589,-4.3636 0.00529,-4.01528 0.00434,-8.03055 0.00243,-12.04583 -9.719e-4,-4.36137 0.00386,-8.72273 0.00798,-13.08409 0.00644,-7.64987 0.00922,-15.29974 0.00963,-22.94961 6.44e-4,-11.37531 0.00703,-22.75061 0.014747,-34.12591 0.012085,-17.95996 0.020742,-35.91991 0.027038,-53.87987 0.010024,-28.50015 0.029273,-57.00029 0.051542,-85.50043 0.00853,-10.95887 0.016797,-21.91775 0.025104,-32.87662 9.25e-4,-1.21756 0.00185,-2.43513 0.0028,-3.6896 0.021997,-28.99146 0.041786,-57.98293 0.06045,-86.9744 8.197e-4,-1.26881 0.00164,-2.53762 0.00248,-3.84488 0.019092,-29.61376 0.036053,-59.22751 0.048358,-88.84128 5.297e-4,-1.27423 0.00106,-2.54846 0.0016,-3.8613 0.00425,-10.27129 0.00843,-20.54259 0.012585,-30.81388 0.01718,-42.3055 0.044367,-84.61099 0.08316,-126.91648 0.00546,-5.96865 0.010795,-11.9373 0.016042,-17.90595 0.00103,-1.17475 0.00207,-2.34949 0.00313,-3.55983 0.016355,-18.94262 0.021855,-37.88524 0.023163,-56.82787 0.0015,-19.01946 0.013606,-38.03889 0.036756,-57.05833 0.013427,-11.312746 0.018372,-22.625423 0.011454,-33.938173 -0.0038,-7.544422 0.00314,-15.088782 0.019016,-22.633188 0.00875,-4.306512 0.012613,-8.612885 0.00343,-12.919399 -0.00825,-3.911152 -0.00293,-7.822031 0.013608,-11.733154 0.00352,-1.41241 0.00193,-2.824843 -0.00517,-4.237239 -0.00887,-1.906785 0.0023,-3.813632 0.014635,-5.720397 5.562e-4,-1.0590816 0.00111,-2.1181632 0.00169,-3.2093382 C -7.6121063,3.3674927 -7.6121063,3.3674927 -6.2207169,1.527172 -4.0567069,-0.03290583 -2.6564015,-0.00472881 0,0 Z"
       fill="#ed1c24"
       transform="translate(1114.6121,203.63251)"
       id="path3" /><path
       d="m 0,0 c 1.8910588,-0.00709108 3.7821071,-0.01767805 5.6731294,-0.03140372 5.1350676,-0.02729004 10.2688696,-0.0054695 15.4038736,0.02526528 5.560948,0.02445783 11.121749,0.00237385 16.682702,-0.01360643 10.86678,-0.02391404 21.733082,-0.0052805 32.59982,0.02837618 12.664137,0.03776721 25.328164,0.03426834 37.992345,0.02956076 23.27578,-0.007074 46.5513,0.02867391 69.82699,0.08419252 21.23067,0.0504163 42.46111,0.0682121 63.69184,0.0566468 1.36481,-7.3328e-4 2.72962,-0.001466 4.09443,-0.002198 0.67475,-3.6234e-4 1.3495,-7.2468e-4 2.0447,-0.001098 3.39691,-0.001808 6.79382,-0.003546 10.19073,-0.005208 1.00533,-4.9631e-4 1.00533,-4.9631e-4 2.03098,-0.001003 17.77089,-0.008348 35.54176,0.007271 53.31263,0.0303518 1.26326,0.001638 2.52653,0.003276 3.82807,0.004964 2.53693,0.003291 5.07386,0.006612 7.6108,0.009966 8.82411,0.0107673 17.64818,0.0110524 26.4723,0.007703 10.7481,-0.003562 21.49598,0.0113643 32.24401,0.0495599 5.48184,0.0190925 10.96338,0.0303145 16.44525,0.0199191 5.01954,-0.009259 10.03847,0.00464 15.05792,0.0369007 1.81382,0.007656 3.62769,0.00695 5.4415,-0.003053 11.14225,-0.0556526 19.88395,0.53355279 28.58947,8.21281491 0.73992,0.8726953 1.47984,1.7453902 2.24219,2.6445312 0.82242,0.953906 1.64484,1.907812 2.49218,2.890625 2.87241,3.522233 5.68387,7.085018 8.39844,10.730469 2.69104,2.971798 4.20641,4.63139 7.98438,6.191406 4.466,-0.718515 8.58065,-2.310976 12.8125,-3.875 2.53173,-0.873041 5.06469,-1.739929 7.60156,-2.597656 0.63929,-0.218411 1.27858,-0.436821 1.93724,-0.66185 25.92816,-8.77891 53.44001,-12.245246 80.6487,-13.8654939 0.96599,-0.057847 1.93198,-0.1156934 2.92724,-0.175293 6.35527,-0.3649217 12.70991,-0.6350858 19.07276,-0.824707 0.74218,-0.023364 1.48435,-0.046729 2.24902,-0.070801 44.62769,-1.2064277 87.47688,6.9214209 129.99976,19.8327639 0.68596,0.208274 1.37193,0.416548 2.07869,0.631134 1.84762,0.563475 3.6935,1.132703 5.53923,1.702362 1.03399,0.298498 2.06798,0.596997 3.1333,0.904541 0.84748,0.313484 1.69495,0.626968 2.56811,0.949951 2.68251,0.310615 2.68251,0.310615 5.13574,-2.052002 0.9821,-1.016918 1.9484,-2.049229 2.90162,-3.093262 0.52411,-0.544457 1.04822,-1.088915 1.58821,-1.649872 1.67962,-1.746317 3.33843,-3.510534 4.99382,-5.279815 17.30759,-18.4614344 17.30759,-18.4614344 29.64395,-18.9981987 1.10526,9.011e-4 2.21053,0.0018 3.34929,0.00273 1.91737,-0.00197 1.91737,-0.00197 3.87347,-0.00399 1.42309,0.00369 2.84618,0.0075 4.26927,0.011419 1.51189,5.879e-4 3.02378,7.715e-4 4.53566,5.856e-4 4.16948,9.431e-4 8.33893,0.00854 12.5084,0.017464 3.58096,0.00695 7.16193,0.010311 10.74289,0.013815 45.3664,0.046171 90.73259,0.2543544 136.09843,0.4700115 9.38423,0.044275 18.76848,0.084148 28.15274,0.1231526 9.27957,0.038773 18.55912,0.080693 27.83872,0.1248866 5.4451,0.025884 10.8903,0.050694 16.3355,0.072195 13.8219,0.055464 27.643,0.1419173 41.4642,0.290926 1.5401,0.016493 1.5401,0.016493 3.1113,0.03332 6.2953,0.070382 12.59,0.1588111 18.8848,0.268377 1.9636,0.032765 3.9273,0.061653 5.8911,0.086182 15.9862,0.2073323 30.7243,1.9996867 46.1128,6.6121208 0.8364,0.2441166 1.6729,0.4882326 2.5346,0.7397466 19.5995,5.872961 36.8289,16.163731 52.4654,29.260254 0.7103,0.586523 1.4205,1.173047 2.1523,1.777344 4.7736,4.04057 8.8962,8.380525 12.8477,13.222656 0.7734,0.935859 1.5469,1.871719 2.3437,2.835937 69.8177,86.390324 28.6563,276.036144 28.6563,339.164064 291.06,0.495 291.06,0.495 588,1 0,-50.49 0,-100.98 0,-153 1.1746,-65.77754 1.1746,-65.77754 1.9375,-87.625 0.064,-1.87223 0.064,-1.87223 0.1292,-3.78229 0.2926,-8.53163 0.6039,-17.06242 0.9333,-25.59271 0.06,-1.554 0.06,-1.554 0.1211,-3.1394 0.2137,-5.4558 0.4443,-10.9104 0.7043,-16.3642 0.073,-1.53959 0.1422,-3.07935 0.2078,-4.61926 1.312,-30.200715 11.8666,-56.181007 34.0215,-77.189641 12.2207,-11.151041 26.847,-15.653309 42.6953,-19.5000006 1.2023,-0.2922144 1.2023,-0.2922144 2.4289,-0.5903321 12.4391,-2.8364214 24.7189,-3.8957244 37.4519,-3.8578643 1.4068,-0.00303 2.8136,-0.00692 4.2204,-0.011593 3.8195,-0.010179 7.639,-0.00812 11.4585,-0.00382 4.137,0.00249 8.274,-0.00657 12.411,-0.014037 8.0853,-0.012696 16.1706,-0.014547 24.2559,-0.0122 6.5737,0.00179 13.1474,2.27e-5 19.7212,-0.00422 0.9381,-5.952e-4 1.8762,-0.00119 2.8428,-0.0018 1.9061,-0.00121 3.8123,-0.00243 5.7185,-0.00364 17.841,-0.010855 35.682,-0.00872 53.523,-0.00262 16.306,0.00517 32.6119,-0.0061 48.9179,-0.025098 16.7699,-0.019388 33.5398,-0.027633 50.3098,-0.023877 9.4044,0.00191 18.8088,-5.547e-4 28.2133,-0.014714 8.0018,-0.011927 16.0035,-0.013304 24.0053,-0.00121 4.0785,0.00588 8.1568,0.00702 12.2353,-0.005 3.7399,-0.010893 7.4794,-0.00771 11.2192,0.00626 1.9798,0.00388 3.9595,-0.00687 5.9392,-0.018297 10.951,0.065821 20.8004,1.9040575 30.3779,7.3340682 0.6278,0.3345108 1.2555,0.6690228 1.9023,1.0136718 2.8248,1.549764 5.0649,3.014147 7.2852,5.365234 0.8972,0.833379 0.8972,0.833379 1.8125,1.683594 3.3393,-0.132776 5.7983,-1.983116 8.5625,-3.75 12.7171,-7.7643498 25.1932,-11.7293582 40.1298,-11.6309508 1.1133,-0.00468 2.2266,-0.00936 3.3737,-0.014182 3.6977,-0.01188 7.395,-0.00252 11.0927,0.00695 2.6658,-0.00407 5.3315,-0.00931 7.9973,-0.01593 6.4749,-0.013296 12.9496,-0.010475 19.4245,-0.00176 5.2788,0.00681 10.5575,0.00768 15.8363,0.00443 0.7546,-4.597e-4 1.5091,-9.194e-4 2.2866,-0.00139 1.5336,-9.593e-4 3.0673,-0.00193 4.601,-0.00292 14.3689,-0.00855 28.7378,0.00126 43.1067,0.017401 12.2545,0.013342 24.5088,0.011124 36.7632,-0.00276 14.2872,-0.016176 28.5744,-0.022304 42.8616,-0.013163 1.5344,9.554e-4 3.0689,0.0019 4.6033,0.00283 1.1318,6.942e-4 1.1318,6.942e-4 2.2866,0.0014 5.244,0.00256 10.488,-0.00177 15.7321,-0.00884 138.0769,-0.1697108 138.0769,-0.1697108 184.5296,45.1588858 25.8615,26.203391 35.9377,65.003925 35.9707,101.000135 0,1.15517 0.01,2.31034 0.015,3.50051 0.013,3.18351 0.021,6.36699 0.027,9.55052 0.01,3.44161 0.022,6.88319 0.035,10.32478 0.022,5.95522 0.04,11.91044 0.056,17.86568 0.023,8.61016 0.051,17.2203 0.08,25.83045 0.048,13.971 0.091,27.94201 0.1315,41.91303 0.039,13.56772 0.081,27.13542 0.125,40.70312 0,1.25548 0,1.25548 0.01,2.53631 0.014,4.19909 0.027,8.39818 0.041,12.59727 0.1138,34.80938 0.2206,69.61878 0.3229,104.42819 0.8581,-0.201 1.7163,-0.40201 2.6004,-0.6091 3.2284,-0.75583 6.457,-1.51101 9.6857,-2.26575 1.389,-0.32484 2.778,-0.64993 4.1669,-0.9753 10.4046,-2.43713 20.8148,-4.81722 31.297,-6.89985 0.7245,-0.14408 1.4489,-0.28816 2.1954,-0.43661 48.1124,-9.48767 97.291,-8.09104 146.096,-7.92221 6.2832,0.0217 12.5663,0.0394 18.8495,0.0544 0.9037,0.002 1.8075,0.004 2.7387,0.007 1.8375,0.004 3.6749,0.009 5.5124,0.0133 17.1013,0.0417 34.2026,0.0967 51.3039,0.15619 15.5851,0.0538 31.1702,0.091 46.7553,0.1204 16.1018,0.0305 32.2035,0.072 48.3053,0.12528 9.0009,0.0296 18.0018,0.0551 27.0028,0.0691 7.6481,0.012 15.2961,0.0346 22.9442,0.0702 3.8877,0.0178 7.7753,0.0312 11.6631,0.0315 44.3718,0.0125 88.7214,5.50989 122.1334,37.27441 22.5161,23.42697 30.3604,53.19304 29.8174,84.76953 -0.029,2.36354 -0.056,4.7271 -0.081,7.09067 -0.056,5.06578 -0.1191,10.13139 -0.1869,15.19702 -0.1028,8.01961 -0.161,16.03916 -0.2072,24.05924 -0.01,1.3709 -0.016,2.74181 -0.024,4.11271 -0.016,2.77379 -0.032,5.54757 -0.048,8.32136 -0.041,7.1059 -0.082,14.21178 -0.13,21.31764 0,0.71214 -0.01,1.42427 -0.014,2.15799 -0.079,11.54636 -0.2307,23.09077 -0.4061,34.63601 -0.1787,11.89057 -0.269,23.77959 -0.2808,35.6715 -0.01,6.66342 -0.062,13.32196 -0.2142,19.98411 -0.142,6.2668 -0.1755,12.52503 -0.1277,18.79317 0,2.2908 -0.042,4.58197 -0.1257,6.87124 -0.399,10.43382 -0.399,10.43382 2.7787,20.20531 5.6702,5.72397 12.8747,9.0698 20.0691,12.48799 4.697,2.42313 8.8536,5.51338 13.0559,8.69951 0.8125,0.61099 1.6249,1.22198 2.462,1.85148 6.6938,5.06254 13.1078,10.42587 19.413,15.96102 0.7322,0.63293 1.4644,1.26586 2.2187,1.91797 1.9389,1.68112 3.861,3.37976 5.7813,5.08203 1.2181,1.06154 1.2181,1.06154 2.4609,2.14453 4.6411,4.09058 8.9157,8.2387 12.9024,12.96875 1.5928,1.83618 3.2618,3.51341 5.0117,5.19922 4.6183,4.55665 8.5994,9.60914 12.625,14.6875 0.7837,0.9784 1.5675,1.9568 2.375,2.96485 15.2788,19.4168 28.0983,40.69686 38.625,63.03515 0.3309,0.69916 0.6619,1.39831 1.0029,2.11865 12.6218,26.89223 21.0482,55.62467 25.9971,84.88135 0.1651,0.92684 0.3303,1.85367 0.5005,2.8086 5.9033,34.43106 3.5043,70.62106 -0.688,105.06646 -0.1458,1.1993 -0.2916,2.3986 -0.4419,3.6342 -2.8408,22.9016 -6.2089,45.9142 -11.6206,68.3658 -0.2896,1.2165 -0.5791,2.4329 -0.8775,3.6863 -19.264,79.3134 -55.6723,153.0344 -110.8725,213.4387 -0.9194,1.0129 -1.8387,2.0259 -2.7578,3.039 -6.6316,7.2937 -13.2978,14.4119 -20.7852,20.8399 -1.8955,1.6364 -3.768,3.2901 -5.6328,4.9609 -49.089,43.6888 -119.7352,80.9837 -186.8633,81.3633 -1.2528,0.011 -1.2528,0.011 -2.531,0.021 -2.685,0.017 -5.3698,0.024 -8.0549,0.026 -1.3783,10e-4 -1.3783,10e-4 -2.7844,0 -14.0834,-0.016 -27.7254,-0.6067 -41.5906,-3.252 -0.8854,-0.1557 -1.7709,-0.3113 -2.6831,-0.4717 -35.149,-6.2523 -68.599,-20.644 -99.3169,-38.5283 -1.2954,-0.7464 -2.591,-1.4925 -3.8867,-2.2383 -2.7136,-1.5726 -5.4187,-3.157 -8.1133,-4.7617 -0.6781,0.5569 -1.3561,1.1137 -2.0547,1.6875 -1.9649,1.6111 -3.9326,3.2189 -5.9024,4.8242 -1.7983,1.4705 -3.5902,2.9491 -5.3671,4.4453 -30.9367,25.6456 -69.6072,42.6145 -108.6758,51.043 -1.4376,0.3154 -1.4376,0.3154 -2.9043,0.6372 -30.7848,6.4245 -65.394,5.9117 -96.0957,-0.6372 -1.2755,-0.2569 -1.2755,-0.2569 -2.5767,-0.5191 -37.7314,-7.7518 -75.691,-24.1521 -106.6064,-47.1367 -2.9112,-2.1538 -5.8655,-4.2459 -8.8169,-6.3442 -2.7562,1.2915 -5.07,2.7137 -7.4414,4.6172 -0.656,0.5184 -1.312,1.0369 -1.9878,1.571 -0.704,0.5566 -1.408,1.1133 -2.1333,1.6868 -33.2124,25.7548 -72.7922,43.0037 -114.4375,49.125 -1.1312,0.1751 -2.2623,0.3503 -3.4278,0.5307 -11.2794,1.599 -22.4405,1.8685 -33.8222,1.8443 -0.9644,-6e-4 -1.9287,0 -2.9222,0 -53.5811,-0.1384 -102.2285,-16.7414 -141.8278,-53.3733 -3.9294,1.5662 -6.3586,4.2934 -9.1875,7.3125 -30.4471,31.3814 -74.7974,50.6338 -117.8125,55.6875 -0.8611,0.1108 -1.7222,0.2217 -2.6094,0.3359 -45.0741,4.8201 -88.6057,-6.3891 -126.8096,-30.187 -0.6712,-0.4101 -1.3425,-0.8202 -2.0341,-1.2427 -0.5895,-0.368 -1.1789,-0.736 -1.7862,-1.1152 -2.0471,-1.0642 -2.0471,-1.0642 -5.7607,-0.791 -0.2076,0.8765 -0.4151,1.7531 -0.6289,2.6562 -6.218,25.6005 -13.9761,50.0315 -26.3711,73.3438 -0.3735,0.7136 -0.747,1.4273 -1.1319,2.1626 -8.4417,16.0646 -18.4733,30.6583 -30.4848,44.2654 -0.9985,1.1347 -1.9887,2.2768 -2.9737,3.4233 -10.0755,11.6832 -21.0759,22.8507 -33.4096,32.1487 -0.5374,0.4138 -1.0748,0.8276 -1.6284,1.2539 -15.8568,12.1913 -33.0811,21.8996 -50.6905,31.3115 -2.5377,1.3578 -5.0688,2.7272 -7.5991,4.0986 -77.4507,41.716 -165.8552,48.0245 -403.082,48.336 -6.6224,-3.0603 -12.7163,-8.0063 -15.795,-14.7384 -3.2573,-9.1004 -2.6019,-18.5979 -2.5456,-28.1234 8e-4,-2.0113 4e-4,-4.0226 0,-6.0339 -9e-4,-5.4374 0.017,-10.8745 0.038,-16.3118 0.019,-5.6908 0.021,-11.3816 0.024,-17.0724 0.01,-10.7662 0.034,-21.5322 0.064,-32.2984 0.034,-12.2611 0.05,-24.5223 0.065,-36.7835 0.031,-25.2128 0.084,-50.4255 0.151,-75.6382 -0.5729,0 -1.1459,0 -1.7362,0.01 -2.6236,0.01 -5.2471,0.015 -7.8708,0.021 -0.9012,0 -1.8024,0.01 -2.7309,0.011 -6.4954,0.011 -12.8461,-0.2805 -19.2871,-1.1641 -0.9845,-0.1305 -1.9691,-0.2611 -2.9834,-0.3955 -41.2519,-5.8561 -83.2982,-21.6721 -113.3916,-51.4795 -0.33,-0.66 -0.66,-1.32 -1,-2 -3.4904,1.3427 -6.8007,2.8634 -10.1211,4.582 -24.5195,12.5594 -49.4643,23.4376 -75.5672,32.2927 -2.289,0.7778 -4.5728,1.5713 -6.852,2.3775 -9.4664,3.2877 -18.9628,5.6613 -28.7722,7.6853 -0.8066,0.1682 -1.6131,0.3365 -2.4441,0.5098 -19.1586,3.9696 -38.4426,6.8809 -57.8587,9.2584 -2.1945,0.2708 -4.3873,0.5527 -6.58,0.8377 -44.441,5.5607 -93.2358,5.5088 -137.6465,-0.2648 -2.3511,-0.3035 -4.7037,-0.5925 -7.0567,-0.8807 -52.6501,-6.5172 -103.68477,-18.2546 -152.10152,-40.3979 -0.92893,-0.4246 -1.85786,-0.8492 -2.81494,-1.2866 -10.09581,-4.6454 -19.89832,-9.4288 -29.27491,-15.4126 -3.60288,-1.6105 -5.1209,-1.2516 -8.91015,-0.3008 -2.59818,1.4085 -2.59818,1.4085 -5.05469,3.2812 -0.9365,0.6729 -1.87301,1.3458 -2.83789,2.0391 -1.4763,1.0789 -1.4763,1.0789 -2.98242,2.1797 -8.52987,6.0843 -17.04953,11.667 -26.32032,16.5395 -1.7745,0.9444 -3.52438,1.9346 -5.27343,2.9253 -70.52096,39.7523 -159.1895,45.0755 -236.21875,23.7227 -38.62165,-11.1005 -76.98731,-27.3653 -108.90625,-52.211 -0.72397,-0.5626 -1.44794,-1.1253 -2.19385,-1.705 -1.35248,-1.0668 -2.6918,-2.1506 -4.01465,-3.2539 -2.78387,-2.2199 -4.54487,-3.5064 -8.1626,-3.5684 -3.73666,1.2936 -7.20605,2.9507 -10.72265,4.7383 -38.14654,18.608 -79.28125,31.7896 -120.3125,42.3125 -1.12608,0.2897 -1.12608,0.2897 -2.2749,0.5853 -87.60334,22.4628 -178.14151,29.8399 -331.6077929,27.6497 -3.07288337,-0.2317 -6.1462639,-0.4553 -9.2198487,-0.6774 -78.2971184,-5.7277 -164.5753884,-17.3609 -229.8974584,-64.5576 -1.59715,-1.1408 -1.59715,-1.1408 -3.22657,-2.3047 -23.63692,-17.2939 -23.63692,-17.2939 -26.77343,-30.6953 -0.91165,-6.0601 -1.14332,-11.939 -1.13143,-18.0614 -0.002,-0.9906 -0.004,-1.9811 -0.006,-3.0017 -0.006,-3.3215 -0.004,-6.643 -0.003,-9.9646 -0.003,-2.4045 -0.006,-4.8091 -0.009,-7.2136 -0.007,-5.9168 -0.01,-11.8335 -0.0103,-17.7503 -9.1e-4,-7.0886 -0.008,-14.1772 -0.0143,-21.2658 -0.0161,-17.1288 -0.022,-34.2577 -0.0267,-51.3865 -0.002,-8.1035 -0.006,-16.2069 -0.01,-24.3104 -0.0128,-27.742 -0.0236,-55.4839 -0.027,-83.2259 -2.2e-4,-1.7408 -4.4e-4,-3.4815 -6.7e-4,-5.2222 -2.2e-4,-1.7449 -4.4e-4,-3.4898 -6.6e-4,-5.2347 -4.4e-4,-3.5005 -8.9e-4,-7.0011 -10e-4,-10.5016 -1.1e-4,-0.8679 -2.2e-4,-1.7358 -3.3e-4,-2.6301 -0.004,-28.1532 -0.0196,-56.3063 -0.0429,-84.4595 -0.0246,-29.77 -0.0383,-59.54003 -0.0395,-89.31002 -1.7e-4,-3.26746 -3.9e-4,-6.53491 -6.3e-4,-9.80236 -6e-5,-0.80453 -1.1e-4,-1.60906 -1.7e-4,-2.43798 -0.001,-12.94831 -0.0122,-25.89659 -0.0267,-38.8449 -0.0144,-13.01153 -0.0176,-26.02304 -0.01,-39.03458 0.004,-7.72979 5.9e-4,-15.45947 -0.0152,-23.18925 -0.0109,-5.77152 -0.006,-11.54294 0.005,-17.31445 0.002,-2.33505 -0.001,-4.67012 -0.01,-7.00515 -0.0111,-3.17353 -0.004,-6.3465 0.008,-9.52001 -0.008,-0.90678 -0.0152,-1.81355 -0.023,-2.74781 0.0715,-8.74262 1.90977,-16.88809 7.55414,-23.75885 6.7154,-6.58983 13.85104,-8.74923 23.02832,-9.1189 1.1019,-0.0643 2.20381,-0.12858 3.33911,-0.19482 19.79713,-1.02893 39.65477,-1.18638 59.47339,-1.49268 -1.37058,-2.64057 -2.74163,-5.28089 -4.11328,-7.9209 -1.18844,-2.28792 -2.37591,-4.57635 -3.5625,-6.86523 -2.61971,-5.04647 -5.24053,-10.08979 -7.95704,-15.08496 -36.86946,-67.95623 -59.11652,-145.77998 -53.43516,-485.85358 5.46915,-18.4148 11.71968,-36.52073 19.06798,-54.27533 0.42217,-1.02174 0.84433,-2.04348 1.27929,-3.09619 18.91206,-45.29651 44.68809,-88.07767 78.16602,-124.130368 2.0672,-2.244208 4.07504,-4.515296 6.05469,-6.835937 6.88007,-7.919506 14.49941,-15.165575 22.5,-21.9375 0.9075,-0.796641 1.815,-1.593281 2.75,-2.414063 18.471038,-16.110325 39.02147,-29.453439 60.687497,-40.835937 1.568991,-0.831325 1.568991,-0.831325 3.169678,-1.679444 3.430389,-1.766599 6.899341,-3.433859 10.392822,-5.0705558 1.058959,-0.4998944 1.058959,-0.4998944 2.139311,-1.0098877 C -24.732581,2.0764862 -14.002858,-0.16874074 0,0 Z m -18.760877,58.944803 c -2.682545,1.492778 -5.455829,2.773503 -8.233817,4.077284 -3.267896,1.563225 -6.457288,3.27202 -9.654629,4.973595 -0.643564,0.335801 -1.287128,0.671601 -1.950195,1.017578 -16.878597,8.846366 -31.940332,20.226291 -46.049805,32.98242 -0.620039,0.55833 -1.240078,1.11665 -1.878906,1.6919 -13.025033,11.78502 -24.522171,24.30669 -35.121091,38.3081 -0.45375,0.59684 -0.9075,1.19367 -1.375,1.8086 -50.75212,67.0447 -77.41633,150.6245 -86.625,250.1914 -0.0463,0.69598 -0.0925,1.39197 -0.14017,2.10904 -0.8521,13.19279 -1.06307,26.36053 -1.04733,39.57846 9.3e-4,1.02707 0.002,2.05414 0.003,3.11234 0.16309,83.07113 16.77599,166.48935 58.7955,262.29831 1.33541,2.78959 2.64233,5.5906 3.93994,8.39795 8.7249,18.79343 18.78041,36.62632 29.71265,54.21972 24.961564,40.19221 24.961564,40.19221 21.236567,57.62403 -2.021249,5.98335 -5.420667,10.76032 -11.056767,13.79791 -4.7883,2.29769 -9.10495,2.43785 -14.34753,2.40814 -0.95702,0.0103 -1.91404,0.0207 -2.90005,0.0313 -3.13831,0.0293 -6.27597,0.0309 -9.4144,0.0322 -2.18577,0.015 -4.37152,0.0317 -6.55725,0.0501 -5.73414,0.0436 -11.46812,0.0637 -17.2024,0.0787 -5.85885,0.0196 -11.71754,0.0616 -17.57629,0.10163 -11.48172,0.0752 -22.9634,0.12556 -34.44531,0.16015 -0.18093,52.17401 -0.35589,104.34804 -0.49773,156.52217 -0.002,0.77185 -0.004,1.54369 -0.006,2.33893 -0.0456,16.77314 -0.0901,33.54634 -0.13342,50.31944 -0.0213,8.2253 -0.0428,16.4505 -0.0644,24.6757 -0.002,0.8185 -0.004,1.637 -0.007,2.4803 -0.0698,26.5441 -0.15586,53.0882 -0.25035,79.6322 -0.097,27.271 -0.17761,54.542 -0.23754,81.8131 -0.008,3.8493 -0.0171,7.6987 -0.0259,11.5481 -0.002,0.7576 -0.003,1.5152 -0.005,2.2958 -0.0282,12.2097 -0.0737,24.4192 -0.1257,36.6287 -0.0518,12.2664 -0.0855,24.5327 -0.10056,36.7991 -0.009,6.6497 -0.0261,13.2991 -0.065,19.9487 -0.0354,6.0815 -0.0479,12.1626 -0.0418,18.2441 -0.002,2.2061 -0.0124,4.4121 -0.032,6.618 -0.0254,2.9879 -0.0203,5.9742 -0.007,8.9621 -0.0147,0.8661 -0.0295,1.7321 -0.0447,2.6244 0.0531,4.3133 0.2085,6.0053 2.99231,9.4795 71.88196,56.0998 183.144556,58.3161 270.000713,58.2586 2.123919,0 4.247835,0 6.371754,0 17.753088,-0.01 35.481493,-0.1931 53.217013,-1.0627 0.8046,-0.039 1.60921,-0.078 2.4382,-0.1188 4.69711,-0.2373 9.38968,-0.5215 14.08209,-0.838 1.75035,-0.1158 3.5011,-0.2256 5.25214,-0.3304 19.36471,-1.1667 38.50954,-3.6611 57.71609,-6.3039 4.34493,-0.5977 8.69164,-1.1812 13.03902,-1.7608 61.88073,-8.2728 125.45804,-18.6874 182.71074,-44.6286 5.06385,-2.2881 10.19082,-4.1408 15.44531,-5.9492 10.39718,-3.6781 20.32281,-8.0036 29.97168,-13.3394 11.43488,-6.2458 25.19315,-12.0103 38.40723,-8.8559 5.45563,2.5656 10.0562,6.5726 14.75537,10.2934 3.79478,2.8851 7.82192,5.3824 11.86963,7.8941 0.80083,0.5003 1.60166,1.0006 2.42676,1.5161 2.31174,1.4393 4.62865,2.8698 6.94824,4.2964 0.66241,0.4085 1.32483,0.8169 2.00732,1.2378 9.34157,5.7407 18.85365,11.1641 28.48828,16.3969 1.71897,0.9371 3.43396,1.8815 5.14551,2.8321 33.29097,18.4534 72.3752,30.5572 110.71045,30.7363 1.4639,0.01 1.4639,0.01 2.95737,0.017 2.06237,0.01 4.12477,0.016 6.18716,0.02 3.0719,0.01 6.1431,0.041 9.21484,0.072 18.07578,0.097 35.80138,-1.7754 53.47657,-5.625 1.48186,-0.3186 1.48186,-0.3186 2.99365,-0.6436 35.55761,-7.8661 69.94284,-22.6486 98.21997,-45.653 5.87769,-4.7292 11.97862,-8.7475 18.59888,-12.3909 0.65613,-0.3803 1.31226,-0.7606 1.98828,-1.1524 7.21849,-3.4732 18.0653,-3.2691 25.70312,-1.0742 2.5576,1.2544 4.90129,2.7018 7.3086,4.2266 2.73352,1.5713 5.49228,3.0966 8.25,4.625 1.15435,0.6437 1.15435,0.6437 2.33203,1.3005 53.94807,29.9572 113.37794,46.6564 174.41804,54.0745 1.1854,0.151 2.3708,0.3019 3.5923,0.4575 19.9693,2.458 39.8622,2.8313 59.9702,2.855 1.2228,0 2.4455,0.01 3.7054,0.011 56.683,0.09 111.6501,-9.8351 165.3571,-27.5733 0.7454,-0.2442 1.4909,-0.4885 2.2589,-0.7401 11.2644,-3.7146 21.9223,-8.0358 31.8661,-14.6349 13.7288,-8.5682 28.5337,-15.5139 43.5,-21.625 0.9028,-0.3828 1.8056,-0.7656 2.7358,-1.1599 7.6721,-3.0148 16.3003,-4.4381 24.1392,-1.1526 5.2234,3.0624 9.5361,7.3878 13.875,11.5625 0.6187,0.5788 1.2375,1.1576 1.875,1.7539 3.4149,3.2805 6.3366,6.7631 9.25,10.4961 15.8777,19.5459 39.4369,31.1134 64.2684,34.0312 10.2146,0.9863 20.4786,1.03 30.7316,1.2188 10.6057,0.1975 21.2065,0.399 31.8008,0.9531 0.7149,0.035 1.43,0.071 2.1666,0.1068 9.5424,0.544 20.3679,2.0471 27.9076,8.4401 13.5978,18.2721 7.132,53.8436 7.1014,75.5972 -0.01,5.2663 -0.01,10.5326 -0.01,15.7989 0,9.937 -0.011,19.874 -0.021,29.811 -0.011,11.328 -0.017,22.656 -0.022,33.9839 -0.01,23.2697 -0.028,46.5393 -0.05,69.809 5.8724,0.2833 11.745,0.5638 17.6178,0.8418 1.9918,0.095 3.9836,0.1901 5.9754,0.2863 14.8345,0.7158 29.6151,1.1702 44.4693,1.0594 2.0652,-0.01 4.1303,-0.016 6.1955,-0.024 17.2595,-0.084 34.4983,-0.4235 51.742,-1.1636 1.3624,-0.055 2.7249,-0.1089 4.0874,-0.1631 71.3242,-2.9157 158.157,-15.1611 256.9126,-77.8369 1.3538,-1.1463 2.7079,-2.2922 4.0625,-3.4375 9.1631,-8.0999 17.4866,-16.8636 24.9375,-26.5625 0.4157,-0.5393 0.8314,-1.0786 1.2597,-1.6343 31.4767,-41.0945 50.5448,-89.4988 63.1548,-139.3567 2.4121,-9.3092 5.5351,-15.4282 13.5855,-21.009 5.6732,-3.1492 11.5998,-3.9083 18,-3 4.6016,1.9243 7.8297,4.6755 11.625,7.875 30.9744,25.7345 72.2446,47.6786 113.1875,47.375 0.6621,0 1.3242,-0.01 2.0064,-0.01 36.4804,-0.2219 68.5457,-13.057 96.2289,-36.5843 1.9067,-1.6167 3.8294,-3.212 5.7569,-4.8038 8.9363,-7.4367 16.4807,-15.4551 23.7578,-24.539 10.5517,-13.0009 10.5517,-13.0009 17.4375,-14.3125 8.1843,-0.2135 13.8253,2.1979 19.8659,7.6994 1.8899,1.9046 3.7339,3.8457 5.5716,5.8006 7.8833,8.1169 16.3393,14.9691 25.5625,21.5 0.6432,0.456 1.2865,0.912 1.9492,1.3818 24.0861,16.8975 48.8579,28.31 78.0508,32.6182 0.8881,0.1328 1.7763,0.2655 2.6914,0.4023 52.3322,6.4641 104.334,-16.6562 145.1055,-47.5195 3.6699,-2.8904 7.2256,-5.8948 10.7421,-8.9688 0.6237,-0.5427 1.2474,-1.0853 1.8899,-1.6445 1.2271,-1.0714 2.4486,-2.1492 3.6636,-3.2344 5.8,-5.0796 10.298,-6.4631 18.0169,-6.2773 13.7057,1.1483 24.4118,9.2786 34.0039,18.4961 5.6853,5.4083 11.4004,9.9592 18.1367,13.9961 0.7816,0.4703 1.5631,0.9407 2.3684,1.4253 43.939,26.1609 98.1362,43.9127 149.3816,32.3247 0.8988,-0.1987 1.7976,-0.3974 2.7236,-0.6021 31.2126,-7.0697 60.0414,-21.2329 83.2764,-43.3979 1.9633,-1.7402 3.947,-3.4544 5.9336,-5.168 1.5196,-1.3473 3.0075,-2.7305 4.4765,-4.1328 9.5434,-9.0374 22.9323,-21.1988 36.668,-21.8437 15.3202,0.6716 26.9232,7.0494 38.4246,16.7197 24.8233,20.815 54.7135,30.1119 85.4973,38.4248 0.7668,0.2165 1.5336,0.4331 2.3237,0.6562 45.8283,12.4622 102.9694,-4.2012 142.9929,-26.738 32.0747,-18.4457 63.6014,-43.0694 86.5935,-72.2698 2.2106,-2.8014 4.5192,-5.5003 6.8399,-8.2109 15.2281,-18.2926 27.9491,-38.5292 39.25,-59.4375 0.4481,-0.8186 0.8962,-1.6371 1.3579,-2.4805 28.4054,-52.0622 45.347,-110.2892 53.2937,-168.9502 0.2648,-1.9529 0.5558,-3.9023 0.8589,-5.8496 1.8285,-13.0609 1.8272,-26.0931 1.8052,-39.2637 0,-3.9205 0.02,-7.8403 0.046,-11.7607 0.054,-21.0088 -1.6321,-41.57035 -6.0488,-62.13284 -0.2549,-1.19971 -0.5098,-2.39943 -0.7725,-3.6355 -12.4792,-56.7341 -42.1238,-111.9385 -89.1885,-147.34887 -2.8151,-2.12554 -5.4524,-4.39544 -8.0837,-6.74243 -12.6124,-11.15882 -27.4666,-18.16352 -42.739,-25.0188 -8.0908,-3.73742 -16.8842,-8.18249 -20.5288,-16.8169 -0.2502,-2.08895 -0.2502,-2.08895 -0.2506,-4.37025 -0.01,-0.87305 -0.01,-1.74609 -0.015,-2.64559 0,-0.95475 0.01,-1.90949 0.014,-2.89317 0,-1.01781 -0.01,-2.03561 -0.01,-3.08426 -0.01,-3.42133 0,-6.84248 0.01,-10.26381 0,-2.44913 -0.01,-4.89825 -0.011,-7.34738 -0.01,-5.2814 -0.01,-10.56275 -0.01,-15.84416 0,-7.65236 -0.01,-15.30465 -0.025,-22.95699 -0.026,-12.43697 -0.046,-24.87395 -0.059,-37.31094 -8e-4,-0.74445 0,-1.4889 0,-2.2559 -0.011,-10.54371 -0.016,-21.08741 -0.019,-31.63112 -2e-4,-0.74111 -4e-4,-1.48222 -6e-4,-2.24579 -3e-4,-1.11031 -3e-4,-1.11031 -6e-4,-2.24305 0,-12.37726 -0.023,-24.75445 -0.055,-37.13167 -0.019,-7.62391 -0.025,-15.24761 -0.014,-22.87154 0.01,-5.85812 -0.01,-11.71608 -0.028,-17.57417 -0.01,-2.39157 0,-4.78317 0.01,-7.17473 0.043,-12.7028 -0.2892,-24.08931 -4.5273,-36.15548 -0.311,-0.94739 -0.622,-1.89478 -0.9424,-2.87088 -5.1722,-15.23577 -17.9572,-27.11585 -32.0576,-34.12912 -20.1287,-9.23795 -41.6096,-9.45293 -63.3687,-9.33696 -3.5089,0.0153 -7.0178,0.0128 -10.5267,0.0129 -6.8961,0.003 -13.7922,0.0226 -20.6883,0.0485 -5.6518,0.021 -11.3037,0.0362 -16.9555,0.0475 -0.8125,0.002 -1.6249,0.003 -2.462,0.005 -1.6552,0.003 -3.3104,0.007 -4.9656,0.01 -15.7926,0.0326 -31.5852,0.0858 -47.3777,0.14544 -14.3744,0.0538 -28.7488,0.0893 -43.1233,0.11462 -17.7881,0.0315 -35.576,0.0781 -53.364,0.14345 -1.9418,0.007 -3.8835,0.0142 -5.8253,0.0212 -0.9564,0.003 -1.9128,0.007 -2.8982,0.0105 -6.6593,0.0233 -13.3185,0.0374 -19.9778,0.0478 -55.8661,-0.14632 -55.8661,-0.14632 -111.4669,4.7301 -1.2372,0.16432 -2.4743,0.32864 -3.7489,0.49794 -33.0926,4.44674 -64.8487,13.597 -96.255,24.74034 -1.6651,0.58806 -3.3305,1.17533 -4.9961,1.76172 -0.818,0.28915 -1.636,0.57831 -2.4788,0.87622 -8.4707,2.9241 -14.4694,3.39491 -22.8337,-0.43872 -6.1338,-3.32706 -9.4466,-6.71479 -11.6875,-13.4375 -0.093,-1.73409 -0.1266,-3.47156 -0.1275,-5.20812 0,-1.08554 -0.01,-2.17108 -0.01,-3.28952 0,-1.1974 0,-2.39481 0.01,-3.6285 0,-1.26883 0,-2.53766 -0.01,-3.84493 0,-2.79208 -0.01,-5.58414 -0.01,-8.37622 0,-4.54471 0,-9.08939 -0.01,-13.63409 -0.01,-6.60677 -0.013,-13.21353 -0.016,-19.82031 -0.01,-10.48338 -0.022,-20.96673 -0.041,-31.45009 -0.01,-3.59351 -0.013,-7.18701 -0.019,-10.78052 0,-0.89839 0,-1.79679 0,-2.72241 -0.018,-10.23712 -0.034,-20.47423 -0.049,-30.71135 0,-0.93584 0,-1.87167 0,-2.83587 -0.022,-15.06889 -0.033,-30.13777 -0.04,-45.20668 -0.01,-15.52217 -0.032,-31.04428 -0.068,-46.56641 -0.02,-8.69349 -0.033,-17.38686 -0.027,-26.08036 0.2426,-43.28477 0.2426,-43.28477 -2.1134,-86.47865 -0.091,-1.15647 -0.091,-1.15647 -0.1834,-2.33629 -1.2815,-15.45563 -7.9223,-27.607396 -18.2806,-39.029678 -1.1814,-1.338047 -1.1814,-1.338047 -2.3867,-2.703125 -14.8235,-15.864913 -35.0143,-25.162834 -56.7,-26.48508 -3.2782,-0.07575 -6.5511,-0.09289 -9.8301,-0.08595 -1.2446,-0.0052 -2.4892,-0.01047 -3.7715,-0.01587 -3.4197,-0.01232 -6.8393,-0.01585 -10.259,-0.0154 -3.7015,-0.0017 -7.4029,-0.01475 -11.1043,-0.02619 -8.0741,-0.02275 -16.1482,-0.03076 -24.2223,-0.03583 -5.0462,-0.0033 -10.0924,-0.0098 -15.1386,-0.017 -13.9883,-0.01955 -27.9767,-0.03596 -41.965,-0.03888 -0.8932,-1.87e-4 -1.7864,-3.75e-4 -2.7068,-5.68e-4 -1.8105,-3.66e-4 -3.621,-7.3e-4 -5.4315,-0.0011 -1.3479,-2.75e-4 -1.3479,-2.75e-4 -2.7231,-5.54e-4 -0.8997,-1.81e-4 -1.7995,-3.61e-4 -2.7265,-5.47e-4 -14.5939,-0.0035 -29.1878,-0.0306 -43.7817,-0.06795 -15.0047,-0.0381 -30.0094,-0.05745 -45.0142,-0.05775 -8.4163,-5.84e-4 -16.8325,-0.009 -25.2487,-0.038 -7.1617,-0.02453 -14.3232,-0.03179 -21.4849,-0.01675 -3.651,0.0072 -7.3016,0.0064 -10.9525,-0.01641 -3.9635,-0.02447 -7.9264,-0.0099 -11.8899,0.0082 -1.7183,-0.0198 -1.7183,-0.0198 -3.4713,-0.04 -9.8935,0.103312 -16.8454,3.416889 -24.4415,9.654731 -10.4468,7.87228 -23.7846,11.301249 -36.75,10 -10.8915,-2.756032 -21.3282,-10.311548 -29.8215,-17.552972 -2.5098,-1.667077 -3.7862,-1.835302 -6.768,-1.870475 -0.9318,-0.018 -1.8636,-0.036 -2.8237,-0.05454 -1.0307,-0.0046 -2.0615,-0.0092 -3.1234,-0.01396 -1.1132,-0.01644 -2.2264,-0.03288 -3.3733,-0.04981 -3.1523,-0.0427 -6.3043,-0.07149 -9.4568,-0.09421 -2.7645,-0.02228 -5.5288,-0.0555 -8.2933,-0.0885 -10.7797,-0.127806 -21.5598,-0.203259 -32.34,-0.27553 -1.9678,-0.01355 -3.9355,-0.02711 -5.9033,-0.04069 -30.9176,-0.211146 -61.8354,-0.351745 -92.7534,-0.476724 -11.0005,-0.04466 -22.0009,-0.09372 -33.0014,-0.143249 -10.7386,-0.04833 -21.4773,-0.09485 -32.2159,-0.141012 -3.3437,-0.01443 -6.6874,-0.02905 -10.0311,-0.0437 -11.3496,-0.04925 -22.6991,-0.09246 -34.0488,-0.12419 -6.1983,-0.01829 -12.3964,-0.04827 -18.5945,-0.08536 -4.1788,-0.02333 -8.3577,-0.0391 -12.5365,-0.05333 -1.9534,-0.0082 -3.9068,-0.01954 -5.8602,-0.03433 -29.1854,-1.049701 -29.1854,-1.049701 -54.6174,10.392578 -8.536,9.63038 -11.8111,21.005017 -14.125,33.4375 -0.2121,1.088615 -0.4241,2.177225 -0.6426,3.298825 -0.5784,3.0017 -1.1468,6.00182 -1.6699,9.01367 -0.1735,0.94625 -0.347,1.89251 -0.5257,2.86743 -0.7976,5.69547 -0.5961,11.44658 -0.572,17.18457 0,2.02346 0,4.04692 0.01,6.07038 0,2.1835 0.01,4.36699 0.016,6.55048 0.014,4.65614 0.02,9.31226 0.025,13.96841 0.01,6.71511 0.019,13.43022 0.032,20.14532 0.033,17.73519 0.042,35.47039 0.045,53.2056 2e-4,0.89826 5e-4,1.79652 7e-4,2.722 0.01,35.6595 -0.1369,71.31668 -0.4169,106.97505 -0.033,4.14155 -0.064,8.2831 -0.094,12.42466 -0.1015,14.01668 -0.2198,28.03279 -0.4073,42.04862 -0.072,5.42035 -0.1248,10.83983 -0.145,16.26062 -0.019,3.36068 -0.074,6.72044 -0.1253,10.08077 0,1.09062 0.01,2.18124 0.015,3.30491 -0.1669,7.14542 -2.0988,11.81474 -6.8544,17.19118 -4.4377,3.92441 -8.4681,6.1243 -14.4347,6.1265 -0.9149,0.003 -1.8297,0.006 -2.7723,0.008 -1.0086,-0.002 -2.0171,-0.004 -3.0562,-0.006 -1.0732,0.002 -2.1463,0.003 -3.252,0.005 -3.6328,0.005 -7.2655,0.002 -10.8983,-2.4e-4 -2.6164,0.002 -5.2328,0.004 -7.8492,0.007 -5.708,0.005 -11.416,0.007 -17.124,0.006 -8.489,-0.002 -16.978,0.003 -25.467,0.008 -16.0479,0.01 -32.0958,0.0125 -48.1437,0.0131 -12.4019,4.5e-4 -24.8039,0.003 -37.2059,0.006 -3.5684,8.9e-4 -7.1368,0.002 -10.7053,0.003 -0.8871,2.2e-4 -1.7742,4.4e-4 -2.6882,6.7e-4 -24.9697,0.006 -49.9393,0.0101 -74.9089,0.01 -0.9422,-2e-5 -1.8843,-3e-5 -2.855,-5e-5 -4.7752,-8e-5 -9.5504,-1.8e-4 -14.3255,-2.8e-4 -0.9484,-2e-5 -1.8968,-4e-5 -2.8739,-6e-5 -1.9178,-5e-5 -3.8357,-9e-5 -5.7535,-1.3e-4 -29.7941,-6.1e-4 -59.5882,0.007 -89.3822,0.0206 -33.477,0.0154 -66.954,0.024 -100.431,0.023 -3.5753,-8e-5 -7.1507,-1.2e-4 -10.726,-1.6e-4 -0.8803,-10e-6 -1.7606,-2e-5 -2.6676,-3e-5 -14.1312,-3e-5 -28.2623,0.006 -42.3935,0.015 -14.2278,0.009 -28.4556,0.009 -42.6835,0.003 -8.4375,-0.004 -16.875,-0.002 -25.3126,0.008 -5.656,0.006 -11.312,0.005 -16.9681,-0.002 -3.2099,-0.004 -6.4198,-0.004 -9.6297,0.003 -12.4112,0.0256 -24.8016,-0.14492 -37.1927,-0.8959 -1.0208,-0.044 -2.0417,-0.088 -3.0935,-0.13333 -6.9422,-0.50406 -11.1839,-2.37888 -16.206,-7.22622 -1.8399,-2.19531 -1.8399,-2.19531 -2.9375,-4.125 -0.3803,-0.64195 -0.7606,-1.2839 -1.1524,-1.94531 -1.712,-3.62975 -2.0357,-6.93089 -2.0404,-10.91791 -0.01,-1.51639 -0.01,-1.51639 -0.011,-3.06342 0,-1.10882 0,-2.21764 0,-3.36006 0,-1.17958 -0.01,-2.35917 -0.01,-3.5745 -0.01,-3.27583 -0.01,-6.55162 -0.01,-9.82746 0,-3.53347 -0.01,-7.06692 -0.016,-10.60039 -0.012,-6.12769 -0.02,-12.25538 -0.026,-18.38308 -0.01,-9.70588 -0.031,-19.41173 -0.053,-29.11759 -0.01,-3.32446 -0.015,-6.64892 -0.022,-9.97339 0,-0.83097 0,-1.66193 -0.01,-2.51808 -0.021,-9.46267 -0.04,-18.92533 -0.058,-28.388 0,-1.29744 0,-1.29744 0,-2.6211 -0.026,-13.9713 -0.045,-27.9426 -0.062,-41.91392 -0.018,-14.37063 -0.046,-28.74122 -0.085,-43.11181 -0.023,-8.84608 -0.037,-17.69207 -0.039,-26.53818 0,-6.08334 -0.015,-12.1666 -0.036,-18.2499 -0.012,-3.49651 -0.019,-6.99286 -0.013,-10.48939 0.013,-12.78628 -0.1471,-25.43651 -1.7249,-38.13946 -0.1671,-1.38104 -0.1671,-1.38104 -0.3375,-2.78997 -1.1884,-8.38638 -4.3254,-14.50115 -9.3591,-21.352075 -0.5951,-0.837971 -0.5951,-0.837971 -1.2022,-1.692871 -16.2553,-22.844096 -40.7394,-39.700849 -68.6391,-44.829413 -5.6016,-0.774202 -11.2479,-0.643339 -16.8918,-0.658533 -1.2853,-0.0072 -2.5705,-0.01441 -3.8947,-0.02183 -3.5564,-0.01965 -7.1127,-0.03309 -10.6691,-0.04535 -3.053,-0.01131 -6.106,-0.02623 -9.159,-0.04112 -28.9376,-0.140695 -57.8757,-0.206372 -86.81357,-0.259321 -3.76393,-0.007 -7.52785,-0.01414 -11.29178,-0.02138 -0.93546,-0.0018 -1.87093,-0.0036 -2.83474,-0.0054 -15.16021,-0.03008 -30.32007,-0.09487 -45.48011,-0.173246 -15.57409,-0.07985 -31.148,-0.125615 -46.7223,-0.138956 -8.74078,-0.0084 -17.48094,-0.03211 -26.22151,-0.09467 -7.44188,-0.05323 -14.88306,-0.07595 -22.32513,-0.05889 -3.79519,0.0077 -7.58888,10e-4 -11.38383,-0.04528 -4.12003,-0.04986 -8.2368,-0.02953 -12.35704,-0.0027 -1.78762,-0.0383 -1.78762,-0.0383 -3.61135,-0.07737 -7.9375,0.132209 -11.81932,2.166243 -17.36732,7.839201 -1.05702,1.15196 -1.05702,1.15196 -2.13539,2.327193 -1.38991,1.360245 -2.78477,2.715482 -4.1875,4.0625 -2.52823,2.543332 -4.84783,5.169278 -7.125,7.9375 -5.91193,6.861086 -13.60001,12.984252 -22.74195,14.294433 -7.61015,0.464489 -14.33603,-2.068271 -21.40039,-4.538757 -32.5093,-11.318294 -66.35289,-18.960079 -100.55851,-22.758513 -1.22131,-0.14357 -1.22131,-0.14357 -2.46729,-0.290039 -49.61273,-5.027039 -100.86557,0.121512 -145.75805,22.558349 -9.86935,4.915923 -18.28249,7.730238 -29.14966,4.23169 -13.28793,-5.278003 -22.71199,-15.895472 -31.44922,-26.789063 -1.07701,-1.341914 -1.07701,-1.341914 -2.17578,-2.710937 -0.72402,-1.030225 -1.44804,-2.06045 -2.194,-3.121894 -2.12609,-2.52625 -2.66747,-2.846165 -6.0778,-3.632503 -1.88101,-0.0031 -1.88101,-0.0031 -3.80002,-0.0062 -0.70383,-0.0093 -1.40766,-0.01864 -2.13281,-0.02824 -2.36509,-0.02396 -4.72789,-0.0051 -7.093,0.01352 -1.71011,-0.0083 -3.42022,-0.0193 -5.1303,-0.03264 -4.70477,-0.02899 -9.40884,-0.0204 -14.11365,-0.0057 -5.07266,0.0094 -10.14517,-0.01554 -15.21779,-0.03603 -9.94364,-0.03444 -19.88703,-0.03604 -29.83071,-0.02557 -8.08851,0.0081 -16.17693,0.0052 -24.26544,-0.0055 -1.72631,-0.0022 -1.72631,-0.0022 -3.48749,-0.0045 -2.33811,-0.0031 -4.67621,-0.0061 -7.01432,-0.0092 -21.94586,-0.02748 -43.89158,-0.01656 -65.83744,0.0064 -20.04871,0.01983 -40.09705,-0.0059 -60.14571,-0.05387 -20.59816,-0.04886 -41.19615,-0.06798 -61.79436,-0.05469 -11.55901,0.007 -23.117727,0.0026 -34.676688,-0.0325 -9.849769,-0.02954 -19.699055,-0.03059 -29.548816,0.0041 -5.0194,0.01695 -10.037939,0.02149 -15.057293,-0.0093 C 6.6735007,50.281141 6.6735007,50.281141 -18.760877,58.94488 Z"
       fill="#231f20"
       transform="translate(280.64932,12.004318)"
       id="path4" /><path
       d="m 0,0 c 0.91289675,-0.00438225 1.8257935,-0.00876451 2.7663538,-0.01327956 3.0776959,-0.01341989 6.1553631,-0.01957398 9.2330812,-0.02569139 2.199053,-0.0078984 4.398104,-0.01616715 6.597153,-0.02478027 7.237379,-0.02624794 14.474763,-0.04152913 21.712174,-0.05578613 2.4881,-0.005358 4.9762,-0.0107358 7.4643,-0.0161324 10.346425,-0.0216316 20.692848,-0.0403701 31.03929,-0.0516224 2.685408,-0.00293 5.370816,-0.005891 8.056224,-0.008905 0.667455,-7.4605e-4 1.33491,-0.001492 2.022591,-0.002261 10.815075,-0.0126567 21.629983,-0.0458836 32.444983,-0.0875411 11.10019,-0.042406 22.20032,-0.0655785 33.3006,-0.0712133 6.23381,-0.00366 12.46734,-0.0157529 18.70107,-0.0481027 5.86298,-0.0299894 11.7255,-0.0364249 17.58854,-0.0246162 2.1539,2.2149e-4 4.30783,-0.008146 6.46167,-0.0256538 2.93704,-0.0225786 5.87243,-0.014449 8.80948,0.001484 1.28347,-0.0208231 1.28347,-0.0208231 2.59286,-0.0420669 4.25702,0.0570403 5.97783,0.24502971 9.44209,2.93806875 3.61002,4.7600773 4.34748,8.0758404 4.29728,14.0138724 0.002,0.740828 0.003,1.481655 0.005,2.244932 0.003,2.496219 -0.008,4.992172 -0.0186,7.488367 -5.6e-4,1.802275 -2.3e-4,3.60455 9e-4,5.406825 6e-4,4.963654 -0.0113,9.927214 -0.0251,14.890846 -0.0127,5.349196 -0.0139,10.698395 -0.0164,16.047605 -0.006,9.274038 -0.0187,18.548045 -0.0361,27.822069 -0.0251,13.420743 -0.0373,26.841473 -0.0459,40.262233 -0.0141,21.78886 -0.0357,43.5777 -0.0634,65.36655 -0.002,1.30474 -0.003,2.60948 -0.005,3.95376 -0.0135,10.58309 -0.0273,21.16618 -0.0412,31.74927 -0.0121,9.24059 -0.0241,18.48118 -0.0358,27.72177 -0.002,1.30104 -0.003,2.60207 -0.005,3.94253 -0.0274,21.69754 -0.0469,43.39509 -0.0608,65.09264 -0.009,13.38498 -0.025,26.76991 -0.0503,40.15487 -0.0169,9.17525 -0.0266,18.3505 -0.0309,27.52577 -0.003,5.29343 -0.009,10.58681 -0.0235,15.88023 -0.0135,4.84917 -0.0178,9.69825 -0.0147,14.54743 -5.4e-4,1.75107 -0.004,3.50216 -0.0122,5.25322 -0.0995,23.66983 5.45739,45.03816 21.23841,63.34721 0.78375,0.94875 1.5675,1.8975 2.375,2.875 7.14355,5.78287 15.7727,5.90829 24.625,5.125 7.44827,-1.3037 11.71237,-3.54546 16.26563,-9.71484 12.87148,-18.95831 14.05057,-46.34337 13.98593,-68.53202 0.002,-1.81177 0.005,-3.62354 0.009,-5.43531 0.008,-4.94316 0.004,-9.88624 -0.003,-14.8294 -0.005,-5.34412 0.003,-10.68824 0.008,-16.03236 0.009,-9.24822 0.0104,-18.49642 0.008,-27.74465 -0.003,-13.37557 0.009,-26.7511 0.0246,-40.12666 0.0259,-21.70924 0.046,-43.41848 0.0594,-65.12773 8.1e-4,-1.29793 0.002,-2.59586 0.002,-3.93313 0.0112,-18.44744 0.0165,-36.89488 0.0194,-55.34233 2.1e-4,-1.30096 4.1e-4,-2.60192 6.2e-4,-3.94231 2e-4,-1.29938 4e-4,-2.59876 6.1e-4,-3.93751 0.004,-21.64248 0.0228,-43.28492 0.0545,-64.92738 0.0189,-13.34882 0.0249,-26.697528 0.0142,-40.046361 -0.006,-9.134496 0.002,-18.268909 0.0211,-27.403387 0.0107,-5.274456 0.0148,-10.548706 0.002,-15.82316 -0.012,-4.823227 -0.006,-9.646067 0.0152,-14.46926 0.004,-1.749301 0.002,-3.498635 -0.008,-5.247914 -0.0124,-2.369278 -4e-4,-4.737202 0.0179,-7.106412 4.3e-4,-1.318394 8.7e-4,-2.636789 10e-4,-3.9951341 0.5009,-3.2827415 0.5009,-3.2827415 2.28961,-5.706323 3.41052,-2.431344 6.90225,-2.1241123 10.93479,-2.0776239 0.8901,-0.00553 1.7802,-0.011069 2.69728,-0.016771 2.98885,-0.013636 5.97686,0.00138 8.96569,0.016267 2.14024,-0.00378 4.28048,-0.00928 6.42071,-0.016373 5.81819,-0.013987 11.6361,-0.00276 17.45428,0.013711 6.08355,0.013829 12.16708,0.00739 18.25064,0.00387 10.21826,-0.0027 20.43641,0.010789 30.65465,0.033951 11.81862,0.026604 23.63705,0.02836 35.4557,0.016612 11.3611,-0.010775 22.72214,-0.00459 34.08324,0.00956 4.83842,0.00576 9.67679,0.00567 14.51521,9.346e-4 5.69716,-0.00477 11.3941,0.00533 17.09122,0.026955 2.09261,0.00557 4.18524,0.00603 6.27785,0.00105 2.85342,-0.00594 5.70619,0.00654 8.55955,0.023769 0.83094,-0.00601 1.66187,-0.01202 2.51798,-0.018212 5.027,0.055326 8.60431,0.6777022 12.3325,4.4058923 0.0982,1.5946475 0.12599,3.1936693 0.1265,4.7913391 0.003,1.045615 0.006,2.091231 0.008,3.168532 -0.002,1.165179 -0.004,2.330358 -0.006,3.530846 0.002,1.230153 0.004,2.460305 0.005,3.727735 0.004,3.445579 0.003,6.891106 7.2e-4,10.336683 -0.002,3.737127 0.002,7.474249 0.006,11.211376 0.005,6.560654 0.007,13.1213 0.006,19.681956 -0.002,9.756795 0.003,19.513581 0.008,29.270373 0.01,18.442679 0.0125,36.885369 0.0131,55.328049 4.6e-4,14.24988 0.003,28.49975 0.006,42.74963 9e-4,4.09809 0.002,8.19618 0.003,12.29427 2.2e-4,1.01877 4.4e-4,2.03754 6.7e-4,3.08718 0.006,28.67844 0.0101,57.35689 0.01,86.03533 -2e-5,1.0823 -4e-5,2.16461 -5e-5,3.27972 -8e-5,5.48582 -1.8e-4,10.97164 -2.9e-4,16.45746 -3e-5,1.6343 -3e-5,1.6343 -6e-5,3.30161 -4e-5,2.20331 -8e-5,4.40662 -1.2e-4,6.60992 -6.1e-4,34.2379 0.007,68.47578 0.0206,102.71367 0.0154,38.45628 0.024,76.91255 0.023,115.36883 -8e-5,4.10501 -1.3e-4,8.21002 -1.6e-4,12.31502 -10e-6,1.51616 -10e-6,1.51616 -3e-5,3.06294 -3e-5,16.24238 0.006,32.48475 0.015,48.72713 0.008,16.34523 0.009,32.69044 0.003,49.03567 -0.004,9.69994 -0.002,19.39984 0.008,29.09978 0.006,6.49502 0.005,12.99003 -0.002,19.48505 -0.004,3.69081 -0.005,7.38154 0.003,11.07233 0.13942,67.40818 -16.27117,134.56971 -64.25545,184.25757 -0.80953,0.86109 -1.61906,1.72219 -2.45312,2.60938 -10.73809,11.15374 -23.23956,19.61419 -36.54688,27.39062 -1.62615,0.95906 -1.62615,0.95906 -3.28516,1.9375 -25.85272,14.07293 -57.37378,17.23644 -86.31079,17.52246 -2.06664,0.0268 -4.13314,0.0679 -6.19922,0.12305 -3.01022,0.0792 -6.01794,0.11224 -9.02905,0.13574 -0.91682,0.033 -1.83364,0.066 -2.77824,0.1 -4.4634,-0.0139 -7.84724,-0.51277 -11.47103,-3.23865 -3.25419,-3.95108 -3.43664,-7.76708 -3.57495,-12.69454 -0.0327,-0.79332 -0.0653,-1.58664 -0.099,-2.404 -0.0984,-2.49357 -0.17694,-4.98719 -0.25256,-7.48154 -0.0535,-1.51153 -0.10754,-3.02304 -0.16201,-4.53453 -0.16138,-4.7374 -0.28004,-9.4754 -0.3895,-14.21425 -0.0209,-0.88328 -0.0419,-1.76656 -0.0635,-2.67661 -0.51888,-22.42216 -0.53713,-44.84521 -0.55369,-67.27231 -0.006,-7.50286 -0.0227,-15.00568 -0.0413,-22.50852 -0.006,-2.59272 -0.0127,-5.18543 -0.019,-7.77814 -0.003,-1.29496 -0.006,-2.58991 -0.01,-3.9241 -0.0434,-18.07097 -0.0763,-36.14189 -0.0888,-54.21291 -0.008,-11.16931 -0.0316,-22.33853 -0.0679,-33.50779 -0.0197,-6.23874 -0.0322,-12.4773 -0.0272,-18.71606 0.005,-5.83068 -0.009,-11.66102 -0.037,-17.49163 -0.007,-2.13779 -0.007,-4.27561 2e-4,-6.4134 0.009,-2.91286 -0.007,-5.8246 -0.0285,-8.73737 0.008,-0.84782 0.0169,-1.69563 0.0256,-2.56914 -0.055,-3.97131 -0.26605,-5.99592 -2.3743,-9.46574 -2.0785,-2.23718 -2.0785,-2.23718 -5.29245,-2.62984 -5.36316,0.90378 -9.19537,3.29542 -13.80859,6.08984 -2.04997,1.19633 -4.10219,2.38883 -6.15625,3.57813 -1.10602,0.64259 -2.21203,1.28519 -3.35156,1.94726 -48.9498,28.20662 -99.48719,48.40761 -156.36719,33.72461 -20.554896,-5.63636 -40.451965,-14.3036 -57.1875,-27.6875 -1.491864,-1.15705 -2.985525,-2.31178 -4.480468,-3.46484 -3.882392,-2.99927 -7.757251,-6.00759 -11.613038,-9.04102 -1.550456,-1.21511 -3.115115,-2.41208 -4.683837,-3.60351 -2.47584,-2.10599 -4.390907,-4.34478 -6.410157,-6.89063 -2.34834,-2.94899 -4.692051,-5.86435 -7.195312,-8.68359 -22.72112403,-25.75305 -37.812567,-63.18548 -37.751409,-97.64212 -0.0024,-0.91101 -0.0047,-1.82202 -0.0071,-2.76064 -0.0067,-3.05092 -0.0062,-6.10179 -0.0058,-9.15271 -0.0033,-2.21011 -0.007,-4.42022 -0.01114,-6.63033 -0.01,-6.07211 -0.01373,-12.14422 -0.01639,-18.21634 -0.0035,-5.87617 -0.01165,-11.75232 -0.01954,-17.62849 -0.02081,-15.73425 -0.03131,-31.4685 -0.04013,-47.20276 -0.0042,-7.44206 -0.0094,-14.88413 -0.01469,-22.32619 -0.01788,-25.47361 -0.03288,-50.94722 -0.04032,-76.42083 -4.74e-4,-1.59812 -9.5e-4,-3.19623 -0.0014,-4.79435 -2.37e-4,-0.79251 -4.73e-4,-1.58502 -7.17e-4,-2.40155 -0.0012,-4.0152 -0.0024,-8.03041 -0.0036,-12.04562 -2.4e-4,-0.79682 -4.8e-4,-1.59365 -7.27e-4,-2.41462 -0.0079,-25.86007 -0.03135,-51.7201 -0.06383,-77.58016 -0.03427,-27.34066 -0.05401,-54.6813 -0.0573,-82.02199 -4.18e-4,-2.99915 -8.97e-4,-5.99831 -0.0014,-8.99746 -1.23e-4,-0.73847 -2.47e-4,-1.47695 -3.73e-4,-2.23781 -0.0023,-11.89674 -0.01801,-23.79343 -0.03847,-35.69015 -0.02022,-11.947257 -0.02575,-23.894452 -0.01623,-35.841726 0.0046,-6.475517 0.0025,-12.950862 -0.01676,-19.426356 -0.01751,-5.922012 -0.01674,-11.843723 -0.0011,-17.765738 0.0024,-2.147887 -0.002,-4.295795 -0.01383,-6.443652 -0.01498,-2.909248 -0.0055,-5.817411 0.01023,-8.726631 -0.01022,-0.842903 -0.02044,-1.685806 -0.03098,-2.554251 0.04765,-3.9999348 0.232059,-5.931823 2.431898,-9.3906967 C -8.8896741,-0.58820964 -5.1515636,0.00297358 0,0 Z"
       fill="#ed1c24"
       transform="translate(1717.7108,593.8461)"
       id="path5" /><path
       d="m 0,0 c 1.7295403,-0.00761181 1.7295403,-0.00761181 3.4940209,-0.0153774 1.2725459,-4.9776e-4 2.5450918,-9.9552e-4 3.8561998,-0.0015084 1.3609238,-0.0040146 2.7218463,-0.0084528 4.0827673,-0.01327955 3.748018,-0.01197147 7.496023,-0.01761524 11.244057,-0.02218116 4.038925,-0.0059537 8.077834,-0.01756384 12.116749,-0.02829051 9.756353,-0.02452542 19.512711,-0.0391493 29.269086,-0.05206007 2.754206,-0.003711 5.508411,-0.007684 8.262617,-0.0117527 17.093967,-0.0252306 34.187933,-0.0472891 51.281913,-0.0597281 3.95957,-0.00293 7.91913,-0.005891 11.87869,-0.008905 0.98416,-7.4605e-4 1.96831,-0.001492 2.98229,-0.002261 15.95655,-0.0126642 31.91299,-0.0459019 47.86949,-0.0875411 16.37173,-0.0423737 32.74341,-0.0659823 49.1152,-0.0712133 9.19652,-0.003419 18.39287,-0.0152293 27.58934,-0.0481027 7.82887,-0.0279388 15.65753,-0.039027 23.48644,-0.0278045 3.99654,0.005202 7.99263,0.0022 11.9891,-0.0224655 3.65616,-0.0223776 7.31156,-0.0218437 10.96773,-0.002796 1.95442,0.004154 3.90884,-0.0164301 5.86314,-0.0377869 1.15564,0.0105719 2.31127,0.0211439 3.50192,0.0320362 0.99932,-0.001357 1.99864,-0.002713 3.02824,-0.004111 3.60811,0.86028889 4.67788,2.54110569 6.60931,5.62214319 -0.0547,3.014199 -0.56024,4.4434211 -2.42359,6.8017575 -0.60142,0.544951 -1.20285,1.089903 -1.82251,1.651367 -0.66709,0.614239 -1.33418,1.228477 -2.02148,1.861329 -1.07411,0.958095 -1.07411,0.958095 -2.16992,1.935546 -0.73283,0.669668 -1.46567,1.339336 -2.22071,2.029297 -2.10398,1.918285 -4.22021,3.821919 -6.34179,5.720703 -0.89848,0.809532 -1.79696,1.619063 -2.72266,2.453125 -1.54983,1.392987 -3.10065,2.784872 -4.65234,4.175782 -11.03183,9.964764 -21.66625,20.309618 -32.1875,30.808593 -0.56453,0.561941 -1.12906,1.123882 -1.7107,1.702851 -5.60783,5.587538 -11.16712,11.177331 -16.31054,17.202667 -1.98695,2.324669 -4.08093,4.545643 -6.16626,6.781982 -5.2955,5.809003 -10.12818,11.919666 -14.91504,18.150396 -1.24905,1.61362 -2.52166,3.20892 -3.7959,4.80273 -11.79439,14.88613 -21.74951,31.10658 -30.53906,47.92187 -0.34338,0.64341 -0.68675,1.28681 -1.04053,1.94971 -10.62349,20.11374 -18.09695,43.49813 -20.95947,66.05029 -0.14518,1.11424 -0.29036,2.22847 -0.43994,3.37647 -9.51292,76.72666 4.49353,137.44333 45.43994,202.62353 0.59377,0.95117 1.18755,1.90234 1.79931,2.88233 18.19285,29.0974 37.66247,57.45915 57.38819,85.53418 4.07455,5.80777 8.12365,11.63346 12.16504,17.46435 2.82749,4.07842 5.65739,8.15124 8.56933,12.16993 8.14908,11.34669 14.71373,23.57497 21.37549,35.82763 1.82517,3.34624 3.68032,6.67431 5.54688,9.99756 2.07248,3.69668 4.11353,7.41056 6.15576,11.12402 0.5406,0.97889 1.0812,1.95777 1.63818,2.96631 46.00282,83.56232 73.07282,170.05433 46.23633,264.25342 -8.50629,29.27907 -20.8457,58.03525 -38.87451,82.78027 -0.45698,0.63664 -0.91395,1.27328 -1.38477,1.9292 -14.68528,20.39347 -31.60093,39.75012 -51.61523,55.07079 -1.46567,1.1737 -1.46567,1.1737 -2.96094,2.3711 -70.34502,56.0183 -165.03242,81.4614 -253.818115,81.02 -3.462442,-0.017 -6.924191,-0.01 -10.386609,0.01 -25.9506924,0.1092 -51.668722,-1.7545 -77.271839,-6.1514 -0.746921,-0.1246 -1.493842,-0.2492 -2.263397,-0.3776 -11.503143,-1.9195 -22.947337,-4.1073 -34.361603,-6.4974 -0.675378,-0.14 -1.350756,-0.28 -2.0466,-0.4242 -22.278937,-4.6555 -22.278937,-4.6555 -31.015897,-10.5758 -1.33418,-0.8856 -1.33418,-0.8856 -2.69532,-1.789 -2.17968,-1.586 -2.17968,-1.586 -4.17968,-3.586 -0.253,-2.101 -0.253,-2.101 -0.25727,-4.7584 -0.006,-1.0104 -0.0129,-2.0209 -0.0195,-3.062 0.003,-1.1184 0.006,-2.2369 0.009,-3.3892 -0.005,-1.1817 -0.009,-2.3635 -0.0137,-3.581 -0.0105,-3.2904 -0.012,-6.5806 -0.01,-9.871 4.1e-4,-3.5448 -0.0106,-7.0896 -0.0201,-10.6343 -0.0166,-6.9494 -0.0221,-13.8988 -0.0232,-20.8482 -9.5e-4,-5.6483 -0.005,-11.2965 -0.0114,-16.94479 -0.0176,-16.00568 -0.0268,-32.01133 -0.0253,-48.01702 8e-5,-0.86352 1.6e-4,-1.72704 2.4e-4,-2.61673 8e-5,-0.86458 1.7e-4,-1.72915 2.5e-4,-2.61992 8.1e-4,-14.00883 -0.0183,-28.01755 -0.0465,-42.02635 -0.0287,-14.37612 -0.0425,-28.75218 -0.0408,-43.12833 6.7e-4,-8.07427 -0.005,-16.14843 -0.0263,-24.22268 -0.0182,-6.87582 -0.0226,-13.75148 -0.009,-20.62732 0.007,-3.50864 0.007,-7.01696 -0.0107,-10.52556 -0.0154,-3.80348 -0.006,-7.60613 0.009,-11.4096 -0.0103,-1.10953 -0.0206,-2.21906 -0.0312,-3.36222 0.0676,-7.50099 1.17728,-11.007 6.52565,-16.35537 6.83265,0 12.25007,4.38409 17.0039,8.90625 4.05672,4.39273 7.50622,9.14766 10.933597,14.03125 18.415102,26.23584 45.208538,44.60032 76.0625,53.0625 1.174336,0.33903 2.348672,0.67805 3.558594,1.02735 20.0704265,4.7703 44.730308,3.83645 64.441406,-2.02735 0.725904,-0.2143 1.451807,-0.42861 2.199707,-0.64941 17.776343,-5.47271 29.549735,-16.00006 38.976075,-31.88965 9.713872,-18.42931 11.200356,-38.48075 5.824218,-58.46094 C 90.288043,741.82164 83.961169,729.46804 77.696305,717.03155 76.00826,713.67669 74.33729,710.31373 72.667985,706.94951 65.616096,692.82932 58.012273,679.13988 49.930955,665.58489 47.947623,662.21961 46.056392,658.8107 44.175797,655.38701 38.295646,644.8226 31.894715,634.55912 25.596665,624.24079 22.471576,619.11775 19.379985,613.97523 16.300797,608.82451 12.063111,601.74162 7.7853424,594.68405 3.4882975,587.63701 -31.470017,530.27124 -64.874748,472.05824 -88.766952,409.09862 c -0.505158,-1.33054 -1.012136,-2.66039 -1.520752,-3.98962 -11.890636,-31.08934 -18.767486,-61.86998 -22.223996,-94.97199 -0.10313,-0.90846 -0.20625,-1.81693 -0.3125,-2.75293 -1.06982,-10.62553 -0.93142,-21.32915 -0.9375,-31.99707 -6.8e-4,-1.06424 -10e-4,-2.12848 -0.002,-3.22497 0.0771,-76.88489 22.101195,-151.6581 63.57529,-216.395143 1.748291,-2.742078 3.468436,-5.500392 5.18457,-8.262695 C -15.387572,0.03589329 -15.387572,0.03589329 0,0 Z"
       fill="#ed1c24"
       transform="translate(351.5117,202.86299)"
       id="path6" /><path
       d="M 0,0 C 0.83527222,0.00531738 1.6705444,0.01063477 2.5311279,0.01611328 14.60251,0.10612502 26.386522,0.29605488 38.125,3.375 c 0.961641,0.2475 1.923281,0.495 2.914062,0.75 22.056776,5.8529037 42.694059,14.640753 61.085938,28.25 0.56413,0.406216 1.12825,0.812432 1.70947,1.230957 C 137.81261,58.188152 159.8634,93.1457 167.125,134.375 c 5.42574,34.74633 -0.8211,75.3243 -21.33984,104.375 -5.64646,7.70032 -12.06815,14.73262 -18.66016,21.625 -0.88559,0.93844 -1.77117,1.87687 -2.68359,2.84375 C 92.258214,296.47627 45.990263,313.87414 0.13818359,314.67725 -10.011187,314.71252 -19.865537,314.07152 -29.875,312.375 c -1.85625,-0.30938 -1.85625,-0.30938 -3.75,-0.625 -32.978581,-6.04607 -61.935137,-21.41539 -86.25,-44.375 -0.78633,-0.72188 -1.57266,-1.44375 -2.38281,-2.1875 -12.26099,-11.66962 -22.16287,-25.64732 -29.61719,-40.8125 -0.31663,-0.64308 -0.63325,-1.28616 -0.95947,-1.94873 -13.62123,-28.45876 -18.37512,-66.30388 -10.04053,-97.05127 0.19868,-0.76989 0.39735,-1.53979 0.60205,-2.33301 5.98336,-22.83089 15.84597,-43.762356 31.39795,-61.66699 0.7077,-0.817266 1.41539,-1.634531 2.14453,-2.476563 C -106.07638,33.268773 -77.990975,15.101718 -45,5.6875 -44.342095,5.4971216 -43.684189,5.3067432 -43.006348,5.1105957 -28.694467,1.2232298 -14.775821,-0.15084159 0,0 Z"
       fill="#0066b3"
       transform="translate(899.875,201.625)"
       id="path7" /><path
       d="m 0,0 c 14.217277,8.6550789 20.740388,24.66494 24.743095,40.288307 2.081403,8.89945 2.774337,17.341131 2.750893,26.475426 0.0045,1.309635 0.0091,2.619271 0.01373,3.968592 0.01215,3.606119 0.01198,7.212145 0.0096,10.81828 -4.1e-4,3.900621 0.01065,7.801213 0.02012,11.701821 0.01656,7.630984 0.02211,15.261934 0.02322,22.892934 9.52e-4,6.2067 0.0051,12.4134 0.0114,18.6201 0.0176,17.62238 0.02684,35.24473 0.02534,52.86712 -8e-5,0.94867 -1.6e-4,1.89733 -2.42e-4,2.87474 -8.2e-5,0.94984 -1.64e-4,1.89967 -2.48e-4,2.87828 -8.13e-4,15.38925 0.01833,30.77839 0.04652,46.1676 0.02877,15.82625 0.04254,31.65246 0.04081,47.47874 -6.62e-4,8.87534 0.0048,17.75058 0.02636,26.6259 0.01827,7.5568 0.02251,15.11345 0.009,22.67026 -0.0065,3.85004 -0.0067,7.6998 0.01071,11.54982 0.124789,29.33881 0.124789,29.33881 -4.503739,41.47755 -0.310924,0.92877 -0.621848,1.85755 -0.942193,2.81447 -3.818506,11.21732 -11.738119,20.93732 -20.0578065,29.18553 -0.8752734,0.9075 -1.75054688,1.815 -2.65234375,2.75 -4.02578365,3.27699 -8.29938665,2.94884 -13.28515675,2.8125 -0.868183,0.011 -1.736367,0.0219 -2.630859,0.0332 -8.38104,-0.095 -13.323576,-3.06822 -19.30664,-8.9707 -15.65067,-16.19856 -22.629631,-36.54985 -22.512681,-58.92259 -0.0054,-1.26164 -0.01077,-2.52327 -0.01632,-3.82314 -0.0143,-3.45853 -0.01026,-6.91682 -0.0028,-10.37536 0.0048,-3.74735 -0.0078,-7.49466 -0.01802,-11.24199 -0.01713,-7.32647 -0.01804,-14.65285 -0.01279,-21.97933 0.0041,-5.96391 0.0026,-11.9278 -0.0027,-17.89171 -7.49e-4,-0.85182 -0.0015,-1.70365 -0.0023,-2.58129 -0.0015,-1.73107 -0.0031,-3.46215 -0.0046,-5.19323 -0.01371,-16.2075 -0.0083,-32.41496 0.0032,-48.62247 0.0099,-14.77903 -0.003,-29.55794 -0.02693,-44.33695 -0.02448,-15.2207 -0.03398,-30.44135 -0.02735,-45.66207 0.0035,-8.52679 0.0014,-17.05348 -0.01625,-25.58026 -0.01483,-7.26335 -0.01522,-14.52655 0.0021,-21.7899 0.0084,-3.69511 0.01087,-7.389929 -0.0047,-11.085023 -0.11298,-28.986391 1.268493,-61.094145 22.27104,-83.3717195 C -26.423323,-3.7389901 -12.224674,-5.9896815 0,0 Z"
       fill="#fefefe"
       transform="translate(1407.7734,675.64453)"
       id="path8" /><path
       d="m 0,0 c 5.1598556,3.783317 9.0538067,7.9874285 12.453125,13.394531 0.440859,0.680625 0.881719,1.36125 1.335938,2.0625 7.736009,13.502854 8.813844,31.390253 8.811233,46.611573 0.0037,1.159358 0.0074,2.318717 0.01114,3.513208 0.0091,3.20049 0.01373,6.400951 0.01639,9.601452 0.0039,3.458965 0.0135,6.917915 0.02221,10.376871 0.0197,8.343863 0.02982,16.687725 0.03873,25.031605 0.0044,3.93689 0.0098,7.87378 0.01499,11.81066 0.01701,13.09945 0.0315,26.19889 0.03875,39.29834 0.0019,3.39452 0.0038,6.78903 0.0058,10.18354 4.84e-4,0.8436 9.67e-4,1.68721 0.0015,2.55637 0.0083,13.65573 0.03363,27.31137 0.06611,40.96706 0.03314,14.04413 0.05109,28.08821 0.05428,42.13238 0.0022,7.87553 0.01081,15.75094 0.03646,23.62644 0.0218,6.70887 0.02971,13.41758 0.02003,20.12648 -0.0045,3.41676 -0.0028,6.83319 0.01676,10.24991 0.123103,25.69481 -3.096023,45.66009 -21.30278,65.03911 -7.8423358,7.65853 -15.530886,11.08694 -26.41748,11.13379 -8.865174,-0.15827 -14.646122,-4.07392 -20.727051,-10.33691 -8.350239,-10.05545 -14.537533,-22.1052 -17.042969,-34.98438 -0.171852,-0.80678 -0.343704,-1.61356 -0.520763,-2.4448 -0.669108,-4.96375 -0.623737,-9.86486 -0.619679,-14.86814 -0.003,-1.14469 -0.0059,-2.28939 -0.009,-3.46877 -0.0087,-3.8388 -0.0102,-7.67757 -0.01169,-11.51638 -0.0041,-2.7516 -0.0096,-5.50319 -0.01505,-8.25478 -0.01357,-7.47989 -0.01961,-14.95976 -0.02401,-22.43966 -0.0028,-4.6767 -0.007,-9.3534 -0.0115,-14.0301 -0.01219,-12.96469 -0.02249,-25.92937 -0.02588,-38.89405 -2.19e-4,-0.82938 -4.39e-4,-1.65876 -6.65e-4,-2.51327 -2.19e-4,-0.83131 -4.37e-4,-1.66261 -6.62e-4,-2.51911 -4.43e-4,-1.68438 -8.9e-4,-3.36876 -0.0013,-5.05314 -2.22e-4,-0.8355 -4.43e-4,-1.671 -6.71e-4,-2.53182 -0.0039,-13.51613 -0.02138,-27.03221 -0.04469,-40.54832 -0.02378,-13.8983 -0.03618,-27.79657 -0.03734,-41.69488 -9.13e-4,-7.79454 -0.0066,-15.589 -0.02482,-23.38351 -0.01549,-6.64226 -0.02047,-13.28443 -0.01226,-19.926706 0.0039,-3.382429 0.0015,-6.764523 -0.01106,-10.146953 C -64.013164,50.793559 -61.77356,22.399868 -41.8125,1.4882812 -28.887173,-10.456504 -14.437063,-9.1006639 0,0 Z"
       fill="#fefefe"
       transform="translate(3220.5469,720.60547)"
       id="path9" /><path
       d="M 0,0 C 20.306421,-0.78627555 41.094647,6.8738732 56.070312,20.472656 71.91037,35.421282 81.870257,54.036022 83.023437,76.035156 83.470311,99.459237 76.61015,119.80743 60.467529,136.97925 45.793479,151.97808 26.628456,160.13545 5.75,161.16016 c -21.768441,0 -41.759742,-7.31208 -57.929687,-22 -0.63293,-0.54012 -1.26586,-1.08024 -1.917969,-1.63672 -13.062305,-11.86667 -22.115653,-31.91059 -23.208008,-49.377688 -0.831652,-23.720497 4.67307,-44.284754 20.915039,-62.079346 C -41.231252,9.9788068 -21.920492,1.6106455 0,0 Z m -40.179687,44.160156 c -9.301516,11.078021 -13.415754,23.963227 -13.3125,38.3125 0.0056,0.828867 0.01128,1.657735 0.01709,2.511719 0.322113,16.379885 6.637856,28.790695 18.295411,40.175785 13.065141,12.34331 28.3458017,13.59709 45.385253,13.13183 14.245907,-0.71828 25.971835,-7.97793 35.614746,-18.13183 9.840419,-11.50926 13.727748,-25.071857 13,-40.000004 C 57.365416,63.953714 52.325092,49.491524 40.25,38.074219 32.819904,32.220927 24.038195,27.401822 14.820313,25.160156 c -0.928125,-0.226875 -1.85625,-0.45375 -2.8125,-0.6875 -20.9994223,-2.058767 -37.861776,4.491037 -52.1875,19.6875 z"
       fill="#221e1f"
       transform="translate(3690.1797,264.83984)"
       id="path10" /><path
       d="m 0,0 c 7.486875,-0.04125 14.97375,-0.0825 22.6875,-0.125 2.335378,-0.018208 4.670757,-0.036416 7.076904,-0.0551758 31.044274,-0.14239595 31.044274,-0.14239595 39.98169,7.715332 6.177331,6.5032328 6.698597,13.8781488 6.492187,22.5039058 C 75.713064,36.565528 74.241088,41.22135 69.5,45.875 64.82617,49.633247 59.770992,50.804214 54,52 c 1.304139,2.066628 2.608473,4.133134 3.913086,6.199463 1.10145,1.74494 2.202359,3.490221 3.302734,5.23584 2.363168,3.746118 4.726654,7.491044 7.139649,11.205322 0.937793,1.446328 0.937793,1.446328 1.894531,2.921875 0.541406,0.826289 1.082813,1.652578 1.640625,2.503906 C 73,82 73,82 73,84 65.74,84 58.48,84 51,84 50.11957,82.371914 49.239141,80.743828 48.332031,79.066406 47.15888,76.898423 45.985702,74.730455 44.8125,72.5625 44.234355,71.493223 43.656211,70.423945 43.060547,69.322266 41.913575,67.203284 40.75236,65.091947 39.57666,62.98877 38,60 38,60 36.950684,57.241699 35.921355,54.386841 35.921355,54.386841 33,51 26.07,50.505 26.07,50.505 19,50 19,61.88 19,73.76 19,86 12.73,86 6.46,86 0,86 0,57.62 0,29.24 0,0 Z m 19,14 c 0,7.59 0,15.18 0,23 4.002293,0.06923 8.003042,0.128848 12.005615,0.164795 1.358796,0.015 2.717544,0.03541 4.076172,0.06152 C 45.493317,37.590674 45.493317,37.590674 55,34 58.00059,30.612237 58.610449,27.341514 58.402344,22.929687 57.656717,19.353573 55.932351,18.034692 53,16 45.863114,13.472032 38.402368,13.763005 30.9375,13.875 29.209834,13.88853 29.209834,13.88853 27.447266,13.90234 24.631419,13.925712 21.815681,13.961575 19,14 Z"
       fill="#221e1f"
       transform="translate(3660,302)"
       id="path11" /></g></svg>
