<svg xmlns="http://www.w3.org/2000/svg" width="24" height="24"><path fill="#00214a" fill-rule="evenodd" d="M6.05 5.7c-.77.11-.9.18-1.29.6-.43.47-.65 1.12-.46 1.35.21.26.8.35 2.33.35 1.25 0 1.49.02 1.54.16.12.32-.21.46-1.2.52-1.2.06-1.67-.02-1.67-.28 0-.18-.07-.2-.7-.2h-.71l-.15.36c-.35.84.06.98 2.71.92 1.67-.04 1.96-.07 2.37-.25.5-.23.8-.6 1-1.26.1-.34.1-.4-.1-.6s-.33-.22-1.98-.25c-1.47-.03-1.76-.07-1.81-.2-.13-.31.25-.42 1.53-.42 1 0 1.25.03 1.32.16.06.12.23.14.77.12.69-.03.7-.03.79-.35.11-.4-.02-.59-.53-.73-.4-.11-3-.11-3.76 0m-2.38 5.13c-.2.14-.49.82-.4.9.04.04.28.07.55.07.26 0 .48.04.48.1s-.28.1-.65.1c-.51 0-.65.03-.65.15s.16.15.88.15c.8 0 .9-.02 1.1-.23.12-.13.25-.37.28-.55l.07-.32H4.8c-.72 0-.64-.18.1-.22q.6-.04.67-.15c.05-.18-1.68-.18-1.9 0m2.02.02c0 .09-.13.42-.3.75s-.3.62-.3.65.2.05.43.05c.38 0 .44-.03.54-.3.06-.16.16-.3.22-.3.07 0 .14.14.18.3l.06.3H7.9c1.1 0 1.4-.03 1.5-.15.1-.13.06-.15-.39-.15-.28 0-.51-.02-.51-.04 0-.26.16-.36.6-.36q.49 0 .54-.15c.04-.12-.04-.15-.4-.15-.65 0-.52-.24.16-.3.3-.03.55-.1.58-.17.03-.1-.2-.13-.92-.13q-.96 0-.96.11c0 .17-.52 1.29-.6 1.29s-.3-.68-.3-.88c0-.07.17-.2.38-.31.36-.2.36-.2.1-.2-.15 0-.49.12-.74.29-.54.34-.64.32-.4-.05l.16-.25h-.5c-.38 0-.5.04-.5.15m4.58-.05c-.1.06-.28.36-.42.67-.35.74-.27.83.73.83.65 0 .78-.03.89-.2.12-.19.1-.2-.38-.2-.27 0-.5-.02-.5-.05s.1-.24.2-.46c.2-.4.22-.4.68-.38.38.03.47 0 .5-.14s-.06-.17-.75-.17c-.43 0-.86.05-.95.1m1.86.13c-.04.12-.2.48-.35.8l-.27.57h.42c.38 0 .44-.03.59-.35.13-.26.23-.35.42-.35.3 0 .3.02.1.4l-.16.3h.46c.25 0 .45-.02.45-.04l.35-.8.34-.76h-.42c-.38 0-.44.03-.54.3-.1.24-.17.3-.42.3h-.32l.16-.3.16-.3h-.45c-.38 0-.46.04-.52.23m2.14.57-.36.8h.93c.73 0 .94-.03.99-.15.04-.12-.04-.15-.45-.15-.46 0-.49-.01-.4-.2.08-.14.24-.2.58-.22.63-.04.7-.28.1-.28-.37 0-.45-.03-.4-.15.04-.1.2-.15.6-.15s.53-.04.53-.15c0-.12-.16-.15-.87-.15h-.88zm2.32-.68c0 .07-.16.43-.34.8l-.32.68h.48c.4 0 .48-.03.48-.18 0-.1.07-.27.15-.38.13-.16.16-.17.25-.04.05.08.1.25.1.38 0 .2.05.22.46.22.45 0 .46 0 .39-.3-.05-.24-.02-.34.2-.52a1 1 0 0 0 .27-.48l.03-.25-1.07-.03c-.83-.02-1.08 0-1.08.1m2.42 0c-.2.27-.43.79-.37.88.03.06.28.1.56.1.27 0 .49.04.49.1s-.28.1-.65.1c-.51 0-.65.03-.65.15s.16.15.8.15c.92 0 1.13-.08 1.35-.5.27-.52.21-.6-.4-.6-.78 0-.68-.18.12-.22q.65-.04.7-.15c.04-.1-.19-.13-.9-.13q-.95 0-1.05.13"/></svg>