<?xml version="1.0" encoding="UTF-8" standalone="no"?>
<svg
   viewBox="0 0 17.1465 6.0494428"
   width="17.1465pt"
   height="6.0494428pt"
   version="1.1"
   id="svg1"
   xml:space="preserve"
   xmlns="http://www.w3.org/2000/svg"
   xmlns:svg="http://www.w3.org/2000/svg"><defs
     id="defs1"><linearGradient
       id="linear-gradient"
       x1="179.89"
       y1="112.24"
       x2="354.01001"
       y2="112.24"
       gradientTransform="matrix(1,0,0,-1,0,187.42)"
       gradientUnits="userSpaceOnUse"><stop
         offset=".33"
         stop-color="#fbea07"
         id="stop1" /><stop
         offset=".46"
         stop-color="#fbea07"
         id="stop2" /><stop
         offset=".58"
         stop-color="#fdcd0c"
         id="stop3" /></linearGradient><linearGradient
       id="linear-gradient-2"
       x1="425.81"
       y1="86.470001"
       x2="446.70999"
       y2="76.919998"
       gradientTransform="matrix(0.99998629,-0.00523596,-0.00523596,-0.99998629,0.69,192.95)"
       gradientUnits="userSpaceOnUse"><stop
         offset="0"
         stop-color="#fbea07"
         id="stop4" /><stop
         offset=".27"
         stop-color="#fbea07"
         id="stop5" /><stop
         offset=".89"
         stop-color="#fdcd0c"
         id="stop6" /></linearGradient><linearGradient
       id="linear-gradient-3"
       x1="1751.46"
       y1="82.589996"
       x2="1772.36"
       y2="73.040001"
       gradientTransform="rotate(180,929.685,93.71)"
       gradientUnits="userSpaceOnUse"><stop
         offset=".19"
         stop-color="#fdcd0c"
         id="stop7" /><stop
         offset=".67"
         stop-color="#fbea07"
         id="stop8" /><stop
         offset="1"
         stop-color="#fbea07"
         id="stop9" /></linearGradient></defs><g
     id="Layer_1-2"
     transform="matrix(0.03211752,0,0,0.03211752,8.9881992e-5,1.149292e-7)"><path
       d="m 343.08,6 h -0.01 C 342.89,5.98 342.72,5.97 342.56,5.96 L 295.58,2.02 c -1.56,-0.13 -3.1,-0.26 -4.62,-0.39 h -0.02 C 279.81,0.7 270.3,0 266.96,0 263.62,0 254.11,0.71 242.98,1.63 h -0.02 c -1.51,0.13 -3.06,0.26 -4.62,0.39 l -46.98,3.94 c -0.17,0 -0.34,0.03 -0.51,0.04 v 0 c -4.03,0.38 -10.95,2.04 -10.95,9.04 0.19,9.95 1.34,107.98 1.34,107.98 0,0 0.07,9.07 7.43,10.24 7.35,1.17 61.35,14.31 69.38,15.67 5.04,0.85 6.52,1.57 8.91,1.4 2.4,0.17 3.88,-0.55 8.91,-1.4 8.03,-1.36 62.03,-14.5 69.38,-15.67 7.35,-1.17 7.43,-10.24 7.43,-10.24 0,0 1.16,-98.03 1.34,-107.98 0,-7 -6.91,-8.65 -10.95,-9.04 h 0.02 z"
       style="fill:url(#linear-gradient)"
       id="path9" /><path
       d="m 274.1,146.13 c -3.35,0.68 -7.81,1.57 -11.17,0.91 L 182.77,130.6 c 1.76,2.24 3.41,3.02 5.68,3.77 3.3,1.09 70.72,15.14 70.72,15.14 1.69,0.37 3,0.65 4.09,0.85 1.22,0.19 2.76,0.4 6.11,0.05 0.21,-0.02 0.27,-0.04 0.39,-0.06 l 0.26,-0.06 v 0 l 6.62,-1.43 41.27,-9.23 c 12.71,-2.96 23.98,-5.56 27.08,-6.06 2.55,-0.41 4.24,-1.75 5.36,-3.34 z"
       style="fill:#ed1c24"
       id="path10" /><polygon
       points="181.88,131.18 189.76,84.61 215.88,138.11 "
       style="opacity:0.3;isolation:isolate;fill:#ecbc09"
       id="polygon10" /><polygon
       points="351.86,130.41 343.65,84.42 317.66,137.65 "
       style="opacity:0.3;isolation:isolate;fill:#ecbc09"
       id="polygon11" /><path
       d="M 353.55,12.06 C 351.83,7.38 346.07,6.24 342.72,5.97 L 309.19,3.2 v 0 C 291.67,1.66 272.34,0.03 266.97,0 261.6,0.04 242.27,1.67 224.75,3.2 v 0 l -33.53,2.77 c -3.36,0.27 -9.12,1.41 -10.83,6.09 l 81,8.77 c 0.11,0 0.22,0.02 0.34,0.03 v 0 c 0,0 5.29,0.73 10.51,0 v 0 c 0.11,-0.02 0.22,-0.02 0.33,-0.03 l 81,-8.77 z"
       style="fill:#ed1c24"
       id="path11" /><path
       d="m 213.03,37.36 5.91,16.26 c 1.32,3.77 2.84,8.48 4.28,12.76 l 0.13,0.02 c 0.33,-0.95 0.68,-1.94 1.02,-2.93 -1.1,-3.32 -2.2,-6.69 -3.2,-9.52 l -5.91,-16.29 c 0,0 -1.1,-3.55 -3.91,-3.86 l -1.69,-0.19 c 2.4,0.67 3.36,3.75 3.36,3.75 v 0 z"
       style="fill:#231f20"
       id="path12" /><path
       d="m 257.24,38.98 -1.7,-0.19 c 2.1,0.66 0.98,3.54 0.98,3.54 l -23.21,45.8 0.2,34.6 2.23,0.42 -0.2,-34.65 23.21,-45.86 c 0,0 1.3,-3.35 -1.51,-3.66 z"
       style="fill:#231f20"
       id="path13" /><path
       d="m 223.23,66.39 c -1.43,-4.28 -2.96,-8.99 -4.28,-12.76 l -5.91,-16.26 c 0,0 -1.1,-3.54 -3.91,-3.85 L 192.8,31.7 c -2.52,-0.28 -1.3,3.15 -1.3,3.15 l 22.18,50.38 0.27,27.41 c 0,0 0.16,6.5 6.25,7.64 l 13.31,2.48 -0.2,-34.6 23.21,-45.8 c 0,0 1.3,-3.34 -1.51,-3.66 l -17.66,-1.97 c -2.93,-0.33 -4.02,3.03 -4.02,3.03 l -5.81,14.84 c -1.28,3.45 -2.79,7.93 -4.16,11.83 l -0.13,-0.02 z"
       style="fill:#ed1c24"
       id="path14" /><path
       d="m 282.05,54.39 v -12.4 c 0,-2.81 2,-3.67 2.88,-3.91 l -1.78,0.21 c 0,0 -3.29,0.4 -3.29,4 v 12.39 c 0,0 -0.02,3.57 3.23,3.11 l 1.92,-0.27 c -2.98,0.23 -2.97,-3.13 -2.97,-3.13 v 0 z"
       style="fill:#231f20"
       id="path15" /><path
       d="m 300.52,118.4 c 0,0 -0.01,-0.05 -0.02,-0.07 0,-0.02 -0.01,-0.04 -0.02,-0.07 -0.05,-0.25 -0.07,-0.48 -0.07,-0.63 l 0.32,-62.31 -2.18,0.31 -0.32,62.07 c 0,0 0,0.47 0.1,0.93 0,0.02 0,0.03 0.01,0.05 0.01,0.06 0.03,0.11 0.04,0.17 v 0 c 0.46,1.66 2.12,5.7 7.11,4.62 l 0.34,-0.07 c -3.74,-0.16 -4.98,-3.7 -5.31,-5 z"
       style="fill:#231f20"
       id="path16" /><path
       d="m 285.29,37.96 c 0,0 -3.29,0.4 -3.29,4 v 12.4 c 0,0 -0.02,3.57 3.23,3.12 l 15.46,-2.18 -0.32,62.31 c 0,0.15 0.02,0.38 0.07,0.63 0,0.02 0,0.04 0.02,0.07 0,0.02 0.01,0.05 0.02,0.07 0.38,1.5 1.96,5.96 7.16,4.83 l 12.35,-2.68 0.73,-68.06 13.25,-1.87 c 5.73,-0.81 6.21,-7.72 6.21,-7.72 l 0.2,-11.55 -55.09,6.62 v 0 z"
       style="fill:#ed1c24"
       id="path17" /><path
       d="m 532.38,92.9 -48.78,91.29 c -2.65,3.99 -7.35,3.49 -10.73,2.98 -3.39,-0.51 -59.09,-10.08 -59.09,-10.08 -8.27,-1.54 -6.94,-1.95 -13.63,-6.62 -6.69,-4.67 -61.64,-44.64 -67.79,-48.86 -6.16,-4.21 -2.46,-11.93 -2.46,-11.93 0,0 40.89,-83.81 44.84,-92.32 C 378.69,8.85 391,15.42 391,15.42 l 61.27,21.06 c 0.3,0.1 0.59,0.24 0.87,0.39 5.57,3.19 65.41,37.45 73.32,42.46 8.29,5.26 8.55,8.72 5.94,13.56 h -0.02 z"
       style="fill:url(#linear-gradient-2)"
       id="path18" /><path
       d="m 412.7,174.04 c -3.04,-0.66 -4.07,-1.02 -6.65,-2.67 l -77.26,-55.55 c 0.22,2.02 1.13,4.17 3.5,5.8 6.16,4.21 61.1,44.19 67.79,48.86 6.69,4.67 6.18,5.22 13.63,6.62 0,0 55.71,9.57 59.09,10.08 2.49,0.38 5.68,0.74 8.25,-0.67 l -68.37,-12.46 h 0.02 z"
       style="fill:#ed1c24"
       id="path19" /><path
       d="m 526.45,79.34 c -7.41,-4.71 -60.48,-35.12 -71.67,-41.52 -1.99,-1.14 -4.89,-2.15 -4.9,-2.16 L 441.7,32.85 388.62,14.38 c -0.41,-0.16 -0.87,-0.32 -1.35,-0.47 v 0 c -3.17,-1 -7.67,-1.71 -10.64,0.88 l 83.9,50.07 c 3.03,1.81 6.27,3.25 9.64,4.29 l 63.66,19.69 c 0.29,-3.01 -1.57,-5.81 -7.37,-9.49 h -0.01 z"
       style="fill:#ed1c24"
       id="path20" /><path
       d="m 485.52,107.7 c -2.88,-0.78 -7.2,-0.19 -9.67,3.03 -1.8,2.34 -2.37,5.26 1.76,8.8 l 5.54,4.78 c 5.75,4.96 13.44,12.65 4.64,27.08 -10.36,17 -26.32,22.08 -43.59,15.89 -10.33,-3.71 -15.05,-7.46 -19.84,-14.01 l 6.74,-6.73 c 0,0 5.7,-6.44 11.46,-1.24 0,0 6.56,5.02 11.01,6.66 6.77,2.48 11.01,0.86 13.39,-3.11 1.95,-3.25 0.69,-5.43 -3.07,-8.62 l -5.97,-5.48 c -8.22,-6.93 -11.6,-15.79 -3.81,-29.1 9.06,-15.47 25.76,-20.56 40.69,-13.55 9.02,4.24 14.96,10.08 17.76,17.24 0,0 -5.96,4.35 -7.53,5.44 0,0 -5.43,4.11 -9.45,-0.54 -2.05,-2.14 -4.55,-5.04 -10.06,-6.54 z"
       style="fill:#ed1c24"
       id="path21" /><path
       d="m 464.69,140.94 c 1.79,2.08 2.12,3.91 0.67,6.32 -2.38,3.97 -6.62,5.59 -13.39,3.11 -4.45,-1.63 -11.01,-6.66 -11.01,-6.66 -5.76,-5.21 -11.46,1.24 -11.46,1.24 l -6.45,6.44 1.31,1.89 v 0.02 0 l 6.74,-6.73 c 0,0 5.7,-6.44 11.46,-1.24 0,0 6.56,5.02 11.01,6.66 6.77,2.48 11.01,0.86 13.39,-3.11 1.8,-3 0.85,-5.1 -2.28,-7.93 h 0.01 z"
       style="fill:#231f20"
       id="path22" /><path
       d="m 493.21,90.5 c -14.93,-7.01 -31.63,-1.92 -40.69,13.55 -7.36,12.56 -4.76,21.16 2.48,27.92 -5.97,-6.5 -7.65,-14.72 -0.87,-26.3 9.06,-15.47 25.76,-20.56 40.69,-13.55 4.31,2.02 7.9,4.41 10.8,7.13 -3.13,-3.4 -7.26,-6.33 -12.4,-8.75 z"
       style="fill:#231f20"
       id="path23" /><polygon
       points="366.01,123.46 381.41,93.02 381.43,92.99 379.49,91.72 364.1,122.15 "
       style="fill:#231f20"
       id="polygon23" /><path
       d="m 399.53,52.09 -12.18,24.09 1.95,1.24 12.15,-24.02 c 0,0 1.46,-2.85 -1.43,-4.58 l -1.03,-0.62 c 1.66,1.7 0.54,3.89 0.54,3.89 z"
       style="fill:#231f20"
       id="path24" /><path
       d="m 436.1,70.35 -1.06,-0.64 c 1.65,1.71 0.5,4 0.5,4 l -33.78,66.41 c 0,0 -3.27,5.49 -8.7,2.36 l 1.19,0.84 c 5.87,4.09 9.44,-1.9 9.44,-1.9 l 33.78,-66.41 c 0,0 1.5,-2.97 -1.36,-4.67 h -0.01 z"
       style="fill:#231f20"
       id="path25" /><path
       d="m 392.35,142.05 -13.19,-9.38 15.67,-30.91 -15.31,-10.02 -15.39,30.44 -12.37,-8.48 c -6.2,-4.33 -2.86,-10 -2.86,-10 l 31.74,-62.96 c 0,0 1.39,-2.83 3.99,-1.27 l 13.5,8.06 c 2.89,1.73 1.43,4.58 1.43,4.58 l -12.18,24.09 15.45,9.78 12.41,-24.48 c 0,0 1.45,-2.9 4.06,-1.34 l 14.91,8.9 c 2.85,1.7 1.36,4.67 1.36,4.67 l -33.78,66.41 c 0,0 -3.57,5.99 -9.44,1.9 v 0 z"
       style="fill:#ed1c24"
       id="path26" /><path
       d="m 1.49,94.04 49.26,91.03 c 2.67,3.98 7.37,3.45 10.75,2.92 3.38,-0.53 59.04,-10.39 59.04,-10.39 8.27,-1.58 6.93,-1.99 13.6,-6.7 6.67,-4.7 61.4,-44.97 67.54,-49.21 6.13,-4.25 2.4,-11.94 2.4,-11.94 0,0 -41.33,-83.59 -45.33,-92.08 -4,-8.49 -16.27,-1.86 -16.27,-1.86 L 81.32,37.19 c -0.3,0.11 -0.59,0.24 -0.87,0.4 -5.56,3.22 -65.21,37.79 -73.09,42.85 -8.27,5.31 -8.51,8.77 -5.87,13.6 z"
       style="fill:url(#linear-gradient-3)"
       id="path27" /><path
       d="m 121.6,174.54 c 3.04,-0.67 4.06,-1.04 6.64,-2.71 l 76.96,-55.96 c -0.21,2.03 -1.1,4.18 -3.47,5.82 -6.13,4.25 -60.91,44.45 -67.54,49.21 -6.94,4.99 -5.87,5.26 -13.6,6.7 0,0 -55.66,9.86 -59.04,10.39 -2.49,0.39 -5.68,0.77 -8.26,-0.63 l 68.3,-12.82 z"
       style="fill:#ed1c24"
       id="path28" /><path
       d="M 7.35,80.44 C 14.74,75.7 67.65,45 78.8,38.54 c 1.98,-1.15 4.88,-2.18 4.88,-2.18 l 8.16,-2.85 52.98,-18.75 c 0.41,-0.16 0.87,-0.32 1.35,-0.48 v 0 c 3.16,-1.02 7.66,-1.75 10.65,0.82 L 73.19,65.61 c -3.02,1.82 -6.25,3.28 -9.61,4.34 L 0.03,89.97 c -0.31,-3.01 1.54,-5.81 7.32,-9.53 z"
       style="fill:#ed1c24"
       id="path29" /><path
       d="m 59.24,155.72 c 0,0 9.33,0.44 14.12,-0.51 3.22,-0.64 5.35,-1.61 6.56,-2.84 -1.18,0.6 -2.71,1.1 -4.62,1.48 -4.79,0.96 -14.12,0.51 -14.12,0.51 -3.38,-0.36 -5.12,0.49 -5.99,1.65 0.98,-0.34 2.29,-0.48 4.05,-0.3 v 0 z"
       style="fill:#231f20"
       id="path30" /><path
       d="m 44.9,91.55 c 10.54,-2.8 20.86,-2.62 30.44,0.53 0,0 -0.18,6.85 -0.27,8.6 0,0 0,1.99 -1.41,3.57 3.35,-1.39 3.35,-4.93 3.35,-4.93 0.1,-1.75 0.27,-8.6 0.27,-8.6 -9.58,-3.16 -19.9,-3.33 -30.44,-0.53 -4.31,1.14 -7.88,2.86 -10.67,5.04 2.45,-1.54 5.36,-2.79 8.73,-3.68 z"
       style="fill:#231f20"
       id="path31" /><path
       d="M 101.52,135.89 C 93.48,120.29 79.34,119.2 69.97,118.97 l -8.74,-0.22 c -6.31,-0.14 -8.69,-2.44 -9.67,-5.01 -0.92,-2.42 -0.1,-4.52 1.4,-5.97 -2.56,1.26 -4.62,3.99 -3.34,7.33 0.98,2.57 3.36,4.87 9.67,5.01 l 8.74,0.22 c 9.37,0.23 23.51,1.32 31.55,16.92 6.27,12.16 4.82,21.39 -2.65,27.2 9.13,-5.68 11.37,-15.41 4.59,-28.56 z"
       style="fill:#231f20"
       id="path32" /><path
       d="m 53.5,107.53 c -2.78,1.14 -5.19,4 -3.83,7.55 0.98,2.57 3.36,4.87 9.67,5.01 l 8.74,0.22 c 9.37,0.23 23.51,1.32 31.55,16.92 9.41,18.26 1.44,29.94 -18.25,33.3 -10.9,1.86 -17.66,1.29 -26.65,-1.12 -0.23,-0.06 -0.41,-0.25 -0.46,-0.48 l -1.55,-7.18 c 0,0 -2.08,-6.97 6.57,-6.05 0,0 9.33,0.44 14.12,-0.51 7.48,-1.49 9.09,-4.76 6.95,-8.82 -1.76,-3.33 -4.89,-4.24 -10.8,-4.58 l -9.53,-0.81 C 47.98,140.33 37.78,136.06 30.82,123.39 22.7,108.6 28.51,95.91 44.96,91.54 c 10.54,-2.8 20.86,-2.62 30.44,0.53 0,0 -0.18,6.85 -0.27,8.6 0,0 0,6.23 -7.81,5.41 -3.68,-0.25 -8.39,-0.75 -13.8,1.46 H 53.5 Z"
       style="fill:#ed1c24"
       id="path33" /><path
       d="m 108.13,95.43 -6.51,-15.66 c 0,0 -3.32,-6.76 1.72,-10.48 l -1.47,0.92 c -5.79,3.62 -2.24,10.83 -2.24,10.83 l 6.51,15.66 27.15,53.59 1.98,-1.26 z"
       style="fill:#231f20"
       id="path34" /><path
       d="m 174.48,109.57 -19.31,-38.3 c 0.45,1.35 0.94,4.36 1.42,8.04 l 15.9,31.53 c 3.9,9.22 9.91,4.62 9.91,4.62 l 0.85,-0.64 c -1.93,0.84 -5.91,1.49 -8.76,-5.26 h -0.01 z"
       style="fill:#231f20"
       id="path35" /><path
       d="m 142.11,84.46 c 1.1,1.13 2.01,2.05 2.61,2.64 l 0.07,-0.04 c -0.79,-4.48 -6.22,-34.75 -6.22,-34.75 0,0 -0.9,-4.19 1.23,-5.82 l -1.79,1.12 c -2.41,1.51 -1.43,5.98 -1.43,5.98 0,0 3.84,21.41 5.53,30.88 v 0 z"
       style="fill:#231f20"
       id="path36" /><path
       d="m 149.89,110.41 c 0,0 -21.88,-18.07 -23.07,-19.52 0,0.02 1.15,2.39 2.6,5.35 6.75,5.76 18.48,15.45 18.48,15.45 0,0 1.73,2.18 4.21,0.47 l 1.52,-0.99 c -2.23,1.15 -3.74,-0.75 -3.74,-0.75 v 0 z"
       style="fill:#231f20"
       id="path37" /><path
       d="m 155.16,71.29 c 1.67,5.03 3.95,32.95 3.95,32.95 0,0 0.78,2.79 -1.65,4.46 l -3.36,2.19 c -2.48,1.71 -4.21,-0.47 -4.21,-0.47 0,0 -21.88,-18.07 -23.07,-19.52 0,0.06 8.25,16.86 8.25,16.86 l 11.63,23.07 c 4.04,8.02 -1.85,11.46 -1.85,11.46 l -9.58,6.74 -27.15,-53.59 -6.51,-15.66 c 0,0 -3.54,-7.21 2.24,-10.83 l 12.25,-7.67 c 2.48,-1.55 5.46,1.74 5.46,1.74 0,0 18.92,19.94 23.15,24.09 l 0.07,-0.04 c -0.79,-4.48 -6.22,-34.75 -6.22,-34.75 0,0 -0.97,-4.47 1.43,-5.98 l 11.35,-7.1 c 4.47,-2.8 7.45,3.67 7.45,3.67 l 8.89,15.32 24.79,49.9 -8.09,6.08 c 0,0 -6.01,4.6 -9.91,-4.62 z"
       style="fill:#ed1c24"
       id="path38" /></g></svg>
