<?xml version="1.0" encoding="UTF-8" standalone="no"?>
<svg
   viewBox="0 0 6.6323056 14.960904"
   width="6.6323056pt"
   height="14.960904pt"
   version="1.1"
   id="svg1"
   xml:space="preserve"
   xmlns="http://www.w3.org/2000/svg"
   xmlns:svg="http://www.w3.org/2000/svg"><defs
     id="defs1" /><g
     id="g1"
     transform="matrix(0.04001994,0,0,0.04001994,-8.0275564,-1.0421224)"
     style="fill:#ffffff"><path
       d="m 310.667,26.667 c -0.367,0.366 -0.667,1.536 -0.667,2.6 0,1.063 -1.579,3.512 -3.508,5.441 -1.93,1.93 -3.778,4.581 -4.107,5.893 -0.329,1.312 -0.975,2.152 -1.435,1.868 -0.461,-0.285 -2.03,1.518 -3.489,4.007 -1.458,2.488 -3.072,4.524 -3.587,4.524 -0.515,0 -1.229,0.788 -1.587,1.75 -0.596,1.604 -5.892,7.083 -10.787,11.159 -1.862,1.55 -4.5,5.406 -4.5,6.577 0,0.283 0.788,0.521 1.75,0.529 1.485,0.013 1.524,0.159 0.259,0.958 -0.82,0.519 -1.543,1.525 -1.607,2.235 -0.278,3.132 -1.693,5.618 -2.926,5.144 -0.73,-0.28 -2.089,0.654 -3.02,2.075 -1.35,2.059 -1.446,2.88 -0.475,4.05 0.969,1.168 0.906,1.779 -0.31,2.995 -2,2 -2.331,1.935 -2.99,-0.586 l -0.553,-2.113 -3.027,2.155 c -1.904,1.356 -3.254,3.369 -3.641,5.432 -0.338,1.802 -1.93,4.684 -3.537,6.404 -1.608,1.72 -2.923,3.377 -2.923,3.682 0,0.305 -0.9,1.454 -2,2.554 -1.1,1.1 -2,2.723 -2,3.607 0,0.97 -0.557,1.393 -1.406,1.067 -2.286,-0.877 -4.682,2.611 -4.062,5.913 0.51,2.715 0.199,3.064 -4.569,5.134 -4.172,1.811 -5.004,2.574 -4.51,4.131 0.381,1.2 0.058,2.122 -0.868,2.477 -0.811,0.311 -1.781,2.198 -2.155,4.193 -0.485,2.586 -0.989,3.319 -1.755,2.553 -2.114,-2.114 -3.175,-1.007 -3.175,3.312 0,3.458 -0.523,4.811 -2.468,6.386 -2.119,1.716 -2.278,2.226 -1.127,3.612 1.045,1.259 1.062,1.615 0.078,1.615 -0.695,0 -1.793,-0.725 -2.44,-1.611 -1.08,-1.477 -1.318,-1.471 -2.861,0.072 -2.187,2.186 -2.213,7.398 -0.042,8.231 1.486,0.571 1.471,0.754 -0.168,1.952 -1.325,0.969 -2.16,1.03 -3.127,0.227 -1.789,-1.484 -4.515,-0.295 -4.294,1.872 0.325,3.181 -0.033,4.257 -1.414,4.257 -0.749,0 -2.81,2.941 -4.579,6.535 -4.374,8.884 -5.248,12.238 -3.866,14.843 2.422,4.569 12.961,17.453 19.465,23.797 9.197,8.971 10.362,9.08 19.527,1.825 3.474,-2.751 7.441,-6.053 8.816,-7.338 1.375,-1.286 4.668,-3.803 7.318,-5.595 2.649,-1.791 5.06,-3.889 5.357,-4.662 0.296,-0.773 1.206,-1.405 2.021,-1.405 0.815,0 3.369,-1.913 5.674,-4.25 2.305,-2.338 6.653,-5.963 9.661,-8.057 3.008,-2.094 7.494,-5.335 9.969,-7.203 5.287,-3.989 10.131,-6.693 10.797,-6.026 0.736,0.736 -2.026,6.942 -3.488,7.836 -0.72,0.44 -1.309,1.47 -1.309,2.29 0,0.82 -0.962,2.793 -2.139,4.383 -1.722,2.331 -2.01,3.695 -1.478,7.021 0.705,4.409 -0.067,7.135 -1.407,4.967 -0.426,-0.689 -1.495,-0.976 -2.375,-0.638 -1.827,0.701 -2.231,6.647 -0.564,8.314 1.607,1.607 -0.582,6.363 -2.929,6.363 -1.068,0 -2.151,-0.563 -2.408,-1.25 -0.308,-0.825 -0.727,-0.617 -1.233,0.611 -0.479,1.164 -0.148,2.91 0.883,4.655 0.908,1.536 1.65,3.931 1.65,5.323 0,1.392 0.463,3.748 1.028,5.235 1.33,3.499 0.59,4.17 -1.679,1.521 -0.986,-1.152 -2.357,-2.095 -3.046,-2.095 -0.688,0 -1.99,-1.427 -2.892,-3.171 -1.462,-2.829 -1.747,-2.979 -2.636,-1.391 -0.676,1.207 -0.639,2.566 0.114,4.218 1.682,3.691 1.387,4.344 -1.96,4.344 -2.793,0 -2.929,0.143 -1.5,1.571 0.864,0.865 1.571,2.106 1.571,2.76 0,0.653 0.9,1.75 2,2.437 2.928,1.829 2.637,4.43 -0.41,3.665 -1.817,-0.456 -2.516,-0.153 -2.84,1.231 -0.337,1.44 -0.598,1.234 -1.209,-0.958 -1.138,-4.076 -3.002,-2.733 -3.292,2.373 -0.17,2.982 -0.884,4.902 -2.201,5.918 -2.095,1.616 -2.782,8.433 -1.487,14.753 0.62,3.024 0.48,3.25 -2.015,3.25 -2.297,0 -2.592,-0.322 -2.061,-2.25 l 0.621,-2.25 -2.021,2.321 c -1.112,1.277 -2.323,3.977 -2.693,6 -0.37,2.024 -1.124,4.804 -1.676,6.179 -0.552,1.375 -1.196,4.525 -1.431,7 -0.235,2.475 -1.07,5.497 -1.856,6.715 -0.786,1.218 -1.429,3.172 -1.429,4.342 0,1.17 -0.894,3.264 -1.986,4.653 -2.107,2.678 -1.875,4.29 0.617,4.29 1.01,0 1.409,0.784 1.203,2.361 -0.17,1.299 0.311,3.109 1.071,4.024 1.833,2.21 0.805,3.065 -1.927,1.603 -1.206,-0.645 -2.543,-0.794 -2.971,-0.331 -0.429,0.464 -0.42,5.343 0.019,10.843 0.447,5.616 0.415,10.14 -0.075,10.32 -1.726,0.634 1.382,12.18 3.277,12.18 0.542,0 0.742,0.636 0.443,1.414 -0.326,0.849 1.058,2.745 3.467,4.75 2.391,1.99 5.213,5.845 6.993,9.556 1.642,3.421 4.309,7.47 5.927,8.997 1.618,1.527 2.942,3.678 2.943,4.78 0,1.102 1.463,3.695 3.25,5.762 1.787,2.068 3.941,4.712 4.788,5.876 0.846,1.165 2.498,2.173 3.67,2.241 2.248,0.131 9.291,8.4 9.291,10.909 0,0.773 0.823,2.15 1.829,3.06 5.65,5.114 5.762,-3.754 0.118,-9.398 -1.046,-1.046 -1.661,-2.529 -1.367,-3.295 0.294,-0.767 -0.166,-1.663 -1.023,-1.992 -0.856,-0.328 -1.557,-1.71 -1.557,-3.07 0,-1.359 -0.378,-2.706 -0.841,-2.992 -1.415,-0.874 -4.003,-12.545 -5.157,-23.256 -1.263,-11.72 -0.453,-31.537 1.582,-38.715 0.76,-2.681 1.199,-5.17 0.975,-5.531 -0.409,-0.662 1.578,-13.967 3.256,-21.805 0.496,-2.315 1.64,-5.337 2.543,-6.715 0.903,-1.378 1.642,-3.247 1.642,-4.153 0,-3.33 9.364,-27.336 16.158,-41.423 16.41,-34.025 27.693,-55.417 40.258,-76.327 4.354,-7.245 8.854,-14.784 10,-16.752 1.146,-1.969 3.434,-5.521 5.084,-7.893 5.396,-7.76 5.442,-7.902 4.037,-12.573 -0.707,-2.348 -4.506,-9.711 -8.441,-16.362 C 351.229,96.179 349.523,94 347.625,94 c -1.273,0 -3.13,0.9 -4.125,2 -0.995,1.1 -2.865,2 -4.155,2 -1.29,0 -2.345,0.45 -2.345,1 0,1.404 -3.352,1.248 -4.825,-0.225 -0.966,-0.966 -1.71,-0.66 -3.525,1.452 -1.651,1.922 -2.914,2.517 -4.475,2.108 -1.824,-0.476 -2.175,-0.146 -2.175,2.048 0,1.44 -0.436,2.617 -0.969,2.617 -0.532,0 -0.709,-0.675 -0.393,-1.5 0.353,-0.92 0,-1.5 -0.914,-1.5 -0.82,0 -1.727,0.902 -2.015,2.004 -0.334,1.279 -1.067,1.796 -2.026,1.428 -0.957,-0.367 -1.743,0.182 -2.165,1.51 -0.364,1.148 -1.08,1.828 -1.592,1.512 -0.511,-0.316 -1.368,0.578 -1.903,1.986 -0.661,1.738 -1.723,2.56 -3.31,2.56 -1.285,0 -3.302,0.9 -4.483,2 -1.18,1.1 -3.051,2 -4.157,2 -1.308,0 -1.823,0.487 -1.475,1.394 0.331,0.863 -0.633,1.976 -2.532,2.923 -1.686,0.841 -3.066,1.114 -3.066,0.606 0,-0.507 -0.45,-0.923 -1,-0.923 -0.55,0 -1,0.675 -1,1.5 0,0.859 -0.901,1.5 -2.107,1.5 -1.442,0 -1.929,0.464 -1.544,1.468 0.716,1.865 -1.178,3.103 -2.589,1.692 -1.559,-1.559 -4.851,0.44 -4.071,2.472 0.522,1.36 0.29,1.427 -1.537,0.449 -2.483,-1.329 -2.839,-3.88 -0.658,-4.717 0.822,-0.316 1.286,-0.911 1.031,-1.323 -0.255,-0.413 0.648,-1.794 2.006,-3.07 1.358,-1.276 2.469,-2.846 2.469,-3.49 0,-0.644 0.9,-1.986 2,-2.981 1.1,-0.995 2,-2.367 2,-3.048 0,-0.681 0.675,-1.497 1.5,-1.814 0.825,-0.316 1.5,-1.417 1.5,-2.446 0,-1.029 1.125,-2.384 2.5,-3.01 1.467,-0.668 2.5,-1.975 2.5,-3.161 0,-1.111 0.563,-2.022 1.25,-2.023 0.688,-0.001 2.773,-2.237 4.635,-4.968 1.861,-2.731 4.661,-6.218 6.222,-7.748 1.561,-1.53 2.85,-3.19 2.865,-3.688 0.016,-0.498 1.153,-2.38 2.528,-4.183 1.375,-1.803 2.5,-3.673 2.5,-4.156 0,-0.483 1.281,-1.826 2.846,-2.983 5.561,-4.111 7.421,-12.145 3.556,-15.353 -0.771,-0.64 -1.402,-2.086 -1.402,-3.213 0,-1.127 -0.745,-2.871 -1.655,-3.877 -1.153,-1.274 -1.27,-1.829 -0.386,-1.829 0.865,0 1.111,-1.032 0.774,-3.25 -0.271,-1.788 -0.145,-3.925 0.281,-4.75 1.035,-2.005 -0.794,-13.24 -2.313,-14.206 -1.492,-0.948 -4.146,-1.015 -5.034,-0.127"
       stroke="none"
       fill="#ec1d2d"
       fill-rule="evenodd"
       id="path2"
       style="fill:#ffffff" /></g></svg>
