<?xml version="1.0" encoding="UTF-8" standalone="no"?>
<svg
   viewBox="0 0 24 24"
   width="24pt"
   height="24pt"
   version="1.1"
   id="svg1"
   sodipodi:docname="speedmart.svg"
   xml:space="preserve"
   inkscape:version="1.3 (0e150ed6c4, 2023-07-21)"
   inkscape:export-filename="speedmart.svg"
   inkscape:export-xdpi="96"
   inkscape:export-ydpi="96"
   xmlns:inkscape="http://www.inkscape.org/namespaces/inkscape"
   xmlns:sodipodi="http://sodipodi.sourceforge.net/DTD/sodipodi-0.dtd"
   xmlns="http://www.w3.org/2000/svg"
   xmlns:svg="http://www.w3.org/2000/svg"><defs
     id="defs1" /><sodipodi:namedview
     id="namedview1"
     pagecolor="#ffffff"
     bordercolor="#000000"
     borderopacity="0.25"
     inkscape:showpageshadow="2"
     inkscape:pageopacity="0.0"
     inkscape:pagecheckerboard="0"
     inkscape:deskcolor="#d1d1d1"
     inkscape:document-units="pt"
     inkscape:zoom="8.1648736"
     inkscape:cx="-25.107553"
     inkscape:cy="15.983101"
     inkscape:window-width="1920"
     inkscape:window-height="974"
     inkscape:window-x="-11"
     inkscape:window-y="1609"
     inkscape:window-maximized="1"
     inkscape:current-layer="svg1" /><g
     id="g1"
     transform="matrix(0.07853792,0,0,0.07853792,-201.38698,-86.169557)"><g
       id="g2"
       transform="matrix(0.12752632,0,0,0.12752632,2632.8822,1176.2506)"><path
         d="m 0,0 c 10.041043,7.3327253 16.386359,15.183947 19.5,27.25 0.171768,0.664512 0.343535,1.329023 0.520508,2.013672 2.988948,12.69211 -0.160036,24.954709 -6.833008,35.986328 -5.351282,8.547685 -15.9659907,15.082239 -25.5,18.0625 -11.276186,2.413964 -21.864889,1.3115 -32.5,-3.0625 -1.266504,-0.841113 -1.266504,-0.841113 -2.558594,-1.699219 -2.325351,-1.472996 -2.325351,-1.472996 -4.785156,-1.359375 -3.994406,1.591888 -6.907863,4.222129 -10.15625,6.996094 -1.433747,1.19539 -2.868657,2.389385 -4.304687,3.582031 -0.709952,0.592486 -1.419903,1.184971 -2.151368,1.79541 -2.839238,2.340711 -5.743264,4.578059 -8.668945,6.810059 -4.462919,3.406346 -8.900941,6.8399 -13.3125,10.3125 -0.865767,0.68123 -0.865767,0.68123 -1.749023,1.37622 -2.389109,1.88091 -4.777098,3.76323 -7.164551,5.64624 -6.662996,5.25429 -13.327176,10.49195 -20.148926,15.54004 1.40734,3.17354 3.10045,5.31953 5.5,7.8125 13.48282,15.01607 22.410332,33.38943 28.164063,52.60937 0.336586,1.10985 0.673172,2.2197 1.019958,3.36318 4.497912,14.96506 8.659665,30.02761 12.849651,45.08101 2.014945,7.23315 4.039569,14.4636 6.062579,21.6945 0.534382,1.91018 1.068648,3.8204 1.602802,5.73064 6.23838,22.30893 12.541138,44.59954 18.851454,66.88821 1.482177,5.23544 2.963852,10.47101 4.445587,15.70658 1.769863,6.25349 3.53978,12.50697 5.309906,18.76039 3.918124,13.84223 7.833158,27.68533 11.744781,41.5294 0.262025,0.92732 0.524049,1.85464 0.794014,2.81007 2.794239,9.88952 5.586456,19.7796 8.374443,29.67089 0.720922,2.55745 1.44186,5.1149 2.162819,7.67234 0.469538,1.66561 0.939036,3.33124 1.408493,4.99687 2.8051186,9.95104 5.6243532,19.89787 8.4651568,29.83878 1.5125398,5.29331 3.01668779,10.58899 4.5205383,15.88477 0.6750842,2.37003 1.353546,4.7391 2.0358887,7.10706 9.3826952,32.56575 9.3826952,32.56575 9.0628662,48.46844 -0.0094,0.7794 -0.01885,1.5588 -0.02856,2.36182 -0.300088,11.77155 -2.6727542,22.56819 -7.5534673,33.3413 -1.0206546,2.55045 -1.0206546,2.55045 -0.21875,4.61719 0.4705079,0.67805 0.9410157,1.3561 1.4257813,2.05469 0.6935156,1.00289 1.3870312,2.00578 2.1015625,3.03906 0.40396,0.57098 0.8079199,1.14195 1.2241211,1.73023 17.2916384,24.6963 23.5848524,54.7136 18.9907224,84.57837 -0.828811,4.30598 -1.974978,8.48003 -3.316406,12.65234 -0.214307,0.68304 -0.428613,1.36608 -0.649414,2.06982 C 19.955474,715.5446 12.999689,727.93977 3.1875,739.25 2.5120313,740.06984 1.8365625,740.88969 1.140625,741.73437 -16.559583,762.53535 -43.66907,775.16866 -70.625,778 c -1.727902,0.10637 -3.45737,0.18989 -5.1875,0.25 -0.915234,0.04 -1.830469,0.0799 -2.773437,0.12109 -28.501233,0.6495 -57.070193,-9.08457 -77.867183,-28.82812 -0.7786,-0.75668 -1.55719,-1.51336 -2.35938,-2.29297 -1.22977,-1.11955 -1.22977,-1.11955 -2.48437,-2.26172 -18.08876,-16.99332 -30.60003,-43.42866 -31.62232,-68.33789 -0.0638,-3.03008 -0.0789,-6.05716 -0.0808,-9.08789 -0.0122,-1.01256 -0.0245,-2.02512 -0.0371,-3.06836 -0.002,-1.01256 -0.004,-2.02512 -0.006,-3.06836 -0.004,-0.89807 -0.008,-1.79615 -0.0125,-2.72143 0.36516,-5.1926 1.38715,-10.31976 2.24292,-15.45435 -107.91,0 -215.82,0 -327,0 -14.75125,-31.77193 -14.75125,-31.77193 -19.73477,-43.10172 -1.63003,-3.70467 -3.26971,-7.40507 -4.90976,-11.10531 -0.34397,-0.77617 -0.68795,-1.55234 -1.04234,-2.35204 -5.29944,-11.93805 -10.70894,-23.82685 -16.10659,-35.72072 -0.39153,-0.86333 -0.78307,-1.72666 -1.18647,-2.61616 -0.72993,-1.60919 -1.4605,-3.21809 -2.19187,-4.82663 -0.6465,-1.42509 -1.28954,-2.85175 -1.92845,-4.28026 -0.60053,-1.33299 -1.2147,-2.65991 -1.84222,-3.98041 -2.16695,-4.68848 -2.16695,-4.68848 -1.05753,-8.01675 1.18594,0.51949 2.37188,1.03898 3.59375,1.57422 37.62995,16.29197 76.94664,18.58189 117.52441,18.57104 2.26563,0.003 4.53125,0.006 6.79688,0.0102 6.09885,0.009 12.1977,0.0112 18.29656,0.0118 3.81909,7.1e-4 7.63818,0.003 11.45728,0.005 12.66104,0.009 25.32207,0.0134 37.98312,0.0127 1.01869,-6e-5 1.01869,-6e-5 2.05796,-1.2e-4 0.67997,-4e-5 1.35994,-8e-5 2.06052,-1.2e-4 11.03424,-4.1e-4 22.06844,0.009 33.10267,0.0233 11.37535,0.0144 22.75067,0.0211 34.12603,0.0204 6.36846,-2.6e-4 12.73687,0.003 19.10532,0.0132 5.9854,0.01 11.97073,0.01 17.95614,0.002 2.18721,-10e-4 4.37443,0.001 6.56164,0.007 24.14129,0.8465 24.14129,0.8465 45.37772,-8.81437 4.35264,-5.30478 3.4219,-11.91265 3,-18.4375 -0.80576,-4.68064 -2.01611,-9.20801 -3.28906,-13.78125 -0.35887,-1.33323 -0.71655,-2.66678 -1.07315,-4.00061 -1.18738,-4.41312 -2.41174,-8.81564 -3.63779,-13.21814 -0.44155,-1.59386 -0.88291,-3.18778 -1.3241,-4.78174 -3.06108,-11.04395 -6.17654,-22.07222 -9.307,-33.09668 -1.25717,-4.43039 -2.51007,-8.86199 -3.76343,-13.29346 -1.82647,-6.45568 -3.65453,-12.91091 -5.48584,-19.36523 -0.18596,-0.65549 -0.37192,-1.31098 -0.56351,-1.98633 -0.8722,-3.07289 -1.75744,-6.13722 -2.6886,-9.19299 -0.86752,-3.28357 -0.86752,-3.28357 -0.86752,-7.28357 -0.66,0 -1.32,0 -2,0 -0.10957,1.15629 -0.21914,2.31258 -0.33203,3.50391 -0.55492,4.40155 -1.76353,8.30623 -3.35547,12.43359 -0.26764,0.69658 -0.53528,1.39315 -0.81104,2.11084 -3.50156,8.80622 -7.86032,16.4336 -16.50146,20.95166 -11.03951,3.52662 -22.11588,3.42907 -33.56787,3.38818 -1.93355,0.004 -3.86709,0.009 -5.80063,0.0159 -5.21555,0.0136 -10.43092,0.008 -15.64648,-10e-4 -5.4927,-0.008 -10.98539,-5.4e-4 -16.47809,0.004 -9.23134,0.005 -18.46261,-0.002 -27.69394,-0.016 -10.61195,-0.0163 -21.22372,-0.0111 -31.83566,0.005 -9.16068,0.0137 -18.32131,0.0155 -27.482,0.008 -5.44887,-0.005 -10.89767,-0.005 -16.34654,0.005 -60.53463,0.0961 -113.11109,-10.46449 -158.14879,-53.40889 -1.18723,-1.10795 -1.18723,-1.10795 -2.39844,-2.23828 -23.53478,-22.58514 -34.32195,-52.48768 -43.12109,-83.1211 -0.42015,-1.45476 -0.84046,-2.90948 -1.26094,-4.36415 -1.34937,-4.67395 -2.69115,-9.35007 -4.03203,-14.02647 -0.34383,-1.19795 -0.34383,-1.19795 -0.6946,-2.4201 -6.29665,-21.93899 -12.55019,-43.89082 -18.59016,-65.90204 -0.67529,-2.45767 -1.35424,-4.91433 -2.03717,-7.36988 -8.3996,-30.26066 -14.51783,-61.15003 0.13443,-90.55798 2.08038,-3.57706 4.38724,-6.79466 7,-10 0.65613,-0.81855 1.31227,-1.63711 1.98828,-2.48047 19.23372,-22.679615 48.17526,-32.098756 77.01172,-34.51953 10.33352,-0.496802 20.68574,-0.417679 31.02858,-0.392174 4.13712,0.0069 8.2742,-0.0037 12.41132,-0.01194 8.07581,-0.01325 16.15155,-0.0105 24.22737,-0.0018 6.57159,0.0068 13.14316,0.0077 19.71475,0.0044 0.93998,-4.6e-4 1.87995,-9.2e-4 2.84841,-0.0014 1.91034,-9.6e-4 3.82068,-0.0019 5.73101,-0.0029 17.85947,-0.0085 35.71889,0.0012 53.57835,0.0174 15.27867,0.0134 30.55727,0.01107 45.83594,-0.0028 17.79972,-0.0161 35.5994,-0.02235 53.39913,-0.01316 1.9031,9.55e-4 3.8062,0.0019 5.7093,0.0028 0.93604,4.63e-4 1.87207,9.25e-4 2.83647,0.0014 6.55274,0.0026 13.10544,-0.0017 19.65817,-0.0088 8.00137,-0.0085 16.00266,-0.006 24.00402,0.0098 4.07168,0.0078 8.14321,0.0111 12.21489,0.0011 23.9428,-0.05406 46.80944,1.216675 69.80229,8.397991 0.75813,0.236704 1.51626,0.473408 2.29736,0.717285 18.47012,5.939764 36.12944,14.812198 51.47657,26.713138 3.24453,2.75671 3.24453,2.75671 7.23144,3.34937 3.44828,-1.34809 6.11346,-3.87337 8.93213,-6.21729 1.35595,-1.10648 2.71273,-2.21193 4.07031,-3.31641 1.01369,-0.82782 1.01369,-0.82782 2.04785,-1.672363 2.71654,-2.198742 5.48048,-4.32584 8.25684,-6.44873 5.90886,-4.519784 11.78685,-9.078193 17.654297,-13.651611 3.994668,-3.113119 7.995623,-6.217437 12.009766,-9.30542 0.809934,-0.624873 1.619868,-1.249746 2.454345,-1.893555 1.545829,-1.192292 3.093727,-2.381908 4.644043,-3.568359 3.917938,-3.027395 7.51772,-6.11129 10.925049,-9.706055 -0.309375,-0.845625 -0.61875,-1.69125 -0.9375,-2.5625 C -72.44911,40.71979 -71.419417,27.677744 -65.625,16.5 -58.558339,5.0034918 -49.3577,-2.4425903 -36.335937,-6.0546875 -23.66385,-8.5553878 -11.030678,-6.9012446 0,0 Z m -455.8125,173.25 c -3.22105,3.86526 -3.87846,8.07301 -4,13 0.43251,3.30459 1.23253,6.47395 2.08057,9.69409 0.22947,0.91376 0.45894,1.82751 0.69536,2.76896 0.72304,2.85077 1.46917,5.69446 2.22407,8.53695 0.22913,0.86617 0.45826,1.73234 0.69433,2.62476 1.62493,6.10323 3.31552,12.18741 5.01661,18.26977 0.53688,1.93023 1.07347,3.86055 1.60977,5.79094 1.11533,4.01152 2.23317,8.02232 3.35312,12.03255 1.41443,5.06484 2.82413,10.13099 4.23223,15.1976 7.01647,25.25653 7.01647,25.25653 14.1955,50.46719 0.26034,0.91244 0.52068,1.82488 0.78891,2.76497 3.14276,10.78024 7.25774,20.75177 17.01578,27.0905 8.33471,4.54771 17.08921,5.06056 26.40576,5.05225 1.09555,0.007 2.19111,0.0134 3.31986,0.0204 3.59932,0.0189 7.19845,0.0229 10.79782,0.0251 2.51669,0.006 5.03338,0.0132 7.55008,0.0202 5.26701,0.012 10.53397,0.0158 15.80099,0.0145 6.06278,-10e-4 12.1252,0.0199 18.18789,0.0515 5.86316,0.0294 11.72618,0.0365 17.5894,0.0353 2.48057,0.002 4.96115,0.0111 7.44167,0.0267 3.47679,0.0197 6.95267,0.0138 10.42948,0.002 1.0123,0.0112 2.02459,0.0225 3.06757,0.0341 7.98353,-0.0697 16.23103,-1.32561 22.12823,-7.0824 4.33672,-7.68783 2.66045,-16.62513 0.50047,-24.79234 -0.43142,-1.54332 -0.43142,-1.54332 -0.87156,-3.11782 -0.30635,-1.13744 -0.6127,-2.27488 -0.92833,-3.44679 -0.89131,-3.28964 -1.79657,-6.57483 -2.70915,-9.8586 -0.64983,-2.34234 -1.29515,-4.68589 -1.93949,-7.02975 -3.27934,-11.92449 -6.60053,-23.83707 -9.93335,-35.7467 -1.07749,-3.85365 -2.15167,-7.70821 -3.22585,-11.56278 -1.05475,-3.78337 -2.11143,-7.56619 -3.16868,-11.34886 -0.49518,-1.77241 -0.98985,-3.54496 -1.48393,-5.31767 -1.37042,-4.91442 -2.75397,-9.82479 -4.15659,-14.73012 -0.48825,-1.71314 -0.97259,-3.4274 -1.4537,-5.14255 -0.75274,-2.67651 -1.52064,-5.34827 -2.29171,-8.01955 -0.33403,-1.20312 -0.33403,-1.20312 -0.67481,-2.43055 -3.261,-11.1369 -8.52061,-19.80076 -18.7141,-25.60436 -12.83793,-6.4287 -29.43397,-4.45205 -43.375,-4.45703 -2.12551,-0.003 -4.25101,-0.007 -6.37651,-0.0101 -4.44213,-0.006 -8.88424,-0.008 -13.32637,-0.007 -5.6583,1e-4 -11.31648,-0.0136 -16.97475,-0.0308 -4.38666,-0.0112 -8.7733,-0.0131 -13.15998,-0.0126 -2.08454,-0.001 -4.16908,-0.006 -6.2536,-0.0133 -21.12374,-1.0233 -21.12374,-1.0233 -40.10801,6.24203 z m 315,422 c -0.8018,0.65613 -1.60359,1.31227 -2.42969,1.98828 -19.32575,16.46603 -29.19742,38.94812 -31.57031,64.01172 -1.49298,22.55029 6.04646,46.30903 20.75781,63.53906 1.10989,1.21817 1.10989,1.21817 2.24219,2.46094 0.8843,0.97711 1.76859,1.95422 2.67969,2.96094 16.01964,17.12314 38.76024,28.34636 62.378904,29.24218 27.535923,0.49564 51.127739,-8.49282 71.291015,-27.56152 C 1.9603961,714.5611 11.215487,690.95776 11.5,666.5 11.364255,640.61064 0.71948044,618.41119 -17,599.6875 c -17.426397,-16.94732 -40.465388,-25.88464 -64.625,-25.75 -1.576483,0.007 -1.576483,0.007 -3.184814,0.0149 -20.804466,0.31277 -40.109856,7.869 -56.002686,21.29761 z"
         fill="#f5821f"
         transform="translate(1322.8125,6.75)"
         id="path1-1" /><path
         d="m 0,0 c 1.4153369,-0.003029 2.8306722,-0.00692219 4.2460046,-0.01159257 3.8480658,-0.01019306 7.6960374,-0.0081206 11.5441104,-0.0038194 4.16655,0.0024833 8.333078,-0.0065669 12.499619,-0.01403749 8.148282,-0.01270639 16.296531,-0.01454564 24.444821,-0.01219974 6.630869,0.0017885 13.261729,2.217e-5 19.892596,-0.0042244 0.946476,-5.9519e-4 1.892951,-0.0011904 2.868108,-0.0018036 1.923301,-0.0012119 3.846601,-0.002426 5.769901,-0.0036424 18.01203,-0.01086067 36.02404,-0.0087205 54.03607,-0.0026152 16.43512,0.0051634 32.87017,-0.0060737 49.30527,-0.02509821 16.91684,-0.0194304 33.83366,-0.02762503 50.75051,-0.02387675 9.4808,0.001905 18.96156,-5.0381e-4 28.44235,-0.0147145 8.07473,-0.0119816 16.14938,-0.0132437 24.22411,-0.00121 4.11012,0.005843 8.22008,0.007118 12.33019,-0.005002 54.98912,-0.1508432 102.74675,13.80167226 144.05125,51.38453226 0.74508,0.672891 1.49015,1.345782 2.25781,2.039063 29.90825,28.455216 39.74421,67.736881 50.38671,106.081931 1.25191,4.50566 2.51019,9.00954 3.76807,13.51353 1.5861,5.68035 3.17176,11.36082 4.75498,17.04197 5.19165,18.6287 10.42066,37.24682 15.65494,55.86358 1.56188,5.55535 3.12274,11.111 4.68335,16.66671 0.38914,1.38534 0.38914,1.38534 0.78615,2.79866 0.52515,1.86947 1.05029,3.73895 1.57543,5.60843 3.45345,12.29367 6.90783,24.58708 10.36303,36.88027 0.26726,0.95089 0.53452,1.90178 0.80988,2.88148 0.40088,1.42631 0.40088,1.42631 0.80987,2.88143 0.53951,1.91952 1.07902,3.83905 1.61853,5.75857 0.26649,0.94814 0.53297,1.89628 0.80754,2.87314 4.43446,15.77766 8.86552,31.55627 13.29414,47.33557 2.67316,9.52386 5.34931,19.04687 8.02974,28.56869 1.80148,6.40016 3.59994,12.80116 5.39603,19.20283 1.02768,3.66246 2.05675,7.32452 3.08967,10.9855 1.11929,3.96715 2.23183,7.93616 3.34381,11.90537 0.48099,1.6984 0.48099,1.6984 0.97168,3.43112 7.33862,26.29533 10.91003,53.87438 -2.19043,79.13138 -13.46589,22.66669 -33.31503,37.4355 -58.74658,44.22802 -10.50178,2.52387 -21.01401,4.45107 -31.84228,4.44301 -0.69696,8.6e-4 -1.39391,0.002 -2.11199,0.003 -2.31068,0.002 -4.62128,-0.004 -6.93196,-0.009 -1.66618,-2.8e-4 -3.33236,-1.2e-4 -4.99855,4.4e-4 -4.50559,2.9e-4 -9.01116,-0.006 -13.51674,-0.0126 -4.7152,-0.006 -9.4304,-0.007 -14.1456,-0.008 -8.92102,-0.003 -17.84203,-0.0113 -26.76304,-0.0213 -10.15961,-0.0112 -20.31921,-0.0167 -30.47882,-0.0217 -20.8918,-0.0104 -41.78358,-0.028 -62.67537,-0.0503 0.2115,0.91379 0.2115,0.91379 0.42728,1.84605 0.18301,0.80382 0.36601,1.60764 0.55456,2.43582 0.18225,0.79483 0.36451,1.58965 0.55229,2.40856 1.10929,5.49934 0.84858,11.16038 0.84087,16.74707 -8.2e-4,0.99569 -8.2e-4,0.99569 -0.002,2.0115 -0.11723,31.15744 -12.92988,58.05973 -34.87579,80.12375 -18.49299,17.62471 -43.92059,28.46759 -69.49756,29.42725 -0.96551,0.04 -1.93102,0.0799 -2.92578,0.12109 -27.09438,0.5624 -54.74401,-7.72189 -75.07422,-26.12109 -0.8018,-0.66129 -1.6036,-1.32258 -2.42969,-2.00391 -16.30495,-13.79063 -27.29767,-32.75114 -33.57031,-52.99609 -0.34032,-1.08411 -0.68063,-2.16821 -1.03125,-3.28516 -2.25772,-8.93679 -2.25173,-17.92723 -2.28125,-27.08984 -0.006,-1.29632 -0.0113,-2.59263 -0.0171,-3.92823 0.0542,-7.1214 0.7417,-12.55127 2.32959,-19.69677 -17.160003,0 -34.320003,0 -52.000003,0 -9.190651,-18.38131 -9.190651,-18.38131 -12.261719,-25.29297 -0.35289,-0.78641 -0.705781,-1.57282 -1.069366,-2.38306 -1.12203,-2.50239 -2.239289,-5.00689 -3.356415,-7.51147 -0.792893,-1.77074 -1.586111,-3.54132 -2.379638,-5.31177 -1.580696,-3.52807 -3.159554,-7.05696 -4.736573,-10.58667 -2.203988,-4.93277 -4.414321,-9.86267 -6.626556,-14.79175 -1.817561,-4.05 -3.631654,-8.10155 -5.444733,-12.15356 -1.949361,-4.35358 -3.907122,-8.70321 -5.873489,-13.04912 C 10.429,477.46686 9.2042848,474.75218 7.9797668,472.0374 7.392881,470.73831 6.8046656,469.43981 6.2150574,468.14195 5.4039121,466.35622 4.5976437,464.56828 3.791626,462.78023 3.3297388,461.76034 2.8678516,460.74045 2.3919678,459.68965 1.4049072,457.2607 1.4049072,457.2607 1.4049072,455.2607 c 3.4972053,1.09639 6.8851499,2.34252 10.2578128,3.76953 43.618726,18.41299 91.68224,16.54837 138.17051,16.49912 6.37814,-0.005 12.75628,-3.5e-4 19.13442,0.003 11.36416,0.004 22.72829,-0.002 34.09245,-0.0125 10.27185,-0.009 20.54366,-0.007 30.81551,0.002 12.00552,0.0107 24.011,0.0147 36.01652,0.009 6.32803,-0.003 12.65603,-0.004 18.98406,0.003 5.93632,0.006 11.87256,0.002 17.80888,-0.01 2.16787,-0.003 4.33574,-0.002 6.50361,0.003 23.79006,1.03452 23.79006,1.03452 44.90373,-7.7536 4.35422,-4.9851 4.67486,-9.4268 4.57628,-15.77329 -0.2758,-3.90881 -0.97836,-7.56664 -1.91002,-11.35806 -0.17622,-0.73114 -0.35243,-1.46228 -0.53398,-2.21557 -2.32229,-9.45146 -5.06692,-18.78457 -7.79244,-28.12574 -0.57042,-1.96706 -1.14043,-3.93423 -1.71007,-5.90152 -1.48619,-5.12916 -2.9773,-10.25688 -4.46968,-15.38425 -2.10448,-7.23379 -4.20214,-14.46956 -6.30058,-21.70511 -1.11346,-3.83919 -2.22875,-7.67784 -3.34561,-11.51605 -2.46902,-8.49258 -4.93035,-16.98386 -7.2014,-25.53213 -0.36352,1.17175 -0.72703,2.34351 -1.10157,3.55078 -8.06434,25.4481 -8.06434,25.4481 -17.89843,31.44922 -8.24874,4.12436 -16.09772,5.15116 -25.27306,5.14044 -0.80576,0.003 -1.61151,0.006 -2.44169,0.009 -2.68616,0.009 -5.37227,0.0102 -8.05845,0.0117 -1.93251,0.005 -3.86502,0.01 -5.79753,0.015 -5.24483,0.0131 -10.48965,0.0196 -15.73449,0.024 -3.28694,0.003 -6.57387,0.007 -9.8608,0.0115 -10.31247,0.0137 -20.62492,0.0233 -30.9374,0.0272 -11.84865,0.004 -23.69719,0.0219 -35.54581,0.051 -9.19025,0.0217 -18.38047,0.0317 -27.57075,0.033 -5.47247,0.001 -10.94483,0.007 -16.41727,0.0248 -59.120622,0.18376 -111.184709,-9.13805 -156.362753,-50.34775 -0.503379,-0.4581 -1.006758,-0.9162 -1.52539,-1.38819 -22.979076,-21.21656 -36.408874,-48.85229 -44.53711,-78.67431 -0.475446,-1.7068 -0.952155,-3.41324 -1.429931,-5.11939 -1.136563,-4.06563 -2.265568,-8.13328 -3.391358,-12.2019 -2.330508,-8.40639 -4.695775,-16.80292 -7.06077,-25.19966 -2.333037,-8.2841 -4.663091,-16.56905 -6.992941,-24.85405 -0.25512,-0.90721 -0.510239,-1.81441 -0.77309,-2.74911 -1.497855,-5.32754 -2.993738,-10.65563 -4.487198,-15.9844 -0.459272,-1.63786 -0.919063,-3.27557 -1.379448,-4.91311 -2.448296,-8.70981 -4.847921,-17.43061 -7.159341,-26.17785 -0.20784,-0.78423 -0.41568,-1.56847 -0.62982,-2.37648 -6.55654,-24.978296 -6.30515,-52.363696 6.366397,-75.361554 C -81.821523,21.93545 -59.63978,9.832519 -33.55603,3.3036652 -22.393236,0.83584729 -11.411485,-0.0336226 0,0 Z m 114.09241,102.2607 c -4.16509,4.9364 -3.06957,11.92002 -2.6875,18 0.73998,4.22664 1.87303,8.28529 3.08593,12.39843 0.32867,1.16549 0.65733,2.33097 0.99595,3.53177 0.89528,3.16216 1.80539,6.31955 2.72279,9.47534 0.96532,3.33345 1.91181,6.67223 2.86037,10.01047 1.60203,5.62952 3.21573,11.25558 4.83593,16.87988 2.31021,8.02365 4.58193,16.05788 6.84562,24.09475 1.60215,5.68436 3.21197,11.36656 4.82071,17.04906 0.57821,2.04443 1.15491,4.08928 1.73132,6.13421 1.08366,3.84208 2.17797,7.68105 3.27325,11.51984 0.314,1.11738 0.628,2.23477 0.95151,3.38601 5.69131,20.55156 5.69131,20.55156 20.29034,35.17385 7.98377,4.15625 16.40378,4.78715 25.24887,4.73457 1.10882,0.005 2.21763,0.0105 3.36004,0.0159 3.63062,0.0131 7.2608,0.005 10.89143,-0.006 2.54105,0.002 5.08209,0.005 7.62314,0.009 5.31058,0.004 10.621,-0.002 15.93155,-0.016 6.11848,-0.0163 12.23666,-0.011 18.35514,0.005 5.91656,0.0153 11.83303,0.0136 17.7496,0.005 2.50454,-0.002 5.00909,4.4e-4 7.51362,0.007 3.50323,0.008 7.00589,-0.004 10.50908,-0.0207 1.53854,0.009 1.53854,0.009 3.10817,0.0184 7.49731,-0.0658 13.84939,-1.20685 20.23314,-5.28158 3.97264,-4.09303 4.34023,-7.78234 4.28311,-13.40476 -0.44534,-5.49118 -2.02109,-10.73573 -3.45889,-16.03665 -0.35712,-1.34598 -0.71357,-2.69215 -1.06942,-4.03847 -1.21012,-4.55404 -2.4487,-9.10012 -3.6923,-13.64512 -0.22571,-0.82572 -0.45141,-1.65143 -0.68396,-2.50216 -3.5205,-12.86625 -7.10295,-25.71498 -10.6994,-38.56016 -1.08037,-3.86281 -2.1566,-7.72678 -3.23285,-11.59074 -1.05431,-3.7833 -2.11107,-7.56593 -3.16855,-11.34835 -0.49617,-1.77567 -0.99167,-3.55152 -1.48641,-5.32759 -6.50175,-29.93613 -6.50175,-29.93613 -24.72883,-52.671 -14.00269,-6.56137 -29.96646,-5.162647 -45.05469,-5.167972 -2.15032,-0.0032 -4.30064,-0.0066 -6.45096,-0.01009 -4.4934,-0.006 -8.98679,-0.0078 -13.48019,-0.0072 -5.7279,1.01e-4 -11.45568,-0.01356 -17.18355,-0.03077 -4.43724,-0.01117 -8.87445,-0.01315 -13.3117,-0.01262 -2.11048,-0.0012 -4.22097,-0.0055 -6.33144,-0.01333 -21.52995,-0.987158 -21.52995,-0.987158 -40.49997,7.242032 z m 32.3125,429 c -0.7425,0.72961 -1.485,1.45922 -2.25,2.21093 -16.31601,17.14456 -23.41596,41.54992 -23.02344,64.76172 1.00457,25.42747 12.09454,47.42473 30.27344,65.02735 19.50697,17.29378 43.75682,25.24371 69.72607,24.15234 20.03109,-1.342 39.38451,-9.75647 54.27393,-23.15234 0.47824,-0.4291 0.95648,-0.8582 1.44922,-1.3003 18.43311,-16.78053 29.35875,-39.66708 30.55078,-64.6997 0.44856,-22.80607 -6.34383,-44.32559 -21,-62 -0.72574,-0.89977 -1.45149,-1.79953 -2.19922,-2.72657 -14.56498,-17.09279 -35.4625,-28.4448 -57.80078,-31.27343 -31.90739,-1.84655 -57.00442,6.33105 -80,29 z"
         fill="#f5821f"
         transform="translate(106.59509,78.739304)"
         id="path2" /><path
         d="M 0,0 C 1.4335926,1.1882029 2.8508244,2.3964556 4.25,3.625 4.9267578,4.2076563 5.6035156,4.7903125 6.3007812,5.390625 18.87791,17.015311 25.108296,32.798034 26.25,49.625 c 0.159882,18.155474 -5.072967,34.184305 -17,48 -0.5220703,0.605859 -1.0441406,1.211719 -1.5820313,1.835937 -9.8349167,10.576723 -24.2488637,18.345933 -38.8146977,19.325193 -20.659282,0.34951 -38.172042,-2.21269 -53.617919,-17.12329 -1.340068,-1.33438 -2.663417,-2.685493 -3.985352,-4.03784 -0.592969,-0.560742 -1.185937,-1.121484 -1.796875,-1.699219 C -101.79266,84.407925 -106.28118,66.732767 -106.17236,51.144043 -105.55499,33.167463 -98.314957,17.455788 -85.75,4.625 c 6.959914,-6.1329011 14.277338,-10.8269919 23,-14 0.85207,-0.3183984 1.704141,-0.636797 2.582031,-0.964844 C -39.933244,-16.621582 -16.819727,-12.636433 0,0 Z"
         fill="#f5821f"
         transform="translate(360.75,620.375)"
         id="path13" /><path
         d="m 0,0 c 3.6657026,3.0685996 7.0526943,6.3726683 10.416504,9.7666016 0.89332,0.8430464 0.89332,0.8430464 1.804687,1.7031254 11.299947,11.60535 15.750103,29.524967 15.615479,45.18872 -0.666751,17.678485 -7.855235,32.692552 -20.4201661,45.108153 -0.6870703,0.70899 -1.3741406,1.41797 -2.0820312,2.14844 -12.9953264,12.58545 -29.2652307,16.34289 -46.8393557,16.20337 -16.603436,-0.41075 -29.682848,-6.36219 -42.078613,-17.35181 -0.625195,-0.53109 -1.250391,-1.06219 -1.894531,-1.60937 C -98.31531,89.450088 -103.16168,73.209236 -104.80615,56.504883 -105.62961,37.708467 -97.692674,21.68099 -85.833496,7.7041016 -65.081432,-14.644276 -24.402676,-19.00745 0,0 Z"
         fill="#f5821f"
         transform="translate(1279.5835,619.2334)"
         id="path14" /></g></g></svg>
