<svg xmlns="http://www.w3.org/2000/svg" width="24" height="24"><path fill="#373f44" fill-rule="evenodd" d="M3.85 5.28c-.58.37-.7.59-.7 1.27 0 .57.03.67.3.95.17.18.56.45.89.62.76.39 1.06.69 1.06 1.08s-.39.8-.77.8c-.4 0-.85-.3-1.08-.73-.1-.2-.22-.37-.25-.37-.1 0-.28 1.24-.2 1.33a5 5 0 0 0 1.88.3q1.52-.26 1.52-1.65c0-.5-.04-.62-.3-.91-.16-.2-.61-.5-1-.71-1-.53-1.2-.88-.8-1.4q.22-.25.48-.26c.35 0 .88.33.97.6.03.1.1.2.14.2.1 0 .33-1.11.25-1.19a6 6 0 0 0-1.07-.09c-.87-.03-1.06 0-1.32.16m3.2-.06c-.06.22-.13.98-.09.98.03 0 .21-.08.42-.19s.52-.22.7-.26l.32-.07v4.72h1.3V5.68l.38.07c.2.03.52.15.7.26.2.11.37.17.4.14s.01-.26-.04-.53l-.09-.47-1.98-.03c-1.53-.02-1.98 0-2.01.1m5.54-.02a14 14 0 0 1 .75 1.83l.45 1.28-.62-.03-.62-.03-.2-.57c-.2-.6-.3-.66-.4-.2-.19.78-.23.82-.95.82-.74 0-.74-.03.09.6l.33.26-.16.49c-.26.75-.22.8.3.4.25-.19.5-.35.56-.35.05 0 .31.16.58.36s.49.32.49.26-.09-.34-.2-.64l-.18-.56.43-.3c.24-.18.48-.32.54-.32a6 6 0 0 1 .61 1.76c0 .1.16.14.75.14.41 0 .75-.02.75-.04s-.09-.2-.2-.38c-.1-.18-.44-1.05-.75-1.93-.3-.88-.65-1.82-.75-2.09-.11-.27-.2-.54-.2-.61q-.01-.12-.16-.19c-.26-.1-1.24-.07-1.24.04m4.1-.09-.03 2.67-.02 2.62h1.3l-.03-1.1-.03-1.1h.33c.31 0 .36.05.94 1.08l.61 1.07.62.03c.34.02.61-.01.61-.07 0-.05-.27-.55-.6-1.11l-.61-1.03.37-.3c.9-.75.83-1.94-.15-2.51-.3-.17-.58-.2-1.83-.24-.81-.03-1.48-.03-1.48 0m1.2 1.58v1h.5c.27 0 .6-.05.74-.11.5-.23.57-1.18.13-1.66-.17-.19-.31-.23-.79-.23h-.58zm-9.53 4.77c-.04.03-.07.35-.07.7 0 .56.02.63.2.63q.18-.02.2-.15.01-.13.18-.15c.29 0 .62-.3.62-.55 0-.13-.1-.3-.22-.4-.23-.15-.79-.2-.91-.08m2.03.51c0 .67.1.82.6.82s.6-.15.6-.82c0-.45-.03-.58-.15-.58s-.15.13-.15.54c0 .39-.04.55-.15.6-.33.12-.45-.04-.45-.6 0-.41-.04-.54-.15-.54-.12 0-.15.13-.15.58m2.2.13v.7l.58-.03.57-.03v-.53c0-.63-.17-.82-.77-.82h-.38zm2.2-.5c-.26.26-.14.53.3.68.41.15.38.34-.05.3-.18-.02-.34.02-.35.07s.22.11.49.13c.42.03.5 0 .56-.17.08-.28 0-.4-.42-.57-.4-.17-.34-.39.08-.3q.3.06.29-.08c0-.3-.61-.35-.9-.06m-6.1.35c0 .22.04.26.23.23q.21-.03.22-.23 0-.2-.22-.23c-.19-.03-.23.01-.23.23m-5.64.17c-.06.04.93.07 2.19.06q3.45-.03-.64-.1c-.78-.02-1.48 0-1.55.04m14.62.05c.61.02 1.63.02 2.25 0 .61-.01.1-.03-1.13-.03-1.24 0-1.74.02-1.12.03"/></svg>