<?xml version="1.0" encoding="UTF-8" standalone="no"?>
<svg
   viewBox="0 0 18.040001 21.999998"
   width="18.040001pt"
   height="21.999998pt"
   version="1.1"
   id="svg1"
   xmlns="http://www.w3.org/2000/svg"
   xmlns:svg="http://www.w3.org/2000/svg">
  <defs
     id="defs1" />
  <path
     d="m 10.665004,7.2372296 c 0.868817,0.1982536 1.955295,0.5414876 2.661398,1.102041 0.814135,0.6683554 1.30254,1.6444424 1.30254,2.6925624 0,1.373547 -0.669535,2.6383 -1.773517,3.451331 -1.1767,0.88537 -2.570148,1.228909 -4.0363521,1.228909 -1.176738,0 -2.3899991,-0.199206 -3.4577205,-0.686469 -0.9050234,-0.434256 -2.1541982,-1.409696 -2.1541982,-2.494309 0,-0.505643 0.3619437,-0.993819 0.8869069,-0.993819 0.489063,0 0.7604388,0.288971 1.014029,0.669003 0.3797342,0.57798 0.6333206,1.02936 1.230739,1.427161 0.6695496,0.433952 1.5205578,0.650319 2.3165798,0.650319 1.249152,0 2.7881501,-0.650319 2.7881501,-2.095898 0,-0.632206 -0.326033,-1.137848 -0.905346,-1.409391 C 9.9588999,10.489355 8.8730699,10.254609 8.2216479,10.128046 7.2978839,9.965637 6.0677756,9.640821 5.2889009,9.116457 4.3111019,8.4477574 3.6958902,7.4180547 3.6958902,6.2252968 c 0,-1.2831336 0.7061,-2.5117404 1.7375914,-3.2708514 1.0321416,-0.7587839 2.3715663,-1.0119289 3.6385273,-1.0119289 1.3394131,0 2.8056161,0.3254717 4.0004681,0.9396023 0.217051,0.1265745 0.4166,0.271551 0.489052,0.5240485 0.126144,0.4339627 0.126144,1.1743445 0.126144,1.6267139 0,0.4333045 -0.217013,0.7406936 -0.669194,0.7406936 -0.977493,0 -0.833236,-2.5656611 -3.8012241,-2.5656611 -1.03248,0 -2.2632189,0.5779693 -2.2632189,1.7526293 0,1.301246 1.2491939,1.6619085 2.2806859,1.9150729 z"
     fill="#f2f0ea"
     id="path6"
     style="stroke-width:0.380526" />
</svg>
