<?xml version="1.0" encoding="UTF-8" standalone="no"?>
<svg
   viewBox="0 0 18.040001 21.999998"
   width="18.040001pt"
   height="21.999998pt"
   version="1.1"
   id="svg1"
   xmlns="http://www.w3.org/2000/svg"
   xmlns:svg="http://www.w3.org/2000/svg">
  <defs
     id="defs1" />
  <path
     d="m 10.615249,7.6508405 c 0.74039,0.168948 1.666269,0.461446 2.267999,0.93914 0.693791,0.5695625 1.110001,1.4013675 1.110001,2.2945575 0,1.170513 -0.570565,2.248314 -1.511361,2.941165 -1.002763,0.754497 -2.190236,1.047255 -3.4397101,1.047255 -1.002796,0 -2.0367168,-0.16976 -2.9466108,-0.584996 -0.7712456,-0.370067 -1.8357712,-1.201319 -1.8357712,-2.125608 0,-0.4309 0.3084423,-0.846916 0.755807,-0.846916 0.4167712,0 0.6480331,0.246256 0.8641383,0.570112 0.3236031,0.492545 0.5397051,0.877203 1.0488149,1.216203 0.5705788,0.369806 1.2957938,0.55419 1.9741498,0.55419 1.064506,0 2.3760141,-0.55419 2.3760141,-1.786087 0,-0.538755 -0.27784,-0.969655 -0.77152,-1.20106 C 10.013519,10.422247 9.0881929,10.222201 8.5330629,10.114346 7.7458469,9.975944 6.6975689,9.699141 6.0338251,9.252287 5.2005614,8.6824315 4.6762884,7.8049365 4.6762884,6.7884883 c 0,-1.0934647 0.6017265,-2.1404626 1.480746,-2.7873641 0.8795735,-0.6466228 2.0210085,-0.8623486 3.1006915,-0.8623486 1.1414251,0 2.3908981,0.2773614 3.4091311,0.8007131 0.184967,0.1078647 0.355019,0.2314112 0.416762,0.4465853 0.107498,0.3698156 0.107498,1.0007564 0.107498,1.386258 0,0.3692547 -0.184935,0.6312065 -0.570276,0.6312065 -0.833003,0 -0.71007,-2.1864129 -3.2393391,-2.1864129 -0.879862,0 -1.928677,0.4925356 -1.928677,1.493561 0,1.1088997 1.064542,1.4162502 1.943562,1.6319929 z"
     fill="#f2f0ea"
     id="path6"
     style="stroke-width:0.324278" />
</svg>
