<svg xmlns="http://www.w3.org/2000/svg" width="24" height="24"><path fill="#373736" fill-rule="evenodd" d="M4.1 6.88q0 .28-.32.47c-.47.3-.7.68-.76 1.24-.06.7.19 1.34.64 1.65.33.22.34.24.17.43q-.16.16-.08.05.12-.15-.14-.1c-.33.04-.49.32-.32.52.3.36.81.1.95-.46.03-.16.13-.28.2-.28.09 0 .3-.14.5-.3.2-.18.4-.28.49-.24.08.03.3-.02.46-.1.24-.13.31-.23.31-.47s-.07-.34-.35-.5c-.2-.12-.35-.29-.35-.4 0-.26.37-.25.45.01.07.23.25.27.25.05q.02-.13.15-.15c.12 0 .15.14.15.7 0 .57.03.71.19.8q.17.08.25.03c.04-.04.37-.06.74-.06.37.01.61 0 .54-.03q-.11-.07-.12-.63c0-.62.06-.77.25-.6.15.11.4-.14.3-.3-.09-.15-.42-.14-.48.01q-.05.15-.14 0c-.05-.06-.2-.1-.33-.1-.61.04-.8-.02-.8-.23 0-.2-.01-.2-.31.05-.23.2-.37.25-.53.2a2 2 0 0 0-.48-.06c-.2 0-.31-.07-.47-.33-.11-.2-.25-.35-.3-.35q-.1-.01-.11-.14c0-.16-.38-.66-.5-.66-.06 0-.1.12-.1.28m7.28.4c-.26.03-.4.22-.18.22.06 0 .1.13.1.3 0 .26-.04.3-.27.3-.4 0-.83.46-.83.9 0 .2.07.45.15.57.13.2.25.22.8.22.36 0 .67-.05.7-.1q.05-.08-.04-.09c-.06 0-.11-.45-.13-1.17l-.03-1.18zm.83.07c-.11.13-.1.19.03.33.2.2.41.05.35-.24-.04-.24-.22-.28-.38-.09m5.2 0c-.11.13-.1.19.03.33.2.2.41.05.35-.24-.04-.24-.22-.28-.38-.09m-13.68.2c-.12.1-.29.3-.37.45a2.3 2.3 0 0 0-.01 1.58c.19.36.52.66.65.57.17-.1.13-.29-.09-.48-.11-.1-.2-.25-.2-.35s.09-.34.2-.55c.2-.36.29-1.37.12-1.37a1 1 0 0 0-.3.16m.98.15c0 .08-.09.31-.2.52-.25.47-.25.55.03.59.34.05.35.51.03.82-.28.25-.35.56-.13.56S5 9.75 5 9.47c0-.34.16-.35.24-.01.05.19.12.25.29.22.34-.05.33-.34-.02-.53-.38-.19-.55-.49-.43-.72.11-.2.01-.53-.22-.72q-.18-.17-.16 0m15.53.4c-.53.2-.5.75.08 1.04.35.19.36.48.02.53-.17.03-.24-.03-.29-.22-.08-.34-.26-.33-.22 0 .04.4.5.53.87.27a.8.8 0 0 0 .3-.46c.02-.22-.05-.31-.33-.48-.21-.12-.36-.29-.36-.4 0-.26.37-.25.45.01s.25.26.25 0q-.01-.2-.26-.3l-.27-.1zm-11.37.2c-.2.2-.14.4.1.4q.13-.01.14-.26c0-.35.34-.29.38.07.03.22-.03.3-.35.45s-.38.24-.38.49.04.3.28.33a.7.7 0 0 0 .43-.08q.14-.14.14-.01c0 .14.47.15.55.01q.04-.09-.04-.1c-.07 0-.11-.25-.11-.63 0-.36-.05-.68-.12-.75-.2-.2-.82-.15-1.02.07m3.32-.12c-.19.05-.25.23-.08.23.14 0 .12 1.14-.02 1.28q-.17.13.32.12c.34 0 .41-.03.32-.12-.07-.07-.12-.42-.12-.85 0-.75-.01-.77-.42-.66m.6.06c.06.07.24.47.4.88.15.4.32.73.37.72.06 0 .22-.33.36-.72.15-.4.32-.78.4-.86.1-.13.06-.15-.22-.15q-.36 0-.2.1c.12.07.12.15.01.54-.07.25-.16.46-.2.46-.1 0-.32-.89-.25-1 .04-.06-.12-.1-.36-.1-.33 0-.4.03-.3.13m1.79-.02c-.25.14-.23.49.02.49q.21.01.2-.25c0-.34.26-.32.35.02.03.15.03.29-.02.3-.75.26-1.02.68-.62.97.2.14.26.14.45.01q.21-.12.28-.06c.07.06.4.1.84.1.56 0 .72-.02.6-.1-.13-.07-.18-.23-.18-.58 0-.5.2-.84.36-.6q.06.13.2-.06c.12-.16.14-.16.2-.02.03.09.04.43.02.77l-.03.6h.4c.3 0 .36-.03.27-.12-.07-.07-.12-.41-.12-.83v-.71h-.55q-.56 0-.65.16-.11.2-.1-.04c0-.15-.05-.17-.27-.11q-.5.13-.25.22c.12.05.18 1.14.06 1.25q-.07.05-.25 0c-.16-.04-.19-.13-.19-.66 0-.35-.05-.67-.12-.74-.15-.15-.66-.15-.9-.01m3.47-.01q-.17.08-.07.1.12 0 .12.56c0 .3.05.64.1.75.12.22.59.26.78.07q.14-.15.12 0c0 .07.14.12.31.12q.34.02.25-.16a4 4 0 0 1-.06-.85c0-.65-.01-.69-.23-.69-.23 0-.62.2-.4.2q.14 0 .13.59c0 .58-.09.74-.37.64q-.13-.04-.13-.74c0-.74-.06-.8-.55-.59m-7.25.1c-.21.13-.2.94.02 1.16.09.1.24.14.32.1.23-.08.23-1.21 0-1.3-.19-.07-.16-.08-.34.04m-3.9.59c0 .64 0 .65.43.75l.28.07-.03-.68-.03-.68-.32-.03-.33-.03z"/></svg>