<svg xmlns="http://www.w3.org/2000/svg" width="24" height="24" viewBox="0 0 24 24"><path fill="#fdf2f2" fill-rule="evenodd" d="M10 2.2c-.86.18-.93.2-1.77.62a5 5 0 0 0-1.94 1.85 4.3 4.3 0 0 0-.2 2.78A4 4 0 0 0 8.4 9.69q.72.27 1.02.42c.1.05.29.09.42.09.14 0 .27.04.3.09s.23.11.43.15c2.3.34 2.94.51 3.5.93.41.3.42.53.03.92-.4.4-.83.52-1.99.58-1.43.08-2.27-.23-2.65-1-.11-.22-.15-.22-1.94-.25-1.55-.02-1.82 0-1.82.12 0 .23.26 1.16.45 1.6a5 5 0 0 0 2.8 2.26c1.2.5 4.63.49 5.93-.01a5.3 5.3 0 0 0 2.31-1.4c.82-.81 1.01-1.28 1.01-2.52 0-1.61-.59-2.43-2.35-3.26a9 9 0 0 0-2.15-.72c-.37-.1-2.17-.48-2.6-.56a3 3 0 0 1-.67-.25c-1.1-.54-.57-1.66.87-1.82q2.27-.25 2.74 1.17c.05.15.23.17 1.96.17h1.9v-.45c0-1.15-1.09-2.69-2.33-3.3-1.3-.63-3.87-.84-5.57-.46"/></svg>