<?xml version="1.0" encoding="UTF-8" standalone="no"?>
<svg
   viewBox="0 0 18.040001 21.999998"
   width="18.040001pt"
   height="21.999998pt"
   version="1.1"
   id="svg1"
   sodipodi:docname="pink_master_pin.svg"
   xml:space="preserve"
   xmlns:inkscape="http://www.inkscape.org/namespaces/inkscape"
   xmlns:sodipodi="http://sodipodi.sourceforge.net/DTD/sodipodi-0.dtd"
   xmlns="http://www.w3.org/2000/svg"
   xmlns:svg="http://www.w3.org/2000/svg"><defs
     id="defs1" /><sodipodi:namedview
     id="namedview1"
     pagecolor="#ffffff"
     bordercolor="#000000"
     borderopacity="0.25"
     inkscape:showpageshadow="2"
     inkscape:pageopacity="0.0"
     inkscape:pagecheckerboard="0"
     inkscape:deskcolor="#d1d1d1"
     inkscape:document-units="pt"><inkscape:page
       x="0"
       y="0"
       width="18.040001"
       height="21.999998"
       id="page2"
       margin="0"
       bleed="0" /></sodipodi:namedview><g
     id="g1"
     transform="matrix(0.02919031,0,0,0.02919031,0.26911932,8.4160531)"><path
       d="m 0,0 c 198,0 396,0 600,0 0,27.39 0,54.78 0,83 C 402,83 204,83 0,83 0,55.61 0,28.22 0,0 Z"
       fill="#fe6e02"
       id="path1-8" /><path
       d="m 0,0 c 82.17,0 164.34,0 249,0 0,27.39 0,54.78 0,83 C 166.83,83 84.66,83 0,83 0,55.61 0,28.22 0,0 Z"
       fill="#239b12"
       transform="translate(351)"
       id="path2" /><path
       d="m 0,0 c 3.2427151,0.5590888 4.9305742,1.4132178 7,4 0,0.66 0,1.32 0,2 0.99,0.33 1.98,0.66 3,1 0,0.66 0,1.32 0,2 3.668485,0.064993 7.331277,0.04012 11,0 1.544941,0.029004 1.544941,0.029004 3.121094,0.058594 C 30.130639,8.9437617 33.342874,8.3280343 37.625,3.9375 38.541523,2.8372852 38.541523,2.8372852 39.476562,1.7148437 39.979297,1.1489453 40.482031,0.58304688 41,0 c 0.66,0 1.32,0 2,0 -0.498317,3.6875476 -1.100676,5.6049066 -4,8 2.475,0.495 2.475,0.495 5,1 0,1.98 0,3.96 0,6 -0.66,0 -1.32,0 -2,0 -0.185625,1.670625 -0.185625,1.670625 -0.375,3.375 C 39.907209,32.092791 39.907209,32.092791 38,34 c -2.448304,0.08844 -4.868206,0.115288 -7.316406,0.09766 -0.731055,-0.0014 -1.462109,-0.0028 -2.215317,-0.0043 -2.343633,-0.0056 -4.687172,-0.01817 -7.030777,-0.03087 -1.585285,-0.005 -3.170572,-0.0096 -4.755859,-0.01367 C 12.787724,34.03778 8.893878,34.020506 5,34 3.4707766,28.75529 2.3855086,23.651458 1.5625,18.257812 1.376875,17.512734 1.19125,16.767656 1,16 0.34,15.67 -0.32,15.34 -1,15 -1,13.02 -1,11.04 -1,9 0.65,8.67 2.3,8.34 4,8 3.34,7.4225 2.68,6.845 2,6.25 0,4 0,4 0,0 Z"
       fill="#fff9f6"
       transform="translate(20,29)"
       id="path3" /><path
       d="M 0,0 C 1.2355664,0.01740234 1.2355664,0.01740234 2.4960938,0.03515625 3.3223828,0.04417969 4.1486719,0.05320312 5,0.0625 5.6380859,0.07410156 6.2761719,0.08570312 6.9335937,0.09765625 7.751921,1.9909816 8.5630164,3.8874336 9.3710938,5.7851562 10.049785,7.3687695 10.049785,7.3687695 10.742188,8.984375 c 1.04588,2.733007 1.726613,5.233705 2.191406,8.113281 0.66,0 1.32,0 2,0 0.09281,-1.144687 0.09281,-1.144687 0.1875,-2.3125 1.157378,-5.2527149 3.48448,-9.8596501 5.8125,-14.68749975 3.3,0 6.6,0 10,0 0.575159,3.87697415 1.14462,7.75473995 1.708984,11.63330075 0.286751,1.962512 0.577913,3.924378 0.869141,5.88623 0.180469,1.243946 0.360937,2.487891 0.546875,3.769532 0.167578,1.141626 0.335156,2.283252 0.507812,3.459472 0.352009,3.117057 0.433593,6.117951 0.367188,9.251465 -2.97,0 -5.94,0 -9,0 -0.99,-5.28 -1.98,-10.56 -3,-16 -2.31,5.28 -4.62,10.56 -7,16 -1.65,0 -3.3,0 -5,0 C 10.595859,33.098633 10.258125,32.099609 9.9101563,31.070312 9.4600204,29.766794 9.0094785,28.463416 8.5585938,27.160156 8.336875,26.500801 8.1151563,25.841445 7.8867187,25.162109 6.8045022,21.42189 6.8045022,21.42189 3.9335938,19.097656 c -0.99,4.95 -1.9800001,9.9 -3.00000005,15 -2.63999995,0 -5.27999995,0 -7.99999995,0 0.3348439,-8.578933 0.9957594,-16.97626 2.5,-25.4374997 C -4.4358081,7.9209595 -4.30521,7.1817627 -4.1706543,6.420166 -3.0006403,0.1418072 -3.0006403,0.1418072 0,0 Z"
       fill="#f6faf5"
       transform="translate(382.06641,24.902344)"
       id="path4" /><path
       d="M 0,0 C 2.97,-0.103125 5.94,-0.20625 9,-0.3125 9.9191016,-0.35802 10.838203,-0.40354 11.785156,-0.45043945 18.065857,-0.55480358 22.224146,0.86842732 27,5 30.94643,9.7764328 30.549079,14.64309 30.417969,20.605469 29.710438,26.351674 27.434247,29.00579 22.96875,32.664062 18.564643,34.64591 14.450438,34.317765 9.6875,34.1875 4.8921875,34.094687 4.8921875,34.094687 0,34 0,22.78 0,11.56 0,0 Z"
       fill="#fff9f6"
       transform="translate(170,25)"
       id="path5" /><path
       d="m 0,0 c 3.5082844,-0.635303 6.5139274,-0.83462176 10,0 3.035353,2.9385408 4.930368,6.3446796 7,10 1.98,2.97 1.98,2.97 4,6 0.33,-5.28 0.66,-10.56 1,-16 2.97,0 5.94,0 9,0 0,11.22 0,22.44 0,34 -9,0 -9,0 -11.523438,-2.230469 C 18.865547,30.793711 18.254531,29.817891 17.625,28.8125 16.998516,27.84957 16.372031,26.886641 15.726563,25.894531 15.156797,24.939336 14.587031,23.984141 14,23 13.01,21.35 12.02,19.7 11,18 10.67,23.28 10.34,28.56 10,34 7.36,34 4.72,34 2,34 1.9749438,33.112158 1.9498877,32.224316 1.9240723,31.30957 1.828782,28.00704 1.7295579,24.704675 1.6276855,21.402344 1.5844468,19.974656 1.5427641,18.54692 1.5026855,17.119141 1.444714,15.063655 1.3810982,13.008409 1.3164062,10.953125 1.2797485,9.7172363 1.2430908,8.4813477 1.2053223,7.2080078 1.0402018,4.6281234 0.7535613,2.4564489 0,0 Z"
       fill="#fffbf8"
       transform="translate(232,25)"
       id="path6" /><path
       d="m 0,0 c 4.5478125,-0.12375 4.5478125,-0.12375 9.1875,-0.25 1.41962,-0.054624 1.41962,-0.054624 2.86792,-0.11035156 4.16032,-0.0547585 6.378348,0.009447 9.995361,2.25097656 3.250548,3.5176264 3.331343,6.2062375 3.316406,10.851563 C 24.7957,16.256228 22.657338,17.807696 20,20 c 0,3.220274 2.103818,5.037549 4,7.5625 4,5.340278 4,5.340278 4,6.4375 -3.832882,0.623796 -7.194314,0.867247 -11,0 C 13.957195,31.040275 11.960208,27.746473 10,24 9.67,27.3 9.34,30.6 9,34 6.03,34 3.06,34 0,34 0,22.78 0,11.56 0,0 Z"
       fill="#f7fbf6"
       transform="translate(457,25)"
       id="path7" /><path
       d="m 0,0 c 3.63,0 7.26,0 11,0 1.459693,3.8744928 2.917802,7.7495689 4.375,11.625 0.4125,1.094414 0.825,2.188828 1.25,3.316406 0.399609,1.063477 0.799219,2.126953 1.210937,3.222656 0.366578,0.974048 0.733155,1.948096 1.11084,2.951661 C 22,29.477051 22,29.477051 22,34 c -2.97,0 -5.94,0 -9,0 -0.66,-1.98 -1.32,-3.96 -2,-6 -3.96,0 -7.92,0 -12,0 -0.33,1.98 -0.66,3.96 -1,6 -3.3,0 -6.6,0 -10,0 2.2057513,-7.695145 4.8386622,-15.146233 7.6875,-22.625 0.4157227,-1.09957 0.8314453,-2.1991406 1.2597656,-3.3320312 C -2.0381866,5.360831 -1.0195214,2.6802512 0,0 Z"
       fill="#fffaf7"
       transform="translate(278,25)"
       id="path8" /><path
       d="m 0,0 c 3.63,0 7.26,0 11,0 0.458906,1.3277344 0.917813,2.6554687 1.390625,4.0234375 0.619253,1.7840414 1.239081,3.567883 1.859375,5.3515625 0.318479,0.916523 0.636958,1.833047 0.965088,2.777344 1.88897,5.399525 3.853862,10.732629 6.156006,15.972656 C 22,30 22,30 22,34 c -2.97,0 -5.94,0 -9,0 -0.66,-1.65 -1.32,-3.3 -2,-5 -3.96,-0.33 -7.92,-0.66 -12,-1 -0.33,1.98 -0.66,3.96 -1,6 -3.3,0 -6.6,0 -10,0 1.928507,-7.821168 4.5161613,-15.087699 7.5703125,-22.515625 C -2.8699402,7.6830237 -1.4166223,3.8563607 0,0 Z"
       fill="#f8fcf8"
       transform="translate(432,25)"
       id="path9" /><path
       d="m 0,0 c 2.97,0 5.94,0 9,0 0.33,3.96 0.66,7.92 1,12 0.52207,-0.86625 1.044141,-1.7325 1.582031,-2.625 C 17.35525,0.43016549 17.35525,0.43016549 22.046875,-0.796875 24.787688,-0.75427169 27.315249,-0.54196852 30,0 28.371836,3.7573025 25.985981,6.616823 23.375,9.75 22.557734,10.734844 21.740469,11.719687 20.898437,12.734375 20.271953,13.482031 19.645469,14.229688 19,15 c 1.515095,4.855604 4.320236,8.017462 7.625,11.75 C 32,32.890937 32,32.890937 32,34 27.74877,34.854629 24.222048,35.092591 20,34 15.756907,30.506868 12.869896,25.622311 10,21 9.67,25.29 9.34,29.58 9,34 6.03,34 3.06,34 0,34 0,22.78 0,11.56 0,0 Z"
       fill="#f6fbf6"
       transform="translate(489,25)"
       id="path10" /><path
       d="M 0,0 C 2.97,0 5.94,0 9,0 9.025056,0.68626465 9.050112,1.3725293 9.075928,2.0795898 9.1917143,5.1782582 9.3145189,8.2766092 9.4375,11.375 c 0.039316,1.080234 0.078633,2.160469 0.1191406,3.273438 0.062842,1.546874 0.062842,1.546874 0.1269532,3.124999 0.036658,0.953101 0.073315,1.906202 0.1110839,2.888184 C 9.8576347,23.021323 9.8576347,23.021323 11,25 c 1.999547,0.04254 4.000416,0.04081 6,0 1.714432,-1.714432 1.23053,-4.004452 1.316406,-6.347656 0.0419,-1.07959 0.08379,-2.15918 0.126953,-3.271485 0.03932,-1.136308 0.07863,-2.272617 0.119141,-3.443359 0.06478,-1.710264 0.06478,-1.710264 0.130859,-3.4550781 C 18.799828,5.655078 18.901842,2.8276426 19,0 c 2.97,0 5.94,0 9,0 0.116623,4.0414221 0.187393,8.0824087 0.25,12.125 0.05027,1.713164 0.05027,1.713164 0.101562,3.460938 C 28.426555,22.035299 28.44341,26.145923 24,31 20.697401,33.902284 18.118426,34.915591 13.6875,35.25 9.5385936,34.968718 7.420604,34.356416 4,32 -0.86219239,25.669478 -0.47939119,19.822098 -0.25,12.0625 -0.23195312,10.901699 -0.21390625,9.7408984 -0.1953125,8.5449219 -0.14841259,5.6957525 -0.08279059,2.8483147 0,0 Z"
       fill="#fff6f2"
       transform="translate(136,25)"
       id="path11" /><path
       d="m 0,0 c 7.26,0 14.52,0 22,0 0,2.64 0,5.28 0,8 -4.29,0 -8.58,0 -13,0 0,1.65 0,3.3 0,5 4.29,0 8.58,0 13,0 0,2.64 0,5.28 0,8 -4.29,0 -8.58,0 -13,0 0,1.65 0,3.3 0,5 4.62,0 9.24,0 14,0 0,2.64 0,5.28 0,8 C 15.41,34 7.82,34 0,34 0,22.78 0,11.56 0,0 Z"
       fill="#fff8f4"
       transform="translate(205,25)"
       id="path12" /><path
       d="m 0,0 c 7.26,0 14.52,0 22,0 0,2.64 0,5.28 0,8 -4.62,0 -9.24,0 -14,0 0,1.65 0,3.3 0,5 4.29,0 8.58,0 13,0 0,2.64 0,5.28 0,8 -4.29,0 -8.58,0 -13,0 0,1.65 0,3.3 0,5 4.62,0 9.24,0 14,0 0,2.64 0,5.28 0,8 C 14.74,34 7.48,34 0,34 0,22.78 0,11.56 0,0 Z"
       fill="#fcfdfb"
       transform="translate(525,25)"
       id="path13" /><path
       d="M 0,0 C 0.9796875,-0.00257812 1.959375,-0.00515625 2.96875,-0.0078125 5.5,0.125 5.5,0.125 7.5,1.125 c 0,2.97 0,5.94 0,9 -5.445,-0.495 -5.445,-0.495 -11,-1 2.59531721,2.747983 5.033408,5.022272 8.1875,7.125 C 7.5,18.125 7.5,18.125 9.5,21.125 9.9782428,25.349478 9.75509,27.624268 7.8125,31.4375 5.3102135,34.345563 4.2003725,35.284006 0.5,36.125 c -4.1982775,0.310052 -7.8891588,0.02771 -12,-1 0,-3.3 0,-6.6 0,-10 0.99,0.33 1.98,0.66 3,1 1.3943966,0.06665 2.7916988,0.08538 4.1875,0.0625 C -3.054375,26.166875 -1.79625,26.14625 -0.5,26.125 -3.3069689,23.167973 -6.4584708,20.902145 -9.7578125,18.527344 -11.5,17.125 -11.5,17.125 -12.5,15.125 -13.181284,8.3121624 -13.181284,8.3121624 -11.453125,5.3007812 -7.741404,0.79213196 -5.6571164,-0.01488715 0,0 Z"
       fill="#fff7f2"
       transform="translate(95.5,23.875)"
       id="path14" /><path
       d="M 0,0 C 0,3.3 0,6.6 0,10 -1.32,9.67 -2.64,9.34 -4,9 -8.6232528,8.577498 -8.6232528,8.577498 -12.875,10.0625 -14.615574,13.060156 -14.88122,15.555366 -15,19 c 1.345624,2.947557 2.085545,4.542773 5,6 1.7070274,0.06996 3.41668,0.0844 5.125,0.0625 0.9100781,-0.009 1.8201563,-0.01805 2.7578125,-0.02734 C -1.4185156,25.023555 -0.71984375,25.011953 0,25 c 0,2.97 0,5.94 0,9 -5.4757866,1.825262 -10.907403,1.80127 -16.25,-0.5 C -20.668965,30.954676 -23.307826,27.819187 -25,23 -25.83889,17.343058 -25.81484,12.690038 -23.3125,7.5 -17.453374,1.1658101 -8.7610136,-4.3805068 0,0 Z"
       fill="#fff7f3"
       transform="translate(326,25)"
       id="path15" /><path
       d="m 0,0 c 7.92,0 15.84,0 24,0 0,2.64 0,5.28 0,8 -2.64,0 -5.28,0 -8,0 0,8.58 0,17.16 0,26 -2.97,0 -5.94,0 -9,0 C 7,25.42 7,16.84 7,8 4.69,8 2.38,8 0,8 0,5.36 0,2.72 0,0 Z"
       fill="#f7fbf7"
       transform="translate(552,25)"
       id="path16" /><path
       d="m 0,0 c 7.92,0 15.84,0 24,0 0,2.64 0,5.28 0,8 -2.64,0 -5.28,0 -8,0 0,8.58 0,17.16 0,26 -2.97,0 -5.94,0 -9,0 C 7,25.42 7,16.84 7,8 4.69,8 2.38,8 0,8 0,5.36 0,2.72 0,0 Z"
       fill="#fff9f6"
       transform="translate(108,25)"
       id="path17" /><path
       d="M 0,0 C 3.3746271,0.54723683 5.08235,1.0549 8,3 8,3.66 8,4.32 8,5 7.01,5.33 6.02,5.66 5,6 c 1.65,0.33 3.3,0.66 5,1 0,0.99 0,1.98 0,3 -1.65,0.66 -3.3,1.32 -5,2 2.31,0 4.62,0 7,0 0,1.32 0,2.64 0,4 0.66,0 1.32,0 2,0 0.265547,-0.705117 0.531094,-1.410234 0.804688,-2.136719 C 16.06499,10.844322 17.53958,8.0481492 19.125,5.1875 19.663828,4.2116797 20.202656,3.2358594 20.757812,2.2304688 21.167734,1.4944141 21.577656,0.75835938 22,0 c 1.32,0 2.64,0 4,0 -0.255114,2.4400908 -0.528327,4.8757706 -0.8125,7.3125 -0.07025,0.690293 -0.140508,1.3805859 -0.212891,2.0917969 -0.616969,5.1085091 -0.616969,5.1085091 -2.221435,7.2941891 -2.289766,1.699867 -3.699296,1.688598 -6.534424,1.699951 -0.924258,0.0039 -1.848516,0.0077 -2.800781,0.01172 -0.96293,-0.0116 -1.92586,-0.0232 -2.917969,-0.03516 -1.4443945,0.0174 -1.4443945,0.0174 -2.9179688,0.03516 -0.9242578,-0.0039 -1.8485156,-0.0077 -2.8007812,-0.01172 -0.8449805,-0.0034 -1.6899609,-0.0068 -2.5605469,-0.01025 C -0.48180806,17.915779 -1.3700097,17.173645 -3,15 -3.3984375,12.441406 -3.3984375,12.441406 -3.375,9.5625 -3.3827344,8.6150391 -3.3904688,7.6675781 -3.3984375,6.6914062 -2.9479022,3.6480843 -2.0261774,2.267389 0,0 Z"
       fill="#fff4ee"
       transform="translate(31,18)"
       id="path18" /><path
       d="m 0,0 c 6.9615385,0 6.9615385,0 11,3 1.737505,3.4750091 1.585888,7.208563 1,11 C 9.9375,16.5625 9.9375,16.5625 7,18 4.69,18 2.38,18 0,18 0,12.06 0,6.12 0,0 Z"
       fill="#ff6f06"
       transform="translate(179,33)"
       id="path19" /><path
       d="M 0,0 C 0.99,0 1.98,0 3,0 3,4.29 3,8.58 3,13 1.68,12.67 0.36,12.34 -1,12 -1.0268728,10.187579 -1.0463371,8.3750477 -1.0625,6.5625 -1.0741016,5.5531641 -1.0857031,4.5438281 -1.0976562,3.5039063 -1,1 -1,1 0,0 Z"
       fill="#ff7a21"
       transform="translate(48,45)"
       id="path20" /><path
       d="M 0,0 C 0.99,0.33 1.98,0.66 3,1 3,4.96 3,8.92 3,13 1.68,13 0.36,13 -1,13 -1.0268655,11.020906 -1.0463337,9.0417103 -1.0625,7.0625 -1.0741016,5.9603516 -1.0857031,4.8582031 -1.0976562,3.7226563 -1,1 -1,1 0,0 Z"
       fill="#ff7e25"
       transform="translate(33,45)"
       id="path21" /><path
       d="M 0,0 C 2.375,-0.125 2.375,-0.125 5,0 5.66,0.66 6.32,1.32 7,2 6.4444444,6.5555556 6.4444444,6.5555556 5,8 3.3338289,8.0406383 1.666119,8.042721 0,8 0,5.36 0,2.72 0,0 Z"
       fill="#299f1b"
       transform="translate(466,32)"
       id="path22" /><path
       d="M 0,0 C 0.66,0 1.32,0 2,0 2,4.29 2,8.58 2,13 1.01,13 0.02,13 -1,13 -1.0268655,11.020906 -1.0463337,9.0417103 -1.0625,7.0625 -1.0741016,5.9603516 -1.0857031,4.8582031 -1.0976562,3.7226563 -1,1 -1,1 0,0 Z"
       fill="#ff6a05"
       transform="translate(41,45)"
       id="path23" /><path
       d="M 0,0 C 0.99,0.33 1.98,0.66 3,1 0.78282702,3.40855 -0.96429009,4.8930024 -4.2875977,5.2363281 -6.9779346,5.1690059 -9.6319778,4.9886896 -12.3125,4.75 -13.243848,4.6842578 -14.175195,4.6185156 -15.134766,4.5507812 -17.425328,4.3863306 -19.712512,4.2022018 -22,4 c 0,-0.33 0,-0.66 0,-1 0.595386,-0.019819 1.190771,-0.039639 1.804199,-0.060059 2.690723,-0.095103 5.380652,-0.2048398 8.070801,-0.3149414 0.937148,-0.030937 1.874297,-0.061875 2.8398437,-0.09375 1.3438477,-0.058008 1.3438477,-0.058008 2.7148438,-0.1171875 0.827417,-0.031421 1.654834,-0.062842 2.5073242,-0.095215 C -1.7801391,2.1740086 -1.7801391,2.1740086 0,0 Z"
       fill="#ff7e1e"
       transform="translate(54,33)"
       id="path24" /><path
       d="M 0,0 C 2.5654594,2.5654594 2.5404609,4.4768667 3,8 1.35,8 -0.3,8 -2,8 -1.125,2.25 -1.125,2.25 0,0 Z"
       fill="#ff7e26"
       transform="translate(283,37)"
       id="path25" /><path
       d="M 0,0 C 2.5654594,2.5654594 2.5404609,4.4768667 3,8 1.35,8 -0.3,8 -2,8 -1.125,1.125 -1.125,1.125 0,0 Z"
       fill="#3aa52d"
       transform="translate(437,37)"
       id="path26" /></g></svg>
