<?xml version="1.0" encoding="UTF-8" standalone="no"?>
<svg
   viewBox="0 0 24 24"
   width="24pt"
   height="24pt"
   version="1.1"
   id="svg1"
   sodipodi:docname="supermacs.svg"
   xml:space="preserve"
   inkscape:version="1.3 (0e150ed6c4, 2023-07-21)"
   xmlns:inkscape="http://www.inkscape.org/namespaces/inkscape"
   xmlns:sodipodi="http://sodipodi.sourceforge.net/DTD/sodipodi-0.dtd"
   xmlns="http://www.w3.org/2000/svg"
   xmlns:svg="http://www.w3.org/2000/svg"><defs
     id="defs1" /><sodipodi:namedview
     id="namedview1"
     pagecolor="#ffffff"
     bordercolor="#000000"
     borderopacity="0.25"
     inkscape:showpageshadow="2"
     inkscape:pageopacity="0.0"
     inkscape:pagecheckerboard="0"
     inkscape:deskcolor="#d1d1d1"
     inkscape:document-units="pt"
     inkscape:zoom="11.546875"
     inkscape:cx="8.1407307"
     inkscape:cy="14.679296"
     inkscape:window-width="1920"
     inkscape:window-height="974"
     inkscape:window-x="-11"
     inkscape:window-y="1609"
     inkscape:window-maximized="1"
     inkscape:current-layer="svg1" /><g
     id="g1"
     transform="matrix(0.01671221,0,0,0.01671221,3.7556473,7.9388035)"
     style="fill:#ffffff"><path
       d="m 0,0 c 3.0920947,2.0379715 4.8616556,3.6168403 6.75,6.8125 0.8836619,5.85426 -0.8146748,10.179256 -4,15 -0.78375,0.61875 -1.5675,1.2375 -2.375,1.875 -1.8705765,1.95124 -1.8705765,1.95124 -1.4472656,4.159668 C 0.2799866,33.989664 1.8827328,40.020204 3.625,46.0625 c 13.643943,48.586971 13.643943,48.586971 5.125,66.75 -4.8043831,8.33658 -12.0246522,13.78242 -21,17 -10.243031,2.44045 -20.512084,1.60144 -30,-3 -7.026011,-4.54218 -10.4057,-10.2171 -13,-18 -0.993684,-11.288903 -0.993684,-11.288903 1.75,-15.625 3.483249,-3.676763 5.030453,-4.256979 10.125,-4.75 4.289409,0.09621 6.812903,1.628383 10.125,4.375 1.414419,2.828837 1.319003,4.873767 1,8 -0.66,0.45375 -1.32,0.9075 -2,1.375 -2.459311,1.61608 -2.459311,1.61608 -2.5,5.5625 0.149233,3.12241 0.393113,3.92355 2.375,6.5 3.376261,2.48255 5.847004,2.96031 10.085938,2.91406 3.488124,-0.6014 4.989027,-2.61818 7.039062,-5.35156 6.551563,-18.142791 -2.191673,-44.271476 -7,-62 -8.544978,8.614002 -14.988093,18.120185 -21.5,28.3125 -1.943133,3.020031 -3.891749,6.036476 -5.84375,9.050781 -0.473408,0.731191 -0.946816,1.462381 -1.43457,2.215729 -3.119349,4.79285 -6.317135,9.519964 -9.62793,14.18271 -0.390707,0.55352 -0.781414,1.10703 -1.18396,1.67732 -7.239316,10.06857 -16.439846,18.63552 -28.40979,22.56096 -10.6468,1.15594 -18.711,0.0112 -27.21094,-6.76172 -5.1146,-4.6868 -8.08633,-9.89726 -10.78906,-16.23828 -1.98052,2.47345 -3.95901,4.94839 -5.92969,7.42969 -1.35004,1.69704 -2.70593,3.38943 -4.0664,5.07812 -1.19325,1.484 -2.37676,2.97603 -3.53907,4.48438 -4.26315,5.34378 -10.79813,11.31645 -17.78515,12.35156 -5.30589,0.29559 -8.89909,0.15837 -13.11719,-3.28125 -6.93611,-7.09213 -8.33378,-15.50757 -9.5625,-25.0625 -0.59426,1.00418 -1.18852,2.00836 -1.80078,3.04297 -16.0731,26.71081 -16.0731,26.71081 -28.19922,31.95703 -5.23301,0.79826 -8.58511,-0.12073 -13,-3 -3.18807,-3.41049 -5.72506,-6.92906 -8,-11 -0.4009,0.54527 -0.8018,1.09055 -1.21484,1.65234 -7.22831,9.58858 -15.44399,20.04178 -27.91016,22.34766 -5.80231,0 -9.29031,-1.66182 -13.6875,-5.375 -6.16358,-7.3963 -4.96362,-17.53464 -4.1875,-26.625 1.81037,-13.19884 4.85056,-26.261161 8.30078,-39.121094 0.81723,-2.871014 0.81723,-2.871014 0.69922,-5.878906 -17.02355,22.418807 -32.27958,46.65735 -42.11011,73.13403 -0.32589,0.85941 -0.65178,1.71881 -0.98755,2.60425 -0.27336,0.75322 -0.54672,1.50643 -0.82837,2.28247 -1.31668,2.42655 -2.75214,3.52015 -5.07397,4.97925 -3.93159,0.93748 -7.50587,0.74434 -11.14062,-1.06641 -3.52049,-2.62605 -3.52049,-2.62605 -4.85938,-4.93359 -0.58386,-7.03297 1.16567,-12.76552 3.32422,-19.41797 0.34328,-1.09307 0.68656,-2.18614 1.04024,-3.31233 1.09695,-3.48923 2.20867,-6.9735 3.32304,-10.4572 5.04313,-15.83046 9.74851,-31.577508 13.3125,-47.8125 -0.95893,1.102189 -1.91551,2.206433 -2.87109,3.311523 -0.53295,0.614702 -1.0659,1.229404 -1.61499,1.862732 -15.46815,18.6542 -24.97226,44.272355 -34.67408,66.356995 -0.71567,1.62615 -0.71567,1.62615 -1.4458,3.28516 -0.93215,2.12876 -1.85496,4.26164 -2.76855,6.39843 -0.432,0.99129 -0.864,1.98258 -1.30908,3.00391 -0.37568,0.87592 -0.75137,1.75184 -1.13843,2.6543 -1.17798,2.12695 -1.17798,2.12695 -4.17798,4.12695 -5.31681,0.72886 -11.18567,1.27544 -15.6875,-2.0625 -2.65327,-3.37037 -3.36867,-5.7473 -3.3125,-9.9375 0.66601,-3.95094 1.73469,-7.76878 2.8125,-11.625 0.46455,-1.72706 0.46455,-1.72706 0.93848,-3.48901 0.87541,-3.24528 1.7628,-6.48684 2.65558,-9.72736 1.74424,-6.34462 3.46175,-12.69658 5.18386,-19.04724 0.64365,-2.36533 1.29325,-4.72896 1.944,-7.092347 5.14411,-17.252002 5.14411,-17.252002 6.46558,-35.019043 -3.99364,5.739591 -7.50782,11.49279 -10.5,17.8125 -0.41234,0.863833 -0.82468,1.727666 -1.24951,2.617676 -4.92266,10.602501 -9.00486,21.562944 -13.07666,32.514404 -2.74174,7.30459 -5.65803,14.38559 -9.32227,21.28198 -0.4758,0.89591 -0.4758,0.89591 -0.96121,1.80991 -6.1508,11.19738 -15.14313,21.99519 -27.43722,26.36978 -5.16264,1.24955 -8.90855,0.41147 -13.64063,-2.09375 -5.64433,-4.64089 -9.38379,-9.31419 -10.18359,-16.77344 -0.24917,-14.68594 4.8712,-26.52268 10.55078,-39.82104 5.97394,-13.484443 5.97394,-13.484443 5.14062,-27.835208 -0.70018,-1.660434 -1.50079,-3.277917 -2.32031,-4.882812 -2.53088,2.295708 -4.0399,4.621574 -5.64453,7.628906 -0.50515,0.940049 -1.0103,1.880098 -1.53076,2.848633 -0.54028,1.018037 -1.08056,2.036074 -1.63721,3.084961 -0.56606,1.05542 -1.13212,2.11084 -1.71533,3.198242 -1.82867,3.410639 -3.65045,6.824905 -5.47217,10.239258 -1.85527,3.46606 -3.7128,6.93087 -5.573,10.39429 -1.16671,2.17266 -2.33108,4.34657 -3.49267,6.52197 -12.20093,22.7525 -25.53973,45.64366 -50.93433,55.08374 -7.61309,1.81702 -14.02419,1.54603 -21,-2 -7.4903,-4.64398 -10.48396,-12.66846 -13.3125,-20.75 -5.40265,-25.53978 1.93065,-53.023799 15.8125,-74.75 8.6005,-12.97181 19.37681,-23.623683 35.06641,-27.0625 5.70593,-0.83629 10.49076,-0.589448 15.43359,2.5625 4.34912,3.740069 7.82642,7.870543 8.85156,13.679687 1.11993,17.506264 -6.21506,31.501192 -17.24218,44.582033 -8.46342,8.88152 -18.93499,15.84682 -30.60938,19.73828 -1.22662,12.12654 -1.22662,12.12654 1,24 3.03024,1.51512 5.72459,1.51971 9,1 22.19124,-7.83651 31.9626,-31.71799 42,-51 0.57895,-1.10827 1.1579,-2.21654 1.75439,-3.358398 2.23244,-4.274561 4.46375,-8.549476 6.6709,-12.837159 2.40716,-4.674771 4.83949,-9.321673 7.42237,-13.902099 0.43014,-0.772713 0.86028,-1.545425 1.30346,-2.341553 0.78406,-1.400283 1.58249,-2.792666 2.39893,-4.174316 2.54469,-4.576613 2.45155,-7.336215 1.44995,-12.386475 1.36694,-4.03248 2.89131,-8.010871 6,-11 2.33203,-0.351563 2.33203,-0.351563 5,0 2.17578,1.722656 2.17578,1.722656 4.3125,4.0625 2.83295,3.006775 5.64718,5.844818 8.8125,8.5 8.08739,7.024108 13.94634,13.868029 15.28906,24.8125 0.63924,15.879923 -5.61356,29.86265 -12.02295,44.07593 -2.73974,6.24192 -4.19266,11.72028 -4.39111,18.54907 4.46566,-0.51036 6.68169,-2.0206 10,-5 8.63594,-11.32497 13.26038,-25.07343 18.44531,-38.179688 C -375.13868,42.38416 -375.13868,42.38416 -354.25,32.375 c 5.36418,-1.005784 9.29641,-0.710574 13.875,2.375 6.05746,8.729862 3.7668,18.174435 2.0625,28.03125 -1.1647,6.376754 -2.46373,12.718085 -3.9375,19.03125 0.90879,-1.488867 0.90879,-1.488867 1.83594,-3.007813 24.03773,-39.107972 24.03773,-39.107972 39.85156,-44.992187 3.30643,0 4.76102,0.918529 7.3125,3 7.35166,12.471242 1.58944,29.677458 -1,43 0.3893,-0.643242 0.77859,-1.286484 1.17969,-1.949219 8.73656,-14.111365 19.7663,-31.249612 34.82031,-39.050781 4.12229,-0.731375 5.82081,-0.764877 9.3125,1.5 4.00215,5.929111 3.98469,12.350341 3.25,19.1875 -0.12846,1.29865 -0.12846,1.29865 -0.25952,2.623535 -1.26162,11.193183 -3.57207,22.249042 -5.82617,33.277588 -1.91442,9.499717 -3.11786,18.717077 -3.47681,28.411377 4.49786,-2.14228 7.40197,-4.10209 10.6875,-7.875 0.74637,-0.84305 1.49273,-1.68609 2.26172,-2.55469 4.01894,-5.03707 5.50813,-9.03431 6.36328,-15.38281 4.13066,-26.028758 19.06607,-49.619675 40.33594,-65.117188 14.10794,-9.418766 27.62418,-12.506796 44.35156,-11.070312 5.49901,1.303757 9.57478,3.544965 14,7 -0.60317,4.621077 -1.85555,8.515558 -3.625,12.820312 -0.54362,1.340332 -1.08681,2.680834 -1.62964,4.021485 -0.28507,0.698591 -0.57015,1.397182 -0.86386,2.116943 -4.76967,11.721326 -9.22158,23.483081 -13.069,35.54126 -0.36158,1.130669 -0.72316,2.261338 -1.0957,3.42627 -2.60809,8.342607 -4.78903,16.384 -5.3418,25.13623 -0.0748,1.12535 -0.14953,2.2507 -0.22656,3.41016 -0.049,0.83402 -0.098,1.66804 -0.14844,2.52734 5.31241,-1.94594 8.1957,-3.73979 11.8125,-8.25 0.41379,-0.51434 0.82758,-1.02867 1.25391,-1.55859 5.06606,-6.42414 9.60002,-13.257693 13.93359,-20.19141 0.39703,-0.623906 0.79406,-1.247812 1.20313,-1.890625 1.32104,-3.496893 1.57542,-7.16634 2.04687,-10.859375 2.65021,-18.379209 10.387,-35.307692 22.75,-49.25 0.55301,-0.635508 1.10602,-1.271016 1.67578,-1.925781 7.84066,-8.439472 18.020587,-14.6876312 29.60547,-15.386719 1.593427,-0.052585 3.187255,-0.094113 4.78125,-0.125 0.756116,-0.022478 1.512231,-0.044956 2.29126,-0.068115 5.650399,0.023976 9.904751,1.4096853 14.64624,4.505615 2.910988,3.098794 3.856693,5.829662 4.375,10.0625 -0.637772,6.696606 -3.291719,12.075845 -8.3125,16.5625 -3.469411,1.557695 -5.317977,2.092036 -9.0625,1.375 -3.167972,-2.652255 -5.627488,-5.628535 -8,-9 -1.051875,0.4125 -2.10375,0.825 -3.1875,1.25 -0.88752,0.348047 -0.88752,0.348047 -1.792969,0.703125 -5.210505,2.700997 -8.390503,6.529967 -11.457031,11.421875 -0.38688,0.614319 -0.77376,1.228638 -1.172363,1.861572 -9.503177,15.490539 -15.189727,33.342439 -11.069827,51.45874 1.02296,3.468648 2.14611,5.704438 4.67969,8.304688 5.83774,1.81171 9.919311,0.90024 15.429688,-1.59375 9.155974,-5.00935 15.182736,-12.219164 21.221191,-20.549805 2.436359,-3.352529 4.926774,-6.664785 7.411621,-9.981445 0.509583,-0.681672 1.019165,-1.363345 1.544189,-2.065674 6.533408,-8.71016 13.531033,-17.021846 20.588868,-25.308105 1.273142,-1.496171 2.538951,-2.998574 3.804443,-4.501221 0.765703,-0.772148 1.531406,-1.544297 2.320313,-2.339844 C -27.517289,36.652091 -27.933633,33.528398 -28.1875,29.125 -28.453057,19.823019 -27.802238,11.036762 -21.25,3.8125 -14.251401,-0.87395114 -8.1489558,-2.9775031 0,0 Z m -5.25,6.8125 c -0.66,0.66 -1.32,1.32 -2,2 -0.023086,2.221286 -0.023086,2.221286 0.375,4.625 0.1108594,0.817266 0.2217188,1.634531 0.3359375,2.476563 C -6.4436719,16.540547 -6.3482813,17.167031 -6.25,17.8125 -3.5472747,14.940854 -2.3020816,13.502582 -2,9.5 -2.0825,8.613125 -2.165,7.72625 -2.25,6.8125 c -0.99,0 -1.98,0 -3,0 z m -182.30078,46.757812 c -10.60793,12.279643 -22.58659,32.118957 -22.71875,48.691408 0.3168,3.32938 0.61529,5.14654 3.01953,7.55078 19.54722,-14.523916 36.51578,-47.547352 44,-70 -9.89155,-0.655892 -17.90683,7.026377 -24.30078,13.757812 z M -493.25,65.8125 c -12.98815,7.290413 -19.53181,22.335145 -24,36 0.33,0.99 0.66,1.98 1,3 11.70547,-7.459839 20.92372,-16.64141 24.66016,-30.4375 0.61397,-3.83909 0.54255,-5.258431 -1.66016,-8.5625 z m 197,15 c 1,2 1,2 1,2 z m -48,3 c 1,2 1,2 1,2 z"
       fill="#000000"
       transform="translate(966.25,56.1875)"
       id="path1-4"
       style="fill:#ffffff" /><path
       d="M 0,0 C 3.8677939,0.08595098 5.709928,0.78083452 8.8125,3.125 11.463155,6.6087182 11.668748,8.6670634 12,13 c -0.453125,3.257324 -0.453125,3.257324 -1.25,6.554687 -0.278438,1.191094 -0.556875,2.382188 -0.84375,3.609375 C 9.6071875,24.388672 9.308125,25.613281 9,26.875 8.4117197,29.329549 7.8281092,31.785223 7.25,34.242187 6.9870312,35.32355 6.7240625,36.404912 6.453125,37.519043 6.2288281,38.747117 6.2288281,38.747117 6,40 6.33,40.33 6.66,40.66 7,41 7.4473047,40.347734 7.8946094,39.695469 8.3554688,39.023437 10.216133,36.333607 12.100863,33.662789 14,31 14.416367,30.409609 14.832734,29.819219 15.261719,29.210937 19.657858,23.441968 26.814742,18.319741 34,17 42.338055,16.767175 49.700466,19.235816 56.007812,24.757812 65.735028,35.158774 69.556698,48.701623 69.417236,62.725098 68.618194,84.074903 58.587916,104.414 43.183594,119.09766 32.20862,128.65904 19.705432,136.30028 5,138 c -3.2578125,-0.24609 -3.2578125,-0.24609 -6,-1 -2.5055231,-3.75828 -2.3719571,-5.53651 -2,-10 1.4163545,-4.04673 2.65543092,-7.26847 6,-10 2.1640625,-0.70312 2.1640625,-0.70312 4.625,-1.25 C 19.641251,112.3617 28.154519,101.646 34.25,91.25 40.695418,79.686117 43.538591,68.223563 42,55 40.882663,51.511687 39.626634,48.626634 37,46 32.486903,45.54869 30.021788,45.499532 25.9375,47.5 14.85426,56.932545 8.8193275,69.951176 2.625,82.875 c -0.4823108,0.996647 -0.4823108,0.996647 -0.9743652,2.013428 -4.4593572,9.549033 -6.3531714,19.334452 -7.8771973,29.713132 -0.1931479,1.27645 -0.3862958,2.55289 -0.5852966,3.86801 -0.5091225,3.36603 -1.0094108,6.73331 -1.5079041,10.10093 -0.4068119,2.73819 -0.8198222,5.47543 -1.2331791,8.21264 C -11.939053,152.36908 -11.939053,152.36908 -14,168 c 0.989517,-0.14581 0.989517,-0.14581 1.999023,-0.29457 C 60.069273,157.10996 132.309,149.31362 205.0421,144.9382 c 1.99163,-0.12019 3.98313,-0.24245 5.97462,-0.36481 46.59924,-2.82752 93.22418,-3.91821 139.90393,-3.83413 6.37014,0.0114 12.74012,0.005 19.11025,-0.007 49.05503,-0.0746 97.98544,1.7604 146.9691,4.26763 -2.59986,5.5584 -6.34605,6.88375 -12,9 -21.65017,6.75746 -43.83048,7.67934 -66.3125,6.37891 -2.40234,-0.13224 -4.80468,-0.2644 -7.20703,-0.39649 -3.6972,-0.20679 -7.39431,-0.41502 -11.09131,-0.62524 -36.24193,-2.04906 -72.40824,-2.565 -108.70166,-2.54468 -1.07212,2.7e-4 -2.14425,5.3e-4 -3.24886,8.1e-4 C 271.92072,156.82468 235.4807,157.21152 199,159 c -1.95233,0.0948 -1.95233,0.0948 -3.94409,0.19141 C 124.02893,162.66331 53.490777,169.68842 -17,179 c -0.109037,0.58579 -0.218073,1.17158 -0.330414,1.77512 C -24.457417,218.94679 -24.457417,218.94679 -34,226 c -4.466159,0.93383 -7.864825,0.61694 -11.875,-1.5625 C -52.887744,216.39347 -52.451838,206.05603 -52,196 c 0.50632,-4.03735 1.182485,-8.01461 2,-12 -3.312951,0.62262 -6.625272,1.24854 -9.9375,1.875 -0.926191,0.17402 -1.852383,0.34805 -2.806641,0.52734 -2.754131,0.52184 -5.504897,1.0594 -8.255859,1.59766 -0.794465,0.14397 -1.588931,0.28794 -2.407471,0.43628 -5.479301,1.07105 -10.002036,2.98832 -14.905029,5.62622 -8.157376,4.31143 -14.38803,5.82723 -23.6875,4.9375 -4.44423,-1.52351 -8.00437,-4.40525 -11,-8 0,-0.66 0,-1.32 0,-2 10.67641,-3.0269 21.40117,-5.41987 32.287598,-7.55493 2.578368,-0.5058 5.155232,-1.01875 7.731933,-1.53296 8.170757,-1.62334 16.350394,-3.19137 24.550782,-4.6582 0.708088,-0.12795 1.416176,-0.25589 2.145721,-0.38771 C -53.474939,174.3719 -50.859163,174 -48,174 c 0.170156,-1.90459 0.170156,-1.90459 0.34375,-3.84766 0.598582,-5.33008 1.788304,-10.40996 3.15625,-15.58984 0.259907,-0.98646 0.519814,-1.97291 0.787598,-2.98926 3.927886,-14.48167 8.565769,-28.95471 14.890625,-42.5769 C -22.534396,95.39193 -20.445929,80.682619 -18,66 c -0.693918,1.358108 -0.693918,1.358108 -1.401855,2.743652 -35.562868,69.549488 -35.562868,69.549488 -52.441895,75.760258 -4.561742,1.04953 -8.036758,0.73211 -12.105469,-1.64063 C -90.46448,137.87781 -91.781601,131.79776 -93,124 c -0.449883,0.66645 -0.899766,1.33289 -1.363281,2.01953 C -101.64772,136.45715 -110.5095,147.8365 -123,152 c -4.66695,0.54225 -8.07771,0.46985 -12.3125,-1.6875 -5.91838,-5.09256 -8.2176,-9.75015 -9.02344,-17.57422 -0.20188,-17.70504 4.75804,-34.313819 10.552,-50.892333 0.96798,-2.773533 1.91346,-5.553982 2.85621,-8.336181 3.24352,-9.472389 6.75388,-18.796008 10.66601,-28.013672 0.54808,-1.299126 0.54808,-1.299126 1.10722,-2.624497 2.00582,-4.626605 4.03935,-8.887835 7.1545,-12.871597 4.31983,-1.495327 7.12269,-1.221951 11.1875,0.625 3.453665,1.968724 5.899113,3.797797 7.8125,7.375 -0.239572,6.883097 -3.249737,12.755037 -5.9375,19 -4.31595,10.308038 -8.13707,20.677541 -11.5625,31.3125 -0.40855,1.254902 -0.8171,2.509805 -1.23804,3.802734 -5.05876,15.820796 -5.05876,15.820796 -6.44946,32.259766 0.0271,1.08023 0.0541,2.16047 0.082,3.27344 0.0348,0.77601 0.0696,1.55203 0.10547,2.35156 10.2195,-5.77019 15.4178,-16.06644 21,-26 0.390586,-0.68933 0.781172,-1.37865 1.183594,-2.08887 C -85.687971,83.870896 -76.976782,64.551703 -70.786133,44.796387 -69.634596,41.228864 -69.2458,40.163867 -66,38 c 6.372739,-0.61424 11.029432,1.817371 16.152344,5.332031 2.02325,1.826487 2.845329,3.148046 3.847656,5.667969 -1.05846,7.424237 -3.806837,14.258786 -6.45343,21.246643 -10.262284,23.904792 -10.262284,23.904792 -14.60907,49.003357 0.02083,1.58333 0.04167,3.16667 0.0625,4.75 4.661808,-5.10247 8.815991,-10.27646 12.5,-16.125 0.50064,-0.79277 1.001279,-1.58555 1.51709,-2.40234 C -46.437477,94.814606 -41.0962,83.501542 -35.604965,72.278564 -33.102196,67.175071 -30.490088,62.138414 -27.8125,57.125 -19.42062,41.302756 -11.276214,25.482768 -4.7653809,8.7780762 -4.2589001,7.4841394 -4.2589001,7.4841394 -3.7421875,6.1640625 -3.4519873,5.4056103 -3.1617871,4.6471582 -2.862793,3.8657227 -2,2 -2,2 0,0 Z m 4,44 c 1,2 1,2 1,2 z"
       fill="#000000"
       transform="translate(345,101)"
       id="path2"
       style="fill:#ffffff" /><path
       d="M 0,0 C 2.87865,3.1816658 4.2745113,5.8205044 4.5625,10.0625 3.634135,27.440333 -10.1816,44.24883 -21,57 c -0.478403,0.564932 -0.956807,1.129863 -1.449707,1.711914 C -31.821674,69.634909 -43.340447,81.553545 -57.8125,84.875 -61,85 -61,85 -64,83 c -0.460937,-2.292969 -0.460937,-2.292969 0,-5 1.898438,-2.613281 1.898438,-2.613281 4.375,-5.3125 3.964947,-4.593612 5.834119,-7.699403 6.625,-13.6875 -24.079207,-2.330246 -47.7195,16.24613 -65.5,30.25 -1.50562,1.243222 -3.00591,2.492941 -4.5,3.75 -0.7541,0.608437 -1.5082,1.216875 -2.28516,1.84375 -9.49933,7.95142 -18.99433,19.14041 -21.15234,31.70313 -0.20118,3.84761 -0.0458,5.78652 2.25,8.95312 10.32987,7.08334 30.5272,2.2499 42.10889,0.57837 12.878895,-1.82797 26.123493,-3.073 37.35986,4.57397 4.907164,3.84767 8.098465,9.28308 9.040283,15.45459 0.153972,2.30678 0.197345,4.58122 0.178467,6.89307 -0.0097,1.25067 -0.0097,1.25067 -0.01953,2.52661 C -56.183755,188.39644 -72.266745,213.30061 -87,230 c -0.754102,0.86367 -1.508203,1.72734 -2.285156,2.61719 C -91.492505,235.1085 -93.736424,237.55978 -96,240 c -0.576211,0.64195 -1.152422,1.28391 -1.746094,1.94531 -28.786706,30.64599 -73.443116,46.65429 -114.734376,48.1836 -13.07687,0.2139 -25.30058,-1.12994 -35.33203,-10.31641 -7.51992,-8.37527 -9.20125,-16.34779 -8.65625,-27.34375 1.24583,-14.70081 10.38194,-26.3239 21.15625,-35.71875 10.57874,-8.33312 27.25134,-20.78469 41.3125,-19.75 0.72656,2.26172 0.72656,2.26172 1,5 -1.47656,1.95703 -1.47656,1.95703 -3.625,3.8125 -7.39092,6.86115 -11.36114,14.00178 -11.75,24.1875 0.10818,5.13543 0.6126,8.2376 4.375,12 10.07192,6.29495 22.46406,2.62243 33.2915,0.19238 19.37545,-4.60288 37.93542,-12.5746 52.7085,-26.19238 1.05381,-0.91652 1.05381,-0.91652 2.12891,-1.85156 8.49005,-7.80886 18.86568,-22.07329 20.167965,-33.82813 0.05374,-2.72877 0.05374,-2.72877 -0.296875,-6.32031 -3.85042,-2.55001 -7.86178,-2.3412 -12.3125,-2.3125 -1.27303,0.002 -1.27303,0.002 -2.57178,0.004 -9.78564,0.13731 -19.50547,1.18007 -29.22632,2.24096 -15.12096,1.62214 -31.06443,2.70208 -44.11596,-6.50268 -4.90514,-3.97762 -8.07534,-8.03426 -9.0874,-14.4065 -0.16211,-2.14338 -0.20492,-4.24877 -0.18604,-6.39819 0.006,-0.78166 0.0129,-1.56331 0.0195,-2.36865 C -192.44738,110.45682 -166.01923,81.819879 -143,60 c 3.51684,-3.198301 7.21372,-6.127251 11,-9 0.96293,-0.768281 1.92586,-1.536563 2.91797,-2.328125 C -103.1718,28.080234 -34.431542,-20.541545 0,0 Z"
       fill="#000000"
       transform="translate(256,9)"
       id="path3"
       style="fill:#ffffff" /><path
       d="M 0,0 C 6.6177183,3.8707409 10.29035,10.703291 12.3125,18 15.504623,35.618062 11.937611,54.124778 4,70 1.5625,69.3125 1.5625,69.3125 -1,68 -2.0204763,65.303027 -2.1237872,63.58038 -1.5234375,60.765625 -0.90444751,57.495141 -0.79336153,54.390497 -0.75,51.0625 -0.72421875,49.877852 -0.6984375,48.693203 -0.671875,47.472656 -1.2387063,41.473691 -4.1113606,37.604741 -7.9375,33.125 -13.732265,26.051979 -17.35738,19.283789 -17.21875,9.9609375 -16.795492,6.1667309 -14.974638,3.8670482 -12.195313,1.3945312 -8.3456111,-1.0509196 -4.3949437,-0.71739968 0,0 Z"
       fill="#000000"
       transform="translate(921)"
       id="path4"
       style="fill:#ffffff" /></g></svg>
