<svg xmlns="http://www.w3.org/2000/svg" width="24" height="24"><path fill="#212121" fill-rule="evenodd" d="M5.83 6.75c-.1.1-.09.47.02.8.05.17.13.2.54.17l.48-.04-.01-.51-.02-.52h-.46c-.25 0-.5.04-.55.1m1.5-.08c-.16.03-.22.14-.28.5-.03.24-.04.47 0 .5.08.1 1.05.1 1.05 0q0-.07-.09-.07-.08-.02-.08-.25c0-.23.03-.25.08-.25q.08-.02.09-.2-.01-.18-.14-.2-.14 0-.28-.04a1 1 0 0 0-.34.01m1.06 0c-.23.05-.2.88.03 1.02q.16.1.17.02c0-.04.16-.08.36-.07q.36 0 .42-.13.06-.14-.2-.06c-.22.07-.22.07-.06-.11.2-.24.27-.58.1-.6l-.14-.04a2 2 0 0 0-.68-.02m1.18.05c-.05.43-.04.97.04.97q.07-.01.08-.12 0-.15.09 0 .09.13.19.08.1-.04.16.06.06.15.12.01.06-.1.18-.07c.16.06.2-.46.06-.82-.1-.26-.38-.32-.58-.12q-.13.15-.12 0c0-.16-.2-.15-.22 0m1.28.04c-.1.26-.07.7.07.88.1.14.12.08.12-.44q0-.9-.19-.44m.38.1c-.11.44.07.79.4.79.3 0 .57-.27.42-.42q-.08-.05-.17.1c-.18.32-.39.2-.39-.22 0-.47-.17-.63-.26-.25m1.11-.1q-.2.15-.08.22t.03.22q-.2.35.05.26.14-.04.15.08c0 .2.21.25.53.11.25-.1.26-.13.13-.24-.2-.17-.2-.31-.01-.31.27 0 .16-.2-.15-.26-.16-.04-.3-.1-.3-.15q0-.19-.35.07m1.45-.07c0 .05-.1.13-.2.16q-.18.07-.14.16.06.08.15.03c.06-.03.18-.02.27.02q.2.07-.13.13-.3.05-.3.26c0 .15.08.2.34.23.18.02.38-.01.44-.07q.13-.12-.27-.11-.36 0-.3-.1c.03-.07.18-.08.35-.05q.46.09.17-.23-.15-.13 0-.12.11 0 .12-.1-.02-.09-.15-.1-.13 0-.15-.1a.1.1 0 0 0-.1-.1q-.1 0-.1.1m1.72.2c.07.23.07.38 0 .55-.14.3.03.44.18.16a.9.9 0 0 0 0-.82c-.17-.3-.3-.22-.18.12m-1.02.12a1 1 0 0 0 .15.53c.15.19.15.19.3 0 .17-.23.1-.42-.1-.25-.13.1-.15.05-.15-.25 0-.2-.04-.36-.1-.36-.05 0-.1.15-.1.33m-10.8.08c-.6.24-.84.82-.56 1.37.13.25.28.34.73.48.86.24 1.03.32 1.1.5.08.22-.22.44-.6.44a.7.7 0 0 1-.51-.25c-.3-.31-.86-.36-.86-.06 0 .26.34.66.7.8.18.08.53.12.87.09.48-.04.6-.1.85-.37.36-.4.38-.89.05-1.27-.17-.19-.43-.32-.93-.44-.6-.15-.7-.2-.72-.43-.03-.21.02-.26.28-.32.31-.07.8.14.8.35 0 .06.16.1.35.1.27 0 .35-.04.35-.18 0-.65-1.1-1.12-1.9-.8m12.4.48c0 .47-.1.63-.25.4-.12-.2-.73-.1-1.04.16l-.31.26v-.26c0-.2-.05-.26-.22-.26a.7.7 0 0 0-.4.17q-.16.14-.18.05c0-.07-.15-.12-.35-.12H13v2.4h.7v-.68q0-1.13.53-1.12c.2 0 .22.04.18.52-.07 1.05.75 1.73 1.47 1.22q.2-.12.22-.05c0 .15.67.14.73-.01q.06-.15.06 0c0 .07.15.12.36.12h.35v-.78c0-.83.09-1.02.46-1.02q.23 0 .26-.22c.02-.15.19.2.45.95.43 1.2.45 1.47.12 1.47-.14 0-.19.07-.19.3 0 .27.03.3.33.3.2 0 .4-.08.5-.18.15-.16 1.17-2.9 1.17-3.13 0-.05-.15-.09-.34-.09-.34 0-.35.02-.5.58-.3 1.02-.3 1.02-.54.2l-.23-.75-.56-.07c-.42-.05-.62-.03-.8.09-.12.08-.23.1-.23.05s-.16-.1-.35-.1c-.35 0-.35 0-.35-.45s0-.45-.35-.45h-.35zm-7.04.37c-.03.04-.27.06-.51.04L8.1 8v3.41h.7v-.55c0-.5.1-.7.25-.45.03.05.22.1.41.1.97 0 1.4-1.56.64-2.31-.27-.28-.86-.4-1.04-.22m2.02.1c-.36.22-.48.53-.48 1.2 0 .5.03.58.35.9.33.33.39.35.87.3.42-.04.57-.1.8-.36.15-.17.28-.36.28-.41 0-.16-.66-.12-.8.05-.24.3-.8.09-.8-.3 0-.02.37-.05.81-.05h.82l-.06-.47c-.07-.64-.49-1.03-1.1-1.03-.23 0-.54.08-.69.17m-5.28.97c0 1.02 0 1.05.27 1.26.22.17.36.2.63.15.2-.03.56-.05.83-.05l.47.01V8h-.7v.85c0 .8-.01.86-.24.97-.48.21-.56.07-.56-.92V8h-.7zm3.1-.35c-.26.5-.01 1.21.43 1.21.4 0 .63-.92.31-1.24-.21-.22-.61-.2-.74.03m2.52-.07c-.21.21-.13.28.33.28.25 0 .45-.04.45-.08 0-.15-.24-.32-.45-.32a.5.5 0 0 0-.33.12m3.84.04c-.1.09-.16.32-.16.54 0 .64.52.94.84.48.44-.63-.17-1.54-.68-1.02m5.18 1.27c-.11.3 0 .52.29.55.24.03.27 0 .27-.27 0-.17-.04-.31-.1-.31l-.24-.06q-.16-.05-.22.1"/></svg>