<?xml version="1.0" encoding="UTF-8" standalone="no"?>
<svg
   viewBox="0 0 24 24"
   width="24pt"
   height="24pt"
   version="1.1"
   id="svg1"
   sodipodi:docname="supervalu.svg"
   xml:space="preserve"
   inkscape:version="1.3.2 (091e20e, 2023-11-25, custom)"
   xmlns:inkscape="http://www.inkscape.org/namespaces/inkscape"
   xmlns:sodipodi="http://sodipodi.sourceforge.net/DTD/sodipodi-0.dtd"
   xmlns="http://www.w3.org/2000/svg"
   xmlns:svg="http://www.w3.org/2000/svg"><defs
     id="defs1" /><sodipodi:namedview
     id="namedview1"
     pagecolor="#505050"
     bordercolor="#eeeeee"
     borderopacity="1"
     inkscape:showpageshadow="0"
     inkscape:pageopacity="0"
     inkscape:pagecheckerboard="0"
     inkscape:deskcolor="#505050"
     inkscape:document-units="pt"
     inkscape:zoom="12.140625"
     inkscape:cx="15.69112"
     inkscape:cy="10.666667"
     inkscape:window-width="1920"
     inkscape:window-height="991"
     inkscape:window-x="-9"
     inkscape:window-y="-9"
     inkscape:window-maximized="1"
     inkscape:current-layer="svg1" /><path
     d="M 4.257785,7.4096834 C 3.8307557,7.5142623 3.5628647,7.8144533 3.5624404,8.1888608 3.562013,8.5355044 3.7118408,8.7277888 4.1569554,8.9519493 4.6267489,9.1885091 4.7287278,9.2877662 4.700964,9.481441 4.6576527,9.7836283 4.0837075,9.8468356 3.7285345,9.5885005 L 3.5621991,9.4675295 v 0.3276515 0.327652 l 0.3780362,0.0698 c 0.8666399,0.160105 1.450509,-0.17559 1.450509,-0.8339778 0,-0.4175337 -0.1367577,-0.5889497 -0.6761704,-0.8477684 C 4.207885,8.2677362 4.1097158,8.1089015 4.3585553,7.9346421 4.5375927,7.8091948 4.6837264,7.814396 4.9987363,7.9573815 L 5.2558004,8.0740582 V 7.8033238 c 0,-0.2253695 -0.022801,-0.2792019 -0.1360931,-0.3214212 C 4.8980876,7.3992165 4.4526704,7.3619602 4.257785,7.4096864 m 9.445156,0.019723 c -0.347249,0.072155 -0.348758,-0.046573 0.01717,1.3461709 0.139904,0.5322749 0.280654,1.0698727 0.312773,1.1945941 l 0.05849,0.2268216 h 0.444387 0.444391 l 0.167183,-0.6804644 c 0.09194,-0.3742255 0.258334,-0.9929952 0.369808,-1.3750231 0.111479,-0.3819675 0.20269,-0.7107678 0.20269,-0.7306076 0,-0.019897 -0.14928,-0.0091 -0.331766,0.024018 -0.215812,0.039078 -0.340596,0.093637 -0.356986,0.1559923 -0.01394,0.05281 -0.113592,0.4906 -0.221499,0.9729739 -0.195911,0.8755925 -0.217509,0.949687 -0.263294,0.9022664 -0.02381,-0.024795 -0.262813,-1.0817884 -0.398842,-1.7641887 -0.0381,-0.1913166 -0.08777,-0.344587 -0.110388,-0.3406557 -0.02257,0.00389 -0.172929,0.0346 -0.334125,0.068106 m 4.141584,-0.00174 -0.324992,0.059098 0.03771,0.2747859 c 0.02076,0.1511539 0.03766,0.760972 0.03766,1.3551843 v 1.0802777 h 0.324147 0.324203 l -0.0066,-1.421416 c -0.0035,-0.7817187 -0.02019,-1.4181488 -0.03684,-1.4142174 -0.01666,0.00389 -0.176498,0.033751 -0.355231,0.066296 M 6.1328367,8.1100825 C 6.0995657,8.1213905 5.970311,8.1476375 5.8455282,8.1685155 L 5.6187073,8.2064995 V 8.931482 c 0,0.8768011 0.073249,1.105498 0.3972697,1.240926 0.2393429,0.09999 0.5042105,0.07083 0.735931,-0.08099 0.1228462,-0.08051 0.1370001,-0.07966 0.1370001,0.008 0,0.0776 0.065683,0.09769 0.3192439,0.09769 h 0.3192438 l -0.00164,-1.0597711 -0.00164,-1.0597708 -0.1663363,0.031512 c -0.09151,0.017361 -0.246903,0.047064 -0.3453728,0.066051 l -0.1789781,0.034454 0.012638,0.702966 0.012699,0.7029046 -0.1622231,0.092246 C 6.547756,9.7923141 6.5240452,9.7905554 6.4092437,9.6867045 6.2956507,9.583879 6.2841583,9.504885 6.2841583,8.826779 c 0,-0.4106986 -0.020388,-0.7445196 -0.045366,-0.7419185 -0.024979,0.00256 -0.072584,0.014028 -0.1058499,0.025285 m 2.1774884,0 c -0.033271,0.011308 -0.1562346,0.03641 -0.2733355,0.055826 l -0.2127887,0.035326 0.00112,1.4817809 0.00112,1.4817206 0.3543857,6.1e-5 h 0.3543958 l -0.021717,-0.468402 -0.021717,-0.468463 0.3141633,-0.03865 C 9.4464806,10.110474 9.7925201,9.7160449 9.7920957,9.0654001 9.7918545,8.6552454 9.6543094,8.3836041 9.3543604,8.200755 9.1197361,8.0576457 8.9539445,8.0496624 8.6714151,8.1677296 c -0.1831497,0.07651 -0.2097643,0.07651 -0.2097643,0 0,-0.086193 -0.031451,-0.098166 -0.1512142,-0.057585 m 2.2322284,0.081531 c -0.6044359,0.2831941 -0.7414357,1.2344546 -0.25156,1.7461638 0.253193,0.2644436 0.702724,0.3678736 1.157092,0.2661976 0.309628,-0.06925 0.326927,-0.08335 0.36104,-0.2937794 0.04392,-0.2704318 0.02195,-0.2965014 -0.174682,-0.2068615 -0.27636,0.1258706 -0.680164,0.088616 -0.846922,-0.078208 -0.08165,-0.081653 -0.148493,-0.1769209 -0.148493,-0.2117008 0,-0.039978 0.236197,-0.063208 0.643569,-0.063208 h 0.643568 l -0.03363,-0.3258367 c -0.0626,-0.6066116 -0.289485,-0.8646441 -0.807365,-0.9182955 -0.214543,-0.022259 -0.36243,0.00102 -0.542617,0.085529 m 1.92617,-0.032545 -0.317551,0.051174 v 0.9933582 0.9934177 l 0.347793,6.1e-5 0.347794,6e-5 -0.02019,-0.6205228 c -0.01825,-0.5612482 -0.0078,-0.6364316 0.110262,-0.7863759 0.10198,-0.1296814 0.181398,-0.1658518 0.364126,-0.1658518 h 0.233717 L 13.460553,8.3672908 C 13.367826,8.0459304 13.190606,7.9964527 12.973097,8.2311976 l -0.147705,0.1593807 -0.01954,-0.1413547 c -0.01868,-0.1353069 -0.03296,-0.1391176 -0.33709,-0.090181 m 3.423376,-0.00767 c -0.200751,0.053475 -0.223012,0.080631 -0.243699,0.2974686 -0.01851,0.1945225 -0.0057,0.2321449 0.06956,0.2032328 0.28362,-0.108814 0.667219,-0.1529688 0.784319,-0.090242 0.183215,0.098044 0.158414,0.24394 -0.0415,0.2443632 -0.527076,0.00102 -0.972068,0.3043641 -1.020032,0.695223 -0.06436,0.5242298 0.431141,0.8809748 0.943818,0.6796178 0.133433,-0.05238 0.242548,-0.07022 0.242548,-0.03968 0,0.0306 0.149702,0.05565 0.332671,0.05565 h 0.332671 L 17.291628,9.395572 C 17.291196,8.877451 17.264062,8.5406658 17.215168,8.4429209 17.056997,8.1262782 16.47101,7.9971408 15.892163,8.1513795 m 2.919284,-0.00603 c -0.146014,0.02867 -0.276177,0.06284 -0.289245,0.075969 -0.01312,0.013128 -0.005,0.4005977 0.01816,0.8610757 0.03788,0.7541972 0.05541,0.8506722 0.176679,0.9719458 0.203112,0.203111 0.520904,0.240794 0.81287,0.09636 0.187866,-0.09297 0.242548,-0.101254 0.242548,-0.03689 0,0.06049 0.09078,0.08317 0.332672,0.08317 h 0.33267 V 9.133687 8.0703467 l -0.181458,0.035081 c -0.0998,0.019232 -0.256336,0.049231 -0.347793,0.066654 l -0.166333,0.031574 0.01855,0.7157283 0.01851,0.7157283 -0.188836,0.078208 c -0.163797,0.067809 -0.202387,0.064722 -0.290754,-0.023465 -0.08208,-0.082021 -0.105733,-0.2479305 -0.121941,-0.8558131 -0.011,-0.4147506 -0.03822,-0.7511125 -0.06049,-0.7474224 -0.02222,0.00358 -0.159862,0.03006 -0.305815,0.05873 m -8.072252,0.4686433 c -0.20045,0.2214387 -0.131315,0.3127718 0.23662,0.3127718 0.321301,0 0.334849,-0.00624 0.29505,-0.1360932 -0.09315,-0.3038191 -0.341805,-0.3865032 -0.53167,-0.1766786 m -2.2050164,0.022441 c -0.045489,0.045489 -0.072584,0.2715207 -0.072584,0.6048571 V 9.7735661 L 8.627924,9.7716261 C 8.9341632,9.7681461 9.1269312,9.5164964 9.1269312,9.120376 9.1269312,8.71125 8.7593588,8.4112406 8.5341708,8.6364286 M 16.275265,9.2606418 C 16.109773,9.3324998 16.0779,9.376109 16.093807,9.509239 c 0.02632,0.2207721 0.177886,0.3079325 0.37743,0.2169624 0.129983,-0.059159 0.155933,-0.1115358 0.155933,-0.3142839 0,-0.2697069 -0.03983,-0.2868852 -0.351905,-0.1512757 m -5.23293,1.8234652 c -0.0222,0.02214 -0.04035,0.199059 -0.04035,0.393158 0,0.31247 0.01385,0.352814 0.120972,0.352814 0.108572,0 0.120971,-0.04035 0.120971,-0.393158 0,-0.287308 -0.02172,-0.393158 -0.08063,-0.393158 -0.0444,0 -0.09883,0.01815 -0.120972,0.04035 m 2.702804,0.0663 c -0.01536,0.05867 -0.108087,0.152666 -0.206071,0.208919 -0.313559,0.179945 -0.181217,0.537355 0.179396,0.48443 0.186421,-0.02734 0.186844,-0.02824 0.186844,-0.413662 0,-0.239281 -0.02515,-0.386323 -0.06617,-0.386323 -0.03637,0 -0.0787,0.04796 -0.09399,0.106636 m 2.740915,-0.0663 c -0.02222,0.02214 -0.04034,0.199059 -0.04034,0.393158 0,0.31247 0.01385,0.352814 0.120974,0.352814 0.108572,0 0.12097,-0.04035 0.12097,-0.393158 0,-0.287308 -0.0217,-0.393158 -0.08063,-0.393158 -0.04439,0 -0.09883,0.01815 -0.12097,0.04035 m 3.145262,0 c -0.02222,0.02214 -0.04034,0.19906 -0.04034,0.393158 0,0.273275 0.02045,0.352814 0.09072,0.352814 0.07132,0 0.09073,-0.08401 0.09073,-0.393158 0,-0.362612 -0.03757,-0.456426 -0.141112,-0.352814 M 9.1874452,11.497432 c 0,0.248173 0.021952,0.332671 0.0865,0.332671 0.047606,0 0.098596,-0.06128 0.1132903,-0.136093 l 0.026799,-0.136093 0.044998,0.136093 c 0.025469,0.07706 0.094363,0.136093 0.158896,0.136093 0.1275648,0 0.1466776,-0.064 0.048454,-0.162223 -0.046941,-0.04694 -0.044272,-0.09944 0.00951,-0.185569 C 9.799344,11.284642 9.7070365,11.16476 9.4312277,11.16476 H 9.1874084 v 0.332672 m 2.4194326,0 c 0,0.292327 0.01464,0.332671 0.120971,0.332671 0.08063,0 0.120972,-0.04035 0.120972,-0.120972 0,-0.06719 0.04035,-0.120971 0.09073,-0.120971 0.0499,0 0.09072,-0.04083 0.09072,-0.09073 0,-0.0499 -0.04083,-0.09073 -0.09072,-0.09073 -0.0499,0 -0.09073,-0.02722 -0.09073,-0.06049 0,-0.03327 0.05443,-0.06049 0.120971,-0.06049 0.06653,0 0.120972,-0.02722 0.120972,-0.06049 0,-0.03327 -0.108875,-0.06049 -0.241943,-0.06049 h -0.241943 v 0.332672 m 3.024286,0 c 0,0.248173 0.02196,0.332672 0.0865,0.332672 0.04761,0 0.0986,-0.06128 0.113291,-0.136093 l 0.02679,-0.136093 0.045,0.136093 c 0.02584,0.07821 0.0943,0.136093 0.161014,0.136093 0.09684,0 0.105425,-0.01979 0.05201,-0.11958 -0.04603,-0.08607 -0.04397,-0.151638 0.0075,-0.233959 0.120059,-0.192224 0.02485,-0.311805 -0.248238,-0.311805 h -0.243821 v 0.332672 m 2.419434,0 c 0,0.292328 0.01462,0.332672 0.12097,0.332672 0.06653,0 0.12097,-0.04029 0.12097,-0.08958 0,-0.04923 0.06605,-0.106153 0.146859,-0.126416 0.165794,-0.04161 0.235895,-0.170569 0.183094,-0.336906 -0.0277,-0.08734 -0.09557,-0.112443 -0.303762,-0.112443 h -0.268131 v 0.332672 M 9.3687912,11.376443 c 0,0.0499 0.027218,0.09073 0.060489,0.09073 0.033271,0 0.060489,-0.04083 0.060489,-0.09073 0,-0.04991 -0.027218,-0.09073 -0.060489,-0.09073 -0.033271,0 -0.060489,0.04083 -0.060489,0.09073 m 0.5181814,0.02577 c -0.057943,0.06406 -0.095927,0.165429 -0.084435,0.22525 0.024437,0.126899 0.2723074,0.266922 0.3914644,0.221196 0.125327,-0.04815 0.09787,-0.128109 -0.05402,-0.157324 -0.116678,-0.0225 -0.112383,-0.0274 0.03024,-0.03448 0.187567,-0.0093 0.218475,-0.128895 0.07132,-0.276117 -0.125991,-0.125931 -0.22664,-0.119884 -0.3545678,0.02147 m 0.6109078,-0.07615 c -0.0793,0.0793 -0.03829,0.129258 0.08063,0.09817 0.173171,-0.0453 0.149642,0.03502 -0.03024,0.10343 -0.08964,0.03405 -0.151215,0.105305 -0.151215,0.174925 0,0.138633 0.07796,0.173352 0.312106,0.138996 0.153997,-0.02263 0.17178,-0.04893 0.17178,-0.253858 0,-0.152606 -0.03176,-0.240794 -0.09569,-0.265291 -0.125083,-0.04803 -0.237164,-0.04657 -0.287367,0.0036 m 1.759108,0.02498 c -0.16047,0.09345 -0.140267,0.40967 0.03024,0.473059 0.319305,0.118674 0.549453,-0.207103 0.313257,-0.44336 -0.109358,-0.109298 -0.19416,-0.116677 -0.343498,-0.0297 m 0.604856,0 c -0.175345,0.102164 -0.126837,0.416989 0.07561,0.490661 0.182606,0.06641 0.362914,-0.05752 0.362914,-0.249504 0,-0.252589 -0.215452,-0.371081 -0.438525,-0.241157 m 1.950667,0.0254 c 0,0.04991 0.02723,0.09073 0.06049,0.09073 0.03326,0 0.06049,-0.04083 0.06049,-0.09073 0,-0.04991 -0.02722,-0.09073 -0.06049,-0.09073 -0.03326,0 -0.06049,0.04083 -0.06049,0.09073 m 0.515218,0.0076 c -0.05402,0.05402 -0.09001,0.155388 -0.07991,0.22531 0.02027,0.140447 0.261543,0.288577 0.389894,0.239342 0.129076,-0.04954 0.09593,-0.138936 -0.05402,-0.14559 -0.132528,-0.0058 -0.132225,-0.0071 0.01065,-0.047 0.18569,-0.0519 0.218595,-0.147645 0.09357,-0.272608 -0.124115,-0.124117 -0.23565,-0.123997 -0.360191,5.6e-4 m 0.61387,-0.05794 c -0.07348,0.07343 -0.04181,0.137907 0.05039,0.102522 0.04991,-0.01917 0.09072,-0.0079 0.09072,0.02504 0,0.03296 -0.05444,0.07416 -0.12097,0.09157 -0.13065,0.03417 -0.168938,0.258817 -0.05081,0.298194 0.03857,0.01288 0.147463,0.01203 0.241945,-0.0018 0.153994,-0.02263 0.171777,-0.04894 0.171777,-0.253859 0,-0.152606 -0.03176,-0.240794 -0.09569,-0.265291 -0.125086,-0.04802 -0.237164,-0.04657 -0.287368,0.0036 m 1.350828,0.05039 c 0,0.0499 0.02722,0.09073 0.06049,0.09073 0.03326,0 0.06049,-0.04083 0.06049,-0.09073 0,-0.04991 -0.02722,-0.09073 -0.06049,-0.09073 -0.03326,0 -0.06049,0.04083 -0.06049,0.09073 m 0.518426,0.0043 c -0.05226,0.05232 -0.09503,0.14692 -0.09503,0.210309 0,0.14317 0.250896,0.315493 0.384627,0.264202 0.143593,-0.0551 0.12182,-0.145106 -0.03684,-0.152183 -0.129499,-0.0057 -0.128774,-0.0081 0.01514,-0.04935 0.106457,-0.03054 0.144922,-0.07796 0.130042,-0.160287 -0.03853,-0.21291 -0.24049,-0.270069 -0.397931,-0.112685 m 0.615681,-0.0297 c -0.160466,0.09345 -0.140267,0.40967 0.03025,0.47306 0.319305,0.118672 0.549454,-0.207104 0.313257,-0.443361 -0.109361,-0.109298 -0.19416,-0.116677 -0.343499,-0.0297 m 0.574614,-0.02274 c -0.07725,0.02861 -0.111474,0.687723 -0.03944,0.759701 0.06587,0.06593 0.205774,-0.0271 0.205774,-0.136879 0,-0.06466 0.0606,-0.123149 0.151212,-0.145892 0.125085,-0.03139 0.151216,-0.07433 0.151216,-0.248475 0,-0.11583 -0.02041,-0.213636 -0.04537,-0.217446 -0.200329,-0.03048 -0.359652,-0.0346 -0.423403,-0.01101 m 0.998018,0.02274 c -0.107786,0.06279 -0.140026,0.275271 -0.05958,0.392734 0.064,0.09339 0.241336,0.148675 0.346882,0.10821 0.142929,-0.05486 0.106276,-0.132464 -0.0756,-0.160045 l -0.166334,-0.02516 0.166334,-0.0091 c 0.179642,-0.0098 0.228211,-0.164945 0.09376,-0.299405 -0.0874,-0.0874 -0.164642,-0.08928 -0.305453,-0.0073 m -9.965,0.116018 c 0,0.03327 0.02885,0.06049 0.06406,0.06049 0.0352,0 0.04724,-0.02722 0.02668,-0.06049 -0.02056,-0.03327 -0.04935,-0.06049 -0.06406,-0.06049 -0.01469,0 -0.02667,0.02722 -0.02667,0.06049 m 2.338802,-0.02014 c -0.06279,0.06273 -0.04742,0.262084 0.02014,0.262084 0.03327,0 0.06049,-0.06804 0.06049,-0.151214 0,-0.158352 -0.01398,-0.177586 -0.08063,-0.11087 m 0.60298,0.05074 c -0.04433,0.115469 0.01777,0.281563 0.08885,0.237649 0.02976,-0.01838 0.05414,-0.08468 0.05414,-0.147283 0,-0.146314 -0.0978,-0.208131 -0.142989,-0.09036 m 2.471691,-0.0306 c -0.02058,0.03327 0.0066,0.06049 0.06049,0.06049 0.05383,0 0.08105,-0.02722 0.06049,-0.06049 -0.02058,-0.03327 -0.04778,-0.06049 -0.06049,-0.06049 -0.01269,0 -0.03991,0.02722 -0.06049,0.06049 m 2.479919,0 c -0.02058,0.03327 -0.0086,0.06049 0.02667,0.06049 0.0352,0 0.06406,-0.02722 0.06406,-0.06049 0,-0.03327 -0.01199,-0.06049 -0.02667,-0.06049 -0.01471,0 -0.0435,0.02722 -0.06405,0.06049 m 0.614957,-0.02014 c -0.06279,0.06273 -0.04742,0.262084 0.02014,0.262084 0.03326,0 0.06049,-0.06804 0.06049,-0.151214 0,-0.158351 -0.01398,-0.177585 -0.08063,-0.11087 m 1.562528,0.02014 c -0.02058,0.03327 -0.0086,0.06049 0.02667,0.06049 0.0352,0 0.06405,-0.02722 0.06405,-0.06049 0,-0.03327 -0.01199,-0.06049 -0.02667,-0.06049 -0.01471,0 -0.04349,0.02722 -0.06406,0.06049 m -6.50222,0.120971 c 0,0.06653 0.02722,0.120972 0.06049,0.120972 0.03326,0 0.06049,-0.05443 0.06049,-0.120972 0,-0.06653 -0.02722,-0.120971 -0.06049,-0.120971 -0.03326,0 -0.06049,0.05444 -0.06049,0.120971 m 5.564692,0 c 0,0.06653 0.02722,0.120972 0.06049,0.120972 0.03326,0 0.06049,-0.05443 0.06049,-0.120972 0,-0.06653 -0.02722,-0.120971 -0.06049,-0.120971 -0.03326,0 -0.06049,0.05444 -0.06049,0.120971 m -8.58898,0.06049 c 0,0.03327 0.02722,0.06049 0.06049,0.06049 0.03327,0 0.06049,-0.02722 0.06049,-0.06049 0,-0.03327 -0.02722,-0.06049 -0.06049,-0.06049 -0.03327,0 -0.06049,0.02722 -0.06049,0.06049 m 5.443718,0 c 0,0.03327 0.02722,0.06049 0.06049,0.06049 0.03326,0 0.06049,-0.02722 0.06049,-0.06049 0,-0.03327 -0.02722,-0.06049 -0.06049,-0.06049 -0.03326,0 -0.06049,0.02722 -0.06049,0.06049 m -1.996032,0.186478 c 0,0.147404 0.141355,0.126596 0.170752,-0.02516 0.01161,-0.0597 -0.01924,-0.100835 -0.0756,-0.100835 -0.05607,0 -0.09515,0.05172 -0.09515,0.125993"
     stroke="none"
     fill="#98212c"
     fill-rule="evenodd"
     id="path1-0"
     style="stroke-width:0.0604857" /></svg>
