<?xml version="1.0" encoding="UTF-8" standalone="no"?>
<svg
   viewBox="0 0 24 24"
   width="24pt"
   height="24pt"
   version="1.1"
   id="svg1"
   xml:space="preserve"
   xmlns="http://www.w3.org/2000/svg"
   xmlns:svg="http://www.w3.org/2000/svg"><defs
     id="defs1" /><g
     id="g1"
     transform="matrix(0.06182544,0,0,0.06182544,2.0793189,2.9242756)"><path
       d="m 172.638,78.5 c -0.316,0.825 -0.139,1.5 0.393,1.5 0.533,0 0.969,-0.675 0.969,-1.5 0,-0.825 -0.177,-1.5 -0.393,-1.5 -0.216,0 -0.652,0.675 -0.969,1.5 m -35.983,16.927 c -1.464,4.642 -2.141,5.521 -4.683,6.079 -4.034,0.886 -3.792,2.499 0.278,1.852 2.687,-0.426 3.971,0.104 7.409,3.063 2.287,1.968 4.431,3.579 4.764,3.579 0.333,0 -0.592,-1.809 -2.055,-4.02 -1.463,-2.212 -2.482,-4.17 -2.264,-4.353 0.218,-0.183 1.296,-0.835 2.396,-1.449 1.841,-1.029 1.771,-1.12 -0.886,-1.148 -2.842,-0.03 -2.876,-0.098 -2.269,-4.53 0.845,-6.162 -0.614,-5.66 -2.69,0.927 m 15.463,1.405 c -0.918,0.63 2.754,1.072 10.918,1.313 8.337,0.246 12.428,0.746 12.697,1.553 0.218,0.654 1.042,0.942 1.832,0.639 0.789,-0.303 1.435,-0.067 1.435,0.525 0,0.591 0.572,0.856 1.271,0.588 2.083,-0.8 9.388,4.599 11.637,8.6 4.75,8.452 0.27,19.95 -7.774,19.95 -4.419,0 -12.554,3.366 -15.968,6.608 l -3.666,3.48 4.848,-2.982 c 4.369,-2.687 12.117,-5.106 16.356,-5.106 4.3,0 -8.696,9.713 -15.699,11.733 l -4.505,1.3 4.108,-0.403 c 5.578,-0.545 10.536,-3.055 16.328,-8.263 4.33,-3.892 5.386,-4.366 9.711,-4.361 6.987,0.008 11.479,1.526 15.938,5.386 3.815,3.302 3.913,3.55 3.822,9.748 -0.113,7.722 -2.853,13.67 -8.804,19.11 -4.813,4.4 -3.666,5.075 1.453,0.856 4.588,-3.782 8.896,-11.816 9.556,-17.82 1.106,-10.066 -6.8,-18.024 -19.665,-19.793 -4.203,-0.578 -4.961,-0.984 -4.381,-2.346 1.746,-4.107 2.649,-10.186 2.015,-13.569 -0.943,-5.023 -6.531,-10.935 -13.42,-14.198 -4.869,-2.306 -7.27,-2.738 -17.161,-3.089 -6.367,-0.226 -12.117,0.016 -12.882,0.541 M 145.5,98 c -0.34,0.55 -0.403,1 -0.141,1 0.263,0 1.194,0.275 2.071,0.611 1.166,0.448 1.427,0.18 0.974,-1 -0.7,-1.824 -1.987,-2.095 -2.904,-0.611 m -30.231,8.693 c 0.973,0.254 2.323,0.237 3,-0.037 0.677,-0.274 -0.119,-0.481 -1.769,-0.461 -1.65,0.02 -2.204,0.244 -1.231,0.498 m 136.832,11.766 c -1.123,3.003 -2.322,6.573 -2.664,7.934 -0.387,1.544 -1.725,2.86 -3.553,3.498 l -2.932,1.022 0.18,-5.501 c 0.1,-3.071 -0.331,-6.011 -0.976,-6.656 -0.636,-0.636 -1.212,-0.841 -1.281,-0.456 -0.069,0.385 -0.204,1.038 -0.301,1.45 -0.097,0.412 -0.529,3.381 -0.959,6.597 -0.721,5.383 -1.252,6.32 -6.699,11.818 -4.803,4.848 -5.916,6.588 -5.916,9.248 0,3.495 2.502,6.587 5.329,6.587 3.565,0 6.775,-5.737 9.11,-16.285 0.39,-1.761 1.577,-3.151 3.228,-3.778 1.436,-0.546 2.728,-0.868 2.871,-0.715 0.143,0.153 -0.353,3.428 -1.102,7.278 -1.692,8.691 -1.792,15.624 -0.275,18.953 1.799,3.949 3.031,3.009 2.315,-1.766 -0.377,-2.511 0.027,-8.255 0.967,-13.75 2.309,-13.508 1.995,-12.937 7.124,-12.937 3.274,0 4.433,-0.392 4.433,-1.5 0,-1.083 -1.111,-1.5 -4,-1.5 -2.2,0 -4,-0.445 -4,-0.989 0,-0.544 0.9,-3.357 1.999,-6.25 2.374,-6.246 2.486,-7.761 0.573,-7.761 -0.814,0 -2.307,2.349 -3.471,5.459 m 25.127,-0.709 c -1.11,2.612 -2.589,7.45 -3.287,10.75 -1.443,6.817 -2.794,9.72 -6.516,14 l -2.609,3 0.738,-4 c 1.198,-6.5 1.061,-7.914 -0.804,-8.292 -0.962,-0.195 -1.75,0.152 -1.75,0.772 0,0.619 -1.152,2.79 -2.559,4.823 l -2.559,3.697 0.67,-3.75 c 0.542,-3.031 0.368,-3.75 -0.906,-3.75 -2.24,0 -3.818,3.488 -3.994,8.833 -0.126,3.796 0.182,4.665 1.764,4.987 1.163,0.237 2.608,-0.526 3.675,-1.94 l 1.758,-2.331 0.684,2.726 c 0.958,3.818 3.842,3.473 6.467,-0.775 1.19,-1.925 2.409,-3.5 2.709,-3.5 0.301,0 0.256,1.815 -0.098,4.034 -0.642,4.011 0.562,7.966 2.424,7.966 0.531,0 0.975,-1.687 0.987,-3.75 0.026,-4.428 2.824,-10.975 5.837,-13.655 2.111,-1.878 2.141,-1.876 2.141,0.128 0,1.117 -0.705,2.617 -1.566,3.332 -2.542,2.11 -4.736,7.043 -3.625,8.154 1.914,1.914 4.723,0.227 6.94,-4.169 1.237,-2.452 2.924,-4.837 3.75,-5.299 1.882,-1.053 1.99,-3.143 0.125,-2.427 -0.809,0.31 -1.829,-0.469 -2.478,-1.893 -1.202,-2.637 -4.883,-3.284 -6.946,-1.221 -1.866,1.866 -1.534,-0.825 1.316,-10.658 2.365,-8.161 2.489,-10.542 0.548,-10.542 -0.45,0 -1.726,2.138 -2.836,4.75 m -43.929,24.5 c -3.076,3.378 -4.272,6.176 -3.305,7.74 1.296,2.097 3.565,-0.249 5.372,-5.552 1.674,-4.912 1.033,-5.591 -2.067,-2.188 M 202.5,164 c -0.34,0.55 -0.168,1 0.382,1 0.55,0 1.278,-0.45 1.618,-1 0.34,-0.55 0.168,-1 -0.382,-1 -0.55,0 -1.278,0.45 -1.618,1"
       stroke="none"
       fill="#fbaa18"
       fill-rule="evenodd"
       id="path1-0" /><path
       d="m 170.289,68.72 c 0.293,2.654 -0.317,3.878 -3.467,6.953 -5.059,4.941 -4.835,6.005 0.596,2.822 4.062,-2.38 4.455,-2.444 4.884,-0.792 0.431,1.662 0.475,1.656 0.582,-0.082 0.104,-1.679 0.671,-1.805 5.348,-1.185 5.862,0.778 5.658,-0.141 -0.565,-2.547 -2.852,-1.102 -4.73,-2.68 -5.95,-5 l -1.783,-3.389 0.355,3.22 M 172.5,84 c -0.34,0.55 0.335,1 1.5,1 1.165,0 1.84,-0.45 1.5,-1 -0.34,-0.55 -1.015,-1 -1.5,-1 -0.485,0 -1.16,0.45 -1.5,1 m 1.5,5.375 c 0,3.442 1.364,7.625 2.486,7.625 0.951,0 0.999,-1.038 0.207,-4.5 C 175.731,88.298 174,86.289 174,89.375 m 3.456,13.307 c 0.975,3.883 11.743,25.318 12.719,25.318 1.267,0 1.097,-0.495 -3.007,-8.772 -2.108,-4.25 -4.86,-10.316 -6.116,-13.478 -2.33,-5.864 -4.834,-8.001 -3.596,-3.068 M 110,103.666 c -14.867,2.342 -28,6.978 -28,9.886 0,1.201 0.486,1.455 1.75,0.915 0.963,-0.411 4.618,-1.822 8.124,-3.136 l 6.374,-2.388 -0.654,2.278 c -2.669,9.303 -5.641,24.794 -5.394,28.112 0.467,6.241 2.452,5.612 3.279,-1.04 0.396,-3.186 1.824,-10.068 3.172,-15.293 1.349,-5.225 2.591,-10.617 2.76,-11.981 0.331,-2.666 1.72,-3.18 12.101,-4.477 4.048,-0.506 5.585,-0.302 6.789,0.902 1.934,1.934 2.699,1.97 2.699,0.127 0,-3.82 -4.656,-5.219 -13,-3.905 m 49.469,4.394 c -0.87,1.683 -2.425,6.916 -3.455,11.629 -1.514,6.926 -2.499,9.216 -5.14,11.941 -1.796,1.853 -3.853,3.37 -4.57,3.37 -2.082,0 -1.511,-2.902 1.044,-5.298 4.888,-4.584 5.386,-8.702 1.054,-8.702 -4.374,0 -8.875,10.38 -6.458,14.895 1.565,2.924 5.817,2.708 9.129,-0.465 l 2.683,-2.57 1.07,3.07 c 0.588,1.689 1.684,3.07 2.435,3.07 2.289,0 9.739,-8.968 9.739,-11.723 0,-2.393 -1.627,-1.285 -3.807,2.593 -5.844,10.398 -6.847,5.957 -2.193,-9.708 1.65,-5.554 3,-11.238 3,-12.63 0,-3.535 -2.586,-3.234 -4.531,0.528 m -19.504,9.19 c -1.104,1.787 -2.271,4.263 -2.594,5.5 -0.804,3.079 -1.959,2.836 -1.91,-0.402 0.054,-3.654 -2.245,-4.17 -2.977,-0.669 -0.723,3.464 -4.526,11.08 -6.258,12.535 -2.29,1.925 -2.536,-0.05 -0.865,-6.939 0.904,-3.726 1.643,-7.113 1.642,-7.525 -0.005,-1.37 -3.056,-0.775 -3.625,0.707 -0.38,0.991 -1.434,1.282 -3.294,0.91 -2.199,-0.44 -3.086,-0.012 -4.524,2.181 -2.593,3.957 -3.165,9.705 -1.134,11.39 1.402,1.164 1.965,1.044 3.98,-0.85 l 2.348,-2.205 0.625,2.492 c 0.961,3.827 4.522,4.441 7.264,1.253 2.755,-3.202 3.13,-3.243 3.537,-0.388 0.176,1.232 1.014,2.372 1.862,2.533 1.121,0.213 2.174,-1.697 3.85,-6.99 1.269,-4.005 3.388,-9.252 4.708,-11.659 2.834,-5.166 2.826,-5.124 0.885,-5.124 -0.833,0 -2.417,1.463 -3.52,3.25 m -36.034,7 c -1.504,5.575 -1.709,12.94 -0.373,13.414 0.582,0.206 2.062,-2.047 3.288,-5.006 1.227,-2.96 3.338,-6.422 4.692,-7.694 3.291,-3.092 3.105,-4.343 -0.538,-3.614 -1.692,0.338 -3,0.175 -3,-0.375 0,-0.536 -0.658,-0.975 -1.461,-0.975 -0.873,0 -1.924,1.712 -2.608,4.25 m 14.736,1.417 c -0.367,0.366 -0.667,1.131 -0.667,1.7 0,0.626 0.466,0.567 1.183,-0.15 0.651,-0.651 0.951,-1.416 0.667,-1.7 -0.284,-0.284 -0.817,-0.217 -1.183,0.15 m 73.89,10.033 c 2.1,5.889 1.74,11.238 -1.091,16.191 -1.38,2.414 -1.866,3.856 -1.08,3.204 0.786,-0.653 2.146,-2.697 3.022,-4.542 2.421,-5.102 1.694,-17.352 -1.085,-18.279 -0.767,-0.255 -0.693,0.828 0.234,3.426"
       stroke="none"
       fill="#a8468d"
       fill-rule="evenodd"
       id="path2" /><path
       d="m 44.867,54.008 c -4.304,2.274 -11.664,10.335 -12.508,13.699 -0.881,3.511 1.9,5.937 7.685,6.704 2.726,0.362 4.956,0.772 4.956,0.911 0,0.14 -2.925,3.252 -6.5,6.916 -6.534,6.696 -7.908,9.954 -5.3,12.562 1.988,1.988 6.905,1.357 10.442,-1.341 4.317,-3.292 5.661,-5.836 6.32,-11.959 0.46,-4.271 0.875,-5.048 2.848,-5.327 2.134,-0.303 2.26,-0.063 1.655,3.163 -0.791,4.216 0.152,7.664 2.096,7.664 0.785,0 2.722,-1.789 4.306,-3.974 l 2.879,-3.975 0.516,4.578 c 0.553,4.909 2.709,7.98 4.989,7.105 0.773,-0.297 2.861,-4.609 4.64,-9.582 1.779,-4.973 4.106,-10.15 5.172,-11.505 C 81.554,66.48 81.518,65 78.951,65 c -1.945,0 -4.022,3.623 -9.746,17 -0.896,2.095 -1.081,1.326 -1.137,-4.75 -0.081,-8.676 -1.286,-9.275 -5.439,-2.702 -3.295,5.215 -4.363,5.206 -2.638,-0.022 1.897,-5.746 -0.774,-9.292 -3.12,-4.143 -1.389,3.05 -7.915,4.163 -12.007,2.047 C 43.343,71.643 41.027,71 39.716,71 c -3.64,0 -3.823,-0.882 -1.048,-5.074 3.032,-4.582 8.771,-9.192 10.887,-8.745 1.236,0.261 1.019,1.266 -1.199,5.56 -2.727,5.279 -2.709,6.992 0.06,5.93 2.122,-0.814 6.795,-10.432 6.113,-12.581 -0.438,-1.378 -4.648,-4.302 -5.826,-4.046 -0.112,0.025 -1.838,0.908 -3.836,1.964 m 74.958,9.984 c -3.04,6.625 -4.076,8.014 -6,8.041 -3.073,0.044 -5.908,2.527 -9.742,8.533 l -3.15,4.934 0.741,-4 c 1.9,-10.258 0.296,-12.728 -4.76,-7.328 -2.77,2.959 -3.037,3.064 -2.408,0.953 0.466,-1.563 0.244,-2.663 -0.649,-3.218 -0.956,-0.594 -2.93,0.846 -6.681,4.875 -2.928,3.145 -5.027,4.818 -4.665,3.718 1.663,-5.046 1.761,-8.5 0.241,-8.5 -3.583,0 -5.678,12.339 -2.439,14.366 1.538,0.962 2.282,0.554 4.908,-2.692 l 3.095,-3.827 1.331,3.164 c 1.621,3.856 3.198,3.495 5.937,-1.361 l 2.084,-3.694 -0.456,5.506 c -0.385,4.637 -0.173,5.616 1.344,6.198 1.323,0.507 2.678,-0.323 5.1,-3.125 2.76,-3.193 3.546,-3.612 4.809,-2.564 2.21,1.834 4.179,0.648 6.51,-3.922 1.136,-2.227 2.175,-4.049 2.31,-4.049 0.134,0 0.237,4.121 0.229,9.157 -0.019,12.429 1.727,12.485 3.226,0.103 0.651,-5.368 2.14,-13.36 3.31,-17.76 2.706,-10.172 2.764,-10.861 0.95,-11.219 -1.016,-0.201 -2.685,2.286 -5.175,7.711 m -36.648,4.561 c 0.452,2.172 2.227,2.305 2.633,0.197 C 86.02,67.655 85.53,67 84.5,67 c -0.961,0 -1.512,0.647 -1.323,1.553 m 44.361,4.749 c -3.46,5.28 -3.156,13.042 0.548,14.01 3.18,0.832 4.728,-0.156 6.072,-3.873 0.993,-2.744 3.655,-5.367 4.275,-4.213 0.081,0.151 0.579,1.587 1.107,3.192 1.349,4.101 3.078,4.259 5.369,0.492 l 1.968,-3.237 0.312,4.914 c 0.459,7.242 3.095,6.764 8.561,-1.555 4.548,-6.921 4.962,-8.032 2.993,-8.032 -0.692,0 -2.513,2.079 -4.048,4.619 -1.534,2.541 -3.014,4.396 -3.287,4.122 -0.274,-0.274 0.024,-2.569 0.661,-5.101 1.99,-7.902 -0.189,-9.822 -5.076,-4.471 -2.543,2.784 -2.822,2.893 -2.3,0.897 1.002,-3.832 -1.78,-4.417 -4.878,-1.024 C 137.103,77.011 135,77.866 135,76 c 0,-0.55 -0.858,-1 -1.906,-1 -1.414,0 -1.772,-0.517 -1.384,-2 0.741,-2.834 -2.26,-2.616 -4.172,0.302 M 239,72.583 c 0,0.359 1.396,2.243 3.103,4.187 2.879,3.279 2.972,3.609 1.285,4.553 -1.001,0.56 -3.058,1.279 -4.572,1.597 -2.158,0.455 -2.543,0.904 -1.784,2.08 0.659,1.021 1.208,1.153 1.718,0.414 0.412,-0.598 2.213,-1.587 4,-2.198 L 246,82.104 v 4.948 c 0,6.245 1.653,6.447 2.572,0.314 0.671,-4.47 2.68,-7.584 5.553,-8.604 0.756,-0.269 1.1,-0.787 0.764,-1.153 -0.337,-0.366 -1.751,-0.232 -3.144,0.298 -2.067,0.786 -3.15,0.502 -5.889,-1.545 C 241.593,73.177 239,71.748 239,72.583 m -109.352,7.601 c -0.842,3.142 -0.8,3.816 0.235,3.816 1.241,0 2.227,-4.29 1.218,-5.299 -0.458,-0.458 -1.112,0.209 -1.453,1.483 M 43.152,81.606 C 40.726,83.305 35,90.712 35,92.15 c 0,3.826 10.344,-4.94 11.217,-9.506 0.587,-3.069 0.08,-3.241 -3.065,-1.038 M 218.457,91.921 C 205.595,98.291 194,106.255 194,108.719 c 0,1.062 1.284,0.483 4.25,-1.917 7.308,-5.913 13.518,-9.805 24.566,-15.395 5.876,-2.973 9.99,-5.406 9.141,-5.406 -0.848,-0.001 -6.923,2.664 -13.5,5.92 m -30.32,20.235 c -2.046,1.836 -3.003,3.378 -2.443,3.938 1.07,1.07 6.724,-4.379 6.166,-5.944 -0.198,-0.556 -1.873,0.347 -3.723,2.006 m -8.387,8.699 c -4.307,4.767 -9.113,12.116 -8.394,12.835 0.276,0.275 1.17,-0.33 1.989,-1.345 8.653,-10.731 10.73,-13.62 10.431,-14.516 -0.191,-0.575 -2.003,0.787 -4.026,3.026 m 45.387,0.306 c -4.991,2.471 -14.468,11.494 -13.581,12.93 0.326,0.528 2.604,-1.277 5.062,-4.011 4.704,-5.232 9.583,-8.71 14.146,-10.084 2.053,-0.618 2.236,-0.845 0.736,-0.909 -1.1,-0.047 -3.963,0.886 -6.363,2.074 m 9.999,1.975 c -0.183,3.554 -7.216,13.884 -12.795,18.795 -2.494,2.195 -4.315,4.571 -4.048,5.28 0.766,2.034 12.187,-10.449 15.206,-16.62 1.489,-3.043 2.465,-6.461 2.217,-7.764 -0.415,-2.175 -0.453,-2.155 -0.58,0.309 m -65.913,14.095 c -1.526,1.838 -2.618,6.769 -1.499,6.769 0.907,0 3.547,-7.063 2.886,-7.723 -0.179,-0.179 -0.803,0.251 -1.387,0.954 m 36.835,4.969 c -1.704,3.41 -3.375,7.932 -3.714,10.049 -0.692,4.328 -3.452,6.228 -13.276,9.141 -14.698,4.357 -23.133,-0.246 -21.819,-11.907 0.622,-5.519 -0.821,-5.977 -1.738,-0.55 -0.978,5.788 2.278,12.663 6.916,14.601 6.063,2.533 15.597,1.483 25.823,-2.845 3.107,-1.315 3.75,-1.349 3.75,-0.197 0,0.764 0.516,1.709 1.146,2.098 0.795,0.491 0.958,-0.038 0.534,-1.728 -0.533,-2.123 0.072,-2.845 4.704,-5.615 2.923,-1.748 5.896,-3.88 6.608,-4.737 2.495,-3.006 0.173,-2.591 -5.383,0.963 -5.456,3.491 -5.609,3.526 -5.606,1.308 0.002,-1.255 1.577,-5.405 3.5,-9.224 3.914,-7.77 3.841,-7.557 2.575,-7.557 -0.507,0 -2.316,2.79 -4.02,6.2 m 15.749,7.56 c -2.531,2.722 -7.126,9.654 -5.131,7.74 0.573,-0.55 2.744,-2.924 4.823,-5.276 4.144,-4.687 4.418,-6.883 0.308,-2.464 m 9.831,7.972 c -2.145,4.149 -8.733,9.814 -13.082,11.25 -3.57,1.178 -5.784,1.082 -10.056,-0.435 -1.972,-0.7 -1.972,-0.688 -0.059,0.871 2.504,2.04 8.778,2.026 12.859,-0.03 5.802,-2.922 14.072,-12.349 12.347,-14.074 -0.275,-0.275 -1.179,0.813 -2.009,2.418 M 204,164.882 c 0,0.55 0.45,1.278 1,1.618 0.55,0.34 1,0.168 1,-0.382 0,-0.55 -0.45,-1.278 -1,-1.618 -0.55,-0.34 -1,-0.168 -1,0.382"
       stroke="none"
       fill="#1f8bc1"
       fill-rule="evenodd"
       id="path3" /><path
       style="fill:#f9f9f9;stroke-width:0.331177"
       d="m -110.13343,-0.16147871 c -1.21835,-0.62678934 -2.13829,-2.08209469 -2.12838,-3.36697959 0.0177,-2.2902793 1.72872,-4.6381007 8.71579,-11.9594067 2.30607,-2.416385 4.192851,-4.519612 4.192851,-4.673838 0,-0.154226 -1.154981,-0.455518 -2.566621,-0.669537 -5.72029,-0.867252 -7.65042,-1.575205 -9.14851,-3.355585 -1.70697,-2.028613 -1.0834,-4.30356 2.36978,-8.645572 3.08998,-3.88532 7.03282,-7.336071 10.325121,-9.036479 l 2.881345,-1.488156 1.335765,0.660885 c 2.301547,1.138714 4.076082,2.873553 4.076082,3.984901 0,1.305882 -1.700551,5.652069 -3.167461,8.095248 -1.655406,2.757121 -2.716186,3.790642 -3.890618,3.790642 -0.92058,0 -0.961509,-0.05795 -0.760144,-1.076326 0.117053,-0.591979 1.041533,-2.817447 2.0544,-4.945483 2.027447,-4.259675 2.167919,-5.34121 0.715443,-5.508397 -2.870264,-0.330382 -11.073623,7.361683 -12.517813,11.737602 -0.52997,1.605824 -0.0627,2.016859 2.60092,2.287907 1.25547,0.127756 3.2909,0.670099 4.69878,1.251997 2.167039,0.895671 2.885095,1.028369 5.630012,1.04044 4.211095,0.01852 5.726799,-0.652909 7.503988,-3.324116 1.433345,-2.154389 1.795236,-2.383583 2.558477,-1.620341 0.749884,0.749884 0.690303,3.771918 -0.127148,6.449085 -1.401181,4.588893 -0.443253,4.850616 2.412817,0.659225 4.941629,-7.252027 5.501338,-7.122926 5.756739,1.327838 0.154166,5.100976 0.290962,6.292367 0.72249,6.292367 0.147854,0 1.135613,-1.974644 2.195026,-4.388098 2.627643,-5.986051 5.255653,-11.114355 6.390952,-12.471304 0.7454,-0.890933 1.176938,-1.121865 2.050004,-1.097042 0.60822,0.01729 1.219056,0.214612 1.357419,0.438485 0.32353,0.523483 -0.175415,1.823581 -1.230933,3.207437 -1.128788,1.479919 -3.372759,6.285741 -5.367571,11.495516 -3.893399,10.1682372 -4.891319,11.4537976 -7.246042,9.3346542 -1.098572,-0.9886634 -1.970091,-3.6631448 -2.429852,-7.4566092 -0.22453,-1.852588 -0.496949,-3.359633 -0.605374,-3.348988 -0.108425,0.01065 -1.215351,1.428197 -2.459834,3.150115 -2.590092,3.5837574 -4.282287,5.0887394 -5.135987,4.567781 -1.534875,-0.9366354 -2.047515,-3.823585 -1.390882,-7.832796 0.386585,-2.360367 0.205807,-2.88505 -0.994035,-2.88505 -2.596112,0 -3.325142,1.055002 -3.933249,5.69192 -0.69399,5.2918051 -1.808996,7.7352307 -4.737773,10.38238 -3.340404,3.01919705 -8.290054,4.5465732 -10.705974,3.30367829 z m 3.59035,-2.86470289 c 1.95882,-0.9945617 6.590724,-5.7276208 7.641967,-7.8088634 0.890805,-1.763609 1.220086,-4.730285 0.525029,-4.730285 -0.52438,0 -2.324736,0.986234 -3.567806,1.954437 -1.49266,1.162608 -6.23455,7.0609757 -7.0868,8.8151751 -1.18043,2.4296851 -0.19424,3.1312046 2.48761,1.7695363 z"
       id="path4"
       transform="translate(144.46276,95.483632)" /><path
       style="fill:#f9f9f9;stroke-width:0.331177"
       d="m -26.344443,-2.2354463 c -0.139284,-0.5009056 -0.341729,-4.5619664 -0.449871,-9.0245797 -0.108146,-4.462613 -0.321891,-8.113842 -0.474988,-8.113842 -0.153097,0 -1.059502,1.415783 -2.01423,3.146184 -1.979284,3.58735 -3.48203,5.298835 -4.652571,5.298835 -0.439805,0 -1.324614,-0.309738 -1.966241,-0.688307 -0.710079,-0.418958 -1.426592,-0.605788 -1.831003,-0.477433 -0.365424,0.115981 -1.71969,1.379581 -3.009478,2.8079996 -2.461568,2.726145 -3.749461,3.5346966 -5.09306,3.1974754 -1.352409,-0.3394331 -1.605384,-1.8024049 -1.179415,-6.820642 0.204029,-2.403611 0.300821,-4.440342 0.215095,-4.526068 -0.08573,-0.08573 -0.644676,0.709896 -1.242109,1.768051 -2.638142,4.672595 -4.126239,6.2146544 -5.170175,5.357659 -0.303597,-0.24923 -1.088489,-1.612117 -1.744203,-3.028638 l -1.192209,-2.575492 -2.72242,3.313676 c -2.924698,3.5598836 -3.814927,4.1075233 -5.200883,3.1994101 -1.117272,-0.7320651 -1.615903,-2.8026531 -1.40468,-5.8329951 0.296871,-4.259092 2.084451,-8.109032 3.660831,-7.884392 0.610141,0.08695 0.728256,0.350258 0.812983,1.812361 0.08483,1.463905 -0.465172,4.482988 -1.134401,6.226971 -0.55122,1.436458 1.337406,0.09518 5.28029,-3.74998 2.401074,-2.341567 4.708058,-4.365781 5.126631,-4.498254 1.342916,-0.425014 1.830617,0.347319 1.60179,2.536625 -0.112121,1.072713 -0.06786,1.91372 0.100707,1.91372 0.165402,0 1.352947,-1.039765 2.638988,-2.310588 2.550043,-2.519869 3.725529,-3.078344 4.612437,-2.191378 0.747392,0.74744 0.644496,4.793999 -0.244629,9.620491 -0.367611,1.995526 -0.607995,3.688618 -0.534186,3.7624268 0.07381,0.073809 1.12908,-1.4098638 2.345046,-3.2970508 4.495842,-6.977575 6.835997,-9.274042 10.076767,-9.888642 1.16835,-0.221573 2.120809,-0.650399 2.720329,-1.224776 0.507387,-0.486105 2.257596,-3.579183 3.889355,-6.873505 2.995575,-6.04769 4.392086,-8.005328 5.427333,-7.608067 0.886893,0.340334 0.679923,2.300098 -0.916861,8.681627 -1.787579,7.14402 -2.566875,11.151925 -3.822563,19.659365 -1.271251,8.612859 -1.871559,10.60202208 -2.508406,8.3117527 z"
       id="path5"
       transform="translate(144.46276,95.483632)" /><path
       style="fill:#f9f9f9;stroke-width:0.331177"
       d="M 4.0578378,-6.3751617 C 3.4117776,-7.1891496 3.0005829,-9.1597419 2.77939,-12.50194 c -0.1235622,-1.867012 -0.3151264,-3.392953 -0.4256982,-3.39098 -0.1105718,0.002 -0.7226439,0.912213 -1.36016011,2.022756 -1.51416515,2.63765 -3.10022089,4.0713699 -3.98194159,3.599487 -0.796047,-0.426031 -1.1983161,-1.1698 -2.1300061,-3.93824 -0.5403454,-1.605592 -0.9080863,-2.210195 -1.3879177,-2.281878 -1.1171598,-0.166893 -2.390677,1.202405 -3.7345993,4.015477 -1.663522,3.4820549 -2.588609,4.3716874 -4.502776,4.3302044 -2.564109,-0.055568 -3.986895,-1.6144681 -4.361681,-4.7789514 -0.539778,-4.557579 2.574475,-11.251873 5.234483,-11.251873 0.935088,0 0.954995,0.03742 0.954995,1.795161 0,1.760089 0.02103,1.799393 1.076326,2.011788 1.9556979,0.393614 2.2354463,0.537227 2.2354463,1.147595 0,0.850222 0.8725712,1.086207 1.9521265,0.527947 0.5041508,-0.260707 1.910268,-1.374479 3.1247045,-2.47505 2.5180783,-2.281983 3.72398898,-2.776476 4.42684675,-1.815261 0.3290206,0.449963 0.39734346,1.119662 0.24148947,2.367076 -0.12007096,0.961016 -0.08512646,1.73958 0.078078,1.73958 0.1624835,0 1.32338818,-1.035902 2.57978818,-2.302003 2.5448009,-2.564452 3.8614984,-3.322207 4.6441294,-2.672681 0.8846956,0.734233 0.8916302,2.408947 0.027909,6.740114 -0.9485201,4.756394 -1.0135613,5.520469 -0.4699259,5.520469 0.4569785,0 0.7587916,-0.370625 3.2362688,-3.974127 1.064454,-1.548253 2.319035,-3.224838 2.787957,-3.725744 0.836323,-0.893367 2.208921,-1.2453 2.208921,-0.566366 0,0.571782 -1.302689,2.970688 -3.229971,5.947996 -4.1005708,6.3346593 -6.838261,8.9303851 -7.9463442,7.5342823 z M -13.726891,-11.941125 c 0.851574,-0.940979 1.122668,-4.758443 0.358734,-5.051592 -0.716043,-0.274771 -1.427198,0.82757 -1.901666,2.947719 -0.587153,2.623677 0.15576,3.636681 1.542932,2.103873 z"
       id="path6"
       transform="translate(144.46276,95.483632)" /><path
       style="fill:#f9f9f9;stroke-width:0.0413972"
       d="m -60.272469,-25.343653 c -0.457808,-0.226607 -0.805435,-0.777356 -0.976782,-1.54753 -0.142734,-0.641563 0.0624,-1.1511 0.566197,-1.406394 0.394887,-0.200104 1.030841,-0.207931 1.424163,-0.01753 0.242495,0.11739 0.491146,0.405139 0.562579,0.65104 0.07556,0.260109 0.06448,0.793357 -0.02346,1.128488 -0.26084,0.994096 -0.923959,1.503137 -1.552699,1.191923 z"
       id="path7"
       transform="translate(144.46276,95.483632)" /><path
       style="fill:#f9f9f9;stroke-width:0.165589"
       d="m 49.676585,13.18914 c 0,-1.986255 8.555297,-8.2065345 19.291073,-14.02591458 6.577492,-3.56536102 17.860152,-8.76318662 18.22653,-8.39680732 0.207295,0.2072943 -3.221249,2.1429618 -10.158406,5.7351752 -10.542294,5.4590324 -15.268055,8.4186242 -22.391539,14.0230997 -2.955401,2.325194 -4.049341,3.053573 -4.586106,3.053573 -0.2901,0 -0.381552,-0.09327 -0.381552,-0.389126 z"
       id="path8"
       transform="translate(144.46276,95.483632)" /><path
       style="fill:#f9f9f9;stroke-width:0.165589"
       d="m 41.35077,20.596997 c -0.253543,-0.253543 -0.09886,-0.944468 0.359823,-1.607266 1.50157,-2.169752 5.647751,-5.22152 5.647751,-4.156987 0,0.639056 -0.787684,1.864433 -2.030871,3.159365 -1.783663,1.857905 -3.560072,3.021519 -3.976703,2.604888 z"
       id="path9"
       transform="translate(144.46276,95.483632)" /><path
       style="fill:#f9f9f9;stroke-width:0.165589"
       d="m 26.990944,37.837117 c 0,-1.507476 5.547019,-9.516842 9.124487,-13.174888 1.294939,-1.324107 2.53339,-2.307766 2.905533,-2.307766 0.941049,0 -0.987095,2.872401 -7.058277,10.514877 -3.390913,4.268522 -3.866892,4.81145 -4.516374,5.151627 -0.440084,0.230502 -0.455369,0.224332 -0.455369,-0.18385 z"
       id="path10"
       transform="translate(144.46276,95.483632)" /><path
       style="fill:#f9f9f9;stroke-width:0.165589"
       d="m 22.933956,48.020488 c -0.243251,-0.766419 0.385901,-3.42492 1.195176,-5.050242 0.460432,-0.924718 1.478639,-2.069858 1.840425,-2.069858 0.831011,0 -1.770062,7.245488 -2.663544,7.419508 -0.148539,0.02893 -0.308772,-0.100016 -0.372057,-0.299408 z"
       id="path11"
       transform="translate(144.46276,95.483632)" /><path
       style="fill:#f9f9f9;stroke-width:0.165589"
       d="M 33.945666,69.271941 C 29.543785,68.841376 26.90518,67.81982 24.97934,65.800559 c -1.75246,-1.83747 -3.15931,-4.624285 -3.712386,-7.35383 -0.395079,-1.949794 -0.259868,-5.029966 0.303868,-6.922245 0.226293,-0.759593 0.529382,-1.499018 0.673531,-1.643167 0.596766,-0.596766 0.750771,1.059224 0.427725,4.599275 -0.546526,5.989039 1.67943,10.34803 6.172129,12.086609 3.718398,1.438942 9.141767,1.292327 15.202365,-0.410979 5.800402,-1.63018 9.882645,-3.402952 11.655897,-5.061743 1.286194,-1.203173 1.795737,-2.15906 2.246724,-4.21479 0.473166,-2.156824 0.747018,-3.01966 1.839445,-5.795601 1.538396,-3.909185 3.845323,-8.271566 5.17757,-9.790744 0.702516,-0.801089 1.268723,-0.957817 1.27006,-0.351559 4.52e-4,0.204916 -0.998624,2.421734 -2.220171,4.926262 -1.221546,2.504527 -2.522786,5.281327 -2.891644,6.170664 -1.529993,3.688889 -2.028795,6.039759 -1.412309,6.656247 0.441845,0.441843 0.990501,0.185565 5.16457,-2.412378 3.307283,-2.058456 4.963777,-2.925119 5.871022,-3.071664 0.547489,-0.08843 0.620957,-0.06031 0.620957,0.237671 0,0.955354 -2.302635,2.952192 -6.276037,5.442559 -5.349547,3.352879 -6.067054,3.98531 -6.04717,5.330143 0.0063,0.424733 0.07255,1.275218 0.147273,1.889966 0.08144,0.670026 0.0747,1.117723 -0.01683,1.117723 -0.598777,0 -1.551087,-1.406814 -1.551087,-2.291369 0,-1.146415 -0.672238,-1.096402 -4.168822,0.310157 -5.909133,2.377048 -10.515021,3.558857 -15.453429,3.965144 -1.942637,0.159823 -2.886117,0.173552 -4.056921,0.05903 z"
       id="path12"
       transform="translate(144.46276,95.483632)" /><path
       style="fill:#f9f9f9;stroke-width:0.165589"
       d="m 67.16132,38.44105 c -0.125143,-0.202486 0.42865,-1.225415 1.215733,-2.245621 0.980029,-1.2703 5.111471,-5.258062 7.08541,-6.839001 3.260244,-2.611148 5.384022,-3.84214 8.504942,-4.929666 1.703237,-0.593515 3.794561,-0.946285 3.794561,-0.640077 0,0.08547 -0.652005,0.367042 -1.4489,0.625713 -4.713566,1.530012 -7.795915,3.671445 -13.388047,9.301218 -3.293947,3.316118 -5.064646,4.868531 -5.553099,4.868531 -0.06787,0 -0.162638,-0.06349 -0.2106,-0.141097 z"
       id="path13"
       transform="translate(144.46276,95.483632)" /><path
       style="fill:#f9f9f9;stroke-width:0.165589"
       d="m 73.935018,51.663165 c -0.285789,-0.462417 0.932988,-2.021803 3.884934,-4.970651 4.212341,-4.207922 6.2534,-6.6614 9.059957,-10.890623 2.416785,-3.641874 3.862652,-6.814065 3.862652,-8.474546 0,-1.030746 0.254805,-1.0917 0.404022,-0.09665 0.32486,2.166322 -1.481281,7.059489 -4.004044,10.847687 -3.202485,4.808875 -9.022832,11.302586 -11.814282,13.181093 -0.876266,0.589684 -1.21723,0.688478 -1.393239,0.40369 z"
       id="path14"
       transform="translate(144.46276,95.483632)" /><path
       style="fill:#f9f9f9;stroke-width:0.165589"
       d="m 72.031048,61.824169 c 0,-0.215112 1.943345,-3.110323 3.374444,-5.027274 1.202633,-1.610922 4.231358,-4.80207 4.557654,-4.80207 0.824931,0 -0.883811,2.34513 -5.127774,7.037516 -2.249371,2.487043 -2.804324,3.039523 -2.804324,2.791828 z"
       id="path15"
       transform="translate(144.46276,95.483632)" /><path
       style="fill:#f9f9f9;stroke-width:0.165589"
       d=""
       id="path16"
       transform="translate(144.46276,95.483632)" /><path
       style="fill:#f9f9f9;stroke-width:0.165589"
       d="m 66.977439,75.110391 c -0.548178,-0.125365 -1.28957,-0.35031 -1.647536,-0.499878 -0.699238,-0.29216 -2.464626,-1.582733 -2.338105,-1.709254 0.0421,-0.0421 0.770964,0.154798 1.619697,0.437554 3.384017,1.127386 5.468135,1.280605 8.184866,0.601731 3.123346,-0.780483 6.660531,-2.970628 10.084897,-6.244344 1.966269,-1.879765 3.136057,-3.31332 4.232212,-5.186498 1.103832,-1.886299 1.615709,-2.566623 1.931132,-2.566623 0.199526,0 0.233999,0.164423 0.171292,0.817028 -0.145137,1.510454 -2.202756,4.421996 -5.336663,7.551404 -3.674772,3.669496 -6.779709,5.713737 -9.943914,6.546914 -1.713709,0.451242 -5.488742,0.587947 -6.957878,0.251966 z"
       id="path17"
       transform="translate(144.46276,95.483632)" /><path
       style="fill:#f9f9f9;stroke-width:0.165589"
       d="m 60.225384,70.576157 c -0.559421,-0.583909 -0.770323,-1.475913 -0.38401,-1.624155 0.382809,-0.146898 1.061969,0.34863 1.373655,1.002242 0.502259,1.053247 -0.171035,1.476358 -0.989645,0.621913 z"
       id="path18"
       transform="translate(144.46276,95.483632)" /><path
       style="fill:#f9f9f9;stroke-width:0.165589"
       d=""
       id="path19"
       transform="translate(144.46276,95.483632)" /><path
       style="fill:#f9f9f9;stroke-width:0.165589"
       d=""
       id="path20"
       transform="translate(144.46276,95.483632)" /><path
       style="fill:#f9f9f9;stroke-width:0.165589"
       d="m 102.04062,-4.4294955 c -0.22803,-0.5125646 -0.28691,-1.350804 -0.33735,-4.8020698 -0.0336,-2.2996117 -0.11985,-4.1811127 -0.19165,-4.1811127 -0.0718,0 -1.12707,0.341119 -2.345024,0.758042 -2.46129,0.842536 -3.779515,1.486457 -4.75845,2.324388 -0.360162,0.308286 -0.769604,0.5605197 -0.909871,0.5605197 -0.286393,0 -1.002325,-0.8817957 -1.173403,-1.4452527 -0.149123,-0.491143 0.550004,-0.918197 2.126287,-1.298819 2.712662,-0.655021 5.216605,-1.739381 5.578671,-2.415902 0.26995,-0.504415 -0.297898,-1.463598 -2.189874,-3.699017 -1.991182,-2.352632 -3.374866,-4.276634 -3.13349,-4.357093 0.537813,-0.179271 2.743087,1.126075 6.589154,3.900255 2.89833,2.090566 3.9084,2.340233 6.23265,1.540573 1.34062,-0.461241 2.28019,-0.569218 2.63857,-0.303229 0.46932,0.348327 0.19767,0.684731 -1.02411,1.268228 -2.73059,1.304078 -4.26661,3.882903 -5.14916,8.6449257 -0.51387,2.7727216 -0.98588,4.1265211 -1.43874,4.1265211 -0.13088,0 -0.36228,-0.2794307 -0.51421,-0.6209573 z"
       id="path21"
       transform="translate(144.46276,95.483632)" /></g></svg>
