<svg xmlns="http://www.w3.org/2000/svg" width="24" height="24"><path fill="#5d540b" fill-rule="evenodd" d="M3.08 6.3c.02.46.06.87.08.9.02.01.24.06.49.1.42.06.45.05.45-.16 0-.29.1-.54.21-.54.05 0 .09.34.09.75v.75h-.3c-.3 0-.3.01-.3.5v.5h1.5v.3c0 .27.03.3.3.3h.3v1.69l-.28.03c-.25.03-.27.07-.3.5l-.03.48h1.23c.68 0 1.4-.04 1.6-.09s.4-.05.45 0c.06.06 7 .15 7.6.1.24-.02.53-.41.53-.72 0-.43-.17-.69-.45-.69-.34 0-.5-.33-.3-.62.17-.25.2-.8.05-1.08-.08-.14-.05-.19.13-.24.12-.03.24 0 .26.05.07.23.46.48.83.54.35.06.39.1.34.29-.03.11-.09.5-.12.87-.11 1.15.18 1.59 1.05 1.59.3 0 .4-.05.5-.25.06-.14.11-.4.11-.6 0-.18.03-.47.06-.64.05-.25.11-.31.33-.31.44 0 1.08-.36 1.25-.69.1-.17.2-.58.23-.92.07-.7-.06-.9-.61-.89-.44 0-.56.11-.77.71l-.18.54v-.46c0-.25.02-.49.06-.53.04-.03.08-.37.08-.73.02-.58-.01-.7-.21-.9a.8.8 0 0 0-1.04-.05c-.17.14-.25.37-.35 1.02-.1.69-.13.76-.14.4-.01-.51-.23-.9-.5-.9-.14 0-.2-.1-.24-.46q-.08-.78-.84-1.1a4.4 4.4 0 0 0-1.97-.04q-.25.09-.31 0a6 6 0 0 0-1.38-.09c-1.98 0-2.36.23-2.47 1.44l-.05.6L9.5 6.5l-.55-1.05H7.88l-.22.52q-.45 1.11-.32.08l.07-.6-2.19-.01H3.04zm8.72 1.06c0 .77.02.86.18.83.14-.03.17-.15.17-.83s-.03-.8-.17-.83c-.16-.03-.18.06-.18.83m3.22-.02c.02.65.06.82.18.82s.16-.17.18-.83c.03-.77.02-.82-.18-.82s-.2.05-.18.83m-9-.01c.03.71.04.73.3.76.27.03.28.01.28-.37q0-.4-.12-.38Q6.36 7.3 6.3 7c-.03-.19-.1-.36-.18-.39-.1-.03-.12.13-.1.7M5.7 9.18c0 .06.14.13.3.17l.3.07v2.28l-.3.07c-.16.03-.3.1-.3.15 0 .06.49.09 1.28.06 1.54-.04 1.92-.19 1.92-.72 0-.32-.24-.66-.48-.66q-.11 0-.12-.1 0-.09.1-.1c.05 0 .17-.11.26-.25.21-.33.12-.68-.23-.84-.36-.17-2.73-.28-2.73-.13m7 0c0 .06.14.13.3.17l.3.07v2.27l-.36.07c-.2.04-.4.02-.46-.04a15 15 0 0 1-.73-1.29c-.58-1.1-.64-1.18-.94-1.21-.28-.03-.33 0-.47.33-.55 1.32-.64 1.48-.78 1.36q-.14-.15-.22 0-.06.12.1.25c.23.16.06.51-.3.6-.48.12-.23.24.51.24.72 0 .97-.12.55-.25-.38-.12-.2-.46.32-.59l.4-.11q.14-.05.31.3c.17.36.17.37-.03.42q-.86.23 1.65.23c1.73 0 2.28-.09 1.55-.25-.28-.06-.3-.1-.3-.56 0-.45.02-.49.24-.49.3 0 .56.34.56.7q.01.69.74.7c.23 0 .47-.05.54-.12.17-.17.15-.58-.02-.58q-.13.02-.12.18c.02.3-.28.19-.34-.13q-.15-.68-.51-.8c-.2-.07-.2-.08.1-.25.57-.35.61-.83.1-1.1-.3-.16-2.69-.26-2.69-.12m-5.58.7c.03.46.04.47.33.44q.57-.06.55-.48c0-.26-.26-.44-.65-.44-.25 0-.26.02-.23.47m6.98-.02c0 .44 0 .45.33.45q.56-.01.57-.41c0-.27-.28-.49-.6-.49-.29 0-.3.02-.3.45m-3.67.65c-.1.27-.1.3.07.3.1 0 .26.03.35.06.14.06.14.03-.01-.3-.1-.2-.2-.36-.24-.36s-.1.14-.17.3m-3.33.7c0 .5 0 .5.33.5.39 0 .77-.24.77-.49 0-.28-.33-.51-.73-.51H7.1z"/></svg>