<svg xmlns="http://www.w3.org/2000/svg" width="24" height="24"><path fill="#3c1f4f" fill-rule="evenodd" d="M10.62 2.17c-.52.18-.53.18-.32.36.15.12.38.17.87.17.88 0 1.4.25 2.23 1.1.37.35.73.71.83.78.16.14 1.57.53 1.57.44 0-.23-.83-1.51-1.21-1.87a4.2 4.2 0 0 0-3.97-.98M8.68 3.4c-.26.29-.6.78-.75 1.1-.28.56-.28.57-.31 2.84L7.59 9.6h.5c.48 0 .51-.01.41-.2q-.23-.45.1-1.09a8 8 0 0 1 2.24-2.05c.36-.21.64-.41.62-.44-.1-.09-1.14.48-1.91 1.04q-.74.53-.8.41l-.2-.94c-.23-1.17-.08-2 .47-2.6a.7.7 0 0 0 .16-.54l-.03-.33zm4.9 2.76c-1.87.66-4.25 2.36-4.05 2.9.17.44 1.76.14 3.15-.6 1.43-.76 2.46-1.73 2.4-2.25-.03-.22-.08-.25-.43-.27a4 4 0 0 0-1.08.22m2.03.37c-.54.89-2.31 2.1-3.99 2.75l-.86.33 2.6-.03 2.6-.02.03-1.73c.01-.94-.01-1.72-.05-1.72-.05 0-.2.19-.33.42m-4.1.88c-.2.1-.53.34-.75.54-.39.35-.4.36-.2.5.37.3 1.21.1 1.45-.33.14-.28.13-.91-.02-.9-.07 0-.29.08-.48.19m-3.28 3.18c-1.01.03-1.02.03-1.02.27 0 .22.04.25.35.25h.34l.03.98.03.97.33.03.32.03v-2l.37-.03q.4-.02.41-.22c.02-.1 0-.21-.05-.25a5 5 0 0 0-1.1-.03m1.68.1c-.07.13-.6 1.37-.98 2.3-.1.22.55.15.67-.08.08-.16.2-.2.6-.2s.5.04.55.2c.05.15.15.2.42.2.19 0 .33-.03.31-.08l-.52-1.3c-.43-1.06-.52-1.22-.72-1.22a.4.4 0 0 0-.33.18m2.11-.02c-.84.43-.84 1.87 0 2.3.41.21 1.22.14 1.5-.13.2-.2.2-.2-.07-.37q-.28-.2-.38-.07c-.06.06-.26.11-.44.11-.28 0-.36-.05-.5-.34-.3-.66.2-1.26.83-.97.18.08.3.08.45 0 .24-.12.24-.21 0-.44-.28-.25-.98-.3-1.39-.09m2.4 0c-.82.41-.84 1.87-.02 2.29s1.77-.06 1.87-.96c.12-1.09-.88-1.8-1.85-1.32m.14.65a.8.8 0 0 0 .09 1.03c.28.29.42.3.72.1.39-.27.38-1.01-.01-1.27-.23-.16-.65-.08-.8.14m-4.5.31c-.03.14-.09.32-.12.41-.05.13 0 .16.24.16.3 0 .3 0 .2-.32q-.21-.68-.32-.25m-2.14 3.1.03 1.22.65.03c.74.04 1.02-.02 1.24-.24.23-.22.2-.7-.06-.94-.17-.16-.2-.23-.1-.32.07-.07.12-.24.12-.4 0-.42-.32-.58-1.18-.58H7.9zm2.28.02V16h1.9v-.27c0-.28 0-.28-.62-.28-.58 0-.63-.02-.66-.22-.03-.22 0-.23.52-.23.53 0 .56-.01.56-.24s-.04-.25-.53-.28c-.44-.03-.52-.06-.52-.23s.08-.2.63-.23c.58-.03.62-.04.62-.27 0-.25 0-.25-.95-.25h-.95zm2.2 0V16h1.81l-.03-.27c-.03-.25-.06-.26-.58-.27l-.55-.01-.03-.97-.03-.98h-.59zm2 0V16h.9c.9 0 .9 0 .9-.25 0-.24-.03-.25-.55-.25h-.55v-2h-.7zm-5.83-.67c-.1.2 0 .37.26.4.3.04.5-.24.26-.39-.17-.1-.46-.12-.52-.01m-.04 1.12c-.02.19.03.2.4.18.58-.04.59-.32.02-.36-.35-.03-.4 0-.42.18"/></svg>