<svg xmlns="http://www.w3.org/2000/svg" width="24" height="24"><path fill="#765349" fill-rule="evenodd" d="M3.7 6.63v4.62l4.16 2.39L12 16.02l4.15-2.37 4.14-2.38V2H3.7zm.5-.09v4.44l1.13.66c6.17 3.57 6.7 3.86 6.92 3.72.1-.07 1.8-1.04 3.75-2.16s3.63-2.1 3.73-2.18c.16-.14.17-.48.17-4.54V2.1H4.2zm.35-4.01C4.52 2.6 4.5 3.7 4.52 5l.03 2.35h14.9l.03-2.47.02-2.48h-7.45c-5.94 0-7.47.03-7.5.13m11.25.66c-1.33.48-1.77 1.86-.9 2.85.46.52.98.68 2.17.68.57 0 1.07-.04 1.13-.07s.1-.46.1-.96V4.8h-1.41l.03.33q.02.34.23.32c.16 0 .2.07.2.3 0 .28-.03.3-.42.33-1.5.1-2.08-1.58-.79-2.25.3-.15 1.07-.14 1.79.03.25.06.27.04.27-.24 0-.4-.23-.52-1.13-.58a3 3 0 0 0-1.27.15m-10.2.26v.35h1.5v2.9h1V3.8h1.6v-.7H5.6zm4.67 1.4a48 48 0 0 0-.87 1.8c0 .03.23.05.5.05.48 0 .51-.02.67-.35l.17-.35h2.01l.2.35c.17.33.2.35.72.35h.53l-.9-1.8-.9-1.8h-1.25zm1.13-.25c-.16.33-.3.62-.3.65s.3.05.66.05.64-.03.62-.08l-.27-.65c-.14-.31-.28-.57-.33-.57s-.21.27-.38.6M4.5 9.23v1.52l3.56 2.05c1.96 1.13 3.66 2.1 3.79 2.14.2.08.78-.23 3.94-2.04l3.71-2.13V7.7h-15zm.7.1c0 .84.03 1.03.17 1.14.29.21.33.17.33-.35 0-.5 0-.5.28-.41l.54.14c.27.06.28.08.28.73 0 .5.04.69.18.8q.16.11.25.13c.09.02.07-.72.07-1.6V8.28l-.22.03c-.2.03-.23.1-.26.61-.02.48-.06.58-.18.53l-.55-.12-.39-.07V8.8c0-.46-.02-.49-.25-.49H5.2zm3.1.92v1.92l.73.4c.4.22.75.42.8.43.04.02.07-.08.07-.22 0-.2-.1-.32-.55-.57l-.55-.3v-.76c0-.4.04-.72.08-.69.05.03.27.1.5.15.41.09.42.09.42-.19 0-.25-.04-.29-.47-.36l-.48-.1-.03-.57-.03-.57h.56c.52 0 .55-.01.55-.25 0-.25-.01-.25-.8-.25h-.8zm2.5.7v2.63l.56.32c.3.18.6.32.65.32s.34-.14.64-.3l.55-.32V8.3h-.5v4.96l-.29.17c-.37.22-.47.21-.82-.04l-.29-.2V8.3h-.5zm3.4-.28v2.36l.48-.28c1.04-.6 1.22-.73 1.22-.93 0-.25 0-.25-.6.05-.27.14-.52.25-.55.25a3 3 0 0 1-.03-.77c.03-.83 0-.8.8-.97.22-.05.28-.12.28-.32q.01-.29-.16-.2l-.55.12-.39.07V8.8l.58-.03c.5-.03.57-.06.6-.25.03-.22 0-.23-.82-.23h-.86zm2.6-.74v1.61l.23-.14c.18-.13.23-.26.25-.79.02-.35.08-.67.14-.7.07-.04.32.1.56.3.38.33.48.37.64.28.18-.11.17-.14-.17-.44l-.37-.32.33-.09c.34-.08.34-.09.34-.68v-.59l-.97-.03-.98-.03zm.5-.77v.33l.52-.12c.42-.09.54-.16.56-.33.03-.2 0-.22-.52-.22h-.56z"/></svg>