<?xml version="1.0" encoding="UTF-8" standalone="no"?>
<svg
   viewBox="0 0 24 24"
   width="24pt"
   height="24pt"
   version="1.1"
   id="svg1"
   xml:space="preserve"
   xmlns="http://www.w3.org/2000/svg"
   xmlns:svg="http://www.w3.org/2000/svg"><defs
     id="defs1" /><g
     id="g1"
     transform="matrix(0.10176017,0,0,0.10176017,0.50175143,-2.6407228)"><rect
       style="fill:#a32424;fill-opacity:1;stroke-width:0.848711"
       id="rect1"
       width="34.594593"
       height="20.097815"
       x="77.071419"
       y="97.163452" /><rect
       style="fill:#a32424;fill-opacity:1;stroke-width:0.850911"
       id="rect1-3"
       width="46.620331"
       height="14.990994"
       x="96.852638"
       y="97.307594" /><rect
       style="fill:#a32424;fill-opacity:1;stroke-width:0.373056"
       id="rect1-3-0"
       width="16.308876"
       height="8.2368116"
       x="131.82819"
       y="93.096519" /><path
       d="m 107.843,46.937 c -1.462,0.462 -3.937,1.515 -5.5,2.339 -1.564,0.824 -4.057,1.979 -5.54,2.566 C 90.868,54.19 89.113,62.506 92.339,73 l 1.383,4.5 0.45,-6.213 c 0.575,-7.937 2.572,-10.508 7.144,-9.196 4.271,1.224 14.31,1.141 18.989,-0.159 2.312,-0.642 4.173,-1.915 4.741,-3.244 0.908,-2.123 0.932,-2.114 0.801,0.312 -0.075,1.375 0.604,4.173 1.509,6.218 0.904,2.045 1.689,4.745 1.744,6 0.199,4.563 1.694,-2.345 1.8,-8.32 0.119,-6.669 -2.466,-11.247 -7.9,-13.992 -4.272,-2.158 -11.565,-3.106 -15.157,-1.969 m 19.743,11.795 c 0.048,1.522 0.359,3.443 0.692,4.268 0.333,0.825 0.804,2.4 1.047,3.5 0.244,1.1 0.495,-0.051 0.559,-2.559 0.064,-2.507 -0.446,-5.328 -1.134,-6.268 -1.108,-1.515 -1.24,-1.394 -1.164,1.059 M 99,67.525 c 0,0.288 1.013,0.903 2.25,1.366 5.106,1.91 6.75,2.208 6.75,1.223 0,-0.561 -1.687,-1.489 -3.75,-2.061 C 100.008,66.875 99,66.773 99,67.525 m 19.25,0.594 c -1.787,0.516 -3.25,1.423 -3.25,2.017 0,0.64 0.71,0.779 1.75,0.342 0.963,-0.404 2.769,-0.956 4.015,-1.226 2.478,-0.537 4.152,-2.307 2.044,-2.162 -0.72,0.05 -2.772,0.513 -4.559,1.029 m -21.819,5.199 c -0.319,0.832 -0.389,2.789 -0.155,4.348 0.411,2.742 0.429,2.729 0.574,-0.416 L 97,74 h 5.531 c 3.799,0 5.699,0.435 6.065,1.389 0.298,0.777 1.351,1.176 2.387,0.905 1.344,-0.351 1.975,0.159 2.299,1.861 0.344,1.812 0.477,1.607 0.582,-0.905 L 114,74 h 5.937 5.936 l 0.441,3.25 c 0.356,2.625 0.416,2.481 0.313,-0.75 l -0.127,-4 -6.5,0.338 c -3.575,0.186 -6.65,0.748 -6.833,1.25 -0.427,1.168 -2.896,1.189 -3.334,0.027 -0.183,-0.486 -3.143,-1.205 -6.577,-1.597 -5.107,-0.583 -6.35,-0.437 -6.825,0.8 m -7.057,3.149 c -0.309,0.807 -0.37,2.044 -0.134,2.75 0.236,0.706 0.666,0.046 0.956,-1.467 0.566,-2.953 0.099,-3.682 -0.822,-1.283 M 100.5,77 c -0.371,0.601 0.903,0.994 3.191,0.985 2.828,-0.012 3.422,-0.265 2.309,-0.985 -1.956,-1.264 -4.719,-1.264 -5.5,0 m 16.5,0 c -1.113,0.72 -0.519,0.973 2.309,0.985 2.288,0.009 3.562,-0.384 3.191,-0.985 -0.781,-1.264 -3.544,-1.264 -5.5,0 m -23.486,5.896 c -0.769,5.596 1.036,10.257 4.74,12.24 2.122,1.136 1.984,1.287 -2.76,3.037 -2.747,1.013 -3.644,1.522 -1.994,1.131 1.65,-0.391 4.688,-0.605 6.75,-0.476 8,0.503 17.415,0.355 21,-0.33 5.795,-1.108 4.474,0.898 -2,3.036 -4.525,1.495 -9.221,1.952 -22.045,2.148 -16.013,0.244 -16.309,0.21 -17.128,-1.967 C 78.936,98.684 80.123,98.512 85,101 c 2.282,1.164 4.678,1.901 5.325,1.637 0.814,-0.332 0.773,-0.503 -0.134,-0.558 -0.737,-0.045 -0.993,-0.59 -0.586,-1.249 0.491,-0.794 0.171,-0.958 -0.999,-0.509 -0.97,0.372 -3.452,-0.222 -5.684,-1.361 -3.329,-1.698 -4.05,-1.789 -4.519,-0.569 -0.306,0.799 -0.057,2.388 0.555,3.531 0.706,1.319 0.746,2.078 0.109,2.078 -0.553,0 -0.734,0.705 -0.403,1.567 0.331,0.863 0.029,2.638 -0.671,3.946 -1.066,1.992 -0.999,2.955 0.414,5.932 1.819,3.833 2.672,4.615 1.967,1.805 -0.529,-2.111 7.404,-6.872 8.922,-5.354 1.366,1.366 -0.09,3.12 -3.918,4.719 -3.284,1.373 -4.394,3.639 -2.389,4.878 0.547,0.338 0.745,-0.023 0.443,-0.809 -0.454,-1.183 3.358,-4.371 7.743,-6.477 0.372,-0.178 1.464,1.338 2.428,3.368 1.662,3.504 1.663,3.757 0.016,4.962 -1.558,1.139 -1.346,1.407 2.072,2.616 8.195,2.898 39.519,0.783 34.016,-2.297 -2.079,-1.164 -2.373,-5.326 -0.32,-4.538 0.952,0.366 1.238,-0.035 0.913,-1.28 -0.817,-3.123 1.411,-3.187 5.84,-0.167 2.347,1.6 4.853,2.685 5.568,2.411 0.716,-0.275 2.05,-2.077 2.965,-4.006 1.315,-2.771 1.419,-3.899 0.496,-5.378 -0.643,-1.029 -1.169,-2.777 -1.169,-3.884 0,-1.108 -0.562,-2.038 -1.25,-2.068 -0.687,-0.029 -6.875,-0.024 -13.75,0.012 l -12.5,0.066 8.5,-3.495 c 9.319,-3.832 11.076,-4.123 13.971,-2.315 1.64,1.024 2.331,0.851 4.413,-1.105 1.357,-1.275 2.951,-2.02 3.542,-1.655 0.591,0.365 1.074,0.187 1.074,-0.395 0,-1.919 -3.856,-1.103 -5.434,1.15 -1.21,1.728 -1.811,1.946 -2.757,1 -1.461,-1.461 -7.23,-1.589 -9.793,-0.218 -1.019,0.546 -3.229,0.716 -4.911,0.38 l -3.059,-0.612 2.977,-2.781 C 126.66,92.449 128,90.669 128,90.022 c 0,-0.646 -1.182,0.229 -2.626,1.945 -6.41,7.618 -16.018,9.133 -23.99,3.783 -6.158,-4.133 -7.596,-6.879 -6.808,-13 0.336,-2.612 0.387,-4.75 0.112,-4.75 -0.275,0 -0.803,2.203 -1.174,4.896 m 36.092,-0.048 -1.894,2.652 2.338,-2.222 c 1.287,-1.222 2.139,-2.416 1.894,-2.652 -0.244,-0.237 -1.296,0.763 -2.338,2.222 m -28.035,3.723 c -0.864,0.865 -1.535,2.327 -1.492,3.25 0.064,1.371 0.18,1.404 0.63,0.179 0.304,-0.825 1.238,-2.287 2.076,-3.25 1.896,-2.176 0.926,-2.318 -1.214,-0.179 M 106,85.893 c 0,1.58 3.83,3.286 6.302,2.806 1.871,-0.363 1.799,-0.447 -0.481,-0.563 -1.473,-0.075 -3.385,-0.843 -4.25,-1.707 C 106.707,85.564 106,85.323 106,85.893 m 13,-0.701 c 0,0.276 0.9,1.54 2,2.808 1.1,1.268 2,1.857 2,1.308 0,-0.549 -0.9,-1.813 -2,-2.808 -1.1,-0.995 -2,-1.584 -2,-1.308 m -1.362,5.951 c -1.044,0.606 -4.556,0.888 -8,0.641 -6.072,-0.435 -6.101,-0.425 -2.706,0.965 3.792,1.553 8.644,1.04 11.644,-1.23 2.259,-1.709 1.725,-1.924 -0.938,-0.376 M 147,97.801 c 0,0.624 -1.238,1.806 -2.75,2.627 -1.512,0.821 -2.237,1.51 -1.611,1.532 1.743,0.061 5.961,-3.687 5.111,-4.541 -0.412,-0.414 -0.75,-0.242 -0.75,0.382 m -66.75,12.218 c -2.14,0.872 -2.947,2.951 -1.648,4.25 0.924,0.924 7.483,-2.514 7.084,-3.713 -0.475,-1.427 -2.709,-1.647 -5.436,-0.537 m 57.014,0.882 c 0.469,1.796 0.319,1.998 -0.799,1.07 -1.425,-1.183 -3.465,-0.551 -3.465,1.073 0,1.397 7.317,5.758 8.75,5.215 1.966,-0.744 1.461,-3.057 -0.825,-3.783 -1.142,-0.362 -1.855,-0.879 -1.586,-1.148 0.269,-0.27 1.435,0.016 2.59,0.634 1.7,0.91 2.218,0.817 2.719,-0.486 0.816,-2.129 -0.481,-3.293 -4.587,-4.114 -3.124,-0.625 -3.333,-0.51 -2.797,1.539 M 88.5,120.43 c -2.546,2.054 -2.788,2.621 -1.603,3.745 1.161,1.102 1.266,1.096 0.622,-0.036 -0.509,-0.894 0.212,-2.167 2.104,-3.714 1.582,-1.294 2.652,-2.367 2.377,-2.384 -0.275,-0.017 -1.85,1.058 -3.5,2.389 m 45.326,0.486 c 1.387,1.209 2.035,2.544 1.604,3.306 -0.556,0.982 -0.432,1.009 0.536,0.115 1.511,-1.395 0.708,-2.946 -2.272,-4.388 -2.114,-1.023 -2.109,-0.988 0.132,0.967 M 97,127.918 c 0,2.248 5.611,3.253 16.215,2.905 6.648,-0.219 11.177,-0.815 11.933,-1.571 1.904,-1.904 0.678,-2.228 -4.175,-1.102 -4.545,1.055 -19.033,0.625 -22.223,-0.66 -1.051,-0.423 -1.75,-0.252 -1.75,0.428"
       stroke="none"
       fill="#231916"
       fill-rule="evenodd"
       id="path1-4" /><path
       d="M 99.227,47.642 C 89.311,52.68 87.53,55.6 88.285,65.58 c 0.31,4.11 0.149,7.652 -0.363,7.968 -1.556,0.962 -1.025,7.352 0.936,11.254 4.343,8.642 5.189,10.48 4.923,10.685 -0.154,0.119 -1.784,0.724 -3.621,1.344 -2.666,0.9 -3.916,0.829 -6.2,-0.352 -6.364,-3.291 -9.559,-0.657 -8.42,6.941 0.412,2.748 0.249,4.592 -0.444,5.021 -1.624,1.003 -1.329,5.251 0.579,8.344 0.921,1.493 3.733,4.659 6.25,7.035 4.087,3.859 4.959,4.26 8.17,3.763 3.1,-0.48 3.747,-0.226 4.69,1.845 1.482,3.252 9.469,5.001 19.856,4.347 8.688,-0.547 13.008,-2.094 13.926,-4.987 0.485,-1.528 1.195,-1.78 3.56,-1.26 4.365,0.959 11.948,-4.686 15.364,-11.437 1.502,-2.968 1.557,-3.915 0.428,-7.338 -1.012,-3.065 -1.034,-4.295 -0.101,-5.591 2.88,-4 3.534,-6.259 2.591,-8.952 -1.114,-3.179 -4.477,-4.034 -7.717,-1.962 -1.332,0.852 -3.815,1.237 -6.331,0.982 -2.277,-0.23 -5.148,0.121 -6.38,0.78 -2.191,1.173 -2.205,1.148 -0.611,-1.128 0.896,-1.28 1.63,-3.168 1.63,-4.197 0,-1.028 0.9,-3.014 2,-4.412 2.296,-2.919 2.641,-8.595 0.637,-10.467 -0.982,-0.918 -1.122,-2.116 -0.5,-4.283 2.533,-8.833 -0.376,-17.667 -7.334,-22.272 -3.465,-2.293 -5.417,-2.797 -11.73,-3.027 -7.023,-0.256 -8.101,-0.008 -14.846,3.418 M 101,49.686 c -6.142,3.123 -7.849,4.53 -9.429,7.766 -1.867,3.826 -1.874,4.19 -0.203,11.5 C 94.035,80.616 94.336,83 93.145,83 c -1.586,0 -3.4,-3.915 -2.828,-6.104 0.273,-1.044 0.088,-1.647 -0.41,-1.338 -1.586,0.98 -0.978,4.989 1.093,7.212 1.1,1.18 2.002,2.953 2.004,3.938 0.005,2.445 3.633,8.216 5.653,8.991 1.088,0.417 -0.693,1.397 -5.255,2.89 l -6.902,2.259 -3.397,-1.977 c -4.157,-2.419 -6.06,-1.267 -4.297,2.602 0.77,1.691 0.805,2.527 0.105,2.527 -0.603,0 -0.767,0.877 -0.388,2.072 0.409,1.291 0.049,2.744 -0.957,3.855 -1.584,1.75 -1.229,5.073 0.541,5.073 0.491,0 0.893,0.553 0.893,1.228 0,1.492 7.802,8.778 9.376,8.757 0.618,-0.009 0.451,-0.441 -0.371,-0.961 -1.283,-0.811 -1.213,-1.166 0.5,-2.501 1.097,-0.856 2.755,-2 3.684,-2.543 2.456,-1.433 3.394,0.719 1.314,3.016 -1.623,1.795 -1.478,1.934 3.584,3.437 6.867,2.039 21.923,2.05 28.757,0.021 4.666,-1.386 5.048,-1.705 3.681,-3.072 -1.644,-1.644 -1.894,-2.68 -0.888,-3.686 1.079,-1.079 6.532,3.422 5.958,4.917 -0.928,2.417 1.024,1.509 5.079,-2.363 5.522,-5.274 7.032,-8.563 5.362,-11.683 -0.716,-1.337 -1.031,-3.137 -0.7,-4 0.4,-1.043 0.027,-1.578 -1.117,-1.601 -1.202,-0.023 -0.591,-0.955 2.031,-3.097 4.083,-3.335 4.588,-4.928 2.193,-6.917 -1.31,-1.087 -1.962,-0.888 -4.101,1.251 -2.37,2.37 -2.736,2.447 -5.377,1.13 -2.467,-1.231 -3.311,-1.215 -6.505,0.119 -2.018,0.843 -4.747,1.263 -6.063,0.933 l -2.393,-0.601 2.498,-2.969 c 1.374,-1.633 2.75,-4.172 3.058,-5.642 0.307,-1.47 0.983,-3.348 1.502,-4.173 3.174,-5.05 3.232,-8.29 0.167,-9.466 -1.411,-0.541 -1.397,-0.377 0.105,1.283 1.361,1.504 1.512,2.457 0.719,4.543 C 130.501,81.812 129.588,83 129.025,83 128.461,83 128,84.289 128,85.865 128,91.616 118.616,99 111.306,99 106.749,99 99.289,95.261 96.559,91.608 94.046,88.247 93.315,70.575 95.475,65.406 l 1.373,-3.286 8.93,0.579 c 10.6,0.686 15.609,-0.086 18.353,-2.83 1.859,-1.859 1.998,-1.875 1.74,-0.195 -0.155,1.004 0.221,2.734 0.835,3.844 0.614,1.111 1.451,3.803 1.86,5.984 0.61,3.251 0.883,3.608 1.519,1.981 0.426,-1.09 0.806,-4.986 0.845,-8.656 0.061,-5.797 -0.274,-7.082 -2.549,-9.786 -3.557,-4.228 -7.259,-5.964 -14.106,-6.617 -5.266,-0.503 -6.436,-0.215 -13.275,3.262 m 27.134,9.814 c 0.056,1.65 0.446,4.35 0.866,6 0.696,2.736 0.772,2.604 0.866,-1.5 0.057,-2.475 -0.333,-5.175 -0.866,-6 -0.737,-1.141 -0.945,-0.781 -0.866,1.5 m -29.995,8.393 c -0.964,0.61 -0.379,1.014 2,1.38 1.849,0.285 4.374,0.843 5.611,1.239 3.536,1.133 2.679,-1.167 -0.899,-2.414 -3.761,-1.311 -4.911,-1.346 -6.712,-0.205 m 18.975,0.261 c -2.196,0.631 -3.044,1.316 -2.413,1.947 0.631,0.631 1.933,0.609 3.701,-0.064 1.501,-0.57 3.936,-1.044 5.413,-1.052 2.101,-0.012 2.359,-0.227 1.185,-0.985 -1.802,-1.165 -3.409,-1.133 -7.886,0.154 M 96,76.5 c 0,2.475 0.36,4.5 0.799,4.5 0.44,0 0.616,-1.575 0.391,-3.5 L 96.781,74 h 5.501 c 5.06,0 5.552,0.204 6.14,2.546 0.352,1.4 0.331,3.045 -0.046,3.654 -0.414,0.671 -0.229,0.827 0.469,0.395 C 109.48,80.203 110,79.009 110,77.941 110,76.873 110.675,76 111.5,76 c 0.825,0 1.5,0.873 1.5,1.941 0,1.068 0.339,2.151 0.754,2.407 0.415,0.256 0.752,-0.955 0.75,-2.691 L 114.5,74.5 h 5.5 5.5 l -0.004,3.157 c -0.002,1.736 0.335,2.947 0.75,2.691 C 126.661,80.092 127,78.109 127,75.941 V 72 l -5.75,0.035 c -3.162,0.02 -6.846,0.643 -8.186,1.385 -2.054,1.138 -2.654,1.132 -3.822,-0.035 C 108.374,72.516 105.646,72 101.929,72 H 96 v 4.5 m 4.5,0.5 c -0.369,0.596 0.843,1 3,1 2.157,0 3.369,-0.404 3,-1 -0.34,-0.55 -1.69,-1 -3,-1 -1.31,0 -2.66,0.45 -3,1 m 16,0 c -0.369,0.596 0.843,1 3,1 2.157,0 3.369,-0.404 3,-1 -0.34,-0.55 -1.69,-1 -3,-1 -1.31,0 -2.66,0.45 -3,1 m -10.684,6.135 c -0.366,0.9 10e-4,2.587 0.816,3.75 1.788,2.552 7.479,2.891 9.414,0.56 1.148,-1.384 0.996,-1.421 -1.378,-0.34 -3.452,1.573 -7.381,-0.078 -7.85,-3.298 -0.268,-1.842 -0.47,-1.977 -1.002,-0.672 M 101.2,86.2 c -0.66,0.66 -1.2,2.071 -1.2,3.135 0,1.71 0.232,1.64 2,-0.608 1.1,-1.398 2,-2.809 2,-3.135 0,-0.994 -1.531,-0.661 -2.8,0.608 m 18.876,1.55 c 1.333,1.513 2.536,2.938 2.674,3.167 0.138,0.229 0.25,-0.302 0.25,-1.179 0,-1.827 -2.608,-4.738 -4.246,-4.738 -0.606,0 -0.012,1.237 1.322,2.75 m -16.124,3.692 c 2.627,3.166 10.518,3.218 14.548,0.096 1.896,-1.469 1.853,-1.497 -0.815,-0.544 -3.623,1.295 -8.825,1.284 -12.269,-0.026 -2.364,-0.899 -2.553,-0.838 -1.464,0.474 m -10.452,8.25 -5,1.629 4,1.263 c 8.011,2.528 26.344,0.651 31.132,-3.189 1.714,-1.374 1.538,-1.443 -2.132,-0.839 -5.032,0.828 -16.05,0.884 -20,0.101 -1.702,-0.338 -5.163,0.11 -8,1.035 m -12.311,10.029 c -2.25,0.423 -3.998,2.803 -2.88,3.922 0.943,0.943 7.818,-1.763 7.43,-2.925 -0.443,-1.33 -1.521,-1.566 -4.55,-0.997 m 56.459,-0.036 c -0.356,0.357 -0.648,0.951 -0.648,1.321 0,0.866 4.653,2.994 6.547,2.994 1.496,0 2.039,-2.553 0.703,-3.303 -1.705,-0.956 -5.999,-1.615 -6.602,-1.012 M 84,113.651 c -6.242,4.403 -4.898,5.868 2.105,2.295 2.214,-1.129 3.856,-2.564 3.648,-3.187 -0.637,-1.911 -2.102,-1.684 -5.753,0.892 m 49.533,-1.704 c -0.981,1.587 0.34,3.102 4.057,4.655 6.468,2.703 7.546,0.925 1.66,-2.737 -5.045,-3.139 -4.977,-3.116 -5.717,-1.918 m -2.86,2.713 c -1.478,1.479 -0.491,3.074 3.179,5.137 2.119,1.191 4.144,1.874 4.5,1.517 1.214,-1.213 0.652,-3.079 -1.102,-3.661 -0.963,-0.318 -2.684,-1.274 -3.827,-2.123 -1.142,-0.849 -2.379,-1.241 -2.75,-0.87 m -43.921,2.181 C 84.38,118.273 82.835,122 84.614,122 86.302,122 93,117.46 93,116.316 c 0,-1.757 -2.866,-1.516 -6.248,0.525 M 97,128.05 c 0,1.94 5.602,3.161 14.5,3.161 8.957,0 14.5,-1.222 14.5,-3.198 0,-0.672 -1.493,-0.769 -4.25,-0.275 -5.178,0.928 -17.065,0.925 -21.5,-0.006 -1.954,-0.41 -3.25,-0.283 -3.25,0.318 m 39.08,15.044 c -1.751,0.7 -2.117,1.269 -1.325,2.061 0.791,0.791 1.984,0.783 4.318,-0.031 1.774,-0.618 4.958,-1.124 7.076,-1.124 3.013,0 3.844,0.381 3.819,1.75 -0.058,3.203 -2.5,5.258 -6.078,5.114 -2.742,-0.11 -2.912,-0.223 -0.89,-0.591 2.612,-0.476 6,-2.976 6,-4.428 0,-1.083 -6.879,-0.971 -9.5,0.155 -1.1,0.473 -1.647,0.891 -1.215,0.93 0.432,0.038 0.321,0.937 -0.246,1.997 -0.82,1.532 -0.673,2.021 0.715,2.384 0.96,0.252 0.059,0.509 -2.004,0.573 -3.045,0.094 -3.75,0.492 -3.75,2.116 0,2.237 1.181,2.509 4.102,0.945 1.906,-1.02 1.922,-0.938 0.485,2.5 -1.67,3.998 -1.348,4.172 4.651,2.506 2.056,-0.571 4.194,-1.889 4.75,-2.929 1.398,-2.611 1.318,-2.824 -1.238,-3.316 -1.627,-0.314 -1.35,-0.471 1,-0.57 3.079,-0.129 3.25,0.05 3.25,3.395 0,3.571 -0.256,3.809 -5.291,4.915 -3.643,0.8 -2.51,2.554 1.65,2.554 4.224,0 5.641,-1.55 5.641,-6.169 0,-2.814 0.353,-3.633 1.396,-3.232 0.771,0.295 2.115,-0.49 3,-1.754 2.147,-3.065 2.023,-4.14 -0.33,-2.88 -1.064,0.569 -2.954,1.035 -4.2,1.035 -1.763,0 -1.999,-0.267 -1.066,-1.2 0.66,-0.66 1.2,-2.01 1.2,-3 0,-1.133 0.741,-1.8 2,-1.8 2.384,0 2.653,-1.536 0.418,-2.393 -2.457,-0.943 -15.636,-0.593 -18.338,0.487 M 49.29,145 c 0.34,1.3 0.03,2 -0.884,2 -0.773,0 -1.406,0.594 -1.406,1.321 0,0.999 1.188,1.168 4.882,0.694 5.373,-0.689 4.886,-1.326 5.095,6.668 0.038,1.461 0.795,2.302 2.29,2.543 1.528,0.247 1.028,0.523 -1.583,0.874 -3.315,0.446 -3.754,0.277 -3.344,-1.293 0.319,-1.221 -0.065,-1.784 -1.184,-1.737 -1.752,0.075 -6.168,1.74 -4.931,1.86 0.399,0.038 0.274,1.257 -0.278,2.709 -1.182,3.109 -0.576,4.128 1.455,2.443 0.797,-0.662 3.958,-1.394 7.024,-1.627 4.453,-0.339 5.574,-0.125 5.574,1.06 0,0.817 0.45,1.485 1,1.485 0.55,0 1,-0.675 1,-1.5 0,-1.689 1.77,-1.931 3.966,-0.542 0.93,0.588 1.937,0.538 2.75,-0.138 1.948,-1.616 1.538,-3.375 -0.829,-3.554 -2.894,-0.218 -3.094,-0.592 -1.94,-3.627 1.001,-2.632 0.99,-2.639 -4.222,-2.814 l -5.225,-0.174 4.439,-0.392 c 5.723,-0.506 9.934,-5.169 4.811,-5.329 -2.139,-0.067 -2.151,-0.111 -0.25,-0.893 1.845,-0.759 1.863,-0.878 0.238,-1.541 -0.97,-0.396 -3.782,-0.417 -6.25,-0.046 -4.407,0.66 -5.708,1.841 -3.238,2.938 0.688,0.306 -0.255,0.376 -2.094,0.156 C 52.239,146.076 50.662,145 53.892,145 c 1.229,0 1.949,-0.448 1.608,-1 -0.34,-0.55 -1.994,-1 -3.676,-1 -2.565,0 -2.973,0.322 -2.534,2 m 28.74,0.123 -3.469,2.115 2.802,2.235 c 2.584,2.06 2.749,2.597 2.108,6.869 -0.849,5.667 0.429,9.874 1.568,5.158 0.398,-1.65 0.778,-5.561 0.843,-8.691 0.065,-3.13 0.568,-5.969 1.118,-6.309 1.426,-0.882 1.239,-3.501 -0.25,-3.496 -0.687,0.002 -2.811,0.955 -4.72,2.119 m 8.72,-1.434 c -0.963,0.252 -1.75,1.355 -1.75,2.452 0,1.989 0.725,2.003 5.75,0.115 1.364,-0.513 1.658,1.555 0.483,3.401 -0.405,0.636 -2.31,1.565 -4.235,2.064 -4.873,1.263 -4.691,3.849 0.252,3.559 2.063,-0.121 3.75,0.18 3.75,0.668 0,2.236 -1.476,4.282 -3.697,5.127 -2.906,1.105 -2.147,2.925 1.221,2.925 2.684,0 4.476,-2.551 4.476,-6.373 0,-2.077 0.442,-2.471 2.596,-2.315 1.763,0.128 3.121,-0.589 4.236,-2.234 1.635,-2.414 1.63,-2.42 -1.393,-1.816 -4.725,0.945 -6.14,-0.566 -2.91,-3.106 3.85,-3.028 2.673,-5.187 -2.748,-5.04 -2.354,0.064 -5.068,0.322 -6.031,0.573 m 20.773,1.273 c -1.335,2.161 0.66,2.709 9.186,2.521 6.759,-0.15 8.791,-0.517 8.791,-1.589 0,-1.728 -16.942,-2.606 -17.977,-0.932 M 167.5,146 c 0.34,0.55 1.459,1 2.486,1 2.195,0 6.014,4.484 6.014,7.062 0,2.826 -4.767,6.029 -7.871,5.289 -1.446,-0.345 -3.191,-1.07 -3.879,-1.611 -0.687,-0.542 -1.257,-0.592 -1.265,-0.112 -0.009,0.479 -0.452,0.197 -0.985,-0.628 -0.533,-0.825 -0.976,-1.022 -0.985,-0.437 -0.026,1.853 5.379,6.013 8.18,6.295 3.835,0.385 6.754,-1.491 8.383,-5.391 1.71,-4.093 0.741,-7.284 -3.138,-10.336 -2.719,-2.138 -8.105,-3.016 -6.94,-1.131 m -26.888,1.819 c -0.279,0.451 0.82,0.624 2.441,0.387 1.621,-0.238 2.947,-0.607 2.947,-0.819 0,-0.762 -4.893,-0.37 -5.388,0.432 m 24.135,3.04 c -0.366,1.4 0.037,1.832 1.634,1.75 1.265,-0.065 2.119,0.495 2.119,1.391 0,0.825 0.45,1.831 1,2.235 1.852,1.36 3.5,0.779 3.5,-1.235 0,-2.454 -1.98,-2.695 -2.051,-0.25 -0.029,0.963 -0.81,0.063 -1.736,-2 -1.822,-4.059 -3.692,-4.851 -4.466,-1.891 M 47.5,151 c -0.373,0.604 0.99,1 3.441,1 2.232,0 4.059,-0.45 4.059,-1 0,-0.55 -1.548,-1 -3.441,-1 -1.893,0 -3.719,0.45 -4.059,1 m 70.5,0.199 c -1.375,0.518 -3.963,0.776 -5.75,0.573 -3.632,-0.414 -4.253,0.621 -1.316,2.193 2.903,1.553 7.896,1.249 11.162,-0.681 1.597,-0.943 2.904,-1.956 2.903,-2.25 -10e-4,-0.923 -4.389,-0.82 -6.999,0.165 M 48,154 c 0,0.55 1.323,1 2.941,1 1.618,0 3.219,-0.45 3.559,-1 0.368,-0.595 -0.823,-1 -2.941,-1 -1.957,0 -3.559,0.45 -3.559,1 m 15.813,-0.317 c 0.721,0.289 1.584,0.253 1.916,-0.079 0.332,-0.332 -0.258,-0.568 -1.312,-0.525 -1.165,0.048 -1.402,0.285 -0.604,0.604 M 59,155.201 c 0,0.439 1.575,0.799 3.5,0.799 1.925,0 3.5,-0.176 3.5,-0.391 0,-0.214 -1.575,-0.574 -3.5,-0.799 -1.925,-0.225 -3.5,-0.049 -3.5,0.391 M 141,157 c -1.828,1.181 -0.249,1.181 2.5,0 1.319,-0.567 1.489,-0.878 0.5,-0.914 -0.825,-0.031 -2.175,0.381 -3,0.914 m -34.75,0.644 c -1.29,0.284 -2.25,1.244 -2.25,2.25 0,1.588 0.615,1.666 6.466,0.825 5.063,-0.728 7.431,-0.601 10.909,0.584 3.987,1.358 4.669,1.354 6.655,-0.037 2.077,-1.455 2.103,-1.612 0.415,-2.557 -1.938,-1.084 -18.496,-1.879 -22.195,-1.065 M 47,173 c 0,0.55 0.45,1 1,1 0.55,0 1,1.575 1,3.5 0,1.925 0.45,3.5 1,3.5 0.55,0 1,-1.575 1,-3.5 0,-1.925 0.45,-3.5 1,-3.5 0.55,0 1,-0.45 1,-1 0,-0.55 -1.35,-1 -3,-1 -1.65,0 -3,0.45 -3,1 m 7.848,3.273 -1.584,4.272 h 3.73 3.73 l -1.456,-4.272 C 58.467,173.923 57.501,172 57.122,172 c -0.38,0 -1.403,1.923 -2.274,4.273 m 7.185,-0.023 C 62.015,178.863 62.45,181 63,181 c 0.55,0 1,-0.477 1,-1.059 0,-0.582 0.422,-0.798 0.939,-0.479 0.516,0.319 1.402,-0.217 1.969,-1.191 0.923,-1.585 1.034,-1.529 1.062,0.539 0.027,2.054 0.446,2.276 3.78,2 3.64,-0.301 3.759,-0.435 4.057,-4.56 0.172,-2.364 -0.134,-4.25 -0.689,-4.25 -0.549,0 -1.137,1.647 -1.308,3.66 -0.218,2.578 -0.828,3.735 -2.06,3.912 -1.411,0.202 -1.75,-0.506 -1.75,-3.66 0,-4.27 -1.305,-5.078 -3.022,-1.871 -1.086,2.029 -1.102,2.028 -3.002,-0.25 l -1.909,-2.291 -0.034,4.75 m 17.722,-3.643 c -0.297,0.491 -1.216,2.522 -2.042,4.512 l -1.502,3.619 3.888,-0.102 c 3.417,-0.089 3.813,-0.346 3.27,-2.119 -1.113,-3.632 -3.063,-6.821 -3.614,-5.91 M 85,176.441 c 0,2.507 0.45,4.559 1,4.559 0.55,0 1,-1.773 1,-3.941 0,-2.168 -0.45,-4.219 -1,-4.559 -0.611,-0.378 -1,1.156 -1,3.941 m 6,-2.941 c -0.993,1.197 -0.993,1.803 0,3 0.685,0.825 1.891,1.5 2.681,1.5 0.791,0 1.14,0.481 0.777,1.068 -0.363,0.588 -1.275,0.832 -2.027,0.544 -0.752,-0.289 -1.604,-0.14 -1.895,0.329 -0.29,0.47 3.296,0.824 7.968,0.786 7.836,-0.062 8.496,-0.225 8.496,-2.088 0,-1.991 0.021,-1.992 1.429,-0.08 1.41,1.917 1.438,1.916 2.204,-0.059 0.727,-1.877 0.818,-1.847 1.471,0.5 0.514,1.843 0.714,1.187 0.765,-2.5 0.062,-4.605 -0.049,-4.847 -1.401,-3.059 -0.807,1.068 -1.486,2.418 -1.508,3 -0.022,0.583 -0.718,-0.192 -1.548,-1.721 -1.917,-3.535 -3.392,-2.65 -3.483,2.089 l -0.07,3.691 -2.051,-4.5 -2.05,-4.5 -1.744,3.824 c -1.267,2.779 -1.908,3.394 -2.347,2.25 C 96.335,176.708 95.374,176 94.531,176 93.689,176 93,175.55 93,175 c 0,-0.55 0.702,-1 1.559,-1 0.857,0 1.281,-0.45 0.941,-1 -0.904,-1.462 -3.071,-1.221 -4.5,0.5 m 25.176,-0.63 c -0.797,0.505 -1.195,2.193 -1,4.235 0.274,2.868 0.712,3.395 2.824,3.395 1.831,0 2.585,-0.602 2.82,-2.25 0.219,-1.547 -0.192,-2.25 -1.318,-2.25 -1.182,0 -1.46,0.556 -1.002,2 0.364,1.147 0.18,2 -0.433,2 -0.587,0 -1.067,-1.38 -1.067,-3.067 0,-2.613 0.297,-2.974 2,-2.433 2.352,0.746 2.738,-1.003 0.418,-1.893 -1.912,-0.734 -1.634,-0.756 -3.242,0.263 m 6.874,0.57 c -0.657,0.791 -1.049,2.704 -0.872,4.25 0.273,2.384 0.777,2.81 3.322,2.81 2.545,0 3.049,-0.426 3.322,-2.81 0.342,-2.983 -1.239,-5.69 -3.322,-5.69 -0.69,0 -1.793,0.648 -2.45,1.44 m 6.95,3.06 c 0,2.475 0.45,4.5 1,4.5 0.55,0 1.014,-0.787 1.032,-1.75 0.03,-1.667 0.095,-1.667 1.36,0 1.84,2.423 3.997,2.346 2.69,-0.097 -0.673,-1.258 -0.634,-2.201 0.122,-2.957 1.581,-1.581 -0.804,-4.196 -3.826,-4.196 -2.152,0 -2.378,0.428 -2.378,4.5 m 10.723,-3.889 c -1.102,1.102 -0.861,8.389 0.277,8.389 0.55,0 1,-0.986 1,-2.191 0,-2.091 0.062,-2.106 1.358,-0.335 1.319,1.805 1.388,1.804 2.469,-0.058 1.055,-1.818 1.114,-1.801 1.143,0.334 0.016,1.238 0.48,2.25 1.03,2.25 1.275,0 1.319,-7.685 0.047,-8.471 -0.523,-0.323 -1.63,0.663 -2.459,2.191 -0.83,1.529 -1.526,2.304 -1.548,1.721 -0.066,-1.749 -2.541,-4.607 -3.317,-3.83 M 150,176.5 c 0,2.475 0.45,4.5 1,4.5 0.55,0 1,-2.025 1,-4.5 0,-2.475 -0.45,-4.5 -1,-4.5 -0.55,0 -1,2.025 -1,4.5 m 3,-3.7 c 0,0.44 0.528,1.328 1.173,1.973 0.889,0.889 0.894,1.784 0.021,3.7 -1.216,2.67 -0.406,3.339 1.606,1.327 0.933,-0.933 1.2,-0.933 1.2,0 0,0.66 0.665,1.2 1.479,1.2 1.193,0 1.269,-0.458 0.397,-2.374 -0.785,-1.722 -0.77,-2.956 0.056,-4.5 1.334,-2.491 -0.348,-2.993 -1.733,-0.517 -0.828,1.48 -0.951,1.48 -1.519,0 -0.63,-1.641 -2.68,-2.26 -2.68,-0.809 m 8,3.602 v 4.52 l 5,-0.211 c 2.749,-0.116 4.966,-0.436 4.925,-0.711 -0.04,-0.275 -0.889,-2.3 -1.886,-4.5 l -1.814,-4 -2.09,4.5 -2.091,4.5 -0.022,-3.691 c -0.012,-2.03 -0.472,-3.969 -1.022,-4.309 -0.61,-0.377 -1,1.143 -1,3.902 m 11.036,-0.152 c -0.02,2.613 0.414,4.75 0.964,4.75 0.55,0 1.014,-0.787 1.032,-1.75 0.03,-1.667 0.095,-1.667 1.36,0 0.731,0.963 1.841,1.75 2.468,1.75 1.414,0 1.539,-7.635 0.14,-8.5 -0.576,-0.356 -1.002,0.574 -1.005,2.191 l -0.005,2.809 -2.459,-3 -2.459,-3 -0.036,4.75 m -47.65,-0.813 c -0.788,2.053 0.322,4.862 1.607,4.067 0.554,-0.342 1.007,-1.469 1.007,-2.504 0,-2.464 -1.845,-3.567 -2.614,-1.563 M 132,175 c 0,0.55 0.702,1 1.559,1 0.857,0 1.281,-0.45 0.941,-1 -0.34,-0.55 -1.041,-1 -1.559,-1 -0.518,0 -0.941,0.45 -0.941,1 m -32,2 c 0,0.55 0.477,1 1.059,1 0.582,0 0.781,-0.45 0.441,-1 -0.34,-0.55 -0.816,-1 -1.059,-1 -0.243,0 -0.441,0.45 -0.441,1 m 66.5,0 c -0.34,0.55 -0.141,1 0.441,1 0.582,0 1.059,-0.45 1.059,-1 0,-0.55 -0.198,-1 -0.441,-1 -0.243,0 -0.719,0.45 -1.059,1"
       stroke="none"
       fill="#efe7e8"
       fill-rule="evenodd"
       id="path2" /><path
       d="m 136.08,143.094 c -1.751,0.7 -2.117,1.269 -1.325,2.061 0.791,0.791 1.984,0.783 4.318,-0.031 1.774,-0.618 4.958,-1.124 7.076,-1.124 3.013,0 3.844,0.381 3.819,1.75 -0.058,3.203 -2.5,5.258 -6.078,5.114 -2.742,-0.11 -2.912,-0.223 -0.89,-0.591 2.612,-0.476 6,-2.976 6,-4.428 0,-1.083 -6.879,-0.971 -9.5,0.155 -1.1,0.473 -1.647,0.891 -1.215,0.93 0.432,0.038 0.321,0.937 -0.246,1.997 -0.82,1.532 -0.673,2.021 0.715,2.384 0.96,0.252 0.059,0.509 -2.004,0.573 -3.045,0.094 -3.75,0.492 -3.75,2.116 0,2.237 1.181,2.509 4.102,0.945 1.906,-1.02 1.922,-0.938 0.485,2.5 -1.67,3.998 -1.348,4.172 4.651,2.506 2.056,-0.571 4.194,-1.889 4.75,-2.929 1.398,-2.611 1.318,-2.824 -1.238,-3.316 -1.627,-0.314 -1.35,-0.471 1,-0.57 3.079,-0.129 3.25,0.05 3.25,3.395 0,3.571 -0.256,3.809 -5.291,4.915 -3.643,0.8 -2.51,2.554 1.65,2.554 4.224,0 5.641,-1.55 5.641,-6.169 0,-2.814 0.353,-3.633 1.396,-3.232 0.771,0.295 2.115,-0.49 3,-1.754 2.147,-3.065 2.023,-4.14 -0.33,-2.88 -1.064,0.569 -2.954,1.035 -4.2,1.035 -1.763,0 -1.999,-0.267 -1.066,-1.2 0.66,-0.66 1.2,-2.01 1.2,-3 0,-1.133 0.741,-1.8 2,-1.8 2.384,0 2.653,-1.536 0.418,-2.393 -2.457,-0.943 -15.636,-0.593 -18.338,0.487 M 49.29,145 c 0.34,1.3 0.03,2 -0.884,2 -0.773,0 -1.406,0.594 -1.406,1.321 0,0.999 1.188,1.168 4.882,0.694 5.373,-0.689 4.886,-1.326 5.095,6.668 0.038,1.461 0.795,2.302 2.29,2.543 1.528,0.247 1.028,0.523 -1.583,0.874 -3.315,0.446 -3.754,0.277 -3.344,-1.293 0.319,-1.221 -0.065,-1.784 -1.184,-1.737 -1.752,0.075 -6.168,1.74 -4.931,1.86 0.399,0.038 0.274,1.257 -0.278,2.709 -1.182,3.109 -0.576,4.128 1.455,2.443 0.797,-0.662 3.958,-1.394 7.024,-1.627 4.453,-0.339 5.574,-0.125 5.574,1.06 0,0.817 0.45,1.485 1,1.485 0.55,0 1,-0.675 1,-1.5 0,-1.689 1.77,-1.931 3.966,-0.542 0.93,0.588 1.937,0.538 2.75,-0.138 1.948,-1.616 1.538,-3.375 -0.829,-3.554 -2.894,-0.218 -3.094,-0.592 -1.94,-3.627 1.001,-2.632 0.99,-2.639 -4.222,-2.814 l -5.225,-0.174 4.439,-0.392 c 5.723,-0.506 9.934,-5.169 4.811,-5.329 -2.139,-0.067 -2.151,-0.111 -0.25,-0.893 1.845,-0.759 1.863,-0.878 0.238,-1.541 -0.97,-0.396 -3.782,-0.417 -6.25,-0.046 -4.407,0.66 -5.708,1.841 -3.238,2.938 0.688,0.306 -0.255,0.376 -2.094,0.156 C 52.239,146.076 50.662,145 53.892,145 c 1.229,0 1.949,-0.448 1.608,-1 -0.34,-0.55 -1.994,-1 -3.676,-1 -2.565,0 -2.973,0.322 -2.534,2 m 28.74,0.123 -3.469,2.115 2.802,2.235 c 2.584,2.06 2.749,2.597 2.108,6.869 -0.849,5.667 0.429,9.874 1.568,5.158 0.398,-1.65 0.778,-5.561 0.843,-8.691 0.065,-3.13 0.568,-5.969 1.118,-6.309 1.426,-0.882 1.239,-3.501 -0.25,-3.496 -0.687,0.002 -2.811,0.955 -4.72,2.119 m 8.72,-1.434 c -0.963,0.252 -1.75,1.355 -1.75,2.452 0,1.989 0.725,2.003 5.75,0.115 1.364,-0.513 1.658,1.555 0.483,3.401 -0.405,0.636 -2.31,1.565 -4.235,2.064 -4.873,1.263 -4.691,3.849 0.252,3.559 2.063,-0.121 3.75,0.18 3.75,0.668 0,2.236 -1.476,4.282 -3.697,5.127 -2.906,1.105 -2.147,2.925 1.221,2.925 2.684,0 4.476,-2.551 4.476,-6.373 0,-2.077 0.442,-2.471 2.596,-2.315 1.763,0.128 3.121,-0.589 4.236,-2.234 1.635,-2.414 1.63,-2.42 -1.393,-1.816 -4.725,0.945 -6.14,-0.566 -2.91,-3.106 3.85,-3.028 2.673,-5.187 -2.748,-5.04 -2.354,0.064 -5.068,0.322 -6.031,0.573 m 20.773,1.273 c -1.335,2.161 0.66,2.709 9.186,2.521 6.759,-0.15 8.791,-0.517 8.791,-1.589 0,-1.728 -16.942,-2.606 -17.977,-0.932 M 167.5,146 c 0.34,0.55 1.459,1 2.486,1 2.195,0 6.014,4.484 6.014,7.062 0,2.826 -4.767,6.029 -7.871,5.289 -1.446,-0.345 -3.191,-1.07 -3.879,-1.611 -0.687,-0.542 -1.257,-0.592 -1.265,-0.112 -0.009,0.479 -0.452,0.197 -0.985,-0.628 -0.533,-0.825 -0.976,-1.022 -0.985,-0.437 -0.026,1.853 5.379,6.013 8.18,6.295 3.835,0.385 6.754,-1.491 8.383,-5.391 1.71,-4.093 0.741,-7.284 -3.138,-10.336 -2.719,-2.138 -8.105,-3.016 -6.94,-1.131 m -26.888,1.819 c -0.279,0.451 0.82,0.624 2.441,0.387 1.621,-0.238 2.947,-0.607 2.947,-0.819 0,-0.762 -4.893,-0.37 -5.388,0.432 m 24.135,3.04 c -0.366,1.4 0.037,1.832 1.634,1.75 1.265,-0.065 2.119,0.495 2.119,1.391 0,0.825 0.45,1.831 1,2.235 1.852,1.36 3.5,0.779 3.5,-1.235 0,-2.454 -1.98,-2.695 -2.051,-0.25 -0.029,0.963 -0.81,0.063 -1.736,-2 -1.822,-4.059 -3.692,-4.851 -4.466,-1.891 M 47.5,151 c -0.373,0.604 0.99,1 3.441,1 2.232,0 4.059,-0.45 4.059,-1 0,-0.55 -1.548,-1 -3.441,-1 -1.893,0 -3.719,0.45 -4.059,1 m 70.5,0.199 c -1.375,0.518 -3.963,0.776 -5.75,0.573 -3.632,-0.414 -4.253,0.621 -1.316,2.193 2.903,1.553 7.896,1.249 11.162,-0.681 1.597,-0.943 2.904,-1.956 2.903,-2.25 -10e-4,-0.923 -4.389,-0.82 -6.999,0.165 M 48,154 c 0,0.55 1.323,1 2.941,1 1.618,0 3.219,-0.45 3.559,-1 0.368,-0.595 -0.823,-1 -2.941,-1 -1.957,0 -3.559,0.45 -3.559,1 m 15.813,-0.317 c 0.721,0.289 1.584,0.253 1.916,-0.079 0.332,-0.332 -0.258,-0.568 -1.312,-0.525 -1.165,0.048 -1.402,0.285 -0.604,0.604 M 59,155.201 c 0,0.439 1.575,0.799 3.5,0.799 1.925,0 3.5,-0.176 3.5,-0.391 0,-0.214 -1.575,-0.574 -3.5,-0.799 -1.925,-0.225 -3.5,-0.049 -3.5,0.391 M 141,157 c -1.828,1.181 -0.249,1.181 2.5,0 1.319,-0.567 1.489,-0.878 0.5,-0.914 -0.825,-0.031 -2.175,0.381 -3,0.914 m -34.75,0.644 c -1.29,0.284 -2.25,1.244 -2.25,2.25 0,1.588 0.615,1.666 6.466,0.825 5.063,-0.728 7.431,-0.601 10.909,0.584 3.987,1.358 4.669,1.354 6.655,-0.037 2.077,-1.455 2.103,-1.612 0.415,-2.557 -1.938,-1.084 -18.496,-1.879 -22.195,-1.065 M 47,173 c 0,0.55 0.45,1 1,1 0.55,0 1,1.575 1,3.5 0,1.925 0.45,3.5 1,3.5 0.55,0 1,-1.575 1,-3.5 0,-1.925 0.45,-3.5 1,-3.5 0.55,0 1,-0.45 1,-1 0,-0.55 -1.35,-1 -3,-1 -1.65,0 -3,0.45 -3,1 m 7.848,3.273 -1.584,4.272 h 3.73 3.73 l -1.456,-4.272 C 58.467,173.923 57.501,172 57.122,172 c -0.38,0 -1.403,1.923 -2.274,4.273 m 7.185,-0.023 C 62.015,178.863 62.45,181 63,181 c 0.55,0 1,-0.477 1,-1.059 0,-0.582 0.422,-0.798 0.939,-0.479 0.516,0.319 1.402,-0.217 1.969,-1.191 0.923,-1.585 1.034,-1.529 1.062,0.539 0.027,2.054 0.446,2.276 3.78,2 3.64,-0.301 3.759,-0.435 4.057,-4.56 0.172,-2.364 -0.134,-4.25 -0.689,-4.25 -0.549,0 -1.137,1.647 -1.308,3.66 -0.218,2.578 -0.828,3.735 -2.06,3.912 -1.411,0.202 -1.75,-0.506 -1.75,-3.66 0,-4.27 -1.305,-5.078 -3.022,-1.871 -1.086,2.029 -1.102,2.028 -3.002,-0.25 l -1.909,-2.291 -0.034,4.75 m 17.722,-3.643 c -0.297,0.491 -1.216,2.522 -2.042,4.512 l -1.502,3.619 3.888,-0.102 c 3.417,-0.089 3.813,-0.346 3.27,-2.119 -1.113,-3.632 -3.063,-6.821 -3.614,-5.91 M 85,176.441 c 0,2.507 0.45,4.559 1,4.559 0.55,0 1,-1.773 1,-3.941 0,-2.168 -0.45,-4.219 -1,-4.559 -0.611,-0.378 -1,1.156 -1,3.941 m 6,-2.941 c -0.993,1.197 -0.993,1.803 0,3 0.685,0.825 1.891,1.5 2.681,1.5 0.791,0 1.14,0.481 0.777,1.068 -0.363,0.588 -1.275,0.832 -2.027,0.544 -0.752,-0.289 -1.604,-0.14 -1.895,0.329 -0.29,0.47 3.296,0.824 7.968,0.786 7.836,-0.062 8.496,-0.225 8.496,-2.088 0,-1.991 0.021,-1.992 1.429,-0.08 1.41,1.917 1.438,1.916 2.204,-0.059 0.727,-1.877 0.818,-1.847 1.471,0.5 0.514,1.843 0.714,1.187 0.765,-2.5 0.062,-4.605 -0.049,-4.847 -1.401,-3.059 -0.807,1.068 -1.486,2.418 -1.508,3 -0.022,0.583 -0.718,-0.192 -1.548,-1.721 -1.917,-3.535 -3.392,-2.65 -3.483,2.089 l -0.07,3.691 -2.051,-4.5 -2.05,-4.5 -1.744,3.824 c -1.267,2.779 -1.908,3.394 -2.347,2.25 C 96.335,176.708 95.374,176 94.531,176 93.689,176 93,175.55 93,175 c 0,-0.55 0.702,-1 1.559,-1 0.857,0 1.281,-0.45 0.941,-1 -0.904,-1.462 -3.071,-1.221 -4.5,0.5 m 25.176,-0.63 c -0.797,0.505 -1.195,2.193 -1,4.235 0.274,2.868 0.712,3.395 2.824,3.395 1.831,0 2.585,-0.602 2.82,-2.25 0.219,-1.547 -0.192,-2.25 -1.318,-2.25 -1.182,0 -1.46,0.556 -1.002,2 0.364,1.147 0.18,2 -0.433,2 -0.587,0 -1.067,-1.38 -1.067,-3.067 0,-2.613 0.297,-2.974 2,-2.433 2.352,0.746 2.738,-1.003 0.418,-1.893 -1.912,-0.734 -1.634,-0.756 -3.242,0.263 m 6.874,0.57 c -0.657,0.791 -1.049,2.704 -0.872,4.25 0.273,2.384 0.777,2.81 3.322,2.81 2.545,0 3.049,-0.426 3.322,-2.81 0.342,-2.983 -1.239,-5.69 -3.322,-5.69 -0.69,0 -1.793,0.648 -2.45,1.44 m 6.95,3.06 c 0,2.475 0.45,4.5 1,4.5 0.55,0 1.014,-0.787 1.032,-1.75 0.03,-1.667 0.095,-1.667 1.36,0 1.84,2.423 3.997,2.346 2.69,-0.097 -0.673,-1.258 -0.634,-2.201 0.122,-2.957 1.581,-1.581 -0.804,-4.196 -3.826,-4.196 -2.152,0 -2.378,0.428 -2.378,4.5 m 10.723,-3.889 c -1.102,1.102 -0.861,8.389 0.277,8.389 0.55,0 1,-0.986 1,-2.191 0,-2.091 0.062,-2.106 1.358,-0.335 1.319,1.805 1.388,1.804 2.469,-0.058 1.055,-1.818 1.114,-1.801 1.143,0.334 0.016,1.238 0.48,2.25 1.03,2.25 1.275,0 1.319,-7.685 0.047,-8.471 -0.523,-0.323 -1.63,0.663 -2.459,2.191 -0.83,1.529 -1.526,2.304 -1.548,1.721 -0.066,-1.749 -2.541,-4.607 -3.317,-3.83 M 150,176.5 c 0,2.475 0.45,4.5 1,4.5 0.55,0 1,-2.025 1,-4.5 0,-2.475 -0.45,-4.5 -1,-4.5 -0.55,0 -1,2.025 -1,4.5 m 3,-3.7 c 0,0.44 0.528,1.328 1.173,1.973 0.889,0.889 0.894,1.784 0.021,3.7 -1.216,2.67 -0.406,3.339 1.606,1.327 0.933,-0.933 1.2,-0.933 1.2,0 0,0.66 0.665,1.2 1.479,1.2 1.193,0 1.269,-0.458 0.397,-2.374 -0.785,-1.722 -0.77,-2.956 0.056,-4.5 1.334,-2.491 -0.348,-2.993 -1.733,-0.517 -0.828,1.48 -0.951,1.48 -1.519,0 -0.63,-1.641 -2.68,-2.26 -2.68,-0.809 m 8,3.602 v 4.52 l 5,-0.211 c 2.749,-0.116 4.966,-0.436 4.925,-0.711 -0.04,-0.275 -0.889,-2.3 -1.886,-4.5 l -1.814,-4 -2.09,4.5 -2.091,4.5 -0.022,-3.691 c -0.012,-2.03 -0.472,-3.969 -1.022,-4.309 -0.61,-0.377 -1,1.143 -1,3.902 m 11.036,-0.152 c -0.02,2.613 0.414,4.75 0.964,4.75 0.55,0 1.014,-0.787 1.032,-1.75 0.03,-1.667 0.095,-1.667 1.36,0 0.731,0.963 1.841,1.75 2.468,1.75 1.414,0 1.539,-7.635 0.14,-8.5 -0.576,-0.356 -1.002,0.574 -1.005,2.191 l -0.005,2.809 -2.459,-3 -2.459,-3 -0.036,4.75 m -47.65,-0.813 c -0.788,2.053 0.322,4.862 1.607,4.067 0.554,-0.342 1.007,-1.469 1.007,-2.504 0,-2.464 -1.845,-3.567 -2.614,-1.563 M 132,175 c 0,0.55 0.702,1 1.559,1 0.857,0 1.281,-0.45 0.941,-1 -0.34,-0.55 -1.041,-1 -1.559,-1 -0.518,0 -0.941,0.45 -0.941,1 m -32,2 c 0,0.55 0.477,1 1.059,1 0.582,0 0.781,-0.45 0.441,-1 -0.34,-0.55 -0.816,-1 -1.059,-1 -0.243,0 -0.441,0.45 -0.441,1 m 66.5,0 c -0.34,0.55 -0.141,1 0.441,1 0.582,0 1.059,-0.45 1.059,-1 0,-0.55 -0.198,-1 -0.441,-1 -0.243,0 -0.719,0.45 -1.059,1"
       stroke="none"
       fill="#a32424"
       fill-rule="evenodd"
       id="path3" /></g></svg>
