<svg xmlns="http://www.w3.org/2000/svg" width="24" height="24"><path fill="#6b7173" fill-rule="evenodd" d="M18.71 4.17a2 2 0 0 0-.72.53c-.46.45-.49.52-.49 1 0 .43.03.5.2.5.1 0 .22-.09.25-.2.1-.32.23-.23.3.2q.07.4.37.65c.38.32.66.39 1.3.3.46-.06.56-.11.76-.42.13-.2.26-.58.29-.84.05-.4.01-.55-.22-.94q-.61-1.05-2.04-.78m.02.55c-.22.1-.38.36-.28.46q.06.03.28-.16c.29-.27.72-.28 1.14-.02.27.16.33.17.33.05 0-.35-.98-.57-1.47-.33m-15.57.74c-.19.18-.2.55-.04.72q.13.12 1.3.12H5.6v5.67l.24.12c.28.15.6.07.72-.17.05-.1.09-1.38.09-2.87v-2.7l1.14-.03a5 5 0 0 0 1.28-.14c.2-.16.16-.66-.06-.78a21 21 0 0 0-2.95-.1c-2.36 0-2.77.02-2.9.16m16.3.17c-.2.14-.19.48 0 .54.07.02.19-.1.27-.26.2-.4.08-.53-.27-.28M8.99 6.96c-.64.2-1.43.92-1.66 1.52a3 3 0 0 0 .04 2.12c.68 1.53 2.75 2.1 3.87 1.05l.26-.24v.23c0 .58.71.78.97.27.15-.3.18-4.27.03-4.65a.5.5 0 0 0-.8-.2c-.11.1-.2.23-.2.31q0 .15-.32-.1c-.65-.48-1.34-.58-2.2-.31m6.09-.01c-.22.07-.49.23-.61.34-.28.26-.36.26-.36.01 0-.37-.7-.5-.92-.16-.04.06-.08 1.52-.08 3.23v3.13l.25.16c.2.14.3.15.5.06.24-.11.25-.14.25-1.24v-1.12l.28.26c.63.6 1.32.72 2.31.42A2.7 2.7 0 0 0 18.5 9.5c0-1.8-1.8-3.14-3.43-2.55m4.36.42-.43.04v2.2c0 1.33.04 2.28.1 2.4.15.28.65.25.85-.05.13-.2.15-.58.13-2.41a10 10 0 0 0-.13-2.2c-.05 0-.3 0-.52.02m-10.31.6c-.52.25-.85.76-.9 1.37q-.09.98.64 1.52c.32.25.47.29.98.29.48 0 .68-.05.94-.23 1.3-.94.7-3.13-.87-3.12-.25 0-.6.08-.8.17m6.09-.1c-.6.23-1.1.95-1.1 1.6 0 .93.81 1.73 1.78 1.73.64 0 1.33-.59 1.52-1.3a1.8 1.8 0 0 0-.9-1.95c-.29-.15-1-.19-1.3-.08"/></svg>