<?xml version="1.0" encoding="UTF-8" standalone="no"?>
<svg
   viewBox="0 0 24 24"
   width="24pt"
   height="24pt"
   version="1.1"
   id="svg3169"
   sodipodi:docname="tedi.svg"
   inkscape:version="1.2.2 (732a01da63, 2022-12-09)"
   xmlns:inkscape="http://www.inkscape.org/namespaces/inkscape"
   xmlns:sodipodi="http://sodipodi.sourceforge.net/DTD/sodipodi-0.dtd"
   xmlns="http://www.w3.org/2000/svg"
   xmlns:svg="http://www.w3.org/2000/svg">
  <defs
     id="defs3173" />
  <sodipodi:namedview
     id="namedview3171"
     pagecolor="#ffffff"
     bordercolor="#000000"
     borderopacity="0.25"
     inkscape:showpageshadow="2"
     inkscape:pageopacity="0.0"
     inkscape:pagecheckerboard="0"
     inkscape:deskcolor="#d1d1d1"
     inkscape:document-units="pt"
     showgrid="false"
     inkscape:zoom="24.625"
     inkscape:cx="16.040609"
     inkscape:cy="16"
     inkscape:window-width="1920"
     inkscape:window-height="986"
     inkscape:window-x="-11"
     inkscape:window-y="-11"
     inkscape:window-maximized="1"
     inkscape:current-layer="svg3169" />
  <g
     id="g9565"
     transform="matrix(0.03628243,0,0,0.03656545,3.8185285,3.0755149)">
    <path
       d="M 233.81,401.05 C 126.157,401.05 38.549,313.466 38.518,205.811 38.488,98.125 126.071,10.488 233.757,10.458 c 52.852,0 101.854,19.456 138.044,54.785 36.94,36.061 57.293,85.942 57.31,140.454 0.031,107.686 -87.554,195.321 -195.24,195.354 h -0.061 z"
       fill="#ffed00"
       id="path9535" />
    <path
       d="m 233.824,13.679 c 51.938,0 100.14,19.132 135.725,53.871 17.702,17.281 31.557,37.689 41.178,60.659 10.054,23.996 15.154,50.067 15.162,77.488 0.008,25.934 -5.062,51.089 -15.069,74.768 -9.667,22.874 -23.512,43.42 -41.147,61.067 -17.637,17.647 -38.175,31.503 -61.044,41.183 -23.673,10.021 -48.825,15.106 -74.757,15.113 h -0.062 c -25.926,0 -51.073,-5.075 -74.744,-15.085 -22.868,-9.67 -43.407,-23.515 -61.048,-41.151 C 80.376,323.956 66.525,303.42 56.848,280.556 46.83,256.886 41.747,231.739 41.739,205.809 c -0.007,-25.932 5.062,-51.087 15.07,-74.765 9.668,-22.875 23.512,-43.42 41.149,-61.068 17.636,-17.647 38.174,-31.503 61.043,-41.184 23.672,-10.021 48.824,-15.106 74.755,-15.113 h 0.068 M 233.82,7.236 h -0.064 C 124.119,7.268 35.265,96.175 35.297,205.811 c 0.031,109.621 88.907,198.46 198.513,198.46 h 0.062 C 343.514,404.238 432.364,315.335 432.333,205.695 432.297,89.619 343.121,7.234 233.82,7.236"
       id="path9537" />
    <path
       d="M 233.871,391.386 C 131.356,391.419 48.214,308.329 48.182,205.811 48.151,103.285 131.241,20.154 233.756,20.122 335.988,20.09 419.445,99.243 419.445,205.696 c 0,102.518 -83.054,185.657 -185.574,185.69"
       fill="#8ebbe5"
       id="path9539" />
    <path
       d="M 172.353,374.013 C 79.425,340.058 31.601,237.195 65.549,144.268 99.493,51.338 202.352,3.539 295.28,37.496 388.211,71.452 436.028,174.312 402.078,267.235 368.13,360.174 265.278,407.966 172.353,374.013"
       fill="#007bc4"
       id="path9541" />
    <path
       d="m 126.704,182.095 0.962,-49.083 a 1.345,1.345 0 0 0 -0.406,-1.001 l -2.217,-2.165 c -0.909,-0.884 -1.811,-1.766 -2.717,-2.647 l 0.011,0.013 a 1.347,1.347 0 0 0 -0.96,-0.401 l -113.82,-0.04 a 1.5,1.5 0 0 0 -0.996,0.402 1.38,1.38 0 0 0 -0.423,0.983 l -0.987,49.1 c 0,0.441 0.206,0.829 0.523,1.084 -0.032,-0.025 -0.07,-0.051 -0.102,-0.084 1.645,1.607 3.289,3.207 4.934,4.812 0.245,0.239 0.583,0.388 0.953,0.392 l 23.556,0.009 -1.888,94.683 c -0.012,0.442 0.186,0.834 0.498,1.089 -0.031,-0.022 -0.06,-0.046 -0.087,-0.068 l 4.932,4.809 c 0.243,0.237 0.575,0.387 0.947,0.375 l 53.921,0.018 a 1.428,1.428 0 0 0 1.383,-1.383 l 1.973,-99.508 28.588,0.016 c 0.366,-0.005 0.729,-0.145 0.995,-0.42 0.252,-0.254 0.406,-0.62 0.427,-0.985 m -37.699,-4.809 -1.988,99.508 -46.046,-0.026 1.876,-94.699 a 1.35,1.35 0 0 0 -0.406,-1.008 c -1.644,-1.6 -3.289,-3.206 -4.934,-4.806 0.003,0.004 0.006,0.01 0.01,0.013 a 1.364,1.364 0 0 0 -0.961,-0.4 l -23.558,-0.017 0.824,-41.481 106.017,0.033 -0.841,41.496 -28.605,-0.018 c -0.753,0.012 -1.363,0.63 -1.388,1.405 M 37.89,176.975 c -0.007,-0.044 -0.023,-0.086 -0.036,-0.128 0.013,0.042 0.029,0.084 0.036,0.128 m -0.201,-0.499 c -0.024,-0.037 -0.053,-0.066 -0.08,-0.101 0.027,0.035 0.056,0.064 0.08,0.101 m 84.819,-49.059 c -0.022,-0.031 -0.048,-0.06 -0.071,-0.086 0.023,0.026 0.049,0.055 0.071,0.086 m 0.204,0.505 c -0.007,-0.036 -0.022,-0.064 -0.029,-0.101 0.007,0.037 0.022,0.065 0.029,0.101 m -0.077,-0.264 c -0.017,-0.037 -0.037,-0.068 -0.053,-0.105 0.016,0.037 0.036,0.068 0.053,0.105 M 5.9,178.489 c -0.047,-0.026 -0.094,-0.05 -0.133,-0.077 0.039,0.027 0.086,0.051 0.133,0.077 m 0.263,0.107 c -0.055,-0.021 -0.112,-0.037 -0.168,-0.059 0.056,0.022 0.113,0.038 0.168,0.059 m 27.563,100.729 c 0.038,0.021 0.076,0.038 0.117,0.061 -0.041,-0.023 -0.079,-0.039 -0.117,-0.061 m 0.229,0.123 c 0.047,0.018 0.1,0.03 0.15,0.044 -0.05,-0.017 -0.103,-0.026 -0.15,-0.044 m 202.15,-104.316 c 0.341,-0.001 0.677,-0.163 0.929,-0.4 0.272,-0.255 0.424,-0.621 0.428,-0.983 l 0.814,-40.698 a 1.387,1.387 0 0 0 -0.421,-1.025 c -1.642,-1.602 -3.286,-3.206 -4.932,-4.809 l 0.036,0.036 a 1.328,1.328 0 0 0 -0.978,-0.404 l -101.607,-0.042 a 1.43,1.43 0 0 0 -1.387,1.402 l -2.996,149.987 c -0.013,0.449 0.201,0.847 0.529,1.103 a 2.267,2.267 0 0 1 -0.123,-0.101 c 0.493,0.481 0.983,0.96 1.479,1.442 1.154,1.12 2.303,2.246 3.455,3.366 0.245,0.242 0.588,0.392 0.968,0.396 l 101.503,0.025 c 0.345,-0.008 0.681,-0.161 0.933,-0.404 a 1.4,1.4 0 0 0 0.424,-0.979 l 0.814,-40.694 a 1.35,1.35 0 0 0 -0.406,-1.02 l -4.906,-4.789 h -0.008 l -0.02,-0.023 c 0.008,0.004 0.008,0.011 0.008,0.011 a 1.33,1.33 0 0 0 -0.958,-0.386 l -42.217,-0.029 0.161,-8.121 41.643,0.003 a 1.41,1.41 0 0 0 0.933,-0.401 c 0.254,-0.256 0.425,-0.623 0.425,-0.985 l 0.771,-38.398 c 0,-0.39 -0.158,-0.746 -0.419,-0.998 l -4.913,-4.791 c 0,-0.003 -0.002,-0.003 -0.002,-0.003 l -0.017,-0.019 c 0.002,0.004 0.002,0.006 0.006,0.01 a 1.389,1.389 0 0 0 -0.963,-0.401 H 188.54 l 0.14,-6.89 z m -55.107,-6.21 -0.301,14.475 c -0.004,0.446 0.209,0.837 0.529,1.089 -0.041,-0.027 -0.081,-0.053 -0.112,-0.086 1.646,1.6 3.29,3.205 4.932,4.809 0.248,0.239 0.584,0.387 0.957,0.387 l 36.555,0.024 -0.614,30.793 -41.613,-0.021 c -0.754,0.013 -1.387,0.629 -1.387,1.384 l -0.324,15.74 c -0.007,0.442 0.195,0.834 0.515,1.089 -0.037,-0.029 -0.076,-0.059 -0.107,-0.09 1.642,1.605 3.286,3.206 4.932,4.812 0.248,0.243 0.588,0.389 0.97,0.392 l 42.203,0.017 -0.656,33.09 -93.635,-0.037 2.83,-142.377 93.758,0.029 -0.655,33.087 -47.362,-0.013 a 1.449,1.449 0 0 0 -1.415,1.407 m 0.703,15.81 c -0.055,-0.016 -0.111,-0.029 -0.162,-0.051 0.051,0.022 0.107,0.035 0.162,0.051 m -0.259,-0.103 c -0.045,-0.025 -0.094,-0.049 -0.136,-0.075 0.043,0.026 0.091,0.05 0.136,0.075 m -54.616,94.85 c 0.055,0.021 0.116,0.036 0.18,0.058 -0.064,-0.021 -0.123,-0.036 -0.18,-0.058 m 103.99,-42.745 c -0.02,-0.026 -0.038,-0.045 -0.06,-0.07 0.022,0.025 0.041,0.044 0.06,0.07 m 0.205,0.51 c -0.004,-0.018 -0.013,-0.035 -0.018,-0.055 0.005,0.02 0.014,0.038 0.018,0.055 m -0.082,-0.267 c -0.007,-0.026 -0.025,-0.048 -0.038,-0.077 0.013,0.029 0.032,0.05 0.038,0.077 m -4.712,-54.361 c -0.016,-0.024 -0.035,-0.046 -0.052,-0.068 0.016,0.022 0.036,0.044 0.052,0.068 m 0.213,0.5 c -0.003,-0.015 -0.01,-0.031 -0.016,-0.048 0.007,0.017 0.014,0.033 0.016,0.048 m -0.084,-0.261 c -0.009,-0.022 -0.022,-0.042 -0.033,-0.062 0.011,0.02 0.025,0.036 0.033,0.062 m 100.37,3.064 c -1.563,-1.523 -3.121,-3.045 -4.687,-4.566 -0.071,-0.076 -0.174,-0.169 -0.245,-0.243 0.33,0.323 0.649,0.66 0.961,0.998 -1.865,-2.058 -4.115,-3.768 -6.733,-5.116 -5.297,-2.699 -12.05,-3.983 -20.239,-3.972 -0.841,-0.003 -1.475,-0.013 -2.296,-0.016 -0.784,0.013 -1.414,0.635 -1.422,1.403 l -1.153,58.104 c -0.021,0.385 0.133,0.742 0.378,0.988 l 4.933,4.81 c 0.271,0.267 0.634,0.411 1.034,0.403 12.077,-0.213 21.188,-2.421 27.438,-7.41 3.125,-2.484 5.469,-5.685 7.043,-9.543 1.559,-3.854 2.372,-8.366 2.479,-13.575 0,-0.327 0,-0.651 0.004,-0.957 0.013,-4.901 -0.672,-9.216 -2.078,-12.927 -1.235,-3.274 -3.051,-6.074 -5.417,-8.381 m -0.236,17.444 c -0.106,4.957 -0.862,9.131 -2.265,12.579 -2.122,5.169 -5.608,8.769 -10.838,11.272 -3.889,1.851 -8.77,3.014 -14.639,3.561 l 0.995,-50.17 h 0.925 c 9.336,0.007 17.825,1.901 21.229,5.182 1.298,1.506 2.022,2.954 2.702,4.725 1.26,3.33 1.898,7.298 1.89,11.952 v 0.899 m -2.432,-19.661"
       id="path9543" />
    <path
       d="m 388.929,206.669 c 0.061,-20.515 -7.404,-38.798 -21.199,-52.253 -1.649,-1.6 -3.29,-3.207 -4.939,-4.809 0.046,0.04 0.081,0.082 0.123,0.121 -5.286,-5.177 -11.507,-9.651 -18.604,-13.261 -14.064,-7.101 -33.673,-9.596 -59.755,-9.618 l -43.647,-0.004 c -0.75,0.013 -1.362,0.63 -1.389,1.384 l -2.974,149.989 c -0.014,0.442 0.192,0.838 0.511,1.095 -0.033,-0.025 -0.072,-0.047 -0.101,-0.08 1.642,1.603 3.287,3.21 4.932,4.81 0.243,0.239 0.577,0.385 0.948,0.377 l 39.608,0.017 c 3.638,0.013 7.159,-0.009 10.586,-0.067 24.99,-0.442 45.298,-2.996 63.045,-15.039 20.563,-13.875 32.359,-35.964 32.853,-61.129 0.002,-0.515 0.002,-1.014 0.002,-1.533 m -7.732,-3.287 c -0.488,24.341 -11.786,45.444 -31.601,58.828 -17,11.574 -36.62,14.115 -61.498,14.551 -3.404,0.062 -6.907,0.085 -10.527,0.088 l -33.184,-0.017 2.834,-142.399 42.2,0.022 c 25.908,0.009 45.175,2.544 58.517,9.319 5.725,2.92 10.843,6.414 15.343,10.38 11.707,12.647 17.965,29.18 17.938,47.758 0.001,0.493 -0.003,0.974 -0.022,1.47 m -25.995,-56.658 c 0.395,0.307 0.774,0.621 1.16,0.931 -0.385,-0.311 -0.765,-0.625 -1.16,-0.931 M 237.139,279.382 c 0.045,0.032 0.09,0.053 0.136,0.075 -0.046,-0.022 -0.091,-0.043 -0.136,-0.075 m 0.232,0.127 c 0.051,0.02 0.105,0.034 0.161,0.051 -0.055,-0.017 -0.11,-0.032 -0.161,-0.051"
       id="path9545" />
    <path
       d="m 445.837,155.595 v -0.612 c 0.014,-6.741 -2.068,-12.516 -6.259,-16.602 l -4.934,-4.809 c 0.1,0.09 0.189,0.193 0.287,0.291 -0.167,-0.166 -0.327,-0.34 -0.504,-0.502 -4.332,-4.095 -10.738,-6.321 -18.947,-6.332 -0.266,0.008 -0.537,0.011 -0.802,0.017 -8.097,0.139 -14.492,2.494 -18.924,6.688 -4.404,4.172 -6.719,10.109 -6.85,17.019 v 0.599 c -0.013,6.872 2.233,12.844 6.626,17.017 a 6.5,6.5 0 0 1 -0.188,-0.178 c 0.736,0.72 1.48,1.442 2.225,2.166 l 2.708,2.643 c 0.065,0.059 0.123,0.119 0.187,0.178 0.964,0.92 2.03,1.741 3.188,2.476 l -11.584,-0.011 a 1.458,1.458 0 0 0 -1.418,1.407 l -2.007,98.738 c 0,0.366 0.136,0.729 0.382,0.97 l 4.932,4.813 c 0.269,0.261 0.613,0.409 0.975,0.419 l 45.044,0.021 a 1.425,1.425 0 0 0 1.387,-1.384 l 2.006,-98.742 a 1.27,1.27 0 0 0 -0.38,-0.988 l -4.933,-4.811 a 1.354,1.354 0 0 0 -0.978,-0.404 l -1.745,-0.002 a 21.38,21.38 0 0 0 3.672,-2.871 c 4.392,-4.268 6.685,-10.298 6.834,-17.214 m -45.779,12.78 c -2.257,-3.303 -3.434,-7.434 -3.427,-12.262 l 0.006,-0.54 c 0.123,-6.358 2.187,-11.446 5.965,-15.037 3.776,-3.588 9.404,-5.753 17.003,-5.904 0.249,-0.007 0.498,0.013 0.744,0.002 6.137,0 10.948,1.319 14.53,3.611 2.141,3.197 3.239,7.214 3.227,11.975 v 0.559 c -0.123,6.357 -2.185,11.558 -5.963,15.246 -3.778,3.685 -9.37,5.944 -16.872,6.077 -0.229,0.003 -0.463,0.005 -0.688,0.009 -6.064,0 -10.894,-1.367 -14.525,-3.736 m -3.57,106.011 1.863,-91.133 37.168,0.02 -1.849,91.137 z"
       id="path9547" />
    <path
       d="m 391.459,274.382 42.216,0.026 1.941,-95.945 -42.197,-0.021 z M 7.967,175.847 l 28.592,0.017 c 0.117,0 0.196,0.195 0.281,0.275 0.086,0.087 0.206,0.203 0.294,0.287 0.091,0.088 0.212,0.208 0.302,0.297 0.156,0.153 0.314,0.304 0.471,0.46 0.003,0.025 0.006,0.048 0.006,0.073 l -1.969,99.507 51.073,0.026 1.993,-99.504 a 1.435,1.435 0 0 1 1.416,-1.406 l 28.571,0.019 0.937,-46.305 -111.043,-0.03 z m 28.867,0.05 c 0.029,0.005 0.057,0.018 0.085,0.026 -0.027,-0.008 -0.056,-0.021 -0.085,-0.026 m 0.483,0.202 c 0.032,0.024 0.06,0.05 0.089,0.075 -0.029,-0.025 -0.056,-0.051 -0.089,-0.075 m 91.491,100.687 98.668,0.041 0.749,-37.901 -47.174,-0.017 -1.431,-1.393 0.324,-15.744 c 0.003,-0.752 0.633,-1.367 1.422,-1.384 l 41.582,0.024 0.703,-35.604 -41.525,-0.022 c -0.505,-0.485 -0.994,-0.962 -1.433,-1.39 l 0.298,-14.479 a 1.461,1.461 0 0 1 1.421,-1.403 l 47.364,0.016 0.751,-37.899 -98.788,-0.03 z m 51.115,-38.393 c 0.029,0.039 0.058,0.081 0.097,0.116 -0.039,-0.035 -0.068,-0.077 -0.097,-0.116 m -0.201,-0.33 c -0.025,-0.055 -0.038,-0.117 -0.055,-0.178 0.018,0.061 0.03,0.124 0.055,0.178 m 0.123,0.236 c -0.025,-0.042 -0.047,-0.088 -0.071,-0.136 0.024,0.048 0.046,0.094 0.071,0.136 m 1.175,-54.012 c 0.029,0.033 0.051,0.068 0.086,0.101 -0.036,-0.034 -0.058,-0.068 -0.086,-0.101 m -0.218,-0.346 c -0.016,-0.035 -0.022,-0.071 -0.033,-0.112 0.011,0.041 0.018,0.077 0.033,0.112 m 0.13,0.239 c -0.022,-0.031 -0.039,-0.073 -0.057,-0.11 0.018,0.037 0.034,0.079 0.057,0.11 m 162.071,-45.218 c -13.342,-6.774 -32.605,-9.311 -58.514,-9.317 l -42.201,-0.02 -2.931,147.202 38.219,0.024 c 3.612,-0.011 7.113,-0.033 10.526,-0.091 24.874,-0.432 44.494,-2.979 61.513,-14.554 19.795,-13.38 31.09,-34.483 31.586,-58.82 0.019,-0.502 0.019,-0.981 0.019,-1.479 0.038,-27.393 -13.575,-50.358 -38.217,-62.945 m -13.72,64.41 c -0.107,5.208 -0.921,9.719 -2.479,13.58 -1.578,3.854 -3.918,7.053 -7.043,9.539 -6.242,4.986 -15.336,7.196 -27.425,7.409 l -1.429,-1.389 1.16,-58.104 c 0,-0.767 0.63,-1.386 1.418,-1.399 0.821,0.002 1.455,0.009 2.297,0.015 8.188,-0.01 14.944,1.271 20.238,3.969 5.29,2.722 9.089,6.927 11.188,12.498 1.404,3.707 2.087,8.022 2.078,12.927 -0.003,0.303 -0.003,0.63 -0.003,0.955 m 103.21,-67.964 c -3.707,-3.494 -9.346,-5.582 -17.078,-5.582 -0.245,0.007 -0.497,-0.01 -0.743,-0.004 -7.596,0.149 -13.228,2.318 -17.007,5.906 -3.777,3.587 -5.834,8.679 -5.965,15.035 l -10e-4,0.538 c -0.013,6.299 1.984,11.415 5.769,15.041 3.798,3.611 9.479,5.77 17.113,5.77 l 0.689,-0.01 c 7.502,-0.132 13.094,-2.391 16.874,-6.076 3.777,-3.685 5.834,-8.891 5.961,-15.248 v -0.557 c 0.016,-6.297 -1.903,-11.299 -5.612,-14.813"
       fill="#ffed00"
       id="path9549" />
  </g>
</svg>
