<svg xmlns="http://www.w3.org/2000/svg" width="24" height="24"><path fill="#252525" fill-rule="evenodd" d="M7.36 4.23c-.63 1-1.17 1.92-1.2 2.01q0 .1.13.08c.07-.02.22.05.32.14q.17.15.19.06-.01-.1-.12-.15-.13-.06.03-.06c.38-.02.65-.71.38-.98-.08-.08-.04-.24.16-.57.27-.47.28-.47.43-.25.14.2.13.23-.11.41-.29.2-.38.73-.15.8.16.06.68-.14.68-.25q0-.06-.1-.02c-.06.04-.1-.06-.1-.21 0-.31.06-.27.4.3l.23.39-.35-.07q-.35-.06-.45.06c-.15.2-.1.6.08.71.22.14.66-.14.7-.45.04-.22.04-.22.21.04l.18.27-.52.17c-.6.2-1.48.15-1.98-.1-.27-.15-.34-.15-.41-.04-.15.23-.04.32.67.57.6.2.76.22 1.26.13.64-.12 1.28-.39 1.28-.54q-.01-.09-.16-.04-.2.09-.04-.09.13-.15.01-.15-.1-.01-.11-.1C8.9 6.18 7.61 4 7.55 4q-.05.02-.19.23m4.14.05c0 .15.37.3.5.21.24-.14.37-.1.16.06-.3.22-.12.29.24.1.18-.1.34-.14.37-.11q.03.05-.1.12c-.28.1-.2.25.1.19.26-.06.26-.05.1.08-.23.19-.22.3.03.22s.26.03.03.22q-.26.18.05.1c.41-.1.18.16-.44.47-1.25.62-1.14.6-1.4.31-.32-.35-.4-.31-.15.09.27.42.26.49-.01.41q-.24-.06-.1.03.16.1.02.17-.13.07-.31-.16-.43-.54-.15-.74.15-.12.16-.19c0-.11-.17-.06-.4.12l-.22.18.34.56.34.57.34-.22c.18-.12.45-.31.58-.44.32-.3.44-.29.78.05a4 4 0 0 0 .56.45c.3.18.3.19.71-.55l.27-.47-.3-.17c-.16-.1-.26-.22-.23-.27.1-.16-.19-.95-.42-1.17-.17-.16-.39-.23-.84-.26-.34-.02-.61 0-.61.04m-.5.06c0 .02.16.14.36.25.2.12.34.24.3.28-.03.03-.21-.04-.41-.16s-.4-.21-.46-.21c-.19 0 .02.2.42.4.21.11.39.25.39.31s-.25-.03-.56-.2-.54-.27-.52-.2.23.24.46.37.42.28.42.34-.2-.02-.44-.16c-.5-.29-.56-.3-.56-.16 0 .06.16.18.35.27.2.1.35.2.35.25q-.02.18-.36-.07t-.34-.07c0 .04.13.15.3.25.27.16.3.16.6 0 .16-.1.3-.23.3-.3q0-.1.09-.15c.05-.01.12-.17.15-.34.06-.28.03-.34-.27-.53-.32-.2-.57-.27-.57-.17m4.57.1c-.69.25-1.08.78-.87 1.17.1.17.23.19 1.66.19h1.54l.12-.25c.23-.52-.53-1.14-1.5-1.21-.35-.03-.72.01-.95.1m.25.13c-.12.02-.2.1-.16.15q.06.1-.13.04c-.22-.07-.57.25-.66.62l-.05.22h1.54c.9 0 1.54-.04 1.54-.1 0-.05-.05-.2-.12-.34-.1-.22-.14-.24-.26-.13q-.18.16-.1-.05c.08-.2-.22-.41-.46-.32q-.15.04-.16-.05c0-.15-.27-.14-.33.01q-.06.15-.06 0c-.01-.12-.15-.13-.59-.05M6.62 5.8q-.35.6.19.3.19-.11.19-.4c0-.4-.1-.38-.38.1m6.28.47c-.2.45-.2.48-.04.6.27.2.32.17.55-.3q.21-.4.1-.45a1 1 0 0 1-.26-.18c-.12-.12-.17-.08-.35.33m1.96-.23q.04.14-.05.2c-.18.12-.12.44.11.6.17.13.5.16 1.49.16 1.1 0 1.28-.02 1.42-.18.33-.37.13-.73-.39-.7a1 1 0 0 0-.42.11q-.14.1-.24-.01c-.13-.13-.38-.16-.38-.04 0 .04.14.15.32.25.28.16.32.16.4.03.12-.2.57-.2.65 0q.04.16-.08.25c-.2.13-1.89.11-1.89-.02 0-.14.26-.39.41-.39q.11 0 .06-.07c-.04-.03-.35-.1-.7-.13q-.64-.06.86-.05a7 7 0 0 0 1.47-.07 8 8 0 0 0-1.55-.08c-1.28 0-1.53.02-1.49.14m.09.36c-.09.15.13.4.35.4q.19.02.12-.25c-.04-.26-.35-.35-.47-.15m-6.1 2.94c-.38.16-.65.68-.65 1.26 0 .75.45 1.3 1.06 1.3.6 0 .64-.05.64-.87v-.74l-.37.03c-.33.03-.38.07-.41.3q-.04.29.12.28.16.02.16.2.02.22-.22.18c-.29-.04-.45-.55-.31-1 .08-.3.13-.33.45-.32.42.01.7-.3.46-.51-.21-.2-.6-.25-.94-.1M20 9.28c-.4.11-.7.65-.7 1.28 0 .6.11.89.44 1.15.24.2.96.24 1.14.06.07-.07.12-.4.12-.8v-.68h-.4c-.38 0-.4.02-.4.3 0 .17.05.3.1.3q.1.02.1.2c0 .26-.26.26-.4 0a1.3 1.3 0 0 1 0-1.01q.11-.21.4-.17c.27.02.6-.16.6-.34 0-.07-.63-.4-.72-.37zM3 9.6c0 .23.04.3.2.3.18 0 .2.08.22.97l.03.98h.6l.03-.97c.02-.9.04-.98.22-.98.16 0 .2-.07.2-.3v-.3H3zm2.02.98.03 1.27.63.03.62.03v-.3c0-.29-.03-.31-.35-.31-.3 0-.35-.03-.35-.25 0-.21.05-.25.3-.25s.3-.04.3-.25-.05-.25-.3-.25c-.23 0-.3-.04-.3-.2s.07-.2.35-.2c.32 0 .35-.02.35-.3v-.3H4.99zm1.92-1.15c-.02.07-.03.65-.02 1.28l.03 1.14h.6l.03-1.27.03-1.28H7.3c-.17 0-.33.06-.36.13m6.08.15c.02.22.08.28.35.3l.33.03-.35.7c-.2.37-.35.82-.35.99v.3h1.4v-.3c0-.28-.03-.3-.35-.3h-.35l.35-.7c.2-.38.35-.83.35-1v-.3h-1.41zm2.02-.15c-.02.07-.03.65-.02 1.28l.03 1.14h.65c.63 0 .65 0 .68-.27.03-.26 0-.28-.32-.28s-.36-.03-.36-.25c0-.21.05-.25.3-.25s.3-.04.3-.25-.05-.25-.3-.25c-.23 0-.3-.04-.3-.2s.07-.2.3-.2c.27 0 .3-.03.3-.3v-.3h-.6q-.6 0-.66.13m1.9.02a5 5 0 0 0-.02 1.05c.04.77.07.93.28 1.15.23.25.68.33 1.05.19.32-.12.45-.6.45-1.58V9.3h-.6v.88c0 .93-.08 1.19-.34 1.09-.13-.05-.16-.24-.16-1.02V9.3h-.3q-.29 0-.37.15m-5.83.4a.6.6 0 0 0-.09.37 1 1 0 0 1-.09.45q-.4.78.76.8c.56 0 .59-.02.37-.3-.12-.17-.12-.23.03-.45l.17-.25-.33.06c-.3.06-.32.05-.18-.09.3-.3.13-.74-.3-.74a.5.5 0 0 0-.34.14m-5.03 3.02c-.1.11-.08.84.03.84q.1-.01.1-.14.01-.14.16-.2c.2-.08.15-.5-.06-.54-.09-.01-.2 0-.23.04m1.03.04q0 .1.1.1c.05 0 .02.16-.06.35L7 13.7l.27-.01q.24 0 .11-.06c-.15-.04-.15-.08-.02-.38.18-.44.18-.45-.06-.45q-.18 0-.2.1m.55 0q-.04.1.1.1c.14 0 .14.03 0 .3-.2.38-.2.4.08.4q.23 0 .09-.09c-.12-.07-.11-.14.02-.38.08-.17.12-.33.09-.37-.1-.1-.31-.07-.38.04m.66.2c-.06.18-.11.4-.11.48 0 .12.02.12.17 0 .13-.1.17-.1.2 0q.05.1.13.12c.1 0-.07-.7-.2-.83-.04-.05-.13.06-.19.24m1.29.16c0 .4.02.44.23.41.18-.02.22-.1.22-.36 0-.33-.08-.45-.32-.48q-.13-.03-.13.43m.72-.06c-.02.49.14.69.37.46.14-.14.15-.9.01-.82-.05.03-.1.22-.1.4 0 .5-.18.43-.23-.07l-.04-.43zm.75-.34c-.1.1-.08.83.02.83q.1-.02.14-.17.05-.26.06 0c.02.33.17.17.18-.2.01-.42-.2-.66-.4-.46m.75.05c-.27.27-.02 1.02.28.83.13-.08.13-.55 0-.55q-.1.01-.05.21.08.22-.06.17c-.24-.08-.23-.49 0-.55q.18-.06.15-.14-.1-.18-.32.03m.65-.05c-.04.03-.07.24-.07.45 0 .33.03.38.22.38q.27.01.08-.1c-.13-.09-.13-.11 0-.2s.13-.11 0-.2q-.17-.12-.02-.17.1-.05.12-.14c0-.1-.23-.12-.33-.02m.61.37c-.02.26 0 .46.04.46q.08-.02.08-.17-.02-.22.14.03c.14.17.15.15.13-.26-.01-.33-.06-.46-.18-.48-.13-.02-.18.07-.2.42m1.08-.37c-.13.23-.17.67-.07.78.16.2.45.07.46-.2q.03-.26-.15-.17-.2.09-.03-.1.12-.17.07-.28c-.07-.12-.22-.13-.28-.03m1-.01c-.1.1-.09.84.03.84q.08-.02.04-.17c-.05-.17-.05-.17.09 0q.14.16.2.17.06-.02.08-.17 0-.23.09.02.09.24.1-.28 0-.8-.21-.2l-.1.28-.12-.28q-.12-.25-.2-.21m.93.39c0 .4.02.45.22.44q.26 0 .05-.06c-.2-.05-.22-.19-.05-.27q.15-.06 0-.12c-.17-.08-.15-.24.04-.24q.13 0 .09-.1c-.03-.06-.13-.1-.2-.1-.11 0-.15.12-.15.45m.62 0c0 .4.01.45.08.28q.09-.21.15-.23.06.02.15.22c.07.18.09.12.08-.27 0-.27-.03-.4-.05-.27-.02.12-.1.22-.18.22s-.16-.1-.18-.22c-.02-.13-.05 0-.05.27m.8.03c0 .26.02.39.05.29.05-.18.05-.18.2 0 .14.17.14.17.1-.03a.6.6 0 0 1 .04-.35c.1-.15-.07-.39-.27-.39-.1 0-.14.13-.13.47"/></svg>