<?xml version="1.0" encoding="UTF-8" standalone="no"?>
<svg
   viewBox="0 0 24 24"
   width="24pt"
   height="24pt"
   version="1.1"
   id="svg1"
   sodipodi:docname="tenpin.svg"
   xml:space="preserve"
   inkscape:version="1.3 (0e150ed6c4, 2023-07-21)"
   xmlns:inkscape="http://www.inkscape.org/namespaces/inkscape"
   xmlns:sodipodi="http://sodipodi.sourceforge.net/DTD/sodipodi-0.dtd"
   xmlns="http://www.w3.org/2000/svg"
   xmlns:svg="http://www.w3.org/2000/svg"><defs
     id="defs1" /><sodipodi:namedview
     id="namedview1"
     pagecolor="#ffffff"
     bordercolor="#000000"
     borderopacity="0.25"
     inkscape:showpageshadow="2"
     inkscape:pageopacity="0.0"
     inkscape:pagecheckerboard="0"
     inkscape:deskcolor="#d1d1d1"
     inkscape:document-units="pt"
     inkscape:zoom="11.546875"
     inkscape:cx="7.4479026"
     inkscape:cy="15.285521"
     inkscape:window-width="1920"
     inkscape:window-height="974"
     inkscape:window-x="-11"
     inkscape:window-y="1609"
     inkscape:window-maximized="1"
     inkscape:current-layer="svg1" /><g
     transform="matrix(0.00446549,0,0,-0.00446549,4.1860566,13.981056)"
     fill="#000000"
     stroke="none"
     id="g7"
     style="fill:#ffffff"><path
       d="M 10,992 V 543 L 40,482 C 88,386 169,328 274,314 l 46,-7 v 52 c 0,45 -3,51 -20,51 -32,0 -92,28 -124,58 -60,57 -66,84 -66,335 v 227 h 155 155 v 50 50 H 265 110 v 155 155 H 60 10 Z"
       id="path1-8"
       style="fill:#ffffff" /><path
       d="m 2630,1295 v -45 h 55 55 v 45 45 h -55 -55 z"
       id="path2"
       style="fill:#ffffff" /><path
       d="M 673,1116 C 573,1084 511,1029 470,938 453,901 450,871 450,719 V 543 l 30,-61 c 53,-104 140,-161 260,-169 124,-9 241,60 296,174 22,44 25,56 14,63 -21,13 -84,23 -87,13 -14,-38 -55,-92 -90,-116 -76,-54 -178,-47 -250,16 -52,46 -73,98 -73,185 v 72 h 261 262 l -5,88 c -6,102 -28,159 -83,220 -73,81 -213,121 -312,88 z m 176,-112 c 61,-31 100,-82 108,-143 l 6,-41 H 756 550 v 26 c 0,62 67,145 136,169 59,21 104,18 163,-11 z"
       id="path3"
       style="fill:#ffffff" /><path
       d="m 1395,1117 c -90,-30 -153,-83 -196,-167 -23,-44 -24,-52 -27,-342 l -3,-298 h 50 50 l 3,283 c 3,280 3,282 28,327 89,159 331,131 379,-45 7,-24 11,-144 11,-302 V 310 h 50 50 v 279 c 0,235 -3,287 -17,331 -23,71 -96,150 -165,180 -64,27 -158,35 -213,17 z"
       id="path4"
       style="fill:#ffffff" /><path
       d="m 2114,1114 c -81,-25 -143,-79 -184,-158 l -35,-69 -3,-443 -3,-444 h 55 56 v 154 154 l 143,4 c 171,4 221,22 291,99 62,69 78,120 83,269 7,185 -12,265 -83,348 -71,84 -208,120 -320,86 z m 186,-109 c 32,-17 73,-62 94,-102 13,-25 16,-64 16,-182 0,-82 -4,-161 -9,-174 -16,-40 -73,-99 -116,-118 -32,-15 -66,-19 -162,-19 h -123 v 230 c 0,255 4,272 68,333 56,53 163,68 232,32 z"
       id="path5"
       style="fill:#ffffff" /><path
       d="m 2637,1123 c -4,-3 -7,-188 -7,-410 V 310 h 55 55 v 410 410 h -48 c -27,0 -52,-3 -55,-7 z"
       id="path6"
       style="fill:#ffffff" /><path
       d="m 3110,1116 c -90,-24 -163,-87 -204,-175 -20,-43 -21,-66 -24,-338 l -3,-293 h 55 56 v 279 c 0,173 4,290 11,308 12,33 64,90 99,108 74,38 181,21 237,-37 60,-62 63,-79 63,-383 V 310 h 50 50 v 294 294 l -33,63 c -67,130 -214,194 -357,155 z"
       id="path7"
       style="fill:#ffffff" /></g></svg>
