<svg xmlns="http://www.w3.org/2000/svg" width="24" height="24"><path fill="#795c29" fill-rule="evenodd" d="M10.45 2.16a7.2 7.2 0 0 0-5.1 4.44c-.08.24-.13.45-.11.47s.3.01.64-.03l.6-.06.28-.62a6.5 6.5 0 0 1 2.53-2.5A5.8 5.8 0 0 1 16 4.9l.59.59.6-.07c.34-.03.6-.1.6-.17 0-.19-.92-1.24-1.45-1.67a6.7 6.7 0 0 0-4.14-1.55 7 7 0 0 0-1.76.12m.36 2.7c-.45.42-.81.8-.81.83s.2.05.45.03c.42-.04.45-.02.62.32.09.2.2.36.23.36.07 0 .42-2.21.36-2.28-.03-.02-.4.31-.85.73m-.45-.22.19.35.2-.17c.16-.19.16-.2-.14-.35-.42-.22-.44-.2-.25.17m1.3.44-.06.25q-.02.19.28.18.7-.02.17-.32c-.18-.09-.36-.14-.39-.1m5.29.76c-.17.07-.43.28-.58.45-.22.26-.27.43-.27.85 0 .78.27 1.12 1.23 1.59.88.43 1.14.75.83 1.05-.16.16-.18.16-.37-.07-.1-.13-.19-.3-.19-.38 0-.13-.08-.14-.43-.08-.83.15-.74.24-1.38-1.43a20 20 0 0 0-.63-1.59 6 6 0 0 0-1.43.2c-.03.03-.1.97-.18 2.09l-.14 2.08c0 .03-.21-.32-.46-.77L12.5 9l.3-1.41c.17-.77.3-1.47.3-1.54 0-.1-.1-.13-.42-.09-.84.11-.83.1-.97 1.22-.07.56-.16 1.01-.2 1.01s-.2-.3-.38-.68l-.3-.69-3.19.45-3.2.46c-.01 0 0 .23.03.5l.06.48.43-.04c.24-.02.44 0 .44.02.01.22.6 3.74.63 3.77s.28 0 .56-.03c.38-.05.5-.1.5-.23 0-.09-.1-.88-.24-1.76-.33-2.11-.33-2.05.09-2.05.4 0 .34-.19.67 2.22.16 1.15.26 1.58.36 1.58l1.15-.15a7 7 0 0 1 1.04-.12c.02.02 0 .3-.07.61-.06.32-.09.6-.07.6a4 4 0 0 0 1.38-.27c0-.24.32-2.72.36-2.76.02-.02.19.3.37.71l.35.75.93-.14c.52-.07 1-.15 1.07-.18q.11-.06.12-.49c0-.47.1-.56.6-.56.25 0 .29.05.4.46l.1.45.48-.06c.68-.1.75-.13.7-.35-.06-.18-.04-.19.23-.05.7.37 1.88.03 2.15-.62.2-.47.14-1.25-.13-1.61-.1-.15-.55-.46-.98-.68-.77-.4-1.01-.68-.85-.93.11-.19.44-.09.48.14.02.11.07.24.11.28.08.08.8 0 1-.12.17-.11-.07-.8-.4-1.13-.23-.23-.36-.28-.76-.28-.26 0-.62.07-.79.14m-2.33 2.6c-.01.86 0 .87.22.8l.25-.1c.02 0-.08-.38-.21-.8l-.25-.79zm-5.39-.38c-.4.07-.74.14-.76.16s-.02.24.01.47l.06.43.4-.06.58-.11c.13-.04.18.06.24.42.08.53 0 .64-.5.64-.48 0-.56.1-.49.64q.06.48.2.42c.07-.03.4-.08.72-.12.33-.03.64-.1.69-.13s.17-.4.25-.8l.17-.75-.36-.63a5 5 0 0 0-.41-.66c-.04-.02-.4.02-.8.08m9.88 3 .1.32.1.28-.23-.28c-.12-.15-.3-.27-.4-.27-.14 0-.16.05-.1.28.04.15.07.37.06.5-.01.24.04.27.26.13q.14-.08.02-.15c-.06-.04-.1-.15-.1-.24q-.02-.2.22.1c.34.42.46.36.44-.22-.02-.4-.05-.5-.2-.5q-.16 0-.17.04m-1.52.23c-.14.03-.15.1-.06.34.05.16.07.36.04.45-.05.12 0 .15.26.12.17-.02.33-.08.35-.15q.04-.11-.16-.06-.2.04-.21-.06.02-.1.15-.11.15 0 .15-.3c0-.3-.1-.35-.52-.23m-.75.1a.2.2 0 0 0-.13.18q-.01.14-.11.2-.12.07-.04-.14c.05-.17.02-.21-.15-.21-.18 0-.2.04-.13.22.04.13.07.35.07.5q-.02.3.18.28.21.02.13-.22-.1-.31.08-.05c.13.16.47.24.47.11 0-.03-.1-.14-.22-.24-.22-.18-.22-.19-.05-.38.18-.2.13-.33-.1-.25m-1.42.22c-.14.1-.18.62-.06.8.08.14.52.14.6.01q.04-.1-.2-.1c-.21 0-.25-.04-.25-.3 0-.27.03-.3.21-.25q.23.08.17-.06c-.06-.17-.28-.22-.47-.1m-.91.26c.07.08.1.28.08.45-.04.27-.02.3.2.3q.29 0 .14-.12c-.07-.07-.12-.27-.12-.45 0-.27-.04-.33-.21-.33-.18 0-.2.02-.1.15m-1.22.03q-.21.03-.06.18c.06.07.1.27.07.44-.04.24-.01.3.14.3q.21.01.13-.2-.09-.22.15-.2c.16 0 .2.04.15.2q-.09.2.14.13c.17-.04.19-.09.1-.25a1 1 0 0 1-.06-.44c.03-.19 0-.24-.15-.24q-.21-.01-.13.2.07.2-.09.2-.13-.02-.18-.18t-.21-.14m-1 .19c-.09.08-.09.46 0 .67.06.17.63.23.63.06q-.02-.09-.22-.07c-.24.02-.35-.21-.24-.5q.06-.18.21-.03.16.16.15-.04c0-.16-.4-.23-.53-.1m4.74.55c-.45.08-.63.18-1.1.62a7 7 0 0 1-2.61 1.42c-.87.23-2.4.16-3.27-.15a7 7 0 0 1-2.17-1.33c-.4-.37-.56-.4-1.41-.17l-.3.08.9.88a6.3 6.3 0 0 0 3.25 1.85 7.3 7.3 0 0 0 4.7-.5q1.65-.85 2.69-2.34c.37-.54.38-.53-.68-.36"/></svg>