<svg xmlns="http://www.w3.org/2000/svg" width="24" height="24"><path fill="#dbdfe2" fill-rule="evenodd" d="M4.9 9v7h14.2V2H4.9zm.1-.57c0 7.05-.03 6.76.69 7.24l.34.23H19l-.02-6.44c-.03-6.34-.03-6.45-.24-6.73-.48-.65-.22-.63-7.31-.63H5zm2.5-5.04c0 .24-.03.28-.24.24-.14-.03-.27-.14-.3-.26-.05-.19-.07-.19-.28-.05-.2.14-.23.25-.26.98-.02.52.01.87.09.96.15.19.73.18.9-.02.11-.14.13-.14.21 0 .05.09.2.16.34.16.23 0 .24-.03.24-.6 0-.58.01-.61.23-.58.19.03.23.1.27.58.05.51.07.55.33.58l.27.03v-.7c0-.88-.2-1.17-.76-1.08-.28.05-.34.03-.34-.12 0-.24-.2-.41-.47-.41-.19 0-.23.05-.23.29m2.25.45q-.48.5-.25 1.07c.13.3.54.59.84.59s.66-.23.66-.42c0-.15-.08-.18-.47-.18-.54 0-.52-.1.03-.15.43-.04.67-.29.58-.6-.16-.56-.96-.74-1.39-.3m-2.52.29q-.24.1-.23.43c0 .29.03.33.25.33.23 0 .25-.04.25-.45 0-.25-.01-.44-.02-.44zm2.3 1.68q-.26.28.03.46c.15.08.15.1 0 .15a.5.5 0 0 1-.37-.04.6.6 0 0 0-.4-.04c-.38.13-.49.34-.49 1 0 .53.03.66.2.75.34.18.4.12.4-.48q0-.9.36-.75.14.05.14.5c0 .7.63 1.1.94.6.09-.14.07-.2-.06-.31s-.18-.27-.18-.6-.05-.48-.15-.53c-.14-.05-.14-.08.02-.25.13-.15.15-.23.07-.36-.14-.22-.36-.26-.52-.1m2.9 0q-.25.28.04.46c.15.08.15.1 0 .15-.19.07-.23.98-.06 1.41.12.32.54.44.78.23.15-.13.19-.13.3 0q.43.44.52-.52c.04-.47.09-.6.23-.63s.17.04.17.47c0 .53.2.84.49.79.12-.02.17-.17.2-.58.04-.78-.04-1-.44-1.16-.7-.29-1.35.12-1.35.87 0 .3-.03.37-.15.33Q13 7.6 13 7.09c0-.36-.04-.51-.15-.56-.14-.05-.14-.08.02-.25.13-.15.15-.23.07-.36-.14-.22-.36-.26-.52-.1M17 6.83c0 .88.03 1.06.18 1.2.34.3.82.16.82-.25q0-.17-.2-.18c-.18 0-.2-.07-.2-.78 0-.8-.09-1.02-.42-1.02-.16 0-.18.1-.18 1.03M6.93 6.41c-.64.18-.82 1.01-.34 1.5.6.6 1.52.24 1.55-.59.01-.68-.54-1.1-1.21-.9m4.1-.05c-.32.06-.63.5-.63.89 0 .41.41.78.82.72q.49-.08.09.12-.2.1-.46 0c-.36-.14-.47.16-.16.42.32.25.84.23 1.17-.06.26-.22.28-.28.26-.97-.02-.55-.07-.78-.2-.9-.2-.2-.56-.29-.9-.22m4.73 0q-.44.12-.45.43c0 .15.07.17.43.14l.42-.05-.39.15c-.21.08-.43.2-.47.28-.27.41.1.88.71.88.57 0 .8-.26.8-.89 0-.71-.42-1.08-1.05-.94m-8.68.6c-.13.12-.07.6.07.66.2.08.38-.17.34-.45-.03-.22-.27-.35-.41-.22m4 .1q-.13.33.24.34.22.01.17-.22c-.04-.27-.33-.36-.42-.13m-4.5 1.83c-.14.16-.16.35-.14 1.13l.03.94.28.03c.26.03.27.02.27-.47 0-.27.05-.53.11-.57.07-.04.37-.08.68-.1.52-.03.54-.03.21.07-.48.15-.6.27-.6.59 0 .35.19.5.69.57.33.05.44.01.65-.2.47-.47.3-1.4-.26-1.55-.33-.09-.87 0-.97.17-.08.1-.51-.05-.51-.19 0-.05.12-.1.26-.1.2 0 .25-.04.22-.22-.04-.32-.66-.38-.91-.1m4.19.24a1 1 0 0 0-.16.37q.01.18-.13-.02c-.07-.1-.27-.18-.51-.19-.5-.02-.86.35-.86.87 0 .47.08.64.4.8.42.22.68.18.95-.11q.23-.24.25-.16c0 .2.46.43.74.36.33-.08.38-.54.06-.54-.16 0-.2-.07-.2-.35s.04-.35.19-.35c.17 0 .31-.18.31-.4q-.02-.1-.25-.1-.26.01-.25-.2c0-.28-.35-.26-.54.02m1.5.25c-.72.38-.59 1.5.19 1.69.61.15 1.15-.24 1.15-.85 0-.73-.7-1.17-1.34-.84m1.84-.04c-.23.12-.25.18-.25.87 0 .74 0 .75.28.78.27.03.27.03.27-.57 0-.58.01-.61.25-.61q.25 0 .26-.18c0-.1.06.01.13.23s.2.55.3.73q.29.53-.15.52c-.23 0-.26.35-.03.44.48.18.83-.13 1.3-1.18.3-.71.29-1-.06-1.04-.23-.03-.27.02-.39.45-.14.52-.11.54-.42-.25-.07-.19-.16-.23-.46-.22-.21.01-.47-.01-.58-.04a.7.7 0 0 0-.45.07m-4.3.63c-.21.24 0 .49.44.5.34.01.36 0 .36-.3 0-.29-.03-.32-.34-.34q-.32-.02-.47.14m2.66.04c-.06.2.1.6.24.6.18 0 .33-.3.27-.55-.08-.3-.42-.34-.5-.05m-4.5 1.47a6 6 0 0 0-.06 1.08c0 1.07.07 1.25.47 1.25.2 0 .22-.05.25-.62.02-.48.07-.63.18-.63q.15-.02.21.51c.08.64.14.74.45.74.23 0 .24-.02.24-.7 0-.86-.2-1.14-.76-1.08-.27.03-.34 0-.34-.13 0-.32-.44-.61-.63-.42m6.08.03c-.03.05-.2.1-.36.1-.24 0-.29.04-.29.25q0 .25.3.4c.3.15.3.15.5-.17.24-.4.24-.42.06-.57q-.14-.12-.2-.01m-7.56.7a.7.7 0 0 0-.2.4c0 .24.26.5.5.5.1 0 .22.05.26.12q.08.12-.34.05-.61-.09-.34.3c.28.44 1.25.29 1.38-.22.07-.3-.18-.65-.47-.65-.1 0-.21-.05-.25-.12q-.09-.12.3-.05.61.12.3-.31c-.2-.3-.86-.3-1.14-.02m3.6.1c-.62.6-.22 1.5.65 1.5s1.27-.9.66-1.5c-.4-.41-.91-.41-1.32 0m2.1-.17c-.29.22-.39.55-.39 1.25 0 .74.12.97.47.9q.18-.03.18-.3c0-.22.03-.25.2-.18.25.09.44.03.72-.23.35-.31.33-1.08-.03-1.36-.3-.23-.9-.28-1.15-.08m-1.65.5c-.1.3 0 .62.21.62.16 0 .2-.07.2-.35q0-.36-.18-.38t-.23.12m2 0c-.1.29 0 .61.21.61.16 0 .2-.07.2-.35q0-.36-.18-.38t-.23.12M10.6 14.5q-4.2.14-4.2.32.02.1 1.68.03c2.97-.11 5.45-.25 5.5-.3.03-.03-.09-.05-.26-.05a40 40 0 0 0-2.72 0"/></svg>