<?xml version="1.0" encoding="UTF-8" standalone="no"?>
<svg
   viewBox="0 0 24 24"
   width="24pt"
   height="24pt"
   version="1.1"
   id="svg3716"
   xml:space="preserve"
   xmlns="http://www.w3.org/2000/svg"
   xmlns:svg="http://www.w3.org/2000/svg"><defs
     id="defs3720" /><g
     transform="matrix(0.00910687,0,0,-0.00910687,-22.802877,-3.4294722)"
     fill="#000000"
     stroke="none"
     id="g4003"><g
       transform="matrix(0.30600684,0,0,0.30600684,2575.8553,-1944.9109)"
       fill="#000000"
       stroke="none"
       id="g5667"
       style="fill:#ece5da;fill-opacity:1"><path
         d="m 7114,1851 c -51,-57 -124,-98 -207,-115 l -62,-13 -3,-83 -3,-82 38,6 c 51,10 131,47 168,79 40,33 79,106 100,186 9,35 15,64 13,66 -2,1 -22,-18 -44,-44 z"
         id="path5589"
         style="fill:#e56407;fill-opacity:1" /><path
         d="m 5342,1730 c -75,-11 -145,-32 -188,-59 -34,-21 -86,-85 -61,-75 26,10 27,-12 2,-26 -49,-26 -26,-135 39,-185 40,-30 149,-68 154,-54 3,6 9,5 17,-1 7,-6 46,-17 86,-26 77,-16 124,-38 114,-54 -3,-5 3,-14 13,-19 15,-8 27,-5 53,14 28,21 44,25 105,25 40,0 75,4 78,9 3,4 19,11 36,14 41,9 39,37 -6,87 -44,48 -103,72 -253,98 -62,12 -119,26 -127,33 -20,17 -17,36 9,51 29,17 223,13 300,-5 l 57,-14 v 33 c 0,31 -2,33 -24,24 -26,-9 -36,-5 -36,17 0,8 12,13 30,13 29,0 30,2 30,44 v 43 l -52,7 c -94,12 -311,15 -376,6 z m 318,-50 c 0,-5 -5,-10 -11,-10 -5,0 -7,5 -4,10 3,6 8,10 11,10 2,0 4,-4 4,-10 z m -492,-68 c -6,-7 -14,-9 -17,-5 -4,4 -10,11 -15,16 -5,4 2,6 17,5 20,-2 24,-5 15,-16 z m 22,-17 c 0,-7 -83,-46 -88,-41 -2,3 13,14 35,25 39,20 53,25 53,16 z m 497,-1 c -3,-3 -12,-4 -19,-1 -8,3 -5,6 6,6 11,1 17,-2 13,-5 z m -455,-136 c -8,-8 -9,-4 -5,13 4,13 8,18 11,10 2,-7 -1,-18 -6,-23 z m -32,-62 c 0,-9 -8,-12 -27,-8 -25,5 -25,6 -8,13 29,11 35,10 35,-5 z"
         id="path5591"
         style="fill:#ece5da;fill-opacity:1" /><path
         d="m 1114,1716 c -7,-7 -11,-39 -10,-72 1,-57 2,-59 28,-60 15,-1 34,-6 42,-13 11,-9 19,-7 39,11 28,25 40,65 19,60 -8,-1 -11,2 -7,8 8,12 16,12 34,1 12,-8 12,-12 2,-25 -16,-19 -1,-22 18,-3 11,10 13,9 9,-2 -2,-8 -18,-22 -36,-31 -17,-10 -39,-23 -47,-30 -11,-9 -19,-9 -28,-2 -10,9 -47,10 -77,3 -2,0 4,-7 15,-15 14,-10 54,-14 137,-14 65,0 122,-3 128,-7 6,-4 10,-50 10,-111 0,-70 4,-104 11,-104 8,0 8,-4 0,-14 -8,-9 -11,-45 -9,-101 l 3,-87 48,37 c 28,22 46,43 43,50 -7,20 17,36 65,40 23,3 56,13 73,23 17,10 44,22 59,26 l 27,6 v 120 120 l 48,2 c 26,0 61,0 77,0 17,-1 24,1 18,4 -21,9 -15,34 8,34 11,0 29,5 41,11 32,17 36,-1 5,-27 l -28,-24 h 55 c 56,0 56,0 56,30 0,20 -5,30 -15,30 -8,0 -15,5 -15,11 0,5 -4,8 -9,4 -5,-3 -12,-1 -16,5 -4,6 7,13 24,16 30,6 31,9 31,55 v 49 h -432 c -344,-1 -435,-3 -444,-14 z m 61,-6 c -3,-5 -14,-10 -23,-9 -14,0 -13,2 3,9 27,11 27,11 20,0 z m 140,-30 c 3,-6 -1,-7 -9,-4 -18,7 -21,14 -7,14 6,0 13,-4 16,-10 z m 455,-40 c -8,-5 -24,-9 -35,-9 h -20 l 20,9 c 11,5 27,9 35,9 13,1 13,0 0,-9 z m -330,-70 c -8,-5 -19,-10 -25,-10 -5,0 -3,5 5,10 8,5 20,10 25,10 6,0 3,-5 -5,-10 z m 211,-250 c 5,0 0,-10 -11,-22 -22,-24 -60,-33 -60,-15 0,17 34,46 48,41 8,-2 18,-4 23,-4 z m -101,-51 c 0,-5 5,-7 10,-4 6,3 10,2 10,-3 0,-5 -9,-12 -20,-15 -15,-4 -20,0 -20,14 0,10 5,19 10,19 6,0 10,-5 10,-11 z"
         id="path5593"
         style="fill:#ece5da;fill-opacity:1" /><path
         d="m 2070,1717 c 0,-16 36,-19 48,-4 8,9 2,13 -19,14 -18,1 -29,-3 -29,-10 z"
         id="path5595"
         style="fill:#ece5da;fill-opacity:1" /><path
         d="m 2143,1711 c 3,-14 0,-17 -13,-14 -12,3 -23,-3 -30,-17 -8,-15 -15,-18 -24,-11 -9,7 -12,4 -13,-11 -1,-12 5,-22 18,-25 10,-3 19,-12 19,-19 0,-8 7,-14 15,-14 8,0 15,5 15,11 0,5 5,7 12,3 8,-5 5,-11 -7,-20 -10,-8 -16,-16 -13,-19 3,-3 11,1 18,10 7,8 18,15 26,15 7,0 16,9 19,20 3,11 10,20 15,20 13,0 -22,-58 -41,-67 -8,-4 -34,-29 -57,-54 l -42,-47 2,-208 3,-209 75,-1 c 65,0 158,12 108,15 -10,1 -21,1 -25,0 -4,0 -10,8 -14,18 -7,19 24,49 40,38 5,-3 12,-1 16,4 3,6 13,7 22,4 11,-4 14,-3 9,5 -4,7 -1,12 8,12 10,0 13,-6 10,-15 -4,-9 0,-15 10,-15 9,0 16,-5 16,-11 0,-5 -3,-8 -8,-5 -10,6 -47,-22 -39,-30 3,-4 14,-3 24,0 10,4 18,6 18,5 0,-1 11,3 24,10 19,10 21,15 10,22 -8,5 -9,9 -3,9 6,0 11,14 12,30 0,17 -3,28 -7,26 -4,-3 -13,-1 -21,5 -12,7 -11,9 5,9 17,0 20,8 23,48 1,26 9,52 17,58 11,8 12,13 3,22 -9,9 -9,12 1,12 7,0 9,5 6,10 -3,6 -1,10 4,10 6,0 10,3 10,8 -3,18 2,32 11,32 6,0 10,-7 10,-15 0,-8 7,-15 15,-15 8,0 15,-4 15,-10 0,-5 -6,-7 -13,-4 -9,3 -13,-3 -13,-18 1,-21 6,-23 76,-28 l 75,-5 3,-122 3,-122 82,1 c 76,1 86,4 135,36 31,20 51,40 50,50 -2,8 3,17 10,19 8,3 10,-1 6,-12 -6,-15 -4,-15 15,-4 20,13 21,21 21,165 v 151 l -25,-5 c -16,-3 -25,0 -25,9 0,10 -3,10 -12,1 -7,-7 -26,-12 -42,-12 -23,0 -27,3 -16,9 8,6 18,7 24,4 5,-3 6,-2 3,3 -8,14 4,27 37,42 18,8 32,9 40,3 8,-7 12,8 14,60 3,62 1,68 -15,63 -17,-5 -17,-5 0,9 10,9 17,28 17,51 0,33 -2,36 -29,36 -18,0 -41,-10 -58,-25 -24,-22 -25,-25 -8,-22 11,2 19,9 17,15 -1,7 5,12 13,12 16,0 20,-12 8,-24 -5,-4 -8,-12 -8,-18 0,-6 -10,-14 -22,-19 -18,-6 -23,-5 -23,8 0,12 -7,14 -28,10 -15,-3 -34,-2 -42,4 -12,7 -12,9 3,9 10,0 16,4 12,9 -3,5 -1,12 5,16 25,16 -7,25 -80,22 l -79,-2 -3,-115 -3,-115 h -105 -105 l -3,118 -3,117 h -120 c -114,0 -121,-1 -116,-19 z m 117,-25 c 0,-3 -4,-8 -10,-11 -5,-3 -10,-1 -10,4 0,6 5,11 10,11 6,0 10,-2 10,-4 z m -85,-36 c -3,-5 -12,-7 -20,-3 -21,7 -19,13 6,13 11,0 18,-4 14,-10 z m 530,-9 c 3,-5 1,-12 -5,-16 -5,-3 -10,1 -10,9 0,18 6,21 15,7 z m -385,-35 c 0,-2 -7,-7 -16,-10 -8,-3 -12,-2 -9,4 6,10 25,14 25,6 z m 445,-56 c 3,-5 -1,-10 -9,-10 -9,0 -16,5 -16,10 0,6 4,10 9,10 6,0 13,-4 16,-10 z m -422,-117 c 3,-5 -1,-14 -9,-20 -8,-8 -15,-9 -19,-3 -3,6 -1,10 5,10 6,0 8,5 5,10 -3,6 -2,10 4,10 5,0 12,-3 14,-7 z m 67,-18 c 16,-19 10,-19 -26,0 -25,13 -26,15 -8,15 12,0 27,-7 34,-15 z m -213,-16 c 2,-16 -1,-19 -9,-11 -5,5 -7,15 -4,21 10,15 12,14 13,-10 z m 503,-29 c 0,-5 -2,-10 -4,-10 -2,0 -12,-3 -20,-6 -12,-5 -15,-2 -10,10 7,17 34,22 34,6 z m -546,-26 c 3,-8 2,-12 -4,-9 -6,3 -10,10 -10,16 0,14 7,11 14,-7 z m 199,-21 c -7,-2 -19,-2 -25,0 -7,3 -2,5 12,5 14,0 19,-2 13,-5 z m 387,-2 c 0,-14 -18,-23 -30,-16 -6,4 -8,11 -5,16 8,12 35,12 35,0 z m -387,-18 c -7,-2 -19,-2 -25,0 -7,3 -2,5 12,5 14,0 19,-2 13,-5 z m 427,-23 c 10,-10 15,-22 11,-25 -5,-2 -12,2 -15,11 -4,9 -13,14 -21,10 -9,-3 -15,0 -15,9 0,21 16,19 40,-5 z m 66,-54 c 10,-8 16,-18 12,-22 -10,-9 -58,12 -58,26 0,14 23,12 46,-4 z m -162,-36 c -9,-16 -23,-30 -32,-30 -16,1 -16,2 0,14 10,7 15,16 11,20 -4,4 -1,11 7,16 26,16 29,11 14,-20 z m 106,20 c 0,-5 -2,-10 -4,-10 -3,0 -8,5 -11,10 -3,6 -1,10 4,10 6,0 11,-4 11,-10 z m 50,-45 c -9,-11 -10,-18 -1,-29 9,-10 8,-15 -4,-20 -8,-3 -15,-1 -15,4 0,6 -8,10 -17,10 -15,0 -14,2 3,16 16,13 16,15 2,10 -11,-3 -18,0 -18,9 0,7 12,15 28,17 35,4 38,2 22,-17 z m -490,-5 c 0,-13 -20,-13 -40,0 -12,8 -9,10 13,10 15,0 27,-4 27,-10 z m -155,-50 c -20,-22 -44,-28 -26,-7 6,8 8,17 4,20 -3,4 4,7 17,7 22,0 23,-1 5,-20 z m 490,0 c -3,-5 -14,-10 -23,-10 -15,0 -15,2 -2,10 20,13 33,13 25,0 z m 25,-24 c 0,-3 -4,-8 -10,-11 -5,-3 -10,-1 -10,4 0,6 5,11 10,11 6,0 10,-2 10,-4 z"
         id="path5597"
         style="fill:#ece5da;fill-opacity:1" /><path
         d="m 3030,1706 c 0,-14 5,-28 10,-31 6,-3 10,5 10,19 0,14 -4,28 -10,31 -6,3 -10,-5 -10,-19 z"
         id="path5599"
         style="fill:#ece5da;fill-opacity:1" /><path
         d="m 3063,1708 c 1,-10 5,-18 9,-18 4,0 5,-7 2,-15 -5,-11 3,-17 25,-21 17,-4 31,-13 31,-20 0,-8 8,-14 18,-14 13,0 14,2 4,9 -10,6 -10,11 3,21 15,12 16,11 13,-16 -2,-20 -8,-28 -18,-25 -8,3 -35,5 -60,5 -25,0 -37,2 -27,4 21,4 13,22 -11,22 -14,0 -17,-11 -19,-60 -2,-41 1,-60 9,-60 9,0 9,-3 0,-12 -9,-9 -12,-74 -12,-233 v -221 l 150,-3 c 141,-3 174,3 139,25 -20,12 7,27 29,15 30,-16 45,-14 38,6 -4,9 -1,20 6,25 10,6 10,8 1,8 -7,0 -13,8 -13,18 0,14 2,15 10,2 5,-8 10,-10 10,-5 0,6 5,3 11,-5 8,-11 12,-12 16,-2 7,17 20,15 20,-3 0,-8 -9,-15 -21,-15 -17,0 -18,-2 -6,-9 8,-6 18,-7 22,-5 4,3 8,-2 8,-10 0,-9 -4,-16 -10,-16 -5,0 -10,-5 -10,-11 0,-5 4,-8 9,-4 5,3 13,0 17,-7 5,-8 10,-4 15,10 8,21 8,21 51,3 29,-12 74,-18 141,-20 l 97,-3 v 86 86 h -210 -210 v 41 c 0,24 -4,38 -10,34 -13,-8 -52,14 -45,26 9,14 37,11 30,-3 -4,-7 -1,-6 7,3 18,22 78,33 78,14 0,-7 -8,-16 -17,-18 -10,-3 13,-5 50,-6 47,-1 66,2 61,10 -5,8 -1,8 14,0 11,-6 66,-11 122,-11 h 100 l -2,74 c -1,74 -2,74 -31,80 -16,3 -104,6 -194,6 h -165 l 4,49 c 1,27 1,49 -2,49 -29,-2 -50,4 -45,13 4,6 9,8 12,5 3,-2 15,-1 28,4 18,7 24,5 28,-10 4,-16 14,-19 68,-19 35,1 71,5 81,10 10,5 18,6 18,2 0,-13 62,-14 77,-2 9,8 13,8 13,0 0,-7 24,-11 65,-11 h 66 l -3,83 -3,82 -75,3 c -52,1 -70,-1 -60,-8 13,-8 13,-10 -2,-10 -9,0 -18,5 -20,10 -2,6 -12,3 -23,-8 -11,-10 -27,-16 -34,-14 -8,3 -27,-10 -43,-29 l -28,-34 12,35 c 6,19 19,40 27,47 9,7 11,13 5,13 -6,0 -14,-3 -17,-7 -10,-9 -57,-13 -57,-5 0,4 -14,8 -30,9 -27,2 -32,-2 -29,-23 0,-4 -5,-10 -12,-15 -18,-11 -31,12 -17,28 8,10 -6,13 -70,13 -74,0 -82,-2 -100,-25 -24,-30 -37,-33 -22,-6 16,30 13,32 -39,30 -41,-2 -49,-6 -48,-21 z m 355,-1 c 15,6 15,5 3,-10 -7,-9 -9,-17 -4,-17 5,0 9,-9 10,-19 2,-20 -17,-19 -44,2 -9,7 -13,5 -13,-7 0,-10 -4,-15 -9,-12 -5,4 -12,0 -14,-6 -4,-9 -6,-9 -6,-1 -1,6 10,20 24,31 14,11 25,28 26,38 0,11 3,14 5,7 3,-7 13,-9 22,-6 z m -214,-12 c -4,-8 -11,-15 -16,-15 -6,0 -5,6 2,15 7,8 14,15 16,15 2,0 1,-7 -2,-15 z m 111,-25 c 13,-26 14,-30 1,-30 -8,0 -17,4 -21,10 -3,5 -12,7 -20,4 -18,-7 -13,25 6,37 19,12 16,13 34,-21 z m 295,20 c 0,-5 -4,-10 -10,-10 -5,0 -10,5 -10,10 0,6 5,10 10,10 6,0 10,-4 10,-10 z m -205,-60 c 3,-5 2,-10 -4,-10 -5,0 -13,5 -16,10 -3,6 -2,10 4,10 5,0 13,-4 16,-10 z m 165,1 c 0,-6 -4,-13 -10,-16 -5,-3 -10,1 -10,9 0,9 5,16 10,16 6,0 10,-4 10,-9 z m 110,-1 c 0,-12 -30,-33 -37,-26 -3,3 -1,6 6,6 7,0 11,6 8,13 -3,8 1,14 9,14 8,0 14,-4 14,-7 z m -463,-6 c -3,-3 -12,-4 -19,-1 -8,3 -5,6 6,6 11,1 17,-2 13,-5 z m 94,-9 c 0,-6 -10,-11 -21,-11 -16,-1 -18,1 -9,13 13,15 31,14 30,-2 z m 399,-15 c 0,-5 -4,-10 -10,-10 -5,0 -10,5 -10,10 0,6 5,10 10,10 6,0 10,-4 10,-10 z m -586,-72 c -3,-4 -13,-8 -23,-8 -20,0 -36,37 -18,43 14,4 48,-24 41,-35 z m -50,-37 c 4,-5 -3,-7 -14,-4 -23,6 -26,13 -6,13 8,0 17,-4 20,-9 z m 491,-61 c 3,-5 1,-10 -4,-10 -6,0 -11,5 -11,10 0,6 2,10 4,10 3,0 8,-4 11,-10 z m 135,-26 c 0,-17 -22,-18 -38,-2 -10,10 -15,10 -22,-2 -11,-17 -13,-10 -5,12 7,19 65,11 65,-8 z m -440,-34 c -8,-6 -24,-9 -35,-9 l -20,1 20,5 c 11,3 24,9 29,14 5,5 12,6 15,3 3,-3 -1,-9 -9,-14 z m 80,-4 c 0,-3 -4,-8 -10,-11 -5,-3 -10,-1 -10,4 0,6 5,11 10,11 6,0 10,-2 10,-4 z m -210,-82 c 0,-8 -5,-12 -10,-9 -6,4 -8,11 -5,16 9,14 15,11 15,-7 z m -60,-98 c -14,-13 -27,-21 -30,-19 -5,5 38,43 48,43 4,0 -5,-11 -18,-24 z m 420,-61 c -7,-8 -18,-15 -24,-14 -7,0 -6,2 2,6 6,2 10,9 6,14 -3,5 2,9 12,9 13,0 14,-3 4,-15 z m -130,-10 c 0,-8 -3,-15 -6,-15 -3,0 -12,7 -20,15 -14,13 -13,15 5,15 12,0 21,-6 21,-15 z m -75,-5 c -3,-5 -13,-10 -21,-10 -8,0 -12,5 -9,10 3,6 13,10 21,10 8,0 12,-4 9,-10 z"
         id="path5601"
         style="fill:#ece5da;fill-opacity:1" /><path
         d="m 4281,1704 c -10,-23 -9,-25 8,-19 12,4 21,0 25,-11 9,-24 -13,-46 -40,-40 -23,6 -29,-2 -39,-54 -3,-16 0,-20 10,-16 8,3 15,2 15,-3 0,-11 -34,-41 -47,-41 -6,0 -22,-26 -36,-57 -14,-32 -57,-132 -97,-223 -40,-91 -74,-168 -76,-172 -2,-3 68,-6 157,-5 l 161,2 25,68 25,67 h 91 c 50,0 87,3 84,7 -4,3 -2,12 4,20 9,9 8,13 0,13 -6,0 -11,5 -11,11 0,5 4,8 9,5 14,-9 32,19 25,38 -4,10 1,25 11,36 10,11 15,23 12,27 -10,9 -58,-19 -65,-37 -6,-15 -22,-30 -34,-30 -10,0 4,44 16,52 7,5 6,8 -4,9 -8,1 -30,2 -48,4 -18,1 -35,5 -38,8 -3,3 15,53 39,112 l 44,107 31,-73 c 52,-128 60,-144 61,-130 1,8 8,19 18,26 20,15 9,36 -15,29 -14,-5 -15,-4 -2,5 8,5 24,8 35,5 14,-3 28,3 40,17 19,21 19,22 2,16 -14,-5 -18,-3 -15,11 2,9 -3,22 -11,28 -19,15 -6,32 39,50 36,15 37,17 34,59 -1,24 -9,57 -16,72 l -13,28 -201,2 -201,3 z m 136,-120 c -3,-3 -12,-4 -19,-1 -8,3 -5,6 6,6 11,1 17,-2 13,-5 z m 33,-4 c 0,-5 -2,-10 -4,-10 -3,0 -8,5 -11,10 -3,6 -1,10 4,10 6,0 11,-4 11,-10 z m -153,-6 c -3,-3 -12,-4 -19,-1 -8,3 -5,6 6,6 11,1 17,-2 13,-5 z m 293,-44 c 0,-5 -2,-10 -4,-10 -3,0 -8,5 -11,10 -3,6 -1,10 4,10 6,0 11,-4 11,-10 z m -175,-200 c 3,-6 -1,-7 -9,-4 -18,7 -21,14 -7,14 6,0 13,-4 16,-10 z m -192,-100 c -4,-16 -8,-18 -19,-9 -16,13 -10,29 11,29 8,0 11,-7 8,-20 z m -28,-20 c 3,-5 -1,-10 -9,-10 -8,0 -19,-7 -24,-16 -6,-11 -11,-13 -16,-5 -4,6 0,14 8,17 9,3 13,10 10,15 -3,5 2,9 10,9 8,0 18,-4 21,-10 z m -65,-66 c 0,-10 -6,-14 -15,-10 -8,3 -15,0 -15,-6 0,-6 -3,-8 -6,-5 -8,8 14,37 27,37 5,0 9,-7 9,-16 z m 116,-21 c 0,-10 9,-22 22,-28 12,-5 22,-13 22,-17 0,-13 -15,-9 -36,10 -11,10 -25,17 -32,14 -19,-6 -14,16 6,27 9,6 18,11 18,11 1,0 1,-8 0,-17 z m -111,-33 c 3,-5 -3,-10 -14,-10 -12,0 -21,5 -21,10 0,6 6,10 14,10 8,0 18,-4 21,-10 z"
         id="path5603"
         style="fill:#ece5da;fill-opacity:1" /><path
         d="m 4733,1690 c 29,-52 44,-52 17,0 -11,22 -24,40 -29,40 -5,0 0,-18 12,-40 z"
         id="path5605"
         style="fill:#ece5da;fill-opacity:1" /><path
         d="m 5921,1631 v -100 l 39,-18 c 22,-10 42,-26 46,-36 3,-9 9,-15 14,-12 5,3 11,1 15,-5 4,-6 -6,-10 -25,-10 -17,0 -29,4 -26,8 3,5 -1,9 -9,9 -8,0 -15,-5 -15,-10 0,-5 -9,-7 -20,-4 -20,5 -20,1 -20,-193 l 1,-198 160,-1 159,-1 v 120 120 h 76 c 69,0 75,2 69,19 -5,17 15,30 48,31 10,0 4,-23 -8,-32 -6,-4 -2,-13 9,-21 12,-9 19,-25 18,-46 0,-20 4,-31 13,-31 9,0 12,-6 9,-15 -4,-9 0,-15 7,-15 11,0 11,-2 -1,-9 -8,-6 -18,-7 -22,-5 -12,8 -9,-11 4,-24 9,-9 9,-12 -1,-12 -11,0 -11,-3 -1,-15 10,-12 10,-15 -1,-16 -19,-1 42,-28 64,-29 17,0 17,1 3,16 -9,8 -20,12 -26,9 -5,-3 -10,-2 -10,4 0,5 8,15 18,20 15,10 15,11 -5,17 -29,8 -30,24 -2,24 11,0 17,-4 14,-10 -3,-5 1,-10 9,-10 9,0 16,-5 16,-11 0,-5 4,-7 10,-4 5,3 15,-3 22,-15 7,-11 19,-20 27,-20 11,0 10,4 -4,13 -11,8 -14,16 -8,20 14,9 44,-26 35,-39 -4,-6 -19,-14 -34,-18 -21,-5 -26,-3 -22,8 3,8 1,17 -5,21 -7,4 -11,-4 -11,-19 v -26 h 110 110 v 208 208 l -50,52 c -28,29 -55,52 -62,52 -9,0 -9,3 0,12 9,9 16,7 32,-7 11,-10 20,-13 20,-7 0,7 -4,12 -10,12 -5,0 -10,7 -10,15 0,8 -6,15 -12,15 -9,0 -8,3 2,10 11,7 17,4 22,-10 8,-23 28,-27 28,-6 0,7 9,16 19,19 13,3 19,13 18,26 -1,13 -5,17 -11,11 -5,-5 -16,0 -27,13 -16,19 -20,20 -29,7 -10,-15 -14,-8 -11,23 2,15 -9,17 -118,17 h -120 l -3,-117 -3,-118 -102,-3 -102,-3 -3,118 -3,117 -92,2 c -75,2 -91,0 -86,-12 3,-8 10,-11 16,-7 6,4 8,0 4,-10 -4,-12 -1,-17 10,-17 9,0 13,-3 9,-7 -4,-4 -22,-6 -41,-5 -27,2 -33,-1 -29,-13 10,-24 -15,-17 -41,11 -28,30 -33,57 -10,48 8,-4 13,-10 10,-14 -5,-8 18,-20 38,-20 7,0 4,5 -6,11 -9,6 -14,15 -11,21 4,6 2,8 -4,4 -6,-3 -13,-2 -17,4 -3,5 -19,10 -35,10 h -28 z m 674,49 c 3,-6 -1,-7 -9,-4 -18,7 -21,14 -7,14 6,0 13,-4 16,-10 z m 95,-24 c 0,-9 -30,-14 -35,-6 -4,6 3,10 14,10 12,0 21,-2 21,-4 z m -550,-16 c 0,-5 -5,-10 -11,-10 -5,0 -7,5 -4,10 3,6 8,10 11,10 2,0 4,-4 4,-10 z m 504,-16 c 9,-24 2,-26 -12,-4 -7,11 -8,20 -3,20 5,0 12,-7 15,-16 z m -549,-74 c 3,-5 -3,-10 -15,-10 -12,0 -18,5 -15,10 3,6 10,10 15,10 5,0 12,-4 15,-10 z m 419,-126 c 5,-12 2,-15 -10,-10 -8,3 -18,6 -20,6 -3,0 -2,5 1,10 9,15 22,12 29,-6 z m -74,-9 c -7,-8 -17,-15 -22,-15 -6,0 -5,7 2,15 7,8 17,15 22,15 6,0 5,-7 -2,-15 z m 203,-26 c -9,-9 -12,-7 -10,9 1,14 5,18 11,12 7,-7 6,-14 -1,-21 z m 50,18 c 3,-8 -1,-14 -8,-14 -7,0 -11,6 -8,14 3,7 6,13 8,13 2,0 5,-6 8,-13 z m -277,-34 c -2,-12 -13,-19 -32,-20 -16,-1 -21,1 -11,3 9,3 17,12 17,20 0,8 6,14 14,14 8,0 13,-8 12,-17 z m -252,-8 c 4,-13 2,-14 -14,-5 -23,13 -26,20 -6,20 8,0 16,-7 20,-15 z m 517,-28 c -10,-9 -11,-8 -5,6 3,10 9,15 12,12 3,-3 0,-11 -7,-18 z m -191,-7 c 0,-5 -5,-10 -11,-10 -5,0 -7,5 -4,10 3,6 8,10 11,10 2,0 4,-4 4,-10 z m -365,-9 c 7,-12 -12,-24 -25,-16 -11,7 -4,25 10,25 5,0 11,-4 15,-9 z m 395,5 c 0,-3 -4,-8 -10,-11 -5,-3 -10,-1 -10,4 0,6 5,11 10,11 6,0 10,-2 10,-4 z m -420,-35 c 0,-5 -10,-11 -22,-13 -13,-2 -22,-9 -20,-16 1,-6 -2,-12 -8,-12 -13,0 -13,6 2,30 13,20 48,28 48,11 z m -56,-63 c 16,-19 16,-20 1,-15 -9,4 -26,2 -37,-4 -13,-7 -23,-8 -30,-1 -7,7 -1,15 18,26 16,8 29,15 29,16 0,0 9,-10 19,-22 z m 109,-17 c -2,-6 2,-11 8,-11 5,0 7,-4 4,-10 -3,-5 1,-10 9,-10 9,0 16,-4 16,-10 0,-26 -31,-4 -48,33 -10,23 -10,28 0,24 7,-2 12,-10 11,-16 z m -113,-43 c 0,-13 -53,-6 -57,8 -2,7 8,9 27,6 16,-2 30,-9 30,-14 z m -75,-27 c 0,-7 16,-26 35,-42 20,-18 26,-26 13,-20 -12,6 -26,11 -30,10 -20,-3 -34,2 -28,11 3,6 2,10 -3,10 -6,0 -13,7 -16,16 -4,10 -2,13 6,8 8,-5 9,-2 5,10 -5,12 -3,16 5,14 7,-3 13,-10 13,-17 z m 65,-1 c 13,-8 12,-10 -2,-10 -10,0 -18,-5 -18,-11 0,-5 -4,-8 -10,-4 -9,6 -3,35 9,35 3,0 13,-5 21,-10 z m 626,-17 c -3,-7 -1,-13 4,-13 6,0 10,-5 10,-10 0,-6 -11,-3 -25,6 -26,17 -26,31 0,31 9,0 14,-6 11,-14 z m -481,-13 c 3,-5 -1,-10 -9,-10 -9,0 -16,5 -16,10 0,6 4,10 9,10 6,0 13,-4 16,-10 z m 492,-36 c -3,-3 -12,-4 -19,-1 -8,3 -5,6 6,6 11,1 17,-2 13,-5 z"
         id="path5607"
         style="fill:#ece5da;fill-opacity:1" /><path
         d="m 6712,1713 c 12,-15 48,-12 48,4 0,7 -11,11 -29,10 -21,-1 -27,-5 -19,-14 z"
         id="path5609"
         style="fill:#ece5da;fill-opacity:1" /><path
         d="m 4264,1659 c -9,-16 17,-20 31,-5 14,13 13,15 -6,13 -11,-1 -23,-5 -25,-8 z"
         id="path5611"
         style="fill:#ece5da;fill-opacity:1" /><path
         d="m 4741,1616 c -9,-11 -9,-16 0,-22 9,-5 4,-14 -15,-29 -20,-16 -28,-32 -30,-62 -2,-22 -13,-55 -25,-72 -15,-20 -21,-40 -17,-54 3,-12 1,-39 -3,-60 -5,-20 -5,-39 -1,-42 5,-3 6,-14 3,-25 -3,-12 0,-20 6,-20 7,0 9,5 5,12 -5,7 -3,8 6,3 10,-6 12,-4 7,8 -3,9 -2,19 4,22 5,4 7,11 4,16 -4,5 0,9 8,9 23,0 14,-40 -15,-72 -34,-36 -34,-41 -7,-112 l 22,-56 171,1 c 133,0 168,3 155,12 -9,7 -14,18 -11,26 2,8 -3,18 -12,23 -9,5 -14,13 -11,18 6,10 -31,100 -43,100 -4,0 -13,-5 -20,-12 -6,-6 -15,-8 -19,-4 -5,4 0,13 10,20 18,14 23,46 8,61 -4,6 -16,31 -26,57 -10,26 -24,53 -31,59 -8,6 -11,16 -7,22 3,5 2,7 -4,4 -6,-4 -15,5 -21,18 -9,19 -9,25 1,25 8,1 7,5 -3,13 -8,7 -16,23 -18,36 -3,29 -33,83 -48,88 -6,2 -16,-3 -23,-11 z m 34,-220 c 36,-15 49,-32 17,-22 -13,4 -18,0 -20,-14 -4,-45 -6,-50 -21,-50 -28,0 -37,14 -38,58 -1,47 7,51 62,28 z m 109,-47 c -3,-5 4,-19 15,-31 12,-12 21,-27 21,-32 0,-6 -8,-2 -18,10 -9,11 -27,19 -39,18 -13,-1 -20,3 -16,9 4,6 0,8 -11,4 -20,-8 -34,20 -17,34 6,5 9,6 6,3 -2,-4 6,-15 19,-25 27,-21 47,-26 28,-7 -7,7 -12,21 -12,31 0,16 3,17 15,7 8,-7 12,-16 9,-21 z m -109,-59 c 3,-5 -1,-10 -9,-10 -8,0 -18,5 -21,10 -3,6 1,10 9,10 8,0 18,-4 21,-10 z m -40,-50 c -3,-5 -11,-10 -16,-10 -6,0 -7,5 -4,10 3,6 11,10 16,10 6,0 7,-4 4,-10 z m 49,-9 c 4,-5 -3,-7 -14,-4 -23,6 -26,13 -6,13 8,0 17,-4 20,-9 z m 146,-35 c 0,-3 -4,-8 -10,-11 -5,-3 -10,-1 -10,4 0,6 5,11 10,11 6,0 10,-2 10,-4 z m -48,-28 c -7,-7 -12,-8 -12,-2 0,14 12,26 19,19 2,-3 -1,-11 -7,-17 z"
         id="path5613"
         style="fill:#ece5da;fill-opacity:1" /><path
         d="m 2095,1550 c -3,-5 -2,-10 4,-10 5,0 13,5 16,10 3,6 2,10 -4,10 -5,0 -13,-4 -16,-10 z"
         id="path5615"
         style="fill:#ece5da;fill-opacity:1" /><path
         d="m 6715,1550 c 3,-5 13,-10 21,-10 8,0 12,5 9,10 -3,6 -13,10 -21,10 -8,0 -12,-4 -9,-10 z"
         id="path5617"
         style="fill:#ece5da;fill-opacity:1" /><path
         d="m 4630,1361 c 0,-6 5,-13 10,-16 6,-3 10,1 10,9 0,9 -4,16 -10,16 -5,0 -10,-4 -10,-9 z"
         id="path5619"
         style="fill:#ece5da;fill-opacity:1" /><path
         d="m 5760,1268 c -25,-12 -77,-23 -120,-27 -65,-5 -76,-9 -86,-29 -7,-15 -14,-19 -18,-13 -4,6 -16,16 -28,22 -19,10 -20,9 -14,-15 4,-18 2,-26 -7,-26 -7,0 -30,-18 -51,-39 -22,-22 -51,-45 -67,-51 -15,-7 -30,-18 -33,-25 -8,-21 59,-27 172,-16 204,21 299,81 318,199 8,49 2,51 -66,20 z"
         id="path5621"
         style="fill:#ece5da;fill-opacity:1" /><path
         d="m 1635,1235 c -22,-13 -45,-28 -52,-34 -7,-6 -19,-11 -27,-11 -8,0 -16,-3 -18,-7 -4,-11 -87,-65 -120,-80 -31,-13 -37,-37 -12,-47 9,-3 81,-6 160,-6 h 144 v 105 c 0,119 -3,122 -75,80 z"
         id="path5623"
         style="fill:#ece5da;fill-opacity:1" /><path
         d="m 5080,1162 v -89 l 88,-12 c 125,-16 138,-15 160,14 11,14 25,25 32,25 12,0 120,98 120,109 0,3 -51,5 -112,3 -103,-3 -213,10 -270,33 -16,6 -18,-1 -18,-83 z"
         id="path5625"
         style="fill:#ece5da;fill-opacity:1" /><path
         d="m 4600,1233 c 0,-6 -10,-14 -22,-18 l -23,-8 23,-4 c 12,-2 30,-3 40,-1 18,3 18,4 0,22 -10,11 -18,15 -18,9 z"
         id="path5627"
         style="fill:#ece5da;fill-opacity:1" /><path
         d="m 6847,1143 c -4,-3 -7,-24 -7,-45 0,-36 2,-38 30,-38 31,0 42,22 18,36 -8,5 -9,2 -5,-10 5,-13 2,-17 -11,-14 -20,4 -29,45 -13,61 8,8 15,7 24,-2 10,-10 9,-11 -5,-6 -14,6 -18,2 -18,-15 0,-22 1,-23 20,-5 11,10 20,24 20,32 0,13 -41,18 -53,6 z"
         id="path5629"
         style="fill:#ece5da;fill-opacity:1" /><path
         d="m 2893,1121 c -12,-10 -20,-21 -17,-23 2,-3 -2,-11 -11,-18 -11,-9 -15,-9 -15,-1 0,8 -10,6 -30,-4 -16,-9 -30,-17 -30,-18 0,-2 29,-4 65,-4 l 65,-2 v 45 c 0,24 -1,44 -2,44 -2,-1 -13,-9 -25,-19 z"
         id="path5631"
         style="fill:#ece5da;fill-opacity:1" /><path
         d="m 2225,1100 c 3,-5 11,-7 19,-4 7,3 18,-5 24,-18 10,-23 11,-23 11,-2 1,21 -16,34 -45,34 -9,0 -13,-4 -9,-10 z"
         id="path5633"
         style="fill:#ece5da;fill-opacity:1" /><path
         d="m 3400,1075 c 0,-8 5,-15 10,-15 6,0 10,7 10,15 0,8 -4,15 -10,15 -5,0 -10,-7 -10,-15 z"
         id="path5635"
         style="fill:#ece5da;fill-opacity:1" /><path
         d="m 3350,1060 c -13,-8 -13,-10 2,-10 9,0 20,5 23,10 8,13 -5,13 -25,0 z"
         id="path5637"
         style="fill:#ece5da;fill-opacity:1" /><path
         d="m 2790,725 c 0,-108 1,-115 20,-115 17,0 20,7 20,43 0,51 6,60 31,46 14,-7 19,-21 19,-49 0,-33 3,-40 19,-40 19,0 20,7 19,100 -1,116 -10,130 -85,130 h -43 z m 74,69 c 27,-10 20,-44 -9,-44 -18,0 -25,5 -25,18 0,29 9,36 34,26 z"
         id="path5639"
         style="fill:#ece5da;fill-opacity:1" /><path
         d="M 2990,726 V 610 h 55 c 48,0 55,2 55,20 0,16 -7,20 -35,20 -32,0 -35,2 -35,30 0,28 3,30 36,30 28,0 35,3 32,18 -2,11 -14,18 -36,20 -26,3 -32,7 -32,28 0,21 5,24 36,24 28,0 35,3 32,18 -2,13 -15,18 -56,20 l -52,3 z"
         id="path5641"
         style="fill:#ece5da;fill-opacity:1" /><path
         d="m 3177,822 c -17,-19 -22,-69 -9,-87 4,-6 22,-21 40,-34 17,-12 32,-29 32,-37 0,-22 -38,-17 -45,6 -4,11 -15,20 -27,20 -17,0 -19,-4 -14,-27 18,-75 126,-68 126,8 0,31 -8,41 -48,65 -23,13 -32,25 -30,39 4,27 32,25 36,-2 5,-36 42,-31 42,5 0,55 -68,83 -103,44 z"
         id="path5643"
         style="fill:#ece5da;fill-opacity:1" /><path
         d="m 3330,821 c 0,-13 8,-21 23,-23 21,-3 22,-8 25,-95 2,-73 6,-93 17,-93 11,0 15,20 17,93 3,87 4,92 26,95 14,2 22,10 22,23 0,17 -7,19 -65,19 -58,0 -65,-2 -65,-19 z"
         id="path5645"
         style="fill:#ece5da;fill-opacity:1" /><path
         d="m 3525,818 c -8,-39 -35,-190 -35,-199 0,-5 9,-9 20,-9 11,0 20,5 20,10 0,6 11,10 25,10 14,0 25,-4 25,-10 0,-5 9,-10 20,-10 16,0 19,5 15,23 -2,12 -12,64 -21,115 -15,86 -18,92 -40,92 -16,0 -25,-7 -29,-22 z m 38,-110 c 4,-29 2,-38 -9,-38 -16,0 -17,5 -8,49 8,38 9,37 17,-11 z"
         id="path5647"
         style="fill:#ece5da;fill-opacity:1" /><path
         d="m 3670,742 c 0,-111 11,-132 68,-132 49,0 62,28 62,137 0,86 -2,93 -20,93 -18,0 -20,-8 -22,-92 -3,-85 -5,-93 -23,-93 -18,0 -20,8 -23,93 -2,84 -4,92 -22,92 -19,0 -20,-7 -20,-98 z"
         id="path5649"
         style="fill:#ece5da;fill-opacity:1" /><path
         d="m 3867,833 c -4,-3 -7,-55 -7,-115 0,-101 1,-108 20,-108 17,0 20,7 20,44 0,48 8,60 34,50 11,-4 16,-19 16,-50 0,-38 3,-44 21,-44 19,0 20,5 18,63 -1,34 1,74 5,89 11,39 -29,78 -82,78 -21,0 -42,-3 -45,-7 z m 73,-43 c 25,-14 15,-40 -16,-40 -17,0 -24,6 -24,18 0,31 11,37 40,22 z"
         id="path5651"
         style="fill:#ece5da;fill-opacity:1" /><path
         d="m 4090,837 c 0,-2 -9,-52 -20,-112 -11,-60 -20,-110 -20,-112 0,-2 9,-3 20,-3 11,0 20,5 20,10 0,6 11,10 25,10 14,0 25,-4 25,-10 0,-5 9,-10 21,-10 17,0 20,5 15,28 -3,15 -10,56 -16,92 -18,109 -18,110 -45,110 -14,0 -25,-1 -25,-3 z m 39,-149 c 1,-10 -6,-18 -15,-18 -12,0 -15,6 -10,23 3,12 6,31 7,42 1,17 2,16 9,-5 4,-14 8,-33 9,-42 z"
         id="path5653"
         style="fill:#ece5da;fill-opacity:1" /><path
         d="m 4240,725 c 0,-108 1,-115 20,-115 17,0 20,7 21,53 l 1,52 24,-52 c 13,-30 30,-53 39,-53 13,0 15,19 15,115 0,94 -3,115 -15,115 -10,0 -15,-15 -17,-57 l -3,-58 -27,58 c -16,33 -33,57 -42,57 -14,0 -16,-18 -16,-115 z"
         id="path5655"
         style="fill:#ece5da;fill-opacity:1" /><path
         d="m 4420,820 c 0,-13 7,-20 20,-20 19,0 20,-7 20,-95 0,-88 2,-95 20,-95 18,0 20,8 22,93 3,88 4,92 26,95 15,2 22,9 20,20 -3,13 -17,18 -66,20 -57,3 -62,1 -62,-18 z"
         id="path5657"
         style="fill:#ece5da;fill-opacity:1" /><path
         d="m 4704,815 c -19,-19 -23,-31 -18,-48 8,-24 8,-25 -2,-75 -10,-52 16,-82 71,-82 42,0 45,2 45,28 0,42 11,72 26,72 8,0 14,9 14,19 0,17 -8,20 -52,23 -45,3 -53,6 -53,23 0,14 8,21 28,23 19,2 27,9 27,23 0,29 -54,26 -86,-6 z m 66,-135 c 0,-23 -4,-30 -20,-30 -11,0 -23,7 -26,15 -9,23 3,45 26,45 16,0 20,-7 20,-30 z"
         id="path5659"
         style="fill:#ece5da;fill-opacity:1" /><path
         d="M 4980,725 V 610 h 43 c 48,0 59,6 76,38 9,17 10,32 3,51 -6,17 -6,34 -1,42 29,45 -16,99 -82,99 h -39 z m 80,60 c 15,-18 5,-35 -21,-35 -14,0 -19,7 -19,25 0,28 21,33 40,10 z m -5,-91 c 12,-12 13,-19 4,-30 -20,-24 -39,-16 -39,16 0,34 11,38 35,14 z"
         id="path5661"
         style="fill:#ece5da;fill-opacity:1" /><path
         d="m 5194,827 c -3,-8 -13,-60 -23,-116 -18,-99 -18,-101 0,-101 11,0 19,5 19,10 0,6 11,10 25,10 14,0 25,-4 25,-10 0,-5 9,-10 20,-10 24,0 24,6 2,130 -15,85 -19,95 -40,98 -12,2 -24,-3 -28,-11 z m 36,-129 c 0,-16 -5,-28 -13,-28 -9,0 -11,12 -9,41 5,46 22,35 22,-13 z"
         id="path5663"
         style="fill:#ece5da;fill-opacity:1" /><path
         d="m 5347,833 c -4,-3 -7,-55 -7,-115 0,-101 1,-108 20,-108 17,0 20,7 20,44 0,25 5,48 10,51 20,12 40,-17 40,-56 0,-33 3,-39 21,-39 19,0 20,5 18,63 -1,34 1,74 5,89 11,39 -29,78 -82,78 -21,0 -42,-3 -45,-7 z m 67,-39 c 27,-10 20,-44 -9,-44 -18,0 -25,5 -25,18 0,29 9,36 34,26 z"
         id="path5665"
         style="fill:#ece5da;fill-opacity:1" /></g></g></svg>
