<svg xmlns="http://www.w3.org/2000/svg" width="24" height="24"><path fill="#2d704b" fill-rule="evenodd" d="M3 8.05q.01.15.25.15c.25 0 .25 0 .25.9v.9h.8v-.9c0-.83.01-.9.2-.9q.18-.02.2-.15c0-.12-.16-.15-.85-.15S3 7.93 3 8.05m3.1.9V10h.4c.38 0 .4-.02.4-.3s.03-.3.3-.3.3.03.3.3q0 .3.15.3c.12 0 .15-.18.15-1.05S7.77 7.9 7.65 7.9s-.15.13-.15.6c0 .6 0 .6-.3.6-.28 0-.3-.01-.32-.57l-.03-.58-.37-.03-.38-.03zm3.1.01V10h.75c.6 0 .75-.03.75-.15q0-.15-.3-.15t-.3-.15.3-.15.3-.15-.3-.15c-.29 0-.3-.02-.3-.45 0-.38.03-.45.2-.45q.18-.02.2-.15c0-.12-.14-.15-.65-.15H9.2zm4.1 0v1.06l.38-.03.37-.03v-2l-.37-.03-.38-.03zm2.24-.87.43 1.05c.33.78.4.87.63.87.24 0 .3-.1.72-1.05q.46-1.04.34-1.05c-.07 0-.27.32-.45.7s-.32.7-.34.7a5 5 0 0 1-.32-.7l-.28-.7h-.4c-.33 0-.38.03-.33.18m3.26-.12c0 .03.15.32.34.64.2.33.36.76.38.97.03.35.06.38.36.41.31.03.32.02.32-.35q0-.4.29-.85c.5-.77.54-.88.37-.88-.08 0-.26.2-.4.45s-.28.45-.3.45-.16-.2-.3-.45c-.25-.41-.3-.45-.66-.45-.22 0-.4.03-.4.06"/></svg>