<svg xmlns="http://www.w3.org/2000/svg" width="24" height="24"><path fill="#afb82f" fill-rule="evenodd" d="M18.8 6.3q-.15.08-.15.67v.58l-.42.03c-.38.03-.44 0-.55-.23-.15-.33-.53-.43-.78-.2-.11.1-.2.24-.2.32 0 .23-.7.16-.9-.1l-.18-.22-.3.22-.31.23H9.2c-5.68 0-5.81 0-6.01.2-.18.18-.2.33-.2 1.5s.02 1.32.2 1.5c.2.2.33.2 6.45.2h6.24l.16.3q.26.5.8.5c.21 0 .3-.08.43-.4.2-.46.24-.47.6-.2a1 1 0 0 0 .53.2q.29-.01.41-.2c.11-.17.24-.2.95-.2 1.2 0 1.23-.03 1.23-1.74 0-1.28-.01-1.36-.22-1.5-.12-.09-.4-.16-.6-.16h-.38v-.64c0-.63 0-.64-.31-.7-.42-.08-.51-.07-.69.04"/></svg>