<?xml version="1.0" encoding="UTF-8" standalone="no"?>
<svg
   viewBox="0 0 24 24"
   width="24pt"
   height="24pt"
   version="1.1"
   id="svg4"
   sodipodi:docname="thecoffeebean&amp;tealeaf.svg"
   xml:space="preserve"
   inkscape:version="1.2.2 (732a01da63, 2022-12-09)"
   xmlns:inkscape="http://www.inkscape.org/namespaces/inkscape"
   xmlns:sodipodi="http://sodipodi.sourceforge.net/DTD/sodipodi-0.dtd"
   xmlns="http://www.w3.org/2000/svg"
   xmlns:svg="http://www.w3.org/2000/svg"><defs
     id="defs8" /><sodipodi:namedview
     id="namedview6"
     pagecolor="#ffffff"
     bordercolor="#000000"
     borderopacity="0.25"
     inkscape:showpageshadow="2"
     inkscape:pageopacity="0.0"
     inkscape:pagecheckerboard="0"
     inkscape:deskcolor="#d1d1d1"
     inkscape:document-units="pt"
     showgrid="false"
     inkscape:zoom="25.125"
     inkscape:cx="13.99005"
     inkscape:cy="13.59204"
     inkscape:window-width="1920"
     inkscape:window-height="991"
     inkscape:window-x="-9"
     inkscape:window-y="-9"
     inkscape:window-maximized="1"
     inkscape:current-layer="svg4" /><g
     fill="#522d6d"
     id="g265"
     transform="matrix(0.14985135,0,0,0.14985135,4.1281472,2.0559526)"><path
       d="m 40.08,88.4 -2.57,6.89 -2.09,-0.78 2.56,-6.89 -2.45,-0.91 0.67,-1.79 7,2.61 -0.67,1.79 z"
       id="path183" /><path
       d="m 43.83,97.06 1.12,-9.19 6.17,0.75 -0.23,1.87 -4.03,-0.49 -0.21,1.73 3.81,0.47 -0.21,1.78 -3.82,-0.47 -0.23,1.91 4.27,0.52 -0.23,1.89 z"
       id="path185" /><path
       d="m 516.59,550 -0.76,3.3 2.31,-0.3 z m 3.33,6.41 -0.95,-1.71 -3.55,0.46 -0.44,1.89 -2.41,0.31 2.66,-9.68 2.15,-0.28 5,8.69 z"
       transform="translate(-459.49,-459.39)"
       id="path187" /><path
       d="m 70.44,93.97 -4.19,-8.26 2.01,-1.01 3.3,6.52 3.2,-1.62 0.88,1.74 z"
       id="path189" /><path
       d="m 78.44,89.47 -5.85,-7.16 4.82,-3.94 1.19,1.46 -3.15,2.57 1.11,1.36 2.97,-2.43 1.14,1.39 -2.98,2.42 1.21,1.49 3.33,-2.72 1.21,1.48 z"
       id="path191" /><path
       d="m 542.36,535.06 1.83,2.85 1.4,-1.86 z m 6.92,2.08 -1.89,-0.51 -2.15,2.86 1,1.63 -1.46,1.95 -5.07,-8.66 1.3,-1.74 9.71,2.48 z"
       transform="translate(-459.49,-459.39)"
       id="path193" /><path
       d="m 86.66,68.16 1.76,0.75 1.42,-3.28 1.69,0.73 -1.42,3.28 3.3,1.43 -0.88,2.03 -8.5,-3.67 2.42,-5.59 1.75,0.75 z"
       id="path195" /><path
       d="m 475.64,509.44 a 5,5 0 0 1 0.44,2.07 5.39,5.39 0 0 1 -0.33,2 4.57,4.57 0 0 1 -2.52,2.65 5.43,5.43 0 0 1 -4,0 4.47,4.47 0 0 1 -1.55,-1 4.7,4.7 0 0 1 -1,-1.58 5.72,5.72 0 0 1 0,-3.9 3.69,3.69 0 0 1 1,-1.55 l 1.53,1.5 a 1.87,1.87 0 0 0 -0.63,0.83 2.73,2.73 0 0 0 -0.2,1 2.65,2.65 0 0 0 0.23,1.08 2.52,2.52 0 0 0 0.6,0.84 2.73,2.73 0 0 0 0.9,0.54 3.15,3.15 0 0 0 1.13,0.18 3.24,3.24 0 0 0 1.15,-0.21 2.67,2.67 0 0 0 0.89,-0.55 2.43,2.43 0 0 0 0.57,-0.84 2.62,2.62 0 0 0 0.2,-1.06 2.46,2.46 0 0 0 -0.28,-1.16 2.25,2.25 0 0 0 -0.69,-0.79 l 1.44,-1.57 a 4.41,4.41 0 0 1 1.14,1.5"
       transform="translate(-459.49,-459.39)"
       id="path197" /><path
       d="m 473.28,498.82 a 3.2,3.2 0 0 0 -1.13,-0.11 2.67,2.67 0 0 0 -1,0.29 2.5,2.5 0 0 0 -0.79,0.65 2.65,2.65 0 0 0 -0.49,1 2.58,2.58 0 0 0 0.27,2.05 2.56,2.56 0 0 0 0.72,0.76 3.25,3.25 0 0 0 1,0.48 3.33,3.33 0 0 0 1.16,0.12 2.72,2.72 0 0 0 1,-0.29 2.45,2.45 0 0 0 0.79,-0.64 2.78,2.78 0 0 0 0.56,-2.07 2.55,2.55 0 0 0 -0.35,-1 2.71,2.71 0 0 0 -0.73,-0.77 3.34,3.34 0 0 0 -1.06,-0.49 m 0.63,-2.31 a 5.11,5.11 0 0 1 1.83,0.89 4.55,4.55 0 0 1 1.22,1.42 4.71,4.71 0 0 1 0.54,1.81 5.92,5.92 0 0 1 -1.05,3.88 4.69,4.69 0 0 1 -1.38,1.28 4.55,4.55 0 0 1 -1.77,0.61 5.15,5.15 0 0 1 -2,-0.16 5.08,5.08 0 0 1 -1.83,-0.89 4.39,4.39 0 0 1 -1.19,-1.41 4.71,4.71 0 0 1 -0.51,-1.79 5.79,5.79 0 0 1 0.2,-2 5.86,5.86 0 0 1 0.86,-1.85 4.67,4.67 0 0 1 1.35,-1.29 4.36,4.36 0 0 1 1.74,-0.61 5.06,5.06 0 0 1 2,0.16"
       transform="translate(-459.49,-459.39)"
       id="path199" /><path
       d="m 14.45,31.61 1.66,0.95 1.78,-3.1 1.59,0.91 -1.78,3.11 3.12,1.79 -1.1,1.92 -8.03,-4.61 3.04,-5.28 1.65,0.95 z"
       id="path201" /><path
       d="m 19.7,24.14 1.42,1.27 2.4,-2.66 1.37,1.23 -2.4,2.67 2.67,2.4 -1.47,1.64 -6.88,-6.19 4.07,-4.52 1.42,1.27 z"
       id="path203" /><path
       d="m 28.89,25.19 -5.37,-7.53 5.06,-3.62 1.09,1.54 -3.31,2.36 1.02,1.42 3.13,-2.23 1.04,1.46 -3.13,2.23 1.12,1.57 3.5,-2.5 1.11,1.55 z"
       id="path205" /><path
       d="m 35.67,20.63 -3.48,-8.58 5.77,-2.34 0.7,1.75 -3.76,1.52 0.65,1.63 3.56,-1.45 0.68,1.66 -3.56,1.45 0.72,1.78 3.98,-1.62 0.72,1.77 z"
       id="path207" /><path
       d="m 512.42,473.2 a 0.82,0.82 0 0 0 -0.45,-0.79 2.53,2.53 0 0 0 -1.16,-0.2 h -1.24 v 2.12 h 1.25 a 3.38,3.38 0 0 0 0.54,-0.06 1.75,1.75 0 0 0 0.51,-0.18 0.93,0.93 0 0 0 0.49,-0.9 m -0.38,-3.67 a 0.74,0.74 0 0 0 -0.37,-0.68 2.12,2.12 0 0 0 -1.07,-0.19 h -1.1 v 1.91 h 1.2 a 1.61,1.61 0 0 0 1,-0.28 0.87,0.87 0 0 0 0.33,-0.76 m 2.62,3.82 a 2.51,2.51 0 0 1 -0.27,1.28 2.37,2.37 0 0 1 -0.78,0.85 3.47,3.47 0 0 1 -1.12,0.48 6.07,6.07 0 0 1 -1.3,0.17 l -3.68,0.08 -0.21,-9.25 3.68,-0.08 a 5.75,5.75 0 0 1 1.1,0.09 3.27,3.27 0 0 1 1,0.36 2,2 0 0 1 1.07,1.87 1.92,1.92 0 0 1 -0.39,1.28 2.34,2.34 0 0 1 -1.08,0.75 2.52,2.52 0 0 1 0.74,0.22 2.1,2.1 0 0 1 1,1.07 2.17,2.17 0 0 1 0.17,0.82"
       transform="translate(-459.49,-459.39)"
       id="path209" /><path
       d="m 56.91,16.92 1.98,-9.04 6.08,1.33 -0.4,1.84 -3.97,-0.87 -0.38,1.71 3.76,0.82 -0.39,1.75 -3.75,-0.82 -0.41,1.88 4.2,0.91 -0.41,1.87 z"
       id="path211" /><path
       d="m 531.22,474.07 -2.5,2.29 2.07,1.06 z m -0.89,7.17 0.19,-1.95 -3.18,-1.64 -1.44,1.35 -2.16,-1.11 7.68,-6.46 1.93,1 -0.81,10 z"
       transform="translate(-459.49,-459.39)"
       id="path213" /><path
       d="m 78.3,27.91 1.51,-6.95 -0.03,-0.03 -4.16,4.41 -1.56,-1.51 6.41,-6.67 1.84,1.76 -1.51,6.93 0.03,0.03 4.14,-4.4 1.57,1.51 -6.41,6.67 z"
       id="path215" /><g
       transform="translate(-459.49,-459.39)"
       id="g223"><path
         d="m 511.51,510 a 0.66,0.66 0 0 0 -0.91,-0.35 0.71,0.71 0 0 0 -0.39,0.38 0.64,0.64 0 0 0 0,0.53 1,1 0 0 0 0.33,0.41 1.7,1.7 0 0 0 0.56,0.26 1.91,1.91 0 0 0 0.41,-0.59 0.76,0.76 0 0 0 0,-0.63 m -0.22,2.85 a 1.69,1.69 0 0 0 -0.37,0.54 0.85,0.85 0 0 0 0,0.68 0.83,0.83 0 0 0 0.24,0.33 0.94,0.94 0 0 0 0.33,0.18 1,1 0 0 0 0.37,0 1.09,1.09 0 0 0 0.36,-0.09 1.28,1.28 0 0 0 0.51,-0.37 1.42,1.42 0 0 0 0.27,-0.57 z m 4,1.7 -0.93,-0.39 a 2.93,2.93 0 0 1 -0.56,0.91 3,3 0 0 1 -1.09,0.73 3.79,3.79 0 0 1 -1,0.26 2.51,2.51 0 0 1 -0.94,0 2.12,2.12 0 0 1 -0.82,-0.4 2,2 0 0 1 -0.59,-0.81 2,2 0 0 1 -0.16,-0.7 2,2 0 0 1 0.09,-0.66 2.4,2.4 0 0 1 0.29,-0.6 4.08,4.08 0 0 1 0.41,-0.53 2.88,2.88 0 0 1 -0.8,-0.46 1.86,1.86 0 0 1 -0.54,-0.73 1.67,1.67 0 0 1 -0.14,-0.87 1.88,1.88 0 0 1 0.27,-0.75 2.26,2.26 0 0 1 0.55,-0.6 3.36,3.36 0 0 1 0.71,-0.42 3.2,3.2 0 0 1 0.8,-0.22 2.22,2.22 0 0 1 0.8,0 1.82,1.82 0 0 1 1.36,1.68 1.88,1.88 0 0 1 -0.09,0.61 2.53,2.53 0 0 1 -0.27,0.58 5.25,5.25 0 0 1 -0.39,0.54 l 1.23,0.51 0.24,-1.34 1.75,-0.74 -0.63,2.6 2.41,1 z"
         id="path217" /><path
         d="m 501.14,486.47 a 27.67,27.67 0 0 1 35.06,12.2 l 3,-1.25 a 30.83,30.83 0 0 0 -56.53,24 l 3,-1.25 a 27.67,27.67 0 0 1 15.57,-33.69"
         id="path219" /><path
         d="m 522.73,537.34 a 27.67,27.67 0 0 1 -35,-12.17 l -3,1.25 a 30.83,30.83 0 0 0 56.53,-24 l -3,1.25 a 27.67,27.67 0 0 1 -15.58,33.65"
         id="path221" /></g><path
       d="m 469.42,520.04 h 39.28 v 3.2 h -39.28 z"
       transform="rotate(-23.01,-869.09018,1420.7571)"
       id="path225" /><path
       d="m 515.31,500.56 h 39.28 v 3.19 h -39.28 z"
       transform="rotate(-23,-823.7874,1401.713)"
       id="path227" /><path
       d="m 509.81,497.25 a 11.44,11.44 0 0 1 -2.76,0.88 6.34,6.34 0 0 0 -2.17,0.76 c -1.17,0.65 -1.09,1 -3.11,1.92 -2.02,0.92 -3.21,1 -3.26,0.91 -0.05,-0.09 1.16,-0.5 2.13,-1.19 a 17.56,17.56 0 0 1 4.34,-2.47 39.57,39.57 0 0 0 8.22,-3.81 10.68,10.68 0 0 1 -3.4,3 m 1.64,-5.87 c -2.35,-0.93 -6.73,0.78 -7.64,1.16 -0.91,0.38 -4.7,2.39 -6,4.47 -1.3,2.08 -1.72,3.77 0.07,6.17 1.79,2.4 5,2.86 10.72,0.4 5.72,-2.46 6.1,-5.48 6.2,-5.92 0.1,-0.44 1.39,-4.41 -3.35,-6.28"
       transform="translate(-459.49,-459.39)"
       id="path229" /><path
       d="m 524.12,520.24 c -2.66,2.62 -3.91,6.27 -4.06,6.28 a 12.2,12.2 0 0 1 3.27,-6.11 39.6,39.6 0 0 0 4.73,-5.81 15.67,15.67 0 0 1 -3.93,5.64 m -6.63,10.51 c 0.06,0.25 0,0.18 -0.48,-0.11 -5,-3.39 -9.82,-6.09 -9.73,-6.27 0.09,-0.18 10,5.54 10.21,6.38 m 11.63,-18.22 a 18.9,18.9 0 0 1 -3.39,2.32 11.08,11.08 0 0 0 -5.22,5.73 19.67,19.67 0 0 0 -1.11,6.78 6.21,6.21 0 0 1 -0.45,1.89 c -0.2,-0.09 0.23,-1.59 -0.43,-2.71 -0.23,-0.4 -0.1,0.32 -0.33,0.36 -0.06,0 -0.15,-0.33 -0.29,-0.59 -0.14,-0.26 -0.28,-0.37 -0.33,-0.35 -0.05,0.02 0,0.29 0,0.5 0,0.21 0.12,0.29 0.07,0.33 -0.05,0.04 -0.12,-0.1 -0.21,-0.18 -0.09,-0.08 -0.38,-0.23 -0.33,0.12 a 2.84,2.84 0 0 0 0.53,1.55 17.7,17.7 0 0 1 1.25,2 2.3,2.3 0 0 1 0.27,1.22 2.25,2.25 0 0 1 -0.93,-1 12.44,12.44 0 0 0 -3.88,-4.66 19.18,19.18 0 0 0 -5.54,-2.07 19.56,19.56 0 0 0 -3,-0.58 29.28,29.28 0 0 0 2.34,4.21 9.23,9.23 0 0 0 4.73,3.47 27.12,27.12 0 0 0 5.43,0.64 c 0.6,0 1.5,1.32 1.66,1.75 0.16,0.43 0.31,0.67 0.51,0.58 0.2,-0.09 0.18,-0.21 -0.06,-0.85 a 8.87,8.87 0 0 1 -0.93,-3.79 c 0.14,-1.37 2,-4.23 4.43,-6.3 2.15,-1.86 3.66,-3 4.43,-4.77 a 15.14,15.14 0 0 0 0.77,-5.66"
       transform="translate(-459.49,-459.39)"
       id="path231" /><path
       d="m 511.51,510 a 0.66,0.66 0 0 0 -0.91,-0.35 0.71,0.71 0 0 0 -0.39,0.38 0.64,0.64 0 0 0 0,0.53 1,1 0 0 0 0.33,0.41 1.7,1.7 0 0 0 0.56,0.26 1.91,1.91 0 0 0 0.41,-0.59 0.76,0.76 0 0 0 0,-0.63 m -0.22,2.85 a 1.69,1.69 0 0 0 -0.37,0.54 0.85,0.85 0 0 0 0,0.68 0.83,0.83 0 0 0 0.24,0.33 0.94,0.94 0 0 0 0.33,0.18 1,1 0 0 0 0.37,0 1.09,1.09 0 0 0 0.36,-0.09 1.28,1.28 0 0 0 0.51,-0.37 1.42,1.42 0 0 0 0.27,-0.57 z m 4,1.7 -0.93,-0.39 a 2.93,2.93 0 0 1 -0.56,0.91 3,3 0 0 1 -1.09,0.73 3.79,3.79 0 0 1 -1,0.26 2.51,2.51 0 0 1 -0.94,0 2.12,2.12 0 0 1 -0.82,-0.4 2,2 0 0 1 -0.59,-0.81 2,2 0 0 1 -0.16,-0.7 2,2 0 0 1 0.09,-0.66 2.4,2.4 0 0 1 0.29,-0.6 4.08,4.08 0 0 1 0.41,-0.53 2.88,2.88 0 0 1 -0.8,-0.46 1.86,1.86 0 0 1 -0.54,-0.73 1.67,1.67 0 0 1 -0.14,-0.87 1.88,1.88 0 0 1 0.27,-0.75 2.26,2.26 0 0 1 0.55,-0.6 3.36,3.36 0 0 1 0.71,-0.42 3.2,3.2 0 0 1 0.8,-0.22 2.22,2.22 0 0 1 0.8,0 1.82,1.82 0 0 1 1.36,1.68 1.88,1.88 0 0 1 -0.09,0.61 2.53,2.53 0 0 1 -0.27,0.58 5.25,5.25 0 0 1 -0.39,0.54 l 1.23,0.51 0.24,-1.34 1.75,-0.74 -0.63,2.6 2.41,1 z"
       transform="translate(-459.49,-459.39)"
       id="path233" /><path
       d="m 28.58,8 0.4,-0.21 -1.16,-2.25 -0.59,0.31 0.26,0.51 -0.53,0.27 -0.51,-0.99 2.8,-1.44 0.52,0.99 -0.53,0.27 -0.26,-0.51 -0.6,0.3 1.16,2.26 0.4,-0.21 0.26,0.49 -1.36,0.71 z"
       id="path235" /><path
       d="M 31.04,6.71 31.43,6.55 30.48,4.22 30.1,4.37 29.89,3.86 31.27,3.3 31.48,3.81 31.06,3.98 31.42,4.87 32.98,4.24 32.61,3.35 32.2,3.52 31.99,3.01 l 1.38,-0.56 0.21,0.51 -0.39,0.16 0.95,2.33 0.38,-0.15 0.21,0.51 -1.38,0.56 -0.21,-0.51 0.42,-0.17 -0.38,-0.94 -1.55,0.63 0.38,0.94 0.41,-0.17 0.21,0.51 -1.38,0.56 z"
       id="path237" /><path
       d="m 35.04,5.09 0.39,-0.13 -0.8,-2.39 -0.4,0.14 -0.18,-0.53 2.57,-0.87 0.33,0.98 -0.56,0.19 -0.16,-0.46 -1.01,0.35 0.31,0.92 1.04,-0.35 0.16,0.5 -1.03,0.35 0.32,0.97 1.03,-0.34 -0.16,-0.46 0.57,-0.19 0.33,0.98 -2.57,0.87 z"
       id="path239" /><path
       d="m 499.18,461 0.37,1.4 a 51.06,51.06 0 0 1 43.71,89.89 l 0.89,1.15 a 52.51,52.51 0 0 0 -45,-92.44"
       transform="translate(-459.49,-459.39)"
       id="path241" /><path
       d="m 463.67,532.41 a 52.6,52.6 0 0 0 55.69,31.48 l -0.2,-1.44 A 51.06,51.06 0 0 1 485.1,468.5 l -0.75,-1.25 a 52.59,52.59 0 0 0 -20.68,65.16"
       transform="translate(-459.49,-459.39)"
       id="path243" /><path
       d="m 61.58,102.21 0.41,-0.09 0.52,2.47 -0.41,0.08 0.12,0.55 2.66,-0.56 -0.22,-1.02 -0.58,0.13 0.1,0.47 -1.06,0.22 -0.21,-1 1.07,-0.23 -0.11,-0.52 -1.07,0.23 -0.2,-0.95 1.05,-0.22 0.1,0.47 0.58,-0.12 -0.21,-1.02 -2.65,0.56 z"
       id="path245" /><path
       d="m 525.51,561.19 c -0.65,0.18 -0.85,0.64 -0.75,1 0.1,0.36 0.42,0.48 1.11,0.47 0.38,0 0.5,0 0.54,0.16 0.04,0.16 -0.12,0.3 -0.36,0.37 a 1.22,1.22 0 0 1 -0.44,0 0.54,0.54 0 0 0 0,-0.1 0.31,0.31 0 0 0 -0.4,-0.22 0.32,0.32 0 0 0 -0.22,0.4 0.42,0.42 0 0 0 0.22,0.28 1.47,1.47 0 0 0 1,0 c 0.53,-0.14 0.91,-0.53 0.78,-1 -0.13,-0.47 -0.48,-0.47 -1.08,-0.47 -0.38,0 -0.53,0 -0.57,-0.16 -0.04,-0.16 0.06,-0.28 0.32,-0.35 a 1,1 0 0 1 0.35,0 0.37,0.37 0 0 0 0,0.1 0.31,0.31 0 0 0 0.59,-0.19 0.43,0.43 0 0 0 -0.21,-0.26 1.27,1.27 0 0 0 -0.86,-0.05"
       transform="translate(-459.49,-459.39)"
       id="path247" /><path
       d="m 527.72,559.78 -0.49,0.43 0.16,0.48 -0.45,0.15 0.16,0.48 0.45,-0.14 0.39,1.18 a 0.76,0.76 0 0 0 0.2,0.34 0.68,0.68 0 0 0 0.72,0.11 1.29,1.29 0 0 0 0.51,-0.32 l -0.11,-0.51 a 1.2,1.2 0 0 1 -0.41,0.27 0.27,0.27 0 0 1 -0.28,0 0.33,0.33 0 0 1 -0.09,-0.16 l -0.35,-1.07 0.7,-0.23 -0.16,-0.48 -0.7,0.23 z"
       transform="translate(-459.49,-459.39)"
       id="path249" /><path
       d="m 530.21,561.36 a 0.46,0.46 0 1 0 0.58,0.27 0.46,0.46 0 0 0 -0.58,-0.27"
       transform="translate(-459.49,-459.39)"
       id="path251" /><path
       d="m 74.36,100.86 -1.17,-2.64 -0.27,0.12 -0.79,0.69 0.37,0.49 0.44,-0.37 0.87,1.95 -0.61,0.27 0.24,0.54 1.76,-0.77 -0.25,-0.55 z"
       id="path253" /><path
       d="m 535.67,558 a 0.63,0.63 0 0 1 -0.89,-0.24 0.68,0.68 0 0 1 0.33,-0.92 0.75,0.75 0 0 1 0.54,-0.06 0.62,0.62 0 0 1 0.39,0.31 0.69,0.69 0 0 1 -0.36,0.91 m 0.18,-1.71 a 1.35,1.35 0 0 0 -1.61,1.75 1.16,1.16 0 0 0 1.61,0.43 1.05,1.05 0 0 0 0.57,-0.75 c 0.36,0.76 0.12,1.36 -0.21,1.52 a 0.8,0.8 0 0 1 -0.3,0.09 0.46,0.46 0 0 0 0,-0.12 0.38,0.38 0 0 0 -0.52,-0.15 0.39,0.39 0 0 0 -0.15,0.53 0.51,0.51 0 0 0 0.29,0.25 1.17,1.17 0 0 0 0.89,-0.12 c 0.73,-0.37 1,-1.32 0.43,-2.48 a 1.77,1.77 0 0 0 -1,-0.95"
       transform="translate(-459.49,-459.39)"
       id="path255" /><path
       d="m 539.33,557.47 a 0.75,0.75 0 0 1 -0.53,0.1 0.61,0.61 0 0 1 -0.4,-0.28 0.68,0.68 0 0 1 0.31,-0.93 0.63,0.63 0 0 1 0.9,0.18 0.68,0.68 0 0 1 -0.27,0.94 m -0.84,-1.57 a 1,1 0 0 0 -0.52,0.79 c -0.42,-0.74 -0.2,-1.35 0.11,-1.53 a 0.86,0.86 0 0 1 0.29,-0.11 0.33,0.33 0 0 0 0,0.12 0.38,0.38 0 0 0 0.53,0.11 0.39,0.39 0 0 0 0.11,-0.53 0.51,0.51 0 0 0 -0.32,-0.23 1.21,1.21 0 0 0 -0.87,0.18 c -0.7,0.42 -0.94,1.38 -0.27,2.5 a 1.72,1.72 0 0 0 1,0.86 1.35,1.35 0 0 0 1.54,-1.84 1.16,1.16 0 0 0 -1.63,-0.32"
       transform="translate(-459.49,-459.39)"
       id="path257" /><path
       d="m 542,554.32 a 1.39,1.39 0 0 0 -0.33,0.07 1.07,1.07 0 0 0 0.21,-0.3 0.79,0.79 0 0 0 0,-0.81 1.05,1.05 0 0 0 -1.51,-0.09 1.21,1.21 0 0 0 -0.61,0.94 0.58,0.58 0 0 0 0.09,0.33 0.4,0.4 0 0 0 0.56,0.15 0.37,0.37 0 0 0 0.1,-0.51 0.38,0.38 0 0 0 -0.19,-0.14 0.76,0.76 0 0 1 0.32,-0.35 c 0.27,-0.18 0.58,-0.22 0.75,0 a 0.5,0.5 0 0 1 0,0.54 1.38,1.38 0 0 1 -0.42,0.44 l -0.15,0.1 0.27,0.39 0.14,-0.09 a 1.45,1.45 0 0 1 0.53,-0.25 0.53,0.53 0 0 1 0.58,0.22 0.58,0.58 0 0 1 -0.22,0.83 1,1 0 0 1 -0.58,0.19 0.4,0.4 0 0 0 -0.06,-0.23 0.37,0.37 0 0 0 -0.51,-0.1 0.39,0.39 0 0 0 -0.07,0.56 0.64,0.64 0 0 0 0.29,0.22 1.37,1.37 0 0 0 1.2,-0.24 1.12,1.12 0 0 0 0.48,-1.56 0.87,0.87 0 0 0 -0.84,-0.36"
       transform="translate(-459.49,-459.39)"
       id="path259" /><path
       d="m 86.67,43.84 h -0.9 v -0.31 h 2.16 v 0.31 h -0.9 v 2.4 h -0.36 z"
       id="path261" /><path
       d="m 88.24,43.53 h 0.49 l 0.86,2.27 0.85,-2.27 h 0.5 v 2.71 h -0.35 v -2.25 l -0.85,2.25 h -0.31 l -0.84,-2.25 h -0.01 v 2.25 h -0.34 z"
       id="path263" /></g></svg>
