<?xml version="1.0" encoding="UTF-8" standalone="no"?>
<svg
   viewBox="0 0 24 24"
   width="24pt"
   height="24pt"
   version="1.1"
   id="svg1"
   xml:space="preserve"
   xmlns="http://www.w3.org/2000/svg"
   xmlns:svg="http://www.w3.org/2000/svg"><defs
     id="defs1" /><g
     id="g1"
     transform="matrix(0.03358782,0,0,0.03358782,1.9891294,1.8299988)"><path
       d="m 403.482,133 c 0,58.025 0.12,81.762 0.268,52.75 0.147,-29.013 0.147,-76.488 0,-105.5 -0.148,-29.013 -0.268,-5.275 -0.268,52.75"
       stroke="none"
       fill="#20443c"
       fill-rule="evenodd"
       id="path1-0" /><path
       d="m 397.5,30.862 c -2.75,1.554 -7.925,4.529 -11.5,6.611 -3.575,2.082 -8.975,5.142 -12,6.8 -3.025,1.658 -5.95,3.358 -6.5,3.776 -0.55,0.419 -7.075,4.235 -14.5,8.481 -28.093,16.064 -33.86,19.406 -40.355,23.381 -3.674,2.249 -6.891,4.089 -7.149,4.089 -0.508,0 -15.669,8.827 -21.725,12.647 -2.05,1.294 -3.943,2.353 -4.206,2.353 -0.262,0 -2.859,1.418 -5.771,3.152 -6.001,3.572 -26.053,15.129 -42.042,24.23 -5.912,3.365 -10.749,6.43 -10.75,6.811 -0.001,0.381 5.061,3.586 11.248,7.122 19.775,11.301 37.095,21.289 42.544,24.533 2.912,1.734 5.509,3.152 5.771,3.152 0.263,0 2.156,1.059 4.206,2.353 7.749,4.889 21.305,12.656 22.493,12.888 0.68,0.132 -33.864,0.47 -76.764,0.75 l -78,0.509 -0.256,78.744 -0.256,78.744 77.209,0.256 77.208,0.256 -50.452,16.902 c -57.227,19.172 -60.953,20.482 -60.952,21.42 0.002,3.563 11.509,26.936 15.611,31.71 1.313,1.529 2.388,3.153 2.388,3.61 0,1.928 24.082,24.858 30.579,29.116 15.772,10.336 33.277,17.33 50.833,20.31 14.458,2.454 38.392,1.536 51.976,-1.995 48.293,-12.55 84.432,-50.572 94.221,-99.127 1.348,-6.688 1.789,-13.363 1.745,-26.446 -0.053,-15.782 -0.324,-18.482 -2.764,-27.5 -1.488,-5.5 -3.017,-10.305 -3.398,-10.678 -0.38,-0.373 -17.342,4.929 -37.692,11.782 -20.35,6.853 -48.363,16.228 -62.25,20.832 L 311,340.809 v -77.404 c 0,-42.573 0.234,-77.405 0.52,-77.405 0.286,0 2.198,1.06 4.25,2.355 3.608,2.277 9.588,5.736 38.23,22.115 7.425,4.246 13.95,8.062 14.5,8.481 0.55,0.418 3.475,2.118 6.5,3.776 6.178,3.386 14.917,8.414 22.75,13.088 l 5.25,3.133 V 133.474 c 0,-58.011 -0.113,-105.466 -0.25,-105.456 -0.137,0.01 -2.5,1.29 -5.25,2.844"
       stroke="none"
       fill="#1c443c"
       fill-rule="evenodd"
       id="path2" /></g></svg>
