<?xml version="1.0" encoding="UTF-8" standalone="no"?>
<svg
   viewBox="0 0 24 24"
   width="24pt"
   height="24pt"
   version="1.1"
   id="svg24408"
   sodipodi:docname="thomas_exchange.svg"
   xml:space="preserve"
   inkscape:version="1.2.2 (732a01da63, 2022-12-09)"
   xmlns:inkscape="http://www.inkscape.org/namespaces/inkscape"
   xmlns:sodipodi="http://sodipodi.sourceforge.net/DTD/sodipodi-0.dtd"
   xmlns="http://www.w3.org/2000/svg"
   xmlns:svg="http://www.w3.org/2000/svg"><defs
     id="defs24412" /><sodipodi:namedview
     id="namedview24410"
     pagecolor="#ffffff"
     bordercolor="#000000"
     borderopacity="0.25"
     inkscape:showpageshadow="2"
     inkscape:pageopacity="0.0"
     inkscape:pagecheckerboard="0"
     inkscape:deskcolor="#d1d1d1"
     inkscape:document-units="pt"
     showgrid="false"
     inkscape:zoom="17.876543"
     inkscape:cx="10.600483"
     inkscape:cy="16.893646"
     inkscape:window-width="1920"
     inkscape:window-height="974"
     inkscape:window-x="-11"
     inkscape:window-y="1609"
     inkscape:window-maximized="1"
     inkscape:current-layer="svg24408" /><ellipse
     style="fill:#ffffff;fill-rule:evenodd;stroke-width:0.863069"
     id="path24583"
     cx="12.014832"
     cy="9.9085283"
     rx="8.1878862"
     ry="8.0098886" /><ellipse
     style="fill:#0468be;fill-opacity:1;fill-rule:evenodd;stroke-width:0.797517"
     id="ellipse24585"
     cx="11.999998"
     cy="9.9975281"
     rx="7.4907293"
     ry="7.4758959" /><g
     id="g25503"
     transform="matrix(0.04565506,0,0,0.04565506,6.7916373,4.8329708)"><path
       fill="#0468be"
       opacity="1"
       stroke="none"
       d="m 2,1 c 74.593697,0 149.18739,0 224,0 0,74.354088 0,148.70839 -0.46866,223.53123 -74.81839,0.46151 -149.168112,0.45446 -223.522887,-0.0199 C 2.002274,149.69603 2.001137,75.348015 2,1 m 128.55002,151.55267 c -0.17665,-0.58233 -0.35332,-1.16467 -0.77573,-1.90318 0,0 -0.17026,0.23622 -0.84044,-0.20148 -1.30752,-0.15596 -2.61504,-0.31193 -3.91371,-1.3173 1.64066,-1.02086 3.28133,-2.04171 5.75607,-3.5882 0.76389,1.20926 1.67966,2.35233 2.2444,3.64838 0.4655,1.06828 0.44436,3.30015 0.76099,3.32298 1.69719,0.12238 3.62109,0.0771 5.06938,-0.67513 0.65084,-0.33804 0.34889,-2.45959 0.53385,-3.76413 0.1148,-0.80976 0.33194,-1.60502 0.50315,-2.40679 2.19158,7.48794 2.19158,7.48794 5.35637,6.47818 -0.40779,-1.64751 -1.23906,-3.24233 -1.08825,-4.73815 0.40103,-3.97851 0.56935,-3.96155 -1.2479,-7.01565 -1.13339,1.51068 -2.18751,2.91572 -3.24164,4.32078 -0.0962,-0.41583 -0.19242,-0.83166 -0.28865,-1.2475 -2.39555,0.36982 -4.80915,0.6545 -7.17672,1.15632 -0.81217,0.17213 -1.50917,0.88754 -2.67113,0.52856 -1.4467,-0.15913 -2.89341,-0.31825 -4.34011,-0.47739 -0.14858,-0.46461 -0.29716,-0.92923 -0.44573,-1.39386 1.99362,-0.74859 3.98724,-1.49719 5.98086,-2.24579 -0.062,-0.23748 -0.12393,-0.47496 -0.1859,-0.71243 -2.47851,0 -4.95704,0 -7.42877,0 0,4.12975 0,7.90596 -0.009,12.18691 0.29267,0.079 0.58532,0.15802 1.73071,0.36119 1.71394,-0.0773 3.42789,-0.15454 5.71775,-0.31632 m -22.21103,-51.55224 c -0.44639,0.0502 -0.89277,0.10048 -2.20212,0.34817 -0.0987,6.08319 -0.27109,12.16676 -0.24091,18.24931 0.007,1.41359 0.70404,2.82376 1.96,4.38 0.77521,-0.90896 2.06549,-1.73807 2.22128,-2.74306 0.35326,-2.27878 -0.29491,-4.7698 0.3186,-6.93208 0.44033,-1.55195 2.26344,-2.71156 3.46968,-4.04619 0.8346,1.38865 2.2114,2.71106 2.39089,4.17978 0.37347,3.05598 0.1129,6.18946 0.1129,9.2182 2.8105,0.46882 5.13881,1.11129 5.38488,-2.72561 4.94267,5.28115 11.08614,1.79037 16.20542,2.78041 0,-3.97216 -0.0358,-7.44991 0.01,-10.92657 0.0474,-3.60594 -1.57757,-5.70509 -5.26278,-5.85464 -3.74112,-0.15181 -7.68127,-0.50927 -8.72326,4.33433 2.9791,3.23286 6.64466,-4.40109 9.27558,0.88257 -4.22055,1.98554 -8.21851,3.86639 -12.23739,4.87868 -10e-4,-1.15247 0.0294,-2.30602 -0.01,-3.45721 -0.1978,-5.83526 -3.22324,-7.89939 -8.76825,-6.03332 -0.72333,0.24343 -1.50646,0.30919 -2.13054,-0.37783 -0.37104,-2.0014 -0.74208,-4.00281 -1.77421,-6.15494 M 71.736649,90.897476 c 0.554046,0.771095 1.122161,1.532524 1.659751,2.314926 2.654595,3.863434 6.485741,4.691429 10.569939,3.348183 3.875282,-1.274544 5.746742,-4.557022 5.570892,-8.585525 -0.183456,-4.202683 -2.188499,-7.304612 -6.620178,-8.215569 -4.424675,-0.909515 -7.814743,0.454697 -9.94178,4.619354 -0.477096,0.934128 -1.28862,1.697449 -2.222542,1.868477 -1.36087,-2.091087 -2.280258,-4.982178 -4.208015,-6.046013 -1.890228,-1.043136 -4.806362,-0.227249 -7.297772,-0.227249 -0.08292,-1.773643 -0.181457,-3.881561 -0.279995,-5.989479 -0.502704,-0.301125 -1.005409,-0.602249 -1.508113,-0.903374 -0.922825,1.229264 -2.576497,2.420685 -2.642434,3.694313 -0.291198,5.624405 -0.02663,11.274803 -0.160232,16.911126 -0.0869,3.66584 1.727257,3.500534 4.75217,2.574073 0,-3.417732 -0.281608,-6.75093 0.146931,-9.990173 0.158119,-1.195198 1.989605,-2.169029 3.057869,-3.243828 0.864464,1.145432 2.215542,2.1885 2.482937,3.459541 0.435387,2.069497 0.321243,4.3004 0.153686,6.44085 -0.295585,3.775932 1.206124,4.732956 4.265427,3.52568 0.556008,-2.039016 1.021179,-3.744911 2.221459,-5.555313 M 58.992321,108.25457 c -0.04535,-0.74383 -0.0907,-1.48766 0.0072,-2.66174 0,0 0.04213,-0.4515 0.924839,-0.57715 3.005265,-0.33576 6.010529,-0.67153 9.168297,-1.67382 -0.051,-0.45005 -0.101982,-0.90009 -0.456779,-2.16301 -4.208168,-0.006 -8.41634,-0.0127 -13.439644,0.267 0,7.69066 0,15.38131 0,22.32405 5.060005,0 9.737732,-0.46165 14.277176,0.13273 4.344535,0.56887 7.241745,-0.56518 8.653343,-3.8571 2.727577,1.6538 5.327659,3.23031 7.927742,4.80681 0.369003,-0.43386 0.738014,-0.86772 1.107025,-1.30159 -2.202972,-4.60316 -9.248123,-8.61272 -0.796219,-14.52203 -0.600395,-0.35811 -1.200783,-0.71624 -1.80117,-1.07436 -2.130745,0.91324 -4.261498,1.82649 -5.333504,2.28595 -2.917442,-1.47725 -5.272644,-2.6698 -7.627846,-3.86235 -0.313751,0.43059 -0.62751,0.86118 -0.941269,1.29178 1.763062,2.53442 3.526116,5.06884 5.345185,7.68378 -1.848076,2.6473 -3.638367,5.21183 -5.567169,7.97478 -0.552804,-1.13677 -1.016396,-2.0901 -2.345101,-3.30795 -3.019646,-0.0602 -6.039287,-0.12032 -9.089519,-0.61729 0,0 -0.146447,-0.41267 -0.01221,-1.19948 -0.04549,-1.06001 -0.09097,-2.12003 0.286396,-3.92039 2.574932,-0.14472 5.149864,-0.28945 8.447388,-0.41337 0.256004,-1.2018 0.512001,-2.40359 0.858452,-4.03001 -3.722626,0 -6.636013,0 -9.580018,-0.43668 0,0 -0.146488,-0.41251 -0.01257,-1.14856 M 121.19633,96.737206 c 4.06479,0 8.12957,0 11.79619,0 0,-3.877968 -0.13577,-7.187928 0.036,-10.481858 0.19414,-3.723694 -1.09992,-6.234985 -4.9951,-6.682998 -3.86654,-0.444703 -7.63594,-0.373848 -9.63324,5.716049 2.41376,-0.749077 3.84511,-1.397484 5.3366,-1.597611 1.43744,-0.192878 2.93701,0.07726 4.40929,0.143982 -0.0843,0.404167 -0.16852,0.808335 -0.25278,1.212502 -3.61336,1.633667 -7.22672,3.267341 -11.27536,5.097801 -0.14507,-1.11792 -0.47355,-2.786194 -0.55914,-4.46685 -0.28195,-5.537217 -3.64013,-7.600716 -8.74816,-5.32943 -0.76848,0.34169 -1.62434,0.837227 -2.39455,0.766815 -4.43537,-0.405479 -8.857136,-0.959862 -13.655598,-1.506141 0,5.24514 0.08553,9.559829 -0.02519,13.869476 -0.101082,3.934143 1.881844,3.808868 3.608093,3.237259 3.255684,-4.627335 -2.357933,-11.479485 6.503955,-14.215874 0,4.103714 0.10949,7.380913 -0.0302,10.647453 -0.14574,3.408928 1.10628,4.568505 4.79825,3.005753 0,-3.14666 -0.28204,-6.487701 0.14546,-9.735344 0.16024,-1.2173 1.97081,-2.217361 3.02894,-3.316467 0.67393,1.137207 1.83223,2.23481 1.92906,3.419197 0.26784,3.276253 0.0927,6.588714 0.0927,11.334785 2.93516,-1.514854 4.83516,-2.495453 6.87361,-3.5475 0.61991,0.526527 1.48906,1.264747 3.01114,2.429001 m 46.2197,30.493974 c -2.68652,-0.71751 -5.37303,-1.43502 -8.61143,-2.29993 1.31721,5.92526 5.20007,6.03663 9.08284,5.93479 3.76991,-0.0989 6.62381,-1.86551 6.82879,-5.82138 0.30576,-5.90045 0.0794,-11.82848 0.0794,-17.34978 -3.3358,-0.31258 -6.10541,-0.66397 -8.88582,-0.80996 -3.68308,-0.1934 -6.50281,1.71754 -6.76666,5.18814 -0.24582,3.23316 0.0602,7.34625 1.90396,9.64194 1.54608,1.92508 5.65936,1.78838 9.07571,2.67922 -0.35309,0.50246 -1.11571,1.5877 -2.70674,2.83696 m -57.9069,5.74271 c 0.73528,-0.80893 1.47056,-1.61786 2.33565,-2.56961 -8.12606,-2.49744 -9.5405,5.96582 -15.045004,8.54099 0,-3.19474 0,-5.93235 0,-8.98255 -1.814056,0.13185 -3.191315,0.23195 -4.567573,0.33197 0,7.67003 0,14.942 0,22.39267 1.591766,0 2.971244,0 4.319023,0 0.783272,-7.43475 0.783272,-7.43475 3.958724,-9.61259 4.18188,2.89935 3.25965,11.74734 12.16162,9.55102 -2.97755,-4.71231 -5.85109,-9.26001 -8.73633,-13.82625 1.86329,-1.95288 3.46866,-3.63542 5.57389,-5.82565 m -34.616413,19.85372 c 0.985421,0.14367 1.966378,0.35392 2.956971,0.42039 7.381614,0.49521 10.059318,-1.79686 10.376121,-9.13028 0.179032,-4.1443 0.07844,-8.30121 0.07006,-12.45236 -9.16e-4,-0.4543 -0.225235,-0.90814 -0.429031,-1.67485 -1.406273,0.11548 -2.778168,0.22813 -4.389824,0.36046 0,4.86622 0.04718,9.3412 -0.01784,13.81456 -0.0385,2.64883 -0.473419,5.00671 -4.040733,4.97963 -3.480355,-0.0265 -4.646431,-1.84296 -4.595444,-5.04375 0.07329,-4.60185 0.01871,-9.20573 0.01871,-14.17156 -1.981392,0.16665 -3.344337,0.28129 -4.8489,0.40781 0,1.73911 -0.0017,3.05731 3.36e-4,4.3755 0.0053,3.48772 -0.515762,7.08661 0.187683,10.42754 0.55056,2.61482 2.619561,4.90994 4.711891,7.68691 M 188.82394,123.4586 c 1.09108,-1.22317 2.18216,-2.44632 2.99744,-3.3603 -2.89246,-3.96566 -8.19455,5.11397 -10.18947,-3.15418 2.18543,0 3.83922,0 5.49303,0 1.62298,0 3.24597,0 4.84808,0 0.23998,-6.97701 -2.31444,-10.20054 -7.63565,-10.09089 -4.91623,0.10129 -7.83613,3.88871 -7.48703,9.71147 0.36969,6.16603 3.86067,8.40564 11.9736,6.8939 M 143.42128,93.782501 c -2.78848,-0.777565 -5.57698,-1.555122 -8.36546,-2.33268 2.40045,5.513863 7.96551,7.251221 11.92619,4.592133 1.42068,-0.953796 2.84824,-3.120285 2.79895,-4.686943 -0.0466,-1.483307 -1.7489,-3.366959 -3.21863,-4.244942 -2.10176,-1.255562 -4.6546,-1.75605 -7.01481,-2.578987 0.11135,-0.487533 0.22271,-0.975067 0.33406,-1.462608 3.04294,0.461487 6.08586,0.922973 10.38496,1.574974 -1.51067,-2.057816 -1.99802,-3.416344 -2.66249,-3.509346 -3.28714,-0.460091 -6.67616,-1.009842 -9.90761,-0.590576 -1.07704,0.139747 -2.92107,4.017486 -2.47435,4.545746 1.73674,2.053718 4.21114,3.510627 6.50281,5.053306 0.79355,0.534203 2.02272,0.47712 2.71681,1.078217 0.31833,0.275673 -0.17523,1.488823 -1.02043,2.561706 M 41.493355,82.534973 c 0,4.623406 0,9.246811 0,14.078385 1.822246,0 3.094246,0 4.857658,0 0,-6.220131 0,-12.314049 0,-18.492196 2.432392,-0.1856 4.383789,-0.334495 6.64114,-0.506736 -0.139534,-1.434983 -0.254986,-2.6223 -0.368629,-3.791016 -6.042984,0 -11.680428,0 -17.307644,0 -1.026402,2.794472 -0.540917,4.432617 2.684913,4.022301 2.959385,-0.376419 3.875748,1.021019 3.492562,4.689262 M 153.00973,107.18705 c -3.89837,0.37305 -7.79675,0.74609 -11.82875,1.13191 0,5.0922 0,10.19339 0,15.44004 1.41236,0 2.64569,0 4.29889,0 0,-3.01627 -0.3845,-5.88988 0.13634,-8.58876 0.34235,-1.774 1.99095,-3.29592 3.0546,-4.93072 1.02105,1.59048 2.63273,3.07869 2.92987,4.79454 0.49084,2.83445 0.13331,5.81581 0.13331,9.70846 2.05935,-0.98423 4.20528,-1.62563 4.16303,-2.04818 -0.50521,-5.05114 2.2688,-10.62407 -2.88729,-15.50729 m -64.5693,11.47838 c 1.392936,4.29156 4.443733,5.99602 8.80764,5.6178 3.53301,-0.30619 5.81035,-2.01009 6.65986,-6.91172 -2.18203,0.91964 -3.56044,1.69547 -5.040407,2.07 -1.507171,0.3814 -3.114281,0.36785 -4.677635,0.52725 -0.140335,-2.80417 -0.378975,-5.6142 -0.213089,-8.40013 0.01182,-0.19841 3.008751,-0.4089 4.587456,-0.27011 1.539955,0.13539 3.041145,0.71173 5.383145,1.30218 -2.55398,-6.15894 -6.627049,-6.557 -10.579343,-5.32087 -5.020889,1.57034 -5.692215,5.96657 -4.927627,11.3856 m 77.28986,33.56493 c 0.70417,-2.88914 1.82368,-5.76633 1.90739,-8.67334 0.0333,-1.15686 -2.04544,-2.86111 -3.50316,-3.40712 -1.00952,-0.37811 -3.31079,0.44631 -3.76785,1.36426 -0.69051,1.38675 -0.44765,3.34279 -0.25827,5.01808 0.0918,0.81212 1.45915,1.57755 1.39937,2.29311 -0.33252,3.9799 -0.42168,3.97246 4.22252,3.40501 m 13.71456,-0.14934 c 2.72394,1.5909 5.88401,1.50385 6.35146,-1.66038 0.47641,-3.22487 -1.02211,-6.74149 -1.65594,-10.13037 -1.94874,0.6846 -5.34504,1.06126 -5.56875,2.11282 -0.61608,2.89627 0.0964,6.07517 0.87323,9.67793 m -5.64314,-3.66685 c 1.15372,-2.61995 2.30744,-5.2399 3.59371,-8.16087 -3.18221,0 -5.75806,0 -8.33393,0 -0.15008,0.36386 -0.30015,0.72772 -0.45024,1.09156 1.48103,0.79648 2.96205,1.59294 4.11739,2.21427 -0.75534,3.06033 -1.48967,6.03552 -2.224,9.01069 0.59372,0.13973 1.18742,0.27947 1.78113,0.41919 0.41308,-1.28547 0.82615,-2.57097 1.51594,-4.57484 m -16.87942,-7.21538 c -3.95125,-2.4397 -4.08054,1.89337 -5.86042,3.67204 0.91822,0 1.83641,0 2.6763,0 0.31452,2.8006 0.61026,5.43424 0.90603,8.06787 0.76744,-0.0414 1.53489,-0.0827 2.30233,-0.12403 0,-3.585 0,-7.16997 -0.0242,-11.61588 z"
       id="path25390" /><path
       fill="#1c72c2"
       opacity="1"
       stroke="none"
       d="M 1.5,1 C 2.001137,75.348015 2.002274,149.69603 2.004653,224.7668 2.00393,225.65968 2.001965,225.82983 2.000001,226 1.666669,224.50404 1.042677,223.00829 1.041707,221.51211 0.994087,148.0081 1,74.504051 1.5,1 Z"
       id="path25392" /><path
       fill="#1670c2"
       opacity="1"
       stroke="none"
       d="m 2.468657,226 c -0.466692,-0.17017 -0.464727,-0.34032 -0.458962,-0.7659 74.353533,-0.24841 148.703255,-0.24136 223.521645,-0.23421 -1.02777,0.33345 -2.52402,0.9574 -4.02066,0.95839 C 148.65291,226.00595 75.795113,226 2.468657,226 Z"
       id="path25394" /><path
       fill="#ebf0f8"
       opacity="1"
       stroke="none"
       d="m 120.86986,96.524185 c -1.19561,-0.951233 -2.06476,-1.689453 -2.68467,-2.21598 -2.03845,1.052047 -3.93845,2.032646 -6.87361,3.5475 0,-4.746071 0.17511,-8.058532 -0.0927,-11.334785 -0.0968,-1.184387 -1.25513,-2.28199 -1.92906,-3.419197 -1.05813,1.099106 -2.8687,2.099167 -3.02894,3.316467 -0.4275,3.247643 -0.14546,6.588684 -0.14546,9.735344 -3.69197,1.562752 -4.94399,0.403175 -4.79825,-3.005753 0.13966,-3.26654 0.0302,-6.543739 0.0302,-10.647453 -8.86189,2.736389 -3.248273,9.588539 -6.503957,14.215874 -1.726249,0.571609 -3.709175,0.696884 -3.608093,-3.237259 0.110718,-4.309647 0.02519,-8.624336 0.02519,-13.869476 4.798462,0.546279 9.22023,1.100662 13.6556,1.506141 0.77021,0.07041 1.62607,-0.425125 2.39455,-0.766815 5.10803,-2.271286 8.46621,-0.207787 8.74816,5.32943 0.0856,1.680656 0.41407,3.34893 0.55914,4.46685 4.04864,-1.83046 7.662,-3.464134 11.27536,-5.097801 0.0843,-0.404167 0.16852,-0.808335 0.25278,-1.212502 -1.47228,-0.06673 -2.97185,-0.33686 -4.40929,-0.143982 -1.49149,0.200127 -2.92284,0.848534 -5.3366,1.597611 1.9973,-6.089897 5.7667,-6.160752 9.63324,-5.716049 3.89518,0.448013 5.18924,2.959304 4.9951,6.682998 -0.17174,3.29393 -0.036,6.60389 -0.036,10.481858 -3.66662,0 -7.7314,0 -12.12266,-0.213021 z"
       id="path25396" /><path
       fill="#f1e220"
       opacity="1"
       stroke="none"
       d="m 68.939659,101.99173 c 0.051,0.45004 0.101982,0.90008 -0.365867,1.66756 -3.523285,0.70563 -6.527722,1.09384 -9.532162,1.48204 0,0 -0.04213,0.4515 -0.298107,0.88048 -0.132359,1.27559 -0.0087,2.1222 0.114879,2.96881 0,0 0.146488,0.41251 0.45055,0.89297 2.400246,2.42137 7.004319,-0.95643 7.694916,3.96542 -2.574936,0.14473 -5.149868,0.28946 -8.130585,1.05076 -0.27547,1.77459 -0.145156,2.93261 -0.01484,4.09062 0,0 0.146447,0.41267 0.452443,0.89339 3.42316,0.80105 6.553604,2.67845 9.648628,0.40109 0.4636,0.95333 0.927192,1.90666 1.479996,3.04343 1.928802,-2.76295 3.719093,-5.32748 5.567169,-7.97478 -1.819069,-2.61494 -3.582123,-5.14936 -5.345185,-7.68378 0.313759,-0.4306 0.627518,-0.86119 0.941269,-1.29178 2.355202,1.19255 4.710404,2.3851 7.627846,3.86235 1.072006,-0.45946 3.202759,-1.37271 5.333504,-2.28595 0.600387,0.35812 1.200775,0.71625 1.80117,1.07436 -8.451904,5.90931 -1.406753,9.91887 0.796219,14.52203 -0.369011,0.43387 -0.738022,0.86773 -1.107025,1.30159 -2.600083,-1.5765 -5.200165,-3.15301 -7.927742,-4.80681 -1.411598,3.29192 -4.308808,4.42597 -8.653343,3.8571 -4.539444,-0.59438 -9.217171,-0.13273 -14.277176,-0.13273 0,-6.94274 0,-14.63339 0.40892,-22.00865 0.408917,6.72856 0.408917,13.14174 0.408917,19.55491 0.340557,0.006 0.681118,0.0111 1.021675,0.0167 0,-2.37542 3e-6,-4.75084 -4e-6,-7.12626 -4.2e-5,-12.04483 -4.2e-5,-12.04483 11.903938,-12.21488 z"
       id="path25398" /><path
       fill="#f2e31d"
       opacity="1"
       stroke="none"
       d="m 167.83023,127.14917 c 1.17683,-1.16725 1.93945,-2.25249 2.29254,-2.75495 -3.41635,-0.89084 -7.52963,-0.75414 -9.07571,-2.67922 -1.84372,-2.29569 -2.14978,-6.40878 -1.90396,-9.64194 0.26385,-3.4706 3.08358,-5.38154 6.76666,-5.18814 2.78041,0.14599 5.55002,0.49738 8.88582,0.80996 0,5.5213 0.22641,11.44933 -0.0794,17.34978 -0.20498,3.95587 -3.05888,5.72249 -6.82879,5.82138 -3.88277,0.10184 -7.76563,-0.01 -9.08284,-5.93479 3.2384,0.86491 5.92491,1.58242 9.02563,2.21792 m -4.1414,-14.68713 c -0.0797,1.76734 -0.79035,3.88701 -0.0569,5.20023 0.69581,1.24587 2.90387,1.64717 4.44691,2.41987 0.60991,-2.50275 2.13797,-5.22704 1.60088,-7.453 -0.69518,-2.88098 -3.30791,-3.38062 -5.99086,-0.1671 z"
       id="path25400" /><path
       fill="#f8fafd"
       opacity="1"
       stroke="none"
       d="m 109.2592,133.22772 c -1.8553,1.9364 -3.46067,3.61894 -5.32396,5.57182 2.88524,4.56624 5.75878,9.11394 8.73633,13.82625 -8.90197,2.19632 -7.97974,-6.65167 -12.16162,-9.55102 -3.175454,2.17784 -3.175454,2.17784 -3.958726,9.61259 -1.347779,0 -2.727257,0 -4.319023,0 0,-7.45067 0,-14.72264 0,-22.39267 1.376258,-0.10002 2.753517,-0.20012 4.567573,-0.33197 0,3.0502 0,5.78781 0,8.98255 5.504506,-2.57517 6.918946,-11.03843 15.045006,-8.54099 -0.86509,0.95175 -1.60037,1.76068 -2.58558,2.82344 z"
       id="path25402" /><path
       fill="#f8fafd"
       opacity="1"
       stroke="none"
       d="m 74.543716,152.65771 c -1.743331,-2.60707 -3.812332,-4.90219 -4.362892,-7.51701 -0.703445,-3.34093 -0.18235,-6.93982 -0.187683,-10.42754 -0.002,-1.31819 -3.36e-4,-2.63639 -3.36e-4,-4.3755 1.504563,-0.12652 2.867508,-0.24116 4.8489,-0.40781 0,4.96583 0.05458,9.56971 -0.01871,14.17156 -0.05099,3.20079 1.115089,5.0173 4.595444,5.04375 3.567314,0.0271 4.002235,-2.3308 4.040733,-4.97963 0.06502,-4.47336 0.01784,-8.94834 0.01784,-13.81456 1.611656,-0.13233 2.983551,-0.24498 4.389824,-0.36046 0.203796,0.76671 0.428115,1.22055 0.429031,1.67485 0.0084,4.15115 0.108971,8.30806 -0.07006,12.45236 -0.316803,7.33342 -2.994507,9.62549 -10.376121,9.13028 -0.990593,-0.0665 -1.97155,-0.27672 -3.30597,-0.59029 z"
       id="path25404" /><path
       fill="#f3f6fb"
       opacity="1"
       stroke="none"
       d="m 71.001541,91.001991 c -0.465172,1.705887 -0.930343,3.411782 -1.486351,5.450798 -3.059303,1.207276 -4.561012,0.250252 -4.265427,-3.52568 0.167557,-2.14045 0.281701,-4.371353 -0.153686,-6.44085 -0.267395,-1.271041 -1.618473,-2.314109 -2.482933,-3.459541 -1.068268,1.074799 -2.899754,2.04863 -3.057873,3.243828 -0.428539,3.239243 -0.146931,6.572441 -0.146931,9.990173 -3.024913,0.926461 -4.839073,1.091767 -4.75217,-2.574073 0.133606,-5.636323 -0.130966,-11.286721 0.160232,-16.911126 0.06594,-1.273628 1.719609,-2.465049 2.642434,-3.694313 0.502704,0.301125 1.005409,0.602249 1.508113,0.903374 0.09854,2.107918 0.197079,4.215836 0.279995,5.989479 2.49141,0 5.407544,-0.815887 7.297772,0.227249 1.927757,1.063835 2.847145,3.954926 4.338325,6.789818 0.126366,1.832825 0.122437,2.921844 0.1185,4.010864 z"
       id="path25406" /><path
       fill="#f0e21f"
       opacity="1"
       stroke="none"
       d="m 121.04256,117.89227 c 3.99798,-1.88083 7.99594,-3.76168 12.21649,-5.74722 -2.63092,-5.28366 -6.29648,2.35029 -9.27558,-0.88257 1.04199,-4.8436 4.98214,-4.48614 8.72326,-4.33433 3.68521,0.14955 5.31016,2.2487 5.26278,5.85464 -0.0457,3.47666 -0.01,6.95441 -0.01,10.92657 -5.11928,-0.99004 -11.26275,2.50074 -16.57234,-3.09927 -0.35951,-1.1185 -0.35211,-1.91817 -0.34471,-2.71782 z"
       id="path25408" /><path
       fill="#f4e51a"
       opacity="1"
       stroke="none"
       d="m 188.50427,123.64734 c -7.79326,1.323 -11.28424,-0.91661 -11.65393,-7.08264 -0.3491,-5.82276 2.5708,-9.61018 7.48703,-9.71147 5.32121,-0.10965 7.87563,3.11388 7.63565,10.09089 -1.60211,0 -3.2251,0 -4.84808,0 -1.65381,0 -3.3076,0 -5.49303,0 1.99492,8.26815 7.29701,-0.81148 10.18947,3.15418 -0.81528,0.91398 -1.90636,2.13713 -3.31711,3.54904 z"
       id="path25410" /><path
       fill="#f1f5fa"
       opacity="1"
       stroke="none"
       d="m 71.369095,90.949738 c -0.363617,-1.036767 -0.359688,-2.125786 -0.347878,-3.623139 0.665436,-1.250305 1.47696,-2.013626 1.954056,-2.947754 2.127037,-4.164657 5.517105,-5.528869 9.94178,-4.619354 4.431679,0.910957 6.436722,4.012886 6.620178,8.215569 0.17585,4.028503 -1.69561,7.310981 -5.570892,8.585525 C 79.882141,97.903831 76.050995,97.075836 73.3964,93.212402 72.85881,92.43 72.290695,91.668571 71.369095,90.949738 m 5.636528,-4.134171 c 0.681923,2.057693 1.137436,4.244576 2.190704,6.090363 0.296463,0.519516 3.075234,0.510597 3.45398,-0.07366 1.07769,-1.662468 2.091613,-3.776848 1.995041,-5.654969 -0.07218,-1.403625 -1.848298,-3.747856 -2.972756,-3.812568 -1.451996,-0.08357 -3.010719,1.687523 -4.666969,3.450836 z"
       id="path25412" /><path
       fill="#eff3f9"
       opacity="1"
       stroke="none"
       d="m 143.78119,93.640068 c 0.48529,-0.93045 0.97885,-2.1436 0.66052,-2.419273 -0.69409,-0.601097 -1.92326,-0.544014 -2.71681,-1.078217 -2.29167,-1.542679 -4.76607,-2.999588 -6.50281,-5.053306 -0.44672,-0.52826 1.39731,-4.405999 2.47435,-4.545746 3.23145,-0.419266 6.62047,0.130485 9.90761,0.590576 0.66447,0.093 1.15182,1.45153 2.66249,3.509346 -4.2991,-0.652001 -7.34202,-1.113487 -10.38496,-1.574974 -0.11135,0.487541 -0.22271,0.975075 -0.33406,1.462608 2.36021,0.822937 4.91305,1.323425 7.01481,2.578987 1.46973,0.877983 3.17198,2.761635 3.21863,4.244942 0.0493,1.566658 -1.37827,3.733147 -2.79895,4.686943 -3.96068,2.659088 -9.52574,0.92173 -11.92619,-4.592133 2.78848,0.777558 5.57698,1.555115 8.72537,2.190247 z"
       id="path25414" /><path
       fill="#f8fafd"
       opacity="1"
       stroke="none"
       d="m 41.492802,82.047256 c 0.383739,-3.180526 -0.532624,-4.577964 -3.492009,-4.201545 -3.22583,0.410316 -3.711315,-1.227829 -2.684913,-4.022301 5.627216,0 11.26466,0 17.307644,0 0.113643,1.168716 0.229095,2.356033 0.368629,3.791016 -2.257351,0.172241 -4.208748,0.321136 -6.64114,0.506736 0,6.178147 0,12.272065 0,18.492196 -1.763412,0 -3.035412,0 -4.857658,0 0,-4.831574 0,-9.454979 -5.53e-4,-14.566102 z"
       id="path25416" /><path
       fill="#f9e716"
       opacity="1"
       stroke="none"
       d="m 153.3721,107.39854 c 4.79372,4.67173 2.01971,10.24466 2.52492,15.2958 0.0422,0.42255 -2.10368,1.06395 -4.16303,2.04818 0,-3.89265 0.35753,-6.87401 -0.13331,-9.70846 -0.29714,-1.71585 -1.90882,-3.20406 -2.92987,-4.79454 -1.06365,1.6348 -2.71225,3.15672 -3.0546,4.93072 -0.52084,2.69888 -0.13634,5.57249 -0.13634,8.58876 -1.6532,0 -2.88653,0 -4.29889,0 0,-5.24665 0,-10.34784 0,-15.44004 4.032,-0.38582 7.93038,-0.75886 12.19112,-0.92042 z"
       id="path25418" /><path
       fill="#f4e31c"
       opacity="1"
       stroke="none"
       d="m 121.0321,117.45799 c 0.003,1.23393 -0.004,2.0336 -0.004,3.233 0.47971,4.07486 -1.8486,3.43239 -4.6591,2.96357 0,-3.02874 0.26057,-6.16222 -0.1129,-9.2182 -0.17949,-1.46872 -1.55629,-2.79113 -2.39089,-4.17978 -1.20624,1.33463 -3.02935,2.49424 -3.46968,4.04619 -0.61351,2.16228 0.0347,4.6533 -0.3186,6.93208 -0.15579,1.00499 -1.44607,1.8341 -2.64855,2.21286 -0.42781,-7.78565 -0.42833,-15.0411 -0.42886,-22.29655 0.44639,-0.0503 0.89277,-0.10049 1.66151,0.31773 0.65507,2.48616 0.9878,4.50386 1.32052,6.52156 0.75542,-0.14806 1.53855,-0.21382 2.26188,-0.45725 5.54501,-1.86607 8.57045,0.19806 8.76825,6.03332 0.039,1.15119 0.008,2.30474 0.0201,3.89147 z"
       id="path25420" /><path
       fill="#f2e31d"
       opacity="1"
       stroke="none"
       d="m 88.328133,118.27994 c -0.652291,-5.03354 0.01904,-9.42977 5.039924,-11.00011 3.952294,-1.23613 8.025363,-0.83807 10.579343,5.32087 -2.342,-0.59045 -3.84319,-1.16679 -5.383145,-1.30218 -1.578705,-0.13879 -4.575638,0.0717 -4.587456,0.27011 -0.165886,2.78593 0.07275,5.59596 0.213089,8.40012 1.563354,-0.15939 3.170464,-0.14584 4.677635,-0.52724 1.479967,-0.37453 2.858377,-1.15036 5.040407,-2.07 -0.84951,4.90163 -3.12685,6.60553 -6.65986,6.91172 -4.363907,0.37822 -7.414704,-1.32624 -8.919937,-6.00329 z"
       id="path25422" /><path
       fill="#e2e9f5"
       opacity="1"
       stroke="none"
       d="m 129.9424,145.97653 c 0.74962,-0.46719 1.44662,-1.1826 2.25879,-1.35473 2.36757,-0.50182 4.78117,-0.7865 7.17672,-1.15632 0.0962,0.41584 0.19243,0.83167 0.28865,1.2475 1.05413,-1.40506 2.10825,-2.8101 3.24164,-4.32078 1.81725,3.0541 1.64893,3.03714 1.2479,7.01565 -0.15081,1.49582 0.68046,3.09064 1.08825,4.73815 -3.16479,1.00976 -3.16479,1.00976 -5.35637,-6.47818 -0.17121,0.80177 -0.38835,1.59703 -0.50315,2.40679 -0.18496,1.30454 0.11699,3.42609 -0.53385,3.76413 -1.44829,0.75226 -3.37219,0.79751 -5.06938,0.67513 -0.31663,-0.0228 -0.29549,-2.2547 -0.76099,-3.32298 -0.56474,-1.29605 -1.48051,-2.43912 -2.67997,-3.39701 -0.43557,0.25138 -0.39824,0.18265 -0.39824,0.18265 z"
       id="path25424" /><path
       fill="#e8eef7"
       opacity="1"
       stroke="none"
       d="m 165.40506,152.43942 c -4.31897,0.35839 -4.22981,0.36583 -3.89729,-3.61407 0.0598,-0.71556 -1.30758,-1.48099 -1.39937,-2.29311 -0.18938,-1.67529 -0.43224,-3.63133 0.25827,-5.01808 0.45706,-0.91795 2.75833,-1.74237 3.76785,-1.36426 1.45772,0.54601 3.53647,2.25026 3.50316,3.40712 -0.0837,2.90701 -1.20322,5.7842 -2.23262,8.8824 z"
       id="path25426" /><path
       fill="#e8eef7"
       opacity="1"
       stroke="none"
       d="m 179.14992,151.81319 c -0.48189,-3.33493 -1.19438,-6.51383 -0.5783,-9.4101 0.22371,-1.05156 3.62001,-1.42822 5.56875,-2.11282 0.63383,3.38888 2.13235,6.9055 1.65594,10.13037 -0.46745,3.16423 -3.62752,3.25128 -6.64639,1.39255 z"
       id="path25428" /><path
       fill="#ecf1f8"
       opacity="1"
       stroke="none"
       d="m 129.73624,145.56345 c 0.20616,0.41308 0.16883,0.48181 0.18736,0.49325 -1.62213,1.0323 -3.2628,2.05315 -4.60454,3.75928 1.6276,0.81343 2.95628,0.94159 4.28497,1.06973 0,0 0.17026,-0.23622 0.28287,0.14726 0.10414,0.79039 0.0957,1.1973 0.0872,1.60421 -1.71395,0.0773 -3.4279,0.15454 -5.69165,0.0225 -0.73369,-0.39118 -0.94111,-0.54024 -1.17205,-0.65657 0,-3.77622 0,-7.55243 0,-11.68218 2.47173,0 4.95026,0 7.42877,0 0.062,0.23747 0.12394,0.47495 0.1859,0.71243 -1.99362,0.7486 -3.98724,1.4972 -5.98086,2.24579 0.14857,0.46463 0.29715,0.92925 0.44573,1.39386 1.4467,0.15914 2.89341,0.31826 4.54629,0.89048 z"
       id="path25430" /><path
       fill="#ebf0f8"
       opacity="1"
       stroke="none"
       d="m 173.66336,148.77338 c -0.55144,1.64466 -0.96451,2.93016 -1.37759,4.21563 -0.59371,-0.13972 -1.18741,-0.27946 -1.78113,-0.41919 0.73433,-2.97517 1.46866,-5.95036 2.224,-9.01069 -1.15534,-0.62133 -2.63636,-1.41779 -4.11739,-2.21427 0.15009,-0.36384 0.30016,-0.7277 0.45024,-1.09156 2.57587,0 5.15172,0 8.33393,0 -1.28627,2.92097 -2.43999,5.54092 -3.73206,8.52008 z"
       id="path25432" /><path
       fill="#e2e9f5"
       opacity="1"
       stroke="none"
       d="m 156.93442,141.62924 c 0.0121,4.01546 0.0121,7.60043 0.0121,11.18543 -0.76744,0.0413 -1.53489,0.0827 -2.30233,0.12403 -0.29577,-2.63363 -0.59151,-5.26727 -0.90603,-8.06787 -0.83989,0 -1.75808,0 -2.6763,0 1.77988,-1.77867 1.90917,-6.11174 5.87255,-3.24159 z"
       id="path25434" /><path
       fill="#fbea0d"
       opacity="1"
       stroke="none"
       d="m 68.787758,101.58529 c -11.752079,0.57649 -11.752079,0.57649 -11.752037,12.62132 7e-6,2.37542 4e-6,4.75084 4e-6,7.12626 -0.340557,-0.006 -0.681118,-0.0111 -1.021675,-0.0167 0,-6.41317 0,-12.82635 -0.0014,-19.69795 4.206818,-0.45207 8.41499,-0.44572 12.775059,-0.0329 z"
       id="path25436" /><path
       fill="#ffef00"
       opacity="1"
       stroke="none"
       d="m 106.56835,101.24988 c 0.43201,7.15673 0.43253,14.41218 0.42213,22.12558 -0.39048,-0.95379 -1.08751,-2.36396 -1.09452,-3.77755 -0.0302,-6.08255 0.14226,-12.16612 0.67239,-18.34803 z"
       id="path25438" /><path
       fill="#fbea0d"
       opacity="1"
       stroke="none"
       d="m 67.365158,113.85942 c -1.051887,-4.93226 -5.65596,-1.55446 -8.040901,-3.75749 2.624638,-0.26212 5.538025,-0.26212 9.260651,-0.26212 -0.346451,1.62642 -0.602448,2.82821 -1.21975,4.01961 z"
       id="path25440" /><path
       fill="#fbea0d"
       opacity="1"
       stroke="none"
       d="m 68.526962,120.1526 c -2.662475,2.40963 -5.792919,0.53223 -9.20079,-0.0504 2.728947,-0.20216 5.748588,-0.142 9.20079,0.0504 z"
       id="path25442" /><path
       fill="#fbea0d"
       opacity="1"
       stroke="none"
       d="m 59.482986,105.07851 c 2.563084,-0.32538 5.567521,-0.71359 9.014557,-1.08596 -2.562675,0.3516 -5.567939,0.68737 -9.014557,1.08596 z"
       id="path25444" /><path
       fill="#ffef00"
       opacity="1"
       stroke="none"
       d="m 110.04753,107.57291 c -0.39839,-1.60016 -0.73112,-3.61786 -1.05565,-6.02866 0.37924,1.60831 0.75028,3.60972 1.05565,6.02866 z"
       id="path25446" /><path
       fill="#fbea0d"
       opacity="1"
       stroke="none"
       d="m 58.925556,118.59699 c -0.197429,-0.76461 -0.327743,-1.92263 -0.263698,-3.32705 0.239845,0.81361 0.285328,1.87363 0.263698,3.32705 z"
       id="path25448" /><path
       fill="#e2e9f5"
       opacity="1"
       stroke="none"
       d="m 129.26895,150.66687 c -0.99361,0.0907 -2.32229,-0.0375 -3.95431,-0.42618 1.00417,-0.10461 2.31169,0.0514 3.95431,0.42618 z"
       id="path25450" /><path
       fill="#fbea0d"
       opacity="1"
       stroke="none"
       d="m 58.925362,108.6226 c -0.190579,-0.47859 -0.314198,-1.3252 -0.253453,-2.38566 0.229714,0.52997 0.275063,1.2738 0.253453,2.38566 z"
       id="path25452" /><path
       fill="#e2e9f5"
       opacity="1"
       stroke="none"
       d="m 130.26205,152.59492 c -0.27948,-0.36465 -0.27101,-0.77156 -0.25228,-1.48387 0.18693,0.27695 0.3636,0.85929 0.25228,1.48387 z"
       id="path25454" /><path
       fill="#e2e9f5"
       opacity="1"
       stroke="none"
       d="m 123.10599,152.25543 c 0.23536,-0.13603 0.44278,0.013 0.7501,0.34213 -0.16921,0.0683 -0.46186,-0.0107 -0.7501,-0.34213 z"
       id="path25456" /><path
       fill="#0f6bbf"
       opacity="1"
       stroke="none"
       d="m 163.86118,112.11836 c 2.5106,-2.86984 5.12333,-2.3702 5.81851,0.51078 0.53709,2.22596 -0.99097,4.95025 -1.60086,7.453 -1.54306,-0.7727 -3.75112,-1.174 -4.44693,-2.41987 -0.73342,-1.31322 -0.0228,-3.43289 0.22928,-5.54391 z"
       id="path25458" /><path
       fill="#0f6bbf"
       opacity="1"
       stroke="none"
       d="m 77.07737,86.420128 c 1.584503,-1.367874 3.143226,-3.138962 4.595222,-3.055397 1.124458,0.06471 2.900574,2.408943 2.972756,3.812568 0.09657,1.878121 -0.917351,3.992501 -1.995041,5.654969 -0.378746,0.584259 -3.157517,0.593178 -3.45398,0.07366 -1.053268,-1.845787 -1.508781,-4.03267 -2.118957,-6.485802 z"
       id="path25460" /></g></svg>
