<svg xmlns="http://www.w3.org/2000/svg" width="24" height="24" viewBox="0 0 24 24"><path fill="#2d5588" fill-rule="evenodd" d="M3.07 7.36c-.04.04-.07.2-.07.36 0 .26.03.28.4.28h.4l.02 1.28.03 1.27h.8l.03-1.28L4.7 8h.66l-.04.78c-.04.65-.01.82.16 1.1q.45.72 1.4.72c.87 0 1.56-.53 1.63-1.27 0-.1.04.14.07.52l.06.7h2.1v-.7l-.57-.03-.57-.03-.03-1.22-.03-1.22h-.9L8.59 8c-.03.36-.06.57-.07.47-.04-.36-.37-.78-.77-.97-.69-.33-1.67-.21-2.05.25-.14.17-.15.16-.2-.1l-.05-.3-1.16-.03c-.63-.01-1.18 0-1.22.04m7.8.1a14 14 0 0 0 0 2.62l.06.53 1-.03 1.02-.03v-.7l-.57-.03-.57-.03-.03-1.22-.03-1.22-.41-.03c-.31-.02-.43.01-.48.13m2.29-.02c-.03.07-.04.8-.03 1.62l.03 1.5 1.13.03 1.12.03V9.9H14v-.3c0-.29 0-.3.63-.32.62-.03.62-.03.65-.35l.03-.33H14V8h1.41l-.03-.32-.03-.33-1.08-.03c-.82-.02-1.09 0-1.12.1m2.42-.06c-.09.1-.1 2.15 0 2.78.06.47.06.47.42.44l.36-.03.05-.94.05-.93.4.81c.5 1.03.6 1.13 1.16 1.1l.44-.04v-3.2h-.8l-.03.9-.03.9-.47-.9-.47-.9-.5-.03c-.28-.02-.54 0-.58.04m3.75.05c-.36.1-.72.59-.72.96 0 .32.4.74.9.92.34.12.46.23.48.4.04.24.03.24-.63.18l-.66-.06.03.37.03.37.7.03c.8.04 1.2-.1 1.4-.49.33-.64.08-1.19-.67-1.47-.3-.1-.54-.27-.56-.35-.04-.22.4-.32.77-.19.35.13.41.08.41-.33 0-.28-.04-.33-.31-.39a2.4 2.4 0 0 0-1.17.05M6.5 8.2c-.15.15-.2.33-.2.75q0 .94.63.95.6-.02.61-.95c0-.85-.55-1.24-1.04-.75"/></svg>