<svg xmlns="http://www.w3.org/2000/svg" width="24" height="24"><path fill="#d68d9b" fill-rule="evenodd" d="M4.3 4q.02.09.2.1c.18 0 .2.07.2.54 0 .75.18.82.22.09.03-.52.06-.58.26-.61q.2-.04.17-.13C5.27 3.87 4.3 3.87 4.3 4m3.5.08c-.48.39-.17 1.22.44 1.22.33 0 .66-.36.66-.7 0-.6-.64-.9-1.1-.52m3.6.53q0 .68.1.64c.05-.03.1-.25.1-.47 0-.41 0-.41.2-.22s.23.18.35.01q.27-.4.25.23c0 .22.04.4.1.4s.1-.28.1-.65c0-.36-.03-.65-.06-.65-.04 0-.18.12-.3.27l-.25.28-.24-.28a1 1 0 0 0-.3-.27c-.03 0-.05.32-.05.7m3.7 0q0 .7.1.65c.06-.03.1-.27.1-.52v-.45l.2.23c.19.23.2.23.34.07q.28-.42.26.22c0 .22.04.4.1.4s.1-.28.1-.65c0-.36-.03-.65-.07-.65s-.18.12-.3.27l-.23.28-.24-.28a1 1 0 0 0-.3-.27c-.04 0-.06.32-.06.7m3.6-.64c0 .03.09.17.2.31s.2.4.2.59.04.36.1.39q.1.04.1-.29a1 1 0 0 1 .25-.64c.13-.16.21-.32.18-.36-.04-.04-.17.06-.28.2l-.22.28-.18-.27c-.16-.24-.35-.36-.35-.21M7.9 4.3c-.25.25-.25.32-.01.61.16.2.23.22.47.14.5-.18.4-.95-.13-.95-.07 0-.22.09-.33.2M3 8.93V12h18V6h-2.23c-1.23 0-5.28-.03-9-.07L3 5.87zm1.27 3.95c-.1.17-.01 1.16.1 1.2q.13.03.13-.27c0-.29.03-.31.35-.31s.35.02.35.3c0 .17.05.3.1.3s.1-.28.1-.65c0-.64-.16-.91-.22-.37-.02.22-.08.28-.35.3-.3.03-.33.01-.33-.27s-.13-.41-.23-.23m2.53.57c0 .37.04.65.1.65s.1-.28.1-.65-.04-.65-.1-.65-.1.28-.1.65m1.6 0v.65l.43-.01c.38-.01.39-.02.12-.08-.29-.06-.3-.09-.33-.64-.04-.78-.22-.72-.22.08m2.1 0c0 .37.04.65.1.65s.1-.13.1-.3c0-.26.04-.3.26-.3q.23 0 .19-.1c-.03-.06-.15-.1-.26-.1-.1 0-.19-.07-.19-.15q.01-.15.25-.15t.25-.1c0-.06-.16-.1-.35-.1h-.35zm2 0c0 .37.04.65.1.65s.1-.28.1-.65-.04-.65-.1-.65-.1.28-.1.65m1.77-.47c-.38.42-.1 1.12.45 1.12.42 0 .58-.1.58-.36 0-.2-.05-.24-.27-.24q-.3 0-.15.12.27.28-.12.28c-.31 0-.48-.22-.44-.57.03-.26.06-.28.46-.28q.41 0 .42-.12c0-.2-.74-.16-.93.05m2.37-.04c-.03.07-.04.35-.02.62l.03.49.4.01q.37.02.13-.03-.3-.03-.28-.28c0-.18.06-.25.28-.28l.27-.04-.27-.01q-.29-.01-.28-.22t.2-.2c.1 0 .22-.04.25-.1q.05-.1-.3-.1c-.21 0-.38.06-.4.14m2.16.54c.01.37.04.56.06.42.08-.45.22-.47.53-.1.3.35.43.23.15-.14-.1-.14-.11-.22-.02-.36.15-.25-.07-.5-.44-.5h-.29z"/></svg>