<svg xmlns="http://www.w3.org/2000/svg" width="24" height="24"><path fill="#8c8058" fill-rule="evenodd" d="M4.2 7.08a2.2 2.2 0 0 0-.22 3.77l.44.3h15.14l.42-.28c.23-.15.54-.46.7-.69.23-.36.27-.51.27-1.18s-.04-.82-.28-1.18a3 3 0 0 0-.69-.7l-.42-.27-7.41-.03-7.42-.02zm.1 1c-.34.35-.39.45-.39.87q0 .82.6 1.19c.25.14 1 .16 7.5.16 8.13 0 7.66.04 8.01-.76.12-.26.18-.54.14-.67-.16-.56-.3-.78-.6-.97-.32-.2-.49-.2-7.6-.2H4.68zm.52.79c0 .4-.05.73-.12.8-.1.1-.02.12.34.12.41 0 .45-.02.42-.22Q5.3 8.49 5.41 8.5q.08.02.09.15t.1.15c.06 0 .1-.13.1-.3 0-.29-.02-.3-.45-.3H4.8zm1.33-.53c-.46.32-.34 1.34.18 1.5.3.1.76-.13.9-.45.31-.78-.43-1.5-1.08-1.05m1.49.08c-.5.52-.1 1.54.55 1.43.39-.07.63-.4.63-.87 0-.72-.71-1.06-1.18-.56M9 8.23l-.03.8-.02.77h.63c.55 0 .62-.02.62-.2 0-.24-.18-.36-.26-.16a.4.4 0 0 1-.2.2c-.14.05-.16-.05-.12-.69l.03-.75h-.32c-.18 0-.33.01-.33.03m1.44.22q-.32.47.33.85.36.21.26.3c-.13.14-.41.02-.48-.2-.1-.32-.27-.23-.23.11.03.28.07.32.37.36.8.08 1.13-.69.46-1.08-.36-.22-.46-.39-.21-.39.07 0 .2.1.29.22.14.2.16.21.22.06q.2-.48-.44-.48c-.32 0-.44.05-.57.25m1.21-.17c-.08.09-.06.52.04.52.05 0 .15-.1.22-.2.13-.2.14-.14.1.5l-.06.7h.44c.36 0 .42-.02.32-.14-.07-.09-.1-.37-.08-.73q.03-.64.11-.35c.12.32.26.27.26-.08v-.3l-.65.01c-.35 0-.67.04-.7.07m1.84-.05-.04.17c-.21.82-.3 1.07-.43 1.22-.14.17-.13.18.18.18.28 0 .3-.02.2-.15s-.09-.15.09-.15q.2 0 .21.15-.02.15.41.15.46 0 .32-.12a1 1 0 0 1-.17-.43c-.23-.98-.26-1.05-.51-1.05q-.23 0-.26.03m.91.28c0 .35.14.38.26.07q.09-.29.11.35c.03.36 0 .64-.08.73-.1.12-.04.14.32.14h.44l-.02-.67c0-.38 0-.6.03-.5.09.28.24.2.24-.13v-.3l-.65.01c-.65.02-.65.02-.65.3m1.5-.29-.03.8-.02.78h.7V8.2h-.32c-.18 0-.33.01-.33.03m1.03.23c-.22.22-.25.32-.2.67q.15.98 1.09.62c.24-.1.41-.59.33-.94-.13-.6-.78-.8-1.22-.35m1.27-.16q.01.09.1.1c.14 0 .12 1.14-.02 1.28q-.16.13.22.12.37 0 .22-.12c-.07-.07-.12-.28-.12-.47v-.36l.28.47c.16.29.34.48.45.48.14 0 .17-.1.17-.64 0-.36.05-.68.1-.71.18-.11.1-.25-.15-.25q-.4 0-.14.27c.06.06.1.2.07.3q-.01.23-.25-.2c-.2-.32-.27-.37-.58-.37-.2 0-.35.05-.35.1m-11.75.22c-.1.24-.01 1.13.1 1.1.14-.03.19-1.02.06-1.15q-.1-.1-.16.05M8 9.05c0 .37.04.65.1.65s.1-.28.1-.65-.04-.65-.1-.65-.1.28-.1.65m9.3-.06c0 .62.15.9.25.48.1-.36.02-1-.12-1.05-.1-.03-.13.13-.13.57"/></svg>