<?xml version="1.0" encoding="UTF-8" standalone="no"?>
<svg
   viewBox="0 0 15.024569 8.9725933"
   width="15.024569pt"
   height="8.9725933pt"
   version="1.1"
   id="svg1"
   xmlns="http://www.w3.org/2000/svg"
   xmlns:svg="http://www.w3.org/2000/svg">
  <defs
     id="defs1" />
  <path
     d="m 1.0562344,3.5811314 h 1.271105 V 0.49737519 c 0,0 0.5551373,-0.095137 0.6405683,0.449644 h 0.400295 L 3.2481467,-3.0851441e-7 0.06763273,0.00137969 -2.7092285e-7,0.94710579 H 0.38330473 c 0,0 0.073296,-0.4999668 0.66047007,-0.4570879 z"
     style="fill:#ffffff;fill-opacity:1;fill-rule:evenodd;stroke:none;stroke-width:0.161801"
     id="path6937" />
  <path
     d="m 12.572422,3.2887758 0.486534,-0.53459 c 0.84379,0.6768119 1.080666,0.4748879 1.080666,0.4748879 0.26147,-0.1896322 -0.22555,-0.3439899 -0.22555,-0.3439899 L 13.558111,2.7425362 13.225126,2.5763683 C 12.73843,2.3980646 12.809783,2.0183182 12.809783,2.0183182 12.928545,1.4601079 13.39178,1.3531559 13.39178,1.3531559 c 0.89055,-0.2137388 1.567362,0.2019287 1.567362,0.2019287 l -0.439288,0.4748833 -0.08074,-0.068279 -0.08883,-0.077667 -0.119409,-0.089638 c 0,0 -0.44123,-0.3333081 -0.679724,-0.124908 0,0 -0.07119,0.1310584 0.05404,0.1906 l 0.07718,0.042058 0.399486,0.1844541 0.452879,0.1668193 c 0,0 0.733281,0.2682627 0.405473,0.8583491 0,0 -0.125234,0.3333082 -0.792661,0.467605 0,0 -0.637818,0.0508 -0.94168,-0.0327 0,0 -0.486372,-0.1344568 -0.633449,-0.2579109"
     style="fill:#ffffff;fill-opacity:1;fill-rule:evenodd;stroke:none;stroke-width:0.161801"
     id="path6957" />
  <path
     d="m 8.6990139,1.4219851 c -0.640568,-0.3096878 -1.40993,0.042883 -1.40993,0.042883 l -0.01019,-0.1817021 -1.06837,0.2137388 v 0.021373 l -0.01035,2.7764996 h 1.078725 l 0.02103,-0.8114299 c 0.224256,0.1600229 0.470192,0.1283069 0.470192,0.1283069 1.260265,-0.1179507 1.420124,-0.8654723 1.420124,-0.8654723 0.235093,-0.9502529 -0.491229,-1.3241743 -0.491229,-1.3241743 m -0.547695,1.404754 c 0,0 -0.07766,0.5630629 -0.621476,0.4562762 0,0 -0.155167,-0.038847 -0.223446,-0.2331534 l -0.01941,-1.2817863 0.349652,-0.00922 c 0,0 0.592351,0.01908 0.514687,1.0678867"
     style="fill:#ffffff;fill-opacity:1;fill-rule:evenodd;stroke:none;stroke-width:0.161801"
     id="path6961" />
  <path
     d="m 12.009663,1.4219851 c -0.640892,-0.3096878 -1.409444,0.042883 -1.409444,0.042883 L 10.589859,1.283166 9.5218129,1.4969048 v 0.021373 l -0.01084,2.7764993 h 1.0788861 l 0.02087,-0.8114296 c 0.22458,0.1600226 0.470031,0.1283066 0.470031,0.1283066 1.259458,-0.11795 1.420287,-0.8654716 1.420287,-0.8654716 0.235096,-0.9502529 -0.491388,-1.3241743 -0.491388,-1.3241743 m -0.533294,1.404754 c 0,0 -0.07783,0.5630629 -0.621315,0.4562762 0,0 -0.155328,-0.038847 -0.223446,-0.2331534 l -0.01974,-1.2817862 0.349651,-0.00922 c 0,0 0.592352,0.01908 0.514849,1.0678867"
     style="fill:#ffffff;fill-opacity:1;fill-rule:evenodd;stroke:none;stroke-width:0.161801"
     id="path6965" />
  <path
     d="m 4.2357447,1.2817858 c -0.92469,0 -1.6741504,0.5239082 -1.6741504,1.1699817 0,0.6460689 0.7494604,1.1693299 1.6741504,1.1693299 0.925015,0 1.6747982,-0.523261 1.6747982,-1.1693299 0,-0.6460735 -0.7497832,-1.1699817 -1.6747982,-1.1699817 m 0.321983,1.9767195 c -0.265838,0.1050072 -0.623417,-0.1700528 -0.798,-0.6138721 -0.175068,-0.4444658 -0.101934,-0.8894179 0.164228,-0.9941042 0.265515,-0.1048467 0.622932,0.1706994 0.798162,0.6145187 0.175229,0.4444658 0.101125,0.8887713 -0.16439,0.9934576"
     style="fill:#ffffff;fill-opacity:1;fill-rule:evenodd;stroke:none;stroke-width:0.161801"
     id="path6977" />
  <path
     d="m 3.3981805,8.038432 h 1.132249 V 5.290845 c 0,0 0.495197,-0.08477 0.571171,0.400627 h 0.3569464 l -0.10682,-0.843782 -2.8345174,0.0012 -0.06026,0.842629 h 0.341665 c 0,0 0.06502,-0.445463 0.588614,-0.407259 z"
     style="fill:#ffffff;fill-opacity:1;fill-rule:evenodd;stroke:none;stroke-width:0.144162"
     id="path6941" />
  <path
     d="m 4.9724595,6.393903 0.9416684,-0.164923 0.0065,1.820913 H 4.9591975 Z"
     style="fill:#ffffff;fill-opacity:1;fill-rule:evenodd;stroke:none;stroke-width:0.144162"
     id="path6945" />
  <path
     d="m 7.1985539,5.296195 -0.951613,0.238013 -0.0093,2.512024 h 0.952192 z"
     style="fill:#ffffff;fill-opacity:1;fill-rule:evenodd;stroke:none;stroke-width:0.144162"
     id="path6949" />
  <path
     d="m 10.030016,7.777946 0.433495,-0.476312 c 0.751085,0.60303 0.962571,0.423119 0.962571,0.423119 C 11.659193,7.555792 11.225408,7.418262 11.225408,7.418262 L 10.90753,7.291254 10.61171,7.143201 C 10.177781,6.984335 10.241069,6.645986 10.241069,6.645986 10.346881,6.148627 10.759908,6.053334 10.759908,6.053334 11.552945,5.862896 12.156551,6.23325 12.156551,6.23325 l -0.391544,0.423115 -0.07194,-0.06084 -0.07972,-0.0692 -0.105959,-0.07987 c 0,0 -0.392987,-0.296974 -0.605193,-0.111294 0,0 -0.06401,0.116776 0.04757,0.169822 l 0.06892,0.03748 0.356081,0.164346 0.403366,0.148634 c 0,0 0.653198,0.239018 0.360982,0.764777 0,0 -0.111872,0.296974 -0.705962,0.416631 0,0 -0.568144,0.04527 -0.839169,-0.02913 0,0 -0.433496,-0.119799 -0.563962,-0.229795"
     style="fill:#ffffff;fill-opacity:1;fill-rule:evenodd;stroke:none;stroke-width:0.144162"
     id="path6953" />
  <path
     d="m 9.8498979,7.375833 c 0,0 -0.349159,0.317732 -0.878812,0.19058 0,0 -0.327247,-0.10596 -0.422971,-0.349161 L 9.9979539,6.82571 c 0,0 -0.275206,-1.037102 -1.756472,-0.761898 l -0.08448,0.03199 -0.137819,0.06329 c 0,0 -1.068818,0.592361 -0.328112,1.523361 0,0 0.465931,0.549691 1.428646,0.354352 0,0 0.571026,-0.132199 0.9103851,-0.470405 z M 8.4531109,6.328494 c 0.444452,-0.0741 0.581839,0.380588 0.581839,0.380588 l -0.666462,0.222443 c -0.148486,-0.507885 0.08462,-0.603031 0.08462,-0.603031"
     style="fill:#ffffff;fill-opacity:1;fill-rule:evenodd;stroke:none;stroke-width:0.144162"
     id="path6969" />
  <path
     d="m 5.8653149,5.933519 c 0.0196,0.121668 -0.144307,0.249831 -0.367614,0.286593 -0.223307,0.03719 -0.4200884,-0.03143 -0.4405604,-0.152376 -0.0196,-0.121385 0.144739,-0.249836 0.3676134,-0.286884 0.223308,-0.0369 0.420378,0.03143 0.440561,0.152667"
     style="fill:#ffffff;fill-opacity:1;fill-rule:evenodd;stroke:none;stroke-width:0.144162"
     id="path6973" />
  <rect
     style="fill:#ffff00;stroke-width:0.75"
     id="rect1"
     width="12.730717"
     height="0.29228687"
     x="1.044529"
     y="8.6803064" />
</svg>
