<?xml version="1.0" encoding="UTF-8" standalone="no"?>
<svg
   viewBox="0 0 24 24"
   width="24pt"
   height="24pt"
   version="1.1"
   id="svg1"
   xml:space="preserve"
   xmlns="http://www.w3.org/2000/svg"
   xmlns:svg="http://www.w3.org/2000/svg"><defs
     id="defs1" /><g
     id="g1"
     transform="matrix(0.07907428,0,0,0.07907428,0.02988535,2.527824)"><path
       d="M 0,0 C 0.80179688,0.44730469 1.6035937,0.89460937 2.4296875,1.3554687 9.6997003,5.8009028 13.722244,10.755733 16,19 c 0.230469,3.289062 0.230469,3.289062 0.1875,6.625 -0.0097,1.659023 -0.0097,1.659023 -0.01953,3.351562 C 16.026892,31.51595 15.657183,33.568586 15,36 c 1.194961,0.230742 2.389922,0.461484 3.621094,0.699219 C 37.771748,40.560335 37.771748,40.560335 44.5,47.625 47.903596,53.014026 47.54897,58.828006 47,65 c -1.736716,6.308673 -5.772205,10.278737 -11,14 -0.99,0.495 -0.99,0.495 -2,1 0.614883,0.556875 1.229766,1.11375 1.863281,1.6875 6.965411,6.576592 10.150779,11.138291 10.511719,20.75 -0.33227,10.02346 -4.091737,17.07205 -10.96875,24.21875 C 29.679489,131.9508 22.714364,135.72342 15,137 c 0.33,0.66 0.66,1.32 1,2 1.152637,12.83017 -1.917526,22.32711 -9.7304688,32.48828 -7.3232916,8.10478 -17.9587012,13.88148 -28.8945312,14.82422 -6.15189,-0.12602 -11.818754,-2.06262 -16.460937,-6.14844 C -42.512502,176.3905 -44.800791,172.60849 -47,168 c -0.594258,0.71285 -1.188516,1.4257 -1.800781,2.16016 -8.746595,10.10687 -17.408494,16.89235 -31.074219,18.21484 -7.45542,-0.27775 -13.420053,-3.16152 -18.5,-8.5625 -7.20001,-8.97455 -8.69311,-17.45152 -8.625,-28.8125 0.33,-0.99 0.66,-1.98 1,-3 -1.25813,0.33 -2.51625,0.66 -3.8125,1 -9.4171,2.03693 -17.64108,1.75492 -26.1875,-3 -2.75,-2.3125 -2.75,-2.3125 -5,-5 -0.51434,-0.56074 -1.02867,-1.12148 -1.55859,-1.69922 -5.91836,-6.54284 -7.0375,-11.88507 -6.8711,-20.72265 0.81747,-6.80725 3.76436,-11.28997 8.91407,-15.71094 3.70211,-2.70539 6.95267,-5.015579 11.51562,-5.86719 0,-0.66 0,-1.32 0,-2 -0.59812,-0.246211 -1.19625,-0.492422 -1.8125,-0.746094 C -134.81939,91.957099 -136.69532,87.888384 -139,84 c -0.42023,-0.658711 -0.84047,-1.317422 -1.27344,-1.996094 C -144.23568,74.795995 -144.23129,65.983511 -143,58 c 3.24667,-10.336561 9.26066,-17.210883 18.6875,-22.25 5.92004,-2.799109 11.90946,-4.455769 18.3125,-5.75 0.0374,-0.99 0.0748,-1.98 0.11328,-3 0.7394,-16.043372 0.7394,-16.043372 6.07422,-22.75 6.882025,-5.5056203 13.649569,-7.8373761 22.476563,-6.9960938 C -65.961489,-0.96783497 -58.168915,2.8705481 -50,11 -49.071875,10.154375 -48.14375,9.30875 -47.1875,8.4375 -33.63938,-3.1555054 -16.637526,-9.3622314 0,0 Z"
       fill="#ff0183"
       transform="translate(202,5)"
       id="path1-9"
       style="fill:#999999;fill-opacity:1" /><path
       d="M 0,0 C 1.8640311,1.8640311 1.7195658,5.0606118 2.125,7.5625 5.2593661,25.360266 10.160092,46.632379 20,62 21.931226,61.806422 21.931226,61.806422 24,61 30.289091,52.720928 33.554484,39.11861 35,29 33.607813,28.87625 33.607813,28.87625 32.1875,28.75 26.874655,28.017571 21.972212,25.933138 17,24 c 0,-0.66 0,-1.32 0,-2 2.937561,-0.02695 5.874876,-0.04681 8.8125,-0.0625 0.833379,-0.0084 1.666758,-0.01676 2.525391,-0.02539 0.802441,-0.0032 1.604882,-0.0064 2.43164,-0.0098 0.738391,-0.0052 1.476782,-0.01047 2.237549,-0.01587 C 35,22 35,22 38,23 38.103125,21.72125 38.20625,20.4425 38.3125,19.125 39.719251,6.2807487 39.719251,6.2807487 43,3 c 7.945424,-0.8828249 15.363714,0.9891911 23,3 0.703125,1.6953125 0.703125,1.6953125 1,4 -1.328125,2.367188 -1.328125,2.367188 -3.25,4.875 C 61.066157,18.496313 58.83729,21.893117 57,26 c 0.773437,0.08637 1.546875,0.172734 2.34375,0.261719 C 67.3606,27.3432 73.220208,29.220208 79,35 78.859859,38.783807 78.489736,41.265396 76.375,44.4375 72.919248,46.711021 71.078359,46.679727 67,46 64.929017,44.713417 63.123449,43.303046 61.285156,41.703125 58.090023,39.321795 54.592675,37.700558 51,36 c -1.771172,2.895626 -3.541877,5.791538 -5.3125,8.6875 -0.499512,0.816621 -0.999023,1.633242 -1.513672,2.474609 -0.967034,1.581838 -1.932346,3.16473 -2.895752,4.74878 C 40.253372,53.585844 39.208119,55.24822 38.15625,56.90625 36.764043,59.427274 36.75685,61.163246 37,64 c 7.425592,0.742559 11.803863,-0.99743 18.300781,-4.589844 6.246475,-3.263354 14.042869,-3.553231 20.863281,-1.878906 4.319697,1.750714 8.51345,4.261499 10.945313,8.320312 C 88.635335,69.532607 88.695634,73.097493 88,77 c -2.529685,3.281753 -4.077313,4.692438 -8,6 0.99,0.66 1.98,1.32 3,2 -0.473561,4.262051 -2.846982,6.286938 -6,9 -2.167969,0.644531 -2.167969,0.644531 -4,1 -0.146953,0.573633 -0.293906,1.147266 -0.445313,1.738281 C 63.516055,130.9708 63.516055,130.9708 55.652344,136.71484 51.161895,138.89063 46.865709,138.88278 42,138 c -3.484885,-1.99223 -6.195409,-4.39082 -8,-8 -0.375,-2.875 -0.375,-2.875 0,-6 2.208511,-2.72383 3.943079,-3.82755 7.417969,-4.39453 1.723573,-0.15021 3.450968,-0.26278 5.179687,-0.33203 C 49.204005,118.97678 50.817577,118.44847 53,117 c 0.495,-1.485 0.495,-1.485 1,-3 -9.622452,-2.00462 -9.622452,-2.00462 -18.574219,0.70313 -1.424778,1.68259 -2.786124,3.42014 -4.09375,5.19531 C 25.132331,128.14393 14.922927,138.7115 5,142 c -7.3754646,0.98182 -14.9890419,1.27079 -21.480469,-2.81641 -3.256614,-2.53664 -5.216273,-4.2977 -5.894531,-8.51562 -0.207862,-4.33262 0.179921,-7.22319 1.9375,-11.23047 C -18,117 -18,117 -14.75,115.6875 c 6.1303095,0.51086 9.2864889,4.70443 13.3476563,9.00391 C 0.31318081,126.29224 1.7167319,126.60633 4,127 c -1.9088469,-4.54171 -1.9088469,-4.54171 -4,-9 -0.23333333,-6.53333 -0.23333333,-6.53333 1,-9 -4.2740166,-2.25573 -6.9289811,-1.92731 -11.375,-0.625 -9.734399,2.70333 -20.708943,3.51909 -29.925781,-1.20703 C -44.453344,104.31368 -46.697624,100.86631 -48,96 c -0.653477,-5.360069 -0.679881,-9.589877 1.6875,-14.5 3.606652,-3.899084 5.781934,-5.324361 11.125,-5.9375 10.189805,0.495205 17.625637,8.477379 24.15625,15.578125 C -9.6573223,92.7349 -8.3232158,94.363391 -7,96 c 0.66,-0.33 1.32,-0.66 2,-1 0,-10.384276 -9.286653,-18.809479 -16,-26 -1.330313,-1.330313 -1.330313,-1.330313 -2.6875,-2.6875 -4.610498,-4.610498 -8.589462,-8.935346 -8.625,-15.6875 0.149343,-5.069375 1.271525,-8.569235 4.929688,-12.253906 4.652865,-4.143647 8.314471,-6.497278 14.632812,-6.996094 0.892031,-0.07477 1.784062,-0.149531 2.703125,-0.226563 C -9.3714063,31.099453 -8.6959375,31.050469 -8,31 -8.3867188,30.238164 -8.7734375,29.476328 -9.171875,28.691406 -10.79732,25.46868 -12.402974,22.236899 -14,19 -14.638086,17.718027 -14.638086,17.718027 -15.289063,16.410156 -18.990327,8.6215247 -18.990327,8.6215247 -18,4 -12.885252,-0.36257912 -6.4358325,-0.25238559 0,0 Z"
       fill="#fff8fb"
       transform="translate(131,23)"
       id="path2" /><path
       d="M 0,0 C 0.825,0.66 1.65,1.32 2.5,2 7.1615259,5.1187041 11.596147,4.4006422 17,3.5 17.66,3.335 18.32,3.17 19,3 18.9175,4.155 18.835,5.31 18.75,6.5 18.78027,12.210847 20.741033,16.522964 24.578125,20.730469 28.384456,24.20246 32.182318,26.230239 37,28 36.433937,32.690235 35.814625,37.345 35,42 34.622305,41.529492 34.244609,41.058984 33.855469,40.574219 31.414453,38.50321 29.455099,38.293133 26.3125,37.8125 25.318633,37.653945 24.324766,37.495391 23.300781,37.332031 22.541523,37.222461 21.782266,37.112891 21,37 21.495,36.29875 21.99,35.5975 22.5,34.875 24.24457,31.53124 24.646002,29.714512 24,26 21.383875,23.691655 19.498994,23.074318 16.0625,22.5625 11.350075,23.235704 8.3089923,25.691008 5,29 4.4720038,34.540969 4.4720038,34.540969 6.5,39.5 6.995,39.995 7.49,40.49 8,41 6.623991,44.222849 5.1756725,45.930463 2.375,48.015625 1.6685938,48.544141 0.9621875,49.072656 0.234375,49.617187 -0.50296875,50.156016 -1.2403125,50.694844 -2,51.25 -3.1060156,52.081445 -3.1060156,52.081445 -4.234375,52.929687 -9.7282943,57 -9.7282943,57 -12,57 c -1.70884,-1.623398 -3.374467,-3.293191 -5,-5 -0.66,-0.66 -1.32,-1.32 -2,-2 0.33,-0.99 0.66,-1.98 1,-3 0.66,0.33 1.32,0.66 2,1 1.830373,0.12146 3.665641,0.175432 5.5,0.1875 0.9796875,0.01418 1.959375,0.02836 2.96875,0.04297 C -4.830082,48.2568 -4.830082,48.2568 -3,46 c 0.5836944,-3.415381 0.5836944,-3.415381 0,-7 -2.6959184,-3.304674 -5.3506575,-4.295848 -9.4375,-5 -4.633946,-0.370099 -6.87835,1.193029 -10.5625,4 -0.99,-0.33 -1.98,-0.66 -3,-1 1.203814,-2.493616 2.454287,-4.681431 4,-7 0.606596,-6.065957 -0.189537,-10.089724 -4,-15 -2.229155,-2.451553 -4.583437,-4.734823 -7,-7 -1.333333,-1.3333333 -2.666667,-2.6666667 -4,-4 1.144688,0.2475 1.144688,0.2475 2.3125,0.5 8.243084,1.1177063 13.946974,1.5964951 20.6875,-3.5 1.9375,0.25 1.9375,0.25 4,1 5.3365875,0.3462785 5.3365875,0.3462785 10,-2 z"
       fill="#ff0685"
       transform="translate(158,90)"
       id="path3"
       style="fill:#999999;fill-opacity:1" /><path
       d="m 0,0 c 4.8409224,3.4605791 7.6135261,7.0002773 10.4375,12.1875 0.362871,0.628418 0.725742,1.256836 1.099609,1.904297 C 12.430713,15.689348 13.224531,17.341884 14,19 13.67,19.66 13.34,20.32 13,21 6.2562597,21.32926 0.90462466,21.494574 -5,18 -8.1783779,14.570698 -9.8797946,12.298218 -10.3125,7.625 -10,4 -10,4 -8.375,1.5625 -5.2230643,-0.51114192 -3.7144356,-0.66859841 0,0 Z"
       fill="#ff0b88"
       transform="translate(126,64)"
       id="path10"
       style="fill:#999999;fill-opacity:1" /><path
       d="m 0,0 c 2.6344707,0.58595057 3.5573483,1.3370858 5.2929687,3.3710938 1.9375,3.1249999 1.9375,3.1249999 1.9375,5.125 -0.78375,0.2475 -1.5675,0.4949999 -2.375,0.75 C 1.9072977,10.649985 1.327991,11.502851 0.23046875,14.496094 -6.1765703,14.012544 -6.1765703,14.012544 -8.7070313,11.808594 -10.087026,8.8050754 -10.187008,6.7663317 -9.7695313,3.4960938 -7.0009902,-0.15491972 -4.3432733,-0.12044967 0,0 Z"
       fill="#ff0a88"
       transform="translate(196.76953,93.503906)"
       id="path11"
       style="fill:#999999;fill-opacity:1" /><path
       d="m 0,0 c 5.4844689,0.21094111 8.6751938,1.7093866 13,5 0.94875,0.70125 1.8975,1.4025 2.875,2.125 C 16.57625,7.74375 17.2775,8.3625 18,9 c 0,0.66 0,1.32 0,2 -2.396525,0.08139 -4.790254,0.14067 -7.1875,0.1875 -0.673535,0.02514 -1.3470703,0.05027 -2.0410156,0.07617 C 4.3313172,11.32865 1.4623299,10.852111 -2,8 -2.4375,4.9375 -2.4375,4.9375 -2,2 -1.34,1.34 -0.68,0.68 0,0 Z"
       fill="#ff0e8a"
       transform="translate(100,112)"
       id="path12"
       style="fill:#999999;fill-opacity:1" /><path
       d="M 0,0 C 1.6754298,0.28604898 3.3438534,0.61781233 5,1 3.95125,3.6218749 3.3506869,4.7937136 0.875,6.25 0.25625,6.4975 -0.3625,6.745 -1,7 -1.0425436,5.0004525 -1.0408078,2.9995836 -1,1 -0.67,0.67 -0.34,0.34 0,0 Z"
       fill="#ff118b"
       transform="translate(170,121)"
       id="path13"
       style="fill:#999999;fill-opacity:1" /><path
       d="M 0,0 C 1.65,0.33 3.3,0.66 5,1 4.67,2.32 4.34,3.64 4,5 1.03,4.505 1.03,4.505 -2,4 -1.34,2.68 -0.68,1.36 0,0 Z"
       fill="#ff168e"
       transform="translate(144,129)"
       id="path14"
       style="fill:#999999;fill-opacity:1" /><path
       d="M 0,0 C -0.804375,0.3403125 -0.804375,0.3403125 -1.625,0.6875 -4.7850086,2.4338206 -7.2676983,4.6402849 -10,7 -8.0709141,1.3611335 -6.0145057,-0.32510841 0,0 Z"
       fill="#ffc7e3"
       transform="translate(120,139)"
       id="path15" /></g></svg>
