<?xml version="1.0" encoding="UTF-8" standalone="no"?>
<svg
   viewBox="0 0 14.95549 6.2240696"
   width="14.95549pt"
   height="6.2240696pt"
   version="1.1"
   id="svg1"
   xmlns="http://www.w3.org/2000/svg"
   xmlns:svg="http://www.w3.org/2000/svg">
  <defs
     id="defs1" />
  <path
     d="m 0.05353997,0.04893369 c -0.029412,0.029412 -0.05353999729492,0.1686772 -0.05353999729492,0.30955 0,0.2474854 0.01021899729492,0.2560112 0.307245597294924,0.2560112 h 0.3072444 V 1.7666644 2.9188326 H 0.92173557 1.22898 V 1.7666644 0.61449489 l 0.3264482,7.72e-5 h 0.3264507 l -0.00798,-0.288043 -0.00785,-0.288119 -0.87948933,-0.021511 c -0.4836809,-0.01184 -0.9035313,0.00249 -0.9329496,0.032029 m 2.36432953,0.268072 -0.3439609,0.3170763 V 1.4471242 2.2600949 l 0.3232217,0.3293657 0.3232216,0.329367 H 3.3029586 3.8854953 L 4.208717,2.5894606 4.5319398,2.2600949 V 1.4920587 0.72394649 L 4.1644742,0.36193459 C 3.799698,0.00268809 3.7930915,-1.0764771e-7 3.2793778,-1.0764771e-7 2.7797209,-1.0764771e-7 2.7499948,0.01096689 2.4179395,0.31700009 m 4.7622983,0 -0.34396,0.3170763 V 1.776414 2.9188276 h 0.307244 0.307246 V 2.5982182 2.2775303 l 0.193717,0.1819662 0.193641,0.1819662 0.420849,-0.4155494 0.420772,-0.4156255 v 0.5542699 0.5542699 h 0.307245 0.307245 l -0.0012,-1.1329656 -0.0012,-1.13296691 -0.338046,-0.326447 C 8.6205828,0.00476189 8.6077568,-1.0764771e-7 8.0700008,-1.0764771e-7 c -0.532687,0 -0.553886,0.007479997648 -0.889628,0.31700019764771 m 2.498055,0.85798111 v 1.1749826 l 0.294802,0.2878885 0.2948012,0.2878884 0.602738,-0.022657 0.602662,-0.022657 7.7e-5,-0.2688392 7.6e-5,-0.2688404 -0.492821,-0.023355 c -0.746756,-0.035333 -0.76473,-0.065829 -0.76473,-1.2943466 V 4.8923523e-6 H 9.9471928 9.6783528 V 1.1749862 M 12.110736,0.05123799 c -0.02819,0.028116 -0.05123,0.1145203 -0.05123,0.1920287 0,0.1209012 0.06513,0.1407943 0.460867,0.1407943 0.358478,0 0.460867,0.025573 0.460867,0.1152182 0,0.1337291 -0.07074,0.1429453 -0.333054,0.043171 -0.14955,-0.056843 -0.217452,-0.04109 -0.322376,0.074889 -0.127353,0.1407182 -0.124204,0.1501662 0.0742,0.2256719 0.113984,0.043321 0.24234,0.078727 0.285355,0.078727 0.186343,0 -0.01659,0.20762081 -0.381292,0.39020021 -0.358247,0.179278 -0.38613,0.2113846 -0.293726,0.3377395 0.135187,0.184885 0.397421,0.1171375 0.832865,-0.2152256 0.327676,-0.2501736 0.339889,-0.2529391 0.580847,-0.1344956 0.135418,0.066601 0.266304,0.1815051 0.29096,0.2554741 0.05991,0.1801217 0.427531,0.175437 0.654585,-0.00835 0.155083,-0.1256633 0.180354,-0.2274379 0.209926,-0.84492391 L 14.61309,2.4892352e-5 h -1.225602 c -0.674095,0 -1.248643,0.02304399765 -1.276755,0.05123399765 m -7.3483032,0.294418 c 0,0.2624645 0.00735,0.2688392 0.3072456,0.2688392 H 5.3769198 V 1.7666856 2.9188538 h 0.307246 0.307245 V 1.7666856 0.61451609 h 0.307245 c 0.299948,0 0.307245,-0.00636 0.307245,-0.2688392 v -0.2688391 h -0.921735 -0.921736 v 0.2688391 m 8.6196832,0.2535536 c -0.06752,0.1936413 -0.05208,0.2283601 0.154007,0.3466491 0.147093,0.084423 0.213228,0.17221161 0.185115,0.24564221 -0.03249,0.084722 0.01282,0.114296 0.175206,0.114296 0.243876,0 0.310932,-0.135879 0.312699,-0.63369261 l 0.0011,-0.288043 h -0.37653 c -0.343422,0 -0.383134,0.018968 -0.451573,0.2151483 M 2.8156486,0.75500369 C 2.6253111,0.96531279 2.6349884,2.0017269 2.8290087,2.1772412 3.0267216,2.3561341 3.6238522,2.3478389 3.7903783,2.1638811 3.980717,1.9535721 3.9710385,0.91715789 3.7770182,0.74164369 3.5793066,0.56275069 2.9821759,0.57104599 2.8156486,0.75500369 m 4.7622982,0 c -0.09708,0.1072296 -0.127122,0.29311161 -0.127122,0.78670171 v 0.6462899 l 0.629621,-0.6296222 c 0.62148,-0.62148041 0.627702,-0.63154281 0.487367,-0.78670171 -0.190645,-0.2106156 -0.804982,-0.2209858 -0.989866,-0.0166627 M 13.048215,1.587182 c -0.0845,0.1023192 -0.08579,0.1342662 -0.0065,0.1609203 0.05439,0.018283 0.201938,0.1200538 0.327985,0.2260545 0.186574,0.1570021 0.250251,0.1752837 0.342808,0.098468 C 13.881512,1.9324452 13.855166,1.868692 13.539548,1.6542341 13.200581,1.4238775 13.184834,1.4217264 13.048263,1.587172 m 1.140109,0.2666893 c -0.125739,0.070664 -0.114682,0.1075411 0.13442,0.4468871 0.149321,0.2033972 0.271529,0.4084058 0.271529,0.4555674 0,0.1136105 0.08372,0.1046996 0.258546,-0.02773 C 14.992203,2.6230515 14.991819,2.6131436 14.838422,2.3648855 14.580107,1.9469544 14.34783,1.7642977 14.188369,1.8538601 M 12.17046,2.1603367 c -0.07404,0.1642218 -0.181889,0.3377395 -0.23965,0.3856688 -0.08703,0.072197 -0.07835,0.105921 0.05039,0.196023 0.194793,0.1364933 0.272295,0.088635 0.463479,-0.2861985 0.190798,-0.3739949 0.192335,-0.5071857 0.0065,-0.5558066 -0.111766,-0.029263 -0.177741,0.031954 -0.280669,0.2603133 m 0.503576,0.1346502 c 0,0.318229 0.03587,0.4812219 0.121674,0.5524267 0.156924,0.1301946 0.932641,0.1846544 1.19357,0.083725 0.263462,-0.1018457 0.367081,-0.4630177 0.17344,-0.6045809 -0.197943,-0.1447125 -0.259699,-0.1225961 -0.259699,0.093022 0,0.1815824 -0.02304,0.1920287 -0.422462,0.1920287 H 13.058124 V 2.2275509 c 0,-0.3584776 -0.01282,-0.3840561 -0.192029,-0.3840561 -0.18304,0 -0.192027,0.021124 -0.192027,0.451497 m 1.649214,1.0871864 c -0.173363,0.191567 -0.86021,0.218067 -0.930107,0.03594 -0.02435,-0.06337 -0.105996,-0.1152178 -0.181429,-0.1152178 -0.07543,0 -0.157078,0.051845 -0.181428,0.1152178 -0.03118,0.08127 -0.158,0.115219 -0.43068,0.115219 -0.331748,0 -0.386438,0.02112 -0.386438,0.149629 0,0.126277 0.06275,0.153238 0.403259,0.172825 0.296952,0.01705 0.403259,0.05361 0.403259,0.138413 0,0.0888 -0.118907,0.120441 -0.518476,0.137953 -0.451035,0.01974 -0.518476,0.04179 -0.518476,0.169293 0,0.12743 0.06775,0.149706 0.518476,0.17029 l 0.518476,0.02374 -0.537679,0.256933 c -0.649439,0.310394 -0.621095,0.285507 -0.496354,0.435827 0.09762,0.117673 0.185422,0.117137 0.477151,-0.003 0.120054,-0.04939 0.13442,-9.23e-4 0.13442,0.454568 0,0.541288 0.110383,0.700365 0.348723,0.502576 0.08419,-0.0699 0.317692,-0.08457 0.844003,-0.05315 l 0.727556,0.0434 v -0.723563 -0.723561 h -0.55235 c -0.502192,0 -0.538831,-0.01022 -0.403259,-0.112763 0.100475,-0.07605 0.343116,-0.113611 0.744377,-0.115219 0.543287,-0.0022 0.595288,-0.0159 0.595288,-0.156079 0,-0.133652 -0.05123,-0.153624 -0.393811,-0.153624 h -0.393888 l 0.317076,-0.343961 c 0.174362,-0.189109 0.317,-0.360782 0.317,-0.381291 0,-0.02059 -0.06476,-0.07212 -0.143944,-0.1145199 -0.110994,-0.059373 -0.17536,-0.042324 -0.280745,0.074129 M 0.30745497,4.7239292 v 1.421008 h 0.3072444 0.3072456 v -1.016136 -1.016136 l 0.69130043,0.688075 c 0.6552009,0.652204 0.6913017,0.705204 0.6913017,1.016136 0,0.323683 0.00349,0.328061 0.2688392,0.328061 H 2.8422267 V 4.7239292 3.3029199 H 2.5733863 2.3045471 v 0.6704863 0.670486 L 1.6309126,3.9734062 C 0.99706547,3.3424782 0.93815147,3.3029199 0.63236657,3.3029199 h -0.3249116 v 1.4210093 m 2.99563823,0 v 1.421008 H 3.6103388 3.9175832 V 4.7239292 3.3029199 H 3.6103388 3.3030932 v 1.4210093 m 0.9985473,0 v 1.421008 h 0.3072444 0.3072456 v -1.01606 -1.016059 l 0.6528953,0.649516 c 0.63738,0.634078 0.652895,0.658197 0.652895,1.01606 v 0.366543 h 0.307246 0.307245 V 4.7239292 3.3029199 h -0.307245 -0.307246 v 0.6704863 0.670486 L 5.5482868,3.9734062 C 4.9429367,3.3708222 4.8456947,3.3029199 4.5881456,3.3029199 H 4.3016405 v 1.4210093 m 3.7637513,-0.435827 c 0,0.930415 -0.01,0.994399 -0.177741,1.152169 -0.116141,0.109074 -0.275983,0.166987 -0.460868,0.166987 -0.272372,0 -0.283126,0.01022 -0.283126,0.26884 v 0.268839 h 0.451113 c 0.435826,0 0.461711,-0.01159 0.768112,-0.343961 l 0.317,-0.343883 V 4.3799682 3.3029199 h -0.307246 -0.307244 v 0.9851823 m 1.244957,-0.655815 -0.323223,0.329367 v 1.091642 1.091641 h 0.307246 0.307244 v -0.55427 -0.55427 l 0.4056412,0.400648 c 0.223137,0.220372 0.436979,0.400647 0.475155,0.400647 0.03817,0 0.149474,-0.07513 0.247255,-0.166988 l 0.177741,-0.167064 v 0.320687 c 0,0.319304 0.0012,0.32061 0.288043,0.32061 h 0.288042 l -0.01529,-1.125668 -0.0152,-1.125671 -0.288427,-0.295338 C 10.877065,3.3037648 10.874377,3.3029199 10.254894,3.3029199 H 9.6335678 l -0.323221,0.3293673 m 0.459868,0.38444 -0.165452,0.176051 0.6513602,0.647904 0.651283,0.64798 v -0.657044 c 0,-0.587452 -0.01882,-0.67471 -0.177742,-0.824032 -0.248561,-0.233428 -0.7359282,-0.22882 -0.9594492,0.0091 m 3.5951522,-0.06544 c 0,0.194564 0.163991,0.220372 0.332054,0.05223 l 0.162917,-0.162917 h -0.247486 c -0.164299,0 -0.247485,0.03718 -0.247485,0.110682 m -0.384057,1.195107 c 0,0.04439 0.243261,0.07681 0.576084,0.07681 0.332823,0 0.576085,-0.03242 0.576085,-0.07681 0,-0.04439 -0.243262,-0.07681 -0.576085,-0.07681 -0.332823,0 -0.576084,0.03242 -0.576084,0.07681 m 0,0.499273 c 0,0.09218 0.115218,0.115219 0.576084,0.115219 0.460868,0 0.576085,-0.02304 0.576085,-0.115219 0,-0.09217 -0.115218,-0.115218 -0.576085,-0.115218 -0.460868,0 -0.576084,0.02304 -0.576084,0.115218"
     stroke="none"
     fill="#f6f6f6"
     fill-rule="evenodd"
     id="path1-2"
     style="stroke-width:0.0768112" />
</svg>
