<svg xmlns="http://www.w3.org/2000/svg" width="24" height="24"><path fill="#497255" fill-rule="evenodd" d="M10.92 7.12c-.19.24-.53 1.4-.48 1.64.05.2.11.22.64.2.31 0 .62-.05.69-.09q.1-.06.18.03c.1.16.4.12.58-.08.23-.25.21-.3-.09-.42-.23-.1-.26-.3-.03-.3q.09.01.03.11t.07.07q.13-.06.17-.26c.04-.29-.26-.3-.57-.01-.28.26-.24.51.09.59.34.08.13.16-.35.14l-.43-.03c-.02 0 .08-.15.22-.32.3-.35.32-.47.1-.56-.2-.07-.51.22-.72.67l-.16.35-.04-.37c-.02-.23.05-.54.18-.84.21-.45.16-.8-.08-.52M3 7.42c0 .3 0 .3.18.15.37-.33.44-.22.4.63l-.03.8h.7l-.03-.8c-.03-.66 0-.8.12-.8.08 0 .18.04.21.1.11.18.25.1.25-.15s0-.25-.9-.25H3zm2.05-.06a1.1 1.1 0 0 0-.01 1.4c.2.23.32.29.66.29s.47-.06.66-.28a1.1 1.1 0 0 0 0-1.4.9.9 0 0 0-1.31 0m1.62.25c.08 1.03.12 1.17.43 1.33.16.08.36.15.45.15s.3-.07.45-.15c.3-.16.35-.3.43-1.32l.04-.53h-.33c-.19 0-.34.05-.34.1q.01.09.1.1c.06 0 .1.28.1.64 0 .67-.13.9-.47.84-.16-.03-.18-.14-.18-.86V7.1h-.72zm2-.34q-.4.46.28.92c.22.15.4.33.4.4 0 .21-.44.23-.66.03-.18-.16-.19-.16-.19.08 0 .21.06.27.33.32 1.02.2 1.45-.69.56-1.14-.44-.23-.52-.5-.15-.5.14 0 .28.04.31.1.11.18.26.1.23-.12-.03-.2-.1-.23-.49-.26-.35-.02-.5.02-.63.17m4.44-.1q0 .1.1.16c.06.03.1.46.1.94 0 .68-.04.92-.15 1.01q-.17.13-.05.24.1.1.37-.1c.27-.2.28-.25.3-1.18.02-.53.08-.96.13-.96a.1.1 0 0 0 .1-.1c0-.05-.2-.1-.45-.1s-.45.04-.45.1m1.2.2a1 1 0 0 0 .24 1.59c.23.1.37.11.67.02.4-.12.56-.3.6-.71.03-.52-.02-.72-.26-.95-.35-.36-.88-.34-1.26.04m1.7.49c.04.93.2 1.17.81 1.17s.77-.24.82-1.18c.03-.77.03-.77-.22-.77s-.25.01-.25.82c0 .74-.02.83-.2.86-.1.02-.25-.04-.32-.14-.15-.2-.18-1.2-.03-1.29.21-.13.08-.25-.28-.25h-.37zm1.89.18.02.97.34.01c.34.01.34 0 .3-.36-.07-.49.11-.5.28-.03.14.38.1.37 1.25.39.7.01.94-.13.94-.55 0-.23-.09-.34-.4-.54-.22-.14-.4-.32-.4-.4 0-.17.35-.2.45-.05.11.18.25.1.25-.15 0-.23-.04-.25-.45-.25-.32 0-.5.06-.65.2-.32.32-.25.57.25.88.27.16.44.33.43.42-.04.21-.56.26-.64.06-.09-.23-.22-.2-.26.06-.03.2-.06.18-.23-.17-.2-.38-.2-.4-.03-.58q.35-.31-.02-.67c-.16-.16-.33-.2-.82-.2h-.63zM5.4 7.66c-.21.55-.03 1.17.33 1.12.47-.07.45-1.38-.03-1.38q-.2.01-.3.26m9.27-.2c-.09.09-.1.97 0 1.18.07.22.4.2.53-.03.14-.27.13-.94-.02-1.09-.13-.13-.4-.16-.51-.05m3.83.23c0 .25.04.3.18.28q.16-.04.17-.28 0-.25-.18-.28c-.13-.03-.17.03-.17.28m-4.93 2.36c-.1.1-.09.74.02.74q.1-.02.14-.12.06-.15.06 0 .02.1.12.12c.17 0 .06-.74-.11-.78-.09-.01-.2 0-.23.04m3.9.1c-.1.25-.08.64.03.64q.1-.01.1-.11 0-.12.16.02c.14.11.15.08.12-.27-.03-.41-.3-.6-.42-.29m-6.23.34c0 .2.06.26.24.27.2.02.22-.02.16-.24q-.06-.26.06-.18.1.07.11.21c0 .25.2.27.3.03l.09-.23v.23c.01.22.21.33.21.1q0-.11.15.02c.13.1.15.08.15-.2s-.02-.3-.15-.2q-.15.11-.15.02c0-.06-.24-.1-.58-.1-.56.01-.59.02-.59.27m1.57.01q0 .47.28.18.13-.15.12 0 0 .12.1.07c.13-.08.13-.42-.01-.5q-.1-.05-.2.06-.09.14-.09.02t-.1-.13c-.06 0-.1.14-.1.3m1.5 0c0 .17.04.3.1.3q.1-.01.1-.11 0-.12.15.01c.13.1.15.08.15-.19 0-.31-.14-.42-.23-.18q-.06.15-.06 0c-.02-.27-.21-.11-.21.17m.64-.15c-.1.23.04.47.23.43q.18-.04.21-.3c.03-.23 0-.28-.18-.28-.11 0-.23.07-.26.15m.6 0a.5.5 0 0 0 0 .3c.07.18.46.2.46.03q0-.14.08-.02c.1.16.62.27.62.14q.01-.1.11-.04.1.04.2-.07.09-.15.09-.01 0 .1.1.12c.06 0 .1-.13.1-.3q0-.47-.28-.18-.14.15-.12 0c0-.22-.2-.12-.21.1q.02.34-.09-.02l-.07-.25-.11.25c-.1.24-.1.24-.11.03-.01-.25-.16-.31-.24-.1q-.06.15-.06 0c-.01-.18-.4-.16-.47.02m2.46.15c0 .3.14.4.23.18q.06-.15.06 0c.02.26.21.1.21-.18 0-.3-.14-.4-.23-.17q-.06.15-.06 0c-.02-.27-.21-.11-.21.17m.86-.14c-.12.31-.06.4.3.41.27 0 .37-.04.44-.2q.1-.31.1-.02c0 .19.06.2.6.2.62 0 .73-.1.5-.45-.1-.13-.12-.13-.24.03q-.25.3-.26.03 0-.13-.4-.13c-.33 0-.43.04-.5.2-.07.22-.07.22-.14 0-.08-.27-.31-.3-.4-.07"/></svg>