<?xml version="1.0" encoding="UTF-8" standalone="no"?>
<svg
   viewBox="0 0 24 24"
   width="24pt"
   height="24pt"
   version="1.1"
   id="svg4"
   sodipodi:docname="touslesjours.svg"
   xml:space="preserve"
   inkscape:version="1.2.2 (732a01da63, 2022-12-09)"
   xmlns:inkscape="http://www.inkscape.org/namespaces/inkscape"
   xmlns:sodipodi="http://sodipodi.sourceforge.net/DTD/sodipodi-0.dtd"
   xmlns="http://www.w3.org/2000/svg"
   xmlns:svg="http://www.w3.org/2000/svg"><defs
     id="defs8" /><sodipodi:namedview
     id="namedview6"
     pagecolor="#ffffff"
     bordercolor="#000000"
     borderopacity="0.25"
     inkscape:showpageshadow="2"
     inkscape:pageopacity="0.0"
     inkscape:pagecheckerboard="0"
     inkscape:deskcolor="#d1d1d1"
     inkscape:document-units="pt"
     showgrid="false"
     inkscape:zoom="17.766058"
     inkscape:cx="14.719078"
     inkscape:cy="14.043633"
     inkscape:window-width="1920"
     inkscape:window-height="991"
     inkscape:window-x="-9"
     inkscape:window-y="-9"
     inkscape:window-maximized="1"
     inkscape:current-layer="svg4" /><path
     d="m 11.004822,1.6041406 c -3.3543024,0.446991 -5.9925904,2.618857 -7.0782794,5.8269 -0.337642,0.9974782 -0.430487,1.7343064 -0.379756,3.0134914 0.05325,1.344469 0.265528,2.171541 0.870568,3.393164 1.800485,3.634872 5.8178754,5.452186 9.7988434,4.432675 0.930893,-0.238373 2.310484,-0.943087 3.115117,-1.591135 1.356908,-1.092843 2.46219,-2.817962 2.914385,-4.548854 0.178943,-0.684876 0.213658,-0.998778 0.220081,-1.991866 0.01057,-1.6327612 -0.206504,-2.5592644 -0.934877,-3.9895864 -1.357558,-2.666174 -4.093,-4.426821 -7.10332,-4.572025 -0.491869,-0.02374 -1.132112,-0.01146 -1.422762,0.02724 m -0.731706,0.233658 c -2.5671494,0.566504 -4.6803974,2.211541 -5.8135664,4.525602 -1.033006,2.1095082 -1.124307,4.6817804 -0.24317,6.8501504 0.438373,1.078779 0.957722,1.836095 1.905606,2.778613 1.254307,1.247315 2.539264,1.944225 4.2313744,2.294956 1.087152,0.225365 2.811214,0.167641 3.854464,-0.129187 3.402921,-0.968047 5.757957,-3.755929 6.145111,-7.274621 0.278374,-2.5299962 -0.700649,-5.1726744 -2.561133,-6.9130774 -0.992275,-0.92821 -2.355199,-1.691298 -3.656904,-2.047395 -0.936828,-0.25626 -2.890727,-0.299268 -3.861782,-0.08504 m -3.4121884,3.645522 c 0.0021,0.330487 0.01593,0.36317 0.09472,0.224309 0.132439,-0.233577 0.230325,-0.28187 0.573576,-0.283333 l 0.304878,-0.0012 v 1.045934 c 0,0.942112 -0.01707,1.067721 -0.172114,1.264713 l -0.172113,0.21878 0.582519,-0.01699 c 0.502844,-0.01463 0.57382,-0.0348 0.51878,-0.146829 -0.03504,-0.07138 -0.07545,-0.620324 -0.08976,-1.219754 -0.02813,-1.177314 -8.1e-5,-1.261948 0.388942,-1.17455 0.112114,0.02512 0.286016,0.14252 0.386422,0.260813 l 0.18252,0.21504 4.07e-4,-0.380975 4.06e-4,-0.380975 -1.30081,-0.0059 -1.300811,-0.0059 0.0024,0.38691 m 3.3630824,-0.269268 c -0.4272334,0.186016 -0.6371524,0.572032 -0.6659324,1.224957 -0.03813,0.863901 0.293495,1.364876 0.9766644,1.47577 0.359186,0.05829 0.899836,-0.03065 0.833982,-0.137154 -0.02594,-0.04195 0.003,-0.05707 0.06423,-0.0335 0.172357,0.0661 0.52512,-0.259024 0.631869,-0.582438 0.1413,-0.42821 0.06675,-1.280566 -0.136017,-1.554793 -0.339349,-0.45878 -1.133006,-0.641706 -1.704794,-0.392845 m 2.081623,-0.06976 c 0,0.02561 0.05488,0.101381 0.121951,0.168455 0.09447,0.09447 0.121951,0.336097 0.121951,1.073656 0,1.043088 0.05772,1.2126 0.488698,1.435526 0.515691,0.2666662 1.493006,0.02894 1.6939,-0.412032 0.0535,-0.117317 0.09382,-0.607316 0.09382,-1.13951 0,-0.754958 0.02333,-0.942681 0.121951,-0.980486 0.250569,-0.09618 0.108536,-0.192032 -0.284553,-0.192032 -0.378617,0 -0.515608,0.08561 -0.325202,0.203252 0.114146,0.07057 0.103577,1.85398 -0.01244,2.108614 -0.110569,0.242764 -0.529186,0.353658 -0.795934,0.210975 -0.262357,-0.140488 -0.329837,-0.415121 -0.329837,-1.343493 0,-0.640487 0.02927,-0.871788 0.121951,-0.96447 0.06707,-0.06707 0.121951,-0.142846 0.121951,-0.168455 0,-0.02553 -0.256097,-0.04642 -0.569105,-0.04642 -0.313007,0 -0.569104,0.02089 -0.569104,0.04642 m 3.276742,0.110569 c -0.18439,0.113902 -0.275528,0.244308 -0.313983,0.449267 -0.07309,0.389674 0.101545,0.638536 0.636259,0.906421 0.571218,0.28626 0.709917,0.421463 0.709917,0.692194 0,0.296341 -0.244471,0.429024 -0.682356,0.370243 -0.221951,-0.02976 -0.394959,-0.116016 -0.516666,-0.25756 l -0.183089,-0.212845 v 0.284308 c 0,0.346991 0.04951,0.380406 0.644064,0.434308 0.567397,0.05146 1.000892,-0.07618 1.22455,-0.360487 0.340488,-0.432845 0.158943,-0.875608 -0.494958,-1.20699 -0.679104,-0.344064 -0.862763,-0.616909 -0.595527,-0.884226 0.201219,-0.201137 0.603088,-0.158942 0.863738,0.09073 l 0.228048,0.218455 v -0.290244 c 0,-0.334064 -0.04472,-0.356015 -0.772356,-0.378779 -0.363333,-0.01138 -0.554064,0.02569 -0.747641,0.145203 m -5.098365,0.241138 c -0.309918,0.342356 -0.306422,1.710728 0.0051,2.055036 0.175447,0.193821 0.555853,0.189593 0.753739,-0.0083 0.297072,-0.297073 0.328942,-1.578046 0.04984,-2.00398 -0.162276,-0.247723 -0.602194,-0.270975 -0.808698,-0.04276 m 0.490162,3.0780422 C 10.732164,9.051692 10.35436,10.271283 10.35436,10.574941 c 0,0.123659 0.03788,0.295528 0.08415,0.382032 0.111707,0.208617 0.497723,0.205121 0.689023,-0.0063 l 0.147967,-0.163577 0.156667,0.16813 c 0.107317,0.115203 0.235446,0.160324 0.407154,0.143251 0.280649,-0.02797 0.413983,-0.228211 0.151869,-0.228211 -0.09089,0 -0.198699,-0.05959 -0.239512,-0.13252 -0.05723,-0.102276 0.01594,-0.219268 0.32122,-0.513495 0.566665,-0.546259 0.511055,-1.007559 -0.08439,-0.699673 -0.298617,0.154471 -0.475771,0.406422 -0.613332,0.872112 -0.119268,0.404064 -0.302682,0.555853 -0.512682,0.424308 -0.292763,-0.183251 -0.20691,-0.856096 0.225935,-1.772355 0.381869,-0.8082092 0.276422,-1.2456884 -0.114309,-0.4745522 m 2.330321,0.8897552 c -0.249105,0.04821 -0.673658,0.462113 -0.673658,0.656747 0,0.228292 0.177887,0.346991 0.563902,0.376341 0.433251,0.03285 0.474552,0.08455 0.207398,0.259511 -0.181057,0.118699 -0.27252,0.128618 -0.535446,0.05846 -0.332195,-0.0887 -0.424878,-0.0036 -0.219593,0.201707 0.170487,0.170487 0.536259,0.110081 0.809023,-0.133659 0.323332,-0.288861 0.272682,-0.4613 -0.170732,-0.580649 -0.372276,-0.100244 -0.433007,-0.288699 -0.169755,-0.526829 0.197804,-0.179023 0.444877,-0.10626 0.387316,0.114065 -0.05496,0.210244 0.160732,0.127724 0.229105,-0.08756 0.04748,-0.149675 -0.08488,-0.408292 -0.196503,-0.384065 -0.02813,0.0061 -0.132033,0.02675 -0.231057,0.04594 M 11.95802,9.793204 c -0.169836,0.18756 -0.321625,0.589267 -0.222682,0.589267 0.0874,0 0.407642,-0.326178 0.407642,-0.415203 0,-0.0326 0.02219,-0.117154 0.04935,-0.187886 0.06593,-0.171869 -0.07374,-0.163658 -0.234309,0.01382 m -5.7499884,1.879915 c 0,0.04073 0.05488,0.09512 0.121951,0.120894 0.102357,0.03927 0.121951,0.28878 0.121951,1.550241 0,1.441867 -0.0073,1.510242 -0.177967,1.669184 l -0.177886,0.165772 h 0.212357 c 0.295447,0 0.691706,-0.359024 0.791055,-0.716584 0.04577,-0.164796 0.08341,-0.839267 0.08366,-1.498859 4.12e-4,-1.011543 0.01959,-1.199185 0.122439,-1.199185 0.06707,0 0.121951,-0.03016 0.121951,-0.06707 0,-0.03691 -0.27439,-0.07415 -0.609755,-0.08276 -0.335366,-0.0087 -0.609755,0.01756 -0.609755,0.05837 m 2.028614,0.112032 c -0.418942,0.282357 -0.585528,0.634958 -0.585528,1.239592 0,0.890567 0.476341,1.422761 1.273413,1.422761 0.822519,0 1.3485334,-0.551706 1.3485334,-1.414306 0,-0.614471 -0.260893,-1.084226 -0.7086964,-1.276177 -0.493008,-0.2113 -0.987885,-0.200812 -1.327722,0.02813 m 2.1990204,-0.108617 c 0,0.04097 0.0374,0.08699 0.08309,0.102194 0.04902,0.01634 0.09293,0.445122 0.106992,1.043332 0.0165,0.704226 0.05935,1.071787 0.139674,1.198616 0.257723,0.40691 0.999673,0.544145 1.613574,0.298536 0.47439,-0.189837 0.576991,-0.471137 0.576991,-1.582355 0,-0.773657 0.02179,-0.93073 0.142276,-1.024958 0.124716,-0.09748 0.08951,-0.108617 -0.285446,-0.09024 -0.349593,0.01715 -0.416422,0.04325 -0.365853,0.142926 0.03406,0.06707 0.06089,0.58756 0.05968,1.156665 -0.002,0.933331 -0.01789,1.046502 -0.162602,1.155932 -0.20439,0.154553 -0.611625,0.160082 -0.815608,0.01122 -0.139594,-0.101951 -0.160894,-0.237723 -0.184552,-1.178941 -0.02301,-0.910567 -0.0084,-1.070811 0.101625,-1.113006 0.286992,-0.110163 0.09594,-0.194471 -0.440731,-0.194471 -0.313007,0 -0.569104,0.0335 -0.569104,0.07455 m 2.926824,-0.002 c 0,0.03992 0.05488,0.09366 0.12195,0.119431 0.100651,0.03862 0.121952,0.253333 0.121952,1.23073 0,0.977396 -0.0213,1.192111 -0.121952,1.230729 -0.280893,0.107805 -0.0848,0.192032 0.447154,0.192032 0.313008,0 0.569105,-0.0335 0.569105,-0.07455 0,-0.04098 -0.04187,-0.08846 -0.09301,-0.105529 -0.0526,-0.01748 -0.103902,-0.249999 -0.118048,-0.535202 -0.02439,-0.490568 -0.01952,-0.504227 0.178536,-0.504227 0.172113,0 0.243089,0.08504 0.458129,0.54878 0.139918,0.301869 0.293495,0.57569 0.341219,0.608535 0.130812,0.09 0.777885,0.07415 0.777885,-0.01911 0,-0.04472 -0.03862,-0.0813 -0.08577,-0.0813 -0.04715,0 -0.173252,-0.197724 -0.280081,-0.439431 -0.106911,-0.241706 -0.278699,-0.501625 -0.381707,-0.57756 -0.149431,-0.110081 -0.162845,-0.147316 -0.06626,-0.183576 0.06667,-0.02504 0.226666,-0.150976 0.355609,-0.279919 0.197886,-0.197885 0.227073,-0.27943 0.187398,-0.52382 -0.0548,-0.33756 -0.209674,-0.472438 -0.679836,-0.59195 -0.412845,-0.104959 -1.732273,-0.115691 -1.732273,-0.01407 m 3.233734,0.05415 c -0.270975,0.147073 -0.388211,0.352683 -0.388211,0.680893 0,0.312114 0.18813,0.502926 0.800405,0.812031 0.474145,0.23935 0.581706,0.361463 0.581706,0.660569 0,0.409836 -1.004632,0.429999 -1.2439,0.02496 -0.117317,-0.198698 -0.230325,-0.115202 -0.204308,0.150976 0.01935,0.198455 0.07415,0.274471 0.228698,0.317073 0.362845,0.100081 1.029998,0.0752 1.328616,-0.04951 0.339105,-0.141707 0.459999,-0.328698 0.459999,-0.711299 0,-0.308373 -0.253089,-0.596828 -0.731706,-0.834064 -0.543658,-0.269511 -0.722113,-0.58634 -0.471544,-0.836909 0.170081,-0.170081 0.62317,-0.115853 0.839511,0.100407 0.218455,0.218455 0.314227,0.160162 0.237642,-0.144716 -0.03472,-0.138617 -0.124146,-0.213088 -0.297154,-0.247641 -0.414309,-0.08285 -0.906177,-0.04951 -1.139754,0.07724 m -7.9818554,0.242764 c -0.301544,0.301544 -0.371951,1.392111 -0.124634,1.929184 0.05715,0.124064 0.189105,0.24691 0.29317,0.273007 0.301382,0.07569 0.559593,-0.02927 0.671869,-0.273007 0.247317,-0.537073 0.17691,-1.62764 -0.124634,-1.929184 -0.0691,-0.06911 -0.230162,-0.125609 -0.357886,-0.125609 -0.127723,0 -0.28878,0.0565 -0.357885,0.125609 m 5.6774694,-0.01821 c -0.02643,0.06878 -0.03358,0.319755 -0.01594,0.557641 0.02976,0.401951 0.04789,0.434389 0.255609,0.45878 0.343333,0.04024 0.62008,-0.182033 0.616991,-0.495609 -0.0035,-0.35317 -0.149349,-0.522276 -0.508698,-0.589674 -0.231544,-0.04349 -0.310975,-0.02772 -0.347967,0.06886"
     stroke="none"
     fill="#d8b86f"
     fill-rule="evenodd"
     id="path183"
     style="stroke-width:0.0813007" /></svg>
