<svg xmlns="http://www.w3.org/2000/svg" width="24" height="24"><path fill="#836371" fill-rule="evenodd" d="M12.73 6.89q-.88.4-.8 1.34c.03.35.12.56.3.76.15.15.27.32.27.38s-.21.34-.47.63l-.47.52.32.29c.66.6.93.5 1.64-.54.21-.32.44-.55.5-.51.05.03.09.3.08.58-.04.82-.06.79.55.74.3-.03.6-.1.66-.15.28-.28.68-3.18.48-3.54-.14-.27-1.16-.61-1.94-.66-.55-.03-.79 0-1.12.16m-7.63.57c-.08.03-.58.08-1.1.12l-.95.07v.9l.4.03.42.03.12.82c.16 1.02.2 1.08.71.95.45-.12.46-.15.25-1.03s-.2-.93.26-1.06c.47-.14.56-.3.4-.65-.1-.23-.2-.26-.51-.18m8.72.14q-.11.2-.48.2H13l.19.28q.2.26.11.47c-.13.33-.1.36.26.3.27-.06.4-.03.55.1.18.16.19.16.25-.17q.07-.34.33-.5l.27-.17-.33-.12a.7.7 0 0 1-.42-.35q-.15-.44-.38-.04m-4.86.47-.28.47-.35-.43c-.3-.36-.4-.41-.62-.36-.53.13-.54.23-.06.85.25.32.45.63.45.69s-.14.27-.32.47l-.32.36.27.24c.42.36.62.3 1.06-.28.52-.7 1.2-1.97 1.2-2.25.01-.2-.04-.23-.37-.23-.34 0-.4.04-.66.47m10.05-.1c-.43.4-.47.65-.16 1.01.14.17.35.34.45.37q.18.07.2.22c0 .18-.45.1-.71-.13-.15-.14-.19-.13-.33.08-.16.22-.15.24.13.5.36.32.96.5 1.4.42.38-.08.81-.56.81-.9 0-.3-.43-.75-.9-.94-.38-.16-.4-.34-.02-.27.64.13.67.12.7-.1.02-.15-.06-.24-.31-.37q-.77-.36-1.26.12m-8.73.08a.7.7 0 0 0-.34.8c.03.1.22.3.41.43.55.37.42.58-.16.24-.23-.14-.31-.15-.41-.05-.32.32.51.86 1.2.79.52-.06.85-.33.85-.72 0-.27-.37-.75-.59-.75-.06 0-.17-.07-.24-.15-.16-.2.1-.31.38-.16q.19.1.3-.01c.18-.18.15-.26-.17-.43a1.4 1.4 0 0 0-1.23 0m6.14.32c-.55 1.08-.29 1.92.62 1.93.72 0 1.36-.9 1.36-1.93 0-.34-.02-.37-.3-.37s-.3.03-.35.47q-.11.89-.4 1c-.33.12-.4-.14-.21-.68.19-.55.16-.64-.26-.74-.24-.06-.29-.02-.46.32M6 8.2c-.67.27-.92.85-.64 1.45.33.7 1.28.82 1.86.24.52-.52.33-1.37-.38-1.66-.38-.16-.5-.16-.84-.03M6 9c-.15.26-.03.59.2.59.21 0 .37-.39.26-.65-.08-.21-.33-.19-.46.05"/></svg>