<svg xmlns="http://www.w3.org/2000/svg" width="24" height="24"><path fill="#d61b20" fill-rule="evenodd" d="M11.4 5.3c-.47.46-.38 1.05.21 1.36a.88.88 0 0 0 1.29-.78c0-.41-.48-.88-.9-.88q-.32 0-.6.3M3.1 7.4c-.31.58.03 1.13.66 1.03.3-.05.34-.03.4.23q.67 3.01 2.38 3.92c.43.22.64.27 1.31.27.68 0 .88-.04 1.34-.29a5.4 5.4 0 0 0 2.4-3.03c.23-.7.2-.9-.15-1-.38-.09-.5.01-.9.77-.94 1.79-2.28 2.5-3.53 1.85a3.6 3.6 0 0 1-1.67-2.44l-.07-.41h.41c.5 0 .76-.22.67-.59-.12-.5-.18-.51-1.7-.51-1.32 0-1.45.02-1.55.2m11.12 1.52a.5.5 0 0 0-.12.3c0 .15.08.18.45.18h.44l.03 1.22.03 1.23h.7l.03-1.22.03-1.22.42-.03c.37-.03.42-.06.42-.28v-.25l-1.15-.03c-.81-.02-1.2.01-1.28.1m3.05-.06c-.04.04-.07.6-.07 1.26 0 1.19 0 1.2.3 1.49.25.26.35.29.9.29.52 0 .64-.04.92-.29.32-.28.32-.3.36-1.3.06-1.35 0-1.53-.4-1.5l-.33.04-.03 1.1c-.01.6-.08 1.15-.14 1.22s-.23.13-.38.13-.32-.06-.38-.13a5 5 0 0 1-.14-1.23c-.03-1.08-.03-1.09-.28-1.12-.14-.02-.29 0-.33.04m3.08.06c-.03.08-.04.77-.03 1.53l.03 1.4h.6v-3l-.28-.03c-.16-.02-.3.02-.32.1"/></svg>