<svg xmlns="http://www.w3.org/2000/svg" width="24" height="24"><path fill="#111" fill-rule="evenodd" d="M12.45 2.11a6 6 0 0 0-2.62.69 6.6 6.6 0 0 0-3.3 3.95c-.15.4-.18.84-.18 2.35 0 2.03.05 2.29.61 3.45q1.8 3.65 6.77 3.4c1.61-.08 3.26-.49 3.73-.92l.24-.22v-3.14c0-2.95-.01-3.16-.2-3.38-.18-.24-.2-.24-2.57-.27-2.98-.03-2.87-.07-2.9 1.05-.05 1.2 0 1.23 1.62 1.23h1.25v2.85l-.32.15c-.24.1-.66.15-1.48.14-1.38 0-1.82-.16-2.65-.94a4 4 0 0 1-1.15-2.26c-.13-.6-.12-2.13.03-2.58.5-1.5 1.12-2.3 2.17-2.8.62-.3.7-.31 1.95-.3 1.18 0 1.37.02 2.1.28.43.16.97.4 1.2.52.47.28.8.3.89.08.03-.09.06-.57.06-1.08 0-.8-.03-.95-.22-1.16a5 5 0 0 0-1.83-.85c-.22-.04-.51-.1-.65-.15a10 10 0 0 0-2.55-.09"/></svg>