<?xml version="1.0" encoding="UTF-8" standalone="no"?>
<svg
   viewBox="0 0 24 24"
   width="24pt"
   height="24pt"
   version="1.1"
   id="svg1"
   xml:space="preserve"
   xmlns="http://www.w3.org/2000/svg"
   xmlns:svg="http://www.w3.org/2000/svg"><defs
     id="defs1" /><path
     d="m 7.6053225,4.1413937 c -0.174654,0.07023 -0.353457,0.275356 -0.397514,0.455875 -0.04391,0.180376 -0.06194,2.774018 -0.03991,5.7636013 l 0.03977,5.435604 h 1.001296 1.001295 l 0.03791,-4.501968 0.03776,-4.5019683 0.436136,0.925913 c 0.9603855,2.0384942 3.9179265,7.4622263 4.2506425,7.7949423 0.312547,0.312548 0.47819,0.354602 1.397665,0.354602 0.760699,0 1.104429,-0.06122 1.2695,-0.226436 0.200259,-0.200116 0.222145,-0.883 0.188959,-5.9004911 l -0.03733,-5.6740562 -0.87127,-0.04205 c -0.623092,-0.03004 -0.919905,0.01645 -1.041491,0.163068 -0.124733,0.150338 -0.159492,1.277081 -0.130025,4.22604 0.02217,2.2115763 0.03104,4.0210603 0.01974,4.0210603 -0.0113,-1.43e-4 -0.537267,-1.014027 -1.168941,-2.253058 -2.193696,-4.3034263 -2.981,-5.6744853 -3.40841,-5.9355373 C 9.7450995,3.9741817 8.1792165,3.9105287 7.6053305,4.1413987"
     stroke="none"
     fill="#080808"
     fill-rule="evenodd"
     id="path1-9"
     style="stroke-width:0.143042" /></svg>
