<svg xmlns="http://www.w3.org/2000/svg" width="24" height="24"><path fill="#111" fill-rule="evenodd" d="M10.94 2.09c-.66.08-.77.18-1.04.94l-.3.82c-.05.11-.22.6-.39 1.1q-.98 2.92-1.1 3.15c-.05.09-.12.31-.16.5a2 2 0 0 1-.16.5c-.05.08-.27.71-.5 1.4a45 45 0 0 1-1 2.85l-.4 1.18c-.37 1.1-.34 1.25.22 1.4.46.12 1.9.04 2.15-.13.2-.12.28-.34.98-2.5.06-.2.15-.38.21-.42s1.16-.08 2.46-.08c2.58 0 2.51-.02 2.64.6.04.19.11.41.16.5.04.08.2.51.34.95s.33.86.4.94c.17.17 1.68.27 2.4.17l.45-.07v-.42c0-.49-.01-.54-.7-2.47l-.86-2.5c-.34-1-.47-1.36-.64-1.7a3 3 0 0 1-.15-.5 3 3 0 0 0-.15-.5l-.25-.65c-.1-.28-.2-.59-.25-.7L14.8 5a41 41 0 0 0-.74-2.11 2 2 0 0 0-.34-.62c-.2-.18-1.96-.3-2.78-.18m.62 3.98c-.15.48-.32.97-.37 1.08l-.25.75c-.08.3-.2.64-.24.75-.05.11-.16.45-.25.75s-.2.63-.26.72c-.05.1-.09.22-.09.28s.64.1 1.76.1h1.76l-.07-.32a1 1 0 0 0-.16-.42 1 1 0 0 1-.09-.32q0-.21-.09-.28c-.05-.03-.12-.22-.16-.42-.03-.2-.1-.44-.15-.53l-.5-1.51c-.24-.74-.46-1.39-.5-1.43s-.18.32-.33.8"/></svg>