<?xml version="1.0" encoding="UTF-8" standalone="no"?>
<svg
   viewBox="0 0 24 24"
   width="24pt"
   height="24pt"
   version="1.1"
   id="svg1"
   xml:space="preserve"
   xmlns="http://www.w3.org/2000/svg"
   xmlns:svg="http://www.w3.org/2000/svg"><defs
     id="defs1" /><path
     d="m 8.197381,4.3066105 c -0.199896,0.373484 -0.08236,1.404995 0.178878,1.570717 0.104237,0.06606 1.170781,0.121111 2.370159,0.122398 1.199379,0.0011 2.180559,0.0306 2.180559,0.0652 0,0.03475 -0.997767,1.646929 -2.217449,3.58255 -1.21954,1.9357645 -2.345566,3.7707215 -2.50228,4.0778585 -0.341597,0.669753 -0.366191,1.390839 -0.0622,1.824806 0.220201,0.314572 0.260952,0.317861 3.92715,0.317861 3.516204,0 3.711953,-0.01401 3.85251,-0.276538 0.170298,-0.318147 0.193462,-1.150048 0.03861,-1.382403 -0.06578,-0.09852 -1.008062,-0.188886 -2.51472,-0.240933 -1.325208,-0.0459 -2.440939,-0.114819 -2.479402,-0.153283 -0.03832,-0.03832 1.010349,-1.795922 2.330695,-3.9055585 2.239183,-3.578118 2.404333,-3.889401 2.458955,-4.632507 0.0958,-1.303902 0.178877,-1.276735 -3.90942,-1.276735 -3.41983,0 -3.491181,0.006 -3.652042,0.306565"
     stroke="none"
     fill="#080808"
     fill-rule="evenodd"
     id="path1-7"
     style="stroke-width:0.142987" /></svg>
