<svg xmlns="http://www.w3.org/2000/svg" width="24" height="24"><path fill="#111" fill-rule="evenodd" d="M4.32 2.2a2 2 0 0 0-.33.47c-.05.14-.09 2.89-.09 6.62 0 5.82.01 6.4.17 6.52.11.1.47.14 1.25.14 1.64 0 1.5.6 1.46-5.76-.02-4.18 0-5.23.1-5.06.06.12.11.32.12.44s.04.24.09.27.12.22.16.42c.03.2.1.44.15.53s.28.72.5 1.41c.23.69.45 1.34.5 1.45s.2.56.35 1 .3.87.34.95c.05.09.12.31.16.5.04.2.1.4.14.45s.2.5.36 1 .32.94.36 1 .1.27.14.47c.09.45.44.83.86.92a7 7 0 0 0 1.84-.03c.35-.07.54-.41 1-1.76.09-.28.2-.59.25-.7s.16-.45.26-.75.21-.6.25-.65.1-.26.14-.45.11-.41.15-.5q.18-.36.45-1.15c.09-.27.2-.59.25-.7l.25-.7c.09-.28.2-.59.25-.7a17 17 0 0 0 .48-1.35l.33-.95.27-.8.01 5.41c.01 6.42-.15 5.79 1.46 5.79.72 0 1.07-.04 1.18-.14.16-.12.17-.71.17-6.68V2.58l-.3-.29-.28-.29h-1.64c-2.09 0-2.2.06-2.76 1.5l-.2.5-.52 1.4a61 61 0 0 1-1.06 2.77 2 2 0 0 0-.14.42c0 .06-.04.2-.09.29-.12.24-.24.54-.64 1.62-.2.52-.39.94-.44.93-.04-.02-.12-.15-.16-.3l-.18-.5c-.2-.49-.27-.7-.44-1.18l-.65-1.8-.65-1.8c-.1-.27-.2-.59-.25-.7l-.35-.95C8.93 3 8.73 2.64 8.34 2.33c-.37-.28-.38-.28-2.08-.31-1.64-.03-1.72-.02-1.94.18"/></svg>