<?xml version="1.0" encoding="UTF-8" standalone="no"?>
<svg
   viewBox="0 0 24 24"
   width="24pt"
   height="24pt"
   version="1.1"
   id="svg1"
   xml:space="preserve"
   xmlns="http://www.w3.org/2000/svg"
   xmlns:svg="http://www.w3.org/2000/svg"><defs
     id="defs1" /><path
     d="m 7.7836852,4.1847736 c -0.03769,0.09824 -0.05183,2.74875 -0.03127,5.8898734 l 0.03741,5.711107 0.976648,0.04255 c 0.597126,0.02599 1.0548938,-0.02242 1.1779738,-0.124651 0.160205,-0.132933 0.201898,-0.72449 0.203897,-2.898104 l 0.0026,-2.731187 0.728203,1.142277 c 0.400511,0.628254 1.243513,1.931879 1.87348,2.896819 l 1.145134,1.75454 1.15827,-0.04112 c 1.045328,-0.03712 1.162269,-0.06982 1.200249,-0.335687 0.02656,-0.185763 -0.649813,-1.34132 -1.828645,-3.124132 -1.02905,-1.556068 -1.842067,-2.9013874 -1.806656,-2.9893424 0.03527,-0.0881 0.75219,-1.059607 1.593336,-2.15905 2.33139,-3.047742 2.364802,-3.212658 0.650813,-3.212658 -1.151274,0 -0.969509,-0.171342 -3.088578,2.909526 l -1.559354,2.266852 -0.03927,-2.399356 c -0.02413,-1.473968 -0.09966,-2.472176 -0.195901,-2.58826 -0.210608,-0.253586 -2.1015068,-0.262296 -2.1983148,-0.01"
     stroke="none"
     fill="#070707"
     fill-rule="evenodd"
     id="path1-7"
     style="stroke-width:0.142785" /></svg>
