<?xml version="1.0" encoding="UTF-8" standalone="no"?>
<svg
   viewBox="0 0 24 24"
   width="24pt"
   height="24pt"
   version="1.1"
   id="svg1"
   sodipodi:docname="unknown_logo_r.svg"
   xml:space="preserve"
   inkscape:version="1.4.2 (f4327f4, 2025-05-13)"
   xmlns:inkscape="http://www.inkscape.org/namespaces/inkscape"
   xmlns:sodipodi="http://sodipodi.sourceforge.net/DTD/sodipodi-0.dtd"
   xmlns="http://www.w3.org/2000/svg"
   xmlns:svg="http://www.w3.org/2000/svg"><defs
     id="defs1" /><sodipodi:namedview
     id="namedview1"
     pagecolor="#ffffff"
     bordercolor="#000000"
     borderopacity="0.25"
     inkscape:showpageshadow="2"
     inkscape:pageopacity="0.0"
     inkscape:pagecheckerboard="0"
     inkscape:deskcolor="#d1d1d1"
     inkscape:document-units="pt"
     inkscape:zoom="8.5405241"
     inkscape:cx="2.1661434"
     inkscape:cy="15.280093"
     inkscape:window-width="1920"
     inkscape:window-height="991"
     inkscape:window-x="355"
     inkscape:window-y="1791"
     inkscape:window-maximized="1"
     inkscape:current-layer="svg1"
     showguides="false" /><path
     d="m 7.8900431,4.1796529 c -0.223799,0.164024 -0.240673,0.64823 -0.206067,5.8988501 l 0.03761,5.720097 h 1.072518 1.0725182 l 0.08795,-2.288039 c 0.04833,-1.258421 0.09653,-2.336374 0.1072507,-2.395291 0.03918,-0.217363 1.106124,-0.09753 1.552149,0.174463 0.500508,0.305168 0.967983,1.142447 1.759072,3.150344 0.263411,0.668536 0.547557,1.262854 0.631356,1.320627 0.0838,0.05777 0.620916,0.105965 1.193498,0.107252 0.815972,0.0017 1.059934,-0.04648 1.127574,-0.222512 0.04733,-0.123554 -0.290009,-1.103979 -0.749762,-2.178928 -0.635931,-1.487082 -0.977278,-2.095843 -1.42745,-2.546015 L 13.556659,10.3289 14.164563,10.033457 C 15.66523,9.3044309 16.200488,7.3405789 15.351912,5.6771749 14.980248,4.9487199 14.015697,4.3539729 12.886979,4.1574879 11.618834,3.9365489 8.2007901,3.9518509 7.8900461,4.1796579 m 2.1910829,3.396308 v 1.716029 l 0.536259,-0.0063 c 1.716744,-0.01988 2.609794,-0.619344 2.609794,-1.751637 0,-1.131149 -0.74061,-1.674129 -2.283463,-1.674129 h -0.86259 v 1.716029"
     stroke="none"
     fill="#050505"
     fill-rule="evenodd"
     id="path1-2"
     style="stroke-width:0.143002" /></svg>
