<?xml version="1.0" encoding="UTF-8" standalone="no"?>
<svg
   viewBox="0 0 24 24"
   width="24pt"
   height="24pt"
   version="1.1"
   id="svg1"
   xml:space="preserve"
   xmlns="http://www.w3.org/2000/svg"
   xmlns:svg="http://www.w3.org/2000/svg"><defs
     id="defs1" /><path
     d="M 8.0302598,4.2741837 C 7.752482,4.4837048 7.7409621,4.6828574 7.7048177,9.8671668 7.6757327,14.041313 7.7090377,15.323493 7.853571,15.602998 L 8.0397629,15.963 h 2.5872591 c 2.097657,0 2.724347,-0.04796 3.31187,-0.253152 0.939891,-0.328322 1.764727,-1.017221 2.098808,-1.752632 0.29837,-0.656787 0.359137,-1.994552 0.119377,-2.628875 -0.215137,-0.569379 -0.831027,-1.19002 -1.471686,-1.4826302 l -0.545042,-0.248978 0.509185,-0.3883687 c 0.681699,-0.5199866 0.961348,-1.1080843 0.961348,-2.0222002 0,-1.3560543 -0.643538,-2.291914 -1.894615,-2.7551638 C 12.777095,4.0830951 8.4418133,3.9635744 8.0302598,4.2741837 m 2.0880082,3.1927816 v 1.5120061 h 1.060564 c 1.251077,0 1.715479,-0.2676969 1.976553,-1.1390453 C 13.291609,7.3851727 13.278073,7.2051717 13.075175,6.777634 12.778102,6.1515197 12.290228,5.9549584 11.032815,5.9549584 h -0.914548 v 1.5120069 m 0,5.0400207 v 1.656007 h 1.231205 c 1.404006,0 1.957113,-0.207217 2.294361,-0.859252 0.427538,-0.826851 0.139536,-1.830824 -0.640802,-2.234313 -0.280945,-0.145297 -0.834772,-0.218448 -1.653559,-0.218448 h -1.231205 v 1.656006"
     stroke="none"
     fill="#060606"
     fill-rule="evenodd"
     id="path1-1"
     style="stroke-width:0.144" /></svg>
