<?xml version="1.0" encoding="UTF-8" standalone="no"?>
<svg
   viewBox="0 0 24 24"
   width="24pt"
   height="24pt"
   version="1.1"
   id="svg1"
   sodipodi:docname="urban_baristas.svg"
   xml:space="preserve"
   inkscape:version="1.3 (0e150ed6c4, 2023-07-21)"
   xmlns:inkscape="http://www.inkscape.org/namespaces/inkscape"
   xmlns:sodipodi="http://sodipodi.sourceforge.net/DTD/sodipodi-0.dtd"
   xmlns="http://www.w3.org/2000/svg"
   xmlns:svg="http://www.w3.org/2000/svg"><defs
     id="defs1" /><sodipodi:namedview
     id="namedview1"
     pagecolor="#ffffff"
     bordercolor="#000000"
     borderopacity="0.25"
     inkscape:showpageshadow="2"
     inkscape:pageopacity="0.0"
     inkscape:pagecheckerboard="0"
     inkscape:deskcolor="#d1d1d1"
     inkscape:document-units="pt"
     inkscape:zoom="11.313709"
     inkscape:cx="31.377863"
     inkscape:cy="17.987029"
     inkscape:window-width="1920"
     inkscape:window-height="974"
     inkscape:window-x="-11"
     inkscape:window-y="1609"
     inkscape:window-maximized="1"
     inkscape:current-layer="svg1" /><g
     id="g84"
     transform="translate(-25.290116,-5.2701552)"><path
       style="fill:#ffffff;stroke-width:0.769397"
       id="path83"
       sodipodi:type="arc"
       sodipodi:cx="37.289692"
       sodipodi:cy="15.445863"
       sodipodi:rx="7.9226627"
       sodipodi:ry="7.88866"
       sodipodi:start="0"
       sodipodi:end="6.2753717"
       sodipodi:open="true"
       sodipodi:arc-type="arc"
       d="m 45.212355,15.445863 a 7.9226627,7.88866 0 0 1 -7.907187,7.888645 7.9226627,7.88866 0 0 1 -7.938078,-7.857826 7.9226627,7.88866 0 0 1 7.876174,-7.9193437 7.9226627,7.88866 0 0 1 7.968849,7.8268867" /><g
       id="g83"><g
         id="g4"
         transform="matrix(0.01705073,0,0,0.01705073,28.652383,6.772303)"><path
           d="m 0,0 c 78.7,0 78.7,0 85.75,2.5 0.737344,0.2578125 1.474688,0.515625 2.234375,0.78125 C 88.649531,3.5184375 89.314688,3.755625 90,4 c 0.99,0.33 1.98,0.66 3,1 0,0.66 0,1.32 0,2 0.680625,0.2475 1.36125,0.495 2.0625,0.75 3.506151,1.4919791 6.6537,3.318355 9.9375,5.25 0,0.66 0,1.32 0,2 0.56461,0.226875 1.12922,0.45375 1.71094,0.6875 5.52489,3.167858 10.23793,9.294991 12.3164,15.261719 0.46156,2.361707 0.8113,4.651145 0.97266,7.050781 0.66,0 1.32,0 2,0 2.62195,7.982903 3.44043,15.185944 3.3125,23.5625 0.003,1.058965 0.006,2.11793 0.01,3.208984 C 125.26776,72.81302 124.89228,80.806485 121,88 c -0.66,0 -1.32,0 -2,0 -0.18563,0.81791 -0.18563,0.81791 -0.375,1.652344 C 116.73478,96.563447 113.15879,101.09313 108,106 c -0.99,0.495 -0.99,0.495 -2,1 -0.495,1.485 -0.495,1.485 -1,3 0.80437,0.40219 0.80437,0.40219 1.625,0.8125 2.79167,1.39583 5.58333,2.79167 8.375,4.1875 0,0.66 0,1.32 0,2 0.87785,0.39059 0.87785,0.39059 1.77344,0.78906 2.36724,1.28745 3.95888,2.67659 5.85156,4.58594 0.88559,0.87785 0.88559,0.87785 1.78906,1.77344 C 126.93992,127.09735 128,129.08906 128,133 c 0.66,0 1.32,0 2,0 0.20496,0.71027 0.40992,1.42055 0.62109,2.15234 0.26942,0.91911 0.53883,1.83821 0.81641,2.78516 0.26684,0.91652 0.53367,1.83305 0.80859,2.77734 0.54417,2.22541 0.54417,2.22541 1.75391,3.28516 1.22039,6.88558 1.22129,13.73893 1.24023,20.70557 0.01,2.15713 0.0408,4.3133 0.0723,6.47021 0.0705,9.25122 -0.28095,17.28478 -6.3125,24.82422 -0.47438,1.13437 -0.94875,2.26875 -1.4375,3.4375 -1.50154,3.4235 -3.01235,5.84782 -5.5625,8.5625 -0.66,0 -1.32,0 -2,0 -0.20625,0.53625 -0.4125,1.0725 -0.625,1.625 -1.9075,3.29478 -4.42319,5.96864 -7.375,8.375 -0.66,0 -1.32,0 -2,0 0,0.66 0,1.32 0,2 -0.96937,0.45375 -1.93875,0.9075 -2.9375,1.375 C 103.9292,222.65786 103.9292,222.65786 103,225 71.621644,240.06161 31.714714,230 0,230 0,154.1 0,78.2 0,0 Z"
           fill="#020202"
           transform="translate(447,399)"
           id="path2" /><path
           d="m 0,0 c 75,0 75,0 83,4 0,0.66 0,1.32 0,2 0.580078,0.097969 1.160156,0.1959375 1.757812,0.296875 8.671789,1.6599462 14.037436,6.276992 20.777348,11.75 2.06897,1.63944 4.15829,3.158113 6.33984,4.640625 2.99533,2.216546 5.04561,4.234996 7.125,7.3125 0,0.66 0,1.32 0,2 0.66,0 1.32,0 2,0 13.67006,23.558064 16.28718,50.389813 11,77 -1.08921,3.00987 -2.27158,5.29214 -4,8 -0.66,0 -1.32,0 -2,0 -0.99,3.3 -1.98,6.6 -3,10 -0.66,0 -1.32,0 -2,0 -0.27844,0.99 -0.27844,0.99 -0.5625,2 -2.45992,5.13375 -6.0677,9.91814 -11.3125,12.3125 -0.70125,0.22687 -1.4025,0.45375 -2.125,0.6875 -0.33,0.99 -0.66,1.98 -1,3 -1.95597,1.39712 -3.95436,2.7378 -6,4 0.66,3.96 1.32,7.92 2,12 0.66,0 1.32,0 2,0 0.19336,0.63809 0.38672,1.27617 0.58594,1.93359 0.26039,0.82629 0.52078,1.65258 0.78906,2.50391 0.25523,0.82371 0.51047,1.64742 0.77344,2.49609 0.66038,2.24439 0.66038,2.24439 2.85156,3.06641 2.26871,4.1593 4.16353,8.33584 5.875,12.75 1.94698,4.99442 4.31125,9.72014 6.74609,14.49219 1.08601,2.17201 2.08307,4.32608 3.00391,6.57031 1.2604,2.92183 2.72233,5.61328 4.32422,8.35937 1.14145,1.98587 2.2375,3.98677 3.30078,6.01563 0.33516,0.63293 0.67031,1.26586 1.01562,1.91797 C 134,223 134,223 134,227 c 0.66,0 1.32,0 2,0 0,1.32 0,2.64 0,4 -12.87,0 -25.74,0 -39,0 -4,-9 -4,-9 -4,-12 -0.66,0 -1.32,0 -2,0 -3.052566,-6.40934 -5.976923,-12.77754 -8.4375,-19.4375 -2.259173,-6.06371 -5.071118,-11.67106 -8.109375,-17.37109 C 73.025859,179.05679 72.390446,176.40612 72,173 c -0.66,0 -1.32,0 -2,0 -0.481985,-1.24892 -0.960457,-2.49919 -1.4375,-3.75 -0.266836,-0.69609 -0.533672,-1.39219 -0.808594,-2.10938 C 67,165 67,165 66,161 c -10.89,0 -21.78,0 -33,0 0,23.1 0,46.2 0,70 -10.89,0 -21.78,0 -33,0 C 0,154.77 0,78.54 0,0 Z"
           fill="#060606"
           transform="translate(281,398)"
           id="path3" /><path
           d="m 0,0 c 12.54,0 25.08,0 38,0 2.960058,5.9201162 5.444372,11.467393 7.6875,17.625 0.461162,1.229766 0.461162,1.229766 0.931641,2.484375 C 48.194452,24.397532 49.446218,28.436833 50,33 c 0.66,0 1.32,0 2,0 0.191104,0.563965 0.382207,1.12793 0.579102,1.708984 0.88444,2.599041 1.777607,5.195004 2.670898,7.791016 0.300352,0.886875 0.600703,1.77375 0.910156,2.6875 1.407678,4.073281 2.849438,7.98968 4.855469,11.808594 2.865479,5.496104 4.50338,11.415127 6.339844,17.314453 C 69.075285,79.676218 71.106351,84.173299 74,89 c 0.719061,1.750213 1.391053,3.520998 2,5.3125 2.366215,6.74371 4.982295,13.34676 7.820312,19.90625 0.336768,0.78439 0.673536,1.56879 1.020508,2.37695 0.657035,1.5275 1.319799,3.05256 1.990235,4.57422 C 90.473708,129.65361 93.042388,138.12716 96,147 96.33,98.49 96.66,49.98 97,0 c 10.89,0 21.78,0 33,0 0,76.23 0,152.46 0,231 -11.55,0 -23.1,0 -35,0 -1.98,-4.29 -3.96,-8.58 -6,-13 -0.99,-1.98 -1.98,-3.96 -3,-6 -0.481284,-1.95722 -0.961123,-3.91493 -1.414063,-5.87891 -0.838976,-3.03709 -2.133405,-5.7957 -3.449218,-8.65234 C 77.976542,190.60541 75.163377,183.78241 73.125,176.5 71.7615,171.83071 70.005204,168.06628 67.4375,163.9375 63.454925,157.51068 61,150.62859 61,143 c -0.66,0 -1.32,0 -2,0 -0.268125,-0.84563 -0.53625,-1.69125 -0.8125,-2.5625 -1.006008,-2.91213 -2.147288,-5.70558 -3.369385,-8.53101 -1.33786,-3.11768 -2.612291,-6.26001 -3.880615,-9.40649 -0.255879,-0.6252 -0.511758,-1.25039 -0.775391,-1.89453 C 46,110.26974 46,110.26974 46,105 c -0.66,0 -1.32,0 -2,0 -2.944568,-4.99296 -3.634959,-9.335576 -4,-15 -0.66,0 -1.32,0 -2,0 -0.99,-2.97 -1.98,-5.94 -3,-9 -0.33,49.5 -0.66,99 -1,150 -11.22,0 -22.44,0 -34,0 C 0,154.77 0,78.54 0,0 Z"
           fill="#040404"
           transform="translate(787,398)"
           id="path4" /><path
           d="m 0,0 c 17.16,0 34.32,0 52,0 2.25,9 2.25,9 2.125,13.5 -0.01805,0.855938 -0.03609,1.711875 -0.05469,2.59375 C 54.047109,16.722812 54.023906,17.351875 54,18 c 0.66,0 1.32,0 2,0 0,1.98 0,3.96 0,6 0.66,0 1.32,0 2,0 1.609055,5.130125 2.497153,10.036162 3.0625,15.375 0.1136,4.692626 0.1136,4.692626 1.9375,8.625 0.141152,2.670589 0.04247,5.324322 0,8 0.66,0 1.32,0 2,0 3.057109,13.51665 3.057109,13.51665 3.5,18.8125 0.26897,2.953294 0.84765,5.407301 1.875,8.1875 1.606768,4.430311 2.366278,8.867142 3.125,13.5 0.886654,5.38097 1.907316,10.45193 3.8125,15.58203 0.729963,2.03643 1.252086,4.06351 1.75,6.16797 0.796489,3.56438 0.796489,3.56438 1.898437,6.10156 3.072785,7.83214 4.320902,16.24445 4.828125,24.60156 -0.0074,2.03884 -0.0074,2.03884 1.210938,3.04688 0.319235,2.05729 0.511614,4.11614 0.71875,6.1875 0.10123,1.82925 0.10123,1.82925 1.28125,2.8125 0.447232,2.09855 0.893573,4.19729 1.335937,6.29687 0.697157,2.83784 1.617025,5.51494 2.601563,8.26563 1.968096,5.68398 3.115265,11.35478 4.111084,17.26978 0.326659,3.37228 0.326659,3.37228 1.951416,6.16772 0.517968,2.53952 0.993861,5.07237 1.4375,7.625 0.70606,4.05707 1.43301,7.95935 2.66016,11.89844 C 104,222 104,222 104,230 c -11.55,0 -23.1,0 -35,0 -3.010946,-8.02919 -5.721621,-15.92227 -6.5,-24.5 -0.620888,-5.58799 -2.136374,-11.04549 -3.5,-16.5 -31.68,-0.495 -31.68,-0.495 -64,-1 -0.33,2.31 -0.66,4.62 -1,7 -0.5018069,2.27882 -1.0341062,4.5511 -1.59375,6.81641 -0.3080859,1.25877 -0.6161719,2.51754 -0.9335938,3.81445 -0.3239359,1.31062 -0.648157,2.62116 -0.9726562,3.93164 -0.638109,2.58399 -1.272878,5.16874 -1.90625,7.75391 -0.28166,1.13896 -0.56332,2.27793 -0.853516,3.45141 -0.699097,3.05256 -1.225404,6.1432 -1.740234,9.23218 -12.21,0 -24.42,0 -37,0 2.321429,-16.25 2.321429,-16.25 4,-24 0.66,0 1.32,0 2,0 -0.06188,-0.99 -0.12375,-1.98 -0.1875,-3 -0.01511,-3.75436 1.040228,-6.52476 2.460938,-9.95703 0.745926,-2.09742 1.061773,-3.95822 1.289062,-6.16797 C -41,183 -41,183 -40,180.0625 c 1.120498,-3.43152 1.459818,-6.62396 1.753906,-10.20703 C -38,168 -38,168 -37,167 c 0.12375,-0.99 0.2475,-1.98 0.375,-3 0.365753,-2.87377 1.053482,-5.34981 2.0625,-8.0625 1.8639,-5.2462 2.462095,-10.58681 3.132813,-16.09375 C -31,137 -31,137 -30,136 c 0.165,-1.155 0.33,-2.31 0.5,-3.5 0.5,-3.5 0.5,-3.5 1.5,-4.5 0.165,-1.155 0.33,-2.31 0.5,-3.5 0.5,-3.5 0.5,-3.5 1.5,-4.5 0.372387,-2.32742 0.698369,-4.66236 1,-7 0.888889,-6.88889 0.888889,-6.88889 2,-8 0.429608,-2.35203 0.816603,-4.70105 1.1875,-7.0625 1.425944,-8.649153 3.513111,-17.086976 5.74292,-25.560791 C -14.648097,66.907196 -13.548646,61.626966 -13,56 c 0.66,0 1.32,0 2,0 -0.06188,-0.99 -0.12375,-1.98 -0.1875,-3 -0.01516,-3.759108 1.029824,-6.566548 2.4570312,-10.003906 C -7.6594431,40.069387 -7.3772092,37.080542 -7,34 c 0.33,-0.33 0.66,-0.66 1,-1 0.3681126,-1.774008 0.6823932,-3.559261 0.9726563,-5.347656 0.177246,-1.07959 0.3544921,-2.15918 0.5371093,-3.271485 C -4.307832,23.244551 -4.1254297,22.108242 -3.9375,20.9375 -3.7512305,19.797324 -3.5649609,18.657148 -3.3730469,17.482422 -2.9117525,14.655515 -2.4542426,11.828047 -2,9 -1.34,9 -0.68,9 0,9 0,6.03 0,3.06 0,0 Z"
           fill="#040404"
           transform="translate(654,399)"
           id="path5" /><path
           d="m 0,0 c 10.56,0 21.12,0 32,0 0.33,58.41 0.66,116.82 1,177 0.66,0 1.32,0 2,0 0.474375,1.155 0.94875,2.31 1.4375,3.5 2.648901,5.34544 6.809301,8.98981 11.5625,12.5 0.99,0.33 1.98,0.66 3,1 0,0.66 0,1.32 0,2 8.25,0 16.5,0 25,0 0.33,-0.66 0.66,-1.32 1,-2 1.545663,-0.58799 3.112397,-1.12116 4.6875,-1.625 5.057726,-1.89574 7.319342,-4.24636 10.15625,-8.76563 C 92.416094,182.81273 92.416094,182.81273 93,182 c 0.66,0 1.32,0 2,0 0.33,-60.06 0.66,-120.12 1,-182 11.55,0 23.1,0 35,0 0.0678,23.261839 0.12303,46.523598 0.15544,69.785511 0.0154,10.801676 0.0365,21.603285 0.0709,32.404919 0.03,9.41819 0.0493,18.83634 0.056,28.25458 0.004,4.98371 0.013,9.96729 0.0349,14.95096 0.0205,4.69821 0.0266,9.39623 0.0221,14.09448 8.2e-4,1.71718 0.007,3.43437 0.0183,5.15151 0.0809,12.62601 -0.91767,24.09199 -7.23262,35.29554 -0.4892,0.92909 -0.4892,0.92909 -0.98828,1.87695 C 120.92311,205.867 118.35016,208.85173 115,212 c -0.85167,1.02673 -1.68946,2.0655 -2.5,3.125 -2.38082,2.73794 -4.26196,4.29974 -7.5,5.875 -0.66,0 -1.32,0 -2,0 -0.33,0.99 -0.66,1.98 -1,3 -1.32,0 -2.64,0 -4,0 0,0.66 0,1.32 0,2 -2.164852,0.79662 -4.331981,1.58704 -6.5,2.375 -1.809844,0.66129 -1.809844,0.66129 -3.65625,1.33594 C 72.781311,234.8989 57.99058,234.38077 43,229 41.936523,228.70738 40.873047,228.41477 39.777344,228.11328 26.830174,224.13317 14.348387,212.06289 7.8320312,200.26562 7.1504904,198.93132 6.4773648,197.59269 5.8125,196.25 5.4702539,195.59773 5.1280078,194.94547 4.7753906,194.27344 -0.6126396,183.5183 -0.28019789,172.26865 -0.22705078,160.5249 c 5.6495e-4,-1.75514 2.4592e-4,-3.51029 -8.8501e-4,-5.26544 -5.7126e-4,-4.73897 0.0111461,-9.47783 0.0251479,-14.21678 0.0125454,-4.96209 0.0136809,-9.92418 0.0160508,-14.88628 0.006204,-9.38492 0.0225992,-18.76979 0.042699,-28.154692 0.0223939,-10.68926 0.0333612,-21.378523 0.0433909,-32.067801 C -0.07977057,43.955911 -0.04421116,21.97796 0,0 Z"
           fill="#020202"
           transform="translate(113,399)"
           id="path6" /><path
           d="M 0,0 C 39.869565,0 39.869565,0 44.5,4.4375 44.995,4.953125 45.49,5.46875 46,6 47.738908,6.9660601 49.477932,7.9319177 51.21875,8.8945313 55.001042,11.241875 57.59502,13.78506 59,18 c 0.66,0.33 1.32,0.66 2,1 1,2.363281 1,2.363281 2,5.3125 1.293422,3.877893 1.293422,3.877893 3.043701,7.554687 1.807786,4.031867 1.283175,8.470118 1.268799,12.820313 0.01611,0.95584 0.03223,1.91168 0.04883,2.896484 C 67.36792,57.254794 64.454471,64.551865 60,73 c -0.66,0 -1.32,0 -2,0 -0.382852,0.881719 -0.382852,0.881719 -0.773438,1.78125 C 51.960542,84.307046 40.578612,87.807129 31,91 20.77,91 10.54,91 0,91 0,60.97 0,30.94 0,0 Z"
           fill="#fbfbfb"
           transform="translate(314,434)"
           id="path7" /><path
           d="m 0,0 c 10.580625,-0.12375 10.580625,-0.12375 21.375,-0.25 2.206069,-0.036416 4.412139,-0.072832 6.685059,-0.11035156 1.779449,-0.0116996 3.55891,-0.0218884 5.338378,-0.0302734 0.89888,-0.0204639 1.797759,-0.0409277 2.723877,-0.0620117 7.734039,-0.004191 15.034935,1.81175106 21.084717,6.86279296 C 65.548627,14.901825 70.381943,22.177677 70.375,34.3125 70.256296,38.973933 69.866618,43.418292 69,48 c -0.66,0 -1.32,0 -2,0 -0.33,1.98 -0.66,3.96 -1,6 -0.66,0 -1.32,0 -2,0 -0.2475,0.7425 -0.495,1.485 -0.75,2.25 -1.35465,2.980231 -2.760154,4.649193 -5.25,6.75 -0.66,0 -1.32,0 -2,0 0,0.66 0,1.32 0,2 -0.66,0 -1.32,0 -2,0 0,0.66 0,1.32 0,2 -7.017897,2.497928 -13.175531,3.419764 -20.601563,3.292969 -0.85489,-0.003 -1.70978,-0.006 -2.590576,-0.0092 C 27.663449,70.268308 24.51921,70.226427 21.375,70.1875 10.794375,70.094688 10.794375,70.094688 0,70 0,46.9 0,23.8 0,0 Z"
           fill="#f9f9f9"
           transform="translate(480,525)"
           id="path8" /><path
           d="m 0,0 c 4.4460607,0.49400675 5.9455274,1.85569 9,5 1.750339,0.9865545 3.501305,1.9722657 5.265625,2.9335937 C 16.92409,9.5681907 18.891098,11.720106 21,14 c 1.082812,0.959063 1.082812,0.959063 2.1875,1.9375 4.014541,4.56827 4.206902,9.839399 4.058594,15.675781 C 26.502028,38.829538 20.966224,44.033776 16.0625,48.9375 13.036784,50.496202 10.339547,50.192666 7,50 c 0.33,0.99 0.66,1.98 1,3 0.9598786,14.693527 0.9598786,14.693527 -3,21 -0.99,0.33 -1.98,0.66 -3,1 -0.639375,0.639375 -1.27875,1.27875 -1.9375,1.9375 -4.585049,4.585049 -9.9104739,5.07499 -16.1875,5.25 C -19.533896,82.022553 -21.226167,81.849222 -24,80 c 0,-0.66 0,-1.32 0,-2 -0.825645,-0.133418 -0.825645,-0.133418 -1.667969,-0.269531 C -33.258602,75.352833 -40.121801,68.225066 -46,63 c 0.506017,-4.537833 2.172703,-6.827337 5.125,-10.25 4.110631,-4.807589 8.018786,-9.735535 11.875,-14.75 0.658066,-0.855454 1.316133,-1.710908 1.994141,-2.592285 2.068631,-2.695235 4.131657,-5.394676 6.193359,-8.095215 0.698027,-0.910723 1.396055,-1.821445 2.115234,-2.759766 4.194009,-5.483266 4.194009,-5.483266 8.060547,-11.197265 C -10.096602,12.578164 -9.5564844,11.800859 -9,11 c 0.66,0 1.32,0 2,0 0.226875,-0.70125 0.45375,-1.4025 0.6875,-2.125 C -4.6834313,5.3065639 -2.5935927,2.9348549 0,0 Z"
           fill="#0c0c0d"
           transform="translate(327,704)"
           id="path9" /><path
           d="m 0,0 c 5.919375,-0.061875 11.83875,-0.12375 17.9375,-0.1875 2.774586,-0.040968 2.774586,-0.040968 5.605225,-0.0827637 1.494866,-0.008776 2.98974,-0.0164174 4.484619,-0.0227051 1.129279,-0.0230219 1.129279,-0.0230219 2.281372,-0.0465088 C 38.513321,-0.34344303 45.406435,1.7249538 51.5,7.375 52.335312,8.1252344 53.170625,8.8754688 54.03125,9.6484375 56.157284,12.187867 56.677956,13.745053 57,17 c 0.66,0 1.32,0 2,0 2.243146,7.240074 2.279175,17.052535 -0.6875,24.0625 -4.273498,7.992191 -10.459231,14.230256 -19.093506,17.330963 -3.703094,1.012199 -7.278027,0.976774 -11.093994,0.899506 -0.719297,-0.003 -1.438594,-0.006 -2.179688,-0.0092 C 23.296726,59.268294 20.648346,59.226413 18,59.1875 12.06,59.125625 6.12,59.06375 0,59 0,39.53 0,20.06 0,0 Z"
           fill="#f9f9f9"
           transform="translate(480,432)"
           id="path10" /><path
           d="M 0,0 C 7.3603907,7.7715116 9.5336671,13.069399 9.359375,23.523437 8.9574457,31.340622 6.3317219,39.502417 2,46 1.34,46 0.68,46 0,46 -0.26683594,46.725742 -0.53367187,47.451484 -0.80859375,48.199219 -4.7232846,57.401951 -11.960874,65.779133 -20.8125,70.5 -27.638753,71.570785 -34.372918,72.47903 -40.5,68.75 -41.689621,67.863326 -42.859958,66.949575 -44,66 -44.763125,65.4225 -45.52625,64.845 -46.3125,64.25 -51.31639,57.578147 -51.405843,50.0417 -51,42 c 0.66,0 1.32,0 2,0 -0.02063,-0.94875 -0.04125,-1.8975 -0.0625,-2.875 C -49,36 -49,36 -48,34 c 0.66,0 1.32,0 2,0 0.165,-1.2375 0.33,-2.475 0.5,-3.75 1.42891,-6.587697 5.2956,-12.073333 9.5,-17.25 0.66,0 1.32,0 2,0 0.226875,-0.721875 0.45375,-1.44375 0.6875,-2.1875 C -31.736649,7.4356758 -29.791234,5.4423296 -27,3 c 0.66,0 1.32,0 2,0 0,-0.66 0,-1.32 0,-2 7.554787,-4.0292198 17.1797124,-4.8363675 25,-1 z"
           fill="#0e0e0e"
           transform="translate(679,199)"
           id="path11" /><path
           d="M 0,0 C 0,0.66 0,1.32 0,2 0.5775,2.103125 1.155,2.20625 1.75,2.3125 4.3566116,3.1089647 5.9735311,4.1906528 8,6 8,6.66 8,7.32 8,8 8.556875,8.20625 9.11375,8.4125 9.6875,8.625 15.346999,11.990107 18.595972,18.036936 21,24 c 0,0.66 0,1.32 0,2 0.66,0 1.32,0 2,0 5.441215,10.266444 9.40183,19.128806 8,31 -1.83707,5.863224 -5.956557,8.917896 -11,12 -0.66,0 -1.32,0 -2,0 0,0.66 0,1.32 0,2 -1.030605,0.506602 -1.030605,0.506602 -2.082031,1.023437 -0.901055,0.446016 -1.80211,0.892032 -2.730469,1.351563 -1.33998,0.661289 -1.33998,0.661289 -2.707031,1.335937 C 7.8544362,76.018669 7.8544362,76.018669 5,78 2.3125,78.125 2.3125,78.125 0,78 -1.4420614,75.481683 -2.8787121,72.960522 -4.3125,70.4375 -4.7166211,69.733027 -5.1207422,69.028555 -5.5371094,68.302734 -7.4449201,64.936922 -9.2112452,61.622418 -10.667969,58.035156 -11.655659,54.905795 -11.655659,54.905795 -14,54 c -0.625,-3.0625 -0.625,-3.0625 -1,-6 -1.485,-0.495 -1.485,-0.495 -3,-1 -0.788672,-1.675929 -1.566949,-3.359654 -2.238281,-5.085938 C -21.073246,39.730249 -21.073246,39.730249 -22.6875,36.6875 -24,34 -24,34 -24,32 c -0.66,0 -1.32,0 -2,0 -2,-3 -2,-3 -2,-7 -0.99,-0.33 -1.98,-0.66 -3,-1 -1.167969,-1.960938 -1.167969,-1.960938 -2.1875,-4.375 -0.34418,-0.791484 -0.688359,-1.582969 -1.042969,-2.398438 C -35,15 -35,15 -35,12 c 0.66,0 1.32,0 2,0 0,-0.66 0,-1.32 0,-2 2.335071,-1.6215774 4.344662,-2.8458028 7.125,-3.5 1.970386,-0.3557346 1.970386,-0.3557346 3.28125,-1.9257813 C -16.599942,-1.3461354 -7.7384876,-0.31850482 0,0 Z"
           fill="#0f0f0f"
           transform="translate(361,201)"
           id="path12" /><path
           d="M 0,0 C 0.66,0.33 1.32,0.66 2,1 2.6328125,3.1445313 2.6328125,3.1445313 3.125,5.8125 3.2925781,6.6851953 3.4601562,7.5578906 3.6328125,8.4570313 4,11 4,11 4,15 c 0.66,0 1.32,0 2,0 0.1701562,0.957773 0.3403125,1.915547 0.515625,2.902344 1.9582883,10.82899 4.264679,21.56241 7.034912,32.214599 0.905114,3.495572 1.661217,6.840466 1.886963,10.445557 0.29502,3.143305 0.758109,4.88577 2.0625,7.875 1.611622,3.827601 1.931805,6.834882 2.09375,10.9375 0.309413,2.777835 0.309413,2.777835 1.800781,5.699219 2.270539,5.0093 2.924934,10.344308 3.792969,15.738281 0.177246,1.04865 0.354492,2.0973 0.537109,3.17773 C 27,111.62781 27,111.62781 27,114 c -16.5,0 -33,0 -50,0 0,-3.3 0,-6.6 0,-10 0.66,0 1.32,0 2,0 0.19916,-1.7151 0.19916,-1.7151 0.402344,-3.46484 0.178159,-1.490916 0.356557,-2.9818 0.535156,-4.47266 0.08701,-0.754746 0.174023,-1.509492 0.263672,-2.287109 C -19.113281,88.113281 -19.113281,88.113281 -18,87 c 0.297558,-1.469698 0.541121,-2.950392 0.761719,-4.433594 0.146389,-0.946172 0.292778,-1.892343 0.443603,-2.867187 0.159119,-1.035117 0.318238,-2.070235 0.482178,-3.136719 1.630432,-10.232101 3.759581,-20.273706 6.157471,-30.35083 C -8.1692882,37.846058 -6.4591648,29.473396 -5,21 c 0.66,0 1.32,0 2,0 0,-2.97 0,-5.94 0,-9 0.66,0 1.32,0 2,0 C -1.011602,11.217539 -1.023203,10.435078 -1.035156,9.6289063 -1.0441797,8.6169922 -1.0532031,7.6050781 -1.0625,6.5625 -1.0741016,5.5531641 -1.0857031,4.5438281 -1.0976562,3.5039063 -1,1 -1,1 0,0 Z"
           fill="#f9f9f8"
           transform="translate(679,438)"
           id="path13" /><path
           d="M 0,0 C 2.475,0.495 2.475,0.495 5,1 5.495,2.485 5.495,2.485 6,4 7.546875,5.1446875 7.546875,5.1446875 9.125,6.3125 10.07375,7.199375 11.0225,8.08625 12,9 11.875,12.3125 11.875,12.3125 11,15 10.34,15 9.68,15 9,15 8.814375,16.330313 8.814375,16.330313 8.625,17.6875 8.0558726,20.703875 7.2338556,23.203261 6,26 5.34,26 4.68,26 4,26 3.67,27.98 3.34,29.96 3,32 2.34,32 1.68,32 1,32 0.896875,32.9075 0.79375,33.815 0.6875,34.75 -0.03862804,38.182605 -0.92234378,39.283065 -3,42 c -1.6615864,3.691579 -3,6.924709 -3,11 0.7550684,-0.392681 1.5101367,-0.785361 2.2880859,-1.189941 2.86240683,-1.48805 5.7252536,-2.975248 8.5883789,-4.461914 1.2277098,-0.637693 2.455255,-1.275702 3.6826172,-1.914063 2.97615,-1.547793 5.954728,-3.090408 8.938965,-4.622559 2.309157,-1.194502 4.607776,-2.409635 6.894531,-3.646484 1.051231,-0.557197 2.102461,-1.114394 3.185547,-1.688477 1.390737,-0.752893 1.390737,-0.752893 2.80957,-1.520996 C 33.462748,32.830729 34.929669,32.936005 38,34 c 2.6875,2.4375 2.6875,2.4375 5,5 0.66,0.66 1.32,1.32 2,2 0,0.99 0,1.98 0,3 -1.394767,1.190655 -2.798302,2.372384 -4.241455,3.503906 -1.860989,1.583248 -3.376638,3.259434 -4.957764,5.121094 -3.894572,4.514901 -7.953364,8.856927 -12.050781,13.1875 -0.706406,0.74959 -1.412813,1.49918 -2.140625,2.271484 -5.39069,5.712294 -5.39069,5.712294 -7.268555,7.46167 C 12.747008,77.074728 12.747008,77.074728 12,80 11.01,80.33 10.02,80.66 9,81 7.353524,82.624281 7.353524,82.624281 5.75,84.625 3.3217179,87.469119 0.88724937,90.286823 -1.6875,93 -2.4976758,93.86625 -2.4976758,93.86625 -3.3242188,94.75 -5,96 -5,96 -9,96 c -2.3125,-2.1875 -2.3125,-2.1875 -4,-5 0.293584,-4.163289 1.604095,-6.081863 4.5703125,-8.925781 1.0982813,-1.072178 1.0982813,-1.072178 2.21875,-2.166016 C -5.0546484,78.808955 -5.0546484,78.808955 -3.875,77.6875 1.1295668,72.859819 5.9452558,68.010182 10.472656,62.729736 12.320426,60.637113 14.303242,58.79727 16.4375,57 17.116836,56.4225 17.796172,55.845 18.496094,55.25 18.992383,54.8375 19.488672,54.425 20,54 c -4.699045,1.038438 -8.800352,3.125735 -13.125,5.1875 -0.8558569,0.405652 -1.7117139,0.811304 -2.5935059,1.229248 -5.21676255,2.503431 -10.1796681,5.208346 -15.0705571,8.305908 -3.217925,1.85912 -6.598391,3.143058 -10.082031,4.417969 C -23.238865,74.012692 -23.238865,74.012692 -26,76 c -0.99,0 -1.98,0 -3,0 0.578698,-4.745322 2.00859,-8.698732 4,-13 3.565469,-7.936992 7.012514,-15.925451 10.464844,-23.912109 0.426679,-0.9842 0.853359,-1.968399 1.292968,-2.982422 0.57452,-1.328017 0.57452,-1.328017 1.160645,-2.682862 C -11.110811,31.248213 -10.084282,29.119614 -9,27 c -3.661472,2.746104 -6.44087,5.58245 -9.25,9.1875 -3.7318,4.671011 -7.689609,8.896881 -12,13.035156 -1.82556,1.671076 -1.82556,1.671076 -2.75,3.777344 -0.66,0 -1.32,0 -2,0 -0.2475,0.5775 -0.495,1.155 -0.75,1.75 -1.462715,2.632887 -2.888268,4.374507 -5.25,6.25 -3.814169,0 -6.224937,-2.610363 -9,-5 0.484816,-4.2644 2.921826,-6.193932 5.9375,-9.0625 2.711058,-2.594034 4.978042,-4.810813 7.0625,-7.9375 0.66,0 1.32,0 2,0 0.25886,-0.585557 0.51772,-1.171113 0.784424,-1.774414 1.307793,-2.394426 2.712937,-3.936519 4.664795,-5.834961 0.683847,-0.672891 1.367695,-1.345781 2.072265,-2.039063 0.714786,-0.693515 1.429571,-1.387031 2.166016,-2.101562 4.773124,-4.653685 9.386323,-9.343284 13.707275,-14.423828 C -9.8957365,10.881385 -8.0978229,9.063154 -6.25,7.25 -3.9255293,4.9673175 -1.839498,2.7051441 0,0 Z"
           fill="#0a0a0b"
           transform="translate(719,229)"
           id="path14" /><path
           d="M 0,0 C 24.295088,1.8957153 24.295088,1.8957153 31.9375,8.5625 32.958438,9.7690625 32.958438,9.7690625 34,11 c 0.502734,0.444727 1.005469,0.889453 1.523437,1.347656 5.00845,5.604693 5.013815,15.401612 4.828125,22.5 C 39.653086,41.11066 37.569147,46.006759 33.6875,50.9375 30.541356,53.351983 27.706838,54.619021 24,56 c 0.775958,6.609021 2.491239,12.836271 4.271484,19.236328 0.221075,0.812754 0.442149,1.625508 0.669922,2.462891 0.304662,1.095743 0.304662,1.095743 0.615479,2.213623 C 30,82 30,82 30,86 c -1.825313,0.03094 -1.825313,0.03094 -3.6875,0.0625 -0.684492,0.0116 -1.368984,0.0232 -2.074219,0.03516 C 21.745248,85.988885 19.439282,85.510465 17,85 16.780658,83.933019 16.780658,83.933019 16.556885,82.844482 15.89397,79.625098 15.228268,76.406296 14.5625,73.1875 14.332402,72.067949 14.102305,70.948398 13.865234,69.794922 13.642871,68.721777 13.420508,67.648633 13.191406,66.542969 12.98717,65.55321 12.782935,64.563452 12.57251,63.543701 12.021691,60.898072 12.021691,60.898072 11,58 7.37,57.34 3.74,56.68 0,56 c 0.0309375,1.144688 0.061875,2.289375 0.09375,3.46875 0,4.479654 -0.69422103,8.655163 -1.59375,13.03125 -0.1430859,0.727031 -0.2861719,1.454063 -0.4335937,2.203125 C -2.282337,76.470091 -2.6401972,78.235253 -3,80 c -3.96,-0.33 -7.92,-0.66 -12,-1 0,-6 0,-6 0.941406,-8.820313 1.566142,-4.704203 1.787418,-9.44953 2.181641,-14.371093 0.356337,-3.781665 0.854906,-7.06257 2.314453,-10.582032 C -7.3430685,39.774877 -6.7489087,34.046731 -5.9375,28.25 -5.2950503,23.832836 -4.6500749,19.416049 -4,15 c 0.1635498,-1.12084 0.3270996,-2.24168 0.4956055,-3.396484 0.1651611,-1.070567 0.3303222,-2.1411332 0.5004882,-3.244141 0.144939,-0.9593848 0.289878,-1.9187695 0.439209,-2.9072266 C -2,3 -2,3 0,0 Z"
           fill="#0f0e0f"
           transform="translate(421,762)"
           id="path15" /><path
           d="m 0,0 c 12.451627,0.55095694 21.798717,3.5938453 30.773437,12.503906 5.581075,6.256678 5.713425,12.086859 5.507813,20.191406 C 35.653756,40.068363 31.82931,45.529297 27,51 c -3,2 -3,2 -6,2 0,0.66 0,1.32 0,2 -1.65,0 -3.3,0 -5,0 0.08564,0.583784 0.171284,1.167568 0.259521,1.769043 0.39498,2.701652 0.786493,5.403796 1.177979,8.105957 0.134707,0.917812 0.269414,1.835625 0.408203,2.78125 C 18.726755,73.759144 19.440013,79.859332 20,86 19.26177,85.865776 18.52354,85.731553 17.762939,85.593262 16.488097,85.361472 16.488097,85.361472 15.1875,85.125 11.709939,84.492716 10.0044,84.002933 7,82 6.2922363,79.38623 6.2922363,79.38623 5.8320312,76.117187 5.6612305,74.950586 5.4904297,73.783984 5.3144531,72.582031 5.0659863,70.747051 5.0659863,70.747051 4.8125,68.875 4.5466309,67.028418 4.5466309,67.028418 4.2753906,65.144531 3.8384602,62.097827 3.4138842,59.049906 3,56 0.03,55.01 -2.94,54.02 -6,53 c -0.103125,0.804375 -0.20625,1.60875 -0.3125,2.4375 -0.69282,3.590068 -1.7301073,6.857908 -2.921875,10.304687 C -10.271213,68.799802 -11.13942,71.888672 -12,75 c -1.646303,-0.140429 -3.292042,-0.287493 -4.9375,-0.4375 -1.374785,-0.121816 -1.374785,-0.121816 -2.777344,-0.246094 C -22,74 -22,74 -23,73 c 0.458408,-6.444159 2.638208,-12.246448 4.75,-18.3125 2.473839,-7.246028 4.84623,-14.474258 6.8125,-21.875 1.823934,-6.825804 3.9030758,-13.543006 6.125,-20.25 0.297854,-0.907097 0.595708,-1.814194 0.9025879,-2.7487793 C -4.1263989,8.9689819 -3.8428857,8.1242432 -3.5507813,7.2539062 -3.2998169,6.504397 -3.0488525,5.7548877 -2.7902832,4.982666 -2,3 -2,3 0,0 Z"
           fill="#101010"
           transform="translate(593,167)"
           id="path16" /><path
           d="m 0,0 c 2.8937128,0.45091731 5.2382525,1.2047199 7.8828125,2.4492188 0,0.66 0,1.3199999 0,1.9999999 0.804375,0.144375 1.60875,0.28875 2.4375005,0.4375 2.5625,0.5625 2.5625,0.5625 3.5625,1.5625 -0.479366,6.9507963 -1.897953,13.6540573 -3.308594,20.4687503 -0.530786,2.710904 -0.9638324,5.351231 -1.2539065,8.09375 -0.4375,3.4375 -0.4375,3.4375 -1.3632813,5.910156 -1.5397965,5.056132 -2.0671961,10.165585 -2.6992187,15.402344 -0.1340625,1.069922 -0.268125,2.139843 -0.40625,3.242187 -0.3283722,2.626978 -0.6511141,5.254519 -0.96875,7.882813 -0.66,0 -1.32,0 -2,0 0.092812,1.60875 0.092812,1.60875 0.1875,3.25 0.031254,5.792441 -1.63659886,11.211067 -3.1875,16.75 -1.32,0 -2.64,0 -4,0 0,-0.66 0,-1.32 0,-2 -2.31,-0.33 -4.62,-0.66 -7.0000005,-1 0,-5.61 0,-11.22 0,-17 -1.65,-0.66 -3.3,-1.32 -4.999999,-2 0,-0.66 0,-1.32 0,-2 -0.7425,0.04125 -1.485,0.0825 -2.25,0.125 -2.83759,-0.128982 -4.33774,-0.695512 -6.75,-2.125 0,-0.66 0,-1.32 0,-2 -1.98,0 -3.96,0 -6,0 -0.247501,0.70125 -0.495,1.4025 -0.75,2.125 -1.410881,3.245024 -3.228954,5.978167 -5.25,8.875 -4.388894,-0.664984 -7.981149,-2.187577 -12,-4 0.59598,-3.028291 1.486447,-4.964672 3.371093,-7.398438 0.487427,-0.638086 0.974854,-1.276172 1.477051,-1.933594 0.524487,-0.674179 1.048975,-1.348359 1.589356,-2.042968 1.091445,-1.423253 2.181258,-2.847758 3.269531,-4.273438 0.549946,-0.720263 1.099892,-1.440527 1.666504,-2.182617 2.941998,-3.923253 5.738446,-7.952685 8.503173,-12.002441 0.992965,-1.423646 2.052054,-2.800783 3.123292,-4.166504 0.66,0 1.32,0 2,0 0.237187,-0.702539 0.474374,-1.405078 0.71875,-2.128907 1.513735,-3.392059 3.465999,-5.90354 5.78125,-8.808593 2.860182,-3.594114 5.631375,-7.193926 8.171874,-11.023438 0.432481,-0.6433225 0.8649614,-1.2866453 1.3105474,-1.9494626 C -8.3043581,7.2927273 -7.489812,6.0358849 -6.6933594,4.7678223 -4.6357162,1.7139977 -3.7245954,0.53675246 0,0 Z"
           fill="#0e0e0f"
           transform="translate(384.11719,742.55078)"
           id="path17" /><path
           d="M 0,0 C 2.4505622,0.90067304 3.6091581,1.9491593 5.40625,3.8320313 6.0069531,4.4585156 6.6076562,5.085 7.2265625,5.7304687 c 2.4796641,2.7079178 4.8995945,5.4622873 7.2890625,8.2500003 1.660116,1.935359 1.660116,1.935359 4.015625,4.101562 1.5625,1.6875 1.5625,1.6875 1.5625,4.6875 0.59168,0.265547 1.183359,0.531094 1.792969,0.804688 2.268656,1.228688 3.725507,2.47919 5.519531,4.320312 0.532383,0.538828 1.064766,1.077656 1.613281,1.632813 1.812415,1.959182 3.564947,3.952038 5.3125,5.96875 2.499846,2.871485 5.05575,5.666728 7.691406,8.414062 0.974532,1.017071 0.974532,1.017071 1.96875,2.054688 1.336787,1.389623 2.678068,2.774935 4.023438,4.15625 0.641953,0.67289 1.283906,1.345781 1.945312,2.039062 0.578628,0.598448 1.157256,1.196895 1.753418,1.813477 1.491773,1.942209 1.969073,3.402464 2.379395,5.795898 -3.855003,2.298175 -6.612372,3.903093 -11,5 -2.31,-2.64 -4.62,-5.28 -7,-8 -7.068492,1.14008 -13.520313,3.183529 -19,8 -0.844015,2.602993 -0.844015,2.602993 -1,5 0.66,0 1.32,0 2,0 2.758621,8.275862 2.758621,8.275862 1,12 -3.584044,1.893458 -7.078921,3.065173 -11,4 C 7.9119922,84.996094 7.7302344,84.222656 7.5429687,83.425781 7.2916016,82.384219 7.0402344,81.342656 6.78125,80.269531 6.4158008,78.738125 6.4158008,78.738125 6.0429687,77.175781 5.343922,74.667268 4.5861572,72.385872 3.640625,69.976562 1.8781587,65.398856 0.77431972,60.725792 -0.34375,55.957031 c -1.7608621,-7.268281 -3.7974066,-14.230168 -6.5625,-21.1875 -6.851351,-18.27027 -6.851351,-18.27027 -8,-26.9999998 0.66,0 1.32,0 2,0 0,-0.66 0,-1.32 0,-2 1.0725,-0.433125 2.145,-0.86625 3.25,-1.3125 2.3429419,-0.9852612 3.9278453,-1.8297762 5.9375,-3.4375 C -1.90625,-0.23046875 -1.90625,-0.23046875 0,0 Z"
           fill="#0f0f0f"
           transform="translate(636.90625,737.23047)"
           id="path18" /><path
           d="M 0,0 C 1.5976534,2.3061018 2.9353059,4.4809697 4.25,6.9375 4.6135156,7.5839648 4.9770312,8.2304297 5.3515625,8.8964844 8,13.690555 8,13.690555 8,16 c 0.66,0 1.32,0 2,0 0.671549,1.289135 1.337089,2.581402 2,3.875 0.37125,0.719297 0.7425,1.438594 1.125,2.179687 C 14,24 14,24 14,26 c 0.66,0 1.32,0 2,0 0.671549,1.289135 1.337089,2.581402 2,3.875 0.37125,0.719297 0.7425,1.438594 1.125,2.179687 C 20,34 20,34 20,36 c 0.66,0 1.32,0 2,0 1.265137,1.724854 1.265137,1.724854 2.679687,4.128906 0.516915,0.870762 1.033829,1.741524 1.566407,2.638672 0.537539,0.922324 1.075078,1.844649 1.628906,2.794922 0.529805,0.895254 1.059609,1.790508 1.605469,2.712891 1.037564,1.757166 2.069608,3.517605 3.095703,5.281494 0.891756,1.530145 1.792695,3.055016 2.707031,4.571777 C 38.027355,62.733287 38.027355,62.733287 37.75,65.4375 37.5025,65.953125 37.255,66.46875 37,67 33.325892,68.175715 29.830708,68.073667 26,68 25.54625,66.88625 25.0925,65.7725 24.625,64.625 23.27534,61.03801 23.27534,61.03801 21,59 14.135864,59.381341 7.6322102,61.266581 1,63 c 0,5.28 0,10.56 0,16 -7.625,3 -7.625,3 -11,3 -0.110698,-1.205354 -0.221396,-2.410708 -0.335449,-3.652588 -0.414504,-4.493969 -0.837794,-8.987076 -1.263672,-13.47998 -0.182718,-1.940533 -0.363089,-3.881288 -0.541016,-5.822266 -0.256929,-2.798234 -0.522437,-5.595544 -0.789551,-8.392822 -0.07717,-0.860696 -0.154345,-1.721392 -0.233856,-2.60817 C -13.640794,43.146273 -14.565576,38.728218 -16,34 c -0.302979,-2.231689 -0.302979,-2.231689 -0.378906,-4.113281 -0.03416,-0.690293 -0.06832,-1.380586 -0.103516,-2.091797 -0.02643,-0.695449 -0.05285,-1.390899 -0.08008,-2.107422 C -16.588131,20.691065 -16.588131,20.691065 -18,16 c -0.07093,-2.207292 -0.08415,-4.416675 -0.0625,-6.625 0.009,-1.1885156 0.01805,-2.3770313 0.02734,-3.6015625 C -18.023555,4.8582031 -18.011953,3.9429688 -18,3 c 1.58298,-0.4803318 3.1664,-0.9592161 4.75,-1.4375 0.881719,-0.2668359 1.763437,-0.5336719 2.671875,-0.80859375 C -9.3019531,0.38072266 -9.3019531,0.38072266 -8,0 -7.3142187,-0.21785156 -6.6284375,-0.43570313 -5.921875,-0.66015625 -3.3993444,-1.1062135 -2.3295915,-1.1512516 0,0 Z"
           fill="#0b0b0c"
           transform="translate(414,175)"
           id="path19" /><path
           d="m 0,0 c 2.1757813,1.1054687 2.1757813,1.1054687 5.3007812,3.1054688 -0.8182527,3.6543326 -2.2643469,6.6796203 -4,10.0000002 -3.3746271,-0.547237 -5.08235,-1.0549 -7.9999999,-3 -4.0749073,-0.3395759 -5.5300123,-0.3133251 -9.0000003,2 -2.500544,3.553405 -2.486453,6.760905 -2,11 3.224333,8.27996 9.8985095,18.180481 18.00000025,22 0.66,0.99 1.31999995,1.98 2.00000005,3 5.3540579,3.792457 10.3786237,5.425021 16.9999997,5 3.286378,-1.128499 3.286378,-1.128499 5,-4 1.433075,-6.584396 -0.725891,-11.372626 -4,-17 -2.595862,1.195178 -4.034485,2.037718 -6,4.1875 -2,1.8125 -2,1.8125 -3.9375,1.8125 -2.6927509,-1.305577 -4.8019028,-3.053375 -7.0624997,-5 0.5788938,-3.287545 1.5482841,-4.936725 3.9374999,-7.25 0.5246485,-0.520782 1.0492969,-1.041563 1.5898438,-1.578125 1.472656,-1.171875 1.472656,-1.171875 3.472656,-1.171875 0,-0.66 0,-1.32 0,-2 0.66,0 1.32,0 2,0 0.66,-1.32 1.32,-2.64 2,-4 0.66,0 1.32,0 2,0 0,-0.66 0,-1.32 0,-2 3,0 3,0 5.050781,2.019531 7.839178,9.680504 13.734195,17.19004 13.355469,30.035156 -0.88915,6.446336 -3.944162,11.22091 -9.019531,15.214844 -6.28154,3.806586 -13.281931,3.614549 -20.3867188,2.730469 -14.0476902,-3.857025 -25.0204592,-18.571327 -33.0000002,-30 -3.514445,-6.507944 -4.239984,-11.645179 -4,-19 -0.02062,-1.134375 -0.04125,-2.26875 -0.0625,-3.4375 1.65148,-5.5373148 5.653725,-8.9581328 10.0625,-12.56250025 C -13.666513,-1.9054332 -6.0461309,-2.0037106 0,0 Z"
           fill="#0e0e0f"
           transform="translate(293.69922,255.89453)"
           id="path20" /><path
           d="M 0,0 C 1.2349219,-0.01417969 2.4698438,-0.02835938 3.7421875,-0.04296875 6.8658671,0.16984545 8.525616,0.53512774 11.125,2.1875 c 0,0.99 0,1.98 0,3 -0.66,0 -1.32,0 -2,0 0,0.66 0,1.32 0,2 -0.66,0 -1.32,0 -2,0 -0.33,1.65 -0.66,3.3 -1,5 -6.435,0.495 -6.435,0.495 -13,1 0,0.66 0,1.32 0,2 -0.66,0 -1.32,0 -2,0 -0.1080713,1.936278 -0.1856225,3.874278 -0.25,5.8125 -0.069609,1.618418 -0.069609,1.618418 -0.140625,3.269531 0.1192898,2.973101 0.1192898,2.973101 2.0898438,4.8125 5.6985971,2.738036 12.8578096,0.322397 18.6132812,-1.457031 7.758863,-2.277422 17.293807,-3.241891 24.6875,0.5625 0.495,0.99 0.495,0.99 1,2 0.763125,0.391875 1.52625,0.78375 2.3125,1.1875 4.30357,2.902408 6.052239,6.906716 7.6875,11.8125 0.479351,6.276159 0.05792,12.042858 -2,18 -1.485,0.495 -1.485,0.495 -3,1 -1.006429,1.328487 -2.006922,2.661503 -3,4 -0.66,0 -1.32,0 -2,0 0,0.66 0,1.32 0,2 -6.704846,6.501669 -13.834466,6.237252 -22.695312,6.363281 C 10.884212,74.16103 8.9981838,73.242097 6.125,71.1875 c 0.6466941,-1.343134 1.3190358,-2.673912 2,-4 0.37125,-0.86625 0.7425,-1.7325 1.125,-2.625 1.875,-2.375 1.875,-2.375 5.230469,-2.863281 1.26457,0.05801 2.52914,0.116015 3.832031,0.175781 1.272305,0.04512 2.544609,0.09023 3.855469,0.136719 1.46373,0.08701 1.46373,0.08701 2.957031,0.175781 0,-0.66 0,-1.32 0,-2 0.99,0 1.98,0 3,0 0,-0.66 0,-1.32 0,-2 2.375,-2.625 2.375,-2.625 5,-5 0.66,0 1.32,0 2,0 -0.442879,-7.288522 -0.442879,-7.288522 -3,-14 -3.370396,-1.622783 -7.341917,-1.248006 -11,-1 -1.155,0.495 -2.31,0.99 -3.5,1.5 -3.794166,1.626071 -6.419194,1.749845 -10.5,1.5 0,0.66 0,1.32 0,2 -17.473725,0.755167 -17.473725,0.755167 -23,-4 -1.75,-2.375 -1.75,-2.375 -3,-5 -0.556875,-0.825 -1.11375,-1.65 -1.6875,-2.5 -2.278738,-6.076636 -2.713419,-13.018456 -0.257812,-19.121094 1.198437,-1.989122 2.305576,-3.7342009 3.945312,-5.378906 0.66,0 1.32,0 2,0 0,-0.66 0,-1.32 0,-2 1.98,-0.66 3.96,-1.32 6,-2 0,-0.66 0,-1.32 0,-2 C -5.9336446,-0.2831777 -3.272726,0.01701001 0,0 Z"
           fill="#101010"
           transform="translate(687.875,701.8125)"
           id="path21" /><path
           d="M 0,0 C 0.75023437,-0.00322266 1.5004687,-0.00644531 2.2734375,-0.00976562 8.1393733,0.04743765 10.812802,0.82469218 15,4.8125 c 0.78375,0.825 1.5675,1.65 2.375,2.5 0.66,0.66 1.32,1.32 2,2 0,1.32 0,2.64 0,4 -6.227454,3.052674 -6.227454,3.052674 -9.75,2.8125 -2.25,-0.8125 -2.25,-0.8125 -5.25,-2.8125 0,-0.66 0,-1.32 0,-2 -2.97,0 -5.94,0 -9,0 0,0.66 0,1.32 0,2 -0.99,0.33 -1.98,0.66 -3,1 -1.2398897,3.719669 -1.5231478,7.134953 -1,11 1.7298344,2.987896 3.1923968,3.779745 6.4921875,4.679687 2.49687511,0.516351 4.9848979,0.954394 7.5078125,1.320313 0,0.66 0,1.32 0,2 1.7015625,0.185625 1.7015625,0.185625 3.4375,0.375 1.175625,0.20625 2.35125,0.4125 3.5625,0.625 0.33,0.66 0.66,1.32 1,2 1.299375,0.61875 1.299375,0.61875 2.625,1.25 4.4995,2.333074 9.029187,4.886442 11.261719,9.636719 2.147489,7.752285 1.712043,15.620443 -1.746094,22.929687 -3.484675,5.845668 -8.7128,8.419245 -15.140625,10.183594 -9.2380451,1.199873 -17.3806558,0.689678 -25,-5 -2.322591,-2.135663 -4.40558,-4.264858 -6,-7 0,-0.99 0,-1.98 0,-3 6.5,-4 6.5,-4 11,-4 2.5625,2.375 2.5625,2.375 5,5 4.05451388,2.703009 7.2377664,2.655498 12,2 3.997916,-1.528394 6.592463,-3.388695 9,-7 0.241508,-2.515849 0.241508,-2.515849 0.125,-5.1875 -0.01805,-0.901055 -0.03609,-1.802109 -0.05469,-2.730469 -0.0232,-0.68707 -0.04641,-1.37414 -0.07031,-2.082031 -1.32,-0.66 -2.64,-1.32 -4,-2 0,-0.66 0,-1.32 0,-2 C 10.611563,47.157812 10.611563,47.157812 8.8125,47 4.616184,46.488435 1.2295512,45.057957 -2.625,43.3125 c -2.7788861,-0.691405 -2.7788861,-0.691405 -5,-1 0,-0.66 0,-1.32 0,-2 -0.99,0 -1.98,0 -3,0 0,-0.66 0,-1.32 0,-2 -0.763125,-0.268125 -1.52625,-0.53625 -2.3125,-0.8125 -2.577386,-1.138845 -3.957049,-2.001667 -5.6875,-4.1875 0,-0.66 0,-1.32 0,-2 -0.66,0 -1.32,0 -2,0 -2.067668,-6.203004 -2.403865,-15.500815 0.04687,-21.609375 C -19.25,7.8125 -19.25,7.8125 -16.625,5.3125 c 0.66,0 1.32,0 2,0 0,-0.66 0,-1.32 0,-2 C -9.5615682,0.26640373 -5.7248322,-0.12423681 0,0 Z"
           fill="#0f0f10"
           transform="translate(535.625,771.6875)"
           id="path22" /><path
           d="M 0,0 C 0.90105469,0.01804688 1.8021094,0.03609375 2.7304688,0.0546875 3.4175391,0.07789063 4.1046094,0.10109375 4.8125,0.125 3.071214,10.920973 -0.72763052,21.053947 -4.3085937,31.347656 -5.1474813,33.998541 -5.7459233,36.58032 -6.25,39.3125 c -0.5062786,2.723863 -1.0586416,5.175925 -1.9375,7.8125 -0.1781262,2.69285 -0.087277,5.294414 0,8 0.33,0.33 0.66,0.66 1,1 0.323513,2.839725 0.5130429,5.680737 0.71875,8.53125 0.015103,2.410111 0.015103,2.410111 1.28125,3.46875 0.098512,1.831159 0.1297263,3.666199 0.125,5.5 0.00387,1.500469 0.00387,1.500469 0.00781,3.03125 C -5.1875,79.125 -5.1875,79.125 -6.1875,80.125 c -1.6423036,0.124549 -3.2905228,0.175685 -4.9375,0.1875 -0.895898,0.01418 -1.791797,0.02836 -2.714844,0.04297 C -16.1875,80.125 -16.1875,80.125 -18.1875,78.125 c -0.276318,-2.324489 -0.449905,-4.661855 -0.5625,-7 -0.06723,-4.664455 -0.06723,-4.664455 -1.4375,-9 -0.370838,-3.135602 -0.718133,-6.268044 -0.986328,-9.414063 -0.513905,-4.620599 -1.533044,-6.585623 -5.013672,-9.585937 -1.265625,-2.070313 -1.265625,-2.070313 -2.25,-4.125 -0.335156,-0.683203 -0.670313,-1.366406 -1.015625,-2.070313 C -30.1875,35.125 -30.1875,35.125 -30.1875,33.125 c -1.485,-0.495 -1.485,-0.495 -3,-1 -0.666667,-2.333333 -1.333333,-4.666667 -2,-7 -0.99,-0.33 -1.98,-0.66 -3,-1 -0.12375,-0.5775 -0.2475,-1.155 -0.375,-1.75 -0.507506,-2.542553 -0.507506,-2.542553 -3.125,-4.75 -2.459558,-2.459558 -2.920718,-3.25602 -3.5,-6.5 -0.66,-0.33 -1.32,-0.66 -2,-1 0.33,-1.32 0.66,-2.64 1,-4 3.801561,-0.5479118 7.22209,-0.7825301 11,0 2.792294,2.6128268 4.501074,5.496181 6,9 0,0.66 0,1.32 0,2 0.66,0 1.32,0 2,0 1.640415,2.241506 3.146621,4.467883 4.625,6.8125 0.630352,0.963896 0.630352,0.963896 1.273438,1.947266 3.101562,4.858779 3.101562,4.858779 3.101562,8.240234 1.32,0 2.64,0 4,0 0.154687,-1.85625 0.154687,-1.85625 0.3125,-3.75 0.533326,-4.860885 1.681045,-9.452127 2.933594,-14.171875 C -9.9780191,12.26971 -9.3702713,8.3136689 -8.8125,4.3046875 -7.5050066,-0.25519586 -4.0621173,-0.10550954 0,0 Z"
           fill="#0d0d0d"
           transform="translate(484.1875,157.875)"
           id="path23" /><path
           d="M 0,0 C 8.2202239,-0.28023491 16.074009,0.38261928 24.195312,1.4882812 28.78786,2.1059648 33.385947,2.578524 38,3 c 0.02689,1.4790689 0.04635,2.9582748 0.0625,4.4375 0.0116,0.8237109 0.0232,1.6474219 0.03516,2.4960938 C 38,12 38,12 37,13 28.016981,13.543457 18.954103,12.663267 10,12 c 0,6.27 0,12.54 0,19 3.155625,0.464062 3.155625,0.464062 6.375,0.9375 C 22.75,32.875 22.75,32.875 25,34 c 0,3.63 0,7.26 0,11 C 18.73,44.67 12.46,44.34 6,44 5.9510156,45.639687 5.9020312,47.279375 5.8515625,48.96875 5.7764901,51.145849 5.7009442,53.322931 5.625,55.5 5.5785937,57.116484 5.5785937,57.116484 5.53125,58.765625 5.3102891,64.805223 4.7304174,70.203805 3,76 1.5417679,76.027 0.08339325,76.0464 -1.375,76.0625 -2.1871094,76.0741 -2.9992187,76.0857 -3.8359375,76.09766 -6,76 -6,76 -8,75 c 0.4050514,-13.765161 0.9084243,-27.374298 3,-41 0.66,0 1.32,0 2,0 C -3.011602,33.200781 -3.023203,32.401562 -3.035156,31.578125 -3.1238666,20.780806 -2.6245519,10.498207 0,0 Z"
           fill="#171717"
           transform="translate(535,160)"
           id="path24" /><path
           d="m 0,0 c 3,6.5 3,6.5 3,11 -4.29,0.99 -8.58,1.98 -13,3 2.6140881,8.167519 5.4117426,16.211616 8.5625,24.1875 C 1.7350519,46.22537 4.7000018,54.287507 7,62.625 8.1305433,66.440584 9.6199254,70.01698 11.195313,73.667969 12,76 12,76 12,80 10.731605,80.506153 9.460169,81.004691 8.1875,81.5 7.4798047,81.778437 6.7721094,82.056875 6.0429687,82.34375 4,83 4,83 1,83 -1.3913481,77.439535 -3.3246964,72.103543 -4.5,66.164062 -5.1718391,63.256259 -6.2391209,60.566614 -7.3359375,57.796875 -8.1592969,55.568961 -8.6337953,53.34371 -9,51 c -0.66,0 -1.32,0 -2,0 -0.253945,-1.036406 -0.507891,-2.072812 -0.769531,-3.140625 -0.34717,-1.369915 -0.694854,-2.7397 -1.042969,-4.109375 -0.165645,-0.681914 -0.331289,-1.363828 -0.501953,-2.066406 C -14.321165,37.770714 -15.55831,35.163098 -18,32 c -0.374608,-2.737137 -0.138987,-5.220256 0,-8 -0.66,0 -1.32,0 -2,0 0,-1.32 0,-2.64 0,-4 -0.808242,0.216562 -1.616484,0.433125 -2.449219,0.65625 -1.068633,0.278437 -2.137265,0.556875 -3.238281,0.84375 -1.055742,0.278437 -2.111484,0.556875 -3.199219,0.84375 C -32,23 -32,23 -37,23 -37.66,19.7 -38.32,16.4 -39,13 -19.430808,4.4625598 -19.430808,4.4625598 -11.128906,2.5703125 -8.947387,2.0629903 -8.947387,2.0629903 -6.8867187,0.9375 -4.497115,-0.24988074 -2.6321039,-0.14622799 0,0 Z"
           fill="#101010"
           transform="translate(602,756)"
           id="path25" /><path
           d="M 0,0 C 3.4965917,3.163583 4.2500451,6.0669993 4.5,10.625 4.275136,16.771283 2.1908397,22.307729 0,28 c -0.99,0 -1.98,0 -3,0 -0.33,1.65 -0.66,3.3 -1,5 -0.66,0 -1.32,0 -2,0 -0.04125,0.66 -0.0825,1.32 -0.125,2 -1.2934483,4.43468 -3.963197,7.475936 -6.875,11 -0.763125,0.969375 -1.52625,1.93875 -2.3125,2.9375 C -19.064019,51.816573 -22.309878,52.501925 -27,52 c -4.401114,-2.084738 -4.401114,-2.084738 -6,-5 -2.102496,-9.948769 1.910562,-19.235656 6.542969,-27.878906 C -25.976211,18.421133 -25.495391,17.721172 -25,17 c 0.66,0 1.32,0 2,0 0.0825,-0.53625 0.165,-1.0725 0.25,-1.625 1.56053,-4.941678 4.867663,-9.010308 8.75,-12.375 0.66,0 1.32,0 2,0 0,-0.66 0,-1.32 0,-2 3.7424803,-1.87124014 7.9337877,-1.66239909 12,-1 z"
           fill="#f5f5f5"
           transform="translate(673,208)"
           id="path26" /><path
           d="M 0,0 C 3.0083363,1.6432522 5.6798721,3.4639028 8,6 8,6.99 8,7.98 8,9 8.5762109,9.1701563 9.1524219,9.3403125 9.7460938,9.515625 13.20458,11.793311 14.349367,15.066268 16.0625,18.75 c 0.338379,0.703828 0.676758,1.407656 1.025391,2.132812 0.66696,1.388105 1.32742,2.779354 1.980957,4.173829 0.833508,1.739571 1.735565,3.445908 2.645996,5.146484 C 23.695385,34.513361 23.800609,38.354954 23,43 20.731869,47.642884 16.776091,50.272478 12,52 9.5195501,51.728626 8.3820458,51.438298 6.7265625,49.539062 6.3630469,48.907422 5.9995313,48.275781 5.625,47.625 5.1970312,46.890234 4.7690625,46.155469 4.328125,45.398437 3.8898437,44.606953 3.4515625,43.815469 3,43 2.5823438,42.249766 2.1646875,41.499531 1.734375,40.726562 0.77722492,38.982789 -0.17263808,37.235006 -1.1171875,35.484375 -3.6418789,30.812124 -6.1946783,26.155552 -8.75,21.5 c -0.4842041,-0.885264 -0.9684082,-1.770527 -1.467285,-2.682617 -0.45939,-0.836924 -0.918779,-1.673848 -1.39209,-2.536133 -0.412178,-0.752168 -0.824355,-1.504336 -1.249023,-2.279297 C -13.83372,12.291595 -14.907849,10.638226 -16,9 -16.125,6.3125 -16.125,6.3125 -16,4 -10.874153,0.94630416 -6.0377997,-1.5675057 0,0 Z"
           fill="#f5f5f4"
           transform="translate(357,212)"
           id="path27" /><path
           d="M 0,0 C 9.6755027,-0.68837568 9.6755027,-0.68837568 13.625,1.875 14.40875,2.57625 15.1925,3.2775 16,4 c 0,0.66 0,1.32 0,2 0.99,0.33 1.98,0.66 3,1 2.233869,4.467738 1.62162,10.16518 1,15 -2.179277,4.137867 -5.160031,6.44002 -9,9 C 9.0988769,31.227051 9.0988769,31.227051 6.9882812,31.195312 6.230957,31.188867 5.4736328,31.182422 4.6933594,31.175781 3.9076758,31.159023 3.1219922,31.142266 2.3125,31.125 1.5152148,31.115977 0.71792969,31.106953 -0.10351562,31.097656 -2.069139,31.074116 -4.0346077,31.038245 -6,31 -5.357309,24.860771 -4.563089,18.778265 -3.5625,12.6875 -3.4406836,11.903105 -3.3188672,11.118711 -3.1933594,10.310547 -2.5786451,6.5617453 -2.0345042,3.2851518 0,0 Z"
           fill="#f4f5f5"
           transform="translate(430,777)"
           id="path30" /><path
           d="M 0,0 C 1.32,0 2.64,0 4,0 4,0.66 4,1.32 4,2 5.5778125,2.12375 5.5778125,2.12375 7.1875,2.25 11.331627,3.0652382 13.084734,3.9989905 16,7 c 0.8125,2.25 0.8125,2.25 1,4 0.66,0 1.32,0 2,0 0.02712,1.437395 0.04645,2.874939 0.0625,4.3125 0.0116,0.800508 0.0232,1.601016 0.03516,2.425781 C 19,20 19,20 18,23 c -0.66,0 -1.32,0 -2,0 -0.0825,0.5775 -0.165,1.155 -0.25,1.75 C 14.776619,27.670143 13.323867,29.017878 11,31 7.7148053,32.095065 5.2633658,32.099606 1.8125,32.0625 0.18248047,32.048965 0.18248047,32.048965 -1.4804687,32.035156 -2.3119141,32.023555 -3.1433594,32.011953 -4,32 c 0,-0.66 0,-1.32 0,-2 -1.32,0 -2.64,0 -4,0 0.6624372,-6.577722 2.5902225,-12.64574 4.5625,-18.9375 C -2.9434668,9.4643848 -2.9434668,9.4643848 -2.4394531,7.8339844 -1.631,5.2211576 -0.81773465,2.6099338 0,0 Z"
           fill="#f5f5f6"
           transform="translate(599,180)"
           id="path32" /><path
           d="M 0,0 C 5.6614473,0.683454 8.8544561,3.4542626 12.9375,7.2578125 15.954598,11.269181 15.977902,14.361089 15.535156,19.25 14.872052,22.657483 14.108155,25.214224 12,28 10.3125,28.875 10.3125,28.875 8,29 7.0448047,29.056074 7.0448047,29.056074 6.0703125,29.113281 2.1670281,29.24911 0.31196001,29.207973 -3,27 -3,26.34 -3,25.68 -3,25 -3.721875,24.7525 -4.44375,24.505 -5.1875,24.25 -8.2471327,22.890163 -10.467374,21.170822 -13,19 c 0.75,-2.375 0.75,-2.375 2,-5 1.325205,-0.682681 2.6581218,-1.350704 4,-2 0.1417969,-0.59168 0.2835937,-1.183359 0.4296875,-1.792969 C -5.8726709,7.5072537 -4.650569,5.9368966 -2.9375,3.75 -2.3896484,3.0435938 -1.8417969,2.3371875 -1.2773437,1.609375 -0.85582031,1.0782812 -0.43429687,0.5471875 0,0 Z"
           fill="#f2f2f3"
           transform="translate(309,745)"
           id="path34" /><path
           d="M 0,0 C 0.99,0 1.98,0 3,0 3,0.66 3,1.32 3,2 3.53625,2.226875 4.0725,2.45375 4.625,2.6875 8.7470026,4.9654488 12.467062,7.4011847 14,12 c 0.375,3.4375 0.375,3.4375 0,7 C 10.59951,22.492395 7.6583392,23.734666 2.875,24.5 -2.715336,23.778666 -5.8756977,20.666047 -10,17 c 0.7790608,-3.472385 1.9553507,-6.055705 4,-9 0.66,0 1.32,0 2,0 C -3.896875,7.4225 -3.79375,6.845 -3.6875,6.25 -2.8835008,3.6187298 -1.8693248,2.0131191 0,0 Z"
           fill="#f2f2f2"
           transform="translate(329,719)"
           id="path35" /><path
           d="M 0,0 C 0.66,0 1.32,0 2,0 1.67,2.97 1.34,5.94 1,9 0.34,9 -0.32,9 -1,9 -1.048984,9.8688281 -1.097969,10.737656 -1.1484375,11.632813 -1.2232035,12.785234 -1.2979687,13.937656 -1.375,15.125 -1.444609,16.261953 -1.5142187,17.398906 -1.5859375,18.570312 -1.9963661,21.9699 -2.9005793,24.770452 -4,28 c -0.2699532,1.950794 -0.481283,3.910867 -0.625,5.875 -0.074766,0.966797 -0.1495312,1.933594 -0.2265625,2.929687 C -4.9005469,37.529141 -4.9495312,38.253594 -5,39 c -6.188007,-0.884001 -11.891877,-2.244027 -17,-6 0,-0.99 0,-1.98 0,-3 0.66,0 1.32,0 2,0 0.20625,-0.680625 0.4125,-1.36125 0.625,-2.0625 1.54908,-3.309398 3.508373,-5.535785 5.921875,-8.242188 C -11.663161,17.607022 -10.328603,15.404139 -9,13 c 1.5625,-2.8125 1.5625,-2.8125 3,-5 0.66,0 1.32,0 2,0 C -3.896875,7.4225 -3.79375,6.845 -3.6875,6.25 -2.8910354,3.6433884 -1.8093472,2.0264689 0,0 Z"
           fill="#eeeeef"
           transform="translate(383,759)"
           id="path36" /><path
           d="M 0,0 C 0.99,0.33 1.98,0.66 3,1 3.309375,1.804375 3.61875,2.60875 3.9375,3.4375 5.242438,6.5847033 6.0523431,6.5483633 9,8 c 1.783447,1.6323242 1.783447,1.6323242 3.566406,3.554688 0.650332,0.697382 1.300664,1.394765 1.970703,2.113281 0.668379,0.72832 1.336758,1.45664 2.025391,2.207031 1.008369,1.080879 1.008369,1.080879 2.037109,2.183594 C 25.287651,25.271318 25.287651,25.271318 27,28 c -1,3 -1,3 -3.144531,4.386719 -0.88043,0.429258 -1.76086,0.858515 -2.667969,1.300781 -0.872695,0.436992 -1.745391,0.873984 -2.644531,1.324219 C 16,36 16,36 12,36 9.3065455,28.664297 6.6857685,21.304627 4.1069336,13.927979 3.0714204,10.97762 2.027395,8.065494 0.8203125,5.1796875 0,3 0,3 0,0 Z"
           fill="#efeeee"
           transform="translate(636,753)"
           id="path37" /><path
           d="m 0,0 c 3.8286892,1.4522614 5.2538953,3.3331801 7,7 0,1.32 0,2.64 0,4 0.99,0.33 1.98,0.66 3,1 1.415865,2.910389 2.299223,5.846502 3,9 0.66,0 1.32,0 2,0 0.33,1.65 0.66,3.3 1,5 0.99,0.33 1.98,0.66 3,1 2,3 2,3 2,6 -4.000482,1.957683 -7.304673,3.176064 -11.7539062,3.597656 C 8.447439,36.67637 7.6487842,36.755083 6.8259277,36.836182 5.9220935,36.917272 5.9220935,36.917272 5,37 4.2851575,32.213217 3.5731502,27.426024 2.8637695,22.638428 2.6220365,21.009731 2.3795285,19.381149 2.1362305,17.752686 1.7866979,15.412244 1.4399526,13.071405 1.09375,10.730469 0.92969666,9.6381318 0.92969666,9.6381318 0.7623291,8.5237274 0.33953228,5.6496661 0,2.9097936 0,0 Z"
           fill="#eeeeee"
           transform="translate(407,189)"
           id="path38" /><path
           d="M 0,0 C 1.890625,0.203125 1.890625,0.203125 4,1 5.046875,3.109375 5.046875,3.109375 5.75,5.75 5.9923437,6.6110937 6.2346875,7.4721875 6.484375,8.359375 7.0061921,11.031711 7.2652113,13.288443 7,16 c -4.1081081,4 -4.1081081,4 -7,4 0,0.99 0,1.98 0,3 -1.32,0 -2.64,0 -4,0 -1.2831789,-3.849537 -1.0664364,-6.947381 -1,-11 -0.66,0 -1.32,0 -2,0 0,-1.98 0,-3.96 0,-6 C -6.01,5.67 -5.02,5.34 -4,5 -4,4.34 -4,3.68 -4,3 -2.68,2.67 -1.36,2.34 0,2 0,1.34 0,0.68 0,0 Z"
           fill="#1e1e1f"
           transform="translate(308,226)"
           id="path39" /><path
           d="m 481.05606,774.94394 c 3.96,0 7.92,0 12,0 0.0253,3.97948 0.0431,7.95893 0.0549,11.93848 0.007,1.99709 0.02,3.99415 0.033,5.99121 0.0182,7.34196 -0.18507,14.6 -0.69455,21.9292 -0.54938,8.03945 -0.7433,16.08699 -0.95584,24.14111 -0.0434,1.56511 -0.087,3.13022 -0.13086,4.69531 -0.1051,3.76816 -0.20685,7.53639 -0.30664,11.30469 -0.33,0 -0.66,0 -1,0 -0.0254,-7.29573 -0.0429,-14.59144 -0.0549,-21.8872 -0.005,-2.48113 -0.0118,-4.96225 -0.0205,-7.44336 -0.0121,-3.56951 -0.0178,-7.13898 -0.0222,-10.7085 -0.005,-1.10647 -0.0103,-2.21294 -0.0156,-3.35294 -3.6e-4,-5.00062 0.13199,-9.68653 1.1133,-14.608 0.13571,-1.72445 0.24173,-3.45152 0.3164,-5.17969 0.0419,-0.92812 0.0838,-1.85624 0.12696,-2.81249 0.0393,-0.95133 0.0786,-1.90266 0.11914,-2.88282 0.0432,-0.97453 0.0864,-1.94906 0.13086,-2.95312 0.10546,-2.39049 0.20649,-4.78117 0.30664,-7.17188 -3.3,0 -6.6,0 -10,0 0.005,0.9009 0.0105,1.80179 0.0159,2.72998 0.12622,25.43926 -0.30165,50.84113 -1.01587,76.27002 -0.33,0 -0.66,0 -1,0 -0.12213,-26.68756 0.0606,-53.32745 1,-80 z"
           fill="#49494a"
           id="path40"
           style="fill:#000000" /><path
           d="m 0,0 c 3.63,0.33 7.26,0.66 11,1 0,0.33 0,0.66 0,1 C 10.373516,2.0257813 9.7470312,2.0515625 9.1015625,2.078125 8.2842969,2.1348438 7.4670312,2.1915625 6.625,2.25 5.8128906,2.2964063 5.0007812,2.3428125 4.1640625,2.390625 1.8744345,2.7732653 1.8744345,2.7732653 0.93164062,4.7128906 -0.08869233,7.2177332 -0.60566104,9.5391233 -1.0703125,12.203125 -1.2443359,13.182813 -1.4183594,14.1625 -1.5976562,15.171875 -1.7716797,16.187656 -1.9457031,17.203437 -2.125,18.25 -2.3067578,19.28125 -2.4885156,20.3125 -2.6757813,21.375 -3.1227643,23.915746 -3.5639553,26.457358 -4,29 -4.33,29 -4.66,29 -5,29 -5.219944,23.721343 -4.960252,19.132715 -3.5039063,14.050781 -2.7681628,11.056477 -2.5611021,8.050567 -2.34375,4.9804687 -2,3 -2,3 0,0 Z"
           fill="#666566"
           transform="translate(421,762)"
           id="path45" /><path
           d="M 0,0 C 2,1 2,1 2.6108398,2.6950684 3.8949304,8.6608765 4.410456,14.470344 4.625,20.5625 4.663672,21.475801 4.702344,22.389102 4.7421875,23.330078 4.8353025,25.553199 4.9211217,27.776336 5,30 4.34,29.67 3.68,29.34 3,29 2.6210938,25.910156 2.6210938,25.910156 2.4375,22.0625 2.3742226,17.366481 2.3742226,17.366481 1,13 0.77049681,10.795636 0.58924067,8.5860783 0.4375,6.375 0.35371094,5.1864844 0.26992188,3.9979688 0.18359375,2.7734375 0.12300781,1.8582031 0.06242187,0.94296875 0,0 Z"
           fill="#807e7e"
           transform="translate(463,207)"
           id="path49" /><path
           d="M 0,0 C 0.99,0.33 1.98,0.66 3,1 3.6666667,2.6666667 4.3333333,4.3333333 5,6 5.99,6.33 6.98,6.66 8,7 7.34,7.66 6.68,8.32 6,9 5.6023574,10.988213 5.2622465,12.989443 5,15 2.4963901,10.377951 0,5.3004934 0,0 Z"
           fill="#c0c2c5"
           transform="translate(636,753)"
           id="path54" /><path
           d="M 0,0 C 0.84304688,0.15597656 1.6860937,0.31195312 2.5546875,0.47265625 3.6503906,0.66730469 4.7460937,0.86195313 5.875,1.0625 6.9655469,1.2597266 8.0560938,1.4569531 9.1796875,1.6601562 11.946533,2.256319 11.946533,2.256319 14,1 14,2.32 14,3.64 14,5 3.5,3.5 3.5,3.5 0,0 Z"
           fill="#818181"
           transform="translate(364,793)"
           id="path66" /><path
           d="M 0,0 C 0.66,0.33 1.32,0.66 2,1 2.5935561,3.6486043 2.7420927,6.2919732 3,9 1.68,8.34 0.36,7.68 -1,7 -1.0425436,5.0004525 -1.0408078,2.9995836 -1,1 -0.67,0.67 -0.34,0.34 0,0 Z"
           fill="#cacac9"
           transform="translate(679,438)"
           id="path71" /></g><rect
         style="fill:#000000;stroke-width:0.775431"
         id="rect83"
         width="0.18164062"
         height="1.3417969"
         x="36.861328"
         y="20.003906" /></g></g></svg>
