<?xml version="1.0" encoding="UTF-8" standalone="no"?>
<svg
   viewBox="0 0 24 24"
   width="24pt"
   height="24pt"
   version="1.1"
   id="svg1"
   sodipodi:docname="pink_master_pin.svg"
   xml:space="preserve"
   xmlns:inkscape="http://www.inkscape.org/namespaces/inkscape"
   xmlns:sodipodi="http://sodipodi.sourceforge.net/DTD/sodipodi-0.dtd"
   xmlns="http://www.w3.org/2000/svg"
   xmlns:svg="http://www.w3.org/2000/svg"><defs
     id="defs1" /><sodipodi:namedview
     id="namedview1"
     pagecolor="#ffffff"
     bordercolor="#000000"
     borderopacity="0.25"
     inkscape:showpageshadow="2"
     inkscape:pageopacity="0.0"
     inkscape:pagecheckerboard="0"
     inkscape:deskcolor="#d1d1d1"
     inkscape:document-units="pt"><inkscape:page
       x="0"
       y="0"
       width="24"
       height="24"
       id="page2"
       margin="0"
       bleed="0" /></sodipodi:namedview><path
     d="M 18.219,16.551 C 19.896,14.836 21.02,12.588 21.02,10.02 21.02,5.042 16.978,1 12,1 7.022,1 2.98,5.042 2.98,10.02 c 0,2.6 1.027,4.767 2.864,6.59 v 0 L 11.633,23 18.23,16.551 Z"
     fill="#ff69b4"
     id="path1" /><g
     id="g1"
     transform="matrix(0.01787473,0,0,0.02012357,2.8797844,-0.46067683)"><path
       d="m 0,0 c 50.171978,-0.0415446 100.34395,-0.07356027 150.51595,-0.05273438 0.74224,3.0529e-4 1.48448,6.1057e-4 2.24921,9.251e-4 16.12986,0.0066936 32.25971,0.01516513 48.38957,0.02546891 7.90977,0.005042 15.81954,0.0096909 23.7293,0.01413334 1.1807,6.7315e-4 1.1807,6.7315e-4 2.38524,0.0013599 25.52554,0.01436875 51.05099,0.00277279 76.57651,-0.0222493 26.2249,-0.02557081 52.44968,-0.02502406 78.67457,0.0085126 3.70178,0.0047217 7.40356,0.0091439 11.10535,0.01338387 0.72858,8.4377e-4 1.45716,0.00168753 2.20782,0.00255687 11.74102,0.01282646 23.48185,-0.00198191 35.22284,-0.02705585 11.79598,-0.02460412 23.59165,-0.0196102 35.38761,0.0138577 6.39463,0.01726978 12.78857,0.02133841 19.18316,-0.009178 5.84866,-0.02762778 11.69606,-0.01876039 17.54464,0.01976025 2.12121,0.00741695 4.24251,0.0011692 6.36362,-0.01976132 2.87455,-0.02641201 5.74466,-0.0040261 8.61902,0.03102028 1.24853,-0.02911765 1.24853,-0.02911765 2.52228,-0.05882353 C 523.04128,0.00104858 524.79646,0.13378348 527,1 c 3.1145,3.2791002 5,6.4471416 5,11 0.99,0.33 1.98,0.66 3,1 0.70381,1.987233 1.37118,3.98778 2,6 0.66,0.33 1.32,0.66 2,1 0.33,0.99 0.66,1.98 1,3 0.66,0 1.32,0 2,0 -0.0619,0.886875 -0.12375,1.77375 -0.1875,2.6875 0.21965,3.880484 1.13518,5.034979 3.1875,8.3125 1.76977,3.186759 3.47785,6.405681 5.1875,9.625 0.46342,0.858516 0.92684,1.717031 1.4043,2.601562 0.65645,1.2375 0.65645,1.2375 1.32617,2.5 0.59978,1.122693 0.59978,1.122693 1.21167,2.268067 C 555,53 555,53 555,56 c 0.66,0 1.32,0 2,0 0,0.99 0,1.98 0,3 1.32,0.33 2.64,0.66 4,1 0,1.32 0,2.64 0,4 0.99,0.33 1.98,0.66 3,1 1.1875,2.5625 1.1875,2.5625 2,5 0.33,-0.33 0.66,-0.66 1,-1 2.69655,-0.0732 5.36691,-0.09243 8.0625,-0.0625 0.75861,0.0045 1.51723,0.009 2.29883,0.01367 1.87959,0.01182 3.75914,0.02976 5.63867,0.04883 0.009,1.185535 0.0187,2.371069 0.0283,3.592529 0.0399,4.407931 0.10571,8.815168 0.1792,13.222657 0.0282,1.905833 0.0494,3.811783 0.0635,5.717773 0.0215,2.743525 0.0681,5.485654 0.11962,8.22876 10e-4,0.849141 0.002,1.698291 0.004,2.573161 0.1269,5.15133 0.75547,7.89208 4.60565,11.66512 -0.33,0.33 -0.66,0.66 -1,1 0.47437,0.5775 0.94875,1.155 1.4375,1.75 1.5625,2.25 1.5625,2.25 2,4.0625 0.71614,2.785 2.05893,4.94958 3.52734,7.40625 1.09961,1.89215 2.07261,3.81589 3.03516,5.78125 0.83206,1.68813 1.66545,3.3756 2.5,5.0625 0.42281,0.85723 0.84563,1.71445 1.28125,2.59766 1.25245,2.50695 1.25245,2.50695 3.21875,5.33984 0.385,1.6555 0.72793,3.32224 1,5 0.66,0 1.32,0 2,0 0.19336,0.60328 0.38672,1.20656 0.58594,1.82812 0.26039,0.79922 0.52078,1.59844 0.78906,2.42188 0.38285,1.18336 0.38285,1.18336 0.77344,2.39062 1.44147,4.49007 1.44147,4.49007 4.85156,7.35938 -0.33,0.66 -0.66,1.32 -1,2 0.99,0 1.98,0 3,0 1.96602,6.81553 1.96602,6.81553 2.4375,9.375 0.18562,0.53625 0.37125,1.0725 0.5625,1.625 0.99,0.33 1.98,0.66 3,1 0,0.99 0,1.98 0,3 1.31201,1.5625 1.31201,1.5625 3,3 2.2643,2.0727 3.60895,3.89898 4.86719,6.69531 0.32549,0.711 0.65097,1.422 0.98633,2.15454 0.33709,0.7508 0.67418,1.5016 1.02148,2.27515 3.11137,6.81989 3.11137,6.81989 6.625,13.4375 2.39811,4.1864 4.62025,8.45317 6.8125,12.75 0.36223,0.69489 0.72445,1.38977 1.09766,2.10571 C 648.19042,228.93723 649,230.98211 649,235 c 0.66,0.66 1.32,1.32 2,2 2,2 2,2 2,6 0.66,0.66 1.32,1.32 2,2 2,2 2,2 2,6 0.66,0.66 1.32,1.32 2,2 1,2 1,2 1.3125,3.875 0.56486,2.29628 0.56486,2.29628 2.625,4.0625 2.32492,2.32492 2.94564,3.99114 4.0625,7.0625 0.65066,1.38265 1.31862,2.75723 2,4.125 0.33,0.66258 0.66,1.32516 1,2.00781 1.08789,2.1032 1.08789,2.1032 3,4.86719 0.125,2.6875 0.125,2.6875 0,5 0.99,0.33 1.98,0.66 3,1 0.33,1.65 0.66,3.3 1,5 0.66,-0.66 1.32,-1.32 2,-2 0.93424,3.01032 1.0445,3.8665 0,7 0.99,0.33 1.98,0.66 3,1 0,0.66 0,1.32 0,2 0.66,0 1.32,0 2,0 0.11215,0.52078 0.2243,1.04156 0.33984,1.57812 0.85876,3.15046 2.0364,6.13018 3.22266,9.17188 0.45504,1.17047 0.91008,2.34094 1.37891,3.54687 0.524,1.33805 0.524,1.33805 1.05859,2.70313 0.99,0 1.98,0 3,0 1.90751,5.59538 1.90751,5.59538 2.4375,7.91406 0.86075,3.19193 2.32772,6.07406 3.72266,9.0625 C 700,334 700,334 700,336 c 1.32,0.66 2.64,1.32 4,2 0,0.66 0,1.32 0,2 0.64809,1.34246 1.31823,2.67433 2,4 0.30938,0.84562 0.61875,1.69125 0.9375,2.5625 0.88414,2.47478 0.88414,2.47478 2.6875,3.9375 1.375,1.5 1.375,1.5 1.5625,4.1875 -0.0619,0.76312 -0.12375,1.52625 -0.1875,2.3125 0.66,0.33 1.32,0.66 2,1 0.625,2.5625 0.625,2.5625 1,5 0.66,0 1.32,0 2,0 -0.44209,5.52608 -1.86737,8.49685 -5,13 -0.3482,1.66362 -0.68404,3.32995 -1,5 -0.495,0.47437 -0.99,0.94875 -1.5,1.4375 -2.17409,2.26468 -2.1619,4.51958 -2.5,7.5625 -0.99,0.33 -1.98,0.66 -3,1 -0.80564,2.10584 -0.80564,2.10584 -1.1875,4.5625 -0.15855,0.82629 -0.31711,1.65258 -0.48047,2.50391 -0.10957,0.63808 -0.21914,1.27617 -0.33203,1.93359 -0.66,0 -1.32,0 -2,0 -0.33,1.65 -0.66,3.3 -1,5 -0.66,0 -1.32,0 -2,0 -0.86605,1.76505 -1.71749,3.53728 -2.5625,5.3125 -0.47566,0.98613 -0.95133,1.97227 -1.44141,2.98828 -1.3302,2.73876 -1.3302,2.73876 0.004,5.69922 -0.33,0.33 -0.66,0.66 -1,1 -0.23193,1.51469 -0.41215,3.03755 -0.5625,4.5625 -0.0838,0.82629 -0.16758,1.65258 -0.25391,2.50391 -0.0606,0.63808 -0.12117,1.27617 -0.18359,1.93359 1.65,0 3.3,0 5,0 0,2.64 0,5.28 0,8 -2.64,0 -5.28,0 -8,0 0,-1.32 0,-2.64 0,-4 -0.68062,1.2375 -0.68062,1.2375 -1.375,2.5 -0.80438,1.2375 -0.80438,1.2375 -1.625,2.5 -0.66,0 -1.32,0 -2,0 -0.66,-0.66 -1.32,-1.32 -2,-2 -0.18176,0.80824 -0.36352,1.61648 -0.55078,2.44922 -0.37705,1.60295 -0.37705,1.60295 -0.76172,3.23828 -0.24363,1.05574 -0.48727,2.11148 -0.73828,3.19922 -0.94183,3.08904 -2.17295,5.43146 -3.94922,8.11328 1.65,0 3.3,0 5,0 0,5.28 0,10.56 0,16 -3.96,0 -7.92,0 -12,0 0.33,-1.32 0.66,-2.64 1,-4 -0.66,0 -1.32,0 -2,0 -0.33,0.99 -0.66,1.98 -1,3 -0.33,0.33 -0.66,0.66 -1,1 0,2.72838 0.53331,5.31654 1,8 -0.61875,0.4125 -1.2375,0.825 -1.875,1.25 -2.19268,1.80574 -3.05288,3.15905 -4.125,5.75 1.32,0.33 2.64,0.66 4,1 0,5.28 0,10.56 0,16 -5.61,0.33 -11.22,0.66 -17,1 -0.66,1.98 -1.32,3.96 -2,6 -0.66,0 -1.32,0 -2,0 -0.10312,0.70125 -0.20625,1.4025 -0.3125,2.125 -0.78804,3.29545 -2.0162,5.93351 -3.6875,8.875 -0.66,0.33 -1.32,0.66 -2,1 -0.72159,1.64363 -1.39351,3.3105 -2,5 -70.28804,0.11993 -140.5761,0.23124 -210.86421,0.2964 -1.0397,9.7e-4 -2.07939,0.002 -3.1506,0.003 -22.59346,0.0209 -45.18692,0.0403 -67.78038,0.0581 -11.07926,0.009 -22.15851,0.0178 -33.23777,0.0271 -1.10254,9.2e-4 -2.20508,0.002 -3.34103,0.003 -35.75943,0.0298 -71.51878,0.0824 -107.27816,0.14678 -36.7365,0.066 -73.47296,0.10911 -110.209517,0.12332 -5.184542,0.002 -10.369084,0.004 -15.553626,0.007 -1.020428,4.7e-4 -2.040856,9.4e-4 -3.092206,10e-4 -16.449682,0.008 -32.899232,0.0408 -49.34886,0.0823 -16.523174,0.0411 -33.0462168,0.057 -49.56944,0.0467 -9.826092,-0.005 -19.651705,0.009 -29.477711,0.0511 -6.556151,0.0262 -13.111987,0.0271 -19.668159,0.007 -3.740753,-0.0106 -7.480597,-0.01 -11.221254,0.0214 -4.022755,0.0334 -8.04341,0.0131 -12.066218,-0.0129 -1.170872,0.0184 -2.341744,0.0368 -3.548097,0.0557 -7.616602,-0.11207 -7.616602,-0.11207 -10.408352,-2.41428 -2.64633,-3.55763 -3.78896,-7.31644 -5.18441,-11.50278 -0.99,-0.33 -1.98,-0.66 -3,-1 0.33,-0.99 0.66,-1.98 1,-3 -0.66,-0.33 -1.32,-0.66 -2,-1 -0.75855,-1.68201 -1.51055,-3.36789 -2.20313,-5.07813 -1.12464,-2.71237 -2.45893,-5.3097 -3.79687,-7.92187 -0.66,0 -1.32,0 -2,0 -0.66667,-1.66667 -1.33333,-3.33333 -2,-5 -0.35062,-0.84562 -0.70125,-1.69125 -1.0625,-2.5625 C -127,484 -127,484 -127.5,481.8125 c -0.40378,-2.04535 -0.40378,-2.04535 -2.5,-3.8125 -0.14437,-0.59812 -0.28875,-1.19625 -0.4375,-1.8125 -0.70646,-2.74734 -2.0814,-4.78072 -3.5625,-7.1875 -0.495,-1.485 -0.495,-1.485 -1,-3 -0.66,-0.33 -1.32,-0.66 -2,-1 -0.30937,-0.78375 -0.61875,-1.5675 -0.9375,-2.375 -0.84002,-2.6276 -0.84002,-2.6276 -2.59375,-4 -1.90507,-2.10774 -1.8898,-3.44845 -2.03125,-6.25 -0.0839,-2.34642 -0.0839,-2.34642 -0.4375,-4.375 -0.66,-0.33 -1.32,-0.66 -2,-1 -0.66,-0.99 -1.32,-1.98 -2,-3 -0.7425,-0.86625 -0.7425,-0.86625 -1.5,-1.75 -1.56594,-2.34891 -2.14053,-4.46098 -2.83594,-7.17188 -1.35132,-4.22884 -3.38917,-8.27206 -5.66406,-12.07812 -0.66,-0.33 -1.32,-0.66 -2,-1 -0.36548,-1.32488 -0.69376,-2.66019 -1,-4 -0.63654,-1.34797 -1.29605,-2.68597 -2,-4 -0.66,0 -1.32,0 -2,0 -0.12375,-0.94875 -0.2475,-1.8975 -0.375,-2.875 -0.34187,-3.21167 -0.34187,-3.21167 -2.625,-5.125 -2.18997,-3.47819 -2.53424,-6.96343 -3,-11 -0.66,0 -1.32,0 -2,0 -0.83819,-1.6225 -1.67041,-3.24808 -2.5,-4.875 -0.69609,-1.35738 -0.69609,-1.35738 -1.40625,-2.74219 C -177,385 -177,385 -177,383 c -0.66,-0.33 -1.32,-0.66 -2,-1 -0.33,-0.33 -0.66,-0.66 -1,-1 -0.66,-0.33 -1.32,-0.66 -2,-1 -0.59766,-2.03125 -0.59766,-2.03125 -1.0625,-4.5 -0.39615,-3.03773 -0.39615,-3.03773 -1.9375,-5.5 -0.84876,-7.13795 0.36741,-11.87001 4,-18 0.66,0 1.32,0 2,0 -0.33,-1.32 -0.66,-2.64 -1,-4 0.99,0 1.98,0 3,0 0.43313,-1.03125 0.86625,-2.0625 1.3125,-3.125 1.43811,-3.36006 3.05281,-6.60563 4.6875,-9.875 1.05998,-2.34228 2.09981,-4.69258 3.13281,-7.04688 0.89598,-2.01795 1.87989,-3.97851 2.86719,-5.95312 0.66,0 1.32,0 2,0 0,-1.32 0,-2.64 0,-4 1.37671,-1.50586 1.37671,-1.50586 3,-3 1.0812,-1.85787 1.0812,-1.85787 1.97266,-3.90625 0.34224,-0.74379 0.68449,-1.48758 1.03711,-2.25391 0.3474,-0.77214 0.6948,-1.54429 1.05273,-2.33984 0.69705,-1.53224 1.39619,-3.06353 2.09766,-4.59375 0.30558,-0.6774 0.61117,-1.3548 0.92602,-2.05273 C -152,298 -152,298 -150,295 c 0.16714,-2.62532 0.16714,-2.62532 0,-5 0.66,0 1.32,0 2,0 0.26813,-0.80438 0.53625,-1.60875 0.8125,-2.4375 0.39188,-0.84562 0.78375,-1.69125 1.1875,-2.5625 0.99,-0.33 1.98,-0.66 3,-1 0.0825,-0.66 0.165,-1.32 0.25,-2 1.82562,-7.30247 6.37588,-14.0194 9.9375,-20.59766 2.70782,-5.08299 5.26786,-10.23621 7.8125,-15.40234 0.84183,-1.68366 1.72845,-3.34483 2.625,-5 0.45375,-0.99 0.9075,-1.98 1.375,-3 -0.33,-0.66 -0.66,-1.32 -1,-2 0.67187,-1.875 0.67187,-1.875 1.75,-4 0.5182,-1.05188 0.5182,-1.05188 1.04687,-2.125 C -118,228 -118,228 -115,226 c 1.54661,-2.57768 2.37204,-5.0695 3,-8 0.66,0 1.32,0 2,0 0.25523,-0.67805 0.51047,-1.35609 0.77344,-2.05469 1.70877,-4.10322 3.77475,-8.01496 5.83593,-11.94922 C -101.92072,201.12423 -101,199.27446 -101,196 c 1.312004,-1.35433 2.646314,-2.68733 4,-4 0.33,-0.99 0.66,-1.98 1,-3 0.66,0 1.32,0 2,0 0.54373,-3.05848 1,-5.88773 1,-9 0.99,-0.33 1.98,-0.66 3,-1 0.733238,-2.01508 0.733238,-2.01508 1,-4 0.66,0 1.32,0 2,0 0.103125,-1.09312 0.20625,-2.18625 0.3125,-3.3125 0.736859,-3.95224 1.093,-4.093 3.6875,-6.6875 0.730419,-3.61023 0.730419,-3.61023 1,-7 0.99,-0.33 1.98,-0.66 3,-1 0,-0.99 0,-1.98 0,-3 0.66,-0.66 1.32,-1.32 2,-2 0.33,-0.99 0.66,-1.98 1,-3 0.66,-0.66 1.32,-1.32 2,-2 0.642523,-2.06874 0.642523,-2.06874 1,-4 0.66,0 1.32,0 2,0 0.0825,-0.53625 0.165,-1.0725 0.25,-1.625 C -70,139 -70,139 -68.0625,136.25 c 2.424618,-3.82061 3.151655,-6.84758 4.0625,-11.25 0.66,0 1.32,0 2,0 2.533092,-4.64204 4.465156,-8.65156 5,-14 0.66,0 1.32,0 2,0 0.268125,-1.09312 0.53625,-2.18625 0.8125,-3.3125 1.123164,-3.48772 1.593398,-4.41766 4.1875,-6.6875 1.175747,-2.099897 1.175747,-2.099897 2,-4 -0.99,-0.33 -1.98,-0.66 -3,-1 1.32,-0.33 2.64,-0.66 4,-1 0.0825,-0.928125 0.165,-1.85625 0.25,-2.8125 C -46,89 -46,89 -44.054687,87.621094 -41.448508,85.564888 -41.146057,84.061417 -40.375,80.875 -39.710937,78.179687 -39.710937,78.179687 -39,76 c 0.66,-0.33 1.32,-0.66 2,-1 -0.66,-0.66 -1.32,-1.32 -2,-2 2,-1 4,-2 6,-3 0.481288,-1.989326 0.95773,-3.981455 1.339844,-5.992188 C -30.877307,61.62684 -29.799246,60.709731 -28,59 c 1.198851,-1.92789 1.198851,-1.92789 2.1875,-4 0.51627,-1.020938 0.51627,-1.020938 1.042969,-2.0625 C -23.815436,50.882765 -23.815436,50.882765 -24,48 c 0.867188,-1.921875 0.867188,-1.921875 2,-4 0.353203,-0.706406 0.706406,-1.412813 1.070313,-2.140625 C -19.953125,39.90625 -18.976562,37.953125 -18,36 c 0.66,0 1.32,0 2,0 0,-0.66 0,-1.32 0,-2 -0.99,-0.33 -1.98,-0.66 -3,-1 0.763125,-0.20625 1.52625,-0.4125 2.3125,-0.625 3.592407,-1.837976 4.297176,-3.643077 5.6875,-7.375 0.252844,-2.751463 0.252844,-2.751463 0,-5 0.99,-0.33 1.98,-0.66 3,-1 0.7621609,-1.656872 1.5130412,-3.321326 2.1679688,-5.023437 C -4.9694888,11.927518 -3.9191592,10.138333 -2.75,8.25 -2.1725,7.1775 -1.595,6.105 -1,5 -1.33,4.01 -1.66,3.02 -2,2 -1.34,2 -0.68,2 0,2 0,1.34 0,0.68 0,0 Z m 562,68 c 1,2 1,2 1,2 z m 5,9 c 1,2 1,2 1,2 z m 6,12 c 0.66,1.32 1.32,2.64 2,4 -0.33,-1.32 -0.66,-2.64 -1,-4 -0.33,0 -0.66,0 -1,0 z m 2,4 c 1,2 1,2 1,2 z m 59,114 c 1,2 1,2 1,2 z m 3,5 c 0.66,1.32 1.32,2.64 2,4 -0.33,-1.32 -0.66,-2.64 -1,-4 -0.33,0 -0.66,0 -1,0 z m 2,4 c 1,2 1,2 1,2 z m 2,3 c 1,2 1,2 1,2 z m 1,3 c 1,2 1,2 1,2 z m -762,13 c 1,2 1,2 1,2 z m 820,161 c 1,2 1,2 1,2 z m -11,22 c 1,2 1,2 1,2 z m -1,2 c 0,2.97 0,5.94 0,9 0.33,0 0.66,0 1,0 0,-2.97 0,-5.94 0,-9 -0.33,0 -0.66,0 -1,0 z m -3,5 c 0.66,0.66 1.32,1.32 2,2 0,-0.66 0,-1.32 0,-2 -0.66,0 -1.32,0 -2,0 z m 0,3 c -0.33,1.32 -0.66,2.64 -1,4 0.66,-0.33 1.32,-0.66 2,-1 -0.33,-0.99 -0.66,-1.98 -1,-3 z m -3,3 c 0,1.32 0,2.64 0,4 0.66,-0.99 1.32,-1.98 2,-3 -0.66,-0.33 -1.32,-0.66 -2,-1 z m -830,9 c 1,2 1,2 1,2 z m 823,4 c -0.33,0.99 -0.66,1.98 -1,3 0.66,0 1.32,0 2,0 0.33,-0.99 0.66,-1.98 1,-3 -0.66,0 -1.32,0 -2,0 z m -2,4 c 1,2 1,2 1,2 z m -2,7 c 1,2 1,2 1,2 z m -811,1 c 1,2 1,2 1,2 z m 810,1 c -2.15194,3.22792 -2.20086,4.28401 -2,8 1.64836,-1.75244 1.64836,-1.75244 3,-4 -0.21717,-2.20801 -0.21717,-2.20801 -1,-4 z m -9,15 c 0,3 0,3 0,3 z m -1,4 c 1,2 1,2 1,2 z m -2,2 c 0,0.66 0,1.32 0,2 0.66,0 1.32,0 2,0 0,-0.66 0,-1.32 0,-2 -0.66,0 -1.32,0 -2,0 z m -1,2 c 1,2 1,2 1,2 z m -1,2 c 0,3 0,3 0,3 z m -2,4 c 0,3 0,3 0,3 z m -2,3 c -0.33,1.32 -0.66,2.64 -1,4 0.66,-1.32 1.32,-2.64 2,-4 -0.33,0 -0.66,0 -1,0 z"
       fill="#ec1c24"
       id="path1-2"
       transform="translate(249,251)" /><path
       d="m 0,0 c 15.51,0 31.02,0 47,0 5.631712,10.137081 5.631712,10.137081 7.875,14.800781 0.504104,1.046397 1.008208,2.092793 1.527588,3.170899 0.527146,1.10247 1.054292,2.204941 1.597412,3.34082 0.836158,1.740718 0.836158,1.740718 1.689209,3.516602 3.012996,6.285625 5.98215,12.590542 8.908447,18.916992 0.438246,0.947196 0.438246,0.947196 0.885346,1.913528 1.406701,3.043533 2.807788,6.089436 4.202545,9.138474 3.120155,6.801204 3.120155,6.801204 6.685547,13.373779 C 82,71 82,71 82,73 c -7.644929,0.256596 -15.288722,0.429916 -22.937012,0.549316 -2.593521,0.04984 -5.186767,0.117749 -7.779297,0.205079 C 35.124404,74.284514 23.291358,73.738856 9.8886566,64.235519 6.6826982,62.138249 3.2099326,60.669542 -0.3125,59.1875 -1.0083017,58.893584 -1.7041034,58.599667 -2.42099,58.296844 -4.2762227,57.520001 -6.1375312,56.759303 -8,56 -9.6106836,55.325176 -9.6106836,55.325176 -11.253906,54.636719 -20.290533,50.983614 -29.569405,48.402966 -39,46 -39.930703,45.749922 -40.861406,45.499844 -41.820312,45.242187 -48.19503,43.786866 -54.675974,43.734523 -61.1875,43.625 -62.126904,43.59882 -63.066309,43.57263 -64.03418,43.54565 -70.138561,43.531069 -74.956656,44.382531 -80,48 c -2.449726,3.776662 -2.551956,7.584354 -2,12 5.277034,6.926107 13.445601,10.553405 21.589844,12.964844 0.814441,0.248864 1.628881,0.497729 2.468002,0.754135 10.065684,3.012038 20.28425,5.423239 30.504654,7.843521 3.835657,0.913744 7.670247,1.83182 11.503906,2.753906 0.925215,0.222268 1.850429,0.444535 2.803681,0.673538 6.7861878,1.645922 13.52092677,3.4414 20.2347867,5.360657 C 11.461567,91.594528 15.829441,92.685596 20.25,93.6875 44.675317,99.580727 70.484395,108.22451 91,123 c 0.736055,0.52723 1.472109,1.05445 2.230469,1.59766 20.562501,15.39457 40.131881,38.57644 44.488281,64.71484 1.66275,15.88848 -1.15575,30.38236 -10.72266,43.41797 C 114.04323,248.04683 93.513578,254.95009 74,257 13.537954,259.57523 -42.52563,238.01121 -93,206 c 0.181758,1.2259 0.363516,2.4518 0.550781,3.71484 1.504331,10.26799 2.891702,20.54483 4.136719,30.84766 0.131243,1.07564 0.262485,2.15128 0.397705,3.25952 0.120125,1.00877 0.240249,2.01755 0.364014,3.05689 0.106589,0.89275 0.213178,1.78551 0.322998,2.70532 C -87,252 -87,252 -87,256 c -24.42,0 -48.84,0 -74,0 -1.15144,-33.3917 -1.15144,-33.3917 -1.31641,-44.80469 -0.0208,-1.30277 -0.0416,-2.60554 -0.063,-3.94778 -0.0428,-2.6961 -0.0838,-5.39221 -0.12331,-8.08835 -0.0495,-3.37756 -0.10316,-6.75503 -0.15796,-10.1325 -0.25836,-16.01 -0.4019,-32.01459 -0.33935,-48.02668 7.7722,-0.25768 15.54335,-0.4517 23.31877,-0.56993 3.61291,-0.0568 7.22286,-0.13353 10.83406,-0.2599 16.90833,-0.57595 30.279392,-0.4152 44.087893,10.50558 4.10482,3.08979 8.926603,5.05825 13.571777,7.19925 1.46796,0.68776 1.46796,0.68776 2.965576,1.3894 6.974883,3.23642 13.951545,6.2203 21.221924,8.7356 0.63583,0.22994 1.27166,0.45987 1.926758,0.69678 C -26.62668,175.36645 -7.6644337,180.1628 12,180.25 c 1.162734,0.0206 2.325469,0.0412 3.523438,0.0625 C 23.69661,180.40432 23.69661,180.40432 31,177 c 2.323162,-1.91007 2.323162,-1.91007 2.375,-5.1875 C 32.903263,167.01651 31.733805,164.94883 29,161 c -2.126032,-1.76324 -2.126032,-1.76324 -4,-3 0,-0.66 0,-1.32 0,-2 -0.694805,-0.25523 -1.389609,-0.51047 -2.105469,-0.77344 -3.245452,-1.37526 -6.156342,-3.08519 -9.207031,-4.85156 -18.2422441,-10.00152 -39.353269,-14.3161 -59.356445,-19.50391 -5.771722,-1.50934 -11.51454,-3.1175 -17.256836,-4.73437 -2.824237,-0.79455 -5.654839,-1.55834 -8.492188,-2.30469 C -88.400354,119.32815 -104.57375,113.4622 -120,105 c -0.98275,-0.53778 -0.98275,-0.53778 -1.98535,-1.08643 -7.71808,-4.282978 -14.5407,-8.793364 -20.94824,-14.937008 C -145.0933,86.83619 -145.0933,86.83619 -148.125,84.625 -155.29719,78.076482 -159.97441,70.162228 -163,61 c -0.495,-1.485 -0.495,-1.485 -1,-3 -1.10507,-11.855855 1.17733,-21.010988 8.125,-30.6875 C -141.42729,10.044197 -119.65577,3.3033714 -97.904297,1.2226562 -78.382082,-0.27400309 -59.931781,1.1078822 -41,6 c 0.890098,0.2246191 1.780195,0.4492383 2.697266,0.6806641 C -21.923812,10.907681 -6.66786,17.619924 8,26 5.8026147,19.292192 3.4332433,12.659933 0.98828125,6.0390625 0,3 0,3 0,0 Z"
       fill="#fefdfd"
       transform="translate(687,313)"
       id="path3" /><path
       d="m 0,0 c 39.27,0 78.54,0 119,0 -2.25,12.375 -2.25,12.375 -3.50781,17.761719 -0.23864,1.028269 -0.47728,2.056538 -0.72315,3.115967 -0.29503,1.257238 -0.59007,2.514477 -0.89404,3.809814 -0.94875,4.063125 -1.8975,8.12625 -2.875,12.3125 -8.91,0 -17.82,0 -27,0 -0.33,1.98 -0.66,3.96 -1,6 -0.605216,2.144815 -1.249792,4.278773 -1.925781,6.402344 -0.382288,1.212121 -0.764575,2.424243 -1.158448,3.673095 -0.200701,0.630886 -0.401401,1.261771 -0.608184,1.911774 -3.939048,12.33891 -3.939048,12.33891 -7.370087,24.825287 -1.606625,6.302351 -3.655246,12.409986 -5.75,18.5625 -3.60597,10.59827 -6.705827,21.28581 -9.644531,32.08594 -1.187512,4.34327 -2.531058,8.58978 -3.980469,12.85156 -2.191873,7.01966 -3.015194,14.59966 -0.375,21.625 4.41943,7.46731 11.370646,12.13086 19.5,14.875 15.713193,3.78684 35.74905,2.33265 50.3125,-5 7.9221,-5.08387 14.67983,-11.40616 19,-19.8125 0.33395,-0.59958 0.6679,-1.19915 1.01196,-1.81689 1.07886,-2.38379 1.43066,-4.34262 1.73413,-6.93702 0.17028,-1.39158 0.17028,-1.39158 0.344,-2.81128 0.11464,-0.98911 0.22929,-1.97822 0.34741,-2.99731 0.25576,-2.08098 0.5136,-4.16171 0.77344,-6.24219 0.12987,-1.04124 0.25974,-2.08248 0.39355,-3.15527 0.5753,-4.42197 1.25079,-8.82498 1.95801,-13.22754 0.11465,-0.71551 0.22929,-1.43102 0.34741,-2.16821 0.49599,-3.06355 1.00194,-6.12517 1.52149,-9.18482 1.04741,-6.19184 2.02752,-12.39173 2.97094,-18.600095 0.1866,-1.22642 0.1866,-1.22642 0.37697,-2.477615 0.51529,-3.390181 1.02995,-6.780452 1.54076,-10.171311 C 156.25116,62.406602 158.46029,49.698556 161,37 c -7.92,0 -15.84,0 -24,0 0,-12.374813 0,-12.374813 0.83984,-16.492188 0.17596,-0.889453 0.35192,-1.778906 0.53321,-2.695312 0.18627,-0.886875 0.37254,-1.77375 0.56445,-2.6875 0.1824,-0.910078 0.3648,-1.820156 0.55273,-2.757812 0.33834,-1.683077 0.68078,-3.3653388 1.02906,-5.0463872 C 141.02426,4.8828681 141.51173,2.4413338 142,0 c 31.68,0 63.36,0 96,0 0,12.21 0,24.42 0,37 -8.58,0 -17.16,0 -26,0 0.026,3.448081 0.026,3.448081 0.0525,6.96582 0.0216,8.550375 -0.38767,17.048177 -0.89233,25.581055 -0.0878,1.546706 -0.17504,3.093439 -0.26186,4.640198 -0.22768,4.040056 -0.46015,8.079819 -0.69426,12.119507 -0.37065,6.398475 -0.73711,12.797184 -1.09822,19.1962 -0.0886,1.56867 -0.17778,3.13731 -0.26743,4.70592 -0.45481,7.98607 -0.87362,15.9685 -1.11573,23.96415 -0.0387,1.26491 -0.0774,2.52983 -0.11733,3.83307 -0.0649,2.315 -0.12168,4.63024 -0.16806,6.94568 C 206.73605,171.26978 195.13473,198.70001 176,217 c -20.40716,18.56925 -44.38022,28.71987 -71.125,34.25 -0.72542,0.15114 -1.45084,0.30229 -2.19824,0.45801 -16.334297,3.14476 -32.712678,3.73306 -49.30176,3.72949 -1.058159,0.001 -2.116318,0.002 -3.206543,0.003 C 34.592403,255.41805 19.932162,254.85837 5,250 4.2400977,249.76475 3.4801953,249.52949 2.6972656,249.28711 -15.732659,243.4646 -31.561568,233.40475 -41.3125,216.42187 c -10.080918,-20.44186 -10.626943,-44.13011 -3.609375,-65.74218 4.022339,-10.63739 9.133825,-20.86879 13.955292,-31.16289 3.214953,-6.86675 6.308614,-13.77117 9.30838,-20.733841 1.576717,-3.624642 3.233937,-7.207929 4.912109,-10.786865 0.618502,-1.320877 1.236991,-2.641759 1.855469,-3.962647 0.313484,-0.66861 0.626968,-1.337221 0.949951,-2.026092 1.495334,-3.190973 2.985428,-6.384389 4.4758302,-9.577668 0.5878724,-1.259123 1.1757631,-2.518237 1.7636719,-3.777343 0.2907642,-0.622779 0.5815284,-1.245557 0.8811035,-1.887207 0.5900721,-1.263718 1.1802419,-2.527389 1.7705079,-3.791016 C -1.0102138,54.326474 3.0060558,45.668743 7,37 c -7.92,0 -15.84,0 -24,0 1.124537,-6.74722 1.124537,-6.74722 3.074219,-10.320313 0.420879,-0.78375 0.841758,-1.5675 1.27539,-2.375 0.441504,-0.801796 0.883008,-1.603593 1.337891,-2.429687 C -7.3929319,14.646239 -3.681661,7.363322 0,0 Z"
       fill="#fefdfd"
       transform="translate(271,313)"
       id="path4" /><path
       d="m 0,0 c 12.762034,-0.04656212 25.524047,-0.08198966 38.286148,-0.10362434 5.927435,-0.0103892 11.854811,-0.0244585 17.782211,-0.0472546 5.731808,-0.0219032 11.463559,-0.0337262 17.195404,-0.0388756 2.174997,-0.003665 4.349991,-0.0108197 6.524964,-0.0217056 24.101213,-0.11571302 49.639633,0.77734986 68.367523,18.23880414 8.83586,9.453621 13.51704,19.225663 13.31006,32.211426 C 161.21101,55.736282 160.51052,59.729663 157,64 c -0.56332,0.696094 -1.12664,1.392188 -1.70703,2.109375 C 148.72651,72.989723 140.97418,74.264012 132,76 c -0.98429,0.265378 -0.98429,0.265378 -1.98846,0.536118 -3.38072,0.779631 -6.82546,0.584771 -10.27716,0.561538 -0.7934,-0.0014 -1.5868,-0.0028 -2.40424,-0.0043 -2.52675,-0.0056 -5.05342,-0.01813 -7.58014,-0.03087 -1.71614,-0.005 -3.43229,-0.0096 -5.14844,-0.01367 C 100.40101,77.03782 96.200519,77.020566 92,77 c 0.28875,0.747656 0.5775,1.495312 0.875,2.265625 0.37125,0.984844 0.7425,1.969688 1.125,2.984375 0.37125,0.974531 0.7425,1.949062 1.125,2.953125 C 96,88 96,88 96,92 c 4.29,0 8.58,0 13,0 1.17404,3.414294 2.33946,6.831119 3.5,10.25 0.33387,0.96809 0.66773,1.93617 1.01172,2.93359 0.31582,0.93457 0.63164,1.86914 0.95703,2.83204 0.29326,0.85883 0.58652,1.71767 0.88867,2.60253 C 116,113 116,113 116,117 93.56,117 71.12,117 48,117 38,94 38,94 38,92 c 3.63,0 7.26,0 11,0 C 48.673142,91.215767 48.346284,90.431533 48.009521,89.623535 36.53991,62.077913 36.53991,62.077913 31.402344,48.636719 29.886799,44.706434 28.287337,40.817298 26.628906,36.945312 26,35 26,35 26,31 21.38,31 16.76,31 12,31 10.447264,27.390593 8.8975602,23.780102 7.3552246,20.16626 6.5728188,18.33663 5.7854649,16.509119 4.9980469,14.681641 4.2584473,12.94624 4.2584473,12.94624 3.5039063,11.175781 3.0483032,10.112708 2.5927002,9.0496338 2.123291,7.9543457 1.1049642,5.2760643 0.52080199,2.8056226 0,0 Z"
       fill="#fefdfc"
       transform="translate(174,638)"
       id="path5" /><path
       d="m 0,0 c 43.23,0 86.46,0 131,0 0,29.40112 0,29.40112 -9.03259,38.701782 -0.6602,0.546361 -1.32041,1.092722 -2.00061,1.65564 -0.74387,0.630915 -1.48774,1.261831 -2.25415,1.911865 -0.7508,0.63301 -1.5016,1.266021 -2.27515,1.918213 -1.48863,1.34407 -2.97111,2.694982 -4.44727,4.052734 -2.7171,2.492487 -5.46784,4.932501 -8.25805,7.34253 -3.314404,2.930971 -6.180866,6.110446 -9.048235,9.474075 -2.54956,2.942023 -5.290139,5.673806 -8.055039,8.411911 -0.567192,0.565778 -1.134385,1.131555 -1.718765,1.714478 C 82.129966,76.957886 80.346315,78.729001 78.5625,80.5 77.341563,81.715911 76.120858,82.932055 74.900391,84.148437 71.936679,87.102089 68.968273,90.050905 66,93 c 16.335,0.495 16.335,0.495 33,1 0,-4.95 0,-9.9 0,-15 9.57,0 19.14,0 29,0 0.26707,12.952811 -0.8593,24.88194 -2,38 -37.95,0 -75.9,0 -115,0 C 6.1204208,95.041894 6.1204208,95.041894 9.6992188,89.25 12.019803,86.980634 14.446135,85.000258 17,83 c 1.201638,-1.28056 2.370825,-2.59261 3.5,-3.9375 2.626938,-3.05868 5.296408,-6.071194 8,-9.0625 2.689834,-2.980627 5.363104,-5.972452 8,-9 C 43.09197,53.438177 49.864294,46.037012 56.640625,38.640625 59.161363,35.819402 61.577985,32.906418 64,30 53.77,29.67 43.54,29.34 33,29 c 0.495,2.475 0.495,2.475 1,5 0,3.3 0,6.6 0,10 C 24.1,44 14.2,44 4,44 3.0625,35.25 3.0625,35.25 2.7736816,32.512695 2.6949683,31.791787 2.6162549,31.070879 2.5351563,30.328125 2.456604,29.594971 2.3780518,28.861816 2.2971191,28.106445 1.990012,25.663515 1.990012,25.663515 1,22 0.67,14.74 0.34,7.48 0,0 Z"
       fill="#fefdfc"
       transform="translate(434,638)"
       id="path6" /><path
       d="m 0,0 c 43.56,0 87.12,0 132,0 -2.56554,25.655416 -2.56554,25.655416 -10.0625,32.5 -1.952,1.535191 -3.93149,3.036087 -5.9375,4.5 -1.81997,1.469972 -3.63258,2.949094 -5.4375,4.4375 -0.90621,0.730898 -1.81242,1.461797 -2.74609,2.214844 -3.56113,2.968431 -6.94284,6.10415 -10.335697,9.261474 C 93.39339,56.694906 89.119568,60.1969 84.78125,63.6875 81.759802,66.199715 78.87565,68.824074 76,71.5 71.403866,75.775266 66.672826,79.814786 61.765625,83.734375 58.103068,86.734775 54.563172,89.882224 51,93 c 16.335,0.495 16.335,0.495 33,1 0,-2.31 0,-4.62 0,-7 0.66,-2.64 1.32,-5.28 2,-8 9.57,0 19.14,0 29,0 -1.8306,12.814228 -5.14887,25.37357 -8,38 -38.28,0 -76.56,0 -116,0 1,-24 1,-24 6.0625,-30.0625 1.739502,-1.417236 1.739502,-1.417236 3.30078125,-2.394531 C 4.5760415,81.701858 8.0997694,78.268209 11.75,74.75 c 1.366769,-1.286986 2.735276,-2.572128 4.105469,-3.855469 0.684975,-0.643725 1.369951,-1.287451 2.075683,-1.950683 5.357143,-5.033464 10.720845,-10.059941 16.08545,-15.08545 1.333009,-1.248999 2.665687,-2.498354 3.998046,-3.748046 1.973215,-1.850429 3.947874,-3.699305 5.922852,-5.547852 0.578225,-0.542776 1.15645,-1.085552 1.752197,-1.644775 C 50.389641,38.523294 55.185825,34.279267 60,30 49.77,29.67 39.54,29.34 29,29 c -0.33,4.29 -0.66,8.58 -1,13 -0.495,0.99 -0.495,0.99 -1,2 -9.57,0 -19.14,0 -29,0 0.144375,-3.733125 0.28875,-7.46625 0.4375,-11.3125 0.043103,-1.1322 0.086206,-2.264399 0.1306152,-3.430908 C -1.0475358,19.496729 -0.51354376,9.7573314 0,0 Z"
       fill="#fefdfc"
       transform="translate(585,638)"
       id="path7" /><path
       d="m 0,0 c 32.34,0 64.68,0 98,0 -3.375,11.25 -3.375,11.25 -5.042969,15.570313 -0.351269,0.915234 -0.702539,1.830468 -1.064453,2.773437 -0.356426,0.917812 -0.712851,1.835625 -1.080078,2.78125 -0.368027,0.956484 -0.736055,1.912969 -1.115234,2.898437 C 88.801453,26.350222 87.901198,28.675296 87,31 c -3.63,0 -7.26,0 -11,0 0,20.13 0,40.26 0,61 2.97,0 5.94,0 9,0 -0.913081,2.480538 -1.830379,4.959387 -2.75,7.4375 -0.378984,1.03157 -0.378984,1.03157 -0.765625,2.08398 C 79.518164,106.80568 77.301036,111.82267 75,117 c -20.13,0 -40.26,0 -61,0 1.203966,-5.41785 2.296381,-10.27345 4.0625,-15.4375 0.512402,-1.514 0.512402,-1.514 1.035156,-3.058594 C 20,96 20,96 21,94 c 3.63,0 7.26,0 11,0 0,-4.29 0,-8.58 0,-13 -4.430882,-0.129746 -8.855088,-0.186123 -13.287354,-0.177002 -1.504452,-0.0069 -3.008953,-0.03332 -4.512695,-0.08008 C 9.2566455,80.597095 4.7857037,80.660369 0,82 c -3.3484383,3.270142 -5.2584368,6.680656 -7,11 2.64,0.33 5.28,0.66 8,1 -0.82480488,4.686391 -2.1551767,9.19297 -3.5,13.75 -0.2255859,0.77988 -0.4511719,1.55977 -0.6835938,2.36328 C -4.8778864,115.87789 -4.8778864,115.87789 -6,117 c -1.4428979,0.093 -2.8902979,0.11747 -4.336182,0.11353 -1.381318,-1.2e-4 -1.381318,-1.2e-4 -2.790542,-2.3e-4 -1.001033,-0.005 -2.002065,-0.0103 -3.033432,-0.0156 -1.529405,-0.002 -1.529405,-0.002 -3.089707,-0.004 -3.270908,-0.006 -6.541749,-0.0182 -9.812637,-0.0309 -2.211588,-0.005 -4.423176,-0.01 -6.634766,-0.0137 C -41.131534,117.03778 -46.565762,117.02102 -52,117 c 1.003906,-8.5 1.003906,-8.5 1.972656,-12.5 0.177246,-0.74121 0.354492,-1.48242 0.53711,-2.24609 0.182402,-0.74379 0.364804,-1.48758 0.552734,-2.25391 0.18627,-0.774727 0.372539,-1.549453 0.564453,-2.347656 C -47.919238,95.767292 -47.460175,93.883507 -47,92 c 0.962084,0.06139 0.962084,0.06139 1.943604,0.124023 4.002864,-0.02236 6.948992,-0.105087 9.981689,-2.895507 1.839438,-2.583523 3.438473,-5.224823 5.012207,-7.978516 1.275351,-2.09106 2.552802,-4.180841 3.832031,-6.269531 0.673697,-1.12229 1.347393,-2.24458 2.041504,-3.400879 3.518293,-5.808507 7.30458,-11.446098 11.051788,-17.108277 C -8.0014674,46.704483 -2.8902011,38.924483 2,31 c -2.97,0 -5.94,0 -9,0 1,-9 1,-9 7,-31 z"
       fill="#fefdfc"
       transform="translate(756,638)"
       id="path8" /><path
       d="m 0,0 c 25.74,0 51.48,0 78,0 3,23 3,23 3,31 -3.63,0 -7.26,0 -11,0 0.203632,1.334542 0.203632,1.334542 0.411377,2.696045 1.436062,9.420397 2.863233,18.842104 4.281494,28.265198 0.27871,1.850109 0.558484,3.700057 0.838379,5.549987 0.432665,2.870465 0.858507,5.74183 1.28125,8.61377 0.123508,0.81364 0.247017,1.62728 0.374268,2.465576 C 77.84343,83.113983 78.115192,87.428715 78,92 c 3.96,0 7.92,0 12,0 0.339312,2.666025 0.671572,5.33263 1,8 0.09539,0.74379 0.190781,1.48758 0.289062,2.25391 0.09023,0.74121 0.180469,1.48242 0.273438,2.24609 0.08379,0.67031 0.167578,1.34063 0.253906,2.03125 C 92.075242,110.01176 92,113.50988 92,117 c -22.11,0 -44.22,0 -67,0 -2.475,-12.375 -2.475,-12.375 -5,-25 3.63,0 7.26,0 11,0 C 30.808896,91.105068 30.617793,90.210137 30.420898,89.288086 28.410382,79.864546 26.411823,70.438538 24.424255,61.010132 24.042663,59.202139 23.659378,57.394504 23.275879,55.586914 22.697302,52.85109 22.12781,50.113591 21.5625,47.375 21.399111,46.608975 21.235723,45.842949 21.067383,45.053711 20.159012,40.588734 19.851506,36.526109 20,32 15.71,32 11.42,32 7,32 0,4.3197969 0,4.3197969 0,0 Z"
       fill="#fefdfc"
       transform="translate(336,638)"
       id="path9" /><path
       d="M 0,0 C 21.452675,-0.66500829 21.452675,-0.66500829 27.832031,4.4765625 31.923048,8.6729685 33,12.185419 33,18 30.82389,21.264165 29.742844,21.726554 26.050293,22.651367 22.388754,23.273977 18.765369,23.207497 15.0625,23.125 14.283262,23.116 13.504023,23.10695 12.701172,23.09766 10.800646,23.074337 8.9002799,23.038476 7,23 5.8256993,19.731857 4.6618874,16.460075 3.5,13.1875 3.1661328,12.25873 2.8322656,11.329961 2.4882813,10.373047 2.1724609,9.4803711 1.8566406,8.5876953 1.53125,7.6679687 1.0913574,6.4346985 1.0913574,6.4346985 0.64257812,5.1765137 0,3 0,3 0,0 Z"
       fill="#cc1c22"
       transform="translate(250,667)"
       id="path10" /><path
       d="m 0,0 c 0.33,0 0.66,0 1,0 0,10.56 0,21.12 0,32 -7.26,0 -14.52,0 -22,0 4.682273,-7.469341 9.504522,-14.839765 14.375,-22.1875 0.6311572,-0.9573706 1.2623145,-1.9147412 1.9125977,-2.9011231 0.5934521,-0.892434 1.1869042,-1.7848681 1.7983398,-2.7043457 C -2.3773291,3.3972583 -1.8405957,2.5874854 -1.2875977,1.7531738 -0.86269043,1.1746265 -0.4377832,0.5960791 0,0 Z"
       fill="#cd2027"
       transform="translate(787,672)"
       id="path12" /><path
       d="m 0,0 c 8.58,0 17.16,0 26,0 0,0.33 0,0.66 0,1 -8.25,0 -16.5,0 -25,0 0.011602,2.5871484 0.023203,5.1742969 0.035156,7.8398438 0.00779,2.4953602 0.013867,4.9907192 0.019775,7.4860842 0.00504,1.739264 0.011873,3.478523 0.020508,5.217773 0.012078,2.494558 0.017792,4.989061 0.022217,7.483643 0.00516,0.782295 0.010323,1.564589 0.01564,2.37059 C 1.1134923,33.265671 1.0619969,35.133292 1,37 c -0.495,0.495 -0.495,0.495 -1,1 -0.15714654,1.632568 -0.25085414,3.271353 -0.31640625,4.910156 -0.0418945,0.989356 -0.0837891,1.978711 -0.12695313,2.998047 C -0.50233398,47.46958 -0.50233398,47.46958 -0.5625,49.0625 -0.6056836,50.107285 -0.6488672,51.15207 -0.69335938,52.228516 -0.79981225,54.818869 -0.9018276,57.409322 -1,60 -1.66,60 -2.32,60 -3,60 -2.4453577,39.958473 -1.3965228,19.998749 0,0 Z"
       fill="#c84f3f"
       transform="translate(483,350)"
       id="path15" /><path
       d="M 0,0 C 0.33,0.99 0.66,1.98 1,3 0.01,3.495 0.01,3.495 -1,4 -1.12375,4.61875 -1.2475,5.2375 -1.375,5.875 -2.1982147,8.67393 -3.6018464,9.4528042 -6,11 -6.99,10.34 -7.98,9.68 -9,9 -6.03,6.03 -3.06,3.06 0,0 Z"
       fill="#be252a"
       transform="translate(521,709)"
       id="path18" /><path
       d="M 0,0 C 0.33,0 0.66,0 1,0 1.0976562,6.1523437 1.0976562,6.1523437 1,8 0.67,8.33 0.34,8.66 0,9 -0.103125,10.11375 -0.20625,11.2275 -0.3125,12.375 -1,16 -1,16 -3.0429688,17.726562 -4.0116992,18.356914 -4.0116992,18.356914 -5,19 -4.8066406,18.29875 -4.6132812,17.5975 -4.4140625,16.875 -2.874383,11.265079 -1.3858234,5.6498955 0,0 Z"
       fill="#c55a55"
       transform="translate(475,476)"
       id="path19" /><path
       d="M 0,0 C 0.99,0.33 1.98,0.66 3,1 2.34,2.98 1.68,4.96 1,7 -0.98,7.33 -2.96,7.66 -5,8 -3.35,5.36 -1.7,2.72 0,0 Z"
       fill="#be2729"
       transform="translate(771,696)"
       id="path21" /><path
       d="M 0,0 C 1,2 1,2 0.3984375,4.0585937 -2.9783261,11.907636 -2.9783261,11.907636 -8,14 -7.690625,13.4225 -7.38125,12.845 -7.0625,12.25 -6.0741664,10.157058 -5.4831387,8.2546473 -5,6 -4.34,6 -3.68,6 -3,6 -2.690625,5.195625 -2.38125,4.39125 -2.0625,3.5625 -1,1 -1,1 0,0 Z"
       fill="#d98a8c"
       transform="translate(142,463)"
       id="path22" /><path
       d="m 0,0 c 0.99,0.33 1.98,0.66 3,1 0,1.65 0,3.3 0,5 -1.98,0.99 -1.98,0.99 -4,2 0,0.99 0,1.98 0,3 -0.99,-0.33 -1.98,-0.66 -3,-1 0.99,-1.98 1.98,-3.96 3,-6 0.66,0 1.32,0 2,0 C 0.67,2.68 0.34,1.36 0,0 Z"
       fill="#d99797"
       transform="translate(69,599)"
       id="path23" /><path
       d="M 0,0 C 1.27875,-0.061875 2.5575,-0.12375 3.875,-0.1875 4.9539453,-0.239707 4.9539453,-0.239707 6.0546875,-0.29296875 6.6966406,-0.19628906 7.3385937,-0.09960938 8,0 8.66,0.99 9.32,1.98 10,3 9.67,3.99 9.34,4.98 9,6 6.03,4.35 3.06,2.7 0,1 0,0.67 0,0.34 0,0 Z"
       fill="#e83533"
       transform="translate(686,334)"
       id="path26" /><path
       d="M 0,0 C 0.66,0 1.32,0 2,0 1.3282919,3.8063457 0.27253436,7.3520682 -1,11 -1.66,10.67 -2.32,10.34 -3,10 -2.4140625,3.8476563 -2.4140625,3.8476563 -2,2 -1.34,1.67 -0.68,1.34 0,1 0,0.67 0,0.34 0,0 Z"
       fill="#cc6565"
       transform="translate(84,573)"
       id="path27" /><path
       d="M 0,0 C 1,2 1,2 0.4375,4.0625 -1,6 -1,6 -4.125,6.75 -5.548125,6.87375 -5.548125,6.87375 -7,7 -4.6666667,4.6666667 -2.3333333,2.3333333 0,0 Z"
       fill="#c02b2a"
       transform="translate(711,665)"
       id="path28" /><path
       d="M 0,0 C 1.9375,0.375 1.9375,0.375 4,1 4.33,1.66 4.66,2.32 5,3 4.67,3.66 4.34,4.32 4,5 1.4375,5.625 1.4375,5.625 -1,6 -0.67,4.02 -0.34,2.04 0,0 Z"
       fill="#da4343"
       transform="translate(218,313)"
       id="path29" /><path
       d="m 0,0 c 0,0.66 0,1.32 0,2 -3.6441774,2.4294516 -5.7124127,2.1617957 -10,2 0,-0.66 0,-1.32 0,-2 C -8.7090864,1.663762 -7.417239,1.3311075 -6.125,1 -5.4057031,0.814375 -4.6864062,0.62875 -3.9453125,0.4375 -2,0 -2,0 0,0 Z"
       fill="#e63331"
       transform="translate(388,561)"
       id="path30" /><path
       d="M 0,0 C 0.66,0.66 1.32,1.32 2,2 1.6112181,5.0130596 0.73543126,6.3968531 -1,9 -1.66,9 -2.32,9 -3,9 -2.01,6.03 -1.02,3.06 0,0 Z"
       fill="#b43735"
       transform="translate(837,739)"
       id="path31" /><path
       d="M 0,0 C 0.33,0 0.66,0 1,0 1,1.65 1,3.3 1,5 0.34,5 -0.32,5 -1,5 -1,6.32 -1,7.64 -1,9 -2.32,8.67 -3.64,8.34 -5,8 -4.1918535,6.6640235 -3.3783682,5.331275 -2.5625,4 -2.1100391,3.2575 -1.6575781,2.515 -1.1914062,1.75 -0.79824219,1.1725 -0.40507813,0.595 0,0 Z"
       fill="#f9dfd2"
       transform="translate(735,704)"
       id="path32" /><path
       d="M 0,0 C 2.64,0 5.28,0 8,0 6.68,0.33 5.36,0.66 4,1 4,1.66 4,2.32 4,3 3.34,3 2.68,3 2,3 2,3.66 2,4.32 2,5 1.34,5 0.68,5 0,5 0,3.35 0,1.7 0,0 Z"
       fill="#ca363b"
       transform="translate(64,616)"
       id="path33" /><path
       d="M 0,0 C 2.475,0.99 2.475,0.99 5,2 4.01,2.33 3.02,2.66 2,3 2,5.64 2,8.28 2,11 1.67,11 1.34,11 1,11 0.67,7.37 0.34,3.74 0,0 Z"
       fill="#c1493c"
       transform="translate(594,519)"
       id="path34" /><path
       d="M 0,0 C 0.33,0.99 0.66,1.98 1,3 1.66,3.33 2.32,3.66 3,4 1.68,5.32 0.36,6.64 -1,8 -1.66,7.67 -2.32,7.34 -3,7 -2.01,4.69 -1.02,2.38 0,0 Z"
       fill="#fcd0c4"
       transform="translate(231,452)"
       id="path35" /><path
       d="M 0,0 C 0.33,0 0.66,0 1,0 1,1.65 1,3.3 1,5 1.66,5 2.32,5 3,5 3,5.99 3,6.98 3,8 1.68,8 0.36,8 -1,8 -0.67,5.36 -0.34,2.72 0,0 Z"
       fill="#fbd8ce"
       transform="translate(705,747)"
       id="path36" /><path
       d="M 0,0 C 0.66,0 1.32,0 2,0 2.33,0.99 2.66,1.98 3,3 1.68,4.32 0.36,5.64 -1,7 -1,6.34 -1,5.68 -1,5 -1.66,4.67 -2.32,4.34 -3,4 -1.625,2 -1.625,2 0,0 Z"
       fill="#d11c28"
       transform="translate(452,714)"
       id="path37" /><path
       d="M 0,0 C 0,3.9316911 -1.3941961,5.1642723 -4,8 -4.66,8 -5.32,8 -6,8 -4.5574634,4.6340813 -2.6673527,2.4895292 0,0 Z"
       fill="#bc2226"
       transform="translate(529,701)"
       id="path38" /><path
       d="M 0,0 C 0.33,0.66 0.66,1.32 1,2 1.66,2.33 2.32,2.66 3,3 2.01,3.33 1.02,3.66 0,4 -0.33,4.66 -0.66,5.32 -1,6 -2.32,5.67 -3.64,5.34 -5,5 -3.35,3.35 -1.7,1.7 0,0 Z"
       fill="#bd433f"
       transform="translate(537,692)"
       id="path39" /><path
       d="M 0,0 C 4.455,0.99 4.455,0.99 9,2 9,2.99 9,3.98 9,5 4.8919823,3.8132393 3.1055167,3.1055167 0,0 Z"
       fill="#dd3a36"
       transform="translate(611,379)"
       id="path40" /><path
       d="M 0,0 C 0.99,0 1.98,0 3,0 1.25,5.75 1.25,5.75 -1,8 -1.33,6.68 -1.66,5.36 -2,4 -1.34,4 -0.68,4 0,4 0,2.68 0,1.36 0,0 Z"
       fill="#f12529"
       transform="translate(266,317)"
       id="path41" /><path
       d="M 0,0 C 0.99,0.33 1.98,0.66 3,1 3.33,3.64 3.66,6.28 4,9 2,6 2,6 2,4 1.34,3.67 0.68,3.34 0,3 0,2.01 0,1.02 0,0 Z"
       fill="#fef3f4"
       transform="translate(810,315)"
       id="path42" /><path
       d="M 0,0 C 0.33,0.66 0.66,1.32 1,2 0.67,2.99 0.34,3.98 0,5 -3.5625,6.1875 -3.5625,6.1875 -7,7 -4.6666667,4.6666667 -2.3333333,2.3333333 0,0 Z"
       fill="#bf3333"
       transform="translate(674,697)"
       id="path44" /><path
       d="M 0,0 C 0.99,0.33 1.98,0.66 3,1 3,1.66 3,2.32 3,3 2.34,3 1.68,3 1,3 1,3.66 1,4.32 1,5 -0.32,4.34 -1.64,3.68 -3,3 -2.01,2.01 -1.02,1.02 0,0 Z"
       fill="#fcf7ef"
       transform="translate(485,683)"
       id="path45" /><path
       d="M 0,0 C 1.32,0.33 2.64,0.66 4,1 3.34,2.98 2.68,4.96 2,7 0,5 0,5 -0.125,2.375 -0.08375,1.59125 -0.0425,0.8075 0,0 Z"
       fill="#df4e57"
       transform="translate(960,618)"
       id="path46" /><path
       d="M 0,0 C 0.33,0.99 0.66,1.98 1,3 1.99,3.33 2.98,3.66 4,4 3.67,4.66 3.34,5.32 3,6 2.67,5.67 2.34,5.34 2,5 1.67,5.66 1.34,6.32 1,7 0.34,7 -0.32,7 -1,7 -0.67,4.69 -0.34,2.38 0,0 Z"
       fill="#f86e77"
       transform="translate(867,427)"
       id="path47" /><path
       d="M 0,0 C 0.66,0 1.32,0 2,0 2,0.66 2,1.32 2,2 1.34,2 0.68,2 0,2 0,1.34 0,0.68 0,0 Z"
       fill="#fefdff"
       transform="translate(235,277)"
       id="path48" /><path
       d="M 0,0 C 0.66,0 1.32,0 2,0 1.67,0.66 1.34,1.32 1,2 0.67,1.34 0.34,0.68 0,0 Z"
       fill="#fdfdfc"
       transform="translate(107,524)"
       id="path49" /><path
       d="M 0,0 C 2,1 2,1 2,1 Z"
       fill="#fffdff"
       transform="translate(131,754)"
       id="path50" /><path
       d=""
       fill="#fcfffe"
       id="path51" /><path
       d=""
       fill="#fffefd"
       id="path52" /><path
       d=""
       fill="#fbffff"
       id="path53" /><path
       d=""
       fill="#fffffb"
       id="path54" /><path
       d=""
       fill="#fcfeff"
       id="path55" /><path
       d=""
       fill="#fbfdf4"
       id="path56" /><path
       d=""
       fill="#fcfbfe"
       id="path57" /><path
       d=""
       fill="#fbfffd"
       id="path58" /><path
       d=""
       fill="#fefefc"
       id="path59" /><path
       d=""
       fill="#fff9fe"
       id="path60" /><path
       d="M 0,0 C 2,1 2,1 2,1 Z"
       fill="#fcfffc"
       transform="translate(163,417)"
       id="path61" /><path
       d=""
       fill="#fbfcfd"
       id="path62" /><path
       d=""
       fill="#fbfefe"
       id="path63" /><path
       d=""
       fill="#fdfeff"
       id="path64" /><path
       d=""
       fill="#fffeff"
       id="path65" /><path
       d=""
       fill="#ffffec"
       id="path66" /><path
       d=""
       fill="#f7fffb"
       id="path67" /><path
       d=""
       fill="#fffdfe"
       id="path68" /><path
       d=""
       fill="#f9fffd"
       id="path69" /><path
       d=""
       fill="#f9f7ff"
       id="path70" /><path
       d=""
       fill="#fffbfd"
       id="path71" /><path
       d=""
       fill="#fffdfe"
       id="path72" /><path
       d=""
       fill="#faffff"
       id="path73" /><path
       d=""
       fill="#fefffa"
       id="path74" /><path
       d=""
       fill="#fffcea"
       id="path75" /><path
       d=""
       fill="#ffffff"
       id="path76" /><path
       d=""
       fill="#fefffd"
       id="path77" /><path
       d=""
       fill="#fffaff"
       id="path78" /><path
       d=""
       fill="#fcffff"
       id="path79" /><path
       d=""
       fill="#feffff"
       id="path80" /><path
       d=""
       fill="#fcffff"
       id="path81" /><path
       d=""
       fill="#feffff"
       id="path82" /><path
       d=""
       fill="#f0fff9"
       id="path83" /><path
       d=""
       fill="#fffdff"
       id="path84" /></g></svg>
