<?xml version="1.0" encoding="UTF-8" standalone="no"?>
<svg
   viewBox="0 0 24 24"
   width="24pt"
   height="24pt"
   version="1.1"
   id="svg134"
   xml:space="preserve"
   xmlns="http://www.w3.org/2000/svg"
   xmlns:svg="http://www.w3.org/2000/svg"><defs
     id="defs138" /><g
     transform="matrix(6.7567003e-4,0,0,-6.7567003e-4,3.2341377,12.727302)"
     fill="#000000"
     stroke="none"
     id="g352"
     style="fill:#ffffff"><path
       d="m 19112,6109 c -59,-17 -72,-54 -72,-209 0,-118 -20,-284 -160,-1330 -88,-657 -163,-1207 -168,-1222 -7,-28 -21,-18 -1222,838 -668,476 -1221,868 -1228,871 -19,8 -190,-78 -242,-122 -117,-98 -132,-177 -69,-355 22,-62 40,-239 64,-630 33,-537 105,-1060 164,-1185 55,-117 155,-224 251,-269 36,-17 64,-21 135,-20 50,0 99,5 110,11 17,9 25,37 48,177 l 27,166 -29,53 c -41,73 -120,322 -131,415 -12,90 -54,912 -47,918 9,10 469,-319 952,-681 525,-393 668,-496 840,-605 104,-67 338,-190 360,-190 7,0 32,-17 56,-39 50,-43 100,-70 178,-96 135,-44 267,30 345,194 l 31,66 3,1565 c 2,1430 1,1569 -14,1608 -27,72 -92,97 -182,71 z"
       id="path302"
       style="fill:#ffffff" /><path
       d="m 11463,6066 c -92,-30 -167,-99 -211,-195 -23,-47 -27,-70 -27,-146 0,-108 26,-174 96,-244 70,-70 136,-96 244,-96 76,0 99,4 147,27 76,35 142,98 175,167 24,49 28,68 28,146 0,78 -4,98 -28,146 -33,68 -118,151 -184,180 -60,27 -181,34 -240,15 z"
       id="path304"
       style="fill:#ffffff" /><path
       d="m 2747,4596 c -488,-766 -894,-1401 -901,-1412 -13,-17 -18,-14 -87,48 -197,176 -548,542 -680,708 -36,45 -321,503 -396,635 l -39,70 -124,3 c -115,2 -127,1 -176,-23 -65,-32 -119,-91 -135,-147 -40,-147 105,-414 447,-823 314,-375 1105,-1204 1191,-1249 49,-25 129,-21 191,10 109,54 160,135 354,564 39,85 87,180 108,210 203,302 468,778 546,980 36,92 149,304 397,740 192,338 356,658 377,738 24,93 -13,175 -136,294 l -49,47 z"
       id="path306"
       style="fill:#ffffff" /><path
       d="m 24635,5795 c -261,-72 -446,-314 -447,-585 0,-116 13,-170 64,-279 70,-148 214,-267 383,-317 94,-27 239,-24 340,9 148,49 275,156 347,293 54,104 72,173 72,289 0,66 -6,120 -18,160 -61,208 -232,378 -432,430 -72,19 -240,18 -309,0 z m 280,-90 c 180,-47 324,-190 371,-370 22,-82 18,-219 -10,-296 -46,-131 -140,-239 -260,-298 -78,-38 -133,-50 -226,-51 -386,0 -632,417 -449,761 62,115 193,219 320,253 72,19 181,20 254,1 z"
       id="path308"
       style="fill:#ffffff" /><path
       d="m 24530,5191 v -331 h 45 45 v 140 140 h 68 c 67,0 69,-1 109,-42 23,-24 66,-86 96,-138 l 55,-95 56,-3 c 31,-2 56,-1 56,2 0,2 -16,33 -36,68 -43,76 -107,163 -148,201 l -30,27 h 25 c 34,0 88,37 116,79 60,89 32,207 -61,254 -33,17 -64,21 -217,25 l -179,5 z m 335,225 c 77,-33 74,-130 -6,-171 -20,-11 -63,-17 -132,-18 l -102,-2 -3,103 -3,102 h 106 c 68,0 118,-5 140,-14 z"
       id="path310"
       style="fill:#ffffff" /><path
       d="m 21985,5239 c -605,-57 -1406,-429 -1823,-847 -170,-170 -276,-322 -330,-475 -34,-96 -35,-260 -3,-382 28,-107 106,-261 185,-365 131,-174 372,-353 566,-421 36,-12 79,-35 95,-50 27,-25 49,-31 210,-58 279,-46 398,-54 685,-48 380,9 579,42 890,146 259,87 576,212 735,291 431,213 716,505 795,814 24,95 27,252 6,341 -57,241 -274,479 -622,681 -221,128 -433,209 -691,264 -81,18 -185,43 -232,57 -224,64 -273,70 -466,52 z m 420,-544 c 172,-45 209,-63 225,-111 17,-52 65,-101 129,-134 l 57,-28 58,43 c 86,65 129,69 228,19 103,-52 259,-253 299,-385 80,-264 -116,-492 -578,-673 -253,-98 -721,-222 -1008,-265 -333,-51 -696,-34 -947,45 -96,30 -239,123 -329,213 -77,77 -164,205 -180,265 -15,56 1,125 49,207 50,86 306,342 432,432 212,151 596,305 927,373 268,54 425,54 638,-1 z"
       id="path312"
       style="fill:#ffffff" /><path
       d="m 4737,5218 c -20,-5 -58,-29 -83,-52 -45,-40 -47,-45 -144,-333 -126,-370 -297,-787 -431,-1054 -53,-105 -80,-146 -117,-180 -26,-24 -56,-48 -65,-54 -10,-6 -44,-86 -82,-193 -36,-101 -124,-312 -196,-470 -124,-273 -130,-289 -126,-338 14,-143 154,-274 294,-274 141,0 264,168 404,550 35,96 79,206 99,245 l 35,70 724,3 723,2 362,-357 c 198,-197 457,-452 574,-568 l 214,-210 -4,235 -4,235 -89,125 c -49,69 -260,366 -470,660 -548,769 -946,1354 -1204,1767 -82,131 -83,133 -149,165 -57,28 -79,33 -147,35 -44,1 -97,-3 -118,-9 z m 458,-1217 c 152,-211 279,-389 281,-395 3,-8 -8,-10 -33,-8 -21,1 -215,18 -431,36 -216,19 -396,36 -399,39 -3,4 61,168 142,367 82,198 151,357 156,353 4,-4 132,-181 284,-392 z"
       id="path314"
       style="fill:#ffffff" /><path
       d="m 13725,5220 c -98,-14 -164,-64 -194,-144 -10,-28 -58,-165 -105,-305 -101,-297 -262,-693 -386,-946 -98,-201 -114,-225 -178,-266 l -45,-29 -73,-202 c -40,-112 -127,-322 -193,-466 -139,-302 -142,-317 -92,-425 33,-72 95,-129 172,-158 69,-27 117,-24 180,9 109,57 201,211 325,547 36,99 77,201 90,226 43,87 -31,79 763,79 h 707 l 579,-570 580,-570 3,158 c 2,88 -2,194 -9,241 l -12,85 -195,275 c -108,152 -252,355 -322,451 -466,647 -960,1371 -1210,1773 -107,172 -127,192 -220,221 -64,20 -108,25 -165,16 z m 418,-1245 c 236,-326 272,-380 253,-383 -21,-3 -847,66 -852,71 -3,2 181,454 280,691 16,38 17,39 30,20 8,-10 138,-190 289,-399 z"
       id="path316"
       style="fill:#ffffff" /><path
       d="m 8167,5084 c -231,-42 -375,-166 -422,-366 -21,-91 -19,-155 15,-363 29,-182 30,-193 30,-553 0,-266 4,-393 14,-462 9,-60 11,-97 5,-101 -11,-7 -376,-126 -761,-250 -142,-45 -258,-86 -258,-89 0,-14 250,-172 310,-196 141,-58 219,-54 548,25 136,32 205,44 208,37 9,-25 107,-449 124,-541 38,-195 108,-391 189,-530 47,-82 141,-215 151,-215 15,0 141,143 161,182 45,88 44,100 -31,682 -38,297 -72,555 -75,572 -5,30 -4,32 32,36 21,3 94,27 163,53 682,262 915,370 1256,587 82,52 187,114 233,139 152,80 476,317 597,437 83,81 144,170 174,250 18,46 21,72 18,138 -4,71 -10,92 -48,168 -48,97 -42,94 -185,131 -122,33 -281,64 -660,130 l -320,56 -595,30 c -661,32 -760,34 -873,13 z m 1256,-588 c 341,-47 621,-87 623,-89 6,-6 -142,-144 -239,-223 -110,-88 -383,-269 -488,-322 -46,-23 -142,-66 -214,-96 -71,-29 -271,-115 -443,-190 -172,-75 -315,-136 -317,-136 -3,0 -5,245 -5,544 v 544 l 23,5 c 35,9 255,36 322,40 33,2 74,4 90,5 17,1 308,-36 648,-82 z"
       id="path318"
       style="fill:#ffffff" /><path
       d="m 11234,4916 c -3,-7 -3,-346 -1,-752 3,-722 4,-744 29,-949 14,-115 29,-259 33,-320 15,-252 68,-544 155,-866 56,-205 56,-205 162,-260 62,-31 122,-37 191,-18 77,21 85,70 52,320 -61,483 -60,445 -60,1564 0,1140 3,1079 -64,1172 -70,97 -145,123 -353,123 -108,0 -140,-3 -144,-14 z"
       id="path320"
       style="fill:#ffffff" /><path
       d="M 13790,596 V 190 h 60 60 v 154 154 l 128,4 c 144,5 193,21 249,79 88,93 88,245 0,338 -62,65 -100,75 -309,79 l -188,4 z m 380,269 c 39,-20 60,-63 60,-120 0,-38 -6,-52 -34,-83 l -34,-37 -126,-3 -126,-4 v 131 131 h 115 c 84,0 124,-4 145,-15 z"
       id="path322"
       style="fill:#ffffff" /><path
       d="m 14621,978 c -5,-13 -70,-192 -146,-398 -75,-206 -139,-379 -142,-383 -3,-4 26,-7 63,-5 l 67,3 30,88 29,87 h 156 157 l 30,-87 30,-88 63,-3 c 34,-2 62,1 62,6 0,7 -251,699 -281,775 -10,24 -16,27 -60,27 -42,0 -51,-3 -58,-22 z m 122,-330 55,-168 h -120 c -92,0 -119,3 -115,13 2,6 28,85 58,174 29,90 56,159 60,155 4,-4 31,-82 62,-174 z"
       id="path324"
       style="fill:#ffffff" /><path
       d="m 15278,986 c -52,-19 -83,-40 -111,-78 -85,-115 -50,-275 75,-339 21,-11 84,-26 140,-35 111,-16 129,-23 152,-56 41,-58 2,-147 -72,-168 -80,-22 -203,1 -272,50 l -32,23 -39,-44 c -21,-24 -38,-46 -39,-49 0,-10 71,-53 132,-78 55,-23 76,-27 173,-26 119,0 156,11 214,60 49,41 71,93 71,166 0,78 -24,134 -76,176 -39,32 -116,62 -160,62 -50,0 -126,23 -154,46 -57,49 -44,136 27,169 51,24 151,16 223,-18 30,-14 55,-25 55,-24 1,1 16,23 34,49 l 32,48 -33,20 c -88,54 -255,76 -340,46 z"
       id="path326"
       style="fill:#ffffff" /><path
       d="m 15760,945 v -55 h 115 115 V 540 190 h 60 60 v 350 350 h 110 110 v 55 55 h -285 -285 z"
       id="path328"
       style="fill:#ffffff" /><path
       d="m 16430,604 c -80,-218 -146,-400 -148,-405 -2,-5 26,-9 61,-9 h 65 l 30,88 29,87 h 158 158 l 30,-87 29,-88 h 65 c 48,0 64,3 60,13 -2,6 -69,189 -148,405 l -144,392 h -50 -50 z m 255,55 c 30,-90 55,-167 55,-171 0,-4 -52,-8 -115,-8 -63,0 -115,3 -115,7 0,16 112,344 116,340 3,-2 29,-78 59,-168 z"
       id="path330"
       style="fill:#ffffff" /><path
       d="M 17700,590 V 180 h 45 45 v 410 410 h -45 -45 z"
       id="path332"
       style="fill:#ffffff" /><path
       d="M 18600,595 V 190 h 60 60 v 154 154 l 128,4 c 100,3 136,8 172,25 93,42 143,121 144,223 0,121 -75,214 -195,239 -28,6 -122,11 -209,11 h -160 z m 387,265 c 36,-21 50,-43 53,-80 6,-64 -1,-83 -39,-121 l -39,-39 h -121 -121 v 130 130 h 118 c 98,0 122,-3 149,-20 z"
       id="path334"
       style="fill:#ffffff" /><path
       d="M 19300,595 V 190 h 60 60 v 405 405 h -60 -60 z"
       id="path336"
       style="fill:#ffffff" /><path
       d="m 19600,945 v -55 h 175 c 96,0 175,-2 175,-5 0,-2 -83,-139 -185,-303 -170,-276 -185,-303 -185,-346 v -46 h 260 260 v 55 55 h -181 c -160,0 -180,2 -175,16 3,8 85,143 181,300 165,268 175,287 175,334 v 50 h -250 -250 z"
       id="path338"
       style="fill:#ffffff" /><path
       d="m 20240,945 v -55 l 175,-2 174,-3 -184,-299 c -173,-280 -185,-303 -185,-348 v -48 h 260 260 v 55 55 l -185,2 -184,3 184,300 c 172,279 185,303 185,348 v 47 h -250 -250 z"
       id="path340"
       style="fill:#ffffff" /><path
       d="m 21110,997 c 0,-3 -62,-175 -139,-383 -76,-209 -141,-389 -145,-401 -7,-22 -5,-23 56,-23 h 63 l 30,88 30,87 157,3 156,2 26,-77 c 36,-107 33,-105 103,-101 l 60,3 -147,400 -146,400 -52,3 c -29,2 -52,1 -52,-1 z m 166,-499 c 5,-17 -5,-18 -115,-18 h -120 l 55,163 c 30,89 57,169 60,177 5,12 64,-146 120,-322 z"
       id="path342"
       style="fill:#ffffff" /><path
       d="M 22240,590 V 180 h 40 40 v 410 410 h -40 -40 z"
       id="path344"
       style="fill:#ffffff" /><path
       d="M 23120,596 V 190 h 203 c 190,1 205,2 247,23 56,29 106,100 116,165 13,87 -26,176 -92,210 l -35,18 38,24 c 55,36 77,81 77,156 0,84 -37,146 -109,183 -48,24 -60,26 -247,29 l -198,4 z m 364,280 c 46,-19 66,-52 66,-106 -1,-87 -43,-112 -197,-118 l -113,-5 v 122 121 h 105 c 68,0 118,-5 139,-14 z m 33,-352 c 15,-11 34,-39 42,-61 13,-35 13,-46 0,-78 -25,-68 -53,-80 -195,-83 l -124,-4 v 127 127 l 124,-3 c 107,-4 128,-7 153,-25 z"
       id="path346"
       style="fill:#ffffff" /><path
       d="m 24065,988 c -3,-7 -70,-190 -149,-406 l -143,-393 65,3 65,3 30,88 31,87 155,-2 156,-3 30,-85 30,-85 63,-3 c 34,-2 62,1 62,6 0,7 -251,699 -281,775 -10,24 -16,27 -61,27 -30,0 -50,-5 -53,-12 z m 118,-340 55,-168 h -120 c -92,0 -119,3 -115,13 2,6 28,85 58,174 29,90 56,159 60,155 4,-4 31,-82 62,-174 z"
       id="path348"
       style="fill:#ffffff" /><path
       d="M 24600,596 V 190 h 60 60 v 170 170 h 81 80 l 81,-170 81,-170 h 74 74 l -17,33 c -9,17 -50,94 -90,170 -41,75 -74,141 -74,146 0,5 20,21 45,35 114,67 139,240 49,344 -57,67 -92,75 -311,80 l -193,4 z m 408,261 c 39,-37 47,-83 26,-137 -25,-63 -69,-79 -206,-80 h -108 v 126 126 l 129,-4 c 127,-3 130,-4 159,-31 z"
       id="path350"
       style="fill:#ffffff" /></g></svg>
