<svg xmlns="http://www.w3.org/2000/svg" width="24" height="24"><path fill="#3c3139" fill-rule="evenodd" d="M11.76 4.86c-.09.22.17.49.39.4q.16-.07.13-.28c-.04-.29-.42-.37-.52-.12m-.82.09c-.1.23.04.47.23.43q.18-.04.21-.3c.03-.23 0-.28-.18-.28-.11 0-.23.07-.26.15m1.73-.08c-.13.12-.07.44.1.5.19.07.44-.22.36-.43-.05-.14-.35-.2-.46-.07m-2.57.28c-.11.13-.1.19.03.32.21.21.5.1.45-.2-.04-.27-.3-.34-.48-.12m3.34 0c-.08.2.02.45.2.45.07 0 .2-.07.26-.15.1-.12.1-.18 0-.3-.07-.08-.19-.15-.27-.15q-.12.02-.2.15m-4.02.25c-.2.11-.09.45.14.45q.2 0 .23-.21c.03-.23-.17-.37-.37-.24m2 .03c-.17.2-.03.49.23.45q.22-.02.21-.28c0-.28-.26-.38-.44-.17m.8.02c-.19.21-.06.47.21.43.26-.03.37-.36.16-.5-.18-.11-.24-.1-.38.07m2.1 0c-.25.3.1.6.38.33q.11-.1.01-.3-.16-.33-.39-.03m-3.66.2c-.1.23.03.45.25.45.23 0 .35-.28.2-.46s-.38-.18-.45.01m2.26 0c-.11.13-.1.19.03.32.21.21.5.1.45-.2-.04-.27-.3-.34-.48-.12m-3.03.18c-.08.2.08.4.3.35.26-.05.24-.42-.03-.46-.12-.02-.24.03-.27.1m3.77.03c-.04.09-.02.21.04.27.16.16.47.05.47-.17 0-.26-.42-.34-.51-.1m-4.5.3c-.04.09-.02.21.04.27.15.15.44.01.4-.2s-.36-.28-.44-.07m2.18-.06c-.19.11-.11.45.1.5q.16 0 .24-.14c.09-.21-.16-.47-.34-.36m3.12.06c-.04.09-.02.21.04.27.15.15.44.01.4-.2s-.36-.28-.44-.07m-4.04.1c-.16.2-.06.45.19.45s.34-.26.15-.45c-.19-.18-.19-.18-.34 0m2.9-.05c-.18.11-.08.45.15.45q.2 0 .23-.21c.03-.23-.17-.37-.37-.24m-3.63.23c-.07.17.02.37.16.37.18 0 .35-.2.3-.36-.07-.17-.4-.18-.46-.01m4.26.02c-.04.09-.02.21.04.27.15.15.44.01.4-.2s-.36-.28-.44-.07m-1.11.12c-.18.07-.16.4.03.47q.16.05.25 0c.23-.14-.03-.56-.28-.47m-2.52.33c-.2.11-.09.45.14.45q.2 0 .23-.21c.03-.23-.17-.37-.37-.24m3.1-.01c-.2.12-.1.46.14.46q.2 0 .2-.24-.02-.41-.33-.22m-3.82.2c0 .11.05.23.1.26q.12.07-.01.21c-.1.12-.1.18.03.3.14.14.17.14.32-.01.16-.16.16-.19 0-.35q-.14-.17-.05-.24c.16-.1.01-.36-.2-.36q-.18 0-.19.2m4.42.05c.03.14.01.28-.03.3-.14.1-.1.42.05.48.2.08.43-.2.28-.35-.09-.09-.08-.16.04-.3.19-.2.1-.38-.18-.38-.16 0-.2.05-.16.25m-3.68.5c-.08.2.02.45.2.45.07 0 .2-.07.26-.15.1-.12.1-.18 0-.3-.07-.08-.19-.15-.27-.15q-.12.02-.2.15m2.9 0c-.08.23.05.47.24.43q.18-.04.18-.28c0-.29-.32-.4-.41-.16m-1.37.23c-.1.1-.08.41.04.49.06.03.18 0 .27-.1.13-.12.13-.18.02-.3q-.2-.25-.33-.1m-1.97.3c-.11.12-.1.18.03.32.15.15.19.15.32 0 .17-.16.1-.48-.1-.48q-.12.02-.25.15m3.8 0c-.11.13-.1.19.03.33.16.15.18.15.33 0 .19-.18.12-.48-.1-.48-.07 0-.2.07-.26.15m-2.98.04c-.2.13-.1.46.16.5.27.03.4-.23.22-.44-.14-.17-.2-.18-.38-.06m2.18.07c-.11.12-.1.18.03.3.08.1.23.14.31.1.2-.07.2-.42 0-.5s-.2-.08-.34.1m-3.5.14c-.18.11-.08.45.15.45q.2 0 .23-.21c.03-.23-.17-.37-.37-.24m2 .04c-.15.18-.03.46.2.46.25 0 .35-.26.19-.45s-.24-.19-.39-.01m.8 0c-.19.22-.06.48.21.44.26-.03.37-.36.16-.5-.18-.11-.24-.1-.38.07m2.1 0c-.25.3.1.6.38.33q.11-.1.01-.3-.16-.33-.39-.03m-4.19.28c-.17.2-.03.49.23.45q.22-.02.21-.28c0-.28-.26-.38-.44-.17m3.4.02c-.18.2-.06.45.19.45.11 0 .23-.07.26-.15.06-.15-.11-.45-.26-.45q-.08.01-.2.15m-2.6.4c0 .12.06.25.13.28.22.07.37-.04.37-.3 0-.18-.05-.23-.25-.23s-.25.05-.25.24m.9-.1c-.17.2-.05.46.2.46.11 0 .23-.07.26-.15.06-.15-.11-.45-.26-.45q-.08.02-.2.15m.87-.08c-.04.03-.07.15-.07.25 0 .21.45.26.52.05.11-.28-.24-.52-.45-.3m-9.61 1.42c-.04.05.08.56.27 1.13l.33 1.03.35.03.36.03.32-1c.36-1.14.38-1.34.14-1.3-.18.04-.31.34-.59 1.32-.09.32-.19.56-.22.52a7 7 0 0 1-.32-.93q-.25-.87-.42-.9c-.09-.02-.19.01-.22.07m8.06.03c-.13.13-.16 1.16-.06 1.8l.07.38h.74c.66 0 .74-.02.71-.17-.02-.14-.15-.19-.56-.21-.5-.03-.52-.04-.52-.33 0-.28.01-.29.5-.29.44 0 .5-.03.48-.17s-.13-.18-.5-.16c-.47.01-.48 0-.48-.28s0-.29.56-.29c.47 0 .55-.03.52-.17s-.16-.19-.68-.2q-.64-.04-.78.09m-1.27.55c-.48.07-.55.2-.55.94 0 .62.02.69.2.69.16 0 .2-.08.22-.62.03-.6.04-.63.3-.66l.28-.03v.65c0 .6.02.66.2.66s.2-.07.2-.75c0-.63-.03-.76-.2-.85l-.27-.08zm5 .03-.4.05-.03 1.08c-.02 1-.01 1.08.15 1.05q.18-.04.21-.31c.03-.22.07-.27.22-.22.2.06.6-.1.72-.29s.09-1.01-.04-1.18c-.17-.2-.36-.25-.83-.18m1.5-.01c-.3.06-.3.06-.33.84-.03.72-.01.77.18.77.18 0 .2-.06.2-.64 0-.6.02-.65.23-.68q.2-.05.22-.17c0-.18-.11-.2-.5-.12m2.53-.01q-.5.08-.46.53c.03.23.15.33.61.49.38.14.25.3-.24.3q-.42 0-.37.12c.07.2.6.3.9.2.56-.22.41-.97-.2-1.04-.4-.05-.32-.23.1-.26q.36-.04.38-.16c0-.15-.31-.23-.72-.18m1.15.04c-.47.23-.38.74.16.93.41.14.4.29-.04.35-.46.06-.5.21-.07.32q.32.1.6-.04a.51.51 0 0 0-.24-.98q-.23 0-.24-.15t.35-.15c.4 0 .49-.24.13-.34-.3-.08-.39-.07-.65.06M5 11.8c0 .73.02.8.2.8s.2-.07.2-.8-.02-.8-.2-.8-.2.07-.2.8m.7-.66c-.15.19-.1.56.1.67.08.05.28.13.43.19.38.13.25.3-.24.3q-.4 0-.39.14c0 .18.56.26.93.14.54-.2.4-.92-.2-1-.38-.05-.32-.23.1-.26q.37-.03.37-.18c0-.2-.93-.2-1.1 0m1.34-.01c-.03.08-.04.43-.02.78.03.56.05.64.23.64s.2-.07.2-.75c0-.63-.03-.75-.18-.78q-.17-.02-.23.1m.75.05c-.2.23-.18 1.08.03 1.29.22.22.94.22 1.16 0 .2-.2.22-1.07.03-1.3s-1.04-.22-1.22 0m5.17.23.26.4-.26.34c-.31.4-.32.47-.06.47.1 0 .27-.11.36-.25s.2-.25.23-.25c.04 0 .14.11.21.25q.14.24.38.25c.23 0 .23-.01.1-.22-.43-.67-.43-.63-.2-.96.27-.37.27-.42.03-.42-.1 0-.26.1-.35.23l-.16.22-.16-.22a.6.6 0 0 0-.4-.23h-.24zm4.04-.25c-.18.22-.23.87-.08 1.14.15.28.57.43 1 .34s.35-.31-.14-.35c-.63-.05-.62-.28.01-.28h.51v-.34c0-.2-.07-.42-.16-.5-.2-.2-.97-.21-1.14-.01m-8.86.29c-.03.08-.04.3-.02.48.02.27.07.33.27.33.28 0 .43-.37.3-.73-.1-.25-.46-.3-.55-.08m6.66.36c0 .5 0 .51.28.48.25-.03.27-.06.27-.48s-.02-.45-.27-.48c-.27-.03-.28-.02-.28.48m2.5-.3c0 .16.06.2.3.2.25 0 .3-.04.28-.17q-.04-.18-.3-.21c-.23-.03-.28 0-.28.17"/></svg>