<svg xmlns="http://www.w3.org/2000/svg" width="24" height="24"><path fill="#fe1740" fill-rule="evenodd" d="M10.83 3.68q-1.48.53-2.16 1.99c-.33.72-.31 1.89.05 2.65a3.7 3.7 0 0 0 1.67 1.75c.5.25.67.28 1.61.28.96 0 1.1-.02 1.59-.28a3.4 3.4 0 0 0 .98-5.44 4 4 0 0 0-1.42-.96c-.37-.2-1.75-.2-2.32.01m1.4.26a2.86 2.86 0 0 0-2.1 2.98c.1 1.07.82 1.78 1.82 1.78 1.16 0 1.97-1.1 1.66-2.26-.12-.47-.5-.87-1.03-1.09-.21-.08-.38-.22-.38-.3 0-.26.3-.79.58-1.02.24-.2.25-.23.07-.22-.11 0-.39.06-.62.13m1.02 7.7c-.14.14-.25.34-.25.46 0 .1-.04.2-.1.2s-.1.13-.1.3.04.3.1.3c.05 0 .1.35.12.78.03.76.03.77.3.8l.28.03v-.8c0-.7.02-.8.2-.84q.19-.06.2-.27-.01-.21-.2-.27-.38-.12 0-.33.21-.12.18-.33c-.04-.32-.42-.34-.73-.03m-3.85.29v.42h-.54c-.62 0-.9.2-1.05.7q-.18.66.27 1.1.47.48 1.04.27.27-.1.28 0 .02.08.28.06l.27-.03.03-1.47.03-1.48h-.3c-.3 0-.31.02-.31.43m-6.4.44c0 .04.17.53.38 1.08l.38 1h.34c.34 0 .36-.01.67-.81.18-.45.35-.94.39-1.09.06-.25.05-.26-.26-.23s-.35.07-.56.68c-.17.5-.23.6-.28.45-.34-1-.41-1.1-.74-1.13-.17-.02-.32 0-.32.05m2.62.18c-1.01.85.08 2.42 1.27 1.8.4-.2.65-.73.57-1.17q-.15-.76-1.04-.86c-.41-.04-.52 0-.8.23m5.23-.13q-.54.3-.55.96c0 .37.06.5.34.78q.52.52 1.06.24.19-.1.25 0c.03.05.17.1.3.1.25 0 .25 0 .25-1.09v-1.09h-.72c-.4 0-.82.04-.93.1m3.56.14c-1.02.86.14 2.45 1.3 1.77.29-.17.59-.67.59-.98s-.3-.74-.6-.9a1.2 1.2 0 0 0-1.29.1m2.13-.1a7 7 0 0 0-.02 1.06l.03.94h.6l.03-.7q.04-1.14.53-.84c.14.07.19.24.21.82.03.7.04.72.3.75l.28.03v-.9c0-1.2-.09-1.3-1.15-1.29q-.75 0-.81.13m2.86-.02c-.14.07-.33.3-.44.5-.16.34-.17.44-.07.78.14.46.59.79 1.08.79.34 0 .93-.42.93-.66 0-.2-.5-.18-.72.03-.15.13-.23.14-.43.05q-.67-.31.5-.32H21v-.31c0-.44-.56-.99-1.02-.99-.18 0-.44.06-.58.13m-13.3.23c-.51.44-.33 1.24.28 1.24.48 0 .66-.81.21-.95-.22-.07-.25-.25-.07-.43.24-.24-.1-.12-.41.14m8.75.35q-.5.4 0 .77.23.2.18.36c-.15.38.4.05.56-.33.16-.4.07-.75-.24-.89-.2-.09-.29-.08-.5.1m-6.35.02c-.16.2-.1.66.1.79.44.28.95-.25.7-.72-.14-.25-.62-.29-.8-.07m2.51-.02c-.28.28-.02.88.38.88s.66-.6.38-.88c-.07-.07-.24-.12-.38-.12s-.31.05-.38.12"/></svg>