<svg xmlns="http://www.w3.org/2000/svg" width="24" height="24"><path fill="#fdbb30" fill-rule="evenodd" d="M11.53 2.1c-.5.2-.53.39-.34 2.42.1 1.13.23 1.93.3 2.03.17.2.85.2 1.01 0 .08-.1.2-.9.3-2.03.16-1.64.16-1.9.04-2.1-.24-.38-.82-.52-1.3-.32M6.3 5.13c-.46.36-.67 1.2-.37 1.46.08.06.9.46 1.83.9 1.33.6 1.75.76 1.92.7.28-.1.54-.67.41-.9-.05-.1-.77-.65-1.6-1.23-1.52-1.07-1.84-1.2-2.2-.93m9.2.95c-1.37.95-1.54 1.1-1.57 1.38-.04.36.23.74.53.76.19.01 3.05-1.27 3.53-1.58.4-.26.25-1.1-.28-1.51-.34-.28-.67-.14-2.21.95M7.8 10.5c-2.06.97-2 .93-2 1.35a1.2 1.2 0 0 0 .98 1.25c.14 0 2.95-1.99 3.19-2.25.19-.21.2-.3.11-.55a.7.7 0 0 0-.65-.5c-.1.01-.83.33-1.63.7m6.3-.5a.8.8 0 0 0-.2.53c0 .35-.1.26 2.37 1.96.9.62.92.64 1.23.5.18-.06.4-.26.51-.43.22-.35.25-.99.06-1.14a34 34 0 0 0-3.59-1.62c-.1 0-.27.09-.38.2m-2.54 1.43c-.16.12-.22.44-.36 2.03a10 10 0 0 0-.09 2.06c.29.54 1.13.65 1.59.2.24-.25.27-.34.24-.73l-.18-1.93c-.11-1.22-.17-1.52-.32-1.63a.8.8 0 0 0-.88 0"/></svg>