<svg xmlns="http://www.w3.org/2000/svg" width="24" height="24"><path fill="#668299" fill-rule="evenodd" d="M18 6.15c-.14.16-.05 1.46.12 1.78.13.26.5.18.6-.13.1-.43.09-1.55-.04-1.68-.17-.17-.53-.15-.68.03M15.98 7.3c-.11.06-.18.22-.18.4 0 .28.06.33.76.66.58.28.8.34.93.26.33-.21.23-.42-.46-.92-.72-.54-.78-.56-1.05-.4m3.79.35c-.51.36-.67.52-.67.7 0 .14.07.27.15.3.17.07 1.4-.42 1.61-.64.19-.18.18-.47-.02-.66-.23-.24-.34-.2-1.07.3m-16.73.42c.02.1.13.56.22 1.05l.18.87h.32c.35 0 .37-.04.5-.73q.14-.86.33.13c.12.59.13.6.44.6h.33l.18-.87.22-1.05c.04-.14 0-.18-.24-.18-.28 0-.3.03-.37.5q-.14.94-.3.22c-.11-.66-.15-.72-.45-.72-.27 0-.3.04-.42.63l-.15.62-.13-.62c-.12-.6-.14-.63-.42-.63-.23 0-.28.04-.24.18m4.46.87V10h.6V7.9h-.6zm6.6-.06c0 .98.09 1.15.57 1.1.34-.05.43-.34.13-.42-.16-.04-.2-.13-.2-.46 0-.34.03-.41.2-.41q.2 0 .2-.2t-.2-.2q-.18-.02-.2-.15-.01-.15-.25-.15c-.25 0-.25 0-.25.89m-7.9-.6q-.26.06-.28.35c-.03.25-.01.26.17.17.27-.15.64-.14.59 0-.03.08-.17.16-.32.2q-.57.15-.56.54c0 .34.19.43.88.44h.62v-.63q-.01-1.37-1.1-1.07m2.91.07q-.2.13-.21.05c0-.06-.13-.11-.3-.11h-.3V10h.3c.29 0 .3 0 .32-.62.02-.48.07-.63.18-.63s.16.15.18.63c.03.61.03.62.32.62s.3 0 .32-.62c.02-.48.07-.63.18-.63s.16.15.18.63c.03.59.04.62.28.62s.25 0 .22-.76c-.03-.64-.06-.79-.23-.9s-.25-.11-.5.02c-.15.08-.31.1-.34.06-.12-.17-.4-.2-.6-.06m2.27-.05q-.29.1-.28.35c0 .21.03.23.2.14.26-.14.63-.13.58.02-.03.07-.17.15-.32.2q-.56.14-.56.53c0 .34.19.43.88.43h.62v-.67c0-.52-.04-.72-.17-.84a1 1 0 0 0-.95-.16m1.32.84V10h.3c.29 0 .3-.02.3-.42 0-.5.08-.64.35-.7q.2-.04.23-.3c.04-.32-.17-.38-.42-.12-.15.14-.16.14-.16 0q0-.16-.3-.16h-.3zm3.82.4c-.66.31-.72.37-.72.65 0 .23.06.33.24.42.22.1.32.05.91-.37.72-.51.84-.67.65-.9-.17-.21-.26-.2-1.08.2m2.65-.28c-.04.03-.07.16-.07.29 0 .3 1.28 1.2 1.59 1.1.26-.1.38-.5.2-.73a5 5 0 0 0-1.53-.73.3.3 0 0 0-.2.07m-1.04.7c-.17.32-.26 1.62-.12 1.78.15.18.51.2.68.03.13-.13.15-1.25.03-1.68-.08-.3-.46-.39-.6-.13"/></svg>