<svg xmlns="http://www.w3.org/2000/svg" width="24" height="24"><path fill="#a0b232" fill-rule="evenodd" d="M3.8 3.25c0 .32-.02.35-.3.35q-.3 0-.3.15t.3.15q.64 0-.12.77c-.36.36-.39.43-.24.5q.18.06.42-.23l.23-.29v.58c0 .44.04.57.16.57s.15-.14.15-.7c0-.62.02-.7.26-.89.39-.3.9-.37 1.14-.16.45.41.1 1.18-.6 1.3-.45.08-.57.35-.15.35 1.08 0 1.74-1.23 1-1.87Q5.27 3.4 4.5 3.8c-.37.2-.51.16-.31-.05.04-.06.06-.27.04-.47-.04-.29-.1-.38-.24-.38-.15 0-.19.07-.19.35m5.43-.29q-.14.05-.03.3c.06.14.1.27.1.3s-.25.04-.55.04c-.42 0-.55.03-.55.15s.14.15.64.15c.6 0 .66.02.86.3l.21.3h-.54c-.9 0-1.38.59-.86 1.06.3.26 1.89.35 1.89.1 0-.13-.12-.16-.62-.16-.76 0-1.05-.07-1.12-.27-.15-.38.61-.63 1.3-.44q.82.23.25-.46c-.17-.2-.31-.4-.31-.44s.16-.13.35-.19c.4-.13.51-.47.13-.36-.7.2-.68.2-.8-.13-.1-.31-.13-.33-.35-.25m4.57.25c-.14.04-.4.07-.58.08-.26 0-.33.05-.3.19.02.13.11.16.36.14l.32-.03-.3.56c-.37.7-.38 1.08-.05 1.4.18.19.35.25.65.25q1.2 0 1.2-1.23v-.42l.26.47c.13.27.29.48.35.48.2 0 .2-.29-.04-.63-.13-.2-.3-.56-.37-.81q-.13-.46-.3-.46c-.14 0-.16.11-.16.77 0 .79-.11 1.16-.43 1.4-.2.15-.56.16-.82.03-.38-.2-.14-1.25.4-1.74.36-.33.26-.59-.19-.45m3.3 4.68v3.81h.35q.37.01.35-.17c0-.15.02-.15.18 0 .3.27.66.3.93.09l.24-.2.03-2.31.03-2.31-.3-.3c-.33-.34-.56-.37-.88-.15l-.22.16-.03-1.18-.03-1.18-.32-.03-.33-.03zm3.27-3.72c-.04.03-.07.2-.07.35 0 .25.03.28.35.28.33 0 .35-.02.35-.35s-.03-.35-.28-.35c-.16 0-.32.03-.35.07M8.23 6.35c-.25.17-.43.71-.43 1.28 0 .36.01.37.35.37.35 0 .35 0 .35-.44 0-.54.08-.76.26-.76.2 0 .34.33.34.83 0 .42-.03.46-.52.83-.71.53-.88.89-.88 1.9 0 .87.13 1.18.57 1.35.17.06.33.04.56-.07q.31-.18.35-.05c.02.06.2.11.39.11.3 0 .34-.03.28-.17-.05-.1-.1-1.22-.14-2.5-.06-2.27-.06-2.32-.3-2.57a.96.96 0 0 0-1.18-.1m3.08-.02q-.5.28-.5 1.09c-.01.55.16.93.7 1.59.65.76.87 1.6.56 2.02-.25.34-.51.16-.61-.42-.09-.48-.12-.52-.38-.52-.27 0-.28.02-.28.46 0 .77.4 1.24 1.05 1.24.38 0 .85-.48.96-.98q.24-1.09-.6-2.04c-.78-.9-1.02-1.58-.65-1.89.25-.2.48.01.54.52.05.41.07.44.38.47.32.03.32.03.32-.43 0-1.01-.7-1.54-1.49-1.11m3.26-.03c-.26.15-.47.7-.47 1.24 0 .45 0 .45.35.45h.35v-.47q0-.83.34-.7c.12.05.16.21.16.71 0 .62-.02.66-.29.8-.37.2-.89.8-.98 1.14-.12.43-.09 1.44.06 1.79a.7.7 0 0 0 1.01.38q.28-.14.35-.05c.03.06.21.1.4.1h.32l-.08-.42c-.04-.24-.08-1.28-.09-2.3 0-2-.08-2.46-.48-2.67a1.1 1.1 0 0 0-.95 0M3.1 8.48c0 2.35.07 2.87.4 3.14.3.24.81.23 1.14-.03.24-.19.27-.19.42-.05.37.38 1.03.32 1.31-.11.16-.24.18-.58.21-2.7l.03-2.43H5.9v2.3c0 1.25-.03 2.35-.06 2.44-.08.22-.41.2-.54-.03-.06-.12-.1-1.09-.1-2.45V6.3h-.7v2.26c0 1.36-.04 2.33-.1 2.45-.13.23-.46.25-.54.03-.03-.09-.06-1.19-.06-2.45V6.3h-.7zM20.3 9v2.7h.7V6.3h-.7zm-2.33-1.92c-.15.16-.17.43-.17 1.94 0 1.61.02 1.76.2 1.93.1.1.26.15.35.11.13-.05.15-.32.13-2.08-.03-1.74-.05-2.03-.19-2.06-.08-.01-.23.06-.32.16m-9.3 2.11c-.46.56-.44 2.01.04 2.01q.19-.01.3-.26c.12-.32.12-2.04 0-2.04-.05 0-.2.13-.34.3m6.31-.02c-.49.58-.49 1.93 0 2 .3.05.33-.09.3-1.28l-.03-1.04zM7.6 13.96c0 .87.04 1.33.1 1.29.05-.03.1-.37.1-.74q0-.92.32-.91c.04 0 .08.39.08.86q0 .83.1.79c.14-.09.13-1.95 0-1.95-.07 0-.2.05-.3.1-.18.1-.2.07-.2-.35 0-.25-.04-.45-.1-.45s-.1.52-.1 1.36m6.6 0v1.34l.28-.06c.46-.11.52-.22.52-.95 0-.69-.14-.99-.46-.99q-.15 0-.14-.35c0-.2-.04-.35-.1-.35s-.1.52-.1 1.35m-2.66-1.02c-.02.07-.03.63-.02 1.23.03 1.02.04 1.1.24 1.12q.37.07.47-.55c.05-.25.03-.33-.08-.33q-.13.02-.17.33-.03.31-.18.32t-.18-.47c-.03-.39 0-.5.17-.6q.39-.22 0-.31c-.3-.08-.23-.6.09-.65.12-.02.22-.08.22-.13 0-.14-.5-.1-.56.04m7.46.16c0 .1-.06.22-.12.25q-.15.06 0 .12.12.04.12.9c0 .5.04.84.1.84s.1-.35.1-.84q0-.86.13-.9.15-.06 0-.12-.12-.06-.13-.25c-.01-.19-.04-.19-.1-.19q-.1.02-.1.2m-15.88.32c-.21.21-.14.63.18.93.31.3.39.59.18.7-.06.05-.17 0-.24-.1-.17-.23-.32-.1-.18.13.14.22.4.27.6.12.24-.2.17-.64-.16-.95-.31-.3-.39-.59-.18-.7.06-.05.17 0 .24.1.17.23.32.1.18-.13-.14-.21-.45-.27-.62-.1m1.4.8c.02.74.06.93.2 1.02q.18.12.36 0c.14-.09.18-.28.2-1.03.02-.56-.01-.91-.07-.91s-.11.38-.13.88c-.02.7-.06.87-.18.87s-.16-.18-.18-.87c-.02-.5-.07-.88-.13-.88s-.09.35-.07.91m1.59-.72c-.17.3-.13.45.19.76.3.29.4.68.2.8q-.12.05-.25-.11-.12-.16-.2-.12c-.11.1.15.48.33.48.5 0 .58-.71.12-1.15-.16-.16-.3-.34-.3-.41 0-.22.23-.28.36-.09.17.23.32.1.18-.13-.16-.25-.5-.27-.63-.03m3.13.04c.03.12.06.57.06 1q0 .76.1.72c.06-.03.1-.48.1-1 0-.8-.02-.95-.16-.95q-.18-.01-.1.22m6.56-.03c-.17.32-.13 1.47.06 1.66.2.2.43.16.58-.07s-.01-.35-.19-.12c-.13.16-.16.17-.25.04-.2-.3-.12-.5.2-.5.3 0 .3-.01.3-.48 0-.26-.05-.53-.12-.6a.36.36 0 0 0-.58.07m1.57-.12c-.04.03-.07.5-.07 1.02 0 1.16.18 1.13.22-.04.04-1.03.21-1 .28.05.06 1 .24 1.1.28.14.03-.87-.09-1.24-.41-1.24-.13 0-.27.03-.3.07m2.85.05c-.15.15-.16 1.42-.02 1.69.12.21.4.25.58.07.07-.07.12-.42.12-.88 0-.77-.1-1-.4-1a.5.5 0 0 0-.28.12m-5.82.82c0 .62.03.76.15.76.13 0 .15-.12.13-.72q-.03-.7-.15-.76c-.1-.03-.13.16-.13.72m1.54-.6c-.1.26 0 .6.2.64.15.03.17-.02.14-.34-.03-.39-.24-.57-.34-.3m4.4-.01c-.03.08-.04.43-.02.78.02.49.07.64.18.64.12 0 .15-.15.15-.74q0-.75-.12-.79-.12-.02-.19.1"/></svg>