<?xml version="1.0" encoding="UTF-8" standalone="no"?>
<svg
   viewBox="0 0 24 24"
   width="24pt"
   height="24pt"
   version="1.1"
   id="svg1"
   sodipodi:docname="watchhouse.svg"
   xml:space="preserve"
   inkscape:version="1.3 (0e150ed6c4, 2023-07-21)"
   xmlns:inkscape="http://www.inkscape.org/namespaces/inkscape"
   xmlns:sodipodi="http://sodipodi.sourceforge.net/DTD/sodipodi-0.dtd"
   xmlns="http://www.w3.org/2000/svg"
   xmlns:svg="http://www.w3.org/2000/svg"><defs
     id="defs1" /><sodipodi:namedview
     id="namedview1"
     pagecolor="#ffffff"
     bordercolor="#000000"
     borderopacity="0.25"
     inkscape:showpageshadow="2"
     inkscape:pageopacity="0.0"
     inkscape:pagecheckerboard="0"
     inkscape:deskcolor="#d1d1d1"
     inkscape:document-units="pt"
     inkscape:zoom="16.329747"
     inkscape:cx="22.290608"
     inkscape:cy="15.156389"
     inkscape:window-width="1920"
     inkscape:window-height="974"
     inkscape:window-x="-11"
     inkscape:window-y="1609"
     inkscape:window-maximized="1"
     inkscape:current-layer="svg1" /><g
     id="g1"
     transform="matrix(0.00987524,0,0,0.00987524,-0.63955165,3.2637289)"
     style="fill:#000000"><path
       d="M 0,0 C 0.33,32.01 0.66,64.02 1,97 4.63,93.37 8.26,89.74 12,86 26.942895,74.542238 42.1899,69.745993 61,71 c 7.832647,1.182286 14.339812,3.74488 21,8 0,0.66 0,1.32 0,2 0.596836,0.246211 1.193672,0.492422 1.808594,0.746094 5.571685,3.188076 8.864375,10.534142 10.548324,16.545471 2.909442,12.253555 2.936323,24.645995 2.948042,37.166695 0.0037,3.18621 0.02056,6.37213 0.04076,9.55828 0.05502,9.04603 0.08627,18.09209 0.110581,27.13825 0.01584,5.56111 0.04599,11.122 0.08476,16.683 0.01166,2.11314 0.01758,4.22632 0.01768,6.33949 1.92e-4,2.93887 0.01839,5.87711 0.04062,8.81588 -0.0046,0.87267 -0.0092,1.74534 -0.01387,2.64446 -0.09348,4.30598 -0.09348,4.30598 1.735459,8.03456 6.99098,5.5286 19.31129,3.91366 27.54233,3.01532 3.12193,-0.57227 5.53177,-1.09977 7.84729,-3.34938 1.72644,-3.13055 1.66701,-5.42732 1.67038,-8.99811 0.007,-1.00227 0.007,-1.00227 0.0142,-2.02479 0.012,-2.23784 0.002,-4.47508 -0.007,-6.71293 0.004,-1.60497 0.009,-3.20995 0.0159,-4.81492 0.0137,-4.35967 0.008,-8.71912 -0.001,-13.0788 -0.008,-4.5638 -5.6e-4,-9.12759 0.004,-13.6914 0.005,-7.66762 -0.002,-15.33516 -0.016,-23.00277 -0.0163,-8.85798 -0.0111,-17.71576 0.005,-26.57375 0.0136,-7.60778 0.0155,-15.21551 0.008,-22.823307 -0.005,-4.542489 -0.005,-9.08488 0.005,-13.627362 0.009,-4.273953 0.003,-8.54764 -0.0147,-12.821564 -0.004,-1.566077 -0.003,-3.132176 0.004,-4.698244 0.008,-2.143377 -0.002,-4.28591 -0.017,-6.429234 -0.001,-1.197744 -0.002,-2.395489 -0.003,-3.629529 C 135.91953,47.272836 134.95825,44.674659 133,41 c -6.25847,-3.299922 -13.05053,-3.973373 -20,-5 0,-4.29 0,-8.58 0,-13 30.36,0 60.72,0 92,0 0,4.29 0,8.58 0,13 -1.64549,0.290039 -1.64549,0.290039 -3.32422,0.585937 -1.45448,0.262745 -2.9089,0.525781 -4.36328,0.789063 -0.72123,0.126328 -1.44246,0.252656 -2.18555,0.382812 C 189.35979,38.760326 189.35979,38.760326 184,41 c -1.36054,3.594847 -1.15948,7.35654 -1.20532,11.155273 -0.01,0.724072 -0.0201,1.448144 -0.0304,2.194157 -0.0313,2.336616 -0.0561,4.673249 -0.0807,7.009945 -0.0184,1.445481 -0.0372,2.890956 -0.0565,4.336426 -0.0684,5.351336 -0.12847,10.702775 -0.18958,16.054199 -0.14438,11.9625 -0.28875,23.925 -0.4375,36.25 28.38,0 56.76,0 86,0 -0.10312,-11.40562 -0.20625,-22.81125 -0.3125,-34.5625 -0.0373,-5.386146 -0.0373,-5.386146 -0.0754,-10.881104 -0.0366,-3.241165 -0.0366,-3.241165 -0.0771,-6.482284 -0.0161,-1.434642 -0.0264,-2.869356 -0.0321,-4.304077 -0.01,-2.183576 -0.0382,-4.366231 -0.0705,-6.549576 -0.0111,-1.227998 -0.0222,-2.455996 -0.0336,-3.721207 C 266.92442,47.336729 265.93952,44.707072 264,41 260.40738,38.604921 257.04285,38.1297 252.875,37.4375 245.12304,36.123037 245.12304,36.123037 244,35 c -0.0985,-1.831159 -0.12973,-3.666199 -0.125,-5.5 -0.003,-1.000313 -0.005,-2.000625 -0.008,-3.03125 C 244,24 244,24 245,23 c 2.79452,-0.100519 5.56436,-0.136159 8.35937,-0.129395 0.87637,-0.0018 1.75273,-0.0035 2.65564,-0.0053 2.91169,-0.0044 5.82331,-0.0015 8.73499,0.0019 2.014,-6.73e-4 4.02799,-0.0016 6.04199,-0.0029 4.2269,-0.0015 8.45377,6.78e-4 12.68067,0.0053 5.43115,0.0057 10.86224,0.0024 16.29339,-0.0036 4.16055,-0.0036 8.32108,-0.0025 12.48163,1.28e-4 2.00317,6.7e-4 4.00635,-1.59e-4 6.00952,-0.0025 2.79451,-0.0025 5.58893,0.0013 8.38342,0.0069 1.25461,-0.003 1.25461,-0.003 2.53455,-0.0061 5.71057,0.02127 5.71057,0.02127 6.82483,1.135529 0.0724,2.019642 0.0838,4.041671 0.0625,6.0625 -0.009,1.104727 -0.0181,2.209453 -0.0273,3.347656 -0.0174,1.281973 -0.0174,1.281973 -0.0352,2.589844 -1.66289,0.290039 -1.66289,0.290039 -3.35938,0.585937 -1.46359,0.262698 -2.92713,0.525737 -4.39062,0.789063 -0.72961,0.126328 -1.45922,0.252656 -2.21094,0.382812 C 320.7701,38.700396 320.7701,38.700396 316,41 c -3.25894,4.80265 -3.12526,10.866777 -3.13371,16.476166 -0.004,1.284052 -0.009,2.568104 -0.0129,3.891067 3.5e-4,1.41063 8.1e-4,2.821259 0.001,4.231888 -0.003,1.495276 -0.006,2.990551 -0.0102,4.485825 -0.009,4.051709 -0.0112,8.103398 -0.0118,12.155116 -7.1e-4,2.533849 -0.003,5.067693 -0.005,7.60154 -0.009,8.846748 -0.0133,17.693478 -0.0125,26.540238 6e-4,8.23539 -0.01,16.47072 -0.0258,24.70611 -0.0131,7.08044 -0.0184,14.16086 -0.0178,21.24132 2.6e-4,4.22446 -0.003,8.44886 -0.0132,12.6733 -0.01,3.97434 -0.01,7.94857 -0.002,11.92291 0.001,1.4544 -10e-4,2.9088 -0.007,4.36319 -0.42678,11.7825 -0.42678,11.7825 3.51359,22.60977 2.42514,1.53683 4.75672,2.08691 7.55078,2.72656 1.01707,0.23977 2.03414,0.47953 3.08203,0.72656 3.02573,0.63179 6.05286,1.16477 9.10547,1.64844 0,3.96 0,7.92 0,12 -30.36,0 -60.72,0 -92,0 0,-3.63 0,-7.26 0,-11 4.98326,-1.79951 10.021,-2.93064 15.19531,-4.02344 3.23635,-1.12686 4.69211,-2.29932 6.80469,-4.97656 1.29668,-3.6757 1.15932,-7.38273 1.20532,-11.24707 0.01,-0.73398 0.0201,-1.46797 0.0304,-2.22419 0.0313,-2.36893 0.0561,-4.73786 0.0807,-7.10687 0.0184,-1.46533 0.0372,-2.93066 0.0565,-4.39599 0.0684,-5.42523 0.12847,-10.85056 0.18958,-16.27588 0.14438,-12.1275 0.28875,-24.255 0.4375,-36.75 -28.38,0 -56.76,0 -86,0 0.12375,12.6225 0.2475,25.245 0.375,38.25 0.034,3.98353 0.068,7.96705 0.10303,12.07129 0.0399,3.57518 0.0399,3.57518 0.0824,7.15033 0.0177,1.59062 0.0315,3.18129 0.0422,4.77197 0.0171,2.41151 0.0464,4.8226 0.0785,7.23395 0.003,1.06046 0.003,1.06046 0.007,2.14234 0.0615,3.59719 0.24599,6.36754 2.31227,9.38012 5.91058,3.24757 13.45219,3.92251 20,5 0,3.96 0,7.92 0,12 -55.77,0 -111.54,0 -169,0 0,-3.63 0,-7.26 0,-11 0.903633,-0.19336 1.807266,-0.38672 2.738281,-0.58594 1.179492,-0.26039 2.358985,-0.52078 3.574219,-0.78906 1.171758,-0.25523 2.343516,-0.51047 3.550781,-0.77344 C 49.129204,217.14304 49.129204,217.14304 52,215 c 1.337701,-4.0131 1.164197,-7.88474 1.177002,-12.07031 0.0066,-0.92887 0.01314,-1.85773 0.01991,-2.81475 0.01974,-3.07998 0.0314,-6.15991 0.04137,-9.23994 0.0041,-1.05368 0.0082,-2.10736 0.01235,-3.19296 0.02087,-5.58233 0.03516,-11.16463 0.04454,-16.74698 0.01104,-5.74863 0.0454,-11.49687 0.08517,-17.24536 0.02623,-4.43375 0.03453,-8.8674 0.03811,-13.30121 0.0049,-2.11774 0.01643,-4.23548 0.03504,-6.35315 C 54.02921,118.44812 54.02921,118.44812 49,104 43.669517,98.630191 36.923238,98.655091 29.828125,98.610596 20.603965,98.776561 13.256852,102.16322 5.3046875,106.59888 4.0940161,107.27356 4.0940161,107.27356 2.8588867,107.96187 1.9387378,108.47574 1.9387378,108.47574 1,109 c -0.0463236,13.21278 -0.0818694,26.42554 -0.10362434,39.63838 -0.0104408,6.13514 -0.0246057,12.27022 -0.0472546,18.40532 -0.0217175,5.91979 -0.0336875,11.83952 -0.0388756,17.75935 -0.003698,2.25945 -0.0109183,4.51889 -0.0217056,6.77832 -0.0145002,3.16264 -0.0165184,6.32505 -0.0155907,9.48772 -0.007191,0.9358 -0.0143811,1.8716 -0.0217896,2.83576 C 0.74962886,210.19227 0.74962886,210.19227 3,216 c 2.2067883,1.21191 2.2067883,1.21191 4.8125,1.75 0.8520703,0.22172 1.7041406,0.44344 2.582031,0.67187 2.527681,0.56087 5.066591,1.07035 7.605469,1.57813 0,3.63 0,7.26 0,11 -25.74,0 -51.48,0 -78,0 0,-3.63 0,-7.26 0,-11 1.355449,-0.29004 1.355449,-0.29004 2.738281,-0.58594 1.179492,-0.26039 2.358985,-0.52078 3.574219,-0.78906 1.171758,-0.25523 2.343516,-0.51047 3.550781,-0.77344 3.265923,-0.70852 3.265923,-0.70852 6.136719,-2.85156 1.162873,-3.48862 1.135447,-6.6046 1.120255,-10.23222 0.0013,-1.11253 0.0013,-1.11253 0.0026,-2.24754 0.0016,-2.49204 -0.0039,-4.98401 -0.0093,-7.47605 -2.82e-4,-1.78367 -1.24e-4,-3.56734 4.43e-4,-5.35101 2.87e-4,-4.84886 -0.0056,-9.69768 -0.01257,-14.54653 -0.0062,-5.0649 -0.0068,-10.1298 -0.008,-15.1947 -0.0031,-9.59409 -0.01132,-19.18817 -0.02135,-28.78226 -0.01117,-10.92126 -0.01667,-21.84252 -0.02169,-32.76379 C -42.960136,75.93726 -42.977932,53.468631 -43,31 c -5.61,-2.97 -11.22,-5.94 -17,-9 0,-2.31 0,-4.62 0,-7 5.017407,-2.269887 9.967411,-3.969912 15.277344,-5.4101562 0.770179,-0.2129723 1.540359,-0.4259446 2.333877,-0.6453705 2.440847,-0.6736169 4.883531,-1.3402861 7.326279,-2.0069733 1.634885,-0.45074 3.269651,-0.9019083 4.904297,-1.3535156 8.223489,-2.2651089 8.223489,-2.2651089 11.128876,-3.0376282 1.342728,-0.3615029 2.681307,-0.7388188 4.014953,-1.1325073 C -9.5833592,-0.11364754 -6.0343757,0 0,0 Z"
       fill="#f9f2dd"
       transform="translate(1128,602)"
       id="path1-0"
       style="fill:#000000" /><path
       d="m 0,0 c 28.71,0 57.42,0 87,0 0,4.29 0,8.58 0,13 -2.02125,0.268125 -4.0425,0.53625 -6.125,0.8125 C 73.935962,14.690308 73.935962,14.690308 68,18 c -1.827952,8.002366 0.08038,13.787978 2.8125,21.375 0.609807,1.759812 0.609807,1.759812 1.231934,3.555176 3.317184,9.49593 6.820493,18.926179 10.356445,28.342529 2.579527,6.885616 5.007939,13.799151 7.286621,20.789795 2.295478,7.033715 4.79689,13.93639 7.532227,20.8103 C 101.41937,123.47915 105.1756,134.25407 109,145 c 0.44279,-1.22292 0.88559,-2.44583 1.3418,-3.70581 1.68315,-4.64712 3.36861,-9.2934 5.05468,-13.93945 0.72196,-1.99034 1.44334,-3.9809 2.16407,-5.97168 4.17743,-11.53754 8.4008,-23.051221 12.85144,-34.486743 4.39774,-11.390141 4.5728,-18.496372 0.78723,-30.048661 -0.27765,-0.858964 -0.5553,-1.717927 -0.84136,-2.60292 -0.5864,-1.808662 -1.17571,-3.616384 -1.76777,-5.423203 -0.89778,-2.744315 -1.7826,-5.49257 -2.66626,-8.241455 -0.57409,-1.765227 -1.14894,-3.530209 -1.72461,-5.294922 -0.39087,-1.217552 -0.39087,-1.217552 -0.78963,-2.459701 C 120.5689,23.569833 120.5689,23.569833 114.75,16.1875 111.20533,14.656847 107.63819,13.294947 104,12 103.97313,10.187579 103.95366,8.3750477 103.9375,6.5625 103.9259,5.5531641 103.9143,4.5438281 103.90234,3.5039063 104,1 104,1 105,0 c 2.64738,-0.09511266 5.26859,-0.12555635 7.91626,-0.11352539 0.8292,-1.4603e-4 1.6584,-2.9205e-4 2.51273,-4.4251e-4 2.75416,6.9939e-4 5.50826,0.008493 8.26242,0.01631165 1.90429,0.0018641 3.80858,0.003288 5.71287,0.0042877 5.0224,0.0038259 10.04477,0.0136568 15.06716,0.02470398 5.12084,0.01021257 10.24169,0.01479331 15.36254,0.01983643 C 169.88934,-0.03808953 179.94467,-0.02101224 190,0 c 0,4.29 0,8.58 0,13 -1.65,0.103125 -3.3,0.20625 -5,0.3125 -5.95084,0.55214 -11.29087,1.40167 -16,5.375 -2.4336,5.62771 -0.86598,11.761827 0.875,17.375 0.32666,1.062872 0.32666,1.062872 0.65991,2.147217 0.80695,2.601611 1.63513,5.195922 2.46509,7.790283 0.33822,1.066699 0.67644,2.133398 1.0249,3.232422 6.29768,19.83616 12.87843,39.577987 19.48487,59.312988 2.19666,6.5635 4.38371,13.13021 6.57128,19.69675 1.05074,3.15378 2.10205,6.30736 3.15332,9.46096 0.58855,1.76563 1.17709,3.53125 1.76563,5.29688 5.48669,-15.21165 10.89369,-30.43668 15.94531,-45.799316 2.03626,-6.179485 4.0897,-12.353263 6.1442,-18.526703 0.52233,-1.570316 1.04412,-3.140811 1.56537,-4.711487 2.63408,-7.936575 5.28934,-15.861857 8.0834,-23.743744 0.41589,-1.176028 0.83177,-2.352056 1.26026,-3.563721 0.76572,-2.152686 1.53952,-4.302528 2.32324,-6.44873 2.35966,-6.632574 4.55556,-13.078924 3.05713,-20.128174 C 240.63755,15.946675 235.58923,15.200074 231,14 c -3.00894,-0.484749 -5.9583,-0.754702 -9,-1 -1,-1 -1,-1 -1.13281,-3.46875 0.003,-1.0003125 0.005,-2.000625 0.008,-3.03125 -0.003,-1.0003125 -0.005,-2.000625 -0.008,-3.03125 C 221,1 221,1 222,0 c 1.84118,-0.09381302 3.68598,-0.11743954 5.52954,-0.11352539 1.18115,7.553e-5 2.3623,1.5106e-4 3.57924,2.2888e-4 1.28539,0.005161 2.57078,0.0103226 3.89513,0.01564026 1.30815,0.0014149 2.6163,0.0028299 3.96409,0.0042877 3.48363,0.0038244 6.96721,0.01365407 10.45082,0.02470398 3.55245,0.01021573 7.1049,0.01479399 10.65735,0.01983643 C 267.0508,-0.03809212 274.02539,-0.02049593 281,0 c 0,4.29 0,8.58 0,13 -2.73438,0.716146 -5.46875,1.432292 -8.20313,2.148438 C 270.24627,15.925019 268.23933,16.569096 266,18 c -1.00152,2.045648 -1.00152,2.045648 -1.51563,4.480469 -1.43997,5.413486 -3.2804,10.585485 -5.23437,15.832031 -2.60279,7.067692 -5.10289,14.151933 -7.4375,21.3125 -3.14634,9.6189 -6.59743,19.117804 -10.0625,28.625 -4.40492,12.09032 -8.65199,24.21877 -12.6875,36.4375 -0.23069,0.69834 -0.46138,1.39668 -0.69907,2.11618 -0.67081,2.03152 -1.3414,4.06312 -2.01187,6.09476 -2.40369,7.28295 -4.90333,14.52424 -7.50146,21.73974 -1.91696,5.32586 -3.81949,10.6569 -5.7251,15.98682 -0.42668,1.19198 -0.85336,2.38396 -1.29297,3.61206 -3.19001,8.92539 -6.32314,17.86942 -9.40771,26.83179 -0.30632,0.88736 -0.61263,1.77471 -0.92823,2.68896 -0.26627,0.77489 -0.53254,1.54978 -0.80688,2.34815 C 200,208 200,208 199,210 c -5.28,0 -10.56,0 -16,0 -6.60369,-18.34761 -12.96031,-36.75059 -18.9375,-55.3125 C 157.7224,134.99896 150.96846,115.4742 144,96 c -2.36989,3.554831 -3.68375,7.26102 -5.125,11.25 -0.30712,0.84063 -0.61424,1.68126 -0.93066,2.54736 -2.30188,6.33538 -4.50363,12.70319 -6.69434,19.07764 -3.41619,9.93107 -7.11891,19.73735 -10.88379,29.54077 -4.35334,11.40307 -8.40689,22.90539 -12.39453,34.44092 -0.24313,0.69862 -0.48626,1.39724 -0.73676,2.11703 -0.65889,1.89367 -1.31328,3.7889 -1.96734,5.68424 C 104,204 104,204 101,210 c -4.95,0 -9.9,0 -15,0 -2.952349,-6.47932 -5.589202,-13.01208 -8.0625,-19.6875 -0.381401,-1.02311 -0.762803,-2.04623 -1.155762,-3.10034 -4.041939,-10.86484 -8.0274,-21.75062 -12.008301,-32.63794 C 60.182587,142.02578 55.554163,129.49124 50.914062,116.96094 49.484178,113.09903 48.054478,109.23706 46.625,105.375 46.250165,104.36232 45.87533,103.34964 45.489136,102.30627 41.35722,91.13897 37.24281,79.967895 33.25,68.75 29.946654,59.508953 26.535525,50.309439 23.06311,41.130737 22.486432,39.603944 21.91223,38.076212 21.340698,36.547485 20.540634,34.410238 19.730626,32.277017 18.917969,30.144531 18.21837,28.293719 18.21837,28.293719 17.504639,26.405518 14.572266,19.763636 14.572266,19.763636 8.984375,15.539063 7.9170312,15.237422 6.8496875,14.935781 5.75,14.625 3.8525,14.08875 1.955,13.5525 0,13 0,8.71 0,4.42 0,0 Z"
       fill="#f9f2de"
       transform="translate(461,625)"
       id="path2"
       style="fill:#000000" /><path
       d="M 0,0 C -0.00414807,0.9088797 -0.00414807,0.9088797 -0.00837994,1.8361206 -0.07472651,16.601553 -0.12432272,31.366976 -0.15543652,46.132523 c -0.0154476,7.140613 -0.0364966,14.281127 -0.0708818,21.421676 -0.0299672,6.226058 -0.049272,12.452043 -0.0559471,18.678171 -0.0039,3.294595 -0.0146112,6.588935 -0.0349247,9.883475 -0.0218103,3.684165 -0.0247752,7.367905 -0.023386,11.052125 -0.0107858,1.08397 -0.0215717,2.16795 -0.0326843,3.28477 C -0.34778039,116.70713 0.41709415,121.29113 3,127 c 0.5878125,1.36125 0.5878125,1.36125 1.1875,2.75 3.5283959,4.38008 7.459837,5.93785 12.992187,6.67187 C 25.98418,136.77484 33.158477,134.95987 41,131 c 0.667371,-0.30865 1.334742,-0.61729 2.022336,-0.93529 4.215977,-2.14639 4.215977,-2.14639 6.711923,-5.96954 0.273844,-2.36557 0.290421,-4.61643 0.221552,-6.99703 0.009,-1.33022 0.009,-1.33022 0.01814,-2.68731 0.0097,-2.92749 -0.03789,-5.85097 -0.08723,-8.77802 -0.0073,-2.03874 -0.01151,-4.07749 -0.01274,-6.116239 -0.01077,-4.272537 -0.04787,-8.543732 -0.105667,-12.815887 -0.07346,-5.466534 -0.09923,-10.931912 -0.107419,-16.398894 -0.0086,-4.210648 -0.03375,-8.421059 -0.06475,-12.631597 -0.01454,-2.014942 -0.02605,-4.029908 -0.03443,-6.044884 -0.01599,-2.821974 -0.05207,-5.642974 -0.09418,-8.464664 -0.0018,-0.827246 -0.0036,-1.654492 -0.0054,-2.506806 C 49.35605,35.402474 48.510108,31.646513 46,27 43.452144,25.361907 43.452144,25.361907 40.5,24.625 39.540937,24.328516 38.581875,24.032031 37.59375,23.726562 36.737812,23.486797 35.881875,23.247031 35,23 33.515,22.505 33.515,22.505 32,22 32,18.7 32,15.4 32,12 42.816615,9.2287087 53.665378,6.6566003 64.575684,4.2802734 67.027474,3.7439907 69.476528,3.1961751 71.925781,2.6484375 73.512866,2.3013728 75.1001,1.9549932 76.6875,1.609375 77.405347,1.446933 78.123193,1.284491 78.862793,1.1171265 79.551313,0.96987122 80.239834,0.82261597 80.949219,0.67089844 81.540496,0.54084412 82.131772,0.41078979 82.740967,0.27679443 86.165959,-0.14286241 89.550635,-0.03860224 93,0 92.9982,0.68599116 92.9963,1.3719823 92.9944,2.0787611 92.95023,18.770909 92.91714,35.463038 92.89636,52.155231 c -0.01031,8.072219 -0.02437,16.1444 -0.04726,24.216595 -0.01993,7.035772 -0.03284,14.071516 -0.0373,21.107316 -0.0026,3.725358 -0.0087,7.450628 -0.02328,11.175958 -0.01611,4.15886 -0.01652,8.31759 -0.01559,12.47649 -0.01079,1.85254 -0.01079,1.85254 -0.02179,3.74249 0.0041,1.70156 0.0041,1.70156 0.0083,3.43749 -0.0018,0.98355 -0.0037,1.96711 -0.0056,2.98046 0.266654,2.93419 0.926357,5.07989 2.246096,7.70797 1.917207,0.9968 1.917207,0.9968 4.1875,1.25 0.796641,0.13664 1.593284,0.27328 2.414064,0.41406 0.79149,0.11086 1.58297,0.22172 2.39844,0.33594 0.70898,0.11086 1.41797,0.22172 2.14844,0.33594 1.61396,0.24374 3.23243,0.45736 4.85156,0.66406 0,3.63 0,7.26 0,11 -5.35245,1.10433 -10.70524,2.20697 -16.058354,3.30811 -1.816499,0.37389 -3.632908,0.74823 -5.449218,1.12304 -5.113143,1.05498 -10.228121,2.1 -15.346009,3.13172 -1.815812,0.3698 -3.628697,0.75393 -5.440857,1.14123 C 61.798967,163.11148 56.390496,163 49,163 c 0,-8.25 0,-16.5 0,-25 -1.44375,1.485 -2.8875,2.97 -4.375,4.5 -1.499405,1.54225 -3.03392,3.05252 -4.625,4.5 -0.66,0 -1.32,0 -2,0 0,0.66 0,1.32 0,2 -2.09524,1.56388 -4.168784,2.98321 -6.375,4.375 -0.953141,0.60618 -0.953141,0.60618 -1.925537,1.22461 -9.789191,6.08787 -18.556448,8.57898 -30.011963,8.58789 -0.8166211,0.0122 -1.6332422,0.0245 -2.4746094,0.0371 -11.1149736,0.0266 -21.2853016,-3.23067 -29.5253906,-10.91211 -12.066278,-13.08802 -12.126077,-30.79927 -12.09819,-47.59845 0.0045,-2.97683 -0.0097,-5.953077 -0.0284,-8.92984 -0.04264,-7.376996 -0.05407,-14.753975 -0.06622,-22.131073 -0.01153,-6.271549 -0.03505,-12.542829 -0.07469,-18.814266 -0.01355,-2.927699 -0.0094,-5.855031 -0.0046,-8.782749 -0.0093,-1.79101 -0.01951,-3.582017 -0.03064,-5.373017 0.0061,-0.809375 0.0123,-1.61875 0.01863,-2.452652 C -44.64657,33.656399 -45.076546,30.591512 -48,27 c -4.493179,-2.332997 -9.130404,-3.708066 -14,-5 0,-3.3 0,-6.6 0,-10 10.950164,-2.8230297 21.939463,-5.3797967 33.00293,-7.7197266 2.524224,-0.5360398 5.045717,-1.0839016 7.567383,-1.6318359 1.632658,-0.3470789 3.265465,-0.693459 4.898437,-1.0390625 0.73972,-0.162442 1.479441,-0.324884 2.241577,-0.4922485 0.708541,-0.14725528 1.417083,-0.29451053 2.147095,-0.44622806 0.609042,-0.13005432 1.218083,-0.26010865 1.845581,-0.39410401 C -6.857921,-0.13762364 -3.4629012,-0.03881315 0,0 Z"
       fill="#f9f2dd"
       transform="translate(1670,673)"
       id="path3"
       style="fill:#000000" /><path
       d="m 0,0 c 15.559546,13.05454 23.392271,30.172828 26,50 0.283773,4.254575 0.333951,8.486887 0.3125,12.75 -0.0042,1.141626 -0.0084,2.283252 -0.0127,3.459473 C 26.184819,74.824829 25.377607,82.683476 23,91 22.709961,92.060898 22.419922,93.121797 22.121094,94.214844 20.271317,100.35239 17.756273,105.56565 14.269531,110.94141 12.850819,113.06619 12.850819,113.06619 12,116 c -0.66,0 -1.32,0 -2,0 -0.37125,1.10215 -0.37125,1.10215 -0.75,2.22656 C 3.8597427,130.1862 -11.565476,138.03044 -23,143 c -9.363997,3.43302 -18.403243,4.18107 -28.3125,4.1875 -0.981621,0.0122 -1.963242,0.0245 -2.974609,0.0371 -19.145961,0.038 -36.53623,-6.77958 -50.466801,-19.97461 -16.01882,-16.04668 -22.27385,-35.409643 -22.55859,-57.875 0.15677,-25.466341 7.49538,-46.309637 24.81641,-65.0898438 C -74.434136,-22.759729 -30.549044,-22.008856 0,0 Z m -71.8125,7.375 c -9.717888,15.287338 -10.574357,34.607953 -10.5,52.1875 0.0018,0.690384 0.0036,1.380767 0.0055,2.092072 0.09553,21.647067 1.166849,49.242968 16.556976,66.157928 4.715791,4.39868 10.242203,7.28642 16.75,7.6875 6.087948,-0.3524 11.268264,-2.99916 15.8125,-6.9375 0.721875,-0.84562 1.44375,-1.69125 2.1875,-2.5625 0.650977,-0.73863 1.301953,-1.47727 1.972656,-2.23828 10.143963,-13.81846 10.21445,-33.78183 10.212647,-50.163575 0.0022,-2.198281 0.02035,-4.396047 0.03931,-6.594239 C -18.688289,45.32501 -20.447036,19.067078 -36.238281,2.625 -42.000734,-2.6902561 -46.784675,-3.7913495 -54.714844,-3.5 -62.14372,-2.3693268 -67.240224,1.5539525 -71.8125,7.375 Z"
       fill="#f9f2de"
       transform="translate(1584,689)"
       id="path4"
       style="fill:#000000" /><path
       d="m 0,0 c 12.862431,9.6046237 18.512107,21.361766 21,37 0.569229,5.992943 0.543114,12.006428 0.51642,18.021292 -0.01283,2.905599 -0.0012,5.810277 0.01603,8.715845 0.02645,5.109081 0.03231,10.217929 0.0309,15.327072 -0.0022,8.21354 0.0119,16.426795 0.05559,24.640221 0.0098,2.85683 0.0011,5.71321 -0.0087,8.57003 0.0061,1.7473 0.01305,3.4946 0.02086,5.2419 -0.0077,0.7891 -0.01544,1.5782 -0.02339,2.39122 0.04175,4.52611 0.534057,7.51813 3.39229,11.09242 4.042932,1.591 7.218735,0.68716 11.3125,-0.4375 1.068633,-0.28746 2.137266,-0.57492 3.238281,-0.87109 C 40.359023,129.46324 41.167266,129.23508 42,129 c 1.184513,3.55354 1.266419,6.27013 1,10 -1.375,1.9375 -1.375,1.9375 -3,3 -0.66,0 -1.32,0 -2,0 0,0.66 0,1.32 0,2 -10.892119,8.31973 -22.65731,10.23018 -36,9 -8.080148,-2.00207 -14.283208,-6.08204 -19,-13 -3,-6.65385 -3,-6.65385 -3,-10 -2.910592,2.36909 -5.667424,4.64895 -8.25,7.375 C -40.209207,148.79061 -53.763351,153.26782 -70,153 -80.424983,152.35681 -90.277956,148.35171 -97.5,140.6875 -106.32984,129.82001 -107.26256,117.50318 -106,104 -103.34384,92.556175 -95.97408,84.384778 -86.1875,78.285156 -85.104687,77.649004 -85.104687,77.649004 -84,77 c 1.051875,-0.620684 1.051875,-0.620684 2.125,-1.253906 C -80.260689,74.812007 -78.632007,73.902812 -77,73 -77.652266,72.489531 -78.304531,71.979062 -78.976562,71.453125 -86.388906,65.287104 -93.252452,56.992144 -94.192871,46.937988 -94.765277,30.116205 -92.849855,16.91614 -81,4 -59.134305,-15.184968 -24.173081,-15.397921 0,0 Z m -69,12 c 0,0.66 0,1.32 0,2 -0.99,0.33 -1.98,0.66 -3,1 -1.884801,2.600336 -1.884801,2.600336 -3.625,5.75 -0.916523,1.570078 -0.916523,1.570078 -1.851562,3.171875 C -81.474914,32.000596 -81.209671,42.274818 -78.5,50.75 c 2.804094,6.80142 7.246235,11.913721 13.1875,16.179687 4.843432,1.564977 7.843768,0.04115 12.4375,-1.804687 1.767971,-0.66605 3.536209,-1.331393 5.304688,-1.996094 0.909755,-0.350464 1.819511,-0.700927 2.756835,-1.062011 4.653964,-1.764824 9.359885,-3.377634 14.063477,-5.004395 1.692956,-0.59174 3.385688,-1.184122 5.078125,-1.777344 C -24.460156,54.861055 -23.248438,54.436953 -22,54 -20.499461,32.073192 -20.499461,32.073192 -28.546875,12.398438 -34.766567,6.4128201 -41.983633,5.7482107 -50.226562,5.8476562 -57.313029,6.2369128 -62.796242,8.6765582 -69,12 Z m 32.67749,59.315186 c -1.834942,0.735274 -3.679042,1.44756 -5.523193,2.159423 C -51.390595,77.31031 -58.917993,81.852387 -64,91 c -2.27702,6.739368 -2.135512,16.74506 0.125,23.5 2.900253,5.41381 5.777536,9.22507 11.0625,12.4375 7.743764,2.1581 14.674246,1.96834 21.8125,-1.9375 4.765957,-2.63845 4.765957,-2.63845 9,-6 0.0934,-1.62675 0.117452,-3.25754 0.113525,-4.88696 -7.5e-5,-1.04101 -1.51e-4,-2.08201 -2.28e-4,-3.15456 -0.0052,-1.13227 -0.01032,-2.26455 -0.01564,-3.43114 -0.0014,-1.15278 -0.0028,-2.30556 -0.0043,-3.49327 -0.0056,-3.69888 -0.01817,-7.397705 -0.03087,-11.09657 -0.005,-2.50065 -0.0096,-5.001301 -0.01367,-7.501953 C -21.962225,79.290344 -21.978981,73.145176 -22,67 c -5.110722,0 -9.628115,2.421955 -14.32251,4.315186 z"
       fill="#f9f2de"
       transform="translate(811,683)"
       id="path5"
       style="fill:#000000" /><path
       d="m 0,0 c 11.731708,9.909668 17.287289,23.09533 19.464844,38.082031 0,6.27 0,12.54 0,19 -47.025,0.495 -47.025,0.495 -95,1 0.68236,11.442545 0.68236,11.442545 2.625,22.5625 0.170398,0.707615 0.340796,1.41523 0.516357,2.144287 3.214521,12.321174 9.840696,23.702922 20.733643,30.605712 4.545639,2.54611 9.101596,4.33582 14.125,5.6875 0.804375,0.22688 1.60875,0.45375 2.4375,0.6875 14.381394,1.75383 28.0101671,-1.93702 39.5624997,-10.6875 3.7917706,-3.56291 7.6508503,-7.3017 10.0000003,-11.999999 2.385641,0.575845 4.666828,1.222276 7,2 -0.535286,5.672539 -2.062455,10.179209 -4.5,15.312499 -0.354573,0.74693 -0.709146,1.49386 -1.074463,2.26343 -3.205975,6.46451 -7.1560453,11.47941 -12.4255372,16.42407 -0.7321876,0.72703 -1.464375,1.45406 -2.2187501,2.20313 -13.8699627,13.18623 -30.7387047,15.31994 -49.1132807,15.07421 -16.074291,-0.54092 -30.607974,-6.68808 -42.667969,-17.27734 -0.676758,-0.58266 -1.353516,-1.16531 -2.050781,-1.76562 -12.750153,-11.78461 -20.066383,-29.47642 -21.170413,-46.6814 -0.1192,-3.894 -0.16432,-7.782615 -0.15381,-11.677979 -1.2e-4,-0.687201 -2.4e-4,-1.374402 -3.6e-4,-2.082428 0.0264,-10.541938 0.89546,-19.813626 4.37536,-29.792572 0.27715,-1.029961 0.5543,-2.059922 0.83985,-3.121094 4.62873,-16.403193 17.090897,-31.5792267 31.160154,-40.8789058 4.245866,-2.2294511 8.566653,-4.1755296 13,-6 0.853359,-0.3609375 1.706719,-0.721875 2.585937,-1.0937502 C -41.649434,-17.63235 -16.822203,-13.008849 0,0 Z m -61.535156,7.0820312 c 0,0.66 0,1.3200001 0,2.0000001 -0.66,0 -1.32,0 -2,0 -6.516283,11.4720317 -11,21.6096257 -11,34.9999997 18.48,0 36.96,0 56,0 0,-14.635665 -0.675516,-28.390767 -11.234375,-39.3710935 -5.375584,-4.9593327 -10.486327,-5.14983771 -17.5625,-4.98828125 -5.799515,0.65067729 -10.369552,2.93334045 -14.203125,7.35937495 z"
       fill="#f9f2de"
       transform="translate(2023.5352,685.91797)"
       id="path6"
       style="fill:#000000" /><path
       d="M 0,0 C 0,0.66 0,1.32 0,2 0.58523438,2.2204297 1.1704687,2.4408594 1.7734375,2.6679688 4.6975669,4.4173163 5.8481333,6.4201994 7.625,9.3125 8.2153906,10.257383 8.8057813,11.202266 9.4140625,12.175781 15.111121,22.321035 15.577272,34.675332 12.8125,45.875 11.499912,50.159842 9.630697,53.637131 6.9882812,57.246094 5.6727294,59.245279 5.6727294,59.245279 6,63 7.6592902,64.354523 9.3199951,65.707354 10.988281,67.050781 19.794977,75.583871 23.072849,87.569021 23.375,99.4375 23.026271,115.03519 18.132466,126.21983 7,137 c -16.0380369,14.17059 -37.776956,13.90453 -58,13 -5.469833,-0.49735 -10.690414,-1.58411 -16,-3 -1.059609,-0.27844 -2.119219,-0.55688 -3.210937,-0.84375 C -77.428459,144.00398 -85.357422,141.08694 -91,136 c -1.022076,-5.09119 -1.19788,-10.16652 -1.316406,-15.33984 -0.02078,-0.76696 -0.04156,-1.53392 -0.06297,-2.32412 -0.06483,-2.42443 -0.124067,-4.84896 -0.183121,-7.27354 -0.04325,-1.65431 -0.08687,-3.3086 -0.130859,-4.96289 C -92.79982,102.0665 -92.901271,98.033301 -93,94 c 4.29,0 8.58,0 13,0 0.268125,0.931992 0.53625,1.863984 0.8125,2.824219 2.539257,8.395161 5.751822,15.358391 10.613281,22.664061 C -67,122 -67,122 -67,124 c 0.66,0 1.32,0 2,0 1.020938,1.33031 1.020938,1.33031 2.0625,2.6875 4.591508,5.72923 11.824691,9.02986 18.9375,10.3125 11.046098,0.73993 19.015428,-0.10486 28,-7 3.863286,-4.00126 4.76376,-8.91321 5.375,-14.3125 C -11.275975,109.28624 -13.187531,103.23301 -18,98.75 -26.103734,92.693347 -35.439732,89.406353 -44.875,86.0625 -61.964096,79.996073 -78.770434,72.893669 -87.75,56.1875 -93.68092,43.5247 -93.592907,29.098971 -89,16 -83.499562,3.497231 -74.467146,-3.9524212 -62,-9.3125 -41.056219,-16.961247 -17.47724,-14.05778 0,0 Z m -55,8 c -3.792226,5.022137 -4.717671,9.000222 -4.433594,15.292969 1.066379,6.657661 4.72814,10.449928 9.996094,14.394531 5.532487,3.596522 11.303973,5.942278 17.4375,8.3125 1.680012,0.703158 3.358265,1.410526 5.035156,2.121094 1.800655,0.751604 3.601437,1.502905 5.402344,2.253906 0.8648,0.370525 1.7296,0.74105 2.620605,1.122803 0.825162,0.338459 1.650323,0.676919 2.500489,1.025634 0.735329,0.30857 1.470659,0.617139 2.228271,0.935059 C -11.473691,54.128776 -9.6838337,53.80713 -7,53 c 1.5936271,-1.64009 1.5936271,-1.64009 2.6875,-3.75 0.3957422,-0.675469 0.7914844,-1.350938 1.1992187,-2.046875 C 0.74019086,39.577306 1.700645,31.40119 -0.91015625,23.109375 -5.3878144,13.72213 -11.76185,6.7020981 -21.605469,3.0273438 -32.53397,-0.28665885 -46.487739,-1.0129818 -55,8 Z"
       fill="#f9f2de"
       transform="translate(1880,686)"
       id="path7"
       style="fill:#000000" /><path
       d="M 0,0 C 2.8700687,2.4047845 4.9779055,4.8571552 7,8 7.6438867,8.9629297 7.6438867,8.9629297 8.3007813,9.9453125 12.401425,17.357472 12.440619,27.545072 10.304688,35.632812 8.3151554,40.029846 5.3959289,43.826 1,46 c -4.3092929,0.608655 -8.5341141,0.471731 -12.875,0.3125 -1.165313,-0.02256 -2.330625,-0.04512 -3.53125,-0.06836 C -18.272159,46.185413 -21.135409,46.103329 -24,46 c 0.01571,-0.674663 0.03142,-1.349326 0.04761,-2.044434 0.06305,-3.1101 0.101604,-6.220066 0.139893,-9.330566 0.02514,-1.060898 0.05027,-2.121797 0.07617,-3.214844 C -23.661752,23.306213 -24.547297,16.117037 -28.75,9.0625 -33.969721,4.2777557 -39.25913,3.361186 -46.164062,3.5976563 -54.376725,4.7628136 -60.095513,9.2700398 -65.25,15.546875 c -9.136867,12.807929 -10.937174,26.884405 -10.935303,42.249268 -0.0022,2.000936 -0.02068,4.001834 -0.03931,6.002685 C -76.2356,71.129557 -75.842665,77.896918 -74,85 c 0.248789,1.037695 0.497578,2.075391 0.753906,3.144531 C -70.603664,96.863272 -65.766647,106.82224 -58,112 c 0,0.66 0,1.32 0,2 0.721875,0.27586 1.44375,0.55172 2.1875,0.83594 C -53,116 -53,116 -50.625,117.28906 c 10.306744,5.2454 23.42306,5.80543 34.585938,2.78907 C -5.1929722,116.18466 1.7194041,109.71348 9,101 c 2.9375,0.75 2.9375,0.75 6,2 1.243119,2.61647 1.036718,3.87541 0.214844,6.66406 -7.7477589,17.95964 -18.3891483,32.6525 -36.929688,40.29297 -8.024494,2.54761 -15.763362,3.40558 -24.160156,3.35547 -1.445724,-0.006 -1.445724,-0.006 -2.920654,-0.0127 C -64.803096,153.04608 -81.126575,147.08186 -93,136 c 0,-0.66 0,-1.32 0,-2 -0.590391,-0.23977 -1.180781,-0.47953 -1.789062,-0.72656 -8.329958,-4.79782 -13.929738,-18.50919 -16.437498,-27.38281 C -112.26071,101.94729 -113.17023,97.991405 -114,94 c -0.19465,-0.922969 -0.3893,-1.845938 -0.58984,-2.796875 C -117.86753,65.605994 -112.66204,37.894503 -97,17 -85.214602,2.4890708 -68.628145,-6.8840779 -50.09375,-9.71875 -32.372165,-11.329803 -15.29215,-9.8082039 0,0 Z"
       fill="#f9f2de"
       transform="translate(1057,683)"
       id="path8"
       style="fill:#000000" /><path
       d="m 0,0 c 3.96,0 7.92,0 12,0 0,12.54 0,25.08 0,38 12.54,0 25.08,0 38,0 0,4.95 0,9.9 0,15 -12.54,0 -25.08,0 -38,0 0.108247,12.752609 0.220394,25.505168 0.339339,38.257682 0.05508,5.921982 0.108477,11.843968 0.157975,17.765998 0.04786,5.71884 0.100213,11.43763 0.155627,17.15641 0.02032,2.17796 0.03905,4.35595 0.05613,6.53394 0.02427,3.05884 0.05429,6.11758 0.0856,9.17635 0.0086,1.34005 0.0086,1.34005 0.01744,2.70717 C 12.871385,157.47394 12.871385,157.47394 18,169 c 2.477535,1.97296 2.477535,1.97296 5,3 0.66,0.33 1.32,0.66 2,1 10.260977,0.83123 17.257874,-0.37996 25.875,-5.8125 1.051875,-0.58781 1.051875,-0.58781 2.125,-1.1875 3,1 3,1 4.25,2.75 0.990194,2.97058 0.806537,4.2917 -0.25,7.25 -7.611378,11.16335 -19.809694,18.50277 -32.789307,21.60522 -4.018244,0.71756 -8.013467,0.734 -12.085693,0.70728 -0.88333,-0.005 -1.76666,-0.01 -2.6767578,-0.0149 C 3.2329251,198.18568 -2.3159174,197.70461 -8,195 c -1.0151367,-0.47566 -1.0151367,-0.47566 -2.050781,-0.96094 -9.003526,-4.93008 -15.20346,-12.81277 -18.292969,-22.49609 -1.076543,-4.17161 -1.781393,-8.04134 -1.776505,-12.35823 -0.0014,-0.94085 -0.0027,-1.88169 -0.0042,-2.85105 0.0036,-1.01995 0.0072,-2.03991 0.0109,-3.09077 -1.46e-4,-1.08338 -2.92e-4,-2.16675 -4.43e-4,-3.28296 6.96e-4,-3.57652 0.0085,-7.15298 0.01631,-10.72949 0.0019,-2.4815 0.0033,-4.963 0.0043,-7.44451 0.0038,-6.52823 0.01364,-13.05644 0.0247,-19.58467 0.01077,-6.66279 0.0148,-13.325596 0.01984,-19.988399 C -30.038106,79.141917 -30.02104,66.07096 -30,53 c -6.27,0 -12.54,0 -19,0 0,-3.96 0,-7.92 0,-12 1.44375,-0.5775 2.8875,-1.155 4.375,-1.75 0.916523,-0.369961 1.833047,-0.739922 2.777344,-1.121094 1.774594,-0.703508 3.557457,-1.386915 5.351562,-2.039062 C -18.122597,29.277199 -8.8484149,16.83357 0,0 Z"
       fill="#f9f2dd"
       transform="translate(889,638)"
       id="path9"
       style="fill:#000000" /><path
       d="M 0,0 C 2.75,2.375 2.75,2.375 5,5 5.721875,5.825 6.44375,6.65 7.1875,7.5 12.317127,14.575347 11.645203,22.662642 11,31 9.3890729,38.038346 3.7804412,43.015424 -2,47 -9.2552793,50.029569 -18.031231,50.34845 -25.5,47.75 -32.622747,44.188627 -36.855853,39.390396 -40.3125,32.3125 -41.949996,24.422744 -42.040801,16.1589 -38,9 c 1.538899,-2.2551168 3.077131,-4.0278264 5,-6 0.66,0 1.32,0 2,0 0,-0.66 0,-1.32 0,-2 8.797027,-6.1090465 21.6823919,-5.9129206 31,-1 z"
       fill="#f9f2dd"
       transform="translate(2088,787)"
       id="path10"
       style="fill:#000000" /><path
       d="M 0,0 C 0.83640015,0.00202423 1.6728003,0.00404846 2.5345459,0.00613403 3.8490875,0.00350555 3.8490875,0.00350555 5.1901855,8.2397e-4 c 2.9116817,-0.00441973 5.8233035,-0.0014801 8.7349855,0.00189209 2.013997,-6.73e-4 4.027995,-0.001643 6.041992,-0.00289917 4.226896,-0.00147713 8.453771,6.781e-4 12.680664,0.00534058 5.431149,0.00569729 10.862249,0.00241837 16.293396,-0.00357246 4.160547,-0.00360519 8.321082,-0.00246723 12.481629,1.2779e-4 2.003173,6.6939e-4 4.006348,-1.5956e-4 6.009521,-0.00247955 2.794503,-0.00252583 5.588926,0.00131307 8.383423,0.00690078 C 77.070396,0.00309769 77.070396,0.00309769 78.350342,0 c 5.710566,0.02126614 5.710566,0.02126614 6.824829,1.1355286 0.143551,4.0022065 0.04216,7.9944168 0,12.0000004 -5.28,0.66 -10.56,1.32 -16,2 4.877936,-3.251958 9.223914,-3.113257 15,-3 0,-3.3000004 0,-6.6000004 0,-10.0000004 -29.37,0 -58.74,0 -89.0000001,0 0,3.3 0,6.6 0,10.0000004 1.247168,0.07348 1.247168,0.07348 2.5195312,0.148437 1.0866797,0.07477 2.17335942,0.149531 3.2929688,0.226563 1.0789453,0.06961 2.1578906,0.139218 3.2695313,0.210937 2.9179687,0.414063 2.9179687,0.414063 5.9179688,2.414063 -5.9149228,-0.452248 -11.351999,-1.158261 -17.0000001,-3 -0.026873,-1.812421 -0.046337,-3.6249528 -0.0625,-5.4375004 -0.011602,-1.009336 -0.023203,-2.0186719 -0.035156,-3.0585938 C -6.7371402,-1.1128156 -4.1229757,0.01535396 0,0 Z"
       fill="#fdfbf7"
       transform="translate(1378.8248,624.86447)"
       id="path11"
       style="fill:#000000" /><path
       d="M 0,0 C 0.66,0 1.32,0 2,0 0.6738993,2.9199717 -0.81035562,5.0430287 -3,7.375 -8.3252556,13.516536 -8.4699949,20.161503 -9,28 -9.33,28 -9.66,28 -10,28 -10.409456,18.900988 -10.19631,11.826297 -4.4375,4.5 -3.633125,3.675 -2.82875,2.85 -2,2 -1.34,2 -0.68,2 0,2 0,1.34 0,0.68 0,0 Z"
       fill="#fdfaf3"
       transform="translate(2057,788)"
       id="path12"
       style="fill:#000000" /><path
       d="m 0,0 c 0.66,0.33 1.32,0.66 2,1 -5.28,5.28 -10.56,10.56 -16,16 0,-4.04393 1.480913,-5.001316 4.1875,-7.9375 C -9.0351953,8.2078516 -8.2578906,7.3532031 -7.4570312,6.4726562 -5.0978633,4.0984857 -2.6553273,2.0327639 0,0 Z"
       fill="#fcf9f0"
       transform="translate(1489,687)"
       id="path13"
       style="fill:#000000" /><path
       d="M 0,0 C 0.66,0.33 1.32,0.66 2,1 1.5385156,1.3171094 1.0770313,1.6342188 0.6015625,1.9609375 -5.5603462,6.3692595 -10.749893,11.556242 -16,17 c 0,-4.28363 2.055643,-5.834867 4.84375,-8.9257812 C -7.7878536,4.8339678 -3.9982349,2.3935012 0,0 Z"
       fill="#fcfaf2"
       transform="translate(727,760)"
       id="path14"
       style="fill:#000000" /><path
       d="M 0,0 C 1.98,0.66 3.96,1.32 6,2 4,3 4,3 2.171875,3.2773438 -0.92699368,4.3084421 -2.5072639,6.2208196 -4.75,8.5625 -5.5492187,9.3887891 -6.3484375,10.215078 -7.171875,11.066406 -8.0767969,12.023535 -8.0767969,12.023535 -9,13 c -0.66,-0.33 -1.32,-0.66 -2,-1 0.542695,-0.531094 1.0853906,-1.062187 1.6445312,-1.609375 C -8.6400391,9.6842188 -7.9246094,8.9778125 -7.1875,8.25 -6.4798047,7.5539062 -5.7721094,6.8578125 -5.0429687,6.140625 -3.1772412,4.1857135 -1.5683036,2.1966145 0,0 Z"
       fill="#fcfaf3"
       transform="translate(1066,784)"
       id="path15"
       style="fill:#000000" /><path
       d="M 0,0 C 0.66,0.33 1.32,0.66 2,1 -1.63,4.63 -5.26,8.26 -9,12 -9,7.8407692 -6.7531643,5.8545556 -4,3 -1.6875,1.125 -1.6875,1.125 0,0 Z"
       fill="#fcf9f0"
       transform="translate(735,683)"
       id="path16"
       style="fill:#000000" /><path
       d="M 0,0 C 0.66,0.33 1.32,0.66 2,1 0.71451591,2.3392951 -0.57858155,3.6712864 -1.875,5 -2.5942969,5.7425 -3.3135938,6.485 -4.0546875,7.25 -6,9 -6,9 -8,9 -6.4169423,4.7257442 -3.494316,2.7346821 0,0 Z"
       fill="#fcf9f1"
       transform="translate(1806,683)"
       id="path17"
       style="fill:#000000" /></g></svg>
