<svg xmlns="http://www.w3.org/2000/svg" width="24" height="24"><path fill="#231f21" fill-rule="evenodd" d="M4.4 2.19q0 .19.33.25c.34.06.65.33.85.71.05.11.72 2.2 1.47 4.65.76 2.45 1.42 4.53 1.47 4.63.25.49.4.13 1.74-4.02a226 226 0 0 1 1.37-4.17c.02-.02.66 1.66 1.42 3.74 1.65 4.5 1.7 4.62 1.89 4.62.17 0 .17-.02 1.66-5.15.56-1.92 1.16-3.8 1.33-4.15.28-.58.37-.67.75-.8q.42-.15.42-.32c0-.16-.13-.18-1.45-.18-1.35 0-1.45.01-1.45.19q-.01.19.34.25c.5.1.71.39.7 1 0 .57-1.73 6.71-1.85 6.59-.15-.17-2.49-6.75-2.49-7.02 0-.34.15-.49.58-.57q.32-.06.32-.25c0-.18-.1-.19-1.75-.19s-1.75.01-1.75.19q-.01.2.35.25c.43.08.75.53.75 1.05 0 .4-2.01 6.64-2.1 6.54-.11-.13-2.1-6.77-2.1-7q0-.45.7-.58c.3-.05.4-.11.4-.26 0-.18-.1-.19-1.95-.19s-1.95.01-1.95.19m-.73 11.48c.07.02.3.56.5 1.2.19.62.37 1.12.4 1.1a8 8 0 0 0 .28-.78l.31-.89c.03-.09.2.2.37.7.18.46.37.82.42.8s.23-.46.38-.99c.16-.53.36-1.02.45-1.08.13-.11.1-.13-.24-.12-.21 0-.33.03-.26.06.17.07.15.37-.06 1.08l-.18.6-.29-.78c-.24-.66-.26-.8-.14-.88q.15-.09-.31-.08c-.25 0-.4.03-.32.06.2.08.14.4-.25 1.53-.03.08-.15-.19-.28-.6-.2-.68-.22-.76-.07-.87.13-.1.08-.13-.34-.12-.27 0-.43.03-.37.06m4.66.68q-.19.23-.12.25c.05 0 .09.26.09.58s.05.63.12.7a.4.4 0 0 0 .59-.04c.1-.13.1-.14-.14-.09l-.27.07v-.6c0-.55.02-.61.23-.65q.33-.04 0-.06-.2-.02-.25-.2c-.03-.19-.04-.19-.25.04m5.04 0q-.15.23-.07.25c.06 0 .1.25.1.59q-.01.94.5.76c.26-.08.26-.25 0-.18-.18.05-.2 0-.2-.55s.02-.61.23-.65l.22-.04-.22-.02q-.23 0-.23-.21 0-.4-.33.05m-6.54.15q-.21.1-.23.25c0 .2.19.2.26 0 .04-.08.17-.15.3-.15.37 0 .3.33-.1.53-.45.21-.62.5-.4.71.18.19.28.2.54.06q.2-.12.4.02c.16.1.23.1.37-.05.17-.18.17-.18-.02-.15-.18.03-.2-.03-.23-.52-.04-.73-.3-.94-.9-.7m2.63.15a.8.8 0 0 0-.25.58c0 .64.75 1.01 1.15.57q.31-.37-.2-.04c-.24.16-.27.15-.45-.01a.7.7 0 0 1-.2-.47c0-.27.02-.28.5-.28.56 0 .62-.1.24-.4-.34-.26-.5-.25-.8.05m1.93-.08q-.16.16-.17.05t-.25-.12-.25.1q.01.1.1.1c.15 0 .13 1.07-.03 1.13q-.07.04.26.09c.21.02.4 0 .43-.04q.03-.07-.1-.08c-.12 0-.16-.1-.16-.43 0-.52.22-.89.41-.7q.27.25.29 0-.01-.15-.16-.2c-.2-.09-.17-.1-.37.1m.79.05q-.28.41.34.73c.33.17.4.42.13.52q-.16.05-.34-.15c-.22-.28-.29-.28-.29 0 0 .2.06.23.39.26.72.05.82-.58.15-.97-.2-.12-.32-.26-.29-.31.1-.16.36-.12.51.08.12.16.13.16.14-.04q0-.21-.22-.28c-.34-.09-.35-.08-.52.16m2.32.08c-.25.26-.3.36-.24.63.14.76 1.07.93 1.41.26.21-.4.19-.57-.14-.9-.37-.37-.65-.37-1.03.01m1.68-.2q-.2.06-.08.14c.16.1.16 1.13 0 1.2-.07.02.05.05.27.05q.38 0 .27-.08c-.19-.12-.12-1.01.1-1.14q.48-.3.48.58c0 .3-.04.55-.1.55q-.1.01-.1.08c0 .04.17.06.38.03q.32-.04.25-.08-.12-.06-.13-.54c0-.68-.38-1.06-.8-.8q-.14.08-.25.02c-.05-.05-.19-.05-.3-.01m2.01.1c-.35.28-.36.87-.03 1.18q.43.4.88.02c.28-.22.14-.27-.15-.05a1 1 0 0 1-.27.15c-.17 0-.39-.34-.39-.6 0-.28.02-.3.53-.32l.52-.03-.27-.27c-.32-.33-.47-.35-.82-.07m1.4-.05c-.23.22-.2.4.12.63.53.4.54.42.41.57-.16.2-.25.18-.49-.08l-.2-.22v.25c0 .2.05.24.34.26.64.05.76-.56.19-.92-.18-.1-.32-.26-.33-.32 0-.18.4-.16.46.02.09.21.24.19.24-.04 0-.1-.1-.21-.22-.25-.32-.08-.35-.08-.52.1m-4.91.15c-.14.21-.08.9.08 1.07.23.22.63.03.7-.33q.12-.77-.4-.83c-.17-.02-.34.02-.38.09m-7.52.54c-.24.17-.31.55-.1.55.24 0 .39-.18.35-.44-.03-.26-.04-.26-.25-.1"/></svg>