<svg xmlns="http://www.w3.org/2000/svg" width="24" height="24"><path fill="#1b7768" fill-rule="evenodd" d="M3.32 2.59c1.9 3.35 5.64 9.8 5.68 9.8.03 0 .7-1.14 1.5-2.54s1.47-2.54 1.5-2.54.7 1.14 1.5 2.54 1.47 2.54 1.5 2.54 5.88-10.06 5.98-10.31a6 6 0 0 0-1.49-.06l-1.52.03-1.46 2.53A50 50 0 0 1 15 7.1c-.08 0-1.4-2.36-1.4-2.5 0-.06.32-.66.7-1.32.39-.67.69-1.23.67-1.25s-1.37-.02-3 0L9 2.04l.74 1.28.75 1.27-.72 1.25c-.4.69-.74 1.25-.77 1.25s-.7-1.15-1.5-2.55L6.05 2.01H4.52L2.98 2zm.9 11.59.37.9c.18.45.36.82.4.82s.2-.28.33-.62l.26-.63.27.63c.15.34.3.62.35.62.07 0 .7-1.53.7-1.7 0-.2-.3-.1-.4.13l-.2.52-.12.3-.23-.53c-.13-.28-.3-.52-.38-.52s-.24.24-.37.53l-.22.52-.2-.53c-.15-.38-.26-.52-.4-.52q-.17.01-.16.08m3.02.05c-.03.08-.04.47-.02.88l.03.74.58.03c.46.02.57 0 .57-.12s-.1-.16-.4-.16c-.36 0-.4-.03-.4-.24s.05-.25.38-.28c.2-.02.37-.07.37-.13s-.17-.11-.37-.13c-.3-.03-.38-.07-.38-.23s.07-.19.4-.19q.42 0 .4-.15c0-.2-1.08-.22-1.16-.02m1.66.78v.9l.57-.03c.71-.04.88-.28.19-.28H9.2v-.75c0-.6-.03-.75-.15-.75s-.15.17-.15.9m1.5 0v.9h.6c.47 0 .6-.03.6-.15q.02-.15-.4-.15h-.4v-.75c0-.68-.02-.75-.2-.75s-.2.07-.2.9m1.66-.7q-.38.38.27.8c.2.12.37.3.37.37 0 .15-.46.18-.55.03s-.25-.12-.25.05c0 .35.76.47 1.05.15.26-.28.13-.67-.3-.87-.47-.23-.47-.48 0-.4q.36.06.35-.08c0-.3-.69-.34-.94-.06m2.4-.05c-.15.1-.18.2-.13.44q.06.3-.08.42c-.18.15-.2.52-.03.68.16.16.6.15.77 0q.14-.15.18 0c.03.06.16.12.3.12.25 0 .26 0 .08-.2-.17-.18-.17-.21-.01-.45s.15-.25-.02-.25c-.1 0-.23.05-.29.1-.2.2-.25-.08-.07-.35.16-.24.16-.27-.01-.45q-.31-.34-.7-.07m2.34.16q-.3.3-.29.61c0 .65.82 1.11 1.4.8.26-.14.27-.45.03-.35-.4.16-.54.17-.78 0a.54.54 0 0 1 0-.91c.21-.14.33-.15.6-.06.31.09.35.08.35-.08q.02-.3-.67-.3c-.25 0-.43.08-.64.3m1.68-.12c-.37.4-.07 1.02.5 1.02.29 0 .65-.47.57-.74-.13-.46-.76-.62-1.07-.28m.24.2c-.14.27-.04.52.2.52s.36-.27.22-.48q-.23-.36-.42-.03"/></svg>