<svg xmlns="http://www.w3.org/2000/svg" width="24" height="24"><path fill="#606f79" fill-rule="evenodd" d="M12.5 2.19c-.13.11-.2.25-.17.33.08.22-.38.42-.63.28a1 1 0 0 0-.34-.1c-.15 0-.86.56-.86.69 0 .03.23.04.52.02.4-.02.6-.1.89-.33.36-.29.38-.3.65-.13q.24.15.1.1c-.2-.06-.46.1-.46.3 0 .11.07.1.3-.03.3-.17.31-.17.53.1l.22.27.12-.27c.15-.36.25-.82.18-.82-.17 0-.45.22-.45.35q-.02.28-.28.03c-.15-.15-.16-.53-.02-.79q.19-.36-.3 0M7.38 3.77c-.04.03-.07.2-.07.38 0 .34.43.85.72.85.12 0 .38.55.94 1.96.85 2.15 1.17 2.74 1.49 2.74.17 0 .32-.3.94-1.88.4-1.03.77-1.9.8-1.94s.35.63.7 1.5.7 1.73.82 1.9c.21.36.45.5.6.35a36 36 0 0 0 1.02-2.38c.87-2.16.94-2.3 1.2-2.33.23-.03.27-.08.27-.34 0-.16-.1-.43-.21-.6-.2-.28-.22-.29-1.02-.26l-.82.03-.03.33c-.02.19.04.44.12.57.15.23.14.29-.1.9a2 2 0 0 1-.33.65c-.03 0-.16-.27-.28-.6-.17-.48-.19-.6-.07-.64.22-.08.17-.62-.09-.91-.22-.26-.24-.26-1.62-.28l-1.4-.02-.03.32c-.02.18.04.43.14.58.16.25.16.29-.11.96-.3.76-.3.76-.64-.09-.2-.52-.2-.52 0-.52.31 0 .26-.58-.1-.96l-.28-.3-1.25-.02a7 7 0 0 0-1.31.05m1.16.58q.05.33-.04.3c-.18-.12-.09.15.13.35.12.1.16.2.1.2-.18 0-.06.17.21.31.22.12.22.12.03-.1-.1-.11-.15-.21-.11-.21q.05-.02-.1-.2t-.06-.2q.13.01 0-.2c-.05-.12-.08-.26-.06-.33q.05-.1.12.16c.08.29.35.38.35.11q-.01-.13-.1-.09-.12.05-.17-.13a.5.5 0 0 0-.2-.27c-.13-.04-.15 0-.1.3m3.73-.26c-.03.05-.02.2.03.34q.11.26-.02.3-.12.04.06.25.2.2.06.24-.09.04.15.21c.14.1.26.13.26.08q-.02-.09-.17-.15-.2-.07-.04-.15.16-.09-.09-.21-.23-.12-.11-.2c.09-.05.09-.14.01-.36q-.15-.39.05-.1.16.24.15.04c0-.2-.26-.42-.34-.3M6.3 5.66c-.1.12-.07.15.14.2l.51.1c.28.06.3.03.15-.26-.13-.23-.62-.26-.8-.04m10.93.03q-.06.17-.1.24c-.03.07.58 0 .87-.09.12-.04.12-.07-.04-.19-.27-.2-.65-.18-.73.04m-9.64.3c-.1.15-.19.17-.43.12-.62-.13-.88.26-.48.73.23.26.31.21.38-.23.04-.22.1-.4.14-.4q.28-.02.68 1.27c.1.31.1.31-.21.26-.36-.05-.8.23-.9.57-.06.23.05.26.23.06.09-.11.18-.13.38-.05a1 1 0 0 0 .48.05q.22-.05.45.14l.24.2h-.22c-.25 0-.27.03-.37.45l-.08.3.24-.22A1 1 0 0 1 8.87 9c.07 0 .01.12-.12.26-.25.24-.33.55-.15.55.05 0 .2-.13.32-.3q.21-.29.45-.3.21 0 .23-.1-.01-.09-.24-.1a1 1 0 0 1-.47-.19c-.2-.17-.22-.21-.1-.46q.23-.53-.17-.15l-.22.2-.17-.34c-.13-.28-.14-.4-.05-.58.12-.26.21-.88.12-.88a1 1 0 0 0-.27.15c-.2.14-.22.13-.28-.16q-.08-.3.1-.48.3-.32 0-.31c-.08 0-.2.08-.26.18m8.77-.05c.04.06.13.2.2.28.11.12.12.23.04.43-.1.26-.1.26-.36.1L16 6.57l.04.42c.02.24.1.47.17.5.13.1.06.43-.15.74-.1.15-.14.16-.25.02-.2-.23-.25-.18-.25.22 0 .34-.03.38-.37.48-.46.13-.59.25-.27.25q.23 0 .56.38l.32.37v-.27a1 1 0 0 0-.2-.48l-.23-.2h.29c.16 0 .4.1.52.22l.23.21v-.25c0-.31-.23-.53-.47-.44q-.23.11.03-.14c.23-.24 1.29-.37 1.5-.18.23.18.17-.15-.06-.4s-.62-.37-.86-.28q-.18.08-.09-.11c.04-.1.11-.33.15-.52.1-.38.39-.82.6-.9q.11-.03.07.05c-.02.05-.02.26.02.47l.06.39.27-.26c.34-.3.36-.62.05-.72-.25-.09-.22-.09-.6 0q-.29.08-.27-.08-.01-.14-.16-.2-.39-.15-.28.07M9.6 7.06q-.2.64.1.43.15-.1.04-.15-.11-.06-.07-.24c.04-.16.08-.17.24-.07.2.13.27.33.07.2q-.1-.04.04.13c.16.19.16.2-.02.31q-.2.15-.23 0-.05-.1-.06.1c-.01.27.14.3.29.06q.14-.25.05.03c-.06.24.03.54.17.54q.07 0 .03-.1-.04-.09.05-.1.11 0 0-.2-.2-.37 0-.25.09.04.1-.1a.3.3 0 0 0-.14-.21q-.13-.06-.1-.18c.02-.06-.07-.22-.2-.33L9.7 6.7zm3.72.12q-.01.41.08.37.16-.08.1.34 0 .11.08.07.1-.03.2.2c.16.34.36.31.29-.05q-.06-.29.06-.35.12-.04-.1-.25-.24-.19-.1-.24.12-.04-.13-.25c-.14-.11-.27-.18-.3-.15q-.03.05.13.17c.22.17.22.21-.02.23q-.2.03-.24-.25-.05-.26-.05.16m-1.25 0c.03.15.1.37.15.5.09.16.08.28-.02.46l-.12.24-.24-.26c-.24-.28-.33-.16-.12.17.09.15.1.28 0 .55-.08.3-.07.4.08.58q.18.22.13.59-.04.36.07.44.13.1.05-.24-.06-.3.04-.31c.19 0 .12.56-.1.84-.11.14-.3.26-.4.26q-.34.02-.04-.26c.08-.09.15-.3.15-.47v-.3l-.2.21c-.12.12-.25.22-.3.22-.18 0-.18.3.01.54l.2.25-.28.07c-.57.12-.84.28-1 .56-.08.17-.12.32-.1.35.04.03.25 0 .49-.08q.44-.14.56-.42c.07-.15.3-.36.52-.47.51-.26.83-.68.77-1-.12-.58-.12-.64.05-.68q.16-.03.42.4l.26.43.06-.32.06-.32.24.32c.13.18.28.43.34.56.1.21.15.23.52.17.55-.09.58-.14.28-.38a.6.6 0 0 0-.5-.14c-.33.06-.43 0-.64-.42a1 1 0 0 0-.39-.42c-.23-.08-.17-.13.28-.23q.15-.05-.15-.06c-.2 0-.53.08-.75.19s-.4.18-.43.16c-.07-.07.6-.66.7-.6q.07.04.08-.05c0-.14-.34-.23-.55-.15-.1.04-.23.2-.3.38q-.15.35-.15.1c0-.1.12-.36.26-.55.49-.65.62-1.21.34-1.49q-.4-.41-.33.08m-.95 1.9c-.22.15-.1.45.23.53.37.1.4.07.23-.27-.15-.31-.27-.38-.46-.25m-3.2 2.08c-.65.04-.72.08-.47.27.13.1.11.21-.16.9-.16.45-.32.82-.33.84a5 5 0 0 1-.21-.83c-.18-.83-.18-.86 0-1 .18-.13.15-.14-.37-.15-.53 0-.77.12-.45.23.09.03.04.27-.17.9-.17.48-.32.85-.33.83a8 8 0 0 1-.23-.82l-.19-.79.22-.17c.21-.17.2-.18-.42-.18-.61 0-.63 0-.48.18.1.1.3.77.48 1.5s.34 1.32.37 1.32c.06 0 .2-.34.83-1.95.1-.29.13-.25.36.75.13.58.28 1.09.33 1.13.04.05.32-.53.61-1.28.49-1.23.7-1.58.85-1.42.03.02-.02.55-.1 1.16-.2 1.47-.2 1.61.03 1.61q.3-.02.3-.68c.01-.38.3-.82.53-.82.2 0 .2.04.16.63a3 3 0 0 0-.01.75c.07.18.48.15.66-.06.2-.22.24-.53.05-.34-.23.23-.28.12-.22-.43.1-.8-.27-1.1-.85-.68l-.24.16.06-.34q.23-1.3.1-1.27zm11.3.01c-.32.03-.44.17-.22.24q.12.04.05.51c-.07.46-.08.47-.42.47-.44 0-.93.45-.95.87-.02.43.02.67.13.8.15.18.63.16.79-.03.11-.14.13-.14.21 0 .05.09.18.16.29.16.2 0 .59-.33.59-.52q-.02-.08-.2.07c-.2.18-.2.17-.2-.03 0-.12.07-.71.16-1.33.08-.6.14-1.14.12-1.17s-.18-.06-.35-.04m-7.56.98c-.21.24-.33.44-.26.44.09 0 .1.17.05.64a3 3 0 0 0 0 .8c.09.23.47.2.72-.07.27-.29.28-.41.02-.25-.28.18-.33.06-.25-.57.06-.5.09-.55.3-.55q.23 0 .25-.1-.02-.09-.2-.1c-.14 0-.2-.08-.22-.34l-.03-.34zm1.4 0c-.21.24-.33.44-.26.44.09 0 .1.17.05.64-.08.75-.02.96.28.96.25 0 .74-.46.61-.57q-.07-.06-.12.04a.2.2 0 0 1-.19.13c-.15 0-.17-.23-.08-.82.06-.32.1-.38.3-.38.13 0 .24-.04.24-.1q-.02-.09-.23-.1c-.2 0-.23-.04-.19-.35.02-.2.03-.35 0-.35-.01 0-.2.2-.41.45m2.59.24c-.03.05-.26.06-.5.04-.4-.05-.48-.02-.75.24-.58.59-.47 1.53.18 1.53.16 0 .34-.07.42-.16.11-.14.13-.14.21 0 .12.22.44.2.68-.04.27-.27.26-.48-.01-.24l-.22.19.07-.82c.07-.78.05-.95-.08-.74m-5.56.11q.01.09.1.1.12 0 .08.78c-.03.73-.02.77.19.8.12.02.3-.06.42-.17.28-.28.27-.5 0-.25l-.21.19.07-.77.07-.78h-.36c-.2 0-.36.04-.36.1m6.16.12c-.19.26-.13.36.1.17.16-.13.17-.08.1.64-.06.73-.06.77.13.77.15 0 .22-.09.26-.37q.2-1.14.4-1.13c.07 0 .16.06.18.13q.05.13.16-.03c.27-.38-.14-.57-.5-.23-.18.15-.19.15-.19 0 0-.25-.46-.21-.64.05m-1.5.11c-.25.37-.31.9-.13 1.05.33.28.59-.09.61-.87.01-.44-.25-.54-.49-.18m3.66-.1c-.34.42-.31 1.27.04 1.27.2 0 .47-.63.43-1.03-.03-.35-.27-.47-.47-.23M6.62 14.96c-.26.18-.3.65-.06.88.17.17.7.22.79.07.03-.06-.12-.11-.32-.13-.3-.02-.39-.07-.41-.26-.05-.34.16-.54.5-.47s.39-.1.06-.19c-.31-.08-.3-.08-.56.1m1.85-.1c-.04.04-.07.16-.07.26q.01.19-.25.18-.26.01-.25-.2 0-.18-.1-.2c-.05 0-.1.25-.1.55s.05.55.1.55q.1-.02.1-.25c0-.2.05-.25.25-.25s.25.05.25.25q0 .23.1.25c.06 0 .1-.27.1-.6 0-.6-.01-.65-.13-.53m2.46 0c-.23.09-.15.49.13.61.28.14.22.37-.08.29q-.19-.05-.15.06c.05.17.35.2.52.07.22-.18.18-.39-.1-.52-.3-.14-.35-.42-.05-.33.24.07.27-.1.04-.19l-.17-.05zm4.39.05c-.19.19-.15.97.04 1.05.29.1.49-.11.49-.52 0-.53-.27-.8-.53-.53m1.01-.04c-.16.1-.2.89-.06 1.03.06.06.2.1.3.07.32-.06.28-1.19-.06-1.18zm1.04.1c-.37.41-.3 1.02.14 1.02.28 0 .43-.35.23-.54-.08-.09-.2-.16-.25-.16q-.09-.02.01-.2c.15-.28.07-.35-.13-.13m-8.47.48V16h.35c.2 0 .35-.04.35-.1q-.02-.1-.25-.1-.25 0-.25-.15.01-.15.26-.15.23 0 .19-.1c-.03-.06-.15-.1-.26-.1-.28 0-.19-.23.12-.31q.32-.08-.13-.08l-.38-.01zm1 0V16h.35c.2 0 .35-.04.35-.1q-.02-.1-.25-.1c-.23 0-.25-.04-.25-.45 0-.25-.04-.45-.1-.45-.05 0-.1.25-.1.55m1.9 0V16h.36c.2 0 .33-.04.29-.1-.03-.06-.15-.1-.26-.1q-.17-.02-.19-.15.02-.13.2-.15.18 0 .2-.1-.02-.1-.2-.1c-.27 0-.25-.28.03-.33q.24-.04-.1-.06l-.33-.01zm1.06-.02c-.24.53-.25.76-.02.44.17-.22.52-.22.65 0q.1.15.17.1c.09-.08-.35-1.07-.48-1.07-.05 0-.19.24-.32.53m1.74.02c0 .3.04.55.1.55s.1-.25.1-.55-.04-.55-.1-.55c-.05 0-.1.25-.1.55"/></svg>