<svg xmlns="http://www.w3.org/2000/svg" width="24" height="24" viewBox="0 0 24 24"><path fill="#e1e4e7" fill-rule="evenodd" d="M3.02 8.93 3 13.1h18l-.02-4.17c-.02-3.38-.03-3.78-.07-2.08-.06 2.05-.07 2.11-.33 2.56a3.7 3.7 0 0 1-1.55 1.4c-.43.18-.76.19-8.19.19H3.1l-.03-3.12c-.02-2.96-.02-2.9-.05 1.05m1.65-2.66c-.04.03-.07.69-.07 1.45V9.1h1.08c1.05 0 1.08 0 1.45-.3l.37-.31v-2.3l-.37.03-.38.03-.03.8c-.01.44-.05.9-.07 1.03-.1.44-.2.2-.2-.46v-.67h-.7l-.03.73c-.02.55-.06.72-.17.72s-.15-.2-.15-1.1V6.2h-.33c-.19 0-.37.03-.4.07m3.13.23c0 .28.03.3.35.3s.35-.02.35-.3-.03-.3-.35-.3-.35.02-.35.3m1 0c0 .28.03.3.35.3s.35-.02.35-.3-.03-.3-.35-.3-.35.02-.35.3m9.9 1.15V9.1h.7V6.2h-.7zM7.87 6.97c-.04.03-.07.53-.07 1.1V9.1h.7V6.9h-.28c-.16 0-.32.03-.35.07m1 0c-.04.03-.07.7-.07 1.5V9.9h.7v-3h-.28c-.16 0-.32.03-.35.07m.93.33c0 .38.01.4.32.4h.32l-.32.33c-.24.25-.32.42-.32.7v.37h1.7v-.35c0-.33-.02-.35-.31-.35h-.31l.36-.4c.3-.33.37-.48.34-.73l-.03-.32-.87-.03-.88-.03zm2.33-.15c-.4.34-.58.83-.43 1.22.26.67.9.99 1.5.74.74-.3.95-1.22.42-1.8a1.07 1.07 0 0 0-1.5-.16m4.6 0c-.59.5-.65 1.08-.16 1.65.66.79 1.94.3 1.94-.73q0-.7-.6-1.01-.66-.33-1.18.1m-2.62.9V9.1h.8v-.76c0-.66.02-.75.18-.72.14.03.18.16.2.76l.03.72h.79v-.78c0-.73-.02-.8-.28-1.05-.25-.24-.36-.27-1-.27h-.72zm-1.54-.32c-.29.2-.17.61.18.65.43.05.6-.32.3-.62-.19-.2-.25-.2-.48-.03m4.6 0c-.29.2-.17.61.18.65.43.05.6-.32.3-.62-.19-.2-.25-.2-.48-.03m-6.32 3.98c-.08.14-.07.96.02 1.1.12.2.25-.07.26-.54 0-.26.05-.47.1-.47q.07 0 .03-.1c-.08-.13-.32-.13-.4.01m-3.95.59c0 .33.04.6.1.6q.09-.01.1-.15c0-.2.17-.19.29.02q.1.15.17.1c.05-.04.03-.17-.04-.28-.1-.16-.1-.24-.01-.35q.14-.15-.05-.14-.15.01-.16.1a.1.1 0 0 1-.1.1c-.05 0-.1-.13-.1-.3s-.04-.3-.1-.3-.1.27-.1.6m-.97-.23c-.24.09-.13.23.12.17q.24-.05.25.04-.02.1-.22.14a.3.3 0 0 0-.26.25c-.03.2 0 .22.37.2.38-.01.4-.02.34-.32-.1-.57-.2-.65-.6-.48m3.15.04q-.17.11-.18.4c0 .22.05.3.24.35.14.03.33.01.43-.05.15-.09.13-.1-.14-.1-.18 0-.33-.05-.33-.11s.13-.1.3-.1c.35 0 .41-.23.1-.4-.22-.12-.2-.12-.42 0m1.15-.02c-.2.03-.23.1-.23.43 0 .21.05.39.1.39s.1-.12.1-.26.08-.33.17-.4q.32-.23-.14-.16m-5.38.38.15.4q.01.04.13.04c.08 0 .21-.18.3-.4.11-.3.12-.4.03-.4q-.12.02-.23.28l-.1.27-.08-.28c-.04-.15-.13-.27-.21-.27-.12 0-.12.06 0 .36m3.06-.3c0 .22.26.74.37.74.07 0 .2-.16.28-.36.18-.43.18-.44.05-.44q-.1.02-.21.28l-.11.27-.1-.28c-.09-.24-.28-.38-.28-.2"/></svg>