<svg xmlns="http://www.w3.org/2000/svg" width="24" height="24"><path fill="#dfd4bc" fill-rule="evenodd" d="M4.53 7.29c-.28.1-.67.3-.86.44-.62.47-.85 1.31-.48 1.78.1.13.21.33.25.45.03.11.2.34.37.5l.3.29h16.94l-8.42-.05-8.42-.05-.3-.3c-.17-.16-.31-.37-.31-.47 0-.15.08-.18.46-.18s.5-.05.75-.3c.3-.33.45-.85.35-1.24-.05-.21-.02-.25.3-.3q.74-.17.28.37c-.15.17-.42.64-.6 1.04-.24.54-.4.76-.59.83-.39.15-.22.29.25.2.22-.04.42-.04.45 0 .08.13.7-.02.94-.24.13-.11.56-.64.96-1.17s.85-1.03 1-1.13c.3-.2.86-.25 1.25-.12q.35.14.05-.08c-.31-.24-.95-.2-1.41.1-.23.15-.72.68-1.12 1.23-.76 1.03-1.43 1.75-.84.91.17-.25.43-.77.58-1.15s.31-.76.37-.83q.09-.12 0-.12c-.17 0-.86.8-1.2 1.4-.37.63-.5.79-.78 1-.18.14-.18.14.01-.15.12-.16.4-.67.64-1.12.3-.58.5-.83.67-.87.12-.04.23-.11.23-.17q-.02-.1-.2-.06c-.11.03-.35 0-.54-.05-.27-.08-.47-.06-1.03.11q-1.22.4-1.4 1.19c-.07.4-.2.5-.28.23-.16-.51.66-1.46 1.53-1.75.64-.22 1.66-.2 2.22.04.45.2.45.2.22 0-.5-.42-1.7-.52-2.59-.21m8.8.37c-.42.28-.2.8.25.63.12-.05.22-.14.22-.2q0-.15-.12-.01c-.2.2-.4.14-.36-.1.05-.33.5-.46.82-.24.21.13.26.24.26.6 0 .79-.5 1.76-.9 1.76-.26 0-.26-.02.15-.59.39-.54.47-1.01.17-1.01a.5.5 0 0 0-.31.13q-.13.15-.18 0-.06-.12-.22-.13c-.1 0-.23.06-.3.13q-.13.15-.18 0c-.11-.3-.45-.09-1.14.72-.39.47-.73.85-.75.85-.15 0 .03-.37.43-.87l.55-.7c.06-.08-.05-.11-.42-.11-.47 0-.56.03-.95.39-.23.22-.48.53-.55.69s-.23.36-.36.45c-.4.26-.3-.06.23-.72l.56-.7q.11-.14-.11-.13-.2-.01-.76.74c-.52.71-.96 1.1-.96.86 0-.05.38-.58.85-1.17s.85-1.1.85-1.14q-.02-.06-.17-.05c-.1.02-.57.54-1.06 1.17-.48.62-.94 1.17-1.02 1.22-.35.2-.1-.25.7-1.25q.83-1.05.7-1.11c-.18-.07-.24-.01-1 .98-.79 1.03-1.15 1.45-1.27 1.45-.17 0-.06-.2.47-.88.3-.39.55-.73.55-.76q-.02-.05-.18-.06c-.21 0-1.12 1.24-1.12 1.53 0 .24.28.33.53.17q.21-.15.25-.01c.05.14.35.14.49 0q.1-.12.32.03c.17.1.25.1.41 0s.24-.1.4 0c.14.1.22.1.33 0s.2-.1.35 0c.16.1.23.1.35 0s.2-.1.37 0c.2.12.24.1.58-.27l.73-.84c.2-.24.42-.42.48-.4.08.03-.1.32-.43.74-.6.74-.65.85-.42.85.08 0 .43-.36.77-.8s.68-.8.75-.8c.21 0 .18.06-.41.8-.6.72-.63.8-.4.8.08 0 .4-.33.72-.74q.77-1 .9-.83c0 .02-.13.25-.33.52-.4.56-.43.98-.08 1.03.51.07 1.32-1.33 1.2-2.08-.1-.62-.73-.9-1.24-.54m1.53-.04c-.03.08-.04.7-.03 1.39l.03 1.24h.8l.03-.52c.02-.38.07-.53.18-.53s.14.14.14.55v.55h.8V7.5H16V8c0 .37-.04.5-.14.5q-.15.01-.18-.47c-.03-.48-.03-.48-.4-.51q-.38-.03-.43.1M17.1 8.9v1.4h.8V7.5h-.8zm1.07-1.34c-.04.04-.07.67-.07 1.4v1.34h1.4v-.45c0-.41-.02-.45-.25-.45s-.24-.02-.27-.93l-.03-.92-.35-.03c-.2-.02-.39 0-.43.04M19.7 8.9v1.4H21v-.45c0-.41-.02-.45-.25-.45-.25 0-.25 0-.25-.95V7.5h-.8zM4.02 8.33c-.23.24-.52.87-.52 1.12q.02.13.18.15c.14 0 .17-.07.14-.37-.03-.28.03-.48.22-.76q.45-.63-.02-.14m.34.12c-.4.4-.51.67-.38.91.08.14.13.11.36-.22.3-.46.35-.36.05.12q-.34.59.24.13c.28-.22.54-.88.44-1.13q-.15-.38-.7.19m1.69.54c-.08.15-.31.5-.5.75-.2.25-.32.46-.27.46.2 0 .52-.39.76-.92.26-.6.26-.8 0-.3m4.48.08c-.34.37-.68.92-.6 1 .11.11.41-.13.77-.64.22-.3.4-.59.4-.64 0-.18-.24-.06-.57.28"/></svg>