<svg xmlns="http://www.w3.org/2000/svg" width="24" height="24"><path fill="#258843" fill-rule="evenodd" d="M11.22 6.1c-.1.17-.21.2-.48.18-.32-.02-.37 0-.5.3q-.13.33-.37.32c-.34 0-.39.1-.2.41l.17.28.35-.36c.39-.4 1.03-.72 1.44-.73q.29.01.27-.2c0-.17-.26-.4-.47-.4-.04 0-.14.1-.21.2m1.05-.1a.4.4 0 0 0-.17.3q-.02.21.28.2c.4 0 1.04.33 1.43.73l.35.36.17-.28c.19-.32.14-.41-.2-.41-.18 0-.28-.09-.38-.32-.12-.3-.17-.32-.49-.3-.27.03-.38-.01-.48-.17-.14-.23-.25-.25-.5-.1m-1.4.87c-.47.25-1.2 1.04-1.07 1.16.1.09 1.25-.16 1.4-.3.32-.29 1-.3 1.55-.01.27.14.73.28 1.03.32l.54.06-.18-.28c-.75-1.19-2.07-1.57-3.26-.95m-7.84.02c.14.23.96.3 3.31.3 2.3-.01 2.48 0 2.57.17.2.38.67.58.67.28q0-.13-.1-.15c-.05 0-.13-.15-.18-.32l-.08-.33-3.13-.03c-2.04-.01-3.1.01-3.06.08m11.72-.03c-.04.03-.07.14-.07.23 0 .1-.1.25-.2.35q-.2.18-.1.29c.13.13.55-.1.67-.36.08-.18.2-.2 2.56-.18 2.36 0 3.18-.07 3.32-.3.07-.11-6.07-.14-6.18-.03M3.7 7.45c.17.21.87.38 1.26.3.3-.05.32-.08.21-.25-.1-.17-.23-.2-.86-.2-.64 0-.72.02-.61.15m1.6-.04c0 .05.17.17.38.26.32.14.53.15 1.6.05l1.22-.1.3.29c.15.16.36.29.44.29.23 0 .2-.08-.14-.37-.16-.13-.3-.31-.3-.39 0-.12-.31-.14-1.75-.14q-1.74 0-1.75.1m9.85.1c-.03.1-.17.28-.3.39q-.43.32-.1.31c.1 0 .3-.13.46-.3l.3-.29 1.22.11c1.06.1 1.27.09 1.6-.05.7-.3.45-.37-1.37-.37-1.65 0-1.75.01-1.8.2m3.67 0c-.11.17-.1.2.22.26.39.07 1.16-.14 1.23-.33.03-.1-.15-.13-.65-.13-.57 0-.7.03-.8.2m-7.3.2c-.38.16-.27.2.49.2.52 0 .69-.03.61-.1-.15-.16-.83-.22-1.1-.1m-4.88.2-1 .05.28.19c.24.16.39.18 1.08.12 1.46-.12 1.7-.17 1.58-.32s-.15-.15-1.94-.05m8.72.03c-.06.17.25.23 1.68.34.72.06.83.04 1.05-.14l.25-.21h-.71c-.39 0-1.05-.04-1.46-.07-.62-.06-.76-.04-.8.08m-11 .18c.18.15.4.2.78.2.3 0 .54-.04.54-.08q0-.33-.9-.32h-.65zm13.97-.04c-.1.24-.1.24.4.24.4 0 1.04-.22 1.04-.35 0-.03-.31-.05-.69-.05-.54 0-.7.04-.75.16m-7.9.05c-1.17.17-2.22.5-3.32 1.04a8 8 0 0 0-1.27.73c-.15.16-.14.2.1.5.13.18.29.3.34.26s0-.17-.11-.32c-.2-.25-.2-.27-.03-.4a13 13 0 0 1 2.45-1.16q1.09-.34 2.7-.52c.32-.03.58-.1.58-.15 0-.1-.62-.1-1.45.02m1.65-.03c0 .1.22.15 1.43.27 1.2.13 2.86.74 3.99 1.46l.47.3-.22.32a7 7 0 0 1-.48.6l-.27.3-.28-.2a10 10 0 0 0-2.34-1.08c-.94-.3-2.3-.45-2.3-.26 0 .06.16.11.35.11 1.05 0 2.75.56 4 1.32l.68.4.23-.28c.13-.16.23-.35.24-.41q0-.12.09-.13c.04 0 .2-.17.34-.38l.25-.38-.57-.36a11 11 0 0 0-4.88-1.63q-.73-.07-.73.03m-4.2.23a8 8 0 0 1-1.09.08c-.53 0-.62.03-.52.15.2.23.81.24 1.46.03.33-.1.64-.24.7-.28.1-.1.1-.1-.55.02m7.5-.08c0 .03.35.17.78.31q1.2.4 1.52.01c.08-.1-.13-.13-.94-.18a9 9 0 0 1-1.36-.14m-10.5.3c0 .14.4.27.84.27q.7 0 .32-.3c-.15-.11-1.16-.1-1.16.02m5.62.04c-.28.19-.29.57-.02.84.35.35 1.1.19 1.1-.23 0-.2-.05-.24-.3-.23-.16 0-.3.06-.3.13q.02.1.2.06t.2.06c0 .17-.48.25-.65.1a.5.5 0 0 1-.15-.35c0-.26.28-.4.66-.3q.25.07.24-.09c0-.2-.68-.2-.98 0m1.97 0c-.18.23 0 .49.4.55.17.03.3.1.29.15-.03.11-.35.12-.6 0q-.19-.08-.18.08c0 .21.84.34 1.05.17.3-.25.18-.5-.3-.62-.25-.07-.45-.16-.45-.2 0-.11.38-.1.6.02q.2.1.32.04c.16-.1-.3-.33-.68-.34-.17 0-.37.07-.45.16m5.43-.04q-.32.29.28.28c.38 0 .9-.17.9-.3 0-.1-1.06-.1-1.18.02m-4.12.06q.01.1.16.2c.13.07.15.18.1.43-.09.5-.09.53.03.57.06.02.16-.17.22-.43.1-.37.15-.45.32-.43.11.02.22-.02.24-.08.02-.07-.13-.14-.36-.18l-.55-.12q-.15-.04-.16.04m-3.93.38.06.37-.39-.27A2 2 0 0 0 9 8.8c-.15 0-.15.04 0 .55.09.3.22.55.29.55.15 0 .15-.1.02-.44-.12-.32-.08-.32.38-.01.33.23.62.32.62.2l-.1-.55c-.14-.6-.42-.73-.33-.14M6.2 8.91c-.14.04-.4.08-.6.08-.33.02-.34.02-.16.16.25.19.77.2 1.21 0 .2-.07.35-.16.35-.18 0-.09-.56-.13-.8-.06m11.05 0-.3.06.37.16c.46.2.98.22 1.24.02.18-.14.18-.14-.11-.15a3 3 0 0 1-.6-.08 2 2 0 0 0-.6-.02m-8.79.08c-.07.11.25 1.12.35 1.12.17 0 .17-.2.02-.68q-.22-.73-.37-.44m6.47.07c-.48.34-.18 1.05.44 1.05q.55-.01.56-.56c0-.49-.6-.78-1-.49m-6.8.02q-.11.05-.06.41l.06.37-.31-.3c-.27-.24-.32-.26-.38-.11-.03.09-.04.3 0 .48l.06.32-.3-.29q-.3-.3-.4-.19c-.12.12.74.94.9.85q.08-.07 0-.44c-.1-.43.02-.48.26-.12q.46.68.37-.37c-.07-.72-.05-.66-.2-.61m6.8.3c-.09.23.1.48.37.48.3 0 .48-.28.3-.5-.16-.2-.59-.2-.67.01m1.04.46c-.2.39-.23.54-.14.6q.12.07.21-.12c.1-.24.15-.24.52-.06.42.22.8-.05.56-.4-.07-.1-.75-.54-.84-.54-.03 0-.17.23-.31.52m-5.82.05c-.83.17-1.9.6-2.69 1.08l-.56.34-.22-.3c-.32-.42-.42-.24-.11.22l.26.4.3-.21a9 9 0 0 1 4.05-1.47c.4-.03.72-.1.72-.14 0-.14-.97-.1-1.75.08m1.26.22q-.16.09.23.2c.28.1.44.1.72 0q.4-.12.23-.2c-.18-.11-1-.11-1.18 0m-1.01.08c-.4.08-.43.19-.1.52.53.52.87.66 1.7.66.64 0 .82-.04 1.22-.28.47-.27.81-.64.73-.77-.03-.04-.24-.1-.48-.13a1.2 1.2 0 0 0-.83.13c-.48.25-.8.25-1.29 0-.4-.2-.48-.21-.95-.13m-1.2.48a6 6 0 0 0-1.67.8c.02.03.43-.04.91-.15a6 6 0 0 1 1.3-.18c.34.03.43.08.56.33.12.24.2.3.44.27q.28-.03.51.18c.2.18.27.2.44.1.3-.16.28-.5-.04-.5-.4 0-.97-.28-1.4-.7l-.4-.38zm4.77-.04c-.19.31-.83.71-1.35.84-.55.14-.67.39-.27.57.23.1.28.09.41-.1.13-.18.24-.23.52-.2.3.02.37 0 .4-.17.1-.53.52-.57 1.9-.21.51.13.92.2.92.16 0-.08-1.34-.72-1.98-.94-.4-.14-.43-.14-.55.05"/></svg>