<svg width="24" height="24" xmlns="http://www.w3.org/2000/svg" xmlns:xlink="http://www.w3.org/1999/xlink" xml:space="preserve" overflow="hidden" viewBox="1717 1309 324 325">
<g>
<path d="M1717 1471.5C1717 1381.75 1789.53 1309 1879 1309 1968.47 1309 2041 1381.75 2041 1471.5 2041 1561.25 1968.47 1634 1879 1634 1789.53 1634 1717 1561.25 1717 1471.5Z" fill="#01472B" fill-rule="evenodd"/>
<path d="M1922 1502.79 1919.6 1502.79 1898.86 1415 1858.13 1415 1837.4 1502.79 1834.99 1502.79 1819.08 1415 1781 1415 1812.82 1539 1855.96 1539 1876.93 1454.43 1879.1 1454.43 1900.79 1539 1943.94 1539 1976 1415 1938.15 1415 1922 1502.79Z" fill="#FFFFFF" fill-rule="evenodd"/>
</g>
</svg>