<?xml version="1.0" encoding="UTF-8"?>
<svg version="1.1" xmlns="http://www.w3.org/2000/svg" width="409" height="78">
<path d="M0 0 C6.27 0 12.54 0 19 0 C21.26859315 8.7018177 23.09735412 17.40091026 24.6875 26.25 C25.02491211 28.10044922 25.02491211 28.10044922 25.36914062 29.98828125 C25.91625175 32.99157213 26.45981076 35.99545782 27 39 C27.2673999 37.88963379 27.5347998 36.77926758 27.81030273 35.63525391 C28.80117949 31.52349461 29.7952439 27.41251158 30.7902832 23.30175781 C31.22084426 21.52104433 31.65053559 19.74012032 32.0793457 17.95898438 C32.69515177 15.40178739 33.31406139 12.84535891 33.93359375 10.2890625 C34.12529648 9.49005524 34.31699921 8.69104797 34.51451111 7.86782837 C35.88612829 2.22774341 35.88612829 2.22774341 37 0 C43.6 0 50.2 0 57 0 C59.1241887 4.9564403 60.60403637 8.8711566 61.7890625 13.9921875 C62.09070312 15.27351563 62.39234375 16.55484375 62.703125 17.875 C63.01089271 19.20822353 63.31817895 20.54155829 63.625 21.875 C64.23775202 24.51930923 64.85605291 27.16217252 65.4765625 29.8046875 C65.74549316 30.96983887 66.01442383 32.13499023 66.29150391 33.33544922 C66.73563641 35.90285578 66.73563641 35.90285578 68 37 C68.20681396 35.91468994 68.41362793 34.82937988 68.62670898 33.71118164 C69.39249628 29.69805743 70.16336068 25.68592269 70.93579102 21.67407227 C71.26986835 19.93508187 71.60255416 18.19582357 71.93383789 16.45629883 C72.40929467 13.96103909 72.88969035 11.46677462 73.37109375 8.97265625 C73.51904892 8.19036148 73.66700409 7.40806671 73.81944275 6.60206604 C74.88612829 1.11387171 74.88612829 1.11387171 76 0 C77.4887186 -0.08669432 78.981445 -0.10703494 80.47265625 -0.09765625 C81.37177734 -0.09443359 82.27089844 -0.09121094 83.19726562 -0.08789062 C84.61555664 -0.07532227 84.61555664 -0.07532227 86.0625 -0.0625 C87.4865918 -0.05573242 87.4865918 -0.05573242 88.93945312 -0.04882812 C91.29303065 -0.0370011 93.64648477 -0.02052025 96 0 C93.2809125 11.95218425 90.25321089 23.80263373 87.0534668 35.63476562 C86.30038183 38.41981528 85.55126126 41.20590966 84.80273438 43.9921875 C84.32314011 45.77349767 83.84333076 47.55474996 83.36328125 49.3359375 C83.14037918 50.16394867 82.91747711 50.99195984 82.68782043 51.84506226 C81.85483308 54.92292795 81.00856163 57.9743151 80 61 C72.41 61 64.82 61 57 61 C56.36191406 58.58042969 55.72382812 56.16085938 55.06640625 53.66796875 C54.447742 51.32472699 53.82874556 48.98157322 53.2097168 46.63842773 C52.77968152 45.0099388 52.34999166 43.38135862 51.9206543 41.75268555 C51.30348037 39.41170561 50.68506502 37.07105665 50.06640625 34.73046875 C49.87470352 34.00224411 49.68300079 33.27401947 49.48548889 32.52372742 C48.72547231 29.65230579 47.93959909 26.81879726 47 24 C46.7326001 25.04978027 46.4652002 26.09956055 46.18969727 27.18115234 C45.198674 31.06927532 44.20465333 34.95662672 43.2097168 38.84375 C42.77920812 40.52745952 42.34951681 42.21137825 41.9206543 43.89550781 C41.30471213 46.31370389 40.68585156 48.73113675 40.06640625 51.1484375 C39.87470352 51.9036972 39.68300079 52.65895691 39.48548889 53.43710327 C38.11387171 58.77225659 38.11387171 58.77225659 37 61 C29.74 61 22.48 61 15 61 C12.97756426 55.60683803 11.22557172 50.49184032 9.84375 44.94921875 C9.65534546 44.20976517 9.46694092 43.47031158 9.27282715 42.70845032 C8.67764188 40.36918542 8.08856495 38.02843838 7.5 35.6875 C6.91177684 33.36389746 6.32226359 31.04062795 5.73193359 28.71755981 C5.35049571 27.21459669 4.9705932 25.711243 4.59228516 24.20748901 C3.34227981 19.2586484 1.98677507 14.35126797 0.49804688 9.46801758 C0 7 0 7 0 0 Z " fill="#00452A" transform="translate(0,16)"/>
<path d="M0 0 C5.94 0 11.88 0 18 0 C18 25.41 18 50.82 18 77 C12.39 77 6.78 77 1 77 C0.505 73.535 0.505 73.535 0 70 C-0.45890625 70.40992187 -0.9178125 70.81984375 -1.390625 71.2421875 C-2.00421875 71.78101562 -2.6178125 72.31984375 -3.25 72.875 C-3.85328125 73.40867187 -4.4565625 73.94234375 -5.078125 74.4921875 C-11.56952607 79.58503468 -20.10056528 78.92198568 -28 78 C-33.93749259 76.28419233 -38.32017026 72.57625028 -41.78125 67.5 C-45.52183924 59.82699642 -46.82526608 50.47773339 -46 42 C-45.91878906 41.11699219 -45.83757812 40.23398437 -45.75390625 39.32421875 C-44.65394278 31.12552193 -41.44536745 25.44536745 -35.625 19.625 C-27.90926444 14.84859227 -19.78263006 13.40916495 -10.8515625 15.50390625 C-6.40025476 17.20473344 -4.53759418 19.46240582 -1 23 C-0.67 15.41 -0.34 7.82 0 0 Z M-23 33 C-27.58864588 38.06333338 -27.27689821 43.28981334 -27.21875 49.82421875 C-26.89221273 54.56484023 -25.49417195 57.33342359 -22.375 60.8125 C-17.98833479 63.00583261 -13.52287727 63.65909077 -8.7421875 62.41015625 C-4.99152235 60.79778544 -3.26156491 59.40052127 -1 55.9375 C0.98419345 49.9591509 0.8516557 43.46531913 -1.1875 37.5625 C-3.70341202 34.00552094 -5.78550136 31.5976281 -10.11328125 30.4296875 C-15.25363728 29.61759764 -18.58683908 29.95281746 -23 33 Z " fill="#004629" transform="translate(282,0)"/>
<path d="M0 0 C7.27657103 7.98805797 8.23895673 15.52802655 8.0390625 26.125 C7.45766019 33.99008124 4.48687306 40.45525185 -1.2421875 45.9296875 C-9.83815788 51.55073188 -16.80660717 53.29232636 -26.9921875 53.3046875 C-28.03890625 53.32917969 -29.085625 53.35367188 -30.1640625 53.37890625 C-39.72575803 53.41476261 -48.17779295 50.58889234 -55.2421875 43.9296875 C-62.20182136 35.17937862 -63.06167831 25.83521902 -62.2421875 14.9296875 C-60.40697518 6.45020282 -55.2344276 -0.17436529 -48.2421875 -5.0703125 C-33.32250339 -13.66208671 -12.585382 -11.87204051 0 0 Z M-38.2421875 8.9296875 C-43.45370417 14.27149209 -43.65831288 18.45372791 -43.578125 25.71875 C-43.26500648 28.71158054 -43.02464949 30.19800956 -41.2421875 32.5546875 C-36.02361399 36.6860582 -31.75107869 38.27303629 -25.0546875 37.8046875 C-19.8544734 37.0561115 -16.81103311 35.55696312 -13.14453125 31.75390625 C-9.69819238 26.63747298 -10.46282906 20.85837848 -11.2421875 14.9296875 C-12.63562604 11.25851288 -14.84872065 9.5718724 -18.4375 7.91796875 C-25.60225409 5.30507988 -31.34465623 5.709149 -38.2421875 8.9296875 Z " fill="#004529" transform="translate(158.2421875,25.0703125)"/>
<path d="M0 0 C6.39587526 4.99420094 8.63596315 10.9032276 10.55859375 18.59375 C10.91852403 22.91291339 10.80859375 27.25961546 10.80859375 31.59375 C-2.06140625 31.59375 -14.93140625 31.59375 -28.19140625 31.59375 C-25.96677976 38.23024094 -25.96677976 38.23024094 -22.921875 40.5078125 C-14.58292015 43.8243067 -4.27836326 41.95869958 3.80859375 38.59375 C5.81712765 37.61100305 7.81899071 36.61427915 9.80859375 35.59375 C11.02437701 49.96363265 11.02437701 49.96363265 8.23828125 53.69921875 C6.09782096 55.02174649 4.21072394 55.84659914 1.80859375 56.59375 C0.9371875 56.94695312 0.06578125 57.30015625 -0.83203125 57.6640625 C-10.43979254 60.32295458 -23.02007399 60.29246188 -32.12890625 56.15625 C-39.73132379 51.53198748 -43.51674493 44.73084257 -45.72265625 36.26171875 C-47.64937345 25.29548669 -45.96818719 14.70817878 -39.703125 5.4140625 C-30.04123649 -6.2201495 -12.58287074 -8.07456946 0 0 Z M-26.19140625 13.59375 C-27.18140625 15.90375 -28.17140625 18.21375 -29.19140625 20.59375 C-21.93140625 20.59375 -14.67140625 20.59375 -7.19140625 20.59375 C-8.11376865 14.3855117 -8.11376865 14.3855117 -12.19140625 10.59375 C-17.61243131 7.88323747 -21.89168955 9.86732886 -26.19140625 13.59375 Z " fill="#004629" transform="translate(352.19140625,19.40625)"/>
<path d="M0 0 C6.29184353 5.75420332 8.00682692 11.66142983 9 20 C9.12519978 23.07279309 9.11708283 26.1399284 9.09765625 29.21484375 C9.0962413 30.07058487 9.09482635 30.92632599 9.09336853 31.80799866 C9.0878099 34.51786931 9.07526525 37.22765468 9.0625 39.9375 C9.05747965 41.78450401 9.05291768 43.63150932 9.04882812 45.47851562 C9.03870864 49.98573568 9.01912543 54.49277335 9 59 C3.06 59 -2.88 59 -9 59 C-9.03738281 56.41027344 -9.07476562 53.82054687 -9.11328125 51.15234375 C-9.15957486 48.62695164 -9.21077988 46.10170315 -9.26245117 43.57641602 C-9.29557767 41.82976101 -9.32364737 40.08300212 -9.34643555 38.33618164 C-9.38020881 35.8161213 -9.43253347 33.29700248 -9.48828125 30.77734375 C-9.49467117 30.00414291 -9.5010611 29.23094208 -9.50764465 28.43431091 C-9.64571598 23.27087871 -10.62116153 19.60376295 -13 15 C-15.02681076 13.19839043 -16.25341041 12.99546606 -18.9296875 13.01171875 C-21.94168868 13.25996061 -24.30126971 13.55747082 -26.875 15.1875 C-30.03256622 20.27469001 -30.32497297 25.62646654 -30.4140625 31.4609375 C-30.43342865 32.25150543 -30.4527948 33.04207336 -30.4727478 33.8565979 C-30.53216053 36.36262483 -30.57877427 38.86869865 -30.625 41.375 C-30.66321513 43.08205043 -30.70226889 44.78908231 -30.7421875 46.49609375 C-30.83939725 50.66396173 -30.91926744 54.8316505 -31 59 C-36.61 59 -42.22 59 -48 59 C-48 38.87 -48 18.74 -48 -2 C-43.05 -2 -38.1 -2 -33 -2 C-30.95301586 0.04698414 -31.29954307 4.30411241 -31 7 C-29.9171875 5.6078125 -29.9171875 5.6078125 -28.8125 4.1875 C-21.67834136 -4.35736797 -9.44726222 -5.63202171 0 0 Z " fill="#00452A" transform="translate(221,18)"/>
<path d="M0 0 C1.14662109 0.00966797 1.14662109 0.00966797 2.31640625 0.01953125 C4.4375 0.1875 4.4375 0.1875 7.4375 1.1875 C7.4375 7.4575 7.4375 13.7275 7.4375 20.1875 C4.9315625 19.8471875 4.9315625 19.8471875 2.375 19.5 C-3.01527115 19.04213913 -6.06373455 19.09459875 -10.5625 22.1875 C-14.62374827 29.83730969 -14.12115824 38.24141271 -14.25 46.6875 C-14.28322283 48.19273718 -14.31771697 49.69794687 -14.35351562 51.203125 C-14.44021364 54.86460404 -14.50075155 58.52517832 -14.5625 62.1875 C-20.5025 62.1875 -26.4425 62.1875 -32.5625 62.1875 C-32.58505497 54.38174413 -32.60341738 46.57600593 -32.61431217 38.77022648 C-32.61954002 35.1460404 -32.62663587 31.5218777 -32.63793945 27.89770508 C-32.64877184 24.40290025 -32.65477758 20.90811796 -32.65737724 17.41329765 C-32.66013551 15.42510611 -32.66794688 13.43692369 -32.67579651 11.44874573 C-32.67587204 10.24757614 -32.67594757 9.04640656 -32.67602539 7.80883789 C-32.678246 6.74516495 -32.68046661 5.681492 -32.68275452 4.58558655 C-32.5625 2.1875 -32.5625 2.1875 -31.5625 1.1875 C-28.86595146 1.11430379 -26.19558542 1.09507463 -23.5 1.125 C-22.74138672 1.12951172 -21.98277344 1.13402344 -21.20117188 1.13867188 C-19.32158129 1.1504932 -17.44203101 1.16842922 -15.5625 1.1875 C-14.9025 3.1675 -14.2425 5.1475 -13.5625 7.1875 C-12.82 6.40375 -12.0775 5.62 -11.3125 4.8125 C-7.60977631 1.27808193 -5.12895078 -0.0954627 0 0 Z " fill="#00452A" transform="translate(401.5625,14.8125)"/>
</svg>
