<svg xmlns="http://www.w3.org/2000/svg" width="24" height="24"><path fill="#4c9844" fill-rule="evenodd" d="M18.78 7q-.44.33-.27.79l.09.22.24-.27c.19-.22.35-.3.77-.34l.54-.05-.27-.27c-.33-.34-.75-.36-1.1-.08M8 8.85c0 .63.04 1.05.1 1.05s.1-.42.1-1.05-.04-1.05-.1-1.05-.1.42-.1 1.05m5.2 0c0 .63.04 1.05.1 1.05s.1-.24.1-.53c0-.4.05-.58.19-.7.37-.34.54-.1.64.93.02.2.04.06.05-.3s-.02-.7-.07-.78c-.09-.15-.38-.18-.63-.07-.15.06-.18.02-.18-.29 0-.2-.04-.36-.1-.36s-.1.42-.1 1.05m3.69-.88c-.84.52-.77 1.9.15 2.7.44.4.78.5 1.25.37.22-.06.5-.06.72 0 .5.12.82.02 1.29-.4a2 2 0 0 0 .67-1.71c-.1-.85-.99-1.4-1.69-1.02-.2.1-.18.12.2.3.48.2.62.43.62 1 0 .32-.06.47-.3.71q-.52.53-.3-.06c.22-.59.02-1.23-.45-1.44-.39-.18-.6-.15-.94.14-.35.3-.48.8-.32 1.25q.24.65-.29.11a1 1 0 0 1-.3-.72c0-.56.14-.78.62-1 .38-.17.4-.19.2-.29a1.3 1.3 0 0 0-1.13.06m-4.39.23q0 .21-.24.2c-.14 0-.28.05-.32.11q-.07.12-.15-.02c-.05-.09-.09.17-.09.64q0 .76.1.72c.05-.03.1-.3.1-.6 0-.5.02-.56.26-.65.14-.06.27-.1.3-.1s.04.3.04.65c0 .69.09.82.47.72q.24-.04-.04-.12c-.2-.06-.23-.14-.23-.65 0-.47.03-.6.18-.63q.24-.05 0-.06c-.11 0-.18-.1-.18-.21q0-.18-.1-.2-.09.02-.1.2M3 8.15c0 .32.45 1.75.55 1.75.07 0 .18-.23.25-.53.18-.73.26-.86.34-.5.2.84.28 1.04.38 1 .14-.04.58-1.66.47-1.73C4.9 8.1 4.6 9 4.6 9.3s-.19-.04-.32-.57c-.07-.3-.18-.54-.23-.54s-.2.3-.3.67l-.2.67-.19-.7c-.1-.4-.22-.72-.27-.72Q3 8.1 3 8.15m2.44.25c-.25.1-.48.68-.38.96.12.33.36.54.63.54.35 0 .48-.1.6-.44.14-.36-.02-.91-.3-1.06-.2-.12-.27-.12-.55 0m1.32.1c-.2.16-.26.3-.26.58q.01.8.65.82c.64 0 .9-.86.4-1.35-.3-.3-.45-.31-.79-.04m3.79-.1c-.3.17-.35.3-.35.75q0 .74.67.74c.38 0 .53-.18.6-.69.05-.33.01-.44-.2-.65-.29-.29-.42-.31-.72-.14m4.14.06q-.41.34.2.7c.17.1.3.22.3.28.01.2-.27.36-.49.3q-.18-.07-.2.03c0 .15.63.14.78-.01q.32-.3-.25-.75c-.4-.32-.38-.58.03-.5.27.05.33-.08.08-.17-.2-.08-.19-.09-.45.12m-6.36.05c.03.07.13.4.22.75.1.34.23.62.3.62s.18-.26.25-.57l.13-.58.15.58c.08.31.2.57.26.57s.2-.34.32-.75c.25-.87.09-1-.17-.14-.16.53-.16.53-.23.24-.25-1-.38-1.07-.58-.28l-.15.58-.17-.58c-.09-.31-.21-.57-.27-.57q-.1.01-.06.13m-2.91.09c-.27.27-.06 1.18.27 1.18.23 0 .43-.3.43-.63 0-.58-.38-.87-.7-.55m1.44.03c-.38.38 0 1.35.42 1.09.29-.18.39-.61.21-.92q-.29-.49-.63-.17m3.7 0c-.3.3-.12 1.15.25 1.15.17 0 .49-.4.49-.63 0-.28-.26-.67-.45-.67-.07 0-.2.07-.3.16m7.96.32q-.21.38.02.8l.13.23.12-.26c.16-.34.15-.57-.02-.8-.13-.18-.14-.18-.25.03"/></svg>