<svg xmlns="http://www.w3.org/2000/svg" width="24" height="24"><path fill="#f2d0d6" fill-rule="evenodd" d="M3.1 9v7h17.7V2H3.1zm.7-6.53-.22.17c-.13.19-.09.8.07 1.1.08.16.18.47.2.7.04.22.13.58.2.79a2 2 0 0 1 .15.68c0 .16.06.42.14.57.07.15.17.5.2.77.05.28.12.55.17.61s.12.33.15.6c.04.27.13.61.2.76s.14.4.14.58.06.45.13.63.17.5.21.72.14.6.21.85c.17.55.33 1.2.45 1.8.18.88.45 1.53.7 1.69.18.12.55.17 1.43.2 1.38.04 1.97-.03 2.25-.27.25-.22.62-1.24.62-1.7 0-.18.07-.49.15-.69s.15-.52.15-.73c0-.6.18-1 .46-1s.44.31.44.85c0 .2.06.52.14.72.08.21.17.6.2.85.04.26.1.5.15.53.05.02.12.24.15.49q.07.42.32.67c.25.23.31.24 1.77.24.84 0 1.64-.03 1.8-.08.32-.09.77-.89.77-1.4 0-.17.07-.43.15-.57s.14-.4.15-.57c0-.18.07-.5.15-.7.08-.21.2-.58.24-.83.13-.6.3-1.26.46-1.8.07-.25.16-.65.2-.9s.11-.5.16-.56.12-.33.15-.6c.04-.27.13-.61.2-.76s.14-.4.14-.55.09-.54.2-.86c.11-.3.2-.69.2-.84s.07-.4.15-.53c.08-.14.14-.52.15-.87 0-.52-.03-.64-.2-.73-.25-.14-2.79-.13-3.2.01s-.77.73-.85 1.4c-.04.3-.13.71-.2.92-.09.2-.15.55-.15.77s-.05.51-.11.67a4 4 0 0 0-.18.73c-.1.71-.6.67-.61-.05 0-.17-.07-.48-.15-.7s-.14-.6-.15-.86-.07-.63-.15-.82c-.08-.2-.15-.58-.15-.84 0-.4-.05-.54-.31-.81a2 2 0 0 0-.56-.43 11 11 0 0 0-2.92.02c-.42.15-.76.7-.85 1.39-.04.3-.14.74-.22.98s-.14.6-.14.8-.07.5-.15.66C9.07 6.49 9 6.79 9 7c0 .49-.16.93-.33.87-.06-.02-.17-.37-.24-.78-.06-.4-.16-.92-.22-1.14s-.1-.56-.1-.76-.08-.53-.16-.72a3 3 0 0 1-.15-.8c0-.48-.36-.99-.83-1.16-.29-.11-2.9-.14-3.17-.04"/></svg>