<?xml version="1.0" encoding="UTF-8" standalone="no"?>
<svg
   viewBox="0 0 15.993344 6.4550824"
   width="15.993344pt"
   height="6.4550824pt"
   version="1.1"
   id="svg1"
   xmlns="http://www.w3.org/2000/svg"
   xmlns:svg="http://www.w3.org/2000/svg">
  <defs
     id="defs1" />
  <path
     d="m 2.7452798,5.2540231 0.1247856,-0.644726 c 2.038163,1.289451 4.6586594,1.289451 6.6968234,0 l 0.124786,0.644726 c -2.038164,1.601413 -4.908232,1.601413 -6.946395,0 z m 8.0694652,-2.974056 c 0.228772,0.041597 0.478344,0.020798 0.68632,-0.1039875 0.166381,-0.1039885 0.270369,-0.2703689 0.311964,-0.4575476 0.0416,-0.1871778 0.06239,-0.3535582 0.08319,-0.540737 h 0.790308 v 0.2911663 c -0.0208,0.2495707 -0.08319,0.478345 -0.187178,0.686321 -0.08319,0.1663804 -0.228774,0.3119626 -0.374357,0.4159511 -0.0416,0.020798 -0.08319,0.062395 -0.124786,0.083193 0.0416,0.062395 0.08319,0.1455831 0.103989,0.207976 0.207976,0.3743569 0.415952,0.7279157 0.644725,1.1022727 l 0.0624,0.124786 c 0.0208,0.0416 0.0208,0.08319 0.0208,0.124786 H 11.958617 L 11.272296,2.9662901 10.81475,3.0078866 V 4.2349441 H 9.9620438 V 0.11701799 H 10.814745 Z M 2.5373036,1.1568977 c 0,0.041597 -0.020794,0.083193 -0.041597,0.1455831 L 2.0589578,2.0511938 C 1.7885889,2.5087405 1.5182199,2.9662881 1.2686496,3.4238351 c 0,0.02079 -0.020795,0.0416 -0.020795,0.0624 h 0.644725 0.644725 v 0.748713 H -1.0525333e-7 c 0,-0.0416 0.0207940052533,-0.08319 0.0415970052533,-0.124785 0.1247856,-0.228783 0.2495714,-0.436759 0.374357,-0.644735 C 0.5407386,3.2574529 0.6447266,3.0702738 0.7695124,2.8622977 0.9358932,2.5711315 1.102274,2.2799662 1.2686549,2.0095972 c 0.020794,-0.020798 0.020794,-0.041596 0.041597,-0.083193 H 0.9982878 0.7071213 0.1039916 V 1.156892 Z M 1.3518408,0.86573109 C 1.2270561,0.88652499 1.1230681,0.84493699 1.0398777,0.76174309 0.9150919,0.65775589 0.8526991,0.47057739 0.9150919,0.30419649 c 0.0415966,-0.1455833 0.1871786,-0.270369 0.3535594,-0.2911666 0.1455824,-0.041597 0.3119633,0.020794 0.4159513,0.1247857 0.1247857,0.1247856 0.1455833,0.2911666 0.1039881,0.4575474 -0.062391,0.1663801 -0.2079761,0.2703681 -0.374357,0.2703681 -0.020794,0.020794 -0.041597,0.020794 -0.062391,0 z M 9.3589128,2.1135867 C 9.2757198,1.8224204 9.1093428,1.5520525 8.8597708,1.3648738 8.6309978,1.1984924 8.3814258,1.1153021 8.1110578,1.1153021 c -0.228773,-0.020798 -0.478344,0.020798 -0.707118,0.1039885 -0.02079,0 -0.06239,0.020798 -0.08319,0.020798 V 0.11701799 H 6.4680488 V 4.0477631 c 0.124784,0.0416 0.24957,0.0624 0.374355,0.08319 0.207977,0.0624 0.415953,0.103987 0.644726,0.145582 0.332761,0.0416 0.665523,0 0.998284,-0.103987 0.499142,-0.145583 0.873499,-0.561535 0.935892,-1.0814752 0.0416,-0.3119636 0.0416,-0.6655237 -0.0624,-0.9774863 z m -0.811106,1.0190819 c -0.06239,0.2079764 -0.228773,0.3743565 -0.436749,0.4159515 -0.249571,0.0624 -0.51994,0.0416 -0.748712,-0.0416 0,0 -0.0208,0 -0.0208,-0.0208 V 1.9680055 c 0.291167,-0.207976 0.68632,-0.207976 0.977487,-0.020798 0.103987,0.083193 0.16638,0.1871778 0.207976,0.3119636 0.08319,0.270368 0.103987,0.5823306 0.02079,0.8734987 z M 5.6777387,1.3648738 C 5.4697638,1.2816797 5.2409901,1.2192906 5.0122164,1.177695 4.7002532,1.1153041 4.3882891,1.094501 4.0763249,1.1153041 3.8059569,1.1361023 3.535588,1.2608872 3.3276119,1.4688632 3.1404335,1.6768383 2.9948511,1.9264099 2.9532558,2.1967788 2.9116588,2.4047539 2.8908648,2.6127309 2.8908648,2.820706 c 0,0.2703689 0.062391,0.5199399 0.1871776,0.7487141 0.103988,0.187177 0.2495713,0.353559 0.4367497,0.457547 0.4159513,0.228772 0.8942964,0.311963 1.3518428,0.228772 0.3327617,-0.0416 0.6447263,-0.145583 0.9774869,-0.207974 V 1.4480659 C 5.8025258,1.4272676 5.7401337,1.3856711 5.6777406,1.3648728 Z M 5.0122164,3.5070251 c -0.2911656,0.103988 -0.6031297,0.124786 -0.8942963,0 C 3.9723369,3.4446311 3.8683498,3.340645 3.8059569,3.1742642 3.7019688,2.8415023 3.7019688,2.5087405 3.8267513,2.1759796 3.9099367,1.9680036 4.117917,1.8224204 4.325893,1.8016222 c 0.2079761,-0.020798 0.4367489,0 0.6239274,0.1039885 0.020794,0 0.020794,0.020798 0.041597,0.020798 z M 15.722975,1.3232782 C 15.473404,1.2400852 15.223833,1.177695 14.953464,1.1361004 c -0.249571,-0.041596 -0.519939,-0.041596 -0.790308,0 -0.478345,0.083193 -0.852701,0.4367484 -0.998284,0.8942961 -0.103988,0.3535591 -0.145583,0.7279156 -0.08319,1.1022721 0.0416,0.3327615 0.207976,0.6447255 0.478344,0.8527015 0.06239,0.0416 0.145583,0.103988 0.207976,0.124786 0.166381,0.08319 0.374357,0.145582 0.561535,0.16638 0.228774,0.0416 0.457547,0.0416 0.68632,0 0.332761,-0.0624 0.665523,-0.145583 0.977488,-0.207975 V 1.448064 C 15.910145,1.406467 15.82696,1.364871 15.722973,1.3232782 Z m -0.540737,2.1837469 c -0.0416,0.02079 -0.06239,0.02079 -0.103988,0.02079 -0.166381,0.0416 -0.332762,0.0624 -0.51994,0.0624 -0.207975,0 -0.395154,-0.103989 -0.519939,-0.2703681 -0.06239,-0.083193 -0.103988,-0.1871782 -0.124786,-0.2911667 -0.0416,-0.2495716 -0.0416,-0.4991423 0.0416,-0.7487129 0.06239,-0.2495716 0.291166,-0.4367504 0.540738,-0.4575477 0.228773,-0.041597 0.457546,0 0.665522,0.1247858 z"
     style="fill:#ffffff;fill-opacity:1;stroke-width:0.207976"
     id="path9843" />
</svg>
