<?xml version="1.0" encoding="UTF-8" standalone="no"?>
<svg
   viewBox="0 0 18.040001 21.999998"
   width="18.040001pt"
   height="21.999998pt"
   version="1.1"
   id="svg198"
   xmlns="http://www.w3.org/2000/svg"
   xmlns:svg="http://www.w3.org/2000/svg">
  <defs
     id="defs202">
    <clipPath
       id="clip1-2">
      <rect
         x="552"
         y="214"
         width="70"
         height="70"
         id="rect987" />
    </clipPath>
    <clipPath
       id="clip2-4">
      <rect
         x="552"
         y="214"
         width="70"
         height="70"
         id="rect990" />
    </clipPath>
    <clipPath
       id="clip3-7">
      <rect
         x="552"
         y="214"
         width="70"
         height="70"
         id="rect993" />
    </clipPath>
  </defs>
  <g
     clip-path="url(#clip1-2)"
     id="g1006"
     transform="matrix(0.21686747,0,0,0.21686747,-118.21728,-45.139118)">
    <g
       clip-path="url(#clip2-4)"
       id="g1004">
      <g
         clip-path="url(#clip3-7)"
         id="g1002">
        <path
           d="m 598.791,268.906 0.575,-6.469 h 8.337 l -1.078,6.469 z m -33.494,-6.469 h 8.337 l 0.575,6.469 h -7.762 z m 6.828,-18.687 0.575,6.469 h -9.487 l -1.079,-6.469 z m 13.872,-13.728 c 0.216,-0.216 0.431,-0.216 0.503,-0.216 0.072,0 0.359,0 0.503,0.216 l 9.416,9.343 h -19.838 z m 14.087,23.072 h 9.201 l -1.079,6.468 h -8.625 z m -12.146,6.468 v -6.468 h 9.271 l -0.574,6.468 z m 0,2.875 h 8.481 l -0.575,6.469 h -7.906 z m -2.875,0 v 6.469 h -7.979 l -0.575,-6.469 z m 0,-12.218 h -9.488 L 575,243.75 h 10.063 z m 2.875,-6.469 H 598 l -0.575,6.469 h -9.487 z m -14.519,15.812 h -8.625 l -1.078,-6.468 h 9.2 z m 2.372,-6.468 h 9.272 v 6.468 h -8.769 z m 33.997,-2.875 h -9.416 l 0.575,-6.469 h 9.991 z m -7.332,-10.782 v 0 l -12.362,-12.434 c -0.935,-0.934 -2.228,-1.509 -3.594,-1.509 -1.366,0 -2.587,0.503 -3.522,1.509 l -12.362,12.362 -0.072,0.072 h -13.513 l 5.319,31.41 c 0.216,1.365 1.438,2.372 2.803,2.372 h 42.55 c 1.366,0 2.588,-1.007 2.803,-2.372 l 5.463,-31.41 z"
           fill="#ffffff"
           id="path1000" />
      </g>
    </g>
  </g>
</svg>
