<?xml version="1.0" encoding="UTF-8" standalone="no"?><!-- Generator: Gravit.io --><svg xmlns="http://www.w3.org/2000/svg" xmlns:xlink="http://www.w3.org/1999/xlink" style="isolation:isolate" viewBox="0 0 24 24" width="24pt" height="24pt"><defs><clipPath id="_clipPath_aQvYgS0NQOyAcX2UKSTGUWFsGXoLPkj1"><rect width="24" height="24"/></clipPath></defs><g clip-path="url(#_clipPath_aQvYgS0NQOyAcX2UKSTGUWFsGXoLPkj1)"><g/><g><g><path d=" M 21.851 21.811 L 12.013 21.961 L 1.876 21.961 C 0.81 21.961 0.377 21.212 0.91 20.289 L 5.979 11.51 L 11.047 2.731 C 11.58 1.808 12.441 1.81 12.969 2.736 L 17.952 11.483 L 22.83 20.101 C 23.355 21.028 22.916 21.794 21.851 21.811 Z " fill="rgb(0,0,0)" fill-opacity="0.5"/><path d=" M 21.515 21.516 L 11.666 21.516 L 1.816 21.516 C 0.78 21.516 0.36 20.788 0.878 19.892 L 5.803 11.362 L 10.728 2.831 C 11.245 1.935 12.086 1.935 12.604 2.831 L 17.529 11.362 L 22.453 19.892 C 22.971 20.788 22.551 21.516 21.515 21.516 Z " fill="rgb(255,255,0)"/></g><g><g><g><rect x="7.489" y="5.711" width="10.542" height="10.542" transform="matrix(1,0,0,1,0,0)" fill="none"/></g><g><g><path d=" M 13.713 11.733 L 14.328 10.67 C 14.368 10.604 14.35 10.521 14.293 10.472 L 13.643 9.963 C 13.656 9.866 13.665 9.765 13.665 9.664 C 13.665 9.563 13.656 9.462 13.643 9.361 L 14.293 8.852 C 14.35 8.803 14.368 8.72 14.328 8.654 L 13.713 7.591 C 13.674 7.525 13.595 7.499 13.524 7.525 L 12.76 7.833 C 12.602 7.71 12.431 7.609 12.242 7.53 L 12.128 6.717 C 12.114 6.647 12.048 6.59 11.974 6.59 L 10.744 6.59 C 10.669 6.59 10.603 6.647 10.59 6.721 L 10.476 7.534 C 10.292 7.613 10.116 7.714 9.958 7.837 L 9.193 7.53 C 9.123 7.503 9.044 7.53 9.005 7.595 L 8.39 8.658 C 8.35 8.724 8.368 8.808 8.425 8.856 L 9.075 9.366 C 9.062 9.462 9.053 9.563 9.053 9.664 C 9.053 9.765 9.062 9.866 9.075 9.967 L 8.425 10.477 C 8.368 10.525 8.35 10.609 8.39 10.675 L 9.005 11.737 C 9.044 11.803 9.123 11.83 9.193 11.803 L 9.958 11.496 C 10.116 11.619 10.287 11.72 10.476 11.799 L 10.59 12.612 C 10.603 12.682 10.669 12.739 10.744 12.739 L 11.974 12.739 C 12.048 12.739 12.114 12.682 12.128 12.607 L 12.242 11.795 C 12.426 11.716 12.602 11.614 12.76 11.491 L 13.524 11.799 C 13.595 11.825 13.674 11.799 13.713 11.733 Z  M 11.359 10.543 C 10.876 10.543 10.48 10.147 10.48 9.664 C 10.48 9.181 10.876 8.786 11.359 8.786 C 11.842 8.786 12.237 9.181 12.237 9.664 C 12.237 10.147 11.842 10.543 11.359 10.543 Z " fill="rgb(0,0,0)"/><path d=" M 17.117 13.912 L 16.696 13.587 C 16.704 13.525 16.713 13.459 16.713 13.393 C 16.713 13.328 16.709 13.262 16.696 13.2 L 17.113 12.875 C 17.148 12.844 17.161 12.792 17.135 12.748 L 16.739 12.067 C 16.718 12.023 16.665 12.01 16.617 12.023 L 16.129 12.221 C 16.028 12.142 15.918 12.076 15.795 12.027 L 15.72 11.509 C 15.716 11.456 15.672 11.421 15.628 11.421 L 14.842 11.421 C 14.794 11.421 14.75 11.456 14.745 11.505 L 14.671 12.023 C 14.552 12.076 14.438 12.137 14.337 12.216 L 13.849 12.019 C 13.805 12.001 13.753 12.019 13.726 12.063 L 13.331 12.743 C 13.309 12.787 13.313 12.84 13.353 12.871 L 13.77 13.196 C 13.761 13.257 13.757 13.323 13.757 13.389 C 13.757 13.455 13.761 13.521 13.77 13.582 L 13.353 13.907 C 13.318 13.938 13.305 13.991 13.331 14.035 L 13.726 14.715 C 13.748 14.759 13.801 14.773 13.849 14.759 L 14.337 14.562 C 14.438 14.641 14.548 14.707 14.671 14.755 L 14.745 15.273 C 14.754 15.322 14.794 15.357 14.842 15.357 L 15.628 15.357 C 15.677 15.357 15.72 15.322 15.725 15.273 L 15.8 14.755 C 15.918 14.702 16.032 14.641 16.129 14.562 L 16.621 14.759 C 16.665 14.777 16.718 14.759 16.744 14.715 L 17.139 14.035 C 17.166 13.995 17.152 13.942 17.117 13.912 Z  M 15.233 13.982 C 14.908 13.982 14.64 13.718 14.64 13.389 C 14.64 13.06 14.903 12.796 15.233 12.796 C 15.562 12.796 15.826 13.06 15.826 13.389 C 15.826 13.718 15.558 13.982 15.233 13.982 Z " fill="rgb(0,0,0)"/></g></g></g><g><path d=" M 4.485 11.489 L 14.823 11.489 L 14.823 21.827 L 4.485 21.827 L 4.485 11.489 Z " fill="none"/><path d=" M 12.634 14.077 C 12.548 13.823 12.307 13.642 12.023 13.642 L 7.284 13.642 C 7 13.642 6.763 13.823 6.673 14.077 L 5.777 16.658 L 5.777 20.104 C 5.777 20.34 5.971 20.534 6.208 20.534 L 6.638 20.534 C 6.875 20.534 7.069 20.34 7.069 20.104 L 7.069 19.673 L 12.238 19.673 L 12.238 20.104 C 12.238 20.34 12.432 20.534 12.669 20.534 L 13.1 20.534 C 13.336 20.534 13.53 20.34 13.53 20.104 L 13.53 16.658 L 12.634 14.077 Z  M 7.284 18.381 C 6.927 18.381 6.638 18.092 6.638 17.734 C 6.638 17.377 6.927 17.088 7.284 17.088 C 7.642 17.088 7.931 17.377 7.931 17.734 C 7.931 18.092 7.642 18.381 7.284 18.381 Z  M 12.023 18.381 C 11.665 18.381 11.377 18.092 11.377 17.734 C 11.377 17.377 11.665 17.088 12.023 17.088 C 12.38 17.088 12.669 17.377 12.669 17.734 C 12.669 18.092 12.38 18.381 12.023 18.381 Z  M 6.638 16.227 L 7.284 14.288 L 12.023 14.288 L 12.669 16.227 L 6.638 16.227 Z " fill="rgb(0,0,0)"/></g></g></g></g></svg>