<?xml version="1.0" encoding="UTF-8" standalone="no"?>
<!-- Generator: Gravit.io -->

<svg
   style="isolation:isolate"
   viewBox="0 0 24 24"
   width="24pt"
   height="24pt"
   version="1.1"
   id="svg41"
   xmlns="http://www.w3.org/2000/svg"
   xmlns:svg="http://www.w3.org/2000/svg">
  <defs
     id="defs5">
    <clipPath
       id="_clipPath_aQvYgS0NQOyAcX2UKSTGUWFsGXoLPkj1">
      <rect
         width="24"
         height="24"
         id="rect2" />
    </clipPath>
  </defs>
  <g
     clip-path="url(#_clipPath_aQvYgS0NQOyAcX2UKSTGUWFsGXoLPkj1)"
     id="g39"
     style="fill:#ffffff">
    <g
       id="g37"
       style="fill:#ffffff">
      <g
         id="g35"
         transform="matrix(1.0489856,0,0,1,6.7410773,9.580806)"
         style="fill:#ffffff">
        <g
           id="g33"
           transform="translate(-4.3880597,-14.238806)"
           style="fill:#ffffff">
          <path
             d="m 12.381901,13.647 c -0.086,-0.254 -0.327,-0.435 -0.611,-0.435 h -4.739 c -0.284,0 -0.521,0.181 -0.611,0.435 l -0.896,2.581 v 3.446 c 0,0.236 0.194,0.43 0.431,0.43 h 0.43 c 0.237,0 0.431,-0.194 0.431,-0.43 v -0.431 h 5.169 v 0.431 c 0,0.236 0.194,0.43 0.431,0.43 h 0.431 c 0.236,0 0.43,-0.194 0.43,-0.43 v -3.446 z m -5.35,4.304 c -0.357,0 -0.646,-0.289 -0.646,-0.647 0,-0.357 0.289,-0.646 0.646,-0.646 0.358,0 0.647,0.289 0.647,0.646 0,0.358 -0.289,0.647 -0.647,0.647 z m 4.739,0 c -0.358,0 -0.646,-0.289 -0.646,-0.647 0,-0.357 0.288,-0.646 0.646,-0.646 0.357,0 0.646,0.289 0.646,0.646 0,0.358 -0.289,0.647 -0.646,0.647 z m -5.385,-2.154 0.646,-1.939 h 4.739 l 0.646,1.939 z"
             fill="#000000"
             id="path31"
             style="fill:#ffffff" />
        </g>
      </g>
    </g>
  </g>
</svg>
