<?xml version="1.0" standalone="no"?><!-- Generator: Gravit.io --><svg xmlns="http://www.w3.org/2000/svg" xmlns:xlink="http://www.w3.org/1999/xlink" style="isolation:isolate" viewBox="0 0 500 500" width="500" height="500"><defs><clipPath id="_clipPath_Ki5R4nzPRncm48X2Jd73AR9rqtIaIvQG"><rect width="500" height="500"/></clipPath></defs><g clip-path="url(#_clipPath_Ki5R4nzPRncm48X2Jd73AR9rqtIaIvQG)"><g><path d=" M 60 189.049 C 60 87.505 142.188 5.317 243.433 5.317 C 344.828 5.317 427.016 87.505 427.016 189.049 C 427.016 243.543 403.193 292.677 365.375 326.326 C 363.29 328.113 291.227 395.262 242.987 498.146 C 224.822 425.338 154.397 355.36 122.087 326.773 C 83.971 292.974 60 243.84 60 189.049 Z  M 129.979 189.049 C 129.979 251.732 180.899 302.503 243.433 302.503 C 306.116 302.503 356.888 251.732 356.888 189.049 C 356.888 126.217 306.116 75.445 243.433 75.445 C 180.899 75.445 129.979 126.217 129.979 189.049 Z " fill="rgb(130,76,113)" vector-effect="non-scaling-stroke" stroke-width="0.021" stroke="rgb(0,0,0)" stroke-linejoin="miter" stroke-linecap="butt" stroke-miterlimit="4"/><circle vector-effect="non-scaling-stroke" cx="243.50784745220102" cy="188.2460762738995" r="148.24607627389952" fill="rgb(130,129,129)" stroke-width="10" stroke="rgb(255,255,255)" stroke-linejoin="miter" stroke-linecap="butt" stroke-miterlimit="4"/></g><g><path d=" M 132.508 78 L 354.508 78 L 354.508 300 L 132.508 300 L 132.508 78 Z " fill="none"/><path d=" M 322.78 215.455 L 336.008 202.228 L 322.78 189 L 289.758 222.022 L 210.485 142.75 L 243.508 109.728 L 230.28 96.5 L 217.053 109.728 L 203.825 96.5 L 184.03 116.295 L 170.803 103.068 L 157.575 116.295 L 170.803 129.523 L 151.008 149.318 L 164.235 162.545 L 151.008 175.772 L 164.235 189 L 197.258 155.978 L 276.53 235.25 L 243.508 268.272 L 256.735 281.5 L 269.963 268.272 L 283.19 281.5 L 302.985 261.705 L 316.213 274.933 L 329.44 261.705 L 316.213 248.478 L 336.008 228.683 L 322.78 215.455 Z " fill="rgb(241,241,225)"/></g></g></svg>