<?xml version="1.0" standalone="no"?><!-- Generator: Gravit.io --><svg xmlns="http://www.w3.org/2000/svg" xmlns:xlink="http://www.w3.org/1999/xlink" style="isolation:isolate" viewBox="0 0 500 500" width="500" height="500"><defs><clipPath id="_clipPath_fRIvzPSyJSe12Ou2BW2t1qEfuErvb0EZ"><rect width="500" height="500"/></clipPath></defs><g clip-path="url(#_clipPath_fRIvzPSyJSe12Ou2BW2t1qEfuErvb0EZ)"><path d=" M 0 0 L 27.624 0 L 27.624 27.624 L 0 27.624 L 0 0 Z " fill="none"/><circle vector-effect="non-scaling-stroke" cx="246.47007574415613" cy="253.52992425584384" r="246.47007574415613" fill="rgb(60,145,230)"/><circle vector-effect="non-scaling-stroke" cx="246.47007574415593" cy="253.5299242558438" r="211.6057160352231" fill="rgb(235,235,235)"/><circle vector-effect="non-scaling-stroke" cx="246.47007574415593" cy="253.52992425584378" r="194.93194457872093" fill="rgb(130,129,129)"/><path d=" M 369.848 296.28 L 369.848 270.129 L 265.245 204.752 L 265.245 132.838 C 265.245 121.985 256.485 113.225 245.632 113.225 C 234.779 113.225 226.019 121.985 226.019 132.838 L 226.019 204.752 L 121.416 270.129 L 121.416 296.28 L 226.019 263.592 L 226.019 335.506 L 199.868 355.119 L 199.868 374.733 L 245.632 361.657 L 291.396 374.733 L 291.396 355.119 L 265.245 335.506 L 265.245 263.592 L 369.848 296.28 Z " fill="rgb(241,241,225)"/></g></svg>