<?xml version="1.0" encoding="utf-8"?>
<svg width="24px" height="24px" viewBox="0 0 73.5 46.5" style="enable-background:new 0 0 73.5 46.5;" xmlns="http://www.w3.org/2000/svg">
  <defs>
    <style type="text/css">
	.st0{fill:#212322;}
</style>
  </defs>
  <g transform="matrix(1, 0, 0, 1, 0, 4.440892098500626e-16)">
    <path class="st0" d="M37.1,8.8l1.1,0.3c1,0.3,1.2,0.4,1.2,0.8c0,0.3-0.3,0.4-0.7,0.4c-0.6,0-1-0.2-1.7-0.8h-1.7V12h1.8v-0.9 c0.6,0.6,1.6,1,2.6,1c1.8,0,3.2-1.1,3.2-2.6c0-1.2-0.7-2-2-2.5L39,6.3c-0.2-0.1-0.4-0.3-0.4-0.4c0-0.3,0.3-0.4,0.8-0.4 s1,0.3,1.2,0.8h1.8V3.9h-1.7v0.8c-0.7-0.6-1.6-1-2.6-1c-1.7,0-2.9,1.2-2.9,2.7C35.2,7.5,35.9,8.5,37.1,8.8z"/>
    <path class="st0" d="M43.6,6.3v3.5c0,1.5,1,2.4,2.5,2.4c1.2,0,2.1-0.6,2.8-1.9V12h3.9v-1.7c-0.4,0-0.6-0.2-0.6-0.6V3.9h-4.1v1.7 c0.5,0,0.7,0.2,0.7,0.7v2.4c0,0.5-0.4,0.9-0.9,0.9S47,9.2,47,8.7V3.9h-4.2v1.7C43.4,5.6,43.6,5.8,43.6,6.3z"/>
    <path class="st0" d="M58.4,10.3c-0.4,0-0.6-0.2-0.6-0.6V8.4l2.6,3.6h3.1v-1.7c-0.2,0-0.5-0.2-0.7-0.5l-1.7-2.3l1.1-1 c0.5-0.5,1-0.8,1.3-0.8V3.9h-4.6v1.7h1.2l-2.3,2.1V0h-4.1v1.7c0.4,0,0.6,0.2,0.6,0.6v7.4c0,0.4-0.2,0.6-0.6,0.6V12h4.7 C58.4,12,58.4,10.3,58.4,10.3z"/>
    <path class="st0" d="M72.8,9.6V7.3c0-2.3-1.7-3.6-4.5-3.6c-1.2,0-2.5,0.2-3.6,0.7l0.4,1.9c0.8-0.3,1.6-0.5,2.2-0.5 c1.2,0,2,0.4,2,1.4v0.4C68.6,7.2,67.9,7,67.1,7c-1.9,0-3.3,1.1-3.3,2.6c0,1.6,1.4,2.6,3.3,2.6c1.7,0,2.6-0.5,3-1.7V12h3.4v-1.7 C73.1,10.3,72.8,10.1,72.8,9.6z M68.7,10.2h-0.5c-0.5,0-0.8-0.4-0.8-0.8c0-0.4,0.3-0.8,0.8-0.8h0.5c0.5,0,0.8,0.4,0.8,0.8 C69.5,9.9,69.2,10.2,68.7,10.2z"/>
    <path class="st0" d="M28.7,10.3c-0.5,0-0.7-0.2-0.7-0.7V3.9h-4.2v1.7c0.5,0,0.7,0.2,0.7,0.7v3.3c0,0.5-0.2,0.7-0.7,0.7V12h4.9V10.3 z"/>
    <path class="st0" d="M6,12.4c3.4,0,6-2.5,6-6.1S9.4,0.2,6,0.2S0,2.7,0,6.3C0,9.9,2.6,12.4,6,12.4z M4.8,3.7C4.8,3,5.3,2.5,6,2.5 S7.2,3,7.2,3.7v5.2c0,0.7-0.5,1.2-1.2,1.2S4.8,9.6,4.8,8.9V3.7z"/>
    <path class="st0" d="M17.9,10.3c-0.5,0-0.7-0.2-0.7-0.7V7.1c0-0.5,0.4-0.9,0.9-0.9S19,6.6,19,7.1V12h4.2v-1.7 c-0.5,0-0.7-0.2-0.7-0.7V6.1c0-1.5-1-2.4-2.5-2.4c-1.2,0-2.1,0.6-2.8,1.9V3.9h-4v1.7c0.5,0,0.7,0.2,0.7,0.7v3.3 c0,0.5-0.2,0.7-0.7,0.7V12h4.9v-1.7H17.9z"/>
    <path class="st0" d="M29.7,12h4.9v-1.7h-0.2c-0.9,0-1.2-0.4-1.2-1.2V5.7h1.5V3.9h-1.5V1.1h-3.3v1.7c0,0.7-0.3,1.1-1.1,1.1v1.7h1 L29.7,12L29.7,12z"/>
    <rect x="24.5" y="0.2" class="st0" width="3.4" height="2.7"/>
    <path class="st0" d="M14.2,32.4c2.2-1.1,2.4-6.6,2.4-6.6l-2.4,0.4C11.7,31,14.2,32.4,14.2,32.4z"/>
    <path class="st0" d="M36.8,33.1c1-0.8-0.2-2.2-0.2-2.2l-2,1.7C34.7,33,35.9,33.7,36.8,33.1z"/>
    <path class="st0" d="M36,30.5c0.7,0.3,0.5-0.8,0.7-1.4c0.2-0.7,0.6-1.2,1.1-1.6c0.4-0.3,0.2-0.6-0.1-0.6s-1.1-0.4-1.5-0.1 s-0.8,0.9-0.9,1.3C35,28.7,35,30.1,36,30.5z"/>
    <path class="st0" d="M47.4,25.7c0,0,0.4-0.9,0.2-1.9c-0.3-1-1.2-0.7-1.7,0.6c-0.4,1.2-0.1,1.6-0.1,1.6S46.7,25.9,47.4,25.7z"/>
    <path class="st0" d="M0.3,36.1c0,3.3,2.7,6,6,6h21.8c0.7,0,3.5,0.2,8.8,4.4c5.3-4.2,8.1-4.4,8.8-4.4h21.8c3.3,0,6-2.7,6-6V13.3H0.3 V36.1z M28,34.8c-2,0.7-2.2-0.8-2.1-1.3c0.1-0.5,0.4-2.6,0.7-3.8c0.3-1.1-0.2-1.5-0.2-1.5c-0.2-0.2,0.4-0.5,0.7-0.8 c0.5-0.7,0.7-1.1,1.6-0.9c0.8,0.2,1.3,0.8,1.1,1.8c-0.1,1-0.6,3.1-0.8,4.1c-0.2,0.9,1.4,0.3,1.4,0.3S29.8,34.2,28,34.8z M52.2,26.8 c0.1-0.8,0.5-2.5,0.7-3.4s-0.3-1.2-0.3-1.2c0-0.2,0.2-0.5,0.5-0.7s1-0.9,1-0.9c1.2-0.1,2.1,0.9,2.1,0.9c0.4-0.1,2.5-1.6,2.9-1.8 c0.3-0.2,0.5-0.1,1,0.1c0.6,0.2,1.2,0.3,2.1,0.3c0.8,0,1.6,0.1,1.6,0.1c-0.2,0.5-1.4,1.2-2.2,1.8c-0.8,0.6-2.3-0.1-3.1-0.4 s-1.1,0.1-1.7,0.5c-0.5,0.4-0.5,0.8-0.5,0.8s-0.3,1.7-0.4,2.3c-0.1,0.7,0.4,0.8,0.8,0.8c0.4,0,1.9-0.5,1.9-0.5 c-2.3,3.1-4.1,3.6-5.3,3.3C52.1,28.6,52.1,27.5,52.2,26.8z M44.8,23c2.1-1.5,4.2-0.9,4.6-0.7c0.5,0.3,1.6,0.9,1,3.6l-5,1.1 c0,0-0.5,1.2,0.1,1.7s1.6,0.5,3.5-0.4c0,0-0.7,1.7-2.9,2.4s-3.4-0.5-3.5-2C42.5,27.2,42.7,24.5,44.8,23z M33.1,27.8 c1-2,3.5-3,3.9-3.2s0.7,0,0.7,0c1.9,0.6,2.1,0.1,2.6,0.2c0.6,0.1,0.7,0.1,0.2,1.1c-0.5,0.9-1.2,4.3-1.3,5s0.2,4-2.9,5 c-3.1,1-4.5-0.8-4.5-0.8L34,33C32.8,32,32.1,29.7,33.1,27.8z M31.3,23.7L29,25.3c0,0-1.5-0.9-1.9-1.1c0,0,0.9-1,2-1.6 C29.1,22.6,30.4,23.2,31.3,23.7z M10.5,28.7c1.3-3.5,4.8-4.5,4.8-4.5c-0.3,0.4-0.6,1-0.6,1l6.4-1.2c0,0-0.6,3.3-1.2,5.4 c-0.6,2.1-4.4,4-4.4,4c2,1.4,4.6,0.8,4.6,0.8l2.6-11.8c-1.3,0.2-4,0.3-6.6,0.4c-2.5,0.1-4.8,1.2-4.8,1.2c0.8-4.1,4.3-4.6,8.6-4.8 c4.6-0.2,8.3-1.2,8.3-1.2c-1.1,3.5-4.3,4.2-4.3,4.2l-2.4,11.6c1.3-0.3,2.3-0.6,2.3-0.6c-3.1,4.1-6.9,4.4-9.3,3.5 C11.5,35.7,9.1,32.4,10.5,28.7z"/>
  </g>
</svg>