<?xml version="1.0" encoding="utf-8"?>
<svg width="24px" height="24px" viewBox="252.735 135.12 98.468 106.674" xmlns="http://www.w3.org/2000/svg">
  <path fill="red" d="M 260.47 141.926 L 344.233 141.926 L 344.233 232.801 L 260.47 232.801 L 260.47 141.926 Z M 155.765 141.926 L 239.529 141.926 L 239.529 232.801 L 155.765 232.801 L 155.765 141.926 Z" style=""/>
  <g fill="#fff" transform="matrix(2.079827070236206, 0, 0, 2.153856039047241, 155.83287048339844, 141.3279266357422)" style="">
    <path d="M79.48 5.47h2.53v12.64h-2.53zM63.47 13.9a4.21 4.21 0 0 1-8.42 0V5.47h2.53v8.43a1.68 1.68 0 1 0 3.36 0V5.47h2.53zm11.79 20.63h-8.42V21.89h2.53V32h5.89v2.53zm0-16.42h-2.53l-3.36-7.22v7.22h-2.53V5.47h2.53l3.36 7.22V5.47h2.53v12.64zm-16 3.78a4.21 4.21 0 0 0-4.21 4.22v4.21a4.21 4.21 0 0 0 4.21 4.21 4.34 4.34 0 0 0 .82-.07l.86 2.6h2.53l-1.25-3.75a4.2 4.2 0 0 0 1.25-3v-4.2a4.21 4.21 0 0 0-4.21-4.22m1.68 8.43a1.68 1.68 0 1 1-3.36 0v-4.21a1.68 1.68 0 1 1 3.36 0zm19.8-8.43a4.22 4.22 0 0 0-4.22 4.22v4.21a4.21 4.21 0 0 0 8.42 0v-4.21a4.21 4.21 0 0 0-4.21-4.22m1.68 8.43a1.68 1.68 0 0 1-3.37 0v-4.21a1.68 1.68 0 0 1 3.37 0zM22.74 15.16H34.1v2.52H22.74zM24 5.47h8.84V8H24zm-9.26 0H7.15V8h5.06v7.16H5.9v2.52h11.36v-2.52h-2.52V5.47zm8 16.84v12.22H34.1V22.31zM31.57 32h-6.31v-7.16h6.31zM7.15 22.31l-1.28 6.12h2.52l.76-3.59h5.07L12.73 32H5.14l-.51 2.53h10.11l2.52-12.22H7.15z"/>
  </g>
</svg>