<?xml version="1.0" encoding="UTF-8" standalone="no"?>
<svg
   viewBox="0 0 24 24"
   width="24pt"
   height="24pt"
   version="1.1"
   id="svg1730"
   xmlns="http://www.w3.org/2000/svg"
   xmlns:svg="http://www.w3.org/2000/svg">
  <defs
     id="defs1734" />
  <path
     style="fill:#000000;stroke-width:0.0485476"
     d="M 4.3243619,10.918159 V 6.5003309 l 7.8992151,0.044707 7.407351,0.044707 v 4.4178281 l 0.04471,2.539802 -7.407351,-0.04471 -7.8992154,-0.04471 z m 15.1609241,0.08944 V 6.735412 L 12.223577,6.6907047 4.4700045,6.6459975 v 4.2721855 l 0.044715,2.39416 7.7535725,0.04471 7.261709,0.04471 z M 7.8913292,10.059306 V 9.2119417 l -0.3276953,-0.0143 C 7.2658819,9.1846917 7.2345194,9.1733597 7.2204246,9.0740427 L 7.2050456,8.9647977 H 8.012832 8.8206209 l -0.015649,0.109245 c -0.01403,0.0981 -0.046407,0.110703 -0.3189347,0.12368 l -0.3034233,0.01457 v 0.8472643 0.847267 H 8.0369716 7.8913292 Z m 3.1026998,-0.04625 C 10.788193,9.4969667 10.619806,9.0600399 10.619806,9.0421004 c 0,-0.018077 0.0432,-0.03262 0.09597,-0.03262 0.126054,0 0.196528,0.1168543 0.438632,0.7273513 0.110999,0.2798883 0.213553,0.5279093 0.227934,0.5511563 0.0143,0.0232 0.128806,-0.205756 0.254294,-0.5088883 0.282208,-0.681699 0.329171,-0.7696193 0.411085,-0.7696193 0.104308,0 0.182498,0.1257043 0.416678,0.6700253 0.121116,0.28149 0.242637,0.5192883 0.27009,0.5284353 0.02744,0.0092 0.144563,-0.2185453 0.260257,-0.5059573 0.21671,-0.538408 0.311086,-0.6925033 0.424073,-0.6925033 0.108976,0 0.07655,0.1340953 -0.198767,0.8214253 -0.408591,1.0201143 -0.468375,1.1435993 -0.516293,1.0663923 -0.02293,-0.03702 -0.165526,-0.367673 -0.316813,-0.734815 -0.151282,-0.3671403 -0.291779,-0.6675283 -0.312219,-0.6675283 -0.03205,0 -0.278213,0.5518513 -0.557599,1.2501123 -0.04541,0.113481 -0.09748,0.206322 -0.11572,0.206322 -0.01834,0 -0.201548,-0.422252 -0.407384,-0.938336 z m 4.624657,0.842045 c -0.165176,-0.04805 -0.434021,-0.291215 -0.530151,-0.479509 -0.18355,-0.359514 -0.127295,-0.7416933 0.158243,-1.0752813 0.21787,-0.2545372 0.410289,-0.3355687 0.79668,-0.3354716 0.388837,9.45e-5 0.638434,0.1144256 0.660083,0.3023736 l 0.01538,0.13253 -0.209452,-0.09505 c -0.268863,-0.122008 -0.576232,-0.122574 -0.813649,-0.0014 -0.28979,0.147854 -0.391036,0.308209 -0.391036,0.619392 0,0.3375843 0.105684,0.5190973 0.379375,0.6515893 0.244311,0.118257 0.618076,0.105252 0.88092,-0.03065 l 0.154628,-0.07997 -0.01565,0.136576 c -0.02213,0.192211 -0.269161,0.307614 -0.646776,0.302036 -0.160212,-0.0023 -0.357515,-0.02348 -0.438457,-0.04711 z"
     id="path1677" />
</svg>
