<?xml version="1.0" encoding="UTF-8" standalone="no"?>
<svg
   viewBox="0 0 24 24"
   width="24pt"
   height="24pt"
   version="1.1"
   id="svg4"
   xml:space="preserve"
   sodipodi:docname="whitestuff.svg"
   inkscape:version="1.2.2 (732a01da63, 2022-12-09)"
   xmlns:inkscape="http://www.inkscape.org/namespaces/inkscape"
   xmlns:sodipodi="http://sodipodi.sourceforge.net/DTD/sodipodi-0.dtd"
   xmlns="http://www.w3.org/2000/svg"
   xmlns:svg="http://www.w3.org/2000/svg"><sodipodi:namedview
     id="namedview5"
     pagecolor="#ffffff"
     bordercolor="#000000"
     borderopacity="0.25"
     inkscape:showpageshadow="2"
     inkscape:pageopacity="0.0"
     inkscape:pagecheckerboard="0"
     inkscape:deskcolor="#d1d1d1"
     inkscape:document-units="pt"
     showgrid="false"
     inkscape:zoom="25.125"
     inkscape:cx="12.577114"
     inkscape:cy="16.0199"
     inkscape:window-width="2400"
     inkscape:window-height="1261"
     inkscape:window-x="2391"
     inkscape:window-y="-9"
     inkscape:window-maximized="1"
     inkscape:current-layer="svg4" /><defs
     id="defs8" /><path
     style="fill:#222222;stroke:none;stroke-width:0.089119"
     d="m 4.3357658,6.910036 c 0,0.5639807 -0.2409689,1.6863098 0.356476,1.9606179 L 5.1378368,7.9794641 C 5.7417339,8.8612969 6.0557091,7.6539123 5.7616698,7.088274 L 5.5834318,8.3359401 H 5.4943128 L 5.3160748,7.533869 4.6922418,8.4250591 H 4.6031228 V 6.910036 h -0.267357 m 8.3771862,1.7823801 v 0.089119 c 0.140897,-0.0063 0.281171,-4.45e-4 0.414849,-0.05454 0.716784,-0.2901709 -0.13653,-1.2745349 0.743698,-1.5496007 -0.931561,-0.5571274 -0.662956,0.7214986 -0.799843,1.1677263 -0.0565,0.184209 -0.203904,0.2573757 -0.358704,0.3472968 m 1.425904,-1.6041421 0.623833,0.267357 0.08912,1.3367851 C 14.934509,8.1181079 15.004737,7.646 15.475642,7.2665134 15.042256,6.9773044 14.637834,7.0300094 14.138857,7.0882754 m -7.4859971,-0.08912 -0.267357,1.6932611 h 0.267357 l 0.623833,-0.712952 v 0.534714 h 0.267357 L 7.633169,6.999155 6.7419789,7.8012261 6.6528599,6.999155 m 3.9212361,0 -0.08912,1.7823799 h 0.802071 V 8.6032971 h -0.623833 l 0.623833,-0.623833 V 7.8012261 C 10.743752,7.6235138 11.057174,7.3419156 11.465286,7.266512 V 7.088274 l -0.89119,-0.089119 m 6.416568,0 -0.802071,1.5150231 -0.08912,-1.3367851 c -0.191338,0.3160071 -0.417701,1.3694027 0.264416,1.3073758 0.623031,-0.05668 0.676592,-1.0367124 0.626774,-1.4856138 m 0.712952,0 -0.178238,1.7823799 1.069428,-0.9803088 v -0.089119 l -0.712952,-0.089119 0.712952,-0.445595 v -0.178238 h -0.89119 M 8.257001,7.0882741 V 8.7815349 H 8.34612 L 8.524358,7.0882741 H 8.257001 m 0.623833,0 v 0.178238 h 0.5347141 v 1.4259041 h 0.089119 C 9.6160401,8.0973418 9.6675954,7.6022946 10.21762,7.266512 V 7.088274 H 8.880835 m 10.159566,0 -0.08912,1.6041421 0.267357,0.089119 0.712952,-0.8020706 V 7.8903455 L 19.307757,7.8012265 19.93159,7.2665124 V 7.0882744 H 19.0404 M 3.9792898,9.3162489 v 0.08912 l 2.9409271,0.178238 H 11.554405 V 9.3162489 H 6.4746219 3.9792898 m 8.6445432,0 v 0.267357 h 7.396877 c -0.668481,-0.40861 -1.56288,-0.267357 -2.317094,-0.267357 -1.696202,0 -3.385452,0.01168 -5.079783,0 z"
     id="path993" /><path
     style="fill:#000000;stroke-width:0.089119"
     id="path954"
     d="" /><path
     style="fill:#000000;stroke-width:0.089119"
     id="path364"
     d="" /><path
     style="fill:#000000;stroke-width:0.089119"
     id="path362"
     d="" /><path
     style="fill:#000000;stroke-width:0.089119"
     id="path360"
     d="" /><path
     style="fill:#000000;stroke-width:0.089119"
     id="path358"
     d="" /><path
     style="fill:#000000;stroke-width:0.089119"
     id="path356"
     d="" /></svg>
