<?xml version="1.0" encoding="UTF-8" standalone="no"?><!-- Generator: Gravit.io --><svg xmlns="http://www.w3.org/2000/svg" xmlns:xlink="http://www.w3.org/1999/xlink" style="isolation:isolate" viewBox="0 0 1000 1000" width="1000pt" height="1000pt"><defs><clipPath id="_clipPath_x6XlKbaEcrVhTPmI17dSCSnE3kIy3TFC"><rect width="1000" height="1000"/></clipPath></defs><g clip-path="url(#_clipPath_x6XlKbaEcrVhTPmI17dSCSnE3kIy3TFC)"><path d=" M 779.858 698.095 C 853.672 622.57 903.176 523.645 903.176 410.574 C 903.176 191.411 725.246 13.481 506.083 13.481 C 286.921 13.481 108.991 191.411 108.991 410.574 C 108.991 525.014 154.188 620.42 235.079 700.71 L 235.053 700.71 L 489.942 982 L 780.349 698.095 L 779.858 698.095 Z " fill="rgb(220,220,220)"/><path d=" M 279.241 532.446 L 274.941 472.185 Q 273.591 436.401 277.091 414.073 C 280.59 391.746 284.555 379.788 292.154 362.419 C 299.76 345.05 311.538 327.875 324.438 310.765 C 337.339 293.654 350.795 278.532 367.486 263.417 C 384.177 248.295 401.823 233.916 423.447 222.52 C 445.064 211.123 460.167 205.487 481.558 200.999 C 502.943 196.512 514.985 194.975 533.212 196.693 C 551.44 198.417 577.06 205.571 597.238 224.134 C 617.415 242.697 610.151 241.083 628.715 258.839 C 647.278 276.595 661.806 276.595 677.141 286.281 C 692.475 295.966 705.389 308.072 715.881 327.443 C 726.374 346.813 729.602 361.341 729.602 379.904 C 729.602 398.467 725.702 410.755 712.653 436.401 C 699.61 462.054 686.057 474.134 675.262 485.098 C 664.459 496.062 645.845 514.535 627.908 528.146 C 609.977 541.756 581.877 558.699 554.733 571.187 C 527.588 583.674 508.547 592.333 481.558 597.014 C 454.562 601.701 429.891 597.911 401.92 597.014 C 373.949 596.123 358.382 594.257 334.931 591.364 C 353.591 578.812 367.763 568.384 386.856 553.973 C 405.949 539.561 433.532 518.506 455.731 495.862 C 477.923 473.218 523.792 397.66 540.741 379.097 C 557.69 360.534 567.375 352.463 578.674 337.935 C 589.974 323.407 606.116 304.037 596.431 295.159 C 586.745 286.281 576.647 287.094 565.496 287.088 C 554.339 287.088 538.016 296.263 524.599 304.308 C 511.188 312.353 501.722 321.812 490.165 332.285 Q 478.607 342.765 409.184 441.244 Q 381.252 470.764 371.792 478.641 C 362.327 486.525 358.427 487.481 352.422 493.705 C 346.411 499.929 342.963 511.771 335.202 519.532 C 327.441 527.3 320.267 534.325 309.375 536.752 Q 298.482 539.18 279.241 532.446 Z " fill="rgb(255,255,255)"/></g></svg>
