<svg version="1.1" x="0px" y="0px" width="24px" height="24px" viewBox="-31.153 -47.93 1916.557 1298.91" style="enable-background:new 0 0 2200 2200;" xmlns="http://www.w3.org/2000/svg">
  <defs></defs>
  <g id="Objects" transform="matrix(1, 0, 0, 1, -220.479263, -498.475006)">
    <g>
      <path style="fill:#664237;" d="M781.883,1264.261c17.266-177.754,105.167-371.126,247.512-544.495    c55.348-67.408,119.724-123.976,191.341-168.131c68.974-42.526,141.695-71.791,216.141-86.983    c38.065-7.768,75.572-11.651,112.274-11.651c34.673,0,68.63,3.469,101.616,10.405c32.937,6.926,64.248,17.197,93.752,30.722    c19.677,9.02,18.324,37.482-2.121,44.588c-73.988,25.715-141.388,64.943-198.488,115.957    c-83.684,74.765-140.517,170.67-164.36,277.346c-11.441,51.189-15.832,104.776-20.078,156.598    c-4.666,56.949-9.491,115.836-23.805,169.473c-28.505,106.866-96.786,202.147-197.466,275.542    c-55.067,40.159-120.735,74.379-195.728,102.055c-24.928,9.2-52.898,1.629-69.834-18.846    C800.068,1529.104,768.061,1406.552,781.883,1264.261z M1956.715,1155.93c-29.372,78.842-72.329,152.997-127.675,220.405    c-68.65,83.609-146.188,156.001-230.459,215.163c-81.182,56.993-164.971,99.246-249.044,125.585    c-83.427,26.136-162.706,35.212-235.626,26.974c-46.104-5.207-88.411-17.259-126.498-35.978    c-18.49-9.087-17.504-35.697,1.582-43.455c65.922-26.798,124.55-58.805,175.01-95.605    c108.87-79.366,182.862-182.98,213.979-299.639c15.327-57.432,20.316-118.311,25.139-177.186    c4.125-50.338,8.39-102.39,19.17-150.622c21.834-97.693,73.979-185.608,150.798-254.24    c66.351-59.279,147.883-101.401,237.793-123.165c20.616-4.99,42.28,1.118,57.249,16.146    c38.503,38.656,69.174,84.457,91.429,136.638c27.22,63.826,40.815,134.494,40.405,210.042    C1999.554,1002.973,1985.002,1079.998,1956.715,1155.93z"></path>
      <path style="fill:#3F302D;" d="M972.925,1737.555c-20.31-9.985-32.441-30.229-31.642-52.828    c0.186-5.255,1.062-10.336,2.551-15.142c-7.5,1.872-15.197,2.814-22.981,2.814c-28.521,0-55.324-12.613-73.521-34.62    c-39.295-47.506-67.652-104.21-84.272-168.555c-16.434-63.623-21.109-133.651-13.872-208.135    c6.296-64.871,21.613-131.647,45.196-198.752c-3.558-40.806-8.014-82.017-16.675-120.764    c-21.832-97.695-73.98-185.613-150.796-254.24c-66.349-59.287-147.884-101.407-237.795-123.173    c-20.616-4.982-42.284,1.128-57.251,16.149c-38.496,38.66-69.174,84.458-91.422,136.64    c-27.229,63.831-40.817,134.494-40.412,210.04c0.416,75.984,14.967,153.008,43.247,228.937    c29.375,78.842,72.338,152.997,127.684,220.408c68.648,83.604,146.187,155.997,230.459,215.164    c81.174,56.988,164.964,99.239,249.039,125.582c47.813,14.978,94.268,24.35,138.939,28.083    C983.83,1742.756,978.333,1740.216,972.925,1737.555z M979.264,551.637c-68.977-42.525-141.698-71.791-216.138-86.987    C725.057,456.887,687.558,453,650.847,453c-34.675,0-68.626,3.471-101.615,10.401c-32.934,6.93-64.247,17.2-93.754,30.722    c-19.675,9.022-18.317,37.488,2.124,44.594c73.991,25.719,141.391,64.937,198.489,115.958    c83.681,74.758,140.516,170.668,164.362,277.341c3.318,14.814,6.033,29.835,8.332,44.955    c43.127-94.947,102.228-189.139,175.223-278.053c22.434-27.328,46.302-52.948,71.506-76.75    C1045.164,596.012,1013.008,572.45,979.264,551.637z"></path>
    </g>
  </g>
</svg>