<svg xmlns="http://www.w3.org/2000/svg" width="1014" height="423" viewBox="0 0 1014 423" version="1.1"><path d="M 748.309 172.533 C 740.669 176.341, 737.875 181.012, 737.113 191.251 C 736.512 199.333, 736.444 199.506, 733.750 199.816 C 731.357 200.092, 731 200.570, 731 203.500 C 731 206.430, 731.357 206.908, 733.750 207.184 L 736.500 207.500 736.681 224.393 L 736.861 241.286 741.681 241.287 L 746.500 241.287 746.774 224.144 L 747.047 207 752.024 207 L 757 207 757 203.500 L 757 200 751.891 200 L 746.781 200 747.157 192.563 C 747.469 186.388, 747.941 184.692, 749.941 182.563 C 751.389 181.021, 753.441 180, 755.090 180 C 758.637 180, 765.203 172.375, 762.908 170.922 C 760.225 169.224, 753.450 169.971, 748.309 172.533 M 713.923 173.923 L 711 176.846 711 203.955 C 711 238.087, 711.534 239.793, 722.604 241.011 L 728 241.605 728 236.803 C 728 232.458, 727.781 232, 725.700 232 C 721.102 232, 721 231.309, 721 200.300 C 721 171.305, 720.978 171, 718.923 171 C 717.781 171, 715.531 172.315, 713.923 173.923 M 623.180 192.682 C 616.252 196.096, 613 203.947, 613 217.261 C 613 227.304, 615.133 234.032, 619.546 237.906 C 622.839 240.797, 623.579 241, 630.844 241 C 636.131 241, 639.239 240.530, 640.559 239.532 C 643.404 237.380, 644 237.651, 644 241.099 C 644 245.441, 641.363 250.514, 638.405 251.861 C 634.409 253.682, 626.913 253.244, 623.187 250.973 L 619.875 248.953 616.937 251.045 C 615.322 252.195, 614 253.509, 614 253.965 C 614 255.663, 621.078 260.928, 624.723 261.940 C 636.902 265.322, 649.565 259.995, 652.866 250.101 C 653.540 248.080, 654 239.544, 654 229.047 C 654 212.263, 653.878 211.148, 651.523 206.421 C 648.671 200.699, 641.944 193.310, 638.339 191.939 C 634.531 190.491, 626.862 190.867, 623.180 192.682 M 675.128 192.707 C 671.330 194.578, 664.462 202.722, 662.245 207.984 C 659.940 213.457, 660.924 227.313, 664.008 232.800 C 669.736 242.992, 683.374 245.489, 694.338 238.353 C 700.878 234.097, 704.180 222.599, 702.568 209.696 C 700.802 195.567, 686.853 186.930, 675.128 192.707 M 627.795 202.494 C 621.608 205.977, 621.222 226.240, 627.261 230.471 C 630.543 232.769, 636.411 232.411, 639.538 229.721 C 644.437 225.507, 645.108 209.562, 640.607 204.329 C 637.942 201.231, 631.642 200.329, 627.795 202.494 M 676.144 202.562 C 672.777 204.991, 671 210.002, 671 217.067 C 671 224.261, 673.245 229.762, 676.718 231.083 C 683.590 233.696, 690.146 230.737, 691.960 224.205 C 694.067 216.619, 692.682 206.832, 689.035 203.532 C 686.214 200.978, 679.083 200.442, 676.144 202.562" stroke="none" fill="#ce1443" fill-rule="evenodd"/><path d="M 652.460 134.966 C 652.751 137.004, 658.085 137.600, 659.451 135.748 C 660.028 134.965, 661.175 134.094, 662 133.812 C 662.825 133.530, 660.967 133.329, 657.870 133.366 C 653.406 133.418, 652.286 133.750, 652.460 134.966 M 643.750 136.392 C 642.788 137.123, 642 138.008, 642 138.360 C 642 138.712, 642.788 138.986, 643.750 138.968 C 645.566 138.935, 649 136.758, 649 135.640 C 649 134.521, 645.566 135.013, 643.750 136.392 M 665 136.500 C 666.338 138.112, 671 138.584, 671 137.107 C 671 136.005, 668.518 135, 665.796 135 C 664.095 135, 663.963 135.250, 665 136.500 M 660.250 137.672 C 657.989 138.567, 658.871 142.001, 661.632 143.050 C 666.294 144.823, 670.144 141.960, 666.750 139.245 C 665.030 137.869, 661.756 137.077, 660.250 137.672 M 646.557 139.937 C 644.530 142.177, 645.233 144, 648.125 144 C 651.263 144, 654 142.120, 654 139.965 C 654 137.309, 648.952 137.290, 646.557 139.937 M 674 138.941 C 674 139.523, 673.325 140, 672.500 140 C 671.675 140, 671 140.372, 671 140.826 C 671 142.048, 675.441 146, 676.814 146 C 678.482 146, 678.291 143.486, 676.511 142.009 C 675.692 141.329, 675.249 140.405, 675.527 139.956 C 675.805 139.506, 675.575 138.856, 675.016 138.510 C 674.457 138.165, 674 138.359, 674 138.941 M 637.870 140.657 C 636.010 142.898, 635.757 146, 637.435 146 C 639.224 146, 642 143.285, 642 141.536 C 642 139.506, 639.301 138.932, 637.870 140.657 M 651.452 146.433 C 649.155 149.939, 650.965 153, 655.335 153 C 659.102 153, 661 151.492, 661 148.500 C 661 143.626, 654.249 142.164, 651.452 146.433 M 632.431 146.750 C 631.040 149.068, 630.667 156, 631.933 156 C 632.481 156, 633.395 155.130, 633.965 154.066 C 635.362 151.456, 635.312 147.689, 633.893 148.566 C 633.148 149.027, 633.006 148.555, 633.460 147.125 C 634.279 144.545, 633.848 144.388, 632.431 146.750 M 640.686 146.116 C 636.701 148.434, 636.900 154, 640.967 154 C 644.915 154, 647.828 146.916, 644.418 145.607 C 642.525 144.880, 642.898 144.830, 640.686 146.116 M 666.465 146.057 C 664.411 149.380, 669.664 155.110, 673.436 153.663 C 675.457 152.888, 675.452 148.595, 673.429 146.571 C 671.641 144.784, 667.443 144.474, 666.465 146.057 M 678.388 148.431 C 677.590 150.510, 679.833 155, 681.669 155 C 683.700 155, 683.254 150.540, 681.021 148.519 C 679.172 146.846, 678.999 146.840, 678.388 148.431 M 628.909 154.500 C 628.859 155.325, 628.818 157.350, 628.818 159 C 628.818 163.713, 628.935 164.158, 630 163.500 C 631.248 162.729, 631.330 157, 630.094 157 C 629.595 157, 629.423 156.100, 629.710 155 C 629.998 153.900, 629.956 153, 629.617 153 C 629.277 153, 628.959 153.675, 628.909 154.500 M 644.698 155.781 C 641.346 159.485, 643.329 165, 648.012 165 C 650.081 165, 651.462 164.224, 652.667 162.385 C 654.202 160.042, 654.227 159.495, 652.909 157.135 C 651.078 153.857, 647.041 153.192, 644.698 155.781 M 660.571 155.571 C 657.119 159.024, 659.646 165.250, 664.500 165.250 C 669.501 165.250, 671.886 159.017, 668.171 155.655 C 665.867 153.569, 662.609 153.533, 660.571 155.571 M 634.200 156.200 C 632.458 157.942, 632.681 163.940, 634.513 164.643 C 636.716 165.489, 639 163.165, 639 160.078 C 639 157.619, 637.452 155, 636 155 C 635.670 155, 634.860 155.540, 634.200 156.200 M 674.850 157.429 C 673.228 160.989, 675.139 165.268, 678.151 164.818 C 680.927 164.404, 682.165 160.964, 680.639 157.903 C 678.958 154.530, 676.271 154.310, 674.850 157.429 M 684 160.500 C 684 162.425, 684.450 164, 685 164 C 685.550 164, 686 162.425, 686 160.500 C 686 158.575, 685.550 157, 685 157 C 684.450 157, 684 158.575, 684 160.500 M 628.070 166.781 C 628.032 168.036, 628.701 169.332, 629.557 169.660 C 630.414 169.989, 630.876 170.880, 630.584 171.641 C 629.968 173.247, 631.912 178, 633.186 178 C 633.662 178, 633.359 176.662, 632.514 175.027 C 631.152 172.393, 631.149 172.120, 632.488 172.634 C 633.629 173.072, 634 172.482, 634 170.229 C 634 166.492, 631.373 163.864, 630.337 166.564 C 629.692 168.246, 629.605 168.238, 628.895 166.427 C 628.209 164.673, 628.134 164.705, 628.070 166.781 M 680.581 166.562 C 678.738 168.404, 678.485 172.563, 680.152 173.594 C 681.629 174.507, 684 171.288, 684 168.368 C 684 165.385, 682.533 164.610, 680.581 166.562 M 637.386 167.435 C 635.843 171.459, 639.815 176.776, 643.350 175.419 C 647.407 173.862, 645.386 166.719, 640.737 166.183 C 638.945 165.976, 637.779 166.412, 637.386 167.435 M 651.536 167.960 C 648.043 171.820, 652.194 177.921, 657.422 176.609 C 660.294 175.888, 662.367 171.555, 661.032 169.061 C 659.150 165.543, 654.239 164.973, 651.536 167.960 M 667.421 168.481 C 664.993 172.186, 666.833 176.269, 670.727 175.816 C 674.213 175.410, 677.027 170.859, 675.399 168.259 C 673.583 165.357, 669.391 165.474, 667.421 168.481 M 635 176.845 C 635 178.852, 637.949 182, 639.829 182 C 641.642 182, 641.211 178.501, 639.171 176.655 C 636.762 174.475, 635 174.555, 635 176.845 M 674.073 177.635 C 672.933 179.084, 672 180.632, 672 181.076 C 672 182.558, 674.161 183.239, 675.287 182.113 C 677.272 180.128, 678.366 180.938, 676.494 183.006 C 673.821 185.960, 675.252 186.425, 678.004 183.496 C 679.293 182.123, 679.831 181, 679.199 181 C 678.456 181, 678.262 179.941, 678.650 178 C 679.429 174.106, 677.001 173.912, 674.073 177.635 M 645 179.477 C 645 182.695, 649.444 185.839, 651.851 184.324 C 655.763 181.861, 653.159 177, 647.929 177 C 645.479 177, 645 177.405, 645 179.477 M 660.750 178.080 C 659.788 178.641, 659 180.172, 659 181.482 C 659 185.740, 665.842 186.032, 668.070 181.868 C 670.115 178.048, 665.185 175.497, 660.750 178.080 M 641.667 183.667 C 640.990 184.343, 642.067 187.307, 643.288 188.127 C 644.436 188.899, 648 188.051, 648 187.006 C 648 185.400, 642.718 182.615, 641.667 183.667 M 666.206 185.568 C 664.974 186.431, 664.226 187.557, 664.544 188.070 C 665.176 189.094, 671.818 188.561, 672.854 187.403 C 673.209 187.006, 672.600 187.005, 671.500 187.400 C 669.895 187.976, 669.747 187.870, 670.750 186.859 C 673.734 183.853, 670.120 182.827, 666.206 185.568 M 653.064 185.939 C 651.850 186.708, 651.838 187.100, 652.989 188.487 C 654.206 189.954, 654.068 190.055, 651.675 189.454 C 649.848 188.996, 649 189.178, 649 190.028 C 649 191.580, 657.571 190.601, 659.739 188.801 C 660.980 187.771, 660.933 187.424, 659.399 186.303 C 657.325 184.786, 655.089 184.658, 653.064 185.939 M 249.500 192.881 C 247.300 193.891, 244.608 195.720, 243.517 196.945 L 241.535 199.172 244.964 201.970 L 248.393 204.769 251.128 202.747 C 253.071 201.310, 255.507 200.702, 259.544 200.643 C 264.566 200.571, 265.503 200.883, 267.613 203.336 C 268.960 204.903, 270 207.394, 270 209.056 L 270 212 262.250 212.006 C 248.784 212.015, 242.194 215.282, 239.848 223.112 C 236.080 235.689, 247.633 244.713, 264.105 242.060 C 271.754 240.829, 274.762 238.827, 277.750 232.980 C 279.746 229.074, 280 227.092, 280 215.436 C 280 203.465, 279.799 201.993, 277.742 198.898 C 272.847 191.533, 258.904 188.562, 249.500 192.881 M 300.007 192.593 C 295.432 194.577, 292.295 197.583, 289.669 202.500 C 287.724 206.141, 287.531 208.062, 287.516 223.889 L 287.500 241.278 292.500 241.283 L 297.500 241.289 298 223.555 L 298.500 205.821 301.306 203.411 C 305.264 200.010, 310.071 200.198, 314.234 203.917 L 317.500 206.834 317.748 224.060 L 317.995 241.286 322.748 241.288 L 327.500 241.290 328 224.164 C 328.491 207.363, 328.549 206.990, 331.097 204.445 C 334.977 200.570, 340.813 200.075, 344.569 203.304 L 347.500 205.822 347.814 223.411 L 348.129 241 353.123 241 L 358.117 241 357.808 221.169 L 357.500 201.338 354.767 197.758 C 348.999 190.203, 336.549 188.813, 328.997 194.882 L 325.052 198.052 322.938 195.938 C 318.084 191.084, 307.161 189.491, 300.007 192.593 M 378.500 192.896 C 372.407 195.717, 369.298 199.677, 367.416 207.013 C 365.160 215.811, 365.889 228.466, 368.936 233.397 C 375.392 243.843, 393.312 245.819, 403.068 237.162 L 407.264 233.438 403.523 230.586 C 401.092 228.731, 399.546 228.116, 399.107 228.828 C 398.734 229.430, 396.773 230.615, 394.747 231.461 C 385.766 235.214, 377 231.314, 377 223.566 L 377 221 387.599 221 C 404.006 221, 407 218.841, 407 207.012 C 407 202.102, 406.562 200.632, 404.291 197.934 C 398.712 191.304, 386.916 188.999, 378.500 192.896 M 428.530 192.594 C 423.670 194.373, 419.513 198.198, 416.677 203.500 C 414.735 207.129, 414.535 209.065, 414.519 224.389 L 414.500 241.277 419.500 241.283 L 424.500 241.290 425 224.895 C 425.335 213.919, 425.940 207.728, 426.830 206.165 C 428.781 202.742, 433.972 200.845, 438.125 202.036 C 439.974 202.566, 441.766 203, 442.107 203 C 442.855 203, 448 195.705, 448 194.645 C 448 193.218, 441.040 191, 436.782 191.070 C 434.427 191.109, 430.713 191.795, 428.530 192.594 M 458.110 192.396 C 453.460 194.973, 453.073 197.060, 453.035 219.750 L 453 241 458 241 L 463 241 463 216 C 463 189.320, 463.068 189.648, 458.110 192.396 M 484.519 192.598 C 474.798 196.156, 470.433 204.970, 471.195 219.501 C 471.903 232.975, 477.321 239.785, 489.114 242.022 C 496.960 243.510, 503.789 241.847, 509.068 237.162 L 513.264 233.438 509.610 230.651 L 505.956 227.864 502.610 229.932 C 497.642 233.002, 490.069 232.771, 486.096 229.427 C 478.772 223.265, 479.926 206.675, 487.967 202.517 C 492.040 200.411, 496.587 200.622, 501.830 203.160 L 506.291 205.319 509.136 201.910 L 511.981 198.500 508.955 195.898 C 503.326 191.057, 492.664 189.617, 484.519 192.598 M 528.245 192.432 C 526.455 193.244, 523.876 195.110, 522.515 196.579 L 520.039 199.250 523.610 202.088 L 527.181 204.926 530.096 202.771 C 533.762 200.061, 541.574 199.836, 545.382 202.331 C 547.458 203.691, 548 204.846, 548 207.907 L 548 211.767 538.250 212.190 C 523.202 212.842, 518.011 216.861, 518.004 227.868 C 518 232.742, 518.346 233.581, 521.762 236.997 C 526.701 241.937, 533.968 243.638, 543.072 241.987 C 555.451 239.742, 558.124 235.479, 558.738 217 C 559.123 205.420, 558.983 204.171, 556.827 200.023 C 553.557 193.731, 549.550 191.702, 539.586 191.291 C 533.975 191.059, 530.504 191.409, 528.245 192.432 M 576.450 192.407 C 572.458 194.146, 568.336 199.131, 567.044 203.781 C 566.476 205.826, 566.008 215.150, 566.005 224.500 L 565.998 241.500 570.749 241.380 L 575.500 241.259 576 224.380 C 576.514 207.022, 577.174 204.048, 580.957 202.023 C 584.364 200.200, 589.690 200.829, 592.694 203.411 L 595.500 205.821 596 223.540 L 596.500 241.259 601.306 241.379 L 606.112 241.500 605.806 221.320 C 605.458 198.345, 605.172 197.436, 596.980 193.250 C 591.868 190.638, 581.489 190.212, 576.450 192.407 M 383.388 200.927 C 380.203 202.294, 377 206.911, 377 210.135 L 377 213 386 213 C 393.667 213, 395.296 212.704, 397 211 C 399.587 208.413, 399.523 206.720, 396.717 203.457 C 394.217 200.551, 387.315 199.241, 383.388 200.927 M 250.655 222.829 C 249.745 223.835, 249 225.834, 249 227.272 C 249 231.115, 252.379 233, 259.268 233 C 266.481 233, 270 230.228, 270 224.545 L 270 221 261.155 221 C 253.856 221, 252.021 221.320, 250.655 222.829 M 529 223 C 526.361 225.639, 526.477 227.568, 529.455 230.545 C 531.418 232.509, 532.928 233, 537.004 233 C 539.807 233, 543.427 232.313, 545.050 231.474 C 547.650 230.130, 548 229.418, 548 225.474 L 548 221 539.500 221 C 532.333 221, 530.686 221.314, 529 223" stroke="none" fill="#192067" fill-rule="evenodd"/></svg>