<svg width="24px" height="24px" viewBox="205.69 100.11 138.95 134.026" xmlns="http://www.w3.org/2000/svg">
  <defs></defs>
  <title>oxygen-logo</title>
  <ellipse style="stroke: #000000; fill: #482683;" cx="275.438" cy="166.849" rx="65.823" ry="64.455"></ellipse>
  <path d="M 251.89 199.619 C 249.089 199.619 246.26 199.419 243.485 199.019 C 242.239 198.859 241.111 198.249 240.52 197.419 C 240.311 197.119 240.065 196.009 240.129 195.479 L 240.311 188.669 C 240.311 186.729 241.157 185.889 242.785 185.889 C 243.176 185.889 243.613 185.909 244.086 185.959 C 244.813 186.009 245.532 186.039 246.241 186.039 C 265.999 186.039 280.908 171.459 288.085 148.519 C 288.121 148.399 288.176 148.229 288.221 148.039 C 288.576 146.739 296.554 142.129 303.221 142.769 C 312.499 143.669 314.064 149.159 313.937 149.729 C 308.051 176.869 280.034 199.619 251.89 199.619 Z M 246.241 181.939 C 245.359 181.939 243.913 181.999 242.748 181.819 C 241.957 181.699 241.22 181.439 240.838 180.949 C 240.711 180.789 240.574 180.519 240.611 180.209 L 240.775 174.789 C 240.92 173.749 241.993 173.679 242.712 173.679 C 242.867 173.679 243.54 173.699 243.54 173.699 C 257.139 173.699 261.76 157.549 263.934 146.899 C 263.952 146.839 263.988 146.729 264.016 146.609 C 264.243 145.769 268.819 142.239 274.904 142.529 C 280.99 142.819 282.154 147.009 282.081 147.369 C 278.788 163.319 267.436 181.939 246.241 181.939 Z" style="fill: #FFFFFF; stroke: black;"></path>
</svg>