<?xml version="1.0" encoding="UTF-8" standalone="no"?>
<svg
   viewBox="0 0 18.040001 21.999998"
   width="18.040001pt"
   height="21.999998pt"
   version="1.1"
   id="svg2255"
   xmlns="http://www.w3.org/2000/svg"
   xmlns:svg="http://www.w3.org/2000/svg">
  <defs
     id="defs2259" />
  <path
     d="M 15.239,15.551 C 16.916,13.836 18.04,11.588 18.04,9.02 18.04,4.042 13.998,0 9.02,0 4.042,0 -1.9073488e-8,4.042 -1.9073488e-8,9.02 -1.9073488e-8,11.62 1.027,13.787 2.864,15.61 v 0 L 8.653,22 15.25,15.551 Z"
     fill="#FF69B4"
     id="path2253"
     style="fill:#d40000" />
  <path
     d="m 13.518137,3.8694387 c -0.115801,0.1586327 -0.352073,0.3175516 -0.54823,0.3687535 -0.07835,0.020435 -0.0528,0.058968 0.238195,0.3589876 l 0.325959,0.3360624 0.25813,-0.028482 c 0.141959,-0.015654 0.299351,-0.038491 0.349822,-0.05071 0.162058,-0.039348 0.153872,0.090268 -0.02469,0.3903294 l -0.167091,0.2807741 0.181051,0.317184 c 0.54336,0.9518374 0.793181,2.0250802 0.745411,3.2023623 -0.03898,0.959682 -0.234348,1.704504 -0.663788,2.530154 -0.836406,1.608067 -2.294886,2.71351 -4.11764,3.120921 -0.367261,0.08209 -0.536032,0.09497 -1.243619,0.09497 -0.707586,0 -0.876357,-0.01287 -1.243619,-0.09497 C 6.5353924,14.456027 5.6115503,13.98916 4.7968802,13.275231 L 4.549025,13.058 4.501585,13.235021 c -0.05677,0.212 -0.2139223,0.408964 -0.4037735,0.50622 l -0.13889,0.07111 0.1745428,0.169093 c 0.3655415,0.354207 0.95929,0.755038 1.5704767,1.060208 0.339999,0.169748 0.6669391,0.311463 0.7265402,0.314936 0.059604,0.0034 0.1083523,0.02113 0.1083523,0.03931 4.06e-5,0.01818 0.017189,0.02248 0.038146,0.0096 0.020957,-0.01296 0.050433,-0.0036 0.065535,0.0208 0.015102,0.02435 0.053219,0.03444 0.084688,0.02239 0.031516,-0.0121 0.057271,-0.003 0.057271,0.02002 0,0.02313 0.017151,0.03142 0.038108,0.01851 0.020957,-0.01296 0.04896,-0.0059 0.062267,0.01548 0.01326,0.02146 0.060624,0.03204 0.1051592,0.02345 0.04453,-0.0086 0.08101,6.95e-4 0.08101,0.0206 0,0.0199 0.03684,0.02909 0.08186,0.02044 0.04503,-0.0087 0.08186,0.002 0.08186,0.02358 0,0.02162 0.04642,0.03089 0.103154,0.02064 0.06059,-0.01095 0.09305,-0.0023 0.0786,0.02104 -0.01449,0.02337 0.01879,0.03183 0.08105,0.02055 0.05808,-0.0105 0.105611,-0.0045 0.105611,0.01328 0,0.04875 0.764198,0.125656 1.248489,0.125656 0.482981,0 1.2558983,-0.07756 1.2276543,-0.123163 -0.01027,-0.01659 0.03627,-0.0255 0.10344,-0.01982 0.06713,0.0058 0.122066,-0.0046 0.122066,-0.02313 0,-0.01844 0.03684,-0.02643 0.08186,-0.01777 0.04503,0.0087 0.08186,-5.31e-4 0.08186,-0.02044 0,-0.0199 0.03684,-0.02909 0.08186,-0.02043 0.04503,0.0087 0.08186,-5.32e-4 0.08186,-0.02044 0,-0.0199 0.03684,-0.0291 0.08186,-0.02044 0.04503,0.0087 0.08186,0.0015 0.08186,-0.01598 0,-0.01744 0.02764,-0.03477 0.0614,-0.03849 0.03377,-0.0038 0.08903,-0.0099 0.122802,-0.01365 0.03377,-0.0037 0.0614,-0.01904 0.0614,-0.03405 0,-0.015 0.02305,-0.02893 0.05117,-0.03102 0.135574,-0.01 0.302748,-0.06408 0.596165,-0.192837 1.468059,-0.644379 2.679544,-1.787784 3.401253,-3.210167 0.575984,-1.13515 0.820114,-2.244149 0.768865,-3.4923692 -0.05393,-1.3149197 -0.451392,-2.5273444 -1.191685,-3.6356072 -0.267831,-0.400914 -0.928467,-1.1699269 -0.999406,-1.1633882 -0.01486,0.00142 -0.08228,0.078172 -0.149818,0.1706871"
     stroke="none"
     fill="#f30030"
     fill-rule="evenodd"
     id="path3564"
     style="stroke-width:0.0408988" />
  <path
     d="m 10.775554,0.9961108 c 2.029225,0.5216245 3.778871,1.7899509 4.854374,3.5190143 0.562147,0.9036996 0.924495,1.8598273 1.130025,2.9814536 0.110522,0.6033925 0.100657,2.0303493 -0.01838,2.6574853 -0.678113,3.571768 -3.466502,6.174334 -7.050772,6.580927 -0.583433,0.0662 -1.690823,0.02677 -2.272824,-0.08087 -2.5581751,-0.473204 -4.6995589,-2.103296 -5.8058441,-4.419652 -0.2704926,-0.56633 -0.4568645,-1.0835 -0.5955902,-1.65269 -0.10704332,-0.438998 -0.10732952,-0.282449 -4.099e-4,0.210162 0.359974,1.658697 1.4041204,3.38298 2.6897377,4.441879 0.1510459,0.124389 0.3206775,0.265206 0.3769617,0.312852 l 0.1023352,0.08663 -0.1228023,-0.07343 c -0.067537,-0.04037 -0.1451932,-0.09202 -0.1725367,-0.114783 -0.027389,-0.02276 -0.07344,-0.06007 -0.1023353,-0.08288 C 3.4174098,15.070365 3.2657084,14.93531 2.9161724,14.586417 2.6910349,14.361667 2.4699093,14.131809 2.4247582,14.075621 2.1925798,13.786593 1.822454,13.2778 1.7682174,13.173025 c -0.033934,-0.06542 -0.072165,-0.118994 -0.084981,-0.118994 -0.012816,0 0.02755,0.08732 0.089647,0.194102 1.1027227,1.894847 3.0188471,3.34142 5.1548694,3.891568 0.7338252,0.189035 1.3057552,0.258136 2.1285722,0.257196 1.372725,-0.0015 2.462472,-0.252088 3.684067,-0.847022 3.499127,-1.704096 5.375505,-5.55619 4.559156,-9.3597776 -0.395669,-1.84336 -1.576617,-3.7215346 -3.027853,-4.8153326 -0.259973,-0.1959407 -0.260504,-0.1961453 -0.05911,-0.020435 0.466321,0.4068795 1.006692,0.9799518 1.265396,1.3419216 0.224235,0.3137924 0.434801,0.6231712 0.434801,0.638863 0,0.0091 0.05019,0.094354 0.111545,0.1894438 0.06136,0.095048 0.143679,0.2464072 0.182935,0.3363075 0.03925,0.0899 0.04891,0.1285165 0.02149,0.085814 C 15.433238,3.7084324 14.970274,3.1748348 14.109062,2.5035266 13.471431,2.0065017 12.666626,1.5586366 11.891498,1.269526 11.489689,1.1196788 10.561796,0.8750694 10.40817,0.8785019 c -0.0456,0.00107 0.119733,0.053983 0.367383,0.1176053 m 2.926787,0.9558012 c 0,0.010093 0.06762,0.069877 0.150269,0.1328068 0.08265,0.062928 0.137375,0.093537 0.121575,0.068035 C 13.941804,2.1004482 13.70234,1.9235467 13.70234,1.9519063"
     stroke="none"
     fill="#ab1d30"
     fill-rule="evenodd"
     id="path3566"
     style="stroke-width:0.0408988" />
  <path
     d="M 9.915939,5.5604992 C 9.074416,5.6971063 8.79852,5.7563591 8.759551,5.8087871 c -0.03066,0.041275 -0.05117,0.1966356 -0.05117,0.3879593 0,0.3726761 -0.0573,0.3488527 0.602508,0.2503718 0.2533,-0.037797 0.470414,-0.058841 0.482531,-0.046793 C 9.8055,6.4124232 9.465005,7.0139339 9.036753,7.7370568 8.608501,8.4601802 8.258106,9.069662 8.258106,9.091482 c 0,0.02178 0.02304,0.03952 0.05117,0.03936 0.181707,-10e-4 2.542497,-0.4067975 2.579011,-0.4432477 0.02481,-0.024763 0.05338,-0.2017439 0.06345,-0.3932717 0.02153,-0.4097808 0.07876,-0.3846088 -0.605987,-0.2665125 -0.548477,0.094599 -0.573079,0.096192 -0.573079,0.037102 0,-0.024558 0.340573,-0.6109525 0.756832,-1.3031013 0.416258,-0.6921891 0.76821,-1.2881037 0.782127,-1.3243087 0.03741,-0.097338 -0.128205,-0.082749 -1.395688,0.1229991 m 1.725985,-0.1588367 c -0.03274,0.052877 -0.0483,0.616428 -0.01785,0.6468304 0.01494,0.014918 0.170367,0.00206 0.34536,-0.028603 l 0.318222,-0.055696 -0.162508,-0.1623104 c -0.0894,-0.089287 -0.157883,-0.1766124 -0.152275,-0.1941026 0.0056,-0.017489 -0.01277,-0.027172 -0.04093,-0.021576 -0.02812,0.0056 -0.04654,-0.01275 -0.04093,-0.040863 0.0056,-0.028072 -0.01277,-0.04646 -0.04093,-0.040863 -0.02813,0.00559 -0.04503,-0.017368 -0.03753,-0.051078 0.0076,-0.033709 0,-0.047649 -0.01671,-0.031018 -0.01666,0.016674 -0.05342,0.011199 -0.08162,-0.012176 -0.0282,-0.023375 -0.06075,-0.027214 -0.07229,-0.00855 M 7.936951,5.8802161 C 7.663839,5.9338731 7.605467,5.9806592 7.602806,6.1480773 7.601885,6.2042623 7.566586,6.7169818 7.524256,7.2874793 7.441606,8.4015037 7.424336,8.468806 7.189906,8.5890683 7.05204,8.6598023 6.8026695,8.6530593 6.7260005,8.5765653 6.6442965,8.4949603 6.6445045,8.3971323 6.7288305,7.1579426 6.7723035,6.5194069 6.7834385,6.1307117 6.7589585,6.1062755 6.7124545,6.0598515 6.1045455,6.1566595 6.040361,6.2207345 5.985187,6.2758215 5.8194395,8.6552278 5.8571804,8.8507194 5.9513694,9.338426 6.4170366,9.552347 7.079226,9.412104 7.677029,9.285467 8.080844,8.9078876 8.21564,8.3495267 8.26591,8.1414488 8.428619,5.9060842 8.397222,5.8553725 8.369882,5.8111585 8.257433,5.8172495 7.936919,5.8802135 m 3.881657,1.5985047 C 11.441818,8.116518 11.168951,8.6199171 11.1895,8.6392866 c 0.01998,0.018799 0.478397,-0.036982 1.018727,-0.1239393 0.54033,-0.086917 0.996867,-0.1586738 1.01451,-0.159368 0.03442,-0.00134 0.01625,-0.3082752 -0.02424,-0.4099033 -0.01347,-0.033709 -0.0332,-0.1227953 -0.04388,-0.1979438 -0.01073,-0.075189 -0.02542,-0.1426138 -0.03267,-0.1498876 -0.0073,-0.00723 -0.103768,0.00368 -0.214454,0.024317 -0.110645,0.020633 -0.21171,0.027052 -0.224564,0.014181 -0.01285,-0.012828 0.0379,-0.1378332 0.112814,-0.2778325 0.137498,-0.2568686 0.151088,-0.3689171 0.05682,-0.4683792 -0.02837,-0.02987 -0.04109,-0.071266 -0.02829,-0.091943 0.01277,-0.020634 0.0083,-0.037556 -0.0099,-0.037592 -0.01822,-4.12e-5 -0.08481,-0.091984 -0.148059,-0.2043189 C 12.603154,6.4443431 12.536229,6.3524 12.517686,6.3524 c -0.01859,0 -0.333204,0.5068729 -0.699114,1.1263247 M 4.9015293,6.4773971 c 0,0.023778 -0.021288,0.030153 -0.047279,0.014138 -0.028815,-0.017815 -0.036144,-0.011234 -0.018785,0.016795 0.033972,0.054839 -0.081581,0.2935646 -0.1420822,0.2935646 -0.023243,0 -0.031762,0.017 -0.01887,0.037797 0.035983,0.058147 -0.065535,0.2491457 -0.1166616,0.2195197 -0.024848,-0.014422 -0.012977,0.010582 0.026445,0.055576 0.071674,0.081768 0.094067,0.2759115 0.046212,0.4003819 -0.013997,0.036408 -0.076793,0.092679 -0.1395444,0.1250429 -0.087805,0.045362 -0.1207548,0.099135 -0.1430238,0.233454 -0.015923,0.09603 -0.03995,0.1929174 -0.05338,0.2153929 -0.013468,0.022433 -0.027474,0.1077162 -0.03111,0.1895252 l -0.00661,0.1487033 0.158252,-0.021165 c 0.2151491,-0.028807 0.2818307,0.035431 0.2818307,0.2714164 0,0.241014 -0.081987,0.35772 -0.2907132,0.413826 l -0.164883,0.04433 0.028692,0.232677 c 0.015763,0.127983 0.033981,0.26026 0.040451,0.293972 0.00652,0.03371 0.013184,0.07335 0.014903,0.08806 0.00472,0.04029 0.4471642,-0.0834 0.6358707,-0.177757 C 5.3198237,9.393341 5.4915426,9.139742 5.5544171,8.6964118 5.6091476,8.310659 5.5500726,8.058775 5.3716869,7.9166513 L 5.2350088,7.8077904 5.3307538,7.6942304 C 5.4305918,7.5757666 5.5156117,7.2672052 5.5156117,7.0233309 5.5156117,6.8112898 5.4147498,6.6097094 5.2622296,6.5169078 5.117978,6.4290924 4.9016002,6.4053906 4.9016002,6.4773894 M 13.062546,9.235603 c -0.429684,0.207629 -0.775659,0.710333 -0.828505,1.203802 -0.02198,0.205627 -0.05964,0.320822 -0.145071,0.443903 -0.120264,0.173262 -0.508769,0.556154 -0.536318,0.528612 -0.0088,-0.0087 0.0941,-0.392128 0.228494,-0.852049 0.134428,-0.45992 0.261528,-0.897856 0.282486,-0.973167 l 0.03806,-0.136975 -0.151374,0.02758 c -0.186496,0.03395 -0.226611,0.07568 -0.291164,0.30284 l -0.05092,0.179106 -0.07639,-0.12541 c -0.0861,-0.141266 -0.196291,-0.212368 -0.329205,-0.212368 -0.515318,0 -1.110541,0.684751 -1.180333,1.357817 -0.01764,0.170197 -0.05861,0.30378 -0.119283,0.388817 -0.18715,0.262387 -0.429316,0.377294 -0.485723,0.230512 -0.01396,-0.03633 0.03483,-0.285637 0.108434,-0.55407 0.229722,-0.83795 0.152071,-1.082356 -0.316134,-0.994785 -0.111136,0.0208 -0.217851,0.09317 -0.388587,0.263571 -0.232342,0.231901 -0.275609,0.236437 -0.193291,0.02023 0.02313,-0.06076 0.03635,-0.116175 0.02939,-0.123163 -0.007,-0.007 -0.08919,0.0067 -0.182688,0.0304 -0.191408,0.04851 -0.173765,0.0081 -0.469678,1.073979 -0.11392,0.410312 -0.159274,0.513043 -0.285351,0.646463 -0.125136,0.132438 -0.172414,0.156467 -0.286539,0.145556 -0.118504,-0.01136 -0.138234,-0.02943 -0.148754,-0.136281 -0.0066,-0.06775 0.07847,-0.435526 0.189116,-0.817273 0.110685,-0.381749 0.195665,-0.700486 0.188869,-0.708331 -0.0069,-0.0078 -0.08507,-0.0021 -0.173805,0.01296 l -0.161404,0.02721 -0.214617,0.736895 c -0.2187514,0.751278 -0.2428611,0.9728 -0.1216963,1.11852 0.07863,0.0946 0.3568633,0.07343 0.5545743,-0.04221 0.09583,-0.05606 0.180315,-0.08446 0.187806,-0.06314 0.01257,0.036 0.30066,-0.0058 0.344993,-0.05002 0.0098,-0.0099 0.104668,-0.317511 0.210687,-0.683731 0.176467,-0.609523 0.207864,-0.682546 0.371273,-0.86398 0.17577,-0.195166 0.361406,-0.285556 0.509506,-0.248043 0.122802,0.0311 0.132585,0.210039 0.03176,0.580591 -0.165455,0.607929 -0.180232,0.713561 -0.118299,0.843221 0.112896,0.236192 0.500174,0.140122 0.78794,-0.195491 l 0.147814,-0.172404 0.113918,0.108942 c 0.06263,0.05994 0.173439,0.120834 0.24622,0.135382 0.175934,0.03514 0.467385,-0.07822 0.66923,-0.260261 0.16824,-0.151768 0.18531,-0.132725 0.109008,0.121529 -0.04437,0.147885 -0.07786,0.176081 -0.402751,0.338964 -0.531119,0.266308 -0.735913,0.47079 -0.735913,0.734933 0,0.151971 0.170123,0.306844 0.335865,0.305741 0.405043,-0.0027 0.855644,-0.461963 1.054462,-1.074754 0.03509,-0.108126 0.176712,-0.280897 0.459895,-0.561018 l 0.409177,-0.404795 0.121942,0.121732 c 0.148754,0.148541 0.265499,0.155977 0.327187,0.02084 0.02529,-0.05546 0.06177,-0.09117 0.08097,-0.07931 0.06954,0.04291 0.03246,-0.02183 -0.08784,-0.15328 -0.108311,-0.118381 -0.122679,-0.163291 -0.121901,-0.380522 0.0014,-0.383342 0.24061,-0.800356 0.527067,-0.918819 0.09775,-0.04041 0.121738,-0.0778 0.134305,-0.209343 0.0084,-0.08806 0.01482,-0.159491 0.0142,-0.158632 -5.73e-4,8.5e-4 -0.09562,0.04716 -0.211138,0.102975 M 7.570404,9.652123 C 7.441748,9.76315 7.421976,9.890031 7.518294,9.986184 c 0.101107,0.100933 0.22743,0.06742 0.34663,-0.0919 C 8.029192,9.674601 7.780884,9.470447 7.570403,9.652127 M 5.6922241,9.865802 c -0.428007,0.06482 -0.9809442,0.283063 -1.1912635,0.470178 -0.00652,0.0058 0.010436,0.05913 0.037579,0.118586 0.048799,0.10694 0.050273,0.107268 0.1345502,0.03033 0.1077791,-0.09836 0.4339013,-0.263326 0.4630875,-0.234231 0.012079,0.0121 -0.036635,0.234557 -0.1082711,0.494409 l -0.1302105,0.472464 0.082601,0.115808 c 0.045437,0.06367 0.070862,0.127494 0.056534,0.141836 -0.04793,0.04782 0.3524827,0.03874 0.6406997,-0.01454 0.2347983,-0.04343 0.4719699,0.04491 0.5559669,0.207056 0.092348,0.178207 0.074989,0.479576 -0.039006,0.678582 -0.080967,0.14143 -0.087475,0.174815 -0.037825,0.193817 0.033074,0.01267 0.046788,0.0443 0.030619,0.07046 -0.018662,0.03016 -0.011466,0.03645 0.019654,0.01721 0.026973,-0.01663 0.07479,-0.0089 0.1062235,0.01712 0.045928,0.03804 0.081949,0.01328 0.1825658,-0.12537 C 6.8091198,12.08758 6.7537357,11.618221 6.3632249,11.397312 L 6.2156943,11.313823 6.4188499,11.139131 C 6.5305588,11.04306 6.6585602,10.892886 6.7032598,10.805397 6.8012969,10.613542 6.8089101,10.318303 6.7202504,10.147124 6.604079,9.922865 6.1450442,9.79725 5.6922313,9.86582 m 5.2880707,0.140652 c -0.55171,0.246571 -0.79887,1.331297 -0.303322,1.331297 0.388629,0 0.773532,-0.488321 0.77304,-0.980728 -2.45e-4,-0.248369 -0.01862,-0.292746 -0.149777,-0.361643 -0.112733,-0.05925 -0.166806,-0.05738 -0.319941,0.01107 M 5.5153558,10.27625 c -0.024395,0.09039 -0.097422,0.342601 -0.1623028,0.560445 -0.064883,0.217804 -0.1090077,0.410476 -0.098079,0.428129 0.03263,0.05271 0.3129416,0.03645 0.5421724,-0.03151 0.4085213,-0.121118 0.6662015,-0.469317 0.6016072,-0.81298 -0.040403,-0.215066 -0.2107688,-0.308113 -0.5643168,-0.308317 l -0.2747492,-1.63e-4 -0.044332,0.164395 m 5.1988744,1.794976 c -0.389119,0.199334 -0.501483,0.314977 -0.483923,0.49821 0.01203,0.125288 0.02608,0.138323 0.160995,0.149602 0.186701,0.01561 0.369348,-0.127986 0.503284,-0.395642 0.08383,-0.167541 0.167298,-0.416973 0.137661,-0.411497 -0.0061,0.0011 -0.149163,0.07282 -0.318017,0.159327"
     stroke="none"
     fill="#ffffff"
     fill-rule="evenodd"
     id="path3568"
     style="stroke-width:0.0408988" />
  <path
     d="m 12.435922,4.4152139 c -0.257516,0.09938 -0.592644,0.2379894 -0.744755,0.3079479 l -0.27655,0.1272501 0.242248,0.1780424 0.242206,0.1780022 0.830021,-0.1280256 0.82998,-0.1280667 -0.326163,-0.3307911 C 13.053535,4.4376475 12.910758,4.2749695 12.91567,4.2581339 c 0.0049,-0.016837 0.0043,-0.029056 -0.0013,-0.027137 -0.0056,0.00192 -0.220922,0.084833 -0.478437,0.1842134 m 1.10788,1.7875803 c -0.205489,0.3465649 -0.373318,0.6553303 -0.372909,0.6861414 3.68e-4,0.03077 0.04458,0.1755094 0.0982,0.3215976 l 0.09755,0.2656137 0.276674,-0.014875 0.276633,-0.014875 -0.02693,0.3784385 c -0.01477,0.2081594 -0.04572,0.401118 -0.06878,0.4287826 -0.02304,0.027703 -0.09673,0.061334 -0.163736,0.074699 l -0.121902,0.024352 V 8.72146 9.090254 l 0.11257,1.64e-4 c 0.165618,2.05e-4 0.375201,0.145106 0.442496,0.305904 0.07315,0.174733 0.07344,0.562774 5.74e-4,0.766602 -0.03013,0.0843 -0.04732,0.153239 -0.03823,0.153239 0.046,0 0.397223,-0.35817 0.448718,-0.457591 0.05596,-0.108003 0.191041,-0.155037 0.23615,-0.08221 0.01097,0.01777 -0.0079,0.0899 -0.04208,0.160267 -0.112527,0.231902 -0.339302,0.453792 -0.593258,0.580468 -0.13762,0.06865 -0.337255,0.206118 -0.443684,0.305497 -0.215191,0.200927 -0.444012,0.33071 -0.65732,0.372758 -0.113755,0.02243 -0.169344,0.07164 -0.284615,0.251844 -0.382282,0.59763 -1.0877,1.198 -1.821566,1.550244 -0.647905,0.311054 -1.126874,0.427679 -1.862501,0.453545 -0.901777,0.03172 -1.608095,-0.121733 -2.3521956,-0.510958 l -0.315337,-0.164966 -0.1429416,0.09685 c -0.3816689,0.258544 -0.9949843,0.353961 -1.3391172,0.208323 -0.087191,-0.03686 -0.206922,-0.06632 -0.2660716,-0.06546 -0.099757,0.0015 -0.089685,0.01778 0.1380295,0.223892 0.7938347,0.718587 1.7633172,1.214264 2.8497905,1.457117 0.36726,0.08209 0.536031,0.09497 1.243618,0.09497 0.707587,0 0.876358,-0.01287 1.243618,-0.09497 0.577253,-0.129048 1.049673,-0.29945 1.552261,-0.559955 1.611944,-0.83554 2.735871,-2.315784 3.127037,-4.118444 0.07532,-0.347096 0.09063,-0.548798 0.09202,-1.2131584 0.0019,-0.883799 -0.0436,-1.2021269 -0.272621,-1.9084148 -0.136435,-0.4208138 -0.552038,-1.2831595 -0.630549,-1.3083719 -0.02526,-0.00813 -0.214086,0.26876 -0.419575,0.6153654 m -0.06164,3.3676127 c -0.01159,0.03931 -0.03406,0.145066 -0.04998,0.234967 -0.02522,0.142492 -0.192227,0.667262 -0.284901,0.895118 -0.03069,0.07547 -0.02796,0.07568 0.09026,0.006 0.100043,-0.059 0.11879,-0.09313 0.104505,-0.190303 -0.02092,-0.142082 0.07614,-0.305046 0.205694,-0.34542 0.127755,-0.0398 0.153257,-0.09034 0.153995,-0.30517 8.5e-4,-0.258912 -0.164761,-0.481537 -0.219571,-0.295158 m -8.4137149,2.416023 c -0.2252188,0.770729 -0.213553,0.693743 -0.1134693,0.748867 0.1996357,0.109965 0.7071366,0.04107 0.9238412,-0.125411 l 0.097219,-0.0747 -0.4142125,-0.409781 -0.4142531,-0.409781 -0.079125,0.270804"
     stroke="none"
     fill="#f4003a"
     fill-rule="evenodd"
     id="path3570"
     style="stroke-width:0.0408988" />
  <path
     d="M 8.053438,0.4339907 C 5.8609261,0.6401477 3.7630131,1.7618547 2.3567639,3.4798446 1.0903454,5.0270653 0.41239488,7.0487128 0.49598198,9.028965 c 0.031271,0.741102 0.044502,0.850821 0.1747071,1.45066 0.2455225,1.131228 0.79858242,2.361224 1.42393302,3.166932 0.104669,0.13485 0.2394648,0.309543 0.2995144,0.388205 0.1503518,0.196963 0.8867548,0.924826 1.1360853,1.122892 0.1125683,0.08945 0.2270604,0.181393 0.2544049,0.204318 0.1053641,0.08834 0.1590699,0.126555 0.2777375,0.197699 l 0.1228023,0.07364 -0.1023343,-0.08663 C 4.0265433,15.499028 3.8569164,15.358212 3.7058695,15.233823 2.6577526,14.370579 1.7262567,13.007939 1.2658307,11.664424 1.0797034,11.121345 0.95264348,10.588483 0.98764178,10.49748 c 0.015394,-0.04013 0.00756,-0.05267 -0.021769,-0.03461 -0.031563,0.01949 -0.040035,-0.01181 -0.027096,-0.100034 0.010398,-0.07062 0.00227,-0.128394 -0.018048,-0.128394 -0.020296,0 -0.033565,-0.05058 -0.029476,-0.112375 0.00406,-0.06178 0.00255,-0.130764 -0.0034,-0.153239 C 0.83336678,9.762219 0.81069078,8.6991511 0.85002678,8.1912569 1.1281741,4.5969716 3.7044831,1.6656991 7.226452,0.9362424 7.79036,0.8194538 8.685466,0.7522741 9.260999,0.7835753 c 0.225136,0.012262 0.487647,0.019614 0.58331,0.016427 0.09566,-0.00326 0.17397,0.011567 0.17397,0.032852 0,0.021697 0.06569,0.028029 0.149614,0.014422 0.103277,-0.016717 0.141059,-0.010342 0.121902,0.020591 -0.01908,0.03077 0.02059,0.038129 0.126691,0.023418 0.119568,-0.016589 0.140567,-0.011157 0.093,0.024112 -0.04884,0.036161 -0.03991,0.040496 0.04379,0.021208 0.05895,-0.013565 0.292843,0.023212 0.532142,0.083729 1.331874,0.3367984 2.626332,1.0524844 3.653818,2.0200949 0.503161,0.4738554 0.874802,0.9494261 1.489509,1.9062488 0.02743,0.042705 0.01777,0.00411 -0.02149,-0.085814 -0.03926,-0.089894 -0.121581,-0.2412532 -0.182941,-0.3363017 -0.06136,-0.09509 -0.111546,-0.1803318 -0.111546,-0.1894438 0,-0.015689 -0.210564,-0.3250705 -0.434801,-0.6388629 C 14.850787,2.8186706 13.716054,1.8686727 12.629868,1.311946 11.216087,0.5872295 9.639715,0.2848384 8.053438,0.4339907"
     stroke="none"
     fill="#e32741"
     fill-rule="evenodd"
     id="path3572"
     style="stroke-width:0.0408988" />
  <path
     d="M 8.203706,0.7975953 C 6.6065809,0.9118503 4.9537448,1.5874489 3.6939572,2.6409957 1.3050856,4.6387788 0.29315408,7.8352973 1.0972634,10.84331 c 0.8020627,3.000087 3.2394004,5.240846 6.3207136,5.810812 0.582001,0.107635 1.689391,0.147068 2.272824,0.08087 3.58427,-0.406594 6.372659,-3.009159 7.050772,-6.580927 C 16.86061,9.526929 16.870475,8.0999719 16.759953,7.4965795 16.5577,6.3926877 16.218806,5.4864954 15.667425,4.5752767 15.041993,3.541549 14.078895,2.5813753 13.024351,1.9400614 12.292205,1.4948519 11.303606,1.1100795 10.44665,0.9368998 10.019913,0.8506361 8.977363,0.7434922 8.728852,0.7603682 c -0.04503,0.00305 -0.28134,0.019819 -0.525144,0.03723 M 7.971572,1.167128 C 5.7901126,1.4136174 3.7573257,2.658692 2.5082226,4.5135341 2.2280286,4.9295675 1.8005949,5.7889708 1.6326415,6.2738995 0.87106428,8.4730178 1.1917409,10.944043 2.4945498,12.915182 c 0.3978793,0.602003 0.6459404,0.84645 0.9273215,0.913834 0.1221469,0.02926 0.2895667,0.04013 0.3843303,0.02501 0.1559174,-0.02489 0.1798637,-0.01524 0.3348404,0.134851 0.3585007,0.347218 0.956383,0.74993 1.5629033,1.052769 0.3399989,0.169748 0.6669391,0.311464 0.7265402,0.314937 0.059604,0.0034 0.1083523,0.02113 0.1083523,0.03932 4.06e-5,0.01818 0.017189,0.02248 0.038156,0.0096 0.020957,-0.01296 0.050433,-0.0036 0.065535,0.0208 0.015102,0.02435 0.053219,0.03444 0.084688,0.02239 0.031516,-0.0121 0.057271,-0.003 0.057271,0.02002 0,0.02313 0.017151,0.03142 0.038108,0.01851 0.020957,-0.01296 0.04896,-0.0059 0.062267,0.01548 0.01326,0.02146 0.060624,0.03204 0.1051589,0.02345 0.04453,-0.0086 0.08101,6.95e-4 0.08101,0.0206 0,0.0199 0.03684,0.02909 0.08186,0.02044 0.04503,-0.0087 0.08187,0.002 0.08187,0.02358 0,0.02162 0.04642,0.03089 0.103154,0.02064 0.06059,-0.01095 0.09305,-0.0023 0.0786,0.02104 -0.01449,0.02337 0.01879,0.03183 0.08105,0.02055 0.05808,-0.0105 0.105611,-0.0045 0.105611,0.01328 0,0.04874 0.764198,0.125656 1.248489,0.125656 0.482981,0 1.2558983,-0.07756 1.2276543,-0.123164 -0.01027,-0.01658 0.03627,-0.0255 0.10344,-0.01981 0.06713,0.0058 0.122066,-0.0047 0.122066,-0.02313 0,-0.01844 0.03684,-0.02643 0.08186,-0.01777 0.04503,0.0087 0.08187,-5.32e-4 0.08187,-0.02044 0,-0.0199 0.03684,-0.02909 0.08186,-0.02043 0.04503,0.0087 0.08187,-5.31e-4 0.08187,-0.02044 0,-0.0199 0.03684,-0.0291 0.08186,-0.02044 0.04503,0.0087 0.08186,0.0015 0.08186,-0.01598 0,-0.01744 0.02764,-0.03477 0.0614,-0.0385 0.03377,-0.0038 0.08903,-0.0099 0.122802,-0.01365 0.03377,-0.0037 0.0614,-0.01904 0.0614,-0.03404 0,-0.015 0.02304,-0.02893 0.05117,-0.03102 0.376839,-0.02775 1.32037,-0.50724 1.992099,-1.012396 1.328228,-0.998831 2.308026,-2.540616 2.640248,-4.154649 0.23919,-1.1621 0.171036,-2.4592763 -0.18853,-3.5876439 C 15.250057,5.7392719 14.654425,4.7183757 14.025309,4.0481704 L 13.684413,3.6850155 13.696774,3.3891624 C 13.716624,2.914654 13.597794,2.7435985 12.965529,2.3363924 11.50975,1.3987345 9.690845,0.9728945 7.971572,1.1671194"
     stroke="none"
     fill="#f20024"
     fill-rule="evenodd"
     id="path3574"
     style="stroke-width:0.0408988" />
  <path
     d="M 7.889701,1.2072537 C 5.2094191,1.5513663 2.8610717,3.3495304 1.8334218,5.8446245 0.87097928,8.1813714 1.1262446,10.78839 2.5246351,12.904473 c 0.4791742,0.725126 0.7298543,0.925113 1.160399,0.925726 0.3499865,5.31e-4 0.6876102,-0.251639 0.7877761,-0.588355 0.074129,-0.249146 0.076056,-0.228674 -0.021571,-0.228674 -0.045031,0 -0.081864,-0.01402 -0.081864,-0.03119 0,-0.01712 0.1724961,-0.633141 0.3833064,-1.368931 0.2108076,-0.735751 0.3664794,-1.337754 0.3458895,-1.337754 -0.074951,0 -0.2877259,0.130764 -0.4480642,0.275339 -0.3096662,0.279304 -0.4115925,0.616183 -0.2967311,0.980728 l 0.071428,0.226712 -0.1334859,0.119076 C 4.1784942,11.978125 4.148408,11.988095 4.0937199,11.94282 3.9839349,11.85194 3.919095,11.637773 3.919095,11.36603 c 0,-0.675558 0.6415601,-1.287859 1.5546356,-1.483719 L 5.7824968,9.816081 5.9321515,9.565546 6.0817657,9.315011 6.0007987,9.227971 C 5.9562677,9.180076 5.8924459,9.051357 5.8590032,8.9419242 5.8041498,8.7623284 5.8068132,8.6213077 5.8861371,7.4965768 5.9415665,6.7106461 5.9918289,6.2314783 6.0222438,6.1994418 6.0881468,6.1300535 6.7340875,6.0405633 6.7870963,6.0934822 c 0.026567,0.02652 0.013921,0.4099849 -0.036956,1.1201133 -0.042576,0.5939128 -0.068482,1.140096 -0.05764,1.2137734 C 6.7169803,8.593602 6.823899,8.6551016 7.028447,8.6206128 7.199142,8.5918048 7.342656,8.4809005 7.398328,8.3346898 7.418018,8.2830378 7.463048,7.8021144 7.49837,7.265942 7.57206,6.148689 7.5933,5.9546679 7.645324,5.9225493 7.714834,5.8796813 8.350536,5.7819784 8.392289,5.8077631 8.437189,5.8354661 8.422459,6.2024657 8.322619,7.5409136 8.243249,8.6047986 8.140912,8.8729461 7.698088,9.177052 7.495218,9.316438 7.096192,9.458031 6.9064217,9.458031 H 6.7900458 L 6.961232,9.762546 c 0.094152,0.167501 0.248839,0.388654 0.343806,0.491509 0.148017,0.160308 0.188255,0.183028 0.282607,0.159368 0.104629,-0.02619 0.108804,-0.02146 0.08523,0.09619 -0.01675,0.08369 -0.0089,0.122387 0.0244,0.119567 0.05669,-0.0047 0.364846,0.140939 0.400745,0.189525 0.01322,0.01795 0.05714,-0.09239 0.09755,-0.245181 0.04045,-0.152789 0.08486,-0.289682 0.09873,-0.30423 0.01387,-0.01455 0.105406,-0.03948 0.203401,-0.05537 l 0.178145,-0.02893 -0.02997,0.137097 -0.03,0.137097 0.205161,-0.191242 c 0.471274,-0.439243 0.924169,-0.310564 0.857733,0.243711 -0.01269,0.106001 -0.03532,0.229491 -0.05031,0.274441 -0.01559,0.04683 -0.01249,0.06342 0.0074,0.0389 0.05145,-0.06379 0.423422,-0.271906 0.423422,-0.236928 0,0.01658 0.04551,-0.06076 0.101189,-0.171953 0.12841,-0.256461 0.317688,-0.485378 0.525839,-0.635879 0.08965,-0.06485 0.152807,-0.117893 0.140322,-0.117893 -0.01249,0 0.01486,-0.09652 0.06075,-0.214534 0.06578,-0.169052 0.08572,-0.327152 0.09415,-0.7457605 0.0059,-0.2921748 0.0032,-0.4484785 -0.0061,-0.3473412 -0.02525,0.277015 -0.04973,0.3564128 -0.117849,0.3825248 -0.0341,0.013033 -0.582246,0.1066949 -1.218158,0.2081183 C 9.003555,9.046777 8.44194,9.136718 8.391427,9.145176 8.175172,9.181376 8.21848,9.072646 8.837118,8.0264108 9.17552,7.4540745 9.487888,6.9279959 9.531278,6.8574246 c 0.05342,-0.086917 0.06217,-0.1268412 0.0271,-0.1235722 -0.02845,0.00262 -0.18842,-0.01994 -0.355472,-0.050178 -0.167093,-0.030239 -0.397347,-0.044378 -0.511676,-0.031422 -0.188583,0.021371 -0.200536,0.01802 -0.128492,-0.036004 0.04372,-0.032732 0.08977,-0.059706 0.102335,-0.059904 0.01261,-2.451e-4 0.02595,-0.167868 0.02968,-0.3725133 0.0038,-0.2046858 0.02665,-0.3919641 0.05092,-0.4161962 0.04393,-0.043846 1.32651,-0.282368 1.514275,-0.2816328 0.05817,2.459e-4 0.0786,-0.011808 0.05003,-0.02946 -0.106089,-0.065413 1.219274,-0.7217258 2.149706,-1.0645308 0.81156,-0.2989996 0.866247,-0.3259695 1.017826,-0.5027865 0.262592,-0.3062324 0.27741,-0.7647636 0.035,-1.0824377 C 13.45648,2.7333561 13.250614,2.5665091 13.055072,2.4360312 12.083398,1.7877296 11.066882,1.3992392 9.890232,1.2265489 9.423338,1.1580599 8.353321,1.1477239 7.889701,1.2072609 m 3.693564,4.3278696 c 0,0.078663 0.0084,0.1108627 0.01871,0.071511 0.01031,-0.039347 0.01031,-0.1036709 0,-0.1430231 -0.01028,-0.039347 -0.01871,-0.00715 -0.01871,0.071512 M 3.879635,6.5004047 C 3.5539632,6.5545072 3.26988,6.6163759 3.248308,6.6379114 3.1930863,6.6930339 2.9656169,9.911906 3.0135919,9.959798 3.0657346,10.011866 4.5415393,9.770354 4.8302465,9.662515 5.118914,9.554718 5.4041418,9.304917 5.4945251,9.080699 5.5870807,8.8512906 5.6227306,8.3304431 5.5591157,8.1380158 5.5321423,8.0563704 5.4559616,7.9441584 5.3898118,7.888625 5.3128962,7.8240184 5.2860853,7.7774762 5.3153518,7.7594143 5.4184246,7.6958268 5.5175667,7.3742332 5.5201866,7.0950117 5.5266088,6.4055198 5.1887018,6.2830101 3.8796303,6.5004047 M 10.069232,7.5783062 9.778559,8.06867 9.908648,8.06563 c 0.139097,-0.00326 1.021799,-0.1498117 0.942428,-0.1564722 -0.02599,-0.0022 -0.102294,-0.1005245 -0.16959,-0.2184982 -0.0673,-0.117973 -0.178758,-0.2677791 -0.247733,-0.3328749 -0.100575,-0.094886 -0.117358,-0.1333792 -0.08482,-0.1941025 0.02235,-0.041678 0.03393,-0.075761 0.02579,-0.075761 -0.0081,0 -0.145643,0.2206636 -0.305491,0.4903637 M 4.1911429,7.1686253 C 3.9950281,7.206422 3.9563456,7.2637559 3.9698124,7.4965567 L 3.9804944,7.680443 4.1851649,7.667325 C 4.4788669,7.648483 4.5875876,7.5849445 4.6319188,7.4062471 4.6956122,7.1496236 4.5886161,7.0919645 4.191141,7.1686246 m 9.684433,0.6139764 c 0,0.078663 0.0084,0.1108634 0.01871,0.071512 0.01031,-0.039355 0.01031,-0.1036709 0,-0.1430231 -0.01027,-0.039348 -0.01871,-0.00716 -0.01871,0.071511 M 4.0877839,8.4773867 c -0.1673792,0.039475 -0.2081905,0.096602 -0.2090084,0.2928293 -3.277e-4,0.082463 -0.00962,0.1744059 -0.020636,0.2043177 -0.01105,0.02996 -0.00321,0.08091 0.017397,0.1132343 0.031431,0.04928 0.084896,0.05149 0.3303789,0.01356 C 4.5445219,9.04898 4.6396113,8.9805787 4.6764522,8.7627749 4.7178,8.5186145 4.6514433,8.4355801 4.4190997,8.4406057 4.3129573,8.4429479 4.1638343,8.4594823 4.0877792,8.4773824 M 7.623624,9.587278 C 7.447485,9.682738 7.376751,9.910346 7.488541,10.021946 7.670617,10.203707 8.042994,9.854936 7.899315,9.637214 7.851175,9.564314 7.71241,9.539144 7.623624,9.587274 m 3.448697,0.02219 c 0.05067,0.0097 0.133526,0.0097 0.184203,0 0.05068,-0.0098 0.0093,-0.01774 -0.0921,-0.01774 -0.101311,0 -0.142777,0.0079 -0.0921,0.01774 m 2.64033,0.236764 c 4.5e-4,0.0899 0.0089,0.121855 0.01862,0.07102 0.0098,-0.05084 0.0094,-0.124388 -8.5e-4,-0.163456 -0.01024,-0.03906 -0.01826,0.0025 -0.0178,0.09243 m -7.2931847,0.03281 c 0.00944,0.0068 0.072335,0.04467 0.1398713,0.08414 l 0.1228023,0.0718 -0.096645,-0.08418 C 6.5323709,9.904532 6.4694174,9.866652 6.445676,9.866652 c -0.023791,0 -0.035568,0.0056 -0.026199,0.01238 m 5.000876,0.457549 c 4.51e-4,0.0899 0.0089,0.121856 0.01863,0.07102 0.0098,-0.05084 0.0094,-0.124389 -8.51e-4,-0.163455 -0.01024,-0.03906 -0.01826,0.0026 -0.0178,0.09243 m -2.489979,0.100811 c -0.09828,0.03971 -0.326736,0.259077 -0.387154,0.371778 -0.03438,0.06419 -0.0244,0.08128 0.05985,0.102404 0.05564,0.01393 0.203401,0.019 0.328414,0.01123 0.127961,-0.0079 0.233529,0.0037 0.241593,0.02673 0.0078,0.02248 0.03385,-0.04949 0.05775,-0.1599 0.07307,-0.336839 -0.03242,-0.460492 -0.300456,-0.352244 m 4.728828,0.358906 -0.141059,0.153238 0.153503,-0.140816 c 0.08445,-0.07747 0.153503,-0.146415 0.153503,-0.153239 0,-0.03122 -0.03463,-0.0018 -0.165947,0.140817 m -7.1433664,0.306477 -0.120223,0.132806 0.1330353,-0.120016 c 0.073147,-0.066 0.1330364,-0.125779 0.1330364,-0.132807 0,-0.03159 -0.033773,-0.0038 -0.1458487,0.120017 m 5.3832004,0.22475 -0.141058,0.153238 0.153502,-0.140816 c 0.08445,-0.07748 0.153504,-0.146414 0.153504,-0.153238 0,-0.03122 -0.03463,-0.0018 -0.165948,0.140817 m 0.852085,-0.124348 c 0.05092,0.0098 0.124603,0.0094 0.163736,-8.5e-4 0.03914,-0.01022 -0.0025,-0.01823 -0.09259,-0.01778 -0.09005,4.49e-4 -0.122065,0.0088 -0.07114,0.0186 m -7.5766946,0.325274 c -0.015026,0.01495 -0.02702,0.04716 -0.02669,0.07151 4.099e-4,0.02852 0.011503,0.02717 0.031233,-0.0039 0.016868,-0.0264 0.1040541,-0.05549 0.1938226,-0.06461 l 0.1632038,-0.01663 -0.1671336,-0.0069 c -0.091942,-0.0038 -0.1794548,0.0054 -0.1944375,0.02039 m 1.5393677,0.422244 c 0,0.101138 0.00803,0.142532 0.017765,0.09194 0.00974,-0.05058 0.00974,-0.133297 0,-0.183886 -0.00978,-0.05059 -0.017765,-0.0092 -0.017765,0.09194 M 7.682847,11.940303 7.54179,12.093542 7.695291,11.952725 c 0.142861,-0.131091 0.172333,-0.165661 0.14106,-0.165661 -0.0069,0 -0.0759,0.06897 -0.153504,0.153239 m -0.806155,0.112374 c 4.505e-4,0.0899 0.00888,0.121855 0.018624,0.07102 0.00978,-0.05084 0.00944,-0.12439 -8.5e-4,-0.163456 -0.010238,-0.03906 -0.018256,0.0026 -0.017812,0.09243 m 0.752329,0.216087 c -0.01098,0.01769 0.02939,0.03592 0.08968,0.04045 0.08437,0.0064 0.0955,-9.21e-4 0.04822,-0.03159 -0.07507,-0.04867 -0.111791,-0.05104 -0.137907,-0.0089 m 2.593951,0.271865 c 0,0.05488 0.0151,0.109066 0.03353,0.120426 0.01846,0.0114 0.02555,-0.0335 0.01584,-0.09975 -0.02149,-0.146046 -0.04937,-0.157732 -0.04937,-0.02067 m -0.236075,0.06371 c 0,0.07866 0.0084,0.110822 0.01871,0.07151 0.01031,-0.03931 0.01031,-0.103712 0,-0.143023 -0.01028,-0.03931 -0.01871,-0.0072 -0.01871,0.07151 m 0.99081,0.05108 -0.120224,0.132807 0.133036,-0.120017 c 0.123989,-0.111884 0.151865,-0.145597 0.120223,-0.145597 -0.007,0 -0.06692,0.05975 -0.133035,0.132807 m -0.703535,0.303985 c 0.03937,0.0103 0.103891,0.0103 0.143269,0 0.03937,-0.01026 0.0072,-0.01867 -0.07164,-0.01867 -0.07879,0 -0.111013,0.0084 -0.07164,0.01867"
     stroke="none"
     fill="#f74157"
     fill-rule="evenodd"
     id="path3576"
     style="stroke-width:0.0408988" />
  <path
     d="m 12.883659,5.0686232 c -0.619128,0.098931 -1.152212,0.195124 -1.184632,0.213758 -0.03246,0.018593 -0.06709,0.058069 -0.07695,0.087694 -0.0101,0.030239 9.45e-4,0.042089 0.02543,0.027052 0.0239,-0.014755 0.05517,-0.0078 0.06954,0.015406 0.01436,0.023213 0.04372,0.031344 0.06525,0.018063 0.0215,-0.013282 0.03406,2.048e-4 0.02788,0.029991 -0.0061,0.02975 0.01179,0.049484 0.03991,0.043888 0.02816,-0.00567 0.04658,0.01275 0.04093,0.040864 -0.0056,0.028071 0.01282,0.046459 0.04093,0.040863 0.02816,-0.00567 0.04663,0.00354 0.04106,0.020436 -0.0056,0.016837 0.0659,0.1087385 0.158823,0.2041957 0.162672,0.1670916 0.176017,0.172608 0.35805,0.1476811 0.104015,-0.014223 0.189117,-0.014953 0.189117,-0.0017 0,0.013323 -0.05419,0.1159712 -0.12047,0.2281415 -0.06676,0.1130295 -0.09587,0.1945112 -0.06533,0.1828244 0.03467,-0.013324 0.09816,0.055491 0.171595,0.1860112 0.06411,0.1139276 0.131439,0.207138 0.149656,0.2071791 0.01822,4.03e-5 0.02264,0.016958 0.0099,0.037592 -0.01282,0.020676 0.0017,0.062482 0.03217,0.092924 0.0305,0.030444 0.05371,0.1150312 0.05154,0.1879322 -0.0035,0.1169516 0.0023,0.1242254 0.04818,0.061497 0.02865,-0.039108 0.0431,-0.094395 0.03217,-0.1228363 -0.01093,-0.028482 -0.0025,-0.047402 0.01871,-0.042047 0.04437,0.011156 1.227408,-1.9539365 1.227408,-2.0387694 0,-0.079439 -0.08195,-0.07147 -1.350825,0.1313356 m -1.300392,0.7117061 c 0,0.078663 0.0084,0.1108627 0.01871,0.071511 0.01031,-0.039348 0.01031,-0.103671 0,-0.1430226 -0.01028,-0.039355 -0.01871,-0.00715 -0.01871,0.071511 M 6.7835013,6.2623322 6.8032683,6.4545547 6.8171423,6.295922 c 0.00765,-0.087244 -0.00123,-0.1737109 -0.019739,-0.1921814 -0.018502,-0.018473 -0.024763,0.052919 -0.013921,0.1585916 m 1.9011017,0.038782 c 0.0032,0.2208272 0.0096,0.235579 0.105692,0.2418717 0.08633,0.00567 0.08821,0.00362 0.01219,-0.012792 -0.07688,-0.016632 -0.09243,-0.052182 -0.105692,-0.2418718 l -0.01556,-0.22238 0.0033,0.2351703 M 7.573363,6.2706674 c 0,0.1011373 0.008,0.1425323 0.01777,0.091944 0.0097,-0.050589 0.0097,-0.133297 0,-0.1838862 -0.0098,-0.050589 -0.01777,-0.0092 -0.01777,0.091944 m 0.819255,0.020428 c 3.27e-4,0.1123749 0.0083,0.1534839 0.01769,0.09137 0.0093,-0.062113 0.0092,-0.1540555 -5.73e-4,-0.2043181 -0.0097,-0.050263 -0.0174,5.723e-4 -0.01711,0.1129473 m -2.3840049,-0.08397 c -0.027011,0.032484 -0.040979,0.1014234 -0.031072,0.1532388 0.016292,0.084996 0.018587,0.083403 0.023621,-0.016143 0.00302,-0.060683 0.037778,-0.1290889 0.077199,-0.1520134 0.039421,-0.022922 0.050877,-0.04221 0.025462,-0.042903 -0.025377,-6.537e-4 -0.068236,0.025338 -0.095213,0.057822 M 3.8796359,6.5004054 C 3.5539632,6.5545074 3.269881,6.6163766 3.2483089,6.6379121 3.1938239,6.6923041 2.9655773,9.911866 3.0128561,9.959064 c 0.022431,0.02239 0.2634518,0.0023 0.6048014,-0.0505 C 4.3548793,9.794553 4.3321617,9.802359 4.3117758,9.669796 4.2437848,9.22753 4.2416128,9.15941 4.2943788,9.125127 4.3263108,9.104407 4.2538998,9.100367 4.1197945,9.115327 3.848279,9.145657 3.8378004,9.131717 3.8765642,8.790991 c 0.028078,-0.2469393 0.077,-0.3119529 0.2355349,-0.3130565 0.102867,-6.942e-4 0.1627948,-0.095662 0.1551401,-0.2457946 -0.00283,-0.056185 0.00765,-0.1205478 0.023375,-0.1430232 0.015716,-0.022476 0.041471,-0.118995 0.057271,-0.2144933 0.015763,-0.095539 0.059321,-0.1912826 0.096728,-0.2127769 0.046986,-0.027009 0.017349,-0.030813 -0.095704,-0.012261 -0.3517054,0.057743 -0.367096,0.051368 -0.3806866,-0.1582644 -0.00822,-0.1271679 0.00784,-0.2092226 0.049121,-0.2504129 0.087068,-0.086958 0.5004185,-0.1333381 0.5895731,-0.066201 0.057838,0.043563 0.061275,0.043109 0.020391,-0.00283 -0.038354,-0.043162 -0.035738,-0.080879 0.011909,-0.1729036 0.033528,-0.064728 0.049942,-0.1355856 0.036427,-0.1573662 -0.013506,-0.021824 -0.00548,-0.039681 0.017718,-0.039681 0.060501,0 0.1760577,-0.2387253 0.1420832,-0.2935645 -0.017349,-0.028029 -0.01003,-0.034609 0.018785,-0.016795 0.026,0.016015 0.047279,0.010951 0.047279,-0.011277 0,-0.02227 0.041423,-0.048422 0.092102,-0.058148 0.050669,-0.00977 -0.046051,-0.018225 -0.2149045,-0.018877 -0.1688525,-6.127e-4 -0.5734458,0.043109 -0.899076,0.097173 m 2.8756193,0.3219242 c 3.268e-4,0.1123749 0.00831,0.1534837 0.01768,0.09137 0.00935,-0.062113 0.00916,-0.1540555 -5.733e-4,-0.2043182 -0.00971,-0.050263 -0.017397,5.724e-4 -0.017113,0.1129474 M 5.935989,6.8427893 c 0,0.1011373 0.00803,0.1425323 0.017765,0.091944 0.00974,-0.050589 0.00974,-0.133297 0,-0.1838862 -0.00978,-0.050589 -0.017765,-0.0092 -0.017765,0.091944 m 1.597002,0.020435 c 3.27e-4,0.112375 0.0083,0.1534838 0.01768,0.09137 0.0093,-0.062113 0.0092,-0.1540554 -5.73e-4,-0.2043181 -0.0097,-0.050263 -0.0174,5.723e-4 -0.01711,0.1129474 m 0.81729,-0.040863 c 4.5e-4,0.0899 0.0089,0.1218552 0.01862,0.071021 0.0098,-0.050837 0.0094,-0.1243891 -8.5e-4,-0.1634543 -0.01024,-0.039064 -0.01826,0.00255 -0.01781,0.092433 m -2.4551722,0.592516 c 0,0.1011373 0.00803,0.1425323 0.017765,0.091944 0.00974,-0.050589 0.00974,-0.1332971 0,-0.1838862 -0.00978,-0.050589 -0.017765,-0.0092 -0.017765,0.091943 m 0.8186812,0 c 0,0.1011373 0.00803,0.1425323 0.017765,0.091944 0.00974,-0.050589 0.00974,-0.1332971 0,-0.1838862 -0.00978,-0.050589 -0.017765,-0.0092 -0.017765,0.091943 m 0.778321,0.020428 c 3.27e-4,0.1123751 0.0083,0.1534839 0.01769,0.09137 0.0094,-0.062113 0.0092,-0.1540554 -5.72e-4,-0.204318 -0.0097,-0.050263 -0.0174,5.723e-4 -0.01711,0.1129473 m 0.817289,0 c 4.5e-4,0.0899 0.0089,0.1218553 0.01863,0.071021 0.0098,-0.050837 0.0094,-0.124389 -8.5e-4,-0.163455 -0.01024,-0.039064 -0.01826,0.00255 -0.01781,0.092434 m 5.126911,0.078049 -0.286539,0.046587 0.01044,0.1624328 c 0.0058,0.089327 0.02219,0.1900162 0.03651,0.2237286 0.01433,0.03371 0.03316,0.1337872 0.04179,0.222421 0.0086,0.088592 0.02231,0.1676633 0.03033,0.1757134 0.03107,0.031018 0.435702,-0.043357 0.502957,-0.092474 0.05207,-0.037959 0.07802,-0.137302 0.09755,-0.3728399 0.01461,-0.1765719 0.01793,-0.34399 0.0073,-0.3721046 -0.0219,-0.057984 -0.04547,-0.057658 -0.440327,0.00652 M 5.2983978,7.7328959 c -0.061644,0.068 -0.055921,0.080502 0.085756,0.1874825 L 5.5359607,8.0349611 5.4072632,7.9132283 C 5.288964,7.8013845 5.2838876,7.786183 5.3443915,7.7257869 c 0.036229,-0.036167 0.055552,-0.065747 0.042944,-0.065747 -0.012571,0 -0.052606,0.032774 -0.088948,0.07286 m 0.5557497,0.2540494 c 0,0.1011373 0.00803,0.1425323 0.017765,0.091944 0.00974,-0.050589 0.00974,-0.133297 0,-0.1838863 -0.00978,-0.050589 -0.017765,-0.0092 -0.017765,0.091944 m 0.8192544,0.020435 c 3.277e-4,0.112375 0.00831,0.1534839 0.017689,0.091371 0.00935,-0.062113 0.00916,-0.1540561 -5.732e-4,-0.204318 -0.00971,-0.050263 -0.017397,5.723e-4 -0.017113,0.1129473 m 1.5950386,0 c 4.5e-4,0.0899 0.0089,0.1218553 0.01862,0.071021 0.0098,-0.050838 0.0094,-0.1243891 -8.5e-4,-0.1634551 -0.01024,-0.039064 -0.01826,0.00255 -0.01781,0.092434 m -0.819501,0.020428 c 0,0.078663 0.0084,0.1108627 0.01871,0.071511 0.01031,-0.039355 0.01031,-0.103671 0,-0.1430231 -0.01027,-0.039348 -0.01871,-0.00715 -0.01871,0.071511 M 4.4512098,8.4248442 c 0.078795,0.00892 0.1663148,0.046262 0.1944375,0.082994 0.028163,0.036734 0.05117,0.048585 0.05117,0.026314 0,-0.082789 -0.1025402,-0.1383637 -0.2435571,-0.1320298 l -0.145316,0.00652 0.1432684,0.016178 m 1.3631372,0.1750598 c 0,0.1236127 0.00765,0.1741614 0.017028,0.1123756 0.00935,-0.061788 0.00935,-0.1629649 0,-0.2247507 -0.00935,-0.061788 -0.017028,-0.011234 -0.017028,0.1123751 m -0.2483879,0.04086 c 0,0.078663 0.00841,0.1108635 0.018709,0.071512 0.010313,-0.039355 0.010313,-0.1036717 0,-0.1430232 -0.010266,-0.039348 -0.018709,-0.00716 -0.018709,0.071512 M 8.081893,8.702572 c -0.03742,0.078377 -0.0596,0.1424919 -0.04933,0.1424919 0.02804,0 0.152274,-0.2502082 0.133568,-0.2688834 -0.0089,-0.00887 -0.04679,0.047975 -0.08425,0.1263915 M 7.86665,9.018734 7.746427,9.151541 7.879462,9.031525 c 0.07315,-0.065998 0.133037,-0.1257789 0.133037,-0.1328077 0,-0.031584 -0.03377,-0.00376 -0.145849,0.1200167 M 5.4536681,9.091674 C 5.4380281,9.140784 5.3587421,9.25713 5.2774471,9.350176 5.1306152,9.518166 5.130534,9.518492 5.2648391,9.396716 5.4022548,9.272123 5.5377061,9.057917 5.5018068,9.02208 5.4909648,9.01121 5.4692618,9.04256 5.4536688,9.09168 m 0.430421,-0.04769 c -2.04e-4,0.07266 0.300866,0.373205 0.3736467,0.373001 0.030817,-8.2e-5 -0.00406,-0.0367 -0.077407,-0.08136 C 6.1069365,9.290961 6.0103304,9.194529 5.9655902,9.121262 5.9208522,9.048032 5.8841692,9.013219 5.8840942,9.043992 m 7.4518038,0.08504 c -0.03271,0.02067 -0.06988,0.03114 -0.08265,0.02325 -0.01273,-0.0078 -0.01629,0.0577 -0.0078,0.145718 0.01424,0.149275 0.02399,0.160022 0.145152,0.160022 0.265008,0 0.388588,0.198475 0.331935,0.533148 -0.0228,0.134809 -0.05133,0.173466 -0.162182,0.219683 -0.164021,0.06841 -0.196236,0.116462 -0.201681,0.300839 -0.0057,0.191446 -0.167626,0.315263 -0.412534,0.315263 -0.160379,0 -0.173274,0.0073 -0.136187,0.07645 0.02788,0.05194 0.0275,0.06812 -10e-4,0.05047 -0.02317,-0.01426 -0.05424,0.0123 -0.0691,0.05901 -0.01486,0.04675 -0.06685,0.102444 -0.115516,0.123816 -0.06275,0.0275 0.0025,0.03458 0.224401,0.02419 0.353835,-0.01655 0.563376,-0.113314 0.812787,-0.375332 0.0788,-0.08279 0.244581,-0.195656 0.368407,-0.250781 0.26206,-0.116706 0.455678,-0.289805 0.603246,-0.539277 0.08653,-0.146333 0.09497,-0.18405 0.04769,-0.213921 -0.08833,-0.05583 -0.104996,-0.04687 -0.160175,0.08614 -0.0494,0.119118 -0.422481,0.489302 -0.493091,0.489302 -0.01896,0 -0.0046,-0.06894 0.03181,-0.153239 C 14.160967,9.968694 14.15438,9.494185 14.04749,9.348711 13.892211,9.137403 13.509723,9.019307 13.335958,9.129025 m -0.679301,0.380072 -0.161813,0.173671 0.173969,-0.161535 c 0.161772,-0.150214 0.1928,-0.185806 0.161814,-0.185806 -0.0066,0 -0.08498,0.07817 -0.17397,0.17367 M 6.5900323,9.486177 c 0.039421,0.01029 0.1038502,0.01029 0.1432694,0 0.039421,-0.01026 0.00718,-0.01867 -0.071636,-0.01867 -0.078795,0 -0.1110544,0.0084 -0.071636,0.01867 m -1.6475849,0.09444 c -0.078795,0.04308 -0.1285332,0.07907 -0.1105227,0.08001 0.04335,0.0023 0.2742591,-0.117564 0.2742591,-0.142369 0,-0.02673 -0.00236,-0.02582 -0.1637364,0.06236 m 7.9590992,0.09194 -0.120223,0.132807 0.133036,-0.120016 c 0.07319,-0.066 0.133036,-0.125779 0.133036,-0.132807 0,-0.03158 -0.03377,-0.0038 -0.145849,0.120016 m -2.414456,0.286046 -0.161811,0.17367 0.173969,-0.161534 c 0.161771,-0.150215 0.1928,-0.185807 0.161813,-0.185807 -0.0066,0 -0.08498,0.07817 -0.173971,0.173671 M 5.6894943,9.853957 c 0.039421,0.01029 0.1038492,0.01029 0.1432684,0 0.039421,-0.01026 0.00718,-0.01867 -0.071636,-0.01867 -0.078795,0 -0.1110534,0.0084 -0.071636,0.01867 m 3.1228613,0.41967 c -0.08703,0.08896 -0.173643,0.152217 -0.192514,0.140612 -0.01882,-0.01165 -0.03426,0.01978 -0.03426,0.06979 0,0.05002 0.0046,0.08287 0.01024,0.07306 0.0056,-0.0098 0.101641,-0.114051 0.213349,-0.231575 0.111751,-0.117523 0.193782,-0.213675 0.18228,-0.213675 -0.01146,0 -0.09206,0.07278 -0.179087,0.161779 m -2.0167424,0.16513 c 0,0.101137 0.00803,0.142532 0.017765,0.09194 0.00974,-0.05058 0.00974,-0.133297 0,-0.183886 -0.00978,-0.05059 -0.017765,-0.0092 -0.017765,0.09194 m 3.3639634,-0.03707 c -0.03602,0.06951 -0.05822,0.133625 -0.04933,0.142493 0.0089,0.0089 0.04679,-0.04798 0.08424,-0.126393 0.08416,-0.176204 0.05501,-0.189689 -0.03492,-0.0161 m -5.867246,0.09787 c -0.2509256,0.271744 -0.3723358,0.555133 -0.3728269,0.87015 -4.099e-4,0.268229 0.064676,0.482437 0.174215,0.573113 0.054693,0.04528 0.084773,0.0353 0.1979981,-0.06567 l 0.1334886,-0.119077 -0.071428,-0.226712 c -0.1191596,-0.378192 -0.011343,-0.707635 0.3311156,-1.011579 0.1079018,-0.09574 0.1578005,-0.154137 0.1109315,-0.129783 -0.046873,0.02436 -0.1101533,0.07425 -0.1406088,0.110904 -0.049857,0.05991 -0.062097,0.05374 -0.1219429,-0.06182 l -0.066517,-0.128435 -0.17442,0.188912 m 7.9065838,0.02092 c 0,0.101139 0.008,0.142534 0.01776,0.09194 0.0097,-0.05059 0.0097,-0.133298 0,-0.183888 -0.0098,-0.05059 -0.01776,-0.0092 -0.01776,0.09194 m -5.8134591,0.02044 c 4.505e-4,0.0899 0.00888,0.121855 0.018624,0.07102 0.00978,-0.05084 0.00944,-0.124389 -8.5e-4,-0.163455 -0.010238,-0.03906 -0.018256,0.0025 -0.017803,0.09243 m -0.051246,0.217803 c 0,0.02619 -0.068406,0.125779 -0.1520291,0.221359 -0.1442516,0.164966 -0.145111,0.167541 -0.016943,0.05121 0.1485091,-0.134769 0.2296406,-0.259526 0.1927591,-0.296343 -0.013099,-0.01307 -0.02379,-0.0024 -0.02379,0.02378 m 4.0619711,0.211265 c 0,0.07866 0.0084,0.110822 0.01871,0.07151 0.01031,-0.03931 0.01031,-0.103713 0,-0.143023 -0.01027,-0.03931 -0.01871,-0.0072 -0.01871,0.07151 M 6.4957024,11.082338 6.3546439,11.235577 6.5081464,11.094761 C 6.6510058,10.96367 6.6804791,10.9291 6.6492057,10.9291 c -0.00689,0 -0.075896,0.06898 -0.1535033,0.153238 m 3.4919236,-0.01021 c 4.5e-4,0.0899 0.0089,0.121856 0.01862,0.07102 0.0098,-0.05084 0.0094,-0.124389 -8.5e-4,-0.163454 -0.01024,-0.03906 -0.01826,0.0026 -0.01781,0.09243 m 1.809696,0.112376 -0.203115,0.214534 0.214903,-0.202765 c 0.118178,-0.111558 0.214905,-0.208078 0.214905,-0.214535 0,-0.03052 -0.0379,0.0034 -0.226693,0.202766 m 0.08216,0.122591 -0.244335,0.255398 0.255838,-0.243916 c 0.237663,-0.226547 0.274585,-0.26688 0.244336,-0.26688 -0.0064,0 -0.121494,0.114949 -0.255839,0.255398 m -7.2571213,0.759655 c -0.1391752,0.489016 -0.2530128,0.904477 -0.2530128,0.923273 0,0.01884 0.081213,0.02313 0.1805192,0.0095 0.1295154,-0.01769 0.2191195,-0.0049 0.3172388,0.04556 0.2236633,0.114868 0.772631,0.09468 1.062649,-0.03906 0.2427382,-0.111966 0.5438497,-0.357025 0.6145839,-0.500171 0.023129,-0.04687 -0.00737,-0.02481 -0.067745,0.04911 -0.085633,0.104733 -0.122025,0.124226 -0.1652513,0.08843 -0.030496,-0.02525 -0.077529,-0.03232 -0.1045046,-0.01569 -0.03111,0.01925 -0.038316,0.01296 -0.019654,-0.01721 0.016499,-0.02664 9.208e-4,-0.05836 -0.035653,-0.07237 -0.053049,-0.02031 -0.055751,-0.03722 -0.014611,-0.09166 0.027757,-0.0367 -0.013222,-0.0091 -0.091082,0.0615 -0.2122015,0.192345 -0.3984931,0.270353 -0.6937509,0.290459 -0.2917776,0.01986 -0.4915361,-0.034 -0.4915361,-0.132562 0,-0.04949 0.2224762,-0.853968 0.3078653,-1.113126 0.00916,-0.02783 0.00349,-0.04863 -0.012571,-0.04626 -0.072779,0.01083 -0.1347542,-0.008 -0.1179309,-0.03596 0.010153,-0.01688 -0.02227,-0.08966 -0.072042,-0.161738 L 4.8752883,11.177639 4.6223151,12.06671 m 6.4371299,-0.637228 c -0.104832,0.115685 -0.106388,0.120548 -0.01208,0.03788 0.08023,-0.07029 0.11351,-0.08079 0.128861,-0.04071 0.01142,0.02975 0.01866,0.01271 0.01617,-0.03788 -0.0025,-0.05058 -0.0063,-0.09194 -0.0086,-0.09194 -0.0023,0 -0.05821,0.0597 -0.124317,0.132643 m -4.7048409,-0.0441 c 0.045031,0.02485 0.1196091,0.07487 0.1657018,0.11115 0.046136,0.03625 0.032007,0.01532 -0.031356,-0.04646 -0.063325,-0.06179 -0.1379069,-0.111804 -0.1657009,-0.111149 -0.027795,6.94e-4 -0.013666,0.02162 0.031356,0.04646 m 3.394951,0.125983 -0.120224,0.132807 0.133036,-0.120017 c 0.124049,-0.111884 0.151925,-0.145596 0.120283,-0.145596 -0.007,0 -0.06693,0.05974 -0.133036,0.132806 m -0.328822,0.03065 c 0.003,0.07875 0.02739,0.103712 0.106264,0.10886 0.0853,0.0055 0.08744,0.0035 0.01268,-0.01275 -0.05113,-0.01107 -0.09677,-0.05782 -0.106265,-0.108861 -0.01363,-0.07322 -0.01597,-0.0709 -0.01268,0.01275 M 7.122213,12.4283 c 0.03942,0.0103 0.10385,0.0103 0.14327,0 0.03942,-0.01026 0.0072,-0.01867 -0.07164,-0.01867 -0.07879,0 -0.111055,0.0084 -0.07164,0.01867 m 3.568919,0.145515 -0.120223,0.132806 0.133035,-0.120016 c 0.12399,-0.111884 0.151865,-0.145597 0.120223,-0.145597 -0.007,0 -0.06693,0.05974 -0.133035,0.132807 m 0.246259,0.08172 -0.161813,0.173671 0.173971,-0.161534 c 0.09566,-0.08883 0.173969,-0.16701 0.173969,-0.173671 0,-0.03093 -0.03565,4.2e-5 -0.186127,0.161534"
     stroke="none"
     fill="#fbf8f8"
     fill-rule="evenodd"
     id="path3578"
     style="stroke-width:0.0408988" />
  <path
     d="m 8.575347,1.1520872 c 0.140732,0.00801 0.370985,0.00801 0.511677,0 0.14073,-0.00797 0.02558,-0.014507 -0.255838,-0.014507 -0.281423,0 -0.396529,0.00652 -0.255839,0.014507 m -0.634478,0.038782 c 0.03942,0.010299 0.10385,0.010299 0.143269,0 0.03942,-0.010257 0.0072,-0.018672 -0.07164,-0.018672 -0.07879,0 -0.111055,0.00841 -0.07164,0.018672 M 3.4470814,3.379567 3.2027461,3.6349651 3.4585838,3.3910498 C 3.5993154,3.2569354 3.7144215,3.1419856 3.7144215,3.1356517 c 0,-0.030197 -0.040403,0.00666 -0.2673401,0.2439153 m 7.5331406,1.659187 c -0.292679,0.1531573 -0.596614,0.3190631 -0.675413,0.3687131 -0.121451,0.076496 -0.127673,0.086958 -0.04093,0.068773 0.288052,-0.060435 0.855153,-0.1451885 0.972184,-0.1453111 0.08174,-8.2e-5 0.133035,0.020308 0.133035,0.052834 0,0.029134 -0.238522,0.4556299 -0.530055,0.9477921 L 10.309029,7.2263872 10.46773,7.39826 c 0.08731,0.094558 0.196606,0.2459994 0.242862,0.3365123 0.05473,0.1070625 0.116498,0.1691755 0.176876,0.1777159 0.09214,0.013076 0.09272,0.017609 0.08965,0.6669768 -0.0027,0.564287 -0.01494,0.683648 -0.08944,0.871703 -0.07646,0.192956 -0.07847,0.214777 -0.01735,0.190627 0.255429,-0.100932 0.498618,-0.06877 0.641232,0.08483 l 0.09456,0.101832 0.05547,-0.174774 c 0.05235,-0.165006 0.06652,-0.176816 0.251908,-0.210446 0.108066,-0.01962 0.204794,-0.02738 0.214945,-0.01725 0.01015,0.01013 -0.100983,0.429437 -0.246955,0.931733 -0.145971,0.502336 -0.256616,0.922088 -0.24585,0.932794 0.02951,0.02946 0.163696,-0.10314 0.355512,-0.351305 0.150106,-0.194266 0.17614,-0.259116 0.202338,-0.50389 0.03148,-0.293891 0.150555,-0.579528 0.351541,-0.843098 0.164843,-0.216209 0.553798,-0.454239 0.794163,-0.486072 l 0.19943,-0.02643 V 8.7172158 c 0,-0.263121 -0.01404,-0.3623381 -0.05117,-0.3618479 -0.02812,3.683e-4 -0.556253,0.082259 -1.173539,0.182007 -0.617326,0.099748 -1.137722,0.1719543 -1.156388,0.1603901 -0.01871,-0.011524 -0.03401,-0.048422 -0.03401,-0.081972 0,-0.047444 0.784706,-1.3925517 1.479972,-2.5368567 l 0.07928,-0.1304368 -0.09398,0.015286 c -0.624531,0.1017507 -0.94394,0.1415931 -0.976073,0.1217739 -0.04515,-0.027866 -0.04765,-0.6158152 -0.003,-0.7290076 0.01654,-0.042047 0.08334,-0.098196 0.148509,-0.1247567 L 11.876586,5.1834501 11.644613,5.0176249 C 11.423281,4.859401 11.416773,4.8497981 11.50343,4.8080355 c 0.04998,-0.024112 0.07241,-0.044661 0.04989,-0.045766 -0.02251,-0.00107 -0.280398,0.1233668 -0.573076,0.276483 M 9.240545,6.497994 C 9.071692,6.527454 8.868004,6.552748 8.787855,6.554136 8.707745,6.555556 8.606435,6.583518 8.562718,6.616249 8.490708,6.670232 8.502868,6.673582 8.693052,6.652048 8.87832,6.631045 9.344436,6.684129 9.500804,6.744032 c 0.03459,0.013239 0.09014,-0.035466 0.143678,-0.1260643 0.04802,-0.081196 0.08727,-0.1558128 0.08727,-0.165743 0,-0.02754 -0.152643,-0.013323 -0.491208,0.045765 m 3.686359,0.7163 c -0.119733,0.2018255 -0.210647,0.3730849 -0.202092,0.3806039 0.0086,0.00753 0.153749,-0.00792 0.322603,-0.034326 0.347447,-0.054222 0.336722,-0.029297 0.191325,-0.4443514 L 13.144514,6.8472926 12.926908,7.2142894 M 1.2678745,7.9869396 c 0,0.078663 0.00841,0.1108626 0.018709,0.071511 0.010313,-0.039348 0.010313,-0.103671 0,-0.1430232 -0.010266,-0.039348 -0.018709,-0.00715 -0.018709,0.071511 M 1.2317305,8.722484 c 0,0.1910375 0.00708,0.2691687 0.015678,0.1736706 0.00859,-0.095498 0.00859,-0.251802 0,-0.3473413 -0.00859,-0.095539 -0.015678,-0.017368 -0.015678,0.1736707 m 0.036144,0.735545 c 0,0.07866 0.00841,0.110821 0.018709,0.07151 0.010313,-0.03932 0.010313,-0.103712 0,-0.143023 -0.010266,-0.03931 -0.018709,-0.0072 -0.018709,0.07151 m 4.6665671,0.09832 c -0.072826,0.121529 -0.1323809,0.227529 -0.1323809,0.235621 0,0.0081 0.1094167,0.01721 0.2431075,0.02027 0.3290284,0.0076 0.5067643,0.07327 0.6553953,0.24224 0.2456046,0.279263 0.1390543,0.803829 -0.2250139,1.10761 l -0.1771626,0.147844 0.1304976,0.068 c 0.1507607,0.07863 0.3147833,0.365893 0.314414,0.550801 -3.683e-4,0.200846 -0.074866,0.412397 -0.2222712,0.631057 -0.158456,0.235048 -0.1678712,0.218621 0.2429848,0.42298 0.7236748,0.359927 1.3981028,0.498946 2.2718418,0.468216 0.725229,-0.0255 1.210011,-0.141551 1.836385,-0.439653 0.482816,-0.229735 0.835915,-0.469195 1.21787,-0.825854 0.250394,-0.233822 0.752614,-0.853356 0.752614,-0.928381 0,-0.01909 -0.07556,-0.04749 -0.167912,-0.06306 -0.09403,-0.01586 -0.223458,-0.07789 -0.294192,-0.14098 l -0.126282,-0.112661 -0.173028,0.212042 c -0.09517,0.116584 -0.264394,0.281591 -0.376062,0.366628 -0.150146,0.114297 -0.216296,0.19868 -0.253791,0.323763 -0.06988,0.233087 -0.260055,0.60086 -0.391207,0.756428 -0.149942,0.177879 -0.418019,0.326786 -0.644057,0.35772 -0.17266,0.02361 -0.1998,0.01508 -0.313923,-0.09885 -0.142205,-0.141961 -0.158252,-0.273297 -0.05894,-0.482232 0.08269,-0.173916 0.31511,-0.34779 0.717042,-0.536377 0.267218,-0.125369 0.318345,-0.166151 0.35408,-0.282449 l 0.04179,-0.135913 -0.174257,0.11969 c -0.337255,0.231656 -0.747661,0.250086 -0.894901,0.04024 -0.05121,-0.07299 -0.06443,-0.06681 -0.235494,0.109924 -0.377002,0.389553 -0.766408,0.40455 -0.837715,0.03224 -0.01265,-0.06595 0.01478,-0.265328 0.06091,-0.443125 0.04614,-0.177758 0.08383,-0.334061 0.08379,-0.347341 -4.1e-5,-0.01324 -0.146421,-0.02411 -0.325262,-0.02411 H 8.508172 L 8.313899,11.570991 8.119626,12.23331 7.916838,12.27674 c -0.111545,0.02387 -0.211629,0.03461 -0.222394,0.0239 -0.01077,-0.01075 -0.09022,0.01642 -0.17659,0.06044 -0.08637,0.04396 -0.228617,0.07997 -0.316052,0.07997 -0.3693892,0 -0.4030785,-0.303291 -0.136188,-1.225909 0.206513,-0.713889 0.231606,-0.77641 0.31155,-0.77641 0.09546,0 0.07397,-0.04691 -0.102254,-0.223074 C 7.18591,10.126697 7.048705,9.931574 6.9699887,9.782054 L 6.8268829,9.510207 6.5600755,9.488834 c -0.1467081,-0.01177 -0.312204,-0.05107 -0.3677118,-0.08741 -0.055458,-0.03629 -0.1064285,-0.066 -0.1132228,-0.066 -0.0068,0 -0.071919,0.09942 -0.1447021,0.220909 m 7.2562202,-0.04139 c -0.307537,0.134483 -0.558053,0.537888 -0.561369,0.903822 -0.0026,0.291563 0.07569,0.387755 0.315765,0.387755 h 0.171514 l 0.147199,-0.439281 c 0.119446,-0.356413 0.233897,-0.792265 0.233897,-0.890788 0,-0.03722 -0.187723,-0.0137 -0.307006,0.03849 m -2.231561,0.549535 c -0.327883,0.172976 -0.616263,0.819316 -0.486584,1.09061 0.108762,0.227488 0.424077,0.174038 0.670869,-0.113805 0.26296,-0.306682 0.361079,-0.858751 0.175648,-0.988411 -0.117809,-0.08238 -0.185881,-0.08021 -0.359933,0.0116 m -5.275667,0.08205 c -0.084122,0.02427 -0.1168259,0.09264 -0.2282892,0.47696 -0.071551,0.246734 -0.1437199,0.489996 -0.1604205,0.540585 -0.027956,0.08483 -0.017925,0.09194 0.1296788,0.09194 0.2093371,0 0.5035711,-0.09015 0.6621499,-0.202889 0.152847,-0.108615 0.2885844,-0.359886 0.2885844,-0.534169 0,-0.154342 -0.1930444,-0.365975 -0.3345533,-0.366834 -0.052398,-2.86e-4 -0.1320947,-0.008 -0.177122,-0.01724 -0.045031,-0.0092 -0.1260361,-0.004 -0.1800281,0.01164 m 4.171101,0.529062 c -0.101312,0.05884 -0.196074,0.124144 -0.210606,0.145107 -0.01453,0.02097 -0.06804,0.192672 -0.118913,0.381585 -0.06893,0.256092 -0.08064,0.355309 -0.04605,0.389839 0.128451,0.128231 0.498373,-0.293769 0.498373,-0.568494 0,-0.08597 0.0181,-0.219357 0.04024,-0.296385 0.02211,-0.07703 0.03594,-0.144249 0.0307,-0.149357 -0.0052,-0.0052 -0.09243,0.03883 -0.193741,0.0977 M 7.673076,10.63066 c -0.05633,0.09488 -0.360015,1.25337 -0.348963,1.331092 0.02251,0.158102 0.194968,0.139264 0.365951,-0.03997 0.124521,-0.130559 0.168648,-0.231247 0.279825,-0.638208 0.07262,-0.265736 0.125709,-0.486972 0.118012,-0.491549 -0.0076,-0.0046 -0.08768,-0.04412 -0.177736,-0.08785 -0.09005,-0.04368 -0.175852,-0.08549 -0.19067,-0.09289 -0.01482,-0.0074 -0.03574,0.0013 -0.04642,0.01936 m -2.1657417,0.883473 c -0.2086825,0.02652 -0.3228885,0.0601 -0.3379514,0.0993 -0.012523,0.03257 0.033934,0.130683 0.1031947,0.218048 0.1386434,0.174692 0.6923994,0.69129 0.7410289,0.69129 0.047647,0 0.2276753,-0.332711 0.2575169,-0.475898 0.049895,-0.239379 -0.1237024,-0.502091 -0.3667277,-0.555009 -0.045031,-0.0098 -0.2237058,2.04e-4 -0.3970614,0.02227 m 5.1709977,0.620596 c -0.356167,0.190302 -0.421047,0.255193 -0.406229,0.406389 0.0104,0.105877 0.03111,0.126514 0.13721,0.136894 0.07929,0.0077 0.164433,-0.01879 0.232834,-0.0725 0.111954,-0.0879 0.336273,-0.49825 0.311345,-0.569557 -0.0078,-0.02236 -0.131645,0.02206 -0.27516,0.09877 m -6.4138788,1.460715 -0.1202231,0.132806 0.1330354,-0.120016 c 0.073147,-0.066 0.1330354,-0.125779 0.1330354,-0.132807 0,-0.03159 -0.033773,-0.0038 -0.1458477,0.120017 m -0.6626004,0.263121 c 0.039421,0.01029 0.1038502,0.01029 0.1432694,0 0.039421,-0.01026 0.00718,-0.01868 -0.071636,-0.01868 -0.078795,0 -0.1110544,0.0084 -0.071636,0.01868"
     stroke="none"
     fill="#f12244"
     fill-rule="evenodd"
     id="path3580"
     style="stroke-width:0.0408988" />
</svg>
