<?xml version="1.0" encoding="UTF-8" standalone="no"?>
<svg
   viewBox="0 0 18.040001 21.999998"
   width="18.040001pt"
   height="21.999998pt"
   version="1.1"
   id="svg2255"
   xmlns="http://www.w3.org/2000/svg"
   xmlns:svg="http://www.w3.org/2000/svg">
  <defs
     id="defs2259" />
  <path
     d="m 0.66436458,8.0127691 c -0.074151,0.095261 -0.078413,0.1423966 -0.078413,0.8651506 0,0.9597203 -0.018985,0.9261713 0.54266192,0.9610543 l 0.3975485,0.02471 0.062724,0.22234 c 0.061971,0.219623 0.064981,0.222538 0.2463453,0.237262 0.1009812,0.0083 0.1835859,0.0019 0.1835859,-0.01393 0,-0.01586 -0.02418,-0.1087 -0.053732,-0.206233 -0.075727,-0.24996 -0.070891,-0.26414 0.089554,-0.26414 0.095536,0 0.1671796,-0.03296 0.2149298,-0.09882 0.065482,-0.09032 0.071643,-0.164679 0.071643,-0.8646565 0,-1.0371437 0.066593,-0.963475 -0.8708597,-0.963475 -0.68272452,0 -0.73244482,0.00622 -0.80598662,0.1007449 m 0.295206,0.3597961 c -0.00999,0.03592 -0.013505,0.2860284 -0.00781,0.5558512 l 0.010317,0.4905813 H 1.1411869 c 0.1904995,0 0.2058311,-0.03167 0.1443254,-0.297837 -0.018985,-0.08216 2.866e-4,-0.111911 0.1069992,-0.1651253 0.071608,-0.03567 0.1350833,-0.05731 0.1411014,-0.04803 0.00598,0.0093 0.05341,0.1336013 0.1053873,0.2762943 0.093924,0.257915 0.1495194,0.302334 0.2873253,0.229406 0.046891,-0.0248 0.056669,-0.122979 0.056669,-0.5682035 V 8.3072959 H 1.4803782 c -0.3835063,0 -0.50694772,0.015465 -0.52081072,0.06527 m 1.89697022,0.00573 c -0.01089,0.039083 -0.014396,0.349618 -0.00783,0.6900951 0.015944,0.827946 -0.010853,0.795287 0.6525629,0.795287 0.3818582,0 0.5277239,-0.0173 0.5718204,-0.06779 0.050078,-0.05736 0.059215,-0.17807 0.059215,-0.781205 V 8.3013174 L 3.9979725,8.316684 3.8636411,8.3320008 3.8457303,8.9249087 3.8278194,9.517816 H 3.4875142 3.147209 L 3.137139,8.9125567 3.127069,8.3072964 H 3.0016939 c -0.075979,0 -0.1331846,0.027966 -0.1451497,0.071001 m 1.8386527,-0.040417 c -0.014079,0.019418 -0.025575,0.3762 -0.025575,0.7929156 V 9.888384 H 4.8138038 4.9580211 L 4.9481411,9.110192 4.9382811,8.3320008 4.8295265,8.3173268 c -0.059821,-0.0081 -0.1202535,0.00118 -0.1343313,0.020555 m 0.8789201,0.043776 c -0.076408,0.075349 -0.080594,0.1125045 -0.080594,0.7129222 0,0.528973 0.00978,0.644688 0.059252,0.701311 0.043952,0.05029 0.1879204,0.06779 0.5581006,0.06779 0.5640473,0 0.6005859,-0.02293 0.6005859,-0.376694 0,-0.189978 0.00345,-0.185777 -0.2214856,-0.271848 -0.04632,-0.01768 -0.062935,0.01472 -0.071643,0.139827 l -0.011356,0.162852 -0.313439,0.01428 -0.3134398,0.01428 V 9.099767 8.6531586 H 6.1024927 6.424887 v 0.1371593 c 0,0.1302428 0.00727,0.1362698 0.1432868,0.1183338 0.1389159,-0.018232 0.1432859,-0.024405 0.1432859,-0.2018347 0,-0.3457147 -0.040409,-0.3728897 -0.5791284,-0.3896887 C 5.7386516,8.3048253 5.6405727,8.3161922 5.5741235,8.3816563 M 7.236855,8.3402523 c -0.01315,0.018084 -0.0239,0.3738279 -0.0239,0.7905437 V 9.888384 H 7.356242 7.499529 V 9.59193 c 0,-0.301691 0.04722,-0.382031 0.136911,-0.232915 0.02102,0.03493 0.15063,0.169423 0.288005,0.298875 0.240686,0.226837 0.257917,0.234891 0.473956,0.220611 L 8.622567,9.863671 8.22226,9.476354 C 8.002064,9.263303 7.821917,9.070855 7.821917,9.048671 c 0,-0.02219 0.152816,-0.1836541 0.339625,-0.3588579 0.186774,-0.1752044 0.329165,-0.3329178 0.316412,-0.3505074 -0.01276,-0.017639 -0.09869,-0.032018 -0.190965,-0.032018 -0.146223,0 -0.203108,0.034932 -0.442397,0.2717492 -0.151024,0.149462 -0.290442,0.2717496 -0.309821,0.2717496 -0.01938,0 -0.03525,-0.1222876 -0.03525,-0.2717496 V 8.3072959 H 7.38013 c -0.06569,0 -0.130176,0.014823 -0.143287,0.032955 m 1.838832,0.00133 c -0.102019,0.050299 -0.143286,0.1832085 -0.143286,0.4615786 0,0.4064385 0.03543,0.4362805 0.538757,0.4535245 l 0.410518,0.01408 v 0.123523 c 0,0.122682 -0.0023,0.123621 -0.362694,0.137554 -0.329559,0.0127 -0.36427,0.0056 -0.380282,-0.07891 -0.01375,-0.07253 -0.04195,-0.08795 -0.128672,-0.07041 -0.135656,0.02747 -0.177461,0.167447 -0.09919,0.332177 0.07232,0.152179 0.26637,0.193584 0.764434,0.163049 0.451567,-0.02772 0.475066,-0.05321 0.475066,-0.514792 0,-0.4304013 -0.0394,-0.4627643 -0.563223,-0.4627643 H 9.183143 V 8.7766818 c 0,-0.1230777 0.0012,-0.1235223 0.340305,-0.1235223 0.278621,0 0.340305,0.01344 0.340305,0.074113 0,0.085725 0.06433,0.094272 0.194691,0.02594 0.115525,-0.060625 0.11685,-0.1689293 0.0039,-0.3246169 C 9.978564,8.3129786 9.954592,8.3074942 9.551885,8.3111998 9.31951,8.3133298 9.10519,8.3270108 9.075637,8.3415868 m 1.601728,-0.00371 c -0.01408,0.019418 -0.02557,0.3761999 -0.02557,0.7929162 V 9.88838 h 0.144182 0.144219 l -0.0099,-0.778192 -0.0099,-0.7781916 -0.108754,-0.014675 c -0.05982,-0.0081 -0.120253,0.00118 -0.134331,0.020554 m 0.823897,0 c -0.01408,0.019418 -0.02557,0.3762001 -0.02557,0.7929156 v 0.757587 h 0.555236 0.555235 V 9.717083 9.545782 l -0.402993,-0.01398 -0.402993,-0.01398 -0.01791,-0.5929073 -0.01791,-0.5929076 -0.108754,-0.014675 c -0.05982,-0.0081 -0.120253,0.00118 -0.134331,0.020554 m 0.960772,0.016008 c -0.0115,0.025643 0.122008,0.375805 0.296639,0.7781909 0.291516,0.671666 0.32594,0.731599 0.420617,0.731599 0.09529,0 0.125555,-0.0544 0.398516,-0.71643 0.16245,-0.394037 0.295958,-0.7455814 0.296639,-0.7811559 9.09e-4,-0.044765 -0.0399,-0.060032 -0.132218,-0.049409 -0.127238,0.014576 -0.14146,0.03508 -0.302155,0.4352932 -0.09274,0.2309864 -0.187204,0.4617267 -0.209915,0.5127167 -0.03679,0.08256 -0.05836,0.05148 -0.197377,-0.2849913 -0.25276,-0.6117321 -0.291518,-0.6724063 -0.429038,-0.6724063 -0.06645,0 -0.130212,0.020949 -0.141711,0.046592 m 1.725027,-0.014872 c -0.01361,0.018776 -0.02476,0.3750632 -0.02476,0.7917786 v 0.757588 h 0.591057 0.591058 V 9.716988 9.545589 L 14.905558,9.531709 14.466743,9.517829 V 9.369595 9.221369 l 0.241788,-0.01462 c 0.241545,-0.01457 0.241795,-0.01472 0.241795,-0.160579 V 8.9002157 h -0.250751 c -0.242763,0 -0.250752,-0.0039 -0.250752,-0.1219911 V 8.656222 L 14.887639,8.642338 15.326454,8.628454 V 8.4802273 8.3320003 l -0.557349,-0.013538 c -0.306525,-0.00746 -0.568489,0.00178 -0.582102,0.020554 m 1.602983,0.032314 c -0.0098,0.035229 -0.01332,0.3853899 -0.0078,0.7781917 l 0.01,0.714157 0.134331,0.01531 0.134331,0.01536 V 9.594882 c 0,-0.297441 6.81e-4,-0.299418 0.103848,-0.299418 0.0767,0 0.165853,0.07752 0.341022,0.296454 0.232517,0.290624 0.241186,0.296405 0.442432,0.294823 l 0.205261,-0.0017 -0.23284,-0.293144 -0.232841,-0.293143 0.114378,-0.0017 c 0.159227,-0.0023 0.225927,-0.150845 0.225927,-0.5031314 0,-0.2456615 -0.0121,-0.2950211 -0.09439,-0.3842537 -0.08554,-0.092839 -0.142606,-0.1024247 -0.610078,-0.1024247 -0.389274,0 -0.520094,0.015712 -0.533527,0.064034 m 0.270811,0.4547604 v 0.1729311 h 0.321715 c 0.311289,0 0.322429,-0.0039 0.343672,-0.120706 0.03607,-0.1981302 -0.0054,-0.2251568 -0.345106,-0.2251568 h -0.320281 v 0.1729317"
     stroke="none"
     fill="#ffffff"
     fill-rule="evenodd"
     id="path12329"
     style="stroke-width:0.0420703" />
  <path
     d="m 0.26355628,9.097939 v 1.581185 l 8.73152272,-0.01245 8.731522,-0.01245 0.0095,-1.568735 0.0095,-1.568735 H 9.00453 0.26355068 V 9.09794 m 0.015976,0.02461 c 3.58e-5,0.869598 0.0049,1.218376 0.010854,0.775079 0.00591,-0.443297 0.00591,-1.1547872 -3.58e-5,-1.5810875 -0.00599,-0.4263004 -0.010818,-0.063589 -0.010818,0.8060085 m 0.3848377,-1.1097792 c -0.074151,0.095261 -0.078413,0.1423966 -0.078413,0.8651509 0,0.9597203 -0.018985,0.9261713 0.54266192,0.9610543 l 0.3975485,0.02471 0.062724,0.22234 c 0.061971,0.219623 0.064981,0.222539 0.2463453,0.237263 0.1009812,0.0083 0.1835859,0.0019 0.1835859,-0.01393 0,-0.01586 -0.02418,-0.108699 -0.053732,-0.206233 -0.075727,-0.249959 -0.070891,-0.26414 0.089554,-0.26414 0.095536,0 0.1671796,-0.03296 0.2149298,-0.09882 0.065482,-0.09032 0.071643,-0.16468 0.071643,-0.8646569 0,-1.0371436 0.066593,-0.9634749 -0.8708597,-0.9634749 -0.68272452,0 -0.73244482,0.00622 -0.80598662,0.1007449 m 0.295206,0.359796 c -0.00999,0.03592 -0.013505,0.2860285 -0.00781,0.5558506 l 0.010317,0.4905823 H 1.1411869 c 0.1904995,0 0.2058311,-0.03167 0.1443254,-0.297837 -0.018985,-0.08216 2.866e-4,-0.111912 0.1069992,-0.1651253 0.071608,-0.03567 0.1350833,-0.05731 0.1411014,-0.04803 0.00598,0.0093 0.05341,0.1336023 0.1053873,0.2762953 0.093924,0.257915 0.1495194,0.302333 0.2873253,0.229406 0.046891,-0.0248 0.056669,-0.12298 0.056669,-0.5682038 V 8.3072959 H 1.4803782 c -0.3835063,0 -0.50694772,0.015465 -0.52081072,0.06527 m 1.89697022,0.00573 c -0.01089,0.039083 -0.014396,0.349618 -0.00783,0.6900951 0.015944,0.827946 -0.010853,0.795287 0.6525629,0.795287 0.3818582,0 0.5277239,-0.0173 0.5718204,-0.06779 0.050078,-0.05736 0.059215,-0.17807 0.059215,-0.781205 V 8.3013174 L 3.9979725,8.316684 3.8636411,8.3320008 3.8457303,8.9249087 3.8278194,9.517816 H 3.4875142 3.147209 L 3.137139,8.9125567 3.127069,8.3072964 H 3.0016939 c -0.075979,0 -0.1331846,0.027966 -0.1451497,0.071001 m 1.8386527,-0.040417 c -0.014079,0.019418 -0.025575,0.3762 -0.025575,0.7929156 V 9.888384 H 4.8138038 4.9580211 L 4.9481411,9.110192 4.9382811,8.3320008 4.8295265,8.3173268 c -0.059821,-0.0081 -0.1202535,0.00118 -0.1343313,0.020555 m 0.8789201,0.043776 c -0.076408,0.075349 -0.080594,0.1125045 -0.080594,0.7129222 0,0.528973 0.00978,0.644688 0.059252,0.701311 0.043952,0.05029 0.1879204,0.06779 0.5581006,0.06779 0.5640473,0 0.6005859,-0.02293 0.6005859,-0.376694 0,-0.189978 0.00345,-0.185777 -0.2214856,-0.271848 -0.04632,-0.01768 -0.062935,0.01472 -0.071643,0.139827 l -0.011356,0.162852 -0.313439,0.01428 -0.3134398,0.01428 V 9.099767 8.6531586 H 6.1024927 6.424887 v 0.1371593 c 0,0.1302428 0.00727,0.1362698 0.1432868,0.1183338 0.1389159,-0.018232 0.1432859,-0.024405 0.1432859,-0.2018347 0,-0.3457147 -0.040409,-0.3728897 -0.5791284,-0.3896887 C 5.7386516,8.3048253 5.6405727,8.3161922 5.5741235,8.3816563 M 7.236855,8.3402523 c -0.01315,0.018084 -0.0239,0.3738279 -0.0239,0.7905437 V 9.888384 H 7.356242 7.499529 V 9.59193 c 0,-0.301691 0.04722,-0.382031 0.136911,-0.232915 0.02102,0.03493 0.15063,0.169423 0.288005,0.298875 0.240686,0.226837 0.257917,0.234891 0.473956,0.220611 L 8.622567,9.863671 8.22226,9.476354 C 8.002064,9.263303 7.821917,9.070855 7.821917,9.048671 c 0,-0.02219 0.152816,-0.1836541 0.339625,-0.3588579 0.186774,-0.1752044 0.329165,-0.3329178 0.316412,-0.3505074 -0.01276,-0.017639 -0.09869,-0.032018 -0.190965,-0.032018 -0.146223,0 -0.203108,0.034932 -0.442397,0.2717492 -0.151024,0.149462 -0.290442,0.2717496 -0.309821,0.2717496 -0.01938,0 -0.03525,-0.1222876 -0.03525,-0.2717496 V 8.3072959 H 7.38013 c -0.06569,0 -0.130176,0.014823 -0.143287,0.032955 m 1.838832,0.00133 c -0.102019,0.050299 -0.143286,0.1832085 -0.143286,0.4615786 0,0.4064385 0.03543,0.4362805 0.538757,0.4535245 l 0.410518,0.01408 v 0.123523 c 0,0.122682 -0.0023,0.123621 -0.362694,0.137554 -0.329559,0.0127 -0.36427,0.0056 -0.380282,-0.07891 -0.01375,-0.07253 -0.04195,-0.08795 -0.128672,-0.07041 -0.135656,0.02747 -0.177461,0.167447 -0.09919,0.332177 0.07232,0.152179 0.26637,0.193584 0.764434,0.163049 0.451567,-0.02772 0.475066,-0.05321 0.475066,-0.514792 0,-0.4304013 -0.0394,-0.4627643 -0.563223,-0.4627643 H 9.183143 V 8.7766818 c 0,-0.1230777 0.0012,-0.1235223 0.340305,-0.1235223 0.278621,0 0.340305,0.01344 0.340305,0.074113 0,0.085725 0.06433,0.094272 0.194691,0.02594 0.115525,-0.060625 0.11685,-0.1689293 0.0039,-0.3246169 C 9.978564,8.3129786 9.954592,8.3074942 9.551885,8.3111998 9.31951,8.3133298 9.10519,8.3270108 9.075637,8.3415868 m 1.601728,-0.00371 c -0.01408,0.019418 -0.02557,0.3761999 -0.02557,0.7929162 V 9.88838 h 0.144182 0.144219 l -0.0099,-0.778192 -0.0099,-0.7781916 -0.108754,-0.014675 c -0.05982,-0.0081 -0.120253,0.00118 -0.134331,0.020554 m 0.823897,0 c -0.01408,0.019418 -0.02557,0.3762001 -0.02557,0.7929156 v 0.757587 h 0.555236 0.555235 V 9.717083 9.545782 l -0.402993,-0.01398 -0.402993,-0.01398 -0.01791,-0.5929073 -0.01791,-0.5929076 -0.108754,-0.014675 c -0.05982,-0.0081 -0.120253,0.00118 -0.134331,0.020554 m 0.960772,0.016008 c -0.0115,0.025643 0.122008,0.375805 0.296639,0.7781909 0.291516,0.671666 0.32594,0.731599 0.420617,0.731599 0.09529,0 0.125555,-0.0544 0.398516,-0.71643 0.16245,-0.394037 0.295958,-0.7455814 0.296639,-0.7811559 9.09e-4,-0.044765 -0.0399,-0.060032 -0.132218,-0.049409 -0.127238,0.014576 -0.14146,0.03508 -0.302155,0.4352932 -0.09274,0.2309864 -0.187204,0.4617267 -0.209915,0.5127167 -0.03679,0.08256 -0.05836,0.05148 -0.197377,-0.2849913 -0.25276,-0.6117321 -0.291518,-0.6724063 -0.429038,-0.6724063 -0.06645,0 -0.130212,0.020949 -0.141711,0.046592 m 1.725027,-0.014872 c -0.01361,0.018776 -0.02476,0.3750632 -0.02476,0.7917786 v 0.757588 h 0.591057 0.591058 V 9.716988 9.545589 L 14.905558,9.531709 14.466743,9.517829 V 9.369595 9.221369 l 0.241788,-0.01462 c 0.241545,-0.01457 0.241795,-0.01472 0.241795,-0.160579 V 8.9002157 h -0.250751 c -0.242763,0 -0.250752,-0.0039 -0.250752,-0.1219911 V 8.656222 L 14.887639,8.642338 15.326454,8.628454 V 8.4802273 8.3320003 l -0.557349,-0.013538 c -0.306525,-0.00746 -0.568489,0.00178 -0.582102,0.020554 m 1.602983,0.032314 c -0.0098,0.035229 -0.01332,0.3853899 -0.0078,0.7781917 l 0.01,0.714157 0.134331,0.01531 0.134331,0.01536 V 9.594882 c 0,-0.297441 6.81e-4,-0.299418 0.103848,-0.299418 0.0767,0 0.165853,0.07752 0.341022,0.296454 0.232517,0.290624 0.241186,0.296405 0.442432,0.294823 l 0.205261,-0.0017 -0.23284,-0.293144 -0.232841,-0.293143 0.114378,-0.0017 c 0.159227,-0.0023 0.225927,-0.150845 0.225927,-0.5031314 0,-0.2456615 -0.0121,-0.2950211 -0.09439,-0.3842537 -0.08554,-0.092839 -0.142606,-0.1024247 -0.610078,-0.1024247 -0.389274,0 -0.520094,0.015712 -0.533527,0.064034 m 0.270811,0.4547604 v 0.1729311 h 0.321715 c 0.311289,0 0.322429,-0.0039 0.343672,-0.120706 0.03607,-0.1981302 -0.0054,-0.2251568 -0.345106,-0.2251568 h -0.320281 v 0.1729317"
     stroke="none"
     fill="#c52128"
     fill-rule="evenodd"
     id="path12331"
     style="stroke-width:0.0420703" />
</svg>
