<?xml version="1.0" encoding="UTF-8" standalone="no"?>
<!-- Generator: Gravit.io -->

<svg
   style="isolation:isolate"
   viewBox="0 0 17.749998 24.000002"
   width="17.749998pt"
   height="24.000002pt"
   version="1.1"
   id="svg1518"
   xmlns="http://www.w3.org/2000/svg"
   xmlns:svg="http://www.w3.org/2000/svg">
  <defs
     id="defs1472">
    <defs
       id="defs1477" />
    <defs
       id="defs1486">
      <filter
         id="Bc4ffSFNukYB3E7975ZEZM7rfpIRonis"
         x="0"
         y="0"
         width="1"
         height="1"
         filterUnits="objectBoundingBox"
         color-interpolation-filters="sRGB">
        <feGaussianBlur
           stdDeviation="0"
           id="feGaussianBlur1483" />
      </filter>
    </defs>
    <clipPath
       clipPathUnits="userSpaceOnUse"
       id="clipPath2645">
      <g
         id="g2649"
         transform="matrix(20.342875,0,0,20.333332,18.914,4)">
        <rect
           width="400"
           height="520"
           id="rect2647"
           x="0"
           y="0" />
      </g>
    </clipPath>
  </defs>
  <path
     d="M 18.914,185.931 C 18.914,85.382 99.774,4 199.384,4 299.14,4 380,85.382 380,185.931 c 0,53.96 -23.438,102.613 -60.645,135.932 -2.051,1.77 -72.95,68.261 -120.411,170.137 C 181.073,419.906 111.785,350.613 79.998,322.306 42.498,288.839 18.914,240.186 18.914,185.931 Z m 292.091,0"
     fill="#ffed00"
     id="path1488"
     style="fill:#ff69b4;fill-opacity:1;filter:url(#Bc4ffSFNukYB3E7975ZEZM7rfpIRonis)"
     transform="matrix(0.04915726,0,0,0.04918033,-0.92976042,-0.19672132)"
     clip-path="url(#clipPath2645)" />
</svg>
