<?xml version="1.0" encoding="UTF-8" standalone="no"?>
<svg
   viewBox="0 0 15.579999 19"
   width="15.579999pt"
   height="19pt"
   version="1.1"
   id="svg1059"
   xmlns="http://www.w3.org/2000/svg"
   xmlns:svg="http://www.w3.org/2000/svg">
  <defs
     id="defs1063">
    <clipPath
       id="_clipPath_jiopfRZwefiWCnBKEEJxiNRcABjaFnPK">
      <rect
         width="765.28003"
         height="841.76001"
         id="rect2000"
         x="0"
         y="0" />
    </clipPath>
  </defs>
  <path
     d="M 13.160954,13.430409 C 14.609273,11.949273 15.58,10.007818 15.58,7.79 15.58,3.4908182 12.089182,0 7.79,0 3.4908182,0 0,3.4908182 0,7.79 c 0,2.245454 0.88695458,4.116954 2.4734546,5.691364 v 0 L 7.4730458,19 13.170454,13.430409 Z"
     fill="#ff69b4"
     id="path1057"
     style="fill:#003d57;fill-opacity:1;stroke-width:0.863636" />
  <g
     clip-path="url(#_clipPath_jiopfRZwefiWCnBKEEJxiNRcABjaFnPK)"
     id="g2045"
     transform="matrix(0.01568054,0,0,0.01568054,1.6731663,1.5788631)"
     style="isolation:isolate">
    <g
       id="g2043">
      <path
         d="m 723.05,160.45 h -82.21 l -41.11,71.21 41.11,71.19 h 82.21 l 41.11,-71.19 z"
         fill="#003d57"
         id="path2005"
         style="fill:#ffffff" />
      <path
         d="m 553.97,77.86 h -69.88 l -34.95,60.52 34.95,60.52 h 69.88 l 34.94,-60.52 z"
         fill="#003d57"
         id="path2007"
         style="fill:#ffffff" />
      <path
         d="m 551.24,260.36 h -69.88 l -34.94,60.52 34.94,60.52 h 69.88 l 34.94,-60.52 z"
         fill="#ec602d"
         id="path2009" />
      <path
         d="m 551.24,439.85 h -69.88 l -34.94,60.53 34.94,60.52 h 69.88 l 34.94,-60.52 z"
         fill="#ec602d"
         id="path2011" />
      <path
         d="m 396.84,526.08 h -69.88 l -34.95,60.52 34.95,60.52 h 69.88 l 34.94,-60.52 z"
         fill="#ec602d"
         id="path2013" />
      <path
         d="m 244.81,620.17 h -69.88 l -34.94,60.52 34.94,60.52 h 69.88 l 34.94,-60.52 z"
         fill="#ec602d"
         id="path2015" />
      <path
         d="m 341.01,0 -29.87,51.73 29.87,51.76 h 59.75 L 430.63,51.73 400.76,0 Z"
         fill="#003d57"
         id="path2017"
         style="fill:#ffffff" />
      <path
         d="m 391.03,179.6 h -59.74 l -29.89,51.74 29.89,51.75 h 59.74 l 29.88,-51.75 z"
         fill="#ec602d"
         id="path2019" />
      <path
         d="m 390.74,359.9 h -59.75 l -29.88,51.75 29.88,51.74 h 59.75 l 29.88,-51.74 z"
         fill="#401505"
         id="path2021"
         style="fill:#ffffff" />
      <path
         d="m 236.44,448.68 h -59.75 l -29.88,51.75 29.88,51.74 h 59.75 l 29.88,-51.74 z"
         fill="#401505"
         id="path2023"
         style="fill:#ffffff" />
      <path
         d="M 89.63,538.65 H 29.88 L 0,590.4 29.88,642.14 h 59.75 l 29.88,-51.74 z"
         fill="#401505"
         id="path2025"
         style="fill:#ffffff" />
      <path
         d="m 242.46,100.41 h -47.8 l -23.91,41.4 23.91,41.4 h 47.8 l 23.9,-41.4 z"
         fill="#ec602d"
         id="path2027" />
      <path
         d="m 237.44,269.64 h -55.21 l -27.6,47.82 27.6,47.8 h 55.21 l 27.61,-47.8 z"
         fill="#401505"
         id="path2029"
         style="fill:#ffffff" />
      <path
         d="m 84.92,369.92 h -47.8 l -23.9,41.39 23.9,41.4 h 47.8 l 23.9,-41.4 z"
         fill="#401505"
         id="path2031"
         style="fill:#ffffff" />
      <path
         d="m 92.91,198.84 h -47.8 l -23.9,41.4 23.9,41.4 h 47.8 l 23.9,-41.4 z"
         fill="#401505"
         id="path2033"
         style="fill:#ffffff" />
      <path
         d="m 721.92,340.72 h -82.21 l -41.11,71.2 41.11,71.19 h 82.21 l 41.11,-71.19 z"
         fill="#ec602d"
         id="path2035" />
      <path
         d="m 724.17,519.76 h -82.2 l -41.11,71.21 41.11,71.19 h 82.2 l 41.11,-71.19 z"
         fill="#003d57"
         id="path2037"
         style="fill:#ffffff" />
      <path
         d="m 567.57,609.56 h -82.21 l -41.11,71.21 41.11,71.19 h 82.21 l 41.11,-71.19 z"
         fill="#003d57"
         id="path2039"
         style="fill:#ffffff" />
      <path
         d="m 410.97,699.36 h -82.21 l -41.11,71.21 41.11,71.19 h 82.21 l 41.11,-71.19 z"
         fill="#003d57"
         id="path2041"
         style="fill:#ffffff" />
    </g>
  </g>
</svg>
