<?xml version="1.0" encoding="UTF-8" standalone="no"?>
<svg
   viewBox="0 0 24 24"
   width="24pt"
   height="24pt"
   version="1.1"
   id="svg4"
   sodipodi:docname="pink_master_star.svg"
   xml:space="preserve"
   inkscape:version="1.2.2 (732a01da63, 2022-12-09)"
   xmlns:inkscape="http://www.inkscape.org/namespaces/inkscape"
   xmlns:sodipodi="http://sodipodi.sourceforge.net/DTD/sodipodi-0.dtd"
   xmlns="http://www.w3.org/2000/svg"
   xmlns:svg="http://www.w3.org/2000/svg"><defs
     id="defs8" /><sodipodi:namedview
     id="namedview6"
     pagecolor="#ffffff"
     bordercolor="#000000"
     borderopacity="0.25"
     inkscape:showpageshadow="2"
     inkscape:pageopacity="0.0"
     inkscape:pagecheckerboard="0"
     inkscape:deskcolor="#d1d1d1"
     inkscape:document-units="pt"
     showgrid="false"
     inkscape:zoom="18.406873"
     inkscape:cx="10.811179"
     inkscape:cy="16.542733"
     inkscape:window-width="1920"
     inkscape:window-height="991"
     inkscape:window-x="329"
     inkscape:window-y="1431"
     inkscape:window-maximized="1"
     inkscape:current-layer="svg4" /><path
     style="fill:#ff69b4;fill-opacity:1;stroke:#ff69b4;stroke-width:0.0533225;stroke-opacity:1"
     d="M 4.9484702,22.807259 C 5.1493233,22.283844 7.5978157,14.636396 7.5796783,14.589131 7.5664191,14.554564 5.9891719,13.388312 4.0746973,11.99746 L 0.59383369,9.4686408 4.9470443,9.4549978 9.3002556,9.4413549 9.4327928,9.0218012 C 9.6675749,8.2785855 11.982466,1.1507285 11.993,1.1385865 c 0.0056,-0.00645 0.412597,1.2292986 0.904444,2.7461123 0.491848,1.516814 1.099189,3.3875765 1.349648,4.1572505 l 0.455381,1.3994076 4.351831,0.013643 4.351832,0.013643 -3.483702,2.5297121 c -1.916037,1.391341 -3.494435,2.557681 -3.507553,2.591866 -0.01313,0.03418 0.575663,1.906826 1.308402,4.161424 0.732739,2.254597 1.327873,4.103511 1.322518,4.108696 -0.0054,0.0052 -1.591215,-1.139268 -3.524136,-2.543232 -1.932922,-1.403965 -3.540597,-2.536562 -3.572613,-2.516882 -0.03202,0.01968 -1.509916,1.090793 -3.2842235,2.380254 -1.7743087,1.28946 -3.3447295,2.429848 -3.4898246,2.534195 -0.1904446,0.136961 -0.2534424,0.162709 -0.2265337,0.09258 z"
     id="path5374" /></svg>
