<?xml version="1.0" encoding="UTF-8" standalone="no"?>
<svg
   viewBox="0 0 24 24"
   width="24pt"
   height="24pt"
   version="1.1"
   id="svg4"
   sodipodi:docname="pink_master_star.svg"
   xml:space="preserve"
   inkscape:version="1.2.2 (732a01da63, 2022-12-09)"
   xmlns:inkscape="http://www.inkscape.org/namespaces/inkscape"
   xmlns:sodipodi="http://sodipodi.sourceforge.net/DTD/sodipodi-0.dtd"
   xmlns="http://www.w3.org/2000/svg"
   xmlns:svg="http://www.w3.org/2000/svg"><defs
     id="defs8" /><sodipodi:namedview
     id="namedview6"
     pagecolor="#ffffff"
     bordercolor="#000000"
     borderopacity="0.25"
     inkscape:showpageshadow="2"
     inkscape:pageopacity="0.0"
     inkscape:pagecheckerboard="0"
     inkscape:deskcolor="#d1d1d1"
     inkscape:document-units="pt"
     showgrid="false"
     inkscape:zoom="18.406873"
     inkscape:cx="19.150455"
     inkscape:cy="14.586943"
     inkscape:window-width="1920"
     inkscape:window-height="991"
     inkscape:window-x="329"
     inkscape:window-y="1431"
     inkscape:window-maximized="1"
     inkscape:current-layer="svg4" /><path
     style="fill:#FF69B4;stroke:#FF69B4;stroke-width:0.0407456"
     d="m 11.875323,23.26307 c 0,-0.09354 -0.100193,-0.272324 -0.152796,-0.272651 -0.02801,-1.64e-4 -0.05093,-0.04616 -0.05093,-0.102183 0,-0.05603 -0.01798,-0.101864 -0.03997,-0.101864 -0.02198,0 -0.05147,-0.04584 -0.06554,-0.101864 -0.01406,-0.05602 -0.04191,-0.101864 -0.0619,-0.101864 -0.01998,0 -0.03633,-0.0275 -0.03633,-0.06112 0,-0.03362 -0.0275,-0.06112 -0.06112,-0.06112 -0.03803,0 -0.06112,-0.03848 -0.06112,-0.101865 0,-0.05602 -0.01834,-0.101864 -0.04075,-0.101864 -0.02241,0 -0.04075,-0.02555 -0.04075,-0.05676 0,-0.03121 -0.0275,-0.06731 -0.06112,-0.08021 -0.03361,-0.0129 -0.06112,-0.0607 -0.06112,-0.106224 0,-0.04553 -0.0171,-0.08277 -0.038,-0.08277 -0.0209,0 -0.04829,-0.03208 -0.06087,-0.0713 -0.01258,-0.03922 -0.06882,-0.12458 -0.124982,-0.189693 -0.05616,-0.06511 -0.102111,-0.14304 -0.102111,-0.173169 0,-0.03013 -0.01834,-0.05478 -0.04075,-0.05478 -0.02241,0 -0.04075,-0.0275 -0.04075,-0.06112 0,-0.03362 -0.0275,-0.06112 -0.06112,-0.06112 -0.03361,0 -0.06112,-0.034 -0.06112,-0.07554 0,-0.04155 -0.04126,-0.121109 -0.09168,-0.176803 -0.05042,-0.0557 -0.12705,-0.163801 -0.170283,-0.240237 -0.04323,-0.07644 -0.121158,-0.176231 -0.173169,-0.221765 -0.05201,-0.04553 -0.09456,-0.114291 -0.09456,-0.152796 0,-0.03851 -0.01834,-0.07001 -0.04075,-0.07001 -0.02241,0 -0.04075,-0.0275 -0.04075,-0.06112 0,-0.03362 -0.027501,-0.06112 -0.061121,-0.06112 -0.03362,0 -0.06112,-0.03334 -0.06112,-0.07409 0,-0.04075 -0.0643,-0.146179 -0.142878,-0.234288 -0.07858,-0.08811 -0.153161,-0.192285 -0.165728,-0.231503 -0.01257,-0.03922 -0.03995,-0.0713 -0.06086,-0.0713 -0.0209,0 -0.038,-0.0275 -0.038,-0.06112 0,-0.03362 -0.0275,-0.06112 -0.06112,-0.06112 -0.03362,0 -0.06112,-0.03399 -0.06112,-0.07554 0,-0.04155 -0.04584,-0.125002 -0.101864,-0.185454 -0.05603,-0.06045 -0.101864,-0.127304 -0.101864,-0.14856 0,-0.02126 -0.01417,-0.03865 -0.03148,-0.03865 -0.01732,0 -0.06604,-0.06418 -0.108281,-0.14261 -0.04224,-0.07843 -0.09709,-0.14261 -0.121891,-0.14261 -0.0248,0 -0.07686,-0.07334 -0.115699,-0.162982 -0.03884,-0.08964 -0.08611,-0.162983 -0.10506,-0.162983 -0.01894,0 -0.06901,-0.06418 -0.111251,-0.14261 -0.04224,-0.07844 -0.09097,-0.14261 -0.10828,-0.14261 -0.01732,0 -0.03148,-0.02082 -0.03148,-0.04626 0,-0.02544 -0.04321,-0.0863 -0.09601,-0.13524 -0.05281,-0.04894 -0.10323,-0.10605 -0.11205,-0.126909 -0.04986,-0.117908 -0.227168,-0.342585 -0.270699,-0.343017 -0.02801,-2.85e-4 -0.05093,-0.03406 -0.05093,-0.07508 0,-0.04102 -0.07308,-0.155616 -0.162407,-0.254661 -0.08932,-0.09905 -0.162667,-0.203002 -0.162983,-0.231015 -3.16e-4,-0.02801 -0.01891,-0.05093 -0.04132,-0.05093 -0.02241,0 -0.04075,-0.0275 -0.04075,-0.06112 0,-0.03362 -0.0275,-0.06112 -0.06112,-0.06112 -0.03361,0 -0.06112,-0.0275 -0.06112,-0.06112 0,-0.03362 -0.01833,-0.06112 -0.04075,-0.06112 -0.02241,0 -0.04075,-0.02748 -0.04075,-0.06107 0,-0.03359 -0.07334,-0.136646 -0.162982,-0.229014 -0.08964,-0.09237 -0.162983,-0.19381 -0.162983,-0.225426 0,-0.03162 -0.0275,-0.06804 -0.06112,-0.08094 -0.03362,-0.0129 -0.06112,-0.04231 -0.06112,-0.06536 0,-0.02305 -0.0424,-0.0812 -0.09423,-0.129234 -0.05183,-0.04803 -0.129124,-0.146397 -0.171767,-0.218587 -0.04264,-0.07219 -0.09192,-0.131254 -0.109494,-0.131254 -0.01758,0 -0.03196,-0.0275 -0.03196,-0.06112 0,-0.03362 -0.02541,-0.06112 -0.05648,-0.06112 -0.03106,0 -0.08693,-0.06418 -0.124148,-0.14261 -0.03722,-0.07844 -0.08515,-0.14261 -0.106507,-0.14261 -0.02136,0 -0.03883,-0.01924 -0.03883,-0.04276 0,-0.02352 -0.06367,-0.108318 -0.141478,-0.188439 -0.07781,-0.08012 -0.152391,-0.180059 -0.165729,-0.222082 -0.01334,-0.04202 -0.04135,-0.07641 -0.06225,-0.07641 -0.0209,0 -0.038,-0.0275 -0.038,-0.06112 0,-0.03361 -0.0275,-0.06112 -0.06112,-0.06112 -0.03361,0 -0.06112,-0.01964 -0.06112,-0.04366 0,-0.02401 -0.02292,-0.06921 -0.05093,-0.10045 -0.112774,-0.125773 -0.152793,-0.179733 -0.152793,-0.206042 0,-0.01518 -0.04584,-0.07009 -0.101864,-0.122011 -0.05603,-0.05192 -0.101864,-0.111654 -0.101864,-0.132736 0,-0.02108 -0.0275,-0.04888 -0.06112,-0.06178 -0.03362,-0.0129 -0.06112,-0.05153 -0.06112,-0.08585 0,-0.03432 -0.01834,-0.0624 -0.04075,-0.0624 -0.02241,0 -0.04075,-0.0275 -0.04075,-0.06112 0,-0.03361 -0.0275,-0.06112 -0.06112,-0.06112 -0.03362,0 -0.06112,-0.02082 -0.06112,-0.04626 0,-0.02544 -0.04584,-0.08874 -0.101865,-0.140664 -0.05602,-0.05192 -0.101864,-0.114492 -0.101864,-0.139041 0,-0.02455 -0.04584,-0.08712 -0.101864,-0.139042 C 4.464624,13.020144 4.41879,12.956843 4.41879,12.9314 c 0,-0.02544 -0.02303,-0.04626 -0.05117,-0.04626 -0.02814,0 -0.07725,-0.05891 -0.109115,-0.130903 -0.03187,-0.07199 -0.0973,-0.168257 -0.145407,-0.213913 -0.0481,-0.04566 -0.09927,-0.1151 -0.113707,-0.154318 -0.01444,-0.03922 -0.04516,-0.0713 -0.06827,-0.0713 -0.02311,0 -0.04234,-0.02292 -0.04273,-0.05093 -3.87e-4,-0.02801 -0.04623,-0.09411 -0.101864,-0.146887 -0.128626,-0.122007 -0.1284,-0.236166 7.04e-4,-0.355816 0.05603,-0.05192 0.101864,-0.109219 0.101864,-0.127326 0,-0.01811 0.04584,-0.08236 0.101864,-0.142776 0.05602,-0.06042 0.101864,-0.128992 0.101864,-0.152381 0,-0.02338 0.0275,-0.04252 0.06112,-0.04252 0.03361,0 0.06112,-0.0275 0.06112,-0.06112 0,-0.03362 0.01834,-0.06112 0.04075,-0.06112 0.02241,0 0.04075,-0.01911 0.04075,-0.04246 0,-0.04852 0.0054,-0.05527 0.305887,-0.385364 0.122421,-0.134461 0.222858,-0.276561 0.223195,-0.315779 3.36e-4,-0.03922 0.02811,-0.0713 0.06173,-0.0713 0.03362,0 0.06112,-0.01834 0.06112,-0.04075 0,-0.02241 0.07059,-0.11133 0.156855,-0.197601 0.08627,-0.08627 0.182424,-0.2146177 0.213675,-0.2852187 0.03125,-0.0706 0.07199,-0.128364 0.09053,-0.128364 0.04636,0 0.150126,-0.1076314 0.150126,-0.1557131 0,-0.021615 0.0275,-0.049853 0.06112,-0.062753 0.03362,-0.0129 0.06161,-0.04695 0.06221,-0.075665 6.01e-4,-0.028717 0.09228,-0.150924 0.203729,-0.2715743 0.11145,-0.1206502 0.202636,-0.2535832 0.202636,-0.2954062 0,-0.04182 0.01965,-0.076042 0.04366,-0.076042 0.05641,0 0.160072,-0.1036605 0.160072,-0.1600725 0,-0.024007 0.02536,-0.043658 0.05637,-0.043658 0.031,0 0.06714,-0.032085 0.08031,-0.071302 0.03391,-0.101004 0.108023,-0.20517 0.260595,-0.3662895 0.07283,-0.076913 0.132424,-0.1749382 0.132424,-0.2178337 0,-0.0429 0.0275,-0.077993 0.06112,-0.077993 0.03361,0 0.06112,-0.02028 0.06112,-0.045068 0,-0.024788 0.04584,-0.081124 0.101864,-0.1251945 0.05602,-0.04407 0.101864,-0.1019022 0.101864,-0.1285173 0,-0.026615 0.04584,-0.097826 0.101864,-0.1582467 0.05603,-0.060421 0.101865,-0.1289918 0.101865,-0.1523802 0,-0.023388 0.02382,-0.042524 0.05293,-0.042524 0.02911,0 0.07614,-0.064175 0.104501,-0.1426098 0.02836,-0.078435 0.07788,-0.1426098 0.11005,-0.1426098 0.03216,0 0.05848,-0.027503 0.05848,-0.061118 0,-0.033615 0.01538,-0.061118 0.03419,-0.061118 0.0188,0 0.06922,-0.073132 0.11205,-0.1625152 0.04283,-0.089383 0.09869,-0.1627255 0.12415,-0.1629826 0.02546,-2.444e-4 0.07674,-0.064642 0.113962,-0.1430771 0.03722,-0.078435 0.08515,-0.1426098 0.106507,-0.1426098 0.02136,0 0.03883,-0.019211 0.03883,-0.042691 0,-0.02348 0.04584,-0.085173 0.101864,-0.1370957 0.05603,-0.051922 0.101864,-0.1335569 0.101864,-0.1814098 0,-0.047853 0.02292,-0.087701 0.05093,-0.088552 0.05341,-0.00162 0.275033,-0.2963146 0.275033,-0.3657085 0,-0.022111 0.01834,-0.040201 0.04075,-0.040201 0.02241,0 0.04075,-0.027503 0.04075,-0.061118 0,-0.033615 0.0275,-0.061118 0.06112,-0.061118 0.03362,0 0.06112,-0.019558 0.06112,-0.043464 0,-0.041571 0.167891,-0.2841981 0.275033,-0.397462 0.02801,-0.029613 0.05093,-0.080036 0.05093,-0.1120505 0,-0.032014 0.01834,-0.058208 0.04075,-0.058208 0.02241,0 0.04075,-0.027503 0.04075,-0.061118 0,-0.033615 0.0275,-0.061118 0.06112,-0.061118 0.03362,0 0.06147,-0.032087 0.0619,-0.071305 C 9.4725,4.3402825 9.536878,4.2348534 9.615125,4.145213 9.693375,4.055572 9.767603,3.9501432 9.780072,3.9109255 c 0.01247,-0.039217 0.03977,-0.071305 0.06067,-0.071305 0.0209,0 0.038,-0.025542 0.038,-0.056759 0,-0.031217 0.0275,-0.067313 0.06112,-0.080213 0.03361,-0.012899 0.06112,-0.0607 0.06112,-0.1062235 0,-0.045523 0.01834,-0.08277 0.04075,-0.08277 0.02241,0 0.04075,-0.027503 0.04075,-0.061118 0,-0.033615 0.0275,-0.061118 0.06112,-0.061118 0.03803,0 0.06112,-0.038482 0.06112,-0.1018641 0,-0.056025 0.0209,-0.1018642 0.04644,-0.1018642 0.05641,0 0.154204,-0.1225565 0.155992,-0.1954874 7.13e-4,-0.029083 0.04714,-0.09536 0.10316,-0.1472821 0.05603,-0.051922 0.101864,-0.1335569 0.101864,-0.1814099 0,-0.050174 0.02588,-0.087005 0.06112,-0.087005 0.03362,0 0.06112,-0.027503 0.06112,-0.061118 0,-0.033615 0.01635,-0.061118 0.03633,-0.061118 0.01998,0 0.04783,-0.045839 0.0619,-0.1018641 0.01406,-0.056025 0.04355,-0.1018641 0.06554,-0.1018641 0.02198,0 0.03997,-0.027503 0.03997,-0.061118 0,-0.033615 0.01799,-0.061118 0.03997,-0.061118 0.02198,0 0.05147,-0.045838 0.06554,-0.1018641 0.01406,-0.056025 0.04191,-0.1018641 0.0619,-0.1018641 0.01998,0 0.03633,-0.027503 0.03633,-0.061118 0,-0.033615 0.01799,-0.061118 0.03997,-0.061118 0.02198,0 0.05147,-0.045839 0.06554,-0.1018641 0.01406,-0.056025 0.04191,-0.1018641 0.0619,-0.1018641 0.01998,0 0.03633,-0.024652 0.03633,-0.054781 0,-0.03013 0.04595,-0.1080556 0.10211,-0.173169 0.05616,-0.065114 0.112402,-0.1504753 0.124983,-0.189693 0.01258,-0.039218 0.03998,-0.071305 0.06087,-0.071305 0.0209,0 0.038,-0.018335 0.038,-0.040746 0,-0.02241 0.03209,-0.074211 0.0713,-0.11511317 0.03922,-0.040902 0.11256,-0.1273921 0.162982,-0.1921999 0.06806,-0.087472 0.09168,-0.0998061 0.09168,-0.047869 0,0.03848 0.0275,0.069963 0.06112,0.069963 0.03362,0 0.06112,0.033994 0.06112,0.075542 0,0.041548 0.04584,0.1250024 0.101864,0.18545467 0.05603,0.060452 0.101864,0.1297854 0.101864,0.1540736 0,0.024288 0.04584,0.086642 0.101865,0.1385649 0.05603,0.051922 0.101864,0.1233587 0.101864,0.1587473 0,0.035389 0.0275,0.074896 0.06112,0.087796 0.03362,0.012899 0.06112,0.048995 0.06112,0.080213 0,0.031217 0.01834,0.056759 0.04075,0.056759 0.02241,0 0.04075,0.037246 0.04075,0.08277 0,0.045524 0.0275,0.093324 0.06112,0.1062234 0.03361,0.012899 0.06112,0.048995 0.06112,0.080213 0,0.031217 0.01635,0.056759 0.03633,0.056759 0.01998,0 0.04783,0.045839 0.0619,0.1018641 0.01406,0.056025 0.04355,0.1018642 0.06554,0.1018642 0.02198,0 0.03997,0.027503 0.03997,0.061118 0,0.033615 0.01417,0.061118 0.03148,0.061118 0.01732,0 0.06604,0.064175 0.108281,0.1426097 0.04224,0.078435 0.101416,0.1426098 0.131503,0.1426098 0.03119,0 0.0547,0.043792 0.0547,0.1018641 0,0.056025 0.01834,0.1018642 0.04075,0.1018642 0.02241,0 0.04075,0.027503 0.04075,0.061118 0,0.033615 0.0275,0.061118 0.06112,0.061118 0.03525,0 0.06112,0.036831 0.06112,0.087005 0,0.047853 0.04584,0.1294874 0.101863,0.1814098 0.05602,0.051922 0.101864,0.1233588 0.101864,0.1587474 0,0.035389 0.0275,0.074897 0.06112,0.087796 0.03362,0.012899 0.06112,0.041137 0.06112,0.06275 0,0.021613 0.02292,0.064854 0.05093,0.096091 0.120914,0.1348304 0.152797,0.1809201 0.152797,0.2208851 0,0.023356 0.01834,0.042465 0.04075,0.042465 0.02241,0 0.04075,0.027503 0.04075,0.061118 0,0.033615 0.0275,0.061118 0.06112,0.061118 0.03443,0 0.06112,0.036434 0.06112,0.083437 0,0.04589 0.04584,0.1259188 0.101864,0.1778413 0.05603,0.051923 0.101864,0.1108248 0.101864,0.1308942 0,0.020069 0.04584,0.085925 0.101864,0.1463455 0.05602,0.060421 0.101865,0.1289916 0.101865,0.15238 0,0.023388 0.0275,0.042524 0.06112,0.042524 0.03362,0 0.06112,0.033559 0.06112,0.074577 0,0.041018 0.07308,0.1556149 0.162407,0.2546602 0.08932,0.099046 0.162667,0.2030026 0.162982,0.2310153 3.27e-4,0.028012 0.01891,0.050932 0.04132,0.050932 0.02241,0 0.04075,0.027503 0.04075,0.061118 0,0.033615 0.0275,0.061118 0.06112,0.061118 0.03362,0 0.06112,0.035097 0.06112,0.077993 0,0.042896 0.0625,0.1423474 0.138881,0.2210019 0.07638,0.078655 0.150962,0.1810746 0.165728,0.2275992 0.01477,0.046525 0.04395,0.08459 0.06484,0.08459 0.0209,0 0.038,0.027503 0.038,0.061118 0,0.033615 0.02303,0.061118 0.05117,0.061118 0.02815,0 0.07714,0.05959 0.10887,0.1324233 0.03173,0.072832 0.09094,0.1690945 0.131565,0.2139147 0.176061,0.1942362 0.238086,0.2807791 0.238086,0.3321997 0,0.030186 0.0275,0.054884 0.06112,0.054884 0.03361,0 0.06112,0.020817 0.06112,0.04626 0,0.025443 0.04584,0.088742 0.101864,0.1406641 0.05602,0.051923 0.101865,0.116097 0.101865,0.1426098 0,0.026512 0.04584,0.090687 0.101863,0.1426097 0.05602,0.051922 0.101864,0.1136157 0.101864,0.1370958 0,0.02348 0.0171,0.042692 0.038,0.042692 0.0209,0 0.04892,0.03438 0.06225,0.076406 0.01334,0.042022 0.08565,0.139629 0.160698,0.2169015 0.07505,0.077272 0.149114,0.1804058 0.164596,0.2291858 0.01548,0.04878 0.04525,0.088691 0.06615,0.088691 0.0209,0 0.038,0.019642 0.038,0.043658 0,0.054315 0.102838,0.1600718 0.155655,0.1600718 0.02158,0 0.05075,0.04584 0.06481,0.1018642 0.01406,0.056025 0.04355,0.1018643 0.06554,0.1018643 0.02198,0 0.03997,0.020753 0.03997,0.046125 0,0.025365 0.06185,0.1044555 0.137452,0.1757542 0.0756,0.071295 0.150176,0.169725 0.165728,0.2187255 0.01555,0.048997 0.04537,0.089092 0.06628,0.089092 0.0209,0 0.038,0.019073 0.038,0.042375 0,0.02331 0.07334,0.112146 0.162982,0.1974195 0.08964,0.085273 0.162983,0.1771245 0.162983,0.2041155 0,0.026993 0.06418,0.1151534 0.142609,0.1959154 0.07844,0.08076 0.142611,0.162363 0.142611,0.181336 0,0.01897 0.02552,0.03449 0.0567,0.03449 0.03119,0 0.0682,0.04584 0.08227,0.101864 0.01406,0.05602 0.04355,0.101865 0.06554,0.101865 0.02198,0 0.03997,0.01858 0.03997,0.04128 0,0.0227 0.09168,0.132477 0.203728,0.243939 0.11205,0.111462 0.203728,0.216839 0.203728,0.234169 0,0.01733 0.04584,0.08095 0.101864,0.141366 0.05602,0.06042 0.101864,0.128992 0.101864,0.152381 0,0.02338 0.0275,0.04252 0.06112,0.04252 0.03361,0 0.06112,0.01964 0.06112,0.04366 0,0.05416 0.102774,0.160073 0.15532,0.160073 0.0214,0 0.04968,0.03209 0.06285,0.0713 0.05022,0.149567 0.198905,0.336152 0.267871,0.336152 0.02401,0 0.04366,0.0275 0.04366,0.06112 0,0.03361 0.01834,0.06112 0.04075,0.06112 0.02241,0 0.04075,0.04584 0.04075,0.101864 0,0.05602 -0.01834,0.101863 -0.04075,0.101863 -0.02241,0 -0.04075,0.0275 -0.04075,0.06112 0,0.03361 -0.0275,0.06112 -0.06112,0.06112 -0.03362,0 -0.06112,0.01529 -0.06112,0.03397 0,0.01868 -0.07334,0.11341 -0.162982,0.210508 -0.08964,0.0971 -0.162983,0.200994 -0.162983,0.23088 0,0.02989 -0.01834,0.05434 -0.04075,0.05434 -0.02241,0 -0.04075,0.0275 -0.04075,0.06112 0,0.03361 -0.01964,0.06112 -0.04366,0.06112 -0.05642,0 -0.160072,0.10366 -0.160072,0.160072 0,0.02402 -0.0275,0.04366 -0.06112,0.04366 -0.03361,0 -0.06112,0.01911 -0.06112,0.04246 0,0.03997 -0.03188,0.08605 -0.152796,0.220885 -0.02801,0.03124 -0.05093,0.07644 -0.05093,0.10045 0,0.02402 -0.0275,0.04366 -0.06112,0.04366 -0.03361,0 -0.06112,0.018 -0.06112,0.04 0,0.02201 -0.06308,0.10496 -0.140181,0.184352 -0.0771,0.07939 -0.151677,0.18057 -0.165728,0.224842 -0.01405,0.04427 -0.04265,0.08049 -0.06355,0.08049 -0.0209,0 -0.038,0.0275 -0.038,0.06112 0,0.03362 -0.01964,0.06112 -0.04366,0.06112 -0.05434,0 -0.160073,0.102848 -0.160073,0.155712 0,0.02161 -0.0275,0.04985 -0.06112,0.06275 -0.03362,0.0129 -0.06161,0.04695 -0.06221,0.07566 -5.98e-4,0.02872 -0.09228,0.150924 -0.203728,0.271575 -0.11145,0.12065 -0.202636,0.253583 -0.202636,0.295406 0,0.04182 -0.01964,0.07604 -0.04366,0.07604 -0.04433,0 -0.160072,0.0992 -0.160072,0.137184 0,0.01142 -0.05501,0.08099 -0.122237,0.154601 -0.06723,0.07361 -0.122237,0.147748 -0.122237,0.164756 0,0.01701 -0.06418,0.09701 -0.142609,0.177773 -0.07844,0.08077 -0.14261,0.181947 -0.14261,0.224843 0,0.04289 -0.0275,0.07799 -0.06112,0.07799 -0.03361,0 -0.06112,0.02315 -0.06112,0.05145 0,0.0283 -0.04584,0.08587 -0.101864,0.127944 -0.05602,0.04208 -0.101864,0.102308 -0.101864,0.133854 0,0.03154 -0.04584,0.09984 -0.101865,0.151761 -0.05602,0.05192 -0.101863,0.115222 -0.101863,0.140664 0,0.02544 -0.01748,0.04626 -0.03884,0.04626 -0.02136,0 -0.06929,0.06418 -0.106507,0.14261 -0.03722,0.07843 -0.09309,0.14261 -0.124148,0.14261 -0.03107,0 -0.05647,0.0275 -0.05647,0.06112 0,0.03361 -0.01799,0.06112 -0.03997,0.06112 -0.02198,0 -0.05147,0.04584 -0.06554,0.101864 -0.01406,0.05602 -0.04191,0.101864 -0.0619,0.101864 -0.01998,0 -0.03633,0.0275 -0.03633,0.06112 0,0.03362 -0.0275,0.06112 -0.06112,0.06112 -0.03362,0 -0.06112,0.0275 -0.06112,0.06112 0,0.03362 -0.01834,0.06112 -0.04075,0.06112 -0.02241,0 -0.04075,0.03667 -0.04075,0.08149 0,0.04527 -0.02717,0.08149 -0.06112,0.08149 -0.03362,0 -0.06112,0.0275 -0.06112,0.06112 0,0.03362 -0.01834,0.06112 -0.04075,0.06112 -0.02241,0 -0.04075,0.02555 -0.04075,0.05676 0,0.03121 -0.0275,0.06731 -0.06112,0.08021 -0.03362,0.0129 -0.06112,0.0607 -0.06112,0.106224 0,0.04552 -0.02542,0.08277 -0.05648,0.08277 -0.03106,0 -0.08693,0.06418 -0.124149,0.14261 -0.03722,0.07844 -0.08515,0.142609 -0.106507,0.142609 -0.02136,0 -0.03883,0.0275 -0.03883,0.06112 0,0.03362 -0.01834,0.06112 -0.04075,0.06112 -0.02241,0 -0.04075,0.02554 -0.04075,0.05676 0,0.03121 -0.0275,0.06731 -0.06112,0.08021 -0.03362,0.0129 -0.06112,0.0607 -0.06112,0.106223 0,0.04552 -0.02441,0.08277 -0.05423,0.08277 -0.02983,0 -0.08025,0.05042 -0.112051,0.112051 -0.0318,0.06163 -0.07615,0.134333 -0.09856,0.161568 -0.02241,0.02723 -0.06367,0.07688 -0.09168,0.110331 -0.02801,0.03345 -0.05093,0.07796 -0.05093,0.09892 0,0.02096 -0.0275,0.04866 -0.06112,0.06156 -0.03362,0.0129 -0.06112,0.05241 -0.06112,0.08779 0,0.03539 -0.04584,0.106826 -0.101864,0.158748 -0.05603,0.05192 -0.101865,0.133557 -0.101865,0.18141 0,0.04785 -0.01964,0.08701 -0.04366,0.08701 -0.06896,0 -0.217652,0.186585 -0.267872,0.336151 -0.01317,0.03922 -0.04014,0.0713 -0.05993,0.0713 -0.0198,0 -0.03599,0.02554 -0.03599,0.05676 0,0.03121 -0.0275,0.06731 -0.06112,0.08021 -0.03362,0.0129 -0.06112,0.05241 -0.06112,0.0878 0,0.03538 -0.04584,0.106825 -0.101864,0.158748 -0.05603,0.05192 -0.101863,0.114276 -0.101863,0.138565 0,0.02428 -0.04584,0.09362 -0.101865,0.154073 -0.05602,0.06045 -0.101864,0.143907 -0.101864,0.185455 0,0.04155 -0.0275,0.07554 -0.06112,0.07554 -0.03362,0 -0.06112,0.0275 -0.06112,0.06112 0,0.03362 -0.01635,0.06112 -0.03633,0.06112 -0.01998,0 -0.04783,0.04584 -0.0619,0.101864 -0.01406,0.05603 -0.04355,0.101865 -0.06554,0.101865 -0.02198,0 -0.03997,0.0275 -0.03997,0.06112 0,0.03362 -0.0171,0.06112 -0.038,0.06112 -0.0209,0 -0.05065,0.03985 -0.06611,0.08854 -0.01546,0.0487 -0.06374,0.126626 -0.107299,0.173169 -0.04356,0.04654 -0.109474,0.148798 -0.146481,0.227234 -0.037,0.07843 -0.08198,0.160945 -0.09993,0.183355 -0.01796,0.02241 -0.06898,0.08481 -0.11338,0.138658 -0.04441,0.05385 -0.08074,0.12261 -0.08074,0.152796 0,0.03019 -0.01834,0.05488 -0.04075,0.05488 -0.02241,0 -0.04075,0.02554 -0.04075,0.05676 0,0.03121 -0.0275,0.06731 -0.06112,0.08021 -0.03362,0.0129 -0.06112,0.0607 -0.06112,0.106224 0,0.04552 -0.01834,0.08277 -0.04075,0.08277 -0.02241,0 -0.04075,0.0275 -0.04075,0.06112 0,0.03362 -0.01799,0.06112 -0.03997,0.06112 -0.02198,0 -0.05147,0.04584 -0.06554,0.101864 -0.02622,0.104464 -0.138969,0.144113 -0.138969,0.04887 z"
     id="path1244" /></svg>
