<?xml version="1.0" encoding="UTF-8" standalone="no"?><!-- Generator: Gravit.io --><svg xmlns="http://www.w3.org/2000/svg" xmlns:xlink="http://www.w3.org/1999/xlink" style="isolation:isolate" viewBox="0 0 24 24" width="24pt" height="24pt"><defs><clipPath id="_clipPath_X2aAphYNGobtNq2kJspXJGqwmTlVrfbW"><rect width="24" height="24"/></clipPath></defs><g clip-path="url(#_clipPath_X2aAphYNGobtNq2kJspXJGqwmTlVrfbW)"><clipPath id="_clipPath_3wyx7jlM81Ca9uqRv8KCp7w7bIKGWWQW"><rect x="0" y="0" width="24" height="24" transform="matrix(1,0,0,1,0,0)" fill="rgb(255,255,255)"/></clipPath><g clip-path="url(#_clipPath_3wyx7jlM81Ca9uqRv8KCp7w7bIKGWWQW)"><g><path d=" M 18.219 16.551 C 19.896 14.836 21.02 12.588 21.02 10.02 C 21.02 5.042 16.978 1 12 1 C 7.022 1 2.98 5.042 2.98 10.02 C 2.98 12.62 4.007 14.787 5.844 16.61 L 5.844 16.61 L 11.633 23 L 18.23 16.551 L 18.219 16.551 L 18.219 16.551 Z " fill="rgb(236,27,36)"/><path d=" M 17.435 15.799 C 18.901 14.273 19.883 12.273 19.883 9.988 C 19.883 5.559 16.351 1.963 12 1.963 C 7.649 1.963 4.117 5.559 4.117 9.988 C 4.117 12.302 5.014 14.23 6.62 15.852 L 6.62 15.852 L 11.679 21.537 L 17.445 15.799 L 17.435 15.799 Z " fill="rgb(255,255,255)"/></g></g></g></svg>