<?xml version="1.0" encoding="UTF-8" standalone="no"?>
<svg
   viewBox="0 0 24 24"
   width="24pt"
   height="24pt"
   version="1.1"
   id="svg1"
   sodipodi:docname="pink_master_pin.svg"
   xml:space="preserve"
   inkscape:version="1.4 (86a8ad7, 2024-10-11)"
   xmlns:inkscape="http://www.inkscape.org/namespaces/inkscape"
   xmlns:sodipodi="http://sodipodi.sourceforge.net/DTD/sodipodi-0.dtd"
   xmlns="http://www.w3.org/2000/svg"
   xmlns:svg="http://www.w3.org/2000/svg"><defs
     id="defs1" /><sodipodi:namedview
     id="namedview1"
     pagecolor="#ffffff"
     bordercolor="#000000"
     borderopacity="0.25"
     inkscape:showpageshadow="2"
     inkscape:pageopacity="0.0"
     inkscape:pagecheckerboard="0"
     inkscape:deskcolor="#d1d1d1"
     inkscape:document-units="pt"
     inkscape:zoom="4.0603397"
     inkscape:cx="-18.225076"
     inkscape:cy="95.681649"
     inkscape:window-width="1920"
     inkscape:window-height="974"
     inkscape:window-x="-11"
     inkscape:window-y="1609"
     inkscape:window-maximized="1"
     inkscape:current-layer="g1" /><path
     d=" M 18.219 16.551 C 19.896 14.836 21.02 12.588 21.02 10.02 C 21.02 5.042 16.978 1 12 1 C 7.022 1 2.98 5.042 2.98 10.02 C 2.98 12.62 4.007 14.787 5.844 16.61 L 5.844 16.61 L 11.633 23 L 18.23 16.551 L 18.219 16.551 Z"
     fill="#FF69B4"
     id="path1" /><g
     id="g1"
     transform="matrix(0.08614274,0,0,0.08614274,-177.55886,-44.232111)"><path
       d="m 2051.7153,1206.173 c 1.0944,-0 2.1888,-0.01 3.3164,-0.011 3.6091,-0.01 7.2179,-0 10.8269,0 2.5465,-0 5.093,-0 7.6395,-0.01 5.3504,-0 10.7008,0 16.0512,0.011 5.4157,0.01 10.8313,0.01 16.2471,0 51.7305,-0.089 51.7305,-0.089 73.5075,1.167 0.6957,0.04 1.3914,0.08 2.1082,0.1209 46.2802,2.7625 93.806,13.8511 126.7083,48.7228 26.7896,31.1074 36.9735,72.0124 34.0898,112.3657 -3.5906,40.0216 -19.5378,76.1499 -50.5742,102.4043 -43.102,34.8447 -101.6463,41.9248 -155.2032,37.48 -2.3345,-0.3246 -4.6681,-0.6567 -7,-1 0,0.7039 0.01,1.4077 0.01,2.1329 0.066,17.1438 0.116,34.2876 0.1471,51.4315 0.015,8.2908 0.037,16.5814 0.071,24.8721 0.03,7.2281 0.049,14.4561 0.056,21.6843 0,3.8255 0.013,7.6509 0.035,11.4763 0.02,3.605 0.027,7.2097 0.022,10.8147 0,1.9451 0.017,3.8902 0.034,5.8352 -0.023,6.6189 -0.3701,11.7984 -3.3732,17.753 -5.4609,4.437 -9.8619,5.1508 -16.6809,5.1612 -0.7809,0 -1.5617,0.01 -2.3662,0.015 -2.5846,0.015 -5.1691,0.021 -7.7537,0.027 -1.7974,0.01 -3.5948,0.012 -5.3922,0.017 -3.7702,0.011 -7.5404,0.016 -11.3107,0.02 -4.8254,0.01 -9.6504,0.03 -14.4757,0.058 -3.7138,0.019 -7.4276,0.024 -11.1414,0.025 -1.7786,0 -3.5572,0.011 -5.3357,0.024 -2.4917,0.017 -4.9827,0.015 -7.4744,0.01 -0.7312,0.01 -1.4623,0.018 -2.2156,0.028 -5.8285,-0.047 -9.8122,-1.5132 -14.1035,-5.4469 -5.22,-8.7621 -4.0329,-19.9915 -4.004,-29.859 -0,-1.7167 -0.01,-3.4334 -0.01,-5.1501 -0.01,-4.6993 -0,-9.3985 0,-14.0977 0,-5.0751 -0,-10.1501 -0.01,-15.2252 -0.01,-9.9352 -0.01,-19.8704 -0,-29.8056 0,-8.076 0.01,-16.152 0,-24.2281 -3e-4,-1.15 -6e-4,-2.3 -9e-4,-3.4849 -7e-4,-2.3363 -0,-4.6727 -0,-7.009 -0.01,-21.9022 8e-4,-43.8044 0.012,-65.7065 0.01,-18.7855 0.01,-37.571 -0,-56.3565 -0.011,-21.823 -0.015,-43.646 -0.01,-65.4689 6e-4,-2.328 0,-4.656 0,-6.984 3e-4,-1.1454 6e-4,-2.2908 9e-4,-3.4709 0,-8.0641 -0,-16.1281 -0.01,-24.1922 -0.01,-9.8308 -0,-19.6614 0.01,-29.4922 0.01,-5.014 0.01,-10.0279 7e-4,-15.0419 -0.01,-4.5935 -0,-9.187 0.01,-13.7806 0,-1.658 0,-3.3161 -0,-4.9741 -0.06,-22.1635 -0.06,-22.1635 4.3236,-28.6726 6.8934,-4.5471 15.2182,-4.2286 23.2199,-4.1967 z m 77.7175,81.2588 c 0,46.2 0,92.4 0,140 4.2995,1.0749 8.2557,1.162 12.6485,1.168 1.2735,0.01 1.2735,0.01 2.5726,0.01 1.8005,0.01 3.601,0.01 5.4015,0.01 2.708,0 5.4156,0.02 8.1235,0.039 22.5073,0.076 43.893,-2.8421 60.8985,-18.8457 14.5049,-14.6492 18.6147,-34.102 18.6042,-54.1626 -0.2652,-18.8176 -5.3445,-36.0085 -18.4987,-49.9038 -23.4628,-22.4104 -60.4972,-18.3125 -89.7501,-18.3125 z"
       fill="#8cc63f"
       id="path3" /><path
       d="m 1738.6912,1208.6852 c 1.0649,-0 1.0649,-0 2.1513,-0.011 2.3261,-0.01 4.6518,-0 6.9778,0 1.63,-10e-4 3.2599,-0 4.8898,-0.01 3.4085,-0 6.8168,10e-4 10.2252,0.011 4.352,0.011 8.7037,0.01 13.0556,-0.01 3.3639,-0.01 6.7278,-0.01 10.0917,3e-4 1.6038,10e-4 3.2077,-3e-4 4.8115,-0.01 2.2489,-0 4.4974,0 6.7463,0.014 1.9136,0 1.9136,0 3.8658,0 6.432,0.4386 12.0698,1.4625 16.7243,6.2539 1.8897,3.8113 2.2491,6.8995 2.2461,11.1282 0,1.2396 0.01,2.4792 0.012,3.7564 -0.01,1.3726 -0.012,2.7453 -0.018,4.118 9e-4,1.4603 0,2.9207 0.01,4.3811 0,4.0135 0,8.0269 -0.014,12.0403 -0.01,4.3279 -0.01,8.6557 0,12.9835 0,7.4985 -0.01,14.9969 -0.017,22.4954 -0.016,10.8415 -0.021,21.683 -0.024,32.5245 0,17.5892 -0.018,35.1785 -0.037,52.7677 -0.018,17.0873 -0.033,34.1745 -0.041,51.2617 -5e-4,1.0531 0,2.1062 0,3.1912 0,5.2831 -0.01,10.5661 -0.01,15.8491 -0.021,43.8344 -0.056,87.6687 -0.1007,131.503 0.7845,0 1.5689,-0.01 2.3772,-0.011 19.114,-0.089 38.2279,-0.1546 57.342,-0.1961 9.2436,-0.021 18.487,-0.049 27.7305,-0.094 8.0595,-0.04 16.1188,-0.066 24.1784,-0.075 4.2649,-0.01 8.5296,-0.017 12.7945,-0.047 4.0203,-0.027 8.0402,-0.035 12.0605,-0.029 1.4697,-10e-4 2.9394,-0.01 4.4091,-0.024 8.9023,-0.089 18.0042,-0.1091 24.9883,6.1665 5.1161,5.6524 6.183,13.1333 7.682,20.3728 0.2901,1.3369 0.5819,2.6734 0.8753,4.0095 0.5883,2.6915 1.1655,5.3849 1.7351,8.0804 0.7529,3.5021 1.5532,6.9877 2.3818,10.4726 5.7026,24.2284 5.7026,24.2284 1.8828,32.9375 -5.3711,5.3711 -9.7719,6.8892 -17.1966,6.9678 -0.9988,-0.01 -1.9977,-0.019 -3.0268,-0.029 -1.0757,0.01 -2.1514,0.011 -3.2597,0.017 -3.5991,0.014 -7.1974,-0 -10.7964,-0.016 -2.5824,0 -5.1648,0.01 -7.7472,0.016 -6.2824,0.014 -12.5645,0.01 -18.8469,-0.01 -7.3181,-0.017 -14.6362,-0.014 -21.9543,-0.01 -13.058,0.01 -26.1158,-0.01 -39.1738,-0.033 -12.6673,-0.024 -25.3346,-0.031 -38.0019,-0.021 -13.7995,0.011 -27.5989,0.013 -41.3984,-10e-4 -1.4716,0 -2.9433,0 -4.4149,0 -1.0861,-10e-4 -1.0861,-10e-4 -2.1941,0 -5.0999,0 -10.1997,0 -15.2995,0 -6.8643,0 -13.7285,-0.01 -20.5928,-0.027 -2.5211,-0.01 -5.0423,-0.01 -7.5634,-10e-4 -3.4375,0.01 -6.8744,-0.01 -10.3118,-0.024 -1.0011,0.01 -2.0022,0.012 -3.0336,0.018 -6.4594,-0.059 -10.613,-1.1466 -15.8754,-5.0934 -3.8629,-5.1046 -4.0002,-11.6935 -4.0044,-17.8806 0,-0.7211 -0.01,-1.4421 -0.01,-2.1849 -0.01,-2.4047 0,-4.8092 0,-7.2139 0,-1.746 -0.01,-3.492 -0.012,-5.238 -0.01,-4.7893 -0.01,-9.5786 0,-14.368 0,-5.1684 -0.01,-10.3369 -0.014,-15.5053 -0.013,-10.1216 -0.014,-20.2432 -0.012,-30.3648 0,-8.2258 10e-5,-16.4517 0,-24.6775 -6e-4,-1.1705 0,-2.3411 0,-3.5472 0,-2.378 0,-4.756 0,-7.134 -0.011,-22.3002 -0.01,-44.6005 0,-66.9008 0.01,-20.4057 -0.01,-40.8114 -0.025,-61.217 -0.019,-20.9508 -0.028,-41.9015 -0.024,-62.8522 0,-11.7631 -5e-4,-23.5261 -0.015,-35.2891 -0.012,-10.0124 -0.013,-20.0247 0,-30.0371 0.01,-5.1088 0.01,-10.2175 0,-15.3263 -0.011,-4.6768 -0.01,-9.3534 0.01,-14.0302 0,-1.6917 3e-4,-3.3834 -0.01,-5.0751 -0.083,-18.8084 -0.083,-18.8084 5.6358,-24.8448 5.4981,-3.2489 10.9138,-3.8759 17.2107,-3.8837 z"
       fill="#00652e"
       id="path10" /></g></svg>
