<?xml version="1.0" encoding="UTF-8" standalone="no"?>
<svg
   viewBox="0 0 30 30"
   width="30pt"
   height="30pt"
   version="1.1"
   id="svg133"
   sodipodi:docname="pink_master_pin_2_layers_all.svg"
   inkscape:version="1.2.2 (732a01da63, 2022-12-09)"
   xmlns:inkscape="http://www.inkscape.org/namespaces/inkscape"
   xmlns:sodipodi="http://sodipodi.sourceforge.net/DTD/sodipodi-0.dtd"
   xmlns="http://www.w3.org/2000/svg"
   xmlns:svg="http://www.w3.org/2000/svg">
  <defs
     id="defs137" />
  <sodipodi:namedview
     id="namedview135"
     pagecolor="#ffffff"
     bordercolor="#000000"
     borderopacity="0.25"
     inkscape:showpageshadow="2"
     inkscape:pageopacity="0.0"
     inkscape:pagecheckerboard="0"
     inkscape:deskcolor="#d1d1d1"
     inkscape:document-units="pt"
     showgrid="false"
     inkscape:zoom="17.093164"
     inkscape:cx="15.883542"
     inkscape:cy="20.768536"
     inkscape:window-width="1920"
     inkscape:window-height="1009"
     inkscape:window-x="1912"
     inkscape:window-y="-8"
     inkscape:window-maximized="1"
     inkscape:current-layer="svg133" />
  <path
     d="m 23.684087,21.033601 c 2.295986,-2.285978 3.834857,-5.282407 3.834857,-8.705374 0,-6.6353319 -5.533915,-12.02304002 -12.349311,-12.02304002 -6.8153965,0 -12.3493124,5.38770812 -12.3493124,12.02304002 0,3.46562 1.4060691,6.354084 3.921112,8.784017 v 0 l 7.9257384,8.51743 9.031975,-8.596073 z"
     fill="#FF69B4"
     id="path2"
     style="stroke-width:1.35089" />
  <path
     style="fill:#FFFFFF;fill-opacity:1;stroke-width:1.93856"
     id="path2045"
     d="M 26.489748,12.202653 A 11.261761,11.218336 0 0 1 15.249984,23.420968 11.261761,11.218336 0 0 1 3.9663104,12.246481 11.261761,11.218336 0 0 1 15.16199,0.98451094 11.261761,11.218336 0 0 1 26.489404,12.114998" />
  <path
     style="fill:#FF69B4;fill-opacity:1;stroke-width:4.16073"
     id="path2106"
     d="M 26.083535,12.158323 A 10.870929,10.798553 0 0 1 15.23384,22.956855 10.870929,10.798553 0 0 1 4.3417616,12.200511 10.870929,10.798553 0 0 1 15.148901,1.3599589 10.870929,10.798553 0 0 1 26.083201,12.073949" />
</svg>
