<?xml version="1.0" encoding="UTF-8" standalone="no"?>
<svg
   viewBox="0 0 24 24"
   width="24pt"
   height="24pt"
   version="1.1"
   id="svg1"
   sodipodi:docname="pink_master_pin.svg"
   xml:space="preserve"
   xmlns:inkscape="http://www.inkscape.org/namespaces/inkscape"
   xmlns:sodipodi="http://sodipodi.sourceforge.net/DTD/sodipodi-0.dtd"
   xmlns="http://www.w3.org/2000/svg"
   xmlns:svg="http://www.w3.org/2000/svg"><defs
     id="defs1" /><sodipodi:namedview
     id="namedview1"
     pagecolor="#ffffff"
     bordercolor="#000000"
     borderopacity="0.25"
     inkscape:showpageshadow="2"
     inkscape:pageopacity="0.0"
     inkscape:pagecheckerboard="0"
     inkscape:deskcolor="#d1d1d1"
     inkscape:document-units="pt"
     showgrid="false" /><path
     d=" M 18.219 16.551 C 19.896 14.836 21.02 12.588 21.02 10.02 C 21.02 5.042 16.978 1 12 1 C 7.022 1 2.98 5.042 2.98 10.02 C 2.98 12.62 4.007 14.787 5.844 16.61 L 5.844 16.61 L 11.633 23 L 18.23 16.551 L 18.219 16.551 Z"
     fill="#FF69B4"
     id="path1" /><g
     id="g1"
     transform="matrix(0.75,0,0,0.75,-454.5,-301.125)"><path
       d="M 0,0 H 1200 V 821 H 0 Z"
       fill="#ee3224"
       id="path1-9"
       sodipodi:nodetypes="ccccc" /><path
       d="m 0,0 c 3.3117937,2.8069104 6.2257357,5.574103 8.6523438,9.1992188 v 2.0000002 h 2.0000002 c 0.09797,-0.652266 0.195937,-1.3045315 0.296875,-1.9765627 1.178405,-6.8875762 2.71669,-11.5971501 8.325927,-16.1542969 3.995358,-2.2112669 7.214786,-2.4490022 11.662354,-2.4003907 0.77871,-0.00383 1.557419,-0.00765 2.359726,-0.011597 1.637998,-0.00271 3.276041,0.00458 4.913956,0.021362 2.500251,0.021455 4.997639,1.538e-4 7.497802,-0.025391 1.597012,0.00264 3.194022,0.00777 4.791016,0.015625 l 2.250992,-0.024536 c 4.911194,0.088335 7.459034,1.0483803 10.901352,4.5557862 5.541798,11.0835967 -2.103971,29.0226871 -5,40.0000001 l -0.678223,2.572754 c -0.794993,3.004761 -1.592265,6.008889 -2.397324,9.010971 -1.620631,6.10423 -3.047576,12.240977 -4.440078,18.40065 -3.921913,17.139122 -8.126354,34.20835 -12.359864,51.272707 -0.91635,3.69652 -1.825217,7.39476 -2.727539,11.09473 -17.985525,73.70168 -17.985525,73.70168 -38.3969723,100.64819 -0.6097265,0.82887 -1.2194531,1.65773 -1.8476562,2.51172 -16.4702785,21.54326 -38.2211005,35.35083 -65.0544435,40.08252 -5.649679,0.73999 -11.283585,0.6929 -16.9729,0.65576 -1.765371,0.0116 -1.765371,0.0116 -3.566406,0.0234 -22.359718,-0.0492 -45.199148,-5.55195 -62.558598,-20.27344 -1.54687,-1.14469 -1.54687,-1.14469 -3.125,-2.3125 -5.10404,-4.77118 -10.72837,-11.80188 -11,-19 1.91301,-6.2704 6.39927,-9.08503 11.90235,-12.32031 19.10999,-9.99445 19.10999,-9.99445 28.22265,-8.36719 4.1248,1.77842 8.05615,3.85454 12,6 1.43332,0.75796 2.87023,1.50922 4.3125,2.25 0.55301,0.2939 1.10602,0.58781 1.67578,0.89062 6.02458,2.57361 11.506347,3.17462 17.949224,3.10938 0.759902,0.008 1.519804,0.0155 2.302734,0.0234 15.425818,-0.0527 28.445536,-6.99849 39.240235,-17.74219 9.118333,-10.42095 14.717473,-23.3241 18.519531,-36.53125 -0.727031,0.56267 -0.727031,0.56267 -1.46875,1.13672 -18.242044,13.9271 -37.653837,18.81595 -60.53125,16.86328 -14.645184,-2.05052 -26.712044,-8.58298 -37.000004,-19 -0.57492,-0.55301 -1.14984,-1.10602 -1.74218,-1.67578 -13.22269,-13.80504 -12.82913,-33.51422 -12.56641,-51.32813 0.29254,-9.02263 1.72046,-17.364033 4.30859,-25.996092 0.23606,-0.792451 0.47212,-1.584903 0.71534,-2.401367 7.24136,-23.577615 18.42166,-44.735451 34.28466,-63.598633 l 1.54688,-1.917969 C -78.807371,-9.9365315 -32.280086,-24.760599 0,0 Z"
       fill="#fefdfd"
       transform="translate(646.34766,263.80078)"
       id="path2"
       sodipodi:nodetypes="cccccccccccccccccccccccccccccccccccccccccccccc" /><path
       d="m 0,0 c 5.4472732,1.615264 10.673147,3.8912882 15.902954,6.0940857 3.55328,1.4960101 7.122442,2.952276 10.690857,4.4117283 1.82646,0.747591 3.652101,1.497182 5.476929,2.248748 8.346255,3.43557 16.744053,6.722749 25.17926,9.932938 l 2.07843,0.791809 C 99.586122,38.790365 140.42228,53.664062 182,65 c 0.90138,0.247178 1.80275,0.494355 2.73145,0.749023 C 200.43486,70.047277 216.17661,74.166174 232,78 c 0.87447,0.213662 1.74894,0.427324 2.6499,0.647461 16.62493,4.032764 33.43816,7.071397 50.28742,9.994018 1.36844,0.237853 2.73657,0.4775 4.10437,0.718995 13.97159,2.461463 28.01051,4.357221 42.08331,6.139526 l 3.67038,0.465881 c 23.7991,2.987521 47.58476,4.807819 71.53983,5.907379 2.6273,0.12496 5.25332,0.26607 7.87963,0.41019 17.87846,0.93689 35.76267,0.91705 53.66016,0.90405 l 2.49415,-8.1e-4 c 41.81234,-0.017 83.33663,-1.22446 124.91643,-5.884566 2.78645,-0.310141 5.57379,-0.611008 8.36139,-0.910522 40.30673,-4.366884 80.35099,-11.146202 119.53614,-21.655274 3.70597,-0.96873 7.43259,-1.831616 11.16552,-2.689453 10.08764,-2.318484 19.97078,-5.103622 29.85254,-8.177246 3.1234,-0.970477 6.24995,-1.930374 9.37695,-2.88916 5.43845,-1.668479 10.87537,-3.341802 16.31006,-5.022461 2.03256,-0.625745 4.06668,-1.246416 6.10254,-1.861328 C 844.80604,39.294767 896.30431,22.847846 942,0 c 4.88575,-0.47306432 9.40809,-0.9044915 13.75,1.5625 C 957,4 957,4 957.25,7.3125 c -2.90679,8.575036 -12.77118,13.113634 -20.1875,17.5 l -3.09521,1.854004 c -2.05146,1.226755 -4.10513,2.449827 -6.16114,3.668945 -2.3618,1.400972 -4.71661,2.812417 -7.06787,4.230957 C 871.08565,64.359233 818.48113,88.209309 763.9375,107.5 c -0.68967,0.24408 -1.37934,0.48815 -2.0899,0.73962 -9.88075,3.48425 -19.83421,6.68039 -29.8476,9.76038 -2.12523,0.66594 -4.25027,1.33247 -6.375,2 -5.85612,1.79965 -11.7481,3.45364 -17.65576,5.07422 -0.70012,0.19207 -1.40025,0.38414 -2.12158,0.58203 -1.12995,0.30938 -1.12995,0.30938 -2.28272,0.625 -1.88199,0.52737 -3.75932,1.07146 -5.63379,1.625 -9.40088,2.76187 -18.86337,4.99723 -28.43115,7.09375 -0.79191,0.17464 -1.58381,0.34928 -2.39972,0.52921 C 654.4464,138.31613 641.78016,140.85817 629,143 c -2.4206,0.41388 -4.84118,0.82795 -7.26172,1.24219 C 614.16449,145.53005 606.58482,146.77882 599,148 c -1.42844,0.23034 -1.42844,0.23034 -2.88574,0.46533 -15.53633,2.46521 -31.1684,3.99784 -46.83673,5.33747 -2.31949,0.20083 -4.6381,0.41011 -6.95673,0.62054 -24.08407,2.15752 -48.08955,2.85261 -72.2583,2.82666 -0.67503,-3.3e-4 -1.35005,-6.7e-4 -2.04553,-0.001 -21.63855,-0.0143 -43.14863,-0.55783 -64.70447,-2.49899 -0.69484,-0.0621 -1.38969,-0.12427 -2.10559,-0.18829 C 371.6454,151.8963 342.202,148.34154 313,143 c -1.19399,-0.21205 -2.38799,-0.4241 -3.61816,-0.64258 -29.95187,-5.33859 -59.82575,-12.19454 -88.78882,-21.55078 -3.07874,-0.95774 -6.17682,-1.83164 -9.28052,-2.70508 C 172.68323,107.13594 135.16692,92.069403 98.907043,74.901733 97.013843,74.006545 95.118349,73.116395 93.222168,72.227539 66.769776,59.811057 41.15476,46.050468 16.166992,30.913574 13.070822,29.042793 9.9623651,27.193974 6.8515625,25.347656 4.9628668,24.212059 3.0748093,23.0754 1.1875,21.9375 L -1.3806152,20.42334 C -6.347317,17.391038 -10.996466,14.112931 -14,9 -14.0625,5.1875 -14.0625,5.1875 -13,2 -8.5432108,-0.97119282 -5.2437351,-0.82403791 0,0 Z"
       fill="#fefdfd"
       transform="translate(115,508)"
       id="path3"
       sodipodi:nodetypes="cccccccccccccccccccccccccccccccccccccscccccccccccccccccccccccccccc" /><path
       d="M 0,0 2.1997376,-0.0291748 C 17.556664,-0.20347101 17.556664,-0.20347101 23.9375,3.3125 c 3.965314,3.9407836 4.742523,7.514708 5.15625,12.90625 l 0.221558,2.373901 c 0.230813,2.571938 0.430699,5.144699 0.622192,7.719849 0.0991,1.300825 0.0991,1.300825 0.200195,2.62793 0.493199,6.62052 0.903228,13.245166 1.299805,19.87207 0.12945,2.113039 0.258927,4.226076 0.388428,6.339111 0.916782,15.131093 1.706761,30.266919 2.377197,45.410889 0.990324,22.27352 2.25798,44.53451 3.538177,66.793 3.585413,62.36338 3.585413,62.36338 3.633698,84.3945 0.0089,1.14334 0.0089,1.14334 0.01788,2.30978 0.06855,12.68008 0.06855,12.68008 -3.455383,16.25272 -2.830137,0.94338 -4.639001,1.14145 -7.575684,1.177 -0.92461,0.0128 -1.84922,0.0257 -2.801849,0.0389 -1.495348,0.0111 -1.495348,0.0111 -3.020905,0.0224 -1.02711,0.008 -2.054221,0.0161 -3.112457,0.0245 -2.17376,0.0138 -4.347542,0.0246 -6.521332,0.0324 -3.323008,0.0172 -6.6450272,0.0611 -9.967773,0.10522 -2.1119719,0.0101 -4.22395216,0.0186 -6.3359375,0.0254 -0.99285,0.0175 -1.9857001,0.035 -3.0086365,0.0531 -4.3044,-0.0135 -6.925145,-0.0523 -10.69693,-2.25545 -12.432726,-14.11429 -4.637559,-38.8184 -4.958496,-54.22339 H -118.0625 l -2,5 c -1.08367,2.02208 -2.20168,4.02595 -3.34375,6.01562 -0.48819,0.85347 -0.48819,0.85347 -0.98625,1.72417 -1.05316,1.83878 -2.11119,3.67468 -3.17,5.51021 -0.72771,1.26501 -1.45533,2.53006 -2.18286,3.79517 -1.44026,2.50266 -2.88302,5.00386 -4.32739,7.50415 -1.70767,2.96149 -3.40409,5.92894 -5.09522,8.8999 -0.86009,1.49643 -1.72071,2.99256 -2.58203,4.48828 -0.37254,0.65968 -0.74508,1.31936 -1.12891,1.99902 -2.83117,4.86932 -5.69298,9.23328 -11.18359,11.06348 -1.68126,0.10231 -3.36622,0.14843 -5.05054,0.16113 -1.02794,0.01 -2.05588,0.0192 -3.11497,0.0291 -1.10941,0.004 -2.21881,0.009 -3.36183,0.0129 -1.7107,0.009 -1.7107,0.009 -3.45595,0.0173 -2.41336,0.009 -4.82673,0.016 -7.2401,0.0198 -3.69595,0.01 -7.39134,0.0408 -11.08716,0.0723 -2.34309,0.007 -4.68619,0.0118 -7.02929,0.0156 -1.10738,0.0123 -2.21476,0.0247 -3.3557,0.0374 -1.0311,-0.003 -2.06219,-0.006 -3.12453,-0.009 -0.90584,0.004 -1.81169,0.007 -2.74498,0.011 -2.91956,-0.44063 -4.29008,-1.37251 -6.43495,-3.36749 -1.28603,-3.98022 -0.46991,-7.84109 1.07031,-11.63965 1.54422,-2.9798 3.20632,-5.85543 4.92969,-8.73535 0.62793,-1.08362 1.25587,-2.16724 1.90283,-3.28369 1.67562,-2.88058 3.36776,-5.74979 5.07141,-8.61377 1.66198,-2.79904 3.30723,-5.60789 4.95545,-8.41504 3.32491,-5.64633 6.67832,-11.27524 10.03808,-16.90088 2.02291,-3.39597 4.03357,-6.79888 6.04004,-10.20459 12.49562,-21.2007 25.35735,-42.16369 38.55225,-62.93603 1.49114,-2.35175 2.97613,-4.70729 4.45947,-7.06397 21.68652,-34.452517 43.74436,-69.086043 68.574705,-101.374999 1.446033,-1.884513 2.877047,-3.779881 4.308106,-5.675781 C -50.724673,11.070628 -42.877605,3.4262092 -27,1.0625 -18.042253,0.05186056 -9.0039534,0.06838228 0,0 Z"
       fill="#fefefd"
       transform="translate(312.0625,173.6875)"
       id="path4"
       sodipodi:nodetypes="ccccccccccccccccccccccccccccccccccccccccccccccccccccccccccc" /><path
       d="m 0,0 c 13.571383,12.651762 21.335581,29.890232 22.226562,48.347656 0.918821,36.368686 -11.274147,71.603114 -36.179443,98.332034 -18.591192,19.31687 -46.779325,33.7724 -73.945328,34.43489 -2.814236,0.0355 -5.627243,0.0378 -8.441635,0.0212 -2.150028,-0.0107 -4.299216,-6e-5 -6.449216,0.0127 -11.44494,0.0134 -22.72158,-0.70088 -33.46094,-4.96094 -1.00438,-0.38865 -1.00438,-0.38865 -2.02905,-0.78516 -6.10399,-2.45768 -11.5376,-5.63336 -16.84595,-9.52734 -0.63035,-0.4473 -1.2607,-0.89461 -1.91016,-1.35547 -13.12748,-10.19698 -20.71179,-27.29352 -22.87011,-43.48096 -3.42118,-33.687155 6.62716,-67.75702 27.4834,-94.366695 18.77868,-22.8665595 44.81275,-39.950812 74.79687,-43.355469 C -50.804385,-19.167909 -21.84536,-17.752048 0,0 Z"
       fill="#fefdfd"
       transform="translate(887.125,267.125)"
       id="path5"
       sodipodi:nodetypes="cccccccccccccc" /><path
       d="M 0,0 2.828125,1.2695312 C 13.51732,6.568318 24.583935,15.610231 29,27 c 0.737224,3.209998 1.177358,5.889235 0,9 -4.173034,4.096348 -8.696742,6.616179 -13.9375,9.125 l -2.052734,1.011719 C -2.6552005,53.796482 -2.6552005,53.796482 -9,52 -12.695443,49.363723 -15.786422,46.193238 -19,43 -28.502604,34.603864 -38.428998,30.581613 -51.148437,30.71875 -56.995384,31.295435 -61.311505,33.828391 -66.0625,37.125 -68.924444,41.371756 -68.943669,45.03374 -68,50 c 5.666188,10.52292 20.334886,13.189695 30.976563,16.4375 19.753373,6.068483 39.9482779,13.15365 50.867187,32.007812 5.769672,12.747858 4.268713,27.179568 -0.429687,39.999998 -8.0888917,20.33396 -22.5833685,34.18619 -42.503907,42.92188 -28.96079,12.26119 -63.054445,14.34967 -92.624996,2.87109 -15.06922,-6.33199 -26.44917,-16.07679 -33.72266,-30.92578 -1.59297,-3.91003 -2.2158,-7.06604 -1.5625,-11.3125 3.06176,-4.77821 6.88826,-7.00436 11.75,-9.625 0.67805,-0.38156 1.35609,-0.76313 2.05469,-1.15625 5.80449,-3.2002 12.10129,-6.66896 18.88281,-6.59375 0.70512,-0.008 1.41023,-0.0155 2.13672,-0.0234 5.45167,0.99833 8.44634,4.62755 11.86328,8.71094 8.03963,9.07158 17.467049,14.14252 29.609375,14.89062 C -69.808852,148.35101 -60.731136,146.87602 -52,140 c 3.910387,-4.31145 5.387287,-6.99027 5.269531,-12.91016 -0.535406,-4.15133 -2.679492,-6.72461 -5.789062,-9.39453 C -60.880949,111.82957 -71.741792,109.54963 -81.5,107 c -19.05317,-5.00146 -40.13842,-11.420333 -51.125,-29.1875 -4.56107,-10.080991 -4.29195,-24.584256 -0.75,-35 0.74784,-1.625061 1.53957,-3.230683 2.375,-4.8125 0.4009,-0.881719 0.8018,-1.763438 1.21484,-2.671875 C -120.34396,15.953157 -101.53672,4.3315725 -81.8125,-2.6875 -55.575982,-11.13316 -25.330839,-11.451377 0,0 Z"
       fill="#fefdfd"
       transform="translate(1060,257)"
       id="path6"
       sodipodi:nodetypes="cccccccccccccccccccccccccccccccccc" /><path
       d="m 0,0 2.5772705,-0.01298523 c 1.7953604,-0.0057343 3.5907441,-0.0062502 5.3861084,-0.0019074 2.7456831,0.0031627 5.4902901,-0.02031908 8.2358401,-0.0456543 1.746092,-0.0022728 3.492187,-0.0029766 5.238281,-0.0019531 l 2.484497,-0.02790833 c 3.365584,0.0273106 5.836273,0.13868531 8.81897,1.77424626 1.477783,1.6169434 1.477783,1.6169434 1.903564,3.8513183 -0.03738,0.8301563 -0.07476,1.6603125 -0.113281,2.5156251 -0.0348,0.8791406 -0.06961,1.7582812 -0.105469,2.6640627 -0.259039,3.235551 -0.650861,6.387962 -1.207031,9.585937 l 1.476562,-1.285156 C 53.630499,3.351062 76.695689,-0.08628605 100.49097,0.04003906 c 2.45052,0.0108989 4.90033,-5.51e-5 7.35083,-0.01269531 1.56706,0.0013188 3.13411,0.0038755 4.70117,0.0078125 l 2.20622,-0.01226807 c 3.70709,0.03460615 5.30181,0.16606221 8.46956,2.27789312 0.49219,2.3124999 0.49219,2.3124999 0,4.9999999 -2.05469,2.4375001 -2.05469,2.4375001 -4.875,4.9999998 -8.05159,7.607542 -14.371,16.214884 -20.375,25.5 -4.010245,6.116228 -7.656155,10.128571 -14.75,12.5 -2.057271,0.192783 -4.122212,0.310846 -6.1875,0.375 -13.873798,0.859826 -29.816465,3.154393 -40,13.5 C 27.9439,76.01047 23.530838,90.797907 20.695312,105.18359 l -0.69107,3.4282 c -0.725516,3.60361 -1.4434,7.20869 -2.160492,10.81399 -0.942681,4.71147 -1.888619,9.42228 -2.835937,14.13281 l -0.701508,3.49497 c -1.913465,9.4894 -3.948193,18.94942 -6.0328675,28.40249 -1.1761014,5.35218 -2.2478769,10.72095 -3.28125,16.10254 -0.8648914,3.06644 -1.8353665,5.20779 -3.7734375,7.74219 -4.6649952,2.60691 -9.5204752,2.34009 -14.71875,2.37109 -0.935497,0.009 -1.870994,0.0181 -2.834839,0.0274 -1.973478,0.0145 -3.947004,0.0234 -5.920532,0.0271 -3.015956,0.0119 -6.029884,0.0612 -9.04541,0.11157 -1.920563,0.009 -3.841139,0.0167 -5.761719,0.0215 -0.899081,0.0195 -1.798162,0.0391 -2.724487,0.0592 -4.174123,-0.03 -6.499286,-0.32931 -10.164185,-2.46519 -2.849982,-4.90953 -1.812682,-8.70249 -0.830078,-14.15259 l 0.349361,-1.98301 c 1.005923,-5.6558 2.127237,-11.28702 3.256108,-16.91933 0.365773,-1.84526 0.731106,-3.6906 1.096023,-5.53603 0.765716,-3.86621 1.535138,-7.73166 2.307541,-11.59654 0.972297,-4.8654 1.937917,-9.7321 2.901063,-14.59932 3.599058,-18.18228 7.242833,-36.350047 11.17401,-54.463776 1.831435,-8.445402 3.515839,-16.907421 5.103394,-25.401993 1.499446,-8.021827 3.086635,-15.965282 5.163574,-23.859863 0.653882,-2.660299 1.141236,-5.312859 1.586426,-8.015137 0.933432,-4.7983016 2.532616,-8.808303 6.646484,-11.7624509 C -7.5257817,-0.14743716 -3.8518201,-0.0042818 0,0 Z"
       fill="#fefdfd"
       transform="translate(417.78125,254.69922)"
       id="path7"
       sodipodi:nodetypes="cccccccccccccccccccccccccccccccccccccccccccccccccc" /><path
       d="m 0,0 c 4.7621423,3.3532245 7.9899798,7.2412944 10.417969,12.519531 1.694263,11.671588 0.123435,22.511595 -2.4375003,33.875 L 7.359375,49.183594 c -5.602524,22.479692 -15.0126844,45.662197 -35.304687,58.421876 -10.58676,5.83039 -23.365395,7.54185 -35.160157,5.16797 -7.495594,-2.31029 -12.079234,-6.45932 -15.972412,-13.215579 -6.113341,-14.044676 0.620395,-34.501869 5.05835,-48.16333 l 0.842285,-2.627441 c 5.857549,-17.908934 14.161577,-36.87153 31.630371,-46.157715 l 2.527344,-1.2148438 2.371094,-1.2460937 C -26.363254,-4.48872 -10.240891,-5.1295081 0,0 Z"
       fill="#ee3325"
       transform="translate(843.01953,293.60547)"
       id="path8"
       sodipodi:nodetypes="ccccccccccccc" /><path
       d="M 0,0 C 5.7939831,4.9647327 8.5743975,9.8691257 9.2109375,17.542969 10.101121,42.913184 -0.63852716,74.959998 -16.96875,94.335937 -21.40031,99.066452 -26.109516,102.32343 -32,105 c -0.697383,0.31969 -1.394766,0.63938 -2.113281,0.96875 -7.54457,2.97921 -16.51052,3.4348 -24.261719,0.90625 -6.534319,-2.96388 -10.818194,-7.321666 -13.898437,-13.75 -6.735759,-19.700282 0.671806,-44.199514 9.275878,-62.171387 C -55.816353,16.889979 -46.331675,4.0293188 -31.308594,-2.0976563 -21.031443,-5.3139407 -9.3903993,-5.8813554 0,0 Z"
       fill="#ee3325"
       transform="translate(629,297)"
       id="path9"
       sodipodi:nodetypes="cccccccccc" /><path
       d="m 0,0 h 2 c 1.3925491,17.745707 2.4203535,35.465562 3.0053711,53.256836 0.1203051,3.638615 0.2502969,7.276796 0.3813476,10.915039 0.082601,2.398418 0.164651,4.796855 0.2460938,7.195312 l 0.1135559,3.167939 C 6.0932141,85.369711 6,96.13887 6,107 H -69 C -59.609304,89.392445 -59.609304,89.392445 -54.875,81.4375 -38.168236,53.109423 -22.449194,24.209231 0,0 Z"
       fill="#ee3325"
       transform="translate(286,235)"
       id="path10"
       sodipodi:nodetypes="cccccccccc" /></g></svg>
