<?xml version="1.0" encoding="UTF-8" standalone="no"?>
<svg
   viewBox="0 0 24 24"
   width="24pt"
   height="24pt"
   version="1.1"
   id="svg301"
   sodipodi:docname="pink_master_pin_2_layers_foreground_tacobell.svg"
   inkscape:version="1.2.2 (732a01da63, 2022-12-09)"
   xmlns:inkscape="http://www.inkscape.org/namespaces/inkscape"
   xmlns:sodipodi="http://sodipodi.sourceforge.net/DTD/sodipodi-0.dtd"
   xmlns="http://www.w3.org/2000/svg"
   xmlns:svg="http://www.w3.org/2000/svg">
  <defs
     id="defs305" />
  <sodipodi:namedview
     id="namedview303"
     pagecolor="#ffffff"
     bordercolor="#000000"
     borderopacity="0.25"
     inkscape:showpageshadow="2"
     inkscape:pageopacity="0.0"
     inkscape:pagecheckerboard="0"
     inkscape:deskcolor="#d1d1d1"
     inkscape:document-units="pt"
     showgrid="false"
     inkscape:zoom="17.755618"
     inkscape:cx="16.248379"
     inkscape:cy="16.051258"
     inkscape:window-width="1536"
     inkscape:window-height="793"
     inkscape:window-x="-8"
     inkscape:window-y="-8"
     inkscape:window-maximized="1"
     inkscape:current-layer="svg301" />
  <path
     style="fill:#FF69B4;fill-opacity:1;stroke-width:3.8402"
     id="path2106-0"
     d="M 22.007316,11.994347 A 10.000001,10.000002 0 0 1 12.026849,21.994328 10.000001,10.000002 0 0 1 2.0073949,12.033415 10.000001,10.000002 0 0 1 11.948715,1.994519 10.000001,10.000002 0 0 1 22.007011,11.916212" />
  <path
     id="path88"
     style="isolation:isolate;fill:#ffffff;stroke-width:0.0129899"
     d="m 8.7440635,5.5982011 -0.061285,0.01342 -0.062613,0.014912 -0.099918,0.053683 -0.099918,0.053683 h -0.010668 -0.010668 l -0.042627,0.040264 -0.043967,0.038772 -0.059946,0.038772 -0.061285,0.038772 -0.025309,0.013421 -0.02398,0.014911 -0.038633,0.031316 -0.038633,0.031316 h -0.011996 -0.011996 l -0.014663,0.019386 -0.013324,0.017894 -0.077265,0.041755 -0.075937,0.040262 -0.057291,0.049211 -0.058619,0.049211 -0.051957,0.037279 -0.053296,0.035792 -0.021313,0.029828 -0.021314,0.029827 v 0.034296 0.034296 l -0.025309,0.040262 -0.025309,0.041748 -0.038633,0.082022 -0.038633,0.083508 -0.00533,0.1521063 -0.00408,0.1535958 0.043967,0.1759656 0.043967,0.1774559 v 0.062628 0.061142 l -0.022651,0.055178 -0.022641,0.055176 -0.073236,0.108861 -0.074609,0.1103511 -0.1452113,0.1864031 -0.1452129,0.1849129 -0.085262,0.1297366 -0.085262,0.1282463 -0.070608,0.1252628 -0.070608,0.125264 -0.074604,0.1580699 -0.074604,0.15807 -0.067943,0.1923687 -0.069275,0.1923688 -0.042631,0.1550882 -0.041298,0.1550882 -0.03064,0.1476306 -0.029309,0.1476329 -0.025312,0.1849125 -0.025312,0.184911 -0.013322,0.247545 -0.014654,0.247544 0.00666,0.337018 0.00799,0.337018 0.018652,0.192369 0.018651,0.192367 0.025312,0.198334 0.026644,0.199825 0.034633,0.199826 0.034637,0.198332 0.037303,0.186404 0.037302,0.184913 0.073271,0.329561 0.073271,0.331053 0.054621,0.295264 0.055952,0.295263 0.025312,0.19237 0.026645,0.192368 0.00533,0.03131 0.00666,0.02983 h 0.02398 0.02398 l 0.3770194,-0.335526 0.3770191,-0.33702 0.2397987,-0.19535 0.2397998,-0.195351 0.2211486,-0.165528 0.2211486,-0.167015 0.3610326,-0.252019 0.3623641,-0.252018 0.263781,-0.174473 0.2651118,-0.174475 0.202497,-0.123773 0.2024975,-0.125259 0.245129,-0.137192 0.246461,-0.137195 0.141215,-0.0686 0.141214,-0.07009 0.07993,-0.02684 0.07993,-0.02684 0.04796,-0.009 0.04929,-0.009 -0.07593,0.08202 -0.07593,0.08202 -0.07194,0.05369 -0.07062,0.05368 -0.381015,0.259472 -0.379682,0.257983 -0.2771025,0.198334 -0.275769,0.198333 -0.1958375,0.152105 -0.1971679,0.152107 -0.153207,0.123772 -0.1532045,0.125259 -0.171857,0.149123 -0.1718557,0.150613 -0.1585342,0.146142 -0.1585353,0.14614 -0.1731882,0.175964 -0.1731893,0.177457 -0.3064103,0.345965 -0.3077427,0.344475 -0.1358869,0.178948 -0.1372196,0.178947 -0.087926,0.123772 -0.087926,0.123773 -0.1065778,0.167019 -0.1065776,0.16851 -0.08393,0.147631 -0.08393,0.147631 -0.1092425,0.247545 -0.10791,0.247545 -0.033305,0.110345 -0.031973,0.110344 -0.025312,0.108859 -0.025312,0.110357 -0.00533,0.254999 -0.00666,0.253509 0.019984,0.102902 0.019984,0.102903 0.037303,0.08798 0.038635,0.08649 0.074604,0.08947 0.074604,0.08947 0.074604,0.05965 0.074604,0.05965 0.1105748,0.06114 0.1105738,0.06114 0.026644,0.009 0.027977,0.01042 v 0.03132 0.03131 l 0.046627,0.009 0.045296,0.009 h 0.043964 0.042631 l 0.1039129,0.04025 0.1039129,0.04176 h 0.074609 0.07327 l 0.098579,0.02833 0.09859,0.02684 H 7.692849 7.8460559 l 0.078605,0.02236 0.079932,0.02237 0.089261,-0.0179 0.087922,-0.0164 0.017319,0.01195 0.015991,0.01195 0.2024973,0.009 0.2038299,0.0074 0.066619,-0.0029 0.067947,-0.0045 0.1532057,-0.02237 0.1532058,-0.02237 0.055951,-0.01939 0.054623,-0.01939 0.085266,-0.01492 0.083927,-0.01492 0.05595,-0.02833 0.057276,-0.02833 0.073271,-0.01195 0.074607,-0.01042 0.04263,-0.01042 0.04263,-0.01042 0.008,-0.01195 0.0067,-0.01195 0.245129,-0.06114 0.2437954,-0.06114 0.25179,-0.07606 0.251791,-0.07755 0.250457,-0.08947 0.25179,-0.08947 0.215819,-0.08649 0.214488,-0.08798 0.227811,-0.101405 0.226477,-0.102882 0.246461,-0.120787 0.245127,-0.122274 0.362365,-0.201316 0.362364,-0.202808 0.183847,-0.113331 0.183845,-0.111843 0.225146,-0.1357 0.225146,-0.137195 0.17985,-0.117801 0.179849,-0.117803 0.190509,-0.131228 0.190506,-0.131227 0.221149,-0.165528 0.22115,-0.164034 0.122563,-0.09692 0.122565,-0.09693 0.189176,-0.15658 0.187842,-0.156577 0.154538,-0.137195 0.153205,-0.137192 0.135888,-0.132721 0.137218,-0.131228 0.122564,-0.125259 0.122566,-0.123773 0.147876,-0.158069 0.146544,-0.15658 0.159865,-0.186403 0.159867,-0.186404 0.121234,-0.15807 0.121231,-0.158072 0.125228,-0.184911 0.12523,-0.186404 0.08659,-0.143159 0.08527,-0.144648 0.0826,-0.155087 0.08127,-0.155088 0.07194,-0.161052 0.07194,-0.161053 0.03997,-0.105874 0.0413,-0.105873 0.01865,-0.0045 0.01732,-0.0045 0.01599,-0.06114 0.01465,-0.06263 0.02799,-0.102902 0.02663,-0.102892 0.0094,-0.232632 0.0094,-0.234123 -0.02131,-0.08202 -0.02132,-0.08351 -0.01332,-0.07308 -0.01332,-0.07157 -0.0013,-0.03727 v -0.03735 l -0.02656,-0.06412 -0.02799,-0.06563 -0.09725,-0.131228 -0.09725,-0.131228 h -0.02798 -0.02799 l -0.06527,-0.04324 -0.06526,-0.04176 -0.103913,-0.05965 -0.103913,-0.05964 -0.08659,-0.0358 -0.08527,-0.03578 -0.159881,-0.04773 -0.159867,-0.04623 -0.202497,-0.04025 -0.202444,-0.04176 -0.183844,-0.0358 -0.185179,-0.035786 -0.127894,-0.0343 -0.129266,-0.03303 -0.117235,-0.041757 -0.115904,-0.041744 -0.171857,-0.095438 -0.171856,-0.095438 -0.108016,-0.087914 -0.107909,-0.086491 -0.16653,-0.1714922 -0.166527,-0.17 -0.217152,-0.255001 -0.217152,-0.255 L 14.461948,8.2182954 14.163532,7.8663653 13.97569,7.6739964 13.789177,7.4816278 13.635972,7.3339964 13.482767,7.1863642 13.3229,7.0536449 13.163033,6.9194341 13.0045,6.8031181 12.844633,6.686802 12.722069,6.6092602 12.598172,6.533204 12.432976,6.4511824 12.267781,6.3691609 12.10525,6.3065325 11.942719,6.2439042 11.766866,6.1946934 11.592346,6.1469744 11.43914,6.1186413 11.284602,6.0917991 11.138058,6.0783775 10.990181,6.0634661 h -0.195837 -0.197168 l -0.141215,0.014911 -0.141215,0.013422 -0.195837,0.035789 -0.1971685,0.034298 -0.09725,-0.00745 -0.09858,-0.00745 -0.04929,-0.016403 -0.04928,-0.017894 -0.085267,-0.098421 -0.086593,-0.09692 L 9.3569015,5.8010326 9.2596515,5.684717 9.1983665,5.651909 9.1370815,5.617611 8.9399125,5.608671 Z m 7.7015685,6.3481639 0.113242,0.01343 0.113242,0.01343 0.08394,0.03281 0.08393,0.03281 0.05729,0.03727 0.05595,0.03729 0.03597,0.06263 0.03464,0.06114 0.01465,0.07755 0.01465,0.07755 -0.0066,0.158071 -0.0052,0.158071 -0.03997,0.131228 -0.03863,0.129737 -0.06795,0.150614 -0.06795,0.149122 -0.08926,0.153597 -0.09059,0.152106 -0.133221,0.184912 -0.133223,0.184914 -0.2398,0.26842 -0.2398,0.268422 -0.183845,0.174473 -0.183847,0.175966 -0.195837,0.171491 -0.197169,0.172982 -0.181182,0.14465 -0.181182,0.14614 -0.205161,0.153597 -0.205163,0.153597 -0.21582,0.149123 -0.214486,0.150614 -0.339718,0.222194 -0.339716,0.222192 -0.329059,0.186405 -0.329058,0.184911 -0.20383,0.0999 -0.202498,0.09992 -0.230474,0.101406 -0.230475,0.101405 -0.254454,0.09692 -0.254454,0.09692 -0.269109,0.08649 -0.27044,0.08798 -0.183847,0.0507 -0.185178,0.04922 -0.233138,0.05369 -0.2331385,0.05219 -0.171858,0.02982 -0.1718554,0.02833 -0.1651946,0.02088 -0.1665285,0.01939 -0.2264771,0.0059 -0.2278106,0.0059 -0.1238965,-0.01195 -0.1225641,-0.01195 -0.10658,-0.02833 -0.1065799,-0.02833 -0.053295,-0.02983 -0.051957,-0.02833 -0.038633,-0.0343 -0.038633,-0.03281 -0.019986,-0.04623 -0.018647,-0.04623 v -0.07606 -0.07755 l 0.025309,-0.08649 0.025309,-0.085 0.065281,-0.131229 0.066608,-0.131228 0.08126,-0.122286 0.082599,-0.123772 0.1172356,-0.15658 0.1172357,-0.156579 0.1731882,-0.193861 0.1731881,-0.193859 0.2064959,-0.202807 0.2064931,-0.201317 0.1798499,-0.162543 0.1798502,-0.164036 0.147877,-0.123773 0.1465425,-0.123772 0.171858,-0.137192 0.171855,-0.137195 0.22115,-0.165526 0.221147,-0.164036 0.183848,-0.131229 0.185178,-0.129735 0.197169,-0.13272 0.197168,-0.131229 0.31174,-0.193858 0.313072,-0.195352 0.435637,-0.24307 0.435636,-0.244562 0.195836,-0.0999 0.197169,-0.101405 0.251789,-0.123773 0.251791,-0.123772 0.214488,-0.09545 0.214487,-0.09544 0.202497,-0.08202 0.202498,-0.08202 0.04664,-0.01939 0.04664,-0.02088 0.261114,-0.08798 0.259783,-0.08798 0.191839,-0.04922 0.190508,-0.04922 0.177186,-0.03281 0.177186,-0.0343 0.143879,-0.01343 z m -4.422974,2.184651 -0.146544,0.09097 -0.147876,0.09097 -0.25179,0.16851 -0.253123,0.17 -0.206494,0.149122 -0.206494,0.149124 -0.229143,0.181928 -0.22914,0.18044 -0.186512,0.162544 -0.1865095,0.162544 -0.194504,0.186404 -0.193173,0.186404 -0.1265618,0.134209 -0.1252277,0.132721 v 0.03876 0.03877 l 0.063937,0.06563 0.063958,0.06561 0.098579,0.07157 0.098579,0.07157 0.07327,0.04176 0.0746,0.04176 0.07861,0.0343 0.07727,0.03578 0.08925,0.02833 0.08925,0.02833 0.109248,0.01939 0.107907,0.01939 0.221149,-0.0045 0.221148,-0.0059 0.09192,-0.02237 0.09193,-0.02237 0.09059,-0.0343 0.09193,-0.0343 0.101241,-0.05368 0.101251,-0.05369 0.111902,-0.085 0.111903,-0.08351 0.110574,-0.117801 0.111903,-0.117803 0.07727,-0.116314 0.07727,-0.114831 0.06261,-0.13421 0.06261,-0.132719 0.04263,-0.143158 0.04263,-0.144651 0.02131,-0.129736 0.01998,-0.131228 V 14.98254 14.769293 l -0.02131,-0.137192 -0.02132,-0.137193 -0.0413,-0.137194 -0.0413,-0.137193 -0.01465,-0.04473 -0.01599,-0.04474 h -0.02398 z" />
</svg>
