<?xml version="1.0" encoding="UTF-8" standalone="no"?>
<!-- Created with Inkscape (http://www.inkscape.org/) -->

<svg
   width="8.2020826mm"
   height="8.3079166mm"
   viewBox="0 0 8.2020826 8.3079166"
   version="1.1"
   id="svg5"
   xml:space="preserve"
   inkscape:export-filename="coutts.svg"
   inkscape:export-xdpi="94.777069"
   inkscape:export-ydpi="94.777069"
   xmlns:inkscape="http://www.inkscape.org/namespaces/inkscape"
   xmlns:sodipodi="http://sodipodi.sourceforge.net/DTD/sodipodi-0.dtd"
   xmlns:xlink="http://www.w3.org/1999/xlink"
   xmlns="http://www.w3.org/2000/svg"
   xmlns:svg="http://www.w3.org/2000/svg"><sodipodi:namedview
     id="namedview7"
     pagecolor="#ffffff"
     bordercolor="#000000"
     borderopacity="0.25"
     inkscape:showpageshadow="2"
     inkscape:pageopacity="0.0"
     inkscape:pagecheckerboard="0"
     inkscape:deskcolor="#d1d1d1"
     inkscape:document-units="mm"
     showgrid="false" /><defs
     id="defs2"><clipPath
       id="_clipPath_Ao34CuVVrB7sENQ35N5dYoRkgJW58WIl"><rect
         width="24"
         height="24"
         id="rect24"
         x="0"
         y="0" /></clipPath></defs><g
     inkscape:label="Layer 1"
     inkscape:groupmode="layer"
     id="layer1"><g
       style="isolation:isolate"
       id="g44"
       transform="matrix(0.26912418,0,0,0.26912418,0.03170142,-0.02907286)"><g
         clip-path="url(#_clipPath_Ao34CuVVrB7sENQ35N5dYoRkgJW58WIl)"
         id="g33"
         style="fill:#981798;fill-opacity:1"
         transform="matrix(1.2811073,0,0,1.2811073,-0.10138685,0.02555877)"><path
           d="m 18.593,16.825 c 1.777,-1.819 2.97,-4.201 2.97,-6.924 0,-5.278 -4.285,-9.563 -9.563,-9.563 -5.278,0 -9.562,4.285 -9.562,9.563 0,2.756 1.088,5.053 3.036,6.987 H 5.473 l 6.138,6.774 6.994,-6.837 z"
           fill="#00afe9"
           id="path29"
           style="fill:#981798;fill-opacity:1" /><path
           d="m 11.6,5.021 c -0.31,0 -0.374,0.054 -0.475,0.166 -0.039,-0.002 -0.08,-0.003 -0.124,-0.003 -0.238,0 -0.544,0.035 -0.805,0.209 C 9.944,5.56 9.824,5.854 9.959,6.07 c 0,0 0.09,-0.132 0.386,-0.132 0.042,0 0.088,0.004 0.137,0.008 0.41,0.049 0.713,0.264 0.676,0.833 -0.033,0.569 -0.246,1.204 -1.119,1.211 0,0 -0.112,0 -0.232,-0.011 C 9.401,7.935 9.273,7.68 9.273,7.68 c 0,0 0.351,-0.096 0.354,-0.541 C 9.624,6.836 9.36,6.558 8.979,6.446 8.855,6.41 8.718,6.392 8.575,6.392 c -0.449,0 -0.953,0.188 -1.293,0.632 -0.77,1.017 -0.833,2.5 -0.645,3.879 0.189,1.382 1.066,2.663 1.092,2.698 0.018,0.024 0.035,0.038 0.054,0.038 0.01,0 0.02,-0.005 0.03,-0.013 0.379,-0.368 0.74,-0.87 0.894,-1.206 0.166,0.132 0.079,0.412 -0.012,0.712 -0.086,0.306 -0.296,0.712 -0.372,0.843 -0.073,0.128 -0.172,0.277 -0.039,0.355 0.013,0.008 0.03,0.012 0.051,0.012 0.169,0 0.569,-0.296 1.014,-0.89 0.499,-0.668 0.752,-1.262 0.752,-1.262 0.037,0.008 0.098,0.07 0.088,0.238 -0.007,0.171 -0.183,0.807 -0.525,1.399 -0.346,0.592 -0.665,0.962 -0.729,1.046 -0.04,0.048 -0.006,0.079 0.019,0.099 0.026,0.017 0.637,0.588 1.526,1.07 1.053,0.561 1.519,0.662 1.519,0.662 0,0 0.466,-0.098 1.519,-0.659 0.888,-0.483 1.502,-1.057 1.525,-1.076 0.026,-0.017 0.059,-0.045 0.02,-0.099 -0.061,-0.08 -0.381,-0.452 -0.726,-1.043 -0.341,-0.588 -0.524,-1.228 -0.526,-1.397 -0.008,-0.17 0.05,-0.226 0.085,-0.24 0,0 0.256,0.597 0.754,1.262 0.448,0.595 0.844,0.89 1.014,0.89 0.022,0 0.039,-0.005 0.053,-0.013 0.128,-0.078 0.033,-0.229 -0.042,-0.355 -0.07,-0.131 -0.283,-0.534 -0.374,-0.843 -0.086,-0.302 -0.176,-0.582 -0.008,-0.711 0.155,0.336 0.513,0.84 0.893,1.203 0.01,0.01 0.021,0.015 0.033,0.015 0.016,0 0.034,-0.013 0.05,-0.035 0.028,-0.038 0.906,-1.316 1.094,-2.7 C 17.551,9.521 17.489,8.041 16.717,7.023 16.38,6.578 15.872,6.389 15.42,6.389 c -0.141,0 -0.276,0.019 -0.399,0.054 -0.384,0.115 -0.647,0.395 -0.644,0.695 0,0.446 0.353,0.541 0.353,0.541 0,0 -0.118,0.249 -0.539,0.299 -0.079,0.01 -0.155,0.015 -0.228,0.015 -0.316,0 -0.583,-0.101 -0.829,-0.448 C 12.896,7.211 12.904,6.524 12.89,6.294 12.879,6.062 12.83,5.54 12.585,5.327 12.341,5.108 12.044,5.035 11.674,5.02 11.647,5.021 11.622,5.021 11.6,5.021 Z"
           fill="#ffffff"
           id="path31"
           style="fill:#981798;fill-opacity:1" /></g><g
         id="g9218"
         transform="matrix(0.85235057,0,0,0.85235057,9.7188788,29.25326)"><use
           height="100%"
           width="100%"
           xlink:href="#hn"
           x="71.138"
           y="96.320999"
           transform="matrix(0.35278,0,0,0.35278,-201.24,-267.251)"
           fill="#073859"
           id="use7695" /><use
           height="100%"
           width="100%"
           xlink:href="#hn"
           x="129.81799"
           y="96.320999"
           transform="matrix(0.35278,0,0,0.35278,-201.24,-267.251)"
           fill="#073859"
           id="use7697" /><use
           height="100%"
           width="100%"
           xlink:href="#hn"
           x="159.146"
           y="96.320999"
           transform="matrix(0.35278,0,0,0.35278,-201.24,-267.251)"
           fill="#073859"
           id="use7699" /><use
           height="100%"
           width="100%"
           xlink:href="#hn"
           x="141.817"
           y="123.46"
           transform="matrix(0.35278,0,0,0.35278,-201.24,-267.251)"
           fill="#073859"
           id="use7701" /><use
           height="100%"
           width="100%"
           xlink:href="#hn"
           x="183.121"
           y="123.46"
           transform="matrix(0.35278,0,0,0.35278,-201.24,-267.251)"
           fill="#073859"
           id="use7703" /><use
           height="100%"
           width="100%"
           xlink:href="#ho"
           x="141.81799"
           y="157.782"
           transform="matrix(0.35278,0,0,0.35278,-201.24,-267.251)"
           fill="#0fb0dc"
           id="use7705" /><use
           height="100%"
           width="100%"
           xlink:href="#hp"
           x="123.936"
           y="386.397"
           transform="matrix(0.35278,0,0,0.35278,-179.867,-244.493)"
           fill="#ffffff"
           id="use7707" /><path
           d="m 7.9093891,-9.0347178 a 1.896,1.896 0 0 1 -0.066,-0.032 c -0.186,-0.132 -0.318,-0.455 -0.318,-0.831 l -0.001,-5.9420002 a 0.265,0.265 0 0 0 -0.265,-0.265 h -1.685 v 0.34 l 0.063,0.027 c 0.024,0.008 0.046,0.02 0.066,0.032 0.188,0.13 0.319,0.453 0.319,0.83 v 5.9410002 c 0,0.146 0.12,0.265 0.265,0.265 h 1.686 v -0.34 z m 0,0 m -7.31199996,-2.6710002 0.92999996,-2.289 0.924,2.289 z m -0.526,1.293 H 2.9623891 l 0.689,1.7430002 h 1.56 l -2.785,-7.0460002 a 0.617,0.617 0 0 0 -0.568,-0.387 H 0.79638914 l -2.94000004,7.4330002 h 1.53500004 z m 0,0 m 9.81799996,-18.297 a 0.513,0.513 0 1 0 1.0249999,0 0.513,0.513 0 0 0 -1.0249999,0 m 4.5119999,7.478 c 0,2.25 -2.59,3.074 -4.6949999,3.074 h -5.887 c -2.105,0 -4.69499996,-0.824 -4.69499996,-3.074 0,-2.882 2.93199996,-2.652 2.24599996,-4.525 2.163,0.674 0.382,2.248 0.12,3.083 -0.305,0.969 0.47,2.242 2.329,2.242 h 2.369 v -1.68 h -2.809 l 0.872,-0.86 h 1.937 v -0.989 c -2.722,-0.56 -2.083,-3.586 -5.80899996,-3.894 -1.229,-0.102 -0.79,-2.522 -0.67,-2.893 0.032,-0.105 0.127,-0.143 0.236,-0.048 4.61399996,3.973 7.21399996,2.76 8.39599996,2.005 0.553,-0.353 1.355,-1.204 1.9439999,-1.204 0.485,0 0.897,0.285 1.079,0.42 l 1.872,1.388 c 0,0 -1.222,0 -1.907,0.487 -1.5139999,1.078 -1.7819999,3.29 -3.9899999,3.743 v 0.985 h 1.934 l 0.8739999,0.86 H 7.3383891 v 1.68 h 2.37 c 1.8579999,0 2.6329999,-1.273 2.3279999,-2.242 -0.262,-0.835 -2.0439999,-2.409 0.12,-3.083 -0.686,1.873 2.246,1.643 2.246,4.525 m -1.713,11.2810002 h -2.173 v -1.7850002 h 2.202 c 0.494,0 0.865,0.396 0.865,0.89 a 0.895,0.895 0 0 1 -0.895,0.8940002 m -2.172,-4.8700002 h 1.71 a 0.894,0.894 0 0 1 0.043,1.785 h -1.753 z m 3.163,2.313 c 0.535,-0.368 0.88,-0.939 0.88,-1.58 0,-1.024 -0.909,-2.014 -2.389,-2.014 H 9.1163891 v 7.4330002 h 3.5159999 c 1.481,0 2.39,-0.991 2.39,-2.0150002 0,-0.812 -0.552,-1.509 -1.343,-1.824"
           fill="#ffffff"
           id="path7713" /></g></g></g><style
     type="text/css"
     id="style556">
	.st0{fill:#2548AF;}
	.st1{fill:#ED1C24;}
	.st2{fill:#FFFFFF;}
</style></svg>
