<?xml version="1.0" encoding="UTF-8" standalone="no"?><!-- Generator: Gravit.io --><svg xmlns="http://www.w3.org/2000/svg" xmlns:xlink="http://www.w3.org/1999/xlink" style="isolation:isolate" viewBox="0 0 24 24" width="24pt" height="24pt"><defs><clipPath id="_clipPath_Ao34CuVVrB7sENQ35N5dYoRkgJW58WIl"><rect width="24" height="24"/></clipPath></defs><g clip-path="url(#_clipPath_Ao34CuVVrB7sENQ35N5dYoRkgJW58WIl)"><path d=" M 18.593 16.825 C 20.37 15.006 21.563 12.624 21.563 9.901 C 21.563 4.623 17.278 0.338 12 0.338 C 6.722 0.338 2.438 4.623 2.438 9.901 C 2.438 12.657 3.526 14.954 5.474 16.888 L 5.473 16.888 L 11.611 23.662 L 18.605 16.825 L 18.593 16.825 Z " fill="rgb(0,175,233)"/><path d=" M 11.6 5.021 C 11.29 5.021 11.226 5.075 11.125 5.187 C 11.086 5.185 11.045 5.184 11.001 5.184 C 10.763 5.184 10.457 5.219 10.196 5.393 C 9.944 5.56 9.824 5.854 9.959 6.07 C 9.959 6.07 10.049 5.938 10.345 5.938 C 10.387 5.938 10.433 5.942 10.482 5.946 C 10.892 5.995 11.195 6.21 11.158 6.779 C 11.125 7.348 10.912 7.983 10.039 7.99 C 10.039 7.99 9.927 7.99 9.807 7.979 C 9.401 7.935 9.273 7.68 9.273 7.68 C 9.273 7.68 9.624 7.584 9.627 7.139 C 9.624 6.836 9.36 6.558 8.979 6.446 C 8.855 6.41 8.718 6.392 8.575 6.392 C 8.126 6.392 7.622 6.58 7.282 7.024 C 6.512 8.041 6.449 9.524 6.637 10.903 C 6.826 12.285 7.703 13.566 7.729 13.601 C 7.747 13.625 7.764 13.639 7.783 13.639 C 7.793 13.639 7.803 13.634 7.813 13.626 C 8.192 13.258 8.553 12.756 8.707 12.42 C 8.873 12.552 8.786 12.832 8.695 13.132 C 8.609 13.438 8.399 13.844 8.323 13.975 C 8.25 14.103 8.151 14.252 8.284 14.33 C 8.297 14.338 8.314 14.342 8.335 14.342 C 8.504 14.342 8.904 14.046 9.349 13.452 C 9.848 12.784 10.101 12.19 10.101 12.19 C 10.138 12.198 10.199 12.26 10.189 12.428 C 10.182 12.599 10.006 13.235 9.664 13.827 C 9.318 14.419 8.999 14.789 8.935 14.873 C 8.895 14.921 8.929 14.952 8.954 14.972 C 8.98 14.989 9.591 15.56 10.48 16.042 C 11.533 16.603 11.999 16.704 11.999 16.704 C 11.999 16.704 12.465 16.606 13.518 16.045 C 14.406 15.562 15.02 14.988 15.043 14.969 C 15.069 14.952 15.102 14.924 15.063 14.87 C 15.002 14.79 14.682 14.418 14.337 13.827 C 13.996 13.239 13.813 12.599 13.811 12.43 C 13.803 12.26 13.861 12.204 13.896 12.19 C 13.896 12.19 14.152 12.787 14.65 13.452 C 15.098 14.047 15.494 14.342 15.664 14.342 C 15.686 14.342 15.703 14.337 15.717 14.329 C 15.845 14.251 15.75 14.1 15.675 13.974 C 15.605 13.843 15.392 13.44 15.301 13.131 C 15.215 12.829 15.125 12.549 15.293 12.42 C 15.448 12.756 15.806 13.26 16.186 13.623 C 16.196 13.633 16.207 13.638 16.219 13.638 C 16.235 13.638 16.253 13.625 16.269 13.603 C 16.297 13.565 17.175 12.287 17.363 10.903 C 17.551 9.521 17.489 8.041 16.717 7.023 C 16.38 6.578 15.872 6.389 15.42 6.389 C 15.279 6.389 15.144 6.408 15.021 6.443 C 14.637 6.558 14.374 6.838 14.377 7.138 C 14.377 7.584 14.73 7.679 14.73 7.679 C 14.73 7.679 14.612 7.928 14.191 7.978 C 14.112 7.988 14.036 7.993 13.963 7.993 C 13.647 7.993 13.38 7.892 13.134 7.545 C 12.896 7.211 12.904 6.524 12.89 6.294 C 12.879 6.062 12.83 5.54 12.585 5.327 C 12.341 5.108 12.044 5.035 11.674 5.02 C 11.647 5.021 11.622 5.021 11.6 5.021 Z " fill="rgb(255,255,255)"/></g></svg>