<?xml version="1.0" encoding="UTF-8" standalone="no"?>
<!-- Created with Inkscape (http://www.inkscape.org/) -->

<svg
   width="8.2020826mm"
   height="8.3079166mm"
   viewBox="0 0 8.2020826 8.3079166"
   version="1.1"
   id="svg5"
   xml:space="preserve"
   inkscape:export-filename="metro_bank.svg"
   inkscape:export-xdpi="94.777069"
   inkscape:export-ydpi="94.777069"
   xmlns:inkscape="http://www.inkscape.org/namespaces/inkscape"
   xmlns:sodipodi="http://sodipodi.sourceforge.net/DTD/sodipodi-0.dtd"
   xmlns="http://www.w3.org/2000/svg"
   xmlns:svg="http://www.w3.org/2000/svg"><sodipodi:namedview
     id="namedview7"
     pagecolor="#ffffff"
     bordercolor="#000000"
     borderopacity="0.25"
     inkscape:showpageshadow="2"
     inkscape:pageopacity="0.0"
     inkscape:pagecheckerboard="0"
     inkscape:deskcolor="#d1d1d1"
     inkscape:document-units="mm"
     showgrid="false" /><defs
     id="defs2"><clipPath
       id="_clipPath_Ao34CuVVrB7sENQ35N5dYoRkgJW58WIl"><rect
         width="24"
         height="24"
         id="rect24"
         x="0"
         y="0" /></clipPath></defs><g
     inkscape:label="Layer 1"
     inkscape:groupmode="layer"
     id="layer1"><g
       style="isolation:isolate"
       id="g44"
       transform="matrix(0.26912418,0,0,0.26912418,0.03170142,-0.02907286)"><g
         clip-path="url(#_clipPath_Ao34CuVVrB7sENQ35N5dYoRkgJW58WIl)"
         id="g33"
         style="fill:#d3bc5f;fill-opacity:1"
         transform="matrix(1.2811073,0,0,1.2811073,-0.10138685,0.02555877)"><path
           d="m 18.593,16.825 c 1.777,-1.819 2.97,-4.201 2.97,-6.924 0,-5.278 -4.285,-9.563 -9.563,-9.563 -5.278,0 -9.562,4.285 -9.562,9.563 0,2.756 1.088,5.053 3.036,6.987 H 5.473 l 6.138,6.774 6.994,-6.837 z"
           fill="#00afe9"
           id="path29"
           style="fill:#d3bc5f;fill-opacity:1" /><path
           d="m 11.6,5.021 c -0.31,0 -0.374,0.054 -0.475,0.166 -0.039,-0.002 -0.08,-0.003 -0.124,-0.003 -0.238,0 -0.544,0.035 -0.805,0.209 C 9.944,5.56 9.824,5.854 9.959,6.07 c 0,0 0.09,-0.132 0.386,-0.132 0.042,0 0.088,0.004 0.137,0.008 0.41,0.049 0.713,0.264 0.676,0.833 -0.033,0.569 -0.246,1.204 -1.119,1.211 0,0 -0.112,0 -0.232,-0.011 C 9.401,7.935 9.273,7.68 9.273,7.68 c 0,0 0.351,-0.096 0.354,-0.541 C 9.624,6.836 9.36,6.558 8.979,6.446 8.855,6.41 8.718,6.392 8.575,6.392 c -0.449,0 -0.953,0.188 -1.293,0.632 -0.77,1.017 -0.833,2.5 -0.645,3.879 0.189,1.382 1.066,2.663 1.092,2.698 0.018,0.024 0.035,0.038 0.054,0.038 0.01,0 0.02,-0.005 0.03,-0.013 0.379,-0.368 0.74,-0.87 0.894,-1.206 0.166,0.132 0.079,0.412 -0.012,0.712 -0.086,0.306 -0.296,0.712 -0.372,0.843 -0.073,0.128 -0.172,0.277 -0.039,0.355 0.013,0.008 0.03,0.012 0.051,0.012 0.169,0 0.569,-0.296 1.014,-0.89 0.499,-0.668 0.752,-1.262 0.752,-1.262 0.037,0.008 0.098,0.07 0.088,0.238 -0.007,0.171 -0.183,0.807 -0.525,1.399 -0.346,0.592 -0.665,0.962 -0.729,1.046 -0.04,0.048 -0.006,0.079 0.019,0.099 0.026,0.017 0.637,0.588 1.526,1.07 1.053,0.561 1.519,0.662 1.519,0.662 0,0 0.466,-0.098 1.519,-0.659 0.888,-0.483 1.502,-1.057 1.525,-1.076 0.026,-0.017 0.059,-0.045 0.02,-0.099 -0.061,-0.08 -0.381,-0.452 -0.726,-1.043 -0.341,-0.588 -0.524,-1.228 -0.526,-1.397 -0.008,-0.17 0.05,-0.226 0.085,-0.24 0,0 0.256,0.597 0.754,1.262 0.448,0.595 0.844,0.89 1.014,0.89 0.022,0 0.039,-0.005 0.053,-0.013 0.128,-0.078 0.033,-0.229 -0.042,-0.355 -0.07,-0.131 -0.283,-0.534 -0.374,-0.843 -0.086,-0.302 -0.176,-0.582 -0.008,-0.711 0.155,0.336 0.513,0.84 0.893,1.203 0.01,0.01 0.021,0.015 0.033,0.015 0.016,0 0.034,-0.013 0.05,-0.035 0.028,-0.038 0.906,-1.316 1.094,-2.7 C 17.551,9.521 17.489,8.041 16.717,7.023 16.38,6.578 15.872,6.389 15.42,6.389 c -0.141,0 -0.276,0.019 -0.399,0.054 -0.384,0.115 -0.647,0.395 -0.644,0.695 0,0.446 0.353,0.541 0.353,0.541 0,0 -0.118,0.249 -0.539,0.299 -0.079,0.01 -0.155,0.015 -0.228,0.015 -0.316,0 -0.583,-0.101 -0.829,-0.448 C 12.896,7.211 12.904,6.524 12.89,6.294 12.879,6.062 12.83,5.54 12.585,5.327 12.341,5.108 12.044,5.035 11.674,5.02 11.647,5.021 11.622,5.021 11.6,5.021 Z"
           fill="#ffffff"
           id="path31"
           style="fill:#d3bc5f;fill-opacity:1" /></g><g
         transform="matrix(0.00467459,0,0,-0.00467459,4.138799,15.593693)"
         fill="#000000"
         stroke="none"
         id="g2402"><path
           d="M 804,1281 C 630,1234 438,1100 272,910 23,626 -65,350 47,201 c 33,-43 78,-61 151,-61 111,0 259,63 387,166 l 70,55 5,-43 c 8,-62 26,-87 77,-110 91,-40 191,7 347,164 77,77 122,115 150,125 23,7 70,30 105,49 l 64,35 -40,-48 C 1237,382 1199,260 1263,215 c 52,-37 150,-4 248,84 l 56,50 -5,-49 c -4,-42 -1,-52 21,-74 54,-54 168,-22 284,79 28,25 53,45 55,45 1,0 3,-25 3,-56 0,-47 4,-59 24,-75 54,-44 154,-14 276,80 86,67 82,67 77,6 -4,-47 -1,-57 21,-79 55,-55 181,-20 327,90 89,67 267,241 357,348 l 75,89 -7,-94 c -13,-172 -68,-333 -132,-390 -29,-25 -42,-30 -76,-27 -34,2 -42,7 -42,23 0,13 8,21 23,23 33,5 55,43 43,74 -17,45 -74,51 -115,13 -55,-51 -20,-152 60,-174 74,-21 189,33 247,115 66,93 79,175 55,365 -11,91 -10,98 10,140 26,54 26,55 8,62 -10,4 -49,-35 -114,-111 -222,-263 -390,-418 -533,-494 -77,-42 -135,-50 -146,-21 -11,29 36,99 236,356 l 194,247 h 91 c 80,0 93,2 103,20 12,18 9,19 -73,22 l -87,3 48,60 c 27,33 53,66 58,73 7,9 -5,12 -54,12 h -64 l -59,-75 -59,-75 h -118 c -106,0 -138,7 -111,24 4,3 30,32 56,65 l 47,61 h -64 -64 l -59,-75 -59,-75 h -81 c -68,0 -84,-3 -99,-20 -18,-20 -17,-20 58,-20 43,0 77,-3 77,-7 0,-5 -74,-101 -165,-215 -212,-266 -362,-398 -452,-398 -29,0 -33,3 -33,28 0,39 34,90 209,310 83,105 151,194 151,197 0,3 -28,5 -62,5 h -63 L 1750,633 C 1606,449 1492,328 1416,278 c -67,-43 -116,-51 -116,-18 0,38 38,94 204,305 91,116 166,212 166,215 0,3 -26,3 -57,1 -57,-3 -60,-5 -124,-70 -84,-86 -236,-187 -254,-169 -3,3 5,27 17,54 12,27 22,70 22,96 2,132 -147,138 -333,14 C 898,677 824,609 748,529 681,457 589,371 545,338 357,195 169,147 103,225 c -48,55 -21,197 64,339 119,198 357,465 526,589 60,45 161,88 220,94 57,6 97,-8 128,-43 39,-45 29,-126 -22,-168 -39,-33 -59,-33 -59,-1 0,35 -42,62 -75,47 -51,-23 -44,-95 11,-118 67,-28 153,16 193,99 26,55 26,89 0,143 -41,86 -145,113 -285,75 z M 2653,848 c -5,-7 -79,-101 -165,-208 -204,-256 -353,-386 -455,-398 -40,-4 -43,-3 -43,20 0,42 32,90 234,347 l 197,251 h 121 c 95,0 118,-3 111,-12 z M 1218,738 c 27,-27 5,-123 -31,-134 -53,-16 -98,-90 -67,-109 15,-9 -62,-98 -139,-160 -79,-63 -139,-95 -180,-95 -31,0 -61,22 -61,44 0,30 32,102 67,150 150,210 354,361 411,304 z"
           id="path2344" /><path
           d="m 3480,650 c 0,-571 2,-650 15,-650 13,0 15,79 15,650 0,571 -2,650 -15,650 -13,0 -15,-79 -15,-650 z"
           id="path2346" /><path
           d="m 4240,1165 c 7,-8 18,-15 25,-15 7,0 18,7 25,15 11,13 7,15 -25,15 -32,0 -36,-2 -25,-15 z"
           id="path2348" /><path
           d="m 4210,1132 c 0,-34 10,-41 29,-19 8,11 6,18 -9,32 -20,18 -20,17 -20,-13 z"
           id="path2350" /><path
           d="m 4297,1143 c -16,-18 -16,-21 -2,-33 20,-17 27,-9 23,25 -3,27 -3,27 -21,8 z"
           id="path2352" /><path
           d="m 4250,1095 c -11,-13 -8,-15 15,-15 23,0 26,2 15,15 -7,8 -14,15 -15,15 -1,0 -8,-7 -15,-15 z"
           id="path2354" /><path
           d="m 4242,1048 c -7,-7 -12,-19 -12,-29 0,-15 -4,-15 -54,-1 -50,14 -57,13 -92,-4 -30,-15 -42,-29 -54,-61 -13,-39 -12,-48 9,-125 13,-46 27,-86 30,-90 8,-9 51,19 51,32 0,5 -9,12 -20,15 -23,7 -27,25 -6,25 8,0 16,10 18,22 4,30 25,34 34,6 4,-13 14,-28 23,-35 15,-11 15,-12 -1,-13 -26,0 -33,-21 -13,-37 26,-19 58,-16 87,7 25,19 26,19 43,0 21,-23 63,-26 90,-7 19,15 13,37 -11,37 -8,0 -14,5 -14,10 0,6 6,10 14,10 8,0 16,10 18,22 4,30 25,34 34,6 4,-13 14,-28 23,-35 15,-11 15,-12 -1,-13 -26,0 -32,-19 -12,-41 9,-10 21,-19 25,-19 13,0 52,140 52,185 0,50 -25,90 -65,104 -32,11 -88,6 -120,-11 -14,-7 -18,-5 -18,11 0,11 -9,25 -19,31 -24,13 -24,13 -39,-2 z m -8,-75 c 26,-3 80,0 119,7 l 70,14 24,-28 c 15,-18 23,-38 21,-55 -3,-29 -1,-29 -78,-1 -94,33 -198,25 -312,-25 -15,-6 -18,-2 -18,29 0,54 31,80 84,72 22,-4 63,-10 90,-13 z m 66,-116 c 0,-2 -8,-11 -18,-21 -18,-15 -20,-15 -37,4 -18,20 -18,20 18,20 21,0 37,-2 37,-3 z m -78,-79 -22,-22 v 44 44 l 22,-22 22,-22 z m 103,23 v -40 l -22,21 c -20,19 -20,21 -5,38 24,26 27,24 27,-19 z"
           id="path2356" /><path
           d="m 3955,730 c 14,-15 21,-17 32,-9 22,19 15,29 -19,29 -30,0 -31,0 -13,-20 z"
           id="path2358" /><path
           d="m 4530,741 c 0,-5 7,-14 15,-21 12,-10 18,-10 30,0 23,19 18,30 -15,30 -16,0 -30,-4 -30,-9 z"
           id="path2360" /><path
           d="m 4240,720 c -13,-9 -13,-11 0,-20 19,-12 31,-12 49,-1 11,7 10,11 -7,20 -25,13 -23,13 -42,1 z"
           id="path2362" /><path
           d="m 3920,690 c 0,-32 1,-33 17,-17 16,16 16,18 0,34 -16,16 -17,15 -17,-17 z"
           id="path2364" /><path
           d="m 4002,707 c -7,-8 -7,-17 2,-30 18,-24 21,-22 21,13 0,32 -7,37 -23,17 z"
           id="path2366" /><path
           d="m 4117,714 c -11,-12 3,-24 29,-24 15,0 24,6 24,15 0,15 -40,21 -53,9 z"
           id="path2368" /><path
           d="m 4353,708 c 2,-7 14,-13 27,-13 13,0 25,6 28,13 2,8 -7,12 -28,12 -21,0 -30,-4 -27,-12 z"
           id="path2370" /><path
           d="m 4510,690 c 0,-32 1,-33 17,-17 16,16 16,18 0,34 -16,16 -17,15 -17,-17 z"
           id="path2372" /><path
           d="m 4590,704 c -11,-12 -10,-18 3,-32 16,-15 17,-14 17,16 0,36 -2,38 -20,16 z"
           id="path2374" /><path
           d="m 3950,655 c -11,-13 -8,-15 20,-15 28,0 31,2 20,15 -7,8 -16,15 -20,15 -4,0 -13,-7 -20,-15 z"
           id="path2376" /><path
           d="m 4070,655 c 0,-13 28,-15 190,-15 162,0 190,2 190,15 0,13 -28,15 -190,15 -162,0 -190,-2 -190,-15 z"
           id="path2378" /><path
           d="m 4540,655 c -11,-13 -8,-15 20,-15 28,0 31,2 20,15 -7,8 -16,15 -20,15 -4,0 -13,-7 -20,-15 z"
           id="path2380" /><path
           d="m 3942,608 c -6,-6 -12,-18 -12,-26 0,-9 -6,-12 -17,-7 -69,27 -144,11 -168,-36 -20,-38 -19,-78 7,-165 22,-77 38,-90 62,-51 9,15 7,20 -8,29 -17,10 -18,12 -4,22 9,6 17,20 19,31 5,25 23,25 28,0 2,-11 11,-25 20,-32 15,-11 15,-12 -1,-18 -26,-10 -22,-34 7,-45 27,-10 51,-5 78,18 15,13 19,13 35,0 26,-23 50,-28 77,-18 29,11 33,35 8,45 -17,6 -17,7 -2,18 9,7 18,21 20,32 3,11 9,20 14,20 5,0 11,-9 14,-20 2,-11 10,-25 19,-31 14,-10 13,-12 -4,-22 -15,-9 -17,-14 -8,-29 23,-37 39,-26 62,45 27,84 28,137 2,179 -26,43 -91,55 -160,29 -10,-4 -19,2 -25,16 -11,26 -44,35 -63,16 z m 28,-71 c 30,0 80,3 111,8 68,9 89,-6 89,-64 v -38 l -38,19 c -88,43 -235,43 -321,-1 l -41,-21 v 37 c 0,21 7,45 17,56 15,16 26,18 73,12 30,-4 80,-7 110,-8 z m 20,-132 c -20,-19 -20,-19 -40,1 l -20,20 39,-1 c 40,0 40,0 21,-20 z m -56,-23 c 15,-18 15,-20 -4,-37 -20,-18 -20,-18 -20,18 0,43 1,43 24,19 z m 96,-19 c 0,-36 0,-36 -20,-18 -19,17 -19,19 -4,37 23,24 24,24 24,-19 z"
           id="path2382" /><path
           d="m 4532,608 c -7,-7 -12,-18 -12,-26 0,-9 -6,-12 -17,-7 -72,27 -136,16 -163,-28 -26,-41 -25,-92 1,-178 21,-68 33,-81 57,-57 18,18 14,34 -10,45 l -23,10 22,7 c 12,4 23,16 25,27 4,26 22,28 27,4 2,-11 11,-25 20,-32 15,-11 15,-12 -1,-18 -26,-10 -22,-34 7,-45 27,-10 51,-5 78,18 15,13 19,13 35,0 26,-23 50,-28 77,-18 29,11 33,35 8,45 -17,6 -17,7 -2,18 9,7 18,21 20,32 3,11 9,20 14,20 5,0 11,-9 14,-20 2,-11 10,-25 19,-31 14,-10 13,-12 -4,-22 -15,-9 -17,-14 -8,-29 24,-39 40,-26 62,51 26,87 27,127 7,165 -25,49 -83,61 -175,35 -14,-4 -22,-3 -18,1 11,12 -11,45 -30,45 -10,0 -23,-5 -30,-12 z m 28,-71 c 30,0 79,4 108,8 67,10 92,-9 92,-67 v -38 l -41,21 c -86,44 -233,44 -321,1 l -38,-19 v 38 c 0,58 21,73 89,64 31,-5 81,-8 111,-8 z m 30,-118 c 0,-4 -7,-12 -16,-19 -13,-11 -18,-10 -35,7 -20,20 -20,20 15,19 20,-1 36,-4 36,-7 z m -66,-37 c 15,-18 15,-20 -4,-37 -20,-18 -20,-18 -20,18 0,43 1,43 24,19 z m 96,-19 c 0,-36 0,-36 -20,-18 -19,17 -19,19 -4,37 23,24 24,24 24,-19 z"
           id="path2384" /><path
           d="m 3942,283 c -20,-8 -3,-23 28,-23 33,0 48,15 24,24 -18,7 -33,7 -52,-1 z"
           id="path2386" /><path
           d="m 4060,275 c 0,-10 10,-15 30,-15 22,0 28,4 24,15 -4,8 -17,15 -30,15 -15,0 -24,-6 -24,-15 z"
           id="path2388" /><path
           d="m 4531,281 c -23,-15 18,-31 49,-19 20,7 22,11 10,18 -19,12 -41,12 -59,1 z"
           id="path2390" /><path
           d="m 4646,275 c -4,-11 2,-15 24,-15 20,0 30,5 30,15 0,9 -9,15 -24,15 -13,0 -26,-7 -30,-15 z"
           id="path2392" /><path
           d="m 3820,270 c 0,-5 14,-10 30,-10 17,0 30,5 30,10 0,6 -13,10 -30,10 -16,0 -30,-4 -30,-10 z"
           id="path2394" /><path
           d="m 4410,270 c 0,-5 14,-10 30,-10 17,0 30,5 30,10 0,6 -13,10 -30,10 -16,0 -30,-4 -30,-10 z"
           id="path2396" /><path
           d="m 3780,225 c 0,-13 28,-15 190,-15 162,0 190,2 190,15 0,13 -28,15 -190,15 -162,0 -190,-2 -190,-15 z"
           id="path2398" /><path
           d="m 4370,225 c 0,-13 27,-15 191,-15 148,0 190,3 187,13 -4,9 -53,13 -191,15 -162,2 -187,0 -187,-13 z"
           id="path2400" /></g></g></g><style
     type="text/css"
     id="style556">
	.st0{fill:#2548AF;}
	.st1{fill:#ED1C24;}
	.st2{fill:#FFFFFF;}
</style></svg>
