<?xml version="1.0" encoding="UTF-8" standalone="no"?><!-- Generator: Gravit.io --><svg xmlns="http://www.w3.org/2000/svg" xmlns:xlink="http://www.w3.org/1999/xlink" style="isolation:isolate" viewBox="0 0 24 24" width="24pt" height="24pt"><defs><clipPath id="_clipPath_VMCYhrunbmZbLOVjtfdYHzc18TOkJDqj"><rect width="24" height="24"/></clipPath></defs><g clip-path="url(#_clipPath_VMCYhrunbmZbLOVjtfdYHzc18TOkJDqj)"><clipPath id="_clipPath_AlYlppSBjG2REbiUk30v2WFCUjic3rPk"><rect x="0" y="0" width="24" height="24" transform="matrix(1,0,0,1,0,0)" fill="rgb(255,255,255)"/></clipPath><g clip-path="url(#_clipPath_AlYlppSBjG2REbiUk30v2WFCUjic3rPk)"><g><clipPath id="_clipPath_Jsk3wRvj9l3PyOhjVWIl1D1jRztbNDo6"><rect x="0" y="0" width="24" height="24" transform="matrix(1,0,0,1,0,0)" fill="rgb(255,255,255)"/></clipPath><g clip-path="url(#_clipPath_Jsk3wRvj9l3PyOhjVWIl1D1jRztbNDo6)"><g><g><path d=" M 18.593 16.825 C 20.37 15.006 21.563 12.624 21.563 9.901 C 21.563 4.623 17.278 0.338 12 0.338 C 6.722 0.338 2.438 4.623 2.438 9.901 C 2.438 12.657 3.526 14.954 5.474 16.888 L 5.473 16.888 L 11.611 23.662 L 18.605 16.825 L 18.593 16.825 L 18.593 16.825 Z " fill="rgb(132,132,132)"/></g></g></g><g><g><rect x="5.444" y="2.853" width="13.112" height="13.112" transform="matrix(1,0,0,1,0,0)" fill="none"/></g><g><g><rect x="7.629" y="8.316" width="1.639" height="3.824" transform="matrix(1,0,0,1,0,0)" fill="rgb(255,255,255)"/><rect x="11.181" y="8.316" width="1.639" height="3.824" transform="matrix(1,0,0,1,0,0)" fill="rgb(255,255,255)"/><rect x="6.537" y="13.233" width="10.927" height="1.639" transform="matrix(1,0,0,1,0,0)" fill="rgb(255,255,255)"/><rect x="14.732" y="8.316" width="1.639" height="3.824" transform="matrix(1,0,0,1,0,0)" fill="rgb(255,255,255)"/><path d=" M 12 3.399 L 6.537 6.131 L 6.537 7.224 L 17.463 7.224 L 17.463 6.131 L 12 3.399 L 12 3.399 Z " fill="rgb(255,255,255)"/></g></g></g></g></g></g></svg>