<?xml version="1.0" encoding="UTF-8" standalone="no"?><!-- Generator: Gravit.io --><svg xmlns="http://www.w3.org/2000/svg" xmlns:xlink="http://www.w3.org/1999/xlink" style="isolation:isolate" viewBox="0 0 24 24" width="24pt" height="24pt"><defs><clipPath id="_clipPath_nGTbFYN6qc1nHZt8y3D3NDdFORQFnj8W"><rect width="24" height="24"/></clipPath></defs><g clip-path="url(#_clipPath_nGTbFYN6qc1nHZt8y3D3NDdFORQFnj8W)"><clipPath id="_clipPath_sOZDbqY0M88CX182U9vcbxIuDSkmV5tw"><rect x="0" y="0" width="24" height="24" transform="matrix(1,0,0,1,0,0)" fill="rgb(255,255,255)"/></clipPath><g clip-path="url(#_clipPath_sOZDbqY0M88CX182U9vcbxIuDSkmV5tw)"><g><clipPath id="_clipPath_iBu7YXwz96Ci7A3VGfnFgMoBMXQMJnr4"><rect x="0" y="0" width="24" height="24" transform="matrix(1,0,0,1,0,0)" fill="rgb(255,255,255)"/></clipPath><g clip-path="url(#_clipPath_iBu7YXwz96Ci7A3VGfnFgMoBMXQMJnr4)"><g><g><path d=" M 18.593 16.825 C 20.37 15.006 21.563 12.624 21.563 9.901 C 21.563 4.623 17.278 0.338 12 0.338 C 6.722 0.338 2.438 4.623 2.438 9.901 C 2.438 12.657 3.526 14.954 5.474 16.888 L 5.473 16.888 L 11.611 23.662 L 18.605 16.825 L 18.593 16.825 L 18.593 16.825 Z " fill="rgb(70,70,70)"/></g></g></g><g><path d=" M 10.526 10.077 L 10.526 13.804 L 8.79 13.804 L 8.79 5.494 L 10.526 5.494 L 10.526 8.642 L 13.767 8.642 L 13.767 5.494 L 15.503 5.494 L 15.503 13.804 L 13.767 13.804 L 13.767 10.077 L 10.526 10.077 L 10.526 10.077 Z " fill="rgb(162,162,162)"/></g><path d=" M 10.202 10.579 L 10.202 14.713 L 8.276 14.713 L 8.276 5.494 L 10.202 5.494 L 10.202 8.986 L 13.798 8.986 L 13.798 5.494 L 15.724 5.494 L 15.724 14.713 L 13.798 14.713 L 13.798 10.579 L 10.202 10.579 L 10.202 10.579 Z " fill="rgb(255,255,255)"/></g></g></g></svg>