<?xml version="1.0" encoding="UTF-8" standalone="no"?>
<!-- Generator: Gravit.io -->

<svg
   style="isolation:isolate"
   viewBox="0 0 24 24"
   width="24pt"
   height="24pt"
   version="1.1"
   id="svg143"
   sodipodi:docname="barclays.svg"
   xml:space="preserve"
   xmlns:inkscape="http://www.inkscape.org/namespaces/inkscape"
   xmlns:sodipodi="http://sodipodi.sourceforge.net/DTD/sodipodi-0.dtd"
   xmlns="http://www.w3.org/2000/svg"
   xmlns:svg="http://www.w3.org/2000/svg"><sodipodi:namedview
     id="namedview145"
     pagecolor="#ffffff"
     bordercolor="#000000"
     borderopacity="0.25"
     inkscape:showpageshadow="2"
     inkscape:pageopacity="0.0"
     inkscape:pagecheckerboard="0"
     inkscape:deskcolor="#d1d1d1"
     inkscape:document-units="pt"
     showgrid="false" /><defs
     id="defs135"><clipPath
       id="_clipPath_Ao34CuVVrB7sENQ35N5dYoRkgJW58WIl"><rect
         width="24"
         height="24"
         id="rect132"
         x="0"
         y="0" /></clipPath></defs><g
     clip-path="url(#_clipPath_Ao34CuVVrB7sENQ35N5dYoRkgJW58WIl)"
     id="g141"><path
       d="m 18.593,16.825 c 1.777,-1.819 2.97,-4.201 2.97,-6.924 0,-5.278 -4.285,-9.563 -9.563,-9.563 -5.278,0 -9.562,4.285 -9.562,9.563 0,2.756 1.088,5.053 3.036,6.987 H 5.473 l 6.138,6.774 6.994,-6.837 z"
       fill="#00afe9"
       id="path137"
       style="fill:#0b0b47;fill-opacity:1" /><g
       id="g335"
       transform="matrix(0.02965432,0,0,0.02965432,2.532007,0.38634715)"><path
         class="st0"
         d="M 20.9,258.5 H 99.4 L 20.9,313.8 Z"
         id="path320" /><path
         class="st1"
         d="m 99.4,258.5 h 78.5 v 55.3 z"
         id="path322" /><path
         class="st2"
         d="m 588.3,381.1 c 1.1,0.8 2.3,1.4 3.5,1.8 1.3,0.4 2.7,0.6 4.3,0.6 2,0 3.7,-0.4 5.1,-1.2 1.3,-0.8 2.5,-1.8 3.4,-3.1 0.9,-1.3 1.7,-2.7 2.4,-4.3 0.6,-1.6 1.3,-3.2 2,-4.8 l 11.9,-28.9 h -9.5 l -6.6,18.4 -7.3,-18.4 h -10.2 l 13.3,28.8 -0.9,2.4 c -0.6,1.4 -1.2,2.5 -1.8,3.1 -0.6,0.6 -1.4,0.9 -2.4,0.9 -0.7,0 -1.4,-0.1 -2,-0.4 -0.6,-0.3 -1.1,-0.6 -1.6,-1 z m -20.5,-21.9 c 0,1.8 0.2,3.5 0.6,5 0.4,1.5 1,2.8 1.9,3.8 0.9,1.1 2,1.9 3.4,2.5 1.4,0.6 3.1,0.9 5.2,0.9 3.3,0 6.4,-1.1 9.2,-3.4 l -3.6,-5.5 c -0.6,0.4 -1.2,0.8 -1.9,1.1 -0.7,0.3 -1.4,0.5 -2.4,0.5 -1.2,0 -2.1,-0.4 -2.6,-1.1 -0.6,-0.8 -0.8,-1.9 -0.8,-3.3 v -11.5 h 7.5 v -7 h -7.5 v -8.8 h -8.9 v 8.8 h -4.6 v 7 h 4.6 z m -28,-6.5 c 0,-0.6 0.1,-1.3 0.4,-1.9 0.3,-0.6 0.7,-1.2 1.2,-1.8 0.5,-0.5 1.2,-1 2,-1.3 0.8,-0.4 1.7,-0.5 2.7,-0.5 1,0 1.9,0.2 2.7,0.5 0.7,0.4 1.4,0.8 1.9,1.3 0.5,0.5 0.9,1.1 1.1,1.8 0.2,0.6 0.4,1.3 0.4,1.9 z m 16.4,8.8 c -0.7,0.5 -1.7,1.1 -3.2,1.8 -1.4,0.7 -3.3,1 -5.7,1 -2.4,0 -4.2,-0.6 -5.6,-1.8 -1.3,-1.2 -2,-2.6 -2.1,-4.1 h 20.7 v -1.5 c 0,-2.4 -0.3,-4.7 -0.9,-6.7 -0.6,-2.1 -1.5,-3.8 -2.8,-5.3 -1.2,-1.5 -2.7,-2.6 -4.5,-3.4 -1.8,-0.8 -3.9,-1.2 -6.2,-1.2 -2.4,0 -4.5,0.4 -6.3,1.3 -1.8,0.9 -3.4,2 -4.7,3.4 -1.3,1.4 -2.3,3.1 -3,4.9 -0.7,1.9 -1,3.8 -1,5.9 0,2.3 0.4,4.4 1.1,6.4 0.7,1.9 1.8,3.6 3.2,4.9 1.4,1.4 3.1,2.4 5.1,3.2 2,0.8 4.2,1.1 6.7,1.1 1.9,0 3.5,-0.2 5,-0.5 1.4,-0.4 2.7,-0.8 3.8,-1.2 1.1,-0.5 1.9,-0.9 2.6,-1.4 0.7,-0.5 1.2,-0.8 1.5,-1 z m -38.4,8.9 h 8.9 v -29.1 h -8.9 z m -0.3,-33.5 h 9.6 v -8 h -9.6 z m -9.2,23.8 c -0.6,0.7 -1.4,1.4 -2.5,2 -1,0.6 -2.3,0.9 -3.9,0.9 -1.1,0 -2,-0.2 -2.9,-0.7 -0.8,-0.5 -1.6,-1 -2.2,-1.8 -0.6,-0.7 -1.1,-1.6 -1.4,-2.5 -0.3,-0.9 -0.5,-1.9 -0.5,-2.8 0,-1 0.2,-2 0.5,-3 0.3,-0.9 0.8,-1.7 1.4,-2.5 0.6,-0.7 1.3,-1.3 2.2,-1.7 0.8,-0.4 1.8,-0.7 2.9,-0.7 1.6,0 2.8,0.3 3.8,0.9 1,0.6 1.8,1.2 2.4,2 l 5.4,-5.8 c -1.3,-1.5 -3,-2.6 -4.9,-3.5 -1.9,-0.9 -4.2,-1.3 -6.9,-1.3 -2.3,0 -4.4,0.4 -6.3,1.2 -1.9,0.8 -3.6,1.9 -5,3.3 -1.4,1.4 -2.5,3.1 -3.3,4.9 -0.8,1.9 -1.2,3.9 -1.2,6.1 0,2.3 0.4,4.4 1.1,6.3 0.8,1.9 1.8,3.6 3.2,4.9 1.4,1.4 3,2.5 4.9,3.2 1.9,0.8 4.1,1.1 6.4,1.1 2.7,0 5,-0.5 7,-1.4 2,-1 3.6,-2.1 4.8,-3.4 z m -55.2,1.1 c 0.8,1.9 1.8,3.5 3.2,4.9 1.4,1.4 3,2.5 4.9,3.4 1.9,0.8 4,1.2 6.4,1.2 2.3,0 4.4,-0.4 6.3,-1.2 1.9,-0.8 3.5,-1.9 4.9,-3.4 1.4,-1.4 2.4,-3.1 3.2,-4.9 0.8,-1.9 1.1,-3.9 1.1,-6.1 0,-2.2 -0.4,-4.2 -1.1,-6.1 -0.8,-1.9 -1.8,-3.5 -3.2,-4.9 -1.4,-1.4 -3,-2.5 -4.9,-3.3 -1.9,-0.8 -4,-1.2 -6.3,-1.2 -2.3,0 -4.4,0.4 -6.4,1.2 -1.9,0.8 -3.6,1.9 -4.9,3.3 -1.4,1.4 -2.4,3.1 -3.2,4.9 -0.8,1.9 -1.1,3.9 -1.1,6.1 0,2.2 0.4,4.2 1.1,6.1 z m 11.5,1.1 c -0.9,-0.4 -1.6,-1 -2.2,-1.8 -0.6,-0.7 -1,-1.6 -1.3,-2.5 -0.3,-0.9 -0.5,-1.9 -0.5,-2.9 0,-1 0.2,-2 0.5,-2.9 0.3,-0.9 0.8,-1.8 1.3,-2.5 0.6,-0.7 1.3,-1.3 2.2,-1.7 0.9,-0.4 1.9,-0.7 3,-0.7 1.1,0 2.1,0.2 3,0.7 0.9,0.4 1.6,1 2.2,1.7 0.6,0.7 1,1.6 1.3,2.5 0.3,0.9 0.4,1.9 0.4,2.9 0,1 -0.1,2 -0.4,2.9 -0.3,0.9 -0.7,1.8 -1.3,2.5 -0.6,0.7 -1.3,1.3 -2.2,1.8 -0.9,0.4 -1.9,0.7 -3,0.7 -1.1,0 -2.1,-0.2 -3,-0.7 z m -48.6,1.6 c 0.8,0.9 1.7,1.7 2.8,2.5 1.1,0.8 2.3,1.6 3.7,2.2 1.4,0.6 2.9,1.2 4.6,1.6 1.7,0.4 3.6,0.6 5.7,0.6 2.2,0 4.3,-0.3 6.2,-1 1.9,-0.6 3.6,-1.5 5,-2.7 1.4,-1.2 2.6,-2.5 3.4,-4.1 0.8,-1.6 1.2,-3.3 1.2,-5.2 0,-2.2 -0.4,-4 -1.1,-5.5 -0.7,-1.5 -1.6,-2.8 -2.8,-3.8 -1.2,-1 -2.5,-1.9 -3.9,-2.5 -1.5,-0.6 -3,-1.1 -4.5,-1.5 -2.6,-0.6 -4.7,-1.3 -6.2,-2.2 -1.5,-0.9 -2.2,-2 -2.2,-3.4 0,-0.5 0.2,-1 0.5,-1.5 0.3,-0.5 0.7,-0.9 1.2,-1.2 0.5,-0.4 1.1,-0.6 1.7,-0.8 0.6,-0.2 1.3,-0.3 2,-0.3 1,0 1.9,0.1 2.8,0.4 0.9,0.2 1.7,0.6 2.5,0.9 0.8,0.3 1.4,0.8 2,1.2 0.6,0.4 1.1,0.8 1.6,1.2 l 5.4,-6 c -0.4,-0.4 -0.9,-0.9 -1.6,-1.5 -0.7,-0.6 -1.7,-1.3 -2.8,-1.9 -1.1,-0.6 -2.5,-1.1 -4.1,-1.6 -1.6,-0.5 -3.5,-0.7 -5.6,-0.7 -2.6,0 -4.8,0.3 -6.7,1 -1.9,0.7 -3.5,1.6 -4.7,2.8 -1.3,1.2 -2.2,2.5 -2.8,4.1 -0.6,1.5 -0.9,3.2 -0.9,4.9 0,1.6 0.3,3 0.8,4.3 0.5,1.3 1.3,2.4 2.3,3.4 1,1 2.1,1.8 3.5,2.5 1.3,0.7 2.8,1.2 4.4,1.6 3.2,0.8 5.6,1.7 7.1,2.5 1.5,0.8 2.2,2 2.2,3.6 0,0.7 -0.2,1.3 -0.5,1.9 -0.4,0.6 -0.8,1 -1.4,1.4 -0.6,0.4 -1.2,0.7 -1.9,0.9 -0.7,0.2 -1.4,0.3 -2.1,0.3 -1.2,0 -2.3,-0.2 -3.4,-0.5 -1.1,-0.3 -2,-0.7 -2.9,-1.2 -0.9,-0.5 -1.7,-1 -2.4,-1.6 -0.7,-0.6 -1.4,-1.2 -1.9,-1.8 z m -22.1,-7.1 c 0,1.9 -0.5,3.3 -1.5,4.2 -1,0.9 -2.4,1.3 -4.2,1.3 -1.9,0 -3.4,-0.6 -4.4,-1.9 -1,-1.2 -1.5,-2.9 -1.5,-5 0,-1.1 0.2,-2.1 0.5,-3.1 0.3,-1 0.8,-1.8 1.4,-2.5 0.6,-0.7 1.4,-1.3 2.4,-1.7 1,-0.4 2.1,-0.7 3.4,-0.7 1,0 1.7,0.1 2.3,0.2 0.6,0.1 1.2,0.3 1.7,0.5 v 8.7 z m -18.2,23 c 1.6,1.1 3.4,1.9 5.3,2.4 1.9,0.5 4.2,0.7 6.8,0.7 4.6,0 8.2,-1.2 10.9,-3.4 2.6,-2.3 4,-5.9 4,-10.7 v -26.6 c -1.7,-0.6 -3.7,-1.1 -5.9,-1.6 -2.2,-0.5 -4.5,-0.6 -6.9,-0.6 -2.5,0 -4.8,0.4 -6.9,1.1 -2,0.7 -3.8,1.8 -5.3,3.2 -1.5,1.4 -2.6,3 -3.4,5 -0.8,1.9 -1.2,4.1 -1.2,6.4 0,2 0.3,3.9 0.9,5.6 0.6,1.7 1.5,3.2 2.6,4.4 1.1,1.2 2.5,2.2 4.1,2.9 1.6,0.7 3.5,1 5.6,1 3.1,0 5.6,-0.8 7.5,-2.4 v 2 c 0,2.2 -0.6,3.8 -1.7,4.8 -1.2,1.1 -2.8,1.6 -4.8,1.6 -1.6,0 -3,-0.2 -4.3,-0.6 -1.3,-0.4 -2.5,-0.9 -3.7,-1.6 z m -34.8,-10 h 8.9 v -15.7 c 0,-0.9 0.1,-1.7 0.4,-2.5 0.2,-0.8 0.6,-1.4 1.1,-2 0.5,-0.6 1.1,-1 1.9,-1.4 0.7,-0.4 1.6,-0.5 2.6,-0.5 1.4,0 2.6,0.5 3.4,1.4 0.8,1 1.2,2.2 1.2,3.9 v 16.8 h 8.9 v -18 c 0,-3.9 -1,-6.8 -3,-8.8 -2,-2 -4.6,-3 -8,-3 -1.7,0 -3.3,0.4 -4.9,1.1 -1.6,0.7 -2.8,1.6 -3.8,2.8 l -0.2,-3.2 h -8.6 v 29.1 z m -14.6,0 h 8.9 v -29.1 h -8.9 z M 326,336.9 h 9.6 v -8 H 326 Z m -14.2,20.3 c 0,0.8 -0.1,1.6 -0.3,2.4 -0.2,0.8 -0.6,1.5 -1,2.1 -0.5,0.6 -1.1,1 -1.8,1.4 -0.7,0.4 -1.6,0.5 -2.6,0.5 -2.1,0 -3.6,-0.7 -4.7,-2 -1,-1.3 -1.6,-3.1 -1.6,-5.2 0,-2.4 0.6,-4.4 1.9,-5.9 1.3,-1.5 3,-2.3 5.3,-2.3 1.1,0 2,0.1 2.7,0.2 0.7,0.2 1.4,0.4 2,0.8 z m 0.6,13.2 h 8.3 V 329 h -8.9 v 12.7 c -0.8,-0.3 -1.6,-0.5 -2.4,-0.7 -0.8,-0.2 -1.9,-0.3 -3.3,-0.3 -1.7,0 -3.5,0.3 -5.3,1 -1.8,0.6 -3.4,1.6 -4.9,2.9 -1.5,1.3 -2.7,2.9 -3.6,4.9 -0.9,2 -1.4,4.3 -1.4,6.9 0,2.3 0.3,4.4 1,6.2 0.7,1.8 1.6,3.4 2.7,4.7 1.1,1.3 2.5,2.3 4,3 1.6,0.7 3.2,1.1 5,1.1 1.8,0 3.4,-0.4 4.9,-1.1 1.4,-0.7 2.6,-1.6 3.5,-2.7 z m -34.5,0 h 8.9 V 329 h -8.9 z m -14.5,0 h 8.9 v -29.1 h -8.9 z m -0.3,-33.5 h 9.6 v -8 h -9.6 z m -33.7,22.4 c 0,3.9 1,6.8 2.9,8.8 1.9,2 4.6,3 8,3 1.7,0 3.3,-0.4 4.9,-1.1 1.6,-0.7 2.8,-1.6 3.8,-2.8 l 0.2,3.1 h 8.6 v -29.1 h -8.9 v 15.7 c 0,0.8 -0.1,1.6 -0.4,2.4 -0.2,0.8 -0.6,1.5 -1.1,2.1 -0.5,0.6 -1.1,1 -1.8,1.4 -0.7,0.4 -1.5,0.5 -2.4,0.5 -1.6,0 -2.8,-0.5 -3.6,-1.4 -0.8,-1 -1.2,-2.3 -1.2,-3.9 v -16.8 h -8.9 z m -26.9,3.9 v -10.8 h 6.1 c 0.7,0 1.5,0.1 2.3,0.2 0.8,0.1 1.6,0.4 2.3,0.8 0.7,0.4 1.3,0.9 1.7,1.6 0.5,0.7 0.7,1.6 0.7,2.7 0,1.2 -0.2,2.2 -0.7,2.9 -0.5,0.7 -1.1,1.2 -1.8,1.6 -0.7,0.4 -1.5,0.6 -2.3,0.7 -0.8,0.1 -1.6,0.2 -2.2,0.2 h -6.1 z m 0,-17.7 v -9.3 h 5.5 c 0.7,0 1.3,0.1 2,0.2 0.7,0.1 1.3,0.4 1.8,0.7 0.5,0.4 1,0.8 1.3,1.4 0.3,0.6 0.5,1.4 0.5,2.3 0,0.9 -0.2,1.6 -0.5,2.2 -0.3,0.6 -0.8,1.1 -1.3,1.4 -0.5,0.4 -1.1,0.6 -1.8,0.8 -0.7,0.2 -1.4,0.2 -2.1,0.2 h -5.4 z m -9.1,24.9 h 15.5 c 2.5,0 4.7,-0.2 6.7,-0.7 2,-0.4 3.7,-1.1 5.1,-2.1 1.4,-1 2.5,-2.2 3.2,-3.7 0.8,-1.5 1.1,-3.3 1.1,-5.5 0,-1.7 -0.3,-3.1 -0.9,-4.3 -0.6,-1.2 -1.3,-2.2 -2.2,-3 -0.9,-0.8 -1.8,-1.4 -2.8,-1.9 -1,-0.4 -1.8,-0.7 -2.6,-0.9 0.5,-0.1 1.1,-0.4 1.8,-0.8 0.7,-0.4 1.4,-1 2,-1.7 0.6,-0.7 1.2,-1.6 1.7,-2.6 0.5,-1 0.7,-2.2 0.7,-3.5 0,-1.4 -0.2,-2.8 -0.7,-4.1 -0.5,-1.3 -1.3,-2.5 -2.4,-3.4 -1.1,-0.9 -2.6,-1.8 -4.3,-2.4 -1.8,-0.6 -4,-0.9 -6.5,-0.9 h -15.5 v 41.5 z m -40.9,-3.3 c 1.4,1.5 3.3,2.5 5.7,3.2 2.3,0.7 4.8,1.1 7.4,1.1 1.6,0 3.2,-0.2 4.8,-0.6 1.6,-0.4 2.9,-0.9 4.2,-1.7 1.2,-0.8 2.2,-1.7 2.9,-2.9 0.7,-1.2 1.1,-2.5 1.1,-4.2 0,-2.4 -0.7,-4.3 -2,-5.8 -1.3,-1.4 -3.5,-2.6 -6.5,-3.4 -2.2,-0.6 -3.9,-1.1 -5.2,-1.6 -1.3,-0.5 -1.9,-1.2 -1.9,-2.1 0,-0.7 0.3,-1.2 0.9,-1.6 0.6,-0.4 1.6,-0.6 3,-0.6 1.5,0 2.9,0.2 4.1,0.7 1.2,0.5 2.3,1.1 3.3,1.7 l 3.8,-5.9 c -1.6,-1.1 -3.3,-1.9 -5.2,-2.5 -1.9,-0.6 -4,-0.8 -6.5,-0.8 -1.7,0 -3.4,0.2 -4.9,0.7 -1.5,0.4 -2.8,1.1 -3.9,1.9 -1.1,0.8 -2,1.8 -2.6,2.9 -0.6,1.1 -0.9,2.3 -0.9,3.7 0,1.3 0.3,2.5 0.8,3.5 0.5,1 1.2,1.8 2,2.5 0.8,0.7 1.8,1.3 2.9,1.8 1.1,0.5 2.2,0.9 3.3,1.1 1.4,0.4 2.5,0.7 3.4,1 0.9,0.3 1.6,0.6 2.1,0.8 0.5,0.3 0.8,0.6 1,0.9 0.2,0.3 0.3,0.7 0.3,1 0,1 -0.4,1.6 -1.3,1.9 -0.9,0.3 -2,0.5 -3.3,0.5 -1.4,0 -3,-0.3 -4.5,-0.9 -1.6,-0.6 -2.8,-1.3 -3.8,-2.2 z m -12.8,-9.9 c 0,0.8 -0.1,1.6 -0.3,2.4 -0.2,0.8 -0.6,1.5 -1,2.1 -0.5,0.6 -1.1,1 -1.8,1.4 -0.7,0.4 -1.6,0.5 -2.6,0.5 -2.1,0 -3.6,-0.7 -4.7,-2 -1,-1.3 -1.6,-3.1 -1.6,-5.2 0,-2.4 0.6,-4.4 1.9,-5.9 1.3,-1.5 3,-2.3 5.3,-2.3 1.1,0 2,0.1 2.7,0.2 0.7,0.2 1.4,0.4 2,0.8 z m 0.6,13.2 h 8.3 V 329 h -8.9 v 12.7 c -0.8,-0.3 -1.6,-0.5 -2.4,-0.7 -0.8,-0.2 -1.9,-0.3 -3.3,-0.3 -1.7,0 -3.5,0.3 -5.3,1 -1.8,0.6 -3.4,1.6 -4.9,2.9 -1.5,1.3 -2.7,2.9 -3.6,4.9 -0.9,2 -1.4,4.3 -1.4,6.9 0,2.3 0.3,4.4 1,6.2 0.7,1.8 1.6,3.4 2.7,4.7 1.1,1.3 2.5,2.3 4,3 1.6,0.7 3.2,1.1 5,1.1 1.8,0 3.4,-0.4 4.9,-1.1 1.4,-0.7 2.6,-1.6 3.5,-2.7 z M 94.2,352.7 c 0,-0.6 0.1,-1.3 0.4,-1.9 0.3,-0.6 0.7,-1.2 1.2,-1.8 0.5,-0.5 1.2,-1 2,-1.3 0.8,-0.4 1.7,-0.5 2.7,-0.5 1,0 1.9,0.2 2.7,0.5 0.7,0.4 1.4,0.8 1.9,1.3 0.5,0.5 0.9,1.1 1.1,1.8 0.2,0.6 0.4,1.3 0.4,1.9 z m 16.5,8.8 c -0.7,0.5 -1.7,1.1 -3.2,1.8 -1.4,0.7 -3.3,1 -5.7,1 -2.4,0 -4.2,-0.6 -5.6,-1.8 -1.3,-1.2 -2,-2.6 -2.1,-4.1 H 115 v -1.5 c 0,-2.4 -0.3,-4.7 -0.9,-6.7 -0.6,-2.1 -1.5,-3.8 -2.8,-5.3 -1.2,-1.5 -2.7,-2.6 -4.5,-3.4 -1.8,-0.8 -3.9,-1.2 -6.2,-1.2 -2.4,0 -4.5,0.4 -6.3,1.3 -1.9,0.8 -3.4,2 -4.7,3.4 -1.3,1.4 -2.3,3.1 -3,4.9 -0.7,1.9 -1,3.8 -1,5.9 0,2.3 0.4,4.4 1.1,6.4 0.7,1.9 1.8,3.6 3.2,4.9 1.4,1.4 3.1,2.4 5.1,3.2 2,0.8 4.2,1.1 6.7,1.1 1.9,0 3.5,-0.2 5,-0.5 1.4,-0.4 2.7,-0.8 3.8,-1.2 1.1,-0.5 1.9,-0.9 2.6,-1.4 0.7,-0.5 1.2,-0.8 1.5,-1 z M 61,352.7 c 0,-0.6 0.1,-1.3 0.4,-1.9 0.3,-0.6 0.7,-1.2 1.2,-1.8 0.5,-0.5 1.2,-1 2,-1.3 0.8,-0.4 1.7,-0.5 2.7,-0.5 1,0 1.9,0.2 2.7,0.5 0.7,0.4 1.4,0.8 1.9,1.3 0.5,0.5 0.9,1.1 1.1,1.8 0.2,0.6 0.4,1.3 0.4,1.9 z m 16.5,8.8 c -0.7,0.5 -1.7,1.1 -3.2,1.8 -1.4,0.7 -3.3,1 -5.7,1 -2.4,0 -4.2,-0.6 -5.6,-1.8 -1.3,-1.2 -2,-2.6 -2.1,-4.1 h 20.7 v -1.5 c 0,-2.4 -0.3,-4.7 -0.9,-6.7 -0.6,-2.1 -1.5,-3.8 -2.8,-5.3 -1.2,-1.5 -2.7,-2.6 -4.5,-3.4 -1.8,-0.8 -3.9,-1.2 -6.2,-1.2 -2.4,0 -4.5,0.4 -6.3,1.3 -1.9,0.8 -3.4,2 -4.7,3.4 -1.3,1.4 -2.3,3.1 -3,4.9 -0.7,1.8 -1,3.8 -1,5.9 0,2.3 0.4,4.4 1.1,6.4 0.7,1.9 1.8,3.6 3.2,4.9 1.4,1.4 3.1,2.4 5.1,3.2 2,0.8 4.2,1.1 6.7,1.1 1.9,0 3.5,-0.2 5,-0.5 1.4,-0.4 2.7,-0.8 3.8,-1.2 1.1,-0.5 1.9,-0.9 2.6,-1.4 0.7,-0.5 1.2,-0.8 1.5,-1 z m -56.6,8.9 H 50.1 V 362 H 30.3 v -33.1 h -9.4 z"
         id="path324"
         style="fill:#ffffff" /></g></g><style
     type="text/css"
     id="style318">
	.st0{fill:#FCD900;}
	.st1{fill:#F5B32D;}
	.st2{fill:#182745;}
</style></svg>
