<?xml version="1.0" encoding="UTF-8" standalone="no"?>
<!-- Created with Inkscape (http://www.inkscape.org/) -->

<svg
   width="8.2020826mm"
   height="8.3079166mm"
   viewBox="0 0 8.2020826 8.3079166"
   version="1.1"
   id="svg5"
   xml:space="preserve"
   inkscape:export-filename="skipton.svg"
   inkscape:export-xdpi="94.777069"
   inkscape:export-ydpi="94.777069"
   xmlns:inkscape="http://www.inkscape.org/namespaces/inkscape"
   xmlns:sodipodi="http://sodipodi.sourceforge.net/DTD/sodipodi-0.dtd"
   xmlns="http://www.w3.org/2000/svg"
   xmlns:svg="http://www.w3.org/2000/svg"><sodipodi:namedview
     id="namedview7"
     pagecolor="#ffffff"
     bordercolor="#000000"
     borderopacity="0.25"
     inkscape:showpageshadow="2"
     inkscape:pageopacity="0.0"
     inkscape:pagecheckerboard="0"
     inkscape:deskcolor="#d1d1d1"
     inkscape:document-units="mm"
     showgrid="false" /><defs
     id="defs2"><clipPath
       id="_clipPath_Ao34CuVVrB7sENQ35N5dYoRkgJW58WIl"><rect
         width="24"
         height="24"
         id="rect24"
         x="0"
         y="0" /></clipPath></defs><g
     inkscape:label="Layer 1"
     inkscape:groupmode="layer"
     id="layer1"><g
       style="isolation:isolate"
       id="g44"
       transform="matrix(0.26912418,0,0,0.26912418,0.03170142,-0.02907286)"><g
         clip-path="url(#_clipPath_Ao34CuVVrB7sENQ35N5dYoRkgJW58WIl)"
         id="g33"
         style="fill:#2f00c1;fill-opacity:1"
         transform="matrix(1.2811073,0,0,1.2811073,0.58067728,0.02555877)"><path
           d="m 18.593,16.825 c 1.777,-1.819 2.97,-4.201 2.97,-6.924 0,-5.278 -4.285,-9.563 -9.563,-9.563 -5.278,0 -9.562,4.285 -9.562,9.563 0,2.756 1.088,5.053 3.036,6.987 H 5.473 l 6.138,6.774 6.994,-6.837 z"
           fill="#00afe9"
           id="path29"
           style="fill:#2f00c1;fill-opacity:1" /><path
           d="m 11.6,5.021 c -0.31,0 -0.374,0.054 -0.475,0.166 -0.039,-0.002 -0.08,-0.003 -0.124,-0.003 -0.238,0 -0.544,0.035 -0.805,0.209 C 9.944,5.56 9.824,5.854 9.959,6.07 c 0,0 0.09,-0.132 0.386,-0.132 0.042,0 0.088,0.004 0.137,0.008 0.41,0.049 0.713,0.264 0.676,0.833 -0.033,0.569 -0.246,1.204 -1.119,1.211 0,0 -0.112,0 -0.232,-0.011 C 9.401,7.935 9.273,7.68 9.273,7.68 c 0,0 0.351,-0.096 0.354,-0.541 C 9.624,6.836 9.36,6.558 8.979,6.446 8.855,6.41 8.718,6.392 8.575,6.392 c -0.449,0 -0.953,0.188 -1.293,0.632 -0.77,1.017 -0.833,2.5 -0.645,3.879 0.189,1.382 1.066,2.663 1.092,2.698 0.018,0.024 0.035,0.038 0.054,0.038 0.01,0 0.02,-0.005 0.03,-0.013 0.379,-0.368 0.74,-0.87 0.894,-1.206 0.166,0.132 0.079,0.412 -0.012,0.712 -0.086,0.306 -0.296,0.712 -0.372,0.843 -0.073,0.128 -0.172,0.277 -0.039,0.355 0.013,0.008 0.03,0.012 0.051,0.012 0.169,0 0.569,-0.296 1.014,-0.89 0.499,-0.668 0.752,-1.262 0.752,-1.262 0.037,0.008 0.098,0.07 0.088,0.238 -0.007,0.171 -0.183,0.807 -0.525,1.399 -0.346,0.592 -0.665,0.962 -0.729,1.046 -0.04,0.048 -0.006,0.079 0.019,0.099 0.026,0.017 0.637,0.588 1.526,1.07 1.053,0.561 1.519,0.662 1.519,0.662 0,0 0.466,-0.098 1.519,-0.659 0.888,-0.483 1.502,-1.057 1.525,-1.076 0.026,-0.017 0.059,-0.045 0.02,-0.099 -0.061,-0.08 -0.381,-0.452 -0.726,-1.043 -0.341,-0.588 -0.524,-1.228 -0.526,-1.397 -0.008,-0.17 0.05,-0.226 0.085,-0.24 0,0 0.256,0.597 0.754,1.262 0.448,0.595 0.844,0.89 1.014,0.89 0.022,0 0.039,-0.005 0.053,-0.013 0.128,-0.078 0.033,-0.229 -0.042,-0.355 -0.07,-0.131 -0.283,-0.534 -0.374,-0.843 -0.086,-0.302 -0.176,-0.582 -0.008,-0.711 0.155,0.336 0.513,0.84 0.893,1.203 0.01,0.01 0.021,0.015 0.033,0.015 0.016,0 0.034,-0.013 0.05,-0.035 0.028,-0.038 0.906,-1.316 1.094,-2.7 C 17.551,9.521 17.489,8.041 16.717,7.023 16.38,6.578 15.872,6.389 15.42,6.389 c -0.141,0 -0.276,0.019 -0.399,0.054 -0.384,0.115 -0.647,0.395 -0.644,0.695 0,0.446 0.353,0.541 0.353,0.541 0,0 -0.118,0.249 -0.539,0.299 -0.079,0.01 -0.155,0.015 -0.228,0.015 -0.316,0 -0.583,-0.101 -0.829,-0.448 C 12.896,7.211 12.904,6.524 12.89,6.294 12.879,6.062 12.83,5.54 12.585,5.327 12.341,5.108 12.044,5.035 11.674,5.02 11.647,5.021 11.622,5.021 11.6,5.021 Z"
           fill="#ffffff"
           id="path31"
           style="fill:#2f00c1;fill-opacity:1" /></g><g
         id="g573"
         transform="matrix(0.04253217,0,0,0.04253217,8.3441102,2.699891)"><g
           id="g673"
           transform="translate(8.5094663,-39.143545)"><path
             class="st1"
             d="m 3.1,204.2 23.8,52.5 31.7,-67.5 H 94.8 L 119,363.4 H 72.3 L 62.7,292.1 26.9,363.4 -6,292.1 Z m -55,-15 -19.1,174.2 h 44.2 L -7.6,189.2 Z"
             id="path560" /><path
             class="st2"
             d="m 128.1,189.2 h 47.5 v 23.3 h -24.2 v 9.2 h 17.9 V 245 h -17.9 v 9.2 h 24.2 v 23.3 h -47.5 z m 57.1,0 h 54.6 l -0.4,22.1 H 224 v 66.3 H 201 V 211.3 H 185.2 Z M 309,217.5 c 0,-18.8 -12.5,-28.3 -30,-28.3 h -30.4 v 88.3 h 22.9 v -36.7 h 0.4 l 15.4,36.3 h 26.3 l -17.1,-38.3 c 7.6,-4.4 12.3,-12.5 12.5,-21.3 m -37.1,13.4 v -22.1 c 8.8,0 13.8,2.9 13.8,10.8 0,7.9 -5.4,10.8 -13.8,10.8 m 87.5,-42 c -24.8,-0.5 -45.4,19.3 -45.8,44.2 -0.4,24.9 19.3,45.4 44.2,45.8 24.8,0.5 45.4,-19.3 45.8,-44.2 v -0.8 c 0.2,-24.7 -19.6,-44.8 -44.2,-45 0,0 0,0 0,0 v 0 m 0,66.6 c -12,0 -21.7,-9.7 -21.7,-21.7 0,-12 9.7,-21.7 21.7,-21.7 12.1,0 21.9,9.8 21.9,21.9 0,12.1 -9.8,21.9 -21.9,21.9 m -166.3,76.3 c 4,-2.9 6.3,-7.6 6.3,-12.5 0.7,-8.7 -5.8,-16.4 -14.5,-17.1 -0.9,-0.1 -1.8,-0.1 -2.6,0 h -40.8 v 61.3 h 40.4 c 5.2,0.3 10.3,-1.2 14.6,-4.2 3.4,-3.1 5.3,-7.5 5,-12.1 0.6,-6.3 -2.7,-12.5 -8.4,-15.4 m -42.5,-19.6 h 32.5 c 2,-0.1 4,0.7 5.4,2.1 2.8,3.1 2.8,7.8 0,10.8 -1.4,1.4 -3.4,2.2 -5.4,2.1 h -32.5 z m 31.3,41.7 h -31.3 v -16.7 h 32.5 c 5.8,0 8.7,2.5 8.7,8.3 0,5.8 -3.3,7.9 -10,7.9 m 51.3,-51.2 -27.5,61.3 h 9.2 l 5.8,-13.8 h 34.6 l 6.7,13.8 h 9.2 L 243.6,302.1 Z M 226,340 238.5,311.7 251,340 Z m 95,23.4 -32.5,-48.4 v 48.3 H 279 V 302 h 11.2 l 32.5,48.8 V 302 h 9.6 v 61 0.4 z m 82.5,-0.9 0.4,0.8 h -12.1 l -24.2,-31.7 -11.3,12.9 v 18.8 h -9.6 V 302 h 9.6 v 31 L 388,302.2 h 13.3 l -26.7,23.3 z"
             id="path562" /></g></g></g></g><style
     type="text/css"
     id="style556">
	.st0{fill:#2548AF;}
	.st1{fill:#ED1C24;}
	.st2{fill:#FFFFFF;}
</style></svg>
