<?xml version="1.0" encoding="UTF-8" standalone="no"?>
<svg
   viewBox="0 0 18.040001 21.999998"
   width="18.040001pt"
   height="21.999998pt"
   version="1.1"
   id="svg1"
   xml:space="preserve"
   xmlns="http://www.w3.org/2000/svg"
   xmlns:svg="http://www.w3.org/2000/svg"><defs
     id="defs1" /><path
     d="M 15.239,15.551 C 16.916,13.836 18.04,11.588 18.04,9.02 18.04,4.042 13.998,1.7462993e-8 9.0199999,1.7462993e-8 4.0419999,1.7462993e-8 -8.3887577e-8,4.042 -8.3887577e-8,9.02 -8.3887577e-8,11.62 1.0269999,13.787 2.8639999,15.61 v 0 L 8.6529999,22 15.25,15.551 Z"
     fill="#FF69B4"
     id="path1"
     style="fill:#ffffff;fill-opacity:1" /><path
     d="M 5.090604,3.739777 C 4.2340455,3.8309592 3.4477592,4.1525258 2.7815966,4.6840395 2.6291794,4.8056595 2.2710349,5.1563029 2.1778096,5.2751819 2.1421647,5.3206717 2.0846768,5.3923969 2.0501227,5.4346132 1.7773831,5.7676931 1.4530226,6.4031128 1.3292996,6.8467342 1.2664935,7.072127 1.1997023,7.407759 1.1781158,7.606949 c -0.012761,0.1178581 -0.01989,0.9833591 -0.01989,2.417694 v 2.234102 l 0.040707,0.06584 c 0.098935,0.160055 0.3458258,0.151396 0.43523,-0.0153 0.032864,-0.0613 0.034576,-0.168526 0.034576,-2.222663 0,-2.14948 0.0057,-2.367783 0.067226,-2.7010894 C 1.9519855,6.2201787 2.7228967,5.1940743 3.7776845,4.6679679 4.2105292,4.4520646 4.5632714,4.3434136 5.0207509,4.2850902 c 1.1061704,-0.1410179 2.270626,0.2257712 3.049899,0.960672 l 0.156728,0.1477854 -0.07954,0.097989 c -0.04373,0.05388 -0.108271,0.1429835 -0.143419,0.1979805 -0.03515,0.055014 -0.07058,0.097554 -0.07872,0.094528 -0.0082,-0.00299 -0.07481,-0.062728 -0.148144,-0.1326991 C 7.3329509,5.2271399 6.764968,4.9361822 6.1189611,4.801725 5.9421174,4.7649182 5.8557379,4.7588658 5.5066072,4.7588301 5.1585729,4.7587795 5.0691871,4.764961 4.884838,4.8019745 3.9431847,4.9908613 3.1437021,5.5547603 2.6424964,6.3835473 2.4719646,6.6655255 2.3187134,7.061693 2.2329592,7.4422646 l -0.042632,0.1890561 -0.00642,2.3008383 c -0.00642,2.498931 -0.010836,2.393117 0.095478,2.462784 0.1152111,0.07549 0.2936061,0.04462 0.3670913,-0.06352 0.031438,-0.04628 0.034147,-0.188943 0.044769,-2.327438 0.00977,-1.9786715 0.015185,-2.2967783 0.041277,-2.4199296 C 2.8370738,7.0898787 3.0520114,6.6305094 3.3341406,6.2983549 3.8819319,5.6534074 4.5731414,5.3144296 5.4024387,5.2840667 c 0.3463897,-0.012683 0.6109745,0.022249 0.9410674,0.1243049 0.4552102,0.1407142 0.9103078,0.4342254 1.2429338,0.8016377 0.0798,0.088157 0.08171,0.093091 0.05791,0.1512451 -0.01354,0.03305 -0.06008,0.1595453 -0.103433,0.2810705 L 7.4620969,6.8633134 7.3499679,6.7115393 C 7.1379219,6.4245503 6.8141435,6.1568472 6.4946765,6.0043723 6.1754353,5.8520122 5.879297,5.7870325 5.5032252,5.7868251 4.9580987,5.7864921 4.4873481,5.9491115 4.0511948,6.2883544 4.0249175,6.3087931 3.9328263,6.3963809 3.846541,6.4829878 3.5990464,6.7314277 3.3945636,7.0669278 3.2947411,7.3883425 3.1870361,7.7351483 3.1935389,7.5801399 3.1860523,9.97562 c -0.00377,1.216579 -0.00193,2.239357 0.00421,2.272857 0.015634,0.0854 0.1180477,0.188131 0.2035196,0.204164 0.09139,0.01715 0.2185874,-0.04303 0.269727,-0.127595 0.036544,-0.06044 0.037619,-0.112714 0.047244,-2.321068 0.00889,-2.0359501 0.012967,-2.2695112 0.041362,-2.3632078 0.2127469,-0.7024395 0.748136,-1.19565 1.4262253,-1.3139052 0.8716655,-0.1520008 1.7150084,0.3532527 2.0008987,1.1987328 0.05386,0.1593363 0.07736,0.3244394 0.103812,0.7296073 0.01017,0.1559716 0.02343,0.3091073 0.02941,0.3403015 0.0754,0.39199 0.153533,0.6403544 0.294342,0.9355284 0.260331,0.545769 0.719776,1.059435 1.240022,1.386389 0.170567,0.107194 0.501246,0.260313 0.716166,0.331586 0.318314,0.105573 0.5434991,0.146955 0.8966771,0.164746 0.196902,0.01 0.223124,0.0074 0.277837,-0.02735 0.159885,-0.101413 0.174347,-0.311453 0.0302,-0.438045 -0.05174,-0.04543 -0.08065,-0.05581 -0.155441,-0.05581 -0.05052,0 -0.179339,-0.009 -0.286231,-0.01995 -1.1351391,-0.1165 -2.1141511,-0.951657 -2.4108191,-2.0566179 -0.204389,-0.7612743 -0.06921,-1.7455022 0.345766,-2.5172325 0.594242,-1.1051304 1.686121,-1.861527 2.9070861,-2.0138685 1.991429,-0.2484585 3.842218,1.0885312 4.23415,3.0587092 0.04405,0.2214239 0.05449,0.3212263 0.07761,0.7414613 0.0165,0.2998625 0.06819,0.4712426 0.208169,0.6900567 0.222048,0.3471077 0.616363,0.5739007 1.001093,0.5757917 0.141566,6.99e-4 0.178621,-0.0055 0.220592,-0.03698 0.09844,-0.07381 0.135213,-0.209153 0.0837,-0.308162 C 16.9417,8.9064686 16.881093,8.8685226 16.743422,8.8493136 16.459247,8.8096718 16.278829,8.7154264 16.154108,8.5414563 16.032584,8.3719482 16.014471,8.3053245 15.996851,7.9632829 15.958512,7.2187782 15.819875,6.6774151 15.513151,6.0745134 15.265354,5.5874274 14.874272,5.0983759 14.442579,4.7357651 14.272127,4.5925928 14.254902,4.5800772 13.97612,4.3970326 13.774756,4.2648254 13.339849,4.0503592 13.115912,3.9728269 12.894432,3.8961649 12.635198,3.8281425 12.388044,3.7818805 12.124215,3.7324765 11.483711,3.7127225 11.201222,3.7452805 10.270912,3.852438 9.3914779,4.2515171 8.7278689,4.8676721 l -0.134267,0.1246642 -0.0737,-0.067497 C 7.9460449,4.3991863 7.3174319,4.0505468 6.6029111,3.8616793 6.2510956,3.7686635 6.0247191,3.7409668 5.5820052,3.73677 5.3480477,3.73456 5.1268512,3.7359145 5.0904586,3.7397642 m 6.2199624,1.017484 c -0.0156,0.00377 -0.09641,0.016902 -0.179603,0.029208 -0.472396,0.069935 -0.983757,0.277838 -1.3938781,0.5667162 -0.17586,0.1238699 -0.549492,0.4773115 -0.689508,0.6522462 -0.638614,0.7978936 -0.891384,1.9537106 -0.610577,2.7918928 0.210344,0.6278376 0.635835,1.1050156 1.237224,1.3875046 0.262581,0.123341 0.5085821,0.18418 0.8449131,0.208946 0.147824,0.01088 0.170586,0.0079 0.240348,-0.03129 0.129221,-0.07262 0.172987,-0.230067 0.0981,-0.352859 C 10.80244,9.919373 10.723436,9.888106 10.506778,9.87075 10.05652,9.83472 9.6795229,9.660652 9.3781099,9.349635 8.9647559,8.9230856 8.8028859,8.4296667 8.8702279,7.8014508 c 0.06081,-0.5672644 0.276457,-1.0689456 0.654192,-1.521906 0.36592,-0.4388002 0.9036731,-0.772126 1.4646031,-0.9078307 0.47423,-0.1147384 1.064257,-0.097157 1.512453,0.045055 0.69607,0.2208558 1.294887,0.7176965 1.633223,1.3551015 0.230347,0.4339603 0.311849,0.7755094 0.342155,1.4339939 0.0059,0.1288609 0.0141,0.2396292 0.01815,0.24619 0.0041,0.00656 0.01297,0.049511 0.01981,0.095474 0.02853,0.1911744 0.148164,0.5059915 0.269689,0.7096625 0.374636,0.627818 1.007049,1.035614 1.745656,1.125642 0.108191,0.01319 0.236395,0.01801 0.28487,0.01065 0.189529,-0.02854 0.285589,-0.235565 0.181211,-0.390478 C 16.93347,9.909875 16.860742,9.877244 16.689079,9.86522 16.02638,9.81886 15.466754,9.452746 15.181561,8.8790716 15.044725,8.6038145 15.005194,8.4225087 14.979613,7.9527034 14.969412,7.7647056 14.945053,7.5489165 14.920989,7.4327979 14.642698,6.0894371 13.623627,5.0744104 12.281078,4.8033788 c -0.159317,-0.032159 -0.287101,-0.042667 -0.573634,-0.047172 -0.202764,-0.00314 -0.381423,-0.00271 -0.39702,0.00107 m 0.03781,1.0241768 c -0.440161,0.066812 -0.869509,0.2570788 -1.181604,0.5236105 -0.144155,0.123095 -0.13457,0.1137183 -0.2606711,0.2551704 -0.343535,0.3853536 -0.547773,0.8952965 -0.570118,1.4234829 -0.01539,0.3638199 0.08429,0.6683334 0.306383,0.9361132 0.220139,0.2654364 0.6433231,0.4568744 0.9663831,0.4371754 0.110186,-0.0067 0.125968,-0.01323 0.183177,-0.07568 0.08231,-0.08982 0.09944,-0.180739 0.05146,-0.273187 -0.05553,-0.1069874 -0.114548,-0.1401864 -0.29712,-0.1671454 -0.29716,-0.0439 -0.504063,-0.1902667 -0.6211271,-0.4394245 -0.124021,-0.2639989 -0.08534,-0.6829669 0.09907,-1.0727261 0.230423,-0.4870283 0.642623,-0.8301287 1.172926,-0.9762694 0.208852,-0.057552 0.611882,-0.063013 0.832114,-0.011244 0.253846,0.059648 0.520586,0.1880925 0.699057,0.3366344 0.448518,0.3732551 0.661925,0.7997101 0.689981,1.3787523 0.01795,0.3710801 0.02791,0.4683311 0.06954,0.6806038 0.129618,0.6609239 0.46162,1.2659809 0.954414,1.7394349 0.21562,0.207169 0.262185,0.244714 0.483078,0.389551 0.457216,0.299825 0.937968,0.473852 1.480334,0.535862 0.376183,0.04301 0.493626,0.01914 0.576716,-0.11714 0.04762,-0.07807 0.0477,-0.151925 3.34e-4,-0.249837 -0.05408,-0.111716 -0.109336,-0.1358 -0.341738,-0.149015 -0.706128,-0.04014 -1.355726,-0.327693 -1.842301,-0.815534 C 14.600234,9.871863 14.583352,9.851784 14.455909,9.663693 14.135962,9.191449 13.993509,8.7398872 13.966379,8.111973 13.952669,7.7949817 13.935411,7.6750819 13.870205,7.4443198 13.764125,7.068929 13.573028,6.7456799 13.286663,6.4572173 12.919156,6.0870069 12.485781,5.8659244 11.977975,5.7895641 11.850948,5.7704727 11.454289,5.7653469 11.348266,5.7814513 M 5.2700954,6.8217922 C 4.8173232,6.9232401 4.4743562,7.2175827 4.3088553,7.6467978 l -0.059669,0.1546855 -0.00485,2.2308687 c -0.00485,2.21287 -0.00457,2.231379 0.033499,2.293446 0.071068,0.11591 0.253468,0.149298 0.3662974,0.06705 0.1117322,-0.08146 0.1060795,0.04002 0.1060795,-2.281308 0,-2.0345143 0.00156,-2.1320862 0.035823,-2.2421552 0.07324,-0.2353567 0.2343359,-0.411784 0.4509565,-0.4939481 0.4370621,-0.1657839 0.8954869,0.075736 1.0181278,0.5363912 0.014308,0.053695 0.026241,0.1741968 0.026541,0.26778 0.00299,0.9144671 0.3557479,1.8742501 0.9744924,2.6512921 0.195617,0.245642 0.577719,0.608385 0.820203,0.778612 0.665121,0.466893 1.300011,0.713234 2.0726281,0.804189 0.48684,0.05732 0.644059,0.03272 0.712819,-0.111445 0.04583,-0.09607 0.04101,-0.178791 -0.01523,-0.261541 -0.06575,-0.09681 -0.132733,-0.119304 -0.396297,-0.133162 C 9.4192679,11.853313 8.5072219,11.422884 7.7936649,10.653801 7.4387299,10.271245 7.1049879,9.686021 6.9594523,9.191052 6.8602744,8.8537556 6.8184552,8.5876583 6.7930076,8.1323347 6.7665805,7.6596355 6.6817474,7.4503688 6.4050818,7.1755189 6.2364242,7.0079571 6.0362709,6.8925015 5.8191393,6.8374859 5.7137206,6.8107736 5.363909,6.8007932 5.2701182,6.8217951 m 6.0781708,0.016846 c -0.05719,0.014971 -0.176295,0.062486 -0.264679,0.1055695 -0.129636,0.063219 -0.191912,0.1098042 -0.322135,0.2409531 -0.233125,0.2347886 -0.347693,0.4752496 -0.3714,0.7794607 -0.01381,0.177335 -0.0014,0.2306111 0.07006,0.3004492 0.10309,0.1007851 0.245716,0.097554 0.351229,-0.00796 0.0651,-0.065095 0.06656,-0.069386 0.100596,-0.2932076 0.02513,-0.1651968 0.08731,-0.2888585 0.205487,-0.4087396 0.200476,-0.2033493 0.483361,-0.2816944 0.742576,-0.2056555 0.162835,0.047771 0.295647,0.1336815 0.387983,0.2509727 0.131791,0.1674093 0.160471,0.2658893 0.179567,0.6169293 0.01766,0.3245158 0.02409,0.3851462 0.06722,0.6333397 0.101935,0.5866434 0.365465,1.2243494 0.709587,1.7171634 0.272242,0.389892 0.692722,0.811791 1.08664,1.090328 0.402615,0.284682 0.934848,0.526995 1.434998,0.653304 0.432826,0.109313 1.029904,0.163875 1.165949,0.106536 0.180474,-0.07603 0.197848,-0.330867 0.03067,-0.449917 -0.05061,-0.03603 -0.09624,-0.04516 -0.288596,-0.05776 -0.125666,-0.0083 -0.266758,-0.01972 -0.313549,-0.02558 C 15.630607,11.798667 15.011616,11.544392 14.43938,11.112058 14.29651,11.004127 13.955546,10.678361 13.833472,10.533166 13.5661,10.215196 13.336756,9.81693 13.185794,9.408473 13.03313,8.9954016 12.983388,8.7463753 12.945994,8.2079615 12.930339,7.9826052 12.906101,7.7768741 12.888085,7.7164134 12.819626,7.4866723 12.661689,7.2509946 12.468002,7.0895016 c -0.110523,-0.092146 -0.3545,-0.214012 -0.504517,-0.2520115 -0.142284,-0.036052 -0.475441,-0.035431 -0.615191,0.00114"
     stroke="none"
     fill="#ef7e00"
     fill-rule="evenodd"
     id="path1-7"
     style="stroke-width:0.0189056" /></svg>
