<?xml version="1.0" encoding="UTF-8" standalone="no"?><!-- Generator: Gravit.io --><svg xmlns="http://www.w3.org/2000/svg" xmlns:xlink="http://www.w3.org/1999/xlink" style="isolation:isolate" viewBox="0 0 24 24" width="24pt" height="24pt"><defs><clipPath id="_clipPath_Klpe5jLdRPq0g5oUc4eKqRw6neD8zPHM"><rect width="24" height="24"/></clipPath></defs><g clip-path="url(#_clipPath_Klpe5jLdRPq0g5oUc4eKqRw6neD8zPHM)"><path d=" M 18.593 16.825 C 20.37 15.006 21.563 12.624 21.563 9.901 C 21.563 4.623 17.278 0.338 12 0.338 C 6.722 0.338 2.438 4.623 2.438 9.901 C 2.438 12.657 3.526 14.954 5.474 16.888 L 5.473 16.888 L 11.611 23.662 L 18.605 16.825 L 18.593 16.825 Z " fill="rgb(0,72,144)"/><g><path d=" M 21.234 12.313 Q 21.171 12.572 20.969 13.156 C 20.563 14.078 20.359 14.469 20.078 14.953 Q 4.063 14.984 3.969 14.984 C 3.874 14.984 3.799 14.817 3.672 14.563 C 3.596 14.411 3.482 14.227 3.391 14.031 C 3.261 13.753 2.984 13.078 2.859 12.766 L 2.563 11.531 C 2.563 11.548 21.397 11.509 21.397 11.509 Q 21.298 12.053 21.234 12.313 Z " fill="rgb(255,0,51)"/></g><g><path d=" M 14.768 6.341 L 14.768 3.788 L 14.309 3.788 L 11.82 3.788 L 11.82 4.895 L 10.815 4.895 L 10.815 5.356 C 10.738 5.35 10.661 5.347 10.583 5.347 C 8.892 5.347 7.516 6.724 7.516 8.416 C 7.516 9.408 8.074 10.341 9.01 10.913 L 9.158 11.004 L 9.158 13.041 L 14.767 13.041 L 14.767 11.928 L 16.484 11.928 L 16.484 8.06 C 16.484 8.06 14.997 6.569 14.768 6.341 Z " fill="rgb(255,255,255)"/><path d=" M 13.853 10.559 L 14.315 10.559 L 14.315 9.65 L 13.853 9.65 L 13.853 10.559 Z  M 11.891 12.113 L 10.082 12.113 L 10.082 10.756 L 11.891 10.756 L 11.891 12.113 Z  M 14.309 6.531 L 14.309 4.248 L 12.28 4.248 L 12.28 5.355 L 11.274 5.355 L 11.274 5.9 C 11.054 5.84 10.822 5.807 10.583 5.807 C 9.14 5.807 7.976 6.975 7.976 8.416 C 7.976 9.302 8.517 10.072 9.249 10.52 L 10.881 7.946 L 13.152 7.946 L 13.152 7.946 C 13.002 7.124 12.467 6.437 11.74 6.077 L 11.74 5.822 L 12.744 5.822 L 12.744 4.714 L 13.843 4.714 L 13.843 8.414 L 15.559 8.414 L 15.559 11 L 13.843 11 L 13.843 12.113 L 12.356 12.113 L 12.356 10.738 L 13.843 8.414 L 11.137 8.414 L 9.617 10.81 L 9.617 12.58 L 14.308 12.58 L 14.308 11.468 L 16.025 11.468 L 16.025 8.251 L 14.309 6.531 Z " fill="rgb(0,72,144)"/></g></g></svg>