<?xml version="1.0" encoding="UTF-8" standalone="no"?><!-- Generator: Gravit.io --><svg xmlns="http://www.w3.org/2000/svg" xmlns:xlink="http://www.w3.org/1999/xlink" style="isolation:isolate" viewBox="5.82 3 12.36 17.49" width="12.36pt" height="17.49pt"><defs><clipPath id="_clipPath_ti3VmfUCdcepX4GEEy2oNxt71iJgxGQF"><rect x="5.82" y="3" width="12.36" height="17.49"/></clipPath></defs><g clip-path="url(#_clipPath_ti3VmfUCdcepX4GEEy2oNxt71iJgxGQF)"><path d=" M 13.109 3 L 13.109 3 L 13.109 3 Q 15.408 3 17.708 3.967 L 17.708 3.967 L 16.611 6.68 L 16.611 6.68 Q 14.76 5.925 13.403 5.925 L 13.403 5.925 L 13.403 5.925 Q 12.484 5.925 11.988 6.45 L 11.988 6.45 L 11.988 6.45 Q 11.493 6.975 11.493 7.953 L 11.493 7.953 L 11.493 10.23 L 15.916 10.23 L 15.916 12.813 L 11.493 12.813 L 11.493 14.499 L 11.493 14.499 Q 11.493 16.504 9.712 17.424 L 9.712 17.424 L 18.18 17.424 L 18.18 20.49 L 5.82 20.49 L 5.82 17.566 L 5.82 17.566 Q 7.035 17.047 7.489 16.374 L 7.489 16.374 L 7.489 16.374 Q 7.943 15.702 7.943 14.523 L 7.943 14.523 L 7.943 12.813 L 5.844 12.813 L 5.844 10.23 L 7.943 10.23 L 7.943 7.93 L 7.943 7.93 Q 7.943 5.559 9.293 4.28 L 9.293 4.28 L 9.293 4.28 Q 10.644 3 13.109 3 Z " fill="rgb(0,0,0)"/></g></svg>