<?xml version="1.0" encoding="UTF-8" standalone="no"?>
<svg
   viewBox="0 0 18.040001 21.999998"
   width="18.040001pt"
   height="21.999998pt"
   version="1.1"
   id="svg1"
   xmlns="http://www.w3.org/2000/svg"
   xmlns:svg="http://www.w3.org/2000/svg">
  <defs
     id="defs1" />
  <path
     d="M 15.239,15.551 C 16.916,13.836 18.04,11.588 18.04,9.02 18.04,4.042 13.998,1.7462993e-8 9.0199999,1.7462993e-8 4.0419999,1.7462993e-8 -8.3887577e-8,4.042 -8.3887577e-8,9.02 -8.3887577e-8,11.62 1.0269999,13.787 2.8639999,15.61 v 0 L 8.6529999,22 15.25,15.551 Z"
     fill="#FF69B4"
     id="path1"
     style="fill:#e84940;fill-opacity:1" />
  <path
     d="m 14.295472,4.1853138 c 0.248028,0.1844642 0.423168,0.3927517 0.522183,0.6897964 0.0041,0.068864 0.0056,0.1379138 0.0051,0.2068982 -2.75e-4,0.058587 -2.75e-4,0.058587 -4.82e-4,0.1183573 -6.33e-4,0.06078 -6.33e-4,0.06078 -0.0014,0.1227895 -2.05e-4,0.041121 -4.8e-4,0.082238 -6.85e-4,0.1246028 -6.33e-4,0.1013691 -0.0016,0.2027362 -0.0025,0.3041027 0.03763,0.00565 0.07526,0.011303 0.114027,0.017123 0.29021,0.069504 0.531517,0.2494062 0.717599,0.4792715 0.04883,0.1883439 0.03025,0.2905054 0,0.480279 -0.02463,0.160864 -0.02463,0.160864 -0.0064,0.3126647 0.102504,0.1201218 0.20977,0.1914807 0.342078,0.2770066 0.226905,0.1561379 0.341147,0.3567637 0.413998,0.6192858 0.06683,0.4146539 -0.07072,0.7317178 -0.298361,1.0731727 -0.120728,0.136673 -0.263778,0.215669 -0.419035,0.309441 -0.193266,0.126669 -0.193266,0.126669 -0.282446,0.331199 -0.0051,0.09735 -0.0079,0.19484 -0.0083,0.292317 -0.0091,0.21674 -0.08085,0.381694 -0.212175,0.553005 -0.229962,0.165787 -0.493008,0.215301 -0.773604,0.206295 -0.210741,-0.05086 -0.386591,-0.13739 -0.567308,-0.257868 0,-0.03404 0,-0.06807 0,-0.103147 0.04487,-0.0029 0.04487,-0.0029 0.09066,-0.0058 0.335555,-0.02824 0.559365,-0.09934 0.824776,-0.316492 0.218128,-0.266603 0.235855,-0.58383 0.27076,-0.91543 0.06901,-0.02343 0.06901,-0.02343 0.13941,-0.04734 0.06036,-0.0216 0.12073,-0.04321 0.182925,-0.065474 0.05983,-0.02094 0.119666,-0.041885 0.181313,-0.06346 0.186108,-0.091031 0.266742,-0.1627082 0.373103,-0.3394584 0.04498,-0.2464955 0.03271,-0.4863801 -0.06125,-0.7188065 -0.225169,-0.2562264 -0.446852,-0.3598999 -0.763935,-0.4673855 0.0067,-0.060299 0.01343,-0.1205973 0.02036,-0.1827235 0.0072,-0.079838 0.01444,-0.1596837 0.02155,-0.2395351 0.0047,-0.039655 0.0093,-0.079313 0.014,-0.1201703 0.01769,-0.2170155 0.01778,-0.3037493 -0.113926,-0.4858186 -0.152939,-0.1097189 -0.265753,-0.158146 -0.448099,-0.1998878 -0.05032,-0.012036 -0.100654,-0.024066 -0.152505,-0.036465 -0.05694,-0.012268 -0.05694,-0.012268 -0.115033,-0.024778 0.0056,-0.054183 0.01103,-0.1083649 0.01672,-0.1641891 C 14.38147,5.3667859 14.38147,5.3667859 14.198723,4.823542 14.016489,4.6457535 13.89848,4.5697258 13.644306,4.5527809 c -0.260683,0.00563 -0.430776,0.07438 -0.622508,0.2570621 -0.197674,0.2133879 -0.324893,0.4103771 -0.421856,0.6841553 -0.206294,0 -0.206294,0 -0.367462,-0.07736 -0.298999,-0.1347418 -0.597309,-0.1069288 -0.908984,-0.029012 -0.353332,0.2242292 -0.505498,0.597272 -0.631776,0.9831207 -0.03404,0 -0.06807,0 -0.103147,0 -0.09795,-0.7580401 -0.09795,-0.7580401 0.07716,-1.041141 0.244879,-0.2951273 0.526823,-0.5789547 0.923087,-0.6229123 0.285617,0.00184 0.530742,0.035633 0.80483,0.1168463 0.01363,-0.030313 0.02726,-0.060631 0.0413,-0.091865 0.171058,-0.3164842 0.466104,-0.5287356 0.783878,-0.6817382 0.374691,-0.095208 0.745365,-0.072333 1.076598,0.1353808 z"
     fill="#ef4034"
     id="path11"
     style="fill:#f9f9f9;stroke-width:0.0515736" />
  <path
     d="m 13.73461,8.4852591 c 0.02553,0.1021156 0.02553,0.1021156 0.05158,0.2062944 0.03404,0 0.06807,0 0.103147,0 -0.02925,0.1947108 -0.08263,0.3261085 -0.18917,0.4909565 -0.719559,1.160944 -1.451558,2.666041 -1.564331,4.047517 0.554121,0.03927 1.106151,0.06121 1.661636,0.06789 0.07629,0.0011 0.152584,0.0021 0.228876,0.0033 0.197708,0.0028 0.395419,0.0054 0.593131,0.0079 0.202987,0.0026 0.405973,0.0055 0.608957,0.0083 0.395999,0.0055 0.792002,0.01074 1.188006,0.01581 -0.05158,0.15472 -0.05158,0.15472 -0.140921,0.200842 -0.286676,0.08917 -0.566991,0.151228 -0.864763,0.189183 -0.04892,0.0063 -0.09784,0.0126 -0.148237,0.0191 -0.536673,0.06282 -1.075495,0.08981 -1.614935,0.116279 -0.06616,0.0033 -0.06616,0.0033 -0.133668,0.0067 -0.648801,0.03168 -1.295873,0.04028 -1.945391,0.03521 -0.01027,-0.36779 0.02868,-0.71194 0.08663,-1.074785 0.0089,-0.05782 0.01782,-0.115624 0.02701,-0.175189 0.02841,-0.184012 0.05727,-0.367947 0.08621,-0.551877 0.22106,-1.391822 0.22106,-1.391822 0.348122,-2.794643 0.003,-0.05276 0.003,-0.05276 0.006,-0.106571 0.0047,-0.08265 0.009,-0.165323 0.0133,-0.2479967 C 12.551307,9.35143 12.585468,9.729979 12.651536,10.290392 12.925649,9.919285 13.152158,9.534543 13.367119,9.126763 13.426009,9.015989 13.484963,8.9052517 13.544,8.7945571 13.56952,8.7462551 13.59504,8.6979511 13.62133,8.6481845 13.683,8.5368913 13.683,8.5368913 13.734576,8.4853174 Z"
     fill="#ef4034"
     id="path12"
     style="fill:#f9f9f9;stroke-width:0.0515736" />
  <path
     d="m 9.0685999,13.010285 c 0.202833,5.8e-4 0.405653,2.4e-4 0.608486,-3.71e-4 0.15737,-3.72e-4 0.314738,-2.55e-4 0.4721091,1.3e-5 0.07491,6.8e-5 0.149821,-1.5e-5 0.224731,-2.55e-4 0.10361,-2.61e-4 0.207222,2.06e-4 0.310831,7.39e-4 0.0588,8.2e-5 0.117611,1.64e-4 0.178199,2.47e-4 0.138256,0.0131 0.138256,0.0131 0.241402,0.116247 -0.0089,0.10617 -0.0089,0.10617 -0.03868,0.228859 -0.0094,0.04036 -0.01862,0.08071 -0.0282,0.122286 -0.03626,0.113018 -0.03626,0.113018 -0.139411,0.267739 -0.102416,0.0192 -0.102416,0.0192 -0.230066,0.01874 -0.04804,3.3e-5 -0.09608,6.6e-5 -0.145579,1.02e-4 -0.05261,-8.96e-4 -0.105224,-0.0018 -0.15943,-0.0027 -0.05507,-4.33e-4 -0.110143,-8.44e-4 -0.166884,-0.0014 -0.4143491,-0.006 -0.8255601,-0.03318 -1.2384951,-0.06639 -0.763789,-0.06109 -1.522787,-0.06532 -2.2885777,-0.05158 -0.076811,0.0011 -0.076811,0.0011 -0.1551741,0.0022 -1.0526907,0.01773 -2.0995623,0.144019 -3.1455339,0.255677 0.051575,-0.15472 0.051575,-0.15472 0.1482363,-0.21031 0.3359755,-0.129791 0.6682438,-0.21587 1.021839,-0.282861 0.055961,-0.01085 0.111922,-0.02172 0.1695786,-0.0329 0.5648212,-0.106692 1.1319041,-0.185309 1.7031865,-0.24753 0.033619,-0.0042 0.067235,-0.0084 0.1018705,-0.01274 0.8505088,-0.106107 1.7000348,-0.106396 2.5555638,-0.103845 z"
     fill="#ef4034"
     id="path14"
     style="fill:#f9f9f9;stroke-width:0.0515736" />
  <path
     d="m 2.3368525,7.8663767 c 0.3274708,0.018894 0.3274708,0.018894 0.4706087,0.1583468 0.1142795,0.1785612 0.1555316,0.3414756 0.1869542,0.5475662 0.0094,0.059428 0.0094,0.059428 0.018974,0.1200567 0.2058841,1.4791546 -0.063098,2.8715316 -0.5024778,4.2765886 -0.014904,0.04795 -0.029807,0.09589 -0.045165,0.14529 -0.1435886,0.446835 -0.1435886,0.446835 -0.2836171,0.631537 -0.138604,0.0419 -0.138604,0.0419 -0.2578675,0.05158 0.030324,-0.396856 0.099567,-0.780108 0.1772839,-1.170075 0.088367,-0.459825 0.1604349,-0.916116 0.1998476,-1.382816 0.0039,-0.04638 0.00784,-0.09276 0.011872,-0.140556 C 2.3569965,10.51833 2.3284115,9.943768 2.2852775,9.358792 2.1939465,8.1165717 2.1939465,8.1165717 2.3368525,7.8663832 Z"
     fill="#ef4034"
     id="path15"
     style="fill:#f9f9f9;stroke-width:0.0515736" />
  <path
     d="m 7.0816199,3.7920654 c 0,0.034041 0,0.068077 0,0.1031468 -0.067388,0.062616 -0.067388,0.062616 -0.1627787,0.1331645 -0.052978,0.039708 -0.052978,0.039708 -0.1070253,0.080218 -0.038606,0.028505 -0.077218,0.057016 -0.1169972,0.086388 C 6.3846365,4.4277505 6.0791174,4.6644756 5.7793877,4.9105668 5.4278871,5.1981932 5.071639,5.4780182 4.7092366,5.7518607 4.6714845,5.7804397 4.6337298,5.8090181 4.5948327,5.8384627 3.8339021,6.4138383 3.0721501,6.9894173 2.2756089,7.5150315 c -0.035216,0.023618 -0.070429,0.047236 -0.1067101,0.071569 -0.2988603,0.193843 -0.5529321,0.2797766 -0.915091,0.2797766 0,-0.2212506 0,-0.4425011 0,-0.6704564 C 1.3559235,7.1703937 1.3559235,7.1703937 1.4601019,7.1443453 2.2318057,6.907646 2.8665217,6.4543053 3.5139284,5.9869368 3.6503345,5.8892986 3.7890904,5.7957625 3.9291863,5.7035089 4.2179742,5.5128844 4.503992,5.3183382 4.7898202,5.1233064 4.8385589,5.0900724 4.8872986,5.0568414 4.9375151,5.0226015 5.1762756,4.859683 5.4147542,4.6963754 5.6526703,4.5322248 6.3634239,4.042109 6.3634239,4.042109 6.6658085,3.8500837 c 0.036629,-0.02327 0.073263,-0.046535 0.111004,-0.07051 0.1219075,-0.048364 0.1835153,-0.031468 0.3048074,0.01249 z"
     fill="#ef4034"
     id="path20"
     style="fill:#f9f9f9;stroke-width:0.0515736" />
  <path
     d="m 9.2509339,7.6568593 c 0.07499,0.00158 0.07499,0.00158 0.151497,0.00322 0.06983,0.5377606 0.130621,1.0754961 0.18091,1.6155017 0.0068,0.07237 0.01358,0.144746 0.02037,0.217119 0.01405,0.150067 0.02799,0.300143 0.04185,0.450226 0.01762,0.190379 0.03564,0.380718 0.05376,0.571049 0.01411,0.14888 0.02793,0.297784 0.04167,0.446697 0.0096,0.103672 0.01955,0.207318 0.02949,0.310962 0.02838,0.311756 0.05153,0.623421 0.06143,0.936349 0.0027,0.07933 0.0027,0.07933 0.0055,0.160265 -0.0286,0.178427 -0.0883,0.235973 -0.228692,0.346039 -0.148642,0.04954 -0.24232,0.05703 -0.396473,0.05479 -0.04168,-4.6e-4 -0.08337,-9.48e-4 -0.126314,-0.0015 -0.03171,-5.8e-4 -0.06342,-0.0012 -0.0961,-0.0018 0.01949,-0.429278 0.04049,-0.856815 0.09214,-1.283597 0.125143,-1.042795 0.05511,-2.084477 -0.0084,-3.1294291 -0.0024,-0.041991 -0.0049,-0.083978 -0.0075,-0.1272394 -0.0047,-0.079879 -0.0097,-0.1597443 -0.01484,-0.2395931 -0.0054,-0.091354 -0.0079,-0.1828616 -0.0099,-0.274349 0.05158,-0.051575 0.05158,-0.051575 0.209517,-0.054797 z"
     fill="#ef4034"
     id="path23"
     style="fill:#f9f9f9;stroke-width:0.0515736" />
  <path
     d="m 6.4111641,4.7719628 c 0.1914533,0.029897 0.3318857,0.082435 0.4990144,0.1797017 0.069456,0.03995 0.069456,0.03995 0.1403164,0.08071 0.04963,0.028943 0.09926,0.057889 0.150389,0.08771 0.107196,0.061462 0.214441,0.1228374 0.321731,0.1841343 0.08263,0.047294 0.08263,0.047294 0.166934,0.095542 0.716844,0.4077266 1.442376,0.7934672 2.190038,1.1417452 0.2951971,0.1377622 0.5812851,0.285796 0.8637561,0.4481209 -0.07115,0.2134524 -0.165331,0.2542785 -0.361015,0.3610149 C 10.025432,7.4442538 9.8220109,7.3704168 9.5055779,7.1959211 8.4910299,6.5752142 7.4830609,5.9007776 6.6174584,5.0814043 6.5786993,5.0451073 6.5399409,5.0088066 6.5000073,4.9714077 6.4111641,4.8751102 6.4111641,4.8751102 6.4111641,4.7719628 Z"
     fill="#ef4034"
     id="path26"
     style="fill:#f9f9f9;stroke-width:0.0515736" />
  <path
     d="M 6.8237525,8.7431269 C 6.9441553,8.9237311 6.9615884,8.9948206 6.9268998,9.207289 6.6333014,9.509522 6.1275144,9.563046 5.7219973,9.572232 c -0.1657284,9e-5 -0.331323,-0.0011 -0.4970251,-0.004 -0.00232,0.05208 -0.00464,0.104152 -0.00701,0.157805 -0.048344,1.070274 -0.1127486,2.131418 -0.250855,3.194476 -0.076586,0.02553 -0.076586,0.02553 -0.1547207,0.05158 0,-1.191349 0,-2.382698 0,-3.610149 C 5.4826895,9.138513 6.1424571,8.9235797 6.823753,8.7430656 Z"
     fill="#ef4034"
     id="path33"
     style="fill:#f9f9f9;stroke-width:0.0515736" />
  <path
     d="m 10.382328,7.7116559 c 0.0614,0.1228157 0.06043,0.211293 0.06769,0.3481214 0.02331,0.2447416 0.07308,0.3932964 0.241751,0.5802023 0.235277,0.1550692 0.447463,0.1826249 0.722029,0.2062946 0.0038,0.043013 0.0077,0.086026 0.01168,0.1303441 0.04288,0.3670367 0.106499,0.6191397 0.33684,0.9111997 0.06406,0.09308 0.06406,0.09308 0.06406,0.247795 -0.223361,0.0335 -0.344008,-0.0072 -0.522182,-0.135381 -0.250298,-0.203397 -0.419119,-0.413308 -0.457716,-0.74137 -0.02992,-0.0013 -0.05983,-0.0026 -0.09066,-0.004 C 10.476316,9.234572 10.285626,9.198572 10.072887,9.001027 9.9243739,8.7605711 9.8902599,8.5176222 9.9326699,8.2405091 9.9956769,8.0429278 10.151174,7.7116786 10.382326,7.7116786 Z"
     fill="#ef4034"
     id="path35"
     style="fill:#f9f9f9;stroke-width:0.0515736" />
  <path
     d="m 6.3080168,9.671451 c 0.1361542,0.01702 0.2723083,0.03404 0.4125883,0.05158 0.050636,0.29693 0.061453,0.585462 0.061243,0.88642 3.32e-5,0.05036 6.65e-5,0.100727 1.033e-4,0.152618 -0.00448,0.652463 -0.058813,1.302319 -0.1129178,1.952228 -0.354568,0.103146 -0.354568,0.103146 -0.4125884,0.103146 -0.00369,-0.708509 0.00745,-1.415928 0.025785,-2.124185 0.00248,-0.09989 0.00495,-0.19978 0.00746,-0.299671 0.00599,-0.240713 0.012115,-0.481423 0.018331,-0.72213 z"
     fill="#ef4034"
     id="path36"
     style="fill:#f9f9f9;stroke-width:0.0515736" />
  <path
     d="m 4.1935009,4.3078011 c 0,0.051058 0,0.1021156 0,0.1547202 -0.7664687,0.4125889 -0.7664687,0.4125889 -1.186192,0.4125889 0.00121,0.03005 0.00237,0.060099 0.00364,0.091059 0.00788,0.3576714 -0.039271,0.692796 -0.1067734,1.0435587 -0.076586,0.025527 -0.076586,0.025527 -0.1547207,0.051575 -0.00285,-0.03248 -0.00571,-0.064961 -0.00865,-0.098426 C 2.7276723,5.814095 2.7143864,5.6653263 2.7011015,5.5165574 2.6966173,5.4654678 2.6921331,5.4143754 2.6875056,5.361736 2.6635766,5.0949363 2.6359413,4.8303697 2.5947335,4.5656698 c 0.045971,-0.00622 0.045971,-0.00622 0.092873,-0.012568 0.140988,-0.019211 0.2819243,-0.03878 0.4228633,-0.058348 0.048201,-0.00651 0.096399,-0.013032 0.1460579,-0.019743 0.3030209,-0.042381 0.6357309,-0.167211 0.9369867,-0.167211 z"
     fill="#ef4034"
     id="path37"
     style="fill:#f9f9f9;stroke-width:0.0515736" />
  <path
     d="m 2.9041616,3.1731824 c 0.1531739,0 0.3063473,0 0.4641622,0 0.034041,0.3233661 0.068077,0.6467324 0.1031474,0.979898 -0.1531735,0.017017 -0.306347,0.034041 -0.4641623,0.051575 C 2.9899063,4.0811199 2.9727516,3.9575588 2.9557339,3.8339702 2.950831,3.7992336 2.9458966,3.7644971 2.9408249,3.7287077 2.9153406,3.5421078 2.8983071,3.3615326 2.9041589,3.1731841 Z"
     fill="#ef4034"
     id="path38"
     style="fill:#f9f9f9;stroke-width:0.0515736" />
</svg>
