<?xml version="1.0" encoding="UTF-8" standalone="no"?><!-- Generator: Gravit.io --><svg xmlns="http://www.w3.org/2000/svg" xmlns:xlink="http://www.w3.org/1999/xlink" style="isolation:isolate" viewBox="0 0 24 24" width="24pt" height="24pt"><defs><clipPath id="_clipPath_92cxcFXDVmGzoytVSTDHO2LvDsKZwREl"><rect width="24" height="24"/></clipPath></defs><g clip-path="url(#_clipPath_92cxcFXDVmGzoytVSTDHO2LvDsKZwREl)"><clipPath id="_clipPath_mzLqMZyNBuspy9l0Q9UIcemurTduVMYo"><rect x="0" y="0" width="24" height="24" transform="matrix(1,0,0,1,0,0)" fill="rgb(255,255,255)"/></clipPath><g clip-path="url(#_clipPath_mzLqMZyNBuspy9l0Q9UIcemurTduVMYo)"><g><clipPath id="_clipPath_edxJ1DxffgevNniqpeQj9CaW6sf8a3Jq"><rect x="0" y="0" width="24" height="24" transform="matrix(1,0,0,1,0,0)" fill="rgb(255,255,255)"/></clipPath><g clip-path="url(#_clipPath_edxJ1DxffgevNniqpeQj9CaW6sf8a3Jq)"><g><g><path d=" M 18.593 16.825 C 20.37 15.006 21.563 12.624 21.563 9.901 C 21.563 4.623 17.278 0.338 12 0.338 C 6.722 0.338 2.438 4.623 2.438 9.901 C 2.438 12.657 3.526 14.954 5.474 16.888 L 5.473 16.888 L 11.611 23.662 L 18.605 16.825 L 18.593 16.825 L 18.593 16.825 Z " fill="rgb(70,70,70)"/></g></g></g><path d=" M 11.286 7.86 C 10.415 8.171 10.115 9.015 10.115 9.015 C 9.998 9.326 9.686 9.56 9.335 9.56 L 7.683 9.56 C 7.228 9.56 6.851 9.183 6.851 8.729 C 6.851 8.275 7.163 7.912 7.683 7.912 L 8.993 7.914 L 7.098 6.018 C 6.773 5.693 6.773 5.174 7.098 4.851 C 7.423 4.527 7.944 4.527 8.268 4.851 L 10.154 6.729 L 10.154 5.434 C 10.154 4.981 10.518 4.605 10.986 4.605 C 11.442 4.605 11.806 4.981 11.806 5.434 L 11.806 7.082 C 11.806 7.432 11.598 7.757 11.286 7.86 Z  M 10.986 14.839 C 10.531 14.839 10.167 14.54 10.18 14.022 L 10.182 12.707 L 8.281 14.605 C 7.957 14.93 7.423 14.93 7.111 14.605 C 6.786 14.282 6.786 13.749 7.111 13.439 L 8.992 11.556 L 7.696 11.556 C 7.228 11.556 6.865 11.18 6.865 10.727 C 6.865 10.273 7.228 9.897 7.696 9.897 L 9.348 9.897 C 9.699 9.897 10.011 10.104 10.128 10.416 C 10.428 11.297 11.272 11.595 11.272 11.595 C 11.598 11.712 11.819 12.011 11.819 12.374 L 11.819 14.022 C 11.819 14.476 11.454 14.839 10.986 14.839 Z  M 16.304 11.544 L 14.991 11.543 L 16.889 13.439 C 17.214 13.762 17.214 14.282 16.889 14.605 C 16.564 14.93 16.043 14.93 15.719 14.605 L 13.833 12.724 L 13.833 14.022 C 13.833 14.515 13.456 14.852 13.001 14.852 C 12.545 14.852 12.168 14.476 12.168 14.022 L 12.168 12.374 C 12.168 12.023 12.389 11.699 12.702 11.595 C 13.573 11.297 13.872 10.442 13.872 10.442 C 13.989 10.131 14.301 9.897 14.652 9.897 L 16.304 9.897 C 16.759 9.897 17.136 10.273 17.136 10.727 C 17.136 11.18 16.798 11.544 16.304 11.544 Z  M 16.317 9.547 L 14.665 9.547 C 14.314 9.547 13.989 9.339 13.885 9.028 C 13.586 8.159 12.728 7.847 12.728 7.847 C 12.416 7.73 12.181 7.432 12.181 7.068 L 12.181 5.421 C 12.181 4.967 12.558 4.605 13.014 4.605 C 13.469 4.605 13.833 4.942 13.833 5.421 L 13.834 6.741 L 15.731 4.838 C 16.057 4.514 16.577 4.514 16.902 4.838 C 17.227 5.161 17.227 5.693 16.902 6.018 L 15.029 7.886 L 16.317 7.886 C 16.772 7.886 17.149 8.262 17.149 8.716 C 17.149 9.17 16.772 9.547 16.317 9.547 Z " fill="rgb(255,255,255)"/></g></g></g></svg>