<?xml version="1.0" encoding="UTF-8" standalone="no"?><!-- Generator: Gravit.io --><svg xmlns="http://www.w3.org/2000/svg" xmlns:xlink="http://www.w3.org/1999/xlink" style="isolation:isolate" viewBox="0 0 24 24" width="24pt" height="24pt"><defs><clipPath id="_clipPath_RSYWN6khKl1lpinawyFkTnkUJA7fHJRH"><rect width="24" height="24"/></clipPath></defs><g clip-path="url(#_clipPath_RSYWN6khKl1lpinawyFkTnkUJA7fHJRH)"><clipPath id="_clipPath_4QZPfU4Y8CWPZ8ZCI11gA0zxm98f4VjJ"><rect x="0" y="0" width="24" height="24" transform="matrix(1,0,0,1,0,0)" fill="rgb(255,255,255)"/></clipPath><g clip-path="url(#_clipPath_4QZPfU4Y8CWPZ8ZCI11gA0zxm98f4VjJ)"><g><path d=" M 18.593 16.825 C 20.37 15.006 21.563 12.624 21.563 9.901 C 21.563 4.623 17.278 0.338 12 0.338 C 6.722 0.338 2.438 4.623 2.438 9.901 C 2.438 12.657 3.526 14.954 5.474 16.888 L 5.473 16.888 L 11.611 23.662 L 18.605 16.825 L 18.593 16.825 Z " fill="rgb(0,47,96)"/></g></g><g><path d=" M 17.052 6.53 C 15.974 6.53 15.037 7.111 14.527 7.973 C 14.784 8.408 14.933 8.918 14.933 9.457 C 14.933 10 14.784 10.506 14.527 10.941 C 15.037 11.808 15.978 12.388 17.052 12.388 C 18.668 12.388 19.983 11.078 19.983 9.457 C 19.983 7.84 18.668 6.53 17.052 6.53 Z " fill="rgb(38,53,140)"/><path d=" M 14.527 7.973 C 14.017 7.111 13.076 6.53 11.998 6.53 C 10.92 6.53 9.983 7.111 9.473 7.973 C 9.73 8.408 9.879 8.918 9.879 9.457 C 9.879 10 9.73 10.506 9.473 10.941 C 9.983 11.808 10.924 12.388 11.998 12.388 C 13.076 12.388 14.013 11.808 14.523 10.941 C 14.266 10.506 14.116 9.996 14.116 9.457 C 14.121 8.918 14.27 8.412 14.527 7.973 Z " fill="rgb(0,104,179)"/><path d=" M 9.473 7.973 C 8.963 7.111 8.022 6.53 6.948 6.53 C 5.328 6.53 4.017 7.84 4.017 9.461 C 4.017 11.078 5.328 12.392 6.948 12.392 C 8.026 12.392 8.963 11.812 9.473 10.945 C 9.216 10.51 9.067 10 9.067 9.461 C 9.071 8.918 9.216 8.412 9.473 7.973 Z " fill="rgb(54,188,238)"/><g><path d=" M 9.473 10.945 C 9.73 10.51 9.879 10 9.879 9.461 C 9.879 8.918 9.73 8.412 9.473 7.977 C 9.216 8.412 9.067 8.922 9.067 9.461 C 9.071 10.004 9.216 10.51 9.473 10.945 Z " fill="rgb(0,92,158)"/><path d=" M 9.473 10.945 L 9.473 10.945 C 9.208 10.498 9.067 9.984 9.067 9.461 C 9.067 8.939 9.208 8.425 9.473 7.977 L 9.473 7.977 L 9.473 7.977 C 9.739 8.425 9.879 8.939 9.879 9.461 C 9.879 9.984 9.739 10.498 9.473 10.945 L 9.473 10.945 Z  M 9.473 7.977 C 9.208 8.425 9.067 8.939 9.067 9.461 C 9.067 9.984 9.208 10.498 9.473 10.945 C 9.739 10.498 9.879 9.984 9.879 9.461 C 9.879 8.939 9.739 8.425 9.473 7.977 Z " fill="rgb(0,92,158)"/></g><path d=" M 14.527 10.945 C 14.784 10.51 14.933 10.004 14.933 9.461 C 14.933 8.918 14.784 8.412 14.527 7.977 C 14.27 8.412 14.121 8.922 14.121 9.461 C 14.121 10.004 14.27 10.51 14.527 10.945 Z " fill="rgb(0,47,96)"/><g><path d=" M 8.051 8.437 L 7.197 8.437 L 7.197 11.049 L 6.609 11.049 L 6.609 8.437 L 5.775 8.437 L 5.775 7.902 L 8.051 7.902 L 8.051 8.437 L 8.051 8.437 Z " fill="rgb(255,255,255)"/></g><g><path d=" M 16.032 7.902 L 17.134 7.902 C 17.553 7.907 17.665 7.911 17.814 7.956 C 18.129 8.052 18.353 8.329 18.353 8.674 C 18.353 8.81 18.324 8.98 18.233 9.101 C 18.134 9.229 18.009 9.295 17.839 9.329 C 18.187 9.391 18.49 9.673 18.49 10.158 C 18.49 10.518 18.328 10.838 17.951 10.974 C 17.752 11.045 17.595 11.049 17.238 11.049 L 16.032 11.049 L 16.032 7.902 Z  M 16.612 8.383 L 16.612 9.167 L 16.794 9.167 C 16.96 9.167 17.081 9.167 17.151 9.163 C 17.296 9.163 17.445 9.159 17.553 9.101 C 17.678 9.038 17.76 8.918 17.76 8.773 C 17.76 8.653 17.698 8.533 17.578 8.462 C 17.454 8.392 17.391 8.388 16.964 8.383 L 16.612 8.383 Z  M 16.612 9.611 L 16.612 10.543 L 17.172 10.543 C 17.52 10.543 17.611 10.543 17.765 10.436 C 17.843 10.377 17.906 10.257 17.906 10.108 C 17.906 10.038 17.893 9.95 17.847 9.872 C 17.707 9.619 17.375 9.615 17.176 9.615 L 16.612 9.611 L 16.612 9.611 Z " fill="rgb(255,255,255)"/></g><path d=" M 12.301 9.184 L 11.977 9.113 C 11.695 9.059 11.401 9.005 11.401 8.74 C 11.401 8.499 11.675 8.359 11.99 8.359 C 12.462 8.359 12.67 8.636 12.781 8.798 L 13.246 8.429 C 13.022 8.135 12.674 7.836 12.023 7.836 C 11.289 7.836 10.787 8.218 10.787 8.81 C 10.787 9.329 11.173 9.519 11.314 9.573 C 11.409 9.615 11.509 9.635 11.708 9.685 L 12.085 9.764 C 12.367 9.83 12.375 9.834 12.45 9.859 C 12.545 9.901 12.686 9.971 12.686 10.17 C 12.686 10.278 12.645 10.436 12.421 10.527 C 12.309 10.572 12.197 10.581 12.085 10.581 C 11.459 10.581 11.219 10.257 11.131 10.129 L 10.651 10.489 C 10.887 10.85 11.227 10.983 11.43 11.045 C 11.621 11.099 11.816 11.115 11.985 11.115 C 12.649 11.115 13.312 10.829 13.312 10.112 C 13.316 9.445 12.723 9.271 12.301 9.184 Z " fill="rgb(255,255,255)"/></g></g></svg>