<svg xmlns="http://www.w3.org/2000/svg" width="24" height="24"><path fill="#654039" fill-rule="evenodd" d="M11 2.28c0 .15.07.38.14.52.12.21.12.29 0 .53a3 3 0 0 0-.21 1.02c-.06.73-.14.9-.78 1.56q-.14.15-.15.27-.01.11-.1.12t-.17.18c-.04.1-.2.37-.35.61a2 2 0 0 0-.28.61c0 .1-.12.27-.26.4-.4.38-.52.7-.5 1.33q.03.58-.11.69c-.08.06-.13.23-.12.37a1 1 0 0 1-.1.48 1 1 0 0 0-.11.36c0 .2.33.47.58.47.11 0 .24.04.27.1.14.22.6.1.96-.26l.36-.35-.05 2.36c-.05 2.29-.04 2.37.14 2.33.18-.03.2-.17.24-2.08.05-1.94.05-2 .12-1.05.05.55.08 1.39.08 1.86 0 .9.05 1.06.27.88.1-.09.13-.62.15-2.38l.01-2.26.08 2.05c.1 2.15.12 2.36.3 2.24.09-.05.1-.69.07-2.33-.02-1.24-.01-1.99.03-1.66s.07 1.16.08 1.85c.01 1.26.07 1.7.21 1.7.15 0 .16-.27.1-2.28a17 17 0 0 1 .01-2.02c.04 0 .09.82.11 1.83.05 1.8.1 2.17.3 2.17q.11 0 .06-1.65l-.04-1.65.53-.35q.54-.36.7-.73c.1-.2.3-.52.45-.7s.28-.41.28-.51.07-.24.15-.31a.5.5 0 0 0 .15-.35c0-.12.07-.35.14-.51.2-.41.34-4 .17-4.42-.1-.25-.1-.35.03-.6q.36-.71-.1-.72c-.3 0-.66.17-.77.36-.06.1-.3.14-.86.13-.43-.01-.83 0-.88.04s-.17 0-.24-.1a2 2 0 0 0-.94-.43Q11 2 11 2.27m3.19.32c-.27.27-.57.52-.68.56-.1.03-.22.12-.25.2q-.18.48-1.12-.5a4 4 0 0 0-.71-.65c-.06 0 .02.14.18.31.3.33.38.59.16.59-.15 0-.47.31-.47.46q.01.06.1-.08c.14-.24.57-.23.97.02.37.22.4.37.17.66q-.19.25-.1.01c.04-.14.01-.16-.2-.11-.19.05-.26.01-.32-.17q-.08-.2-.15-.13-.1.2.28.42.17.1.07.12t-.06.11q.06.12-.17.04c-.28-.08-.59-.4-.6-.64-.02-.3-.17.43-.18.9 0 .25-.07.5-.13.58-.1.1-.09.12.11.06s.23-.04.18.09q-.05.15.03.16.1 0 .1-.1c0-.04.27-.1.6-.12.56-.03.76.04.48.15q-.1.05.1.06.26.01.18-.14c-.04-.12.07-.15.65-.15.65 0 .73.02 1.01.3.25.26.3.28.25.1-.03-.1 0-.2.05-.2s.09-.4.06-1.06c-.03-.96-.05-1.08-.26-1.24a2 2 0 0 0-.34-.22c-.18-.06.16-.5.55-.7q.34-.17.13-.18c-.1 0-.4.22-.67.5m-4.24.53-.6.2.44.09q.7.13.71.4-.02.09-.17-.05a1 1 0 0 0-.96-.18c-.25.1-.27.13-.16.33q.35.69.86.68c.18 0 .33.05.33.11 0 .17-.68.04-.93-.18-.1-.1-.27-.35-.37-.56l-.17-.37-.42.3-.43.31.36.35c.6.6.6.95-.05 2.06-.55.93-.93 1.12-1.72.84-.2-.08-.39-.1-.41-.07a4 4 0 0 0-.11.62l-.07.56.5-.05c.49-.04.92.1.92.29q-.02.08-.22-.05c-.25-.18-.83-.21-.93-.06-.09.14.2.65.51.9q.25.19.12.2c-.2 0-.53-.37-.73-.8l-.16-.35.06.6c.09.85.22 1.3.62 2.1a6.6 6.6 0 0 0 2.4 2.43l.61.32.07-.95c.04-.53.05-.98.02-1.01s-.22 0-.44.06c-.34.1-.45.09-.95-.13a2 2 0 0 1-.67-.46c-.14-.26-.03-1.3.16-1.52q.15-.17.08-.52-.06-.33.04-.41c.06-.04.11-.2.11-.37q0-.29.34-.67c.2-.2.38-.5.41-.65a8 8 0 0 1 1.32-2.04c.4-.49.45-.58.48-1.17.02-.35.08-.73.14-.84.3-.56.04-.64-.94-.3m3.44.38c-.25.24-.28.33-.2.5.27.48.9.47 1.12-.02q.13-.33.06.05-.07.31.1.16c.2-.18.17-.76-.06-.89q-.54-.27-1.02.2m-.62.51c-.08.2-.2.4-.27.44q-.15.08.11.26c.22.17.23.19.04.19-.36 0-.88-.19-1.12-.41-.25-.24-.44-.2-.23.06q.15.17 0 .15-.15-.01 0 .15.15.17 0 .15-.13 0-.04.1c.07.06 2.99.16 3.39.1q.08-.01-.1-.15-.2-.17-.04-.15.16 0 .16-.3v-.29l-.41.23a3 3 0 0 1-.81.3l-.4.07.25-.2q.23-.19.12-.2c-.07 0-.21-.2-.31-.43l-.18-.43zm2.41.59.04.8.25-.3c.43-.52.6-.56.83-.18.1.18.2.44.2.58 0 .3-.31.92-.5.98q-.12.04.07-.24a2 2 0 0 0 .26-.53c.06-.25-.16-.91-.3-.91-.16 0-.61.54-.68.81-.08.31.17.97.37.96.86-.03 1.1.03 1.5.42q.93.92-.43.9c-.5.01-.78-.24-1.19-1.08-.2-.38-.38-.7-.41-.7s-.07.3-.08.67a5 5 0 0 1-.45 1.92c-.07.14-.16.37-.2.52a1 1 0 0 1-.31.44c-.14.09-.25.24-.25.33 0 .28-.46.85-.9 1.11l-.42.25.06 1.1.06 1.53c0 .4.02.42.28.42.43 0 1.6-.46 2.19-.85a6 6 0 0 0 2.58-4.05l.06-.45-.2.42q-.34.73-1.17.73h-.37l.26.2c.42.34.55 1.08.27 1.6-.15.28-.34.25-.75-.15-.35-.32-.37-.37-.32-.82.1-.94.57-1.95.98-2.08a2 2 0 0 1 1.08 0c.2.06.21.03.21-.52 0-.63-.3-1.83-.6-2.42-.3-.6-.97-1.44-1.46-1.83-.26-.21-.5-.38-.53-.38s-.05.36-.03.8m-7.64.18a6 6 0 0 0-1.05 1.75l-.2.52.3-.32c.32-.36.64-.47 1.15-.41l.34.04-.21-.3a1.4 1.4 0 0 1-.03-1.4c.24-.38.06-.3-.3.12M8 4.65c-.07.09-.15.37-.18.63-.03.4 0 .51.22.75.31.34.48.26.66-.29.13-.38.08-.61-.21-.98-.24-.3-.32-.32-.5-.1m4.76 1.1c-.41.23-1.08.84-.91.84s.29.27.14.36c-.06.04-.19-.02-.29-.14-.16-.21-.17-.21-.4-.03-.13.1-.35.24-.48.3-.22.12-.23.12-.17-.05q.1-.25-.07-.03a1 1 0 0 1-.37.23c-.6.18-.6.18-.54 0q.07-.21-.16.06c-.2.21-.2.25-.06.28q.36.07-.13.41a1 1 0 0 0-.34.48c-.13.65-.13.68.1.71.19.03.2.06.11.21-.15.25-.03.53.21.5.11-.03.27.05.34.16.12.15.19.17.38.09.25-.12.69.03.69.23 0 .27.4.24.78-.05.67-.54 1.25-1.2 1.2-1.35q-.06-.15.39-.47c.28-.2.52-.49.64-.75.1-.23.26-.48.34-.55.1-.08.15-.3.15-.56 0-.36-.03-.44-.19-.44-.24 0-.45-.25-.37-.45s-.59-.2-.99.02m-5.82.82c-.3.18-.51.56-.4.68.04.03.26.08.51.1q.76.1 1.07-.49c.24-.45-.58-.65-1.18-.29m9.05.18c-.22.05-.22.07-.03.43.29.56.97.78 1.4.46.19-.13.18-.16-.22-.55-.4-.4-.64-.48-1.15-.34m-5.15.58c-.05.16.22.55.39.55.13 0 .1-.4-.06-.56-.19-.18-.25-.18-.33.01m.57.34c0 .15.3.41.46.41s.17-.05.04-.3c-.1-.2-.5-.28-.5-.1m-1.93.92c-.46.2-.56.31-.38.42.11.07 1.26-.38 1.26-.5 0-.16-.4-.13-.87.08m3.83.07-.23.18.28.29q.29.32.2.09c-.16-.4-.18-.55-.09-.55.05 0 .16.11.23.25.18.34.26.23.1-.15-.14-.35-.17-.36-.49-.11m-3.25.25q-.97.56-.83.72c.08.08 1.7-.78 1.69-.91q-.01-.3-.86.19m4.93-.1c-.13.17-.14.23-.03.34.07.06.2.1.27.06.2-.07.3-.44.12-.44q-.12 0-.17-.1-.03-.05-.2.14m-4.46.46c-.61.41-.84.7-.56.7.23 0 1.34-.8 1.34-.96 0-.22-.13-.17-.78.26m5.77 0c-.6.59-.08 1.06.71.65.3-.15.64-.7.54-.87-.03-.05-.26-.08-.5-.08-.37 0-.51.06-.75.3m-5.49.35c-.13.14-.2.28-.16.32.1.11.6-.2.64-.4.05-.25-.2-.2-.48.08m3.83.36c.1.28.1.33-.13.5l-.24.2.34-.03c.3-.03.35-.07.38-.31a.6.6 0 0 0-.14-.48q-.4-.41-.2.12m-7.43.37c-.3.42-.34.75-.17 1.16q.23.55.42.24.06-.1-.04-.04c-.06.03-.16-.02-.21-.13-.19-.34-.12-.82.15-1.18.14-.18.2-.33.15-.33s-.19.13-.3.28m1.59.2c-.3.2-.55.43-.58.5s.24-.07.6-.33c.75-.55.74-.55.61-.55-.05 0-.34.17-.63.38m6.9.07c-.15.46-.05.9.27 1.15.46.36.63.23.63-.52 0-.3-.07-.46-.3-.69-.37-.37-.46-.37-.6.06m-6.68.27c-.4.29-.68.54-.62.56.12.04.6-.28 1.2-.78.57-.48.2-.34-.58.22m.68.04a5 5 0 0 0-.68.64c-.09.25.24.04.85-.55.83-.79.72-.84-.17-.1m4.03 1.33c-.7.32-.91.47-.52.37.23-.06.27-.03.33.2.09.35 0 .64-.32.97-.14.15-.23.3-.2.33s.2-.1.37-.3c.23-.27.31-.45.31-.74v-.39l.3.28c.17.16.43.31.59.35.3.06 1.11-.2 1.11-.36 0-.06-.17-.28-.37-.5-.5-.52-.82-.57-1.6-.2m.25.02c-.25.14-.22.27.13.6.33.3.82.39 1.2.19.26-.14.24-.2-.12-.58-.24-.25-.4-.32-.68-.32-.2 0-.44.05-.53.1m-5.42.52c-.18.3-.18.31 0 .45.1.07.38.12.63.12l.46-.01-.48-.08c-.27-.05-.52-.11-.55-.15s.02-.19.12-.35c.1-.17.13-.3.09-.3s-.17.14-.27.32"/></svg>