<svg xmlns="http://www.w3.org/2000/svg" width="24" height="24"><path fill="#FFF" fill-rule="evenodd" d="M16.55 3.4q.05.1-.37.1c-.25 0-.56.08-.76.2-.4.24-.43.25-.35.02q.05-.16-.03-.09a1 1 0 0 0-.11.3c-.1.78-.16 1.13-.25 1.22q-.1.1-.02-.1.08-.18-.04-.11c-.18.11-.14.36.06.37q.22 0-.03.09-.3.1.02.1.22 0 .38.33c.37.77 2.1 2.13 2.45 1.92q.08-.04.14.04c.04.05-.05.08-.18.07q-.24-.03-.2.1c.08.18.58.1.62-.1q.02-.15-.08-.16-.1 0-.05-.1c.03-.04.19-.07.35-.05s.32 0 .35-.05q.05-.09-.1-.04c-.39.15 0-.25.6-.64.06-.04.26-.28.45-.54.18-.27.37-.48.41-.48q.07-.02.08-.17l.06-.6c.14-.8-.49-1.53-1.31-1.53q-.42 0-.24-.1t-.07-.1q-.22 0-.24.18 0 .22-.09-.03c-.09-.2-.09-.2-.1 0q-.01.2-.3.33c-.24.11-.33.1-.6-.03q-.31-.17-.26-.3.05-.15-.1-.15-.13.01-.09.1m-4.34 2.4c-.5.23-.55.24-.45.08q.07-.1-.05-.04-.11.08-.07.13c.03.03-.04.18-.15.34A3.2 3.2 0 0 0 11 8.27c0 .67-.03.85-.16.9q-.15.04-.25-.08-.08-.13-.09-.03-.02.12-.2.17t-.2.21c0 .12.1.16.44.16h.44v1.05c0 1.04 0 1.05-.24 1.05-.2 0-.24.04-.22.33q0 .44.05.05.04-.28.22-.28c.14 0 .17.11.2.65l.02.65h-.4c-.34 0-.41.03-.41.2q.01.18.15.2l.85.01c1.84 0 1.8 0 1.8-.21 0-.16-.07-.2-.32-.21h-.45q-.14.04-.12-.56 0-.61.09-.38.1.27.1-.13 0-.3-.1-.27c-.06.04-.1-.2-.09-.62q.01-.67.1-.48.08.24.08.03 0-.17-.09-.23c-.05-.03-.1-.24-.1-.46 0-.38 0-.39.35-.39.2 0 .35.05.35.1q.01.1.16-.05c.31-.3-.05-.54-.72-.46q-.12 0-.12-.59 0-.6.1-.53.12.06.04-.13c-.14-.34-.19-.83-.1-1.01.04-.1.06-.24.05-.3q0-.12.1-.13.11 0 .06-.07-.05-.06.04-.2c.18-.2.49.02.49.37q.01.49.64.5c.14 0 .26.04.26.1q.01.08.16.03T14 7.1q-.12-.06.05-.2c.17-.14.2-.6.05-.76q-.12-.11.05-.24c.17-.14.2-.3.04-.3q-.09 0-.05.09c.08.12-.28.2-.46.1-.34-.19-1.03-.18-1.47.01M8.63 7c-.06.07-.38.14-.72.17-.49.05-.61.1-.59.21q.03.15.38.16c.3 0 .36.05.38.25.02.13-.02.28-.1.32q-.15.1 0 .09c.17 0 .17 1.17 0 1.23-.07.02-.32-.05-.56-.15a2.3 2.3 0 0 0-2.32.3c-.2.15-.42.26-.5.25q-.14-.02-.03.03c.1.04.07.16-.08.45-.1.22-.23.63-.26.9-.05.43-.09.49-.3.49s-.23.05-.22.33q0 .27.06.14.05-.16.14-.11.08.06.04.15t.13.09q.22.02.16-.22-.02-.18.09.14c.14.42.58.93 1 1.14q.26.15.2.26-.05.1.07.03c.07-.04.45-.07.84-.06.55.01.8-.03 1.09-.19.2-.1.37-.17.37-.13q.01.06.1-.07.1-.18.1.17c0 .3.01.32.26.23.14-.06.54-.1.88-.08.56.03.61.01.64-.19.03-.18-.02-.22-.3-.25l-.33-.03-.03-1.15c-.01-.86 0-1.11.09-1q.13.19.03-.05a17 17 0 0 1-.12-2.03l-.04-1.84-.25.07Q8.7 7.1 8.75 7q.1-.2-.12 0m6.15 2.12-.52.25c-.43.21-.76.7-.76 1.16q0 .3-.14.24c-.22-.09.55.68.84.83.23.13 1.54.4 1.92.41q.17.01.23.08c.02.05-.1.07-.26.05q-.27-.03-.24.05c.07.12.46.1.62-.01q.12-.08.22.1c.15.28.14.52-.03.52q-.12.02-.2.22-.06.27-.15.09c-.08-.12-.14-.12-.33-.03q-.2.11-.05.07t.12.05c-.03.06-.26.1-.5.1-.33 0-.45-.04-.45-.15 0-.18-.12-.2-.27-.04q-.1.1-.24-.03a1 1 0 0 0-.31-.2c-.1-.04-.18-.13-.18-.19q0-.13.14 0 .14.1.2.03c.03-.05-.1-.16-.3-.25-.18-.1-.34-.24-.34-.33q0-.15-.18-.12c-.13.02-.18.15-.2.56-.02.3-.07.5-.13.47q-.08-.05-.09.04.01.09.13.14.15.02-.01.2c-.16.19.02.34.22.18q.12-.1.2-.04.05.04.06-.15c0-.21 0-.21.35-.05.2.1.35.2.35.25q.01.07.1.03c.06-.04.33-.04.6 0 .4.05.5.1.53.28q.04.27.06-.05c0-.25.04-.27.34-.24.27.03.32.07.35.34.03.25.08.3.33.34.16.03.29.01.29-.03q-.02-.07-.23-.1-.23-.03-.21-.26 0-.21-.08-.23c-.19 0-.06-.2.27-.39.28-.16.35-.17.35-.06q0 .14.1.15c.04 0 .07-.12.05-.27-.03-.31.13-.83.26-.83q.08-.01.09-.1t-.1-.05q-.1.04-.1-.2c0-.26-.54-.95-.74-.95-.06 0-.28-.08-.48-.19s-.39-.15-.4-.1-.22.05-.46.02c-.34-.05-.41-.09-.37-.23q.04-.16-.09-.17-.13.01-.09.14c.07.17-.18.17-.42 0q-.18-.14-.07-.21a.3.3 0 0 0 .12-.22q-.01-.13-.1-.09-.1.06-.05.16.05.08-.04.09c-.33 0 .15-.6.49-.62.14 0 .3-.06.38-.11.32-.24 1.72.5 1.72.9q.02.12.15.13t.16.18q-.01.23.08-.02a.6.6 0 0 1 .27-.28q.23-.1-.08-.05c-.28.04-.28.04-.28-.54q0-.56.13-.62.1-.04.04-.12c-.04-.05-.14 0-.22.1q-.13.18-.15.11t-.13.03c-.1.08-.23.07-.48-.02A2 2 0 0 1 16 9.1a3 3 0 0 0-1.22.02m-8.76.54c-.32.22-.74 1.14-.52 1.14q.08-.01.13-.18.05-.2.06.04c0 .12-.06.25-.15.28-.14.05-.16.18-.11.75.03.38.1.78.16.9.15.26.6.61.8.6.14 0 .14-.01-.01-.13-.1-.07-.18-.19-.18-.26s-.08-.19-.17-.26c-.17-.12-.16-.13.05-.14.17 0 .24.07.29.3.03.17.1.3.14.3q.08.01.09.16c0 .33.96-.05 1.24-.49.19-.3.29-.77.16-.77q-.09.02-.1.22l-.01.23-.1-.23c-.1-.28-.03-.46.17-.38.1.04.14-.07.14-.5 0-1.06-.54-1.74-1.39-1.74-.26 0-.56.07-.69.16"/></svg>