<svg xmlns="http://www.w3.org/2000/svg" width="24" height="24"><path fill="#FFF" fill-rule="evenodd" d="M11.94 4.56c-.06.03-.73 1.4-1.49 3.05-1.37 2.98-1.38 3-1.18 3.2.32.32.51.13 1.03-.97l.49-1.04h2.68l.44.95c.5 1.11.68 1.32.98 1.15q.2-.11.21-.28c0-.18-2.54-5.78-2.72-6q-.15-.18-.44-.06m3.4.24-.12.3h5.55l.11-.25c.07-.14.12-.28.12-.3 0-.03-1.25-.05-2.78-.05h-2.78zm-11.68.06c-.03.08-.06 1.43-.06 2.99 0 2.27.03 2.85.14 2.94.1.08.83.1 2.47.09l2.34-.03.03-.23c.07-.49-.05-.52-2.2-.52H4.4V8.2l1.91-.02c1.7-.03 1.93-.05 2.03-.2q.12-.18 0-.36c-.1-.15-.33-.17-2.03-.2L4.4 7.4V5.39l2 .02c2.12.03 2.24 0 2.18-.42l-.03-.24-2.41-.03c-2.14-.02-2.42 0-2.48.14m11.3.87-.06.3c0 .04 1.21.07 2.7.07 2.56 0 2.7 0 2.8-.2.05-.1.1-.23.1-.3s-.87-.1-2.74-.1h-2.74zm-3.05.58-.5 1.12-.3.67h1c.54 0 .99-.02.99-.05 0-.06-.9-2.09-.96-2.14-.02-.02-.12.16-.23.4m6.1.38c-.2.38-.14.41.83.41.87 0 .96-.02 1.1-.22a1 1 0 0 0 .16-.3c0-.04-.45-.08-1-.08-.88 0-1 .02-1.1.2m-.44 1.03-.06.3c0 .04.43.07.95.07h.94l.16-.3.16-.3h-1.05c-1 0-1.04.01-1.1.23m-.44.92c-.07.14-.12.28-.12.3 0 .03.45.05 1 .05.88 0 1-.02 1.1-.2.2-.37.13-.4-.88-.4-.96 0-1 0-1.1.25m-.4 1c-.07.14-.12.28-.12.3 0 .03.44.05.98.05.96 0 1 0 1.1-.25.07-.14.12-.28.12-.3 0-.03-.44-.05-.98-.05-.96 0-1 0-1.1.25m-.42.84c-.2.38-.13.41.88.41.96 0 1 0 1.1-.25.07-.14.12-.28.12-.3 0-.03-.45-.05-1-.05-.88 0-1 .02-1.1.2m-13.2 2c0 .47.04.8.1.8.05 0 .1-.16.1-.36 0-.31.03-.36.2-.31q.2.04.2-.08-.01-.12-.2-.08c-.18.05-.2 0-.2-.36 0-.22-.04-.41-.1-.41s-.1.33-.1.8m1.1-.73c0 .1.55 1.4.62 1.48q.06.03.1-.2t0-.2c-.04.03-.16-.2-.28-.52-.12-.31-.27-.59-.33-.6q-.1-.03-.11.04m1.08.06a4 4 0 0 0 .12 1.47c.05 0 .1-.36.12-.8q.04-.81-.08-.8t-.16.13m.5.67c.02.44.08.8.13.8s.09-.36.09-.8c0-.57-.04-.8-.12-.8-.1 0-.12.2-.1.8M7 11.95a1 1 0 0 0-.24.6c0 .4.37.86.68.84q.3 0 .01-.06a1 1 0 0 1-.33-.2c-.17-.23-.15-.94.04-1.2q.29-.45-.16.02m.63-.07c.2.22.26.7.14 1.17l-.07.3.2-.24c.35-.4.23-1.08-.23-1.32-.22-.12-.22-.12-.04.09m.65.62c.02.44.08.8.13.8s.09-.36.09-.8c0-.57-.04-.8-.12-.8-.1 0-.12.2-.1.8m.45-.7c.2.13.23.56.04.64q-.15.06 0 .12c.07.03.13.14.13.24 0 .24.1.5.2.5.04 0 .04-.18 0-.4a2 2 0 0 1-.02-.66c.05-.27-.17-.54-.42-.54q-.08.01.06.1m.76.7c.02.44.08.8.13.8s.09-.36.09-.8c0-.57-.04-.8-.12-.8-.1 0-.12.2-.1.8m.62-.55a1 1 0 0 0-.24.6c0 .4.37.86.68.84q.3 0 .01-.06a1 1 0 0 1-.32-.2c-.18-.23-.16-.94.03-1.2q.29-.45-.16.02m2.37-.18c-.04.03-.07.15-.07.25q-.01.19.26.18.23 0 .2-.1-.05-.08.04-.15.1-.06.05-.16c-.07-.1-.38-.12-.48-.02m1.91.04c-.08.2.34 1.49.49 1.49q.13 0-.11-.68l-.28-.81q-.04-.2-.1 0m.82.69c0 .47.04.8.1.8s.1-.17.1-.37l.03-.8q.02-.43-.1-.43c-.1 0-.13.23-.13.8m.48-.7c.14.17.16.6.02.6q-.1 0 0 .18c.05.1.11.3.15.45s.1.27.15.27c.13 0 .13-.36 0-.61q-.12-.2 0-.35c.16-.18.07-.4-.22-.55q-.27-.15-.1.02m.69.06a5 5 0 0 1 .39.9c.18.54.27.57.39.13q.06-.24-.03-.12-.09.16-.32-.47c-.12-.34-.29-.61-.36-.61q-.12 0-.07.18m1.06 0q-.05.17-.11.26-.04.08.07.01c.1-.06.12.07.1.54-.03.44 0 .61.09.61s.12-.23.12-.8c0-.76-.12-1.04-.27-.62m1.73-.07c.74 1.18 1 1.52 1.02 1.36.04-.2-.75-1.38-.97-1.45q-.14-.05-.05.1m1.32.68c.02.44.08.8.13.8s.09-.36.09-.8c0-.57-.04-.8-.12-.8-.1 0-.12.2-.1.8m-9.6-.46a2 2 0 0 1-.01 1.06l-.08.25.2-.24a1 1 0 0 0 .1-1.01q-.12-.22.06-.14.14.07.15.15c0 .05.2.09.45.09h.45L12 12c-.16-.16-.32-.2-.7-.19-.46.02-.5.04-.43.23m2.45-.04c-.11.19-.1.2.23.2.22 0 .44-.08.57-.2l.22-.2h-.45c-.33 0-.47.05-.57.2m4.98-.13a4 4 0 0 0 .56 1.43c.1 0 .06-.2-.13-.75-.13-.41-.29-.75-.34-.75q-.08 0-.09.07m-6.8.53c0 .06.45.1 1.15.1s1.15-.04 1.15-.1-.45-.1-1.15-.1-1.15.04-1.15.1m.33.34q.16.12.17.25.01.1.11.11.1-.02.05-.15-.04-.13.04-.15.1.01.1.13-.02.14.53.12.52 0 .5-.13-.02-.11.12-.12t.15-.1c0-.06-.39-.1-.97-.1-.84 0-.95.03-.8.14"/></svg>