<svg xmlns="http://www.w3.org/2000/svg" width="24" height="24" viewBox="0 0 24 24"><path fill="#3e4953" fill-rule="evenodd" d="M4.62 6.07c.92.02 2.45.02 3.4 0 .95-.01.2-.03-1.67-.03s-2.65.02-1.73.03m5.18.23v.3l-3.07.03-3.08.02 3.13.03 3.12.02v-.35c0-.2-.02-.35-.05-.35s-.05.13-.05.3m1.5-.21q0 .1.1.11c.14 0 .12 1.14-.02 1.28-.1.1.03.12.55.12h.67v-.32q0-.34-.1-.19a.4.4 0 0 0-.02.3q.08.15-.19.08l-.36-.07c-.07 0-.14-.12-.14-.28q0-.37-.09.08c-.06.3-.08.24-.09-.31q0-.67-.16-.79-.15-.13-.15-.01m8.38.57q.04.64-.08.8c-.1.12-.05.14.44.14.3 0 .56-.04.56-.1 0-.04-.17-.07-.37-.05l-.38.04.03-.6q.05-.6-.1-.72c-.12-.12-.13-.05-.1.5m-4.42-.1q-.14.72-.38.42-.1-.16-.06.06.04.18.12.17.09-.02.17.09c.1.15.32-.63.27-.94q-.05-.22-.12.2m-2.04.3c-.02.49-.05.61-.16.57q-.14-.04-.2.06-.1.12.5.08c.5-.03.6-.06.62-.23q.03-.19-.05-.09c-.04.07-.2.14-.33.15-.24.04-.25.01-.3-.56l-.07-.6zm3.52-.1c-.1.27-.19.53-.19.58q-.02.1-.15.17t.2.07q.37.01.22-.11c-.24-.24-.14-.4.23-.36.2.02.35 0 .35-.03 0-.04-.13-.1-.3-.1-.3-.04-.3-.04-.15-.33.17-.33.18-.36.06-.36-.04 0-.17.21-.27.48m-9.67.6 2.72.02.04.33q.05.48.05-.05l.02-.38-2.78.02-2.77.03zm-1.5.6c.68.02 1.78.02 2.46 0 .67-.01.12-.03-1.23-.03s-1.9.02-1.22.03m10.75.2q-.13.05-.13.69c0 .36-.04.64-.1.64q-.1.01-.1.11 0 .12.15-.01.15-.14.15-.6c0-.6.09-.88.21-.68q.09.14.09.01-.01-.24-.28-.16m2.16.7-.02.78-.03-.68c-.02-.37-.08-.67-.13-.67-.04 0-.1.32-.12.7l-.03.7h.58c.35 0 .56-.04.52-.1-.03-.05-.19-.07-.35-.04l-.29.06V8.9c0-.7 0-.72.24-.67q.22.02.2-.04c-.04-.05-.17-.09-.3-.09-.24 0-.25.03-.27.78m1.2-.06c.03.52 0 .73-.1.79q-.14.09.22.09c.35 0 .36 0 .32-.4s.1-.54.26-.24q.1.22.14-.1c.05-.23.03-.25-.18-.2-.22.06-.24.03-.24-.26s.02-.32.25-.26q.23.05.25-.04c0-.14-.43-.13-.58.02q-.11.12-.24 0c-.11-.09-.13.02-.1.6m-2.58-.06c-.22.6-.2.9.04.33l.2-.49c.03-.08.05.13.03.47s0 .6.05.57c.11-.07.1-1.44-.01-1.44-.05 0-.19.25-.3.56m-5.38-.16c-.02.83-.04 1-.11.96q-.08-.03-.22.05c-.22.13.6.12.99-.02.25-.09.3-.16.3-.37q0-.33-.06-.05c-.04.22-.55.5-.72.38-.06-.03-.11-.2-.11-.36q0-.46.5-.19c.18.1.2.08.13-.22q-.12-.62-.13-.2c0 .32-.47.31-.53 0q-.05-.32-.04.02m2.37.24c0 .44-.04.56-.22.7q-.2.13-.1.15c.29.02.52-.38.52-.89 0-.28-.04-.5-.1-.5-.05 0-.1.24-.1.54m.72.02c-.01.33-.07.65-.14.72-.1.1.02.12.5.12.5 0 .6-.03.56-.15q-.05-.13.05-.15t.11-.22c0-.2-.02-.2-.2.1-.16.27-.26.33-.48.3-.26-.03-.27-.06-.33-.68l-.05-.65zM3.7 9.94c0 .04 1.1.06 2.42.05q3.63-.04-.85-.1c-.86-.02-1.57 0-1.57.04m9.97.25c1.33.02 3.53.02 4.9 0 1.36-.01.27-.02-2.42-.02-2.7 0-3.81 0-2.48.02m-9.4.4c.73.02 1.93.02 2.66 0 .72-.01.13-.03-1.33-.03s-2.05.02-1.32.03m5.52.63v.6l-3.43.03-3.42.02 3.48.03 3.47.02v-.65c0-.36-.02-.65-.05-.65s-.05.27-.05.6m4.98-.3q.04.31-.08.4-.13.08-.01.14.1.05.11-.04.01-.1.08-.06.06.02.04-.3c-.03-.26 0-.34.12-.34.17 0 .22.16.06.22-.15.05 0 .48.17.48q.18.01.04-.14a.6.6 0 0 1-.09-.37c.02-.2-.02-.25-.23-.27-.24-.03-.25 0-.21.29m2.67.09c0 .34.03.4.2.4q.17-.02.08-.07c-.07-.02-.13-.18-.13-.35q0-.3.13-.25.1.05.09.22c-.03.16-.02.17.12.06.2-.17.04-.41-.28-.41-.18 0-.21.06-.21.4m1.95 0c0 .22.05.4.1.4q.1-.02.1-.22v-.23l.2.23c.1.12.2.22.23.22s.07-.18.09-.4q.03-.39-.08-.4-.11.01-.07.28l.04.27-.25-.28a1 1 0 0 0-.3-.27c-.04 0-.06.18-.06.4m.86-.25c-.07.18.1.2.18.03q.05-.08.03.25c-.02.28 0 .37.13.37.12 0 .15-.08.12-.37q-.03-.41.07-.23c.1.13.1.13.1-.03.01-.22-.54-.24-.63-.02m-7.89.3c-.1.2-.13.35-.08.35s.14-.12.2-.28q.09-.24.1-.1c.01.18.31.47.31.3s-.22-.62-.3-.62c-.03 0-.14.16-.23.35m-7.84.22c.87.02 2.27.02 3.1 0 .84-.01.13-.03-1.58-.03-1.7 0-2.39.02-1.52.03m9.14.6c1.33.02 3.53.02 4.9 0 1.36-.01.27-.02-2.42-.02-2.7 0-3.81 0-2.48.02"/></svg>