<svg xmlns="http://www.w3.org/2000/svg" width="24" height="24"><path fill="#771117" fill-rule="evenodd" d="M9.86 2.08c-.12.2-.18.9-.07.96.06.04.82.07 1.68.07h1.58l.23-.33c.12-.18.21-.42.2-.53-.03-.19-.12-.2-1.8-.23-.97-.01-1.79.01-1.82.06m2.67 1.83c-.13.13-.06.76.1.96.07.1.74.13 2.73.13H18l.26-.4c.14-.2.24-.47.22-.57-.03-.17-.22-.18-2.93-.2-2.07-.03-2.94 0-3.02.08m.28 1.78c-.12.08-.13.2-.05.58l.09.48 2.07.03L17 6.8l.26-.4c.29-.46.31-.65.1-.74a35 35 0 0 0-4.54.03m-.08 1.81a.68.68 0 0 0-.23 1.1.63.63 0 0 0 1.1-.46c0-.35-.08-.47-.37-.62-.25-.14-.21-.13-.5-.02m3 0a.68.68 0 0 0-.23 1.1.63.63 0 0 0 1.1-.46c0-.35-.08-.47-.37-.62-.25-.14-.21-.13-.5-.02M5.82 9.73a13 13 0 0 0-.28 2.72q.07.27.42.41c.2.08.38.13.4.1.06-.04.54-3.32.54-3.63 0-.2-.05-.23-.49-.23h-.49zm5.23-.55a1.4 1.4 0 0 0-.74.5c-.05.1-.17.72-.26 1.4-.2 1.45-.16 1.65.42 1.81.2.06.53.1.7.1.26.01.33-.03.33-.19q0-.2-.19-.2c-.34 0-.4-.2-.27-1.05.1-.72.13-.8.36-.85.35-.08.4-.4.06-.4-.25 0-.26-.02-.2-.43.03-.23.07-.47.1-.54q.06-.23-.3-.15M7.4 10.22c-.22.12-.26.24-.42 1.28-.24 1.65-.27 1.52.34 1.48l.53-.03.16-1.13c.09-.62.19-1.15.22-1.18s.14-.04.23 0c.17.07.17.41-.02 1.88l-.07.48h1.01l.1-.62c.25-1.42.26-1.71.04-1.98-.18-.23-.29-.25-1.04-.28q-.82-.02-1.08.1m4.83-.02c-.25.1-.27.18-.44 1.34-.1.72-.1.8.09 1.05.23.32.48.39 1.4.4.65 0 .72 0 .72-.18s-.08-.2-.57-.23c-.5-.03-.58-.06-.61-.24-.03-.19.03-.22.49-.28.7-.1 1.19-.56 1.19-1.13 0-.62-.25-.77-1.24-.8a4 4 0 0 0-1.03.07m2.87-.02c-.26.08-.3.21-.54 2.25l-.08.58.54-.03.53-.03.05-.45c.03-.25.1-.45.15-.45s.56.62 1.12 1.37c.72.96 1.1 1.4 1.29 1.44.14.04.27.04.3.01s-.3-.68-.75-1.46a21 21 0 0 1-.81-1.47c0-.04.1-.18.2-.3.32-.33.37-.93.12-1.24-.18-.23-.28-.25-1.04-.27a6 6 0 0 0-1.08.05m-2.14.65q-.18.7.16.65c.27-.04.48-.66.26-.8q-.32-.2-.42.15m2.9-.06c-.17.64-.17.73.03.73.26 0 .43-.24.4-.57-.04-.32-.35-.44-.42-.16m-2.06 3c-.16.14-.23.37-.31.98l-.15 1.03c-.05.2-.01.22.3.22.33 0 .34-.01.4-.47.11-.85.17-1.04.28-1 .13.05.13.06.03.9l-.06.58.32-.03c.33-.03.33-.04.42-.72.11-.8.03-1-.43-1.04-.27-.03-.31-.07-.31-.33q0-.51-.49-.12m1.95.08c-.05.14.02.16.42.13.58-.04.62-.22.06-.26-.3-.02-.43.01-.48.13m-10.04.48c-.05.06-.13.37-.17.68-.08.63.05.99.34.99.15 0 .2-.13.3-.76q.13-.74.24-.71c.13.04.13.07.03.91l-.07.56h.69l.09-.72q.08-.7.22-.76c.11-.04.12.1.06.72l-.07.77.34-.03.33-.03.08-.73c.12-1 .1-1.02-1.23-1.02-.74 0-1.1.04-1.18.13m2.83-.04c-.03.06.12.11.32.13.52.04.51.3 0 .39-.22.03-.43.12-.48.2-.36.55-.1 1 .55.99.77 0 .83-.05.95-.74.14-.78.14-.72-.05-.9-.17-.18-1.19-.23-1.29-.07m1.7.04c-.07.2-.25 1.29-.25 1.5 0 .15.06.18.33.15s.33-.08.35-.3q.04-.54.35.02c.14.23.25.3.48.3.34 0 .34-.01.13-.41-.14-.28-.14-.32 0-.48.19-.2.2-.62.04-.79-.16-.16-1.37-.16-1.43 0m1.9.08q-.18.21-.23.8c-.04.52-.02.6.17.7.3.16 1.05.1 1.09-.1q.04-.16-.3-.15c-.32 0-.33-.02-.3-.35.06-.73.1-.8.47-.8q.36 0 .35-.15c0-.25-1.02-.2-1.25.05m3.25 0c-.14.26-.15 1.29-.01 1.43s1.2.16 1.23.02c.02-.05-.14-.11-.34-.13-.48-.04-.54-.32-.08-.32.36 0 .8-.38.8-.69 0-.36-.27-.51-.9-.51-.48 0-.61.04-.7.2"/></svg>