<svg xmlns="http://www.w3.org/2000/svg" width="24" height="24"><path fill="#FFF" fill-rule="evenodd" d="M6.9 9v7h10.2V1.95l-.43.45c-.97 1.04-4.42 5.02-4.42 5.1 0 .05 1.04 1.27 2.3 2.71l2.33 2.68c0 .03-.87.04-1.95.03l-1.98-.04-1.35-1.61-1.35-1.62-.03 1.63-.03 1.62H7.1V7.45C7.1 3.88 7.07 2 7 2s-.1 2.4-.1 7m3.3-5.35c0 .9.02 1.65.04 1.65.06 0 2.76-3.17 2.76-3.24 0-.03-.63-.06-1.4-.06h-1.4zM7 15.2c0 .58.03.7.16.7q.17 0 .11-.2c-.07-.27.07-.25.26.03.2.3.33.15.17-.23-.12-.29-.1-.44.05-.82q.08-.19-.08-.18-.14.02-.22.23l-.08.22-.04-.22q-.04-.21-.19-.23c-.1 0-.14.16-.14.7m1.1-.51c-.05.1-.08.42-.07.7.02.42.05.51.2.51s.18-.05.14-.28l-.12-.42c-.08-.21.18-.55.35-.45q.13.06.06.61c-.05.47-.04.54.11.54s.18-.1.2-.51c.03-.66-.1-.89-.47-.89q-.28 0-.4.19m1-.09q.01.1.1.1c.06 0 .1.27.1.6 0 .47.03.6.15.6s.15-.13.15-.54c0-.3.05-.58.1-.61.2-.13.09-.25-.25-.25-.2 0-.35.04-.35.1m1.02.2c.1.28.07.54-.08.94-.05.13.01.16.3.16q.38.01.36-.16-.01-.15-.14-.1c-.1.03-.13-.07-.13-.45q0-.5.14-.49.12 0 .13-.1c0-.05-.16-.1-.34-.1-.34 0-.35 0-.24.3m.9-.18c-.16.16-.16 1 0 1.16.18.18.56.14.68-.07a1.3 1.3 0 0 0 0-1.02c-.12-.21-.5-.25-.68-.07m.98.58v.71l.42-.03q.67-.03.42-.56c-.04-.1-.08-.3-.08-.47 0-.27-.04-.3-.38-.33l-.38-.03zm1.22-.58c-.07.07-.12.33-.12.58 0 .5.13.7.45.7s.45-.2.45-.7-.13-.7-.45-.7a.5.5 0 0 0-.33.12m1.28-.1-.2.7c-.14.53-.16.68-.05.68.14 0 .25-.21.25-.5 0-.31.2-.23.27.1.05.3.2.47.3.37s-.31-1.37-.44-1.37q-.12 0-.13.03m.8.16c-.14.27-.13.83.03 1.05.18.25.58.17.76-.16.12-.2.13-.35.05-.65-.08-.33-.13-.38-.4-.41-.24-.02-.35.02-.43.17m1.05-.01c.1.21.1.7 0 1-.08.2-.05.22.28.22q.38.01.36-.16-.01-.15-.14-.1c-.1.03-.13-.07-.13-.45q0-.5.14-.49.12 0 .13-.1c0-.05-.16-.1-.36-.1-.3 0-.35.03-.28.18m-5.14.14c-.16.16-.15.63.02.77.12.1.17.08.25-.08.14-.26.14-.43-.02-.64-.1-.14-.15-.15-.25-.05m2.2 0c-.16.16-.15.5.02.73.13.18.14.18.25-.03.15-.28.14-.57-.02-.7q-.14-.13-.25 0m2.15-.06c-.1.1-.09.82.01.88.19.11.33-.13.3-.5-.03-.36-.16-.52-.31-.38"/></svg>