<svg xmlns="http://www.w3.org/2000/svg" width="24" height="24"><path fill="#4e7394" fill-rule="evenodd" d="M10.45 2.15a7 7 0 0 0-5.1 4.55 7.5 7.5 0 0 0 .18 5.05 6.9 6.9 0 0 0 6.08 4.22 6.96 6.96 0 0 0 7.1-4.97 8.5 8.5 0 0 0 .06-3.85 7 7 0 0 0-6.76-5.14c-.53 0-1.23.07-1.56.14m.17 1.6A5 5 0 0 0 8.2 5.2a5 5 0 0 0-1.6 3.83 5.4 5.4 0 0 0 3.68 5.1c.8.28 2.54.3 3.32.03a5.6 5.6 0 0 0 3.48-3.39c.22-.6.26-.89.26-1.77 0-1.25-.23-2.07-.85-3a5.6 5.6 0 0 0-3.38-2.3 7 7 0 0 0-2.49.06m1.1.89c-.7.2-1.34.53-1.3.68.03.08.32.13.79.15.4.02.8.05.87.07.09.03.12.25.11.74-.02.63-.05.73-.3.96-.16.14-.3.33-.3.43v3.37l.5.03c.46.03.5.01.85-.4.35-.4.4-.42 1-.46.58-.04.65-.02.7.17.05.12.07.39.05.59-.05.9.05.93.82.14a3.9 3.9 0 0 0 .09-5.26c-.36-.4-1.2-.97-1.71-1.14-.6-.2-1.58-.24-2.16-.07M8.7 6.39c0 .37.05.53.18.63.37.26.42.53.42 2.28v1.72l-.3.3c-.29.28-.3.35-.28.92l.03.61h5.5l.03-.9c.04-1.23 0-1.35-.43-1.35-.27 0-.4.07-.6.34-.32.42-.7.56-1.46.56h-.59V7.38l.3-.28c.25-.23.3-.36.3-.74V5.9H8.7z"/></svg>