<svg xmlns="http://www.w3.org/2000/svg" width="24" height="24" viewBox="0 0 24 24"><path fill="#f9f9f6" fill-rule="evenodd" d="M3 8.95v6.35h18V2.6H3zm7.8-5.88c-3.46.23-6.18 1.6-7.18 3.61a2.6 2.6 0 0 0-.36 1.66c0 .76.05 1.02.27 1.55a8 8 0 0 0 2.8 3.4 9.7 9.7 0 0 0 6.23 1.52 10.8 10.8 0 0 0 6.47-3.1c3.45-3.6 1.73-7.12-4.1-8.37a27 27 0 0 0-4.13-.27M8.95 5.73c-.12.07-.9.14-2 .17-1.6.04-1.8.07-1.83.22s.08.18.81.2l.85.03-.73 1.8c-.69 1.68-.72 1.8-.53 1.83.11.02.24 0 .27-.05.04-.04.38-.88.76-1.85l.69-1.78h.45c.6 0 1.2-.15 1.39-.33.2-.22.12-.39-.13-.24M7.78 6.87c-.21.05-.24.2-.04.25.1.02 0 .38-.4 1.38-.3.74-.54 1.39-.54 1.43s.1.07.21.05c.15-.02.28-.2.45-.63.26-.64.72-1.15 1.04-1.15q.18 0 .2.04l-.3.7c-.18.36-.3.73-.28.83.04.23.43.29.75.12.18-.1.26-.1.35 0 .18.17.7.13 1.07-.1l.33-.2.15.2c.31.45 1.31.11 1.59-.54.3-.74.08-1.25-.54-1.25-.42 0-.98.51-1.16 1.05-.22.65-1.16 1.02-1.16.45 0-.14.16-.28.6-.5.42-.21.61-.37.66-.54.21-.85-1.11-.43-1.56.48-.1.23-.2.47-.2.54 0 .13-.35.34-.43.26-.03-.03.08-.34.25-.7s.28-.71.26-.81c-.04-.24-.62-.3-.94-.08-.13.08-.24.14-.24.11 0-.02.11-.34.25-.7l.25-.71c0-.06-.38-.05-.62.02m6.85 0c-.25.05-.32.23-.09.23.12 0 .11.09-.05.48-.19.45-.22.48-.52.44-.82-.1-1.87 1.34-1.35 1.86.16.16.6.15.85-.03.19-.13.22-.13.27 0 .07.2.46.2.74-.01.21-.15.25-.15.4 0 .47.42 1.4-.07 1.63-.85.07-.2.23-.48.35-.6.23-.22.24-.22.24-.03 0 .11-.11.49-.25.84-.3.76-.3.8-.07.8q.18.01.52-.7c.38-.78.53-.95.84-.95.26 0 .28-.28.03-.33-.1-.02-.3.06-.42.18l-.22.21-.06-.2c-.06-.26-.37-.27-.68-.03-.22.18-.23.18-.4 0-.54-.53-1.69.23-1.69 1.1 0 .2-.45.6-.55.5-.03-.03.2-.69.5-1.47.3-.77.55-1.43.55-1.46 0-.05-.23-.05-.57.02m-4.32.5q-.58.7-.03.38.79-.47.68-.64-.19-.3-.65.26m8.38.86c-.65.44-1 1.31-.67 1.65.23.23.82.14 1.29-.2.52-.38.38-.5-.16-.13-.4.26-.7.32-.8.15q-.18-.35.54-.67c.58-.24.9-.65.71-.88-.18-.21-.52-.19-.9.08m-8.56.05c-.14.1-.44.54-.44.65q.02.07.28-.08c.29-.19.52-.44.52-.57 0-.1-.21-.1-.36 0m1.27.18c-.24.3-.45 1-.37 1.2s.4.17.6-.04c.21-.24.46-.86.46-1.17 0-.35-.41-.34-.7.01m2.08.01c-.32.34-.58.85-.58 1.13s.35.26.66-.05c.28-.28.67-1.12.58-1.26-.1-.17-.4-.09-.66.19m2.09-.1c-.22.24-.47.86-.47 1.17 0 .2.05.25.23.25.13 0 .31-.08.4-.18.22-.24.5-1.08.43-1.27-.07-.2-.4-.19-.6.03m3.18.17c-.15.2-.25.38-.22.4.09.09.73-.4.76-.58.06-.3-.26-.19-.54.18M7.9 11.15v.46l.38-.03c.35-.03.37-.04.35-.38l-.02-.42c0-.05-.17-.08-.36-.08-.35 0-.35 0-.35.46m1.36-.05c-.2.47-.16.56.12.38.17-.1.23-.1.36 0q.36.31.13-.35-.3-.81-.61-.03m1.14-.31q0 .09.1.1c.05 0 .1.16.1.35q0 .35.15.35.15.01.15-.35c0-.2.04-.35.1-.35a.1.1 0 0 0 .1-.1c0-.05-.16-.1-.35-.1-.2 0-.35.05-.35.1m1.9.35c0 .25.04.45.1.45.05 0 .1-.12.1-.27 0-.25.02-.26.14-.1.12.15.14.15.3 0q.2-.22.16-.03-.06.4.1.4c.06 0 .1-.2.1-.45q-.02-.73-.4-.3c-.12.15-.14.15-.22 0-.19-.32-.38-.17-.38.3m1.5 0c0 .43.01.45.3.45.17 0 .3-.04.3-.1q-.02-.09-.2-.1-.18 0-.2-.1.02-.09.2-.1c.27 0 .25-.18-.02-.23l-.23-.04.23-.02c.33-.02.27-.21-.08-.21-.29 0-.3.02-.3.45m1.1 0c0 .25.04.45.1.45s.1-.12.1-.27v-.28l.21.28c.3.38.39.34.39-.18 0-.45-.2-.66-.2-.22l-.01.22-.16-.22q-.41-.56-.43.22m1.3-.35q0 .09.1.1c.05 0 .1.14.12.32.04.46.28.49.28.04 0-.2.05-.36.1-.36a.1.1 0 0 0 .1-.1c0-.05-.16-.1-.35-.1-.2 0-.35.05-.35.1m-4.1 1.26c-1.52.14-3.3.46-4.48.8-.8.24-.58.26.48.04a45 45 0 0 1 8.53-.64c.65.03.77.02.57-.06a42 42 0 0 0-5.1-.14"/></svg>