<svg xmlns="http://www.w3.org/2000/svg" width="24" height="24" viewBox="0 0 24 24"><path fill="#e6e3de" fill-rule="evenodd" d="M3.3 6.7c.2.05.88.14 1.53.2 1 .1 1.17.15 1.17.3 0 .1-.24.75-.54 1.46s-.53 1.3-.5 1.32c.01.02.11.01.21-.02q.18-.04.73-1.37c.3-.72.63-1.37.74-1.45.13-.09.46-.14.87-.14q.65 0 .78-.13.1-.14.04-.2a26 26 0 0 0-2.72-.06c-1.67 0-2.53.04-2.31.1m9.73.62c-.17.26-.36.6-.43.77-.1.24-.17.29-.35.24-.34-.08-.92.2-1.15.58s-.26.8-.07.96c.18.14 2.36.1 2.65-.07.5-.28.8-1.14.47-1.41-.12-.1-.24-.1-.55-.01-.53.16-.97.7-.91 1.13 0 .1-.29.32-.35.26-.03-.03.2-.66.5-1.39.31-.73.55-1.38.53-1.43s-.18.1-.34.37m-5.96.1a7 7 0 0 0-.97 2.22c0 .46.2.35.48-.27q.29-.62.54-.77c.43-.22.48-.1.23.49-.3.68-.3.81-.05 1.11l.2.24v-.43c0-.24.1-.65.21-.92.12-.27.19-.56.15-.65-.06-.18-.39-.2-.68-.04s-.3.07-.08-.46q.35-.81-.03-.53m1.95.38q-.77.19.04.2c.29 0 .59-.06.7-.15.18-.14.17-.14-.11-.14-.17 0-.45.05-.63.09m-.5.71a1.3 1.3 0 0 0-.62 1.07c0 .44.53.57 1.1.27.25-.13.3-.13.4 0 .16.2.55.19.9-.02.38-.22.74-.87.66-1.18-.15-.6-1.15-.31-1.54.45q-.34.69-.88.7c-.5 0-.37-.33.27-.65.46-.24.67-.53.54-.75-.1-.16-.48-.11-.83.11m6.85-.14c-.04.04-.25.06-.47.05-.23-.02-.4.02-.4.08q.01.09.14.1c.12 0 .1.13-.1.6-.28.7-.3.8-.09.8.09 0 .29-.29.48-.67.29-.62.35-.68.62-.68q.3 0 .3-.15c0-.16-.36-.26-.48-.13m.8.12c-.4.26-.67.7-.67 1.08 0 .26.05.34.25.39q.5.13.99-.27c.36-.29.26-.35-.15-.1-.43.27-.69.27-.69.01q-.01-.2.5-.45c.46-.23.68-.53.55-.75-.1-.16-.47-.12-.79.09m1.52-.08c-.56.32.2.37 2.06.14a9 9 0 0 0 1.24-.2c.1-.1-3.13-.04-3.3.06m-7.51.2c-.21.12-.47.67-.47 1q-.02.22.22.17c.28-.04.68-.62.68-1q.01-.45-.43-.17m1.6 0c-.39.23-.65 1.19-.32 1.19.23 0 .6-.43.72-.84q.2-.7-.4-.35m1.65.12c-.3.32-.48.85-.33 1 .23.23.76-.33.87-.9.06-.28.04-.33-.13-.33-.1 0-.3.1-.41.23m3.96.48q-.44.27.25.29c.53 0 2.15-.24 2.24-.33.1-.11-2.3-.07-2.5.04m-.23.65c-.18.14-.14.15.5.1.9-.07 1.12-.26.3-.26q-.6 0-.8.16m-11 1.08q-.16.39.34.41c.3.02.32 0 .32-.26 0-.3-.15-.4-.23-.16q-.03.15-.2-.02c-.14-.11-.18-.1-.23.03m.93.12-.16.3h.3q.47.01.15-.41c-.13-.18-.14-.17-.3.11m1.1-.2a1 1 0 0 0-.06.31c0 .36.34.26.37-.1.02-.25-.14-.36-.3-.2m.66 0c-.18.07-.16.42.03.5.08.03.23-.01.31-.1.13-.13.14-.19.03-.31-.13-.17-.17-.18-.37-.1m.62.03c-.1.09-.05.51.05.51q.09-.01.1-.11 0-.12.15.01c.13.1.15.08.15-.17q.01-.31-.2-.29c-.12 0-.23.02-.25.05m1.05.21c0 .23.05.3.19.3.1 0 .24-.07.31-.15.16-.19-.03-.45-.31-.45-.14 0-.19.07-.19.3m.77-.24c-.04.04-.07.18-.07.3 0 .19.06.24.24.24.2 0 .24-.04.22-.28-.03-.26-.24-.4-.39-.26m.93.24c0 .33.06.36.33.16q.32-.26.01-.4c-.28-.1-.34-.07-.34.24m.7 0c0 .23.04.3.2.3s.2-.07.2-.3-.04-.3-.2-.3-.2.07-.2.3m1-.02c0 .25.04.3.25.3s.25-.05.25-.3c0-.15-.04-.28-.1-.28q-.1.01-.1.11 0 .12-.15-.01c-.13-.1-.15-.08-.15.18m1.32 0q.03.29.23.27.2 0 .23-.27.03-.26-.07-.28-.1.02-.12.22v.23l-.1-.22c-.12-.31-.21-.29-.17.05m.68 0c0 .24.04.3.23.3.25 0 .36-.36.14-.5q-.36-.22-.37.2m.68-.23c-.12.13.05.55.23.55.14 0 .19-.07.19-.3q0-.32-.18-.3c-.1 0-.21.02-.24.05"/></svg>