<svg xmlns="http://www.w3.org/2000/svg" width="24" height="24"><path fill="#e6e6e6" fill-rule="evenodd" d="M7 9v7h10v-.21q.02-.25-.18-.13c-.1.05-.63.1-1.2.12-.8.03-1.09 0-1.27-.12-.12-.08-.6-.73-1.04-1.43l-2.46-3.81c-.5-.8-.87-1.32-.95-1.32-.06 0-.1 1.2-.1 3.2 0 3.18 0 3.19-.22 3.34-.27.2-1.74.22-2.13.04l-.25-.11V2.49l.35-.15c.6-.25 1.95-.13 2.17.2.04.06.08 1.4.08 3q0 2.89.1 2.8a6 6 0 0 0 .98-1.36c.05-.01.27-.3.5-.63l2.14-3.08c.37-.55.63-.83.87-.93a4 4 0 0 1 1.92-.02c.71.2.56.5-1.76 3.54l-1.74 2.3-.24.34.8 1.17.83 1.29c.03.05.62.96 1.33 2 .7 1.05 1.27 1.98 1.27 2.07q0 .16.1.17c.07 0 .1-2.27.1-6.6V2H7z"/></svg>