<svg xmlns="http://www.w3.org/2000/svg" width="24" height="24"><path fill="#e1e1e1" fill-rule="evenodd" d="M6.8 9v7h5.15c5.08 0 5.15 0 5.15-.2s-.15-.27-.25-.1c-.04.06-.55.1-1.19.1-1.31 0-1.27.02-1.7-1.05l-.56-1.4c0-.06-.29-.72-.68-1.55-.6-1.28-1.23-1.73-2.37-1.68l-.7.03-.03 2.71-.02 2.7-.26.12c-.35.17-1.94.15-2.16-.02C7 15.54 7 15.1 7 9.03c0-6.21 0-6.5.19-6.67.16-.15.47-.16 3.07-.13 3 .04 3.38.08 4.2.47 1.28.62 1.9 1.8 1.82 3.4a3.3 3.3 0 0 1-1.97 3c-.34.16-.61.32-.61.34s.18.16.41.32a5 5 0 0 1 1.32 1.74c.46 1.03.67 1.51.67 1.55l.29.67c.16.35.35.81.42 1.03s.17.44.21.5.08-2.91.08-6.58V2H6.8zm2.84-4.77c-.02.07-.03.98-.02 2.02l.03 1.9h1.2c1.1 0 1.26-.02 1.7-.25.53-.27.71-.5.95-1.21a1.93 1.93 0 0 0-1.04-2.38c-.39-.18-.64-.21-1.61-.21-.85 0-1.17.03-1.2.13"/></svg>