<?xml version="1.0" encoding="UTF-8" standalone="no"?><!-- Generator: Gravit.io --><svg xmlns="http://www.w3.org/2000/svg" xmlns:xlink="http://www.w3.org/1999/xlink" style="isolation:isolate" viewBox="0 0 24 24" width="24pt" height="24pt"><defs><clipPath id="_clipPath_1eUfTD7fULqIUeDYF9g3kC7lXyE3rZjK"><rect width="24" height="24"/></clipPath></defs><g clip-path="url(#_clipPath_1eUfTD7fULqIUeDYF9g3kC7lXyE3rZjK)"><clipPath id="_clipPath_Qy454BnxLo3L5EDRCvOV6UGyOApyHYlm"><rect x="2.769" y="0" width="18.462" height="24" transform="matrix(1,0,0,1,0,0)" fill="rgb(255,255,255)"/></clipPath><g clip-path="url(#_clipPath_Qy454BnxLo3L5EDRCvOV6UGyOApyHYlm)"><g><g><g filter="url(#w6TcZWCuv1RCxWO7O2oVfkrw2vTydHVc)"><ellipse vector-effect="non-scaling-stroke" cx="11.949859191712658" cy="22.615384615384617" rx="3" ry="0.9307692307692328" fill="rgb(162,162,162)" fill-opacity="0.7"/></g><defs><filter id="w6TcZWCuv1RCxWO7O2oVfkrw2vTydHVc" x="-200%" y="-200%" width="400%" height="400%" filterUnits="objectBoundingBox" color-interpolation-filters="sRGB"><feGaussianBlur xmlns="http://www.w3.org/2000/svg" stdDeviation="4.293609062839028"/></filter></defs><g filter="url(#5lxiSsWyCtkVHKwNj1QOEkYlTbuI16HV)"><mask id="_mask_JTmd2T0B1TVsuNi7gnVODoahu5hBSRxk" x="-200%" y="-200%" width="400%" height="400%"><rect x="-200%" y="-200%" width="400%" height="400%" style="fill:white;"/><path d=" M 3.642 8.489 C 3.642 3.848 7.374 0.092 11.972 0.092 C 16.576 0.092 20.308 3.848 20.308 8.489 C 20.308 10.98 19.226 13.225 17.509 14.763 C 17.414 14.845 14.142 17.913 11.951 22.615 C 11.126 19.288 7.929 16.09 6.461 14.783 C 4.731 13.239 3.642 10.993 3.642 8.489 Z " fill="black" stroke="none"/></mask><path d=" M 3.642 8.489 C 3.642 3.848 7.374 0.092 11.972 0.092 C 16.576 0.092 20.308 3.848 20.308 8.489 C 20.308 10.98 19.226 13.225 17.509 14.763 C 17.414 14.845 14.142 17.913 11.951 22.615 C 11.126 19.288 7.929 16.09 6.461 14.783 C 4.731 13.239 3.642 10.993 3.642 8.489 Z " fill="rgb(60,145,230)"/><path d=" M 3.642 8.489 C 3.642 3.848 7.374 0.092 11.972 0.092 C 16.576 0.092 20.308 3.848 20.308 8.489 C 20.308 10.98 19.226 13.225 17.509 14.763 C 17.414 14.845 14.142 17.913 11.951 22.615 C 11.126 19.288 7.929 16.09 6.461 14.783 C 4.731 13.239 3.642 10.993 3.642 8.489 Z " fill="rgb(60,145,230)" mask="url(#_mask_JTmd2T0B1TVsuNi7gnVODoahu5hBSRxk)" vector-effect="non-scaling-stroke" stroke-width="0.185" stroke="rgb(255,255,255)" stroke-opacity="100" stroke-linejoin="miter" stroke-linecap="butt" stroke-miterlimit="4"/></g><defs><filter id="5lxiSsWyCtkVHKwNj1QOEkYlTbuI16HV" x="-200%" y="-200%" width="400%" height="400%" filterUnits="objectBoundingBox" color-interpolation-filters="sRGB"><feGaussianBlur xmlns="http://www.w3.org/2000/svg" stdDeviation="0.42936090628390283"/></filter></defs></g><path d=" M 17.472 10.622 L 17.472 9.465 L 12.843 6.572 L 12.843 3.389 C 12.843 2.909 12.455 2.521 11.975 2.521 C 11.495 2.521 11.107 2.909 11.107 3.389 L 11.107 6.572 L 6.478 9.465 L 6.478 10.622 L 11.107 9.176 L 11.107 12.358 L 9.95 13.226 L 9.95 14.094 L 11.975 13.516 L 14 14.094 L 14 13.226 L 12.843 12.358 L 12.843 9.176 L 17.472 10.622 Z " fill="rgb(241,241,225)"/></g></g></g></svg>