<?xml version="1.0" encoding="UTF-8" standalone="no"?><!-- Generator: Gravit.io --><svg xmlns="http://www.w3.org/2000/svg" xmlns:xlink="http://www.w3.org/1999/xlink" style="isolation:isolate" viewBox="0 0 24 24" width="24pt" height="24pt"><defs><clipPath id="_clipPath_c0ftUKIZp5JQskTYG6DjDHfupKDCS1A9"><rect width="24" height="24"/></clipPath></defs><g clip-path="url(#_clipPath_c0ftUKIZp5JQskTYG6DjDHfupKDCS1A9)"><defs><filter id="MSsxxXEHnVB9uZWh1H0wz62dnFzz4lvg" x="-200%" y="-200%" width="400%" height="400%" filterUnits="objectBoundingBox" color-interpolation-filters="sRGB"><feGaussianBlur xmlns="http://www.w3.org/2000/svg" stdDeviation="4.293609062839028"/></filter></defs><g filter="url(#MSsxxXEHnVB9uZWh1H0wz62dnFzz4lvg)"><ellipse vector-effect="non-scaling-stroke" cx="12" cy="22.56451612903226" rx="2.419354838709676" ry="0.5645161290322598" fill="rgb(162,162,162)" fill-opacity="0.7"/></g><g><path d=" M 3.808 8.748 C 3.808 4.215 7.477 0.546 11.997 0.546 C 16.523 0.546 20.192 4.215 20.192 8.748 C 20.192 11.181 19.128 13.374 17.44 14.876 C 17.347 14.956 14.13 17.954 11.977 22.546 C 11.166 19.296 8.022 16.172 6.58 14.896 C 4.878 13.387 3.808 11.194 3.808 8.748 Z  M 17.061 8.748" fill="rgb(83,153,135)"/></g><g><circle vector-effect="non-scaling-stroke" cx="11.661775516867433" cy="3.8563312759621535" r="0.5875140716610794" fill="rgb(255,255,255)"/><circle vector-effect="non-scaling-stroke" cx="14.774557103327627" cy="3.8563312759621535" r="0.5875140716610794" fill="rgb(255,255,255)"/><path d=" M 16.525 4.391 C 16.227 3.874 15.692 3.565 15.095 3.565 L 15.095 4.148 C 15.481 4.148 15.827 4.347 16.02 4.682 C 16.214 5.017 16.214 5.416 16.02 5.751 L 14.149 8.993 C 13.956 9.327 13.61 9.527 13.223 9.527 C 12.837 9.527 12.491 9.327 12.298 8.993 L 10.426 5.751 C 10.233 5.416 10.233 5.017 10.426 4.682 C 10.619 4.347 10.965 4.148 11.352 4.148 L 11.352 3.565 C 10.755 3.565 10.22 3.874 9.921 4.391 C 9.623 4.908 9.623 5.525 9.921 6.042 L 11.793 9.284 C 12.042 9.715 12.455 10 12.932 10.084 L 12.932 11.647 C 12.932 13.174 12.03 14.417 10.922 14.417 C 9.814 14.417 8.912 13.174 8.912 11.647 L 8.912 9.786 C 9.576 9.65 10.077 9.062 10.077 8.359 C 10.077 7.556 9.424 6.903 8.621 6.903 C 7.818 6.903 7.165 7.556 7.165 8.359 C 7.165 9.062 7.666 9.65 8.33 9.786 L 8.33 11.647 C 8.33 13.496 9.493 15 10.922 15 C 12.352 15 13.515 13.496 13.515 11.647 L 13.515 10.084 C 13.991 10 14.404 9.715 14.653 9.284 L 16.525 6.042 C 16.824 5.525 16.824 4.908 16.525 4.391 Z " fill="rgb(255,255,255)"/></g></g></svg>