<?xml version="1.0" encoding="UTF-8" standalone="no"?><!-- Generator: Gravit.io --><svg xmlns="http://www.w3.org/2000/svg" xmlns:xlink="http://www.w3.org/1999/xlink" style="isolation:isolate" viewBox="0 0 24 24" width="24pt" height="24pt"><defs><clipPath id="_clipPath_rvGAdlBC8NcT6WgXnwtsb0THmMwMdtjS"><rect width="24" height="24"/></clipPath></defs><g clip-path="url(#_clipPath_rvGAdlBC8NcT6WgXnwtsb0THmMwMdtjS)"><clipPath id="_clipPath_hh7M3355lLTxOmeDMGmEk0Grfauyu3h8"><rect x="-1" y="-1" width="24" height="24" transform="matrix(1,0,0,1,0,0)" fill="rgb(255,255,255)"/></clipPath><g clip-path="url(#_clipPath_hh7M3355lLTxOmeDMGmEk0Grfauyu3h8)"><g><path d=" M 5.124 4.322 L 10.461 4.322 L 17.956 7.88 L 23.899 7.88 L 23.899 9.755 L 23.899 10.268 L 17.88 10.268 L 11.407 13.334 L 23.899 13.334 L 23.899 15.754 L 11.559 15.754 L 19.167 19.312 L 13.716 19.312 L 6.108 15.716 L 0.279 15.716 L 0.279 13.293 L 6.222 13.293 L 12.505 10.265 L 0.165 10.265 L 0.165 7.842 L 12.467 7.842 L 5.124 4.322 Z " fill="rgb(255,255,255)"/></g></g><clipPath id="_clipPath_xhjcMdDjrHMCMdFUHOLS3VYyoxrIeN1x"><rect x="0" y="0" width="24" height="24" transform="matrix(1,0,0,1,0,0)" fill="rgb(255,255,255)"/></clipPath><g clip-path="url(#_clipPath_xhjcMdDjrHMCMdFUHOLS3VYyoxrIeN1x)"><g><path d=" M 5.092 4.505 L 10.429 4.505 L 17.924 8.063 L 23.867 8.063 L 23.867 9.938 L 23.867 10.451 L 17.848 10.451 L 11.375 13.517 L 23.867 13.517 L 23.867 15.937 L 11.527 15.937 L 19.135 19.495 L 13.684 19.495 L 6.076 15.899 L 0.247 15.899 L 0.247 13.476 L 6.19 13.476 L 12.473 10.448 L 0.133 10.448 L 0.133 8.025 L 12.435 8.025 L 5.092 4.505 Z " fill="rgb(116,116,116)"/></g></g></g></svg>