<?xml version="1.0" encoding="UTF-8" standalone="no"?><!-- Generator: Gravit.io --><svg xmlns="http://www.w3.org/2000/svg" xmlns:xlink="http://www.w3.org/1999/xlink" style="isolation:isolate" viewBox="0 0 24 24" width="24pt" height="24pt"><defs><clipPath id="_clipPath_EZkBmYyU0au1WAAdsSn4JbPlZhhh3s7p"><rect width="24" height="24"/></clipPath></defs><g clip-path="url(#_clipPath_EZkBmYyU0au1WAAdsSn4JbPlZhhh3s7p)"><clipPath id="_clipPath_dS38GhbalLyxwoHq2oUVf0Nz9BWJ1vnH"><rect x="2.769" y="0" width="18.462" height="24" transform="matrix(1,0,0,1,0,0)" fill="rgb(255,255,255)"/></clipPath><g clip-path="url(#_clipPath_dS38GhbalLyxwoHq2oUVf0Nz9BWJ1vnH)"><g><g><g filter="url(#1cgVCfHgrk0EKVAtJelRLgQpeeV70ES6)"><ellipse vector-effect="non-scaling-stroke" cx="11.949859191712658" cy="22.707692307692305" rx="3" ry="0.9307692307692328" fill="rgb(162,162,162)" fill-opacity="0.7"/></g><defs><filter id="1cgVCfHgrk0EKVAtJelRLgQpeeV70ES6" x="-200%" y="-200%" width="400%" height="400%" filterUnits="objectBoundingBox" color-interpolation-filters="sRGB"><feGaussianBlur xmlns="http://www.w3.org/2000/svg" stdDeviation="4.293609062839028"/></filter></defs><g filter="url(#LDQGBxGMsCUDRdAP3anwWxKWevDABQ1X)"><path d=" M 3.642 8.581 C 3.642 3.941 7.374 0.185 11.972 0.185 C 16.576 0.185 20.308 3.941 20.308 8.581 C 20.308 11.072 19.226 13.317 17.509 14.855 C 17.414 14.937 14.142 18.006 11.951 22.708 C 11.126 19.38 7.929 16.182 6.461 14.876 C 4.731 13.331 3.642 11.086 3.642 8.581 Z " fill="rgb(255,213,0)"/></g><defs><filter id="LDQGBxGMsCUDRdAP3anwWxKWevDABQ1X" x="-200%" y="-200%" width="400%" height="400%" filterUnits="objectBoundingBox" color-interpolation-filters="sRGB"><feGaussianBlur xmlns="http://www.w3.org/2000/svg" stdDeviation="0"/></filter></defs></g><circle vector-effect="non-scaling-stroke" cx="11.953846153846154" cy="8.630769230769232" r="6.23076923076923" fill="rgb(237,28,36)"/><circle vector-effect="non-scaling-stroke" cx="11.976923076923075" cy="8.614229819435671" r="5.79230769230769" fill="rgb(255,255,255)"/><g><g><g><path d=" M 11.97 12.369 C 11.668 12.369 11.513 12.172 11.513 12.172 C 11.265 12.162 9.328 12.167 9.328 12.167 L 9.139 10.575 C 9.139 10.575 7.946 9.733 7.849 9.636 C 7.276 7.037 9.346 4.56 11.97 4.56 C 14.594 4.56 16.665 7.037 16.092 9.636 C 15.995 9.733 14.801 10.575 14.801 10.575 L 14.613 12.167 C 14.613 12.167 12.675 12.162 12.427 12.172 C 12.427 12.172 12.272 12.369 11.97 12.369 Z " fill-rule="evenodd" fill="rgb(237,28,36)"/><path d=" M 11.973 9.948 L 11.79 5.351 C 11.569 5.306 11.006 5.36 10.704 5.585 L 11.582 9.966 C 11.582 9.966 10.384 5.766 10.384 5.766 C 10.096 5.762 9.517 6.248 9.474 6.392 L 11.222 10.119 C 11.222 10.119 9.257 6.712 9.257 6.712 C 9.063 6.784 8.64 7.564 8.707 7.654 C 8.707 7.654 10.898 10.335 10.898 10.335 L 8.644 8.046 C 8.644 8.046 8.351 8.492 8.542 9.248 L 9.815 10.167 L 9.974 11.422 L 11.535 11.422 C 11.535 11.422 11.79 11.664 11.971 11.664 C 12.152 11.664 12.408 11.422 12.408 11.422 L 13.968 11.422 L 14.127 10.167 L 15.4 9.248 C 15.591 8.492 15.298 8.046 15.298 8.046 L 13.045 10.335 C 13.045 10.335 15.235 7.654 15.235 7.654 C 15.303 7.564 14.879 6.784 14.685 6.712 C 14.685 6.712 12.721 10.119 12.721 10.119 L 14.469 6.392 C 14.426 6.248 13.846 5.762 13.559 5.766 Q 13.559 5.766 12.959 7.866 Q 12.36 9.966 12.36 9.966 L 13.239 5.585 C 12.937 5.36 12.374 5.306 12.153 5.351 L 11.973 9.948 Z " fill-rule="evenodd" fill="rgb(255,213,0)"/></g></g></g></g></g></g></svg>