<?xml version="1.0" encoding="UTF-8" standalone="no"?><!-- Generator: Gravit.io --><svg xmlns="http://www.w3.org/2000/svg" xmlns:xlink="http://www.w3.org/1999/xlink" style="isolation:isolate" viewBox="0 0 24 24" width="24pt" height="24pt"><defs><clipPath id="_clipPath_axUi1m0AA6xU7Q3v6IyGhg2REUvXNkQI"><rect width="24" height="24"/></clipPath></defs><g clip-path="url(#_clipPath_axUi1m0AA6xU7Q3v6IyGhg2REUvXNkQI)"><defs><filter id="RWAhgTMyYbImLavhFTRs1KAai8vGAVOh" x="-200%" y="-200%" width="400%" height="400%" filterUnits="objectBoundingBox" color-interpolation-filters="sRGB"><feGaussianBlur xmlns="http://www.w3.org/2000/svg" stdDeviation="4.293609062839028"/></filter></defs><g filter="url(#RWAhgTMyYbImLavhFTRs1KAai8vGAVOh)"><ellipse vector-effect="non-scaling-stroke" cx="12" cy="22.56451612903226" rx="2.419354838709676" ry="0.5645161290322598" fill="rgb(162,162,162)" fill-opacity="0.7"/></g><g><path d=" M 3.808 8.748 C 3.808 4.215 7.477 0.546 11.997 0.546 C 16.523 0.546 20.192 4.215 20.192 8.748 C 20.192 11.181 19.128 13.374 17.44 14.876 C 17.347 14.956 14.13 17.954 11.977 22.546 C 11.166 19.296 8.022 16.172 6.58 14.896 C 4.878 13.387 3.808 11.194 3.808 8.748 Z  M 17.061 8.748" fill="rgb(37,19,81)"/></g><g><g><rect x="5.336" y="2.109" width="13.203" height="13.203" transform="matrix(1,0,0,1,0,0)" fill="none"/></g><g><g><path d=" M 11.937 3.21 C 8.901 3.21 6.436 5.674 6.436 8.711 C 6.436 11.748 8.901 14.212 11.937 14.212 C 14.974 14.212 17.439 11.748 17.439 8.711 C 17.439 5.674 14.974 3.21 11.937 3.21 Z  M 12.488 5.025 L 13.23 4.502 C 14.232 4.811 15.084 5.471 15.64 6.34 L 15.425 7.077 L 14.683 7.33 L 12.488 5.795 L 12.488 5.025 Z  M 10.645 4.502 L 11.387 5.025 L 11.387 5.795 L 9.192 7.33 L 8.45 7.077 L 8.235 6.34 C 8.791 5.476 9.643 4.816 10.645 4.502 Z  M 9.231 11.522 L 8.604 11.577 C 7.938 10.807 7.536 9.806 7.536 8.711 C 7.536 8.645 7.542 8.584 7.547 8.518 L 8.098 8.117 L 8.857 8.381 L 9.66 10.768 L 9.231 11.522 Z  M 13.313 12.886 C 12.878 13.029 12.416 13.112 11.937 13.112 C 11.459 13.112 10.997 13.029 10.562 12.886 L 10.183 12.067 L 10.535 11.462 L 13.346 11.462 L 13.698 12.072 L 13.313 12.886 Z  M 13.186 10.361 L 10.689 10.361 L 9.946 8.15 L 11.937 6.752 L 13.934 8.15 L 13.186 10.361 Z  M 15.271 11.577 L 14.644 11.522 L 14.21 10.768 L 15.013 8.381 L 15.777 8.122 L 16.328 8.524 C 16.333 8.584 16.339 8.645 16.339 8.711 C 16.339 9.806 15.937 10.807 15.271 11.577 Z " fill="rgb(255,253,152)"/></g></g></g></g></svg>