<?xml version="1.0" encoding="UTF-8" standalone="no"?><!-- Generator: Gravit.io --><svg xmlns="http://www.w3.org/2000/svg" xmlns:xlink="http://www.w3.org/1999/xlink" style="isolation:isolate" viewBox="0 0 24 24" width="24pt" height="24pt"><defs><clipPath id="_clipPath_46zlqz0uOOQibVGIOpFzhRQBTwxtCYtL"><rect width="24" height="24"/></clipPath></defs><g clip-path="url(#_clipPath_46zlqz0uOOQibVGIOpFzhRQBTwxtCYtL)"><clipPath id="_clipPath_MZT0evbnHBImWhxQwdZin32BV9TnXtyb"><rect x="2.98" y="1" width="18.04" height="22" transform="matrix(1,0,0,1,0,0)" fill="rgb(255,255,255)"/></clipPath><g clip-path="url(#_clipPath_MZT0evbnHBImWhxQwdZin32BV9TnXtyb)"><g><path d=" M 18.219 16.551 C 19.896 14.836 21.02 12.588 21.02 10.02 C 21.02 5.042 16.978 1 12 1 C 7.022 1 2.98 5.042 2.98 10.02 C 2.98 12.62 4.007 14.787 5.844 16.61 L 5.844 16.61 L 11.633 23 L 18.23 16.551 L 18.219 16.551 Z " fill="rgb(239,66,50)"/></g></g><g><path d=" M 8.963 9.674 C 8.694 9.623 8.376 9.515 8.118 9.386 C 6.86 8.759 6.224 7.363 6.615 6.087 C 7.142 4.365 9.178 3.504 10.85 4.297 C 11.712 4.705 12.283 5.41 12.488 6.32 C 12.551 6.597 12.552 7.151 12.489 7.414 C 12.357 7.971 12.104 8.428 11.707 8.824 C 11.263 9.266 10.695 9.561 10.071 9.673 C 9.808 9.721 9.212 9.721 8.963 9.674 L 8.963 9.674 L 8.963 9.674 Z " fill="rgb(255,255,255)"/><path d=" M 9.208 15.987 C 8.653 15.908 8.236 15.763 7.835 15.507 C 7.623 15.372 7.254 15.033 7.085 14.816 C 6.83 14.491 6.636 14.067 6.541 13.623 C 6.484 13.358 6.498 12.811 6.569 12.529 C 6.855 11.395 7.755 10.565 8.958 10.328 C 9.188 10.283 9.761 10.276 10.018 10.316 C 10.949 10.459 11.808 11.069 12.227 11.884 C 12.454 12.326 12.537 12.674 12.534 13.172 C 12.532 13.588 12.474 13.86 12.309 14.234 C 11.908 15.147 11.002 15.818 9.97 15.967 C 9.731 16.001 9.372 16.011 9.208 15.987 L 9.208 15.987 Z " fill="rgb(255,255,255)"/><path d=" M 13.834 15.942 C 13.714 15.917 13.525 15.862 13.413 15.822 L 13.209 15.747 L 13.202 13.154 L 13.195 10.56 L 13.324 10.508 C 13.571 10.407 13.911 10.33 14.232 10.301 C 14.89 10.242 15.564 10.405 16.153 10.766 C 16.386 10.909 16.779 11.272 16.942 11.497 C 17.32 12.015 17.497 12.542 17.495 13.145 C 17.493 13.917 17.212 14.577 16.651 15.127 C 16.214 15.555 15.721 15.819 15.126 15.944 C 14.811 16.01 14.145 16.009 13.834 15.942 L 13.834 15.942 L 13.834 15.942 Z " fill="rgb(255,255,255)"/><path d=" M 13.97 9.691 C 13.742 9.65 13.531 9.592 13.338 9.518 L 13.195 9.464 L 13.195 6.869 L 13.195 4.274 L 13.408 4.196 C 13.525 4.153 13.748 4.093 13.904 4.063 C 14.147 4.015 14.244 4.009 14.582 4.022 C 15.01 4.037 15.248 4.083 15.604 4.218 C 17.088 4.78 17.852 6.348 17.342 7.786 C 17.018 8.7 16.214 9.395 15.181 9.655 C 14.915 9.722 14.248 9.742 13.97 9.691 L 13.97 9.691 Z " fill="rgb(255,255,255)"/></g></g></svg>