<?xml version="1.0" encoding="UTF-8" standalone="no"?><!-- Generator: Gravit.io --><svg xmlns="http://www.w3.org/2000/svg" xmlns:xlink="http://www.w3.org/1999/xlink" style="isolation:isolate" viewBox="0 0 24 24" width="24pt" height="24pt"><defs><clipPath id="_clipPath_ytHKlZ3nXfGOdneisxBr4HwBaDtwFnml"><rect width="24" height="24"/></clipPath></defs><g clip-path="url(#_clipPath_ytHKlZ3nXfGOdneisxBr4HwBaDtwFnml)"><g><path d=" M 18.56 16.801 C 20.329 14.992 21.515 12.62 21.515 9.911 C 21.515 4.66 17.251 0.396 12 0.396 C 6.749 0.396 2.485 4.66 2.485 9.911 C 2.485 12.654 3.568 14.94 5.506 16.863 L 5.506 16.863 L 11.613 23.604 L 18.572 16.801 L 18.56 16.801 Z " fill="rgb(81,92,97)"/><g><path d=" M 5.773 9.336 L 6.999 9.336 L 6.999 6.362 C 6.999 6.362 7.534 6.27 7.617 6.795 L 8.003 6.795 L 7.887 5.882 L 4.819 5.883 L 4.754 6.795 L 5.123 6.795 C 5.123 6.795 5.194 6.313 5.761 6.355 L 5.773 9.336 Z " fill-rule="evenodd" fill="rgb(255,255,255)"/><path d=" M 16.881 9.054 L 17.35 8.539 C 18.164 9.191 18.393 8.997 18.393 8.997 C 18.645 8.814 18.175 8.665 18.175 8.665 L 17.832 8.527 L 17.511 8.367 C 17.041 8.195 17.11 7.829 17.11 7.829 C 17.224 7.29 17.671 7.187 17.671 7.187 C 18.53 6.981 19.183 7.382 19.183 7.382 L 18.759 7.84 L 18.682 7.774 L 18.596 7.699 L 18.481 7.613 C 18.481 7.613 18.055 7.291 17.825 7.492 C 17.825 7.492 17.756 7.619 17.877 7.676 L 17.952 7.717 L 18.337 7.895 L 18.774 8.055 C 18.774 8.055 19.481 8.314 19.165 8.883 C 19.165 8.883 19.044 9.205 18.4 9.334 C 18.4 9.334 17.785 9.383 17.492 9.303 C 17.492 9.303 17.023 9.173 16.881 9.054" fill-rule="evenodd" fill="rgb(255,255,255)"/><path d=" M 13.145 7.253 C 12.527 6.955 11.785 7.295 11.785 7.295 L 11.775 7.12 L 10.744 7.326 L 10.744 7.346 L 10.734 10.025 L 11.775 10.025 L 11.795 9.242 C 12.011 9.396 12.249 9.366 12.249 9.366 C 13.464 9.252 13.619 8.531 13.619 8.531 C 13.845 7.614 13.145 7.254 13.145 7.254 M 12.616 8.609 C 12.616 8.609 12.541 9.152 12.017 9.049 C 12.017 9.049 11.867 9.011 11.801 8.824 L 11.783 7.587 L 12.12 7.578 C 12.12 7.578 12.691 7.597 12.616 8.609" fill-rule="evenodd" fill="rgb(255,255,255)"/><path d=" M 16.338 7.253 C 15.72 6.955 14.979 7.295 14.979 7.295 L 14.969 7.12 L 13.938 7.326 L 13.938 7.346 L 13.928 10.025 L 14.969 10.025 L 14.989 9.242 C 15.205 9.396 15.442 9.366 15.442 9.366 C 16.657 9.252 16.812 8.531 16.812 8.531 C 17.039 7.614 16.338 7.254 16.338 7.254 M 15.824 8.609 C 15.824 8.609 15.749 9.152 15.224 9.049 C 15.224 9.049 15.075 9.011 15.009 8.824 L 14.99 7.587 L 15.327 7.578 C 15.327 7.578 15.898 7.597 15.824 8.609" fill-rule="evenodd" fill="rgb(255,255,255)"/><path d=" M 8.839 7.118 C 7.948 7.118 7.225 7.624 7.225 8.247 C 7.225 8.87 7.948 9.375 8.839 9.375 C 9.732 9.375 10.455 8.87 10.455 8.247 C 10.455 7.624 9.732 7.118 8.839 7.118 Z  M 9.15 9.025 C 8.894 9.126 8.549 8.861 8.38 8.433 C 8.211 8.004 8.282 7.575 8.539 7.474 C 8.795 7.373 9.14 7.639 9.309 8.067 C 9.478 8.495 9.406 8.924 9.15 9.025 Z " fill-rule="evenodd" fill="rgb(255,255,255)"/><path d=" M 8.032 13.636 L 9.124 13.636 L 9.124 10.985 C 9.124 10.985 9.601 10.904 9.675 11.372 L 10.019 11.372 L 9.916 10.558 L 7.182 10.559 L 7.124 11.372 L 7.453 11.372 C 7.453 11.372 7.516 10.942 8.021 10.979 L 8.032 13.636 Z " fill-rule="evenodd" fill="rgb(255,255,255)"/><path d=" M 9.55 12.049 L 10.458 11.89 L 10.465 13.647 L 9.537 13.647 L 9.55 12.049 Z " fill-rule="evenodd" fill="rgb(255,255,255)"/><path d=" M 11.697 10.991 L 10.779 11.22 L 10.77 13.643 L 11.689 13.643 L 11.697 10.991 Z " fill-rule="evenodd" fill="rgb(255,255,255)"/><path d=" M 14.429 13.384 L 14.847 12.925 C 15.571 13.507 15.775 13.333 15.775 13.333 C 16 13.17 15.582 13.037 15.582 13.037 L 15.275 12.915 L 14.99 12.772 C 14.571 12.619 14.632 12.293 14.632 12.293 C 14.734 11.813 15.133 11.721 15.133 11.721 C 15.898 11.537 16.48 11.894 16.48 11.894 L 16.102 12.303 L 16.033 12.244 L 15.956 12.177 L 15.854 12.1 C 15.854 12.1 15.475 11.814 15.27 11.993 C 15.27 11.993 15.208 12.105 15.316 12.156 L 15.382 12.193 L 15.726 12.351 L 16.115 12.495 C 16.115 12.495 16.745 12.725 16.463 13.232 C 16.463 13.232 16.355 13.519 15.782 13.634 C 15.782 13.634 15.234 13.678 14.973 13.606 C 14.973 13.606 14.554 13.49 14.429 13.384" fill-rule="evenodd" fill="rgb(255,255,255)"/><path d=" M 14.255 12.997 C 14.255 12.997 13.918 13.303 13.407 13.18 C 13.407 13.18 13.091 13.078 12.999 12.844 L 14.398 12.466 C 14.398 12.466 14.132 11.465 12.703 11.731 L 12.622 11.762 L 12.489 11.823 C 12.489 11.823 11.458 12.394 12.172 13.292 C 12.172 13.292 12.622 13.822 13.551 13.634 C 13.551 13.634 14.101 13.507 14.429 13.18 L 14.255 12.997 Z  M 12.908 11.986 C 13.336 11.915 13.469 12.353 13.469 12.353 L 12.826 12.568 C 12.683 12.078 12.908 11.986 12.908 11.986" fill-rule="evenodd" fill="rgb(255,255,255)"/><path d=" M 10.411 11.605 C 10.43 11.723 10.272 11.846 10.057 11.882 C 9.841 11.918 9.652 11.851 9.632 11.735 C 9.613 11.618 9.771 11.494 9.986 11.458 C 10.202 11.422 10.392 11.488 10.411 11.605 Z " fill-rule="evenodd" fill="rgb(255,255,255)"/></g></g></g></svg>