<?xml version="1.0" encoding="UTF-8" standalone="no"?><!-- Generator: Gravit.io --><svg xmlns="http://www.w3.org/2000/svg" xmlns:xlink="http://www.w3.org/1999/xlink" style="isolation:isolate" viewBox="0 0 24 24" width="24pt" height="24pt"><defs><clipPath id="_clipPath_WsnGQD829xePcOgI2xCV9cn6q1tjQBI3"><rect width="24" height="24"/></clipPath></defs><g clip-path="url(#_clipPath_WsnGQD829xePcOgI2xCV9cn6q1tjQBI3)"><path d=" M 18.219 16.551 C 19.896 14.836 21.02 12.588 21.02 10.02 C 21.02 5.042 16.978 1 12 1 C 7.022 1 2.98 5.042 2.98 10.02 C 2.98 12.62 4.007 14.787 5.844 16.61 L 5.844 16.61 L 11.633 23 L 18.23 16.551 L 18.219 16.551 Z " fill="rgb(1,1,111)"/><g><path d=" M 11.862 5.025 C 11.805 5.042 10.659 5.404 9.315 5.825 C 7.971 6.247 6.634 6.668 6.342 6.76 C 4.684 7.279 4.771 7.246 4.749 7.369 C 4.719 7.524 4.778 7.578 5.074 7.67 C 5.203 7.71 5.589 7.832 5.933 7.939 C 6.277 8.047 6.651 8.164 6.764 8.198 C 6.875 8.233 6.968 8.266 6.968 8.273 C 6.968 8.278 6.938 8.332 6.9 8.39 C 6.622 8.831 6.449 9.398 6.385 10.078 C 6.362 10.332 6.361 10.341 6.314 10.374 C 6.182 10.468 6.095 10.568 6.032 10.694 C 5.968 10.824 5.968 10.826 5.968 11.043 C 5.968 11.262 5.968 11.262 6.034 11.394 C 6.081 11.492 6.128 11.554 6.208 11.629 L 6.317 11.73 L 6.303 11.834 C 6.218 12.46 6.173 12.792 6.105 13.295 C 6.062 13.62 6.011 14.003 5.992 14.147 C 5.949 14.474 5.947 14.523 5.987 14.582 C 6.048 14.674 6.077 14.677 6.759 14.677 C 7.442 14.677 7.47 14.674 7.533 14.58 C 7.576 14.514 7.574 14.488 7.474 13.747 C 7.425 13.392 7.366 12.947 7.34 12.756 C 7.314 12.565 7.272 12.255 7.246 12.069 L 7.199 11.73 L 7.298 11.64 C 7.487 11.467 7.559 11.302 7.559 11.04 C 7.559 10.774 7.468 10.582 7.272 10.429 C 7.161 10.344 7.162 10.349 7.201 10.033 C 7.253 9.612 7.355 9.254 7.508 8.957 C 7.597 8.781 7.76 8.567 7.818 8.548 C 7.839 8.543 8.47 8.734 9.484 9.054 C 11.398 9.657 11.796 9.783 11.916 9.819 C 12.024 9.85 11.769 9.923 14.271 9.137 C 15.29 8.816 16.236 8.518 16.375 8.475 C 16.514 8.431 16.709 8.371 16.809 8.339 C 16.91 8.308 17.11 8.245 17.253 8.2 C 17.397 8.155 17.595 8.092 17.696 8.061 C 17.797 8.028 18.07 7.943 18.305 7.87 C 19.23 7.581 19.213 7.588 19.246 7.499 C 19.273 7.43 19.253 7.324 19.204 7.273 C 19.159 7.228 18.947 7.16 16.297 6.331 C 15.658 6.131 14.554 5.785 13.245 5.373 C 12.608 5.173 12.061 5.004 12.028 5.001 C 11.995 4.997 11.92 5.008 11.862 5.025 Z " fill="rgb(255,153,0)"/><path d=" M 8.073 9.569 C 8.066 9.63 8.047 9.96 8.028 10.304 C 8.009 10.648 7.987 11.062 7.976 11.226 C 7.955 11.629 7.976 11.727 8.138 11.939 C 8.282 12.13 8.508 12.293 8.872 12.469 C 9.463 12.756 10.254 12.947 11.176 13.027 C 11.459 13.053 12.426 13.059 12.706 13.038 C 14.344 12.916 15.648 12.412 15.957 11.784 C 16.046 11.603 16.046 11.643 15.956 10.087 C 15.935 9.748 15.917 9.468 15.914 9.464 C 15.912 9.463 15.688 9.53 15.417 9.616 C 15.145 9.701 14.509 9.901 14.001 10.061 C 13.21 10.309 12.438 10.553 12.264 10.608 C 12.181 10.636 11.955 10.647 11.843 10.629 C 11.755 10.614 10.831 10.329 9.211 9.814 C 9.014 9.753 8.729 9.663 8.576 9.614 C 8.423 9.567 8.251 9.513 8.195 9.494 C 8.138 9.476 8.091 9.461 8.087 9.461 C 8.086 9.461 8.079 9.51 8.073 9.569 Z " fill="rgb(255,153,0)"/></g></g></svg>