<?xml version="1.0" encoding="UTF-8" standalone="no"?><!-- Generator: Gravit.io --><svg xmlns="http://www.w3.org/2000/svg" xmlns:xlink="http://www.w3.org/1999/xlink" style="isolation:isolate" viewBox="0 0 24 24" width="24pt" height="24pt"><defs><clipPath id="_clipPath_Ofica7K4Rnx9q1OCvGMwYdaHOHRIN1eF"><rect width="24" height="24"/></clipPath></defs><g clip-path="url(#_clipPath_Ofica7K4Rnx9q1OCvGMwYdaHOHRIN1eF)"><path d=" M 5.516 16.745 C 3.768 14.956 2.596 12.614 2.596 9.936 C 2.596 4.745 6.81 0.531 12 0.531 C 17.19 0.531 21.404 4.745 21.404 9.936 C 21.404 12.646 20.334 14.905 18.418 16.807 L 18.419 16.807 L 12.382 23.469 L 5.504 16.745 L 5.516 16.745 Z " fill="rgb(41,32,101)"/><g><path d=" M 5.19 7.614 L 6.278 7.614 L 5.942 9.635 Q 6.262 9.655 6.434 9.635 C 6.606 9.614 6.723 9.579 6.874 9.531 C 7.026 9.483 7.164 9.424 7.315 9.35 Q 7.465 9.275 7.729 9.117 L 7.988 7.64 L 8.998 7.64 L 8.197 12.344 L 7.133 12.355 L 7.496 10.179 Q 7.232 10.323 7.081 10.386 C 6.931 10.449 6.848 10.474 6.719 10.515 C 6.59 10.557 6.42 10.613 6.252 10.645 Q 6.085 10.677 5.734 10.697 L 5.449 12.329 L 4.387 12.329 L 4.698 10.619 Q 4.48 10.601 4.252 10.542 C 4.024 10.484 4.012 10.463 3.83 10.394 Q 3.648 10.326 3.465 10.223 L 3.999 9.039 Q 4.126 9.186 4.275 9.265 C 4.423 9.345 4.417 9.372 4.571 9.414 Q 4.725 9.455 4.854 9.479 L 5.19 7.614 Z " fill="rgb(255,255,255)"/><path d=" M 20.521 11.546 C 20.447 11.586 20.054 11.899 19.917 12.002 C 19.78 12.104 19.746 12.139 19.586 12.207 C 19.427 12.275 19.37 12.31 19.165 12.344 C 18.959 12.378 18.902 12.401 18.754 12.412 C 18.606 12.424 18.492 12.412 18.321 12.401 C 18.15 12.389 18.022 12.344 17.945 12.321 C 17.867 12.297 17.774 12.264 17.603 12.196 C 17.432 12.127 17.34 12.059 17.226 11.956 C 17.112 11.854 17.01 11.713 16.964 11.648 C 16.918 11.584 16.839 11.477 16.805 11.363 C 16.77 11.249 16.736 11.135 16.713 11.033 C 16.691 10.93 16.687 10.858 16.679 10.77 C 16.671 10.683 16.675 10.586 16.691 10.485 C 16.706 10.384 16.734 10.286 16.748 10.2 C 16.761 10.115 16.79 10.047 16.816 9.961 C 16.842 9.875 16.872 9.817 16.93 9.699 C 16.988 9.581 17.049 9.483 17.124 9.379 C 17.199 9.276 17.261 9.208 17.363 9.106 C 17.466 9.003 17.568 8.929 17.694 8.855 C 17.82 8.781 17.933 8.727 18.047 8.695 C 18.162 8.664 18.275 8.646 18.378 8.627 C 18.481 8.608 18.549 8.597 18.674 8.604 C 18.8 8.612 18.922 8.646 19.028 8.661 C 19.134 8.676 19.21 8.707 19.29 8.764 C 19.37 8.821 19.446 8.867 19.495 8.923 C 19.544 8.98 19.575 9.028 19.621 9.094 C 19.666 9.161 19.703 9.216 19.723 9.3 C 19.743 9.383 19.75 9.452 19.769 9.539 C 19.788 9.626 19.8 9.697 19.792 9.79 C 19.783 9.883 19.765 9.979 19.746 10.052 C 19.727 10.126 19.713 10.175 19.678 10.257 C 19.643 10.34 19.604 10.408 19.564 10.485 C 19.523 10.562 19.494 10.617 19.427 10.691 C 19.36 10.764 19.305 10.818 19.222 10.884 C 19.138 10.951 19.056 11.006 18.971 11.055 C 18.885 11.104 18.814 11.131 18.72 11.181 C 18.625 11.231 18.469 11.283 18.321 11.306 C 18.173 11.329 18.068 11.326 17.933 11.306 C 18.016 11.431 18.116 11.5 18.252 11.58 C 18.389 11.66 18.583 11.648 18.743 11.637 C 18.902 11.625 19.108 11.568 19.279 11.511 C 19.45 11.454 19.614 11.369 19.735 11.283 C 19.855 11.198 19.933 11.128 20.054 11.01 Q 20.174 10.892 20.27 10.736 Q 20.595 11.505 20.521 11.546 Z " fill="rgb(255,255,255)"/><path d=" M 13.133 7.578 L 14.114 7.578 L 13.806 9.391 C 13.904 9.255 14.011 9.14 14.136 9.049 C 14.262 8.958 14.413 8.873 14.501 8.832 C 14.589 8.792 14.669 8.753 14.764 8.718 C 14.858 8.683 14.957 8.638 15.128 8.638 C 15.299 8.638 15.455 8.654 15.55 8.673 C 15.645 8.691 15.702 8.722 15.778 8.764 C 15.854 8.805 15.949 8.878 16.075 9.003 C 16.2 9.129 16.243 9.227 16.28 9.311 C 16.316 9.395 16.351 9.465 16.382 9.551 C 16.414 9.636 16.421 9.704 16.428 9.79 C 16.435 9.875 16.447 9.952 16.451 10.041 C 16.455 10.129 16.454 10.181 16.451 10.257 C 16.448 10.333 16.44 10.406 16.428 10.485 C 16.416 10.565 16.403 10.627 16.382 10.702 C 16.362 10.777 16.347 10.858 16.325 10.941 C 16.304 11.025 16.196 11.25 16.177 11.306 C 16.159 11.363 16.018 11.568 15.915 11.705 C 15.812 11.842 15.744 11.888 15.607 12.013 C 15.47 12.139 15.391 12.173 15.163 12.264 C 14.935 12.355 14.775 12.389 14.547 12.389 C 14.319 12.389 14.114 12.355 13.931 12.275 C 13.749 12.196 13.659 12.109 13.601 12.047 C 13.542 11.985 13.459 11.906 13.395 11.819 L 13.236 12.344 L 12.426 12.344 L 12.529 11.591 C 12.451 11.661 12.375 11.745 12.301 11.785 C 12.227 11.825 12.153 11.899 12.016 12.002 C 11.879 12.104 11.845 12.139 11.685 12.207 C 11.526 12.275 11.469 12.31 11.263 12.344 C 11.058 12.378 11.001 12.401 10.853 12.412 C 10.705 12.424 10.591 12.412 10.42 12.401 C 10.249 12.389 10.121 12.344 10.044 12.321 C 9.966 12.297 9.872 12.264 9.701 12.196 C 9.53 12.127 9.439 12.059 9.325 11.956 C 9.211 11.854 9.109 11.713 9.063 11.648 C 9.017 11.584 8.938 11.477 8.903 11.363 C 8.869 11.249 8.835 11.135 8.812 11.033 C 8.789 10.93 8.786 10.858 8.778 10.77 C 8.77 10.683 8.774 10.586 8.789 10.485 C 8.805 10.384 8.833 10.286 8.846 10.2 C 8.86 10.115 8.889 10.047 8.915 9.961 C 8.941 9.875 8.971 9.817 9.029 9.699 C 9.087 9.581 9.148 9.483 9.223 9.379 C 9.297 9.276 9.359 9.208 9.462 9.106 C 9.565 9.003 9.667 8.929 9.793 8.855 C 9.919 8.781 10.032 8.727 10.146 8.695 C 10.26 8.664 10.374 8.646 10.477 8.627 C 10.58 8.608 10.647 8.597 10.773 8.604 C 10.899 8.612 11.02 8.646 11.127 8.661 C 11.233 8.676 11.309 8.707 11.389 8.764 C 11.469 8.821 11.545 8.867 11.594 8.923 C 11.643 8.98 11.674 9.028 11.719 9.094 C 11.765 9.161 11.802 9.216 11.822 9.3 C 11.842 9.383 11.848 9.452 11.868 9.539 C 11.887 9.626 11.899 9.697 11.89 9.79 C 11.882 9.883 11.864 9.979 11.845 10.052 C 11.826 10.126 11.811 10.175 11.776 10.257 C 11.742 10.34 11.703 10.408 11.662 10.485 C 11.622 10.562 11.592 10.617 11.526 10.691 C 11.459 10.764 11.404 10.818 11.32 10.884 C 11.237 10.951 11.155 11.006 11.07 11.055 C 10.984 11.104 10.913 11.131 10.819 11.181 C 10.724 11.231 10.568 11.283 10.42 11.306 C 10.272 11.329 10.167 11.326 10.032 11.306 C 10.115 11.431 10.215 11.5 10.351 11.58 C 10.488 11.66 10.682 11.648 10.842 11.637 C 11.001 11.625 11.206 11.568 11.377 11.511 C 11.548 11.454 11.713 11.369 11.833 11.283 C 11.954 11.198 12.032 11.128 12.153 11.01 C 12.273 10.892 12.29 10.862 12.369 10.736 C 12.449 10.611 12.517 10.51 12.575 10.371 C 12.632 10.233 12.66 10.122 12.711 9.972 C 12.763 9.823 12.812 9.659 12.848 9.505 C 12.884 9.351 12.93 9.152 12.962 8.958 L 13.053 8.262 L 13.133 7.578 Z " fill="rgb(255,255,255)"/><path d=" M 9.77 10.736 C 9.727 10.533 9.747 10.314 9.815 10.155 C 9.884 9.995 9.998 9.824 10.112 9.733 C 10.226 9.642 10.308 9.574 10.5 9.539 C 10.625 9.516 10.796 9.562 10.899 9.665 C 11.001 9.767 11.026 9.931 10.967 10.109 C 10.921 10.246 10.819 10.349 10.716 10.44 C 10.614 10.531 10.5 10.622 10.272 10.702 C 10.044 10.782 9.946 10.765 9.77 10.736 Z " fill="rgb(41,32,101)"/><path d=" M 17.749 10.736 C 17.706 10.533 17.726 10.314 17.794 10.155 C 17.863 9.995 17.977 9.824 18.091 9.733 C 18.205 9.642 18.286 9.574 18.478 9.539 C 18.604 9.516 18.775 9.562 18.877 9.665 C 18.98 9.767 19.005 9.931 18.946 10.109 C 18.9 10.246 18.798 10.349 18.695 10.44 C 18.592 10.531 18.478 10.622 18.25 10.702 C 18.022 10.782 17.925 10.765 17.749 10.736 Z " fill="rgb(41,32,101)"/><path d=" M 13.817 10.337 C 13.897 10.2 13.943 10.109 14.057 9.984 C 14.171 9.858 14.285 9.722 14.444 9.63 C 14.604 9.539 14.775 9.482 14.957 9.482 C 15.14 9.482 15.277 9.516 15.425 9.676 C 15.573 9.836 15.619 10.064 15.63 10.212 C 15.641 10.36 15.596 10.554 15.539 10.736 C 15.482 10.919 15.345 11.135 15.231 11.249 C 15.117 11.363 14.9 11.511 14.741 11.568 C 14.581 11.625 14.319 11.671 14.125 11.614 C 13.931 11.557 13.851 11.443 13.772 11.306 C 13.692 11.169 13.658 10.919 13.68 10.77 C 13.703 10.622 13.737 10.474 13.817 10.337 Z " fill="rgb(41,32,101)"/></g></g></svg>