<?xml version="1.0" encoding="UTF-8" standalone="no"?>
<svg
   viewBox="0 0 16.040001 19.56098"
   width="16.040001pt"
   height="19.56098pt"
   version="1.1"
   id="svg1909"
   xmlns="http://www.w3.org/2000/svg"
   xmlns:svg="http://www.w3.org/2000/svg">
  <defs
     id="defs1913" />
  <path
     d="M 13.54954,13.82694 C 15.04062,12.30208 16.04,10.3033 16.04,8.02 16.04,3.593884 12.44612,0 8.02,0 3.593884,0 -1.9073488e-8,3.593884 -1.9073488e-8,8.02 -1.9073488e-8,10.33176 0.91314198,12.2585 2.546484,13.8794 v 0 l 5.147196,5.68158 5.86564,-5.73404 z"
     fill="#FF69B4"
     id="path1907"
     style="fill:#233c5b;fill-opacity:1;stroke-width:0.88914" />
  <path
     d="m 9.567293,4.0492562 c -0.120427,0.057218 -0.186782,0.131366 -0.232185,0.2594177 -0.08828,0.2488248 -0.01571,0.4733372 0.192252,0.5954559 0.248246,0.1457346 0.582777,0.040005 0.692126,-0.2187421 0.01731,-0.041018 0.03139,-0.1348883 0.03116,-0.2085903 -4.9e-4,-0.1670113 -0.06498,-0.2898248 -0.203099,-0.386912 C 9.919076,3.9995884 9.709211,3.9818357 9.567301,4.0492554 M 6.5889534,8.1061991 c -0.2398321,0.078265 -0.3706873,0.2470636 -0.3706873,0.4781156 0,0.207244 0.1601955,0.4012318 0.3736535,0.4524313 0.2093762,0.05025 0.4164162,-0.02857 0.5408534,-0.2057396 0.06162,-0.087828 0.07053,-0.1199833 0.07046,-0.256547 C 7.203184,8.4433305 7.193083,8.4030251 7.140053,8.3228803 7.028231,8.1539695 6.7625798,8.0495104 6.5889633,8.1061986"
     stroke="none"
     fill="#c49c1c"
     fill-rule="evenodd"
     id="path1059"
     style="stroke-width:0.023177" />
  <path
     d="M 7.435035,4.277292 C 7.270366,4.297849 7.0067538,4.363254 6.8672058,4.4182064 6.5139698,4.5572901 6.2720294,4.7716053 6.1284252,5.072578 c -0.073633,0.1543337 -0.083808,0.1984853 -0.091826,0.3985233 -0.00734,0.1809407 4.869e-4,0.256381 0.0397,0.3854749 0.059565,0.1960984 0.1979755,0.4086746 0.3580569,0.5498907 0.2182095,0.1924824 0.6489469,0.3685328 1.0122649,0.4136809 l 0.104296,0.012982 -0.06955,-0.05152 C 7.132375,6.5230683 6.9406828,6.129922 6.9191048,5.6285174 6.9098048,5.4069249 6.9156048,5.3279152 6.9566748,5.1649834 7.0527048,4.7807368 7.270166,4.4450916 7.498732,4.328304 7.627226,4.262664 7.617119,4.254554 7.434972,4.277297 m 0.498301,-0.00615 c 0,0.00517 0.04589,0.036292 0.102,0.069161 0.209819,0.1229758 0.405363,0.4209586 0.504233,0.7684471 0.06683,0.2348492 0.07152,0.6381938 0.0101,0.8680833 -0.08574,0.3208121 -0.273696,0.6226421 -0.470952,0.7563487 -0.05387,0.036525 -0.09822,0.073586 -0.0985,0.082344 -6.49e-4,0.020565 0.123646,0.00248 0.370317,-0.053835 C 9.059828,6.5997456 9.523223,6.0633904 9.479163,5.4553034 9.435443,4.8520743 8.952942,4.4216599 8.17986,4.2962735 7.948836,4.2587965 7.933308,4.2572225 7.933308,4.2711275 m 4.612162,0.049735 c -0.427763,0.078219 -0.736454,0.233014 -1.010426,0.5066612 -0.148099,0.1479366 -0.20792,0.2289862 -0.283684,0.384455 -0.181866,0.3731453 -0.228383,0.7262189 -0.147241,1.1174414 0.140729,0.6782895 0.606673,1.1488696 1.315626,1.3287211 0.123416,0.031313 0.251723,0.056602 0.285141,0.056182 l 0.06077,-7.425e-4 -0.06954,-0.050197 c -0.32766,-0.236527 -0.581606,-0.8081348 -0.636398,-1.4325616 -0.03878,-0.4425359 0.04812,-0.9491093 0.228548,-1.3309683 0.130786,-0.2768227 0.275593,-0.4529424 0.480775,-0.5846555 0.04123,-0.02649 0.04113,-0.027585 -0.0038,-0.026887 -0.02548,3.943e-4 -0.124578,0.015022 -0.220181,0.03249 m 0.463722,-0.020598 c 9e-5,0.010687 0.04181,0.0432 0.09267,0.072267 0.266415,0.1521315 0.525088,0.6852888 0.615317,1.2682291 0.04692,0.3032679 0.0361,0.5837288 -0.03625,0.9407431 -0.101004,0.4978819 -0.313069,0.882406 -0.603358,1.0939865 l -0.05702,0.04153 0.117992,-0.01287 c 0.251489,-0.027442 0.554754,-0.1310412 0.792083,-0.2705649 0.206855,-0.1216082 0.465619,-0.3956963 0.577775,-0.6119812 0.166037,-0.3202094 0.204371,-0.4821678 0.202678,-0.856379 -0.0014,-0.2866264 -0.0083,-0.3460977 -0.06291,-0.5098877 -0.214342,-0.6468158 -0.725899,-1.031688 -1.540582,-1.1590905 -0.05418,-0.00853 -0.09843,-0.00668 -0.09831,0.00398 M 2.6490343,4.3642261 C 1.9265235,4.5245855 1.4212942,4.9807259 1.2576906,5.6203336 1.1953908,5.863944 1.195022,6.2733835 1.2568536,6.5152094 1.3732464,6.9703535 1.6723655,7.333069 2.103915,7.5424241 2.3904253,7.6814382 2.6374204,7.7384759 3.0198591,7.753958 3.2888714,7.7648533 3.3618778,7.7596459 3.5405004,7.7168726 3.775327,7.6606431 4.0540963,7.5224198 4.2993749,7.3405987 4.4601518,7.2214003 4.4935499,7.1731006 4.3720606,7.2355148 4.3358071,7.2541252 4.2175179,7.2985816 4.1091668,7.3343177 3.9306836,7.3931861 3.8805758,7.3993763 3.5761033,7.4002054 3.2803918,7.4010154 3.2244427,7.394879 3.1101349,7.3490522 2.7260746,7.1950671 2.5088625,6.9138174 2.4021338,6.4322522 2.3574925,6.2309163 2.3520294,5.6835284 2.3917925,5.3972961 2.4589613,4.9137374 2.5990154,4.5339178 2.7587033,4.4022973 c 0.093587,-0.077133 0.082928,-0.08084 -0.1096727,-0.038079 m 0.4264519,-0.013606 c 0.00913,0.014805 0.032076,0.02691 0.050971,0.02691 0.06624,0 0.2272941,0.098964 0.3530278,0.2169336 0.2710052,0.2542719 0.4023244,0.5486617 0.4046879,0.907136 0.00115,0.1805237 -0.00742,0.2280359 -0.063645,0.3530742 -0.07553,0.167866 -0.2256462,0.3200212 -0.405799,0.4113142 -0.1527575,0.077411 -0.4375528,0.1510887 -0.5839833,0.1510887 -0.061695,0 -0.1121755,0.00913 -0.1121755,0.020348 0,0.024563 0.2220563,0.1080039 0.3824164,0.1436727 0.1759566,0.039172 0.5564028,0.033998 0.7251988,-0.00981 C 4.1782126,6.4799037 4.4219852,6.2912919 4.5547184,6.0076321 4.6184761,5.8714229 4.6288174,5.8213377 4.6376917,5.6054929 4.6489715,5.3318002 4.6163879,5.172692 4.5080124,4.9724915 4.3730302,4.723087 4.0351384,4.4957465 3.6572183,4.4000733 3.4303642,4.3426632 3.0506139,4.310356 3.0754825,4.350615 m 3.1311728,2.5984559 c -0.1585979,0.06561 -0.2175829,0.2860701 -0.1078175,0.4029275 0.123531,0.131481 0.3698773,0.1955882 1.0348872,0.269336 0.242196,0.026857 0.531488,0.064432 0.642852,0.083486 0.52259,0.089418 0.754957,0.237793 0.795077,0.5076833 0.01961,0.1319187 -0.04315,0.4050377 -0.13088,0.5696616 -0.09476,0.177765 -0.319606,0.3891807 -0.517558,0.4866387 -0.08366,0.04118 -0.152132,0.08022 -0.152132,0.08665 0,0.0216 0.426034,-0.0201 0.65131,-0.06382 C 9.302808,9.120964 9.836895,8.6990783 9.84016,8.1716938 9.84156,7.9656987 9.78609,7.8281218 9.648026,7.6941142 9.373474,7.4276824 8.889383,7.3182653 7.791597,7.2745307 6.5592431,7.2253972 6.3341288,7.1819181 6.3341288,6.9929108 c 0,-0.06986 -0.035259,-0.081977 -0.1274735,-0.043826 M 2.883209,10.296265 c -0.01993,0.024 -0.02183,0.04777 -0.00608,0.07702 0.01894,0.0354 -0.00725,0.06982 -0.1596178,0.210909 -0.1648099,0.15248 -0.1867344,0.165805 -0.229241,0.139243 -0.038755,-0.02415 -0.052863,-0.02333 -0.08049,0.0053 -0.029315,0.03007 -0.017758,0.05108 0.093309,0.16967 0.085523,0.0913 0.1385742,0.130859 0.1630253,0.121473 0.025053,-0.0095 0.031955,-0.03105 0.022342,-0.06948 -0.011525,-0.0459 0.0084,-0.07596 0.1153271,-0.173632 0.071107,-0.06495 0.154566,-0.124486 0.1854836,-0.132252 0.065976,-0.01658 0.1717395,0.04372 0.1717395,0.09786 0,0.01988 -0.064599,0.103505 -0.1435571,0.185715 -0.1205187,0.125529 -0.153059,0.14752 -0.2027962,0.137112 -0.032595,-0.0068 -0.073865,-0.003 -0.091757,0.008 -0.02563,0.0165 -0.00645,0.05077 0.090392,0.162193 0.067605,0.07769 0.1304852,0.141307 0.1397785,0.141307 0.00926,0 0.029825,-0.0156 0.045705,-0.03472 0.021745,-0.02623 0.022325,-0.04257 0.0024,-0.06667 -0.02102,-0.02528 0.0024,-0.05864 0.1143536,-0.162236 0.1437654,-0.13308 0.2090544,-0.156097 0.3019457,-0.106381 0.081415,0.04365 0.05263,0.12026 -0.1029969,0.2745 -0.1286544,0.127521 -0.1538937,0.14328 -0.1945685,0.121499 -0.035853,-0.0192 -0.053267,-0.0171 -0.074747,0.0082 -0.02264,0.0273 -0.014665,0.05047 0.04163,0.121185 0.1258959,0.158205 0.1841625,0.202357 0.2237015,0.169567 0.026798,-0.02229 0.02918,-0.03986 0.01027,-0.07507 -0.021465,-0.04005 -3.71e-4,-0.07095 0.1627236,-0.238092 0.216563,-0.221852 0.2296342,-0.268136 0.1120594,-0.396419 -0.05481,-0.05985 -0.1006794,-0.08565 -0.1684021,-0.09471 -0.091713,-0.0123 -0.092964,-0.0138 -0.084849,-0.09902 0.00685,-0.07198 -0.00395,-0.09878 -0.06424,-0.159039 -0.039865,-0.03984 -0.1085825,-0.07922 -0.1527116,-0.08751 -0.08615,-0.0162 -0.096324,-0.03083 -0.051985,-0.07517 0.02218,-0.02222 0.0081,-0.04823 -0.065525,-0.121927 -0.080799,-0.0808 -0.097691,-0.08893 -0.1225358,-0.05902 m 10.0380692,0.143452 c -0.06842,0.04795 -0.120911,0.15308 -0.120911,0.24236 0,0.06278 -0.0068,0.07022 -0.04867,0.05677 -0.03615,-0.01148 -0.06888,0.0045 -0.127474,0.06098 -0.04336,0.042 -0.07885,0.09028 -0.07885,0.107336 0,0.0447 0.06424,0.06269 0.104596,0.02917 0.03935,-0.03262 0.03445,-0.03568 0.259465,0.158319 0.12675,0.109251 0.142328,0.131711 0.130922,0.188749 -0.02473,0.123412 0.03868,0.109996 0.169146,-0.03577 0.06751,-0.07545 0.122998,-0.150583 0.123323,-0.1669 8.1e-4,-0.0423 -0.06371,-0.06147 -0.101305,-0.03028 -0.02493,0.02078 -0.06214,6.75e-4 -0.173619,-0.0922 -0.07798,-0.06525 -0.147983,-0.142929 -0.155467,-0.172738 -0.03097,-0.123508 0.06072,-0.222283 0.158621,-0.170833 0.0287,0.01507 0.11199,0.07896 0.185134,0.141935 0.109881,0.09461 0.129094,0.121795 0.110575,0.156369 -0.02566,0.04791 0.03304,0.116421 0.06803,0.07935 0.0733,-0.07759 0.233112,-0.276082 0.233112,-0.289502 0,-0.03303 -0.07268,-0.04283 -0.116163,-0.01568 -0.03843,0.02393 -0.05565,0.01778 -0.12075,-0.04388 -0.239251,-0.226322 -0.383412,-0.285055 -0.499714,-0.203585 m -0.735543,0.784134 c -0.110462,0.04808 -0.21974,0.187404 -0.21974,0.280066 0,0.147682 0.141562,0.18368 0.21114,0.05363 0.02269,-0.04251 0.01883,-0.05648 -0.02535,-0.09235 -0.04273,-0.03458 -0.04697,-0.04845 -0.02346,-0.07687 0.03896,-0.04695 0.122719,-0.04365 0.185782,0.0068 l 0.052,0.04215 -0.08503,0.128067 c -0.04672,0.07048 -0.09116,0.165769 -0.09864,0.211798 -0.0116,0.0718 -0.004,0.09373 0.05708,0.154281 0.03878,0.03878 0.08808,0.07064 0.109369,0.07064 0.07751,0 0.177048,-0.08275 0.224792,-0.186662 0.04248,-0.09253 0.0561,-0.104439 0.1106,-0.09645 0.09798,0.01432 0.235824,-0.169861 0.161449,-0.215825 -0.01328,-0.0076 -0.04082,-0.0015 -0.0611,0.0156 -0.03193,0.02647 -0.05423,0.01163 -0.167034,-0.111783 -0.187269,-0.204946 -0.286487,-0.247178 -0.431853,-0.183835 m -8.2736418,0.272791 c -0.158877,0.08764 -0.2782833,0.278585 -0.2599039,0.41558 0.02649,0.197558 0.2715618,0.362181 0.4664085,0.313284 0.04921,-0.01237 0.055284,-0.0228 0.038696,-0.0666 -0.01166,-0.03082 -0.035438,-0.04905 -0.058495,-0.04477 -0.067625,0.01245 -0.1985557,-0.04392 -0.2364494,-0.101746 -0.035978,-0.05483 -0.031245,-0.125498 0.01293,-0.1935 0.017357,-0.0267 0.055535,-0.0069 0.1964692,0.0985 0.096208,0.07237 0.1889828,0.131669 0.2061571,0.131669 0.043895,0 0.1324775,-0.166434 0.1324775,-0.248873 0,-0.08591 -0.081195,-0.208824 -0.1836054,-0.277845 -0.085245,-0.05744 -0.2349884,-0.06964 -0.314694,-0.02573 m 8.4605162,0.09559 c -0.04922,0.09126 -0.0415,0.150097 0.02522,0.194367 0.0432,0.02865 0.05418,0.02805 0.08697,-0.0053 0.04749,-0.04748 0.04806,-0.14768 0.0015,-0.214384 -0.04821,-0.06891 -0.06516,-0.06525 -0.113543,0.02475 m -8.3572646,0.05895 -0.052515,0.04252 0.113218,0.08645 0.1132186,0.08645 0.033008,-0.06965 c 0.029265,-0.06172 0.0286,-0.07638 -0.0059,-0.128976 C 4.170299,11.59532 4.0903143,11.58866 4.0155231,11.64916 m 7.4154329,0.126382 c -0.130831,0.06797 -0.21742,0.224142 -0.193829,0.349783 0.01995,0.106615 0.128911,0.277845 0.210886,0.331571 0.09656,0.06323 0.236519,0.0543 0.352726,-0.02258 0.173061,-0.114537 0.248942,-0.319114 0.124877,-0.33675 -0.03912,-0.006 -0.05209,0.0045 -0.05209,0.03877 0,0.05723 -0.09991,0.179228 -0.159526,0.194803 -0.05222,0.01373 -0.179642,-0.04312 -0.196769,-0.0878 -0.0071,-0.0201 0.05581,-0.07436 0.177951,-0.152013 0.104456,-0.06645 0.193733,-0.123881 0.19837,-0.127681 0.02442,-0.02002 -0.10121,-0.171805 -0.168792,-0.203886 -0.106334,-0.05055 -0.173062,-0.0468 -0.293789,0.01575 m -6.2420413,0.05465 c -0.0082,0.02123 0.0021,0.05662 0.02327,0.08001 0.035245,0.03892 0.034215,0.04803 -0.015045,0.129933 -0.02913,0.04837 -0.056625,0.09259 -0.06107,0.09822 -0.00455,0.006 -0.024115,-0.01276 -0.04373,-0.04073 -0.082785,-0.1182 -0.2895463,-0.156861 -0.4109226,-0.07685 -0.088745,0.05858 -0.1706503,0.184576 -0.2027498,0.312054 -0.023,0.09129 -0.020741,0.117918 0.016365,0.193634 0.053585,0.109305 0.1750305,0.192671 0.2806929,0.192671 0.063114,0 0.07722,0.007 0.066285,0.03615 -0.01024,0.0267 0.017915,0.05047 0.1076098,0.09079 0.1100434,0.04942 0.1242042,0.05108 0.1502773,0.01762 0.02325,-0.02992 0.02211,-0.04432 -0.0059,-0.07516 -0.019025,-0.02095 -0.03458,-0.0456 -0.03458,-0.05472 0,-0.0086 0.095022,-0.193969 0.2111393,-0.41088 0.116138,-0.216812 0.2073845,-0.397635 0.202796,-0.401768 -0.013424,-0.01207 -0.249173,-0.128955 -0.2600426,-0.128955 -0.0054,0 -0.01645,0.0171 -0.0245,0.03817 m 6.272543,0.0675 c -0.05333,0.03728 -0.06847,0.132985 -0.03057,0.192806 0.01618,0.0255 0.0415,0.01718 0.127123,-0.04162 0.05879,-0.0405 0.106914,-0.08296 0.106914,-0.09429 0,-0.02501 -0.09314,-0.0929 -0.127472,-0.0929 -0.01343,0 -0.04767,0.01627 -0.07599,0.03607 m -6.7040017,0.328137 c -0.1251548,0.197374 -0.1326638,0.318399 -0.023365,0.376902 0.074329,0.03982 0.155215,-0.01022 0.2315362,-0.143374 0.1131015,-0.197232 0.08321,-0.342806 -0.07045,-0.342806 -0.056275,0 -0.08068,0.01942 -0.1377155,0.109278 m 1.0070043,-0.07767 c -0.027445,0.07149 0.00145,0.141099 0.068155,0.164488 0.05702,0.01995 0.072309,0.01558 0.1106923,-0.03182 0.03914,-0.0483 0.040625,-0.06097 0.012335,-0.103832 -0.039535,-0.05993 -0.1716239,-0.07982 -0.1911855,-0.02888 m 4.8319719,0.09056 c -0.04333,0.02895 -0.09615,0.08718 -0.117387,0.129534 -0.03713,0.07389 -0.03971,0.07502 -0.06452,0.0285 -0.03191,-0.05977 -0.03912,-0.05977 -0.17218,-6.75e-4 -0.09422,0.0417 -0.104481,0.0531 -0.08343,0.09238 0.01425,0.02662 0.04423,0.04257 0.07413,0.03945 0.04259,-0.0053 0.06498,0.02778 0.148077,0.214751 0.09605,0.216013 0.09703,0.220854 0.05235,0.255899 -0.02906,0.02273 -0.03994,0.0501 -0.03034,0.07528 0.0078,0.02183 0.01964,0.03968 0.02509,0.03968 0.0061,0 0.08813,-0.0336 0.183629,-0.07475 0.179734,-0.07733 0.220829,-0.138387 0.102418,-0.15227 -0.0476,-0.006 -0.06932,-0.03452 -0.121655,-0.162235 -0.07501,-0.182984 -0.07971,-0.260968 -0.01894,-0.315949 0.08637,-0.07818 0.145042,-0.04013 0.242171,0.156957 0.07847,0.159204 0.08601,0.188537 0.06103,0.235359 -0.02855,0.05333 -0.01669,0.10425 0.02436,0.10425 0.01186,0 0.09439,-0.03255 0.183375,-0.07233 0.145851,-0.06525 0.159363,-0.07679 0.137345,-0.117923 -0.01689,-0.03165 -0.03983,-0.0417 -0.07467,-0.03304 -0.04421,0.01103 -0.05983,-0.0098 -0.130183,-0.174266 -0.134213,-0.313708 -0.246019,-0.385023 -0.420723,-0.268307 M 5.5822377,12.36536 c -0.00963,0.02501 0.00115,0.05273 0.029504,0.07529 0.04373,0.03495 0.042877,0.04065 -0.03942,0.261528 -0.078385,0.210376 -0.088495,0.225835 -0.1478669,0.22597 -0.04726,1.22e-4 -0.06374,0.01157 -0.06374,0.04447 0,0.03352 0.039615,0.05947 0.1628398,0.10654 0.089555,0.03427 0.1782051,0.05625 0.1970021,0.04917 0.044375,-0.01702 0.04401,-0.07535 -6.031e-4,-0.09248 -0.05,-0.0192 -0.04513,-0.0456 0.057945,-0.316082 0.050983,-0.133778 0.092709,-0.25555 0.092709,-0.270609 0,-0.01507 -0.05775,-0.04905 -0.1283517,-0.07534 -0.154032,-0.0576 -0.1413777,-0.057 -0.1600119,-0.0079 m 0.7092497,0.109568 c -0.026272,0.0726 -0.037141,0.08095 -0.088827,0.06803 -0.038447,-0.0096 -0.065962,-0.0038 -0.079237,0.01732 -0.03214,0.0507 -0.025455,0.06225 0.045515,0.07775 l 0.066568,0.01463 -0.066538,0.247946 c -0.070945,0.2644 -0.081634,0.36341 -0.04183,0.388 0.013595,0.0079 0.085007,0.02083 0.1586447,0.02745 0.1111786,0.01009 0.1364399,0.006 0.1488403,-0.02677 0.011076,-0.02888 -0.00326,-0.04524 -0.054366,-0.06308 -0.082705,-0.02887 -0.083242,-0.0417 -0.013296,-0.29775 l 0.053829,-0.197 0.097412,0.0068 c 0.089265,0.0068 0.09681,0.0023 0.089912,-0.04553 -0.00562,-0.03547 -0.03063,-0.05864 -0.080244,-0.07274 -0.070002,-0.01995 -0.071944,-0.02371 -0.050486,-0.101441 0.012244,-0.04432 0.01888,-0.08402 0.014784,-0.08808 -0.00445,-0.0045 -0.044225,-0.01424 -0.08916,-0.02257 -0.077592,-0.01448 -0.08316,-0.0111 -0.1116192,0.06754 m 3.2062685,0.141424 c -0.176957,0.08984 -0.207644,0.288876 -0.04454,0.288876 0.07268,0 0.110808,-0.05692 0.09405,-0.140565 -0.01366,-0.06823 -0.01142,-0.07069 0.05976,-0.06368 0.05444,0.006 0.08511,0.02642 0.116326,0.0802 l 0.04244,0.07289 -0.10557,0.05108 c -0.05806,0.02813 -0.137136,0.08273 -0.175725,0.121288 -0.05864,0.05864 -0.06904,0.08555 -0.06315,0.163368 0.01444,0.193595 0.216146,0.234806 0.374419,0.07646 0.07408,-0.07408 0.07811,-0.07526 0.105479,-0.03157 0.02114,0.0339 0.04348,0.04177 0.0872,0.03075 0.144552,-0.0363 0.230398,-0.151737 0.112846,-0.151737 -0.04769,0 -0.06134,-0.01628 -0.08281,-0.0985 -0.06087,-0.233252 -0.08198,-0.283055 -0.151508,-0.356733 -0.06392,-0.06775 -0.0881,-0.07775 -0.186549,-0.07769 -0.06224,8.9e-5 -0.144438,0.01605 -0.182677,0.03547 m -2.5797542,0.150368 c -0.14613,0.08909 -0.216748,0.391665 -0.130392,0.558653 0.04163,0.08049 0.191091,0.157993 0.3063032,0.158763 0.07741,5.05e-4 0.219344,-0.0489 0.276196,-0.09603 0.02612,-0.02167 0.02495,-0.03311 -0.0068,-0.06818 -0.03458,-0.03832 -0.04424,-0.039 -0.103737,-0.0077 -0.0896,0.04635 -0.21469,0.04312 -0.2592102,-0.0068 -0.01992,-0.02229 -0.04157,-0.07498 -0.04803,-0.117019 l -0.01178,-0.07643 0.1082352,0.01477 c 0.05956,0.0075 0.16562,0.02318 0.235727,0.03338 0.143974,0.02099 0.161336,0.0086 0.161891,-0.111923 5.56e-4,-0.125359 -0.06183,-0.227597 -0.171368,-0.2806 -0.124275,-0.06014 -0.2587002,-0.0603 -0.3568982,-4.65e-4 m 1.9260072,0.03439 c -0.06219,0.07806 -0.06526,0.07917 -0.07725,0.02897 -0.01344,-0.05617 -0.114771,-0.08056 -0.222473,-0.05355 -0.07074,0.01778 -0.07064,0.07343 1.16e-4,0.09114 0.04978,0.01253 0.05734,0.03277 0.08113,0.218462 0.03557,0.276919 0.03408,0.300281 -0.02008,0.317453 -0.02666,0.0079 -0.0464,0.03503 -0.0464,0.06275 0,0.04527 0.0082,0.0471 0.156441,0.03255 0.265026,-0.02617 0.307093,-0.03795 0.307093,-0.08622 0,-0.03428 -0.01696,-0.04383 -0.07806,-0.04383 -0.07223,0 -0.07912,-0.0067 -0.09246,-0.08697 -0.02183,-0.131901 -0.01772,-0.273504 0.01006,-0.346143 0.02284,-0.05993 0.02739,-0.06188 0.05471,-0.02475 0.03426,0.04658 0.129742,0.0537 0.170695,0.01276 0.01535,-0.01538 0.02776,-0.0549 0.02776,-0.08811 0,-0.08053 -0.03991,-0.115882 -0.13111,-0.115882 -0.05862,0 -0.08997,0.01823 -0.14022,0.08131 m -1.142449,0.02235 c 0,0.02003 0.0276,0.04695 0.06133,0.05985 0.06085,0.02317 0.06123,0.0246 0.0464,0.199928 -0.0076,0.09712 -0.01493,0.210321 -0.01493,0.251532 0,0.05542 -0.01204,0.07806 -0.0464,0.08705 -0.02773,0.0069 -0.0464,0.03164 -0.0464,0.0606 0,0.04582 0.01217,0.04852 0.220179,0.04852 0.205622,0 0.220178,-0.0038 0.220178,-0.04688 0,-0.0336 -0.01969,-0.05085 -0.0695,-0.06082 -0.06824,-0.01365 -0.06954,-0.01658 -0.06904,-0.155862 5.32e-4,-0.145739 0.0847,-0.389344 0.109162,-0.315781 0.01426,0.04305 0.07493,0.09267 0.113287,0.09267 0.04669,0 0.101515,-0.06875 0.101515,-0.12747 0,-0.137993 -0.170626,-0.173012 -0.278792,-0.0573 l -0.06558,0.07028 -0.0069,-0.06443 c -0.0068,-0.06127 -0.01413,-0.0648 -0.14066,-0.07139 -0.108768,-0.006 -0.133266,-2.3e-4 -0.133266,0.02955 m -0.643642,0.02768 c -0.0162,0.0068 -0.04508,0.042 -0.06409,0.07883 -0.03857,0.07467 -0.04079,0.0733 0.157252,0.09976 0.08298,0.0111 0.08697,0.008 0.08697,-0.05469 0,-0.10631 -0.08255,-0.163024 -0.180109,-0.123766 M 9.670504,13.0173 c -0.06146,0.05482 -0.07214,0.07792 -0.05933,0.128793 0.03442,0.137091 0.213299,0.03262 0.195961,-0.114447 -0.01039,-0.08838 -0.04924,-0.09244 -0.136627,-0.01427"
     stroke="none"
     fill="#233c5b"
     fill-rule="evenodd"
     id="path1061"
     style="fill:#ffffff;stroke-width:0.023177" />
</svg>
