<?xml version="1.0" encoding="UTF-8" standalone="no"?><!-- Generator: Gravit.io --><svg xmlns="http://www.w3.org/2000/svg" xmlns:xlink="http://www.w3.org/1999/xlink" style="isolation:isolate" viewBox="0 0 24 24" width="24pt" height="24pt"><defs><clipPath id="_clipPath_1ePap8i7aw71068Q6CXAFzO9Db8wDuUa"><rect width="24" height="24"/></clipPath></defs><g clip-path="url(#_clipPath_1ePap8i7aw71068Q6CXAFzO9Db8wDuUa)"><clipPath id="_clipPath_6GzCJgzIyjf8f8NEk4XCcecSiWLc7oNo"><rect x="0" y="0" width="24" height="24" transform="matrix(1,0,0,1,0,0)" fill="rgb(255,255,255)"/></clipPath><g clip-path="url(#_clipPath_6GzCJgzIyjf8f8NEk4XCcecSiWLc7oNo)"><g><path d=" M 18.593 16.825 C 20.37 15.006 21.563 12.624 21.563 9.901 C 21.563 4.623 17.278 0.338 12 0.338 C 6.722 0.338 2.438 4.623 2.438 9.901 C 2.438 12.657 3.526 14.954 5.474 16.888 L 5.473 16.888 L 11.611 23.662 L 18.605 16.825 L 18.593 16.825 L 18.593 16.825 Z " fill="rgb(156,48,66)"/></g></g><clipPath id="_clipPath_NCO8UCJZhrCvmyTsF7428rNj0XGrH1tB"><rect x="2.769" y="0" width="18.462" height="24" transform="matrix(1,0,0,1,0,0)" fill="rgb(255,255,255)"/></clipPath><g clip-path="url(#_clipPath_NCO8UCJZhrCvmyTsF7428rNj0XGrH1tB)"><g><circle vector-effect="non-scaling-stroke" cx="12.000000000000004" cy="10.016498523921712" r="6.918562313790382" fill="rgb(239,123,49)"/><circle vector-effect="non-scaling-stroke" cx="12.00298560974861" cy="10.013512914173095" r="6.286887912765234" fill="rgb(255,255,255)"/><path d=" M 12.223 8.536 C 11.354 8.81 10.617 9.47 10.282 10.391 C 9.71 11.963 10.521 13.703 12.093 14.275 L 12.093 14.275 C 13.665 14.847 15.405 14.036 15.977 12.464 C 16.549 10.892 15.738 9.152 14.166 8.58 C 13.769 8.435 13.361 8.379 12.964 8.401 L 12.964 8.504 C 13.317 8.488 13.679 8.539 14.031 8.668 C 15.461 9.188 16.199 10.771 15.679 12.201 C 15.158 13.631 13.575 14.369 12.146 13.848 L 12.146 13.848 C 10.716 13.328 9.978 11.745 10.498 10.315 C 10.798 9.492 11.45 8.898 12.223 8.641 L 12.223 8.536 Z " fill-rule="evenodd" fill="rgb(156,48,66)"/><path d=" M 13.241 6.542 C 12.686 5.932 11.886 5.548 10.998 5.548 C 9.325 5.548 7.967 6.906 7.967 8.579 L 7.967 8.579 C 7.967 10.251 9.325 11.609 10.998 11.609 C 12.67 11.609 14.028 10.251 14.028 8.579 C 14.028 8.409 14.014 8.242 13.987 8.079 L 13.87 8.079 C 13.889 8.211 13.899 8.345 13.899 8.482 C 13.899 10.003 12.664 11.239 11.143 11.239 C 9.621 11.239 8.386 10.003 8.386 8.482 L 8.386 8.482 C 8.386 6.961 9.621 5.726 11.143 5.726 C 11.983 5.726 12.735 6.102 13.241 6.695 L 13.241 6.542 Z " fill-rule="evenodd" fill="rgb(239,123,49)"/></g></g></g></svg>