<?xml version="1.0" encoding="UTF-8" standalone="no"?>
<svg
   viewBox="0 0 24 24"
   width="24pt"
   height="24pt"
   version="1.1"
   id="svg1"
   sodipodi:docname="oneills.svg"
   xml:space="preserve"
   inkscape:version="1.3 (0e150ed6c4, 2023-07-21)"
   xmlns:inkscape="http://www.inkscape.org/namespaces/inkscape"
   xmlns:sodipodi="http://sodipodi.sourceforge.net/DTD/sodipodi-0.dtd"
   xmlns="http://www.w3.org/2000/svg"
   xmlns:svg="http://www.w3.org/2000/svg"><defs
     id="defs1" /><sodipodi:namedview
     id="namedview1"
     pagecolor="#ffffff"
     bordercolor="#000000"
     borderopacity="0.25"
     inkscape:showpageshadow="2"
     inkscape:pageopacity="0.0"
     inkscape:pagecheckerboard="0"
     inkscape:deskcolor="#d1d1d1"
     inkscape:document-units="pt"
     inkscape:zoom="11.546875"
     inkscape:cx="8.4005413"
     inkscape:cy="23.426252"
     inkscape:window-width="1920"
     inkscape:window-height="974"
     inkscape:window-x="-11"
     inkscape:window-y="1609"
     inkscape:window-maximized="1"
     inkscape:current-layer="svg1" /><ellipse
     style="fill:#000000;stroke-width:0.776034"
     id="path2"
     cx="12.113667"
     cy="10.051421"
     rx="7.1123133"
     ry="6.9336939" /><g
     id="g8"
     transform="matrix(0.03336369,0,0,0.03336369,3.5658281,6.6675043)"
     style="fill:#ffffff"> <path
   d="m 306.251,68.939 c -3.42,1.312 -6.894,3.051 -9.66,5.403 -9.635,8.195 -12.854,19.407 -14.03,32.05 0.344,2.1 0.608,4.735 1.224,7.286 1.994,8.256 10.197,13.062 18.463,11.232 8.606,-1.906 13.652,-7.514 16.77,-15.308 0.664,-1.66 2.076,-3.754 -0.211,-4.93 -2.145,-1.103 -3.007,1.189 -3.986,2.602 -2.237,3.231 -4.715,6.191 -8.459,7.765 -3.909,1.643 -6.518,0.475 -7.718,-3.595 -0.456,-1.546 -0.552,-3.203 -0.762,-4.817 -0.336,-2.584 0.677,-4.138 3.222,-5.139 4.797,-1.887 9.239,-4.489 12.832,-8.27 4.456,-4.689 6.525,-10.103 4.746,-16.63 -1.55,-5.685 -7.409,-9.577 -12.431,-7.649 z m -6.164,26.284 c -2.215,1.246 -3.638,0.671 -3.616,-1.78 0.046,-5.231 1.198,-10.266 5.029,-14.103 0.937,-0.938 3.09,-1.448 4.333,-1.052 1.035,0.33 1.556,2.275 2.304,3.505 -0.897,5.904 -2.946,10.559 -8.05,13.43 z"
   id="path1-3"
   style="fill:#ffffff" /> <path
   d="m 126.64,76.481 c -13.287,-5.978 -27.873,-1.175 -34.043,11.902 -3.684,7.807 -4.492,16.344 -2.68,24.865 1.218,5.729 4.27,10.525 9.287,13.761 3.192,2.058 6.596,2.163 9.895,0.07 3.257,-2.066 3.937,-5.2 3.499,-8.755 -0.466,-3.786 -3.056,-5.33 -6.42,-6.095 -2.952,-0.672 -4.962,-2.489 -6.045,-5.298 -1.86,-4.827 -2.401,-9.755 -1.296,-14.869 1.052,-4.867 4.079,-7.805 8.731,-9.012 4.901,-1.272 9.406,-0.378 12.489,3.934 1.784,2.496 3.249,5.303 4.393,8.156 2.947,7.344 3.133,15.157 3.61,26.307 -0.612,4.473 -1.233,12.326 -2.853,19.967 -1.823,8.598 -6.067,16.233 -12.789,22.024 -8.458,7.286 -17.814,7.113 -23.904,-3.238 -2.104,-3.577 -3.734,-7.523 -4.997,-11.487 -3.274,-10.277 -3.638,-20.955 -3.352,-31.619 0.171,-6.364 0.929,-12.717 3.426,-18.71 0.594,-1.427 1.222,-2.909 1.399,-4.417 0.118,-1.007 -0.243,-2.44 -0.942,-3.05 -0.521,-0.455 -2.156,-0.233 -2.89,0.274 -1.641,1.133 -3.169,2.508 -4.495,4.004 -5.775,6.516 -9.63,14.127 -11.858,22.475 -3.306,12.384 -3.661,24.689 1.849,36.7 8.688,18.94 28.947,26.035 46.87,18.186 12.697,-5.561 22.089,-15.289 27.705,-27.827 6.562,-14.649 7.982,-30.163 3.535,-45.798 -2.826,-9.935 -8.266,-18.015 -18.124,-22.45 z"
   id="path2-0"
   style="fill:#ffffff" /> <path
   d="m 336.288,56.888 c 4.622,-0.009 8.214,-3.59 8.282,-8.258 0.068,-4.612 -3.77,-8.554 -8.324,-8.55 -4.476,0.003 -8.188,3.776 -8.225,8.36 -0.039,4.805 3.534,8.457 8.267,8.448 z"
   id="path3"
   style="fill:#ffffff" /> <path
   d="m 424.514,49.29 c 1.236,-0.09 2.664,0.232 3.749,0.831 1.683,0.929 3.136,2.27 4.707,3.408 2.448,1.772 4.098,1.91 5.961,0.543 2.149,-1.577 3.014,-4.368 2.117,-6.831 -1.556,-4.27 -4.986,-6.479 -12.098,-6.426 -5.531,0.132 -10.957,3.815 -14.665,10.338 -3.513,6.178 -2.325,12.104 1.358,17.566 2.854,4.232 6.364,8.019 9.51,12.06 1.278,1.642 2.57,3.332 3.48,5.186 0.853,1.737 -0.063,3.019 -1.991,3.305 -2.588,0.383 -4.942,-0.241 -7.028,-1.816 -1.674,-1.264 -3.286,-2.611 -4.992,-3.83 -2.547,-1.821 -5.062,-1.265 -6.745,1.401 -2.354,3.73 -0.376,9.147 4.111,11.262 8.396,3.958 20.571,-0.519 24.988,-9.196 3.755,-7.375 3.876,-15.554 -3.854,-21.782 -1.633,-1.316 -3.348,-2.57 -4.782,-4.082 -2.228,-2.35 -4.478,-4.742 -6.281,-7.412 -1.374,-2.033 -0.018,-4.344 2.455,-4.525 z"
   id="path4"
   style="fill:#ffffff" /> <path
   d="m 164.939,84.968 c -0.166,-1.148 -0.265,-2.311 -0.51,-3.442 -0.952,-4.394 -4.187,-6.126 -8.374,-4.525 -2.573,0.984 -4.071,3.787 -3.317,7.162 0.568,2.54 1.609,5 2.655,7.402 1.12,2.573 2.447,5.024 1.818,8.006 -0.113,0.539 0.329,1.664 0.663,1.726 0.628,0.116 1.515,-0.17 2.015,-0.608 0.676,-0.593 1.306,-1.416 1.577,-2.262 1.409,-4.394 2.698,-8.827 4.028,-13.246 -0.185,-0.07 -0.37,-0.141 -0.555,-0.213 z"
   id="path5"
   style="fill:#ffffff" /> <path
   d="m 409.857,40.432 c -0.255,0.094 -0.509,0.187 -0.764,0.281 0.297,0.879 0.593,1.759 0.89,2.638 0.71,-0.349 1.756,-0.508 2.079,-1.077 2.927,-5.161 4.857,-10.617 3.471,-16.644 -0.778,-3.384 -2.873,-4.667 -5.922,-4.124 -3.009,0.536 -4.819,2.863 -4.27,6.135 0.378,2.254 1.331,4.42 2.11,6.595 0.746,2.086 1.6,4.133 2.406,6.196 z"
   id="path6"
   style="fill:#ffffff" /> <path
   d="m 325.2,121.935 c -3.699,-1.551 -7.067,-0.504 -8.78,2.476 -1.728,3.006 -1.629,6.862 0.803,9.345 1.804,1.842 4.057,3.362 6.349,4.572 1.731,0.914 1.974,1.777 1.398,3.477 -2.595,7.657 -11.059,10.822 -18.722,7.093 -5.723,-2.785 -10.187,-7.081 -14.491,-11.577 -9.369,-9.789 -16.131,-21.048 -17.525,-34.743 -1.94,-19.05 4.868,-35.216 17.495,-49.181 2.123,-2.348 2.236,-2.252 4.013,0.376 1.726,2.553 3.83,4.632 7.175,4.427 3.486,-0.213 5.966,-2.092 7.355,-5.285 1.41,-3.243 1.348,-6.37 -1.151,-9.134 -3.078,-3.403 -6.926,-5.156 -11.517,-5.333 -9.475,-0.366 -16.085,4.419 -21.114,11.869 -7.622,11.291 -10.603,24.245 -13.024,37.355 -0.855,4.631 -1.324,9.333 -2.065,14.698 -1.081,-0.954 -1.803,-1.484 -2.396,-2.13 -9.299,-10.133 -16.125,-21.864 -21.725,-34.315 -2.458,-5.466 -6.484,-7.55 -12.184,-7.438 -7.801,0.153 -15.188,2.235 -22.535,4.56 -7.661,2.424 -13.88,6.626 -17.12,14.31 -2.86,6.782 -3.503,13.6 0.806,20.037 3.711,5.543 10.113,5.241 13.704,-0.443 2.464,-3.9 0.896,-7.916 -3.545,-9.079 -0.6,-0.157 -1.221,-0.255 -1.797,-0.472 -2.411,-0.906 -3.46,-2.839 -3.593,-5.248 -0.131,-2.365 1.165,-4.122 3.244,-4.94 6.606,-2.598 13.441,-4.434 20.552,-4.839 4.36,-0.249 6.011,1.383 6.171,5.69 0.438,11.785 -0.615,23.461 -2.892,35.02 -1.651,8.383 -5.448,15.668 -11.648,21.611 -3.881,3.72 -8.316,6.618 -13.656,7.631 -6.041,1.146 -11.598,0.435 -15.712,-4.97 -4.313,-5.666 -4.534,-16.535 -0.187,-22.197 0.784,-1.021 1.832,-1.946 2.948,-2.585 2.772,-1.585 6.301,-0.54 6.653,2.103 0.193,1.447 -0.581,3.109 -1.196,4.556 -0.754,1.775 -2.014,3.348 -2.672,5.148 -1.382,3.777 0.109,7.447 3.455,9.14 3.151,1.594 6.169,0.629 8.658,-2.773 2.249,-3.073 2.537,-6.603 2.386,-10.235 -0.284,-6.816 -4.638,-12.883 -10.618,-14.794 -7.475,-2.389 -14.315,-0.719 -18.585,5.294 -6.08,8.562 -6.564,17.894 -2.322,27.415 4.626,10.382 14.782,15.914 24.756,15.602 6.48,-0.202 12.412,-2.687 17.694,-6.517 10.06,-7.294 15.396,-17.693 18.883,-29.208 2.649,-8.748 3.704,-17.783 4.194,-26.888 0.034,-0.634 0.184,-1.262 0.281,-1.893 0.327,-0.204 0.654,-0.407 0.981,-0.611 0.242,0.569 0.397,1.198 0.741,1.697 1.761,2.558 3.482,5.151 5.379,7.607 11.193,14.496 23.777,27.733 36.997,40.365 7.468,7.136 14.874,14.368 23.78,19.811 7.464,4.562 17.11,4.716 22.915,-0.511 7.542,-6.79 11.24,-15.564 10.779,-25.747 -0.224,-4.913 -3.274,-8.312 -7.773,-10.199 z"
   id="path7"
   style="fill:#ffffff" /> <path
   d="m 399.242,84.839 c -1.603,1.768 -2.79,3.907 -4.231,5.832 -0.368,0.491 -1.056,0.742 -1.598,1.104 -0.219,-0.664 -0.683,-1.353 -0.619,-1.988 0.657,-6.495 1.412,-12.98 2.115,-19.471 1.873,-17.311 3.749,-34.622 5.555,-51.941 0.098,-0.937 -0.438,-1.94 -0.678,-2.912 -1.046,0.326 -2.107,0.614 -3.131,0.999 -0.338,0.127 -0.588,0.496 -0.869,0.765 -3.803,3.633 -7.924,6.752 -13.088,8.234 -0.582,0.167 -1.283,0.45 -1.594,0.906 -0.476,0.699 -0.995,1.656 -0.863,2.391 0.107,0.594 1.095,1.338 1.783,1.448 1.022,0.164 2.121,-0.229 3.193,-0.274 0.558,-0.024 1.126,0.187 1.69,0.293 -0.123,0.494 -0.19,1.011 -0.382,1.477 -0.465,1.127 -1.312,2.195 -1.439,3.349 -1.28,11.667 -2.431,23.348 -3.65,35.022 -0.72,6.893 -2.816,13.372 -6.262,19.37 -1.718,2.99 -3.575,5.947 -7.098,8.448 -0.08,-1.346 -0.21,-2.007 -0.144,-2.647 1.04,-10.052 2.096,-20.103 3.166,-30.152 1.474,-13.836 2.982,-27.668 4.399,-41.509 0.089,-0.864 -0.487,-1.797 -0.754,-2.698 -0.915,0.298 -2.074,0.338 -2.707,0.935 -4.397,4.149 -9.086,7.746 -14.966,9.631 -0.879,0.282 -1.985,1.838 -1.903,2.702 0.151,1.592 1.724,2.02 3.252,1.855 0.608,-0.066 1.189,-0.357 1.797,-0.445 0.557,-0.081 1.134,-0.027 1.701,-0.033 -0.133,0.632 -0.223,1.277 -0.408,1.893 -0.456,1.516 -1.294,2.998 -1.385,4.53 -0.769,12.89 -1.651,25.775 -4.426,38.411 -0.712,3.241 -2.244,6.448 -4.024,9.278 -3.222,5.123 -6.927,9.942 -10.392,14.914 -0.459,0.658 -0.697,1.47 -1.037,2.21 -0.386,-0.29 -0.772,-0.58 -1.157,-0.87 0.057,-0.724 0.073,-1.453 0.177,-2.17 1.17,-7.998 2.377,-15.991 3.519,-23.993 0.351,-2.457 0.793,-4.944 0.731,-7.406 -0.09,-3.606 -0.992,-7.005 -4.786,-8.63 -3.729,-1.598 -7.679,-0.482 -10.486,3.612 -2.309,3.367 -3.975,7.178 -5.871,10.821 -0.273,0.525 -0.446,1.267 -0.297,1.807 0.23,0.829 0.608,1.955 1.242,2.237 0.609,0.27 1.949,-0.112 2.396,-0.668 1.052,-1.308 1.73,-2.911 2.626,-4.354 0.52,-0.837 1.169,-1.595 1.76,-2.388 0.267,0.109 0.533,0.219 0.8,0.328 -0.09,1.096 -0.091,2.208 -0.284,3.286 -1.448,8.109 -3.074,16.189 -4.339,24.326 -0.495,3.189 -0.525,6.531 -0.206,9.747 0.567,5.712 5.174,8.034 9.836,4.827 2.95,-2.029 5.629,-4.656 7.87,-7.462 3.142,-3.935 5.745,-8.3 8.627,-12.448 0.466,-0.671 1.179,-1.171 1.914,-1.881 0.18,3.369 0.178,6.318 0.532,9.225 0.433,3.555 3.2,5.236 6.581,4.198 1.031,-0.317 2.038,-0.754 2.999,-1.249 5.447,-2.804 9.135,-7.367 12.336,-12.414 0.466,-0.734 1.03,-1.406 1.957,-2.658 0.405,2.509 0.564,4.328 1.007,6.075 1.228,4.834 3.672,6.051 8.25,4.067 7.082,-3.068 11.401,-8.947 15.04,-15.373 0.464,-0.82 -0.331,-2.352 -0.543,-3.554 -1.102,0.321 -2.575,0.309 -3.234,1.035 z"
   id="path8"
   style="fill:#ffffff" /> </g></svg>
