<?xml version="1.0" encoding="UTF-8" standalone="no"?>
<svg
   width="24"
   height="24"
   xml:space="preserve"
   overflow="hidden"
   version="1.1"
   id="svg606"
   sodipodi:docname="Asda PFS.svg"
   xmlns:inkscape="http://www.inkscape.org/namespaces/inkscape"
   xmlns:sodipodi="http://sodipodi.sourceforge.net/DTD/sodipodi-0.dtd"
   xmlns="http://www.w3.org/2000/svg"
   xmlns:svg="http://www.w3.org/2000/svg"><sodipodi:namedview
     id="namedview608"
     pagecolor="#505050"
     bordercolor="#eeeeee"
     borderopacity="1"
     inkscape:showpageshadow="0"
     inkscape:pageopacity="0"
     inkscape:pagecheckerboard="0"
     inkscape:deskcolor="#505050"
     showgrid="false" /><defs
     id="defs592"><clipPath
       id="clip0"><rect
         x="1016"
         y="212"
         width="83"
         height="83"
         id="rect580" /></clipPath><clipPath
       id="clip1"><rect
         x="1028"
         y="221"
         width="63"
         height="63"
         id="rect583" /></clipPath><clipPath
       id="clip2"><rect
         x="1028"
         y="221"
         width="63"
         height="63"
         id="rect586" /></clipPath><clipPath
       id="clip3"><rect
         x="1028"
         y="221"
         width="63"
         height="63"
         id="rect589" /></clipPath></defs><g
     clip-path="url(#clip0)"
     transform="translate(-1016,-212)"
     id="g604"><path
       d="m 1016,224 c 0,-6.62747 5.3725,-12 12,-12 6.6275,0 12,5.37253 12,12 0,6.62747 -5.3725,12 -12,12 -6.6275,0 -12,-5.37253 -12,-12 z"
       fill="#0383ed"
       fill-rule="evenodd"
       id="path594"
       style="stroke-width:0.289157" /><g
       clip-path="url(#clip1)"
       id="g602"
       transform="matrix(0.28915663,0,0,0.28915663,722.21687,150.6988)"><g
         clip-path="url(#clip2)"
         id="g600"><g
           clip-path="url(#clip3)"
           id="g598"><path
             d="m 49.8201,24.7128 1.2006,-0.9604 -0.051,-0.3642 c -0.5722,-3.8615 -3.6812,-8.1924 -10.1492,-9.6649 -0.3491,-0.0735 -0.6916,0.1499 -0.765,0.499 -0.0093,0.044 -0.014,0.0889 -0.0139,0.1339 v 1.2871 c 0.0052,0.2904 0.2091,0.5392 0.4928,0.6013 3.0696,0.7576 5.1873,4.03 5.392,8.0955 l 1.1715,19.6746 c 0.0531,0.8934 -0.628,1.6606 -1.5213,1.7138 -0.0061,3e-4 -0.0123,6e-4 -0.0183,9e-4 H 45.4885 C 44.562,45.6829 43.8399,44.9088 43.8578,43.9812 V 33.3249 c 0,-2.8534 -2.3132,-5.1666 -5.1667,-5.1666 H 37.4583 V 12.9166 c 0,-2.1401 -1.7349,-3.87495 -3.875,-3.87495 h -15.5 c -2.1401,0 -3.875,1.73485 -3.875,3.87495 V 49.0832 H 11.625 v 3.875 h 28.4166 v -3.875 H 37.4583 V 32.0333 h 1.2328 c 0.7134,0 1.2917,0.5782 1.2917,1.2916 v 10.58 c -0.0314,1.9031 0.8927,3.6954 2.4613,4.7734 2.5225,1.6819 5.9308,1.0003 7.6127,-1.5222 0.6635,-0.9952 0.9839,-2.1799 0.9123,-3.3739 z M 18.0833,12.9166 h 15.5 v 11.625 h -15.5 z"
             fill="#ffffff"
             transform="matrix(1,0,0,1.01613,1028,221)"
             id="path596" /></g></g></g></g></svg>
