<?xml version="1.0" encoding="UTF-8" standalone="no"?>
<svg
   width="24"
   height="24"
   xml:space="preserve"
   overflow="hidden"
   version="1.1"
   id="svg887"
   xmlns="http://www.w3.org/2000/svg"
   xmlns:svg="http://www.w3.org/2000/svg"><defs
     id="defs869"><clipPath
       id="clip0"><rect
         x="299"
         y="212"
         width="83"
         height="83"
         id="rect857" /></clipPath><clipPath
       id="clip1"><rect
         x="308"
         y="221"
         width="70"
         height="70"
         id="rect860" /></clipPath><clipPath
       id="clip2"><rect
         x="308"
         y="221"
         width="70"
         height="70"
         id="rect863" /></clipPath><clipPath
       id="clip3"><rect
         x="308"
         y="221"
         width="70"
         height="70"
         id="rect866" /></clipPath></defs><g
     clip-path="url(#clip0)"
     transform="matrix(0.28915663,0,0,0.28915663,-86.457831,-61.301205)"
     id="g885"><path
       d="m 299,253.5 c 0,-22.92 18.58,-41.5 41.5,-41.5 22.92,0 41.5,18.58 41.5,41.5 0,22.92 -18.58,41.5 -41.5,41.5 -22.92,0 -41.5,-18.58 -41.5,-41.5 z"
       fill="#287d3e"
       fill-rule="evenodd"
       id="path871" /><g
       clip-path="url(#clip1)"
       id="g883"><g
         clip-path="url(#clip2)"
         id="g881"><g
           clip-path="url(#clip3)"
           id="g879"><path
             d="m 330.281,243.281 h -7.906 v -5.031 h 7.906 z m 10.782,-5.031 v 5.031 h -7.907 v -5.031 z m 10.781,0 v 5.031 h -7.906 v -5.031 z m 10.781,0 v 5.031 h -7.906 v -5.031 z m 0,12.938 h -7.906 v -5.032 h 7.906 z m 0,6.109 -7.906,0.719 v -3.953 h 7.906 z m -32.344,-3.234 v 6.109 l -7.906,0.719 v -6.828 z m 0,-2.875 h -7.906 v -5.032 h 7.906 z m 10.782,0 h -7.907 v -5.032 h 7.907 z m 2.875,0 v -5.032 h 7.906 v 5.032 z m -2.875,8.05 -7.907,0.718 v -5.893 h 7.907 z m 2.875,-5.175 h 7.906 v 4.168 l -7.906,0.719 z m 23,7.187 v -27.312 h -44.563 v -0.719 c 0,-3.594 -2.875,-6.469 -6.469,-6.469 -1.222,0 -2.156,0.934 -2.156,2.156 0,1.222 0.934,2.157 2.156,2.157 1.222,0 2.156,0.934 2.156,2.156 v 35.937 c 0,3.594 2.876,6.469 6.469,6.469 h 2.157 31.625 6.468 c 1.222,0 2.157,-0.934 2.157,-2.156 0,-1.222 -0.935,-2.156 -2.157,-2.156 h -40.25 c -1.222,0 -2.156,-0.935 -2.156,-2.157 v -3.953 z"
             fill="#ffffff"
             id="path873" /><path
             d="m 331,279.938 c 0,2.381 -1.931,4.312 -4.312,4.312 -2.382,0 -4.313,-1.931 -4.313,-4.312 0,-2.382 1.931,-4.313 4.313,-4.313 2.381,0 4.312,1.931 4.312,4.313 z"
             fill="#ffffff"
             id="path875" /><path
             d="m 362.625,279.938 c 0,2.381 -1.931,4.312 -4.312,4.312 -2.382,0 -4.313,-1.931 -4.313,-4.312 0,-2.382 1.931,-4.313 4.313,-4.313 2.381,0 4.312,1.931 4.312,4.313 z"
             fill="#ffffff"
             id="path877" /></g></g></g></g><path
     style="fill:#000000;fill-opacity:0;stroke-width:0.0296663"
     d="M 11.258344,23.967133 C 10.027801,23.859335 9.2472487,23.708088 8.2682249,23.387737 6.4658,22.797959 4.8841065,21.824519 3.5286541,20.47081 1.5960014,18.540642 0.41061303,16.079547 0.08453226,13.320148 c -0.07360052,-0.622831 -0.07360052,-2.017465 0,-2.640296 C 0.4105133,7.9212967 1.5984886,5.4542358 3.5279778,3.5288701 5.4712699,1.5897309 7.9193328,0.41074537 10.679852,0.08453226 c 0.622831,-0.07360053 2.017465,-0.07360053 2.640296,0 1.956781,0.23123464 3.723178,0.87459437 5.31026,1.93411034 2.719599,1.8155707 4.572588,4.6228305 5.158928,7.8157208 0.141176,0.7687676 0.178717,1.2236816 0.178717,2.1656366 0,0.942881 -0.03774,1.399405 -0.179013,2.165637 -0.956733,5.188959 -5.182786,9.134146 -10.439225,9.745428 -0.392708,0.04567 -1.78432,0.08297 -2.091471,0.05607 z M 8.3850085,20.841285 C 9.2576763,20.57009 9.5544896,19.473737 8.9366919,18.803506 8.7800639,18.633584 8.6787658,18.562434 8.472906,18.477751 l -0.1663547,-0.06843 h 4.2719407 4.271941 l -0.171005,0.07032 c -0.328185,0.134959 -0.557494,0.366769 -0.699339,0.706964 -0.103296,0.247742 -0.107721,0.661897 -0.0097,0.912283 0.322188,0.823391 1.399763,1.06696 2.046012,0.462469 0.674906,-0.631295 0.430907,-1.800467 -0.439099,-2.104033 -0.127162,-0.04437 -0.09247,-0.04665 0.730852,-0.048 l 0.86435,-0.0014 0.158117,-0.0826 c 0.380665,-0.198862 0.436779,-0.745763 0.10629,-1.035936 -0.05922,-0.052 -0.158105,-0.108547 -0.219738,-0.125662 -0.07647,-0.02124 -1.997455,-0.03117 -6.048061,-0.03128 L 7.2330651,17.132262 7.1023173,17.063236 C 7.0304063,17.025271 6.9315204,16.937387 6.8825711,16.867938 l -0.088999,-0.12627 -0.00887,-0.672441 -0.00887,-0.672441 6.3277839,-0.558902 c 3.480282,-0.307397 6.377847,-0.566087 6.439033,-0.574867 l 0.111249,-0.01596 V 10.290399 6.3337454 H 13.220791 6.787688 L 6.7691899,6.052142 C 6.736261,5.550844 6.5510222,5.1310173 6.2165577,4.7996508 5.8767619,4.4630026 5.4835654,4.2907319 4.9987639,4.2661009 4.7421268,4.253062 4.7050012,4.2581901 4.5834363,4.3234715 4.3908371,4.4268985 4.2788499,4.5995908 4.26309,4.817469 4.247298,5.035793 4.294034,5.1814558 4.4271512,5.3288007 c 0.1100141,0.1217726 0.313999,0.2039558 0.5062333,0.2039558 0.219503,0 0.4724927,0.2094716 0.5408485,0.4478142 0.018219,0.063528 0.028857,2.0701264 0.028857,5.4434123 0,5.220399 0.00134,5.348033 0.058502,5.571533 0.2190464,0.856463 0.9451028,1.406681 1.8671335,1.414945 0.1794714,0.0016 0.2571207,0.01091 0.210335,0.02519 -0.2558299,0.0781 -0.4979211,0.252774 -0.6556803,0.473082 -0.3453479,0.482272 -0.3034781,1.146108 0.1004701,1.59294 0.1433366,0.158554 0.4095803,0.319749 0.6032025,0.365204 0.2020933,0.04744 0.4978282,0.0366 0.6979556,-0.02559 z"
     id="path2338" /><path
     style="fill:#000000;fill-opacity:0;stroke-width:0.0296663"
     d="M 11.258344,23.967133 C 10.027801,23.859335 9.2472487,23.708088 8.2682249,23.387737 6.4658,22.797959 4.8841065,21.824519 3.5286541,20.47081 1.5960014,18.540642 0.41061303,16.079547 0.08453226,13.320148 c -0.07360052,-0.622831 -0.07360052,-2.017465 0,-2.640296 C 0.4105133,7.9212967 1.5984886,5.4542358 3.5279778,3.5288701 5.4712699,1.5897309 7.9193328,0.41074537 10.679852,0.08453226 c 0.622831,-0.07360053 2.017465,-0.07360053 2.640296,0 1.956781,0.23123464 3.723178,0.87459437 5.31026,1.93411034 2.719599,1.8155707 4.572588,4.6228305 5.158928,7.8157208 0.141176,0.7687676 0.178717,1.2236816 0.178717,2.1656366 0,0.942881 -0.03774,1.399405 -0.179013,2.165637 -0.956733,5.188959 -5.182786,9.134146 -10.439225,9.745428 -0.392708,0.04567 -1.78432,0.08297 -2.091471,0.05607 z M 8.3850085,20.841285 C 9.2576763,20.57009 9.5544896,19.473737 8.9366919,18.803506 8.7800639,18.633584 8.6787658,18.562434 8.472906,18.477751 l -0.1663547,-0.06843 h 4.2719407 4.271941 l -0.171005,0.07032 c -0.328185,0.134959 -0.557494,0.366769 -0.699339,0.706964 -0.103296,0.247742 -0.107721,0.661897 -0.0097,0.912283 0.322188,0.823391 1.399763,1.06696 2.046012,0.462469 0.674906,-0.631295 0.430907,-1.800467 -0.439099,-2.104033 -0.127162,-0.04437 -0.09247,-0.04665 0.730852,-0.048 l 0.86435,-0.0014 0.158117,-0.0826 c 0.380665,-0.198862 0.436779,-0.745763 0.10629,-1.035936 -0.05922,-0.052 -0.158105,-0.108547 -0.219738,-0.125662 -0.07647,-0.02124 -1.997455,-0.03117 -6.048061,-0.03128 L 7.2330651,17.132262 7.1023173,17.063236 C 7.0304063,17.025271 6.9315204,16.937387 6.8825711,16.867938 l -0.088999,-0.12627 -0.00887,-0.672441 -0.00887,-0.672441 6.3277839,-0.558902 c 3.480282,-0.307397 6.377847,-0.566087 6.439033,-0.574867 l 0.111249,-0.01596 V 10.290399 6.3337454 H 13.220791 6.787688 L 6.7691899,6.052142 C 6.736261,5.550844 6.5510222,5.1310173 6.2165577,4.7996508 5.8767619,4.4630026 5.4835654,4.2907319 4.9987639,4.2661009 4.7421268,4.253062 4.7050012,4.2581901 4.5834363,4.3234715 4.3908371,4.4268985 4.2788499,4.5995908 4.26309,4.817469 4.247298,5.035793 4.294034,5.1814558 4.4271512,5.3288007 c 0.1100141,0.1217726 0.313999,0.2039558 0.5062333,0.2039558 0.219503,0 0.4724927,0.2094716 0.5408485,0.4478142 0.018219,0.063528 0.028857,2.0701264 0.028857,5.4434123 0,5.220399 0.00134,5.348033 0.058502,5.571533 0.2190464,0.856463 0.9451028,1.406681 1.8671335,1.414945 0.1794714,0.0016 0.2571207,0.01091 0.210335,0.02519 -0.2558299,0.0781 -0.4979211,0.252774 -0.6556803,0.473082 -0.3453479,0.482272 -0.3034781,1.146108 0.1004701,1.59294 0.1433366,0.158554 0.4095803,0.319749 0.6032025,0.365204 0.2020933,0.04744 0.4978282,0.0366 0.6979556,-0.02559 z"
     id="path2340" /><path
     style="fill:#112b00;fill-opacity:1;stroke-width:0.0296663"
     d="M 11.258344,23.967133 C 10.027801,23.859335 9.2472487,23.708088 8.2682249,23.387737 6.4658,22.797959 4.8841065,21.824519 3.5286541,20.47081 1.5960014,18.540642 0.41061303,16.079547 0.08453226,13.320148 c -0.07360052,-0.622831 -0.07360052,-2.017465 0,-2.640296 C 0.4105133,7.9212967 1.5984886,5.4542358 3.5279778,3.5288701 5.4712699,1.5897309 7.9193328,0.41074537 10.679852,0.08453226 c 0.622831,-0.07360053 2.017465,-0.07360053 2.640296,0 1.956781,0.23123464 3.723178,0.87459437 5.31026,1.93411034 2.719599,1.8155707 4.572588,4.6228305 5.158928,7.8157208 0.141176,0.7687676 0.178717,1.2236816 0.178717,2.1656366 0,0.942881 -0.03774,1.399405 -0.179013,2.165637 -0.956733,5.188959 -5.182786,9.134146 -10.439225,9.745428 -0.392708,0.04567 -1.78432,0.08297 -2.091471,0.05607 z M 8.3850085,20.841285 C 9.2576763,20.57009 9.5544896,19.473737 8.9366919,18.803506 8.7800639,18.633584 8.6787658,18.562434 8.472906,18.477751 l -0.1663547,-0.06843 h 4.2719407 4.271941 l -0.171005,0.07032 c -0.328185,0.134959 -0.557494,0.366769 -0.699339,0.706964 -0.103296,0.247742 -0.107721,0.661897 -0.0097,0.912283 0.322188,0.823391 1.399763,1.06696 2.046012,0.462469 0.674906,-0.631295 0.430907,-1.800467 -0.439099,-2.104033 -0.127162,-0.04437 -0.09247,-0.04665 0.730852,-0.048 l 0.86435,-0.0014 0.158117,-0.0826 c 0.380665,-0.198862 0.436779,-0.745763 0.10629,-1.035936 -0.05922,-0.052 -0.158105,-0.108547 -0.219738,-0.125662 -0.07647,-0.02124 -1.997455,-0.03117 -6.048061,-0.03128 L 7.2330651,17.132262 7.1023173,17.063236 C 7.0304063,17.025271 6.9315204,16.937387 6.8825711,16.867938 l -0.088999,-0.12627 -0.00887,-0.672441 -0.00887,-0.672441 6.3277839,-0.558902 c 3.480282,-0.307397 6.377847,-0.566087 6.439033,-0.574867 l 0.111249,-0.01596 V 10.290399 6.3337454 H 13.220791 6.787688 L 6.7691899,6.052142 C 6.736261,5.550844 6.5510222,5.1310173 6.2165577,4.7996508 5.8767619,4.4630026 5.4835654,4.2907319 4.9987639,4.2661009 4.7421268,4.253062 4.7050012,4.2581901 4.5834363,4.3234715 4.3908371,4.4268985 4.2788499,4.5995908 4.26309,4.817469 4.247298,5.035793 4.294034,5.1814558 4.4271512,5.3288007 c 0.1100141,0.1217726 0.313999,0.2039558 0.5062333,0.2039558 0.219503,0 0.4724927,0.2094716 0.5408485,0.4478142 0.018219,0.063528 0.028857,2.0701264 0.028857,5.4434123 0,5.220399 0.00134,5.348033 0.058502,5.571533 0.2190464,0.856463 0.9451028,1.406681 1.8671335,1.414945 0.1794714,0.0016 0.2571207,0.01091 0.210335,0.02519 -0.2558299,0.0781 -0.4979211,0.252774 -0.6556803,0.473082 -0.3453479,0.482272 -0.3034781,1.146108 0.1004701,1.59294 0.1433366,0.158554 0.4095803,0.319749 0.6032025,0.365204 0.2020933,0.04744 0.4978282,0.0366 0.6979556,-0.02559 z"
     id="path2342" /><path
     style="fill:#112b00;fill-opacity:1;stroke-width:0.0296663"
     d="M 13.023486,8.3213844 V 7.6093943 h 1.127317 1.127318 v 0.7119901 0.7119901 h -1.127318 -1.127317 z"
     id="path2824" /><path
     style="fill:#112b00;fill-opacity:1;stroke-width:0.0296663"
     d="M 9.8788628,8.3213844 V 7.6093943 H 11.00618 12.133498 V 8.3213844 9.0333745 H 11.00618 9.8788628 Z"
     id="path2826" /><path
     style="fill:#112b00;fill-opacity:1;stroke-width:0.0296663"
     d="M 6.7639061,8.3213844 V 7.6093943 H 7.8912237 9.0185414 V 8.3213844 9.0333745 H 7.8912237 6.7639061 Z"
     id="path2828" /><path
     style="fill:#112b00;fill-opacity:1;stroke-width:0.0296663"
     d="M 6.7639061,10.605686 V 9.8936959 h 1.1273176 1.1273177 v 0.7119901 0.71199 H 7.8912237 6.7639061 Z"
     id="path2830" /><path
     style="fill:#112b00;fill-opacity:1;stroke-width:0.0296663"
     d="m 6.7639061,13.142151 v -0.964153 h 1.1273176 1.1273177 v 0.869505 0.869506 L 7.9579728,14.0123 c -0.5833127,0.05241 -1.0906057,0.095 -1.1273177,0.09465 l -0.066749,-6.44e-4 z"
     id="path2832" /><path
     style="fill:#112b00;fill-opacity:1;stroke-width:0.0296663"
     d="m 9.8788628,13.008653 v -0.830655 h 1.1273172 1.127318 v 0.73509 0.735091 l -1.090235,0.09671 c -0.599629,0.05319 -1.1069218,0.0962 -1.1273174,0.09556 -0.028756,-8.91e-4 -0.037083,-0.187671 -0.037083,-0.831804 z"
     id="path2834" /><path
     style="fill:#112b00;fill-opacity:1;stroke-width:0.0296663"
     d="M 9.8788628,10.605686 V 9.8936959 h 1.1273172 1.127318 v 0.7119901 0.71199 H 11.00618 9.8788628 Z"
     id="path2836" /><path
     style="fill:#112b00;fill-opacity:1;stroke-width:0.0296663"
     d="m 15.29095,10.605686 c 0,-0.399753 0.0042,-0.563288 0.0093,-0.363412 0.0051,0.199877 0.0051,0.526947 0,0.726824 -0.0051,0.199876 -0.0093,0.03634 -0.0093,-0.363412 z"
     id="path2838" /><path
     style="fill:#112b00;fill-opacity:1;stroke-width:0.0296663"
     d="M 13.023486,10.605686 V 9.8936959 h 1.127317 1.127318 v 0.7119901 0.71199 h -1.127318 -1.127317 z"
     id="path2840" /><path
     style="fill:#112b00;fill-opacity:1;stroke-width:0.0296663"
     d="m 13.023486,12.869287 v -0.691289 h 1.127317 1.127318 v 0.593325 0.593325 l -0.09642,0.0016 c -0.05303,9.02e-4 -0.560322,0.04499 -1.127318,0.09796 l -1.030902,0.09632 z"
     id="path2842" /><path
     style="fill:#112b00;fill-opacity:1;stroke-width:0.0296663"
     d="m 16.138443,12.726823 v -0.548825 h 1.127317 1.127318 v 0.453261 0.453261 l -1.090235,0.09671 c -0.599629,0.05319 -1.106922,0.0962 -1.127318,0.09556 -0.02829,-8.77e-4 -0.03708,-0.131305 -0.03708,-0.549975 z"
     id="path2844" /><path
     style="fill:#112b00;fill-opacity:1;stroke-width:0.0296663"
     d="M 16.138443,10.605686 V 9.8936959 h 1.127317 1.127318 v 0.7119901 0.71199 H 17.26576 16.138443 Z"
     id="path2846" /><path
     style="fill:#112b00;fill-opacity:1;stroke-width:0.0296663"
     d="M 16.138443,8.3213844 V 7.6093943 h 1.127317 1.127318 V 8.3213844 9.0333745 H 17.26576 16.138443 Z"
     id="path2848" /><path
     style="fill:#2aff2a;stroke-width:0.0296663"
     d="M 10.694685,23.896599 C 8.4671811,23.631686 6.5039594,22.8496 4.7815159,21.540976 3.7715196,20.773632 2.7793043,19.727035 2.0784324,18.689741 1.0056312,17.101988 0.33158647,15.272154 0.10046882,13.320148 c -0.06309103,-0.532862 -0.06309103,-2.107433 0,-2.640296 C 0.35795644,8.5051269 1.1603563,6.4958955 2.4567977,4.7795386 2.7745174,4.35891 2.9827479,4.1207876 3.4547401,3.6383404 5.3736122,1.6769636 7.7257288,0.50554143 10.53152,0.1138993 c 0.474366,-0.06621358 2.37143,-0.07665051 2.818295,-0.01550519 1.499606,0.20519411 2.703041,0.55921708 3.901112,1.14761849 1.262203,0.6198977 2.302918,1.3782331 3.323492,2.4217208 1.490192,1.52365 2.514368,3.3583984 3.041947,5.4494635 0.125471,0.497307 0.246586,1.1821191 0.293976,1.6622131 0.03923,0.397426 0.03923,2.043755 0,2.44118 -0.23549,2.385678 -1.267687,4.77368 -2.850782,6.595325 -0.509171,0.585896 -1.236635,1.269078 -1.820994,1.710147 -1.641961,1.239339 -3.511477,2.022972 -5.547589,2.325348 -0.75547,0.112192 -2.244118,0.134643 -2.996292,0.04519 z M 8.5626625,20.781482 C 9.3337837,20.40186 9.5141789,19.39968 8.9237626,18.775402 8.8372356,18.683912 8.6930024,18.571116 8.6032451,18.524744 l -0.1631956,-0.08431 4.1384425,-8.9e-4 4.138443,-8.9e-4 -0.163165,0.08974 c -0.226419,0.124533 -0.422225,0.326808 -0.538929,0.556733 -0.09648,0.190085 -0.0989,0.203926 -0.0989,0.567217 0,0.345184 0.0059,0.384292 0.08052,0.535542 0.237086,0.480429 0.687733,0.73594 1.246278,0.706624 0.592981,-0.03112 1.057768,-0.450037 1.155817,-1.041743 0.08703,-0.525216 -0.19543,-1.105416 -0.647677,-1.330387 l -0.152701,-0.07596 0.802873,-0.02117 c 0.70007,-0.01846 0.816846,-0.0283 0.911999,-0.07684 0.212243,-0.108278 0.355051,-0.339212 0.355506,-0.574885 4.96e-4,-0.25569 -0.205097,-0.546552 -0.429995,-0.608336 -0.08438,-0.02318 -1.833142,-0.03265 -6.053524,-0.03277 L 7.2501823,17.132262 7.1169245,17.047753 C 7.0436325,17.001272 6.9408953,16.90924 6.8886195,16.843236 L 6.7935724,16.72323 v -0.653022 -0.653021 l 0.1409147,-0.01783 c 0.077503,-0.0098 1.2088999,-0.111425 2.5142151,-0.22582 5.7680478,-0.5055 9.9999018,-0.883827 10.1236098,-0.905049 l 0.09642,-0.01654 V 10.292846 6.3337454 H 13.235526 6.8023254 L 6.7834698,6.0889988 C 6.7432878,5.5674379 6.5787216,5.1753452 6.259101,4.8396463 5.8945769,4.4567846 5.5257962,4.2889356 4.998764,4.2660083 4.6750588,4.2519264 4.6713135,4.2525369 4.5329044,4.3419276 4.3377147,4.4679902 4.259124,4.6266978 4.2579887,4.8970986 c -7.565e-4,0.1802444 0.010658,0.2272666 0.080954,0.333492 0.1178127,0.1780272 0.2742049,0.2706791 0.5142835,0.3046784 0.2630887,0.037258 0.431744,0.136724 0.5378267,0.3171883 l 0.082371,0.1401262 0.016801,5.4437575 c 0.018328,5.938424 0.00549,5.524544 0.1833173,5.908371 0.2960363,0.63896 0.8530217,0.993918 1.6950545,1.080231 l 0.1745298,0.01789 -0.1579384,0.0902 c -0.7246665,0.413874 -0.8645165,1.414942 -0.2794615,2.000428 0.1403324,0.140436 0.3647558,0.279806 0.5481672,0.340421 0.040791,0.01348 0.216553,0.02055 0.3905817,0.01572 0.2897272,-0.008 0.3334348,-0.01717 0.518187,-0.108122 z"
     id="path887" /><path
     style="fill:#66ff00;stroke-width:0.0296663"
     d="M 6.7639061,8.3213845 V 7.6093944 H 7.8912238 9.0185415 V 8.3213845 9.0333746 H 7.8912238 6.7639061 Z"
     id="path889" /><path
     style="fill:#00ff00;stroke-width:0.0296663;fill-opacity:1"
     d="M 10.902349,23.907156 C 10.605284,23.876932 9.9149451,23.765401 9.5262074,23.684826 6.7009487,23.099227 4.1855253,21.482077 2.4025456,19.105068 1.1876021,17.485346 0.3980729,15.517008 0.12972875,13.438813 0.05842875,12.88663 0.05824554,11.109228 0.12943208,10.561187 0.4040096,8.4473095 1.1981335,6.4908312 2.4680463,4.7995571 3.1385845,3.906532 4.1266336,2.9471312 5.073795,2.2693619 6.4435429,1.289198 7.9436595,0.63896189 9.656366,0.2830144 c 0.861492,-0.17904169 1.017531,-0.19171799 2.3733,-0.19280166 1.230905,-9.8388e-4 1.251727,1.56e-6 1.720643,0.08143158 0.584553,0.10151102 1.178795,0.23300856 1.577466,0.34907131 2.425776,0.70620277 4.553507,2.16261407 6.141382,4.20371617 1.271331,1.6342075 2.081882,3.5785317 2.380571,5.7104432 0.05315,0.37939 0.06127,0.586408 0.06127,1.562173 0,1.228988 -0.02091,1.495186 -0.180865,2.302087 -0.367587,1.854355 -1.20771,3.663649 -2.391552,5.150456 -0.367578,0.461648 -1.308872,1.415193 -1.758856,1.781747 -1.528778,1.245335 -3.258676,2.072121 -5.173542,2.472639 -0.831302,0.173877 -1.103585,0.198386 -2.302354,0.207248 -0.59555,0.0044 -1.136218,0.0026 -1.201483,-0.0041 z M 8.549583,20.802118 C 9.1149393,20.524489 9.3967809,19.915565 9.2394958,19.311548 9.2141728,19.214298 9.1582788,19.074701 9.115287,19.001327 9.01981,18.838377 8.7845065,18.604819 8.6376562,18.527241 c -0.1078576,-0.05698 -0.080663,-0.05738 3.9367998,-0.05869 l 4.045408,-0.0013 -0.183178,0.122321 c -0.178377,0.119116 -0.354129,0.319828 -0.464386,0.530336 -0.04159,0.07941 -0.05706,0.18886 -0.06578,0.465391 -0.01338,0.424442 0.0246,0.577448 0.201922,0.813446 0.250141,0.332906 0.603041,0.501139 1.051232,0.501139 0.303318,0 0.493679,-0.05518 0.726334,-0.210541 0.734837,-0.490705 0.707145,-1.651301 -0.05095,-2.135346 l -0.127865,-0.08164 0.187198,-0.0163 c 0.102959,-0.009 0.439279,-0.02257 0.747379,-0.03024 0.516137,-0.01284 0.570929,-0.01947 0.696885,-0.08429 0.194867,-0.100281 0.308102,-0.272871 0.324096,-0.493971 0.007,-0.09665 -0.0039,-0.225107 -0.02427,-0.286904 -0.05111,-0.154878 -0.248715,-0.361337 -0.381002,-0.398081 -0.07101,-0.01972 -2.13757,-0.03003 -6.043486,-0.03014 L 7.2784047,17.132262 7.139154,17.040027 C 7.0625664,16.989297 6.9532089,16.890806 6.8961375,16.821158 l -0.1037663,-0.126633 0.00802,-0.634036 0.00802,-0.634036 0.8899877,-0.08054 c 0.4894932,-0.0443 2.7122381,-0.241674 4.9394321,-0.438617 2.227194,-0.196943 4.699039,-0.417684 5.492989,-0.490537 0.79395,-0.07285 1.464778,-0.132458 1.490729,-0.132458 0.0429,0 0.04718,-0.360964 0.04718,-3.975278 V 6.3337454 H 13.24859 6.828454 L 6.8125261,6.222497 C 6.803766,6.1613103 6.7879159,6.0311496 6.7773037,5.933251 6.7296389,5.4935395 6.5238809,5.0757615 6.1978805,4.7567701 5.8634329,4.4295133 5.5260182,4.2882557 5.0221893,4.2645698 4.6370756,4.2464654 4.5598348,4.2681138 4.4073553,4.4368901 4.283499,4.5739847 4.2320138,4.7478376 4.2483578,4.9737894 c 0.022275,0.3079464 0.2064893,0.483174 0.6050347,0.5755179 0.271033,0.062799 0.4112111,0.145748 0.5175103,0.3062306 l 0.087688,0.1323847 0.00252,1.8119719 c 0.00567,4.0760885 0.052672,9.0795625 0.086816,9.2414335 0.071711,0.339972 0.3455157,0.753133 0.6521648,0.984093 0.2936203,0.221147 0.8528912,0.411515 1.2116648,0.412435 l 0.1086387,2.67e-4 -0.1483312,0.0851 c -0.599216,0.34379 -0.8171894,1.148593 -0.4759972,1.75748 0.1029885,0.183792 0.3265697,0.393184 0.550757,0.515804 l 0.1922365,0.105144 0.3708281,-0.0083 c 0.3367666,-0.0075 0.3863392,-0.01593 0.5396942,-0.09124 z"
     id="path960" /><path
     style="fill:#66ff00;stroke-width:0.0296663"
     d="M 6.7639061,8.3213845 V 7.6093944 H 7.8912238 9.0185415 V 8.3213845 9.0333746 H 7.8912238 6.7639061 Z"
     id="path962" /><path
     style="fill:#66ff00;stroke-width:0.0296663"
     d="M 9.8788629,8.3213845 V 7.6093944 h 1.1273181 1.127317 V 8.3213845 9.0333746 H 11.006181 9.8788629 Z"
     id="path964" /><path
     style="fill:#66ff00;stroke-width:0.0296663"
     d="M 13.023486,8.3213845 V 7.6093944 h 1.127318 1.127317 v 0.7119901 0.7119901 h -1.127317 -1.127318 z"
     id="path966" /><path
     style="fill:#66ff00;stroke-width:0.0296663"
     d="M 16.138443,8.3213845 V 7.6093944 h 1.127317 1.127318 V 8.3213845 9.0333746 H 17.26576 16.138443 Z"
     id="path968" /><path
     style="fill:#66ff00;stroke-width:0.0296663"
     d="m 16.138443,10.605686 v -0.71199 h 1.127317 1.127318 v 0.71199 0.71199 H 17.26576 16.138443 Z"
     id="path970" /><path
     style="fill:#66ff00;stroke-width:0.0296663"
     d="m 13.023486,10.605686 v -0.71199 h 1.127318 1.127317 v 0.71199 0.71199 h -1.127317 -1.127318 z"
     id="path972" /><path
     style="fill:#66ff00;stroke-width:0.0296663"
     d="m 9.8788629,10.605686 v -0.71199 h 1.1273181 1.127317 v 0.71199 0.71199 H 11.006181 9.8788629 Z"
     id="path974" /><path
     style="fill:#66ff00;stroke-width:0.0296663"
     d="m 6.7639061,10.605686 v -0.71199 h 1.1273177 1.1273177 v 0.71199 0.71199 H 7.8912238 6.7639061 Z"
     id="path978" /><path
     style="fill:#66ff00;stroke-width:0.0296663"
     d="m 6.7639061,13.140753 v -0.962755 h 1.1273177 1.1273177 v 0.857713 0.857714 l -0.1112485,0.01716 c -0.061187,0.0094 -0.5050679,0.05035 -0.9864029,0.09093 -0.481335,0.04058 -0.9385662,0.08012 -1.0160693,0.08788 l -0.1409147,0.01411 z"
     id="path980" /><path
     style="fill:#66ff00;stroke-width:0.0296663"
     d="m 9.8979855,13.427665 c -0.010517,-0.2193 -0.019123,-0.590189 -0.019123,-0.824197 v -0.42547 h 1.1273185 1.127317 v 0.724039 0.724039 l -0.140914,0.01796 c -0.0775,0.0099 -0.534735,0.05111 -1.01607,0.09164 -0.481335,0.04053 -0.916611,0.07752 -0.96728,0.0822 l -0.092126,0.0085 z"
     id="path982" /><path
     style="fill:#66ff00;stroke-width:0.0296663"
     d="m 13.023486,12.860322 v -0.682324 h 1.127318 1.127317 v 0.593325 0.593325 l -0.155748,3.44e-4 c -0.08566,1.89e-4 -0.576267,0.04008 -1.090234,0.08865 -0.513968,0.04857 -0.951175,0.08846 -0.97157,0.08865 -0.0286,2.66e-4 -0.03708,-0.155714 -0.03708,-0.681979 z"
     id="path984" /><path
     style="fill:#66ff00;stroke-width:0.0296663;fill-opacity:1"
     d="m 16.157481,12.979973 c -0.0103,-0.155549 -0.0188,-0.399627 -0.01889,-0.542396 l -1.53e-4,-0.259579 h 1.127317 1.127318 v 0.441625 0.441625 l -0.126082,0.01765 c -0.06934,0.0097 -0.526576,0.05131 -1.016069,0.09245 -0.489493,0.04114 -0.931551,0.07854 -0.982351,0.08312 l -0.09236,0.0083 z"
     id="path986" /><path
     style="fill:#00ff00;fill-opacity:1;stroke-width:0.0209772"
     d="M 6.7756388,8.3279524 V 7.6252158 H 7.8979196 9.0202003 V 8.3279524 9.0306889 H 7.8979196 6.7756388 Z"
     id="path1722" /><path
     style="fill:#00ff00;fill-opacity:1;stroke-width:0.0209772"
     d="M 6.7756388,10.614468 V 9.9117317 H 7.887431 8.9992231 v 0.7027363 0.702737 H 7.887431 6.7756388 Z"
     id="path1724" /><path
     style="fill:#00ff00;fill-opacity:1;stroke-width:0.0209772"
     d="M 6.7756388,13.142222 V 12.198248 H 7.887431 8.9992231 v 0.846588 0.846589 l -0.1311076,0.01374 c -0.189365,0.01984 -2.0251007,0.181035 -2.0616891,0.181035 -0.026609,0 -0.030788,-0.128114 -0.030788,-0.943975 z"
     id="path1726" /><path
     style="fill:#00ff00;fill-opacity:1;stroke-width:0.0209772"
     d="m 9.9147197,13.525056 c -0.00708,-0.15864 -0.018973,-0.52207 -0.026423,-0.807622 l -0.013544,-0.519186 h 1.1250373 1.125037 v 0.710337 0.710337 l -0.11013,0.01284 c -0.102169,0.01192 -2.0382846,0.181728 -2.0719624,0.181728 -0.00832,0 -0.020932,-0.129797 -0.028015,-0.288437 z"
     id="path1728" /><path
     style="fill:#00ff00;fill-opacity:1;stroke-width:0.0209772"
     d="M 9.8802659,10.614468 V 9.9117317 h 1.1222811 1.12228 v 0.7027363 0.702737 h -1.12228 -1.1222811 z"
     id="path1730" /><path
     style="fill:#00ff00;fill-opacity:1;stroke-width:0.0209772"
     d="M 9.8802659,8.3279524 V 7.6252158 h 1.1222811 1.12228 v 0.7027366 0.7027365 h -1.12228 -1.1222811 z"
     id="path1732" /><path
     style="fill:#00ff00;fill-opacity:1;stroke-width:0.0209772"
     d="M 13.026847,8.3279524 V 7.6252158 h 1.122281 1.122281 v 0.7027366 0.7027365 h -1.122281 -1.122281 z"
     id="path1734" /><path
     style="fill:#00ff00;fill-opacity:1;stroke-width:0.0209772"
     d="M 13.026847,10.614468 V 9.9117317 h 1.122281 1.122281 v 0.7027363 0.702737 h -1.122281 -1.122281 z"
     id="path1736" /><path
     style="fill:#00ff00;fill-opacity:1;stroke-width:0.0209772"
     d="m 13.052557,13.510497 c -0.007,-0.01133 -0.01687,-0.311224 -0.02193,-0.666427 l -0.0092,-0.645822 h 1.124992 1.124992 v 0.573901 0.573902 l -0.246482,0.0148 c -0.135566,0.0081 -0.631942,0.04978 -1.103059,0.09253 -0.546696,0.0496 -0.861184,0.07027 -0.869311,0.05712 z"
     id="path1738" /><path
     style="fill:#00ff00;fill-opacity:1;stroke-width:0.0209772"
     d="m 16.186033,13.229554 c -0.0075,-0.0121 -0.0196,-0.249089 -0.02694,-0.52665 l -0.01334,-0.504656 h 1.115141 1.115142 v 0.427651 0.427651 l -0.08915,0.01282 c -0.04903,0.0071 -0.471463,0.04566 -0.93873,0.0858 -0.467268,0.04014 -0.916841,0.07892 -0.999052,0.08618 -0.09567,0.0084 -0.154368,0.0053 -0.163068,-0.0088 z"
     id="path1740" /><path
     style="fill:#00ff00;fill-opacity:1;stroke-width:0.0209772"
     d="M 16.152452,10.614468 V 9.9117317 h 1.111792 1.111792 v 0.7027363 0.702737 h -1.111792 -1.111792 z"
     id="path1742" /><path
     style="fill:#00ff00;fill-opacity:1;stroke-width:0.0209772"
     d="M 16.152452,8.3279524 V 7.6252158 h 1.111792 1.111792 v 0.7027366 0.7027365 h -1.111792 -1.111792 z"
     id="path1744" /><path
     style="fill:#102255;stroke-width:0.0419544;fill-opacity:0"
     d="M 10.313898,23.809539 C 8.1700946,23.457931 6.4768793,22.752436 4.8667127,21.539919 2.6646829,19.881705 1.1089336,17.560624 0.44105213,14.937111 0.25466437,14.204958 0.17371884,13.713394 0.11958168,12.984893 0.06484006,12.248258 0.10008831,10.891004 0.1894725,10.293709 0.90099747,5.5390604 4.3661465,1.6709971 8.9985463,0.46035069 10.101002,0.17223131 10.380591,0.13804755 11.816911,0.11576538 c 1.202329,-0.01865218 1.353632,-0.012875 1.883843,0.0719303 2.64685,0.42335424 4.87368,1.54462712 6.709512,3.37843292 1.829315,1.8272958 2.956555,4.0357622 3.377846,6.6178084 0.112622,0.690249 0.12212,2.837668 0.01579,3.569482 -0.269836,1.857109 -1.113057,3.859245 -2.286356,5.428703 -0.359303,0.48062 -1.546957,1.706837 -2.029717,2.095622 -1.356699,1.092601 -2.938589,1.875688 -4.639851,2.296876 -1.079177,0.267176 -1.23588,0.284606 -2.702172,0.300567 -1.16995,0.01273 -1.405453,0.0043 -1.831907,-0.06565 z M 8.5105401,20.829582 C 8.8210435,20.688685 9.0075212,20.509808 9.1539224,20.212426 9.4126822,19.68681 9.312401,19.106781 8.8953175,18.716648 8.7130062,18.546117 8.7033194,18.527705 8.7844554,18.505929 c 0.048897,-0.01312 1.8131786,-0.02412 3.9206266,-0.02443 l 3.831721,-5.73e-4 -0.236556,0.216199 c -0.342049,0.312614 -0.399522,0.448356 -0.399522,0.943607 0,0.492924 0.07328,0.677319 0.378038,0.951328 0.269494,0.242298 0.573805,0.339603 0.97925,0.313122 0.490928,-0.03207 0.819264,-0.245472 1.031679,-0.670553 0.107254,-0.214632 0.128298,-0.306034 0.128298,-0.557229 0,-0.4278 -0.09224,-0.661939 -0.373981,-0.949255 l -0.234358,-0.238999 0.272704,-0.02479 c 0.149987,-0.01363 0.452778,-0.02492 0.67287,-0.02509 0.33209,-2.52e-4 0.431483,-0.01636 0.584257,-0.0947 0.435219,-0.223169 0.456901,-0.823188 0.04087,-1.131202 -0.103961,-0.07697 -0.304539,-0.0804 -6.143047,-0.105073 L 7.2017346,17.08279 6.9950743,16.883596 6.7884139,16.684402 6.8181348,16.082791 c 0.016346,-0.330885 0.041791,-0.612786 0.056544,-0.626444 0.02162,-0.02002 10.1945052,-0.9377 12.1726282,-1.098077 0.288436,-0.02338 0.548029,-0.06108 0.576873,-0.08377 0.04129,-0.03248 0.05244,-0.88313 0.05244,-4.000805 V 6.3141402 H 13.26193 6.8472374 L 6.7966689,5.957901 C 6.6831276,5.1580316 6.1791632,4.523927 5.4989029,4.3250081 5.3727656,4.2881235 5.1177382,4.2583736 4.9276876,4.2583736 c -0.2886766,0 -0.3617491,0.014481 -0.458968,0.090953 -0.3322788,0.2613706 -0.3023564,0.9179627 0.050014,1.0974596 0.064476,0.032844 0.2305068,0.092295 0.3689564,0.1321128 0.1850291,0.053214 0.2934124,0.1162129 0.4090556,0.2377675 l 0.1573291,0.1653713 0.00372,3.6797341 c 0.00205,2.0238531 0.016851,4.5198711 0.0329,5.5467051 l 0.029179,1.866972 0.1150793,0.248795 c 0.2831026,0.612054 0.8588972,1.016592 1.5751661,1.106672 l 0.2308203,0.02903 -0.1723736,0.114018 c -0.3506923,0.231971 -0.588151,0.756686 -0.5425193,1.198813 0.044981,0.435823 0.3260228,0.837146 0.7418393,1.059332 0.2111172,0.112807 0.7915864,0.111402 1.0426534,-0.0025 z"
     id="path2352" /><path
     style="fill:#00d400;fill-opacity:1;stroke-width:0.0419544"
     d="M 6.796616,8.3279523 V 7.6566816 H 7.9084081 9.0202003 V 8.3279523 8.999223 H 7.9084081 6.796616 Z"
     id="path2354" /><path
     style="fill:#00d400;fill-opacity:1;stroke-width:0.0419544"
     d="M 9.9012431,8.3279523 V 7.6566816 h 1.1117919 1.111792 V 8.3279523 8.999223 H 11.013035 9.9012431 Z"
     id="path2356" /><path
     style="fill:#00d400;fill-opacity:1;stroke-width:0.0419544"
     d="M 6.796616,10.614468 V 9.9222203 h 1.0908149 1.0908149 v 0.6922477 0.692248 H 7.8874309 6.796616 Z"
     id="path2358" /><path
     style="fill:#00d400;fill-opacity:1;stroke-width:0.0419544"
     d="m 6.796616,13.155281 v -0.925568 h 1.0908149 1.0908149 v 0.81621 0.816211 l -0.1363518,0.02215 c -0.074994,0.01218 -0.4856224,0.05075 -0.9125087,0.0857 -0.4268862,0.03495 -0.8563946,0.07419 -0.954463,0.08721 l -0.1783063,0.02366 z"
     id="path2360" /><path
     style="fill:#00d400;fill-opacity:1;stroke-width:0.0419544"
     d="m 9.9285959,13.334979 c -0.015044,-0.245876 -0.027353,-0.595147 -0.027353,-0.776157 v -0.329109 h 1.1117921 1.111792 v 0.692248 c 0,0.689813 -3.31e-4,0.692249 -0.0944,0.692599 -0.05192,1.94e-4 -0.490867,0.03779 -0.97544,0.08356 -0.484574,0.04576 -0.930093,0.08336 -0.990042,0.08356 -0.108861,3.52e-4 -0.1090341,-2.19e-4 -0.1363523,-0.446697 z"
     id="path2362" /><path
     style="fill:#00d400;fill-opacity:1;stroke-width:0.0419544"
     d="M 9.9012431,10.614468 V 9.9222203 h 1.1117919 1.111792 v 0.6922477 0.692248 H 11.013035 9.9012431 Z"
     id="path2364" /><path
     style="fill:#00d400;fill-opacity:1;stroke-width:0.0419544"
     d="M 13.047825,10.614468 V 9.9222203 h 1.111792 1.111792 v 0.6922477 0.692248 h -1.111792 -1.111792 z"
     id="path2366" /><path
     style="fill:#00d400;fill-opacity:1;stroke-width:0.0419544"
     d="m 13.075794,13.460376 c -0.01538,-0.01538 -0.02797,-0.298575 -0.02797,-0.629316 v -0.601347 h 1.111792 1.111792 v 0.545408 c 0,0.299974 -0.0047,0.545533 -0.01049,0.545687 -0.0058,1.53e-4 -0.444717,0.03779 -0.97544,0.08363 -1.064241,0.09193 -1.168861,0.09676 -1.209686,0.05594 z"
     id="path2368" /><path
     style="fill:#00d400;fill-opacity:1;stroke-width:0.0419544"
     d="M 13.047825,8.3279523 V 7.6566816 h 1.111792 1.111792 V 8.3279523 8.999223 h -1.111792 -1.111792 z"
     id="path2372" /><path
     style="fill:#00d400;fill-opacity:1;stroke-width:0.0419544"
     d="M 16.152452,8.3279523 V 7.6566816 h 1.111792 1.111792 V 8.3279523 8.999223 h -1.111792 -1.111792 z"
     id="path2374" /><path
     style="fill:#00d400;fill-opacity:1;stroke-width:0.0419544"
     d="M 16.152452,10.614468 V 9.9222203 h 1.111792 1.111792 v 0.6922477 0.692248 h -1.111792 -1.111792 z"
     id="path2376" /><path
     style="fill:#00d400;fill-opacity:1;stroke-width:0.0419544"
     d="m 16.194041,12.957364 c -2e-4,-0.157921 -0.01227,-0.386247 -0.02682,-0.50739 l -0.02646,-0.220261 h 1.117636 1.117636 v 0.397768 c 0,0.378713 -0.0045,0.398708 -0.0944,0.417402 -0.05192,0.0108 -0.453107,0.04933 -0.891531,0.08564 -0.438424,0.0363 -0.886812,0.07679 -0.996417,0.08999 l -0.199284,0.02399 z"
     id="path2378" /><path
     style="fill:#102255;fill-opacity:0;stroke-width:0.0593325"
     d="M 6.8232387,8.3362177 V 7.6835601 H 7.9208901 9.0185416 V 8.3362177 8.9888753 H 7.9208901 6.8232387 Z"
     id="path1028" /><path
     style="fill:#00ff00;fill-opacity:1;stroke-width:0.0593325"
     d="M 6.8232387,8.3362177 V 7.6835601 H 7.9208901 9.0185416 V 8.3362177 8.9888753 H 7.9208901 6.8232387 Z"
     id="path1030" /><path
     style="fill:#00ff00;fill-opacity:1;stroke-width:0.0593325"
     d="M 6.8232387,8.3362177 V 7.6835601 H 7.9208901 9.0185416 V 8.3362177 8.9888753 H 7.9208901 6.8232387 Z"
     id="path1377" /><path
     style="fill:#00ff00;fill-opacity:1;stroke-width:0.0593325"
     d="M 9.9085292,8.3362177 V 7.6835601 h 1.0976518 1.097651 V 8.3362177 8.9888753 H 11.006181 9.9085292 Z"
     id="path1379" /><path
     style="fill:#00ff00;fill-opacity:1;stroke-width:0.0593325"
     d="M 13.053152,8.3362177 V 7.6835601 h 1.097652 1.097651 v 0.6526576 0.6526576 h -1.097651 -1.097652 z"
     id="path1381" /><path
     style="fill:#00ff00;fill-opacity:1;stroke-width:0.0593325"
     d="M 16.197775,8.3362177 V 7.6835601 h 1.067985 1.067986 V 8.3362177 8.9888753 H 17.26576 16.197775 Z"
     id="path1383" /><path
     style="fill:#00ff00;fill-opacity:1;stroke-width:0.0593325"
     d="M 16.197775,10.620519 V 9.9381955 h 1.067985 1.067986 v 0.6823235 0.682324 H 17.26576 16.197775 Z"
     id="path1385" /><path
     style="fill:#00ff00;fill-opacity:1;stroke-width:0.0593325"
     d="M 13.053152,10.620519 V 9.9381955 h 1.097652 1.097651 v 0.6823235 0.682324 h -1.097651 -1.097652 z"
     id="path1387" /><path
     style="fill:#00ff00;fill-opacity:1;stroke-width:0.0593325"
     d="M 9.9085292,10.620519 V 9.9381955 h 1.0976518 1.097651 v 0.6823235 0.682324 H 11.006181 9.9085292 Z"
     id="path1389" /><path
     style="fill:#00ff00;fill-opacity:1;stroke-width:0.0593325"
     d="M 6.8232387,10.620519 V 9.9381955 h 1.0679852 1.0679852 v 0.6823235 0.682324 H 7.8912239 6.8232387 Z"
     id="path1391" /><path
     style="fill:#00ff00;fill-opacity:1;stroke-width:0.0593325"
     d="m 6.8232387,13.142151 v -0.889988 h 1.0679852 1.0679852 v 0.800989 c 0,0.6003 -0.018582,0.801429 -0.074166,0.802745 -0.040791,9.66e-4 -0.4479604,0.04046 -0.9048208,0.08777 -0.4568603,0.0473 -0.9040791,0.08656 -0.9938195,0.08724 l -0.1631644,0.0012 z"
     id="path1393" /><path
     style="fill:#00ff00;fill-opacity:1;stroke-width:0.0593325"
     d="m 9.9473452,13.245983 c -0.020958,-0.269221 -0.038265,-0.602967 -0.03846,-0.741656 l -3.556e-4,-0.252164 h 1.0995944 1.099594 l -0.01678,0.667491 -0.01678,0.667491 -0.771323,0.06974 c -0.424227,0.03835 -0.894188,0.07173 -1.044358,0.07417 l -0.2730347,0.0044 z"
     id="path1395" /><path
     style="fill:#00ff00;fill-opacity:1;stroke-width:0.0593325"
     d="m 13.092367,13.353302 c -0.02157,-0.0562 -0.03921,-0.326954 -0.03921,-0.601665 v -0.499474 h 1.097652 1.097651 v 0.525473 0.525472 l -0.400494,0.03673 c -0.220272,0.0202 -0.696569,0.05449 -1.058437,0.07619 -0.58975,0.03538 -0.662007,0.02888 -0.697157,-0.06273 z"
     id="path1397" /><path
     style="fill:#00ff00;fill-opacity:1;stroke-width:0.0593325"
     d="m 16.197775,12.726823 v -0.47466 h 1.067985 1.067986 v 0.385662 c 0,0.268316 -0.02257,0.386036 -0.07417,0.386894 -0.04079,6.78e-4 -0.44796,0.03994 -0.904821,0.08724 -0.45686,0.04731 -0.904079,0.0868 -0.993819,0.08777 l -0.163165,0.0018 z"
     id="path1399" /></svg>
