<?xml version="1.0" encoding="UTF-8" standalone="no"?>
<svg
   width="24"
   height="24"
   xml:space="preserve"
   overflow="hidden"
   version="1.1"
   id="svg887"
   sodipodi:docname="asda_superstore_green_trolley_pfs_24px.svg"
   inkscape:export-filename="..\Documents\GitHub\MapIcons\asda\asda_green_trolley_24px.svg"
   inkscape:export-xdpi="27.759037"
   inkscape:export-ydpi="27.759037"
   inkscape:version="1.2.2 (732a01da63, 2022-12-09)"
   xmlns:inkscape="http://www.inkscape.org/namespaces/inkscape"
   xmlns:sodipodi="http://sodipodi.sourceforge.net/DTD/sodipodi-0.dtd"
   xmlns="http://www.w3.org/2000/svg"
   xmlns:svg="http://www.w3.org/2000/svg"><sodipodi:namedview
     id="namedview889"
     pagecolor="#505050"
     bordercolor="#eeeeee"
     borderopacity="1"
     inkscape:showpageshadow="0"
     inkscape:pageopacity="0"
     inkscape:pagecheckerboard="0"
     inkscape:deskcolor="#505050"
     showgrid="false"
     inkscape:zoom="2.8578898"
     inkscape:cx="-37.440212"
     inkscape:cy="57.559952"
     inkscape:window-width="1920"
     inkscape:window-height="974"
     inkscape:window-x="401"
     inkscape:window-y="1717"
     inkscape:window-maximized="1"
     inkscape:current-layer="svg887" /><defs
     id="defs869"><clipPath
       id="clip0"><rect
         x="299"
         y="212"
         width="83"
         height="83"
         id="rect857" /></clipPath><clipPath
       id="clip1"><rect
         x="308"
         y="221"
         width="70"
         height="70"
         id="rect860" /></clipPath><clipPath
       id="clip2"><rect
         x="308"
         y="221"
         width="70"
         height="70"
         id="rect863" /></clipPath><clipPath
       id="clip3"><rect
         x="308"
         y="221"
         width="70"
         height="70"
         id="rect866" /></clipPath></defs><g
     clip-path="url(#clip0)"
     transform="matrix(0.28915663,0,0,0.28915663,-86.457831,-61.301205)"
     id="g885"><path
       id="path142"
       style="fill:#0383ed;stroke-width:1.00845"
       d="m 23.999999,12.030927 a 12,12 0 0 1 -11.998234,12 A 12,12 0 0 1 -4.339867e-7,12.034458 12,12 0 0 1 11.994702,0.03092787 12,12 0 0 1 23.999997,12.023863"
       transform="matrix(3.4583333,0,0,3.4583333,299,212)" /><path
       d="m 310.83676,253.5 c 0,-16.38268 13.28056,-29.66323 29.66324,-29.66323 16.38268,0 29.66322,13.28055 29.66322,29.66323 0,16.38268 -13.28054,29.66323 -29.66322,29.66323 -16.38268,0 -29.66324,-13.28055 -29.66324,-29.66323 z"
       fill="#287d3e"
       fill-rule="evenodd"
       id="path871"
       style="stroke-width:0.714777" /><g
       clip-path="url(#clip1)"
       id="g883"
       transform="matrix(0.74863042,0,0,0.71402612,85.708123,71.066324)"><g
         clip-path="url(#clip2)"
         id="g881"><g
           clip-path="url(#clip3)"
           id="g879"><path
             d="m 330.281,243.281 h -7.906 v -5.031 h 7.906 z m 10.782,-5.031 v 5.031 h -7.907 v -5.031 z m 10.781,0 v 5.031 h -7.906 v -5.031 z m 10.781,0 v 5.031 h -7.906 v -5.031 z m 0,12.938 h -7.906 v -5.032 h 7.906 z m 0,6.109 -7.906,0.719 v -3.953 h 7.906 z m -32.344,-3.234 v 6.109 l -7.906,0.719 v -6.828 z m 0,-2.875 h -7.906 v -5.032 h 7.906 z m 10.782,0 h -7.907 v -5.032 h 7.907 z m 2.875,0 v -5.032 h 7.906 v 5.032 z m -2.875,8.05 -7.907,0.718 v -5.893 h 7.907 z m 2.875,-5.175 h 7.906 v 4.168 l -7.906,0.719 z m 23,7.187 v -27.312 h -44.563 v -0.719 c 0,-3.594 -2.875,-6.469 -6.469,-6.469 -1.222,0 -2.156,0.934 -2.156,2.156 0,1.222 0.934,2.157 2.156,2.157 1.222,0 2.156,0.934 2.156,2.156 v 35.937 c 0,3.594 2.876,6.469 6.469,6.469 h 2.157 31.625 6.468 c 1.222,0 2.157,-0.934 2.157,-2.156 0,-1.222 -0.935,-2.156 -2.157,-2.156 h -40.25 c -1.222,0 -2.156,-0.935 -2.156,-2.157 v -3.953 z"
             fill="#ffffff"
             id="path873" /><path
             d="m 331,279.938 c 0,2.381 -1.931,4.312 -4.312,4.312 -2.382,0 -4.313,-1.931 -4.313,-4.312 0,-2.382 1.931,-4.313 4.313,-4.313 2.381,0 4.312,1.931 4.312,4.313 z"
             fill="#ffffff"
             id="path875" /><path
             d="m 362.625,279.938 c 0,2.381 -1.931,4.312 -4.312,4.312 -2.382,0 -4.313,-1.931 -4.313,-4.312 0,-2.382 1.931,-4.313 4.313,-4.313 2.381,0 4.312,1.931 4.312,4.313 z"
             fill="#ffffff"
             id="path877" /></g></g></g></g><path
     style="fill:#112b00;fill-opacity:1;stroke-width:0.0618557"
     d="M 11.103093,20.502833 C 7.2636579,20.033802 4.2601797,17.2197 3.5794903,13.453608 c -0.1412486,-0.781494 -0.1412486,-2.125722 0,-2.907216 0.6431636,-3.5584694 3.4084323,-6.3237381 6.9669017,-6.9669017 0.781494,-0.1412486 2.125722,-0.1412486 2.907216,0 3.549702,0.6415788 6.325323,3.4172002 6.966902,6.9669017 0.141248,0.781494 0.141248,2.125722 0,2.907216 -0.562346,3.111321 -2.757446,5.649565 -5.751356,6.65042 -1.097871,0.367015 -2.522294,0.526313 -3.566061,0.398805 z M 9.4958104,17.85454 c 0.6133116,-0.325914 0.6725856,-1.211558 0.1042794,-1.558075 l -0.1980279,-0.120744 3.0618561,0.0022 c 2.70438,0.002 3.042656,0.01267 2.897408,0.09156 -0.397904,0.21612 -0.547386,0.845579 -0.297961,1.254685 0.137525,0.225567 0.541086,0.44134 0.829477,0.443499 0.09983,7.48e-4 0.302561,-0.05725 0.450522,-0.128873 0.301343,-0.145877 0.512306,-0.476209 0.512306,-0.802182 0,-0.248791 -0.209565,-0.623555 -0.422591,-0.755718 -0.160437,-0.09954 -0.147907,-0.102437 0.449533,-0.104037 0.544573,-0.0015 0.630875,-0.01696 0.757731,-0.13614 0.183489,-0.172378 0.187324,-0.46001 0.0087,-0.650179 L 17.514518,15.247423 H 12.976097 8.4376758 L 8.2858482,15.095595 c -0.1343706,-0.13437 -0.1518275,-0.205491 -0.1518275,-0.618557 0,-0.442816 0.00713,-0.466722 0.1391753,-0.466599 0.1897184,1.85e-4 8.918068,-0.733101 9.247423,-0.776885 l 0.262886,-0.03495 V 10.357035 7.515464 H 12.958763 8.1340207 L 8.1326622,7.3144331 C 8.1282675,6.6640921 7.4355514,6.0309279 6.7284376,6.0309279 c -0.4159093,0 -0.6748483,0.5175067 -0.3976418,0.7947132 0.062866,0.062866 0.2283578,0.1325394 0.3677608,0.1548308 0.4707159,0.07527 0.4457734,-0.160971 0.4457734,4.2221041 v 3.907009 l 0.1728384,0.33085 c 0.2049492,0.392318 0.6029987,0.671031 1.0265218,0.718768 l 0.2766844,0.03119 -0.189732,0.159649 c -0.2021795,0.170122 -0.3584776,0.475592 -0.3584776,0.70061 0,0.0754 0.057084,0.255016 0.1268524,0.399139 0.2224652,0.459552 0.8343058,0.650518 1.296793,0.404752 z"
     id="path1170" /><path
     style="fill:#112b00;fill-opacity:1;stroke-width:0.00773196"
     d="M 8.1146908,8.9574743 V 8.4394331 H 8.9652063 9.8157218 V 8.9574743 9.4755156 H 8.9652063 8.1146908 Z"
     id="path1172" /><path
     style="fill:#112b00;fill-opacity:1;stroke-width:0.00773196"
     d="m 8.1146908,10.588918 v -0.518042 h 0.8505155 0.8505155 v 0.518042 0.518041 H 8.9652063 8.1146908 Z"
     id="path1174" /><path
     style="fill:#112b00;fill-opacity:1;stroke-width:0.00773196"
     d="m 8.1146908,12.41035 v -0.700298 h 0.8505155 0.8505155 v 0.626288 c 0,0.429029 -0.00254,0.626289 -0.00805,0.626289 -0.013885,0 -1.6096548,0.138442 -1.6523849,0.143354 l -0.040593,0.0047 z"
     id="path1176" /><path
     style="fill:#112b00;fill-opacity:1;stroke-width:0.00773196"
     d="m 10.449742,12.313701 v -0.603649 h 0.850516 0.850515 v 0.529639 c 0,0.291301 -0.0026,0.529642 -0.0058,0.529645 -0.01237,1.5e-5 -1.616337,0.138996 -1.654639,0.143374 l -0.04059,0.0046 z"
     id="path1178" /><path
     style="fill:#112b00;fill-opacity:1;stroke-width:0.00773196"
     d="m 10.449742,10.588918 v -0.518042 h 0.850516 0.850515 v 0.518042 0.518041 h -0.850515 -0.850516 z"
     id="path1180" /><path
     style="fill:#112b00;fill-opacity:1;stroke-width:0.00773196"
     d="M 10.449742,8.9574743 V 8.4394331 h 0.850516 0.850515 v 0.5180412 0.5180413 h -0.850515 -0.850516 z"
     id="path1182" /><path
     style="fill:#112b00;fill-opacity:1;stroke-width:0.00773196"
     d="M 12.784794,8.9574743 V 8.4394331 h 0.850515 0.850516 v 0.5180412 0.5180413 h -0.850516 -0.850515 z"
     id="path1184" /><path
     style="fill:#112b00;fill-opacity:1;stroke-width:0.00773196"
     d="m 12.784794,10.588918 v -0.518042 h 0.850515 0.850516 v 0.518042 0.518041 h -0.850516 -0.850515 z"
     id="path1186" /><path
     style="fill:#112b00;fill-opacity:1;stroke-width:0.00773196"
     d="M 15.112114,8.9574743 V 8.4394331 h 0.854381 0.854381 v 0.5180412 0.5180413 h -0.854381 -0.854381 z"
     id="path1188" /><path
     style="fill:#112b00;fill-opacity:1;stroke-width:0.00773196"
     d="m 15.112114,10.588918 v -0.518042 h 0.854381 0.854381 v 0.518042 0.518041 h -0.854381 -0.854381 z"
     id="path1190" /><path
     style="fill:#112b00;fill-opacity:1;stroke-width:0.00773196"
     d="m 15.112114,12.112114 v -0.402062 h 0.854381 0.854381 v 0.327717 0.327717 l -0.04059,0.0048 c -0.04385,0.0052 -1.642874,0.1439 -1.658641,0.1439 -0.0074,0 -0.0095,-0.08861 -0.0095,-0.402061 z"
     id="path1192" /><path
     style="fill:#112b00;fill-opacity:1;stroke-width:0.00773196"
     d="m 12.784794,12.208763 v -0.498711 h 0.850515 0.850516 v 0.424498 0.424499 l -0.04446,0.0048 c -0.03928,0.0043 -1.642677,0.143584 -1.652632,0.143584 -0.0022,0 -0.0039,-0.22442 -0.0039,-0.498711 z"
     id="path1194" /><path
     style="fill:#66ff00;stroke-width:0.0618557"
     d="M 10.670103,20.409905 C 9.3841405,20.169434 8.321796,19.74228 7.2371136,19.02955 6.5668457,18.589126 5.392464,17.421244 4.957836,16.762887 4.3036071,15.771888 3.8056727,14.54762 3.61715,13.466551 3.4976,12.781001 3.4976,11.219 3.61715,10.53345 3.8948053,8.9412558 4.6985122,7.3703524 5.8597887,6.1500495 7.0699662,4.8783601 8.6361953,4.0106069 10.391753,3.6391614 c 0.737012,-0.155939 2.479483,-0.155939 3.216495,0 1.717392,0.3633703 3.116762,1.1202158 4.365051,2.3608248 1.278335,1.2704719 2.115062,2.8447344 2.409551,4.5334638 0.119551,0.68555 0.119551,2.247551 0,2.933101 -0.295481,1.694418 -1.126909,3.258712 -2.409551,4.533464 -1.244366,1.236709 -2.592466,1.967501 -4.293403,2.327408 -0.802282,0.169758 -2.320565,0.211367 -3.009793,0.08248 z M 9.566787,17.839128 c 0.2422075,-0.149693 0.453832,-0.52153 0.453832,-0.797413 0,-0.273674 -0.1430637,-0.57634 -0.3480342,-0.736301 l -0.1777392,-0.13871 1.6028174,0.03521 c 0.881549,0.01936 2.184255,0.0352 2.894901,0.0352 h 1.292083 l -0.159888,0.209623 c -0.352923,0.462707 -0.237616,1.109132 0.246375,1.381211 0.947279,0.532516 1.966928,-0.568902 1.26586,-1.367373 l -0.181646,-0.206885 0.286114,-0.03921 c 0.157363,-0.02157 0.405466,-0.03922 0.551342,-0.03922 0.451467,0 0.666395,-0.417834 0.393429,-0.764854 L 17.558032,15.247423 H 13.021628 8.4852241 L 8.3224401,15.053965 C 8.1770055,14.881126 8.1615862,14.816989 8.1777663,14.452183 l 0.01811,-0.408324 1.7319588,-0.137553 c 3.1076789,-0.246813 7.6675999,-0.643234 7.7783509,-0.676218 0.101054,-0.0301 0.108247,-0.221052 0.108247,-2.873431 V 7.5154641 H 12.989691 8.1649487 L 8.1635902,7.3144332 C 8.1605879,6.8701431 7.7444531,6.3187826 7.2590628,6.1159736 7.0232661,6.0174515 6.5984369,6.0042391 6.4374069,6.0904197 6.2842764,6.1723727 6.1632456,6.4902719 6.2116895,6.683288 c 0.041278,0.1644643 0.3427398,0.3373307 0.5882714,0.3373307 0.2764086,0 0.2808047,0.059467 0.3134413,4.2399463 0.029205,3.74096 0.037403,3.971773 0.1471827,4.14433 0.2957905,0.464936 0.7288517,0.770363 1.0922865,0.770363 h 0.1928512 l -0.2204002,0.257488 c -0.3387894,0.3958 -0.3536492,0.817267 -0.041939,1.189513 0.3013433,0.359865 0.8908507,0.45948 1.2834036,0.216869 z"
     id="path954" /><path
     style="fill:#66ff00;stroke-width:0.0218693"
     d="M 8.1353731,8.9554712 V 8.4524777 H 8.9664058 9.7974385 V 8.9554712 9.4584647 H 8.9664058 8.1353731 Z"
     id="path1436" /><path
     style="fill:#66ff00;stroke-width:0.0218693"
     d="m 8.1353731,10.584733 v -0.513928 h 0.8310327 0.8310327 v 0.513928 0.513928 H 8.9664058 8.1353731 Z"
     id="path1438" /><path
     style="fill:#66ff00;stroke-width:0.0218693"
     d="m 8.1353731,12.399883 v -0.688882 h 0.8310327 0.8310327 v 0.623274 c 0,0.484016 -0.00611,0.623285 -0.027337,0.623321 -0.015035,2.5e-5 -0.357016,0.02945 -0.7599575,0.0654 -0.4029416,0.03594 -0.7646048,0.06545 -0.8036962,0.06556 l -0.071075,2.09e-4 z"
     id="path1440" /><path
     style="fill:#66ff00;stroke-width:0.0218693"
     d="m 10.453517,12.311031 v -0.60003 h 0.841967 0.841968 v 0.522343 0.522343 l -0.114814,0.01324 c -0.06315,0.0073 -0.410049,0.03792 -0.770892,0.06809 -0.360843,0.03017 -0.688062,0.05917 -0.727154,0.06445 l -0.07108,0.0096 z"
     id="path1442" /><path
     style="fill:#66ff00;stroke-width:0.0218693"
     d="m 10.453517,10.584733 v -0.513928 h 0.841967 0.841968 v 0.513928 0.513928 h -0.841968 -0.841967 z"
     id="path1444" /><path
     style="fill:#66ff00;stroke-width:0.0218693"
     d="M 10.453517,8.9554712 V 8.4524777 h 0.841967 0.841968 v 0.5029935 0.5029935 h -0.841968 -0.841967 z"
     id="path1446" /><path
     style="fill:#66ff00;stroke-width:0.0218693"
     d="M 12.79353,8.9554712 V 8.4524777 h 0.841968 0.841967 V 8.9554712 9.4584647 H 13.635498 12.79353 Z"
     id="path1448" /><path
     style="fill:#66ff00;stroke-width:0.0218693"
     d="m 12.79353,10.584733 v -0.513928 h 0.841968 0.841967 v 0.513928 0.513928 H 13.635498 12.79353 Z"
     id="path1450" /><path
     style="fill:#66ff00;stroke-width:0.0218693"
     d="m 12.79353,12.20306 v -0.492059 h 0.84244 0.842439 l -0.0059,0.420983 -0.0059,0.420984 -0.787294,0.06956 c -0.433012,0.03826 -0.809437,0.07024 -0.8365,0.07108 l -0.04921,0.0015 z"
     id="path1452" /><path
     style="fill:#66ff00;stroke-width:0.0218693"
     d="m 15.126207,12.255015 c -0.0079,-0.136828 -0.01438,-0.315207 -0.01443,-0.396397 l -10e-5,-0.147617 h 0.852902 0.852902 v 0.323754 0.323753 l -0.716219,0.0607 c -0.39392,0.03339 -0.771231,0.06608 -0.838468,0.07264 l -0.12225,0.01194 z"
     id="path1454" /><path
     style="fill:#66ff00;stroke-width:0.0218693"
     d="m 15.111674,10.584733 v -0.513928 h 0.852902 0.852902 v 0.513928 0.513928 h -0.852902 -0.852902 z"
     id="path1456" /><path
     style="fill:#66ff00;stroke-width:0.0218693"
     d="M 15.111674,8.9554712 V 8.4524777 h 0.852902 0.852902 v 0.5029935 0.5029935 h -0.852902 -0.852902 z"
     id="path1458" /><path
     style="fill:#00ff00;stroke-width:0.0218693"
     d="M 11.339223,20.467553 C 10.740044,20.430763 10.196411,20.323724 9.502693,20.105951 8.8856343,19.912242 8.1794778,19.590692 7.590367,19.235167 7.0474319,18.907509 6.7121902,18.639639 6.1258362,18.064956 5.2686075,17.224789 4.9079953,16.75229 4.4727525,15.898968 3.990981,14.954425 3.6777076,13.976677 3.5828654,13.12157 3.5438987,12.770242 3.5435611,11.203687 3.58238,10.869033 3.7328972,9.5714419 4.3306265,8.1258211 5.1980725,6.9614478 6.4043472,5.3422643 8.1260076,4.204686 10.104681,3.7194312 10.70852,3.5713444 11.356943,3.5176866 12.279602,3.5394541 c 0.991661,0.023395 1.4644,0.1004611 2.308489,0.3763292 1.653438,0.5403822 3.127626,1.6133065 4.235172,3.0823871 0.815178,1.0812762 1.394863,2.4458337 1.570472,3.6968386 0.0538,0.383234 0.07916,1.234383 0.05454,1.830623 -0.03036,0.735341 -0.06998,1.013843 -0.231726,1.6288 -0.476305,1.81088 -1.630373,3.480154 -3.245989,4.695081 -1.175483,0.883953 -2.606719,1.435127 -4.091319,1.575582 -0.336922,0.03187 -1.286158,0.05805 -1.540021,0.04246 z M 9.2531889,17.9655 c 0.3663269,-0.06837 0.6489452,-0.356314 0.7546351,-0.768864 0.07842,-0.306118 -0.092499,-0.736723 -0.3721503,-0.937554 -0.055327,-0.03973 -0.09815,-0.0745 -0.095163,-0.07726 0.00299,-0.0028 0.3252693,0.0038 0.7161833,0.01447 0.390913,0.01072 1.676561,0.02592 2.856995,0.03378 l 2.146245,0.0143 -0.0983,0.133466 c -0.181214,0.246036 -0.246072,0.422511 -0.246521,0.670763 -8.72e-4,0.482906 0.334913,0.845694 0.848155,0.91636 0.399512,0.05501 0.843839,-0.17837 1.018419,-0.534909 0.170688,-0.348591 0.115334,-0.680195 -0.169703,-1.016617 -0.06599,-0.07788 -0.117812,-0.143776 -0.115163,-0.146425 0.017,-0.017 0.355483,-0.05587 0.62915,-0.07225 0.36777,-0.02201 0.468614,-0.05365 0.581763,-0.182517 0.155281,-0.176858 0.143363,-0.398972 -0.03401,-0.633836 l -0.10235,-0.135524 -4.541195,-0.0055 -4.5411953,-0.0055 -0.1123171,-0.134418 C 8.1868047,14.870216 8.1892763,14.87911 8.1957186,14.446279 c 0.00312,-0.209602 0.00822,-0.383647 0.011343,-0.386766 0.00312,-0.0031 0.3253254,-0.03112 0.716014,-0.06223 3.4057154,-0.271143 8.3759154,-0.69688 8.7205764,-0.746986 0.06125,-0.0089 0.101536,-0.02852 0.11667,-0.05679 0.04821,-0.09008 0.06173,-0.782 0.06243,-3.1937785 l 7.16e-4,-2.4876309 H 13.001289 8.1791117 L 8.178788,7.3863502 C 8.1778433,7.0189476 7.966897,6.6131573 7.6339192,6.338206 7.3500509,6.1038062 7.0678186,6.0101077 6.7032769,6.0292412 6.449387,6.042567 6.3740137,6.086145 6.2765499,6.2759592 6.2107807,6.4040465 6.2000643,6.4462184 6.2000074,6.5771714 l -6.56e-5,0.1522721 0.1119819,0.1030203 c 0.1225537,0.1127462 0.3335166,0.1985106 0.4882954,0.1985106 0.065619,0 0.095646,0.012987 0.1294819,0.056002 0.1107047,0.1407385 0.1282907,0.4625389 0.1552931,2.841678 0.038556,3.3971226 0.06604,4.9998286 0.089032,5.1919496 0.025856,0.216051 0.07569,0.319222 0.2566839,0.531412 0.2709252,0.317624 0.5561465,0.48897 0.8810421,0.529285 l 0.1921026,0.02384 -0.1223425,0.142151 c -0.1704209,0.198013 -0.2406519,0.314988 -0.2937062,0.489191 -0.1465178,0.481089 0.1999465,0.997999 0.7486702,1.116983 0.1738,0.03769 0.2651417,0.04032 0.4167128,0.01204 z"
     id="path898" /><path
     style="fill:#00ff00;stroke-width:0.0218693"
     d="M 10.453517,8.9554712 V 8.4524777 h 0.841967 0.841968 v 0.5029935 0.5029935 h -0.841968 -0.841967 z"
     id="path900" /><path
     style="fill:#00ff00;stroke-width:0.0218693"
     d="M 8.1353731,8.9554712 V 8.4524777 H 8.9664059 9.7974386 V 8.9554712 9.4584647 H 8.9664059 8.1353731 Z"
     id="path902" /><path
     style="fill:#00ff00;stroke-width:0.0218693"
     d="m 8.1353731,10.584733 v -0.513928 h 0.8310328 0.8310327 v 0.513928 0.513928 H 8.9664059 8.1353731 Z"
     id="path904" /><path
     style="fill:#00ff00;stroke-width:0.0218693"
     d="m 8.1353731,12.399465 v -0.688464 h 0.8342964 0.8342964 l -0.015652,0.606872 c -0.00861,0.33378 -0.022379,0.612872 -0.0306,0.620204 -0.00822,0.0073 -0.3347861,0.03943 -0.7256995,0.07133 -0.3909134,0.0319 -0.7525767,0.06262 -0.8036961,0.06826 l -0.092944,0.01026 z"
     id="path906" /><path
     style="fill:#00ff00;stroke-width:0.0218693"
     d="m 10.453517,12.301471 v -0.59047 h 0.841967 0.841968 v 0.513511 0.513512 l -0.04921,0.01083 c -0.04532,0.01 -1.545467,0.143689 -1.607392,0.143272 -0.02119,-1.43e-4 -0.02734,-0.132957 -0.02734,-0.590656 z"
     id="path908" /><path
     style="fill:#00ff00;stroke-width:0.0218693"
     d="m 10.453517,10.584733 v -0.513928 h 0.841967 0.841968 v 0.513928 0.513928 h -0.841968 -0.841967 z"
     id="path910" /><path
     style="fill:#00ff00;stroke-width:0.0218693"
     d="M 12.79353,8.9554712 V 8.4524777 h 0.841968 0.841967 V 8.9554712 9.4584647 H 13.635498 12.79353 Z"
     id="path912" /><path
     style="fill:#00ff00;stroke-width:0.0218693"
     d="m 12.79353,10.584733 v -0.513928 h 0.841968 0.841967 v 0.513928 0.513928 H 13.635498 12.79353 Z"
     id="path914" /><path
     style="fill:#00ff00;stroke-width:0.0218693"
     d="m 12.79353,12.198759 v -0.487758 h 0.844701 0.844701 l -0.01367,0.06834 c -0.0075,0.03759 -0.01367,0.223862 -0.01367,0.413943 v 0.345601 l -0.114814,0.01353 c -0.06315,0.0074 -0.437112,0.04066 -0.831033,0.07381 l -0.716219,0.06029 z"
     id="path916" /><path
     style="fill:#00ff00;stroke-width:0.0218693"
     d="m 15.146837,12.382641 c -0.0063,-0.06269 -0.01623,-0.239448 -0.022,-0.392807 l -0.01048,-0.278833 h 0.85156 0.85156 v 0.315764 0.315765 l -0.09294,0.01206 c -0.05112,0.0066 -0.398021,0.03683 -0.770892,0.0671 -0.372872,0.03027 -0.70435,0.0595 -0.73662,0.06498 -0.05632,0.0095 -0.05913,0.0054 -0.07019,-0.104026 z"
     id="path918" /><path
     style="fill:#00ff00;stroke-width:0.0218693"
     d="m 15.111674,10.584733 v -0.513928 h 0.852902 0.852902 v 0.513928 0.513928 h -0.852902 -0.852902 z"
     id="path920" /><path
     style="fill:#00ff00;stroke-width:0.0218693"
     d="M 15.111674,8.9554712 V 8.4524777 h 0.852902 0.852902 v 0.5029935 0.5029935 h -0.852902 -0.852902 z"
     id="path922" /><path
     style="fill:#2ca02c;stroke-width:0.349909"
     d="M 10.322301,20.119359 C 7.9531565,19.594731 5.5909891,17.662689 4.3773879,15.25695 3.5061225,13.529829 3.7511133,9.5493667 4.8365856,7.7961844 5.5480841,6.6470196 5.7216794,6.5442816 6.3202665,6.9181054 c 0.60751,0.3793964 0.6779039,0.8461855 0.6779039,4.4952466 0,3.117135 0.1181414,4.169937 0.5038564,4.490052 0.2771209,0.22999 0.5526739,0.761011 0.6123399,1.180047 0.156132,1.096519 1.8135367,1.075138 1.9698393,-0.02541 0.103362,-0.727782 0.290612,-0.787294 2.477143,-0.787294 2.227894,0 2.363715,0.04575 2.337546,0.787294 -0.02024,0.573713 0.198794,0.819331 0.807417,0.905385 0.883548,0.124927 1.539918,-0.523047 1.271557,-1.255294 -0.08816,-0.240562 0.07095,-0.437386 0.353585,-0.437386 0.282634,0 0.513881,-0.236188 0.513881,-0.524863 0,-0.440625 -0.758136,-0.524862 -4.723765,-0.524862 -3.7678105,0 -4.7237655,-0.09707 -4.7237655,-0.479667 0,-0.489416 0.8743556,-0.636831 6.7357395,-1.135631 l 2.711791,-0.230772 V 10.448992 7.5230332 H 13.32344 8.8015451 L 7.7637566,6.4852448 6.7259682,5.4474563 8.5053601,4.5607479 c 3.2710289,-1.6300223 6.3543619,-1.066202 9.1654699,1.6760039 2.757962,2.6903621 3.36664,5.7998992 1.795676,9.1735222 -1.615618,3.469517 -5.562691,5.502182 -9.144205,4.709085 z"
     id="path981" /><path
     style="fill:#2ca02c;stroke-width:0.0218693"
     d="M 8.1353731,8.9554712 V 8.4524777 H 8.9664059 9.7974386 V 8.9554712 9.4584647 H 8.9664059 8.1353731 Z"
     id="path1054" /><path
     style="fill:#2ca02c;stroke-width:0.0218693"
     d="m 8.1353731,10.584733 v -0.513928 h 0.8310328 0.8310327 v 0.513928 0.513928 H 8.9664059 8.1353731 Z"
     id="path1056" /><path
     style="fill:#2ca02c;stroke-width:0.0218693"
     d="m 10.453517,10.584733 v -0.513928 h 0.841967 0.841968 v 0.513928 0.513928 h -0.841968 -0.841967 z"
     id="path1058" /><path
     style="fill:#2ca02c;stroke-width:0.0218693"
     d="m 8.1353731,12.388949 v -0.677948 h 0.8310328 0.8310327 l -4.329e-4,0.04921 c -0.00161,0.182473 -0.043806,1.161395 -0.05035,1.167938 -0.00972,0.0097 -1.4385794,0.138245 -1.5402078,0.138543 l -0.071075,2.08e-4 z"
     id="path1060" /><path
     style="fill:#ccff00;stroke-width:0.0218693"
     d="m 10.467434,12.653445 c -0.0077,-0.125159 -0.01392,-0.38841 -0.01392,-0.585003 v -0.357441 h 0.841967 0.841968 v 0.513928 c 0,0.28266 -0.006,0.513928 -0.01335,0.513928 -0.0073,0 -0.33456,0.02894 -0.727153,0.06431 -0.392594,0.03537 -0.75921,0.06736 -0.814703,0.07108 l -0.100897,0.0068 z"
     id="path1062" /><path
     style="fill:#00d400"
     d="M 8.1353731,8.9554712 V 8.4524777 H 8.9664059 9.7974386 V 8.9554712 9.4584647 H 8.9664059 8.1353731 Z"
     id="path1133" /><path
     style="fill:#00d400"
     d="M 10.453517,8.9554712 V 8.4524777 h 0.841967 0.841968 v 0.5029935 0.5029935 h -0.841968 -0.841967 z"
     id="path1204" /><path
     style="fill:#00d400"
     d="M 12.79353,8.9554712 V 8.4524777 h 0.841968 0.841967 V 8.9554712 9.4584647 H 13.635498 12.79353 Z"
     id="path1206" /><path
     style="fill:#00d400"
     d="M 15.111674,8.9554712 V 8.4524777 h 0.852902 0.852902 v 0.5029935 0.5029935 h -0.852902 -0.852902 z"
     id="path1208" /><path
     style="fill:#00d400"
     d="m 15.111674,10.584733 v -0.513928 h 0.852902 0.852902 v 0.513928 0.513928 h -0.852902 -0.852902 z"
     id="path1210" /><path
     style="fill:#00d400"
     d="m 12.79353,10.584733 v -0.513928 h 0.841968 0.841967 v 0.513928 0.513928 H 13.635498 12.79353 Z"
     id="path1212" /><path
     style="fill:#00d400"
     d="m 8.1353731,10.584733 v -0.513928 h 0.8310328 0.8310327 v 0.513928 0.513928 H 8.9664059 8.1353731 Z"
     id="path1216" /><path
     style="fill:#00d400"
     d="m 10.453517,10.584733 v -0.513928 h 0.841967 0.841968 v 0.513928 0.513928 h -0.841968 -0.841967 z"
     id="path1218" /><path
     style="fill:#00d400"
     d="m 10.488906,12.779717 c -0.0065,-0.05254 -0.01786,-0.314499 -0.02527,-0.582125 l -0.01346,-0.486591 h 0.84364 0.84364 l -7.2e-5,0.169487 c -4e-5,0.09322 -0.0064,0.322627 -0.01419,0.509798 l -0.01412,0.34031 -0.702031,0.06005 c -0.386117,0.03303 -0.747999,0.06558 -0.804182,0.07233 l -0.102151,0.01227 z"
     id="path1220" /><path
     style="fill:#00d400"
     d="m 8.1353731,12.388613 v -0.677612 h 0.8320237 0.8320237 l -0.010877,0.07108 c -0.00598,0.03909 -0.016639,0.27774 -0.023682,0.53033 -0.015334,0.549908 -0.022013,0.598196 -0.084709,0.612403 -0.025704,0.0058 -0.3272074,0.03505 -0.6700084,0.06494 -0.342801,0.02989 -0.6798613,0.05933 -0.7490229,0.06541 l -0.1257484,0.01107 z"
     id="path1222" /><path
     style="fill:#00d400"
     d="m 12.79353,12.192125 v -0.481124 l 0.8365,-2.5e-5 0.8365,-2.5e-5 -0.0064,0.405654 c -0.0046,0.292292 -0.01379,0.408204 -0.0328,0.414776 -0.02452,0.0085 -1.530542,0.141868 -1.601689,0.141868 -0.02725,0 -0.0321,-0.07274 -0.0321,-0.481124 z"
     id="path1224" /><path
     style="fill:#00d400"
     d="m 15.167579,12.456549 c -0.0068,-0.01093 -0.01872,-0.183153 -0.02659,-0.382712 l -0.01431,-0.362836 h 0.846002 0.846002 l -0.0061,0.311637 -0.0061,0.311637 -0.142151,0.01522 c -0.123462,0.01322 -1.443485,0.126934 -1.473435,0.126934 -0.0061,0 -0.01662,-0.0089 -0.02338,-0.01988 z"
     id="path1226" /><path
     style="fill:#00d400;stroke-width:0.0218693"
     d="m 11.492308,20.269278 c -0.23367,-0.0141 -0.601562,-0.05694 -0.841967,-0.09804 C 8.2613236,19.762783 5.8525295,17.923544 4.5108948,15.483452 4.1584224,14.842395 3.979833,14.169373 3.8928624,13.154373 3.8631903,12.808082 3.8630819,11.766947 3.892679,11.393896 4.0005426,10.034354 4.2933581,8.8410568 4.7164158,8.0369614 4.88475,7.7170127 5.2652097,7.1490823 5.4272605,6.9758496 5.6825257,6.7029703 5.827336,6.676849 6.15763,6.844104 c 0.2725744,0.1380268 0.444898,0.2961391 0.5448008,0.4998714 0.2237939,0.4563835 0.2643434,1.0063207 0.2849146,3.8640316 0.019406,2.695844 0.059886,3.48152 0.2118311,4.111425 0.071273,0.295472 0.144514,0.432856 0.3432244,0.643814 0.2846495,0.302196 0.4663312,0.658205 0.5531247,1.08386 0.054586,0.2677 0.1204201,0.40958 0.2571204,0.55412 0.1881244,0.198914 0.433478,0.298782 0.7340409,0.298782 0.402572,0 0.7439228,-0.199562 0.9060225,-0.529682 0.040476,-0.08243 0.084842,-0.22913 0.1109776,-0.366959 0.08994,-0.474284 0.2229,-0.587474 0.787216,-0.670139 0.308754,-0.04523 2.365342,-0.06727 2.963288,-0.03177 0.565061,0.03356 0.763505,0.07897 0.904185,0.206936 0.102307,0.09306 0.118713,0.158376 0.135309,0.538707 0.01843,0.422372 0.04849,0.531473 0.183704,0.666683 0.160193,0.160193 0.403037,0.24577 0.757891,0.267076 0.739169,0.04438 1.28678,-0.448433 1.198683,-1.078735 -0.0103,-0.07372 -0.02878,-0.160474 -0.04107,-0.19278 -0.01228,-0.03231 -0.02233,-0.09862 -0.02233,-0.147365 0,-0.07342 0.01422,-0.102848 0.08287,-0.1715 0.06595,-0.06595 0.105035,-0.08576 0.191357,-0.097 0.05967,-0.0078 0.145631,-0.01943 0.191036,-0.02591 0.130442,-0.01863 0.278305,-0.131988 0.348561,-0.267223 0.0785,-0.15111 0.08509,-0.338151 0.01505,-0.427196 -0.140969,-0.179214 -0.573563,-0.266233 -1.594301,-0.320705 -0.234548,-0.01252 -1.602471,-0.03155 -3.03983,-0.0423 -2.564038,-0.01917 -3.1804835,-0.03501 -3.7944761,-0.09752 -0.6330438,-0.06445 -0.9353494,-0.168953 -0.9517206,-0.328997 -0.017379,-0.169897 0.045479,-0.261108 0.2479421,-0.359778 0.5451394,-0.265674 2.0225686,-0.436378 8.4620626,-0.977716 l 0.716219,-0.06021 V 10.449015 7.5120986 H 13.323773 8.8022117 L 7.7753975,6.4851101 C 7.2106495,5.9202663 6.7530742,5.4536703 6.7585631,5.4482302 6.7959266,5.4111986 8.8842471,4.39111 9.1285784,4.2905412 10.980765,3.5281654 12.724912,3.4633225 14.4215,4.0937642 c 0.338334,0.1257231 0.941258,0.4177324 1.283191,0.6214783 1.217856,0.7256772 2.490222,1.9272709 3.297368,3.1139607 0.735916,1.0819637 1.149372,2.1851688 1.27293,3.3964938 0.03834,0.375851 0.01382,1.293958 -0.04471,1.674 -0.188893,1.226621 -0.679435,2.510343 -1.349962,3.532783 -1.203125,1.83456 -3.12065,3.164907 -5.265443,3.653075 -0.670137,0.152527 -1.479117,0.22255 -2.12257,0.183723 z"
     id="path1228" /></svg>
