<?xml version="1.0" encoding="UTF-8" standalone="no"?>
<svg
   width="24"
   height="24"
   xml:space="preserve"
   overflow="hidden"
   version="1.1"
   id="svg1010"
   sodipodi:docname="asda_green_basket_pfs_24px.svg"
   inkscape:version="1.2.2 (732a01da63, 2022-12-09)"
   xmlns:inkscape="http://www.inkscape.org/namespaces/inkscape"
   xmlns:sodipodi="http://sodipodi.sourceforge.net/DTD/sodipodi-0.dtd"
   xmlns="http://www.w3.org/2000/svg"
   xmlns:svg="http://www.w3.org/2000/svg"><sodipodi:namedview
     id="namedview1012"
     pagecolor="#505050"
     bordercolor="#eeeeee"
     borderopacity="1"
     inkscape:showpageshadow="0"
     inkscape:pageopacity="0"
     inkscape:pagecheckerboard="0"
     inkscape:deskcolor="#505050"
     showgrid="false"
     inkscape:zoom="11.43156"
     inkscape:cx="-5.423582"
     inkscape:cy="11.984367"
     inkscape:window-width="1920"
     inkscape:window-height="974"
     inkscape:window-x="401"
     inkscape:window-y="1717"
     inkscape:window-maximized="1"
     inkscape:current-layer="g1008" /><defs
     id="defs996"><clipPath
       id="clip0"><rect
         x="545"
         y="209"
         width="83"
         height="83"
         id="rect984" /></clipPath><clipPath
       id="clip1"><rect
         x="552"
         y="214"
         width="70"
         height="70"
         id="rect987" /></clipPath><clipPath
       id="clip2"><rect
         x="552"
         y="214"
         width="70"
         height="70"
         id="rect990" /></clipPath><clipPath
       id="clip3"><rect
         x="552"
         y="214"
         width="70"
         height="70"
         id="rect993" /></clipPath></defs><g
     clip-path="url(#clip0)"
     transform="matrix(0.28915663,0,0,0.28915663,-157.59036,-60.433732)"
     id="g1008"><path
       id="path142"
       style="fill:#8132a8;stroke-width:1.00845"
       d="m 24,12.000001 a 12,12 0 0 1 -11.998234,12 A 12,12 0 0 1 9.6907216e-7,12.003532 12,12 0 0 1 11.994703,1.742268e-6 12,12 0 0 1 23.999998,11.992937"
       transform="matrix(3.4583333,0,0,3.4583333,544.99999,208.99999)" /><path
       d="m 556.97793,250.5 c 0,-16.30472 13.21735,-29.52207 29.52207,-29.52207 16.30471,0 29.52205,13.21735 29.52205,29.52207 0,16.30471 -13.21734,29.52205 -29.52205,29.52205 -16.30472,0 -29.52207,-13.21734 -29.52207,-29.52205 z"
       fill="#cedf00"
       fill-rule="evenodd"
       id="path998"
       style="stroke-width:0.711376" /><g
       clip-path="url(#clip1)"
       id="g1006"
       transform="matrix(0.80770582,0,0,0.80770582,112.78052,49.093291)"><g
         clip-path="url(#clip2)"
         id="g1004"><g
           clip-path="url(#clip3)"
           id="g1002"><path
             d="m 598.791,268.906 0.575,-6.469 h 8.337 l -1.078,6.469 z m -33.494,-6.469 h 8.337 l 0.575,6.469 h -7.762 z m 6.828,-18.687 0.575,6.469 h -9.487 l -1.079,-6.469 z m 13.872,-13.728 c 0.216,-0.216 0.431,-0.216 0.503,-0.216 0.072,0 0.359,0 0.503,0.216 l 9.416,9.343 h -19.838 z m 14.087,23.072 h 9.201 l -1.079,6.468 h -8.625 z m -12.146,6.468 v -6.468 h 9.271 l -0.574,6.468 z m 0,2.875 h 8.481 l -0.575,6.469 h -7.906 z m -2.875,0 v 6.469 h -7.979 l -0.575,-6.469 z m 0,-12.218 h -9.488 L 575,243.75 h 10.063 z m 2.875,-6.469 H 598 l -0.575,6.469 h -9.487 z m -14.519,15.812 h -8.625 l -1.078,-6.468 h 9.2 z m 2.372,-6.468 h 9.272 v 6.468 h -8.769 z m 33.997,-2.875 h -9.416 l 0.575,-6.469 h 9.991 z m -7.332,-10.782 v 0 l -12.362,-12.434 c -0.935,-0.934 -2.228,-1.509 -3.594,-1.509 -1.366,0 -2.587,0.503 -3.522,1.509 l -12.362,12.362 -0.072,0.072 h -13.513 l 5.319,31.41 c 0.216,1.365 1.438,2.372 2.803,2.372 h 42.55 c 1.366,0 2.588,-1.007 2.803,-2.372 l 5.463,-31.41 z"
             fill="#ffffff"
             id="path1000" /></g></g></g></g></svg>
