<?xml version="1.0" encoding="UTF-8" standalone="no"?>
<svg
   width="24"
   height="24"
   xml:space="preserve"
   overflow="hidden"
   version="1.1"
   id="svg58"
   sodipodi:docname="Asda Express.svg"
   xmlns:inkscape="http://www.inkscape.org/namespaces/inkscape"
   xmlns:sodipodi="http://sodipodi.sourceforge.net/DTD/sodipodi-0.dtd"
   xmlns="http://www.w3.org/2000/svg"
   xmlns:svg="http://www.w3.org/2000/svg"><sodipodi:namedview
     id="namedview60"
     pagecolor="#505050"
     bordercolor="#eeeeee"
     borderopacity="1"
     inkscape:showpageshadow="0"
     inkscape:pageopacity="0"
     inkscape:pagecheckerboard="0"
     inkscape:deskcolor="#505050"
     showgrid="false" /><defs
     id="defs44"><clipPath
       id="clip0"><rect
         x="668"
         y="210"
         width="83"
         height="83"
         id="rect32" /></clipPath><clipPath
       id="clip1"><rect
         x="675"
         y="214"
         width="69"
         height="70"
         id="rect35" /></clipPath><clipPath
       id="clip2"><rect
         x="675"
         y="214"
         width="69"
         height="70"
         id="rect38" /></clipPath><clipPath
       id="clip3"><rect
         x="675"
         y="214"
         width="69"
         height="70"
         id="rect41" /></clipPath></defs><g
     clip-path="url(#clip0)"
     transform="matrix(0.28915663,0,0,0.28915663,-193.15663,-60.722892)"
     id="g56"><path
       d="m 668,251.5 c 0,-22.92 18.58,-41.5 41.5,-41.5 22.92,0 41.5,18.58 41.5,41.5 0,22.92 -18.58,41.5 -41.5,41.5 -22.92,0 -41.5,-18.58 -41.5,-41.5 z"
       fill="#cedf00"
       fill-rule="evenodd"
       id="path46" /><g
       clip-path="url(#clip1)"
       id="g54"><g
         clip-path="url(#clip2)"
         id="g52"><g
           clip-path="url(#clip3)"
           id="g50"><path
             d="m 46.7904,53.906 0.575,-6.4687 h 8.3375 L 54.6248,53.906 Z M 13.2968,47.4373 h 8.3375 l 0.575,6.4687 h -7.7625 z m 6.8281,-18.6874 0.575,6.4687 H 11.2125 L 10.1343,28.7499 Z M 33.9967,15.0218 c 0.2157,-0.2156 0.4313,-0.2156 0.5032,-0.2156 0.0718,0 0.3593,0 0.5031,0.2156 l 9.4156,9.3437 H 24.5812 Z m 14.0875,23.0718 h 9.2 l -1.0782,6.4687 h -8.6249 z m -12.1468,6.4687 v -6.4687 h 9.2718 l -0.575,6.4687 z m 0,2.875 h 8.4812 l -0.575,6.4687 h -7.9062 z m -2.875,0 v 6.4687 h -7.9781 l -0.575,-6.4687 z m 0,-12.2187 h -9.4875 l -0.575,-6.4687 h 10.0625 z m 2.875,-6.4687 h 10.0624 l -0.575,6.4687 H 35.9374 Z M 21.4187,44.5623 h -8.625 l -1.0781,-6.4687 h 9.1999 z m 2.3718,-6.4687 h 9.2719 v 6.4687 h -8.7687 z m 33.9968,-2.875 h -9.4156 l 0.575,-6.4687 h 9.9906 z M 50.4561,24.4374 v 0 L 38.0936,12.0031 c -0.9344,-0.9344 -2.2281,-1.5094 -3.5937,-1.5094 -1.3657,0 -2.5875,0.5031 -3.5219,1.5094 L 18.6156,24.3655 18.5437,24.4374 H 5.03123 L 10.35,55.8467 c 0.2156,1.3656 1.4375,2.3718 2.8031,2.3718 h 42.5498 c 1.3656,0 2.5875,-1.0062 2.8031,-2.3718 l 5.4625,-31.4093 z"
             fill="#ffffff"
             transform="matrix(1,0,0,1.00001,675,215)"
             id="path48" /></g></g></g></g></svg>
