<?xml version="1.0" encoding="UTF-8" standalone="no"?>
<svg
   width="24"
   height="24"
   xml:space="preserve"
   overflow="hidden"
   version="1.1"
   id="svg887"
   sodipodi:docname="Asda Green trolley.svg"
   inkscape:export-filename="..\Documents\GitHub\MapIcons\asda\asda_green_trolley_24px.svg"
   inkscape:export-xdpi="27.759037"
   inkscape:export-ydpi="27.759037"
   xmlns:inkscape="http://www.inkscape.org/namespaces/inkscape"
   xmlns:sodipodi="http://sodipodi.sourceforge.net/DTD/sodipodi-0.dtd"
   xmlns="http://www.w3.org/2000/svg"
   xmlns:svg="http://www.w3.org/2000/svg"><sodipodi:namedview
     id="namedview889"
     pagecolor="#505050"
     bordercolor="#eeeeee"
     borderopacity="1"
     inkscape:showpageshadow="0"
     inkscape:pageopacity="0"
     inkscape:pagecheckerboard="0"
     inkscape:deskcolor="#505050"
     showgrid="false" /><defs
     id="defs869"><clipPath
       id="clip0"><rect
         x="299"
         y="212"
         width="83"
         height="83"
         id="rect857" /></clipPath><clipPath
       id="clip1"><rect
         x="308"
         y="221"
         width="70"
         height="70"
         id="rect860" /></clipPath><clipPath
       id="clip2"><rect
         x="308"
         y="221"
         width="70"
         height="70"
         id="rect863" /></clipPath><clipPath
       id="clip3"><rect
         x="308"
         y="221"
         width="70"
         height="70"
         id="rect866" /></clipPath></defs><g
     clip-path="url(#clip0)"
     transform="matrix(0.28915663,0,0,0.28915663,-86.457831,-61.301205)"
     id="g885"><path
       d="m 299,253.5 c 0,-22.92 18.58,-41.5 41.5,-41.5 22.92,0 41.5,18.58 41.5,41.5 0,22.92 -18.58,41.5 -41.5,41.5 -22.92,0 -41.5,-18.58 -41.5,-41.5 z"
       fill="#287d3e"
       fill-rule="evenodd"
       id="path871" /><g
       clip-path="url(#clip1)"
       id="g883"><g
         clip-path="url(#clip2)"
         id="g881"><g
           clip-path="url(#clip3)"
           id="g879"><path
             d="m 330.281,243.281 h -7.906 v -5.031 h 7.906 z m 10.782,-5.031 v 5.031 h -7.907 v -5.031 z m 10.781,0 v 5.031 h -7.906 v -5.031 z m 10.781,0 v 5.031 h -7.906 v -5.031 z m 0,12.938 h -7.906 v -5.032 h 7.906 z m 0,6.109 -7.906,0.719 v -3.953 h 7.906 z m -32.344,-3.234 v 6.109 l -7.906,0.719 v -6.828 z m 0,-2.875 h -7.906 v -5.032 h 7.906 z m 10.782,0 h -7.907 v -5.032 h 7.907 z m 2.875,0 v -5.032 h 7.906 v 5.032 z m -2.875,8.05 -7.907,0.718 v -5.893 h 7.907 z m 2.875,-5.175 h 7.906 v 4.168 l -7.906,0.719 z m 23,7.187 v -27.312 h -44.563 v -0.719 c 0,-3.594 -2.875,-6.469 -6.469,-6.469 -1.222,0 -2.156,0.934 -2.156,2.156 0,1.222 0.934,2.157 2.156,2.157 1.222,0 2.156,0.934 2.156,2.156 v 35.937 c 0,3.594 2.876,6.469 6.469,6.469 h 2.157 31.625 6.468 c 1.222,0 2.157,-0.934 2.157,-2.156 0,-1.222 -0.935,-2.156 -2.157,-2.156 h -40.25 c -1.222,0 -2.156,-0.935 -2.156,-2.157 v -3.953 z"
             fill="#ffffff"
             id="path873" /><path
             d="m 331,279.938 c 0,2.381 -1.931,4.312 -4.312,4.312 -2.382,0 -4.313,-1.931 -4.313,-4.312 0,-2.382 1.931,-4.313 4.313,-4.313 2.381,0 4.312,1.931 4.312,4.313 z"
             fill="#ffffff"
             id="path875" /><path
             d="m 362.625,279.938 c 0,2.381 -1.931,4.312 -4.312,4.312 -2.382,0 -4.313,-1.931 -4.313,-4.312 0,-2.382 1.931,-4.313 4.313,-4.313 2.381,0 4.312,1.931 4.312,4.313 z"
             fill="#ffffff"
             id="path877" /></g></g></g></g></svg>
