<?xml version="1.0" encoding="UTF-8" standalone="no"?><!-- Generator: Gravit.io --><svg xmlns="http://www.w3.org/2000/svg" xmlns:xlink="http://www.w3.org/1999/xlink" style="isolation:isolate" viewBox="0 0 24 24" width="24pt" height="24pt"><defs><clipPath id="_clipPath_vMxd38Ot0K67Z4jJELBoVf2Xtps1lTBa"><rect width="24" height="24"/></clipPath></defs><g clip-path="url(#_clipPath_vMxd38Ot0K67Z4jJELBoVf2Xtps1lTBa)"><clipPath id="_clipPath_kuqWkpefUBxhL2AxGcHHN6znsXg1dutB"><rect x="0" y="0" width="24" height="24" transform="matrix(1,0,0,1,0,0)" fill="rgb(255,255,255)"/></clipPath><g clip-path="url(#_clipPath_kuqWkpefUBxhL2AxGcHHN6znsXg1dutB)"><g><path d=" M 18.593 16.825 C 20.37 15.006 21.563 12.624 21.563 9.901 C 21.563 4.623 17.278 0.338 12 0.338 C 6.722 0.338 2.438 4.623 2.438 9.901 C 2.438 12.657 3.526 14.954 5.474 16.888 L 5.473 16.888 L 11.611 23.662 L 18.605 16.825 L 18.593 16.825 Z " fill="rgb(135,195,143)"/></g></g><clipPath id="_clipPath_8CS0KooqUmtsOfRfWqIpOUiMkct2szdO"><rect x="0" y="0" width="24" height="24" transform="matrix(1,0,0,1,0,0)" fill="rgb(255,255,255)"/></clipPath><g clip-path="url(#_clipPath_8CS0KooqUmtsOfRfWqIpOUiMkct2szdO)"><g><clipPath id="_clipPath_Vq8rNd1LCYyjm83M4S2hZ3TK2nDFnqNH"><rect x="0" y="0" width="24" height="24" transform="matrix(1,0,0,1,0,0)" fill="rgb(255,255,255)"/></clipPath><g clip-path="url(#_clipPath_Vq8rNd1LCYyjm83M4S2hZ3TK2nDFnqNH)"><g><g><g><g><path d=" M 16.915 10.429 L 17.373 8.906 L 17.831 10.429 L 16.915 10.429 L 16.915 10.429 L 16.915 10.429 Z  M 13.56 10.93 L 13.278 10.93 L 13.278 8.82 L 13.556 8.82 C 13.979 8.82 14.448 8.997 14.448 9.87 C 14.448 10.644 14.033 10.93 13.56 10.93 Z  M 6.118 10.429 L 6.586 8.887 L 7.046 10.429 L 6.118 10.429 L 6.118 10.429 L 6.118 10.429 Z  M 18.207 7.726 L 16.633 7.726 L 15.733 10.339 C 15.776 10.121 15.782 9.949 15.782 9.872 C 15.782 8.778 15.159 7.726 13.693 7.726 L 12.011 7.726 L 12.014 10.325 C 11.87 9.587 11.2 9.388 10.366 9.133 C 10.053 9.038 9.882 8.884 9.944 8.741 C 9.998 8.616 10.188 8.577 10.421 8.61 C 10.774 8.659 11.057 8.779 11.33 8.928 L 11.702 8.002 C 11.617 7.959 11.015 7.597 10.261 7.597 C 9.206 7.597 8.534 8.112 8.534 8.875 C 8.534 9.554 8.951 9.949 9.716 10.172 C 10.538 10.41 10.747 10.507 10.723 10.746 C 10.7 10.949 10.19 11.2 8.943 10.429 L 8.573 11.199 L 7.426 7.726 L 5.853 7.726 L 4.367 12.044 L 5.608 12.044 L 5.8 11.433 L 7.364 11.433 L 7.549 12.044 L 8.852 12.044 L 8.704 11.622 C 9.144 11.877 9.691 12.111 10.343 12.111 C 11.342 12.111 11.883 11.562 12.013 11.035 L 12.013 12.044 L 13.691 12.044 C 14.692 12.044 15.216 11.564 15.488 11.051 L 15.147 12.044 L 16.386 12.044 L 16.586 11.433 L 18.148 11.433 L 18.328 12.044 L 19.633 12.044 L 18.207 7.726 L 18.207 7.726 L 18.207 7.726 Z " fill="rgb(255,255,255)"/></g></g></g></g></g></g></g></g></svg>