<?xml version="1.0" encoding="UTF-8"?>
<!-- Created with Inkscape (http://www.inkscape.org/) -->
<svg width="2049.5" height="846.41" version="1.1" viewBox="0 0 2049.5 846.41" xmlns="http://www.w3.org/2000/svg">
 <g>
  <path d="m44.479 628.07c4.375 0.885 9.6875 0.885 17.344 0.885 20.312 0 38.281-7.9687 38.281-28.854 0-20.052-17.969-28.021-40.365-28.021h-15.26zm0-88.073h14.688c23.854 0 36.25-9.7396 36.25-24.479 0-15-11.51-22.969-31.823-22.969-10 0-15.625 0.5729-19.115 1.5104zm-44.479-75.729c11.771-2.3437 35.313-4.375 58.021-4.375 27.396 0 44.167 2.6042 58.594 11.146 13.854 7.3958 23.594 20.938 23.594 39.167 0 17.396-10.312 33.594-32.396 42.135v0.573c22.656 5.9375 39.427 23.281 39.427 48.906 0 18.281-8.2292 32.396-20.625 42.135-14.427 11.51-38.594 17.969-78.021 17.969-22.135 0-38.594-1.4583-48.594-2.9166v-194.74" fill="#012169"/>
  <path d="m259.79 571.2c0-10.573-4.7396-29.167-25.052-29.167-19.167 0-26.823 17.396-27.969 29.167zm-52.76 30.625c1.5104 18.854 19.74 27.708 40.677 27.708 15.312 0 27.656-2.0833 39.74-6.1979l5.9375 30.365c-14.792 6.1458-32.708 9.1146-52.135 9.1146-48.906 0-76.927-28.281-76.927-73.646 0-36.51 22.969-76.875 72.76-76.875 46.562 0 64.219 36.25 64.219 71.875 0 7.6563-0.885 14.427-1.4583 17.969l-92.812-0.313" fill="#012169"/>
  <path d="m322.24 561.77c0-17.969-0.573-32.969-1.1979-45.938h38.854l2.0833 20h0.885c5.8854-9.4271 20.313-23.229 44.479-23.229 29.479 0 51.563 19.74 51.563 62.135v85.104h-44.792v-79.792c0-18.594-6.4582-31.25-22.656-31.25-12.396 0-19.74 8.5938-22.969 16.823-1.1979 2.9166-1.5104 7.0312-1.5104 11.198v83.021h-44.74v-98.073" fill="#012169"/>
  <path d="m510.73 496.98c-15 0-24.739-10.625-24.739-23.854 0-13.542 10-23.854 25.364-23.854 15.312 0 24.74 10.313 25 23.854 0 13.229-9.6875 23.854-25.312 23.854zm-57.135 190.89c11.51-0.885 20.938-3.5416 26.51-9.4271 6.4583-6.7708 8.8541-18.281 8.8541-46.823v-115.78h44.74v126.67c0 31.198-6.7708 50.364-20.312 62.76-13.229 12.031-34.167 17.656-55.364 17.656l-4.4271-35.052" fill="#012169"/>
  <path d="m639.48 591.82c-23.594 0-41.875 5.625-41.875 22.708 0 11.458 7.6562 17.031 17.708 17.031 10.886 0 20.313-7.3438 23.281-16.458 0.573-2.3958 0.885-5 0.885-7.6562zm43.281 33.281c0 13.542 0.573 26.823 2.3438 34.792h-40.365l-2.6562-14.479h-0.833c-9.427 11.51-24.167 17.708-41.25 17.708-29.167 0-46.562-21.25-46.562-44.219 0-37.396 33.594-55.052 84.531-55.052v-1.7708c0-7.6563-4.1145-18.542-26.198-18.542-14.74 0-30.364 5-39.792 10.573l-8.2291-28.594c10-5.5729 29.74-12.917 55.99-12.917 48.021 0 63.021 28.281 63.021 62.135v50.365" fill="#012169"/>
  <path d="m706.61 561.77c0-17.969-0.573-32.969-1.1974-45.938h38.021l1.7708 19.74h0.885c6.1978-9.4271 19.167-22.969 43.594-22.969 18.854 0 33.281 9.6875 39.479 24.74h0.573c5.6251-7.6563 11.771-13.594 18.854-17.708 7.9687-4.375 16.771-7.0312 27.396-7.0312 27.708 0 48.594 19.427 48.594 62.448v84.792h-43.594v-78.021c0-20.938-6.7708-33.021-21.198-33.021-10.625 0-17.656 7.0834-20.886 15.625-0.937 3.2292-1.5104 7.6563-1.5104 11.198v84.219h-43.594v-80.677c0-17.969-6.4583-30.365-20.885-30.365-11.51 0-18.281 8.8542-20.938 15.938-1.4582 3.4896-1.7708 7.6563-1.7708 11.458v83.646h-43.594v-98.073" fill="#012169"/>
  <path d="m992.92 659.9h-44.74v-144.06h44.74zm-22.656-162.92c-15.052 0-24.74-10.625-24.74-23.854 0-13.542 10-23.854 25.313-23.854 15.312 0 24.739 10.313 25.052 23.854 0 13.229-9.7396 23.854-25.365 23.854h-0.26" fill="#012169"/>
  <path d="m1017.1 561.77c0-17.969-0.573-32.969-1.1974-45.938h38.906l2.0833 20h0.833c5.9374-9.4271 20.364-23.229 44.479-23.229 29.479 0 51.562 19.74 51.562 62.135v85.104h-44.74v-79.792c0-18.594-6.5104-31.25-22.708-31.25-12.344 0-19.74 8.5938-22.969 16.823-1.1973 2.9166-1.4584 7.0312-1.4584 11.198v83.021h-44.792v-98.073" fill="#012169"/>
  <path d="m1418.6 583.91c-0.885-23.854-1.771-52.448-1.771-81.615h-0.625c-6.4584 25.312-14.688 53.594-22.344 76.875l-24.167 77.448h-35.052l-21.25-76.562c-6.4583-23.594-12.917-51.562-17.917-77.76h-0.625c-0.885 26.823-2.0314 57.448-3.2292 82.187l-3.8022 75.417h-41.562l12.656-198.54h59.792l19.479 66.562c6.4583 22.708 12.344 47.396 16.771 70.677h1.1973c5.3126-22.969 12.083-48.854 18.854-71.25l20.885-65.99h58.906l10.625 198.54h-43.594l-3.2291-75.99" fill="#012169"/>
  <path d="m1555.3 630.99c17.656 0 28.542-17.344 28.542-43.281 0-21.198-8.2292-43.021-28.542-43.021-21.198 0-29.479 21.823-29.479 43.333 0 24.427 10.313 42.969 29.167 42.969zm-0.885 32.136c-42.136 0-74.531-27.708-74.531-74.219 0-46.562 30.625-76.302 77.188-76.302 43.906 0 73.333 30.365 73.333 73.906 0 52.448-37.396 76.615-75.729 76.615h-0.26" fill="#012169"/>
  <path d="m1725.5 630.99c17.656 0 28.542-17.344 28.542-43.281 0-21.198-8.229-43.021-28.542-43.021-21.198 0-29.479 21.823-29.479 43.333 0 24.427 10.313 42.969 29.167 42.969zm-0.885 32.136c-42.135 0-74.531-27.708-74.531-74.219 0-46.562 30.625-76.302 77.188-76.302 43.854 0 73.333 30.365 73.333 73.906 0 52.448-37.396 76.615-75.729 76.615h-0.26" fill="#012169"/>
  <path d="m1816.8 563.28c0-21.25-0.312-35.052-1.1973-47.448h38.333l1.7188 26.823h1.1974c7.3958-21.25 24.74-30.052 38.906-30.052 4.1145 0 6.1459 0.3125 9.4271 0.8855v42.135c-3.8542-0.573-7.3959-1.1979-12.396-1.1979-16.51 0-27.708 8.5417-30.625 22.656-0.573 2.9687-0.885 6.1979-0.885 10.052v72.76h-44.792l0.312-96.615" fill="#012169"/>
  <path d="m2008 571.2c0-10.573-4.6875-29.167-25-29.167-19.167 0-26.823 17.396-28.021 29.167zm-52.708 30.625c1.4583 18.854 19.74 27.708 40.625 27.708 15.313 0 27.708-2.0833 39.792-6.1979l5.8853 30.365c-14.74 6.1458-32.708 9.1146-52.135 9.1146-48.906 0-76.875-28.281-76.875-73.646 0-36.51 22.969-76.875 72.76-76.875 46.51 0 64.219 36.25 64.219 71.875 0 7.6563-0.885 14.427-1.5104 17.969l-92.76-0.313" fill="#012169"/>
  <path d="m834.27 772.86c3.9583 0.99 9.1667 1.4063 15 1.4063 22.188 0 35.365-10.833 35.365-29.844 0-18.802-13.177-27.812-33.229-27.812-7.9687 0-14.01 0.833-17.135 1.4584zm-18.177-67.76c8.75-1.6667 20.26-2.9167 34.844-2.9167 18.021 0 31.146 4.2188 39.531 11.719 7.7084 6.6667 12.552 16.927 12.552 29.479 0 12.76-3.8021 22.76-11.094 30.104-9.6355 10.208-25.26 15.417-43.073 15.417-5.4167 0-10.417-0.208-14.583-1.25v56.458h-18.177v-139.01" fill="#012169"/>
  <path d="m970.31 792.5c-20.104-0.417-42.864 3.125-42.864 22.76 0 12.135 7.9167 17.552 17.136 17.552 13.385 0 21.927-8.3334 24.896-16.927 0.625-1.875 0.833-3.9584 0.833-5.8334zm17.969 27.344c0 8.8021 0.416 17.344 1.4583 24.271h-16.51l-1.6667-12.76h-0.625c-5.4688 7.9167-16.51 15.052-30.938 15.052-20.469 0-30.938-14.427-30.938-29.062 0-24.427 21.719-37.812 60.781-37.604v-2.0833c0-8.3854-2.2918-23.646-22.969-23.438-9.5834 0-19.427 2.7083-26.51 7.5521l-4.1667-12.344c8.3333-5.2083 20.677-8.75 33.386-8.75 31.146 0 38.698 21.094 38.698 41.354v37.812" fill="#012169"/>
  <path d="m1027.8 844.11h-18.385v-101.15h18.385zm-9.6354-119.74c-6.875 0-11.458-5.4687-11.458-11.927 0-6.5105 4.7916-11.719 11.875-11.719 7.1355 0 11.719 5.2083 11.719 11.719 0 6.4583-4.5833 11.927-11.875 11.927h-0.26" fill="#012169"/>
  <path d="m1049.9 770.31c0-10.625-0.208-19.01-0.833-27.344h16.302l1.0933 16.51h0.364c5.0521-9.4271 16.719-18.802 33.438-18.802 14.062 0 35.729 8.3334 35.729 43.021v60.417h-18.385v-58.333c0-16.302-6.0417-30.052-23.385-30.052-11.927 0-21.302 8.5417-24.635 18.802-0.833 2.2917-1.2493 5.625-1.2493 8.5417v61.042h-18.438v-73.802" fill="#012169"/>
  <path d="m1178.9 718.7v24.271h26.354v13.958h-26.354v54.583c0 12.552 3.5416 19.635 13.75 19.635 5.052 0 7.9686-0.417 10.729-1.25l0.781 14.01c-3.5417 1.25-9.1667 2.5-16.25 2.5-8.5937 0-15.469-2.9167-19.896-7.7604-5-5.625-7.0833-14.583-7.0833-26.51v-55.208h-15.677v-13.958h15.677v-18.594l17.969-5.677" fill="#012169"/>
  <path d="m1219.2 825.52c5.6251 3.3333 15.208 7.0833 24.427 7.0833 13.177 0 19.427-6.4583 19.427-15.052 0-8.75-5.2082-13.542-18.594-18.594-18.385-6.6667-26.927-16.51-26.927-28.646 0-16.25 13.333-29.636 34.844-29.636 10.26 0 19.271 2.7084 24.688 6.25l-4.3751 13.177c-4.0104-2.2916-11.302-5.8854-20.677-5.8854-10.885 0-16.771 6.3021-16.771 13.802 0 8.5937 5.8854 12.344 19.062 17.344 17.344 6.5104 26.511 15.312 26.511 30.521 0 17.969-14.011 30.521-37.604 30.521-11.094 0-21.302-2.9167-28.438-7.1354l4.4271-13.75" fill="#012169"/>
  <path d="m1045.1 0-236.82 386.41h473.54l-236.72-386.41" fill="#ba0c2f"/>
  <path d="m1119.6 350h-148.02s-3.4896-0.1563-3.4896-3.4896c0-0.6249 0.469-1.6667 0.469-1.6667l44.479-72.396 24.531 40.052-11.51 18.49h-0.05c-0.312 0.5208-0.521 1.0937-0.521 1.7708 0 1.9271 1.5625 3.4896 3.4896 3.4896h33.333c1.8751 0 3.4375-1.5625 3.4375-3.4896 0-0.6771-0.156-1.25-0.469-1.7708l-0.05-0.052-59.323-96.927-0.521-0.6249c-0.625-0.6249-1.4584-1.0417-2.4479-1.0417-2.1355 0-2.9688 1.6667-2.9688 1.6667l-71.09 115.99h-48.802l119.64-194.74h-0.05c0.57301-1.0937 1.7188-1.8229 3.0729-1.8229 2.0312 0 3.0208 1.8229 3.0208 1.8229l116.88 189.58h0.05c0.26 0.5208 0.416 1.0417 0.416 1.6667 0 1.9271-1.5624 3.4896-3.4895 3.4896z" fill="#fff"/>
  <path d="m1090.8 234.43c-0.625-0.9896-1.7188-1.6667-3.0208-1.6667-2.0313 0-2.9166 1.7188-2.9166 1.7188l-6.9271 11.302-24.375-39.583 31.302-50.938s0.833-1.8229 3.0208-1.8229c1.2493 0 2.3958 0.7292 3.0208 1.7708l119.06 194.79h-48.073z" fill="#fff"/>
  <path d="m2077.4 524.79h3.177c3.6459 0 6.7708-1.3542 6.7708-4.7396 0-2.4479-1.7708-4.8958-6.7708-4.8958-1.4062 0-2.4478 0.104-3.177 0.2084zm0 15.365h-4.4271v-27.76c2.2916-0.3125 4.5312-0.6251 7.8125-0.6251 4.2187 0 6.9791 0.8333 8.6458 2.0833 1.6666 1.1979 2.5521 3.0729 2.5521 5.7292 0 3.6459-2.4479 5.8854-5.4167 6.7709v0.208c2.4479 0.417 4.0626 2.6562 4.6355 6.7187 0.677 4.3229 1.3541 5.9896 1.7708 6.875h-4.6355c-0.677-0.885-1.3541-3.4375-1.8749-7.0833-0.677-3.5417-2.448-4.8438-5.9896-4.8438h-3.0729zm4.6354-35.469c-10.938 0-19.896 9.375-19.896 20.99 0 11.823 8.9582 21.146 20 21.146 11.042 0.104 19.896-9.3229 19.896-21.042 0-11.719-8.8542-21.094-19.896-21.094zm0.107-3.9062c13.594 0 24.427 11.094 24.427 24.896 0 14.062-10.833 25-24.531 25-13.594 0-24.688-10.938-24.688-25 0-13.802 11.094-24.896 24.688-24.896h0.107" display="none" fill="#012169"/>
 </g>
</svg>
