<?xml version="1.0" encoding="UTF-8"?>
<svg version="1.1" xmlns="http://www.w3.org/2000/svg" width="529" height="95">
<path d="M0 0 C174.57 0 349.14 0 529 0 C529 31.35 529 62.7 529 95 C354.43 95 179.86 95 0 95 C0 63.65 0 32.3 0 0 Z " fill="#FDFDFD" transform="translate(0,0)"/>
<path d="M0 0 C3.01307471 2.82013941 5.19071819 5.63966864 7.328125 9.1640625 C7.95517334 10.19104248 8.58222168 11.21802246 9.22827148 12.27612305 C9.89544189 13.38125244 10.5626123 14.48638184 11.25 15.625 C11.95522369 16.78396733 12.66104455 17.94257147 13.36743164 19.10083008 C14.83915863 21.51491937 16.30828452 23.93056442 17.77587891 26.34716797 C20.62449012 31.03231611 23.50566478 35.69719075 26.38574219 40.36303711 C31.45515286 48.5770025 36.51554778 56.79662524 41.5 65.0625 C42.05192017 65.97358521 42.05192017 65.97358521 42.61499023 66.90307617 C45 70.88007549 45 70.88007549 45 72 C15.96 72 -13.08 72 -43 72 C-41.64075003 68.60187508 -40.48023583 65.92733913 -38.63671875 62.875 C-38.16911133 62.09753418 -37.70150391 61.32006836 -37.21972656 60.51904297 C-36.7140918 59.68775879 -36.20845703 58.85647461 -35.6875 58 C-35.15479492 57.11844238 -34.62208984 56.23688477 -34.07324219 55.32861328 C-29.28155611 47.41855055 -24.4155738 39.55473533 -19.53515625 31.69921875 C-15.3998687 25.04058373 -11.29363196 18.36413547 -7.1875 11.6875 C-6.46777499 10.51741441 -5.74804847 9.34732975 -5.02832031 8.17724609 C-3.35197726 5.45164257 -1.67585769 2.72590196 0 0 Z " fill="#E00438" transform="translate(57,10)"/>
<path d="M0 0 C3.96 0 7.92 0 12 0 C12.79201177 2.68739872 13.58361866 5.37491563 14.375 8.0625 C14.59671875 8.81466797 14.8184375 9.56683594 15.046875 10.34179688 C16.3853829 14.88878695 17.70424525 19.44063865 19 24 C19.38091797 22.53240234 19.38091797 22.53240234 19.76953125 21.03515625 C21.62800556 13.93545834 23.56837361 6.93013521 26 0 C29.96 0 33.92 0 38 0 C39.19148936 25.91489362 39.19148936 25.91489362 39 38 C36.36 38 33.72 38 31 38 C30.34 29.75 29.68 21.5 29 13 C28.21625 15.660625 27.4325 18.32125 26.625 21.0625 C26.38217285 21.8862915 26.1393457 22.71008301 25.88916016 23.55883789 C24.57210341 28.03350873 23.27513322 32.51319945 22 37 C19.36 37 16.72 37 14 37 C13.18360682 34.12605502 12.37177859 31.2509487 11.5625 28.375 C11.33240234 27.56675781 11.10230469 26.75851563 10.86523438 25.92578125 C9.6612128 21.6331826 8.62287748 17.42457793 8 13 C7.12489617 18.47859123 6.70975966 23.89857799 6.4375 29.4375 C6.39431641 30.26443359 6.35113281 31.09136719 6.30664062 31.94335938 C6.20161967 33.96209549 6.10041441 35.98102951 6 38 C3.36 38 0.72 38 -2 38 C-2.45508928 25.28278282 -1.10471752 12.65493371 0 0 Z " fill="#0A1846" transform="translate(355,38)"/>
<path d="M0 0 C0.80373047 -0.02900391 1.60746094 -0.05800781 2.43554688 -0.08789062 C7.91595128 -0.14614513 10.94839139 0.69920577 15.3125 4.3125 C17.3125 6.3125 17.3125 6.3125 17.6875 9.0625 C17.22724381 13.05138701 15.71865735 15.15441848 13.3125 18.3125 C14.55 19.3025 14.55 19.3025 15.8125 20.3125 C18.62419202 23.68653043 19.0810725 25.13840217 18.80078125 29.3828125 C17.94879384 32.74986673 16.01198467 34.27288936 13.3125 36.3125 C8.64202769 38.82200751 4.15655011 38.54331713 -1 38.4375 C-1.83595703 38.42847656 -2.67191406 38.41945312 -3.53320312 38.41015625 C-5.58475969 38.38670989 -7.63616777 38.35084266 -9.6875 38.3125 C-9.71214928 33.06144558 -9.73033568 27.81042455 -9.74243164 22.55932617 C-9.74747218 20.77155979 -9.75430454 18.98379755 -9.76293945 17.19604492 C-9.7750173 14.63198832 -9.78073094 12.06798603 -9.78515625 9.50390625 C-9.79031754 8.6997377 -9.79547882 7.89556915 -9.80079651 7.06703186 C-9.80099215 5.14848285 -9.74951983 3.23004632 -9.6875 1.3125 C-7.54146954 -0.83353046 -2.95781505 0.03474332 0 0 Z " fill="#0B1A47" transform="translate(125.6875,37.6875)"/>
<path d="M0 0 C2.375 1.5 2.375 1.5 4 3 C4.61875 2.690625 5.2375 2.38125 5.875 2.0625 C9.08850607 0.45574697 10.75927687 -0.1717412 14.375 0.0625 C15.14585937 0.09472656 15.91671875 0.12695312 16.7109375 0.16015625 C19.45422362 1.16665201 20.75640452 2.51688436 22.25439453 5.0144043 C23.80792602 9.15155938 23.40336345 13.52183737 23.25 17.875 C23.23195313 18.84953125 23.21390625 19.8240625 23.1953125 20.828125 C23.14841734 23.21977807 23.08280907 25.60936597 23 28 C20.36 28 17.72 28 15 28 C14.93941406 26.72382812 14.87882812 25.44765625 14.81640625 24.1328125 C14.73200432 22.46352984 14.64735614 20.79425963 14.5625 19.125 C14.52318359 18.28324219 14.48386719 17.44148438 14.44335938 16.57421875 C14.40146484 15.76855469 14.35957031 14.96289062 14.31640625 14.1328125 C14.26141968 13.01737061 14.26141968 13.01737061 14.20532227 11.87939453 C14.10044135 9.91135688 14.10044135 9.91135688 13 8 C11.35 8 9.7 8 8 8 C6.88176185 10.23647631 6.80603939 11.64891529 6.68359375 14.1328125 C6.64169922 14.93847656 6.59980469 15.74414062 6.55664062 16.57421875 C6.51732422 17.41597656 6.47800781 18.25773437 6.4375 19.125 C6.39431641 19.97449219 6.35113281 20.82398437 6.30664062 21.69921875 C6.20045764 23.79928223 6.09971503 25.89961948 6 28 C3.36 28 0.72 28 -2 28 C-2.33 21.73 -2.66 15.46 -3 9 C-4.65 8.67 -6.3 8.34 -8 8 C-9.54950268 9.54950268 -9.21655193 11.09990594 -9.31640625 13.25390625 C-9.35830078 14.10791016 -9.40019531 14.96191406 -9.44335938 15.84179688 C-9.48267578 16.73962891 -9.52199219 17.63746094 -9.5625 18.5625 C-9.60568359 19.46419922 -9.64886719 20.36589844 -9.69335938 21.29492188 C-9.79978142 23.52978485 -9.90179988 25.76476308 -10 28 C-12.64 28 -15.28 28 -18 28 C-18 19.09 -18 10.18 -18 1 C-15.69 1 -13.38 1 -11 1 C-10.67 1.66 -10.34 2.32 -10 3 C-9.195625 2.2575 -9.195625 2.2575 -8.375 1.5 C-5.31754465 -0.43102443 -3.561827 -0.44522837 0 0 Z " fill="#051443" transform="translate(269,48)"/>
<path d="M0 0 C3.54487613 1.18162538 3.79334171 1.85184676 5.6015625 4.98046875 C6.08786133 5.80885254 6.57416016 6.63723633 7.07519531 7.49072266 C7.84234863 8.82562744 7.84234863 8.82562744 8.625 10.1875 C9.69336126 12.01286219 10.7636892 13.83707466 11.8359375 15.66015625 C12.36670898 16.5639502 12.89748047 17.46774414 13.44433594 18.39892578 C16.30167052 23.17639638 19.37591001 27.80766579 22.453125 32.4453125 C24 35 24 35 24 37 C14.43 37 4.86 37 -5 37 C-4.05825397 33.23301587 -2.95002893 31.00430209 -0.9375 27.75 C-0.38964844 26.85796875 0.15820312 25.9659375 0.72265625 25.046875 C1.14417969 24.37140625 1.56570312 23.6959375 2 23 C5 24 5 24 6.8125 26.8125 C8 30 8 30 7.1875 32.375 C6.795625 32.91125 6.40375 33.4475 6 34 C8.31 34 10.62 34 13 34 C11.21654158 31.01584578 9.4218827 28.03858697 7.625 25.0625 C7.11710937 24.21236328 6.60921875 23.36222656 6.0859375 22.48632812 C5.59609375 21.67744141 5.10625 20.86855469 4.6015625 20.03515625 C4.15119629 19.2862915 3.70083008 18.53742676 3.23681641 17.76586914 C2.10758726 15.85544089 2.10758726 15.85544089 0 15 C-0.22558594 15.64324219 -0.45117188 16.28648438 -0.68359375 16.94921875 C-2.48362256 21.12079887 -4.70552983 24.93406494 -7.0625 28.8125 C-7.50271484 29.60076172 -7.94292969 30.38902344 -8.39648438 31.20117188 C-9.79300566 33.46978241 -10.98644938 35.25063264 -13 37 C-16.11731979 37.66749426 -18.86787502 37.51224516 -22 37 C-20.60690747 33.21066834 -18.8528337 29.95411721 -16.69921875 26.54296875 C-16.05146484 25.51236328 -15.40371094 24.48175781 -14.73632812 23.41992188 C-13.7221582 21.81987305 -13.7221582 21.81987305 -12.6875 20.1875 C-12.02298828 19.13240234 -11.35847656 18.07730469 -10.67382812 16.99023438 C-9.37966157 14.93569696 -8.08397997 12.88211293 -6.78662109 10.82958984 C-4.51212863 7.22732588 -2.25438889 3.61487116 0 0 Z " fill="#FDF7F7" transform="translate(48,39)"/>
<path d="M0 0 C3.60409232 1.5738972 5.50822127 2.87130237 7.81640625 6.1171875 C9.48404451 11.43278444 9.41866198 15.46647986 7.19140625 20.5546875 C5.03528443 24.41773909 3.16206503 26.0170849 -1.18359375 27.3046875 C-6.22005601 27.95270137 -9.98891913 27.86944277 -14.62109375 25.6796875 C-18.55023523 22.03804418 -20.30577078 18.63466283 -20.62109375 13.3046875 C-20.43387044 9.03925209 -18.99365859 6.55844678 -16.18359375 3.3046875 C-11.07911137 -1.1037291 -6.327403 -2.01480811 0 0 Z " fill="#071644" transform="translate(417.18359375,48.6953125)"/>
<path d="M0 0 C4.40617281 2.16303029 7.1644597 4.41114924 9 9 C9.75265197 14.6448898 9.33065686 19.2260585 6 24 C2.30881209 27.50662851 -0.61208793 28.2842571 -5.5625 28.4375 C-9.81207996 28.26451845 -12.74568099 27.94922661 -16 25 C-19.59369874 21.03453932 -19.50304226 16.77604092 -19.3515625 11.66015625 C-18.71323088 6.83011369 -16.41780271 4.25100239 -12.875 1.125 C-8.55651358 -0.56484251 -4.5732948 -0.65960983 0 0 Z " fill="#061543" transform="translate(449,48)"/>
<path d="M0 0 C3.17454605 1.65494746 5.37675639 3.75351278 7 7 C7.08400529 8.59447464 7.10727467 10.19240545 7.09765625 11.7890625 C7.09443359 12.73007812 7.09121094 13.67109375 7.08789062 14.640625 C7.07951172 15.62546875 7.07113281 16.6103125 7.0625 17.625 C7.05798828 18.61757812 7.05347656 19.61015625 7.04882812 20.6328125 C7.03702145 23.0886016 7.020554 25.54427104 7 28 C0.25 28.125 0.25 28.125 -2 27 C-2.66 27.33 -3.32 27.66 -4 28 C-8.25561995 28.50114443 -11.80908635 28.69712018 -15.5625 26.5 C-17.58116502 22.98927822 -17.85603422 19.88685806 -17 16 C-15.125 13.0625 -15.125 13.0625 -12 11 C-8.66487217 10.31769904 -5.39954547 10.07261165 -2 10 C-2.33 9.01 -2.66 8.02 -3 7 C-6.63 7 -10.26 7 -14 7 C-14.33 5.35 -14.66 3.7 -15 2 C-10.22448465 -0.79132235 -5.38801056 -0.78640038 0 0 Z " fill="#071643" transform="translate(239,48)"/>
<path d="M0 0 C3.10637839 2.66261005 4.48006827 4.49922476 4.8203125 8.609375 C4.75520833 10.82291667 4.69010417 13.03645833 4.625 15.25 C-3.79 15.745 -3.79 15.745 -12.375 16.25 C-12.375 16.91 -12.375 17.57 -12.375 18.25 C-9.08980525 19.34506492 -6.63836585 19.34960608 -3.1875 19.3125 C-2.10082031 19.30347656 -1.01414062 19.29445313 0.10546875 19.28515625 C0.93691406 19.27355469 1.76835937 19.26195313 2.625 19.25 C2.955 21.23 3.285 23.21 3.625 25.25 C-2.64983299 27.341611 -9.94241557 27.29852777 -16 24.6875 C-19.42864596 21.16862652 -21.21715136 17.99560965 -21.50390625 13.0078125 C-21.18181105 7.2100989 -19.55341203 4.23406729 -15.375 0.25 C-10.66083762 -3.32626112 -4.91805688 -2.55010357 0 0 Z " fill="#061543" transform="translate(500.375,49.75)"/>
<path d="M0 0 C3.73361769 1.65938564 5.8587935 3.54487133 8 7 C8.38457675 10.38427538 8.13499016 13.58024929 8 17 C2.39 17 -3.22 17 -9 17 C-8.01 18.32 -7.02 19.64 -6 21 C-3.03164137 21.48407934 -3.03164137 21.48407934 0.1875 21.25 C1.27417969 21.21390625 2.36085937 21.1778125 3.48046875 21.140625 C4.31191406 21.09421875 5.14335937 21.0478125 6 21 C6.33 22.98 6.66 24.96 7 27 C1.51161827 28.82946058 -5.6104901 29.2069657 -11.1171875 27.24609375 C-14.1293316 25.33540533 -15.69891838 23.24981276 -17 20 C-17.6842501 14.73286554 -17.63405953 10.31508642 -15.3125 5.5 C-10.68656249 0.49898647 -6.69475638 -1.00489244 0 0 Z " fill="#051342" transform="translate(165,48)"/>
<path d="M0 0 C2.64 0 5.28 0 8 0 C8.33 0.99 8.66 1.98 9 3 C9.515625 2.505 10.03125 2.01 10.5625 1.5 C13.93763128 -0.57700386 16.09800946 -0.47919182 20 0 C22.75329021 1.79562405 24.52627461 3.05254922 26 6 C26.08426094 7.6674606 26.10725143 9.33825187 26.09765625 11.0078125 C26.09443359 11.99394531 26.09121094 12.98007812 26.08789062 13.99609375 C26.07951172 15.02863281 26.07113281 16.06117187 26.0625 17.125 C26.05798828 18.16527344 26.05347656 19.20554687 26.04882812 20.27734375 C26.03701952 22.85161962 26.02055075 25.42578146 26 28 C23.36 28 20.72 28 18 28 C17.97494385 27.42967041 17.9498877 26.85934082 17.92407227 26.27172852 C17.80843451 23.70173843 17.68556376 21.13214473 17.5625 18.5625 C17.52318359 17.66466797 17.48386719 16.76683594 17.44335938 15.84179688 C17.40146484 14.98779297 17.35957031 14.13378906 17.31640625 13.25390625 C17.27974854 12.46314697 17.24309082 11.6723877 17.20532227 10.85766602 C17.19436743 8.98598559 17.19436743 8.98598559 16 8 C13.5 7.83333333 13.5 7.83333333 11 8 C9.45049732 9.54950268 9.78344807 11.09990594 9.68359375 13.25390625 C9.64169922 14.10791016 9.59980469 14.96191406 9.55664062 15.84179688 C9.51732422 16.73962891 9.47800781 17.63746094 9.4375 18.5625 C9.39431641 19.46419922 9.35113281 20.36589844 9.30664062 21.29492188 C9.20022016 23.52975156 9.09957519 25.76485486 9 28 C6.03 28 3.06 28 0 28 C0 18.76 0 9.52 0 0 Z " fill="#0C1A47" transform="translate(309,48)"/>
<path d="M0 0 C2.75329021 1.79562405 4.52627461 3.05254922 6 6 C6.08426094 7.6674606 6.10725143 9.33825187 6.09765625 11.0078125 C6.09443359 11.99394531 6.09121094 12.98007812 6.08789062 13.99609375 C6.07951172 15.02863281 6.07113281 16.06117187 6.0625 17.125 C6.05798828 18.16527344 6.05347656 19.20554687 6.04882812 20.27734375 C6.03701952 22.85161962 6.02055075 25.42578146 6 28 C3.36 28 0.72 28 -2 28 C-2.02505615 27.42967041 -2.0501123 26.85934082 -2.07592773 26.27172852 C-2.19156549 23.70173843 -2.31443624 21.13214473 -2.4375 18.5625 C-2.47681641 17.66466797 -2.51613281 16.76683594 -2.55664062 15.84179688 C-2.59853516 14.98779297 -2.64042969 14.13378906 -2.68359375 13.25390625 C-2.72025146 12.46314697 -2.75690918 11.6723877 -2.79467773 10.85766602 C-2.80563257 8.98598559 -2.80563257 8.98598559 -4 8 C-5.66617115 7.95936168 -7.33388095 7.957279 -9 8 C-10.11823815 10.23647631 -10.19396061 11.64891529 -10.31640625 14.1328125 C-10.35830078 14.93847656 -10.40019531 15.74414062 -10.44335938 16.57421875 C-10.50233398 17.83685547 -10.50233398 17.83685547 -10.5625 19.125 C-10.60568359 19.97449219 -10.64886719 20.82398437 -10.69335938 21.69921875 C-10.79954236 23.79928223 -10.90028497 25.89961948 -11 28 C-13.64 28 -16.28 28 -19 28 C-19 19.09 -19 10.18 -19 1 C-16.69 1 -14.38 1 -12 1 C-11.67 1.66 -11.34 2.32 -11 3 C-10.484375 2.505 -9.96875 2.01 -9.4375 1.5 C-6.06236872 -0.57700386 -3.90199054 -0.47919182 0 0 Z " fill="#031241" transform="translate(197,48)"/>
<path d="M0 0 C2.97 0 5.94 0 9 0 C9.11690073 4.49977884 9.18748837 8.99916287 9.25 13.5 C9.30027344 15.40265625 9.30027344 15.40265625 9.3515625 17.34375 C9.42815999 24.69710934 9.20817429 29.85188721 5 36 C1.45018824 38.42193125 -1.68914967 39 -6 39 C-6.3125 35.6875 -6.3125 35.6875 -6 32 C-5.18313721 31.56582764 -4.36627441 31.13165527 -3.5246582 30.68432617 C-0.68227347 29.20969325 -0.68227347 29.20969325 -0.34057617 25.99731445 C-0.32486572 24.7980835 -0.30915527 23.59885254 -0.29296875 22.36328125 C-0.26396484 21.06455078 -0.23496094 19.76582031 -0.20507812 18.42773438 C-0.19868878 17.05599195 -0.19283628 15.68424693 -0.1875 14.3125 C-0.164358 12.92899702 -0.13899325 11.5455293 -0.11132812 10.16210938 C-0.05230969 6.77445135 -0.01613527 3.38808997 0 0 Z " fill="#0D1A47" transform="translate(209,49)"/>
<path d="M0 0 C3.75556035 1.25185345 4.12481792 2.39226001 6.109375 5.7421875 C6.99496094 7.21945313 6.99496094 7.21945313 7.8984375 8.7265625 C8.50945312 9.76554687 9.12046875 10.80453125 9.75 11.875 C10.95198051 13.89391099 12.15510372 15.91214211 13.359375 17.9296875 C13.95298828 18.92967773 14.54660156 19.92966797 15.15820312 20.95996094 C17.59016505 24.97411654 20.1447172 28.90370268 22.72363281 32.82470703 C24 35 24 35 24 37 C20.80252094 37.68022803 18.17758026 37.84858365 15 37 C11.97464035 33.93788579 10.08919058 30.33541256 8.0625 26.5625 C6.95269423 24.60349576 5.83958194 22.64635982 4.72265625 20.69140625 C4.24578369 19.81685791 3.76891113 18.94230957 3.27758789 18.04125977 C2.1612599 15.86358458 2.1612599 15.86358458 0 15 C-0.33 15.66 -0.66 16.32 -1 17 C-5 11.66666667 -5 11.66666667 -5 9.0625 C-3.48694222 5.94181833 -1.77633157 2.97965296 0 0 Z " fill="#FDF6F6" transform="translate(64,39)"/>
<path d="M0 0 C0 2.64 0 5.28 0 8 C-2.31 8.66 -4.62 9.32 -7 10 C-7.33 15.94 -7.66 21.88 -8 28 C-10.97 28 -13.94 28 -17 28 C-17 19.09 -17 10.18 -17 1 C-14.69 1 -12.38 1 -10 1 C-9.34 1.66 -8.68 2.32 -8 3 C-7.608125 2.505 -7.21625 2.01 -6.8125 1.5 C-4.44908285 -0.45593143 -2.98564997 -0.24207973 0 0 Z " fill="#0B1947" transform="translate(478,48)"/>
<path d="M0 0 C2.97 0 5.94 0 9 0 C9 9.24 9 18.48 9 28 C6.03 28 3.06 28 0 28 C0 18.76 0 9.52 0 0 Z " fill="#12214D" transform="translate(296,48)"/>
<path d="M0 0 C2 2 2 2 2.265625 4.27734375 C2.26046875 5.15519531 2.2553125 6.03304687 2.25 6.9375 C2.25515625 7.81277344 2.2603125 8.68804687 2.265625 9.58984375 C2 12 2 12 0 15 C-2.9375 15.4375 -2.9375 15.4375 -6 15 C-7.875 13.4375 -7.875 13.4375 -9 11 C-9.37415101 6.80950867 -9.44561026 3.53254815 -7 0 C-4.29393021 -1.35303489 -2.8671629 -0.7884698 0 0 Z " fill="#F3F4F5" transform="translate(447,55)"/>
<path d="M0 0 C2.5 0.5 2.5 0.5 4.3125 2 C5.9971479 5.54662716 6.07735621 8.64041327 5.5 12.5 C4.3125 15 4.3125 15 2.5 16.5 C0 17 0 17 -2.5 16.5 C-4.6446305 14.72513338 -5.37365521 13.34460623 -5.78515625 10.59375 C-5.92728557 7.28151898 -5.74703256 5.02006854 -4.3125 2 C-2.5 0.5 -2.5 0.5 0 0 Z " fill="#F6F6F7" transform="translate(411.5,53.5)"/>
<path d="M0 0 C3 1 3 1 4.8125 3.8125 C6 7 6 7 5.1875 9.375 C4.795625 9.91125 4.40375 10.4475 4 11 C6.31 11 8.62 11 11 11 C11 11.33 11 11.66 11 12 C14.63 12 18.26 12 22 12 C22 12.66 22 13.32 22 14 C12.43 14 2.86 14 -7 14 C-6.05825397 10.23301587 -4.95002893 8.00430209 -2.9375 4.75 C-2.38964844 3.85796875 -1.84179688 2.9659375 -1.27734375 2.046875 C-0.64505859 1.03367188 -0.64505859 1.03367188 0 0 Z " fill="#FBEBEB" transform="translate(50,62)"/>
<path d="M0 0 C3.21666704 -0.21931821 5.43362303 -0.26828383 8.375 1.125 C10 3 10 3 10.4375 6.0625 C10.293125 7.031875 10.14875 8.00125 10 9 C6.3558226 11.4294516 4.28758728 11.16179575 0 11 C0 7.37 0 3.74 0 0 Z " fill="#F6F6F7" transform="translate(125,59)"/>
<path d="M0 0 C3.375 -0.125 3.375 -0.125 7 0 C9 2 9 2 9.25 4.5 C9 7 9 7 7 9 C3.375 9.125 3.375 9.125 0 9 C0 6.03 0 3.06 0 0 Z " fill="#F5F6F6" transform="translate(125,44)"/>
<path d="M0 0 C3.0625 0.1875 3.0625 0.1875 5.0625 2.1875 C5.3125 4.6875 5.3125 4.6875 5.0625 7.1875 C3.0625 9.1875 3.0625 9.1875 0.625 9.5 C-1.9375 9.1875 -1.9375 9.1875 -3.8125 8 C-4.9375 6.1875 -4.9375 6.1875 -4.6875 3.5625 C-3.63578571 0.23207143 -3.63578571 0.23207143 0 0 Z " fill="#AFB0BC" transform="translate(510.9375,46.8125)"/>
<path d="M0 0 C2.5 0.25 2.5 0.25 4.5 2.25 C4.75 4.75 4.75 4.75 4.5 7.25 C2.5 9.25 2.5 9.25 0 9.5 C-2.5 9.25 -2.5 9.25 -4.5 7.25 C-4.75 4.75 -4.75 4.75 -4.5 2.25 C-2.5 0.25 -2.5 0.25 0 0 Z " fill="#081542" transform="translate(300.5,35.75)"/>
<path d="M0 0 C5.56818182 0.56818182 5.56818182 0.56818182 7 2 C7.1875 4.4375 7.1875 4.4375 7 7 C5 9 5 9 2.5 9.25 C0 9 0 9 -2 7 C-2.25 4.5 -2.25 4.5 -2 2 C-1.34 1.34 -0.68 0.68 0 0 Z " fill="#061341" transform="translate(211,36)"/>
<path d="M0 0 C0.125 2.375 0.125 2.375 0 5 C-2 7 -2 7 -4.625 7.125 C-5.40875 7.08375 -6.1925 7.0425 -7 7 C-7.33 5.35 -7.66 3.7 -8 2 C-4.77208445 -0.1519437 -3.71599191 -0.20086443 0 0 Z " fill="#F1F2F3" transform="translate(238,63)"/>
<path d="M0 0 C1.4540625 0.0309375 1.4540625 0.0309375 2.9375 0.0625 C3.5975 1.7125 4.2575 3.3625 4.9375 5.0625 C1.6375 5.0625 -1.6625 5.0625 -5.0625 5.0625 C-3.81634615 0.07788462 -3.81634615 0.07788462 0 0 Z " fill="#F5F5F6" transform="translate(161.0625,53.9375)"/>
<path d="M0 0 C3.1875 -0.3125 3.1875 -0.3125 6 0 C6.33 1.65 6.66 3.3 7 5 C3.7 5 0.4 5 -3 5 C-1.875 2.5 -1.875 2.5 0 0 Z " fill="#F5F5F6" transform="translate(490,54)"/>
<path d="M0 0 C0.66 0.33 1.32 0.66 2 1 C2.125 3.375 2.125 3.375 2 6 C0 8 0 8 -2.625 8.125 C-3.40875 8.08375 -4.1925 8.0425 -5 8 C-5.33 7.34 -5.66 6.68 -6 6 C-5.67 5.01 -5.34 4.02 -5 3 C-4.01 3 -3.02 3 -2 3 C-1.67 2.34 -1.34 1.68 -1 1 C-0.67 2.32 -0.34 3.64 0 5 C0 3.35 0 1.7 0 0 Z " fill="#686C84" transform="translate(514,48)"/>
<path d="M0 0 C2.79872437 2.52788007 4.45773019 4.20411134 5 8 C4.01 8 3.02 8 2 8 C1.71125 7.38125 1.4225 6.7625 1.125 6.125 C0.06279958 3.86674235 0.06279958 3.86674235 -2 2 C-1.34 2 -0.68 2 0 2 C0 1.34 0 0.68 0 0 Z " fill="#DE173A" transform="translate(52,59)"/>
</svg>
