<?xml version="1.0" encoding="UTF-8" standalone="no"?>
<!-- Created with Inkscape (http://www.inkscape.org/) -->

<svg
   width="2539.8987"
   height="386.41006"
   version="1.1"
   viewBox="0 0 2539.8987 386.41008"
   id="svg23"
   xmlns="http://www.w3.org/2000/svg"
   xmlns:svg="http://www.w3.org/2000/svg">
  <defs
     id="defs23" />
  <g
     id="g23"
     transform="translate(490.33551,-357.98333)">
    <path
       d="m 44.479,628.07 c 4.375,0.885 9.6875,0.885 17.344,0.885 20.312,0 38.281,-7.9687 38.281,-28.854 0,-20.052 -17.969,-28.021 -40.365,-28.021 h -15.26 z m 0,-88.073 h 14.688 c 23.854,0 36.25,-9.7396 36.25,-24.479 0,-15 -11.51,-22.969 -31.823,-22.969 -10,0 -15.625,0.5729 -19.115,1.5104 z M 0,464.268 c 11.771,-2.3437 35.313,-4.375 58.021,-4.375 27.396,0 44.167,2.6042 58.594,11.146 13.854,7.3958 23.594,20.938 23.594,39.167 0,17.396 -10.312,33.594 -32.396,42.135 v 0.573 c 22.656,5.9375 39.427,23.281 39.427,48.906 0,18.281 -8.2292,32.396 -20.625,42.135 -14.427,11.51 -38.594,17.969 -78.021,17.969 C 26.459,661.924 10,660.4657 0,659.0074 v -194.74"
       fill="#012169"
       id="path1" />
    <path
       d="m 259.79,571.2 c 0,-10.573 -4.7396,-29.167 -25.052,-29.167 -19.167,0 -26.823,17.396 -27.969,29.167 z m -52.76,30.625 c 1.5104,18.854 19.74,27.708 40.677,27.708 15.312,0 27.656,-2.0833 39.74,-6.1979 l 5.9375,30.365 c -14.792,6.1458 -32.708,9.1146 -52.135,9.1146 -48.906,0 -76.927,-28.281 -76.927,-73.646 0,-36.51 22.969,-76.875 72.76,-76.875 46.562,0 64.219,36.25 64.219,71.875 0,7.6563 -0.885,14.427 -1.4583,17.969 l -92.812,-0.313"
       fill="#012169"
       id="path2" />
    <path
       d="m 322.24,561.77 c 0,-17.969 -0.573,-32.969 -1.1979,-45.938 h 38.854 l 2.0833,20 h 0.885 c 5.8854,-9.4271 20.313,-23.229 44.479,-23.229 29.479,0 51.563,19.74 51.563,62.135 v 85.104 h -44.792 V 580.05 c 0,-18.594 -6.4582,-31.25 -22.656,-31.25 -12.396,0 -19.74,8.5938 -22.969,16.823 -1.1979,2.9166 -1.5104,7.0312 -1.5104,11.198 v 83.021 h -44.74 v -98.073"
       fill="#012169"
       id="path3" />
    <path
       d="m 510.73,496.98 c -15,0 -24.739,-10.625 -24.739,-23.854 0,-13.542 10,-23.854 25.364,-23.854 15.312,0 24.74,10.313 25,23.854 0,13.229 -9.6875,23.854 -25.312,23.854 z m -57.135,190.89 c 11.51,-0.885 20.938,-3.5416 26.51,-9.4271 6.4583,-6.7708 8.8541,-18.281 8.8541,-46.823 v -115.78 h 44.74 v 126.67 c 0,31.198 -6.7708,50.364 -20.312,62.76 -13.229,12.031 -34.167,17.656 -55.364,17.656 l -4.4271,-35.052"
       fill="#012169"
       id="path4" />
    <path
       d="m 639.48,591.82 c -23.594,0 -41.875,5.625 -41.875,22.708 0,11.458 7.6562,17.031 17.708,17.031 10.886,0 20.313,-7.3438 23.281,-16.458 0.573,-2.3958 0.885,-5 0.885,-7.6562 z m 43.281,33.281 c 0,13.542 0.573,26.823 2.3438,34.792 h -40.365 l -2.6562,-14.479 h -0.833 c -9.427,11.51 -24.167,17.708 -41.25,17.708 -29.167,0 -46.562,-21.25 -46.562,-44.219 0,-37.396 33.594,-55.052 84.531,-55.052 v -1.7708 c 0,-7.6563 -4.1145,-18.542 -26.198,-18.542 -14.74,0 -30.364,5 -39.792,10.573 l -8.2291,-28.594 c 10,-5.5729 29.74,-12.917 55.99,-12.917 48.021,0 63.021,28.281 63.021,62.135 v 50.365"
       fill="#012169"
       id="path5" />
    <path
       d="m 706.61,561.77 c 0,-17.969 -0.573,-32.969 -1.1974,-45.938 h 38.021 l 1.7708,19.74 h 0.885 c 6.1978,-9.4271 19.167,-22.969 43.594,-22.969 18.854,0 33.281,9.6875 39.479,24.74 h 0.573 c 5.6251,-7.6563 11.771,-13.594 18.854,-17.708 7.9687,-4.375 16.771,-7.0312 27.396,-7.0312 27.708,0 48.594,19.427 48.594,62.448 v 84.792 h -43.594 v -78.021 c 0,-20.938 -6.7708,-33.021 -21.198,-33.021 -10.625,0 -17.656,7.0834 -20.886,15.625 -0.937,3.2292 -1.5104,7.6563 -1.5104,11.198 v 84.219 h -43.594 v -80.677 c 0,-17.969 -6.4583,-30.365 -20.885,-30.365 -11.51,0 -18.281,8.8542 -20.938,15.938 -1.4582,3.4896 -1.7708,7.6563 -1.7708,11.458 v 83.646 h -43.594 v -98.073"
       fill="#012169"
       id="path6" />
    <path
       d="M 992.92,659.9 H 948.18 V 515.84 h 44.74 z M 970.264,496.98 c -15.052,0 -24.74,-10.625 -24.74,-23.854 0,-13.542 10,-23.854 25.313,-23.854 15.312,0 24.739,10.313 25.052,23.854 0,13.229 -9.7396,23.854 -25.365,23.854 h -0.26"
       fill="#012169"
       id="path7" />
    <path
       d="m 1017.1,561.77 c 0,-17.969 -0.573,-32.969 -1.1974,-45.938 h 38.906 l 2.0833,20 h 0.833 c 5.9374,-9.4271 20.364,-23.229 44.479,-23.229 29.479,0 51.562,19.74 51.562,62.135 v 85.104 h -44.74 V 580.05 c 0,-18.594 -6.5104,-31.25 -22.708,-31.25 -12.344,0 -19.74,8.5938 -22.969,16.823 -1.1973,2.9166 -1.4584,7.0312 -1.4584,11.198 v 83.021 h -44.792 v -98.073"
       fill="#012169"
       id="path8" />
    <path
       d="m 1418.6,583.91 c -0.885,-23.854 -1.771,-52.448 -1.771,-81.615 h -0.625 c -6.4584,25.312 -14.688,53.594 -22.344,76.875 l -24.167,77.448 h -35.052 l -21.25,-76.562 c -6.4583,-23.594 -12.917,-51.562 -17.917,-77.76 h -0.625 c -0.885,26.823 -2.0314,57.448 -3.2292,82.187 l -3.8022,75.417 h -41.562 l 12.656,-198.54 h 59.792 l 19.479,66.562 c 6.4583,22.708 12.344,47.396 16.771,70.677 h 1.1973 c 5.3126,-22.969 12.083,-48.854 18.854,-71.25 l 20.885,-65.99 h 58.906 l 10.625,198.54 h -43.594 l -3.2291,-75.99"
       fill="#012169"
       id="path9" />
    <path
       d="m 1555.3,630.99 c 17.656,0 28.542,-17.344 28.542,-43.281 0,-21.198 -8.2292,-43.021 -28.542,-43.021 -21.198,0 -29.479,21.823 -29.479,43.333 0,24.427 10.313,42.969 29.167,42.969 z m -0.885,32.136 c -42.136,0 -74.531,-27.708 -74.531,-74.219 0,-46.562 30.625,-76.302 77.188,-76.302 43.906,0 73.333,30.365 73.333,73.906 0,52.448 -37.396,76.615 -75.729,76.615 h -0.26"
       fill="#012169"
       id="path10" />
    <path
       d="m 1725.5,630.99 c 17.656,0 28.542,-17.344 28.542,-43.281 0,-21.198 -8.229,-43.021 -28.542,-43.021 -21.198,0 -29.479,21.823 -29.479,43.333 0,24.427 10.313,42.969 29.167,42.969 z m -0.885,32.136 c -42.135,0 -74.531,-27.708 -74.531,-74.219 0,-46.562 30.625,-76.302 77.188,-76.302 43.854,0 73.333,30.365 73.333,73.906 0,52.448 -37.396,76.615 -75.729,76.615 h -0.26"
       fill="#012169"
       id="path11" />
    <path
       d="m 1816.8,563.28 c 0,-21.25 -0.312,-35.052 -1.1973,-47.448 h 38.333 l 1.7188,26.823 h 1.1974 c 7.3958,-21.25 24.74,-30.052 38.906,-30.052 4.1145,0 6.1459,0.3125 9.4271,0.8855 v 42.135 c -3.8542,-0.573 -7.3959,-1.1979 -12.396,-1.1979 -16.51,0 -27.708,8.5417 -30.625,22.656 -0.573,2.9687 -0.885,6.1979 -0.885,10.052 v 72.76 h -44.792 l 0.312,-96.615"
       fill="#012169"
       id="path12" />
    <path
       d="m 2008,571.2 c 0,-10.573 -4.6875,-29.167 -25,-29.167 -19.167,0 -26.823,17.396 -28.021,29.167 z m -52.708,30.625 c 1.4583,18.854 19.74,27.708 40.625,27.708 15.313,0 27.708,-2.0833 39.792,-6.1979 l 5.8853,30.365 c -14.74,6.1458 -32.708,9.1146 -52.135,9.1146 -48.906,0 -76.875,-28.281 -76.875,-73.646 0,-36.51 22.969,-76.875 72.76,-76.875 46.51,0 64.219,36.25 64.219,71.875 0,7.6563 -0.885,14.427 -1.5104,17.969 l -92.76,-0.313"
       fill="#012169"
       id="path13" />
    <g
       id="g24"
       transform="translate(-1298.6155,357.98335)">
      <path
         d="M 1045.1,0 808.28,386.41 h 473.54 L 1045.1,0"
         fill="#ba0c2f"
         id="path20" />
      <path
         d="M 1119.6,350 H 971.58 c 0,0 -3.4896,-0.1563 -3.4896,-3.4896 0,-0.6249 0.469,-1.6667 0.469,-1.6667 l 44.479,-72.396 24.531,40.052 -11.51,18.49 h -0.05 c -0.312,0.5208 -0.521,1.0937 -0.521,1.7708 0,1.9271 1.5625,3.4896 3.4896,3.4896 h 33.333 c 1.8751,0 3.4375,-1.5625 3.4375,-3.4896 0,-0.6771 -0.156,-1.25 -0.469,-1.7708 l -0.05,-0.052 -59.323,-96.927 -0.521,-0.6249 c -0.625,-0.6249 -1.4584,-1.0417 -2.4479,-1.0417 -2.1355,0 -2.9688,1.6667 -2.9688,1.6667 l -71.09,115.99 h -48.802 l 119.64,-194.74 h -0.05 c 0.573,-1.0937 1.7188,-1.8229 3.0729,-1.8229 2.0312,0 3.0208,1.8229 3.0208,1.8229 l 116.88,189.58 h 0.05 c 0.26,0.5208 0.416,1.0417 0.416,1.6667 0,1.9271 -1.5624,3.4896 -3.4895,3.4896 z"
         fill="#ffffff"
         id="path21" />
      <path
         d="m 1090.8,234.43 c -0.625,-0.9896 -1.7188,-1.6667 -3.0208,-1.6667 -2.0313,0 -2.9166,1.7188 -2.9166,1.7188 l -6.9271,11.302 -24.375,-39.583 31.302,-50.938 c 0,0 0.833,-1.8229 3.0208,-1.8229 1.2493,0 2.3958,0.7292 3.0208,1.7708 l 119.06,194.79 h -48.073 z"
         fill="#ffffff"
         id="path22" />
    </g>
    <path
       d="m 2077.4,524.79 h 3.177 c 3.6459,0 6.7708,-1.3542 6.7708,-4.7396 0,-2.4479 -1.7708,-4.8958 -6.7708,-4.8958 -1.4062,0 -2.4478,0.104 -3.177,0.2084 z m 0,15.365 h -4.4271 v -27.76 c 2.2916,-0.3125 4.5312,-0.6251 7.8125,-0.6251 4.2187,0 6.9791,0.8333 8.6458,2.0833 1.6666,1.1979 2.5521,3.0729 2.5521,5.7292 0,3.6459 -2.4479,5.8854 -5.4167,6.7709 v 0.208 c 2.4479,0.417 4.0626,2.6562 4.6355,6.7187 0.677,4.3229 1.3541,5.9896 1.7708,6.875 h -4.6355 c -0.677,-0.885 -1.3541,-3.4375 -1.8749,-7.0833 -0.677,-3.5417 -2.448,-4.8438 -5.9896,-4.8438 H 2077.4 Z m 4.6354,-35.469 c -10.938,0 -19.896,9.375 -19.896,20.99 0,11.823 8.9582,21.146 20,21.146 11.042,0.104 19.896,-9.3229 19.896,-21.042 0,-11.719 -8.8542,-21.094 -19.896,-21.094 z m 0.107,-3.9062 c 13.594,0 24.427,11.094 24.427,24.896 0,14.062 -10.833,25 -24.531,25 -13.594,0 -24.688,-10.938 -24.688,-25 0,-13.802 11.094,-24.896 24.688,-24.896 h 0.107"
       display="none"
       fill="#012169"
       id="path23" />
  </g>
</svg>
