<?xml version="1.0" encoding="UTF-8" standalone="no"?><!-- Generator: Gravit.io --><svg xmlns="http://www.w3.org/2000/svg" xmlns:xlink="http://www.w3.org/1999/xlink" style="isolation:isolate" viewBox="0 0 24 24" width="24pt" height="24pt"><defs><clipPath id="_clipPath_lKOVSrjcDZwWApd169XOqg8mSnzAHgnj"><rect width="24" height="24"/></clipPath></defs><g clip-path="url(#_clipPath_lKOVSrjcDZwWApd169XOqg8mSnzAHgnj)"><g><path d=" M 19.21 9.137 L 19.204 9.041 L 19.192 8.945 L 19.173 8.856 L 19.148 8.766 L 19.086 8.596 L 19.018 8.429 L 18.95 8.265 L 18.888 8.101 L 18.864 8.018 L 18.845 7.931 L 18.833 7.841 L 18.827 7.752 L 18.907 7.69 L 18.929 7.671 L 18.947 7.653 L 18.966 7.634 L 18.981 7.616 L 19 7.591 L 19.018 7.563 L 19.028 7.548 L 19.034 7.532 L 19.04 7.517 L 19.046 7.501 L 19.049 7.486 L 19.052 7.47 L 19.055 7.455 L 19.055 7.439 L 19.052 7.421 L 19.049 7.402 L 19.043 7.384 L 19.034 7.365 L 19.021 7.353 L 19.009 7.344 L 19.003 7.337 L 18.997 7.334 L 18.987 7.334 L 18.981 7.331 L 18.972 7.328 L 18.966 7.325 L 18.957 7.325 L 18.947 7.322 L 18.938 7.322 L 18.932 7.322 L 18.923 7.322 L 18.913 7.325 L 18.895 7.334 L 18.873 7.347 L 18.851 7.362 L 18.833 7.378 L 18.817 7.393 L 18.802 7.412 L 18.786 7.43 L 18.774 7.449 L 18.752 7.489 L 18.734 7.529 L 18.7 7.61 L 17.939 8.537 L 17.837 8.528 L 17.788 8.525 L 17.738 8.525 L 17.689 8.528 L 17.639 8.534 L 17.59 8.543 L 17.543 8.556 L 17.497 8.571 L 17.454 8.59 L 17.41 8.611 L 17.367 8.636 L 17.327 8.664 L 17.287 8.695 L 17.249 8.729 L 17.212 8.766 L 17.172 8.809 L 17.135 8.856 L 17.104 8.905 L 17.076 8.958 L 17.052 9.014 L 17.033 9.069 L 17.018 9.128 L 17.008 9.187 L 17.002 9.245 L 16.999 9.307 L 17.002 9.369 L 17.008 9.431 L 17.018 9.49 L 17.03 9.548 L 17.045 9.604 L 17.067 9.66 L 16.826 9.91 L 16.566 10.139 L 16.498 10.192 L 16.43 10.238 L 16.396 10.257 L 16.359 10.272 L 16.325 10.285 L 16.291 10.294 L 16.278 10.297 L 16.266 10.297 L 16.254 10.297 L 16.241 10.297 L 16.232 10.297 L 16.223 10.294 L 16.213 10.291 L 16.204 10.288 L 16.195 10.285 L 16.186 10.278 L 16.176 10.272 L 16.167 10.266 L 16.161 10.26 L 16.155 10.25 L 16.149 10.241 L 16.145 10.232 L 16.136 10.21 L 16.13 10.189 L 16.127 10.167 L 16.127 10.145 L 16.127 10.124 L 16.13 10.102 L 16.133 10.08 L 16.139 10.059 L 16.155 10.015 L 16.173 9.972 L 16.207 9.892 L 17.29 7.235 L 18.926 7.037 L 19.124 6.682 L 17.5 6.682 L 17.655 6.326 L 17.209 6.345 L 17.064 6.657 L 11.117 6.657 L 11.262 6.793 L 11.315 6.849 L 11.361 6.908 L 11.402 6.969 L 11.439 7.031 L 11.47 7.096 L 11.497 7.164 L 11.519 7.235 L 11.538 7.306 L 11.553 7.378 L 11.562 7.452 L 11.569 7.526 L 11.572 7.6 L 11.569 7.671 L 11.562 7.742 L 11.541 7.882 L 13.999 7.61 L 16.761 7.303 L 16.405 8.002 L 16.3 7.959 L 16.204 7.916 L 16.105 7.885 L 16.003 7.863 L 15.901 7.848 L 15.796 7.841 L 15.691 7.845 L 15.586 7.854 L 15.481 7.869 L 15.379 7.891 L 15.276 7.922 L 15.178 7.953 L 15.082 7.99 L 14.899 8.076 L 14.732 8.179 L 14.624 8.141 L 14.516 8.117 L 14.407 8.101 L 14.299 8.095 L 14.191 8.095 L 14.083 8.104 L 13.975 8.12 L 13.869 8.145 L 13.764 8.172 L 13.662 8.206 L 13.461 8.29 L 13.273 8.389 L 13.093 8.497 L 13.084 8.469 L 13.075 8.438 L 13.062 8.41 L 13.047 8.383 L 13.031 8.355 L 13.013 8.327 L 12.994 8.302 L 12.973 8.277 L 12.951 8.256 L 12.926 8.234 L 12.901 8.216 L 12.874 8.197 L 12.846 8.182 L 12.818 8.169 L 12.787 8.16 L 12.756 8.154 L 12.685 8.141 L 12.614 8.135 L 12.543 8.138 L 12.475 8.148 L 12.407 8.163 L 12.339 8.185 L 12.274 8.209 L 12.209 8.237 L 12.088 8.302 L 11.977 8.37 L 11.797 8.497 L 11.779 8.485 L 11.757 8.472 L 11.711 8.448 L 11.661 8.423 L 11.618 8.404 L 11.587 8.395 L 11.556 8.386 L 11.525 8.38 L 11.494 8.373 L 11.463 8.37 L 11.433 8.367 L 11.368 8.367 L 11.303 8.373 L 11.238 8.386 L 11.176 8.401 L 11.117 8.423 L 11.191 8.287 L 11.225 8.219 L 11.259 8.148 L 11.287 8.076 L 11.315 8.005 L 11.337 7.931 L 11.355 7.857 L 11.364 7.777 L 11.371 7.696 L 11.371 7.616 L 11.364 7.535 L 11.352 7.455 L 11.334 7.378 L 11.312 7.303 L 11.284 7.229 L 11.253 7.158 L 11.216 7.087 L 11.173 7.019 L 11.126 6.954 L 11.074 6.892 L 11.018 6.833 L 10.956 6.778 L 10.891 6.725 L 10.913 6.703 L 10.935 6.682 L 10.978 6.642 L 11.024 6.604 L 11.074 6.57 L 11.173 6.509 L 11.222 6.478 L 11.269 6.444 L 11.269 6.444 L 11.269 6.444 L 11.269 6.444 L 11.269 6.444 L 11.269 6.444 L 11.269 6.444 L 11.269 6.444 L 11.272 6.441 L 11.275 6.437 L 11.278 6.434 L 11.281 6.431 L 11.284 6.428 L 11.287 6.425 L 11.29 6.422 L 11.293 6.416 L 11.293 6.41 L 11.293 6.403 L 11.293 6.397 L 11.29 6.391 L 11.287 6.382 L 11.284 6.376 L 11.281 6.373 L 11.278 6.369 L 11.275 6.366 L 11.272 6.363 L 11.269 6.36 L 11.266 6.357 L 11.262 6.357 L 11.256 6.354 L 11.247 6.354 L 11.244 6.354 L 11.241 6.354 L 11.238 6.351 L 11.235 6.348 L 11.154 6.369 L 11.071 6.397 L 10.987 6.428 L 10.907 6.465 L 10.768 6.536 L 10.669 6.589 L 10.477 6.521 L 10.279 6.468 L 10.075 6.431 L 9.868 6.407 L 9.657 6.394 L 9.447 6.394 L 9.24 6.407 L 9.036 6.431 L 8.72 6.506 L 8.411 6.601 L 8.111 6.719 L 7.824 6.861 L 7.548 7.028 L 7.289 7.223 L 7.044 7.449 L 6.815 7.702 L 6.732 7.829 L 6.655 7.965 L 6.587 8.107 L 6.559 8.182 L 6.534 8.256 L 6.515 8.33 L 6.503 8.404 L 6.497 8.482 L 6.497 8.559 L 6.506 8.636 L 6.525 8.714 L 6.553 8.788 L 6.59 8.862 L 6.621 8.899 L 6.652 8.936 L 6.686 8.97 L 6.723 9.001 L 6.76 9.029 L 6.8 9.057 L 6.84 9.082 L 6.884 9.103 L 6.927 9.122 L 6.973 9.137 L 7.02 9.15 L 7.066 9.159 L 7.115 9.162 L 7.165 9.165 L 7.214 9.162 L 7.264 9.156 L 7.295 9.146 L 7.326 9.134 L 7.357 9.122 L 7.388 9.106 L 7.415 9.088 L 7.443 9.066 L 7.471 9.044 L 7.496 9.02 L 7.521 8.995 L 7.542 8.967 L 7.564 8.939 L 7.585 8.911 L 7.604 8.884 L 7.62 8.853 L 7.635 8.822 L 7.647 8.791 L 7.592 8.775 L 7.536 8.757 L 7.48 8.735 L 7.453 8.72 L 7.428 8.704 L 7.403 8.689 L 7.378 8.67 L 7.357 8.649 L 7.335 8.627 L 7.32 8.602 L 7.304 8.574 L 7.292 8.547 L 7.282 8.516 L 7.276 8.448 L 7.276 8.38 L 7.279 8.315 L 7.289 8.25 L 7.301 8.188 L 7.316 8.126 L 7.338 8.064 L 7.36 8.005 L 7.415 7.891 L 7.48 7.78 L 7.551 7.674 L 7.629 7.572 L 7.83 7.371 L 8.043 7.195 L 8.269 7.044 L 8.507 6.917 L 8.754 6.815 L 9.011 6.737 L 9.277 6.685 L 9.549 6.654 L 9.744 6.663 L 9.84 6.672 L 9.933 6.688 L 10.019 6.71 L 10.063 6.725 L 10.103 6.741 L 10.143 6.762 L 10.18 6.784 L 10.217 6.809 L 10.251 6.839 L 9.834 7.099 L 9.627 7.269 L 9.435 7.455 L 9.259 7.653 L 9.092 7.86 L 8.937 8.073 L 8.788 8.29 L 8.51 8.726 L 8.433 8.72 L 8.356 8.717 L 8.278 8.717 L 8.204 8.723 L 8.13 8.735 L 8.059 8.754 L 8.025 8.763 L 7.991 8.775 L 7.96 8.791 L 7.929 8.806 L 7.91 8.819 L 7.892 8.831 L 7.873 8.847 L 7.858 8.862 L 7.842 8.877 L 7.827 8.893 L 7.811 8.908 L 7.799 8.927 L 7.787 8.945 L 7.777 8.964 L 7.768 8.983 L 7.759 9.004 L 7.752 9.026 L 7.746 9.048 L 7.743 9.069 L 7.762 9.097 L 7.765 9.134 L 7.771 9.168 L 7.78 9.202 L 7.793 9.236 L 7.808 9.267 L 7.827 9.298 L 7.848 9.329 L 7.87 9.357 L 7.895 9.385 L 7.923 9.409 L 7.978 9.456 L 8.037 9.496 L 8.096 9.53 L 8.052 9.644 L 7.573 10.687 L 7.471 10.906 L 7.419 11.008 L 7.394 11.058 L 7.366 11.101 L 7.261 11.064 L 7.205 11.048 L 7.149 11.036 L 7.091 11.027 L 7.032 11.021 L 7.001 11.021 L 6.97 11.024 L 6.939 11.027 L 6.908 11.033 L 6.849 11.039 L 6.791 11.051 L 6.732 11.07 L 6.676 11.095 L 6.621 11.123 L 6.565 11.157 L 6.512 11.194 L 6.463 11.234 L 6.417 11.277 L 6.373 11.324 L 6.333 11.373 L 6.296 11.426 L 6.262 11.478 L 6.231 11.534 L 6.206 11.59 L 6.185 11.645 L 6.16 11.716 L 6.141 11.787 L 6.129 11.862 L 6.12 11.936 L 6.117 12.01 L 6.12 12.084 L 6.129 12.159 L 6.141 12.23 L 6.157 12.301 L 6.178 12.372 L 6.203 12.44 L 6.234 12.508 L 6.268 12.573 L 6.305 12.635 L 6.349 12.694 L 6.392 12.749 L 6.364 12.786 L 6.336 12.82 L 6.274 12.885 L 6.206 12.944 L 6.135 13 L 6.058 13.046 L 5.977 13.089 L 5.906 13.117 L 5.823 13.148 L 5.702 13.173 L 5.637 13.182 L 5.572 13.188 L 5.538 13.188 L 5.507 13.185 L 5.476 13.182 L 5.446 13.176 L 5.415 13.167 L 5.387 13.157 L 5.359 13.142 L 5.331 13.123 L 5.371 13.117 L 5.408 13.108 L 5.446 13.096 L 5.483 13.08 L 5.517 13.062 L 5.535 13.052 L 5.551 13.04 L 5.566 13.028 L 5.582 13.015 L 5.597 13 L 5.612 12.984 L 5.628 12.969 L 5.643 12.953 L 5.656 12.938 L 5.668 12.919 L 5.677 12.901 L 5.687 12.882 L 5.696 12.864 L 5.702 12.842 L 5.708 12.82 L 5.711 12.799 L 5.715 12.78 L 5.715 12.758 L 5.715 12.74 L 5.711 12.721 L 5.708 12.703 L 5.702 12.687 L 5.696 12.663 L 5.687 12.638 L 5.677 12.613 L 5.665 12.588 L 5.65 12.567 L 5.634 12.545 L 5.616 12.523 L 5.597 12.502 L 5.575 12.483 L 5.554 12.465 L 5.532 12.449 L 5.51 12.434 L 5.486 12.421 L 5.464 12.409 L 5.439 12.4 L 5.415 12.394 L 5.387 12.387 L 5.359 12.381 L 5.331 12.378 L 5.303 12.375 L 5.275 12.375 L 5.248 12.375 L 5.22 12.378 L 5.192 12.381 L 5.164 12.387 L 5.136 12.394 L 5.108 12.403 L 5.084 12.412 L 5.059 12.424 L 5.034 12.437 L 5.013 12.452 L 4.991 12.468 L 4.963 12.486 L 4.935 12.508 L 4.911 12.53 L 4.889 12.554 L 4.867 12.579 L 4.849 12.607 L 4.833 12.635 L 4.821 12.663 L 4.808 12.694 L 4.799 12.724 L 4.793 12.755 L 4.79 12.789 L 4.79 12.823 L 4.79 12.857 L 4.793 12.891 L 4.799 12.925 L 4.805 12.966 L 4.815 13.003 L 4.855 13.055 L 4.873 13.092 L 4.895 13.126 L 4.92 13.157 L 4.948 13.188 L 4.975 13.216 L 5.006 13.244 L 5.037 13.272 L 5.071 13.297 L 5.105 13.318 L 5.176 13.355 L 5.248 13.386 L 5.35 13.414 L 5.452 13.433 L 5.554 13.442 L 5.656 13.442 L 5.755 13.433 L 5.851 13.417 L 5.946 13.396 L 6.042 13.368 L 6.225 13.3 L 6.398 13.216 L 6.559 13.126 L 6.707 13.037 L 6.868 13.123 L 7.023 13.198 L 7.1 13.229 L 7.177 13.256 L 7.255 13.284 L 7.335 13.309 L 7.49 13.343 L 7.644 13.365 L 7.799 13.374 L 7.95 13.374 L 8.102 13.362 L 8.25 13.34 L 8.396 13.309 L 8.538 13.266 L 8.677 13.21 L 8.813 13.145 L 8.946 13.071 L 9.073 12.987 L 9.197 12.895 L 9.314 12.793 L 9.426 12.681 L 9.531 12.561 L 9.636 12.428 L 9.732 12.288 L 9.815 12.14 L 9.889 11.985 L 9.951 11.828 L 10.001 11.664 L 10.041 11.497 L 10.069 11.327 L 10.087 11.157 L 10.093 10.983 L 10.087 10.81 L 10.072 10.64 L 10.044 10.473 L 10.004 10.309 L 9.954 10.148 L 9.892 9.994 L 9.843 9.876 L 9.79 9.759 L 9.682 9.533 L 9.8 9.484 L 9.917 9.428 L 10.152 9.313 L 10.267 9.258 L 10.375 9.193 L 10.48 9.122 L 10.582 9.048 L 10.786 8.893 L 10.888 8.816 L 10.993 8.741 L 11.061 8.717 L 11.136 8.695 L 11.21 8.68 L 11.287 8.67 L 11.324 8.667 L 11.361 8.667 L 11.399 8.67 L 11.436 8.676 L 11.473 8.683 L 11.51 8.692 L 11.544 8.704 L 11.578 8.72 L 11.436 8.871 L 11.3 9.026 L 11.173 9.187 L 11.055 9.351 L 10.947 9.521 L 10.848 9.694 L 10.755 9.87 L 10.672 10.053 L 10.604 10.232 L 10.542 10.421 L 10.492 10.615 L 10.458 10.813 L 10.449 10.912 L 10.446 11.011 L 10.449 11.11 L 10.458 11.209 L 10.477 11.305 L 10.502 11.401 L 10.536 11.497 L 10.579 11.59 L 10.601 11.62 L 10.622 11.651 L 10.647 11.679 L 10.675 11.707 L 10.703 11.732 L 10.734 11.753 L 10.765 11.775 L 10.795 11.791 L 10.826 11.806 L 10.86 11.818 L 10.894 11.828 L 10.928 11.837 L 10.962 11.843 L 10.996 11.846 L 11.034 11.846 L 11.068 11.843 L 11.198 11.821 L 11.321 11.787 L 11.442 11.741 L 11.556 11.682 L 11.668 11.614 L 11.773 11.537 L 11.875 11.453 L 11.971 11.364 L 12.15 11.166 L 12.314 10.952 L 12.459 10.733 L 12.589 10.516 L 12.793 10.114 L 12.886 9.91 L 12.969 9.703 L 13.041 9.49 L 13.096 9.27 L 13.133 9.044 L 13.149 8.809 L 13.279 8.714 L 13.412 8.624 L 13.551 8.543 L 13.693 8.475 L 13.842 8.42 L 13.916 8.398 L 13.993 8.38 L 14.07 8.364 L 14.151 8.355 L 14.231 8.352 L 14.315 8.352 L 14.135 8.506 L 13.968 8.673 L 13.814 8.85 L 13.671 9.032 L 13.539 9.221 L 13.418 9.416 L 13.307 9.613 L 13.208 9.811 L 13.14 9.972 L 13.084 10.145 L 13.062 10.235 L 13.044 10.328 L 13.031 10.421 L 13.022 10.513 L 13.022 10.606 L 13.028 10.699 L 13.044 10.789 L 13.065 10.878 L 13.096 10.962 L 13.136 11.042 L 13.189 11.119 L 13.251 11.194 L 13.279 11.222 L 13.307 11.246 L 13.337 11.268 L 13.368 11.286 L 13.402 11.302 L 13.436 11.314 L 13.474 11.324 L 13.511 11.333 L 13.548 11.339 L 13.585 11.342 L 13.622 11.342 L 13.659 11.339 L 13.696 11.336 L 13.733 11.33 L 13.77 11.32 L 13.808 11.311 L 13.934 11.262 L 14.058 11.2 L 14.176 11.126 L 14.287 11.042 L 14.395 10.946 L 14.497 10.841 L 14.593 10.73 L 14.683 10.612 L 14.766 10.489 L 14.844 10.359 L 14.977 10.09 L 15.082 9.814 L 15.156 9.542 L 15.178 9.394 L 15.19 9.242 L 15.19 9.091 L 15.184 9.017 L 15.174 8.942 L 15.159 8.868 L 15.14 8.794 L 15.119 8.723 L 15.091 8.655 L 15.057 8.587 L 15.017 8.522 L 14.973 8.46 L 14.921 8.398 L 14.977 8.358 L 15.026 8.324 L 15.069 8.296 L 15.109 8.271 L 15.178 8.234 L 15.249 8.2 L 15.323 8.172 L 15.397 8.148 L 15.474 8.129 L 15.555 8.114 L 15.635 8.104 L 15.716 8.101 L 15.796 8.101 L 15.876 8.107 L 15.957 8.117 L 16.034 8.132 L 16.108 8.154 L 16.179 8.182 L 16.248 8.213 L 16.312 8.25 L 15.573 9.895 L 15.546 9.969 L 15.521 10.046 L 15.499 10.124 L 15.484 10.204 L 15.481 10.244 L 15.477 10.285 L 15.477 10.325 L 15.481 10.362 L 15.49 10.399 L 15.499 10.436 L 15.515 10.473 L 15.533 10.51 L 15.549 10.535 L 15.564 10.557 L 15.583 10.578 L 15.601 10.597 L 15.62 10.615 L 15.641 10.631 L 15.663 10.646 L 15.685 10.659 L 15.728 10.683 L 15.774 10.702 L 15.821 10.717 L 15.867 10.73 L 15.972 10.733 L 16.074 10.724 L 16.173 10.705 L 16.266 10.677 L 16.359 10.64 L 16.445 10.594 L 16.532 10.541 L 16.616 10.482 L 16.776 10.349 L 16.931 10.204 L 17.225 9.907 L 17.256 9.954 L 17.293 9.997 L 17.33 10.037 L 17.37 10.074 L 17.413 10.108 L 17.457 10.139 L 17.503 10.167 L 17.553 10.192 L 17.602 10.213 L 17.655 10.232 L 17.707 10.247 L 17.76 10.26 L 17.815 10.269 L 17.871 10.275 L 17.927 10.278 L 17.982 10.281 L 17.982 10.291 L 17.973 10.309 L 17.964 10.328 L 17.942 10.362 L 17.921 10.393 L 17.896 10.421 L 17.868 10.448 L 17.84 10.473 L 17.778 10.523 L 17.704 10.572 L 17.63 10.615 L 17.556 10.653 L 17.481 10.683 L 17.407 10.711 L 17.33 10.736 L 17.175 10.782 L 13.668 11.627 L 11.399 12.18 L 11.272 12.22 L 11.148 12.276 L 11.027 12.341 L 10.969 12.378 L 10.913 12.418 L 10.86 12.462 L 10.808 12.508 L 10.758 12.557 L 10.715 12.61 L 10.675 12.666 L 10.638 12.724 L 10.607 12.786 L 10.579 12.848 L 10.56 12.895 L 10.545 12.944 L 10.53 12.994 L 10.517 13.046 L 10.508 13.102 L 10.502 13.157 L 10.499 13.213 L 10.499 13.269 L 10.502 13.324 L 10.508 13.38 L 10.52 13.433 L 10.536 13.485 L 10.554 13.535 L 10.579 13.584 L 10.607 13.631 L 10.638 13.674 L 10.659 13.64 L 10.681 13.609 L 10.706 13.581 L 10.734 13.556 L 10.761 13.532 L 10.789 13.51 L 10.817 13.491 L 10.845 13.476 L 17.042 11.549 L 17.413 11.429 L 17.503 11.395 L 17.593 11.358 L 17.682 11.314 L 17.769 11.265 L 17.837 11.218 L 17.899 11.169 L 17.958 11.116 L 18.01 11.058 L 18.06 10.996 L 18.103 10.931 L 18.183 10.798 L 18.251 10.659 L 18.313 10.516 L 18.434 10.232 L 18.434 10.232 L 18.434 10.232 L 18.434 10.232 L 18.434 10.232 L 18.434 10.232 L 18.434 10.232 L 18.434 10.232 L 18.437 10.232 L 18.44 10.232 L 18.446 10.232 L 18.449 10.229 L 18.452 10.229 L 18.456 10.229 L 18.459 10.229 L 18.462 10.226 L 18.465 10.223 L 18.468 10.22 L 18.505 10.201 L 18.545 10.176 L 18.626 10.121 L 18.691 10.074 L 18.709 10.059 L 18.715 10.056 L 18.715 10.053 L 18.715 10.053 L 18.715 10.053 L 18.715 10.053 L 18.715 10.053 L 18.715 10.053 L 18.771 10.009 L 18.824 9.963 L 18.873 9.917 L 18.919 9.867 L 18.963 9.814 L 19.003 9.759 L 19.04 9.703 L 19.071 9.644 L 19.099 9.586 L 19.124 9.524 L 19.145 9.462 L 19.164 9.4 L 19.179 9.338 L 19.188 9.273 L 19.198 9.208 L 19.21 9.137 Z " fill="rgb(255,255,255)"/><g><g><g><path d=" M 18.731 9.242 L 18.752 9.162 L 18.768 9.082 L 18.777 9.001 L 18.783 8.921 L 18.783 8.76 L 18.768 8.599 L 18.743 8.438 L 18.712 8.277 L 18.647 7.965 L 18.168 8.611 L 18.224 8.655 L 18.276 8.698 L 18.326 8.744 L 18.372 8.794 L 18.412 8.843 L 18.449 8.896 L 18.483 8.952 L 18.514 9.007 L 18.542 9.066 L 18.567 9.125 L 18.589 9.187 L 18.604 9.249 L 18.616 9.31 L 18.626 9.375 L 18.635 9.505 L 18.663 9.44 L 18.687 9.378 L 18.709 9.317 L 18.731 9.242 Z " fill="rgb(27,68,142)"/></g></g></g><g><g><g><path d=" M 18.366 9.607 L 18.375 9.552 L 18.378 9.496 L 18.378 9.44 L 18.375 9.385 L 18.366 9.329 L 18.353 9.276 L 18.338 9.224 L 18.316 9.174 L 18.292 9.125 L 18.264 9.078 L 18.233 9.032 L 18.199 8.989 L 18.162 8.949 L 18.118 8.911 L 18.072 8.874 L 18.023 8.843 L 17.345 9.728 L 17.386 9.777 L 17.429 9.821 L 17.475 9.861 L 17.522 9.898 L 17.571 9.929 L 17.621 9.954 L 17.67 9.975 L 17.695 9.985 L 17.72 9.991 L 17.757 10 L 17.794 10.006 L 17.831 10.009 L 17.868 10.012 L 17.905 10.012 L 17.942 10.009 L 17.979 10.003 L 18.016 9.997 L 18.05 9.988 L 18.084 9.975 L 18.118 9.963 L 18.149 9.947 L 18.18 9.929 L 18.211 9.907 L 18.239 9.886 L 18.267 9.861 L 18.282 9.833 L 18.298 9.802 L 18.31 9.771 L 18.323 9.74 L 18.344 9.675 L 18.366 9.607 Z " fill="rgb(27,68,142)"/></g></g></g><g><g><g><path d=" M 17.763 8.772 L 17.738 8.766 L 17.713 8.763 L 17.689 8.76 L 17.664 8.76 L 17.639 8.76 L 17.614 8.763 L 17.59 8.766 L 17.565 8.772 L 17.54 8.778 L 17.515 8.788 L 17.491 8.797 L 17.469 8.806 L 17.447 8.819 L 17.426 8.834 L 17.407 8.85 L 17.389 8.865 L 17.361 8.893 L 17.336 8.924 L 17.314 8.955 L 17.293 8.989 L 17.274 9.023 L 17.259 9.057 L 17.246 9.094 L 17.237 9.131 L 17.228 9.168 L 17.225 9.205 L 17.222 9.242 L 17.222 9.279 L 17.225 9.317 L 17.231 9.354 L 17.24 9.391 L 17.256 9.428 L 17.763 8.772 Z " fill="rgb(27,68,142)"/></g></g></g><g><g><g><path d=" M 12.71 8.847 L 12.713 8.763 L 12.713 8.72 L 12.71 8.676 L 12.707 8.655 L 12.704 8.633 L 12.697 8.615 L 12.688 8.596 L 12.679 8.581 L 12.666 8.565 L 12.66 8.559 L 12.651 8.553 L 12.632 8.543 L 12.614 8.534 L 12.595 8.528 L 12.577 8.525 L 12.558 8.525 L 12.54 8.528 L 12.524 8.531 L 12.509 8.537 L 12.493 8.547 L 12.478 8.556 L 12.462 8.565 L 12.431 8.59 L 12.376 8.639 L 12.172 8.856 L 11.98 9.078 L 11.797 9.31 L 11.627 9.548 L 11.47 9.793 L 11.324 10.04 L 11.191 10.294 L 11.071 10.55 L 10.99 10.721 L 10.953 10.82 L 10.919 10.922 L 10.904 10.974 L 10.894 11.027 L 10.888 11.079 L 10.885 11.132 L 10.888 11.184 L 10.894 11.234 L 10.907 11.283 L 10.925 11.333 L 10.932 11.342 L 10.938 11.351 L 10.944 11.361 L 10.95 11.37 L 10.959 11.376 L 10.969 11.382 L 10.978 11.389 L 10.987 11.395 L 10.996 11.398 L 11.006 11.401 L 11.015 11.404 L 11.024 11.407 L 11.034 11.41 L 11.043 11.413 L 11.052 11.416 L 11.061 11.416 L 11.077 11.419 L 11.092 11.423 L 11.123 11.423 L 11.154 11.416 L 11.185 11.407 L 11.216 11.392 L 11.247 11.373 L 11.278 11.351 L 11.309 11.33 L 11.371 11.28 L 11.429 11.225 L 11.531 11.113 L 11.674 10.94 L 11.807 10.761 L 11.934 10.578 L 12.051 10.393 L 12.159 10.201 L 12.261 10.006 L 12.447 9.613 L 12.589 9.236 L 12.651 9.044 L 12.676 8.949 L 12.71 8.847 Z " fill="rgb(27,68,142)"/></g></g></g><g><g><g><path d=" M 10.647 7.783 L 10.65 7.687 L 10.65 7.591 L 10.644 7.495 L 10.632 7.402 L 10.622 7.359 L 10.61 7.316 L 10.598 7.272 L 10.582 7.232 L 10.564 7.192 L 10.545 7.149 L 10.52 7.112 L 10.492 7.075 L 10.325 7.229 L 10.146 7.436 L 9.979 7.65 L 9.824 7.866 L 9.679 8.086 L 9.141 8.989 L 9.234 9.041 L 9.277 9.069 L 9.317 9.097 L 9.354 9.128 L 9.388 9.159 L 9.422 9.196 L 9.453 9.236 L 9.797 9.038 L 9.88 8.983 L 9.961 8.924 L 10.038 8.862 L 10.112 8.794 L 10.183 8.723 L 10.248 8.649 L 10.31 8.571 L 10.366 8.491 L 10.418 8.407 L 10.468 8.324 L 10.511 8.237 L 10.548 8.148 L 10.582 8.058 L 10.61 7.965 L 10.632 7.872 L 10.647 7.783 Z " fill="rgb(27,68,142)"/></g></g></g><g><g><g><path d=" M 9.45 10.98 L 9.478 10.813 L 9.497 10.64 L 9.506 10.461 L 9.503 10.281 L 9.484 10.105 L 9.469 10.019 L 9.45 9.935 L 9.426 9.855 L 9.398 9.774 L 9.367 9.7 L 9.33 9.626 L 9.274 9.641 L 9.215 9.654 L 9.153 9.666 L 9.092 9.675 L 8.968 9.688 L 8.909 9.691 L 8.853 9.691 L 8.38 10.717 L 8.124 11.222 L 7.842 11.713 L 7.756 11.855 L 7.657 12.001 L 7.44 12.292 L 7.227 12.548 L 7.06 12.737 L 7.156 12.765 L 7.252 12.786 L 7.347 12.802 L 7.443 12.811 L 7.539 12.814 L 7.635 12.811 L 7.728 12.802 L 7.821 12.786 L 7.91 12.765 L 8 12.74 L 8.086 12.709 L 8.173 12.675 L 8.257 12.638 L 8.337 12.595 L 8.417 12.548 L 8.492 12.499 L 8.587 12.428 L 8.677 12.353 L 8.761 12.273 L 8.841 12.189 L 8.989 12.013 L 9.119 11.825 L 9.228 11.627 L 9.32 11.419 L 9.395 11.206 L 9.45 10.98 Z " fill="rgb(27,68,142)"/></g></g></g><g><g><g><path d=" M 8.962 9.344 L 9.16 9.323 L 9.023 9.239 L 8.962 9.344 Z " fill="rgb(27,68,142)"/></g></g></g><g><g><g><path d=" M 8.356 8.992 L 8.356 8.992 L 8.356 8.992 L 8.356 8.992 L 8.356 8.992 L 8.356 8.992 L 8.356 8.992 L 8.356 8.992 L 8.349 8.989 L 8.34 8.986 L 8.328 8.983 L 8.312 8.976 L 8.294 8.973 L 8.269 8.967 L 8.241 8.964 L 8.207 8.958 L 8.192 8.955 L 8.176 8.952 L 8.161 8.952 L 8.145 8.952 L 8.13 8.955 L 8.114 8.958 L 8.102 8.961 L 8.09 8.967 L 8.077 8.973 L 8.065 8.983 L 8.052 8.992 L 8.043 9.001 L 8.034 9.014 L 8.025 9.026 L 8.018 9.035 L 8.012 9.044 L 8.006 9.054 L 8.003 9.063 L 8 9.072 L 7.997 9.082 L 7.994 9.091 L 7.994 9.1 L 7.994 9.109 L 7.994 9.119 L 7.997 9.128 L 8 9.137 L 8.003 9.146 L 8.006 9.156 L 8.009 9.165 L 8.015 9.174 L 8.022 9.19 L 8.031 9.202 L 8.04 9.215 L 8.049 9.227 L 8.059 9.236 L 8.071 9.245 L 8.083 9.255 L 8.096 9.264 L 8.124 9.276 L 8.151 9.289 L 8.179 9.301 L 8.204 9.313 L 8.356 8.992 Z " fill="rgb(27,68,142)"/></g></g></g><g><g><g><path d=" M 6.952 11.982 L 6.921 11.954 L 6.893 11.927 L 6.865 11.899 L 6.84 11.868 L 6.819 11.837 L 6.797 11.806 L 6.778 11.772 L 6.76 11.738 L 6.744 11.701 L 6.732 11.667 L 6.723 11.63 L 6.713 11.593 L 6.707 11.556 L 6.704 11.518 L 6.701 11.478 L 6.701 11.441 L 6.652 11.484 L 6.608 11.534 L 6.571 11.586 L 6.537 11.642 L 6.509 11.701 L 6.485 11.763 L 6.466 11.825 L 6.451 11.89 L 6.441 11.93 L 6.435 11.97 L 6.435 12.01 L 6.435 12.05 L 6.438 12.087 L 6.444 12.125 L 6.454 12.162 L 6.466 12.199 L 6.481 12.236 L 6.497 12.273 L 6.534 12.344 L 6.577 12.412 L 6.627 12.48 L 6.658 12.449 L 6.812 12.217 L 6.884 12.1 L 6.918 12.038 L 6.952 11.982 Z " fill="rgb(27,68,142)"/></g></g></g><g><g><g><path d=" M 14.698 9.462 L 14.729 9.317 L 14.751 9.177 L 14.76 9.048 L 14.757 8.927 L 14.754 8.871 L 14.745 8.819 L 14.735 8.769 L 14.723 8.723 L 14.707 8.68 L 14.686 8.642 L 14.664 8.608 L 14.639 8.577 L 14.636 8.577 L 14.633 8.577 L 14.63 8.577 L 14.627 8.577 L 14.621 8.581 L 14.612 8.587 L 14.59 8.602 L 14.565 8.624 L 14.51 8.683 L 14.448 8.751 L 14.333 8.884 L 14.296 8.927 L 14.287 8.939 L 14.284 8.942 L 14.284 8.942 L 14.284 8.942 L 14.284 8.942 L 14.284 8.942 L 14.284 8.942 L 14.021 9.313 L 13.9 9.505 L 13.789 9.7 L 13.687 9.898 L 13.6 10.102 L 13.526 10.309 L 13.47 10.526 L 13.449 10.64 L 13.443 10.699 L 13.44 10.758 L 13.44 10.785 L 13.443 10.813 L 13.446 10.841 L 13.452 10.869 L 13.461 10.897 L 13.47 10.925 L 13.486 10.949 L 13.501 10.974 L 13.514 10.986 L 13.526 10.999 L 13.542 11.008 L 13.557 11.014 L 13.573 11.021 L 13.588 11.024 L 13.607 11.027 L 13.622 11.03 L 13.641 11.03 L 13.656 11.027 L 13.671 11.024 L 13.687 11.021 L 13.702 11.014 L 13.718 11.008 L 13.733 11.002 L 13.749 10.996 L 13.783 10.98 L 13.817 10.959 L 13.851 10.934 L 13.885 10.906 L 13.953 10.844 L 14.018 10.773 L 14.08 10.696 L 14.138 10.615 L 14.244 10.461 L 14.377 10.216 L 14.5 9.972 L 14.556 9.845 L 14.609 9.719 L 14.655 9.589 L 14.698 9.462 Z " fill="rgb(27,68,142)"/></g></g></g></g></g></svg>