<?xml version="1.0" encoding="UTF-8" standalone="no"?><!-- Generator: Gravit.io --><svg xmlns="http://www.w3.org/2000/svg" xmlns:xlink="http://www.w3.org/1999/xlink" style="isolation:isolate" viewBox="0 0 18.04 22" width="18.04pt" height="22pt"><defs><clipPath id="_clipPath_HzI7l5S334nXKcTVkUapBnO8WZL7o1je"><rect width="18.04" height="22"/></clipPath></defs><g clip-path="url(#_clipPath_HzI7l5S334nXKcTVkUapBnO8WZL7o1je)"><path d=" M 13.789 6.837 C 13.675 6.489 13.547 6.222 13.268 5.943 C 12.988 5.663 12.709 5.504 12.448 5.346 C 12.187 5.189 11.986 5.078 11.665 4.974 C 11.345 4.869 11.071 4.803 10.734 4.75 C 10.396 4.697 10.107 4.663 9.765 4.676 C 9.423 4.688 9.075 4.676 8.721 4.769 C 8.367 4.862 8.23 4.885 7.864 5.011 C 7.498 5.137 7.19 5.278 6.858 5.458 C 6.525 5.639 6.219 5.854 5.963 6.054 C 5.708 6.255 5.55 6.401 5.293 6.688 C 5.035 6.975 4.808 7.321 4.659 7.582 C 4.51 7.843 4.38 8.272 4.324 8.626 C 4.268 8.98 4.212 9.557 4.286 10.005 C 4.361 10.452 4.409 10.556 4.547 10.825 C 4.686 11.093 4.835 11.31 5.032 11.533 C 5.229 11.756 5.394 11.917 5.665 12.092 C 5.937 12.266 6.179 12.394 6.485 12.502 C 6.791 12.609 7.086 12.692 7.38 12.725 C 7.673 12.758 7.937 12.766 8.218 12.781 C 8.5 12.796 8.728 12.797 9.019 12.762 C 9.31 12.728 9.548 12.693 9.839 12.613 C 10.131 12.533 10.286 12.464 10.659 12.352 C 11.032 12.241 11.268 12.142 11.553 11.98 C 11.839 11.818 12.063 11.649 12.299 11.421 C 12.534 11.192 12.663 11.029 12.821 10.787 L 10.361 10.75 C 10.269 10.909 10.305 10.862 10.063 11.179 C 9.821 11.495 9.895 11.439 9.597 11.663 C 9.299 11.887 9.001 11.905 8.665 11.943 C 8.33 11.98 7.976 11.961 7.585 11.719 C 7.193 11.477 6.914 11.104 6.821 10.657 C 6.727 10.21 6.789 9.873 6.821 9.595 C 6.852 9.316 6.882 9.106 6.97 8.812 C 7.057 8.518 7.161 8.265 7.268 7.992 C 7.374 7.719 7.467 7.541 7.64 7.247 C 7.814 6.953 7.957 6.725 8.237 6.483 C 8.516 6.241 8.554 6.185 8.814 6.017 C 9.075 5.849 9.206 5.772 9.411 5.719 C 9.615 5.666 9.802 5.626 10.137 5.663 C 10.473 5.7 10.704 5.783 10.845 5.905 C 10.987 6.028 11.145 6.152 11.237 6.315 C 11.329 6.478 11.387 6.644 11.404 6.837 L 13.789 6.837 Z " fill="rgb(255,255,255)"/></g></svg>