<?xml version="1.0" encoding="UTF-8" standalone="no"?><!-- Generator: Gravit.io --><svg xmlns="http://www.w3.org/2000/svg" xmlns:xlink="http://www.w3.org/1999/xlink" style="isolation:isolate" viewBox="0 0 24 24" width="24pt" height="24pt"><defs><clipPath id="_clipPath_I7Dc75cLFoiaj9vlGYyHNjfTtlvzMki9"><rect width="24" height="24"/></clipPath></defs><g clip-path="url(#_clipPath_I7Dc75cLFoiaj9vlGYyHNjfTtlvzMki9)"><g><g><path d=" M 4.644 10.238 L 4.644 11.132 L 5.026 11.132 C 5.532 11.132 5.68 11.086 5.912 10.855 C 6.106 10.664 6.186 10.479 6.186 10.223 C 6.186 9.886 5.992 9.575 5.686 9.424 C 5.535 9.35 5.498 9.344 5.085 9.344 L 4.644 9.344 L 4.644 10.238 Z  M 5.6 9.686 C 5.668 9.723 5.76 9.809 5.807 9.877 C 5.881 9.985 5.893 10.031 5.893 10.226 C 5.893 10.423 5.884 10.463 5.801 10.58 C 5.656 10.787 5.545 10.836 5.193 10.849 L 4.891 10.861 L 4.891 10.223 L 4.891 9.581 L 5.184 9.6 C 5.406 9.612 5.504 9.634 5.6 9.686 Z " fill="rgb(0,0,0)"/><path d=" M 10.72 9.671 C 10.72 9.97 10.717 9.994 10.668 9.973 C 10.637 9.96 10.526 9.942 10.418 9.936 C 10.254 9.927 10.205 9.936 10.088 10.004 C 9.659 10.257 9.708 10.892 10.171 11.086 C 10.319 11.145 10.47 11.145 10.627 11.083 C 10.745 11.037 10.757 11.037 10.809 11.083 C 10.84 11.111 10.893 11.132 10.93 11.132 L 10.998 11.132 L 10.998 10.238 L 10.998 9.344 L 10.859 9.344 L 10.72 9.344 L 10.72 9.671 Z  M 10.516 10.22 C 10.735 10.312 10.791 10.559 10.631 10.738 C 10.553 10.824 10.52 10.839 10.399 10.839 C 10.038 10.839 9.937 10.364 10.27 10.22 C 10.39 10.167 10.393 10.167 10.516 10.22 Z " fill="rgb(0,0,0)"/><path d=" M 12.392 9.424 C 12.077 9.578 11.864 9.964 11.901 10.321 C 11.96 10.892 12.571 11.274 13.095 11.074 C 13.187 11.037 13.305 10.972 13.357 10.932 L 13.45 10.855 L 13.351 10.756 C 13.255 10.661 13.249 10.661 13.191 10.713 C 13.055 10.836 12.808 10.883 12.598 10.824 C 12.466 10.787 12.262 10.59 12.213 10.448 C 12.012 9.899 12.595 9.405 13.11 9.692 L 13.255 9.775 L 13.345 9.704 C 13.447 9.624 13.453 9.596 13.382 9.538 C 13.123 9.328 12.691 9.279 12.392 9.424 Z " fill="rgb(0,0,0)"/><path d=" M 13.65 10.238 L 13.65 11.132 L 13.789 11.132 L 13.928 11.132 L 13.928 10.238 L 13.928 9.344 L 13.789 9.344 L 13.65 9.344 L 13.65 10.238 Z " fill="rgb(0,0,0)"/><path d=" M 15.686 10.238 L 15.686 11.132 L 15.825 11.132 L 15.963 11.132 L 15.963 10.238 L 15.963 9.344 L 15.825 9.344 L 15.686 9.344 L 15.686 10.238 Z " fill="rgb(0,0,0)"/><path d=" M 7.79 9.945 C 7.79 9.964 7.901 10.235 8.034 10.546 L 8.28 11.117 L 8.419 11.126 L 8.561 11.136 L 8.65 10.941 C 8.749 10.728 9.085 9.939 9.085 9.923 C 9.085 9.917 9.017 9.92 8.934 9.923 L 8.783 9.936 L 8.607 10.346 L 8.428 10.759 L 8.277 10.414 C 8.194 10.223 8.114 10.038 8.098 10.004 C 8.077 9.951 8.04 9.933 7.932 9.923 C 7.845 9.917 7.79 9.927 7.79 9.945 Z " fill="rgb(0,0,0)"/><path d=" M 17.475 9.936 C 17.475 9.948 17.586 10.223 17.724 10.546 L 17.974 11.132 L 18.116 11.132 L 18.261 11.132 L 18.344 10.941 L 18.425 10.75 L 18.477 10.87 C 18.505 10.938 18.542 11.025 18.557 11.065 C 18.582 11.126 18.603 11.136 18.73 11.126 L 18.875 11.117 L 19.115 10.55 C 19.248 10.238 19.356 9.973 19.356 9.957 C 19.356 9.942 19.294 9.93 19.22 9.93 L 19.085 9.93 L 18.906 10.352 C 18.767 10.679 18.721 10.759 18.702 10.713 C 18.69 10.682 18.61 10.494 18.526 10.3 L 18.375 9.945 L 18.224 9.927 C 18.144 9.917 18.073 9.911 18.067 9.914 C 18.064 9.917 18.107 10.031 18.162 10.164 L 18.267 10.408 L 18.193 10.577 L 18.119 10.747 L 18.079 10.654 C 18.058 10.602 18.011 10.5 17.974 10.423 C 17.94 10.346 17.879 10.207 17.835 10.112 C 17.758 9.939 17.755 9.936 17.616 9.927 C 17.539 9.92 17.475 9.923 17.475 9.936 Z " fill="rgb(0,0,0)"/><path d=" M 6.686 9.982 C 6.488 10.078 6.34 10.321 6.34 10.546 C 6.34 10.645 6.436 10.849 6.525 10.944 C 6.615 11.037 6.825 11.129 6.942 11.132 C 6.994 11.132 7.102 11.108 7.182 11.08 C 7.324 11.028 7.337 11.028 7.374 11.08 C 7.395 11.108 7.448 11.132 7.494 11.132 L 7.574 11.132 L 7.574 10.531 L 7.574 9.93 L 7.435 9.93 C 7.333 9.93 7.296 9.942 7.296 9.973 C 7.296 10.013 7.284 10.013 7.213 9.973 C 7.099 9.914 6.812 9.92 6.686 9.982 Z  M 7.145 10.247 C 7.219 10.294 7.296 10.435 7.296 10.525 C 7.296 10.639 7.17 10.802 7.056 10.836 C 6.843 10.895 6.636 10.747 6.636 10.534 C 6.636 10.257 6.911 10.102 7.145 10.247 Z " fill="rgb(0,0,0)"/><path d=" M 9.301 10.531 L 9.301 11.132 L 9.44 11.132 L 9.579 11.132 L 9.579 10.531 L 9.579 9.93 L 9.44 9.93 L 9.301 9.93 L 9.301 10.531 Z " fill="rgb(0,0,0)"/><path d=" M 14.205 10.3 C 14.205 10.605 14.215 10.691 14.264 10.787 C 14.415 11.083 14.733 11.203 15.038 11.083 C 15.155 11.037 15.168 11.037 15.22 11.083 C 15.251 11.111 15.303 11.132 15.34 11.132 C 15.408 11.132 15.408 11.126 15.408 10.531 L 15.408 9.93 L 15.269 9.93 L 15.131 9.93 L 15.131 10.281 C 15.131 10.614 15.127 10.639 15.05 10.728 C 14.952 10.849 14.804 10.88 14.659 10.809 C 14.511 10.738 14.483 10.654 14.483 10.269 L 14.483 9.93 L 14.344 9.93 L 14.205 9.93 L 14.205 10.3 Z " fill="rgb(0,0,0)"/><path d=" M 16.565 9.976 C 16.34 10.099 16.235 10.266 16.232 10.513 C 16.232 10.735 16.318 10.904 16.497 11.018 C 16.722 11.166 16.932 11.166 17.157 11.018 C 17.512 10.79 17.521 10.294 17.175 10.031 C 17.037 9.923 16.713 9.896 16.565 9.976 Z  M 17.003 10.244 C 17.077 10.281 17.166 10.442 17.166 10.54 C 17.166 10.642 17.034 10.806 16.926 10.836 C 16.602 10.929 16.361 10.543 16.593 10.303 C 16.713 10.176 16.83 10.161 17.003 10.244 Z " fill="rgb(0,0,0)"/></g><rect x="9.32" y="9.304" width="0.242" height="0.274" transform="matrix(1,0,0,1,0,0)" fill="rgb(0,0,0)"/></g></g></svg>