<?xml version="1.0" encoding="UTF-8" standalone="no"?>
<!-- Generator: Gravit.io -->

<svg
   style="isolation:isolate"
   viewBox="0 0 24 24"
   width="24pt"
   height="24pt"
   version="1.1"
   id="svg14176"
   sodipodi:docname="specsavers.svg"
   xml:space="preserve"
   xmlns:inkscape="http://www.inkscape.org/namespaces/inkscape"
   xmlns:sodipodi="http://sodipodi.sourceforge.net/DTD/sodipodi-0.dtd"
   xmlns="http://www.w3.org/2000/svg"
   xmlns:svg="http://www.w3.org/2000/svg"><sodipodi:namedview
     id="namedview14178"
     pagecolor="#ffffff"
     bordercolor="#000000"
     borderopacity="0.25"
     inkscape:showpageshadow="2"
     inkscape:pageopacity="0.0"
     inkscape:pagecheckerboard="0"
     inkscape:deskcolor="#d1d1d1"
     inkscape:document-units="pt"
     showgrid="false" /><defs
     id="defs13950" /><g
     transform="matrix(0.0013147,0,0,-0.0013147,4.1040777,13.895367)"
     fill="#000000"
     stroke="none"
     id="g14312"><path
       d="m 752.17587,4240 c -148,-25 -286,-97 -399,-210 -153,-151 -218,-298 -226,-505 -4,-99 -2,-135 16,-209 56,-233 226,-434 445,-525 67,-28 215,-61 272,-61 24,0 24,0 24,-126 0,-146 -12,-139 127.00003,-74 226,106 424,295 525,500 66,135 90,235 95,406 5,130 2,162 -16,235 -58,236 -239,443 -460,526 -127,48 -278.00003,64 -403.00003,43 z"
       id="path14250"
       style="fill:#00008f;fill-opacity:1" /><path
       d="m 2886.1759,3672 c -40,-37 -50,-88 -27,-136 21,-44 59,-66 115,-66 102,0 148,138 69,204 -45,38 -116,37 -157,-2 z"
       id="path14252" /><path
       d="m 9776.1759,3684 c -28,-19 -52,-65 -52,-99 0,-34 24,-80 52,-99 12,-9 40,-16 61,-16 112,0 166.0001,123 87,202 -23,23 -37,28 -77,28 -28,0 -58,-7 -71,-16 z"
       id="path14254" /><path
       d="m 1864.1759,3180 v -450 h 115 115 v 180 180 h 190 190 v -180 -180 h 115 115 v 450 450 h -115 -115 l -2,-167 -3,-168 -187,-3 -188,-2 v 170 170 h -115 -115 z"
       id="path14256" /><path
       d="m 3664.1759,3468 v -162 l -27,26 c -130,121 -347,67 -424,-105 -21,-45 -24,-67 -24,-172 0,-108 3,-125 26,-175 52,-110 136,-164 254,-164 75,0 118,15 168,62 l 27,26 v -37 -37 h 105 105 v 450 450 h -105 -105 z m -77,-262 c 72,-26 77,-37 77,-151 0,-85 -3,-104 -17,-117 -32,-28 -64,-40 -107,-40 -113,-2 -179,123 -127,239 19,41 40,58 90,74 36,10 41,10 84,-5 z"
       id="path14258" /><path
       d="m 4466.1759,3470 c 2,-88 2,-160 1,-160 -1,0 -17,14 -35,30 -35,32 -110,60 -163,60 -104,0 -203,-68 -251,-172 -26,-57 -29,-74 -29,-168 0,-139 19,-195 90,-267 41,-40 65,-55 110,-69 92,-26 187,-7 250,51 27,26 28,25 25,-17 l -2,-28 h 106 106 v 450 450 h -105 -106 z m -42,-279 35,-18 3,-114 3,-115 -38,-21 c -66,-37 -129,-35 -176,7 -66,58 -73,170 -15,236 49,55 111,63 188,25 z"
       id="path14260" /><path
       d="m 6734.1759,3180 v -450 h 115 115 v 180 180 h 190 190 v -180 -180 h 115 115 v 450 450 h -115 -115 v -170 -170 l -187,2 -188,3 -3,168 -2,167 h -115 -115 z"
       id="path14262" /><path
       d="m 5035.1759,3385 c -71,-20 -110,-45 -165,-106 -69,-77 -98,-188 -76,-295 31,-148 125,-237 280,-266 102,-19 255,11 325,65 19,15 19,17 -24,80 l -44,64 -46,-26 c -57,-32 -156,-36 -209,-8 -29,16 -72,69 -72,90 0,4 106,7 236,7 h 236 l -7,73 c -9,89 -35,161 -80,220 -71,93 -227,137 -354,102 z m 168,-163 c 34,-18 75,-77 65,-94 -3,-4 -63,-8 -135,-8 -119,0 -129,1 -129,19 0,26 38,71 74,87 43,19 85,17 125,-4 z"
       id="path14264" /><path
       d="m 5907.1759,3382 c -28,-10 -67,-31 -87,-46 l -36,-27 v 35 36 h -105 -105 v -325 -325 h 105 105 v 214 215 l 26,20 c 62,49 157,46 192,-6 14,-23 17,-57 20,-235 l 3,-208 h 100 99 v 262 c 0,245 -1,264 -21,305 -43,88 -178,127 -296,85 z"
       id="path14266" /><path
       d="m 7948.1759,3389 c -105,-25 -206,-120 -239,-226 -25,-79 -17,-193 19,-266 66,-135 222,-207 395,-180 61,10 149,42 189,71 19,13 -66,135 -88,126 -55,-25 -120,-43 -150,-43 -46,-1 -111,30 -138,64 -43,55 -43,55 209,55 h 232 l -6,79 c -9,142 -80,253 -194,303 -52,23 -168,32 -229,17 z m 150,-163 c 37,-16 76,-60 76,-87 0,-18 -10,-19 -129,-19 -72,0 -132,4 -135,8 -10,17 31,76 65,94 40,22 78,23 123,4 z"
       id="path14268" /><path
       d="m 8653.1759,3384 c -66,-20 -130,-81 -165,-156 -26,-57 -29,-73 -29,-173 0,-100 3,-116 29,-173 48,-104 147,-172 251,-172 53,0 128,28 163,60 18,16 35,30 38,30 2,0 2,-16 -1,-35 l -4,-35 h 104 105 v 325 325 h -103 -103 l 2,-35 c 2,-19 1,-35 -1,-35 -2,0 -19,14 -37,30 -59,55 -159,72 -249,44 z m 239,-191 c 46,-22 53,-41 51,-143 -2,-108 -14,-126 -102,-151 -103,-29 -198,85 -168,201 28,104 115,141 219,93 z"
       id="path14270" /><path
       d="m 9565.1759,3385 c -24,-7 -61,-27 -82,-44 -21,-17 -40,-31 -43,-31 -3,0 -6,16 -6,35 v 35 h -102 -103 v -325 -325 h 103 102 v 204 c 0,180 2,207 17,222 28,28 79,44 138,44 h 55 v 100 c 0,113 2,110 -79,85 z"
       id="path14272" /><path
       d="m 10459.176,3391 c -44,-11 -101,-40 -121,-62 -25,-28 -34,-24 -34,16 v 35 h -100 -100 v -325 -325 h 100 100 v 209 209 l 30,26 c 42,35 95,48 142,35 63,-16 68,-37 68,-274 v -205 h 105 105 v 248 c 0,141 -5,263 -11,285 -28,103 -153,159 -284,128 z"
       id="path14274" /><path
       d="m 11079.176,3391 c -145,-36 -223,-165 -213,-350 10,-177 102,-287 251,-298 81,-7 139,10 188,54 l 39,35 v -48 c 0,-121 -112,-182 -257,-139 -28,8 -62,24 -76,35 -14,11 -27,20 -30,20 -12,0 -88,-133 -83,-145 2,-7 33,-27 68,-44 105,-52 218,-64 336,-36 116,28 181,77 224,170 22,49 23,59 26,393 l 3,342 h -106 -105 v -36 -36 l -41,35 c -58,50 -142,68 -224,48 z m 188,-185 c 70,-26 77,-38 77,-142 v -92 l -35,-22 c -128,-79 -265,22 -226,167 6,22 20,48 30,57 19,17 85,45 106,45 6,0 27,-6 48,-13 z"
       id="path14276" /><path
       d="m 2864.1759,3055 v -325 h 105 105 v 325 325 h -105 -105 z"
       id="path14278" /><path
       d="m 9744.1759,3055 v -325 h 100 100 v 325 325 h -100 -100 z"
       id="path14280" /><path
       d="m 10867.176,2338 c -13,-16 -59,-157 -73,-223 -7,-30 -20,-57 -32,-67 -19,-14 -21,-19 -10,-43 7,-14 12,-45 12,-68 0,-44 24,-92 41,-82 5,4 9,27 9,51 0,57 23,79 104,104 49,16 57,16 52,3 -30,-78 -2,-153 57,-153 21,0 41,8 52,20 18,20 18,19 56,-15 46,-41 92,-47 110,-14 8,16 26,149 29,211 0,4 10,7 23,5 19,-2 22,3 25,35 3,33 -1,40 -30,58 -69,42 -86,15 -87,-138 -1,-66 -20,-142 -36,-142 -12,0 -44,45 -45,62 0,23 -19,33 -26,13 -4,-9 -19,-22 -35,-31 -34,-17 -37,-9 -16,52 8,22 17,54 20,72 6,28 3,34 -18,44 -19,8 -31,8 -48,0 -12,-6 -50,-13 -85,-16 l -62,-5 6,27 c 4,15 15,50 26,77 30,81 40,133 28,155 -12,23 -33,26 -47,8 z"
       id="path14282" /><path
       d="m 4900.1759,2277 c -83,-141 -116,-270 -82,-322 26,-39 59,-33 119,23 29,27 73,65 99,86 l 48,38 -6,-33 c -3,-19 -14,-61 -25,-94 -35,-111 -70,-275 -64,-296 4,-11 18,-25 32,-32 32,-15 45,4 39,58 -5,43 28,177 88,353 42,125 53,186 36,207 -15,18 -46,20 -53,3 -22,-59 -256,-292 -274,-274 -7,7 42,143 79,218 32,64 35,93 12,102 -23,9 -21,10 -48,-37 z"
       id="path14284" /><path
       d="m 6216.1759,2285 c -11,-13 -43,-86 -72,-162 -57,-151 -68,-220 -38,-249 18,-18 22,-15 113,87 l 29,34 6,-52 c 3,-30 13,-60 24,-72 26,-29 80,-28 100,1 15,21 16,21 35,4 38,-35 121,-36 143,-2 5,7 17,5 37,-7 38,-22 65,-12 114,42 28,31 37,37 37,22 0,-10 9,-30 21,-45 24,-30 71,-35 106,-11 18,13 22,12 38,-5 22,-24 35,-26 35,-4 0,26 69,142 101,169 32,26 49,32 49,15 0,-14 27,-13 36,2 11,17 -34,48 -70,48 -18,0 -41,-7 -52,-15 -27,-20 -32,-19 -36,12 -2,17 -10,29 -20,31 -13,2 -18,-6 -23,-35 -3,-21 -13,-70 -21,-109 -14,-70 -16,-71 -53,-83 -21,-6 -42,-11 -46,-11 -11,0 2,111 19,161 19,54 8,69 -47,67 -53,-2 -110,-45 -163,-125 -23,-34 -44,-67 -46,-73 -5,-15 -88,-24 -105,-12 -9,6 2,23 41,63 63,66 76,101 48,138 -10,14 -26,27 -35,29 -40,8 -137,-127 -137,-190 0,-17 -8,-31 -19,-38 -40,-21 -44,-14 -37,56 6,55 4,70 -10,85 -26,29 -57,23 -108,-22 -25,-22 -46,-38 -46,-35 0,2 25,62 55,132 58,135 62,153 43,172 -17,17 -24,15 -46,-13 z m 492,-294 c -16,-22 -33,-41 -37,-41 -10,0 -3,13 31,58 35,46 40,31 6,-17 z"
       id="path14286" /><path
       d="m 7202.1759,2233 c -24,-6 -22,-19 6,-48 40,-40 72,-14 46,36 -11,19 -19,21 -52,12 z"
       id="path14288" /><path
       d="m 8138.1759,2232 c -18,-6 -20,-11 -13,-30 9,-24 49,-45 62,-32 5,4 7,20 5,36 -3,30 -18,37 -54,26 z"
       id="path14290" /><path
       d="m 11042.176,2233 c -26,-6 -22,-28 8,-52 31,-25 56,-18 50,15 -8,43 -16,48 -58,37 z"
       id="path14292" /><path
       d="m 10075.176,2138 c -30,-93 -37,-117 -57,-208 -22.0001,-101 -22.0001,-100 -64.0001,-86 -38,12 -57,42 -67,102 -5,33 -2,40 57,99 41,41 61.0001,69 58.0001,81 -6.0001,34 -38.0001,28 -84.0001,-17 l -43,-43 -21,27 c -12,15 -29,27 -39,27 -15,0 -16,-7 -11,-56 l 6,-56 -50,-55 c -28,-31 -52,-51 -54,-45 -2,8 -11,8 -28,1 -34,-12 -81,-12 -89,2 -4,5 16,34 44,63 68,73 79,124 31,154 -40,25 -96,-24 -140,-120 -11,-24 -20,-55 -20,-70 0,-57 83,-109 137,-85 18,8 27,6 41,-6 10,-10 22,-17 25,-17 12,0 91,61 100,76 11,20 35,17 42,-5 9,-30 73,-81 101,-81 24,0 25,-2 19,-43 -6,-40 -5,-44 19,-55 21.0001,-9 28.0001,-9 31.0001,1 2,6 16,55 31,107 14,52 32,107 40,121 27,54 124,119 107,72 -13,-36 -36,-63 -69,-84 -19,-11 -34,-25 -34,-30 0,-15 39,-49 57,-49 25,0 110,94 121,134 14,50 5,72 -36,92 -35,16 -38,16 -75,-4 l -39,-21 6,25 c 16,63 17,83 7,103 -20,37 -36,23 -60,-51 z"
       id="path14294" /><path
       d="m 8311.1759,2158 c -3,-13 -9,-68 -12,-123 -6,-97 -19,-155 -35,-155 -11,0 -45,53 -42,67 5,25 -18,22 -46,-7 -34,-33 -57,-39 -49,-12 40,141 40,141 27,157 -7,8 -22,15 -35,15 -27,0 -53,-58 -62,-135 -4,-41 -1,-55 17,-77 26,-34 78,-38 104,-9 18,19 19,19 53,-15 27,-28 41,-34 66,-32 43,4 58,39 65,150 4,83 6,88 25,82 45,-14 50,53 6,90 -39,33 -75,34 -82,4 z"
       id="path14296" /><path
       d="m 7326.1759,2077 c -19,-45 -37,-91 -42,-102 -4,-11 -27,-31 -50,-44 l -43,-24 5,24 c 3,13 13,51 22,83 18,68 10,89 -33,84 -22,-3 -29,-13 -49,-76 -26,-78 -24,-110 8,-142 26,-26 68,-25 98,3 l 24,22 15,-22 c 24,-36 49,-28 91,30 21,28 46,58 55,66 15,12 17,10 17,-13 0,-48 30,-106 59,-112 14,-3 31,-7 38,-9 6,-2 19,5 29,16 15,16 19,17 33,5 34,-29 46,-24 120,48 41,39 71,63 67,52 -23,-67 -59,-233 -63,-296 -5,-64 -3,-78 14,-98 13,-16 27,-23 43,-20 l 25,3 -22,19 c -26,23 -28,12 39,286 l 50,204 -24,18 c -12,10 -31,25 -40,34 -11,11 -26,14 -42,10 -26,-6 -120,-108 -152,-164 -22,-39 -82,-70 -96,-50 -4,7 -5,36 -2,64 8,68 -13,104 -62,104 -23,0 -38,-6 -46,-20 -22,-34 -27,-22 -12,27 15,49 12,57 -21,67 -17,5 -25,-6 -53,-77 z m 452,-26 c 3,-4 -19,-35 -49,-67 -64,-70 -71,-60 -14,19 39,56 52,66 63,48 z"
       id="path14298" /><path
       d="m 10381.176,2110 c -45,-39 -87,-122 -87,-172 0,-43 27,-74 75,-87 45,-12 115,17 115,48 0,6 5,11 10,11 6,0 10,-6 10,-14 0,-16 26,-46 39,-46 5,0 11,13 14,29 7,35 65,127 101,160 20,19 28,21 39,12 15,-12 47,-5 47,10 0,16 -45,39 -78,39 -18,0 -44,-7 -57,-16 -24,-15 -25,-15 -25,4 0,24 -27,49 -39,36 -4,-5 -14,-48 -20,-95 -7,-47 -16,-90 -19,-97 -17,-26 -102,-41 -130,-23 -10,6 0,22 41,62 64,64 77,101 49,138 -27,36 -45,37 -85,1 z"
       id="path14300" /><path
       d="m 11443.176,2123 c -54,-33 -116,-157 -104,-206 19,-76 149,-93 189,-25 l 16,27 -32,-10 c -41,-11 -69,-11 -88,1 -12,8 -5,19 38,63 29,29 56,67 61,84 8,28 6,36 -16,57 -30,30 -30,30 -64,9 z"
       id="path14302" /><path
       d="m 5274.1759,2117 c -14,-8 -24,-20 -22,-27 2,-7 -6,-22 -17,-34 -23,-25 -71,-114 -71,-132 0,-7 12,-26 26,-43 39,-46 73,-42 136,17 87,81 93,129 25,200 -35,36 -41,37 -77,19 z m 55,-94 c -9,-38 -41,-80 -65,-86 -26,-7 -26,-5 15,58 38,60 62,73 50,28 z"
       id="path14304" /><path
       d="m 5498.1759,2122 c -16,-11 -60,-96 -79,-152 -20,-61 -15,-92 21,-110 25,-14 27,-13 71,38 48,56 63,64 63,32 0,-12 11,-32 25,-45 28,-29 85,-34 105,-10 12,14 15,13 35,-5 26,-24 35,-25 35,-4 0,26 69,142 101,169 32,26 49,32 49,16 0,-13 33,-7 37,6 6,17 -38,43 -72,43 -17,0 -40,-7 -51,-15 -20,-15 -38,-20 -31,-7 8,13 -12,52 -27,52 -10,0 -17,-14 -21,-37 -4,-21 -12,-65 -18,-98 -12,-58 -13,-59 -55,-72 -55,-16 -60,-5 -33,68 12,30 21,59 21,65 0,10 -50,39 -54,32 -27,-41 -84,-112 -116,-143 -38,-36 -41,-37 -35,-15 4,14 25,58 46,99 30,57 36,77 28,88 -13,14 -28,17 -45,5 z"
       id="path14306" /><path
       d="m 8694.1759,2117 c -14,-8 -24,-20 -22,-27 2,-7 -8,-25 -22,-39 -27,-28 -65,-106 -66,-132 0,-27 50,-69 82,-69 23,0 43,14 89,59 53,54 59,64 59,102 0,35 -6,47 -39,80 -43,43 -46,44 -81,26 z m 56,-93 c -9,-35 -36,-70 -63,-83 -28,-13 -29,-8 -1,38 43,72 76,95 64,45 z"
       id="path14308" /><path
       d="m 8908.1759,2113 c -24,-25 -72,-133 -80,-181 -5,-32 -2,-44 15,-61 12,-12 27,-21 34,-21 6,0 31,23 55,50 46,53 62,61 62,31 0,-10 9,-30 21,-45 24,-30 71,-35 106,-11 18,13 22,12 38,-5 22,-24 35,-26 35,-3 0,27 68,139 101,167 32,27 49,33 49,16 0,-14 27,-13 36,2 22,34 -98,66 -126,33 -17,-20 -30,-19 -30,4 0,10 -7,24 -16,32 -20,16 -33,-2 -35,-46 0,-16 -6,-55 -12,-85 -12,-52 -13,-55 -55,-67 -56,-16 -63,-1 -33,71 27,66 27,72 -8,84 -28,10 -31,8 -65,-43 -34,-49 -98,-115 -111,-115 -10,0 5,38 41,102 36,64 41,101 13,106 -9,2 -25,-5 -35,-15 z"
       id="path14310" /></g></svg>
