<?xml version="1.0" encoding="UTF-8" standalone="no"?><!-- Generator: Gravit.io --><svg xmlns="http://www.w3.org/2000/svg" xmlns:xlink="http://www.w3.org/1999/xlink" style="isolation:isolate" viewBox="0 0 16.4 20" width="16.4pt" height="20pt"><defs><clipPath id="_clipPath_YlMPqQnsTF6EqyWssZQsl6T6RDgtKBCe"><rect width="16.4" height="20"/></clipPath></defs><g clip-path="url(#_clipPath_YlMPqQnsTF6EqyWssZQsl6T6RDgtKBCe)"><g><path d=" M 5.544 6.516 C 5.544 4.615 6.822 3.708 7.312 3 C 6.991 3.235 3.2 4.158 3.2 8 C 3.2 10.746 5.454 13 8.2 13 C 12.042 13 12.96 9.216 13.2 8.889 C 12.539 9.346 11.583 10.656 9.665 10.656 C 7.403 10.656 5.544 8.777 5.544 6.516 Z " fill="rgb(255,255,255)"/><path d=" M 11.349 4.545 L 10.544 3 L 9.755 4.547 L 7.995 4.806 L 9.271 6.046 L 8.973 7.82 L 10.544 6.989 L 12.142 7.814 L 11.839 6.042 L 13.111 4.798 L 11.349 4.545 Z " fill="rgb(255,255,255)"/></g></g></svg>