<?xml version="1.0" encoding="utf-8"?>
<svg style="isolation:isolate" viewBox="0 0 18 21.951" width="18pt" height="21.951pt" xmlns="http://www.w3.org/2000/svg">
  <defs>
    <clipPath id="_clipPath_zs5pyumE8i1quYGpI0Pp1acM9DWUh7A6">
      <rect width="123" height="150"/>
    </clipPath>
  </defs>
  <g clip-path="url(#_clipPath_zs5pyumE8i1quYGpI0Pp1acM9DWUh7A6)" transform="matrix(0.148442, 0, 0, 0.148442, -0.260896, -0.614588)">
    <g>
      <path d=" M 58.723 17.088 C 58.366 17.133 58.123 17.222 57.974 17.362 C 57.804 17.522 57.593 17.585 57.046 17.641 C 54.592 17.89 53.589 18.013 52.742 18.169 C 49.82 18.707 49.779 18.718 49.283 19.047 C 48.97 19.255 47.642 19.543 46.984 19.546 C 46.679 19.548 46.564 19.599 45.934 20.02 C 45.73 20.156 45.366 20.316 45.125 20.375 C 44.883 20.434 44.461 20.593 44.185 20.727 C 43.91 20.862 43.48 21.025 43.229 21.09 C 42.979 21.155 42.616 21.331 42.423 21.481 C 42.23 21.631 41.815 21.844 41.501 21.954 C 41.188 22.063 40.783 22.274 40.603 22.423 C 40.422 22.572 40.078 22.764 39.837 22.851 C 39.597 22.937 39.297 23.104 39.171 23.221 C 39.045 23.338 38.796 23.481 38.618 23.54 C 38.44 23.599 38.135 23.782 37.94 23.947 C 37.52 24.303 37.133 24.52 36.789 24.593 C 36.651 24.622 36.539 24.703 36.539 24.772 C 36.539 24.841 36.315 25.046 36.042 25.228 C 35.769 25.409 35.521 25.596 35.492 25.644 C 35.463 25.691 35.225 25.873 34.964 26.047 C 34.704 26.221 34.35 26.493 34.177 26.652 C 34.005 26.81 33.752 26.979 33.616 27.026 C 33.479 27.074 33.272 27.253 33.155 27.424 C 33.039 27.594 32.834 27.779 32.701 27.835 C 32.567 27.89 32.41 28.051 32.351 28.193 C 32.293 28.334 32.125 28.5 31.978 28.561 C 31.831 28.622 31.617 28.779 31.503 28.91 C 31.389 29.041 31.162 29.244 30.999 29.36 C 30.699 29.574 30.154 30.128 29.423 30.965 C 29.206 31.213 28.845 31.604 28.619 31.833 C 28.394 32.063 28.16 32.36 28.1 32.493 C 28.039 32.626 27.87 32.797 27.724 32.873 C 27.577 32.949 27.432 33.111 27.401 33.234 C 27.371 33.356 27.22 33.573 27.066 33.715 C 26.912 33.857 26.724 34.092 26.646 34.238 C 26.481 34.55 26.42 34.626 25.911 35.161 C 25.698 35.384 25.524 35.608 25.524 35.657 C 25.524 35.707 25.386 35.901 25.218 36.089 C 25.049 36.277 24.881 36.533 24.844 36.658 C 24.807 36.784 24.643 37.029 24.48 37.205 C 24.317 37.38 24.107 37.743 24.013 38.013 C 23.918 38.282 23.747 38.59 23.633 38.696 C 23.453 38.862 22.975 39.742 22.975 39.907 C 22.975 39.939 22.857 40.153 22.713 40.383 C 22.568 40.612 22.398 40.963 22.335 41.163 C 22.271 41.362 22.083 41.669 21.915 41.845 C 21.748 42.021 21.611 42.212 21.611 42.268 C 21.609 42.521 21.224 43.543 21.068 43.71 C 20.972 43.812 20.792 44.209 20.667 44.593 C 20.542 44.977 20.338 45.509 20.215 45.776 C 20.091 46.043 19.948 46.514 19.896 46.823 C 19.8 47.391 19.488 48.128 19.342 48.128 C 19.2 48.128 19.139 48.425 18.965 49.983 C 18.837 51.133 18.745 51.615 18.598 51.895 C 18.348 52.374 18.214 52.898 17.971 54.348 C 17.762 55.587 17.614 65.873 17.79 66.88 C 18.199 69.225 18.245 69.416 18.572 70.121 C 18.716 70.429 18.805 70.826 18.839 71.304 C 18.924 72.514 19.149 73.643 19.341 73.823 C 19.591 74.057 19.854 74.683 19.924 75.209 C 19.957 75.459 20.021 75.746 20.067 75.846 C 20.113 75.946 20.271 76.407 20.419 76.87 C 20.654 77.608 20.954 78.2 21.168 78.352 C 21.233 78.397 21.321 78.704 21.534 79.624 C 21.587 79.849 21.701 80.116 21.787 80.216 C 22.008 80.47 22.305 80.992 22.384 81.263 C 22.42 81.388 22.551 81.624 22.673 81.787 C 22.795 81.95 23.019 82.319 23.17 82.606 C 23.321 82.893 23.523 83.201 23.619 83.29 C 23.714 83.379 23.82 83.564 23.854 83.7 C 23.952 84.093 24.262 84.599 24.67 85.032 C 24.726 85.091 24.8 85.229 24.835 85.338 C 24.87 85.447 25.039 85.705 25.211 85.912 C 25.383 86.118 25.524 86.336 25.524 86.396 C 25.524 86.519 25.748 86.837 26.036 87.124 C 26.253 87.34 26.617 87.984 26.617 88.152 C 26.617 88.212 26.729 88.315 26.865 88.381 C 27.002 88.447 27.197 88.628 27.298 88.785 C 27.399 88.941 27.615 89.161 27.777 89.274 C 27.94 89.386 28.073 89.538 28.073 89.611 C 28.073 89.683 28.227 89.903 28.414 90.099 C 28.602 90.294 28.858 90.597 28.983 90.772 C 29.109 90.946 29.242 91.09 29.28 91.091 C 29.318 91.093 29.916 91.657 30.609 92.345 C 32.222 93.948 32.426 94.132 32.783 94.315 C 32.945 94.398 33.145 94.568 33.226 94.692 C 33.308 94.817 33.505 94.981 33.664 95.056 C 33.822 95.131 34.025 95.315 34.113 95.464 C 34.201 95.614 34.32 95.736 34.377 95.736 C 34.497 95.736 35.116 96.144 35.438 96.435 C 35.559 96.544 35.834 96.724 36.051 96.835 C 36.267 96.946 36.506 97.131 36.58 97.245 C 36.655 97.359 36.809 97.48 36.923 97.515 C 37.037 97.55 37.294 97.711 37.495 97.872 C 37.859 98.166 38.296 98.395 38.723 98.518 C 38.849 98.553 39.086 98.7 39.251 98.844 C 39.416 98.988 39.787 99.225 40.075 99.37 C 40.364 99.516 40.652 99.698 40.715 99.774 C 40.778 99.85 40.95 99.938 41.098 99.971 C 41.245 100.003 41.566 100.187 41.81 100.38 C 42.09 100.602 42.416 100.764 42.696 100.822 C 43.677 101.023 43.97 101.128 44.231 101.372 C 44.381 101.512 44.709 101.679 44.959 101.742 C 45.579 101.899 46.496 102.22 46.552 102.3 C 46.578 102.336 46.852 102.411 47.163 102.467 C 47.761 102.576 47.924 102.645 48.517 103.045 C 48.905 103.307 49.104 103.342 51.376 103.556 C 52.1 103.624 52.476 103.71 52.924 103.911 C 53.249 104.057 53.68 104.203 53.88 104.234 C 54.08 104.266 54.674 104.363 55.2 104.449 C 56.025 104.583 56.896 104.605 61.572 104.606 C 67.599 104.608 67.563 104.611 69.226 103.925 C 69.684 103.737 70.138 103.636 70.838 103.566 C 73.102 103.342 73.861 103.204 73.861 103.018 C 73.861 102.902 74.778 102.576 75.431 102.459 C 75.769 102.399 76.045 102.321 76.045 102.285 C 76.045 102.25 76.178 102.171 76.341 102.11 C 76.504 102.049 76.719 101.965 76.819 101.922 C 76.919 101.881 77.229 101.783 77.509 101.706 C 77.788 101.629 78.089 101.486 78.178 101.387 C 78.342 101.205 79.163 100.907 79.811 100.793 C 80.025 100.755 80.281 100.616 80.463 100.439 C 80.628 100.279 80.92 100.092 81.112 100.024 C 81.304 99.956 81.628 99.789 81.831 99.654 C 82.033 99.518 82.34 99.359 82.512 99.299 C 82.683 99.239 82.947 99.072 83.098 98.927 C 83.25 98.783 83.635 98.559 83.956 98.43 C 84.276 98.301 84.591 98.12 84.656 98.028 C 84.72 97.936 85.035 97.731 85.354 97.574 C 85.674 97.417 86.014 97.201 86.111 97.094 C 86.207 96.987 86.429 96.825 86.605 96.734 C 86.78 96.643 87.039 96.442 87.181 96.288 C 87.323 96.135 87.491 96.009 87.554 96.009 C 87.617 96.009 87.809 95.875 87.979 95.711 C 88.149 95.547 88.453 95.291 88.653 95.144 C 88.853 94.996 89.24 94.68 89.513 94.441 C 89.786 94.202 90.056 94.007 90.113 94.007 C 90.17 94.007 90.264 93.903 90.321 93.776 C 90.379 93.65 90.56 93.467 90.723 93.369 C 90.886 93.272 91.115 93.05 91.232 92.877 C 91.348 92.704 91.563 92.521 91.71 92.47 C 91.856 92.419 91.975 92.312 91.975 92.231 C 91.975 92.068 92.503 91.549 92.669 91.549 C 92.727 91.549 92.798 91.456 92.827 91.342 C 92.855 91.228 93.042 91.033 93.242 90.909 C 93.442 90.785 93.654 90.57 93.713 90.431 C 93.772 90.292 93.938 90.094 94.083 89.991 C 94.228 89.888 94.425 89.654 94.521 89.47 C 94.617 89.287 94.831 88.989 94.997 88.808 C 95.162 88.627 95.359 88.384 95.434 88.267 C 95.51 88.149 95.728 87.908 95.92 87.731 C 96.113 87.553 96.324 87.278 96.39 87.119 C 96.457 86.96 96.597 86.784 96.701 86.728 C 96.806 86.672 96.952 86.481 97.026 86.303 C 97.101 86.126 97.281 85.829 97.428 85.644 C 97.575 85.458 97.797 85.114 97.922 84.878 C 98.048 84.642 98.272 84.347 98.421 84.222 C 98.58 84.088 98.715 83.867 98.749 83.684 C 98.781 83.514 98.868 83.324 98.942 83.263 C 99.015 83.202 99.076 83.102 99.076 83.041 C 99.076 82.979 99.158 82.855 99.258 82.764 C 99.358 82.673 99.485 82.434 99.539 82.232 C 99.594 82.03 99.774 81.698 99.941 81.495 C 100.108 81.292 100.274 81.002 100.312 80.852 C 100.429 80.378 100.687 79.845 100.924 79.589 C 101.05 79.453 101.203 79.129 101.264 78.868 C 101.325 78.608 101.405 78.354 101.442 78.304 C 101.478 78.254 101.538 78.09 101.573 77.94 C 101.609 77.79 101.697 77.603 101.767 77.524 C 101.838 77.445 101.937 77.166 101.986 76.904 C 102.038 76.631 102.214 76.22 102.398 75.944 C 102.663 75.544 102.735 75.328 102.813 74.697 C 102.959 73.522 103.148 72.717 103.317 72.548 C 103.561 72.304 103.706 71.868 103.849 70.959 C 103.922 70.493 104.048 69.722 104.128 69.247 C 104.37 67.823 104.624 65.089 104.571 64.485 C 104.512 63.813 104.702 63.002 105.038 62.495 C 105.353 62.018 105.376 60.528 105.076 59.994 C 104.756 59.423 104.561 58.23 104.504 56.478 C 104.475 55.588 104.409 54.783 104.359 54.69 C 104.309 54.596 104.225 54.115 104.172 53.622 C 103.835 50.482 103.697 49.744 103.361 49.321 C 103.074 48.958 102.967 48.578 102.813 47.376 C 102.753 46.911 102.657 46.645 102.418 46.284 C 102.244 46.022 102.072 45.663 102.034 45.488 C 101.997 45.313 101.833 44.883 101.67 44.532 C 101.507 44.182 101.323 43.68 101.262 43.417 C 101.194 43.122 101.071 42.875 100.944 42.775 C 100.705 42.588 100.351 41.902 100.349 41.625 C 100.347 41.424 100.285 41.303 99.828 40.609 C 99.667 40.364 99.533 40.074 99.533 39.965 C 99.531 39.856 99.428 39.646 99.303 39.496 C 99.047 39.192 98.716 38.512 98.714 38.282 C 98.712 38.199 98.578 38.019 98.416 37.883 C 98.253 37.746 98.025 37.445 97.91 37.214 C 97.794 36.984 97.648 36.754 97.585 36.704 C 97.393 36.551 96.982 35.897 96.982 35.744 C 96.982 35.664 96.839 35.473 96.663 35.318 C 96.488 35.162 96.345 34.955 96.345 34.857 C 96.345 34.756 96.208 34.586 96.026 34.463 C 95.851 34.344 95.683 34.173 95.655 34.083 C 95.625 33.993 95.452 33.761 95.268 33.566 C 95.084 33.372 94.804 33.056 94.646 32.865 C 94.488 32.673 94.239 32.394 94.093 32.244 C 93.947 32.093 93.75 31.837 93.656 31.675 C 93.561 31.512 93.454 31.379 93.418 31.379 C 93.382 31.379 93.251 31.266 93.128 31.128 C 93.004 30.991 92.694 30.655 92.439 30.382 C 92.184 30.11 91.975 29.843 91.975 29.79 C 91.975 29.737 91.842 29.635 91.68 29.564 C 91.517 29.492 91.199 29.263 90.974 29.055 C 89.861 28.027 89.152 27.39 88.798 27.1 C 88.584 26.925 88.227 26.608 88.005 26.395 C 87.783 26.182 87.542 26.008 87.469 26.008 C 87.397 26.008 87.211 25.869 87.057 25.7 C 86.903 25.53 86.666 25.369 86.531 25.342 C 86.396 25.314 86.137 25.155 85.955 24.987 C 85.773 24.819 85.396 24.571 85.119 24.435 C 84.841 24.299 84.589 24.108 84.558 24.01 C 84.523 23.899 84.308 23.761 83.983 23.641 C 83.698 23.535 83.308 23.324 83.117 23.172 C 82.926 23.02 82.639 22.859 82.48 22.814 C 82.32 22.77 82.027 22.589 81.829 22.411 C 81.602 22.209 81.248 22.022 80.873 21.907 C 80.546 21.806 80.11 21.604 79.904 21.457 C 79.697 21.31 79.329 21.146 79.084 21.092 C 78.605 20.988 78.085 20.774 77.866 20.592 C 77.791 20.529 77.504 20.426 77.229 20.362 C 76.72 20.244 76.422 20.098 76.085 19.801 C 75.913 19.65 75.447 19.558 73.629 19.315 C 73.417 19.287 73.158 19.171 73.019 19.042 C 72.885 18.918 72.721 18.817 72.654 18.817 C 72.587 18.817 72.493 18.781 72.445 18.737 C 72.25 18.558 69.037 18.01 67.033 17.814 C 65.254 17.64 64.864 17.57 64.509 17.359 C 63.97 17.04 60.404 16.872 58.723 17.088 Z  M 60.097 38.698 C 60.988 39.162 61.065 40.141 60.395 42.484 C 60.085 43.568 60.048 43.817 59.982 45.215 C 59.913 46.682 59.739 47.62 59.484 47.898 C 59.058 48.364 58.798 49.329 58.667 50.931 C 58.621 51.497 58.544 52.009 58.496 52.069 C 58.449 52.129 58.38 52.343 58.344 52.543 C 58.308 52.743 58.2 53.081 58.104 53.294 C 58.009 53.507 57.847 53.867 57.744 54.096 C 57.641 54.324 57.517 54.867 57.467 55.302 C 57.349 56.345 57.147 57.195 56.948 57.492 C 56.708 57.848 56.598 58.113 56.378 58.869 C 56.096 59.835 55.693 60.903 55.329 61.647 C 55.158 61.997 55.018 62.376 55.018 62.488 C 55.018 62.831 54.702 63.541 54.406 63.864 C 54.251 64.032 54.074 64.36 54.011 64.592 C 53.876 65.091 53.555 65.82 53.452 65.863 C 53.412 65.88 53.378 65.942 53.376 66 C 53.374 66.094 53.164 66.536 52.72 67.381 C 52.641 67.531 52.484 67.869 52.371 68.131 C 52.258 68.394 52.076 68.667 51.968 68.738 C 51.86 68.809 51.598 69.218 51.387 69.646 C 51.175 70.075 50.968 70.447 50.926 70.472 C 50.885 70.498 50.824 70.625 50.792 70.754 C 50.759 70.883 50.61 71.124 50.459 71.289 C 50.309 71.454 50.06 71.789 49.905 72.034 C 49.646 72.444 49.386 72.771 48.646 73.616 C 48.492 73.791 48.288 74.066 48.192 74.226 C 48.096 74.386 47.913 74.585 47.785 74.668 C 47.658 74.752 47.553 74.871 47.553 74.932 C 47.553 75.306 45.02 77.854 44.479 78.025 C 44.365 78.061 44.205 78.191 44.124 78.315 C 44.043 78.438 43.802 78.642 43.589 78.767 C 43.375 78.892 43.134 79.096 43.053 79.219 C 42.972 79.341 42.855 79.442 42.791 79.442 C 42.727 79.442 42.431 79.649 42.133 79.902 C 41.835 80.155 41.427 80.436 41.227 80.527 C 41.027 80.617 40.763 80.8 40.642 80.932 C 40.521 81.064 40.385 81.172 40.341 81.172 C 40.297 81.172 40.069 81.258 39.834 81.364 C 39.598 81.47 39.241 81.631 39.039 81.721 C 38.837 81.812 38.56 81.915 38.424 81.949 C 38.287 81.983 38.153 82.047 38.126 82.092 C 38.098 82.136 37.999 82.173 37.906 82.173 C 37.813 82.173 37.62 82.268 37.479 82.384 C 37.003 82.773 36.59 82.897 35.435 82.995 C 34.129 83.105 34.105 83.111 33.444 83.432 C 32.107 84.08 30.171 83.741 29.634 82.765 C 29.307 82.169 29.518 78.826 29.988 77.166 C 30.08 76.841 30.181 76.349 30.212 76.074 C 30.243 75.799 30.307 75.471 30.354 75.346 C 30.401 75.221 30.495 74.682 30.564 74.148 C 30.758 72.638 30.999 72.405 32.488 72.299 C 32.989 72.263 33.521 72.182 33.671 72.119 C 33.822 72.056 34.231 71.892 34.582 71.756 C 34.932 71.619 35.285 71.448 35.366 71.375 C 35.447 71.303 35.829 71.143 36.214 71.021 C 36.702 70.866 37.04 70.689 37.322 70.441 C 37.546 70.244 37.901 69.999 38.112 69.896 C 38.444 69.735 38.837 69.436 39.361 68.947 C 39.436 68.877 39.574 68.712 39.667 68.581 C 39.761 68.449 39.914 68.318 40.009 68.288 C 40.103 68.258 40.18 68.18 40.18 68.115 C 40.18 68.051 40.336 67.818 40.526 67.598 C 40.716 67.378 41.05 66.932 41.268 66.607 C 41.486 66.281 41.691 65.995 41.723 65.97 C 41.755 65.945 41.893 65.731 42.029 65.496 C 42.165 65.261 42.352 65.015 42.444 64.95 C 42.598 64.842 43.093 63.887 43.093 63.699 C 43.093 63.654 43.129 63.605 43.174 63.588 C 43.218 63.571 43.423 63.196 43.628 62.753 C 43.834 62.311 44.084 61.845 44.185 61.717 C 44.285 61.589 44.369 61.418 44.37 61.338 C 44.372 61.257 44.453 61.027 44.549 60.827 C 44.646 60.626 44.727 60.414 44.728 60.355 C 44.73 60.296 44.797 60.182 44.877 60.102 C 45.039 59.94 45.399 59.002 45.493 58.496 C 45.526 58.316 45.661 57.948 45.792 57.677 C 45.923 57.407 46.101 56.94 46.188 56.639 C 46.275 56.339 46.453 55.872 46.584 55.601 C 46.729 55.3 46.862 54.806 46.925 54.327 C 46.981 53.897 47.058 53.503 47.096 53.453 C 47.133 53.403 47.193 53.239 47.229 53.089 C 47.265 52.939 47.357 52.747 47.433 52.662 C 47.608 52.468 47.877 51.446 47.956 50.677 C 48.094 49.312 48.434 47.743 48.803 46.763 C 49.277 45.502 49.277 45.503 49.377 43.167 C 49.524 39.756 49.685 39.274 50.853 38.755 C 51.37 38.525 59.667 38.474 60.097 38.698 Z  M 80.096 38.657 C 80.296 38.702 80.94 38.786 81.527 38.842 C 82.629 38.949 83.407 39.182 84.053 39.599 C 84.23 39.713 84.631 39.858 84.945 39.92 C 85.444 40.02 86.106 40.31 86.241 40.488 C 86.266 40.521 86.515 40.653 86.796 40.781 C 87.076 40.908 87.443 41.139 87.612 41.293 C 87.781 41.448 87.963 41.574 88.017 41.574 C 88.34 41.574 90.826 44.093 90.936 44.531 C 90.968 44.657 91.032 44.76 91.078 44.76 C 91.188 44.76 91.702 45.287 91.702 45.4 C 91.702 45.448 91.838 45.641 92.005 45.829 C 92.171 46.017 92.403 46.417 92.52 46.717 C 92.636 47.018 92.804 47.325 92.892 47.4 C 93.124 47.597 93.309 48.106 93.427 48.867 C 93.484 49.233 93.562 49.555 93.599 49.582 C 93.961 49.836 94.521 51.318 94.718 52.543 C 94.989 54.218 94.859 60.235 94.523 61.6 C 94.201 62.914 94.026 63.422 93.776 63.775 C 93.55 64.095 93.473 64.329 93.388 64.958 C 93.273 65.809 93.15 66.186 92.948 66.304 C 92.76 66.414 92.536 66.894 92.419 67.439 C 92.326 67.874 92.045 68.497 91.892 68.61 C 91.858 68.635 91.719 68.848 91.583 69.083 C 91.447 69.319 91.26 69.564 91.169 69.63 C 91.077 69.694 90.974 69.897 90.94 70.08 C 90.853 70.545 90.628 70.964 90.275 71.317 C 90.109 71.484 89.973 71.678 89.973 71.75 C 89.973 71.822 89.786 72.097 89.558 72.362 C 89.33 72.626 89.061 72.945 88.961 73.07 C 88.861 73.195 88.64 73.461 88.47 73.662 C 88.301 73.862 87.975 74.251 87.747 74.526 C 87.518 74.802 87.245 75.109 87.141 75.209 C 87.037 75.309 86.784 75.565 86.579 75.778 C 86.375 75.991 86.156 76.165 86.092 76.165 C 86.028 76.165 85.944 76.217 85.904 76.281 C 85.864 76.344 85.589 76.601 85.293 76.85 C 84.998 77.099 84.629 77.422 84.474 77.567 C 84.319 77.712 84.049 77.889 83.874 77.962 C 83.699 78.034 83.45 78.207 83.321 78.346 C 83.001 78.691 81.183 79.715 80.89 79.715 C 80.826 79.715 80.75 79.776 80.721 79.85 C 80.634 80.077 80.126 80.322 79.504 80.438 C 79.179 80.499 78.728 80.657 78.503 80.789 C 77.507 81.375 76.492 81.638 74.543 81.815 C 74.043 81.861 73.448 81.958 73.222 82.03 C 72.251 82.343 71.595 82.367 64.135 82.368 C 60.062 82.368 56.707 82.345 56.678 82.316 C 56.649 82.287 56.553 82.264 56.463 82.264 C 55.334 82.264 55.045 79.716 55.809 76.484 C 55.879 76.183 55.993 75.63 56.061 75.255 C 56.128 74.879 56.314 74.121 56.473 73.571 C 56.716 72.729 56.775 72.329 56.843 71.064 C 56.933 69.404 57.198 67.628 57.462 66.926 C 57.738 66.19 57.84 65.648 57.841 64.899 C 57.844 63.669 58.003 62.193 58.249 61.129 C 58.617 59.535 58.773 58.927 58.854 58.778 C 59.136 58.255 59.221 57.804 59.298 56.412 C 59.344 55.586 59.423 54.664 59.474 54.364 C 59.525 54.063 59.607 53.51 59.657 53.135 C 59.707 52.759 59.877 52.145 60.034 51.769 C 60.317 51.095 60.321 51.061 60.393 48.993 C 60.465 46.914 60.576 46.258 60.931 45.807 C 60.971 45.757 61.033 45.47 61.069 45.17 C 61.105 44.869 61.188 44.493 61.255 44.334 C 61.581 43.549 61.752 42.62 61.84 41.156 C 61.947 39.368 62.038 39.173 62.937 38.796 L 63.438 38.586 L 71.585 38.58 C 76.135 38.577 79.893 38.611 80.096 38.657 Z  M 71.415 49.412 C 71.208 49.615 71.034 49.829 71.029 49.887 C 71.024 49.946 70.989 50.527 70.952 51.178 C 70.882 52.398 70.636 53.933 70.486 54.086 C 70.44 54.133 70.401 54.236 70.401 54.313 C 70.401 54.391 70.338 54.574 70.262 54.72 C 70.093 55.044 69.95 56.325 69.947 57.55 C 69.944 58.473 69.667 60.342 69.504 60.539 C 69.397 60.667 69.073 61.954 68.885 62.995 C 68.756 63.708 68.688 64.277 68.492 66.288 C 68.335 67.89 67.978 69.377 67.658 69.763 C 67.532 69.914 67.538 71.226 67.665 71.379 C 67.933 71.702 70.576 71.676 71.63 71.341 C 71.781 71.293 72.375 71.194 72.95 71.12 C 74.973 70.862 75.954 70.603 75.954 70.328 C 75.954 70.288 76.128 70.211 76.341 70.157 C 76.819 70.036 77.411 69.796 77.593 69.648 C 77.668 69.588 77.923 69.431 78.16 69.299 C 78.765 68.964 81.003 66.697 81.292 66.127 C 81.419 65.877 81.6 65.59 81.694 65.488 C 81.789 65.387 81.935 65.096 82.019 64.843 C 82.103 64.59 82.288 64.259 82.43 64.107 C 82.715 63.801 82.781 63.542 83.016 61.782 C 83.099 61.157 83.243 60.419 83.334 60.144 C 83.708 59.016 83.923 57.549 83.808 56.901 C 83.687 56.225 83.435 55.314 83.334 55.188 C 83.292 55.135 83.208 54.846 83.148 54.546 C 83.088 54.245 83.007 53.937 82.967 53.86 C 82.928 53.783 82.865 53.579 82.827 53.407 C 82.727 52.953 81.488 51.52 80.779 51.038 C 80.604 50.918 80.407 50.747 80.341 50.658 C 80.276 50.568 80.169 50.495 80.105 50.495 C 80.04 50.495 79.704 50.309 79.359 50.083 C 78.437 49.477 77.751 49.369 73.896 49.227 C 72.839 49.188 71.933 49.13 71.883 49.099 C 71.832 49.068 71.622 49.209 71.415 49.412 Z " fill-rule="evenodd" fill="rgb(83,89,91)"/>
    </g>
  </g>
</svg>