<?xml version="1.0" encoding="UTF-8" standalone="no"?><!-- Generator: Gravit.io --><svg xmlns="http://www.w3.org/2000/svg" xmlns:xlink="http://www.w3.org/1999/xlink" style="isolation:isolate" viewBox="0 0 24 24" width="24pt" height="24pt"><defs><clipPath id="_clipPath_BhWCQSn53fnldokA1QXcb1Q4pIy6Z4GO"><rect width="24" height="24"/></clipPath></defs><g clip-path="url(#_clipPath_BhWCQSn53fnldokA1QXcb1Q4pIy6Z4GO)"><path d=" M 5.746 10.928 L 4.391 10.928 L 4.391 9.008 L 4.603 9.008 L 4.603 10.739 L 5.746 10.739 L 5.746 10.928 Z  M 7.433 10.928 L 6.048 10.928 L 6.048 9.008 L 7.422 9.008 L 7.422 9.194 L 6.259 9.194 L 6.259 9.866 L 7.019 9.866 L 7.019 10.05 L 6.259 10.05 L 6.259 10.741 L 7.433 10.741 L 7.433 10.928 Z  M 7.949 10.928 L 7.738 10.928 L 7.738 9.008 L 7.949 9.008 L 7.949 10.928 Z  M 10.206 9.924 L 10.206 10.009 L 10.206 10.009 Q 10.206 10.209 10.135 10.383 L 10.135 10.383 L 10.135 10.383 Q 10.064 10.557 9.937 10.684 L 9.937 10.684 L 9.937 10.684 Q 9.811 10.81 9.641 10.884 L 9.641 10.884 L 9.641 10.884 Q 9.471 10.958 9.274 10.958 L 9.274 10.958 L 9.274 10.958 Q 9.068 10.958 8.885 10.88 L 8.885 10.88 L 8.885 10.88 Q 8.703 10.802 8.57 10.669 L 8.57 10.669 L 8.57 10.669 Q 8.437 10.536 8.359 10.355 L 8.359 10.355 L 8.359 10.355 Q 8.281 10.173 8.281 9.968 L 8.281 9.968 L 8.281 9.968 Q 8.281 9.762 8.357 9.581 L 8.357 9.581 L 8.357 9.581 Q 8.434 9.4 8.567 9.267 L 8.567 9.267 L 8.567 9.267 Q 8.7 9.134 8.883 9.056 L 8.883 9.056 L 8.883 9.056 Q 9.065 8.978 9.271 8.978 L 9.271 8.978 L 9.271 8.978 Q 9.493 8.978 9.691 9.061 L 9.691 9.061 L 9.691 9.061 Q 9.888 9.145 10.028 9.293 L 10.028 9.293 L 9.885 9.438 L 9.885 9.438 Q 9.776 9.312 9.611 9.242 L 9.611 9.242 L 9.611 9.242 Q 9.446 9.172 9.271 9.172 L 9.271 9.172 L 9.271 9.172 Q 9.106 9.172 8.964 9.234 L 8.964 9.234 L 8.964 9.234 Q 8.821 9.296 8.718 9.401 L 8.718 9.401 L 8.718 9.401 Q 8.615 9.507 8.555 9.654 L 8.555 9.654 L 8.555 9.654 Q 8.495 9.8 8.495 9.968 L 8.495 9.968 L 8.495 9.968 Q 8.495 10.135 8.555 10.282 L 8.555 10.282 L 8.555 10.282 Q 8.615 10.429 8.718 10.534 L 8.718 10.534 L 8.718 10.534 Q 8.821 10.64 8.964 10.701 L 8.964 10.701 L 8.964 10.701 Q 9.106 10.763 9.271 10.763 L 9.271 10.763 L 9.271 10.763 Q 9.416 10.763 9.544 10.714 L 9.544 10.714 L 9.544 10.714 Q 9.671 10.664 9.766 10.578 L 9.766 10.578 L 9.766 10.578 Q 9.861 10.492 9.921 10.371 L 9.921 10.371 L 9.921 10.371 Q 9.981 10.25 9.992 10.11 L 9.992 10.11 L 9.304 10.11 L 9.304 9.924 L 10.206 9.924 Z  M 10.744 10.928 L 10.533 10.928 L 10.533 9.008 L 10.744 9.008 L 10.744 9.866 L 11.86 9.866 L 11.86 9.008 L 12.071 9.008 L 12.071 10.928 L 11.86 10.928 L 11.86 10.056 L 10.744 10.056 L 10.744 10.928 Z  M 13.023 9.197 L 12.329 9.197 L 12.329 9.008 L 13.928 9.008 L 13.928 9.197 L 13.234 9.197 L 13.234 10.928 L 13.023 10.928 L 13.023 9.197 Z  M 15.931 9.968 L 15.931 9.968 L 15.931 9.968 Q 15.931 10.173 15.854 10.356 L 15.854 10.356 L 15.854 10.356 Q 15.777 10.538 15.644 10.671 L 15.644 10.671 L 15.644 10.671 Q 15.511 10.804 15.33 10.881 L 15.33 10.881 L 15.33 10.881 Q 15.149 10.958 14.943 10.958 L 14.943 10.958 L 14.943 10.958 Q 14.737 10.958 14.555 10.881 L 14.555 10.881 L 14.555 10.881 Q 14.373 10.804 14.24 10.671 L 14.24 10.671 L 14.24 10.671 Q 14.107 10.538 14.03 10.356 L 14.03 10.356 L 14.03 10.356 Q 13.953 10.173 13.953 9.968 L 13.953 9.968 L 13.953 9.968 Q 13.953 9.762 14.03 9.58 L 14.03 9.58 L 14.03 9.58 Q 14.107 9.397 14.24 9.264 L 14.24 9.264 L 14.24 9.264 Q 14.373 9.131 14.555 9.054 L 14.555 9.054 L 14.555 9.054 Q 14.737 8.978 14.943 8.978 L 14.943 8.978 L 14.943 8.978 Q 15.149 8.978 15.33 9.054 L 15.33 9.054 L 15.33 9.054 Q 15.511 9.131 15.644 9.264 L 15.644 9.264 L 15.644 9.264 Q 15.777 9.397 15.854 9.58 L 15.854 9.58 L 15.854 9.58 Q 15.931 9.762 15.931 9.968 Z  M 15.717 9.968 L 15.717 9.968 L 15.717 9.968 Q 15.717 9.8 15.656 9.654 L 15.656 9.654 L 15.656 9.654 Q 15.596 9.507 15.493 9.401 L 15.493 9.401 L 15.493 9.401 Q 15.39 9.296 15.248 9.234 L 15.248 9.234 L 15.248 9.234 Q 15.105 9.172 14.943 9.172 L 14.943 9.172 L 14.943 9.172 Q 14.779 9.172 14.636 9.234 L 14.636 9.234 L 14.636 9.234 Q 14.493 9.296 14.39 9.401 L 14.39 9.401 L 14.39 9.401 Q 14.288 9.507 14.227 9.654 L 14.227 9.654 L 14.227 9.654 Q 14.167 9.8 14.167 9.968 L 14.167 9.968 L 14.167 9.968 Q 14.167 10.135 14.227 10.28 L 14.227 10.28 L 14.227 10.28 Q 14.288 10.426 14.39 10.533 L 14.39 10.533 L 14.39 10.533 Q 14.493 10.64 14.636 10.701 L 14.636 10.701 L 14.636 10.701 Q 14.779 10.763 14.943 10.763 L 14.943 10.763 L 14.943 10.763 Q 15.105 10.763 15.248 10.701 L 15.248 10.701 L 15.248 10.701 Q 15.39 10.64 15.493 10.533 L 15.493 10.533 L 15.493 10.533 Q 15.596 10.426 15.656 10.28 L 15.656 10.28 L 15.656 10.28 Q 15.717 10.135 15.717 9.968 Z  M 16.262 10.928 L 16.262 9.008 L 16.474 9.008 L 17.628 10.566 L 17.628 9.008 L 17.829 9.008 L 17.829 10.928 L 17.642 10.928 L 16.463 9.329 L 16.463 10.928 L 16.262 10.928 Z  M 18.07 10.599 L 18.07 10.599 L 18.21 10.453 L 18.21 10.453 Q 18.358 10.61 18.527 10.691 L 18.527 10.691 L 18.527 10.691 Q 18.695 10.771 18.882 10.771 L 18.882 10.771 L 18.882 10.771 Q 19.107 10.771 19.252 10.664 L 19.252 10.664 L 19.252 10.664 Q 19.397 10.557 19.397 10.393 L 19.397 10.393 L 19.397 10.393 Q 19.397 10.245 19.295 10.165 L 19.295 10.165 L 19.295 10.165 Q 19.192 10.086 18.956 10.047 L 18.956 10.047 L 18.679 10.003 L 18.679 10.003 Q 18.402 9.96 18.27 9.84 L 18.27 9.84 L 18.27 9.84 Q 18.139 9.721 18.139 9.518 L 18.139 9.518 L 18.139 9.518 Q 18.139 9.279 18.325 9.131 L 18.325 9.131 L 18.325 9.131 Q 18.512 8.983 18.813 8.983 L 18.813 8.983 L 18.813 8.983 Q 19.013 8.983 19.211 9.049 L 19.211 9.049 L 19.211 9.049 Q 19.408 9.115 19.57 9.238 L 19.57 9.238 L 19.45 9.403 L 19.45 9.403 Q 19.293 9.285 19.131 9.224 L 19.131 9.224 L 19.131 9.224 Q 18.97 9.164 18.805 9.164 L 18.805 9.164 L 18.805 9.164 Q 18.599 9.164 18.472 9.259 L 18.472 9.259 L 18.472 9.259 Q 18.344 9.353 18.344 9.501 L 18.344 9.501 L 18.344 9.501 Q 18.344 9.636 18.435 9.707 L 18.435 9.707 L 18.435 9.707 Q 18.525 9.779 18.734 9.811 L 18.734 9.811 L 19.008 9.855 L 19.008 9.855 Q 19.321 9.907 19.465 10.034 L 19.465 10.034 L 19.465 10.034 Q 19.609 10.16 19.609 10.382 L 19.609 10.382 L 19.609 10.382 Q 19.609 10.508 19.555 10.614 L 19.555 10.614 L 19.555 10.614 Q 19.502 10.719 19.404 10.795 L 19.404 10.795 L 19.404 10.795 Q 19.307 10.87 19.171 10.913 L 19.171 10.913 L 19.171 10.913 Q 19.035 10.955 18.874 10.955 L 18.874 10.955 L 18.874 10.955 Q 18.646 10.955 18.436 10.863 L 18.436 10.863 L 18.436 10.863 Q 18.226 10.771 18.07 10.599 Z " fill="rgb(0,0,0)"/><rect x="4.405" y="11.315" width="15.232" height="0.2" transform="matrix(1,0,0,1,0,0)" fill="rgb(104,29,87)"/></g></svg>