<?xml version="1.0" encoding="UTF-8" standalone="no"?><!-- Generator: Gravit.io --><svg xmlns="http://www.w3.org/2000/svg" xmlns:xlink="http://www.w3.org/1999/xlink" style="isolation:isolate" viewBox="0 0 24 24" width="24pt" height="24pt"><defs><clipPath id="_clipPath_roM05XP6tE3Ix26UHUOc3htszfvmwiWb"><rect width="24" height="24"/></clipPath></defs><g clip-path="url(#_clipPath_roM05XP6tE3Ix26UHUOc3htszfvmwiWb)"><g><path d=" M 12.839 6.245 C 12.834 6.25 12.809 6.252 12.772 6.25 C 12.728 6.248 12.713 6.25 12.71 6.257 C 12.707 6.264 12.695 6.266 12.67 6.264 C 12.648 6.263 12.632 6.265 12.63 6.27 C 12.628 6.277 12.599 6.284 12.541 6.29 C 12.532 6.291 12.522 6.294 12.519 6.297 C 12.517 6.3 12.508 6.302 12.501 6.302 C 12.494 6.302 12.482 6.305 12.475 6.308 C 12.452 6.32 12.407 6.332 12.403 6.328 C 12.401 6.326 12.395 6.328 12.39 6.333 C 12.385 6.338 12.361 6.349 12.336 6.357 C 12.312 6.365 12.292 6.373 12.292 6.376 C 12.292 6.379 12.287 6.382 12.282 6.382 C 12.277 6.382 12.259 6.388 12.244 6.396 C 12.228 6.403 12.213 6.408 12.21 6.406 C 12.207 6.404 12.204 6.406 12.204 6.411 C 12.204 6.415 12.198 6.418 12.19 6.418 C 12.183 6.418 12.175 6.421 12.174 6.424 C 12.172 6.429 12.112 6.462 12.075 6.48 C 12.066 6.484 12.059 6.49 12.059 6.493 C 12.059 6.496 12.056 6.498 12.052 6.498 C 12.03 6.498 11.847 6.631 11.751 6.716 C 11.676 6.783 11.523 6.944 11.492 6.988 C 11.486 6.997 11.472 7.014 11.461 7.026 C 11.45 7.038 11.441 7.05 11.441 7.052 C 11.441 7.055 11.436 7.062 11.431 7.067 C 11.418 7.08 11.302 7.246 11.302 7.251 C 11.302 7.254 11.294 7.266 11.284 7.279 C 11.274 7.293 11.266 7.307 11.266 7.311 C 11.266 7.315 11.264 7.32 11.261 7.321 C 11.258 7.323 11.246 7.342 11.234 7.364 C 11.222 7.386 11.211 7.405 11.208 7.407 C 11.2 7.415 11.07 7.685 11.07 7.695 C 11.07 7.698 11.064 7.712 11.058 7.726 C 11.052 7.741 11.043 7.761 11.039 7.771 C 11.035 7.781 11.029 7.794 11.026 7.801 C 11.022 7.807 11.018 7.825 11.015 7.839 C 11.012 7.854 11.007 7.867 11.003 7.87 C 11 7.872 10.997 7.881 10.997 7.89 C 10.997 7.899 10.995 7.909 10.992 7.912 C 10.985 7.919 10.968 7.969 10.968 7.984 C 10.968 7.991 10.962 7.996 10.956 7.996 C 10.947 7.996 10.946 7.999 10.951 8.004 C 10.96 8.013 10.945 8.078 10.934 8.082 C 10.93 8.083 10.928 8.093 10.93 8.103 C 10.932 8.115 10.93 8.125 10.924 8.13 C 10.918 8.135 10.913 8.151 10.913 8.167 C 10.912 8.219 10.903 8.251 10.889 8.251 C 10.882 8.252 10.881 8.254 10.886 8.256 C 10.898 8.261 10.898 8.299 10.886 8.31 C 10.881 8.315 10.878 8.33 10.879 8.346 C 10.881 8.366 10.879 8.376 10.872 8.378 C 10.864 8.382 10.862 8.391 10.865 8.42 C 10.867 8.449 10.866 8.459 10.856 8.466 C 10.848 8.471 10.846 8.477 10.851 8.48 C 10.862 8.486 10.852 8.558 10.838 8.569 C 10.829 8.577 10.829 8.581 10.837 8.596 C 10.846 8.614 10.842 8.695 10.831 8.695 C 10.828 8.695 10.826 8.741 10.825 8.798 C 10.825 8.87 10.822 8.902 10.816 8.904 C 10.804 8.908 10.804 9.208 10.816 9.213 C 10.822 9.214 10.825 9.245 10.826 9.311 C 10.826 9.364 10.828 9.407 10.831 9.407 C 10.84 9.407 10.847 9.488 10.838 9.497 C 10.827 9.508 10.828 9.524 10.84 9.524 C 10.852 9.524 10.861 9.588 10.851 9.601 C 10.846 9.606 10.848 9.611 10.856 9.614 C 10.866 9.617 10.867 9.626 10.864 9.654 C 10.862 9.679 10.864 9.691 10.87 9.694 C 10.875 9.696 10.881 9.711 10.883 9.729 C 10.885 9.746 10.889 9.771 10.892 9.784 C 10.895 9.799 10.894 9.807 10.889 9.807 C 10.884 9.807 10.881 9.811 10.881 9.814 C 10.881 9.818 10.885 9.822 10.891 9.822 C 10.904 9.822 10.907 9.831 10.914 9.883 C 10.916 9.905 10.922 9.926 10.925 9.928 C 10.929 9.93 10.932 9.941 10.932 9.953 C 10.932 9.964 10.935 9.976 10.939 9.978 C 10.949 9.984 10.948 10.009 10.937 10.013 C 10.931 10.016 10.933 10.017 10.94 10.018 C 10.953 10.018 10.957 10.026 10.965 10.071 C 10.967 10.086 10.972 10.1 10.976 10.102 C 10.98 10.104 10.982 10.114 10.982 10.123 C 10.982 10.131 10.985 10.142 10.988 10.146 C 11 10.159 11.02 10.229 11.016 10.24 C 11.014 10.247 11.016 10.251 11.023 10.251 C 11.029 10.251 11.033 10.256 11.033 10.262 C 11.033 10.268 11.036 10.279 11.04 10.285 C 11.055 10.315 11.07 10.352 11.07 10.363 C 11.07 10.369 11.073 10.374 11.077 10.374 C 11.081 10.374 11.084 10.379 11.084 10.384 C 11.084 10.389 11.092 10.41 11.102 10.43 C 11.112 10.449 11.121 10.471 11.121 10.478 C 11.121 10.484 11.123 10.491 11.126 10.492 C 11.135 10.496 11.179 10.583 11.174 10.588 C 11.171 10.591 11.172 10.593 11.176 10.593 C 11.181 10.593 11.197 10.618 11.212 10.649 C 11.228 10.68 11.246 10.711 11.253 10.719 C 11.26 10.726 11.271 10.743 11.277 10.755 C 11.283 10.768 11.296 10.79 11.305 10.804 C 11.313 10.818 11.329 10.844 11.338 10.86 C 11.348 10.877 11.359 10.891 11.362 10.891 C 11.365 10.891 11.368 10.896 11.368 10.902 C 11.368 10.908 11.37 10.913 11.374 10.913 C 11.377 10.913 11.385 10.923 11.392 10.935 C 11.4 10.947 11.422 10.979 11.443 11.006 C 11.464 11.033 11.49 11.068 11.502 11.084 C 11.544 11.139 11.703 11.304 11.754 11.345 C 11.764 11.353 11.79 11.375 11.812 11.393 C 11.855 11.43 12.018 11.545 12.026 11.545 C 12.028 11.545 12.048 11.557 12.07 11.571 C 12.092 11.585 12.113 11.596 12.117 11.596 C 12.121 11.596 12.124 11.6 12.124 11.604 C 12.124 11.607 12.128 11.611 12.133 11.611 C 12.137 11.611 12.158 11.619 12.178 11.628 C 12.221 11.648 12.283 11.675 12.322 11.69 C 12.331 11.693 12.347 11.7 12.357 11.704 C 12.367 11.708 12.395 11.717 12.419 11.724 C 12.443 11.73 12.47 11.739 12.479 11.742 C 12.488 11.746 12.504 11.749 12.514 11.749 C 12.523 11.749 12.531 11.753 12.531 11.758 C 12.531 11.765 12.54 11.767 12.561 11.765 C 12.584 11.763 12.59 11.764 12.59 11.774 C 12.59 11.787 12.598 11.789 12.609 11.778 C 12.619 11.768 12.662 11.778 12.662 11.79 C 12.662 11.802 12.666 11.802 12.683 11.792 C 12.697 11.783 12.764 11.789 12.764 11.799 C 12.764 11.801 12.838 11.804 12.928 11.804 C 13.018 11.804 13.091 11.801 13.091 11.799 C 13.091 11.789 13.159 11.783 13.173 11.792 C 13.19 11.802 13.193 11.802 13.193 11.79 C 13.193 11.778 13.237 11.768 13.247 11.778 C 13.257 11.788 13.266 11.787 13.264 11.776 C 13.263 11.771 13.271 11.766 13.284 11.765 C 13.296 11.764 13.313 11.76 13.321 11.757 C 13.336 11.75 13.369 11.742 13.393 11.739 C 13.401 11.739 13.409 11.736 13.411 11.734 C 13.418 11.726 13.514 11.698 13.52 11.701 C 13.524 11.704 13.528 11.7 13.53 11.694 C 13.533 11.688 13.539 11.684 13.544 11.684 C 13.55 11.684 13.571 11.675 13.592 11.665 C 13.613 11.655 13.632 11.647 13.636 11.647 C 13.659 11.647 13.937 11.486 13.969 11.454 C 13.975 11.448 13.982 11.444 13.985 11.444 C 13.988 11.444 13.997 11.438 14.005 11.431 C 14.012 11.424 14.048 11.394 14.084 11.364 C 14.178 11.286 14.335 11.125 14.378 11.062 C 14.384 11.054 14.391 11.046 14.393 11.044 C 14.396 11.042 14.407 11.027 14.419 11.011 C 14.431 10.995 14.442 10.98 14.444 10.978 C 14.446 10.976 14.461 10.956 14.477 10.934 C 14.493 10.912 14.507 10.893 14.51 10.891 C 14.512 10.889 14.539 10.847 14.571 10.798 C 14.602 10.748 14.633 10.703 14.638 10.698 C 14.644 10.692 14.648 10.685 14.649 10.682 C 14.649 10.671 14.671 10.631 14.684 10.616 C 14.692 10.608 14.696 10.6 14.694 10.598 C 14.691 10.594 14.705 10.564 14.714 10.556 C 14.719 10.551 14.793 10.399 14.793 10.393 C 14.793 10.39 14.803 10.368 14.814 10.343 C 14.826 10.318 14.841 10.282 14.848 10.262 C 14.854 10.242 14.863 10.22 14.867 10.213 C 14.87 10.206 14.873 10.195 14.873 10.189 C 14.873 10.183 14.878 10.176 14.883 10.174 C 14.889 10.172 14.892 10.163 14.889 10.152 C 14.887 10.14 14.889 10.134 14.896 10.134 C 14.903 10.134 14.906 10.127 14.906 10.115 C 14.906 10.102 14.909 10.095 14.915 10.096 C 14.922 10.098 14.922 10.095 14.915 10.084 C 14.908 10.072 14.908 10.068 14.915 10.06 C 14.92 10.056 14.924 10.046 14.924 10.038 C 14.924 10.031 14.927 10.02 14.93 10.013 C 14.936 10.002 14.944 9.971 14.964 9.878 C 14.966 9.867 14.971 9.858 14.975 9.858 C 14.978 9.858 14.98 9.847 14.977 9.833 C 14.974 9.815 14.976 9.806 14.983 9.804 C 14.99 9.801 14.993 9.79 14.991 9.767 C 14.989 9.744 14.991 9.733 14.998 9.731 C 15.005 9.728 15.007 9.718 15.005 9.697 C 15.003 9.674 15.006 9.664 15.015 9.658 C 15.024 9.65 15.025 9.646 15.018 9.635 C 15.008 9.619 15.019 9.57 15.032 9.573 C 15.043 9.575 15.043 9.563 15.032 9.547 C 15.024 9.533 15.029 9.465 15.039 9.465 C 15.042 9.465 15.044 9.433 15.044 9.392 C 15.044 9.352 15.047 9.317 15.051 9.314 C 15.056 9.311 15.059 9.199 15.059 9.004 C 15.059 8.808 15.056 8.696 15.051 8.693 C 15.047 8.69 15.044 8.659 15.044 8.624 C 15.044 8.589 15.041 8.558 15.038 8.555 C 15.027 8.548 15.023 8.476 15.032 8.476 C 15.037 8.476 15.04 8.471 15.04 8.465 C 15.04 8.459 15.036 8.455 15.03 8.455 C 15.018 8.455 15.007 8.394 15.018 8.39 C 15.029 8.387 15.028 8.374 15.017 8.376 C 15.011 8.378 15.008 8.368 15.008 8.345 C 15.008 8.326 15.004 8.31 14.998 8.305 C 14.992 8.3 14.989 8.288 14.991 8.275 C 14.993 8.263 14.99 8.25 14.984 8.245 C 14.979 8.24 14.975 8.227 14.975 8.217 C 14.975 8.206 14.971 8.186 14.966 8.173 C 14.959 8.152 14.959 8.147 14.968 8.142 C 14.977 8.136 14.977 8.135 14.966 8.135 C 14.957 8.135 14.952 8.123 14.945 8.093 C 14.94 8.07 14.934 8.048 14.93 8.044 C 14.927 8.04 14.924 8.028 14.924 8.017 C 14.924 8.006 14.921 7.995 14.916 7.992 C 14.912 7.99 14.91 7.981 14.912 7.974 C 14.914 7.966 14.912 7.96 14.908 7.96 C 14.904 7.96 14.902 7.95 14.904 7.939 C 14.906 7.926 14.904 7.918 14.899 7.919 C 14.895 7.919 14.892 7.911 14.892 7.9 C 14.892 7.888 14.888 7.88 14.883 7.88 C 14.877 7.88 14.873 7.874 14.873 7.867 C 14.873 7.859 14.868 7.843 14.862 7.83 C 14.855 7.817 14.852 7.8 14.854 7.792 C 14.856 7.783 14.854 7.778 14.847 7.778 C 14.841 7.778 14.837 7.772 14.837 7.764 C 14.837 7.756 14.833 7.748 14.829 7.745 C 14.825 7.742 14.823 7.734 14.825 7.727 C 14.827 7.719 14.825 7.713 14.822 7.713 C 14.814 7.713 14.786 7.653 14.786 7.637 C 14.786 7.631 14.783 7.625 14.78 7.625 C 14.777 7.625 14.77 7.615 14.765 7.602 C 14.728 7.516 14.633 7.34 14.587 7.272 C 14.576 7.257 14.568 7.24 14.568 7.235 C 14.568 7.231 14.565 7.226 14.562 7.224 C 14.559 7.223 14.54 7.198 14.52 7.168 C 14.458 7.075 14.449 7.062 14.445 7.058 C 14.442 7.056 14.427 7.037 14.411 7.015 C 14.291 6.848 14.086 6.654 13.898 6.531 C 13.859 6.505 13.823 6.484 13.819 6.484 C 13.815 6.484 13.811 6.481 13.811 6.478 C 13.811 6.475 13.797 6.466 13.779 6.458 C 13.761 6.451 13.746 6.44 13.746 6.435 C 13.746 6.431 13.74 6.428 13.731 6.431 C 13.723 6.433 13.717 6.431 13.717 6.426 C 13.717 6.422 13.712 6.418 13.706 6.418 C 13.7 6.418 13.695 6.413 13.695 6.408 C 13.695 6.401 13.691 6.399 13.685 6.401 C 13.679 6.403 13.663 6.4 13.648 6.393 C 13.597 6.371 13.575 6.362 13.559 6.357 C 13.55 6.354 13.542 6.346 13.542 6.34 C 13.542 6.329 13.541 6.329 13.535 6.338 C 13.53 6.346 13.525 6.347 13.512 6.34 C 13.503 6.336 13.489 6.331 13.481 6.329 C 13.473 6.328 13.467 6.323 13.468 6.319 C 13.468 6.314 13.459 6.311 13.446 6.312 C 13.433 6.312 13.423 6.309 13.424 6.305 C 13.425 6.3 13.416 6.299 13.404 6.3 C 13.389 6.303 13.381 6.3 13.378 6.292 C 13.375 6.283 13.371 6.282 13.365 6.287 C 13.356 6.294 13.324 6.289 13.324 6.281 C 13.324 6.278 13.313 6.277 13.3 6.279 C 13.285 6.28 13.271 6.278 13.266 6.272 C 13.26 6.266 13.245 6.263 13.225 6.264 C 13.203 6.266 13.192 6.264 13.189 6.257 C 13.186 6.249 13.173 6.247 13.125 6.25 C 13.085 6.252 13.063 6.25 13.059 6.245 C 13.052 6.233 12.85 6.233 12.839 6.245 Z  M 10.318 6.32 C 10.317 6.324 10.295 6.327 10.269 6.327 C 10.243 6.327 10.22 6.33 10.218 6.334 C 10.211 6.344 10.149 6.348 10.143 6.339 C 10.136 6.328 10.124 6.329 10.124 6.341 C 10.124 6.353 10.066 6.363 10.056 6.352 C 10.046 6.343 10.037 6.344 10.039 6.355 C 10.04 6.361 10.029 6.364 10.001 6.364 C 9.976 6.364 9.958 6.367 9.953 6.374 C 9.948 6.38 9.934 6.383 9.911 6.381 C 9.892 6.379 9.877 6.38 9.877 6.383 C 9.877 6.392 9.832 6.398 9.824 6.39 C 9.813 6.379 9.804 6.38 9.804 6.392 C 9.804 6.404 9.76 6.413 9.75 6.403 C 9.74 6.394 9.731 6.395 9.733 6.406 C 9.735 6.411 9.725 6.415 9.706 6.417 C 9.69 6.418 9.67 6.422 9.661 6.427 C 9.653 6.431 9.634 6.433 9.62 6.432 C 9.603 6.43 9.593 6.432 9.59 6.438 C 9.586 6.45 9.548 6.45 9.536 6.438 C 9.529 6.431 9.527 6.431 9.529 6.44 C 9.532 6.454 9.485 6.468 9.477 6.455 C 9.473 6.448 9.471 6.449 9.467 6.458 C 9.464 6.468 9.456 6.47 9.434 6.468 C 9.417 6.466 9.406 6.468 9.407 6.473 C 9.407 6.477 9.397 6.48 9.383 6.48 C 9.368 6.48 9.352 6.484 9.347 6.49 C 9.341 6.495 9.326 6.498 9.312 6.497 C 9.299 6.495 9.288 6.496 9.288 6.499 C 9.288 6.508 9.256 6.512 9.247 6.505 C 9.242 6.5 9.238 6.501 9.235 6.508 C 9.233 6.514 9.22 6.52 9.207 6.522 C 9.164 6.529 9.139 6.536 9.123 6.543 C 9.114 6.548 9.099 6.549 9.089 6.548 C 9.078 6.546 9.07 6.547 9.07 6.55 C 9.07 6.562 9.032 6.566 9.026 6.556 C 9.02 6.547 9.019 6.548 9.019 6.557 C 9.019 6.571 8.987 6.58 8.976 6.568 C 8.97 6.563 8.968 6.564 8.968 6.572 C 8.968 6.58 8.959 6.585 8.944 6.588 C 8.887 6.598 8.869 6.602 8.861 6.609 C 8.856 6.613 8.834 6.616 8.812 6.617 C 8.785 6.618 8.772 6.621 8.772 6.627 C 8.772 6.632 8.763 6.636 8.753 6.636 C 8.743 6.636 8.729 6.639 8.722 6.643 C 8.688 6.661 8.647 6.668 8.64 6.658 C 8.635 6.649 8.634 6.65 8.634 6.66 C 8.633 6.674 8.583 6.691 8.56 6.685 C 8.551 6.683 8.546 6.685 8.546 6.693 C 8.546 6.7 8.541 6.703 8.528 6.7 C 8.518 6.698 8.506 6.701 8.502 6.707 C 8.497 6.712 8.486 6.716 8.478 6.716 C 8.469 6.716 8.458 6.72 8.454 6.725 C 8.449 6.729 8.431 6.733 8.412 6.734 C 8.391 6.734 8.379 6.738 8.379 6.744 C 8.379 6.749 8.372 6.753 8.364 6.753 C 8.356 6.753 8.344 6.756 8.337 6.759 C 8.33 6.763 8.305 6.772 8.281 6.778 C 8.236 6.791 8.204 6.801 8.179 6.811 C 8.16 6.819 8.136 6.827 8.133 6.826 C 8.115 6.82 8.045 6.916 8.037 6.959 C 8.032 6.986 8.025 7.009 8.022 7.012 C 8.013 7.017 8.013 7.73 8.023 7.739 C 8.027 7.744 8.03 8.438 8.03 9.763 L 8.03 11.78 L 8.055 11.805 C 8.069 11.818 8.085 11.829 8.091 11.829 C 8.097 11.829 8.105 11.835 8.109 11.842 C 8.115 11.852 8.118 11.853 8.125 11.845 C 8.137 11.834 8.26 11.833 8.266 11.844 C 8.272 11.854 10.354 11.854 10.361 11.844 C 10.363 11.84 10.376 11.836 10.39 11.836 C 10.403 11.836 10.416 11.84 10.419 11.844 C 10.425 11.854 10.452 11.852 10.452 11.842 C 10.452 11.837 10.465 11.827 10.481 11.82 C 10.528 11.801 10.527 11.819 10.525 11.278 C 10.523 10.886 10.525 10.786 10.532 10.777 C 10.54 10.768 10.54 10.765 10.529 10.759 C 10.523 10.755 10.517 10.746 10.517 10.739 C 10.517 10.724 10.495 10.702 10.482 10.702 C 10.477 10.702 10.471 10.697 10.469 10.691 C 10.466 10.684 10.461 10.682 10.456 10.685 C 10.452 10.688 10.138 10.69 9.759 10.689 L 9.07 10.687 L 9.065 10.668 C 9.063 10.657 9.064 10.643 9.069 10.635 C 9.08 10.617 9.079 10.602 9.066 10.597 C 9.05 10.591 9.05 9.793 9.066 9.793 C 9.075 9.793 9.076 9.79 9.069 9.78 C 9.048 9.746 9.11 9.692 9.16 9.701 C 9.176 9.704 9.186 9.703 9.188 9.697 C 9.192 9.684 10.365 9.684 10.37 9.696 C 10.373 9.707 10.415 9.709 10.415 9.698 C 10.415 9.695 10.427 9.689 10.442 9.687 C 10.48 9.681 10.499 9.67 10.51 9.65 C 10.515 9.641 10.525 9.633 10.531 9.633 C 10.538 9.633 10.539 9.63 10.535 9.627 C 10.525 9.619 10.52 9.229 10.531 9.222 C 10.542 9.216 10.542 9.083 10.531 9.076 C 10.526 9.073 10.524 9.01 10.526 8.874 C 10.528 8.658 10.525 8.642 10.483 8.622 C 10.471 8.617 10.263 8.615 9.801 8.615 L 9.137 8.615 L 9.107 8.599 C 9.053 8.57 9.055 8.589 9.055 8.099 C 9.055 7.701 9.056 7.662 9.067 7.662 C 9.076 7.662 9.077 7.66 9.07 7.651 C 9.057 7.636 9.115 7.579 9.139 7.584 C 9.15 7.586 9.158 7.583 9.16 7.576 C 9.164 7.568 9.173 7.566 9.198 7.569 C 9.222 7.572 9.235 7.57 9.242 7.563 C 9.254 7.551 9.303 7.549 9.303 7.56 C 9.303 7.564 9.306 7.567 9.31 7.567 C 9.314 7.567 9.316 7.564 9.315 7.559 C 9.312 7.546 9.362 7.535 9.378 7.545 C 9.388 7.552 9.393 7.551 9.4 7.541 C 9.407 7.532 9.417 7.53 9.443 7.533 C 9.468 7.535 9.477 7.534 9.48 7.526 C 9.483 7.518 9.494 7.516 9.521 7.518 C 9.547 7.519 9.558 7.517 9.561 7.51 C 9.564 7.503 9.574 7.501 9.601 7.504 C 9.621 7.505 9.637 7.505 9.637 7.502 C 9.637 7.492 9.689 7.486 9.699 7.494 C 9.706 7.5 9.709 7.499 9.713 7.49 C 9.716 7.481 9.725 7.479 9.753 7.481 C 9.779 7.483 9.791 7.481 9.793 7.474 C 9.796 7.466 9.807 7.465 9.832 7.467 C 9.857 7.469 9.87 7.467 9.877 7.46 C 9.884 7.452 9.895 7.45 9.918 7.454 C 9.936 7.456 9.95 7.455 9.951 7.45 C 9.955 7.438 10.016 7.433 10.023 7.444 C 10.028 7.453 10.03 7.452 10.03 7.443 C 10.03 7.429 10.077 7.42 10.096 7.43 C 10.105 7.434 10.11 7.433 10.113 7.424 C 10.117 7.415 10.125 7.413 10.157 7.417 C 10.188 7.42 10.197 7.418 10.2 7.409 C 10.204 7.401 10.213 7.399 10.241 7.402 C 10.261 7.404 10.277 7.403 10.277 7.399 C 10.277 7.389 10.342 7.383 10.353 7.392 C 10.36 7.399 10.364 7.398 10.367 7.389 C 10.371 7.379 10.38 7.377 10.408 7.379 C 10.432 7.381 10.445 7.379 10.448 7.373 C 10.45 7.368 10.457 7.364 10.465 7.364 C 10.479 7.364 10.517 7.331 10.517 7.319 C 10.517 7.316 10.522 7.313 10.529 7.313 C 10.537 7.313 10.539 7.31 10.533 7.304 C 10.523 7.291 10.523 6.374 10.533 6.362 C 10.538 6.355 10.538 6.353 10.53 6.353 C 10.524 6.353 10.515 6.345 10.51 6.335 C 10.503 6.322 10.494 6.316 10.478 6.316 C 10.363 6.313 10.32 6.314 10.318 6.32 Z  M 15.382 9.274 L 15.382 11.822 L 15.884 11.822 L 16.386 11.822 L 16.386 10.637 C 16.386 9.842 16.383 9.45 16.378 9.447 C 16.367 9.44 16.378 9.429 16.397 9.429 C 16.415 9.429 16.452 9.477 16.484 9.542 C 16.492 9.558 16.503 9.579 16.51 9.589 C 16.516 9.599 16.534 9.63 16.549 9.658 C 16.565 9.686 16.585 9.724 16.595 9.742 C 16.605 9.76 16.615 9.778 16.618 9.782 C 16.621 9.786 16.641 9.822 16.662 9.862 C 16.715 9.961 16.716 9.963 16.72 9.967 C 16.722 9.969 16.731 9.984 16.739 10 C 16.765 10.047 16.801 10.114 16.82 10.145 C 16.829 10.161 16.844 10.189 16.853 10.207 C 16.862 10.225 16.871 10.242 16.873 10.244 C 16.877 10.247 16.902 10.292 16.924 10.334 C 16.93 10.346 16.937 10.358 16.939 10.36 C 16.941 10.362 16.949 10.377 16.958 10.393 C 16.983 10.44 17.02 10.507 17.038 10.538 C 17.047 10.554 17.062 10.582 17.071 10.6 C 17.08 10.618 17.089 10.634 17.091 10.636 C 17.093 10.638 17.105 10.658 17.116 10.68 C 17.128 10.702 17.144 10.731 17.152 10.745 C 17.16 10.759 17.174 10.784 17.182 10.8 C 17.191 10.816 17.205 10.84 17.213 10.854 C 17.221 10.868 17.235 10.895 17.245 10.913 C 17.256 10.931 17.27 10.957 17.278 10.971 C 17.311 11.03 17.342 11.085 17.356 11.113 C 17.364 11.129 17.373 11.143 17.375 11.145 C 17.377 11.147 17.385 11.162 17.393 11.178 C 17.401 11.194 17.409 11.209 17.411 11.211 C 17.421 11.22 17.434 11.249 17.43 11.253 C 17.428 11.255 17.431 11.26 17.436 11.265 C 17.461 11.285 17.552 11.467 17.54 11.474 C 17.533 11.478 17.534 11.48 17.542 11.48 C 17.549 11.48 17.568 11.511 17.592 11.558 C 17.665 11.707 17.712 11.769 17.769 11.794 C 17.78 11.799 17.789 11.807 17.789 11.812 C 17.789 11.816 17.797 11.818 17.808 11.816 C 17.821 11.814 17.826 11.816 17.826 11.825 C 17.826 11.832 17.829 11.835 17.833 11.832 C 17.843 11.826 18.101 11.826 18.107 11.832 C 18.116 11.84 18.137 11.836 18.141 11.825 C 18.145 11.815 18.181 11.814 18.429 11.816 C 18.651 11.818 18.714 11.816 18.716 11.809 C 18.718 11.804 18.727 11.8 18.735 11.8 C 18.749 11.8 18.749 11.797 18.749 11.393 C 18.749 11.035 18.751 10.985 18.76 10.985 C 18.775 10.985 18.777 10.43 18.763 10.421 C 18.751 10.414 18.759 9.171 18.771 9.156 C 18.781 9.145 18.779 8.629 18.77 8.629 C 18.767 8.629 18.762 8.617 18.76 8.602 C 18.757 8.587 18.752 8.569 18.749 8.563 C 18.745 8.556 18.746 8.548 18.751 8.543 C 18.758 8.537 18.757 8.535 18.749 8.535 C 18.743 8.535 18.729 8.521 18.718 8.504 C 18.69 8.459 18.668 8.437 18.634 8.415 C 18.597 8.392 18.523 8.336 18.459 8.284 C 18.433 8.262 18.418 8.251 18.346 8.195 C 18.302 8.161 18.124 8.036 18.004 7.954 C 17.956 7.922 17.878 7.869 17.831 7.837 C 17.784 7.805 17.744 7.778 17.742 7.778 C 17.74 7.778 17.739 8.206 17.739 8.73 C 17.739 9.253 17.736 9.683 17.734 9.686 C 17.728 9.691 17.695 9.663 17.695 9.653 C 17.695 9.649 17.689 9.64 17.682 9.632 C 17.674 9.625 17.588 9.459 17.49 9.264 C 17.391 9.069 17.28 8.847 17.241 8.771 C 17.203 8.696 17.171 8.63 17.171 8.625 C 17.171 8.62 17.169 8.615 17.166 8.613 C 17.158 8.61 17.12 8.533 17.12 8.521 C 17.12 8.517 17.117 8.513 17.114 8.513 C 17.11 8.513 17.095 8.487 17.081 8.456 C 17.066 8.425 17.05 8.392 17.044 8.382 C 17.038 8.372 17 8.297 16.959 8.215 C 16.918 8.133 16.882 8.064 16.88 8.062 C 16.873 8.055 16.837 7.978 16.837 7.97 C 16.837 7.965 16.834 7.96 16.831 7.959 C 16.824 7.956 16.786 7.878 16.786 7.867 C 16.786 7.863 16.783 7.858 16.78 7.857 C 16.774 7.855 16.747 7.803 16.616 7.542 C 16.579 7.47 16.548 7.409 16.546 7.407 C 16.544 7.405 16.533 7.387 16.523 7.367 C 16.438 7.203 16.324 7.06 16.259 7.037 C 16.255 7.036 16.25 7.032 16.248 7.029 C 16.241 7.021 16.138 6.971 16.127 6.971 C 16.121 6.971 16.117 6.966 16.117 6.96 C 16.117 6.954 16.113 6.951 16.108 6.953 C 16.096 6.957 16.02 6.931 16.017 6.922 C 16.015 6.918 16.006 6.916 15.997 6.918 C 15.984 6.921 15.979 6.919 15.979 6.911 C 15.979 6.904 15.973 6.901 15.961 6.904 C 15.952 6.905 15.942 6.903 15.939 6.899 C 15.936 6.895 15.926 6.891 15.916 6.891 C 15.907 6.891 15.899 6.888 15.899 6.884 C 15.899 6.881 15.892 6.88 15.884 6.882 C 15.875 6.884 15.868 6.881 15.866 6.875 C 15.863 6.868 15.855 6.865 15.845 6.867 C 15.835 6.869 15.825 6.867 15.823 6.863 C 15.82 6.858 15.81 6.855 15.8 6.855 C 15.79 6.855 15.782 6.851 15.782 6.847 C 15.782 6.843 15.78 6.841 15.776 6.843 C 15.77 6.847 15.713 6.832 15.705 6.824 C 15.702 6.821 15.692 6.818 15.683 6.818 C 15.674 6.818 15.665 6.815 15.662 6.811 C 15.66 6.807 15.65 6.804 15.64 6.804 C 15.63 6.804 15.622 6.799 15.622 6.794 C 15.622 6.787 15.615 6.785 15.6 6.788 C 15.587 6.79 15.579 6.788 15.579 6.782 C 15.579 6.778 15.575 6.776 15.571 6.778 C 15.564 6.783 15.515 6.769 15.503 6.759 C 15.499 6.755 15.489 6.753 15.48 6.753 C 15.472 6.753 15.462 6.75 15.459 6.747 C 15.456 6.744 15.438 6.738 15.418 6.734 L 15.382 6.726 L 15.382 9.274 Z  M 13.044 7.523 C 13.046 7.526 13.067 7.531 13.09 7.533 C 13.114 7.535 13.141 7.541 13.15 7.546 C 13.16 7.552 13.171 7.555 13.175 7.554 C 13.178 7.553 13.188 7.555 13.196 7.559 C 13.24 7.579 13.296 7.604 13.299 7.604 C 13.307 7.604 13.412 7.675 13.455 7.709 C 13.519 7.761 13.616 7.863 13.67 7.935 C 13.682 7.951 13.694 7.965 13.697 7.966 C 13.7 7.967 13.702 7.971 13.702 7.975 C 13.702 7.978 13.717 8.002 13.734 8.027 C 13.752 8.052 13.774 8.088 13.784 8.106 C 13.794 8.124 13.806 8.146 13.81 8.153 C 13.835 8.196 13.884 8.311 13.88 8.317 C 13.878 8.321 13.879 8.324 13.884 8.324 C 13.888 8.324 13.891 8.33 13.891 8.338 C 13.891 8.346 13.895 8.354 13.899 8.356 C 13.903 8.359 13.906 8.369 13.906 8.378 C 13.906 8.388 13.909 8.398 13.913 8.4 C 13.924 8.406 13.922 8.431 13.911 8.435 C 13.906 8.438 13.907 8.439 13.914 8.439 C 13.93 8.44 13.938 8.461 13.927 8.474 C 13.921 8.481 13.921 8.484 13.931 8.484 C 13.941 8.484 13.943 8.489 13.941 8.509 C 13.939 8.526 13.941 8.535 13.947 8.535 C 13.956 8.535 13.964 8.574 13.966 8.627 C 13.967 8.644 13.97 8.658 13.973 8.658 C 13.983 8.658 13.988 8.711 13.98 8.725 C 13.968 8.743 13.969 8.753 13.983 8.753 C 13.994 8.753 13.995 8.761 13.991 8.828 C 13.988 8.891 13.989 8.905 13.997 8.908 C 14.012 8.914 14.01 9.136 13.995 9.133 C 13.989 9.132 13.988 9.151 13.991 9.215 C 13.995 9.289 13.994 9.298 13.983 9.298 C 13.977 9.298 13.971 9.301 13.971 9.305 C 13.971 9.309 13.975 9.313 13.979 9.313 C 13.989 9.313 13.988 9.351 13.978 9.376 C 13.973 9.387 13.97 9.407 13.971 9.419 C 13.972 9.432 13.968 9.446 13.963 9.451 C 13.957 9.457 13.954 9.47 13.956 9.485 C 13.958 9.502 13.955 9.51 13.947 9.513 C 13.939 9.516 13.936 9.523 13.939 9.534 C 13.946 9.56 13.929 9.611 13.915 9.611 C 13.907 9.612 13.906 9.613 13.911 9.616 C 13.922 9.62 13.924 9.645 13.913 9.651 C 13.909 9.653 13.906 9.663 13.906 9.673 C 13.906 9.683 13.903 9.691 13.9 9.691 C 13.896 9.691 13.892 9.702 13.889 9.715 C 13.884 9.748 13.839 9.843 13.828 9.844 C 13.824 9.844 13.822 9.85 13.824 9.858 C 13.827 9.869 13.81 9.91 13.797 9.924 C 13.795 9.926 13.783 9.946 13.771 9.969 C 13.759 9.992 13.747 10.011 13.744 10.011 C 13.741 10.011 13.739 10.014 13.739 10.018 C 13.739 10.025 13.69 10.097 13.68 10.105 C 13.678 10.107 13.673 10.114 13.669 10.121 C 13.623 10.202 13.357 10.441 13.336 10.42 C 13.333 10.418 13.331 10.419 13.331 10.423 C 13.331 10.432 13.229 10.484 13.212 10.484 C 13.206 10.484 13.199 10.487 13.197 10.491 C 13.194 10.495 13.186 10.498 13.178 10.498 C 13.17 10.498 13.158 10.501 13.151 10.505 C 13.117 10.523 13.077 10.529 13.066 10.52 C 13.055 10.511 13.053 10.512 13.047 10.522 C 13.036 10.541 12.83 10.541 12.83 10.522 C 12.83 10.512 12.828 10.512 12.821 10.518 C 12.809 10.53 12.782 10.529 12.769 10.517 C 12.763 10.511 12.752 10.508 12.743 10.51 C 12.734 10.513 12.727 10.51 12.724 10.504 C 12.721 10.497 12.713 10.494 12.703 10.496 C 12.694 10.498 12.684 10.496 12.681 10.492 C 12.678 10.487 12.67 10.484 12.663 10.484 C 12.648 10.484 12.507 10.412 12.504 10.403 C 12.502 10.399 12.497 10.396 12.491 10.396 C 12.486 10.396 12.481 10.394 12.479 10.391 C 12.478 10.388 12.464 10.376 12.448 10.364 C 12.432 10.352 12.411 10.335 12.401 10.327 C 12.369 10.301 12.267 10.197 12.244 10.168 C 12.232 10.153 12.217 10.133 12.21 10.125 C 12.203 10.117 12.197 10.108 12.197 10.106 C 12.197 10.103 12.191 10.095 12.184 10.087 C 12.165 10.066 12.117 9.99 12.117 9.982 C 12.117 9.978 12.115 9.974 12.111 9.974 C 12.108 9.974 12.102 9.967 12.098 9.958 C 12.093 9.949 12.078 9.919 12.064 9.891 C 12.041 9.844 12.027 9.814 12.006 9.764 C 12.002 9.754 11.995 9.738 11.991 9.729 C 11.987 9.72 11.983 9.701 11.983 9.687 C 11.983 9.671 11.979 9.662 11.972 9.662 C 11.966 9.662 11.964 9.656 11.966 9.644 C 11.968 9.633 11.966 9.625 11.959 9.622 C 11.954 9.62 11.95 9.612 11.95 9.604 C 11.95 9.596 11.946 9.581 11.941 9.571 C 11.935 9.557 11.935 9.551 11.942 9.542 C 11.95 9.533 11.949 9.531 11.939 9.531 C 11.929 9.531 11.927 9.526 11.929 9.506 C 11.931 9.489 11.929 9.479 11.922 9.476 C 11.915 9.474 11.913 9.464 11.915 9.444 C 11.916 9.424 11.914 9.414 11.907 9.411 C 11.9 9.408 11.898 9.397 11.9 9.374 C 11.901 9.357 11.9 9.341 11.896 9.34 C 11.886 9.336 11.881 9.265 11.891 9.259 C 11.902 9.252 11.901 9.233 11.889 9.233 C 11.882 9.233 11.878 9.215 11.874 9.166 C 11.864 9.022 11.872 8.84 11.889 8.84 C 11.894 8.84 11.899 8.835 11.899 8.829 C 11.899 8.823 11.895 8.818 11.891 8.818 C 11.88 8.818 11.886 8.736 11.897 8.733 C 11.901 8.731 11.903 8.717 11.901 8.699 C 11.898 8.677 11.9 8.665 11.908 8.657 C 11.915 8.651 11.918 8.639 11.915 8.62 C 11.913 8.602 11.914 8.593 11.92 8.593 C 11.925 8.593 11.927 8.59 11.925 8.586 C 11.917 8.574 11.929 8.535 11.941 8.535 C 11.95 8.535 11.95 8.533 11.942 8.523 C 11.935 8.515 11.935 8.508 11.941 8.494 C 11.946 8.484 11.95 8.469 11.95 8.461 C 11.95 8.453 11.954 8.445 11.959 8.443 C 11.966 8.441 11.968 8.432 11.966 8.421 C 11.964 8.409 11.966 8.404 11.974 8.404 C 11.981 8.404 11.983 8.399 11.981 8.389 C 11.979 8.381 11.981 8.37 11.985 8.365 C 11.99 8.359 11.991 8.353 11.989 8.351 C 11.987 8.349 11.992 8.331 12.001 8.312 C 12.01 8.292 12.019 8.27 12.022 8.262 C 12.066 8.154 12.173 7.971 12.234 7.898 C 12.28 7.844 12.401 7.724 12.427 7.706 C 12.442 7.696 12.458 7.684 12.462 7.68 C 12.475 7.667 12.553 7.618 12.561 7.618 C 12.565 7.618 12.568 7.615 12.568 7.611 C 12.568 7.607 12.572 7.604 12.576 7.604 C 12.581 7.604 12.603 7.595 12.625 7.585 C 12.667 7.565 12.678 7.561 12.719 7.545 C 12.738 7.538 12.745 7.538 12.754 7.546 C 12.763 7.554 12.765 7.553 12.763 7.545 C 12.761 7.537 12.769 7.535 12.795 7.535 C 12.819 7.535 12.83 7.533 12.83 7.526 C 12.83 7.515 13.037 7.512 13.044 7.523 Z  M 6.232 7.78 C 6.229 7.787 6.219 7.793 6.208 7.793 C 6.196 7.793 6.153 7.822 6.076 7.882 C 6.014 7.931 5.946 7.984 5.925 7.999 C 5.872 8.04 5.794 8.101 5.79 8.105 C 5.788 8.107 5.773 8.119 5.757 8.131 C 5.741 8.142 5.726 8.154 5.724 8.156 C 5.723 8.158 5.7 8.176 5.674 8.196 C 5.648 8.216 5.623 8.236 5.618 8.24 C 5.613 8.244 5.601 8.254 5.59 8.262 C 5.578 8.27 5.566 8.28 5.561 8.284 C 5.557 8.288 5.548 8.295 5.542 8.299 C 5.535 8.302 5.514 8.319 5.495 8.335 C 5.439 8.381 5.394 8.418 5.386 8.424 C 5.307 8.483 5.252 8.537 5.252 8.557 C 5.252 8.564 5.249 8.572 5.244 8.575 C 5.24 8.577 5.237 8.687 5.237 8.88 C 5.237 9.073 5.235 9.183 5.23 9.185 C 5.22 9.192 5.22 11.756 5.23 11.756 C 5.234 11.756 5.237 11.765 5.237 11.775 C 5.237 11.799 5.268 11.829 5.291 11.829 C 5.303 11.829 5.31 11.833 5.31 11.84 C 5.31 11.853 7.509 11.857 7.517 11.844 C 7.52 11.84 7.544 11.836 7.572 11.836 C 7.599 11.836 7.624 11.84 7.626 11.844 C 7.633 11.854 7.644 11.852 7.644 11.84 C 7.644 11.834 7.651 11.829 7.658 11.829 C 7.682 11.829 7.717 11.79 7.718 11.762 C 7.725 11.33 7.717 10.742 7.705 10.725 C 7.677 10.688 7.686 10.688 6.984 10.688 C 6.406 10.687 6.328 10.686 6.328 10.676 C 6.328 10.67 6.321 10.665 6.31 10.665 C 6.3 10.665 6.292 10.669 6.292 10.673 C 6.292 10.679 6.252 10.684 6.246 10.678 C 6.245 10.677 6.243 10.022 6.241 9.222 C 6.239 8.422 6.235 7.773 6.232 7.78 Z " fill-rule="evenodd" fill="rgb(255,255,255)"/></g></g></svg>