<?xml version="1.0" encoding="UTF-8" standalone="no"?><!-- Generator: Gravit.io --><svg xmlns="http://www.w3.org/2000/svg" xmlns:xlink="http://www.w3.org/1999/xlink" style="isolation:isolate" viewBox="0 0 24 24" width="24pt" height="24pt"><defs><clipPath id="_clipPath_BFoySlfvjacKQVUV9UtAlSTDRujMNc5d"><rect width="24" height="24"/></clipPath></defs><g clip-path="url(#_clipPath_BFoySlfvjacKQVUV9UtAlSTDRujMNc5d)"><g><circle vector-effect="non-scaling-stroke" cx="12" cy="9.640866873065017" r="6.260061919504644" fill="rgb(254,225,51)"/><g><path d=" M 11.922 10.813 C 11.922 10.813 11.003 6.857 10.969 6.76 C 10.935 6.663 10.862 6.591 10.758 6.59 C 10.653 6.589 9.026 6.591 9.026 6.591 C 8.866 6.591 8.813 6.772 8.813 6.963 C 8.813 7.151 8.858 7.338 9.018 7.338 L 9.474 7.337 L 9.079 11.647 L 8.667 11.648 C 8.507 11.648 8.463 11.833 8.463 12.024 C 8.463 12.214 8.515 12.392 8.676 12.392 L 10.449 12.392 C 10.61 12.392 10.663 12.209 10.663 12.02 C 10.663 11.829 10.618 11.644 10.457 11.644 L 10.021 11.642 L 10.365 7.601 L 11.597 12.27 L 12.247 12.27 L 13.479 7.601 L 13.824 11.642 L 13.387 11.644 C 13.227 11.644 13.182 11.829 13.182 12.02 C 13.182 12.209 13.235 12.392 13.395 12.392 L 15.169 12.392 C 15.329 12.392 15.382 12.214 15.382 12.024 C 15.382 11.833 15.337 11.648 15.177 11.648 L 14.765 11.647 L 14.371 7.337 L 14.826 7.338 C 14.986 7.338 15.031 7.151 15.031 6.962 C 15.031 6.772 14.978 6.591 14.818 6.591 C 14.818 6.591 13.191 6.589 13.087 6.59 C 12.982 6.591 12.909 6.663 12.875 6.76 C 12.842 6.857 11.922 10.813 11.922 10.813 Z " fill="rgb(0,97,75)"/></g></g></g></svg>