<?xml version="1.0" encoding="UTF-8" standalone="no"?><!-- Generator: Gravit.io --><svg xmlns="http://www.w3.org/2000/svg" xmlns:xlink="http://www.w3.org/1999/xlink" style="isolation:isolate" viewBox="0 0 18.04 22" width="18.04pt" height="22pt"><defs><clipPath id="_clipPath_MnESJ8Z8fzDTa6RJ35NhK8gscL797Bcp"><rect width="18.04" height="22"/></clipPath></defs><g clip-path="url(#_clipPath_MnESJ8Z8fzDTa6RJ35NhK8gscL797Bcp)"><path d=" M 3.195 11.767 C 2.75 11.749 2.385 11.627 2.1 11.401 C 2.046 11.358 1.916 11.228 1.873 11.174 C 1.757 11.028 1.679 10.887 1.626 10.73 C 1.465 10.247 1.548 9.613 1.864 8.918 C 2.134 8.323 2.551 7.732 3.278 6.914 C 3.385 6.794 3.704 6.442 3.707 6.442 C 3.707 6.442 3.69 6.472 3.668 6.509 C 3.479 6.825 3.317 7.199 3.229 7.522 C 3.087 8.04 3.104 8.485 3.279 8.83 C 3.399 9.067 3.606 9.273 3.838 9.387 C 4.244 9.586 4.839 9.603 5.566 9.435 C 5.616 9.424 8.095 8.766 11.075 7.973 C 14.055 7.18 16.494 6.532 16.494 6.532 C 16.495 6.533 9.571 9.496 5.976 11.033 C 5.407 11.276 5.255 11.338 4.987 11.432 C 4.303 11.672 3.69 11.787 3.195 11.767 Z " fill="rgb(255,255,255)"/></g></svg>