<?xml version="1.0" encoding="UTF-8" standalone="no"?><!-- Generator: Gravit.io --><svg xmlns="http://www.w3.org/2000/svg" xmlns:xlink="http://www.w3.org/1999/xlink" style="isolation:isolate" viewBox="0 0 24 24" width="24pt" height="24pt"><defs><clipPath id="_clipPath_FP3EEVHv4r2uyCODonaJbeUv6975JvY1"><rect width="24" height="24"/></clipPath></defs><g clip-path="url(#_clipPath_FP3EEVHv4r2uyCODonaJbeUv6975JvY1)"><g><path d=" M 5 9.14 C 4.71 9.297 4.623 9.43 4.623 9.708 C 4.623 10.05 4.739 10.166 5.29 10.386 C 5.684 10.543 5.695 10.555 5.695 10.752 C 5.695 11.117 5.266 11.192 4.837 10.902 L 4.646 10.769 L 4.553 10.897 C 4.461 11.018 4.461 11.036 4.582 11.146 C 4.762 11.314 4.988 11.389 5.324 11.389 C 5.84 11.389 6.13 11.146 6.13 10.705 C 6.13 10.386 5.985 10.236 5.516 10.062 C 5 9.865 4.866 9.708 5.064 9.511 C 5.18 9.389 5.51 9.395 5.736 9.511 C 5.91 9.598 5.922 9.598 5.997 9.5 C 6.113 9.343 6.095 9.308 5.829 9.187 C 5.551 9.059 5.18 9.042 5 9.14 Z " fill="rgb(7,65,137)"/><path d=" M 7.121 9.129 C 6.565 9.366 6.293 9.911 6.426 10.526 C 6.501 10.862 6.756 11.192 7.04 11.308 C 7.417 11.465 8.008 11.389 8.316 11.146 C 8.379 11.094 8.35 10.949 8.246 10.821 C 8.24 10.815 8.119 10.862 7.979 10.926 C 7.655 11.071 7.429 11.071 7.185 10.926 C 6.727 10.647 6.716 9.847 7.162 9.558 C 7.382 9.413 7.834 9.43 8.049 9.587 C 8.211 9.708 8.211 9.708 8.275 9.598 C 8.368 9.413 8.345 9.331 8.153 9.221 C 7.945 9.1 7.33 9.042 7.121 9.129 Z " fill="rgb(7,65,137)"/><path d=" M 9.492 9.111 C 9.446 9.129 9.347 9.21 9.278 9.291 L 9.145 9.447 L 9.145 9.285 C 9.145 9.14 9.127 9.129 8.913 9.129 L 8.681 9.129 L 8.692 10.242 L 8.71 11.36 L 8.913 11.36 L 9.116 11.36 L 9.145 10.607 C 9.179 9.656 9.272 9.476 9.718 9.476 C 9.887 9.476 9.898 9.459 9.898 9.273 C 9.898 9.088 9.881 9.071 9.742 9.076 C 9.649 9.076 9.539 9.094 9.492 9.111 Z " fill="rgb(7,65,137)"/><path d=" M 13.84 9.163 C 13.214 9.436 12.982 10.201 13.324 10.879 C 13.492 11.21 13.742 11.355 14.194 11.378 C 14.605 11.401 14.884 11.337 15.104 11.169 C 15.22 11.076 15.226 11.059 15.144 10.943 C 15.057 10.821 15.057 10.821 14.843 10.931 C 14.71 11.001 14.507 11.042 14.321 11.042 C 14.072 11.042 13.985 11.013 13.84 10.879 C 13.747 10.792 13.649 10.636 13.631 10.531 L 13.597 10.346 L 14.443 10.346 L 15.289 10.346 L 15.289 10.068 C 15.284 9.343 14.524 8.868 13.84 9.163 Z  M 14.599 9.476 C 14.721 9.546 14.884 9.824 14.884 9.969 C 14.884 10.044 14.785 10.056 14.246 10.056 C 13.637 10.056 13.608 10.05 13.608 9.934 C 13.608 9.865 13.695 9.726 13.805 9.616 C 13.968 9.453 14.049 9.418 14.246 9.418 C 14.379 9.418 14.536 9.447 14.599 9.476 Z " fill="rgb(7,65,137)"/><path d=" M 16.402 9.163 C 16.292 9.221 16.194 9.297 16.176 9.343 C 16.124 9.471 16.043 9.43 16.043 9.273 C 16.043 9.146 16.02 9.129 15.84 9.129 L 15.637 9.129 L 15.649 10.242 L 15.666 11.36 L 15.846 11.378 L 16.026 11.395 L 16.055 10.653 C 16.083 9.807 16.159 9.587 16.454 9.482 C 16.704 9.395 16.762 9.401 16.918 9.529 C 17.052 9.633 17.057 9.685 17.086 10.502 L 17.115 11.36 L 17.336 11.378 L 17.55 11.395 L 17.55 10.549 C 17.55 9.656 17.504 9.43 17.266 9.221 C 17.098 9.071 16.646 9.042 16.402 9.163 Z " fill="rgb(7,65,137)"/><path d=" M 18.321 9.158 C 18.13 9.239 17.956 9.5 17.956 9.708 C 17.956 10.027 18.159 10.213 18.727 10.41 C 19.017 10.514 19.138 10.653 19.092 10.833 C 19.017 11.128 18.454 11.146 18.159 10.868 C 18.031 10.752 18.031 10.752 17.927 10.862 C 17.794 11.018 17.846 11.128 18.124 11.273 C 18.628 11.528 19.318 11.372 19.457 10.972 C 19.614 10.531 19.451 10.294 18.82 10.027 C 18.483 9.888 18.385 9.818 18.373 9.72 C 18.362 9.644 18.385 9.546 18.42 9.5 C 18.518 9.389 18.941 9.395 19.109 9.511 C 19.231 9.598 19.249 9.598 19.33 9.517 C 19.625 9.227 18.825 8.937 18.321 9.158 Z " fill="rgb(7,65,137)"/><path d=" M 10.246 10.259 L 10.246 11.389 L 10.449 11.389 L 10.652 11.389 L 10.652 10.259 L 10.652 9.129 L 10.449 9.129 L 10.246 9.129 L 10.246 10.259 Z " fill="rgb(7,65,137)"/><path d=" M 11 9.169 C 11 9.244 11.823 11.239 11.887 11.32 C 11.921 11.36 12.014 11.389 12.095 11.378 C 12.234 11.36 12.287 11.262 12.692 10.288 C 12.936 9.697 13.139 9.192 13.139 9.169 C 13.144 9.14 13.046 9.129 12.93 9.14 L 12.715 9.158 L 12.414 9.94 C 12.252 10.369 12.095 10.723 12.066 10.723 C 12.043 10.723 11.887 10.369 11.718 9.94 L 11.423 9.158 L 11.208 9.14 C 11.092 9.129 11 9.14 11 9.169 Z " fill="rgb(7,65,137)"/></g><rect x="10.273" y="8.289" width="0.367" height="0.367" transform="matrix(1,0,0,1,0,0)" fill="rgb(7,65,137)"/></g></svg>