<?xml version="1.0" encoding="UTF-8" standalone="no"?>
<!-- Created with Inkscape (http://www.inkscape.org/) -->

<svg
   width="2272.1326"
   height="699.06384"
   version="1.1"
   viewBox="0 0 2272.1326 699.06387"
   id="svg23"
   sodipodi:docname="storal_flat.svg"
   xml:space="preserve"
   inkscape:version="1.3 (0e150ed6c4, 2023-07-21)"
   inkscape:export-filename="storal_flat.svg"
   inkscape:export-xdpi="96"
   inkscape:export-ydpi="96"
   xmlns:inkscape="http://www.inkscape.org/namespaces/inkscape"
   xmlns:sodipodi="http://sodipodi.sourceforge.net/DTD/sodipodi-0.dtd"
   xmlns="http://www.w3.org/2000/svg"
   xmlns:svg="http://www.w3.org/2000/svg"><sodipodi:namedview
     id="namedview1"
     pagecolor="#ffffff"
     bordercolor="#000000"
     borderopacity="0.25"
     inkscape:showpageshadow="2"
     inkscape:pageopacity="0.0"
     inkscape:pagecheckerboard="0"
     inkscape:deskcolor="#d1d1d1"
     showgrid="false"
     inkscape:zoom="0.29705238"
     inkscape:cx="945.96111"
     inkscape:cy="503.27824"
     inkscape:window-width="1920"
     inkscape:window-height="974"
     inkscape:window-x="-11"
     inkscape:window-y="1609"
     inkscape:window-maximized="1"
     inkscape:current-layer="g6" /><defs
     id="defs23" /><g
     id="g1"
     transform="matrix(0.88133097,0,0,0.88133097,511.19082,-978.91529)"><g
       id="g6"
       transform="translate(1207.3147,2.7009276)"><g
         id="g8"
         transform="matrix(4.9352769,0,0,4.9352769,-1755.9878,1153.6481)"><path
           d="M 0,0 C 1.1390479,0.00757324 2.2780957,0.01514648 3.4516602,0.02294922 16.544601,0.27734333 30.467299,2.4630875 41.3125,10.4375 c 2.663811,4.343691 2.332338,9.181327 2.3125,14.125 0.01611,0.81082 0.03223,1.621641 0.04883,2.457031 6.45e-4,0.779883 0.0013,1.559766 0.002,2.363281 0.003,0.706568 0.006,1.413135 0.009,2.141114 -0.485756,2.496629 -1.378453,3.375948 -3.372314,4.913574 -2.875,0.5 -2.875,0.5 -6,0 C 30.874078,33.772723 28.749193,30.62043 26.4375,27 21.62555,19.678526 16.862228,15.836563 8.2148438,13.84375 0.43501564,12.754783 -7.2479356,13.69495 -13.6875,18.4375 c -2.954556,3.250011 -4.233593,5.731515 -4.4375,10.0625 0.570258,5.13232 1.843258,7.480398 5.617187,10.929687 3.212154,2.286769 5.9792541,3.264708 9.757813,4.382813 0.6794971,0.204961 1.3589941,0.409922 2.05908203,0.621094 4.17683457,1.241435 8.37858077,2.375097 12.59326197,3.480468 0.958498,0.253462 1.916997,0.506924 2.904541,0.768067 1.868687,0.490017 3.740177,0.969513 5.614746,1.436523 11.011256,2.867589 20.912723,7.297683 27.140869,17.193848 5.208186,9.271117 6.376997,18.909657 3.625,29.25 -4.607568,13.31075 -13.052567,21.36641 -25.492188,27.55078 -9.235874,3.61543 -17.6653851,4.85051 -27.570312,4.76172 -1.185293,-0.008 -2.3705859,-0.0152 -3.5917969,-0.023 C -21.402117,128.55397 -35.770211,125.24778 -47.6875,114 c -4.527817,-4.83561 -6.681802,-8.48659 -7.375,-15.1875 0.402364,-3.621279 1.176903,-5.500565 3.375,-8.375 3.218813,-1.609406 6.509095,-1.453276 10,-1 3.946764,2.117776 5.911701,5.248324 8.375,8.875 6.014988,8.75844 12.080566,12.91427 22.625,15.125 8.6404713,0.93565 16.3934061,0.46003 24,-4 3.906446,-3.25537 6.57227,-6.27153 7.371094,-11.367188 C 20.800268,93.664133 20.620405,91.010841 18.5,87.0625 10.890369,79.484553 -3.8709788,78.409419 -13.861328,76.257812 -25.881358,73.514731 -36.919463,69.451716 -44.6875,59.4375 c -5.24475,-8.547567 -5.938163,-17.172436 -5,-27 2.547234,-10.360513 9.38372,-19.742758 18.355469,-25.515625 C -21.276798,1.6145024 -11.279728,-0.10554327 0,0 Z"
           fill="#38312c"
           transform="translate(54.6875,13.5625)"
           id="path1" /><path
           d="m 0,0 c 6.107347,5.2218468 9.653193,11.567815 10.832031,19.566406 0.140417,3.397006 0.136934,6.791879 0.140625,10.191406 0.01832,2.016288 0.03788,4.032564 0.05859,6.048829 0.02904,3.169056 0.05078,6.337393 0.05127,9.506591 0.0033,3.065505 0.03781,6.129362 0.07764,9.19458 -0.0071,0.94799 -0.01414,1.89598 -0.02142,2.872696 0.02331,5.431429 0.02331,5.431429 3.122009,9.728623 0.848526,0.480901 1.697051,0.961802 2.571289,1.457275 1.8125,1.375 1.8125,1.375 3,3 0.378991,3.03193 0.622464,5.051876 -1.090088,7.660401 C 15.851999,81.253795 13.39494,80.972895 9.8984375,81 c -0.6743459,0.0052 -1.3486917,0.01048 -2.0434723,0.01588 -1.4247042,0.0064 -2.8494615,0.0051 -4.2741547,-0.0034 -2.1756875,-0.0085 -4.34874228,0.02024 -6.5241699,0.052 -1.3860669,0.0016 -2.7721385,10e-4 -4.1582031,-0.002 -1.8880335,0.0028 -1.8880335,0.0028 -3.8142085,0.0056 -3.799685,-0.586168 -4.955553,-1.483412 -7.252198,-4.501709 -0.75,-2.25 -0.75,-2.25 -1,-4 -0.426679,0.458906 -0.853359,0.917813 -1.292968,1.390625 -7.179316,7.046091 -15.738316,9.700605 -25.707032,10.109375 -10.004011,-0.396984 -19.789423,-3.342835 -27,-10.5 -6.068119,-7.664993 -6.901422,-15.495126 -6,-25 1.99096,-7.928072 6.839286,-13.473852 13.734375,-17.660156 11.598223,-6.114607 23.128793,-8.529719 36.140625,-8.402344 0.879141,0.0045 1.758282,0.009 2.664063,0.01367 2.153675,0.0117 4.307315,0.02964 6.460937,0.04883 -2.065892,-8.013653 -2.065892,-8.013653 -6.625,-14.6874998 -4.87718,-2.6952839 -8.821497,-2.9228694 -14.375,-2.3125 -3.003651,1.5618989 -5.264197,3.3281085 -7.753906,5.6015628 -4.855341,4.139301 -8.353853,5.189009 -14.753906,4.78125 -3.262919,-0.501201 -5.131638,-1.022263 -7.492188,-3.382813 -1.7953,-3.9646201 -2.311997,-6.0055079 -1,-10.1874997 5.015584,-7.0531649 13.177409,-9.0433817 21.309082,-10.4667969 C -33.855083,-10.272375 -14.338128,-10.613939 0,0 Z m -43.53125,42.550781 c -3.315685,4.083278 -4.715885,8.156336 -4.570312,13.414063 0.61743,3.912559 1.683278,6.882319 4.496093,9.726562 3.883377,2.118206 5.845076,2.477275 10.125,1.710938 5.690167,-2.056919 9.338361,-6.107627 12.25,-11.273438 2.146558,-7.19728 2.199847,-14.115241 2.0625,-21.5625 -9.417164,-0.523176 -17.420485,1.280986 -24.363281,7.984375 z"
           fill="#38312c"
           transform="translate(436.16797,57.433594)"
           id="path2" /><path
           d="M 0,0 C 0.63550781,0.43957031 1.2710156,0.87914062 1.9257812,1.3320312 10.178156,7.6814193 15.898421,17.994791 17.31543,28.292236 17.471635,30.621134 17.519291,32.91604 17.5,35.25 17.4936,36.075564 17.48711,36.901128 17.48047,37.751709 17.124943,49.775259 12.509526,59.520385 4,68 -9.1058406,79.293566 -25.044805,83.143659 -42,82 -55.543861,80.244314 -67.757057,75.324954 -77,65 -84.043333,55.438984 -88.085805,43.963963 -87,32 -84.647441,17.745089 -78.201786,6.9752965 -66.691406,-1.75 -46.773956,-14.832069 -19.191202,-13.484791 0,0 Z m -48.125,10.0625 c -5.28218,8.275416 -6.253836,15.81883 -6.3125,25.5 -0.01,0.969214 -0.01998,1.938428 -0.03027,2.937012 C -54.361062,47.489176 -52.77745,55.86315 -47,63 c 5.247513,4.622809 8.347544,5.35331 15.238281,5.28125 4.964892,-0.505618 7.59618,-2.953392 10.78125,-6.582031 5.738286,-7.820819 6.354943,-17.005838 6.417969,-26.386719 0.01,-0.86625 0.01998,-1.7325 0.03027,-2.625 C -14.647133,24.033385 -16.461445,15.841744 -22,9 -27.247513,4.3771906 -30.347544,3.64669 -37.238281,3.71875 -42.16102,4.2200756 -44.707814,6.7458196 -48.125,10.0625 Z"
           fill="#38312c"
           transform="translate(262,59)"
           id="path3" /><path
           d="m 0,0 c 3.4070669,3.0576241 4.3127252,5.5873874 5,10 0.081432,1.617556 0.1163133,3.237947 0.1111145,4.857544 -3.273e-4,0.950447 -6.546e-4,1.900894 -9.918e-4,2.880142 -0.00524,1.030802 -0.010484,2.061604 -0.015884,3.123642 -0.00279,2.268514 -0.00546,4.537028 -0.00803,6.805542 -0.00305,1.199911 -0.0061,2.399822 -0.00924,3.636093 -0.011344,6.35347 0.00915,12.706868 0.024593,19.060318 0.018316,8.085261 0.02767,16.170131 -0.00195,24.255371 -0.023832,6.535256 -0.011171,13.069875 0.023006,19.605088 0.00678,2.491096 0.00105,4.982259 -0.017357,7.4733 -0.024081,3.48148 -0.00502,6.96024 0.024136,10.44163 -0.017387,1.0308 -0.034774,2.06161 -0.052689,3.12364 -0.041055,5.16395 -0.041055,5.16395 2.4979668,9.40921 1.8589249,1.33985 1.8589249,1.33985 3.8087175,2.3175 C 13,128 13,128 14.1875,131.0625 14,134 14,134 12.580322,136.15259 c -3.874971,2.77433 -7.3979033,2.40235 -12.05297825,2.3435 -1.37918861,0.002 -1.37918861,0.002 -2.78623965,0.004 -1.9408332,-0.002 -3.8816798,-0.0132 -5.8224029,-0.0339 -2.9741172,-0.029 -5.9464562,-0.0206 -8.9206542,-0.008 -1.886077,-0.006 -3.772147,-0.0146 -5.658203,-0.0254 -0.890667,0.003 -1.781334,0.006 -2.69899,0.009 -0.827734,-0.0127 -1.655469,-0.0254 -2.508286,-0.0384 -0.727398,-0.005 -1.454797,-0.0108 -2.204239,-0.0164 C -32.572231,137.88496 -33.461477,137.00429 -35,135 c -0.5,-2.9375 -0.5,-2.9375 0,-6 2.224618,-2.16608 4.233775,-3.61689 7,-5 1.339383,-4.01815 1.139042,-7.88431 1.129395,-12.07373 0.0018,-0.92875 0.0035,-1.8575 0.0053,-2.81439 0.0044,-3.07638 0.0015,-6.15269 -0.0019,-9.229068 6.73e-4,-2.136077 0.0016,-4.272155 0.0029,-6.408233 0.0015,-4.480629 -6.73e-4,-8.961238 -0.0053,-13.441864 -0.0057,-5.742335 -0.0024,-11.484624 0.0036,-17.226957 0.0036,-4.412909 0.0025,-8.825806 -1.28e-4,-13.238715 -6.67e-4,-2.117093 1.51e-4,-4.234188 0.0025,-6.35128 0.0025,-2.961108 -0.0013,-5.922141 -0.0069,-8.883243 0.003,-1.312473 0.003,-1.312473 0.0061,-2.651459 C -26.826125,25.763463 -26.826125,25.763463 -28,20 c -2.361861,-1.261458 -2.361861,-1.261458 -5,-2 -0.99,-0.66 -1.98,-1.32 -3,-2 -0.654373,-5.125924 -0.654373,-5.125924 1.180908,-7.5773926 C -30.893306,5.3524756 -25.54692,4.6046864 -20.8125,3.3125 -19.700684,2.992168 -18.588867,2.6718359 -17.443359,2.3417969 -11.489123,0.68842997 -6.1851712,-0.63437654 0,0 Z"
           fill="#38312c"
           transform="translate(499)"
           id="path4" /><path
           d="M 0,0 C 1.1562891,-0.00515625 2.3125781,-0.0103125 3.5039063,-0.015625 6.4375,0.25 6.4375,0.25 8.4375,2.25 8.6645508,5.0473633 8.6645508,5.0473633 8.6328125,8.5703125 8.6263672,9.8271484 8.6199219,11.083984 8.6132813,12.378906 8.5965234,13.697617 8.5797656,15.016328 8.5625,16.375 8.5524698,17.714837 8.543344,19.054682 8.5351563,20.394531 8.5115208,23.679866 8.4785723,26.964845 8.4375,30.25 c 1.1807813,-0.0232 2.361563,-0.04641 3.578125,-0.07031 1.557285,-0.01876 3.114578,-0.03696 4.671875,-0.05469 0.777305,-0.01676 1.554609,-0.03352 2.355469,-0.05078 7.35746,-0.06288 7.35746,-0.06288 10.394531,2.175781 1.554603,3.109206 1.727207,6.63083 1,10 -1.802758,1.963373 -3.25502,2.907039 -5.922165,3.239853 -2.282929,0.05544 -4.54548,0.02146 -6.827835,-0.05235 -0.792773,-0.01353 -1.585547,-0.02707 -2.402344,-0.04102 C 13.335644,45.361252 11.386484,45.307448 9.4375,45.25 c 0.092281,7.332589 0.1995883,14.664847 0.3173828,21.99707 0.038301,2.494741 0.073152,4.989537 0.1044922,7.484375 0.045626,3.584512 0.1036256,7.168641 0.164063,10.75293 0.01155,1.116791 0.0231,2.233583 0.035,3.384216 0.01987,1.040777 0.03974,2.081554 0.06021,3.15387 0.01332,0.914892 0.02665,1.829784 0.04037,2.7724 0.296054,2.610143 0.872599,4.246879 2.278473,6.455139 3.382705,1.69135 7.220063,1.34703 10.957031,1.52344 3.373286,0.52829 5.327095,1.42868 8.042969,3.47656 1.263269,3.6319 1.317525,5.28557 -0.25,8.8125 -1.75,2.1875 -1.75,2.1875 -4.75,3.1875 -2.963682,0.10946 -5.903123,0.16406 -8.867188,0.16797 -0.871738,0.003 -1.743477,0.007 -2.641632,0.0101 -1.844222,0.005 -3.688454,0.007 -5.5326839,0.007 -2.8157469,0.002 -5.6311,0.0203 -8.44677735,0.0393 -1.79296741,0.003 -3.58593665,0.005 -5.37890625,0.006 -0.8397336,0.007 -1.6794672,0.0144 -2.5446472,0.0218 -4.2577973,-0.0166 -7.7916763,-0.0842 -11.5881653,-2.25224 -3.213802,-4.8207 -3.125103,-9.69967 -3.113525,-15.37256 7.5e-5,-1.240832 1.51e-4,-2.481665 2.28e-4,-3.7601 0.0051,-1.338593 0.01032,-2.677185 0.01564,-4.015778 0.0019,-1.381479 0.0033,-2.762959 0.0043,-4.144439 0.0038,-3.620004 0.01361,-7.239967 0.0247,-10.859955 0.01027,-3.700353 0.0148,-7.400712 0.01984,-11.101074 0.0107,-7.248717 0.02774,-14.4974 0.04883,-21.746094 -1.138887,0.05221 -1.138887,0.05221 -2.300781,0.105469 -0.993867,0.02707 -1.987735,0.05414 -3.011719,0.08203 -0.986133,0.0348 -1.972266,0.06961 -2.988281,0.105469 C -32.5625,45.25 -32.5625,45.25 -34.390869,43.859375 -35.839275,41.869816 -35.995367,40.696237 -36,38.25 c -0.01934,-0.680625 -0.03867,-1.36125 -0.05859,-2.0625 0.496094,-1.9375 0.496094,-1.9375 2.148438,-3.601563 3.616484,-2.057966 7.417256,-2.536487 11.472656,-3.296875 3.793425,-1.370993 4.812841,-2.557783 6.875,-6.039062 1.230258,-3.511468 2.155333,-7.08084 3.0625,-10.6875 0.480384,-1.902422 0.970816,-3.8023435 1.472656,-5.6992188 0.210198,-0.8374877 0.420396,-1.6749755 0.636963,-2.5378418 C -8.4682212,-0.4932804 -4.4965092,-0.02009613 0,0 Z"
           fill="#38312c"
           transform="translate(141.5625,19.75)"
           id="path5" /><path
           d="M 0,0 C 4.6370124,3.5669326 5.5991885,9.5347126 7,15 7.3287109,14.492109 7.6574219,13.984219 7.9960937,13.460938 12.272993,7.271604 17.286553,3.3567236 24,0 c 4.886029,-0.58573029 9.866755,-1.1386913 14.3125,1.234375 3.46146,2.9133955 5.426182,5.1273213 5.890625,9.816406 C 44.308589,16.139413 43.886725,19.616454 41,24 c -3.203637,2.135758 -4.012835,2.250956 -7.6875,2.1875 -0.884297,-0.01031 -1.768594,-0.02062 -2.679688,-0.03125 -2.394621,-0.142114 -4.59734,-0.504512 -6.945312,-0.96875 -3.738116,-0.557459 -3.738116,-0.557459 -6.5,1.6875 -5.874138,8.391625 -5.659615,17.339417 -5.578613,27.165527 0.01622,2.35035 1.7e-5,4.699016 -0.01904,7.049317 0.002,1.498701 0.0058,2.997402 0.01172,4.496093 -0.0061,0.699992 -0.01215,1.399983 -0.0184,2.121186 0.04791,3.82608 0.04791,3.82608 1.773774,7.142975 1.4329,1.002817 2.880555,1.984488 4.330566,2.962402 C 20,80 20,80 20.5625,83.0625 20,86 20,86 18.556885,87.658691 c -3.918859,2.055783 -7.667879,1.769553 -12.0295413,1.739746 -1.3791886,0.0043 -1.3791886,0.0043 -2.7862396,0.0087 -1.9408072,0.002 -3.88163513,-0.0035 -5.8224029,-0.01602 -2.9740172,-0.01607 -5.9466791,-1.36e-4 -8.9206542,0.01904 -1.886071,-0.002 -3.772141,-0.0058 -5.658203,-0.01172 -0.890667,0.0061 -1.781334,0.01215 -2.69899,0.0184 -0.827734,-0.0095 -1.655469,-0.01891 -2.508286,-0.02866 -0.727398,-0.0024 -1.454797,-0.0048 -2.204239,-0.0072 C -26.575938,88.886221 -27.461064,88.006031 -29,86 c -0.5,-2.9375 -0.5,-2.9375 0,-6 2.3125,-2.1875 2.3125,-2.1875 5,-4 2.006954,-1.635846 2.897424,-2.453732 3.380951,-5.028763 0.0036,-1.161991 0.0036,-1.161991 0.0072,-2.347458 0.0095,-0.881341 0.01891,-1.762682 0.02866,-2.67073 -0.0061,-0.950014 -0.01215,-1.900028 -0.0184,-2.87883 0.0029,-0.980347 0.0057,-1.960695 0.0087,-2.970749 0.002,-2.07543 -0.0035,-4.150879 -0.01602,-6.226273 -0.016,-3.16719 -1.83e-4,-6.333094 0.01904,-9.500244 -0.002,-2.017581 -0.0058,-4.035161 -0.01172,-6.052734 0.0061,-0.943941 0.01215,-1.887883 0.0184,-2.860428 C -20.638668,30.235018 -21.043846,26.508304 -24,22 -25.989286,20.516074 -25.989286,20.516074 -28.1875,19.5625 -30.304687,18.351562 -30.304687,18.351562 -32,17 c -0.8125,-3.5625 -0.8125,-3.5625 0,-7 3.799527,-4.432781 9.627922,-6.085032 15,-8 1.155,-0.4125 2.31,-0.825 3.5,-1.25 C -8.9279994,-0.22971442 -4.64429,-0.75510309 0,0 Z"
           fill="#38312c"
           transform="translate(314,49)"
           id="path6" /></g></g></g></svg>
