<?xml version="1.0" encoding="UTF-8"?>
<svg xmlns="http://www.w3.org/2000/svg" xmlns:xlink="http://www.w3.org/1999/xlink" width="21px" height="24px" viewBox="0 0 21 24" version="1.1">
<g id="surface1">
<path style=" stroke:none;fill-rule:nonzero;fill:rgb(93.725491%,25.882354%,19.607843%);fill-opacity:1;" d="M 4.703125 11.347656 C 4.1875 11.246094 3.582031 11.03125 3.089844 10.773438 C 0.6875 9.519531 -0.527344 6.726562 0.21875 4.171875 C 1.226562 0.730469 5.113281 -0.992188 8.308594 0.59375 C 9.953125 1.410156 11.042969 2.820312 11.433594 4.640625 C 11.554688 5.195312 11.554688 6.300781 11.4375 6.828125 C 11.183594 7.941406 10.699219 8.855469 9.941406 9.648438 C 9.09375 10.53125 8.011719 11.121094 6.820312 11.347656 C 6.316406 11.441406 5.179688 11.441406 4.703125 11.347656 Z M 4.703125 11.347656 "/>
<path style=" stroke:none;fill-rule:nonzero;fill:rgb(93.725491%,25.882354%,19.607843%);fill-opacity:1;" d="M 5.171875 23.972656 C 4.113281 23.816406 3.316406 23.523438 2.550781 23.011719 C 2.144531 22.742188 1.441406 22.0625 1.117188 21.632812 C 0.628906 20.980469 0.261719 20.132812 0.078125 19.246094 C -0.03125 18.714844 -0.00390625 17.621094 0.132812 17.058594 C 0.675781 14.789062 2.398438 13.128906 4.695312 12.65625 C 5.132812 12.566406 6.226562 12.550781 6.71875 12.632812 C 8.496094 12.917969 10.136719 14.136719 10.9375 15.765625 C 11.371094 16.648438 11.527344 17.347656 11.523438 18.34375 C 11.515625 19.175781 11.40625 19.71875 11.09375 20.464844 C 10.324219 22.292969 8.597656 23.636719 6.625 23.933594 C 6.171875 24 5.484375 24.019531 5.171875 23.972656 Z M 5.171875 23.972656 "/>
<path style=" stroke:none;fill-rule:nonzero;fill:rgb(93.725491%,25.882354%,19.607843%);fill-opacity:1;" d="M 14.003906 23.882812 C 13.777344 23.832031 13.414062 23.722656 13.199219 23.640625 L 12.808594 23.492188 L 12.796875 18.304688 L 12.785156 13.121094 L 13.03125 13.015625 C 13.503906 12.8125 14.152344 12.660156 14.761719 12.601562 C 16.019531 12.484375 17.308594 12.808594 18.433594 13.53125 C 18.878906 13.816406 19.628906 14.542969 19.941406 14.992188 C 20.660156 16.03125 21 17.082031 20.996094 18.289062 C 20.992188 19.832031 20.453125 21.152344 19.382812 22.253906 C 18.546875 23.109375 17.605469 23.636719 16.472656 23.886719 C 15.871094 24.019531 14.597656 24.015625 14.003906 23.882812 Z M 14.003906 23.882812 "/>
<path style=" stroke:none;fill-rule:nonzero;fill:rgb(93.725491%,25.882354%,19.607843%);fill-opacity:1;" d="M 14.265625 11.382812 C 13.828125 11.300781 13.425781 11.183594 13.058594 11.035156 L 12.785156 10.925781 L 12.785156 0.546875 L 13.191406 0.390625 C 13.414062 0.308594 13.839844 0.1875 14.136719 0.125 C 14.601562 0.03125 14.789062 0.0195312 15.433594 0.0429688 C 16.25 0.0742188 16.703125 0.164062 17.382812 0.4375 C 20.21875 1.5625 21.675781 4.695312 20.703125 7.570312 C 20.085938 9.398438 18.550781 10.789062 16.578125 11.308594 C 16.070312 11.445312 14.796875 11.484375 14.265625 11.382812 Z M 14.265625 11.382812 "/>
</g>
</svg>
