<?xml version="1.0" encoding="UTF-8" standalone="no"?><!-- Generator: Gravit.io --><svg xmlns="http://www.w3.org/2000/svg" xmlns:xlink="http://www.w3.org/1999/xlink" style="isolation:isolate" viewBox="0 0 24 24" width="24pt" height="24pt"><defs><clipPath id="_clipPath_Dcog4IP5wAvIxehqLKk93vjAPQVTAQPI"><rect width="24" height="24"/></clipPath></defs><g clip-path="url(#_clipPath_Dcog4IP5wAvIxehqLKk93vjAPQVTAQPI)"><g><path d=" M 9.007 12.125 L 9.007 12.125 Q 9.007 12.388 8.778 12.575 L 8.778 12.575 L 8.778 12.575 Q 8.549 12.763 8.016 12.942 L 8.016 12.942 L 8.016 12.942 Q 7.999 13.208 8.08 13.371 L 8.08 13.371 L 8.08 13.371 Q 8.162 13.533 8.308 13.533 L 8.308 13.533 L 8.308 13.533 Q 8.432 13.533 8.557 13.435 L 8.557 13.435 L 8.557 13.435 Q 8.682 13.338 8.766 13.175 L 8.766 13.175 L 8.824 13.179 L 8.887 13.279 L 8.887 13.279 Q 8.766 13.5 8.58 13.642 L 8.58 13.642 L 8.58 13.642 Q 8.395 13.783 8.216 13.783 L 8.216 13.783 L 8.216 13.783 Q 7.991 13.783 7.862 13.6 L 7.862 13.6 L 7.862 13.6 Q 7.733 13.417 7.733 13.096 L 7.733 13.096 L 7.733 13.096 Q 7.733 12.783 7.872 12.481 L 7.872 12.481 L 7.872 12.481 Q 8.012 12.179 8.23 11.99 L 8.23 11.99 L 8.23 11.99 Q 8.449 11.8 8.678 11.8 L 8.678 11.8 L 8.678 11.8 Q 8.837 11.8 8.922 11.886 L 8.922 11.886 L 8.922 11.886 Q 9.007 11.971 9.007 12.125 L 9.007 12.125 Z  M 8.545 12.042 L 8.545 12.042 Q 8.437 12.042 8.33 12.14 L 8.33 12.14 L 8.33 12.14 Q 8.224 12.238 8.143 12.404 L 8.143 12.404 L 8.143 12.404 Q 8.062 12.571 8.033 12.767 L 8.033 12.767 L 8.033 12.767 Q 8.395 12.654 8.553 12.529 L 8.553 12.529 L 8.553 12.529 Q 8.712 12.404 8.712 12.234 L 8.712 12.234 L 8.712 12.234 Q 8.712 12.042 8.545 12.042 L 8.545 12.042 Z  M 10.82 11.8 L 10.82 11.8 Q 10.903 11.8 10.97 11.834 L 10.97 11.834 L 10.97 11.834 Q 11.036 11.867 11.074 11.925 L 11.074 11.925 L 11.074 11.925 Q 11.003 12.104 10.932 12.25 L 10.932 12.25 L 10.874 12.25 L 10.874 12.25 Q 10.815 12.021 10.703 12.021 L 10.703 12.021 L 10.703 12.021 Q 10.599 12.021 10.488 12.179 L 10.488 12.179 L 10.488 12.179 Q 10.378 12.338 10.207 12.738 L 10.207 12.738 L 10.207 12.738 Q 10.311 13.175 10.368 13.329 L 10.368 13.329 L 10.368 13.329 Q 10.424 13.483 10.478 13.483 L 10.478 13.483 L 10.478 13.483 Q 10.511 13.483 10.582 13.438 L 10.582 13.438 L 10.582 13.438 Q 10.653 13.392 10.849 13.238 L 10.849 13.238 L 10.899 13.242 L 10.953 13.342 L 10.953 13.342 Q 10.699 13.6 10.572 13.692 L 10.572 13.692 L 10.572 13.692 Q 10.445 13.783 10.341 13.783 L 10.341 13.783 L 10.341 13.783 Q 10.282 13.783 10.232 13.715 L 10.232 13.715 L 10.232 13.715 Q 10.182 13.646 10.124 13.479 L 10.124 13.479 L 10.124 13.479 Q 10.066 13.313 9.982 13 L 9.982 13 L 9.982 13 Q 9.799 13.421 9.626 13.602 L 9.626 13.602 L 9.626 13.602 Q 9.453 13.783 9.241 13.783 L 9.241 13.783 L 9.241 13.783 Q 9.141 13.783 9.074 13.742 L 9.074 13.742 L 9.074 13.742 Q 9.007 13.7 9.003 13.633 L 9.003 13.633 L 9.003 13.633 Q 9.024 13.558 9.068 13.45 L 9.068 13.45 L 9.068 13.45 Q 9.112 13.342 9.149 13.283 L 9.149 13.283 L 9.207 13.283 L 9.207 13.283 Q 9.199 13.425 9.234 13.506 L 9.234 13.506 L 9.234 13.506 Q 9.27 13.587 9.341 13.587 L 9.341 13.587 L 9.341 13.587 Q 9.553 13.587 9.882 12.792 L 9.882 12.792 L 9.882 12.792 Q 9.791 12.471 9.745 12.334 L 9.745 12.334 L 9.745 12.334 Q 9.699 12.196 9.67 12.148 L 9.67 12.148 L 9.67 12.148 Q 9.641 12.1 9.607 12.1 L 9.607 12.1 L 9.607 12.1 Q 9.574 12.1 9.511 12.148 L 9.511 12.148 L 9.511 12.148 Q 9.449 12.196 9.282 12.346 L 9.282 12.346 L 9.228 12.342 L 9.178 12.242 L 9.178 12.242 Q 9.391 12.009 9.536 11.904 L 9.536 11.904 L 9.536 11.904 Q 9.682 11.8 9.791 11.8 L 9.791 11.8 L 9.791 11.8 Q 9.845 11.8 9.889 11.863 L 9.889 11.863 L 9.889 11.863 Q 9.932 11.925 9.984 12.077 L 9.984 12.077 L 9.984 12.077 Q 10.036 12.229 10.116 12.525 L 10.116 12.525 L 10.116 12.525 Q 10.291 12.142 10.457 11.971 L 10.457 11.971 L 10.457 11.971 Q 10.624 11.8 10.82 11.8 L 10.82 11.8 Z  M 12.074 13.2 L 12.124 13.3 L 12.124 13.3 Q 11.932 13.512 11.761 13.648 L 11.761 13.648 L 11.761 13.648 Q 11.59 13.783 11.495 13.783 L 11.495 13.783 L 11.495 13.783 Q 11.382 13.783 11.315 13.721 L 11.315 13.721 L 11.315 13.721 Q 11.249 13.658 11.249 13.55 L 11.249 13.55 L 11.253 13.504 L 11.482 12.075 L 11.461 12.059 L 11.174 12.046 L 11.161 12.025 L 11.178 11.904 L 11.511 11.85 L 11.578 11.35 L 11.953 11.205 L 11.978 11.255 L 11.978 11.255 Q 11.961 11.304 11.909 11.482 L 11.909 11.482 L 11.909 11.482 Q 11.857 11.659 11.811 11.863 L 11.811 11.863 L 12.319 11.859 L 12.336 11.871 L 12.303 12.038 L 11.811 12.034 L 11.765 12.059 L 11.511 13.338 L 11.507 13.375 L 11.507 13.375 Q 11.507 13.483 11.607 13.483 L 11.607 13.483 L 11.607 13.483 Q 11.665 13.483 11.759 13.419 L 11.759 13.419 L 11.759 13.419 Q 11.853 13.354 12.019 13.196 L 12.019 13.196 L 12.074 13.2 Z  M 12.465 13.733 L 12.465 13.733 Q 12.503 13.521 12.599 12.921 L 12.599 12.921 L 12.599 12.921 Q 12.694 12.321 12.694 12.217 L 12.694 12.217 L 12.694 12.217 Q 12.694 12.117 12.655 12.075 L 12.655 12.075 L 12.655 12.075 Q 12.615 12.034 12.515 12.034 L 12.515 12.034 L 12.344 12.034 L 12.374 11.875 L 12.374 11.875 Q 12.532 11.875 12.755 11.865 L 12.755 11.865 L 12.755 11.865 Q 12.978 11.854 13.048 11.85 L 13.048 11.85 L 13.086 11.9 L 13.086 11.9 Q 13.073 11.934 13.038 12.054 L 13.038 12.054 L 13.038 12.054 Q 13.003 12.175 12.948 12.377 L 12.948 12.377 L 12.948 12.377 Q 12.894 12.579 12.861 12.763 L 12.861 12.763 L 12.878 12.767 L 12.878 12.767 Q 13.057 12.363 13.278 12.098 L 13.278 12.098 L 13.278 12.098 Q 13.498 11.834 13.665 11.817 L 13.665 11.817 L 13.665 11.817 Q 13.703 11.842 13.73 11.915 L 13.73 11.915 L 13.73 11.915 Q 13.757 11.988 13.757 12.067 L 13.757 12.067 L 13.757 12.067 Q 13.757 12.138 13.746 12.184 L 13.746 12.184 L 13.746 12.184 Q 13.736 12.229 13.723 12.248 L 13.723 12.248 L 13.723 12.248 Q 13.711 12.267 13.707 12.271 L 13.707 12.271 L 13.665 12.284 L 13.665 12.284 Q 13.623 12.242 13.561 12.242 L 13.561 12.242 L 13.561 12.242 Q 13.403 12.242 13.198 12.502 L 13.198 12.502 L 13.198 12.502 Q 12.994 12.763 12.815 13.204 L 12.815 13.204 L 12.753 13.675 L 12.753 13.675 Q 12.748 13.696 12.646 13.733 L 12.646 13.733 L 12.646 13.733 Q 12.544 13.771 12.494 13.771 L 12.494 13.771 L 12.465 13.733 Z  M 14.99 13.483 L 14.99 13.483 Q 15.019 13.483 15.073 13.444 L 15.073 13.444 L 15.073 13.444 Q 15.127 13.404 15.319 13.238 L 15.319 13.238 L 15.369 13.242 L 15.423 13.342 L 15.423 13.342 Q 15.144 13.604 15.023 13.694 L 15.023 13.694 L 15.023 13.694 Q 14.902 13.783 14.823 13.783 L 14.823 13.783 L 14.823 13.783 Q 14.765 13.783 14.727 13.752 L 14.727 13.752 L 14.727 13.752 Q 14.69 13.721 14.69 13.671 L 14.69 13.671 L 14.69 13.671 Q 14.69 13.579 14.869 12.796 L 14.869 12.796 L 14.844 12.788 L 14.844 12.788 Q 14.64 13.163 14.452 13.402 L 14.452 13.402 L 14.452 13.402 Q 14.265 13.642 14.065 13.783 L 14.065 13.783 L 14.065 13.783 Q 13.907 13.783 13.819 13.635 L 13.819 13.635 L 13.819 13.635 Q 13.732 13.487 13.732 13.225 L 13.732 13.225 L 13.732 13.225 Q 13.732 12.888 13.871 12.558 L 13.871 12.558 L 13.871 12.558 Q 14.011 12.229 14.234 12.023 L 14.234 12.023 L 14.234 12.023 Q 14.457 11.817 14.686 11.817 L 14.686 11.817 L 15.102 11.884 L 15.14 11.779 L 15.161 11.775 L 15.29 11.838 L 15.323 11.888 L 15.323 11.888 Q 15.223 12.221 15.125 12.669 L 15.125 12.669 L 15.125 12.669 Q 15.027 13.117 14.977 13.467 L 14.977 13.467 L 14.99 13.483 Z  M 14.152 13.446 L 14.152 13.446 Q 14.223 13.446 14.363 13.271 L 14.363 13.271 L 14.363 13.271 Q 14.502 13.096 14.667 12.804 L 14.667 12.804 L 14.667 12.804 Q 14.832 12.513 14.977 12.179 L 14.977 12.179 L 14.977 12.179 Q 14.882 12.121 14.765 12.081 L 14.765 12.081 L 14.765 12.081 Q 14.648 12.042 14.569 12.042 L 14.569 12.042 L 14.569 12.042 Q 14.427 12.042 14.302 12.179 L 14.302 12.179 L 14.302 12.179 Q 14.177 12.317 14.1 12.544 L 14.1 12.544 L 14.1 12.544 Q 14.023 12.771 14.023 13.021 L 14.023 13.021 L 14.023 13.021 Q 14.023 13.204 14.061 13.325 L 14.061 13.325 L 14.061 13.325 Q 14.098 13.446 14.152 13.446 L 14.152 13.446 Z " fill="rgb(0,84,164)"/><path d=" M 6.411 9.618 C 6.147 9.618 5.933 9.769 5.83 9.876 C 5.83 9.876 5.579 10.124 5.409 10.211 C 5.402 10.215 5.402 10.223 5.412 10.223 L 6.949 10.223 C 7.252 10.223 7.395 10.12 7.575 9.959 C 7.575 9.959 7.838 9.715 8.018 9.636 C 8.036 9.629 8.032 9.618 8.018 9.618 L 6.411 9.618 Z  M 9.051 9.618 C 8.787 9.618 8.573 9.769 8.47 9.876 C 8.47 9.876 8.219 10.124 8.049 10.211 C 8.041 10.215 8.041 10.223 8.052 10.223 L 9.591 10.223 C 9.895 10.223 10.038 10.12 10.218 9.959 C 10.218 9.959 10.478 9.715 10.658 9.636 C 10.676 9.629 10.674 9.618 10.661 9.618 L 9.051 9.618 L 9.051 9.618 Z  M 11.693 9.618 C 11.429 9.618 11.216 9.769 11.112 9.876 C 11.112 9.876 10.861 10.124 10.691 10.211 C 10.684 10.215 10.684 10.223 10.695 10.223 L 12.234 10.223 C 12.538 10.223 12.678 10.12 12.858 9.959 C 12.858 9.959 13.12 9.715 13.3 9.636 C 13.319 9.629 13.317 9.618 13.303 9.618 L 11.693 9.618 Z  M 14.333 9.618 C 14.069 9.618 13.859 9.769 13.755 9.876 C 13.755 9.876 13.501 10.124 13.331 10.211 C 13.324 10.215 13.324 10.223 13.334 10.223 L 14.874 10.223 C 15.177 10.223 15.32 10.12 15.501 9.959 C 15.501 9.959 15.763 9.715 15.943 9.636 C 15.961 9.629 15.957 9.618 15.943 9.618 L 14.333 9.618 Z  M 16.976 9.618 C 16.712 9.618 16.498 9.769 16.395 9.876 C 16.395 9.876 16.144 10.124 15.974 10.211 C 15.966 10.215 15.966 10.223 15.977 10.223 L 17.516 10.223 C 17.82 10.223 17.963 10.12 18.143 9.959 C 18.143 9.959 18.403 9.715 18.583 9.636 C 18.601 9.629 18.6 9.618 18.586 9.618 L 16.976 9.618 L 16.976 9.618 Z " fill="rgb(0,84,164)" vector-effect="non-scaling-stroke" stroke-width="0.079" stroke="rgb(255,255,255)" stroke-linejoin="miter" stroke-linecap="butt" stroke-miterlimit="11.47399998"/><path d=" M 11.789 6.279 C 11.227 6.279 10.679 6.445 10.679 7.004 C 10.679 7.971 12.366 7.46 12.366 8.052 C 12.366 8.245 12.067 8.322 11.825 8.322 C 11.391 8.322 11.092 8.258 10.713 8.03 L 10.713 8.516 C 10.996 8.609 11.38 8.654 11.798 8.654 C 12.38 8.654 12.926 8.504 12.926 7.932 C 12.926 6.922 11.239 7.376 11.239 6.881 C 11.239 6.682 11.509 6.614 11.746 6.614 C 12.143 6.614 12.573 6.73 12.809 6.948 L 12.809 6.432 C 12.504 6.336 12.098 6.279 11.789 6.279 L 11.789 6.279 Z  M 14.769 6.285 C 13.756 6.285 13.085 6.772 13.085 7.514 C 13.085 8.195 13.701 8.651 14.622 8.651 C 14.92 8.651 15.186 8.612 15.497 8.537 L 15.497 7.962 C 15.278 8.195 15.016 8.288 14.735 8.288 C 14.192 8.288 13.82 7.949 13.82 7.462 C 13.82 6.98 14.205 6.629 14.745 6.629 C 15.038 6.629 15.274 6.736 15.464 6.921 L 15.464 6.346 C 15.266 6.305 15.019 6.285 14.769 6.285 L 14.769 6.285 Z  M 17.132 6.285 C 16.259 6.285 15.642 6.787 15.642 7.495 C 15.642 8.19 16.196 8.651 17.022 8.651 C 17.899 8.651 18.503 8.161 18.503 7.449 C 18.503 6.751 17.954 6.285 17.132 6.285 L 17.132 6.285 Z  M 5.495 6.355 L 5.495 6.899 C 5.685 6.752 6.082 6.697 6.515 6.693 L 6.515 8.178 C 6.515 8.393 6.496 8.455 6.405 8.568 L 7.262 8.568 C 7.166 8.455 7.151 8.393 7.151 8.178 L 7.151 6.681 C 7.527 6.684 7.976 6.752 8.165 6.899 L 8.165 6.355 L 5.495 6.355 L 5.495 6.355 Z  M 8.396 6.355 C 8.486 6.468 8.504 6.533 8.504 6.749 L 8.504 8.178 C 8.504 8.393 8.487 8.458 8.402 8.568 L 10.473 8.568 L 10.473 8.03 C 10.189 8.233 9.648 8.233 9.429 8.23 L 9.127 8.23 L 9.127 7.612 L 9.349 7.612 C 9.499 7.612 9.769 7.63 9.926 7.677 L 9.926 7.216 C 9.771 7.266 9.498 7.281 9.349 7.281 L 9.127 7.281 L 9.127 6.694 L 9.429 6.694 C 9.698 6.694 10.165 6.749 10.341 6.897 L 10.341 6.356 L 8.396 6.356 L 8.396 6.355 Z  M 17.074 6.62 C 17.531 6.62 17.833 6.998 17.833 7.465 C 17.833 7.932 17.531 8.31 17.074 8.31 C 16.609 8.31 16.312 7.932 16.312 7.465 C 16.312 6.998 16.609 6.62 17.074 6.62 Z " fill="rgb(240,46,37)" vector-effect="non-scaling-stroke" stroke-width="0.03" stroke="rgb(255,255,255)" stroke-linejoin="miter" stroke-linecap="butt" stroke-miterlimit="3.86400008"/></g></g></svg>