<?xml version="1.0" encoding="utf-8"?>
<svg style="isolation:isolate" viewBox="0 0 18 21.951" width="18pt" height="21.951pt" xmlns="http://www.w3.org/2000/svg">
  <defs>
    <clipPath id="clip-1">
      <rect width="123" height="150"/>
    </clipPath>
  </defs>
  <g clip-path="url(#clip-1)" transform="matrix(0.171998, 0, 0, 0.171998, -1.148886, -1.28733)">
    <g>
      <path d=" M 30.801 56.436 C 30.585 56.53 30.142 56.644 29.817 56.688 C 29.493 56.733 29.077 56.875 28.894 57.004 C 28.711 57.133 28.486 57.239 28.395 57.239 C 28.304 57.239 28.042 57.377 27.813 57.547 C 27.584 57.716 27.3 57.854 27.182 57.854 C 27.064 57.854 26.933 57.965 26.89 58.1 C 26.847 58.235 26.758 58.346 26.692 58.346 C 26.47 58.346 25.385 59.551 24.998 60.228 C 24.786 60.598 24.532 60.968 24.433 61.05 C 24.333 61.132 24.216 61.402 24.172 61.649 C 24.128 61.896 23.995 62.264 23.876 62.467 C 23.268 63.504 23.27 68.317 23.879 69.355 C 23.998 69.558 24.134 69.903 24.18 70.122 C 24.227 70.341 24.321 70.555 24.391 70.598 C 24.46 70.641 24.597 70.849 24.695 71.061 C 24.947 71.602 25.379 72.294 25.607 72.519 C 25.713 72.624 25.935 72.868 26.101 73.062 C 26.266 73.255 26.636 73.566 26.923 73.752 C 27.209 73.938 27.654 74.228 27.912 74.398 C 28.169 74.567 28.455 74.705 28.548 74.705 C 28.64 74.705 28.82 74.799 28.947 74.914 C 29.177 75.122 29.8 75.244 31.427 75.398 C 32.557 75.505 34.658 75.241 35.095 74.937 C 35.279 74.809 35.514 74.705 35.618 74.705 C 35.722 74.705 35.916 74.596 36.049 74.463 C 36.47 74.042 37.475 73.592 37.635 73.752 C 37.836 73.954 37.799 75.294 37.575 75.874 C 37.471 76.144 37.343 76.601 37.293 76.888 C 37.241 77.175 37.108 77.511 36.996 77.636 C 36.884 77.759 36.792 77.917 36.792 77.986 C 36.792 78.144 36.109 78.85 35.554 79.265 C 34.756 79.862 32.753 80.247 31.956 79.957 C 31.673 79.854 31.232 79.735 30.976 79.691 C 30.411 79.596 29.852 79.229 29.22 78.542 L 28.745 78.026 L 26.526 78.028 C 23.798 78.03 23.696 78.05 23.942 78.525 C 24.041 78.718 24.123 78.981 24.123 79.11 C 24.123 79.24 24.226 79.478 24.352 79.639 C 24.478 79.801 24.624 80.068 24.675 80.235 C 24.82 80.695 26.996 82.786 27.43 82.882 C 27.631 82.926 27.859 83.038 27.936 83.131 C 28.012 83.223 28.252 83.338 28.467 83.385 C 28.682 83.432 29.051 83.574 29.287 83.7 C 29.523 83.827 29.879 83.93 30.08 83.93 C 30.28 83.93 30.895 83.995 31.447 84.075 C 32.839 84.276 35.452 84.033 36.438 83.612 C 36.819 83.449 37.248 83.315 37.391 83.315 C 37.535 83.315 37.653 83.27 37.653 83.216 C 37.653 83.105 38.711 82.331 38.862 82.331 C 39.013 82.331 39.867 81.513 39.867 81.367 C 39.867 81.295 39.942 81.192 40.034 81.138 C 40.127 81.084 40.289 80.87 40.395 80.662 C 40.502 80.454 40.675 80.212 40.781 80.124 C 40.887 80.036 40.974 79.867 40.974 79.75 C 40.974 79.632 41.08 79.4 41.209 79.235 C 41.339 79.07 41.484 78.717 41.531 78.45 C 41.578 78.183 41.707 77.826 41.818 77.657 C 41.998 77.382 42.026 76.444 42.081 68.776 C 42.125 62.655 42.182 60.164 42.281 60.065 C 42.468 59.877 43.146 60.88 43.258 61.511 C 43.303 61.766 43.444 62.147 43.572 62.358 C 43.699 62.569 43.803 62.851 43.803 62.986 C 43.803 63.12 43.932 63.473 44.091 63.772 C 44.249 64.07 44.418 64.521 44.465 64.774 C 44.513 65.027 44.602 65.234 44.664 65.234 C 44.725 65.234 44.812 65.442 44.858 65.695 C 44.903 65.949 45.041 66.325 45.165 66.531 C 45.289 66.737 45.428 67.138 45.473 67.422 C 45.519 67.706 45.66 68.058 45.786 68.204 C 45.913 68.35 46.017 68.605 46.017 68.77 C 46.017 68.935 46.121 69.217 46.248 69.397 C 46.375 69.577 46.519 69.973 46.569 70.277 C 46.618 70.582 46.728 70.914 46.814 71.015 C 46.899 71.117 47.04 71.421 47.125 71.692 C 47.211 71.962 47.357 72.293 47.449 72.426 C 47.541 72.56 47.616 72.797 47.616 72.954 C 47.616 73.112 47.754 73.5 47.923 73.818 C 48.092 74.136 48.231 74.544 48.231 74.726 C 48.231 74.908 48.314 75.14 48.415 75.241 C 48.644 75.47 48.648 75.619 48.431 75.799 C 48.338 75.876 48.233 76.194 48.198 76.506 C 48.163 76.818 48.075 77.109 48.003 77.154 C 47.93 77.199 47.783 77.447 47.675 77.705 C 47.567 77.964 47.343 78.321 47.178 78.499 C 47.013 78.677 46.878 78.861 46.878 78.907 C 46.878 78.953 46.688 79.053 46.457 79.13 C 46.226 79.206 45.97 79.349 45.888 79.447 C 45.786 79.57 45.486 79.625 44.919 79.625 C 43.785 79.625 43.803 79.591 43.803 81.85 C 43.803 84.036 43.749 83.93 44.845 83.93 C 47.129 83.93 50.001 82.553 50.753 81.099 C 50.849 80.914 51.013 80.729 51.116 80.689 C 51.22 80.649 51.306 80.49 51.306 80.336 C 51.306 80.182 51.444 79.895 51.613 79.698 C 51.782 79.502 51.921 79.197 51.921 79.022 C 51.921 78.846 52.022 78.537 52.146 78.334 C 52.269 78.131 52.408 77.775 52.454 77.542 C 52.501 77.31 52.621 77.029 52.721 76.918 C 52.822 76.807 52.951 76.465 53.008 76.158 C 53.065 75.852 53.204 75.47 53.316 75.31 C 53.428 75.15 53.52 74.905 53.52 74.765 C 53.52 74.625 53.627 74.3 53.759 74.043 C 53.89 73.785 54.035 73.399 54.082 73.186 C 54.128 72.973 54.27 72.667 54.397 72.505 C 54.523 72.344 54.627 72.046 54.627 71.843 C 54.627 71.641 54.731 71.302 54.859 71.091 C 54.987 70.88 55.133 70.514 55.183 70.277 C 55.233 70.04 55.378 69.654 55.504 69.418 C 55.63 69.182 55.734 68.872 55.734 68.729 C 55.734 68.587 55.844 68.342 55.98 68.186 C 56.115 68.03 56.226 67.753 56.226 67.57 C 56.226 67.388 56.364 66.979 56.533 66.66 C 56.702 66.342 56.841 65.959 56.841 65.808 C 56.841 65.658 56.931 65.406 57.041 65.249 C 57.151 65.091 57.293 64.734 57.356 64.454 C 57.418 64.175 57.549 63.858 57.647 63.75 C 57.744 63.643 57.873 63.294 57.932 62.975 C 57.992 62.657 58.123 62.301 58.224 62.186 C 58.325 62.07 58.438 61.733 58.475 61.437 C 58.556 60.801 58.735 60.561 58.962 60.788 C 59.08 60.905 59.131 62.592 59.178 68.038 L 59.239 75.136 L 61.515 75.136 L 63.79 75.136 L 63.858 69.109 C 63.895 65.794 63.937 63.076 63.95 63.07 C 64.075 63.008 64.467 62.457 64.467 62.342 C 64.467 62.141 65.691 60.929 65.895 60.929 C 65.985 60.929 66.285 60.811 66.563 60.666 C 67.153 60.358 68.509 60.403 68.846 60.74 C 68.95 60.844 69.143 60.929 69.275 60.929 C 69.582 60.929 70.617 61.877 70.617 62.158 C 70.617 62.276 70.741 62.53 70.893 62.724 C 71.17 63.075 71.17 63.082 71.232 69.106 L 71.293 75.136 L 73.015 75.173 C 73.962 75.193 74.959 75.178 75.229 75.139 L 75.721 75.068 L 75.684 69.979 C 75.642 64.237 75.735 63.181 76.364 62.214 C 76.758 61.608 77.56 60.929 77.882 60.929 C 78.003 60.929 78.196 60.836 78.31 60.721 C 79.151 59.88 82.311 61.105 82.633 62.396 C 82.676 62.57 82.812 62.934 82.934 63.205 C 83.139 63.656 83.157 64.16 83.16 69.372 C 83.162 74.433 83.184 75.056 83.357 75.122 C 83.464 75.164 84.345 75.197 85.315 75.197 C 86.285 75.197 87.166 75.164 87.273 75.122 C 87.447 75.056 87.468 74.356 87.468 68.487 L 87.468 61.926 L 87.16 61.348 C 86.991 61.03 86.853 60.642 86.853 60.485 C 86.853 60.329 86.749 60.102 86.622 59.981 C 86.495 59.86 86.349 59.622 86.297 59.453 C 86.245 59.284 86.1 59.073 85.974 58.985 C 85.848 58.897 85.746 58.776 85.746 58.718 C 85.746 58.55 85.03 57.878 84.76 57.792 C 84.625 57.75 84.516 57.67 84.516 57.615 C 84.516 57.56 84.336 57.444 84.116 57.357 C 83.896 57.27 83.631 57.127 83.527 57.039 C 83.423 56.951 83.004 56.802 82.596 56.706 C 82.187 56.611 81.736 56.471 81.593 56.394 C 81.182 56.174 78.311 56.209 78.122 56.437 C 78.039 56.537 77.702 56.655 77.374 56.698 C 77.029 56.744 76.689 56.875 76.568 57.008 C 76.454 57.135 76.262 57.239 76.143 57.239 C 76.024 57.239 75.779 57.364 75.598 57.516 C 75.221 57.833 74.578 58.396 74.306 58.647 C 74.145 58.795 74.007 58.713 73.26 58.03 C 72.787 57.597 72.326 57.242 72.235 57.241 C 72.144 57.24 71.935 57.133 71.77 57.003 C 71.605 56.873 71.237 56.73 70.951 56.684 C 70.666 56.638 70.309 56.523 70.16 56.428 C 69.778 56.186 67.448 56.194 67.125 56.438 C 66.998 56.535 66.655 56.65 66.364 56.693 C 66.073 56.737 65.74 56.878 65.623 57.006 C 65.507 57.134 65.345 57.239 65.261 57.239 C 65.179 57.239 64.949 57.404 64.752 57.606 C 64.555 57.808 64.21 58.01 63.986 58.055 L 63.579 58.136 L 63.623 57.503 C 63.679 56.691 63.907 56.728 59.18 56.773 L 55.432 56.809 L 55.317 57.178 C 55.254 57.381 55.1 57.772 54.976 58.047 C 54.851 58.322 54.748 58.654 54.745 58.785 C 54.743 58.916 54.634 59.244 54.504 59.515 C 54.373 59.785 54.264 60.119 54.262 60.257 C 54.259 60.395 54.146 60.727 54.009 60.995 C 53.872 61.263 53.726 61.704 53.685 61.975 C 53.645 62.245 53.515 62.633 53.397 62.836 C 53.279 63.039 53.148 63.426 53.108 63.697 C 53.067 63.967 52.922 64.408 52.785 64.676 C 52.648 64.944 52.536 65.29 52.536 65.445 C 52.536 65.6 52.425 65.934 52.29 66.186 C 52.154 66.438 52.044 66.759 52.044 66.897 C 52.044 67.036 51.938 67.358 51.808 67.611 C 51.679 67.865 51.536 68.343 51.491 68.673 C 51.313 69.967 50.522 69.97 50.266 68.678 C 50.193 68.306 50.037 67.864 49.919 67.697 C 49.802 67.53 49.707 67.224 49.707 67.018 C 49.707 66.811 49.627 66.527 49.529 66.388 C 49.431 66.248 49.286 65.862 49.206 65.53 C 49.126 65.198 48.992 64.815 48.908 64.679 C 48.824 64.543 48.691 64.13 48.612 63.761 C 48.533 63.392 48.41 63.055 48.34 63.012 C 48.27 62.968 48.18 62.689 48.14 62.392 C 48.1 62.095 47.938 61.608 47.78 61.31 C 47.622 61.013 47.493 60.607 47.493 60.408 C 47.493 60.208 47.382 59.905 47.247 59.733 C 47.111 59.561 47 59.247 47 59.037 C 46.999 58.826 46.911 58.488 46.802 58.285 C 46.694 58.082 46.542 57.667 46.465 57.362 L 46.324 56.809 L 42.128 56.776 L 37.931 56.744 L 37.867 57.312 C 37.764 58.222 37.568 58.309 36.913 57.734 C 36.609 57.468 36.245 57.247 36.103 57.244 C 35.962 57.242 35.751 57.135 35.635 57.007 C 35.49 56.846 35.171 56.747 34.604 56.686 C 34.153 56.638 33.673 56.521 33.538 56.427 C 33.211 56.198 31.335 56.204 30.801 56.436 Z  M 34.024 60.683 C 34.295 60.814 34.604 60.923 34.712 60.925 C 34.82 60.927 35.007 61.038 35.128 61.172 C 35.249 61.305 35.464 61.452 35.606 61.497 C 36.039 61.634 37.276 63.092 37.281 63.472 C 37.283 63.552 37.368 63.701 37.47 63.804 C 37.971 64.305 38.026 67.94 37.533 67.94 C 37.478 67.94 37.396 68.088 37.351 68.268 C 37.208 68.839 35.865 70.4 35.517 70.4 C 35.427 70.4 35.253 70.512 35.13 70.648 C 35.006 70.784 34.694 70.93 34.436 70.971 C 34.178 71.012 33.904 71.122 33.827 71.215 C 33.635 71.447 31.774 71.448 31.438 71.217 C 31.304 71.125 30.995 71.013 30.751 70.969 C 30.506 70.924 30.207 70.778 30.086 70.644 C 29.965 70.51 29.807 70.4 29.735 70.4 C 29.56 70.4 28.428 69.277 28.428 69.104 C 28.428 69.029 28.289 68.837 28.12 68.678 C 27.951 68.519 27.813 68.251 27.813 68.082 C 27.813 67.913 27.718 67.671 27.603 67.543 C 27.25 67.153 27.217 65.14 27.552 64.496 C 27.695 64.221 27.813 63.869 27.813 63.714 C 27.813 63.559 27.951 63.302 28.12 63.143 C 28.289 62.984 28.428 62.792 28.428 62.716 C 28.428 62.551 29.46 61.544 29.628 61.544 C 29.692 61.544 29.894 61.406 30.076 61.237 C 30.259 61.067 30.54 60.929 30.701 60.929 C 30.861 60.929 31.07 60.852 31.164 60.758 C 31.553 60.369 33.281 60.324 34.024 60.683 Z  M 72.602 82.704 C 72.442 82.837 72.228 82.946 72.126 82.946 C 71.937 82.946 71.109 83.771 71.109 83.959 C 71.109 84.016 70.986 84.229 70.836 84.432 C 70.448 84.957 70.427 87.266 70.805 87.801 C 70.938 87.99 71.102 88.235 71.17 88.346 C 71.406 88.732 72.138 89.349 72.452 89.426 C 72.626 89.469 72.895 89.586 73.049 89.685 C 73.766 90.149 75.749 89.763 76.498 89.013 C 76.588 88.923 76.708 88.85 76.766 88.85 C 77.233 88.85 77.998 86.428 77.77 85.669 C 77.692 85.407 77.628 85.024 77.628 84.817 C 77.628 84.587 77.496 84.284 77.289 84.036 C 76.807 83.459 76.258 82.946 76.122 82.946 C 76.058 82.946 75.865 82.835 75.693 82.7 C 75.235 82.34 73.035 82.343 72.602 82.704 Z " fill-rule="evenodd" fill="rgb(10,171,229)"/>
      <path d=" M 23.225 33.331 C 23.178 33.379 23.139 34.791 23.139 36.468 C 23.139 39.914 23.148 39.885 22.159 39.727 C 21.426 39.609 21.274 39.807 21.318 40.822 L 21.355 41.68 L 22.093 41.742 C 23.222 41.836 23.139 41.483 23.139 46.157 C 23.139 49.485 23.175 50.432 23.322 50.916 C 23.422 51.248 23.505 51.629 23.506 51.764 C 23.515 53.3 25.628 54.994 27.584 55.033 C 29.012 55.062 29.043 55.047 29.043 54.278 C 29.043 53.491 28.871 53.212 28.427 53.277 C 27.573 53.402 25.88 52.438 25.663 51.704 C 25.614 51.535 25.482 51.258 25.37 51.089 C 25.052 50.604 24.987 42.239 25.301 41.979 C 25.459 41.848 25.931 41.798 27.149 41.783 C 29.123 41.759 29.043 41.803 29.043 40.757 C 29.043 39.702 29.105 39.736 27.122 39.722 C 24.987 39.708 25.172 40.024 25.15 36.354 L 25.132 33.316 L 24.222 33.28 C 23.722 33.261 23.273 33.284 23.225 33.331 Z  M 30.114 33.331 C 29.953 33.491 30.009 54.877 30.171 54.976 C 30.397 55.116 31.671 55.027 31.775 54.864 C 31.826 54.783 31.869 52.712 31.87 50.26 C 31.872 44.491 31.981 44.004 33.612 42.473 C 33.969 42.138 34.373 41.864 34.511 41.863 C 34.649 41.863 34.928 41.752 35.131 41.618 C 35.67 41.261 37.815 41.261 38.482 41.618 C 38.734 41.753 39.001 41.864 39.076 41.864 C 39.348 41.864 40.355 43.002 40.688 43.684 L 41.03 44.386 L 41.094 49.675 L 41.158 54.964 L 42.061 55.025 C 42.675 55.067 43.002 55.04 43.084 54.941 C 43.372 54.593 43.123 44.859 42.796 43.709 C 42.182 41.542 40.675 40.024 38.76 39.641 C 36.781 39.247 36.684 39.237 36.031 39.374 C 35.671 39.449 35.1 39.569 34.762 39.641 C 34.09 39.783 32.95 40.311 32.722 40.585 C 32.644 40.68 32.421 40.757 32.227 40.757 L 31.875 40.757 L 31.843 37.036 L 31.81 33.316 L 31.005 33.28 C 30.563 33.26 30.162 33.283 30.114 33.331 Z  M 50.26 39.455 C 49.99 39.544 49.454 39.683 49.07 39.763 C 48.687 39.844 48.306 39.99 48.225 40.087 C 48.144 40.185 47.987 40.266 47.877 40.267 C 47.767 40.268 47.539 40.379 47.37 40.513 C 47.2 40.648 46.848 40.923 46.586 41.125 C 43.722 43.332 42.89 48.046 44.752 51.52 C 45.223 52.399 46.307 53.611 47.062 54.102 C 47.688 54.509 48.773 55.024 49.006 55.024 C 49.127 55.025 49.404 55.122 49.621 55.24 C 50.182 55.548 53.156 55.543 53.704 55.234 C 53.907 55.12 54.19 55.026 54.333 55.026 C 54.599 55.025 55.895 54.386 56.226 54.093 C 57.129 53.292 57.862 52.418 58 51.981 C 58.048 51.829 58.137 51.704 58.197 51.704 C 58.258 51.704 58.387 51.435 58.484 51.106 C 58.582 50.777 58.731 50.397 58.816 50.261 C 59.115 49.784 58.894 49.613 57.982 49.615 C 56.927 49.617 56.907 49.632 56.354 50.824 C 56.03 51.522 54.739 52.767 54.222 52.88 C 54.005 52.927 53.695 53.07 53.534 53.196 C 53.098 53.537 50.348 53.536 49.783 53.194 C 49.572 53.067 49.269 52.923 49.111 52.875 C 48.303 52.63 46.509 50.926 46.509 50.404 C 46.509 50.326 46.388 50.108 46.241 49.921 C 46.03 49.653 45.971 49.407 45.964 48.767 L 45.955 47.953 L 52.474 47.891 L 58.993 47.83 L 59.029 46.892 C 59.053 46.258 59 45.781 58.867 45.416 C 58.758 45.12 58.626 44.712 58.573 44.509 C 58.458 44.061 57.758 42.802 57.511 42.597 C 57.413 42.516 57.333 42.397 57.333 42.333 C 57.333 42.197 56.038 40.88 55.905 40.88 C 55.855 40.88 55.727 40.803 55.62 40.708 C 55.251 40.381 54.033 39.788 53.562 39.707 C 53.302 39.661 52.852 39.547 52.562 39.453 C 51.909 39.24 50.91 39.241 50.26 39.455 Z  M 52.843 41.618 C 53.114 41.749 53.418 41.859 53.52 41.862 C 53.927 41.876 55.857 43.453 55.857 43.771 C 55.857 43.851 55.962 44.013 56.092 44.129 C 56.221 44.247 56.363 44.49 56.409 44.671 C 56.454 44.852 56.577 45.097 56.683 45.213 C 57.193 45.78 56.952 45.805 51.395 45.771 C 45.798 45.736 45.622 45.713 46.161 45.1 C 46.268 44.978 46.396 44.747 46.445 44.588 C 46.648 43.924 48.049 42.358 48.442 42.357 C 48.524 42.356 48.65 42.245 48.723 42.11 C 48.803 41.959 48.983 41.863 49.188 41.86 C 49.372 41.858 49.744 41.749 50.014 41.618 C 50.366 41.448 50.769 41.38 51.429 41.38 C 52.088 41.38 52.491 41.448 52.843 41.618 Z  M 94.848 73.038 C 93.953 73.181 93.46 73.403 92.488 74.097 C 91.735 74.634 90.869 75.839 90.724 76.55 C 90.675 76.787 90.56 77.13 90.466 77.313 C 90.366 77.509 90.297 78.028 90.297 78.58 C 90.297 79.132 90.366 79.65 90.466 79.846 C 90.56 80.029 90.676 80.372 90.726 80.609 C 90.916 81.528 92.063 82.921 93.053 83.437 C 93.262 83.545 93.544 83.698 93.679 83.774 C 94.099 84.014 95.775 84.331 96.276 84.266 C 97.363 84.127 98.373 83.873 98.68 83.662 C 98.859 83.539 99.053 83.438 99.11 83.438 C 99.287 83.438 100.63 82.156 100.63 81.989 C 100.629 81.902 100.709 81.801 100.807 81.763 C 100.905 81.725 101.051 81.492 101.13 81.244 C 101.21 80.996 101.364 80.691 101.475 80.565 C 101.765 80.234 101.767 77.112 101.478 76.668 C 101.369 76.501 101.213 76.157 101.129 75.901 C 100.971 75.42 99.434 73.721 99.157 73.721 C 99.074 73.721 98.837 73.601 98.63 73.453 C 98.375 73.272 97.893 73.134 97.135 73.027 C 95.856 72.846 96.046 72.845 94.848 73.038 Z  M 67.08 78.357 C 67.199 78.388 67.392 78.388 67.511 78.357 C 67.629 78.326 67.532 78.301 67.296 78.301 C 67.059 78.301 66.962 78.326 67.08 78.357 Z  M 69.547 80.978 C 69.533 81.611 69.572 82.085 69.639 82.085 C 69.704 82.085 69.756 81.594 69.756 80.978 C 69.756 79.537 69.578 79.537 69.547 80.978 Z  M 64.873 80.978 C 64.873 81.35 64.896 81.502 64.924 81.316 C 64.952 81.13 64.952 80.826 64.924 80.64 C 64.896 80.454 64.873 80.606 64.873 80.978 Z  M 66.354 83.1 C 66.323 83.151 66.826 83.192 67.473 83.192 C 68.119 83.192 68.649 83.151 68.649 83.1 C 68.649 83.049 68.145 83.008 67.53 83.008 C 66.915 83.008 66.385 83.049 66.354 83.1 Z " fill-rule="evenodd" fill="rgb(28,38,120)"/>
      <path d=" M 65.969 78.54 C 65.679 78.743 65.351 79.057 65.24 79.236 C 65.128 79.416 64.967 79.623 64.88 79.696 C 64.658 79.884 64.533 81.334 64.706 81.716 C 65.621 83.729 67.882 84.203 69.412 82.704 L 69.937 82.189 L 69.939 80.91 C 69.94 79.538 69.99 79.675 69.202 78.884 C 68.359 78.038 66.906 77.883 65.969 78.54 Z  M 67.511 78.357 C 67.392 78.388 67.199 78.388 67.08 78.357 C 66.962 78.326 67.059 78.301 67.296 78.301 C 67.532 78.301 67.629 78.326 67.511 78.357 Z  M 69.756 80.978 C 69.756 81.594 69.704 82.085 69.639 82.085 C 69.572 82.085 69.533 81.611 69.547 80.978 C 69.578 79.537 69.756 79.537 69.756 80.978 Z  M 64.924 81.316 C 64.896 81.502 64.873 81.35 64.873 80.978 C 64.873 80.606 64.896 80.454 64.924 80.64 C 64.952 80.826 64.952 81.13 64.924 81.316 Z  M 84.085 81.516 C 83.882 81.604 83.528 81.713 83.298 81.758 C 82.939 81.829 81.585 82.819 81.46 83.102 C 81.438 83.154 81.347 83.269 81.258 83.357 C 80.052 84.563 80.067 87.776 81.285 89.158 C 82.673 90.732 85.107 91.535 86.527 90.887 C 86.74 90.79 87.108 90.631 87.345 90.535 C 90.187 89.373 90.863 85 88.552 82.728 C 87.468 81.663 85.182 81.042 84.085 81.516 Z  M 68.649 83.1 C 68.649 83.151 68.119 83.192 67.473 83.192 C 66.826 83.192 66.323 83.151 66.354 83.1 C 66.385 83.049 66.915 83.008 67.53 83.008 C 68.145 83.008 68.649 83.049 68.649 83.1 Z " fill-rule="evenodd" fill="rgb(244,106,130)"/>
      <path d=" M 23.046 33.09 C 22.93 33.137 22.892 33.838 22.891 36.001 C 22.889 39.569 22.93 39.404 22.045 39.404 C 20.958 39.404 20.802 39.575 20.802 40.761 C 20.802 41.915 21.006 42.11 22.21 42.11 L 22.893 42.11 L 22.893 46.757 C 22.893 50.495 22.926 51.451 23.061 51.646 C 23.154 51.779 23.269 52.066 23.316 52.282 C 23.363 52.499 23.501 52.804 23.622 52.959 C 23.743 53.115 23.878 53.352 23.92 53.488 C 24.005 53.758 24.671 54.375 25.37 54.83 C 26.322 55.451 28.614 55.731 29.089 55.285 C 29.358 55.033 29.359 55.033 29.757 55.275 C 30.05 55.453 30.377 55.517 30.992 55.517 C 32.434 55.517 32.341 55.913 32.386 49.635 C 32.421 44.878 32.446 44.295 32.624 44.195 C 32.734 44.134 32.897 43.905 32.988 43.686 C 33.432 42.615 35.15 41.703 36.73 41.7 C 37.6 41.699 38.939 42.054 39.303 42.383 C 40.076 43.082 40.233 43.315 40.375 43.976 C 40.449 44.324 40.587 44.792 40.681 45.016 C 40.815 45.339 40.852 46.426 40.855 50.255 C 40.859 55.912 40.764 55.517 42.118 55.517 C 43.489 55.517 43.43 55.69 43.451 51.584 C 43.463 49.044 43.492 48.452 43.565 49.215 C 43.636 49.947 43.734 50.321 43.918 50.553 C 44.057 50.731 44.172 50.999 44.172 51.148 C 44.172 51.298 44.282 51.52 44.418 51.643 C 44.553 51.765 44.664 51.928 44.664 52.005 C 44.664 52.287 46.407 54.164 46.669 54.164 C 46.751 54.164 46.887 54.275 46.972 54.41 C 47.057 54.545 47.186 54.656 47.259 54.656 C 47.332 54.656 47.525 54.761 47.687 54.888 C 47.85 55.016 48.191 55.159 48.445 55.206 C 48.699 55.253 49.01 55.384 49.135 55.497 C 49.467 55.795 53.682 55.802 54.14 55.506 C 54.306 55.398 54.599 55.271 54.791 55.224 C 55.286 55.102 56.436 54.433 56.518 54.22 C 56.556 54.122 56.668 54.041 56.767 54.041 C 56.866 54.041 56.982 53.93 57.025 53.795 C 57.068 53.66 57.174 53.549 57.26 53.549 C 57.346 53.549 57.479 53.411 57.556 53.242 C 57.633 53.072 57.752 52.934 57.82 52.934 C 57.889 52.934 58.026 52.739 58.126 52.499 C 58.226 52.26 58.393 51.979 58.496 51.875 C 58.6 51.771 58.686 51.56 58.686 51.404 C 58.686 51.249 58.796 50.981 58.932 50.81 C 59.238 50.419 59.271 49.552 58.983 49.442 C 57.855 49.009 56.334 49.547 56.167 50.438 C 56.12 50.69 55.976 50.97 55.846 51.061 C 55.717 51.152 55.611 51.272 55.611 51.329 C 55.611 51.512 54.938 52.159 54.655 52.249 C 54.504 52.297 54.381 52.38 54.381 52.434 C 54.381 52.488 54.05 52.625 53.647 52.739 C 53.243 52.852 52.88 52.997 52.84 53.062 C 52.748 53.211 50.606 53.219 50.515 53.071 C 50.478 53.011 50.09 52.866 49.653 52.747 C 49.217 52.629 48.83 52.457 48.795 52.364 C 48.76 52.272 48.659 52.196 48.573 52.196 C 48.421 52.196 47.276 51.052 46.861 50.488 C 46.751 50.337 46.627 50.003 46.586 49.745 C 46.545 49.487 46.427 49.207 46.325 49.122 C 46.223 49.037 46.14 48.781 46.14 48.553 L 46.14 48.137 L 52.582 48.137 C 58.214 48.137 59.044 48.113 59.181 47.949 C 59.445 47.631 59.264 45.047 58.942 44.525 C 58.801 44.297 58.686 43.996 58.686 43.855 C 58.686 43.715 58.584 43.528 58.46 43.439 C 58.335 43.351 58.198 43.14 58.155 42.971 C 58.112 42.802 57.854 42.421 57.582 42.125 C 57.31 41.829 57.087 41.541 57.087 41.484 C 57.087 41.427 56.988 41.328 56.866 41.263 C 56.745 41.198 56.427 40.941 56.159 40.691 C 55.891 40.441 55.506 40.157 55.303 40.059 C 55.1 39.961 54.796 39.802 54.627 39.706 C 54.457 39.609 54.222 39.53 54.104 39.529 C 53.985 39.528 53.681 39.416 53.429 39.281 C 52.765 38.926 50.109 38.919 49.418 39.272 C 49.163 39.402 48.736 39.545 48.47 39.59 C 48.203 39.635 47.943 39.739 47.892 39.822 C 47.842 39.904 47.624 40.043 47.409 40.13 C 47.194 40.216 46.988 40.366 46.952 40.461 C 46.915 40.556 46.819 40.634 46.737 40.634 C 46.56 40.634 45.279 41.923 45.279 42.101 C 45.279 42.169 45.172 42.282 45.041 42.352 C 44.91 42.422 44.765 42.599 44.718 42.746 C 44.672 42.893 44.53 43.125 44.403 43.262 C 44.276 43.398 44.172 43.597 44.172 43.703 C 44.172 43.81 44.053 44.118 43.909 44.387 C 43.744 44.695 43.616 45.221 43.567 45.8 L 43.488 46.723 L 43.41 45.298 C 43.35 44.192 43.275 43.765 43.076 43.393 C 42.934 43.129 42.819 42.796 42.819 42.654 C 42.819 42.511 42.709 42.295 42.576 42.174 C 42.442 42.053 42.296 41.838 42.25 41.695 C 42.147 41.37 40.78 40.019 40.555 40.019 C 40.463 40.019 40.323 39.94 40.242 39.843 C 40.161 39.745 39.926 39.629 39.719 39.583 C 39.511 39.538 39.114 39.397 38.835 39.27 C 38.098 38.935 35.324 38.931 34.699 39.263 C 34.463 39.388 34.064 39.529 33.812 39.575 C 33.56 39.622 33.311 39.728 33.259 39.812 C 33.136 40.005 32.534 40.272 32.437 40.175 C 32.397 40.134 32.364 38.559 32.364 36.674 L 32.364 33.248 L 32.048 33.128 C 31.54 32.935 30.122 32.98 29.808 33.2 C 29.538 33.388 29.535 33.432 29.533 36.367 C 29.531 39.497 29.491 39.767 29.066 39.54 C 28.922 39.463 28.179 39.404 27.343 39.404 C 25.361 39.404 25.476 39.61 25.476 36.05 C 25.476 34.078 25.434 33.262 25.328 33.156 C 25.183 33.01 23.373 32.958 23.046 33.09 Z  M 25.15 36.354 C 25.172 40.024 24.987 39.708 27.122 39.722 C 29.105 39.736 29.043 39.702 29.043 40.757 C 29.043 41.803 29.123 41.759 27.149 41.783 C 25.931 41.798 25.459 41.848 25.301 41.979 C 24.987 42.239 25.052 50.604 25.37 51.089 C 25.482 51.258 25.614 51.535 25.663 51.704 C 25.88 52.438 27.573 53.402 28.427 53.277 C 28.871 53.212 29.043 53.491 29.043 54.278 C 29.043 55.047 29.012 55.062 27.584 55.033 C 25.628 54.994 23.515 53.3 23.506 51.764 C 23.505 51.629 23.422 51.248 23.322 50.916 C 23.175 50.432 23.139 49.485 23.139 46.157 C 23.139 41.483 23.222 41.836 22.093 41.742 L 21.355 41.68 L 21.318 40.822 C 21.274 39.807 21.426 39.609 22.159 39.727 C 23.148 39.885 23.139 39.914 23.139 36.468 C 23.139 32.966 23.047 33.234 24.222 33.28 L 25.132 33.316 L 25.15 36.354 Z  M 31.843 37.036 L 31.875 40.757 L 32.227 40.757 C 32.421 40.757 32.644 40.68 32.722 40.585 C 32.95 40.311 34.09 39.783 34.762 39.641 C 36.886 39.191 36.502 39.191 38.76 39.641 C 40.675 40.024 42.182 41.542 42.796 43.709 C 43.123 44.859 43.372 54.593 43.084 54.941 C 43.002 55.04 42.675 55.067 42.061 55.025 L 41.158 54.964 L 41.094 49.675 L 41.03 44.386 L 40.688 43.684 C 40.355 43.002 39.348 41.864 39.076 41.864 C 39.001 41.864 38.734 41.753 38.482 41.618 C 37.815 41.261 35.67 41.261 35.131 41.618 C 34.928 41.752 34.649 41.863 34.511 41.863 C 34.373 41.864 33.969 42.138 33.612 42.473 C 31.981 44.004 31.872 44.491 31.87 50.26 C 31.869 52.712 31.826 54.783 31.775 54.864 C 31.671 55.027 30.397 55.116 30.171 54.976 C 30.009 54.877 29.953 33.491 30.114 33.331 C 30.162 33.283 30.563 33.26 31.005 33.28 L 31.81 33.316 L 31.843 37.036 Z  M 52.562 39.453 C 52.852 39.547 53.302 39.661 53.562 39.707 C 54.033 39.788 55.251 40.381 55.62 40.708 C 55.727 40.803 55.855 40.88 55.905 40.88 C 56.038 40.88 57.333 42.197 57.333 42.333 C 57.333 42.397 57.413 42.516 57.511 42.597 C 57.758 42.802 58.458 44.061 58.573 44.509 C 58.626 44.712 58.758 45.12 58.867 45.416 C 59 45.781 59.053 46.258 59.029 46.892 L 58.993 47.83 L 52.474 47.891 L 45.955 47.953 L 45.964 48.767 C 45.971 49.407 46.03 49.653 46.241 49.921 C 46.388 50.108 46.509 50.326 46.509 50.404 C 46.509 50.926 48.303 52.63 49.111 52.875 C 49.269 52.923 49.572 53.067 49.783 53.194 C 50.348 53.536 53.098 53.537 53.534 53.196 C 53.695 53.07 54.005 52.927 54.222 52.88 C 54.739 52.767 56.03 51.522 56.354 50.824 C 56.907 49.632 56.927 49.617 57.982 49.615 C 58.894 49.613 59.115 49.784 58.816 50.261 C 58.731 50.397 58.582 50.777 58.484 51.106 C 58.387 51.435 58.258 51.704 58.197 51.704 C 58.137 51.704 58.048 51.829 58 51.981 C 57.862 52.418 57.129 53.292 56.226 54.093 C 55.895 54.386 54.599 55.025 54.333 55.026 C 54.19 55.026 53.907 55.12 53.704 55.234 C 53.156 55.543 50.182 55.548 49.621 55.24 C 49.404 55.122 49.127 55.025 49.006 55.024 C 48.773 55.024 47.688 54.509 47.062 54.102 C 46.307 53.611 45.223 52.399 44.752 51.52 C 42.89 48.046 43.722 43.332 46.586 41.125 C 46.848 40.923 47.2 40.648 47.37 40.513 C 47.539 40.379 47.767 40.268 47.877 40.267 C 47.987 40.266 48.144 40.185 48.225 40.087 C 48.306 39.99 48.687 39.844 49.07 39.763 C 49.454 39.683 49.99 39.544 50.26 39.455 C 50.91 39.241 51.909 39.24 52.562 39.453 Z  M 50.014 41.618 C 49.744 41.749 49.372 41.858 49.188 41.86 C 48.983 41.863 48.803 41.959 48.723 42.11 C 48.65 42.245 48.524 42.356 48.442 42.357 C 48.049 42.358 46.648 43.924 46.445 44.588 C 46.396 44.747 46.268 44.978 46.161 45.1 C 45.622 45.713 45.798 45.736 51.395 45.771 C 56.952 45.805 57.193 45.78 56.683 45.213 C 56.577 45.097 56.454 44.852 56.409 44.671 C 56.363 44.49 56.221 44.247 56.092 44.129 C 55.962 44.013 55.857 43.851 55.857 43.771 C 55.857 43.453 53.927 41.876 53.52 41.862 C 53.418 41.859 53.114 41.749 52.843 41.618 C 52.491 41.448 52.088 41.38 51.429 41.38 C 50.769 41.38 50.366 41.448 50.014 41.618 Z  M 29.508 47.569 C 29.475 52.773 29.426 53.518 29.15 53.025 C 29.063 52.87 28.873 52.811 28.452 52.81 C 25.853 52.804 25.484 51.945 25.479 45.892 L 25.476 42.11 L 27.174 42.11 C 28.449 42.11 28.932 42.066 29.111 41.935 C 29.524 41.633 29.543 41.907 29.508 47.569 Z  M 52.59 41.952 C 53.131 42.068 53.672 42.262 53.792 42.383 C 53.913 42.503 54.094 42.602 54.195 42.602 C 54.296 42.602 54.448 42.713 54.532 42.848 C 54.617 42.983 54.733 43.094 54.791 43.094 C 54.934 43.094 55.611 43.827 55.611 43.981 C 55.611 44.049 55.749 44.268 55.918 44.47 C 56.093 44.677 56.226 44.99 56.226 45.195 L 56.226 45.554 L 51.37 45.554 L 46.515 45.554 L 46.588 45.154 C 46.708 44.498 48.179 42.602 48.569 42.602 C 48.628 42.602 48.783 42.504 48.915 42.384 C 49.136 42.182 50.602 41.798 51.303 41.758 C 51.47 41.749 52.05 41.836 52.59 41.952 Z  M 30.396 56.095 C 30.294 56.132 30.045 56.233 29.842 56.32 C 29.639 56.406 29.289 56.51 29.064 56.55 C 28.838 56.589 28.512 56.733 28.34 56.869 C 28.167 57.005 27.945 57.116 27.846 57.116 C 27.344 57.116 24.673 59.785 24.443 60.518 C 24.397 60.664 24.281 60.813 24.186 60.85 C 24.091 60.886 23.975 61.126 23.929 61.384 C 23.883 61.641 23.768 61.941 23.673 62.05 C 23.578 62.159 23.448 62.568 23.384 62.96 C 23.321 63.352 23.199 63.871 23.115 64.115 C 22.879 64.793 22.918 67.253 23.175 67.975 C 23.29 68.299 23.385 68.715 23.385 68.899 C 23.385 69.084 23.487 69.428 23.612 69.664 C 23.737 69.9 23.874 70.235 23.916 70.408 C 23.958 70.582 24.105 70.853 24.242 71.011 C 24.379 71.169 24.492 71.369 24.492 71.454 C 24.492 71.608 24.812 72.038 25.3 72.538 C 25.441 72.681 25.591 72.895 25.635 73.014 C 25.678 73.132 25.795 73.229 25.894 73.229 C 25.993 73.229 26.109 73.34 26.152 73.475 C 26.195 73.61 26.306 73.721 26.399 73.721 C 26.493 73.721 26.641 73.818 26.729 73.936 C 26.924 74.197 27.836 74.828 28.018 74.828 C 28.09 74.828 28.283 74.934 28.448 75.064 C 28.613 75.194 28.967 75.338 29.234 75.384 C 29.501 75.43 30.037 75.58 30.426 75.718 C 31.28 76.02 33.272 75.986 33.903 75.659 C 34.107 75.553 34.54 75.427 34.866 75.378 C 35.192 75.329 35.487 75.213 35.523 75.12 C 35.559 75.027 35.657 74.951 35.742 74.951 C 35.827 74.951 36.1 74.813 36.349 74.644 C 37.297 74.001 37.465 74.323 37.116 76.12 C 36.894 77.268 35.781 79.01 35.269 79.01 C 35.204 79.01 35.058 79.094 34.944 79.196 C 34.394 79.694 31.211 79.708 30.663 79.215 C 30.55 79.113 30.305 78.991 30.119 78.945 C 29.933 78.898 29.781 78.822 29.781 78.775 C 29.781 78.728 29.592 78.484 29.362 78.232 L 28.944 77.775 L 26.256 77.808 L 23.569 77.842 L 23.532 78.287 C 23.508 78.569 23.565 78.804 23.686 78.925 C 23.791 79.029 23.877 79.223 23.877 79.353 C 23.877 79.484 24.015 79.795 24.184 80.044 C 24.353 80.293 24.492 80.545 24.492 80.604 C 24.492 80.867 26.849 83.069 27.131 83.069 C 27.219 83.069 27.359 83.152 27.443 83.253 C 27.527 83.354 27.818 83.497 28.092 83.57 C 28.364 83.643 28.664 83.78 28.758 83.873 C 28.851 83.967 29.133 84.074 29.385 84.111 C 29.636 84.148 30.064 84.238 30.334 84.31 C 31.81 84.701 34.012 84.717 34.906 84.344 C 35.127 84.252 35.489 84.175 35.711 84.175 C 35.933 84.174 36.392 84.038 36.73 83.871 C 37.068 83.705 37.441 83.567 37.559 83.565 C 37.677 83.563 37.843 83.45 37.927 83.315 C 38.012 83.18 38.156 83.069 38.247 83.069 C 38.546 83.069 40.605 81.242 40.605 80.977 C 40.605 80.93 40.715 80.765 40.851 80.609 C 40.986 80.453 41.097 80.258 41.097 80.176 C 41.097 80.094 41.214 79.878 41.357 79.696 C 41.501 79.513 41.67 79.133 41.733 78.851 C 41.797 78.568 41.928 78.25 42.025 78.142 C 42.371 77.759 42.491 75.492 42.534 68.475 C 42.57 62.622 42.603 61.559 42.753 61.501 C 42.933 61.432 42.982 61.53 43.125 62.243 C 43.168 62.458 43.277 62.695 43.367 62.769 C 43.456 62.844 43.566 63.148 43.611 63.446 C 43.656 63.743 43.8 64.124 43.932 64.292 C 44.064 64.459 44.172 64.709 44.172 64.848 C 44.172 65.146 44.419 65.726 44.546 65.726 C 44.595 65.726 44.675 65.987 44.723 66.305 C 44.77 66.624 44.915 67.019 45.044 67.183 C 45.173 67.347 45.279 67.619 45.279 67.788 C 45.279 67.957 45.383 68.268 45.511 68.479 C 45.639 68.69 45.783 69.056 45.831 69.293 C 45.879 69.53 45.991 69.839 46.08 69.981 C 46.169 70.122 46.307 70.482 46.387 70.78 C 46.466 71.078 46.603 71.406 46.691 71.507 C 46.779 71.609 46.889 71.924 46.935 72.207 C 46.982 72.491 47.097 72.787 47.192 72.865 C 47.286 72.944 47.399 73.21 47.442 73.457 C 47.485 73.704 47.593 74.021 47.681 74.163 C 48.156 74.924 48.154 76.398 47.676 76.876 C 47.575 76.977 47.493 77.184 47.493 77.335 C 47.493 78.161 45.711 79.377 44.494 79.381 C 43.472 79.384 43.495 79.331 43.495 81.693 C 43.495 84.377 43.379 84.229 45.411 84.146 C 46.438 84.104 47.103 84.018 47.381 83.891 C 47.611 83.785 48.029 83.639 48.31 83.567 C 48.591 83.495 48.852 83.353 48.89 83.252 C 48.929 83.151 49.072 83.069 49.208 83.069 C 49.438 83.069 50.937 81.731 50.937 81.525 C 50.937 81.474 51.075 81.251 51.244 81.029 C 51.413 80.807 51.552 80.545 51.552 80.448 C 51.552 80.35 51.632 80.204 51.73 80.122 C 51.828 80.041 51.975 79.771 52.056 79.523 C 52.137 79.275 52.273 78.961 52.358 78.826 C 52.442 78.69 52.551 78.386 52.598 78.149 C 52.646 77.912 52.783 77.553 52.903 77.35 C 53.023 77.147 53.16 76.759 53.207 76.489 C 53.255 76.218 53.375 75.906 53.474 75.797 C 53.572 75.687 53.687 75.382 53.728 75.12 C 53.77 74.858 53.906 74.512 54.03 74.35 C 54.156 74.189 54.258 73.939 54.258 73.796 C 54.258 73.652 54.396 73.275 54.565 72.957 C 54.734 72.639 54.873 72.217 54.873 72.02 C 54.873 71.822 54.949 71.596 55.044 71.518 C 55.137 71.44 55.278 71.124 55.356 70.816 C 55.433 70.507 55.572 70.135 55.665 69.989 C 55.757 69.843 55.872 69.53 55.919 69.293 C 55.967 69.056 56.111 68.69 56.239 68.479 C 56.367 68.268 56.472 67.97 56.472 67.817 C 56.472 67.664 56.578 67.366 56.707 67.155 C 56.837 66.944 56.984 66.552 57.034 66.283 C 57.084 66.014 57.197 65.721 57.285 65.633 C 57.374 65.545 57.483 65.266 57.527 65.015 C 57.572 64.763 57.706 64.392 57.825 64.189 C 57.943 63.986 58.076 63.618 58.12 63.371 C 58.164 63.124 58.281 62.855 58.379 62.773 C 58.477 62.692 58.593 62.355 58.637 62.025 C 58.851 60.411 58.932 62.143 58.932 68.374 C 58.932 74.985 58.939 75.192 59.17 75.316 C 59.451 75.466 63.714 75.488 63.947 75.34 C 64.07 75.262 64.11 73.977 64.131 69.407 C 64.159 63.593 64.16 63.572 64.436 63.143 C 64.587 62.906 64.712 62.626 64.712 62.52 C 64.714 61.897 66.451 60.945 67.603 60.936 C 68.936 60.925 70.494 61.872 70.494 62.693 C 70.494 62.847 70.575 63.08 70.674 63.212 C 70.827 63.414 70.856 64.345 70.859 69.243 C 70.862 74.794 70.872 75.045 71.098 75.249 C 71.425 75.545 75.841 75.498 76.031 75.197 C 76.101 75.088 76.149 72.603 76.15 69.094 C 76.152 63.364 76.159 63.166 76.398 62.864 C 76.533 62.691 76.644 62.493 76.644 62.422 C 76.644 62.282 77.026 61.882 77.556 61.467 C 77.983 61.132 79.192 60.874 79.87 60.973 C 81.111 61.155 81.23 61.206 81.809 61.814 C 82.695 62.742 82.794 63.561 82.796 69.97 C 82.797 72.934 82.846 75.089 82.914 75.197 C 83.08 75.46 87.445 75.471 87.761 75.209 C 87.952 75.051 87.965 74.552 87.926 69.059 C 87.882 62.867 87.814 61.911 87.339 60.868 C 87.216 60.597 87.077 60.219 87.03 60.027 C 86.983 59.836 86.868 59.65 86.775 59.615 C 86.683 59.579 86.607 59.47 86.607 59.373 C 86.607 59.276 86.468 59.058 86.299 58.889 C 86.13 58.719 85.992 58.551 85.992 58.515 C 85.992 58.332 84.531 57.115 84.231 57.048 C 84.04 57.005 83.855 56.893 83.819 56.8 C 83.783 56.707 83.552 56.596 83.304 56.554 C 83.057 56.511 82.63 56.371 82.355 56.243 C 81.603 55.891 78.195 55.897 77.529 56.25 C 77.279 56.383 76.926 56.522 76.744 56.558 C 76.563 56.595 76.339 56.7 76.247 56.793 C 76.154 56.885 75.954 57 75.801 57.049 C 75.649 57.097 75.322 57.34 75.074 57.587 C 74.293 58.371 74.214 58.377 73.446 57.722 C 73.074 57.405 72.65 57.108 72.504 57.064 C 72.358 57.02 72.209 56.908 72.174 56.815 C 72.138 56.723 71.926 56.607 71.701 56.558 C 71.477 56.508 71.1 56.365 70.864 56.239 C 70.205 55.885 66.978 55.898 66.524 56.255 C 66.352 56.39 66.109 56.502 65.985 56.503 C 65.758 56.506 64.822 57.067 64.456 57.42 C 64.175 57.691 64.098 57.655 64.098 57.248 C 64.098 56.495 64.133 56.501 59.483 56.501 L 55.255 56.501 L 54.959 57.089 C 54.797 57.412 54.624 57.89 54.575 58.151 C 54.526 58.412 54.379 58.825 54.249 59.068 C 54.118 59.312 54.012 59.671 54.012 59.867 C 54.012 60.063 53.907 60.396 53.779 60.607 C 53.651 60.818 53.508 61.222 53.461 61.506 C 53.415 61.79 53.271 62.23 53.141 62.485 C 53.011 62.741 52.905 63.091 52.905 63.265 C 52.905 63.438 52.812 63.713 52.698 63.875 C 52.585 64.037 52.449 64.443 52.396 64.779 C 52.343 65.114 52.219 65.478 52.12 65.588 C 52.022 65.698 51.904 66.009 51.859 66.28 C 51.814 66.55 51.672 66.993 51.545 67.264 C 51.418 67.534 51.282 68.01 51.243 68.322 C 51.145 69.112 50.633 69.073 50.502 68.266 C 50.456 67.985 50.321 67.59 50.201 67.387 C 50.082 67.184 49.946 66.77 49.901 66.467 C 49.855 66.165 49.744 65.832 49.653 65.729 C 49.562 65.626 49.425 65.239 49.347 64.87 C 49.27 64.501 49.133 64.113 49.042 64.009 C 48.952 63.905 48.842 63.582 48.798 63.292 C 48.754 63.002 48.609 62.56 48.474 62.31 C 48.34 62.06 48.231 61.722 48.231 61.56 C 48.231 61.398 48.126 61.093 47.999 60.882 C 47.872 60.671 47.73 60.236 47.684 59.916 C 47.638 59.595 47.528 59.26 47.438 59.17 C 47.349 59.081 47.235 58.765 47.185 58.468 C 47.106 58.002 46.922 57.529 46.516 56.747 C 46.434 56.588 45.812 56.563 42.067 56.563 L 37.714 56.563 L 37.68 56.87 C 37.661 57.039 37.617 57.307 37.582 57.465 L 37.519 57.753 L 37.102 57.434 C 36.873 57.259 36.634 57.116 36.571 57.116 C 36.507 57.116 36.314 57.004 36.14 56.868 C 35.967 56.731 35.586 56.57 35.293 56.508 C 35.001 56.447 34.541 56.312 34.27 56.208 C 33.784 56.022 30.836 55.936 30.396 56.095 Z  M 33.538 56.427 C 33.673 56.521 34.153 56.638 34.604 56.686 C 35.171 56.747 35.49 56.846 35.635 57.007 C 35.751 57.135 35.962 57.242 36.103 57.244 C 36.245 57.247 36.609 57.468 36.913 57.734 C 37.568 58.309 37.764 58.222 37.867 57.312 L 37.931 56.744 L 42.128 56.776 L 46.324 56.809 L 46.465 57.362 C 46.542 57.667 46.694 58.082 46.802 58.285 C 46.911 58.488 46.999 58.826 47 59.037 C 47 59.247 47.111 59.561 47.247 59.733 C 47.382 59.905 47.493 60.208 47.493 60.408 C 47.493 60.607 47.622 61.013 47.78 61.31 C 47.938 61.608 48.1 62.095 48.14 62.392 C 48.18 62.689 48.27 62.968 48.34 63.012 C 48.41 63.055 48.533 63.392 48.612 63.761 C 48.691 64.13 48.824 64.543 48.908 64.679 C 48.992 64.815 49.126 65.198 49.206 65.53 C 49.286 65.862 49.431 66.248 49.529 66.388 C 49.627 66.527 49.707 66.811 49.707 67.018 C 49.707 67.224 49.802 67.53 49.919 67.697 C 50.037 67.864 50.193 68.306 50.266 68.678 C 50.522 69.97 51.313 69.967 51.491 68.673 C 51.536 68.343 51.679 67.865 51.808 67.611 C 51.938 67.358 52.044 67.036 52.044 66.897 C 52.044 66.759 52.154 66.438 52.29 66.186 C 52.425 65.934 52.536 65.6 52.536 65.445 C 52.536 65.29 52.648 64.944 52.785 64.676 C 52.922 64.408 53.067 63.967 53.108 63.697 C 53.148 63.426 53.279 63.039 53.397 62.836 C 53.515 62.633 53.645 62.245 53.685 61.975 C 53.726 61.704 53.872 61.263 54.009 60.995 C 54.146 60.727 54.259 60.395 54.262 60.257 C 54.264 60.119 54.373 59.785 54.504 59.515 C 54.634 59.244 54.743 58.916 54.745 58.785 C 54.748 58.654 54.851 58.322 54.976 58.047 C 55.1 57.772 55.254 57.381 55.317 57.178 L 55.432 56.809 L 59.18 56.773 C 63.907 56.728 63.679 56.691 63.623 57.503 L 63.579 58.136 L 63.986 58.055 C 64.21 58.01 64.555 57.808 64.752 57.606 C 64.949 57.404 65.179 57.239 65.261 57.239 C 65.345 57.239 65.507 57.134 65.623 57.006 C 65.74 56.878 66.073 56.737 66.364 56.693 C 66.655 56.65 66.998 56.535 67.125 56.438 C 67.448 56.194 69.778 56.186 70.16 56.428 C 70.309 56.523 70.666 56.638 70.951 56.684 C 71.237 56.73 71.605 56.873 71.77 57.003 C 71.935 57.133 72.144 57.24 72.235 57.241 C 72.326 57.242 72.787 57.597 73.26 58.03 C 74.007 58.713 74.145 58.795 74.306 58.647 C 74.578 58.396 75.221 57.833 75.598 57.516 C 75.779 57.364 76.024 57.239 76.143 57.239 C 76.262 57.239 76.454 57.135 76.568 57.008 C 76.689 56.875 77.029 56.744 77.374 56.698 C 77.702 56.655 78.039 56.537 78.122 56.437 C 78.311 56.209 81.182 56.174 81.593 56.394 C 81.736 56.471 82.187 56.611 82.596 56.706 C 83.004 56.802 83.423 56.951 83.527 57.039 C 83.631 57.127 83.896 57.27 84.116 57.357 C 84.336 57.444 84.516 57.56 84.516 57.615 C 84.516 57.67 84.625 57.75 84.76 57.792 C 85.03 57.878 85.746 58.55 85.746 58.718 C 85.746 58.776 85.848 58.897 85.974 58.985 C 86.1 59.073 86.245 59.284 86.297 59.453 C 86.349 59.622 86.495 59.86 86.622 59.981 C 86.749 60.102 86.853 60.329 86.853 60.485 C 86.853 60.642 86.991 61.03 87.16 61.348 L 87.468 61.926 L 87.468 68.487 C 87.468 74.356 87.447 75.056 87.273 75.122 C 87.166 75.164 86.285 75.197 85.315 75.197 C 84.345 75.197 83.464 75.164 83.357 75.122 C 83.184 75.056 83.162 74.433 83.16 69.372 C 83.157 64.16 83.139 63.656 82.934 63.205 C 82.812 62.934 82.676 62.57 82.633 62.396 C 82.311 61.105 79.151 59.88 78.31 60.721 C 78.196 60.836 78.003 60.929 77.882 60.929 C 77.56 60.929 76.758 61.608 76.364 62.214 C 75.735 63.181 75.642 64.237 75.684 69.979 L 75.721 75.068 L 75.229 75.139 C 74.959 75.178 73.962 75.193 73.015 75.173 L 71.293 75.136 L 71.232 69.106 C 71.17 63.082 71.17 63.075 70.893 62.724 C 70.741 62.53 70.617 62.276 70.617 62.158 C 70.617 61.877 69.582 60.929 69.275 60.929 C 69.143 60.929 68.95 60.844 68.846 60.74 C 68.509 60.403 67.153 60.358 66.563 60.666 C 66.285 60.811 65.985 60.929 65.895 60.929 C 65.691 60.929 64.467 62.141 64.467 62.342 C 64.467 62.457 64.075 63.008 63.95 63.07 C 63.937 63.076 63.895 65.794 63.858 69.109 L 63.79 75.136 L 61.515 75.136 L 59.239 75.136 L 59.178 68.038 C 59.131 62.592 59.08 60.905 58.962 60.788 C 58.735 60.561 58.556 60.801 58.475 61.437 C 58.438 61.733 58.325 62.07 58.224 62.186 C 58.123 62.301 57.992 62.657 57.932 62.975 C 57.873 63.294 57.744 63.643 57.647 63.75 C 57.549 63.858 57.418 64.175 57.356 64.454 C 57.293 64.734 57.151 65.091 57.041 65.249 C 56.931 65.406 56.841 65.658 56.841 65.808 C 56.841 65.959 56.702 66.342 56.533 66.66 C 56.364 66.979 56.226 67.388 56.226 67.57 C 56.226 67.753 56.115 68.03 55.98 68.186 C 55.844 68.342 55.734 68.587 55.734 68.729 C 55.734 68.872 55.63 69.182 55.504 69.418 C 55.378 69.654 55.233 70.04 55.183 70.277 C 55.133 70.514 54.987 70.88 54.859 71.091 C 54.731 71.302 54.627 71.641 54.627 71.843 C 54.627 72.046 54.523 72.344 54.397 72.505 C 54.27 72.667 54.128 72.973 54.082 73.186 C 54.035 73.399 53.89 73.785 53.759 74.043 C 53.627 74.3 53.52 74.625 53.52 74.765 C 53.52 74.905 53.428 75.15 53.316 75.31 C 53.204 75.47 53.065 75.852 53.008 76.158 C 52.951 76.465 52.822 76.807 52.721 76.918 C 52.621 77.029 52.501 77.31 52.454 77.542 C 52.408 77.775 52.269 78.131 52.146 78.334 C 52.022 78.537 51.921 78.846 51.921 79.022 C 51.921 79.197 51.782 79.502 51.613 79.698 C 51.444 79.895 51.306 80.182 51.306 80.336 C 51.306 80.49 51.22 80.649 51.116 80.689 C 51.013 80.729 50.849 80.914 50.753 81.099 C 50.001 82.553 47.129 83.93 44.845 83.93 C 43.749 83.93 43.803 84.036 43.803 81.85 C 43.803 79.591 43.785 79.625 44.919 79.625 C 45.486 79.625 45.786 79.57 45.888 79.447 C 45.97 79.349 46.226 79.206 46.457 79.13 C 46.688 79.053 46.878 78.953 46.878 78.907 C 46.878 78.861 47.013 78.677 47.178 78.499 C 47.343 78.321 47.567 77.964 47.675 77.705 C 47.783 77.447 47.93 77.199 48.003 77.154 C 48.075 77.109 48.163 76.818 48.198 76.506 C 48.233 76.194 48.338 75.876 48.431 75.799 C 48.648 75.619 48.644 75.47 48.415 75.241 C 48.314 75.14 48.231 74.908 48.231 74.726 C 48.231 74.544 48.092 74.136 47.923 73.818 C 47.754 73.5 47.616 73.112 47.616 72.954 C 47.616 72.797 47.541 72.56 47.449 72.426 C 47.357 72.293 47.211 71.962 47.125 71.692 C 47.04 71.421 46.899 71.117 46.814 71.015 C 46.728 70.914 46.618 70.582 46.569 70.277 C 46.519 69.973 46.375 69.577 46.248 69.397 C 46.121 69.217 46.017 68.935 46.017 68.77 C 46.017 68.605 45.913 68.35 45.786 68.204 C 45.66 68.058 45.519 67.706 45.473 67.422 C 45.428 67.138 45.289 66.737 45.165 66.531 C 45.041 66.325 44.903 65.949 44.858 65.695 C 44.812 65.442 44.725 65.234 44.664 65.234 C 44.602 65.234 44.513 65.027 44.465 64.774 C 44.418 64.521 44.249 64.07 44.091 63.772 C 43.932 63.473 43.803 63.12 43.803 62.986 C 43.803 62.851 43.699 62.569 43.572 62.358 C 43.444 62.147 43.303 61.766 43.258 61.511 C 43.146 60.88 42.468 59.877 42.281 60.065 C 42.182 60.164 42.125 62.655 42.081 68.776 C 42.026 76.444 41.998 77.382 41.818 77.657 C 41.707 77.826 41.578 78.183 41.531 78.45 C 41.484 78.717 41.339 79.07 41.209 79.235 C 41.08 79.4 40.974 79.632 40.974 79.75 C 40.974 79.867 40.887 80.036 40.781 80.124 C 40.675 80.212 40.502 80.454 40.395 80.662 C 40.289 80.87 40.127 81.084 40.034 81.138 C 39.942 81.192 39.867 81.295 39.867 81.367 C 39.867 81.513 39.013 82.331 38.862 82.331 C 38.711 82.331 37.653 83.105 37.653 83.216 C 37.653 83.27 37.535 83.315 37.391 83.315 C 37.248 83.315 36.819 83.449 36.438 83.612 C 35.452 84.033 32.839 84.276 31.447 84.075 C 30.895 83.995 30.28 83.93 30.08 83.93 C 29.879 83.93 29.523 83.827 29.287 83.7 C 29.051 83.574 28.682 83.432 28.467 83.385 C 28.252 83.338 28.012 83.223 27.936 83.131 C 27.859 83.038 27.631 82.926 27.43 82.882 C 26.996 82.786 24.82 80.695 24.675 80.235 C 24.624 80.068 24.478 79.801 24.352 79.639 C 24.226 79.478 24.123 79.24 24.123 79.11 C 24.123 78.981 24.041 78.718 23.942 78.525 C 23.696 78.05 23.798 78.03 26.526 78.028 L 28.745 78.026 L 29.22 78.542 C 29.852 79.229 30.411 79.596 30.976 79.691 C 31.232 79.735 31.673 79.854 31.956 79.957 C 32.753 80.247 34.756 79.862 35.554 79.265 C 36.109 78.85 36.792 78.144 36.792 77.986 C 36.792 77.917 36.884 77.759 36.996 77.636 C 37.108 77.511 37.241 77.175 37.293 76.888 C 37.343 76.601 37.471 76.144 37.575 75.874 C 37.799 75.294 37.836 73.954 37.635 73.752 C 37.475 73.592 36.47 74.042 36.049 74.463 C 35.916 74.596 35.722 74.705 35.618 74.705 C 35.514 74.705 35.279 74.809 35.095 74.937 C 34.658 75.241 32.557 75.505 31.427 75.398 C 29.8 75.244 29.177 75.122 28.947 74.914 C 28.82 74.799 28.64 74.705 28.548 74.705 C 28.455 74.705 28.169 74.567 27.912 74.398 C 27.654 74.228 27.209 73.938 26.923 73.752 C 26.636 73.566 26.266 73.255 26.101 73.062 C 25.935 72.868 25.713 72.624 25.607 72.519 C 25.379 72.294 24.947 71.602 24.695 71.061 C 24.597 70.849 24.46 70.641 24.391 70.598 C 24.321 70.555 24.227 70.341 24.18 70.122 C 24.134 69.903 23.998 69.558 23.879 69.355 C 23.27 68.317 23.268 63.504 23.876 62.467 C 23.995 62.264 24.128 61.896 24.172 61.649 C 24.216 61.402 24.333 61.132 24.433 61.05 C 24.532 60.968 24.786 60.598 24.998 60.228 C 25.385 59.551 26.47 58.346 26.692 58.346 C 26.758 58.346 26.847 58.235 26.89 58.1 C 26.933 57.965 27.064 57.854 27.182 57.854 C 27.3 57.854 27.584 57.716 27.813 57.547 C 28.042 57.377 28.304 57.239 28.395 57.239 C 28.486 57.239 28.711 57.133 28.894 57.004 C 29.077 56.875 29.493 56.733 29.817 56.688 C 30.142 56.644 30.585 56.53 30.801 56.436 C 31.335 56.204 33.211 56.198 33.538 56.427 Z  M 31.573 60.526 C 31.442 60.559 31.258 60.664 31.164 60.758 C 31.07 60.852 30.861 60.929 30.701 60.929 C 30.54 60.929 30.259 61.067 30.076 61.237 C 29.894 61.406 29.692 61.544 29.628 61.544 C 29.46 61.544 28.428 62.551 28.428 62.716 C 28.428 62.792 28.289 62.984 28.12 63.143 C 27.951 63.302 27.813 63.559 27.813 63.714 C 27.813 63.869 27.695 64.221 27.552 64.496 C 27.217 65.14 27.25 67.153 27.603 67.543 C 27.718 67.671 27.813 67.913 27.813 68.082 C 27.813 68.251 27.951 68.519 28.12 68.678 C 28.289 68.837 28.428 69.029 28.428 69.104 C 28.428 69.277 29.56 70.4 29.735 70.4 C 29.807 70.4 29.965 70.51 30.086 70.644 C 30.207 70.778 30.506 70.924 30.751 70.969 C 30.995 71.013 31.304 71.125 31.438 71.217 C 31.774 71.448 33.635 71.447 33.827 71.215 C 33.904 71.122 34.178 71.012 34.436 70.971 C 34.694 70.93 35.006 70.784 35.13 70.648 C 35.253 70.512 35.427 70.4 35.517 70.4 C 35.865 70.4 37.208 68.839 37.351 68.268 C 37.396 68.088 37.478 67.94 37.533 67.94 C 38.026 67.94 37.971 64.305 37.47 63.804 C 37.368 63.701 37.283 63.552 37.281 63.472 C 37.276 63.092 36.039 61.634 35.606 61.497 C 35.464 61.452 35.249 61.305 35.128 61.172 C 35.007 61.038 34.82 60.927 34.712 60.925 C 34.604 60.923 34.295 60.814 34.024 60.683 C 33.547 60.453 32.199 60.366 31.573 60.526 Z  M 33.853 61.059 C 33.972 61.123 34.21 61.175 34.381 61.175 C 34.722 61.175 34.906 61.313 35.977 62.369 C 36.932 63.311 37.038 63.439 37.038 63.65 C 37.038 63.749 37.156 64.048 37.3 64.316 C 37.513 64.711 37.563 65.014 37.563 65.911 C 37.563 66.807 37.513 67.11 37.3 67.505 C 37.156 67.773 37.038 68.069 37.038 68.164 C 37.038 68.258 36.913 68.488 36.761 68.676 C 36.609 68.863 36.383 69.157 36.259 69.329 C 36.135 69.501 35.803 69.796 35.521 69.984 C 35.239 70.172 34.948 70.396 34.874 70.483 C 34.424 71.01 30.978 71 30.449 70.471 C 30.351 70.373 30.16 70.258 30.024 70.215 C 29.738 70.124 28.674 69.108 28.674 68.925 C 28.674 68.857 28.567 68.695 28.437 68.565 C 28.307 68.435 28.114 68.006 28.008 67.611 C 27.901 67.217 27.746 66.657 27.664 66.368 C 27.532 65.905 27.546 65.74 27.78 65.015 C 27.926 64.56 28.078 64.035 28.117 63.847 C 28.192 63.484 28.292 63.35 29.166 62.433 C 29.936 61.626 30.579 61.237 31.441 61.056 C 31.847 60.971 32.234 60.882 32.302 60.857 C 32.499 60.787 33.616 60.932 33.853 61.059 Z  M 94.656 72.672 C 94.524 72.771 94.285 72.854 94.125 72.856 C 93.498 72.865 91.158 74.603 91.158 75.06 C 91.158 75.139 91.077 75.236 90.979 75.273 C 90.881 75.311 90.741 75.521 90.669 75.741 C 90.596 75.96 90.428 76.355 90.294 76.617 C 89.904 77.382 89.941 79.828 90.355 80.671 C 90.522 81.009 90.66 81.346 90.662 81.42 C 90.664 81.494 90.776 81.655 90.912 81.778 C 91.047 81.9 91.158 82.049 91.158 82.109 C 91.158 82.238 92.491 83.561 92.621 83.561 C 92.669 83.561 92.897 83.699 93.126 83.869 C 93.355 84.038 93.658 84.176 93.799 84.176 C 93.94 84.176 94.19 84.271 94.356 84.387 C 94.8 84.698 96.693 84.76 97.431 84.487 C 97.735 84.374 98.176 84.234 98.411 84.175 C 98.646 84.115 98.901 83.981 98.978 83.875 C 99.055 83.77 99.177 83.684 99.248 83.684 C 99.413 83.684 99.941 83.25 100.431 82.71 C 100.641 82.479 100.904 82.194 101.016 82.076 C 101.128 81.959 101.259 81.738 101.308 81.584 C 101.357 81.43 101.501 81.193 101.628 81.056 C 101.755 80.92 101.859 80.651 101.859 80.457 C 101.859 80.264 101.95 79.742 102.062 79.296 C 102.225 78.65 102.237 78.408 102.125 78.096 C 102.047 77.882 101.95 77.433 101.909 77.098 C 101.868 76.763 101.729 76.339 101.6 76.155 C 101.472 75.972 101.367 75.737 101.367 75.632 C 101.367 75.528 101.26 75.337 101.13 75.206 C 101 75.076 100.832 74.855 100.757 74.714 C 100.681 74.574 100.539 74.459 100.44 74.459 C 100.341 74.459 100.26 74.374 100.26 74.271 C 100.26 74.167 100.163 74.046 100.044 74.002 C 99.926 73.958 99.757 73.821 99.668 73.698 C 99.58 73.576 99.458 73.475 99.397 73.475 C 99.336 73.475 99.082 73.337 98.833 73.168 C 98.584 72.998 98.208 72.858 97.998 72.856 C 97.787 72.854 97.508 72.771 97.376 72.672 C 97.207 72.544 96.812 72.491 96.016 72.491 C 95.22 72.491 94.825 72.544 94.656 72.672 Z  M 97.135 73.027 C 97.893 73.134 98.375 73.272 98.63 73.453 C 98.837 73.601 99.074 73.721 99.157 73.721 C 99.434 73.721 100.971 75.42 101.129 75.901 C 101.213 76.157 101.369 76.501 101.478 76.668 C 101.767 77.112 101.765 80.234 101.475 80.565 C 101.364 80.691 101.21 80.996 101.13 81.244 C 101.051 81.492 100.905 81.725 100.807 81.763 C 100.709 81.801 100.629 81.902 100.63 81.989 C 100.63 82.156 99.287 83.438 99.11 83.438 C 99.053 83.438 98.859 83.539 98.68 83.662 C 98.373 83.873 97.363 84.127 96.276 84.266 C 95.775 84.331 94.099 84.014 93.679 83.774 C 93.544 83.698 93.262 83.545 93.053 83.437 C 92.063 82.921 90.916 81.528 90.726 80.609 C 90.676 80.372 90.56 80.029 90.466 79.846 C 90.366 79.65 90.297 79.132 90.297 78.58 C 90.297 78.028 90.366 77.509 90.466 77.313 C 90.56 77.13 90.675 76.787 90.724 76.55 C 91.036 75.019 93.017 73.332 94.848 73.038 C 96.046 72.845 95.856 72.846 97.135 73.027 Z  M 66.158 77.988 C 66.039 78.019 65.943 78.083 65.943 78.13 C 65.943 78.177 65.75 78.32 65.515 78.447 C 65.279 78.573 65.056 78.773 65.019 78.89 C 64.982 79.008 64.846 79.226 64.717 79.374 C 64.236 79.929 64.24 82.201 64.722 82.459 C 64.852 82.528 64.959 82.653 64.959 82.735 C 64.959 82.902 65.736 83.561 65.932 83.561 C 66.001 83.561 66.284 83.679 66.559 83.822 C 67.363 84.241 68.87 83.833 69.644 82.987 C 70.221 82.356 70.734 80.403 70.38 80.184 C 70.318 80.146 70.227 79.936 70.18 79.719 C 70.083 79.279 69.072 78.211 68.573 78.021 C 68.265 77.904 66.568 77.881 66.158 77.988 Z  M 68.612 78.455 C 68.869 78.623 69.134 78.816 69.202 78.884 C 69.99 79.675 69.94 79.538 69.939 80.91 L 69.937 82.189 L 69.412 82.704 C 67.882 84.203 65.621 83.729 64.706 81.716 C 64.533 81.334 64.658 79.884 64.88 79.696 C 64.967 79.623 65.128 79.416 65.24 79.236 C 65.883 78.195 67.606 77.796 68.612 78.455 Z  M 73.004 82.212 C 72.271 82.357 71.665 82.808 70.696 83.93 C 70.19 84.516 69.868 86.382 70.169 86.98 C 70.26 87.163 70.371 87.5 70.415 87.729 C 70.459 87.958 70.619 88.27 70.771 88.421 C 70.923 88.573 71.2 88.871 71.386 89.084 C 71.573 89.297 71.877 89.536 72.063 89.615 C 72.248 89.694 72.502 89.844 72.625 89.948 C 73.058 90.31 75.118 90.213 75.89 89.793 C 76.895 89.246 77.874 88.203 77.874 87.68 C 77.874 87.528 77.957 87.335 78.058 87.251 C 78.302 87.049 78.315 85.443 78.076 85.095 C 77.984 84.962 77.871 84.646 77.824 84.393 C 77.775 84.125 77.64 83.879 77.499 83.804 C 77.367 83.733 77.259 83.621 77.259 83.555 C 77.259 83.393 76.497 82.708 76.312 82.704 C 76.23 82.702 76.12 82.622 76.066 82.527 C 75.869 82.18 74.088 81.997 73.004 82.212 Z  M 75.693 82.7 C 75.865 82.835 76.058 82.946 76.122 82.946 C 76.258 82.946 76.807 83.459 77.289 84.036 C 77.496 84.284 77.628 84.587 77.628 84.817 C 77.628 85.024 77.692 85.407 77.77 85.669 C 77.998 86.428 77.233 88.85 76.766 88.85 C 76.708 88.85 76.588 88.923 76.498 89.013 C 75.749 89.763 73.766 90.149 73.049 89.685 C 72.895 89.586 72.626 89.469 72.452 89.426 C 72.138 89.349 71.406 88.732 71.17 88.346 C 71.102 88.235 70.938 87.99 70.805 87.801 C 70.427 87.266 70.448 84.957 70.836 84.432 C 70.986 84.229 71.109 84.016 71.109 83.959 C 71.109 83.771 71.937 82.946 72.126 82.946 C 72.228 82.946 72.442 82.837 72.602 82.704 C 73.035 82.343 75.235 82.34 75.693 82.7 Z " fill-rule="evenodd" fill="rgb(158,203,231)"/>
    </g>
  </g>
</svg>