<?xml version="1.0" encoding="UTF-8" standalone="no"?>
<!-- Created with Inkscape (http://www.inkscape.org/) -->

<svg
   width="2272.1326"
   height="699.06384"
   version="1.1"
   viewBox="0 0 2272.1326 699.06387"
   id="svg23"
   sodipodi:docname="wasabi_flat.svg"
   xml:space="preserve"
   inkscape:version="1.3 (0e150ed6c4, 2023-07-21)"
   inkscape:export-filename="wasabi_flat.svg"
   inkscape:export-xdpi="96"
   inkscape:export-ydpi="96"
   xmlns:inkscape="http://www.inkscape.org/namespaces/inkscape"
   xmlns:sodipodi="http://sodipodi.sourceforge.net/DTD/sodipodi-0.dtd"
   xmlns="http://www.w3.org/2000/svg"
   xmlns:svg="http://www.w3.org/2000/svg"><sodipodi:namedview
     id="namedview1"
     pagecolor="#ffffff"
     bordercolor="#000000"
     borderopacity="0.25"
     inkscape:showpageshadow="2"
     inkscape:pageopacity="0.0"
     inkscape:pagecheckerboard="0"
     inkscape:deskcolor="#d1d1d1"
     showgrid="false"
     inkscape:zoom="0.29705238"
     inkscape:cx="464.56453"
     inkscape:cy="358.52263"
     inkscape:window-width="1920"
     inkscape:window-height="974"
     inkscape:window-x="-11"
     inkscape:window-y="1609"
     inkscape:window-maximized="1"
     inkscape:current-layer="g1" /><defs
     id="defs23" /><g
     id="g1"
     transform="matrix(0.88133097,0,0,0.88133097,511.19082,-978.91529)"><g
       id="g12"
       transform="matrix(111.0603,0,0,111.0603,-186.24999,452.73054)"
       style="isolation:isolate"><g
         id="g11"><path
           d="M 5.428,6.597 5.508,6.566 5.61,6.723 5.406,6.869 V 7.027 C 5.656,6.873 5.832,6.779 5.939,6.744 6.067,6.702 6.184,6.681 6.29,6.681 c 0.219,0 0.4,0.066 0.543,0.199 0.137,0.132 0.204,0.31 0.204,0.533 0,0.161 -0.045,0.304 -0.135,0.43 C 6.811,7.982 6.682,8.087 6.516,8.157 6.327,8.24 6.082,8.296 5.779,8.324 5.772,8.262 5.739,8.177 5.678,8.073 6.055,8.073 6.327,8.01 6.494,7.885 6.66,7.773 6.743,7.616 6.743,7.413 6.743,7.253 6.698,7.128 6.607,7.037 6.516,6.953 6.403,6.911 6.267,6.911 6.04,6.911 5.75,7.033 5.395,7.278 c 0,0.341 0.007,0.714 0.023,1.119 L 5.134,8.408 V 8.02 7.508 L 4.885,7.769 C 4.87,7.797 4.849,7.825 4.823,7.853 4.797,7.881 4.76,7.923 4.715,7.979 L 4.5,7.78 C 4.606,7.682 4.817,7.494 5.134,7.215 5.134,7.11 5.138,6.991 5.145,6.859 5.055,6.873 4.992,6.882 4.958,6.885 4.924,6.888 4.876,6.894 4.811,6.901 4.747,6.908 4.696,6.911 4.658,6.911 V 6.66 C 4.794,6.667 4.957,6.663 5.145,6.65 5.153,6.587 5.158,6.503 5.162,6.399 5.166,6.294 5.168,6.199 5.168,6.116 L 5.475,6.137 5.44,6.378 C 5.433,6.413 5.428,6.486 5.428,6.597"
           fill="#f15d25"
           id="path3-0" /><path
           d="M 10.067,6.628 C 10.226,6.593 10.46,6.526 10.77,6.429 l 0.079,0.23 c -0.279,0.091 -0.505,0.15 -0.679,0.178 0.136,0.23 0.332,0.453 0.589,0.67 L 10.611,7.695 C 10.445,7.632 10.321,7.59 10.237,7.57 10.117,7.555 10.007,7.548 9.909,7.548 9.629,7.548 9.425,7.587 9.297,7.664 9.214,7.72 9.172,7.786 9.172,7.862 c 0,0.07 0.042,0.133 0.125,0.189 0.151,0.084 0.374,0.125 0.669,0.125 0.18,0 0.415,-0.017 0.702,-0.052 l 0.011,0.24 C 10.445,8.393 10.237,8.407 10.056,8.407 9.633,8.407 9.324,8.347 9.127,8.229 8.984,8.138 8.912,8.016 8.912,7.862 8.912,7.723 8.988,7.601 9.138,7.496 9.289,7.399 9.534,7.35 9.875,7.35 c 0.029,0 0.166,0.007 0.408,0.02 C 10.155,7.238 10.03,7.074 9.909,6.879 9.622,6.914 9.399,6.931 9.24,6.931 9.195,6.931 9.066,6.924 8.855,6.91 L 8.867,6.67 C 9.063,6.691 9.214,6.701 9.32,6.701 9.478,6.701 9.637,6.691 9.795,6.67 9.705,6.509 9.641,6.359 9.603,6.22 L 9.886,6.157 c 0.06,0.195 0.121,0.352 0.181,0.471"
           fill="#f15d25"
           id="path4-6" /><path
           d="m 14.602,7.046 c 0,0.377 -0.031,0.649 -0.09,0.816 C 14.443,8.037 14.33,8.17 14.171,8.26 13.998,8.358 13.813,8.407 13.616,8.407 13.374,8.407 13.186,8.344 13.05,8.219 12.913,8.1 12.846,7.939 12.846,7.737 c 0,-0.174 0.049,-0.349 0.148,-0.523 0.105,-0.203 0.256,-0.404 0.452,-0.607 -0.234,0.063 -0.46,0.104 -0.68,0.125 l -0.022,-0.25 c 0.37,-0.015 0.692,-0.07 0.962,-0.168 l 0.182,0.209 c -0.113,0.091 -0.234,0.196 -0.363,0.314 -0.135,0.174 -0.234,0.328 -0.294,0.461 -0.076,0.146 -0.114,0.282 -0.114,0.408 0,0.139 0.046,0.248 0.137,0.324 0.091,0.084 0.219,0.125 0.386,0.125 0.15,0 0.278,-0.034 0.384,-0.104 0.113,-0.077 0.205,-0.192 0.271,-0.345 0.062,-0.167 0.091,-0.401 0.091,-0.701 0,-0.195 -0.022,-0.391 -0.068,-0.586 l 0.284,-0.063 c 0.083,0.237 0.151,0.425 0.204,0.565 0.09,0.188 0.166,0.328 0.226,0.418 0.068,0.105 0.155,0.213 0.261,0.325 L 15.054,7.853 C 14.957,7.727 14.878,7.605 14.817,7.486 14.741,7.353 14.67,7.207 14.602,7.046 m 0.079,-0.753 0.136,-0.094 c 0.068,0.049 0.162,0.143 0.283,0.283 L 14.942,6.596 C 14.927,6.583 14.84,6.482 14.681,6.293 M 15.361,6.282 15.202,6.408 14.942,6.105 15.088,6 c 0.106,0.091 0.197,0.185 0.273,0.282"
           fill="#f15d25"
           id="path5-4" /><path
           d="M 4.583,11.679 V 8.75 h 0.553 v 3.259 c 0,0.374 0.089,0.561 0.266,0.561 0.092,0 0.171,-0.055 0.239,-0.165 0.068,-0.11 0.102,-0.228 0.102,-0.353 V 8.75 h 0.553 v 3.272 c 0,0.133 0.034,0.257 0.101,0.374 0.067,0.116 0.144,0.174 0.229,0.174 0.19,0 0.285,-0.172 0.285,-0.517 V 8.75 h 0.561 v 2.937 c 0,0.466 -0.04,0.786 -0.12,0.96 C 7.246,12.882 7.033,13 6.711,13 6.448,13 6.231,12.887 6.059,12.662 5.865,12.887 5.643,13 5.394,13 5.045,13 4.818,12.895 4.712,12.685 4.626,12.521 4.583,12.186 4.583,11.679"
           fill="#b2d235"
           id="path6-6" /><path
           d="m 9.678,12.923 -0.1,-0.211 c -0.158,0.166 -0.331,0.249 -0.519,0.249 -0.466,0 -0.699,-0.358 -0.699,-1.075 0,-0.445 0.089,-0.788 0.266,-1.028 0.167,-0.228 0.476,-0.45 0.927,-0.665 V 9.614 c 0,-0.326 -0.08,-0.488 -0.241,-0.488 -0.169,0 -0.253,0.175 -0.253,0.526 v 0.411 H 8.506 V 9.714 c 0,-0.692 0.266,-1.037 0.798,-1.037 0.299,0 0.51,0.114 0.632,0.342 0.108,0.197 0.162,0.513 0.162,0.948 v 2.161 c 0,0.223 0.043,0.488 0.129,0.795 z M 9.271,12.555 c 0.188,0 0.282,-0.168 0.282,-0.503 v -1.363 c -0.26,0.166 -0.429,0.332 -0.507,0.497 -0.077,0.165 -0.116,0.427 -0.116,0.785 0,0.389 0.113,0.584 0.341,0.584"
           fill="#b2d235"
           id="path7" /><path
           d="M 12.663,9.706 V 9.959 H 12.11 V 9.606 c 0,-0.3 -0.102,-0.449 -0.308,-0.449 -0.21,0 -0.316,0.139 -0.316,0.418 0,0.233 0.103,0.464 0.308,0.691 l 0.503,0.557 c 0.272,0.302 0.407,0.654 0.407,1.056 0,0.356 -0.08,0.63 -0.241,0.823 -0.16,0.194 -0.381,0.29 -0.661,0.29 -0.246,0 -0.448,-0.088 -0.606,-0.265 -0.158,-0.176 -0.237,-0.406 -0.237,-0.691 v -0.372 h 0.561 v 0.381 c 0,0.332 0.098,0.498 0.293,0.498 0.231,0 0.347,-0.177 0.347,-0.53 0,-0.346 -0.1,-0.632 -0.299,-0.857 l -0.516,-0.588 c -0.257,-0.292 -0.386,-0.613 -0.386,-0.961 0,-0.269 0.084,-0.489 0.253,-0.659 0.169,-0.171 0.377,-0.256 0.624,-0.256 0.551,0 0.827,0.338 0.827,1.014"
           fill="#b2d235"
           id="path8" /><path
           d="m 14.924,12.923 -0.099,-0.211 c -0.158,0.166 -0.331,0.249 -0.52,0.249 -0.465,0 -0.698,-0.358 -0.698,-1.075 0,-0.445 0.088,-0.788 0.266,-1.028 0.166,-0.228 0.475,-0.45 0.927,-0.665 V 9.614 c 0,-0.326 -0.081,-0.488 -0.241,-0.488 -0.17,0 -0.254,0.175 -0.254,0.526 v 0.411 H 13.752 V 9.714 c 0,-0.692 0.266,-1.037 0.798,-1.037 0.3,0 0.51,0.114 0.632,0.342 0.108,0.197 0.162,0.513 0.162,0.948 v 2.161 c 0,0.223 0.043,0.488 0.129,0.795 z m -0.407,-0.368 c 0.188,0 0.283,-0.168 0.283,-0.503 v -1.363 c -0.261,0.166 -0.43,0.332 -0.507,0.497 -0.078,0.165 -0.117,0.427 -0.117,0.785 0,0.389 0.114,0.584 0.341,0.584"
           fill="#b2d235"
           id="path9" /><path
           d="m 16.807,12.647 v 0.276 H 16.254 V 7.087 h 0.553 v 1.866 c 0.172,-0.159 0.339,-0.238 0.503,-0.238 0.471,0 0.706,0.31 0.706,0.929 v 2.358 c 0,0.65 -0.192,0.975 -0.577,0.975 -0.175,0 -0.386,-0.11 -0.632,-0.33 z m 0.657,-3.01 c 0,-0.29 -0.085,-0.434 -0.254,-0.434 -0.13,0 -0.265,0.112 -0.403,0.338 v 2.618 c 0.158,0.21 0.295,0.315 0.411,0.315 0.164,0 0.246,-0.131 0.246,-0.392 z"
           fill="#b2d235"
           id="path10" /><path
           d="M 18.956,7.087 H 19.5 V 7.625 H 18.956 Z M 19.5,12.923 H 18.956 V 8.75 H 19.5 Z"
           fill="#b2d235"
           id="path11" /></g></g></g></svg>
