<?xml version="1.0" encoding="UTF-8" standalone="no"?><!-- Generator: Gravit.io --><svg xmlns="http://www.w3.org/2000/svg" xmlns:xlink="http://www.w3.org/1999/xlink" style="isolation:isolate" viewBox="0 0 24 24" width="24pt" height="24pt"><defs><clipPath id="_clipPath_8xR5jDCHZvQCC12U1l3r2FYJkIJWf4ha"><rect width="24" height="24"/></clipPath></defs><g clip-path="url(#_clipPath_8xR5jDCHZvQCC12U1l3r2FYJkIJWf4ha)"><g><g><path d=" M 6.171 8.943 L 6.274 8.899 L 6.407 9.119 L 6.142 9.325 L 6.142 9.545 C 6.465 9.329 6.694 9.197 6.832 9.148 C 6.998 9.09 7.15 9.061 7.287 9.061 C 7.57 9.061 7.804 9.154 7.99 9.34 C 8.167 9.525 8.255 9.774 8.255 10.087 C 8.255 10.312 8.196 10.512 8.079 10.689 C 7.961 10.885 7.795 11.031 7.58 11.129 C 7.335 11.246 7.017 11.324 6.626 11.364 C 6.616 11.276 6.573 11.158 6.494 11.012 C 6.983 11.012 7.335 10.923 7.551 10.748 C 7.766 10.591 7.873 10.371 7.873 10.087 C 7.873 9.862 7.815 9.687 7.697 9.56 C 7.58 9.442 7.433 9.383 7.258 9.383 C 6.964 9.383 6.587 9.554 6.128 9.897 C 6.128 10.376 6.137 10.899 6.157 11.466 L 5.791 11.481 L 5.791 10.938 L 5.791 10.219 L 5.468 10.586 C 5.448 10.625 5.421 10.664 5.387 10.704 C 5.353 10.743 5.306 10.801 5.247 10.88 L 4.969 10.601 C 5.106 10.463 5.38 10.2 5.791 9.809 C 5.791 9.662 5.795 9.496 5.805 9.31 C 5.688 9.329 5.607 9.342 5.563 9.347 C 5.519 9.351 5.456 9.359 5.372 9.368 C 5.289 9.378 5.223 9.383 5.174 9.383 L 5.174 9.031 C 5.35 9.041 5.561 9.036 5.805 9.017 C 5.815 8.928 5.822 8.812 5.827 8.665 C 5.832 8.518 5.834 8.386 5.834 8.269 L 6.231 8.298 L 6.186 8.635 C 6.177 8.684 6.171 8.787 6.171 8.943" fill="rgb(0,88,42)"/><path d=" M 12.177 8.986 C 12.382 8.937 12.686 8.844 13.087 8.708 L 13.19 9.029 C 12.828 9.157 12.535 9.24 12.31 9.279 C 12.486 9.602 12.74 9.914 13.072 10.218 L 12.882 10.482 C 12.667 10.394 12.505 10.335 12.397 10.306 C 12.241 10.286 12.099 10.276 11.972 10.276 C 11.61 10.276 11.346 10.33 11.18 10.438 C 11.072 10.517 11.019 10.609 11.019 10.716 C 11.019 10.814 11.072 10.903 11.18 10.981 C 11.376 11.098 11.664 11.157 12.046 11.157 C 12.28 11.157 12.583 11.132 12.954 11.083 L 12.969 11.42 C 12.667 11.46 12.397 11.479 12.163 11.479 C 11.614 11.479 11.215 11.396 10.96 11.23 C 10.775 11.103 10.681 10.932 10.681 10.716 C 10.681 10.521 10.779 10.35 10.974 10.203 C 11.17 10.067 11.487 9.998 11.928 9.998 C 11.966 9.998 12.143 10.008 12.456 10.027 C 12.29 9.842 12.129 9.612 11.972 9.338 C 11.6 9.387 11.312 9.411 11.107 9.411 C 11.048 9.411 10.881 9.401 10.608 9.382 L 10.623 9.045 C 10.877 9.074 11.072 9.089 11.209 9.089 C 11.415 9.089 11.62 9.074 11.825 9.045 C 11.708 8.82 11.625 8.61 11.576 8.414 L 11.943 8.326 C 12.021 8.6 12.099 8.82 12.177 8.986" fill="rgb(0,88,42)"/><path d=" M 18.048 9.573 C 18.048 10.101 18.009 10.482 17.932 10.716 C 17.843 10.962 17.696 11.147 17.491 11.274 C 17.266 11.412 17.027 11.48 16.772 11.48 C 16.459 11.48 16.215 11.392 16.039 11.216 C 15.862 11.05 15.775 10.824 15.775 10.54 C 15.775 10.296 15.839 10.052 15.966 9.807 C 16.103 9.524 16.298 9.241 16.552 8.957 C 16.249 9.045 15.956 9.103 15.672 9.133 L 15.643 8.781 C 16.122 8.761 16.538 8.683 16.889 8.546 L 17.124 8.84 C 16.978 8.966 16.82 9.113 16.655 9.279 C 16.479 9.524 16.351 9.739 16.274 9.925 C 16.175 10.131 16.126 10.321 16.126 10.497 C 16.126 10.692 16.185 10.844 16.303 10.952 C 16.42 11.069 16.586 11.127 16.802 11.127 C 16.997 11.127 17.163 11.079 17.299 10.98 C 17.447 10.873 17.565 10.712 17.651 10.497 C 17.731 10.263 17.769 9.935 17.769 9.514 C 17.769 9.241 17.74 8.966 17.681 8.693 L 18.048 8.605 C 18.156 8.937 18.244 9.201 18.312 9.396 C 18.429 9.661 18.527 9.857 18.605 9.983 C 18.693 10.131 18.805 10.282 18.943 10.439 L 18.634 10.703 C 18.508 10.526 18.406 10.355 18.326 10.189 C 18.229 10.003 18.136 9.798 18.048 9.573 M 18.151 8.517 L 18.326 8.385 C 18.415 8.453 18.537 8.585 18.693 8.781 L 18.489 8.942 C 18.469 8.923 18.356 8.781 18.151 8.517 M 19.031 8.502 L 18.826 8.678 L 18.489 8.253 L 18.678 8.106 C 18.815 8.233 18.932 8.365 19.031 8.502" fill="rgb(0,88,42)"/></g></g></g></svg>