<?xml version="1.0" encoding="UTF-8" standalone="no"?><!-- Generator: Gravit.io --><svg xmlns="http://www.w3.org/2000/svg" xmlns:xlink="http://www.w3.org/1999/xlink" style="isolation:isolate" viewBox="0 0 18.04 22" width="18.04pt" height="22pt"><defs><clipPath id="_clipPath_VlFX2TUMtNZ1r8fL2aJ9WmysE1GB6ghJ"><rect width="18.04" height="22"/></clipPath></defs><g clip-path="url(#_clipPath_VlFX2TUMtNZ1r8fL2aJ9WmysE1GB6ghJ)"><g><path d=" M 10.771 6.556 C 10.791 6.57 10.815 6.578 10.839 6.579 C 10.88 6.582 10.954 6.559 11.021 6.514 C 11.043 6.499 11.063 6.483 11.082 6.465 C 11.123 6.427 11.15 6.389 11.167 6.347 C 11.191 6.289 11.2 6.237 11.183 6.187 C 11.178 6.173 11.171 6.159 11.163 6.147 C 11.116 6.09 11.045 6.096 10.989 6.112 C 10.949 6.126 10.912 6.144 10.877 6.167 C 10.808 6.212 10.744 6.293 10.728 6.353 C 10.722 6.371 10.719 6.391 10.718 6.41 C 10.721 6.463 10.708 6.508 10.771 6.556 Z " fill-rule="evenodd" fill="rgb(240,213,68)"/><path d=" M 8.293 8.59 C 8.261 8.628 8.227 8.666 8.2 8.696 C 8.143 8.759 8.104 8.797 8.055 8.837 C 8.012 8.873 7.969 8.904 7.935 8.922 C 7.874 8.952 7.813 8.975 7.748 8.96 C 7.728 8.953 7.711 8.939 7.701 8.921 C 7.673 8.865 7.699 8.804 7.719 8.746 C 7.743 8.69 7.774 8.64 7.804 8.587 C 8.458 7.767 9.112 6.948 9.766 6.129 L 9.298 6.131 L 7.536 8.457 C 7.478 8.532 7.418 8.605 7.353 8.675 C 7.296 8.737 7.251 8.779 7.199 8.822 C 7.15 8.863 7.104 8.899 7.064 8.919 C 6.998 8.948 6.935 8.973 6.857 8.94 C 6.805 8.894 6.806 8.84 6.822 8.786 C 6.849 8.701 6.908 8.611 6.977 8.528 L 8.149 7.043 L 7.711 7.041 L 6.805 8.288 C 6.683 8.461 6.603 8.629 6.617 8.804 C 6.62 8.831 6.625 8.857 6.633 8.882 C 6.663 8.971 6.738 9.038 6.831 9.056 C 7.023 9.089 7.214 9 7.418 8.769 C 7.445 8.737 7.472 8.707 7.5 8.676 C 7.484 8.772 7.453 8.864 7.519 8.969 C 7.568 9.037 7.623 9.052 7.681 9.068 C 7.803 9.098 7.936 9.054 8.067 8.948 C 8.177 8.867 8.288 8.756 8.378 8.651 C 8.364 8.712 8.361 8.775 8.369 8.838 C 8.373 8.867 8.378 8.879 8.383 8.898 C 8.388 8.915 8.402 8.948 8.429 8.98 C 8.463 9.02 8.502 9.039 8.544 9.051 C 8.617 9.071 8.702 9.068 8.775 9.041 C 8.866 9.008 8.95 8.957 9.02 8.89 C 9.096 8.816 9.168 8.737 9.235 8.655 C 9.219 8.759 9.184 8.855 9.254 8.969 C 9.267 8.988 9.284 9.006 9.303 9.02 C 9.367 9.067 9.452 9.078 9.533 9.065 C 9.62 9.05 9.735 8.987 9.846 8.904 C 9.882 8.877 9.916 8.848 9.946 8.821 C 10.007 8.765 10.051 8.716 10.095 8.662 C 10.078 8.767 10.081 8.875 10.146 8.984 C 10.158 9.005 10.184 9.031 10.208 9.042 C 10.252 9.063 10.3 9.072 10.347 9.071 C 10.423 9.068 10.54 9.027 10.649 8.953 C 10.758 8.877 10.845 8.777 10.942 8.687 C 10.925 8.792 10.896 8.896 10.988 9.01 C 11.039 9.068 11.098 9.07 11.155 9.072 C 11.233 9.073 11.314 9.047 11.392 8.999 C 11.42 8.982 11.469 8.943 11.52 8.895 C 11.548 8.868 11.575 8.839 11.595 8.818 C 11.633 8.777 11.649 8.757 11.673 8.727 L 12.816 7.332 C 12.845 7.296 12.878 7.26 12.916 7.225 C 12.965 7.181 13.005 7.151 13.044 7.136 C 13.09 7.119 13.135 7.099 13.19 7.147 C 13.239 7.197 13.225 7.261 13.212 7.32 C 13.184 7.414 13.095 7.508 13.029 7.598 C 12.643 8.083 12.256 8.568 11.87 9.053 C 12.018 9.052 12.165 9.052 12.312 9.051 L 13.348 7.675 C 13.436 7.561 13.532 7.464 13.642 7.354 C 13.734 7.264 13.827 7.185 13.923 7.13 C 13.946 7.116 13.972 7.109 13.998 7.11 C 14.025 7.112 14.049 7.113 14.072 7.138 C 14.086 7.156 14.091 7.176 14.092 7.196 C 14.093 7.231 14.075 7.307 14.039 7.369 C 14.004 7.428 13.965 7.486 13.922 7.542 L 12.724 9.05 C 12.866 9.051 13.007 9.053 13.148 9.054 C 13.515 8.575 13.882 8.096 14.251 7.617 C 14.264 7.6 14.292 7.569 14.32 7.534 C 14.37 7.473 14.426 7.396 14.506 7.321 C 14.551 7.28 14.594 7.244 14.629 7.222 C 14.686 7.189 14.742 7.155 14.801 7.162 C 14.824 7.166 14.844 7.167 14.861 7.19 C 14.869 7.204 14.874 7.219 14.875 7.235 C 14.876 7.246 14.872 7.274 14.865 7.304 C 14.861 7.322 14.855 7.339 14.848 7.355 C 14.832 7.391 14.798 7.442 14.759 7.497 C 14.615 7.687 14.464 7.871 14.317 8.057 C 14.303 8.076 14.289 8.094 14.276 8.113 C 14.235 8.17 14.197 8.229 14.163 8.29 C 14.14 8.331 14.119 8.373 14.102 8.406 C 14.068 8.473 14.05 8.514 14.033 8.568 C 14.001 8.67 13.983 8.777 14.028 8.891 C 14.039 8.914 14.053 8.935 14.069 8.954 C 14.132 9.024 14.215 9.05 14.296 9.062 C 14.326 9.066 14.357 9.067 14.379 9.066 C 14.421 9.065 14.44 9.061 14.469 9.054 C 14.483 9.05 14.496 9.046 14.52 9.037 C 14.586 9.01 14.649 8.978 14.709 8.939 C 14.798 8.88 14.898 8.793 14.998 8.675 C 15.028 8.639 15.056 8.602 15.1 8.539 C 15.143 8.477 15.202 8.388 15.258 8.298 C 15.429 8.018 15.55 7.748 15.623 7.475 C 15.649 7.381 15.669 7.286 15.682 7.217 C 15.695 7.148 15.701 7.105 15.706 7.063 C 15.721 6.934 15.727 6.806 15.711 6.677 C 15.697 6.562 15.673 6.458 15.629 6.356 C 15.616 6.326 15.602 6.297 15.587 6.268 C 15.549 6.197 15.498 6.133 15.438 6.079 C 15.409 6.054 15.379 6.029 15.348 6.007 C 15.201 5.902 15.047 5.861 14.892 5.858 C 14.768 5.858 14.622 5.877 14.479 5.934 C 14.436 5.951 14.395 5.971 14.354 5.993 C 14.328 6.007 14.302 6.023 14.277 6.04 C 14.222 6.076 14.156 6.136 14.122 6.193 C 14.051 6.314 14.008 6.457 14.052 6.601 C 14.062 6.63 14.078 6.658 14.097 6.682 C 14.116 6.705 14.139 6.726 14.156 6.739 C 14.187 6.763 14.198 6.765 14.218 6.773 C 14.253 6.786 14.305 6.795 14.354 6.799 C 14.408 6.804 14.473 6.801 14.536 6.776 C 14.557 6.768 14.576 6.758 14.608 6.735 C 14.639 6.713 14.682 6.678 14.719 6.638 C 14.757 6.597 14.788 6.551 14.813 6.502 C 14.838 6.453 14.856 6.4 14.868 6.346 L 14.846 6.336 C 14.815 6.403 14.775 6.466 14.727 6.522 C 14.677 6.578 14.615 6.623 14.546 6.653 C 14.514 6.666 14.482 6.677 14.449 6.685 C 14.414 6.695 14.378 6.699 14.342 6.696 C 14.303 6.694 14.267 6.688 14.233 6.663 C 14.223 6.656 14.213 6.647 14.205 6.636 C 14.175 6.601 14.155 6.56 14.146 6.515 C 14.128 6.423 14.155 6.301 14.239 6.199 C 14.287 6.142 14.345 6.095 14.41 6.059 C 14.596 5.964 14.804 5.933 15.009 5.975 C 15.109 5.999 15.208 6.037 15.307 6.12 C 15.349 6.155 15.385 6.196 15.414 6.241 C 15.456 6.306 15.502 6.398 15.527 6.481 C 15.552 6.564 15.566 6.646 15.573 6.722 C 15.576 6.757 15.578 6.793 15.579 6.838 C 15.581 6.93 15.576 7.048 15.563 7.154 C 15.557 7.208 15.549 7.262 15.535 7.326 C 15.505 7.47 15.464 7.612 15.414 7.751 C 15.388 7.822 15.36 7.892 15.323 7.973 C 15.285 8.054 15.238 8.146 15.187 8.236 C 15.14 8.317 15.09 8.396 15.038 8.474 C 14.998 8.534 14.972 8.569 14.946 8.602 C 14.92 8.636 14.892 8.669 14.866 8.698 C 14.796 8.778 14.712 8.844 14.618 8.894 C 14.538 8.938 14.447 8.956 14.356 8.945 C 14.339 8.944 14.321 8.94 14.305 8.932 C 14.221 8.884 14.233 8.807 14.251 8.741 C 14.259 8.714 14.278 8.68 14.3 8.644 C 14.312 8.624 14.325 8.606 14.381 8.529 C 14.438 8.452 14.54 8.32 14.638 8.185 C 14.774 8.004 14.895 7.812 14.999 7.611 C 15.023 7.561 15.045 7.513 15.058 7.473 C 15.095 7.357 15.113 7.242 15.037 7.117 C 15.005 7.076 14.972 7.064 14.937 7.051 C 14.871 7.027 14.798 7.035 14.728 7.059 C 14.702 7.068 14.66 7.089 14.614 7.115 C 14.588 7.13 14.563 7.145 14.538 7.162 C 14.487 7.197 14.419 7.253 14.347 7.32 C 14.308 7.356 14.271 7.394 14.235 7.433 C 14.251 7.364 14.259 7.293 14.259 7.221 C 14.257 7.173 14.256 7.144 14.237 7.104 C 14.219 7.071 14.192 7.043 14.158 7.025 C 14.146 7.018 14.112 7.01 14.077 7.006 C 13.983 6.996 13.886 7.043 13.79 7.096 C 13.688 7.158 13.577 7.248 13.472 7.361 C 13.439 7.395 13.408 7.43 13.377 7.465 C 13.404 7.373 13.419 7.281 13.407 7.186 C 13.399 7.142 13.38 7.101 13.352 7.065 C 13.243 6.96 13.114 6.991 12.989 7.05 C 12.93 7.081 12.876 7.121 12.82 7.177 C 12.384 7.698 11.961 8.227 11.522 8.753 C 11.498 8.784 11.47 8.814 11.44 8.84 C 11.419 8.859 11.396 8.876 11.371 8.89 C 11.33 8.912 11.295 8.927 11.248 8.917 C 11.229 8.912 11.213 8.907 11.198 8.892 C 11.165 8.853 11.172 8.811 11.181 8.768 C 11.192 8.726 11.204 8.703 11.222 8.663 C 11.234 8.639 11.244 8.617 11.255 8.599 C 11.259 8.593 11.263 8.587 11.467 8.326 C 11.671 8.064 12.075 7.548 12.478 7.032 L 12.138 7.038 L 12.07 7.039 L 11.925 7.225 C 11.936 7.176 11.94 7.122 11.883 7.065 C 11.85 7.033 11.792 7.016 11.754 7.013 C 11.74 7.012 11.727 7.012 11.713 7.013 C 11.665 7.015 11.58 7.025 11.511 7.044 C 11.47 7.055 11.429 7.069 11.39 7.085 C 11.288 7.125 11.137 7.197 11.012 7.284 C 10.891 7.366 10.762 7.479 10.632 7.623 C 10.567 7.694 10.507 7.768 10.451 7.845 C 10.395 7.923 10.344 8.004 10.308 8.064 C 10.279 8.111 10.253 8.158 10.227 8.206 C 10.166 8.322 10.111 8.442 10.026 8.559 C 9.999 8.596 9.972 8.631 9.944 8.664 C 9.886 8.733 9.829 8.786 9.768 8.832 C 9.739 8.855 9.708 8.875 9.677 8.894 C 9.626 8.925 9.598 8.932 9.558 8.938 C 9.541 8.94 9.523 8.941 9.506 8.94 C 9.482 8.94 9.458 8.934 9.437 8.922 C 9.426 8.916 9.418 8.908 9.412 8.897 C 9.401 8.876 9.398 8.829 9.409 8.787 C 9.431 8.718 9.494 8.614 9.567 8.522 L 10.738 7.038 L 10.323 7.038 C 9.938 7.548 9.556 8.057 9.168 8.568 C 9.16 8.578 9.151 8.588 9.134 8.607 C 9.089 8.656 9.044 8.705 8.998 8.753 C 8.915 8.839 8.845 8.889 8.769 8.925 C 8.722 8.944 8.651 8.952 8.6 8.928 C 8.591 8.923 8.582 8.918 8.573 8.913 C 8.551 8.894 8.555 8.892 8.55 8.879 C 8.545 8.86 8.543 8.839 8.545 8.819 C 8.552 8.759 8.593 8.653 8.661 8.57 C 9.322 7.753 9.979 6.938 10.638 6.122 L 10.153 6.122 L 8.387 8.472 C 8.357 8.512 8.326 8.551 8.293 8.59 L 8.293 8.59 Z  M 10.294 8.797 C 10.296 8.78 10.3 8.763 10.305 8.747 C 10.31 8.731 10.316 8.715 10.329 8.682 C 10.342 8.649 10.363 8.6 10.386 8.552 C 10.409 8.504 10.434 8.457 10.476 8.388 C 10.518 8.319 10.577 8.228 10.639 8.14 C 10.699 8.057 10.761 7.976 10.825 7.896 C 10.88 7.827 10.926 7.773 10.971 7.72 C 11.015 7.669 11.059 7.618 11.104 7.568 C 11.145 7.522 11.182 7.482 11.22 7.445 C 11.258 7.407 11.298 7.37 11.331 7.342 C 11.382 7.295 11.438 7.253 11.497 7.216 C 11.525 7.198 11.554 7.182 11.575 7.17 C 11.616 7.148 11.637 7.142 11.667 7.134 C 11.711 7.126 11.746 7.114 11.789 7.158 C 11.828 7.215 11.811 7.258 11.797 7.315 C 11.78 7.371 11.731 7.465 11.682 7.543 C 11.668 7.566 11.654 7.589 11.629 7.628 C 11.562 7.734 11.489 7.835 11.409 7.932 L 11.022 8.447 C 10.996 8.482 10.968 8.515 10.937 8.547 C 10.915 8.57 10.883 8.602 10.852 8.635 C 10.759 8.731 10.683 8.802 10.603 8.851 C 10.51 8.905 10.418 8.966 10.319 8.936 C 10.282 8.911 10.29 8.878 10.289 8.848 C 10.289 8.831 10.291 8.814 10.294 8.797 L 10.294 8.797 Z " fill-rule="evenodd" fill="rgb(240,213,68)"/><path d=" M 15.661 9.637 C 15.563 9.637 15.485 9.637 15.485 9.637 L 5.075 9.652 C 4.937 9.652 4.8 9.649 4.686 9.649 C 4.573 9.648 4.482 9.649 4.415 9.649 C 4.348 9.65 4.306 9.65 4.263 9.648 C 4.179 9.646 4.096 9.639 4.015 9.626 C 3.975 9.62 3.935 9.613 3.866 9.592 C 3.796 9.571 3.697 9.537 3.603 9.492 C 3.508 9.447 3.419 9.392 3.337 9.327 C 3.255 9.262 3.18 9.189 3.126 9.128 C 3.072 9.068 3.039 9.021 3.009 8.972 C 2.869 8.758 2.809 8.542 2.763 8.333 C 2.659 8.279 2.568 8.202 2.497 8.109 C 2.464 8.065 2.435 8.019 2.411 7.97 C 2.333 7.813 2.316 7.658 2.32 7.507 C 2.327 7.346 2.371 7.167 2.43 7.012 C 2.49 6.853 2.593 6.675 2.694 6.528 C 2.727 6.481 2.758 6.44 2.79 6.401 C 2.859 6.318 2.934 6.24 3.017 6.171 C 3.145 6.061 3.282 5.963 3.427 5.877 C 3.51 5.829 3.603 5.779 3.698 5.733 C 3.89 5.639 4.09 5.563 4.295 5.506 C 4.403 5.475 4.519 5.448 4.636 5.426 C 4.867 5.382 5.125 5.364 5.325 5.363 C 5.411 5.362 5.497 5.364 5.583 5.368 C 5.666 5.371 5.749 5.377 5.831 5.386 C 6.125 5.416 6.414 5.488 6.688 5.6 C 6.771 5.634 6.853 5.672 6.933 5.714 C 7.089 5.796 7.237 5.894 7.375 6.004 L 7.349 6.031 C 7.163 5.893 6.978 5.806 6.79 5.734 C 6.739 5.714 6.687 5.695 6.622 5.672 C 6.557 5.649 6.479 5.624 6.4 5.602 C 6.133 5.528 5.867 5.501 5.603 5.497 C 5.334 5.5 5.063 5.526 4.796 5.584 C 4.563 5.639 4.334 5.707 4.109 5.787 C 4.01 5.823 3.928 5.857 3.848 5.895 C 3.693 5.97 3.549 6.056 3.389 6.175 C 3.229 6.294 3.077 6.424 2.935 6.563 C 2.879 6.618 2.845 6.657 2.812 6.696 C 2.744 6.78 2.685 6.866 2.635 6.955 C 2.581 7.052 2.537 7.147 2.506 7.253 C 2.49 7.308 2.477 7.368 2.47 7.429 C 2.453 7.585 2.468 7.74 2.526 7.89 C 2.551 7.951 2.584 8.008 2.624 8.06 C 2.64 8.081 2.653 8.095 2.666 8.109 C 2.693 8.136 2.724 8.16 2.756 8.18 C 2.744 8.016 2.756 7.851 2.793 7.69 C 2.817 7.575 2.864 7.445 2.904 7.351 C 2.923 7.307 2.938 7.275 2.953 7.243 C 2.968 7.212 2.983 7.18 2.999 7.148 C 3.033 7.079 3.072 7.012 3.115 6.948 C 3.142 6.909 3.175 6.862 3.211 6.818 C 3.248 6.773 3.286 6.731 3.327 6.69 C 3.398 6.62 3.476 6.556 3.558 6.498 C 3.734 6.368 3.907 6.27 4.086 6.233 C 4.153 6.22 4.214 6.212 4.257 6.215 C 4.296 6.216 4.334 6.222 4.371 6.233 C 4.433 6.191 4.5 6.156 4.57 6.129 C 4.617 6.109 4.681 6.086 4.745 6.064 C 5.017 5.977 5.298 5.945 5.561 6.005 C 5.624 6.019 5.685 6.037 5.745 6.057 C 5.793 6.074 5.823 6.087 5.852 6.101 C 5.909 6.129 5.965 6.162 6.017 6.2 C 6.042 6.18 6.069 6.161 6.096 6.143 C 6.177 6.093 6.264 6.055 6.318 6.043 C 6.356 6.035 6.395 6.033 6.433 6.036 C 6.454 6.039 6.473 6.048 6.488 6.063 C 6.525 6.115 6.515 6.152 6.454 6.204 C 6.407 6.245 6.36 6.263 6.316 6.279 C 6.282 6.29 6.247 6.299 6.211 6.305 C 6.186 6.31 6.153 6.315 6.12 6.319 C 6.086 6.322 6.052 6.325 6.019 6.326 C 5.983 6.365 5.95 6.407 5.921 6.451 C 5.898 6.484 5.867 6.531 5.837 6.579 C 5.807 6.627 5.779 6.676 5.743 6.74 C 5.708 6.803 5.665 6.88 5.622 6.956 C 5.578 7.033 5.534 7.109 5.501 7.168 C 5.468 7.226 5.446 7.267 5.424 7.308 C 5.403 7.349 5.382 7.39 5.309 7.534 C 5.235 7.678 5.108 7.925 5.029 8.076 C 4.95 8.226 4.92 8.279 4.885 8.336 C 4.815 8.451 4.729 8.575 4.643 8.674 C 4.554 8.784 4.458 8.857 4.368 8.937 C 4.389 8.941 4.404 8.942 4.429 8.939 C 4.485 8.932 4.528 8.926 4.574 8.908 C 4.703 8.852 4.821 8.775 4.949 8.642 C 4.985 8.605 5.021 8.564 5.057 8.521 C 5.092 8.479 5.126 8.435 5.179 8.362 C 5.245 8.27 5.309 8.177 5.37 8.082 C 5.445 7.965 5.517 7.847 5.586 7.727 C 5.67 7.584 5.772 7.404 5.834 7.295 C 5.869 7.233 5.905 7.172 5.941 7.111 C 5.963 7.074 5.985 7.037 6.015 6.99 C 6.044 6.944 6.079 6.889 6.117 6.836 C 6.306 6.57 6.541 6.34 6.809 6.155 C 6.858 6.122 6.911 6.097 6.968 6.08 C 6.977 6.077 6.987 6.076 6.997 6.075 C 7.006 6.076 7.017 6.089 7.015 6.095 C 7.007 6.114 6.983 6.132 6.969 6.152 C 6.946 6.181 6.933 6.199 6.906 6.244 C 6.892 6.269 6.872 6.303 6.853 6.339 C 6.834 6.374 6.817 6.411 6.801 6.447 L 6.625 6.868 C 6.572 6.995 6.531 7.103 6.472 7.255 C 6.442 7.333 6.404 7.428 6.365 7.522 C 6.326 7.615 6.286 7.709 6.249 7.792 C 6.212 7.875 6.179 7.948 6.143 8.021 C 6.108 8.093 6.07 8.165 6.041 8.217 C 6.012 8.269 5.992 8.301 5.97 8.333 C 5.949 8.364 5.926 8.395 5.892 8.438 C 5.811 8.54 5.726 8.64 5.638 8.736 C 5.601 8.776 5.575 8.803 5.547 8.829 C 5.49 8.883 5.432 8.931 5.373 8.972 C 5.5 9.015 5.623 8.948 5.742 8.866 C 5.773 8.842 5.802 8.816 5.83 8.789 C 5.87 8.752 5.923 8.698 5.975 8.642 C 6.062 8.546 6.145 8.446 6.222 8.341 C 6.259 8.293 6.294 8.244 6.329 8.195 C 6.372 8.136 6.425 8.06 6.478 7.985 C 6.638 7.752 6.802 7.521 6.963 7.29 C 7.068 7.141 7.176 6.995 7.288 6.851 C 7.389 6.72 7.479 6.612 7.574 6.508 C 7.669 6.404 7.769 6.305 7.844 6.235 C 7.919 6.166 7.969 6.127 8.02 6.089 C 8.072 6.051 8.124 6.014 8.177 5.98 C 8.481 5.784 8.788 5.673 9.091 5.672 C 9.221 5.67 9.366 5.7 9.473 5.737 C 9.517 5.752 9.56 5.769 9.602 5.79 C 9.708 5.842 9.817 5.904 9.917 6.003 C 9.949 6.034 9.981 6.066 9.994 6.084 C 10.006 6.102 9.998 6.106 9.991 6.111 C 9.965 6.089 9.944 6.074 9.909 6.052 C 9.89 6.04 9.866 6.026 9.842 6.012 C 9.79 5.981 9.733 5.949 9.672 5.92 C 9.614 5.893 9.554 5.871 9.492 5.853 C 9.437 5.838 9.391 5.829 9.323 5.823 C 9.24 5.815 9.157 5.814 9.075 5.818 C 9.04 5.82 9.013 5.823 8.987 5.826 C 8.933 5.834 8.895 5.84 8.819 5.862 C 8.78 5.874 8.727 5.891 8.675 5.911 C 8.541 5.963 8.412 6.028 8.29 6.105 C 8.232 6.142 8.177 6.184 8.125 6.23 C 8.092 6.26 8.05 6.299 8.009 6.339 C 7.968 6.379 7.928 6.42 7.85 6.508 C 7.746 6.626 7.643 6.746 7.543 6.868 C 7.43 7.005 7.321 7.145 7.148 7.374 C 6.974 7.603 6.736 7.92 6.581 8.123 C 6.426 8.326 6.355 8.414 6.282 8.501 C 6.209 8.587 6.133 8.671 6.081 8.727 C 6.03 8.783 6.002 8.81 5.974 8.836 C 5.917 8.887 5.856 8.933 5.79 8.972 C 5.672 9.045 5.531 9.067 5.433 9.058 C 5.41 9.056 5.387 9.053 5.365 9.05 C 5.344 9.037 5.318 9.034 5.295 9.041 C 5.269 9.048 5.242 9.066 5.213 9.079 C 5.154 9.107 5.079 9.108 5.039 9.106 C 5.026 9.106 5.014 9.105 5.001 9.101 C 4.985 9.097 4.967 9.09 4.953 9.082 C 4.91 9.059 4.891 9.012 4.898 8.989 C 4.9 8.98 4.912 8.967 4.928 8.953 C 4.945 8.938 4.965 8.927 4.986 8.921 C 5.003 8.915 5.021 8.91 5.039 8.907 C 5.119 8.892 5.2 8.908 5.279 8.921 C 5.355 8.843 5.421 8.756 5.474 8.661 C 5.515 8.59 5.561 8.504 5.589 8.452 C 5.604 8.425 5.613 8.408 5.622 8.391 C 5.694 8.239 5.763 8.089 5.833 7.939 C 5.848 7.905 5.855 7.892 5.88 7.833 C 5.893 7.801 5.914 7.752 5.934 7.703 C 5.954 7.654 5.974 7.605 6.016 7.501 C 6.059 7.397 6.124 7.238 6.164 7.144 C 6.204 7.05 6.218 7.02 6.232 6.99 L 6.275 6.9 C 6.288 6.862 6.325 6.823 6.341 6.783 C 6.29 6.819 6.245 6.862 6.208 6.912 C 6.159 6.974 6.113 7.038 6.068 7.104 C 6.032 7.156 5.981 7.232 5.932 7.309 C 5.875 7.399 5.82 7.49 5.766 7.582 C 5.696 7.7 5.603 7.858 5.546 7.955 C 5.513 8.012 5.48 8.068 5.445 8.124 C 5.423 8.159 5.401 8.195 5.366 8.246 C 5.332 8.296 5.285 8.362 5.236 8.427 C 5.187 8.491 5.136 8.554 5.099 8.598 C 5.062 8.642 5.04 8.667 5.017 8.691 C 4.968 8.743 4.916 8.79 4.86 8.833 C 4.76 8.908 4.662 8.965 4.554 8.994 C 4.474 9.015 4.391 9.019 4.309 9.007 C 4.283 9.02 4.273 9.026 4.226 9.048 C 4.201 9.059 4.163 9.076 4.124 9.093 C 4.082 9.099 4.039 9.106 3.998 9.102 C 3.957 9.098 3.917 9.083 3.876 9.068 C 3.85 9.048 3.846 9.03 3.842 9.007 C 3.841 8.983 3.842 8.965 3.873 8.938 C 3.883 8.929 3.9 8.916 3.917 8.907 C 3.935 8.897 3.954 8.89 3.974 8.885 C 4.061 8.869 4.145 8.882 4.229 8.898 C 4.248 8.886 4.265 8.872 4.282 8.857 C 4.344 8.803 4.374 8.749 4.411 8.694 C 4.425 8.673 4.438 8.651 4.462 8.608 C 4.487 8.565 4.521 8.5 4.554 8.435 C 4.617 8.309 4.669 8.188 4.718 8.082 C 4.742 8.031 4.767 7.981 4.844 7.821 C 4.921 7.662 5.052 7.394 5.133 7.231 C 5.215 7.068 5.247 7.01 5.281 6.953 C 5.348 6.844 5.423 6.733 5.514 6.63 C 5.591 6.546 5.664 6.458 5.754 6.388 C 5.798 6.351 5.844 6.318 5.89 6.284 C 5.732 6.194 5.582 6.194 5.429 6.192 C 5.348 6.194 5.266 6.202 5.186 6.217 C 5.125 6.228 5.065 6.242 5.005 6.257 C 4.878 6.291 4.753 6.338 4.631 6.398 C 4.667 6.417 4.698 6.444 4.723 6.477 C 4.785 6.558 4.808 6.626 4.817 6.717 C 4.821 6.757 4.822 6.797 4.822 6.838 C 4.821 6.926 4.815 7 4.795 7.104 C 4.758 7.291 4.699 7.473 4.618 7.646 C 4.592 7.701 4.567 7.751 4.538 7.799 C 4.483 7.897 4.419 7.989 4.347 8.075 C 4.312 8.116 4.274 8.154 4.233 8.19 C 4.193 8.225 4.149 8.256 4.103 8.283 C 4.057 8.31 4.008 8.333 3.973 8.347 C 3.938 8.362 3.916 8.368 3.894 8.374 C 3.848 8.385 3.811 8.394 3.753 8.395 C 3.722 8.395 3.685 8.393 3.648 8.386 C 3.611 8.379 3.574 8.368 3.54 8.351 C 3.506 8.333 3.474 8.31 3.454 8.303 C 3.434 8.296 3.425 8.306 3.416 8.313 C 3.407 8.321 3.398 8.326 3.388 8.331 C 3.24 8.399 3.075 8.418 2.915 8.386 C 2.922 8.42 2.93 8.455 2.939 8.489 C 2.959 8.561 2.985 8.632 3.017 8.7 C 3.037 8.746 3.065 8.804 3.097 8.86 C 3.13 8.916 3.166 8.969 3.206 9.02 C 3.25 9.078 3.3 9.132 3.356 9.18 C 3.436 9.251 3.523 9.314 3.616 9.367 C 3.716 9.424 3.824 9.466 3.937 9.493 C 4.049 9.519 4.164 9.529 4.257 9.534 C 4.35 9.538 4.42 9.537 4.491 9.537 L 4.491 9.537 C 10.716 9.534 9.449 9.537 15.661 9.537 L 15.661 9.637 L 15.661 9.637 Z  M 4.293 6.559 C 4.365 6.515 4.44 6.475 4.517 6.441 C 4.551 6.453 4.585 6.474 4.613 6.507 C 4.641 6.54 4.656 6.577 4.667 6.608 C 4.731 6.861 4.68 7.128 4.6 7.354 C 4.543 7.528 4.469 7.7 4.351 7.863 C 4.309 7.923 4.262 7.98 4.228 8.019 C 4.194 8.058 4.172 8.08 4.15 8.1 C 4.032 8.208 3.91 8.264 3.792 8.275 C 3.718 8.28 3.642 8.283 3.571 8.241 L 3.742 8.081 C 3.796 8.024 3.845 7.964 3.89 7.9 C 3.935 7.836 3.976 7.769 4.006 7.716 C 4.037 7.662 4.057 7.621 4.076 7.58 C 4.113 7.501 4.144 7.42 4.17 7.337 C 4.18 7.305 4.185 7.284 4.19 7.262 C 4.196 7.24 4.201 7.217 4.197 7.203 C 4.194 7.189 4.182 7.184 4.173 7.187 C 4.136 7.318 4.073 7.446 3.993 7.579 C 3.904 7.739 3.793 7.886 3.664 8.016 C 3.631 8.049 3.596 8.08 3.559 8.108 C 3.532 8.128 3.503 8.147 3.472 8.162 C 3.436 8.107 3.41 8.047 3.393 7.983 C 3.348 7.801 3.386 7.625 3.459 7.454 C 3.493 7.373 3.536 7.296 3.587 7.225 C 3.619 7.178 3.662 7.12 3.708 7.064 C 3.754 7.008 3.803 6.955 3.854 6.904 C 3.907 6.855 3.96 6.806 4.015 6.76 C 4.106 6.686 4.201 6.614 4.293 6.559 L 4.293 6.559 Z  M 2.89 8.146 C 2.884 8.065 2.886 7.984 2.896 7.904 C 2.901 7.853 2.911 7.79 2.923 7.727 C 2.959 7.55 3.025 7.373 3.109 7.211 C 3.159 7.115 3.218 7.016 3.281 6.928 C 3.311 6.886 3.341 6.848 3.373 6.811 C 3.464 6.708 3.566 6.617 3.679 6.54 C 3.764 6.481 3.854 6.43 3.949 6.388 C 3.993 6.369 4.039 6.354 4.086 6.343 C 4.132 6.334 4.18 6.331 4.226 6.335 C 4.165 6.376 4.105 6.419 4.047 6.465 C 3.956 6.537 3.87 6.613 3.787 6.694 C 3.757 6.722 3.727 6.751 3.695 6.784 C 3.66 6.82 3.626 6.857 3.594 6.895 C 3.561 6.934 3.529 6.975 3.499 7.017 C 3.451 7.084 3.407 7.155 3.368 7.228 C 3.344 7.272 3.324 7.317 3.306 7.364 C 3.284 7.422 3.271 7.484 3.257 7.557 C 3.252 7.586 3.247 7.615 3.244 7.639 C 3.235 7.7 3.234 7.763 3.243 7.824 C 3.247 7.849 3.252 7.881 3.258 7.912 C 3.271 7.972 3.291 8.041 3.308 8.087 C 3.322 8.132 3.343 8.174 3.37 8.213 C 3.335 8.234 3.299 8.251 3.261 8.264 C 3.139 8.302 3.017 8.32 2.902 8.26 C 2.896 8.223 2.892 8.184 2.89 8.146 L 2.89 8.146 Z " fill-rule="evenodd" fill="rgb(240,213,68)"/><path d=" M 8.379 6.579 C 8.419 6.582 8.494 6.559 8.561 6.514 C 8.583 6.499 8.603 6.483 8.622 6.465 C 8.663 6.427 8.69 6.389 8.707 6.347 C 8.731 6.289 8.74 6.237 8.723 6.187 C 8.718 6.173 8.711 6.159 8.703 6.147 C 8.656 6.09 8.585 6.096 8.528 6.113 C 8.489 6.126 8.452 6.144 8.417 6.167 C 8.348 6.213 8.284 6.293 8.268 6.353 C 8.262 6.372 8.259 6.391 8.258 6.41 C 8.261 6.463 8.248 6.508 8.31 6.556 C 8.331 6.57 8.355 6.578 8.379 6.579 L 8.379 6.579 Z " fill-rule="evenodd" fill="rgb(240,213,68)"/><path d=" M 11.059 13.521 L 12.604 13.521 L 12.605 12.537 L 11.981 12.538 L 11.981 10.354 L 11.059 10.354 L 11.059 13.521 Z  M 7.695 10.35 L 6.773 10.352 L 6.775 11.466 L 6.362 11.468 L 6.362 10.352 L 5.435 10.352 L 5.435 13.519 L 6.367 13.52 L 6.366 12.26 L 6.778 12.262 L 6.778 13.52 L 7.695 13.52 L 7.695 10.35 Z  M 9.382 13.519 L 10.913 13.519 L 10.913 12.542 L 10.307 12.54 L 10.308 10.353 L 9.382 10.353 L 9.382 13.519 L 9.382 13.519 Z  M 8.98 10.353 L 8.073 10.353 L 8.073 13.519 L 8.98 13.519 L 8.98 10.353 L 8.98 10.353 Z " fill-rule="evenodd" fill="rgb(255,255,255)"/></g></g></svg>