<?xml version="1.0" encoding="UTF-8" standalone="no"?>
<!-- Optional parameter: fillColor -->
<svg xmlns="http://www.w3.org/2000/svg" xmlns:xlink="http://www.w3.org/1999/xlink" style="isolation:isolate" viewBox="0 0 24 24" width="24pt" height="24pt"><defs><clipPath id="_clipPath_VzHgaioZSmVBF2a9nB72ngXXwICEYv6h"><rect width="24" height="24"/></clipPath></defs><g clip-path="url(#_clipPath_VzHgaioZSmVBF2a9nB72ngXXwICEYv6h)"><clipPath id="_clipPath_aj3CoMylcXkAldKjE2m9aUVAUB2sZvYJ"><rect x="0.072" y="0.072" width="23.874" height="23.874" transform="matrix(1,0,0,1,0,0)" fill="rgb(255,255,255)"/></clipPath><g clip-path="url(#_clipPath_aj3CoMylcXkAldKjE2m9aUVAUB2sZvYJ)"><g><g><path d=" M 1.964 12.387 L 11.77 2.581 C 11.824 2.525 11.916 2.525 11.969 2.581 L 21.775 12.387 C 21.831 12.441 21.831 12.532 21.775 12.586 L 11.969 22.392 C 11.916 22.448 11.824 22.448 11.77 22.392 L 1.964 12.586 C 1.908 12.532 1.908 12.441 1.964 12.387 Z " fill="rgb(232,232,232)"/><path d=" M 2.004 11.87 L 11.81 2.064 C 11.864 2.008 11.955 2.008 12.009 2.064 L 21.815 11.87 C 21.871 11.923 21.871 12.015 21.815 12.069 L 12.009 21.875 C 11.955 21.931 11.864 21.931 11.81 21.875 L 2.004 12.069 C 1.948 12.015 1.948 11.923 2.004 11.87 Z " fill="fillColor"/></g></g></g></g></svg>