<?xml version="1.0" encoding="UTF-8" standalone="no"?>
<!-- Optional parameter: fillColor -->
<svg xmlns="http://www.w3.org/2000/svg" xmlns:xlink="http://www.w3.org/1999/xlink" style="isolation:isolate" viewBox="0 0 12 12" width="12pt" height="12pt"><defs><clipPath id="_clipPath_2we6F3ANlgKWTK2XkVCo1UNvLP6RRiox"><rect width="12" height="12"/></clipPath></defs><g clip-path="url(#_clipPath_2we6F3ANlgKWTK2XkVCo1UNvLP6RRiox)"><g><path d=" M 11.529 10.435 L 6.193 10.435 L 0.856 10.435 C 0.765 10.435 0.728 10.371 0.774 10.292 L 3.442 5.671 L 6.11 1.049 C 6.156 0.971 6.23 0.971 6.275 1.049 L 8.943 5.671 L 11.611 10.292 C 11.657 10.371 11.62 10.435 11.529 10.435 Z " fill="rgb(232,232,232)" fill-opacity="0.8"/><path d=" M 11.219 10.269 L 5.883 10.269 L 0.547 10.269 C 0.456 10.269 0.419 10.205 0.464 10.126 L 3.132 5.504 L 5.801 0.883 C 5.846 0.804 5.92 0.804 5.966 0.883 L 8.634 5.504 L 11.302 10.126 C 11.347 10.205 11.311 10.269 11.219 10.269 Z " fill="fillColor"/></g></g></svg>