<svg xmlns="http://www.w3.org/2000/svg" width="24" height="24"><path fill="#FFFFFF" fill-rule="evenodd" d="M14.61 3.45c-.7.8-.09 1.89.96 1.72.57-.1.78-.37.78-1.03 0-.49-.04-.59-.28-.8a1 1 0 0 0-.72-.24c-.37 0-.47.05-.74.35M4.75 3.4c-.9.4-1.4 1.2-1.4 2.23.01.55.06.73.28 1.06l.26.4-.4.6a2.6 2.6 0 0 0 .8 3.8c.5.29.63.32 1.33.32.9 0 1.35-.18 1.92-.76.54-.56.7-.98.7-1.84 0-.8-.14-1.21-.62-1.73-.24-.25-.25-.3-.12-.5l.27-.47c.15-.3.17-1.47.03-1.84-.15-.4-.88-1.14-1.2-1.21-.17-.04-.32-.1-.35-.16-.1-.15-1.08-.09-1.5.1m12.87.22c-.75.38-1.22 1.33-1.02 2.07a2 2 0 0 0 1.98 1.54c.63 0 1.2-.33 1.6-.91.35-.53.3-.71-.18-.71-.34 0-.46.06-.71.35-.27.3-.37.35-.76.35-.37 0-.5-.05-.74-.31q-.52-.56-.1-1.26c.34-.55 1.23-.56 1.63-.02.18.24.29.29.65.29.32 0 .43-.04.43-.15 0-.42-.62-1.15-1.13-1.34a2.3 2.3 0 0 0-1.65.1m-8.56.05c-.1.25-.07 3.64.03 3.83.06.1.34.26.64.36l.54.18.34-.24c.43-.3 1.27-.32 1.67-.02.48.36.64.66.64 1.25 0 .92-.56 1.48-1.48 1.48-.79 0-1.2-.35-1.48-1.22-.04-.15-.17-.18-.7-.18H8.6l.06.33a2.75 2.75 0 0 0 2.8 2.37c1.16 0 1.97-.52 2.55-1.63.32-.61.3-1.65-.02-2.3a3.5 3.5 0 0 0-1.48-1.44 4 4 0 0 0-1.84-.1l-.28.07V4.8h3.41l-.03-.62-.03-.63-2.31-.03c-2.05-.02-2.32 0-2.38.14m6.06.36c-.13.13.01.38.22.38.18 0 .35-.2.3-.36-.07-.17-.36-.18-.52-.02m-9.9.61c-.56.3-.7 1.15-.27 1.6.46.45.88.44 1.42-.06.17-.15.23-.32.23-.63 0-.37-.05-.47-.34-.7-.35-.29-.74-.36-1.04-.2m-.28 3.45c-.32.2-.64.74-.64 1.1 0 1.27 1.76 1.8 2.45.74.24-.35.25-1.1.02-1.42a1.4 1.4 0 0 0-1.83-.42M15.1 9.54c-.41.15-.57.53-.18.43 1.3-.34 1.58-.34 1.58.02 0 .2-.62.81-1.1 1.06-.37.2-.38.12 0-.44.28-.44.3-.61.07-.6-.16 0-.87 1.07-.87 1.3 0 .68 1.68-.15 2.22-1.09.17-.29.17-.3-.03-.56-.18-.23-.27-.26-.77-.25-.31 0-.73.06-.92.13m4.44.08c-.1.13-.33.42-.48.65s-.39.49-.52.58c-.28.18-.43.2-.26.03.15-.15.16-.38 0-.38-.06 0-.26.11-.44.25-.34.26-.57.34-.36.13.17-.17.15-.26-.08-.38-.39-.2-1.2.36-1.2.84 0 .16.82.27 1.16.15.12-.04.26-.03.32.03q.1.1.46-.02c.26-.08.4-.09.5-.01.07.06.29.08.5.04.28-.04.36-.02.36.1 0 .08-.07.2-.15.27-.2.17-.19.3.04.3.26 0 1.65-1.55 1.57-1.76-.05-.13-.13-.1-.46.16-.22.17-.42.36-.45.4q-.07.1-.17.1-.09-.02.05-.18c.2-.21.22-.42.06-.42-.06 0-.3.16-.55.36-.65.54-.53.26.17-.39.46-.42.6-.6.57-.79-.04-.31-.38-.35-.64-.06m-4.09 2.67c-.98.46-1.72 1.86-1.06 2.04.26.06.81-.19.81-.38 0-.18-.3-.2-.48-.03-.22.22-.27-.03-.07-.4.22-.4.97-1.02 1.23-1.02q.23-.02 0 .14c-.24.18-.23.36.01.36.18 0 .51-.34.51-.52 0-.11-.3-.38-.43-.38-.07 0-.3.09-.52.19m1.95.71c-.42.44-.8.8-.85.8q-.07 0 .03-.12.27-.28-.08-.48c-.37-.2-1.14.38-1.08.82.03.21.08.23.58.22h.56l-.04.33c-.04.3-.02.33.21.33.19 0 .38-.14.68-.5.42-.47.43-.48.57-.28.12.16.22.19.48.15.4-.07 1.24-.62 1.24-.82s-.16-.27-.32-.13l-.32.28c-.18.14-.19.14-.07-.09.1-.2.1-.26-.02-.38-.13-.13-.2-.12-.66.11-.54.28-.7.23-.23-.07.44-.3.66-.65.52-.82-.22-.27-.43-.16-1.2.65"/></svg>