<svg xmlns="http://www.w3.org/2000/svg" width="24" height="24"><path fill="#FFF" fill-rule="evenodd" d="M3.25 8.96c-.14.31-.25.58-.25.6 0 .11.32.02.36-.11q.08-.13.29-.15.21.02.29.15c.05.13.36.22.36.1 0-.22-.52-1.15-.65-1.15-.09 0-.25.22-.4.56m1.42-.5c-.1.1.03.24.24.24.16 0 .19.07.19.45 0 .33.04.45.15.45s.15-.12.15-.45c0-.41.02-.45.25-.45q.25 0 .25-.15c0-.12-.13-.15-.58-.15-.32 0-.62.03-.65.06M6 8.51c0 .05.07.32.16.6q.3.85.57.2l.11-.3.13.3c.06.16.18.29.26.29.12 0 .47-.8.47-1.07 0-.26-.28-.12-.37.2l-.1.32-.13-.33c-.06-.17-.18-.32-.25-.32s-.19.15-.25.32l-.13.33-.1-.33c-.1-.3-.37-.46-.37-.21m1.9.09c-.51.51.12 1.22.85.94.37-.15.38-.82.01-1.06-.21-.14-.66-.08-.86.12m1.36-.04c-.21.2-.08.45.36.61l.33.13-.37-.04c-.2-.03-.4 0-.44.06-.17.28.74.39 1 .12.2-.19.05-.54-.22-.54a1 1 0 0 1-.32-.11q-.19-.12.23-.05.39.05.37-.09c0-.27-.7-.35-.94-.1m1.24.05c-.4.4-.12 1 .45 1 .4 0 .65-.22.65-.6 0-.55-.7-.8-1.1-.4m1.3.4c0 .47.03.6.15.6q.15 0 .15-.27c0-.25 0-.25.19-.09.18.16.2.16.35-.06l.16-.22v.32q0 .32.15.32c.12 0 .15-.13.15-.6q-.01-1.03-.47-.34l-.17.26-.19-.26Q11.8 8 11.8 9m1.5 0v.6h.5c.38 0 .5-.04.5-.15q.01-.15-.35-.15c-.2 0-.35-.04-.35-.1 0-.05.16-.1.36-.1.46 0 .41-.23-.07-.31l-.34-.06.38-.02q.38 0 .37-.16c0-.11-.12-.15-.5-.15h-.5zM15 9c0 .47.03.6.15.6q.13-.01.15-.13c0-.08.17-.18.38-.23.28-.07.38-.15.4-.32q.09-.52-.64-.52H15zm1.24-.47a2 2 0 0 0-.02.58l.03.44.53.03c.42.02.52 0 .52-.12q.01-.17-.34-.16c-.34 0-.35-.01-.38-.42-.03-.42-.23-.63-.34-.35m1.41.37c-.14.27-.25.54-.25.6 0 .16.27.12.34-.05.03-.08.16-.15.3-.15s.26.07.3.15c.05.13.36.22.36.1 0-.18-.57-1.15-.67-1.15-.07 0-.24.22-.38.5m1.22-.32c-.22.24-.21.65.01.85.23.21.75.22.92.02.14-.16.12-.17-.4-.19-.3 0-.35-.04-.35-.26s.05-.25.35-.26c.52-.02.54-.03.4-.19-.17-.2-.73-.19-.93.03m1.17-.04c-.03.07-.04.33-.02.57l.03.44.48.03c.37.02.47 0 .47-.12q0-.16-.3-.16c-.16 0-.3-.04-.3-.1 0-.05.14-.1.3-.1.42 0 .4-.27-.02-.33l-.33-.04.32-.01q.33-.02.33-.17c0-.2-.88-.21-.96-.01m-11.9.3c-.1.26.04.48.28.44q.24-.02.23-.28.01-.26-.23-.28-.2-.02-.28.12m2.57 0c-.18.22-.02.48.28.44.2-.02.26-.08.26-.28 0-.3-.34-.4-.54-.17"/></svg>