<svg xmlns="http://www.w3.org/2000/svg" width="24" height="24"><path fill="#FFF" fill-rule="evenodd" d="M10.17 2.8A5.4 5.4 0 0 0 8.7 5.32c-.1.46-.08.6.12 1.13.21.58 1 1.55 1.27 1.55.18 0 1.93-2.11 2.14-2.59.25-.54.21-1.57-.07-2.16-.2-.42-.95-1.25-1.12-1.25-.06 0-.45.36-.86.8m-4.4 4.57c-.32.08-.6.22-.64.29-.03.07.05.29.16.48.45.72 1.71 1.02 3.1.72.4-.08.76-.18.8-.21.11-.12-.4-.9-.76-1.15-.31-.21-.5-.25-1.22-.27a6 6 0 0 0-1.44.14m6.7.7c-.15.04-.17.23-.17 2.19v2.14h1l-.02-2.17-.03-2.17-.3-.02c-.16-.01-.38 0-.47.03m3.9 0c-.05.03-.08.84-.08 1.8v1.73h-1V9.4h-.9v1.56c0 .85-.04 1.64-.1 1.74-.05.1-.24.21-.4.25-.29.06-.3.1-.28.43.03.37.04.37.43.34q.86-.07 1.2-.8l.2-.41.95-.03.95-.03v-4.4l-.45-.03c-.25-.02-.49 0-.53.04m1.6 0c-.04.04-.07 1.03-.07 2.2v2.12l.41.07c.22.04.45.03.5-.02s.08-1.02.07-2.24l-.03-2.14-.4-.03c-.23-.02-.44 0-.48.04M7.67 9.64q-1.33.48-1.82 1.97c-.22.65-.16.79.35.79.4 0 .4 0 .68-.63.16-.34.44-.8.63-1.02l.34-.38.05.99.05.99 1.83.03 1.82.02V9.5l-.47.03-.48.03-.03 1-.03 1-.87-.02-.87-.01-.03-1.01L8.8 9.5h-.37c-.2 0-.54.07-.75.14m1.73 3.61v.45h1v-.9h-1zm1.2 0v.45h1.1v-.9h-1.1zm-2.87 1.73C7.28 15.99 7.28 16 7.51 16c.1 0 .22-.07.25-.15q.07-.15.44-.15t.44.15c.04.13.46.23.46.11l-.35-.8c-.45-.98-.65-1.02-1.02-.18m1.77.22v.8l.68-.02c.75-.03.88-.21.17-.26l-.45-.03v-.65c0-.57-.02-.64-.2-.64s-.2.07-.2.8m2.37-.73c-.04.03-.07.4-.07.8 0 .66.02.73.2.73.16 0 .2-.07.2-.3 0-.3.02-.31.32-.28.25.02.34.09.38.28.09.37.4.4.4.03a1 1 0 0 0-.1-.4q-.13-.12 0-.17c.17-.12.12-.54-.1-.66-.2-.11-1.13-.14-1.23-.03m2.16.5C13.58 16 13.58 16 13.81 16c.1 0 .22-.07.25-.15q.07-.15.44-.15t.44.15c.04.13.46.23.46.11l-.35-.8c-.45-.98-.65-1.02-1.02-.18m1.27-.52c0 .03.13.25.3.49.17.25.3.57.3.74 0 .24.04.31.2.31q.21.02.2-.28c0-.15.13-.5.3-.75.36-.56.36-.57.1-.57q-.2.02-.35.3c-.2.37-.26.37-.47 0q-.17-.29-.38-.3c-.1 0-.2.03-.2.06m2.05.27-.34.8c-.2.47-.2.47 0 .47.1 0 .22-.07.25-.15q.07-.15.44-.15t.44.15c.05.13.46.22.46.1 0-.02-.15-.38-.34-.8-.27-.59-.4-.75-.56-.75q-.2 0-.35.33m-5.1.06c-.1.18.05.31.36.31.24 0 .3-.04.27-.17-.04-.2-.52-.3-.63-.14"/></svg>