<svg xmlns="http://www.w3.org/2000/svg" width="24" height="24"><path fill="#FFF" fill-rule="evenodd" d="M10.83 2.75c-.78.22-1.3.51-1.9 1.08a3.3 3.3 0 0 0-1.1 2.34c-.04.42-.1.76-.17.78-1.6.46-4.34 1.53-4.55 1.8-.08.08.22 1.03 1.05 3.36.64 1.78 1.18 3.26 1.2 3.28.01.01.51-.13 1.1-.33a18.3 18.3 0 0 1 11.72.07c.4.14.72.23.72.2L19.96 12a41 41 0 0 0 1-3.39c-.14-.22-3.04-1.37-4.32-1.7l-.41-.11-.06-.66q-.11-1.48-1.35-2.5a5 5 0 0 0-1.21-.75 5.5 5.5 0 0 0-2.78-.14m-.1.48c-.1.12-.34.34-.53.47q-.37.27-.18.28c.27.05.76-.26.93-.58.08-.16.15-.31.15-.34 0-.14-.2-.04-.37.17m3.97 1.01q-.18.51.26.62c.33.08.55-.02.48-.2q-.06-.19-.2-.05c-.2.16-.35.02-.28-.26.08-.32-.14-.42-.26-.1m-3.5-.04c-.9.36-1.44 1.63-1.1 2.56.24.6 1.05 1.24 1.57 1.22q.37.01-.11-.1c-1.89-.44-1.93-3.14-.06-3.67q.3-.1.15-.1c-.11 0-.31.04-.45.1m1.22-.03q1.43.48 1.43 1.87 0 1.44-1.5 1.86-.4.1.1.03c.83-.1 1.5-.94 1.5-1.9 0-.42-.06-.7-.2-.94-.28-.47-.83-.9-1.25-.96q-.45-.07-.08.04m-3.95.7c-.2.2-.22.63-.07.92.19.34.32.22.25-.21-.06-.36-.05-.4.14-.4.24 0 .25-.04.1-.3-.12-.25-.21-.25-.42-.02m2.88.95c.1.55.14.62.44.74.26.1.3.08.4-.13.11-.25.31-.33.31-.12q0 .11.16-.04c.25-.24.11-.68-.21-.68-.14 0-.3.09-.37.2-.1.14-.16.16-.3.09-.1-.05-.18-.16-.18-.24a.15.15 0 0 0-.15-.15c-.12 0-.14.08-.1.33m4.32.22c-.24.5-.21.74.12 1.27.26.41.64.68.77.55.03-.03-.1-.26-.3-.5-.43-.58-.51-.83-.36-1.12q.12-.23.03-.4c-.08-.13-.12-.1-.26.2M8 6.4c0 .06.11.22.25.35.25.26.45.32.45.15 0-.12-.5-.6-.62-.6Q8 6.31 8 6.4m9.55 1.45c-.26.22-.28.25-.1.26.44.03.91-.22.8-.42-.1-.16-.4-.09-.7.16m-7.59.6c-.17.17-.12.4.1.49s.46-.22.34-.45c-.13-.23-.24-.24-.44-.04m9.76-.06c-.08.04-.12.19-.1.32q.01.25.31.27c.28.03.57-.12.57-.3 0-.04-.12-.02-.27.05-.28.14-.53.13-.53-.03 0-.05.1-.12.2-.15q.18-.06.15-.16-.09-.17-.33 0M7.23 8.7c-.83.17-1.28.55-1.21 1.03q.06.35.62.12c.14-.06.1.05-.17.44-.9 1.3-.46 1.86 1.09 1.37.43-.14.91-.26 1.07-.26.24 0 .27-.04.27-.35 0-.4 0-.4-.42-.19-.39.2-1.2.23-1.42.05-.5-.42.3-1.4 1.29-1.6.6-.13.32-.72-.33-.7-.2 0-.56.05-.79.1m3.81.41c.04.18.11.65.17 1.03l.15.94.05.23 1.77-.03c.97-.02 2.07 0 2.43.05.6.07.69.06.88-.13.18-.18.21-.33.21-1.1q0-.88-.12-.99c-.12-.1-1.08-.25-1.08-.17l.21.96c.2.9.2.93.03 1.06-.19.14-.84.18-.84.05 0-.04.07-.16.15-.26.2-.27.19-.6-.03-.8-.23-.2-.84-.2-1.21-.01-.16.08-.31.11-.35.08q-.09-.11.1-1c.04-.21 0-.23-.45-.23h-.5l.06.8c.06.83-.06 1.3-.33 1.3q-.37.02-.32-1.26l.03-.84h-1.07zm6.42.92c-.04.42-.14.95-.22 1.18-.14.4-.13.44.03.55.24.19.3.17.59-.22a6 6 0 0 0 .74-1.8q.02-.23-.76-.4l-.31-.06zm-7.15-.46c-.01.4-.29.92-.55 1.04q-.27.1-.26.39c0 .35.12.43.55.35.24-.05.36-.14.45-.36.12-.3.07-1-.1-1.44-.09-.2-.09-.2-.1.02m-2.38.4c-.23.15-.1.47.18.47.2 0 .25-.05.25-.25 0-.26-.2-.36-.43-.21m5.93.33q-.37.23-.29.4c.09.14.81.09.94-.07.29-.35-.19-.6-.65-.33m5.81.09c-.14.11-.26.27-.26.35q-.01.16.2-.06c.11-.11.29-.2.39-.2q.17-.02.25-.15c.08-.22-.26-.19-.58.06m-15.76.15c0 .07.13.2.3.29.39.2.56.72.39 1.2-.1.26-.1.38-.02.46q.12.15.24-.29a1.5 1.5 0 0 0-.26-1.4c-.28-.33-.65-.48-.65-.26m15.35 1.21c.08.34.24.55.36.47.15-.09.1-.33-.11-.54q-.39-.4-.25.07m-9.94.6c0 .26-.05.33-.2.33q-.2 0-.24-.27-.05-.4-.05.04c-.01.17.01.34.05.36.05.03.32 0 .6-.06.4-.08.53-.15.53-.29q-.02-.16-.15-.18-.13 0-.09.15t-.1.15c-.07 0-.19-.12-.24-.27l-.1-.28zm5.13.08c0 .37.03.4.33.43s.32.02.31-.32c-.01-.4-.18-.5-.18-.11q.01.26-.2.25-.2.01-.23-.32-.05-.4-.03.07m1.46.23a.5.5 0 0 1-.12.3c-.1.1-.05.13.27.1.36-.03.4-.06.43-.32q.03-.28-.07-.21c-.06.03-.11.15-.11.26q-.01.17-.16.19-.18.02-.1-.25.05-.23-.04-.25-.09.02-.1.18m-4.72.73c-.22.12-.24.49-.03.49q.13-.02.15-.2-.01-.21.25-.2c.14 0 .3.09.37.2q.26.39.28 0c0-.33-.65-.51-1.02-.3m2.33.1q-.51.32-.15.44c.14.06.74-.3.74-.45 0-.17-.3-.16-.59.02m5.08.35q-.13.14-.03.41c.11.33.3.4.37.13q.05-.2-.09-.2a.14.14 0 0 1-.14-.13c0-.21.12-.28.27-.16q.14.14.13-.05c0-.2-.33-.21-.5 0M7.9 14c0 .23-.18.27-.26.05-.08-.2-.24-.2-.24 0s.32.35.53.24c.18-.1.24-.49.07-.49q-.09.02-.1.2m.82-.04c-.34.18-.43.35-.14.28l.77-.15c.46-.1.55-.14.4-.2q-.48-.18-1.03.07m7.7.06c-.14.14-.16.38-.03.38q.08-.01.15-.15c.09-.24.42-.18.64.12s.36.18.19-.18c-.14-.27-.73-.39-.95-.17"/></svg>