<?xml version="1.0" encoding="UTF-8" standalone="no"?>
<svg
   viewBox="0 0 24 24"
   width="24pt"
   height="24pt"
   version="1.1"
   id="svg6400"
   xml:space="preserve"
   sodipodi:docname="alex.svg"
   inkscape:version="1.3 (0e150ed6c4, 2023-07-21)"
   xmlns:inkscape="http://www.inkscape.org/namespaces/inkscape"
   xmlns:sodipodi="http://sodipodi.sourceforge.net/DTD/sodipodi-0.dtd"
   xmlns="http://www.w3.org/2000/svg"
   xmlns:svg="http://www.w3.org/2000/svg"><sodipodi:namedview
     id="namedview1"
     pagecolor="#ffffff"
     bordercolor="#000000"
     borderopacity="0.25"
     inkscape:showpageshadow="2"
     inkscape:pageopacity="0.0"
     inkscape:pagecheckerboard="0"
     inkscape:deskcolor="#d1d1d1"
     inkscape:document-units="pt"
     inkscape:zoom="23.09375"
     inkscape:cx="15.978349"
     inkscape:cy="16"
     inkscape:window-width="1920"
     inkscape:window-height="974"
     inkscape:window-x="-11"
     inkscape:window-y="1609"
     inkscape:window-maximized="1"
     inkscape:current-layer="svg6400" /><defs
     id="defs6404" /><g
     id="g6583"
     transform="matrix(0.0302947,0,0,0.0302947,-12.618316,2.0115551)"
     style="fill:#ffffff"><g
       id="g6959"
       transform="matrix(1.369365,0,0,1.369365,532.54229,-61.84087)"
       style="fill:#ffffff"><path
         fill="#FFFFFF"
         opacity="1"
         stroke="none"
         d="m 270.96759,146.11558 c 4.69415,-0.31639 9.38413,-0.76673 14.08359,-0.91304 5.11465,-0.15922 10.23816,-0.0361 15.77377,-0.0361 2.15204,17.51036 4.20593,34.2223 6.25073,51.79023 1.1023,5.20073 -0.0696,10.33931 5.15027,14.60512 2.66419,-22.4581 5.21243,-43.93889 7.76068,-65.41966 8.58286,0 17.16574,0 26.61066,0 -1.64102,11.64357 -3.11615,22.95483 -4.85123,34.22607 -2.70453,17.56903 -6.25644,35.0414 -8.08523,52.69603 -0.81412,7.85973 1.61334,16.07424 2.70681,24.10906 3.4545,25.38284 6.98563,50.75528 10.43998,76.13815 0.21627,1.58926 0.0281,3.23355 0.0281,5.69058 -4.56219,0 -8.84643,0.0988 -13.1242,-0.0251 -5.32703,-0.15427 -10.64871,-0.49225 -16.33664,-1.38208 -4.31647,-26.73853 -4.11695,-53.44632 -10.85834,-79.15045 -0.44891,0.0133 -0.89783,0.0266 -1.34674,0.0399 -0.68112,4.49768 -1.36224,8.99536 -2.04337,13.49304 -2.3883,22.09693 -4.77658,44.19382 -7.2416,67.00068 -8.41495,0 -16.68662,0 -25.42206,-0.52115 -0.0329,-6.96723 0.10516,-13.44934 0.89422,-19.85123 1.3324,-10.81003 3.12967,-21.56189 4.63294,-32.35196 1.36642,-9.80819 2.33734,-19.67877 3.96438,-29.44153 1.86313,-11.17942 3.00226,-22.26889 1.10032,-33.58818 -1.36689,-8.13495 -2.04798,-16.38409 -3.08023,-24.57656 -1.25907,-9.9921 -2.53455,-19.98234 -3.86152,-29.96558 -1.00064,-7.52843 -2.09347,-15.0446 -3.14529,-22.56623 z"
         id="path6552"
         style="fill:#ffffff" /><path
         fill="#FFFFFF"
         opacity="1"
         stroke="none"
         d="m 62.636154,281.54102 c 1.220493,-16.49646 2.176705,-32.55535 3.469055,-48.58713 0.490105,-6.07985 1.897759,-12.08049 2.609002,-18.14984 0.388786,-3.31768 -0.02281,-6.72518 0.306907,-10.05451 1.02713,-10.37166 2.459236,-20.7077 3.279999,-31.09344 0.412247,-5.21657 -0.516228,-10.53733 -0.12925,-15.75841 0.182099,-2.45689 2.144104,-4.74873 3.0868,-7.1973 0.42598,-1.10641 0.332687,-2.41276 0.591576,-4.62446 1.532562,-0.23116 4.2164,-0.94338 6.910904,-0.98635 9.156509,-0.14599 18.325093,0.17606 27.472183,-0.15179 4.68004,-0.16774 6.27124,2.0103 6.57983,6.08144 0.7995,10.54731 1.28714,21.13035 2.48204,31.63282 1.80078,15.82781 4.22855,31.5833 6.14949,47.3987 2.3242,19.13547 4.37956,38.30347 6.58566,57.45343 1.78711,15.51291 3.4915,31.03757 5.53448,46.51718 0.51088,3.87107 -0.47163,5.03107 -4.2749,5.04886 -6.47677,0.0302 -12.94916,0.5885 -19.42767,0.7782 -5.69526,0.16678 -6.59548,-0.93237 -6.883,-6.52176 -0.51076,-9.92917 -1.2874,-19.84448 -1.82438,-29.77255 -0.21703,-4.01285 -2.28604,-5.34903 -6.088726,-5.56647 -12.844055,-0.73431 -12.799186,-0.6727 -13.136566,12.34348 -0.214981,8.29379 -1.179619,16.56597 -1.678161,24.85565 -0.183808,3.05624 -1.747582,3.82025 -4.537766,3.86401 -4.980255,0.0782 -9.959877,0.42316 -14.931366,0.77515 -6.125442,0.43365 -7.530716,-1.0957 -6.527149,-7.11209 1.235107,-7.40442 2.838631,-14.78815 3.428005,-22.24836 0.629593,-7.96917 0.240059,-16.01736 0.351406,-24.0303 0.02062,-1.48383 0.307286,-2.96399 0.601597,-4.89416 m 28.363838,-48.96753 c -0.659973,11.5908 -1.418403,23.17721 -1.934867,34.77441 -0.229249,5.1477 1.579254,6.34531 7.451217,6.72101 5.129978,0.32815 5.824368,-2.53147 5.500408,-6.5296 -0.98261,-12.12715 -2.103191,-24.24556 -2.886425,-36.38567 -0.597191,-9.25635 -0.639312,-18.5479 -1.190864,-27.80817 -0.177529,-2.98069 -1.190888,-5.9116 -1.821862,-8.86529 -0.745597,0.0788 -1.491195,0.15751 -2.236793,0.23627 -0.958611,12.3022 -1.917221,24.60438 -2.880814,37.85704 z"
         id="path6554"
         style="fill:#ffffff" /><path
         fill="#FFFFFF"
         opacity="1"
         stroke="none"
         d="m 233.38336,179.53882 c 0.19321,12.41559 0.41789,24.3847 0.74632,36.35098 0.11005,4.00972 3.32154,4.65317 6.30774,4.97974 2.96492,0.32425 5.99266,0.24864 8.98333,0.12239 4.68362,-0.19773 6.06488,2.42807 6.09452,6.53789 0.0274,3.7956 0.008,7.61134 0.39289,11.37887 0.36995,3.61694 -0.72957,5.21378 -4.55432,5.22237 -4.2941,0.01 -8.61806,0.32338 -12.8703,0.92195 -3.21966,0.45322 -4.65348,2.66559 -4.62888,6.05813 0.1376,18.9838 0.12678,37.96866 0.25119,56.95261 0.0332,5.05936 4.64963,8.25336 10.55646,7.54553 11.53132,-1.3818 11.53401,-1.37939 11.40284,10.05286 -0.14155,12.33923 -0.14157,12.33923 -12.60052,12.3392 -10.15877,-3e-5 -20.31752,0.005 -30.47629,-0.003 -4.12512,-0.003 -7.79495,-2.91761 -8.0861,-6.94779 -0.49933,-6.91168 -0.88195,-13.84738 -0.91083,-20.77466 -0.0902,-21.63397 0.12572,-43.26947 -0.014,-64.90284 -0.0759,-11.74755 -0.94182,-23.49298 -0.90309,-35.23757 0.0653,-19.78918 0.64578,-39.57626 0.81562,-59.36587 0.0323,-3.76724 1.45931,-4.91022 5.0277,-4.86568 9.43226,0.11772 18.86894,0.0585 28.30133,-0.0899 4.13766,-0.0651 8.27199,-0.48322 12.40272,-0.80619 3.73976,-0.29239 5.62142,1.16329 5.47525,5.12372 -0.16574,4.49106 -0.16398,8.99268 -0.0834,13.48699 0.0562,3.13383 -1.14116,4.7102 -4.42788,4.39001 -1.32239,-0.12883 -2.66512,-0.157 -3.9932,-0.10159 -8.5954,0.35856 -12.58957,-1.44828 -13.20906,11.6315 z"
         id="path6556"
         style="fill:#ffffff" /><path
         fill="#FFFFFF"
         opacity="1"
         stroke="none"
         d="m 174.99191,234.97534 c -0.31631,9.29259 -0.89384,18.09201 -0.87976,26.89047 0.0159,9.96506 0.62125,19.92786 0.85506,29.89435 0.13136,5.59891 0.20148,11.21027 -0.0262,16.80277 -0.15427,3.78994 1.9326,4.98221 5.06296,5.34845 1.31706,0.15411 2.66176,0.0884 3.994,0.0937 10.8757,0.0435 9.6928,0.5784 10.92201,10.7568 0.39647,3.28305 0.0208,6.65598 0.0539,9.98725 0.0304,3.06588 -1.82066,4.10275 -4.47635,4.11596 -12.60248,0.0627 -25.20521,0.0751 -37.80786,0.0998 -0.99898,0.002 -2.10051,0.22367 -2.97473,-0.11731 -1.58733,-0.61914 -3.97999,-1.32858 -4.2926,-2.47561 -0.33597,-1.2327 1.33389,-3.012 1.59533,-3.51898 -1.10614,-2.87992 -2.85537,-5.32373 -2.86462,-7.77411 -0.144,-38.14762 -0.0486,-76.29604 -0.0397,-114.44429 0.005,-19.61728 -0.0725,-39.23455 -0.0708,-58.85182 5.6e-4,-6.53743 0.31279,-6.82676 6.74142,-6.75185 5.98683,0.0698 11.97446,0.17223 17.95822,0.36816 4.08243,0.13367 5.42235,2.18261 5.36769,6.40471 -0.24928,19.25778 -0.22342,38.52114 -0.0857,57.78096 0.0593,8.30089 0.62956,16.59812 0.96769,25.39058 z"
         id="path6558"
         style="fill:#ffffff" /></g></g></svg>
