<svg xmlns="http://www.w3.org/2000/svg" width="24" height="24"><path fill="#FFF" fill-rule="evenodd" d="M3.96 7.35c-.08.09-.2.3-.25.48s-.23.65-.4 1.06c-.17.4-.31.78-.31.82 0 .05.13.09.3.09.24 0 .3-.05.35-.3.07-.3.08-.3.6-.29.49.02.55.05.66.3.11.29.5.4.63.2.07-.1-.92-2.33-1.08-2.43q-.25-.18-.5.07m7.35.08a7 7 0 0 0-.05 1.21c.01.82.05 1.02.2 1.12q.15.12.25.08c.05-.03.09-.6.09-1.28 0-1.16-.01-1.24-.2-1.29q-.21-.07-.29.16m1.93.01c-.14.36.13.57.46.36.12-.07.13-.13.04-.27-.15-.24-.43-.28-.5-.09m-9.06.72-.13.37c-.06.14-.02.17.19.17.29 0 .32-.13.12-.49-.12-.21-.13-.22-.18-.05m1.52.73c0 .5.03.92.08.94.04.03.16.01.28-.03.17-.07.2-.16.18-.58-.01-.38.02-.55.16-.67.28-.25.36-.09.38.78.02.43.04.47.26.47.3 0 .35-.12.3-.85-.02-.47-.07-.64-.24-.77-.24-.2-.65-.24-.75-.08q-.07.09-.31 0l-.3-.1c-.02 0-.04.4-.04.9m2.18-.8q-.48.3-.24.81c.14.28.14.33 0 .46a.4.4 0 0 0-.09.34c.03.1.01.27-.04.38-.23.42.87.7 1.37.35.35-.24.46-.63.26-.86-.1-.1-.24-.16-.33-.13a.4.4 0 0 1-.31-.05q-.19-.11.06-.1c.23 0 .54-.38.54-.65q.01-.13.1-.15t.1-.22c0-.21-.05-.23-.63-.25-.34-.01-.7.02-.8.08m1.78.12a1 1 0 0 0-.3.61c-.06.72.63 1.15 1.4.86q.24-.1.25-.3c0-.23-.01-.24-.35-.08-.2.09-.31.08-.52-.01-.36-.16-.16-.28.42-.26.43.02.45.01.45-.27 0-.67-.83-1-1.35-.55m3.62-.16a3 3 0 0 0-.07.83c0 .8.12 1.07.4.9.18-.1.23-1.6.06-1.72-.14-.1-.3-.1-.4-.01m1 .01c-.13.03-.16.17-.16.88v.85l.27-.03c.26-.03.27-.05.26-.55q-.02-.54.14-.68.37-.37.39.63c0 .54.02.57.27.6.27.03.27.03.27-.65 0-.9-.13-1.08-.77-1.08-.27 0-.57.01-.66.03m2.72.17c-.06.73-.03 1.03.13 1.26.16.24.24.27.83.27h.65v-.83c0-.77-.02-.83-.22-.88-.3-.08-.38.07-.38.7 0 .41-.03.52-.19.56q-.31.09-.31-.92c0-.32-.03-.36-.25-.36q-.26 0-.26.2m2-.07c-.35.29-.32.5.11.8.22.15.4.3.4.35 0 .1-.28.09-.5-.03-.17-.1-.2-.07-.2.14q-.02.37.56.36c.68 0 .89-.61.34-1.02-.31-.23-.4-.45-.15-.34l.3.12q.15.07.15-.15-.01-.22-.26-.31c-.36-.14-.49-.13-.75.08m-6.89.76c0 .22.04.24.38.22.38-.02.42-.05.42-.31q.02-.15-.4-.15c-.36 0-.4.03-.4.24m3.8-.05q.01.18.26.25c.36.1.64-.02.64-.25 0-.16-.07-.19-.45-.19-.37 0-.45.03-.45.19m4.53.28c-.07.02-.13.15-.13.28 0 .3.2.45.48.34a.3.3 0 0 0 .22-.33c0-.3-.25-.42-.57-.3"/></svg>