<svg xmlns="http://www.w3.org/2000/svg" width="24" height="24"><path fill="#FFF" fill-rule="evenodd" d="M14.19 2.14a3.2 3.2 0 0 0-2.17 2.67l-.04.57.38-.05c1.25-.17 2.49-1.52 2.6-2.83.03-.46.02-.5-.19-.5-.12 0-.38.07-.58.14m-5.3 3.3c-.94.25-1.84.97-2.29 1.86-.79 1.54-.6 3.96.46 6 .5.95 1.33 2 1.88 2.38.6.4 1 .41 1.98.07q.71-.25 1.33-.25t1.33.25c.4.14.88.25 1.07.25.95 0 2.08-1.15 2.92-2.98q.36-.75.24-.8c-.26-.09-.97-.7-1.28-1.1A2.6 2.6 0 0 1 16 9.36c0-.94.17-1.33.88-2.06l.63-.65-.5-.47c-1-.91-2.43-1.1-3.94-.54-.84.32-1.05.32-1.98 0a3.7 3.7 0 0 0-2.2-.2"/></svg>