<svg xmlns="http://www.w3.org/2000/svg" width="24" height="24"><path fill="#FFF" fill-rule="evenodd" d="M10.42 2.7a7 7 0 0 0-4.45 3.6c-.52 1.05-.84 2.18-.64 2.26.07.02 3.16.03 6.87.02l6.75-.03-.03-.34a8 8 0 0 0-.84-2.29 7.4 7.4 0 0 0-3.82-3.08 8 8 0 0 0-3.84-.14m9.68 6.05-.65.13h.78c.62.02.77 0 .77-.13 0-.17 0-.17-.9 0m-15.42.43-.98.03v.39c0 .3.04.4.2.42.18.03.16.13-.35 1.68L3 13.38s.27.02.6.02c.57 0 .59 0 .65-.3l.07-.3h.75c.74 0 .75 0 .86.3.11.29.14.3.74.3h.63l-.11-.28-.75-2.07c-.35-.98-.68-1.82-.72-1.85a6 6 0 0 0-1.04-.02m3.57.1q-.83.39-.72 1.38c.07.62.34.86 1.28 1.14q1.11.33.64.66c-.25.18-.72.18-1.25-.01-.57-.2-.58-.2-.7.23-.12.45-.02.56.72.71.72.16 1.27.13 1.75-.08.5-.24.73-.63.73-1.29 0-.63-.32-.95-1.26-1.25-.61-.2-.69-.25-.69-.47 0-.25 0-.25.82-.24.9.01.82.05 1-.58.1-.38-1.6-.52-2.32-.2m3.53.03q-.69.35-.68 1.24c0 .64.34.96 1.27 1.24.74.22.92.4.67.66-.2.2-.71.2-1.3 0-.52-.19-.6-.15-.69.36l-.07.36.6.16q1.2.35 2-.04c.5-.25.72-.61.72-1.23 0-.65-.33-1-1.2-1.27-.8-.24-1-.4-.79-.65.11-.14.27-.16.9-.11l.77.05.1-.39.1-.39-.37-.1a3.5 3.5 0 0 0-2.03.1m3.36-.1c-.02.01-.04.19-.04.38 0 .25.05.35.2.4q.18.04.2.1c0 .02-.22.74-.5 1.59-.27.85-.5 1.59-.5 1.64 0 .06.24.09.57.07.52-.03.58-.05.63-.28s.1-.25.82-.28l.76-.03.1.3c.1.3.13.31.71.31.34 0 .6-.03.6-.07s-.33-.98-.73-2.08l-.72-2-1.03-.05a7 7 0 0 0-1.07 0m3.86.37c0 .36.03.43.2.43.19 0 .2.07.2 1.3s-.01 1.3-.2 1.3c-.17 0-.2.07-.2.4v.4h2V13c0-.33-.03-.4-.2-.4-.19 0-.2-.07-.2-1.3s.01-1.3.2-1.3c.17 0 .2-.07.2-.46v-.46l-1 .04-1 .03zM4.82 11.11c-.12.4-.22.77-.22.82s.2.07.45.07c.53 0 .53-.01.22-.95l-.23-.68zm11.45-.01c-.25.88-.24.9.3.9.38 0 .44-.02.39-.17-.04-.1-.15-.43-.24-.75-.1-.32-.2-.58-.23-.58s-.13.27-.22.6M5.85 14.87c-.14.3-.23.59-.2.62q.06.04.16-.12c.13-.22.58-.22.75 0 .23.33.22.08-.03-.5-.14-.31-.3-.57-.34-.57s-.2.25-.34.57M7 14.4q.02.1.2.1c.16 0 .2.08.23.53l.03.52.02-.53c.02-.45.05-.52.22-.52q.18 0 .2-.1c0-.06-.2-.1-.45-.1s-.45.04-.45.1m1.37.47c-.14.32-.24.6-.2.63q.05.03.14-.13c.13-.23.65-.23.78 0q.09.16.15.12a3 3 0 0 0-.53-1.19c-.05 0-.2.26-.34.57m1.43-.37a.7.7 0 0 0-.2.4c0 .3.37.62.67.58.38-.04.39-.23.02-.23q-.31-.01-.43-.17c-.17-.27.05-.53.43-.53.33 0 .4-.1.15-.19-.27-.1-.43-.07-.64.14m1.53.36c-.14.3-.22.58-.2.61q.07.03.13-.1c.08-.23.63-.22.8 0 .23.3.16-.04-.11-.57-.14-.28-.28-.5-.3-.5-.04 0-.18.25-.32.56m1.37.04v.6h.35c.4 0 .75-.28.75-.6s-.36-.6-.75-.6h-.35zm1.6 0c0 .33.04.6.1.6s.1-.27.1-.6-.04-.6-.1-.6-.1.27-.1.6m.93-.53c-.24.09-.14.42.17.58.42.22.39.4-.05.32-.4-.07-.48.1-.08.2.56.13.83-.36.34-.62-.36-.18-.4-.37-.08-.35q.52.05.27-.1a.6.6 0 0 0-.57-.03m1.07.03q.02.1.2.1c.17 0 .2.07.2.5 0 .28.05.5.1.5s.1-.22.1-.5c0-.38.04-.5.15-.5q.13 0 .15-.1c0-.06-.2-.1-.45-.1s-.45.04-.45.1m1.4.46c-.12.3-.2.58-.16.6q.05.05.12-.1c.08-.22.6-.21.73.01q.09.16.16.12c.08-.08-.41-1.19-.53-1.19-.04 0-.19.25-.31.56m-4.81.04c0 .39.02.41.26.38.35-.04.53-.31.38-.55a.5.5 0 0 0-.38-.21c-.24-.03-.26 0-.26.38"/></svg>