<?xml version="1.0" encoding="UTF-8" standalone="no"?>
<svg
   viewBox="0 0 24 24"
   width="24pt"
   height="24pt"
   version="1.1"
   id="svg1"
   sodipodi:docname="atis.svg"
   xml:space="preserve"
   inkscape:version="1.3 (0e150ed6c4, 2023-07-21)"
   xmlns:inkscape="http://www.inkscape.org/namespaces/inkscape"
   xmlns:sodipodi="http://sodipodi.sourceforge.net/DTD/sodipodi-0.dtd"
   xmlns="http://www.w3.org/2000/svg"
   xmlns:svg="http://www.w3.org/2000/svg"><defs
     id="defs1" /><sodipodi:namedview
     id="namedview1"
     pagecolor="#ffffff"
     bordercolor="#000000"
     borderopacity="0.25"
     inkscape:showpageshadow="2"
     inkscape:pageopacity="0.0"
     inkscape:pagecheckerboard="0"
     inkscape:deskcolor="#d1d1d1"
     inkscape:document-units="pt"
     inkscape:zoom="16.329747"
     inkscape:cx="12.063873"
     inkscape:cy="20.545327"
     inkscape:window-width="1920"
     inkscape:window-height="974"
     inkscape:window-x="-11"
     inkscape:window-y="1609"
     inkscape:window-maximized="1"
     inkscape:current-layer="svg1" /><g
     id="g1"
     transform="matrix(0.00501115,0,0,0.00501115,2.9803811,4.0401556)"><path
       d="M 0,0 C 2.2515399,1.6431284 4.513168,3.271817 6.7749023,4.9008789 17.566218,12.718184 27.905857,20.96907 38.106934,29.537598 c 3.96,3.3 7.92,6.6 12,10 0.33,-44.5500003 0.66,-89.1 1,-135 73.259996,0 146.519996,0 221.999996,0 0.11146,63.118515 0.11146,63.118515 0.15241,86.62561 10e-4,0.7367854 0.003,1.4735708 0.004,2.232683 0.14921,85.659843 0.29594,171.319689 0.76146,481.152369 10e-4,0.83523 0.002,1.67046 0.004,2.531 0.0106,7.46595 0.0211,14.93191 0.0316,22.39787 0.0295,20.9122 0.0598,41.82441 0.091,62.73661 0.0765,51.17101 0.14752,102.34201 0.18058,153.51308 0.003,3.83973 0.005,7.67945 0.008,11.51918 6.1e-4,0.93758 10e-4,1.87515 0.002,2.84114 0.01,14.92457 0.0299,29.8491 0.0538,44.77365 0.0231,14.59813 0.0356,29.19624 0.0359,43.79439 4.5e-4,8.36898 0.009,16.73787 0.0292,25.10683 0.014,6.08076 0.0125,12.16141 0.005,18.24219 -7.5e-4,2.43144 0.004,4.86289 0.0135,7.29432 0.0126,3.2767 0.007,6.55288 -0.004,9.82958 0.008,0.93439 0.0161,1.86878 0.0244,2.83148 -0.0529,7.01841 -0.75279,13.9389 -5.89191,19.07802 -3.4404,2.06424 -6.08475,2.62915 -10.02122,2.70135 -0.93133,0.0191 -1.86265,0.0383 -2.8222,0.058 -1.02418,0.0159 -2.04837,0.0318 -3.1036,0.0482 -1.08573,0.0202 -2.17146,0.0403 -3.29009,0.0611 -3.64875,0.0652 -7.29757,0.12231 -10.94648,0.17818 -1.27154,0.0207 -2.54308,0.0414 -3.85315,0.0627 -30.00419,0.48284 -60.00925,0.61103 -90.01693,0.62924 -7.78905,0.005 -15.57794,0.0227 -23.36694,0.0511 -6.15498,0.0216 -12.30991,0.0317 -18.46492,0.033 -3.626285,0.001 -7.252402,0.007 -10.878644,0.0248 -3.988953,0.0196 -7.977539,0.0152 -11.966535,0.009 -1.750386,0.0138 -1.750386,0.0138 -3.536133,0.0279 -6.81811,-0.0349 -14.304223,-0.13144 -19.815843,-4.69475 -5.631026,-6.2433 -5.718316,-13.07768 -5.736159,-21.00945 -0.01005,-1.025 -0.02009,-2.05 -0.03044,-3.10606 -0.0308,-3.37626 -0.04786,-6.75244 -0.06477,-10.1288 -0.01871,-2.34556 -0.03829,-4.69111 -0.05868,-7.03665 -0.0513,-6.16485 -0.09094,-12.32972 -0.128144,-18.49466 -0.04005,-6.29431 -0.09114,-12.58852 -0.141296,-18.88275 -0.09674,-12.34369 -0.181151,-24.68743 -0.257812,-37.03125 -1.75711,1.43379 -3.513679,2.86824 -5.27002,4.30298 -1.467371,1.19811 -1.467371,1.19811 -2.964386,2.42042 -3.261784,2.68505 -6.456812,5.43774 -9.640594,8.2141 -5.931565,5.11669 -12.015895,9.99358 -18.289063,14.68603 -1.282098,0.96124 -2.560459,1.92746 -3.835937,2.89746 -28.157173,21.40903 -58.415106,39.61345 -90,55.47901 -0.855938,0.43264 -1.711875,0.86528 -2.59375,1.31103 -81.945314,41.14654 -176.562684,55.37887 -267.406254,46.68897 -1.30711,-0.12359 -2.61422,-0.24718 -3.96093,-0.37451 -65.48613,-6.34923 -128.34337,-23.88949 -187.03907,-53.62549 -0.84433,-0.42233 -1.68867,-0.84466 -2.55859,-1.27979 -43.3517,-21.74069 -81.90939,-52.93795 -116.00049,-87.14892 -1.83203,-1.83745 -3.66942,-3.66941 -5.50732,-5.50098 -5.85681,-5.85321 -11.60673,-11.72313 -16.9336,-18.07031 -0.87652,-1.01006 -1.75407,-2.01922 -2.63281,-3.02735 -7.47631,-8.73017 -14.47138,-17.77956 -21.36719,-26.97265 -0.58217,-0.77183 -1.16434,-1.54365 -1.76416,-2.33887 -15.44863,-20.51092 -28.9468,-42.12645 -41.23584,-64.66113 -0.45246,-0.82968 -0.90492,-1.65935 -1.37109,-2.51416 -39.5483,-73.0277 -58.60482,-152.97457 -61.62891,-235.48584 -0.0361,-0.94907 -0.0722,-1.89815 -0.10937,-2.87598 -0.17669,-5.3868 -0.0954,-10.73897 0.10937,-16.12402 0.0464,-1.26618 0.0928,-2.53237 0.14063,-3.83692 3.11948,-81.00036 22.72574,-160.84393 72.85937,-249.16308 0.86881,-1.44382 1.73732,-2.88782 2.60547,-4.33203 12.56073,-20.68469 27.05348,-40.35118 42.84375,-58.679691 2.43127,-2.848271 4.77659,-5.749802 7.11328,-8.675781 3.76722,-4.636577 7.84301,-8.820002 12.11328,-12.992188 1.98521,-1.981867 3.82502,-3.994553 5.63672,-6.132812 6.88079,-8.022155 14.55407,-15.553769 22.60938,-22.390625 2.15868,-1.866534 4.25309,-3.795194 6.34399,-5.737061 6.05011,-5.612701 12.27321,-10.920441 18.73413,-16.059814 1.17724,-0.965957 2.35431,-1.932116 3.53125,-2.8984378 21.15142,-17.1243174 44.50521,-32.2422702 68.46875,-45.1015622 0.86577,-0.475181 1.73154,-0.950362 2.62354,-1.439942 C -469.53783,-78.996192 -379.68466,-98.01791 0,0 Z m -486.89307,174.5376 c -0.53109,0.39365 -1.06218,0.78729 -1.60937,1.19287 -20.38633,15.12274 -39.97608,32.57934 -55.39063,52.80713 -1.22589,1.50047 -1.22589,1.50047 -2.47656,3.03125 -12.58802,15.43596 -23.4182,32.26527 -32.52344,49.96875 -0.47147,0.91169 -0.94295,1.82338 -1.42871,2.76269 -36.16614,70.66164 -43.64698,154.09863 -19.50097,229.88965 4.46914,13.50923 9.67945,26.56824 15.92968,39.34766 0.4312,0.89219 0.86239,1.78438 1.30664,2.70361 16.00983,32.83847 39.31407,66.98691 67.70508,90.6167 2.39021,2.01923 4.64428,4.16343 6.92578,6.30469 16.63689,15.14118 35.56917,27.28502 55.0625,38.375 0.88728,0.51361 0.88728,0.51361 1.79248,1.0376 33.73584,19.44476 72.69585,30.43454 111.20752,34.9624 0.74113,0.0943 1.48226,0.18852 2.24585,0.28564 10.05983,1.11212 20.20872,0.95826 30.31665,0.96436 1.00405,6.7e-4 2.0081,10e-4 3.04258,0.002 15.65761,-0.0167 30.93594,-0.54064 46.39492,-3.25204 1.47824,-0.25741 1.47824,-0.25741 2.98633,-0.52002 48.742,-8.79147 94.76807,-28.10988 134.01367,-58.47998 0.87399,-0.67289 1.74797,-1.34578 2.64844,-2.03906 2.48175,-1.95167 4.92066,-3.94634 7.35156,-5.96094 1.00805,-0.82242 2.0161,-1.64485 3.05469,-2.49219 14.233704,-11.78323 27.651641,-24.8663 38.945314,-39.50781 0.909075,-1.10071 1.822119,-2.19815 2.738281,-3.29297 C -16.563981,553.5612 5.6831737,473.3465 -0.64306641,396.6001 -6.4602577,335.67211 -29.170958,277.12305 -67.893066,229.5376 c -0.4125,-0.5087 -0.825,-1.01739 -1.25,-1.54151 -10.600038,-13.00362 -21.963425,-25.57587 -34.750004,-36.45849 -0.94617,-0.83403 -1.89234,-1.66805 -2.86718,-2.52735 -79.0664,-69.14542 -191.86363,-91.121645 -380.13282,-14.47265 z"
       fill="#0b1d2c"
       transform="translate(1021.8931,929.4624)"
       id="path1-7" /><path
       d="M 0,0 C 0.66143005,0.10654907 1.3228601,0.21309814 2.0043335,0.32287598 83.258068,13.479484 158.82292,50.523569 219.61328,105.83203 c 1.59171,1.44582 3.19335,2.88078 4.80469,4.30469 9.44247,8.36162 18.49099,17.17509 26.58203,26.86328 0.41588,0.49629 0.83177,0.99258 1.26025,1.50391 2.92381,3.48999 5.83543,6.98987 8.73975,10.49609 -1.29715,2.83641 -2.68807,4.95927 -4.83594,7.21484 -0.56332,0.59684 -1.12664,1.19368 -1.70703,1.8086 -0.60457,0.63164 -1.20914,1.26328 -1.83203,1.91406 -1.279,1.35253 -2.55764,2.7054 -3.83594,4.05859 -0.64034,0.67531 -1.28068,1.35062 -1.94043,2.04639 -2.64098,2.79654 -5.24625,5.6251 -7.84863,8.45752 -4.90653,5.32786 -9.84523,10.62508 -14.79126,15.91626 -3.73058,3.99327 -7.44501,8.00077 -11.14624,12.02124 -5.13044,5.57176 -10.30848,11.09785 -15.49365,16.61865 -4.3844,4.67153 -8.74136,9.36709 -13.08057,14.08057 -3.81166,4.13779 -7.64652,8.25343 -11.48828,12.36328 -4.83078,5.16826 -9.64157,10.35408 -14.43457,15.55737 C 152.40918,267.7349 146.2029,274.36584 140,281 c -4.37274,-0.85161 -6.17327,-2.89883 -9.25,-6.125 -3.77811,-3.89792 -7.61428,-7.62596 -11.74609,-11.14844 -2.25624,-1.94397 -4.43755,-3.9598 -6.62891,-5.97656 -5.64948,-5.09578 -11.60352,-9.7525 -17.625488,-14.39453 C 93.105875,242.08203 91.475043,240.7941 89.847656,239.5 43.02117,202.65293 -15.077849,177.42687 -75.644531,183.50391 -93.319124,185.61926 -110.02534,190.14438 -126,198 c -1.16531,0.56848 -2.33062,1.13695 -3.53125,1.72266 -7.20817,3.69671 -13.3437,7.99858 -19.46875,13.27734 -1.01127,0.79471 -1.01127,0.79471 -2.04297,1.60547 C -164.93434,225.83502 -176.12834,244.37268 -179,262 c -1.49259,16.9472 1.4114,31.2 12.5625,44.5625 14.40578,15.27067 34.43032,25.95941 52.4375,36.4375 0.7367,0.43071 1.4734,0.86142 2.23242,1.30518 33.225856,19.37719 67.721724,36.26752 102.14258,53.38232 8.0351851,3.99532 16.0696486,7.99205 24.100197,11.99668 3.990789,1.98977 7.984669,3.97323 11.97924,5.95539 12.933166,6.43615 25.692302,13.12788 38.327461,20.13136 2.039575,1.13015 4.082266,2.25432 6.127022,3.37505 C 84.580076,446.63973 97.951088,454.46814 111,463 c 0.65082,0.42201 1.30163,0.84401 1.97217,1.27881 34.93415,22.6816 71.26918,50.11513 97.04345,83.18213 2.15821,2.76148 4.44161,5.3885 6.73438,8.03906 36.1278,43.36458 56.80088,98.24614 56.5625,154.625 -0.003,1.34829 -0.003,1.34829 -0.006,2.72382 -0.047,13.92395 -0.6915,27.4447 -3.3065,41.15118 -0.23348,1.32814 -0.23348,1.32814 -0.47168,2.68311 C 258.00781,821.44861 219.90998,882.67445 168,923 c -1.09125,0.90038 -2.17961,1.80425 -3.26563,2.71094 C 143.62353,943.21486 119.74386,957.27737 95,969 c -0.718491,0.34595 -1.436982,0.6919 -2.177246,1.04834 C 10.06912,1009.6911 -87.326667,1015.1005 -229.8127,979.23337 -248.79701,972.46804 -266.97245,963.97495 -285,955 c -1.34675,-0.66636 -1.34675,-0.66636 -2.7207,-1.34619 -37.78221,-18.81328 -73.80406,-43.82402 -104.87305,-72.4585 -2.04047,-1.8616 -4.10667,-3.68076 -6.19141,-5.49219 -4.13296,-3.60731 -8.15694,-7.31955 -12.15234,-11.07812 -0.6973,-0.65557 -1.3946,-1.31114 -2.11304,-1.98657 -6.94401,-6.54804 -13.78971,-13.11024 -19.9729,-20.39234 -1.5919,-1.80898 -3.21458,-3.54431 -4.89062,-5.27343 -0.5087,-0.53198 -1.0174,-1.06396 -1.54151,-1.61206 -1.01576,-1.05928 -2.0413,-2.10929 -3.07714,-3.14893 -1.40479,-1.4773 -1.40479,-1.4773 -3.46729,-4.21167 0.49707,-4.60336 3.71529,-7.12153 6.86157,-10.21802 0.91729,-0.92035 0.91729,-0.92035 1.85311,-1.8593 2.02672,-2.02974 4.06401,-4.04851 6.10173,-6.06721 1.41488,-1.41183 2.82917,-2.82424 4.2429,-4.23723 2.96894,-2.96433 5.94273,-5.92369 8.92043,-8.87923 3.80058,-3.77243 7.59256,-7.55336 11.38133,-11.33765 3.6278,-3.62262 7.26027,-7.24055 10.89284,-10.85839 1.02874,-1.02593 1.02874,-1.02593 2.07828,-2.07258 12.27356,-12.23014 12.27356,-12.23014 18.54633,-17.57105 5.57077,-4.98746 10.75327,-10.41162 16.02773,-15.70793 1.33356,-1.33543 2.66735,-2.67064 4.00134,-4.00563 3.48738,-3.49117 6.97173,-6.98533 10.45545,-10.48015 3.56465,-3.57494 7.13218,-7.14699 10.69946,-10.7193 6.98197,-6.99265 13.96075,-13.98847 20.9375,-20.98633 3.29867,1.09956 3.92737,1.82666 6.06641,4.43359 4.36492,5.14189 9.09334,9.87266 13.87109,14.62891 1.28294,1.28874 1.28294,1.28874 2.5918,2.60352 4.99513,4.98751 10.10342,9.75156 15.4707,14.33398 1.09492,0.96091 2.18872,1.92309 3.28125,2.88672 C -218.61849,778.27992 -152.50691,808.94776 -81,806 -42.212938,803.31113 -2.5632181,790.54305 25,762 37.755414,747.29954 46.041628,729.38198 44.785156,709.62109 42.479369,689.967 33.500447,674.05744 20,660 19.133954,658.94716 18.277771,657.88602 17.4375,656.8125 -0.68751424,635.89902 -28.175223,622.14744 -52,609 c -0.92313,-0.51111 -1.84626,-1.02223 -2.797363,-1.54883 -23.351881,-12.89686 -47.148827,-24.95145 -71.019047,-36.85351 -1.32357,-0.66026 -2.64715,-1.32051 -3.97073,-1.98076 -5.93782,-2.96122 -11.87709,-5.91943 -17.82185,-8.86671 -14.55733,-7.22057 -28.9683,-14.64473 -43.18004,-22.52882 -2.9547,-1.63222 -5.92783,-3.22665 -8.90628,-4.81512 C -212.36408,525.63393 -224.79066,518.56979 -237,511 c -0.89461,-0.55301 -1.78922,-1.10602 -2.71094,-1.67578 C -252.52281,501.37512 -264.90309,492.99702 -277,484 c -1.13121,-0.83244 -2.26269,-1.66451 -3.39453,-2.49609 C -287.10095,476.53651 -293.60329,471.3594 -300,466 c -0.51756,-0.43119 -1.03512,-0.86238 -1.56836,-1.30664 C -315.90996,452.71632 -329.71481,440.09961 -342,426 c -0.44505,-0.50563 -0.8901,-1.01127 -1.34863,-1.53223 -42.97536,-48.945 -70.43757,-113.89021 -66.33887,-179.72558 1.86848,-26.56072 7.94717,-51.7925 19.6875,-75.74219 0.41411,-0.8474 0.82822,-1.69479 1.25488,-2.56787 6.0091,-12.16319 12.63319,-23.55458 20.74512,-34.43213 0.44843,-0.60393 0.89687,-1.20785 1.35889,-1.83008 C -352.55327,111.35908 -335.67638,93.256966 -317,79 c 1.30794,-1.023915 2.61517,-2.048726 3.92188,-3.074219 C -298.12116,64.256811 -282.55014,54.256974 -266,45 c 1.08861,-0.618267 1.08861,-0.618267 2.19922,-1.249023 C -223.19158,20.801969 -176.86081,7.1396381 -131,0 c 1.23363,-0.19754883 2.46727,-0.39509766 3.73828,-0.59863281 C -85.673009,-6.9832312 -41.527212,-6.7911334 0,0 Z"
       fill="#0b1d2c"
       transform="translate(3095,846)"
       id="path2" /><path
       d="m 0,0 c 76.23,0 152.46,0 231,0 0,109.89 0,219.78 0,333 71.61,0 143.22,0 217,0 -3.7125,24.39938 -7.425,48.79875 -11.25,73.9375 -1.16435,7.65566 -2.32869,15.31132 -3.52832,23.19897 -1.44189,9.47205 -1.44189,9.47205 -2.12079,13.9302 -0.46612,3.06133 -0.93172,6.12274 -1.39697,9.1842 -0.7118,4.68338 -1.42464,9.3666 -2.13849,14.04967 -0.11159,0.73224 -0.22318,1.46448 -0.33815,2.21891 -1.60994,10.5538 -3.26259,21.1 -4.98792,31.63568 -1.07386,6.6039 -1.95346,13.20105 -2.64952,19.85659 -0.97511,4.94017 -2.95168,8.93058 -6.77734,12.23828 -0.5298,0.47953 -1.05961,0.95906 -1.60547,1.45312 -7.74205,4.54932 -17.0173,3.53319 -25.66748,3.43555 -1.5184,-0.01 -3.03681,-0.0184 -4.55522,-0.0263 -3.13044,-0.018 -6.26074,-0.0419 -9.39109,-0.0711 -4.26756,-0.0398 -8.53509,-0.0662 -12.80277,-0.088 -7.43223,-0.0405 -14.86427,-0.0959 -22.29636,-0.1553 -3.66469,-0.029 -7.32938,-0.0564 -10.99408,-0.0841 -6.87666,-0.0521 -13.7533,-0.10548 -20.62995,-0.15937 -7.85552,-0.0615 -15.71106,-0.12149 -23.5666,-0.18138 C 265.2023,537.25046 249.10115,537.12587 233,537 c 0.0116,0.57363 0.0232,1.14727 0.0352,1.73828 0.0645,6.07278 -0.17046,12.08935 -0.53054,18.14804 -0.59194,10.31657 -0.6227,20.60194 -0.57859,30.93253 0.005,2.00199 0.009,4.00399 0.0128,6.00599 0.0116,5.31262 0.0298,10.62519 0.0496,15.93779 0.0152,4.26167 0.027,8.52336 0.0386,12.78504 0.0373,13.56053 0.088,27.12099 0.14196,40.68146 0.0149,3.7441 0.0296,7.48821 0.0442,11.23231 0.0413,10.5445 0.083,21.08899 0.1261,31.63348 0.003,0.66547 0.005,1.33094 0.008,2.01658 0.003,0.6663 0.005,1.33259 0.008,2.01908 0.006,1.34824 0.011,2.69647 0.0165,4.04471 0.003,0.66865 0.005,1.33731 0.008,2.02622 0.0409,10.0492 0.0795,20.0984 0.11673,30.14761 0.23826,64.20404 0.59871,128.40193 1.47485,192.60074 0.0274,2.02173 0.0545,4.04347 0.0813,6.06521 0.0487,3.65824 0.0982,7.31646 0.1482,10.97468 0.0138,1.03253 0.0276,2.06507 0.0419,3.1289 0.5416,38.63178 4.35904,76.64065 9.75647,114.88135 0.12695,0.9049 0.25391,1.8099 0.3847,2.7422 0.72176,5.1222 1.46962,10.2394 2.2565,15.352 0.23345,1.5246 0.46193,3.05 0.68464,4.5763 3.32242,22.5506 12.20435,41.7369 30.77572,55.6537 20.53906,13.3784 43.81144,15.0828 67.58594,17.2383 2.25462,0.2096 4.50918,0.4199 6.76367,0.6309 4.21472,0.3936 8.42978,0.783 12.64527,1.1682 9.30358,0.8539 18.60331,1.7491 27.90356,2.6384 0.0234,13.8586 0.041,27.7173 0.0518,41.5759 0.005,6.4383 0.0122,12.8765 0.0236,19.3147 0.011,6.2376 0.0169,12.4752 0.0194,18.7128 0.002,2.3549 0.005,4.7097 0.0109,7.0646 0.0287,12.8598 -0.0795,25.7137 -0.42433,38.5693 -0.0221,1.1733 -0.0442,2.3467 -0.067,3.5556 -0.38146,12.005 -4.44038,18.1999 -12.92693,26.4571 -7.42709,4.8362 -16.39518,6.9887 -24.875,9.25 -1.69588,0.4528 -1.69588,0.4528 -3.42603,0.9148 -7.39528,1.9238 -14.79714,3.5795 -22.32397,4.8977 -0.8362,0.147 -1.6724,0.2939 -2.53394,0.4453 -15.82478,2.5878 -31.57088,3.6235 -47.59106,3.5547 -0.88903,0 -1.77806,0 -2.69403,-0.01 C 209.54312,1348.078 144.59982,1323.8898 95,1279 c -0.641309,-0.5796 -1.282617,-1.1592 -1.943359,-1.7563 C 85.978808,1270.8141 79.08074,1264.3966 73,1257 c -1.204629,-1.3729 -1.204629,-1.3729 -2.433594,-2.7734 C 59.19309,1241.2276 49.466433,1227.0424 41,1212 c -0.399287,-0.7029 -0.798574,-1.4057 -1.209961,-2.1299 C 5.7456752,1149.4088 5.8863707,1080.53 3.9804688,1013.0625 c -0.020923,-0.7354 -0.041845,-1.4707 -0.063402,-2.2284 C 2.5711806,963.20054 2.3029912,915.54718 1.9351425,867.89818 1.8748314,860.11113 1.8108864,852.3241 1.7466431,844.53708 1.0645651,761.42794 0.80763746,678.32173 0.89794922,595.20972 c 9.9646e-4,-0.91984 0.001993,-1.83967 0.00302,-2.78738 C 0.92148577,574.28153 0.96276266,556.14079 1,538 c -49.83,0 -99.66,0 -151,0 0,-67.32 0,-134.64 0,-204 49.5,0 99,0 150,0 C 0,223.78 0,113.56 0,0 Z"
       fill="#0b1d2c"
       transform="translate(1598,500)"
       id="path3" /><path
       d="m 0,0 c 74.25,0 148.5,0 225,0 0,308.55 0,617.1 0,935 -74.25,0 -148.5,0 -225,0 C 0,626.45 0,317.9 0,0 Z"
       fill="#0b1d2c"
       transform="translate(2237,914)"
       id="path4" /><path
       d="M 0,0 C 2.1178521,1.8389139 4.192983,3.7184012 6.25,5.625 6.7654639,6.1019531 7.2809277,6.5789062 7.8120117,7.0703125 32.483847,30.189051 49.996004,63.474537 51.372803,97.675537 52.337485,139.01027 41.761324,174.3522 13.058594,205.07422 c -22.862689,23.90751 -55.90818,41.19522 -89.362793,42.71191 -4.107147,0.046 -8.213392,0.0855 -12.320801,0.0889 -0.741765,6.7e-4 -1.48353,10e-4 -2.247772,0.002 -10.914808,-0.0158 -21.277438,-0.40791 -31.877228,-3.25204 -0.65098,-0.17161 -1.30195,-0.34321 -1.97266,-0.52002 -20.83088,-5.6141 -39.79932,-15.21824 -56.02734,-29.47998 -0.84047,-0.7077 -1.68094,-1.41539 -2.54687,-2.14453 -21.2563,-18.31871 -34.28856,-43.06824 -41.45313,-69.85547 -0.3416,-1.2607 -0.6832,-2.52141 -1.03516,-3.82031 C -233.98184,101.6718 -225.42536,62.35567 -205.5,30.5 -185.8003,0.20070864 -154.16525,-21.190625 -118.875,-28.6875 -77.447463,-37.379513 -32.566885,-27.380669 0,0 Z"
       fill="#0b1d2c"
       transform="translate(2437.75,530.375)"
       id="path5" /></g></svg>
