<svg xmlns="http://www.w3.org/2000/svg" width="24" height="24"><path fill="#FFF" fill-rule="evenodd" d="m10 2.42-.65 1.43a139 139 0 0 0-2.05 4.7c0 .03.38.05.84.05H9l.98-.8 1-.79.52-1.35a8 8 0 0 1 .6-1.36c.05 0 .19.27.31.6s.24.6.26.6l.79-.54c.41-.3.91-.6 1.1-.67s.35-.16.35-.2-.2-.52-.45-1.06l-.44-.98-1.9-.03L10.18 2zm5.24 2.14c-.79.2-1.14.44-3.86 2.7A24 24 0 0 1 9.16 9c-.15.05-1.15.1-2.27.1-1.44 0-1.99.03-1.99.12 0 .22.5.97.79 1.17a3 3 0 0 0 .82.34l.52.14-.41.45c-.23.25-.42.49-.42.53s1.07.05 2.38.03c2.26-.04 2.4-.05 3.11-.3a6 6 0 0 0 2.84-2.18c.1-.14.03.03-.14.38a5.4 5.4 0 0 1-2.17 2.08l-.6.29.69 1.89c.37 1.04.7 1.9.73 1.93.02.02.2.03.39.01l.35-.03-.63-1.7-.62-1.7.31-.03c1.82-.18 3.15-1 3.84-2.39.37-.73.86-2.26 1.02-3.2l.13-.7.58-.28c.32-.16.56-.32.53-.37s-.34-.08-.7-.08c-.53 0-.65-.03-.74-.2-.26-.5-1.55-.91-2.25-.74m.37 1.17a1 1 0 0 0-.22.45c0 .3.34.62.65.62.28 0 .65-.32.65-.55q.02-.18-.19-.04c-.1.07-.26.1-.35.06-.21-.08-.2-.53.02-.66q.24-.12-.09-.1c-.14 0-.35.1-.47.22m1.25 5.15a4 4 0 0 1-1.52 1.47c-.25.15-.45.32-.45.4 0 .1.5 1.58.96 2.83l.16.42h1.64a13 13 0 0 0 1.64-.05c0-.15-1-2.95-1.5-4.22l-.56-1.45zM5.95 12.5c-.06.1-1.25 3.4-1.25 3.47 0 .02.77.02 1.7 0l1.72-.02.53-1.7c.3-.93.55-1.73.55-1.77 0-.12-3.18-.1-3.25.02m7.78.47q-.21.04-.23.11c0 .04.23.7.52 1.5l.51 1.42h.39l.38-.02-.54-1.53c-.32-.87-.6-1.5-.68-1.51-.07 0-.23 0-.35.03"/></svg>