<svg xmlns="http://www.w3.org/2000/svg" width="24" height="24"><path fill="#FFF" fill-rule="evenodd" d="m4.9 6.6-1.78.5c-.1.04-.12.28-.1.91l.03.86 1.9-.81 1.9-.82.03-.57c.03-.5 0-.57-.15-.56-.1.01-.92.23-1.83.48m14.61-.38q-1.5.28-1.4 2.26c.05.93.27 1.44.74 1.73.43.26 1.18.35 1.73.2.41-.1.42-.11.42-.55s0-.44-.26-.35c-.29.11-.94.13-1.19.04-.4-.16-.6-1.3-.34-2.02.14-.42.66-.59 1.32-.44l.47.1v-.86l-.5-.11-.53-.1zM11 8.3v2.1h1.1c1.65 0 2.1-.27 2.1-1.23 0-.4-.05-.53-.28-.76l-.29-.26.21-.16c.16-.13.21-.28.21-.67 0-.89-.43-1.12-2.07-1.12H11zm4.65-2c-.04.06-.38 1-.76 2.1l-.69 2.01.53-.03c.51-.03.52-.04.61-.4l.1-.39.74.03.75.03.12.35c.11.33.14.35.63.38.29.02.52 0 .52-.03 0-.04-.31-.97-.7-2.07l-.7-2.04c0-.1-1.1-.03-1.15.06M12 7.5v.4h.5c.4 0 .51-.04.6-.2a.6.6 0 0 0 .05-.4c-.05-.17-.15-.2-.6-.2H12zm4.17-.3c-.04.08-.14.42-.23.75l-.21.73q-.07.12.46.12c.28 0 .5-.01.5-.03a6 6 0 0 0-.52-1.57M7.2 8.8v1.6h1.61l.23-.53c.44-.98.47-.87-.61-1.74-.54-.44-1.04-.83-1.1-.87-.1-.06-.13.28-.13 1.53m-2.25-.45-1.9.82-.03.97c-.01.53 0 .97.02.97s.9-.52 1.95-1.16L6.9 8.78v-.64c0-.35-.01-.64-.03-.64zM12 9.1v.5h.55c.44 0 .56-.04.65-.2.24-.45-.13-.8-.86-.8H12zm-7.07 1.18C3.34 11.24 3 11.5 3 11.68c0 .22.02.22 1.23.22h1.22l.73-.73.73-.73-.03-.66-.03-.67zm1.55.98c-.32.3-.58.58-.58.6s.56.04 1.25.04H8.4v-1.2H7.05zm4.68-.4c-.19.18-.21.75-.04.92.16.16.68.15.68-.01 0-.08-.1-.13-.22-.13-.19 0-.23-.04-.23-.29s.05-.3.23-.33q.2-.04.2-.15c-.07-.19-.44-.2-.62-.02m.84.45c0 .47.03.6.15.6q.14-.02.16-.22v-.23l.16.23c.08.12.22.22.3.22.16 0 .17-.12.02-.27q-.12-.11 0-.31c.2-.37-.05-.61-.61-.62-.15 0-.18.1-.18.6m1.1 0v.6h.4c.44 0 .53-.22.12-.28-.28-.04-.29-.22-.02-.22q.18 0 .2-.1-.02-.09-.2-.1c-.26 0-.26-.18 0-.22.35-.05.27-.23-.12-.26l-.38-.03zm.94-.45c-.03.07-.04.33-.02.57.03.42.05.44.36.47q.63.08.62-.54 0-.34-.22-.48c-.28-.2-.67-.2-.74-.02m1.26.06c-.22.22-.24.37-.1.74.1.26.38.34.74.2.25-.1.22-.9-.03-1.04-.28-.14-.38-.13-.61.1m1 .4c0 .45.03.6.13.57.06-.02.1-.14.09-.25-.04-.3.06-.28.18.03q.2.47.4.03l.09-.23v.23q.01.2.16.22c.12 0 .15-.13.15-.6 0-.7-.2-.83-.41-.25-.16.43-.24.44-.35.03-.06-.18-.17-.34-.27-.36-.15-.03-.17.05-.17.58m1.52 0c-.17.48-.18.6-.07.6q.14 0 .2-.1c.03-.05.15-.1.26-.1.1 0 .19.05.19.1q.01.09.16.1c.18 0 .15-.2-.1-.83-.23-.53-.41-.46-.64.23m.88-.46q.02.15.15.16c.11 0 .15.12.15.46 0 .59.24.55.28-.04q.03-.43.18-.42c.35 0 .04-.25-.34-.28-.33-.02-.42 0-.42.12m1.07-.07c-.04.03-.07.3-.07.6 0 .4.04.53.15.53.12 0 .15-.13.15-.6 0-.55-.06-.7-.23-.53m.6.1c-.2.22-.22.55-.07.84.12.22.7.27.7.06 0-.08-.1-.13-.22-.13-.19 0-.23-.04-.23-.29s.05-.3.23-.33q.2-.04.2-.15c-.07-.2-.43-.2-.61 0m-6.07.42c0 .25.04.31.2.31.17 0 .2-.05.18-.27-.02-.17-.1-.3-.2-.31-.14-.03-.18.03-.18.27m1.15-.09c-.07.22.11.53.26.44.05-.03.09-.18.09-.35 0-.34-.25-.4-.35-.09"/></svg>