<svg xmlns="http://www.w3.org/2000/svg" width="24" height="24"><path fill="#FFF" fill-rule="evenodd" d="M3.22 6.33c-.05.06-.1.6-.08 1.22l.01 1.1.4.03c.83.06 1.32-.39 1.05-.95A2 2 0 0 1 4.49 7c.02-.43 0-.46-.34-.63-.42-.2-.79-.22-.93-.04m2.25.15c-.08.15-.18.38-.22.52s-.13.38-.2.55c-.15.36-.35.99-.35 1.08q.02.06.2.07.2-.02.35-.3c.13-.26.2-.3.5-.27.28.02.37.07.44.3q.1.26.3.27c.28 0 .27-.09-.15-1.25-.48-1.34-.61-1.49-.87-.97m1.5-.12a8 8 0 0 0-.07 1.2c0 .86.03 1.06.16 1.1q.32.14.36-.44c.03-.42.12-.4.43.08q.25.39.45.4c.26 0 .25-.2 0-.7-.2-.36-.2-.41-.06-.62.19-.27.2-.57.03-.78-.3-.37-1.2-.54-1.3-.24m2-.08c-.2.04-.27.4-.26 1.32s.06 1.1.3 1.1q.2.01.2-.27c0-.16.03-.34.08-.42.07-.1.13-.07.25.18.19.35.56.57.8.47.14-.05.1-.15-.24-.57-.22-.28-.4-.55-.4-.61s.16-.33.36-.6q.37-.5.26-.6c-.1-.1-.52-.02-.52.11 0 .04-.11.2-.24.36l-.25.29-.05-.25-.08-.4q-.04-.13-.2-.11m2 0-.29.07-.02 1.15-.02 1.15h.65c.58 0 .65-.02.65-.2 0-.16-.08-.21-.38-.25-.2-.03-.38-.08-.37-.12v-.23q0-.15.3-.15c.25 0 .3-.04.3-.25s-.05-.25-.3-.25-.3-.04-.3-.25q0-.24.13-.24.56.07.57-.2 0-.44-.93-.22m1.4.01c-.14.1-.17.27-.17 1.2 0 .91.03 1.12.16 1.17.22.08.37-.11.37-.47 0-.4.2-.38.4.05q.27.56.62.41c.14-.05.12-.13-.1-.52-.26-.46-.26-.48-.1-.79.1-.17.16-.4.14-.5-.08-.4-.95-.77-1.31-.55m2.73 1.06c-.22.64-.41 1.2-.41 1.25 0 .2.3.07.42-.18.14-.3.36-.38.74-.29q.23.07.24.26c0 .21.22.36.39.26.15-.1-.7-2.46-.89-2.46-.04 0-.26.52-.49 1.16m4.16-1.1c-.04.04-.07.58-.07 1.21 0 1.28 0 1.3.74 1.19.85-.13 1.24-.85.92-1.7-.12-.32-.24-.45-.49-.53-.48-.17-1.01-.25-1.1-.17m-2.37.3-.06 1.16c-.06.77-.04.89.1.94q.4.17.33-.83c-.03-.35-.01-.63.02-.63.04 0 .3.34.59.75s.58.75.66.75c.16 0 .27-.35.21-.65a10 10 0 0 1-.04-.98c0-.7-.03-.78-.18-.75s-.18.15-.18.7c0 .4-.04.67-.1.65-.05-.02-.3-.32-.56-.68q-.78-1.09-.8-.42m2.75.27c-.03.07-.04.42-.02.77.03.62.04.64.3.65.67.02.92-1.1.34-1.48-.18-.13-.56-.09-.62.06M3.36 9.52a.6.6 0 0 0-.24.73c.05.11.24.3.41.4.45.28.42.5-.05.48-.65-.04-.54.4.12.47.5.05.8-.18.8-.6 0-.3-.15-.5-.53-.75q-.63-.4.46-.42L5 9.8v.9c0 .89 0 .91.23.88.2-.03.22-.08.25-.9.03-.86.03-.88.27-.88.14 0 .25-.02.25-.04l.06-.2c.05-.14-.1-.16-1.24-.15-.7.01-1.37.06-1.46.11m2.99.12c-.28.22-.3.3-.3.86 0 .55.03.64.28.86.4.35 1.09.34 1.42-.02.93-1-.34-2.55-1.4-1.7m1.95.87c0 1.09 0 1.1.22 1.07.2-.03.24-.1.28-.61l.05-.59.3.42c.45.63.63.8.85.8.19 0 .2-.07.2-1.1 0-1.1 0-1.11-.22-1.08-.2.03-.24.1-.28.63l-.05.6-.24-.35c-.4-.57-.73-.9-.93-.9-.16 0-.18.1-.18 1.1m2.27-1.03c-.04.03-.07.53-.07 1.1v1.03h.58c.63 0 .74-.04.65-.26-.03-.08-.2-.14-.4-.14-.29 0-.33-.03-.33-.25 0-.21.05-.25.3-.25.23 0 .3-.05.3-.2q0-.2-.27-.22c-.4-.04-.39-.4.02-.48q.29-.05.33-.23c.03-.14-.05-.17-.5-.17-.3 0-.58.03-.61.07m1.42.3c-.04 1.72-.03 1.78.18 1.81q.32.04.33-.66c0-.2.04-.23.38-.2.36.03.37.04.4.46.03.37.06.43.24.4.22-.03.23-.09.2-1.55-.02-.55-.04-.63-.21-.63s-.2.08-.23.43c-.03.42-.03.42-.43.42s-.4 0-.43-.42c-.03-.35-.07-.43-.23-.43-.15 0-.2.07-.2.38m2.54-.28c-.34.14-.6.77-.52 1.24.2 1.16 1.84 1.13 2.04-.03.15-.9-.66-1.55-1.52-1.2m1.75-.01c-.02.05 0 .48.02.94.06.98.18 1.15.86 1.16.3 0 .46-.06.62-.23.2-.2.22-.35.22-1.1 0-.86 0-.88-.22-.85-.21.03-.23.08-.24.74 0 .87-.07 1.04-.37 1.04-.38 0-.47-.18-.47-1.02 0-.7-.02-.78-.2-.78q-.17 0-.22.1m2.25.02c-.47.23-.35.83.22 1.17.45.26.4.46-.1.46q-.37 0-.43.14c-.12.36.85.44 1.18.1.3-.33.25-.58-.2-.99q-.75-.69-.05-.54c.27.05.35.03.35-.08 0-.35-.5-.49-.97-.26m1.34-.05c-.04.03-.07.53-.07 1.1v1.03h.6c.53 0 .6-.02.6-.2 0-.14-.08-.2-.32-.22-.25-.02-.34-.08-.36-.25-.03-.2.01-.23.27-.23.24 0 .31-.04.31-.2s-.07-.2-.3-.2c-.25 0-.3-.04-.3-.25s.05-.25.29-.25.41-.14.41-.36a3 3 0 0 0-1.13.03M6.7 10c-.24.24-.27.82-.04 1.04.22.22.61.2.74-.04.2-.36.19-.81-.01-1.01-.24-.24-.44-.24-.69.01m7.95.02c-.31.46-.1 1.18.34 1.18.51 0 .8-.8.4-1.15q-.46-.4-.74-.03"/></svg>