<svg xmlns="http://www.w3.org/2000/svg" width="24" height="24"><path fill="#FFF" fill-rule="evenodd" d="M3.2 5.76c-.12.04-.15.3-.15 1.5V8.7h1.12c1.05 0 1.13-.01 1.42-.26.42-.35.44-.92.05-1.23-.21-.17-.24-.24-.15-.35.07-.08.1-.3.1-.48-.05-.48-.5-.68-1.49-.67-.41 0-.82.03-.9.05m3.91.35L6.46 7.6a5 5 0 0 0-.4 1.12c.03.05.25.09.49.09.43 0 .44 0 .47-.37.03-.38.03-.38.52-.41.54-.04.66.05.66.5 0 .27.02.28.54.28.3 0 .58-.05.61-.1.1-.18-.77-2.08-1.15-2.5-.2-.22-.47-.42-.62-.46-.25-.06-.3-.02-.47.37m3.09-.3c-.2.06-.45.2-.57.32q-.74.65.97 1.5c.46.23.66.38.68.54.04.25-.23.37-.63.27-.22-.05-.26-.1-.2-.31.13-.53-.6-.76-.9-.28-.26.38 0 .7.65.84.63.14.77.14 1.37 0q.94-.2.96-.73c0-.37-.27-.62-1.04-1.01-.79-.4-.97-.58-.79-.8.15-.19.5-.2.75-.02q.18.14.07.21-.24.14.04.4c.21.22.57.2.79-.04.23-.26.13-.63-.22-.8a4 4 0 0 0-1.93-.09m2.54.81c0 .51-.01 1.2-.04 1.53l-.05.6h.65c.63 0 .65 0 .63-.25-.02-.14-.05-.81-.07-1.5l-.03-1.25-.56-.03-.55-.03zm1.52.6v1.53l1.12.03 1.12.03v-.6l-.57.06-.56.06.06-1.31.06-1.32h-1.24zm2.54-1.5-.03 1.52-.02 1.5h1.2l-.02-.35-.02-1.53-.02-1.17h-.55c-.3 0-.54.01-.54.03m2.23.17q-.83.38-.83 1.35c0 .93.58 1.49 1.55 1.49.86 0 1.54-.57 1.11-.93-.12-.1-.2-.09-.37.08-.33.3-.97.24-1.21-.13-.16-.23-.08-.96.12-1.16.26-.26.8-.26 1.13 0 .21.17.26.18.37.05q.3-.38-.4-.72a1.5 1.5 0 0 0-1.47-.03M4.2 6.5c0 .33.04.4.19.4.22 0 .31-.27.2-.58-.14-.38-.39-.27-.39.18m3.21.5-.11.36c0 .02.13.04.3.04.28 0 .3-.01.18-.28-.19-.44-.25-.45-.37-.11m-3.21.84q0 .7.38.33c.25-.25.08-.78-.25-.78q-.13 0-.13.45m3.7 1.54c-.32.32-.36.5-.19.83.1.18.07.24-.2.45-.92.72.28 1.85 1.42 1.35.42-.19.44-.19.66 0 .24.19.67.24.89.1.1-.07.02-.19-.28-.46-.39-.35-.4-.39-.26-.55.34-.37.1-1-.33-.86-.27.08-.34.35-.15.57.29.31.1.3-.2-.02-.29-.29-.29-.3-.11-.5.26-.29.22-.7-.1-.97-.37-.32-.8-.3-1.16.06m3.44-.1q-.83.39-.83 1.36c0 .93.58 1.49 1.55 1.49.85 0 1.54-.57 1.11-.93-.12-.1-.19-.08-.35.08-.27.27-.71.27-1.05 0s-.37-.98-.06-1.29c.27-.27.9-.27 1.15 0 .14.16.21.17.32.08.08-.06.13-.2.11-.31-.08-.55-1.21-.83-1.95-.48m3.12-.06c-.42.2-.83.7-.9 1.13-.26 1.34 1.3 2.3 2.52 1.54.48-.29.67-.65.67-1.26 0-.57-.17-.9-.65-1.26-.33-.25-1.24-.33-1.64-.15m.46.56c-.23.15-.27 1.25-.07 1.56.34.52.76.13.76-.7 0-.73-.3-1.1-.7-.86M3 10.7v.3l1.78-.02 1.77-.03.03-.27.03-.28H3zm14.42-.02.03.27 1.78.03L21 11v-.6h-3.61zm-9.35.19c-.11.1-.08.58.05.71s.88.17.88.04c0-.09-.73-.82-.81-.82q-.06 0-.12.07"/></svg>