<svg xmlns="http://www.w3.org/2000/svg" width="24" height="24"><path fill="#FFF" fill-rule="evenodd" d="M10.25 2.19a5.37 5.37 0 0 0-3.8 6.36c.17.62.36.92.53.81q.1-.07-.1-.58a4.93 4.93 0 0 1 8.06-5.17c.41.38.55.45.6.34.07-.2-.54-.77-1.36-1.27a5.3 5.3 0 0 0-3.93-.5m.23.38A4.83 4.83 0 0 0 7 8.66l.2.66.5-.06c1.04-.14 4.03-1.4 5.13-2.16a9 9 0 0 0 2.1-2.1l.48-.72-.4-.42a4.8 4.8 0 0 0-4.54-1.3m5.95 3.17a1 1 0 0 0-.02.47c.13.46.1 1.75-.07 2.3a5 5 0 0 1-2.7 3.17c-.7.33-.9.38-1.73.41a4.7 4.7 0 0 1-3.74-1.3q-.77-.73-.77-.34c0 .23 1.24 1.3 1.84 1.6a5.3 5.3 0 0 0 7.64-4.42c.04-.78-.12-1.97-.28-2.07q-.07-.01-.17.18m-.56.95c-.75 1.05-2.59 2.24-4.47 2.9-.81.28-1.9.53-2.93.67-.26.03-.47.1-.47.15 0 .15.83.8 1.34 1.07.78.4 1.35.53 2.27.53a4.7 4.7 0 0 0 4.64-3.61c.16-.57.19-1.7.06-2.03-.06-.16-.12-.11-.44.32m-3.64 7q-.23.01-.25.35c-.03.28-.06.32-.3.29-.43-.05-.88.45-.88.96 0 .58.46.9.9.62q.15-.09.21.02.08.1.2.06.15-.04.28-1.18c.07-.61.11-1.13.1-1.14zm4.43.18q-.12.33.24.34c.19 0 .34-.25.24-.4-.09-.16-.41-.11-.48.06m-12.4.94-.16 1.1c0 .1.18.11.62.07.51-.05.67-.1.85-.32.27-.3.29-.48.07-.7-.14-.14-.14-.16 0-.3.4-.41.04-.85-.7-.85h-.5zm13.29-.87c-.15.48-.16.67-.01.67.2 0 .49-.46.41-.65-.07-.18-.35-.2-.4-.02m-2.88.08c-.1.05-.18.16-.18.24s-.09.17-.2.2c-.2.07-.28.25-.1.25.06 0 .1.24.1.54 0 .6.14.8.52.74.29-.04.36-.34.1-.4-.16-.05-.18-.11-.13-.43s.1-.39.33-.42c.34-.04.39.04.29.5s.1.8.47.75c.3-.03.45-.38.17-.38-.13 0-.16-.09-.13-.42.02-.24.06-.4.09-.38.07.06.39-.19.39-.3q-.02-.07-.2-.13-.2-.03-.13-.26.04-.2-.01-.21c-.17 0-.46.22-.46.35q-.01.26-.47.17c-.18-.03-.22-.09-.17-.28q.13-.39-.29-.13m-8.34.44c-.45.31-.53 1.24-.13 1.45.28.15.76.12.9-.05q.26-.3-.32-.3c-.53 0-.45-.23.09-.27.44-.03.48-.05.51-.3.06-.54-.58-.86-1.05-.53m1.46-.08c-.12.03-.18.2-.22.67-.03.35-.07.7-.09.77q-.02.14.22.14c.22 0 .25-.05.33-.55q.11-.8.4-.63c.05.03.07.3.05.62-.03.51-.01.56.19.6.19.02.22-.04.28-.46l.1-.66c.02-.1-.05-.27-.14-.39-.15-.18-.22-.2-.48-.1-.17.05-.35.07-.4.03-.04-.04-.15-.06-.24-.04m1.93.03c-.49.2-.65 1.06-.26 1.44.27.28 1.04.18 1.04-.13q.02-.17-.37-.16c-.56 0-.53-.23.04-.27.44-.03.48-.05.51-.3a.6.6 0 0 0-.17-.47c-.22-.22-.43-.25-.79-.1m3.17.18c-.56.57-.29 1.41.46 1.41q.35 0 .45-.2.09-.18.03-.2l-.37-.03c-.5-.03-.43-.27.08-.27.46 0 .46 0 .46-.34q0-.36-.22-.5c-.33-.23-.56-.2-.89.13m5.54-.19a.6.6 0 0 0-.3.36c-.05.22-.01.32.2.49.35.27.34.35-.04.35-.24 0-.3.04-.27.17.07.37.82.27 1-.12.1-.22.08-.29-.15-.53q-.5-.5-.03-.4c.28.06.41-.13.23-.3q-.18-.2-.64-.02m-1.96.63c-.02.34-.06.69-.08.77-.05.19.4.27.46.08l.13-.8.09-.68h-.27c-.26 0-.27.03-.33.63m-5.05-.21c-.17.17-.15.67.04.75q.34.1.37-.48c.02-.36-.18-.5-.4-.27m-6.69.43c-.08.32-.04.36.24.28q.24-.05.2-.27c-.05-.32-.36-.33-.44-.01m14.6.2c-.15.11-.17.18-.08.32.17.28.48.23.52-.08.04-.32-.18-.43-.45-.24"/></svg>