<svg xmlns="http://www.w3.org/2000/svg" width="24" height="24"><path fill="#FFF" fill-rule="evenodd" d="M3 7.85V9.3h.45c.25 0 .45-.05.45-.1q.02-.08.22.04c.5.35 1.3.07 1.49-.52.3-.93-.54-1.83-1.34-1.4a1 1 0 0 0-.28.2c-.04.06-.1-.08-.14-.3a1 1 0 0 0-.32-.62C3.03 6.2 3 6.27 3 7.85m3.44-.5c-.17.07-.39.23-.48.36-.2.3-.2.88 0 1.18.48.68 2.19.68 2.19 0q0-.24-.15-.2c-.51.12-.97.11-1.15-.03-.19-.14-.14-.15.58-.16h.77v-.3q.02-.64-.55-.86-.61-.25-1.21 0m3.12.07c-.21.17-.26.18-.26.05 0-.12-.1-.16-.45-.16H8.4v2h.9v-.59q-.01-.94.5-.76c.17.06.2.15.2.7v.65h.9v-.8c0-.73-.03-.83-.25-1.05-.3-.3-.73-.32-1.09-.04m1.98-.07c-.73.33-.5 1.06.37 1.2.54.09.52.3-.04.23-.23-.02-.5-.08-.6-.12-.14-.06-.17-.02-.17.22 0 .26.05.31.39.41q.72.22 1.28.01c.35-.13.43-.25.43-.67 0-.28-.05-.35-.35-.48a2 2 0 0 0-.6-.14q-.23 0-.25-.1c0-.13.51-.13.84 0 .24.09.26.08.26-.2 0-.16-.05-.32-.1-.35a2.6 2.6 0 0 0-1.46-.01m2.51 0q-.71.3-.69.97c.03.86 1.04 1.34 1.99.95.58-.24.83-1.05.49-1.55-.33-.46-1.18-.64-1.79-.37m3.2.1c-.23.23-.25.24-.25.06s-.07-.2-.4-.2h-.4v2h.8v-.54q0-.54.16-.7c.37-.38.64-.1.64.66v.58h.9v-.7c0-.8-.12-1.13-.47-1.29q-.58-.27-.98.14m2.15-.18c-.52.2-.68.81-.27 1.07.12.08.39.18.6.21.52.1.48.29-.05.22-.24-.02-.5-.08-.6-.12-.15-.06-.18-.02-.18.23 0 .26.05.32.36.42.47.16 1.29.08 1.54-.15s.26-.67.02-.88c-.1-.09-.37-.2-.6-.23-.23-.04-.42-.1-.42-.15 0-.12.37-.11.78 0 .3.1.32.08.32-.19 0-.22-.06-.3-.31-.39a2.3 2.3 0 0 0-1.19-.04m-15.46.77a1 1 0 0 0-.02.38c.02.19.09.23.38.23.33 0 .35-.02.35-.35s-.03-.35-.33-.38q-.32-.03-.38.12m10.36.06c-.17.33.04.62.43.58.25-.02.33-.08.35-.26.07-.48-.56-.73-.78-.32M11.58 10c-.1.06-.18.18-.18.26q-.01.12-.15.14-.14 0-.15.1.02.09.15.1c.11 0 .15.12.15.45 0 .25.04.45.1.45.05 0 .1-.2.1-.45 0-.38.03-.45.2-.45q.18 0 .2-.1c0-.05-.1-.1-.2-.1q-.19 0-.15-.1c.03-.05.15-.1.26-.1.23 0 .25-.15.03-.24-.19-.07-.15-.08-.36.05m3.12.69c0 .79 0 .8.25.8q.23 0 .25-.12 0-.15.12 0c.18.18.63.14.81-.06.53-.59-.19-1.47-.8-1q-.14.13-.13-.16c0-.21-.05-.26-.25-.26-.25 0-.25.01-.25.8m4.3-.6c0 .22-.07.25-.3.1-.16-.1-.65.12-.73.32q-.04.15-.18-.04c-.41-.51-1.31-.32-1.37.29-.05.49.27.75.86.71.35-.02.48-.07.5-.2.03-.15-.04-.18-.37-.18-.23 0-.41-.04-.41-.1q.02-.06.18-.04c.1.03.28.01.42-.04.2-.08.26-.05.4.22.14.3.18.31.8.33.36 0 .7-.03.77-.08q.11-.1.18 0c.1.17.91.13 1.1-.05.26-.27.11-.64-.26-.64q-.16-.01-.25-.11-.07-.12.25-.04c.24.05.31.03.31-.09 0-.2-.15-.28-.56-.28-.7 0-.88.58-.25.78.42.14.28.24-.16.12-.3-.08-.32-.11-.35-.6-.03-.5-.05-.53-.3-.56-.23-.03-.28 0-.28.17m-6.64.32c-.31.25-.34.61-.06.89.33.33.76.26.98-.17.17-.31.15-.4-.13-.68-.3-.3-.45-.31-.79-.04m1.16.47c.04.71.26.82.3.15.03-.41.06-.48.26-.51.38-.06.24-.2-.18-.2h-.4zm-1.01-.29c-.34.34-.03.83.43.65.23-.09.21-.6-.04-.74-.15-.08-.24-.06-.39.09m2.73.16c-.08.2.04.35.27.35q.2.01.19-.25.01-.26-.2-.25c-.11 0-.23.07-.26.15m3.3 0c-.04.09-.02.21.04.27.15.15.44.01.4-.2s-.36-.28-.44-.07"/></svg>