<svg xmlns="http://www.w3.org/2000/svg" width="24" height="24"><path fill="#FFFFFF" fill-rule="evenodd" d="M7.1 6.17a.7.7 0 0 0-.4.58c0 .48.7.73 1.03.37a.58.58 0 0 0-.63-.95m7.92.09c-.26.18-.3.75-.07.94.24.2.67.15.87-.1q.35-.43-.02-.8-.35-.36-.78-.04M3.6 6.48c0 .1-.43 2.96-.55 3.7l-.06.32h1.15c1.2 0 1.57-.08 1.94-.43l.22-.2-.06.31-.06.32h.55c.6 0 .66-.07.67-.75v-.3l.21.36c.36.6 1.07.87 1.6.58.28-.15.36-.03.14.2-.2.24-.92.29-1.27.1-.25-.14-.34-.04-.41.44-.06.36-.04.4.28.53.96.4 1.99.03 2.45-.86.13-.26.6-2.8.6-3.26 0-.02-.23-.04-.5-.04q-.51 0-.56.15c-.05.13-.1.13-.34 0-.6-.3-1.38-.11-1.8.45-.15.2-.15.19-.12-.2l.04-.41-.53.03-.54.03-.1.66-.1.66-.27-.27c-.22-.23-.24-.3-.12-.34.22-.08.46-.73.4-1.06a1 1 0 0 0-.32-.51c-.23-.22-.36-.24-1.4-.27-.71-.02-1.14 0-1.14.06m8.06.14c-.08.36-.56 3.61-.56 3.76 0 .1.27.13 1.3.1 1.15-.03 1.32-.05 1.6-.26l.3-.23v.26c0 .24.03.25.54.25h.53l.13-.95c.14-.99.22-1.21.37-1.12.06.04.06.31 0 .7-.16 1.03.14 1.47.98 1.47.52 0 .65-.09.65-.43v-.3l.28.25c.35.35.72.48 1.32.48.77 0 .96-.11 1.03-.62.03-.23.05-.43.04-.45l-.44.1c-.46.12-1.14 0-1.2-.2-.04-.1.19-.13.9-.13h.95l.07-.28c.1-.44-.15-1.03-.54-1.3a1.7 1.7 0 0 0-1.69-.02c-.4.24-.4.24-.38.03 0-.13-.08-.19-.32-.21-.31-.03-.32-.04-.26-.43l.07-.39h-1.1l-.07.4-.06.4h-1.38l-.12.7-.12.7-.23-.28-.23-.27.24-.28a1 1 0 0 0 .24-.63c0-.81-.4-1.04-1.8-1.04-.95 0-1 .01-1.04.22m-7.1.84c-.13.35-.07.44.33.44.42 0 .6-.21.4-.46-.16-.2-.65-.18-.73.02m8.04.14c0 .3.02.31.38.28.32-.03.37-.06.37-.28s-.05-.25-.37-.28c-.36-.03-.38-.02-.38.28m6.18.8q-.43.29.22.3c.41 0 .57-.21.24-.34-.2-.08-.26-.07-.46.05m-9.86.11c-.43.21-.4.93.04 1.04.6.15 1.02-.65.52-1-.26-.18-.25-.18-.56-.04m8.14 0c-.08.25-.13.83-.09.96q.06.1.24.12.2.02.19-.29c0-.16.03-.43.06-.6.06-.27.04-.31-.15-.31q-.2.01-.25.13m-12.71.35a1 1 0 0 0-.05.39c0 .3.02.33.33.33.77 0 .93-.6.2-.7a1 1 0 0 0-.48-.02m8.32 0c-.15.02-.27.09-.27.15 0 .07-.03.22-.06.35-.06.2-.03.22.33.22.44 0 .78-.26.68-.53q-.1-.27-.67-.19"/></svg>