<svg xmlns="http://www.w3.org/2000/svg" width="24" height="24"><path fill="#FFF" fill-rule="evenodd" d="M10.5 2.06c-.57.09-1.39.28-2 .46-.58.18-.62.22-.41.3q.22.08.9-.11c2.21-.65 4.9-.5 7.03.38a9 9 0 0 1 3.45 2.76 5.6 5.6 0 0 1 .42 5.38c-.2.37-.2.67 0 .67.13 0 .68-1.28.8-1.88.65-3.13-1.53-6.23-5.25-7.48a10 10 0 0 0-3.54-.53c-.63.01-1.26.03-1.4.05m1.14.79q.08.2-.06.07c-.07-.05-.3-.1-.5-.1-.34 0-.37.02-.26.16s.1.13-.12-.01c-.31-.22-.64-.23-.36-.02.19.14.19.15-.07.15-.15 0-.27.05-.27.11q.02.1.2.06.2-.05.13.1-.1.24.28.03.2-.11.19 0 .02.09.36-.05c.32-.13.35-.13.24 0-.16.2 0 .2.28 0q.2-.14.22-.06c0 .1.8.08 1-.03q.08-.05.12.05.02.1.32 0c.24-.1.27-.09.22.04q-.08.26.35.05.19-.11.4 0c.1.06.25.1.32.07q.1-.05-.08-.12a2 2 0 0 1-.37-.22c-.2-.17-.47-.22-1.56-.28a5 5 0 0 1-.94-.11q-.12-.07-.04.1m-5.03.31a2 2 0 0 1-.66.15c-.77 0-1.36.29-.62.3.17.01.5.07.72.14l.4.12-.65.18c-.65.19-.68.31-.05.24.18-.02.32-.01.3.02-.07.1.45 1.04.66 1.2.15.12.23.35.3.9q.38 2.72 4.01 4.2c.32.13.67.34.79.46l.2.22-.53.39c-.29.21-.74.52-1 .68a2 2 0 0 0-.58.56c-.12.28-.34.45-2.4 1.82l-1.33.9.22.18c.13.1.26.19.3.19s.8-.5 1.7-1.1c1.34-.89 1.68-1.07 1.85-1 .13.04.3.04.4-.02s.23-.07.3-.05q.33.11.45-.44c.05-.3.15-.39.73-.69.66-.34.68-.35.97-.17.3.18.68.22.87.1a1 1 0 0 0 .18-.38c.1-.39.33-.75.49-.75.06 0 .35.33.62.72.83 1.19 1.78 2.18 2.27 2.39.22.1.38.08.77-.05.28-.09.57-.16.66-.16.08 0 .18-.06.21-.14s.16-.17.3-.2c.12-.03.26-.15.29-.26s.14-.2.24-.2c.22 0 .61-.4.61-.63q.02-.45-2.47-1.88c-1.25-.72-1.73-1.05-1.87-1.28l-.19-.33 1.22.61c.66.34 1.2.58 1.2.54 0-.18-.4-.54-1.34-1.23a15 15 0 0 1-1.68-1.46 16 16 0 0 0-4.14-2.8A4 4 0 0 1 9.58 3.9c-.43-.49-.73-.73-.98-.8a4 4 0 0 0-1.99.05m8.86.45c-.1.17-.22.3-.28.3-.2 0-.08.18.2.3.37.15.71.05.71-.2q0-.18.1-.2c.23 0 .07-.29-.21-.39l-.33-.11zm-4.8.21c-.65.1-.75.14-.59.3q.1.12.74 0c3.89-.61 7.61 1.97 7.36 5.1-.04.5-.02.7.07.79.17.13.24-.02.32-.74a4.5 4.5 0 0 0-1.18-3.32c-1.54-1.68-4.15-2.5-6.72-2.13m5.68.35-.32.34.36.22c.2.12.48.22.62.23q.28-.02.23.22c-.01.11.04.24.12.27q.15.05.15-.1c0-.08.12-.26.26-.4s.23-.28.2-.31-.26 0-.53.05-.5.07-.51.02q-.05-.07-.17-.04a.3.3 0 0 1-.25-.01c-.15-.1.38-.67.54-.59q.08.03-.08-.1c-.25-.2-.25-.2-.62.2m-11.73.9a7 7 0 0 0-1.36 2.59c-.54 2.13.4 4.54 2.4 6.12.8.64 1.31.9 1.45.77q.13-.1-.57-.55c-3.2-2.08-3.97-5.82-1.75-8.57.25-.31.51-.6.59-.65.2-.12.16-.27-.06-.27-.1 0-.42.25-.7.55m13.22.17a.38.38 0 0 0-.02.68c.11.07.23.1.26.06q.03-.05-.1-.12c-.25-.1-.2-.33.07-.46.3-.13.6-.03.52.17-.06.18.1.2.2.03.09-.14-.31-.48-.55-.47-.09 0-.26.05-.39.11M5.1 5.7c-.08.17-.18.31-.23.31q-.07.02-.03.2t-.08.14c-.16-.07-.27.37-.19.74.06.26.06.26-.1.07l-.15-.2-.02.2c0 .11-.03.33-.05.5-.04.31.13.85.26.85q.08-.02.03-.18a.3.3 0 0 1 .1-.33c.19-.16.21-.35.04-.26q-.1.04.1-.14c.22-.19.22-.21.06-.22q-.25.01.04-.11c.13-.06.2-.17.18-.24q-.03-.12.1-.18t.09-.16.1-.1q.2-.01.16-.32 0-.08.09-.08.1-.01.1-.14.01-.14.13-.2.14-.06 0-.12c-.06-.03-.1-.13-.06-.22.06-.15.04-.15-.14.01-.2.17-.22.17-.3.01-.09-.14-.12-.12-.24.15m1.23.48c-1.5 1.9-1.26 4.36.59 6.06.78.73 1.93 1.37 2.11 1.19.14-.14.17-.11-.57-.48a6 6 0 0 1-2.35-2.38 3.9 3.9 0 0 1 .31-3.87c.22-.33.39-.64.39-.69 0-.24-.21-.16-.48.17m12.44-.2c-.16.09-.4.16-.52.17q-.4 0-.11.24.13.1.27.02c.26-.16.34-.1.15.1-.15.17-.16.23-.05.52.24.6.63.88.76.54q.06-.13.25-.09c.26.07.34-.2.15-.54q-.13-.25-.16-.16c0 .12-.77.3-.87.2-.03-.04.02-.18.1-.31.15-.22.2-.24.43-.15.15.05.29.07.31.05.08-.08-.08-.27-.18-.2-.05.03-.19.02-.3-.01q-.23-.07-.09-.15c.07-.05.2-.05.3-.02.13.05.13.04 0-.14l-.15-.2zm.79 1.82c-.17.04-.4.06-.53.05q-.23-.01-.17.12l.05.18c0 .01.19-.01.42-.06.23-.06.47-.08.55-.05q.12.04.13-.09c0-.2-.1-.23-.45-.15m.4.51q-.1.11-.56.07c-.43-.04-.49-.03-.49.14 0 .15.05.17.28.13l.27-.06-.27.21c-.53.41-.3 1.4.32 1.4.26 0 .47-.23.53-.55.05-.3.04-.3-.31-.3-.84 0-.94-.37-.1-.4.43 0 .43 0 .45-.37.01-.4-.01-.45-.13-.27m-15.28.7c-.1.07-.35.1-.56.06-.35-.04-.37-.04-.32.22.03.14.1.32.15.39.11.14.47.16.47.02q.01-.1.25-.04c.3.07.41-.13.28-.5-.07-.2-.11-.23-.27-.14m14.4.56c-.2.2.36.47.65.32.26-.14.24-.3-.04-.3l-.39-.05q-.17-.02-.22.03m-15.16.45q0 .15.2.1c.24-.06.28.22.05.3a.16.16 0 0 0-.09.22c.05.13.1.12.36-.06.16-.12.4-.22.54-.23.13 0 .23-.05.2-.11-.04-.16-.48-.18-.58-.03q-.1.15-.04-.04T4.4 10c-.1 0-.26-.03-.35-.06q-.15-.05-.16.09m8.64.6c.2.72.22.69-.58 1.2-.42.25-.76.5-.76.56 0 .15 2.58-1.01 2.72-1.23q.27-.41-.3-.51l-.75-.15c-.37-.08-.39-.07-.33.13m-7.38.05c-.04.07-.27.17-.51.23-.4.1-.43.13-.34.3s.12.18.25.04c.26-.26.39-.16.14.1q-.24.25-.13.36t.27-.16c.14-.22.23-.26.44-.2q.67.13.04.44c-.22.11-.42.17-.46.14-.15-.15-.04.1.16.37q.35.48.54.18.07-.11-.09-.05a.3.3 0 0 1-.27-.08q-.14-.13.1-.25c.2-.1.22-.1.16.05q-.08.19.1.11l.21-.06q.04-.01-.06-.14-.14-.14.03-.2c.17-.06.3.09.21.24q-.05.1.04.1.34 0-.11-.59-.31-.4-.55-.41c-.32 0-.38-.18-.08-.22.24-.03.25-.05.12-.22q-.14-.19-.21-.08m1.14 1.6c0 .06-.18.22-.4.35q-.43.23-.28.35.1.13.43-.14c.33-.25.55-.3.55-.14q-.02.1-.2.1c-.23 0-.44.35-.35.58q.05.23.2-.1a.7.7 0 0 1 .4-.32c.32-.08.32-.16-.05-.51-.17-.16-.3-.24-.3-.17m.7.74c0 .27-.27.58-.5.58q-.12.02.1.14c.2.12.26.11.4-.05.08-.1.3-.23.5-.28l.35-.1-.33.02c-.26.03-.31 0-.27-.13a.3.3 0 0 0-.1-.3c-.13-.1-.15-.09-.15.12m7.39.34a7 7 0 0 1-2 .42c-.74.05-1.04.1-1.07.21-.04.12.13.13 1.04.08a7 7 0 0 0 2.68-.58c.55-.22.74-.42.44-.45-.07-.01-.56.13-1.1.32m.39.8c-.04.04-.3.09-.6.1-.28.03-.59.07-.67.11-.15.07-.27.09-.92.17-.2.02-.42.08-.5.12q-.1.06-.04-.04c.1-.16-.1-.15-.44.03-.27.14-.29.14-.23-.02q.1-.2-.13-.07c-.1.05-.4.08-.67.08-.54-.01-.52.05.1.3q.41.15.43.05 0-.08.12-.03c.07.04.35.1.62.1.46.04.48.03.3-.12s-.18-.15.06-.09c.52.14.86.17.7.06q-.13-.1-.07-.17c.04-.04.15 0 .25.1.19.16.57.23.48.08-.03-.05.1-.07.27-.04.26.03.29.01.17-.08q-.19-.13.1-.04l.38.11q.1.04.12-.05t.25-.04q.24.03.25-.07-.02-.1-.17-.11-.17 0 .12-.15c.27-.12.28-.13.07-.14q-.2-.01-.17-.11c.07-.11-.08-.14-.18-.04m1.63.4c-.39.22-1.97.7-2.76.84-.98.17-3.27.08-4.21-.17-.41-.11-.78-.16-.85-.11-.2.12.06.25.87.44a12 12 0 0 0 4.8.05c1.25-.29 2.81-.93 2.7-1.11q-.11-.2-.55.05"/></svg>