<?xml version="1.0" encoding="UTF-8" standalone="no"?>
<svg viewBox="0 0 18.040001 21.999998" width="18.040001pt" height="21.999998pt" version="1.1" id="svg1" sodipodi:docname="pink_master_pin.svg" xml:space="preserve" xmlns:inkscape="http://www.inkscape.org/namespaces/inkscape" xmlns:sodipodi="http://sodipodi.sourceforge.net/DTD/sodipodi-0.dtd" xmlns="http://www.w3.org/2000/svg" xmlns:svg="http://www.w3.org/2000/svg"><defs id="defs1"/><sodipodi:namedview id="namedview1" pagecolor="#ffffff" bordercolor="#000000" borderopacity="0.25" inkscape:showpageshadow="2" inkscape:pageopacity="0.0" inkscape:pagecheckerboard="0" inkscape:deskcolor="#d1d1d1" inkscape:document-units="pt" inkscape:lockguides="true"><inkscape:page x="0" y="0" width="18.040001" height="21.999998" id="page2" margin="0" bleed="0"/></sodipodi:namedview><g id="g1" transform="matrix(0.02179683,0,0,0.02179683,3.4479153,4.0081701)"><path d="m 487.94069,152.40822 c 8.28713,5.00355 11.6166,12.30961 13.91553,21.55009 0.57509,3.72684 0.65043,7.24953 0.60502,11.01858 -0.0118,1.28085 -0.0237,2.56171 -0.0359,3.88138 -0.0228,1.44921 -0.0228,1.44921 -0.0462,2.92768 0.86632,0 1.73262,0 2.62518,0 0.43316,-1.29946 0.86632,-2.59893 1.31259,-3.93777 5.90364,-5.14187 12.31214,-4.32451 19.68888,-3.93777 0.43315,1.73262 0.8663,3.46525 1.31259,5.25036 2.59892,-0.64972 2.59892,-0.64972 5.25036,-1.31259 11.30378,12.30017 19.08558,24.53163 25.70929,39.8251 2.62638,6.04051 5.3737,11.86115 8.64784,17.57641 16.19969,28.29769 20.08055,62.93292 20.58551,95.0068 0.10709,2.77447 0.10709,2.77447 1.49877,6.41522 0.45561,8.50472 0.45561,8.50472 -2.62518,13.12591 -0.41583,2.72332 -0.41583,2.72332 -0.40506,5.71182 -0.033,1.11842 -0.066,2.23684 -0.10002,3.38915 -0.0456,2.32429 -0.0867,4.64868 -0.12305,6.97314 -0.3506,11.40745 -2.3654,20.59641 -10.36486,29.12825 -0.98475,1.08119 -1.9695,2.16238 -2.98409,3.27634 -4.74838,4.17258 -9.28109,5.72398 -15.55626,5.91179 -0.96106,0.0525 -1.92213,0.10488 -2.91231,0.15894 -4.74477,-1.16181 -6.59041,-3.48157 -9.5573,-7.29615 -1.07574,-3.77094 -1.74741,-6.98517 -2.215,-10.82888 -0.14953,-1.0667 -0.29906,-2.13342 -0.45313,-3.23245 -1.58893,-11.98642 -2.4706,-24.05261 -3.33083,-36.10939 -0.49374,-6.91814 -1.14322,-13.81262 -1.87659,-20.7092 -0.86631,0 -1.73263,0 -2.62519,0 -0.35193,0.81217 -0.70387,1.62433 -1.06647,2.46111 -1.55871,2.78925 -1.55871,2.78925 -5.49648,5.41444 -0.84081,2.62191 -0.84081,2.62191 -1.1075,5.67593 -0.1472,1.1345 -0.29441,2.26899 -0.44607,3.43786 -0.13705,1.18864 -0.27411,2.37727 -0.41532,3.60193 -1.47275,12.50028 -1.47275,12.50028 -4.07108,17.92507 -3.20215,8.37211 -1.88678,17.24862 -1.45103,26.09031 0.2693,10.07518 -1.0231,17.61076 -6.9475,25.96214 -5.51775,4.07832 -10.28957,4.9055 -17.06369,3.93777 -2.62976,-2.18214 -5.25475,-4.37005 -7.87555,-6.56295 -3.58365,-0.92356 -6.77653,-1.11996 -10.50072,-1.31259 0.21657,1.27239 0.43315,2.54478 0.65629,3.85572 0.2327,1.77571 0.45028,3.55341 0.6563,5.33241 0.12013,0.94752 0.24026,1.89505 0.36404,2.87129 0.53625,7.53371 -1.33074,11.41466 -6.13226,17.17649 -0.69542,0.74787 -1.39084,1.49574 -2.10733,2.26627 -0.6548,0.7208 -1.30961,1.44159 -1.98427,2.18423 -3.7214,3.34048 -8.07031,3.45719 -12.86442,3.72243 -1.21317,0.0947 -2.42633,0.1895 -3.67627,0.28713 -5.89272,-1.46721 -8.36914,-5.20755 -11.66463,-10.13157 -2.40804,-4.2434 -4.46669,-8.60207 -6.48092,-13.04387 -0.56302,-1.21243 -1.12603,-2.42487 -1.70612,-3.67403 -4.87201,-10.54481 -9.56143,-21.16743 -14.12702,-31.84797 -0.77049,-1.79297 -1.54131,-3.58583 -2.31241,-5.37854 -1.86061,-4.32992 -3.71404,-8.66287 -5.56313,-12.99773 -2.4393,7.70252 -3.4092,15.06921 -4.09928,23.09596 -1.05397,10.45425 -3.94444,19.2464 -11.65181,26.7825 -7.03229,4.95492 -13.80494,6.52911 -22.31405,5.25036 -6.85348,-2.32759 -9.6734,-5.5248 -13.12591,-11.81331 -0.9066,-2.61446 -1.78662,-5.23849 -2.62518,-7.87555 -0.95091,0.63281 -1.90183,1.26562 -2.88155,1.91762 -1.26901,0.82908 -2.53802,1.65817 -3.84548,2.51237 -1.24871,0.82231 -2.49741,1.64465 -3.78395,2.49188 -5.6773,3.27594 -10.50058,5.13693 -17.05344,4.72737 -2.75454,0.11381 -2.75454,0.11381 -5.25036,1.47667 -2.50349,3.78161 -4.26416,7.647 -6.09637,11.7928 -3.4714,7.72312 -8.21969,12.12361 -15.45372,16.35612 -5.47473,3.29644 -10.73264,6.91795 -16.03244,10.48664 -13.66018,9.16357 -13.66018,9.16357 -21.48407,8.61772 0,0.86631 0,1.73263 0,2.62518 -5.34374,4.60667 -11.07819,4.59047 -17.8174,4.97349 -3.19495,0.081 -3.19495,0.081 -5.80925,1.58946 -4.50324,0.61811 -7.77935,0.86847 -11.74152,-1.57408 -4.1906,-3.48046 -7.14977,-6.47232 -9.25993,-11.55182 -0.36749,-4.65226 0.001,-9.28947 0.24611,-13.94628 0.0414,-1.24364 0.083,-2.48726 0.12561,-3.76858 0.40575,-8.5971 2.02914,-16.17291 4.87865,-24.28806 -1.01521,0.47376 -2.03041,0.94753 -3.07639,1.43565 -10.44045,4.65169 -17.65588,7.28026 -28.75394,3.3225 -3.47797,-1.4228 -6.82415,-3.0543 -10.17259,-4.75815 0.0457,0.95091 0.0914,1.90183 0.13844,2.88155 0.24349,8.69596 0.14271,14.79053 -5.9682,21.51419 -5.04241,4.79674 -9.77293,6.89476 -16.40225,8.79846 -3.75258,1.2935 -6.25557,3.64492 -9.27018,6.18353 -3.03541,1.37454 -6.10159,2.68223 -9.18813,3.93778 -0.73602,0.4653 -1.47205,0.9306 -2.23039,1.41001 -9.60805,5.93989 -21.06678,5.01468 -31.87134,3.17381 -8.20774,-2.1606 -14.350501,-5.51163 -19.022324,-12.88493 -1.626854,-2.88667 -3.166482,-5.79029 -4.629956,-8.76257 -4.782138,1.7145 -8.372363,3.8014 -12.387579,6.89109 -8.592403,6.1742 -18.249064,10.19882 -28.211108,13.68415 -5.007674,1.79116 -5.007674,1.79116 -8.090243,5.89192 -0.175965,1.06597 -0.351931,2.13193 -0.533239,3.2302 -2.282006,9.57604 -7.707772,15.92226 -15.094798,22.23201 -4.877379,2.33709 -7.772942,2.65157 -13.1259109,1.88686 -6.78710657,-3.06086 -9.5436795,-7.06559 -12.2337564,-13.74632 -1.4755886,-5.48678 -1.3152028,-10.81432 -0.8921552,-16.44328 -4.0245876,-0.88037 -7.5815525,-1.34493 -11.7312825,-1.47666 -4.768683,-0.53387 -6.782474,-2.0706 -9.92647,-5.66056 -3.281478,-4.18039 -3.281478,-4.18039 -3.281478,-7.30128 -0.866311,0 -1.732621,0 -2.625182,0 -6.869433,-7.24075 -13.462617,-15.6894 -13.70017,-26.00571 0.132663,-4.28432 1.254378,-6.96806 3.199441,-10.74684 0.597859,-2.61628 1.062844,-5.22847 1.5023,-7.87554 1.697193,-3.96786 4.090479,-5.57291 7.685838,-7.87556 13.383296,-2.63405 27.7441068,1.99566 40.6903237,5.25037 0.086495,-1.21063 0.086495,-1.21063 0.1746537,-2.44572 0.1394232,-1.59133 0.1394232,-1.59133 0.2816821,-3.21482 0.084666,-1.05075 0.1694022,-2.1015 0.2566767,-3.18407 0.931493,-4.61218 3.5550088,-6.71604 7.1625338,-9.53167 0.86631,-0.43315 1.73262,-0.8663 2.625183,-1.31259 -1.353611,-0.46023 -2.70722,-0.92045 -4.101848,-1.39462 -10.5687738,-4.60527 -16.7389495,-16.51639 -22.1499746,-26.16979 0,-0.86631 0,-1.73262 0,-2.62518 1.2157085,0.0863 1.2157085,0.0863 2.4559762,0.17433 5.8019941,-0.0178 9.4144017,-0.45261 13.9872992,-4.21978 3.0290526,-3.36169 5.8202382,-6.74386 8.4959552,-10.39305 0.905229,-1.09981 1.810457,-2.19962 2.743106,-3.33275 3.709106,-6.72038 4.70174,-13.69058 6.034847,-21.1963 0.550278,-2.95879 1.102236,-5.91725 1.656123,-8.87537 0.234665,-1.304 0.469317,-2.60803 0.711096,-3.95156 0.668148,-3.33434 0.668148,-3.33434 1.980739,-7.27212 -1.137032,-0.13537 -2.274064,-0.27072 -3.445552,-0.41018 C 17.762589,310.64193 12.372552,307.78033 7.5322021,302.04361 5.2540292,295.2091 5.2463767,288.94593 8.1064605,282.35475 16.367214,267.79872 32.285032,260.73099 47.63288,255.96961 c 19.928581,-4.8298 42.338235,-4.89005 60.32792,5.75797 5.40338,3.72383 11.35206,7.85376 13.3464,14.34108 0.13873,0.77494 0.27748,1.54989 0.42043,2.34831 1.01521,-0.64973 1.01521,-0.64973 2.05093,-1.31259 5.7201,-2.34671 10.63367,-1.92108 16.40738,0.082 8.92453,5.88638 13.20209,13.73998 16.98165,23.5446 6.99233,-6.99233 8.18877,-12.65142 8.4498,-22.31405 0.27078,-8.58378 1.02752,-13.55767 7.3013,-19.68887 5.35791,-3.91061 10.39351,-4.70564 16.81757,-5.49647 10.6587,-1.56052 19.10836,-5.29776 28.4822,-10.46484 10.43853,-5.50565 22.14788,-7.45538 33.74282,-4.23003 5.65774,2.90602 9.58358,7.84425 13.52071,12.70035 1.82162,2.38911 1.82162,2.38911 4.56843,3.55322 0.10659,-1.4289 0.10659,-1.4289 0.21535,-2.88667 1.50456,-5.04096 4.06146,-6.73823 8.15242,-9.99313 0.69859,-0.5608 1.39718,-1.1216 2.11694,-1.69938 22.20953,-17.66593 22.20953,-17.66593 30.96959,-17.53829 10.28794,1.99444 18.46602,9.74818 24.27268,18.07377 1.21517,2.23038 1.21517,2.23038 1.21517,4.85557 2.0304,-0.12183 2.0304,-0.12183 4.10185,-0.24611 5.39434,0.26101 8.35309,1.48608 12.96184,4.18388 -0.10829,-1.51604 -0.21659,-3.03209 -0.32815,-4.59407 0.0695,-7.89543 2.75708,-13.36187 8.09602,-19.12487 11.90207,-11.0805 25.81076,-17.63889 40.798,-23.53434 1.2487,-0.49914 2.49741,-0.99829 3.78395,-1.51256 5.22072,-1.41967 10.02614,-1.55933 15.41269,-1.52281 1.03361,0.002 2.06722,0.003 3.13214,0.005 8.68798,0.14171 16.65655,1.61929 24.92449,4.34284 -0.21657,-1.19118 -0.43315,-2.38235 -0.65629,-3.60963 -1.70897,-12.81727 -1.94101,-23.62173 5.90666,-34.45551 9.13558,-10.02353 18.88536,-17.1929 32.81477,-13.12592 z" fill="#FFFFFF" id="path2" style="stroke-width:1.31259"/><path d="m 104.66409,279.72956 c 3.72165,3.02609 6.21472,5.94355 7.0962,10.834 0.52923,14.09074 -4.6407,27.02134 -13.659158,37.73187 -7.584275,8.16153 -15.586457,15.91759 -23.626637,23.62665 0.756646,0.0538 1.513292,0.10765 2.29287,0.1631 6.589257,0.58042 11.824563,1.65853 17.806185,4.67707 1.941581,0.9416 1.941581,0.9416 3.922387,1.90223 4.180703,2.88596 6.091553,6.06708 8.793333,10.32127 0.24397,-1.10202 0.48793,-2.20405 0.7393,-3.33947 8.22254,-37.04324 8.22254,-37.04324 11.97643,-51.70731 0.23297,-0.94213 0.46594,-1.88427 0.70597,-2.85496 1.64968,-6.27359 3.62707,-13.00799 7.57976,-18.22854 2.79791,-0.94823 2.79791,-0.94823 5.25036,-1.31259 7.82719,8.0446 11.9345,17.77803 12.55166,29.04108 -0.52694,11.7739 -4.98445,23.00315 -8.64464,34.09724 -14.20742,42.21493 -14.20742,42.21493 -21.79107,86.00485 -0.0981,1.0998 -0.19627,2.19961 -0.29738,3.33275 -0.0964,1.19286 -0.0964,1.19286 -0.19484,2.40983 4.13801,2.47144 6.65206,2.85 11.40313,2.21499 1.14381,-0.13704 2.28761,-0.2741 3.46607,-0.41531 2.28635,-0.31754 4.57005,-0.655 6.85009,-1.01519 1.03551,-0.1506 2.07101,-0.30119 3.1379,-0.45634 0.9323,-0.15566 1.8646,-0.31134 2.82515,-0.4717 2.50726,0.14355 2.50726,0.14355 4.78378,1.88172 2.3009,3.04655 2.13872,5.03829 1.66125,8.76256 -2.62518,2.62519 -2.62518,2.62519 -7.13721,3.85573 -4.5787,0.89062 -4.5787,0.89062 -6.33736,3.41992 -3.65977,3.07453 -7.20721,2.4324 -11.87485,2.40471 -1.70047,0.0106 -3.40094,0.0203 -5.15294,0.0307 -6.84088,-0.72452 -11.16264,-2.62681 -15.76648,-7.74219 -3.355672,-4.79382 -5.242254,-7.49923 -5.465708,-13.34638 -0.05075,-1.17171 -0.101498,-2.34344 -0.153822,-3.55066 -0.0406,-1.2191 -0.0812,-2.4382 -0.123056,-3.69423 -0.05075,-1.23432 -0.101498,-2.46864 -0.153822,-3.74037 -0.123701,-3.04622 -0.236068,-6.09244 -0.338401,-9.13943 -0.795247,1.02028 -1.590483,2.04057 -2.409836,3.09177 -2.869843,3.50701 -5.715739,6.10132 -9.403477,8.72155 -0.866316,0 -1.732622,0 -2.625191,0 -0.50252,1.48982 -0.50252,1.48982 -1.015201,3.00973 -6.255741,13.80647 -29.258186,21.45147 -42.628447,26.52358 -4.347376,1.56612 -6.718554,1.96888 -11.485172,1.96888 -0.238575,1.34514 -0.477149,2.69029 -0.722951,4.07621 -0.332592,1.78614 -0.665905,3.57214 -0.999826,5.35804 -0.154818,0.88408 -0.309637,1.76815 -0.469149,2.67902 -1.031649,5.42276 -2.287079,9.74303 -5.683622,14.13855 -4.183883,1.06648 -4.183883,1.06648 -7.875546,1.31259 -1.644001,-3.288 -1.46189,-5.52407 -1.440774,-9.19838 0.0042,-1.29441 0.0084,-2.58879 0.01287,-3.9224 0.01103,-1.35531 0.022,-2.7106 0.03333,-4.10698 0.0059,-1.36544 0.01181,-2.73091 0.01794,-4.13773 0.0155,-3.37897 0.03712,-6.7578 0.06409,-10.13669 -1.2453203,0.44162 -2.4906407,0.88323 -3.7736994,1.33822 -4.2667554,1.3387 -5.3117114,1.36328 -9.352211,-0.0256 -5.4000929,-1.35729 -5.4000929,-1.35729 -10.5007286,0 -0.86631,-0.43315 -1.732621,-0.86632 -2.625183,-1.31259 0,-2.16578 0,-4.33155 0,-6.56296 -1.00167,-0.35195 -2.003342,-0.70388 -3.035367,-1.06648 -3.428398,-1.51488 -5.271552,-2.49442 -7.465361,-5.49648 0,-1.73262 0,-3.46524 0,-5.25036 -1.732626,-0.86631 -3.465246,-1.73262 -5.25037,-2.62519 -0.116689,-4.19901 0.117346,-7.77942 1.312591,-11.81331 7.339318,-0.25252 13.51883,0.49567 20.5912779,2.54315 9.30481153,2.52848 18.3157051,3.68901 27.9745981,4.0198 0.180199,-2.57354 0.180199,-2.57354 0.36404,-5.19909 1.007735,-10.07735 3.398501,-19.88699 5.624657,-29.74865 0.437373,-1.9636 0.874054,-3.92736 1.310027,-5.89127 1.059323,-4.76512 2.128021,-9.52804 3.20196,-14.28986 -5.847593,0.64974 -5.847593,0.64974 -11.813319,1.31259 -0.433156,-1.73261 -0.866311,-3.46523 -1.312592,-5.25036 1.891977,-2.72772 1.891977,-2.72772 4.676106,-5.5785 1.975281,-2.04623 3.911959,-4.12994 5.824623,-6.23482 0.663163,-0.7154 1.326326,-1.4308 2.009585,-2.16789 6.359071,-7.5142 7.652373,-14.76204 9.065402,-24.33004 1.959548,-11.57054 4.376638,-22.66843 8.121664,-33.79922 0.37975,-1.14835 0.759501,-2.29669 1.150754,-3.47984 3.155983,-9.05632 3.155983,-9.05632 7.217011,-12.35329 3.445548,-0.32815 3.445548,-0.32815 6.562951,0 2.300504,2.3005 1.649659,5.30582 1.72278,8.44981 -0.04768,15.26886 -3.113809,30.35353 -5.660551,45.36642 6.540749,-5.45078 12.369955,-10.89816 17.473874,-17.71997 0.818507,-1.04313 0.818507,-1.04313 1.65355,-2.10733 5.62788,-7.3905 9.478173,-14.98953 9.154817,-24.43162 -1.410525,-5.8839 -5.363595,-9.71132 -9.905966,-13.49508 -10.11207,-5.39311 -22.308379,-2.74738 -32.850669,0.082 -4.924579,1.55309 -9.624606,3.46848 -14.3257,5.59903 -2.702093,0.88189 -2.702093,0.88189 -6.639866,-0.4307 2.67939,-8.35339 8.289979,-11.64944 15.751093,-15.75109 5.595926,-2.18972 11.242812,-3.77859 17.063687,-5.25037 1.027053,-0.31133 2.054096,-0.62265 3.112275,-0.94342 15.648074,-4.36423 35.241045,-1.20003 48.078771,8.81897 z" fill="#FFFFFF" id="path3" style="stroke-width:1.31259"/><path d="m 431.49927,-120.36461 c 3.17703,0.0856 6.35427,0.16348 9.53168,0.23328 7.76586,0.18757 15.52346,0.47257 23.2831,0.8332 -0.53336,0.79864 -1.06672,1.59728 -1.61624,2.42013 -1.0554,1.58148 -1.0554,1.58148 -2.13214,3.19491 -0.69579,1.04229 -1.39159,2.08459 -2.10846,3.15846 -2.65422,3.9968 -5.25364,8.02491 -7.84333,12.063879 -0.50517,0.783084 -1.01033,1.566168 -1.53082,2.372982 -2.31424,3.594429 -4.58976,7.198173 -6.79593,10.860603 -4.84673,7.990244 -10.33511,14.673034 -16.73553,21.478296 -2.97669,3.231029 -5.70917,6.535224 -8.40879,9.998254 -4.50759,5.743543 -9.36225,11.100165 -14.33211,16.439434 -5.06959,5.477118 -9.79609,11.184878 -14.46799,17.006002 -2.63434,3.206833 -5.38053,6.250604 -8.19856,9.295811 -5.63537,6.2351177 -9.97045,13.1494351 -14.27442,20.3451628 0.79523,-0.2842576 1.59048,-0.5685163 2.40983,-0.8613876 7.86714,-2.6143118 15.54216,-4.6602057 23.84198,-3.0763854 4.17731,3.4275292 5.35199,6.8277042 6.89111,11.8133192 1.95489,5.831553 5.38699,7.869982 10.63916,10.74684 0.71234,0.351932 1.42467,0.703877 2.1586,1.06648 -1.94728,4.873598 -4.58289,7.026156 -8.77795,10.090544 -8.61355,6.704939 -14.39422,14.224354 -19.68887,23.708681 -4.84113,8.31748 -11.42541,14.894736 -18.04813,21.797473 -3.23183,3.399483 -6.36745,6.884859 -9.51628,10.361004 -4.29176,4.710445 -8.67459,9.302538 -13.20795,13.782208 -9.1243,9.04312 -16.77148,18.55029 -23.95479,29.20515 1.26901,-0.0271 2.53802,-0.0541 3.84549,-0.082 11.61412,0.18399 17.92315,1.44066 26.79019,9.64448 0.7191,0.74278 1.4382,1.48558 2.1791,2.25088 -2.09318,13.47929 -12.93096,22.60055 -22.31405,31.66627 -6.73182,6.56351 -13.37014,13.04728 -19.387,20.2785 -2.06396,2.39251 -4.33489,4.39103 -6.78279,6.3835 -3.50607,2.97884 -6.56924,5.98567 -9.51628,9.51628 -4.26596,5.01472 -8.89961,9.53404 -13.70016,14.02833 -1.08422,1.03218 -1.08422,1.03218 -2.19033,2.0852 -4.00988,3.70538 -7.49917,6.30612 -12.7404,7.9233 0.2787,-14.49233 9.89296,-25.70402 18.26346,-36.88074 2.44385,-3.40032 4.68485,-6.87062 6.88342,-10.43279 5.87978,-9.51387 12.5819,-17.88598 20.0042,-26.24284 2.617,-2.97851 5.00611,-5.95259 7.35256,-9.13687 -0.83353,0.0137 -1.66706,0.0274 -2.52584,0.0416 -3.80676,0.0549 -7.61344,0.0889 -11.42044,0.12246 -1.31131,0.0221 -2.62262,0.044 -3.97366,0.0667 -6.81044,0.0452 -12.46555,-0.0961 -18.83261,-2.85591 -0.56695,-6.84531 1.2768,-11.47986 4.43,-17.39183 0.47175,-0.90998 0.94349,-1.81997 1.42955,-2.75753 1.52619,-2.9208 3.08,-5.82541 4.64118,-8.72764 0.49851,-0.93547 0.99701,-1.87094 1.51063,-2.83477 12.27727,-22.94363 25.74459,-45.166451 41.49531,-65.896166 2.55784,-3.388562 5.04067,-6.830748 7.52882,-10.27064 2.8131,-3.879944 5.64651,-7.740629 8.53184,-11.567213 -1.09474,0.06091 -2.18947,0.121808 -3.31737,0.18459 -9.28738,0.297866 -17.81554,0.30666 -25.55964,-5.434954 -4.46062,-6.567419 -3.83464,-14.788518 -2.62518,-22.3140484 2.75305,-5.8651998 6.47499,-10.6977872 10.50073,-15.7510934 1.66734,-2.1515606 3.32632,-4.3093922 4.98439,-6.4681002 1.56126,-2.017411 3.15079,-4.012857 4.74211,-6.006643 7.99046,-10.477746 14.152,-21.771163 19.80681,-33.630046 7.70336,-15.780975 16.30372,-31.024575 25.89547,-45.741685 2.48488,-3.975961 2.48488,-3.975961 4.0557,-8.696551 7.79994,-18.54001 25.56821,-14.21449 42.89762,-13.40631 z" fill="#FFFFFF" id="path4" style="stroke-width:1.31259"/><path d="m 452.50073,221.97555 c 2.80464,2.08682 2.80464,2.08682 5.25037,5.25036 0.49551,3.78852 0.68846,6.9767 0.57426,10.74685 -0.0202,1.00441 -0.0404,2.00884 -0.0612,3.0437 -0.25191,7.37541 -1.01871,13.70973 -4.45083,20.33682 -0.79947,1.57104 -0.79947,1.57104 -1.6151,3.17381 -5.97927,10.40609 -14.22018,18.71578 -22.50889,27.28241 -4.41225,4.56627 -8.54293,9.31194 -12.62856,14.17188 1.04567,2.06849 1.04567,2.06849 2.11246,4.17876 12.85713,25.50754 12.85713,25.50754 15.52549,35.60916 1.42161,5.1692 1.42161,5.1692 5.41444,8.77796 5.00519,4.10682 5.03216,9.55339 5.82462,15.75109 2.59893,0.64973 2.59893,0.64973 5.25036,1.31259 1.73262,6.49733 3.46524,12.99465 5.25037,19.68887 0.86631,-0.43315 1.73261,-0.86632 2.62518,-1.31259 0.64974,4.54812 0.64974,4.54812 1.31259,9.18813 -1.29947,0.43315 -2.59893,0.86632 -3.93777,1.31259 0.52283,1.00505 0.52283,1.00505 1.05622,2.03041 4.04504,8.32628 5.64321,16.38815 6.81932,25.53401 -0.8663,0 -1.73262,0 -2.62518,0 0.43316,0.70388 0.86631,1.40775 1.31259,2.13296 1.65327,3.9265 1.77139,6.77209 1.31259,10.99295 -1.29946,0.86631 -2.59893,1.73261 -3.93777,2.62518 -7.94148,-4.18274 -10.47579,-9.25354 -14.02831,-17.30979 -0.55805,-1.21402 -1.1161,-2.42803 -1.69105,-3.67885 -2.96676,-6.49812 -5.81732,-13.04492 -8.64561,-19.60426 -1.14768,-2.65803 -2.2962,-5.31568 -3.44556,-7.97297 -0.57993,-1.34292 -1.15986,-2.68587 -1.75738,-4.06948 -5.71095,-13.01751 -12.19315,-25.59236 -18.83229,-38.15392 -4.29471,-8.13724 -8.37031,-16.25328 -11.97899,-24.71875 -0.148,1.93873 -0.148,1.93873 -0.29899,3.91663 -3.32229,43.27171 -3.32229,43.27171 -5.60767,64.17403 -0.20891,2.04026 -0.20891,2.04026 -0.42204,4.12173 -0.8332,7.25503 -2.0701,13.18141 -5.48462,19.66899 -3.81226,2.92273 -7.10468,2.88677 -11.81332,2.62519 -9.54341,-16.70097 -2.3136,-39.57162 0.61656,-57.35601 1.24785,-7.77325 2.31385,-15.57192 3.38434,-23.37123 0.14667,-1.05149 0.29336,-2.10296 0.44448,-3.18631 0.12468,-0.91008 0.24935,-1.82018 0.37781,-2.75784 0.43943,-2.65902 1.05093,-5.23064 1.73976,-7.83518 -1.24532,1.08289 -2.49063,2.16578 -3.77369,3.28148 -3.77371,3.28148 -3.77371,3.28148 -6.72703,3.28148 0,-8.38663 1.78918,-12.91913 6.39888,-19.93498 7.61417,-11.833 8.21866,-25.40593 9.35221,-39.13162 -0.70758,0.35427 -1.41515,0.70853 -2.14417,1.07353 -0.93537,0.46805 -1.87074,0.9361 -2.83445,1.41834 -0.92415,0.46255 -1.84831,0.92511 -2.80046,1.40168 -8.73004,4.35217 -16.7804,6.40165 -26.34829,7.91977 -0.18506,0.80751 -0.37013,1.61502 -0.56079,2.44701 -0.84532,3.67064 -1.70086,7.33883 -2.55661,11.00705 -0.29102,1.2707 -0.58206,2.5414 -0.8819,3.85061 -0.28764,1.22671 -0.57528,2.45341 -0.87165,3.7173 -0.26119,1.1273 -0.5224,2.2546 -0.79152,3.41607 -0.87434,3.03561 -2.01827,5.60849 -3.52567,8.37674 1.26563,-0.47376 2.53125,-0.94753 3.83523,-1.43565 1.67476,-0.61572 3.34969,-1.23098 5.02477,-1.84583 0.83246,-0.31303 1.66493,-0.62604 2.52263,-0.94855 4.41161,-1.60841 7.47762,-2.33293 12.24402,-2.33293 0.43315,2.16577 0.8663,4.33155 1.31259,6.56296 0.8663,0 1.73262,0 2.62518,0 -0.27379,4.7913 -1.1263,6.381 -4.61458,9.78803 -4.02352,3.22468 -8.14833,4.95637 -12.9362,6.7783 -9.51892,3.70196 -9.51892,3.70196 -16.52531,10.79299 -3.11551,9.46364 -3.37436,19.6624 -3.63014,29.56918 -0.4242,5.62967 -1.78003,10.23068 -4.29668,15.26401 6.53655,-3.61187 12.65181,-7.52622 18.70442,-11.89536 0.80201,-0.56936 1.60402,-1.13872 2.43034,-1.72534 3.10778,-2.22905 6.06172,-4.36514 8.69079,-7.15516 0.55329,-0.5076 1.10658,-1.0152 1.67663,-1.53819 4.18388,0.41018 4.18388,0.41018 7.87555,1.31259 -0.43316,3.89839 -0.86632,7.79679 -1.31259,11.81332 -1.29947,0 -2.59893,0 -3.93778,0 0,1.73262 0,3.46524 0,5.25037 -3.11741,3.60962 -3.11741,3.60962 -6.56296,6.56295 -0.8663,0 -1.73262,0 -2.62518,0 -0.12181,1.05581 -0.12181,1.05581 -0.24611,2.13296 -2.79125,8.15906 -9.07952,12.58857 -16.4843,16.34586 -5.71153,2.33609 -9.75767,2.10635 -15.49473,-0.0462 -5.02078,-2.28877 -8.89618,-4.26488 -12.48499,-8.50621 -5.33984,-14.59556 -2.52787,-31.22638 0.082,-46.10476 0.28311,-1.66789 0.56619,-3.3358 0.85786,-5.05425 2.73337,-15.75441 6.23744,-31.34304 9.94795,-46.89339 2.79182,-11.88448 4.58678,-23.5953 5.73137,-35.75113 0.52651,-4.7568 0.52651,-4.7568 1.8391,-8.69458 2.10313,-0.29198 4.20944,-0.56108 6.31685,-0.82036 1.17256,-0.15228 2.34513,-0.30456 3.55322,-0.46146 3.25584,-0.0308 3.25584,-0.0308 7.19361,2.59442 13.91075,2.08419 28.40207,-2.33982 39.79305,-10.3059 2.20987,-1.50742 2.20987,-1.50742 5.0145,-2.47135 2.8862,-1.57301 2.8862,-1.57301 3.53272,-5.6503 0.18274,-1.55327 0.36548,-3.10653 0.55375,-4.70687 0.19628,-1.56003 0.39255,-3.12007 0.59477,-4.72737 0.12859,-1.20134 0.25719,-2.40267 0.38968,-3.64039 -1.4399,0.74279 -2.87981,1.48558 -4.36334,2.25088 -1.90886,0.9729 -3.81794,1.94536 -5.72721,2.91744 -1.42002,0.73475 -1.42002,0.73475 -2.86872,1.48436 -4.84611,2.45624 -9.14074,4.48163 -14.60514,5.16063 0.88904,-6.76591 3.21869,-9.11664 8.34725,-13.34126 6.84499,-4.75909 14.26155,-8.19847 21.84234,-11.59797 1.01352,-0.47884 2.02703,-0.95767 3.07126,-1.45103 14.71423,-6.0156 37.29652,-4.24902 50.74497,4.07621 z" fill="#FFFFFF" id="path5" style="stroke-width:1.31259"/><path d="m 308.88993,240.67997 c 6.13836,1.91016 11.09838,5.14512 15.02814,10.32641 5.68007,11.12923 -0.90997,25.66404 -4.42486,36.64487 -2.3137,7.00816 -4.85531,13.91652 -7.59355,20.77074 -1.41534,4.22746 -1.41534,4.22746 -0.96906,9.2189 0.18259,6.4988 -2.68663,10.67653 -6.01434,16.06898 -5.2543,9.06571 -7.25552,15.55903 -6.91673,26.14927 -0.49035,4.94277 -2.36841,6.79232 -5.63491,10.43921 -2.27732,3.79069 -2.94818,6.68161 -3.19945,11.07498 -0.49357,5.24205 -1.75426,8.11478 -4.67611,12.55166 -1.35584,3.34369 -2.6194,6.7112 -3.85572,10.1008 -1.40646,3.05074 -2.81752,4.77664 -5.33241,6.96288 0.51437,0.70388 1.02875,1.40776 1.5587,2.13296 1.06648,3.1174 1.06648,3.1174 -0.73833,7.38333 -0.70388,1.19117 -1.40776,2.38235 -2.13296,3.60963 -2.59893,-1.29947 -2.59893,-1.29947 -5.25036,-2.62519 0.43315,-3.03209 0.86631,-6.06417 1.31259,-9.18814 -0.42809,1.14042 -0.85616,2.28084 -1.29722,3.45581 -0.86038,2.26899 -0.86038,2.26899 -1.73815,4.58381 -0.56344,1.49235 -1.12688,2.98472 -1.7074,4.52229 -2.91087,7.1993 -6.12897,12.92241 -11.00832,18.94028 -0.43316,1.29946 -0.86632,2.59893 -1.31259,3.93777 -1.73263,0 -3.46525,0 -5.25038,0 -1.73261,3.03209 -3.46523,6.06418 -5.25036,9.18814 -2.16577,-0.43316 -4.33155,-0.86631 -6.56295,-1.31259 0.75172,-8.45288 2.80411,-15.87015 5.533,-23.8862 0.43353,-1.29942 0.86704,-2.59881 1.3137,-3.93761 1.43099,-4.28172 2.87579,-8.55866 4.32058,-12.83575 1.00704,-3.00551 2.01314,-6.01134 3.01834,-9.01746 2.65074,-7.91975 5.31291,-15.83564 7.97789,-23.75061 3.72568,-11.07174 7.43621,-22.14858 11.14793,-33.22501 1.97252,-5.88631 3.94944,-11.77112 5.93014,-17.65468 5.90907,-17.57663 11.64055,-35.20204 17.19984,-52.89248 -6.6705,2.70532 -6.6705,2.70532 -12.63369,6.64499 -6.67656,3.83284 -13.86459,4.64886 -21.49368,5.16833 -1.29947,-0.43315 -2.59893,-0.86631 -3.93777,-1.31259 -0.32149,1.05919 -0.64297,2.1184 -0.97419,3.20969 -1.99479,5.63743 -4.47823,10.92954 -7.06543,16.3151 -0.51882,1.0903 -1.03763,2.18059 -1.57216,3.30391 -3.42062,7.15642 -6.96878,14.24009 -10.56931,21.30718 -3.15565,6.20372 -5.89751,12.29838 -7.86017,18.98643 -0.87142,2.61427 -2.02734,4.78577 -3.3789,7.18335 -3.16046,6.0073 -4.52288,12.46987 -6.07201,19.02648 -1.58505,6.7081 -3.54826,13.11269 -5.82335,19.61292 -0.45474,1.74573 -0.89702,3.49489 -1.31259,5.25036 -0.8663,0 -1.73262,0 -2.62518,0 0.64974,1.29947 0.64974,1.29947 1.31259,2.62519 16.18841,-10.91076 16.18841,-10.91076 31.48168,-23.02161 2.7327,-1.98068 4.55923,-2.83397 7.89605,-3.23022 2.95334,1.39463 2.95334,1.39463 5.25038,3.93778 0.32814,4.18388 0.32814,4.18388 0,7.87555 -1.02875,0.2978 -2.05749,0.59558 -3.11741,0.9024 -4.32333,2.16167 -4.48924,3.88013 -6.07074,8.28573 -1.29946,0.43315 -2.59893,0.86632 -3.93777,1.31259 -0.64973,0.89339 -1.29947,1.78677 -1.96889,2.70723 -0.64973,0.83924 -1.29946,1.67846 -1.96888,2.54314 -1.29947,0 -2.59893,0 -3.93778,0 -0.27071,0.73096 -0.54144,1.4619 -0.82037,2.21499 -4.73137,7.95732 -12.99368,11.959 -21.49368,14.8487 -6.71624,1.23359 -10.54498,-1.09533 -15.97156,-4.7684 -4.43523,-3.30987 -7.2024,-5.6869 -8.96766,-10.9827 -1.30758,-13.22178 1.63126,-24.44828 5.98869,-36.75255 0.64007,-1.86316 1.27959,-3.72651 1.91858,-5.59005 9.86383,-28.41114 21.22028,-56.48581 34.09564,-83.66614 -4.57644,0.66791 -8.59451,1.43231 -12.80802,3.33787 -6.18763,2.41939 -11.95385,2.45031 -18.53009,2.32267 -1.12012,0.004 -2.24022,0.008 -3.39428,0.0129 -8.23175,-0.0717 -8.23175,-0.0717 -11.20829,-3.04819 -0.39481,-3.03537 -0.39481,-3.03537 -0.41019,-6.56295 -0.022,-1.16411 -0.044,-2.32821 -0.0666,-3.52759 0.15735,-1.00167 0.31471,-2.00335 0.47684,-3.03537 4.25421,-2.83614 5.50985,-2.89841 10.41869,-3.03537 8.78121,-0.65945 15.80418,-3.76495 23.70868,-7.46535 2.65216,-1.20401 5.30467,-2.40726 7.95757,-3.60963 1.15227,-0.53468 2.30452,-1.06935 3.4917,-1.62023 5.7756,-2.57574 11.14631,-3.70852 17.42773,-2.6457 4.18388,2.8713 4.18388,2.8713 7.87555,6.56297 1.21825,1.10995 2.43649,2.21992 3.69166,3.36351 2.84318,3.16811 3.39852,4.45541 4.18388,8.4498 8.72848,-4.82784 17.08282,-9.94338 25.18534,-15.75109 1.16257,-0.83294 1.16257,-0.83294 2.34863,-1.68272 5.48352,-3.9763 10.73365,-8.17952 15.82768,-12.64816 2.57904,-1.42026 2.57904,-1.42026 5.97844,-1.09212 z" fill="#FFFFFF" id="path6" style="stroke-width:1.31259"/><path d="m 518.08414,198.75909 c 7.73516,1.75211 11.37773,9.19311 15.79724,15.34092 0.62435,0.84431 1.2487,1.68863 1.89198,2.55852 4.33497,6.36656 7.18527,13.46238 10.17994,20.52463 2.39855,5.62443 4.98384,11.08779 7.80089,16.51441 13.71764,26.45682 18.76929,56.76666 19.37417,86.39195 0.14044,2.84025 0.49231,5.6026 0.88959,8.41777 0.55375,4.72738 0.55375,4.72738 -0.75884,7.35256 -0.15255,1.87266 -0.23438,3.75139 -0.27687,5.62978 -0.0372,1.12857 -0.0744,2.25715 -0.1128,3.41991 -0.0675,2.35833 -0.12584,4.71692 -0.17434,7.0757 -0.32019,8.97881 -1.56957,16.60549 -7.22951,23.90864 -2.70721,1.96888 -2.70721,1.96888 -7.95757,1.96888 -0.26692,-2.6436 -0.53353,-5.28724 -0.79891,-7.93099 -0.23696,-2.35343 -0.4761,-4.70664 -0.71717,-7.05965 -0.61136,-6.02333 -1.18424,-12.04304 -1.63722,-18.0805 -1.16874,-14.97185 -3.66315,-29.24922 -7.0603,-43.87438 -1.19515,-5.1491 -2.20281,-10.28759 -3.06261,-15.50178 -3.04425,-18.32069 -9.41771,-36.28691 -19.53857,-51.93772 -1.29947,-0.64973 -1.29947,-0.64973 -2.62518,-1.31259 0.0152,1.37053 0.0305,2.74106 0.0461,4.15312 0.11895,16.15059 -0.50497,32.22433 -1.35873,48.35052 2.59893,-1.73262 5.19785,-3.46524 7.87554,-5.25036 2.54315,0.82037 2.54315,0.82037 5.25037,2.62518 1.85872,5.32834 1.50947,9.33805 -0.93831,14.43851 -4.12854,6.42498 -9.68903,13.39372 -16.22376,17.43574 -3.44138,3.06865 -3.43019,5.19813 -3.91117,9.73387 -0.18443,1.47965 -0.36886,2.95932 -0.55888,4.48382 -0.34232,3.09951 -0.67743,6.19984 -1.00495,9.30094 -1.18849,9.41693 -2.86338,16.81955 -10.17771,23.36259 -0.86631,0 -1.73262,0 -2.62518,0 0.0457,0.73094 0.0914,1.46189 0.13843,2.215 0.30529,8.60594 -0.56041,16.23166 -6.53731,22.80627 -2.78926,1.23055 -2.78926,1.23055 -6.23481,1.23055 -3.1174,-1.31259 -3.1174,-1.31259 -4.60433,-4.30695 -6.84612,-21.46352 2.39339,-51.95049 7.22951,-73.21796 1.02701,-4.60836 2.04591,-9.2185 3.06613,-13.82836 0.25109,-1.12827 0.50217,-2.25656 0.76086,-3.41903 3.8996,-17.58896 7.52619,-35.23781 10.20133,-53.05828 0.32486,-2.10338 0.32486,-2.10338 0.6563,-4.24925 1.14127,-7.58417 2.11757,-15.16311 2.90717,-22.79217 0.24223,-2.31563 0.24223,-2.31563 0.48935,-4.67803 0.29885,-2.95514 0.57785,-5.91236 0.83383,-8.87153 1.77472,-17.7922 1.77472,-17.7922 10.73626,-19.87025 z" fill="#FFFFFF" id="path7" style="stroke-width:1.31259"/><path d="m 292.36462,278.41697 c -4.73749,24.11815 -14.0223,47.48359 -21.80812,70.76487 -1.54168,4.61142 -3.08103,9.22361 -4.62059,13.83573 -3.00152,8.99063 -6.00555,17.98041 -9.01125,26.96965 -1.29946,0 -2.59893,0 -3.93777,0 -0.86631,-2.59893 -1.73263,-5.19787 -2.62518,-7.87555 -3.03893,-1.01814 -3.03893,-1.01814 -6.56296,-1.31259 -2.60575,1.51354 -2.60575,1.51354 -4.84018,3.94289 -5.82969,5.51328 -12.12876,9.89754 -18.78646,14.35135 -1.14211,0.7724 -2.28421,1.54481 -3.46093,2.34061 -2.77991,1.87873 -5.56399,3.75088 -8.35239,5.61697 -0.43316,-1.29947 -0.86631,-2.59894 -1.31259,-3.93778 0.86631,0 1.73262,0 2.62518,0 0.10829,-1.67847 0.21658,-3.35695 0.32815,-5.08628 0.65585,-6.07375 2.55901,-10.96746 4.96837,-16.54071 1.24436,-3.25449 1.87605,-6.19566 2.41496,-9.62908 1.23408,-7.01884 4.07588,-12.95507 7.209,-19.3197 1.63302,-3.46921 3.06735,-6.87083 4.44536,-10.4392 3.5878,-9.09272 7.93537,-17.82182 12.21839,-26.60048 0.82845,-1.7072 1.65652,-3.41459 2.48418,-5.12219 2.19897,-4.53151 4.40353,-9.06018 6.62192,-13.58224 0.67035,-1.45766 1.3407,-2.91534 2.03137,-4.41717 1.9064,-3.45837 1.9064,-3.45837 5.12634,-4.4223 1.21149,-0.006 2.42297,-0.0135 3.67116,-0.0205 9.59473,-0.40398 16.27826,-2.02437 23.72406,-8.17293 2.19962,-1.34335 2.19962,-1.34335 7.44998,-1.34335 z" fill="#FFFFFF" id="path8" style="stroke-width:1.31259"/><path d="m 469.56442,216.72519 c 2.56558,0.15927 2.56558,0.15927 5.25037,1.31259 8.32978,9.74112 7.37537,22.20201 7.05517,34.2094 -0.03,2.0243 -0.0574,4.04863 -0.0824,6.07298 -0.0746,5.22832 -0.19334,10.45451 -0.32967,15.68155 -0.0783,3.03035 -0.14872,6.06077 -0.21671,9.09136 -0.28485,12.44696 -0.69023,24.88595 -1.17607,37.32682 -0.0491,1.33372 -0.0981,2.66745 -0.1487,4.04159 -0.12667,3.32981 -0.27039,6.65814 -0.42556,9.98672 -0.0795,1.71062 -0.15905,3.42126 -0.24098,5.18371 -0.49802,4.42048 -1.54837,8.14125 -3.12253,12.29017 -0.86632,0 -1.73263,0 -2.62518,0 0.18945,1.77767 0.38139,3.55508 0.57425,5.33239 0.11167,1.07951 0.22335,2.15901 0.3384,3.27123 0.38607,3.50294 0.38607,3.50294 1.46642,8.04987 0.31878,5.63188 -1.53831,7.91733 -5.00426,12.22351 -3.19982,-0.48241 -4.80545,-0.76127 -6.87701,-3.32826 -3.33641,-6.82664 -4.4667,-12.57249 -4.60816,-20.13431 -0.0389,-0.94415 -0.0778,-1.88828 -0.11793,-2.86104 -0.12333,-3.47679 -0.17049,-6.95016 -0.21022,-10.42894 -0.0259,-1.52873 -0.0518,-3.05747 -0.0786,-4.63253 -0.2146,-18.38338 0.68481,-36.73959 1.5446,-55.09742 0.2171,-4.65252 0.41475,-9.30566 0.608,-13.95924 0.15509,-3.65166 0.32426,-7.30257 0.49704,-10.95344 0.11641,-2.53072 0.21854,-5.06206 0.32013,-7.59342 1.43921,-28.91504 1.43921,-28.91504 7.60946,-35.08529 z" fill="#FFFFFF" id="path9" style="stroke-width:1.31259"/><path d="m 176.85661,296.79324 c 3.37386,1.2939 4.9323,1.98908 6.57833,5.28113 0.29272,1.0186 0.58544,2.03719 0.88703,3.08665 0.30286,1.01182 0.60574,2.02364 0.91778,3.06612 0.26565,0.99152 0.53129,1.98304 0.80499,3.00461 0.22863,0.80381 0.45727,1.60762 0.69283,2.43579 1.15962,5.26626 0.87055,10.65134 0.86587,16.02253 -0.001,1.8778 -0.001,1.8778 -0.003,3.79355 -0.0638,7.30705 -0.52797,14.11985 -2.14001,21.2636 -0.74441,3.82166 -1.11951,7.60864 -1.45167,11.48517 -1.16276,13.3703 -3.4038,26.4843 -5.83936,39.66999 -0.17275,0.95613 -0.34549,1.91226 -0.52347,2.89737 -0.49627,2.73188 -1.00892,5.46014 -1.52746,8.18787 -0.44923,2.39114 -0.44923,2.39114 -0.90753,4.83057 -0.32317,1.19097 -0.64635,2.38193 -0.97931,3.60899 -1.29947,0.64972 -1.29947,0.64972 -2.62518,1.31259 -0.86632,-0.43315 -1.73263,-0.86632 -2.6252,-1.31259 0.43317,6.93048 0.86632,13.86096 1.3126,21.00145 -3.24866,1.29946 -3.24866,1.29946 -6.56296,2.62518 -3.2209,-3.87048 -4.83031,-7.21041 -6.15277,-12.05943 -0.32994,-1.15564 -0.65988,-2.31129 -0.99982,-3.50195 -4.70425,-26.85758 3.24597,-57.7215 7.80889,-84.1135 0.53608,-3.17105 1.07103,-6.34229 1.60484,-9.51373 0.51686,-3.04835 1.03468,-6.09655 1.55358,-9.14455 0.23662,-1.39062 0.47323,-2.78123 0.71703,-4.21398 4.0291,-23.28083 4.0291,-23.28083 8.59417,-29.71343 z" fill="#FFFFFF" id="path10" style="stroke-width:1.31259"/><path d="m 53.47304,376.8613 c 13.871543,2.27402 24.875938,7.69693 33.809469,18.72494 2.88695,4.03083 3.549235,7.31062 3.476315,12.30554 -1.190455,6.9138 -5.198703,13.57392 -10.608395,18.03787 -2.230385,1.30234 -2.230385,1.30234 -6.988524,3.4353 -1.668277,0.90205 -3.336353,1.80447 -5.00425,2.70721 -9.535477,4.66631 -18.505822,7.07077 -29.123119,6.48092 0.619525,-6.81476 1.902581,-12.63527 4.17363,-19.07359 4.574794,-13.76795 7.487425,-28.39032 10.264874,-42.61819 z" fill="#FFFFFF" id="path11" style="stroke-width:1.31259"/><path d="m 418.37336,228.53851 c 5.06884,2.82242 9.04631,6.42112 13.12591,10.50073 1.61317,13.44299 -4.3599,28.46262 -12.2235,39.19315 -0.73095,0.92722 -1.4619,1.85444 -2.215,2.80977 -0.92045,1.19794 -1.84091,2.39588 -2.78925,3.63012 -5.0234,6.42279 -5.0234,6.42279 -7.71147,9.49578 -0.43315,0 -0.86632,0 -1.31259,0 -0.22821,-23.27761 -0.22821,-23.27761 1.02033,-33.26598 0.6814,-8.12891 0.38327,-16.33721 0.29226,-24.48802 -2.59893,0 -5.19787,0 -7.87555,0 -0.43316,-1.73263 -0.86631,-3.46525 -1.31259,-5.25037 6.62294,-3.88566 13.557,-3.89074 21.00145,-2.62518 z" fill="#FFFFFF" id="path12" style="stroke-width:1.31259"/><path d="m 482.69033,168.15932 c 4.68334,8.46763 7.35595,16.56328 5.25036,26.25182 -3.4264,6.29853 -7.16753,9.80397 -13.94627,12.14147 -5.51247,-0.40834 -7.16013,-1.6567 -10.99296,-5.57851 -1.99508,-7.54819 -2.97483,-16.68053 0.82037,-23.79072 5.99715,-7.25971 9.20018,-9.78236 18.8685,-9.02406 z" fill="#FFFFFF" id="path13" style="stroke-width:1.31259"/><path d="m 266.93317,304.50472 c 1.02874,0.0541 2.05749,0.10829 3.1174,0.16407 -2.16793,6.72528 -4.33914,13.44949 -6.51328,20.17276 -0.73793,2.2835 -1.475,4.56729 -2.21115,6.85137 -1.06319,3.29826 -2.12959,6.59546 -3.19656,9.8925 -0.32422,1.00812 -0.64843,2.01624 -0.98246,3.05491 -0.62542,1.92863 -1.2597,3.85441 -1.90378,5.77688 -0.64763,1.93318 -1.274,3.87358 -1.88228,5.81949 -0.95708,2.87386 -0.95708,2.87386 -2.99935,7.49869 -2.63684,1.16271 -4.93297,1.62994 -7.77813,2.06118 -4.31585,0.89406 -7.10642,3.19558 -10.59815,5.81437 1.55122,-5.30001 3.52571,-9.67813 6.56295,-14.30519 1.52904,-2.93121 1.52904,-2.93121 2.215,-7.12696 1.89094,-8.00511 5.914,-15.19929 9.62781,-22.48261 1.29114,-2.53393 2.56493,-5.07603 3.83651,-7.61982 7.72836,-15.33463 7.72836,-15.33463 12.70547,-15.57164 z" fill="#FFFFFF" id="path14" style="stroke-width:1.31259"/><path d="m 146.66701,367.67316 c 1.30605,4.08638 1.25302,6.64285 0.1519,10.76703 -1.4441,5.93509 -2.12837,11.70506 -2.58225,17.78696 -0.0836,1.03212 -0.16738,2.06424 -0.2536,3.12764 -0.26163,3.24844 -0.51182,6.49765 -0.7616,9.74704 -0.17699,2.22274 -0.35473,4.44543 -0.53325,6.66806 -0.43256,5.40609 -0.85487,10.81289 -1.27156,16.22024 -3.46525,0 -6.93048,0 -10.50074,0 0.69269,-8.96561 2.05368,-17.51902 4.18389,-26.25182 0.28203,-1.17457 0.56407,-2.34915 0.85466,-3.55932 2.90163,-11.73166 6.66881,-23.12497 10.71255,-34.50583 z" fill="#FFFFFF" id="path15" style="stroke-width:1.31259"/><path d="m 288.42685,441.17827 c 0.86631,0.43316 1.73262,0.86631 2.62518,1.31259 0.37942,3.64038 0.37942,3.64038 0,7.87554 -2.59442,2.59442 -2.59442,2.59442 -6.07073,4.75814 -1.19795,0.76142 -2.39589,1.52282 -3.63014,2.30729 -1.6954,1.05075 -1.6954,1.05075 -3.42504,2.12272 -1.48051,1.0886 -2.95805,2.1813 -4.43,3.28147 -3.44555,1.96889 -3.44555,1.96889 -6.48092,1.72278 -2.21499,-1.06648 -2.21499,-1.06648 -3.52758,-2.37907 -0.0536,-2.62464 -0.0558,-5.25097 0,-7.87555 5.73895,-3.36101 11.35743,-6.54233 17.63794,-8.77796 4.66942,-1.34938 4.66942,-1.34938 7.30129,-4.34795 z" fill="#FFFFFF" id="path16" style="stroke-width:1.31259"/><path d="m 249.86948,459.39047 c 1.28931,-0.003 2.57863,-0.006 3.90702,-0.0106 3.14816,0.17433 3.14816,0.17433 4.46075,1.48692 -0.37711,3.07074 -0.81298,6.13494 -1.31259,9.18813 -0.85616,0.0795 -1.71232,0.15906 -2.59442,0.24099 -5.11215,0.4901 -10.14625,1.00402 -15.20759,1.89197 -1.05582,0.16244 -2.11163,0.32487 -3.19945,0.49222 -1.31259,-1.31259 -1.31259,-1.31259 -1.64073,-4.42999 0.32814,-3.44555 0.32814,-3.44555 2.05092,-5.74258 4.32249,-3.20185 8.35176,-3.13109 13.53609,-3.11741 z" fill="#FFFFFF" id="path17" style="stroke-width:1.31259"/><path d="m 308.11571,417.55163 c 1.29947,0.43315 2.59893,0.86631 3.93777,1.31259 -0.3414,9.21804 -3.23299,16.4721 -9.18813,23.62664 -2.88668,1.03059 -2.88668,1.03059 -5.25036,1.31259 -2.05093,-2.215 -2.05093,-2.215 -3.93778,-5.25037 0.33369,-6.0874 2.86783,-8.66036 7.21925,-12.71572 4.1635,-3.72918 4.1635,-3.72918 7.21925,-8.28573 z" fill="#FFFFFF" id="path18" style="stroke-width:1.31259"/><path d="m 445.93778,295.48065 c 0.0356,3.77379 0.0615,7.54723 0.082,11.3211 0.011,1.0609 0.022,2.12179 0.0333,3.21482 0.0237,5.81373 -0.25158,11.24184 -1.42796,16.96627 -4.76176,-5.27195 -8.78298,-11.41814 -10.50074,-18.37627 1.36579,-4.00678 3.64107,-6.59354 6.645,-9.51629 0.69204,-0.68357 1.38406,-1.36715 2.09707,-2.07143 1.75867,-1.5382 1.75867,-1.5382 3.07126,-1.5382 z" fill="#FFFFFF" id="path19" style="stroke-width:1.31259"/><path d="m 63.973762,397.86276 c 4.510008,2.00445 8.031912,4.72437 11.813324,7.87555 -0.486641,3.40645 -0.885919,4.88813 -3.553221,7.15259 -0.912001,0.53637 -1.823992,1.07274 -2.76362,1.62537 -0.90184,0.54651 -1.803692,1.09303 -2.732863,1.65611 -2.676606,1.33582 -5.09267,2.09445 -8.013981,2.69184 0.687712,-7.70241 2.311594,-13.84618 5.250361,-21.00146 z" fill="#FFFFFF" id="path20" style="stroke-width:1.31259"/><path d="m 473.5022,173.40968 c 2.19915,0.37547 4.38911,0.81094 6.56295,1.3126 -0.7315,4.38895 -1.77428,7.91903 -3.93777,11.81331 3.03208,0.43316 6.06416,0.86632 9.18813,1.31259 0,0.86632 0,1.73263 0,2.62518 -3.89839,-0.43315 -7.79679,-0.8663 -11.81331,-1.31259 0,2.16578 0,4.33155 0,6.56297 -0.86632,0.43315 -1.73263,0.8663 -2.62519,1.31259 -0.15781,-7.5748 0.109,-14.82501 1.3126,-22.31405 0.43315,-0.43316 0.8663,-0.86632 1.31259,-1.3126 z" fill="#FFFFFF" id="path21" style="stroke-width:1.31259"/><path d="m 502.37919,395.23758 c 0.43316,0 0.86632,0 1.31259,0 0.25528,2.78843 0.49929,5.57789 0.73834,8.36776 0.13705,1.55327 0.27411,3.10654 0.41532,4.70688 0.15893,3.98904 0.15893,3.98904 -1.15366,6.61422 -2.54314,-0.9024 -2.54314,-0.9024 -5.25036,-2.62518 -1.31259,-2.78925 -1.31259,-2.78925 -1.31259,-6.56295 1.46443,-3.67127 3.27363,-7.08173 5.25036,-10.50073 z" fill="#FFFFFF" id="path22" style="stroke-width:1.31259"/><path d="m 365.86973,350.60948 c 0,1.29947 0,2.59894 0,3.93778 -1.35362,0.54144 -2.70723,1.08289 -4.10185,1.64073 -4.75223,2.02285 -8.75106,4.56905 -12.96184,7.5474 -0.082,-3.52758 -0.082,-3.52758 1.31259,-7.87554 4.97317,-3.91526 9.51168,-7.33017 15.7511,-5.25037 z" fill="#FFFFFF" id="path23" style="stroke-width:1.31259"/><path d="m 267.42539,424.11459 c 1.29947,0.43315 2.59893,0.8663 3.93777,1.31259 -0.62932,5.53798 -1.53081,8.92119 -5.25036,13.1259 -1.29947,-0.43315 -2.59893,-0.86631 -3.93777,-1.31259 0.62414,-1.94308 1.2542,-3.88428 1.88685,-5.82462 0.35024,-1.08119 0.70049,-2.16239 1.06135,-3.27635 0.98957,-2.71234 0.98957,-2.71234 2.30216,-4.02493 z" fill="#FFFFFF" id="path24" style="stroke-width:1.31259"/><path d="m 146.66701,367.67316 c 1.30079,4.07643 1.25844,6.63169 0.16407,10.74685 -1.48437,6.03778 -2.19998,11.94287 -2.78925,18.13016 -0.86631,-1.29947 -1.73263,-2.59893 -2.62518,-3.93777 -0.86632,0.43315 -1.73263,0.8663 -2.62518,1.31259 2.11578,-9.00335 4.40988,-17.6702 7.87554,-26.25183 z" fill="#FFFFFF" id="path25" style="stroke-width:1.31259"/><path d="m 270.05057,410.98867 c 1.46214,4.38641 0.98939,6.10343 0,10.50073 0,1.29947 0,2.59894 0,3.93778 -0.86631,0 -1.73262,0 -2.62518,0 -1.29947,3.03208 -2.59893,6.06416 -3.93777,9.18813 -0.86632,-0.86631 -1.73262,-1.73262 -2.62518,-2.62518 1.03678,-2.51677 2.07648,-5.03234 3.1174,-7.5474 0.868,-2.10148 0.868,-2.10148 1.75354,-4.24541 1.34165,-3.13865 2.74488,-6.18159 4.31719,-9.20865 z" fill="#FFFFFF" id="path26" style="stroke-width:1.31259"/><path d="m 457.7511,389.98722 c 1.87629,3.09035 2.73887,4.56824 2.13296,8.20368 -0.27072,0.75803 -0.54145,1.51606 -0.82037,2.29704 -1.73262,-0.43315 -3.46524,-0.86631 -5.25037,-1.31259 0,-2.59893 0,-5.19786 0,-7.87554 1.29947,-0.43315 2.59894,-0.86632 3.93778,-1.31259 z" fill="#FFFFFF" id="path27" style="stroke-width:1.31259"/><path d="m 325.1794,256.10292 c 0.43315,0 0.86631,0 1.31259,0 0.51379,2.29231 1.0009,4.5906 1.47666,6.89111 0.27411,1.27916 0.54822,2.55832 0.83063,3.87624 0.34454,3.97886 -0.18104,5.61402 -2.30729,8.92152 -0.86631,-0.86631 -1.73262,-1.73263 -2.62518,-2.62518 0.0308,-3.98905 0.0308,-3.98905 0.49222,-8.69592 0.14551,-1.56004 0.29102,-3.12007 0.44094,-4.72738 0.12522,-1.20133 0.25043,-2.40265 0.37943,-3.64039 z" fill="#FFFFFF" id="path28" style="stroke-width:1.31259"/><path d="m 340.93049,168.15932 c 0,4.96042 -1.3087,5.85555 -4.59407,9.43425 -0.85277,0.93907 -1.70555,1.87813 -2.58416,2.84565 -0.66327,0.71234 -1.32654,1.42468 -2.0099,2.1586 -1.29947,-0.43315 -2.59894,-0.8663 -3.93778,-1.31259 4.33155,-4.33155 8.6631,-8.6631 13.12591,-13.12591 z" fill="#FFFFFF" id="path29" style="stroke-width:1.31259"/><path d="m 473.5022,173.40968 c 3.24866,0.64973 3.24866,0.64973 6.56295,1.3126 -0.43315,2.16576 -0.86631,4.33154 -1.31259,6.56295 -1.29947,0 -2.59893,0 -3.93777,0 -0.43317,-2.59893 -0.86632,-5.19786 -1.31259,-7.87555 z" fill="#FFFFFF" id="path30" style="stroke-width:1.31259"/><path d="m 493.19106,210.16224 c 0.43316,0 0.86631,0 1.31259,0 0,3.46523 0,6.93048 0,10.50072 -0.86631,0 -1.73262,0 -2.62518,0 -0.82038,-3.77369 -0.82038,-3.77369 -1.31259,-7.87554 0.86631,-0.86632 1.73261,-1.73262 2.62518,-2.62518 z" fill="#FFFFFF" id="path31" style="stroke-width:1.31259"/></g></svg>
