<svg xmlns="http://www.w3.org/2000/svg" width="24" height="24"><path fill="#FFF" fill-rule="evenodd" d="M11.27 2.07q-.23.2.3.4c.33.15.35.18.16.2-.22.04-.23.1-.23.83 0 1-.12 1.26-.72 1.56-.58.3-.66.44-.74 1.3-.1 1.18.34 4.86.63 5.15.05.05.57.12 1.14.15.86.04 1.1.01 1.39-.13.53-.27.62-.65.68-2.99.04-1.66.02-2.1-.12-2.57q-.3-1.03-1.02-1.27c-.45-.15-.54-.4-.54-1.4 0-.65.03-.8.15-.8q.14 0 .15-.1c0-.05-.18-.1-.4-.1a1 1 0 0 1-.54-.15c-.16-.17-.2-.18-.3-.08M6.1 13.45v.65h.34c.42 0 .54-.14.54-.67 0-.47-.15-.63-.62-.63-.25 0-.26.02-.26.65m1.2 0v.65h.4q.42 0 .4-.15t-.25-.15c-.23 0-.25-.03-.25-.5 0-.38-.04-.5-.15-.5-.12 0-.15.14-.15.65m.97-.59c-.13.13-.07.8.09 1.02.17.24.53.3.72.1.17-.17.16-1.21 0-1.16-.07.03-.14.25-.16.51-.04.65-.3.65-.34 0q-.06-.68-.31-.47m1.33.59v.65h.4q.42 0 .4-.15t-.25-.15-.25-.1q.02-.09.2-.1t.2-.15q-.02-.13-.2-.15t-.2-.11q.01-.1.25-.05c.2.05.25.03.25-.14s-.07-.2-.4-.2h-.4zm1.64-.51c-.03.07-.04.35-.02.62.03.45.05.5.3.52.48.06.66-.12.66-.63 0-.34-.04-.48-.18-.55-.27-.14-.7-.12-.76.04m1.36.06c-.39.39-.11 1.1.43 1.1s.79-.84.35-1.14q-.44-.32-.78.04m1.1-.06q.01.15.15.16c.11 0 .15.12.15.5s.04.5.15.5q.15 0 .16-.35c.02-.57.03-.6.19-.6q.14-.01.15-.15.02-.15-.47-.18c-.38-.02-.48 0-.48.12m1.17-.08c-.12.12-.08.24.08.24.11 0 .15.12.15.5s.04.5.15.5q.16.02.15-.44c0-.36.04-.45.21-.5.34-.08.16-.3-.27-.34-.22-.02-.43 0-.47.04m1.13.59v.65h.35q.35 0 .35-.15-.02-.13-.2-.15c-.17 0-.2-.07-.2-.5 0-.38-.04-.5-.15-.5-.12 0-.15.14-.15.65m1.07-.58c-.04.03-.07.33-.07.65v.58h.45c.33 0 .45-.04.45-.15q-.02-.15-.24-.15c-.14 0-.28-.04-.31-.1q-.04-.1.2-.1t.25-.15q-.01-.15-.26-.15-.23 0-.19-.1.07-.1.15-.05c.13.08.4-.06.4-.21s-.7-.2-.83-.07m-4.28.39c-.16.2 0 .49.27.49.22 0 .3-.3.14-.5s-.24-.19-.4 0m-4.15 1.7c-.29.28-.31.51-.1.83.17.23.58.3.84.13.2-.13.03-.32-.24-.25q-.24.06-.34-.14c-.15-.28.12-.57.4-.42.25.14.38-.09.14-.27-.27-.19-.43-.16-.7.12m1.3 0c-.29.28-.31.51-.1.83.16.22.58.3.81.14.39-.25.36-.9-.05-1.11-.29-.16-.4-.14-.66.14m1.32-.18c-.04.03-.07.33-.07.65 0 .44.04.58.14.58q.13-.02.18-.22.03-.23.26-.26c.29-.04.24-.24-.09-.33q-.33-.08.09-.08c.42-.01.43-.26 0-.35-.38-.08-.43-.08-.51 0m1.13.58c0 .52.03.66.15.66q.15-.01.15-.25-.01-.26.2-.25c.27 0 .25-.28-.03-.33q-.3-.04.06-.06c.3-.01.4-.3.1-.31-.1 0-.28-.03-.4-.06-.22-.06-.23-.04-.23.6m1.14-.55c-.02.02-.04.3-.04.63V16h.45c.33 0 .45-.04.45-.15q0-.15-.3-.15c-.16 0-.3-.04-.3-.1 0-.05.12-.1.26-.1.32 0 .27-.22-.07-.3-.23-.07-.23-.07.06-.11.45-.06.39-.32-.08-.33-.21 0-.4 0-.43.03m1.44-.01-.38.03V16h.45c.33 0 .45-.04.45-.15q-.01-.15-.25-.15t-.25-.1q.02-.09.2-.1c.27 0 .25-.28-.02-.33q-.31-.04.05-.06.25-.01.27-.15c0-.2-.08-.22-.52-.18m-4.77.32c-.07.04-.11.18-.1.31.06.35.43.33.47-.02.03-.28-.16-.43-.37-.3"/></svg>