<?xml version="1.0" encoding="UTF-8" standalone="no"?>
<svg
   viewBox="0 0 24 24"
   width="24pt"
   height="24pt"
   version="1.1"
   id="svg1"
   sodipodi:docname="bobs.svg"
   xml:space="preserve"
   inkscape:version="1.4 (86a8ad7, 2024-10-11)"
   xmlns:inkscape="http://www.inkscape.org/namespaces/inkscape"
   xmlns:sodipodi="http://sodipodi.sourceforge.net/DTD/sodipodi-0.dtd"
   xmlns="http://www.w3.org/2000/svg"
   xmlns:svg="http://www.w3.org/2000/svg"><defs
     id="defs1" /><sodipodi:namedview
     id="namedview1"
     pagecolor="#ffffff"
     bordercolor="#000000"
     borderopacity="0.25"
     inkscape:showpageshadow="2"
     inkscape:pageopacity="0.0"
     inkscape:pagecheckerboard="0"
     inkscape:deskcolor="#d1d1d1"
     inkscape:document-units="pt"
     inkscape:lockguides="true"
     inkscape:zoom="16.241359"
     inkscape:cx="19.795142"
     inkscape:cy="15.669871"
     inkscape:window-width="1920"
     inkscape:window-height="991"
     inkscape:window-x="-9"
     inkscape:window-y="-9"
     inkscape:window-maximized="1"
     inkscape:current-layer="g1" /><g
     id="g1"
     transform="matrix(0.05365443,0,0,0.05365443,4.1697261,5.1604044)"><path
       d="M 0,0 C 0.7423288,-7.251e-4 1.4846576,-0.0014502 2.2494812,-0.00219727 13.403419,-9.8818e-4 24.338243,0.44893915 35.375,2.1875 c 0,0.66 0,1.32 0,2 2.64,0.33 5.28,0.66 8,1 0,0.66 0,1.32 0,2 1.082813,0.37125 1.082813,0.37125 2.1875,0.75 4.667361,2.074382 7.852999,4.494945 9.8125,9.25 1.286432,7.957925 -1.533886,13.420157 -5.9375,19.8125 -2.16476,2.295957 -4.353982,3.607531 -7.0625,5.1875 0,0.66 0,1.32 0,2 0.640664,0.279727 1.281328,0.559453 1.941406,0.847656 5.973673,2.768722 11.109923,5.754619 15.058594,11.152344 2.019145,5.72091 2.20759,12.897497 0.01172,18.539062 -3.934835,6.450913 -10.36059,12.322414 -17.820313,14.148438 -0.723164,0.103125 -1.446328,0.20625 -2.191406,0.3125 0,0.66 0,1.32 0,2 -3.600156,0.99432 -7.205709,1.967551 -10.8125,2.9375 -1.004824,0.277793 -2.009648,0.555586 -3.044922,0.841797 C 11.539091,98.69739 -2.2583889,98.311071 -16.625,98.1875 c -0.395305,-9.989288 -0.786733,-19.97872 -1.173454,-29.968344 -0.179762,-4.640509 -0.360769,-9.280962 -0.544808,-13.921304 -0.178156,-4.493278 -0.352801,-8.986681 -0.525192,-13.480183 -0.06576,-1.698898 -0.132705,-3.397751 -0.200958,-5.09655 C -19.531112,24.203425 -19.706373,12.714344 -19.625,1.1875 -13.263418,-0.54738376 -6.5538948,-0.00641918 0,0 Z"
       fill="#eb1e26"
       transform="translate(30.625,30.8125)"
       id="path3" /><path
       d="m 0,0 c 7.92,0 15.84,0 24,0 0.33,10.89 0.66,21.78 1,33 1.65,-1.65 3.3,-3.3 5,-5 5.188607,-3.523128 12.029712,-2.511 18,-2 7.217842,1.667192 13.861787,5.662813 19,11 2.859064,6.836892 2.089527,17.65464 -0.164063,24.574219 C 62.799542,69.822955 57.799444,75.872114 50.3125,81.0625 49.696731,81.494416 49.080962,81.926333 48.446533,82.371338 36.194402,90.813112 23.080624,95.993685 8,95 4.2502904,93.750097 3.2345664,92.202878 1,89 -0.27233017,84.959277 -0.13285658,80.939413 -0.11352539,76.743164 c -1.4603e-4,-0.829638 -2.9205e-4,-1.659275 -4.4251e-4,-2.514053 6.9578e-4,-2.737856 0.008473,-5.475643 0.01631165,-8.213486 0.0018654,-1.900004 0.0032887,-3.800008 0.0042877,-5.700012 0.0038158,-4.997694 0.01363812,-9.995359 0.02470398,-14.993042 0.01023424,-5.101009 0.01479796,-10.202023 0.01983643,-15.30304 C -0.03810732,20.013006 -0.02051808,10.00651 0,0 Z"
       fill="#e82029"
       transform="translate(176,34)"
       id="path4" /><path
       d="M 0,0 C 6.8510456,5.8956704 10.525494,11.701427 11.253906,20.890625 11.516899,28.729505 10.752326,34.779012 7,41.6875 6.5758984,42.480273 6.1517969,43.273047 5.7148437,44.089844 2.1749011,50.016043 -2.0381818,53.328577 -8,56.6875 c -0.99,0.598125 -1.98,1.19625 -3,1.8125 -6.718813,2.65953 -14.054079,2.320335 -21.1875,2.4375 -0.772471,0.02151 -1.544941,0.04302 -2.34082,0.06519 -4.952637,0.0283 -8.105342,-0.74791 -12.47168,-3.315186 -2.23525,-0.686366 -2.23525,-0.686366 -4,-1 0,-0.66 0,-1.32 0,-2 -0.598125,-0.265547 -1.19625,-0.531094 -1.8125,-0.804688 -5.134216,-2.805482 -9.07821,-8.527299 -11.492187,-13.78125 C -67.065739,30.515441 -65.254649,19.548515 -61,10.6875 c 4.842838,-6.8093791 10.455183,-13.1203581 18.875,-14.75 1.546875,-0.12375 1.546875,-0.12375 3.125,-0.25 0,-0.66 0,-1.32 0,-2 C -25.36318,-8.451609 -11.577753,-8.5107984 0,0 Z"
       fill="#e81f29"
       transform="translate(161,68.3125)"
       id="path5" /><path
       d="m 0,0 c 0,5.28 0,10.56 0,16 -6.27,0.33 -12.54,0.66 -19,1 0,1.98 0,3.96 0,6 2.256538,1.887064 4.161568,3.211891 6.6875,4.625 1.255454,0.739567 2.5093875,1.48172 3.7617187,2.226562 0.6050538,0.357393 1.2101075,0.714786 1.8334961,1.083008 C -3.0473431,33.211458 -0.39583142,35.406253 2,39 c 0.8193808,5.586687 0.2629823,10.309463 -3,15 -6.6820843,6.726336 -13.307846,11.326943 -22.625,13.25 -0.787456,0.169834 -1.574912,0.339668 -2.38623,0.514648 C -32.373171,69.053898 -38.51143,69.458017 -45,69 c -1.129581,-5.36551 -1.078922,-10.551255 -1,-16 0.565093,-0.05011 1.130186,-0.100225 1.712402,-0.151855 2.555137,-0.231808 5.108776,-0.477303 7.662598,-0.723145 0.889453,-0.07863 1.778906,-0.157266 2.695313,-0.238281 0.850781,-0.08379 1.701562,-0.167578 2.578125,-0.253907 0.785522,-0.07332 1.571044,-0.14663 2.380371,-0.222167 C -26.775798,51.141154 -26.775798,51.141154 -25,49 c 0.166811,-3.083478 0.166811,-3.083478 0,-6 -1.03125,-0.268125 -2.0625,-0.53625 -3.125,-0.8125 C -34.343431,40.382149 -38.629629,37.842844 -43,33 c -0.5775,-0.61875 -1.155,-1.2375 -1.75,-1.875 -2.181646,-3.708797 -2.624954,-7.173231 -1.8125,-11.402344 1.846033,-6.303783 4.744069,-9.7291314 10.125,-13.535156 C -34,5 -34,5 -30,5 c 0,-0.66 0,-1.32 0,-2 9.557383,-4.2253695 19.796941,-3.26745882 30,-3 z"
       fill="#eb2129"
       transform="translate(297,60)"
       id="path7" /><path
       d="m -17.625,43.1875 h -1 c -0.670675,-14.00925 1,0 1,0 z"
       fill="#d43c4d"
       transform="translate(30.625,30.8125)"
       id="path12"
       sodipodi:nodetypes="ccc" /><path
       d="m 0,0 c 2.8125,1.3125 2.8125,1.3125 5,3 1.196672,3.5900161 1.2053888,6.5904839 1.25,10.375 l 0.078125,3.960937 C 5.9104138,22.000379 4.4532587,24.494839 1.25,27.8125 -2.1400056,29.60167 -4.2307823,29.661266 -8,29 -11.365704,26.45048 -12.775697,23.459036 -13.410156,19.332031 -13.635078,12.242094 -13.098762,5.3627249 -8.8329975,-0.37399255 -5.8729413,-2.4883184 -3.5713913,-0.51019876 0,0 Z"
       fill="#f6f8fb"
       transform="translate(135,82)"
       id="path15"
       sodipodi:nodetypes="ccccccccc" /><path
       d="M 0,0 C 3.5551461,3.3817244 4.9252865,5.8792981 5.25,10.75 5.1785778,16.382153 2.6978473,20.819825 -1,25 c -0.66,0 -1.32,0 -2,0 0,0.66 0,1.32 0,2 -0.99,0 -1.98,0 -3,0 C -6.103125,25.88625 -6.20625,24.7725 -6.3125,23.625 -6.539375,22.42875 -6.76625,21.2325 -7,20 -10.286202,17.809199 -13.218807,17.050331 -17,16 -18.725847,14.274153 -18.253351,12.037906 -18.3125,9.6875 -18.26446,4.3966962 -18.26446,4.3966962 -16.25,1.375 -11.157453,-1.7371119 -5.6696317,-1.4056158 0,0 Z"
       fill="#fac90a"
       transform="translate(252,44)"
       id="path16" /><path
       d="m 0,0 c 11.567568,0 11.567568,0 16,4 2.019142,2.3448106 2.966873,3.8736765 3.058594,6.992188 C 18.808041,13.902868 18.471274,16.340216 16.75,18.75 16.1725,19.1625 15.595,19.575 15,20 13.855313,21.020937 13.855313,21.020937 12.6875,22.0625 8.5060331,25.077046 5.1324467,26 0,26 0,17.42 0,8.84 0,0 Z"
       fill="#2758a4"
       transform="translate(42,86)"
       id="path19"
       style="fill:none" /><path
       d="M 0,0 C 6.8510456,5.8956704 10.525494,11.701427 11.253906,20.890625 11.516899,28.729505 10.752326,34.779012 7,41.6875 6.5758984,42.480273 6.1517969,43.273047 5.7148437,44.089844 2.1728047,50.019553 -2.0406564,53.320578 -8,56.6875 c -1.03125,0.639375 -2.0625,1.27875 -3.125,1.9375 -3.642644,1.346194 -6.129417,0.886528 -9.875,0.0625 0,-0.99 0,-1.98 0,-3 5.61809,-1.959799 5.61809,-1.959799 8.375,-2.25 C -6.3856311,51.654823 -1.486932,46.81278 2.0351563,41.5 3.5559772,38.643073 4.2922712,35.84011 5,32.6875 c 0.66,0 1.32,0 2,0 C 6.3342851,16.707863 6.3342851,16.707863 -2,3.6875 -3.2092856,2.9457352 -4.4394985,2.2370954 -5.6875,1.5625 -9,-0.3125 -9,-0.3125 -11,-4.3125 c -9.24,0 -18.48,0 -28,0 0,-0.66 0,-1.32 0,-2 C -25.36318,-8.451609 -11.577753,-8.5107984 0,0 Z"
       fill="#eb3840"
       transform="translate(161,68.3125)"
       id="path20" /><path
       d="m 80,55 c -3.517678,0 0,0 0,0 z"
       fill="#2c4b95"
       transform="translate(10,30)"
       id="path22"
       sodipodi:nodetypes="cc" /><path
       d="M 0,-5.1639801 C 4.6548288,-4.0002729 15.62277,1.5911022 18.112794,5.5696683 19.156728,12.137405 14.115635,26.108553 5,25 3.4375,26.875 3.4375,26.875 2,28 H 0 Z"
       fill="#e7edf6"
       transform="translate(204,83)"
       id="path31"
       sodipodi:nodetypes="cccccc" /><path
       d="m 0,0 c 4.29,0.33 8.58,0.66 13,1 0,0.66 0,1.32 0,2 2.64,0.33 5.28,0.66 8,1 0,0.66 0,1.32 0,2 0.721875,0.2475 1.44375,0.495 2.1875,0.75 4.667361,2.0743825 7.852999,4.494945 9.8125,9.25 1.028694,6.363547 -0.314416,11.727194 -4,17 -0.99,0.495 -0.99,0.495 -2,1 -0.66,-0.33 -1.32,-0.66 -2,-1 0.33,-0.99 0.66,-1.98 1,-3 0,0.66 0,1.32 0,2 0.66,0 1.32,0 2,0 0.66,-5.28 1.32,-10.56 2,-16 -0.66,0 -1.32,0 -2,0 C 27.319375,15.278125 26.63875,14.55625 25.9375,13.8125 20.551693,8.2534655 13.646603,5.6047937 6.2617187,3.7734375 4,3 4,3 0,0 Z"
       fill="#db2835"
       transform="translate(53,32)"
       id="path38" /><path
       d="m 0,0 c 5.0560699,2.3393756 9.7063465,5.533277 13.6875,9.4375 0,0.66 0,1.32 0,2 -0.66,0 -1.32,0 -2,0 -0.33,0.99 -0.66,1.98 -1,3 0,-0.66 0,-1.32 0,-2 -0.66,0 -1.32,0 -2,0 -1.3707379,-1.636042 -2.7005526,-3.3067806 -4,-5 -2.71103,-3.48561 -5.7411726,-4.1070201 -10,-5 -6.395503,-0.6659591 -11.164368,0.3381328 -17,3 -0.66,0.66 -1.32,1.32 -2,2 0,-0.99 0,-1.98 0,-3 -0.66,-0.33 -1.32,-0.66 -2,-1 C -19.707066,-3.8284769 -8.7201306,-3.1896239 0,0 Z"
       fill="#e9252e"
       transform="translate(229.3125,61.5625)"
       id="path39" /><path
       d="m 0,0 c 0,5.28 0,10.56 0,16 -5.94,0.33 -11.88,0.66 -18,1 0.33,-0.66 0.66,-1.32 1,-2 3.160156,-0.414062 3.160156,-0.414062 7.0625,-0.625 1.2903516,-0.07477 2.5807031,-0.149531 3.9101563,-0.226562 C -5.0283203,14.099453 -4.0292969,14.050469 -3,14 c 0,-3.96 0,-7.92 0,-12 -16.97756,0.8372064 -16.97756,0.8372064 -33,6 -0.33,0.66 -0.66,1.32 -1,2 -2.0625,0.625 -2.0625,0.625 -4,1 0,-0.66 0,-1.32 0,-2 6.5,-4 6.5,-4 11,-4 0,-0.66 0,-1.32 0,-2 9.557383,-4.2253695 19.796941,-3.26745882 30,-3 z"
       fill="#b63651"
       transform="translate(297,60)"
       id="path40" /><path
       d="m 0,0 c 7.6445937,1.0920848 12.392724,3.6772371 18,9 2.70501,4.057515 2.529005,7.238959 2,12 -1.565245,4.226161 -3.162063,6.617832 -7,9 -0.33,-1.65 -0.66,-3.3 -1,-5 0.33,0.66 0.66,1.32 1,2 0.66,0 1.32,0 2,0 1.182362,-4.581654 1.75895,-9.309859 1,-14 C 13.19435,9.312574 10.000028,7.2439179 6,5 3.9768192,3.7021104 1.9713399,2.3753534 0,1 0,0.67 0,0.34 0,0 Z"
       fill="#ee282f"
       transform="translate(279,87)"
       id="path48" /><path
       d="M 0,0 C 0,3 0,3 -0.98779297,4.8623047 -2.2234171,7.4718378 -2.2287795,9.3249593 -2.1953125,12.203125 c 0.00645,0.979688 0.012891,1.959375 0.019531,2.96875 0.016758,1.015781 0.033516,2.031562 0.050781,3.078125 0.013535,1.546875 0.013535,1.546875 0.027344,3.125 0.023536,2.541903 0.056416,5.083333 0.097656,7.625 0.99,0.33 1.98,0.66 3,1 0.53625,0.639375 1.0725,1.27875 1.625,1.9375 C 6.0265018,34.891436 9.6358703,35.291295 14,36 c -1.98,0.495 -1.98,0.495 -4,1 0,0.99 0,1.98 0,3 -2.31,0 -4.62,0 -7,0 0,-0.33 0,-0.66 0,-1 1.65,0 3.3,0 5,0 C 8,38.34 8,37.68 8,37 7.484375,36.9175 6.96875,36.835 6.4375,36.75 2.9828476,35.68703 -0.38192664,34.514898 -3,32 -4.8845077,27.019957 -5.3377708,22.276554 -5.3125,17 -5.3286133,16.327109 -5.3447266,15.654219 -5.3613281,14.960938 -5.3662657,9.8456394 -4.2934461,6.4641287 -2,2 -1.34,1.34 -0.68,0.68 0,0 Z"
       fill="#e63c46"
       transform="translate(121,79)"
       id="path55" /><path
       d="M 0,0 C 1,2 1,2 0.5,4.3125 -1.5960565,8.0679345 -4.3884412,9.7845059 -8,12 c -0.99,0.61875 -1.98,1.2375 -3,1.875 -3.720591,1.395222 -6.166449,0.968381 -10,0.125 0,-0.99 0,-1.98 0,-3 5.61809,-1.959799 5.61809,-1.959799 8.375,-2.25 C -7.6685404,7.3338687 -3.603824,3.603824 0,0 Z"
       fill="#e83039"
       transform="translate(161,113)"
       id="path58" /><path
       d="M 0,0 C 2.31,0 4.62,0 7,0 7,0.33 7,0.66 7,1 5.02,1 3.04,1 1,1 c 0,8.58 0,17.16 0,26 8.8483014,-2.426901 8.8483014,-2.426901 15,-7 1.32,0 2.64,0 4,0 0,1.65 0,3.3 0,5 -0.66,-0.33 -1.32,-0.66 -2,-1 0.33,-0.66 0.66,-1.32 1,-2 -4.22105,2.721907 -4.22105,2.721907 -8,6 C 7.1087903,29.29707 4.1219368,30 0,30 0,20.1 0,10.2 0,0 Z"
       fill="#b92640"
       transform="translate(41,85)"
       id="path59" /><path
       d="M 0,0 C 1.32,0.33 2.64,0.66 4,1 4,1.66 4,2.32 4,3 4.66,2.67 5.32,2.34 6,2 8.6723621,1.8658453 11.322505,1.956815 14,2 14,2.33 14,2.66 14,3 13.275547,3.063164 12.551094,3.1263281 11.804688,3.1914063 6.6520653,3.8440717 2.898957,4.3414512 -0.625,8.375 c -2.9346336,3.850646 -3.5048979,7.400116 -3.4726562,12.171875 0.00322,0.844336 0.00645,1.688672 0.00977,2.558594 0.00838,0.872695 0.016758,1.74539 0.025391,2.644531 0.00451,0.888164 0.00902,1.776328 0.013672,2.691406 C -4.037074,30.627673 -4.0206425,32.813802 -4,35 -7.6465455,31.353454 -6.4334631,25.607213 -6.4426269,20.681885 -6.2788452,12.136783 -4.1407625,6.9246653 2,1 1.34,0.67 0.68,0.34 0,0 Z"
       fill="#bf233b"
       transform="translate(124,73)"
       id="path66" /><path
       d="M 0,0 C 1.1350069,0.88312038 2.2576131,1.7821886 3.375,2.6875 4.0014844,3.1863672 4.6279687,3.6852344 5.2734375,4.1992187 9.6115843,8.723847 9.4092227,14.102964 9.3359375,20.039062 8.8591523,24.241425 7.4659743,26.609285 5,30 4.34,29.01 3.68,28.02 3,27 3.66,27 4.32,27 5,27 6.149826,22.909961 6.1109426,18.968229 6.0625,14.75 6.0579883,14.004922 6.0534766,13.259844 6.0488281,12.492188 6.0370925,10.661424 6.0191585,8.8307013 6,7 5.1917578,6.7241406 4.3835156,6.4482812 3.5507813,6.1640625 2.7090234,5.7799219 1.8672656,5.3957812 1,5 0.1875,2.375 0.1875,2.375 0,0 Z"
       fill="#df1c29"
       transform="translate(82,80)"
       id="path70" /><path
       d="M -4.2600663,-8.2158421 6.7607261,-0.52145224 8.5214522,7.6957096 C 11.590842,12.825743 -0.27648537,18.911552 -3.6514854,18.911552 Z"
       fill="#ebf1f7"
       transform="translate(46,94)"
       id="path71"
       sodipodi:nodetypes="ccccc" /><path
       d="M 0,0 C 1.2632812,0.01804688 2.5265625,0.03609375 3.828125,0.0546875 4.7923437,0.07789063 5.7565625,0.10109375 6.75,0.125 c 0,0.33 0,0.66 0,1 -5.94,0.495 -5.94,0.495 -12,1 0.99,0.66 1.98,1.32 3,2 C -3.0814453,4.4150391 -3.0814453,4.4150391 -3.9296875,4.7109375 -4.6541406,4.9713281 -5.3785937,5.2317187 -6.125,5.5 -6.8442969,5.7552344 -7.5635937,6.0104687 -8.3046875,6.2734375 -10.43158,7.0637778 -10.43158,7.0637778 -12.25,9.125 c 0,-0.99 0,-1.98 0,-3 -0.66,-0.33 -1.32,-0.66 -2,-1 C -9.9080825,0.34889072 -6.3964944,-0.1184536 0,0 Z"
       fill="#c52d43"
       transform="translate(217.25,59.875)"
       id="path83" /><path
       d="m 0,0 c 4.29,0.33 8.58,0.66 13,1 0,0.66 0,1.32 0,2 2.64,0.33 5.28,0.66 8,1 0,0.33 0,0.66 0,1 C 6.2186788,4.405467 6.2186788,4.405467 0,1 0,0.67 0,0.34 0,0 Z"
       fill="#be2c44"
       transform="translate(53,32)"
       id="path93" /><path
       d="m 0,0 c 0.33,0 0.66,0 1,0 0,1.98 0,3.96 0,6 -2.6473892,1.4606285 -3.8944833,2 -7,2 0,0.66 0,1.32 0,2 -0.66,0 -1.32,0 -2,0 0.5408732,-3.7861123 2.1172233,-5.5540077 5,-8 0.66,0 1.32,0 2,0 0.33,-0.66 0.66,-1.32 1,-2 z"
       fill="#f03a40"
       transform="translate(237,97)"
       id="path97" /><path
       d="m -5.0207924,-7.6072612 9.1729376,1.7607261 c -0.3125,3.375 5.6211637,5.96146884 2.8036306,17.3458751 L -4.107921,16.69439 Z"
       fill="#d4dfee"
       id="path107"
       transform="translate(45,55)"
       sodipodi:nodetypes="ccccc" /><path
       d="M 0,0 C 2,1 2,1 3.125,3.6875 4.7185295,9.6134378 4.1517412,15.921924 4,22 3.67,22 3.34,22 3,22 3,18.04 3,14.08 3,10 2.34,10 1.68,10 1,10 0.67,6.7 0.34,3.4 0,0 Z"
       fill="#9f2b4e"
       transform="translate(168,78)"
       id="path109" /><path
       d="M 0,0 C 0.66,0.33 1.32,0.66 2,1 2.1546875,2.175625 2.1546875,2.175625 2.3125,3.375 2.7633084,6.2448898 2.7633084,6.2448898 5.5625,7.8125 6.366875,8.204375 7.17125,8.59625 8,9 5,10 5,10 1.8125,8.5625 0.884375,8.046875 -0.04375,7.53125 -1,7 -1.0425436,5.0004525 -1.0408078,2.9995836 -1,1 -0.67,0.67 -0.34,0.34 0,0 Z"
       fill="#cf283b"
       transform="translate(276,78)"
       id="path113" /><path
       d="M 0,0 C 0.99,0 1.98,0 3,0 3.33,3.3 3.66,6.6 4,10 3.34,9.67 2.68,9.34 2,9 1.855625,8.34 1.71125,7.68 1.5625,7 1.376875,6.34 1.19125,5.68 1,5 0.01,4.67 -0.98,4.34 -2,4 -1.34,2.68 -0.68,1.36 0,0 Z"
       fill="#89a8d1"
       transform="translate(167,118)"
       id="path123" /><path
       d="M 0,0 C 0.66,0 1.32,0 2,0 3.4420794,2.8841588 3.0939489,5.4172153 3.0625,8.625 3.05348,9.8135156 3.044453,11.002031 3.035156,12.226563 3.0235547,13.141797 3.0119531,14.057031 3,15 2.67,15 2.34,15 2,15 1.6622332,13.25085 1.3299633,11.500639 1,9.75 0.814375,8.7754688 0.62875,7.8009375 0.4375,6.796875 0,4 0,4 0,0 Z"
       fill="#ed1a21"
       transform="translate(241,73)"
       id="path127" /><path
       d="M 0,0 C 1.1754,0.92652701 2.3401058,1.8666339 3.5,2.8125 4.1496875,3.3345703 4.799375,3.8566406 5.46875,4.3945312 7,6 7,6 7,9 5.8225266,8.2670829 4.6582315,7.512962 3.5,6.75 2.5254688,6.1235156 2.5254688,6.1235156 1.53125,5.484375 1.0259375,4.9945312 0.520625,4.5046875 0,4 0,2.68 0,1.36 0,0 Z"
       fill="#ca2a3e"
       transform="translate(82,80)"
       id="path128" /><path
       d="m 0,0 c -4.7435444,2.2265616 -8.7225072,3.4614803 -14,4 0.33,-0.66 0.66,-1.32 1,-2 0.99,0 1.98,0 3,0 0,-0.66 0,-1.32 0,-2 3.6630523,-0.74926071 6.4235515,-1.2380014 10,0 z"
       fill="#af2946"
       transform="translate(212,124)"
       id="path130" /><path
       d="M 0,0 C 2.625,0.625 2.625,0.625 5,2 5.33,3.32 5.66,4.64 6,6 1.545,4.02 1.545,4.02 -3,2 -2.01,1.34 -1.02,0.68 0,0 Z"
       fill="#e02431"
       transform="translate(76,77)"
       id="path133" /><path
       d="M 0,0 C 1.605171,0.08733576 3.2092166,0.19552224 4.8125,0.3125 6.1524805,0.39951172 6.1524805,0.39951172 7.5195312,0.48828125 10.30604,1.0631358 11.241358,1.8206856 13,4 11.35,4.33 9.7,4.66 8,5 7.67,4.34 7.34,3.68 7,3 4.6859378,2.2692435 2.3517113,1.5986174 0,1 0,0.67 0,0.34 0,0 Z"
       fill="#e5343f"
       transform="translate(224,63)"
       id="path134" /><path
       d="M 0,0 C 1.32,0.66 2.64,1.32 4,2 1.2912066,3.3543967 -1.0093327,3.0650145 -4,3 -2.68,2.01 -1.36,1.02 0,0 Z m -8,3 c 1.32,0 2.64,0 4,0 0,0.66 0,1.32 0,2 -1.32,0 -2.64,0 -4,0 0,-0.66 0,-1.32 0,-2 z"
       fill="#f0181f"
       transform="translate(206,121)"
       id="path138" /><path
       d="m 0,0 c 0.33,0 0.66,0 1,0 0.25,6.625 0.25,6.625 -2,10 -0.66,0 -1.32,0 -2,0 0.949339,-3.3543311 1.8974884,-6.692465 3,-10 z"
       fill="#533d79"
       transform="translate(171,100)"
       id="path141" /><path
       d="M 0,0 C 2,1.4375 2,1.4375 4,4 4.3544244,7.0282442 4.2334724,9.9648594 4,13 3.67,13 3.34,13 3,13 3,10.36 3,7.72 3,5 2.01,5 1.02,5 0,5 0,3.35 0,1.7 0,0 Z"
       fill="#b92943"
       transform="translate(295,95)"
       id="path142" /><path
       d="M 0,0 C 2.31,0.33 4.62,0.66 7,1 7.33,2.32 7.66,3.64 8,5 4.6249633,3.8141763 2.3527727,2.7242631 0,0 Z"
       fill="#ee5158"
       transform="translate(279,87)"
       id="path146" /><path
       d="M 0,0 C 2.64,0.66 5.28,1.32 8,2 7.67,2.66 7.34,3.32 7,4 4.69,3.67 2.38,3.34 0,3 0,2.01 0,1.02 0,0 Z"
       fill="#cd283b"
       transform="translate(140,124)"
       id="path148" /><path
       d="M 0,0 C 2,1.375 2,1.375 4,3 4,3.66 4,4.32 4,5 3.34,5 2.68,5 2,5 1.67,5.99 1.34,6.98 1,8 1,7.34 1,6.68 1,6 0.34,6 -0.32,6 -1,6 -0.67,4.02 -0.34,2.04 0,0 Z"
       fill="#c1344b"
       transform="translate(239,68)"
       id="path156" /></g></svg>
