<svg xmlns="http://www.w3.org/2000/svg" width="24" height="24"><path fill="#FFF" fill-rule="evenodd" d="M12.6 4.61c0 2.45.01 2.6.18 2.54C14.7 6.3 16.6 6.7 17.8 8.2c.59.74.82 1.47.83 2.54v.9l.2-.6c.28-.88.34-2.61.12-3.6a7.2 7.2 0 0 0-5.21-5.25c-1.27-.33-1.14-.6-1.14 2.41M9.7 2.34a7 7 0 0 0-2.9 1.84c-.8.79-.92.95-.8 1.06.18.17 1 .43 1.64.52 1.32.18 2.11 1.02 2.3 2.43l.06.54-.27-.32q-.4-.47-1.04-.66c-.2-.06-.16.02.27.46a5 5 0 0 1 1.03 1.64 7 7 0 0 0-1.66-.75C6.54 8.5 5.8 7.68 5.8 6.28c0-.37-.04-.68-.09-.68-.13 0-.5.93-.73 1.83a7 7 0 0 0 .17 3.76 7.2 7.2 0 0 0 8.38 4.65c.9-.2 2.37-.9 3.02-1.45a2 2 0 0 0 .4-.37l-.6.27a4 4 0 0 1-5.33-1.96l-.27-.58-.03-4.82c-.03-5.5.09-4.98-1.02-4.6m4.4 6.27c-.52.13-1.12.6-1.38 1.1-.34.63-.3 1.6.1 2.16 1.23 1.77 4 .96 4-1.16a2.2 2.2 0 0 0-2.72-2.1"/></svg>