<svg xmlns="http://www.w3.org/2000/svg" width="24" height="24"><path fill-rule="evenodd" d="M3.2 8.9q0 .57-.12.63c-.07.03.18.06.55.06s.77-.04.88-.1c.23-.12.25-.44.04-.53-.13-.05-.13-.09-.03-.26s.1-.22-.02-.3a1 1 0 0 0-.35-.1q-.17.02-.08.07c.07.02.13.13.13.24q.01.2-.25.19c-.2 0-.25-.05-.25-.25s-.05-.25-.25-.25c-.24 0-.25.03-.25.6m2.1-.1c0 .63.17.8.8.8.6 0 .8-.2.8-.83 0-.26-.04-.47-.1-.47-.05 0-.1.24-.1.54 0 .57-.08.66-.55.66q-.5.02-.43-.75c.03-.41.01-.45-.2-.45-.2 0-.22.05-.22.5m2.4.1q0 .57-.12.63c-.07.03.1.05.37.05s.44-.02.38-.05c-.07-.02-.13-.16-.13-.29 0-.2.05-.24.3-.24q.32 0 .3.18c0 .25.2.42.5.42q.32.01.07-.1a.4.4 0 0 1-.17-.3q-.02-.17-.12-.23-.15-.03 0-.2c.2-.23 0-.47-.37-.46q-.22 0-.13.06c.17.07.15.4-.04.47-.28.1-.34.07-.34-.24 0-.25-.04-.3-.25-.3-.24 0-.25.03-.25.6m2.4 0q0 .57-.12.63c-.07.03.18.06.55.06.94.01 1.34-.24.92-.6q-.18-.12-.04-.25c.16-.2-.07-.44-.4-.43q-.26 0-.08.06c.28.07.22.43-.08.43-.2 0-.25-.05-.25-.25s-.05-.25-.25-.25c-.24 0-.25.03-.25.6m2.19-.04q.03.59-.1.65c-.09.05.21.09.74.09.84 0 .87 0 .87-.22q.01-.3-.1-.05-.1.17-.55.17c-.41 0-.45-.02-.45-.25q-.01-.26.2-.25.18 0 .2.1 0 .09.1.1c.06 0 .1-.12.1-.26q.02-.29-.18-.2c-.32.13-.37.11-.4-.16q-.03-.3-.25-.28c-.2 0-.22.04-.19.56m2.32.03q0 .58-.12.64c-.07.03.07.05.32.05s.4-.02.32-.05c-.06-.02-.12-.16-.12-.3 0-.21.04-.24.32-.21.25.02.34.09.38.28.05.2.12.25.4.27q.3 0 .18-.03c-.1-.03-.18-.13-.18-.21a.6.6 0 0 0-.17-.35q-.15-.18-.04-.18.11-.02.1-.22c-.03-.18-.11-.24-.34-.25q-.26-.01-.17.03c.2.09.14.42-.08.49-.28.09-.43-.03-.37-.31.03-.2 0-.24-.2-.24-.22 0-.23.04-.23.6m2.38 0c.03.5.01.59-.15.63-.1.03.05.05.32.05.28 0 .44-.02.38-.05-.07-.02-.13-.16-.13-.29 0-.2.05-.24.29-.24s.31.06.4.3c.08.26.15.3.43.29q.28 0 .16-.06c-.1-.02-.18-.12-.18-.2a.6.6 0 0 0-.17-.35q-.16-.18-.04-.18.11-.02.1-.22-.03-.24-.32-.26c-.26-.03-.27-.02-.15.18.1.17.1.22-.02.3-.3.2-.5.12-.5-.2 0-.24-.04-.3-.22-.3-.22 0-.23.03-.2.6m2.4-.27c.33.34.43.8.2.9-.07.03.1.05.37.05.28 0 .44-.02.38-.05-.21-.08-.15-.54.13-.9.31-.41.22-.44-.12-.03l-.26.3-.25-.3q-.25-.3-.5-.3h-.27zM3.7 9.21c0 .27.03.3.27.27.49-.05.4-.57-.1-.58q-.17-.01-.17.3m6.9 0c0 .28.03.31.27.28.49-.05.4-.57-.1-.58q-.17-.01-.17.3"/></svg>