<svg xmlns="http://www.w3.org/2000/svg" width="24" height="24"><path fill="#FFF" fill-rule="evenodd" d="M19.65 6.75c-.3.3-.33.65-.06.65.24 0 .51-.36.51-.67q0-.46-.45.02m-1.48-.08c-.16.16-.05.57.24.85.25.25.33.29.4.17.27-.44-.3-1.36-.64-1.02m-7.85.59q-.22.14-.22.48c0 .4.13.52.63.58.3.03.4 0 .48-.14.12-.23.35-.23.48 0 .15.26.45.21.51-.08q.05-.24.28-.28c.26-.04.2-.22-.09-.22-.1 0-.19-.04-.19-.1q.02-.09.2-.1c.1 0 .22-.04.25-.1q.04-.1-.3-.1H12v.53l-.02.52-.17-.5q-.35-1.01-.65-.07c-.14.4-.2.48-.39.46l-.3-.03c-.1-.01-.09-.69.02-.76q.09-.04.16.05c.1.15.25.12.25-.04q-.01-.14-.16-.2c-.2-.08-.16-.08-.42.1m3.33-.08c-.03.03-.05.3-.05.59v.53h.37c.2 0 .33-.03.29-.07s-.15-.08-.24-.08q-.16-.02-.2-.17-.06-.2.23-.18.24 0 .2-.1c-.03-.05-.15-.1-.26-.1q-.17 0-.19-.1.02-.09.2-.1c.32 0 .32-.17 0-.22a1 1 0 0 0-.35 0m-.85.57c0 .3.04.55.1.55q.1-.02.1-.25-.01-.26.2-.25.18 0 .2-.1c0-.05-.1-.1-.2-.1q-.2 0-.17-.12.05-.12.2-.1.14.01.22-.08.04-.1-.3-.1h-.35zm7.62-.12c-.28.3-.3.77-.03.77.25 0 .61-.45.61-.76s-.3-.32-.58 0m-3.02.25c0 .24.36.51.67.51.3 0 .3-.33 0-.54-.31-.23-.67-.2-.67.03m1.8 0c-.23.24-.28.81-.06.81.2 0 .57-.5.54-.74-.04-.28-.23-.3-.47-.07M7.1 8.1q.02.08.15.15c.12.04.15.26.15 1.05 0 .96-.01 1-.26 1.2-.36.28-.88.28-1.08-.01-.26-.37-.2-.48.27-.48q.83.01.75-.55c-.04-.41-.44-.62-.94-.5-.5.13-.79.54-.78 1.07.03.8.88 1.2 1.68.79.4-.2.4-.2.61 0q.38.34.82.04c.18-.13.24-.13.53.02 1 .5 1.95-.86 1.16-1.66a1.04 1.04 0 0 0-1.43.02c-.24.23-.28.35-.28.85s-.02.57-.2.57-.2-.08-.23-1.32L8 8h-.44c-.25 0-.45.04-.45.09m-3.9.9q-.29.07-.09.13c.1.04.31.42.49.85s.36.83.42.9q.3.39.74-.66c.18-.4.42-.83.55-.97q.2-.22.13-.25c-.42-.05-.76-.04-.8.03q-.04.07.05.08.24 0-.08.85l-.2.5-.19-.45c-.3-.68-.35-.9-.23-.9q.1 0 .11-.07c0-.1-.56-.11-.9-.03m7.95.04c-.73.32-.73 1.48-.01 1.82.4.2.93.13 1.27-.15.21-.17.23-.17.4 0 .39.39 1.18.36 1.66-.06.35-.3.23-.45-.13-.16-.48.38-1.24.18-1.24-.32 0-.13.1-.17.4-.17q.8 0 .8-.43c0-.28-.1-.4-.37-.55-.6-.32-1.3.12-1.4.88-.07.53-.15.65-.53.79-.24.08-.34.06-.55-.1-.2-.17-.25-.29-.25-.68q0-.5.18-.64c.25-.23.29-.22.35.13.05.23.12.3.3.3.45 0 .45-.54 0-.7-.32-.13-.52-.12-.88.04m6-.05q-.03.1.12.2c.16.1.16.1-.05.1-.3.01-.72.44-.72.74 0 .66.73.98 1.3.57l.27-.2.27.5c.26.48.29.5.72.5h.44l.5-1c.28-.57.6-1.07.75-1.16q.53-.34-.4-.34c-.53 0-.8.12-.5.24q.13.06.15.19a5 5 0 0 1-.66 1.27 4 4 0 0 1-.35-.62c-.24-.48-.29-.66-.2-.79q.08-.17.04-.23c-.1-.1-1.61-.07-1.68.03m-11.11.36c-.15.23-.15.28-.03.36.08.05.2.07.27.04l.23-.05c.06 0 .09-.12.07-.27-.04-.37-.32-.41-.54-.08m3.17-.1c-.18.2-.25.85-.12 1.18.23.6.7.4.78-.34.06-.7-.35-1.23-.66-.85m4.06.04c-.37.4-.06.7.39.38.15-.12.17-.19.08-.32q-.2-.38-.47-.06m3.85.34c-.15.15-.16.6 0 .76.15.15.43.15.69.02.15-.09.17-.15.09-.3a.4.4 0 0 0-.3-.2c-.12 0-.24-.1-.28-.2q-.07-.23-.2-.08"/></svg>