<svg xmlns="http://www.w3.org/2000/svg" width="24" height="24"><path fill="#FFF" fill-rule="evenodd" d="M3 8.95v4.35h18l-.01-1.82c0-1-.04-1.7-.08-1.53-.13.53-.4.92-.93 1.39l-.53.46H4.62l-.43-.33c-.69-.52-1.02-1.07-1.07-1.75-.05-.75.18-1.23.9-1.86 2.8-2.44 10.4-2.9 14.64-.86 1.24.6 2.04 1.4 2.25 2.25.04.17.07-.81.08-2.17L21 4.6H3zM6.7 7.4a2.6 2.6 0 0 0-1.16 1.02 2.3 2.3 0 0 0 0 1.57c.22.4.89.96 1.35 1.1a4 4 0 0 0 1.8 0c.3-.1.31-.13.31-.7v-.6l-.29.15c-.75.4-1.61.22-1.9-.37a.9.9 0 0 1 .4-1.12 1.8 1.8 0 0 1 1.39 0c.38.22.4.2.4-.4 0-.67-.14-.77-1.15-.82-.56-.03-.8 0-1.15.17m3.73 1.63-.89 2c-.05.15.01.17.63.17h.69l.13-.35.12-.35h1.68l.12.35.13.35h.68a2 2 0 0 0 .68-.06c0-.03-.4-.93-.87-2l-.87-1.94h-1.41zm4.67.17v2h1.2l.02-.62.03-.63.74-.07c1.06-.1 1.5-.48 1.5-1.31.01-1.02-.58-1.36-2.31-1.37H15.1zm1.27-1.03c-.04.03-.07.24-.07.45 0 .37 0 .38.38.38.2 0 .43-.05.5-.12.18-.18.14-.56-.07-.68s-.64-.13-.74-.03M11.76 9l-.23.58q-.07.12.4.12c.26 0 .47-.03.46-.07s-.1-.3-.23-.58l-.22-.5z"/></svg>