<svg xmlns="http://www.w3.org/2000/svg" width="24" height="24"><path fill="#FFF" fill-rule="evenodd" d="M11.3 2.24c-.44.3-.84 1.02-1.07 1.92-.22.88-.24 3.88-.04 4.79.28 1.27.85 2.1 1.57 2.25.75.17 1.82-.26 2-.8q.05-.19-.27-.6a1.6 1.6 0 0 1-.37-.9c-.04-.46-.02-.52.3-.85.3-.29.43-.35.78-.35.34 0 .48.06.76.34.32.32.34.39.34.98 0 .5-.06.77-.3 1.27-.17.35-.28.66-.26.69.08.07 4.15-3.9 4.22-4.11.14-.45.14-.45-3.38-3.86-.43-.41-.8-.73-.83-.7s.09.32.25.65c.33.64.42 1.43.21 1.97-.12.3-.65.67-.99.67-.92 0-1.44-1.14-.87-1.91.45-.63.49-.74.3-1.02-.41-.63-1.7-.87-2.35-.43M7.29 4.17a29 29 0 0 0-2.13 2.16.7.7 0 0 0-.12.53c.06.22 3.02 3.22 3.93 3.99q.6.48.04-.3a6.4 6.4 0 0 1-.04-7.58c.19-.27.33-.53.3-.58 0-.06-.9.75-1.98 1.78m6.74 8.81c-.26.04-.53.37-.53.66 0 .1-.08.25-.17.32-.17.13-.17.15 0 .28.13.1.17.28.17.71s-.04.61-.17.7c-.17.12-.16.14.11.25.16.06.42.08.58.05.3-.07.38-.3.13-.39-.11-.04-.15-.21-.15-.65 0-.54.02-.6.22-.63q.21-.04.26-.2.06-.2-.23-.18c-.23 0-.26-.04-.23-.27.04-.34.33-.43.43-.14.08.25.28.27.45.06.25-.3-.3-.66-.87-.57m-10.18.34c-.54.42-.71 1.33-.37 1.97.21.4.73.71 1.17.71.67 0 1.29-.7.93-1.06-.21-.22-.46-.07-.5.3-.03.27-.07.31-.34.34-.39.04-.6-.16-.74-.68-.22-.81.25-1.6.86-1.46.19.05.25.12.22.29q-.04.45.32.47c.23 0 .35-.33.2-.6-.28-.53-1.23-.69-1.75-.28m2.4.71c-.21.16-.16.5.08.55q.18.04.24-.18c.08-.29.47-.23.51.08.03.2-.01.22-.33.22-.39 0-.85.35-.85.65 0 .23.45.65.7.65.12 0 .3-.05.42-.1q.2-.14.31 0c.16.15.47.12.54-.06.03-.09 0-.2-.07-.24q-.12-.09-.14-.75c0-.54-.05-.7-.2-.8-.25-.19-.96-.2-1.2-.02m1.88.02c-.18.14-.18.16-.02.26.14.08.18.23.18.7 0 .33-.04.59-.1.59-.21 0-.09.28.15.34.48.12 1-.15.6-.3q-.15-.04-.15-.58 0-.95.35-.66c.13.11.18.11.3-.02a.3.3 0 0 0 .1-.31c-.08-.2-.45-.23-.63-.05-.1.1-.15.1-.24 0-.16-.16-.3-.15-.54.03m1.69-.08c-.15.06-.17.33-.03.33.06 0 .1.28.1.64s-.04.68-.1.71c-.3.18.2.4.65.3q.43-.1.1-.41c-.17-.18-.2-.76-.05-1.05.1-.16.14-.17.3-.06.17.1.22.1.3-.03a.5.5 0 0 0 .07-.3c-.03-.19-.43-.25-.62-.1q-.13.11-.2 0c-.06-.1-.3-.12-.52-.03m1.85.04c-.24.13-.48.62-.48.94 0 .38.29.82.62.96.47.2 1.18-.04 1.18-.38q.01-.15-.22-.07c-.47.15-.98-.01-.98-.32 0-.1.16-.14.6-.14.5 0 .6-.03.65-.2.07-.23-.18-.75-.4-.84-.25-.1-.78-.07-.97.05m3.21.18c-.5.5-.36 1.36.26 1.66.43.2.63.19 1.02-.05.41-.25.58-.79.39-1.25-.3-.7-1.14-.88-1.67-.36m1.96-.12c-.15.15-.15.17 0 .25q.15.09.15.53c0 .87.4 1.32.97 1.06q.27-.12.37-.01c.14.14.39.13.62-.04.18-.14.18-.16.02-.28-.13-.1-.18-.31-.2-.88-.03-.66-.05-.75-.23-.78a.6.6 0 0 0-.4.13c-.19.14-.19.16-.02.26.24.14.23.8-.02 1.1-.18.22-.21.23-.36.08q-.16-.17-.17-.65c0-.27-.05-.6-.1-.71-.09-.27-.4-.3-.63-.06m2.44-.01c-.11.13-.1.17.04.25.23.13.24 1.1.01 1.3-.14.12-.14.14.02.26.23.17.55.17.8-.01.18-.14.18-.15.02-.21-.14-.06-.18-.2-.18-.64 0-.63.06-.77.26-.6.2.16.44.04.44-.21 0-.26-.24-.36-.55-.22q-.23.1-.3.02c-.1-.15-.41-.12-.56.06m-7.37.26q-.31.29.23.28c.37 0 .5-.22.2-.34-.23-.08-.3-.08-.43.06m3.4 0c-.16.16-.15.9.01 1.12a.4.4 0 0 0 .38.14c.18-.02.26-.12.33-.39.16-.63-.34-1.25-.72-.87m-8.78.83c-.1.25.04.47.28.43q.24-.01.26-.3c.03-.24 0-.28-.23-.28-.14 0-.28.07-.31.15"/></svg>