<svg xmlns="http://www.w3.org/2000/svg" width="24" height="24"><path fill="#FFFFFF" fill-rule="evenodd" d="M8.2 8.1q0 .18-.1.2-.09.02-.1.2 0 .18.1.2c.05 0 .1.24.1.54 0 .6.14.8.57.74.33-.04.49-.47.16-.44-.14 0-.19-.08-.21-.41-.03-.38 0-.43.17-.43q.21 0 .21-.2t-.2-.2-.2-.2q.01-.21-.25-.2-.26-.01-.25.2m-4.95.45c-.56.55-.16 1.45.63 1.45.47 0 .72-.21.52-.45q-.12-.15-.3-.05c-.23.12-.48.04-.55-.2-.12-.38.2-.69.54-.5.14.07.23.05.36-.1.16-.17.16-.19-.04-.3-.36-.19-.9-.12-1.16.15m1.55.02c-.28.36-.26.88.04 1.18.2.2.33.23.9.23h.66V8.32h-.7c-.63 0-.71.01-.9.25m1.85-.03q-.32.5.4.76c.2.06.35.16.35.2q.02.19-.44 0c-.21-.08-.27-.06-.36.1-.13.24.12.4.64.4.4 0 .66-.21.66-.57 0-.2-.08-.28-.4-.4-.48-.2-.52-.34-.07-.3.26.02.32-.02.32-.18 0-.17-.08-.2-.47-.23-.4-.03-.49 0-.63.22m2.8 0a.85.85 0 0 0 0 1.21c.35.36.97.35 1.3-.01.55-.6.16-1.44-.65-1.44-.3 0-.47.06-.65.25m1.65.6c0 .82 0 .85.23.85.2 0 .25-.07.33-.53.07-.4.14-.54.32-.62.27-.12.3-.55.04-.55-.1 0-.23.05-.3.12q-.13.15-.12 0-.02-.11-.25-.12c-.25 0-.25.01-.25.85m1.4-.65a.9.9 0 0 0-.2 1c.17.4.33.48 1.07.48H14V8.32h-.66c-.51 0-.7.04-.84.18m1.7.66c0 .83 0 .84.25.84.24 0 .25-.03.25-.54q0-.53.15-.66.36-.31.35.6c0 .57.01.6.25.6s.25-.03.25-.48c0-.52.21-.94.39-.77.05.05.11.35.13.65.03.52.05.55.3.58.28.03.28.03.28-.6 0-.8-.17-1.08-.65-1.08-.19 0-.37.05-.4.1q-.06.11-.18.01c-.07-.05-.4-.1-.74-.1l-.63.01zm2.9-.6c-.1.15-.2.41-.2.59s.1.44.2.58c.19.24.27.26.9.26h.7V8.3H18c-.63 0-.71.02-.9.26m-11.88.25c-.25.25-.04.78.32.78.1 0 .36-.32.36-.45 0-.17-.27-.45-.44-.45a.4.4 0 0 0-.24.12m4.6 0c-.25.25-.04.78.32.78.1 0 .36-.32.36-.45 0-.17-.27-.45-.44-.45a.4.4 0 0 0-.24.12m3.12-.04c-.21.14-.23.41-.04.64.15.19.22.2.37.12.22-.14.29-.5.13-.7q-.21-.23-.46-.06m4.58.04c-.25.25-.04.78.32.78.1 0 .36-.32.36-.45 0-.17-.27-.45-.44-.45a.4.4 0 0 0-.24.12m1.74.04c-.4.4-.06.74.75.74.33 0 .69-.05.8-.1.21-.12.25-.5.07-.68s-1.43-.16-1.62.04"/></svg>