<svg xmlns="http://www.w3.org/2000/svg" width="24" height="24"><path fill="#FFF" fill-rule="evenodd" d="M19.4 7.5c0 1.68 0 1.71.25 1.95.29.3 1.04.35 1.25.1s-.03-.65-.35-.65h-.24l-.03-1.53-.03-1.52-.42-.03-.43-.03zm-7.42-.92c-.02.3-.07.39-.25.41-.19.03-.23.1-.23.38 0 .3.03.34.25.34.25 0 .25.01.25.78 0 .7.03.81.24 1 .3.29.83.38 1.3.22.44-.14.5-.22.35-.54-.1-.2-.18-.24-.53-.23l-.41.02-.03-.62-.03-.63h.45c.4 0 .46-.03.52-.24.09-.36-.02-.46-.51-.46-.43 0-.44 0-.47-.37s-.04-.38-.45-.41l-.42-.03zm-8.18.45c-1.3.67-.94 2.59.52 2.75q.45.05.76-.1c.3-.17.3-.17.15-.46-.15-.25-.2-.28-.58-.23-.36.04-.45 0-.59-.2a.8.8 0 0 1 0-.97c.14-.2.23-.23.58-.18.38.05.43.03.58-.23.16-.28.16-.3-.01-.4a1.5 1.5 0 0 0-1.41.02m2.4 0a1.46 1.46 0 0 0 0 2.61c.6.32 1.8.05 1.8-.4 0-.38-.13-.43-.6-.26-.35.12-.51.13-.72.04q-.26-.1-.28-.2c0-.06.33-.2.72-.32.4-.12.79-.26.86-.32.36-.28-.13-1.09-.76-1.27-.5-.13-.51-.13-1.02.13m2.9-.14c-.7.22-.7.2-.7 1.56V9.7h.9v-1c0-.97 0-1 .24-1.06a.7.7 0 0 1 .45.06c.2.1.21.2.21 1.05v.95h.9V8.62c0-1.21-.1-1.44-.66-1.68a2.2 2.2 0 0 0-1.35-.05m5.9 0c-.7.22-.69.2-.69 1.56V9.7h.9v-1c0-.96 0-1 .24-1.06.13-.03.32-.04.42-.02.24.04.45-.59.23-.73-.17-.1-.74-.1-1.1 0m1.97.06c-.52.18-.57.26-.43.55.13.25.17.26.8.13.37-.07.77.04.77.22 0 .11-.13.15-.53.15-1.14 0-1.63.87-.87 1.55.18.17.35.2.99.19.42 0 .88-.06 1.04-.12.27-.11.27-.12.27-1.04 0-1.13-.17-1.5-.77-1.67a1.8 1.8 0 0 0-1.27.04m-10.44.7c-.21.16-.3.45-.13.45.09 0 .74-.21.8-.26s-.2-.34-.33-.34a1 1 0 0 0-.34.16m10.9.94c-.4.17-.18.5.35.5.29 0 .33-.03.33-.25q0-.23-.1-.25l-.22-.04a1 1 0 0 0-.36.04m1.74 2.05q-.15.23-.06.25c.05 0 .1.15.1.34q.02.69.6.49.29-.1.36-.02c.06.1.45.12.68.03q.16-.06.16-.45c0-.48-.35-.78-.7-.6-.26.15-.26.34 0 .26.1-.03.25-.03.32.02q.13.08-.17.13c-.16.03-.34.14-.4.25a.3.3 0 0 1-.32.17c-.31-.05-.34-.62-.03-.62q.18 0 .2-.1-.02-.09-.2-.1t-.2-.15c0-.23-.16-.18-.34.1m-7.6.1c-.17.08-.21.2-.21.54 0 .6.23.67.27.1.02-.32.08-.45.2-.47.13-.03.17.06.2.4.04.57.26.62.3.06q.03-.44.2-.46c.13-.03.17.06.2.4.02.22.09.43.15.46.2.06.18-.97-.02-1.04a3 3 0 0 0-1.3.01m1.87-.04c-.3.11-.19.31.13.23.12-.03.26 0 .3.05q.05.1-.18.11c-.14 0-.3.07-.38.16-.2.24.01.49.42.49h.34v-.49q0-.8-.63-.55m2.22.14c-.18.19-.23.31-.19.48.15.47.61.6.95.27.26-.26.25-.46-.05-.75-.3-.31-.4-.31-.71 0m1.39-.17c-.2.03-.23.1-.23.58 0 .3.04.54.1.54s.1-.18.1-.4c0-.33.04-.43.2-.47.37-.1.22-.32-.17-.25m1.28.03c-.3.12-.25.51.07.59.3.06.25.26-.05.22q-.21-.01-.23.08c0 .28.73.23.84-.06.08-.2-.1-.44-.35-.44q-.17 0-.19-.1.02-.09.25-.1.23 0 .25-.09c0-.13-.33-.19-.59-.1m-4.01.09c0 .05.07.28.17.51.12.32.14.46.05.6-.17.27.02.32.25.06.28-.3.53-.81.53-1.07 0-.32-.23-.19-.32.19-.1.37-.24.33-.33-.1-.06-.26-.35-.43-.35-.2m3.3.47c0 .73.24.7.28-.04.02-.42 0-.52-.12-.52-.13 0-.16.12-.16.56m-1.85-.16q-.12.39.25.4c.1 0 .22-.05.25-.1.1-.17-.05-.5-.25-.5-.1 0-.21.09-.25.2"/></svg>