<svg xmlns="http://www.w3.org/2000/svg" width="24" height="24"><path fill="#FFF" fill-rule="evenodd" d="M11.83 2.25c-.4.24-.83.9-.83 1.26 0 .1-.16.14-.68.14A2.5 2.5 0 0 0 8.02 5c-.24.4-.27.56-.27 1.3 0 .75.03.9.27 1.32A2.8 2.8 0 0 0 10.3 9c.28 0 .47.1.86.45.49.43.5.44.37.77a2 2 0 0 0-.12.56c0 .27-.05.27-.37.02a1 1 0 0 0-.53-.2c-.27 0-.7.36-.7.58q-.02.29-.35-.2c-.15-.25-.29-.34-.54-.36-.37-.04-.71.2-.71.5 0 .14-.08.18-.34.18-.63 0-1.26.6-1.26 1.23 0 .7.54 1.17 1.35 1.17.42 0 .58.11.35.25-.15.1-.12.48.05.7.08.11.15.37.15.58q0 .36.2.57c.2.2.33.2 3.3.2h3.09l.2-.26c.12-.15.21-.4.21-.58a1 1 0 0 1 .15-.5c.17-.23.2-.62.05-.71q-.37-.25.6-.25c.93 0 1.1-.16 1.1-1 0-1.26-.23-1.4-2.32-1.4h-1.53l-.21-.35-.22-.33 1.07-1.09c1.48-1.5 2.11-2.58 2.11-3.65q-.01-1.37-1.35-2.03c-.43-.2-.55-.3-.55-.49 0-.37-.41-.89-.9-1.13a1.6 1.6 0 0 0-1.67.02"/></svg>