<svg xmlns="http://www.w3.org/2000/svg" width="24" height="24"><path fill="#FFF" fill-rule="evenodd" d="M11.82 2.47a6.4 6.4 0 0 0-1.72 2.5 5 5 0 0 0-.05 2.59c.08.27.1.52.06.57-.16.16-.5-.35-.62-.92-.07-.3-.15-.6-.2-.64-.09-.11-.95.78-1.27 1.32a5.4 5.4 0 0 0-.62 2.39c0 1.21.47 2.67 1.13 3.46l.24.3.08-.7c.1-.88.49-2.24.83-2.87.14-.27.43-.68.64-.92q.39-.44.38-.74c0-.57.4-1.43.9-1.94.6-.6.83-.6.9.03.04.29.2.65.43 1 .2.3.4.7.43.87a2 2 0 0 0 .44.73c.73.79 1.31 2.32 1.55 4.05l.07.5.3-.35a4 4 0 0 0 .75-2.32c.11-1.8-.3-2.83-2-4.94-1.47-1.82-1.87-2.68-1.87-4q0-.44-.12-.44c-.07 0-.37.21-.66.47m-.15 4.78A3.4 3.4 0 0 0 11 9.02c0 .93 1 1.41 1.69.83.54-.46.5-1.01-.18-1.98a3 3 0 0 1-.38-.77l-.09-.34zm-.34 4.62c-.24.08-.43.2-.43.25s.12.25.26.44c.14.18.24.4.21.47s-.32.55-.66 1.06-.61 1-.61 1.08c0 .23.28.7.45.77.33.12.66.05.9-.19s.25-.3.25-1.4c0-1.11 0-1.15.2-1.03.14.1.22.09.34-.01.14-.12.16-.02.16 1.03 0 1.1.01 1.18.25 1.41.24.24.57.31.9.19.17-.07.45-.54.45-.77 0-.08-.3-.6-.65-1.13a8 8 0 0 1-.65-1.1c0-.07.12-.27.26-.44.3-.36.24-.49-.35-.69a1.7 1.7 0 0 0-1.28.06"/></svg>