<svg xmlns="http://www.w3.org/2000/svg" width="24" height="24"><path fill="#FFF" fill-rule="evenodd" d="M10.66 3.56a6 6 0 0 0-3.41 2.52l-.3.52h-.72c-.4 0-.94.05-1.22.1-1.84.4-2.61 2.42-1.45 3.78.57.67 1.02.85 2.22.9l1.02.04v.3c0 .23.04.28.24.28q.23 0 .6.47a5.6 5.6 0 0 0 5.61 1.98 5.3 5.3 0 0 0 2.72-1.61c.5-.5.9-.84 1.03-.84q.21.02.2-.29v-.29l1.03-.04c1.19-.05 1.64-.23 2.2-.88 1.17-1.37.4-3.4-1.44-3.8-.28-.05-.83-.1-1.24-.1H17l-.21-.42a6 6 0 0 0-.93-1.14 5.5 5.5 0 0 0-5.2-1.48m.47.15c-.7.12-1.5.43-2.06.8a8 8 0 0 0-1.7 1.77l-.18.32h1.64l.49-.46a5 5 0 0 1 1.03-.7c.3-.14.53-.3.5-.35-.1-.15.05-.1.35.11.21.15.34.18.52.11.2-.08.18-.1-.3-.25-.3-.08-.58-.14-.62-.11-.04.02-.16-.02-.26-.1-.17-.13-.13-.14.42-.15h.61l.17-.43c.09-.23.16-.48.16-.55 0-.13-.03-.13-.77-.01m.97-.03c0 .05.07.3.16.55l.16.47h1.23l-.3.24-.3.23.57.27c.3.14.77.46 1.04.71l.48.45h.78c.43 0 .78-.04.78-.09s-.2-.36-.45-.7a6 6 0 0 0-1.85-1.6c-.65-.34-2.3-.71-2.3-.53m-.3.73c-.1.36-.1.44.04.57.15.15.16.11.16-.4 0-.32-.02-.58-.03-.58-.02 0-.1.19-.16.41m.6 1.32c.5.64.5.65.34.17-.16-.45-.29-.6-.53-.6q-.1.02.19.43m-2.07-.03a4 4 0 0 0-.89.6l-.29.3h1.8l.17-.53c.1-.3.17-.57.17-.6 0-.15-.4-.05-.96.23m2.41-.12.22.6.15.42h1.69l-.38-.35c-.4-.37-1.3-.85-1.58-.85q-.18 0-.1.17m-1.21.68-.49.35h1c.54 0 .96-.02.94-.03l-.5-.35-.47-.31zm-6.99.84a2.6 2.6 0 0 0-1.26 1.43c-.28 1.05.4 2.2 1.52 2.52.29.09.86.16 1.26.16h.73v-.6h10.4v.6h.73c1.04 0 1.7-.22 2.22-.74.8-.8.83-1.94.07-2.78-.62-.69-.93-.78-2.74-.78H15.9v.9h.58c.83 0 .93.14 1 1.35l.05.95h.38c.85 0 .9-.25.19-.95-.4-.4-.5-.56-.5-.82q0-.74.9-.73h.57c.05 0 .1.15.11.35l.03.35h-.95l.57.58c.5.5.57.63.57.96 0 .28-.07.45-.3.67-.26.27-.34.29-1 .29h-.7v-.35c0-.34-.01-.35-.4-.35h-.4l-.02-.82-.03-.83-.32-.03-.33-.03v1.71H15V6.9H7.3v.9h.55c.84 0 .95.16.95 1.35v.95H8v-.79c0-.83-.05-.91-.5-.91-.17 0-.2.1-.22.82l-.03.83-.42.03c-.4.03-.42.04-.45.4l-.03.37-.57-.02Q4.2 10.8 4.12 9.25c-.03-.5 0-.65.2-.94.36-.53.7-.74 1.33-.79l.55-.04v.4c0 .4-.01.42-.3.42-.42 0-.67.15-.86.51-.33.64.07 1.19.88 1.22l.43.02.03-1.58.03-1.57h-.73q-.73 0-1.13.19M9 8.66c0 .81.01.87.3 1.15.27.28.32.29 1.2.29h.9V7.8h-.8v1.61l-.32-.03-.33-.03-.03-.77-.03-.78H9zm2.86-.7c-.12.12-.16.38-.16 1.15v.99h.8v-.73c0-.72.1-.97.37-.97q.13 0 .13.46c0 .82.54 1.28 1.41 1.22.43-.03.44-.04.44-.38 0-.32-.02-.35-.26-.32-.14.02-.37-.02-.52-.07-.21-.08-.27-.17-.27-.4 0-.36.22-.51.74-.51.33 0 .36-.02.36-.3v-.3h-.63q-.61 0-.85.16c-.2.14-.22.14-.22 0 0-.23-1.12-.23-1.34 0m-4.17 4.23a7 7 0 0 0 1.8 1.55c1.74.88 3.85.79 5.4-.25a5 5 0 0 0 1.41-1.4c0-.05-.4-.09-.9-.09-.82 0-.95.03-1.25.25-1.1.84-3 .87-4.28.05-.44-.28-.55-.3-1.38-.3-.84 0-.9.01-.8.19m2.21-.13a3.8 3.8 0 0 0 3.25.46c.32-.13.66-.29.74-.37.14-.13-.08-.15-1.92-.15-1.14 0-2.07.03-2.07.06m6.82.26c-.25.25 0 .64.32.52.2-.08.2-.5 0-.58s-.18-.08-.32.06"/></svg>