<svg xmlns="http://www.w3.org/2000/svg" width="24" height="24"><path fill="#FFF" fill-rule="evenodd" d="M10.67 2.16A5.8 5.8 0 0 0 6.45 6.4 5.5 5.5 0 0 0 8 11.7a5.4 5.4 0 0 0 4.01 1.7 5.3 5.3 0 0 0 4-1.7 5.56 5.56 0 0 0 .05-7.97 5.7 5.7 0 0 0-5.38-1.58m.86 2.44c-.92.2-1.73.78-2.18 1.62-.23.43-.3.68-.33 1.34-.04.72-.01.88.23 1.43.32.7.94 1.32 1.63 1.64.35.16.67.21 1.27.21.72 0 .86-.03 1.43-.34.35-.18.76-.5.92-.68l.29-.35-.42-.32-.42-.33-.41.38c-.9.82-2.07.77-2.9-.11a1.7 1.7 0 0 1-.54-1.4c0-.8.4-1.43 1.15-1.81.77-.4 1.93-.17 2.44.48l.21.27.4-.28c.23-.16.43-.32.45-.36s-.2-.3-.5-.57c-.76-.7-1.8-1-2.72-.82m-4.8 9.8c-.45.18-.68.85-.4 1.2.31.42.82.5 1.18.2.3-.24.19-.36-.2-.2-.51.2-.96-.23-.71-.7.12-.22.58-.28.77-.09.12.12.33.04.33-.11 0-.1-.53-.4-.67-.4zm1.2.78c.01.6.05.77.17.77s.16-.17.18-.77c.03-.73.02-.78-.18-.78s-.2.05-.18.78m.68.03c0 .6.03.8.13.77.06-.03.14-.24.17-.49l.05-.44.3.47c.44.7.55.63.55-.32 0-.64-.03-.8-.15-.8s-.15.12-.15.47v.48l-.31-.47c-.47-.71-.59-.64-.59.33m1.52-.04.03.78.53.03c.42.02.52 0 .52-.12q.01-.17-.35-.16c-.3 0-.35-.03-.35-.25 0-.21.05-.25.3-.25q.3 0 .3-.15t-.3-.15c-.17 0-.3-.04-.3-.1s.16-.1.35-.1q.35 0 .35-.15c0-.12-.13-.15-.55-.15h-.56zm1.3 0c.02.6.06.77.18.77q.15.01.18-.45l.03-.45.18.24.19.24.13-.24c.14-.23.14-.23.19.21q.05.46.2.45c.12 0 .16-.17.18-.77.03-.71.01-.78-.16-.78-.11 0-.28.12-.37.27l-.18.27-.21-.27c-.12-.15-.3-.27-.4-.27-.15 0-.16.1-.14.78m2.14-.7c-.05.09-.56 1.42-.56 1.48q.02.04.15.04.15-.01.25-.24c.07-.19.14-.22.36-.18.15.03.29.13.31.23.06.21.33.26.33.07 0-.07-.12-.43-.26-.8q-.36-.93-.58-.6m1.04.71c0 .65.03.81.15.81q.15.02.15-.42v-.43l.38.43c.2.23.43.42.5.42.17 0 .15-.07-.14-.45-.22-.3-.23-.34-.09-.43q.17-.1.13-.38c-.03-.27-.06-.3-.55-.32l-.53-.03zm1.42-.01c.02.6.06.77.18.77q.15-.01.2-.34c.07-.47.2-.47.52 0 .15.21.35.39.43.39.22 0 .19-.12-.15-.56-.16-.21-.3-.43-.3-.49s.12-.2.28-.32l.27-.22h-.24a1 1 0 0 0-.53.26l-.28.27v-.27q.01-.29-.2-.27c-.2 0-.2.05-.18.78"/></svg>