<svg xmlns="http://www.w3.org/2000/svg" width="24" height="24"><path fill="#FFF" fill-rule="evenodd" d="M3.1 3.17c-.03 1 0 11.66.02 11.69s13.72.06 17.66.04H21l-.02-5.87-.03-5.88-8.92-.03c-4.91-.01-8.93.01-8.93.05M3.5 9v5.4h8.49c7.65 0 8.5-.02 8.55-.16.08-.2.08-10.28 0-10.48-.06-.14-.9-.16-8.55-.16H3.5zm1.84-3.76q-.65.66-.08 1.35c.4.49 1.3.55 1.55.1.14-.27.04-.36-.18-.17-.23.2-.41.24-.74.15-.48-.13-.63-1.05-.22-1.38.23-.2.8-.16.97.06.19.26.3.15.17-.19-.1-.23-.16-.26-.62-.26s-.55.04-.85.34M7.4 5q.02.1.15.16c.23.1.22 1.5-.01 1.58-.29.11-.05.2.58.23C8.77 7 9 6.9 9 6.6c0-.23-.15-.25-.24-.04-.03.09-.18.15-.36.15h-.3v-.74c0-.41.05-.78.1-.81.23-.14.07-.25-.35-.25-.25 0-.45.05-.45.1m2.77.23-.33.86c-.1.3-.25.56-.31.58-.26.1-.13.32.17.3.32 0 .47-.11.3-.22s.09-.54.32-.55c.18 0 .38.33.32.56-.06.22-.03.24.3.24.37 0 .57-.16.32-.26-.08-.03-.22-.24-.3-.47l-.32-.9c-.09-.26-.2-.47-.25-.47s-.15.15-.22.33m1.9-.15c-.27.3-.2.58.24.96q.41.35.36.5c-.08.2-.53.2-.6.01-.09-.22-.27-.18-.27.05 0 .44.77.54 1.09.14.25-.32.2-.5-.32-.96-.37-.33-.39-.38-.24-.52.15-.16.47-.12.47.05q.01.08.1.09c.07 0 .1-.1.08-.22-.04-.31-.66-.38-.91-.1m1.87.07c-.2.31-.11.58.32.91.37.28.42.45.2.63-.1.08-.2.06-.39-.09a1 1 0 0 0-.31-.2c-.13 0-.05.28.12.43.27.24.65.2.91-.07.31-.33.23-.63-.3-1.05-.32-.26-.38-.35-.28-.47.15-.18.24-.18.43.02.21.2.4.1.26-.17-.16-.3-.75-.26-.96.06M15.7 5q.01.1.15.16c.23.1.22 1.54 0 1.54-.33 0-.07.25.28.28.38.03.5-.12.26-.35-.12-.12-.08-1.26.05-1.55.07-.16.03-.18-.33-.18-.23 0-.41.05-.41.1m2.08.06c-.29.15-.58.6-.58.89 0 .53.6 1.05 1.22 1.05.39 0 .5-.07.67-.37.1-.19.1-.23-.03-.23q-.12.02-.2.15c-.08.22-.79.2-1-.03s-.22-1.05-.03-1.2c.08-.07.28-.15.45-.18.23-.05.34-.01.48.15.1.12.22.21.26.21.12 0 .1-.35-.04-.48-.17-.17-.87-.14-1.2.04m.77 2.67q-.19.13-.12.4c.08.31.4.4.61.18.22-.24.2-.48-.03-.6-.25-.14-.24-.14-.46.02M10.08 8q-.23.68.24.28c.21-.2.37-.25.77-.24.6 0 .63-.06-.5 1.5q-.8 1.09-.66 1.13c.07.02.62.03 1.22.02l1.1-.03.09-.33q.16-.64-.22-.21c-.16.19-.31.24-.86.27a2 2 0 0 1-.66-.02c0-.09 1.28-1.95 1.53-2.23.11-.13.19-.25.16-.27s-.5-.06-1.08-.08c-1.02-.03-1.04-.03-1.13.21m3.37-.14c-.17.58-.07.81.18.45.1-.16.3-.23.7-.27q.57-.06.57.05c0 .06-.21.41-.47.78-1.2 1.68-1.24 1.74-1.1 1.8.07.02.62.03 1.22.02l1.09-.03.08-.34q.16-.66-.22-.22c-.14.2-.29.25-.78.29-.33.02-.62 0-.65-.04a13 13 0 0 1 1.43-2.21q.2-.23.18-.28c-.1-.09-2.2-.1-2.23 0m4.26-.02c-.06.08-.22.45-.37.83l-.45 1.2q-.2.52-.4.57c-.35.1-.1.27.37.27q.46 0 .44-.15-.01-.13-.1-.15c-.15 0-.02-.62.14-.72.06-.04.25-.08.43-.08.27 0 .33.05.44.37.09.28.09.38 0 .4q-.1.05-.11.2c0 .1.12.13.52.11.51-.03.75-.21.4-.3-.14-.04-.3-.38-.62-1.32-.24-.7-.47-1.29-.5-1.31s-.13.01-.19.08M4.9 7.9q.01.1.16.19c.13.07.17.3.19 1.08.03 1.09 0 1.24-.22 1.24q-.13.01-.1.13c.06.18 1.17.22 1.17.04 0-.08-.1-.17-.2-.2-.2-.05-.2-.12-.18-1.19.03-.96.05-1.13.2-1.16.23-.04.58.33.58.62q-.01.25-.32.5c-.39.3-.32.42.15.27.52-.17.7-.43.63-.86-.11-.58-.35-.72-1.26-.74-.48-.01-.8.02-.8.08m2.9 0q.02.08.2.14c.19.05.2.14.2 1.2 0 1.08-.01 1.15-.21 1.2-.38.1-.09.27.47.27.41 0 .54-.03.54-.15a.15.15 0 0 0-.15-.15c-.12 0-.15-.2-.15-1.2S8.73 8 8.85 8q.13 0 .15-.1c0-.06-.27-.1-.6-.1s-.6.04-.6.09M5 11.7q-.14.1-.02.1c.16 0 .16.92 0 1.08q-.16.13.2.12c.29 0 .32-.03.27-.2q-.05-.18.02-.2c.04 0 .14.09.2.2.08.11.23.2.35.2h.21L6 12.75c-.2-.2-.22-.29-.12-.49.21-.47-.4-.87-.88-.56m1.5-.07-.03.7-.02.67h.46q.47 0 .52-.14c.08-.2-.03-.26-.24-.13-.16.1-.21.1-.29-.03q-.17-.32.21-.23.23.09.17-.13-.04-.2-.27-.16-.26.04-.17-.14l.06-.2q.01-.04.19.05c.21.12.32.05.24-.15q-.06-.14-.44-.14c-.21 0-.4.01-.4.03m1.43.09c-.2.2-.14.45.13.66.14.11.25.25.25.3 0 .15-.27.16-.35.02-.1-.15-.25-.02-.18.15.07.2.57.2.73 0 .15-.18.04-.52-.2-.65q-.18-.11-.2-.25.02-.28.28-.03c.15.15.24.06.16-.16-.07-.19-.45-.21-.62-.04m1.05-.05a.3.3 0 0 0-.07.2q-.02.14.25.03c.25-.1.25-.09.25.4 0 .28-.04.5-.1.5a.1.1 0 0 0-.1.1c0 .06.13.1.29.1.28 0 .28-.01.24-.45-.07-.54.02-.84.2-.67q.26.27.27-.08c0-.18-.07-.2-.58-.2-.32 0-.62.03-.65.07m1.86.05c-.05.07-.18.33-.27.58s-.22.5-.28.57q-.13.14.16.13c.22 0 .26-.04.21-.19q-.07-.19.15-.24.28-.09.2.3.01.13.25.13c.24 0 .34-.13.16-.24a2 2 0 0 1-.21-.53c-.15-.57-.23-.68-.37-.5m.96-.05.01.17.06.49c.05.48.19.66.53.66.41 0 .52-.13.6-.73.08-.61.07-.67-.19-.67-.14 0-.16.09-.12.55.04.44.01.56-.12.61a.4.4 0 0 1-.31-.06c-.17-.14-.2-.75-.05-.85q.1-.06.1-.16c0-.1-.5-.13-.51-.01m1.66.63V13h.29q.32.01.17-.14-.1-.14-.03-.2.1-.03.25.15.17.17.34.19c.14 0 .13-.04-.07-.25-.2-.22-.22-.28-.11-.52q.22-.51-.51-.6l-.33-.02zm1.7-.33a13 13 0 0 1-.43.95c-.02.04.08.07.21.07q.28.02.2-.19c-.06-.22.25-.38.33-.16q.04.14 0 .25-.06.1.23.1c.3 0 .4-.13.21-.25-.05-.03-.17-.3-.26-.6-.1-.3-.22-.55-.26-.55s-.16.17-.24.38m1.11-.29q-.04.09.05.16c.14.09.13.88-.02 1.03q-.16.13.14.12c.25 0 .26-.02.21-.42l-.04-.43.4.45c.22.24.42.42.45.4.03-.03.07-.36.1-.73.04-.66.03-.67-.2-.67-.22 0-.24.04-.19.23.18.62.17.62-.27.2-.46-.45-.53-.49-.63-.34m1.68.06c-.08.21.03.3.2.17q.14-.1.2-.05c.12.11.08.88-.05 1.01q-.16.13.18.12h.3l-.04-.6q-.04-.58.06-.6.1 0 .17.1c.1.17.25.11.25-.1 0-.18-.07-.2-.6-.2-.45 0-.62.04-.67.15"/></svg>