<svg xmlns="http://www.w3.org/2000/svg" width="24" height="24"><path fill="#FFF" fill-rule="evenodd" d="M20.07 6.98c-.34.37-.15.82.34.82s.79-.56.47-.88c-.18-.18-.63-.14-.81.06m-9.47-.05c0 .02-.13.68-.3 1.45-.43 2.03-.4 2.4.21 2.6.78.28 1.76.01 2.22-.6.54-.72.57-1.58.06-2.04-.22-.2-.78-.24-1.18-.1-.23.08-.24.07-.17-.25l.13-.71.06-.38h-.52c-.28 0-.51.02-.51.03m-5.92.27c-.52.16-1.08.54-1.35.93-.22.31-.28.53-.3 1.06-.05.82.21 1.34.81 1.65a3 3 0 0 0 1.86.19c.33-.09.35-.12.35-.49v-.39l-.56.03c-.6.04-1.12-.14-1.23-.43a2 2 0 0 1-.06-.6c0-.35.06-.52.3-.77.27-.32.32-.33 1.06-.35l.78-.02.13-.36c.12-.34.11-.36-.13-.45a4 4 0 0 0-1.66 0m3.07 1c-.76.17-1.27.81-1.28 1.6q-.01.87.68 1.16.77.3 1.55-.09.91-.44.9-1.44c0-.66-.18-.96-.7-1.17a1.6 1.6 0 0 0-1.15-.07m7.03 0c-.87.28-1.38.97-1.38 1.85 0 .93.9 1.39 1.6.8.3-.25.3-.25.3-.04 0 .19.05.2.47.18l.48-.03.03-.4c0-.22.1-.8.18-1.28.12-.62.14-.91.06-.99-.14-.14-1.4-.2-1.74-.09m2.87.05q-.8.29-.73.95c.03.35.1.41.84.87.34.21.05.34-.5.22a2 2 0 0 0-.52-.06c-.02.03-.07.18-.1.35-.05.27-.03.31.27.42.83.29 1.79.03 2.07-.56.15-.3.15-.37.01-.61a2 2 0 0 0-.57-.5q-.83-.46.05-.4c.46.03.47.02.57-.3.05-.18.07-.35.04-.37-.14-.14-1.06-.14-1.43 0m2.12.18a20 20 0 0 0-.43 2.55c.12.12.9.05.97-.09a23 23 0 0 0 .49-2.57q-.02-.12-.49-.12c-.42 0-.5.03-.54.23M7.8 9.17c-.3.37-.25 1.07.07 1.11.33.05.63-.31.63-.76 0-.64-.34-.8-.7-.35m7 .02c-.32.32-.4.8-.17 1 .3.24.77-.45.77-1.11 0-.27-.28-.22-.6.11m-3.5.07q-.21.28-.18.63c.04.45.28.52.63.17.2-.2.26-.34.23-.64-.04-.48-.36-.56-.67-.16"/></svg>