<svg xmlns="http://www.w3.org/2000/svg" width="24" height="24"><path fill="#FFF" fill-rule="evenodd" d="M10.35 2.51c-1.8.17-3.59.74-4.3 1.36-1.14 1-.49 2.15 1.63 2.87 2.33.8 6.2.81 8.56.04q1.8-.6 2.21-1.44.52-1.08-1.28-1.94c-1.67-.8-4.2-1.13-6.82-.89m.2.39C8.17 3.1 6.3 3.93 6.3 4.75c0 .24.44.85.6.85.06 0 .1-.12.1-.26 0-.39.63-.97 1.35-1.23A9 9 0 0 1 12 3.56c1.74 0 2.48.1 3.65.55.7.26 1.45.93 1.45 1.3 0 .23.01.23.3-.09.41-.45.4-.76-.09-1.22-.95-.9-4-1.45-6.76-1.2m.32 1.06c-1.15.21-1.97.68-1.97 1.13 0 .6.93 1.07 2.3 1.16l.75.04-.62-.13c-1.1-.23-1.73-.59-1.73-.97 0-.23.52-.66.98-.8.56-.17 2.8-.23 3.57-.1 1.38.24 2.45.86 2.45 1.41 0 .19.02.2.15.1.21-.18.19-.34-.11-.7-.46-.55-1.33-.9-2.89-1.15a8 8 0 0 0-2.88.01m8.62 4.2c-.08.1-.14.4-.15.66 0 .44-.04.51-.32.68-.4.24-.6.65-.46.88q.25.41.5-.09c.15-.3.18-.31.61-.25.26.03.51.14.59.24.12.16.15.16.4.02q.3-.15.32-.46c.03-.3 0-.32-.36-.38-.35-.05-.4-.1-.45-.39-.07-.44-.34-1.07-.45-1.07-.05 0-.16.07-.23.17m-14.17.2c-.09.04-.1.18-.06.53.04.27.03.65 0 .85-.06.3-.12.37-.37.42-.4.08-.38.46.03.51l.27.03-.02 1.42c-.02 1.2 0 1.42.13 1.42.12 0 .16-.24.2-1.4.05-1.37.1-1.65.32-1.65.1 0 .04.99-.08 1.42-.06.2.42.56.56.42.05-.05.1-.56.12-1.13l.03-1.05-.3-.15-.33-.18c-.02 0 .02-.2.09-.42.1-.3.1-.47.01-.65-.12-.28-.4-.46-.6-.39m6.54.39c-.12.11-.16.35-.16.85q0 .71-.12.7l-.28.03c-.25.02-.17.3.13.44s.27.32-.08.32c-.13 0-.27.05-.3.1-.1.15.14.4.36.4q.17.01.19.1c.02.09-.13.1-.3.1s-.31.04-.35.1c-.07.11.26.3.54.3.21 0 .22 0 .26 1 0 .26.34.43.36.18v-1.32a8 8 0 0 1 .13-1.76c.01-.2.1-.5.2-.63.23-.36.2-.73-.06-.91-.28-.2-.33-.2-.52 0m5.1 0a1 1 0 0 0-.06.37c0 .21-.16.5-.56 1-.9 1.1-1.04 1.57-.5 1.57q.24 0 .64-.45c.21-.24.42-.42.46-.38.03.04.03.4 0 .83-.07.83.02 1.14.35 1.23.1.02.3-.01.45-.08.2-.1.28-.1.44.01.18.12.23.12.36-.02q.34-.34-.08-.73c-.3-.29-.81-.26-.81.04s-.39.27-.43-.03q-.03-.22.13-.22c.32 0 .73-.3.84-.62.15-.42-.11-1.18-.4-1.18q-.18.02-.25.15a.2.2 0 0 1-.21.15q-.14 0 .17-.3c.25-.23.36-.28.5-.2.25.13.5.13.5-.02 0-.06-.25-.35-.55-.65q-.76-.73-.98-.46m-6.82.65c-.62.12-.69.18-.6.57.05.25.13.33.36.38.16.03.29.11.29.18 0 .24-.12.45-.25.45a.3.3 0 0 0-.2.1c-.11.18.04.6.2.6q.16 0 .13.23c-.02.17-.11.23-.38.27q-.36.05-.32.2c.1.4.37.48 1.05.3.47-.14.58-.37.29-.6-.27-.23-.28-.46-.02-.6.11-.06.2-.2.2-.3s-.09-.24-.2-.3c-.29-.15-.25-.48.1-.8q.31-.3.28-.52c-.04-.27-.22-.3-.93-.16m2.7 0c-.07.23-.16.82-.18 1.15-.01.17-.05.35-.09.38s-.04.22 0 .4q.04.35-.07.35c-.14 0-.15.37-.01.45.05.03.1.21.1.4 0 .63.6.73.68.1.04-.27.04-.27.58-.2l.54.06v-.28c0-.4-.13-.55-.56-.62-.45-.07-.56-.28-.17-.33.22-.02.28-.08.28-.28s-.06-.26-.3-.3l-.3-.07.34-.04c.4-.05.64-.34.41-.5a.5.5 0 0 0-.37-.04c-.16.04-.23-.01-.31-.24-.12-.34-.5-.6-.56-.39m-9.03.16c-.58.14-.63.18-.63.43q.01.27.25.47c.28.22.33.52.1.52a.2.2 0 0 0-.21.14c-.07.19.13.56.3.56.14 0 .28.35.18.44-.03.03-.23.06-.44.06q-.4 0-.38.15c0 .24.4.57.58.5.1-.04.31-.11.5-.16q.59-.16.28-.48c-.25-.28-.2-.59.14-.76.17-.09.3-.2.3-.24 0-.12-.35-.41-.5-.41-.2 0-.02-.52.26-.76.2-.16.24-.27.2-.43-.08-.24-.08-.24-.93-.03m2.72.35c.04.23.1.94.14 1.57.06 1.1.07 1.15.29 1.18q.22.03.22-.12.02-.15.15-.16.14.01.15.16t.18.12c.15-.03.17-.16.18-.98 0-.52.06-1.12.13-1.34.11-.32.1-.4-.01-.52-.15-.15-.48-.1-.48.07 0 .16-.19.1-.44-.16-.14-.14-.33-.25-.42-.25-.14 0-.15.06-.09.43m12.78.47c-.66.27-.83 1.93-.27 2.6.21.25.33.3.7.3.55 0 1.04-.44 1.04-.94 0-.47-.28-.68-1.02-.76-.35-.04-.48-.08-.3-.09.57-.02 1.04-.7.7-.99a1 1 0 0 0-.85-.12m-12.09.14c-.1.25 0 1.3.13 1.34.1.03.13-.16.13-.72 0-.46-.04-.76-.1-.76q-.1.01-.16.14M19.3 12.3c.16.3.59.47.7.29.13-.21-.17-.5-.52-.5-.26 0-.28.02-.18.2M7.48 14.63c-.37.3-.2.88.28.88.3 0 .32-.27.02-.32q-.21-.04-.23-.18.02-.14.23-.18c.26-.04.3-.32.04-.32-.1 0-.25.06-.34.13m.86.12c-.15.23-.15.27 0 .5q.17.24.41.25.24-.01.4-.25c.16-.23.16-.27 0-.5q-.16-.24-.4-.25-.24.01-.4.25M9.5 15c0 .28.04.5.1.5q.1-.02.1-.2 0-.17.23-.23c.22-.04.22-.04-.03-.15-.24-.1-.24-.1-.03-.11.36-.01.29-.31-.07-.31-.3 0-.3.01-.3.5m.9 0c0 .28.04.5.1.5q.09-.02.1-.2 0-.17.23-.23l.22-.04-.24-.08c-.24-.08-.24-.08-.03-.16.32-.12.27-.29-.08-.29-.3 0-.3.01-.3.5m.9 0c0 .49 0 .5.3.5.35 0 .4-.17.08-.3q-.27-.1-.05-.1.16 0 .17-.1-.01-.09-.18-.1-.2-.01.06-.1c.28-.12.2-.3-.14-.3-.22 0-.24.04-.24.5m.9 0c0 .49 0 .5.3.5.35 0 .4-.17.08-.3q-.27-.1-.05-.1.16 0 .17-.1-.02-.09-.17-.1-.2-.01.05-.1c.28-.12.2-.3-.14-.3-.22 0-.24.04-.24.5m1.6-.45c-.06.34 0 .9.08.93q.11.01.12-.2v-.23l.2.22c.17.21.4.3.4.18 0-.03-.07-.17-.16-.3-.16-.24-.15-.27.01-.45.23-.25 0-.28-.27-.03-.17.15-.18.15-.18 0s-.19-.25-.2-.12m1.12.43q-.2.47-.1.51.12.02.16-.07c.05-.15.42-.16.42-.02q.02.1.15.1.13-.01.15-.1c0-.17-.4-.9-.49-.9-.05 0-.18.21-.3.48m.99.02c0 .28.04.5.1.5s.1-.12.1-.27v-.27l.28.27c.15.15.31.27.35.27s.07-.22.07-.5c0-.38-.04-.5-.15-.5q-.14.02-.15.22v.21l-.23-.21a1 1 0 0 0-.3-.22c-.04 0-.07.23-.07.5"/></svg>