<svg xmlns="http://www.w3.org/2000/svg" width="24" height="24"><path fill="#FFF" fill-rule="evenodd" d="M10.55 2.15c-.38.09-1.13.36-1.65.62-.8.39-1.08.6-1.8 1.32a6.5 6.5 0 0 0-2.05 4.86c0 1.33.13 1.92.71 3.13a6.97 6.97 0 0 0 12.27.51c.41-.7.93-2.2.83-2.44-.04-.13-.32-.15-1.7-.15h-1.64l-.26.54a4 4 0 0 1-1.75 1.73c-.48.23-.7.27-1.46.28-.79 0-.98-.04-1.52-.29a4 4 0 0 1-1.81-1.84A3 3 0 0 1 8.45 9c0-.76.03-.92.33-1.51a3.56 3.56 0 0 1 4.33-1.9c.64.2.8.3 1.4.9.46.47.7.8.83 1.16.38 1.06.14.95 1.96.95 1.38 0 1.62-.02 1.67-.16a6.9 6.9 0 0 0-4.8-6.1 8 8 0 0 0-3.62-.19m1.32.6c-.04.05-.07.5-.07 1.02 0 .92 0 .93.24.93.2 0 .25-.06.28-.33.03-.28.07-.32.35-.35.55-.05.8-.6.46-1.01-.19-.22-1.1-.4-1.26-.25m-1.3.16c-.25.1-.27.13-.27.69 0 .32-.04.59-.08.59-.05 0-.23-.18-.4-.4-.36-.43-.39-.45-.75-.3l-.25.09.33.88c.18.48.37.88.41.9q.1.02.23-.06c.12-.08.13-.16.03-.47l-.11-.37.33.32q.67.67.67-.33v-.51l.2.42c.2.45.25.49.49.33.12-.08.12-.16-.05-.62-.1-.3-.25-.7-.34-.9-.15-.33-.18-.35-.43-.26m3.46.38c-.34.13-.64.6-.64.97 0 .45.14.7.5.88.46.24.78.19 1.16-.19.56-.56.42-1.31-.32-1.62-.38-.16-.4-.16-.7-.04m.08.56a.5.5 0 0 0-.22.38c0 .24.28.56.48.56.17 0 .52-.37.52-.55 0-.16-.34-.55-.48-.55a1 1 0 0 0-.3.16m-6.68.98c-.38.38-.43.7-.19 1.16.2.37.43.5.92.5.3 0 .45-.07.65-.27.35-.38.41-.65.25-1.06-.32-.75-1.06-.9-1.63-.33m8.36.1c-.1.14-.1.54 0 .96q.04.13-.1.15c-.08 0-.17-.14-.2-.33-.1-.44-.19-.5-.36-.27-.2.26-.1.64.22.92.29.26.52.29.78.1q.3-.2.1-.96c-.05-.27-.04-.33.07-.3.08.03.15.15.17.27.05.3.3.5.43.31q.21-.31-.12-.73c-.23-.3-.78-.36-.99-.11m-8 .25c-.24.24-.24.3-.04.58.27.39.84.23.84-.23 0-.23-.28-.55-.48-.55-.07 0-.21.09-.32.2m8.85 1.41a10 10 0 0 0-.83.34c-.05.05.28.96.39 1.08q.08.08.28.02c.2-.06.2-.08.07-.4q-.2-.47.05-.45c.04 0 .12.13.18.3.1.32.17.35.4.2.12-.07.13-.13.02-.36q-.12-.27-.02-.37t.25.27c.16.38.22.41.45.27.12-.08.11-.17-.06-.62-.1-.3-.24-.54-.29-.55s-.45.1-.89.27M6.44 6.6c-.79.48-.57 1.7.33 1.87.87.16 1.5-.68 1.11-1.5q-.1-.24-.2-.26c-.14 0-.26.35-.2.63.09.5-.41.84-.82.54-.29-.2-.23-.63.13-.96.17-.16.31-.34.31-.4 0-.17-.32-.13-.66.08m6.26.74-1.48.7c-.15.1-1.52 2.8-1.52 3.01 0 .08.05.18.1.21.1.06 2.7-1.06 2.98-1.28.07-.05.46-.74.88-1.54.62-1.17.74-1.46.64-1.58q-.12-.14-.19-.14c-.03 0-.67.28-1.41.62m-.98 1.4c-.3.32-.29.65.04.73.46.12.93-.53.62-.84q-.29-.27-.66.11m3.76 2.86-.37.5.74.55c.41.3.78.56.82.56s.23-.22.4-.48c.3-.42.31-.48.17-.62-.14-.13-.18-.12-.4.13-.31.37-.51.26-.24-.13.2-.29.2-.3.01-.4-.16-.08-.23-.05-.4.16-.29.36-.47.2-.2-.17.17-.24.18-.33.09-.44-.18-.22-.22-.2-.62.34m-8.2-.1c-.54.43-.6 1.1-.13 1.57.24.24.76.32 1.03.16.16-.1-.12-.37-.5-.46-.34-.08-.45-.4-.24-.71.26-.4.86-.28.86.15 0 .16.3.5.43.5.04 0 .07-.2.07-.44 0-.82-.88-1.27-1.52-.76m7.1 1.11c-.27.17-.48.34-.48.38s.22.4.5.84l.5.77.5-.3c.5-.32.6-.5.37-.68q-.12-.12-.37.08c-.3.23-.4.25-.4.07 0-.08.11-.2.25-.27.29-.15.3-.23.1-.4-.12-.1-.2-.1-.4.04-.3.2-.35.2-.35.03 0-.07.13-.2.3-.3.26-.16.28-.2.17-.37q-.1-.18-.17-.2c-.03 0-.26.14-.53.31m-5.4.2c-.23.13-.47.62-.47.95 0 .4.59.94 1.03.94.65 0 1.2-.74.98-1.32-.21-.56-1.03-.86-1.53-.57m3.9.41c-.27.06-.48.14-.48.18 0 .1.28 1.35.36 1.63q.06.16.3.17c.23 0 .24-.03.18-.4s-.05-.39.22-.42q.3-.02.29-.23c0-.17-.06-.2-.37-.18-.5.03-.52-.23-.03-.33.28-.05.35-.1.35-.3 0-.27-.06-.28-.82-.12m-3.66.1c-.22.22-.14.67.13.8.2.1.28.08.45-.07.25-.23.26-.61 0-.75q-.37-.2-.58.02m1.67-.1-.13.96c-.1.78-.1.95 0 1q.38.1.46-.35c.03-.25.07-.28.34-.25.24.03.33-.01.37-.17.06-.25 0-.31-.35-.31q-.29 0-.28-.16c0-.14.07-.16.39-.11.35.04.4.02.44-.19s0-.24-.32-.3z"/></svg>