<svg xmlns="http://www.w3.org/2000/svg" width="24" height="24"><path fill="#FFFFFF" fill-rule="evenodd" d="M4.07 5.74c-.97.36-1.34 1.32-.82 2.12.4.63 1.59.82 2.39.4L6.1 8l.39.2a2.4 2.4 0 0 0 1.93.13c.52-.18.59-.18.85-.04.43.24 1.48.2 2-.05l.43-.21V9.3h.9v-.55c0-.3.02-.55.04-.55l.42.16a1.7 1.7 0 0 0 1.51-.16c.98-.6.76-2.05-.36-2.39a1.7 1.7 0 0 0-1.23.03c-.21.08-.38.1-.38.05s-.2-.09-.45-.09c-.34 0-.45.04-.45.15 0 .13-.06.12-.4-.05a3 3 0 0 0-1.97-.05c-.33.14-.4.14-.75 0a3 3 0 0 0-1-.15c-1.11 0-1.78.52-1.78 1.38q.02.74-.86.72c-.52 0-.74-.23-.74-.78q.01-.82.89-.68c.33.05.4.03.51-.2q.14-.25.03-.35c-.17-.17-1.15-.2-1.56-.05m3.1.76c-.21.17-.27.3-.27.6 0 .35.05.43.32.6.38.23.64.19.96-.16.26-.3.28-.64.04-.93a.75.75 0 0 0-1.05-.11m2.58.05q-.46.46-.04.99c.4.52 1.29.2 1.29-.48 0-.34-.4-.76-.75-.76a1 1 0 0 0-.5.25m3.1 0c-.5.48-.15 1.35.53 1.35.55 0 .94-.68.68-1.18s-.82-.57-1.21-.17M8.9 10.69v1.1l.47-.01c.27 0 .54-.05.6-.1.08-.07.13-.35.13-.73 0-.7-.14-.91-.55-.8-.23.05-.25.02-.25-.25 0-.23-.04-.3-.2-.3-.19 0-.2.07-.2 1.1m5.3-.45c0 .63 0 .65-.25.65-.22 0-.25-.04-.25-.4 0-.22-.04-.4-.1-.4-.05 0-.1.18-.1.4 0 .36-.03.4-.24.4s-.25-.05-.28-.37q-.02-.38-.2-.41c-.14-.03-.17.07-.2.65-.02.55-.06.68-.2.71-.16.03-.18-.05-.18-.67 0-.65-.02-.71-.2-.71-.2 0-.2.05-.18.83l.03.82h.55c.55 0 .55 0 .58-.32.03-.27.07-.33.28-.33.2 0 .24.05.24.35 0 .2.04.35.1.35s.1-.16.1-.35c0-.3.03-.35.25-.35s.25.04.25.35c0 .28.04.35.2.35.18 0 .2-.07.2-.64 0-.6.08-.76.36-.76.02 0 .04.32.04.7 0 .63.02.7.2.7s.2-.07.2-.79c0-.85-.08-.97-.56-.85-.22.06-.24.03-.24-.25 0-.24-.04-.31-.2-.31-.18 0-.2.07-.2.65m2.9.43v1.09h.5c.46.02.52 0 .6-.23.27-.69 0-1.51-.46-1.4-.21.06-.24.03-.24-.24 0-.23-.04-.3-.2-.3-.19 0-.2.07-.2 1.08m1.4.01v1.1h.47c.27 0 .54-.05.6-.11.08-.06.13-.34.13-.69q0-1-.56-.85c-.21.06-.24.03-.24-.24 0-.23-.04-.3-.2-.3-.19 0-.2.07-.2 1.1m-8.02-.38c-.2.2-.21.23-.05.26.1.02.24-.02.32-.08q.14-.1.25-.05c.2.12.1.31-.25.44q-.35.12-.41.37c-.11.43 0 .53.6.53l.56-.01v-.74c0-.62-.03-.75-.2-.84q-.46-.24-.82.12m5.32-.02c-.25.25-.27.95-.04 1.28.17.25.71.3.92.1.07-.07.12-.4.12-.75 0-.51-.03-.64-.2-.73q-.45-.23-.8.1m4-.04c0 .1.1.49.21.88l.21.7-.2.14c-.26.17-.29.42-.04.42.38 0 .52-.24.81-1.37.25-.99.25-.93.01-.93q-.19-.02-.26.38-.13.86-.29.12-.11-.44-.28-.48-.16-.03-.17.14m-10.46.27c-.03.08-.04.32-.02.53q.02.4.21.42c.16.03.18-.03.15-.49-.03-.51-.22-.77-.34-.46m8.23-.06c-.04.03-.07.28-.07.55q0 .5.14.48c.16 0 .26-.21.26-.55 0-.43-.16-.66-.33-.48m1.4 0c-.04.03-.07.28-.07.55 0 .42.03.49.18.46.13-.03.17-.14.17-.52 0-.46-.12-.66-.28-.5m-2.95.51c.02.36.07.49.2.51.15.03.18-.04.18-.47 0-.45-.03-.51-.2-.51-.19 0-.2.05-.18.47"/></svg>