<svg xmlns="http://www.w3.org/2000/svg" width="24" height="24"><path fill="#FFFFFF" fill-rule="evenodd" d="M3.01 7.38c0 .8.03.9.1.58Q3.4 6.8 4.83 6.5c.33-.06.17-.08-.7-.09L3 6.4zm3.22-.87c.5.1.53.14.24.51-.22.29-.31.33-.74.33q-.93 0-1.14.75c-.3.98.77 1.73 1.85 1.31.23-.08.25-.12.16-.35a2 2 0 0 1 .05-1.33q.42-1 1.58-1.22c.3-.05.02-.08-.98-.08-.87 0-1.26.03-1.02.08m3.44 0c.58.12.95.33 1.32.75l.31.36.31-.36a2.2 2.2 0 0 1 1.32-.75q.4-.08-1.63-.08t-1.63.08m4.7 0c.74.15 1.4.64 1.6 1.19.1.23.1.22.35-.2.3-.5.84-.85 1.5-.98q.44-.09-1.72-.09-2.12 0-1.73.08m4.91 0c.78.16 1.34.61 1.58 1.27.13.37.13.37.14-.5V6.4l-1.07.01c-.89.01-1 .03-.65.1M8.5 7.43c-.48.24-.66 1.08-.35 1.67.35.69 1.47.55 1.72-.21.33-1.01-.5-1.9-1.37-1.46m4.74-.04q-.54.23-.54 1.06c0 .6.18.9.64 1.05.4.13.98-.06 1.15-.38.2-.37.13-1.18-.12-1.47a1.1 1.1 0 0 0-1.13-.26m4.64.2c-.27.24-.32.35-.32.79-.02.86.57 1.36 1.32 1.11.78-.25.85-1.66.1-2.05-.41-.21-.74-.17-1.1.14M3.01 10.04 3 11.5h13.1v-1.15c0-.63-.03-1.15-.07-1.15s-.17.15-.28.33c-.24.4-1.07.83-1.74.92-.94.13-2.25-.39-2.53-1-.1-.22-.1-.21-.56.24-.33.33-.62.51-.97.62-.7.2-1.6.17-2.17-.09l-.47-.2-.53.2c-.37.15-.75.21-1.28.21-1.3 0-2.17-.57-2.4-1.56-.05-.2-.08.24-.09 1.16m17.89-1.1c0 .4-.46.94-1.04 1.22s-1.52.38-2.08.22l-.28-.07v1.2H21v-1.4c0-.77-.02-1.4-.05-1.4q-.05.02-.05.23"/></svg>