<svg xmlns="http://www.w3.org/2000/svg" width="24" height="24"><path fill="#FFF" fill-rule="evenodd" d="M4.6 6.65c-.55.17-1.22.72-1.44 1.19-.6 1.26.54 2.28 2.27 2.02.45-.07.45-.08.58-.58l.12-.52.1.34c.18.52.56.74 1.36.78 1.1.06 1.87-.32 2.18-1.06.13-.32.15-.33.32-.18.1.08.34.19.54.23s.38.13.38.18c0 .17-.5.17-.76 0-.24-.14-.25-.14-.5.22q-.26.38-.14.48c.05.05.45.11.88.13 1.11.05 1.64-.22 1.86-.95.1-.32-.3-.68-.83-.77-.24-.03-.4-.1-.37-.16.08-.13.51-.13.75 0 .15.08.22.04.4-.23l.2-.32-.07.34c-.05.3-.04.34.14.29.38-.1.41.04.17.86-.13.44-.24.84-.24.88s.26.08.58.08h.58l.24-.78c.33-1.06.35-1.1.64-1.05.23.05.24.08.2.52q-.18 1.3 1.48 1.31c.73 0 .8-.04.92-.66l.07-.3-.53.04q-.97.07-.7-.53.29-.57 1-.35c.39.12.4.13.34.56-.09.8.47 1.24 1.57 1.24 1.5 0 2.49-1.07 1.96-2.1q-.33-.63-1.4-.64c-.78 0-1.24.16-1.7.61l-.38.37.07-.46.07-.46-.48-.06a2.3 2.3 0 0 0-1.76.5l-.3.29.07-.38.07-.38h-1.58l-2.08-.02c-.57 0-1.3.33-1.4.65-.08.23-.22.23-.3-.01q-.14-.4-.98-.62c-.93-.23-2.08.25-2.43 1q-.2.4-.48.5c-.95.35-1.67-.2-1.07-.8.34-.33.91-.4 1.28-.14.25.18.27.14.38-.66.07-.46.07-.46-.25-.53-.5-.1-1.1-.06-1.6.1m14.48 1.42c-.27.03-.58.35-.58.59 0 .22.45.45.75.37.36-.09.6-.46.46-.72-.12-.23-.27-.29-.63-.24m-11.53.26c-.34.5.13.92.72.64.23-.1.28-.2.28-.48 0-.34-.01-.35-.42-.38-.35-.03-.44 0-.58.22m-4.38 1.93a.3.3 0 0 0-.07.2c0 .1.52.13 2.7.13 2.53 0 2.71-.01 2.68-.17-.03-.17-.25-.18-2.64-.2-1.43-.02-2.63 0-2.67.04m5.43.05c0 .07.06.36.13.63.16.6.47.74.7.3l.14-.28.07.27c.1.43.42.34.78-.24q.48-.77.34-.32l-.11.5c-.06.3-.05.32.2.32q.27 0 .32-.2.06-.18.2-.2.12.02.13.2-.01.21.25.2.26.01.25-.2v-.2l.2.2c.24.24.7.26 1.1.05.27-.14.3-.14.3 0 0 .24.94.17.98-.07q.04-.19-.17-.18c-.19 0-.2-.04-.14-.45.05-.43.05-.45-.2-.45q-.25 0-.3.2l-.06.21-.2-.2c-.26-.26-.56-.27-1.02-.03-.32.16-.36.16-.35.03.02-.26-.44-.27-.5-.02-.08.27-.34.27-.34.01 0-.17-.07-.2-.49-.2-.45 0-.5.02-.62.32l-.13.32-.08-.32c-.11-.43-.41-.43-.6 0l-.13.33-.05-.3c-.04-.24-.1-.3-.33-.33q-.26-.03-.27.1m6.27-.04a4 4 0 0 0-.12.64l-.07.57 1.26-.01c.7 0 1.29-.05 1.32-.1.07-.11.44-.1.44.02 0 .06.49.1 1.32.08 1.15-.03 1.33-.05 1.36-.2q.03-.16-.2-.2l-.23-.05.23-.02q.2-.02.22-.15-.02-.14-.22-.19-.31-.04.05-.06.28.01.27-.22c0-.18-.05-.2-.47-.17l-.48.03-.11.55c-.07.3-.12.5-.13.43q-.02-.12-.22-.13c-.2 0-.2-.04-.15-.45.07-.43.06-.45-.18-.45-.2 0-.27.06-.32.28-.1.44-.22.78-.23.62 0-.08-.06-.32-.12-.52-.08-.33-.14-.38-.39-.38-.23 0-.33.08-.51.4-.13.22-.25.36-.29.3a1 1 0 0 0-.3-.19l-.25-.1h.26c.3-.01.46-.26.23-.35-.3-.11-.53-.06-.8.17q-.45.38.1.56c.18.07.18.08-.1.12-.16.03-.4.02-.54-.02q-.36-.08-.02-.08c.26-.01.3-.27.04-.34q-.2-.05.04-.06c.22-.01.38-.23.27-.35-.09-.09-.91-.07-.96.02m-11.77.57c0 .13.37.15 2.75.15s2.75-.02 2.75-.15-.37-.15-2.75-.15-2.75.02-2.75.15m.07.32a.3.3 0 0 0-.07.2c0 .1.53.13 2.8.13 2.63 0 2.81-.01 2.78-.17-.03-.17-.25-.18-2.74-.2a29 29 0 0 0-2.77.04"/></svg>