<svg xmlns="http://www.w3.org/2000/svg" width="24" height="24"><path fill="#FFF" fill-rule="evenodd" d="M3.35 7.33q-.73.72-.01 1.43c.27.27.42.34.74.34.45 0 .94-.31.77-.5q-.1-.1-.41.02c-.4.15-.77.04-.94-.27-.31-.58.26-1.12.92-.87q.33.12.42.02c.17-.17-.18-.42-.68-.47-.42-.05-.48-.03-.8.3m2.3 0q-.74.72-.02 1.43c.28.28.42.34.76.34.72 0 1.27-.76 1-1.4-.18-.43-.44-.62-.94-.67-.42-.05-.48-.03-.8.3m2.1-.26c-.16.16-.04.33.24.33h.3l.02.82c.03.7.06.83.2.86.16.03.18-.06.18-.82V7.4H9c.23 0 .3-.04.3-.2 0-.18-.07-.2-.73-.2-.4 0-.77.03-.8.07m2.13.13c-.37.38-.18.78.48 1 .42.16.45.5.04.5-.15 0-.33-.05-.38-.1q-.11-.12-.25.06c-.11.14-.1.18.06.3.32.23.94.14 1.18-.17q.42-.53-.41-.92-.84-.4-.02-.42.73-.01.36-.3c-.29-.22-.82-.19-1.06.05m1.6-.15c0 .04.14.52.32 1.07.27.86.34.99.51.96.16-.02.25-.18.4-.67.1-.34.2-.61.23-.59s.12.31.22.64c.14.46.22.59.37.59.16 0 .26-.18.52-.9.38-1.07.39-1.15.14-1.15-.15 0-.24.13-.36.53l-.22.67c-.03.09-.15-.13-.28-.5-.16-.5-.26-.65-.4-.65-.16 0-.25.15-.41.65q-.21.62-.27.5l-.24-.65c-.11-.3-.26-.51-.36-.53q-.16-.02-.17.03m3.7.08a1 1 0 0 0-.43.5c-.56 1.13 1.05 2.03 1.85 1.03.2-.24.23-.94.05-1.16a1.2 1.2 0 0 0-1.47-.37m2.2.91V9.1h.65c.58 0 .65-.02.65-.2 0-.17-.07-.2-.45-.2h-.44l-.03-.82c-.03-.7-.06-.83-.2-.86-.16-.03-.18.07-.18 1.02m1.84-.9a5 5 0 0 0-.02 1.02l.03.89.39.03c1.31.11 1.89-1.35.76-1.93-.36-.19-1.09-.2-1.16-.02M5.9 7.6c-.4.4-.1 1.1.48 1.1.36 0 .62-.28.62-.67 0-.57-.69-.84-1.1-.43m9.37-.02c-.39.42-.1 1.12.46 1.12.55 0 .84-.6.51-1.08-.2-.28-.74-.3-.97-.04m4.33.47v.65h.3c.37 0 .7-.31.7-.65s-.33-.65-.7-.65h-.3zM9.22 10.39c-.08.04-.12.19-.1.32q.01.25.3.27.26.02.28-.08-.02-.1-.17-.08t-.21-.16c-.03-.15 0-.18.18-.13q.21.04.17-.06c-.05-.15-.28-.2-.45-.08m.78.06c-.2.25-.08.5.25.5.24 0 .3-.05.33-.24.06-.37-.34-.55-.58-.26m.9.21c.01.22.04.33.08.24.09-.2.42-.22.42-.04q0 .13.1.14c.05 0 .1-.16.1-.35 0-.36-.16-.47-.27-.2-.05.14-.08.14-.24-.01-.18-.16-.19-.16-.18.22m.99-.01c0 .4.03.42.32.16.24-.23.18-.51-.12-.51-.16 0-.2.06-.2.35m.8-.1c-.14.38-.13.4.2.41h.3l-.11-.35q-.2-.57-.4-.05m.71.09c0 .35.2.51.2.18 0-.17.01-.17.14 0q.28.4.25-.2 0-.4-.08-.2c-.06.17-.08.17-.2.03q-.31-.38-.31.19m.95-.17c.04.1.1.25.12.35q.11.37.3-.15c.14-.34.08-.51-.08-.28q-.11.16-.16.03c-.02-.07-.1-.13-.15-.13q-.09.02-.03.18"/></svg>