<?xml version="1.0" encoding="UTF-8" standalone="no"?>
<svg
   viewBox="0 0 24 24"
   width="24pt"
   height="24pt"
   version="1.1"
   id="svg1"
   sodipodi:docname="cotswold_outdoor.svg"
   xml:space="preserve"
   inkscape:version="1.3 (0e150ed6c4, 2023-07-21)"
   xmlns:inkscape="http://www.inkscape.org/namespaces/inkscape"
   xmlns:sodipodi="http://sodipodi.sourceforge.net/DTD/sodipodi-0.dtd"
   xmlns="http://www.w3.org/2000/svg"
   xmlns:svg="http://www.w3.org/2000/svg"><defs
     id="defs1"><style
       id="style1">&#10;      .cls-1 {&#10;        fill: #d91a21;&#10;        stroke-width: 0px;&#10;      }&#10;    </style></defs><sodipodi:namedview
     id="namedview1"
     pagecolor="#ffffff"
     bordercolor="#000000"
     borderopacity="0.25"
     inkscape:showpageshadow="2"
     inkscape:pageopacity="0.0"
     inkscape:pagecheckerboard="0"
     inkscape:deskcolor="#d1d1d1"
     inkscape:document-units="pt"
     inkscape:zoom="32.659494"
     inkscape:cx="13.34987"
     inkscape:cy="16.182124"
     inkscape:window-width="1920"
     inkscape:window-height="974"
     inkscape:window-x="595"
     inkscape:window-y="1609"
     inkscape:window-maximized="1"
     inkscape:current-layer="svg1" /><g
     id="g1"
     transform="matrix(0.01987505,0,0,0.01987505,2.4658605,0.5669225)"
     style="fill:#ffffff"><path
       class="cls-1"
       d="m 879.15,388.82 c -2.45,-0.58 -4.91,-1.14 -7.35,-1.75 -12.89,-3.26 -25.76,-6.61 -38.67,-9.79 -15.76,-3.88 -31.54,-7.69 -47.34,-11.42 -11.16,-2.63 -22.37,-5.09 -33.57,-7.59 -9.35,-2.09 -18.7,-4.18 -28.07,-6.19 -8.98,-1.93 -17.97,-3.81 -26.98,-5.63 -10.41,-2.1 -20.84,-4.12 -31.27,-6.14 -7.55,-1.46 -15.1,-2.93 -22.66,-4.29 -7.76,-1.4 -15.53,-2.71 -23.3,-4 -5.27,-0.88 -10.55,-1.69 -15.83,-2.5 -6.37,-0.97 -12.74,-1.92 -19.11,-2.87 -4.64,-0.69 -9.27,-1.41 -13.92,-2.03 -5.36,-0.71 -10.74,-1.32 -16.11,-1.97 -4.46,-0.54 -8.93,-1.1 -13.4,-1.57 -2.85,-0.3 -5.71,-0.46 -8.57,-0.67 -5.58,-0.41 -11.19,-0.65 -16.74,-1.29 -2.34,-0.27 -4.66,-0.28 -6.99,-0.43 -11.33,-0.76 -22.67,-0.61 -34.02,-0.43 -5.33,0.09 -10.68,0.07 -15.98,0.57 -5.06,0.47 -10.11,0.89 -15.18,1.13 -3.1,0.14 -6.19,0.7 -9.29,1.03 -2.26,0.24 -4.53,0.36 -6.78,0.61 -4.46,0.5 -8.91,1.07 -13.37,1.59 -3.81,0.45 -7.64,0.82 -11.45,1.31 -4.45,0.57 -8.89,1.22 -13.33,1.86 -3.35,0.48 -6.7,0.96 -10.05,1.47 -6.44,0.98 -12.88,1.95 -19.31,3 -5.12,0.83 -10.22,1.79 -15.33,2.67 -4.23,0.73 -8.48,1.38 -12.71,2.16 -10.05,1.85 -20.1,3.75 -30.15,5.65 -4.15,0.79 -8.29,1.64 -12.42,2.47 -7.47,1.51 -14.93,3.02 -22.39,4.55 -7.91,1.62 -15.84,3.19 -23.73,4.92 -10.31,2.25 -20.6,4.62 -30.9,6.96 -11.5,2.62 -23.02,5.2 -34.49,7.93 -13.38,3.19 -26.74,6.46 -40.08,9.81 -13.15,3.31 -26.26,6.76 -39.39,10.14 -0.58,0.15 -1.18,0.25 -1.77,0.37 -0.03,-0.13 -0.07,-0.26 -0.1,-0.4 2.63,-0.89 5.25,-1.85 7.91,-2.67 18.55,-5.75 37.09,-11.55 55.69,-17.17 17.41,-5.26 34.86,-10.37 52.33,-15.45 16.59,-4.82 33.21,-9.55 49.84,-14.22 11.42,-3.21 22.87,-6.32 34.35,-9.33 14.06,-3.69 28.13,-7.33 42.24,-10.81 13.29,-3.28 26.62,-6.39 39.95,-9.46 8.13,-1.87 16.3,-3.58 24.47,-5.26 7.47,-1.54 14.95,-3.02 22.46,-4.39 5.31,-0.97 10.67,-1.73 16.01,-2.57 3.8,-0.6 7.59,-1.24 11.4,-1.74 4.32,-0.57 8.65,-1.09 13,-1.5 3.5,-0.33 7.04,-0.26 10.51,-0.74 5.47,-0.76 10.94,-0.45 16.4,-0.29 5.33,0.16 10.66,0.74 15.96,1.34 6.41,0.72 12.81,1.59 19.19,2.53 5.41,0.8 10.81,1.74 16.19,2.72 8.13,1.49 16.28,2.97 24.37,4.66 12.05,2.52 24.09,5.15 36.1,7.86 10.3,2.32 20.59,4.7 30.83,7.26 12.71,3.17 25.37,6.53 38.04,9.85 9.27,2.43 18.53,4.89 27.77,7.4 8.11,2.21 16.21,4.48 24.3,6.77 14.68,4.15 29.36,8.28 44.01,12.53 15.65,4.55 31.28,9.15 46.88,13.88 18.65,5.66 37.26,11.47 55.88,17.23 2.05,0.63 4.06,1.38 6.09,2.07 -0.02,0.09 -0.04,0.18 -0.06,0.26 z"
       id="path1-2"
       style="fill:#ffffff" /><path
       class="cls-1"
       d="m 463.09,437.32 c 2.53,-0.55 28.72,-0.5 30.86,0.05 0.05,0.7 0.15,1.46 0.15,2.22 0.02,12.27 0,24.53 0.07,36.8 0.03,5.07 0.25,10.15 0.41,15.22 0.01,0.41 0.24,0.8 0.37,1.21 1.21,-0.1 1.47,-1.01 1.88,-1.7 2.82,-4.77 5.62,-9.56 8.42,-14.34 7.19,-12.26 14.4,-24.52 21.56,-36.8 0.77,-1.31 1.63,-1.88 3.25,-1.86 8.87,0.09 17.75,0.04 26.62,0.04 0.77,0 1.54,0 2.39,0 0.11,0.78 0.24,1.35 0.25,1.92 0.17,5.26 0.67,10.5 0.6,15.77 -0.12,9.46 -0.03,18.92 0.04,28.38 0.01,2.13 0.24,4.27 0.43,6.4 0.03,0.31 0.34,0.78 0.6,0.84 0.26,0.06 0.75,-0.2 0.93,-0.46 0.58,-0.87 1.09,-1.78 1.56,-2.71 5.63,-11.18 11.26,-22.37 16.87,-33.56 2.49,-4.95 4.97,-9.91 7.41,-14.89 0.72,-1.48 1.62,-2.24 3.43,-2.21 6.78,0.11 13.57,0.04 20.36,0.04 0.5,0 0.99,0.06 1.72,0.11 -0.5,1.04 -0.87,1.93 -1.33,2.77 -8.2,14.99 -16.41,29.97 -24.62,44.95 -7.77,14.18 -15.53,28.36 -23.3,42.54 -0.22,0.4 -0.47,0.78 -0.67,1.2 -0.45,0.94 -1.16,1.24 -2.2,1.24 -10.31,-0.04 -20.62,-0.02 -30.93,-0.04 -2.2,0 -2.35,-0.29 -2.5,-2.51 -1.09,-16.48 -0.41,-32.98 -0.61,-49.46 0,-0.76 0,-1.53 0,-2.21 -1.35,-0.57 -1.74,0.25 -2.16,1 -1.57,2.78 -3.14,5.56 -4.7,8.35 -4.15,7.39 -8.29,14.79 -12.44,22.18 -3.92,6.99 -7.89,13.97 -11.76,20.99 -0.85,1.54 -1.86,2.25 -3.69,2.24 -8.68,-0.07 -17.36,-0.01 -26.03,0 -0.77,0 -1.55,0 -2.54,0 -0.06,-0.96 -0.13,-1.72 -0.14,-2.48 -0.02,-5.15 0.19,-10.32 -0.08,-15.46 -0.97,-19.02 -0.15,-38.06 -0.58,-57.09 -0.97,-5.03 -0.36,-10.11 -0.39,-15.17 0,-1.2 0.32,-2.41 0.48,-3.51 z"
       id="path2"
       style="fill:#ffffff" /><path
       class="cls-1"
       d="m 819.58,437.7 c 1.05,0 1.76,0 2.47,0 20.94,0 41.88,-0.02 62.82,0.06 3.77,0.02 7.54,0.55 11.1,1.9 5.66,2.15 8.82,6.4 10.14,12.23 0.96,4.24 0.14,8.3 -0.99,12.33 -2.52,8.97 -5.07,17.94 -7.71,26.88 -2.14,7.25 -4.39,14.47 -6.69,21.67 -1.3,4.06 -3.18,7.85 -5.99,11.12 -3.86,4.49 -8.68,7.07 -14.64,7.13 -9.13,0.09 -18.28,0.38 -27.4,-0.07 -16.56,-0.81 -33.11,-0.12 -49.66,-0.39 -0.51,0 -1.03,-0.06 -1.81,-0.1 9.46,-30.95 18.88,-61.77 28.35,-92.76 z m 11.46,76.57 c 0.82,0.06 1.44,0.14 2.07,0.14 6.72,0 13.44,-0.05 20.16,0.03 1.73,0.02 2.87,-0.79 3.78,-1.99 0.69,-0.92 1.25,-2 1.62,-3.09 0.92,-2.78 1.7,-5.61 2.54,-8.42 3.53,-11.8 7.09,-23.59 10.59,-35.4 0.78,-2.62 1.63,-5.24 1.5,-8.03 -0.1,-2.17 -1.39,-3.62 -3.53,-3.65 -6.07,-0.07 -12.13,-0.02 -18.2,-0.04 -0.83,0 -1.37,0.33 -1.68,1.07 -0.2,0.48 -0.41,0.96 -0.56,1.46 -1.18,3.73 -2.34,7.46 -3.51,11.19 -2.94,9.32 -5.89,18.64 -8.84,27.95 -1.94,6.15 -3.89,12.29 -5.94,18.8 z"
       id="path3"
       style="fill:#ffffff" /><path
       class="cls-1"
       d="m 649.13,530.51 c -9.52,0 -19.05,0.01 -28.57,0 -6.2,0 -12.15,-4.19 -14.35,-10.01 -1.42,-3.76 -1.81,-7.65 -0.86,-11.53 1.27,-5.19 2.73,-10.33 4.26,-15.45 2.44,-8.18 5.01,-16.32 7.53,-24.49 1.77,-5.73 3.58,-11.45 5.28,-17.2 2.01,-6.84 6.82,-10.75 13.32,-12.89 2.67,-0.88 5.42,-1.3 8.26,-1.29 17.35,0.06 34.71,0.01 52.06,0.08 4.93,0.02 11.15,3.72 13.46,10.08 1.67,4.61 1.98,9.32 0.65,14.01 -3.01,10.59 -6.15,21.14 -9.29,31.7 -1.84,6.18 -3.74,12.35 -5.67,18.5 -0.8,2.54 -1.55,5.12 -2.67,7.52 -2.36,5.08 -6.35,8.53 -11.56,10.53 -0.82,0.31 -1.78,0.37 -2.67,0.38 -9.72,0.03 -19.44,0.02 -29.16,0.02 v 0.04 z m 0.8,-16.12 v 0 c 2.8,-0.01 5.61,-0.01 8.41,0 0.94,0 1.69,-0.26 2.49,-0.87 1.71,-1.31 2.65,-3.05 3.25,-4.99 3.04,-9.84 6.03,-19.69 9.03,-29.54 1.69,-5.55 3.42,-11.08 5.03,-16.65 0.48,-1.67 0.78,-3.43 0.85,-5.17 0.09,-2.34 -1.17,-3.47 -3.5,-3.47 -5.93,0 -11.87,0.07 -17.8,0.06 -1.77,0 -2.97,0.84 -3.85,2.24 -0.41,0.65 -0.71,1.4 -0.93,2.14 -1.59,5.24 -3.12,10.49 -4.73,15.72 -3.23,10.52 -6.51,21.03 -9.73,31.56 -0.42,1.36 -0.71,2.77 -0.94,4.18 -0.52,3.21 1.78,4.85 4.21,4.81 2.74,-0.04 5.48,0 8.22,0 z"
       id="path4"
       style="fill:#ffffff" /><path
       class="cls-1"
       d="m 187.91,530.61 c -9.13,0 -18.27,-0.19 -27.4,0.06 -7.46,0.21 -13.87,-5.01 -15.63,-11.28 -0.79,-2.81 -1.27,-5.65 -0.75,-8.66 1.37,-7.88 4.05,-15.37 6.34,-22.98 3.61,-11.99 7.44,-23.91 11.05,-35.89 2.09,-6.92 6.91,-10.83 13.52,-12.92 2.94,-0.93 5.95,-1.35 9.05,-1.33 16.64,0.06 33.28,0 49.91,0.12 6.73,0.05 11.44,3.48 14.28,9.52 1.07,2.27 1.49,4.66 1.59,7.19 0.16,4.19 -0.71,8.15 -1.89,12.1 -4.26,14.24 -8.53,28.47 -12.79,42.71 -1.1,3.68 -2,7.43 -3.78,10.88 -2.44,4.73 -6.16,8.04 -11.1,9.94 -0.94,0.36 -2.04,0.44 -3.06,0.44 -9.79,0.03 -19.57,0.02 -29.36,0.02 v 0.07 z m 1.07,-16.22 v 0 c 2.67,0.01 5.35,-0.08 8.02,0.05 2.1,0.1 3.58,-0.8 4.5,-2.5 0.89,-1.65 1.65,-3.4 2.2,-5.19 4.56,-14.76 9.09,-29.53 13.56,-44.31 0.5,-1.67 0.75,-3.45 0.83,-5.19 0.1,-2.11 -1.26,-3.48 -3.36,-3.49 -6.07,-0.03 -12.13,0 -18.2,0.06 -1.7,0.02 -2.98,0.9 -3.76,2.4 -0.48,0.92 -0.89,1.9 -1.18,2.89 -1.97,6.55 -3.85,13.13 -5.85,19.67 -2.79,9.16 -5.64,18.31 -8.5,27.45 -0.5,1.59 -0.64,3.17 -0.66,4.81 -0.01,1.19 0.46,2.08 1.42,2.59 0.77,0.41 1.69,0.71 2.56,0.74 2.8,0.09 5.61,0.03 8.41,0.03 z"
       id="path5"
       style="fill:#ffffff" /><path
       class="cls-1"
       d="m 345.22,514.42 c 0.8,0 1.51,0 2.23,0 13.77,0 27.53,0 41.3,0 0.59,0 1.18,0.04 1.76,-0.03 2.03,-0.23 3.76,-0.95 4.84,-2.84 1.56,-2.73 2.85,-5.6 3.52,-8.66 0.31,-1.43 0.17,-2.99 0.07,-4.48 -0.09,-1.19 -0.54,-1.55 -1.82,-1.59 -2.28,-0.08 -4.57,-0.05 -6.85,-0.08 -6.06,-0.07 -12.12,0.15 -18.18,-0.56 -3.46,-0.4 -6.4,-1.71 -9.01,-3.86 -2.75,-2.26 -4.42,-5.26 -5.53,-8.61 -1.36,-4.06 -1.16,-8.08 0.15,-12.1 2.17,-6.7 4.33,-13.4 6.5,-20.1 0.3,-0.93 0.66,-1.84 1,-2.76 1.94,-5.28 5.87,-8.31 11.12,-9.83 2.83,-0.82 5.69,-1.29 8.67,-1.28 21.79,0.05 43.58,0.04 65.38,0.05 0.58,0 1.16,0.05 1.99,0.09 -0.11,0.71 -0.14,1.33 -0.32,1.91 -1.2,3.93 -2.43,7.85 -3.66,11.76 -0.57,1.81 -0.64,1.86 -2.65,1.86 -12.46,0 -24.92,0 -37.39,-0.01 -0.2,0 -0.39,0.02 -0.59,0 -4.9,-0.48 -7.91,1.88 -9.53,6.34 -0.91,2.51 -1.93,4.99 -2.73,7.53 -0.34,1.08 -0.35,2.31 -0.31,3.46 0.04,1.2 0.65,1.7 1.85,1.87 0.19,0.03 0.39,0.03 0.59,0.03 7.09,0.22 14.18,0.44 21.27,0.66 2.4,0.07 4.82,-0.21 7.17,0.62 5.39,1.9 9.01,5.57 11.06,10.86 1.16,3 1.37,6 0.29,9.09 -3.04,8.74 -5.96,17.52 -9.09,26.22 -1.21,3.36 -3.24,6.23 -6.51,8.05 -2.8,1.55 -5.83,2.26 -8.98,2.39 -3.13,0.13 -6.26,0.04 -9.39,0.04 -20.16,0 -40.32,0.01 -60.48,0.02 -0.9,0 -1.81,0 -2.71,0 0,-1.8 3.35,-12.55 4.99,-16.09 z"
       id="path6"
       style="fill:#ffffff" /><path
       class="cls-1"
       d="m 133.91,514.42 c -1.71,5.6 -3.3,10.81 -4.93,16.14 -1.06,0 -1.9,0 -2.74,0 -14.87,0.01 -29.75,0 -44.62,0.06 -3.04,0.01 -6.07,0.32 -9.11,0.44 -3.96,0.16 -7.6,-0.96 -11,-2.92 -4.47,-2.59 -7.57,-6.31 -9.17,-11.25 -0.96,-2.97 -0.77,-5.95 0.06,-8.87 1.65,-5.83 3.42,-11.63 5.17,-17.43 3.39,-11.23 6.79,-22.46 10.2,-33.69 0.32,-1.06 0.67,-2.11 1.01,-3.17 2.12,-6.71 6.81,-11 13.14,-13.58 4.38,-1.78 8.97,-2.61 13.73,-2.6 18.46,0.05 36.92,0.05 55.38,0.07 0.71,0 1.41,0 2.25,0 -0.09,0.64 -0.1,1.09 -0.22,1.5 -1.17,4.07 -2.35,8.14 -3.54,12.21 -0.59,2 -0.6,2.01 -2.67,2.01 -12.66,0 -25.31,-0.02 -37.97,0 -1.29,0 -2.61,0.16 -3.85,0.47 -3.1,0.78 -5.11,2.81 -6.04,5.83 -4.57,14.89 -9.14,29.78 -13.62,44.7 -0.57,1.91 -0.8,3.96 -0.87,5.96 -0.09,2.6 1.36,3.97 3.95,4.07 1.43,0.06 2.87,0.03 4.3,0.03 12.98,0 25.96,0 38.95,0 0.58,0 1.15,0 2.2,0 z"
       id="path7"
       style="fill:#ffffff" /><path
       class="cls-1"
       d="m 264.41,530.58 c 0.26,-1.04 0.38,-1.67 0.57,-2.28 6.88,-22.3 13.78,-44.6 20.67,-66.9 0.52,-1.68 1.05,-3.36 1.54,-5.05 0.21,-0.74 0.33,-1.51 0.54,-2.52 -0.94,-0.04 -1.7,-0.09 -2.45,-0.09 -6.46,0 -12.92,0 -19.38,-0.02 -0.69,0 -1.39,-0.21 -2.08,-0.3 -0.36,-0.04 -0.77,-0.13 -1.1,-0.02 -1.95,0.61 -3.82,0.46 -5.93,-0.42 1.34,-5.11 3.01,-10.08 4.56,-15.18 h 95.71 c -0.26,0.89 -0.48,1.7 -0.72,2.49 -1.16,3.87 -2.35,7.73 -3.48,11.61 -0.25,0.87 -0.68,1.36 -1.58,1.45 -1.16,0.11 -2.32,0.34 -3.49,0.35 -8.35,0.04 -16.7,0.03 -25.05,0.04 -0.71,0 -1.43,0 -2.21,0 -0.2,0.47 -0.41,0.86 -0.54,1.28 -4.89,15.82 -9.77,31.64 -14.65,47.46 -2.57,8.35 -5.15,16.69 -7.73,25.04 -0.19,0.62 -0.42,1.24 -0.6,1.86 -0.25,0.89 -0.82,1.25 -1.74,1.2 -0.78,-0.04 -1.57,0.01 -2.35,0.01 -8.22,0 -16.44,0 -24.66,0 -1.16,0 -2.33,0 -3.86,0 z"
       id="path8"
       style="fill:#ffffff" /><path
       class="cls-1"
       d="m 707.78,530.8 c 9.56,-31.24 18.98,-62.07 28.43,-92.96 h 32.89 c -7.81,25.5 -15.58,50.87 -23.44,76.52 h 37.92 c -0.16,0.83 -0.23,1.44 -0.4,2.02 -1.22,4.13 -2.44,8.25 -3.69,12.37 -0.66,2.18 -0.82,2.28 -3.19,2.29 -13.5,0.03 -27.01,0.07 -40.51,0.07 -8.02,0 -16.05,-0.06 -24.07,-0.11 -1.16,0 -2.32,-0.11 -3.95,-0.2 z"
       id="path9"
       style="fill:#ffffff" /><path
       class="cls-1"
       d="m 485.11,610.54 c 0.46,-1.43 0.53,-20.07 0.03,-22.25 H 474 v -11.44 h 23.92 c 0.24,3.81 0.11,7.51 0.14,11.2 0.03,3.72 0,7.44 0,11.15 0,3.72 0,7.44 0,11.15 0,3.72 0,7.44 0,11.15 0,3.72 0,7.44 0,11.15 0,3.72 0,7.44 0,11.15 0,3.71 0,7.42 0,11.36 h 11.29 c 0.11,3.71 0.19,7.18 -0.04,10.61 -1.61,0.61 -21.02,0.7 -23.69,0.11 -0.1,-2.37 -0.21,-4.8 -0.34,-7.7 -0.85,0.67 -1.36,1.03 -1.82,1.45 -4.64,4.19 -10.09,6.71 -16.24,7.53 -2.68,0.35 -5.45,0.41 -8.15,-0.27 -1.57,-0.39 -3.2,-0.56 -4.74,-1.05 -5.77,-1.87 -10.75,-5.05 -14.63,-9.71 -3.13,-3.77 -4.93,-8.19 -5.88,-13.04 -0.79,-4.03 -0.57,-8.05 -0.5,-12.07 0.03,-1.85 0.48,-3.73 0.95,-5.54 2.05,-7.79 6.58,-13.81 13.28,-18.21 2.74,-1.8 5.59,-3.39 8.83,-4.04 2.03,-0.41 4.11,-0.64 6.17,-0.81 7.7,-0.62 14.33,2 20.22,6.81 0.55,0.45 1.15,0.84 1.75,1.23 0.14,0.09 0.36,0.05 0.54,0.07 z m 0.34,23.63 c 0.21,-2.15 -0.16,-4.5 -0.85,-6.85 -0.71,-2.42 -1.76,-4.65 -3.49,-6.48 -4.34,-4.58 -9.6,-6.99 -16.02,-6.77 -5.13,0.18 -9.3,2.22 -12.69,5.98 -2.58,2.86 -4.33,6.13 -5.14,9.94 -1.28,5.99 -0.57,11.68 2.42,17.01 2.27,4.04 5.89,6.66 10.22,8.02 3.28,1.03 6.7,1.2 10.21,0.37 5.17,-1.22 9.17,-3.93 12.07,-8.29 2.54,-3.82 3.5,-8.09 3.27,-12.93 z"
       id="path10"
       style="fill:#ffffff" /><path
       class="cls-1"
       d="m 616.43,668 c -10.38,0.2 -18.75,-3.79 -25.49,-11.34 -2.72,-3.05 -4.65,-6.61 -5.86,-10.52 -0.67,-2.17 -1.38,-4.33 -1.35,-6.67 0.02,-1.35 -0.5,-2.7 -0.46,-4.04 0.27,-8.58 2.54,-16.48 8.6,-22.84 4.44,-4.66 9.73,-8.23 16.12,-9.45 9.07,-1.72 17.89,-1.1 25.97,4.06 7.9,5.05 12.84,12.1 14.55,21.31 1.6,8.64 0.22,16.83 -4.28,24.39 -2.51,4.22 -6.04,7.49 -10.2,10.08 -3.34,2.09 -6.94,3.45 -10.8,4.36 -2.34,0.55 -4.65,0.38 -6.82,0.65 z m 18.94,-32.68 c 0,-0.59 0,-1.17 0,-1.76 0.07,-6.88 -3.26,-12.08 -8.64,-15.83 -5.57,-3.88 -11.84,-4.18 -18.06,-1.6 -6.33,2.62 -9.91,7.63 -11.28,14.24 -0.55,2.66 -0.7,5.32 -0.3,8.1 1.01,7.01 4.49,12.2 10.74,15.35 7.6,3.83 18.26,2.07 23.9,-6 2.62,-3.75 4.02,-7.87 3.64,-12.5 z"
       id="path11"
       style="fill:#ffffff" /><path
       class="cls-1"
       d="m 543.61,602.28 c 11.96,0.24 21.46,5.7 28,16.29 2.26,3.66 3.25,7.79 3.74,12.04 0.09,0.78 0.16,1.56 0.28,2.33 0.3,1.95 0.43,3.86 -0.16,5.81 -0.37,1.22 -0.41,2.55 -0.63,3.83 -1.32,7.96 -5.65,14.01 -11.91,18.85 -4.27,3.3 -9.11,5.33 -14.39,6.21 -2.23,0.37 -4.55,0.28 -6.83,0.32 -13.3,0.23 -26.42,-9.52 -29.98,-21.9 -0.54,-1.88 -0.88,-3.77 -1.24,-5.68 -0.41,-2.15 -0.5,-4.25 -0.46,-6.39 0.02,-1.15 0.33,-2.29 0.52,-3.43 0.03,-0.19 0.11,-0.38 0.11,-0.57 0.06,-5.32 2.28,-9.89 5.25,-14.07 5.18,-7.3 12.27,-11.76 21.14,-13.22 1.98,-0.33 4.03,-0.26 6.58,-0.4 z m 18.48,33.26 c 0,-4.84 -0.49,-7.42 -2.28,-10.62 -4.31,-7.71 -11.69,-11.44 -20.49,-10.05 -2.82,0.45 -5.39,1.46 -7.65,3.24 -4.11,3.23 -6.57,7.37 -7.75,12.5 -1.13,4.9 -0.32,9.45 1.54,13.9 0.62,1.48 1.53,2.9 2.55,4.13 4.57,5.51 10.49,7.68 17.57,6.82 5.44,-0.66 9.66,-3.33 12.81,-7.75 2.65,-3.72 4.06,-7.84 3.7,-12.19 z"
       id="path12"
       style="fill:#ffffff" /><path
       class="cls-1"
       d="m 288.9,602.33 c 9.41,-0.25 17.32,3.17 23.95,9.7 4,3.93 6.46,8.71 7.98,14.11 1.16,4.1 1.37,8.26 0.98,12.37 -0.84,8.75 -4.36,16.24 -11.35,21.92 -4.83,3.93 -10.3,6.35 -16.39,7.33 -2.17,0.35 -4.42,0.25 -6.63,0.18 -11.42,-0.37 -20.21,-5.55 -26.35,-15.05 -3,-4.64 -4.76,-9.84 -4.61,-15.52 0.03,-1.24 0.04,-2.48 0.03,-3.72 -0.11,-9.73 3.97,-17.49 11.17,-23.76 4.37,-3.81 9.48,-6.2 15.17,-7.22 1.97,-0.35 4.03,-0.26 6.04,-0.36 z m 0.23,12.33 c -6.34,-0.33 -11.58,2.85 -14.73,6.75 -4.93,6.08 -5.67,13.15 -3.77,20.36 1.8,6.82 7.93,13.21 16.63,13.85 8.99,0.66 16.3,-3.92 19.5,-11.72 2.17,-5.29 2.29,-10.72 0.45,-16.21 -2.38,-7.07 -9.71,-13.48 -18.08,-13.04 z"
       id="path13"
       style="fill:#ffffff" /><path
       class="cls-1"
       d="m 370.23,615.29 c -3.5,-0.04 -6.99,-0.08 -10.66,-0.12 0,-3.93 -0.15,-7.61 0.17,-11.32 0.76,-0.05 1.27,-0.12 1.79,-0.12 6.26,-0.01 12.53,-0.03 18.79,-0.02 2.32,0 2.7,0.43 2.7,2.76 -0.01,15.33 -0.02,30.67 -0.03,46 0,0.83 0,1.66 0,2.7 h 10.43 c 0.2,0.92 0.48,1.66 0.51,2.42 0.07,1.89 0.06,3.78 0.01,5.67 -0.02,0.64 -0.25,1.27 -0.38,1.9 -0.17,0.86 -0.74,1.13 -1.56,1.13 -6.79,-0.02 -13.57,-0.03 -20.36,-0.06 -0.31,0 -0.62,-0.13 -1.08,-0.23 -0.08,-1.88 -0.16,-3.72 -0.25,-5.92 -1.03,0.46 -1.83,0.7 -2.51,1.13 -3.09,1.98 -6.34,3.6 -9.84,4.72 -3.01,0.96 -6.03,1.5 -9.21,1.34 -3.45,-0.17 -6.59,-1.08 -9.42,-3.09 -2.7,-1.92 -4.55,-4.4 -5.37,-7.67 -0.43,-1.72 -0.8,-3.4 -0.78,-5.19 0.01,-0.96 -0.27,-1.92 -0.39,-2.89 -0.07,-0.58 -0.14,-1.16 -0.14,-1.74 0,-9.85 0.03,-19.7 0.04,-29.56 0,-0.57 -0.1,-1.14 -0.17,-1.94 h -7.95 c -0.51,-1.81 -0.58,-8.77 -0.18,-11.09 1.63,-0.59 18.39,-0.57 20.8,0.08 0.04,0.94 0.13,1.96 0.13,2.98 0.03,13.51 0.04,27.01 0.11,40.52 0,1.59 0.18,3.25 0.66,4.76 0.72,2.27 3.57,3.95 6.04,3.91 4.9,-0.07 9.26,-1.83 13.34,-4.39 1.38,-0.86 2.66,-1.89 3.98,-2.85 0.67,-0.49 1.01,-1.09 1.01,-1.98 -0.04,-10.37 -0.04,-20.75 -0.05,-31.12 0,-0.13 -0.05,-0.25 -0.17,-0.75 z"
       id="path14"
       style="fill:#ffffff" /><path
       class="cls-1"
       d="m 691.49,666.19 c -0.87,0.05 -1.44,0.11 -2.02,0.11 -11.22,0 -22.44,0 -33.67,0 -0.46,0 -0.91,-0.01 -1.37,-0.04 -0.74,-0.06 -1.26,-0.4 -1.27,-1.2 -0.02,-3.18 0,-6.37 0,-9.83 h 12.34 v -39.98 h -11.88 c -0.2,-0.67 -0.44,-1.09 -0.45,-1.52 -0.04,-2.8 -0.08,-5.61 -0.01,-8.41 0.03,-1.28 0.38,-1.55 1.74,-1.55 6.33,-0.03 12.66,-0.04 18.99,-0.01 1.6,0 2.05,0.52 2.08,2.16 0.03,2.09 0,4.18 0.04,6.26 0.01,0.68 0.16,1.36 0.25,2.01 1.09,0.08 1.23,-0.68 1.56,-1.19 2.13,-3.21 4.87,-5.74 8.21,-7.68 2.45,-1.43 5.18,-1.84 7.86,-2.12 3.09,-0.32 6.23,-0.08 9.64,-0.08 0.11,4.13 0.15,8.26 -0.02,12.55 -0.91,0.05 -1.6,0.1 -2.3,0.13 -3.19,0.16 -6.39,0.15 -9.55,0.51 -6.18,0.72 -10.39,3.85 -12.17,10.44 -0.44,1.64 -0.4,3.36 -0.65,5 -1.05,6.95 -0.3,13.92 -0.57,20.88 -0.03,0.77 0,1.54 0,2.53 4.46,0.31 8.74,-0.13 13.21,0.11 0.2,3.63 0.09,7.17 0.03,10.92 z"
       id="path15"
       style="fill:#ffffff" /><path
       class="cls-1"
       d="m 395.32,615.21 c -0.1,-0.97 -0.21,-1.54 -0.21,-2.12 -0.02,-2.28 -0.03,-4.57 0,-6.85 0.02,-2.26 0.26,-2.49 2.45,-2.52 1.69,-0.02 3.38,0 5.26,0 0.07,-0.68 0.17,-1.23 0.19,-1.79 0.05,-1.89 0.07,-3.78 0.1,-5.67 0.01,-0.94 0.19,-1.79 0.94,-2.47 3.57,-3.25 7.12,-6.52 10.69,-9.77 0.13,-0.12 0.34,-0.17 0.6,-0.29 0.53,0.7 0.34,1.49 0.34,2.22 0.02,5.15 0,10.31 0,15.46 0,0.7 0,1.4 0,2.35 h 11.35 c 0.19,3.85 0.17,7.46 0.09,11.33 -3.77,0.32 -7.4,0.11 -11.23,0.26 -0.05,0.73 -0.15,1.42 -0.15,2.1 0,10.5 0,21.01 0.06,31.51 0,1.41 0.28,2.85 0.62,4.22 0.39,1.57 1.21,2.12 2.84,2.11 2.53,-0.02 5.08,0.01 7.65,-1.12 0.09,0.63 0.22,1.11 0.23,1.59 0.03,2.74 0.02,5.48 0.05,8.22 0,0.75 0,1.38 -0.9,1.71 -5.24,1.89 -10.51,2.58 -15.76,0.14 -3.44,-1.6 -5.7,-4.15 -6.47,-8.03 -0.6,-3.07 -1.06,-6.13 -1.05,-9.26 0.04,-10.37 0.04,-20.75 0.06,-31.12 0,-0.64 0,-1.29 0,-2.2 h -7.73 z"
       id="path16"
       style="fill:#ffffff" /></g></svg>
