<svg xmlns="http://www.w3.org/2000/svg" width="24" height="24"><path fill-rule="evenodd" d="M3.32 7.33 3 7.66v2.3l.38.37c.36.36.4.37 1.08.37s.71-.01 1.07-.38c.3-.3.37-.46.37-.75v-.38l-.42.03c-.39.03-.43.06-.48.33-.05.29-.07.3-.55.3h-.5l-.03-1c-.02-.6.01-1 .08-1.05.05-.03.3-.04.53 0 .37.04.42.08.47.35s.1.3.48.33l.42.03v-.43c0-.37-.06-.5-.33-.76C5.26 7.02 5.2 7 4.44 7c-.77 0-.81.01-1.12.33M6.7 8.85v1.85h.8v-.45c0-.43.02-.45.28-.45.2 0 .42.14.82.55l.54.55.28-.27.28-.27-.35-.36L9 9.64l.3-.29c.28-.27.3-.34.3-1 0-.67-.02-.73-.33-1.03L8.94 7H6.7zm4.32-1.02c-.8.81-.82.83-.82 1.33 0 .47.03.53.53 1.02s.56.52 1.03.52c.49 0 .5-.01 1.32-.83.8-.8.82-.84.82-1.3 0-.44-.04-.53-.51-1.03-.5-.52-.54-.54-1.03-.54-.51 0-.52 0-1.34.83m3.48 1.02v1.85h.4c.39 0 .39 0 .42-.42l.03-.43.7-.03c.63-.03.73-.06 1.02-.34.31-.3.33-.36.33-1.06 0-.73-.01-.76-.36-1.08L16.7 7h-2.2zm3.6 0v1.85h.9v-.9h.68c.64 0 .7-.02 1-.33S21 9.1 21 8.39s-.01-.76-.33-1.07L20.34 7H18.1zM7.5 8.4v.61l.58-.03.57-.03v-1.1l-.57-.03-.58-.03zm4.12.03a4 4 0 0 0-.62.73c0 .12.62.74.74.74s1.36-1.22 1.36-1.34c0-.16-.58-.76-.73-.76-.07 0-.4.28-.75.63m3.68.02v.65h.49c.6 0 .73-.14.7-.77l-.04-.48-.57-.03-.58-.03zm3.7 0v.65h.48c.58 0 .72-.12.72-.61 0-.63-.06-.69-.66-.69H19z"/></svg>