<svg xmlns="http://www.w3.org/2000/svg" width="24" height="24"><path fill="#FFF" fill-rule="evenodd" d="M11.35 3.66 6.73 5.35c-.08.03.3.68 1.02 1.8.64.96 1.18 1.81 1.2 1.88q.05.13-.3.24c-.38.12-.4.08-.25-.31.08-.22.03-.35-.28-.86-.2-.33-.4-.6-.43-.6-.08 0-.44.9-.58 1.45a4.9 4.9 0 0 0 1.5 4.79 5 5 0 0 0 4.09 1.4c0-.04-.12-.26-.27-.5-.23-.37-.33-.44-.6-.44-.54 0-1.56-.38-2.08-.78A5 5 0 0 1 8.5 11.9c0-.03.18-.1.39-.16l.39-.1.04.62c.06.9.1.94 1.38.94h1.08l.93 1.43.93 1.42.12-.75.25-1.43.1-.67h.69l-.3.28c-.22.2-.3.4-.35.8-.08.6-.05.61.8.06a5.13 5.13 0 0 0 1.02-7.7l-.44-.49-.15.8-.14.8.33.54c.42.7.44.93.05.81l-.53-.14-.26-.06.53-3.17.58-3.46c.03-.15.02-.27-.02-.26-.04 0-2.1.75-4.57 1.65m.18.77c-2 .72-3.63 1.35-3.63 1.4s.45.75 1 1.58l1.02 1.51.61-.06c1.4-.15 1.47-.17 1.62-.47.32-.6.09-1.45-.47-1.75-.5-.28-1.42-.1-1.67.34-.1.16-.12.15-.3-.07l-.35-.52-.16-.27 1.13-.4 2.47-.9a7 7 0 0 1 1.38-.42c.02.06-.49 3.1-.63 3.76-.02.11-.17.27-.32.34l-.28.13.4.08c.97.19.84.45 1.39-2.71.27-1.54.47-2.82.45-2.84s-1.67.55-3.66 1.27m.97 1.21c-.2.25-.08.6.22.64.36.04.53-.26.32-.56q-.28-.38-.54-.08m-1.6 5.62-.78.15-.52.1v.59c0 .93-.1.9 2.8.9s2.8.03 2.8-.9v-.58l-.52-.12c-.54-.12-3.32-.22-3.78-.14m.46.7c-.04.31-.04.6 0 .63.08.08.64.11.92.05.25-.05.3-.34.06-.34-.13 0-.13-.05.05-.33q.37-.6-.3-.5c-.3.05-.4.29-.16.35.11.02.1.1-.05.33l-.18.3v-.52c0-.38-.04-.53-.14-.53q-.13 0-.2.56m1.57-.49c-.25.05-.32.33-.08.33.11 0 .1.07-.06.35-.11.19-.18.39-.14.45.07.11.35.13.6.04.2-.08.2-.34 0-.34-.19 0-.19-.05.01-.35.15-.24.13-.57-.03-.54zm-2.46.1c-.04.03-.07.3-.07.6 0 .4.04.53.15.53q.13-.02.15-.19t.24-.25c.24-.06.39-.37.3-.62-.06-.14-.65-.2-.77-.07m3.3.26q-.36.87-.13.87c.07 0 .2-.07.27-.16.11-.14.13-.14.21 0 .05.09.16.16.24.16.12 0 .14-.07.1-.3l-.12-.6c-.08-.42-.4-.4-.57.03m-.97 1.43c0 .03.11.21.25.41.25.38.29.36.38-.2.04-.25.02-.27-.3-.27-.18 0-.33.02-.33.06"/></svg>