<?xml version="1.0" encoding="UTF-8" standalone="no"?>
<svg
   viewBox="0 0 24 24"
   width="24pt"
   height="24pt"
   version="1.1"
   sodipodi:docname="dagrasso.svg"
   xml:space="preserve"
   inkscape:version="1.4 (86a8ad7, 2024-10-11)"
   id="svg3"
   xmlns:inkscape="http://www.inkscape.org/namespaces/inkscape"
   xmlns:sodipodi="http://sodipodi.sourceforge.net/DTD/sodipodi-0.dtd"
   xmlns="http://www.w3.org/2000/svg"
   xmlns:svg="http://www.w3.org/2000/svg"><defs
     id="defs3" /><sodipodi:namedview
     pagecolor="#ffffff"
     bordercolor="#000000"
     borderopacity="0.25"
     inkscape:showpageshadow="2"
     inkscape:pageopacity="0.0"
     inkscape:pagecheckerboard="0"
     inkscape:deskcolor="#d1d1d1"
     inkscape:document-units="pt"
     showgrid="false"
     inkscape:zoom="35.532116"
     inkscape:cx="16.407692"
     inkscape:cy="17.772654"
     inkscape:window-width="2880"
     inkscape:window-height="1514"
     inkscape:window-x="-11"
     inkscape:window-y="-11"
     inkscape:window-maximized="1"
     inkscape:current-layer="svg3"
     id="namedview1" /><path
     d="M 5.933675,4.03074 5.8319,4.135965 5.9354,4.034265 c 0.05775,-0.05625 0.105225,-0.1035 0.105225,-0.10515 0,0 -0.018,0 -0.10695,0.101625 m 12.11175,0 c 0.05625,0.05625 0.1035,0.1017 0.10695,0.1017 0,0 -0.0405,-0.04575 -0.09645,-0.1017 -0.0555,-0.0555 -0.103425,-0.101625 -0.10695,-0.101625 0,0 0.0405,0.04575 0.09645,0.101625 m 2.508225,6.055725 c 0,0.1596 0,0.225375 0,0.147375 0,-0.07688 0,-0.20775 0,-0.28905 0,-0.081 0,-0.018 0,0.14205 M 8.644625,11.787915 c 0,0.0525 0,0.07515 0,0.051 0,-0.02475 0,-0.06825 0,-0.09645 0,-0.02775 0,0 0,0.04575 m -2.25735,0.374475 c 0,0.06525 0,0.08948 0,0.0555 0,-0.03375 0,-0.08767 0,-0.117525 0,-0.02925 0,0 0,0.0615 m -0.4533,3.9801 c 0.0555,0.05625 0.103425,0.101775 0.107025,0.101775 0,0 -0.0405,-0.04575 -0.09645,-0.101775 -0.05625,-0.0555 -0.1035,-0.1017 -0.10695,-0.1017 0,0 0.0405,0.04575 0.096375,0.1017 m 12.111225,0 -0.101625,0.105225 0.103425,-0.1017 c 0.09652,-0.09465 0.10875,-0.10695 0.1017,-0.10695 0,0 -0.04875,0.04725 -0.10515,0.103425 m -6.191325,2.503725 c 0.081,0 0.211125,0 0.288825,0 0.0768,0 0.018,0 -0.147375,0 -0.159525,0 -0.222225,0 -0.140175,0"
     stroke="none"
     fill="#FFFFFF"
     fill-rule="evenodd"
     style="fill:#000000;stroke-width:0.0106992"
     id="path2" /><g
     id="_1695873097120"
     style="clip-rule:evenodd;fill-rule:evenodd;image-rendering:optimizeQuality;shape-rendering:geometricPrecision;text-rendering:geometricPrecision;fill:#ffffff"
     transform="matrix(9.0517887e-4,0,0,9.0517887e-4,4.7772524,7.5040274)">
   <path
   class="fil0"
   d="m 16660.72,1501.98 c -38.78,-61.79 -106.76,-97.41 -177.27,-93.01 -62.66,1.62 -127.89,45.43 -176.06,95.21 -61.54,57.43 -130.64,121.88 -201.6,135.37 -13.91,3.08 -25,-4.56 -25.29,-17.27 -2.37,-282.62 -288.18,-625.07 -578.69,-605.59 -116.39,4.23 -216.3,79.81 -261.48,175.77 -22.92,49.21 -82.42,84.38 -136.61,88.03 -61.38,4.11 -119.84,37.66 -163.24,89.24 -117.92,142.22 -319.44,510.62 -439.91,730.66 -16.19,29.9 -31.35,57.43 -44.34,81.02 -16.45,29.73 -56.98,33.84 -79.81,8.64 -11.01,-12.01 -22.59,-24.3 -34.35,-36.75 -118.96,-125.99 -231.29,-244.96 -69.59,-460.14 148.24,-185.32 22.13,-471.84 -182.21,-541.44 -219.83,-59.29 -343.82,13.5 -583.92,360.98 -91.52,143.71 -187.15,308.07 -299.22,476.53 -113.7,170.79 -383.86,5.86 -276.43,-169.04 8.88,-14.54 19.06,-29.32 30.6,-44.68 148.41,-185.49 21.93,-472.01 -182.42,-541.44 -258.24,-76.78 -401.54,94.17 -583.92,361.09 -71.58,107.97 -475.62,701.4 -676.76,972.84 -68.1,84.21 -111.58,134.04 -161.08,115.86 -97.33,-55.23 161.53,-556.52 300.68,-826.05 60.05,-116.31 77.07,-223.41 49.21,-309.69 -59.26,-183.08 -286.31,-223.24 -413.92,-83.34 -22.13,21.96 -56.89,25.78 -82.34,8.05 -468.31,-302.63 -989.24,109 -1175.27,629.47 -0.21,0.46 -264.59,740.51 -530.6,760.15 -224.98,1.46 -144.34,-377.08 298.64,-898.13 158.88,-188.4 159.42,-363.47 18.98,-486.34 -64.65,-56.55 -278.5,-152.35 -421.31,60.21 -26.57,39.7 -50.99,72.21 -72.58,99.16 -87.7,109.3 -178.72,91.69 -219,-32.39 -15.24,-47.17 -30.69,-105.59 -46.88,-172.41 -60.59,-277.46 -381.82,-347.89 -568.52,-180.05 -106.51,101.24 -153.22,260.2 -121.66,414.58 59.46,323.32 411.42,448.43 684.32,328.42 22.05,-11.71 42.48,4.28 27.62,35.17 -190.15,409.73 -249.65,773.77 -152.65,999.96 70.76,173.57 200.48,234.53 253.13,252.67 317.58,104.15 595.34,-184.28 786.19,-439.33 14.08,-19.01 43.23,-15.53 53.03,6.02 24.12,53.78 53.85,102.99 88.94,147.21 93.6,118.51 216.01,188.56 344.78,197.49 165.23,10.84 309.23,-49.25 442.24,-177.27 20.84,-20.22 54.23,-15.94 69.59,8.64 26.58,42.94 61,76.2 102.69,99.33 354.66,197.78 628.77,-332.08 940.03,-766.71 142.56,-210.95 290.05,-429.24 434.52,-604.44 6.39,-7.88 16.57,-17.56 27.69,-18.14 3.33,-0.29 6.57,0.29 10.05,1.74 6.61,2.78 17.44,11.42 15.82,25.91 l -0.41,5.86 c -9.84,286.39 128.93,450.62 240.26,582.46 54.23,64.16 100.95,119.55 110.91,169.34 17.15,85.13 -19.06,134.5 -42.1,156.3 -34.14,32.39 -69.1,37.95 -82.6,38.82 -7.76,0.46 -14.9,-0.12 -20.63,-1.61 -62.54,-8.77 -97.59,-109.88 -137.87,-214.02 -99.45,-248.57 -430.48,-216.8 -539.19,11.58 -47.38,94.93 -44.14,205.09 9.18,310.57 220.16,405.19 774.84,405.19 1020,10.96 99.46,-153.64 127.19,-344.53 247.03,-514.45 207.96,-314.09 356.2,-525.91 453.24,-647.95 6.32,-7.6 16.41,-17.11 27.49,-17.85 13.25,0 26.66,8.92 25.91,27.69 l -0.37,5.86 c -9.72,286.52 128.85,450.58 240.18,582.42 54.23,64.16 101.15,119.55 111.12,169.34 25,125.28 -65.24,204.22 -145.55,193.67 -55.06,-14.2 -77.44,-59.46 -122.82,-175.94 -81.89,-279.79 -430.45,-275.97 -554.23,-26.66 -149.7,317.75 242.79,651.02 550.78,615.56 325.68,-22.13 494.43,-286.39 691.76,-557.09 17.4,-25.5 56.51,-18.61 64.19,11.25 61.38,231.33 211.03,370.77 373.52,423.51 264.13,71.79 496.46,-42.31 697.11,-268.67 134.83,-160.99 267.79,-404.86 324.76,-670.33 4.45,-20.22 16.49,-25.62 33.02,-24.58 183.87,10.38 390.53,-41.48 512.95,-146.08 88.24,-72.34 144.79,-196.7 72.54,-311.73 z m -986.7,416.2 c -63.04,382.9 -322.73,709.74 -555.06,612.03 -48.54,-22.71 -84.84,-83.38 -100.53,-166.43 -26.5,-142.09 -5.86,-381.44 144.46,-610.99 46.01,-70.34 146,-84.09 210.61,-30.64 67.23,55.68 163.65,120.71 281.62,159.24 23.21,7.48 20.14,22.26 18.9,36.79 z m -4949.94,837.47 c -113.48,67.69 -242.58,-10.55 -272.73,-141.51 -87.33,-221.79 174.32,-911.47 482.22,-927.41 75.29,-7.35 154.97,42.77 163.94,117.64 3.53,48.74 -28.61,106.46 -40.69,154.38 -36.54,113.24 -65.98,216.8 -90.15,316.54 -23.38,85.59 -29.86,167.31 -55.48,248.61 -29.65,79.56 -119.3,197.33 -187.11,231.75 z"
   id="path1"
   style="fill:#ffffff;fill-rule:nonzero" />
   <path
   class="fil0"
   d="m 8408.01,2082.87 c -199.78,-66.4 -439.29,45.1 -497.51,299.39 -111.45,560.33 -359.14,899.76 -661.48,925.09 -474.55,39.69 -672.45,-797.19 -302.55,-1652.85 15.74,-36.33 39.99,-41.44 71.26,-44.8 C 7706.33,1546.25 9179.99,940.53 8770.85,261.98 8678.92,113.32 8442.72,39.61 8217.33,59.25 7550.9,103.48 6849.51,654.88 6525.49,1261.06 c -10.42,19.76 -29.85,35 -70.59,23.87 C 5992.24,1168.17 5522.59,900.25 5159.75,544.55 5005.7,396.31 4876.64,325.14 4742.1,330.82 4578.91,345.48 4439.63,482.31 4476.38,694 c 79.27,436.5 1125.23,771.86 1600.98,856.07 42.07,7.93 84.38,15.24 126.73,21.84 83.38,13.04 134.04,98.12 107.34,178.1 -232.87,699.94 -158.04,1647.28 583.22,1933.26 292.66,113.07 570.38,27.94 783.27,-116.64 95.05,-64.58 220.79,9.38 206.42,123.49 -28.86,230 -35.63,451.95 -37.2,651.6 -1.75,234.95 53.56,407.4 164.89,512.71 130.1,116.31 261.81,113.82 351.3,85.25 258.28,-96.84 278.67,-395.94 136.82,-673.53 -305.87,-643.84 -191.43,-1093.14 92.44,-1609.08 127.77,-224.4 60.95,-485.01 -184.58,-574.2 z m -1237.27,-763.8 c -13.04,3.36 -23.58,-11.3 -15.9,-22.59 234.9,-348.35 620.21,-720.7 987.62,-805.95 119.92,-34.14 235.4,37.49 179.14,165.81 -197.74,334.27 -730.54,550.07 -1150.86,662.73 z"
   id="path2-9"
   style="fill:#ffffff;fill-rule:nonzero" />
   <path
   class="fil0"
   d="m 6013.16,2830.19 c -76.24,-55.06 -169.37,-14.95 -218.12,66.23 -95.84,148.08 -150.45,181.34 -179.52,183.25 -120.54,-20.35 93.81,-429.49 297.28,-850.67 59.75,-120.72 76.32,-224.69 49.04,-309.36 -31.02,-104.89 -137.95,-174.95 -242.96,-168.05 -46.92,4.11 -86.5,19.06 -122.5,43.97 -53.02,36.46 -144.13,35.88 -201.6,7.02 -381.44,-192.05 -799.55,92.14 -1024.66,481.81 -66.98,102.23 -147.37,224.98 -222.7,335.31 -10.25,15.24 -33.84,5.69 -30.72,-12.46 C 4242.56,1917.44 3867.18,1263.51 3179.49,930.81 2756.52,727.05 2220.98,633.87 1671.32,668.29 c -503.78,18.03 -1882.48,345.45 -1530.64,958.52 3.53,6.14 7.14,11.83 11.58,17.39 25.87,33.14 88.04,95.22 198.62,112.95 147.41,18.77 264.72,-24.17 420.97,-112.2 698.53,-416.16 1642.8,-598.41 2351.45,-243.33 357.45,183.7 563.74,476.53 596.5,847.02 26.37,297.06 -100.78,738.59 -441.9,1006.09 -204.34,164.36 -552.69,264.1 -866.62,260.03 -16.9,1.16 -29.19,-10.42 -16.98,-35.17 211.94,-482.85 413.17,-1103.35 471.18,-1454.36 51.45,-311.43 -86.21,-453.24 -232.33,-482.22 -87.99,-18.19 -184.29,2.32 -254.42,56.97 -57.26,44.22 -127.57,131.97 -137.86,299.27 -34.68,563.57 -140.65,1124.44 -283.57,1502.86 -5.74,17.1 -21.56,23.42 -39.41,16.69 -213.6,-63.74 -366.95,-157.5 -560.75,-67.69 -145.17,69.02 -224.56,284.2 -138.61,426.58 66.36,118.52 211.4,183.25 286.73,202.73 562.61,148.86 1195.62,104.18 1698.48,-164.77 301.34,-141.68 630.05,-435.1 836.92,-646.62 69.56,-71.05 192.64,-52.74 231.13,38.82 144.13,342.04 503.19,474.63 809.69,244.79 65.44,-49.08 151.77,-46.88 215.05,4.98 101.2,83.05 203.18,82.47 227.93,81.02 267.5,-16.86 442.82,-319.95 505.85,-449.59 58.55,-120.71 52.82,-207.87 -17.15,-258.86 z m -1050.82,305.58 c -112.32,51.69 -226.76,-26.79 -256.2,-150.16 -87.33,-221.78 174.32,-911.46 482.22,-927.41 77.98,-6.89 153.31,42.03 165.6,118.64 3.9,31.81 -15.45,71.63 -26.37,104.6 -37.08,111.78 -73.16,232.5 -99.9,340.46 -17.57,70.76 -31.56,134.33 -43.56,202.89 -7.15,40.86 -14.45,70.47 -31.02,101.19 -43.4,82.35 -117.02,177.56 -190.77,209.79 z"
   id="path3"
   style="fill:#ffffff;fill-rule:nonzero" />
   <path
   class="fil0"
   d="m 16432.21,2340.32 c -145.25,0 -260.73,113.36 -260.73,266.3 0,154.1 115.48,266.34 260.73,266.34 145.34,0 260.82,-112.24 260.82,-266.34 0,-152.94 -115.48,-266.3 -260.82,-266.3 z m 0,497.47 c -127.6,0 -219,-96.84 -219,-231.17 0,-133.17 91.4,-231.17 219,-231.17 127.61,0 219,98 219,231.17 0,134.33 -91.39,231.17 -219,231.17 z"
   id="path4"
   style="fill:#ffffff;fill-rule:nonzero" />
   <path
   class="fil0"
   d="m 16491.88,2608.49 v -1.04 c 34.22,-9.38 49.79,-33.26 49.79,-64.32 0,-44.68 -33.22,-74.7 -83.09,-74.7 h -122.41 v 268.66 h 45.71 v -112.08 h 53.86 c 35.34,0 51.99,17.74 53.03,50.83 2.08,32.22 4.15,58.18 11.46,61.25 h 44.47 v -2.04 c -7.1,-4.11 -7.1,-29.02 -11.38,-68.43 -2.03,-34.26 -14.53,-50.82 -41.44,-58.13 z m -43.64,-18.6 h -66.36 v -84.09 h 67.52 c 32.02,0 46.55,17.56 46.55,42.48 0,24.87 -15.53,41.61 -47.71,41.61 z"
   id="path5"
   style="fill:#ffffff;fill-rule:nonzero" />
  </g></svg>
