<svg xmlns="http://www.w3.org/2000/svg" width="24" height="24"><path fill="#FFF" fill-rule="evenodd" d="M3 8.95v5.85l4.13-.01c2.26-.01 3.87-.05 3.57-.09-2.11-.27-3.63-1.37-6.92-5l-.67-.74.34-.3c.18-.17.68-.76 1.11-1.31a12 12 0 0 1 2.3-2.45 7 7 0 0 1 3.74-1.7c.4-.04-.99-.08-3.47-.09L3 3.1zm9.08-5.74c1.38.18 2.92.88 4.37 2a57 57 0 0 1 2 1.7 42 42 0 0 0 2.45 2.04 19 19 0 0 0-1.86 1.56c-3.1 2.89-4.75 3.94-6.59 4.19-.36.04 1.23.08 3.98.09l4.57.01V3.1l-4.77.01c-3.01.01-4.54.05-4.15.1M6.2 8.8v2.71l2.18-.03 2.19-.03.36-.28c.61-.47.67-.67.67-2.4 0-1.43-.02-1.56-.23-1.87-.46-.7-.67-.75-3.04-.78L6.2 6.08zm7.52-2.59c-.7.12-1.09.33-1.32.72-.18.28-.2.51-.2 1.97 0 1.48.02 1.68.2 1.98q.32.54 1.29.68c.38.06.41.09.41.39 0 .18.1.44.2.59.19.23.29.26.8.26h.6v-1.17l.4-.07c.23-.04.6-.16.82-.27.6-.3.68-.6.68-2.41 0-1.68-.08-1.97-.66-2.34-.57-.38-2.03-.53-3.22-.33M8.2 8.8v1.9h.6c.86 0 .9-.08.9-1.92C9.7 7 9.65 6.9 8.75 6.9H8.2zm6.3-1.83c-.35.13-.4.35-.4 1.9 0 1.4.02 1.55.2 1.73.24.24.77.26 1.08.04.21-.15.22-.21.22-1.75 0-1.46-.02-1.6-.2-1.79-.2-.2-.58-.25-.9-.13"/></svg>