<svg xmlns="http://www.w3.org/2000/svg" width="24" height="24"><path fill="#FFF" fill-rule="evenodd" d="M6.98 3.66c-.03 1.15-.05 1.27-.21 1.3l-.24.08c-.09.08.17.36.33.36.12 0 .14.6.14 3.5v3.49l.43.03c.35.02.43.07.45.26l.03.22 4.77-.02 4.77-.03.03-4.73c.02-4.63.02-4.74-.17-4.79-.15-.04-.2-.15-.23-.47l-.03-.41-5.02-.03L7 2.4zm.34.21.03 1.08 2 .02c1.6.01 2 .04 1.97.15l-.1.2c-.16.16-1.8.3-2.85.24L7.3 5.5v6.6h9.4v-1.59l-.52-.29c-.3-.16-.74-.46-1-.66-.27-.2-.54-.36-.61-.36-.44 0-2.96 1.44-3.88 2.22l-.46.39-.9-.03-.88-.03.66-.37c.46-.26.8-.57 1.18-1.03.6-.75 1.72-1.68 2.64-2.19a9 9 0 0 1 2.25-.86c.1 0 .27.15.4.33.12.17.42.55.67.82l.44.5V7.68q0-1.26-.1-1.28c-.15 0-.69.29-1.04.55-.2.14-.57.27-1.01.34a6 6 0 0 0-2.02.66c-.25.14-.46.25-.49.25-.09 0 .2-.43.67-1 .28-.32.5-.6.5-.63 0-.02-.74-.06-1.65-.1-1.28-.03-1.7-.08-1.83-.2a4 4 0 0 0-.52-.33l-.35-.19 1.4-.07c1.76-.08 3.29-.44 3.61-.84.18-.22.24-.24.41-.14.15.1.27.1.49.02.29-.1.28-.1-.13-.11s-.55-.12-.32-.27q.11-.06-.01-.14c-.1-.06-.08-.17.09-.45.11-.2.19-.4.16-.46-.1-.14.72-.1 1.1.05q.68.29.03.89c-.18.17-.25.28-.15.24.3-.11.19.09-.2.36l-.38.27h1.75V2.8H7.3zm5.28-.8c-.3.08-.75.14-.99.13s-.66.06-.95.15c-.48.16-.68.26-1.61.8-.22.12-.66.3-.97.4-.62.19-.79.37-.25.28A6 6 0 0 0 10 4a5 5 0 0 1 1.75-.7c.2 0-1.52.9-2.05 1.06q-.58.17-.33.2c.43.08 1.46-.28 2.4-.81.52-.3 1.12-.58 1.34-.61s.39-.1.39-.16c0-.13-.26-.1-.9.08m1.48 2c-.15.04-.28.28-.44.82-.06.22 0 .2.44-.2.36-.32.47-.47.4-.57-.1-.12-.12-.13-.4-.05M3 14.55v1.05h.38c.55 0 .62-.12.62-1.05s-.07-1.05-.62-1.05H3zm1.34-.92c-.02.07-.04.54-.02 1.03l.03.89h.5c.38 0 .5-.04.5-.15q-.02-.14-.27-.18c-.22-.03-.28-.09-.28-.28s.05-.24.26-.24q.28.01.22-.17-.04-.17-.26-.17-.23.02-.22-.22-.02-.23.28-.26.26-.04.27-.18c0-.2-.93-.27-1-.07m1.25.92v1.05h.38c.57 0 .7-.2.7-1.08 0-.86-.12-1.02-.69-1.02H5.6zm1.52-.93c-.19.19-.16 1.63.04 1.82s.58.2.78 0c.19-.18.23-1.43.06-1.75-.12-.22-.68-.27-.88-.07m1.28.92c0 1 .01 1.06.2 1.06.2 0 .25-.13.2-.52-.02-.29.09-.2.24.17.08.2.22.35.3.35.14 0 .16-.17.16-1.05 0-.98-.01-1.05-.2-1.05-.16 0-.2.07-.2.38l-.01.37-.12-.35q-.12-.35-.35-.38c-.22-.03-.22-.02-.22 1.02m1.6-.13c-.25 1.12-.25 1.19 0 1.19q.2 0 .2-.2.01-.19.16-.2.15.02.21.2c.06.22.43.28.43.08a20 20 0 0 1-.3-1.4c-.09-.46-.15-.58-.3-.58s-.22.17-.4.9m1.2.15c0 .98.01 1.05.2 1.05s.2-.07.2-1.05-.01-1.05-.2-1.05-.2.07-.2 1.05m.7 0c0 .98.01 1.05.2 1.05.17 0 .2-.07.2-.4 0-.5.14-.52.26-.02q.09.39.31.4c.27.04.28-.06.08-.55q-.15-.37-.05-.47c.14-.14.13-.8-.02-.94-.07-.07-.31-.12-.55-.12h-.43zm1.52-.93c-.3.3-.07.94.41 1.11q.17.07.15.24c-.04.22-.28.3-.28.09q-.01-.15-.2-.16-.2 0-.2.23 0 .48.57.47.54.02.53-.7c0-.24-.07-.35-.35-.51-.2-.12-.35-.27-.35-.35 0-.19.2-.18.26.01.08.2.44.2.44 0 0-.34-.2-.55-.53-.55-.18 0-.38.05-.45.12m1.88.93c0 .98.01 1.05.2 1.05.17 0 .2-.07.2-.4 0-.32.04-.4.18-.4q.43.01.42-.65c0-.5-.13-.65-.62-.65h-.38zm1.3 0c0 .98.01 1.05.2 1.05s.2-.07.2-1.05-.01-1.05-.2-1.05-.2.07-.2 1.05m.8-.85q0 .2.2.2c.25 0 .25-.04-.05.76-.35.92-.34.94.25.94.43 0 .5-.03.5-.2q.01-.21-.26-.2c-.2 0-.25-.03-.19-.17.2-.48.45-1.28.45-1.4q0-.13-.45-.13c-.38 0-.45.03-.45.2m1.22-.02c.02.1.13.18.24.2l.21.03-.23.65c-.36.98-.34 1.06.23 1.02.35-.02.48-.07.48-.18q-.01-.14-.26-.18l-.26-.03.28-.78c.15-.44.25-.82.22-.85a1 1 0 0 0-.5-.06c-.37 0-.44.03-.41.18m1.48.4-.2.92c-.14.5-.12.6.1.6q.2 0 .2-.2t.2-.2.2.2.2.2c.22 0 .24-.1.1-.6l-.2-.92c-.09-.46-.15-.58-.3-.58s-.21.12-.3.58m-16.7.47c0 .37.04.65.1.65s.1-.28.1-.65-.04-.65-.1-.65-.1.28-.1.65m4 0c0 .49.03.66.13.63q.12-.05.12-.63t-.12-.62c-.1-.04-.13.13-.13.62"/></svg>