<svg xmlns="http://www.w3.org/2000/svg" width="24" height="24"><path fill="#FFF" fill-rule="evenodd" d="M3 8.95v1.35h.7c.77 0 1.18-.15 1.44-.52.16-.22.16-.22.16.15v.37h1.6v-.35c0-.34-.01-.35-.4-.35q-.42 0-.4-.15-.01-.15.35-.15c.33 0 .35-.02.35-.35s-.02-.35-.35-.35q-.36 0-.35-.15-.02-.15.4-.15c.4 0 .4 0 .4-.35V7.6H5.3v.37c0 .36 0 .37-.15.17-.24-.35-.77-.54-1.49-.54H3zm4.7-1.17q-.76.38-.75 1.23c0 .43.04.53.36.85q.7.7 1.59.25c.54-.28 1.1-.29 1.1-.01 0 .16.07.2.35.2h.35V7.6h-.38c-.36 0-.4.03-1.01.94-.63.94-.76 1.06-1.11 1.06-.2 0-.6-.44-.6-.67 0-.22.47-.63.72-.63.13 0 .35.06.5.14.25.13.28.13.43-.1.2-.3.13-.42-.3-.6a1.4 1.4 0 0 0-1.24.04m3.1.15q.03.34.27.35c.21.03.22.07.22 1.03v.99h.69l.03-1.02.03-1.01.28-.01.27-.02v2.06h.69l.03-.53.03-.52.38-.03.37-.03v1.11h.7V7.6h-.7v1h-.8v-1h-2.51zm4.08 1.02v1.35h.8c.64 0 .8-.03.8-.15 0-.18.01-.18.36 0a1.3 1.3 0 0 0 1.6-.31l.24-.27v.37c0 .34.01.36.35.36h.34l.03-.62.03-.63.45.62c.4.54.5.63.78.63H21V7.6h-.7v1.24l-.46-.62c-.4-.55-.5-.62-.8-.62-.32 0-.34.02-.34.36v.36l-.35-.3c-.64-.56-1.29-.55-1.86.04-.31.32-.34.4-.34.95 0 .58 0 .59-.27.59h-.28v-2h-.7zm-11.1 0v.71l.31-.02c.39-.03.49-.17.49-.7 0-.45-.1-.59-.52-.66l-.28-.05zM17 8.5c-.41.41-.13 1.1.44 1.1.4 0 .66-.26.66-.68 0-.55-.7-.82-1.1-.42"/></svg>