<svg xmlns="http://www.w3.org/2000/svg" width="24" height="24"><path fill="#FFF" fill-rule="evenodd" d="M6.95 3.52a6 6 0 0 0-.03 1.09l.03.94.53.03c.63.04.97-.14 1.17-.61.12-.28.14-.29.15-.09 0 .3.43.72.73.72.37 0 .79-.37.72-.63q-.07-.21.14.1c.53.84 1.44.65 1.49-.32.03-.84-.65-1.22-1.26-.7l-.3.26-.26-.26q-.52-.51-1.07.06c-.28.3-.29.3-.3.08a1 1 0 0 0-.18-.48c-.16-.21-.3-.26-.85-.3-.5-.02-.67 0-.71.11m7.92-.05c-.04.03-.07.14-.07.24 0 .15-.06.17-.28.13-.32-.06-.72.25-.72.57q0 .17-.1.14c-.05-.03-.1-.15-.1-.25 0-.46-.93-.67-1.3-.3-.18.18-.2.31-.18 1.13.03.79.06.92.2.95q.19.05.3-.28t.28-.25c.22.07.7-.3.7-.56 0-.1.04-.19.1-.19q.1.02.1.2c0 .28.4.6.75.6.18 0 .4-.1.55-.23l.25-.24.22.24c.28.29.71.3 1.07.02.22-.18.26-.28.26-.74 0-.44-.04-.57-.22-.7-.3-.2-.7-.2-.98.03-.3.25-.18.46.22.38q.28-.05.23.04-.07.1-.22.1a.6.6 0 0 0-.35.17c-.17.15-.18.14-.18-.43q0-.85-.35-.84a.3.3 0 0 0-.18.07m2.2 0c-.04.03-.07.48-.07.98 0 .97.11 1.24.45 1.11.13-.05.15-.23.13-1.08-.03-.95-.05-1.03-.23-1.06q-.2-.03-.28.04m.95.54c-.17.16-.22.32-.22.7 0 .4.04.52.26.7.55.43 1.12.14 1.2-.6.04-.39.01-.5-.2-.73-.3-.33-.73-.35-1.04-.07M7.5 4.46c0 .54 0 .55.28.52.23-.03.27-.08.3-.41q.06-.66-.4-.67c-.15 0-.18.08-.18.56m5.27-.1c-.04.04-.07.2-.07.36q-.02.33.18.26.17-.03.17-.32c0-.29-.14-.43-.28-.3m1.57.18c-.1.24.04.48.23.44.24-.04.24-.52 0-.56q-.17-.01-.23.12m-2.77 1.72c-.13.14-.07.54.08.54q.13 0 .15.1-.02.08-.15.04-.15-.05-.15.1c0 .26.85.2.98-.08l.1-.21.01.22c0 .2.06.22.46.2q.45-.02.45.1.01.12.14.13.13-.01.19-.12.03-.15.27 0c.18.11.24.11.3.01.05-.07.26-.12.53-.1.36 0 .46-.03.5-.16q.05-.24.06 0 0 .2.16.13.14-.04.15.08c0 .18.35.27.5.13.05-.06.1-.28.1-.48V6.5h-.6c-.47 0-.65-.03-.74-.17-.12-.16-.14-.16-.22-.01-.13.23-2.2.29-2.38.07-.12-.16-.77-.25-.9-.14m5.3 0c-.09.1-.08.94.02.94q.08-.02.25-.2c.17-.2.38-.27.36-.12-.05.27.03.33.42.3q.43-.01.47-.2c.06-.23.18-.23.24 0q.05.2.36.2c.3 0 .3 0 .25-.31a1 1 0 0 0-.27-.49c-.18-.15-.23-.15-.32-.03-.15.2-1.07.2-1.24 0-.13-.16-.42-.2-.53-.08m-9.4 8.2c2.5.02 6.57.02 9.06 0 2.48-.01.45-.02-4.53-.02s-7.01.01-4.52.03"/></svg>