<svg xmlns="http://www.w3.org/2000/svg" width="24" height="24"><path fill="#FFF" fill-rule="evenodd" d="M12.6 4.37c-.93.07-2.53.35-3.36.6A10 10 0 0 0 4.38 7.8l-.83.9v.82q-.03.83-.23 1.5c-.32 1.02-.38 1.7-.17 1.9.19.2.46.22.62.06.08-.08.24-.06.58.05.38.13.55.14.88.05.23-.06.47-.15.53-.2q.12-.09.5.07c1.61.68 4.1.9 6.34.59 4.25-.6 7.45-2.59 7.93-4.91.07-.32.2-.7.3-.84a1 1 0 0 0 .17-.47c0-.24-.33-.48-.54-.4-.07.03-.32-.17-.56-.45-.99-1.15-2.64-1.82-5.1-2.07-1-.1-1.26-.11-2.2-.04m1.54 1.78c-.95.28-2.38 1.23-2.27 1.5.04.12.13.08.44-.16.21-.17.39-.27.39-.23s-.1.34-.22.66c-.18.5-.29.64-.7.91-.27.18-.48.4-.48.5 0 .21.13.22.3.01.08-.08.2-.2.3-.24.15-.08.17.01.13 1.13-.04 1-.02 1.26.1 1.42.15.19.17.19.33.03.14-.14.15-.22.05-.49a7 7 0 0 1-.05-2.17c.05-.24.16-.35.52-.52.25-.12.64-.25.86-.29q.4-.06.44-.24.06-.36-1 .07c-.32.13-.58.2-.58.15s.13-.39.3-.74c.25-.57.35-.68.72-.85.24-.1.54-.2.68-.19q.22 0 .13.06c-.13.05-.19.33-.07.33.2 0 .44-.24.44-.44q.01-.45-.76-.21m5.14 1.15c-.09.06-.3.34-.46.63s-.37.59-.46.66c-.14.12-.16.1-.16-.13 0-.31-.16-.66-.3-.66-.06 0-.28.16-.5.36-.4.37-.47.35-.3-.1.05-.14.06-.26.02-.26q-.25 0-.7.81c-.39.69-.58.87-.74.7-.1-.08-.1-.2 0-.44q.26-.73-.04-.63a.3.3 0 0 1-.3-.05c-.22-.18-.42-.03-.46.33-.02.25-.08.34-.26.36q-.24.05-.22-.17c0-.43-.67-.15-.95.4-.08.15-.15.4-.15.54 0 .28.32.65.56.65s.74-.56.74-.83q0-.24.25-.35.23-.11.25-.22.01-.09.08-.1c.05 0 .07.14.04.3-.09.6.53.82.98.35.2-.22.24-.23.35-.08.1.14.18.08.59-.46.26-.33.51-.61.57-.61s.09.13.09.29c0 .55.5.62.87.12.1-.14.13-.14.26.03.3.41 1.07.08 1.07-.48 0-.12.16-.34.38-.53q.38-.33.26-.42-.1-.13-.29.09c-.24.27-.55.27-.48 0q.07-.22-.18-.2a1 1 0 0 0-.4.1m-9.86.38c-.3.2-.63 1.4-.63 2.34 0 .43-.55 1.23-.85 1.23s-.27-.19.05-.37c.55-.31.66-.98.17-.98-.6 0-1.12 1.41-.64 1.72.35.22.92-.09 1.24-.67.11-.19.12-.19.33.08.26.32.48.34.83.07.37-.29.92-1.29.8-1.42q-.12-.11-.38.33c-.32.51-.65.89-.77.89-.05 0-.16-.16-.24-.36-.14-.33-.13-.4.12-1.02.32-.8.44-1.76.22-1.85a.4.4 0 0 0-.25.01m9.81.16c-.13.54.22.9.46.47.09-.17.07-.26-.07-.46-.23-.3-.31-.31-.39 0m-13.43.21c-.37.19-.67.45-1 .87l-.46.6-.05-.4q-.04-.38-.22-.41c-.15-.03-.16.04-.11.66.05.56.02.8-.16 1.27a6 6 0 0 0-.44 2.02q.14.3.35-.12l.11-.25.24.22c.36.34 1.16.32 1.7-.04 1.02-.67 1.76-2.65 1.44-3.84-.2-.77-.64-.95-1.4-.58m-.5.81c-.31.32-.66.78-.78 1.03-.2.42-.57 1.88-.45 1.75q.06-.03.18.25c.3.68 1.15.6 1.83-.16.54-.61.84-1.41.85-2.25 0-.87-.19-1.19-.71-1.19-.32 0-.45.08-.93.57m8.51.16c-.15.15-.14.62.03.76q.13.14.3-.04c.2-.21.2-.32-.03-.6-.13-.18-.2-.21-.3-.12"/></svg>