<svg xmlns="http://www.w3.org/2000/svg" width="24" height="24"><path fill="#FFF" fill-rule="evenodd" d="M7.45 5.33c-2.42.6-4.41 1.1-4.43 1.12-.04.04 1.2 5.3 1.26 5.36.04.04 1.15.32 2.47.63l3.86.92 1.45.35 3.84-.96c2.12-.53 3.86-.98 3.88-1S21 6.6 21 6.5c0-.07-8.9-2.3-9.07-2.28-.05 0-2.06.5-4.48 1.12m.5.53-4 .98q-.12.05.35 2.23l.47 2.18 3.63.85 3.64.86 3.55-.84c1.96-.46 3.6-.88 3.64-.92.1-.08 1.02-4.3.96-4.34-.07-.06-8.05-1.96-8.2-1.95-.07 0-1.9.43-4.04.95m9.17.9q-.39.27-.07.58.16.16.1.43l-.07.28.31-.33q.3-.32.31-.62c0-.38-.28-.55-.58-.34m-11.57.29-.39.1c-.26.05-.27.07-.13.23.18.2.61 2.72.52 3.02-.05.16-.02.2.17.2a3 3 0 0 0 1.73-.6c.28-.29.3-.35.3-1.08 0-.63-.05-.86-.25-1.22a2 2 0 0 0-.5-.57 4 4 0 0 0-1.45-.08m5.6.1q-.14.15-.15.06c0-.06-.2-.11-.46-.11-.38 0-.45.03-.4.18.03.1.06.75.08 1.45l.03 1.28.4-.03.38-.03.01-.95c.01-1.27.2-1.35.24-.1.02.52.07.99.12 1.04.1.1.83-.02.76-.13a7 7 0 0 1-.07-1.06c-.02-1.06-.1-1.54-.31-1.67a.5.5 0 0 0-.62.08m2.36 0c-.12.08-.22.1-.22.05s-.2-.11-.46-.11q-.47 0-.38.12c.08.13.06 2.2-.03 2.56-.05.2-.02.22.35.22.4 0 .4 0 .46-.42.04-.24.07-.7.09-1.03.04-1 .22-.64.22.43v.97l.44.03c.37.03.43 0 .37-.13-.03-.1-.06-.7-.06-1.35 0-.94-.03-1.22-.16-1.34-.2-.2-.34-.2-.62 0M8.4 7.3c-.27.27-.33.6-.28 1.44.05.8.24 1.18.67 1.35.51.22 1.11-.26 1.11-.88 0-.3-.55-.3-.63-.01s-.26.25-.38-.07c-.12-.33 0-.43.58-.43.4 0 .43-.02.43-.3 0-1-.92-1.68-1.5-1.1m6.08.08c.05.1.2.72.32 1.4.22 1.17.22 1.26.06 1.58-.09.2-.16.37-.16.4s.2.04.46.02l.46-.03.54-1.5c.3-.82.58-1.57.63-1.66q.17-.3-.65-.29c-.27 0-.3.03-.27.23.02.12-.05.51-.15.87l-.2.65-.07-.57a5 5 0 0 1-.03-.88c.05-.34-.05-.4-.63-.4-.35 0-.39.02-.3.17m3.51.2c-.32.12-.6.47-.6.76 0 .16.13.51.3.78.23.38.26.5.16.58s-.2.06-.4-.1c-.15-.12-.29-.2-.3-.18-.03.02-.07.2-.11.4-.06.35-.05.39.24.53q.71.37 1.23-.14c.26-.27.3-.36.25-.7a2 2 0 0 0-.3-.73 2 2 0 0 1-.27-.45c0-.17.35-.15.5.03.17.2.3.1.3-.26 0-.25-.06-.33-.35-.45-.37-.15-.42-.16-.65-.07m-11.9.2c0 .2.3 1.75.36 1.84.1.17.44-.21.44-.5 0-.39-.2-1.04-.38-1.23-.15-.18-.42-.24-.42-.1"/></svg>