<svg xmlns="http://www.w3.org/2000/svg" width="24" height="24"><path fill="#FFF" fill-rule="evenodd" d="M3 9v2h18V7H3zm1.5-1.81q-1.23.28-1.37 1.19-.1.85.5.8c.29-.03.32-.06.3-.33-.03-.58.06-.76.5-.95a3 3 0 0 1 2.03-.01c.75.34 1.04.98.68 1.5-.34.48-1.37.67-1.83.35-.2-.15-.22-.22-.16-.58.12-.78.12-.8-.17-.84q-.57-.04-.58.95c0 .44.05.58.29.85.26.3.35.33 1 .36.88.05 1.43-.13 1.92-.64.3-.32.34-.4.34-.92 0-.73-.26-1.11-1-1.47a4.6 4.6 0 0 0-2.45-.26m6.9.3a.8.8 0 0 0-.3.68c0 .5.2.78.81 1.09.61.3.8.65.54.94-.18.2-.6.26-.83.12q-.12-.1-.1-.52c.02-.36 0-.45-.15-.48q-.46-.08-.47.63c0 .36.05.48.3.7.5.41 1.47.31 1.82-.2.04-.05.08-.27.08-.47 0-.29-.06-.41-.3-.6l-.3-.24.3-.22c.35-.26.5-.83.29-1.09-.11-.13-.11-.17-.01-.2q.1-.06.12-.24c0-.17-.08-.19-.76-.19-.7 0-.78.02-1.05.3m2.5-.02c-.26.23-.31.35-.3.71 0 .51.23.8.88 1.12.56.27.7.52.48.85-.33.51-1.26.17-.94-.34.24-.38-.18-.71-.49-.4-.13.13-.16.75-.06 1.03.1.25.58.45 1.08.45.95 0 1.44-.94.79-1.5l-.3-.25.27-.26c.35-.31.48-.74.3-1.03q-.15-.2-.01-.24.1-.05.11-.23c0-.17-.08-.19-.75-.19-.68 0-.78.03-1.06.28m3.5.05q-.52.34-.35 1.01.12.5 1.72.67c1.1.12 1.44.22 1.44.44 0 .25-.5.37-1.32.32a2.5 2.5 0 0 1-1.26-.33q-.8-.45-.82.05c0 .53.88.86 2.3.86 1.28 0 1.8-.28 1.8-.98 0-.5-.47-.72-1.88-.9a9 9 0 0 1-1.21-.22c-.18-.1-.12-.44.1-.56.34-.18 1.3-.07 1.66.19.49.34.86.25.64-.17-.32-.6-2.14-.84-2.82-.38m-1.29.07c-.09.16-.08.25 0 .36.28.33.76.02.53-.35-.15-.24-.4-.25-.53-.01m-6.14-.01a2 2 0 0 1-.56.27c-.28.1-.65.3-.83.45-.29.24-.32.32-.32.82 0 .45.05.6.24.81.67.71 1.97.44 2.22-.46.13-.5-.01-1.12-.27-1.22q-.2-.06-.04-.2c.16-.2.03-.56-.2-.56-.1 0-.21.04-.24.09m1.87.16c-.25.18-.31.63-.11.83.17.17.64.15.82-.04q.16-.16.13-.52c-.04-.32-.08-.37-.33-.4a1 1 0 0 0-.51.13m2.39.1c-.3.39-.1.85.38.85.38 0 .61-.29.57-.7-.04-.32-.07-.35-.4-.38-.28-.02-.39.02-.55.23m-4.77.64c-.51.23-.67.43-.63.78.07.58.9.7 1.24.17.15-.22.15-.3.04-.65a2 2 0 0 0-.2-.44c-.03-.02-.24.04-.45.14M16 8.45c-.2.23-.24 1.04-.08 1.5.1.3.2.4.37.43.3.05.42-.14.29-.47a4 4 0 0 1-.12-.9c0-.52-.04-.66-.17-.69a.4.4 0 0 0-.29.13"/></svg>