<svg xmlns="http://www.w3.org/2000/svg" width="24" height="24"><path fill="#FFF" fill-rule="evenodd" d="M12.43 4.3c-1.09.11-2.38.38-2.88.6-1.06.46-.75 1.02.77 1.4.43.11.46.14.37.32-.06.11-.33.34-.6.5q-.89.57-.11.43c.53-.1 1.23-.42 1.53-.7l.26-.26 1.6.11c3.16.22 6.96-.26 7.54-.96.36-.44-.32-.9-1.73-1.19-1.66-.33-4.7-.44-6.75-.24m0 .19c-1.68.18-2.95.51-3.23.86-.13.14-.12.19.07.34.12.1.53.25.9.35l.8.2q.25.08-.3.68c-.15.15-.24.27-.22.27.16 0 .59-.24.89-.5l.35-.32 1.63.12c3.42.23 7.33-.3 7.46-1.03.05-.26-.71-.56-1.98-.79a37 37 0 0 0-6.37-.18m-6.13.85c-.37.31-.48.35-1 .35-.74 0-.9.14-.9.81 0 .58.14.58.24 0l.06-.41h.56c.59 0 .81-.08 1.27-.47.34-.27.4-.24.66.26l.2.37-.5.17c-.44.16-.85.44-.76.53.02.02.27-.05.55-.16q.92-.34.92-.06c0 .08-.28.23-.67.36-1.29.43-3.63 1.7-3.88 2.1q-.26.41.82-.23c1.02-.6 2.32-1.2 3.18-1.47S9.02 7 9.41 7c.32 0 .5-.24.31-.42-.08-.08-.34-.06-.9.04l-.8.14-.24-.5C7.48 5.6 7.03 5 6.86 5c-.08 0-.33.16-.56.35m4.18-.24c-.1.05-.18.17-.18.25q0 .13-.1.1-.08-.08-.03-.21.05-.15-.1-.15-.17-.01-.15.35c.01.4.15.55.24.3.06-.14.08-.14.26.02.15.13.23.15.36.07.21-.14.27-.5.12-.7-.14-.16-.2-.17-.42-.03m.62.34q-.01.75.4.23l.2-.23v.23q0 .2.15.22.15 0 .15-.3c0-.16.05-.3.1-.3s.1.14.1.3q0 .31.13.27c.06-.02.1-.14.09-.27-.02-.12.02-.26.08-.3.22-.13 0-.3-.34-.27-.17.02-.36.06-.42.1-.05.03-.16.02-.24-.04-.3-.18-.4-.1-.4.36m1.69-.06c-.13.43-.07.63.13.43q.12-.13.25 0 .3.25.16-.39c-.12-.54-.38-.56-.54-.04m1.98-.22q-.16.16-.17.05t-.15-.12q-.28 0 0 .33c.07.1.11.25.08.33-.12.32.2.11.33-.22.18-.44.15-.6-.09-.37m.63.28q-.01.75.4.23c.24-.28.24-.33.04-.52q-.44-.45-.44.29m.82-.27c-.15.27-.23.72-.14.72.04 0 .14-.06.21-.12q.14-.15.18 0c.07.2.35.15.3-.05-.04-.1-.09-.3-.13-.46-.07-.3-.29-.36-.42-.1m.68.26v.44h1.07l-.02-.35c0-.38-.27-.61-.48-.43q-.13.09-.27 0c-.26-.15-.3-.1-.3.34m1.5.02c0 .38.03.45.2.45q.18-.01.2-.1.01-.09.2.02c.15.1.22.1.32 0q.15-.14.01-.2c-.06-.04-.13-.18-.14-.32-.05-.32-.23-.29-.27.05-.05.36-.32.32-.32-.05 0-.16-.04-.3-.1-.3-.05 0-.1.2-.1.45m1.2-.05q-.17.69.12.42.12-.13.25 0 .3.25.16-.39c-.13-.54-.39-.56-.53-.03m-6-.22c-.06.45-.04.62.07.66.17.07.22-.04.2-.42q0-.31-.14-.32-.11 0-.14.08M13.45 7c-.04.06 0 .16.08.22.13.1.13.2-.01.9-.15.71-.15.78 0 .94.2.19.76.2 1.1.02 1.02-.52.9-1.33-.3-1.93-.56-.28-.77-.32-.87-.15m.55.75c-.06.14-.1.45-.1.7 0 .4.02.44.25.44.29 0 .75-.4.75-.65 0-.19-.53-.75-.7-.75-.06 0-.15.12-.2.26m1.83-.01c-.31.22-.55.89-.43 1.2.08.2.16.26.37.23.54-.06.94-1.06.57-1.42-.2-.2-.24-.2-.5-.01m.83.03a3 3 0 0 0-.08.71q-.08 1.3.6.19c.12-.21.26-.38.3-.38s.06.2.06.42c0 .36.03.43.2.43s.2-.06.17-.65c-.02-.36-.08-.7-.13-.74q-.1-.08-.44.24l-.35.34v-.32c0-.3-.2-.45-.33-.24m-8.35.2a.2.2 0 0 0-.07.23c.07.19-.65 2.3-1.07 3.13q-.98 1.92-1.85 1.84c-.22-.02-.34-.14-.56-.55-.25-.48-.47-.68-.47-.44 0 .2.31.94.5 1.22.25.34.56.37 1.15.1.9-.4 1.88-1.94 2.6-4.06.36-1.03.44-1.18.7-1.3Q9.33 8.1 9.2 8c-.18-.13-.7-.14-.88-.03m3.43.04c-.02.07-.1.52-.16 1-.12.85-.12.86-.36.75-.17-.08-.3-.07-.48.03-.57.3-1.05 1.49-.75 1.85.1.13.16.13.48 0 .2-.1.47-.25.59-.37l.22-.2.1.4c.12.44.21.5.4.28.09-.1.09-.2 0-.4-.1-.2-.08-.48.06-1.33.1-.59.23-1.27.3-1.52.08-.24.12-.48.09-.53-.08-.13-.44-.1-.49.04m6.92-.05c-.02.04-.1.49-.17.98-.07.5-.14.91-.16.93q-.04.02-.22-.1c-.3-.17-.68.05-1.04.61-.3.47-.37 1.08-.17 1.28.14.14.5.02.95-.32l.31-.24.12.4c.13.42.22.47.4.25q.14-.14.02-.35c-.16-.3-.14-.63.15-1.96l.27-1.35c.02-.16-.38-.27-.46-.13m-2.86.35q-.12.32 0 .42c.13.14.29-.1.29-.46 0-.38-.16-.35-.3.04m-8.94.7c-.14.2-.14.24-.02.37.28.27.71-.14.46-.44-.17-.2-.26-.19-.44.07m5.44.09c-.1.17-.09.24.04.37.15.15.17.15.33-.01.13-.13.15-.21.07-.34q-.24-.38-.44-.02m8.04.04a.5.5 0 0 0 0 .31q.06.2.21.04.16-.15.15 0t.17-.02c.13-.14.14-.2.03-.33-.16-.2-.49-.2-.56 0m-14.82.27c-.16.16-.15.45.02.51.18.07.39-.17.34-.4-.04-.21-.2-.27-.36-.11m3.38.3q-.48.5-.56 1.21-.11.85.44.87c.31 0 .9-.33.99-.55.1-.26-.06-.3-.3-.07a1 1 0 0 1-.45.22c-.19 0-.22-.06-.22-.37 0-.36.02-.39.48-.53.42-.13.47-.18.5-.48.03-.27-.01-.34-.23-.42-.37-.14-.41-.13-.65.13m4.6.23c-.16.2-.36.55-.42.79q-.12.44-.32.49c-.33.09-.4-.09-.28-.65.17-.72.16-.8-.1-.77-.21.03-.24.1-.32.87-.07.7-.06.86.07.99.15.14.2.13.55-.1l.38-.26.1.22c.22.5.83.26 1.2-.5.55-1.12-.1-1.94-.85-1.08m5.97-.25c-.5.29-.84 1.4-.58 1.9.23.42.87.14 1.2-.51.46-.91.07-1.8-.62-1.4m-4.64.08c-.06.04-.1.34-.1.67s-.01.74-.04.9c-.04.25-.01.3.17.33.17.03.27-.06.42-.36.11-.22.33-.54.48-.73l.28-.33.05.74c.05.77.13.9.45.66.16-.12.17-.16.06-.3-.1-.11-.12-.33-.07-.78.03-.35.02-.7-.03-.77q-.22-.3-.9.45l-.4.46-.03-.48q-.04-.69-.34-.46m-1.18.5c-.2.4-.2.9 0 .99.2.07.23.03.39-.43.22-.65-.1-1.1-.4-.55m5.87-.16c-.32.38-.37 1.17-.07 1.17.34 0 .6-.95.32-1.18q-.15-.15-.25 0m-8.92.3c-.39.64-.17.89.42.47.22-.16.28-.28.26-.48-.05-.4-.42-.4-.68 0m6.9.02c-.11.17-.2.42-.2.55 0 .21.01.22.27.08.56-.3.66-.41.6-.7-.1-.37-.42-.34-.67.07M9 12.63c-.4.44-.14.9.39.7q.3-.1.39 0t.3-.08c.19-.16.21-.16.21-.02q0 .16.1.17.09-.02.1-.17 0-.18.08-.06c.04.06.16.13.27.15.15.02.2-.03.23-.25l.03-.27-.67.01c-.5.01-.73.06-.88.2-.26.24-.46.24-.46 0s.16-.36.25-.21c.07.11.25.04.25-.1q-.01-.1-.19-.2c-.14-.07-.23-.04-.4.14m10.67.21c-.03.4.05.65.17.54.1-.1.08-.93-.02-.96-.07-.03-.12.14-.15.42m-8.48.03c0 .43-.06.4.9.45.4.02.45 0 .48-.22.06-.43-.43-.5-.51-.08q-.04.18-.06-.15c0-.35-.21-.56-.21-.23q-.02.13-.15.15t-.16.18q0 .22-.08-.03c-.05-.11-.07-.23-.05-.27q.04-.07-.06-.13c-.06-.04-.1.1-.1.33m2.2-.23q0 .13-.1.15t-.2.2c-.1.17-.07.22.17.3q.29.12.31 0 .04-.12.17 0c.18.15.45.02.45-.21 0-.25-.26-.35-.45-.19-.13.1-.15.08-.15-.14 0-.14-.04-.26-.1-.26q-.09.02-.1.15m3.3.02q0 .19-.12.05-.12-.11-.2-.12c-.12 0-.1.68.02.75q.1.04.1-.14 0-.2.1-.21.09.01.1.16.01.16.14.1c.07-.02.18 0 .23.05.16.16.44-.01.41-.25s-.37-.34-.5-.14q-.08.14-.08-.14c0-.16-.04-.28-.1-.28q-.09.02-.1.17m1.7-.03c0 .12-.1.16-.4.16-.38 0-.4.02-.4.3 0 .17.04.3.1.3q.1-.02.1-.2t.1-.2q.1.02.1.2t.1.2q.09-.02.1-.2t.1-.2q.09.02.1.15c0 .2.18.19.23-.03q.05-.2.06.06.01.2.11.22.09-.02.1-.22l.01-.23.1.23q.1.2.29.22.21.02.2-.29c0-.3-.24-.49-.36-.29q-.07.11-.22-.08-.15-.2-.19-.06-.06.1-.14.12-.1 0-.04-.1.04-.07-.05-.15-.09-.05-.1.1m-9.9.07c-.06.25-.03.84.05.88.13.06.16-.78.04-.86q-.09-.05-.1-.02m6.21.38c0 .35.2.41.21.08q0-.28.06-.05.05.17.19.13.13-.04.14.05 0 .09.1.04c.06-.03.1-.17.1-.3 0-.22-.04-.25-.4-.25-.38 0-.4.02-.4.3"/></svg>