<svg xmlns="http://www.w3.org/2000/svg" width="24" height="24"><path fill="#FFF" fill-rule="evenodd" d="M12.66 2.25q-.04.14.07.17l-.93.08a18 18 0 0 0-1.42.13q.15-.04.01-.19-.27-.31-.29.11 0 .23-.12.25-.1 0-.05-.07c.08-.07-.11-.33-.24-.33q-.08.02-.09.2.01.18.11.2c.07 0-.2.16-.57.35a6.6 6.6 0 0 0-3.5 4.5c-.2.91-.13 2.48.14 3.26a6 6 0 0 0 1.62 2.6 6.3 6.3 0 0 0 7.5 1.28 6.6 6.6 0 0 0 3.46-4.47 9 9 0 0 0 .01-2.94q.1.24.33-.03c.1-.13.08-.16-.19-.21-.17-.04-.31-.1-.31-.16q0-.08.09-.04.1.04.2-.08.14-.14-.05-.2-.17-.05-.24.04c-.04.06-.18-.15-.32-.47a6.6 6.6 0 0 0-3.03-3.1c-.6-.3-.67-.4-.12-.18q.18.09.17-.14 0-.36-.28-.09-.13.16-.19-.1-.04-.27-.2-.1c-.12.1-.18.09-.3-.07q-.13-.21-.25-.07-.15.13.02.23.19.12-.1.05l-.41-.06c-.1 0-.2-.11-.23-.25-.07-.28-.2-.33-.3-.1m2.42.69c-.14.1-.1.15.34.4.27.15.78.54 1.12.87.6.55.76.62.76.33q0-.11-.21-.07c-.18.05-.2.03-.14-.16.05-.17.02-.21-.14-.21q-.21 0-.21-.2.01-.2-.2-.13t-.2-.17c0-.17-.04-.2-.2-.15s-.2.02-.2-.15-.04-.2-.24-.14c-.2.04-.25.01-.28-.14q-.01-.25-.2-.08m-3.44.3q-.16.44.36.61c.34.12.41.32.17.47q-.12.08-.01.08c.06 0 .2-.1.3-.2q.33-.4-.34-.65-.6-.2-.32-.35.15-.1.02-.1-.12.01-.18.14m1.28.56c-.16.5-.17.6-.05.65.19.07.48.07.4 0-.02-.04.01-.3.09-.58.18-.66.18-.67-.05-.67-.15 0-.24.14-.39.6m-2.77-.32c.04.1.12.37.18.62.13.55.11.53.35.46.19-.06.19-.09.05-.66-.14-.53-.18-.6-.4-.6q-.29-.02-.18.18m3.48.19c-.08.28-.08.36.03.4.36.13.6-.48.26-.66-.15-.08-.2-.04-.29.26M7.8 3.6c0 .17-.04.2-.21.15-.18-.06-.2-.04-.14.14.05.17.02.21-.18.21s-.24.04-.2.21c.05.18.03.2-.16.14q-.22-.06-.21.08c0 .3.16.24.77-.33.67-.63.73-.73.49-.78q-.16-.03-.16.18m6.47.4c-.1.22-.25.47-.33.54-.11.12-.1.16.11.3q.23.15.25.07c0-.06.13-.33.3-.6.28-.48.28-.51.1-.6-.25-.14-.22-.16-.43.3m.73.02c0 .07-.08.22-.18.33-.28.3-.33.73-.1.85.16.08.18.06.18-.2q0-.3.2-.36a.37.37 0 0 0 .24-.5c-.07-.18-.34-.28-.34-.12m-6.55.2c-.15.12-.13.16.2.41.29.22.34.3.24.38q-.15.09.08.03t.23.04q0 .22.34-.02c.16-.12.13-.17-.37-.55-.47-.35-.57-.39-.72-.28m7.04.8c-.43.42-.46.46-.3.6s.2.12.6-.28q.44-.45.38-.6c-.1-.23-.17-.2-.68.29m1.9-.17c-.13.06-.1.16.21.64.28.43.4.54.49.45q.25-.26-.1-.27-.23.02-.14-.2.09-.21-.13-.2c-.15 0-.18-.05-.14-.25.02-.14.03-.25 0-.24zm-6.18.13a4.2 4.2 0 0 0-2.85 2.16 4.1 4.1 0 0 0 1.89 5.49c.56.27.68.29 1.75.29 1.1 0 1.18-.02 1.78-.33a3.9 3.9 0 0 0 2.2-3.44 3.6 3.6 0 0 0-.66-2.48 4.1 4.1 0 0 0-4.1-1.7m-.24.23a4.6 4.6 0 0 0-1.94 1.23c-.18.22-.46.67-.61 1-.24.51-.28.71-.28 1.54 0 .82.04 1.03.27 1.53a4.6 4.6 0 0 0 1.8 1.9 3.87 3.87 0 1 0 1.99-7.3 4 4 0 0 0-1.23.1m-3.76.27c-.11.18-.09.2.27.26.22.04.5.15.61.26.2.2.22.2.35.02.12-.17.11-.21-.08-.36a1 1 0 0 0-.47-.21l-.4-.11q-.15-.05-.28.14m3.66-.01a3.66 3.66 0 1 0 3.82 5.94c.66-.75.93-1.45.93-2.43a3.3 3.3 0 0 0-.99-2.49 3.6 3.6 0 0 0-3.76-1.02m-.05.2c-.64.24-.98.47-1.47 1.01-.61.68-.8 1.2-.8 2.25-.01.82.02.96.32 1.57q.55 1.14 1.67 1.64a3.49 3.49 0 0 0 2.9-6.32 3.7 3.7 0 0 0-2.62-.15m.48.12a3.7 3.7 0 0 0-2.34 1.97c-.31.7-.29 1.79.05 2.54.32.7.94 1.32 1.6 1.63.56.26 1.47.42 1.75.3.17-.06.17-.07 0-.16-.18-.1-.23-.54-.07-.64.05-.03.17.04.27.15l.18.2.05-.21c.08-.33.28-.34.42-.04.1.24.1.29-.07.41-.27.2-.1.17.36-.06a3.25 3.25 0 0 0-.7-6.03q-.32-.06-.23-.01c.14.07.16.42.03.63-.1.16-.31.06-.31-.15 0-.19-.19-.18-.26.01-.09.21-.3.19-.37-.05-.07-.27.12-.48.48-.53q.42-.05-.05-.04c-.2 0-.55.03-.79.08m5.2.13q-.12.15-.05.56c.07.42.06.43-.17.37q-.33-.1-.05.08.19.15.38.04c.16-.08.19-.2.17-.57-.02-.39 0-.47.14-.46q.15.01.11-.07c-.08-.14-.4-.1-.53.05m-9.7.17q-.1.2-.1.23c.03 0 .28.16.58.34s.55.31.56.3c.26-.34.22-.42-.28-.65A2 2 0 0 1 7 6q-.06-.07-.19.11M10.95 6c-.35.13-.48.36-.35.6.2.36.9.55 1.06.29q.08-.12-.3-.07c-.28.03-.35 0-.31-.1a1 1 0 0 0 .05-.3q-.01-.23.1 0c.13.2.4.24.4.06q.01-.77-.65-.48m1.88.26c-.21.33-.03.56.25.3.25-.22.3-.2.25.08-.07.34.16.44.38.15.16-.21.16-.25.02-.4a1 1 0 0 0-.44-.28c-.26-.09-.31-.07-.46.15M10 6.63c-.37.3-.41.44-.18.66.27.25.41.18.33-.16-.06-.24-.05-.24.16-.13.3.16.44 0 .24-.28q-.24-.37-.55-.1m3.83.2c-.22.22-.14.4.14.34.23-.06.26-.04.2.11-.17.43-.02.54.34.25l.22-.18-.27-.32c-.29-.34-.44-.4-.63-.2m-2.09.19c-.23.11-.48.28-.55.36-.12.14-.09.15.27.1.75-.14 1.05-.27 1.05-.48q.01-.37-.77.02m-5.29.1q-.16.21-.07.15c.07-.03.37.02.68.12q.91.3.35-.28a.67.67 0 0 0-.96.02M17 7.19c-.05.11-.1.33-.1.5q.01.5-.28.19-.13-.13-.12 0c0 .1.3.32.44.32.16 0 .36-.36.36-.64q-.01-.6.3-.33.2.16.01-.05c-.18-.24-.48-.23-.6.01m-4.41.05c0 .12.12.16.5.16.67 0 .63-.24-.03-.28-.37-.02-.47 0-.47.12m-3.34.28c-.23.32-.2.65.05.73q.42.12.21-.25c-.1-.18-.1-.2.11-.2q.5 0 .2-.32-.3-.36-.57.04m-3-.04c-.03.03-.06.13-.06.21q-.01.16.52.29c.28.06.55.17.6.24q.07.11.14-.15c.03-.16.05-.3.03-.3a5 5 0 0 0-1.23-.3m6.08.1c.04.08.01.28-.05.43l-.12.27-.66-.28c-.73-.3-.83-.28-1.01.27-.13.38-.06 1.2.15 1.69.28.7 1.11 1.34 1.72 1.35.21 0 .23-.05.23-.55 0-.52-.02-.55-.27-.6a3 3 0 0 1-.58-.21q-.25-.13-.1-.08l.58.11c.37.06.37.05.37-.3 0-.2.07-.4.16-.48.14-.11.15-.1.12.07s.04.2.7.22c.71.03.72.03.72-.23 0-.22-.04-.25-.33-.25a1 1 0 0 0-.44.1c-.06.07-.21.1-.34.07q-.34-.04.04-.06c.15 0 .27-.07.27-.13 0-.2-.31-.62-.67-.93-.18-.15-.33-.35-.33-.46q-.01-.17-.11-.19-.1.01-.05.16m.84-.09c-.42.03-.58.08-.58.19s.16.14.77.14c.75 0 .76 0 .58-.2l-.19-.18zm1.16.28c-.1.08-.41.15-.7.15-.6 0-.72.1-.45.34.15.14.29.16.66.1q.46-.06.42-.19-.06-.12.2-.07c.22.04.23.06.08.22q-.33.38.09.4c.33 0 .48-.22.4-.57q-.18-.79-.7-.38m-4.53.34q-.19.32.25.31c.3 0 .51-.35.28-.44q-.4-.16-.53.13m-4.71.09c0 .04.06.14.13.2.1.1.08.15-.07.24-.19.1-.19.11 0 .24.17.14.17.14 0 .28-.19.13-.19.13 0 .24.15.09.16.12.05.26s-.11.19.04.3c.18.13.18.14 0 .24-.19.1-.19.11-.02.18.1.03.2.05.2.03.02-.02.01-.55 0-1.17-.04-.87-.08-1.12-.2-1.12q-.12.01-.13.08m3.8.3c-.14.28-.13.67.03.8q.12.09.37 0l.25-.1-.23-.17-.24-.17.24-.16c.25-.17.24-.22-.09-.32q-.23-.09-.32.13m7.92-.06c-.23.3-.2.32.43.32.64 0 .77-.08.52-.33-.16-.16-.83-.15-.95 0M9.6 8.7c0 .16.07.2.35.2s.35-.04.35-.2-.07-.2-.35-.2-.35.04-.35.2m3.94-.04.06.2c0 .06.66.05.73-.02.16-.16-.08-.34-.45-.34-.33 0-.39.03-.34.16m.96.29c0 .07.08.19.18.24.16.1.15.11-.05.17-.48.13-.34.57.17.52.19-.02.26-.1.3-.33.1-.54.01-.75-.31-.75q-.29 0-.29.14m-8.4.25c0 .17.09.2.65.23.62.03.65.02.65-.2 0-.2-.04-.22-.65-.22-.57 0-.65.02-.65.2m3.5.05c0 .24.03.26.38.23.3-.02.37-.07.37-.23s-.08-.2-.37-.23c-.35-.03-.38-.01-.38.23m7.14 0c.17.26.78.32 1 .1.26-.26.2-.3-.49-.3-.62 0-.64 0-.5.2m-7.69.28c-.17.12-.17.16-.02.5.16.39.44.49.65.24q.19-.26-.2-.27c-.2 0-.25-.15-.09-.25.15-.09.12-.35-.03-.35a1 1 0 0 0-.31.13m.64.26c.14.28.83.3.78.04q-.01-.19-.46-.21c-.41-.03-.43-.02-.32.17m3.1.01c0 .2.05.2.67.18.55-.02.68-.06.71-.2.03-.16-.05-.18-.67-.18-.65 0-.71.02-.71.2m1.45.2c-.04.06.01.2.11.31.18.2.18.2-.08.14-.33-.08-.48.13-.23.32q.42.31.68-.16c.22-.38.22-.38-.12-.56q-.3-.15-.36-.04m-4.35.17q.02.1.15.22c.18.15.68.05.62-.13-.04-.14-.77-.23-.77-.09m2.8.07q.01.14.18.15c.16 0 .16.01 0 .14q-.34.26-.01.26c.15 0 .15.01-.02.13q-.2.14-.06.21c.07.05.3-.04.54-.2.37-.24.4-.28.22-.35q-.3-.1 0-.08c.21-.01.45-.18.45-.33 0-.04-.3-.08-.65-.08-.51 0-.65.03-.65.15m-3.2.3c-.1.11-.08.2.1.45.23.32.39.37.58.18.22-.22.14-.4-.13-.34-.23.06-.25.04-.2-.19.08-.29-.14-.35-.35-.1m4.2.46c0 .15-.04.19-.2.14q-.35-.1-.2.33c.12.28.4.28.68-.01.27-.29.28-.43.03-.57-.27-.14-.31-.13-.31.1m-2.9.05q.12.15.38.08.25-.05.19.04-.04.1.2.17c.34.1.42 0 .1-.13a1 1 0 0 1-.32-.2c-.03-.06-.2-.11-.37-.11-.26 0-.29.02-.18.15m-.48.07c-.22.22-.13.48.23.65.28.13.37.14.5.03.2-.17.2-.54 0-.46l-.32.13q-.18.08-.1-.1c.08-.21-.16-.4-.31-.25m.98.47q-.28.52.4.51c.38 0 .4-.02.4-.3 0-.32-.17-.4-.27-.14-.05.14-.09.13-.23-.06l-.18-.23zm-5.63.05q-.05.14.16.2.25.04.1.18-.28.27.08.28c.16 0 .19.04.14.2s-.02.2.14.2c.2 0 .19-.03-.12-.6-.33-.62-.41-.7-.5-.46m12.3.22c-.21.44-.21.44.03.44.18 0 .2-.03.1-.2s-.08-.2.1-.2c.23 0 .26-.13.07-.29-.1-.08-.17-.03-.3.25m-.37.63c0 .04-.16.28-.35.53-.34.45-.35.58-.08.58q.15 0 .08-.2-.09-.22.15-.2t.17-.2.14-.2c.21 0 .22-.01.13-.24-.06-.17-.24-.22-.24-.07m-9.1.47c-.23.3-.24.42-.1.64q.12.16.16.03c.03-.06.18-.3.35-.52l.3-.41h-.25c-.15 0-.33.1-.45.26m5.83.09q-.16.13-.09.15c.06 0 .23.2.38.45.3.48.37.51.54.34.07-.07.02-.24-.2-.6a2 2 0 0 0-.38-.48 1 1 0 0 0-.25.14m-4.69.41c-.19.2-.17.85.03.92q.1.02.12-.13c0-.09.09-.34.2-.55.18-.39.18-.4 0-.4-.1 0-.26.07-.35.16m.58.5c-.2.52-.2.54-.03.54.38 0 .66-.74.37-.98-.1-.08-.17.02-.34.44m3.1-.5c-.1.04-.07.18.07.56.1.28.17.55.13.6-.05.09.35.02.45-.08a3 3 0 0 0-.44-1.1.4.4 0 0 0-.21.03m-2.41.44c-.01.2-.06.49-.12.63-.09.24-.07.26.18.26s.27-.04.3-.43c.01-.23.05-.5.08-.58q.05-.16-.2-.21c-.2-.04-.23 0-.24.33m1.23-.18c-.03.06-.04.36-.02.64.02.5.03.53.3.53q.32 0 .23-.15a5 5 0 0 1-.12-.65q-.06-.5-.2-.5a.2.2 0 0 0-.2.13m4.33.15q-.4.42 0 .42.15 0 .08-.2c-.06-.17-.03-.2.13-.18.18.03.22 0 .22-.22q0-.25-.43.18m-9 .1c-.16.14-.06.33.13.27q.22-.09.2.15t.2.17.2.14q-.02.32.3.08.16-.1.03-.15c-.06-.03-.32-.2-.56-.4-.25-.18-.47-.3-.5-.27M8.7 15c0 .18.03.2.2.1s.2-.08.2.1c0 .23.13.26.29.07.08-.1.03-.17-.25-.3-.44-.21-.44-.21-.44.03m6.13-.03q-.53.25-.17.37.16.06.21-.14c.04-.16.09-.18.24-.1.16.09.19.07.19-.1 0-.24-.05-.24-.47-.03"/></svg>