<?xml version="1.0" encoding="UTF-8" standalone="no"?>
<svg
   viewBox="0 0 24 24"
   width="24pt"
   height="24pt"
   version="1.1"
   id="svg1031"
   sodipodi:docname="education_white.svg"
   inkscape:version="1.2.2 (732a01da63, 2022-12-09)"
   inkscape:export-filename="education_white.svg"
   inkscape:export-xdpi="96"
   inkscape:export-ydpi="96"
   xmlns:inkscape="http://www.inkscape.org/namespaces/inkscape"
   xmlns:sodipodi="http://sodipodi.sourceforge.net/DTD/sodipodi-0.dtd"
   xmlns="http://www.w3.org/2000/svg"
   xmlns:svg="http://www.w3.org/2000/svg">
  <defs
     id="defs1035" />
  <sodipodi:namedview
     id="namedview1033"
     pagecolor="#ffffff"
     bordercolor="#000000"
     borderopacity="0.25"
     inkscape:showpageshadow="2"
     inkscape:pageopacity="0.0"
     inkscape:pagecheckerboard="0"
     inkscape:deskcolor="#d1d1d1"
     inkscape:document-units="pt"
     showgrid="false"
     inkscape:zoom="12.125"
     inkscape:cx="-8.9072165"
     inkscape:cy="14.680412"
     inkscape:window-width="1920"
     inkscape:window-height="974"
     inkscape:window-x="-11"
     inkscape:window-y="-11"
     inkscape:window-maximized="1"
     inkscape:current-layer="svg1031" />
  <path
     d="M 10.595915,5.558028 C 10.127943,5.7435148 8.341144,6.3954602 6.6252495,7.0067535 3.8108042,8.009441 3.5557362,8.1361241 4.0191695,8.3006231 c 0.5074888,0.1801926 0.5142957,0.2057183 0.5672379,2.0840319 0.045946,1.635536 0.099834,1.910268 0.3843982,1.964912 0.2966654,0.05672 0.3308888,-0.125738 0.3308888,-1.767135 0,-1.3857621 0.05748,-1.8085434 0.2363491,-1.740853 0.1300865,0.04916 1.6215441,0.5715867 3.31456,1.160947 l 3.0783995,1.071701 4.155396,-1.4545867 C 18.3718,8.8196458 20.214,8.1374477 20.180154,8.1036025 19.997315,7.9205737 12.14731,5.2018026 11.82701,5.2105003 11.617889,5.2161718 11.063886,5.3725412 10.595915,5.558028 m -4.1597449,5.667085 c 0,0.815877 0.098132,1.233742 0.3711627,1.580891 1.564253,1.988547 8.6600212,1.988547 10.2242742,0 0.439987,-0.559485 0.547195,-2.692489 0.134813,-2.686438 -0.129897,0.0021 -1.299731,0.384965 -2.599462,0.850857 -1.299731,0.46608 -2.490931,0.845941 -2.64711,0.84405 -0.15618,-0.0021 -1.347379,-0.384966 -2.6471103,-0.850857 -1.2997311,-0.466081 -2.4697537,-0.847454 -2.5998403,-0.847454 -0.1626081,0 -0.2367273,0.346961 -0.2367273,1.108951"
     stroke="none"
     fill="#090909"
     fill-rule="evenodd"
     id="path1261"
     style="fill:#ffffff;stroke-width:0.189079" />
</svg>
