<svg xmlns="http://www.w3.org/2000/svg" width="24" height="24"><path fill="#FFFFFF" fill-rule="evenodd" d="M3.17 7.28c-.14.16-.17.43-.17 1.69 0 1.87-.03 1.83 1.3 1.83h.94l-.51-.26c-.29-.14-.6-.39-.71-.56l-.2-.3-.36.38-.36.37.12-.34c.06-.19.2-.46.3-.6.1-.15.18-.43.18-.63 0-.64.4-1.25 1.05-1.6.3-.15.29-.15-.56-.16-.7 0-.89.03-1.02.18m2.06 0c.02.1.08.25.12.34q.08.19-.1.18c-.3 0-.85.64-.85.99q0 .31.15.31c.22 0 .86-.28 1.07-.47.16-.15.18-.15.18 0 0 .26-.48.75-.87.88l-.36.12.24.18c.39.3.75.33 1.18.12l.39-.2.16.34c.15.31.15.33-.06.44-.12.07-.33.15-.47.2-.22.06-.2.07.16.08.7.02.73-.08.73-1.84 0-1.86 0-1.85-1.02-1.85-.62 0-.7.02-.65.18m2.4-.02c-.22.15-.23.21-.23 1.69s0 1.54.22 1.7c.2.13.99.15 6.58.15s6.38-.02 6.58-.16.22-.21.22-1.69 0-1.54-.22-1.7c-.2-.13-.99-.15-6.58-.15s-6.38.02-6.58.16m5.71.65c-.46.13-.73.53-.73 1.06 0 .71.57 1.13 1.34.99.6-.11.93-.74.75-1.4-.15-.55-.73-.82-1.36-.65m2.3 0c-.61.18-.69.83-.13 1.16.17.1.3.26.3.36 0 .17-.05.19-.4.14-.34-.04-.4-.02-.4.13 0 .38.89.42 1.25.05.34-.33.31-.48-.16-.88-.49-.4-.46-.62.07-.54.29.05.34.03.34-.14q-.01-.19-.26-.3l-.27-.08zM8.48 8.95l.03 1.06.72-.03c.58-.02.72-.06.75-.2s-.06-.17-.45-.2c-.4-.03-.48-.06-.48-.23 0-.15.08-.21.35-.25q.35-.05.38-.22c.03-.14-.04-.18-.32-.18q-.56.01-.4-.34.05-.16.48-.16.45 0 .43-.15c0-.12-.15-.15-.76-.15h-.76zm2.02 0V10h.3c.28 0 .3-.02.3-.4 0-.22.04-.4.1-.4.04 0 .23.18.4.4.24.3.39.4.6.4.38 0 .38-.09 0-.45-.34-.32-.37-.47-.15-.65.08-.07.15-.25.15-.4 0-.42-.32-.6-1.07-.6h-.63zm6.44-.9A6 6 0 0 1 17 9.12c0 .88 0 .89.24.89s.25-.04.28-.52l.03-.53.38.53c.31.42.44.52.68.52.16 0 .29-.04.29-.09s-.16-.29-.35-.54c-.2-.25-.35-.5-.35-.54s.19-.27.42-.5l.42-.43h-.32c-.25 0-.4.1-.68.4-.2.22-.4.4-.45.4s-.09-.18-.09-.4c0-.38-.01-.4-.31-.4q-.34-.02-.25.16m2.38.87.03 1.02.27.03.28.03V7.9h-.6zM11.1 8.6q0 .47.38.22c.2-.13.1-.46-.16-.5-.19-.02-.22.02-.22.28m2.15.01c-.41.46.3 1.16.75.75.24-.22.26-.58.04-.8-.21-.21-.57-.19-.8.05"/></svg>