<?xml version="1.0" encoding="UTF-8" standalone="no"?>
<svg
   viewBox="0 0 24 24"
   width="24pt"
   height="24pt"
   version="1.1"
   id="svg1"
   sodipodi:docname="euro_car_parts.svg"
   xml:space="preserve"
   inkscape:version="1.3 (0e150ed6c4, 2023-07-21)"
   xmlns:inkscape="http://www.inkscape.org/namespaces/inkscape"
   xmlns:sodipodi="http://sodipodi.sourceforge.net/DTD/sodipodi-0.dtd"
   xmlns="http://www.w3.org/2000/svg"
   xmlns:svg="http://www.w3.org/2000/svg"><defs
     id="defs1" /><sodipodi:namedview
     id="namedview1"
     pagecolor="#ffffff"
     bordercolor="#000000"
     borderopacity="0.25"
     inkscape:showpageshadow="2"
     inkscape:pageopacity="0.0"
     inkscape:pagecheckerboard="0"
     inkscape:deskcolor="#d1d1d1"
     inkscape:document-units="pt"
     inkscape:zoom="23.09375"
     inkscape:cx="18.381597"
     inkscape:cy="15.956698"
     inkscape:window-width="1649"
     inkscape:window-height="1266"
     inkscape:window-x="2041"
     inkscape:window-y="99"
     inkscape:window-maximized="0"
     inkscape:current-layer="svg1" /><g
     id="g1"
     transform="matrix(0.05890393,0,0,0.05890393,-3.0893122,-37.368065)"><g
       id="g2"
       transform="matrix(0.49455733,0,0,0.49455733,109.09364,665.85229)"><path
         d="m 0,0 c 10.292756,8.1220772 17.593916,17.28408 24.039062,28.574219 1.526237,2.605021 3.065808,4.967975 4.945313,7.320312 0.897352,-2.374436 1.793236,-4.7494 2.6875,-7.125 0.404484,-1.074232 0.404484,-1.074232 0.817139,-2.170166 2.25324,-6.007979 4.40404,-12.047869 6.514892,-18.1071775 0.980469,-2.5976563 0.980469,-2.5976563 1.980469,-3.5976563 2.239299,-0.094365 4.481617,-0.1174232 6.7229,-0.1135253 0.702403,-1.461e-4 1.404807,-2.921e-4 2.128495,-4.425e-4 2.332118,6.991e-4 4.664157,0.00849 6.996261,0.016312 1.612828,0.00186 3.225657,0.00329 4.838486,0.00429 4.253012,0.00383 8.505989,0.013656 12.758987,0.024704 4.336645,0.010214 8.673296,0.014794 13.009949,0.019836 8.51499,0.010738 17.029947,0.027814 25.544927,0.048828 -0.31354,1.449711 -0.62942,2.8989157 -0.94629,4.3479004 -0.17566,0.8070792 -0.35131,1.6141582 -0.53229,2.4456942 -0.55285,2.339392 -1.29554,4.44817 -2.27142,6.643905 -2.343,5.581071 -4.19915,11.297636 -6.05567,17.054444 -1.10789,3.399692 -2.26751,6.67868 -3.67871,9.968994 -1.821958,4.254366 -3.268225,8.579745 -4.703125,12.976562 -0.272637,0.826934 -0.545273,1.653867 -0.826172,2.50586 -0.66488,2.017969 -1.325996,4.037178 -1.986328,6.05664 1.584201,-0.622796 3.167325,-1.248334 4.75,-1.875 0.881719,-0.348047 1.763437,-0.696094 2.671875,-1.054687 0.85078,-0.353203 1.70156,-0.706407 2.57813,-1.070313 0.72703,-0.291328 1.45406,-0.582656 2.20312,-0.882812 2.30235,-1.431458 2.73531,-2.635892 3.79688,-5.117188 0.52335,-0.916523 1.04671,-1.833047 1.58593,-2.777344 3.75543,-6.633495 6.51622,-12.976531 8.58985,-20.308593 0.84034,-2.971069 1.8529,-5.80256 2.97265,-8.675782 1.64448,-4.322403 3.13857,-8.702139 4.66797,-13.066406 1.1836,-3.1718745 1.1836,-3.1718745 3.18359,-7.1718746 44.55,0 89.1,0 135,0 -2.33333,6.9999996 -4.66666,13.9999996 -7,20.9999996 9.9,-6.6 19.8,-13.2 30,-19.9999996 3.39448,1.697238 5.38867,3.0706627 8.125,5.5624996 2.73539,2.514292 2.73539,2.514292 5.875,4.4375 0.26297,-0.583945 0.52594,-1.16789 0.79688,-1.769531 7.21998,-13.38509633 24.91842,-20.7441357 38.60547,-24.972656 19.31898,-4.821489 38.94395,0.01151 55.84228,9.6733398 4.28708,2.6104044 8.05652,5.6937251 11.75537,9.0688476 0.62004,0.5285157 1.24008,1.0570313 1.87891,1.6015626 11.03629,10.024008 18.69341,26.307852 19.49219,41.210937 0.48239,20.444624 -5.04583,36.676316 -18.60938,52.328127 -7.99569,8.27843 -17.12704,13.64394 -27.76172,17.85937 -1.41925,0.62068 -1.41925,0.62068 -2.86718,1.25391 -16.47603,6.27138 -36.39267,3.96569 -52.35547,-2.57422 -7.07378,-3.27308 -12.9751,-7.50578 -18.77735,-12.67969 -0.71027,-0.62777 -1.42054,-1.25555 -2.15234,-1.90234 -7.86383,-7.380837 -13.80631,-17.11535 -17.84766,-27.097657 0,-0.99 0,-1.98 0,-3 -0.79172,0.550511 -1.58345,1.101021 -2.39916,1.668213 -2.94365,2.040938 -5.90054,4.061903 -8.86182,6.077149 -1.27909,0.874499 -2.55453,1.754354 -3.82617,2.639648 -1.83008,1.272695 -3.67246,2.52547 -5.51831,3.775146 -0.56479,0.39889 -1.12957,0.797779 -1.71148,1.208756 -2.63969,1.761398 -4.22409,2.654724 -7.43745,2.489243 -2.99318,-1.143839 -4.67083,-2.849622 -6.93311,-5.108155 -4.6991,-4.430587 -9.38996,-7.242373 -15.3125,-9.75 -0.37318,1.852383 -0.37318,1.852383 -0.7539,3.742188 -1.31983,5.931675 -3.23692,11.632091 -5.1836,17.382812 -0.3474,1.045427 -0.6948,2.090857 -1.05273,3.167967 -1.44103,4.29324 -2.88086,8.55018 -4.70117,12.69922 -1.45015,3.10757 -1.45015,3.10757 -2.3086,7.00781 -24.42,0 -48.84,0 -74,0 0.75128,-3.75635 1.24006,-5.8321 3,-9 -1.9801,1.31111 -3.95911,2.62381 -5.9375,3.9375 -0.56396,0.37318 -1.12792,0.74637 -1.70898,1.13086 -2.81385,1.7913 -2.81385,1.7913 -5.35352,3.93164 -1.5961,0.0933 -3.19633,0.11745 -4.79516,0.11353 -1.02098,-8e-5 -2.04197,-1.5e-4 -3.09389,-2.3e-4 -1.1104,-0.005 -2.2208,-0.0103 -3.36485,-0.0156 -1.13058,-0.001 -2.26117,-0.003 -3.42601,-0.004 -3.62756,-0.006 -7.25505,-0.0182 -10.88258,-0.0309 -2.45248,-0.005 -4.90495,-0.01 -7.35743,-0.0137 -6.02671,-0.011 -12.053388,-0.0278 -18.080075,-0.0488 0.33,-1.98 0.66,-3.96 1,-6 -0.582656,0.19336 -1.165313,0.38672 -1.765625,0.58594 -14.90498,4.73397 -35.090259,8.3994 -49.945313,1.75 -6.232708,-3.63752 -11.245648,-8.21345 -16.289062,-13.33594 -0.848203,0.58008 -1.696406,1.16016 -2.570313,1.75781 -21.4956881,14.43057 -47.711796,22.2741 -73.710937,17.59375 -21.338953,-5.24508 -37.013564,-17.70814 -48.593755,-36.226557 -8.07662,-14.778497 -9.83191,-31.938645 -5.125,-48.125 C -103.17729,20.628025 -89.781754,5.2944012 -72.277344,-4.5 -48.566138,-16.171025 -21.872004,-15.270738 0,0 Z"
         fill="#0858a5"
         transform="translate(141.01562,200.10547)"
         id="path2" /><path
         d="m 0,0 c 0.83317793,-0.00265183 1.6663559,-0.00530365 2.5247816,-0.00803584 2.8222696,-0.00772575 5.644496,-0.00825342 8.4667754,-0.00884992 2.03169,-0.0040125 4.063379,-0.0084503 6.095068,-0.01327955 5.606803,-0.01199534 11.213598,-0.01762078 16.820412,-0.02218116 6.037614,-0.0059448 12.075218,-0.01755734 18.112825,-0.02829051 13.901953,-0.0233877 27.803907,-0.03793434 41.705872,-0.05022941 4.808385,-0.004253 9.616766,-0.008819 14.425156,-0.0135833 25.55349,-0.0252572 51.10698,-0.0473106 76.66047,-0.0597281 5.9219,-0.002921 11.8438,-0.005889 17.76569,-0.008905 0.73574,-3.7091e-4 1.47148,-7.4182e-4 2.22951,-0.001124 23.86311,-0.0121599 47.72615,-0.0431109 71.58923,-0.0847976 24.52208,-0.0427599 49.04411,-0.0694105 73.56622,-0.0746478 3.46142,-7.4048e-4 6.92284,-0.001651 10.38426,-0.002658 0.68126,-1.9061e-4 1.36252,-3.8123e-4 2.06443,-5.7762e-4 10.97656,-0.003518 21.95302,-0.0238334 32.92954,-0.050219 11.02718,-0.0261083 22.05428,-0.0334722 33.08149,-0.0228987 5.97731,0.005204 11.95432,0.002186 17.93159,-0.0224655 5.46711,-0.0223598 10.93372,-0.0218564 16.40084,-0.002796 1.98253,0.002819 3.96509,-0.002901 5.94756,-0.0178129 2.68655,-0.0189792 5.37127,-0.007404 8.05777,0.0120622 1.16585,-0.0192738 1.16585,-0.0192738 2.35526,-0.038937 3.98882,0.0639008 5.78407,0.52454129 8.96794,3.00931721 1.98582,2.6476523 1.98582,2.6476523 2.06785,5.628121 -0.3111,1.3522167 -0.68195,2.6909205 -1.08203,4.0195305 -0.29085,0.966314 -0.58169,1.932627 -0.88135,2.928223 -1.09753,3.478334 -2.25635,6.93131 -3.43115,10.384277 -0.39123,1.172403 -0.78246,2.344805 -1.18555,3.552735 -2.02939,6.027578 -4.1868,11.960159 -6.59741,17.84497 -1.15215,2.916611 -2.11743,5.878005 -3.08472,8.859864 -2.47632,7.546428 -4.63179,13.870814 -11.48726,18.573834 -3.4648,1.271652 -6.88588,1.134001 -10.52856,1.11616 -1.25621,0.0057 -1.25621,0.0057 -2.5378,0.01153 -2.82488,0.01036 -5.64956,0.0064 -8.47445,0.0026 -2.03826,0.0045 -4.07651,0.0098 -6.11476,0.01587 -5.61563,0.01422 -11.23121,0.01584 -16.84686,0.0154 -6.05051,0.0016 -12.10101,0.0147 -18.15151,0.02619 -12.54626,0.02168 -25.0925,0.03026 -37.63876,0.03504 -0.68201,2.61e-4 -1.36401,5.22e-4 -2.06668,7.91e-4 -0.68335,2.6e-4 -1.3667,5.21e-4 -2.07076,7.89e-4 -7.56803,0.0031 -15.13606,0.0096 -22.70409,0.01621 -22.84947,0.01965 -45.69894,0.03605 -68.54842,0.03888 -1.09645,1.41e-4 -1.09645,1.41e-4 -2.21505,2.85e-4 -2.96239,3.79e-4 -5.92478,7.43e-4 -8.88717,0.0011 -2.22977,2.72e-4 -4.45953,5.48e-4 -6.68929,8.25e-4 -0.7368,8.9e-5 -1.4736,1.77e-4 -2.23272,2.67e-4 -23.1614,0.0029 -46.32271,0.02502 -69.48408,0.06126 -26.00856,0.0407 -52.01706,0.06442 -78.02565,0.06472 -2.771429,9.6e-5 -5.542858,2.63e-4 -8.314287,4.8e-4 -1.023631,6.6e-5 -1.023631,6.6e-5 -2.067941,1.33e-4 -10.997093,0.0011 -21.994103,0.01855 -32.991169,0.04169 -11.04485,0.0228 -22.089609,0.02667 -33.13448,0.01245 -5.987318,-0.0072 -11.974347,-0.0062 -17.9616334,0.01641 -5.47500792,0.02047 -10.9495011,0.01811 -16.4245026,-0.0029 -1.986483,-0.0035 -3.973003,0.0015 -5.959439,0.01571 -2.689469,0.01798 -5.377092,0.0055 -8.066502,-0.01495 -1.171342,0.01884 -1.171342,0.01884 -2.366349,0.03807 -3.84236,-0.06304 -5.484194,-0.330385 -8.314556,-3.021917 -1.894048,-3.29654 -2.031636,-4.873601 -1.515094,-8.63698 0.70902,-1.94362 1.421643,-3.886123 2.164307,-5.817138 1.322573,-3.454609 2.544591,-6.943954 3.773193,-10.432862 0.260149,-0.737263 0.520298,-1.474526 0.78833,-2.23413 1.862986,-5.298712 3.649961,-10.619858 5.410889,-15.95337 0.964501,-2.862953 1.994803,-5.689181 3.101562,-8.5 0.577175,-1.56281 1.08322,-3.152119 1.554688,-4.75 C -18.933352,9.3621492 -16.063979,5.3580763 -9.9314928,1.1370144 -6.7940766,-0.43169369 -3.4445228,-0.00526072 0,0 Z"
         fill="#0456a5"
         transform="translate(68.931493,336.86299)"
         id="path3" /><path
         d="M 0,0 C 0.76054688,0.32742187 1.5210937,0.65484375 2.3046875,0.9921875 13.616055,6.5069821 23.555829,17.315841 30,28 c 0.374246,1.657959 0.714313,3.324508 1,5 -5.738767,3.874547 -11.47819,7.748119 -17.218018,11.621094 -1.942199,1.310661 -3.8842622,2.621525 -5.8261715,3.932617 C -5.6649445,57.749575 -19.3151,66.89985 -33,76 c 3.856094,4.012382 3.856094,4.012382 8.375,7.1875 0.523359,0.30293 1.046719,0.605859 1.585938,0.917969 C -10.453217,89.626845 3.387006,87.642922 15.8125,82.875 33.642666,75.14253 46.351197,61.68296 53.890625,43.867187 55.53459,39.618348 57.097078,35.3459 58.59375,31.042969 60.690424,25.01503 62.853444,19.010356 65,13 c 16.17,0 32.34,0 49,0 -2.22222,10 -2.22222,10 -3.75,13.4375 -2.30814,5.500077 -4.11374,11.131117 -5.95459,16.799561 -1.82666,5.549082 -3.94763,10.882802 -6.412598,16.184814 C 96.83984,62.467725 96.722066,64.79942 97,68 c 2.275882,4.224817 2.275882,4.224817 6,7 9.21127,1.039982 15.78241,-2.432873 23.29688,-7.570313 C 131.9277,62.911929 135.46008,57.219754 139,51 c 0.39059,-0.669023 0.78117,-1.338047 1.18359,-2.027344 2.73524,-5.034108 4.26319,-10.384985 5.87891,-15.863281 0.75382,-2.500182 1.56472,-4.923739 2.5,-7.359375 1.61073,-4.201903 3.01446,-8.480879 4.4375,-12.75 16.5,0 33,0 50,0 -1.34613,6.730658 -3.18254,13.155223 -5.8125,19.5 -2.26326,5.480383 -4.0882,11.08811 -5.90552,16.728516 -1.28663,3.950276 -2.67828,7.815826 -4.25073,11.662109 -2.47754,6.090233 -4.4322,12.331376 -6.38672,18.605469 C 176.5415,92.213642 168.28222,99.632261 156.51221,105.72266 145.5269,109.71787 132.43902,107.97586 121,107 c 3.04058,-12.623576 3.04058,-12.623576 5.1875,-18.25 0.51627,-1.368984 0.51627,-1.368984 1.04297,-2.765625 C 127.48441,85.329531 127.73836,84.674688 128,84 c -0.44988,0.496289 -0.89977,0.992578 -1.36328,1.503906 C 118.19568,94.418594 108.47032,99.824805 97,104 c -0.801797,0.32098 -1.603594,0.64195 -2.429688,0.97266 C 84.218141,108.52811 68.282701,109.62794 58.125,105.0625 49.766504,99.671876 44.966976,92.349877 42,83 41.512734,83.545273 41.025469,84.090547 40.523437,84.652344 31.410416,94.345284 20.348851,101.13355 8,106 c -0.7450781,0.2952 -1.4901563,0.59039 -2.2578125,0.89453 -17.4724935,6.35648 -38.0702425,6.4774 -55.0454105,-1.15161 C -64.478775,98.513077 -75.034633,86.021625 -80.972656,70.449219 -85.272933,56.948351 -83.682085,42.625484 -77.8125,29.875 -69.274183,13.948738 -55.359645,3.584794 -38.472656,-2.2734375 -26.081325,-5.914492 -11.722615,-5.4131954 0,0 Z"
         fill="#fce536"
         transform="translate(124,203)"
         id="path4" /><path
         d="M 0,0 C 0.88429688,0.350625 1.7685937,0.70125 2.6796875,1.0625 16.953323,7.4656263 27.05813,19.126141 33.035156,33.394531 38.417633,47.929397 36.640842,62.847476 30.75,77.003906 24.963512,88.560444 16.194575,96.790243 5,103 4.3580469,103.39832 3.7160938,103.79664 3.0546875,104.20703 -8.899674,111.11572 -25.866552,111.7552 -39.0625,108.9375 -50.836003,105.53063 -60.495963,99.772254 -69,91 -69.560742,90.448281 -70.121484,89.896563 -70.699219,89.328125 -80.809766,78.60723 -84.156345,66.244727 -84,52 c -2.274652,1.389891 -4.545197,2.785687 -6.8125,4.1875 -0.705439,0.435461 -1.410879,0.870923 -2.137695,1.31958 -4.147866,2.589479 -8.204765,5.269767 -12.202145,8.08667 -0.84909,0.596594 -1.69818,1.193188 -2.573,1.807861 -1.66678,1.179044 -3.32602,2.368823 -4.97705,3.569825 -0.76337,0.53923 -1.52674,1.078461 -2.31324,1.634033 -0.67321,0.486218 -1.34642,0.972436 -2.04003,1.473388 C -119,75 -119,75 -121.10767,74.742676 -123.62547,73.754524 -125.52743,72.311902 -127.6875,70.6875 -134.18354,66.044744 -140.70364,61.69861 -149,63 c -3.48703,2.823776 -4.7423,5.369029 -6,9.625 -1.16684,3.758295 -2.36625,7.427774 -3.875,11.0625 -2.93966,7.349142 -5.49064,14.848478 -8.125,22.3125 -16.17,0 -32.34,0 -49,0 0.68509,-5.48073 1.11355,-8.800432 3.05469,-13.625 1.18381,-2.974202 2.24963,-5.983243 3.32031,-9 0.43055,-1.209141 0.86109,-2.418281 1.30469,-3.664063 0.4357,-1.224609 0.8714,-2.449218 1.32031,-3.710937 0.83301,-2.33345 1.66633,-4.666785 2.5,-7 0.4125,-1.155 0.825,-2.31 1.25,-3.5 8.75,-24.5 8.75,-24.5 9.99219,-27.976563 0.86068,-2.41099 1.71999,-4.822473 2.57812,-7.234375 0.64582,-1.81371 0.64582,-1.81371 1.30469,-3.664062 0.38414,-1.080234 0.76828,-2.160469 1.16406,-3.273438 C -186.83954,19.5559 -185.41707,15.778848 -184,12 c 16.5,0 33,0 50,0 -2.25215,7.507151 -4.58686,14.943492 -7.0625,22.375 -0.35127,1.066055 -0.70254,2.132109 -1.06445,3.230469 -0.34096,1.024804 -0.68192,2.049609 -1.03321,3.105468 -0.45838,1.381312 -0.45838,1.381312 -0.92602,2.790528 C -144.91778,45.7752 -145.8996,47.848128 -147,50 c 0.46195,-0.307965 0.9239,-0.61593 1.39984,-0.933228 C -129.06677,38.044515 -112.53339,27.022257 -96,16 c 3.066084,1.459099 5.055792,2.881579 7.375,5.375 2.992607,3.096024 5.955359,5.387414 9.625,7.625 0.396387,-1.102148 0.396387,-1.102148 0.800781,-2.226563 C -76.244988,22.253881 -73.150994,18.746254 -70,15 c 0.514336,-0.612305 1.028672,-1.224609 1.558594,-1.855469 C -51.346961,-5.4845776 -22.849015,-9.2614676 0,0 Z"
         fill="#fce535"
         transform="translate(523,204)"
         id="path5" /><path
         d="m 0,0 c 5.8532435,-0.07442019 11.706209,-0.12872982 17.559814,-0.16479492 1.989307,-0.0150423 3.978581,-0.0354813 5.967774,-0.0615234 2.867189,-0.0365841 5.733938,-0.0534538 8.601318,-0.0666504 0.88257,-0.0154839 1.76514,-0.0309677 2.674454,-0.0469208 C 40.299916,-0.34137164 44.16202,0.3153746 49,3 c 2.473213,3.70982 2.789222,6.6987383 2,11 -2.013765,3.911351 -4.873715,6.947059 -8,10 0.66,0.66 1.32,1.32 2,2 0.135254,1.971191 0.135254,1.971191 -0.02344,4.351562 -0.05156,0.850782 -0.103124,1.701563 -0.15625,2.578125 -0.06445,0.889454 -0.128906,1.778907 -0.195312,2.695313 -0.08508,1.345781 -0.08508,1.345781 -0.171875,2.71875 C 44.311463,40.563119 44.156938,42.781659 44,45 c -5.61,0 -11.22,0 -17,0 0,-4.62 0,-9.24 0,-14 -5.94,-0.33 -11.88,-0.66 -18,-1 -0.33,2.31 -0.66,4.62 -1,7 -0.5919809,2.692001 -1.2981971,5.333149 -2,8 -4.95,0 -9.9,0 -15,0 0.5877662,-6.042237 1.4923582,-11.840415 2.8476563,-17.753906 0.2642301,-1.179485 0.2642301,-1.179485 0.5337982,-2.382797 0.5558251,-2.47631 1.1183068,-4.95105 1.6810455,-7.425797 0.3813034,-1.693259 0.7621667,-3.386618 1.1425781,-5.080078 C -1.8683577,8.237119 -0.93582643,4.1182086 0,0 Z"
         fill="#f5e138"
         transform="translate(184,352)"
         id="path6" /><path
         d="m 0,0 c 5.8898802,-0.04950439 11.779639,-0.0857692 17.669678,-0.10986328 2.002951,-0.0100464 4.005887,-0.0236858 6.008789,-0.0410156 2.881954,-0.0243082 5.763714,-0.035618 8.645752,-0.0444336 0.892892,-0.0103226 1.785784,-0.0206451 2.705734,-0.0312805 5.294811,-9.5163e-4 9.365709,0.2947099 13.755203,3.55081178 C 51.248459,6.7221505 50.570776,11.016978 50,15 c -1.87356,3.553303 -4.019379,6.317441 -7,9 0.33,0.33 0.66,0.66 1,1 0.08669,1.488719 0.107035,2.981445 0.09766,4.472656 -0.0032,0.899121 -0.0064,1.798242 -0.0098,2.72461 -0.01257,1.418291 -0.01257,1.418291 -0.02539,2.865234 -0.0045,0.949395 -0.009,1.898789 -0.01367,2.876953 C 44.037001,40.292995 44.019065,42.646505 44,45 38.39,45 32.78,45 27,45 27.03255,41.647135 27.0651,38.294271 27.09766,34.941406 27.339018,32.111267 27.339018,32.111267 26,31 23.141221,30.762988 20.301167,30.577808 17.4375,30.4375 16.631191,30.394316 15.824883,30.351133 14.994141,30.306641 12.996312,30.200247 10.998179,30.099591 9,30 8.8672266,30.915234 8.7344531,31.830469 8.5976563,32.773437 8.4210547,33.961953 8.2444531,35.150469 8.0625,36.375 7.8014648,38.150039 7.8014648,38.150039 7.5351562,39.960937 7,43 7,43 6,45 c -4.95,0 -9.9,0 -15,0 0.5877662,-6.042237 1.4923582,-11.840415 2.8476563,-17.753906 0.2642301,-1.179485 0.2642301,-1.179485 0.5337982,-2.382797 0.5558251,-2.47631 1.1183068,-4.95105 1.6810455,-7.425797 0.3813034,-1.693259 0.7621667,-3.386618 1.1425781,-5.080078 C -1.8683577,8.237119 -0.93582643,4.1182086 0,0 Z"
         fill="#f6e238"
         transform="translate(374,352)"
         id="path7" /><path
         d="M 0,0 C 0.83490967,0.00491455 1.6698193,0.0098291 2.5300293,0.01489258 10.196083,0.16057823 16.876769,1.0831573 23.25,5.625 c 2.872429,3.2503807 2.594203,4.505341 2.375,8.6875 -2.917659,0.108061 -5.831311,0.187329 -8.75,0.25 -0.825,0.03352 -1.65,0.06703 -2.5,0.101563 C 8.1304899,14.76478 8.1304899,14.76478 5.3984375,12.320313 4.5205859,11.326445 4.5205859,11.326445 3.625,10.3125 0.88258623,9.7573453 0.88258623,9.7573453 -2,9.9375 -2.9616406,9.9503906 -3.9232813,9.9632813 -4.9140625,9.9765625 -7.5493588,10.083545 -7.5493588,10.083545 -9.375,12.3125 c -0.642523,2.06874 -0.642523,2.06874 -1,4 0.5534912,0.04488 1.1069824,0.08975 1.6772461,0.135986 C 14.961227,18.425402 14.961227,18.425402 22.25,22.9375 c 2.206545,3.811304 2.384067,7.107487 1.375,11.375 C 20.160165,40.797668 15.079719,43.446594 8.2734375,45.621094 2.5449838,47.116575 -2.7208535,47.525541 -8.625,47.5625 c -0.8082422,0.02063 -1.616484,0.04125 -2.449219,0.0625 -7.224139,0.04623 -13.475856,-1.237045 -19.363281,-5.5625 -2.445397,-3.470887 -2.088701,-5.594404 -1.9375,-9.75 2.938477,-0.107834 5.873012,-0.187219 8.8125,-0.25 0.833379,-0.03352 1.666758,-0.06703 2.525391,-0.101563 2.286602,-0.03673 4.407355,-0.03648 6.662109,0.351563 1.664062,1.992187 1.664062,1.992187 3,4 3.1261357,0.560278 3.1261357,0.560278 6.5625,0.375 1.7344336,-0.01934 1.7344336,-0.01934 3.5039063,-0.03906 3.0539506,-0.04158 3.0539506,-0.04158 4.9335937,-2.335937 0.6425235,-2.06874 0.6425235,-2.06874 1,-4 C 3.9293897,30.237332 3.2337793,30.162163 2.5170898,30.084717 -0.65670642,29.734981 -3.8282324,29.367662 -7,29 -8.0944141,28.882051 -9.1888281,28.764102 -10.316406,28.642578 -16.789412,27.877587 -22.303455,27.179276 -27.25,22.5625 c -1.651594,-3.303187 -1.56543,-5.600727 -1.125,-9.25 2.484787,-4.9695745 6.038062,-8.5368798 11,-11 C -11.494183,0.50543963 -6.1333526,-0.04264853 0,0 Z"
         fill="#f6e138"
         transform="translate(508.375,350.6875)"
         id="path8" /><path
         d="M 0,0 C 1.2750011,-0.00855011 1.2750011,-0.00855011 2.5757599,-0.01727295 4.3806534,-0.02674089 6.1855643,-0.03326402 7.9904785,-0.03710938 10.74071,-0.04677372 13.49018,-0.07776234 16.240234,-0.109375 17.993485,-0.11590902 19.746741,-0.12115792 21.5,-0.125 c 1.228459,-0.0185202 1.228459,-0.0185202 2.481735,-0.0374145 5.783895,0.0223361 9.731945,1.2173021 14.451859,4.7522582 2.391182,3.3590415 1.589494,7.6927763 1.148437,11.6132813 -1.993622,5.87011 -5.637313,8.889417 -10.797851,12.128418 -2.925037,1.157692 -5.357273,1.096534 -8.499024,1.066894 -1.80791,-0.0097 -1.80791,-0.0097 -3.652344,-0.01953 -1.881386,-0.02514 -1.881386,-0.02514 -3.800781,-0.05078 -1.269726,-0.009 -2.539453,-0.01805 -3.847656,-0.02734 -3.1343047,-0.02357 -6.2682292,-0.05647 -9.40234375,-0.09766 -0.0489844,0.652266 -0.0979688,1.304531 -0.1484375,1.976562 -0.0747656,0.873985 -0.14953125,1.747969 -0.2265625,2.648438 -0.0696094,0.858516 -0.13921875,1.717031 -0.21093745,2.601562 -0.4140625,2.773438 -0.4140625,2.773438 -2.4140626,8.773438 -4.9499999,0 -9.9000002,0 -15.0000002,0 1.398374,-8.917269 3.146844,-17.711125 5.08667,-26.522217 0.483287,-2.199214 0.959254,-4.399934 1.434815,-6.60083 0.306208,-1.400485 0.612832,-2.8008794 0.919921,-4.2011717 0.275296,-1.2590112 0.550591,-2.5180224 0.834229,-3.8151855 C -8.7446414,-1.4559168 -4.9341881,0.02529231 0,0 Z"
         fill="#f7e238"
         transform="translate(274.41797,351.79687)"
         id="path9" /><path
         d="m 0,0 c 2.4023086,8.3672903 4.3288397,16.796534 6.125,25.3125 0.3963867,1.85335 0.3963867,1.85335 0.8007812,3.744141 C 8.0546626,34.365821 9.1072298,39.643379 10,45 c -5.61,0 -11.22,0 -17,0 -0.495,-3.465 -0.495,-3.465 -1,-7 -6.93,0 -13.86,0 -21,0 -0.99,2.475 -0.99,2.475 -2,5 -0.33,0.66 -0.66,1.32 -1,2 -5.61,0 -11.22,0 -17,0 1.746817,-3.493634 3.621415,-6.561353 5.78125,-9.804688 0.369311,-0.556577 0.738623,-1.113155 1.119125,-1.686599 2.015915,-3.032355 4.050167,-6.05173 6.097916,-9.062668 0.825057,-1.214906 1.649848,-2.429992 2.474365,-3.645264 0.403683,-0.594303 0.807366,-1.188606 1.223282,-1.800918 2.172755,-3.225981 4.194157,-6.477082 6.050156,-9.8943942 C -19.841831,-2.2826873 -11.912217,-1.5410055 0,0 Z"
         fill="#f4e039"
         transform="translate(351,352)"
         id="path10" /><path
         d="m 0,0 c 1.1861389,0.00785522 1.1861389,0.00785522 2.3962402,0.01586914 1.2810059,0.004834 1.2810059,0.004834 2.5878907,0.0097656 0.897832,0.0083789 1.795664,0.01675781 2.7207031,0.02539062 0.9016992,0.0045117 1.8033984,0.0090234 2.732422,0.01367188 2.235091,0.01182588 4.470052,0.02830592 6.705078,0.04882812 2.717437,10.66160264 5.353999,21.33790364 7.8125,32.06249964 0.218738,0.945044 0.437476,1.890088 0.662842,2.86377 0.200207,0.881558 0.400415,1.763115 0.606689,2.671387 0.177649,0.778674 0.355298,1.557348 0.53833,2.359619 0.379639,2.042724 0.379639,2.042724 0.379639,5.042724 -5.61,0 -11.22,0 -17,0 -0.495,-3.465 -0.495,-3.465 -1,-7 -6.93,0 -13.86,0 -21,0 -0.99,2.475 -0.99,2.475 -2,5 -0.33,0.66 -0.66,1.32 -1,2 -5.61,0 -11.22,0 -17,0 1.623351,-3.246702 3.301289,-6.074159 5.308594,-9.078125 0.659919,-0.989275 1.319839,-1.978549 1.999756,-2.997802 0.702619,-1.047444 1.405239,-2.094888 2.12915,-3.174073 0.714866,-1.068713 1.429731,-2.137426 2.16626,-3.238525 4.246602,-6.337764 8.515837,-12.659551 12.83374,-18.9489746 C -6.9664966,7.0150586 -6.5128271,6.3540918 -6.0454102,5.6730957 -2.2234114,0.13587677 -2.2234114,0.13587677 0,0 Z"
         fill="#f4e139"
         transform="translate(143.85767,351.88647)"
         id="path11" /><path
         d="M 0,0 C 1.0415625,-0.01998047 2.083125,-0.03996094 3.15625,-0.06054688 9.6042071,-0.0564762 14.662421,0.63421472 20,4.4375 c 4.739407,5.1039771 5,6.635187 5,14 -5.61,0 -11.22,0 -17,0 -0.66,-1.65 -1.32,-3.3 -2,-5 -1.6669899,-2.235728 -2.4904276,-2.893097 -5.234375,-3.46875 -5.3561681,-0.066536 -9.164629,0.349345 -13.359375,3.851563 -3.440108,3.956124 -4.292584,8.253194 -4.71875,13.367187 0.290692,3.023199 0.599384,4.775499 2.3125,7.25 3.707597,1.853799 7.9537349,1.459239 12,1 3.85544798,-1.996571 5.5980509,-3.397076 8,-7 2.9506415,-0.220856 5.683682,-0.28061 8.625,-0.1875 1.202695,0.0203 1.202695,0.0203 2.429687,0.04102 1.982057,0.03539 3.963769,0.0892 5.945313,0.146484 -1.245138,4.686003 -2.675378,7.12806 -6.375,10.25 -0.770859,0.665156 -1.541719,1.330312 -2.335937,2.015625 -9.1958572,6.967509 -22.1827878,6.848299 -33.160157,5.339844 -5.473244,-1.291253 -9.42731,-3.567634 -12.902343,-8.039063 -2.93404,-6.139057 -2.255056,-13.017863 -0.402344,-19.410156 3.390391,-7.708679 9.175347,-13.2420403 16.71875,-16.8515625 C -11.064205,-0.14401051 -5.6561685,-0.03850115 0,0 Z"
         fill="#f6e238"
         transform="translate(93,351.5625)"
         id="path12" /><path
         d="m 0,0 c 16.17,0 32.34,0 49,0 -0.66,3.3 -1.32,6.6 -2,10 -8.415,0.495 -8.415,0.495 -17,1 -2.31,11.22 -4.62,22.44 -7,34 -5.28,0 -10.56,0 -16,0 0.6714527,-4.700169 1.4095778,-9.188902 2.4101563,-13.808594 0.2674804,-1.240722 0.5349609,-2.481445 0.8105467,-3.759765 0.277793,-1.276817 0.555586,-2.553633 0.841797,-3.869141 0.284728,-1.317009 0.569235,-2.634066 0.853516,-3.951172 C 12.608508,16.407083 13.303962,13.203477 14,10 9.05,10 4.1,10 -1,10 -1,3 -1,3 0,0 Z"
         fill="#f3e039"
         transform="translate(431,352)"
         id="path13" /><path
         d="M 0,0 C 2,1 2,1 3.2890625,4.2734375 3.7421613,5.6380643 4.1871379,7.0054082 4.625,8.375 4.9691797,9.4036719 4.9691797,9.4036719 5.3203125,10.453125 6.28795,13.413635 7,15.866085 7,19 c 6.93,0 13.86,0 21,0 -3.191035,3.191035 -6.113002,5.652145 -9.75,8.25 -0.984844,0.706406 -1.969688,1.412812 -2.984375,2.140625 C 14.517969,29.921719 13.770312,30.452812 13,31 13.434722,36.868743 14.81305,41.5026 17.160156,46.898437 18,49 18,49 18,51 13.397993,48.958265 9.7499277,45.717195 5.8515625,42.582031 3.1130839,40.765529 3.1130839,40.765529 0.046875,40.976562 -3.6419249,42.215621 -6.3839338,44.151184 -9.375,46.5625 c -0.5452734,0.424746 -1.090547,0.849492 -1.652344,1.287109 C -12.359513,48.889636 -13.680904,49.943442 -15,51 c -1.109606,-3.328817 -0.94129,-3.873643 0.214844,-7.011719 0.273926,-0.757324 0.547851,-1.514648 0.830078,-2.294922 0.294551,-0.785683 0.589101,-1.571367 0.892578,-2.380859 0.436025,-1.195928 0.436025,-1.195928 0.880859,-2.416016 C -11.462607,34.927982 -10.732363,32.963582 -10,31 -10.542695,30.7525 -11.085391,30.505 -11.644531,30.25 -14.517087,28.725592 -17.056626,26.910808 -19.6875,25 -20.660742,24.29875 -21.633984,23.5975 -22.636719,22.875 -25,21 -25,21 -26,19 c 6.93,0 13.86,0 21,0 0.33,-2.64 0.66,-5.28 1,-8 C -3.0273438,7.8125 -3.0273438,7.8125 -1.9375,5 -1.5752734,4.05125 -1.2130469,3.1025 -0.83984375,2.125 -0.56269531,1.42375 -0.28554688,0.7225 0,0 Z"
         fill="#0c5aa0"
         transform="translate(498,229)"
         id="path14" /><path
         d="m 0,0 c 2.0571951,1.203678 3.80371,2.2543792 5.453125,3.9765625 0,0.99 0,1.98 0,3 -1.7480469,1.5275879 -1.7480469,1.5275879 -4.21875,3.1601565 -0.91394531,0.612466 -1.82789062,1.224931 -2.7695312,1.855957 -0.9938672,0.654682 -1.9877344,1.309365 -3.0117188,1.983887 -2.0527065,1.393613 -4.1047758,2.788166 -6.15625,4.183593 -2.113757,1.4192 -4.228349,2.837158 -6.34375,4.253906 -1.082812,0.731543 -2.165625,1.463086 -3.28125,2.216797 -1.03125,0.690293 -2.0625,1.380586 -3.125,2.091797 -1.397021,0.938639 -1.397021,0.938639 -2.822266,1.89624 -2.271484,1.357666 -2.271484,1.357666 -4.271484,1.357666 -2.510598,-3.765896 -2.492063,-7.642862 -2,-12 1.552221,-7.408326 5.827217,-11.9513496 11.8125,-16.3242183 C -14.500777,-2.048855 -6.7502538,-2.7125253 0,0 Z"
         fill="#0858a2"
         transform="translate(107.54688,232.02344)"
         id="path16" /><path
         d="M 0,0 C 2.6044435,-0.05394705 5.20777,-0.09364469 7.8125,-0.125 8.5504883,-0.1417578 9.2884766,-0.1585156 10.048828,-0.1757813 13.912464,-0.21074628 15.709037,-0.19397555 19,2 c -0.3125,3.375 -0.3125,3.375 -1,7 -3.046811,2.031207 -3.601183,2.246599 -7.011719,2.195313 -0.757324,-0.0064 -1.5146482,-0.01289 -2.2949216,-0.01953 C 7.9076758,11.159023 7.1219922,11.142266 6.3125,11.125 5.5152148,11.115977 4.7179297,11.106953 3.8964844,11.097656 1.930861,11.074116 -0.03460775,11.038245 -2,11 -1.34,7.37 -0.68,3.74 0,0 Z"
         fill="#0b5aa0"
         transform="translate(279,361)"
         id="path17" /><path
         d="M 0,0 C 0.78955078,-0.01224609 1.5791016,-0.02449219 2.3925781,-0.03710938 4.4505743,-0.04237279 6.5081201,0.06543715 8.5625,0.1875 c 2,2 2,2 2.375,4.4375 -0.375,2.5625 -0.375,2.5625 -1.8515625,4.2109375 C 5.3590866,10.832053 1.9667866,10.509343 -2.1875,10.375 -2.9802734,10.361465 -3.7730469,10.34793 -4.5898437,10.333984 -6.5393556,10.298752 -8.4885163,10.244948 -10.4375,10.1875 -10.297005,8.7078168 -10.149952,7.2287548 -10,5.75 -9.9187891,4.9262891 -9.8375781,4.1025781 -9.7539063,3.2539063 -9.0065706,-1.6268416 -3.9516773,0.00321014 0,0 Z"
         fill="#0d5b9f"
         transform="translate(396.4375,361.8125)"
         id="path18" /><path
         d="M 0,0 C 0.78955078,-0.01224609 1.5791016,-0.02449219 2.3925781,-0.03710938 4.4505743,-0.04237279 6.5081201,0.06543715 8.5625,0.1875 c 2,2 2,2 2.375,4.4375 -0.375,2.5625 -0.375,2.5625 -1.8515625,4.2109375 C 5.3590866,10.832053 1.9667866,10.509343 -2.1875,10.375 -2.9802734,10.361465 -3.7730469,10.34793 -4.5898437,10.333984 -6.5393556,10.298752 -8.4885163,10.244948 -10.4375,10.1875 -10.297005,8.7078168 -10.149952,7.2287548 -10,5.75 -9.9187891,4.9262891 -9.8375781,4.1025781 -9.7539063,3.2539063 -9.0065706,-1.6268416 -3.9516773,0.00321014 0,0 Z"
         fill="#0e5b9f"
         transform="translate(206.4375,361.8125)"
         id="path19" /><path
         d="m 0,0 c 2.8579332,2.8579332 2.4079994,5.1466558 2.625,9.125 0.074766,1.281328 0.1495313,2.562656 0.2265625,3.882813 C 2.9250391,14.488945 2.9250391,14.488945 3,16 -0.96,16 -4.92,16 -9,16 -6.2765544,10.401806 -3.6055989,5.0745465 0,0 Z"
         fill="#135e9d"
         transform="translate(338,364)"
         id="path20" /><path
         d="m 0,0 c 2.8579332,2.8579332 2.4079994,5.1466558 2.625,9.125 0.074766,1.281328 0.1495313,2.562656 0.2265625,3.882813 C 2.9250391,14.488945 2.9250391,14.488945 3,16 -0.63,16 -4.26,16 -8,16 -7.0484056,11.242028 -6.0424968,9.118677 -3.4375,5.1875 -2.7968359,4.2116797 -2.1561719,3.2358594 -1.4960937,2.2304688 -0.75552734,1.1263867 -0.75552734,1.1263867 0,0 Z"
         fill="#135e9c"
         transform="translate(148,364)"
         id="path21" /></g></g></svg>
