<svg xmlns="http://www.w3.org/2000/svg" width="24" height="24"><path fill="#FFF" fill-rule="evenodd" d="M7.91 4.67c-.64.32-.77 1.21-.27 1.8.2.24.31.27.82.28h.59l.03-.34c.03-.32.02-.33-.22-.27-.4.1-.66-.09-.66-.49s.1-.49.57-.47c.3.01.33-.01.33-.27 0-.21-.06-.3-.22-.35a1.2 1.2 0 0 0-.97.11m5.79-.1a.7.7 0 0 0-.5.69q0 .57.6.69c.48.1.36.28-.15.23-.44-.05-.45-.05-.45.22 0 .33.14.4.81.4.4 0 .55-.05.76-.26.43-.43.18-1.04-.5-1.18-.44-.09-.33-.3.13-.23.38.05.4.04.4-.23q-.01-.26-.16-.34a2 2 0 0 0-.94.01m3.35.06q-.55.25-.55 1.13c0 .87.87 1.32 1.7.89.56-.29.65-1.38.16-1.84-.3-.28-.9-.36-1.31-.18M3 5.7v1.1h1.7v-.3c0-.29-.02-.3-.45-.3-.54 0-.6-.18-.08-.22.33-.03.38-.07.41-.3.03-.27.01-.28-.37-.28-.54 0-.53-.18.02-.22.38-.03.42-.06.45-.3l.03-.28H3zm2.1-1.05c0 .03.12.27.27.53l.27.49-.32.5c-.18.27-.32.53-.32.56s.18.07.4.07c.34 0 .42-.04.56-.32.15-.3.18-.31.28-.15.27.46.32.48.73.45l.42-.03-.34-.55-.34-.55.3-.52.3-.53h-.4c-.34 0-.43.04-.55.27l-.14.28-.13-.28c-.1-.23-.18-.27-.56-.27-.23 0-.43.02-.43.05M9.5 5.7v1.1h1.7v-.3c0-.3-.01-.3-.5-.3-.27 0-.5-.04-.5-.1 0-.05.18-.1.4-.1q.41 0 .4-.14c0-.08.03-.21.06-.3.05-.13-.02-.16-.4-.16-.25 0-.46-.04-.46-.1 0-.05.2-.1.45-.1.43 0 .45-.01.45-.3v-.3H9.5zm2 0v1.1h1.4v-.3c0-.27-.03-.3-.3-.3h-.3V4.6h-.8zm3.8 0v1.1h.8V4.6h-.8zm3.7 0v1.1h.34c.33 0 .35-.02.38-.37.04-.48.34-.59.43-.16.12.5.14.53.5.53h.37l-.07-.37a1.3 1.3 0 0 0-.22-.55c-.12-.14-.13-.17 0-.25.26-.15.29-.48.06-.76-.19-.25-.26-.27-1-.27H19zm.74-.55c-.08.2.02.45.2.45.07 0 .2-.07.26-.15.1-.12.1-.18 0-.3-.07-.08-.19-.15-.27-.15q-.12.02-.2.15m-2.32.14c-.22.4-.07 1 .22.88.17-.06.25-.42.17-.76-.07-.32-.26-.37-.4-.12m-1.38 2.2c-.1.17-.26.32-.37.33-.18.03-.2.12-.23 1.1L15.4 10h1.82l-.03-.27c-.03-.26-.07-.28-.5-.31-.55-.04-.56-.22-.02-.22.3 0 .34-.03.34-.24s-.05-.25-.37-.28c-.56-.05-.55-.28.01-.28.44 0 .46-.01.46-.3s-.02-.3-.4-.3h-.4l.32-.3.33-.3h-.38c-.32 0-.4.05-.55.3m-8.53.3a1 1 0 0 0-.8 1q0 1.2 1.17 1.2h.53v-.33c0-.31-.02-.33-.28-.3a.5.5 0 0 1-.62-.5q0-.48.57-.47c.3 0 .33-.03.33-.29 0-.24-.05-.3-.28-.33a2 2 0 0 0-.62.03m1.8.36c-.05.2-.2.7-.34 1.1L8.7 10h.4c.32 0 .42-.04.46-.2q.05-.2.33-.2t.35.2c.05.16.15.2.46.2q.39 0 .38-.12c0-.07-.15-.56-.32-1.08l-.32-.95-.52-.03-.52-.03zm2.16-.3c-.04.03-.07.53-.07 1.1V10h.4c.39 0 .4 0 .4-.35s.01-.35.4-.35c.3 0 .4-.04.45-.2.1-.3-.02-.4-.46-.4-.55 0-.47-.24.1-.28.38-.03.41-.05.41-.33V7.8h-.78c-.43 0-.82.03-.85.07m2 0c-.04.03-.07.53-.07 1.1V10h.45c.45 0 .45 0 .45-.34 0-.33.02-.35.38-.38.32-.03.37-.07.4-.3.03-.27.01-.28-.37-.28-.3 0-.41-.04-.41-.15s.12-.15.46-.15c.44 0 .45-.01.42-.28s-.04-.27-.83-.3c-.45-.01-.84 0-.88.04M7.9 11.12c-.78.4-1.14 1.2-.68 1.52.27.2.43.2.83.02.3-.13.29-.13-.25-.12-.55.01-.55 0-.58-.3-.06-.57.5-1.14 1.13-1.14q.26-.01.25.2c0 .23-.37.5-.59.43q-.2-.08-.04.07c.1.12.17.1.4-.06q.63-.46.29-.7c-.25-.18-.24-.18-.76.09m1.98.58c-.5.62-.76.89-.87.89q-.1-.01-.05-.14.04-.14-.05-.2-.1-.05-.11.08 0 .14-.12.22t-.04-.1q.09-.23-.09-.06-.38.3.24.27l.4-.03-.2.28c-.24.33-.55.52-.75.44q-.13-.04-.14.04c0 .25.47.06.88-.36.42-.41.49-.45.82-.39.3.05.4.02.55-.16l.2-.23-.25.17c-.28.2-.5.23-.32.05.2-.2.14-.33-.06-.15-.1.1-.25.17-.33.17-.07 0 .1-.2.39-.46.51-.45.66-.74.38-.74-.08 0-.3.19-.48.41m3.28-.04c-.36.37-.53.73-.42.91a9 9 0 0 0 2.49-.02q.16-.09.17-.19-.02-.07-.2.08c-.27.24-.37.12-.16-.2q.16-.26.49-.26.27 0 .17-.06l-.2-.14c-.04-.05-.28.12-.55.39-.4.37-.5.43-.53.3-.03-.16-.05-.17-.25-.03-.25.17-.41.2-.32.05.15-.24-.08-.3-.4-.1-.38.24-.5.25-.58.06q-.05-.15.07-.1c.16.06 1-.83.9-.96q-.13-.28-.68.27m.05.08q-.46.54-.23.55c.13 0 .72-.64.72-.78q0-.31-.49.23m-2.28.6c-.13.09-.23.2-.23.24 0 .05.33.08.74.08.58 0 .78-.04.97-.2l.24-.2-.27.17c-.35.2-.42.2-.34 0q.1-.23-.15.02c-.2.17-.22.17-.16.01.06-.17.05-.17-.15-.02-.3.2-.36.2-.4-.05-.03-.2-.04-.2-.25-.05"/></svg>