<svg xmlns="http://www.w3.org/2000/svg" width="24" height="24"><path fill="#FFF" fill-rule="evenodd" d="M7.65 2.15c-.53.2-1.09.77-1.37 1.39-.2.45-.23.66-.23 1.76 0 .89.06 1.5.2 2.1.11.47.2.89.2.94s-.2.16-.45.25c-.37.14-.45.21-.45.41 0 .21.04.25.3.24.17 0 .44-.04.6-.08.3-.07.3-.06.54.59.34.96 1.08 2.37 1.84 3.52.81 1.21 1 1.4 1.22 1.23q.13-.13.15-.25c0-.08-.34-.63-.75-1.24a17 17 0 0 1-1.82-3.4c-.26-.7-.23-.8.27-.81.14 0 .35-.03.47-.06.23-.06.23-.04.23.77q.02 2.16.58 1.83c.18-.12.18-.14.07-1.66l-.08-.98h.79l.5 1.28c.46 1.16.52 1.27.77 1.3.38.05.36-.16-.13-1.46-.39-1.03-.4-1.21-.07-1.22.11 0 .08-.35-.05-.48-.07-.07-.24-.12-.38-.12-.23 0-.31-.11-.7-.92-.5-1.02-.75-1.38-.95-1.38-.25 0-.37.4-.4 1.39l-.02.96-.44.07c-.98.15-.96.16-1.14-.64-.57-2.46-.37-3.87.62-4.54.96-.65 2.8-.2 3.82.91.48.54.73.66.86.44.24-.38-.64-1.32-1.72-1.86a3 3 0 0 0-1.6-.4c-.62-.02-1 .02-1.28.12m7.8 2.37c-.22.11-.55.34-.74.5s-.44.34-.56.4c-.3.14-.43 1.08-.2 1.53.08.16.28 1.2.45 2.3s.33 2.08.36 2.18c.06.2.5.23.57.04.02-.07-.04-.72-.15-1.45-.23-1.53-.3-1.38.76-1.92.7-.35 1.32-.4 1.67-.11.73.59-.4 2.4-2.7 4.32a27 27 0 0 1-4 2.74c-.8.4-.99.58-.81.8.2.24.38.19 1.34-.36 2.66-1.51 5.28-3.67 6.36-5.24.42-.62.7-1.34.7-1.85 0-.75-.92-1.42-1.72-1.26-.15.03-.28.04-.28.02l.3-.68c.58-1.22.32-2.19-.57-2.18a2 2 0 0 0-.78.22m.3.58c-.23.11-.58.38-.8.6l-.38.39.13.9c.07.5.16.91.2.91.14 0 .99-.98 1.2-1.39.27-.54.42-1.32.28-1.48-.14-.17-.16-.17-.64.07m-3.56.2c-.5.15-1.08.53-1.08.7 0 .1.1.24.2.31.2.13.23.35.43 2.52l.21 2.37-.22.16q-.39.28-.07.54c.27.22.93-.05 1.46-.6.62-.63.89-1.22.89-1.92 0-.66-.26-1.05-.91-1.39l-.4-.2.3-.37c.17-.2.37-.53.45-.73a1.02 1.02 0 0 0-1.26-1.4m.04.7c-.14.08-.06 1.21.09 1.21.16 0 .51-.62.53-.93 0-.27-.03-.32-.24-.35a1 1 0 0 0-.38.06m.24 3.49c.1 1.52.14 1.6.53.99.58-.93.52-1.5-.2-1.86l-.4-.21z"/></svg>