<svg xmlns="http://www.w3.org/2000/svg" width="24" height="24"><path fill="#FFF" fill-rule="evenodd" d="M6.05 3.58C3.3 5.25 3 5.5 3 6.17c0 .38.25.93.41.93.19 0 4.82-2.82 5.17-3.14.43-.4.58-.94.4-1.49-.07-.22-.18-.42-.23-.43s-1.27.68-2.7 1.54M9 4.6c-.18.18-.2.33-.2 1.5s.02 1.32.2 1.5c.11.11.31.2.45.2.24 0 .25-.02.25-.7v-.69l.53-.03c.5-.03.52-.04.55-.35l.03-.33h-.55c-.53 0-.56-.01-.56-.25 0-.22.04-.25.4-.25.63 0 .9-.15.9-.5v-.3h-.9c-.77 0-.93.03-1.1.2m2.66.23c-.3.5-.86 2.14-.86 2.5 0 .3.22.5.52.45.18-.02.24-.1.28-.38.05-.35.05-.35.62-.38.55-.03.56-.03.63.28q.1.5.7.5c.24 0 .26-.02.2-.37-.04-.21-.23-.87-.42-1.47-.39-1.2-.64-1.56-1.12-1.56-.25 0-.35.07-.55.42m2.67-.35c-.23.04-.23.07-.23 1.53 0 1.48 0 1.5.25 1.66.44.29.6.16.63-.54.02-.34.05-.62.08-.62.2 0 .43.26.58.65.18.47.4.65.76.65.33 0 .33-.23 0-.9l-.3-.64.22-.23c.33-.35.3-.95-.05-1.3-.24-.25-.35-.28-1-.3-.4 0-.82 0-.94.04m3.04 0c-.14.22-.31 2.84-.2 3.01.11.19.6.4.69.3.03-.04.09-.48.12-1l.07-.93.3.85c.24.66.36.88.58 1 .27.14.3.14.47-.08.1-.13.3-.55.42-.94.2-.65.24-.69.3-.42.03.16.06.5.07.76q.02.78.57.78c.24 0 .24 0 .23-.97 0-1.42-.11-2.03-.39-2.25-.5-.4-.75-.17-1.2 1.1-.31.86-.25.9-.67-.28a2 2 0 0 0-.38-.68c-.22-.24-.88-.4-.98-.25M5.87 6.25a38 38 0 0 0-1.97 1.3c-.1.1-.27.37-.36.62-.14.37-.15.5-.05.84.07.22.18.42.25.45.2.07 3.8-2.22 4.02-2.54.27-.4.3-1.32.08-1.58l-.19-.21zM15 5.5c0 .3.02.31.33.28.27-.02.32-.07.32-.28 0-.2-.05-.26-.32-.28-.3-.03-.33-.01-.33.28m-2.94.24c-.09.21-.14.4-.12.43s.18.03.35.01l.3-.03-.18-.4-.18-.4zM19.4 9.2c0 .84-.03 1.02-.16 1.07q-.41.14-.58-.58c-.1-.36-.17-.47-.48-.62-.33-.16-.4-.17-.71-.03q-.57.23-.57.78 0 .48-.52.48c-.27 0-.28-.02-.28-.45q0-.46-.15-.51c-.13-.05-.13-.08 0-.21.28-.28-.1-.69-.4-.44-.19.17-.2.26 0 .45q.15.15.06.16c-.06 0-.11.34-.13.82-.03.78-.04.83-.26.86-.28.04-.27.39 0 .56.23.14.68-.1.82-.4.1-.21.66-.37 1.24-.35.55.03.79.03 1.02 0 .14 0 .42.02.62.06.51.1.94-.09 1.07-.47.06-.17.11-.66.11-1.09 0-.82-.12-1.09-.5-1.09-.18 0-.2.08-.2 1m1 .25c0 1.13.02 1.25.2 1.35.38.2.4.14.4-1.19 0-1.08-.03-1.3-.16-1.35-.42-.16-.44-.12-.44 1.19m-11.2-1c-.11.14-.11.2-.01.37s.1.24-.1.45c-.3.3-.32.92-.05 1.22.1.12.35.25.55.3.39.12 3.2.15 3.45.05.09-.03.16-.17.16-.3 0-.21-.05-.23-.57-.26-.56-.03-.58-.04-.61-.32-.02-.16.01-.33.06-.38.16-.16.6 0 .67.22.09.27.22.25.3-.05.13-.55-.48-.98-1.05-.75q-.6.24-.6.92c0 .36-.01.38-.34.38-.32 0-.34-.02-.39-.41a1.4 1.4 0 0 0-.29-.66q-.24-.26-.1-.3c.06-.03.12-.15.12-.28 0-.3-.38-.45-.56-.2-.1.14-.12.14-.17 0-.08-.2-.31-.2-.48 0m-3.69.62c-1.08.66-1.4 1.05-1.4 1.67 0 .42.22.86.42.86.27 0 1.8-1.07 2-1.39.25-.4.28-1.03.07-1.44l-.15-.27zm8.5 1.07c0 .8-.01.85-.22.88-.28.04-.33.21-.13.42q.36.34.8-.09c.22-.21.25-.33.25-1.03 0-.83-.09-1.02-.47-1.02-.22 0-.23.03-.23.84M9.45 9.7c-.06.19.02.5.14.51l.29.06c.2.06.22.03.22-.23 0-.16-.05-.34-.12-.41-.18-.18-.46-.14-.53.07m8.1-.05a1 1 0 0 0-.03.38q.02.24.28.23c.22 0 .25-.04.25-.35 0-.29-.04-.36-.23-.38q-.2-.02-.28.12m-.27 5.17c-.48.37-.26 1.09.34 1.09.54 0 .85-.59.52-.97q-.42-.48-.86-.12m1.23.38v.29h.95c.53 0 1.01.04 1.08.1q.11.1.3-.02c.26-.2.22-.46-.07-.46-.13 0-.27-.06-.3-.12q-.04-.15-.16.02t-.17.03c-.06-.17-.23-.16-.23.01q0 .14-.2.09-.18-.06-.2-.14t-.15-.09-.15.1-.25.1-.25-.1a.1.1 0 0 0-.1-.1c-.06 0-.1.13-.1.29"/></svg>