<svg xmlns="http://www.w3.org/2000/svg" width="24" height="24"><path fill="#FFF" fill-rule="evenodd" d="M5.97 4.4c-.1.06-.25.27-.36.47-.16.32-.23.37-.57.37s-.4.05-.42.24c-.03.2.01.22.32.22.43 0 .44.07.16 1l-.2.68c0 .02.12.02.27 0 .24-.03.28-.1.48-.83.18-.68.25-.8.45-.85.32-.08.4-.4.1-.47q-.36-.07-.04-.37c.2-.2.3-.2.54.04.2.2.5.17.5-.05 0-.2-.5-.55-.79-.55-.14 0-.34.05-.44.1m.98.9a1 1 0 0 0-.35.25c-.12.14-.12.18 0 .26.2.11.27.11.35-.01s.45-.13.45-.01c0 .05-.17.12-.37.16-.45.08-.83.4-.83.7 0 .34.2.44.87.43h.62l.1-.5c.17-.76.14-1.05-.11-1.22-.25-.18-.42-.19-.73-.06m2.9-.03-.41.04-.17.82c-.21 1.02-.21.99.05.95.17-.02.24-.14.33-.55q.19-.84.53-.83c.12 0 .14.09.09.48l-.13.7c-.05.19-.02.22.19.22.22 0 .26-.06.36-.6.1-.49.17-.63.37-.72.34-.16.38-.07.25.52-.15.7-.14.8.09.8q.2 0 .25-.22c.28-1.26.28-1.4-.07-1.59q-.19-.1-.53.01t-.54 0c-.1-.05-.21-.1-.23-.08zm2.66.11c-.18.1-.35.23-.37.3-.06.15.26.23.47.12.24-.13.5-.13.5 0 0 .06-.1.1-.2.1-.66 0-1.23.57-1 1 .09.16.21.2.78.19h.68l.12-.7c.14-.78.1-.92-.24-1.08-.32-.14-.33-.14-.74.07m1.79-.03c-.48.26-.75.88-.58 1.33.13.33.26.42.66.42.36 0 .9-.4.79-.58-.1-.16-.31-.15-.46.03-.17.2-.47.19-.55-.04-.13-.42.4-1 .68-.72.13.13.44.14.51.02.09-.14-.26-.5-.54-.55a1 1 0 0 0-.51.09m2.41.03c-.18.1-.35.22-.37.28-.05.16.28.27.4.14.13-.12.47-.13.47-.01 0 .05-.17.12-.37.16-.45.08-.83.4-.83.7 0 .34.2.44.87.43h.62l.1-.5q.21-.97-.02-1.16-.37-.3-.87-.04m1.63-.03q-.32.14-.39.4c-.08.31.04.46.49.6.18.07.31.16.3.2-.03.17-.36.18-.47.02-.15-.2-.58-.04-.5.18q.15.34.78.35c.71 0 1.04-.75.47-1.05a1 1 0 0 0-.45-.15q-.15 0-.16-.1c0-.13.43-.13.56 0s.44.02.44-.16c0-.13-.49-.44-.67-.44-.04 0-.22.07-.4.15m-10.27.78c-.2 1.03-.2.99.06.95q.22-.04.26-.23c.13-.75.23-.95.57-1.1.55-.22.46-.44-.19-.44h-.54zm7.45-.33c-.06.27-.14.68-.17.9-.06.4-.06.42.17.38.2-.03.25-.12.36-.68l.18-.87c.04-.2.01-.23-.19-.23s-.26.07-.35.5m1.2 2.05a5 5 0 0 0-.61 1.5c0 .24-.12.45-.26.45q-.15 0-.08-.24.14-.55-.37-.76c-.45-.19-.73-.01-1.06.67-.34.7-.76 1-.98.7q-.2-.3.14-.96c.14-.25.36-.29.26-.04l-.13.38c-.05.19-.04.2.19.04q.25-.16.24-.5c0-.3-.04-.34-.27-.37-.43-.05-.64.13-.97.83-.17.36-.35.65-.41.65-.15 0-.12-.41.05-.9.17-.47.13-.6-.16-.6-.22 0-.35.28-.49 1-.15.8.18 1.13.72.7.24-.18.24-.18.36 0 .18.29.74.26 1.08-.04l.28-.23.19.23c.25.32.7.32 1.01-.01.13-.14.3-.25.39-.25.08 0 .22.11.31.25.19.29.51.32.78.08.17-.15.2-.15.36 0 .23.21.4.21.62.02.15-.14.18-.14.3 0 .16.2.49.2.7 0 .15-.14.18-.14.3 0 .14.17.62.2.9.05q.2-.12.2-.38c0-.33-.07-.42-.44-.66-.28-.18-.29-.2-.1-.32.27-.21.47-.18.4.07q-.05.22.12.17.17-.03.17-.33c0-.28-.03-.3-.38-.33-.82-.07-1.16.56-.54 1l.37.26c.06.04-.3.32-.42.32-.04 0-.17-.1-.29-.2-.2-.2-.21-.2-.34-.03-.23.3-.29.06-.13-.52l.16-.56-.35-.14c-.2-.08-.43-.15-.52-.15-.24 0-.55.36-.81.93-.22.46-.5.73-.64.6-.12-.12-.05-.32.29-.83.59-.88.73-1.72.29-1.78q-.22-.03-.42.23M4.35 7.9q-.65.42-.65.98c0 .27.1.45.56.92.33.35.53.64.49.7-.11.18-.86.5-1.2.5-.27 0-.28 0-.1-.2.22-.24.08-.26-.23-.04-.27.19-.28.36-.02.59.24.21.8.15 1.4-.15.86-.44.88-.97.08-1.72-.6-.57-.6-.82 0-1.23L5.05 8l.03.24A1 1 0 0 1 5 8.7c-.16.3.14.26.4-.06q.4-.5-.02-.78c-.3-.21-.67-.2-1.03.04m5.67-.08c-.17.17-.15.31.04.24q.19-.1.1.16c-.2.67-.47 2.15-.44 2.37.04.34.35.4.42.1l.22-1.03c.13-.63.24-.87.51-1.17.2-.22.39-.37.43-.34s0 .39-.1.8c-.36 1.47-.43 2.2-.26 2.59s.5.49.74.24c.2-.2.15-.4-.08-.33-.18.06-.2.02-.2-.45 0-.28.13-1.05.3-1.7s.27-1.25.24-1.34c-.1-.26-.63-.3-.93-.08-.27.2-.28.2-.4.01a.38.38 0 0 0-.59-.07m2.4.25c-.17.06-.16.53.02.53.07 0 .2-.07.26-.15.11-.13.1-.18 0-.3q-.15-.1-.27-.08m6.11.28c-.1.14-.14.29-.1.32.08.08.58-.28.58-.42-.02-.21-.32-.15-.48.1m-12.72.58c-.4.42-.56 1.29-.3 1.55.17.17.55.15.66-.04.08-.14.1-.14.21 0 .17.2.55.2.72 0 .11-.14.13-.14.21 0q.24.41.5-.31c.1-.27.24-.57.33-.68l.17-.2-.07.2c-.04.11-.1.43-.12.7-.04.4-.01.55.12.69.24.23.6.17.63-.11q.05-.24-.12-.17-.33.14.05-.96c.17-.48.18-.64.09-.75-.19-.23-.46-.18-.7.11q-.2.27-.2.11c0-.17-.3-.32-.4-.2-.04.04-.14.29-.24.54-.2.55-.42.87-.52.77-.06-.07.05-.57.23-1.04q.04-.13-.32-.29c-.5-.2-.68-.2-.93.08m.44.14a2 2 0 0 0-.36 1.01c0 .25 0 .26.14.07.24-.34.44-.92.37-1.04q-.07-.1-.15-.04m11.7.16c-.1.15-.2.46-.23.7-.05.39-.04.4.1.22.25-.34.45-.92.37-1.05q-.07-.15-.25.13m2.59 1.02c-.04.09-.02.21.04.27.15.15.44.01.4-.2s-.36-.28-.44-.07M3.96 12.72c-.04.09-.06.3-.04.45.03.27.05.28.6.29.57 0 .58 0 .58-.28 0-.31-.24-.48-.43-.3q-.12.13.03.12c.2 0-.2.3-.42.3q-.18.02-.2-.37-.04-.4-.12-.21m2.67.07q-.15.2 0 .23.09.05-.05.1-.17.06-.23-.1c-.04-.14-.15-.19-.45-.18-.4 0-.4.01-.39.36q0 .31.06.15c.07-.3.23-.42.23-.18 0 .12.05.25.1.28q.1.04.1-.2c0-.13.05-.25.1-.25q.1.02.1.23c0 .22.03.23.65.22q1.07 0 .6-.3Q7.3 13 7.39 13q.11 0 .12-.1-.02-.1-.15-.1c-.21 0-.31.3-.14.4q.18.11-.01.1c-.08 0-.22-.16-.3-.35-.14-.32-.16-.33-.27-.16m2.83-.03c-.1.07-.23.11-.27.08s-.09.11-.09.31q0 .34.1.3c.06-.03.1-.15.1-.26 0-.27.18-.24.22.04q.01.23.3.22.28 0 .28-.15-.02-.2.1 0 .09.15.65.16c.54 0 .55 0 .55-.27 0-.15-.07-.3-.16-.33-.2-.08-.4.04-.24.14q.12.07-.04.13-.17.1-.16-.23c0-.17-.04-.3-.1-.3a.1.1 0 0 0-.1.1q-.02.1-.14.1c-.08 0-.2.08-.25.18q-.1.2-.12.02v-.27q0-.12-.09-.13c-.05 0-.1.16-.1.35 0 .2-.05.35-.11.35q-.1-.02-.05-.23c.08-.33-.05-.48-.28-.31m3.13.17q.02.42-.1.1c-.04-.13-.15-.23-.24-.23-.2 0-.36.4-.24.56.05.07.29.1.52.1.54-.04.53-.04.39-.18-.07-.07-.12-.25-.12-.4 0-.4-.2-.35-.2.04m2.3-.1c0 .17-.02.19-.16.07-.13-.1-.2-.1-.36 0q-.2.13-.27.03c-.03-.05-.25-.1-.48-.1-.4.01-.43.03-.43.29 0 .15.04.3.1.34q.1.03.1-.14 0-.2.1-.21.1.02.1.2c0 .28.2.25.2-.03.01-.22.01-.22.1.02q.11.26.22.13.1-.12.3.01c.16.1.22.09.34-.07q.13-.17.14-.08 0 .1-.1.17c-.15.1-.12.25.06.25.09 0 .18-.1.21-.2q.04-.24.2-.08c.11.1.19.09.35-.01.17-.1.22-.1.29 0q.08.15.2-.16c.05-.17.09-.32.07-.35-.06-.09-.28-.08-.28 0q-.02.09-.25-.02c-.19-.08-.28-.08-.4.02-.13.1-.15.1-.15-.09 0-.11-.04-.21-.1-.21-.05 0-.1.1-.1.21m4-.06q0 .16-.24.1c-.13-.04-.27-.02-.3.04q-.08.1-.2.04c-.15-.1-.96-.12-.96-.01q-.01.06-.19-.03c-.31-.2-.51-.04-.51.4 0 .46.05.49.4.21q.25-.2.37-.08.14.12.13-.1c0-.28.07-.28.3 0 .16.2.22.21.38.11.11-.06.23-.09.27-.05.1.1.75.09.75 0q.02-.07.2.02c.26.14.5.02.5-.25 0-.28-.34-.43-.55-.25q-.17.16-.15-.09c0-.11-.04-.21-.1-.21q-.09.02-.1.15m-10.93.12c-.13.13-.07.33.1.34q.23 0-.02.09c-.2.07-.2.08-.01.15q.17.07.26-.05t.14-.01c.04.06.18.1.32.09.2-.02.24-.08.24-.36q0-.3-.1-.27c-.05.03-.1.15-.1.26 0 .3-.18.23-.22-.08-.04-.27-.05-.27-.14-.06q-.09.24-.24.13t-.02-.1q.1 0 .12-.1c0-.11-.23-.14-.33-.03"/></svg>