<svg xmlns="http://www.w3.org/2000/svg" width="24" height="24"><path fill="#FFF" fill-rule="evenodd" d="M4.33 5.65c-.4.17-.63.6-.63 1.2 0 .45 0 .45-.35.45-.28 0-.35.04-.35.2s.07.2.35.2h.35v2.4c0 1.32.02 2.4.05 2.4l.4-.14.35-.15V7.7h1.08c.96 0 1.11-.02 1.27-.2.18-.2.17-.2-1.08-.2H4.5v-.49c0-.35.04-.5.16-.55.09-.03.82-.06 1.64-.06h1.5l.2-.26c.12-.15.21-.3.21-.35 0-.16-3.5-.1-3.87.06M17.9 7.9v1.72l-.49.48c-.26.27-.57.49-.68.49-.31 0-.48-.5-.37-1.08.1-.52.28-.65.4-.29.08.2.13.23.31.16.48-.18.13-.79-.44-.79q-.49 0-.87.8c-.1.2-.28.48-.41.65l-.25.3V8.6h-.39q-.37 0-.45.15-.06.14-.2.15-.12-.01-.2-.15c-.07-.2-.42-.2-.5 0-.08.22-.08.22.08.37.11.12.12.2.01.51-.07.2-.21.5-.31.64l-.19.28-.03-.87-.03-.88h-.34c-.33 0-.35.02-.35.32 0 .2-.12.48-.3.72l-.3.4V8.6h-.8v.53c0 .4-.06.59-.24.81l-.23.3-.43-.77q-.42-.77-.6-.77c-.1 0-.3.19-.46.42l-.29.42-.05-.45c-.07-.65-.28-.6-.85.18q-.96 1.35-1.27 1.33c-.36 0-.32-.3.1-.73.35-.37.62-.76.62-.9 0-.03-.07-.13-.16-.21-.2-.2-.56-.2-.92-.02-.3.15-.72.82-.72 1.14 0 .11-.07.27-.15.36-.18.18-.2.38-.03.34.07-.01.26.1.41.26.23.23.34.27.59.22q.63-.13 1.2-.93l.33-.46.05.67c.05.71.05.7.5.61.27-.06.3-.1.3-.46q0-.4.24-.76L9 9.38l.35.7c.46.9.67 1 1.12.46l.33-.38.03.4c.03.34.06.4.3.42.22.03.33-.06.65-.48l.38-.51.05.48c.04.43.08.48.31.51.47.05 1.02-.6 1.33-1.6.03-.1.15-.18.26-.18.18 0 .2.06.2.74 0 .94.05 1.06.41 1.06.22 0 .36-.1.58-.4.28-.4.29-.4.35-.15.09.34.45.65.76.65.3 0 1.18-.52 1.26-.75.12-.3.24-.14.24.3 0 .5 0 .5.35.33.21-.1.25-.18.26-.57v-.54c-.03-.2.33-.01 1.19.59l.93.66.19-.24c.1-.12.18-.25.18-.28s-.36-.29-.8-.58a6 6 0 0 1-.8-.59c0-.03.11-.18.25-.35q.41-.48.13-.76-.3-.3-.9.18c-.2.16-.36.24-.35.17l-.01-1.3-.02-1.17h-.6zm-3.5-.26c-.1.12-.1.18 0 .3.25.3.78.07.64-.29-.08-.2-.47-.2-.64-.01m4.42 1.32c-.3.44-.34.53-.23.53.16 0 .71-.5.71-.66 0-.23-.27-.16-.48.13m-12.71.21c-.06.12-.11.33-.11.48q-.01.3.14.15a1 1 0 0 0 .2-.38c.1-.34-.08-.52-.23-.25"/></svg>