<svg xmlns="http://www.w3.org/2000/svg" width="24" height="24"><path fill="#FFF" fill-rule="evenodd" d="m10.34 2.15.42 1.22c.32.95.36 1.15.32 1.82-.07 1.07-.34 1.55-1.71 2.99-.87.9-1.19 1.31-1.32 1.68-.33.93-.35.93-.32-.06.02-.91.04-1 .5-1.94.26-.54.45-1.02.41-1.05-.12-.12-1.24 1.25-1.59 1.95-.78 1.57-.94 3.14-.43 4.25.28.62 1.12 1.5 1.95 2.05.58.38 2 1 2.1.9.03-.03-.1-.38-.3-.79a3.7 3.7 0 0 1-.47-2.35c.13-.73.2-.84 1.25-1.94a7 7 0 0 0 1.24-1.62c.31-.64.6-1.71.61-2.31.01-.37.58 1.02.97 2.39l.26.89-.22.86a9 9 0 0 1-.9 2.24c-.12.28 1-.16 1.6-.64l.39-.3v.55c0 .7-.3 1.61-.75 2.32-.3.47-.32.54-.16.54.3 0 1.62-.92 2.19-1.53 2.08-2.22 1.66-5.42-1.1-8.53a18 18 0 0 0-4.14-3.34c-.74-.43-.9-.48-.8-.25"/></svg>