<svg xmlns="http://www.w3.org/2000/svg" width="24" height="24"><path fill="#FFFFFF" fill-rule="evenodd" d="M7.05 7.74c-.83.36-1.11 1.33-.58 1.97.44.51 1.33.8 1.33.41 0-.16.02-.16.15.02.11.15.21.17.5.12.42-.08 1.03-.58 1.11-.92.06-.23.07-.22.26.15.2.42.82.81 1.26.81.18 0 .22-.06.22-.34 0-.18-.07-.47-.15-.62a1 1 0 0 1-.14-.54l.01-.25.08.25.08.25.02-.25.02-.25.08.25.08.25.02-.25q0-.33.1-.05t.1-.05.1-.05c.08.22-.02.69-.2.9s-.03.75.21.75c.32 0 .82-.25 1.09-.55.2-.21.25-.37.25-.8s-.05-.59-.25-.8c-.8-.86-2.5-.7-3 .28-.1.23-.2.34-.2.25 0-.25-.5-.79-.87-.94a3 3 0 0 0-1.68 0M3 8.95v1.25h.35c.34 0 .35-.01.35-.4v-.4l1.03-.02 1.02-.03.03-.27.03-.28H3.7v-.6h2.4v-.5H3zm10.3 0v1.25h1.16c1.32 0 1.74-.13 2.05-.64q.36-.61-.01-1.24c-.3-.5-.71-.62-2.05-.62H13.3zm3.6 0v1.25h.6V7.7h-.6zm.9 0v1.25H21v-.5h-2.5v-.5h2.1v-.5h-2.1v-.5h2.4v-.5h-3.1zM7.66 8.28c-.34.38-.3 1 .1 1.39.09.1.16.07.32-.1.4-.43.37-1.13-.06-1.36-.15-.08-.23-.06-.36.07m6.24.67v.77l.86-.03c.76-.04.88-.07 1.05-.28a1 1 0 0 0 .19-.46 1 1 0 0 0-.2-.46c-.16-.21-.28-.24-1.04-.28l-.86-.03z"/></svg>