<svg xmlns="http://www.w3.org/2000/svg" width="24" height="24"><path fill="#FFFFFF" fill-rule="evenodd" d="M3.07 6.86c-.04.04-.07 1-.07 2.15v2.07l.4.04a2 2 0 0 0 .5 0c.06-.02.1-.37.1-.88V9.4h.34c.4 0 .53-.14.52-.6-.01-.34-.02-.35-.44-.38C4.04 8.39 4 8.37 4 8.1s.03-.3.42-.32l.43-.03v-.9L4 6.82c-.47-.01-.9 0-.93.04m2.34.08c-.08.1-.1.74-.09 2.12l.03 1.99.48.03.47.03v-.72c0-.4.03-.7.08-.65.04.04.18.35.32.7l.25.61.53.03q.5.03.52-.08c0-.06-.11-.38-.25-.7-.24-.57-.24-.62-.09-.85.43-.66.23-2.29-.32-2.54-.36-.16-1.79-.15-1.93.03m3.54-.04c-.06.1-.53 2.63-.72 3.83l-.06.37h.5c.53 0 .63-.08.63-.5q-.01-.21.25-.2.26-.01.25.2c0 .4.1.5.55.5.24 0 .47-.05.5-.1s0-.43-.09-.83L10.4 8.3c-.28-1.5-.28-1.5-.89-1.5-.27 0-.52.05-.55.1m2.71.05c-.86.45-.83 1.6.05 2.38.23.21.39.45.39.58 0 .2-.03.21-.49.15-.53-.07-.61 0-.6.52 0 .49.12.57.88.57.63 0 .73-.03.97-.26.28-.29.42-.96.3-1.44-.04-.15-.3-.51-.57-.8-.28-.3-.48-.59-.44-.64s.24-.11.46-.11h.4l-.03-.53-.03-.52-.5-.03c-.3-.01-.61.04-.79.13m2.44.03q-.6.3-.6.99c0 .5.17.84.67 1.35.58.6.54.8-.14.76l-.48-.03-.03.48c-.03.43 0 .48.23.57.8.3 1.67-.02 1.85-.71.18-.65.05-1.05-.5-1.64-.64-.67-.65-.85-.05-.85h.45v-.43c0-.24-.05-.48-.12-.55-.18-.18-.88-.15-1.28.06m2.75-.1q-.87.4-.89 2.17c-.02 1.47.45 2.1 1.54 2.09.73-.01.92-.15.88-.63l-.03-.36h-.6c-.53 0-.6-.03-.71-.24-.07-.14-.1-.29-.08-.33s.36-.08.74-.08c.8 0 .81-.01.71-1.27-.05-.7-.1-.87-.32-1.09-.28-.28-.9-.4-1.24-.25m2.55.08c-.27.14-.38.28-.49.62-.19.59-.02 1.1.55 1.7.6.66.6.83-.09.8l-.52-.04-.03.4c-.04.62.07.7.87.7.63 0 .73-.03.97-.26.28-.28.42-.95.3-1.43-.03-.14-.29-.48-.57-.76s-.49-.56-.46-.63.23-.13.46-.15l.42-.03-.03-.52-.03-.52-.5-.03a2 2 0 0 0-.85.15M6.42 7.8q-.13.08-.1.57c.02.38.07.5.22.52.1.02.22-.02.27-.1.14-.22.1-.75-.07-.92-.18-.19-.15-.18-.32-.07m10.62.15c-.1.43 0 .81.21.81.15 0 .2-.08.23-.29.05-.4-.06-.76-.23-.76q-.14.01-.2.24m-7.59.51c-.12.84-.12.9.06.93.2.04.22-.2.09-.98l-.07-.45z"/></svg>