<?xml version="1.0" encoding="UTF-8" standalone="no"?>
<svg
   viewBox="0 0 24 24"
   width="24pt"
   height="24pt"
   version="1.1"
   id="svg1"
   sodipodi:docname="fuel.svg"
   xml:space="preserve"
   inkscape:version="1.3 (0e150ed6c4, 2023-07-21)"
   inkscape:export-filename="fuel.svg"
   inkscape:export-xdpi="96"
   inkscape:export-ydpi="96"
   xmlns:inkscape="http://www.inkscape.org/namespaces/inkscape"
   xmlns:sodipodi="http://sodipodi.sourceforge.net/DTD/sodipodi-0.dtd"
   xmlns="http://www.w3.org/2000/svg"
   xmlns:svg="http://www.w3.org/2000/svg"><defs
     id="defs1" /><sodipodi:namedview
     id="namedview1"
     pagecolor="#ffffff"
     bordercolor="#000000"
     borderopacity="0.25"
     inkscape:showpageshadow="2"
     inkscape:pageopacity="0.0"
     inkscape:pagecheckerboard="0"
     inkscape:deskcolor="#d1d1d1"
     inkscape:document-units="pt"
     inkscape:zoom="11.546875"
     inkscape:cx="4.67659"
     inkscape:cy="15.112314"
     inkscape:window-width="1920"
     inkscape:window-height="974"
     inkscape:window-x="-11"
     inkscape:window-y="1609"
     inkscape:window-maximized="1"
     inkscape:current-layer="svg1" /><g
     style="fill:#ffffff"
     id="g1"
     transform="matrix(0.0172738,0,0,0.01748703,4.0716954,18.315291)"><path
       d="m 160,-120 v -640 q 0,-33 23.5,-56.5 Q 207,-840 240,-840 h 240 q 33,0 56.5,23.5 23.5,23.5 23.5,56.5 v 280 h 40 q 33,0 56.5,23.5 23.5,23.5 23.5,56.5 v 180 q 0,17 11.5,28.5 11.5,11.5 28.5,11.5 17,0 28.5,-11.5 Q 760,-203 760,-220 v -288 q -9,5 -19,6.5 -10,1.5 -21,1.5 -42,0 -71,-29 -29,-29 -29,-71 0,-32 17.5,-57.5 Q 655,-683 684,-694 l -84,-84 42,-42 148,144 q 15,15 22.5,35 7.5,20 7.5,41 v 380 q 0,42 -29,71 -29,29 -71,29 -42,0 -71,-29 -29,-29 -29,-71 v -200 h -60 v 300 z m 80,-440 H 480 V -760 H 240 Z m 480,0 q 17,0 28.5,-11.5 Q 760,-583 760,-600 760,-617 748.5,-628.5 737,-640 720,-640 q -17,0 -28.5,11.5 -11.5,11.5 -11.5,28.5 0,17 11.5,28.5 Q 703,-560 720,-560 Z M 240,-200 H 480 V -480 H 240 Z m 240,0 H 240 Z"
       id="path1-9"
       style="fill:#ffffff" /></g></svg>
