<svg xmlns="http://www.w3.org/2000/svg" width="24" height="24"><path fill="#FFF" fill-rule="evenodd" d="M6.02 8c.03 1.02.06 1.23.24 1.47.44.59 1.25.6 1.77.03.59-.65.21-1.73-.65-1.87Q7 7.57 7 7.7q.01.1.24.11c.14 0 .38.12.55.26.25.2.31.33.31.66 0 .51-.14.77-.53.93a.9.9 0 0 1-1.12-.27c-.23-.28-.25-.37-.25-1.44q0-1.13-.1-1.14-.12-.01-.08 1.2m.3-.04c.03 1.12.04 1.17.31 1.4.37.31.8.31 1.12 0 .35-.35.33-.8-.04-1.17C7.43 7.91 7 7.8 7 8q.02.09.2.1c.29 0 .6.35.6.68 0 .53-.61.8-1.06.48-.16-.13-.2-.3-.22-1.3-.02-.7-.08-1.16-.14-1.16q-.1.02-.06 1.16m.38-.06c0 1.05.01 1.1.24 1.25.45.3.9-.16.61-.61-.14-.22-.63-.36-.5-.14q.06.09.2.1c.2 0 .28.32.12.47a.3.3 0 0 1-.3.07C6.93 9 6.9 8.82 6.9 7.9c0-.66-.04-1.09-.1-1.09s-.1.43-.1 1.1m5.5.1c0 1.17 0 1.2.28 1.5.53.6 1.36.55 1.8-.09.38-.58.22-1.29-.38-1.65-.31-.18-.7-.21-.7-.06 0 .05.12.1.26.1.39 0 .84.5.84.93s-.38.92-.77 1c-.35.07-.88-.15-1.02-.41a6 6 0 0 1-.11-1.36c0-.7-.04-1.16-.1-1.16s-.1.47-.1 1.2m.3-.14c0 1.09.12 1.55.45 1.68.57.22 1.19-.19 1.19-.78a.8.8 0 0 0-.2-.56c-.23-.23-.74-.37-.74-.21q.01.1.15.11c.23 0 .65.46.65.7 0 .3-.35.6-.7.6-.49 0-.6-.29-.6-1.52 0-.65-.04-1.08-.1-1.08s-.1.42-.1 1.06m.3-.12c0 1.36.22 1.76.76 1.41.4-.26.27-.85-.18-.85-.24 0-.23.16.02.23.24.06.27.42.04.51-.35.13-.44-.12-.44-1.2 0-.63-.04-1.04-.1-1.04s-.1.38-.1.94m-9.06 0c-.9.4-1 1.67-.14 2.1.83.44 1.8-.24 1.67-1.16q-.08-.67-.74-.94c-.39-.17-.4-.17-.79 0m5.07.17c-.26.25-.31.38-.31.78 0 .53.18.84.6 1.06.33.17.7.2.7.05q-.02-.09-.25-.1c-.33 0-.84-.48-.9-.85q-.07-.3.15-.63c.36-.58 1.04-.65 1.51-.16.2.22.24.38.28 1.05.04.95.21 1.06.21.14 0-1.16-.36-1.65-1.21-1.65-.4 0-.53.05-.78.3m2.68-.15q-.59.33-.59 1.49c0 .37.04.66.1.66s.1-.32.1-.76c0-.7.02-.78.3-1.05.15-.16.36-.29.44-.29q.15 0 .16-.1c0-.14-.2-.12-.51.05m3.69 0c-.61.34-.77 1.24-.3 1.75.69.77 1.85.43 1.99-.57a1.14 1.14 0 0 0-1.7-1.17m2.77-.06c-.34.13-.64.6-.64.96q0 .35-.15.34-.13.01-.15.1.02.1.23.08c.18-.02.23-.1.27-.5.07-.56.22-.76.66-.84.19-.03.34-.1.34-.15 0-.11-.28-.1-.56 0m.97.17c-.17.14-.31.31-.31.38q-.02.1-.28.11c-.25 0-.27.03-.33.49-.06.54-.34.86-.75.86-.13 0-.24.05-.24.1 0 .3.92-.1 1.09-.46.06-.14.11-.38.11-.54q0-.3.15-.3t.15.31c0 .4.65 1.09 1.04 1.09.14 0 .26-.04.26-.1 0-.05-.12-.1-.26-.1s-.38-.12-.55-.3c-.75-.75.15-2.04 1.1-1.56.43.23.51.44.51 1.3 0 .44.04.76.1.76s.1-.34.1-.81c0-.79 0-.82-.34-1.15a1.1 1.1 0 0 0-1.55-.08m-15.23.1c-.86.46-.5 1.84.47 1.84.98 0 1.3-1.4.44-1.86-.35-.18-.57-.17-.91.02m11.41.13c-.5.51-.33 1.37.32 1.6.44.15 1-.06 1.18-.46q.3-.65-.18-1.14c-.4-.4-.91-.4-1.32 0m-6.04.06c-.33.32-.34.84-.03 1.12.28.24.56.35.7.27q.07-.07-.23-.18c-.38-.12-.56-.48-.45-.9.07-.29.4-.42.8-.32.29.07.35.23.46 1.14l.07.67.02-.82c0-.77 0-.83-.25-1.02-.36-.28-.8-.27-1.1.04m2.5-.02c-.24.2-.27.32-.32 1q-.05.79.07.77.1 0 .11-.66c0-.6.03-.68.3-.96.17-.16.3-.31.3-.34 0-.1-.21-.02-.46.2m3.86-.11c-.78.4-.52 1.57.36 1.57.45 0 .88-.5.8-.94-.12-.57-.68-.88-1.16-.63m2.64.02c-.32.13-.44.37-.44.88 0 .23-.06.31-.3.4-.16.06-.3.15-.3.2 0 .1.01.1.39-.04.31-.11.38-.24.43-.84.02-.23.1-.34.37-.46.42-.2.28-.32-.15-.14m1.09.07c-.3.34-.36.63-.18.98.14.27.48.5.76.5.2 0 .07-.16-.24-.3-.67-.31-.55-1.2.17-1.2.51 0 .66.24.66 1.08q0 .7.11.72.12 0 .07-.81c-.03-.7-.06-.83-.27-1-.32-.26-.82-.25-1.08.04m-15.5.02c-.5.35-.35 1.23.25 1.46.56.21 1.22-.4 1.07-.98a.86.86 0 0 0-1.32-.48m11.67.15c-.4.4-.14 1.1.4 1.1.35 0 .7-.3.7-.6 0-.27-.43-.7-.7-.7a.7.7 0 0 0-.4.2m-11.66.14q-.32.51.19.9c.26.19.3.2.55.05.63-.35.47-1.19-.23-1.19-.26 0-.39.06-.5.24M9.3 8.4c-.11.11-.2.26-.2.34 0 .2.28.46.5.46q.4-.02-.05-.2c-.14-.05-.25-.16-.25-.24 0-.2.25-.37.44-.3.13.05.16.2.16.75 0 .4.04.69.1.69s.1-.3.1-.68c0-.54-.04-.72-.18-.85-.24-.22-.38-.21-.62.03m10.06-.04c-.3.3-.14.84.26.84.25 0 .23-.16-.03-.23-.28-.07-.23-.52.06-.52.18 0 .2.08.25.67.07.93.2.97.2.05 0-.65-.03-.78-.2-.87-.26-.14-.36-.13-.54.06M3.88 8.4c-.2.12-.24.59-.06.77.07.07.21.12.33.12.43 0 .61-.53.3-.84-.19-.18-.33-.2-.58-.05m7.85.01c-.15.15-.16 1.48-.02 1.48.06 0 .1-.28.1-.64s.04-.68.1-.71c.12-.07.13-.25.02-.25q-.08 0-.2.12m3.7 0c-.2.2-.15.66.09.78.16.09.26.08.45-.05.4-.27.27-.85-.21-.85a.5.5 0 0 0-.33.12m-11.51.26q-.12.2.04.32c.21.18.47.04.43-.22-.04-.3-.34-.35-.47-.1m11.56-.04c-.03.08 0 .21.06.3.17.23.47.1.47-.2 0-.19-.05-.24-.24-.24-.13 0-.26.06-.3.14M5.4 9.06c0 .03.12.2.26.37.22.26.25.38.2.72a1 1 0 0 1-.3.62c-.25.2-.37.23-1.37.23-.66 0-1.09.04-1.09.1s.42.1 1.06.1c1.21 0 1.53-.12 1.8-.68.19-.4.13-.88-.17-1.26-.19-.24-.39-.34-.39-.2m-.1.3c0 .05.07.2.15.34.2.35.18.47-.1.75-.22.23-.31.25-1.25.25-.6 0-1 .04-1 .1 0 .13 1.8.13 2.15 0 .33-.13.59-.7.46-1.02-.1-.25-.41-.57-.4-.42m-.18.56.02.33-1.03.03c-.57.01-1.02.07-1.02.12 0 .15 2.03.13 2.18-.02.16-.16.15-.53-.02-.67-.12-.1-.14-.06-.13.21m1.52.48c-.04.07 2.37.1 7.14.1 4.74 0 7.21-.03 7.21-.1s-2.45-.1-7.14-.1c-4.66 0-7.17.03-7.21.1m-.05.4c0 .07 2.47.1 7.2.1s7.2-.03 7.2-.1-2.47-.1-7.2-.1-7.2.03-7.2.1m0 .3c0 .07 2.47.1 7.2.1s7.2-.03 7.2-.1-2.47-.1-7.2-.1-7.2.03-7.2.1"/></svg>