<svg xmlns="http://www.w3.org/2000/svg" width="24" height="24"><path fill="#FFFFFF" fill-rule="evenodd" d="M6.06 2.2A4.4 4.4 0 0 0 3.35 4c-.3.57-.37 1.8-.33 5.51.03 3.56.04 3.65.26 4.1a3.7 3.7 0 0 0 2.8 2.01q1.57.3 2.7-.75l.31-.3.1.29.16.42c.03.09.37.12 1.25.12h1.2v-7H7.3v2h.8v1.14c0 1.52-.13 1.86-.71 1.86-.54 0-.54.01-.54-4.5 0-4.53 0-4.5.55-4.5.45 0 .53.2.58 1.55l.05 1.25h3.8l-.06-1.22c-.06-1.47-.17-1.85-.75-2.49-.99-1.1-2.98-1.62-4.96-1.28m9.14-.02q-2.28.38-2.81 1.96a7 7 0 0 0-.14 1.65c0 1.1.03 1.31.23 1.74.38.84.66 1.1 1.94 1.86 1.86 1.1 2.61 1.62 2.77 1.94.22.46.26 1.47.08 1.83-.3.57-1.09.52-1.2-.07a10 10 0 0 1-.07-1.31v-1l-1.77.03-1.78.03.02 1.07c.03 1.9.4 2.67 1.52 3.27 1.9 1 5.07.74 6.34-.53.51-.5.67-1.1.67-2.45 0-1.16-.13-1.9-.43-2.46q-.48-.94-3.07-2.35c-1.15-.62-1.46-.93-1.55-1.53-.14-.91.25-1.51.83-1.31.26.1.27.13.32 1l.05.89 1.79.03 1.79.02-.05-1.13c-.03-.95-.08-1.22-.29-1.63q-.74-1.51-3.59-1.6c-.63-.01-1.35 0-1.6.05"/></svg>