<svg xmlns="http://www.w3.org/2000/svg" width="24" height="24"><path fill="#FFFFFF" fill-rule="evenodd" d="M4.32 6.96a2.3 2.3 0 0 0-.5 3.8c.6.5.82.54 2.93.54H8.7v-.89l-.74-.03-.74-.03.74-1.3 1-1.72.25-.43H8.05l-.59 1-.58 1H5.3v.9h.5c.28 0 .5.04.5.1 0 .17-.62.42-1.03.42C4 10.3 3.53 8.57 4.63 7.9a1.4 1.4 0 0 1 1.8.35c.13.17.16.15.42-.3l.28-.47-.24-.2a2.3 2.3 0 0 0-1.44-.55c-.5-.04-.68 0-1.13.23m9.18 2.09v2.25h1a6 6 0 0 0 1.25-.1c.56-.21.75-1.45.3-1.98l-.24-.29.2-.41c.26-.51.18-1.14-.17-1.49-.21-.21-.31-.23-1.29-.23H13.5zm-3.46-1.96c-.22.1-.56.37-.76.6a2.17 2.17 0 0 0 .63 3.36c.44.24.6.27 1.18.23a2 2 0 0 0 1.78-1.05c.23-.4.28-.6.28-1.13 0-.7-.15-1.07-.62-1.54a2.3 2.3 0 0 0-2.49-.47m7.91-.05a2.2 2.2 0 0 0-.84 3.5c.5.58 1.08.8 1.89.74q1.18-.07 1.73-1.18.57-1.1-.09-2.16c-.53-.87-1.8-1.29-2.69-.9M14.5 8.15c0 .48.04.5.44.35.2-.07.26-.17.26-.39q.02-.43-.5-.41c-.17 0-.2.07-.2.45M10.32 8a1.3 1.3 0 0 0-.42 1.77 1.3 1.3 0 0 0 2.08.18c.32-.35.34-.4.3-.92-.04-.44-.1-.6-.35-.85A1.34 1.34 0 0 0 10.32 8m7.83 0c-.34.22-.65.74-.65 1.08 0 .4.28.91.62 1.12a1.3 1.3 0 0 0 1.65-.24c.28-.3.33-.43.33-.86s-.05-.56-.33-.86-.41-.37-.83-.4c-.38-.04-.56 0-.79.15M14.5 9.86v.45l.38-.03c.33-.03.37-.06.4-.33.04-.33-.18-.55-.55-.55-.2 0-.23.05-.23.46"/></svg>