<svg xmlns="http://www.w3.org/2000/svg" width="24" height="24"><path fill="#FFF" fill-rule="evenodd" d="M3.3 2.85q.02.14.2.15.2 0 .2.2t-.2.2q-.18.01-.2.15.02.14.2.15.18-.01.2-.15t.15-.15q.14-.02.15-.2.02-.18.15-.2.13.02.15.2-.02.18-.15.2a.15.15 0 0 0-.15.15q.02.14.15.15.13.02.15.15-.02.14-.15.15-.13.02-.15.2.02.18.15.2t.15.15q-.02.14-.15.15a.15.15 0 0 0-.15.15q-.01.14-.15.15a.15.15 0 0 1-.15-.15q-.02-.13-.2-.15-.19.01-.2.16.02.15.2.21t.2.2.15.13q.14-.01.15-.15.02-.13.15-.15.13.01.15.15-.02.14-.15.15a.15.15 0 0 0-.15.15q.02.13.15.15t.15.2q-.02.18-.15.2a.15.15 0 0 0-.15.15q.02.14.15.15.13.02.15.15-.02.13-.15.15T4 6.9q.02.18.15.2.13.01.15.15-.02.14-.15.15a.15.15 0 0 0-.15.15q-.01.13-.15.15a.15.15 0 0 1-.15-.15q-.02-.13-.2-.15-.19.01-.2.16.02.15.2.21t.2.2.15.13q.14-.02.15-.15.02-.14.15-.15.13.02.15.15-.02.13-.15.15a.15.15 0 0 0-.15.15q.02.14.15.15.13.02.15.2-.02.18-.15.2a.15.15 0 0 0-.15.15q.02.13.15.15t.15.15q-.02.14-.15.15T4 9.54c0 .07-.12.22-.27.31-.65.42-.73.6-.72 1.51 0 .69.04.84.15.8q.15-.04.14.14 0 .2.2.2.18.01.2.13c0 .09.24.12.85.13.47 0 .85-.03.85-.08q.02-.07.15-.08.13.01.15.1c0 .13.27.13.35 0q.05-.12-.14-.17c-.24-.06-.29-.4-.06-.4q.14.02.15.19t.2.18q.18-.01.2-.11c0-.15-.42-.59-.58-.59q-.1-.02-.12-.15.01-.13.14-.15c.23 0 .29-.31.06-.37q-.18-.06-.2-.2-.01-.12-.15-.13a.15.15 0 0 1-.15-.15q.02-.13.15-.15.13.02.15.15t.15.15.15.15.2.15q.18-.02.2-.15a.15.15 0 0 0-.14-.15c-.08 0-.18-.09-.21-.2s-.13-.2-.2-.2c-.23 0-.18-.27.06-.33s.17-.27-.07-.27c-.19 0-.18-.26.01-.34Q6 9.4 6 9.6t.2.2q.39-.01-.02-.46c-.26-.26-.48-.31-.48-.1 0 .07-.1.16-.21.2-.12.02-.18.1-.14.15q.04.1-.14.11Q5 9.68 5 9.55a.15.15 0 0 0-.15-.15.15.15 0 0 1-.15-.15.15.15 0 0 0-.15-.15.15.15 0 0 1-.15-.15q.02-.13.15-.15.14-.02.15-.2-.01-.18-.15-.2a.15.15 0 0 1-.15-.15q.02-.14.15-.15.14-.02.15-.15.02-.14.15-.15.14.02.15.15t.14.15.2.15.2.15q.15-.01.16-.15a.15.15 0 0 0-.15-.15.15.15 0 0 1-.15-.15q.02-.14.15-.15.13.02.15.15t.15.15.15.15.2.15q.2 0 .2.2t-.2.2q-.18.02-.2.15.02.13.2.15.18-.02.2-.15t.15-.15.15-.2q-.01-.18-.15-.2a.15.15 0 0 1-.15-.15.15.15 0 0 0-.14-.15c-.08 0-.18-.09-.21-.2s-.13-.2-.2-.2a.15.15 0 0 1-.15-.15q-.01-.13-.14-.15-.13.02-.2.15a.3.3 0 0 1-.2.15.15.15 0 0 1-.16-.15.15.15 0 0 0-.15-.15.15.15 0 0 0-.15.15q-.01.13-.15.15a.15.15 0 0 1-.15-.15q.02-.13.15-.15.14-.01.15-.15a.15.15 0 0 0-.15-.15q-.13-.02-.15-.2 0-.18.12-.17t.16-.16-.12-.17a.15.15 0 0 1-.16-.15q.02-.14.15-.15.14-.02.15-.2-.01-.18-.15-.2a.15.15 0 0 1-.15-.15q.02-.13.15-.15.14-.01.15-.15.02-.13.15-.15.14.01.15.15t.14.15.2.15.2.15q.15-.01.16-.15a.15.15 0 0 0-.15-.15.15.15 0 0 1-.15-.15q.02-.13.15-.15.13.01.15.15t.15.15.15.15.2.15q.2 0 .2.2t-.2.2q-.18.01-.2.15.02.14.2.15.18-.01.2-.15t.15-.15.15-.2q-.01-.18-.15-.2a.15.15 0 0 1-.15-.15.15.15 0 0 0-.14-.15c-.08 0-.18-.09-.21-.2s-.13-.2-.2-.2a.15.15 0 0 1-.15-.15q-.01-.13-.14-.15-.13.02-.2.15a.3.3 0 0 1-.2.15.15.15 0 0 1-.16-.15.15.15 0 0 0-.15-.15.15.15 0 0 0-.15.15q-.01.14-.15.15a.15.15 0 0 1-.15-.15q.02-.13.15-.15.14-.01.15-.15a.15.15 0 0 0-.15-.15q-.13-.02-.15-.2 0-.18.12-.17c.06 0 .14-.06.16-.16q.03-.16-.12-.17a.15.15 0 0 1-.16-.15q.02-.14.15-.15.14-.02.15-.2t.14-.2q.13.02.19.2t.21.2q.15-.01.16-.2 0-.2-.2-.2-.18-.01-.2-.15a.15.15 0 0 0-.15-.15.15.15 0 0 0-.15.15q-.01.14-.15.15a.15.15 0 0 1-.15-.15q-.02-.13-.2-.15-.18.02-.2.15-.01.14-.15.15a.15.15 0 0 1-.15-.15q-.02-.13-.2-.15-.18.02-.2.15m2-.04q.02.1.2.16c.26.07.26.4-.01.46q-.19.06-.14.16c.1.16.35.13.35-.04q.01-.14.14-.15c.23 0 .29-.31.06-.37q-.18-.06-.2-.2-.02-.12-.2-.13-.18.01-.2.1m.7.05q.02.14.2.15.2 0 .2.2t-.2.2q-.18.01-.2.15.02.14.2.15.18-.01.2-.15t.15-.15q.13-.02.15-.2t.15-.2q.14.02.15.2-.02.18-.15.2a.15.15 0 0 0-.15.15q.02.14.15.15.14.02.15.15-.02.14-.15.15-.13.02-.15.2.02.18.15.2.14.02.15.15-.02.14-.15.15a.15.15 0 0 0-.15.15q-.01.14-.15.15a.15.15 0 0 1-.15-.15q-.02-.13-.2-.15-.19.01-.2.16.02.15.2.21t.2.2.15.13.15-.15.15-.15q.14.01.15.15-.02.14-.15.15a.15.15 0 0 0-.15.15q.02.13.15.15.14.02.15.2-.02.18-.15.2a.15.15 0 0 0-.15.15q-.01.14-.15.15c-.17 0-.2.26-.04.35q.1.05.16-.14c.06-.24.33-.29.33-.06q-.02.13-.15.15t-.15.2q.02.18.15.2.14.01.15.15-.02.14-.15.15a.15.15 0 0 0-.15.15q-.01.13-.15.15a.15.15 0 0 1-.15-.15q-.02-.13-.2-.15-.19.01-.2.16.02.15.2.21t.2.2.15.13.15-.15.15-.15q.14.02.15.15-.02.13-.15.15a.15.15 0 0 0-.15.15q.02.14.15.15.14.02.15.2-.02.18-.15.2a.15.15 0 0 0-.15.15q-.01.13-.15.15c-.17 0-.2.26-.04.35q.1.05.16-.14c.06-.24.33-.29.33-.06q-.02.14-.15.15-.13.02-.15.2.02.18.15.2.14.02.15.15-.02.13-.15.15a.15.15 0 0 0-.15.15q-.01.14-.15.15a.15.15 0 0 1-.15-.15q.02-.14.15-.15.13-.02.15-.15a.15.15 0 0 0-.15-.15.15.15 0 0 0-.15.15q-.02.13-.2.15c-.26 0-.26.3 0 .37q.18.06.2.18.02.13.17.17c.16.03.16.04 0 .2-.21.2-.22.48-.02.48q.13.02.15.15-.01.13-.15.15a.15.15 0 0 1-.15-.15q-.02-.13-.2-.15-.18.02-.2.15.01.13.19.15t.25.22c.06.22.07.22.2.05q.14-.17.2-.08t-.03.11-.11.2q.02.18.15.2.14.02.15.15-.02.13-.15.15a.15.15 0 0 0-.15.15q-.01.13-.15.15a.15.15 0 0 1-.15-.15q.02-.13.15-.15t.15-.15a.15.15 0 0 0-.15-.15.15.15 0 0 0-.15.15q-.02.13-.2.15c-.26 0-.26.3 0 .37q.18.06.2.2.02.12.15.13.13-.02.15-.15.02-.14.15-.15.14.01.15.15-.02.14-.15.15a.15.15 0 0 0-.15.15q.02.13.15.15.14.02.15.2-.02.18-.15.2a.15.15 0 0 0-.15.15q.02.14.15.15.14.02.15.15-.02.13-.15.15t-.15.2-.15.2q-.13-.01-.15-.11c0-.15-.42-.59-.58-.59q-.1.01-.12.14c0 .07-.1.16-.21.2q-.22.05-.16.2.07.16-.13.16T5 15q-.02-.18-.15-.2-.13.02-.15.2t-.15.2q-.13-.02-.15-.2 0-.18.12-.17c.06 0 .14-.06.16-.15q.03-.17-.12-.18a.15.15 0 0 1-.16-.15q.02-.14.15-.15.14-.02.15-.2-.01-.18-.15-.2a.15.15 0 0 1-.15-.15q.02-.13.15-.15.14-.02.15-.15.02-.14.15-.15.14.01.15.15t.14.15.2.15q.06.13.2.15.15-.02.16-.15a.15.15 0 0 0-.15-.15.15.15 0 0 1-.15-.15q.02-.14.15-.15.13.01.15.15t.15.15.15.15.2.15q.2 0 .2.2t-.2.2q-.18.01-.2.15.02.14.2.15.18-.02.2-.15.02-.14.15-.15.13-.02.15-.2-.01-.18-.15-.2a.15.15 0 0 1-.15-.15.15.15 0 0 0-.14-.15c-.08 0-.18-.09-.21-.2s-.13-.2-.2-.2a.15.15 0 0 1-.15-.15q-.01-.13-.14-.15-.13.02-.2.15a.3.3 0 0 1-.2.15.15.15 0 0 1-.16-.15.15.15 0 0 0-.15-.15.15.15 0 0 0-.15.15q-.01.13-.15.15a.15.15 0 0 1-.15-.15q-.02-.13-.2-.15-.18.02-.2.15-.01.13-.15.15a.15.15 0 0 1-.15-.15q-.02-.13-.2-.15-.19.01-.2.16.02.15.2.21t.2.2.15.13q.14-.02.15-.15.02-.14.15-.15.13.01.15.15-.02.14-.15.15a.15.15 0 0 0-.15.15q.02.13.15.15t.15.2q-.02.18-.15.2a.15.15 0 0 0-.15.15q.02.14.15.15.13.02.15.15-.02.13-.15.15T4 15t-.15.2q-.13-.01-.15-.11c0-.15-.42-.59-.58-.59-.06 0-.12.1-.12.21q0 .22.15.15.15-.06.15.14-.02.17-.17.22c-.1.02 3.87.03 8.82.03h9v-6.3c0-3.46-.01-6.22-.03-6.12-.04.2-.32.23-.32.02q-.02-.13-.2-.15-.18.02-.2.15-.02.14-.15.15a.15.15 0 0 1-.15-.15q-.02-.13-.2-.15-.18.02-.2.15.02.14.2.15.2 0 .2.2t-.2.2q-.18.01-.2.15.02.14.2.15.18-.01.2-.15t.15-.15q.13-.02.15-.2t.15-.2q.13.02.15.2-.02.18-.15.2a.15.15 0 0 0-.15.15q.02.14.15.15.13.02.15.15-.02.14-.15.15-.13.02-.15.2.02.18.15.2t.15.15q-.02.14-.15.15a.15.15 0 0 0-.15.15q-.02.14-.15.15a.15.15 0 0 1-.15-.15q-.02-.13-.2-.15-.19.01-.2.16.02.15.2.21t.2.2.15.13.15-.15.15-.15q.13.01.15.15-.02.14-.15.15a.15.15 0 0 0-.15.15q.02.13.15.15t.15.2q-.02.18-.15.2a.15.15 0 0 0-.15.15q.02.14.15.15.13.02.15.15-.02.13-.15.15t-.15.2q.02.18.15.2.13.01.15.15-.02.14-.15.15a.15.15 0 0 0-.15.15q-.02.13-.15.15a.15.15 0 0 1-.15-.15q-.02-.13-.2-.15c-.26 0-.26.3 0 .37q.18.06.2.2.02.12.15.13.13-.02.15-.15.02-.14.15-.15.13.02.15.15-.02.13-.15.15a.15.15 0 0 0-.15.15q.02.14.15.15.13.02.15.2-.02.18-.15.2a.15.15 0 0 0-.15.15q.02.13.15.15t.15.15q-.02.14-.15.15-.13.02-.15.2.02.18.15.2t.15.15q-.02.13-.15.15a.15.15 0 0 0-.15.15q.02.15.15.21c.16.06.21.34.07.34-.15 0-.32-.5-.26-.76q.08-.25-.1-.24-.15-.01-.16-.11c0-.15-.42-.59-.57-.59q-.12.01-.13.14c0 .07-.1.16-.21.2q-.2.04-.17.18c.06.18.38.23.38.05q.02-.14.15-.2.15-.06.15.12c0 .1.05.21.12.23q.15.04 0 .12-.11.05-.12-.03-.02-.1-.15-.11a.15.15 0 0 0-.15.15q.02.13.15.15t.15.15q-.02.14-.15.15a.15.15 0 0 1-.15-.15c0-.2-.26-.2-.34 0-.07.19-.36.2-.36 0a.2.2 0 0 0-.12-.18c-.1-.04-.1-.07 0-.18.17-.18.15-.49-.03-.49q-.13.01-.15.14t-.15.2q-.15.06-.15-.14 0-.18.12-.17c.06 0 .14-.06.16-.15q.03-.17-.12-.18a.15.15 0 0 1-.16-.15q.02-.13.15-.15t.15-.2q-.02-.18-.15-.2a.15.15 0 0 1-.15-.15q.02-.14.15-.15.13-.02.15-.15.02-.14.15-.15.13.02.15.15t.14.15.2.15q.06.14.2.15.16-.01.16-.15a.15.15 0 0 0-.15-.15.15.15 0 0 1-.15-.15q.02-.14.15-.15.13.02.15.15t.15.15.15.15.2.15q.2 0 .2.2t-.2.2q-.18.02-.2.15.02.13.2.15.18-.02.2-.15t.15-.15.15-.2q-.02-.18-.15-.2a.15.15 0 0 1-.15-.15.15.15 0 0 0-.14-.15c-.08 0-.18-.09-.21-.2s-.13-.2-.2-.2a.15.15 0 0 1-.15-.15q-.01-.13-.14-.15-.13.02-.2.15a.3.3 0 0 1-.2.15.15.15 0 0 1-.16-.15.15.15 0 0 0-.15-.15.15.15 0 0 0-.15.15q-.02.13-.15.15a.15.15 0 0 1-.15-.15q.02-.13.15-.15t.15-.15a.15.15 0 0 0-.15-.15q-.13-.02-.15-.2 0-.18.12-.17t.16-.16-.12-.17a.15.15 0 0 1-.16-.15q.02-.14.15-.15.13-.02.15-.2-.02-.18-.15-.2a.15.15 0 0 1-.15-.15q.02-.13.15-.15t.15-.15.15-.15q.13.01.15.15t.14.15.2.15q.06.13.2.15.16-.01.16-.15a.15.15 0 0 0-.15-.15.15.15 0 0 1-.15-.15q.02-.13.15-.15.13.01.15.15t.15.15.15.15.2.15q.2 0 .2.2t-.2.2q-.18.01-.2.15.02.14.2.15.18-.01.2-.15t.15-.15.15-.2q-.02-.18-.15-.2a.15.15 0 0 1-.15-.15.15.15 0 0 0-.14-.15c-.08 0-.18-.09-.21-.2s-.13-.2-.2-.2a.15.15 0 0 1-.15-.15q-.01-.13-.14-.15-.13.02-.2.15c-.07.2-.36.2-.36 0a.15.15 0 0 0-.15-.15.15.15 0 0 0-.15.15q-.02.14-.15.15a.15.15 0 0 1-.15-.15q.02-.13.15-.15t.15-.15a.15.15 0 0 0-.15-.15q-.13-.02-.15-.2 0-.18.12-.17c.06 0 .14-.06.16-.16q.03-.16-.12-.17a.15.15 0 0 1-.16-.15q.02-.14.15-.15.13-.02.15-.2c0-.26.26-.26.33 0q.06.18.21.2.16-.01.16-.2 0-.2-.2-.2-.18-.01-.2-.15a.15.15 0 0 0-.15-.15.15.15 0 0 0-.15.15q-.02.14-.15.15a.15.15 0 0 1-.15-.15q-.02-.13-.2-.15-.18.02-.2.15-.02.14-.15.15a.15.15 0 0 1-.15-.15q-.02-.13-.2-.15-.18.02-.2.15.02.14.2.15.2 0 .2.2t-.2.2q-.18.01-.2.15.02.14.2.15.18-.01.2-.15t.15-.15q.13-.02.15-.2t.15-.2q.13.02.15.2-.02.18-.15.2a.15.15 0 0 0-.15.15q.02.14.15.15.13.02.15.15-.02.14-.15.15-.13.02-.15.2.02.18.15.2t.15.15q-.02.14-.15.15a.15.15 0 0 0-.15.15q-.02.14-.15.15a.15.15 0 0 1-.15-.15q-.02-.13-.2-.15c-.26 0-.26.3 0 .37q.18.06.2.2.02.12.15.13.13-.01.15-.15t.15-.15q.13.01.15.15-.02.14-.15.15a.15.15 0 0 0-.15.15q.02.13.15.15t.15.2q-.02.18-.15.2a.15.15 0 0 0-.15.15q.02.14.15.15.13.02.15.15-.02.13-.15.15t-.15.2q.02.18.15.2.13.01.15.15-.02.14-.15.15a.15.15 0 0 0-.15.15q-.02.13-.15.15a.15.15 0 0 1-.15-.15q-.02-.13-.2-.15-.19.01-.2.16.02.15.2.21t.2.2.15.13.15-.15.15-.15q.13.02.15.15-.02.13-.15.15a.15.15 0 0 0-.15.15q.02.14.15.15.13.02.15.2-.02.18-.15.2a.15.15 0 0 0-.15.15q.02.13.15.15t.15.15q-.02.14-.15.15-.13.02-.15.2.01.18.14.2.13.01.19.19.06.2-.14.14t-.19.1q-.02.16-.15.17a.15.15 0 0 1-.15-.15q-.02-.14-.2-.15-.19.01-.2.16.02.15.2.21t.2.2.15.13q.13-.02.15-.15t.15-.15q.14 0 .09.15-.07.13-.15.15t-.09.15-.15.15c-.17 0-.2.36-.05.42q.1.04-.05.23-.19.27-.08.01.05-.19-.1-.28c-.21-.11-.22-.38-.02-.38q.13-.02.15-.15a.15.15 0 0 0-.14-.15c-.08 0-.18-.1-.21-.2q-.07-.18-.14-.15c-.13.07-.32-.44-.25-.7.07-.3.34-.42.34-.15q0 .2.2.2c.27 0 .25-.2-.04-.47q-.44-.4-.46-.08-.02.14-.15.15a.3.3 0 0 0-.21.15c-.08.2-.34.2-.34 0a.15.15 0 0 0-.15-.15q-.13.02-.15.2.02.18.15.2t.15.15q0 .13.1.15t.1.15-.1.15q-.1-.01-.1-.15a.15.15 0 0 0-.15-.15.15.15 0 0 0-.15.15q-.02.14-.15.15a.15.15 0 0 1-.15-.15q.01-.14.15-.15.14-.02.15-.15a.15.15 0 0 0-.15-.15q-.14-.02-.15-.2.01-.19.1-.15c.23.14.2-.27-.04-.56-.14-.17-.26-.36-.25-.42q.01-.1.11.1c.14.28.38.3.38.03q-.02-.18-.15-.2a.15.15 0 0 1-.15-.15q.01-.14.15-.15.14-.02.15-.15.02-.14.15-.15.13.02.15.15t.14.15.2.15q.06.14.2.15.16-.01.16-.15a.15.15 0 0 0-.15-.15.15.15 0 0 1-.15-.15q.02-.14.15-.15.13.02.15.15t.15.15.15.15.2.15q.2 0 .2.2t-.2.2q-.18.02-.2.15.02.13.2.15.18-.02.2-.15t.15-.15.15-.2q-.02-.18-.15-.2a.15.15 0 0 1-.15-.15.15.15 0 0 0-.14-.15c-.08 0-.18-.09-.21-.2s-.13-.2-.2-.2a.15.15 0 0 1-.15-.15q-.01-.13-.14-.15-.13.02-.2.15a.3.3 0 0 1-.2.15.15.15 0 0 1-.16-.15.15.15 0 0 0-.15-.15.15.15 0 0 0-.15.15q-.02.13-.15.15a.15.15 0 0 1-.15-.15q.01-.13.15-.15t.15-.15a.15.15 0 0 0-.15-.15q-.14-.02-.15-.2t.12-.17q.11 0 .16-.16.03-.16-.11-.17t-.2-.19q-.06-.2.14-.14.2.07.19-.16 0-.2-.15-.21a.15.15 0 0 1-.15-.15q.01-.13.15-.15t.15-.15.15-.15q.13.01.15.15t.14.15.2.15c.07.2.36.2.36 0a.15.15 0 0 0-.15-.15.15.15 0 0 1-.15-.15q.02-.13.15-.15.13.01.15.15t.15.15.15.15.2.15q.2 0 .2.2t-.2.2q-.18.01-.2.15.02.14.2.15.18-.01.2-.15t.15-.15.15-.2q-.02-.18-.15-.2a.15.15 0 0 1-.15-.15.15.15 0 0 0-.14-.15c-.08 0-.18-.09-.21-.2s-.13-.2-.2-.2a.15.15 0 0 1-.15-.15q-.01-.13-.14-.15-.13.02-.2.15a.3.3 0 0 1-.2.15.15.15 0 0 1-.16-.15.15.15 0 0 0-.15-.15.15.15 0 0 0-.15.15q0 .14-.1.15-.1-.02-.1-.15t.1-.15.1-.15q.02-.13.15-.15t.15-.2q-.02-.18-.15-.2a.15.15 0 0 1-.15-.15.15.15 0 0 0-.15-.15.15.15 0 0 1-.15-.15q.01-.14.15-.15.14-.02.15-.2c0-.26.26-.26.33 0q.06.18.21.2.16-.01.16-.2 0-.2-.2-.2-.18-.01-.2-.15a.15.15 0 0 0-.15-.15.15.15 0 0 0-.15.15q-.02.14-.15.15a.15.15 0 0 1-.15-.15q-.02-.13-.2-.15-.18.02-.2.15-.02.14-.15.15a.15.15 0 0 1-.15-.15q-.02-.13-.2-.15-.18.02-.2.15.02.14.2.15.2 0 .2.2t-.2.2q-.18.01-.2.15.02.14.2.15.18-.01.2-.15t.15-.15q.13-.02.15-.2t.15-.2q.13.02.15.2-.02.18-.15.2a.15.15 0 0 0-.15.15q.02.14.15.15.13.02.15.15c0 .2-.05.19-.25-.02-.14-.13-.2-.14-.36-.05s-.24.1-.4 0-.21-.1-.3.02q-.1.16-.03-.14c.06-.27.05-.29-.19-.24-.22.04-.24.03-.14-.13.09-.14.06-.21-.14-.38-.3-.25-1.19-.3-1.19-.06q0 .14-.1.15c-.13 0-.6.45-.6.59q-.01.1-.15.11t-.15.14c0 .07-.1.16-.2.2-.18.04-.2.08-.11.24.09.17.07.18-.14.14q-.26-.05-.25.11.02.15.15.19c.14.03.14.05 0 .26-.09.12-.24.21-.33.2q-.22.01 0-.05c.22-.05.24-.43.03-.43q-.14.01-.15.13c0 .12-.45.38-.64.36q-.08 0 .12-.1c.12-.04.22-.15.22-.24q.02-.13.15-.15t.15-.15a.15.15 0 0 0-.15-.15q-.13-.02-.15-.2 0-.18.12-.17t.16-.16q.03-.16-.12-.17a.15.15 0 0 1-.16-.15q.02-.14.15-.15.13-.02.15-.2t.14-.2q.13.02.19.2t.21.2q.15-.01.16-.2 0-.2-.2-.2-.18-.01-.2-.15a.15.15 0 0 0-.15-.15.15.15 0 0 0-.15.15q-.02.14-.15.15a.15.15 0 0 1-.15-.15q-.02-.13-.2-.15-.18.02-.2.15-.01.14-.15.15a.15.15 0 0 1-.15-.15q-.02-.13-.2-.15-.18.02-.2.15.02.14.2.15.2 0 .2.2t-.2.2q-.18.01-.2.15.02.14.2.15.18-.01.2-.15.01-.14.15-.15.14-.02.15-.2.02-.18.15-.2.13.02.15.2-.02.18-.15.2a.15.15 0 0 0-.15.15q.02.14.15.15.13.02.15.15-.02.14-.15.15-.13.02-.15.2.02.18.15.2t.15.15q-.02.14-.15.15a.15.15 0 0 0-.15.15q-.01.14-.15.15a.15.15 0 0 1-.15-.15q-.02-.13-.2-.15c-.26 0-.26.3 0 .37q.17.06.23.23c.06.25-.3.14-.38-.11-.04-.1-.13-.19-.2-.19a.15.15 0 0 1-.15-.15q-.01-.13-.14-.15-.13.02-.2.15a.3.3 0 0 1-.2.15.15.15 0 0 1-.16-.15.15.15 0 0 0-.15-.15.15.15 0 0 0-.15.15q-.01.14-.15.15a.15.15 0 0 1-.15-.15q.01-.13.15-.15t.15-.15a.15.15 0 0 0-.15-.15q-.14-.02-.15-.2t.12-.17q.11 0 .16-.16.03-.16-.12-.17a.15.15 0 0 1-.16-.15q.01-.14.15-.15.14-.02.15-.2t.14-.2q.13.02.19.2t.21.2q.16-.01.16-.2 0-.2-.2-.2-.18-.01-.2-.15a.15.15 0 0 0-.15-.15.15.15 0 0 0-.15.15q-.01.14-.15.15a.15.15 0 0 1-.15-.15q-.02-.13-.2-.15-.18.02-.2.15-.01.14-.15.15a.15.15 0 0 1-.15-.15q-.02-.13-.2-.15-.18.02-.2.15m2-.04q.02.1.2.16c.26.07.26.4-.01.46q-.19.06-.14.16c.1.16.35.13.35-.04q.01-.14.14-.15c.23 0 .29-.31.06-.37q-.18-.06-.2-.2-.02-.12-.2-.13-.18.01-.2.1m2.7 0q.02.11.2.17c.26.07.26.4-.01.46q-.19.06-.14.16c.1.16.35.13.35-.04q.01-.14.14-.15c.23 0 .29-.31.06-.37q-.18-.06-.2-.2-.02-.12-.2-.13-.18.01-.2.1m2.7 0q.02.11.2.17c.11.03.2.14.2.24 0 .23.25.25.34.03q.07-.16-.14-.21-.18-.06-.2-.2-.02-.12-.2-.13-.18.01-.2.1m2.7 0q.02.11.2.17c.26.07.26.4-.01.46q-.19.06-.14.16c.1.16.35.13.35-.04q.01-.14.14-.15c.23 0 .29-.31.06-.37q-.18-.06-.2-.2-.02-.12-.2-.13-.18.01-.2.1m2.7 0q.02.11.2.17c.26.07.26.4-.01.46q-.19.06-.14.16c.1.16.35.13.35-.04q.01-.14.14-.15c.23 0 .29-.31.06-.37q-.18-.06-.2-.2-.02-.12-.2-.13-.18.01-.2.1m-14.04.57c-.12.12-.06.33.09.33q.14.01.15.14c0 .15.24.28.34.19.13-.14.05-.33-.14-.33q-.18-.01-.2-.14c0-.17-.14-.28-.24-.2m2.7 0c-.12.13-.06.34.09.34q.13.01.15.14c0 .15.24.28.34.19.13-.14.05-.33-.14-.33q-.18-.01-.2-.14c0-.17-.14-.28-.24-.2m2.7 0c-.12.13-.06.34.09.34q.14.01.15.14c0 .15.24.28.34.19.13-.14.05-.33-.14-.33q-.18-.01-.2-.14c0-.17-.14-.28-.24-.2m5.4 0c-.12.13-.06.34.09.34q.13.01.15.14c0 .15.24.28.34.19.13-.14.05-.33-.14-.33q-.18-.01-.2-.14c0-.17-.14-.28-.24-.2m2.7 0c-.12.13-.06.34.09.34q.13.01.15.14c0 .15.24.28.34.19.13-.14.05-.33-.14-.33q-.18-.01-.2-.14c0-.17-.14-.28-.24-.2M3 3.92q0 .22.15.15.15-.06.15.14t.2.2q.18.02.2.15.02.14.15.15.14-.01.15-.15a.15.15 0 0 0-.15-.15q-.13-.01-.15-.12c0-.16-.44-.58-.59-.58-.06 0-.11.1-.11.21m2.7-.07c0 .07-.1.16-.21.2q-.2.04-.17.18c.06.18.38.23.38.05q.02-.14.15-.2Q6 4 6 4.2t.2.2q.18.02.2.15.02.14.15.15.13-.01.15-.15a.15.15 0 0 0-.15-.15q-.13-.01-.15-.12c0-.16-.44-.58-.59-.58q-.1.01-.11.14m2.7 0c0 .07-.1.16-.21.2q-.2.04-.17.18c.06.18.38.23.38.05q.02-.14.15-.2.15-.07.15.13t.2.2q.18.02.2.15.01.14.15.15.14-.01.15-.15a.15.15 0 0 0-.15-.15q-.14-.01-.15-.12c0-.16-.44-.58-.59-.58q-.1.01-.11.14m8.1 0c0 .07-.1.16-.21.2q-.2.04-.17.18c.06.18.38.23.38.05q.02-.14.15-.2.15-.07.15.13t.2.2q.18.02.2.15.02.14.15.15.13-.01.15-.15a.15.15 0 0 0-.15-.15q-.13-.01-.15-.12c0-.16-.44-.58-.59-.58q-.1.01-.11.14m2.7 0c0 .07-.1.16-.21.2q-.2.04-.17.18c.06.18.38.23.38.05q.02-.14.15-.2.15-.07.15.13t.2.2q.18.02.2.15.02.14.15.15.13-.01.15-.15a.15.15 0 0 0-.15-.15q-.13-.01-.15-.12c0-.16-.44-.58-.59-.58q-.1.01-.11.14M4.7 4.2q.02.18.15.2.14.02.15.15.02.14.2.15.18-.01.2-.15-.02-.13-.2-.15-.2 0-.2-.2-.02-.18-.15-.2-.13.02-.15.2m2.7 0q.02.18.15.2t.15.15.2.15q.18-.01.2-.15-.02-.13-.2-.15-.2 0-.2-.2-.01-.18-.15-.2-.13.02-.15.2m10.8 0q.02.18.15.2t.15.15.2.15q.18-.01.2-.15-.02-.13-.2-.15-.2 0-.2-.2-.02-.18-.15-.2-.13.02-.15.2m-4.36.05q-.07.13-.2.15t-.14.11q-.02.13-.17.25t-.1.2q.09.07.21-.09c.16-.21.36-.22.36-.02q.01.14.14.15c.08 0 .18.09.21.2.07.23.25.27.25.06q-.01-.13-.15-.2c-.22-.08-.18-.36.05-.36q.2 0 .2.2t.15.14a.2.2 0 0 0 .15-.21q0-.15.2-.1.21.07.2-.14 0-.19-.2-.19-.18-.02-.2-.15a.15.15 0 0 0-.15-.15.15.15 0 0 0-.15.15q-.02.13-.2.15-.18-.02-.2-.15-.01-.13-.1-.15-.1.01-.16.15M3 5.2q.01.18.15.2t.15.15q.02.13.2.15.2 0 .2.2t-.2.2q-.18.01-.2.15.01.14.19.15c.1 0 .21.09.24.21q.06.19.16.14c.16-.1.13-.35-.04-.35a.15.15 0 0 1-.15-.15q.02-.14.15-.15.14-.02.15-.2-.01-.18-.15-.2a.15.15 0 0 1-.15-.15.15.15 0 0 0-.14-.15c-.08 0-.18-.09-.21-.2s-.13-.2-.2-.2Q3 5.02 3 5.2m4.4.05q-.01.14-.15.15a.15.15 0 0 0-.15.15q.01.13.15.15t.15.2q-.01.18-.15.2a.15.15 0 0 0-.15.15q.01.14.16.15t.12.17c-.02.1-.1.17-.16.16q-.11-.01-.12.17.01.18.15.2.14.01.15.15-.01.14-.15.15a.15.15 0 0 0-.15.15q.01.13.15.15.14-.01.15-.15.02-.13.15-.15.13.02.15.15t.15.15q.15-.01.21-.15.07-.13.2-.15.13.02.14.15t.14.15c.08 0 .18.09.21.2s.13.2.2.2q.14.01.15.15-.02.14-.2.15-.18-.01-.2-.15a.15.15 0 0 0-.15-.15.15.15 0 0 1-.15-.15.15.15 0 0 0-.15-.15.15.15 0 0 0-.15.15q.01.13.15.15t.15.15q-.01.14-.15.15a.3.3 0 0 1-.21-.15q-.07-.14-.2-.15-.13-.02-.14-.15a.15.15 0 0 0-.15-.15.15.15 0 0 0-.15.15q-.01.13-.15.15a.15.15 0 0 0-.15.15q.01.14.15.15.14.02.15.2-.01.18-.15.2a.15.15 0 0 0-.15.15q.01.13.16.15.15 0 .12.18-.05.16-.16.15t-.12.17q.01.18.15.2.14-.02.15-.2.02-.18.15-.2.13.02.15.15t.2.15q.18 0 .2-.1c0-.04-.09-.12-.2-.15s-.2-.13-.2-.2q.02-.14.2-.15.18.01.2.15.01.14.15.15.14-.01.15-.15t.11-.15c.15 0 .59.42.59.58q.01.1.15.12t.15.15.15.15q.13-.02.15-.15a.15.15 0 0 0-.15-.15q-.13-.02-.15-.2.02-.18.15-.2.13-.01.15-.15a.15.15 0 0 0-.15-.15.15.15 0 0 1-.15-.15.15.15 0 0 0-.15-.15q-.14-.02-.15-.21c0-.18.04-.2.28-.15q.24.04.14 0c-.17-.08-.15-.34.03-.34q.13-.02.15-.15a.15.15 0 0 0-.15-.15.15.15 0 0 0-.15.15q-.01.13-.16.15-.17.01-.12-.25.07-.29-.09-.14c-.1.1-.19.07-.38-.11-.14-.13-.25-.3-.25-.37q-.01-.12-.14-.13c-.23 0-.3-.22-.13-.35.15-.1.15-.14 0-.34s-.14-.23.06-.28q.2-.06.21-.24c0-.1.07-.19.15-.19q.13-.01.15-.15a.15.15 0 0 0-.15-.15.15.15 0 0 1-.15-.15.15.15 0 0 0-.15-.15.15.15 0 0 0-.15.15q.01.14.15.15.14.02.15.15-.01.13-.15.15a.3.3 0 0 1-.21-.15q-.07-.13-.2-.15t-.14-.15a.15.15 0 0 0-.15-.15.15.15 0 0 0-.15.15m3.47-.08c-.12.11-.08.23.08.23q.13.02.15.15-.02.13-.15.15a.3.3 0 0 1-.21-.15q-.07-.13-.2-.15-.13.02-.14.15t-.15.15-.15.2q.02.18.15.2c.18 0 .2.26.03.33-.1.04-.1.07 0 .18q.13.16.12-.04.01-.16.2-.17.18.02.2.15-.01.13-.16.15-.13 0-.1.1c.08.11.56-.12.56-.27 0-.21.3-.15.54.12.13.14.3.25.37.25q.15 0-.03-.1c-.22-.13-.24-.4-.03-.4q.13.02.15.15t.15.15q.14-.01.15-.15a.15.15 0 0 0-.16-.15q-.15-.01-.12-.17.04-.17.15-.18a.3.3 0 0 0 .19-.07q.05-.08-.14-.08-.2 0-.22.1-.02.09-.15.1a.15.15 0 0 1-.15-.14c0-.08-.09-.18-.2-.21s-.2-.13-.2-.2a.15.15 0 0 0-.15-.15.15.15 0 0 1-.15-.15c0-.16-.12-.2-.23-.08m2.63.08q.02.14.15.15.13.02.15.15-.02.13-.15.15a.3.3 0 0 1-.21-.15q-.07-.13-.2-.15-.13.02-.14.15t-.15.15-.15.1c0 .16.39.5.45.4q.04-.08-.05-.15c-.18-.11-.1-.35.11-.35q.23-.01.16.2t.14.2q.17.02.19.15-.02.14-.15.15-.13-.01-.15-.1t-.11-.04q-.12.07.01.14c.18.11.04.41-.15.34q-.15-.05-.15.1t.1.16c.05 0 .32.24.6.53.47.46.5.48.36.2-.09-.18-.2-.33-.26-.33-.16 0-.12-.27.05-.34a.2.2 0 0 0 .15-.2q0-.15-.15-.1-.13.08-.15.2c0 .19-.32.14-.38-.04q-.02-.13.17-.19.2-.06.21-.2c0-.2.23-.16.45.1l.19.22.08-.32c.1-.37-.05-.83-.27-.83a.15.15 0 0 1-.15-.15.15.15 0 0 0-.15-.15.15.15 0 0 1-.15-.15.15.15 0 0 0-.15-.15.15.15 0 0 0-.15.15m-8.8.3q.01.13.14.15t.19.2.21.2q.15-.01.16-.2 0-.2-.2-.2-.18-.01-.2-.15a.15.15 0 0 0-.15-.15.15.15 0 0 0-.15.15m2.7 0q.01.13.14.15t.19.2.21.2q.16-.01.16-.2 0-.2-.2-.2-.18-.01-.2-.15a.15.15 0 0 0-.15-.15.15.15 0 0 0-.15.15m8.1 0q.01.13.14.15c.07 0 .16.09.19.2q.06.18.21.2.16-.01.16-.2 0-.2-.2-.2-.18-.01-.2-.15a.15.15 0 0 0-.15-.15.15.15 0 0 0-.15.15m2.7 0q.01.13.14.15t.19.2.21.2q.16-.01.16-.2 0-.2-.2-.2-.18-.01-.2-.15a.15.15 0 0 0-.15-.15.15.15 0 0 0-.15.15m-12.5.34c0 .1-.09.21-.21.24q-.19.06-.14.16c.1.16.35.13.35-.04q.01-.14.14-.15c.15 0 .28-.24.19-.34-.13-.13-.33-.05-.33.13m5.4 0c0 .1-.09.21-.21.24q-.19.06-.14.16c.1.16.35.13.35-.04q.01-.14.14-.15c.15 0 .28-.24.19-.34-.13-.13-.33-.05-.33.13m5.4 0c0 .1-.09.21-.21.24q-.19.06-.14.16c.1.16.35.13.35-.04q.01-.14.14-.15c.15 0 .28-.24.19-.34-.13-.13-.33-.05-.33.13m2.7 0c0 .1-.09.21-.21.24q-.19.06-.14.16c.1.16.35.13.35-.04q.01-.14.14-.15c.15 0 .28-.24.19-.34-.13-.13-.33-.05-.33.13m-14.44.18c-.12.12-.06.33.09.33q.14.01.15.14c0 .15.24.28.34.19.13-.14.05-.33-.14-.33q-.18-.01-.2-.14c0-.17-.14-.28-.24-.2m2.7 0c-.12.13-.06.34.09.34q.13.01.15.14c0 .15.24.28.34.19.13-.14.05-.33-.14-.33q-.18-.01-.2-.14c0-.17-.14-.28-.24-.2m8.1 0c-.12.13-.06.34.09.34q.13.01.15.14c0 .15.24.28.34.19.13-.14.05-.33-.14-.33q-.18-.01-.2-.14c0-.17-.14-.28-.24-.2m2.7 0c-.12.13-.06.34.09.34q.13.01.15.14c0 .15.24.28.34.19.13-.14.05-.33-.14-.33q-.18-.01-.2-.14c0-.17-.14-.28-.24-.2M3 6.62q0 .23.15.15.15-.06.15.14t.2.2q.18.01.2.15t.15.15q.14-.01.15-.15a.15.15 0 0 0-.15-.15q-.13-.01-.15-.12c0-.16-.44-.58-.59-.58-.06 0-.11.1-.11.21m2.7-.07c0 .07-.1.16-.21.2q-.2.04-.17.18c.06.18.38.23.38.05q.02-.14.15-.2Q6 6.7 6 6.9t.2.2q.18.01.2.15t.15.15q.13-.01.15-.15a.15.15 0 0 0-.15-.15q-.13-.01-.15-.12c0-.16-.44-.58-.59-.58q-.1.01-.11.14m9.06.11c-.08.33.03.75.2.75q.13-.01.14-.15a.15.15 0 0 0-.15-.15q-.13-.02-.15-.2.02-.18.15-.2.13-.01.15-.15c0-.25-.27-.17-.34.1m1.74-.11c0 .07-.1.16-.21.2q-.2.04-.17.18c.06.18.38.23.38.05q.02-.14.15-.2.15-.07.15.13t.2.2q.18.01.2.15t.15.15q.13-.01.15-.15a.15.15 0 0 0-.15-.15q-.13-.01-.15-.12c0-.16-.44-.58-.59-.58q-.1.01-.11.14m2.7 0c0 .07-.1.16-.21.2q-.2.04-.17.18c.06.18.38.23.38.05q.02-.14.15-.2.15-.07.15.13t.2.2q.18.01.2.15t.15.15q.13-.01.15-.15a.15.15 0 0 0-.15-.15q-.13-.01-.15-.12c0-.16-.44-.58-.59-.58q-.1.01-.11.14m-7.92.2c-.1.07-.18.18-.18.24q-.01.1-.1.14c-.13.04.1.55.27.62q.1.03.16-.15.06-.2-.14-.19-.17-.01-.19-.16 0-.16.18-.12.18.08.18-.24V6.6zM4.7 6.9q.02.18.15.2.14.01.15.15.02.14.2.15.18-.01.2-.15-.02-.14-.2-.15-.2 0-.2-.2-.02-.18-.15-.2-.13.02-.15.2m2.7 0q.02.18.15.2.13.01.15.15t.2.15q.18-.01.2-.15-.02-.14-.2-.15-.2 0-.2-.2-.01-.18-.15-.2-.13.02-.15.2m1.7 0q-.02.17-.12.23-.12.04-.04.13.08.07.13-.03.06-.12.2-.13.17-.01.09.25c-.06.22-.03.21.34-.14.22-.2.4-.4.4-.44 0-.14-.25-.01-.32.16-.09.2-.38.23-.38.03q-.01-.13-.15-.2-.15-.06-.15.13m6.4.01q.02.18.15.2.13.01.15.15t.2.15q.18-.01.2-.15-.02-.14-.2-.15-.2 0-.2-.2-.02-.18-.15-.2-.13.02-.15.2m2.7 0q.02.18.15.2.13.01.15.15t.2.15q.18-.01.2-.15-.02-.14-.2-.15-.2 0-.2-.2-.02-.18-.15-.2-.13.02-.15.2m-6.6.35q.01.14.1.15.1.02.1.15.02.13.15.15.13-.01.15-.14t.15-.2q.14-.06.15-.16-.01-.09-.15-.1a.15.15 0 0 0-.15.15q-.02.14-.15.15a.15.15 0 0 1-.15-.15q0-.14-.1-.15-.09.01-.1.15m1.12.15c-.15.24-.15.3-.02.3q.1-.01.1-.15.02-.13.15-.15.13.01.15.16t.17.12c.25-.05.28-.28.04-.28q-.2 0-.21-.1c0-.17-.25-.1-.38.1m-2.66.42q.06.27-.05.28t-.11.15.1.15.1.2q-.02.18-.15.2a.15.15 0 0 0-.15.15q.01.13.16.15.15 0 .12.18-.05.16-.16.15t-.12.17q.02.18.15.2t.15.15q-.02.13-.15.15a.15.15 0 0 0-.15.15q.02.14.15.15.13-.01.15-.15t.15-.15q.14.02.15.15.02.14.15.15.13-.01.15-.15a.15.15 0 0 0-.15-.15c-.23 0-.18-.27.06-.33q.19-.05.14-.17t.14-.17.21-.2c0-.22.25-.15.5.17.27.32.5.39.5.15q.02-.13.15-.15.14-.01.15-.15a.15.15 0 0 0-.15-.15q-.14-.02-.15-.2 0-.2-.15-.14-.13.07-.15.2t-.2.14q-.18-.02-.2-.15.02-.13.2-.15c.32 0 .23-.25-.15-.43-.2-.1-.35-.12-.35-.07 0 .16-.3.12-.36-.05q-.07-.14-.2-.15-.13-.02-.14-.15-.01-.14-.14-.15a.2.2 0 0 1-.2-.12q-.04-.09 0 .15M3 7.9q.01.18.15.2.13.01.15.15t.2.15q.2 0 .2.2t-.2.2q-.18.02-.2.15.01.13.19.15c.1 0 .21.09.24.21q.06.19.16.14c.16-.1.13-.35-.04-.35a.15.15 0 0 1-.15-.15q.02-.13.15-.15.14-.02.15-.2-.01-.18-.15-.2a.15.15 0 0 1-.15-.15.15.15 0 0 0-.14-.15c-.08 0-.18-.09-.21-.2s-.13-.2-.2-.2Q3 7.72 3 7.9m8.6-.08c0 .14.6.78.73.78q.07 0 .07-.1-.01-.09-.15-.1a.15.15 0 0 1-.15-.15q.02-.14.15-.15.14-.02.15-.15a.15.15 0 0 0-.15-.15.15.15 0 0 0-.15.15.15.15 0 0 1-.3 0c0-.07-.04-.17-.1-.2q-.09-.04-.1.07m2.03-.05c-.18.06-.16.33.02.33q.13.01.15.15-.02.14-.15.15a.3.3 0 0 1-.21-.15q-.07-.14-.2-.15-.13-.02-.14-.15a.15.15 0 0 0-.15-.15.15.15 0 0 0-.15.15q-.02.13-.15.15a.15.15 0 0 0-.15.15q.02.14.15.15.13.02.15.2-.01.18-.1.2-.1.01-.04.11.07.12.16-.05.09-.15.19-.1c.14.08.1.34-.05.34-.07 0-.16.1-.2.21q-.05.19-.14.15t-.15.14q-.05.2.1.2c.08 0 .28.15.44.32.28.3.31.32.43.16.16-.22.36-.23.36-.03q.01.14.14.15c.08 0 .18.09.21.2.07.23.25.27.25.06q-.01-.13-.15-.2a.3.3 0 0 1-.15-.2q.02-.15.15-.16c.16 0 .2-.16.06-.24q-.08-.05-.15.1c-.07.19-.36.18-.36-.01q.02-.13.15-.15t.15-.2q0-.2-.15-.14-.13.08-.15.2c0 .19-.32.14-.38-.04q-.02-.12.17-.19.2-.06.21-.2c0-.22.25-.15.5.17.27.31.5.39.5.16 0-.07.1-.16.21-.2.23-.05.17-.26-.08-.26q-.15 0-.1-.19.06-.2-.14-.14-.2.07-.19-.15c0-.11.04-.22.1-.24q.09-.03 0-.18-.11-.2-.1.01c0 .1-.1.2-.21.22q-.19.05-.14.17t-.14.17-.21.2q0 .13-.18.1a.16.16 0 0 1-.14-.19q.02-.15-.15-.14a.2.2 0 0 1-.2-.16c-.05-.2.33-.26.39-.07q.05.09.28-.1.25-.2.14-.28a.5.5 0 0 1-.15-.24q-.05-.14-.16-.12m-8.93.48q.01.14.14.15.13.02.19.2t.21.2q.15-.01.16-.2 0-.2-.2-.2-.18-.01-.2-.15a.15.15 0 0 0-.15-.15.15.15 0 0 0-.15.15m2.7 0q.01.14.14.15.13.02.19.2t.21.2q.16-.01.16-.2 0-.2-.2-.2-.18-.01-.2-.15a.15.15 0 0 0-.15-.15.15.15 0 0 0-.15.15m2.7 0q.01.14.14.15.13.02.19.2t.21.2q.15-.01.16-.2 0-.2-.2-.2-.18-.01-.2-.15a.15.15 0 0 0-.15-.15.15.15 0 0 0-.15.15m5.4 0q.01.14.14.15.13.02.19.2t.21.2q.16-.01.16-.2 0-.2-.2-.2-.18-.01-.2-.15a.15.15 0 0 0-.15-.15.15.15 0 0 0-.15.15m2.7 0q.01.14.14.15.13.02.19.2t.21.2q.16-.01.16-.2 0-.2-.2-.2-.18-.01-.2-.15a.15.15 0 0 0-.15-.15.15.15 0 0 0-.15.15m-12.5.34c0 .1-.09.21-.21.24q-.19.06-.14.16c.1.16.35.13.35-.04q.01-.13.14-.15c.15 0 .28-.24.19-.34-.13-.13-.33-.05-.33.13m2.7 0c0 .1-.09.21-.21.24Q8 8.9 8.05 9c.1.16.35.13.35-.04q.01-.13.14-.15c.15 0 .28-.24.19-.34-.13-.13-.33-.05-.33.13m2.7 0c0 .1-.09.21-.21.24q-.19.06-.14.16c.1.16.35.13.35-.04q.01-.13.14-.15c.15 0 .28-.24.19-.34-.13-.13-.33-.05-.33.13m5.4 0c0 .1-.09.21-.21.24q-.19.06-.14.16c.1.16.35.13.35-.04q.01-.13.14-.15c.15 0 .28-.24.19-.34-.13-.13-.33-.05-.33.13m2.7 0c0 .1-.09.21-.21.24q-.19.06-.14.16c.1.16.35.13.35-.04q.01-.13.14-.15c.15 0 .28-.24.19-.34-.13-.13-.33-.05-.33.13m-14.44.18c-.12.12-.06.33.09.33q.14.01.15.14c0 .15.24.28.34.19.13-.14.05-.33-.14-.33q-.18-.01-.2-.14c0-.17-.14-.28-.24-.2m5.4 0c-.12.13-.06.34.09.34q.14.01.15.14c0 .15.24.28.34.19.13-.14.05-.33-.14-.33q-.18-.01-.2-.14c0-.17-.14-.28-.24-.2m5.4 0c-.12.13-.06.34.09.34q.13.01.15.14c0 .15.24.28.34.19.13-.14.05-.33-.14-.33q-.18-.01-.2-.14c0-.17-.14-.28-.24-.2m2.7 0c-.12.13-.06.34.09.34q.13.01.15.14c0 .15.24.28.34.19.13-.14.05-.33-.14-.33q-.18-.01-.2-.14c0-.17-.14-.28-.24-.2m-9.56.19q.01.13.19.15c.1 0 .21.09.24.21q.06.19.16.14c.16-.1.13-.35-.04-.35a.15.15 0 0 1-.15-.15q-.02-.13-.2-.15-.18.02-.2.15m5.4 0q.01.13.19.15c.1 0 .21.09.24.21q.06.19.16.14c.16-.1.13-.35-.04-.35a.15.15 0 0 1-.15-.15q-.02-.13-.2-.15-.18.02-.2.15M3 9.31q0 .22.15.15.15-.06.15.14t.2.2c.27 0 .25-.2-.04-.47Q3 8.89 3 9.3m9.8.29q.02.18.15.2t.15.15.2.15q.18-.02.2-.15-.02-.13-.2-.15-.2 0-.2-.2-.02-.18-.15-.2-.13.02-.15.2m-9 .6c-.3.31-.4.6-.2.6q.09.02.1.15-.01.13-.1.15t-.1.2q.01.18.1.2t.1.15q.02.13.15.15.14.02.15.15.02.13.15.15.13-.02.15-.15a.15.15 0 0 0-.15-.15.15.15 0 0 1-.15-.15q.02-.13.15-.15t.15-.2q-.02-.18-.15-.2a.15.15 0 0 1-.15-.15q.02-.13.15-.15t.15-.15a.15.15 0 0 0-.15-.15.15.15 0 0 0-.15.15q-.01.13-.15.15-.13-.02-.15-.2.02-.18.15-.2.14-.01.15-.15.02-.14.15-.15t.15-.1q-.01-.26-.5.2m.9-.2q-.01.09-.15.1a.15.15 0 0 0-.15.15q.02.14.15.15.14-.01.15-.15.02-.14.15-.15.14.01.15.16t.17.12c.25-.05.28-.28.04-.28Q5 10.1 5 10q-.02-.09-.15-.1-.13 0-.15.1m3.4.01q-.01.11-.32.06-.29-.04-.2 0c.06.02.12.11.12.19 0 .19.3.18.36-.01q.07-.14.2-.15.13.02.14.15.01.14.14.15c.08 0 .18.09.21.2s.13.2.2.2q.14.02.15.15-.02.13-.2.15-.18-.02-.2-.15a.15.15 0 0 0-.15-.15.15.15 0 0 1-.15-.15.15.15 0 0 0-.15-.15.15.15 0 0 0-.15.15q.01.13.15.15t.15.15q-.01.13-.15.15a.3.3 0 0 1-.21-.15q-.07-.13-.2-.15t-.14-.15a.15.15 0 0 0-.15-.15.15.15 0 0 0-.15.15q-.01.13-.15.15a.15.15 0 0 0-.15.15q.01.13.15.15c.2 0 .19.38-.02.42-.16.03-.16.04 0 .2.1.09.17.21.17.27q.02.1.15.11.13.02.15.15 0 .14.04.15l.2.06q.18.08.1-.1t.15-.23c.11-.03.21-.12.21-.2 0-.18.3-.17.36.02q.07.13.19.15c.16 0 .25-.35.18-.71q-.04-.27.05-.29.1 0-.01-.3c-.06-.17-.18-.3-.25-.3q-.13-.02-.2-.2-.04-.18-.18-.2-.13 0-.14-.1-.01-.09-.15-.1-.14.01-.15.11m3.28.03c-.2.14-.24.36-.09.36q.1.02.16.2c.03.11.13.2.2.2q.14.02.15.15-.02.13-.2.15-.18-.02-.2-.15 0-.13-.1-.15c-.16 0-.12.21.06.35.15.1.15.13 0 .27-.22.22-.2.29.14.58.17.13.3.3.3.37q.02.12.15.13.13-.02.15-.2t.15-.2.15-.15a.15.15 0 0 0-.15-.15.15.15 0 0 1-.15-.15q.02-.13.15-.15.14-.02.15-.2-.01-.18-.15-.2a.15.15 0 0 1-.15-.15q.02-.13.15-.15.14-.02.15-.15a.15.15 0 0 0-.15-.15.15.15 0 0 0-.15.15q-.02.13-.15.15-.13-.01-.15-.14t-.2-.19-.2-.21q.01-.15.2-.16.18.02.2.15c0 .22.27.19.33-.04q.06-.2-.14-.14-.17.04-.19-.06c0-.15-.21-.13-.43.03m-6.67.61q-.01.13-.15.15a.15.15 0 0 0-.15.15q.02.13.15.15.14.02.15.2-.01.18-.15.2a.15.15 0 0 0-.15.15q.01.13.16.15.15 0 .12.18-.05.16-.16.14-.11 0-.12.18.02.18.15.2.14-.02.15-.2.02-.18.15-.2.14.02.15.2c0 .22.15.27.26.08q.05-.1-.1-.23c-.2-.15-.21-.35-.01-.35q.13-.02.15-.15a.15.15 0 0 0-.15-.15q-.14-.02-.15-.2c0-.19.04-.2.31-.15l.31.07-.21-.21c-.12-.12-.25-.21-.31-.21q-.09-.02-.1-.15a.15.15 0 0 0-.15-.15.15.15 0 0 0-.15.15m5.4 0q-.02.13-.15.15a.15.15 0 0 0-.15.15q.02.13.15.15t.15.2q0 .2-.2.2c-.26 0-.26.2 0 .27.22.06.23.4.02.36q-.11-.01-.12.17.02.18.15.2t.15.15q-.02.13-.15.15a.15.15 0 0 0-.15.15q.02.13.15.15.13-.02.15-.15t.15-.15q.14.02.15.15.02.13.15.15.15-.02.21-.15.07-.13.2-.15.13.02.14.15t.14.15c.08 0 .18.09.21.2s.13.2.2.2q.14.02.15.15-.02.13-.2.15-.18-.02-.2-.15a.15.15 0 0 0-.15-.15.15.15 0 0 1-.15-.15.15.15 0 0 0-.15-.15.15.15 0 0 0-.15.15q-.02.14-.2.15-.18-.02-.2-.15a.15.15 0 0 0-.15-.15.15.15 0 0 0-.15.15q-.02.14-.15.15a.15.15 0 0 0-.15.15q.02.13.15.15t.15.15.15.15q.14-.01.15-.1c0-.15.4-.5.58-.5q.1.02.12.15-.02.13-.15.15t-.15.2c0 .26.2.26.27 0 .06-.21.4-.24.36-.03s.29.24.34.03c.06-.22.33-.28.33-.06q.01.13.19.19.2.06.14-.14c-.03-.1-.12-.19-.2-.19q-.12-.02-.13-.15.02-.13.15-.15.14-.02.15-.15a.15.15 0 0 0-.15-.15.15.15 0 0 0-.15.15q-.02.14-.15.15-.13-.01-.15-.14-.02-.12-.2-.19-.18-.06-.2-.21.01-.15.2-.16.18.02.2.15t.15.15q.13-.02.15-.15t.15-.15.15-.1-.12-.04c-.07.04-.52.08-1 .1-.69.01-.88-.02-.88-.12q.02-.13.15-.14t.15-.2q-.02-.18-.15-.2a.15.15 0 0 1-.15-.15q.02-.13.15-.15t.15-.14q-.02-.13-.15-.2a.3.3 0 0 1-.15-.2q.02-.15.15-.16t.15-.15a.15.15 0 0 0-.15-.15.15.15 0 0 1-.15-.15.15.15 0 0 0-.15-.15.15.15 0 0 0-.15.15m3.4 0q.02.13.15.15t.15.15q-.01.13-.13.15c-.16 0-.38.68-.24.73q.1.04.04.21-.07.16-.22.12-.15-.06-.15.14-.02.18-.15.2a.15.15 0 0 0-.15.15q-.02.13-.15.15a.15.15 0 0 0-.15.15q.02.13.15.15.13-.02.15-.15t.15-.15q.13.02.15.15t.15.15q.15-.02.21-.15.07-.13.2-.15.13.02.14.15t.14.15c.08 0 .18.09.21.2q.06.18.16.2c.06 0 .18.08.27.17.16.16.17.16.2 0q.04-.16.18-.17t.14-.15a.15.15 0 0 0-.15-.15.15.15 0 0 0-.15.15q-.02.14-.15.15-.13-.01-.15-.14c0-.07-.09-.16-.2-.19q-.18-.06-.2-.21.01-.15.2-.16.18.02.2.15t.15.15q.13-.02.15-.15t.15-.15.15-.15q0-.13-.09-.15-.08.02-.15.15c-.07.2-.3.2-.47 0-.11-.15-.13-.15-.21 0-.11.2-.38.2-.38 0q.02-.13.15-.15t.15-.2q0-.2-.15-.14-.13.08-.15.2c0 .19-.32.14-.38-.04q-.02-.12.17-.19.2-.06.21-.2c0-.18.3-.17.36.02q.07.13.15.15.08-.02.09-.15a.15.15 0 0 0-.15-.15.15.15 0 0 1-.15-.15q.02-.13.15-.15.14-.02.15-.2-.01-.18-.15-.2a.15.15 0 0 1-.15-.15.15.15 0 0 0-.15-.15.15.15 0 0 1-.15-.15.15.15 0 0 0-.15-.15.15.15 0 0 0-.15.15m2 0q-.02.13-.15.15a.15.15 0 0 0-.15.15q.01.13.15.15t.15.2q-.02.18-.15.2a.15.15 0 0 0-.15.15q.01.13.16.15.15 0 .12.18c-.02.1-.1.16-.16.14q-.11 0-.12.18.01.18.15.2t.15.15q-.02.13-.15.15a.15.15 0 0 0-.15.15q.01.13.15.15.14-.02.15-.15.02-.13.15-.15.13.02.15.15t.15.15q.15-.02.21-.15.07-.13.2-.15.13.02.14.15t.14.15c.08 0 .18.09.21.2s.13.2.2.2q.14.02.15.15-.02.13-.2.15-.18-.02-.2-.15a.15.15 0 0 0-.15-.15.15.15 0 0 1-.15-.15.15.15 0 0 0-.15-.15.15.15 0 0 0-.15.15q.02.14.15.15.13.02.15.15-.02.13-.15.15t-.15.2q.02.18.15.2.13.01.15.15-.02.14-.15.15a.15.15 0 0 0-.15.15q.02.13.15.15.13-.02.15-.15t.11-.15c.15 0 .59.42.59.58q.02.1.15.12.13-.02.15-.2t.15-.2.15-.15a.15.15 0 0 0-.15-.15.15.15 0 0 1-.15-.15q.02-.14.15-.15.13-.02.15-.2-.02-.18-.15-.2a.15.15 0 0 1-.15-.15q.02-.13.15-.15t.15-.15a.15.15 0 0 0-.15-.15.15.15 0 0 0-.15.15q-.02.14-.15.15-.13-.01-.15-.14-.02-.12-.2-.19-.18-.06-.2-.21.01-.15.2-.16.18.02.2.15t.15.15q.13-.02.15-.15t.15-.15.15-.15a.15.15 0 0 0-.15-.15q-.13-.02-.15-.2.02-.18.15-.2t.15-.15c0-.27-.25-.16-.4.17-.1.24-.1.33-.02.36.17.05.15.32-.03.32-.16 0-.42-.23-.62-.56-.12-.18-.12-.18-.19.04q-.07.21-.22.2c-.24-.05-.27-.29-.04-.35.19-.04.37-.41.27-.52q-.05-.03-.05.07c0 .15-.26.16-.35.02q-.04-.1.15-.18l.21-.08-.2-.26c-.11-.14-.17-.28-.14-.32q.04-.05-.15-.06-.2 0-.22-.15a.15.15 0 0 0-.15-.15.15.15 0 0 0-.15.15m2.7-.01q-.02.13-.15.2-.13.06-.15.16.02.09.15.1t.15.2q-.02.18-.15.2a.15.15 0 0 0-.15.15q.01.13.16.15.15 0 .12.18-.05.16-.16.14-.11 0-.12.18.02.18.15.2t.15.15q-.02.13-.15.15a.15.15 0 0 0-.15.15q.02.13.15.15.13-.02.15-.15t.15-.15q.13.02.15.15t.15.15q.15-.02.21-.15.07-.13.2-.15.13.02.14.15t.14.15c.08 0 .18.09.21.2s.13.2.2.2q.14.02.15.15-.02.13-.2.15-.18-.02-.2-.15a.15.15 0 0 0-.15-.15.15.15 0 0 1-.15-.15.15.15 0 0 0-.15-.15.15.15 0 0 0-.15.15q.02.14.15.15.13.02.15.15-.02.13-.15.15a.3.3 0 0 1-.21-.15q-.07-.13-.2-.15t-.14-.15a.15.15 0 0 0-.15-.15.15.15 0 0 0-.15.15q-.02.14-.15.15a.15.15 0 0 0-.15.15q.02.13.15.15t.15.2q-.02.18-.15.2a.15.15 0 0 0-.15.15q.01.14.16.15t.12.18q-.05.16-.16.15t-.12.17q.02.18.15.2.13-.02.15-.2t.15-.2q.13.02.15.2 0 .2.2.2t.13-.16.16-.2c.11-.04.21-.13.21-.2q.01-.13.11-.14c.15 0 .59.42.59.58q.02.1.15.12.13-.02.15-.2t.15-.2.15-.15a.15.15 0 0 0-.15-.15.15.15 0 0 1-.15-.15q.02-.14.15-.15.13-.02.15-.2-.02-.18-.15-.2a.15.15 0 0 1-.15-.15q.02-.13.15-.15t.15-.15a.15.15 0 0 0-.15-.15.15.15 0 0 0-.15.15q-.02.14-.15.15-.13-.01-.15-.14c0-.07-.09-.16-.2-.19q-.18-.06-.2-.21.01-.15.2-.16.18.02.2.15t.15.15q.13-.02.15-.15t.15-.15.15-.15a.15.15 0 0 0-.15-.15q-.13-.01-.15-.14t-.15-.2c-.2-.08-.19-.36.02-.36q.2.02.04-.12-.14-.15-.18 0-.06.1-.23.12-.17-.02-.23-.12-.04-.11-.12-.06c-.04.04.06.2.24.35.36.31.4.53.11.53q-.2 0-.2-.2t-.15-.14q-.13.07-.15.15c0 .15-.39.49-.55.49q-.3 0 .01-.45c.15-.23.15-.25 0-.25q-.15-.02-.16-.15.02-.13.2-.15.18 0 .2-.1-.02-.1-.2-.2c-.26-.14-.26-.4 0-.4q.18 0 .23.23.03.28.11.05c.08-.17-.23-.58-.44-.58q-.1-.02-.1-.15a.15.15 0 0 0-.15-.15q-.13.01-.15.14m-5.52.13c-.22.05-.24.33-.03.33q.13.02.15.2-.02.18-.15.2c-.22 0-.18.27.04.33q.2.05.14-.1c-.03-.07 0-.2.07-.28.1-.12.1-.18 0-.3-.07-.08-.1-.22-.06-.3q.04-.13.03-.14zm-5.27.18q.01.13.14.15t.19.2.21.2q.16-.01.16-.2 0-.2-.2-.2-.18-.02-.2-.15a.15.15 0 0 0-.15-.15.15.15 0 0 0-.15.15m8.1 0q.01.13.14.15c.07 0 .16.09.19.2q.06.18.21.2.16-.01.16-.2 0-.2-.2-.2-.18-.02-.2-.15a.15.15 0 0 0-.15-.15.15.15 0 0 0-.15.15m-7.1.34c0 .1-.09.21-.21.24q-.19.06-.14.16c.1.16.35.13.35-.04q.01-.13.14-.15c.15 0 .28-.24.19-.34-.13-.13-.33-.05-.33.13m3.4.01q0 .2-.2.2-.18.02-.2.15.01.13.19.15c.1 0 .21.09.24.21q.06.19.16.14c.16-.1.13-.35-.04-.35a.15.15 0 0 1-.15-.15q.02-.13.15-.15t.15-.2q-.02-.18-.15-.2-.13.02-.15.2m2 0q-.02.18-.15.2a.15.15 0 0 0-.15.15q.02.13.15.15.13-.02.15-.15t.14-.15c.15 0 .28-.24.19-.34-.14-.13-.33-.05-.33.14m-6.34.17c-.12.12-.06.33.09.33q.13.01.15.14c0 .15.24.28.34.19.13-.14.05-.33-.14-.33q-.18-.01-.2-.14c0-.17-.14-.28-.24-.2m8.1 0c-.12.13-.06.34.09.34q.13.01.15.14c0 .15.24.28.34.19.13-.14.05-.33-.14-.33q-.18-.01-.2-.14c0-.17-.14-.28-.24-.2m-.06.84q.02.18.15.2t.15.15.2.15q.18-.02.2-.15-.02-.13-.2-.15-.2 0-.2-.2-.02-.18-.15-.2-.13.02-.15.2m-6.5.2c-.25.21-.42.29-.6.25q-.22-.03-.12.01.1.06.12.2.01.13.14.14c.08 0 .18.09.21.2s.13.2.2.2q.14.02.15.15-.02.13-.2.15-.18-.02-.2-.15a.15.15 0 0 0-.15-.15.15.15 0 0 1-.15-.15.15.15 0 0 0-.15-.15.15.15 0 0 0-.15.15q0 .14.1.15c.17 0 .5.34.5.5q-.01.15-.1.27-.13.12 0 .17.09.05.1-.07.02-.14.2-.2t.2-.21.15-.16c.17 0 .2.23.05.5q-.09.18-.03.2c.13 0 .35-.64.23-.68-.16-.06-.12-.32.05-.32q.13-.02.15-.15a.15.15 0 0 0-.15-.15.15.15 0 0 0-.15.15q-.01.14-.15.15-.14-.01-.15-.14c0-.07-.09-.16-.2-.19q-.18-.06-.2-.21.01-.15.2-.16.18.02.2.15.01.13.15.15.14-.02.15-.15.02-.13.15-.15t.15-.15a.15.15 0 0 0-.14-.15.2.2 0 0 1-.18-.14c-.02-.11-.12-.07-.38.15m-1.6.19q-.01.1-.15.1a.15.15 0 0 0-.15.15q.01.13.15.15.14-.02.15-.15.02-.13.15-.15.13.02.15.15t.14.15q.13-.02.2-.15.06-.15-.14-.15c-.1 0-.22-.04-.25-.1q-.06-.09-.16-.1-.08.01-.09.1m-4.4.6q.01.18.15.2t.15.15q.02.13.2.15.2 0 .2.2t-.2.2q-.18.01-.2.15.01.14.19.15c.1 0 .21.09.24.21q.06.19.16.14c.16-.1.13-.35-.04-.35a.15.15 0 0 1-.15-.15q.02-.14.15-.15.14-.02.15-.2-.01-.18-.15-.2a.15.15 0 0 1-.15-.15.15.15 0 0 0-.14-.15c-.08 0-.18-.09-.21-.2s-.13-.2-.2-.2q-.14.02-.15.2m4.4.05q-.01.14-.15.15a.15.15 0 0 0-.15.15q.01.13.15.15t.15.2q-.01.18-.15.2a.15.15 0 0 0-.15.15q.01.14.15.15.14.02.15.15c0 .27.28.16.38-.15q.1-.29.01-.3-.08-.02-.09-.2.02-.18.15-.2t.15-.15a.15.15 0 0 0-.15-.15.15.15 0 0 1-.15-.15.15.15 0 0 0-.15-.15.15.15 0 0 0-.15.15m5.4 0q-.02.14-.15.15a.15.15 0 0 0-.15.15q.02.13.15.15t.15.2q0 .18.12.18c.06-.02.14.05.16.15.04.2-.23.24-.32.04q-.04-.08 0 .14.05.26-.1.32c-.2.08-.2.37-.01.37q.13-.02.15-.2t.15-.2q.13.02.15.2 0 .2.2.2c.22 0 .18-.25-.06-.34-.2-.08-.17-.36.05-.36.18 0 .39-.45.26-.58q-.05-.03-.05.12c0 .23-.34.17-.38-.07q-.04-.17.17-.17c.27 0 .27-.2.01-.27q-.18-.06-.2-.2-.02-.12-.15-.13a.15.15 0 0 0-.15.15m2.7 0q-.02.14-.15.15-.14 0-.15.1.01.1.15.1t.15-.1.15-.1q.13.02.15.15-.02.13-.15.15t-.15.18c0 .1-.16.28-.35.4q-.56.4-.2.42.13-.02.15-.15t.2-.15.2-.14c0-.08.17-.28.38-.46.35-.3.36-.3.15-.36q-.21-.08-.23-.2t-.15-.14a.15.15 0 0 0-.15.15m-10.8.3q.01.13.14.15t.19.2.21.2q.15-.01.16-.2 0-.2-.2-.2-.18-.02-.2-.15a.15.15 0 0 0-.15-.15.15.15 0 0 0-.15.15m13.5 0q.01.13.14.15t.19.2.21.2q.16-.01.16-.2 0-.2-.2-.2-.18-.02-.2-.15a.15.15 0 0 0-.15-.15.15.15 0 0 0-.15.15m-12.5.34c0 .1-.09.21-.21.24q-.19.06-.14.16c.1.16.35.13.35-.04q.01-.14.14-.15c.15 0 .28-.24.19-.34-.13-.13-.33-.05-.33.13m11.5.01q0 .2-.2.2-.18.01-.2.15.01.14.19.15c.1 0 .21.09.24.21q.06.19.16.14c.16-.1.13-.35-.04-.35a.15.15 0 0 1-.15-.15q.02-.14.15-.15.13-.02.15-.2-.02-.18-.15-.2-.13.02-.15.2m2-.01c0 .1-.09.21-.21.24q-.19.06-.14.16c.1.16.35.13.35-.04q.01-.14.14-.15c.15 0 .28-.24.19-.34-.13-.13-.33-.05-.33.13m.7.01q0 .2-.2.2-.18.01-.2.15.01.14.19.15c.1 0 .21.09.24.21q.06.19.16.14c.16-.1.13-.35-.04-.35a.15.15 0 0 1-.15-.15q.02-.14.15-.15.13-.02.15-.2-.02-.18-.15-.2-.13.02-.15.2m-15.14.17c-.12.12-.06.33.09.33q.14.01.15.14c0 .15.24.28.34.19.13-.14.05-.33-.14-.33q-.18-.01-.2-.14c0-.17-.14-.28-.24-.2m13.5 0c-.12.13-.06.34.09.34q.13.01.15.14c0 .15.24.28.34.19.13-.14.05-.33-.14-.33q-.18-.01-.2-.14c0-.17-.14-.28-.24-.2m-4.53.31q-.23.5-.03.38.1-.04.1.14.02.2.15.21.13-.01.15-.16 0-.13-.1-.1-.08.04-.16-.16-.06-.21.05-.26c.12-.04.15-.32.04-.32-.05 0-.14.12-.2.27"/></svg>