<svg xmlns="http://www.w3.org/2000/svg" width="24" height="24"><path fill="#FFF" fill-rule="evenodd" d="M10.35 2.1c-.3.12-.64.53-.75.9-.14.47-.13 8.14 0 8.62.07.23.24.48.44.63.32.25.36.25 2.15.25H14l.38-.34.37-.34.03-4.41c.03-4.88.04-4.82-.61-5.21-.28-.18-.5-.2-1.97-.2-.9.01-1.74.05-1.85.1m.49.81c.1.06.38.1.61.06.5-.05.68.03.63.27-.02.14-.18.18-.82.22-.73.04-.96.09-.85.17.02.02.8 0 1.74-.03q2.2-.08.5-.15c-.33-.01-.43-.18-.24-.41.09-.1.28-.15.66-.13.29.02.56 0 .6-.04s-.63-.07-1.48-.07c-1.16 0-1.5.03-1.35.11m.36 1.2c-.13.24-.13 1 0 1.36.06.15.2.35.32.44.2.15.2.17.04.7l-.23.69q-.07.16.06.04c.07-.06.2-.38.3-.7.16-.54.2-.6.48-.62.3-.03.31 0 .43.47.06.27.18.58.25.68.19.24.19.04 0-.4-.2-.46-.2-.86 0-.93.33-.13.48-1.5.19-1.79-.24-.24-1.7-.2-1.84.06m.17.06c-.04.03-.07.15-.07.25 0 .17.07.18.82.12.46-.04.85-.08.87-.1q.02-.04-.02-.19c-.05-.12-.23-.15-.8-.15-.4 0-.77.03-.8.07m.6.5c-.6.04-.67.06-.67.25q0 .2.16.14c.09-.03.47-.06.86-.06.6 0 .69-.02.66-.17-.04-.2-.07-.2-1-.16m-.58.71q.01.41.56.42c.54 0 1.03-.25 1.04-.52 0-.05-.36-.08-.8-.08-.7 0-.8.02-.8.18m.01 2.8c-.01.4-.25.43-.4.04l-.1-.27.02.29c.01.17.1.34.22.4s.23.15.27.21q.08.1.08-.01.02-.12.25-.18c.2-.05.25-.12.24-.39q0-.43-.08-.07c-.1.34-.34.31-.42-.05l-.07-.3zm1.38 0c0 .44-.18.5-.35.1q-.15-.39-.15-.11 0 .52.31.53c.1 0 .19.04.19.1 0 .11.5-.14.61-.32.12-.18.11-.48 0-.48q-.09.02-.13.22c-.04.3-.33.3-.33.01a1 1 0 0 0-.08-.3q-.06-.03-.07.25m-1.27.95a4 4 0 0 0-.6.3c-.13.14.22.06.66-.13.54-.25.72-.25 1.22 0 .22.12.48.2.57.18.19-.04-.67-.46-1.08-.54-.14-.02-.48.06-.77.19m.57.56v.4l-.57.04-.58.03.57.02.57.02.04.83.03.82.02-.82.02-.83h.54c.3 0 .57-.04.6-.08.03-.05-.17-.07-.45-.04-.56.05-.72-.06-.63-.44.03-.12 0-.25-.05-.29q-.1-.05-.11.34m-.5.85c0 .27-.3.79-.59 1.03q-.23.2-.13.23c.36 0 1.01-1.14.78-1.37q-.05-.05-.06.1m.98-.08c-.1.1.2.87.44 1.12.12.13.28.23.37.23q.18.01-.07-.16a2 2 0 0 1-.61-1.02q-.07-.2-.13-.17M7.34 13.6c-.55.22-.73 1.09-.3 1.48.4.38 1.3.23 1.39-.24.03-.2 0-.24-.17-.24s-.22.06-.21.28c0 .23-.04.27-.32.3-.75.07-.88-1.3-.14-1.57q.23-.09.11-.1c-.08 0-.25.04-.36.09m7.31.8c0 .83.01.9.2.9.17 0 .2-.07.2-.47 0-.43.03-.48.24-.51.22-.04.23-.01.2.47-.04.46-.02.51.17.51.2 0 .23-.17.09-.86-.05-.25-.43-.38-.62-.22-.1.08-.13.02-.13-.3 0-.33-.04-.42-.17-.42-.16 0-.18.11-.18.9m-2.4-.3c-.45.1-.55.18-.55.44q.02.44.46.46c.29 0 .47-.24.42-.55q-.06-.26.1-.35.28-.18-.44 0m-3.14.13c-.44.22-.37 1.07.09 1.07q.15 0 .05-.08c-.28-.2-.26-.85.03-.96.09-.04.22-.01.3.05.16.14.17.7.01.87q-.1.11-.02.12c.18 0 .44-.35.44-.58 0-.11-.12-.3-.26-.41-.31-.24-.31-.25-.64-.08m1.25-.05c-.05.04-.1.3-.1.6 0 .49.02.52.25.52q.27 0 .12-.12c-.14-.14-.16-.57-.03-.76.05-.08.17-.12.27-.1.24.04.33.76.12.9q-.13.08.12.08c.24 0 .25-.02.22-.5-.04-.57-.27-.79-.61-.6q-.18.09-.23 0-.04-.08-.13-.02m3.31.13c-.4.32-.29.95.19 1 .37.03.5-.03.2-.1-.26-.05-.3-.11-.33-.42-.04-.44.19-.69.43-.49.09.07.19.1.22.06.08-.08-.15-.26-.33-.26-.06 0-.23.1-.38.2m2.6-.07q-.19.15-.08.2t.2-.1q.1-.15.26-.1c.25.1.18.3-.17.52-.17.11-.33.28-.35.37-.03.15.05.17.55.16.32 0 .52-.03.45-.05q-.11-.06-.12-.53c0-.41-.03-.49-.22-.54-.31-.08-.32-.08-.53.07m-4.31.11c-.1.26 0 .51.21.51.23 0 .32-.3.15-.5q-.25-.28-.36 0m-.22.83c.04.12.02.25-.03.28-.25.15.1.54.5.54.37 0 .7-.35.55-.58-.06-.1-.24-.2-.4-.23l-.48-.14c-.16-.07-.18-.05-.14.13m.12.37c-.08.2.04.35.3.35.27 0 .51-.24.41-.4-.1-.15-.65-.12-.71.05"/></svg>