<svg xmlns="http://www.w3.org/2000/svg" width="24" height="24"><path fill="#FFF" fill-rule="evenodd" d="M3.63 6.8q-.69.42-.6 1.34c.04.41.1.55.4.83s.44.33.85.33c.7 0 1.07-.33 1.26-1.12l.06-.28h-.65c-.58 0-.65.02-.65.2 0 .16.07.2.3.2q.3 0 .3.14c0 .41-.82.53-1.12.15-.25-.3-.24-1.03.02-1.29a.7.7 0 0 1 .99.01c.15.16.27.2.46.15.22-.06.24-.1.15-.27-.3-.55-1.2-.75-1.77-.4M6.3 7.95V9.3h.3c.3 0 .3-.01.3-.5q0-.51.13-.5c.08 0 .24.22.37.5.21.46.26.5.57.5h.35l-.3-.54-.28-.53.23-.27q.45-.51 0-1.03c-.22-.24-.33-.28-.96-.31l-.71-.04zM9.43 6.8c-.6.36-.8 1.16-.47 1.86q.3.64 1.2.64c.39 0 .51-.05.79-.33 1.11-1.11-.2-2.98-1.52-2.17m3-.08c-.22.1-.43.48-.43.77 0 .24.37.56.83.72q.8.28.42.55c-.26.2-.41.18-.65-.06-.25-.25-.6-.26-.6-.02 0 .59 1.23.87 1.68.39.28-.3.29-.81.02-1.04-.1-.1-.39-.24-.62-.33q-.44-.15-.43-.35c0-.25.46-.33.65-.1.24.3.67.15.54-.2-.15-.37-.94-.56-1.4-.33m2.6 0c-.23.1-.44.48-.44.78 0 .23.5.66.9.75a1 1 0 0 1 .41.22c.11.13.1.18-.06.3-.26.18-.41.17-.65-.07s-.6-.26-.6-.02c0 .59 1.23.87 1.68.39.24-.26.29-.74.1-1a2 2 0 0 0-.63-.34c-.37-.14-.5-.24-.5-.38 0-.26.52-.34.61-.1.06.15.45.21.57.09.1-.1-.15-.52-.4-.63-.3-.13-.7-.13-1 0m2.71.08c-.7.43-.8 1.57-.19 2.18.29.29.4.33.84.33s.56-.05.87-.33c.66-.6.56-1.71-.19-2.17a1.3 1.3 0 0 0-1.33-.01m2.66-.04c-.18.22 0 .5.31.5.2 0 .24-.05.24-.3 0-.23-.05-.3-.2-.33a.4.4 0 0 0-.35.13m-13.5.7c0 .35.01.36.33.33.25-.02.33-.08.35-.27q.06-.4-.46-.4c-.19-.01-.22.04-.22.35m2.7-.16c-.22.22-.27.88-.1 1.21.26.47.99.4 1.2-.12a1.1 1.1 0 0 0-.17-1.1c-.21-.25-.68-.24-.93.01m8.3.06c-.51.66.04 1.7.77 1.43q.43-.16.43-.87c0-.74-.77-1.1-1.2-.56m-8.64 2.75c-.48.38-.22 1.19.38 1.19.28 0 .66-.42.66-.72 0-.22-.43-.68-.63-.68-.08 0-.26.1-.4.2m8.4 0a.65.65 0 0 0-.07 1c.27.27.62.25.88-.03q.43-.46-.03-.92c-.3-.3-.45-.31-.79-.04m-12.96.54c0 .72.17.9.22.23l.03-.42.28.43c.16.23.34.4.4.38.07-.02.13-.29.15-.65.02-.5 0-.62-.12-.62q-.15 0-.18.38l-.03.37-.22-.37q-.53-.9-.53.27m1.75-.28c-.23.55-.3.93-.16.93q.1-.02.17-.15c.08-.2.44-.19.6.02.24.33.28.03.07-.55q-.36-1.05-.68-.25m1.27.24q.04.6.16.67.11.02.12-.2c0-.2.06-.27.3-.32.28-.05.31-.09.28-.38-.03-.31-.06-.33-.46-.36l-.43-.03zm3 .02.03.62.38.03c.28.02.37 0 .37-.12q0-.15-.25-.16c-.23 0-.25-.03-.25-.5 0-.38-.04-.5-.15-.5-.13 0-.15.11-.13.63m1.18.03v.65l.42-.03c.5-.04.66-.28.19-.28q-.3 0-.31-.15.01-.15.25-.15t.25-.1q-.02-.09-.25-.1-.25 0-.25-.15t.3-.15c.17 0 .3-.04.3-.1 0-.05-.2-.1-.45-.1h-.45zm1.2-.56q.02.1.2.1c.18 0 .2.07.2.56 0 .73.24.7.28-.04q.02-.54.18-.52.12 0 .14-.1c0-.05-.22-.1-.5-.1-.27 0-.5.05-.5.1m1.41.46c-.25.66-.26.74-.06.74q.13-.02.15-.15.01-.15.25-.15c.14 0 .28.07.31.15q.07.13.21.15.13-.02.1-.12l-.23-.65c-.25-.7-.45-.7-.73.03m1.39.1c0 .48.03.65.13.62.06-.03.13-.2.15-.38l.03-.32.25.36c.14.2.3.36.34.36.06 0 .1-.3.1-.65 0-.7-.17-.9-.22-.28l-.03.38-.22-.37q-.53-.9-.53.28m-6.55-.26c-.1.33.04.6.3.6q.25.01.3-.25c.12-.46-.46-.8-.6-.35m8.45-.05c-.2.24-.04.65.25.65q.25.01.3-.25c.08-.27-.08-.55-.3-.55q-.12.01-.25.15"/></svg>