<svg xmlns="http://www.w3.org/2000/svg" width="24" height="24"><path fill="#FFF" fill-rule="evenodd" d="M11.35 2.09c-.8.2-1.51.86-1.78 1.62-.08.24-.2.87-.26 1.39a6 6 0 0 1-.93 2.8 7 7 0 0 0-.94 2.93 4.6 4.6 0 1 0 9.13.13 7 7 0 0 0-1.02-3.26 6 6 0 0 1-.89-2.84 7 7 0 0 0-.26-1.35 4 4 0 0 0-1.22-1.22 3.4 3.4 0 0 0-1.83-.2m-.1.95c-.68.3-1 .9-1.1 2.14a6.4 6.4 0 0 1-.95 2.97 6 6 0 0 0-.89 2.5c-.1.81 0 1.69.29 2.32.27.61 1.05 1.4 1.75 1.77.56.29.67.31 1.65.31.95 0 1.1-.03 1.62-.28a4.4 4.4 0 0 0 1.89-2.04c.17-.46.22-.77.22-1.48a6 6 0 0 0-.88-3.05 7 7 0 0 1-1.05-3.54c0-.96-.8-1.76-1.75-1.76-.27 0-.63.07-.8.14m-.12 6.42a2.1 2.1 0 0 0 0 3.8c.6.28.98.3 1.58.09a2.11 2.11 0 0 0 .46-3.72 2.4 2.4 0 0 0-2.04-.17m.68.68c-.14.17.1.46.38.46.23 0 .58.4.63.7.03.28.42.4.51.16.16-.42-.3-1.14-.86-1.35-.38-.15-.52-.14-.66.03"/></svg>