<svg xmlns="http://www.w3.org/2000/svg" width="24" height="24"><path fill="#FFF" fill-rule="evenodd" d="M17.7 6.85c0 .41.2.47.44.13q.36-.5-.14-.48c-.28 0-.3.03-.3.35M3 9.15v2.25h1V9.7h.7v1.7h1V6.9h-1l-.02.87-.03.87h-.6l-.03-.87L4 6.9H3zm3.9-2.18c-.49.2-.5.24-.5 2.4v2.03h1V9.7H8v1.7h1.1V9.41c0-2.49.02-2.45-1.22-2.48a5 5 0 0 0-.98.04m2.87 0C9.73 7 9.7 8.02 9.7 9.22v2.18h1.15c1.1 0 1.17-.01 1.4-.25.22-.2.25-.33.25-.94 0-.5-.04-.74-.16-.85-.14-.14-.14-.18 0-.38.16-.23.22-1.3.1-1.63-.13-.32-.6-.45-1.62-.45-.54 0-1.02.03-1.05.07m3.4 0c-.04.03-.07 1.05-.07 2.25v2.18h1.1l-.02-2.22-.03-2.23-.45-.03c-.25-.02-.49 0-.53.04m1.7 0c-.04.04-.07 1.06-.07 2.26v2.18h1.15c1.48 0 1.55-.05 1.55-1.19 0-.59-.04-.82-.16-.92-.14-.11-.14-.13 0-.21.13-.07.16-.27.16-.93 0-.78-.02-.85-.26-1.04-.23-.18-.4-.21-1.29-.21-.56 0-1.05.03-1.08.07m3.93 0c-.44.17-.5.33-.5 1.34 0 1.25.11 1.39 1.07 1.39H20v.3c0 .28-.03.3-.35.3q-.35 0-.35-.15c0-.11-.12-.15-.5-.15h-.5v.48c0 .78.2.92 1.34.92 1.3 0 1.36-.07 1.36-1.4 0-.95 0-1-.27-1.2-.22-.17-.39-.2-.83-.19l-.55.03-.03-.32c-.03-.3-.02-.32.32-.32q.37 0 .36.15c0 .11.12.15.5.15h.5v-.48c0-.72-.2-.86-1.24-.9-.44 0-.88.01-.96.05M7.42 8.32c.03.26.07.32.3.33.25 0 .28-.03.28-.32S7.97 8 7.7 8c-.29 0-.31.02-.28.32m3.38-.03c0 .24.05.3.3.33.28.04.3.03.3-.29 0-.3-.03-.33-.3-.33-.26 0-.3.03-.3.29m5.1.04c0 .3.03.33.28.32.23-.01.27-.07.3-.33.03-.3.01-.32-.27-.32s-.31.03-.31.33M10.8 10c0 .27.03.3.3.3s.3-.03.3-.3-.03-.3-.3-.3-.3.03-.3.3m5.1 0c0 .27.03.3.3.3s.3-.03.3-.3-.03-.3-.3-.3-.3.03-.3.3"/></svg>