<svg xmlns="http://www.w3.org/2000/svg" width="24" height="24"><path fill="#FFF" fill-rule="evenodd" d="M10.97 2.18a.6.6 0 0 0 .03.87c.25.23.25.32 0 .45q-.48.24-.5-.4c0-.29-.06-.43-.22-.54-.31-.22-.5-.2-.77.08-.3.33-.22.74.18.89.22.08.37.28.62.79l.33.68h2.98l.3-.7q.32-.71.5-.7c.2 0 .48-.36.48-.62 0-.24-.35-.58-.6-.58-.31 0-.6.36-.6.74q0 .32-.15.4c-.35.13-.68-.26-.36-.44.43-.22.33-.94-.14-1.06-.53-.13-1 .57-.63.94.15.15-.07.42-.34.42-.25 0-.33-.25-.19-.57.25-.54-.53-1.08-.92-.65m-.96 3.45c-.04.12-.14.45-.21.73-.12.48-.12.53.1.82q.39.54-.1 1c-.2.18-.2.24-.1.83l.16.87c.04.19.28.35 1.09.73.57.27 1.09.49 1.14.49.06 0 .4-.13.75-.3l1-.44c.43-.18.6-.53.7-1.4.06-.52.04-.62-.15-.82a.8.8 0 0 1-.01-1.07l.2-.22-.2-.72-.22-.73h-2.03c-2.02 0-2.04 0-2.12.22m-4.99 8.25.03 2.08 6.98.03L19 16v-4.2H5z"/></svg>