<svg xmlns="http://www.w3.org/2000/svg" width="24" height="24"><path fill="#FFF" fill-rule="evenodd" d="M3.92 6.4c-.97.18-.92.08-.92 1.94 0 1.59 0 1.64.26 2.01.32.47.55.67 1.2 1.01l.5.27.5-.26c.69-.35 1.1-.72 1.34-1.18.17-.33.2-.59.2-1.8 0-.77-.04-1.49-.1-1.59-.05-.1-.24-.23-.42-.3a8 8 0 0 0-2.56-.1M7.8 8.96v1.15h.25c.22 0 .25-.04.25-.4 0-.39 0-.4.35-.4s.35 0 .35.4c0 .36.03.4.25.4h.25V7.8h-.25c-.23 0-.25.03-.25.5v.5h-.7v-.5c0-.47-.02-.5-.25-.5H7.8zm2.31-.77c-.25.95-.49 1.92-.47 1.93l.25.03q.23.03.29-.16c.06-.23.77-.26.86-.03.03.08.17.15.32.15.21 0 .25-.04.21-.2l-.28-1.15-.23-.95h-.43c-.4 0-.43.02-.52.38m1.24-.16.29 1.13.22.9h.88l.22-.9.29-1.12c.05-.2.01-.23-.23-.23-.29 0-.3.02-.48.9-.1.5-.2.9-.23.9s-.15-.4-.26-.88c-.19-.82-.22-.87-.48-.9-.25-.03-.27 0-.22.2m1.96.73-.28 1.15c-.04.16 0 .2.21.2.15 0 .3-.07.32-.15.09-.22.81-.2.86.02q.05.15.26.18c.32.02.3-.06-.19-1.97-.1-.36-.12-.38-.52-.38h-.43zm1.71.22.03 1.17h.25c.24 0 .25-.02.28-.68l.03-.68.33.7c.32.66.35.69.65.64l.31-.04V7.8h-.25c-.24 0-.25.02-.26.67v.68l-.31-.68c-.3-.66-.31-.67-.7-.67H15zm2.08-.02v1.15h.25c.24 0 .25-.02.26-.72v-.73l.34.72c.27.59.38.73.57.74l.62.03c.3.01.4-.02.44-.16.06-.23.77-.26.86-.03.03.08.17.15.32.15.22 0 .25-.03.2-.22l-.28-1.16-.21-.92h-.43c-.48 0-.39-.18-.83 1.5l-.2.75V8.93L19 7.8h-.6v1.25l-.3-.62c-.27-.6-.3-.63-.64-.63h-.36z"/></svg>