<?xml version="1.0" encoding="UTF-8" standalone="no"?>
<svg
   viewBox="0 0 24 24"
   width="24pt"
   height="24pt"
   version="1.1"
   id="svg1673"
   xml:space="preserve"
   xmlns="http://www.w3.org/2000/svg"
   xmlns:svg="http://www.w3.org/2000/svg"><defs
     id="defs1677"><clipPath
       id="_clipPath_UpPQTzQg3etdxOsUB86zvFkYrfal15bT"><rect
         width="24"
         height="24"
         id="rect1866"
         x="0"
         y="0" /></clipPath><filter
       id="JERPz7ZsOUNembI0ssUEGyqF24O8zUMT"
       x="-2.1296301"
       y="-9.1269865"
       width="5.2592602"
       height="19.253973"
       filterUnits="objectBoundingBox"
       color-interpolation-filters="sRGB"><feGaussianBlur
         stdDeviation="4.293609062839028"
         id="feGaussianBlur1871" /></filter></defs><g
     style="isolation:isolate"
     id="g1913"
     transform="matrix(1.0708763,0,0,1.0708763,-1.8556701,4.9847319)"><g
       clip-path="url(#_clipPath_UpPQTzQg3etdxOsUB86zvFkYrfal15bT)"
       id="g1890"><defs
         id="defs1874" /><g
         filter="url(#JERPz7ZsOUNembI0ssUEGyqF24O8zUMT)"
         id="g1878"><ellipse
           vector-effect="non-scaling-stroke"
           cx="12"
           cy="22.564516"
           rx="2.4193549"
           ry="0.56451613"
           fill="#a2a2a2"
           fill-opacity="0.7"
           id="ellipse1876" /></g><g
         id="g1888"
         transform="matrix(1.156316,0,0,1.156316,-0.7159984,-4.8607007)"><path
           d="M 6.559,3 H 17.441 V 13.882 H 6.559 Z"
           fill="none"
           id="path1884" /><path
           d="M 15.174,4.489 H 8.826 c -0.499,0 -0.902,0.408 -0.902,0.907 l -0.005,6.348 c 0,0.498 0.408,0.907 0.907,0.907 h 6.348 c 0.499,0 0.907,-0.409 0.907,-0.907 V 5.396 c 0,-0.499 -0.408,-0.907 -0.907,-0.907 z M 14.72,9.477 H 12.907 V 11.29 H 11.093 V 9.477 H 9.28 V 7.663 h 1.813 V 5.849 h 1.814 v 1.814 h 1.813 z"
           fill="#f1f1e1"
           id="path1886" /></g></g></g></svg>
