<?xml version="1.0" encoding="UTF-8" standalone="no"?>
<svg
   viewBox="0 0 18.040001 21.999998"
   width="18.040001pt"
   height="21.999998pt"
   version="1.1"
   id="svg9721"
   xmlns="http://www.w3.org/2000/svg"
   xmlns:svg="http://www.w3.org/2000/svg">
  <defs
     id="defs9725" />
  <g
     id="g14013"
     transform="matrix(0.320158,0,0,0.39123983,-30.632326,-67.815147)">
    <path
       d="m 145.21454,202.62385 h -42.36967 c -0.64735,0 -1.42663,-0.35066 -1.85314,-0.83361 l -2.929467,-3.31259 c -0.531989,-0.6036 -0.531989,-1.54728 0,-2.15018 l 2.928407,-3.31364 c 0.42722,-0.4826 1.20685,-0.83255 1.8542,-0.83255 h 42.36967 c 0.64805,0 1.42804,0.34995 1.85349,0.83361 l 2.92912,3.31258 c 0.53128,0.6029 0.53128,1.54658 0,2.15018 l -2.92912,3.31259 c -0.4265,0.48295 -1.20544,0.83361 -1.85349,0.83361"
       style="fill:#808080;fill-opacity:1;fill-rule:nonzero;stroke:none;stroke-width:0.352778"
       id="path12781" />
    <path
       d="m 145.21454,202.62385 h -42.36967 c -0.64735,0 -1.42663,-0.35066 -1.85314,-0.83361 l -2.929467,-3.31259 c -0.531989,-0.6036 -0.531989,-1.54728 0,-2.15018 l 2.928407,-3.31364 c 0.42722,-0.4826 1.20685,-0.83255 1.8542,-0.83255 h 42.36967 c 0.64805,0 1.42804,0.34995 1.85349,0.83361 l 2.92912,3.31258 c 0.53128,0.6029 0.53128,1.54658 0,2.15018 l -2.92912,3.31259 c -0.4265,0.48295 -1.20544,0.83361 -1.85349,0.83361 z"
       style="fill:none;stroke:#808080;stroke-width:0.1651;stroke-linecap:butt;stroke-linejoin:miter;stroke-miterlimit:4;stroke-dasharray:none;stroke-opacity:1"
       id="path12785" />
    <path
       d="m 145.10776,202.24694 h -42.36967 c -0.64735,0 -1.42698,-0.35031 -1.85385,-0.83256 l -2.927698,-3.31364 c -0.533048,-0.60254 -0.533048,-1.54693 0,-2.14912 l 2.927698,-3.31364 c 0.42545,-0.48331 1.2065,-0.83326 1.85385,-0.83326 h 42.36967 c 0.6477,0 1.42769,0.34995 1.85455,0.83326 l 2.92665,3.31258 c 0.53304,0.60325 0.53304,1.54764 0.001,2.15018 l -2.92912,3.31364 c -0.4258,0.48225 -1.20579,0.83256 -1.85349,0.83256"
       style="fill:#ffffff;fill-opacity:1;fill-rule:nonzero;stroke:none;stroke-width:0.352778"
       id="path12789" />
    <path
       d="m 145.10776,202.24694 h -42.36967 c -0.64735,0 -1.42698,-0.35031 -1.85385,-0.83256 l -2.927698,-3.31364 c -0.533048,-0.60254 -0.533048,-1.54693 0,-2.14912 l 2.927698,-3.31364 c 0.42545,-0.48331 1.2065,-0.83326 1.85385,-0.83326 h 42.36967 c 0.6477,0 1.42769,0.34995 1.85455,0.83326 l 2.92665,3.31258 c 0.53304,0.60325 0.53304,1.54764 0.001,2.15018 l -2.92912,3.31364 c -0.4258,0.48225 -1.20579,0.83256 -1.85349,0.83256 z"
       style="fill:none;stroke:#808080;stroke-width:0.1651;stroke-linecap:butt;stroke-linejoin:miter;stroke-miterlimit:4;stroke-dasharray:none;stroke-opacity:1"
       id="path12793" />
    <path
       d="m 149.31093,196.45239 c 0.27834,0.31609 0.27834,0.8315 0,1.14688 l -2.92806,3.31329 c -0.27869,0.31468 -0.8516,0.5722 -1.27493,0.5722 h -42.37003 c -0.42262,0 -0.99695,-0.25752 -1.27529,-0.5722 l -2.928053,-3.31329 c -0.2794,-0.31538 -0.2794,-0.83079 0,-1.14688 l 2.928053,-3.31258 c 0.27834,-0.31539 0.85267,-0.57327 1.27529,-0.57327 h 42.37003 c 0.42333,0 0.99624,0.25788 1.27493,0.57327 z"
       style="fill:#2b388f;fill-opacity:1;fill-rule:nonzero;stroke:none;stroke-width:0.352778"
       id="path12797" />
    <path
       d="m 102.73805,192.64338 c -0.39758,0 -0.95497,0.25047 -1.21708,0.54645 l -2.928412,3.31364 c -0.254,0.28822 -0.254,0.75671 0,1.04528 l 2.928412,3.31329 c 0.26211,0.29598 0.8195,0.54681 1.21708,0.54681 h 42.36967 c 0.39828,0 0.95462,-0.25083 1.21708,-0.54681 l 2.92735,-3.31329 c 0.25506,-0.28857 0.25506,-0.75706 0,-1.04528 l -2.92735,-3.31364 c -0.26246,-0.29598 -0.8188,-0.54645 -1.21708,-0.54645 z m 42.36967,8.91893 h -42.36967 c -0.44344,0 -1.0414,-0.26917 -1.33421,-0.59937 l -2.927698,-3.31329 c -0.303742,-0.34431 -0.303742,-0.90382 0,-1.24742 l 2.927698,-3.31364 c 0.29281,-0.3302 0.89077,-0.59867 1.33421,-0.59867 h 42.36967 c 0.44309,0 1.04105,0.26847 1.33385,0.59867 l 2.92806,3.31364 c 0.30374,0.3436 0.30374,0.90311 0,1.24742 l -2.92806,3.31329 c -0.2928,0.3302 -0.89076,0.59937 -1.33385,0.59937"
       style="fill:#1d1752;fill-opacity:1;fill-rule:nonzero;stroke:none;stroke-width:0.352778"
       id="path12801" />
    <path
       d="m 106.90884,200.05453 h -1.391 l 0.52916,-2.34774 h -2.61972 l -0.52035,2.34774 h -1.39136 l 1.31057,-5.85929 h 1.38219 l -0.52988,2.3548 h 2.62079 l 0.52987,-2.3548 h 1.38995 z"
       style="fill:#1d1752;fill-opacity:1;fill-rule:nonzero;stroke:none;stroke-width:0.352778"
       id="path12805" />
    <path
       d="m 110.0317,196.71077 c -0.40322,0 -0.71861,0.31115 -0.83397,0.72884 l 1.30034,-0.0176 c 0.0367,-0.0981 0.054,-0.1778 0.054,-0.24906 0,-0.24942 -0.17921,-0.46214 -0.52035,-0.46214 m 1.57939,1.6002 -2.58375,0.0448 c -0.0279,0.50624 0.36724,0.74613 0.85161,0.74613 0.40463,0 0.72742,-0.0882 1.16663,-0.28399 l 0.30551,0.84455 c -0.58314,0.30268 -1.14829,0.48048 -1.83056,0.48048 -1.18499,0 -1.80376,-0.80962 -1.80376,-1.78717 0,-1.44074 1.03188,-2.60597 2.47615,-2.60597 1.05022,0 1.62454,0.57856 1.62454,1.42311 0,0.32067 -0.0716,0.69356 -0.20637,1.13806"
       style="fill:#1d1752;fill-opacity:1;fill-rule:nonzero;stroke:none;stroke-width:0.352778"
       id="path12809" />
    <path
       d="m 114.84235,197.13784 c -0.17145,-0.10689 -0.37782,-0.15169 -0.49424,-0.15169 -0.34149,0 -0.72672,0.14217 -1.04105,1.59243 l -0.32279,1.47603 h -1.36419 l 0.94191,-4.20617 h 1.03153 v 0.79974 h 0.01 c 0.27764,-0.46178 0.50271,-0.89852 1.09432,-0.89852 0.25153,0 0.54822,0.0723 0.75424,0.26776 z"
       style="fill:#1d1752;fill-opacity:1;fill-rule:nonzero;stroke:none;stroke-width:0.352778"
       id="path12813" />
    <path
       d="m 117.8386,197.00332 c -0.13476,-0.13264 -0.32279,-0.22119 -0.57432,-0.22119 -0.24307,0 -0.48437,0.10689 -0.66428,0.31891 -0.20532,0.24095 -0.34149,0.61454 -0.34149,1.11231 0,0.26705 0.0723,0.47978 0.19755,0.63182 0.13512,0.15911 0.32385,0.24836 0.5835,0.24836 0.23318,0 0.46743,-0.0981 0.64664,-0.27552 0.22472,-0.23918 0.37677,-0.6223 0.37677,-1.15676 0,-0.28363 -0.0808,-0.49671 -0.22437,-0.65793 m 0.72637,2.50825 c -0.43921,0.39123 -1.022,0.63112 -1.67746,0.63112 -0.6731,0 -1.149,-0.2226 -1.46262,-0.55069 -0.3503,-0.37394 -0.5027,-0.88053 -0.5027,-1.36983 0,-0.67557 0.25082,-1.28023 0.6731,-1.72473 0.44838,-0.47131 1.07667,-0.74754 1.79422,-0.74754 0.70062,0 1.1938,0.2226 1.50848,0.57009 0.33126,0.36477 0.47555,0.86148 0.47555,1.33279 0,0.74825 -0.30551,1.40547 -0.80857,1.85879"
       style="fill:#1d1752;fill-opacity:1;fill-rule:nonzero;stroke:none;stroke-width:0.352778"
       id="path12817" />
    <path
       d="m 123.83258,197.51972 -0.57432,2.53471 h -1.38113 l 0.56445,-2.49061 c 0.0367,-0.15064 0.0367,-0.28399 0.0367,-0.33726 0,-0.19544 -0.10795,-0.31997 -0.3235,-0.31997 -0.30586,0 -0.92393,0.22155 -1.24778,1.68064 l -0.32279,1.4672 h -1.36454 l 0.94262,-4.20582 h 1.0414 v 0.7994 h 0.009 c 0.34078,-0.43568 0.87066,-0.89818 1.58856,-0.89818 0.68156,0 1.10384,0.34714 1.12148,1.0855 0,0.18662 -0.0356,0.43603 -0.09,0.68439"
       style="fill:#1d1752;fill-opacity:1;fill-rule:nonzero;stroke:none;stroke-width:0.352778"
       id="path12821" />
    <path
       d="m 129.63884,195.30607 h -1.8669 l -0.30445,1.34197 h 1.83974 l -0.24236,1.10313 h -1.84009 l -0.51153,2.30329 h -1.39135 l 1.29222,-5.85929 h 3.40184 z"
       style="fill:#1d1752;fill-opacity:1;fill-rule:nonzero;stroke:none;stroke-width:0.352778"
       id="path12825" />
    <path
       d="m 132.33784,197.00332 c -0.13441,-0.13264 -0.32279,-0.22119 -0.57397,-0.22119 -0.24306,0 -0.48436,0.10689 -0.66357,0.31891 -0.20603,0.24095 -0.34149,0.61454 -0.34149,1.11231 0,0.26705 0.0716,0.47978 0.1972,0.63182 0.13511,0.15911 0.3235,0.24836 0.58314,0.24836 0.23283,0 0.46637,-0.0981 0.64558,-0.27552 0.22472,-0.23918 0.37748,-0.6223 0.37748,-1.15676 0,-0.28363 -0.0808,-0.49671 -0.22437,-0.65793 m 0.72707,2.50825 c -0.43991,0.39123 -1.02305,0.63112 -1.67781,0.63112 -0.67345,0 -1.14864,-0.2226 -1.46297,-0.55069 -0.34995,-0.37394 -0.50235,-0.88053 -0.50235,-1.36983 0,-0.67557 0.25118,-1.28023 0.67239,-1.72473 0.44874,-0.47131 1.07703,-0.74754 1.79494,-0.74754 0.69991,0 1.19344,0.2226 1.50777,0.57009 0.33196,0.36477 0.47484,0.86148 0.47484,1.33279 0,0.74825 -0.30445,1.40547 -0.80681,1.85879"
       style="fill:#1d1752;fill-opacity:1;fill-rule:nonzero;stroke:none;stroke-width:0.352778"
       id="path12829" />
    <path
       d="m 136.98477,197.00332 c -0.13406,-0.13264 -0.32314,-0.22119 -0.57467,-0.22119 -0.24201,0 -0.48437,0.10689 -0.66323,0.31891 -0.20672,0.24095 -0.34149,0.61454 -0.34149,1.11231 0,0.26705 0.0713,0.47978 0.19756,0.63182 0.13511,0.15911 0.32279,0.24836 0.58349,0.24836 0.23284,0 0.46673,-0.0981 0.64629,-0.27552 0.22437,-0.23918 0.37606,-0.6223 0.37606,-1.15676 0,-0.28363 -0.0801,-0.49671 -0.22401,-0.65793 m 0.72707,2.50825 c -0.43956,0.39123 -1.0234,0.63112 -1.67816,0.63112 -0.6731,0 -1.14829,-0.2226 -1.46262,-0.55069 -0.3503,-0.37394 -0.50235,-0.88053 -0.50235,-1.36983 0,-0.67557 0.25118,-1.28023 0.67345,-1.72473 0.44803,-0.47131 1.07597,-0.74754 1.79458,-0.74754 0.69921,0 1.1938,0.2226 1.50777,0.57009 0.33126,0.36477 0.47484,0.86148 0.47484,1.33279 0,0.74825 -0.30586,1.40547 -0.80751,1.85879"
       style="fill:#1d1752;fill-opacity:1;fill-rule:nonzero;stroke:none;stroke-width:0.352778"
       id="path12833" />
    <path
       d="m 141.42687,196.78199 c -0.6283,0 -1.33703,0.3997 -1.33703,1.29822 0,0.61278 0.40323,0.99519 0.87912,0.99519 0.1704,0 0.30586,-0.0173 0.43075,-0.0713 l 0.48507,-2.14242 c -0.09,-0.0441 -0.24236,-0.0797 -0.45791,-0.0797 m 1.18463,2.99579 c -0.54787,0.24059 -1.07668,0.36512 -1.68663,0.36512 -1.49049,0 -2.16359,-0.88018 -2.16359,-1.94698 0,-1.73425 1.391,-2.44616 2.55799,-2.44616 0.34043,0 0.57397,0.0452 0.78952,0.1076 l 0.47554,-2.09832 h 1.37337 z"
       style="fill:#1d1752;fill-opacity:1;fill-rule:nonzero;stroke:none;stroke-width:0.352778"
       id="path12837" />
    <path
       d="m 146.47918,197.05804 c -0.31432,-0.14323 -0.79869,-0.2854 -1.06751,-0.2854 -0.24306,0 -0.44943,0.0452 -0.44943,0.29387 0,0.45332 1.48096,0.58596 1.48096,1.78717 0,0.82691 -0.77153,1.28905 -1.76848,1.28905 -0.59161,0 -1.17475,-0.133 -1.67781,-0.4445 l 0.42263,-0.95109 c 0.35807,0.21343 0.79833,0.3997 1.15676,0.3997 0.26952,0 0.51188,-0.0716 0.51188,-0.27588 0,-0.4699 -1.48132,-0.55139 -1.48132,-1.80445 0,-0.71085 0.53905,-1.31692 1.75049,-1.31692 0.31432,0 0.82479,0.0451 1.33667,0.25929 z"
       style="fill:#1d1752;fill-opacity:1;fill-rule:nonzero;stroke:none;stroke-width:0.352778"
       id="path12841" />
    <path
       d="m 106.70811,199.79256 h -1.391 l 0.52881,-2.34774 h -2.62043 l -0.52,2.34774 h -1.39065 l 1.30951,-5.85999 h 1.38254 l -0.53022,2.35655 h 2.62184 l 0.52881,-2.35655 h 1.39101 z"
       style="fill:#ffdd00;fill-opacity:1;fill-rule:nonzero;stroke:none;stroke-width:0.352778"
       id="path12845" />
    <path
       d="m 109.83047,196.44925 c -0.40358,0 -0.71755,0.31115 -0.83432,0.72884 l 1.30175,-0.018 c 0.0346,-0.097 0.0529,-0.1771 0.0529,-0.24906 0,-0.24871 -0.17957,-0.46179 -0.52035,-0.46179 m 1.58009,1.59985 -2.5848,0.0448 c -0.0268,0.50624 0.36795,0.74612 0.85266,0.74612 0.40358,0 0.72637,-0.0878 1.16699,-0.28363 l 0.30374,0.8449 c -0.58279,0.30198 -1.14794,0.47908 -1.83021,0.47908 -1.18357,0 -1.8034,-0.80857 -1.8034,-1.78647 0,-1.44039 1.03223,-2.60562 2.47685,-2.60562 1.05022,0 1.62455,0.57821 1.62455,1.42276 0,0.32067 -0.0727,0.69285 -0.20638,1.13806"
       style="fill:#ffdd00;fill-opacity:1;fill-rule:nonzero;stroke:none;stroke-width:0.352778"
       id="path12849" />
    <path
       d="m 114.64018,196.87583 c -0.17004,-0.10654 -0.37712,-0.15099 -0.49318,-0.15099 -0.34149,0 -0.72708,0.14217 -1.04105,1.59173 l -0.32244,1.47603 h -1.36419 l 0.94192,-4.20617 h 1.03187 v 0.79974 h 0.008 c 0.27869,-0.46178 0.50306,-0.89781 1.09502,-0.89781 0.25118,0 0.54786,0.0716 0.75424,0.2674 z"
       style="fill:#ffdd00;fill-opacity:1;fill-rule:nonzero;stroke:none;stroke-width:0.352778"
       id="path12853" />
    <path
       d="m 117.6378,196.7423 c -0.13476,-0.13335 -0.3235,-0.2219 -0.57503,-0.2219 -0.24165,0 -0.48436,0.10725 -0.66357,0.32032 -0.20673,0.23954 -0.34149,0.61278 -0.34149,1.11055 0,0.2674 0.072,0.48048 0.19791,0.63182 0.13476,0.16017 0.32279,0.24836 0.58349,0.24836 0.23319,0 0.46602,-0.0967 0.64594,-0.27481 0.22401,-0.23989 0.37676,-0.62336 0.37676,-1.1557 0,-0.28505 -0.0811,-0.49848 -0.22401,-0.65864 m 0.72637,2.50719 c -0.43956,0.39158 -1.0227,0.63077 -1.67816,0.63077 -0.67346,0 -1.1483,-0.2219 -1.46227,-0.54998 -0.35066,-0.37395 -0.50271,-0.88018 -0.50271,-1.36984 0,-0.67557 0.25118,-1.28023 0.67346,-1.72438 0.44838,-0.47131 1.07597,-0.74788 1.79458,-0.74788 0.6992,0 1.19274,0.22189 1.50671,0.56973 0.33232,0.36407 0.4759,0.86219 0.4759,1.3328 0,0.74788 -0.30445,1.40581 -0.80751,1.85878"
       style="fill:#ffdd00;fill-opacity:1;fill-rule:nonzero;stroke:none;stroke-width:0.352778"
       id="path12857" />
    <path
       d="m 123.63206,197.25768 -0.57538,2.53471 h -1.38113 l 0.56515,-2.48955 c 0.036,-0.15135 0.036,-0.28505 0.036,-0.33832 0,-0.19508 -0.10795,-0.31997 -0.32279,-0.31997 -0.30551,0 -0.92499,0.22225 -1.24743,1.68064 l -0.32385,1.4672 h -1.36313 l 0.94156,-4.20582 h 1.0407 v 0.7994 h 0.009 c 0.34114,-0.43463 0.87101,-0.89782 1.58856,-0.89782 0.68157,0 1.10419,0.34678 1.12219,1.08514 0,0.18733 -0.0363,0.43603 -0.0896,0.68439"
       style="fill:#ffdd00;fill-opacity:1;fill-rule:nonzero;stroke:none;stroke-width:0.352778"
       id="path12861" />
    <path
       d="m 129.43758,195.04368 h -1.86725 l -0.3041,1.34232 h 1.83868 l -0.24165,1.10314 h -1.84009 l -0.51188,2.30328 h -1.38995 l 1.29188,-5.85964 h 3.40113 z"
       style="fill:#ffdd00;fill-opacity:1;fill-rule:nonzero;stroke:none;stroke-width:0.352778"
       id="path12865" />
    <path
       d="m 132.1364,196.7423 c -0.13406,-0.13335 -0.32279,-0.2219 -0.57432,-0.2219 -0.2413,0 -0.48437,0.10725 -0.66358,0.32032 -0.20637,0.23954 -0.34149,0.61278 -0.34149,1.11055 0,0.2674 0.0727,0.48048 0.19791,0.63182 0.13476,0.16017 0.32279,0.24836 0.58314,0.24836 0.23319,0 0.46602,-0.0967 0.64629,-0.27481 0.22402,-0.23989 0.37677,-0.62336 0.37677,-1.1557 0,-0.28505 -0.0804,-0.49848 -0.22472,-0.65864 m 0.72707,2.50719 c -0.43885,0.39158 -1.0234,0.63077 -1.67781,0.63077 -0.67274,0 -1.14935,-0.2219 -1.46332,-0.54998 -0.34995,-0.37395 -0.502,-0.88018 -0.502,-1.36984 0,-0.67557 0.25118,-1.28023 0.67204,-1.72438 0.44909,-0.47131 1.07809,-0.74788 1.79529,-0.74788 0.70061,0 1.19344,0.22189 1.50742,0.56973 0.33231,0.36407 0.47589,0.86219 0.47589,1.3328 0,0.74788 -0.30515,1.40581 -0.80751,1.85878"
       style="fill:#ffdd00;fill-opacity:1;fill-rule:nonzero;stroke:none;stroke-width:0.352778"
       id="path12869" />
    <path
       d="m 136.78404,196.7423 c -0.13476,-0.13335 -0.32279,-0.2219 -0.57432,-0.2219 -0.24236,0 -0.48507,0.10725 -0.66499,0.32032 -0.20531,0.23954 -0.34078,0.61278 -0.34078,1.11055 0,0.2674 0.0723,0.48048 0.1972,0.63182 0.13547,0.16017 0.3235,0.24836 0.5842,0.24836 0.23319,0 0.46637,-0.0967 0.64558,-0.27481 0.22437,-0.23989 0.37677,-0.62336 0.37677,-1.1557 0,-0.28505 -0.0801,-0.49848 -0.22366,-0.65864 m 0.72672,2.50719 c -0.44026,0.39158 -1.02305,0.63077 -1.67816,0.63077 -0.6731,0 -1.14865,-0.2219 -1.46262,-0.54998 -0.35066,-0.37395 -0.50341,-0.88018 -0.50341,-1.36984 0,-0.67557 0.25153,-1.28023 0.6738,-1.72438 0.44874,-0.47131 1.07598,-0.74788 1.79458,-0.74788 0.69991,0 1.1931,0.22189 1.50778,0.56973 0.33231,0.36407 0.47625,0.86219 0.47625,1.3328 0,0.74788 -0.30551,1.40581 -0.80822,1.85878"
       style="fill:#ffdd00;fill-opacity:1;fill-rule:nonzero;stroke:none;stroke-width:0.352778"
       id="path12873" />
    <path
       d="m 141.22614,196.52055 c -0.629,0 -1.33844,0.39934 -1.33844,1.29752 0,0.61348 0.40464,0.99589 0.88053,0.99589 0.17004,0 0.30516,-0.0176 0.4311,-0.0709 l 0.48401,-2.14313 c -0.09,-0.0437 -0.24201,-0.0794 -0.4572,-0.0794 m 1.18392,2.99544 c -0.54716,0.23988 -1.07703,0.36442 -1.68769,0.36442 -1.48907,0 -2.16182,-0.87983 -2.16182,-1.94734 0,-1.73319 1.391,-2.44475 2.55799,-2.44475 0.34079,0 0.57362,0.0455 0.78917,0.10725 l 0.47554,-2.09868 h 1.37266 z"
       style="fill:#ffdd00;fill-opacity:1;fill-rule:nonzero;stroke:none;stroke-width:0.352778"
       id="path12877" />
    <path
       d="m 146.2782,196.7961 c -0.31432,-0.14252 -0.79939,-0.28469 -1.06786,-0.28469 -0.24236,0 -0.44908,0.0448 -0.44908,0.29316 0,0.45296 1.4806,0.58631 1.4806,1.78717 0,0.82762 -0.77152,1.2887 -1.76706,1.2887 -0.59302,0 -1.17616,-0.13265 -1.67816,-0.44415 l 0.42086,-0.95144 c 0.35913,0.21343 0.79869,0.40075 1.15817,0.40075 0.26917,0 0.51153,-0.0716 0.51153,-0.27658 0,-0.4706 -1.48096,-0.55068 -1.48096,-1.80445 0,-0.71156 0.53763,-1.31622 1.74977,-1.31622 0.31433,0 0.82586,0.0455 1.33738,0.25824 z"
       style="fill:#ffdd00;fill-opacity:1;fill-rule:nonzero;stroke:none;stroke-width:0.352778"
       id="path12881" />
  </g>
</svg>
