<svg xmlns="http://www.w3.org/2000/svg" width="24" height="24"><path fill="#FFF" fill-rule="evenodd" d="M6.26 2.16c-.14.14-.16.9-.16 6.84s.02 6.7.16 6.84.8.16 5.69.16 5.55-.02 5.7-.16c.13-.14.15-.9.15-6.84s-.02-6.7-.16-6.84-.8-.16-5.69-.16-5.55.02-5.7.16m1.2 1.26c-.03.07-.04 2.63-.03 5.68l.03 5.55h9V3.35l-4.48-.03c-3.53-.02-4.49 0-4.52.1m2.66 1.22c-.24.1-.36.4-1.31 3.24L8.1 9.9h.32c.57 0 .6-.04 1.37-2.34.76-2.24 1-2.86 1.1-2.86q.1-.01.1-.08c0-.11-.64-.1-.9.02m1.37-.07c-.25.07-.47.55-1.17 2.68-.64 1.94-.84 2.44-1.04 2.57-.06.04.1.08.36.08.38 0 .5-.05.67-.26.1-.14.54-1.28.96-2.55.56-1.66.83-2.33.98-2.44.2-.14.2-.15-.18-.14-.22 0-.48.03-.58.06m1.14.1q-.2.2-1 2.52a22 22 0 0 1-.97 2.53c-.16.17-.15.18.28.18q.45 0 .61-.18c.09-.1.53-1.23.97-2.52s.88-2.42.97-2.52c.15-.17.14-.18-.24-.18-.24 0-.5.07-.62.17m.49 1.7-.15.4c-.03.1.16.13.75.13.43 0 .86.03.96.07.15.05.14 0-.07-.38-.24-.43-.25-.44-.82-.47-.55-.03-.58-.02-.67.25m-.4 1.2-.15.4c-.03.1.25.13 1.23.13q1.29 0 1.4.12c.19.19.14-.03-.11-.47l-.23-.4-1.02-.03-1.02-.03zm-.4 1.2-.15.4c-.03.1.33.13 1.61.13.95 0 1.74.04 1.85.1.25.14.24.04-.04-.45l-.23-.4-1.47-.03-1.47-.03zm-1.9 2.2c-.37.14-.5.36-.5.88 0 .62.2.85.72.85q.71.02.7-.85c.01-.33-.04-.51-.18-.65-.22-.2-.53-.3-.74-.23m-2.2.88c0 .84 0 .85.25.85.22 0 .25-.04.25-.35 0-.28.04-.35.2-.35s.2.07.2.35c0 .3.03.35.25.35.25 0 .25-.01.25-.85s0-.85-.25-.85c-.21 0-.25.05-.25.3 0 .23-.04.3-.2.3s-.2-.07-.2-.3c0-.25-.04-.3-.25-.3-.25 0-.25.01-.25.85m3.52-.73c-.07.07-.12.42-.12.85 0 .71 0 .73.25.73.21 0 .25-.05.25-.3s.04-.3.25-.3q.26.01.25-.2.01-.21-.25-.2c-.26 0-.37-.29-.12-.32l.22-.02c.16-.02.35-.16.35-.27 0-.13-.94-.11-1.08.03m1.28.74v.85l.58-.03c.43-.02.57-.07.57-.18q-.01-.15-.32-.18c-.4-.04-.46-.32-.08-.32q.26.01.25-.2.01-.21-.25-.2-.24-.01-.25-.14 0-.14.3-.12c.23.02.3-.02.3-.16S14 11 13.54 11H13zm1.4-.01c0 .84 0 .85.25.85.2 0 .25-.05.25-.25q.01-.23.1-.25c.06 0 .16.11.22.25q.11.24.35.25c.26 0 .28-.05.09-.39-.1-.18-.1-.3-.03-.52a.6.6 0 0 0 0-.53c-.11-.23-.18-.26-.68-.26h-.55zm-4-.36q-.21.42.03.75c.13.17.14.17.3.01.1-.09.17-.25.17-.36 0-.25-.17-.59-.3-.59q-.1.02-.2.2"/></svg>