<svg xmlns="http://www.w3.org/2000/svg" width="24" height="24"><path fill="#FFF" fill-rule="evenodd" d="M11.8 2.3q-.2.51-.74.5c-.33 0-.33.1 0 .4.22.21.25.31.21.67-.05.47.01.51.4.26.25-.17.27-.17.95.12.16.06.17.02.12-.36s-.03-.47.2-.68q.5-.43 0-.41-.54.01-.74-.5c-.07-.16-.16-.3-.2-.3s-.13.14-.2.3M7.67 3.38c-.34.37-.15.82.33.82q.49-.01.5-.46c0-.48-.52-.7-.83-.36m7.98.02c-.27.3-.1.74.28.78q.56.05.57-.49c0-.47-.53-.65-.85-.29M7.76 5.38l.2 2.82c.08 1.23.16 2.26.19 2.28s.38 0 .8-.03l.75-.07V9.05c0-.72-.03-1.73-.06-2.24l-.07-.91-.87-.55c-.48-.3-.9-.55-.93-.55s-.03.26 0 .58m7.53-.02-.85.55-.06 1.02a49 49 0 0 0-.08 2.23l-.01 1.22.76.07c.41.04.78.04.8.01.05-.04.41-4.73.44-5.53 0-.2-.09-.16-1 .43m-4.3.12-.83.47.02 1.5c0 .83.04 1.8.07 2.17l.07.68h3.35l.06-.28c.03-.15.06-1.12.08-2.17l.03-1.9-.85-.47A5 5 0 0 0 12 5c-.08 0-.53.22-1 .48m-7.5 8.61v1.81h.9v-1.4h.9v1.4h.9l-.02-1.78-.03-1.77h-.8l-.03.68-.03.67h-.88l-.03-.67-.03-.68-.42-.03-.43-.03zm4.22-1.58q-.97.48-.97 1.64c0 .78.35 1.37.98 1.66 1.37.62 2.81-.4 2.64-1.87-.14-1.27-1.5-2-2.65-1.43m3.08 1.63V16h1.7l.2-.32c.31-.52.27-.58-.4-.58h-.6l-.02-1.37-.03-1.38-.42-.03-.43-.03zm2.54-1.71c-.02.07-.03.9-.02 1.82l.03 1.7.87.03.87.03.2-.4c.11-.2.17-.41.14-.45a2 2 0 0 0-.65-.06h-.58v-2.8h-.4c-.24 0-.43.05-.46.13m1.76-.03c0 .06.21.52.47 1.03.42.8.48 1.02.53 1.72l.05.8h.8l.05-.75c.04-.63.13-.9.53-1.73.26-.54.47-1.03.47-1.08s-.18-.09-.4-.09c-.39 0-.4.02-.7.6-.17.33-.32.6-.35.6s-.18-.27-.35-.6c-.3-.58-.31-.6-.7-.6-.22 0-.4.05-.4.1m3.58.07c-.52.32-.64 1.03-.24 1.46.13.14.47.37.75.51q.51.27.51.45c0 .31-.2.4-.7.3l-.5-.09c-.06 0-.3.45-.3.56 0 .1.71.34 1.04.34.81 0 1.26-.4 1.26-1.13 0-.41-.05-.53-.29-.76a3 3 0 0 0-.7-.46c-.32-.14-.41-.23-.39-.4.02-.16.1-.2.38-.2.2.01.43.05.52.09.12.06.2 0 .32-.23.16-.3.16-.3-.13-.46-.4-.2-1.19-.19-1.53.02m-10.6.79c-.38.2-.61.68-.54 1.09.2 1.04 1.78 1.08 2.01.05.09-.4-.18-.96-.54-1.14-.37-.2-.58-.2-.93 0"/></svg>