<svg xmlns="http://www.w3.org/2000/svg" width="24" height="24"><path fill="#FFF" fill-rule="evenodd" d="M9.17 5.2a1 1 0 0 0-.2.49c-.01.17-.05.31-.1.31q-.06.01-.07.11.02.1.15.05.16-.07.15.24v.3l-.2-.2c-.16-.16-.2-.28-.15-.54.09-.43-.3-.87-.5-.56q-.05.09.1.1.15 0 .15.32c0 .39.37.96.68 1.04.37.1.72-.04.72-.29 0-.12.07-.33.15-.47.22-.39.18-.54-.2-.74-.2-.1-.35-.23-.35-.28q-.02-.19-.33.11m-4.8.38c-.04.03-.07.26-.07.5 0 .45.18.68.27.34.07-.27.23-.27.23 0q0 .21.18.17c.13-.02.18-.15.2-.56.03-.47.01-.52-.17-.52q-.21 0-.21.2 0 .18-.1.2-.09-.01-.1-.14c0-.17-.14-.28-.24-.2m1.15.17c-.16.44-.2.76-.12.82q.1.03.2-.12c.1-.17.1-.17.24.01q.13.18.3.13c.13-.05.14-.12.05-.44-.17-.65-.5-.85-.67-.4m.89.33q0 .53.1.49c.05-.03.1-.14.1-.23q.01-.18.1.06t.32.2c.2-.03.23-.1.26-.5.02-.38 0-.5-.14-.55q-.17-.05-.3.1c-.1.15-.12.16-.17.02-.13-.33-.27-.12-.27.4m1-.05c0 .58.13.7.57.48.56-.26.31-.98-.34-.98-.2 0-.23.05-.23.5m3.2.06v.57l.33-.07c.17-.03.37-.13.43-.21.1-.13.12-.12.18.07.06.22.07.22.2.05.12-.15.14-.16.2-.02.03.08.15.15.26.15.22 0 .25-.07.1-.3q-.07-.13.03-.32c.1-.16.08-.22-.08-.34-.3-.22-.68-.14-.76.16q-.07.25-.08.07c0-.1-.13-.22-.27-.27-.49-.19-.54-.14-.54.46m1.94-.43c-.1.29 0 .92.16.92.11 0 .15-.12.15-.5 0-.48-.19-.73-.3-.42m.52-.06c-.1.1-.08.91.02.98q.1.05.18-.09a.5.5 0 0 1 .28-.17q.2-.05.23-.32c.03-.21-.02-.29-.23-.37-.3-.12-.4-.12-.48-.03m1.26.2c-.15.23-.15.28-.02.52.17.3.56.35.73.09.14-.23 0-.35-.24-.2-.26.16-.3.15-.3-.06q.01-.39.24-.22.12.08.26 0c.11-.07.11-.11 0-.24-.19-.24-.47-.2-.67.1m1.15-.15c-.23.13-.24.72-.02.9q.14.13.42.03c.33-.11.43-.62.17-.88-.19-.18-.33-.2-.57-.05m.92.46c0 .48.03.55.13.42.07-.08.2-.18.3-.22q.17-.08.14-.21-.04-.14.05-.18c.24-.08-.01-.38-.32-.38-.3 0-.3 0-.3.58m.87-.51c-.1.1-.08.91.03.98q.09.05.1-.1.01-.14.21-.15.23.01.16-.2-.04-.17.06-.23.1-.04.04-.2c-.06-.17-.47-.24-.6-.1m.77.06a2 2 0 0 0-.02.53c.03.36.06.4.36.42q.33.04.39-.14c.04-.1.02-.2-.05-.22q-.1-.05-.06-.17t-.18-.18q-.31-.05.05-.06c.39-.01.3-.25-.11-.3q-.32-.01-.38.12m.9.01a2 2 0 0 0-.02.52c.03.36.06.4.36.42q.33.04.39-.14c.04-.1.02-.2-.05-.22q-.1-.05-.06-.17t-.18-.18l-.23-.04.23-.02q.2-.02.22-.16c0-.2-.59-.2-.66-.01m-9.84.12c0 .08.07.22.15.3.14.15.18.14.35-.06q.36-.41-.2-.4-.3 0-.3.16m7.5 2.1c-.06.14-.1.78-.1 1.43 0 1.11.01 1.2.25 1.45.22.24.45.34.45.2 0-.02-.07-.16-.16-.29q-.4-.62.34-.78c.24-.05.46-.15.49-.23.08-.21.03-.23-.5-.15-.5.08-.66-.06-.18-.15a1 1 0 0 0 .48-.27c.18-.2.18-.2-.3-.13-.51.08-.67-.08-.18-.19.15-.03.4-.2.56-.35.33-.34.3-.36-.22-.15-.47.2-.56.19-.48-.05.07-.21-.1-.6-.26-.6-.05 0-.14.12-.2.26m-11-.02c-.02.02-.29.07-.59.1-.7.1-1.71.35-1.87.48s.21.88.48.95q.41.12-.11.65c-.39.38-.32.47.16.19.2-.12.4-.2.42-.16q.05.06-.08.15c-.1.07-.11.12-.02.23q.16.16-.1.2a1 1 0 0 1-.4-.04q-.42-.21-.12.26c.18.28.16.28.99.08.17-.04.7-.07 1.18-.06.48 0 .87-.02.87-.07 0-.11-.57-.3-.9-.3-.16 0-.32-.04-.35-.1q-.04-.1.24-.1c.42 0 .47-.16.08-.26l-.32-.08.34-.04c.19-.02.45-.1.57-.19.28-.18.22-.38-.06-.23-.25.14-.77.13-.86-.01q-.08-.12.22-.06c.58.1 1.33-1.14.88-1.48-.18-.14-.56-.2-.65-.1m2.44.44a10 10 0 0 0-1.08.43c-.04.04.1.1.3.14.2.03.39.12.42.2.08.2-.35 1.06-.74 1.46-.2.2-.34.4-.31.43.1.1.92-.6 1.3-1.1q.6-.79.23-.91-.32-.14.1-.32c.4-.19.53-.15.47.13-.02.14-.08.28-.13.3-.16.1-.1.38.06.31.24-.09.45.04.45.3 0 .32-.29.46-.6.28-.42-.22-.42-.16-.03.36.2.28.4.5.43.5.12 0 .28-.18.6-.68.28-.45.32-.58.24-.8s-.15-.26-.37-.24c-.35.04-.34-.07.03-.43.37-.35.38-.48.05-.63s-.22-.17-1.42.27m11.12-.3a.5.5 0 0 0 0 .3c.07.22-.06.27-.75.34-.4.04-.52.3-.2.47q.2.1.2.38a3.4 3.4 0 0 1-.66 1.5c-.14.17-.2.32-.16.32.1 0 .72-.72 1.04-1.19l.17-.25.06.26c.11.43.33.55.98.5.56-.04.58-.05.78-.43l.2-.4-.4-.18c-.36-.16-.4-.2-.26-.3q.3-.29-.04-.31a.4.4 0 0 1-.3-.14c-.09-.1-.03-.16.31-.25.44-.13 1.14-.58.73-.47l-.67.11c-.4.06-.46.05-.45-.12q.03-.19-.25-.21c-.14-.02-.3.02-.33.08m-7.55.16q0 .15-.2.1c-.21-.08-1.6.33-1.6.46 0 .1.41.2.6.16.22-.05.23.23.01.29-.12.03-.22.1-.22.14-.05.27-.02.34.21.4l.25.07-.32.13c-.37.15-.4.21-.18.4.13.1.2.09.43-.08.15-.1.37-.25.5-.32.23-.12.23-.12.12.1-.07.14-.23.39-.37.57-.33.44-.17.4.33-.09l.42-.4.18.3c.1.17.23.3.29.28s.21-.26.35-.54c.25-.5.25-.5.41-.3.13.18.2.2.31.1q.14-.11.2-.07c.08.08.58-.71.58-.9s.04-.2.4 0c.37.18.37.27.04.49-.2.13-.23.2-.13.3.06.09.18.15.25.15q.13.01.14.08c0 .1-.45.32-.65.32q-.3 0 .01.32c.16.17.19.16.64-.16.26-.18.58-.37.7-.4l.25-.07-.25.21-.25.21.32-.06c.4-.08.4-.04.08.52-.32.54-.19.56.24.03.44-.55.61-1.1.61-1.97 0-.67-.02-.74-.23-.82q-.43-.18-.31.24c.05.21.02.25-.3.3-.27.06-.34.1-.26.2.1.12.04.25-.12.25-.2 0-.06-.5.19-.7.43-.34.18-.35-.57-.01l-.75.31q-.05-.01-.05-.19-.01-.55-.72-.25-.87.38-1.21-.04c-.21-.26-.37-.29-.37-.06m-7.2.31a1 1 0 0 0-.35.15q-.1.09.27.03c.2-.04.51-.04.7 0l.33.08-.4.12-.4.13h.36c.47.02.7-.22.43-.43-.19-.14-.46-.16-.94-.08m6.88.09c-.31.16-.36.39-.12.48.15.06.15.08-.01.26-.2.22-.16.34.08.24.23-.09.3-.35.12-.54q-.29-.3-.01-.3.13-.02.2-.15c.06-.18.08-.18-.26 0m1.8.29c-.13.1-.15.2-.1.39.09.34.3.23.38-.21q.12-.51-.28-.18m-1.23.61c-.14.43-.16.58-.07.67q.12.11.2.03c.13-.14.26-1.25.15-1.25-.05 0-.17.25-.28.55M19.06 9q-.2.05-.2.43c0 .31.02.36.19.32l.28-.04c.1-.01.09-.53 0-.67-.05-.06-.17-.08-.27-.04m.52 1.02q-.26.1-.28.22c0 .1.09.1.4.03.22-.06.4-.17.4-.24 0-.15-.14-.15-.52-.01m-12.6 2.04c-.12.1-.1.72.02.79q.09.05.1-.1.01-.13.1-.15.09.02.1.15c0 .23.3.18.39-.07l.08-.22.05.22q.05.22.32.22c.48 0 .58-.74.1-.86q-.43-.1-.45.24 0 .18-.1-.05c-.1-.26-.39-.31-.39-.08 0 .2-.18.2-.22 0q-.04-.15-.1-.1m1.71.11c-.11.14-.1.18.04.29.21.15.22.26.02.19q-.14-.05-.15.05c0 .16.5.26.63.12.09-.09.08-.16 0-.31q-.14-.2-.02-.2t-.01-.15q-.25-.3-.5.01m.78-.1c-.12.1-.1.72.02.79q.09.05.1-.1.01-.13.1-.15.1.02.1.15.02.14.15.15c.11 0 .15-.12.15-.45s-.04-.45-.15-.45a.15.15 0 0 0-.15.15c0 .2-.18.2-.22 0q-.04-.15-.1-.1m.82.4c0 .33.04.45.15.45s.15-.12.15-.45-.04-.45-.15-.45-.15.12-.15.45m.47-.38c-.1.1-.08.71.03.78q.09.04.1-.12-.02-.26.1 0c.06.1.2.17.3.17q.19-.01.2-.17-.02-.25.1 0c.14.23.57.22.7-.02.14-.27.13-.37-.06-.55-.22-.23-.53-.2-.64.07l-.09.22v-.22c-.01-.25-.2-.3-.39-.11q-.13.15-.12 0c0-.13-.13-.16-.23-.05m2.24.07c-.29.34.1.93.46.7.25-.16.27-.34.04-.34q-.2.01-.21.1t-.1.05c-.2-.12-.1-.35.13-.32q.21.02.22-.13c0-.2-.39-.25-.54-.06m.86-.07c-.04.03-.07.21-.07.4 0 .27.05.34.26.4.14.03.3 0 .36-.05.15-.15.13-.63-.03-.73-.17-.1-.43-.12-.52-.02m.83.4c0 .42.02.46.14.3.07-.1.18-.17.23-.17s.1-.13.1-.3c.02-.25-.02-.3-.23-.3s-.24.04-.24.48m.7 0c0 .41.02.45.14.3q.13-.16.25-.18c.18 0 .13-.18-.06-.23q-.25-.05 0-.06c.28-.02.2-.31-.08-.31-.23 0-.25.03-.25.48m.7-.03c0 .43.01.45.28.45.28 0 .29-.02.28-.45 0-.42-.03-.45-.29-.45-.25 0-.27.03-.27.45m.7 0c0 .43.01.45.3.45.36 0 .42-.26.07-.33l-.22-.04.23-.02q.23.01.22-.26c0-.21-.05-.25-.3-.25-.29 0-.3.02-.3.45"/></svg>