<svg xmlns="http://www.w3.org/2000/svg" width="24" height="24"><path fill="#FFF" fill-rule="evenodd" d="M12.18 2.19q-1.56.5-1.9 1.61c-.17.6.08 1.16.95 2 .38.39.76.7.84.7.18 0 3-1.65 3.31-1.93.82-.75.64-1.85-.36-2.3a5 5 0 0 0-2.84-.08m4.37 2.5c-.22.05-.6.18-.85.3-.74.33-3.13 1.76-3.18 1.9-.08.23 1.14 1.28 1.93 1.67.65.32.84.37 1.42.36 1.1-.01 2.46-.6 3.07-1.33.52-.61.6-1.58.17-2.17-.42-.6-1.6-.93-2.56-.72m-9.54.25c-2.05.58-3.1 1.98-2.21 2.98.82.94 2.78 1.08 4.32.3 1.7-.85 1.98-2.35.58-3.13A4.4 4.4 0 0 0 7 4.95m3.44 3.09c-1.63 1.02-1.99 1.3-2.41 1.84-.29.38-.34.53-.34.99 0 .92.37 1.37 1.4 1.67 1.36.4 3.06.02 4.26-.97a2 2 0 0 0 .46-2.58c-.37-.56-1.67-1.8-1.9-1.78-.1 0-.75.38-1.47.83m.1 5.6c-.92.41-1.31 1.66-.67 2.16.3.24 1.06.27 1.56.06.62-.26 1.05-1.13.85-1.74-.18-.55-1.04-.79-1.74-.48m-3.8.09c-.18.5-.65 2.06-.65 2.13 0 .05.15.09.33.08h.32l.32-1.1c.18-.6.33-1.12.33-1.16 0-.13-.6-.09-.65.05m.85-.04q0 .1-.06.25c-.05.13.01.16.3.16.2 0 .36.03.36.08 0 .04-.11.43-.25.87-.13.43-.23.8-.22.81s.15.04.31.06c.28.03.3 0 .57-.81.16-.47.34-.88.41-.92s.25-.05.4-.02c.23.05.3.01.38-.21l.1-.32c0-.02-.52-.04-1.15-.04a4 4 0 0 0-1.15.1m5.85.03-.4 1.14-.34 1.03h.94c.75 0 .94-.03.99-.16.11-.3.06-.34-.45-.34-.43 0-.5-.03-.47-.17.02-.14.15-.19.56-.21.28-.02.52-.07.52-.12l.06-.24c.05-.13-.03-.16-.46-.16s-.51-.03-.46-.16l.06-.2c0-.02.26-.04.58-.04.53 0 .6-.02.7-.25l.12-.25h-.96c-.66 0-.96.04-1 .13m1.77.95c-.18.59-.32 1.11-.32 1.16 0 .06.13.1.28.1.24 0 .3-.07.51-.63.13-.34.27-.6.3-.56.04.03.16.32.28.63.19.51.24.57.5.57.28 0 .3-.04.66-1.05.2-.58.37-1.1.37-1.17q-.01-.12-.28-.13c-.26 0-.3.06-.51.6-.12.33-.24.6-.25.6s-.13-.27-.25-.6c-.22-.58-.23-.6-.6-.6h-.36zm-4.62-.29c-.47.47-.36 1.11.19 1.11.33 0 .82-.52.82-.87 0-.59-.53-.71-1-.24"/></svg>