<svg xmlns="http://www.w3.org/2000/svg" width="24" height="24"><path fill="#FFF" fill-rule="evenodd" d="M18.6 8.18q-.01.7-.7.72c-.38 0-.4-.02-.4-.3 0-.25-.04-.3-.18-.28-.14.03-.17.16-.2.8-.03.73-.01.78.18.78q.21.02.2-.25-.01-.26.2-.25.18.01.2.1c0 .15.61.5.88.5.34 0 .27-.27-.13-.48l-.36-.18.3-.22c.3-.22.55-.81.44-1.08-.03-.08-.14-.14-.24-.14q-.2-.02-.19.28M3 9v1h2l-.02-.97-.03-.98-.98-.03L3 8zm2.4-.74v.26l.92-.03c.85-.03.93-.05.93-.23s-.08-.2-.92-.23L5.4 8zm2.07-.18c-.1.1-.08.97.04 1.32.15.42.35.51 1.13.51.59 0 .66-.02.66-.2 0-.17-.08-.2-.67-.22q-.65-.04-.7-.15c-.03-.1.1-.13.47-.13.44 0 .51-.03.48-.17-.02-.14-.15-.19-.5-.21q-.5-.02-.48-.18c0-.1.16-.14.7-.14.68 0 .7 0 .7-.25S9.3 8 8.42 8c-.49 0-.92.03-.95.07m2.03.88c0 .88.01.95.2.95q.21 0 .2-.24c0-.36.2-.42.44-.13.38.45.96.63.96.3 0-.1-.15-.26-.32-.36-.29-.17-.3-.2-.15-.28.25-.14.7-.88.63-1.05-.04-.1-.28-.14-1-.14H9.5zm2.5-.68c0 .2.05.23.45.23.42 0 .45-.02.45-.25s-.03-.26-.45-.24c-.4.02-.45.05-.45.26m1.17-.2c-.12.11-.08.88.05 1.01.07.07.22.12.35.12q.22 0 .23.15c0 .23.46.65.7.65.26 0 .27-.36 0-.45-.28-.09-.34-.35-.07-.35.35 0 .47-.2.47-.72 0-.41-.03-.48-.2-.48s-.2.07-.2.4v.4h-.99l-.03-.37c-.03-.35-.17-.51-.31-.37m2.1.05c-.14.08-.17.24-.17.85 0 .67.02.74.2.74q.21.01.2-.25c0-.23.04-.25.45-.25.48 0 .64.23.25.35a.3.3 0 0 0-.2.26c0 .28.36.24.65-.07.21-.23.25-.37.25-.9 0-.52-.03-.65-.2-.74a2.6 2.6 0 0 0-1.42 0m4.4-.04c-.05.04-.08.16-.08.26 0 .15.08.18.5.18.48 0 .51-.02.48-.22-.02-.19-.1-.24-.43-.26-.23-.02-.44 0-.48.04M4.2 8.5c-.16.3-.12.36.2.36.17 0 .3 0 .3-.02l-.12-.28Q4.4 8.1 4.2 8.5m5.7.21c0 .16.07.2.35.2q.34 0 .45-.2c.1-.19.08-.2-.35-.2-.38 0-.45.03-.45.2m5.6-.05c0 .11.12.15.5.15s.5-.04.5-.15-.12-.15-.5-.15-.5.04-.5.15m-9.4.25c0 .32-.3.7-.55.7q-.13.02-.15.2c0 .26.4.27.71.01.23-.19.24-.19.48 0 .13.1.34.19.47.19.36 0 .3-.32-.09-.5-.24-.11-.34-.24-.41-.53-.12-.48-.46-.53-.46-.07m6.01.1q-.12.41-.37.52c-.3.14-.33.48-.04.48.12 0 .32-.11.46-.25l.25-.26.3.26c.37.3.69.33.69.05q-.01-.18-.1-.2c-.2 0-.6-.5-.6-.75 0-.2-.05-.25-.23-.25-.2 0-.26.08-.36.4m7.65-.04a.7.7 0 0 1-.37.52c-.33.2-.4.52-.1.52.11 0 .32-.1.48-.24l.28-.24.28.24c.16.13.37.24.48.24.26 0 .25-.37-.01-.45-.21-.07-.5-.53-.5-.8q0-.15-.24-.15c-.2 0-.25.07-.3.36M3.3 9.5c0 .17.04.3.1.3q.38-.02.4-.36c0-.19-.05-.24-.25-.24s-.25.05-.25.3m.82-.03q.03.29.25.31.21.03.23-.07-.02-.1-.17-.11-.23.01-.03-.1t0-.1q-.15-.01.05-.1.28-.1-.08-.1c-.25 0-.28.03-.25.28"/></svg>