<svg xmlns="http://www.w3.org/2000/svg" width="24" height="24"><path fill="#FFF" fill-rule="evenodd" d="M7.02 2.15c-.12.1-.28.38-.37.68a153 153 0 0 0-1.75 7.82c0 .48.2.55 1.5.55.97 0 1.12-.02 1.3-.2.11-.11.2-.3.2-.42 0-.13.16-.88.35-1.68q.33-1.45.51-1.57c.14-.1 1.08-.13 4.32-.13 2.66 0 4.2-.04 4.33-.1.3-.16.24-.48-.4-2.7-.44-1.5-.66-2.1-.82-2.22C16 2 15.62 2 11.61 2c-3.78 0-4.4.02-4.59.15m2.3 2.22c-.17.07-.15.5.04.57.2.08 4.98.08 5.18 0s.2-.5 0-.58c-.19-.07-5.03-.07-5.21 0M9.06 8.2c-.11.12-.29.92-.57 2.62a25 25 0 0 1-.48 2.52c-.05.05-.17.07-.27.05-.16-.03-.2-.15-.24-.66q-.05-.62-.2-.72c-.08-.05-.65-.1-1.26-.1-1.49 0-1.45-.03-1.84 1.74-.35 1.65-.37 1.9-.1 2.16.2.2.33.2 3.6.2h3.4l.25-.25.25-.24.03-2.73c.04-4.45.04-4.34-.17-4.57-.17-.19-.3-.21-1.21-.21-.87 0-1.04.03-1.19.19m3.45.05c-.22.23-.22.27-.21 3.12 0 3.48.05 4.1.33 4.42.2.22.2.22 3.59.22 4.3 0 4.1.13 3.43-2.15-.59-2.02-.52-1.95-2.15-1.95-1.33 0-1.43.06-1.38.88.02.44 0 .57-.15.66s-.2.07-.31-.06c-.17-.23-.6-3.29-.47-3.4.21-.22.46-.02.6.47.07.28.18.56.23.63.13.15 2.2.17 2.49.02.1-.06.19-.21.19-.36 0-.4-.68-2.4-.88-2.57-.16-.15-.5-.17-2.64-.17-2.44 0-2.45 0-2.67.24"/></svg>