<?xml version="1.0" encoding="UTF-8" standalone="no"?>
<svg
   viewBox="0 0 18.040001 21.999998"
   width="18.040001pt"
   height="21.999998pt"
   version="1.1"
   id="svg1"
   sodipodi:docname="pink_master_pin.svg"
   xml:space="preserve"
   xmlns:inkscape="http://www.inkscape.org/namespaces/inkscape"
   xmlns:sodipodi="http://sodipodi.sourceforge.net/DTD/sodipodi-0.dtd"
   xmlns="http://www.w3.org/2000/svg"
   xmlns:svg="http://www.w3.org/2000/svg"><defs
     id="defs1" /><sodipodi:namedview
     id="namedview1"
     pagecolor="#ffffff"
     bordercolor="#000000"
     borderopacity="0.25"
     inkscape:showpageshadow="2"
     inkscape:pageopacity="0.0"
     inkscape:pagecheckerboard="0"
     inkscape:deskcolor="#d1d1d1"
     inkscape:document-units="pt"><inkscape:page
       x="0"
       y="0"
       width="18.040001"
       height="21.999998"
       id="page2"
       margin="0"
       bleed="0" /></sodipodi:namedview><g
     id="g1"
     transform="matrix(0.02282526,0,0,0.02282526,-5.8157486,0.57215642)"><path
       d="M 0,0 C 1.3155688,-0.01015137 2.6311377,-0.02030273 3.9865723,-0.03076172 11.808609,0.03961332 18.661981,0.88562413 26.0625,3.4375 c 1.639687,0.5646094 1.639687,0.5646094 3.3125,1.140625 21.220153,8.759482 35.896104,23.864069 44.874023,44.837402 7.363472,18.302604 7.363472,39.741342 0,58.043943 -9.617822,22.46822 -27.895412,41.22384 -49.186523,52.97803 2.932447,13.5694 6.846557,26.75798 11,40 5.28,0.33 10.56,0.66 16,1 -0.09281,-2.7225 -0.09281,-2.7225 -0.1875,-5.5 0.05519,-25.44452 10.832009,-49.29102 28,-67.8125 6.443968,-6.08668 13.487485,-11.04848 22.5625,-11.375 4.87758,0.3188 7.99228,1.24108 11.625,4.6875 3.91697,5.51766 3.70909,10.44502 3,17 -2.77385,11.89057 -11.7766,22.48508 -19.0625,32 -8.029189,10.54569 -14.596205,20.68389 -16.9375,34 0.622617,0.0142 1.245234,0.0284 1.886719,0.043 47.348141,2.44335 95.588151,30.80936 127.113281,64.95703 3.13097,3.57118 6.09214,7.24543 9,11 0.43458,0.55816 0.86915,1.11633 1.31689,1.69141 7.18818,9.29484 13.20218,18.92411 18.68311,29.30859 0.5427,1.00418 1.08539,2.00836 1.64453,3.04297 12.11155,23.16853 21.02404,51.5689 19.35547,77.95703 1.67062,-0.0928 1.67062,-0.0928 3.375,-0.1875 12.642,0.0665 25.38544,7.02085 34.30859,15.58594 14.62066,16.4205 18.9478,38.51102 18.75391,59.85156 -0.005,1.086 -0.005,1.086 -0.0102,2.19394 -0.0762,11.30416 -0.94406,21.75935 -4.42728,32.55606 -0.22542,0.75894 -0.45085,1.51787 -0.68311,2.2998 -7.63665,25.60068 -21.80813,47.96456 -38.31689,68.7002 -0.72832,0.92297 -1.45664,1.84594 -2.20703,2.79687 -14.62129,18.23051 -31.33878,35.85919 -49.79297,50.20313 -3.36175,2.77687 -6.67352,5.6127 -9.98828,8.44531 -1.76773,1.49948 -3.55066,2.98191 -5.36719,4.42188 -4.78009,3.86475 -7.63693,8.04776 -10.80078,13.29687 -3.09345,4.75815 -6.93188,8.74657 -10.84375,12.83594 -0.93779,1.04994 -0.93779,1.04994 -1.89453,2.12109 -16.45037,17.7664 -44.98383,26.84309 -68.57471,28 -13.666641,0.49598 -26.237909,-0.728 -39.541166,-3.82101 -8.145063,-1.84036 -16.135628,-2.99753 -24.450532,-3.69461 -2.578377,-0.23241 -5.156746,-0.46492 -7.735107,-0.69751 -1.347985,-0.11873 -2.695998,-0.23714 -4.044037,-0.35526 -7.051442,-0.61984 -14.099205,-1.27963 -21.146637,-1.94333 -0.707328,-0.0665 -1.414656,-0.13301 -2.143419,-0.20153 -52.674197,-4.97129 -106.356159,-10.91705 -154.657362,-33.90784 -1.09828,-0.52159 -2.19656,-1.04317 -3.32812,-1.58057 -11.46169,-5.61769 -21.75409,-12.68142 -31.48438,-20.91943 -0.8959,-0.74895 -1.7918,-1.49789 -2.71484,-2.26953 -19.59837,-17.01457 -32.96616,-41.70486 -34.91944,-67.80371 -1.0745,-19.05084 2.53759,-35.7466 14.63428,-50.92676 3.80482,-4.1998 7.8867,-8.10608 12,-12 1.00264,-0.99735 2.00329,-1.99672 3,-3 -0.2214,-0.62229 -0.44279,-1.24459 -0.6709,-1.88574 -4.89758,-13.88753 -9.12108,-27.53648 -11.3291,-42.11426 -0.11569,-0.76022 -0.23139,-1.52045 -0.35059,-2.30371 -6.87219,-47.65674 4.34985,-98.13559 30.35059,-138.69629 0.93828,-1.23644 1.88097,-2.46956 2.82813,-3.69922 2.44914,-2.94139 2.44914,-2.94139 1.90283,-5.39355 -0.93143,-2.4303 -2.21825,-3.68955 -4.10596,-5.46973 -0.90879,-0.86818 -0.90879,-0.86818 -1.83594,-1.75391 -0.59039,-0.55558 -1.18078,-1.11117 -1.78906,-1.68359 -1.0034,-0.99659 -2.00459,-1.99543 -3,-3 -1.57781,0.86625 -1.57781,0.86625 -3.1875,1.75 -21.14839,10.51825 -45.85818,10.75527 -67.98877,3.3501 -8.75295,-3.15565 -16.29103,-7.6872 -23.82373,-13.1001 -0.69609,-0.49113 -1.39219,-0.98227 -2.10937,-1.48828 -13.34461,-10.37574 -20.41888,-27.19815 -22.89063,-43.51172 -2.11727,-20.25001 3.51166,-38.77655 16.28589,-54.57056 5.60221,-6.62177 11.65102,-12.36381 18.71411,-17.42944 0.58282,-0.41814 1.16563,-0.83628 1.76611,-1.26709 30.0294,-21.21954 66.22004,-32.09324 102.23389,-37.73291 0.21398,-1.23105 0.42797,-2.46211 0.64844,-3.73047 1.40213,-6.28011 4.15598,-11.82996 6.97656,-17.58203 0.54125,-1.11214 1.08249,-2.224277 1.64014,-3.370117 3.73739,-7.563754 7.62531,-14.585269 12.73486,-21.317383 0.76699,-1.046719 1.53398,-2.093437 2.32422,-3.171875 5.74244,-7.740552 12.03106,-14.855984 18.67578,-21.828125 0.7657,-0.830156 1.53141,-1.660313 2.32031,-2.515625 C -87.211774,28.529745 -60.673048,12.995449 -33.9375,4.4375 -33.292485,4.2257715 -32.647471,4.014043 -31.98291,3.7958984 -21.462184,0.49394469 -10.944337,0.04874839 0,0 Z"
       fill="#fefdfd"
       transform="translate(633.9375,12.5625)"
       id="path1-9" /><path
       d="M 0,0 C 1.3155688,-0.01015137 2.6311377,-0.02030273 3.9865723,-0.03076172 11.808609,0.03961332 18.661981,0.88562413 26.0625,3.4375 c 1.639687,0.5646094 1.639687,0.5646094 3.3125,1.140625 21.220153,8.759482 35.896104,23.864069 44.874023,44.837402 7.363472,18.302604 7.363472,39.741342 0,58.043943 -9.617822,22.46822 -27.895412,41.22384 -49.186523,52.97803 2.932447,13.5694 6.846557,26.75798 11,40 5.28,0.33 10.56,0.66 16,1 -0.09281,-2.7225 -0.09281,-2.7225 -0.1875,-5.5 0.05519,-25.44452 10.832009,-49.29102 28,-67.8125 6.443968,-6.08668 13.487485,-11.04848 22.5625,-11.375 4.87758,0.3188 7.99228,1.24108 11.625,4.6875 3.91697,5.51766 3.70909,10.44502 3,17 -2.77385,11.89057 -11.7766,22.48508 -19.0625,32 -8.029189,10.54569 -14.596205,20.68389 -16.9375,34 0.622617,0.0142 1.245234,0.0284 1.886719,0.043 47.348141,2.44335 95.588151,30.80936 127.113281,64.95703 3.13097,3.57118 6.09214,7.24543 9,11 0.43458,0.55816 0.86915,1.11633 1.31689,1.69141 7.18818,9.29484 13.20218,18.92411 18.68311,29.30859 0.5427,1.00418 1.08539,2.00836 1.64453,3.04297 12.11155,23.16853 21.02404,51.5689 19.35547,77.95703 1.67062,-0.0928 1.67062,-0.0928 3.375,-0.1875 12.642,0.0665 25.38544,7.02085 34.30859,15.58594 14.62066,16.4205 18.9478,38.51102 18.75391,59.85156 -0.005,1.086 -0.005,1.086 -0.0102,2.19394 -0.0762,11.30416 -0.94406,21.75935 -4.42728,32.55606 -0.22542,0.75894 -0.45085,1.51787 -0.68311,2.2998 -7.63665,25.60068 -21.80813,47.96456 -38.31689,68.7002 -0.72832,0.92297 -1.45664,1.84594 -2.20703,2.79687 -14.62129,18.23051 -31.33878,35.85919 -49.79297,50.20313 -3.36175,2.77687 -6.67352,5.6127 -9.98828,8.44531 -1.76773,1.49948 -3.55066,2.98191 -5.36719,4.42188 -4.78009,3.86475 -7.63693,8.04776 -10.80078,13.29687 -3.09345,4.75815 -6.93188,8.74657 -10.84375,12.83594 -0.93779,1.04994 -0.93779,1.04994 -1.89453,2.12109 -16.45037,17.7664 -44.98383,26.84309 -68.57471,28 -13.666641,0.49598 -26.237909,-0.728 -39.541166,-3.82101 -8.145063,-1.84036 -16.135628,-2.99753 -24.450532,-3.69461 -2.578377,-0.23241 -5.156746,-0.46492 -7.735107,-0.69751 -1.347985,-0.11873 -2.695998,-0.23714 -4.044037,-0.35526 -7.051442,-0.61984 -14.099205,-1.27963 -21.146637,-1.94333 -0.707328,-0.0665 -1.414656,-0.13301 -2.143419,-0.20153 -52.674197,-4.97129 -106.356159,-10.91705 -154.657362,-33.90784 -1.09828,-0.52159 -2.19656,-1.04317 -3.32812,-1.58057 -11.46169,-5.61769 -21.75409,-12.68142 -31.48438,-20.91943 -0.8959,-0.74895 -1.7918,-1.49789 -2.71484,-2.26953 -19.59837,-17.01457 -32.96616,-41.70486 -34.91944,-67.80371 -1.0745,-19.05084 2.53759,-35.7466 14.63428,-50.92676 3.80482,-4.1998 7.8867,-8.10608 12,-12 1.00264,-0.99735 2.00329,-1.99672 3,-3 -0.2214,-0.62229 -0.44279,-1.24459 -0.6709,-1.88574 -4.89758,-13.88753 -9.12108,-27.53648 -11.3291,-42.11426 -0.11569,-0.76022 -0.23139,-1.52045 -0.35059,-2.30371 -6.87219,-47.65674 4.34985,-98.13559 30.35059,-138.69629 0.93828,-1.23644 1.88097,-2.46956 2.82813,-3.69922 2.44914,-2.94139 2.44914,-2.94139 1.90283,-5.39355 -0.93143,-2.4303 -2.21825,-3.68955 -4.10596,-5.46973 -0.90879,-0.86818 -0.90879,-0.86818 -1.83594,-1.75391 -0.59039,-0.55558 -1.18078,-1.11117 -1.78906,-1.68359 -1.0034,-0.99659 -2.00459,-1.99543 -3,-3 -1.57781,0.86625 -1.57781,0.86625 -3.1875,1.75 -21.14839,10.51825 -45.85818,10.75527 -67.98877,3.3501 -8.75295,-3.15565 -16.29103,-7.6872 -23.82373,-13.1001 -0.69609,-0.49113 -1.39219,-0.98227 -2.10937,-1.48828 -13.34461,-10.37574 -20.41888,-27.19815 -22.89063,-43.51172 -2.11727,-20.25001 3.51166,-38.77655 16.28589,-54.57056 5.60221,-6.62177 11.65102,-12.36381 18.71411,-17.42944 0.58282,-0.41814 1.16563,-0.83628 1.76611,-1.26709 30.0294,-21.21954 66.22004,-32.09324 102.23389,-37.73291 0.21398,-1.23105 0.42797,-2.46211 0.64844,-3.73047 1.40213,-6.28011 4.15598,-11.82996 6.97656,-17.58203 0.54125,-1.11214 1.08249,-2.224277 1.64014,-3.370117 3.73739,-7.563754 7.62531,-14.585269 12.73486,-21.317383 0.76699,-1.046719 1.53398,-2.093437 2.32422,-3.171875 5.74244,-7.740552 12.03106,-14.855984 18.67578,-21.828125 0.7657,-0.830156 1.53141,-1.660313 2.32031,-2.515625 C -87.211774,28.529745 -60.673048,12.995449 -33.9375,4.4375 -33.292485,4.2257715 -32.647471,4.014043 -31.98291,3.7958984 -21.462184,0.49394469 -10.944337,0.04874839 0,0 Z m 79.0625,295.4375 c -5.882186,7.52155 -10.712683,16.04448 -14,25 -0.391875,1.02738 -0.78375,2.05477 -1.1875,3.11328 -4.527988,14.3858 -3.165225,29.97458 -2.8125,44.88672 -0.66,0 -1.32,0 -2,0 -0.112148,-1.03447 -0.112148,-1.03447 -0.226563,-2.08984 -0.987528,-3.7157 -2.90359,-6.42077 -5.148437,-9.47266 -0.441907,-0.60916 -0.883813,-1.21833 -1.339111,-1.84595 -4.653495,-6.28985 -9.866962,-11.96161 -15.285889,-17.59155 -0.580078,-0.64324 -1.160156,-1.28648 -1.757813,-1.94922 -13.801064,-14.87602 -37.6651685,-28.51383 -58.007812,-29.30859 -25.412311,-0.48758 -46.672085,5.91196 -66.234375,22.25781 -0.667734,0.55172 -1.335469,1.10344 -2.023437,1.67187 -13.839443,12.60494 -21.389383,31.39669 -24.976563,49.32813 -0.22688,1.12277 -0.45375,2.24555 -0.6875,3.40234 -3.26699,19.80612 -2.21482,40.19535 2.6875,59.59766 0.2649,1.08402 0.2649,1.08402 0.53516,2.18994 4.06712,16.27979 10.79755,31.92567 18.46484,46.81006 -1.148555,-0.20496 -2.297109,-0.40992 -3.480469,-0.62109 -9.159981,-1.60307 -18.212091,-3.00388 -27.519531,-3.37891 -1.1898,-0.0528 -2.37961,-0.1057 -3.60547,-0.16016 -21.0264,-0.50114 -40.62808,5.74654 -56.08203,20.22266 -11.16285,11.62598 -16.91795,25.23108 -16.8125,41.375 0.006,1.04479 0.0129,2.08957 0.0195,3.16602 0.6051,26.13086 13.29347,48.41854 31.59766,66.48632 36.84718,34.08027 89.434481,43.79326 137.377439,50.42188 3.528836,0.49155 7.054095,1.00462 10.57959,1.51953 14.2824461,2.04145 28.5482446,3.56541 42.925781,4.71875 0.808625,0.065 1.61725,0.13005 2.450378,0.19705 2.307906,0.18332 4.616114,0.36177 6.924622,0.53732 0.683092,0.0529 1.366185,0.10582 2.069977,0.16033 3.860489,0.28336 7.684612,0.40473 11.555023,0.3553 -2.277796,-2.3654 -4.601148,-4.48701 -7.1875,-6.5 -2.828356,-2.51409 -3.202696,-3.0322 -3.8125,-6.5 0.658953,0.27675 1.317905,0.55349 1.996826,0.83862 6.373471,2.67393 12.754832,5.32807 19.141846,7.96949 2.164418,0.90159 4.319828,1.82485 6.470703,2.7583 27.595559,11.54897 58.670735,13.75783 86.824215,2.99609 26.82447,-11.75223 43.06581,-30.53759 54.00391,-57.375 0.91479,-2.38339 1.75487,-4.7646 2.5625,-7.1875 0.66,0 1.32,0 2,0 0,3.96 0,7.92 0,12 4.28981,-2.75957 8.25066,-5.73993 12.125,-9.0625 0.56638,-0.48404 1.13276,-0.96809 1.71631,-1.4668 9.31301,-8.00259 18.18702,-16.39402 26.90869,-25.0332 0.79229,-0.77924 1.58458,-1.55848 2.40088,-2.36133 5.39294,-5.38504 10.18568,-11.0543 14.84912,-17.07617 1.06642,-1.33176 2.13405,-2.66256 3.20312,-3.99219 26.48779,-33.51044 42.63616,-71.65776 39.51954,-114.85156 -1.58168,-12.17138 -5.60192,-24.11748 -12.72266,-34.15625 -0.65742,-0.94939 -0.65742,-0.94939 -1.32813,-1.91797 -6.56904,-8.55108 -17.2151,-14.08915 -27.67187,-16.08203 -12.85294,-1.44581 -26.96801,-0.35466 -38,7 0.0348,-1.59715 0.0348,-1.59715 0.0703,-3.22656 0.61743,-40.33884 -14.92483,-75.56801 -42.69531,-104.39063 -14.32916,-14.54505 -33.73973,-25.10749 -54.5,-25.75781 -19.25674,0.16199 -37.1361,7.8871 -49.875,22.375 z"
       fill="#e4173f"
       transform="translate(633.9375,12.5625)"
       id="path2" /><path
       d="m 0,0 c 13.926173,10.872151 23.892147,26.966837 26.895996,44.38916 2.174794,20.942461 -3.478009,40.35128 -16.639892,56.76489 -1.3044019,1.55964 -2.6350603,3.08985 -3.9851079,4.61011 -0.4589063,0.51933 -0.9178125,1.03866 -1.390625,1.57373 -7.1995704,7.9932 -15.1545701,14.2691 -24.6093751,19.42627 -0.66,0 -1.32,0 -2,0 -2.314281,-8.93007 -4.316306,-17.90495 -6.1875,-26.9375 -0.272637,-1.287129 -0.545273,-2.574258 -0.826172,-3.90039 -0.257168,-1.238145 -0.514336,-2.47629 -0.779297,-3.751954 -0.232273,-1.11238 -0.464546,-2.22476 -0.703857,-3.370849 -0.455848,-2.753443 -0.60316,-5.256847 -0.503174,-8.039307 -0.66,0.33 -1.32,0.66 -2,1 -7.3241,24.76018 4.600203,56.58066 10.757813,80.54297 0.195756,0.76465 0.391512,1.52931 0.5932,2.31714 0.830067,3.1942 1.703978,6.29802 2.789124,9.41845 0.859863,2.72144 0.859863,2.72144 0.859863,6.72144 -1.873652,0.12955 -1.873652,0.12955 -3.785156,0.26172 -18.555922,1.43556 -36.322529,5.15735 -54.01001,10.94629 -5.899403,1.8938 -5.899403,1.8938 -9.204834,0.79199 -2.192754,-7.08092 -2.276562,-13.88509 -2.1875,-21.25 0.0097,-1.6676 0.0097,-1.6676 0.01953,-3.3689 0.06083,-6.48305 0.343391,-12.89234 0.933594,-19.34985 0.963751,-12.46451 1.787148,-26.92343 -6.765625,-37.03125 -3.936625,-3.54382 -7.04179,-3.57645 -12.183595,-3.39844 -5.59846,0.79202 -9.05521,3.17293 -12.53515,7.57032 -10.21742,15.7268 -10.19762,37.71271 -6.96485,55.66015 2.0834,9.65505 4.98758,18.46344 9.39722,27.28272 1.41353,2.84554 2.28638,4.65813 2.28638,7.88525 -0.52618,0.25991 -1.05236,0.51981 -1.59449,0.7876 -18.34605,9.14034 -36.00763,19.57427 -51.40551,33.2124 -0.79793,0.68965 -1.59586,1.3793 -2.41797,2.08984 -5.00918,4.40393 -9.791,9.02174 -14.51953,13.72266 -0.55607,0.5514 -1.11214,1.10279 -1.68506,1.6709 -2.69301,2.70375 -5.19169,5.37124 -7.37744,8.5166 -3.61129,-0.57469 -5.22055,-1.88334 -7.72266,-4.5 -0.69795,-0.71809 -1.39589,-1.43618 -2.11499,-2.17603 -0.7342,-0.76691 -1.4684,-1.53382 -2.22485,-2.32397 -6.35709,-6.50143 -12.74116,-12.43452 -19.9375,-18 -0.80309,-0.67031 -1.60618,-1.34062 -2.4336,-2.03125 -10.92646,-9.09082 -22.32414,-15.1334 -35.5664,-19.96875 3.02336,4.13763 6.49687,7.13593 10.5625,10.1875 5.50363,4.22101 10.67609,8.65936 15.75781,13.38672 3.68951,3.33992 7.56176,6.43011 11.46484,9.51562 2.21485,1.91016 2.21485,1.91016 4.21485,4.91016 -17.51579,9.80419 -36.69261,10.46618 -55.88282,5.32861 -15.60863,-4.62604 -30.23485,-13.68436 -38.875,-27.87158 -5.24784,-10.38017 -7.42108,-19.75262 -7.42968,-31.26953 -0.0122,-0.85143 -0.0245,-1.70285 -0.0371,-2.58008 -0.0205,-8.98025 1.71668,-16.54716 5.78711,-24.54492 0.34933,-0.69094 0.69867,-1.38187 1.05859,-2.09375 3.26845,-6.20078 7.38314,-11.06187 12.37891,-15.96875 0.90105,-1.00547 0.90105,-1.00547 1.82031,-2.03125 22.14622,-24.15952 59.8,-34.58738 90.55469,-41.59375 0.99644,-0.22945 1.99289,-0.45891 3.01953,-0.69531 0.95004,-0.21656 1.90008,-0.43313 2.8789,-0.65625 1.29044,-0.29512 1.29044,-0.29512 2.60694,-0.59619 2.11963,-0.42725 2.11963,-0.42725 4.11963,-0.42725 -0.18176,0.70383 -0.36352,1.40766 -0.55079,2.13281 -2.01602,7.91935 -3.78072,15.86787 -5.44921,23.86719 3.04554,-1.47998 4.70111,-2.39844 6.23046,-5.47656 0.31583,-1.03899 0.63165,-2.07797 0.95704,-3.14844 12.52843,-37.859355 32.21593,-76.743095 63.8125,-102.375 1.5082,-1.247168 1.5082,-1.247168 3.04687,-2.519531 21.38378,-17.4305757 45.635153,-29.8010014 72.953125,-34.480469 0.94875,-0.185625 1.8975,-0.37125 2.875,-0.5625 C -34.889044,-14.453434 -15.73977,-11.250313 0,0 Z"
       fill="#fefefe"
       transform="translate(675.729,35.23584)"
       id="path3" /><path
       d="M 0,0 C 1.3155688,-0.01015137 2.6311377,-0.02030273 3.9865723,-0.03076172 11.808609,0.03961332 18.661981,0.88562413 26.0625,3.4375 c 1.639687,0.5646094 1.639687,0.5646094 3.3125,1.140625 21.220153,8.759482 35.896104,23.864069 44.874023,44.837402 7.363472,18.302604 7.363472,39.741342 0,58.043943 -9.617822,22.46822 -27.895412,41.22384 -49.186523,52.97803 2.932447,13.5694 6.846557,26.75798 11,40 5.28,0.33 10.56,0.66 16,1 -0.09281,-2.7225 -0.09281,-2.7225 -0.1875,-5.5 0.05519,-25.44452 10.832009,-49.29102 28,-67.8125 6.443968,-6.08668 13.487485,-11.04848 22.5625,-11.375 4.87758,0.3188 7.99228,1.24108 11.625,4.6875 3.91697,5.51766 3.70909,10.44502 3,17 -2.77385,11.89057 -11.7766,22.48508 -19.0625,32 -8.029189,10.54569 -14.596205,20.68389 -16.9375,34 0.622617,0.0142 1.245234,0.0284 1.886719,0.043 47.348141,2.44335 95.588151,30.80936 127.113281,64.95703 3.13097,3.57118 6.09214,7.24543 9,11 0.43458,0.55816 0.86915,1.11633 1.31689,1.69141 7.18818,9.29484 13.20218,18.92411 18.68311,29.30859 0.5427,1.00418 1.08539,2.00836 1.64453,3.04297 12.11155,23.16853 21.02404,51.5689 19.35547,77.95703 1.67062,-0.0928 1.67062,-0.0928 3.375,-0.1875 12.642,0.0665 25.38544,7.02085 34.30859,15.58594 14.62066,16.4205 18.9478,38.51102 18.75391,59.85156 -0.005,1.086 -0.005,1.086 -0.0102,2.19394 -0.0762,11.30416 -0.94406,21.75935 -4.42728,32.55606 -0.22542,0.75894 -0.45085,1.51787 -0.68311,2.2998 -7.63665,25.60068 -21.80813,47.96456 -38.31689,68.7002 -0.72832,0.92297 -1.45664,1.84594 -2.20703,2.79687 -14.62129,18.23051 -31.33878,35.85919 -49.79297,50.20313 -3.36175,2.77687 -6.67352,5.6127 -9.98828,8.44531 -1.76773,1.49948 -3.55066,2.98191 -5.36719,4.42188 -4.78009,3.86475 -7.63693,8.04776 -10.80078,13.29687 -3.09345,4.75815 -6.93188,8.74657 -10.84375,12.83594 -0.93779,1.04994 -0.93779,1.04994 -1.89453,2.12109 -16.45037,17.7664 -44.98383,26.84309 -68.57471,28 -13.666641,0.49598 -26.237909,-0.728 -39.541166,-3.82101 -8.145063,-1.84036 -16.135628,-2.99753 -24.450532,-3.69461 -2.578377,-0.23241 -5.156746,-0.46492 -7.735107,-0.69751 -1.347985,-0.11873 -2.695998,-0.23714 -4.044037,-0.35526 -7.051442,-0.61984 -14.099205,-1.27963 -21.146637,-1.94333 -0.707328,-0.0665 -1.414656,-0.13301 -2.143419,-0.20153 -52.674197,-4.97129 -106.356159,-10.91705 -154.657362,-33.90784 -1.09828,-0.52159 -2.19656,-1.04317 -3.32812,-1.58057 -11.46169,-5.61769 -21.75409,-12.68142 -31.48438,-20.91943 -0.8959,-0.74895 -1.7918,-1.49789 -2.71484,-2.26953 -19.59837,-17.01457 -32.96616,-41.70486 -34.91944,-67.80371 -1.0745,-19.05084 2.53759,-35.7466 14.63428,-50.92676 3.80482,-4.1998 7.8867,-8.10608 12,-12 1.00264,-0.99735 2.00329,-1.99672 3,-3 -0.2214,-0.62229 -0.44279,-1.24459 -0.6709,-1.88574 -4.89758,-13.88753 -9.12108,-27.53648 -11.3291,-42.11426 -0.11569,-0.76022 -0.23139,-1.52045 -0.35059,-2.30371 -6.87219,-47.65674 4.34985,-98.13559 30.35059,-138.69629 0.93828,-1.23644 1.88097,-2.46956 2.82813,-3.69922 2.44914,-2.94139 2.44914,-2.94139 1.90283,-5.39355 -0.93143,-2.4303 -2.21825,-3.68955 -4.10596,-5.46973 -0.90879,-0.86818 -0.90879,-0.86818 -1.83594,-1.75391 -0.59039,-0.55558 -1.18078,-1.11117 -1.78906,-1.68359 -1.0034,-0.99659 -2.00459,-1.99543 -3,-3 -1.57781,0.86625 -1.57781,0.86625 -3.1875,1.75 -21.14839,10.51825 -45.85818,10.75527 -67.98877,3.3501 -8.75295,-3.15565 -16.29103,-7.6872 -23.82373,-13.1001 -0.69609,-0.49113 -1.39219,-0.98227 -2.10937,-1.48828 -13.34461,-10.37574 -20.41888,-27.19815 -22.89063,-43.51172 -2.11727,-20.25001 3.51166,-38.77655 16.28589,-54.57056 5.60221,-6.62177 11.65102,-12.36381 18.71411,-17.42944 0.58282,-0.41814 1.16563,-0.83628 1.76611,-1.26709 30.0294,-21.21954 66.22004,-32.09324 102.23389,-37.73291 0.21398,-1.23105 0.42797,-2.46211 0.64844,-3.73047 1.40213,-6.28011 4.15598,-11.82996 6.97656,-17.58203 0.54125,-1.11214 1.08249,-2.224277 1.64014,-3.370117 3.73739,-7.563754 7.62531,-14.585269 12.73486,-21.317383 0.76699,-1.046719 1.53398,-2.093437 2.32422,-3.171875 5.74244,-7.740552 12.03106,-14.855984 18.67578,-21.828125 0.7657,-0.830156 1.53141,-1.660313 2.32031,-2.515625 C -87.211774,28.529745 -60.673048,12.995449 -33.9375,4.4375 -33.292485,4.2257715 -32.647471,4.014043 -31.98291,3.7958984 -21.462184,0.49394469 -10.944337,0.04874839 0,0 Z m -24.9375,13.4375 c -1.145977,0.266836 -2.291953,0.533672 -3.472656,0.808594 -24.674347,6.37397 -46.695659,19.958554 -65.261719,37.117187 -2.060779,1.886679 -4.177541,3.666943 -6.328125,5.449219 -4.96149,4.335086 -8.89018,9.451175 -12.9375,14.625 -1.19109,1.467598 -1.19109,1.467598 -2.40625,2.964844 -7.05058,8.846696 -12.93253,18.251275 -18.59375,28.035156 -0.39574,0.67482 -0.79148,1.34965 -1.19922,2.04492 -6.44653,11.09992 -11.05999,22.78051 -15.53906,34.79102 -0.38237,1.02448 -0.76474,2.04896 -1.15869,3.10449 -0.7392,2.05039 -1.44183,4.11431 -2.1084,6.18945 -0.32178,0.98066 -0.64357,1.96131 -0.9751,2.97168 -0.27094,0.87221 -0.54189,1.74443 -0.82104,2.64307 -1.53528,2.88916 -3.31948,3.80743 -6.19849,5.25537 0.62364,-2.83364 1.24888,-5.66691 1.875,-8.5 0.17402,-0.79148 0.34805,-1.58297 0.52734,-2.39844 1.11901,-5.05627 2.31999,-10.08298 3.59766,-15.10156 -3.39742,0.61657 -6.7926,1.24474 -10.1875,1.875 -0.95971,0.17402 -1.91941,0.34805 -2.9082,0.52734 -1.39702,0.26104 -1.39702,0.26104 -2.82227,0.52735 -0.8536,0.1571 -1.7072,0.31421 -2.58667,0.47607 -2.63372,0.62719 -4.99877,1.5558 -7.49536,2.59424 -1.74328,0.44394 -3.49415,0.8587 -5.25,1.25 -29.81036,7.32504 -65.99321,22.75655 -83.24219,49.41406 -9.35727,15.50734 -12.40241,33.00781 -8.38281,50.83594 5.00802,16.35645 14.77538,28.41318 29.875,36.5 0.59031,0.32259 1.18062,0.64518 1.78882,0.97754 16.42183,8.65786 37.09496,11.07514 55.02368,6.27246 4.98462,-1.66352 9.60513,-3.68387 14.1875,-6.25 -9.16411,-9.26556 -18.84273,-17.83715 -29,-26 -2.21601,-1.80329 -4.42221,-3.6181 -6.625,-5.4375 -1.00289,-0.82371 -2.00578,-1.64742 -3.03906,-2.49609 -2.33594,-2.06641 -2.33594,-2.06641 -3.33594,-4.06641 17.46633,6.17344 31.36089,15.58272 45,28 1.06213,0.95224 2.12462,1.90407 3.1875,2.85547 3.98564,3.59399 7.94429,7.19559 11.64063,11.08984 1.32257,1.38832 1.32257,1.38832 2.67187,2.80469 1.16016,1.2607 1.16016,1.2607 2.34375,2.54687 1.96456,1.90637 1.96456,1.90637 4.19141,1.73438 2.59818,-1.36366 4.01259,-3.03241 5.90234,-5.28125 20.66227,-23.66707 45.951571,-40.91553 74.0625,-54.75 -0.615918,-4.01813 -1.929542,-7.12785 -3.75,-10.75 -5.021288,-10.65965 -9.009902,-22.38229 -9.25,-34.25 -0.03867,-1.28391 -0.07734,-2.56781 -0.117187,-3.89063 -0.320376,-15.38852 0.33009,-32.12028 10.566406,-44.51562 3.898367,-4.00638 7.637163,-4.80073 13.050781,-5.09375 3.640091,0.10881 6.091657,0.37103 9,2.625 8.575912,9.8623 7.924918,22.51596 7.5,34.875 -0.150191,1.98049 -0.316096,3.95986 -0.5,5.9375 -0.573055,6.60259 -0.649101,13.18919 -0.6875,19.8125 -0.01289,1.06597 -0.02578,2.13195 -0.03906,3.23022 -0.0079,6.3034 0.354714,11.97514 2.226562,18.01978 4.317919,1.43931 7.58373,-0.26142 11.75,-1.625 18.192663,-5.67139 36.2456984,-9.06098 55.25,-10.375 C 23.320185,196.6181 21.506805,190.11875 19.75,183.5 19.111829,181.05603 18.473807,178.61202 17.835937,176.16797 16.856564,172.437 15.868239,168.70925 14.851563,164.98828 3.637353,122.778 3.637353,122.778 9.0625,104.4375 c 0.66,-0.33 1.32,-0.66 2,-1 0.104414,1.19625 0.208828,2.3925 0.316406,3.625 0.729476,6.55374 2.203237,12.94194 3.621094,19.375 0.264902,1.21945 0.529805,2.43891 0.802734,3.69531 1.401156,6.43906 2.825115,12.87302 4.259766,19.30469 16.899937,-4.83568 31.739868,-23.02072 40.012207,-37.80957 C 69.206464,94.55141 71.668334,76.476911 66.285156,57.730469 60.392265,40.051796 48.431271,25.153048 31.710937,16.753906 13.384536,8.4291684 -5.647986,8.8007906 -24.9375,13.4375 Z M 77.566895,141.46362 C 76.153334,143.61241 74.81216,145.78788 73.5,148 c -0.707695,1.18191 -0.707695,1.18191 -1.429688,2.3877 -6.590904,11.21633 -10.724667,22.18863 -13.007812,35.0498 -0.174185,0.69754 -0.348369,1.39509 -0.527832,2.11377 -0.66273,4.05108 -0.594731,8.02677 -0.569824,12.12451 0.0014,0.88077 0.0028,1.76154 0.0043,2.66899 0.0056,2.80178 0.01813,5.60348 0.03087,8.40523 0.005,1.9043 0.0096,3.80859 0.01367,5.71289 0.011,4.65823 0.02825,9.31641 0.04883,13.97461 -0.66,0 -1.32,0 -2,0 -1.916102,-6.64249 -2.563671,-13.11059 -3,-20 -31.596511,-0.62293 -60.9731459,4.13642 -91,14 0.533892,4.48206 1.656532,7.61845 3.9375,11.5 2.144824,3.77016 3.923384,7.28527 5.0625,11.5 -9.740419,-3.88753 -15.124696,-18.03284 -19,-27 -5.594192,-13.49867 -5.221314,-28.63129 -3.229248,-42.93115 0.476654,-4.30157 0.45546,-8.62043 0.479248,-12.94385 0.02063,-0.92941 0.04125,-1.85883 0.0625,-2.81641 0.03761,-6.74206 -0.24767,-14.66714 -4.786621,-20.06005 -2.585062,-2.11521 -5.094437,-1.77991 -8.311035,-1.65479 -3.690973,0.677 -5.047503,2.4339 -7.214844,5.40625 -9.966981,15.71716 -6.824508,37.97774 -3.339844,55.27734 1.454676,6.3036 3.485188,11.93454 6.339844,17.72266 0.543984,1.17176 1.087969,2.34352 1.648438,3.55078 4.19321,8.87411 9.119541,16.85638 14.835937,24.82813 2.432088,3.41399 4.493768,6.95057 6.515625,10.62109 -6.212107,-3.50427 -10.392242,-8.6366 -15,-14 -0.630352,-0.72832 -1.260703,-1.45664 -1.910156,-2.20703 -1.370822,-1.59119 -2.731645,-3.19099 -4.089844,-4.79297 -43.789474,16.35715 -78.112474,54.02286 -100.000004,94 -0.52207,0.9307 -1.04414,1.86141 -1.58203,2.82031 -3.38678,6.3435 -5.63472,13.10708 -7.94141,19.89844 -0.88871,2.614 -1.82484,5.17511 -2.82812,7.75 -6.02415,15.52233 -8.30955,31.95473 -8.64844,48.53125 -0.0311,0.98742 -0.0622,1.97484 -0.0942,2.99219 -0.76294,25.57974 2.26277,52.46903 13.09424,76.00781 3.06874,-0.46496 5.49882,-1.21584 8.36719,-2.45703 19.38915,-8.23518 43.4033,-5.86758 62.82031,0.65234 2.965894,0.98807 2.965894,0.98807 6.812504,0.80469 0.33,1.32 0.66,2.64 1,4 -1.148555,-0.20496 -2.297109,-0.40992 -3.480469,-0.62109 -9.159985,-1.60307 -18.212095,-3.00388 -27.519535,-3.37891 -1.1898,-0.0528 -2.37961,-0.1057 -3.60547,-0.16016 -21.0264,-0.50114 -40.62808,5.74654 -56.08203,20.22266 -11.16285,11.62598 -16.91795,25.23108 -16.8125,41.375 0.006,1.04479 0.0129,2.08957 0.0195,3.16602 0.6051,26.13086 13.29347,48.41854 31.59766,66.48632 36.84718,34.08027 89.434485,43.79326 137.377443,50.42188 3.528836,0.49155 7.054095,1.00462 10.57959,1.51953 14.2824461,2.04145 28.5482446,3.56541 42.925781,4.71875 0.808625,0.065 1.61725,0.13005 2.450378,0.19705 2.307906,0.18332 4.616114,0.36177 6.924622,0.53732 0.683092,0.0529 1.366185,0.10582 2.069977,0.16033 3.860489,0.28336 7.684612,0.40473 11.555023,0.3553 -2.277796,-2.3654 -4.601148,-4.48701 -7.1875,-6.5 -2.828356,-2.51409 -3.202696,-3.0322 -3.8125,-6.5 0.658953,0.27675 1.317905,0.55349 1.996826,0.83862 6.373471,2.67393 12.754832,5.32807 19.141846,7.96949 2.164418,0.90159 4.319828,1.82485 6.470703,2.7583 27.595559,11.54897 58.670731,13.75783 86.824211,2.99609 26.82447,-11.75223 43.06581,-30.53759 54.00391,-57.375 0.91479,-2.38339 1.75487,-4.7646 2.5625,-7.1875 0.66,0 1.32,0 2,0 0,3.96 0,7.92 0,12 4.28981,-2.75957 8.25066,-5.73993 12.125,-9.0625 0.56638,-0.48404 1.13276,-0.96809 1.71631,-1.4668 9.31301,-8.00259 18.18702,-16.39402 26.90869,-25.0332 0.79229,-0.77924 1.58458,-1.55848 2.40088,-2.36133 5.39294,-5.38504 10.18568,-11.0543 14.84912,-17.07617 1.06642,-1.33176 2.13405,-2.66256 3.20312,-3.99219 26.48779,-33.51044 42.63616,-71.65776 39.51954,-114.85156 -1.58168,-12.17138 -5.60192,-24.11748 -12.72266,-34.15625 -0.65742,-0.94939 -0.65742,-0.94939 -1.32813,-1.91797 -6.56904,-8.55108 -17.2151,-14.08915 -27.67187,-16.08203 -12.88381,-1.44928 -25.32217,0.16108 -37,6 3.67328,-4.09846 6.97872,-6.18387 12.0625,-8.25 1.20785,-0.50016 2.4157,-1.00031 3.66016,-1.51563 2.443,-0.92013 4.73154,-1.70109 7.27734,-2.23437 1.01772,-21.06123 -3.3328,-40.4693 -11,-60 -0.39961,-1.06992 -0.79922,-2.13984 -1.21094,-3.24219 -7.96635,-20.39611 -19.77889,-38.86985 -34.78906,-54.75781 -1.12962,-1.32942 -2.25479,-2.66264 -3.375,-4 C 172.19187,240.20097 125.32428,216.61263 83.75,213.625 c -1.895114,-0.0814 -3.790961,-0.15244 -5.6875,-0.1875 -0.745075,6.37306 -1.103498,12.58311 -1,19 -2.362364,-1.80829 -2.957017,-2.71229 -3.404053,-5.70459 -0.03227,-3.55757 -0.0536,-7.11268 -0.03345,-10.67041 -0.01998,-1.21301 -0.03996,-2.42602 -0.06055,-3.67578 C 73.570567,200.92883 76.158725,190.6344 82,180.75 c 0.566543,-0.9871 0.566543,-0.9871 1.144531,-1.99414 3.151853,-5.3451 6.734971,-10.3301 10.417969,-15.31836 4.223015,-5.72172 8.2359,-11.47372 11.8125,-17.625 0.37898,-0.62648 0.75797,-1.25297 1.14844,-1.89844 2.6944,-4.7946 3.12897,-8.12878 2.53906,-13.47656 -1.00409,-2.52552 -1.00409,-2.52552 -3,-4 -12.07112,-3.04746 -21.788322,5.93965 -28.495605,15.02612 z"
       fill="#241f20"
       transform="translate(633.9375,12.5625)"
       id="path4" /><path
       d="M 0,0 C 1.478823,1.2256911 2.9366165,2.4770943 4.375,3.75 5.1755078,4.4564062 5.9760156,5.1628125 6.8007812,5.890625 29.338122,27.061004 37.683749,58.729065 39.375,88.75 c 0.143845,4.875596 0.184312,9.747431 0.1875,14.625 8.06e-4,1.18513 0.0016,2.37026 0.0024,3.59131 -0.0404,6.33911 -0.423278,12.49462 -1.189941,18.78369 -1.058723,0.0146 -2.117446,0.0292 -3.208252,0.0442 -34.21254391,0.50523 -67.786972,3.05105 -101.695557,7.54663 -3.696545,0.48852 -7.395534,0.953 -11.096191,1.40918 -0.33,-1.65 -0.66,-3.3 -1,-5 2.475,-0.99 2.475,-0.99 5,-2 -0.415118,-0.88184 -0.415118,-0.88184 -0.838623,-1.78149 C -88.8694,95.223191 -100.6693,59.459782 -88.625,25.75 c 3.816156,-9.036182 9.042315,-16.1394558 16,-23 0.937793,-0.9532617 0.937793,-0.9532617 1.894531,-1.92578125 C -50.005427,-18.853663 -22.046987,-16.409754 0,0 Z"
       fill="#242021"
       transform="translate(638.625,366.25)"
       id="path5" /><path
       d="M 0,0 C 0.78246094,0.38671875 1.5649219,0.7734375 2.3710938,1.171875 25.012977,13.48906 37.754958,40.095236 44.832031,63.785156 47.59242,74.323586 48.187876,85.171192 49,96 c 1.65,0.66 3.3,1.32 5,2 -1.018522,3.416 -2.23586,4.14246 -5.350342,6.02368 -1.443444,0.72461 -2.893621,1.43589 -4.348877,2.13648 -0.778911,0.38653 -1.557822,0.77306 -2.360336,1.17131 -2.537108,1.25529 -5.08228,2.4932 -7.627945,3.73103 -1.743158,0.85872 -3.485833,1.71843 -5.228027,2.5791 -10.275047,5.06407 -20.6001832,10.01981 -30.9609378,14.90601 -5.7260962,2.72003 -11.1861972,5.66787 -16.6157222,8.94458 -2.616058,1.57289 -5.252085,3.0709 -7.945313,4.50781 -0.761836,0.4125 -1.523672,0.825 -2.308594,1.25 -2.975249,0.99003 -4.336394,0.93352 -7.253906,-0.25 -1.687318,-2.04175 -2.97765,-3.87106 -4.3125,-6.125 -0.575848,-0.93791 -0.575848,-0.93791 -1.16333,-1.89478 C -42.675622,133.00046 -43.843169,131.00514 -45,129 c -0.360615,-0.62342 -0.72123,-1.24685 -1.092773,-1.88916 C -62.496272,98.378162 -74.478642,59.925387 -65.964844,26.96875 -61.82438,14.228861 -53.08516,3.3256355 -41.121094,-2.9921875 -27.607551,-9.1214402 -12.776189,-6.3987593 0,0 Z"
       fill="#242021"
       transform="translate(794,324)"
       id="path6" /><path
       d="M 0,0 C -3.0752016,4.4497236 -6.5829275,6.6825969 -11.25,9.1875 -18.163649,13.14454 -22.570984,17.301343 -27,24 c -0.792819,1.148139 -1.587185,2.295211 -2.382812,3.441406 C -41.799194,45.523794 -52.514627,64.571505 -61.125,84.75 c -8.329986,19.44038 -17.507393,38.06411 -37.777344,47.4375 -16.095496,6.23438 -34.358316,3.12298 -49.707026,-3.54688 -8.58106,-4.15212 -16.83828,-8.96556 -25.0586,-13.78515 C -194.54315,102.67628 -217.08019,93.549242 -240,86 c -0.7931,-0.265063 -1.58619,-0.530127 -2.40332,-0.803223 -2.27621,-0.752915 -4.55894,-1.479729 -6.84668,-2.196777 -0.66661,-0.220027 -1.33321,-0.440054 -2.02002,-0.666748 -6.51132,-1.964581 -11.92605,-0.84408 -18.41748,0.729248 -6.79465,1.413793 -14.6618,2.1544 -21.3125,-0.0625 0.33,-0.99 0.66,-1.98 1,-3 2.23047,-0.703125 2.23047,-0.703125 5.1875,-1.25 12.47357,-2.903586 21.24199,-8.290101 29.70313,-17.589844 0.69609,-0.712851 1.39218,-1.425703 2.10937,-2.160156 0.66,0 1.32,0 2,0 -0.11563,1.396641 -0.24299,2.792312 -0.375,4.1875 -0.0696,0.777305 -0.13922,1.554609 -0.21094,2.355469 -0.45387,2.693243 -1.3232,4.960461 -2.41406,7.457031 24.86372,6.200194 49.36325,9.365593 75.00732,9.260742 3.12146,-0.01075 6.24234,-1.5e-5 9.36377,0.0127 C -127.58644,82.302516 -85.917899,70.88443 -53,44 c 0.750234,-0.595547 1.500469,-1.191094 2.273438,-1.804688 C -40.850768,34.037048 -33.598453,23.431259 -28,12 -29.051875,11.9175 -30.10375,11.835 -31.1875,11.75 -35.287321,10.943478 -37.077217,9.9227832 -40,7 c 0,-0.66 0,-1.32 0,-2 0.633896,-0.00935 1.267793,-0.018691 1.920898,-0.02832 C -22.335817,4.919188 -22.335817,4.919188 -7.3046875,0.83984405 -4.7336084,-0.09707489 -2.7152374,-0.14977288 0,0 Z"
       fill="#252021"
       transform="translate(864,484)"
       id="path7" /><path
       d="m 0,0 c 20.196091,10.586246 32.222446,29.27426 39.125,50.4375 6.77558,22.233939 7.344232,44.936456 7,68 -8.58,0 -17.16,0 -26,0 0.06188,-3.98063 0.12375,-7.96125 0.1875,-12.0625 C 20.384758,91.453744 18.552147,79.07931 12.125,65.4375 8.3419213,66.004253 5.7789622,67.036067 2.5859375,69.125 1.7583594,69.658672 0.93078125,70.192344 0.078125,70.742187 -0.77265625,71.301641 -1.6234375,71.861094 -2.5,72.4375 -4.1987024,73.544462 -5.8991501,74.648752 -7.6015625,75.75 -8.3500244,76.241133 -9.0984863,76.732266 -9.8696289,77.238281 -11.875,78.4375 -11.875,78.4375 -14.875,79.4375 -12.542376,72.067649 -9.6952139,64.993113 -6.6875,57.875 -6.224082,56.770918 -5.7606641,55.666836 -5.2832031,54.529297 -4.1500615,51.830784 -3.0139372,49.13357 -1.875,46.4375 -2.6303906,46.14875 -3.3857813,45.86 -4.1640625,45.5625 c -2.7359888,-1.135396 -5.1681673,-2.546307 -7.6718755,-4.125 -8.19786,-4.020407 -18.103198,-4.345033 -26.917968,-2.347656 -11.304377,4.12194 -19.216246,12.288714 -24.40625,23 -1.843379,4.393716 -3.212826,8.578489 -3.714844,13.347656 -0.66,-0.33 -1.32,-0.66 -2,-1 -1.303358,-6.060199 -1.183511,-12.199549 -1.1875,-18.375 -0.01837,-1.485 -0.01837,-1.485 -0.03711,-3 C -70.134275,35.544921 -63.535166,20.647108 -51.8125,7.75 -37.668664,-6.0029871 -17.509447,-8.0933553 0,0 Z"
       fill="#fcfcfc"
       transform="translate(623.875,366.5625)"
       id="path8" /><path
       d="m 0,0 c 21.679647,16.517826 34.108651,43.708817 38.453125,70.144531 0.748049,6.636762 1.038809,13.310723 1.335937,19.980469 -2.644877,1.168875 -5.29083,2.335195 -7.9375,3.5 -0.754746,0.333867 -1.509492,0.667734 -2.287109,1.011719 C 23.902344,97.125 23.902344,97.125 22.789062,97.125 22.630508,95.915859 22.471953,94.706719 22.308594,93.460937 20.37667,79.584661 17.285569,67.183211 9.7890625,55.125 c -5.1157506,1.701833 -9.35015815,4.677535 -13.8125,7.625 -0.7882617,0.515625 -1.5765234,1.03125 -2.3886719,1.5625 -1.9355633,1.266914 -3.8683676,2.53783 -5.7988286,3.8125 -0.33,-0.66 -0.66,-1.32 -1,-2 0.696778,-2.075439 0.696778,-2.075439 1.835938,-4.613281 0.404766,-0.918457 0.809531,-1.836914 1.226562,-2.783203 0.4331255,-0.962286 0.8662505,-1.924571 1.3125005,-2.916016 0.8456569,-1.889915 1.6869565,-3.781787 2.5234375,-5.675781 0.3781787,-0.840872 0.7563574,-1.681743 1.1459961,-2.548096 0.9626891,-2.481987 1.5137904,-4.843102 1.9555664,-7.463623 -9.0703145,-6.172526 -17.0045695,-8.00192 -27.9999995,-7 -9.121716,1.896357 -16.443122,6.599458 -21.597657,14.425781 -2.859749,5.360988 -4.344371,10.611104 -5.402343,16.574219 -0.66,0 -1.32,0 -2,0 -3.920093,-20.370483 -5.796193,-40.626698 6,-59 C -40.603016,-12.060988 -17.222204,-11.64318 0,0 Z"
       fill="#fcfcfc"
       transform="translate(796.21094,333.875)"
       id="path9" /><path
       d="M 0,0 C -1.8286661,9.2709117 -9.1780612,18.356107 -16.574219,23.945312 -28.670708,32.009639 -41.519601,34.809718 -55.9375,32.3125 -68.332864,29.456608 -79.962056,23.794168 -90,16 c 1,-3 1,-3 2.933594,-4.28125 0.826289,-0.402187 1.652578,-0.804375 2.503906,-1.21875 0.803086,-0.402187 1.606172,-0.804375 2.433594,-1.21875 C -74.11523,5.9997447 -66.85755,4.4441875 -58.1875,4.5 c 1.434243,0.00205 1.434243,0.00205 2.897461,0.00415 C -47.330862,4.6757424 -41.097003,6.2679552 -34,10 c 0.66,0.33 1.32,0.66 2,1 -0.680625,-0.9075 -1.36125,-1.815 -2.0625,-2.75 C -36,5 -36,5 -35.859375,2.9335938 c 1.119873,-2.51971415 2.187893,-2.99201107 4.671875,-4.1210938 0.68707,-0.3235547 1.374141,-0.6471094 2.082031,-0.9804688 C -19.088519,-6.1264295 -9.6976204,-3.7910418 0,0 Z"
       fill="#e3173e"
       transform="translate(789,578)"
       id="path10" /><path
       d="M 0,0 C 1,3 1,3 0.28515625,4.9453125 -6.3246141,16.728865 -15.247513,25.834474 -28.4375,29.875 -29.953372,30.269576 -31.474051,30.646393 -33,31 c -0.60731,0.170559 -1.214619,0.341118 -1.840332,0.516846 C -49.443181,34.78375 -65.314702,32.202575 -78,24.625 -82.124365,21.83729 -85.131525,19.05543 -88,15 c 1.2375,0.4125 2.475,0.825 3.75,1.25 1.231699,0.407988 1.231699,0.407988 2.488281,0.824219 1.897426,0.636053 3.790487,1.28523 5.679688,1.945312 C -58.130736,25.220043 -40.373088,26.582535 -22.75,18.25 -17.343483,15.378904 -12.675749,11.926861 -8,8 -7.05125,7.278125 -6.1025,6.55625 -5.125,5.8125 -3.0410935,4.0350503 -1.533742,2.2602514 0,0 Z"
       fill="#231f20"
       transform="translate(794,612)"
       id="path11" /><path
       d="M 0,0 C 4.5432014,4.3040856 6.7585997,6.5457641 7.375,12.8125 7.207289,18.129925 4.9900939,21.853722 1.4570312,25.664062 -5.4318856,32.064292 -12.740764,33.545227 -21.875,33.4375 -22.75688,33.4314 -23.63876,33.42525 -24.547363,33.41895 -31.037187,33.262911 -36.347148,32.359277 -42,29 -43.11375,28.38125 -44.2275,27.7625 -45.375,27.125 -48.353048,24.714199 -50.119924,22.326288 -52,19 c 0,-0.66 0,-1.32 0,-2 0.66,0.268125 1.32,0.53625 2,0.8125 0.99,0.391875 1.98,0.78375 3,1.1875 0.627773,0.252656 1.255547,0.505312 1.902344,0.765625 0.671601,0.262969 1.343203,0.525938 2.035156,0.796875 0.627773,0.248789 1.255547,0.497578 1.902344,0.753906 C -31.206147,24.466409 -18.67833,24.865297 -9.1875,20.3125 -5.1761057,18.122924 -2.4493245,15.891767 0,12 0.48003447,8.879597 0.48003447,8.879597 0.25,5.6875 0.19585938,4.0845508 0.19585938,4.0845508 0.140625,2.4492188 0.09421875,1.6409766 0.0478125,0.83273437 0,0 Z"
       fill="#242122"
       transform="translate(756,496)"
       id="path12" /><path
       d="M 0,0 C 0.33,0 0.66,0 1,0 0.93433838,0.63526611 0.86867676,1.2705322 0.80102539,1.9250488 0.05969201,9.5078886 -0.30175204,17.074514 -0.5625,24.6875 -0.6056836,25.877949 -0.6488672,27.068398 -0.69335938,28.294922 -0.79823679,31.19653 -0.90040196,34.098206 -1,37 c -0.33,0 -0.66,0 -1,0 -1.0505499,-4.311457 -1.1919861,-8.523208 -1.1875,-12.9375 8.06e-5,-0.740566 1.611e-4,-1.481133 2.441e-4,-2.244141 C -2.9960541,2.9960541 -2.9960541,2.9960541 0,0 Z"
       fill="#272424"
       transform="translate(552,165)"
       id="path13" /><path
       d="m 0,0 c 0.99,0.33 1.98,0.66 3,1 -5.61,5.61 -11.22,11.22 -17,17 -0.33,-0.99 -0.66,-1.98 -1,-3 4.95,-4.95 9.9,-9.9 15,-15 z"
       fill="#1c1819"
       transform="translate(505,279)"
       id="path14" /><path
       d="M 0,0 C 0.66,0 1.32,0 2,0 2.5054604,2.0820153 3.0041684,4.1656707 3.5,6.25 3.7784375,7.4101562 4.056875,8.5703125 4.34375,9.765625 5,13 5,13 5,17 4.34,17 3.68,17 3,17 1.8422494,13.526748 1.9313335,10.639326 2,7 1.01,6.67 0.02,6.34 -1,6 -1.042721,4.3338809 -1.0406383,2.6661711 -1,1 -0.67,0.67 -0.34,0.34 0,0 Z"
       fill="#272424"
       transform="translate(643,116)"
       id="path15" /><path
       d="M 0,0 C 0.99,0.33 1.98,0.66 3,1 -0.63,4.63 -4.26,8.26 -8,12 -8.33,11.01 -8.66,10.02 -9,9 -6.03,6.03 -3.06,3.06 0,0 Z"
       fill="#1b1718"
       transform="translate(569,366)"
       id="path16" /><path
       d="m 0,0 c 4.805174,-0.0942191 9.2986981,-0.13970956 14,1 0.66,0 1.32,0 2,0 0,0.66 0,1.32 0,2 C 10.211016,3.2067494 5.5706728,2.5916208 0,1 0,0.67 0,0.34 0,0 Z"
       fill="#3d3a3b"
       transform="translate(523,501)"
       id="path17" /><path
       d="M 0,0 C 0.99,0.33 1.98,0.66 3,1 0.36,3.64 -2.28,6.28 -5,9 -5.66,8.34 -6.32,7.68 -7,7 -4.69,4.69 -2.38,2.38 0,0 Z"
       fill="#1a1617"
       transform="translate(744,327)"
       id="path18" /><path
       d="M 0,0 C 1,3 1,3 -0.4375,6.1875 -1.2109375,7.5796875 -1.2109375,7.5796875 -2,9 -2.33,8.34 -2.66,7.68 -3,7 -4.32,7.33 -5.64,7.66 -7,8 -6.0213366,6.8537368 -5.0420541,5.7080021 -4.0625,4.5625 -3.5172266,3.9244141 -2.9719531,3.2863281 -2.4101563,2.6289063 -1.632043,1.7300885 -0.84063472,0.84063472 0,0 Z"
       fill="#302d2e"
       transform="translate(794,612)"
       id="path19" /><path
       d="M 0,0 C 2.97,0.99 5.94,1.98 9,3 8.34,4.32 7.68,5.64 7,7 5.8304001,6.0243389 4.6643882,5.044375 3.5,4.0625 2.8503125,3.5172266 2.200625,2.9719531 1.53125,2.4101563 1.0259375,1.9448047 0.520625,1.4794531 0,1 0,0.67 0,0.34 0,0 Z"
       fill="#2f2c2d"
       transform="translate(706,627)"
       id="path20" /><path
       d="M 0,0 C 0.33,0 0.66,0 1,0 0.67,3.63 0.34,7.26 0,11 -0.66,11 -1.32,11 -2,11 -1.8595712,9.3536967 -1.7125067,7.7079582 -1.5625,6.0625 -1.4812891,5.1459766 -1.4000781,4.2294531 -1.3164062,3.2851563 -1,1 -1,1 0,0 Z"
       fill="#343132"
       transform="translate(552,165)"
       id="path21" /><path
       d="M 0,0 C 2.31,0 4.62,0 7,0 4.3144406,2.6855594 1.6237867,3.0604997 -2,4 -1.34,2.68 -0.68,1.36 0,0 Z"
       fill="#181718"
       transform="translate(863,414)"
       id="path22" /><path
       d="M 0,0 C 3.0061727,3.0061727 2.5958532,5.823816 3,10 2.34,10 1.68,10 1,10 -0.1577506,6.5267482 -0.06866652,3.6393255 0,0 Z"
       fill="#3b3738"
       transform="translate(645,123)"
       id="path23" /><path
       d="M 0,0 C 1.32,1.32 2.64,2.64 4,4 3.67,4.33 3.34,4.66 3,5 2.9590706,7.3329743 2.9575828,9.6670522 3,12 2.34,12 1.68,12 1,12 0.67,8.04 0.34,4.08 0,0 Z"
       fill="#444142"
       transform="translate(756,496)"
       id="path24" /><path
       d="m 0,0 c 1.2065625,0.0309375 1.2065625,0.0309375 2.4375,0.0625 -1.65,1.65 -3.3,3.3 -5,5 -0.5625,-1.9375 -0.5625,-1.9375 -1,-4 1,-1 1,-1 3.5625,-1.0625 z"
       fill="#2b2728"
       transform="translate(861.5625,483.9375)"
       id="path25" /><path
       d="M 0,0 C 0.66,0.33 1.32,0.66 2,1 -1.5,5.875 -1.5,5.875 -6,7 -4.02,4.69 -2.04,2.38 0,0 Z"
       fill="#312d2e"
       transform="translate(681,141)"
       id="path26" /></g></svg>
