<svg xmlns="http://www.w3.org/2000/svg" width="24" height="24"><path fill="#FFF" fill-rule="evenodd" d="M3.5 7.64q-.01.28.2.26c.18 0 .2.07.2.6 0 .48-.04.62-.17.67q-.17.05-.2-.05C3.5 9.05 3.36 9 3.23 9c-.19 0-.24.05-.24.25 0 .46.82.63 1.2.25.18-.18.2-.31.18-1.13l-.03-.92-.42-.03c-.4-.03-.43-.01-.43.22m1.2.8c0 1.15.06 1.26.65 1.26S6 9.6 6 8.44c0-1.04 0-1.05-.22-1.02s-.23.08-.26.91c-.02.77-.05.88-.2.85-.14-.03-.17-.17-.2-.9-.03-.8-.05-.88-.22-.88-.19 0-.2.07-.2 1.05m1.72-.93q-.12.13-.12 1.16c0 1.02 0 1.03.23 1 .17-.02.23-.1.25-.36.04-.45.36-.4.4.06q.02.34.23.32c.18 0 .19-.08.19-1.03q0-1.02-.12-1.15c-.16-.16-.9-.16-1.06 0m1.53 0c-.03.08-.04.6-.03 1.14.03.94.04 1 .26 1.02.2.03.22 0 .23-.45v-.48l.22.45q.22.45.45.48c.22.03.22.02.22-1.12V7.4h-.25c-.23 0-.25.04-.26.47v.48L8.6 7.9c-.19-.46-.55-.67-.66-.37m1.94-.09a8 8 0 0 0 0 1.15c.02 1 .04 1.11.21 1.11.15 0 .2-.09.23-.47.03-.39.05-.44.11-.26q.09.23.3.23.22-.02.34-.22c.1-.2.1-.17.11.24s.04.48.21.48c.19 0 .2-.07.2-1.15 0-1.09-.01-1.15-.2-1.15-.15 0-.27.14-.43.52l-.23.52-.22-.52q-.22-.52-.4-.52-.17 0-.23.04m2.13.08q-.12.13-.12 1.16c0 1.02 0 1.03.22 1 .18-.02.24-.1.26-.36.04-.45.36-.4.4.06q.02.34.23.32c.18 0 .19-.08.19-1.03q0-1.02-.12-1.15c-.16-.16-.9-.16-1.06 0m1.5 1 .03 1.13h.6c.55 0 .6-.02.63-.22s0-.23-.37-.23c-.34 0-.41-.03-.41-.2 0-.16.07-.2.3-.2.25 0 .3-.04.3-.25s-.05-.25-.3-.25c-.23 0-.3-.04-.3-.2 0-.17.07-.2.4-.2.36 0 .4-.03.4-.25 0-.24-.02-.25-.65-.25h-.66zm1.64-.98c-.2.2-.22.98-.03 1.13.06.06.27.12.46.14.2.02.36.09.39.15.06.2-.26.27-.53.13q-.45-.24-.45.3c0 .3.01.3.5.3.76 0 .9-.11.9-.7 0-.54-.15-.7-.64-.7q-.28.01-.26-.2 0-.2.2-.2.19.01.2.16 0 .15.22.12c.19-.02.23-.1.23-.38v-.35l-.51-.03c-.37-.02-.56.02-.68.13m1.34.1q-.01.26.2.25c.17 0 .2.08.22.88.03.82.04.87.25.9.22.03.23.01.23-.87 0-.9 0-.91.25-.91.2 0 .25-.05.25-.25 0-.24-.02-.25-.7-.25s-.7 0-.7.25m1.54-.12c-.02.07-.03.58-.02 1.13.03.94.04 1 .26 1.02.2.03.22-.01.22-.35v-.38l.15.32c.2.48.85.59.85.14 0-.1-.1-.21-.22-.24-.2-.06-.21-.07-.05-.25.24-.26.23-1.13-.01-1.35-.23-.21-1.1-.23-1.18-.04m1.72.1q-.16.2-.16.94c0 .6.04.77.2.93.24.24.82.27 1.04.04.2-.2.23-1.83.04-2.02-.07-.07-.31-.12-.54-.12-.33 0-.47.05-.58.22M6.8 8.2c0 .23.04.3.2.3s.2-.07.2-.3-.04-.3-.2-.3-.2.07-.2.3m5.6 0c0 .23.04.3.2.3s.2-.07.2-.3-.04-.3-.2-.3-.2.07-.2.3m6.1 0c0 .23.04.3.2.3s.2-.07.2-.3-.04-.3-.2-.3-.2.07-.2.3m1.62.32c.02.5.06.63.2.66.16.03.18-.05.18-.62 0-.6-.02-.66-.2-.66-.2 0-.2.05-.18.62"/></svg>