<svg xmlns="http://www.w3.org/2000/svg" width="24" height="24"><path fill="#FFFFFF" fill-rule="evenodd" d="M3.02 7.23c.03.22.04.22 1.78.22s1.75 0 1.78-.22L6.61 7H3zM7.2 9v2h1v-.7c0-.63.02-.7.2-.7.14 0 .3.19.55.7l.35.7h.5c.27 0 .5-.03.53-.07a3 3 0 0 0-.38-.83l-.43-.75.24-.28c.34-.4.4-.88.18-1.34-.28-.56-.7-.73-1.81-.73H7.2zm9.88-1.4c-.28.15-.38.27-.38.44q0 .23-.2.29c-.28.07-.3.77-.01.77.16 0 .2.1.23.76.04.93.22 1.14.99 1.14.55 0 .61-.06.53-.49-.05-.24-.12-.31-.3-.31-.22 0-.24-.04-.24-.55 0-.48.03-.55.2-.55.21 0 .4-.27.4-.6 0-.16-.06-.2-.3-.2-.29 0-.3-.02-.3-.45 0-.51-.07-.54-.62-.24M3.6 8.95v1.15h.8V9.06l.36.52c.35.5.4.52.8.52.24 0 .44-.03.44-.07 0-.03-.18-.3-.4-.59l-.4-.52.4-.49c.22-.26.4-.51.4-.55s-.18-.08-.4-.08c-.36 0-.43.05-.8.5l-.4.52V7.8h-.8zm4.67-1.08c-.04.03-.07.26-.07.5 0 .37.03.43.2.43q.59-.02.6-.5c0-.23-.06-.33-.26-.4-.3-.12-.38-.12-.47-.03m2.66.53c-.27.1-.27.11-.12.44.1.22.17.25.67.23q.54-.02.6.1c.02.1-.11.13-.48.13-.44 0-.56.04-.8.3-.38.36-.4.81-.06 1.15.22.22.31.23 1.26.23h1.02l-.04-1.1c-.03-1.06-.04-1.1-.31-1.34-.23-.2-.38-.24-.9-.23-.34 0-.72.04-.84.1m2.69 0c-.23.09-.24.12-.2 1.08.03.89.06 1.02.27 1.25.26.27.8.35 1.1.16q.16-.08.27.01c.07.06.3.09.5.07l.39-.03.03-1.32L16 8.3h-.25c-.14 0-.36.04-.5.1-.25.1-.26.12-.26.95v.86l-.27-.03-.28-.03-.03-.93-.03-.92h-.27c-.15.01-.38.05-.5.1m5.3 0c-.19.08-.2.12-.1.39.1.29.12.3.65.28.76-.03.83.19.08.25-.64.05-.91.25-1 .74-.05.24-.01.37.2.61.25.31.26.31 1.25.31h1V9.93c0-1.02 0-1.05-.3-1.34-.26-.26-.35-.29-.92-.28-.35 0-.73.04-.85.1M11.5 9.94c-.1.12-.1.18 0 .3.2.25.55.15.55-.15s-.35-.4-.55-.15m8.12-.06c-.23.14-.1.46.18.46.2 0 .26-.06.28-.27s0-.28-.15-.28a1 1 0 0 0-.31.09M3 10.75V11h3.6v-.5H3z"/></svg>