<svg xmlns="http://www.w3.org/2000/svg" width="24" height="24"><path fill="#FFFFFF" fill-rule="evenodd" d="M4.5 7.27c0 1.15.02 1.35.13 1.23l1.9-2.47c.07-.1-.13-.13-.97-.13H4.5zm2.63.15-1.2 1.53.5.65c2.12 2.7 1.94 2.5 2.37 2.5h.4V5.9h-.87zM10.6 9v3.11h1.2c1.2 0 1.2 0 1.15-.22l-.79-3.08-.73-2.85-.41-.03-.42-.03zm2.42-2.86.44 2.2c.21 1.08.41 1.97.44 1.97s.28-.89.54-1.97l.53-2.2c.05-.23.04-.23-.97-.23-1 0-1.02 0-.98.22m3.61-.08c.03.08.27 1.07.54 2.2.26 1.13.5 2.06.53 2.06.05 0 .4-1.66.88-4.18.04-.22.03-.22-.98-.22-.83 0-1.01.03-.97.14m3.43.39-.75 2.87-.67 2.57c-.06.23-.06.23 1.15.23H21V5.9h-.4c-.38 0-.39 0-.54.53m-4.76 3.5-.48 2c-.03.15.07.17.98.17.93 0 1.02-.02.98-.17l-.49-2c-.24-1-.46-1.83-.49-1.83s-.25.82-.5 1.83m-10.8.8v1.37h1.06c.84 0 1.04-.03.97-.12L4.63 9.5c-.1-.12-.13.08-.13 1.23"/></svg>