<svg xmlns="http://www.w3.org/2000/svg" width="24" height="24"><path fill="#FFF" fill-rule="evenodd" d="M3.12 7.22c-.17.17-.17 3.3 0 3.46.28.28.68-.01.68-.49q.01-.6.55.14.31.44.55.42c.4 0 .38-.37-.04-.88-.2-.24-.36-.47-.36-.52 0-.04.14-.23.3-.42.32-.36.34-.41.21-.61-.14-.23-.54-.1-.76.25q-.5.84-.5-.5c0-.58-.04-.8-.15-.87q-.28-.2-.48.02m5.1 0c-.08.08-.12.61-.12 1.74 0 1.35.03 1.64.16 1.75.23.19.48 0 .54-.41.07-.48.24-.47.6.04q.45.69.78.34c.2-.2.14-.35-.23-.77-.2-.21-.35-.44-.35-.5 0-.07.11-.27.25-.45q.4-.53.14-.71c-.2-.13-.54.05-.77.4-.12.2-.27.33-.32.3-.06-.03-.1-.41-.1-.84 0-.74-.1-1.01-.35-1.01q-.1 0-.23.12m6.9 0c-.23.23-.07.68.24.68.14 0 .44-.27.44-.4s-.3-.4-.44-.4a.4.4 0 0 0-.24.12m1.19.02c-.08.1-.1.65-.09 1.76.03 1.45.05 1.64.21 1.74.15.09.22.07.38-.13a1 1 0 0 0 .19-.47c0-.34.1-.3.55.22.33.38.45.45.63.4q.47-.16-.13-.89c-.2-.22-.35-.45-.35-.5s.14-.25.3-.44c.32-.37.34-.5.08-.66q-.34-.2-.66.33-.46.77-.48-.47 0-1.04-.39-1.03c-.07 0-.18.06-.24.14M5.71 8.45c-.78.67-.56 1.98.4 2.26.85.26 1.69-.32 1.69-1.17Q7.78 8.22 6.46 8.2c-.33 0-.52.06-.75.25m5.13-.06c-.4.24-.58.7-.51 1.27.16 1.44 2.26 1.5 2.53.08.09-.49-.02-.82-.4-1.2-.3-.3-.4-.34-.83-.34-.3 0-.6.07-.79.19m2.36.02c-.13.23-.13 1.8 0 2.13.1.28.38.34.58.14.07-.07.12-.41.12-.84v-.72l.38-.19c.28-.14.37-.24.37-.43 0-.24-.02-.25-.68-.26-.56 0-.7.02-.77.17m1.97-.13c-.1.17-.3 1.92-.23 2.16.09.36.53.47.76.18.15-.18.16-.3.04-1.24l-.14-1.1q-.02-.08-.2-.08-.17 0-.23.08m3.74.18c-.84.7-.51 2.1.54 2.3.43.08.95-.1 1.25-.41.3-.32.38-1.1.16-1.53-.34-.65-1.38-.84-1.95-.36M6.18 9c-.2.12-.24.69-.06.87.2.2.76.15.88-.07.16-.31.12-.59-.12-.75-.26-.18-.46-.2-.7-.05m5.02.09c-.38.38-.18.9.35.9.44 0 .7-.34.56-.72-.16-.42-.59-.5-.91-.18m8.22-.13c-.25.1-.34.53-.17.8.3.46 1.05.24 1.05-.31 0-.37-.5-.64-.88-.5"/></svg>