<svg xmlns="http://www.w3.org/2000/svg" width="24" height="24"><path fill="#FFF" fill-rule="evenodd" d="M17.47 6.07a4 4 0 0 0 0 1.46c.06.4.27.57.46.38a4 4 0 0 0 .15-1.78c-.11-.14-.5-.18-.61-.06M3.7 7.43l-.4 1.54c-.33 1.3-.33 1.32-.15 1.52.15.16.31.21.73.21.48 0 .54-.03.63-.26.14-.35.14-.34-.24-.34-.2 0-.37-.04-.4-.08-.03-.05.1-.66.3-1.35A22 22 0 0 0 4.5 7.3c0-.06-.16-.1-.35-.1-.28 0-.37.05-.44.23m1.68-.07c-.2.24.01.49.42.49.28 0 .35-.04.37-.24.06-.4-.52-.58-.79-.25m3.2.26c-.17.71-.15.69-.46.57-.64-.24-1.72.22-1.99.86-.3.71-.14 1.28.41 1.5.67.29 1.59.06 2.02-.48.15-.2.83-2.5.83-2.82 0-.03-.16-.05-.35-.05-.32 0-.35.03-.45.42m6.7-.22c-.22.22-.24.29-.12.46.08.13 1.38.74 1.57.74.1 0 .25-.2.25-.35 0-.04-1.13-.85-1.37-.99-.07-.04-.21.02-.33.14m3.92.31c-.72.5-.8.63-.5.82.23.15 1.68-.55 1.68-.81 0-.16-.29-.53-.4-.51zm-9.07.53c-.22.09-.55.31-.72.5-.28.3-.33.43-.33.84 0 .37.05.53.23.7.42.4 1.15.54 1.71.32q.27-.1.26-.34c0-.23-.02-.25-.26-.16-.4.16-.82.12-1.04-.1-.11-.11-.2-.24-.2-.28s.3-.08.68-.08c.66-.01 1-.11 1.35-.42.23-.2.22-.65-.02-.86-.26-.24-1.16-.3-1.66-.12m3.52-.08c-.03.04-.34.07-.69.08l-.62.01-.28 1.15-.28 1.22c0 .05.15.08.34.08.37 0 .4-.03.52-.75q.26-1.47 1.18-1.3c.29.05.34.02.4-.17.02-.12.03-.25 0-.3-.06-.1-.48-.1-.57-.02m-8.7.1c-.13.13-.07.44.08.44.2 0 .19.02-.05 1.02l-.2.91c0 .05.17.07.37.05l.36-.03.23-1 .29-1.22c.05-.22.02-.23-.48-.23-.3 0-.57.03-.6.07m2.36.47a1 1 0 0 0-.42.35c-.15.26-.14.84.01.99.17.17.6.15.86-.03.23-.17.57-1.14.45-1.26-.17-.16-.6-.18-.9-.05m2.93.07q-.53.4.08.39c.7 0 1.24-.37.8-.54a.9.9 0 0 0-.88.15m5.62.82c-.37.16-.7.37-.73.44-.06.18.1.49.29.56.22.09 1.59-.9 1.52-1.1l-.06-.19c0-.1-.41 0-1.02.29m2.73-.2c-.15.18-.01.34.77.87.6.42.63.42.82.25.38-.34.26-.54-.54-.9-.84-.4-.9-.4-1.05-.22m-1.08.65c-.04.1-.07.53-.08.97 0 .76.01.8.23.83.41.06.5-.11.44-.9-.05-.8-.15-1.08-.38-1.08-.08 0-.18.08-.21.18"/></svg>