<svg xmlns="http://www.w3.org/2000/svg" width="24" height="24"><path fill="#FFF" fill-rule="evenodd" d="M9.35 2.48q-.06.27-.4.47c-.2.1-.54.38-.76.62-.68.74-.87 1.48-.5 1.93q.35.46 1.07-.3c.2-.21.41-.37.46-.34.04.03.08.27.08.54 0 .35-.04.5-.16.54-.13.05-.16.16-.12.58.03.29.1.54.17.56s.11.77.11 2.54c0 2.32.01 2.5.17 2.46.16-.03.18-.21.2-2.03 0-2.75-.02-2.6.3-2.03.29.52.37.56.7.32l.23-.15v2.21h.4c.36 0 .4.03.4.24 0 .13.03.32.06.4q.07.18-.07.15c-.27-.06-1.49.62-1.49.82 0 .06.8.08 2.08.07 1.22-.02 2.06-.07 2.06-.12a4 4 0 0 0-1.5-.78c-.09.09.05-.8.14-.9.04-.04.42-.08.85-.1.43-.01.8-.05.82-.08s-.08-.61-.2-1.3c-.17-.93-.2-1.27-.12-1.32.07-.04.36-.13.65-.2.3-.06.55-.15.58-.2.03-.04.11-.45.18-.91.08-.46.23-1.02.35-1.25.25-.49.28-.92.06-.92a.15.15 0 0 1-.15-.14c0-.24-.2-.3-.34-.1q-.14.18-.2.06c-.14-.24-.36-.13-.36.18q0 .3-.15.3c-.09 0-.24.13-.33.3-.13.22-.33.36-.8.52-.34.13-.62.26-.62.3 0 .14.38.28.96.34.65.08.87.23.82.56-.02.2-.1.24-.5.28-.46.06-.49.05-.54-.2-.09-.43-.2-.55-.56-.6-.36-.07-.98-.44-.98-.61 0-.05.24-.08.53-.07.48.03.52.01.52-.2 0-.17.1-.28.41-.41.4-.18 1.14-.83 1.14-1 0-.4-.9-.58-1.95-.4l-1.2.18c-.24.02-1.06.92-1.26 1.35-.29.65-.27 1.11.04 1.8.26.55.26.6.1.78-.09.1-.2.18-.24.18-.16 0-.4-.62-.35-.88.07-.32-.13-.77-.34-.77-.17 0-.17-.45 0-1.11.1-.36.18-.45.62-.65.47-.22.88-.63.88-.89q0-.12-.45-.04c-.5.07-.55 0-.24-.4.12-.15.19-.3.16-.32s-.3.01-.6.1c-.55.13-.57.13-.57-.05 0-.29-.18-.23-.25.09m3.4.89c-.45.1-.86.25-.81.3.03.03-.06.2-.2.38-.13.17-.24.37-.24.42q-.02.1-.15.23-.18.14-.04.2c.1.07.1.12 0 .24q-.12.15-.06.16t-.1.2q-.15.18-.1.2.08.02-.08.15c-.14.1-.17.2-.12.44.07.33.2.47.5.52.24.05.24.23 0 .27a2 2 0 0 0-.52.35c-.28.26-.34.28-.48.17-.28-.23-.45-.67-.45-1.14q0-.71-.38-.34c-.2.2-.13.32.08.13.2-.17.2-.17.13.34-.05.45-.02.56.28 1.06.18.3.37.55.43.55s.26-.18.47-.4q.6-.64.36 0c-.06.16-.08.32-.05.36.11.1.68-.14 1.12-.48a5 5 0 0 0 1.26-1.45c0-.07-.18-.17-.4-.23a2 2 0 0 1-.76-.42c-.28-.25-.37-.29-.44-.18q-.09.19-.15-.02c-.08-.21.21-.78.4-.78q.16 0 .1.09c-.06.11.18.21.55.21.22 0 .27-.04.23-.18-.03-.14.08-.23.5-.4.58-.24 1.13-.74 1.03-.91a6 6 0 0 0-1.91-.04m.35.44q-.01.1-.24.05a.4.4 0 0 0-.4.1q-.17.15-.36.09-.36-.12-.04.2c.18.18.54.04.54-.21 0-.14.02-.13.16 0q.17.16.31.12l.19-.06q.03-.02.04-.2 0-.18-.1-.2-.09.01-.1.11m2.26.42c.06.25.04.27-.25.27-.17 0-.31.03-.31.08 0 .04.15.07.32.07.27 0 .34.04.36.23.02.13-.06.38-.17.57-.11.2-.15.35-.1.35.15 0 .02.82-.13.91-.06.04-.3.1-.55.14q-.43.06-.43.2c0 .18.1.18.75.02l.5-.13.18-.88c.1-.48.26-1.05.37-1.26.23-.46.26-.63.05-.36-.14.19-.15.18-.16-.15q0-.3-.06-.19l-.1.3q-.04.16-.18-.15c-.14-.3-.14-.3-.09-.02m-7.33 9.01q-.53.17-.18.32c.12.05.15.25.15.94 0 .5-.04.92-.1.95q-.09.04-.1-.05-.01-.1-.2-.05c-.24.08-.35-.28-.26-.8q.06-.37.26-.35.18-.02.2-.15-.01-.15-.26-.15c-.21 0-.25-.04-.21-.2.08-.3-.1-.34-.29-.05-.23.35-.64.35-.64 0q0-.23-.08-.25c-.14 0-.65.72-.55.79.06.03.12.36.15.73.05.8.16.96.55.82.34-.12.47-.5.13-.4-.2.07-.2.05-.18-.5.03-.51.06-.59.23-.59s.2.08.25.69q.08 1.14.59.79c.1-.06.22-.09.25-.05.09.08.97.1 1.02 0q.02-.06-.11-.18c-.12-.1-.15-.37-.15-1.2 0-.6-.03-1.1-.07-1.12a1 1 0 0 0-.4.06m2.9.1c-.61.52-.67 1.63-.12 2.19.24.23.35.27.69.24.47-.04.56-.11.65-.54.09-.42-.1-.5-.31-.13-.35.58-.84.22-.84-.62 0-.52.15-.94.36-1.02.24-.1.44.05.44.3 0 .4.33.26.41-.16.04-.2.07-.36.06-.37l-.53-.08c-.45-.06-.53-.04-.82.2M3 13.29q.01.08.15.15c.12.04.15.25.15 1 0 .8-.03.97-.17 1.05-.29.16-.1.21.76.24l.83.02.14-.4c.17-.5.03-.66-.25-.26-.27.37-.66.42-.76.1a4 4 0 0 1 .23-1.81c.14-.17.11-.18-.46-.18-.34 0-.62.04-.62.09m2.13.07c-.03.08 0 .22.09.3.12.12.17.12.33 0s.17-.16.06-.3c-.17-.2-.4-.2-.48 0m7.5.51c-.19.04-.23.11-.23.39q0 .57.28.14c.16-.25.42-.26.42-.01q0 .19-.3.3c-.37.12-.67.57-.54.79q.3.44.63.25.19-.11.25-.04c.06.1.66.02.66-.1q0-.07-.1-.14c-.05-.03-.1-.33-.1-.66 0-.84-.24-1.06-.97-.92m4.2 0c-.23.05-.38.51-.22.68.1.1.23-.03.32-.3.05-.13.37.02.37.18 0 .08-.18.21-.4.3q-.39.16-.4.33.01.2-.2-.1a2 2 0 0 0-.5-.41c-.33-.17-.4-.35-.12-.35.1 0 .23.1.3.21.18.28.35.11.26-.25-.05-.22-.11-.26-.45-.26-.28 0-.43.06-.56.24l-.18.23-.1-.21q-.1-.21-.47-.24c-.29-.03-.4.02-.57.24-.3.39-.29 1.07.04 1.4.38.38 1.05.26 1.05-.18q0-.25-.12-.1a.36.36 0 0 1-.58-.07c-.17-.32-.12-.37.3-.33.29.03.41 0 .46-.11.05-.14.08-.13.22.01.1.1.29.24.42.34.2.13.23.18.12.3-.11.1-.17.08-.36-.14-.12-.16-.25-.28-.29-.28-.1 0-.09.52 0 .65.15.2.8.18 1.01-.03s.2-.2.36 0c.17.2.51.24.61.08q.07-.1.18-.02c.07.05.48.07.91.04.68-.04.77-.06.63-.17q-.18-.12-.19-.58c0-.55.05-.64.36-.64q.26 0 .28.2c.02.12.19.32.38.45.41.28.48.4.25.48q-.17.08-.4-.22c-.2-.25-.24-.27-.3-.11a1 1 0 0 0-.02.4c.05.18.14.23.48.25q.77.04.79-.6c0-.22-.09-.33-.4-.53-.4-.26-.52-.45-.25-.45.08 0 .2.09.25.2.16.3.3.24.3-.15 0-.35 0-.35-.44-.35-.25 0-.48.05-.52.11q-.07.12-.16-.05c-.11-.2-.32-.2-.49 0-.1.13-.14.13-.2 0-.07-.12-.15-.12-.39-.03-.33.12-.4.31-.14.4.22.1.16 1.1-.07 1.15-.14.02-.17-.09-.2-.62q-.05-.66-.23-.85c-.19-.2-.3-.23-.72-.14M5 14c-.23.1-.23.12-.08.23.22.16.28 1.14.09 1.26-.25.15-.03.25.43.22.46-.04.6-.15.31-.26-.11-.04-.15-.23-.15-.8 0-.83-.04-.87-.6-.65m4.02-.04c-.18.07-.42.57-.42.88 0 .78.85 1.29 1.24.73.19-.26.11-.41-.13-.26a.5.5 0 0 1-.34.05c-.18-.07-.32-.66-.22-.96.08-.27.35-.27.35-.01q-.02.18-.15.2a.15.15 0 0 0-.15.16c0 .12.09.14.38.12s.38-.07.4-.26c.05-.35-.24-.72-.56-.71-.15 0-.33.03-.4.06"/></svg>