<svg xmlns="http://www.w3.org/2000/svg" width="24" height="24"><path fill="#FFF" fill-rule="evenodd" d="M8.94 5.96A10 10 0 0 0 6.98 7.9 8 8 0 0 1 4.6 9.86c-.18.08-.62.14-.97.14-.36 0-.64.04-.64.1 0 .13 1.04.13 1.52 0 .2-.06.64-.3.97-.55.68-.5.76-.54.61-.26-.15.3-.12.69.07.8.3.16.76-.05 1.87-.9l.29-.23-.17.26c-.18.28-.18.79 0 .85.06.02.27-.08.47-.21L9 9.6v.24c0 .22.04.25.38.25.41 0 .8-.23 2.07-1.27.42-.35.8-.63.86-.63.18 0 .08.38-.21.79-.17.22-.38.41-.49.41-.32 0-.81.22-.81.36 0 .16.33.18.6.04q.2-.11.2 0-.02.1-.17.17c-1.2.4-2.4 1.54-2.2 2.08.1.24.6.18 1.03-.14a8 8 0 0 0 1.52-1.57.7.7 0 0 1 .4-.27c.25-.06.75-.41 2.02-1.45.57-.47.7-.5.7-.23s-.57 1.01-.79 1.01c-.32 0-.81.22-.81.36 0 .16.33.18.6.04q.2-.11.2 0-.02.1-.17.17c-1.2.4-2.4 1.54-2.2 2.08.1.24.6.18 1.03-.14a8 8 0 0 0 1.53-1.59c.06-.12.2-.22.3-.22s.43-.18.74-.4l.56-.4-.06.33c-.06.4.15.62.5.53.13-.03.44-.24.7-.46l.45-.4h.95c.53 0 .99-.04 1.02-.1q.04-.1-.86-.1c-.9 0-.91 0-.84-.22.04-.13.08-.34.09-.48 0-.23-.02-.25-.44-.25-.4 0-.52.06-1.05.5a8 8 0 0 1-1.7 1.25q-.12-.01-.19-.16-.06-.15.44-.63c.4-.37.5-.54.5-.79s-.05-.33-.25-.38c-.3-.07-.52.06-1.44.84a8 8 0 0 1-1.62 1.12q-.07-.01-.13-.16t.44-.63c.4-.37.5-.54.5-.79s-.05-.33-.25-.38c-.29-.07-.54.07-1.35.76-.83.7-1.22.98-1.63 1.15-.53.22-.49.02.18-.8.3-.36.55-.7.55-.75 0-.3-.32-.1-1.07.67-.52.53-.87.83-.9.75s.08-.29.24-.48c.74-.94.82-1.14.48-1.14-.08 0-.6.38-1.15.84-1.07.9-1.57 1.16-1.66.9-.1-.26.5-1.03 1.29-1.66C8.88 7.2 9.7 6.21 9.57 5.86c-.09-.22-.18-.2-.63.1m-.44.81a20 20 0 0 0-1.03 1.18l-.2.3.34-.3c1.14-1 1.9-1.87 1.76-2-.02-.04-.41.34-.87.82m8.77 1.71c-.21.23-.22.52-.02.52.12 0 .45-.47.45-.64 0-.13-.28-.05-.43.12m-.64.55c-.58.64-.5 1.1.12.63.4-.31.39-.26.22-.6l-.14-.26zm-5.72 1.33c-.5.21-1.14.77-1.36 1.17-.52.97.56.32 1.56-.94.34-.43.31-.46-.2-.23m2.5 0c-.5.21-1.14.77-1.36 1.17-.38.71.12.6.91-.2.6-.6 1-1.13.87-1.13-.04 0-.23.07-.42.16m2.5.97c0 .33.02.38.1.25.05-.1.16-.18.24-.18q.13 0 .2-.1c.1-.17-.07-.4-.31-.4-.22 0-.24.04-.24.43m2.58-.03c-.09.22-.12.4-.07.4q.08 0 .09-.1c0-.14.33-.13.48.02q.11.1.12.05c0-.11-.33-.77-.4-.77-.02 0-.13.18-.22.4m.72 0c0 .22.05.4.1.4q.1-.01.07-.11 0-.11.1-.16.12-.04.13.11 0 .15.1.16c.05 0 .08-.15.06-.32l-.05-.4c0-.05-.12-.08-.26-.08-.22 0-.25.04-.25.4m1.21-.02c-.12.23-.17.42-.11.42a.1.1 0 0 0 .1-.1c0-.14.33-.13.48.02.17.17.14-.02-.07-.41l-.19-.35z"/></svg>