<svg xmlns="http://www.w3.org/2000/svg" width="24" height="24"><path fill="#FFF" fill-rule="evenodd" d="M5.16 2.4c-.25.23-.46.48-.46.56q0 .13-.1.14-.09.02-.1.2c0 .1-.04.22-.1.25-.05.03-.1.17-.1.3s-.04.26-.09.3c-.05.02-.11.17-.14.32-.5 2.35-.6 3.06-.59 4.43 0 1.8.37 4.33.73 5.02.05.1.09.27.09.38s.05.2.1.2.1.1.1.2c0 .27.78 1.09 1.07 1.13.12.02.26.06.3.1s.17.07.3.07c.21 0 .4-.06 1.13-.38a2 2 0 0 1 .48-.15q.1 0 .12-.09.02-.07.15-.08c.16 0 .65-.28.76-.44.1-.13.22-.87.2-1.14a3 3 0 0 0-.64-.85q-.9-.88-1.2-1.96c-.13-.45-.21-3.49-.1-3.64.05-.07.1-.3.12-.52s.07-.44.12-.5.09-.17.09-.27c0-.2.25-.24.49-.09.14.09.13.17-.1 1.56-.14.86-.06 3.06.13 3.55q.3.75.72 1.22c.3.34 1.24.9 1.36.83.05-.03.26.01.46.1.32.13.44.13 1.12 0 .43-.1.93-.24 1.12-.33.78-.37 1.65-1.54 2.21-3 .44-1.12.6-1.42.74-1.42s.45.26.45.4-.6 1.72-.8 2.13c-.25.48-.25.66-.03.83.26.2.43.17 1.1-.16.34-.16.74-.32.88-.36s.28-.1.3-.15q.08-.08.26-.09t.19-.1.15-.1c.08 0 .3-.08.47-.18.18-.1.53-.26.78-.36 1.02-.4 1.44-1.15 1.05-1.93-.14-.27-.83-.7-1.7-1.03l-.97-.44a8 8 0 0 0-.86-.36 4 4 0 0 1-.68-.29c-1.44-.7-1.51-.72-2.05-.72-.3 0-.68.07-.86.16-.4.2-1.03.92-1.03 1.16q0 .17-.09.23c-.05.03-.11.18-.14.33l-.22.93c-.1.36-.2.79-.22.96-.06.4-.38.6-.58.4-.17-.17-.21-1.16-.05-1.16.05 0 .1-.15.1-.33s.03-.37.07-.4l.1-.25c.03-.28.34-1.36.44-1.54.12-.24.11-.85-.01-.93q-.1-.07-.05-.15c.1-.18-.38-.8-.86-1.1-.27-.16-.53-.3-.58-.3s-.26-.09-.48-.2c-.2-.1-.65-.31-.98-.45l-.98-.45c-.22-.11-.45-.2-.53-.2q-.13 0-.14-.1c0-.06-.31-.1-.74-.1-.71 0-.74.01-1.2.4"/></svg>