<svg xmlns="http://www.w3.org/2000/svg" width="24" height="24"><path fill="#FFF" fill-rule="evenodd" d="M3 9v4.6h18V4.4H3zm.1 0v4.5h17.8v-9H3.1zm1.1-3.2c0 .55.03.7.15.7q.15.01.17-.37 0-.44.05-.11c.05.3.3.56.43.42.04-.05.13-.25.18-.44l.1-.35.01.42q0 .45.16.43c.12 0 .15-.14.15-.7 0-.67 0-.7-.24-.7-.2 0-.25.06-.32.43l-.07.42-.11-.4c-.1-.33-.17-.4-.39-.43l-.27-.03zm1.67-.23c-.15.16-.06.26.18.2q.23-.05.25.04-.01.09-.19.1c-.1 0-.24.07-.31.15-.2.24.04.44.51.43h.4L6.68 6c-.03-.45-.04-.46-.38-.49-.2-.02-.39 0-.43.04m1.23 0c-.22.04-.26.1-.27.44s.01.4.18.4c.15 0 .19-.07.19-.3 0-.16.04-.3.09-.3.1 0 .21.25.21.5q.01.19.16.2c.12 0 .14-.1.12-.47-.03-.51-.1-.56-.68-.46m.91.06c-.26.26-.06.77.31.77q.16.01.18.08c0 .17-.13.2-.3.1-.24-.15-.37-.04-.2.17.15.18.61.2.78.03.07-.07.12-.37.12-.68v-.56l-.39-.01c-.2-.01-.43.03-.5.1m8.39.34c-.7.1-.65.04-1.2 1.68-.3.85-.56 1.55-.6 1.55-.02 0-.04-.43-.02-.96s0-1-.05-1.04c-.13-.12-1.3.08-1.72.3-.21.1-.5.33-.64.5l-.26.3-.1-.37-.2-.81a2 2 0 0 0-.14-.48c-.03-.03-.32 0-.64.06l-.6.12-.3.86-.32.87v-.48c0-.41-.04-.48-.18-.43a6 6 0 0 1-1.95.28q-.1-.09-.9.08c-.9.2-.85.22-1.03-.57-.03-.18-.12-.33-.18-.33-.07 0-.47.12-.9.26-.62.2-.77.3-.73.42.06.2.65 3.53.66 3.72q0 .05.09.18c.06.1.18.09.6-.08l.56-.2c.03 0 .05.15.05.34s.03.37.08.4c.04.02.45-.03.9-.12.8-.15.84-.15.94.02.08.14.18.16.51.1 1-.15 1.27-.26 1.27-.48 0-.52.1-.66.5-.66.2 0 .4.05.46.1.08.08.33.05.85-.1l.76-.2c.02 0 .03.2.03.45v.45h.6c1.3 0 2.4-.44 2.66-1.06.14-.34.48-.47.56-.23.04.1.7-.03 1.33-.27.12-.05.15.02.15.38v.44l1.07.17c.6.1 1.15.17 1.24.17.13 0 .18-.21.27-1.07.07-.6.12-1.14.12-1.21 0-.13-.13-.11-.59.06-.1.04-.12-.05-.07-.44l.12-1.12.06-.62h-1.91l-.07.47-.08.48-.17-.75c-.1-.41-.2-.85-.24-.97-.05-.23-.13-.25-.65-.16m-.1.42c-.22.06-.32.26-.77 1.53C15 9.38 15 9.4 15.18 9.7c.13.23.23.3.42.28.2-.02.26-.11.35-.48.14-.57.3-.54.33.06q.02.48.17.4l.54-.17c.31-.1.4-.17.4-.33 0-.4-.65-3.1-.74-3.12-.06 0-.21.01-.35.05m-5.71.84c-.15.11-1.35 3.25-1.27 3.32.01.02.25.05.53.06l.5.03.08-.42q.08-.42.24-.42c.12 0 .15.08.1.4-.03.22-.02.42.02.44.1.06.93-.14 1.05-.25.06-.05-.04-.73-.25-1.69-.33-1.57-.34-1.6-.6-1.6a1 1 0 0 0-.4.13m7.26 1.1a6 6 0 0 0 0 1.26c.04.12.02.28-.05.36a.7.7 0 0 0-.08.42c.03.27.06.28.83.4.44.05.83.09.88.06.04-.02.07-.35.07-.73v-.69l-.31.1-.32.08.07-.87c.04-.47.1-.99.13-1.14l.05-.28h-1.2zM4.5 7.74c-.4.15-.4.04-.1 1.71l.27 1.53c.07.37.05.37.6.16l.43-.17v-.7c0-.45-.1-1.06-.26-1.69-.3-1.06-.3-1.07-.94-.84m8.53.1c-1 .47-1.13 1.46-.25 1.83q.39.15.21.24a1 1 0 0 1-.37.09c-.2 0-.22.04-.22.65v.65h.43c.23 0 .7-.07 1.02-.15q1.27-.34 1.09-1.1c-.05-.21-.21-.34-.71-.56-.48-.22-.64-.33-.61-.46q.04-.18.3-.21c.27-.03.28-.05.28-.63V7.6h-.32c-.18 0-.56.11-.85.24m-4.76.33q-.46.08-.47.81c0 .24-.04.2-.27-.23l-.28-.53c-.02-.02-.29.02-.6.09l-.55.12v3.29l.38-.06c.71-.13.72-.14.72-.64v-.47l.34.57c.18.32.35.6.38.63.02.03.3 0 .61-.06.56-.12.57-.13.57-.45q0-.35-.15-.34c-.2 0-.19-.1.05-.7.14-.36.2-.74.2-1.3v-.8l-.32.02c-.18 0-.46.03-.61.05"/></svg>