<svg xmlns="http://www.w3.org/2000/svg" width="24" height="24"><path fill="#FFFFFF" fill-rule="evenodd" d="M19.62 7.52q-.26.29.07.48.5.25.51-.13c0-.24-.17-.47-.35-.47q-.1 0-.23.12m.78.08c-.15.27-.06.5.18.5.43 0 .57-.62.15-.68q-.22-.03-.33.18m-6.17.49q-.74.33-.73 1.27c0 .4.05.51.39.85s.44.39.86.39c.84 0 1.39-.54 1.37-1.37-.01-1-.95-1.58-1.89-1.14M3.43 9.25l-.41 1.25h.27c.25 0 .3-.06.46-.6.1-.34.21-.63.25-.65s.24.27.46.65c.21.39.41.7.44.7s.23-.32.45-.7.42-.7.45-.7.14.3.24.65c.17.6.2.65.47.65h.28l-.3-.87-.4-1.26c-.05-.2-.13-.37-.17-.37s-.27.36-.52.8-.47.8-.5.8-.25-.36-.5-.8-.47-.8-.5-.8-.24.56-.47 1.25M8 8.83l-.67 1.25-.25.42h.3q.31 0 .37-.2c.06-.17.15-.2.75-.2s.7.03.75.2q.05.2.36.2h.3l-.47-.87C8.63 8.1 8.56 8 8.5 8c-.03 0-.26.37-.5.83m2.4.41v1.26h.25c.24 0 .25-.02.25-.71 0-.83-.1-.85 1.14.2l.76.62V8h-.25c-.23 0-.24.03-.27.75l-.03.74-.84-.7-.92-.75a4 4 0 0 0-.09 1.2m6.4.01v1.25h.5v-2h.5c.93 0 1.13.75.26.98l-.25.07.37.47c.28.37.43.48.64.48.34 0 .34-.06.04-.43l-.23-.29.23-.23A.9.9 0 0 0 19 8.48c-.16-.3-.7-.48-1.49-.48h-.7zm2.8-.9c-.25.3.15.7.45.45a.5.5 0 0 0 .15-.36c0-.19-.05-.24-.24-.24-.13 0-.3.07-.36.15m.76-.06c-.08.12.1.61.23.61.24 0 .41-.14.41-.35 0-.3-.5-.5-.64-.26m-5.91.23c-.32.17-.45.4-.45.78 0 .57.56.99 1.07.8.37-.15.52-.39.53-.83 0-.66-.6-1.06-1.15-.75m-6.18.73c-.1.2-.17.38-.17.4s.18.05.4.05.4-.02.4-.05c0-.1-.34-.75-.4-.75-.03 0-.14.16-.23.35"/></svg>