<svg xmlns="http://www.w3.org/2000/svg" width="24" height="24"><path fill="#FFF" fill-rule="evenodd" d="M5 7.4v5.4h1.9V3.2l-.83-.53a15 15 0 0 0-.95-.6C5.03 2 5 3.1 5 7.38m13.08-4.8-.88.56v9.75H19V7.45c0-3-.01-5.45-.02-5.44-.02 0-.42.26-.9.57M7.3 8.14v4.66h1.8V4.55l-.82-.5-.9-.53a63 63 0 0 0-.08 4.62m8.5-4.1-.85.53v8.28h1.8l.03-4.67c.01-2.58-.01-4.68-.05-4.68-.05 0-.46.24-.93.54m-6.2 4.8v3.97l.93-.03.92-.03.03-3.33.02-3.32-.82-.53-.95-.6c-.1-.07-.13.74-.13 3.88m3.88-3.36-.88.56.03 3.4.02 3.4h1.8l.03-3.9c.01-2.14-.01-3.92-.05-3.95-.05-.04-.47.18-.95.49M5 15.3v.7h1.9v-1.4H5zm2.3 0v.7h1.8v-1.4H7.3zm2.3 0v.7l.93-.02.92-.03v-1.3l-.92-.03-.93-.03zm3 0v.7h1.9v-1.4h-1.9zm2.3 0v.7l.93-.02.92-.03v-1.3l-.92-.03-.93-.03zm2.3 0v.7H19v-1.4h-1.8z"/></svg>