<svg xmlns="http://www.w3.org/2000/svg" width="24" height="24"><path fill="#FFFFFF" fill-rule="evenodd" d="M13.12 7.52c-.15.15.03.38.3.38.23 0 .36-.29.17-.4q-.28-.2-.47.02M3 8.7v.9h.37c.2 0 .45-.07.55-.17.14-.13.34-.17.79-.15l.6.03-.03-.73c-.03-.78-.1-.87-.63-.74-.19.05-.24.14-.27.43q-.02.4-.2.41c-.14.03-.18-.03-.18-.27q0-.6-.66-.61H3zM5.65 8c-.22.24-.22.86 0 1.1.14.15.32.19 1.06.19h.89v-.63c0-.39-.05-.67-.12-.73s-.47-.1-.9-.11c-.62 0-.8.03-.93.18M8 7.98c-.3.25-.3.9 0 1.14.33.26 1.29.25 1.64-.03.27-.2.35-.62.15-.74q-.1-.08.1-.22c.35-.24.14-.33-.78-.33-.7 0-.93.04-1.1.18m2.41-.08c-.22.1-.42.46-.42.76 0 .08.11.26.25.4.2.2.34.24.83.24.76 0 1.06-.21 1.06-.74 0-.2-.07-.44-.17-.53-.2-.2-1.2-.28-1.55-.13m1.95-.03c-.04.03-.07.3-.07.6 0 .67.2.83 1.05.83.87 0 1.05-.15 1.05-.9v-.6h-.34c-.41 0-.54.14-.58.65-.04.52-.22.52-.26 0a1 1 0 0 0-.14-.52c-.11-.14-.6-.18-.71-.06m2.25.05c-.22.22-.14.48.13.48.22 0 .25.04.25.33 0 .18.05.38.12.45.16.16 1 .16 1.16 0 .18-.18.14-.38-.08-.38-.29 0-.27-.38.03-.42q.23-.01.25-.3l.03-.28h-.88c-.56 0-.93.04-1.01.12m2.13-.04c-.03.03-.05.36-.05.74v.7l.43-.04c.4-.03.42-.04.47-.43q.04-.4.22-.43c.15-.03.18.04.18.42v.46h.38c.5 0 .62-.14.62-.72 0-.65-.19-.76-1.32-.75-.48 0-.9.02-.93.05m2.68.02c-.58.24-.29.89.41.92.4.01.4.01-.09.07-.37.04-.5.1-.53.23-.03.16.05.18.7.18.83 0 1.13-.17 1.06-.62-.02-.2-.1-.24-.48-.29l-.45-.05.4-.05c.32-.03.4-.08.43-.26.03-.22 0-.23-.6-.22-.35 0-.73.04-.85.09m-13.07.56c-.08.21.1.45.3.37.2-.07.14-.47-.07-.5q-.17-.03-.23.13m-2.54 1.72.03.37h16.19l.07-.28.07-.27-.56-.02-.57-.01.6-.07.6-.07-.68-.01c-.6-.02-.68 0-.65.16.02.13.16.18.58.23l.55.06-.62.01c-.63.02-.68-.01-.64-.35.02-.1-1.54-.13-7.5-.13H3.8z"/></svg>