<svg xmlns="http://www.w3.org/2000/svg" width="24" height="24"><path fill="#FFFFFF" fill-rule="evenodd" d="M18.2 7.63c-.7.26-1.2.78-1.2 1.25 0 .24-.07.27-.3.12-.12-.08-.12-.11.03-.28.3-.33.2-.75-.24-.97-.21-.12-.7-.15-2.08-.15h-1.8l-.16.3c-.22.43-.33.45-.52.06l-.17-.36H10.3l.5.65c.54.68.55.79.12 1.18-.18.17-.2.15-.58-.83l-.39-1h-1.5l-.34.87c-.38.96-.4.96-.6-.2l-.13-.67H6.02l-.22.63c-.13.34-.26.66-.3.7s-.17-.24-.3-.63l-.25-.7h-.67c-.62 0-.68.02-.73.23l-.5 2.35c-.05.2-.02.22.54.22.67 0 .61.07.76-1.05l.07-.5.27.75.27.75.51.03.51.03.21-.63c.33-.98.38-1 .46-.14l.07.76h.94c.75 0 .96-.03 1-.15.08-.21 1-.21 1.08 0 .04.12.25.15.96.15h.9l.26-.4c.15-.22.28-.4.3-.4s.16.18.3.4l.27.41 2-.03 2-.03.28-.34c.23-.28.3-.31.35-.18.03.09.29.28.57.42.83.41 1.87.3 2.51-.25.83-.73.67-1.73-.36-2.26a3 3 0 0 0-1.89-.1m-4.76.74-.42.53.42.55.42.54.03-.55c.02-.3.02-.79 0-1.08l-.03-.51zm1.67.12c0 .21.33.28.59.11.2-.13.04-.31-.3-.31q-.31-.01-.29.2m3.5.03c-.31.16-.4.67-.14.88.21.17.87.18 1.08 0 .19-.16.21-.64.04-.79a1.1 1.1 0 0 0-.98-.1m-9.57.39c-.09.33-.08.42.03.46q.48.18.3-.46c-.05-.23-.13-.41-.16-.41s-.1.18-.17.4m6.07.6c0 .18.05.2.38.18q.37-.03.37-.18t-.37-.18c-.33-.03-.38 0-.38.18"/></svg>