<svg xmlns="http://www.w3.org/2000/svg" width="24" height="24"><path fill="#FFFFFF" fill-rule="evenodd" d="M3.05 7.32c-.03.08-.04.86-.03 1.73l.03 1.6h.7l.03-1.2.03-1.2.37 1.2c.37 1.18.38 1.2.67 1.2.28 0 .3-.03.65-1.12.2-.62.37-1.13.4-1.13s.05.5.05 1.13v1.12l.42.03.43.03V7.2H5.52l-.28.9q-.41 1.34-.45.68c0-.13-.1-.52-.22-.88l-.22-.65-.63-.03c-.45-.02-.64 0-.67.1m16.85.07c-.19.05-.26.14-.28.39q-.02.34-.22.32-.37 0-.26.46.07.23.26.24c.18 0 .2.07.2.75 0 .95.16 1.15.9 1.15h.5v-.35c0-.32-.02-.35-.3-.35-.3 0-.3 0-.3-.6 0-.53.02-.59.23-.62.17-.02.23-.1.25-.35.03-.3 0-.33-.22-.33-.24 0-.26-.04-.26-.4 0-.42-.04-.44-.5-.31m-12.15.83c-.24.13-.45.38-.45.54 0 .06.14.14.32.18.24.05.36.01.5-.14q.37-.38.58 0c.09.16.05.19-.42.25-.64.09-1.08.47-1.08.93 0 .58.85.93 1.37.57.19-.13.22-.13.27 0q.05.17.42.13l.37-.03L9.6 9.6c-.01-.99-.03-1.06-.27-1.27-.2-.18-.37-.23-.82-.23-.31 0-.66.06-.77.12m2.3.15c.1.14.26.41.37.6l.2.33-.41.65c-.23.35-.41.67-.41.7s.16.05.35.05c.3 0 .37-.05.57-.4.13-.22.25-.4.28-.4s.15.18.28.4c.21.37.26.4.67.4.25 0 .45-.03.45-.07s-.19-.35-.41-.7l-.42-.63.32-.5c.17-.29.31-.56.31-.6 0-.06-.14-.1-.3-.1-.23 0-.35.07-.48.3l-.19.3-.22-.3c-.18-.26-.28-.3-.67-.3h-.46zm2.62-.2c-.1.1-.08 2.26.02 2.41.05.08.22.12.42.1l.34-.03.05-.95c.04-.8.08-.95.22-.98q.39-.08.38 1.24v.74h.8l.02-.91c.02-.75.06-.94.2-1.03.29-.17.38.08.38 1.07v.88l.38-.03.37-.03.03-1.1c.03-1.02.01-1.11-.19-1.28-.26-.2-.87-.22-1.16-.02-.18.13-.22.13-.33 0-.14-.17-.72-.2-1-.05q-.2.1-.2 0c0-.11-.63-.14-.73-.03m4.63 0c-.23.08-.6.45-.6.59 0 .21.63.24.83.03q.3-.33.55-.07.25.27-.05.28c-.7 0-1.43.49-1.43.95 0 .6.85.97 1.37.6.19-.13.22-.13.27 0 .03.1.19.15.4.15H19V9.65c0-1-.02-1.07-.25-1.3-.2-.2-.34-.25-.77-.24-.3 0-.6.03-.68.06M8.28 9.61c-.21.12-.24.45-.04.52.18.07.42-.12.5-.4q.1-.25-.1-.23c-.1 0-.27.05-.37.1m9.4 0c-.21.13-.22.46-.02.54.18.06.55-.27.55-.49 0-.17-.27-.2-.52-.04"/></svg>