<?xml version="1.0" encoding="UTF-8" standalone="no"?>
<svg
   viewBox="0 0 24 24"
   width="24pt"
   height="24pt"
   version="1.1"
   id="svg1"
   sodipodi:docname="mcdonalds.svg"
   inkscape:version="1.4 (86a8ad7, 2024-10-11)"
   xmlns:inkscape="http://www.inkscape.org/namespaces/inkscape"
   xmlns:sodipodi="http://sodipodi.sourceforge.net/DTD/sodipodi-0.dtd"
   xmlns="http://www.w3.org/2000/svg"
   xmlns:svg="http://www.w3.org/2000/svg">
  <defs
     id="defs1" />
  <sodipodi:namedview
     id="namedview1"
     pagecolor="#ffffff"
     bordercolor="#000000"
     borderopacity="0.25"
     inkscape:showpageshadow="2"
     inkscape:pageopacity="0.0"
     inkscape:pagecheckerboard="0"
     inkscape:deskcolor="#d1d1d1"
     inkscape:document-units="pt"
     inkscape:zoom="23.09375"
     inkscape:cx="15.935047"
     inkscape:cy="16.021651"
     inkscape:window-width="1920"
     inkscape:window-height="974"
     inkscape:window-x="-11"
     inkscape:window-y="1609"
     inkscape:window-maximized="1"
     inkscape:current-layer="svg1" />
  <path
     fill="#FFFFFF"
     d="m 14.812339,4.7060532 c 1.103563,0 1.998726,4.6557943 1.998726,10.4056758 h 1.610346 c 0,-6.1903588 -1.624556,-11.2013772 -3.613806,-11.2013772 -1.13671,0 -2.140815,1.5014119 -2.803896,3.8600939 -0.663082,-2.358682 -1.667177,-3.8600939 -2.79442,-3.8600939 -1.9892575,0 -3.6090722,5.0062818 -3.6090722,11.1966412 H 7.210563 c 0,-5.749882 0.8856858,-10.4009398 1.9892511,-10.4009398 1.1035559,0 1.9987249,4.3005703 1.9987249,9.6052398 h 1.600871 c 0,-5.3046695 0.899896,-9.6052398 2.003461,-9.6052398"
     id="path2"
     style="stroke-width:0.0473631;fill:#ffdd55" />
  <path
     style="fill:#ffdd55;stroke-width:0.0433018"
     d="M 7.5050163,19.020298 C 7.6941593,11.548084 9.617499,5.6976731 12.027853,5.2627416 c 0.591531,-0.1067375 1.186674,0.1365421 1.782765,0.7287493 0.780785,0.7756969 1.441005,2.0408844 2.019165,3.8693459 0.08829,0.2792112 0.177317,0.4972762 0.197845,0.4845892 0.02053,-0.01269 0.03732,-0.05237 0.03732,-0.08818 0,-0.03581 0.09817,-0.3590708 0.218153,-0.7183481 0.868033,-2.5992061 1.953886,-4.0512795 3.198265,-4.2769286 0.973885,-0.1765989 2.002339,0.669863 2.840061,2.3374934 1.292144,2.5722313 2.058112,6.5862733 2.2124,11.5940463 l 0.02835,0.920162 h -1.058936 -1.058937 l -0.02835,-1.396482 C 22.271452,11.598372 21.132354,6.2647239 19.755028,6.2578205 19.254368,6.2553105 18.754419,6.9118404 18.33767,8.1190838 17.5996,10.257129 17.061224,14.507096 17.060949,18.197568 l -6.5e-5,0.876861 H 16 14.939107 l -2.41e-4,-0.833559 c -2.81e-4,-0.974 -0.05881,-2.340756 -0.152506,-3.561574 -0.390983,-5.0940909 -1.39181,-8.4221918 -2.532722,-8.4221918 -1.352598,0 -2.5111927,5.4003438 -2.6267474,12.2435728 l -0.027237,1.61299 H 8.5384968 7.47734 Z"
     id="path1"
     transform="scale(0.75)" />
  <path
     style="fill:#ffdd55;stroke-width:0.0433018"
     d="M 7.5048949,18.998647 C 7.6742054,12.143516 9.3504183,6.4889058 11.528864,5.4240108 c 0.533105,-0.2605989 1.004207,-0.2489655 1.591569,0.039302 0.412184,0.2022932 0.949873,0.7296822 1.339064,1.3134124 0.482057,0.7230177 1.021121,1.9337557 1.385817,3.1125469 0.07649,0.2472189 0.154691,0.4323339 0.173791,0.4113669 0.0191,-0.02097 0.107317,-0.271952 0.196038,-0.5577433 0.579948,-1.868156 1.444817,-3.3934522 2.284424,-4.0288471 0.946995,-0.7166641 1.808361,-0.6342007 2.698984,0.2583886 0.475928,0.4769795 0.74859,0.8821081 1.167884,1.7352758 1.029744,2.0952951 1.737616,5.186047 2.033056,8.876861 0.06246,0.780271 0.150837,2.674267 0.152046,3.258457 l 5.6e-4,0.270636 h -1.060893 -1.060893 l -2.7e-4,-0.660352 c -5.89e-4,-1.442899 -0.107166,-3.58832 -0.262969,-5.29364 C 21.728413,9.3584037 20.78262,6.2571042 19.75705,6.2571042 c -1.286293,0 -2.374765,4.1756448 -2.652572,10.1759138 -0.02371,0.512043 -0.04321,1.315832 -0.04334,1.786197 l -2.41e-4,0.85521 H 16 14.939107 l -2.84e-4,-0.811908 C 14.937764,15.238392 14.553709,11.559955 14.008153,9.3486756 13.644346,7.8740706 13.286232,7.0249783 12.838065,6.5743831 12.445306,6.1794949 12.151299,6.154171 11.793071,6.4843739 10.621046,7.5647084 9.7308365,12.519829 9.626509,18.543978 L 9.599325,20.113667 H 8.5383403 7.4773558 Z"
     id="path3"
     transform="scale(0.75)" />
  <path
     style="fill:#ffdd55;stroke-width:0.0433018"
     d="m 7.4916184,19.496617 c 0.00111,-1.661604 0.1943477,-4.031725 0.476412,-5.843491 0.8374388,-5.37907 2.6676266,-8.7417907 4.5696416,-8.3960934 1.079707,0.1962401 2.081392,1.390544 2.890748,3.446621 0.131249,0.3334235 0.310428,0.8373274 0.398176,1.1197865 0.08775,0.2824589 0.174466,0.4968029 0.192707,0.4763189 0.01824,-0.02048 0.0864,-0.212614 0.151457,-0.4269579 0.348881,-1.1494086 0.867448,-2.3115031 1.367451,-3.064425 0.377701,-0.5687563 0.673331,-0.8953316 1.049868,-1.1597633 0.675939,-0.4746935 1.259466,-0.5368716 1.936955,-0.2063934 0.355183,0.1732582 0.970271,0.7775235 1.29229,1.2695533 1.325507,2.0253117 2.262634,5.6641213 2.603942,10.1109603 0.0495,0.644971 0.130172,2.484153 0.130575,2.976996 l 2.56e-4,0.313938 H 23.498154 22.44421 L 22.41509,18.780771 C 22.256348,11.514874 21.129162,6.2571042 19.730206,6.2571042 c -0.602251,0 -1.246713,1.1202474 -1.713953,2.9793108 -0.559138,2.224706 -0.954236,5.94952 -0.955119,9.004451 l -2.41e-4,0.833559 H 16.00688 14.952866 l -0.02756,-1.35318 C 14.803693,11.750173 13.809563,6.989964 12.54841,6.3399132 c -0.08836,-0.045545 -0.212074,-0.082809 -0.274917,-0.082809 -1.374236,0 -2.5178383,5.3283468 -2.6463785,12.3301758 l -0.028022,1.526387 H 8.5451486 7.4912043 Z"
     id="path4"
     transform="scale(0.75)" />
  <path
     style="fill:#ffce08;stroke-width:0.0433018;fill-opacity:1"
     d="M 7.5050038,18.955345 C 7.6148578,14.343797 8.4271376,10.142233 9.7007025,7.5979668 10.920635,5.1608449 12.407434,4.5812542 13.815211,5.99403 c 0.766712,0.7694338 1.414791,1.995688 2.009893,3.802993 0.08822,0.26793 0.173409,0.486707 0.189302,0.486172 0.01589,-5.35e-4 0.103861,-0.239235 0.195487,-0.5304463 0.368987,-1.1727486 0.829402,-2.1931062 1.32916,-2.9456479 0.376881,-0.5675118 0.672714,-0.8942143 1.049026,-1.158488 0.690128,-0.4846576 1.318538,-0.5420051 1.997353,-0.1822743 0.306135,0.1622327 0.958593,0.8252672 1.246873,1.267085 1.31743,2.0190908 2.245321,5.6347615 2.589224,10.0893095 0.05406,0.700289 0.129185,2.383143 0.129991,2.912044 l 5.77e-4,0.37889 H 23.498099 22.4441 L 22.41427,18.809995 C 22.272071,12.595534 21.452571,7.8418796 20.307431,6.5889138 19.914011,6.1584501 19.57496,6.1551362 19.164154,6.5777392 18.13253,7.6389866 17.336425,11.481338 17.104273,16.519621 c -0.02359,0.512043 -0.04301,1.296347 -0.04314,1.742896 l -2.41e-4,0.811908 H 16.006985 14.953077 L 14.924596,17.74279 C 14.780568,11.008839 13.565285,6.0096655 12.13743,6.2775328 11.905123,6.3211138 11.577357,6.6759583 11.336353,7.1447903 10.374043,9.0167977 9.7318829,13.341519 9.6276601,18.652233 l -0.028681,1.461434 H 8.5381951 7.4774108 Z"
     id="path5"
     transform="scale(0.75)" />
</svg>
