<svg xmlns="http://www.w3.org/2000/svg" width="24" height="24"><path fill="#FFF" fill-rule="evenodd" d="M13.22 7.18c-.4.11-.54.2-.58.39q-.08.21-.24.23-.3.01-.3.56 0 .23.16.24c.13 0 .15.06.1.33-.04.17-.1.53-.13.8-.05.43-.03.49.3.82.3.3.41.35.85.35.47 0 .5-.01.56-.31.09-.45.08-.49-.12-.49q-.42 0-.41-.6c.02-.7.11-.85.54-.9.38-.05.4-.07.43-.42.03-.37.03-.38-.33-.38-.33 0-.35-.01-.3-.27l.1-.4c.05-.15.06-.15-.63.05m-9 .68c-.5.26-.7.64-.97 1.81-.14.6-.25 1.11-.25 1.16s.26.07.58.07h.59l.23-1.06c.23-1.05.4-1.33.7-1.14.1.07.1.25-.09 1.02-.11.5-.21.99-.21 1.06 0 .1.15.12.58.1l.57-.03.17-.85c.29-1.36.26-1.3.53-1.3q.26-.01.25.2c0 .19-.26 1.5-.36 1.83-.05.15.02.17.55.17.68 0 .6.12.86-1.18.26-1.25.2-1.64-.26-1.87-.4-.2-.93-.19-1.4.06-.39.2-.42.2-.6.03-.27-.24-1.06-.29-1.47-.08m5.45-.06a1.8 1.8 0 0 0-1.24 1.96c.1.87.85 1.32 2.02 1.2.65-.07.77-.15.94-.64.1-.3.09-.33-.07-.27-.73.3-1.51.24-1.72-.15-.2-.37-.13-.4 1.06-.4h1.17l-.05-.5c-.1-.98-1.05-1.52-2.11-1.2m9.22 0c-.95.28-1.5.93-1.5 1.75q-.02.9.77 1.25c1.23.6 2.84-.4 2.84-1.76 0-.93-1.07-1.56-2.1-1.25m-3.94.24-.53 2.65c-.05.2-.02.22.55.22.67 0 .6.1.82-1.02.13-.68.4-.94 1.05-1.04.46-.06.47-.08.6-.71.07-.33.06-.33-.32-.33-.2 0-.5.07-.67.15-.35.18-.36.18-.36 0 0-.12-.13-.15-.55-.15-.49 0-.55.02-.6.23m-5.15.62-.23.25h.61c.66 0 .68 0 .52-.3-.15-.28-.61-.26-.9.05m9.05.09c-.2.2-.25.35-.25.74 0 .53.12.72.47.72.47 0 .87-.82.67-1.39-.13-.37-.56-.4-.89-.07"/></svg>