<svg xmlns="http://www.w3.org/2000/svg" width="24" height="24"><path fill="#FFF" fill-rule="evenodd" d="M4.15 7.62c-.03.08-.04.7-.03 1.39l.03 1.24h.35c.33 0 .35-.02.38-.35.02-.2.09-.38.15-.42q.13-.09 0-.08c-.07 0-.13-.12-.13-.26 0-.25 0-.25.29-.08.27.16.3.16.77-.1.86-.47.96-.58.92-.99l-.03-.37-.67.41-.68.41-.52-.33c-.3-.18-.58-.4-.65-.47-.1-.13-.13-.13-.18 0m3.78.14c-.02.05-.02.64 0 1.3l.02 1.19h2.1l.03-.32.03-.33H8.7V8.31l.68-.03c.65-.03.67-.04.7-.3.04-.32.1-.3-1.17-.32-.57 0-.95.03-.98.1m3.01-.07a1 1 0 0 0-.04.33v.28h2.4V8c0-.24-.04-.3-.22-.31a20 20 0 0 0-2.14 0m3.34-.02c-.16.04-.18.19-.18 1.32v1.27h.35l.35.02V9.7l.03-1.28c.02-.82-.03-.9-.55-.76m.79 0c-.04.03-.07.19-.07.34 0 .22.06.29.3.34.42.1.4.48-.03.53q-.53.08-.02.96c.24.41.27.43.68.4.23 0 .43-.02.45-.03s-.08-.16-.22-.34c-.32-.42-.32-.48-.01-.77.49-.46.16-1.4-.49-1.4-.13 0-.3-.02-.38-.05q-.13-.04-.21.01m2.83.12c-.38.19-.75.74-.66.97.09.24.61.19.8-.09.24-.37.65-.4.97-.05q.27.3.6.29c.29 0 .3-.02.25-.26q-.16-.62-.7-.88c-.44-.2-.83-.2-1.26.02m-6.2 1.56c0 .89.03.95.5.92.24-.01.25-.03.28-.88l.03-.88h-.81zm-2.75-.66c-.03.03-.05.18-.05.34 0 .27.02.28.5.28h.5v-.33c0-.33 0-.34-.45-.34-.25 0-.47.03-.5.05m-2.58.25c-.26.2-.28.27-.25.77l.03.55h.7l.03-.78c.03-.86-.03-.93-.51-.54m10.83.22c0 .22.25.68.46.85.31.27.83.39 1.2.28.5-.13.94-.56.97-.93.02-.26-.02-.3-.26-.33-.2-.03-.35.05-.56.27q-.28.3-.5.24c-.11-.03-.21-.1-.21-.15q0-.08-.1-.03-.1.03-.2-.15c-.14-.25-.8-.3-.8-.04"/></svg>