<svg xmlns="http://www.w3.org/2000/svg" width="24" height="24"><path fill="#FFF" fill-rule="evenodd" d="M16.53 6.51c-.97.28-.97 1.67 0 1.98.17.06.59.09.92.06l.6-.04.03-.55.03-.56h-.55c-.5 0-.56.02-.56.2q.01.18.13.18.1-.01.12.17c0 .23-.3.32-.5.15-.19-.16-.2-.9-.02-1.14.14-.19.38-.19.93-.01q.21.08.28-.1t-.29-.3c-.38-.17-.65-.18-1.12-.04m3.1-.04c-.1.04-.79 1.24-1.11 1.96q-.01.06.21.07c.14 0 .27-.07.3-.15q.06-.15.52-.15t.51.15.5.15c.24 0 .44-.02.44-.05 0-.13-.94-1.9-1.04-1.97-.12-.09-.15-.09-.34-.01M3 7.55c0 .97.01 1.05.2 1.05.23 0 .34-.3.25-.77q-.11-.68.41.27c.15.28.33.5.4.5.06 0 .27-.26.46-.57l.33-.58.05.55.05.55h.7l.03-1.03.03-1.02h-.4c-.37 0-.43.04-.66.4a2 2 0 0 0-.25.5c0 .24-.19.07-.44-.4-.26-.48-.29-.5-.72-.5H3zm3.57-.98a7 7 0 0 0-.02 1.76c.06.23.13.27.41.27.38 0 .34.14.37-1.35l.02-.7-.37-.03c-.2-.02-.38 0-.4.05m1.44.96.03 1.02.7.03c.82.04 1.15-.03 1.15-.23 0-.11-.13-.15-.55-.15H8.8V6.5H8zm2.71-.11c-.26.51-.5.96-.5 1-.1.17.3.15.45-.02.23-.28.97-.28 1.12 0q.09.2.45.2c.18 0 .36-.04.39-.08.03-.05-.16-.51-.43-1.03-.4-.79-.52-.95-.74-.97-.24-.03-.3.05-.74.9m2.47.06c0 1.03.03 1.14.26 1.05.1-.04.14-.23.14-.66v-.6l.7.67c.91.88 1.02.83.98-.48-.03-.86-.04-.91-.25-.94s-.23 0-.23.4v.42l-.43-.42c-.35-.34-.5-.42-.8-.42h-.37zm-5.35 2c-.33.07-.45.23-.45.58q0 .33-.18.38c-.28.1-.49.53-.36.74.2.33.55.41 1.48.37.49-.03.91-.07.94-.1s-.03-.14-.13-.25c-.17-.2-.17-.2 0-.4.24-.27.08-.47-.25-.3-.16.09-.25.09-.36 0-.12-.11-.12-.15.06-.27.29-.2.26-.57-.05-.71-.27-.12-.36-.13-.7-.05m3.65 0q-.9.3-.9 1.13c0 .72 1.03 1.2 1.85.86.36-.16.38-.18.22-.33-.13-.13-.2-.15-.29-.05-.15.15-.7.16-.86 0-.07-.07-.12-.31-.12-.54q0-.83.64-.69c.5.12.69.1.73-.03.09-.24-.83-.5-1.27-.35m2.25.06q-.7.31-.68.97c0 .79.8 1.25 1.74 1 .86-.23 1.06-1.37.33-1.85a1.8 1.8 0 0 0-1.39-.12m.26.41c-.07.08-.1.37-.1.68l.04.53h.7l.03-.6c.03-.6-.05-.75-.4-.75a.4.4 0 0 0-.27.14m1.92 1.12c-.07.2.08.48.29.52.08.02.25-.06.39-.16.2-.17.21-.22.1-.36-.18-.21-.7-.21-.78 0"/></svg>