<?xml version="1.0" encoding="UTF-8" standalone="no"?>
<svg
   viewBox="0 0 24 24"
   width="24pt"
   height="24pt"
   version="1.1"
   id="svg1"
   sodipodi:docname="mizzoni.svg"
   xml:space="preserve"
   inkscape:version="1.4 (86a8ad7, 2024-10-11)"
   xmlns:inkscape="http://www.inkscape.org/namespaces/inkscape"
   xmlns:sodipodi="http://sodipodi.sourceforge.net/DTD/sodipodi-0.dtd"
   xmlns="http://www.w3.org/2000/svg"
   xmlns:svg="http://www.w3.org/2000/svg"><defs
     id="defs1" /><sodipodi:namedview
     id="namedview1"
     pagecolor="#505050"
     bordercolor="#eeeeee"
     borderopacity="1"
     inkscape:showpageshadow="0"
     inkscape:pageopacity="0"
     inkscape:pagecheckerboard="0"
     inkscape:deskcolor="#505050"
     inkscape:document-units="pt"
     inkscape:zoom="23.688077"
     inkscape:cx="17.561577"
     inkscape:cy="9.772849"
     inkscape:window-width="2400"
     inkscape:window-height="1261"
     inkscape:window-x="2391"
     inkscape:window-y="-9"
     inkscape:window-maximized="1"
     inkscape:current-layer="g1" /><g
     id="g1"
     transform="matrix(0.02290268,0,0,0.02290268,0.27250043,-1.6348584)"
     style="fill:#f9f9f9"><path
       d="m 774.581,333.014 c -5.306,2.072 -10.491,6.515 -13.767,11.798 l -2.054,3.312 -2.13,-2 c -5.935,-5.571 -18.6,-7.835 -26.162,-4.675 -12.365,5.166 -18.727,19.147 -14.517,31.901 1.11,3.365 1.007,3.911 -1.246,6.588 -1.35,1.606 -2.764,4.639 -3.141,6.741 -0.378,2.101 -1.154,5.611 -1.725,7.799 l -1.039,3.978 -1.916,-3.941 C 700.556,381.507 685.932,377.05 670,383.275 c -3.575,1.397 -12.8,3.546 -20.5,4.776 -21.871,3.495 -21.731,3.369 -26.046,23.3 l -1.7,7.852 -1.606,-3.352 c -2.313,-4.825 -9.899,-12.064 -15.282,-14.583 -2.548,-1.193 -7.498,-2.662 -11,-3.264 -13.162,-2.263 -30.533,3.877 -41.636,14.717 l -5.415,5.286 -4.521,-3.979 c -4.459,-3.926 -9.662,-5.794 -13.056,-4.689 -0.956,0.311 -4.213,1.48 -7.238,2.596 -4.661,1.72 -6.95,1.939 -15,1.436 -18.703,-1.169 -30.391,3.382 -38.66,15.056 l -2.073,2.926 -4.596,-3.767 c -6.012,-4.926 -10.731,-5.632 -16.748,-2.505 -4.008,2.083 -5.876,2.314 -19.923,2.455 -17.102,0.173 -20.769,1.02 -28.512,6.58 -4.42,3.175 -8.267,7.954 -10.594,13.162 -0.842,1.886 -1.484,2.386 -1.997,1.556 -0.419,-0.679 0.041,-2.361 1.035,-3.779 4.556,-6.502 5.563,-16.904 2.338,-24.15 -3.848,-8.647 -11.642,-13.968 -21.554,-14.715 -7.563,-0.569 -13.755,1.797 -19.355,7.396 l -4.286,4.286 -3.288,-3.075 c -10.255,-9.596 -26.387,-9.073 -42.203,1.368 l -5.917,3.905 -3.583,-1.743 c -1.971,-0.959 -6.734,-1.918 -10.584,-2.132 -8.54,-0.474 -15.795,1.808 -25.167,7.914 l -6.388,4.162 -7.057,-3.253 c -5.029,-2.318 -7.965,-3.105 -10.222,-2.738 -3.571,0.579 -35.837,18.202 -48.422,26.446 -21.779,14.267 -31.6,31.758 -28.411,50.6 3.467,20.48 19.378,34.674 38.868,34.674 5.027,0 5.306,0.131 4.801,2.25 -2.29,9.602 -5.502,26.502 -5.502,28.949 0,6.292 5.71,11.801 12.229,11.801 5.73,0 25.933,-3.983 28.803,-5.678 1.483,-0.876 3.466,-2.895 4.405,-4.485 l 1.709,-2.892 3.004,2.527 c 3.691,3.106 6.783,3.194 21.616,0.612 11.239,-1.956 16.902,-4.057 17.892,-6.636 0.954,-2.485 1.979,-1.607 3.27,2.802 3.886,13.265 15.065,23 31.411,27.352 9.714,2.587 15.367,1.87 84.53,-10.719 9.002,-1.638 16.518,-2.83 16.7,-2.647 0.182,0.182 -0.306,3.241 -1.086,6.798 -0.779,3.556 -4.376,20.416 -7.993,37.466 -3.617,17.05 -7.925,37.238 -9.574,44.862 -3.39,15.682 -3.107,18.616 2.228,23.106 4.233,3.561 6.23,3.829 15.863,2.124 20.776,-3.678 22.661,-4.374 24.843,-9.163 0.989,-2.17 5.389,-20.799 6.358,-26.916 0.29,-1.831 1.171,-1.998 11.303,-2.136 14.189,-0.193 24.125,-3.211 35.382,-10.746 l 7.89,-5.281 4.358,2.575 c 3.862,2.281 5.446,2.575 13.88,2.575 8.689,0 10.089,-0.279 16.017,-3.198 3.572,-1.758 8.67,-5.282 11.329,-7.829 l 4.834,-4.632 2.15,1.962 c 6.793,6.204 13.23,6.377 19.701,0.531 l 3.933,-3.553 7.057,1.729 c 10.677,2.617 22.591,1.79 30.975,-2.15 3.566,-1.675 8.716,-5.075 11.444,-7.556 l 4.962,-4.51 3.938,2.853 c 3.042,2.203 5.043,2.853 8.786,2.853 4.171,0 5.41,-0.508 8.879,-3.643 l 4.032,-3.642 7.552,1.778 c 15.288,3.601 30.04,0.413 40.837,-8.824 l 3.948,-3.378 5.552,2.577 c 9.697,4.498 21.274,3.213 31.194,-3.463 3.385,-2.278 6.018,-3.371 7.322,-3.041 10.548,2.673 12.134,2.833 18.16,1.834 11.385,-1.886 21.607,-8.451 29.86,-19.176 8.79,-11.423 18.517,-32.559 18.517,-40.236 0,-10.049 -12.672,-18.571 -24.356,-16.379 l -3.37,0.632 2.469,-12.049 c 2.937,-14.336 2.592,-17.61 -2.309,-21.914 -4.426,-3.886 -8.496,-3.969 -24.434,-0.499 -7.379,1.607 -15.262,2.581 -22,2.719 -9.449,0.192 -11.15,0.525 -17,3.324 -4.104,1.964 -8.616,5.264 -12.239,8.952 l -5.738,5.842 -3.262,-3.087 c -6.308,-5.972 -10.337,-6.682 -17.761,-3.13 -3.93,1.88 -6.4,2.172 -19.5,2.305 -12.859,0.132 -15.806,0.468 -20.647,2.359 -6.072,2.372 -13.517,8.275 -15.788,12.518 -1.767,3.302 -3.09,3.3 -6.141,-0.008 -2.736,-2.967 -7.729,-5.371 -11.157,-5.371 -1.263,0 -4.09,0.988 -6.282,2.195 -3.57,1.966 -5.601,2.213 -19.485,2.374 -8.525,0.099 -17,0.665 -18.834,1.259 -8.633,2.797 -16.013,9.123 -20.356,17.45 -1.644,3.152 -2.302,3.759 -2.594,2.398 -0.215,-1.004 0.276,-2.579 1.092,-3.5 1.926,-2.175 4.692,-10.46 4.692,-14.052 0,-4.405 -2.589,-11.896 -5.372,-15.546 -3.074,-4.029 -2.378,-5.248 1.443,-2.527 5.403,3.847 11.003,5.249 20.929,5.24 13.553,-0.012 23.524,-3.954 33.242,-13.143 l 3.742,-3.538 2.833,2.715 c 5.16,4.944 6.802,4.953 32.904,0.184 6.93,-1.266 9.868,-5.546 12.324,-17.949 1.175,-5.938 1.176,-5.939 2.415,-3 3.509,8.324 12.265,14.407 21.845,15.176 10.397,0.835 19.929,-2.568 31.245,-11.156 0.781,-0.592 2.593,-0.253 5.082,0.952 8.982,4.346 23.883,2.338 33.928,-4.573 10.088,-6.941 19.928,-20.961 27.539,-39.238 4.357,-10.464 4.843,-15.664 1.912,-20.471 -1.109,-1.819 -1.499,-3.25 -0.885,-3.25 1.869,0 10.259,-7.576 15.936,-14.391 l 5.416,-6.501 2.593,5.696 c 1.426,3.133 3.35,6.319 4.276,7.081 1.535,1.263 1.26,1.792 -3.114,6 -7.021,6.755 -9.56,12.748 -9.579,22.615 -0.031,16.062 8.268,26.998 23.582,31.075 18.045,4.804 42.458,-5.374 50.935,-21.236 7.408,-13.86 5.969,-31.206 -3.68,-44.351 -3.431,-4.674 -3.6,-5.21 -2.146,-6.817 2.986,-3.299 4.655,-9.045 4.655,-16.025 0,-22.794 -23.655,-32.627 -48.484,-20.154 l -7.303,3.669 -0.617,-4.581 c -2.491,-18.497 -20.298,-29.593 -37.015,-23.066 m 8.669,11.718 c -2.337,0.211 -4.25,0.807 -4.25,1.325 0,0.519 -0.45,0.943 -1,0.943 -2.6,0 -7.007,6.774 -6.985,10.736 0.023,4.22 2.598,10.725 4.389,11.087 0.878,0.178 1.596,0.697 1.596,1.152 0,0.456 1.35,1.3 3,1.875 1.65,0.575 3,1.443 3,1.929 0,4.01 -11.403,19.664 -13.687,18.788 -0.818,-0.314 -1.313,0.26 -1.313,1.523 0,1.116 0.39,1.787 0.866,1.493 0.996,-0.616 3.525,2.06 4.478,4.738 0.62,1.744 0.765,1.738 3.404,-0.141 2.616,-1.863 9.073,-9.058 12.194,-13.587 0.793,-1.151 1.747,-2.318 2.119,-2.593 1.05,-0.776 5.728,-10.366 7.404,-15.176 2.046,-5.876 1.913,-10.666 -0.432,-15.519 -2.061,-4.266 -7.354,-9.429 -9.36,-9.13 -0.645,0.096 -3.086,0.347 -5.423,0.557 M 736,353.5 c 0,0.825 -0.594,1.5 -1.32,1.5 -0.725,0 -2.3,1.128 -3.5,2.508 -3.119,3.587 -3.024,11.008 0.188,14.742 1.3,1.512 2.837,2.75 3.415,2.75 0.578,0 1.2,0.409 1.384,0.908 0.183,0.5 1.008,1.003 1.833,1.119 3.939,0.552 6.31,-0.313 9.997,-3.643 3.632,-3.282 4.003,-4.07 4.003,-8.509 0,-3.884 -0.549,-5.509 -2.665,-7.884 -1.466,-1.645 -3.266,-2.991 -4,-2.991 -0.734,0 -1.335,-0.45 -1.335,-1 0,-0.55 -1.8,-1 -4,-1 -2.889,0 -4,0.417 -4,1.5 m 100.25,11.223 c -1.788,0.222 -3.25,0.825 -3.25,1.34 0,0.516 -1.35,0.937 -3,0.937 -1.65,0 -3,0.408 -3,0.906 0,0.499 -1.013,0.685 -2.25,0.414 -1.575,-0.346 -1.857,-0.214 -0.94,0.439 1.004,0.715 0.654,1.356 -1.5,2.744 -1.546,0.997 -3.2,2.47 -3.677,3.274 -0.727,1.228 -1.019,1.243 -1.815,0.093 -0.657,-0.948 -0.742,-0.638 -0.276,1.005 0.412,1.456 0.292,2.141 -0.309,1.769 -0.562,-0.348 -1.258,1.484 -1.631,4.298 -0.713,5.379 0.165,13.058 1.494,13.058 0.463,0 0.58,0.68 0.261,1.511 -0.432,1.126 -0.124,1.337 1.205,0.827 1.392,-0.534 1.642,-0.311 1.134,1.012 -0.567,1.477 -0.363,1.543 1.577,0.509 2.085,-1.111 2.131,-1.069 0.727,0.651 -1.381,1.692 -1.328,1.793 0.675,1.277 1.583,-0.408 2.03,-0.183 1.643,0.826 -0.293,0.763 -0.113,1.387 0.399,1.387 0.512,0 2.698,1.792 4.857,3.983 2.159,2.191 4.41,3.991 5.002,4 0.591,0.009 2.166,1.215 3.5,2.678 1.333,1.464 1.792,2.294 1.019,1.846 -0.945,-0.549 -1.171,-0.438 -0.69,0.338 0.392,0.635 1.252,1.155 1.91,1.155 0.658,0 1.786,1.462 2.506,3.25 0.721,1.788 1.731,4.031 2.244,4.986 2.58,4.793 -0.098,14.228 -5.036,17.743 -2.505,1.784 -3.816,2.031 -7.771,1.464 -5.499,-0.788 -8.736,-3.333 -10.312,-8.106 -1.81,-5.485 1.544,-9.86 10.554,-13.767 1.423,-0.617 -4.105,-5.433 -7.099,-6.184 -1.77,-0.445 -2.885,-0.106 -3.808,1.155 -0.789,1.08 -1.953,1.535 -2.948,1.153 -0.905,-0.347 -1.645,-0.258 -1.645,0.198 0,0.455 -1.533,2.454 -3.408,4.441 -5,5.302 -5.899,15.156 -1.938,21.247 0.744,1.144 1.062,2.371 0.706,2.726 -0.355,0.356 0.206,0.964 1.247,1.35 1.041,0.387 3.578,1.806 5.637,3.153 3.364,2.2 4.533,2.403 11.52,1.999 20.42,-1.183 34.556,-16.12 31.188,-32.956 -2.156,-10.775 -5.412,-15.111 -17.266,-22.997 C 831.031,389.436 828,385.913 828,379.619 828,374.31 832.56,370 838.179,370 c 6.353,0 8.821,2.091 8.821,7.475 0,5.037 -0.821,7.753 -2.105,6.96 -0.492,-0.304 -0.895,0.122 -0.895,0.947 0,2.136 2.061,3.131 3.096,1.496 0.633,-0.998 0.878,-1.033 0.889,-0.128 0.025,2.069 1.998,1.421 5.092,-1.673 5.69,-5.69 2.813,-16.84 -5.077,-19.669 -3.55,-1.274 -5.9,-1.411 -11.75,-0.685 M 738.638,385.5 c -0.406,1.058 -2.057,1.5 -5.607,1.5 -2.767,0 -5.031,0.45 -5.031,1 0,0.55 0.563,1.007 1.25,1.015 0.865,0.011 0.911,0.242 0.15,0.75 -0.605,0.404 -1.398,1.41 -1.761,2.235 -0.373,0.846 -0.479,0.519 -0.244,-0.75 0.256,-1.378 -0.078,-2.25 -0.861,-2.25 -0.721,0 -1.561,1.765 -1.926,4.047 -0.424,2.656 -1.037,3.806 -1.782,3.346 -0.718,-0.444 -0.858,-0.254 -0.381,0.517 0.414,0.671 0.43,2.878 0.035,4.905 -0.625,3.202 -0.836,3.423 -1.614,1.685 -0.593,-1.327 -0.706,-0.204 -0.334,3.337 0.377,3.589 0.217,5.126 -0.486,4.691 -0.675,-0.417 -1.046,1.134 -1.046,4.374 0,2.79 -0.569,5.55 -1.281,6.216 -0.715,0.668 -1.114,2.621 -0.904,4.421 0.207,1.774 -0.117,3.529 -0.719,3.902 -0.603,0.372 -1.096,1.537 -1.096,2.588 0,1.05 -0.9,3.513 -2,5.471 -1.1,1.958 -2,4.222 -2,5.03 0,0.809 -0.398,1.47 -0.883,1.47 -0.486,0 -1.131,0.945 -1.433,2.101 -0.302,1.155 -1.025,1.807 -1.605,1.448 -0.635,-0.393 -0.826,-0.053 -0.479,0.851 0.847,2.208 -0.593,4.184 -1.791,2.457 -0.643,-0.929 -0.728,-0.607 -0.267,1.018 0.457,1.616 0.318,2.157 -0.435,1.691 -0.649,-0.401 -1.107,0.042 -1.107,1.07 0,2.44 -4.942,7.357 -7.437,7.399 -1.902,0.033 -1.868,0.155 0.437,1.57 1.398,0.857 1.688,1.28 0.657,0.96 -1.013,-0.316 -2.883,-0.835 -4.155,-1.154 -5.027,-1.262 -4.735,-6.856 1.979,-37.889 3.5,-16.176 3.199,-24.372 -1.081,-29.459 -2.87,-3.41 -8.648,-5.014 -11.546,-3.204 -1.005,0.627 -2.958,1.141 -4.34,1.141 -1.383,0 -2.514,0.45 -2.514,1 0,0.55 -0.9,1 -2,1 -1.1,0 -2,0.45 -2,1 0,0.55 -0.927,1 -2.059,1 -1.317,0 -1.799,0.421 -1.336,1.17 0.491,0.794 0.171,0.958 -0.993,0.511 -0.944,-0.362 -1.484,-0.282 -1.199,0.177 0.284,0.46 -0.775,2.073 -2.353,3.585 -1.644,1.575 -2.843,2.174 -2.807,1.403 0.24,-5.18 -0.016,-5.412 -6.165,-5.582 -4.487,-0.125 -6.054,0.204 -6.498,1.362 -0.426,1.11 -1.749,1.446 -4.838,1.231 -3.907,-0.273 -4.226,-0.114 -3.934,1.952 0.175,1.238 -0.125,3.699 -0.666,5.47 -0.541,1.772 -1.269,4.921 -1.618,6.999 -0.349,2.078 -0.95,3.583 -1.335,3.345 -0.384,-0.237 -0.772,1.213 -0.862,3.222 -0.145,3.267 -0.716,6.603 -2.851,16.655 -0.35,1.65 -1.007,3.9 -1.459,5 -2.914,7.083 -4.348,9.686 -5.603,10.167 -0.783,0.301 -1.424,1.093 -1.424,1.76 0,1.638 -4.636,5.573 -6.567,5.573 -0.853,0 -1.273,0.45 -0.933,1 0.749,1.211 -1.483,1.297 -3.328,0.128 -1.098,-0.696 -1.054,-2.426 0.25,-9.986 1.893,-10.969 1.926,-14.894 0.186,-22.142 -3.573,-14.888 -11.068,-21.454 -24.523,-21.484 -5.055,-0.011 -7.548,0.382 -7.834,1.234 -0.23,0.688 -1.73,1.25 -3.334,1.25 -1.604,0 -2.917,0.45 -2.917,1 0,0.55 -0.9,1 -2,1 -1.1,0 -2,0.48 -2,1.067 0,0.628 -0.927,0.807 -2.25,0.435 -1.461,-0.411 -1.801,-0.32 -0.97,0.26 0.957,0.668 0.476,1.504 -1.906,3.316 -1.753,1.332 -3.6,2.298 -4.105,2.147 -0.505,-0.151 -0.633,0.187 -0.284,0.75 0.348,0.564 0.156,1.025 -0.426,1.025 -0.582,0 -1.059,0.675 -1.059,1.5 0,0.825 -0.45,1.5 -1,1.5 -0.55,0 -1,0.675 -1,1.5 0,0.825 -0.45,1.5 -1,1.5 -0.55,0 -1,0.702 -1,1.559 0,0.857 -0.375,1.327 -0.833,1.044 -0.459,-0.283 -0.834,0.086 -0.834,0.821 0,0.734 -0.903,3.302 -2.007,5.706 -2.066,4.496 -3.719,10.362 -4.894,17.37 -0.571,3.405 -0.805,3.703 -1.57,2 -0.664,-1.478 -0.78,-1.021 -0.443,1.75 0.25,2.063 0.034,3.75 -0.482,3.75 -0.515,0 -0.937,0.906 -0.937,2.014 0,1.795 -1.653,5.641 -3.002,6.986 -0.275,0.275 -1.139,1.738 -1.919,3.25 -0.779,1.512 -1.989,2.75 -2.689,2.75 -0.7,0 -1.593,0.52 -1.985,1.155 -0.481,0.776 -0.255,0.887 0.69,0.338 0.773,-0.448 0.302,0.395 -1.047,1.875 -1.349,1.48 -3.036,2.467 -3.75,2.193 -0.714,-0.274 -1.298,0.156 -1.298,0.955 0,1.177 -1.19,1.345 -6.25,0.886 -3.437,-0.311 -7.375,-0.951 -8.75,-1.422 -1.375,-0.47 -3.962,-1.144 -5.75,-1.497 -1.788,-0.353 -3.25,-1.193 -3.25,-1.865 0,-1.302 5.944,-9.89 7.234,-10.451 0.421,-0.184 0.766,-0.778 0.766,-1.322 0,-0.543 0.563,-1.615 1.25,-2.382 1.867,-2.082 2.826,-3.333 8.211,-10.713 2.709,-3.712 5.288,-6.75 5.732,-6.75 0.444,0 0.807,-0.503 0.807,-1.118 0,-1.216 10.926,-16.172 12.211,-16.715 1.516,-0.641 0.761,-2.068 -2.961,-5.595 -3.731,-3.537 -6.571,-4.479 -7.75,-2.572 -0.34,0.55 -1.69,1 -3,1 -1.31,0 -2.658,0.447 -2.995,0.992 -0.372,0.603 -6.953,0.922 -16.747,0.813 -11.7,-0.13 -16.242,0.147 -16.529,1.008 -0.218,0.653 -1.258,1.187 -2.312,1.187 -1.054,0 -1.917,0.394 -1.917,0.875 0,0.481 -1.35,1.145 -3,1.475 -1.65,0.33 -3,1.116 -3,1.747 0,0.773 0.542,0.7 1.661,-0.225 1.514,-1.251 1.541,-1.18 0.3,0.813 -0.749,1.202 -1.721,1.963 -2.161,1.691 -0.44,-0.272 -0.8,0.194 -0.8,1.035 0,0.84 -0.9,3.131 -2,5.089 -1.1,1.958 -2,4.421 -2,5.471 0,1.051 -0.45,2.189 -1,2.529 -0.55,0.34 -1,1.69 -1,3 0,1.31 -0.45,2.66 -1,3 -0.55,0.34 -1,1.699 -1,3.02 0,1.32 -0.607,2.968 -1.349,3.661 -0.742,0.693 -1.138,2.063 -0.882,3.045 0.257,0.981 0.026,2.345 -0.513,3.029 -0.539,0.685 -1.298,2.572 -1.687,4.193 -0.564,2.352 -0.911,2.655 -1.719,1.5 -0.745,-1.066 -0.854,-0.723 -0.412,1.302 0.348,1.593 0.172,2.75 -0.419,2.75 -0.56,0 -1.019,0.857 -1.019,1.905 0,2.539 -3.863,9.707 -7.118,13.209 -1.441,1.548 -2.341,3.128 -2,3.51 0.34,0.382 -0.164,0.414 -1.12,0.071 -1.082,-0.388 -1.648,-0.165 -1.5,0.591 0.131,0.668 -0.55,1.151 -1.512,1.075 -0.963,-0.076 -1.75,0.486 -1.75,1.25 0,0.94 -1.211,1.385 -3.75,1.377 -4.362,-0.014 -19.135,-3.473 -20.45,-4.788 -0.53,-0.53 0.967,-3.186 3.651,-6.481 2.502,-3.071 4.549,-6.027 4.549,-6.568 0,-0.541 0.338,-1.134 0.75,-1.318 0.413,-0.183 3.283,-3.734 6.379,-7.89 3.096,-4.157 6.358,-8.287 7.25,-9.179 0.891,-0.892 1.621,-1.901 1.621,-2.243 0,-0.343 2.605,-4.087 5.788,-8.322 3.183,-4.234 6.112,-8.224 6.508,-8.866 0.427,-0.692 -1.014,-2.826 -3.538,-5.24 -4.397,-4.204 -6.758,-5.14 -6.758,-2.676 0,0.779 0.563,1.629 1.25,1.888 0.688,0.259 -0.662,0.237 -3,-0.049 -2.704,-0.33 -4.25,-0.125 -4.25,0.564 0,0.736 -5.185,1.054 -16.204,0.993 -11.301,-0.063 -16.318,0.254 -16.583,1.048 -0.209,0.627 -1.467,1.139 -2.796,1.139 -1.329,0 -2.417,0.399 -2.417,0.886 0,0.487 -1.575,1.634 -3.5,2.547 -2.104,0.998 -3.5,2.385 -3.5,3.476 0,0.998 -1.35,4.792 -3,8.431 -1.65,3.639 -3,7.499 -3,8.579 0,1.08 -0.45,2.241 -1,2.581 -0.55,0.34 -1,1.498 -1,2.573 0,1.075 -0.413,2.736 -0.917,3.691 -0.504,0.955 -1.686,4.371 -2.626,7.591 -1.246,4.27 -1.968,5.488 -2.664,4.5 -0.659,-0.935 -0.769,-0.502 -0.355,1.395 0.348,1.593 0.172,2.75 -0.419,2.75 -0.56,0 -1.019,0.905 -1.019,2.011 0,4.128 -8.419,19.466 -10.111,18.421 -0.476,-0.295 -0.591,0.181 -0.255,1.057 0.408,1.063 -0.813,2.906 -3.678,5.551 -4.786,4.419 -5.554,4.63 -8.733,2.403 -2.668,-1.868 -2.867,-5.683 -0.832,-15.943 5.132,-25.874 6.74,-33.203 7.616,-34.736 0.546,-0.955 0.993,-3.289 0.993,-5.185 0,-1.897 0.407,-4.52 0.905,-5.83 0.498,-1.31 1.056,-3.927 1.24,-5.815 0.316,-3.24 0.171,-3.422 -2.572,-3.223 -1.599,0.116 -3.203,0.69 -3.564,1.275 -0.362,0.585 -3.027,0.979 -5.924,0.877 -2.897,-0.103 -5.564,0.269 -5.926,0.825 -0.362,0.557 -1.283,1.213 -2.045,1.458 -0.805,0.258 -1.5,2.103 -1.656,4.399 -0.148,2.175 -0.791,6.205 -1.428,8.955 -0.638,2.75 -1.401,6.8 -1.697,9 -0.296,2.2 -0.942,4.427 -1.435,4.95 -0.494,0.522 -0.898,2.398 -0.898,4.168 0,3.699 -0.903,6.56 -1.879,5.957 -0.368,-0.228 -0.753,1.462 -0.856,3.756 -0.103,2.293 -0.542,10.357 -0.976,17.921 -0.617,10.756 -0.517,13.751 0.461,13.75 0.688,-10e-4 1.25,0.48 1.25,1.069 0,1.805 2.909,4.099 4.242,3.346 0.984,-0.556 0.997,-0.428 0.056,0.588 -0.957,1.035 -0.5,1.675 2.247,3.147 4.249,2.278 6.524,2.277 13.119,-0.002 7.025,-2.428 13.4,-7.519 17.998,-14.372 2.111,-3.148 4.175,-5.735 4.588,-5.75 0.413,-0.016 0.75,-0.89 0.75,-1.945 0,-1.054 0.34,-2.066 0.755,-2.25 1.007,-0.445 7.723,-15.051 9.809,-21.333 0.912,-2.75 2.509,-6.772 3.548,-8.938 1.038,-2.166 1.888,-4.514 1.888,-5.219 0,-1.544 3.593,-8.156 5.756,-10.593 0.855,-0.962 2.519,-1.75 3.699,-1.75 1.18,0 2.646,-0.501 3.258,-1.113 0.693,-0.693 2.753,-0.87 5.45,-0.469 2.385,0.355 6.25,0.902 8.587,1.214 4.809,0.644 5.065,1.116 2.25,4.138 -1.1,1.18 -2.002,2.503 -2.005,2.938 -0.002,0.436 -1.352,2.23 -3,3.988 -1.647,1.757 -2.995,3.696 -2.995,4.309 0,0.612 -0.52,0.792 -1.155,0.4 -0.67,-0.415 -0.884,-0.277 -0.511,0.327 0.771,1.248 -1.711,3.558 -2.729,2.54 -0.391,-0.391 -0.385,0.137 0.012,1.173 0.47,1.223 0.35,1.653 -0.34,1.226 -0.591,-0.365 -1.314,0.339 -1.628,1.586 -0.311,1.234 -2.052,3.818 -3.869,5.743 -1.817,1.925 -3.428,3.95 -3.579,4.5 -0.151,0.55 -1.158,2.016 -2.238,3.258 -1.08,1.241 -1.963,2.678 -1.963,3.193 0,0.515 -0.788,1.524 -1.75,2.242 -0.962,0.719 -2.38,2.529 -3.151,4.023 -0.77,1.494 -1.852,2.437 -2.404,2.095 -0.552,-0.341 -0.734,-0.182 -0.403,0.352 0.331,0.535 -0.411,2.067 -1.647,3.405 -2.631,2.847 -3.995,5.932 -2.621,5.932 1.528,0 5.976,4.228 5.976,5.68 0,0.726 0.675,1.32 1.5,1.32 0.825,0 1.5,-0.574 1.5,-1.277 0,-1.923 8.006,-6.723 11.213,-6.723 1.547,0 6.06,0.9 10.03,2 9.053,2.509 12.315,2.507 19.79,-0.011 13.96,-4.703 23.725,-18.059 33.621,-45.989 8.711,-24.585 12.112,-28.45 24.371,-27.699 3.589,0.22 7.718,1.03 9.176,1.799 l 2.649,1.4 -4.175,5.717 c -2.296,3.145 -4.738,5.733 -5.425,5.75 -0.688,0.018 -1.154,0.37 -1.038,0.783 0.394,1.39 -2.304,5.311 -3.251,4.726 -0.53,-0.328 -0.652,0.167 -0.28,1.136 0.447,1.164 0.283,1.484 -0.511,0.993 -0.749,-0.463 -1.17,0.019 -1.17,1.336 0,1.132 -0.374,2.059 -0.831,2.059 -0.457,0 -1.433,1.125 -2.169,2.5 -0.736,1.375 -1.91,2.5 -2.61,2.5 -0.7,0 -1.593,0.52 -1.985,1.155 -0.443,0.715 -0.275,0.883 0.44,0.44 0.635,-0.392 1.155,-0.448 1.155,-0.125 0,0.892 -8.088,10.982 -9.109,11.363 -0.49,0.184 -0.891,0.971 -0.891,1.75 0,0.78 -0.648,1.417 -1.441,1.417 -0.793,0 -1.762,0.52 -2.154,1.155 -0.443,0.715 -0.275,0.883 0.44,0.44 2.161,-1.335 1.155,0.895 -1.85,4.101 -3.645,3.889 -3.714,4.951 -0.485,7.49 1.38,1.086 2.21,2.458 1.845,3.049 -0.394,0.637 -0.194,0.784 0.49,0.36 0.635,-0.392 1.155,-0.236 1.155,0.346 0,1.771 2.575,1.186 4.593,-1.043 4.744,-5.242 9.146,-5.883 19.907,-2.898 3.85,1.068 8.388,1.955 10.085,1.971 4.633,0.044 15.277,-3.762 18.262,-6.53 1.448,-1.343 2.937,-2.441 3.308,-2.441 0.814,0 9.852,-11.876 10.654,-14 0.604,-1.599 3.197,-3.915 4.441,-3.968 0.413,-0.018 0.75,0.562 0.75,1.288 0,0.726 1.575,3.16 3.5,5.409 1.925,2.249 3.5,4.61 3.5,5.247 0,0.708 0.787,0.909 2.025,0.516 1.39,-0.441 1.939,-0.227 1.75,0.683 -0.161,0.776 0.62,1.325 1.885,1.325 1.187,0 2.5,0.338 2.916,0.75 1.091,1.08 9.247,0.879 13.924,-0.343 2.2,-0.576 5.107,-1.31 6.46,-1.633 1.353,-0.323 3.112,-1.079 3.908,-1.681 3.117,-2.354 13.89,-13.191 14.801,-14.891 0.582,-1.085 3.2,-2.317 6.609,-3.109 3.105,-0.722 6.824,-2.085 8.264,-3.029 1.441,-0.944 3.23,-1.482 3.976,-1.195 0.746,0.286 1.558,-0.242 1.803,-1.174 0.331,-1.256 0.477,-1.134 0.563,0.472 0.064,1.191 -0.422,2.346 -1.08,2.565 -0.752,0.251 -1.106,2.147 -0.954,5.097 0.18,3.477 -0.159,4.852 -1.303,5.291 -2.584,0.992 -1.759,3.168 1.203,3.174 2.421,0.005 10.687,-1.148 16.866,-2.352 2.56,-0.499 2.152,0.99 10.409,-37.942 3.941,-18.58 4.428,-20.5 5.202,-20.5 0.425,0 0.773,-0.581 0.773,-1.292 0,-1.622 8.152,-9.708 9.788,-9.708 0.667,0 1.212,-0.45 1.212,-1 0,-0.55 1.8,-1 4,-1 h 4 v 5.418 c 0,6.593 -0.834,9.381 -2.217,7.416 -0.605,-0.859 -0.717,0.565 -0.315,4.003 0.421,3.605 0.284,5.128 -0.422,4.691 -1.162,-0.718 -1.305,0.092 -1.072,6.084 0.088,2.261 -0.433,4.736 -1.157,5.5 -1.771,1.866 -1.826,18.85 -0.067,20.709 0.688,0.727 1.25,2.153 1.25,3.169 0,3.086 1.088,4.914 2.583,4.34 0.779,-0.299 1.417,-0.046 1.417,0.563 0,0.609 0.675,1.107 1.5,1.107 0.825,0 1.5,0.675 1.5,1.5 0,2.614 8.236,1.866 15.444,-1.402 6.067,-2.751 7.828,-4.283 18.806,-16.368 l 2.75,-3.027 v 3.208 c 0,1.883 0.413,2.952 1,2.589 0.55,-0.34 1,0.084 1,0.941 0,0.857 0.42,1.559 0.933,1.559 0.513,0 1.22,0.907 1.572,2.015 0.351,1.108 1.002,1.79 1.446,1.516 0.443,-0.275 2.143,0.168 3.777,0.983 5.569,2.778 16.221,-0.956 24.022,-8.421 1.788,-1.711 3.25,-3.519 3.25,-4.018 0,-0.5 0.364,-1.058 0.808,-1.242 2.342,-0.966 13.192,-20.302 13.192,-23.51 0,-0.728 0.45,-1.323 1,-1.323 0.55,0 1,-1.098 1,-2.441 0,-1.343 0.45,-2.719 1,-3.059 1.604,-0.992 1.166,-2.349 -1.25,-3.873 -5.108,-3.221 -6.217,-2.954 -7.631,1.834 -0.723,2.451 -1.941,4.977 -2.706,5.611 -0.765,0.635 -1.178,1.499 -0.918,1.92 0.78,1.262 -2.569,7.08 -3.681,6.393 -0.66,-0.408 -0.773,0.17 -0.314,1.615 0.487,1.533 0.361,2.032 -0.393,1.566 -0.661,-0.409 -1.107,0.083 -1.107,1.222 0,2.071 -3.36,6.519 -4.252,5.627 -0.301,-0.302 -0.48,0.204 -0.398,1.124 0.083,0.919 -1.536,3.051 -3.596,4.738 -3.462,2.834 -3.94,2.961 -6.319,1.688 -2.492,-1.333 -2.559,-1.619 -2.088,-8.921 0.657,-10.179 2.111,-17.988 9.781,-52.544 2.447,-11.025 2.516,-10.5 -1.39,-10.5 -2.21,0 -3.739,0.559 -4.1,1.5 m -377.276,34 c -0.317,0.825 -1.189,1.5 -1.939,1.5 -0.75,0 -2.362,1.351 -3.583,3.002 -1.342,1.816 -2.483,2.576 -2.887,1.922 -0.367,-0.594 -0.667,1.465 -0.667,4.576 0,3.111 0.291,5.185 0.646,4.609 0.356,-0.575 1.488,0.515 2.515,2.422 1.027,1.908 2.324,3.469 2.882,3.469 0.557,0 1.838,0.746 2.846,1.659 1.605,1.452 2.325,1.496 5.78,0.356 5.914,-1.952 9.152,-5.844 9.362,-11.252 0.228,-5.908 -1.734,-9.303 -6.796,-11.753 -4.947,-2.395 -7.378,-2.547 -8.159,-0.51 m -45.969,2.25 c -0.688,0.688 -2.182,1.25 -3.322,1.25 -1.139,0 -2.071,0.34 -2.071,0.756 0,0.416 -1.462,1.394 -3.25,2.174 -1.788,0.78 -3.978,2.24 -4.867,3.244 -0.89,1.004 -2.127,1.826 -2.75,1.826 -0.623,0 -1.133,0.477 -1.133,1.059 0,0.582 -0.52,0.738 -1.155,0.346 -0.653,-0.404 -0.885,-0.278 -0.534,0.289 0.341,0.552 -0.168,1.859 -1.131,2.905 -0.962,1.045 -2.563,3.026 -3.558,4.401 -1.713,2.37 -1.773,2.383 -1.147,0.25 0.486,-1.657 0.247,-2.25 -0.908,-2.25 -0.862,0 -1.567,-0.707 -1.567,-1.571 0,-3.585 -6.689,-7.649 -12.697,-7.715 -4.656,-0.051 -7.069,1.683 -3.608,2.593 0.993,0.261 -0.403,0.228 -3.101,-0.074 -3.662,-0.409 -4.719,-0.244 -4.166,0.65 0.539,0.873 0,1.012 -1.993,0.511 -2.025,-0.508 -2.537,-0.368 -1.976,0.54 0.464,0.751 -0.156,1.866 -1.601,2.878 -1.297,0.908 -2.478,1.54 -2.625,1.404 -0.147,-0.136 -1.878,1.506 -3.848,3.648 l -3.581,3.895 -8.372,-4.379 c -9.268,-4.849 -9.148,-4.819 -13.117,-3.31 -1.548,0.589 -3.04,1.071 -3.315,1.071 -0.275,10e-4 -0.86,0.644 -1.3,1.43 -0.44,0.786 -1.677,1.429 -2.75,1.429 -1.072,0 -1.95,0.45 -1.95,1 0,0.55 -0.675,1 -1.5,1 -0.825,0 -1.504,0.337 -1.508,0.75 -0.009,0.898 -4.852,3.25 -6.691,3.25 -0.716,0 -1.301,0.408 -1.301,0.906 0,0.499 -0.907,0.67 -2.015,0.38 -1.549,-0.405 -1.871,-0.153 -1.393,1.093 0.452,1.179 0.047,1.621 -1.485,1.621 -1.159,0 -2.107,0.45 -2.107,1 0,0.55 -0.675,1 -1.5,1 -0.825,0 -1.5,0.398 -1.5,0.883 0,0.761 -2.739,2.047 -5.286,2.482 -0.433,0.074 -1.108,0.607 -1.5,1.183 -1.242,1.824 -6.609,5.135 -9.429,5.816 -2.007,0.485 -2.548,1.09 -2.076,2.32 0.504,1.313 0.239,1.51 -1.255,0.937 -1.041,-0.4 -1.591,-0.424 -1.221,-0.055 0.369,0.37 0.131,1.222 -0.531,1.895 -0.661,0.672 -2.327,2.733 -3.702,4.58 -1.375,1.847 -3.25,4.131 -4.167,5.075 -0.916,0.945 -1.415,1.969 -1.107,2.277 0.307,0.307 -0.009,1.243 -0.703,2.079 -0.803,0.968 -1.261,4.699 -1.261,10.282 0,7.072 0.409,9.489 2.119,12.534 1.165,2.075 2.119,4.448 2.119,5.274 0,0.825 0.787,1.793 1.75,2.15 0.963,0.357 2.425,1.358 3.25,2.225 0.825,0.867 2.85,2.189 4.5,2.936 1.65,0.748 3.732,1.727 4.627,2.175 2.889,1.447 8.636,2.163 11.795,1.469 3.424,-0.752 3.687,-1.851 2.094,-8.753 -0.541,-2.345 -1.225,-5.502 -1.519,-7.014 -0.409,-2.1 -1.11,-2.75 -2.969,-2.75 -9.211,0 -13.597,-10.198 -7.96,-18.505 1.413,-2.082 3.55,-4.642 4.75,-5.689 6.084,-5.311 29.096,-18.806 32.067,-18.806 1.135,0 1.545,1.011 1.52,3.75 -0.055,6.106 -1.017,11.299 -1.982,10.702 -0.495,-0.306 -0.651,0.093 -0.347,0.885 0.304,0.793 -0.19,4.754 -1.098,8.802 -0.909,4.049 -2.042,9.386 -2.519,11.861 -0.477,2.475 -1.358,6.75 -1.958,9.5 -0.6,2.75 -1.32,6.35 -1.6,8 -1.108,6.524 -1.489,7.563 -2.537,6.916 -0.717,-0.443 -0.843,0.075 -0.376,1.546 0.386,1.216 0.38,3.86 -0.013,5.875 -0.618,3.171 -0.832,3.395 -1.591,1.663 -0.56,-1.277 -0.657,-0.056 -0.269,3.378 0.432,3.82 0.286,5.179 -0.504,4.691 -0.755,-0.467 -1.111,0.83 -1.111,4.051 0,2.606 -0.437,6.12 -0.97,7.809 -0.534,1.689 -1.232,4.771 -1.551,6.849 -0.319,2.078 -0.931,3.561 -1.359,3.296 -0.428,-0.265 -0.705,0.51 -0.615,1.722 0.192,2.587 2.597,2.717 14.147,0.765 l 7.152,-1.209 0.533,-3.676 c 0.513,-3.536 1.179,-6.866 3.533,-17.676 3.816,-17.528 5.477,-25.411 7.689,-36.5 1.371,-6.875 2.908,-13.4 3.415,-14.5 0.507,-1.1 1.13,-4.025 1.384,-6.5 1.206,-11.722 4.203,-17.847 12.094,-24.711 7.115,-6.191 13.593,-7.942 15.588,-4.214 1.321,2.467 0.288,10.245 -1.236,9.304 -0.646,-0.399 -0.762,0.18 -0.316,1.583 0.967,3.046 -0.288,9.28 -1.693,8.411 -0.678,-0.419 -0.82,-0.222 -0.368,0.509 0.405,0.655 0.425,3.034 0.045,5.286 -0.381,2.252 -0.991,3.61 -1.357,3.018 -0.366,-0.591 -0.713,0.812 -0.773,3.119 -0.059,2.307 -0.63,6.445 -1.27,9.195 -0.639,2.75 -1.391,6.35 -1.671,8 -0.28,1.65 -0.762,4.125 -1.07,5.5 -0.529,2.362 -0.609,2.39 -1.452,0.5 -0.576,-1.294 -0.682,0.07 -0.299,3.862 0.413,4.094 0.264,5.66 -0.494,5.191 -1.226,-0.758 -1.459,0.362 -1.154,5.554 0.117,1.983 -0.383,4.233 -1.11,5 -0.727,0.766 -1.395,3.193 -1.484,5.393 -0.089,2.2 -0.612,6.025 -1.162,8.5 -0.551,2.475 -1.335,6.3 -1.743,8.5 -0.408,2.2 -1.204,4.302 -1.768,4.671 -1.841,1.203 5.779,1.991 8.661,0.895 1.542,-0.586 4.264,-1.066 6.048,-1.066 6.026,0 7.183,-1.99 9.597,-16.5 0.458,-2.75 1.796,-9.275 2.973,-14.5 1.177,-5.225 3.002,-13.775 4.056,-19 1.054,-5.225 2.862,-13.775 4.019,-19 1.156,-5.225 2.36,-11.423 2.675,-13.773 0.314,-2.35 0.962,-4.514 1.439,-4.809 0.477,-0.295 0.867,-1.705 0.867,-3.133 0,-3.476 9.195,-15.285 11.901,-15.285 0.605,0 1.099,-0.342 1.099,-0.759 0,-1.365 3.839,-3.197 7.72,-3.685 l 3.8,-0.477 0.193,6.21 c 0.261,8.436 -0.553,13.535 -1.858,11.642 -0.719,-1.044 -0.807,-0.799 -0.326,0.906 0.812,2.871 -0.308,9.417 -1.486,8.689 -0.471,-0.291 -0.633,0.327 -0.359,1.373 0.273,1.045 -0.288,5.428 -1.247,9.739 -1.363,6.125 -1.932,7.404 -2.604,5.85 -0.546,-1.261 -0.656,-0.035 -0.301,3.349 0.343,3.273 0.191,5.11 -0.393,4.749 -0.538,-0.332 -1.178,1.702 -1.469,4.662 -0.483,4.931 -1.142,9.185 -2.254,14.543 -0.261,1.26 -0.869,2.047 -1.35,1.75 -0.482,-0.298 -0.645,1.178 -0.363,3.28 0.352,2.625 0.042,4.291 -0.99,5.324 -0.925,0.924 -1.306,2.535 -0.99,4.186 0.282,1.477 0.043,3.919 -0.533,5.427 -0.575,1.508 -1.332,4.888 -1.682,7.511 -0.35,2.623 -1.057,4.509 -1.572,4.191 -0.515,-0.318 -0.936,1.024 -0.936,2.981 0,1.957 0.43,3.559 0.955,3.559 0.525,0 1.271,1.688 1.658,3.75 0.851,4.538 3.789,9.966 7.01,12.951 1.307,1.212 2.377,2.661 2.377,3.22 0,0.559 0.675,0.757 1.5,0.441 0.95,-0.365 1.5,0.013 1.5,1.031 0,1.017 0.857,1.607 2.333,1.607 1.284,0 2.643,0.309 3.021,0.687 0.378,0.378 1.465,0.796 2.416,0.929 0.952,0.133 3.455,0.685 5.564,1.227 2.788,0.716 6.332,0.566 13,-0.551 5.041,-0.844 11.416,-1.727 14.166,-1.962 2.75,-0.234 5.9,-0.82 7,-1.302 1.1,-0.481 3.8,-1.135 6,-1.454 4.592,-0.664 12.449,-1.997 20.75,-3.52 13.381,-2.453 16.843,-3.068 28.25,-5.012 6.6,-1.125 14.137,-1.974 16.75,-1.885 l 4.75,0.16 v 3.76 c 0,4.167 -0.854,7.131 -1.873,6.501 -0.365,-0.225 -0.501,1.296 -0.302,3.38 0.227,2.387 -0.163,4.279 -1.056,5.113 -0.779,0.728 -1.22,2.351 -0.98,3.608 0.566,2.958 -0.592,7.561 -1.725,6.861 -0.483,-0.299 -0.643,0.353 -0.357,1.447 0.677,2.589 -0.57,9.216 -1.613,8.571 -0.443,-0.274 -0.585,0.651 -0.317,2.056 0.268,1.404 -0.002,4.203 -0.6,6.219 -0.599,2.017 -1.356,5.367 -1.683,7.445 -0.327,2.078 -1.017,3.517 -1.533,3.198 -0.516,-0.319 -0.669,0.122 -0.34,0.98 0.329,0.857 0.271,3.243 -0.131,5.302 -0.631,3.237 -0.849,3.472 -1.617,1.742 -0.59,-1.327 -0.692,-0.365 -0.304,2.857 0.403,3.344 0.25,4.649 -0.492,4.191 -0.612,-0.378 -1.108,0.116 -1.149,1.143 -0.195,4.871 -0.766,9.302 -1.846,14.309 -1.453,6.746 -2.704,12.963 -3.893,19.353 -0.497,2.669 -1.526,5.237 -2.288,5.708 -0.929,0.574 -1.053,1.187 -0.378,1.862 0.676,0.676 4.239,0.469 10.831,-0.627 10.662,-1.773 10.984,-2.029 12.3,-9.796 0.279,-1.65 0.889,-3.9 1.354,-5 0.465,-1.1 1.076,-4.025 1.358,-6.5 0.282,-2.475 1.489,-8.775 2.683,-14 2.123,-9.294 3.117,-13.911 4.951,-23 6.04,-29.928 5.986,-29.714 9.057,-36.25 1.474,-3.138 4.85,-6.845 8.77,-9.631 2.793,-1.985 3.835,-2.211 6.5,-1.409 1.745,0.525 3.049,1.514 2.898,2.197 -0.154,0.695 0.219,0.936 0.848,0.548 0.81,-0.501 1.025,2.168 0.774,9.593 -0.221,6.549 -0.763,10.425 -1.491,10.668 -0.629,0.209 -0.916,1.251 -0.637,2.316 0.278,1.065 0.179,3.181 -0.221,4.702 -0.676,2.57 -0.791,2.624 -1.629,0.766 -0.627,-1.389 -0.74,-0.626 -0.371,2.5 0.376,3.187 0.239,4.062 -0.468,3 -0.77,-1.156 -1.003,-0.761 -1.015,1.721 -0.021,4.405 -4.616,14.644 -6.147,13.698 -0.74,-0.458 -0.91,-0.297 -0.459,0.434 1.46,2.362 -2.255,4.44 -6.818,3.815 -3.838,-0.527 -4.435,-0.327 -5.612,1.871 -0.724,1.354 -1.953,2.461 -2.731,2.461 -2.044,0 -0.997,2.329 1.567,3.487 1.202,0.543 2.185,1.494 2.185,2.112 0,3.103 21.453,2.586 28.739,-0.692 2.332,-1.049 4.491,-1.907 4.798,-1.907 1.69,0 11.691,-7.424 16.29,-12.093 2.93,-2.974 6.182,-5.458 7.226,-5.519 1.97,-0.117 3.544,2.837 2.453,4.603 -0.343,0.555 -0.168,1.009 0.39,1.009 0.557,0 2.227,1.214 3.71,2.697 4.237,4.237 12.717,4.777 19.958,1.272 3.688,-1.785 15.436,-12.039 15.436,-13.472 0,-0.254 1.71,-3.282 3.8,-6.729 2.09,-3.448 4.846,-8.743 6.124,-11.768 1.278,-3.025 3.091,-7.3 4.028,-9.5 0.937,-2.2 2.513,-6.47 3.502,-9.488 2.917,-8.908 6.59,-15.871 9.79,-18.564 2.792,-2.349 3.614,-2.501 12.125,-2.234 9.063,0.284 9.129,0.304 8.852,2.767 -0.273,2.424 -0.243,2.435 1.305,0.5 1.539,-1.924 1.553,-1.916 0.494,0.269 -0.6,1.237 -1.525,2.25 -2.055,2.25 -0.531,0 -0.974,0.563 -0.985,1.25 -0.011,0.688 -2.148,4.012 -4.75,7.388 -2.601,3.375 -5.574,7.304 -6.606,8.731 -1.032,1.426 -2.264,2.353 -2.738,2.06 -0.475,-0.293 -0.567,0.239 -0.205,1.183 0.447,1.164 0.283,1.484 -0.511,0.993 -0.743,-0.459 -1.17,-10e-4 -1.17,1.253 0,1.086 -0.375,2.125 -0.834,2.309 -0.458,0.183 -3.409,3.831 -6.557,8.107 -3.147,4.275 -6.115,7.531 -6.594,7.235 -0.479,-0.296 -1.157,0.481 -1.506,1.726 -1.131,4.037 -2.817,6.765 -4.178,6.765 -0.732,0 -1.331,0.342 -1.331,0.759 0,1.159 3.964,3.381 4.947,2.773 0.477,-0.294 0.613,0.436 0.302,1.623 -0.384,1.468 -0.198,1.931 0.582,1.449 0.743,-0.459 0.937,-0.162 0.551,0.844 -0.941,2.45 1.803,1.859 6.171,-1.329 5.527,-4.034 9.093,-4.557 17.127,-2.511 7.654,1.948 18.295,2.142 22.82,0.415 4.934,-1.882 11.761,-7.044 15.712,-11.879 3.955,-4.84 12.75,-21.839 14.95,-28.894 0.729,-2.337 1.665,-4.25 2.081,-4.25 0.417,0 0.757,-1.26 0.757,-2.8 0,-1.54 0.38,-3.228 0.844,-3.75 0.464,-0.523 1.9,-3.65 3.189,-6.95 3.203,-8.193 5.776,-11.927 9.291,-13.483 3.697,-1.637 16.942,-1.492 19.674,0.214 2.391,1.493 2.68,3.243 0.391,2.365 -1.153,-0.443 -1.447,-0.189 -1.032,0.893 0.319,0.831 0.144,1.511 -0.388,1.511 -0.533,0 -0.97,0.563 -0.97,1.25 -10e-4,0.688 -1.013,2.45 -2.25,3.916 -5.104,6.05 -5.749,6.881 -5.749,7.399 0,0.298 -1.223,2.074 -2.717,3.947 -1.931,2.42 -2.962,3.055 -3.565,2.196 -0.5,-0.712 -0.573,-0.232 -0.176,1.167 0.457,1.616 0.318,2.157 -0.435,1.691 -0.629,-0.388 -1.107,-0.01 -1.107,0.875 0,0.857 -0.9,2.459 -2,3.559 -1.1,1.1 -1.908,2.112 -1.796,2.25 0.113,0.138 -0.547,1.15 -1.465,2.25 -0.918,1.1 -3.05,3.93 -4.738,6.288 -1.688,2.359 -3.509,4.016 -4.047,3.684 -0.537,-0.333 -1.256,0.789 -1.597,2.492 -0.341,1.704 -1.685,3.936 -2.988,4.96 -2.733,2.151 -2.995,3.076 -0.869,3.076 0.825,0 1.5,0.498 1.5,1.107 0,0.609 0.624,0.868 1.387,0.575 0.997,-0.383 1.234,0.052 0.842,1.549 -0.367,1.405 -0.172,1.852 0.602,1.373 0.743,-0.459 0.937,-0.162 0.551,0.844 -0.977,2.545 2.368,1.841 6.427,-1.353 5.069,-3.989 8.774,-4.544 16.839,-2.521 9.71,2.435 19.16,2.179 25.089,-0.68 4.997,-2.41 13.511,-10.406 19.013,-17.856 2.677,-3.625 3.25,-4.014 3.25,-2.206 0,2.578 1.756,5.957 4.342,8.354 1.013,0.939 1.519,2.23 1.125,2.868 -0.5,0.808 -0.072,0.955 1.408,0.486 1.55,-0.492 2.125,-0.25 2.125,0.893 0,1.191 1.082,1.567 4.516,1.567 7.946,0 12.325,-2.007 19.097,-8.75 6.078,-6.053 10.054,-8.152 8.686,-4.586 -0.442,1.152 -0.263,1.432 0.584,0.908 0.708,-0.437 1.939,0.024 2.92,1.093 6.379,6.95 18.809,5.101 29.275,-4.355 4.224,-3.815 14.922,-19.271 14.922,-21.558 0,-0.743 0.374,-1.78 0.832,-2.302 1.467,-1.675 5.168,-11.64 5.168,-13.914 0,-1.319 -0.996,-2.731 -2.49,-3.531 -2.172,-1.162 -2.747,-1.1 -4.5,0.486 -1.106,1.001 -2.01,2.43 -2.01,3.178 0,0.747 -0.401,2.14 -0.891,3.095 -0.489,0.955 -1.938,3.986 -3.219,6.736 -3.788,8.135 -6.858,12.638 -8.096,11.873 -0.746,-0.461 -0.915,-0.132 -0.495,0.963 0.351,0.915 0.202,1.664 -0.33,1.664 -0.533,0 -0.969,0.605 -0.969,1.345 0,2.955 -7.051,6.477 -9.696,4.843 -2.67,-1.65 -3.196,-5.858 -1.728,-13.832 2.43,-13.2 3.281,-17.482 5.43,-27.356 1.138,-5.225 2.784,-13.1 3.658,-17.5 0.874,-4.4 1.982,-8.427 2.463,-8.95 0.48,-0.522 0.873,-1.469 0.873,-2.103 0,-1.342 -9.908,-0.762 -11.45,0.67 -0.523,0.486 -2.723,0.883 -4.89,0.883 -4.765,0 -6.584,1.991 -6.628,7.258 l -0.032,3.757 -3.054,-2.757 c -1.679,-1.517 -4.484,-3.546 -6.234,-4.508 -3.46,-1.903 -12.204,-2.382 -13.228,-0.723 -0.349,0.564 -1.165,0.904 -1.812,0.756 -0.648,-0.149 -2.596,0.739 -4.329,1.973 -1.734,1.234 -3.671,2.244 -4.306,2.244 -0.635,0 -0.83,0.526 -0.432,1.17 0.491,0.794 0.171,0.958 -0.993,0.511 -1.084,-0.416 -1.474,-0.267 -1.059,0.404 0.848,1.372 -3.519,6.054 -4.868,5.22 -0.622,-0.384 -0.774,0.021 -0.386,1.031 0.351,0.915 0.202,1.664 -0.33,1.664 -0.533,0 -0.969,0.661 -0.969,1.47 0,0.808 -0.9,3.072 -2,5.03 -1.1,1.958 -2,4.421 -2,5.471 0,1.051 -0.45,2.189 -1,2.529 -0.55,0.34 -1,1.924 -1,3.52 0,1.595 -0.568,3.432 -1.263,4.081 -0.724,0.677 -1.113,2.751 -0.912,4.863 0.211,2.208 -0.442,5.456 -1.629,8.109 -1.089,2.435 -2.278,5.314 -2.642,6.399 -0.559,1.667 -0.818,1.744 -1.673,0.5 -0.769,-1.118 -0.86,-0.932 -0.379,0.778 0.372,1.323 0.193,2.25 -0.435,2.25 -0.587,0 -1.081,0.788 -1.099,1.75 -0.036,2.026 -4.345,7.25 -5.979,7.25 -0.609,0 -0.782,0.526 -0.384,1.17 0.485,0.785 0.179,0.961 -0.929,0.536 -0.994,-0.381 -1.557,-0.171 -1.414,0.529 0.438,2.141 -7.843,3.185 -13.848,1.744 -3.029,-0.726 -5.738,-1.694 -6.02,-2.15 -0.281,-0.456 -1.835,-0.829 -3.453,-0.829 -3.465,0 -3.8,-1.7 -0.941,-4.77 1.1,-1.18 2,-2.578 2,-3.105 0,-0.527 0.337,-1.108 0.75,-1.292 0.413,-0.183 7.213,-8.996 15.113,-19.583 7.899,-10.587 14.709,-19.25 15.133,-19.25 0.917,0 1.975,-4.916 1.385,-6.437 -0.93,-2.396 -6.899,-5.418 -9.631,-4.876 -1.513,0.301 -2.75,0.909 -2.75,1.353 0,0.444 -1.913,0.865 -4.25,0.937 -10.246,0.311 -14.671,0.318 -21.052,0.031 -4.183,-0.187 -7.243,0.137 -7.95,0.844 -0.631,0.631 -1.964,1.148 -2.962,1.148 -2.199,0 -5.686,1.878 -7.893,4.25 -0.895,0.962 -2.212,1.75 -2.927,1.75 -0.715,0 -1.017,0.282 -0.673,0.627 0.345,0.345 -0.075,1.985 -0.934,3.645 -1.238,2.394 -1.764,2.73 -2.541,1.624 -0.696,-0.992 -0.806,-0.601 -0.38,1.354 0.348,1.593 0.172,2.75 -0.419,2.75 -0.56,0 -1.019,1.088 -1.019,2.418 0,3.262 -1.013,5.692 -2.093,5.024 -0.486,-0.3 -0.615,0.154 -0.287,1.01 0.546,1.422 -2.618,12.643 -4.733,16.784 -0.488,0.955 -0.887,2.198 -0.887,2.761 0,0.564 -0.851,2.932 -1.892,5.264 -1.04,2.331 -2.19,5.126 -2.554,6.211 -0.56,1.67 -0.819,1.747 -1.689,0.5 -0.763,-1.094 -0.867,-0.744 -0.406,1.362 0.404,1.843 0.258,2.609 -0.419,2.191 -0.575,-0.355 -1.04,0.172 -1.04,1.177 0,2.161 -5.958,9.314 -7.75,9.304 -0.687,-0.003 -1.25,0.453 -1.25,1.013 0,0.589 -1.06,0.753 -2.511,0.389 -2.033,-0.51 -2.394,-0.323 -1.893,0.981 0.481,1.254 -0.027,1.611 -2.298,1.611 -1.604,0 -3.789,-0.661 -4.857,-1.468 -1.067,-0.808 -3.014,-1.483 -4.325,-1.5 -3.792,-0.051 -10.116,-2.24 -10.116,-3.502 0,-0.634 0.9,-2.119 2,-3.3 1.1,-1.18 2,-2.422 2,-2.76 0,-0.337 0.563,-1.184 1.25,-1.883 0.688,-0.699 2.223,-2.579 3.413,-4.179 7.772,-10.451 9.749,-12.945 10.496,-13.241 0.463,-0.184 0.841,-0.765 0.841,-1.293 0,-0.527 0.458,-1.502 1.017,-2.166 0.559,-0.664 3.351,-4.358 6.203,-8.208 2.853,-3.85 5.808,-7.632 6.567,-8.405 0.759,-0.773 1.802,-2.515 2.318,-3.872 1.071,-2.816 0.016,-4.559 -4.383,-7.241 -2.739,-1.671 -7.722,-1.584 -7.722,0.134 0,0.486 -1.462,0.906 -3.25,0.935 -18.571,0.3 -29.926,0.873 -33.25,1.678 -3.961,0.96 -3.976,0.98 -1.5,2.125 2.45,1.133 2.439,1.145 -0.522,0.621 -2.468,-0.436 -3.731,0.115 -6.876,2.996 -2.119,1.941 -3.556,3.529 -3.193,3.529 0.364,0 0.147,0.961 -0.481,2.135 -0.927,1.733 -1.327,1.874 -2.116,0.75 -0.687,-0.977 -0.797,-0.575 -0.374,1.365 0.348,1.593 0.172,2.75 -0.419,2.75 -0.56,0 -1.019,0.953 -1.019,2.119 0,1.165 -0.968,5.103 -2.15,8.75 -1.183,3.647 -3.02,9.331 -4.083,12.631 -1.062,3.3 -2.541,7.357 -3.285,9.015 -0.744,1.658 -1.831,4.273 -2.416,5.81 -0.624,1.643 -1.519,2.513 -2.171,2.11 -0.748,-0.462 -0.889,0.008 -0.435,1.44 0.4,1.261 0.241,2.125 -0.393,2.125 -0.587,0 -1.067,0.59 -1.067,1.312 0,2.477 -4.018,9.627 -6.009,10.693 -1.095,0.586 -1.991,1.646 -1.991,2.356 0,2.214 -4.351,5.286 -7.768,5.484 -4.87,0.282 -5.623,-2.664 -3.616,-14.148 0.884,-5.059 1.832,-10.664 2.106,-12.456 0.274,-1.793 0.899,-3.507 1.388,-3.809 0.49,-0.303 0.89,-2.527 0.89,-4.944 0,-2.417 0.407,-5.428 0.905,-6.691 0.497,-1.263 1.434,-4.997 2.081,-8.297 0.647,-3.3 1.573,-7.8 2.057,-10 0.484,-2.2 1.133,-5.35 1.442,-7 l 0.563,-3 -6.024,-0.258 c -5.02,-0.214 -6.024,0.016 -6.024,1.382 0,1.33 -0.74,1.54 -3.918,1.114 -3.573,-0.479 -3.976,-0.298 -4.569,2.066 -0.525,2.091 -0.844,2.312 -1.653,1.144 -0.697,-1.006 -0.805,0.033 -0.354,3.409 0.449,3.359 0.317,4.651 -0.429,4.191 -0.592,-0.366 -1.106,-0.077 -1.141,0.643 -0.287,5.891 -0.883,11 -1.728,14.809 -0.549,2.475 -1.53,7.2 -2.181,10.5 -1.557,7.9 -8.9,23.258 -10.214,21.363 -0.661,-0.954 -0.754,-0.688 -0.311,0.887 0.448,1.593 0.208,2.25 -0.824,2.25 -0.8,0 -1.393,0.677 -1.317,1.505 0.196,2.124 -7.329,11.17 -10.539,12.669 -1.473,0.688 -2.423,1.663 -2.111,2.168 0.312,0.505 -0.058,0.707 -0.822,0.45 -1.445,-0.485 -1.39,-5.397 0.082,-7.292 0.981,-1.264 4.457,-11.581 5.895,-17.5 4.127,-16.982 4.062,-27.614 -0.226,-36.993 -3.849,-8.418 -14.726,-13.778 -19.094,-9.41 -0.879,0.879 -2.172,1.377 -2.874,1.107 -0.702,-0.269 -2.312,0.587 -3.579,1.903 -1.267,1.316 -2.957,2.393 -3.757,2.393 -0.8,0 -1.179,0.445 -0.843,0.989 0.35,0.566 -0.051,0.734 -0.941,0.393 -1.002,-0.385 -1.552,-1.863 -1.552,-4.173 0,-1.968 -0.93,-5.498 -2.066,-7.846 -1.771,-3.659 -2.88,-4.576 -7.75,-6.415 -5.983,-2.26 -9.899,-2.242 -23.684,0.109 -3.3,0.562 -8.7,1.428 -12,1.923 -5.421,0.814 -14.363,2.413 -50.5,9.032 -18.777,3.44 -23.092,4.073 -31.613,4.641 l -8.113,0.541 -2.137,-3.001 C 314.835,553.364 314,550.672 314,548.3 c 0,-4.26 3.55,-22.601 4.993,-25.8 0.496,-1.1 1.098,-4.025 1.337,-6.5 0.239,-2.475 1.408,-8.775 2.599,-14 2.037,-8.939 3.055,-13.606 5.181,-23.75 0.489,-2.337 1.361,-6.387 1.936,-9 2.036,-9.245 3.078,-14.803 3.61,-19.25 0.296,-2.475 0.944,-4.928 1.441,-5.45 1.229,-1.293 1.149,-11.28 -0.097,-12.05 -0.55,-0.34 -1,-1.31 -1,-2.155 0,-2.43 -3.982,-7.382 -6.868,-8.541 -3.733,-1.5 -10.263,-1.53 -11.739,-0.054 M 583,425.772 c -2.975,0.957 -6.23,4.845 -9.193,10.981 -3.268,6.768 -4.072,9.532 -6.327,21.747 -2.683,14.533 -1.676,21.772 3.453,24.801 3.317,1.96 6.544,2.281 5.472,0.544 -0.401,-0.647 -0.279,-0.885 0.278,-0.541 2.295,1.418 9.228,-7.022 7.742,-9.425 -0.299,-0.484 0.046,-0.893 0.766,-0.911 0.981,-0.024 0.933,-0.342 -0.191,-1.27 -2.233,-1.843 -4,-5.37 -4,-7.985 0,-3.32 2.207,-7.621 4.25,-8.282 0.962,-0.311 1.75,-0.985 1.75,-1.498 0,-0.513 0.686,-0.933 1.525,-0.933 0.893,0 1.772,-1.237 2.122,-2.984 0.328,-1.641 0.992,-2.739 1.475,-2.441 0.483,0.299 0.878,-3.335 0.878,-8.075 0,-5.491 -0.363,-8.394 -1,-8 -0.923,0.571 -1.449,-0.816 -1.083,-2.855 0.468,-2.608 -3.86,-4.178 -7.917,-2.873 m 12.343,13.728 c 0.003,4.4 0.179,6.076 0.39,3.724 0.212,-2.352 0.209,-5.952 -0.006,-8 -0.215,-2.048 -0.388,-0.124 -0.384,4.276 m -71.812,73.549 c 0.237,0.385 -0.685,1.538 -2.05,2.562 -1.364,1.025 -2.481,2.446 -2.481,3.158 0,0.711 -0.562,1.511 -1.25,1.777 -1.728,0.668 -1.797,7.454 -0.075,7.454 0.729,0 1.325,0.47 1.325,1.045 0,0.575 1.164,2.21 2.587,3.633 3.627,3.627 10.219,4.308 14.206,1.47 6.215,-4.426 6.9,-14.125 1.364,-19.299 -2.581,-2.412 -3.735,-2.77 -8.522,-2.644 -3.045,0.08 -5.342,0.46 -5.104,0.844 m -34.193,7.916 c -4.993,5.957 -13.722,6.816 -19.647,1.932 l -3.764,-3.103 -4.775,4.467 c -2.627,2.457 -5.787,5.008 -7.022,5.67 -2.221,1.188 -2.2,1.235 1.76,4.104 2.203,1.596 4.456,3.743 5.006,4.771 0.881,1.647 1.935,1.815 8.846,1.415 10.158,-0.588 16.351,1.864 22.787,9.023 2.459,2.735 4.471,5.374 4.471,5.864 0,0.491 0.399,0.892 0.887,0.892 0.487,0 1.442,-2.942 2.12,-6.538 0.679,-3.596 2.359,-8.196 3.734,-10.222 2.188,-3.224 2.36,-4.071 1.38,-6.783 -0.617,-1.704 -1.121,-4.766 -1.121,-6.803 0,-4.072 -1.409,-5.056 -8.971,-6.265 -3.19,-0.51 -4.17,-0.239 -5.691,1.576 m 255.024,2.961 c -3.996,2.43 -8.362,8.131 -8.362,10.918 0,1.186 -0.346,2.156 -0.769,2.156 -1.659,0 -5.313,16.692 -5.52,25.211 -0.233,9.638 0.465,11.104 5.822,12.22 2.503,0.522 3.726,0.039 7,-2.767 5.015,-4.299 8.467,-10.723 8.467,-15.759 0,-2.148 0.478,-3.905 1.061,-3.905 0.693,0 0.825,-1.578 0.381,-4.54 -0.526,-3.508 -0.38,-4.474 0.645,-4.25 0.858,0.188 1.628,-1.297 2.184,-4.21 1.343,-7.041 1.376,-11.528 0.082,-11.284 -0.663,0.124 -0.941,-0.574 -0.659,-1.654 0.476,-1.819 0.122,-2.044 -5.697,-3.63 -0.827,-0.226 -2.913,0.447 -4.635,1.494 M 471.349,584 c 0,4.675 0.173,6.587 0.383,4.25 0.211,-2.337 0.211,-6.163 0,-8.5 -0.21,-2.337 -0.383,-0.425 -0.383,4.25 M 395,590.539 c -3.575,0.676 -22.099,3.848 -41.165,7.048 l -34.666,5.819 -0.361,4.541 c -1.005,12.634 2.74,28.575 9.371,39.888 4.213,7.187 16.713,19.665 24.029,23.986 6.832,4.035 17.498,7.748 24.916,8.675 l 5.495,0.687 7.863,-36.842 c 11.191,-52.436 11.631,-54.569 11.308,-54.813 -0.159,-0.12 -3.215,0.334 -6.79,1.011 m -84.216,14.187 c -3.369,0.354 -3.788,0.735 -4.5,4.082 -1.46,6.874 -0.779,26.233 1.151,32.692 3.505,11.729 9.349,21.358 18.528,30.528 13.046,13.033 26.943,19.392 45.134,20.653 8.44,0.584 8.609,0.552 9.237,-1.793 1.29,-4.82 0.808,-6.888 -1.604,-6.888 -4.506,0 -17.341,-4.216 -25.203,-8.279 -11.223,-5.799 -23.488,-18.102 -29.345,-29.434 -5.599,-10.833 -8.254,-21.345 -8.344,-33.037 -0.039,-5.087 -0.356,-9.174 -0.705,-9.082 -0.348,0.093 -2.305,0.344 -4.349,0.558 m 25.871,10.103 c -2.476,2.736 -2.157,8.706 0.568,10.614 7.117,4.985 15.863,-4.357 9.777,-10.443 -2.554,-2.554 -8.106,-2.645 -10.345,-0.171 m 36.845,1.116 c -5.136,2.102 -7.315,7.535 -4.989,12.437 2.791,5.88 9.935,7.172 14.489,2.618 4.505,-4.505 3.262,-11.699 -2.493,-14.43 -3.688,-1.75 -4.156,-1.792 -7.007,-0.625 m -16.607,34.414 c -5.595,2.774 -2.07,12.16 3.784,10.073 3.386,-1.206 4.773,-3.501 3.994,-6.606 -0.841,-3.353 -4.615,-5.035 -7.778,-3.467"
       stroke="none"
       fill="#891d17"
       fill-rule="evenodd"
       id="path2"
       style="fill:#f9f9f9" /></g></svg>
