<svg xmlns="http://www.w3.org/2000/svg" width="24" height="24"><path fill="#FFF" fill-rule="evenodd" d="M12.28 6.58c-.03.25-.06.27-.48.27-.39 0-.45-.03-.48-.22q-.03-.23-.23-.23c-.16 0-.19.07-.19.4 0 .44-.11.73-.42 1.07-.15.16-.22.46-.3 1.27q-.12 1.07-.02 1.16c.18.18 1.45.27 2.44.18.52-.05.98-.13 1.02-.16a5 5 0 0 0-.04-1.2c-.1-1.07-.12-1.14-.43-1.45a1.2 1.2 0 0 1-.39-.84c-.05-.43-.1-.53-.26-.53q-.2-.01-.22.28M4.1 7.83c-.2.82-.25.84-.39.23-.12-.53-.14-.57-.4-.54l-.26.03-.03 1.03C3 9.55 3 9.6 3.2 9.6c.18 0 .2-.07.21-.57l.01-.58.1.42c.1.41.35.65.43.4l.18-.62.15-.5.01.72.01.73h.63l-.07-.77c-.03-.42-.06-.91-.06-1.1 0-.3-.03-.33-.3-.33-.26 0-.3.04-.4.42m3.27-.25c-.03.05-.1.28-.17.53l-.13.45-.14-.47c-.11-.4-.17-.48-.38-.48-.25 0-.25 0-.25.95 0 .89.01.95.2.95s.2-.05.16-.53l-.06-.52.14.4c.18.55.38.51.52-.1.07-.28.13-.47.14-.42.06.2.08.3.09.72s.03.45.27.45c.27 0 .27 0 .2-.61-.03-.34-.06-.8-.06-1 0-.35-.03-.39-.24-.39-.14 0-.27.03-.3.08m6.94.22c0 .23.04.3.2.3.17 0 .2.08.22.72.02.6.06.73.2.76.16.03.18-.06.18-.72 0-.74 0-.76.25-.76.21 0 .25-.05.25-.3v-.3h-1.3zm5.5.65c0 .88.01.95.2.95.16 0 .2-.07.2-.3 0-.25.04-.3.25-.3.22 0 .25.04.25.35q0 .36.15.35c.12 0 .15-.18.15-1s-.03-1-.15-1q-.15-.02-.15.4c0 .37-.02.41-.22.38-.19-.02-.24-.1-.26-.4s-.07-.38-.23-.38c-.17 0-.19.08-.19.95m-3.94-.6q-.16.16-.16.75c0 .5.04.61.22.74.3.22.45.2.73-.09a1 1 0 0 0 0-1.3q-.44-.43-.8-.1m2.05.61c0 .66-.02.75-.17.72s-.19-.16-.21-.7c-.03-.6-.05-.68-.22-.68-.18 0-.2.07-.2.74 0 .82.1 1 .57.94q.53-.04.53-1.1c0-.4-.04-.57-.15-.62-.13-.04-.15.07-.15.7m.66-.6c-.4.39-.3 1.28.17 1.54.24.13.3.13.55 0 .33-.2.43-.6.14-.6q-.18.02-.26.15c-.15.4-.63-.06-.52-.5.08-.32.56-.36.56-.05q0 .2.2.2.21.02.2-.28c0-.53-.68-.83-1.04-.46m-13.4.1Q5 8.12 5 8.6q-.02.82.6.8c.38 0 .53-.23.54-.81 0-.4-.03-.54-.18-.65-.26-.18-.6-.18-.8.02m3.16.16c-.28.28-.1.6.4.73q.26.07.28.21c0 .19-.36.18-.44-.01-.08-.21-.36-.19-.36.03 0 .47.78.6 1.06.17.2-.3.13-.4-.32-.6-.37-.15-.45-.35-.14-.35q.18 0 .2.1.02.09.15.1c.2 0 .2-.36 0-.44-.27-.1-.7-.07-.83.06m-3.02.33c-.14.36-.02.57.29.53q.26-.03.3-.26c.06-.48-.42-.7-.59-.27m10.64 0q-.14.59.33.53c.25-.03.28-.07.28-.38 0-.3-.03-.35-.27-.38-.22-.03-.29.02-.34.22m-1.41 2.36c-.03.1-.11.2-.18.2-.2 0-.29.38-.15.55.13.16.52.2.64.08.04-.04.19-.07.34-.08.44 0 .39-.3-.13-.64-.45-.3-.47-.3-.52-.11m-5.82.54q.01.19.05.1.05-.11.17-.1c.07.03.25.07.41.1q.35.1.17-.07-.15-.16.01-.2c.07-.02-.08-.04-.34-.04-.42 0-.48.03-.47.21m1.39-.04c0 .1.05.2.1.2q.1-.02.1-.17 0-.17.08-.07a1 1 0 0 0 .24.17q.19.07.18-.11.01-.19-.35-.2c-.3-.02-.35 0-.35.18m1.52-.03c.03.15.17.17.96.18.82 0 .92-.01.92-.17 0-.2-.2-.24-.4-.05q-.11.1-.07.01c.08-.14-.66-.15-.75 0q-.08.12-.17-.03-.1-.17-.14 0-.06.15-.06.02-.02-.12-.17-.13-.15.01-.12.17"/></svg>