<svg xmlns="http://www.w3.org/2000/svg" width="24" height="24"><path fill="#FFF" fill-rule="evenodd" d="M3 7.9v1.3h.24c.23 0 .25-.05.28-.47l.03-.48.22.48c.29.62.55.61.9-.03l.23-.45v.48c0 .46 0 .47.3.47h.3V6.6h-.26c-.22 0-.3.1-.6.77l-.37.77-.38-.77c-.33-.65-.43-.77-.64-.77H3zm3.84-1.11c-.32.2-.64.74-.64 1.1 0 .4.28.9.62 1.1.7.43 1.53.18 1.88-.54.25-.51.25-.59 0-1.1a1.3 1.3 0 0 0-1.86-.56m2.76 1.1V9.2h.25c.22 0 .24-.04.27-.57l.03-.57.38.57c.31.48.42.57.67.57.17 0 .3-.03.3-.06s-.14-.25-.31-.5l-.31-.43.2-.27q.42-.5-.01-1c-.2-.23-.34-.28-.85-.32l-.62-.04zm2.6.02v1.3h1.5v-.3c0-.31 0-.31-.47-.29l-.48.03-.03-1.02c-.03-1.01-.03-1.02-.27-1.02h-.25zm2.27-1.24c-.04.04-.07.63-.07 1.3V9.2h1.61l-.03-.27c-.03-.26-.06-.28-.5-.28-.43 0-.48-.02-.48-.22s.05-.23.4-.23c.38 0 .4-.02.4-.3s-.02-.3-.4-.3c-.33 0-.4-.03-.4-.2 0-.16.08-.2.48-.22.43-.03.47-.05.47-.28s-.03-.25-.7-.28c-.4-.01-.74 0-.78.04m2.13 0c0 .04.18.4.4.79.32.58.4.83.4 1.24 0 .48.02.51.25.51s.25-.03.25-.57c0-.47.07-.7.35-1.23.2-.35.35-.68.35-.73s-.12-.07-.28-.05c-.2.02-.32.13-.47.4-.11.21-.23.38-.26.38s-.14-.18-.24-.4c-.15-.33-.23-.4-.47-.4-.15 0-.28.03-.28.06m2.95.19c-.43.42-.32.73.43 1.21.5.33.54.37.38.52-.14.14-.2.14-.52.03-.3-.11-.38-.1-.5.02-.14.13-.12.17.12.36.55.44 1.54.13 1.54-.47q.01-.56-.7-.87c-.4-.18-.52-.41-.26-.51.08-.03.23 0 .34.05q.19.11.38-.04c.18-.15.18-.16-.05-.35a.9.9 0 0 0-1.16.05M7.3 7.17a.77.77 0 0 0-.23 1.33c.63.5 1.46-.18 1.17-.95-.06-.15-.55-.46-.71-.44zm2.8.27q0 .45.4.3c.32-.1.22-.48-.12-.52-.24-.03-.28 0-.28.22M4.1 11c0 .28.03.31.28.28.21-.02.27-.08.27-.28s-.06-.26-.28-.28c-.24-.03-.27 0-.27.28m1 0c0 .26.03.3.28.3q.35 0 .07-.1-.26-.1-.02-.1.16-.01.12-.1-.06-.1-.16-.05-.08.05-.09-.04.01-.1.18-.14.14-.04-.1-.06c-.25 0-.28.03-.28.29m1 0c0 .3 0 .3.25.14.3-.2.28-.38-.03-.42-.19-.03-.22.01-.22.28m.92-.05c-.16.34-.16.32.18.31a1 1 0 0 0 .3-.03c0-.1-.25-.53-.3-.53q-.07.02-.18.25m.88.04c0 .17.04.31.1.31q.09 0 .1-.12 0-.15.12 0 .26.29.23-.15c0-.23-.05-.29-.27-.31-.25-.03-.28 0-.28.27m1.9.01c0 .17.04.3.1.3q.09-.01.1-.1 0-.1.1-.06.07.04.13-.06.05-.12.06.04c.02.31.21.2.21-.12q0-.46-.27-.2-.12.13-.17 0c-.13-.2-.26-.1-.26.2m1.1 0c0 .26.03.3.28.29l.27-.01-.25-.08c-.25-.08-.25-.08-.02-.09q.2-.01.17-.11-.06-.1-.16-.05-.08.05-.09-.04.02-.1.18-.14.15-.04-.1-.06c-.25 0-.28.03-.28.29m.9 0c0 .17.04.3.1.3q.09-.01.1-.18-.02-.24.1 0c.17.28.3.21.3-.14q0-.36-.09-.15c-.06.17-.08.17-.2.03q-.3-.37-.31.14m4.34-.15c-.1.25.04.45.3.45.27 0 .42-.26.25-.46-.15-.19-.48-.18-.55.01m1.06.18q0 .33.09.18.08-.14.15-.02.18.29.23-.19c.02-.26-.01-.3-.22-.3-.22 0-.25.05-.25.33m.9-.03c0 .26.03.3.27.3q.36 0 .08-.1l-.2-.09h.2c.2-.02.2-.02 0-.13-.19-.11-.19-.11 0-.19q.27-.09-.07-.08c-.25 0-.28.03-.28.29"/></svg>