<svg xmlns="http://www.w3.org/2000/svg" width="24" height="24"><path fill="#FFF" fill-rule="evenodd" d="M7.97 2.2a22 22 0 0 0-.47 2.46q0 .25-.2.24c-.25 0-.25.08 0 .4.16.2.2.41.2 1.18 0 .85-.01.92-.2.92-.25 0-.25.08 0 .4.16.21.2.41.2 1.28 0 .94-.02 1.06-.25 1.4-.14.2-.25.47-.25.6 0 .2-.05.22-.5.22H6V16h11.9v-4.7h-1v-.75c0-.73 0-.75-.25-.75-.19 0-.26-.07-.31-.28q-.2-.78-.9-1.4a3 3 0 0 0-1.56-.72c-.14 0-.18-.08-.19-.33 0-.17-.06-.5-.13-.72l-.13-.4-.11.4a3 3 0 0 0-.12.73c0 .25-.04.32-.19.32-.3 0-1.03.29-1.43.57a3 3 0 0 0-1.03 1.5c-.05.26-.12.33-.3.33-.24 0-.25.02-.25.75v.75h-.5c-.45 0-.5-.02-.5-.22 0-.13-.12-.41-.25-.63-.22-.35-.25-.52-.25-1.35 0-.86.03-1 .25-1.33l.26-.37h-.26c-.25 0-.25 0-.25-.86 0-.75.03-.9.25-1.22L9 4.95l-.25-.03c-.2-.03-.25-.09-.25-.35-.01-.5-.47-2.54-.53-2.37m2.65 8.52a.6.6 0 0 0-.12.35c0 .2.05.23.35.23s.35-.03.35-.23c0-.24-.17-.47-.35-.47q-.1 0-.23.12m1 0a.6.6 0 0 0-.12.35c0 .2.05.23.36.23.34 0 .35-.01.32-.32-.03-.36-.33-.5-.56-.26m1.05-.05c-.04.03-.07.2-.07.35 0 .25.03.28.35.28.3 0 .35-.03.35-.23 0-.36-.41-.63-.63-.4m1.05.05a.6.6 0 0 0-.12.35c0 .2.05.23.35.23s.35-.03.35-.23c0-.24-.17-.47-.35-.47q-.1 0-.23.12m.98.07c-.2.38-.13.51.3.51.3 0 .4-.04.4-.16 0-.27-.2-.54-.4-.54-.1 0-.24.09-.3.2m1.12-.08a.6.6 0 0 0-.12.35c0 .2.05.23.35.23s.35-.03.35-.23c0-.24-.17-.47-.35-.47q-.1 0-.23.12m-9.01 3.09c-.28.28-.31.36-.31.95v.64h2v-.64c0-.59-.03-.67-.3-.95-.24-.24-.4-.31-.7-.31s-.46.07-.7.3m3 0c-.27.26-.3.35-.3.94v.66h2v-.61c0-.56-.03-.64-.34-.95-.45-.45-.94-.47-1.37-.05m3.02-.03c-.3.24-.31.3-.31.95v.69h1.9v-.66c0-.6-.03-.68-.3-.95-.38-.38-.86-.4-1.3-.03m3.14-.15c-.34.17-.54.62-.54 1.23v.56h2v-.64c0-.59-.03-.67-.3-.95a.95.95 0 0 0-1.16-.2"/></svg>