<?xml version="1.0" encoding="UTF-8" standalone="no"?>
<svg
   viewBox="0 0 24 24"
   width="24pt"
   height="24pt"
   version="1.1"
   id="svg1"
   sodipodi:docname="mr_diy.svg"
   xml:space="preserve"
   inkscape:version="1.4 (86a8ad7, 2024-10-11)"
   xmlns:inkscape="http://www.inkscape.org/namespaces/inkscape"
   xmlns:sodipodi="http://sodipodi.sourceforge.net/DTD/sodipodi-0.dtd"
   xmlns="http://www.w3.org/2000/svg"
   xmlns:svg="http://www.w3.org/2000/svg"><defs
     id="defs1" /><sodipodi:namedview
     id="namedview1"
     pagecolor="#ffffff"
     bordercolor="#000000"
     borderopacity="0.25"
     inkscape:showpageshadow="2"
     inkscape:pageopacity="0.0"
     inkscape:pagecheckerboard="0"
     inkscape:deskcolor="#d1d1d1"
     inkscape:document-units="pt"
     inkscape:zoom="22.627417"
     inkscape:cx="16.351844"
     inkscape:cy="2.1876116"
     inkscape:window-width="2880"
     inkscape:window-height="1514"
     inkscape:window-x="-11"
     inkscape:window-y="-11"
     inkscape:window-maximized="1"
     inkscape:current-layer="svg1" /><g
     id="g56"
     transform="matrix(0.01140746,0,0,0.01140746,3.6117753,7.8371307)"
     style="fill:#f9f9f9"><path
       d="m 0,0 c 8.4624559,-0.04680914 16.924867,-0.08424031 25.387421,-0.1078186 2.859667,-0.007972 5.719279,-0.0196445 8.578918,-0.0346069 34.369802,-0.16866715 65.568884,3.0092 91.452121,27.8338315 17.57042,17.688275 21.92721,43.227154 21.92579,67.265778 -0.005,1.361929 -0.0103,2.723857 -0.0156,4.085785 -0.002,1.420601 -0.003,2.841211 -0.004,4.261811 -0.004,3.70543 -0.0136,7.41082 -0.0247,11.11624 -0.0103,3.79455 -0.0148,7.58911 -0.0198,11.38367 -0.0107,7.42059 -0.0277,14.84115 -0.0488,22.26172 0.58136,-0.15985 1.16273,-0.31969 1.76172,-0.48438 6.5013,-1.49768 12.65191,-0.34507 19.0625,1 0.69202,0.14196 1.38405,0.28392 2.09704,0.43018 1.69363,0.34793 3.38629,0.70059 5.07874,1.0542 0.0316,-11.62339 0.0252,-23.24609 -0.0285,-34.86941 -0.0238,-5.39854 -0.0349,-10.79647 -0.0162,-16.195047 0.0176,-5.219978 7.3e-4,-10.438858 -0.039,-15.658703 -0.009,-1.981245 -0.006,-3.962587 0.009,-5.943794 0.0793,-11.25549 -0.50621,-19.822025 -6.32812,-29.627819 -3.57746,-6.059327 -3.2523,-12.849345 -2.59718,-19.705231 2.49195,-9.548592 7.52759,-17.591431 15.97265,-22.8515623 8.87794,-4.64248725 16.34998,-5.29905833 26.21411,-5.30957022 1.11784,-0.0049649 2.23567,-0.0099298 3.38738,-0.01504517 3.69014,-0.0145795 7.38023,-0.0214163 11.07039,-0.026947 2.57061,-0.005754 5.14122,-0.0115121 7.71184,-0.017273 4.69968,-0.009157 9.39935,-0.015463 14.09905,-0.0184967 6.89761,-0.004478 13.79502,-0.0220238 20.69256,-0.0510006 5.9929,-0.0242945 11.98569,-0.0319472 17.97864,-0.033675 2.54083,-0.003021 5.08167,-0.0110322 7.62247,-0.0241852 3.5588,-0.0171096 7.11713,-0.0151681 10.67596,-0.00869 1.0429,-0.009215 2.0858,-0.0184296 3.1603,-0.0279236 5.64435,0.0320842 10.23893,0.64093431 15.49272,2.75896079 3.97157,1.2923777 7.63948,0.1679246 11.36292,-1.4072151 5.26189,-1.43023886 10.38599,-1.26215376 15.8156,-1.25790413 1.23166,-0.006717 2.46333,-0.0134345 3.73231,-0.0203552 3.36812,-0.0157153 6.736,-0.0223535 10.10414,-0.0236316 2.10907,-0.001425 4.21812,-0.005702 6.32719,-0.0109944 7.3719,-0.0184882 14.74373,-0.0266725 22.11566,-0.0250969 6.84829,0.0012 13.69627,-0.0198698 20.54449,-0.0514873 5.89749,-0.026248 11.79489,-0.0368763 17.69245,-0.0356018 3.51426,5.0734e-4 7.02824,-0.005048 10.54245,-0.0263561 3.92717,-0.0231632 7.85392,-0.0138096 11.78115,-0.001789 1.14792,-0.011239 2.29584,-0.022478 3.47855,-0.0340576 10.73006,0.0830802 20.6187,2.83341513 28.42502,10.51989713 5.21136,6.170732 8.40902,13.218313 9.23437,21.292969 1.06569,9.356141 7.31228,16.35687 12.76563,23.707031 7.88316,-7.73767 10.24998,-12.312205 10.71484,-23.46875 0.7397,-9.160082 4.72201,-17.130004 11.28516,-23.5312496 7.37095,-5.4435243 14.39331,-8.30801428 23.60669,-8.27465827 0.73744,-0.005111 1.47489,-0.0102219 2.23468,-0.0154877 2.42405,-0.0138345 4.84782,-0.0129435 7.27191,-0.0106354 1.69622,-0.003891 3.39245,-0.008226 5.08867,-0.0129852 3.55145,-0.00745 7.1028,-0.007181 10.65425,-0.001907 4.53243,0.005786 9.06446,-0.0111203 13.59683,-0.0343447 3.50292,-0.0147943 7.00574,-0.0156012 10.50869,-0.0124903 1.67001,-5.106e-4 3.34003,-0.005699 5.01001,-0.0158119 12.44576,-0.0661112 21.81933,0.6946881 31.72749,9.06191447 6.81988,6.8662006 10.56557,15.3383976 10.67578,25.0039056 -0.22097,11.05979 -3.39708,18.148942 -11.01172,26.125 -2.06757,1.913779 -4.08563,3.449132 -6.42578,5 -4.65529,3.277982 -7.02845,7.835576 -9.83594,12.667969 -2.00455,3.429521 -4.25804,6.622421 -6.60156,9.832031 -4.60231,6.316567 -8.93627,12.796184 -13.25,19.312504 -5.73151,8.65223 -11.5653,17.21813 -17.55762,25.69189 -3.65405,5.1701 -7.20656,10.39807 -10.69238,15.68311 0.66,-0.33 1.32,-0.66 2,-1 18.99661,-1.11619 36.87098,2.68847 51.5625,15.4375 13.73139,13.50176 21.16959,29.26075 21.8125,48.625 -0.6047,17.42002 -7.21504,33.1374 -19.58594,45.38281 -14.68247,13.44865 -31.47188,18.34253 -51.05469,17.84765 -7.0916,-0.33163 -13.19741,-2.08883 -19.60937,-5.04296 -3.53624,-1.4145 -4.5522,-1.25552 -8.125,-0.25 -2.49512,1.18739 -4.88708,2.50668 -7.30469,3.84375 -6.46107,2.7717 -13.62988,2.30464 -20.53662,2.30151 -1.60382,0.005 -1.60382,0.005 -3.24004,0.0102 -3.52237,0.009 -7.0447,0.0114 -10.56709,0.0125 -2.45708,0.003 -4.91416,0.007 -7.37125,0.0101 -5.14611,0.006 -10.29221,0.008 -15.43832,0.007 -6.58261,-10e-5 -13.16511,0.0136 -19.74769,0.0308 -5.07359,0.0111 -10.14717,0.0131 -15.22077,0.0126 -2.4264,10e-4 -4.85279,0.006 -7.27917,0.0133 -3.39817,0.01 -6.7961,0.007 -10.19427,9e-4 -0.99457,0.006 -1.98915,0.0112 -3.01387,0.017 -7.71441,-0.0346 -15.16966,-0.62451 -21.83622,-4.82244 -3.09051,-1.92871 -5.58044,-3.13783 -9.25,-3.4375 -2.40758,0.85886 -2.40758,0.85886 -4.8125,2.25 -16.41391,7.87691 -33.8785,6.82824 -50.76172,1.10156 -3.42578,-1.35156 -3.42578,-1.35156 -6.13281,-3.07813 -2.16317,-1.47753 -2.16317,-1.47753 -4.38672,-1.10937 -2.01433,0.88333 -3.62541,1.92217 -5.40625,3.21094 -8.48594,5.43622 -18.43164,6.07258 -28.26026,6.02905 -1.66102,0.0103 -1.66102,0.0103 -3.3556,0.0208 -3.62037,0.0181 -7.2403,0.0145 -10.86071,0.009 -2.53722,0.005 -5.07444,0.01 -7.61166,0.0159 -5.3004,0.009 -10.60064,0.007 -15.90103,-0.003 -6.10321,-0.0115 -12.20598,0.003 -18.30913,0.0294 -5.90642,0.0249 -11.8127,0.0273 -17.71917,0.0209 -2.49814,-1.5e-4 -4.99629,0.006 -7.49439,0.0183 -3.49586,0.0149 -6.99076,0.004 -10.48659,-0.0129 -1.02053,0.01 -2.04106,0.0193 -3.09251,0.0293 -6.93598,-0.0708 -12.14036,-1.64744 -18.40895,-4.531 -3.79021,-1.26341 -5.10859,-0.47612 -8.8125,0.875 -16.543,5.99657 -34.07162,3.85406 -49.87891,-3.14063 -3.92682,-2.05845 -7.1099,-4.4956 -10.34375,-7.51172 -1.92136,-1.45706 -1.92136,-1.45706 -4.375,-1.08594 -2.85336,0.95113 -5.32181,2.17702 -7.96484,3.61329 -18.712211,9.5391 -37.634208,11.70727 -58.268802,11.65405 -2.023899,0.006 -4.047795,0.0127 -6.071686,0.0208 -5.448011,0.0178 -10.895861,0.0168 -16.343893,0.0111 -4.56284,-0.003 -9.12565,0.003 -13.6884859,0.009 -10.7649798,0.014 -21.5298801,0.0125 -32.2948611,0.001 -11.082612,-0.0115 -22.164983,0.003 -33.247564,0.0294 -9.545231,0.0222 -19.090386,0.0288 -28.635641,0.0229 -5.688235,-0.003 -11.376315,-0.001 -17.064527,0.0163 -5.34444,0.0155 -10.68853,0.0115 -16.03295,-0.007 -1.95465,-0.004 -3.90933,-6.1e-4 -5.86395,0.01 -11.15413,0.0553 -21.01428,0.0562 -30.72081,-6.19761 -2.37779,-1.66877 -2.37779,-1.66877 -5.22386,-0.58912 -0.98356,0.48083 -1.96711,0.96165 -2.98047,1.45704 -8.56711,4.10813 -15.98103,5.20065 -25.375,5.1875 -1.01433,5.6e-4 -2.02867,10e-4 -3.07373,0.002 -7.98169,-0.11673 -14.28744,-1.50461 -21.73877,-4.37671 -2.81173,-0.81247 -4.32181,-1.23996 -7.09766,-0.25782 -0.6484,0.37383 -1.2968,0.74766 -1.96484,1.13282 -7.35981,4.16812 -15.38329,3.4906 -23.625,3.6875 -0.82243,0.0202 -1.64487,0.0404 -2.49222,0.0611 -18.42304,0.4323 -36.85218,0.54717 -55.27966,0.60752 -3.31304,0.0111 -6.62594,0.029 -9.93891,0.0525 -3.97067,0.0276 -7.94111,0.0396 -11.91187,0.0404 -1.47911,0.003 -2.95822,0.0103 -4.43727,0.0235 -12.22245,0.10238 -22.4565,-1.40305 -31.86195,-9.7812 -1.16477,-1.15495 -2.28379,-2.35581 -3.39062,-3.5664 -2.8563,1.30113 -4.92211,2.71588 -7.1875,4.875 -6.09173,5.36964 -13.56603,8.23693 -21.66127,8.26544 -0.97406,0.006 -1.94812,0.0114 -2.95169,0.0173 -1.06238,10e-4 -2.12475,0.002 -3.21932,0.003 -1.12408,0.005 -2.24816,0.01 -3.40631,0.015 -3.72386,0.0146 -7.44768,0.0214 -11.17157,0.0269 -2.5911,0.006 -5.1822,0.0115 -7.7733,0.0173 -4.74308,0.009 -9.48614,0.0155 -14.22923,0.0185 -6.95817,0.004 -13.91614,0.022 -20.87425,0.051 -6.04413,0.0243 -12.08818,0.032 -18.13237,0.0337 -2.56151,0.003 -5.12302,0.011 -7.6845,0.0242 -3.59454,0.0172 -7.1886,0.0152 -10.78316,0.009 -1.0482,0.009 -2.0964,0.0184 -3.17637,0.0279 -5.17015,-0.029 -9.44238,-0.4813 -14.36951,-2.09415 -5.07114,-1.54557 -7.93015,-0.88523 -12.81741,0.9106 -4.67697,1.45877 -9.43487,1.21563 -14.29491,1.18736 -1.12817,0.005 -2.25634,0.0105 -3.4187,0.0159 -3.70099,0.0131 -7.40155,0.004 -11.10254,-0.006 -2.58732,0.002 -5.17463,0.005 -7.76195,0.009 -5.41071,0.004 -10.82126,-0.002 -16.23195,-0.016 -6.2349,-0.0163 -12.46951,-0.011 -18.70441,0.005 -6.02604,0.0153 -12.05193,0.0136 -18.07798,0.005 -2.55199,-0.002 -5.10398,4.4e-4 -7.65596,0.007 -3.57039,0.008 -7.14022,-0.004 -10.71057,-0.0207 -1.04597,0.006 -2.09194,0.0122 -3.1696,0.0184 -9.17689,-0.079 -15.94682,-2.00909 -23.43367,-7.40658 -1.32415,-0.68474 -2.65596,-1.35521 -4,-2 -0.47309,0.39832 -0.94617,0.79664 -1.4336,1.20703 -0.66129,0.5298 -1.32257,1.05961 -2.0039,1.60547 -0.63809,0.52207 -1.27617,1.04414 -1.9336,1.58203 -8.9785,5.48316 -18.397,5.06385 -28.52734,5.03906 -1.64231,0.005 -3.28461,0.01 -4.92691,0.0159 -3.43102,0.009 -6.8618,0.007 -10.29282,-0.003 -4.36975,-0.0115 -8.73869,0.009 -13.10834,0.0379 -3.38893,0.0185 -6.77767,0.0181 -10.16664,0.0124 -1.60975,-1.5e-4 -3.21951,0.006 -4.82922,0.0183 -12.4048,0.0827 -22.12676,-1.8874 -32.77763,-8.51461 -0.64067,0.40992 -1.28133,0.81984 -1.94141,1.24218 -0.86496,0.53883 -1.72992,1.07766 -2.62109,1.63282 -0.84692,0.53367 -1.69383,1.06734 -2.56641,1.61718 -5.55534,2.9175 -10.81652,3.75894 -17.04053,3.78247 -0.67907,0.005 -1.35813,0.0102 -2.05778,0.0155 -2.22383,0.0138 -4.44735,0.0129 -6.67122,0.0106 -1.56027,0.004 -3.12055,0.008 -4.68082,0.013 -3.263,0.007 -6.5259,0.007 -9.78891,0.002 -4.16137,-0.006 -8.32229,0.0111 -12.48358,0.0343 -3.2207,0.0148 -6.44128,0.0156 -9.662,0.0125 -1.53326,5.1e-4 -3.06651,0.006 -4.59973,0.0158 -12.87138,0.0746 -22.20881,-1.30205 -31.88652,-10.37832 -7.58204,-7.96196 -9.61497,-16.93072 -9.35938,-27.74219 0.64443,-5.84184 2.33014,-11.60419 5.9336,-16.31641 2.73039,-3.71782 2.56016,-7.56253 2.59745,-12.06317 0.0127,-1.25606 0.0254,-2.51212 0.0384,-3.80624 0.009,-1.38956 0.0181,-2.77912 0.027,-4.16867 0.0128,-1.46543 0.0261,-2.93085 0.0397,-4.39627 0.0356,-3.97949 0.0648,-7.95899 0.0924,-11.93854 0.0175,-2.48795 0.0364,-4.97588 0.0557,-7.46382 0.0675,-8.6846 0.12994,-17.36923 0.18762,-26.05391 0.0538,-8.0866 0.11895,-16.17304 0.18933,-24.25951 0.06,-6.94872 0.11202,-13.89747 0.15793,-20.8463 0.0275,-4.1474 0.0583,-8.294703 0.097,-12.442006 0.0362,-3.903666 0.0625,-7.807276 0.0813,-11.711063 0.009,-1.42862 0.0205,-2.857225 0.0364,-4.285782 0.10874,-10.066358 -0.47133,-17.790798 -5.23699,-26.818623 -4.29192,-8.195559 -5.16005,-15.450843 -3.35938,-24.636719 2.82136,-8.989878 9.41032,-16.958367 17.40187,-22.0010272 8.01311,-4.16423118 16.74989,-4.48611554 25.5847,-4.43793677 1.20474,-0.005257 2.40948,-0.0105139 3.65073,-0.0159302 3.2707,-0.0108602 6.54104,-0.00843 9.81173,0.001137 3.44261,0.007663 6.8852,5.33e-4 10.32781,-0.004158 5.77715,-0.005438 11.55418,0.001683 17.33132,0.0160217 6.65581,0.0163305 13.31135,0.0110272 19.96716,-0.005479 5.74134,-0.0136623 11.48258,-0.0155117 17.22393,-0.007684 3.41739,0.00465 6.83466,0.005377 10.25205,-0.004609 3.81195,-0.007653 7.62337,0.004045 11.43527,0.0207024 1.11561,-0.006073 2.23122,-0.0121454 3.38063,-0.0184021 10.8986,0.0878379 20.31788,2.71039187 29.05468,9.40658517 7.72144,8.00313 11.13843,18.729969 14.75,29 0.41121,1.156289 0.82242,2.312578 1.24609,3.503906 1.00586,2.830451 2.00703,5.662468 3.00391,8.496094 3.60813,-6.878752 6.29721,-13.91771 8.91211,-21.222656 4.10157,-11.1155 9.59582,-20.3972306 20.58789,-25.6523435 7.93561,-3.52434715 15.95627,-3.27758375 24.48706,-3.28613279 1.78678,-0.007447 1.78678,-0.007447 3.60966,-0.0150452 3.25236,-0.0120591 6.50469,-0.0195539 9.75706,-0.0240107 2.03789,-0.002944 4.07578,-0.007051 6.11366,-0.0115042 6.39335,-0.0136552 12.78669,-0.0233312 19.18005,-0.0272019 7.34809,-0.004475 14.69599,-0.0220037 22.04402,-0.0510006 5.70135,-0.0217078 11.40264,-0.0317085 17.10403,-0.0330405 3.39519,-0.001042 6.79021,-0.006811 10.18536,-0.0248196 3.79516,-0.0171594 7.58988,-0.0151558 11.38506,-0.00869 1.10535,-0.009215 2.21071,-0.0184296 3.34955,-0.0279236 5.50116,0.0291853 10.16417,0.52091659 15.44911,2.09414679 4.03792,1.1115685 6.37286,1.4778866 10.30074,0.00298 8.27042,-3.05629841 17.39635,-2.13826952 26.08884,-2.11680612 2.08722,-0.005709 4.17445,-0.0126747 6.26167,-0.0207977 5.65144,-0.017902 11.30273,-0.0167674 16.95419,-0.0110576 4.73318,0.003099 9.46633,-0.003009 14.1995,-0.009039 11.1814,-0.0140367 22.36271,-0.0124937 33.54411,-0.001098 11.49129,0.0114536 22.98235,-0.00255 34.47361,-0.0293965 9.89854,-0.02225 19.797,-0.0287727 29.69557,-0.0229236 5.89708,0.003352 11.79401,0.001075 17.69108,-0.016251 5.55696,-0.0156136 11.11358,-0.0113558 16.67054,0.007305 2.02343,0.003648 4.04688,6.9094e-4 6.07029,-0.009886 23.39471,-0.1128113 46.31479,3.14854782 64.88524,18.51719632 0.80179,0.639375 1.60359,1.27875 2.42968,1.9375 13.50944,11.28061 20.88514,27.870382 23.57032,45.0625 0.56562,6.489159 0.38548,12.995379 0.25,19.5 -0.0201,1.709614 -0.0384,3.419252 -0.0547,5.128906 -0.0434,4.124293 -0.11202,8.247423 -0.19531,12.371103 0.9166,-0.31695 1.83321,-0.6339 2.77758,-0.96045 16.82631,-5.428177 38.22884,-4.503439 55.22242,-0.0395 0.17496,-5.867372 0.30096,-11.73317 0.38452,-17.602548 0.0349,-1.990178 0.0824,-3.980182 0.14355,-5.969726 0.34668,-11.583065 0.22305,-20.602938 -5.91455,-30.663575 -3.56185,-6.101872 -3.59241,-13.787069 -1.92993,-20.541504 3.49911,-10.352142 8.39142,-18.183815 18.31641,-23.2226557 6.68824,-3.0273175 12.33091,-3.44219598 19.62329,-3.43237301 1.14662,-0.0101831 2.29325,-0.0203663 3.47462,-0.030858 3.80204,-0.0301876 7.60384,-0.039409 11.40599,-0.0484877 2.68983,-0.017031 5.37963,-0.0352091 8.06945,-0.0548096 6.44279,-0.044258 12.885548,-0.072904 19.328446,-0.095663 5.175348,-0.0186129 10.350635,-0.0433 15.525935,-0.0723363 1.09801,-0.00616 1.09801,-0.00616 2.218201,-0.0124441 1.478461,-0.008327 2.956922,-0.0166708 4.435383,-0.0250312 C -51.937653,0.2173168 -38.187559,0.15912817 -24.437361,0.11023235 -16.291525,0.081063 -8.1457638,0.0450737 0,0 Z m 332.23096,79.066406 c 0,25.740004 0,51.480004 0,78.000004 5.28,-2.31 10.56,-4.62 16,-7 10.84201,-2.80187 21.96018,-2.76921 33,-1 -5.43705,-8.91185 -11.43897,-17.40497 -17.44532,-25.9375 -3.09252,-4.39473 -6.146,-8.81453 -9.17968,-13.25 -4.37771,-6.39557 -8.82874,-12.736898 -13.3169,-19.055424 -2.16571,-3.053238 -4.3022,-6.111014 -6.34326,-9.249267 -0.5659,-0.827578 -1.1318,-1.655157 -1.71484,-2.507813 -0.33,0 -0.66,0 -1,0 z"
       fill="#fdef00"
       transform="translate(888.76904,0.93359375)"
       id="path1-7"
       style="fill:#f9f9f9" /><path
       d="m 0,0 c 8.4624559,-0.04680914 16.924867,-0.08424031 25.387421,-0.1078186 2.859667,-0.007972 5.719279,-0.0196445 8.578918,-0.0346069 34.369802,-0.16866715 65.568884,3.0092 91.452121,27.8338315 17.57042,17.688275 21.92721,43.227154 21.92579,67.265778 -0.005,1.361929 -0.0103,2.723857 -0.0156,4.085785 -0.002,1.420601 -0.003,2.841211 -0.004,4.261811 -0.004,3.70543 -0.0136,7.41082 -0.0247,11.11624 -0.0103,3.79455 -0.0148,7.58911 -0.0198,11.38367 -0.0107,7.42059 -0.0277,14.84115 -0.0488,22.26172 0.58136,-0.15985 1.16273,-0.31969 1.76172,-0.48438 6.5013,-1.49768 12.65191,-0.34507 19.0625,1 0.69202,0.14196 1.38405,0.28392 2.09704,0.43018 1.69363,0.34793 3.38629,0.70059 5.07874,1.0542 0.0316,-11.62339 0.0252,-23.24609 -0.0285,-34.86941 -0.0238,-5.39854 -0.0349,-10.79647 -0.0162,-16.195047 0.0176,-5.219978 7.3e-4,-10.438858 -0.039,-15.658703 -0.009,-1.981245 -0.006,-3.962587 0.009,-5.943794 0.0793,-11.25549 -0.50621,-19.822025 -6.32812,-29.627819 -3.57746,-6.059327 -3.2523,-12.849345 -2.59718,-19.705231 2.49195,-9.548592 7.52759,-17.591431 15.97265,-22.8515623 8.87794,-4.64248725 16.34998,-5.29905833 26.21411,-5.30957022 1.11784,-0.0049649 2.23567,-0.0099298 3.38738,-0.01504517 3.69014,-0.0145795 7.38023,-0.0214163 11.07039,-0.026947 2.57061,-0.005754 5.14122,-0.0115121 7.71184,-0.017273 4.69968,-0.009157 9.39935,-0.015463 14.09905,-0.0184967 6.89761,-0.004478 13.79502,-0.0220238 20.69256,-0.0510006 5.9929,-0.0242945 11.98569,-0.0319472 17.97864,-0.033675 2.54083,-0.003021 5.08167,-0.0110322 7.62247,-0.0241852 3.5588,-0.0171096 7.11713,-0.0151681 10.67596,-0.00869 1.0429,-0.009215 2.0858,-0.0184296 3.1603,-0.0279236 5.64435,0.0320842 10.23893,0.64093431 15.49272,2.75896079 3.97157,1.2923777 7.63948,0.1679246 11.36292,-1.4072151 5.26189,-1.43023886 10.38599,-1.26215376 15.8156,-1.25790413 1.23166,-0.006717 2.46333,-0.0134345 3.73231,-0.0203552 3.36812,-0.0157153 6.736,-0.0223535 10.10414,-0.0236316 2.10907,-0.001425 4.21812,-0.005702 6.32719,-0.0109944 7.3719,-0.0184882 14.74373,-0.0266725 22.11566,-0.0250969 6.84829,0.0012 13.69627,-0.0198698 20.54449,-0.0514873 5.89749,-0.026248 11.79489,-0.0368763 17.69245,-0.0356018 3.51426,5.0734e-4 7.02824,-0.005048 10.54245,-0.0263561 3.92717,-0.0231632 7.85392,-0.0138096 11.78115,-0.001789 1.14792,-0.011239 2.29584,-0.022478 3.47855,-0.0340576 10.73006,0.0830802 20.6187,2.83341513 28.42502,10.51989713 5.21136,6.170732 8.40902,13.218313 9.23437,21.292969 1.06569,9.356141 7.31228,16.35687 12.76563,23.707031 7.88316,-7.73767 10.24998,-12.312205 10.71484,-23.46875 0.7397,-9.160082 4.72201,-17.130004 11.28516,-23.5312496 7.37095,-5.4435243 14.39331,-8.30801428 23.60669,-8.27465827 0.73744,-0.005111 1.47489,-0.0102219 2.23468,-0.0154877 2.42405,-0.0138345 4.84782,-0.0129435 7.27191,-0.0106354 1.69622,-0.003891 3.39245,-0.008226 5.08867,-0.0129852 3.55145,-0.00745 7.1028,-0.007181 10.65425,-0.001907 4.53243,0.005786 9.06446,-0.0111203 13.59683,-0.0343447 3.50292,-0.0147943 7.00574,-0.0156012 10.50869,-0.0124903 1.67001,-5.106e-4 3.34003,-0.005699 5.01001,-0.0158119 12.44576,-0.0661112 21.81933,0.6946881 31.72749,9.06191447 6.81988,6.8662006 10.56557,15.3383976 10.67578,25.0039056 -0.22097,11.05979 -3.39708,18.148942 -11.01172,26.125 -2.06757,1.913779 -4.08563,3.449132 -6.42578,5 -4.65529,3.277982 -7.02845,7.835576 -9.83594,12.667969 -2.00455,3.429521 -4.25804,6.622421 -6.60156,9.832031 -4.60231,6.316567 -8.93627,12.796184 -13.25,19.312504 -5.73151,8.65223 -11.5653,17.21813 -17.55762,25.69189 -3.65405,5.1701 -7.20656,10.39807 -10.69238,15.68311 0.66,-0.33 1.32,-0.66 2,-1 18.99661,-1.11619 36.87098,2.68847 51.5625,15.4375 13.73139,13.50176 21.16959,29.26075 21.8125,48.625 -0.6047,17.42002 -7.21504,33.1374 -19.58594,45.38281 -14.68247,13.44865 -31.47188,18.34253 -51.05469,17.84765 -7.0916,-0.33163 -13.19741,-2.08883 -19.60937,-5.04296 -3.53624,-1.4145 -4.5522,-1.25552 -8.125,-0.25 -2.49512,1.18739 -4.88708,2.50668 -7.30469,3.84375 -6.46107,2.7717 -13.62988,2.30464 -20.53662,2.30151 -1.60382,0.005 -1.60382,0.005 -3.24004,0.0102 -3.52237,0.009 -7.0447,0.0114 -10.56709,0.0125 -2.45708,0.003 -4.91416,0.007 -7.37125,0.0101 -5.14611,0.006 -10.29221,0.008 -15.43832,0.007 -6.58261,-10e-5 -13.16511,0.0136 -19.74769,0.0308 -5.07359,0.0111 -10.14717,0.0131 -15.22077,0.0126 -2.4264,10e-4 -4.85279,0.006 -7.27917,0.0133 -3.39817,0.01 -6.7961,0.007 -10.19427,9e-4 -0.99457,0.006 -1.98915,0.0112 -3.01387,0.017 -7.71441,-0.0346 -15.16966,-0.62451 -21.83622,-4.82244 -3.09051,-1.92871 -5.58044,-3.13783 -9.25,-3.4375 -2.40758,0.85886 -2.40758,0.85886 -4.8125,2.25 -16.41391,7.87691 -33.8785,6.82824 -50.76172,1.10156 -3.42578,-1.35156 -3.42578,-1.35156 -6.13281,-3.07813 -2.16317,-1.47753 -2.16317,-1.47753 -4.38672,-1.10937 -2.01433,0.88333 -3.62541,1.92217 -5.40625,3.21094 -8.48594,5.43622 -18.43164,6.07258 -28.26026,6.02905 -1.66102,0.0103 -1.66102,0.0103 -3.3556,0.0208 -3.62037,0.0181 -7.2403,0.0145 -10.86071,0.009 -2.53722,0.005 -5.07444,0.01 -7.61166,0.0159 -5.3004,0.009 -10.60064,0.007 -15.90103,-0.003 -6.10321,-0.0115 -12.20598,0.003 -18.30913,0.0294 -5.90642,0.0249 -11.8127,0.0273 -17.71917,0.0209 -2.49814,-1.5e-4 -4.99629,0.006 -7.49439,0.0183 -3.49586,0.0149 -6.99076,0.004 -10.48659,-0.0129 -1.02053,0.01 -2.04106,0.0193 -3.09251,0.0293 -6.93598,-0.0708 -12.14036,-1.64744 -18.40895,-4.531 -3.79021,-1.26341 -5.10859,-0.47612 -8.8125,0.875 -16.543,5.99657 -34.07162,3.85406 -49.87891,-3.14063 -3.92682,-2.05845 -7.1099,-4.4956 -10.34375,-7.51172 -1.92136,-1.45706 -1.92136,-1.45706 -4.375,-1.08594 -2.85336,0.95113 -5.32181,2.17702 -7.96484,3.61329 -18.712211,9.5391 -37.634208,11.70727 -58.268802,11.65405 -2.023899,0.006 -4.047795,0.0127 -6.071686,0.0208 -5.448011,0.0178 -10.895861,0.0168 -16.343893,0.0111 -4.56284,-0.003 -9.12565,0.003 -13.6884859,0.009 -10.7649798,0.014 -21.5298801,0.0125 -32.2948611,0.001 -11.082612,-0.0115 -22.164983,0.003 -33.247564,0.0294 -9.545231,0.0222 -19.090386,0.0288 -28.635641,0.0229 -5.688235,-0.003 -11.376315,-0.001 -17.064527,0.0163 -5.34444,0.0155 -10.68853,0.0115 -16.03295,-0.007 -1.95465,-0.004 -3.90933,-6.1e-4 -5.86395,0.01 -11.15413,0.0553 -21.01428,0.0562 -30.72081,-6.19761 -2.37779,-1.66877 -2.37779,-1.66877 -5.22386,-0.58912 -0.98356,0.48083 -1.96711,0.96165 -2.98047,1.45704 -8.56711,4.10813 -15.98103,5.20065 -25.375,5.1875 -1.01433,5.6e-4 -2.02867,10e-4 -3.07373,0.002 -7.98169,-0.11673 -14.28744,-1.50461 -21.73877,-4.37671 -2.81173,-0.81247 -4.32181,-1.23996 -7.09766,-0.25782 -0.6484,0.37383 -1.2968,0.74766 -1.96484,1.13282 -7.35981,4.16812 -15.38329,3.4906 -23.625,3.6875 -0.82243,0.0202 -1.64487,0.0404 -2.49222,0.0611 -18.42304,0.4323 -36.85218,0.54717 -55.27966,0.60752 -3.31304,0.0111 -6.62594,0.029 -9.93891,0.0525 -3.97067,0.0276 -7.94111,0.0396 -11.91187,0.0404 -1.47911,0.003 -2.95822,0.0103 -4.43727,0.0235 -12.22245,0.10238 -22.4565,-1.40305 -31.86195,-9.7812 -1.16477,-1.15495 -2.28379,-2.35581 -3.39062,-3.5664 -2.8563,1.30113 -4.92211,2.71588 -7.1875,4.875 -6.09173,5.36964 -13.56603,8.23693 -21.66127,8.26544 -0.97406,0.006 -1.94812,0.0114 -2.95169,0.0173 -1.06238,10e-4 -2.12475,0.002 -3.21932,0.003 -1.12408,0.005 -2.24816,0.01 -3.40631,0.015 -3.72386,0.0146 -7.44768,0.0214 -11.17157,0.0269 -2.5911,0.006 -5.1822,0.0115 -7.7733,0.0173 -4.74308,0.009 -9.48614,0.0155 -14.22923,0.0185 -6.95817,0.004 -13.91614,0.022 -20.87425,0.051 -6.04413,0.0243 -12.08818,0.032 -18.13237,0.0337 -2.56151,0.003 -5.12302,0.011 -7.6845,0.0242 -3.59454,0.0172 -7.1886,0.0152 -10.78316,0.009 -1.0482,0.009 -2.0964,0.0184 -3.17637,0.0279 -5.17015,-0.029 -9.44238,-0.4813 -14.36951,-2.09415 -5.07114,-1.54557 -7.93015,-0.88523 -12.81741,0.9106 -4.67697,1.45877 -9.43487,1.21563 -14.29491,1.18736 -1.12817,0.005 -2.25634,0.0105 -3.4187,0.0159 -3.70099,0.0131 -7.40155,0.004 -11.10254,-0.006 -2.58732,0.002 -5.17463,0.005 -7.76195,0.009 -5.41071,0.004 -10.82126,-0.002 -16.23195,-0.016 -6.2349,-0.0163 -12.46951,-0.011 -18.70441,0.005 -6.02604,0.0153 -12.05193,0.0136 -18.07798,0.005 -2.55199,-0.002 -5.10398,4.4e-4 -7.65596,0.007 -3.57039,0.008 -7.14022,-0.004 -10.71057,-0.0207 -1.04597,0.006 -2.09194,0.0122 -3.1696,0.0184 -9.17689,-0.079 -15.94682,-2.00909 -23.43367,-7.40658 -1.32415,-0.68474 -2.65596,-1.35521 -4,-2 -0.47309,0.39832 -0.94617,0.79664 -1.4336,1.20703 -0.66129,0.5298 -1.32257,1.05961 -2.0039,1.60547 -0.63809,0.52207 -1.27617,1.04414 -1.9336,1.58203 -8.9785,5.48316 -18.397,5.06385 -28.52734,5.03906 -1.64231,0.005 -3.28461,0.01 -4.92691,0.0159 -3.43102,0.009 -6.8618,0.007 -10.29282,-0.003 -4.36975,-0.0115 -8.73869,0.009 -13.10834,0.0379 -3.38893,0.0185 -6.77767,0.0181 -10.16664,0.0124 -1.60975,-1.5e-4 -3.21951,0.006 -4.82922,0.0183 -12.4048,0.0827 -22.12676,-1.8874 -32.77763,-8.51461 -0.64067,0.40992 -1.28133,0.81984 -1.94141,1.24218 -0.86496,0.53883 -1.72992,1.07766 -2.62109,1.63282 -0.84692,0.53367 -1.69383,1.06734 -2.56641,1.61718 -5.55534,2.9175 -10.81652,3.75894 -17.04053,3.78247 -0.67907,0.005 -1.35813,0.0102 -2.05778,0.0155 -2.22383,0.0138 -4.44735,0.0129 -6.67122,0.0106 -1.56027,0.004 -3.12055,0.008 -4.68082,0.013 -3.263,0.007 -6.5259,0.007 -9.78891,0.002 -4.16137,-0.006 -8.32229,0.0111 -12.48358,0.0343 -3.2207,0.0148 -6.44128,0.0156 -9.662,0.0125 -1.53326,5.1e-4 -3.06651,0.006 -4.59973,0.0158 -12.87138,0.0746 -22.20881,-1.30205 -31.88652,-10.37832 -7.58204,-7.96196 -9.61497,-16.93072 -9.35938,-27.74219 0.64443,-5.84184 2.33014,-11.60419 5.9336,-16.31641 2.73039,-3.71782 2.56016,-7.56253 2.59745,-12.06317 0.0127,-1.25606 0.0254,-2.51212 0.0384,-3.80624 0.009,-1.38956 0.0181,-2.77912 0.027,-4.16867 0.0128,-1.46543 0.0261,-2.93085 0.0397,-4.39627 0.0356,-3.97949 0.0648,-7.95899 0.0924,-11.93854 0.0175,-2.48795 0.0364,-4.97588 0.0557,-7.46382 0.0675,-8.6846 0.12994,-17.36923 0.18762,-26.05391 0.0538,-8.0866 0.11895,-16.17304 0.18933,-24.25951 0.06,-6.94872 0.11202,-13.89747 0.15793,-20.8463 0.0275,-4.1474 0.0583,-8.294703 0.097,-12.442006 0.0362,-3.903666 0.0625,-7.807276 0.0813,-11.711063 0.009,-1.42862 0.0205,-2.857225 0.0364,-4.285782 0.10874,-10.066358 -0.47133,-17.790798 -5.23699,-26.818623 -4.29192,-8.195559 -5.16005,-15.450843 -3.35938,-24.636719 2.82136,-8.989878 9.41032,-16.958367 17.40187,-22.0010272 8.01311,-4.16423118 16.74989,-4.48611554 25.5847,-4.43793677 1.20474,-0.005257 2.40948,-0.0105139 3.65073,-0.0159302 3.2707,-0.0108602 6.54104,-0.00843 9.81173,0.001137 3.44261,0.007663 6.8852,5.33e-4 10.32781,-0.004158 5.77715,-0.005438 11.55418,0.001683 17.33132,0.0160217 6.65581,0.0163305 13.31135,0.0110272 19.96716,-0.005479 5.74134,-0.0136623 11.48258,-0.0155117 17.22393,-0.007684 3.41739,0.00465 6.83466,0.005377 10.25205,-0.004609 3.81195,-0.007653 7.62337,0.004045 11.43527,0.0207024 1.11561,-0.006073 2.23122,-0.0121454 3.38063,-0.0184021 10.8986,0.0878379 20.31788,2.71039187 29.05468,9.40658517 7.72144,8.00313 11.13843,18.729969 14.75,29 0.41121,1.156289 0.82242,2.312578 1.24609,3.503906 1.00586,2.830451 2.00703,5.662468 3.00391,8.496094 3.60813,-6.878752 6.29721,-13.91771 8.91211,-21.222656 4.10157,-11.1155 9.59582,-20.3972306 20.58789,-25.6523435 7.93561,-3.52434715 15.95627,-3.27758375 24.48706,-3.28613279 1.78678,-0.007447 1.78678,-0.007447 3.60966,-0.0150452 3.25236,-0.0120591 6.50469,-0.0195539 9.75706,-0.0240107 2.03789,-0.002944 4.07578,-0.007051 6.11366,-0.0115042 6.39335,-0.0136552 12.78669,-0.0233312 19.18005,-0.0272019 7.34809,-0.004475 14.69599,-0.0220037 22.04402,-0.0510006 5.70135,-0.0217078 11.40264,-0.0317085 17.10403,-0.0330405 3.39519,-0.001042 6.79021,-0.006811 10.18536,-0.0248196 3.79516,-0.0171594 7.58988,-0.0151558 11.38506,-0.00869 1.10535,-0.009215 2.21071,-0.0184296 3.34955,-0.0279236 5.50116,0.0291853 10.16417,0.52091659 15.44911,2.09414679 4.03792,1.1115685 6.37286,1.4778866 10.30074,0.00298 8.27042,-3.05629841 17.39635,-2.13826952 26.08884,-2.11680612 2.08722,-0.005709 4.17445,-0.0126747 6.26167,-0.0207977 5.65144,-0.017902 11.30273,-0.0167674 16.95419,-0.0110576 4.73318,0.003099 9.46633,-0.003009 14.1995,-0.009039 11.1814,-0.0140367 22.36271,-0.0124937 33.54411,-0.001098 11.49129,0.0114536 22.98235,-0.00255 34.47361,-0.0293965 9.89854,-0.02225 19.797,-0.0287727 29.69557,-0.0229236 5.89708,0.003352 11.79401,0.001075 17.69108,-0.016251 5.55696,-0.0156136 11.11358,-0.0113558 16.67054,0.007305 2.02343,0.003648 4.04688,6.9094e-4 6.07029,-0.009886 23.39471,-0.1128113 46.31479,3.14854782 64.88524,18.51719632 0.80179,0.639375 1.60359,1.27875 2.42968,1.9375 13.50944,11.28061 20.88514,27.870382 23.57032,45.0625 0.56562,6.489159 0.38548,12.995379 0.25,19.5 -0.0201,1.709614 -0.0384,3.419252 -0.0547,5.128906 -0.0434,4.124293 -0.11202,8.247423 -0.19531,12.371103 0.9166,-0.31695 1.83321,-0.6339 2.77758,-0.96045 16.82631,-5.428177 38.22884,-4.503439 55.22242,-0.0395 0.17496,-5.867372 0.30096,-11.73317 0.38452,-17.602548 0.0349,-1.990178 0.0824,-3.980182 0.14355,-5.969726 0.34668,-11.583065 0.22305,-20.602938 -5.91455,-30.663575 -3.56185,-6.101872 -3.59241,-13.787069 -1.92993,-20.541504 3.49911,-10.352142 8.39142,-18.183815 18.31641,-23.2226557 6.68824,-3.0273175 12.33091,-3.44219598 19.62329,-3.43237301 1.14662,-0.0101831 2.29325,-0.0203663 3.47462,-0.030858 3.80204,-0.0301876 7.60384,-0.039409 11.40599,-0.0484877 2.68983,-0.017031 5.37963,-0.0352091 8.06945,-0.0548096 6.44279,-0.044258 12.885548,-0.072904 19.328446,-0.095663 5.175348,-0.0186129 10.350635,-0.0433 15.525935,-0.0723363 1.09801,-0.00616 1.09801,-0.00616 2.218201,-0.0124441 1.478461,-0.008327 2.956922,-0.0166708 4.435383,-0.0250312 C -51.937653,0.2173168 -38.187559,0.15912817 -24.437361,0.11023235 -16.291525,0.081063 -8.1457638,0.0450737 0,0 Z m -152.76904,25.066406 c -2.56789,4.354236 -2.6646,9.067535 -2,14 1.39025,4.218685 3.36961,7.972708 5.6875,11.75 2.29213,3.929363 2.43458,7.900177 2.375,12.372315 -0.0137,1.492288 -0.0137,1.492288 -0.0276,3.014724 -0.0115,1.06466 -0.023,2.12932 -0.0349,3.226242 -0.001,2.271485 2.2e-4,4.542972 0.004,6.814454 0.004,3.568938 -0.004,7.135252 -0.0552,10.703857 -0.0454,3.453536 -0.0333,6.903008 -0.0112,10.356689 -0.0416,1.587881 -0.0416,1.587881 -0.084,3.207843 0.072,4.4904 0.15243,7.39729 3.15088,10.886 2.38208,2.10289 2.38208,2.10289 4.8689,3.84309 3.0755,2.63888 3.94485,5.33453 4.42749,9.28963 0.0317,6.69146 -1.07246,10.6599 -5.23828,16.03516 -3.04506,2.48576 -5.67954,3.728 -9.25,5.3125 -4.18299,1.83105 -4.18299,1.83105 -6.92969,5.24218 -0.53463,2.39814 -0.53463,2.39814 -0.88281,5.94532 -0.50016,0.45632 -1.00032,0.91265 -1.51563,1.38281 -2.16769,2.36164 -1.78257,4.16815 -1.67187,7.30469 0.0406,1.4908 0.0406,1.4908 0.082,3.01171 0.0522,1.13889 0.0522,1.13889 0.10547,2.30079 1.32,0.66 2.64,1.32 4,2 0.25,2.1875 0.25,2.1875 0,5 -0.66,0.70125 -1.32,1.4025 -2,2.125 -3.04092,4.37131 -2.32589,8.70603 -2,13.875 1.32,0.66 2.64,1.32 4,2 -0.39119,2.81652 -0.6616,4.59705 -2.51563,6.80468 -1.90042,2.81063 -1.84907,4.70406 -1.92187,8.07032 -0.35316,5.19021 -0.74908,8.31157 -4.5625,12.125 -9.7435,6.02384 -19.75111,7.11218 -31,6 -4.51399,-1.13836 -8.35231,-2.72722 -12.04297,-5.57813 -2.06384,-1.68015 -2.06384,-1.68015 -5.51953,-2.35937 -3.4375,-1.0625 -3.4375,-1.0625 -5.375,-2.8125 -1.42407,-3.01567 -1.54351,-4.95167 -1.0625,-8.25 1.8671,-2.30276 3.35647,-3.67824 6,-5 0.41746,-2.87365 0.41746,-2.87365 0,-6 -2.37403,-1.80788 -2.37403,-1.80788 -5,-3 -1.5894,-3.17879 -1.41577,-5.49568 -1,-9 1.95927,-1.71437 3.9588,-3.38406 6,-5 0.91691,-2.5446 0.91691,-2.5446 0,-5 -2.38118,-2.22169 -2.38118,-2.22169 -5,-4 -1.37299,-2.74598 -1.12413,-4.95891 -1,-8 0.33,-0.99 0.66,-1.98 1,-3 2.5625,-1.1875 2.5625,-1.1875 5,-2 0,-2.97 0,-5.94 0,-9 -0.73864,-0.20754 -1.47727,-0.41508 -2.23828,-0.62891 -10.82738,-3.28811 -19.49407,-7.733 -26.01172,-17.18359 -1.46612,-4.27619 -1.61459,-8.17261 0.16015,-12.3086 2.06686,-3.51566 3.67063,-5.60496 7.15161,-7.87964 1.99369,-1.65666 2.82906,-2.58056 3.48859,-5.10984 0.19439,-2.62951 0.20255,-5.19866 0.14105,-7.83474 -10e-4,-0.965655 -0.003,-1.931314 -0.004,-2.926235 -0.009,-2.042603 -0.0327,-4.085187 -0.0698,-6.127472 -0.0544,-3.09484 -0.0615,-6.186961 -0.0608,-9.282227 -0.0148,-1.99221 -0.0323,-3.984402 -0.0527,-5.976562 -0.005,-1.367791 -0.005,-1.367791 -0.0101,-2.763214 -0.32853,-15.173246 -6.4613,-29.862678 -17.06801,-40.736786 -6.53684,-6.042101 -13.06646,-10.431048 -21.36328,-13.617188 -0.61948,-0.238799 -1.23895,-0.477597 -1.8772,-0.723633 -12.73858,-4.52389 -25.91087,-4.204706 -39.23291,-4.207763 -2.11522,-0.0076 -4.23044,-0.01606 -6.34566,-0.02522 -5.71459,-0.02184 -11.42913,-0.03073 -17.14376,-0.03583 -3.57413,-0.0037 -7.14824,-0.0099 -10.72237,-0.017 -12.47889,-0.02445 -24.95774,-0.03754 -37.43665,-0.04109 -11.61882,-0.0036 -23.23737,-0.03359 -34.85611,-0.0754 -9.99267,-0.0347 -19.98525,-0.05014 -29.97797,-0.05084 -5.96103,-7.92e-4 -11.9218,-0.0095 -17.88277,-0.038 -5.60213,-0.02617 -11.20377,-0.02839 -16.80594,-0.01234 -2.05225,0.0018 -4.10453,-0.0049 -6.15672,-0.02082 -2.80815,-0.02048 -5.61458,-0.0099 -8.42271,0.0082 -1.20906,-0.0198 -1.20906,-0.0198 -2.44255,-0.04 -5.56202,0.08157 -9.14012,1.591222 -13.82096,4.582592 -1.93822,1.072138 -1.93822,1.072138 -4.93822,1.072138 -1.32734,-0.780349 -2.62737,-1.607715 -3.90868,-2.461548 -5.78482,-3.299746 -11.0165,-3.23018 -17.5525,-3.153686 -1.21742,-0.0055 -2.43483,-0.0111 -3.68914,-0.01681 -3.31453,-0.0097 -6.62748,0.0027 -9.94184,0.02628 -3.48225,0.02023 -6.96447,0.01422 -10.44677,0.01189 -5.84467,5.4e-5 -11.68901,0.01973 -17.53358,0.05188 -6.74104,0.0369 -13.48166,0.04567 -20.22278,0.0387 -6.50713,-0.0063 -13.01411,0.0045 -19.52121,0.02397 -2.75937,0.0081 -5.51868,0.01089 -8.27806,0.0093 -3.85804,-10e-4 -7.7157,0.02322 -11.57366,0.05009 -1.13529,-0.0029 -2.27058,-0.0059 -3.44027,-0.0089 -7.63074,0.08185 -14.93578,0.740772 -20.61026,6.463958 -3.93056,4.26959 -5.79826,9.012889 -7.78125,14.402344 -0.59918,1.559323 -0.59918,1.559323 -1.21045,3.150147 -1.17122,3.064812 -2.32302,6.136241 -3.46765,9.211059 -1.24375,3.331136 -2.50153,6.656953 -3.75763,9.983445 -4.0504,10.728515 -8.06627,21.469713 -12.06427,32.217849 -3.32939,-7.817355 -6.41745,-15.682279 -9.28516,-23.679687 -0.7855,-2.166777 -1.57132,-4.33344 -2.35742,-6.5 -1.21677,-3.3627 -2.43103,-6.726244 -3.63989,-10.091797 -1.18125,-3.284538 -2.37247,-6.565319 -3.56519,-9.845703 -0.3574,-1.003203 -0.71479,-2.006406 -1.08302,-3.040009 -2.42919,-6.652127 -4.94335,-12.39244 -10.44432,-17.092804 -0.54399,-0.479531 -1.08797,-0.959062 -1.64844,-1.453125 -6.16695,-4.046297 -12.81936,-3.587151 -19.91357,-3.571533 -1.19747,-0.0051 -2.39494,-0.01022 -3.6287,-0.01549 -3.27285,-0.01149 -6.54554,-0.01397 -9.81841,-0.01144 -2.73839,0.0011 -5.47675,-0.0038 -8.21514,-0.0086 -6.46416,-0.01108 -12.92827,-0.01154 -19.39244,-0.0055 -6.65404,0.006 -13.30786,-0.0063 -19.96186,-0.02757 -5.72591,-0.01765 -11.45174,-0.02361 -17.17767,-0.02036 -3.41407,0.0018 -6.82799,-7.69e-4 -10.24203,-0.01471 -3.81048,-0.01236 -7.62047,-0.0056 -11.43094,0.006 -1.12131,-0.0076 -2.24261,-0.01529 -3.39789,-0.02316 -7.84976,0.05266 -13.41809,1.120599 -20.04791,5.582977 -4.63068,4.735917 -6.95118,9.123407 -7.1875,15.8125 0.27881,6.268534 2.10336,10.998791 5.5625,16.1875 3.06734,4.601008 3.00207,8.9523 3.02217,14.382736 0.004,0.646502 0.007,1.293003 0.0111,1.959095 0.011,2.158444 0.0149,4.31684 0.0187,6.475308 0.006,1.550996 0.0129,3.101991 0.0199,4.652985 0.021,5.086771 0.0314,10.173542 0.0414,15.260345 0.004,1.754657 0.008,3.509314 0.0123,5.263971 0.019,8.245043 0.0333,16.490073 0.0416,24.735123 0.01,9.50174 0.0361,19.00323 0.0765,28.50488 0.0302,7.35476 0.045,14.70946 0.0483,22.06428 0.002,4.38782 0.0112,8.7754 0.0365,13.16315 0.0234,4.13118 0.0275,8.26195 0.0172,12.39319 -4.9e-4,1.51001 0.006,3.02004 0.0196,4.52998 0.087,10.10178 -0.88725,18.33165 -6.74028,26.80246 -2.86712,4.81267 -2.4465,10.23254 -1.75,15.625 1.95717,6.93695 6.71236,11.3491 12.71045,15.05751 2.9955,1.23309 5.46482,1.21879 8.70361,1.24888 1.95353,0.024 1.95353,0.024 3.94653,0.0485 1.42147,0.006 2.84294,0.0118 4.26441,0.0163 1.46769,0.009 2.93538,0.0181 4.40307,0.0274 3.08002,0.0165 6.15993,0.0242 9.23999,0.0271 3.91594,0.005 7.83082,0.0429 11.74646,0.0888 3.03554,0.03 6.07084,0.037 9.10651,0.038 1.44149,0.004 2.88299,0.0164 4.32434,0.0375 10.18594,0.13696 19.77895,-0.77659 27.90741,-7.55049 1.65447,-1.61486 3.18375,-3.25118 4.64722,-5.03929 1.05187,1.11375 1.05187,1.11375 2.125,2.25 6.80122,6.50551 13.12229,9.05293 22.46582,9.04052 0.73584,0.007 1.47167,0.0134 2.22981,0.0204 2.41923,0.0189 4.83819,0.0229 7.25749,0.025 1.69383,0.006 3.38766,0.0132 5.08148,0.0202 3.54725,0.0119 7.0944,0.0157 10.64167,0.0145 4.52347,-2e-4 9.04631,0.0271 13.56963,0.0616 3.49867,0.0224 6.9972,0.0263 10.49594,0.0252 1.66641,0.002 3.33282,0.0111 4.99916,0.0267 12.16173,0.1029 21.96558,-0.77406 31.134,-9.48405 0.66,-0.66 1.32,-1.32 2,-2 0.54527,0.54269 1.09054,1.08539 1.65234,1.64453 0.7541,0.71543 1.5082,1.43086 2.28516,2.16797 0.7309,0.70769 1.46179,1.41539 2.21484,2.14453 7.17295,5.14602 14.90477,5.48383 23.48267,5.44702 1.12963,0.007 2.25926,0.0137 3.42312,0.0208 3.71122,0.0182 7.42202,0.0144 11.13327,0.009 2.59115,0.005 5.18229,0.01 7.77343,0.0159 5.42087,0.009 10.84159,0.007 16.26246,-0.003 6.25031,-0.0115 12.50018,0.003 18.75043,0.0294 6.03619,0.0249 12.07216,0.0273 18.10841,0.0209 2.5584,-1.5e-4 5.11682,0.006 7.67519,0.0183 3.57801,0.0149 7.15508,0.004 10.73306,-0.0129 1.05114,0.01 2.10227,0.0193 3.18526,0.0293 7.95374,-0.0796 12.80117,-2.18488 19.32036,-6.531 0.70125,0.61875 1.4025,1.2375 2.125,1.875 6.21509,4.59376 12.35723,4.41768 19.78637,4.39965 1.08858,0.005 2.17715,0.0102 3.29871,0.0155 3.59279,0.0139 7.18539,0.0129 10.7782,0.0106 2.50335,0.004 5.0067,0.008 7.51005,0.013 5.24626,0.007 10.49247,0.007 15.73873,0.002 5.37833,-0.005 10.75647,0.002 16.13476,0.0205 6.50382,0.0225 13.00749,0.0302 19.51135,0.0263 2.47384,5.1e-4 4.94769,0.006 7.42151,0.0158 3.46543,0.0124 6.93033,0.006 10.39576,-0.006 1.01485,0.008 2.0297,0.0153 3.0753,0.0232 6.98895,-0.0514 13.88722,-0.70172 19.49379,-5.22751 0.50918,-0.65355 1.01836,-1.3071 1.54297,-1.98046 0.56847,-0.69739 1.13695,-1.39477 1.72265,-2.11329 1.6518,-2.22841 1.6518,-2.22841 3.21485,-5.57421 2.69332,-2.99259 3.70465,-3.09408 7.625,-3.4375 3.39906,0.17581 5.00552,0.314 7.42968,2.7539 0.98133,1.56747 1.91399,3.16625 2.80079,4.78906 3.02495,5.19412 7.7018,8.62883 13.39453,10.39454 3.46185,0.29703 6.91368,0.2731 10.38647,0.25879 1.04448,0.004 2.08896,0.007 3.16509,0.0106 3.45033,0.009 6.90045,0.003 10.35078,-0.004 2.39987,0.001 4.79973,0.003 7.1996,0.006 5.02944,0.003 10.05881,-0.001 15.08824,-0.0107 6.44397,-0.0114 12.88777,-0.005 19.33174,0.007 4.95596,0.007 9.91188,0.005 14.86785,-2.5e-4 2.37584,-10e-4 4.75168,3e-4 7.12751,0.005 3.32238,0.005 6.64449,-0.003 9.96685,-0.0138 0.98045,0.004 1.9609,0.008 2.97107,0.0123 8.65143,-0.0536 14.93263,-1.96636 21.4198,-8.02105 0.37125,-0.4125 0.7425,-0.825 1.125,-1.25 2.99061,1.12148 5.76469,2.41301 8.5625,3.9375 12.65189,6.33781 25.41187,6.538 38.6289,2.27026 4.96838,-1.7316 9.39595,-3.96232 13.79297,-6.87573 1.94721,-1.28682 3.90972,-2.33125 6.01563,-3.33203 0.165,0.70125 0.33,1.4025 0.5,2.125 2.90191,5.562 8.63336,8.96444 14.5,10.875 2.72462,0.19423 5.34686,0.28716 8.07051,0.28088 1.2122,0.009 1.2122,0.009 2.44888,0.018 2.70623,0.0173 5.41227,0.0204 8.11855,0.0234 1.94207,0.009 3.88414,0.0193 5.8262,0.0301 5.28007,0.0262 10.56009,0.0391 15.840217,0.048 3.308035,0.006 6.616057,0.0141 9.924085,0.023 10.375476,0.0274 20.75092,0.0467 31.126429,0.0544 11.926368,0.009 23.852273,0.0438 35.7785,0.102 9.245419,0.0435 18.4907095,0.0634 27.7362298,0.0661 5.5072882,0.002 11.0141412,0.0135 16.5213202,0.0496 45.93649,0.73765 45.93649,0.73765 86.030949,-19.66426 1.57813,-1.03125 1.57813,-1.03125 5.57813,-1.03125 1.38672,1.32031 1.38672,1.32031 2.6875,3.125 6.88685,8.53969 18.47273,14.56675 29.3125,15.875 13.52742,0.83774 24.62694,-1.24509 37,-7 0.70125,0.59812 1.4025,1.19625 2.125,1.8125 6.72264,5.11505 11.84823,5.6268 20.06176,5.59155 1.11784,0.007 2.23567,0.0137 3.38738,0.0208 3.69026,0.0183 7.38009,0.0144 11.07039,0.009 2.57061,0.005 5.14123,0.01 7.71184,0.0159 5.38753,0.009 10.7749,0.007 16.16243,-0.003 6.20989,-0.0115 12.41935,0.003 18.62918,0.0294 5.99294,0.0249 11.98565,0.0273 17.97864,0.0209 2.54083,-1.5e-4 5.08167,0.006 7.62247,0.0183 3.55898,0.0149 7.11701,0.004 10.67596,-0.0129 1.0429,0.01 2.0858,0.0193 3.1603,0.0293 7.29474,-0.0732 13.75136,-1.23393 19.32646,-6.2517 3.46736,-3.61172 4.46557,-6.2559 5.08819,-11.2793 0.65484,0.58007 1.30968,1.16015 1.98437,1.75781 12.28038,10.51117 23.83695,15.80101 40.0625,15.55859 13.15701,-1.05308 23.58989,-6.5991 33.95313,-14.3164 0.53625,1.05187 1.0725,2.10375 1.625,3.1875 2.69461,4.6871 5.86321,7.69208 10.88261,9.93106 4.85817,1.22615 9.50317,1.17636 14.49556,1.17196 1.09833,0.007 2.19665,0.0134 3.32826,0.0204 3.62525,0.019 7.25031,0.0229 10.8756,0.025 2.52577,0.006 5.05154,0.0132 7.57731,0.0202 5.29334,0.012 10.58662,0.0158 15.87996,0.0145 6.10082,-10e-4 12.20128,0.0199 18.302,0.0515 5.88825,0.0294 11.77637,0.0365 17.66468,0.0353 2.49619,0.002 4.99237,0.0112 7.4885,0.0267 3.49668,0.0197 6.99246,0.0138 10.48916,0.002 1.0242,0.0112 2.0484,0.0225 3.10364,0.034 8.19631,-0.0714 14.8228,-1.88984 20.85022,-7.64489 2.65306,-2.50105 2.65306,-2.50105 2.4375,-4.875 1.06927,0.70576 1.06927,0.70576 2.16015,1.42578 13.51673,8.78678 27.02459,13.14018 43.27344,9.88672 14.69841,-4.15503 25.64676,-12.29235 33.56641,-25.3125 6.48795,-14.17441 8.54614,-28.10278 3.2539,-43.03907 -5.35297,-12.64035 -13.96324,-21.8156 -26.2539,-27.96093 -0.80696,-0.41379 -1.61391,-0.82758 -2.44532,-1.25391 -10.59002,-4.64731 -25.63582,-4.50058 -36.55468,-0.74609 -9.2647,3.66365 -16.00746,9.00745 -23,16 -1.14162,-9.41944 1.33772,-14.32446 7,-21.6875 1.47142,-2.00716 2.94009,-4.01634 4.40625,-6.02735 0.75925,-1.02851 1.51851,-2.05702 2.30078,-3.1167 3.76131,-5.19744 7.27118,-10.55708 10.79297,-15.91845 4.382,-6.66393 8.87475,-13.20299 13.59375,-19.6333 2.79744,-3.84004 5.48362,-7.7517 8.15625,-11.6792 0.82625,-1.210916 0.82625,-1.210916 1.66919,-2.446292 3.78635,-5.560307 7.53682,-11.143976 11.26831,-16.741211 0.74177,-1.107828 0.74177,-1.107828 1.49853,-2.238037 2.36092,-3.535114 4.68519,-7.084702 6.93506,-10.69165 4.35674,-6.909875 8.31478,-12.365398 15.15234,-17.109375 4.01051,-3.081754 6.92062,-6.813649 8.22657,-11.710938 0.76686,-7.897389 -0.47264,-12.974938 -4.6875,-19.6875 -6.60399,-6.603989 -13.62992,-6.847679 -22.44861,-6.919586 -1.59005,5.23e-4 -3.1801,0.0024 -4.77014,0.0055 -1.65093,-0.0078 -3.30185,-0.01646 -4.95276,-0.02597 -3.44964,-0.01487 -6.89886,-0.01438 -10.34851,-0.0038 -4.40518,0.0116 -8.80867,-0.02232 -13.21357,-0.06869 -3.40602,-0.02956 -6.81163,-0.03121 -10.21775,-0.02498 -1.62342,-10e-4 -3.24686,-0.01141 -4.87015,-0.03162 -11.42505,-0.294762 -11.42505,-0.294762 -21.10344,5.213337 -0.4579,0.50929 -0.9158,1.018581 -1.38757,1.543304 -1.17563,1.299375 -1.17563,1.299375 -2.375,2.625 -3.97457,5.80898 -3.92879,10.452612 -4.08594,17.453125 -1.22546,8.915682 -7.06712,15.880561 -12.10156,23.109375 -1.33586,1.930144 -2.67054,3.861105 -4.00391,5.792969 -0.88087,1.266866 -0.88087,1.266866 -1.77954,2.559326 -1.71154,2.477004 -1.71154,2.477004 -3.24365,5.273926 -0.69815,1.082208 -0.69815,1.082208 -1.4104,2.186279 -0.66,0 -1.32,0 -2,0 -1.73661,-2.325435 -3.34923,-4.653505 -4.9375,-7.078125 -0.48074,-0.722983 -0.96148,-1.445965 -1.45679,-2.190857 -1.01862,-1.534661 -2.0339,-3.071538 -3.04614,-4.610412 -1.54664,-2.350954 -3.1029,-4.695295 -4.66114,-7.038575 -0.98755,-1.490505 -1.97455,-2.981379 -2.96093,-4.472656 -0.46463,-0.701189 -0.92926,-1.402379 -1.40796,-2.124817 -0.65078,-0.990574 -0.65078,-0.990574 -1.3147,-2.001159 -0.38035,-0.577359 -0.76071,-1.154718 -1.15259,-1.749573 -2.32626,-3.796949 -3.35037,-6.925144 -3.99829,-11.369568 -1.09277,-7.358776 -2.27468,-13.245516 -8.06396,-18.364258 -6.81304,-4.287539 -13.41447,-4.569915 -21.27759,-4.501709 -1.19791,-0.0054 -2.39581,-0.01081 -3.63002,-0.01637 -3.26047,-0.01031 -6.52027,-0.0029 -9.78069,0.01371 -3.42621,0.01394 -6.85238,0.0074 -10.27861,0.0039 -5.75045,-0.0027 -11.5007,0.01071 -17.25111,0.03395 -6.63197,0.02662 -13.26359,0.02835 -19.89559,0.01661 -6.40246,-0.01081 -12.8048,-0.0046 -19.20725,0.0096 -2.71473,0.0057 -5.42937,0.0057 -8.1441,9.35e-4 -3.79583,-0.0029 -7.59109,0.01362 -11.38685,0.0354 -1.11659,-0.0045 -2.23318,-0.009 -3.38361,-0.01364 -8.67637,0.08252 -15.12202,1.397869 -21.76458,7.417694 -2.54172,-1.173098 -4.72884,-2.490849 -7.0625,-4.0625 -3.71664,-2.451396 -6.26041,-3.062443 -10.61028,-3.077942 -0.96019,-0.0057 -1.92038,-0.01142 -2.90967,-0.0173 -1.05198,-0.0011 -2.10396,-0.0022 -3.18782,-0.0034 -1.66387,-0.0074 -1.66387,-0.0074 -3.36136,-0.01504 -3.67878,-0.01463 -7.35753,-0.02143 -11.03634,-0.02695 -2.55488,-0.0058 -5.10975,-0.01151 -7.66463,-0.01727 -4.67682,-0.0092 -9.35364,-0.01547 -14.03047,-0.0185 -6.87105,-0.0045 -13.74189,-0.022 -20.61288,-0.051 -5.96031,-0.02428 -11.92056,-0.03195 -17.88092,-0.03367 -2.5305,-0.003 -5.06099,-0.01105 -7.59146,-0.02419 -3.54496,-0.01709 -7.08945,-0.01517 -10.63444,-0.0087 -1.56279,-0.01382 -1.56279,-0.01382 -3.15715,-0.02792 -6.92746,0.0396 -12.93954,0.671246 -18.50227,5.2164 -5.02663,6.096894 -7.21218,10.95923 -7.01172,18.9375 0.55092,4.839597 2.97647,8.788231 5.37891,12.917969 2.40299,4.24528 2.99629,7.327051 3.03322,12.159363 0.01,0.973126 0.0196,1.946253 0.0297,2.948868 0.009,1.591431 0.009,1.591431 0.0174,3.215011 0.01,1.122245 0.0198,2.24449 0.03,3.400742 0.0316,3.711776 0.0564,7.423564 0.0811,11.135391 0.0206,2.572615 0.0416,5.145227 0.063,7.717835 0.0496,6.080766 0.0948,12.161551 0.13802,18.242361 0.0494,6.92381 0.10432,13.84758 0.15968,20.77135 0.11374,14.24048 0.2206,28.48101 0.32292,42.72158 -0.75273,-0.48429 -1.50547,-0.96857 -2.28101,-1.46753 -1.48319,-0.95 -1.48319,-0.95 -2.99634,-1.91919 -0.9796,-0.62866 -1.95921,-1.25732 -2.9685,-1.90503 -9.99654,-6.20032 -21.15935,-7.74987 -32.75415,-6.70825 -2.3249,0.6061 -4.633,1.28086 -6.91797,2.02343 -1.14622,0.36787 -2.29244,0.73574 -3.47339,1.11475 -0.86085,0.2844 -1.7217,0.5688 -2.60864,0.86182 -0.006,-1.01683 -0.0117,-2.03366 -0.0178,-3.0813 -0.0576,-9.64896 -0.1305,-19.2977 -0.21794,-28.94643 -0.0445,-4.95884 -0.0838,-9.9176 -0.11072,-14.87657 -0.0263,-4.79829 -0.0669,-9.59628 -0.11675,-14.39438 -0.0165,-1.81769 -0.0281,-3.635428 -0.0344,-5.453182 -0.0868,-22.672085 -3.4657,-44.610715 -19.56519,-61.875102 C 95.342955,16.721042 70.284304,12.592988 43.998535,12.662354 c -1.979506,-0.0057 -3.959009,-0.01269 -5.938507,-0.0208 -5.325914,-0.0178 -10.651663,-0.01679 -15.977598,-0.01106 -4.45874,0.0031 -8.917448,-0.003 -13.3761831,-0.009 -10.5155532,-0.01399 -21.0310249,-0.01252 -31.5465789,-0.0011 -10.833874,0.01151 -21.667501,-0.0027 -32.501342,-0.0294 -9.326928,-0.02216 -18.653778,-0.0288 -27.980729,-0.02292 -5.56015,0.0034 -11.12014,9.72e-4 -16.680267,-0.01625 -5.2205,-0.01547 -10.44063,-0.01151 -15.66111,0.0073 -1.91237,0.0037 -3.82477,5.83e-4 -5.73712,-0.0099 -2.61544,-0.01322 -5.22968,-0.0017 -7.84507,0.01599 -0.75176,-0.0096 -1.50351,-0.01921 -2.27805,-0.02911 -9.61989,0.13303 -15.74548,4.974146 -21.24502,12.530311 z"
       fill="#020200"
       transform="translate(888.76904,0.93359375)"
       id="path2-9"
       style="fill:#f9f9f9" /><path
       d="m 0,0 c 38.61,0 77.22,0 117,0 5.61,15.51 11.22,31.02 17,47 3.02981,8.254733 6.06307,16.507287 9.125,24.75 0.68246,1.841082 1.36475,3.682228 2.04687,5.523437 0.33675,0.908588 0.6735,1.817176 1.02045,2.753296 0.65544,1.769388 1.31029,3.538992 1.96448,5.308838 1.61353,4.362529 3.24021,8.719426 4.8891,13.068726 0.49075,1.304722 0.49075,1.304722 0.99142,2.635803 0.61964,1.64698 1.24428,3.29209 1.87482,4.93494 0.41257,1.10145 0.41257,1.10145 0.83347,2.22516 0.24313,0.63979 0.48627,1.27959 0.73678,1.93878 C 158,112 158,112 158,116 c 0.66,0 1.32,0 2,0 0.10909,-0.67072 0.21817,-1.34143 0.33057,-2.03247 0.81475,-3.61173 2.06719,-6.9958 3.38037,-10.448 0.27989,-0.74492 0.55978,-1.48983 0.84816,-2.25732 0.93482,-2.484692 1.87529,-4.967204 2.8159,-7.44971 0.66376,-1.760073 1.32724,-3.520248 1.99048,-5.280518 C 171.57042,82.685497 173.78454,76.842507 176,71 c 0.39923,-1.053164 0.79845,-2.106328 1.20978,-3.191406 C 185.78231,45.196502 194.39113,22.598282 203,0 c 38.61,0 77.22,0 117,0 -1.98,3.96 -3.96,7.92 -6,12 -2.77693,7.69625 -2.28921,15.70234 -2.27466,23.78833 -0.004,1.599078 -0.01,3.198153 -0.0155,4.797226 -0.0133,4.326597 -0.014,8.653106 -0.0114,12.979719 10e-4,3.620495 -0.004,7.240973 -0.009,10.861464 -0.0111,8.546976 -0.0115,17.093908 -0.005,25.640888 0.006,8.796635 -0.006,17.593113 -0.0276,26.389713 -0.0177,7.57056 -0.0236,15.14107 -0.0204,22.71164 0.002,4.51351 -7.6e-4,9.0269 -0.0147,13.54038 -0.0126,4.24774 -0.0106,8.49523 0.002,12.74297 0.002,1.5515 -3.2e-4,3.10302 -0.009,4.65451 C 311.55499,182.29461 313.1314,192.2409 319,203 c 0.33,0.66 0.66,1.32 1,2 -34.65,0 -69.3,0 -105,0 1.65,-3.3 3.3,-6.6 5,-10 5.66899,-13.50196 4.52452,-28.2132 4.40558,-42.56976 -0.0253,-3.57535 -0.0274,-7.15073 -0.0321,-10.72615 -0.0123,-6.74637 -0.0451,-13.49248 -0.0854,-20.23873 -0.045,-7.69061 -0.0668,-15.38124 -0.0868,-23.071947 C 224.15967,82.595456 224.08948,66.797762 224,51 c -0.25744,0.678885 -0.51487,1.357771 -0.78011,2.057228 -2.46685,6.505255 -4.93386,13.010453 -7.40101,19.515593 -1.26735,3.341623 -2.53464,6.683266 -3.80181,10.024957 -7.03051,18.540302 -14.07452,37.075392 -21.14137,55.601882 -3.34923,8.78057 -6.6835,17.56674 -10.01242,26.35503 -1.31529,3.47001 -2.63073,6.93996 -3.9462,10.40991 -0.85523,2.25736 -1.70972,4.51501 -2.56341,6.77295 -1.18634,3.13767 -2.37523,6.27437 -3.56461,9.41089 -0.35442,0.93955 -0.70885,1.87911 -1.07402,2.84713 -0.32926,0.86691 -0.65852,1.73381 -0.99775,2.62699 -0.28484,0.75268 -0.56967,1.50536 -0.86313,2.28085 -0.8466,2.07804 -1.85067,4.08961 -2.85416,6.09659 -20.13,0 -40.26,0 -61,0 -2.94312,-7.06348 -5.84339,-14.05764 -8.46875,-21.23047 -0.312975,-0.84855 -0.625951,-1.6971 -0.94841,-2.57136 -1.030002,-2.79435 -2.056422,-5.59 -3.08284,-8.38567 -0.739103,-2.00725 -1.478449,-4.01441 -2.218018,-6.02148 C 87.69362,162.47918 86.106757,158.1668 84.520996,153.854 81.919806,146.7803 79.313778,139.70838 76.707031,132.63672 73.257901,123.27909 69.809756,113.9211 66.363281,104.5625 62.028314,92.791309 57.692086,81.020583 53.355469,69.25 53.037924,68.388111 52.72038,67.526221 52.393213,66.638214 50.595495,61.758802 48.797757,56.879398 47,52 c -0.09387,16.395487 -0.164186,32.790885 -0.207249,49.18658 -0.02054,7.61457 -0.04848,15.22898 -0.09451,22.84345 -0.04015,6.64475 -0.06574,13.28938 -0.0746,19.93425 -0.0052,3.51123 -0.01712,7.02211 -0.04657,10.53323 C 46.42922,172.87925 46.643531,188.28706 55,205 c -18.15,0 -36.3,0 -55,0 2,-5 2,-5 3,-7.39453 0.33,-0.79793 0.66,-1.59586 1,-2.41797 0.33,-0.7902 0.66,-1.58039 1,-2.39453 3.1409168,-8.77248 3.2916914,-16.98294 3.2746582,-26.19824 0.00435,-1.55805 0.00954,-3.1161 0.015488,-4.67414 0.013345,-4.21509 0.013973,-8.4301 0.011437,-12.64522 -0.00107,-3.52844 0.00382,-7.05687 0.00861,-10.58531 0.011081,-8.33127 0.011541,-16.6625 0.00549,-24.99377 -0.00603,-8.57054 0.00626,-17.140913 0.02757,-25.711423 0.017666,-7.378642 0.023609,-14.757232 0.020362,-22.135895 -0.00181,-4.397841 7.504e-4,-8.795564 0.014715,-13.193386 0.012655,-4.140222 0.010563,-8.280191 -0.00241,-12.42041 -0.00235,-1.510771 3.082e-4,-3.02156 0.00862,-4.53231 C 8.4550262,21.887556 6.2542874,12.508575 0,0 Z"
       fill="#ed1d23"
       transform="translate(36,37)"
       id="path3"
       style="fill:#f9f9f9" /><path
       d="m 0,0 c 25.357408,-0.11713247 50.714775,-0.2051342 76.0724,-0.25906086 11.775682,-0.0257117 23.551196,-0.060727 35.32677,-0.11813641 10.27122,-0.0500511 20.54232,-0.0821448 30.81366,-0.0932452 5.43172,-0.006482 10.86309,-0.0215685 16.2947,-0.0582078 5.12758,-0.0343035 10.25466,-0.0443344 15.38234,-0.0368881 1.86745,-0.001359 3.73492,-0.0110848 5.60227,-0.030489 19.50601,-0.19250157 39.48171,3.01230767 54.17583,16.87337137 9.27194,10.825032 11.64436,23.496986 11.59082,37.310058 0.005,1.68722 0.005,1.68722 0.0106,3.408524 0.009,3.696734 0.003,7.393275 -0.004,11.090011 0.001,2.583955 0.003,5.167909 0.006,7.751862 0.003,5.408261 -0.001,10.81645 -0.0107,16.224701 -0.0109,6.22627 -0.007,12.45241 0.004,18.67868 0.0102,6.02012 0.009,12.04019 0.003,18.06032 -10e-4,2.54755 2.9e-4,5.09509 0.005,7.64263 0.005,3.56998 -0.003,7.13972 -0.0138,10.70968 0.004,1.04035 0.008,2.0807 0.0123,3.15257 -0.0811,14.1778 -3.00438,29.1993 -13.27106,39.69362 -7.47827,6.70613 -16.56375,10.01074 -26,13 -0.97671,0.34748 -1.95341,0.69497 -2.95972,1.05298 -5.39844,1.51165 -10.9509,1.30684 -16.51684,1.36108 -1.29418,0.0194 -2.58836,0.0388 -3.92176,0.0588 -3.63746,0.0529 -7.27496,0.0921 -10.91263,0.1282 -2.32004,0.024 -4.64,0.0517 -6.95999,0.0805 C 109.82587,206.35614 54.906174,206.08787 0,206 0.30413818,205.40381 0.60827637,204.80762 0.92163086,204.19336 2.3156978,201.35788 3.4295079,198.44916 4.5625,195.5 c 0.4344141,-1.12406 0.8688281,-2.24813 1.3164062,-3.40625 1.7337741,-4.78449 2.2487326,-8.59777 2.2615357,-13.72009 0.00297,-0.66466 0.00594,-1.32931 0.009,-2.0141 0.00867,-2.22599 0.010194,-4.45192 0.011688,-6.67792 0.00463,-1.59686 0.00965,-3.19373 0.015045,-4.79059 0.013116,-4.33927 0.019568,-8.67853 0.024011,-13.01782 0.00293,-2.71444 0.00704,-5.42888 0.011504,-8.14333 0.013676,-8.5024 0.023341,-17.0048 0.027202,-25.50722 0.00447,-9.79599 0.021988,-19.591836 0.051001,-29.387782 0.021672,-7.582373 0.031707,-15.164708 0.033041,-22.747113 0.00104,-4.523106 0.00688,-9.046081 0.02482,-13.569154 0.016576,-4.261628 0.018591,-8.523027 0.00986,-12.784676 C 8.356851,38.178031 8.3611234,36.622093 8.3710747,35.0662 8.4493146,22.060152 7.1133383,11.133921 0,0 Z"
       fill="#ed1e23"
       transform="translate(756,36)"
       id="path4"
       style="fill:#f9f9f9" /><path
       d="m 0,0 c 26.391039,-0.04676935 52.782073,-0.08201303 79.173145,-0.10362434 12.254474,-0.0103023 24.508925,-0.0243425 36.763375,-0.0472546 10.6839,-0.019966 21.36778,-0.0328452 32.0517,-0.0372981 5.65437,-0.002602 11.30869,-0.008696 16.96305,-0.0232831 5.32853,-0.0136346 10.65699,-0.0177507 15.98554,-0.0147552 1.94939,-5.4754e-4 3.89877,-0.00449 5.84814,-0.0121956 18.14158,-0.06816 36.22095,0.41128308 49.89864,13.89856694 9.26126,10.138883 10.62718,21.32436 10.61719,34.605469 0.004,1.269787 0.009,2.539574 0.013,3.847839 0.006,2.679606 0.007,5.358825 0.002,8.038391 -0.006,3.399924 0.0111,6.799299 0.0343,10.199131 0.0185,3.284041 0.0145,6.568056 0.0133,9.852139 0.009,1.203521 0.0184,2.407042 0.0279,3.647034 -0.0572,10.598971 -0.81538,20.737261 -8.55916,28.595151 -5.79314,4.91614 -11.78955,5.69801 -19.14453,5.61719 -1.06863,-0.009 -2.13727,-0.0181 -3.23828,-0.0273 -0.80824,-0.0116 -1.61649,-0.0232 -2.44922,-0.0352 5.82978,11.88538 11.81484,23.65117 18.22876,35.23267 2.94124,5.33679 5.78821,10.71048 8.54858,16.14233 0.48665,0.95458 0.48665,0.95458 0.98313,1.92845 1.58681,3.11453 3.16388,6.23332 4.72488,9.36086 3.75795,7.39556 7.93534,14.09507 12.80298,20.78662 C 261,204 261,204 261,206 c -33,0 -66,0 -100,0 -5.28,-11.88 -10.56,-23.76 -16,-36 -3.02533,-6.63336 -6.05486,-13.26263 -9.125,-19.875 C 131.09156,139.81113 126.4288,129.47184 122,119 c -8.91,-0.33 -17.82,-0.66 -27,-1 0.04688,7.93135 0.09775,15.86117 0.183792,23.79195 0.03904,3.69485 0.07158,7.38948 0.0872,11.08451 C 95.358452,172.1014 96.065692,188.14782 104,206 69.679996,206 35.359996,206 -4e-6,206 c 0.66,-1.65 1.32,-3.3 2,-5 0.8598705,-2.16441 1.7137337,-4.33121 2.5625,-6.5 0.4344141,-1.10344 0.8688281,-2.20688 1.3164062,-3.34375 1.7690466,-4.98045 2.2477886,-9.38233 2.2615357,-14.66161 0.00571,-1.31607 0.01142,-2.63215 0.017303,-3.98811 0.00125,-1.45196 0.00237,-2.90393 0.00339,-4.3559 0.00463,-1.53465 0.00966,-3.0693 0.015045,-4.60395 0.013101,-4.1658 0.019565,-8.33159 0.024011,-12.4974 0.00294,-2.60777 0.00704,-5.21552 0.011504,-7.82328 0.013673,-8.17351 0.023339,-16.347 0.027202,-24.52052 0.00447,-9.40712 0.021977,-18.814104 0.051001,-28.221187 0.021697,-7.287736 0.031708,-14.575431 0.033041,-21.863199 0.00104,-4.344305 0.00684,-8.688473 0.02482,-13.032744 0.016618,-4.095032 0.01857,-8.189827 0.00986,-12.284881 -7.632e-4,-1.492196 0.00348,-2.984406 0.013458,-4.476569 C 8.448574,26.505129 7.770511,14.315374 0.98828125,3.671875 0,2 0,2 0,0 Z"
       fill="#ed1d23"
       transform="translate(389,36)"
       id="path5"
       style="fill:#f9f9f9" /><path
       d="m 0,0 c 37.62,0 75.24,0 114,0 0.99,5.94 0.99,5.94 2,12 1.14149,2.902272 2.22321,5.421911 3.6875,8.125 0.35667,0.683203 0.71333,1.366406 1.08081,2.070312 C 123.75348,27.798218 127.23114,32.896495 131,38 c 1.643,2.341842 3.25879,4.702112 4.875,7.0625 0.44698,0.650574 0.89396,1.301147 1.35449,1.971436 4.63113,6.745785 9.23215,13.512116 13.83301,20.278564 0.37921,0.557691 0.75841,1.115381 1.14911,1.689972 C 158.5799,78.369855 158.5799,78.369855 161,82 c 4.0283,-1.342767 5.20135,-3.94562 7.375,-7.375 0.89585,-1.378439 1.79305,-2.756003 2.69141,-4.132813 0.47582,-0.732509 0.95165,-1.465019 1.44189,-2.219726 2.54605,-3.878659 5.17719,-7.698383 7.8042,-11.522461 0.81404,-1.191215 0.81404,-1.191215 1.64453,-2.406494 2.81299,-4.113419 5.64681,-8.21021 8.51563,-12.284912 C 200.5095,27.747774 206.70408,18.142879 208,0 c 19.8,0 39.6,0 60,0 -5,5 -5,5 -7.52344,6.9060059 -2.97167,2.5126201 -4.98509,5.3761671 -7.10156,8.5979001 -0.42377,0.630875 -0.84754,1.261751 -1.28415,1.911743 -1.37091,2.044176 -2.7308,4.095438 -4.09085,6.146851 -0.94983,1.419762 -1.90052,2.838949 -2.85205,4.257568 -1.87567,2.797496 -3.74802,5.597162 -5.61768,8.398682 -3.09952,4.639059 -6.2446,9.246182 -9.40527,13.84375 -1.01321,1.477734 -2.02623,2.955599 -3.03906,4.433594 -0.49919,0.728159 -0.99838,1.456318 -1.5127,2.206543 -2.94699,4.303418 -5.88513,8.612877 -8.82324,12.922363 -0.62036,0.909917 -1.24072,1.819834 -1.87988,2.757324 -4.11117,6.03217 -8.21683,12.068067 -12.32032,18.105469 C 196.53998,99.329814 190.52855,108.17073 184.5,117 c -0.54608,0.80139 -1.09216,1.60279 -1.65479,2.42847 -0.49548,0.72485 -0.99096,1.44971 -1.50146,2.19653 -0.43119,0.63164 -0.86238,1.26328 -1.30664,1.91406 C 179,125 179,125 178,126 c -0.104,1.65475 -0.13853,3.31392 -0.14526,4.97192 -0.006,1.06234 -0.0128,2.12467 -0.0193,3.2192 -0.001,1.16025 -0.002,2.3205 -0.003,3.51591 -0.003,1.19091 -0.007,2.38182 -0.0101,3.60881 -0.005,2.53298 -0.007,5.06597 -0.007,7.59895 -0.002,3.84298 -0.0203,7.68565 -0.0393,11.52857 -0.003,2.46289 -0.005,4.92578 -0.006,7.38867 -0.0108,1.70698 -0.0108,1.70698 -0.0218,3.44844 0.0257,9.15406 0.19438,19.13089 4.81474,27.28203 1.39992,2.52983 2.51868,4.68105 3.4375,7.4375 -34.32,0 -68.64,0 -104,0 0.66,-1.65 1.32,-3.3 2,-5 0.677215,-1.74595 1.343581,-3.49613 2,-5.25 0.33,-0.87141 0.66,-1.74281 1,-2.64063 6.381517,-19.84253 9.247968,-54.24011 -0.183594,-73.15234 -3.085084,-4.78355 -6.731503,-8.90129 -10.786621,-12.88379 C 72.984854,103.96312 70.725241,100.45719 68.375,96.8125 67.512363,95.545068 66.645138,94.280747 65.773437,93.019531 65.332256,92.378384 64.891074,91.737236 64.436523,91.07666 61.6429,87.038155 58.819846,83.020217 56,79 51.848079,73.080661 47.712424,67.151575 43.625,61.1875 37.104028,51.675458 30.517906,42.208993 23.91748,32.751953 22.159561,30.229001 20.408956,27.701152 18.660156,25.171875 13.343066,17.516976 7.8618766,10.179782 1.765625,3.125 0,1 0,1 0,0 Z"
       fill="#ed1e23"
       transform="translate(1232,35)"
       id="path6-5"
       style="fill:#f9f9f9" /><path
       d="m 0,0 c 34.65,0 69.3,0 105,0 -1.98,3.96 -3.96,7.92 -6,12 -2.899379,8.816714 -2.353507,18.165489 -2.414063,27.359375 -0.01903,1.840254 -0.03884,3.680499 -0.05937,5.520737 -0.05231,4.934499 -0.09218,9.86902 -0.128468,14.803661 -0.02312,3.068779 -0.04893,6.137523 -0.07568,9.206272 -0.09916,11.398379 -0.184146,22.796788 -0.259106,34.195345 -0.05001,7.42273 -0.117668,14.84516 -0.192092,22.26767 -0.0631,6.39949 -0.110732,12.79896 -0.144432,19.19868 -0.01934,3.648 -0.04452,7.29568 -0.08622,10.9435 C 95.432693,174.39443 95.632535,189.13856 105,206 c -34.65,0 -69.3,0 -105,0 1.65,-3.63 3.3,-7.26 5,-11 2.5057275,-6.51489 3.1216579,-12.91768 3.147171,-19.86649 0.00368,-0.65426 0.00735,-1.30852 0.011141,-1.9826 0.010935,-2.17287 0.014863,-4.34569 0.018689,-6.51859 0.00627,-1.56612 0.01292,-3.13225 0.019913,-4.69838 0.020951,-5.1264 0.031394,-10.25281 0.041367,-15.37925 0.00405,-1.77131 0.00817,-3.54262 0.01235,-5.31393 0.019032,-8.3246 0.033267,-16.64919 0.041612,-24.9738 C 8.302003,106.68661 8.328315,97.106493 8.368744,87.526224 8.39899,80.101735 8.41372,72.677313 8.417024,65.252764 8.419364,60.82743 8.428197,56.402345 8.453485,51.977077 8.476921,47.808925 8.480937,43.64118 8.470724,39.472979 8.4702323,37.95294 8.476444,36.43288 8.49028,34.912905 8.5924224,23.015304 7.369765,11.738618 0,2 0,1.34 0,0.68 0,0 Z"
       fill="#ed1e23"
       transform="translate(1091,35)"
       id="path7-4"
       style="fill:#f9f9f9" /><path
       d="m 0,0 c 49,0 49,0 58,3 3.893099,3.8930989 5.120569,7.131018 5.140442,12.552155 0.0057,0.933502 0.01142,1.867005 0.0173,2.828796 0.0011,1.022357 0.0022,2.044715 0.0034,3.098053 0.0074,1.617572 0.0074,1.617572 0.01505,3.267822 0.01463,3.576585 0.02143,7.153126 0.02695,10.729736 0.0058,2.48522 0.01151,4.970439 0.01727,7.455658 0.01051,5.217094 0.01635,10.434173 0.01984,15.651276 0.0047,6.674696 0.02949,13.349158 0.05797,20.023798 0.01866,5.137087 0.02383,10.274124 0.02536,15.411242 0.003,2.459893 0.01103,4.919786 0.02419,7.379644 0.01712,3.44897 0.01517,6.89745 0.0087,10.34645 0.01382,1.51532 0.01382,1.51532 0.02792,3.06125 -0.04185,7.1412 -0.61455,14.19348 -5.634369,19.63162 C 41.489507,143.67642 12.737577,138 0,138 0,92.46 0,46.92 0,0 Z"
       fill="#fef100"
       transform="translate(852,70)"
       id="path8"
       style="fill:#f9f9f9" /><path
       d="m 0,0 c 10.421137,4.9275618 17.093088,17.541464 23.447266,26.757812 2.014961,2.909656 4.061441,5.796293 6.109619,8.682618 4.779233,6.736029 9.49226,13.514467 14.158203,20.329345 C 47.441022,61.205061 51.215197,66.60558 55,72 c 4.685398,6.678024 9.333499,13.379333 13.94165,20.11084 3.944527,5.750094 7.962256,11.44731 12.000245,17.13208 0.933642,1.31625 1.861024,2.63698 2.78125,3.96265 1.145286,1.60953 2.372581,3.15996 3.608886,4.70068 2.290892,4.24915 2.114455,7.73041 1.917969,12.46875 -0.01805,0.83145 -0.03609,1.66289 -0.05469,2.51953 C 89.148516,134.93019 89.076783,136.96525 89,139 c -2.504883,-2.47221 -4.936407,-4.97255 -7.25,-7.625 -0.520781,-0.59039 -1.041562,-1.18078 -1.578125,-1.78906 C 79,128 79,128 79,126 78.43668,125.73059 77.873359,125.46117 77.292969,125.18359 74.871142,123.93349 72.615131,122.51972 70.3125,121.0625 65.687936,118.25766 61.181626,116.4729 56,115 55.01,114.67 54.02,114.34 53,114 35.860584,112.3985 22.224866,115.81779 8.7460938,126.84375 3.4023895,131.792 0.16045868,137.48754 -3,144 c -0.33,0 -0.66,0 -1,0 -0.093609,-17.29868 -0.1640599,-34.59729 -0.2072487,-51.89617 -0.02059,-8.032906 -0.048642,-16.065654 -0.094509,-24.098459 -0.039978,-7.004691 -0.065701,-14.009268 -0.074596,-21.01407 -0.0052,-3.70606 -0.017334,-7.411792 -0.046566,-11.117747 -0.032435,-4.145984 -0.033032,-8.291408 -0.031181,-12.437519 -0.014381,-1.217046 -0.028762,-2.434092 -0.043579,-3.688019 C -4.4620134,12.345293 -3.3246988,6.6380516 0,0 Z m 9,32 c 0,25.74 0,51.48 0,78 5.28,-2.31 10.56,-4.62 16,-7 10.842008,-2.80187 21.960178,-2.7692 33,-1 C 52.562955,93.088152 46.561035,84.595037 40.554687,76.0625 37.462164,71.667775 34.408683,67.247973 31.375,62.8125 26.997291,56.416934 22.546261,50.075605 18.058105,43.75708 15.892389,40.703841 13.755902,37.646066 11.714844,34.507812 11.148945,33.680234 10.583047,32.852656 10,32 9.67,32 9.34,32 9,32 Z"
       fill="#020200"
       transform="translate(1212,48)"
       id="path20"
       style="fill:#f9f9f9" /><path
       d="M 0,0 C 2.4370259,2.346988 4.3201111,4.3089726 5.0546875,7.6757812 5.1142219,11.917604 4.8646108,14.0745 2.5859375,17.777344 -10.901952,31.339958 -30.145426,31.793381 -47.993805,31.845764 -63.51301,31.834093 -79.656954,30.181202 -91.476562,18.839844 -94.61972,15.088333 -96.029578,12.649479 -95.828125,7.640625 -95.003037,3.4295647 -92.738214,1.1153917 -89.414062,-1.4726562 -64.459563,-16.520126 -23.874023,-18.817734 0,0 Z"
       fill="#919395"
       transform="translate(745.41406,117.47266)"
       id="path23"
       style="fill:#f9f9f9" /><path
       d="m 0,0 c 7.6867001,-0.06899631 15.372319,-0.12869553 23.059082,-0.16479492 2.612993,-0.0150544 5.225961,-0.0355024 7.838867,-0.0615234 3.763247,-0.0365294 7.526159,-0.053442 11.289551,-0.0666504 1.161768,-0.0154839 2.323535,-0.0309677 3.520508,-0.0469208 C 52.172743,-0.34122057 57.18972,0.05088818 63,3 c 4.159035,6.8961082 3.445864,14.716301 3.375,22.5625 0.0116,1.288418 0.0232,2.576836 0.03516,3.904297 C 66.371081,42.094734 66.371081,42.094734 63,47 c -6.401321,3.770192 -12.661324,3.387688 -19.933594,3.292969 -1.233074,-0.0042 -2.466148,-0.0085 -3.736587,-0.01286 -3.922666,-0.01674 -7.84481,-0.05438 -11.767319,-0.09261 -2.666008,-0.01675 -5.332011,-0.02874 -7.998047,-0.04102 C 13.042608,50.116037 6.5218849,50.057303 0,50 0,33.5 0,17 0,0 Z"
       fill="#fef100"
       transform="translate(485,70)"
       id="path25"
       style="fill:#f9f9f9" /><path
       d="M 0,0 C 1.0306055,0.12761719 1.0306055,0.12761719 2.0820313,0.2578125 9.5338865,1.6394188 15.746849,6.0377524 20.375,11.9375 25.498645,19.494876 27.029859,25.927982 26,35 23.716382,44.082865 18.983055,50.370389 11.1875,55.4375 3.096523,59.549308 -6.4139957,59.558388 -15.066406,57.144531 -22.772131,53.697543 -27.939157,47.843965 -31.4375,40.25 c -2.565975,-7.231385 -2.857355,-14.81332 0,-22 C -25.158133,6.2344638 -13.971245,-1.9450629 0,0 Z"
       fill="#ed1f23"
       transform="translate(1475,182)"
       id="path26-3"
       style="fill:#f9f9f9" /><path
       d="m 0,0 c 4.9161075,2.8494075 7.9638343,5.9989807 10.933594,10.828125 0.592969,0.950039 1.185937,1.900078 1.796875,2.878906 3.486074,6.138115 3.2468,13.240464 1.992187,20.066406 -2.427376,8.195966 -7.1021593,14.1277 -14.41406225,18.484375 -7.84901625,3.722512 -16.61909775,4.67672 -25.01171875,2.132813 -8.57246,-3.990854 -14.356833,-10.176875 -18.300781,-18.6875 -2.106776,-8.913284 -1.333667,-16.505629 3.1875,-24.4375 0.515625,-1.03125 1.03125,-2.0625 1.5625,-3.125 C -28.484441,-3.3823335 -13.619694,-5.9482892 0,0 Z"
       fill="#ed1e23"
       transform="translate(1058.8164,185.73437)"
       id="path27"
       style="fill:#f9f9f9" /><path
       d="M 0,0 C 7.9434201,4.5350226 12.240122,10.507823 15.175781,19.242187 16.5956,28.541456 14.95089,35.724721 9.703125,43.394531 4.7547626,49.676495 -1.9455087,53.694307 -9.8242188,55.242187 -19.135547,56.238663 -26.796784,53.942314 -34.136719,48.117187 -39.306093,43.282671 -43.350597,35.978404 -44.0625,28.859375 -44.331332,18.926733 -41.495016,12.305376 -34.761719,5.0351562 -25.087565,-3.917337 -12.008031,-5.6993927 0,0 Z"
       fill="#ed1f23"
       transform="translate(1269.8242,185.75781)"
       id="path28"
       style="fill:#f9f9f9" /><path
       d="M 0,0 C 0.66,0 1.32,0 2,0 2.6063477,7.0336333 2.6063477,7.0336333 0,11.1875 -11.767928,23.248811 -28.716908,25.063356 -44.647217,25.29248 -62.081592,25.381625 -80.568351,25.260643 -94.0625,12.3125 -97.445594,8.2746141 -98.232399,6.2289827 -98,1 c 3.220902,0.6003875 4.972332,1.6471578 7.5,3.6875 4.85283,3.3540427 9.963415,4.9600895 15.5625,6.625 1.276172,0.381281 1.276172,0.381281 2.578125,0.770264 C -51.410758,18.052713 -28.713282,16.008758 -9,7 -5.6844711,4.9665382 -2.7479929,2.7479929 0,0 Z"
       fill="#b9bbbd"
       transform="translate(748,124)"
       id="path30-1"
       style="fill:#f9f9f9" /><path
       d="M 0,0 C 3.5322837,0.30061989 5.9611279,0.01151765 9.375,-1 15.642488,-2.7289622 20.885552,-2.4457792 27,0 c 0,0.66 0,1.32 0,2 -6.625,3 -6.625,3 -10,3 0,0.66 0,1.32 0,2 0.71543,0.2694141 1.430859,0.5388281 2.167969,0.8164062 2.859901,1.1952416 5.466846,2.5620858 8.144531,4.1210938 0.883008,0.504023 1.766016,1.008047 2.675781,1.527344 C 30.652148,13.971445 31.316016,14.478047 32,15 c 0,0.99 0,1.98 0,3 -5.928613,2.90381 -10.286012,4.170438 -16.863281,2.097656 C 14.101602,19.73543 13.066484,19.373203 12,19 3.8849437,16.163768 -1.2679655,16.755907 -9,20 c -5.255386,1.751795 -9.488888,1.64762 -14.5,-0.5 -0.825,-0.495 -1.65,-0.99 -2.5,-1.5 0,-0.66 0,-1.32 0,-2 2.262985,-1.636676 4.512671,-3.145655 6.875,-4.625 0.650977,-0.420234 1.301953,-0.840469 1.972656,-1.273437 C -12.26839,7 -12.26839,7 -10,7 c 0,-0.66 0,-1.32 0,-2 -4.455,-0.99 -4.455,-0.99 -9,-2 -0.33,-1.32 -0.66,-2.64 -1,-4 6.871779,-1.9791989 13.3449057,-1.4200343 20,1 z"
       fill="#302d2e"
       transform="translate(697,111)"
       id="path31"
       style="fill:#f9f9f9" /><path
       d="M 0,0 C 1.0090016,2.6221957 1.1141695,3.7105158 0.06640625,6.3671875 -5.0446935,14.890112 -11.623354,20.864655 -21.375,23.6875 -30.790327,24.808372 -38.002811,23.439811 -45.75,17.8125 -49.728317,14.532133 -53.062514,10.843715 -55,6 c 0.33,-0.66 0.66,-1.32 1,-2 4.891566,1.4159796 9.227665,3.5479618 13.730469,5.8789063 C -32.620215,13.657484 -21.502449,13.033131 -13.375,10.75 -7.2714993,8.5547914 -2.9652464,5.9304929 0,0 Z"
       fill="#e92222"
       transform="translate(728,218)"
       id="path33"
       style="fill:#f9f9f9" /><path
       d="M 0,0 C 0.99,0.33 1.98,0.66 3,1 -8.796948,13.534257 -21.656104,19.873903 -39.035156,21.238281 -47.284163,21.440515 -47.284163,21.440515 -51.25,19 c -0.5775,-0.66 -1.155,-1.32 -1.75,-2 0.336789,-2.441717 0.799184,-3.773133 2.445313,-5.632812 C -46.593352,9.2472066 -42.784498,9.7754543 -38.375,9.9375 -24.715368,10.153607 -11.607699,7.7384657 0,0 Z"
       fill="#b2b4b6"
       transform="translate(726,199)"
       id="path34"
       style="fill:#f9f9f9" /><path
       d="m 0,0 c 0.99,0.33 1.98,0.66 3,1 -10.8609165,12.067685 -24.664793,18.946116 -41,20 -0.920391,0.06316 -1.840781,0.126328 -2.789062,0.191406 C -48.221556,21.495374 -48.221556,21.495374 -51.75,19.25 -53,17 -53,17 -52.875,14.875 -52,13 -52,13 -50,11 c 2.020996,-0.223633 2.020996,-0.223633 4.523438,-0.203125 0.929414,-0.0075 1.858828,-0.01498 2.816406,-0.02271 1.001601,-0.008 2.003203,-0.01595 3.035156,-0.02417 8.245956,-0.204204 15.733915,-1.1241174 23.625,-3.5625 0.804858,-0.2484668 1.609717,-0.4969336 2.438965,-0.7529297 C -9.819077,5.1933123 -6.4969706,3.7884464 -3.125,1.7382812 -2.09375,1.1646484 -1.0625,0.59101563 0,0 Z"
       fill="#b3b5b7"
       transform="translate(726,154)"
       id="path35"
       style="fill:#f9f9f9" /><path
       d="m 0,0 c -3.9274463,8.904804 -13.391316,13.522808 -22,17 -7.118745,2.387877 -14.096169,3.268047 -21.5625,3.375 -0.679014,0.01402 -1.358027,0.02804 -2.057617,0.04248 C -49.693995,20.377621 -52.037644,19.849289 -55,17 c 0.75,-4.75 0.75,-4.75 3,-7 1.84082,-0.1794434 1.84082,-0.1794434 4.078125,-0.089844 0.824033,0.022478 1.648066,0.044956 2.49707,0.068115 0.882686,0.027795 1.765371,0.05559 2.674805,0.084229 13.888226,0.179099 25.056127,-2.7904851 37.546875,-8.6367188 C -2,0 -2,0 0,0 Z"
       fill="#b5b7b9"
       transform="translate(728,177)"
       id="path36"
       style="fill:#f9f9f9" /><path
       d="m 0,0 c 3.0529151,1.9658429 4.5356215,4.8888012 5.8320312,8.1796875 0.6064358,5.0247535 0.132101,8.0038715 -2.9999999,11.9999995 -2.27967432,2.555999 -3.9269635,3.822357 -7.3359375,4.386719 -5.6872528,0.247643 -9.2920498,-0.451907 -13.6640628,-4.386719 -2.574865,-4.220656 -2.551378,-8.184054 -2,-12.9999995 1.286198,-3.1139536 2.551225,-4.6056213 5.0625,-6.8125 C -10.334601,-1.5614611 -4.8652588,-1.8409087 0,0 Z m -13.167969,4.1796875 c 3.6300003,0 7.2600003,0 11.0000002,0 0.2500001,6.6250005 0.2500001,6.6250005 -1.9999999,10.0000005 1.3199999,1.32 2.6399999,2.639999 3.99999995,3.999999 C 1.9259101,15.332012 2.8441643,13.762073 2.7695313,10.179688 1.6992106,6.7546614 0.2823043,4.7784619 -2.1679688,2.1796875 c -4.610788,-2.30539405 -7.4767803,-1.52321966 -11.0000002,2 z m -2.625,1.4375 c -1.830563,3.4115049 -1.405102,5.7727795 -0.992187,9.5390625 0.499144,2.402644 0.499144,2.402644 3.617187,4.023437 0,-4.949999 0,-9.8999995 0,-14.9999995 -1.236762,-0.110429 -1.236762,-0.110429 -2.625,1.4375 z m 6.6250002,0.5625 c 0,1.32 0,2.64 0,4.0000005 1.6500001,0 3.3000001,0 5.0000001,0 0,-0.9900005 0,-1.9800005 0,-3.0000005 -1.6500001,-0.33 -3.3,-0.66 -5.0000001,-1 z m 0,7.0000005 c 0,1.98 0,3.959999 0,5.999999 -1.3200002,0.33 -2.6400002,0.66 -4.0000002,1 2.287059,1.14353 3.5926479,1.103345 6.1250003,1.0625 1.2787499,-0.02063 2.5575,-0.04125 3.8749999,-0.0625 0.33,-0.66 0.6600001,-1.32 1,-2 -0.6393749,-0.618749 -1.27875,-1.2375 -1.9374999,-1.875 -2.0625,-2.124999 -2.0625,-2.124999 -3.0625,-4.124999 -0.66,0 -1.3200001,0 -2.0000001,0 z"
       fill="#000000"
       transform="translate(1534.168,114.82031)"
       id="path37"
       style="fill:#f9f9f9" /><path
       d="m 0,0 c 0,3.3 0,6.6 0,10 -6.2553042,2.995498 -12.069189,4.971078 -18.875,6.25 -0.874065,0.169109 -1.74813,0.338218 -2.648682,0.512451 C -29.579713,18.244665 -36.956378,18.744913 -45,17 c 0,-1.32 0,-2.64 0,-4 1.258125,-0.07477 2.51625,-0.149531 3.8125,-0.226562 C -27.714202,11.804069 -11.133046,0 0,0 Z"
       fill="#8b8d8f"
       transform="translate(725,166)"
       id="path38"
       style="fill:#f9f9f9" /><path
       d="m 0,0 c 0,3.3 0,6.6 0,10 -5.6157244,3.037596 -10.751959,4.986898 -17,6.25 -1.224811,0.253663 -1.224811,0.253663 -2.474365,0.512451 C -38.266722,20.366639 -38.266722,20.366639 -45,17 c 0,-0.99 0,-1.98 0,-3 0.552363,-0.05946 1.104727,-0.118916 1.673828,-0.180176 C -30.160884,12.339138 -10.668857,0 0,0 Z"
       fill="#8d8f91"
       transform="translate(725,188)"
       id="path39"
       style="fill:#f9f9f9" /><path
       d="M 0,0 C 3.5322837,0.30061989 5.9611279,0.01151765 9.375,-1 15.642488,-2.7289622 20.885552,-2.4457792 27,0 27,0.66 27,1.32 27,2 22.375,4.125 22.375,4.125 19,3 19.66,2.01 20.32,1.02 21,0 13.08,1.485 13.08,1.485 5,3 4.67,6.3 4.34,9.6 4,13 3.67,13 3.34,13 3,13 3,9.7 3,6.4 3,3 -2.94,2.01 -8.88,1.02 -15,0 c 0,0.66 0,1.32 0,2 0.928125,0.12375 1.85625,0.2475 2.8125,0.375 C -9,3 -9,3 -6,5 c 0.2929688,2.6015625 0.2929688,2.6015625 0.1875,5.625 -0.02707,1.002891 -0.054141,2.005781 -0.082031,3.039063 C -5.9293359,14.434922 -5.9641406,15.205781 -6,16 c -0.33,0 -0.66,0 -1,0 0,-2.97 0,-5.94 0,-9 -4.62,3.3 -9.24,6.6 -14,10 5.756295,2.08037 5.756295,2.08037 11,1 0,0.66 0,1.32 0,2 -3.191148,1.595574 -6.527402,1.385844 -10,1 -3.5,-1.5 -3.5,-1.5 -6,-3 0,-0.66 0,-1.32 0,-2 2.262985,-1.636676 4.512671,-3.145655 6.875,-4.625 0.650977,-0.420234 1.301953,-0.840469 1.972656,-1.273437 C -12.26839,7 -12.26839,7 -10,7 c 0,-0.66 0,-1.32 0,-2 -4.455,-0.99 -4.455,-0.99 -9,-2 -0.33,-1.32 -0.66,-2.64 -1,-4 6.871779,-1.9791989 13.3449057,-1.4200343 20,1 z"
       fill="#2f2c2d"
       transform="translate(697,111)"
       id="path40-2"
       style="fill:#f9f9f9" /><path
       d="m 0,0 c -3.0842176,2.056145 -5.5925938,2.9310922 -9.125,4 -1.075078,0.33 -2.150156,0.66 -3.257813,1 C -20.084395,7.1291633 -26.986328,8.3062674 -35,8.1875 -35.857227,8.1868555 -36.714453,8.18621 -37.597656,8.18555 -43.859107,8.1408931 -43.859107,8.1408931 -45,7 c -0.04081,-1.9995836 -0.04254,-4.0004525 0,-6 0.96301,0.00524 1.926021,0.010474 2.918213,0.015869 3.598786,0.018204 7.197568,0.029619 10.796387,0.039063 1.552741,0.00501 3.105478,0.011811 4.658203,0.020508 2.241629,0.012234 4.483196,0.017827 6.724853,0.022217 0.685706,0.00516 1.371412,0.010323 2.077896,0.01564 C -11.816182,1.1139839 -5.9935432,-0.18162252 0,0 Z"
       fill="#85878a"
       transform="translate(725,153)"
       id="path41-3"
       style="fill:#f9f9f9" /><path
       d="M 0,0 C 0.66,0 1.32,0 2,0 1.7455642,3.6469137 1.2186079,5.6967697 -0.9375,8.6875 -9.8099448,15.387101 -20.430095,14.331076 -31,14 c -0.33,-0.66 -0.66,-1.32 -1,-2 1.064766,-0.207539 2.129531,-0.415078 3.226563,-0.628906 C -13.232015,8.2369371 -13.232015,8.2369371 0,0 Z"
       fill="#898a8d"
       transform="translate(723,211)"
       id="path42-3"
       style="fill:#f9f9f9" /><path
       d="m 0,0 c 6.4298163,-0.35071725 10.966822,0.73755841 17,3 0,3.63 0,7.26 0,11 -2.64,0.33 -5.28,0.66 -8,1 C 8.67,11.7 8.34,8.4 8,5 5.36,4.01 2.72,3.02 0,2 0,1.34 0,0.68 0,0 Z"
       fill="#8e9092"
       transform="translate(682,111)"
       id="path43"
       style="fill:#f9f9f9" /><path
       d="m 0,0 c 0,0.66 0,1.32 0,2 -2.64,0.99 -5.28,1.98 -8,3 -0.33,3.3 -0.66,6.6 -1,10 -6.875,-0.875 -6.875,-0.875 -8,-2 -0.07205,-1.68609 -0.08386,-3.3750066 -0.0625,-5.0625 0.009,-0.9191016 0.01805,-1.8382031 0.02734,-2.7851563 C -17.023555,4.4420703 -17.011953,3.7317969 -17,3 -11.102615,0.70657253 -6.3339308,-0.34548714 0,0 Z"
       fill="#b2b4b6"
       transform="translate(718,111)"
       id="path44"
       style="fill:#f9f9f9" /><path
       d="m 0,0 c 6.93,3.96 6.93,3.96 14,8 -1,3 -1,3 -3,4 C 6.7785343,12.281431 3.8270851,11.800981 0,10 0,6.7 0,3.4 0,0 Z"
       fill="#8e9093"
       transform="translate(711,118)"
       id="path45"
       style="fill:#f9f9f9" /><path
       d="m 0,0 c 0,2.97 0,5.94 0,9 -2.9566312,1.256085 -5.8447273,2.366835 -9,3 -3.0625,-1.3125 -3.0625,-1.3125 -5,-3 2.841792,-2.3251025 5.728266,-4.577006 8.6875,-6.75 C -4.7311328,1.8220312 -4.1497656,1.3940625 -3.5507813,0.953125 -2,0 -2,0 0,0 Z"
       fill="#b5b7b9"
       transform="translate(689,119)"
       id="path46-4"
       style="fill:#f9f9f9" /><path
       d="m 0,0 c 0.33,0 0.66,0 1,0 0,3.3 0,6.6 0,10 0.66,0.33 1.32,0.66 2,1 0,0.66 0,1.32 0,2 -4.9757393,1.451257 -9.966437,2.763686 -15,4 0.495,-1.485 0.495,-1.485 1,-3 0.06803,-1.727954 0.08496,-3.458354 0.0625,-5.1875 -0.009,-0.9010547 -0.01805,-1.8021094 -0.02734,-2.7304688 C -10.976445,5.3949609 -10.988047,4.7078906 -11,4 c 0.66,0 1.32,0 2,0 0.33,2.64 0.66,5.28 1,8 2.64,-0.33 5.28,-0.66 8,-1 C 0,7.37 0,3.74 0,0 Z"
       fill="#322e30"
       transform="translate(699,114)"
       id="path47"
       style="fill:#f9f9f9" /><path
       d="M 0,0 C 0.33,0 0.66,0 1,0 1,2.97 1,5.94 1,9 2.11375,9.1546875 2.11375,9.1546875 3.25,9.3125 6.1701402,10.042535 7.7318755,11.067894 10,13 2.8892152,12.353565 -5.0320713,11.610468 -10,6 -2.25,6.875 -2.25,6.875 0,8 0,5.36 0,2.72 0,0 Z"
       fill="#2b2728"
       transform="translate(710,119)"
       id="path48-1"
       style="fill:#f9f9f9" /><path
       d="m 0,0 c 0,0.66 0,1.32 0,2 -0.99,0 -1.98,0 -3,0 0,0.99 0,1.98 0,3 -0.99,0 -1.98,0 -3,0 -0.33,2.64 -0.66,5.28 -1,8 -0.66,-0.33 -1.32,-0.66 -2,-1 0.012851,-3.4247945 0.1596541,-6.6707314 1,-10 4.8205128,-3.5897436 4.8205128,-3.5897436 8,-2 z"
       fill="#3e3c3d"
       transform="translate(717,114)"
       id="path49"
       style="fill:#f9f9f9" /><path
       d="M 0,0 C 3.7348778,0.4979837 5.8123763,0.87491756 9,3 9.2929688,5.6015625 9.2929688,5.6015625 9.1875,8.625 9.16043,9.6278906 9.133359,10.630781 9.105469,11.664063 9.0706641,12.434922 9.0358594,13.205781 9,14 8.67,14 8.34,14 8,14 8,11.03 8,8.06 8,5 6.35,5.66 4.7,6.32 3,7 3,6.34 3,5.68 3,5 3.66,5 4.32,5 5,5 5,4.34 5,3.68 5,3 4.360625,2.87625 3.72125,2.7525 3.0625,2.625 2.381875,2.41875 1.70125,2.2125 1,2 0.67,1.34 0.34,0.68 0,0 Z"
       fill="#2a2728"
       transform="translate(682,113)"
       id="path50"
       style="fill:#f9f9f9" /><path
       d="M 0,0 C 0.66,0 1.32,0 2,0 2.0825,1.27875 2.165,2.5575 2.25,3.875 2.4586993,6.0533342 2.4586993,6.0533342 3,8 4.9206479,9.5899433 4.9206479,9.5899433 7,10 4.3609563,11.413773 1.9287937,12.372401 -1,13 -0.67,12.01 -0.34,11.02 0,10 0.06802967,8.2720465 0.08495645,6.5416463 0.0625,4.8125 0.05347656,3.9114453 0.04445313,3.0103906 0.03515625,2.0820313 0.02355469,1.3949609 0.01195312,0.70789063 0,0 Z"
       fill="#4a484a"
       transform="translate(688,118)"
       id="path51-1"
       style="fill:#f9f9f9" /><path
       d="M 0,0 C 1.65,0.33 3.3,0.66 5,1 5,1.66 5,2.32 5,3 0.375,5.125 0.375,5.125 -3,4 -2.01,2.68 -1.02,1.36 0,0 Z"
       fill="#2e2a2b"
       transform="translate(719,110)"
       id="path52"
       style="fill:#f9f9f9" /><path
       d="m 0,0 c 0,0.66 0,1.32 0,2 -1.32,0.33 -2.64,0.66 -4,1 -0.33,3.3 -0.66,6.6 -1,10 -0.33,0 -0.66,0 -1,0 C -6.33,9.37 -6.66,5.74 -7,2 -3,0 -3,0 0,0 Z"
       fill="#231f20"
       transform="translate(706,111)"
       id="path53"
       style="fill:#f9f9f9" /><path
       d="M 0,0 C 0.886875,0.185625 1.77375,0.37125 2.6875,0.5625 5.8517881,0.98042484 7.9483964,0.80777742 11,0 11,0.66 11,1.32 11,2 7.7854873,3.6072564 4.5638746,3.0574818 1,3 0.67,2.01 0.34,1.02 0,0 Z"
       fill="#282425"
       transform="translate(676,129)"
       id="path54"
       style="fill:#f9f9f9" /><path
       d="m 0,0 c -3.96,1.98 -3.96,1.98 -8,4 0.33,-1.32 0.66,-2.64 1,-4 3,-1 3,-1 7,0 z"
       fill="#181818"
       transform="translate(726,155)"
       id="path55-3"
       style="fill:#f9f9f9" /><path
       d="M 0,0 C 0.99,0.33 1.98,0.66 3,1 3,4.63 3,8.26 3,12 2.67,12 2.34,12 2,12 2,9.03 2,6.06 2,3 1.34,3 0.68,3 0,3 0,2.01 0,1.02 0,0 Z"
       fill="#231f20"
       transform="translate(688,115)"
       id="path56"
       style="fill:#f9f9f9" /></g></svg>
