<?xml version="1.0" encoding="UTF-8" standalone="no"?>
<svg
   viewBox="0 0 24 24"
   width="24pt"
   height="24pt"
   version="1.1"
   id="svg1"
   sodipodi:docname="mr_diy.svg"
   xml:space="preserve"
   inkscape:version="1.4 (86a8ad7, 2024-10-11)"
   xmlns:inkscape="http://www.inkscape.org/namespaces/inkscape"
   xmlns:sodipodi="http://sodipodi.sourceforge.net/DTD/sodipodi-0.dtd"
   xmlns="http://www.w3.org/2000/svg"
   xmlns:svg="http://www.w3.org/2000/svg"><defs
     id="defs1" /><sodipodi:namedview
     id="namedview1"
     pagecolor="#ffffff"
     bordercolor="#000000"
     borderopacity="0.25"
     inkscape:showpageshadow="2"
     inkscape:pageopacity="0.0"
     inkscape:pagecheckerboard="0"
     inkscape:deskcolor="#d1d1d1"
     inkscape:document-units="pt"
     inkscape:zoom="22.627417"
     inkscape:cx="16.30765"
     inkscape:cy="9.2586794"
     inkscape:window-width="2880"
     inkscape:window-height="1514"
     inkscape:window-x="-11"
     inkscape:window-y="-11"
     inkscape:window-maximized="1"
     inkscape:current-layer="svg1" /><g
     id="g15"
     transform="matrix(0.00932264,0,0,0.00932264,6.0813692,3.9093394)"><path
       d="M 0,0 C 0.72537964,0.0062439 1.4507593,0.01248779 2.1981201,0.0189209 89.703432,0.80518164 178.74157,12.596811 345.06555,61.279236 c 2.01021,0.748993 4.02244,1.492372 6.03504,2.234924 C 378.99138,73.823539 406.75288,84.951283 433,99 c 0.88349,0.471958 1.76698,0.943916 2.67725,1.43018 C 455.36651,111.04475 474.4704,123.06901 492,137 c 0.90105,0.71027 1.80211,1.42055 2.73047,2.15234 7.03757,5.64793 13.7293,11.6374 20.26953,17.84766 0.53416,0.50547 1.06831,1.01095 1.61865,1.53174 C 524.91325,166.43687 532.1799,174.7986 539,184 c 0.95133,1.25877 0.95133,1.25877 1.92187,2.54297 C 557.92057,209.81871 569.5169,238.05709 571,267 c 0.0529,0.99516 0.1057,1.99031 0.16016,3.01562 1.02376,38.2799 -16.63321,71.78313 -42.375,99.07422 -0.92711,0.97128 -1.85549,1.94134 -2.78516,2.91016 -0.90879,0.95004 -1.81758,1.90008 -2.75391,2.87891 -5.56337,5.68999 -11.32652,10.91396 -17.59228,15.81787 -1.86048,1.46608 -3.69973,2.95703 -5.54053,4.44775 -64.54738,51.77985 -145.9174,84.86161 -225.1568,106.32483 -1.8775,0.50922 -3.75369,1.02324 -5.62982,1.53748 -16.22367,4.42937 -32.54852,8.06711 -49.04297,11.33642 -2.99061,0.59812 -5.97563,1.21725 -8.95947,1.84815 -9.02476,1.89356 -17.95886,3.39486 -27.13672,4.3164 -3.21304,0.34386 -6.3781,0.84619 -9.5625,1.39453 -8.17982,1.39231 -16.39703,2.4722 -24.625,3.53516 -0.84305,0.10922 -1.68609,0.21844 -2.55469,0.33096 -15.8889,2.04185 -31.79264,3.52043 -47.765806,4.70995 -4.010324,0.30206 -8.015639,0.63814 -12.020324,1.00792 -13.795886,1.27089 -27.563404,2.14917 -41.40918,2.63867 -1.159663,0.0414 -2.319326,0.0827 -3.51413,0.12534 -27.089267,0.91845 -54.191418,1.0032 -81.293808,1.05382 -3.440229,0.008 -6.880397,0.0218 -10.320602,0.037 -39.35558,0.1591 -78.66983,-1.04683 -117.79993,-5.53888 -2.74847,-0.31538 -5.49855,-0.61252 -8.24926,-0.90772 -16.29405,-1.77856 -32.47903,-4.14321 -48.5918,-7.14844 -3.77869,-0.66993 -7.57127,-1.1412 -11.37891,-1.61718 -8.72449,-1.14713 -17.30207,-2.8359 -25.91406,-4.62891 -1.2483,-0.25844 -1.2483,-0.25844 -2.52182,-0.52209 -90.76721,-18.84844 -184.18695,-44.93789 -299.1608,-122.63611 -1.38185,-1.23211 -2.77488,-2.45165 -4.16894,-3.66993 C -576.97824,379.56921 -586.66525,369.96898 -595,359 c -0.45343,-0.59345 -0.90686,-1.1869 -1.37402,-1.79834 C -608.59321,341.05225 -618.25979,323.46843 -624,304 c -0.19674,-0.65774 -0.39349,-1.31549 -0.59619,-1.99316 -9.47866,-32.43667 -6.3222,-66.0676 9.91382,-95.82837 C -601.20282,182.56753 -582.35801,161.70985 -561,145 c 1.09355,-0.90334 2.18456,-1.80977 3.27344,-2.71875 31.23444,-25.88392 68.0421,-44.674377 104.75293,-61.459961 2.55986,-1.170833 5.11536,-2.350253 7.66601,-3.541016 C -368.60664,41.503291 -285.09538,22.786441 -68,1 -66.159944,0.9154053 -66.159944,0.9154053 -64.282715,0.82910156 -42.856843,-0.12441322 -21.441885,-0.21068954 0,0 Z"
       fill="#929497"
       transform="translate(685,47)"
       id="path2" /><path
       d="M 0,0 C 0.66,0 1.32,0 2,0 2.4988672,0.94617188 2.9977344,1.8923437 3.5117188,2.8671875 12.817197,20.156381 24.248367,35.033124 38,49 c 1.055305,1.093155 2.110011,2.186887 3.164062,3.28125 C 47.391654,58.690305 53.953732,64.496638 61,70 c 0.913945,0.7425 1.827891,1.485 2.769531,2.25 19.937438,15.887238 42.207099,28.59831 65.091799,39.70508 2.24718,1.09794 4.48166,2.21956 6.71679,3.3418 21.15988,10.49319 43.34622,18.52988 65.77662,25.83496 9.37631,3.0653 18.65035,6.36715 27.91418,9.75634 12.33411,4.51162 24.63414,8.85639 37.28182,12.41872 2.40339,0.68012 4.80354,1.37055 7.20292,2.06468 12.24519,3.53635 24.52567,6.89817 36.87134,10.06592 0.91589,0.23551 1.83178,0.47101 2.77542,0.71365 16.89353,4.32496 33.86448,7.9375 50.99802,11.16281 4.04388,0.77029 8.07434,1.59525 12.10473,2.43262 18.33857,3.79241 36.91332,6.04115 55.49683,8.25342 1.5796,0.19031 3.15919,0.38075 4.73877,0.57129 20.07981,2.41454 40.15464,4.6537 60.32373,6.17871 0.77586,0.0589 1.55173,0.11779 2.3511,0.17847 4.46766,0.33478 8.93639,0.64455 13.40741,0.93078 1.42692,0.0922 2.85363,0.18751 4.28009,0.28638 16.38379,1.12544 32.79692,1.10145 49.2114,1.10437 0.76194,2.9e-4 1.52389,5.9e-4 2.30892,8.9e-4 66.61997,0.004 133.66292,-4.04953 199.61955,-13.71891 5.36129,-0.75873 10.73431,-1.40468 16.11084,-2.04541 5.00013,-0.66688 9.9359,-1.61341 14.88256,-2.59204 3.58477,-0.69015 7.17769,-1.29883 10.78125,-1.88281 36.28201,-5.92021 72.6779,-13.74433 107.61792,-25.24951 2.84607,-0.91669 5.70524,-1.78598 8.56568,-2.65674 C 957.72807,149.43215 988.29495,137.31282 1018,123 c 1.0179,-0.48968 2.0358,-0.97937 3.0845,-1.48389 C 1036.067,114.2651 1050.6247,106.38596 1065,98 c 1.0387,-0.602476 2.0773,-1.204951 3.1475,-1.825684 C 1081.9817,88.124274 1095.2447,79.669835 1108,70 c 1.1544,-0.858766 2.3094,-1.716876 3.4648,-2.574219 22.055,-16.503337 42.4047,-35.445368 56.7203,-59.1604001 C 1169.0744,6.8124682 1170.0311,5.401145 1171,4 c 0.66,0 1.32,0 2,0 7.6066,16.911948 13.0446,34.35446 14,53 0.053,0.995156 0.1057,1.990313 0.1602,3.015625 1.0237,38.279892 -16.6332,71.783125 -42.375,99.074215 -0.9272,0.97128 -1.8555,1.94134 -2.7852,2.91016 -0.9088,0.95004 -1.8176,1.90008 -2.7539,2.87891 -5.5634,5.68999 -11.3265,10.91396 -17.5923,15.81787 -1.8605,1.46608 -3.6997,2.95703 -5.5405,4.44775 -64.5474,51.77985 -145.91742,84.86161 -225.15682,106.32483 -1.8775,0.50922 -3.75369,1.02324 -5.62982,1.53748 -16.22367,4.42937 -32.54852,8.06711 -49.04297,11.33642 -2.99061,0.59812 -5.97563,1.21725 -8.95947,1.84815 -9.02476,1.89356 -17.95886,3.39486 -27.13672,4.3164 -3.21304,0.34386 -6.3781,0.84619 -9.5625,1.39453 -8.17982,1.39231 -16.39703,2.4722 -24.625,3.53516 -1.26457,0.16383 -1.26457,0.16383 -2.55469,0.33096 -15.8889,2.04185 -31.79264,3.52043 -47.76581,4.70995 -4.01032,0.30206 -8.01564,0.63814 -12.02032,1.00792 -13.79589,1.27089 -27.5634,2.14917 -41.40918,2.63867 -1.15966,0.0414 -2.31933,0.0827 -3.51413,0.12534 -27.08927,0.91845 -54.19142,1.0032 -81.29381,1.05382 -3.44023,0.008 -6.88039,0.0218 -10.3206,0.037 -39.35558,0.1591 -78.66983,-1.04683 -117.79993,-5.53888 -2.74847,-0.31538 -5.49855,-0.61252 -8.24926,-0.90772 -16.29405,-1.77856 -32.47903,-4.14321 -48.5918,-7.14844 -3.77869,-0.66993 -7.57127,-1.1412 -11.37891,-1.61718 -8.72449,-1.14713 -17.30207,-2.8359 -25.91406,-4.62891 -0.8322,-0.17229 -1.6644,-0.34458 -2.52182,-0.52209 C 261.89847,286.12947 168.47873,260.04002 53.504883,182.3418 52.123027,181.10969 50.730002,179.89015 49.335937,178.67187 39.021762,169.56921 29.334754,159.96898 21,149 20.546572,148.40655 20.093145,147.8131 19.625977,147.20166 7.4067903,131.05225 -2.259793,113.46843 -8,94 -8.1967432,93.342256 -8.3934863,92.684512 -8.5961914,92.006836 -16.883967,63.645466 -16.610291,31.579286 -2.8862305,4.8291016 -1.9578939,3.1997094 -0.98416392,1.5962922 0,0 Z"
       fill="#bbbdbf"
       transform="translate(69,257)"
       id="path3" /><path
       d="M 0,0 C 1.8353633,0.64096955 3.6713586,1.2801306 5.5078125,1.9179687 14.173791,4.963109 22.78064,8.1665199 31.382812,11.386719 93.49111,36.811618 93.49111,36.811618 158.25,31.8125 c 1.78291,-0.586876 3.56676,-1.170867 5.35156,-1.751953 3.48521,-1.13683 6.96595,-2.286076 10.44458,-3.442871 C 181.3089,24.222525 188.64772,22.100718 196,20 c 1.10328,-0.317351 2.20655,-0.634702 3.34326,-0.96167 2.98737,-0.854852 5.9773,-1.699643 8.96924,-2.53833 1.05905,-0.296968 2.11809,-0.593936 3.20923,-0.899902 7.4329,-2.068198 14.89107,-3.996618 22.38525,-5.8288578 5.27377,-1.2949485 10.49806,-2.7129234 15.71802,-4.2087402 8.87757,-2.5370296 17.86181,-4.57728886 26.86963,-6.595459 1.07427,-0.2417798 2.14854,-0.4835595 3.25537,-0.732666 0.96422,-0.2143066 1.92844,-0.4286133 2.92187,-0.6494141 C 285.0036,-2.9118939 285.0036,-2.9118939 287,-4 c 14.81853,-0.9802774 29.56332,-0.4789422 44,3 0.88687,0.20399414 1.77375,0.40798828 2.6875,0.61816406 11.75466,2.71352644 23.26162,5.90679054 34.7124,9.69628904 8.87745,2.8864049 17.89772,5.1135639 26.97217,7.2888179 C 414.35457,21.177022 414.35457,21.177022 419,28 c 1.73818,3.476362 1.45509,7.199041 1,11 -3.81632,7.779417 -10.74317,10.539739 -18.46875,13.300781 -0.84437,0.309285 -1.68873,0.618569 -2.55869,0.937226 -2.82164,1.031943 -5.64712,2.052994 -8.47256,3.074493 -2.00571,0.731897 -4.01107,1.464751 -6.01611,2.198486 -3.24734,1.188269 -6.49489,2.375937 -9.74344,3.560898 -13.18793,4.812014 -26.34693,9.701747 -39.50681,14.589829 -4.0364,1.499187 -8.07344,2.996636 -12.11059,4.493805 C 310.74038,85.748237 298.35975,90.345898 286,95 c 2.94819,2.402042 5.89709,4.676494 9.08984,6.74219 0.77272,0.50144 1.54543,1.00289 2.34156,1.51953 1.24052,0.79857 1.24052,0.79857 2.5061,1.61328 1.31303,0.84885 1.31303,0.84885 2.65259,1.71484 2.80059,1.80764 5.60457,3.6099 8.40991,5.41016 0.90621,0.58169 1.81242,1.16338 2.74609,1.7627 12.40556,7.95148 24.88641,15.77529 37.43457,23.49951 2.99208,1.84427 5.98009,3.69502 8.96778,5.54638 14.46788,8.95217 29.04148,17.70055 43.70166,26.3335 2.92227,1.72365 5.83989,3.45482 8.75537,5.18994 9.57519,5.69303 19.19865,11.29447 28.87625,16.81134 1.81208,1.03346 3.62321,2.06857 5.43405,3.10419 5.15592,2.94751 10.31575,5.88623 15.5022,8.77978 1.52754,0.86554 3.0549,1.7314 4.58203,2.59766 0.66943,0.36505 1.33885,0.73009 2.02856,1.1062 4.85903,2.78384 7.82284,6.01955 9.70191,11.33521 0.32097,2.30262 0.51396,4.54585 0.58203,6.87109 0.0561,1.25104 0.0561,1.25104 0.11328,2.52734 -0.60303,3.59051 -1.79806,5.0096 -4.42578,7.53516 -2.72742,1.50308 -5.59569,2.57411 -8.5,3.6875 -9.6332,3.8965 -18.87486,8.41315 -28.13336,13.1116 C 388.05127,277.3305 388.05127,277.3305 366,279 c -1.14445,0.12955 -1.14445,0.12955 -2.31201,0.26172 -19.14852,2.01679 -35.06883,-3.98915 -52.71387,-10.45606 -7.77543,-2.84056 -15.61772,-5.48879 -23.45425,-8.15496 -2.63361,-0.89686 -5.2657,-1.79803 -7.89756,-2.70002 -17.09349,-5.84782 -34.31296,-11.1766 -51.68481,-16.13818 -0.86029,-0.24589 -1.72058,-0.49178 -2.60693,-0.74512 -3.85886,-1.09784 -7.72016,-2.17535 -11.6001,-3.19629 -14.89741,-4.0041 -28.77725,-10.50982 -42.64172,-17.18365 -3.31839,-1.59429 -6.64534,-3.17033 -9.97242,-4.7464 -2.45517,-1.17375 -4.89512,-2.37573 -7.33606,-3.57874 -1.53806,-0.73155 -3.07677,-1.46175 -4.61621,-2.19043 -0.6899,-0.35046 -1.3798,-0.70092 -2.0906,-1.06201 C 141.5008,206.53058 137.73821,207.11459 132,209 c -0.73388,0.23327 -1.46776,0.46654 -2.22388,0.70688 -2.36378,0.78458 -4.70432,1.61973 -7.04565,2.4689 -0.88844,0.31704 -1.77688,0.63408 -2.69225,0.96073 -1.93286,0.69025 -3.86489,1.38286 -5.79615,2.07757 -5.35913,1.92714 -10.72504,3.83528 -16.089726,5.74686 -1.140287,0.40687 -2.280573,0.81375 -3.455414,1.23295 -12.831509,4.57545 -25.687068,9.08192 -38.546249,13.5789 -1.907751,0.66718 -3.815417,1.33461 -5.723069,2.00208 -19.946744,6.97832 -39.908499,13.91297 -59.8843991,20.80741 -10.2795329,3.549 -20.5519689,7.11618 -30.8088379,10.73022 -1.968649,0.69228 -3.937317,1.3845 -5.906006,2.07666 -3.625404,1.27483 -7.248232,2.55662 -10.869629,3.84277 -27.099523,9.5703 -27.099523,9.5703 -37.70874,9.33057 -0.744031,-0.0117 -1.488062,-0.0234 -2.254639,-0.0354 -27.663041,-1.06141 -53.443801,-17.64613 -77.330701,-30.07881 -5.1377,-2.66902 -10.29328,-5.29977 -15.46935,-7.8936 -0.97275,-0.48873 -0.97275,-0.48873 -1.96516,-0.98732 -4.11575,-2.05331 -8.26471,-3.96243 -12.53093,-5.68065 C -207.58286,238.174 -208.83161,236.50517 -210,233 c -0.38654,-6.82879 0.84698,-12.50524 5,-18 3.08258,-2.21456 6.37656,-4.02569 9.6875,-5.875 2.01071,-1.15478 4.01977,-2.31244 6.02734,-3.47266 1.56017,-0.89936 1.56017,-0.89936 3.15186,-1.81689 5.02697,-2.94474 9.95511,-6.04158 14.8833,-9.14795 8.49143,-5.34058 17.01188,-10.62967 25.5625,-15.875 10.61703,-6.52003 21.17598,-13.12394 31.6875,-19.8125 1.76172,-1.11979 3.52344,-2.23959 5.28516,-3.35938 4.64466,-2.95347 9.287354,-5.91004 13.929684,-8.86718 2.729729,-1.73815 5.460388,-3.47482 8.191406,-5.21094 C -51.113962,119.06325 -51.113962,119.06325 -16,96 c -3.44853,-2.29902 -7.027013,-3.661159 -10.875,-5.125 -0.797366,-0.306394 -1.594731,-0.612788 -2.41626,-0.928467 -1.704168,-0.654 -3.409024,-1.306211 -5.114502,-1.956787 -2.502977,-0.954928 -5.003878,-1.915112 -7.504394,-2.876465 -19.100943,-7.327503 -38.293618,-14.407554 -57.546875,-21.324219 -2.391289,-0.86065 -4.782559,-1.721327 -7.173829,-2.582031 -3.63229,-1.307257 -7.26542,-2.611935 -10.90112,-3.909668 -3.60273,-1.287012 -7.20166,-2.584208 -10.80005,-3.883301 -1.63109,-0.578189 -1.63109,-0.578189 -3.29512,-1.16806 C -145.44761,47.230257 -145.44761,47.230257 -148.4375,41.3125 -150.46186,36.744925 -150.53507,32.745548 -149,28 c 2.3728,-3.98869 5.55771,-7.323993 10.13452,-8.59082 0.82057,-0.160811 1.64114,-0.321621 2.48657,-0.487305 0.92491,-0.188123 1.84981,-0.376245 2.80274,-0.570068 0.99451,-0.198597 1.98902,-0.397193 3.01367,-0.601807 8.47795,-1.764034 16.72472,-3.867673 24.98877,-6.443848 9.252106,-2.8698236 18.624687,-5.2376007 28.007324,-7.637695 2.248604,-0.585681 4.48688,-1.1960656 6.722656,-1.8286133 C -48.150314,-4.5366238 -22.625536,-8.3387658 0,0 Z"
       fill="#231f20"
       transform="translate(521,96)"
       id="path4" /><path
       d="M 0,0 C 2.7800624,2.1341253 2.9794546,2.8849459 3.625,6.5 3.1109702,16.990016 -7.1861384,25.918387 -13.796875,33.359375 -16.507413,36.413906 -19.084599,39.551654 -21.625,42.75 -25.589326,47.654396 -29.947488,52.044839 -34.445312,56.449219 -36.569744,58.570402 -38.555806,60.71627 -40.5,63 c -6.204648,7.246195 -13.097643,13.944775 -20.351562,20.132812 -2.18055,1.895096 -4.302391,3.846726 -6.419434,5.812256 C -73.318927,94.555257 -79.557204,99.844059 -86,105 c -1.13084,0.9224 -2.261015,1.84562 -3.390625,2.76953 C -103.64305,119.37285 -118.58347,130.00349 -134,140 c -0.69078,0.45166 -1.38155,0.90331 -2.09326,1.36865 -45.99027,29.99187 -96.03323,52.50575 -147.84424,70.31885 -0.70809,0.24444 -1.41618,0.48888 -2.14572,0.74072 -9.5483,3.28114 -19.14251,6.04454 -28.91678,8.57178 -1.41594,0.39436 -2.83045,0.79398 -4.24219,1.20312 -40.46963,11.66222 -81.89353,19.57939 -123.69531,24.54871 -2.01165,0.24205 -4.02135,0.49699 -6.03125,0.75305 -24.53067,3.03113 -49.15722,3.83885 -73.84692,3.75586 -3.49708,-0.0117 -6.99385,-0.005 -10.49092,0.007 -3.40694,0.009 -6.8138,0.003 -10.22075,-0.002 -1.23951,0.004 -2.47902,0.008 -3.75609,0.0123 -15.52299,-0.0843 -15.52299,-0.0843 -18.71657,-3.27789 -1.3993,-0.10932 -2.80361,-0.15587 -4.20703,-0.17578 -26.8631,-0.62728 -48.76395,-5.85934 -68.98047,-24.51172 -10.79611,-11.32925 -15.33493,-23.7662 -15.16235,-39.11084 0.51345,-15.45188 8.69815,-26.77896 19.67798,-37.11182 5.86142,-5.16781 12.65878,-8.7355 19.67187,-12.08984 1.37672,-0.65936 1.37672,-0.65936 2.78125,-1.33203 20.72645,-8.9837 40.87384,-8.27304 61.76953,-1.41797 22.39653,7.34591 45.92214,7.12539 69.22068,7.06806 2.31514,-0.006 4.63028,-0.008 6.94543,-0.0111 24.19678,-0.0399 48.21302,-0.66839 72.28311,-3.30698 1.2724,-0.13789 1.2724,-0.13789 2.5705,-0.27856 18.6746,-2.0379 37.28739,-4.30218 55.68194,-8.16919 3.20353,-0.6439 6.41629,-1.2155 9.63428,-1.78272 15.80206,-2.80696 31.4363,-6.11606 47.05078,-9.83203 0.87716,-0.20756 1.75431,-0.41512 2.65805,-0.62897 11.5844,-2.75128 23.01078,-5.85481 34.40445,-9.30853 1.6047,-0.47138 3.20999,-0.94075 4.81641,-1.40625 1.23621,-0.36094 2.47242,-0.72187 3.74609,-1.09375 1.85818,-0.54141 1.85818,-0.54141 3.75391,-1.09375 13.43303,-4.002976 26.70774,-8.392228 39.93359,-13.03125 0.87129,-0.305246 1.74257,-0.610492 2.64026,-0.924988 51.81539,-18.188899 102.675938,-40.316541 150.258178,-67.810364 5.963101,-3.428783 11.969371,-6.782031 17.966064,-10.151611 0.886472,-0.5000756 1.772944,-1.0001513 2.686279,-1.5153807 1.290795,-0.7278772 1.290795,-0.7278772 2.607666,-1.470459 3.490656,-2.0233636 6.899541,-4.1730245 10.297608,-6.3479004 C -7.6849269,-0.66173537 -3.9144529,-1.0326471 0,0 Z"
       fill="#bbbdbf"
       transform="translate(990,632)"
       id="path5" /><path
       d="M 0,0 C 2.8125,1.0625 2.8125,1.0625 5,3 6.3967466,7.1902398 6.188665,9.4528714 4.75,13.625 1.4827775,19.469824 -3.236702,24.384378 -7.6245117,29.402344 -9.5639457,31.655034 -11.402227,33.984376 -13.25,36.3125 c -8.071714,9.918754 -17.069998,19.148582 -26.195312,28.097656 -1.438235,1.470757 -2.753829,3.058792 -4.054688,4.652344 -2.595109,3.049254 -5.365228,5.506612 -8.40625,8.09375 -2.072197,1.824771 -3.986093,3.735637 -5.90625,5.71875 -3.816478,3.868353 -7.915899,7.25503 -12.152344,10.652344 -2.710586,2.208238 -5.352415,4.470946 -7.984863,6.770266 C -85.989196,107.3059 -94.39354,113.708 -103,120 c -0.72236,0.53271 -1.44472,1.06541 -2.18896,1.61426 -10.68452,7.87822 -21.5394,15.37233 -32.81104,22.38574 -0.86851,0.54318 -1.73701,1.08636 -2.63184,1.646 -25.69789,15.9883 -52.53738,30.43425 -80.36816,42.354 -0.60679,0.26085 -1.21357,0.52171 -1.83875,0.79047 -26.7141,11.4721 -53.92409,22.40314 -82.12268,29.65875 -2.99492,0.80917 -5.94804,1.74272 -8.90918,2.66675 -13.87282,4.3122 -27.97568,7.63459 -42.12939,10.88403 -0.94633,0.22011 -1.89267,0.44021 -2.86768,0.66699 -39.63577,9.11792 -80.53346,15.21382 -121.14794,17.41895 -0.78113,0.0428 -1.56225,0.0856 -2.36704,0.12972 -17.68945,0.94611 -35.36345,1.09316 -53.07462,1.04508 -4.32154,-0.0116 -8.64284,-0.005 -12.96438,0.007 -3.40347,0.007 -6.80688,0.005 -10.21034,-2.6e-4 -1.59496,-0.001 -3.18992,2.3e-4 -4.78487,0.005 -9.0389,0.021 -17.69815,-0.4097 -26.58313,-2.27259 -1.28391,-0.26039 -2.56781,-0.52078 -3.89062,-0.78906 C -612.03537,243.69585 -629.65969,234.25617 -641,219 c -0.44602,-0.57621 -0.89203,-1.15242 -1.35156,-1.74609 C -650.84939,205.13278 -652.83814,190.4014 -651,176 c 4.13477,-16.73943 17.24027,-29.34409 31.51953,-37.99609 15.7947,-9.24557 37.27742,-16.43926 55.66992,-12.28321 3.36071,0.97929 6.67901,2.04218 9.99805,3.1543 11.42063,3.70859 21.7904,6.41406 33.75,7.6875 1.10924,0.12568 2.21848,0.25137 3.36133,0.38086 18.79243,2.05223 37.50126,2.29668 56.38867,2.30664 0.99201,8.8e-4 0.99201,8.8e-4 2.00406,0.002 21.8376,0.0137 43.46389,-0.62271 65.17868,-3.01748 2.18817,-0.24074 4.3771,-0.47321 6.56628,-0.70452 15.76145,-1.68108 31.36934,-3.78333 46.90039,-6.99561 4.00513,-0.80337 8.02578,-1.51578 12.04615,-2.23828 27.78646,-5.02095 54.9986,-11.15377 82.12133,-19.00342 3.16784,-0.91555 6.34114,-1.80873 9.51856,-2.69043 12.35947,-3.44535 24.49998,-7.343322 36.60205,-11.60205 0.91755,-0.321259 1.8351,-0.642517 2.78046,-0.973511 C -151.19548,76.100596 -106.19503,57.19727 -64,34 c 1.459863,-0.792773 1.459863,-0.792773 2.949219,-1.601563 C -1.1920683,-0.11920683 -1.1920683,-0.11920683 0,0 Z"
       fill="#bbbdbf"
       transform="translate(987,1167)"
       id="path6" /><path
       d="M 0,0 C 2.5706622,2.021272 2.952489,2.7413288 3.5625,6.0625 2.1009436,16.293395 -6.1284991,23.86321 -12.746094,31.308594 -15.553544,34.46871 -18.23059,37.702425 -20.875,41 c -2.939461,3.631415 -5.978848,6.98675 -9.346924,10.220947 -1.760543,1.76151 -3.376336,3.588389 -4.99292,5.482178 -3.737119,4.29897 -7.68437,8.344454 -11.722656,12.359375 -0.664512,0.668379 -1.329023,1.336758 -2.013672,2.025391 -3.928832,3.92121 -7.968463,7.649777 -12.171142,11.275146 -2.216996,1.932773 -4.354433,3.938054 -6.490479,5.959229 -6.558751,6.192376 -13.448468,11.787794 -20.595703,17.280274 -1.803057,1.40647 -3.575658,2.84399 -5.342285,4.2959 -9.055689,7.42924 -18.495029,14.11283 -28.234379,20.61572 -1.94761,1.30657 -3.88102,2.63045 -5.80859,3.96631 C -148.32125,148.74923 -170.51138,160.78172 -193,172 c -1.11375,0.55816 -2.2275,1.11633 -3.375,1.69141 -25.49476,12.71787 -51.70882,23.02172 -78.625,32.30859 -1.04285,0.36223 -2.0857,0.72445 -3.16016,1.09766 -29.41441,10.18046 -59.43418,17.81244 -89.97656,23.74609 -4.42923,0.86242 -8.83669,1.79644 -13.24194,2.77295 -10.12651,2.22939 -20.27985,3.68257 -30.56275,4.98144 -3.13963,0.41251 -6.27027,0.86915 -9.40234,1.33545 -7.10996,1.04286 -14.23176,1.95485 -21.36786,2.79633 -1.53889,0.18162 -3.0775,0.36562 -4.61584,0.55188 -29.88223,3.59216 -59.68866,4.11998 -89.74888,4.15166 -2.96748,0.004 -5.93491,0.0129 -8.90237,0.0225 -4.74688,0.0129 -9.49341,0.007 -14.24026,-0.0133 -1.76135,-0.006 -3.52272,-0.007 -5.28408,-0.004 C -590.60559,247.4698 -615.5985,241.80906 -635,225 c -1.54687,-1.14469 -1.54687,-1.14469 -3.125,-2.3125 -7.32044,-6.84302 -15.21443,-18.41532 -16.03613,-28.70532 C -654.53419,173.56183 -654.53419,173.56183 -651,166 c 0.62068,-1.32838 0.62068,-1.32838 1.25391,-2.68359 9.81205,-19.27655 26.85901,-31.57284 47.10937,-38.28516 6.49519,-1.84182 12.94816,-3.12629 19.63672,-4.03125 1.00934,-0.14051 2.01867,-0.28102 3.05859,-0.42578 9.68219,-0.65577 18.62621,2.74094 27.75782,5.54687 17.1777,5.27542 34.29753,8.23625 52.18359,9.87891 1.536,0.14466 1.536,0.14466 3.10303,0.29224 10.87348,0.90572 21.74232,0.90732 32.64697,0.89526 1.01133,-6e-4 2.02266,-0.001 3.06464,-0.002 18.45683,-0.0297 36.7967,-0.58399 55.18536,-2.18567 0.69879,-0.0608 1.39759,-0.12161 2.11755,-0.18427 52.76999,-4.67576 106.83871,-14.02687 157.37073,-30.10089 6.04027,-1.91371 12.14808,-3.55425 18.26172,-5.21484 9.8871,-2.715695 19.4202,-5.978717 28.98584,-9.651367 2.98606,-1.119209 6.00056,-2.143278 9.02026,-3.167481 36.89388,-12.555247 72.48641,-28.509108 107.385257,-45.764526 2.818347,-1.389923 5.643649,-2.765553 8.468018,-4.143189 16.110954,-7.900625 31.856303,-16.411095 47.074219,-25.929687 1.674613,-1.0377356 1.674613,-1.0377356 3.383056,-2.0964356 2.152477,-1.3401551 4.294327,-2.6975816 6.42334,-4.074707 C -11.942549,1.2087859 -6.7100941,-1.9122442 0,0 Z"
       fill="#bbbdbf"
       transform="translate(990,902)"
       id="path7" /><path
       d="m 0,0 c 0,39.27 0,78.54 0,119 -22.212732,11.69091 -22.212732,11.69091 -33,16 -1.593765,0.6405 -1.593765,0.6405 -3.219727,1.29395 C -69.416598,149.42998 -103.60762,160.45784 -138,170 c -1.34255,0.37853 -2.68499,0.75746 -4.02734,1.13672 -11.25144,3.16708 -22.54686,6.15626 -33.86817,9.06299 -2.05777,0.53046 -4.11443,1.06524 -6.16992,1.60449 -22.47053,5.8942 -45.16856,10.60577 -67.93457,15.1958 -0.74461,0.15102 -1.48923,0.30204 -2.25641,0.45764 C -285.52887,204.20386 -319.18867,208.96921 -353,212 c -1.058,0.0976 -2.116,0.19529 -3.20605,0.2959 -3.09735,0.28418 -6.19532,0.5593 -9.29395,0.8291 -0.85803,0.0757 -1.71606,0.15146 -2.6001,0.22949 -16.96689,1.39836 -33.94466,1.82505 -50.9624,1.77051 -0.93249,-0.002 -1.86497,-0.004 -2.82571,-0.007 -6.37083,-0.0176 -12.74122,-0.0586 -19.11179,-0.11829 -0.70782,-0.006 -1.41563,-0.0125 -2.1449,-0.0189 C -475.14406,214.66937 -509.50642,212.16453 -540,202 c 0,-14.52 0,-29.04 0,-44 5.36637,-0.0606 10.73273,-0.12117 16.26172,-0.18359 3.4681,-0.0407 6.9362,-0.0815 10.4043,-0.12305 5.46458,-0.0654 10.92916,-0.13027 16.39379,-0.19067 40.55623,-0.20907 40.55623,-0.20907 81.00269,-2.81519 1.37709,-0.13419 2.75421,-0.26813 4.13135,-0.40186 2.85192,-0.27934 5.703,-0.56599 8.55371,-0.85742 2.79867,-0.28492 5.59807,-0.55617 8.39941,-0.81347 35.81011,-3.2933 71.601,-9.38336 106.5586,-17.82276 3.10502,-0.74646 6.21402,-1.47263 9.32495,-2.19392 15.63731,-3.63237 31.05604,-7.5738 46.281,-12.705 2.85849,-0.94954 5.72781,-1.85724 8.60254,-2.75635 C -169.74583,100.12635 -117.78928,77.425975 -69,48 c 0.753135,-0.453267 1.50627,-0.906533 2.282227,-1.373535 C -45.226949,33.623067 -24.680109,18.919001 -5.0983887,3.1987305 -1.0990637,0 -1.0990637,0 0,0 Z"
       fill="#929497"
       transform="translate(949,1041)"
       id="path8" /><path
       d="m 0,0 c 0.32760609,15.750842 0.57418513,31.500758 0.72537041,47.254165 0.0720782,7.315446 0.17025876,14.628772 0.33078189,21.942856 0.1399132,6.378069 0.2299444,12.754602 0.2610866,19.134162 0.018199,3.376383 0.060666,6.748375 0.1629819,10.123344 C 2.0354115,119.02568 2.0354115,119.02568 -1.371767,124.00454 -5.0766836,127.56362 -9.2090535,129.30931 -14,131 c -1.439053,0.70779 -2.87311,1.42632 -4.292969,2.17187 -1.291415,0.54244 -2.590002,1.06805 -3.894531,1.57813 -0.775291,0.31324 -1.550581,0.62648 -2.349365,0.94922 -2.813051,1.12173 -5.637168,2.21201 -8.463135,3.30078 -1.144365,0.44795 -2.28873,0.8959 -3.467773,1.35742 -19.052503,7.44268 -38.359658,13.98872 -57.844727,20.20508 -1.075813,0.34329 -2.151627,0.68659 -3.26004,1.04028 -15.63706,4.97689 -31.32095,9.60462 -47.17746,13.83472 -6.74865,1.80519 -13.49308,3.61738 -20.2124,5.52905 -38.30178,10.86895 -77.84079,18.82436 -117.22705,24.61646 -2.75959,0.40943 -5.51694,0.83248 -8.27434,1.25636 -16.8648,2.57963 -33.74497,4.73095 -50.72371,6.41063 -1.22677,0.12422 -1.22677,0.12422 -2.47833,0.25095 -23.94423,2.4013 -47.97117,2.80876 -72.02167,2.87405 -0.69225,0.002 -1.38449,0.004 -2.09771,0.006 -34.93112,0.0779 -69.3294,-2.42062 -103.21479,-11.381 -1.61698,-0.41228 -3.23415,-0.8238 -4.85156,-1.23438 C -530.27327,202.62607 -534.6668,201.4444 -539,200 c 0,-13.86 0,-27.72 0,-42 10.67298,0 10.67298,0 17,2 2.71577,0.43567 5.38344,0.81197 8.11328,1.10547 0.77653,0.0839 1.55305,0.16777 2.3531,0.25419 9.56288,0.94684 19.11963,0.9897 28.72112,0.95284 0.97094,-0.001 1.94187,-0.003 2.94223,-0.005 19.23466,-0.0524 38.26308,-1.2379 57.4017,-3.07367 2.54639,-0.2417 5.09348,-0.47428 7.64093,-0.70452 18.78239,-1.7021 37.50742,-3.50791 56.07959,-6.85792 2.8462,-0.51021 5.69333,-1.00969 8.54297,-1.5 23.10405,-3.97782 45.95417,-8.43041 68.66162,-14.27099 3.30072,-0.83917 6.60757,-1.63902 9.92237,-2.42041 14.28812,-3.39188 28.19467,-7.69049 42.12597,-12.32471 3.36459,-1.1126 6.73664,-2.19839 10.11231,-3.27685 C -181.82413,105.7807 -144.94057,90.335031 -110,72 c 0.90831,-0.476147 1.81661,-0.952295 2.75244,-1.442871 19.739218,-10.417431 39.130651,-21.69124 57.512697,-34.366699 1.809854,-1.241888 3.63237,-2.463336 5.457519,-3.682618 C -29.966932,22.888688 -16.295615,12.36084 -2.9291992,1.4753418 -1,0 -1,0 0,0 Z"
       fill="#929497"
       transform="translate(949,772)"
       id="path9" /><path
       d="m 0,0 c 0,0.66 0,1.32 0,2 -44.569799,25.155776 -96.313585,39.572416 -145.40234,53.268555 -2.67243,0.752499 -5.33832,1.525401 -8.00391,2.301757 -35.43527,10.240883 -71.3905,17.919715 -107.62622,24.68628 -3.88809,0.726789 -7.77335,1.468199 -11.65894,2.208252 -17.52866,3.300643 -35.0179,6.015421 -52.73779,8.105957 -3.31005,0.397857 -6.61403,0.827307 -9.91846,1.269043 C -381.67778,99.879701 -430.55934,100.91083 -477,96 c -2.2083,-0.208679 -4.41663,-0.417003 -6.625,-0.625 -13.36692,-1.332609 -26.35369,-3.555143 -39.41748,-6.67363 -3.2618,-0.773529 -6.5275,-1.528861 -9.79419,-2.281448 -1.15796,-0.266876 -2.31591,-0.533753 -3.50896,-0.808716 C -537.22157,85.409508 -538.09751,85.20781 -539,85 c -0.0232,-8.858313 -0.041,-17.716615 -0.0518,-26.574951 -0.005,-4.113862 -0.0123,-8.227703 -0.0236,-12.341553 -0.0109,-3.974642 -0.0169,-7.949264 -0.0194,-11.92392 -0.002,-1.511742 -0.005,-3.023483 -0.0109,-4.535217 C -539.15594,15.039637 -539.15594,15.039637 -538,8 c 6.20637,0.5920782 12.31586,1.5225723 18.46445,2.550491 25.82355,4.307514 51.75766,7.319549 77.77975,10.147446 2.44586,0.26809 4.89082,0.542537 7.33539,0.822083 17.39213,1.986263 34.74663,3.078932 52.22974,3.834472 0.84321,0.03663 1.68643,0.07325 2.5552,0.110993 1.55896,0.06665 3.11802,0.131165 4.67719,0.19281 4.3286,0.18182 8.63224,0.478582 12.94908,0.84822 6.65001,0.515113 13.25234,0.641447 19.91984,0.638749 1.2203,0.0034 2.4406,0.0067 3.69788,0.01018 3.31608,0.0078 6.6321,0.01118 9.94818,0.01182 2.0968,7.19e-4 4.19358,0.0029 6.29037,0.0055 7.38936,0.0092 14.7787,0.01334 22.16807,0.01255 6.01956,-5.28e-4 12.03905,0.0064 18.05859,0.02051 43.05096,0.09853 85.96255,-0.03756 128.79883,-4.862061 4.59989,-0.505593 9.20663,-0.923562 13.81494,-1.34375 22.86759,-2.164597 45.534837,-5.084274 68.217285,-8.670959 2.170349,-0.34084 4.341648,-0.675045 6.513184,-1.00824 11.583907,-1.787361 23.11974,-3.802394 34.649414,-5.9101565 2.984754,-0.5451674 5.970359,-1.0855014 8.956055,-1.6254882 1.908905,-0.3473734 3.817761,-0.695019 5.726562,-1.0429688 1.331038,-0.2406267 1.331038,-0.2406267 2.688965,-0.4861145 1.22904,-0.2256111 1.22904,-0.2256111 2.48291,-0.45578 0.7176855,-0.13085 1.4353711,-0.2616999 2.1748047,-0.3965149 C -1.2862217,0 -1.2862217,0 0,0 Z"
       fill="#929497"
       transform="translate(949,623)"
       id="path10" /><path
       d="m 0,0 c 0.07553459,4.5491188 0.1292363,9.0978537 0.16479492,13.647461 0.0148609,1.539778 0.0351555,3.079516 0.0615234,4.619141 C 0.46967325,32.867895 -0.9063222,46.541664 -6.6875,60.125 -7.0363525,60.965549 -7.3852051,61.806099 -7.7446289,62.672119 -13.140621,75.36736 -20.282687,86.350278 -29,97 c -0.630352,0.773437 -1.260703,1.546875 -1.910156,2.34375 C -34.889643,104.05749 -39.276315,108.04736 -44,112 c -0.873984,0.76184 -1.747969,1.52367 -2.648437,2.30859 C -78.472581,141.65347 -118.08276,156.10369 -158,167 c -0.7794,0.21785 -1.5588,0.4357 -2.36182,0.66016 -13.6573,3.81165 -27.65062,6.11951 -41.63818,8.33984 -1.79631,0.30285 -1.79631,0.30285 -3.62891,0.61182 -23.1362,3.77046 -46.30871,3.73824 -69.68359,3.70068 -0.8015,-0.001 -1.603,-0.002 -2.42879,-0.003 -5.43662,-0.009 -10.87299,-0.035 -16.30949,-0.071 -0.70136,-0.004 -1.40271,-0.007 -2.12532,-0.0109 -14.76238,-0.0859 -29.2158,-1.09037 -43.8239,-3.22736 -0.97453,-0.13148 -1.94906,-0.26297 -2.95312,-0.39844 C -364.8672,173.49609 -388.49625,169.53708 -409,161 c 0,-0.66 0,-1.32 0,-2 1.05872,-0.12004 2.11745,-0.24009 3.20825,-0.36377 24.41408,-2.78782 48.64668,-6.05288 72.79175,-10.63623 0.69851,-0.13235 1.39702,-0.2647 2.1167,-0.40106 30.96299,-5.89436 61.80702,-13.00542 91.75445,-22.89649 2.42123,-0.79893 4.8442,-1.59249 7.26703,-2.38653 C -196.9635,110.84718 -163.11014,97.953431 -130,82 c 1.13631,-0.54624 2.27262,-1.09248 3.44336,-1.655273 C -109.90887,72.296316 -93.827015,63.555661 -78,54 c 1.61966,-0.967668 3.239445,-1.935127 4.859375,-2.902344 C -48.581052,36.346729 -25.259679,19.688348 -3.0507813,1.5976562 -1,0 -1,0 0,0 Z"
       fill="#929497"
       transform="translate(949,1306)"
       id="path11" /><path
       d="M 0,0 C 1.5293156,0.45055431 3.0588622,0.90032515 4.588623,1.3493652 17.079736,5.0509482 29.430676,9.1663784 41.77002,13.341064 59.734084,19.41334 77.828559,25.152592 96.25,29.6875 c 1.11653,0.281217 1.11653,0.281217 2.255615,0.568115 8.128605,1.899489 15.998775,2.502254 24.431885,3.494385 0,40.59 0,81.18 0,123 -10.56,2.31 -21.12,4.62 -32,7 -5.672413,1.52129 -11.228107,3.04786 -16.8125,4.8125 -1.350185,0.41675 -2.700448,0.83324 -4.050781,1.24951 -12.533729,3.90578 -24.830475,8.43126 -37.06836,13.17871 C 30.9375,183.75 30.9375,183.75 29.9375,183.75 29.9333,183.10947 29.929,182.46894 29.92468,181.809 29.821397,166.22707 29.712763,150.64518 29.598165,135.06332 29.542875,127.52807 29.4894,119.99281 29.44019,112.45752 29.3973,105.89014 29.351,99.322798 29.300625,92.755473 c -0.02656,-3.477676 -0.05141,-6.955346 -0.0722,-10.433062 -0.02326,-3.88128 -0.0541,-7.762478 -0.0856,-11.6437 -0.0058,-1.154461 -0.01151,-2.308922 -0.01744,-3.498367 -0.0098,-1.057268 -0.01958,-2.114536 -0.02966,-3.203843 -0.0065,-0.918105 -0.0129,-1.836211 -0.01955,-2.782138 C 28.945031,58.88275 28.700234,56.935031 27.9375,54.75 c -1.883162,-1.108364 -1.883162,-1.108364 -4,-2 C 23.474389,52.264215 23.011278,51.77843 22.534134,51.277924 19.801333,48.662727 16.093497,47.984529 12.542969,46.914062 11.671482,46.642196 10.799995,46.37033 9.9020996,46.090225 7.9892712,45.493583 6.0752598,44.900723 4.1602478,44.311127 -1.0988609,42.68912 -6.346555,41.031173 -11.59375,39.371094 c -1.131701,-0.357871 -2.263402,-0.715742 -3.429398,-1.084458 -14.305743,-4.545072 -28.530232,-9.33141 -42.74937,-14.139305 -2.105532,-0.710861 -4.211968,-1.418977 -6.318699,-2.126274 -3.957791,-1.329074 -7.912027,-2.668401 -11.865814,-4.009338 -1.196814,-0.401458 -2.393628,-0.802915 -3.626709,-1.216538 -1.091031,-0.372383 -2.182061,-0.744766 -3.306153,-1.128433 -0.95522,-0.323378 -1.910441,-0.646757 -2.894607,-0.979935 C -88.0625,13.75 -88.0625,13.75 -90.0625,11.75 c 6.559249,-3.0968889 13.392852,-4.9597708 20.375,-6.875 0.949757,-0.2607935 0.949757,-0.2607935 1.918701,-0.5268555 9.011224,-2.4616136 18.056645,-4.70506396 27.206299,-6.5981445 1.454788,-0.3110669 1.454788,-0.3110669 2.938965,-0.628418 C -24.193135,-5.5201991 -12.896883,-3.9150124 0,0 Z"
       fill="#929497"
       transform="translate(519.0625,123.25)"
       id="path12" /><path
       d="M 0,0 C 1.0075635,0.01232666 2.015127,0.02465332 3.0532227,0.03735352 19.247892,0.39284626 34.23947,3.7407623 49.8125,7.9375 c 1.127497,0.3021089 1.127497,0.3021089 2.277771,0.610321 2.143531,0.5790863 4.28301,1.1709942 6.421448,1.768585 1.249988,0.347483 2.499975,0.694966 3.787842,1.052979 C 65.125,12.375 65.125,12.375 66.125,14.375 c -25.894276,8.998667 -51.912345,17.580145 -78,26 -1.609548,0.519826 -3.219086,1.039681 -4.828613,1.55957 -5.602337,1.809275 -11.204708,3.618432 -16.809082,5.421387 -1.157256,0.372378 -2.314512,0.744756 -3.506836,1.128418 -1.490438,0.479048 -1.490438,0.479048 -3.010987,0.967773 -0.938679,0.304541 -1.877358,0.609082 -2.844482,0.922852 -1.086277,0.321299 -2.172554,0.642598 -3.291748,0.973633 -2.892896,0.750512 -2.892896,0.750512 -3.895752,3.338867 -0.268125,0.886875 -0.53625,1.77375 -0.8125,2.6875 -0.503534,0.771719 -1.007068,1.543438 -1.525861,2.338542 -1.631355,2.945301 -1.855838,4.598119 -1.872866,7.932286 -0.01881,1.562722 -0.01881,1.562722 -0.038,3.157013 0.0022,1.698247 0.0022,1.698247 0.0043,3.430802 -0.01019,1.200419 -0.02038,2.400838 -0.03088,3.637634 -0.02498,3.28272 -0.03685,6.565171 -0.04285,9.847971 -0.0094,3.434042 -0.0356,6.867954 -0.06001,10.301916 -0.04364,6.498636 -0.0722,12.997246 -0.09532,19.495986 -0.02706,7.4003 -0.07097,14.80046 -0.116288,22.20066 -0.09282,15.21899 -0.164511,30.43802 -0.222272,45.65719 -3.193071,-1.11716 -6.386091,-2.23447 -9.579102,-3.35181 -1.346219,-0.471 -1.346219,-0.471 -2.719635,-0.95151 -3.845109,-1.34559 -7.690084,-2.6915 -11.532302,-4.04533 -22.689944,-7.99054 -45.660774,-13.61388 -69.168964,-18.65135 0,-40.59 0,-81.18 0,-123 13.86,-1.98 13.86,-1.98 28,-4 14.87124,-3.199732 29.332546,-7.332517 43.875003,-11.75 3.095893,-0.932929 6.192451,-1.863624 9.289078,-2.794113 2.048401,-0.615578 4.096611,-1.231792 6.144623,-1.848663 10.039,-3.021462 20.10411,-5.9487415 30.177139,-8.8542943 1.124868,-0.3245215 2.249736,-0.649043 3.408691,-0.9833985 1.571045,-0.4481103 1.571045,-0.4481103 3.173828,-0.9052734 1.870577,-0.5514525 3.732827,-1.132599 5.582032,-1.7519531 C -12.049596,0.43944378 -6.4921186,-0.09883924 0,0 Z"
       fill="#bbbdbf"
       transform="translate(816.875,121.625)"
       id="path13" /><path
       d="m 0,0 c 0,36.96 0,73.92 0,112 -5.540045,2.77002 -10.678114,5.09257 -16.484375,7.03125 -0.801736,0.27282 -1.603473,0.54564 -2.429504,0.82672 -2.610125,0.88645 -5.222981,1.76451 -7.836121,2.64203 -1.821737,0.61585 -3.64335,1.23206 -5.464844,1.84863 -4.673635,1.58015 -9.349852,3.15252 -14.026611,4.72339 -3.54334,1.19199 -7.084336,2.39084 -10.625305,3.58985 -3.268993,1.10581 -6.539521,2.20703 -9.810608,3.30664 -1.532913,0.51577 -3.065394,1.03284 -4.597412,1.55127 -16.537382,5.5894 -16.537382,5.5894 -22.72522,6.48022 -0.684895,0.11247 -1.36979,0.22494 -2.075439,0.34082 -6.984901,0.61499 -12.261311,-2.59112 -18.258241,-5.83957 -12.84758,-6.93899 -26.06223,-12.84342 -39.54132,-18.43875 -0.85653,-0.3561 -1.71306,-0.71221 -2.59555,-1.0791 -4.83749,-2.00841 -9.68071,-4.00232 -14.52945,-5.9834 1.13946,-3.41838 1.72048,-3.76211 4.62891,-5.65356 0.77552,-0.51017 1.55105,-1.02034 2.35008,-1.54596 1.27884,-0.82356 1.27884,-0.82356 2.58351,-1.66376 0.88611,-0.58006 1.77223,-1.16012 2.6852,-1.75775 2.91266,-1.90458 5.83246,-3.797915 8.7523,-5.69147 3.02556,-1.974535 6.04929,-3.951842 9.07301,-5.929184 2.03797,-1.332326 4.07658,-2.663671 6.11582,-3.994049 8.31425,-5.426291 16.57854,-10.924204 24.82466,-16.453293 9.69337,-6.497572 19.409509,-12.941885 29.310485,-19.120788 C -74.690678,47.454464 -68.77761,43.61497 -62.875,39.75 c 11.154651,-7.299322 22.375238,-14.491978 33.612305,-21.663574 3.458585,-2.211694 6.91191,-4.431422 10.364258,-6.652832 1.736969,-1.116395 3.474075,-2.2325766 5.211242,-3.3486636 1.6615,-1.0684078 3.321576,-2.13903 4.9816286,-3.2096863 C -7.7096045,4.2357886 -6.7136426,3.596333 -5.6875,2.9375 -4.8044922,2.3690234 -3.9214844,1.8005469 -3.0117188,1.2148437 -1,0 -1,0 0,0 Z"
       fill="#bbbdbf"
       transform="translate(525,209)"
       id="path14" /><path
       d="m 0,0 c 6.5528364,3.5742744 12.823688,7.0285214 19,11.125 1.477278,0.967042 2.955165,1.933155 4.433594,2.898438 0.752651,0.492099 1.505302,0.984199 2.280761,1.49121 13.936235,9.056617 28.106725,17.761383 42.205079,26.562012 4.031206,2.516868 8.061209,5.035658 12.091064,7.554688 1.997449,1.248548 3.995008,2.496919 5.992676,3.745117 4.977246,3.110021 9.953204,6.222066 14.926516,9.338379 12.54731,7.858704 25.13494,15.648981 37.75,23.398437 6.92328,4.254028 13.83222,8.531055 20.73706,12.814942 3.84542,2.384297 7.69353,4.760037 11.58325,7.071777 -1,3 -1,3 -3.05591,4.32764 -1.35871,0.66926 -1.35871,0.66926 -2.74487,1.35205 -1.02626,0.51031 -2.05251,1.02061 -3.10986,1.54638 -1.12262,0.54415 -2.24523,1.0883 -3.40186,1.64893 -1.15613,0.56864 -2.31226,1.13728 -3.50342,1.72314 -11.9619,5.86479 -24.03947,11.48242 -36.16308,17.00391 -2.62769,1.21595 -5.22418,2.47499 -7.81397,3.76904 -11.07809,5.44987 -20.32003,6.6322 -32.14453,2.8086 -5.288533,-1.82855 -10.506641,-3.81401 -15.710205,-5.87061 -2.994417,-1.16933 -6.002578,-2.29232 -9.019775,-3.40124 C 44.768331,127.38237 35.414743,123.42432 26.0625,119.375 24.525533,118.71321 22.988424,118.05175 21.451172,117.39063 14.281123,114.30271 7.1343671,111.17083 0,108 0,72.36 0,36.72 0,0 Z"
       fill="#929497"
       transform="translate(786,209)"
       id="path15" /></g></svg>
