<svg xmlns="http://www.w3.org/2000/svg" width="24" height="24"><path fill="#FFF" fill-rule="evenodd" d="M5.02 4.28c.04 1.86.08 2.36.22 2.75.22.58 1.04 1.5 1.59 1.78l.4.2-.41.2c-.54.27-1.18.98-1.5 1.67-.27.56-.27.6-.27 2.82v2.25h4.7l.59-.3c.61-.31 1.42-1.11 1.52-1.51.08-.33.16-.3.38.11a4 4 0 0 0 1.64 1.43c.55.26.63.27 2.85.3l2.27.04v-2.14c0-2.47-.09-2.92-.71-3.75a3 3 0 0 0-.9-.82l-.5-.28.44-.26a4 4 0 0 0 1.4-1.56c.2-.42.22-.66.25-2.83L19.02 2h-1.84c-2.04 0-2.79.09-3.45.4a4 4 0 0 0-1.55 1.49l-.16.34-.2-.4a4 4 0 0 0-.77-.91C10.17 2.12 9.68 2 7.08 2h-2.1zm1.55-.71c-.11.1-.08 2.57.04 3.11.18.89 1 1.96 1.7 2.25q.16.06-.05.18c-.4.25-1.06.92-1.3 1.32-.34.6-.48 1.44-.44 2.82l.03 1.2h1.6c1.34 0 1.68-.03 2.1-.2a3.5 3.5 0 0 0 1.55-1.35c.07-.17.15-.3.19-.3.03 0 .16.18.29.4.3.53 1.12 1.16 1.74 1.35.36.1.96.15 2.01.15h1.5l-.05-1.67c-.03-1.44-.07-1.75-.25-2.15A3.6 3.6 0 0 0 15.9 9.2c-.38-.16-.38-.24 0-.4a3.6 3.6 0 0 0 1.33-1.48c.19-.42.21-.66.22-2.12V3.55h-1.6c-1.5 0-1.63.02-2.15.26-.57.27-1.44 1.05-1.55 1.4q-.13.4-.35-.1a4 4 0 0 0-1.28-1.25c-.16-.08-.58-.2-.93-.25-.71-.12-2.92-.15-3.02-.04m2.17 2.67q-.71.3-.13.78c.29.24.33.35.37.88.02.33.01 1.13-.03 1.77-.07 1.12-.08 1.18-.36 1.44-.34.32-.35.4-.1.63.15.13.36.18.86.17.81 0 1.02-.06 1.16-.33.1-.17.07-.24-.14-.42q-.26-.2-.3-.67c-.07-.53.01-1.19.15-1.19.05 0 .25.35.44.78.72 1.58.75 1.63.97 1.6.16-.02.31-.27.64-1.03.66-1.5.9-1.63.86-.48-.02.5-.07.71-.23.88q-.39.42.03.7a4.5 4.5 0 0 0 2.42 0q.47-.31.02-.72c-.22-.18-.25-.3-.3-1.4-.08-1.51.02-2.35.32-2.67.46-.49.03-.86-.99-.86-.91 0-1.03.1-1.66 1.32-.4.78-.6 1.08-.71 1.06a4 4 0 0 1-.74-1.12 7 7 0 0 0-.7-1.17 4 4 0 0 0-1.85.05"/></svg>