<?xml version="1.0" encoding="UTF-8" standalone="no"?>
<svg viewBox="0 0 18.040001 21.999998" width="18.040001pt" height="21.999998pt" version="1.1" id="svg1" sodipodi:docname="pink_master_pin.svg" xml:space="preserve" xmlns:inkscape="http://www.inkscape.org/namespaces/inkscape" xmlns:sodipodi="http://sodipodi.sourceforge.net/DTD/sodipodi-0.dtd" xmlns="http://www.w3.org/2000/svg" xmlns:svg="http://www.w3.org/2000/svg"><defs id="defs1"/><sodipodi:namedview id="namedview1" pagecolor="#ffffff" bordercolor="#000000" borderopacity="0.25" inkscape:showpageshadow="2" inkscape:pageopacity="0.0" inkscape:pagecheckerboard="0" inkscape:deskcolor="#d1d1d1" inkscape:document-units="pt" inkscape:lockguides="true"><inkscape:page x="0" y="0" width="18.040001" height="21.999998" id="page2" margin="0" bleed="0"/></sodipodi:namedview><g id="g1" transform="matrix(0.05272608,0,0,0.05272608,1.4210199,4.3311152)"><path d="m 0,3.2067666 c 94.563465,0 189.12693,0 286.55596,0 0,55.7017674 0,111.4035334 0,168.7932334 C 191.99249,172 97.429025,172 0,172 0,116.29823 0,60.596466 0,3.2067666 Z" fill="#FFFFFF" id="path1-4" style="stroke-width:0.981356"/><path d="m 0,0 c 12.54,0 25.08,0 38,0 0.33,9.24 0.66,18.48 1,28 1.98,-1.65 3.96,-3.3 6,-5 2.437744,-0.615234 2.437744,-0.615234 4.785156,-0.59375 0.860449,0.0026 1.720899,0.0052 2.607422,0.0078 0.881074,0.02836 1.762149,0.05672 2.669922,0.08594 0.884941,-0.0026 1.769883,-0.0052 2.681641,-0.0078 C 63.89478,22.58447 67.5452,23.5452 72,28 72.402187,27.538516 72.804375,27.077031 73.21875,26.601562 75.264373,24.762296 76.880697,24.169522 79.5,23.375 80.273437,23.135234 81.046875,22.895469 81.84375,22.648437 82.555312,22.434453 83.266875,22.220469 84,22 c 0.99,-0.33 1.98,-0.66 3,-1 1.852273,-0.09358 3.707872,-0.129939 5.5625,-0.125 0.970664,-0.0026 1.941328,-0.0052 2.941406,-0.0078 C 98,21 98,21 100,22 c 0,4.29 0,8.58 0,13 -4.455,0.495 -4.455,0.495 -9,1 0,13.2 0,26.4 0,40 -5.94,0 -11.88,0 -18,0 -0.33,-1.98 -0.66,-3.96 -1,-6 -0.598125,0.804375 -1.19625,1.60875 -1.8125,2.4375 C 68,75 68,75 65,76 c -3.287279,0.252573 -6.579017,0.231246 -9.875,0.25 -0.898477,0.02062 -1.796953,0.04125 -2.722656,0.0625 C 47.471455,76.341634 43.96019,76.30283 40,73 c -0.33,-0.66 -0.66,-1.32 -1,-2 -0.33,1.65 -0.66,3.3 -1,5 -12.54,0 -25.08,0 -38,0 -0.33,-1.65 -0.66,-3.3 -1,-5 -1.1601563,1.220098 -1.1601563,1.220098 -2.34375,2.464844 -4.3277519,3.595031 -8.751296,3.237114 -14.15625,3.097656 -0.924258,0.01096 -1.848516,0.02191 -2.800781,0.0332 C -26.101762,76.533461 -29.617244,75.907957 -34,72 c 0,-0.66 0,-1.32 0,-2 -0.66,0 -1.32,0 -2,0 0,1.98 0,3.96 0,6 -18.15,0 -36.3,0 -55,0 -0.04125,-7.486875 -0.0825,-14.97375 -0.125,-22.6875 -0.02731,-3.534005 -0.02731,-3.534005 -0.05518,-7.139404 -0.0058,-1.874103 -0.01094,-3.748208 -0.01514,-5.622315 -0.01023,-0.967643 -0.02046,-1.935285 -0.03101,-2.932251 C -91.228621,28.727176 -91.228621,28.727176 -89,25 c 3.108966,-2.072644 3.790619,-2.251436 7.316162,-2.258789 1.301664,-0.0095 1.301664,-0.0095 2.629624,-0.0191 1.401621,0.0061 1.401621,0.0061 2.831558,0.01227 0.962894,-0.0019 1.925789,-0.0038 2.917862,-0.0058 2.03674,-0.0014 4.07349,0.0023 6.110214,0.01068 3.116491,0.01069 6.232404,1.08e-4 9.348877,-0.0127 1.978517,0.0013 3.957033,0.0039 5.935547,0.0078 0.93239,-0.004 1.86478,-0.0081 2.825424,-0.01227 1.306392,0.0095 1.306392,0.0095 2.639175,0.0191 0.763725,0.0016 1.527449,0.0032 2.314316,0.0048 C -41.7266,23.032579 -40.090286,23.805869 -38,25 c 0.33,-0.66 0.66,-1.32 1,-2 2.0625,-0.625 2.0625,-0.625 4,-1 -0.495,-0.70125 -0.99,-1.4025 -1.5,-2.125 -1.757716,-3.368955 -2.046755,-5.125821 -1.5,-8.875 1.799938,-2.6999066 3.083773,-4.5418865 6,-6 5.709916,-0.5490303 8.498078,0.4863045 13,4 0.680625,-0.66 1.36125,-1.32 2.0625,-2 3.656897,-2.489802 5.5917091,-2.5531007 9.9375,-2 2.4375,1.5 2.4375,1.5 4,3 0.33,-2.64 0.66,-5.28 1,-8 z" fill="#FFFFFF" transform="translate(142,41)" id="path3"/><path d="m 0,0 c 80.85,0 161.7,0 245,0 0,46.53 0,93.06 0,141 -16,-4 -16,-4 -22.35547,-5.63281 -0.9726,-0.24879 -1.94519,-0.49758 -2.94726,-0.75391 -1.93606,-0.49548 -3.87095,-0.99554 -5.80469,-1.5 -12.69256,-3.22592 -25.08175,-4.55317 -38.14258,-4.55078 -1.10934,-0.002 -1.10934,-0.002 -2.24109,-0.004 C 159.53424,128.57983 146.55823,130.5763 133,134 94.119179,143.56871 46.358989,151.88801 10,130 6.0249945,127.02981 2.7578043,124.13671 0,120 0,80.4 0,40.8 0,0 Z m 6,6 c 0,36.96 0,73.92 0,112 8.456344,6.954 8.456344,6.954 17.6875,11.8125 0.592324,0.27264 1.184648,0.54527 1.794922,0.82617 11.975092,5.14622 24.638621,5.83427 37.468506,5.69751 2.349393,-0.0236 4.697638,-0.0205 7.047119,-0.0139 14.460018,-0.0261 28.724806,-1.47013 42.939453,-4.13477 0.91693,-0.16814 1.83385,-0.33628 2.77856,-0.50952 6.07226,-1.15266 12.01524,-2.59722 17.97144,-4.24048 30.19425,-8.23679 59.38583,-6.29132 89.51562,1.37891 4.89826,1.2086 9.84969,2.19415 14.79688,3.18359 0,-41.58 0,-83.16 0,-126 C 161.44,6 84.88,6 6,6 Z" fill="#FFFFFF" transform="translate(24,15)" id="path5"/><path d="m 0,0 c 82.83,0 165.66,0 251,0 0,48.84 0,97.68 0,148 -16,-4 -16,-4 -23,-6 -1.46176,-0.31184 -2.92897,-0.60029 -4.40234,-0.85156 -0.74444,-0.12891 -1.48887,-0.25782 -2.25586,-0.39063 -0.75217,-0.12633 -1.50434,-0.25265 -2.2793,-0.38281 -0.77924,-0.13406 -1.55848,-0.26813 -2.36133,-0.40625 C 214.80137,139.6424 212.90076,139.32071 211,139 c 0,-0.66 0,-1.32 0,-2 -0.68965,-0.0606 -1.3793,-0.12117 -2.08984,-0.18359 -0.93973,-0.0838 -1.87946,-0.16758 -2.84766,-0.25391 -0.91652,-0.0812 -1.83305,-0.16242 -2.77734,-0.24609 -1.77322,-0.17079 -3.54611,-0.3485 -5.31421,-0.56592 -16.39147,-1.99989 -32.50421,-0.72576 -48.73291,1.97412 -2.43236,0.2993 -4.78976,0.32068 -7.23804,0.27539 0,0.66 0,1.32 0,2 -8.67269,1.75088 -17.31035,3.28508 -26.11084,4.22559 -4.07485,0.43636 -8.12255,0.94596 -12.17432,1.56347 C 77.882016,149.61071 49.923134,150.82762 25,142 c 0,-0.99 0,-1.98 0,-3 1.220742,0.26555 2.441484,0.53109 3.699219,0.80469 4.306105,0.92967 8.618306,1.82677 12.93457,2.70801 1.872364,0.3856 3.741106,0.78878 5.608398,1.19824 31.391575,6.00005 64.973463,-1.68944 95.366213,-9.37012 11.86384,-2.94141 23.46013,-3.72807 35.6416,-3.77832 0.70576,-0.006 1.41152,-0.0125 2.13867,-0.019 16.34637,-0.0919 31.59803,3.20192 47.3103,7.47308 2.28784,0.6218 4.57831,1.23305 6.86939,1.84277 1.46565,0.39265 2.93115,0.78586 4.39648,1.17969 1.02009,0.27344 1.02009,0.27344 2.06078,0.5524 C 245.76459,142.8823 245.76459,142.8823 248,144 248,97.47 248,50.94 248,3 167.15,3 86.3,3 3,3 -7.283914,70.872139 -7.283914,70.872139 9,129 c 2.704277,2.07691 2.704277,2.07691 5.5625,3.75 0.929414,0.57234 1.858828,1.14469 2.816406,1.73437 2.177138,1.25892 4.354929,2.42787 6.621094,3.51563 0,0.66 0,1.32 0,2 C 17.807831,139.6741 12.79026,136.74536 8,133 -21.506698,99.804965 0,44.413461 0,0 Z" fill="#FFFFFF" transform="translate(21,12)" id="path6"/><path d="m 0,0 c 0.93928345,-0.00145523 1.8785669,-0.00291046 2.8463135,-0.00440979 1.9837148,0.00165825 3.9674426,0.01321119 5.9510498,0.03395081 3.0355497,0.02894938 6.0693517,0.02060842 9.1049807,0.0075684 1.928394,0.0062377 3.856782,0.01462896 5.785156,0.02539062 1.361069,-0.0044035 1.361069,-0.0044035 2.749634,-0.0088959 0.847679,0.01268417 1.695359,0.02536834 2.568725,0.03843689 0.742943,0.005403 1.485887,0.01080596 2.251343,0.01637268 2.755714,0.51201091 4.110551,1.40866309 6.086548,3.38768009 0.481018,2.1071014 0.481018,2.1071014 0.454102,4.5632324 -3.03e-4,0.920728 -6.05e-4,1.841456 -9.16e-4,2.7900848 -0.02065,0.99071 -0.04129,1.98142 -0.06256,3.002152 -0.0057,1.016773 -0.01132,2.033546 -0.01715,3.08113 -0.02241,3.250777 -0.07261,6.500456 -0.123474,9.750901 -0.02006,2.202458 -0.03831,4.404933 -0.05469,6.607422 -0.04413,5.402116 -0.113186,10.803411 -0.195312,16.205078 -4.95,0 -9.9,0 -15,0 0,-12.54 0,-25.08 0,-38 -0.99,0 -1.98,0 -3,0 0,12.54 0,25.08 0,38 -4.95,0 -9.9,0 -15,0 0,-12.54 0,-25.08 0,-38 -0.99,0 -1.98,0 -3,0 0,12.54 0,25.08 0,38 -4.95,0 -9.9,0 -15,0 -0.09887,-6.335403 -0.171471,-12.670357 -0.219727,-19.006348 -0.02012,-2.155353 -0.04741,-4.310651 -0.08203,-6.46582 -0.04852,-3.097956 -0.07121,-6.195191 -0.08887,-9.293457 -0.02065,-0.963675 -0.04129,-1.92735 -0.06256,-2.920227 -0.0013,-3.8404518 0.01906,-6.517124 1.874084,-9.9227908 C -8.2356489,-0.27028314 -4.4764329,-0.05542132 0,0 Z" fill="#FFFFFF" transform="translate(66.65625,65.503906)" id="path7"/><path d="m 0,0 c 76.56,0 153.12,0 232,0 -5,6 -5,6 -7.03805,6.745191 -1.00417,-0.00342 -1.00417,-0.00342 -2.02863,-0.0069 -1.16968,0.017919 -1.16968,0.017919 -2.36298,0.036201 -1.26801,-0.026216 -1.26801,-0.026216 -2.56163,-0.052961 -1.3601,0.00769 -1.3601,0.00769 -2.74769,0.015535 -3.03931,0.00989 -6.07663,-0.02312 -9.11576,-0.05591 -2.17805,-0.00169 -4.3561,-7.426e-4 -6.53415,0.00266 C 193.69601,6.685536 187.78164,6.650231 181.8667,6.608372 175.6861,6.570898 169.50548,6.567342 163.32478,6.56022 151.61981,6.541562 139.91518,6.49231 128.21035,6.432123 118.85583,6.384726 109.50134,6.351979 100.14673,6.3295986 99.4812,6.3279886 98.815672,6.3263786 98.129976,6.3247286 92.34068,6.3108398 86.551381,6.2979231 80.762082,6.2851009 55.841137,6.2286604 30.920899,6.1091338 6,6 c 0,33.99 0,67.98 0,103 -2.475,0.495 -2.475,0.495 -5,1 -0.495,0.99 -0.495,0.99 -1,2 C 0,75.04 0,38.08 0,0 Z" fill="#FFFFFF" transform="translate(30,21)" id="path8"/><path d="m 0,0 c 0.33,0 0.66,0 1,0 0,41.25 0,82.5 0,125 -11.150442,-2.23009 -11.150442,-2.23009 -16.320313,-3.4375 -32.659185,-7.5283 -62.382738,-9.10285 -94.873047,0.57202 -6.13874,1.78862 -12.32281,3.01575 -18.61914,4.11548 -0.91854,0.16307 -1.83708,0.32613 -2.78345,0.49414 -12.40518,2.081 -24.81898,2.46548 -37.36889,2.49609 -2.40009,0.01 -4.79933,0.0409 -7.19922,0.0723 -12.83445,0.0892 -25.38632,-1.04553 -37.21094,-6.5 -0.66064,-0.29608 -1.32129,-0.59216 -2.00195,-0.89722 C -221.01961,119.25385 -225.98869,115.84699 -230,111 c 0,-0.66 0,-1.32 0,-2 3.71888,0.50712 6.73454,1.11608 10,3 0,0.66 0,1.32 0,2 39.83465,16.35796 80.39202,8.70288 121,-0.75 31.880675,-7.36793 62.732431,-4.39237 94,4.75 0.33,0.33 0.66,0.66 1,1 0.00358,-0.87437 0.00358,-0.87437 0.00724,-1.76641 0.059156,-14.18872 0.1347097,-28.377264 0.2284775,-42.565792 0.044951,-6.8615 0.084367,-13.722948 0.1107206,-20.584546 0.025442,-6.620155 0.066351,-13.240097 0.1167508,-19.860117 0.016702,-2.527354 0.028196,-5.054748 0.034428,-7.58215 0.0096,-3.536418 0.037621,-7.072242 0.070013,-10.608514 -0.00144,-1.048008 -0.00287,-2.096016 -0.00435,-3.175782 C -3.3206791,3.9153912 -3.3206791,3.9153912 0,0 Z" fill="#FFFFFF" transform="translate(261,22)" id="path9"/><path d="m 0,0 c 5.28,0 10.56,0 16,0 0,12.54 0,25.08 0,38 0.99,0 1.98,0 3,0 0,-12.54 0,-25.08 0,-38 4.95,0 9.9,0 15,0 0.123896,5.8715043 0.214479,11.742242 0.274658,17.614746 0.0251,1.996229 0.05918,3.992366 0.102539,5.988281 0.06087,2.874742 0.08906,5.748265 0.111084,8.623535 0.02581,0.887732 0.05161,1.775463 0.0782,2.690094 0.0019,4.335255 -0.187512,7.188641 -2.972001,10.631684 -4.557022,4.306165 -8.391453,3.700571 -14.406982,3.76416 -1.354482,0.04351 -1.354482,0.04351 -2.736328,0.08789 -4.228595,0.04039 -6.7570178,0.0075 -10.4628907,-2.169922 -2.9839638,-3.347433 -4.2430749,-5.953906 -4.21533208,-10.448242 1.5106e-4,-0.820549 3.0212e-4,-1.641098 4.5776e-4,-2.486512 0.0103226,-0.876179 0.0206451,-1.752359 0.0312805,-2.65509 0.00283,-0.904378 0.00566,-1.808756 0.008575,-2.74054 0.0111792,-2.883497 0.0362797,-5.766682 0.0617371,-8.650085 0.0100327,-1.957027 0.0191581,-3.914058 0.02734375,-5.871094 C -0.07562585,9.5858174 -0.04111144,4.7929617 0,0 Z" fill="#FFFFFF" transform="translate(107,66)" id="path10"/><path d="m 0,0 c 84.15,0 168.3,0 255,0 0,50.49 0,100.98 0,153 -1.32,0 -2.64,0 -4,0 0,-0.66 0,-1.32 0,-2 -4.62,-0.33 -9.24,-0.66 -14,-1 0,-0.66 0,-1.32 0,-2 -1.32,0 -2.64,0 -4,0 0,-0.66 0,-1.32 0,-2 -0.90105,0.0503 -1.80211,0.10055 -2.73047,0.15234 -5.64634,-0.001 -11.08754,-1.40896 -16.58203,-2.58984 -26.69422,-5.70307 -52.41184,-3.89371 -78.94849,2.01758 C 125.30216,147.6594 115.68519,149.17798 106,149 c -0.33,-0.66 -0.66,-1.32 -1,-2 12.92345,-2.30077 25.91511,-3.94656 39,-5 0,-0.66 0,-1.32 0,-2 2.62418,-0.48404 5.24922,-0.96229 7.875,-1.4375 1.09055,-0.20206 1.09055,-0.20206 2.20312,-0.4082 19.77778,-3.55653 39.2232,-2.74365 58.92188,0.8457 0,0.66 0,1.32 0,2 0.98355,0.0748 1.96711,0.14953 2.98047,0.22656 C 228.25233,142.33074 241.87355,144.43677 253,150 253,101.16 253,52.32 253,2 170.17,2 87.34,2 2,2 -8.2960603,75.63474 -8.2960603,75.63474 12.4375,136.5 13.210938,137.2425 13.210938,137.2425 14,138 8.6379808,136.69219 4.6058153,134.15215 1,130 -9.510188,87.959248 0,43.334615 0,0 Z" fill="#FFFFFF" transform="translate(19,10)" id="path11"/><path d="m 0,0 c 1.2829394,-0.04350586 1.2829394,-0.04350586 2.5917969,-0.08789062 4.2195964,-0.04249013 6.4809513,0.01765039 10.1386721,2.29492192 2.75908,2.9683519 3.080984,4.5125051 3.054687,8.4570317 -0.0032,0.850781 -0.0064,1.701562 -0.0098,2.578125 -0.01257,1.334179 -0.01257,1.334179 -0.02539,2.695312 -0.0045,0.897187 -0.009,1.794375 -0.01367,2.71875 -0.0118,2.218778 -0.02974,4.437522 -0.04883,6.65625 -5.61,0 -11.22,0 -17,0 0,4.29 0,8.58 0,13 0.99,0 1.98,0 3,0 0,-3.3 0,-6.6 0,-10 4.62,0 9.24,0 14,0 0.108546,2.397061 0.187532,4.789158 0.25,7.1875 0.05027,1.010303 0.05027,1.010303 0.101562,2.041016 0.07062,3.619261 -0.24603,5.602588 -2.179687,8.697265 C 9.7978971,50.117139 5.1728452,49.594332 -0.125,49.6875 c -1.1920606,0.05607 -1.1920606,0.05607 -2.4082031,0.113281 -4.2312623,0.063 -6.939873,-0.162977 -10.2910159,-2.886719 -5.102192,-5.334473 -3.786754,-12.373593 -3.838379,-19.376464 -0.01653,-1.643048 -0.04378,-3.286025 -0.08203,-4.928711 -0.05499,-2.375215 -0.07668,-4.748745 -0.09131,-7.124512 -0.02267,-0.72834 -0.04534,-1.456681 -0.0687,-2.207092 0.01613,-3.9272158 0.563221,-6.4030679 2.999848,-9.4130252 C -9.4872526,-0.48421175 -5.9265229,0.06609505 0,0 Z" fill="#FFFFFF" transform="translate(197.3125,65.6875)" id="path12"/><path d="m 0,0 c 5.28,0 10.56,0 16,0 0,23.76 0,47.52 0,72 C 10.72,72 5.44,72 0,72 0,48.24 0,24.48 0,0 Z" fill="#FFFFFF" transform="translate(162,43)" id="path13"/><path d="m 0,0 c 5.28,0 10.56,0 16,0 0,23.76 0,47.52 0,72 C 10.72,72 5.44,72 0,72 0,48.24 0,24.48 0,0 Z" fill="#FFFFFF" transform="translate(144,43)" id="path14"/><path d="m 0,0 c 12.54,0 25.08,0 38,0 0,0.33 0,0.66 0,1 -12.21,0 -24.42,0 -37,0 0,21.12 0,42.24 0,64 -0.66,0 -1.32,0 -2,0 0,-13.2 0,-26.4 0,-40 -4.95,0 -9.9,0 -15,0 0,12.54 0,25.08 0,38 -0.99,0 -1.98,0 -3,0 0,-12.54 0,-25.08 0,-38 -5.28,0 -10.56,0 -16,0 -0.66,-0.66 -1.32,-1.32 -2,-2 1.32,-0.33 2.64,-0.66 4,-1 -0.495,-0.70125 -0.99,-1.4025 -1.5,-2.125 -1.757716,-3.368955 -2.046755,-5.125821 -1.5,-8.875 1.799938,-2.6999066 3.083773,-4.5418865 6,-6 5.709916,-0.5490303 8.498078,0.4863045 13,4 0.680625,-0.66 1.36125,-1.32 2.0625,-2 3.656897,-2.489802 5.5917091,-2.5531007 9.9375,-2 2.4375,1.5 2.4375,1.5 4,3 0.33,-2.64 0.66,-5.28 1,-8 z" fill="#FFFFFF" transform="translate(142,41)" id="path15"/><path d="m 0,0 c 82.83,0 165.66,0 251,0 0,48.84 0,97.68 0,148 -1.65,-0.33 -3.3,-0.66 -5,-1 0.33,-0.66 0.66,-1.32 1,-2 0.99,0.33 1.98,0.66 3,1 0,-47.85 0,-95.7 0,-145 C 127.24,1.495 127.24,1.495 2,2 c 0.33,0.33 0.66,0.66 1,1 0.097139,1.5426839 0.124646,3.0898047 0.1245728,4.6355438 0.00256,1.0024022 0.00513,2.0048044 0.00777,3.0375822 -0.0021,1.109067 -0.0042,2.218134 -0.00636,3.36081 0.00187,1.160936 0.00374,2.321873 0.00566,3.51799 0.00402,2.531305 0.00608,5.062614 0.00646,7.593923 0.00253,4.004959 0.013964,8.009826 0.029564,12.01475 0.00257,0.675481 0.00515,1.350961 0.0078,2.046911 0.00527,1.381654 0.010553,2.763308 0.015856,4.144962 0.03512,9.326778 0.061665,18.653442 0.059172,27.980292 -0.00159,6.286612 0.014482,12.572909 0.050707,18.859421 0.018446,3.327025 0.025075,6.653409 0.015524,9.980485 -0.0096,3.71597 0.011525,7.43058 0.039726,11.14642 -0.010197,1.09895 -0.020393,2.19789 -0.030899,3.33014 0.04653,6.4435 0.04653,6.4435 3.0425567,11.9529 2.6189044,2.38603 5.1665555,4.31179 8.1943975,6.14787 0.929414,0.57234 1.858827,1.14469 2.816406,1.73437 2.177138,1.25892 4.354929,2.42787 6.621094,3.51563 0,0.66 0,1.32 0,2 C 17.807831,139.6741 12.79026,136.74536 8,133 -21.506698,99.804965 0,44.413461 0,0 Z" fill="#FFFFFF" transform="translate(21,12)" id="path16"/><path d="M 0,0 C 0.763125,0.7425 1.52625,1.485 2.3125,2.25 6.623875,5.8650009 11.715203,7.3010356 17,9 c 1.216875,0.4125 2.43375,0.825 3.6875,1.25 0.763125,0.2475 1.52625,0.495 2.3125,0.75 0.33,-0.66 0.66,-1.32 1,-2 0,1.32 0,2.64 0,4 3.165672,0.650772 6.332701,1.294698 9.5,1.9375 1.330312,0.273604 1.330312,0.273604 2.6875,0.552734 9.958738,2.013716 19.385433,2.670306 29.538574,2.640137 2.136954,-0.0053 4.273697,-4e-5 6.410645,0.0063 6.638695,0.0028 13.176788,-0.150781 19.778808,-0.927246 2.998699,-0.301345 5.950732,-0.190664 8.959473,-0.08447 15.57797,0.07766 31.05377,-3.575881 46.30542,-6.410889 C 175.48321,5.5172884 202.10678,9.0401682 230,15 c 0,0.66 0,1.32 0,2 1.32,0 2.64,0 4,0 0,0.66 0,1.32 0,2 -7.11815,-0.73579 -13.85621,-2.339198 -20.7832,-4.095703 C 201.24713,11.94959 189.58211,10.583585 177.25,10.5625 c -0.66886,-0.0014 -1.33772,-0.0028 -2.02686,-0.0042 -12.46028,0.0212 -24.16591,1.796384 -36.27197,4.727387 -4.88494,1.182439 -9.79233,2.261229 -14.70117,3.339355 -0.93957,0.208103 -1.87913,0.416206 -2.84717,0.630615 C 90.962575,25.864459 49.210223,31.605112 20,17 20,16.34 20,15.68 20,15 19.13375,14.773125 18.2675,14.54625 17.375,14.3125 13.494975,12.803601 11.123502,10.724757 8,8 6.336756,6.9943176 4.6706375,5.993352 3,5 1.1875,3.4375 1.1875,3.4375 0,2 0,1.34 0,0.68 0,0 Z" fill="#FFFFFF" transform="translate(22,141)" id="path17"/><path d="m 0,0 c 1.210405,2.42081 1.1087955,3.9028567 1.0822906,6.6063538 -0.00704,0.970377 -0.014079,1.9407541 -0.021332,2.9405365 -0.012946,1.0681447 -0.025892,2.1362887 -0.03923,3.2368007 -0.00961,1.121953 -0.019215,2.243906 -0.0291138,3.399857 C 0.9595322,19.906281 0.9192352,23.628901 0.8789063,27.351562 0.8546142,29.927028 0.8307702,32.502498 0.8073578,35.077972 0.75086448,41.173036 0.68983913,47.268039 0.62663645,53.363037 0.55494154,60.301245 0.48900811,67.239504 0.42356598,74.177774 0.28880206,88.451915 0.14677887,102.72598 0,117 c -1.2289499,-0.34553 -2.4578998,-0.69106 -3.7240906,-1.04706 -1.6321466,-0.45673 -3.2643196,-0.91337 -4.8965149,-1.36993 -1.2114795,-0.34102 -1.2114795,-0.34102 -2.4474335,-0.68894 -5.975103,-1.66845 -11.946642,-3.06123 -18.056961,-4.14407 -0.853359,-0.15984 -1.706719,-0.31969 -2.585937,-0.48437 -28.284638,-5.20577 -54.246397,-0.63509 -81.859493,5.76205 C -125.31539,117.741 -137.00449,119.79591 -149,121 c -0.70544,0.0744 -1.41088,0.14889 -2.1377,0.22559 -21.0898,2.12422 -47.64482,1.9194 -65.8623,-10.22559 0,-0.66 0,-1.32 0,-2 -0.61875,-0.14437 -1.2375,-0.28875 -1.875,-0.4375 C -221,108 -221,108 -223,107 c 0,-0.66 0,-1.32 0,-2 3.50326,0.32843 5.81062,1.41014 8.6875,3.3125 13.8418,8.92771 29.95734,10.2673 46,10.125 1.13659,-0.006 1.13659,-0.006 2.29614,-0.0112 22.87074,-0.15758 44.69352,-4.26135 66.854251,-9.60791 12.822908,-3.08965 25.180313,-5.21225 38.412109,-5.19336 1.203662,0.002 2.407324,0.003 3.647461,0.005 16.739846,0.22367 38.798093,1.7179 54.102539,9.37012 -0.00277,-0.56415 -0.00553,-1.12829 -0.00838,-1.70953 -0.066224,-13.720532 -0.1156918,-27.441034 -0.1470566,-41.161691 -0.015676,-6.63519 -0.036951,-13.270266 -0.070882,-19.90539 -0.032523,-6.399591 -0.05052,-12.79907 -0.058313,-19.198737 -0.00556,-2.445321 -0.016406,-4.890636 -0.032559,-7.33591 -0.02168,-3.416972 -0.024781,-6.833481 -0.023386,-10.25051 -0.010786,-1.017795 -0.021572,-2.03559 -0.032684,-3.084228 0.00412,-0.929681 0.00825,-1.859362 0.012497,-2.8172151 -0.00277,-0.8084124 -0.00553,-1.6168249 -0.00838,-2.4497346 C -2.9146508,2.5174548 -1.9818256,1.6317232 0,0 Z" fill="#FFFFFF" transform="translate(258,25)" id="path18"/><path d="m 0,0 c 0,3.3 0,6.6 0,10 -2.64,0.66 -5.28,1.32 -8,2 -0.33,12.87 -0.66,25.74 -1,39 -4.62,0 -9.24,0 -14,0 0,-15.51 0,-31.02 0,-47 9.45096,-3.15032008 13.7242248,-4.48819869 23,-4 z" fill="#FFFFFF" transform="translate(240,64)" id="path19"/><path d="m 0,0 c 0.99,0 1.98,0 3,0 0.33,8.91 0.66,17.82 1,27 2.97,-2.475 2.97,-2.475 6,-5 2.437744,-0.615234 2.437744,-0.615234 4.785156,-0.59375 0.860449,0.0026 1.720899,0.0052 2.607422,0.0078 0.881074,0.02836 1.762149,0.05672 2.669922,0.08594 1.327412,-0.0039 1.327412,-0.0039 2.681641,-0.0078 C 28.89478,21.58447 32.5452,22.5452 37,27 37.402187,26.538516 37.804375,26.077031 38.21875,25.601562 40.264373,23.762296 41.880697,23.169522 44.5,22.375 45.273437,22.135234 46.046875,21.895469 46.84375,21.648437 47.555312,21.434453 48.266875,21.220469 49,21 c 0.99,-0.33 1.98,-0.66 3,-1 1.852273,-0.09358 3.707872,-0.129939 5.5625,-0.125 0.970664,-0.0026 1.941328,-0.0052 2.941406,-0.0078 C 63,20 63,20 65,21 c 0,4.29 0,8.58 0,13 -4.455,0.495 -4.455,0.495 -9,1 0,13.2 0,26.4 0,40 -5.94,0 -11.88,0 -18,0 -0.33,-1.98 -0.66,-3.96 -1,-6 -0.598125,0.804375 -1.19625,1.60875 -1.8125,2.4375 C 33,74 33,74 30,75 c -3.287279,0.252573 -6.579017,0.231246 -9.875,0.25 -0.898477,0.02062 -1.796953,0.04125 -2.722656,0.0625 C 12.432395,75.341865 9.0267191,75.252957 5,72 4.34,71.34 3.68,70.68 3,70 2.67,70 2.34,70 2,70 1.9896925,69.152532 1.9793851,68.305064 1.9687653,67.431915 1.8709021,59.456318 1.7684037,51.480797 1.6606607,43.505327 1.6054298,39.404783 1.5520096,35.304233 1.5026855,31.203613 1.4550445,27.248388 1.4027018,23.293251 1.3470592,19.338131 1.3266345,17.827037 1.3079216,16.315919 1.290926,14.804783 1.2668845,12.692846 1.2368298,10.581075 1.2053223,8.4692383 1.189778,7.2656668 1.1742337,6.0620953 1.1582184,4.822052 1.1898122,2.0492537 1.1898122,2.0492537 0,0 Z m 40,26 c 0,15.51 0,31.02 0,47 4.62,0 9.24,0 14,0 0.33,-12.87 0.66,-25.74 1,-39 2.64,-0.66 5.28,-1.32 8,-2 0,-3.3 0,-6.6 0,-10 -9.275775,-0.488199 -13.54904,0.84968 -23,4 z M 5,29 c -2.3303201,4.66064 -1.3119249,11.596823 -1.3500977,16.774902 -0.016531,1.643048 -0.043784,3.286025 -0.082031,4.928711 -0.054993,2.375215 -0.076677,4.748745 -0.091309,7.124512 -0.022669,0.72834 -0.045339,1.456681 -0.068695,2.207092 0.016132,3.927216 0.5632207,6.403068 2.9998474,9.413025 4.2335903,4.167403 7.7194403,3.765973 13.4047853,3.801758 0.807598,0.02062 1.615195,0.04125 2.447266,0.0625 C 27.000222,73.343559 30.176105,73.117385 34,70 36.453916,66.319126 36.228028,63.556444 36.125,59.3125 36.116,58.610605 36.10695,57.908711 36.09766,57.185547 36.074137,55.456885 36.038267,53.728399 36,52 c -4.62,0 -9.24,0 -14,0 0,3.3 0,6.6 0,10 -0.99,0 -1.98,0 -3,0 0,-4.29 0,-8.58 0,-13 5.61,0 11.22,0 17,0 0.108228,-3.063451 0.187415,-6.12306 0.25,-9.1875 0.03352,-0.864316 0.06703,-1.728633 0.101562,-2.619141 0.0652,-4.254538 0.04675,-6.550636 -2.242187,-10.24414 C 30.009237,23.160387 26.092763,23.712848 20.75,23.625 19.903086,23.587617 19.056172,23.550234 18.183594,23.511719 11.999366,23.425159 9.2648832,24.477051 5,29 Z" fill="#FFFFFF" transform="translate(177,42)" id="path20"/><path d="m 0,0 c 76.56,0 153.12,0 232,0 -0.33,0.66 -0.66,1.32 -1,2 C 155.43,2 79.86,2 2,2 2,37.64 2,73.28 2,110 1.01,110.99 1.01,110.99 0,112 0,75.04 0,38.08 0,0 Z" fill="#FFFFFF" transform="translate(30,21)" id="path21"/><path d="m 0,0 c 73.92,0 147.84,0 224,0 -0.33,0.66 -0.66,1.32 -1,2 C 150.07,2 77.14,2 2,2 2,35.99 2,69.98 2,105 1.01,105.495 1.01,105.495 0,106 0,71.02 0,36.04 0,0 Z" fill="#FFFFFF" transform="translate(34,25)" id="path22"/><path d="m 0,0 c 72.6,0 145.2,0 220,0 -0.33,0.66 -0.66,1.32 -1,2 C 147.39,2 75.78,2 2,2 2,35.33 2,68.66 2,103 1.34,103 0.68,103 0,103 0,69.01 0,35.02 0,0 Z" fill="#FFFFFF" transform="translate(36,27)" id="path23"/><path d="m 0,0 c 11.22,0 22.44,0 34,0 0,0.33 0,0.66 0,1 -4.95,0 -9.9,0 -15,0 0,23.76 0,47.52 0,72 5.28,0 10.56,0 16,0 0,-23.43 0,-46.86 0,-71 0.33,0 0.66,0 1,0 0.33,24.09 0.66,48.18 1,73 -12.21,0 -24.42,0 -37,0 0,-2.97 0,-5.94 0,-9 -0.66,0 -1.32,0 -2,0 0,-0.66 0,-1.32 0,-2 0.66,0 1.32,0 2,0 C 0,42.88 0,21.76 0,0 Z m 1,1 c 0,23.76 0,47.52 0,72 5.28,0 10.56,0 16,0 C 17,49.24 17,25.48 17,1 11.72,1 6.44,1 1,1 Z" fill="#FFFFFF" transform="translate(143,42)" id="path24"/><path d="M 0,0 C 0,0.66 0,1.32 0,2 0.98355469,2.0747656 1.9671094,2.1495313 2.9804688,2.2265625 15.127951,3.32077 26.383749,6.3634001 38,10 c 0,0.66 0,1.32 0,2 C 31.07,11.505 31.07,11.505 24,11 24,10.34 24,9.68 24,9 22.68,9 21.36,9 20,9 20,8.34 20,7.68 20,7 19.098945,7.050273 18.197891,7.1005469 17.269531,7.1523437 11.623191,7.1509247 6.1819941,5.7433771 0.6875,4.5625 -26.00672,-1.140574 -51.724338,0.66879361 -78.260986,6.5800781 -87.69784,8.6594021 -97.31481,10.177982 -107,10 c -0.33,-0.66 -0.66,-1.32 -1,-2 12.923446,-2.300765 25.915111,-3.9465556 39,-5 0,-0.66 0,-1.32 0,-2 2.624181,-0.48404266 5.249216,-0.96229498 7.875,-1.4375 0.727031,-0.13470703 1.454063,-0.26941406 2.203125,-0.40820312 C -39.144095,-4.4022337 -19.69868,-3.5893472 0,0 Z" fill="#FFFFFF" transform="translate(232,149)" id="path25"/><path d="M 0,0 C 0,0.66 0,1.32 0,2 1.32,2 2.64,2 4,2 4,2.66 4,3.32 4,4 -3.1181473,3.2642101 -9.8562133,1.6608022 -16.783203,-0.09570312 -28.752872,-3.0504102 -40.417892,-4.4164155 -52.75,-4.4375 c -0.668862,-0.0014 -1.337725,-0.0028 -2.026855,-0.00424 -12.460289,0.021197 -24.165918,1.7963839 -36.271973,4.72738643 C -95.933767,1.4680842 -100.84116,2.546874 -105.75,3.625 c -0.93957,0.208103 -1.87913,0.4162061 -2.84717,0.6306152 C -141.1827,11.330216 -175.93742,13.608191 -208,3 c -0.66,-0.66 -1.32,-1.32 -2,-2 1.19625,0.268125 2.3925,0.53625 3.625,0.8125 1.79144,0.3968389 3.58314,0.7925212 5.375,1.1875 1.14469,0.2526562 2.28938,0.5053125 3.46875,0.765625 1.20656,0.2629687 2.41313,0.5259375 3.65625,0.796875 1.13695,0.2487891 2.27391,0.4975781 3.44531,0.7539062 26.24714,5.2314898 53.16379,1.9386649 79.18506,-2.980957 C -109,2 -109,2 -105,2 c 0,-0.66 0,-1.32 0,-2 36.865052,-7.7774372 68.049295,-7.8951071 105,0 z" fill="#FFFFFF" transform="translate(252,156)" id="path26"/><path d="m 0,0 c 1.3016636,-0.00945648 1.3016636,-0.00945648 2.6296234,-0.019104 0.9344142,0.0040485 1.8688284,0.0080969 2.8315582,0.01226806 0.9628945,-0.00191345 1.9257889,-0.0038269 2.917862,-0.00579834 2.0367404,-0.0013612 4.0734904,0.0023306 6.1102144,0.01068116 3.116491,0.01068872 6.232404,1.084e-4 9.348877,-0.01269532 1.978517,0.0013218 3.957033,0.0038847 5.935547,0.0078125 0.93239,-0.00404846 1.86478,-0.00809692 2.825424,-0.01226806 1.306392,0.00945648 1.306392,0.00945648 2.639175,0.019104 0.763724,0.00159119 1.527449,0.00318237 2.314316,0.00482178 2.131241,0.25396728 2.131241,0.25396728 4.221588,1.33264162 2.049095,1.2620914 2.049095,1.2620914 4.909653,-0.078674 0.01458,1.2461206 0.02916,2.4922412 0.04419,3.776123 0.05805,4.6314741 0.135287,9.2624656 0.218262,13.8935546 0.03322,2.00285 0.06126,4.005792 0.08398,6.008789 0.03361,2.882319 0.08593,5.76379 0.141846,8.645752 0.0064,0.892892 0.01278,1.785784 0.01936,2.705734 0.112512,4.777458 0.341639,8.12516 3.492355,11.970047 4.244817,2.829878 7.88303,2.367899 12.875,2.375 0.898476,0.02449 1.796953,0.04898 2.722656,0.07422 4.312593,0.01911 6.735337,-0.03679 10.472656,-2.347656 1.969088,-1.950755 1.969088,-1.950755 2.929688,-4.101563 0.99,0 1.98,0 3,0 0,2.97 0,5.94 0,9 -0.33,0 -0.66,0 -1,0 -0.33,-1.65 -0.66,-3.3 -1,-5 -1.160156,1.220098 -1.160156,1.220098 -2.34375,2.464844 -4.327752,3.595031 -8.751296,3.237114 -14.15625,3.097656 -0.924258,0.01096 -1.848516,0.02191 -2.800781,0.0332 -5.800981,-0.06224 -9.316463,-0.687746 -13.699219,-4.595703 0,-0.66 0,-1.32 0,-2 -0.66,0 -1.32,0 -2,0 0,1.65 0,3.3 0,5 -0.66,0 -1.32,0 -2,0 -0.0059,-0.584378 -0.01173,-1.168757 -0.01778,-1.770843 -0.06379,-6.066944 -0.148178,-12.13335 -0.244674,-18.19986 -0.03331,-2.265879 -0.06133,-4.531841 -0.08399,-6.797852 -0.03343,-3.251993 -0.08574,-6.503211 -0.141845,-9.754882 -0.0064,-1.017745 -0.01278,-2.035491 -0.01936,-3.084076 -0.01979,-0.940825 -0.03959,-1.881649 -0.05998,-2.8509827 C 43.099556,8.5545299 43.099556,8.5545299 43.082565,7.2835998 42.885195,6.2813185 42.885195,6.2813185 42.683838,5.2587891 39.597504,3.2012333 38.947535,3.0074482 35.459473,3 34.18784,2.9905435 34.18784,2.9905435 32.890518,2.980896 c -0.91254,0.00405 -1.825081,0.0081 -2.765274,0.012268 -0.940698,-0.00191 -1.881397,-0.00383 -2.850601,-0.0058 -1.989662,-0.00136 -3.979334,0.00233 -5.968979,0.010681 C 18.261597,3.008734 15.218121,2.9981532 12.174072,2.98535 10.241128,2.98667 8.3081846,2.98923 6.3752441,2.99316 5.4647279,2.98911 4.5542117,2.98506 3.6161041,2.980892 2.765197,2.9872003 1.9142899,2.9935046 1.0375977,3 0.29163834,3.00159 -0.45432098,3.00318 -1.2228851,3.00482 c -2.3833962,0.289166 -4.0191515,1.0730021 -6.093277,2.2539673 0,-0.99 0,-1.98 0,-3 C -4.2071962,0.18614512 -3.5255433,0.00735298 0,0 Z" fill="#FFFFFF" transform="translate(60.316162,63.741211)" id="path27"/><path d="m 0,0 c 0.33,0 0.66,0 1,0 0,41.25 0,82.5 0,125 -5.8853275,-1.17707 -11.327564,-2.27361 -17,-4 0.33,-0.99 0.66,-1.98 1,-3 1.959037,0.47628 3.917211,0.95611 5.875,1.4375 1.0905469,0.26684 2.1810937,0.53367 3.3046875,0.80859 C -3,121 -3,121 -1,122 c -9.218e-4,-0.61053 -0.00184,-1.22106 -0.00279,-1.85009 -0.022073,-14.84716 -0.038627,-29.694319 -0.049019,-44.541493 -0.00516,-7.179944 -0.012194,-14.359877 -0.023627,-21.539813 -0.00996,-6.257139 -0.016417,-12.51427 -0.018649,-18.771417 -0.0013,-3.313905 -0.0049,-6.627783 -0.011642,-9.941682 -0.00722,-3.697047 -0.00826,-7.394047 -0.0078,-11.091101 -0.00539,-1.652928 -0.00539,-1.652928 -0.010895,-3.339248 0.00137,-1.0054087 0.00275,-2.010817 0.00417,-3.0466923 -9.218e-4,-0.8747815 -0.00184,-1.749563 -0.00279,-2.6508531 C -1,3 -1,3 0,0 Z" fill="#FFFFFF" transform="translate(261,22)" id="path28"/><path d="m 0,0 c 0,4.29 0,8.58 0,13 -4.455,0.495 -4.455,0.495 -9,1 0,13.2 0,26.4 0,40 -5.94,0 -11.88,0 -18,0 0,-16.5 0,-33 0,-50 7.437796,-3.71889804 18.7500793,-8.1249603 27,-4 z m -25,5 c 0,15.51 0,31.02 0,47 4.62,0 9.24,0 14,0 0.33,-12.87 0.66,-25.74 1,-39 2.64,-0.66 5.28,-1.32 8,-2 0,-3.3 0,-6.6 0,-10 -9.275775,-0.48819869 -13.54904,0.8496799 -23,4 z" fill="#FFFFFF" transform="translate(242,63)" id="path29"/><path d="M 0,0 C 0,0.99 0,1.98 0,3 0.72445312,3.0489844 1.4489062,3.0979688 2.1953125,3.1484375 7.4145887,3.5520615 12.098137,4.0127581 17,6 c 0,0.66 0,1.32 0,2 0.99,0.495 0.99,0.495 2,1 C 13.277626,8.4890738 7.6994975,7.5991617 2.0625,6.5 -3.941013,5.3315593 -9.8957453,4.425537 -16,4 c 0,-0.33 0,-0.66 0,-1 -12.324487,-2.39227481 -24.497902,-2.21003783 -37,-2 0,-0.33 0,-0.66 0,-1 16.87416,-3.8257205 36.092425,-3.4429972 53,0 z" fill="#FFFFFF" transform="translate(225,133)" id="path30"/><path d="m 0,0 c 2.4375,1.625 2.4375,1.625 4,4 0.5625,2.9375 0.5625,2.9375 0,6 -2.0625,2.9375 -2.0625,2.9375 -5,5 -3.8427383,0.06625 -5.9920072,-0.181006 -9,-2.625 C -11.456351,8.9161675 -10.913059,6.5870163 -10,3 -7.6713315,-1.0104847 -4.2635327,-0.52359173 0,0 Z" fill="#FFFFFF" transform="translate(119,48)" id="path31"/><path d="M 0,0 C 3.985944,0.59051022 6.2960509,2.020772 9,5 9.6581445,8.5751912 9.5154952,12.066116 9.375,15.6875 9.35373,17.150264 9.35373,17.150264 9.332031,18.642578 9.1822361,25.817764 9.1822361,25.817764 8,27 7.7634648,29.525963 7.5782631,32.031072 7.4375,34.5625 7.3943164,35.273418 7.3511328,35.984336 7.3066406,36.716797 7.2002822,38.477619 7.0996115,40.238783 7,42 6.67,42 6.34,42 6,42 6,37.71 6,33.42 6,29 c -4.62,0 -9.24,0 -14,0 0,3.3 0,6.6 0,10 -0.99,0 -1.98,0 -3,0 0,-4.29 0,-8.58 0,-13 5.61,0 11.22,0 17,0 C 5.9669095,22.934618 5.8996576,19.876424 5.8125,16.8125 5.8066992,15.948184 5.8008984,15.083867 5.7949219,14.193359 5.635925,9.5824511 5.540826,7.6335863 2.4492188,4.0117187 1.2368555,3.015918 1.2368555,3.015918 0,2 0,1.34 0,0.68 0,0 Z" fill="#FFFFFF" transform="translate(207,65)" id="path32"/><path d="M 0,0 C 3.0099077,2.2901472 4.697839,3.7913561 5.625,7.5 4.6850022,11.259991 3.1139431,12.74736 0,15 -3.5436124,15 -5.8659159,14.6585 -8.9375,12.875 -10.671231,9.8154754 -10.421452,7.4318247 -10,4 -7.2723892,-0.09141613 -4.7956354,-0.88083098 0,0 Z" fill="#FFFFFF" transform="translate(136,48)" id="path33"/><path d="M 0,0 C 0.97582031,0.00902344 1.9516406,0.01804688 2.9570313,0.02734375 4.0611133,0.04474609 4.0611133,0.04474609 5.1875,0.0625 c -22.920709,12.606062 -62.96577,9.7839066 -88,5 0,-0.33 0,-0.66 0,-1 0.562802,0.00222 1.125603,0.00444 1.70546,0.00673 5.988717,0.022548 11.977421,0.037378 17.966171,0.048202 2.219406,0.00495 4.438809,0.011719 6.658203,0.020508 15.252801,0.058784 30.438153,-0.2616925 45.670166,-1.0754394 0,-0.66 0,-1.32 0,-2 C -7.138625,0.20951624 -3.7677607,-0.04539471 0,0 Z" fill="#FFFFFF" transform="translate(141.8125,156.9375)" id="path34"/><path d="M 0,0 C 1.1548389,0.21765015 1.1548389,0.21765015 2.3330078,0.43969727 14.090791,2.4081294 25.648153,2.1142582 37.52832,1.8835449 c 2.672845,-0.047983 5.34544,-0.077995 8.018555,-0.1062012 0.82071,-0.021758 1.64142,-0.043516 2.487,-0.065933 C 50.323242,1.6911621 50.323242,1.6911621 54,2 c 0.66,0.99 1.32,1.98 2,3 -5.184879,0.8535744 -10.1757,1.1600931 -15.425781,1.1679687 -0.787633,0.00333 -1.575265,0.00666 -2.386765,0.010086 -1.6581,0.00504 -3.316211,0.00741 -4.974319,0.00725 -2.508068,0.00218 -5.015692,0.020361 -7.523682,0.039307 C 5.4460419,6.2973613 5.4460419,6.2973613 -1,2 -0.67,1.34 -0.34,0.68 0,0 Z" fill="#FFFFFF" transform="translate(59,145)" id="path35"/><path d="m 0,0 c 3.7188824,0.50712033 6.7345424,1.1160821 10,3 0,0.66 0,1.32 0,2 4.204362,1.7470552 8.490445,3.2022372 12.8125,4.625 0.692871,0.2294531 1.385742,0.458906 2.099609,0.695313 C 26.607618,10.881584 28.303747,11.440983 30,12 29.01,13.65 28.02,15.3 27,17 16.60978,14.430618 7.0042225,10.329346 0,2 0,1.34 0,0.68 0,0 Z" fill="#FFFFFF" transform="translate(31,131)" id="path36"/><path d="M 0,0 C 3.4375,2 3.4375,2 6,4 7.32,3.34 8.64,2.68 10,2 9.67,2.515625 9.34,3.03125 9,3.5625 7.6379578,6.8824779 7.6823091,9.4418625 8,13 c 1.3588512,2.400834 1.3588512,2.400834 3,4 -3,0 -3,0 -6,-2 -0.66,1.32 -1.32,2.64 -2,4 -2.97,-0.33 -5.94,-0.66 -9,-1 0,-0.33 0,-0.66 0,-1 1.11375,-0.268125 2.2275,-0.53625 3.375,-0.8125 C 1.2184095,15.34191 1.2184095,15.34191 3,12 3.3216208,8.9124407 3.4872452,6.8598444 1.9375,4.125 -1.1407191,2.337647 -3.5290607,2.5661326 -7,3 c -2.1854768,1.4414897 -2.1854768,1.4414897 -3,4 0.2213821,4.206259 0.6504496,6.475674 3,10 -1.875,-0.25 -1.875,-0.25 -4,-1 -2.347089,-3.16857 -2.470541,-6.1572478 -2,-10 3.7599456,-5.63991844 6.2640263,-6.56133114 13,-6 z" fill="#FFFFFF" transform="translate(119,46)" id="path37"/><path d="M 0,0 C 0.99,0 1.98,0 3,0 3,12.87 3,25.74 3,39 2.01,39 1.02,39 0,39 0,26.13 0,13.26 0,0 Z" fill="#FFFFFF" transform="translate(86,77)" id="path38"/><path d="M 0,0 C 0.99,0 1.98,0 3,0 3,12.87 3,25.74 3,39 2.01,39 1.02,39 0,39 0,26.13 0,13.26 0,0 Z" fill="#FFFFFF" transform="translate(68,77)" id="path39"/><path d="M 0,0 C 0.99,0 1.98,0 3,0 3,12.87 3,25.74 3,39 2.01,39 1.02,39 0,39 0,26.13 0,13.26 0,0 Z" fill="#FFFFFF" transform="translate(123,65)" id="path40"/><path d="M 0,0 C 0.66,0 1.32,0 2,0 2,15.51 2,31.02 2,47 1.34,47 0.68,47 0,47 0,33.47 0,19.94 0,6 -0.66,5.67 -1.32,5.34 -2,5 -1.34,3.35 -0.68,1.7 0,0 Z" fill="#FFFFFF" transform="translate(141,59)" id="path41"/><path d="m 0,0 c 0.99,0 1.98,0 3,0 0.33,8.91 0.66,17.82 1,27 2.97,-2.475 2.97,-2.475 6,-5 2.51709,-0.567627 2.51709,-0.567627 4.960938,-0.488281 1.324511,0.02417 1.324511,0.02417 2.675781,0.04883 1.355449,0.06284 1.355449,0.06284 2.738281,0.126953 1.390254,0.03384 1.390254,0.03384 2.808594,0.06836 C 25.457423,21.814463 27.727849,21.896431 30,22 c 0,0.66 0,1.32 0,2 -1.970332,0.03867 -1.970332,0.03867 -3.980469,0.07813 -1.73571,0.05629 -3.471385,0.11364 -5.207031,0.171875 -0.864316,0.01418 -1.728633,0.02836 -2.619141,0.04297 C 12.868866,24.496972 9.8720601,24.999124 6,29 5,30 4,31 3,32 2.67,32 2.34,32 2,32 1.9749438,31.101685 1.9498877,30.203369 1.9240723,29.277832 1.8290131,25.949251 1.7297758,22.62085 1.6276855,19.29248 1.5843377,17.851124 1.5426625,16.409716 1.5026855,14.968262 1.4449791,12.897955 1.3812863,10.827906 1.3164062,8.7578125 1.2797485,7.5114502 1.2430908,6.2650879 1.2053223,4.980957 1.1971052,2.0736306 1.1971052,2.0736306 0,0 Z" fill="#FFFFFF" transform="translate(177,42)" id="path42"/><path d="m 0,0 c 0.33,0 0.66,0 1,0 0.00935,1.028833 0.018691,2.057666 0.02832,3.1176758 0.040027,3.8358813 0.1058202,7.6709712 0.1791992,11.5063472 0.028136,1.656472 0.049387,3.313076 0.063477,4.969727 0.021533,2.388707 0.068231,4.775834 0.1196289,7.164062 0.00123,0.734615 0.00246,1.46923 0.00372,2.226105 C 1.5440696,34.301018 2.8051315,36.953538 6,41 4.68,41 3.36,41 2,41 1.34,40.34 0.68,39.68 0,39 -0.33,39 -0.66,39 -1,39 -1.024649,33.60653 -1.042835,28.213093 -1.054932,22.81958 -1.059972,20.983311 -1.066805,19.147046 -1.07544,17.310791 -1.087517,14.677236 -1.093231,12.043734 -1.097657,9.4101563 -1.102817,8.5841139 -1.10798,7.7580716 -1.113297,6.9069977 -1.113492,4.9376363 -1.0620415,2.9683839 -1,1 -0.67,0.67 -0.34,0.34 0,0 Z" fill="#FFFFFF" transform="translate(180,73)" id="path43"/><path d="M 0,0 C 0,0.33 0,0.66 0,1 -1.0714526,1.037584 -1.0714526,1.037584 -2.1645508,1.075928 -21.099601,1.724228 -21.099601,1.724228 -40,3 -31.978727,-6.6945855 -10.815505,-1.3907423 0,0 Z" fill="#FFFFFF" transform="translate(212,135)" id="path44"/><path d="m 0,0 c 0,0.66 0,1.32 0,2 -4.8891068,1.7934523 -9.6967223,2.7831088 -14.8125,3.625 -1.134053,0.2010937 -1.134053,0.2010937 -2.291016,0.40625 C -22.465285,6.9271637 -27.564729,7.1189811 -33,7 -30.246309,4.2463093 -28.150215,4.4907254 -24.3125,4.0625 -18.922642,3.3681011 -14.841956,2.3694676 -10,0 -6.2887838,-1.0603475 -3.7352631,-0.96049624 0,0 Z" fill="#FFFFFF" transform="translate(150,142)" id="path45"/><path d="M 0,0 C 0.78375,0.515625 1.5675,1.03125 2.375,1.5625 3.24125,2.036875 4.1075,2.51125 5,3 5.66,2.67 6.32,2.34 7,2 c 0,0.66 0,1.32 0,2 1.32,0 2.64,0 4,0 0,0.66 0,1.32 0,2 -3.9509698,0.049397 -7.9018203,0.085718 -11.85302734,0.1098633 -2.00608626,0.015018 -4.01208586,0.040427 -6.01806636,0.065918 -1.256836,0.00645 -2.5136719,0.012891 -3.8085943,0.019531 -1.162573,0.010474 -2.325146,0.020947 -3.522949,0.031738 C -17,6 -17,6 -19,4 c 2.64,-0.66 5.28,-1.32 8,-2 0,0.66 0,1.32 0,2 4.0213072,0.2763516 4.0213072,0.2763516 8,0 2.05270463,-1.8418861 2.05270463,-1.8418861 3,-4 z" fill="#FFFFFF" transform="translate(124,60)" id="path46"/><path d="M 0,0 C 5.4001838,1.2789909 9.1745212,4.11389 13.585938,7.3125 16.306264,9.2140872 18.978138,10.648114 22,12 c 0,0.66 0,1.32 0,2 C 15.075679,13.635562 8.8793202,9.8451781 4.0234375,5.046875 2.6227397,3.413834 1.3018121,1.7129106 0,0 Z" fill="#FFFFFF" transform="translate(23,138)" id="path47"/><path d="m 0,0 c 5.9290951,0.5861719 11.315803,1.8040438 17,3.5625 0.774727,0.2339648 1.549453,0.4679297 2.347656,0.7089844 C 21.233521,4.8419004 23.117021,5.420128 25,6 25,6.66 25,7.32 25,8 18.07,7.505 18.07,7.505 11,7 11,6.34 11,5.68 11,5 9.68,5 8.36,5 7,5 7,4.01 7,3.02 7,2 4.69,1.67 2.38,1.34 0,1 0,0.67 0,0.34 0,0 Z" fill="#FFFFFF" transform="translate(245,153)" id="path48"/><path d="M 0,0 C 3.3021413,0.62332554 5.4547241,1.8186392 8.1875,3.75 12.080212,6.4355195 16.057657,8.7383628 20.25,10.921875 22,12 22,12 23,14 14.906527,12.976414 7.6572597,9.3711325 2.3125,3.125 1.549375,2.09375 0.78625,1.0625 0,0 Z" fill="#FFFFFF" transform="translate(31,132)" id="path49"/><path d="M 0,0 C 0.845625,0.78375 1.69125,1.5675 2.5625,2.375 5.796228,5.1029791 8.9141531,5.9207197 13,7 c 1.021046,0.9785019 2.020612,1.9798043 3,3 2.291712,1.138096 4.617419,2.055959 7,3 0,0.99 0,1.98 0,3 C 16.637978,15.064408 12.41763,12.560135 8,8 6.3405185,6.988121 4.6741944,5.9873454 3,5 1.1875,3.4375 1.1875,3.4375 0,2 0,1.34 0,0.68 0,0 Z" fill="#FFFFFF" transform="translate(22,141)" id="path50"/><path d="m 0,0 c 2.3431213,0.25561323 4.678434,0.59270772 7,1 0.33,0.66 0.66,1.32 1,2 2.574376,0.9128014 2.574376,0.9128014 5.5625,1.625 1.517871,0.3905859 1.517871,0.3905859 3.066406,0.7890625 C 17.802598,5.7041016 17.802598,5.7041016 19,6 19,6.66 19,7.32 19,8 17.582975,7.8576919 16.16639,7.7109925 14.75,7.5625 13.566641,7.4406836 13.566641,7.4406836 12.359375,7.3164062 10.176354,7.0236501 8.1226818,6.5793558 6,6 6,5.34 6,4.68 6,4 3.03,3.67 0.06,3.34 -3,3 -2.01,2.67 -1.02,2.34 0,2 0,1.34 0,0.68 0,0 Z" fill="#FFFFFF" transform="translate(226,145)" id="path51"/><path d="m 0,0 c 0.88068649,1.5106e-4 1.761373,3.0212e-4 2.668747,4.5776e-4 0.9469624,0.01032257 1.8939248,0.02064515 2.8695831,0.03128052 0.9723811,0.0028299 1.9447622,0.0056598 2.9466095,0.0085754 3.1077654,0.01120107 6.2152434,0.03630559 9.3229214,0.06173706 2.106116,0.0100299 4.212236,0.0191557 6.31836,0.0273438 5.164824,0.0220594 10.329433,0.0565888 15.49414,0.0976563 0,0.33 0,0.66 0,1.00000006 -14.19,0 -28.38,0 -42.9999997,0 -0.66,1.32 -1.32,2.64 -2,4 -0.66,0 -1.32,0 -2,0 0,-0.99 0,-1.98 0,-3 C -4.2443364,0.13684925 -3.561321,-0.02040872 0,0 Z" fill="#FFFFFF" transform="translate(60.379639,63.772949)" id="path52"/><path d="m 0,0 c 3.4520712,1.1506904 3.7657546,1.8205773 5.6875,4.75 2.7669996,3.889133 5.593797,6.003653 9.773438,8.242188 C 15.968828,13.324766 16.476719,13.657344 17,14 c 0,0.66 0,1.32 0,2 1.423125,0.433125 1.423125,0.433125 2.875,0.875 C 23,18 23,18 25,20 16.047135,18.739488 7.5327625,11.973931 2,5 0.5625,2.0625 0.5625,2.0625 0,0 Z" fill="#FFFFFF" transform="translate(17,137)" id="path53"/><path d="m 0,0 c 0,0.66 0,1.32 0,2 0.66,0.33 1.32,0.66 2,1 -7.8246759,-0.674541 -15.345566,-2.26876958 -23,-4 0,-0.33 0,-0.66 0,-1 6.740354,-1.5318986 14.7361635,-1.1319182 21,2 z" fill="#FFFFFF" transform="translate(242,139)" id="path54"/><path d="M 0,0 C 0,0.66 0,1.32 0,2 -1.093125,2.0825 -2.18625,2.165 -3.3125,2.25 -6.9341205,2.6901148 -6.9341205,2.6901148 -9,4.625 c -1.443753,3.4289144 -0.8432417,5.807439 0,9.375 0.99,1.485 0.99,1.485 2,3 -1.875,-0.25 -1.875,-0.25 -4,-1 -2.347089,-3.16857 -2.470541,-6.1572478 -2,-10 3.8804757,-5.82071352 6.1775663,-6.12634136 13,-6 z" fill="#FFFFFF" transform="translate(119,46)" id="path55"/><path d="M 0,0 C 2.5209078,-0.0272367 5.0415146,-0.04695207 7.5625,-0.0625 8.619209,-0.07506836 8.619209,-0.07506836 9.6972656,-0.08789062 14.212503,-0.10869817 18.56926,0.02222011 23,1 23.66,1.99 24.32,2.98 25,4 21.37,4 17.74,4 14,4 14,3.67 14,3.34 14,3 9.38,2.34 4.76,1.68 0,1 0,0.67 0,0.34 0,0 Z" fill="#FFFFFF" transform="translate(195,133)" id="path56"/><path d="m 0,0 c 3.7707689,-0.05799124 7.5414233,-0.09359306 11.3125,-0.125 1.071855,-0.0167578 2.143711,-0.0335156 3.248047,-0.0507813 1.028027,-0.006445 2.056055,-0.0128906 3.115234,-0.0195313 0.947864,-0.0104736 1.895728,-0.0209473 2.872315,-0.0317383 C 23,0 23,0 26,2 21.683625,3.4387916 17.521574,3.2245263 13,3.25 12.084766,3.270625 11.169531,3.29125 10.226563,3.3125 9.3474219,3.3176563 8.4682813,3.3228125 7.5625,3.328125 6.7594141,3.3374707 5.9563281,3.3468164 5.1289062,3.3564453 2.5208138,2.9197693 1.6502044,2.0096943 0,0 Z" fill="#FFFFFF" transform="translate(184,114)" id="path57"/><path d="M 0,0 C -0.33,0.66 -0.66,1.32 -1,2 -3.3374429,2.4680664 -5.6973908,2.8266979 -8.0625,3.125 -9.9980273,3.3763672 -9.9980273,3.3763672 -11.972656,3.6328125 -13.471191,3.8145703 -13.471191,3.8145703 -15,4 c 0.66,0.66 1.32,1.32 2,2 -3.63,-0.33 -7.26,-0.66 -11,-1 3.525148,-2.3500984 6.789942,-2.9036744 10.875,-3.625 1.061543,-0.2010938 1.061543,-0.2010938 2.144531,-0.40625 C -7.2796643,0.29337041 -3.7627669,-0.16231543 0,0 Z" fill="#FFFFFF" transform="translate(134,144)" id="path58"/><path d="M 0,0 C 1.6029492,0.01353516 1.6029492,0.01353516 3.2382813,0.02734375 4.0465234,0.03894531 4.8547656,0.05054688 5.6875,0.0625 c -6.65039209,3.4333911 -12.6189934,4.3012656 -20,4 C -10.492873,-0.5612588 -5.6259479,-0.0618236 0,0 Z" fill="#FFFFFF" transform="translate(165.3125,137.9375)" id="path59"/><path d="M 0,0 C 1.982606,0.42164019 3.9610725,0.86278778 5.9375,1.3125 7.0396484,1.5561328 8.1417969,1.7997656 9.2773438,2.0507813 10.625059,2.5206445 10.625059,2.5206445 12,3 12.33,3.99 12.66,4.98 13,6 8.131037,5.4038005 3.6720905,4.4302318 -1,3 -0.67,2.01 -0.34,1.02 0,0 Z" fill="#FFFFFF" transform="translate(246,140)" id="path60"/><path d="M 0,0 C 0,0.33 0,0.66 0,1 -0.6290625,1.037383 -1.258125,1.074766 -1.90625,1.1132812 -7.0752443,1.5102974 -11.39768,2.3023727 -16.175781,4.3085937 -18,5 -18,5 -21.4375,5.5625 -22.283125,5.706875 -23.12875,5.85125 -24,6 c -0.33,0.66 -0.66,1.32 -1,2 0,-0.99 0,-1.98 0,-3 8.384246,-4.61133536 15.6209715,-5.3103355 25,-5 z" fill="#FFFFFF" transform="translate(240,62)" id="path61"/><path d="m 0,0 c 3.3,0.99 6.6,1.98 10,3 0.33,-0.66 0.66,-1.32 1,-2 0,1.32 0,2.64 0,4 4.455,0.99 4.455,0.99 9,2 0,0.33 0,0.66 0,1 C 16.7,8 13.4,8 10,8 10,7.01 10,6.02 10,5 9.0428711,4.7099609 9.0428711,4.7099609 8.0664063,4.4140625 6.8269727,4.0234766 6.8269727,4.0234766 5.5625,3.625 4.7387891,3.3697656 3.9150781,3.1145313 3.0664063,2.8515625 1,2 1,2 0,0 Z" fill="#FFFFFF" transform="translate(35,149)" id="path62"/><path d="M 0,0 C 3.2377284,1.0792428 3.8699986,1.7514307 5.9375,4.3125 8.1728826,7.0217168 10.464643,9.5621566 13,12 7.7368513,10.716305 3.4233308,8.2335867 0,4 0,2.68 0,1.36 0,0 Z" fill="#FFFFFF" transform="translate(20,136)" id="path63"/><path d="m 0,0 c 0,0.66 0,1.32 0,2 -11.52164,2.2961276 -11.52164,2.2961276 -17,2 -0.33,-0.66 -0.66,-1.32 -1,-2 1.873875,-0.3396019 3.749167,-0.6713869 5.625,-1 1.044141,-0.185625 2.088281,-0.37125 3.1640625,-0.5625 C -6.0942514,0.01284203 -3.1406919,-0.07545206 0,0 Z" fill="#FFFFFF" transform="translate(142,155)" id="path64"/><path d="M 0,0 C 1.5832369,-0.027193 3.1666106,-0.04648306 4.75,-0.0625 6.0725781,-0.07990234 6.0725781,-0.07990234 7.421875,-0.09765625 9.7818838,-0.00826198 11.744985,0.33087179 14,1 14,1.99 14,2.98 14,4 9.0308336,3.4859483 4.7097365,2.7661512 0,1 0,0.67 0,0.34 0,0 Z" fill="#FFFFFF" transform="translate(45,157)" id="path65"/><path d="M 0,0 C 0.598125,0.33 1.19625,0.66 1.8125,1 4.9897059,2.452437 6.7129912,2.0956696 10,1 9.01,3.97 8.02,6.94 7,10 5,7 5,7 5,5 4.360625,4.731875 3.72125,4.46375 3.0625,4.1875 1,3 1,3 0,0 Z" fill="#FFFFFF" transform="translate(119,47)" id="path66"/><path d="M 0,0 C 0.99,0 1.98,0 3,0 3,3.3 3,6.6 3,10 2.01,10 1.02,10 0,10 0,6.7 0,3.4 0,0 Z" fill="#FFFFFF" transform="translate(196,78)" id="path67"/><path d="M 0,0 C 1.258125,-0.020625 2.51625,-0.04125 3.8125,-0.0625 4.5201953,-0.07410156 5.2278906,-0.08570313 5.9570312,-0.09765625 8,0 8,0 11,1 11,1.66 11,2.32 11,3 6.4828162,4.3688436 3.4122574,3.4707525 -1,2 -0.67,1.34 -0.34,0.68 0,0 Z" fill="#FFFFFF" transform="translate(215,144)" id="path68"/><path d="M 0,0 C 0,0.66 0,1.32 0,2 0.99,2.33 1.98,2.66 3,3 1.2492948,2.8852986 -0.50057536,2.7578097 -2.25,2.625 -3.2245313,2.5553906 -4.1990625,2.4857813 -5.203125,2.4140625 -7.8963319,2.0153475 -9.6696328,1.3649294 -12,0 -7.6835078,-0.76173392 -4.2556655,-1.160636 0,0 Z" fill="#FFFFFF" transform="translate(233,137)" id="path69"/><path d="M 0,0 C 0.97582031,0.00902344 1.9516406,0.01804688 2.9570313,0.02734375 3.6930859,0.03894531 4.4291406,0.05054688 5.1875,0.0625 c -3.9346649,2.1429872 -7.5272219,2.9541724 -12,3 -2.5,-0.9375 -2.5,-0.9375 -4,-2 C -7.138625,0.20951624 -3.7677607,-0.04539471 0,0 Z" fill="#FFFFFF" transform="translate(141.8125,156.9375)" id="path70"/><path d="m 0,0 c 0.66,0.66 1.32,1.32 2,2 -6.435,0.495 -6.435,0.495 -13,1 0,-0.66 0,-1.32 0,-2 3.9229643,-1.30765478 6.8600243,-1.1971417 11,-1 z" fill="#FFFFFF" transform="translate(184,144)" id="path71"/><path d="M 0,0 C 0.66,0 1.32,0 2,0 3.8597711,2.5924082 5.5720542,5.1441085 7,8 5.68,8 4.36,8 3,8 2.34,7.34 1.68,6.68 1,6 0.67,6 0.34,6 0,6 0,4.02 0,2.04 0,0 Z" fill="#FFFFFF" transform="translate(179,106)" id="path72"/><path d="M 0,0 C 0.99,0 1.98,0 3,0 3,2.97 3,5.94 3,9 2.67,9 2.34,9 2,9 1.67,7.35 1.34,5.7 1,4 0.34,4.66 -0.32,5.32 -1,6 -1.99,5.67 -2.98,5.34 -4,5 -2.1875,2.5 -2.1875,2.5 0,0 Z" fill="#FFFFFF" transform="translate(140,108)" id="path73"/><path d="m 0,0 c 5.445,1.485 5.445,1.485 11,3 0,0.33 0,0.66 0,1 C 9.5417679,4.0270043 8.0833933,4.0463979 6.625,4.0625 5.8128906,4.0741016 5.0007812,4.0857031 4.1640625,4.0976562 2,4 2,4 0,3 0,2.01 0,1.02 0,0 Z" fill="#FFFFFF" transform="translate(46,151)" id="path74"/><path d="M 0,0 C 4.455,1.98 4.455,1.98 9,4 9,4.66 9,5.32 9,6 3.5084746,5.3898305 3.5084746,5.3898305 1.125,3.5625 0,2 0,2 0,0 Z" fill="#FFFFFF" transform="translate(36,146)" id="path75"/><path d="M 0,0 C -0.33,0.99 -0.66,1.98 -1,3 -4.63,2.67 -8.26,2.34 -12,2 -4.8695652,-1.5652174 -4.8695652,-1.5652174 0,0 Z" fill="#FFFFFF" transform="translate(175,136)" id="path76"/><path d="m 0,0 c 0,0.33 0,0.66 0,1 -6.435,0.495 -6.435,0.495 -13,1 0,-0.66 0,-1.32 0,-2 4.6292152,-1.0161692 8.3446261,-0.83796731 13,0 z" fill="#FFFFFF" transform="translate(131,159)" id="path77"/><path d="M 0,0 C 0.99,0 1.98,0 3,0 3,0.66 3,1.32 3,2 4.65,2 6.3,2 8,2 8,2.33 8,2.66 8,3 4.7,3.33 1.4,3.66 -2,4 -1.34,2.68 -0.68,1.36 0,0 Z" fill="#FFFFFF" transform="translate(144,151)" id="path78"/><path d="M 0,0 C 1.6040733,-0.02708567 3.2082785,-0.04643483 4.8125,-0.0625 5.7058203,-0.07410156 6.5991406,-0.08570313 7.5195312,-0.09765625 10,0 10,0 13,1 13,1.66 13,2.32 13,3 11.582494,2.8849034 10.165988,2.7574634 8.75,2.625 7.9610937,2.5553906 7.1721875,2.4857813 6.359375,2.4140625 3.914123,1.9849289 2.151631,1.2139936 0,0 Z" fill="#FFFFFF" transform="translate(232,150)" id="path79"/><path d="M 0,0 C 2.31,0.66 4.62,1.32 7,2 6.67,2.99 6.34,3.98 6,5 4.35,4.67 2.7,4.34 1,4 0.67,2.68 0.34,1.36 0,0 Z" fill="#FFFFFF" transform="translate(52,143)" id="path80"/><path d="m 0,0 c 2.31,0 4.62,0 7,0 0,0.66 0,1.32 0,2 1.65,0 3.3,0 5,0 0,0.33 0,0.66 0,1 C 9.36,3 6.72,3 4,3 4,2.34 4,1.68 4,1 2.68,0.67 1.36,0.34 0,0 Z" fill="#FFFFFF" transform="translate(62,156)" id="path81"/><path d="M 0,0 C 2.875,-0.1875 2.875,-0.1875 6,0 6.66,0.99 7.32,1.98 8,3 5.36,3 2.72,3 0,3 0,2.01 0,1.02 0,0 Z" fill="#FFFFFF" transform="translate(107,147)" id="path82"/><path d="m 0,0 c 0,0.66 0,1.32 0,2 -2.31,0 -4.62,0 -7,0 0,-0.66 0,-1.32 0,-2 2.6666419,-1.3333209 4.166803,-0.67102033 7,0 z" fill="#FFFFFF" transform="translate(150,142)" id="path83"/><path d="M 0,0 C 2.375,-0.1875 2.375,-0.1875 5,0 5.66,0.99 6.32,1.98 7,3 4.69,3 2.38,3 0,3 0,2.01 0,1.02 0,0 Z" fill="#FFFFFF" transform="translate(213,134)" id="path84"/><path d="M 0,0 C 3.2427151,0.5590888 4.9305742,1.4132178 7,4 7,4.66 7,5.32 7,6 4.5063843,4.7961855 2.3185692,3.5457128 0,2 0,1.34 0,0.68 0,0 Z" fill="#FFFFFF" transform="translate(207,65)" id="path85"/><path d="M 0,0 C -0.33,1.32 -0.66,2.64 -1,4 -2.32,4 -3.64,4 -5,4 -5,3.01 -5,2.02 -5,1 -3,0 -3,0 0,0 Z" fill="#FFFFFF" transform="translate(173,145)" id="path86"/><path d="M 0,0 C 0.33,0 0.66,0 1,0 1.28875,1.093125 1.5775,2.18625 1.875,3.3125 2.818932,7.0401384 2.818932,7.0401384 5,10 3.0625,9.625 3.0625,9.625 1,9 -0.4783226,6.0433548 -0.06032783,3.2577026 0,0 Z" fill="#FFFFFF" transform="translate(107,53)" id="path87"/></g></svg>
