<svg xmlns="http://www.w3.org/2000/svg" width="24" height="24"><path fill="#FFF" fill-rule="evenodd" d="M3 8.95v2.85h18V6.1H3zm.47-2.38a21 21 0 0 0-.07 2.4v2.33h17.2l-.02-2.37-.03-2.38-8.5-.03c-4.69-.01-8.55 0-8.58.05m.63 2.37v1.76h.25c.25 0 .25 0 .26-.92v-.93l.22.6c.3.8.48.82.73.08l.19-.58.03.88.03.88.27-.03.27-.03v-3.4h-.3c-.27 0-.3.04-.54.78-.14.42-.28.77-.31.77s-.17-.35-.31-.78c-.22-.69-.28-.77-.52-.8l-.27-.03zm2.7-.33c0 1.8.13 2.09.91 2.09q.3-.01.54-.26c.24-.26.25-.32.25-1.75V7.2h-.6l-.02 1.42c-.03 1.35-.04 1.43-.23 1.43s-.2-.08-.23-1.43L7.4 7.2h-.6zm2.12.33.03 1.72.27.03.27.03.03-.88.03-.88.31.85c.27.75.34.85.58.88l.26.03V7.2h-.25c-.24 0-.25.03-.27.58v.85c.03.34-.13.28-.22-.08l-.27-.8c-.18-.5-.23-.55-.5-.55h-.3zm2.28.02v1.75h.55c.97 0 1.21-.45 1.13-2.12-.04-.84-.06-.93-.32-1.14-.21-.19-.39-.24-.82-.24h-.54zm2.1 0v1.75h.6l.02-.72.03-.73.38-.03c.32-.03.37-.07.37-.28s-.04-.24-.4-.24h-.4v-.95h.47c.45 0 .48-.02.48-.25s-.02-.25-.77-.28l-.78-.03zm1.9 0v1.75h1.5v-.3c0-.29-.02-.3-.45-.3h-.45v-.9h.4c.36 0 .4-.02.4-.25 0-.22-.04-.25-.4-.25h-.4v-.95h.42c.4 0 .43-.02.46-.27l.03-.28H15.2zm1.9 0v1.76l.27-.03.28-.03v-3.4l-.27-.03-.28-.03zm1 0v1.75h.6v-.87l.01-.88.32.85c.29.76.35.85.6.88l.27.03V7.2h-.6l-.02.83-.03.82-.3-.82c-.27-.77-.3-.83-.57-.83h-.28zm-6.3-.05c0 1.13.01 1.2.2 1.2.26 0 .32-.26.28-1.34-.03-.82-.05-.9-.25-.97l-.23-.08z"/></svg>