<?xml version="1.0" encoding="UTF-8" standalone="no"?>
<svg
   viewBox="0 0 24 24"
   width="24pt"
   height="24pt"
   version="1.1"
   id="svg1"
   sodipodi:docname="my_motor_world.svg"
   xml:space="preserve"
   inkscape:version="1.3 (0e150ed6c4, 2023-07-21)"
   xmlns:inkscape="http://www.inkscape.org/namespaces/inkscape"
   xmlns:sodipodi="http://sodipodi.sourceforge.net/DTD/sodipodi-0.dtd"
   xmlns="http://www.w3.org/2000/svg"
   xmlns:svg="http://www.w3.org/2000/svg"><defs
     id="defs1" /><sodipodi:namedview
     id="namedview1"
     pagecolor="#ffffff"
     bordercolor="#000000"
     borderopacity="0.25"
     inkscape:showpageshadow="2"
     inkscape:pageopacity="0.0"
     inkscape:pagecheckerboard="0"
     inkscape:deskcolor="#d1d1d1"
     inkscape:document-units="pt"
     inkscape:zoom="23.09375"
     inkscape:cx="8.8768606"
     inkscape:cy="15.133965"
     inkscape:window-width="1920"
     inkscape:window-height="974"
     inkscape:window-x="-11"
     inkscape:window-y="1609"
     inkscape:window-maximized="1"
     inkscape:current-layer="svg1" /><g
     style="fill:none"
     id="g1"
     transform="matrix(0.07982393,0,0,0.07982393,3.6239029,7.8746333)"><path
       d="M 52.587615,4.0001 H 195.93801 c 3.078,0 5.57401,2.508 5.57401,5.6 v 50.8 c 0,3.092 -2.49601,5.6 -5.57401,5.6 H 41.040015 c -2.4171,0 -4.3802,-1.972 -4.3802,-4.4 v -41.6 c 0,-8.832 7.1357,-16 15.9278,-16 z"
       fill="#004c99"
       id="path1-5" /><path
       d="M 195.93701,0.4 H 52.479915 c -7.8803,0.044 -14.6695,4.804 -17.7038,11.604 -0.0039,0 0,0 0,0 -1.095,2.444 -1.7003,5.148 -1.7003,7.992 v 41.6 c 0,0.08 0,0.16 0.008,0.24 0.0597,2.136 0.9597,4.064 2.3732,5.46 1.1389,0.592 2.3096,1.184 3.5201,1.776 0.4181,0.204 0.8402,0.352 1.2702,0.436 0.219,0.044 0.446,0.072 0.669,0.084 0.0756,0.004 0.1473,0.004 0.223,0.004 H 195.93701 c 5.049,0 9.159,-4.128 9.159,-9.2 V 9.6 c 0,-5.072 -4.11,-9.2 -9.159,-9.2 z m 5.575,60 c 0,3.092 -2.497,5.6 -5.575,5.6 H 41.039715 c -1.4215,0 -2.6918,-0.688 -3.4921,-1.752 -0.5575,-0.736 -0.888,-1.656 -0.888,-2.648 V 20 c 0,-7.732 5.4592,-14.184 12.7183,-15.676 0.012,-0.004 0.0199,-0.004 0.0319,-0.004 1.0273,-0.212 2.0905,-0.32 3.1776,-0.32 H 195.93701 c 3.078,0 5.575,2.508 5.575,5.6 z"
       fill="#ffffff"
       id="path2" /><path
       d="m 77.964515,32.4562 h 7.1396 l 2.1224,-7.556 c 0.3544,-1.244 0.5893,-2.372 0.7367,-3.436 l 1.1786,10.992 h 4.3364 l 3.6598,-7.912 c 0.501,-1.096 0.971,-2.252 1.357,-3.408 l -0.915,11.32 h 7.019995 l 1.003,-21.188 h -7.696995 l -5.045,11.528 c 0,-1.868 -0.0876,-3.408 -0.2071,-4.652 l -0.7088,-6.876 h -7.6692 z"
       fill="#ffeb13"
       id="path3" /><path
       fill-rule="evenodd"
       clip-rule="evenodd"
       d="m 119.28502,10.7643 c -3.77501,0 -7.10801,1.512 -9.35,4.148 -1.919,2.252 -2.89,5.008 -2.89,8.18 0,2.964 1.206,5.688 3.213,7.436 1.91899,1.66 4.364,2.488 7.402,2.488 3.83499,0 7.08,-1.452 9.382,-4.148 1.919,-2.22 2.89099,-5.036 2.89099,-8.176 0,-5.808 -4.217,-9.928 -10.64799,-9.928 z m -1.151,15.232 c -2.154,0 -3.512,-1.484 -3.512,-3.704 0,-2.52 1.772,-4.476 4.189,-4.476 2.007,0 3.512,1.452 3.512,3.584 0,2.52 -1.8,4.596 -4.189,4.596 z"
       fill="#ffeb13"
       id="path4" /><path
       d="m 133.57301,32.4562 h 7.729 l 2.71601,-14.76 h 4.364 l 1.178,-6.428 h -16.576 l -1.211,6.428 h 4.51599 z"
       fill="#ffeb13"
       id="path5" /><path
       fill-rule="evenodd"
       clip-rule="evenodd"
       d="m 161.67802,10.7643 c -3.77501,0 -7.10801,1.512 -9.35,4.148 -1.91901,2.252 -2.891,5.008 -2.891,8.18 0,2.964 1.211,5.688 3.214,7.436 1.919,1.66 4.368,2.488 7.406,2.488 3.835,0 7.08,-1.452 9.377,-4.148 1.92,-2.22 2.891,-5.036 2.891,-8.176 0,-5.808 -4.216,-9.928 -10.647,-9.928 z m -1.15101,15.232 c -2.154,0 -3.508,-1.484 -3.508,-3.704 0,-2.52 1.768,-4.476 4.189,-4.476 2.003,0 3.508,1.452 3.508,3.584 0,2.52 -1.8,4.596 -4.189,4.596 z"
       fill="#ffeb13"
       id="path6" /><path
       fill-rule="evenodd"
       clip-rule="evenodd"
       d="m 194.16602,17.6402 c 0,-4.12 -3.12601,-6.372 -9.29,-6.372 h -8.115 l -3.89,21.188 h 7.609 l 1.414,-7.704 2.30099,7.704 h 7.81701 l -3.03801,-8.152 c 3.30501,-0.708 5.19201,-3.14 5.19201,-6.664 z m -10.974,3.02 h -0.558 l 0.765,-4.116 h 0.442 c 1.887,0 2.744,0.532 2.744,1.776 0,1.628 -1.091,2.34 -3.393,2.34 z"
       fill="#ffeb13"
       id="path7" /><path
       d="m 81.768015,58.9684 h 7.6095 l 3.1856,-7.556 c 0.5614,-1.364 1.0034,-2.724 1.3578,-4.12 l 0.7088,11.676 h 7.697295 l 9.027,-21.188 h -8.024 l -2.919,7.584 c -0.382,0.948 -0.823995,2.312 -1.297995,4.06 l -0.736,-11.644 h -6.0767 l -4.6032,11.764 c 0.0598,-0.74 0.0876,-1.48 0.0876,-2.28 0,-0.92 -0.0278,-1.896 -0.0876,-2.932 l -0.2668,-6.548 h -7.3466 l 1.6803,21.188 z"
       fill="#ffeb13"
       id="path8" /><path
       fill-rule="evenodd"
       clip-rule="evenodd"
       d="m 122.04901,37.2804 c -3.775,0 -7.108,1.512 -9.34999,4.148 -1.91501,2.252 -2.89101,5.008 -2.89101,8.18 0,2.96 1.211,5.688 3.21801,7.436 1.915,1.66 4.364,2.488 7.402,2.488 3.835,0 7.08,-1.452 9.382,-4.148 1.915,-2.224 2.88999,-5.036 2.88999,-8.176 0,-5.808 -4.22,-9.928 -10.651,-9.928 z m -1.147,15.232 c -2.154,0 -3.512,-1.484 -3.512,-3.704 0,-2.52 1.772,-4.476 4.189,-4.476 2.007,0 3.512,1.452 3.512,3.584 0,2.52 -1.8,4.596 -4.189,4.596 z"
       fill="#ffeb13"
       id="path9" /><path
       fill-rule="evenodd"
       clip-rule="evenodd"
       d="m 154.53701,44.1523 c 0,-4.116 -3.126,-6.368 -9.29,-6.368 h -8.11099 l -3.89401,21.184 h 7.60901 l 1.418,-7.704 2.30099,7.704 h 7.81701 l -3.03801,-8.148 c 3.301,-0.708 5.188,-3.14 5.188,-6.668 z m -10.97,3.024 h -0.561 l 0.768,-4.12 h 0.442 c 1.888,0 2.744,0.536 2.744,1.78 0,1.628 -1.091,2.34 -3.393,2.34 z"
       fill="#ffeb13"
       id="path10" /><path
       d="m 155.21101,58.9683 h 14.247 l 1.211,-6.516 h -6.49099 l 2.716,-14.668 h -7.789 z"
       fill="#ffeb13"
       id="path11" /><path
       fill-rule="evenodd"
       clip-rule="evenodd"
       d="m 188.63602,38.8483 c -1.593,-0.768 -4.01,-1.064 -7.34701,-1.064 h -5.69 l -3.894,21.184 h 6.638 c 4.659,0 8.13901,-0.62 11.03,-2.784 2.803,-2.104 4.396,-5.364 4.396,-8.92 0,-3.792 -1.8,-6.756 -5.13299,-8.416 z m -8.024,13.752 h -0.087 l 1.53299,-8.448 h 0.147 c 2.38901,0 3.835,1.396 3.835,3.588 0,2.964 -1.97499,4.86 -5.42799,4.86 z"
       fill="#ffeb13"
       id="path12" /><path
       d="m 36.405215,14.1002 c 0.215,-0.456 0.3862,-0.848 0.5773,-1.232 2.2021,-4.408 5.8734,-6.908 10.5084,-8.14 3.9103,-1.04 7.7728,-0.84 11.5357,0.624 4.5195,1.756 7.936,4.8 10.0982,9.176 2.6082,5.272 2.6321,10.76 1.1349,16.324 -1.3898,5.176 -3.9462,9.78 -7.0561,14.088 -3.5359,4.9 -7.6692,9.256 -12.2166,13.204 -2.9904,2.596 -6.1282,5.02 -9.1983,7.524 -0.3862,0.316 -0.7605,0.324 -1.2025,0.108 -6.9843,-3.424 -13.7058,-7.288 -19.854,-12.096 -4.5951,-3.596 -8.7762,-7.62 -12.0453,-12.5 -2.6281,-3.92 -4.55141,-8.148 -5.00933,-12.92 -0.64906,-6.776 1.42155,-12.552 6.67773,-16.936 5.4393,-4.536 11.6512,-5.528 18.3368,-3.36 3.1139,1.008 5.5429,3.008 7.3826,5.72 0.0836,0.124 0.1871,0.236 0.3265,0.416 z"
       fill="#e6312a"
       id="path13" /><path
       d="m 72.401315,12.892 c -1.6963,-3.428 -4.0537,-6.208 -7.0441,-8.304 -0.2907,-0.204 -0.5853,-0.4 -0.884,-0.588 -1.2742,-0.808 -2.652,-1.5 -4.1293,-2.076 -1.099,-0.424 -2.2099,-0.764 -3.3289,-1.008 -1.4972,-0.336 -3.0143,-0.508 -4.5354,-0.516 h -0.1234 c -1.557,0 -3.1338,0.172 -4.7067,0.516 -0.3663,0.076 -0.7327,0.16 -1.099,0.26 -4.185,1.116 -7.5538,3.1 -10.0624,5.924 -0.2309,0.256 -0.4499,0.516 -0.661,0.78 -1.764,-1.544 -3.7749,-2.684 -6.0127,-3.412 -2.6201,-0.852 -5.2044,-1.28 -7.6971,-1.28 -5.1327,0 -9.8752,1.788 -14.1001,5.308 -6.00476,5.008 -8.76424,11.964 -7.98378,20.116 0.46987,4.9 2.30953,9.684 5.61848,14.62 3.1338,4.68 7.3308,9.044 12.8299,13.344 4.8818,3.824 10.3451,7.276 16.975,10.724 1.1388,0.592 2.3095,1.184 3.52,1.776 0.4181,0.204 0.8402,0.352 1.2703,0.436 0.219,0.044 0.4459,0.072 0.6689,0.084 0.0757,0.004 0.1474,0.004 0.223,0.004 1.0712,0 2.0905,-0.376 2.9546,-1.084 0.4579,-0.368 0.9199,-0.744 1.3818,-1.116 0.5335,-0.428 1.0671,-0.856 1.5888,-1.276 0.0517,-0.04 0.1035,-0.084 0.1553,-0.124 2.0307,-1.628 4.1292,-3.316 6.156,-5.076 5.0491,-4.384 9.2302,-8.904 12.7861,-13.828 3.7748,-5.224 6.2675,-10.224 7.6294,-15.284 1.8874,-7.024 1.4295,-13.212 -1.3897,-18.92 z m -2.1423,17.96 c -0.8681,3.236 -2.1941,6.248 -3.8227,9.1 -0.3265,0.572 -0.665,1.136 -1.0154,1.696 -0.1752,0.28 -0.3504,0.56 -0.5336,0.836 -0.5375,0.828 -1.103,1.648 -1.6843,2.456 -0.884,1.224 -1.8078,2.416 -2.7635,3.572 -2.867,3.48 -6.0446,6.672 -9.4531,9.628 -0.3743,0.324 -0.7526,0.648 -1.1309,0.968 -0.5854,0.496 -1.1787,0.988 -1.772,1.472 -2.0865,1.712 -4.2089,3.38 -6.2994,5.088 -0.0518,0.04 -0.0996,0.076 -0.1513,0.108 -0.0239,0.016 -0.0518,0.032 -0.0757,0.044 -0.0239,0.016 -0.0517,0.028 -0.0756,0.036 -0.1155,0.044 -0.227,0.068 -0.3425,0.068 -0.0438,0 -0.0876,-0.004 -0.1354,-0.008 -0.1353,-0.02 -0.2747,-0.068 -0.422,-0.144 -0.3027,-0.148 -0.6053,-0.296 -0.9079,-0.444 -0.7128,-0.356 -1.4216,-0.716 -2.1264,-1.08 -0.4977,-0.256 -0.9955,-0.516 -1.4892,-0.78 -0.9995,-0.528 -1.991,-1.072 -2.9746,-1.624 -0.0039,-0.004 -0.0119,-0.008 -0.0199,-0.012 -0.3743,-0.212 -0.7486,-0.424 -1.1189,-0.64 -0.2747,-0.16 -0.5495,-0.32 -0.8203,-0.48 -0.0239,-0.012 -0.0438,-0.024 -0.0597,-0.036 -0.3146,-0.184 -0.6291,-0.372 -0.9437,-0.564 -0.5973,-0.36 -1.1866,-0.724 -1.772,-1.096 -0.1911,-0.116 -0.3783,-0.236 -0.5654,-0.356 -0.3026,-0.192 -0.6013,-0.388 -0.9039,-0.58 -0.1274,-0.084 -0.2509,-0.168 -0.3783,-0.252 -0.3544,-0.232 -0.7048,-0.472 -1.0592,-0.712 -0.4022,-0.272 -0.8004,-0.548 -1.1986,-0.828 -0.3982,-0.28 -0.7924,-0.56 -1.1826,-0.848 -0.3703,-0.268 -0.7327,-0.536 -1.099,-0.812 -0.0398,-0.028 -0.0797,-0.06 -0.1195,-0.088 -0.3743,-0.284 -0.7446,-0.572 -1.1149,-0.86 -3.1577,-2.472 -6.1203,-5.148 -8.7245,-8.16 -0.4738,-0.552 -0.9397,-1.108 -1.3857,-1.68 -0.6769,-0.86 -1.322,-1.744 -1.9352,-2.66 -0.657,-0.98 -1.2702,-1.98 -1.8237,-3 -1.67245,-3.068 -2.83916,-6.34 -3.1816,-9.916 -0.58137,-6.032 0.99548,-11.268 5.0531,-15.436 0.1234,-0.128 0.2508,-0.256 0.3823,-0.384 0.3902,-0.384 0.8043,-0.756 1.2383,-1.116 0.1474,-0.124 0.2987,-0.248 0.45,-0.364 0.1035,-0.084 0.211,-0.168 0.3185,-0.248 0.1275,-0.1 0.2549,-0.196 0.3863,-0.288 0.1354,-0.1 0.2708,-0.196 0.4062,-0.292 0.2468,-0.168 0.4977,-0.336 0.7486,-0.492 0.2707,-0.172 0.5415,-0.332 0.8163,-0.488 0.2389,-0.136 0.4778,-0.264 0.7167,-0.384 0.1195,-0.06 0.2389,-0.124 0.3624,-0.18 0.2389,-0.116 0.4778,-0.224 0.7207,-0.332 h 0.004 c 0.3663,-0.156 0.7327,-0.3 1.103,-0.428 0.1234,-0.044 0.2469,-0.088 0.3703,-0.124 0.7406,-0.244 1.4892,-0.432 2.2498,-0.568 0.1314,-0.024 0.2628,-0.048 0.3942,-0.068 0.1274,-0.02 0.2588,-0.04 0.3863,-0.056 0.2548,-0.036 0.5136,-0.064 0.7725,-0.084 0.1314,-0.012 0.2588,-0.024 0.3902,-0.028 0.1274,-0.012 0.2509,-0.016 0.3783,-0.024 0.2628,-0.012 0.5256,-0.016 0.7924,-0.016 0.2269,0 0.4579,0.004 0.6849,0.012 0.1752,0.008 0.3464,0.016 0.5216,0.028 h 0.004 c 0.1991,0.012 0.4022,0.028 0.6052,0.048 0.2031,0.02 0.4062,0.04 0.6093,0.068 0.2031,0.024 0.4101,0.056 0.6132,0.088 0.1274,0.02 0.2548,0.04 0.3783,0.064 0.1832,0.028 0.3663,0.064 0.5495,0.104 0.3106,0.06 0.6212,0.132 0.9358,0.208 0.2747,0.072 0.5534,0.144 0.8322,0.224 0.2787,0.084 0.5614,0.168 0.8402,0.26 0.3623,0.116 0.7127,0.248 1.0552,0.392 0.1871,0.076 0.3743,0.16 0.5535,0.244 0.1234,0.06 0.2469,0.12 0.3663,0.18 0.0597,0.028 0.1195,0.06 0.1752,0.088 0.0996,0.052 0.1951,0.108 0.2907,0.164 0.1274,0.068 0.2469,0.14 0.3703,0.216 0.1195,0.068 0.2389,0.144 0.3544,0.22 0.1473,0.092 0.2907,0.192 0.438,0.296 0.0876,0.06 0.1792,0.124 0.2668,0.196 0.0797,0.052 0.1593,0.112 0.2349,0.176 0.0558,0.04 0.1115,0.084 0.1673,0.132 0.0956,0.072 0.1871,0.148 0.2747,0.228 0.0598,0.048 0.1235,0.1 0.1832,0.156 0.0836,0.072 0.1673,0.144 0.2509,0.228 0.1354,0.116 0.2668,0.244 0.3982,0.376 0.0637,0.056 0.1234,0.12 0.1831,0.184 0.0996,0.096 0.1952,0.2 0.2867,0.304 0.0239,0.024 0.0478,0.048 0.0677,0.072 0.0558,0.06 0.1115,0.124 0.1673,0.184 l 0.1553,0.18 c 0.0278,0.032 0.0557,0.064 0.0836,0.1 0.0876,0.1 0.1712,0.204 0.2548,0.312 0.1713,0.208 0.3345,0.424 0.4898,0.644 l 0.0717,0.096 c 0.0796,0.116 0.1633,0.232 0.2429,0.352 0.0438,0.064 0.0916,0.124 0.1433,0.188 0.0558,0.064 0.1155,0.132 0.1832,0.22 h 0.004 c 0.0518,-0.108 0.1035,-0.22 0.1513,-0.324 0.0518,-0.108 0.0996,-0.216 0.1434,-0.316 0.0955,-0.204 0.1871,-0.396 0.2827,-0.584 0.3703,-0.744 0.7844,-1.432 1.2384,-2.072 0.1075,-0.152 0.215,-0.3 0.3265,-0.444 0.0079,-0.012 0.0159,-0.024 0.0278,-0.036 0.3465,-0.452 0.7168,-0.876 1.107,-1.272 l 0.016,-0.016 0.0557,-0.056 c 0.2429,-0.244 0.4938,-0.476 0.7486,-0.7 0.1394,-0.124 0.2787,-0.24 0.4221,-0.356 0.1433,-0.116 0.2867,-0.228 0.434,-0.336 0.1713,-0.132 0.3465,-0.256 0.5256,-0.376 0.1275,-0.084 0.2509,-0.168 0.3823,-0.252 0.1434,-0.092 0.2907,-0.184 0.442,-0.272 0.1234,-0.076 0.2469,-0.144 0.3743,-0.216 0.1195,-0.068 0.2389,-0.132 0.3584,-0.192 0.1234,-0.068 0.2469,-0.132 0.3743,-0.192 0.2548,-0.124 0.5097,-0.244 0.7725,-0.356 0.1115,-0.048 0.227,-0.096 0.3424,-0.144 0.1115,-0.048 0.223,-0.092 0.3385,-0.136 0.1752,-0.068 0.3504,-0.132 0.5256,-0.196 0.004,-0.004 0.008,-0.004 0.012,-0.004 0.1752,-0.064 0.3504,-0.124 0.5296,-0.18 0.3782,-0.124 0.7605,-0.236 1.1547,-0.34 0.1872,-0.048 0.3743,-0.096 0.5615,-0.14 0.2747,-0.064 0.5535,-0.124 0.8282,-0.176 0.1195,-0.024 0.2429,-0.048 0.3624,-0.068 0.0438,-0.008 0.0916,-0.016 0.1354,-0.02 0.0119,-0.004 0.0199,-0.004 0.0318,-0.004 0.0159,-0.004 0.0319,-0.008 0.0478,-0.008 0.1195,-0.02 0.2429,-0.04 0.3624,-0.056 0.0756,-0.012 0.1553,-0.02 0.2309,-0.032 0.1075,-0.012 0.2111,-0.028 0.3186,-0.036 0.0955,-0.012 0.1951,-0.024 0.2907,-0.032 0.0796,-0.008 0.1592,-0.016 0.2389,-0.02 0.1115,-0.008 0.2269,-0.016 0.3384,-0.024 0.1713,-0.012 0.3385,-0.02 0.5097,-0.024 0.1991,-0.008 0.3942,-0.012 0.5933,-0.012 h 0.0199 c 0.2111,0 0.4181,0.004 0.6252,0.012 0.2031,0.008 0.4022,0.016 0.6013,0.032 h 0.0318 c 0.2828,0.02 0.5575,0.044 0.8402,0.076 0.1394,0.016 0.2748,0.036 0.4141,0.06 0.1315,0.016 0.2629,0.036 0.3943,0.06 0.0119,0 0.0239,0 0.0358,0.008 0.1354,0.02 0.2708,0.044 0.4062,0.072 0.2986,0.056 0.6012,0.12 0.8999,0.192 0.4061,0.1 0.8083,0.212 1.2105,0.34 0.1991,0.064 0.4022,0.132 0.6013,0.204 0.1991,0.068 0.4021,0.144 0.6012,0.22 4.5195,1.756 7.936,4.8 10.1022,9.172 2.6042,5.276 2.6281,10.764 1.1349,16.328 z"
       fill="#ffffff"
       id="path14" /><path
       d="m 60.435215,28.4484 c -0.4221,-0.424 -0.9795,-0.64 -1.537,-0.64 -0.5575,0 -1.1149,0.216 -1.537,0.64 l -3.4882,3.504 c 0.0119,-0.64 0.0717,-2.696 0.1832,-6.168 0.1632,-3.624 0.207,-5.724 0.1314,-6.3 -0.0438,-0.34 -0.1832,-0.564 -0.4181,-0.68 -0.235,-0.116 -0.6252,-0.136 -1.1787,-0.064 -0.7924,0.108 -1.3658,0.34 -1.7202,0.708 -0.3544,0.364 -0.5814,0.92 -0.6769,1.672 -0.2987,2.216 -0.6531,4.104 -1.0751,5.652 -0.4182,1.552 -0.8522,2.724 -1.2982,3.516 -0.4459,0.792 -0.8481,1.212 -1.2065,1.26 -0.5057,0.064 -0.8163,-0.36 -0.9357,-1.276 -0.0757,-0.58 -0.1036,-1.328 -0.0757,-2.252 0.0279,-0.924 0.0717,-1.892 0.1354,-2.904 0.0517,-0.74 0.1393,-1.572 0.2588,-2.496 0.1234,-1.144 0.1672,-1.812 0.1434,-2.004 -0.0438,-0.336 -0.1792,-0.576 -0.4022,-0.72 -0.227,-0.14 -0.6053,-0.176 -1.1309,-0.108 -0.9357,0.124 -1.5967,0.368 -1.991,0.74 -0.3902,0.368 -0.657,0.932 -0.8043,1.688 -0.3305,1.756 -0.5216,3.404 -0.5615,4.94 -0.0438,1.54 0.0518,3.208 0.2867,5.02 0.1951,1.492 0.7009,2.696 1.5132,3.6 0.8123,0.912 1.76,1.296 2.8391,1.152 0.9596,-0.124 1.8118,-0.696 2.5564,-1.712 0.7486,-1.016 1.2464,-2.424 1.5012,-4.224 0,1.692 -0.0239,2.992 -0.0757,3.904 v 0.844 c -2.3095,2.316 -4.0655,4.328 -5.2681,6.044 -1.2025,1.712 -1.983,3.192 -2.3453,4.444 -0.3624,1.244 -0.4659,2.436 -0.3226,3.568 0.1593,1.228 0.669,2.172 1.541,2.828 0.8641,0.656 1.9114,0.908 3.1298,0.748 2.5923,-0.344 4.432,-2.42 5.519,-6.24 0.8203,-2.892 1.3579,-6.492 1.6047,-10.808 l 6.7056,-6.736 c 0.3186,-0.32 0.3186,-0.828 0,-1.144 z m -12.1489,19.012 c -0.5614,1.492 -1.1428,2.28 -1.7441,2.36 -0.3583,0.044 -0.6331,-0.052 -0.8242,-0.3 -0.1872,-0.244 -0.3106,-0.572 -0.3624,-0.98 -0.1274,-0.964 0.1394,-2.144 0.7964,-3.54 0.661,-1.4 1.8118,-3 3.4563,-4.812 -0.3225,3.348 -0.7605,5.772 -1.322,7.268 z"
       fill="#ffffff"
       id="path15" /><path
       d="m 39.112115,35.2161 c -0.2111,-1.616 -0.3305,-3.088 -0.3584,-4.424 -0.0239,-1.332 -0.0159,-2.744 0.0319,-4.248 0.0358,-1.768 0.0159,-2.968 -0.0638,-3.592 -0.1035,-0.772 -0.3743,-1.332 -0.8202,-1.676 -0.446,-0.348 -1.0553,-0.468 -1.8238,-0.368 -0.0796,0.012 -0.1632,0.024 -0.2429,0.044 -0.7167,0.144 -1.4653,0.516 -2.2418,1.112 -0.8601,0.664 -1.7003,1.7 -2.5046,3.104 -0.8044,1.404 -1.4694,3.168 -1.995,5.296 0.0159,-0.44 0.0597,-1.112 0.1434,-2 0.1911,-2.088 0.2349,-3.512 0.1353,-4.284 -0.1035,-0.796 -0.3544,-1.36 -0.7526,-1.704 -0.3981,-0.34 -1.0153,-0.452 -1.8555,-0.344 -0.8402,0.112 -1.6924,0.548 -2.5564,1.312 -0.8641,0.764 -1.6645,1.852 -2.3892,3.276 -0.7287,1.416 -1.2981,3.108 -1.7003,5.072 -0.0398,-1.068 -0.0358,-1.972 0.0159,-2.704 0.0478,-0.728 0.1314,-1.588 0.2469,-2.584 0.1832,-1.396 0.2469,-2.288 0.1991,-2.676 -0.0438,-0.336 -0.1712,-0.552 -0.3783,-0.648 -0.207,-0.092 -0.5535,-0.112 -1.0273,-0.044 -0.892,0.116 -1.557,0.368 -2.0069,0.76 -0.446,0.388 -0.7367,0.948 -0.8561,1.676 -0.5217,2.936 -0.5774,5.972 -0.1713,9.1 0.2748,2.124 0.661,3.64 1.1628,4.552 0.4977,0.916 1.1985,1.316 2.1144,1.192 0.7406,-0.1 1.2583,-0.368 1.5569,-0.812 0.2987,-0.44 0.5017,-1.244 0.6172,-2.412 0.1434,-1.344 0.3823,-2.72 0.7247,-4.136 0.3385,-1.416 0.7287,-2.596 1.1667,-3.536 0.4381,-0.94 0.8362,-1.432 1.1986,-1.484 0.2588,-0.032 0.4181,0.144 0.4699,0.528 0.0597,0.48 0.0995,1.508 0.1075,3.076 -0.012,1.764 0.0398,3.108 0.1593,4.024 0.1433,1.084 0.4579,1.98 0.9556,2.688 0.4938,0.708 1.1389,1.004 1.9273,0.904 0.7685,-0.104 1.3021,-0.368 1.5968,-0.796 0.2986,-0.432 0.5057,-1.244 0.6172,-2.432 0.1672,-1.52 0.4499,-2.976 0.8521,-4.376 0.4022,-1.4 0.8402,-2.54 1.314,-3.428 0.4659,-0.884 0.8561,-1.344 1.1707,-1.384 0.2628,-0.036 0.4221,0.14 0.4699,0.528 0.0677,0.532 0.0836,1.776 0.0478,3.74 -0.0478,2.264 -0.008,3.876 0.1194,4.84 0.1075,0.816 0.3664,1.408 0.7805,1.772 0.1593,0.14 0.3504,0.244 0.5654,0.316 0.3465,0.112 0.7566,0.136 1.2384,0.068 0.8402,-0.112 1.4176,-0.388 1.7401,-0.832 0.3226,-0.444 0.4181,-1.128 0.3027,-2.04 z"
       fill="#ffffff"
       id="path16" /></g></svg>
