<?xml version="1.0" encoding="UTF-8" standalone="no"?>
<svg viewBox="0 0 18.040001 21.999998" width="18.040001pt" height="21.999998pt" version="1.1" id="svg1" sodipodi:docname="pink_master_pin.svg" xml:space="preserve" xmlns:inkscape="http://www.inkscape.org/namespaces/inkscape" xmlns:sodipodi="http://sodipodi.sourceforge.net/DTD/sodipodi-0.dtd" xmlns="http://www.w3.org/2000/svg" xmlns:svg="http://www.w3.org/2000/svg"><defs id="defs1"/><sodipodi:namedview id="namedview1" pagecolor="#ffffff" bordercolor="#000000" borderopacity="0.25" inkscape:showpageshadow="2" inkscape:pageopacity="0.0" inkscape:pagecheckerboard="0" inkscape:deskcolor="#d1d1d1" inkscape:document-units="pt" inkscape:lockguides="true"><inkscape:page x="0" y="0" width="18.040001" height="21.999998" id="page2" margin="0" bleed="0"/></sodipodi:namedview><g id="g1" transform="matrix(0.03888346,0,0,0.03888346,-1.0231215,-0.03382712)"><path d="m 0,0 c 86.46,0 172.92,0 262,0 0,12.54 0,25.08 0,38 -10.625,9.027778 -10.625,9.027778 -17.36938,11.047363 C 241.14144,50.226178 241.14144,50.226178 235,54 c 0,-9.24 0,-18.48 0,-28 -68.97,0 -137.94,0 -209,0 0,64.35 0,128.7 0,195 68.97,0 137.94,0 209,0 -0.43499,-34.76437 -0.43499,-34.76437 -0.99097,-69.52686 -0.0497,-6.74682 -0.0497,-6.74682 -0.0589,-9.91238 -0.0168,-2.19564 -0.0554,-4.39119 -0.11145,-6.58618 -0.47311,-19.49657 -0.47311,-19.49657 3.49663,-24.55032 2.76717,-2.5524 5.45678,-4.47154 8.6647,-6.42426 1.78863,-1.43644 3.56251,-2.89172 5.3125,-4.375 3.47533,-2.773183 6.95592,-5.137278 10.6875,-7.625 0,51.15 0,102.3 0,155 -86.46,0 -172.92,0 -262,0 C 0,165.49 0,83.98 0,0 Z" fill="#FFFFFF" transform="translate(122,132)" id="path2"/><path d="m 0,0 c 0.66,0.33 1.32,0.66 2,1 -13.15958,11.35374 -13.15958,11.35374 -19.5,16.5 -4.227925,3.43208 -8.375279,6.945512 -12.5,10.5 -5.013148,4.319343 -10.085375,8.550973 -15.222656,12.722656 C -48.343964,43.282041 -51.4245,45.885938 -54.5,48.5 c -3.969035,3.372836 -7.96017,6.711766 -12,10 -6.239168,5.081757 -12.36892,10.288941 -18.5,15.5 -7.012346,5.960083 -14.049608,11.877588 -21.1875,17.6875 -3.1305,2.573964 -6.22422,5.188191 -9.3125,7.8125 -4.84959,4.12102 -9.75161,8.16991 -14.6875,12.1875 -3.69344,3.03683 -7.33548,6.13211 -10.97876,9.22876 -3.39328,2.87919 -6.81642,5.71578 -10.27124,8.52124 -4.24642,3.45524 -8.41546,6.98948 -12.5625,10.5625 -5.00904,4.31571 -10.07579,8.54526 -15.21094,12.71094 -3.19263,2.62029 -6.33447,5.29612 -9.47656,7.97656 -4.64513,3.95752 -9.37241,7.72851 -14.3125,11.3125 -3.61345,-2.71797 -6.39916,-5.51038 -9.1875,-9.0625 -3.15357,-3.93804 -6.39156,-7.72927 -9.8125,-11.4375 -4.09351,-4.44727 -7.92442,-9.04717 -11.71875,-13.75 -2.34844,-2.831 -4.79035,-5.54384 -7.28125,-8.25 -4.11379,-4.46985 -7.97087,-9.09045 -11.78516,-13.81641 -2.882,-3.49195 -5.92659,-6.8191 -8.97656,-10.16406 -2.26675,-2.55158 -4.41368,-5.17125 -6.55078,-7.83203 C -273.57283,91.177377 -279.272,85.0963 -285,79 c 0.99,-0.495 0.99,-0.495 2,-1 2.62722,1.125945 5.13317,2.3205 7.67505,3.618408 0.79205,0.396538 1.58411,0.793076 2.40016,1.20163 2.63107,1.319496 5.25634,2.650152 7.88182,3.980743 1.82325,0.916622 3.64688,1.83248 5.47087,2.747605 4.81352,2.417251 9.62233,4.843706 14.43007,7.272415 7.68419,3.879639 15.37579,7.744559 23.0666,11.611039 2.68726,1.35248 5.37281,2.70833 8.05805,4.06482 1.65136,0.83229 3.30274,1.66454 4.95415,2.49675 0.74564,0.37776 1.49128,0.75552 2.25952,1.14473 6.15727,3.5557 6.15727,3.5557 12.8667,4.62626 2.11893,-0.83619 3.97788,-1.81762 5.9292,-2.99487 0.77569,-0.46575 1.55138,-0.93151 2.35058,-1.41138 0.83564,-0.51006 1.67127,-1.02013 2.53223,-1.54565 0.88204,-0.53391 1.76408,-1.06783 2.67285,-1.61792 8.32884,-5.06727 16.54582,-10.3066 24.75684,-15.561768 5.8325,-3.729176 11.69717,-7.405558 17.57031,-11.070312 1.49612,-0.933563 1.49612,-0.933563 3.02246,-1.885986 2.02329,-1.262033 4.04673,-2.523833 6.07031,-3.785401 5.01314,-3.126547 10.0225,-6.259115 15.03223,-9.391113 1.99998,-1.250029 3.99998,-2.500029 6,-3.75 1.485,-0.928125 1.485,-0.928125 3,-1.875 11,-6.875 22,-13.75 33,-20.625 0.989839,-0.618669 1.979678,-1.237339 2.999512,-1.874756 2.001554,-1.250931 4.003182,-2.501744 6.004883,-3.752441 4.976821,-3.109806 9.952385,-6.221586 14.925293,-9.337647 1.981661,-1.24106 3.963432,-2.481946 5.945312,-3.722656 1.455513,-0.911206 1.455513,-0.911206 2.94043,-1.84082 5.430947,-3.394119 10.874298,-6.766996 16.333008,-10.116211 0.594851,-0.365122 1.189703,-0.730244 1.802581,-1.10643 2.889313,-1.772843 5.780265,-3.5428863 8.673493,-5.3093417 1.554851,-0.9524158 1.554851,-0.9524158 3.141113,-1.9240723 C -8.3188184,5.7064941 -7.4032617,5.1473633 -6.4599609,4.5712891 -4.2189029,3.1398233 -2.1012722,1.6277806 0,0 Z" fill="#FFFFFF" transform="translate(453,140)" id="path3"/><path d="M 0,0 C 0.66,0.33 1.32,0.66 2,1 -1.96,4.465 -1.96,4.465 -6,8 -6.33,7.01 -6.66,6.02 -7,5 -4.69,3.35 -2.38,1.7 0,0 Z" fill="#FFFFFF" transform="translate(453,140)" id="path4"/></g></svg>
