<svg xmlns="http://www.w3.org/2000/svg" width="24" height="24"><path fill="#FFF" fill-rule="evenodd" d="m10.25 5.43.2.52.56 1.53.43 1.23.6-.03.6-.03.29-.8.57-1.58c.17-.43.3-.85.3-.93 0-.3-.18-.1-.45.51-.27.63-.5.85-.27.28.06-.15.14-.43.17-.62.12-.59-.18-.3-.42.4l-.22.64.06-.69c.05-.56.04-.68-.08-.64-.09.03-.18.3-.23.69l-.1.64-.1-.67c-.04-.38-.12-.68-.17-.68s-.1.33-.1.73c0 .79-.11.7-.24-.2-.1-.82-.29-.66-.22.18.03.4.04.7.01.66a4 4 0 0 1-.23-.68c-.1-.34-.23-.65-.3-.67-.14-.05-.13.14.07.9.05.21.08.38.06.38a4 4 0 0 1-.33-.65c-.16-.36-.35-.65-.41-.65q-.1 0-.05.23m7.5 5.4q-.15.31-.05.35c.05.02.1.26.1.53 0 .37.04.49.15.49s.15-.11.15-.43c0-.24.05-.48.1-.53q.1-.1-.06-.42a1 1 0 0 0-.19-.32c-.02 0-.1.15-.2.32m-14.47.15c-.27.04-.28.07-.28.64 0 .46.03.59.15.59q.15.01.15-.39c0-.4.23-.72.4-.55.05.05.1.27.12.49q.03.4.18.4c.11 0 .15-.11.13-.48 0-.26-.07-.54-.13-.62-.12-.15-.2-.16-.72-.08m1.24.13c-.5.47-.14 1.15.59 1.12.51-.02.59-.07.59-.38 0-.77-.69-1.2-1.18-.74m1.6-.13c-.2.04-.22.1-.22.64 0 .46.03.59.15.59q.15.01.15-.39c0-.4.23-.72.4-.55.05.05.1.27.12.49q.03.4.18.4c.11 0 .15-.12.14-.47 0-.7-.2-.85-.91-.7m1.32.17q-.44.42-.08.84c.18.21.34.25.9.23.32-.02.33-.04.33-.42 0-.46-.34-.9-.7-.9-.12 0-.32.11-.45.25m1.77-.13c-.2.2-.14.46.13.64.28.18.25.35-.05.27q-.2-.05-.2.1c0 .19.38.29.62.16s.23-.55-.02-.69q-.18-.1-.2-.2.02-.07.2-.03t.2-.04c0-.14-.22-.33-.4-.33a.5.5 0 0 0-.28.12m1.8.11c-.44.47-.2 1.02.48 1.1.3.02.32.04.16.12q-.19.09-.47-.08c-.3-.17-.49-.06-.3.18.2.23.69.29.96.1.22-.13.25-.23.25-.7 0-.42-.05-.6-.2-.75-.27-.27-.62-.25-.88.03m1.45-.05c-.22.25-.24 1.12-.02 1.12.11 0 .15-.12.15-.44 0-.36.04-.46.2-.51q.2-.07.17-.18c-.06-.2-.32-.19-.5 0m.75.06q-.44.46.04.93c.2.2.31.24.52.2.3-.08.55-.34.46-.47q-.03-.08.04-.09.09.02.15.2c.07.29.52.43.85.27.15-.07.27-.2.27-.29q.01-.16.08-.24c.04-.04.07.07.07.24 0 .25.04.32.2.32s.2-.08.22-.47c.03-.4.06-.48.23-.48s.2.08.23.48q.02.48.18.47c.1 0 .14-.13.14-.48 0-.7-.38-1-.9-.72q-.18.11-.2.25c0 .2-.05.19-.34-.1q-.46-.47-.9-.02l-.23.23-.2-.23c-.27-.3-.64-.3-.91 0m5.33.03c-.14.15-.25.31-.25.36 0 .24.32.66.54.72.33.08.76-.12.76-.36s.16-.23.23.02c.06.25.42.39.85.33.3-.05.32-.07.32-.53 0-.77-.55-1.06-1.06-.55l-.26.26-.2-.26c-.26-.33-.62-.32-.93.01m-13.77.15c-.22.13-.23.42-.02.6.31.26.7-.25.44-.56-.14-.17-.19-.18-.42-.04m2.88.05c-.09.08-.16.19-.16.23 0 .17.38.41.54.35.21-.08.21-.6 0-.68s-.2-.08-.38.1m3.6 0c-.27.26-.12.58.25.52.39-.05.36-.67-.03-.68-.04 0-.14.07-.22.16m8.9 0c-.09.08-.16.2-.16.24 0 .05.07.16.16.24.08.09.2.16.24.16.05 0 .16-.07.24-.16.09-.08.16-.2.16-.24 0-.05-.07-.16-.16-.24-.08-.09-.2-.16-.24-.16-.05 0-.16.07-.24.16"/></svg>