<svg xmlns="http://www.w3.org/2000/svg" width="24" height="24"><path fill="#FFFFFF" fill-rule="evenodd" d="M3 8.95v1.85h2V7.1H3zm5.3 0v1.85H21V7.1H8.3zM5.9 7.47c0 .06.04.23.1.37q.2.5-.32 0-.3-.3-.28-.12c0 .26.19.68.3.68q.1 0-.01-.22c-.12-.23-.12-.23.1-.04.18.16.25.17.47.07.14-.06.3-.08.36-.05q.1.04.18-.06c.06-.1.18-.08.52.09.5.23.62.26.53.1-.04-.05-.01-.17.06-.25q.16-.17-.06-.08c-.17.07-.17.06 0-.19.22-.34 0-.5-.26-.19-.15.19-.21.2-.44.12a1.4 1.4 0 0 0-.62-.04c-.27.05-.37.02-.48-.12q-.13-.16-.15-.07m3.95.73-.39.18.87.04c.48.02.87 0 .87-.02 0-.05-.81-.4-.9-.4zm2.8-.07a.3.3 0 0 1-.26.17c-.1 0-.19.04-.19.1q-.02.09-.15.1-.13-.02-.15-.2c0-.25-.2-.27-.2-.03-.06 1.06-.05 1.23.1 1.2q.16-.01.12-.4c-.03-.3 0-.38.1-.35.2.07.22.46.04.73q-.16.25-.05.3c.14.1.29-.13.29-.42q.01-.43.28-.03c.1.17.1.21-.03.26-.29.11-.15.2.3.2.25 0 .45-.03.45-.08q-.01-.07-.11-.08c-.1 0-.08-.25.07-.64q.07-.17-.15-.16-.21.01-.2-.22c0-.21 0-.22.13-.05q.26.34.26-.03-.01-.19-.16-.2c-.1 0-.23-.08-.3-.18-.12-.16-.13-.16-.2 0m4.48 0c-.12.04-.22.14-.22.22s-.03.23-.07.33c-.06.17-.06.17.14 0 .12-.1.24-.14.27-.09q.04.1-.05.14c-.07.02.05.04.26.04.2 0 .33-.02.26-.04q-.14-.03 0-.18t-.04-.14c-.08 0-.18.06-.2.13q-.05.09-.06-.11c0-.19.03-.22.19-.17q.18.04.2-.03c0-.14-.43-.2-.68-.1m1.67.06c-.1.16-.16.18-.26.1q-.14-.14-.13.2c0 .18.05.32.1.32q.1-.01.1-.16 0-.13.1-.09t.1-.14q0-.2.09-.21c.1 0 .24.3.16.38Q19 8.62 19 8.5q0-.13-.14.06-.13.17-.11.22c.05.05.49-.2.58-.32q.08-.1.05.08c-.05.29.19.3.24.01.06-.3-.12-.48-.37-.39q-.16.05-.25-.06-.07-.15-.21.08m-4.97.04c-.07.07-.12.27-.12.45 0 .31.02.33.35.33.2 0 .35.04.35.1 0 .05-.16.1-.36.1s-.33.04-.29.1c.03.05.2.1.36.1s.29.04.29.1c0 .05-.16.1-.35.1-.2 0-.35.05-.35.1s.35.1.85.1.85-.04.85-.1c0-.05-.18-.1-.4-.1s-.4-.04-.4-.1c0-.05.16-.1.35-.1.2 0 .35-.04.35-.1 0-.05-.16-.1-.35-.1-.2 0-.35-.04-.35-.1 0-.05.16-.1.35-.1.35 0 .35 0 .35-.45V8.1h-.68c-.4 0-.73.05-.8.12m-8.12.47q.01.19.08.25c.05.03.17.32.27.66.1.33.22.6.27.6q.09.02.18.25.25.6.58-.3c.06-.17.21-.58.35-.91.22-.56.23-.61.07-.57-.11.03-.31.35-.52.83l-.34.79-.27-.9c-.22-.73-.3-.89-.47-.89q-.2 0-.2.2m3.9.05c0 .12.15.15.75.15s.75-.03.75-.15a.15.15 0 0 0-.15-.15q-.13.01-.15.1c0 .06-.2.1-.45.1s-.45-.04-.45-.1q-.01-.09-.15-.1a.15.15 0 0 0-.15.15m.3.35.35.07-.35.02c-.28 0-.36.05-.37.21-.01.17.05.2.35.2.2.01.31.04.24.07q-.1.04-.07.13c.06.1.45 0 .45-.11 0-.05.15-.09.34-.09.29 0 .34-.04.33-.2 0-.16-.09-.2-.37-.21l-.35-.02.35-.07c.26-.05.14-.07-.45-.07s-.7.02-.45.07m6.7.24c0 .14-.04.28-.1.31a.2.2 0 0 0-.1.17q0 .1.14 0a.4.4 0 0 1 .32-.06c.18.05.18.05.02-.09-.25-.2-.23-.24.12-.3.28-.03.3-.01.3.27q0 .33.12.18a.6.6 0 0 1 .32-.13q.27 0-.04-.09t-.05-.1l.2-.01-.2-.09q-.28-.1.05-.1.28-.02-.15-.1c-.22-.04-.41-.04-.43.01-.05.12-.32.11-.32-.01a.1.1 0 0 0-.1-.1c-.05 0-.1.11-.1.24m1.89-.19-.01.3c0 .41.01.42.27.37q.22-.04.2-.13-.05-.09.07-.1.09-.02-.2-.15c-.17-.1-.3-.2-.26-.25q.05-.08 0-.09t-.07.05m.21.06q.01.08.1.04c.16-.1.4.15.4.41 0 .37.2.29.22-.08q0-.45.05-.05c.02.15.09.27.14.27.08 0 .1-.11.09-.57 0-.1-.32-.1-.47 0q-.1.06-.18-.03c-.08-.13-.35-.13-.35 0"/></svg>