<?xml version="1.0" encoding="UTF-8" standalone="no"?>
<svg
   width="24"
   height="24"
   version="1.1"
   id="svg1"
   sodipodi:docname="nene_chicken.svg"
   inkscape:version="1.4.2 (f4327f4, 2025-05-13)"
   xmlns:inkscape="http://www.inkscape.org/namespaces/inkscape"
   xmlns:sodipodi="http://sodipodi.sourceforge.net/DTD/sodipodi-0.dtd"
   xmlns="http://www.w3.org/2000/svg"
   xmlns:svg="http://www.w3.org/2000/svg">
  <defs
     id="defs1" />
  <sodipodi:namedview
     id="namedview1"
     pagecolor="#ffffff"
     bordercolor="#000000"
     borderopacity="0.25"
     inkscape:showpageshadow="2"
     inkscape:pageopacity="0.0"
     inkscape:pagecheckerboard="0"
     inkscape:deskcolor="#d1d1d1"
     inkscape:zoom="24.625"
     inkscape:cx="11.979695"
     inkscape:cy="12"
     inkscape:window-width="1536"
     inkscape:window-height="793"
     inkscape:window-x="6"
     inkscape:window-y="1588"
     inkscape:window-maximized="1"
     inkscape:current-layer="svg1" />
  <path
     fill="#ffffff"
     fill-rule="evenodd"
     d="m 5.2209911,4.6629086 q -0.24,0.156 -0.216,0.624 c 0.012,0.264 -0.12,0.912 -0.288,1.44 l -0.312,0.972 -0.756,0.072 c -1.152,0.12 -1.86,0.6 -2.256,1.56 -0.48000001,1.1520004 0.036,2.1240004 1.14,2.1240004 h 0.36 l -0.072,0.6 c -0.108,0.756 0.048,0.84 1.56,0.84 h 1.14 l -0.12,0.3 -0.084,0.312 1.02,0.048 c 1.02,0.024 1.08,0 1.008,-0.552 -0.024,-0.156 0.588,-0.24 0.792,-0.12 q 0.2759996,0.144 -0.168,0.12 c -0.432,0.012 -0.516,0.072 -0.444,0.36 0.036,0.156 0.18,0.192 0.672,0.192 0.5999996,0 0.6239996,-0.012 0.6239996,-0.324 0,-0.36 0.12,-0.444 0.228,-0.156 q 0.048,0.18 0.648,0.18 c 0.4440003,0 0.6480003,0.06 0.8160003,0.252 0.456,0.504 0.888,0.648 2.028,0.636 0.876,0 1.344,-0.084 2.46,-0.408 a 7.2,7.2 0 0 1 2.544,-0.42 c 1.08,0 1.188,0.024 1.5,0.312 0.768,0.684 0.768,0.684 0.456,-0.3 l -0.276,-0.924 0.42,-0.168 c 0.24,-0.096 0.48,-0.18 0.528,-0.18 0.204,0 0.108,-0.228 -0.18,-0.456 q -0.312,-0.228 -0.24,-0.48 c 0.072,-0.264 0.072,-0.264 0.36,0.036 0.24,0.24 0.384,0.3 0.924,0.3 h 0.636 l 0.564,-1.8000004 c 0.312,-0.972 0.564,-1.812 0.564,-1.848 0,-0.168 -1.512,-0.06 -1.776,0.12 q -0.24,0.144 -0.264,0.06 c 0,-0.06 0.108,-0.156 0.24,-0.192 0.36,-0.12 0.948,-0.636 1.14,-1.032 0.624,-1.2 -0.444,-2.268 -1.752,-1.752 -0.42,0.168 -0.504,0.168 -0.84,0 a 0.84,0.84 0 0 0 -0.78,-0.06 c -0.396,0.12 -0.408,0.12 -0.336,-0.168 l 0.072,-0.288 h -2.304 c -1.356,0 -2.4,0.048 -2.52,0.12 q -0.24,0.12 -0.24,0 c 0,-0.168 -5.8079999,-0.168 -6.1199999,0 q -0.216,0.12 -0.3,0 c -0.12,-0.18 -1.536,-0.144 -1.8,0.048 m 0.264,0.384 c -0.048,0.048 -0.048,0.192 -0.012,0.336 0.036,0.144 -0.084,0.648 -0.24,1.14 -0.408,1.164 -0.396,1.236 0.072,1.2 0.36,-0.048 0.408,-0.096 0.648,-0.888 0.204,-0.624 0.288,-0.78 0.348,-0.6 0.48,1.476 0.456,1.44 0.924,1.476 l 0.444,0.036 0.36,-1.116 0.4319996,-1.38 c 0.072,-0.264 0.036,-0.276 -0.4799996,-0.276 -0.516,0 -0.564,0.024 -0.504,0.264 0.084,0.312 -0.144,1.32 -0.276,1.236 a 2.4,2.4 0 0 1 -0.288,-0.78 l -0.204,-0.72 h -0.576 c -0.312,0 -0.6,0.036 -0.648,0.072 m 3.3479996,0.312 a 12,12 0 0 0 -0.384,1.164 l -0.204,0.768 0.264,0.228 c 0.216,0.168 0.48,0.216 1.14,0.216 0.9240003,0 1.0800003,-0.06 1.1760003,-0.42 0.048,-0.216 0,-0.24 -0.72,-0.24 -0.6600003,0 -0.8040003,-0.036 -0.8400003,-0.204 -0.036,-0.192 0.06,-0.216 0.8520003,-0.216 0.72,0 0.912,-0.036 0.96,-0.192 0.156,-0.36 0.072,-0.408 -0.756,-0.408 -0.8640003,0 -0.9600003,-0.048 -0.6840003,-0.396 0.108,-0.144 0.36,-0.204 0.9840003,-0.24 0.684,-0.012 0.84,-0.06 0.876,-0.24 0.036,-0.18 -0.084,-0.204 -1.236,-0.204 H 9.0009907 Z m 3.0000003,-0.288 c -0.048,0.06 -0.048,0.192 0,0.288 0.036,0.096 -0.072,0.636 -0.24,1.188 -0.168,0.552 -0.312,1.044 -0.312,1.092 0,0.048 0.18,0.084 0.396,0.084 0.384,0 0.396,-0.012 0.624,-0.84 0.12,-0.456 0.252,-0.804 0.3,-0.768 0.036,0.036 0.168,0.396 0.3,0.804 0.24,0.72 0.252,0.744 0.684,0.78 l 0.444,0.036 0.42,-1.32 c 0.24,-0.732 0.432,-1.356 0.432,-1.392 0,-0.036 -0.24,-0.06 -0.552,-0.06 -0.528,0 -0.552,0.012 -0.48,0.3 0.084,0.348 -0.156,1.32 -0.3,1.176 a 3.6,3.6 0 0 1 -0.276,-0.792 l -0.204,-0.684 h -0.588 c -0.324,0 -0.612,0.048 -0.648,0.12 m 3.48,-0.036 c -0.024,0.06 -0.192,0.54 -0.36,1.092 -0.456,1.44 -0.264,1.668 1.308,1.56 0.84,-0.048 0.84,-0.048 0.948,-0.396 0.06,-0.228 0.012,-0.24 -0.744,-0.24 -0.636,0 -0.804,-0.036 -0.804,-0.18 0,-0.144 0.204,-0.192 0.9,-0.24 0.816,-0.06 0.9,-0.084 0.936,-0.324 0.036,-0.264 0,-0.276 -0.804,-0.276 -0.828,0 -0.84,0 -0.744,-0.264 0.084,-0.24 0.204,-0.288 0.984,-0.336 0.72,-0.048 0.888,-0.096 0.924,-0.264 0.036,-0.192 -0.084,-0.216 -1.224,-0.216 a 4.8,4.8 0 0 0 -1.32,0.096 m -12.4799999,3.324 c -0.696,0.312 -1.14,1.02 -1.14,1.8000004 q -0.012,0.732 0.768,0.852 c 0.444,0.084 1.704,-0.12 1.932,-0.3 0.144,-0.12 0.336,-0.6 0.24,-0.6 l -0.78,0.192 q -1.86,0.456 -1.14,-0.9120004 c 0.24,-0.48 0.516,-0.6 1.296,-0.6 0.636,0 0.804,-0.096 0.804,-0.48 0,-0.18 -1.572,-0.132 -1.98,0.048 m 2.544,-0.096 q -0.072,0.096 -0.012,0.336 c 0.024,0.144 -0.108,0.72 -0.3,1.296 -0.192,0.5640004 -0.324,1.0800004 -0.276,1.1040004 0.036,0.036 0.216,0.072 0.396,0.072 0.3,0 0.36,-0.06 0.492,-0.564 0.156,-0.5640004 0.18,-0.5760004 0.672,-0.6120004 0.276,-0.024 0.504,-0.012 0.504,0.012 l -0.18,0.5640004 c -0.24,0.66 -0.24,0.624 0.216,0.576 0.372,-0.036 0.396,-0.06 0.828,-1.3560004 0.24,-0.72 0.444,-1.368 0.444,-1.416 0,-0.048 -0.216,-0.084 -0.492,-0.06 -0.48,0.036 -0.516,0.06 -0.528,0.396 -0.012,0.648 -0.024,0.66 -0.54,0.66 -0.456,0 -0.48,-0.024 -0.42,-0.264 0.24,-0.876 0.252,-0.816 -0.252,-0.816 -0.264,0 -0.516,0.036 -0.552,0.072 m 3.1199996,0.096 q -0.048,0.156 0.036,0.264 c 0.06,0.06 -0.048,0.6 -0.24,1.188 -0.2039996,0.6000004 -0.3599996,1.1280004 -0.3599996,1.1760004 0,0.048 0.18,0.084 0.3959996,0.06 0.372,-0.036 0.396,-0.06 0.828,-1.3560004 0.24,-0.72 0.444,-1.356 0.444,-1.404 0.024,-0.18 -1.044,-0.108 -1.104,0.072 m 2.0760003,-0.036 c -0.9720003,0.396 -1.5600003,1.9080004 -0.9480003,2.4600004 0.204,0.18 0.4200003,0.228 1.0560003,0.204 0.96,-0.012 1.428,-0.18 1.56,-0.54 q 0.096,-0.252 0.072,-0.312 c -0.012,-0.012 -0.36,0.06 -0.78,0.168 -1.236,0.312 -1.5360003,0.084 -1.152,-0.8400004 0.216,-0.528 0.36,-0.6 1.272,-0.672 0.696,-0.048 0.78,-0.084 0.816,-0.336 0.036,-0.252 0,-0.264 -0.78,-0.252 -0.444,0 -0.96,0.06 -1.116,0.12 m 2.472,-0.024 q -0.072,0.12 0,0.276 c 0.024,0.084 -0.12,0.636 -0.312,1.236 l -0.36,1.1160004 c 0,0.024 0.168,0.024 0.384,0 0.324,-0.036 0.408,-0.108 0.564,-0.516 l 0.192,-0.5160004 c 0.012,0 0.24,0.1800004 0.504,0.4440004 0.552,0.516 1.092,0.72 1.248,0.48 0.156,-0.24 0.12,-0.588 -0.048,-0.588 a 1.2,1.2 0 0 1 -0.564,-0.3360004 l -0.408,-0.348 0.816,-0.648 0.816,-0.648 -0.432,-0.036 c -0.36,-0.036 -0.528,0.048 -1.008,0.444 -0.324,0.276 -0.612,0.492 -0.66,0.492 -0.036,0 0,-0.216 0.096,-0.48 l 0.168,-0.48 h -0.468 c -0.252,0 -0.492,0.048 -0.528,0.12 m 3.228,0.036 c -0.036,0.072 -0.192,0.576 -0.348,1.104 -0.324,1.0800004 -0.264,1.3560004 0.36,1.5240004 0.552,0.156 1.716,0 1.848,-0.264 0.216,-0.396 0.132,-0.444 -0.54,-0.324 -0.48,0.096 -0.696,0.084 -0.828,-0.024 q -0.54,-0.4560004 0.804,-0.5160004 c 0.792,-0.036 0.864,-0.06 0.9,-0.312 0.036,-0.24 0,-0.264 -0.744,-0.264 -0.6,0 -0.792,-0.036 -0.792,-0.168 0,-0.276 0.24,-0.36 1.056,-0.36 0.696,0 0.792,-0.036 0.876,-0.288 0.096,-0.264 0.096,-0.264 -1.224,-0.264 -0.936,0 -1.332,0.048 -1.368,0.156 m 2.904,-0.084 c -0.048,0.048 -0.048,0.204 -0.012,0.336 0.036,0.132 -0.072,0.696 -0.24,1.212 -0.396,1.2360004 -0.396,1.2840004 0.06,1.2360004 0.36,-0.036 0.396,-0.096 0.636,-0.876 0.288,-0.9120004 0.3,-0.9120004 0.612,0.06 0.24,0.732 0.336,0.84 0.792,0.84 0.288,0 0.336,-0.084 0.756,-1.3680004 0.24,-0.744 0.432,-1.404 0.432,-1.44 0,-0.036 -0.24,-0.072 -0.504,-0.048 -0.48,0.036 -0.516,0.06 -0.516,0.396 0,0.456 -0.168,1.14 -0.276,1.14 a 2.4,2.4 0 0 1 -0.312,-0.78 l -0.228,-0.78 h -0.576 c -0.3,0 -0.6,0.036 -0.636,0.072 M 3.2049911,11.946909 c -0.12,0.6 -0.12,0.6 0.54,0.552 0.6,-0.036 0.624,-0.048 0.768,-0.48 0.144,-0.42 0.144,-0.444 -0.084,-0.444 q -0.216,0 -0.168,0.12 0.048,0.108 -0.204,0.132 -0.3,0.012 -0.06,0.072 0.456,0.144 -0.144,0.372 c -0.432,0.156 -0.504,0.084 -0.36,-0.3 0.144,-0.384 0.144,-0.396 -0.06,-0.396 -0.084,0 -0.192,0.168 -0.24,0.372 m 1.56,-0.084 -0.144,0.48 q -0.06,0.18 0.108,0.192 0.18,-0.024 0.3,-0.48 c 0.096,-0.372 0.084,-0.48 -0.036,-0.48 q -0.156,0.024 -0.228,0.288 m 0.552,-0.072 c 0,0.12 -0.036,0.312 -0.048,0.444 -0.036,0.216 0.036,0.24 0.6,0.264 0.648,0.024 0.6,0.06 0.816,-0.72 q 0.06,-0.192 -0.12,-0.204 -0.18,0 -0.192,0.12 -0.024,0.108 -0.204,0.12 -0.24,0 -0.048,0.108 c 0.24,0.144 0.048,0.372 -0.3,0.372 -0.276,0 -0.3,-0.036 -0.228,-0.36 q 0.096,-0.384 -0.084,-0.36 -0.156,0.024 -0.192,0.216 m 1.488,0.156 c -0.096,0.504 -0.096,0.588 0.036,0.588 0.096,0 0.372,-0.624 0.372,-0.852 q -0.012,-0.096 -0.168,-0.108 c -0.084,0 -0.192,0.168 -0.24,0.372 m 0.648,-0.24 q 0.012,0.096 0.18,0.108 c 0.276,0 0.216,0.192 -0.12,0.444 l -0.3,0.216 0.768,0.024 c 0.7679996,0.024 0.7799996,0.012 0.8999996,-0.36 0.168,-0.48 0.168,-0.564 -0.048,-0.564 q -0.156,0.024 -0.18,0.216 c 0,0.12 -0.072,0.312 -0.156,0.432 -0.144,0.192 -0.168,0.192 -0.3119996,0.024 -0.18,-0.216 -0.084,-0.432 0.1919996,-0.432 q 0.18,0 0.12,-0.072 c -0.12,-0.12 -1.0439996,-0.156 -1.0439996,-0.036 m 1.7999996,-0.024 q 0.024,0.12 0.336,0.168 0.4680003,0.06 -0.06,0.072 c -0.42,0.012 -0.54,0.204 -0.18,0.288 q 0.24,0.06 -0.06,0.072 c -0.336,0.012 -0.48,0.252 -0.168,0.252 q 0.252,0 0.252,0.24 c 0,0.204 0.084,0.24 0.54,0.24 0.3000003,0 0.5400003,-0.048 0.5400003,-0.12 0,-0.06 -0.192,-0.12 -0.42,-0.12 -0.4800003,0 -0.4680003,-0.168 0.012,-0.696 0.408,-0.42 0.36,-0.504 -0.2520003,-0.504 -0.3,0 -0.54,0.048 -0.54,0.12 m 1.2360003,0.036 c 0,0.072 -0.048,0.3 -0.096,0.48 -0.144,0.528 0.18,0.36 0.372,-0.192 0.144,-0.408 0.132,-0.444 -0.06,-0.444 q -0.192,0.012 -0.216,0.156"
     id="path1"
     style="stroke-width:1.2" />
</svg>
