<svg xmlns="http://www.w3.org/2000/svg" width="24" height="24"><path fill="#FFF" fill-rule="evenodd" d="M6.35 5.2c-.03.05-.03.2 0 .32.03.13-.07.61-.25 1.12l-.3.93c0 .02.18.03.4.03.38 0 .39 0 .55-.52l.22-.68c.03-.09.13.07.24.39.24.7.35.81.73.81.31 0 .32 0 .69-1.13.2-.62.37-1.19.37-1.25q.01-.14-.47-.1l-.48.03v.45c0 .25-.06.53-.11.64-.1.16-.14.08-.29-.48l-.18-.66h-.53c-.29 0-.55.04-.59.1m2.97.03c-.05.06-.22.5-.36.96-.24.77-.25.86-.11 1.07q.28.42 1.36.3c.56-.05.63-.1.73-.43.07-.2.04-.21-.61-.2-.54.02-.68-.01-.68-.13s.17-.16.74-.2c.65-.04.75-.08.82-.27q.07-.21.01-.24h-.7c-.56.02-.62 0-.62-.18 0-.2.06-.21.75-.21.72 0 .76-.01.85-.26.06-.14.1-.27.1-.3s-.49-.04-1.09-.04q-1.1 0-1.19.13m2.45-.06a5 5 0 0 1-.31 1.52c-.14.41-.26.78-.26.83s.18.08.39.08h.39l.17-.65c.1-.36.2-.63.24-.6s.15.32.26.63c.2.56.2.57.6.57h.38l.39-1.15c.2-.63.38-1.18.38-1.22 0-.13-.85-.1-.98.04a.24.24 0 0 0-.03.27c.05.1.03.33-.04.56l-.12.4-.2-.65-.2-.65-.5-.03c-.29-.02-.53 0-.56.05m2.9 0a8 8 0 0 0-.53 1.99c.08.32.56.47 1.32.41.7-.05.78-.1.88-.44.06-.2.04-.21-.6-.2-.58.02-.69 0-.72-.15-.03-.16.05-.18.71-.18.6 0 .76-.03.8-.16.13-.3.06-.34-.64-.34-.6 0-.7-.02-.65-.16l.06-.2c0-.02.33-.04.74-.04.58 0 .75-.03.8-.16.16-.42.1-.44-1.03-.44-.6 0-1.12.03-1.14.08m2.68.57c-.27.26-.32.7-.12.96s1.05.89 1.2.89c.28 0 1.38-.63 1.57-.9.27-.38.26-.85-.02-1.04s-.61-.2-1.05 0c-.33.16-.37.16-.63 0-.39-.22-.67-.2-.95.09m3.11-.1c.24.62 0 1.15-.77 1.74-.6.45-.63.63-.04.2.9-.64 1.22-1.3.9-1.85q-.14-.25-.09-.09m-.01 3.46-.5 1.54h-.35c-.2 0-.46-.04-.6-.09q-.3-.11-.12.05c.07.07.35.13.65.14h.52l.48-1.45c.26-.8.46-1.51.45-1.59s-.25.56-.53 1.4M4.05 8.1c-.42.25-.72.65-.86 1.12-.25.8.3 1.28 1.31 1.15.8-.1 1.07-.24 1.2-.58.1-.28.08-.3-.13-.25-1.27.29-1.38.3-1.53.15-.12-.11-.12-.2-.03-.49.18-.55.42-.69 1.15-.69.35 0 .64-.03.64-.07l.06-.3c.06-.22.04-.23-.72-.23-.6 0-.87.05-1.1.19m2.2-.1q-.04.11 0 .28c.03.1-.07.58-.23 1.07-.17.5-.26.94-.22.98s.21.07.37.05c.25-.03.31-.1.44-.5.14-.46.17-.48.52-.48s.37.02.3.22l-.16.51c-.07.28-.06.28.31.25l.38-.03.37-1.1c.2-.6.37-1.16.37-1.23 0-.1-.12-.12-.46-.1-.46.03-.48.04-.49.33-.01.53-.03.55-.4.55-.39 0-.38.04-.18-.68.06-.2.03-.22-.4-.22-.24 0-.48.05-.51.1m2.69.05q-.04.14 0 .23c.02.04-.08.5-.25 1.02s-.29.98-.29 1.03c0 .04.17.07.38.05l.37-.03.37-1.1c.2-.6.37-1.16.37-1.22.01-.2-.88-.17-.95.02m1.58.02q-.6.29-.84 1.16c-.22.83.25 1.25 1.25 1.13.81-.09 1.14-.24 1.22-.53.03-.14.04-.27.02-.3s-.32.04-.66.12c-.88.23-1.07.19-1.03-.25.01-.2.1-.46.2-.6.17-.22.28-.25.86-.28.61-.03.68-.05.76-.28.06-.14.1-.27.1-.3 0-.12-1.58-.02-1.88.13m2.15-.1c-.03.03-.04.17-.01.32s-.06.59-.2 1c-.34.97-.33 1.01.09 1.01.32 0 .35-.03.46-.43l.15-.46c.02-.02.15.1.29.27.24.28 1.1.71 1.2.6.03-.02.07-.18.1-.34.05-.26.02-.3-.37-.49-.23-.11-.44-.25-.45-.3-.02-.06.27-.36.64-.66l.68-.54-.43-.03c-.38-.03-.49.02-.94.4-.32.27-.5.36-.45.25.24-.63.22-.67-.25-.67-.25 0-.47.03-.5.06m2.79.02c-.03.04-.17.46-.31.95-.2.65-.24.92-.16 1.06.15.3.72.44 1.41.36.52-.06.62-.1.7-.32.15-.39.12-.4-.46-.3-.4.07-.6.06-.7-.03q-.4-.3.66-.3c.63 0 .7-.02.78-.22.05-.13.07-.26.04-.3a2 2 0 0 0-.74-.08c-.66 0-.7 0-.6-.2.1-.17.18-.19.71-.13.63.06.84-.02.93-.37.05-.19 0-.2-1.08-.2-.63 0-1.16.03-1.18.08m2.42-.05a6 6 0 0 1-.32 1.7l-.25.77h.77l.23-.7.22-.72.2.59c.28.78.32.83.71.83.31 0 .35-.03.44-.37l.4-1.26.3-.88-.52.03-.52.03v.47c0 .75-.19.79-.4.08l-.18-.6h-.54c-.29 0-.54.01-.54.03m-6.46 2.57c-.16.07-.28.28-.43.8-.12.4-.2.78-.16.85.2.51 1.78.63 3.16.25l1.3-.36a5 5 0 0 1 2.28-.05q.38.2.12-.43c-.09-.24-.06-.27.25-.4.2-.08.35-.18.35-.21s-.17-.13-.37-.22c-.63-.26-1.81-.2-3.08.17-1.47.42-2.02.52-2.53.44-.39-.06-.43-.09-.37-.28q.28-.89-.52-.56m-3.09.14c-.04.1-.2.13-.65.09q-.6-.06-.59.06-.02.1-.15.11c-.18 0-.2.2-.02.2.13 0-.21.3-.35.3-.05 0-.06-.16-.02-.35l.06-.35h-.66c-.37 0-.66.04-.66.1q-.02.09-.15.1c-.2 0-.19.18.03.23q.2.04-.12.16c-.36.14-.38.12-.27-.27.09-.3.08-.32-.15-.32q-.23 0-.2.1c.04.04.02.19-.02.32-.15.39-.05.48.54.48q.54 0 .54-.12 0-.15.09 0c.14.23.34.09.47-.34l.13-.39-.02.4-.02.4.57.02c.46.02.58-.01.61-.15q.05-.24.06 0c0 .14.1.17.54.16h1.1c.5.02.57.04.57.23 0 .18.05.2.53.17.53-.03.66-.23.14-.23-.3 0-.38-.27-.14-.42.07-.04.21-.2.31-.33.2-.27.2-.27 0 .4q-.06.21.14.2t.25-.27c.03-.16.09-.36.13-.46.06-.18 0-.19-1.05-.15-.84.02-1.11 0-1.11-.1 0-.17-.4-.15-.46.02m10.11.57c-.22.1-.43.2-.48.21-.04.02.02.3.13.62.25.75.25.83-.03.6q-.2-.18.05.1c.15.17.3.28.33.25s-.06-.38-.2-.77l-.23-.7.44-.18c.25-.1.47-.2.5-.25.08-.13-.06-.1-.51.12m-14.08.62c.02.04.5.07 1.04.07h1l-.05.3c-.04.27-.02.3.24.3.17 0 .33-.07.4-.17q.11-.23.1-.02c0 .12.1.16.42.15q.42-.01.43-.13c0-.16.32-.53.45-.53.15 0 .12.17-.05.24q-.13.06-.15.26c0 .18.05.2.5.17.57-.04.6-.05.66-.4.04-.26.03-.27-.43-.28-3.47-.04-4.6-.03-4.56.04m10.88.47c-2.16.62-3.42.73-4.15.37q-.36-.19-.2-.03c.2.24 1.07.4 1.9.32.42-.03 1.32-.22 2-.41q2.04-.58 2.75-.2c.29.16.3.15.12-.02-.27-.27-1.52-.29-2.42-.03"/></svg>