<svg xmlns="http://www.w3.org/2000/svg" width="24" height="24"><path fill="#FFF" fill-rule="evenodd" d="M6.35 5.04q-.2.13-.18.52c.01.22-.1.76-.24 1.2l-.26.81-.63.06c-.96.1-1.55.5-1.88 1.3-.4.96.03 1.77.95 1.77h.3l-.06.5c-.09.63.04.7 1.3.7h.95l-.1.25-.07.26.85.04c.85.02.9 0 .84-.46-.02-.13.49-.2.66-.1q.23.12-.14.1c-.36.01-.43.06-.37.3.03.13.15.16.56.16.5 0 .52-.01.52-.27 0-.3.1-.37.19-.13q.04.15.54.15c.37 0 .54.05.68.21.38.42.74.54 1.69.53.73 0 1.12-.07 2.05-.34a6 6 0 0 1 2.12-.35c.9 0 .99.02 1.25.26.64.57.64.57.38-.25l-.23-.77.35-.14c.2-.08.4-.15.44-.15.17 0 .09-.19-.15-.38q-.26-.19-.2-.4c.06-.22.06-.22.3.03.2.2.32.25.77.25h.53l.47-1.5c.26-.81.47-1.51.47-1.54 0-.14-1.26-.05-1.48.1q-.2.12-.22.05c0-.05.09-.13.2-.16.3-.1.79-.53.95-.86.52-1-.37-1.89-1.46-1.46-.35.14-.42.14-.7 0a.7.7 0 0 0-.65-.05c-.33.1-.34.1-.28-.14l.06-.24H15.5c-1.13 0-2 .04-2.1.1q-.2.1-.2 0c0-.14-4.84-.14-5.1 0q-.18.1-.25 0c-.1-.15-1.28-.12-1.5.04m.22.32c-.04.04-.04.16-.01.28s-.07.54-.2.95c-.34.97-.33 1.03.06 1 .3-.04.34-.08.54-.74.17-.52.24-.65.29-.5.4 1.23.38 1.2.77 1.23l.37.03.3-.93.36-1.15c.06-.22.03-.23-.4-.23s-.47.02-.42.22c.07.26-.12 1.1-.23 1.03a2 2 0 0 1-.24-.65l-.17-.6h-.48c-.26 0-.5.03-.54.06m2.79.26a10 10 0 0 0-.32.97l-.17.64.22.19c.18.14.4.18.95.18.77 0 .9-.05.98-.35.04-.18 0-.2-.6-.2-.55 0-.67-.03-.7-.17-.03-.16.05-.18.71-.18.6 0 .76-.03.8-.16.13-.3.06-.34-.63-.34-.72 0-.8-.04-.57-.33.09-.12.3-.17.82-.2.57-.01.7-.05.73-.2s-.07-.17-1.03-.17H9.5zm2.5-.24c-.04.05-.04.16 0 .24.03.08-.06.53-.2.99s-.26.87-.26.91.15.07.33.07c.32 0 .33-.01.52-.7.1-.38.21-.67.25-.64.03.03.14.33.25.67.2.6.21.62.57.65l.37.03.35-1.1c.2-.61.36-1.13.36-1.16s-.2-.05-.46-.05c-.44 0-.46.01-.4.25.07.29-.13 1.1-.25.98a3 3 0 0 1-.23-.66l-.17-.57h-.49c-.27 0-.51.04-.54.1m2.9-.03c-.02.05-.16.45-.3.91-.38 1.2-.22 1.39 1.09 1.3.7-.04.7-.04.79-.33.05-.19.01-.2-.62-.2-.53 0-.67-.03-.67-.15s.17-.16.75-.2c.68-.05.75-.07.78-.27.03-.22 0-.23-.67-.23-.69 0-.7 0-.62-.22.07-.2.17-.24.82-.28.6-.04.74-.08.77-.22.03-.16-.07-.18-1.02-.18a4 4 0 0 0-1.1.08M4.36 8.14c-.58.26-.95.85-.95 1.5q-.01.61.64.71c.37.07 1.42-.1 1.61-.25.12-.1.28-.5.2-.5l-.65.16q-1.55.38-.95-.76c.2-.4.43-.5 1.08-.5.53 0 .67-.08.67-.4 0-.15-1.31-.11-1.65.04m2.12-.08q-.06.08-.01.28c.02.12-.09.6-.25 1.08-.16.47-.27.9-.23.92.03.03.18.06.33.06.25 0 .3-.05.41-.47.13-.47.15-.48.56-.51.23-.02.42-.01.42.01l-.15.47c-.2.55-.2.52.18.48.31-.03.33-.05.69-1.13.2-.6.37-1.14.37-1.18s-.18-.07-.41-.05c-.4.03-.43.05-.44.33-.01.54-.02.55-.45.55-.38 0-.4-.02-.35-.22.2-.73.21-.68-.21-.68-.22 0-.43.03-.46.06m2.6.08q-.04.13.03.22c.05.05-.04.5-.2.99-.17.5-.3.94-.3.98s.15.07.33.05c.31-.03.33-.05.69-1.13.2-.6.37-1.13.37-1.17.02-.15-.87-.09-.92.06m1.73-.03c-.81.33-1.3 1.59-.79 2.05.17.15.35.19.88.17.8-.01 1.19-.15 1.3-.45q.08-.21.06-.26c-.01-.01-.3.05-.65.14-1.03.26-1.28.07-.96-.7.18-.44.3-.5 1.06-.56.58-.04.65-.07.68-.28s0-.22-.65-.21c-.37 0-.8.05-.93.1m2.06-.02q-.06.1 0 .23c.02.07-.1.53-.26 1.03l-.3.93c0 .02.14.02.32 0 .27-.03.34-.09.47-.43l.16-.43c.01 0 .2.15.42.37.46.43.91.6 1.04.4s.1-.49-.04-.49a1 1 0 0 1-.47-.28l-.34-.29.68-.54.68-.54-.36-.03c-.3-.03-.44.04-.84.37-.27.23-.51.41-.55.41-.03 0 0-.18.08-.4l.14-.4h-.39c-.21 0-.41.04-.44.1m2.69.03c-.03.06-.16.48-.29.92-.27.9-.22 1.13.3 1.27.46.13 1.43 0 1.54-.22.18-.33.11-.37-.45-.27-.4.08-.58.07-.69-.02q-.45-.38.67-.43c.66-.03.72-.05.75-.26.03-.2 0-.22-.62-.22-.5 0-.66-.03-.66-.14 0-.23.2-.3.88-.3.58 0 .66-.03.73-.24C17.8 8 17.8 8 16.7 8c-.78 0-1.11.04-1.14.13m2.42-.07c-.04.04-.04.17-.01.28s-.06.58-.2 1.01c-.33 1.03-.33 1.07.05 1.03.3-.03.33-.08.53-.73.24-.76.25-.76.51.05.2.61.28.7.66.7.24 0 .28-.07.63-1.14.2-.62.36-1.17.36-1.2s-.2-.06-.42-.04c-.4.03-.43.05-.43.33 0 .38-.14.95-.23.95a2 2 0 0 1-.26-.65L18.98 8h-.48c-.25 0-.5.03-.53.06m-13.3 3.05c-.1.5-.1.5.45.46.5-.03.52-.04.64-.4.12-.35.12-.37-.07-.37q-.18 0-.14.1.04.09-.17.11-.25.01-.05.06.38.12-.12.31c-.36.13-.42.07-.3-.25s.12-.33-.05-.33c-.07 0-.16.14-.2.31m1.3-.07-.12.4q-.05.15.09.16.15-.02.25-.4c.08-.31.07-.4-.03-.4q-.13.02-.19.24m.46-.06c0 .1-.03.26-.04.37-.03.18.03.2.5.22.54.02.5.05.68-.6q.05-.16-.1-.17-.15 0-.16.1-.02.09-.17.1-.2 0-.04.09c.2.12.04.31-.25.31-.23 0-.25-.03-.19-.3q.08-.32-.07-.3-.13.02-.16.18m1.24.13c-.08.42-.08.49.03.49.08 0 .31-.52.31-.71q-.01-.08-.14-.09c-.07 0-.16.14-.2.31m.54-.2q.01.08.15.09c.23 0 .18.16-.1.37l-.25.18.64.02c.64.02.65.01.75-.3.14-.4.14-.47-.04-.47q-.13.02-.15.18c0 .1-.06.26-.13.36-.12.16-.14.16-.26.02-.15-.18-.07-.36.16-.36q.15 0 .1-.06c-.1-.1-.87-.13-.87-.03m1.5-.02q.02.1.28.14.39.05-.05.06c-.35.01-.45.17-.15.24q.2.05-.05.06c-.28.01-.4.21-.14.21q.21 0 .21.2c0 .17.07.2.45.2.25 0 .45-.04.45-.1 0-.05-.16-.1-.35-.1-.4 0-.39-.14.01-.58.34-.35.3-.42-.21-.42-.25 0-.45.04-.45.1m1.03.03c0 .06-.04.25-.08.4-.12.44.15.3.31-.16.12-.34.11-.37-.05-.37q-.16.01-.18.13"/></svg>