<svg xmlns="http://www.w3.org/2000/svg" width="24" height="24"><path fill="#FFF" fill-rule="evenodd" d="M4.08 5.28c-.09.1-.35 1.2-.63 2.64-.4 2.07-.46 2.5-.35 2.63.11.14.95.15 8.3.13l8.16-.03.4-.26c.6-.4.97-1.15 1.02-2.1.07-1.22-.25-1.7-1.3-1.9-.62-.11-1.45.03-1.8.3-.22.18-.23.18-.4-.05A.6.6 0 0 0 17 6.4c-.27 0-.3-.03-.32-.42l-.03-.43-.54-.03c-.82-.05-.98.02-1.08.45-.08.35-.12.38-.45.41-.37.03-.37.03-.4-.4l-.03-.43-.65-.03c-.76-.03-.9.04-.99.49-.05.26-.13.35-.38.41-.18.05-.34.17-.38.28-.06.2-.07.2-.35-.01-.76-.57-2.16-.43-2.93.29-.31.3-.32.25-.12-.68.18-.83.18-.85 0-1.04-.24-.23-1.27-.22-1.48.02-.09.1-.22.5-.29.9-.06.39-.15.69-.19.67a2 2 0 0 1-.18-.67C6 5.17 5.94 5.1 5 5.1c-.62 0-.81.04-.93.18m4.18 6.4c-.03.05-.08.32-.12.6-.07.57.08.72.23.25l.1-.28.07.28c.08.32.3.31.34-.01.04-.27.22-.2.22.09q.01.17.16.19c.13 0 .15-.07.1-.36-.16-.84-.37-1.06-.54-.56l-.1.27-.1-.28c-.11-.27-.26-.35-.36-.19m2.84.52c0 .33.04.6.1.6q.1-.01.1-.17c0-.14.02-.14.2.02.23.21.4.12.24-.13q-.12-.17 0-.34c.13-.2 0-.36-.16-.2-.14.14-.32.16-.24.03.08-.12-.03-.41-.15-.41-.05 0-.09.27-.09.6m3.3 0v.6h.34c.25 0 .4-.07.55-.27.36-.45.07-.93-.56-.93h-.33zm1.2-.57c-.08.3-.02 1.11.08 1.15q.13.06.12-.57c0-.34-.04-.61-.1-.61q-.09 0-.1.03m4.63.27q-.12.18-.03.25c.06.03.1.2.1.36s.04.29.1.29.1-.13.1-.3.04-.32.1-.35c.1-.06-.08-.45-.2-.45q-.06.02-.17.2m-10.67.22c-.25.35-.02.68.46.68.26 0 .28-.03.28-.43 0-.42-.01-.44-.3-.45q-.3 0-.44.2m.88.02c-.08.32-.02.58.14.63q.12.04.12-.26t.15-.31.15-.15q-.01-.15-.25-.15-.25 0-.3.24m1.63-.13c-.2.12-.24.5-.06.67s.58.15.58-.04q0-.17-.21-.09-.22.08-.15-.04a.3.3 0 0 1 .21-.11c.2 0 .28-.19.15-.35-.14-.17-.28-.18-.52-.04m.84.01c-.14.14-.16.78-.02.78.06 0 .1-.13.1-.3q0-.3.15-.3t.15.3.13.28c.19-.07.2-.36.03-.63q-.27-.4-.54-.13m1.78.18c0 .33.2.4.4.15.1-.12.1-.18 0-.3-.2-.25-.4-.18-.4.15m1.3-.14c-.12.14-.1.18.1.35l.25.18-.24-.06q-.25-.06-.2.08c.07.17.48.24.61.1.06-.05.07-.18.03-.28s-.09-.25-.09-.33c-.01-.21-.3-.24-.46-.04m.82-.04c-.28.28-.04.84.34.76.26-.05.28-.26.04-.3-.26-.04-.26-.23 0-.22q.21 0 .18-.15c-.04-.2-.4-.26-.56-.1m.84.05c-.31.3-.13.74.3.74.22 0 .44-.25.44-.49 0-.14-.3-.41-.45-.41-.07 0-.2.07-.3.16m.87.27c.03.38.06.42.3.45.22.03.3-.02.36-.2l.09-.22.06.23c.07.29.27.18.27-.15s.18-.3.22.03c.05.4.28.42.28 0 0-.57-.43-.77-.73-.35l-.16.23v-.22c-.01-.35-.21-.27-.21.07q0 .3-.15.3t-.15-.3c0-.16-.05-.3-.1-.3q-.1.02-.08.43"/></svg>