<svg xmlns="http://www.w3.org/2000/svg" width="24" height="24"><path fill="#FFF" fill-rule="evenodd" d="M9.65 6.74c-.14.14-.27.42-.31.65-.06.35-.1.41-.3.41-.23 0-.25.03-.22.42.02.36.07.44.25.46.22.03.23.07.25 1.39l.03 1.36h1.1l.03-1.37.03-1.36h.3c.28 0 .29-.02.29-.45s-.01-.45-.3-.45q-.3 0-.3-.15.01-.15.25-.15c.23 0 .25-.03.25-.5v-.5h-.55c-.46 0-.6.04-.8.24m3.92-.06c-.23.25-.21.55.03.77.32.3.74.1.78-.35.05-.54-.46-.8-.81-.42m1.17-.03c-.03.06-.03 1.16-.02 2.44l.03 2.34h1.1l.03-2.4.02-2.41-.56-.04c-.33-.02-.58.01-.6.07m1.36 2.38v2.42h1.1V6.6h-1.1zM6.8 7.88c-.62.31-.75.6-.75 1.7 0 .73.04 1.05.17 1.28.24.44.78.67 1.41.61.95-.09 1.4-.96 1.21-2.35q-.13-1-.79-1.28a1.3 1.3 0 0 0-1.24.04m11.34-.04q-.64.28-.72.93-.09.7.78 1.13c.2.11.43.29.49.4.1.17.08.2-.13.2a.7.7 0 0 1-.42-.2q-.17-.18-.25-.2c-.13 0-.6.8-.54.91.11.18.87.49 1.22.49.63 0 1.2-.44 1.28-1.01.09-.54-.1-.85-.73-1.25-.32-.2-.6-.38-.61-.4q-.02-.03.03-.14.07-.11.4.09l.33.2.27-.4c.32-.48.25-.62-.4-.78-.54-.14-.63-.13-1 .03M3 9.66v1.85l.58-.03.57-.03.03-1.2c.03-1.18.08-1.34.4-1.35.09 0 .12.33.12 1.3v1.31l.58-.03.57-.03V9.84c0-1.45-.02-1.64-.19-1.83-.23-.25-.74-.28-1.16-.06-.25.13-.29.13-.34 0-.04-.1-.21-.15-.6-.15H3zm8.2-.01v1.85h1.1v-1c0-.95.01-1 .26-1.2a1 1 0 0 1 .5-.2c.23 0 .24-.03.24-.66v-.66l-.32.06c-.17.03-.4.13-.49.22-.15.13-.17.13-.22-.06-.04-.17-.13-.2-.56-.2h-.51zm2.2-.05v1.8h1.1V7.8h-1.1zm-6.18-.73c-.11.28-.08 1.41.05 1.54.06.06.19.09.28.05.24-.09.18-1.7-.08-1.74q-.16-.01-.25.15m12.86 2.28c.05.3.22.34.22.05q0-.18.1-.2.1.02.1.28 0 .28.09.13.1-.16.14 0 .06.17.06 0 .01-.1.11-.06t.1-.22c0-.27-.01-.27-.15-.09-.13.17-.15.18-.15.03q.02-.18-.34-.17c-.3 0-.33.02-.28.25"/></svg>