<svg xmlns="http://www.w3.org/2000/svg" width="24" height="24"><path fill="#FFF" fill-rule="evenodd" d="M19.6 2.68c-.52.8-1.8 2.52-1.87 2.52-.02 0-.3-.22-.61-.49a8.6 8.6 0 0 0-4.1-2.02C11.97 2.52 12 2.48 12 3.99v1.3l.28.06c.92.2 1.22.29 1.7.5.68.31 1.82 1.07 1.82 1.21s-.86.72-1.7 1.14c-.5.25-1.64.59-2.02.6-.05 0-.08.61-.08 1.36v1.37l.7-.06a8 8 0 0 0 4.4-2.04l.61-.56.25.29c.2.26 1.62 2.2 2.06 2.84.16.24.17.17.17-1.7l.01-1.96-.45-.64c-.5-.71-.52-.6.17-1.54l.28-.39V3.89c0-1.04-.03-1.89-.07-1.89s-.28.3-.52.68m-9.7.03a9.6 9.6 0 0 0-5.75 3.81l-.38.57.45.63c1.49 2.09 4.42 3.77 6.6 3.78h.47V8.81l-.47-.06a6 6 0 0 1-3.11-1.48l-.23-.24.45-.4a6 6 0 0 1 2.53-1.19l.79-.14c.02 0 .04-.6.04-1.35V2.6l-.47.01c-.27 0-.68.05-.92.1M3.87 13.27c-.04.03-.07.67-.07 1.4v1.34l.38-.03.37-.03.05-.7.05-.7.53.73c.5.68.56.72.93.72h.39v-.5c0-.27.03-.5.08-.5.04 0 .16.16.27.36.25.46.6.64 1.3.64.61 0 .94-.17 1.27-.68.24-.36.23-1-.02-1.4-.58-.95-2.04-.96-2.58-.02-.1.17-.2.3-.24.3s-.08-.21-.1-.47c-.03-.48-.03-.48-.38-.48h-.35l-.05.72-.05.73-.58-.75c-.47-.62-.63-.75-.86-.75-.15 0-.3.03-.34.07m6 0c-.04.03-.07.67-.07 1.4v1.34l.38-.03c.35-.03.37-.05.42-.42l.05-.39.23.42c.22.38.26.41.68.41.24 0 .44-.03.44-.06 0-.04-.15-.27-.34-.53l-.34-.46.24-.28c.42-.49.28-1.08-.31-1.33-.35-.14-1.26-.2-1.38-.07m2.28.05c-.03.08-.04.7-.03 1.39l.03 1.24.65.03q1.49.05 1.67-1.27c.07-.48-.2-.97-.67-1.25-.43-.25-1.57-.35-1.65-.14m2.83.07c-.35.28-.46.82-.24 1.16.09.13.34.3.56.36.39.12.53.33.28.42-.07.02-.28-.02-.46-.09-.3-.12-.33-.12-.47.15q-.33.62.79.61c.47 0 .61-.04.81-.24.55-.55.38-1.13-.43-1.47-.36-.16-.43-.22-.32-.3a1 1 0 0 1 .4-.04c.2.05.3 0 .4-.2.18-.34.05-.47-.57-.52-.38-.04-.53 0-.75.16m1.84-.1c-.1.06-.12.4-.1 1.37l.03 1.29h1.6v-.3c0-.27-.03-.3-.4-.35-.52-.07-.58-.28-.08-.32.35-.03.38-.06.41-.36.03-.31.03-.32-.38-.32-.34 0-.4-.03-.38-.18q.03-.18.28-.14c.38.04.64-.2.56-.51-.06-.26-.1-.27-.74-.27-.37 0-.73.04-.8.08m1.83.05c-.03.07-.04.7-.03 1.38l.03 1.24.78.03.77.03v-.36c0-.34 0-.35-.4-.35-.3 0-.38-.03-.34-.14.03-.08.2-.16.37-.18.28-.03.32-.07.35-.35.03-.3.01-.32-.35-.35-.5-.04-.53-.32-.03-.32.33-.01.35-.03.35-.36v-.35l-.73-.03c-.54-.02-.74 0-.77.1m-10.87.74q-.26.14-.29.22c-.06.49-.03.58.17.79q.41.42.82.05c.65-.54.03-1.46-.7-1.06m5.12.54c0 .38.04.7.1.7.7 0 .92-.93.3-1.25-.16-.08-.31-.15-.34-.15s-.06.32-.06.7"/></svg>