<svg xmlns="http://www.w3.org/2000/svg" width="24" height="24"><path fill="#FFF" fill-rule="evenodd" d="M10.35 7.9q-.17.08-.07.1c.09 0 .12.27.12 1.01 0 .88-.02 1-.16.95L10 9.9c-.05 0-.09-.25-.08-.56.02-.6-.07-.74-.47-.74-.32 0-.72.35-.57.5.14.15.36.03.29-.16q-.06-.15.2-.14c.19 0 .24.05.24.25q-.01.24-.14.25c-.25 0-.68.43-.6.62.08.23.32.3.55.17q.2-.11.35.02.13.14.29-.01.13-.1.15-.03c0 .05.16.09.35.09.2 0 .35-.04.35-.08q0-.07-.1-.08c-.11 0-.14-.43-.03-.53.03-.04.16.1.27.3.2.35.6.52.72.31q.04-.07-.09-.08c-.07 0-.24-.18-.36-.4-.22-.4-.22-.42-.05-.6.1-.11.23-.2.3-.2q.13 0 .14-.1c0-.05-.16-.1-.35-.1-.33 0-.48.14-.24.22.05.02-.01.14-.15.27l-.26.24v-.76c0-.8-.01-.82-.35-.67m-3.43.2c-.4.24-.66.8-.57 1.2.03.16.18.4.32.54.7.7 1.95.21 1.95-.78a1 1 0 0 0-.55-.96c-.4-.25-.74-.25-1.15 0m-3.51.23q-.33.32-.28.54c.02.12 0 .24-.06.26-.05.01-.07.16-.03.34.06.28.12.32.52.38.38.05.43.09.33.2-.1.13-.05.15.29.15s.4-.03.36-.17.01-.18.23-.19c.15 0 .46-.03.68-.06.37-.05.4-.07.37-.34a1 1 0 0 0-.22-.45q-.16-.17-.13-.23c.12-.12-.2-.36-.48-.36q-.27 0-.26-.12c.02-.12-.33-.25-.74-.27q-.27 0-.58.32m3.64-.1c-.2.16-.28.34-.31.67q-.09.78.48 1.1c.36.2.74.01.94-.47.4-.94-.42-1.9-1.1-1.3m7.08-.16c.17.04.18.12.12.65-.03.34-.06.76-.06.94q0 .35-.15.34-.13 0-.15.09c0 .04.18.08.4.08s.4-.04.4-.08q-.02-.08-.18-.09c-.16 0-.18-.07-.15-.62l.06-.78c.01-.08.16.2.32.64.17.44.34.79.4.78.05 0 .23-.36.4-.79l.3-.78.03.75c.02.46-.01.76-.08.78-.24.08-.07.2.3.18.22 0 .4-.04.4-.08q0-.08-.1-.08c-.04 0-.1-.43-.12-.95-.03-.88-.02-.95.17-.98q.15-.04-.16-.06c-.37-.01-.37 0-.7.8l-.33.8-.23-.58-.33-.8c-.07-.18-.17-.23-.42-.22q-.3 0-.14.06m-1.83.57c-.07.09-.1.23-.07.31.03.09-.04.29-.15.44-.17.23-.19.33-.1.5.16.29.47.36.77.16.23-.15.27-.15.43 0 .22.19.35.2.5 0q.16-.14-.1-.17c-.33-.04-.35-.33-.05-.63L13.8 9l-.37.01c-.2 0-.3.03-.2.06.2.05.23.19.07.29-.17.1-.34-.14-.34-.49 0-.27-.04-.32-.26-.35-.14-.02-.31.04-.38.12m4.65.17c-.52.4-.18 1.39.48 1.39.7 0 1.04-.92.52-1.37q-.5-.44-1-.02m1.6-.12q-.2.08-.08.15c.15.09.16 1.16.02 1.16q-.09.01-.1.08c0 .04.16.08.35.08.2 0 .35-.04.35-.08q-.01-.07-.1-.08-.12-.02-.1-.53c.04-.93.04-.93-.34-.78m1.36.14a1 1 0 0 0-.12 1.07c.2.39 1 .32 1.15-.1q.08-.18-.06-.03c-.2.2-.67.16-.79-.06-.2-.4-.13-.51.34-.51q.78 0 .4-.4c-.23-.27-.66-.25-.92.03m-2.76.1a1 1 0 0 0-.16.47c0 .3.25.7.45.7s.45-.4.45-.7-.25-.7-.45-.7q-.13.02-.3.22m-4.78.35c-.13.12-.07.54.09.6.08.03.24.02.35-.03.2-.1.2-.1-.01-.37-.22-.28-.32-.32-.43-.2"/></svg>