<svg xmlns="http://www.w3.org/2000/svg" width="24" height="24"><path fill="#FFFFFF" fill-rule="evenodd" d="M4.25 6.99C3.44 7.37 3 8.14 3 9.19c0 .71.27 1.3.76 1.67l.37.29 1.71.03c1.64.03 1.73.02 2.16-.2q1.04-.54 1.08-1.78c.06-.95-.03-1.34-.4-1.77-.5-.56-.78-.63-2.5-.63-1.28 0-1.6.04-1.93.19m5.05.14c0 .3.05.36.46.55l.47.23-.07.46a9 9 0 0 0-.06 1.02v.56l-.5.3c-.44.25-.5.33-.5.62v.33H12c3.15 0 3.26-.02 3.7-.56.3-.38.28-1.17-.03-1.47l-.22-.23.22-.33c.34-.5.31-1.14-.06-1.52l-.3-.29H9.3zm7.3-.04c0 .24.08.34.45.55l.45.27v.82c0 .45-.03.91-.06 1.02-.03.12-.29.33-.6.49q-.53.28-.54.46c0 .1-.03.25-.06.34-.05.14.18.16 2.25.16h2.31v-.35c0-.32-.04-.37-.5-.6l-.5-.25v-.85c0-1.1.07-1.27.7-1.54.44-.19.5-.25.5-.51v-.3h-4.4zm-10.88.68c-.05.1-.12.65-.15 1.24-.07 1.14 0 1.38.43 1.38.37 0 .47-.25.54-1.37.09-1.3.05-1.43-.4-1.43q-.33 0-.42.18m6.85.19c-.04.03-.07.15-.07.25 0 .16.06.19.43.16.35-.02.43-.07.45-.26.03-.2 0-.22-.36-.22-.21 0-.42.03-.45.07m7.5 1.3c-.14.13-.07.25.08.13.2-.17.45-.05.44.22q.01.32-.07.03c-.08-.23-.32-.32-.32-.1q.01.12.13.18.1.04.04.13-.09.07-.24-.11-.13-.17-.11-.06c.14.47.72.3.66-.18q-.02-.28-.28-.29c-.14-.02-.29 0-.33.04m-7.57.43c0 .27.02.29.37.25.66-.06.68-.54.02-.54-.36 0-.39.02-.39.29"/></svg>