<svg xmlns="http://www.w3.org/2000/svg" width="24" height="24"><path fill="#FFFFFF" fill-rule="evenodd" d="M7.74 2.8c-.23.1-.52.33-.65.51-.23.32-.24.43-.27 2.01S6.8 7.02 7 7.4c.3.54.9.86 1.59.85.66 0 1.1-.22 1.47-.7.27-.36.28-.41.31-1.83.04-1.78 0-2.02-.45-2.51-.54-.6-1.4-.77-2.19-.4m2.96 1.87c0 1.14.05 2.24.1 2.43.28 1.01 1.6 1.46 2.57.88.53-.32.73-.88.73-2.06 0-1.15-.12-1.57-.56-1.91-.24-.19-.38-.22-.9-.2l-.63.04-.03-.6-.03-.6-.62-.03-.63-.03zm-2.48-.75c-.07.07-.12.4-.12.78 0 .55.04.7.2.86.2.17.24.17.48.03.24-.13.27-.2.3-.8.02-.51-.01-.7-.13-.83-.2-.19-.56-.21-.73-.04m6.76.1c-.4.23-.68.7-.68 1.1 0 .46.41.91 1.05 1.16.79.3.9.36.93.56.07.36-.97.43-1.7.11-.16-.06-.18 0-.18.5 0 .51.02.56.28.66.45.19 1.62.15 2-.05.61-.32.82-.63.82-1.21 0-.69-.22-.95-1.07-1.3a5 5 0 0 1-.83-.42c-.34-.31.43-.49 1.33-.3l.37.08v-.5c0-.6-.03-.61-1.13-.6-.66 0-.9.04-1.2.21m-2.85.9c-.08.08-.12.46-.12 1.05 0 .81.02.94.2 1.03.27.14.37.13.6-.1.16-.16.2-.33.2-.96 0-.41-.05-.84-.1-.95-.12-.22-.59-.26-.78-.07m-3.9 1.3c-.18.18-.14.53.08.73.17.15.24.16.45.07q.47-.22.27-.68c-.13-.26-.58-.34-.8-.12m5.77 3.28c-1.51.26-2.05 1.14-1.97 3.24.04.88.09 1.2.26 1.52.26.51.71.9 1.2 1.04a9 9 0 0 0 2.36.04l.46-.07V11.8h-2.1v.55c0 .54 0 .55.3.55s.3 0 .3.56v.57l-.47-.06c-.68-.07-.74-.2-.7-1.56.02-1.1.03-1.14.29-1.34.3-.22 1.2-.29 1.9-.14l.38.08v-.66c0-.59-.02-.66-.22-.74a6 6 0 0 0-1.99-.1m4.7-.01c-1.52.26-2.06 1.15-1.96 3.24.03.7.1 1.25.2 1.47.2.46.76.95 1.24 1.08.42.12 1.66.14 2.37.05l.46-.07V11.8l-1.07.03-1.08.03-.03.53-.03.52h.71v1.13l-.47-.06c-.68-.07-.74-.2-.7-1.56.02-1.11.03-1.14.3-1.34.21-.17.42-.21.95-.2.37 0 .8.02.95.06l.27.07v-.69c0-.68 0-.7-.27-.75-.6-.1-1.4-.14-1.84-.06M3 12.4v2.9h1.63c1.49 0 1.67-.02 2.07-.22 1.05-.54 1.23-1.87.34-2.57l-.27-.21.23-.25c.36-.38.4-1.28.08-1.74-.44-.66-.74-.76-2.5-.8L3 9.49zm4.3-2.78c0 .05.36 1.04.8 2.2.72 1.9.8 2.16.8 2.8v.69h1.6v-.73c0-.69.05-.85.8-2.67.45-1.07.83-2.04.86-2.17.06-.22.04-.23-.69-.23h-.75l-.3.78c-.16.42-.38 1-.48 1.3-.1.28-.21.52-.24.52a10 10 0 0 1-.48-1.3l-.43-1.3h-.75c-.45 0-.74.04-.74.1m-2.8 1.65v.55h.53c.61 0 .97-.2.97-.55s-.36-.55-.97-.55H4.5zm.02 2.23c.03.55.04.57.32.6.71.08 1.26-.19 1.26-.62 0-.4-.3-.56-.99-.56H4.5z"/></svg>