<svg xmlns="http://www.w3.org/2000/svg" width="24" height="24"><path fill="#FFF" fill-rule="evenodd" d="M3 9v5.1h18V3.9H3zm2.95-4.85c-1.52.27-2.15.77-2.6 2-.26.73-.33 4.28-.11 5.34.3 1.41.93 2.06 2.32 2.37 1 .22 4.52.16 5.31-.1a2.8 2.8 0 0 0 1.62-1.3l.26-.5.03.92.03.92h2.99v-3h.9c1.42 0 1.53.12 1.6 1.8l.05 1.15 1.27.03 1.28.03v-1.86c0-1.99-.04-2.17-.53-2.63a2 2 0 0 0-.53-.31l-.29-.08.35-.15c.2-.09.49-.3.65-.47l.3-.32.03-1.8.03-1.79H18.2v2.12l-.39.4c-.39.38-.39.38-1.2.38h-.81V4.4h-3l-.02.88-.03.87-.18-.4c-.4-.87-1.17-1.36-2.57-1.6-.94-.18-3.12-.17-4.05 0m1.4 2.52q-.74.19-1.06.76c-.22.38-.24.54-.24 1.57 0 .95.03 1.22.2 1.55.3.58.87.85 1.84.85 1 0 1.52-.24 1.81-.86.2-.4.22-.58.19-1.69-.04-1.37-.14-1.61-.79-2a4 4 0 0 0-1.95-.18"/></svg>