<svg xmlns="http://www.w3.org/2000/svg" width="24" height="24"><path fill="#FFF" fill-rule="evenodd" d="M5.81 3.9c-.7.15-1.65.64-1.94 1.01-.47.63-.67 1.33-.8 2.8-.13 1.71 0 3.65.33 4.51.28.74.96 1.37 1.77 1.64.5.16.89.19 2.78.19 2.4 0 2.9-.08 3.7-.6.36-.24.53-.43 1-1.1.12-.18.14-.1.12.6v.8l1.56.03 1.56.03.03-1.53.03-1.53h.65c.85 0 1.2.09 1.47.4.21.24.23.36.23 1.46v1.19h2.71l-.03-2.03c-.03-2.27-.07-2.38-.8-2.75l-.37-.2.36-.23c.74-.49.78-.6.81-2.5.02-.94.01-1.76-.01-1.83s-.45-.1-1.4-.08l-1.37.03v1.03c0 .9-.03 1.07-.23 1.37-.32.47-.61.6-1.37.57l-.65-.03-.03-1.48-.03-1.48-1.56.03-1.57.03v.74c0 .57-.02.7-.1.57a3.1 3.1 0 0 0-2.33-1.61c-.76-.16-3.77-.19-4.52-.04m1.47 2.68c-.16.05-.28.07-.28.04 0-.02-.13.05-.3.16-.48.35-.63.92-.58 2.29.05 1.4.22 1.8.88 2.06.6.24 1.8.21 2.3-.04.64-.33.75-.64.75-2.15 0-1.47-.12-1.83-.74-2.19a4 4 0 0 0-2.03-.17"/></svg>