<svg xmlns="http://www.w3.org/2000/svg" width="24" height="24"><path fill="#FFFFFF" fill-rule="evenodd" d="M4.15 4.76c-1.08.59-1.45 1.72-.9 2.73.38.7.84.96 1.65.96.56 0 .73-.04 1.09-.28 1.08-.72 1.08-2.48 0-3.23-.5-.35-1.37-.43-1.84-.18m14.11.09c-.3.28-.36.87-.1 1.23.14.2.13.24-.2.57-.3.29-.36.43-.36.75 0 .9 1.02 1.38 1.89.9.38-.22.42-.22.6-.07.1.1.34.17.55.17h.38l-.36-.41-.35-.42.22-.3c.54-.72.53-.67.13-.67-.28 0-.43.07-.6.27l-.23.26-.28-.37-.28-.37.31-.32q.62-.61.03-1.18a.95.95 0 0 0-1.35-.04M7.7 6.55V8.4h2.31l-.03-.28c-.03-.27-.04-.27-.86-.3L8.3 7.8V4.7h-.6zm3.2 0V8.4h2.4v-.6h-1.7V7h.6c.57 0 .6-.01.6-.25s-.03-.25-.6-.25h-.6V5.3h1.7v-.6h-2.4zm7.83-1.38c-.18.07-.16.58.02.73.13.1.19.1.35-.05.25-.23.26-.51 0-.65l-.22-.1zm-14.4.22c-1 .63-.74 2.3.39 2.47.46.08 1.04-.2 1.23-.57.18-.33.2-1.08.04-1.41a1.2 1.2 0 0 0-1.66-.49m14.15 1.48c-.57.66.14 1.4.81.86l.22-.18-.44-.43c-.4-.4-.44-.42-.59-.25M4.2 9.61c-.62.26-.92.86-.71 1.41.13.34.43.53 1.06.7q.85.2.85.59c0 .49-.67.63-1.35.29l-.4-.2-.17.22c-.23.3-.23.3.15.53.23.14.51.2 1.04.2.68 0 .75-.02 1.04-.3q.3-.32.36-.73c.05-.36.02-.45-.24-.7-.17-.17-.5-.35-.74-.41a4 4 0 0 1-.69-.24c-.35-.18-.33-.56.02-.77.25-.13.32-.13.79.03.49.18.51.18.65 0 .2-.26.18-.3-.17-.48-.39-.2-1.17-.28-1.49-.14m2.62.27c.03.26.06.27.66.3l.62.03v3.09h.6v-3.1H10v-.6H6.79zm4.08 1.57v1.85h2.4v-.6h-1.7v-.8h.6c.57 0 .6-.01.6-.25s-.03-.25-.6-.25h-.6v-1.2h1.7v-.6h-2.4zm3.5 0v1.85h2.4v-.6h-1.81l.03-.37.03-.38.63-.03c.62-.03.63-.04.6-.29s-.06-.26-.63-.27l-.6-.01v-1.1l.85-.05c.84-.05.85-.05.88-.32l.03-.28H14.4zm3.4 0v1.85h.7v-2.25l1.08 1.13c.59.62 1.1 1.13 1.15 1.12s.07-.83.07-1.85V9.6h-.7v2.25l-1.08-1.13c-.59-.62-1.1-1.12-1.14-1.12-.05 0-.08.83-.08 1.85"/></svg>