<svg xmlns="http://www.w3.org/2000/svg" width="24" height="24"><path fill="#FFF" fill-rule="evenodd" d="M10.3 2.2a7.02 7.02 0 0 0-4.13 10.67 7 7 0 0 0 8.88 2.43 6.98 6.98 0 0 0-.9-12.96 7.5 7.5 0 0 0-3.84-.14m1.89.96c-1.18.31-2.27 1.37-3.05 2.99a7.6 7.6 0 0 0-.9 4.05c0 2.07.27 2.98 1.17 3.96 1.94 2.1 5.19-.15 6.19-4.31.19-.8.2-3.42 0-4.1-.38-1.35-1.17-2.31-2.12-2.6-.62-.18-.59-.18-1.29 0m.54.47c-.37.1-.89.6-1.12 1.08-.1.22-.17.6-.17 1 0 1.04.46 1.6 1.32 1.6.3 0 .44-.08.77-.43 1.22-1.27.63-3.64-.8-3.25"/></svg>