<svg xmlns="http://www.w3.org/2000/svg" width="24" height="24"><path fill="#FFF" fill-rule="evenodd" d="M20.3 7.73c0 .31-.02.33-.33.3-.52-.07-.97.36-.97.9 0 .75.39 1 1.35.9l.65-.06V7.4h-.35c-.33 0-.35.02-.35.33m-16.9.05c-.6.53-.49 1.61.2 1.97.89.46 1.93-.1 1.93-1.05q0-1.2-1.32-1.2c-.41 0-.56.05-.82.28m6.21.87V9.8h.73c.76 0 1.06-.15 1.07-.5q.01-.12.16.12c.18.34.43.48.87.48.37 0 .87-.32.87-.56 0-.17-.43-.19-.69-.02-.2.12-.51.05-.51-.12 0-.06.27-.1.66-.1h.67l-.06-.32q-.07-.38.24.3c.24.51.28.67.18.78q-.12.13-.26.1-.13-.06-.13.24c0 .25.04.3.24.3.4 0 .73-.4 1.16-1.4.22-.51.4-.96.4-1 0-.02-.14-.05-.32-.04-.27 0-.33.06-.48.45l-.17.43-.2-.43c-.16-.39-.23-.44-.5-.45-.28 0-.32.02-.27.18.06.18.04.18-.21-.02-.32-.26-.9-.29-1.21-.07-.12.08-.27.28-.34.44-.1.23-.15.27-.24.18-.1-.09-.1-.17.01-.39.1-.2.11-.32.03-.47-.16-.31-.43-.41-1.1-.41h-.6zm-3.9.3v.92l.3-.05c.29-.04.3-.06.3-.56q0-.81.36-.7c.1.05.14.24.14.65 0 .56.01.59.25.59h.33c.04 0 .1-.14.13-.32q.06-.28.08-.16c.04.51 1.05.76 1.55.37.4-.31.35-.53-.12-.45-.67.11-.75.11-.8-.02-.03-.09.14-.12.63-.12h.68l-.07-.32a1 1 0 0 0-.32-.55c-.46-.41-1.33-.24-1.54.3-.08.22-.08.22-.16.02Q7.24 8 6.74 8c-.18 0-.36.05-.4.1q-.05.09-.17.03a1 1 0 0 0-.3-.08c-.15-.02-.17.09-.17.9m9.82-.85c-.3.12-.57.7-.48 1.05.19.74 1.05 1 1.65.5.26-.22.31-.34.31-.7s-.05-.48-.3-.7a1.1 1.1 0 0 0-1.18-.15m1.62.04c-.03.07-.04.48-.02.91l.03.8h.3c.3 0 .3-.02.33-.6.02-.33.08-.63.15-.67.22-.13.37.14.37.68 0 .53 0 .54.3.54h.3v-.7c0-.57-.04-.74-.2-.9-.2-.2-.65-.26-.9-.1q-.14.08-.37 0-.24-.1-.29.04m-13.28.15a.6.6 0 0 0 .15.9c.24.13.3.13.53-.02.2-.13.26-.26.26-.52 0-.53-.59-.75-.94-.36m11.88.45c-.1.26 0 .5.22.54.27.04.47-.21.4-.48-.08-.24-.54-.28-.62-.06m3.95.02c-.17.21 0 .49.31.49.3 0 .48-.28.3-.5a.5.5 0 0 0-.3-.15c-.1 0-.23.07-.3.16m-9.5.34c0 .17.05.2.28.18q.25-.04.27-.18-.02-.14-.27-.18c-.23-.03-.28 0-.28.18"/></svg>