<svg xmlns="http://www.w3.org/2000/svg" width="24" height="24"><path fill="#FFF" fill-rule="evenodd" d="M11.9 2.91c-1.21.18-2.36.7-4.35 1.97A41 41 0 0 1 3.1 7.1c0 .1 1.82.93 2.84 1.29 1.09.39 2.5.75 3.81.98 1.57.27 5.19.24 6.88-.06 1.47-.26 3.1-.7 3.85-1.03l.51-.23-.5-.52-.49-.51-.97.58a8 8 0 0 1-1.25.66l-.28.06.16-.43c.23-.62.23-1.72 0-2.37-.37-1.1-1.74-2.17-3.16-2.5a8 8 0 0 0-2.6-.1M3.3 8.35a16 16 0 0 0 4.1 4.84c.93.69 2.19 1.31 3.25 1.62.65.18 1.04.22 2.1.22 1.14 0 1.39-.04 2.03-.26 1.93-.7 3.02-2 3.02-3.66 0-.37-.04-.73-.09-.8-.06-.1-.29-.1-1.17-.01a29 29 0 0 1-5.14 0c-2.63-.3-4.23-.78-8.3-2.49-.08-.03 0 .18.2.54"/></svg>