<svg xmlns="http://www.w3.org/2000/svg" width="24" height="24"><path fill="#FFF" fill-rule="evenodd" d="M11.24 3.09c-1 .27-1.21.37-2.95 1.38a38 38 0 0 1-5.15 2.66c-.03.03.32.23.78.45a21 21 0 0 0 9.16 2.02c2.42 0 4.53-.33 6.62-1.01 1.46-.48 1.41-.42.8-1.04L19.97 7l-.59.4a8 8 0 0 1-1.85.95c-.02-.01.04-.23.13-.47.1-.26.16-.75.16-1.22 0-.67-.04-.86-.31-1.42-.48-.97-1.26-1.6-2.6-2.07a8 8 0 0 0-3.67-.09m-7.88 5.4A14 14 0 0 0 9 14.2c2.77 1.4 6.12 1.12 7.8-.65.74-.8.95-1.3.95-2.37 0-.47-.03-.89-.06-.92s-.41-.01-.85.05c-1.22.18-4.78.15-6.09-.05a24 24 0 0 1-3.55-.81A40 40 0 0 1 3.05 7.8c-.04 0 .1.3.3.67"/></svg>