<svg xmlns="http://www.w3.org/2000/svg" width="24" height="24"><path fill="#FFFFFF" fill-rule="evenodd" d="M5.07 6.04q-1.85.51-2.04 3.22-.15 2.11 1.42 2.6 1.37.41 2.57-.35 1.26-.81 1.3-3.18V7.4h.64c.77 0 .73-.19.45 2.18-.26 2.14-.19 2.32.91 2.32h.54l.24-2.22.25-2.23.74-.03c.4-.02.78 0 .82.05.04.04-.01.78-.12 1.63-.32 2.63-.27 2.8.81 2.8.33 0 .6-.02.6-.05 0-.14.4-3.74.46-4.07l.05-.36.7-.04c.58-.02.68 0 .63.12a6 6 0 0 0-.37 2.06c0 .69.03.9.24 1.3.85 1.65 3.71 1.47 4.6-.29.42-.82.62-2.47.38-3.18a2.2 2.2 0 0 0-1.02-1.21c-.33-.18-.59-.23-1.23-.23-.71 0-.88.04-1.42.32l-.62.32V6h-1.65c-1.87 0-2.22.08-2.55.62l-.21.33.07-.48.07-.49-1.88.04-1.87.03-.34.39c-.28.32-.35.36-.4.22-.03-.09-.26-.28-.5-.42a3.4 3.4 0 0 0-2.27-.2m.28 1.48c-.37.29-.54.74-.61 1.61-.05.57-.03.8.1 1.05.25.48.83.54 1.29.14.26-.23.47-1.06.47-1.84 0-.6-.03-.72-.25-.93q-.46-.46-1-.03m12.62-.01c-.34.26-.57 1.03-.57 1.91 0 .6.03.72.25.93q.5.52 1.1-.08c.25-.25.34-.45.44-.98.15-.87.14-1.24-.04-1.58-.23-.46-.74-.55-1.18-.2"/></svg>