<svg xmlns="http://www.w3.org/2000/svg" width="24" height="24"><path fill="#FFF" fill-rule="evenodd" d="M10.65 2.09c-.11.05-.28.18-.39.3-.1.1-.32.23-.5.27-.4.08-.76.41-.76.7a1 1 0 0 1-.21.48q-.22.27-.2.7l.01 1.01c.01.33-.02.77-.05.97-.1.52.2 1.36.51 1.48.13.05.24.17.24.25 0 .09.07.3.16.47.23.45.12 1.11-.23 1.27-.14.06-.28.1-.3.07-.09-.08-1.06.34-1.28.56-.1.1-.44.34-.74.52q-.53.31-.72.66c-.27.52-.37.6-.72.6q-.78 0-.77.32c0 .17.05.2.33.14l3.17-.5 5.08-.8c2.1-.33 2.25-.35 2.48-.2.53.36 1.84.13 1.84-.31 0-.15.08-.18 1.04-.35.33-.05.61-.12.64-.15.07-.07-.07-.37-.15-.32a3 3 0 0 1-.62.1c-.45.06-.51.04-.41-.08q.1-.14.05-.25t.05-.25.05-.25.03-.23c.14-.17.09-.87-.08-1.14-.12-.18-.12-.26 0-.47.12-.24.11-.28-.09-.5q-.43-.45-1.64-.46c-.68 0-1.16.12-1.29.33-.04.06-.04.3-.01.54.04.31 0 .53-.17.88a1.4 1.4 0 0 0-.17.85c.04.34.02.4-.17.42-.36.06-.76-.12-.82-.38-.04-.14 0-.44.1-.67.09-.24.16-.52.16-.64s.06-.26.14-.32c.18-.15.33-1.38.18-1.53q-.1-.1.03-.56c.15-.58.13-1.66-.04-1.86q-.13-.15-.01-.2c.18-.12.1-.36-.11-.36-.12 0-.3-.11-.4-.25-.12-.14-.27-.25-.35-.25q-.14-.01-.2-.15c-.1-.24-.6-.45-1.06-.45-.24 0-.65-.02-.93-.04a2 2 0 0 0-.7.03m.35 1.7c0 .35-.46.74-.79.68-.4-.08-.51.18-.57 1.41A9 9 0 0 1 9.54 7c-.02.02-.2 0-.38-.06-.35-.1-.35-.1-.25.16.21.58.2.57.3.32q.19-.52.38.54.12.6.36.84c.24.24.25.24.38.07.13-.18.15-.16.36.17q.22.36.66.53c.65.24 1.12.14 1.53-.33.19-.2.37-.37.42-.36.2.05.44-.4.48-.92.03-.41.1-.58.23-.66q.19-.1.18-.37 0-.24-.06-.14a.2.2 0 0 1-.2.12c-.1 0-.13-.2-.12-1.04.01-1.06-.09-1.46-.37-1.46-.08 0-.31-.16-.51-.35-.33-.32-.4-.35-.99-.35-.34 0-.7-.03-.78-.06q-.17-.07-.16.15m5.4 1.05c-.18.2-.21.32-.16.6l.12.71c.07.42.34.48.34.08 0-.15-.05-.41-.12-.59-.1-.27-.09-.37.06-.6.24-.36.07-.51-.23-.2m-6.26.36c-.26.29-.13.35.63.32.76-.04.95-.15.66-.37-.3-.22-1.07-.2-1.3.05m2.66-.11q-.24.07-.25.27c0 .1-.04.24-.08.31-.1.16.01.6.2.74.22.19.63.19.84.01.1-.09.19-.2.19-.23 0-.12-.72-.4-.9-.36q-.19.06-.12-.15c.04-.18.11-.2.53-.16.49.05.58-.02.41-.29-.1-.16-.52-.23-.82-.14m4.17.39c-.18.2-.2.89-.04.99.15.09.26-.18.2-.48-.03-.15 0-.3.06-.33.13-.08.15-.36.03-.36q-.1.01-.25.18m-5.4.1c-.04.05-.03.22.02.38.04.16.06.35.03.43q-.05.13.1.09c.19-.06.23-.72.04-.87q-.14-.1-.2-.03M10.33 6c-.11.11-.24.17-.27.14q-.05-.05-.06.1c0 .19.5.4.86.35q.3-.02.28-.2 0-.16.06-.13c.18.11.2-.17.04-.3a.7.7 0 0 0-.91.04m.57 1c-.58.46-.78.8-.47.8.07 0 .17.1.22.22.18.41 1.25.78 1.25.43q-.01-.15-.24-.15c-.14 0-.27-.04-.3-.09-.04-.05.25-.09.64-.09.38 0 .67.05.64.1-.03.04-.14.08-.25.08s-.19.07-.19.15c0 .19.45.1.73-.13.15-.13.47-.67.47-.8 0-.08-.7-.72-.8-.72-.14 0-.12.13.03.29q.1.11.02.1a2 2 0 0 0-.48.06q-.37.08-.49-.03a.3.3 0 0 0-.24-.05q-.13.04-.14-.06 0-.1.1-.11a.1.1 0 0 0 .1-.1c0-.16-.33-.1-.6.1m4.93.07c-.06.05.15.08.5.08q.6 0 .64.13.06.12-.44.12c-.26 0-.59.03-.71.07-.22.05-.23.1-.18.52.04.25.06.6.06.76-.03 1.47.01 2.1.17 2.27.2.21 1.15.26 1.3.06s.24-.66.13-.73c-.07-.04-.09-.41-.07-.97.04-.76.08-.93.24-1.07.26-.2.35-.58.17-.65a.2.2 0 0 1-.14-.21q-.01-.18.23-.1.17.02-.12-.1c-.4-.19-1.6-.3-1.78-.18m-5.08.43c-.16.18-.17.2-.02.2q.16 0 .17.1c0 .15 1.98.1 2.12-.07.16-.2-.04-.38-.28-.25-.32.16-1.33.15-1.59-.02-.2-.14-.24-.13-.4.04m4.5 1.13a2 2 0 0 0-.05.82l.02.3.09-.35c.04-.2.1-.47.15-.62.06-.28-.12-.41-.21-.15m-3.72.2c.02.07.21.12.47.12s.45-.05.48-.12c.02-.1-.11-.13-.48-.13q-.54 0-.47.13M9.9 9.98c0 .34.08.7.18.9l.17.32.3-.2q.56-.37.9-.01c.12.15.13.2.04.27q-.12.05-.17-.04c-.06-.2-.35-.13-.67.14-.3.26-.3.26-.05.2.14-.03.38-.06.55-.06.79 0 .7-.4-.26-1.1a3 3 0 0 1-.8-.75q-.2-.6-.19.33m.77-.2c.9.77 1.22 1.01 1.25.94.02-.04.27-.27.56-.5.28-.24.52-.49.52-.54s-.1-.03-.2.07c-.13.11-.41.2-.75.23-.45.04-.63 0-1.04-.22q-.95-.5-.34.02m2.69-.03c-.04.14-.25.39-.49.55-.65.47-.87.7-.87.94q0 .26.15-.12.24-.56.71-.1c.13.11.3.18.37.15.13-.05.37-.89.37-1.32 0-.33-.17-.4-.24-.1m.6.38-.13.55-.1.42.36-.06c.47-.08.53-.15.5-.55-.03-.26-.1-.34-.32-.4q-.29-.08-.31.04m-4.89.33q-.28.14-.23.32l.12.55c.03.2.1.4.16.43s.31.03.58-.01l.49-.07-.29-.4a2 2 0 0 1-.35-.69c-.08-.33-.1-.34-.48-.13m-1.94.94c-.33.2-.7.67-.6.76.03.03.3.02.59-.03l.53-.08v-.4c0-.46-.1-.51-.52-.25m6.41.6c-.1.04-.44.1-.74.13-.4.04-.58.11-.71.29-.16.2-.18.21-.24.05-.08-.2-.41-.23-.47-.05-.03.07 0 .4.06.73.1.5.15.6.3.6q.2-.01.26-.23l.05-.24.2.21c.18.2.55.28.69.14.03-.04-.08-.21-.26-.4-.3-.3-.3-.34-.18-.6q.14-.33.17-.1c.05.21.32.22.4.01q.05-.18.17.08.12.23.46.3l.35.05-.33.02c-.35.01-.55.27-.31.42s.75.1.92-.1c.31-.34.16-.8-.27-.82-.2 0-.2 0 0-.09q.48-.2.15-.4c-.23-.12-.38-.12-.67 0m-2.7 1.12.05.72-.4-.67c-.35-.59-.42-.65-.62-.58-.17.06-.26.23-.38.77-.1.38-.13.73-.09.77.1.1.5-.1.5-.23s.26-.13.48.01q.18.12.58.02l.39-.1-.02-.49c-.04-.76-.1-.94-.35-.94-.2 0-.2.03-.15.72m-2.36-.35c-.36.06-.4.18-.3.9.07.49.11.58.3.61q.22.04.25-.2.04-.21.23-.26c.46-.08.6-.7.23-.96-.12-.09-.27-.15-.33-.14zm7.14.64a2 2 0 0 0-.56.2q-.14.1-.17 0-.02-.12-.53 0c-.28.05-.75.13-1.05.15-.78.08-.84.16-.7.97.07.37.17.67.24.67.24 0 .38-.18.32-.38-.06-.17-.02-.21.21-.24q.29-.02.28-.23c0-.16-.06-.2-.29-.17q-.27.04-.22-.07c.04-.06.16-.11.26-.11s.22-.06.27-.12q.08-.1.18.47l.1.6.5-.03c.28-.02.55-.1.6-.17q.12-.12.2-.06c.1.1 1 0 1.11-.12.04-.03.04-.14 0-.23-.05-.13-.15-.15-.44-.1l-.37.05.32-.14c.38-.17.44-.45.1-.46h-.22l.23-.1c.21-.08.3-.34.14-.42-.04-.02-.27 0-.5.04m-.72.46c0 .08-.14.14-.32.14l-.33.02.33.06c.18.03.33.1.32.14v.16c0 .05-.12.12-.26.15-.37.1-.24.18.14.1.26-.05.32-.11.32-.33 0-.26-.2-.69-.2-.44m-2.9.1c-.64.1-.7.13-.7.39v.25l-.26-.2c-.35-.28-.8-.27-1.08.02-.2.2-.26.22-.42.1-.27-.2-.6-.16-.88.1q-.58.5-.1 1.05c.32.4.74.43 1.08.09.22-.22.25-.22.54-.09.39.19.86.02 1.07-.37.13-.25.14-.25.15-.04 0 .12.04.24.1.27.16.1.4-.06.4-.28q0-.22.3-.33.31-.11.24-.28c-.05-.12-.14-.14-.37-.1q-.3.08-.23-.04c.04-.06.18-.11.32-.11.19 0 .24-.05.24-.25q0-.22-.07-.24zm-1.68.75c-.18.18-.14.46.08.53q.39.12.4-.25c0-.25-.33-.43-.48-.28m-1.04.16q-.61.06-.35.46c.1.13.2.15.47.09.31-.07.35-.11.3-.33s-.1-.25-.42-.22"/></svg>