<svg xmlns="http://www.w3.org/2000/svg" width="24" height="24"><path fill="#FFF" fill-rule="evenodd" d="M16.3 2.16c-.7.19-1.54.76-2.01 1.38-.45.6-.79 1.58-.79 2.3 0 .64.04.68.95.86a3.9 3.9 0 0 0 3.9-1.75c.6-.93.84-2.25.47-2.58-.4-.36-1.58-.46-2.52-.21M9.32 4.44a6.2 6.2 0 0 0-3.77 3.07 5.8 5.8 0 0 0 .62 6.2 5 5 0 0 0 1.94 1.64c1.14.58 1.84.66 5.23.63l2.98-.03.2-.24c.18-.24.2-.39.16-3.55l-.03-3.31-.29-.72c-.17-.43-.35-.75-.46-.78a8 8 0 0 0-1.11-.09q-1.6-.04-1.76-.64a6 6 0 0 1 .01-1.02c.07-.75.06-.8-.16-.93-.57-.36-2.5-.48-3.56-.23m.36 3.96c-.48.32-.98 1.14-.98 1.6 0 .82.6 1.68 1.37 1.94.53.18 2.13.22 2.44.06.17-.1.19-.22.19-1.23 0-.87-.05-1.21-.19-1.52a2 2 0 0 0-2.83-.85"/></svg>