<svg xmlns="http://www.w3.org/2000/svg" width="24" height="24"><path fill="#FFF" fill-rule="evenodd" d="M6.3 4.65V7.3H4.7v3.1h1.6V16h4.24c4.7 0 5.26-.05 6.4-.6a4.04 4.04 0 0 0 1.18-6.5 2 2 0 0 1-.4-.29l-.32-.28.2-.44c.3-.68.41-1.63.3-2.4a4 4 0 0 0-3.17-3.34c-.46-.12-1.34-.15-4.5-.15H6.3zm.96-1.78a34 34 0 0 0-.06 2.7V8.2H5.6l.02.67c.03.67.03.67.33.68l.77.03.48.02.02 2.78.03 2.77.77.03.78.03.02-2.82.03-2.81 2.15.01c3.23.03 4.03-.14 4.99-1.04.7-.65.95-1.27.95-2.35 0-.77-.02-.92-.32-1.52-.51-1.04-1.33-1.59-2.68-1.77a68 68 0 0 0-6.68-.04m1.56 3.3.03 1.98h2.5c2.4 0 2.52 0 2.96-.23.28-.14.58-.4.75-.64.25-.35.29-.51.29-1.07 0-.82-.26-1.3-.93-1.69l-.47-.27-2.58-.03-2.57-.03zm.9.03.03 1.12 1.93-.02c1.06 0 2.03-.05 2.16-.1.6-.22.77-1.24.32-1.77l-.24-.28-2.11-.03-2.12-.03zm6.59 3.3c-.3.22-.58.4-.64.4s.03.15.2.33c.86.88.81 2.18-.11 2.94-.62.5-.9.55-3.59.6l-2.48.05.03.67.03.66h2.55c2.8 0 3.24-.06 4.23-.58 1.9-1 2.36-3.47.94-4.95-.52-.55-.58-.55-1.16-.12M9.7 11.65v1.25h2.28c1.25 0 2.44-.05 2.64-.1.54-.15.88-.6.88-1.19 0-.27-.07-.56-.16-.7-.32-.46-.66-.51-3.24-.51H9.7z"/></svg>