<svg xmlns="http://www.w3.org/2000/svg" width="24" height="24"><path fill="#FFF" fill-rule="evenodd" d="M6.3 4.64V7.3H4.7v3.1h1.6v5.61l4.58-.04c3.84-.03 4.66-.06 5.1-.2 1.7-.5 2.78-1.54 3.16-3.02q.67-2.57-1.6-4.3c-.11-.08-.09-.22.13-.75.21-.53.26-.8.26-1.5 0-1.88-.98-3.25-2.78-3.92-.58-.21-.76-.22-4.72-.26L6.3 2zm1 .9V8.2H5.7v1.29l.78.03.77.03.03 2.78.02 2.77h1.5l.02-2.77.03-2.78 2.8-.05c3.3-.07 3.47-.1 4.36-1 .73-.73.93-1.29.87-2.49a2.6 2.6 0 0 0-.33-1.4 3.3 3.3 0 0 0-1.67-1.44c-.5-.2-.72-.22-4.05-.25L7.3 2.89zm1.57-1.28c-.04.04-.07.94-.07 2V8.2h2.44c1.55 0 2.55-.04 2.77-.11a1.9 1.9 0 0 0 1.36-2.07 1.8 1.8 0 0 0-1.04-1.53c-.46-.23-.59-.24-2.93-.27-1.35-.02-2.49 0-2.53.04M9.8 6.2v1.1l2.06-.03 2.06-.03.24-.28c.36-.42.33-1.06-.05-1.5l-.3-.32-2-.03-2.01-.03zm6.56 3.31a3 3 0 0 1-.59.36c-.18.06-.17.08.11.37.84.87.82 2.1-.04 2.86-.64.56-.92.61-3.63.61H9.8v1.4h2.44c1.34 0 2.67-.05 2.96-.1a3.9 3.9 0 0 0 2.77-1.97c.22-.46.27-.69.26-1.32q0-.76-.17-1.15c-.19-.42-1.02-1.36-1.2-1.36-.06 0-.29.14-.5.3M9.8 11.65v1.27l2.38-.04c2.55-.03 2.8-.08 3.16-.6.19-.27.2-.87.04-1.23-.25-.55-.5-.6-3.15-.63l-2.43-.03z"/></svg>