<svg xmlns="http://www.w3.org/2000/svg" width="24" height="24"><path fill="#FFF" fill-rule="evenodd" d="M10.55 2.14a7 7 0 0 0-.7 13.52c.72.26.93.28 2.15.28s1.43-.02 2.15-.28a7.1 7.1 0 0 0 4.51-4.51c.26-.72.28-.93.28-2.15s-.02-1.43-.28-2.15a7 7 0 0 0-4.51-4.5 8 8 0 0 0-3.6-.21m3.92 2.51-.18.25h-2.22c-2.04 0-2.25.02-2.54.2-.18.1-.33.24-.33.29s-.03.16-.06.25c-.1.26.26.2.48-.09l.2-.25h2.2c2.28 0 2.67-.06 2.82-.45.18-.48-.07-.6-.37-.2M8.55 6.5l-2.2.05-.03.68c-.04.88.04.97.82.97.54 0 .62.03.71.23.1.21.16.22 1.44.25q1.34.03 1.47-.09c.1-.08.14-.38.14-1.1 0-.54-.03-1-.07-1-.05-.03-1.07-.02-2.28.01m3.66.04c-.4.22-.5.54-.5 1.59l-.01.97H6.3v.35q0 .36.15.35t.15-.25c0-.23.03-.25.5-.25.4 0 .51.04.6.2q.26.54-.38.62c-.3.02-.38.07-.4.26-.05.3-.32.29-.32-.03q0-.25-.15-.25-.15-.01-.15.35v.35h5.4v1.9h1.7v-1.9h1.9c1.88 0 1.91 0 2.15-.24.32-.32.37-.69.33-2.25l-.03-1.33-.33-.29-.32-.29h-2.33c-1.73 0-2.38.04-2.56.14M6.9 7.3c0 .29.02.3.45.3s.45-.01.45-.3-.02-.3-.45-.3-.45.01-.45.3m6.57.87c-.04.03-.07.26-.07.5v.44l1.33-.03c1.3-.03 1.32-.03 1.35-.27a2 2 0 0 0-.02-.47c-.06-.24-.08-.24-1.3-.24-.67 0-1.26.03-1.3.07M8.14 9.42c-.04.07-.18.35-.3.63-.18.43-.2.5-.06.53a.3.3 0 0 0 .26-.07c.14-.14.57-.14.57-.01q.02.09.2.1c.25 0 .25.03-.06-.7q-.37-.86-.6-.48m1.07.02a.6.6 0 0 0-.1.38c.03.19.11.24.42.26.5.04.48.22-.03.22q-.42 0-.4.15c0 .12.13.15.6.15.55 0 .6-.02.66-.25.08-.33-.1-.55-.5-.56q-.43-.01.09-.08.4-.06.4-.21c0-.22-.97-.27-1.14-.06m1.4-.06q-.12.09-.1.63l.04.54h.55c.45 0 .55-.03.58-.19s0-.17-.37-.11c-.4.07-.41.07-.41-.25s0-.33.4-.26c.39.06.41.05.38-.16-.03-.2-.1-.23-.48-.26-.25-.01-.5.02-.58.06m1.22.06c-.03.07-.04.35-.02.62l.03.49h1.1l.03-.63c.03-.57.01-.63-.15-.6-.14.02-.19.14-.21.51-.03.39-.06.48-.2.45q-.18-.01-.2-.5-.02-.5-.18-.48a.2.2 0 0 0-.2.14m1.38-.06q-.13.09-.1.63l.03.54h.55c.45 0 .55-.03.58-.18s-.02-.18-.35-.15c-.35.03-.38.01-.41-.26-.04-.29-.03-.29.38-.22.39.06.41.05.38-.16-.03-.2-.1-.23-.48-.26-.25-.01-.5.02-.58.06m1.3.04c-.13.13-.16.75-.06 1.02.08.2 1.1.23 1.17.04q.06-.15.06 0c0 .06.1.12.21.12.18 0 .2-.07.2-.65 0-.5-.03-.65-.14-.65a.3.3 0 0 0-.22.1q-.06.13-.17 0c-.15-.14-.9-.13-1.05.02m.28.52c0 .32.09.37.53.3.3-.05.37-.11.37-.28s-.07-.21-.45-.24c-.42-.02-.45 0-.45.22"/></svg>