<svg xmlns="http://www.w3.org/2000/svg" width="24" height="24"><path fill="#FFF" fill-rule="evenodd" d="M10.55 2.14a7.05 7.05 0 0 0-5.2 9.01 7 7 0 1 0 8.7-8.86 9 9 0 0 0-3.5-.15m.3.6a6.38 6.38 0 0 0-.8 12.33c.68.22.97.27 1.95.27s1.27-.04 1.97-.28a6.38 6.38 0 0 0-3.12-12.32m1 1.02c-.21.21-.2.61.04.74.11.05.36.1.56.1h.36l-.4.38c-.4.38-.41.41-.4 1.03 0 .45.08.89.3 1.49.58 1.65.67 1.96.74 2.61a5.5 5.5 0 0 1-1.12 3.87c-.34.41-.35.44-.12.37.57-.16 2.48-1.17 2.93-1.54 1.06-.9 1.5-1.7 1.5-2.76 0-.6-.04-.79-.32-1.3a8 8 0 0 0-.87-1.22c-.53-.59-.55-.63-.35-.73q.42-.24-.07-.5l-.28-.14.28-.04c.15-.02.27-.07.27-.12 0-.12-.56-.23-.8-.15-.1.03-.2.02-.2-.03 0-.17.27-.33.64-.39.2-.03.36-.1.36-.14q0-.08-.1-.09c-.05 0-.08-.18-.07-.39q.02-.7-.53-.71c-.16 0-.3-.07-.34-.15-.08-.23-.47-.34-.74-.22q-.23.11-.34-.01c-.17-.17-.74-.15-.92.04M8.7 7.03c-1.98.55-2.82 2.7-1.7 4.28.24.33.38.33.2 0a3.5 3.5 0 0 1 .04-1.89C7.7 8.54 9 7.92 9.84 8.2q.94.34-.07.37c-1.84.02-2.92 1.98-1.86 3.37.12.15.14.09.14-.5s.04-.76.28-1.11c.58-.9 1.96-1.1 2.55-.4.1.13.04.14-.37.1-.64-.06-.92.02-1.3.34a1.6 1.6 0 0 0-.63 1.29c0 .34.24 1.05.35 1.05.01 0 .02-.3.02-.65 0-.6.03-.67.31-.96.4-.4 1.04-.5 1.53-.24.55.28.76.89.76 2.22 0 1.26.03 1.28.54.27.47-.93.64-1.75.58-2.74a4 4 0 0 0-.86-2.45A3.1 3.1 0 0 0 8.7 7.03"/></svg>