<svg xmlns="http://www.w3.org/2000/svg" width="24" height="24"><path fill="#FFF" fill-rule="evenodd" d="M11.05 2.06A6.8 6.8 0 0 0 7.09 4.1a6 6 0 0 0-1.32 1.8 6.7 6.7 0 0 0 0 6.2c.38.8.6 1.1 1.32 1.8a6.6 6.6 0 0 0 4.41 2.06 6.9 6.9 0 0 0 6.74-3.88q1.5-3.05 0-6.17a7.2 7.2 0 0 0-4.39-3.65c-.62-.17-2.27-.28-2.8-.2m.87 1.2a.6.6 0 0 0-.22.39c0 .33.36.55.9.55h.45l-.3.19c-.53.32-.68.58-.73 1.2s.09 1.16.73 2.98c.75 2.14.49 4.22-.72 5.7-.24.3-.43.55-.43.57 0 .07.98-.33 1.73-.7q3.1-1.55 3.25-3.76c.07-1.06-.36-2-1.49-3.2a2 2 0 0 1-.44-.57q.05-.03.05.03.02.05.2-.04c.27-.15.25-.38-.05-.52-.3-.13-.23-.28.12-.28.47 0 .13-.15-.45-.2l-.57-.05.23-.22c.16-.17.34-.23.64-.23.38 0 .4-.01.26-.17q-.15-.19-.1-.5c.06-.42-.2-.73-.6-.73q-.27 0-.38-.2c-.13-.25-.52-.35-.8-.2-.16.08-.25.08-.42-.05a.7.7 0 0 0-.86 0M8.3 6.9a3.6 3.6 0 0 0-2.14 1.98c-.24.71-.2 1.5.1 2.1s.62.95.44.48a4 4 0 0 1 0-1.87c.14-.46.77-1.03 1.47-1.35a1.9 1.9 0 0 1 1.85.05l.33.22h-.59c-.32 0-.76.05-.98.12-.51.15-1.26.82-1.5 1.33-.3.68-.2 1.6.24 2.18.12.17.14.12.1-.45-.03-.52 0-.7.2-1.08.61-1.13 2.15-1.47 2.9-.63.17.18.16.19-.46.15q-1.56-.1-1.95 1.36c-.08.3-.09.53-.01.8q.27 1 .28.1c0-.76.24-1.17.84-1.42q.89-.38 1.54.28c.43.43.57 1 .57 2.29 0 .64.04 1.02.1.95l.42-.79c.51-1 .68-1.76.63-2.95a3.2 3.2 0 0 0-.46-1.87c-.5-1-1.06-1.56-1.88-1.87a4 4 0 0 0-2.04-.1"/></svg>