<svg xmlns="http://www.w3.org/2000/svg" width="24" height="24"><path fill="#FFF" fill-rule="evenodd" d="M10.55 2.14c-.8.19-1.37.42-2.18.9A9 9 0 0 0 5.93 5.5a7.05 7.05 0 0 0 2.9 9.74A7 7 0 0 0 19 9a6.9 6.9 0 0 0-4.85-6.66 8 8 0 0 0-3.6-.2m.1.4c-3 .7-5.03 3.07-5.22 6.12a6.5 6.5 0 0 0 5.14 6.78 6.6 6.6 0 0 0 7.83-4.8 6.6 6.6 0 0 0-7.75-8.1m.5.16c-1.4.22-2.49.75-3.5 1.72a6.3 6.3 0 0 0 1.03 10.02c.65.38 1.5.72 1.59.63.07-.08.64-5.34.6-5.62 0-.12-.1-.2-.21-.2s-.21-.06-.24-.13q-.02-.1.15-.12c.31 0 .4-.13.47-.7l.06-.55-.4-.27c-.23-.16-.46-.25-.56-.21-.14.05-.14.03-.04-.14.1-.16.1-.29-.03-.66A2 2 0 0 1 10 5.46c.09-.63.07-.66-.26-.66q-.23 0-.18-.1c.04-.07.14-.09.22-.06.09.04.22.01.3-.05q.2-.15.13.26a5 5 0 0 0 0 1.7c.1.3.15.35.33.29q.28-.1.08.1c-.13.15-.12.2.06.37.18.18.23.2.42.08.27-.18.26-.23-.04-.43q-.59-.38-.53-1.37l.03-.6.53.05 1.07.12c.3.04.52.1.5.15-.04.05-.08.27-.1.49q-.1.87-.7 1.17-.56.25-.2.53c.12.1.2.1.4-.04.23-.15.24-.2.13-.33q-.18-.2.08-.1c.36.12.64-.53.69-1.6 0-.24.07-.49.13-.55q.13-.15.12 0 .02.11.2.12c.1 0 .22.05.26.11q.08.12-.2.07c-.14-.03-.26-.02-.27 0l-.05.52c-.03.24-.17.7-.33 1.01-.22.43-.26.6-.17.7q.13.14-.08.05c-.12-.04-.36.02-.63.16-.38.2-.43.27-.45.6l-.02.5q0 .12.22.1c.4-.06.72.23.72.66 0 .57-.48 1.45-.85 1.57l-.33.1c-.05.04-.42 3.36-.42 3.77v.37l.56.07a6.6 6.6 0 0 0 4.18-1.07 6.34 6.34 0 0 0-1.87-11.43 8 8 0 0 0-2.52-.16m.5.48a1 1 0 0 0-.06.3c.03.17-.55.7-.84.78q-.53.15.13.27c.94.15 1.92.2 1.92.09 0-.06-.1-.14-.2-.17-.25-.08-.73-.82-.66-1C12 3.27 11.91 3 11.8 3q-.07.02-.16.18m-1.22 1.57c.09.09 2.38.32 2.38.24 0-.03-.4-.11-.88-.18-.95-.12-1.59-.14-1.5-.06m.8.87q-.51.66-.18.81c.07.03.16.2.2.36.05.3.26.44.26.18 0-.08.09-.22.2-.31.22-.2.34-1.2.13-1.11q-.13.02-.13-.15c0-.29-.11-.24-.47.22M12.9 7.9c0 .32-.19.59-.4.59q-.18.01-.2.14 0 .13.19.1c.1-.04.21-.02.24.03.06.1-.18 2.4-.28 2.72a.5.5 0 0 1-.26.26c-.4.13-.07.21.52.13.7-.1.84-.16.51-.25-.19-.05-.22-.12-.22-.54 0-.4.03-.49.18-.49.44 0 .95-.7 1.07-1.47q.13-.76-.59-.77c-.34 0-.36-.03-.36-.33 0-.26-.04-.33-.2-.33q-.2 0-.2.2m-5.44.26c-.38.07-.77.2-.87.3-.21.2-.25.74-.07.92.17.17.63.15.78-.03.17-.2.08-.5-.15-.5q-.22-.01-.18.23c.03.25-.09.29-.26.08-.16-.2.02-.54.32-.6.62-.14.62-.14.6.34l-.14 1.45c-.1.95-.11 1.01-.41 1.28-.37.3-.29.33.54.16s.85-.19.58-.32c-.14-.07-.25-.2-.24-.3l.02-.56c.02-.35.04-.38.27-.33.55.1 1.14-.7 1.15-1.55 0-.73-.47-.87-1.94-.57m.86.23c-.08.05-.16.38-.2.84-.04.66-.03.77.1.77.26 0 .56-.47.64-.97.06-.38.04-.49-.12-.6-.2-.15-.24-.16-.42-.04m7.8.17c-.3.37-.28.55.13 1.04.37.44.43.68.23.88s-.38.14-.35-.1c.03-.3-.29-.37-.38-.08-.17.52.67.71 1.04.24.3-.38.26-.64-.15-1.17-.37-.47-.41-.8-.11-.85q.18-.04.17.18t.18.18q.16-.04.17-.28c0-.21-.05-.25-.36-.28-.3-.03-.4.02-.58.24m-2.85.12c-.03.05-.08.43-.12.86-.06.64-.04.78.06.74.41-.13.76-1.21.5-1.53-.14-.16-.36-.2-.44-.07m-1.9.85c-.13.91-.12 1.22.03 1.22.19 0 .48-.5.56-.96.05-.27.02-.4-.1-.52q-.4-.42-.5.26m3.49-.32c-.47.23-.83 1.44-.56 1.85.24.37.86.39 1.18.03.24-.27.1-.34-.25-.13-.25.15-.32.15-.45.05-.24-.2-.2-.48.08-.55.14-.03.39-.18.56-.32.26-.22.3-.33.28-.63-.03-.32-.06-.36-.33-.38-.16-.01-.4.03-.51.08m.13.26c-.23.26-.38.71-.27.78.15.1.72-.52.68-.72-.04-.24-.22-.26-.4-.06m-5.4.23c-.59.46-.76 1.43-.33 1.85.13.14.3.25.4.25.23 0 .63-.21.7-.38.09-.23-.03-.27-.23-.09-.23.21-.36.21-.56.01-.24-.24-.2-.32.3-.55.54-.26.82-.7.65-1.05-.13-.3-.58-.32-.93-.04m.23.19c-.2.2-.38.67-.28.77s.57-.29.63-.53c.1-.36-.1-.5-.35-.24m5.64 2.1c-.06.03-.11.16-.12.29-.02.12-.12.4-.22.62-.15.32-.16.4-.05.4q.13-.01.14-.25c0-.2.05-.25.26-.25s.25.04.21.2q-.07.21.15.2.21 0 .14-.16l-.17-.6c-.12-.47-.2-.57-.34-.46m-2.7.28c-.07.02-.1.18-.07.34s0 .43-.06.6c-.1.28-.1.3.16.3q.28 0 .15-.1c-.12-.13-.06-.88.1-1.07.1-.13-.05-.17-.29-.07m.63.2q-.16.06-.17.15.02.09.2-.01c.34-.18.34-.06 0 .54l-.32.56h.41c.23 0 .41-.04.41-.09s-.12-.06-.26-.03l-.26.05.29-.54.31-.61c.04-.08-.31-.09-.6-.01m-1.69.05-.06.63c-.02.33-.09.67-.13.76-.07.13-.05.15.14.12.18-.04.22-.1.18-.34q-.05-.3.11-.29c.2 0 .47-.38.47-.67 0-.2-.05-.23-.35-.23-.2 0-.35.01-.36.03m2.64.77-.32.7.32-.06c.49-.09.57-.12.57-.26q0-.15-.12 0a.5.5 0 0 1-.3.12c-.14 0-.12-.08.13-.53.32-.58.34-.67.17-.67-.07 0-.27.32-.45.7"/></svg>