<svg xmlns="http://www.w3.org/2000/svg" width="24" height="24"><path fill="#FFF" fill-rule="evenodd" d="M3.78 8.75c-.03 1.75-.01 1.95.13 1.95s.16-.08.12-.44l-.05-.44.7-.04c.65-.03.75-.07 1.07-.38.58-.56.65-1.28.2-1.97-.24-.36-.9-.63-1.57-.63H3.8zm2.82-.4c0 1.17.03 1.55.13 1.55.09 0 .12-.38.12-1.55S6.82 6.8 6.73 6.8c-.1 0-.13.38-.13 1.55m1.34-1.3A1.5 1.5 0 0 0 7.2 8.4c0 .74.45 1.3 1.23 1.5.5.14 1.33-.03 1.48-.31q.2-.36-.28.01c-.6.46-1.62.14-2.01-.63-.4-.76-.11-1.62.64-1.93.45-.19.73-.18 1.17.05.34.17.38.18.35.03-.07-.38-1.25-.43-1.84-.07m3.11-.12c-1.43.67-1.15 2.68.41 3.01.42.1 1.22-.12 1.35-.35q.09-.2 0-.19-.1 0-.11.09c0 .17-.6.34-1.06.28q-.73-.07-1.11-.81c-.22-.43-.13-1.29.17-1.6.45-.49 1.38-.59 1.81-.2.23.21.39.1.17-.12s-1.25-.28-1.63-.1m2.8 0c-.7.3-1.14 1.16-.95 1.87.3 1.13 1.85 1.56 2.66.75.8-.8.61-2.06-.38-2.55-.5-.24-.9-.26-1.34-.07m2.51 1.4v1.54l.55.04c.3.02.6 0 .64-.04.06-.04-.14-.08-.42-.08h-.53l.02-1.47c0-1.17-.02-1.49-.12-1.5-.11-.03-.14.26-.14 1.51m2.3-1.4a1.8 1.8 0 0 0-.98 1.82c.18 1.12 1.87 1.62 2.7.8.35-.36.57-1.03.48-1.45a1.64 1.64 0 0 0-2.2-1.17M4.05 7C4.02 7 4 7.64 4 8.38v1.34l.6-.04c.54-.04.65-.09.97-.4.63-.63.52-1.67-.22-2.1-.29-.16-1.2-.3-1.3-.2m9.5.34c-.32.29-.38.42-.42.85-.1 1 .46 1.63 1.44 1.63.44 0 .58-.05.84-.28.27-.24.33-.37.37-.84.08-.96-.42-1.58-1.32-1.66-.5-.04-.56-.02-.91.3m4.8 0c-.32.29-.38.42-.42.85-.1.96.5 1.63 1.46 1.63.42 0 .56-.05.82-.28.27-.24.33-.37.37-.84.08-.96-.42-1.58-1.32-1.66-.5-.04-.56-.02-.91.3m-9.97 2.86h8.4c2.3-.02.39-.03-4.23-.03s-6.5.01-4.17.03m-3.97.6c0 .2.03.3.06.2q.09-.33.33-.03.13.13.22.15.1-.01-.01-.14-.13-.14-.01-.21c.17-.1-.08-.35-.36-.35-.21 0-.24.04-.23.38m.89-.03c0 .33.02.35.33.34q.34-.02.1-.06-.21-.04-.23-.13.02-.08.23-.13l.22-.04-.22-.02q-.21-.01-.23-.1.02-.1.23-.14.24-.05-.1-.06c-.31 0-.33 0-.33.34m.97-.27a1 1 0 0 0-.03.32c0 .2.06.25.31.25.36 0 .42-.28.08-.33q-.21-.04-.23-.13c0-.06.1-.07.21-.04q.22.08.15-.04c-.08-.12-.42-.15-.5-.03m1.77-.02c-.07.03-.13.16-.13.3 0 .31.44.44.68.2.3-.29-.14-.67-.55-.5m2.1.08c-.1.27.02.51.26.54q.5.07.32-.41c-.11-.3-.48-.37-.57-.13m1.02.08c-.22.31-.22.55 0 .37.12-.1.2-.1.35 0 .23.14.24.09.04-.3-.19-.35-.2-.35-.4-.07m.75.12c0 .2.04.36.1.36q.09-.02.1-.15 0-.3.3 0c.16.15.18.14.16-.17-.01-.3-.05-.33-.34-.36s-.32-.02-.32.32m3 .01c0 .33.02.35.33.34q.34-.02.1-.06-.21-.04-.23-.13.02-.08.23-.13l.22-.04-.22-.02q-.21-.01-.23-.1.02-.1.23-.14.24-.05-.1-.06c-.31 0-.33 0-.33.34m.91.02c0 .2.03.3.06.2q.1-.32.44-.01c.15.14.17.13.15-.18-.01-.3-.05-.33-.34-.36-.31-.03-.32-.02-.3.35m.97-.3-.03.3q-.02.23.06.29.07.03.08-.1c0-.2.14-.2.3-.01.15.18.34.2.23.03a1 1 0 0 1-.08-.33q.01-.2-.28-.23-.24-.03-.28.05m.98.28c-.1.2-.12.35-.07.35a.1.1 0 0 0 .1-.1c0-.14.38-.12.43.03q.04.1.1.06c.08-.06-.24-.69-.34-.69-.03 0-.13.16-.22.35m.88-.25c-.1.15.04.3.26.3q.17.01.19.11 0 .11-.28.04t-.16.05c.15.15.46.1.52-.08q.02-.12-.17-.19-.2-.06-.21-.15c0-.05.1-.06.21-.03q.22.08.15-.04c-.09-.14-.43-.14-.51-.01m.9 0c-.08.14.03.3.2.3q.14.01.15.11-.02.1-.21.06-.23-.06-.11.04c.13.14.44.08.5-.1.02-.06-.05-.15-.17-.18q-.2-.06-.21-.15c0-.05.1-.06.21-.03q.23.08.15-.04c-.09-.14-.43-.14-.51-.01m.85.25c0 .33.02.35.33.34q.44-.01.05-.06-.26-.05-.28-.14.02-.09.28-.1l.27-.01-.3-.08c-.3-.07-.28-.1.15-.23q.1-.05-.17-.06c-.31 0-.33.01-.33.34"/></svg>