<svg xmlns="http://www.w3.org/2000/svg" width="24" height="24"><path fill="#FFF" fill-rule="evenodd" d="M9.9 3.75c-.9.16-1.7.4-1.92.57-.14.12-.1.28.45 1.75.63 1.64.81 2 .92 1.72.03-.08-.22-.83-.55-1.68a20 20 0 0 1-.58-1.56 9.5 9.5 0 0 1 3.97-.61c.92.05 2.62.43 2.81.62.06.06-.19.76-.6 1.77-.65 1.52-.74 1.87-.5 1.87.13 0 1.64-3.7 1.54-3.8a8 8 0 0 0-2.24-.66c-1.03-.17-2.3-.16-3.3.01m1.15.67c-.5.27-.6.8-.22 1.16.33.31.8.29 1.06-.04.34-.43.24-.86-.26-1.12-.26-.14-.32-.14-.58 0m0 .34c-.3.3-.12.74.3.74.43 0 .6-.44.27-.73-.23-.21-.36-.21-.56-.01m1.95.33c-.37.37-.22.95.3 1.13.27.1.78-.19.85-.47.15-.62-.7-1.1-1.15-.66m.16.18c-.13.12-.07.52.1.61.37.21.72-.12.53-.49-.1-.18-.5-.26-.63-.12m-3.77.21c-.26.21-.3.66-.07.9.23.22.68.18.89-.08.24-.3.23-.46-.07-.75-.29-.3-.45-.31-.75-.07m.12.3c-.13.25-.04.42.24.42.29 0 .41-.24.24-.45-.17-.2-.37-.19-.48.03m2.38.47c-.07.08-.1.25-.06.39.1.44.76.38.76-.07 0-.43-.44-.63-.7-.32m8.5 1.4c-.18.22 0 .5.31.5.2 0 .24-.05.24-.3 0-.23-.05-.3-.2-.33a.4.4 0 0 0-.35.13M3 9.6v1.6h.25c.2 0 .25-.05.25-.27s.09-.33.39-.5c1-.57.88-1.7-.26-2.27C3 7.84 3 7.83 3 9.6m5.89-1.4c-.21.16-.24.28-.27 1.1l-.04.9h-.3c-.3 0-.3 0-.13.2.1.11.25.2.34.2q.18 0 .16.28c0 .22.05.28.28.3.24.03.27 0 .27-.27 0-.26.04-.31.25-.31s.25.05.25.3.04.3.25.3h.25V9.8c0-1.27-.02-1.42-.2-1.6-.26-.26-.8-.26-1.11 0M11 9.6v1.6h.3c.27 0 .3-.03.3-.3 0-.22.07-.33.3-.45q.69-.37.7-1.09t-.85-1.15C11 7.8 11 7.79 11 9.6m1.9-.5v1.1h-.3c-.16 0-.3.04-.3.08 0 .14.23.32.42.32q.19-.02.18.3c0 .27.03.3.3.3s.3-.03.3-.3c0-.23.05-.3.2-.3q.2-.01.22.28c.02.21.09.28.3.3.26.03.28.01.28-.37 0-.3-.06-.44-.22-.55q-.2-.15-.12-.16c.15 0 .34-.45.34-.78 0-.42-.34-.87-.82-1.1-.77-.38-.78-.37-.78.88m3.2-.93c-.19.13-.2.25-.2 1.59v1.44h.5V9.85c0-1.28.01-1.35.2-1.35s.2.07.2 1.35v1.35h.6V9.85c0-1.28.01-1.35.2-1.35s.2.07.2 1.36v1.35l.27-.03c.25-.03.28-.07.28-.4 0-.21.03-.38.07-.38q.08 0 .08.1.02.09.18.1c.1 0 .25.14.34.3.17.3.2.3.75.28.44-.02.58-.07.58-.18q.01-.15-.43-.18c-.23-.02-.42-.07-.42-.12s.2-.1.43-.12q.44-.02.42-.18.01-.15-.43-.18l-.42-.03V8.5l.43-.03q.44-.03.42-.18c0-.12-.14-.15-.7-.15h-.7l-.03 1.03c-.03 1.01-.03 1.02-.27 1.02s-.25-.01-.25-.85c0-.77-.03-.88-.23-1.1-.2-.2-.33-.22-1.05-.22q-.81 0-1.02.14M4.7 9.65v1.55h.5V8.1h-.5zm.8-1.35c0 .16.07.2.35.2q.36 0 .35.15c0 .08-.18.65-.4 1.26-.22.62-.4 1.16-.4 1.2s.65.09 1.45.09c1.38 0 1.45 0 1.45-.2 0-.17-.07-.2-.4-.2-.22 0-.4-.04-.4-.08s.18-.62.4-1.27.4-1.23.4-1.27-.63-.08-1.4-.08c-1.33 0-1.4.01-1.4.2m9.3 1.34v1.56h.6l-.02-1.52-.03-1.53-.27-.03-.28-.03zM6.48 9.6c-.21.6-.38 1.11-.38 1.15s.17.06.38.06h.39l.36-1.08c.2-.6.37-1.11.37-1.15s-.17-.07-.37-.07h-.38zm2.72-.24c0 .84 0 .86.23.83.2-.03.22-.08.22-.83s-.01-.8-.22-.83c-.22-.03-.23 0-.23.83m-5.7.06c0 .67.01.7.18.58.27-.22.32-.32.32-.65 0-.27-.25-.64-.43-.64-.04 0-.07.32-.07.71m8.1-.01c0 .72 0 .73.2.55q.2-.18.2-.55t-.2-.55c-.2-.18-.2-.17-.2.55m1.9 0c0 .72 0 .73.2.55q.2-.18.2-.55t-.2-.55c-.2-.18-.2-.17-.2.55M3 11.75c0 .13.99.15 8.65.13 5.68-.02 8.65-.06 8.65-.13s-2.97-.1-8.65-.13c-7.66-.02-8.65 0-8.65.13m0 1.64c0 .83.03 1.01.15 1.01q.15.02.15-.4c0-.36.02-.39.32-.42q.33-.03.36-.2c.03-.15-.04-.18-.33-.18-.32 0-.36-.03-.33-.22.02-.18.11-.24.4-.28.57-.07.46-.25-.17-.28L3 12.39zm1.42-.02c.02.8.06.98.18.98q.15 0 .15-.32c0-.43.18-.42.45.02q.31.5.53.29c.03-.03-.04-.2-.16-.36-.2-.27-.2-.3-.05-.39.25-.14.33-.65.14-.94-.14-.22-.24-.25-.72-.25H4.4zm2.11-.8-.35.93a8 8 0 0 0-.28.82c0 .19.31.06.42-.17.09-.2.18-.25.49-.25s.38.04.43.26q.06.25.23.22c.2-.04.21-.02-.18-1.08-.25-.68-.38-.9-.52-.9q-.16.02-.24.18m1.37.81c0 .83.03 1.01.15 1.01s.15-.14.15-.67v-.68l.4.68c.58.96.7.9.7-.33 0-.8-.03-1-.15-1-.1 0-.15.16-.17.62l-.03.63-.35-.6c-.2-.33-.44-.61-.53-.63-.15-.03-.17.08-.17.97m2.18-.88c-.23.13-.48.61-.48.93 0 .14.14.41.31.6.25.3.38.36.68.36.46 0 .87-.26.71-.45-.1-.11-.15-.11-.37 0-.61.32-1.21-.43-.8-1 .14-.19.55-.23.95-.1.25.08.31-.12.1-.33-.15-.15-.86-.15-1.1-.01m1.54.87c.02.78.06.97.18.97q.15 0 .18-.37c.03-.37.04-.38.43-.38s.39 0 .39.4q0 .42.15.4c.12 0 .15-.18.15-1s-.03-1-.15-1q-.15-.02-.15.4v.4H12v-.4c0-.34-.03-.4-.2-.4-.2 0-.2.05-.18.97m1.9 0c.02.8.06.98.18.98s.16-.19.18-.97c.03-.93.02-.98-.18-.98s-.2.05-.18.97m.85-.79c-.36.4-.12.8.56.97q.26.08.27.25c0 .32-.52.36-.64.04-.07-.18-.36-.18-.36 0 0 .24.41.56.72.56.3 0 .68-.3.68-.56q0-.47-.6-.64-.38-.1-.4-.26c0-.22.28-.28.49-.1.24.22.41.2.41-.04 0-.4-.83-.55-1.13-.22m1.53.82c0 .91.02 1.01.17.98s.18-.16.18-.98-.02-.95-.18-.98c-.15-.03-.17.07-.17.98m.75-.87a5 5 0 0 0-.03.98c.02.7.06.84.2.87s.17-.07.2-.6l.03-.63.38.63c.56.9.67.84.67-.38 0-.8-.03-1-.15-1-.1 0-.15.16-.17.62l-.03.63-.35-.6c-.36-.6-.65-.8-.75-.52m2.12.07c-.5.4-.45 1.3.09 1.65.27.18.77.2 1.06.04.22-.12.52-.74.43-.9-.04-.05-.26-.09-.51-.09-.38 0-.45.03-.42.18q.05.16.26.2c.3.04.28.2-.03.32-.35.13-.73-.03-.8-.35-.16-.62.28-1.1.8-.87.18.08.26.08.35-.03.3-.35-.8-.48-1.23-.15m-13.98.13-.03.3c-.02.25.01.28.29.25.5-.05.44-.57-.07-.58q-.16 0-.19.03"/></svg>