<svg xmlns="http://www.w3.org/2000/svg" width="24" height="24"><path fill="#FFF" fill-rule="evenodd" d="M19.1 3.77c-.53.25-1.6.39-1.6.2q0-.06-.1-.07c-.04 0-1.54.94-3.32 2.08-2.58 1.66-3.33 2.1-3.68 2.15-.51.07-1.15.49-1.48.97-.14.21-.66.62-1.29 1.02-1.13.72-1.3.75-1.65.27-.4-.54-.32-1.37.22-2.22.48-.76 1.46-1.1 1.9-.67.11.11.2.33.2.5 0 .28.14.48.23.33.03-.05.08-.3.12-.59l.06-.5-.55-.13c-.64-.14-1-.09-1.67.25-1.58.8-2 2.9-.7 3.56l.33.16-.54.36-.53.36h.63c.61 0 .66-.02 1.77-.74.95-.63 1.16-.72 1.26-.6.16.2.58.17.97-.06.4-.24.4-.24.38-.03q0 .18.2.21c.26.04.94-.29 1.15-.54q.2-.22-.06-.11c-.73.22-.68.23-.6-.14.23-1.02.09-.9 3.36-3.01l3.04-1.97.2.24c.24.3 1.09 1.96 1.41 2.78.15.37.21.7.17.87-.04.22 0 .37.2.6.32.37.45.89.26 1.01-.25.16-.5.1-.59-.15a1 1 0 0 0-.18-.3c-.17-.1-.42.05-.42.25 0 .3.43.52.95.47l.44-.03.1.48c.06.26.11.55.11.62q0 .15.3.15c.35 0 .36-.05.16-.97a3 3 0 0 1-.08-.88.7.7 0 0 0-.14-.53c-.23-.33-.48-1.01-.4-1.1.04-.03.2.04.36.16.3.22.6.2.6-.03q0-.31-.69-.37c-.43-.03-.43-.03-.67-.66-.24-.65-1-2.22-1.36-2.8l-.2-.33.33.06c.27.05.47 0 .94-.26.36-.19.9-.37 1.35-.44l.75-.13h-.7c-.55 0-.82.05-1.25.25m.12.68c-.3.14-.65.25-.79.25q-.23 0-.2.13c.07.23.45.18.93-.12.29-.19.61-.31.82-.31q.3 0 .27-.1-.17-.25-1.03.15m-15.3.15c-.42.1-.92.57-.92.86 0 .23.28.6.38.5.03-.04 0-.17-.07-.3-.1-.18-.1-.29-.02-.45.16-.29.47-.45.54-.27.08.2-.25 1.16-.4 1.16a.2.2 0 0 0-.18.1q-.04.1.5.1c.3 0 .55-.04.55-.1q-.02-.09-.2-.1-.18 0-.2-.07 0-.3.75-.54c.52-.16.56-.16.5 0-.04.09-.1.3-.12.49-.05.27-.03.32.14.32.2 0 .43-.17.43-.32q-.02-.06-.15-.02c-.13.05-.13.01 0-.36q.26-.7-.16-.55-.2.06-.19-.08c0-.32-.6-.5-1.18-.37m.2.17c.21.05.2.04.08.37-.08.22-.07.26.08.26.23 0 .42-.19.42-.4q-.02-.3-.53-.29-.25 0-.04.06m2 .3c-.19.07-.16.43.03.43q.13 0 .09-.1-.04-.09.14-.1.2 0 .21.03c0 .02-.22.2-.5.41-.27.21-.5.41-.5.45 0 .12 1.12.12 1.26 0 .16-.13.19-.39.04-.39q-.09.02-.1.15c0 .16-.23.19-.53.07-.15-.06-.1-.14.33-.46.27-.2.5-.41.5-.45 0-.07-.78-.1-.97-.04m1.5 0c-.19.07-.16.43.03.43q.13 0 .09-.1-.04-.09.14-.1.2 0 .21.03c0 .02-.22.2-.5.41-.27.21-.5.41-.5.45 0 .12 1.12.12 1.26 0 .16-.13.19-.39.04-.39q-.09.02-.1.15c0 .16-.23.19-.53.07-.15-.06-.1-.14.33-.46.27-.2.5-.41.5-.45 0-.07-.78-.1-.97-.04m1.56.08c-.29.15-.53.63-.47.92.05.27.5.28.79.03.2-.19.21-.2.04-.15-.49.17-.63-.01-.2-.25.4-.22.54-.48.35-.6s-.2-.12-.51.05m1.05-.05a1 1 0 0 0-.3.21q-.08.13.1.06c.2-.08.2-.1.02.41q-.14.41-.05.48c.13.08.2 0 .44-.5.16-.33.25-.41.48-.41q.3-.02.21.15c-.03.08-.08.3-.11.48-.05.27-.03.32.14.32.1 0 .25-.06.31-.12q.14-.15.2 0c.1.14.89.14 1.2 0 .25-.13.3-.33.06-.24-.17.07-.17-.06.02-.73.06-.2.04-.23-.1-.18-.1.04-.26.07-.35.07-.18 0-.5.26-.83.68-.28.35-.4.26-.22-.18.1-.23.13-.44.1-.48-.11-.1-.75-.12-.82 0q-.05.08-.17 0c-.07-.06-.21-.06-.33-.02m1.9.45c-.09.14-.13.32-.1.42.06.15.08.15.25-.03.1-.1.22-.3.26-.41.1-.32-.2-.3-.4.02m3.52 1c-.74.26-.92.54-1.42 2.18-.47 1.59-.49 1.87-.07 1.87.3 0 1.22-.53 1.22-.7 0-.15-.08-.13-.46.1-.19.12-.38.2-.43.18-.07-.03.4-1.83.78-2.9.12-.38.13-.38.67-.38.4 0 .56-.04.6-.16.13-.33-.28-.41-.9-.2m-2.3 1.7c-.45.35-.46.36-.4.11.05-.22.03-.25-.22-.25-.38 0-1.2.49-1.05.63q.1.11.3-.08c.12-.1.24-.15.27-.12s-.06.47-.2.97-.26.94-.26.98.12.07.27.07c.23-.02.29-.09.48-.68.25-.78.6-1.18 1.21-1.42q.46-.17.42-.33-.1-.43-.82.13m3.09.04c-1.23.76-1.3 2.31-.1 2.31 1.17 0 2.17-1.44 1.55-2.22-.18-.23-.3-.28-.68-.28-.28 0-.59.07-.77.19m.24.16c-.43.23-.7 1.1-.46 1.55.3.57 1 .18 1.13-.62.13-.76-.18-1.18-.67-.93M9.68 9.62q-.82.5-.19.48.29 0 .55-.3.7-.86-.36-.18m-4.75 3.71c.04.1.07.36.07.57v.39l.6-.01c.68 0 .8-.12.61-.54-.12-.26-.4-.3-.49-.06q-.04.12.15.05.17-.05-.09.15-.59.5-.58-.12c0-.2-.07-.4-.17-.47q-.2-.19-.1.04m12.36-.09a1.4 1.4 0 0 0 0 .53c.05.4.1.49.28.51.29.04.48-.3.33-.58q-.11-.18-.22-.2-.11-.01-.22-.16-.1-.13-.17-.1m-1.04.16q.05.1-.1.1c-.16 0-.3.41-.21.65.03.08.17.15.3.15.24 0 .26-.03.26-.5 0-.39-.04-.5-.16-.5q-.13 0-.09.1m-9.5.55c0 .25.04.48.08.5.09.1.57-.37.57-.55 0-.22-.2-.4-.46-.4-.2 0-.21.05-.2.45m1.13-.38c-.13.12-.07.22.1.16.16-.06.16-.05 0 .17-.24.34-.21.4.13.4.17 0 .3-.04.3-.1q-.01-.09-.16-.1c-.15 0-.15-.02 0-.25.09-.13.16-.27.16-.3 0-.07-.45-.06-.53.02m.63.09q0 .13.1.09.09-.05.1.04a.2.2 0 0 1-.1.16c-.2.12-.1.35.15.35.26 0 .34-.15.13-.23-.1-.04-.1-.07 0-.18.2-.21.14-.39-.13-.39q-.25 0-.25.16m.65-.07q-.04.1.17.12h.23l-.23.11c-.3.15-.24.42.11.46.27.03.28.02.25-.35-.02-.3-.07-.39-.25-.41-.11-.02-.24.02-.28.07m1.05.1c-.13.25.02.61.25.61q.13 0 .15.1t.1.1c.06 0 .1-.21.11-.47.02-.45.02-.46.08-.13.05.3.1.35.36.35.27 0 .3-.03.3-.32 0-.4-.19-.49-.23-.1-.02.15-.07.27-.12.27s-.1-.12-.12-.27c-.03-.24-.08-.28-.4-.31-.29-.02-.4.01-.48.17m1.5.01c-.13.24.02.6.25.6.2 0 .29-.2.08-.2q-.22 0 .05-.1c.25-.1.28-.2.1-.38q-.29-.27-.48.08m1.62-.08c-.28.28 0 .78.35.63.16-.07.15-.09-.07-.15l-.25-.07.25-.04q.24-.04.4.15.17.2.36.1.28-.08-.03-.11-.23-.04-.23-.25-.01-.22.2-.15c.23.06.27-.1.05-.2-.09-.03-.24.02-.34.11-.16.15-.2.15-.24.01-.08-.18-.28-.2-.45-.03m1.38.03c-.28.34.16.84.47.53.14-.14.15-.22.05-.43q-.21-.43-.52-.1m.64.02c.03.08.06.26.06.4q0 .21.1.18c.06-.03.1-.17.1-.3q0-.24.16-.25.13 0 .1-.09c-.03-.05-.17-.08-.31-.08q-.28 0-.2.14m1.3-.08q-.04.1.17.12h.23l-.23.11c-.3.15-.24.42.11.46.27.03.28.02.25-.35-.02-.3-.07-.39-.25-.41-.11-.02-.24.02-.28.07m1.52-.03c-.13.14-.07.23.1.17q.18-.06-.06.14c-.28.23-.21.43.15.43.23 0 .25-.03.22-.37-.03-.36-.23-.54-.41-.37m.6 0q-.19.22.16.43l.22.12-.23-.05q-.23-.04-.2.07c.06.17.38.21.52.07.08-.09.05-.16-.14-.32l-.25-.2.24.07q.25.08.19-.06c-.05-.15-.4-.24-.5-.13"/></svg>