<svg xmlns="http://www.w3.org/2000/svg" width="24" height="24"><path fill="#FFF" fill-rule="evenodd" d="M12.48 2.1c-1.41.25-2.42.8-2.8 1.52-.2.37-.23.57-.22 1.44s.05 1.1.28 1.59c.34.74.33 1.03-.05 1.7-.17.3-.26.55-.2.55.07 0 .4-.19.74-.42l.62-.42 1.95-.01c1.57 0 2.05-.04 2.48-.18 1.18-.4 1.57-1.15 1.5-2.86-.05-1.07-.22-1.53-.8-2.08-.75-.72-2.22-1.07-3.5-.83M7.2 11.2v1.9H8v-1.5h.35c.4 0 .7-.25.81-.65.11-.45-.02-1.14-.27-1.4-.2-.22-.31-.25-.96-.25H7.2zm2.3 0v1.9h.7V9.3h-.7zm1.17-1.84c-.04.04-.07.2-.07.36 0 .26.03.28.4.28.22 0 .4.02.4.04s-.2.57-.46 1.2a5 5 0 0 0-.42 1.5l.03.31.88.03.88.03-.03-.33c-.03-.32-.05-.33-.5-.36l-.45-.03.49-1.16c.35-.82.48-1.27.46-1.52l-.03-.36-.75-.03c-.42-.01-.8 0-.83.04m1.93.29c0 .34 0 .35.4.35.22 0 .4.02.4.04l-.45 1.16a6 6 0 0 0-.45 1.51v.39h1.81l-.03-.32c-.03-.32-.04-.33-.5-.33-.27 0-.48 0-.48-.02l.5-1.2c.36-.83.5-1.27.48-1.53l-.03-.35-.82-.03-.83-.03zm2.36-.27c-.03.04-.12.78-.2 1.63-.1.85-.19 1.66-.22 1.82-.05.25-.03.27.3.27.3 0 .34-.03.4-.35q.06-.36.26-.35c.14 0 .2.1.26.35.06.32.1.35.4.35q.32 0 .34-.12c0-.07-.1-.92-.23-1.88l-.22-1.75-.52-.03c-.28-.02-.54 0-.57.06m1.35.05c-.17.2-.03.49.23.45q.22-.02.21-.28c0-.28-.26-.38-.44-.17M8 10.4c0 .3.04.41.16.41s.14-.09.12-.37C8.24 9.91 8 9.87 8 10.4m-.8 4.41V16h.44c.27 0 .5-.06.6-.16.19-.18.21-.75.04-.92-.1-.1-.1-.15 0-.24.18-.18.14-.73-.06-.91-.11-.1-.36-.17-.6-.17H7.2zm1.57-1.12c-.03.04-.08.39-.11.77l-.13 1.13c-.05.4-.04.42.2.42q.28.01.27-.2.02-.18.15-.2.13.02.15.2-.01.21.26.2c.23 0 .25-.03.2-.27a35 35 0 0 1-.26-2.05c0-.1-.67-.1-.73 0M10 14.8V16h.25c.23 0 .25-.04.26-.42l.01-.43.1.43c.08.38.12.42.4.42.24 0 .28-.03.23-.19q-.26-.85-.08-1.56c.17-.66.17-.65-.16-.65-.27 0-.29.03-.37.53l-.08.52-.04-.53c-.03-.48-.05-.52-.28-.52H10zm1.5 0V16h.5c.43 0 .5-.03.5-.2 0-.16-.07-.2-.3-.2-.27 0-.3-.03-.3-.3 0-.23.04-.3.2-.3.28 0 .27-.4 0-.47-.32-.09-.22-.47.13-.51q.28-.02.27-.23c0-.16-.07-.19-.5-.19h-.5zm1.2 0V16h.25c.23 0 .25-.04.25-.47q0-.51.1-.33c.05.08.1.3.1.48 0 .27.04.32.25.32.22 0 .24-.03.2-.3l-.1-.6c-.02-.16 0-.32.05-.35.16-.1.12-.82-.06-1-.1-.09-.33-.15-.6-.15h-.44zm1.4 0V16h.5c.44 0 .51-.03.48-.17q-.04-.18-.3-.21c-.23-.03-.28-.08-.28-.31q0-.29.2-.34c.26-.07.23-.43-.03-.4q-.17.01-.17-.27c0-.24.05-.3.28-.32q.25-.04.27-.18.02-.15-.47-.18l-.48-.03zm1.2.01c0 1.13.01 1.2.2 1.2.16 0 .2-.07.21-.37l.02-.38.1.38c.09.31.15.37.39.37h.28v-1.2c0-1.2 0-1.21-.22-1.18-.2.03-.23.08-.21.52.02.56-.12.46-.22-.16-.06-.32-.1-.38-.3-.38h-.25z"/></svg>