<svg xmlns="http://www.w3.org/2000/svg" width="24" height="24"><path fill="#FFF" fill-rule="evenodd" d="M13.02 2.23c-.12.13-.23.38-.25.57-.04.5-.62.94-1.3.96-.5.02-.53.04-.63.34q-.24.72-1.03.44c-.38-.13-.5-.13-.95 0-.7.2-1.26.74-1.26 1.2 0 .4.56 1.97.75 2.12.12.09.15.5.17 2l.03 1.89.4.09c.44.1.85.1 2.55 0 1.08-.05 1.17-.04 1.34.15s.17.21.03.21q-.16.01-.17.2c0 .17.07.2.47.2h.47l-.47.48c-.28.28-.47.57-.47.7 0 .22.03.23.83.2.74-.03.82-.05.82-.23s-.08-.2-.5-.25l-.48-.05.45-.37c.66-.54.74-.51.7.27-.03.6-.02.65.17.65q.21 0 .21-.2c0-.17.07-.2.5-.2.44 0 .5.03.5.2q-.01.22.21.18c.18-.03.21-.1.23-.58.02-.5-.01-.58-.3-.87-.18-.18-.4-.33-.48-.33-.14 0-.14-.03-.04-.2q.13-.2.44-.2h.3l.07-1.43c.11-2.72-.03-3.71-.69-4.67-.34-.5-.34-.5-.14-.7.28-.28.34-.63.17-.96a1 1 0 0 1-.1-.62c.07-.47-.27-.82-.79-.82-.2 0-.38-.04-.38-.1 0-.05-.09-.19-.2-.3-.29-.29-.9-.27-1.18.03M11.9 3.87c-.2.06-.47.1-.61.07-.24-.05-.27-.01-.33.3-.15.78.33.97 1.15.46.49-.3.49-.3.5-.07 0 .12.12.37.28.55.24.28.3.3.4.18s.19-.12.43-.04c.26.1.33.08.44-.07s.1-.23-.1-.53c-.31-.5-.64-.72-1.27-.86-.43-.1-.61-.1-.89 0m-1.47.9q-.13.06-.04.22c.05.1.23.56.4 1.04l.3.88-.44.3c-.5.34-.62.62-.46 1.03.1.24.13.26.36.17.15-.06.4-.1.56-.1s.37-.04.47-.1l.45-.2c.33-.12.27-.3-.09-.3-.27 0-.32-.2-.09-.4.16-.13.21-.45.07-.36-.05.03-.18-.01-.3-.1-.17-.12-.2-.22-.16-.56.03-.23.07-.45.1-.5q.03-.07-.06-.13c-.05-.03-.1-.15-.1-.26q-.01-.19-.25-.3c-.14-.04-.28-.16-.31-.24q-.08-.23-.41-.08m3.83.63c-.2.51-.2.92 0 1.33.25.5.45.67.74.67.15 0 .44.11.65.25.2.15.4.24.42.21.1-.1-.17-1.08-.44-1.62-.25-.5-.91-1.24-1.12-1.24-.05 0-.16.18-.25.4m-1.09.9c-.1.75-.6 1.17-.86.73q-.11-.2-.1-.04c0 .08-.1.25-.23.38l-.21.23h.52c1.07 0 1.52-.5 1.17-1.33-.08-.2-.17-.37-.2-.37-.01 0-.06.18-.09.4m-1.3.16c-.4.21-.24.37.31.3.43-.07.72-.2.72-.35 0-.13-.76-.1-1.03.05m-2.94 1.4c-.1.04-.13.4-.13 1.26 0 1.37.06 1.4.62.4.17-.28.36-.56.44-.6.13-.07.13-.13 0-.44-.22-.52-.58-.76-.93-.61m3.2 2.61-.31.17.44.5.44.5-.22-.42c-.2-.37-.21-.45-.1-.64.18-.28.13-.3-.25-.1m-.88.61c-.38.38-.38.4-.15.4.19 0 .3-.1.42-.37.1-.2.16-.38.15-.4-.02-.01-.2.15-.42.37m-2.75 2c0 .82.02.9.2.9q.2.02.22-.32c.03-.31.05-.33.48-.36.25-.02.53-.1.62-.19.16-.14.17-.11.2.33.03.42.06.5.26.52s.22.01.22-.87c0-.84-.02-.91-.2-.91-.1 0-.23.07-.28.16-.08.14-.1.14-.21 0-.1-.12-.32-.16-.82-.16H8.5zm2.37-.83a.3.3 0 0 0-.07.2q-.02.14.52.13h.52l-.53.54c-.73.73-.67.86.39.86.79 0 .8 0 .8-.25 0-.23-.04-.25-.47-.25h-.48l.47-.43q.46-.42.48-.65c0-.2-.04-.22-.78-.22-.43 0-.82.03-.85.07m-1.9.4q-.25.25.36.21c.23-.02.42-.07.42-.13 0-.12-.67-.2-.78-.09m6.15.1c-.37.26-.28.44.22.44q.78 0 .4-.4c-.2-.24-.33-.25-.62-.04M8.5 15.05v.85h.75c.87 0 .93-.06.9-.89-.02-.68-.17-.81-1.02-.81H8.5zm2.4-.78c-.43.17-.6.46-.6 1.05 0 .51.02.58.2.58q.18-.01.2-.15c0-.11.12-.15.5-.15s.5.04.5.15q.02.14.2.15c.18 0 .2-.07.2-.54 0-.43-.05-.6-.22-.8-.23-.26-.7-.4-.98-.3m1.4.79v.85h.69q.67 0 .8-.13c.05-.07.1-.37.1-.67 0-.76-.15-.9-.96-.9h-.63zm1.77-.78c-.12.11-.08.78.05.91.07.07.32.12.56.12q.44 0 .4.13c-.03.07-.22.12-.46.12q-.76.02-.38.3c.3.22.71.18 1.05-.1.29-.25.31-.32.31-.9s-.02-.65-.2-.65c-.17 0-.2.07-.2.4v.41l-.37-.03c-.36-.03-.38-.05-.41-.4s-.18-.49-.35-.31m1.9 0c-.04.03-.07.23-.07.44s-.04.4-.08.43c-.15.1-.08.68.1.8.25.15.48-.09.46-.5 0-.19-.05-.34-.1-.34s-.08-.16-.07-.35c.03-.34-.1-.62-.24-.48m-7.07.48c0 .11.12.15.45.15s.45-.04.45-.15-.12-.15-.45-.15-.45.04-.45.15m1.97-.04a.4.4 0 0 0-.17.3c0 .16.07.19.5.19q.8 0 .34-.44-.28-.27-.66-.05m1.82.04q-.02.15.4.15t.4-.15q.02-.15-.4-.15t-.4.15m-3.8.7c0 .13.1.15.42.13.6-.04.63-.28.04-.28-.35 0-.46.04-.46.16m3.8-.01q-.02.15.4.15t.4-.15q.02-.15-.4-.15t-.4.15"/></svg>