<svg xmlns="http://www.w3.org/2000/svg" width="24" height="24"><path fill="#FFF" fill-rule="evenodd" d="M5.78 4.87c-.16.04-.18.17-.18.99 0 .77.03.94.15.94q.14-.01.15-.08c0-.05.25-.34.55-.66.3-.3.55-.6.55-.64 0-.3-.8-.66-1.22-.55m-1.36.44c-.56.28-.62.45-.26.75.38.31.27.3-.16 0q-.34-.28-.46-.15C3.44 6 3 7.1 3 7.3c0 .03.21.04.48.02.26-.03.58 0 .72.06.2.08.13.1-.42.1-.38 0-.68.04-.68.08 0 .18.37 1.05.5 1.18s.25.06.88-.51c.4-.36.7-.7.67-.74q-.03-.1.1-.23c.11-.12.15-.38.15-1a6 6 0 0 0-.06-1.01q-.13-.33-.92.05m11.96.34c-.03.03-1.31.07-2.84.08-2.57.02-2.79.03-2.82.2q-.02.16.12.17c.14 0 .16.17.16 1.14 0 1.07-.01 1.14-.21 1.2q-.2.04-.17.18c.04.1.42.13 1.64.15 2.75.03 5.39.02 5.44-.03l.15-.37c.08-.26.16-.33.4-.35.4-.04.7.24.42.4-.09.04-.14.15-.1.23.04.11.23.15.74.15.62 0 .69-.02.69-.2q-.01-.18-.13-.2c-.12 0-.35-.48-1.05-2.17q-.41-.95-.58-.46c-.25.84-.96 2.41-1.02 2.25-.07-.21-.4-.14-.44.1q-.04.21-.14.21l-.53-.04a1 1 0 0 1-.41-.06c0-.07.55-.89.7-1.04.32-.32.82-1.19.78-1.36q-.02-.19-.38-.21c-.2-.02-.38 0-.42.03M8.1 5.9q.01.18.14.2c.21 0 .26.23.26 1.2 0 .79-.02.91-.2 1.02-.32.2-.25.46.13.5.67.06 1.37-.03 1.37-.19q-.02-.14-.2-.2c-.16-.04-.2-.14-.2-.47s.03-.38.1-.26q.12.17.17.03a.2.2 0 0 1 .18-.13c.08 0 .33-.18.55-.4.35-.32.4-.44.38-.7-.05-.53-.36-.67-1.6-.74-1.03-.06-1.08-.05-1.08.14m-1.76.63c-.38.4-.7.8-.7.9A6 6 0 0 0 7.02 8.9c.11 0 .56-.82.6-1.1.03-.26.08-.24-1-.31-.71-.05-.47-.19.33-.19h.75l-.07-.32a2 2 0 0 0-.43-.95l-.17-.22zm8.07-.16-.46.61c-.12.15-.35.5-.52.79-.3.5-.3.52-.11.58.1.04.38.04.6 0 .3-.05.39-.11.39-.26q0-.18.2-.19.18.01.2.1c0 .2.18 0 .8-.9l.61-.9h-.45c-.34 0-.46.04-.46.15q-.01.15-.26.15-.26 0-.21-.13c.12-.33-.1-.32-.33 0m-2.51-.1-.07 1.14c-.06.83-.05.96.08.94l.22-.04c.11-.01.82-1 1.18-1.63l.32-.57-.44.02q-.44.03-.46.2c-.02.08-.09.18-.16.2-.14.05-.38-.06-.37-.17.03-.2 0-.26-.14-.26q-.13.01-.16.18m-2.6.42c0 .56 0 .55.35.38.3-.13.33-.47.07-.71-.32-.29-.42-.2-.42.33M4.53 8.35l-.7.75.26.18c.35.24.78.42 1 .42.17 0 .2-.1.23-.97.02-.54.02-1.01-.02-1.05-.03-.04-.37.26-.77.67m.97.35c0 .88 0 .9.24.9.26 0 .92-.25 1-.38.06-.1-1-1.42-1.14-1.42-.06 0-.1.38-.1.9m4 1.33-.43 1.02c-.2.44-.4.97-.48 1.17-.1.32-.18.38-.51.43q-.38.06-.53-.05c-.32-.26-.45-1.38-.24-1.98.18-.51.89-.52.89 0q0 .18.2.18c.19 0 .2-.05.18-.43l-.03-.42-.6-.03c-.63-.03-1.2.11-1.1.27q.02.1-.13.22-.23.2-.03-.04.12-.16.03-.17c-.06 0-.2.16-.32.36-.3.48-.23 1.28.17 1.92.24.39.36.48.73.57q.45.1 1.05.02c.86-.12.88-.13.74-.38-.17-.32.09-.54.55-.45.38.07.42.15.25.48-.06.11-.07.24-.02.28.12.13.72.2.78.1.03-.05.4-.08.82-.05s.85 0 .95-.06c.24-.13.23-.39-.02-.39-.16 0-.2-.07-.2-.33 0-.31.03-.34.49-.46q.96-.24.96-1.02c0-.21.03-.39.07-.39.16 0 .09 1.8-.09 2.17-.14.3-.14.36-.02.44.17.12 3.48.07 3.67-.05.1-.06.1-.12-.02-.32-.16-.24-.23-1.16-.08-.98.05.05.21.4.37.76.15.37.33.69.39.71s.33.01.6-.03.68-.05.92-.02c.68.07 1.1-.05 1.35-.4.2-.26.2-.34.1-.68a2.6 2.6 0 0 0-1.17-1.22c-.33-.15-.27-.42.1-.46.22-.03.34.03.47.2.17.21.2.22.35.06.13-.12.14-.22.07-.44-.09-.27-.1-.27-.79-.25-.63.02-.72.04-.96.32-.49.52-.32 1.11.42 1.49.5.25.75.6.57.77-.07.07-.27.15-.44.19-.29.06-.34.03-.43-.2-.1-.3-.13-.3-.4-.16-.17.1-.23.05-.42-.34l-.22-.46.2-.22c.46-.5.38-1.05-.18-1.34-.27-.14-.47-.15-1.18-.09-.47.04-1.03.06-1.25.04a7 7 0 0 0-2.13.08q-.06.1-.97.02c-1.4-.12-1.65-.11-1.65.06 0 .08.1.2.2.25.2.1.2.2.18 1.18-.03.89-.06 1.07-.18 1.04q-.16-.02.05.14l.2.16-.2-.04q-.2-.03-.21-.28c-.01-.14-.18-.61-.38-1.05s-.36-.86-.36-.93c0-.24-.3-.72-.45-.72q-.15.02-.25.22m5.42.35c-.2.04-.23.1-.2.41s.06.36.23.34c.11-.02.22-.08.23-.13q.05-.08.23-.09c.16 0 .19.07.19.5 0 .5-.16.75-.32.46-.05-.09-.2-.16-.35-.16-.25 0-.25.02-.2.5.02.27 0 .47-.04.44q-.08-.04-.09.06.02.1.18.06l.44-.11c.14-.04.28-.15.31-.26.06-.21.37-.25.55-.07.1.1.12-.12.12-.95 0-.88-.03-1.07-.15-1.07q-.13.02-.15.19c0 .1-.07.22-.16.25-.23.09-.24.08-.24-.19 0-.26-.07-.28-.58-.18m-2.62.26c0 .12-.03.32-.06.44-.1.34.24.43.48.14.23-.3.23-.36-.02-.61q-.4-.39-.4.03m4.7.22q0 .35.14.35c.21 0 .48-.3.42-.47l-.06-.19q-.02-.04-.25-.04c-.22 0-.25.04-.25.35"/></svg>