<svg xmlns="http://www.w3.org/2000/svg" width="24" height="24"><path fill="#FFF" fill-rule="evenodd" d="M9.64 2.2q-1.28.43-2.7 1.84C5.47 5.5 4.83 6.84 4.92 8.2c.09 1.19.35 1.58 2.52 3.77 2.24 2.24 2.18 2.21 3.3 1.52a4.7 4.7 0 0 1 2.51-.84c1.09-.01 1.54.25 3.34 1.93A8 8 0 0 0 18.3 16c.25 0 .7-.42.7-.66 0-.1-.71-.9-1.59-1.78-1.38-1.4-1.6-1.68-1.76-2.15-.36-1.1-.09-2.3.83-3.75.18-.28.32-.62.32-.77 0-.38-.5-.98-2.26-2.7-1.81-1.76-2.35-2.09-3.52-2.15a3 3 0 0 0-1.38.16m-.08.91a5.2 5.2 0 0 0-2.93 2.15A5 5 0 0 0 6 7.7c0 4.1 4.84 6.18 7.86 3.39a4.73 4.73 0 0 0 .03-6.77 4.9 4.9 0 0 0-4.33-1.2m.04.75a3.96 3.96 0 0 0-2.13 6.19 3.7 3.7 0 0 0 3.18 1.57 3.8 3.8 0 0 0 3.59-2.32c.28-.59.31-.74.3-1.6 0-1.3-.25-1.93-1.08-2.75a3.8 3.8 0 0 0-3.86-1.1m.95.89c-.14.13-.25.31-.25.4 0 .2.44.65.63.65.25 0 .67-.4.67-.65 0-.24-.42-.65-.67-.65-.08 0-.25.11-.38.25m1.95.87c-.1.12-.2.3-.2.4 0 .23.43.68.65.68.2 0 .65-.44.65-.65s-.45-.65-.7-.65c-.1 0-.28.1-.4.22m-4.2.34a1 1 0 0 0-.2.4c0 .2.45.64.65.64.22 0 .65-.45.65-.68S9 5.7 8.73 5.7c-.12 0-.3.12-.42.26M10.1 7.2c-.28.28-.25.64.06.9.33.25.45.25.74.02.27-.22.3-.65.05-.92-.23-.26-.6-.25-.85 0m1.9 0c-.28.28-.25.64.06.9.33.25.45.25.74.02.43-.35.15-1.12-.41-1.12-.1 0-.28.09-.39.2m-4.55.85c-.14.13-.25.31-.25.4 0 .18.43.65.6.65s.53-.2.62-.34c.15-.22.07-.55-.18-.75-.34-.27-.5-.26-.8.04m1.68.5c-.57.4 0 1.36.61 1.03.29-.15.37-.27.37-.6 0-.28-.31-.58-.6-.58a1 1 0 0 0-.38.16m3.24.46c-.32.46-.06.98.49.98.57 0 .85-.6.45-1-.27-.27-.75-.26-.94.02m-1.96.91c-.2.1-.25.2-.25.52s.05.42.28.55.3.13.55 0c.7-.4.14-1.43-.58-1.07"/></svg>