<svg xmlns="http://www.w3.org/2000/svg" width="24" height="24"><path fill="#FFF" fill-rule="evenodd" d="M5.6 4.54c-.95.28-1.92.91-2.19 1.44a3.4 3.4 0 0 0-.36 1.74c.12.55.6 1.51.9 1.82q.56.52 1.46.76l.44.11v.72c0 .6.05.82.3 1.32.47.94.82 1.06 2.9.98.33-.02 1.14-.01 1.8 0 .9.03 1.3 0 1.59-.1.33-.14.42-.14.6-.03.16.11.93.15 3.53.17l3.32.02.43-.32c.72-.55.86-1.13.47-1.93-.16-.33-.18-.47-.1-.63.24-.44-.01-1.34-.4-1.46-.16-.06-.19-.12-.14-.36a.7.7 0 0 0-.08-.52c-.08-.13-.38-.8-.68-1.52a9 9 0 0 0-.7-1.47c-.21-.2-.88-.25-1.06-.07q-.11.12-.4.02c-.17-.06-1.33-.08-2.88-.05l-4.44.06-1.85.01-.37-.4c-.34-.37-.4-.39-1-.41a4 4 0 0 0-1.1.1m13.98.64c-.03.04 0 .17.04.3.07.18.16.22.48.22.22 0 .42-.04.45-.1.1-.14-.06-.42-.2-.36q-.12.03-.2-.04c-.06-.12-.5-.13-.57-.02m-14.3.13c-.1.06-.28.2-.38.3-.18.18-.18.2.18.56.2.21.3.29.2.17-.22-.27-.21-.33.02-.31.15 0 .19.08.16.33q-.03.33.16.5c.18.17.19.15.19-.6 0-.42-.04-.76-.1-.76q-.08-.02-.04-.15c.07-.18-.12-.2-.4-.04m3.5.65q-.17.13-.08.14.11.01.12.15t.1.15.06.1q-.04.07.06.13.15.06 0 .06c-.19.01-.14.21.06.21q.16 0 .07.08c-.05.04-.1.32-.12.62l-.02.63c0 .04-.13.13-.29.2-.25.11-.24.12.32.15.64.03.86-.01.86-.19q-.01-.1-.25-.05c-.25.06-.35-.07-.15-.2a.2.2 0 0 0 .1-.17c-.05-.35.01-.47.23-.47.33 0 1.07-.66 1.07-.95 0-.31-.25-.55-.5-.48a.4.4 0 0 1-.35-.07c-.08-.07-.25-.1-.4-.06a1 1 0 0 1-.47-.03q-.25-.1-.43.05m2.97-.05c-.51.07-.83.19-.5.19.14 0 .17.15.17 1 0 .77-.03 1.05-.14 1.17-.17.17-.2.33-.05.33q.1-.01.1-.14c0-.22.2-.3.33-.13.1.12.57.16 2.67.2 1.53.04 2.47.03 2.35-.03a3 3 0 0 0-.84-.03l-.65.06.21-.29c.11-.16.33-.51.48-.79.15-.27.32-.54.39-.6.24-.21.66-.77.66-.88 0-.12-.8-.13-1.67 0-.34.04-.43.1-.43.24q0 .17.1.19.1-.01.1-.15c0-.12.13-.15.7-.14.71.02.82.07.55.29q-.12.12-.1.21.05.08-.07.07t-.13.12c0 .08-.09.19-.2.23-.16.07-.17.1-.05.17q.2.11-.02.1c-.1 0-.23.1-.3.23-.1.2-.1.2.05.08q.16-.11.17-.03c0 .05-.07.15-.15.22q-.13.12-.15.05t-.15.05a.4.4 0 0 0-.1.34q.04.18 0 .08-.06-.1-.16-.06-.08.04-.09-.05-.02-.1-.15-.11T14.5 8t-.11-.1q-.1.01-.05.26l.07.26-.68-.07c-.37-.04-.7-.09-.7-.1a9 9 0 0 1 1.02-1.65c.53-.7.46-.8-.65-.8-.75 0-.8.01-.8.21q-.02.26.15.1c.2-.17 1.45-.28 1.45-.13 0 .06-.11.24-.26.39l-.25.28.06-.25q.1-.37-.1.03c-.09.15-.2.27-.26.27q-.09.01-.04.1.04.11-.14.28a1 1 0 0 0-.26.4c-.02.14-.16.39-.3.57-.2.26-.3.32-.57.31l-.33-.02.03-.63c.07-1.2.15-1.55.4-1.67q.48-.25-.46-.13m6.25.21c-.1.13-.15.29-.12.36.06.17-.16.85-.5 1.5-.18.37-.2.49-.1.49.08 0 .2-.16.26-.34.1-.31.14-.34.46-.31.4.03.68.33.44.47-.27.17 0 .32.54.3.39-.02.52-.06.48-.15q-.07-.13-.22-.19-.17-.05-.18-.33c0-.15-.16-.61-.36-1.03s-.37-.81-.37-.88q-.01-.25-.33.11m-13.66.14q-.1.24-.01.2.09-.05.1.1-.01.14-.12.11c-.07-.02-.19.03-.26.12q-.14.22-.07-.14.09-.4-.05-.06c-.13.3-.07.36.36.32.4-.03.46.16.07.22q-.37.04.07.05c.2.01.5-.02.68-.07q.3-.09.27 0-.05.08.1.09c.21 0 .07-.25-.37-.66-.61-.56-.64-.57-.77-.28m4.79 0q0 .13.17.07.19-.09.1.15-.04.2.03.22c.05 0 .07.16.04.36-.04.35-.03.36.23.3q.61-.15.58-.66c-.03-.43-.09-.47-.82-.54q-.33-.03-.33.1m-2.33.41c-.5.49-.5.68 0 .37.65-.42.73-.5.6-.68-.1-.15-.17-.11-.6.31m11.25.26c-.33.42-.14.9.27.67q.19-.1.2-.23 0-.13-.06 0-.05.12-.14.13-.09-.01 0-.2.21-.37 0-.24-.13.08-.06-.1c.07-.19-.06-.22-.2-.03M4.34 7.5c-.24.04-.3.11-.33.33s0 .27.2.26q.25-.01.06-.06c-.27-.07-.21-.21.07-.2.28.02.3.09.14.39-.17.31 0 .35.27.05.14-.15.29-.27.34-.27s.18-.13.29-.28l.2-.29h-.47c-.26 0-.6.03-.77.07m2 .01c-.08.11.1.19.32.15q.19-.04.2.1 0 .1-.09.08-.07-.04-.08.05c0 .12.83.1.92-.04q.07-.07.14-.03c.03.04-.03.24-.16.45-.21.37-.21.38 0 .17.11-.1.23-.38.27-.6.06-.36.05-.38-.1-.25q-.18.15-.17.01 0-.12-.24-.06c-.14.03-.28.02-.31-.04-.07-.11-.64-.1-.7.01m-.85.5q0 .17-.1.14-.09-.06-.03.11t-.04.11-.02.4c.04.27.05.51.02.56q-.02.06.16.07.2-.01.21-.1t-.1-.05q-.09.04-.1-.04.01-.1.11-.11t.07-.4c-.02-.2 0-.36.05-.33.04.02.06-.1.05-.26-.03-.34-.28-.43-.28-.1m.6.04q.01.13.1.15c.05 0 .1.1.1.2 0 .22.26.55.44.55q.1.01.09.13-.01.1.12.06c.17-.07.2-.24.05-.24a.1.1 0 0 1-.1-.1c0-.17-.33-.5-.43-.43q-.09.04-.03-.06c.04-.06 0-.18-.08-.26q-.27-.29-.26 0"/></svg>