<svg xmlns="http://www.w3.org/2000/svg" width="24" height="24"><path fill="#FFF" fill-rule="evenodd" d="M12.1 5.37a7 7 0 0 0-1.98.8A4.4 4.4 0 0 0 8.24 8.9c-.06.37-.04.41.14.41.15 0 .22-.1.32-.47.51-2.07 2.79-3.42 5.08-3.03.4.06.7.16.66.2-.03.06-.13.1-.22.1-.1 0-.25.07-.35.15-.16.12-.23.11-.5-.06-.33-.2-.67-.25-.67-.1 0 .04.12.14.28.21.26.14.26.14-.33.2-.5.05-1.05.22-1.05.34 0 .02.32.01.7-.02l.7-.05-.4.4c-.23.23-.4.5-.4.63 0 .2.03.2.4-.14q.7-.64 1.1-.5a2 2 0 0 1 .54.44c.2.22.39.4.42.4.11 0-.07-.54-.27-.82l-.2-.28h.38c.21 0 .57.05.8.1q.45.08.4-.03c-.05-.16-.67-.35-1.14-.36-.24 0-.43-.03-.43-.06s.11-.16.25-.3l.26-.25.51.26c.28.14.75.5 1.05.8.5.5.54.52.64.32.25-.47-1.6-1.73-2.9-1.98a7 7 0 0 0-1.91-.03m5.78.8a7 7 0 0 0-1.07 2.2c-.34.95-.76 1.5-1.05 1.4-.2-.08-.2-.37 0-.37.3 0 .74-.56.74-.93q0-.67-.57-.5c-.35.12-.68.6-.87 1.27-.09.29-.25.6-.36.7-.2.19-.2.19-.2-.06 0-.14.07-.47.15-.74.13-.43.13-.5-.02-.66-.12-.14-.25-.17-.52-.12-.65.1-.68.12-.63.42.04.28-.32 1.37-.5 1.48s-.18-.02-.03-.52l.15-.52q-.02-.03-.22 0t-.35.42c-.16.48-.43.8-.55.68-.1-.1.14-.77.38-1.04.09-.1.29-.2.45-.23.27-.06.28-.07.13-.3-.24-.37-.64-.16-1.31.69-.72.92-.72.9-.79.83-.04-.03.06-.27.2-.52.26-.43.26-.48.12-.64s-.23-.16-.78-.06c-.59.1-.63.13-.69.43-.07.37-.54 1.12-.7 1.12-.05 0 .01-.17.14-.37l.3-.48c.03-.06 0-.19-.08-.29-.13-.17-.2-.17-.82-.06-.68.12-.69.13-.7.44 0 .33-.5 1.46-.65 1.46-.22 0-.18-.35.11-.96.17-.37.3-.7.27-.72s-.16-.02-.3.02c-.17.04-.3.22-.5.68-.34.72-.38 1.3-.13 1.55.38.39 1.03-.22 1.48-1.4.16-.41.27-.57.4-.57.25 0 .24.01-.11.58-.36.6-.37.66-.05.58.35-.09.32.02-.18.65q-1.29 1.66-.3 1.77c.66.07 1.55-1.14 1.56-2.12 0-.4.09-.63.37-1.1q.55-.9.75-.74c.03.03-.08.28-.24.56-.39.62-.4.74-.04.66.23-.06.26-.05.17.07l-.57.74q-1.08 1.42-.32 1.6c.73.2 1.84-1.3 1.72-2.31-.06-.56.04-.66.18-.17.13.47.44.56.72.2.18-.24.21-.24.36-.1q.15.15.41.1c.29-.08.53-.48.8-1.37.1-.3.22-.6.27-.64.18-.2.2.05.05.5-.22.65-.2 1.1.03 1.24.26.13.63-.01.84-.34.17-.26.17-.26.37-.06.34.34.78.2 1.22-.36.24-.32.27-.33.33-.15.06.2.4.37.65.32a1 1 0 0 0 .38-.24c.17-.16.25-.18.34-.09.2.2.63.14.92-.13.25-.23.27-.23.55-.08.24.14.33.15.6.04q.57-.23.06-.35c-.21-.05-.25-.12-.25-.47 0-.23.1-.6.25-.89.3-.6.3-.6.02-.6-.18 0-.3.17-.67.86-.5.94-.7 1.17-.97 1.12-.3-.06-.26-.36.1-.68.44-.38.9-1.28.85-1.66-.02-.15-.1-.32-.2-.38-.33-.2-.76.42-1.32 1.94a3 3 0 0 1-.4.75c-.25.3-.26.3-.41.1-.22-.28-.2-.36.31-1 .75-.98 1.12-1.82.93-2.16-.14-.27-.41-.23-.71.09M5.3 6.09c-.74.23-1.6.9-1.9 1.52-.24.46-.26 1.12-.05 1.29.13.1.15.09.15-.12 0-.3.55-1.18.95-1.5.8-.67 1.96-.9 2.46-.5.48.4.15 1.65-.65 2.41-.2.2-.36.33-.36.3l.44-1.25c.24-.65.43-1.2.4-1.23-.16-.16-.91 1.1-1.44 2.41-.23.57-.24.57-.79.69-.53.1-.54.12-.3.25.13.07.32.13.42.14q.16 0 .17.06c0 .22-1.1 2.14-1.42 2.47l-.38.43c0 .02.15 0 .33-.03.8-.14 1.19-.6 1.88-2.2.3-.68.44-.9.75-1.1a4 4 0 0 0 1.8-2.42c.1-.6-.24-1.24-.8-1.5a2.6 2.6 0 0 0-1.66-.12m15.12.43c-.18.18-.15.48.06.48.23 0 .42-.19.42-.42 0-.2-.3-.24-.48-.06m-2.72.69c-.17.38-.3.73-.27.75.06.06.5-.67.66-1.1.13-.33.13-.36.02-.36-.04 0-.23.32-.4.7m2.73 1.24c-.1.26.04.48.28.44q.24-.02.23-.28.01-.26-.23-.28-.2-.02-.28.12m-13.02.48c-.2.2-.15.48.08.48.18 0 .4-.26.4-.5 0-.14-.33-.13-.48.02m10.1 1.35c-.07.03-.26.34-.41.68a4.4 4.4 0 0 1-2.92 2.41 5.3 5.3 0 0 1-2.96-.18c-.54-.22-.64-.24-.75-.11-.14.18-.06.24.72.55.77.3 2.35.37 3.16.13a4.7 4.7 0 0 0 3.23-2.87c.14-.44.12-.67-.07-.6m-7.31 1.48q-.72.94-.43.94c.26 0 1.14-1.4.99-1.57-.03-.02-.28.26-.56.63m-1.64.06c-.32.44-.6.98-.53 1.06.11.1.56-.41.72-.85q.3-.84-.19-.21"/></svg>