<svg xmlns="http://www.w3.org/2000/svg" width="24" height="24"><path fill="#FFF" fill-rule="evenodd" d="M5.1 8.2v1.6h.6V6.6h-.6zM3.07 6.77A9 9 0 0 0 3 8.32V9.8h.3c.3 0 .3 0 .3-.54v-.53l.39-.07c.5-.08.89-.4.96-.79.09-.44-.08-.83-.44-1.02-.3-.15-1.32-.21-1.44-.08M12 8.24V9.8h.9c.77 0 .9-.02.9-.17s.01-.15.18 0c.24.22 1.76.23 1.68 0a5 5 0 0 1-.06-.9c0-.65-.03-.77-.25-.98-.42-.43-1.57-.28-1.4.17.06.14.15.16.5.12q.41-.06.5.05c.06.11 0 .15-.48.25-.37.09-.67.4-.67.71 0 .24-.03.25-.6.25h-.6l-.02-1.28-.03-1.27-.28-.03-.27-.03zm-8.4-.53c0 .5 0 .51.27.44.16-.04.34-.11.4-.17.3-.25.02-.78-.43-.78-.22 0-.24.04-.24.51m2.58-.14c-.1.02-.18.14-.18.27q.01.46.26.25c.17-.14.66-.08.72.09q.03.12-.28.12c-.4 0-.9.47-.9.84 0 .48.3.65 1.13.65h.75l-.05-.87c-.06-1.11-.22-1.36-.84-1.39-.24 0-.52.01-.61.04m1.74.2c.03.25.07.27.46.26.23 0 .42.02.42.04s-.22.34-.5.69-.5.73-.5.84c0 .19.06.2.95.2.82 0 .95-.02.95-.17s.01-.15.18 0c.24.22 1.76.23 1.68 0a5 5 0 0 1-.06-.9c0-.65-.03-.77-.25-.98-.41-.42-1.57-.28-1.4.17.05.12.18.16.52.15q.45-.01.5.1.04.13-.22.13c-.54 0-.95.34-.95.8 0 .17-.07.2-.5.2-.27 0-.5-.03-.5-.08 0-.04.23-.36.5-.71.73-.94.7-1.01-.4-1.01h-.91zm7.88.9V9.8h.6v-.7c0-.79.11-1.1.4-1.1.25 0 .3.19.3 1.06v.74h.6l.02-.81c.02-.66.06-.84.21-.93q.46-.27.47 1v.74h.6v-.74q0-1.25-.4-1.46a1.1 1.1 0 0 0-.91 0q-.2.12-.32.02a2 2 0 0 0-.84-.1h-.73zm3.57-1.04q-.16.13-.1.35c.04.19.09.2.25.12.24-.13.7-.08.76.09q.03.11-.23.12c-.33 0-.8.24-.89.45-.12.31-.06.72.12.88.14.13.35.16.92.14l.73-.02-.02-.79c-.03-.9-.12-1.2-.4-1.35-.27-.15-.93-.14-1.14.01M6.51 8.9c-.21.14-.05.43.21.4.3-.05.4-.5.11-.49a1 1 0 0 0-.32.1m3.86-.03c-.04.03-.07.15-.07.25 0 .3.54.2.58-.1q.06-.24-.2-.22c-.14 0-.28.03-.31.07m4.1 0c-.04.03-.07.15-.07.25q0 .18.24.18.35-.02.36-.4c0-.11-.43-.13-.53-.03m5.3 0c-.04.03-.07.15-.07.25q0 .18.24.18.34-.02.36-.4c0-.11-.43-.13-.53-.03m-7.61 1.31c-.03.05-.08.28-.12.51l-.07.43.36-.03c.2-.02.39 0 .42.03.09.08.38-.02.47-.16.13-.18.09-.54-.06-.6-.18-.06-.56.2-.56.4 0 .08-.09.14-.19.14-.16 0-.18-.05-.14-.4q.07-.58-.11-.32m1.96.04q-.27.29.08.48c.25.13.18.3-.1.23q-.18-.03-.2.05c0 .14.34.2.54.1.22-.13.2-.34-.06-.52q-.34-.23.14-.17c.22.03.24-.15.02-.23s-.28-.08-.42.06m3.32 0c-.02.08-.14.14-.25.15-.26.02-.25.01-.34.4-.08.39.11.46.2.09.04-.14.14-.27.22-.3q.17-.09.09.2-.12.46.39.37.32-.09.35-.6c0-.25-.19-.12-.25.17-.04.17-.1.3-.16.3-.12 0-.12-.37 0-.44s.02-.46-.1-.46q-.1.01-.15.13m2.66-.04c0 .05-.1.13-.2.16-.47.15-.43.87.03.78.2-.04.26-.13.3-.41.1-.51.09-.62-.03-.62q-.09 0-.1.1m-4.41.17c-.24.06-.41 1.03-.19 1.03q.1-.01.1-.16 0-.13.09-.1c.04.03.16 0 .26-.08.16-.11.21-.11.32 0 .14.13.43.09.43-.07q-.02-.07-.15-.03t-.15-.04q.02-.09.2-.15t.2-.2c0-.24-.29-.28-.5-.07q-.2.21-.2.06c0-.16-.18-.24-.41-.19m2.68.05c-.2.1-.23.64-.05.7.17.07.38-.01.38-.14q-.02-.1-.15-.04-.13.04-.15-.03.02-.09.2-.14c.22-.06.27-.32.07-.4-.07-.03-.2 0-.3.05m.72-.05c-.16.04-.29.3-.29.6 0 .23.18.14.24-.12q.07-.23.15-.25.07.02.03.25c-.05.31.13.33.22.03q.2-.65-.35-.5m1.51 0q-.3.1-.3.49c0 .38.54.38.64 0q.18-.66-.34-.49m-5.83.09c-.04.03-.07.2-.07.35 0 .24.04.28.29.28s.3-.04.34-.32c.02-.18.03-.35.01-.36-.07-.09-.24.1-.24.28 0 .1-.05.22-.12.26q-.12.08-.05-.24.08-.46-.16-.25"/></svg>