<svg xmlns="http://www.w3.org/2000/svg" width="24" height="24"><path fill="#FFFFFF" fill-rule="evenodd" d="M10 7.16c-.7.3-1.05.79-1.16 1.62q-.12.83.3.32c.1-.1.33-.24.52-.3q.83-.29.84-1.26c0-.3-.03-.54-.07-.54s-.24.08-.43.16m-6.78.5C3.01 7.8 3 7.88 3 9.29c0 1.55.04 1.71.46 1.71.28 0 .54-.35.54-.72 0-.23.04-.28.25-.28.4 0 .9-.25 1.08-.53.2-.32.22-.98.02-1.36-.27-.53-1.61-.82-2.13-.45m2.6-.04c-.08.08-.12.6-.12 1.65 0 1.74 0 1.73.87 1.73.62 0 .86-.16.81-.55-.02-.24-.1-.32-.35-.4l-.33-.1v-1c0-.75-.04-1.06-.16-1.23-.17-.24-.53-.3-.72-.1m2.12.2c-.46.4-.64.82-.64 1.48 0 .63.3 1.24.73 1.5.5.3 1.5.28 1.94-.06.58-.44.83-1.2.63-1.93l-.11-.42-.3.26c-.17.14-.36.25-.43.25q-.12.02-.19.47c-.07.7-.5.93-.97.55-.3-.25-.31-.92-.02-1.31.17-.24.52-.95.52-1.07 0-.02-.18-.04-.4-.04-.3 0-.48.08-.76.32m3.1-.07c-.23.23-.24.3-.24 1.55 0 1.61.05 1.7 1.04 1.7.73 0 1.1-.11 1.44-.43q.56-.5.55-1.34c0-1.04-.77-1.72-1.96-1.73-.48 0-.62.04-.82.25m3.2-.1c-.12.13-.15.42-.15 1.56 0 .78.05 1.49.1 1.6.14.26.55.24.74-.03.13-.18.16-.51.16-1.53s-.03-1.35-.16-1.53c-.18-.26-.46-.28-.68-.06m1.3.06c-.13.18-.16.51-.16 1.53 0 1.43.1 1.75.54 1.75.35 0 .45-.19.48-.95l.03-.7.63.83c.53.7.67.82.92.82q.29 0 .4-.2c.05-.1.1-.8.1-1.53 0-1.16-.03-1.38-.18-1.57-.43-.53-.99.1-.9 1 .02.22.01.4-.02.4s-.23-.26-.45-.56c-.78-1.1-1.08-1.27-1.4-.82m3.57-.06c-.21.14-.22.21-.22 1.64 0 1.75-.03 1.7 1.08 1.7.72 0 1.02-.16 1.02-.53 0-.23-.4-.47-.77-.47q-.34 0-.33-.15-.01-.15.34-.15c.35 0 .66-.2.66-.45 0-.24-.3-.45-.66-.45q-.35 0-.34-.15-.02-.15.38-.15c.2 0 .43-.05.5-.12.19-.19.15-.66-.07-.78a2.5 2.5 0 0 0-1.59.06M4 8.75q-.01.26.2.25.35-.01.24-.34c-.1-.27-.44-.2-.44.09m7.82.5c0 .73 0 .75.25.75q.6 0 .68-.54c.07-.34-.07-.73-.29-.88a1 1 0 0 0-.37-.08c-.27 0-.27 0-.27.75"/></svg>