<svg xmlns="http://www.w3.org/2000/svg" width="24" height="24"><path fill="#FFFFFF" fill-rule="evenodd" d="M3.33 6.37 3 6.41v5.29h1.2V9.83l.8-.05c.63-.04.87-.1 1.18-.3.54-.36.75-.85.7-1.6-.05-.7-.27-1.04-.88-1.35-.38-.2-.58-.23-1.4-.21-.52 0-1.1.03-1.27.05m5.52.12c-.86.39-1.2 1.09-1.2 2.51 0 1.09.14 1.57.58 2.07.4.45.82.63 1.5.63q2.1.02 2.1-2.65c.02-.99-.12-1.52-.5-2.04-.5-.66-1.64-.9-2.48-.52m5.11-.05q-.82.3-1.17 1.25c-.28.75-.24 2.25.08 2.86.52.99 1.55 1.38 2.78 1.04.6-.16.66-.24.5-.62l-.13-.32h-.77c-.71 0-.78-.02-1-.28-.32-.36-.48-1-.42-1.63.1-1.06.57-1.47 1.63-1.42.54.03.56.02.7-.3l.14-.33-.38-.16a3.3 3.3 0 0 0-1.96-.09m3.98.05c-.6.28-.92.75-1.12 1.7-.15.76-.15.86 0 1.62.27 1.32.9 1.88 2.09 1.89.84 0 1.36-.31 1.74-1.05.28-.54.3-.66.3-1.64 0-1.18-.2-1.79-.7-2.23a2.3 2.3 0 0 0-2.31-.29m-13.7.83c-.02.08-.04.46-.02.84l.03.69h.5c.74 0 1.05-.23 1.05-.79s-.24-.78-.95-.84c-.42-.03-.56-.01-.6.1m5.02 0C9 7.54 8.9 7.98 8.9 9c0 1.42.18 1.81.85 1.81s.85-.4.85-1.8c0-1.03-.07-1.36-.35-1.63-.2-.2-.74-.22-.98-.04m9.1.06c-.26.27-.37.77-.37 1.6q0 1.4.37 1.69c.1.07.36.12.58.1.59-.04.75-.42.75-1.74 0-1.09-.12-1.59-.4-1.74-.3-.16-.76-.12-.94.09"/></svg>