<svg xmlns="http://www.w3.org/2000/svg" width="24" height="24"><path fill="#FFF" fill-rule="evenodd" d="M11.6 6.93c-.06.23-.36.93-.65 1.57-.57 1.21-.71 1.74-.6 2.15.07.3.25.33.25.05 0-.11.23-.71.51-1.33.67-1.47.79-1.8.79-2.33 0-.57-.14-.63-.3-.11m-5.2-.05c-.57.3-.87.68-.76.96.06.16.1.14.36-.13.56-.6 1.38-.77 1.85-.4.3.23.34.63.11.96-.15.21-1 .6-1.1.5-.04-.02.04-.25.16-.5.2-.41.21-.77.02-.77-.04 0-.23.26-.4.58-.3.51-.33.55-.39.34q-.12-.38-.38.01-.12.16.02.37c.1.17.1.3-.04.76-.2.68-.12 1.29.18 1.61.12.13.25.23.28.23s.05-.3.03-.67c-.07-.91.1-1.53.4-1.53.5 0 1.28-.32 1.62-.65 1.2-1.22-.33-2.52-1.96-1.67m3.91.3c0 .22-.13.83-.3 1.37-.33 1.07-.37 1.5-.16 1.78.13.17.15.14.21-.24.04-.23.2-.8.36-1.27.31-.93.36-1.37.17-1.77q-.26-.53-.28.14m5.64 0c-.23.16-.51.45-.63.65-.13.2-.3.36-.42.36-.26 0-.53-.44-.45-.75.05-.2.03-.23-.1-.19-.2.08-.34.36-.34.67 0 .27.38.67.64.67q.16 0 .13.13c-.5 1.2-.46 1.15-.87 1.15-.21 0-.52.08-.69.16-.54.29-.7.88-.27 1.07.4.19.93.02 1.37-.42l.4-.4.86.36a9 9 0 0 0 2.7.65 5 5 0 0 0 1.95-.52c.2-.12.36-.23.34-.25s-.33.04-.7.12c-.82.2-2.62.17-2.58-.03q.02-.12-.37-.12c-.38 0-2.01-.45-2.01-.56l.29-.68c.24-.54.33-.64.6-.7.68-.13 1.26-.78 1.2-1.34-.06-.4-.52-.42-1.05-.03m.07.48c-.35.42-.24.57.18.26.26-.2.42-.63.22-.63-.05 0-.23.17-.4.37m-12.21.7q-.25.18-.28.05-.04-.11-.13-.12c-.14 0-.1.26.06.4.14.12.13.15-.05.35-.24.25-.26.6-.04.69.24.1.73-.22.74-.47q-.02-.05-.23.08-.36.24-.37-.12.02-.12.2-.13c.23 0 .35-.16.18-.26q-.12-.08.1-.15c.22-.08.3-.33.14-.43-.05-.03-.2.02-.32.11m.7.06c0 .13-.06.45-.14.7-.18.59-.04.6.23.04.25-.51.28-.97.06-.97q-.15.02-.15.23m11.85.19c-.6.33-.9.82-.75 1.23.2.52 1.12.35 1.5-.27q.4-.64-.05-.92c-.28-.19-.42-.2-.7-.04m1.7 0c-.56.3-.75 1.13-.33 1.42.31.22.8.2 1.12-.05q.55-.45-.14-.25c-.71.18-1.07-.31-.54-.73q.5-.4.49.1c0 .19.05.24.25.24s.26-.06.28-.3a1 1 0 0 1 .12-.4c.12-.14-1-.17-1.25-.03m-9.76.37c-.4.4-.49.74-.29 1.12.22.4 1.17.14 1.45-.4.18-.36.19-.52.03-.86-.18-.4-.7-.35-1.2.14m3.39-.1c-.67.69.02 1.75.85 1.3.18-.1.48-.64.48-.88 0-.05-.12-.23-.26-.4q-.5-.6-1.07-.03m8.08-.03c-.25.24-.34.86-.17 1.11.27.41.83.36 1.2-.12.27-.34.28-.58.01-.95-.26-.37-.7-.4-1.04-.04m-3.6.24c-.22.26-.16.65.11.69q.22.02.43-.24c.25-.31.28-.56.06-.48q-.13.05-.15-.05c0-.17-.25-.13-.44.08m-7.52-.01c-.15.1-.34.47-.34.66q.01.15.19.16c.24 0 .7-.4.55-.46-.07-.03-.1-.14-.07-.24.05-.2-.12-.27-.33-.12m3.27.06c-.07.08-.11.27-.1.43.07.53.79.36.79-.19q0-.17-.15-.12t-.15-.1c0-.2-.23-.2-.4-.02m8.1.05c-.3.56.07.93.46.47.23-.26.23-.27.04-.46-.25-.25-.37-.25-.5 0m-16.15.62c-.95.13-1.06.28-.21.28.53 0 .74-.04.93-.2q.23-.19.12-.19zm9.57.54q-.42.32.01.34c.2 0 .67-.32.67-.45 0-.11-.47-.04-.68.1"/></svg>