<svg xmlns="http://www.w3.org/2000/svg" width="24" height="24"><path fill="#FFF" fill-rule="evenodd" d="M11.4 2.15c-.07.08-.19.15-.27.15s-.22.13-.31.3c-.2.35-.35.37-.6.11-.24-.23-1.24-.27-1.43-.05-.06.08-.17.14-.24.14-.17 0-.47.47-.43.69s-.63.83-.7.63A.2.2 0 0 0 7.25 4q-.12-.01-.17-.1t-.23-.1c-.41 0-.95.07-.99.1a2 2 0 0 0-.1.47c-.07.4-.06.44.37.87q.44.46.66 1.04.57 1.57 2.98 2.23c1.17.33 2.96.3 4.16-.05a6 6 0 0 1 1.4-.26c.76 0 1.04-.23 1.1-.92.02-.3.12-.73.21-.97.25-.65.09-1.23-.55-1.97q-.5-.57-.43-.73c.17-.42.15-.5-.25-.89-.71-.7-1.81-.66-1.81.06 0 .2-.04.23-.22.18l-.36-.06q-.11-.01-.07-.1c.1-.16-.14-.69-.34-.73-.4-.1-1.1-.06-1.21.08m.2.4q-.01.16-.17.13-.19-.04-.21.2-.07.35.27.13.16-.09.33 0c.23.13.58-.05.58-.3q0-.4-.28-.18-.16.15-.2 0c-.05-.18-.32-.16-.32.02m2.57.22c-.13.12-.07.4.09.47.09.03.29.06.44.06s.32.05.35.1c.1.17.25.11.25-.09 0-.1-.09-.21-.2-.24q-.18-.06-.2-.21-.01-.28-.27-.05-.12.12-.17 0-.13-.19-.3-.04M9 3.07q-.01.14-.14.1c-.2-.08-.43.2-.29.34q.1.11.32-.03.21-.15.38-.02c.27.15.53.06.53-.2q0-.45-.28-.23-.16.15-.2 0c-.06-.19-.32-.16-.32.03m2.2 2.5c0 .34.9.36.96.01q.04-.2-.16-.07-.19.1-.45 0c-.34-.13-.35-.13-.35.05m2.77.19q-.1.24.4.4c.26.08.53-.02.53-.21q.01-.16-.26-.09t-.44-.09c-.15-.14-.18-.14-.23-.01m-4.32.16q-.07.12-.46.06-.6-.1-.27.22c.25.25 1.06 0 .89-.27q-.09-.15-.16-.01m6.58 3.42c-.06.07-.16.3-.22.5-.07.22-.19.38-.28.38-.08 0-.3.15-.48.33l-.32.32-.13-.28c-.1-.23-.17-.27-.34-.22-.11.04-.31.07-.44.07-.28 0-.45.26-.62.93-.07.28-.17.54-.21.6-.14.14-.1-.26.06-.8q.26-.87-.18-.85c-.32 0-.77.33-1.09.8-.15.24-.28.41-.28.39l.2-.67q.33-1.05.1-1.17c-.21-.13-.46.25-.65.97-.16.62-.2.69-.25.44a.7.7 0 0 0-.25-.42c-.18-.12-.25-.1-.51.05a2.5 2.5 0 0 0-.84 1.56c0 .3.25.65.47.65.2 0 .63-.42.83-.78s.2-.36.14-.07c-.04.23 0 .35.15.49.27.25.55.14.49-.2-.06-.3-.03-.3.26.03.21.25.25.26.54.14.17-.07.35-.1.4-.07q.11.04.25-.08.14-.16.25-.04.3.27.57-.51c.2-.6.36-.77.22-.22-.19.7.2 1 .47.39q.14-.3.15-.16c0 .1.12.25.25.33.2.13.3.14.46.05.12-.06.27-.1.34-.07s.19.01.27-.03q.13-.07.27.03c.11.09.19.06.36-.14l.23-.26.21.25c.17.18.28.22.45.17.12-.04.33-.08.47-.1l.32-.04c.05 0 .08-.2.08-.44s.07-.65.16-.9c.13-.38.14-.5.04-.62-.22-.26-.52-.16-1.01.33-.42.42-.48.45-.42.23.03-.14.06-.32.05-.4 0-.1.04-.26.1-.38.21-.44-.18-.75-.44-.34-.12.2-.12.2-.22-.01q-.22-.41-.43-.16m-6.76.7c-.08.13-.29.76-.47 1.4-.27.98-.3 1.2-.2 1.33a.4.4 0 0 0 .34.13c.17-.02.21-.1.23-.43 0-.22.13-.78.27-1.24.3-.97.31-1.14.12-1.3-.12-.1-.17-.08-.29.1m6.94.6-.28.97q-.06.17.04.07c.06-.05.16-.32.23-.6s.2-.64.3-.82q.26-.43 0-.43c-.04 0-.17.36-.29.8M8.72 10c-.07.04-.2.34-.28.67-.2.74-.33 1-.34.64 0-.15-.05-.31-.12-.38-.16-.16-.6-.15-.77 0q-.16.17-.02-.1c.15-.28.06-.59-.2-.73-.42-.22-1.13.2-1.24.74-.04.17-.13.4-.21.48a.6.6 0 0 0-.12.4c0 .13-.04.43-.1.67-.14.47-.1.62.17.62q.27 0 .47-.83a.7.7 0 0 1 .28-.39c.11-.06.32-.2.45-.32l.23-.21-.2.42c-.29.56-.29 1.07 0 1.27.2.14.25.14.52-.02.17-.1.41-.36.54-.58l.22-.39-.06.4c-.05.36-.03.42.2.54q.48.27.44-.32c-.02-.18.1-.78.26-1.34.33-1.15.3-1.5-.12-1.24m5.08 2.56c-.69.07-1.59.18-2 .24a51 51 0 0 1-5.08.48c-1.58.06-1.63.07-1.6.27s.07.21 2.48.2c1.8 0 3-.07 4.55-.23 1.52-.17 2.7-.23 4.27-.23 1.69 0 2.2-.03 2.28-.13.14-.17-.01-.5-.3-.65-.26-.14-3.06-.1-4.6.05m-5.63 1.91c-.04.04-.07.16-.07.27q0 .2-.16.13a.5.5 0 0 0-.32.03q-.17.1-.35-.04c-.15-.1-.23-.1-.48.02l-.29.16.14.46c.14.5.34.64.43.33.06-.26.31-.36.5-.2q.13.12.37 0c.18-.08.3-.07.52.04.26.14.3.13.4-.01q.12-.16.23-.1c.18.1.51-.14.51-.4a.4.4 0 0 0-.6-.35q-.22.14-.2-.05 0-.15-.18-.13a.3.3 0 0 1-.27-.1q-.1-.11-.18-.06m2.9.28q-.15.15-.22.07c-.05-.1-.78-.06-.95.04-.14.09-.12.49.02.63.07.07.2.12.3.12q.17 0 .18.1c0 .16.28.12.38-.06q.07-.16.68-.19c.76-.03.71-.01.71-.3 0-.34-.3-.6-.55-.46q-.19.1-.3 0-.09-.1-.25.05m1.87 0q-.05.15-.35.1l-.3-.07.22.37q.22.39.4.33c.1-.03.21-.01.25.04.03.05.2.09.4.09.33 0 .34-.01.34-.4 0-.34-.03-.4-.22-.41h-.32c-.04.01-.14-.03-.22-.1q-.14-.14-.2.04m1.38-.01c-.16.16-.15.53 0 .65.07.05.45.1.85.1.7.02.72.01.76-.25l.04-.27.01.28q.01.29.22.27.21.02.2-.29c0-.4-.16-.48-.85-.46-.77.03-.73.02-.8.25q-.07.18-.16.14-.09-.07.05-.23c.25-.27-.06-.45-.32-.19m2.8.16q-.04.15-.19 0-.14-.12-.25 0-.11.1.11.41c.24.33.51.41.51.16 0-.14.02-.14.23 0 .13.08.27.12.3.08.04-.04.25-.06.46-.05q.64.05.42-.5c-.08-.21-.15-.23-.8-.23q-.74 0-.78.13m-11.78.04-.24.14c-.02.02.05.24.15.49.17.41.22.45.44.39a2 2 0 0 1 .53-.05c.3.01.3.05.07-.79-.08-.32-.4-.4-.4-.1q0 .2-.17.2-.17-.02-.05-.07a.2.2 0 0 0 .12-.19q-.02-.26-.45-.02"/></svg>