<svg xmlns="http://www.w3.org/2000/svg" width="24" height="24"><path fill="#FFF" fill-rule="evenodd" d="M10.6 4.99c-.6.32-.8.72-.8 1.64v.8l.22-.2c.36-.32.6-.41 1.74-.68.59-.14 1.29-.35 1.56-.47.53-.23 1.08-.78 1.08-1.08 0-.2-.08-.2-1.73-.2-1.48 0-1.77.03-2.07.19m.3 1.99c-.32.1-.7.44-.7.61 0 .24.3.5.68.57l.32.06v-.6c0-.63-.05-.73-.3-.64m1.33.45-.43.1v2.24c0 2.5.06 2.78.62 3.13.27.17.47.2 1.08.18l.75-.03.03-.53.03-.52h-.45c-.64 0-.78-.23-.74-1.26l.03-.79.58-.03.57-.03V8.8h-1.2v-.75c0-.85.01-.84-.87-.62M4.25 8.89c-1.7.77-1.65 3.33.07 4.05.55.23 1.59.2 2.19-.05.27-.12.49-.26.49-.3 0-.06-.09-.27-.2-.48l-.19-.38-.57.2c-.36.11-.7.16-.9.13-.34-.07-.74-.4-.74-.61 0-.13.24-.15 1.4-.15 1.27 0 1.4-.02 1.5-.2.1-.2-.01-1.05-.19-1.38-.16-.29-.74-.8-1.04-.91a3 3 0 0 0-1.82.08m12.44-.1-.48.2c-.19.1-.25.1-.35-.04-.09-.12-.24-.15-.61-.13l-.5.03v4.1h1.3l.03-1.37c.03-1.53.03-1.55.82-1.67.35-.06.35-.07.38-.64.03-.62 0-.65-.59-.48m1.34.1c-.48.22-.5.26-.26.76.14.29.21.35.38.3.82-.25 1.24-.25 1.46.01q.36.43-.64.43c-1.23 0-1.97.53-1.97 1.4 0 .84.56 1.31 1.57 1.31.41 0 .68-.06.92-.2.3-.2.35-.2.43-.06q.08.16.59.16H21v-1.48c0-1.33-.02-1.52-.22-1.92-.43-.84-1.72-1.17-2.75-.7M7.2 8.9c0 .06.3.5.65.97s.65.9.65.93-.34.53-.75 1.09S7 12.93 7 12.95s.34.05.75.05h.74l.42-.62c.47-.7.36-.71 1 .2l.3.42h.75c.63 0 .75-.03.7-.15a13 13 0 0 0-.76-1.09l-.71-.94.7-.96c.4-.53.71-.98.71-1 0-.04-.33-.06-.74-.06h-.74l-.32.5c-.18.28-.36.5-.4.5s-.22-.22-.4-.5l-.32-.5h-.74c-.44 0-.74.04-.74.1m-2.4.87q-.34.18-.38.4c-.03.22 0 .23.77.23.72 0 .81-.02.81-.18 0-.46-.68-.71-1.2-.45m14.11 1.43q-.68.16-.57.63c.16.65 1.44.22 1.34-.45-.03-.26-.24-.3-.77-.18"/></svg>