<svg xmlns="http://www.w3.org/2000/svg" width="24" height="24"><path fill="#FFF" fill-rule="evenodd" d="M4.9 5.66q-1.04.48-1.58 1.49c-.27.5-.27.51-.3 2.98l-.03 2.48.43-.03.43-.03.06-2.3c.03-1.32.1-2.4.16-2.56.06-.14.23-.4.38-.57C5.62 5.72 8 6.39 8.26 8.19c.32 2.12-2.3 3.34-3.75 1.76q-.4-.45-.47-.32c-.02.07-.03.76-.02 1.52l.03 1.4.43.03.42.03v-1.08l.9.05c.7.04 1 .01 1.34-.12.65-.25 1.23-.7 1.56-1.23l.3-.46.02 1.39.03 1.39.42.03.42.03.03-2.28c.03-2.17.04-2.3.27-2.76a2.2 2.2 0 0 1 3.8-.2c.2.28.27.52.3 1.07.02.65 0 .75-.28 1.18-.18.28-.48.57-.78.75-.89.52-2.1.31-2.76-.47-.14-.16-.3-.3-.36-.3-.12 0-.16 2.55-.05 2.84.08.22.8.22.88 0 .03-.09.06-.35.06-.6 0-.43 0-.43.26-.34.14.06.55.1.92.1.53 0 .8-.06 1.27-.29.64-.3 1.4-1.05 1.51-1.48q.11-.46.33.04c.23.5.69.98 1.26 1.32.48.3.68.35 1.35.39.69.04.85.01 1.36-.22.33-.15.72-.4.88-.54.3-.27.86-1.1.86-1.24 0-.04-.2-.08-.45-.08-.4 0-.5.05-.92.48-.82.82-1.85.93-2.8.29a2.2 2.2 0 0 1-.77-2.63c.42-.87 1.57-1.46 2.47-1.25.53.13 1.14.55 1.39.97.18.3.24.34.64.34.53 0 .56-.12.18-.76a3.1 3.1 0 0 0-4-1.21 3.7 3.7 0 0 0-1.47 1.45l-.14.34-.3-.55A3 3 0 0 0 11.1 5.6c-.72.27-1.4.86-1.73 1.51l-.24.47-.18-.36a3 3 0 0 0-1.47-1.47 2.8 2.8 0 0 0-2.58-.1m.59 1A2 2 0 0 0 4.19 9c.07.24.3.6.53.86C6.1 11.36 8.48 10 8 8a2 2 0 0 0-1.15-1.3c-.47-.22-.74-.23-1.36-.03m6.11-.04c-1.24.35-1.83 1.86-1.14 2.9a2 2 0 0 0 1.4.94 1.93 1.93 0 0 0 2.24-1.93c0-.98-.59-1.73-1.5-1.92-.58-.12-.53-.13-1 0m5.96 0c-1.16.28-1.78 1.62-1.27 2.74q.37.8 1.32 1.1c.47.13.54.13 1.04-.06 1.21-.45 1.78-1.8 1.17-2.78q-.83-1.34-2.26-1m-11.39.27a2 2 0 0 0-.02.52c.03.62-.03.67-.34.3-.27-.33-.51-.34-.51-.04q.02.18-.2.04-.44-.26-.53.55c-.07.48.12.85.42.85s1.03.43 1.11.66c.12.3.27.31.26.02q-.02-.22.37-.4c.52-.25.6-.53.4-1.35-.1-.38-.22-.7-.27-.74q-.07-.08-.02-.18.07-.1.04-.11c-.02 0-.18-.04-.35-.1-.18-.04-.34-.05-.36-.02m10.9.37a.8.8 0 0 0-.27.55c0 .29.3.7.5.7q.09.01.1.24c0 .37.4 1.36.6 1.46q.18.1.33-.08c.17-.19.5-1.22.45-1.42-.02-.07.1-.2.27-.3.5-.28.45-1.04-.08-1.31-.22-.12-.22-.12-.04.09q.17.2.15.49c-.03.28-.04.28-.86.33-.46.03-.9.01-.98-.03-.19-.1-.18-.47.02-.75q.31-.44-.19.03m-3.7.32c-.04.03-.07.28-.07.54 0 .41-.04.51-.26.65-.38.25-.76.1-.85-.35-.08-.37-.23-.5-.56-.5-.28-.01-.4.17-.2.32.18.15.31.77.16.77a.5.5 0 0 1-.49-.48c0-.15-.11-.4-.25-.57l-.24-.3v.5c-.01.45.02.52.43.9.42.4 1.34.85 1.74.85.41 0 .6-.27.67-.98l.11-1.04c.05-.35-.03-.48-.2-.31"/></svg>