<svg xmlns="http://www.w3.org/2000/svg" width="24" height="24"><path fill="#FFF" fill-rule="evenodd" d="M5.45 5.13c-1.24.41-1.96 1.26-2.3 2.7a7 7 0 0 0 .31 3.82c.5 1.27 1.48 1.6 2.3.78.51-.5.66-.94.73-2.12l.06-1.03.46-.17a2.5 2.5 0 0 0 1.36-1.08c.55-.95.2-2.2-.77-2.7a3.4 3.4 0 0 0-2.15-.2m.05.93q-1.13.5-1.4 2.2c-.28 1.68.29 4.04.88 3.68.36-.22.52-.74.52-1.69v-.9l-.43-.2c-.36-.17-.42-.25-.45-.54l-.03-.34.39.06.4.07.05-.51c.1-.8.5-1.24 1-1.11.17.04.18.12.12.78-.08.84-.03.88.55.53.49-.3.6-.48.6-1 0-.37-.05-.5-.27-.71a1.9 1.9 0 0 0-1.93-.32m11.64.3a5 5 0 0 0-.85 1.78c-.1.43-.12.44-.62.52-.46.08-.52.12-.52.34s.05.25.43.28l.42.03v.63c0 .62-.01.65-.4 1-.22.2-.42.36-.44.36-.01 0-.18-.3-.36-.65-.3-.58-.31-.67-.2-.94.18-.44.1-.75-.2-.79-.37-.04-.62.28-1.09 1.42a7 7 0 0 1-.58 1.18c-.23.26-.88.42-1.13.28q-.4-.22.05-.34c.4-.1 1.03-.74 1.14-1.13.12-.42-.06-.95-.37-1.12-.65-.35-1.43.04-1.85.92-.25.52-.31.58-.55.55-.26-.03-.27-.05-.27-.68 0-.74-.07-.9-.39-.9-.26 0-.6.28-.83.73l-.18.32-.03-.53c-.03-.47-.05-.52-.27-.52-.34 0-.43.22-.67 1.68-.18 1.13-.2 1.32-.07 1.58.22.45.54.44.77-.03.1-.2.23-.5.27-.63l.28-.8.2-.54.14.47q.24.86 1 .75c.37-.05.4-.04.55.32.3.73 1.1.98 1.93.61l.48-.21.19.2c.47.5 1.42.3 2.52-.55l.46-.35.16.4c.18.46.56.8.88.8.11 0 .44-.1.72-.24.5-.23.5-.23.73-.05.68.55 1.81-.09 2.1-1.18.07-.23.16-.45.21-.48q.4-.26-.66-1.41c-.39-.41-.8-.45-1.38-.11-.58.33-.88.95-.84 1.74.03.57.01.63-.2.73-.3.13-.65.13-.8-.02-.07-.07-.12-.44-.12-.96 0-.84 0-.84.4-1.33.4-.48.43-.49.97-.49q.94 0 .93-.4c0-.18-.07-.2-.6-.2h-.59l.2-.46c.25-.56.22-1.33-.06-1.64-.25-.28-.7-.26-1.01.05m.33.73A5 5 0 0 0 17 8.42q.01.07.14.08c.14 0 .66-1.05.66-1.33 0-.24-.16-.28-.33-.1m1.8 2.91a2.2 2.2 0 0 0-.42 1.39c.12.69.71.73.95.06.14-.4.13-.43-.1-.67q-.23-.25-.16-.5c.03-.14.11-.26.17-.26q.08 0 .04-.1c-.1-.15-.3-.12-.48.08m-7.81.14c-.18.26-.21.78-.05.78.2 0 .8-.67.73-.84-.09-.23-.5-.2-.68.06m2.12 1.26c-.2.37-.25.51-.16.6.13.13.38.15.62.06.27-.1.16-1.14-.12-1.14-.04 0-.2.22-.34.48"/></svg>