<svg xmlns="http://www.w3.org/2000/svg" width="24" height="24"><path fill="#FFFFFF" fill-rule="evenodd" d="M11.47 2.33c-.13.17-.8 1.29-1.48 2.47-2.1 3.66-2.08 3.61-1.69 4 .2.2.33.2 3.68.2 2.98 0 3.5-.02 3.7-.16.44-.3.32-.61-1.45-3.69a46 46 0 0 0-1.82-3.02c-.3-.23-.68-.15-.94.2M7.04 9.57c-1 1.64-3.14 5.4-3.2 5.64-.04.21 0 .33.2.53l.26.26 3.5-.03c3.41-.03 3.5-.03 3.7-.24.17-.17.2-.29.15-.52a81 81 0 0 0-3.4-6.02.7.7 0 0 0-.52-.2c-.3 0-.37.06-.69.58m8.74-.4c-.08.1-.25.35-.37.57l-1.62 2.82c-1.55 2.7-1.65 3-1.09 3.28.26.14.78.15 3.7.13 3.21-.03 3.39-.04 3.6-.23.16-.15.2-.27.17-.5-.05-.3-3.1-5.7-3.43-6.06-.22-.24-.76-.25-.96-.01"/></svg>