<svg xmlns="http://www.w3.org/2000/svg" width="24" height="24"><path fill="#FFF" fill-rule="evenodd" d="M3 8.95c0 .78.03.95.15.95q.15.01.15-.35c0-.3.03-.35.23-.35.36 0 .67-.27.67-.6q.01-.6-.76-.6H3zm1.6 0c0 .78.03.95.15.95q.15.02.15-.43c0-.35.03-.4.13-.26.47.6.58.7.73.67s.13-.07-.1-.34l-.25-.31.24-.23c.5-.46.17-1-.6-1H4.6zm1.7 0c0 .78.03.95.15.95s.15-.17.15-.95S6.57 8 6.45 8s-.15.17-.15.95m.97-.77c-.1.1-.17.28-.17.39 0 .23.3.53.52.53.47 0 .64.3.28.5-.16.08-.24.06-.4-.1-.11-.11-.25-.18-.3-.15-.3.18.1.55.59.55.44 0 .61-.14.61-.5 0-.33-.19-.5-.63-.6q-.33-.05-.32-.25c0-.26.52-.34.61-.1.07.18.34.2.34.02 0-.42-.83-.63-1.13-.29m1.63.77c0 .76.03.95.14.95q.15.01.18-.47l.03-.47.28.43.29.43.29-.43.29-.44v.48c0 .35.04.47.15.47.12 0 .15-.17.15-.95 0-.52-.02-.95-.04-.95s-.21.27-.42.6-.4.6-.43.6-.23-.27-.45-.6c-.2-.33-.4-.6-.42-.6s-.04.43-.04.95m2.67-.05c-.42 1.02-.42 1-.24 1 .08 0 .26-.28.4-.62l.28-.63.2.44.19.46c0 .02-.14.05-.32.07s-.33.09-.36.16q-.06.13.52.12c.3 0 .56-.04.56-.09A10 10 0 0 0 12 8c-.03 0-.23.4-.43.9m1.63.05c0 .78.03.95.15.95s.15-.12.15-.52v-.52l.3.47c.16.26.32.47.34.47s.15-.18.27-.4.26-.4.3-.4c.05 0 .09.2.09.45 0 .33.04.45.15.45.12 0 .15-.17.15-.95 0-.52-.03-.95-.07-.95s-.25.27-.47.6c-.2.33-.4.6-.42.6s-.22-.27-.44-.6-.43-.6-.45-.6-.05.43-.05.95m2.6-.66c-.62.61-.25 1.61.58 1.61.69 0 1.1-.74.78-1.38-.3-.6-.9-.7-1.37-.23m1.98-.22a4 4 0 0 0-.07.95v.88h.48q.84 0 .98-.77c.07-.35-.16-.87-.45-1.03-.22-.11-.84-.14-.94-.03m2.06.7c-.48 1.17-.47 1.13-.3 1.13q.16-.02.22-.2c.05-.15.15-.2.45-.2s.4.05.45.2c.06.19.35.29.35.12a9 9 0 0 0-.77-1.8c-.05 0-.23.33-.4.75M3.3 8.6c0 .25.03.28.28.23.15-.03.3-.1.34-.16.1-.16-.11-.36-.38-.36-.2 0-.24.05-.24.29m1.6-.05c0 .28.43.42.61.2.16-.19-.06-.44-.37-.44-.19 0-.24.05-.24.24M16 8.5c-.25.25-.26.72-.02.93.46.42 1.1 0 .97-.63-.1-.5-.6-.65-.95-.3m2.07-.13a2 2 0 0 0-.07.65v.6l.32-.04c.42-.04.64-.42.47-.84-.14-.39-.52-.58-.72-.37"/></svg>