<svg xmlns="http://www.w3.org/2000/svg" width="24" height="24"><path fill="#FFFFFF" fill-rule="evenodd" d="m4.85 6.84-.07.4c-.03.3-.06.3-.53.34-.76.05-.75.04-.75.8 0 .54-.06.83-.25 1.24-.3.65-.32 1.07-.04 1.37.2.2.26.22.83.14a9 9 0 0 1 2.37.01c.5.08.59.06.78-.13.28-.28.28-.94.01-1.39-.15-.24-.2-.5-.2-1 0-.89-.13-1.07-.72-1.04q-.72.04-.68-.45c.04-.36 0-.41-.36-.41-.2 0-.37.05-.4.12m4.4.05c-.48.22-.98.77-1.14 1.26-.34 1.03.13 2.36 1 2.82l.43.23h4.94c4.72 0 4.96 0 5.32-.2.5-.25.96-.81 1.11-1.36a2.6 2.6 0 0 0-.62-2.41c-.56-.53-.6-.53-5.8-.53-4.46 0-4.86.02-5.23.19m.15 2.03c0 1.42.05 1.58.46 1.58.2 0 .23-.06.26-.42.03-.37.06-.43.28-.46q.7-.09.89-.48c.18-.4.13-.9-.12-1.2-.2-.24-.32-.27-1-.32l-.77-.05zm2.42.1.03 1.43h.3c.3 0 .3-.02.33-.52.04-.67.26-.72.43-.1l.15.54c.02.08.2.13.4.13.35 0 .35 0 .29-.32a5 5 0 0 0-.2-.65c-.11-.26-.11-.34 0-.43.2-.17.28-.68.15-1-.15-.35-.53-.5-1.32-.5h-.59zm2.75-1.32c-.42.24-.62 1.44-.36 2.18.2.6 1.14.82 1.64.38.54-.46.57-1.87.05-2.39-.23-.22-.37-.28-.72-.28-.24 0-.51.05-.61.11M16.7 9c0 1.48.01 1.51.5 1.51.18 0 .2-.08.2-.6v-.6h.35c.3 0 .35-.03.35-.24s-.06-.25-.32-.28c-.28-.02-.34-.08-.36-.3-.03-.28-.02-.28.52-.28.56 0 .56 0 .56-.3v-.3h-1.8zm2.1-.07c0 1.42.05 1.58.47 1.58h.24l-.03-1.42-.03-1.43-.32-.03-.33-.03zM3.77 7.76c-.04.04-.07.26-.06.48l.01.41.1-.38.1-.38 1.3.03 1.31.03.13.4.13.4-.02-.5-.02-.5-1.46-.03c-.8-.01-1.48 0-1.52.04m8.73.74c0 .37.02.41.21.38.3-.04.47-.33.33-.55a.5.5 0 0 0-.33-.21c-.19-.03-.21.01-.21.38m2.4-.21a3 3 0 0 0-.04 1.45c.03.09.17.16.3.16q.44-.01.44-.88c0-.7-.46-1.18-.7-.73m-4.8.35c0 .38.03.46.19.46.26 0 .43-.24.4-.57-.03-.22-.1-.29-.31-.31-.27-.03-.28-.02-.28.42M5.67 9.76a2 2 0 0 1-.61.05c-.56 0-.74.12-.36.24q.18.07.15.15-.04.1.14.2c.24.12.75-.04.69-.22-.03-.07.05-.2.16-.3.17-.14.18-.17.05-.18q-.15 0-.22.06"/></svg>