<svg xmlns="http://www.w3.org/2000/svg" width="24" height="24"><path fill="#FFFFFF" fill-rule="evenodd" d="M10.7 7.3c-.06.1-.1.9-.1 1.9v1.7h.39c.21 0 .44-.06.5-.14.1-.12.16-.12.39 0 .4.2 1.3.18 1.69-.06.83-.5.85-1.93.03-2.35-.43-.22-1.31-.2-1.63.05-.14.11-.28.2-.31.2s-.06-.34-.06-.75V7.1h-.4c-.29 0-.42.05-.5.2m4.12-.08c-.08.08-.12.65-.12 1.9v1.78h1V7.1h-.38c-.2 0-.43.05-.5.12m1.58.27c0 .3 0 .31.56.31.54 0 .55 0 .52-.27-.03-.26-.07-.28-.55-.31l-.53-.03zM3.18 7.4c-.16.1-.18.3-.18 1.8v1.7h1V9.53l.7-.06c.77-.06 1.18-.24 1.5-.63a.9.9 0 0 0-.29-1.35 8 8 0 0 0-2.73-.09m.82 1v.63l.42-.07c.56-.1.88-.3.88-.6 0-.33-.23-.48-.8-.54L4 7.77zm2.92-.08q-.12.12-.12 1.14c0 .99.01 1.03.26 1.23.35.28 1.17.29 1.6.02.32-.2.32-.2.37 0 .06.21.45.26.78.09.17-.1.19-.22.19-1.35V8.2h-.34c-.5 0-.66.28-.66 1.11 0 .6-.02.68-.26.83-.14.1-.4.16-.57.14l-.32-.03-.05-1-.05-1-.35-.03c-.2-.02-.4.03-.48.1m9.53 0c-.03.08-.04.68-.03 1.34l.03 1.19.32.03a.6.6 0 0 0 .53-.18c.19-.19.2-.3.18-1.33l-.03-1.12-.48-.03q-.48-.03-.52.1m2.27.1Q18 8.75 18 9.54c0 .85.69 1.35 1.86 1.35.92 0 1.14-.07 1.14-.35 0-.21-.03-.22-.68-.17-.61.04-.7.02-.96-.2a.8.8 0 0 1-.01-1.25c.26-.23.35-.25.98-.2l.68.04-.03-.26c-.03-.26-.04-.26-.93-.29-.75-.02-.97.01-1.33.2m-6.9.58c-.29.27-.3.99-.04 1.23.28.26.97.22 1.16-.05.18-.26.21-.9.06-1.19-.15-.27-.88-.26-1.18.01"/></svg>