<svg xmlns="http://www.w3.org/2000/svg" width="24" height="24"><path fill-rule="evenodd" d="M13.05 4.6q-.08.1-.2.06c-.15-.06-.5.25-.73.64-.12.2-.1.25.1.46q.22.24.4.18c.2-.06.51.13.42.27-.03.05-.24.09-.48.09-.48 0-.81.25-.7.54.07.19.35.21.51.05.09-.09.22-.08.53.05.48.19.93.2 1.2.04.16-.1.24-.07.58.24.56.51.73.58 1.58.67.88.1 1.04.22 1.46 1.05.16.33.52.83.79 1.11.38.4.49.6.49.84 0 .35.42.87.61.75.21-.13-.05-1.3-.36-1.6-.17-.16-.23-.36-.28-.92-.03-.4-.13-.87-.22-1.04-.15-.3-.14-.33.1-.57.13-.14.4-.59.6-.99.32-.64.43-.77.91-1.03q.54-.31.6-.56c.1-.35-.08-.49-.44-.34-.45.19-.78.6-1.25 1.51a4 4 0 0 1-.7 1.04c-.6.44-1.48.13-2.77-.96a6 6 0 0 0-2.07-1.27c-.23-.06-.46-.19-.51-.28q-.1-.16-.17-.04M3 11.3v2.2h1.2v-1.1h.6c1.01 0 1 .02 1-1.63q0-1.45-.12-1.55-.12-.12-1.4-.12H3zm3.2-.12c0 1.48.03 2.11.12 2.2.15.15 2.21.16 2.49.02.18-.1.19-.23.19-2.2V9.1H7.8l-.02 1.87c-.03 1.7-.05 1.88-.2 1.91-.17.03-.18-.11-.18-1.87V9.1H6.2zm3.32-1.96c-.09.09-.12.72-.12 2.2v2.08h1.2v-1.88c0-1.04.03-1.91.06-1.95q.06-.04.2 0c.11.04.14.41.14 1.94v1.89h1.2v-1.88c0-1.04.03-1.91.06-1.95q.06-.04.2 0c.11.04.14.41.14 1.94v1.89h1.2v-2.08c0-1.48-.03-2.11-.12-2.2-.17-.17-3.99-.17-4.16 0m4.8 0c-.09.09-.12.72-.12 2.2v2.08h1.2v-.55c0-.48.02-.55.2-.55s.2.07.2.55v.55H17v-2.08c0-1.48-.03-2.11-.12-2.2a7 7 0 0 0-2.56 0M4.2 10.71c0 1 .02 1.1.17 1.07s.18-.17.2-1.02c.04-.96-.01-1.15-.3-1.16-.04 0-.07.5-.07 1.1m11.27-1.03a5 5 0 0 0-.07 1.1c0 .96.01 1.03.2 1.03s.2-.07.2-.99c0-.7-.04-1.02-.13-1.1q-.14-.1-.2-.04m2.03 2.93c-.11.11-.2.27-.2.35 0 .2.36.55.58.55.24 0 .52-.3.52-.57 0-.23-.3-.53-.53-.53-.1 0-.26.09-.37.2m.1.04c-.28.35.11.93.47.7.36-.22.23-.84-.17-.84a.5.5 0 0 0-.3.14m.1.34c.01.2.04.31.07.24q.04-.14.18-.02c.1.08.13.05.12-.17q-.04-.4-.3-.43c-.04 0-.07.17-.06.38"/></svg>