<svg xmlns="http://www.w3.org/2000/svg" width="24" height="24"><path fill="#FFF" fill-rule="evenodd" d="M10.7 2.1a5.6 5.6 0 0 0-3.94 3.05c-.45.94-.6 1.62-.6 2.7a5.5 5.5 0 0 0 1.65 4.08c.5.52.63.7.5.74a8 8 0 0 0-1.74.91c-.17.18-.16.22.15.76q.33.59.48.5l.75-.21c.95-.25 1.71-.13 3.22.48 1.9.77 2.16.83 3.28.83 1.13 0 1.62-.15 2.28-.74.61-.53 1.33-2 1.06-2.15-.05-.04-.35.06-.67.22-.52.26-.67.28-1.67.28-.68 0-1.25-.05-1.49-.14l-.39-.13.7-.37a5.8 5.8 0 0 0 2.78-3.57c.2-.76.2-2.3 0-3.07a5.5 5.5 0 0 0-5.08-4.22c-.45-.02-1.02 0-1.27.05m.13 2.5c-1.82.93-2.15 4.38-.56 5.97.9.9 2.1.81 3-.21 1.35-1.53 1.08-4.53-.49-5.62a2 2 0 0 0-1.95-.14"/></svg>