<svg xmlns="http://www.w3.org/2000/svg" width="24" height="24"><path fill="#FFF" fill-rule="evenodd" d="M4.05 2.1c-.11.04-.31.2-.45.35l-.25.27-.03 4.4c-.02 3.92 0 4.42.14 4.74.32.67-.08.64 8.4.64h7.66l.34-.34.34-.34V7.27c0-4.37 0-4.55-.2-4.8-.35-.45-.61-.49-2.97-.45l-2.19.03-.66.33a3.4 3.4 0 0 0-1.96 2.88c-.1 1.54.53 2.61 2.04 3.5.16.1.06.27-1.11 1.87-.72.97-1.34 1.75-1.38 1.74s-.66-.8-1.36-1.77L9.12 8.85l.47-.26c.6-.35 1.17-.98 1.47-1.63.87-1.9-.19-4.2-2.21-4.82-.54-.16-4.43-.2-4.8-.04m2.4 2.83c-.5.48-.51 1.13-.01 1.63.29.29.4.34.81.34.4 0 .52-.05.81-.34s.34-.4.34-.81c0-.4-.05-.52-.34-.81s-.41-.34-.8-.34c-.38 0-.52.05-.8.33m9.26-.2c-.5.29-.68.94-.42 1.57s1.25.82 1.81.32c.26-.23.32-.38.37-.8.04-.48.02-.54-.3-.87-.3-.3-.43-.35-.8-.35-.23 0-.53.06-.66.13M7.8 13.16c-.32.14-.33.17-.17.28q.38.31-.15.38c-.23.02-.38.12-.53.34l-.2.3-.2-.3c-.34-.51-1-.48-1.34.06l-.2.33v-.33c-.01-.37-.23-.52-.51-.34q-.2.14-.24-.04c-.05-.13-.1-.13-.43.01-.48.2-.5.22-.35.45.14.24.16 1.16.02 1.25-.05.03-.1.15-.1.26 0 .17.07.19.64.19.36 0 .68-.05.71-.1.04-.06-.05-.22-.2-.35-.19-.18-.25-.34-.25-.65 0-.4.13-.53.24-.24q.07.15.26.11c.17-.04.2 0 .2.25 0 .58.35.97.88.98.35 0 .82-.36.82-.65q-.01-.28-.27-.04c-.15.15-.57.07-.6-.12q-.06-.17.4-.32l.45-.15.06.41c.12.71.28.87.89.86.67-.02 1.17-.17 1.17-.35q0-.13-.1-.14c-.05 0-.1-.52-.12-1.22-.03-1.14-.04-1.23-.23-1.25a1.4 1.4 0 0 0-.55.13m8.18.64c-.29.24-.37.27-.42.15q-.05-.15-.5-.15c-.46 0-.76.21-.76.56q.01.24-.16-.08c-.27-.51-.97-.65-1.35-.27l-.2.2-.23-.2c-.43-.4-1.18-.2-1.39.39q-.05.13-.06-.1a.6.6 0 0 0-.13-.38c-.16-.16-.48-.15-.48 0q-.01.12-.1-.04c-.09-.14-.16-.15-.43-.06-.17.06-.39.17-.47.25-.13.13-.13.15.03.24.22.13.24 1.1.03 1.29-.3.24-.07.4.6.4.54 0 .64-.03.64-.18 0-.1-.09-.23-.2-.3-.15-.1-.2-.23-.2-.57 0-.45.12-.6.24-.29q.07.15.25.11c.15-.04.2.03.24.37.1.75.84 1.1 1.4.66l.26-.2.2.2c.38.37 1.12.22 1.33-.28l.12-.27.04.25c.06.38.2.5.63.5.78 0 1.09-.83.5-1.33a2 2 0 0 0-.43-.3q-.11-.05-.06-.12.1-.06.26.08c.23.21.42.22.42.01q0-.13.1-.09c.06.03.1.37.1.75 0 .49.04.73.16.84.21.22.7.2.9-.03.16-.18.17-.18.35 0 .39.39 1.18.16 1.34-.38.06-.23-.08-.32-.2-.13-.1.16-.53.11-.64-.07-.08-.15-.03-.2.37-.34q.49-.15.5-.37.04-.2.13-.17c.12.08.12 1.12-.01 1.2-.05.03-.1.15-.1.26 0 .17.07.19.65.19.57 0 .65-.02.65-.19a.3.3 0 0 0-.15-.25c-.1-.04-.15-.2-.15-.58 0-.46.02-.5.14-.33.3.4.61-.14.4-.7-.07-.17-.4-.2-.5-.04q-.07.12-.16-.05c-.08-.14-.12-.14-.46 0-.2.08-.39.2-.42.25q-.07.06-.25-.1c-.26-.3-.8-.28-1.1.03-.25.25-.4.8-.33 1.21.04.2.01.25-.13.25-.33 0-.4-1.1-.07-1.18.24-.06.23-.38-.02-.45q-.18-.06-.2-.21c0-.23-.1-.2-.52.14m-4.31.46c-.18.18.06 1.4.25 1.28q.1-.07.04-.57-.12-.85-.3-.7m1.57.5c.02.35.09.69.15.75.2.2.16-.93-.04-1.18-.14-.18-.15-.14-.11.44m-5.69-.23c-.08.3.03.95.16.95.06 0 .1-.27.1-.6 0-.61-.14-.8-.26-.35m6.66.32q0 .33.13.27c.07-.02.22.04.32.16.19.2.45.27.45.1 0-.04-.16-.18-.35-.3-.2-.12-.4-.3-.45-.38q-.1-.22-.1.15m5.92.85q.03.23.23.23c.3 0 .27-.39-.03-.43-.2-.03-.23 0-.2.2"/></svg>