<svg xmlns="http://www.w3.org/2000/svg" width="24" height="24"><path fill="#FFF" fill-rule="evenodd" d="M3.15 8.17c.22.22.18 1.59-.05 1.73q-.17.1.3.1c.35 0 .41-.03.28-.1-.15-.1-.18-.26-.18-.95 0-.74.02-.85.18-.85q.35 0 .46.36C4.21 8.67 4 9 3.8 9c-.14 0 .47.87.66.94.36.14.47.06.2-.15a2 2 0 0 1-.4-.47c-.13-.24-.12-.3.05-.5.24-.3.24-.37-.01-.62-.15-.15-.33-.2-.76-.2-.52 0-.54.01-.39.17m3.58-.06c.14.08.17.24.17.89s-.03.8-.17.9c-.14.07-.08.1.27.1s.41-.03.28-.1c-.15-.1-.18-.25-.18-.9s.03-.8.18-.9C7.4 8.04 7.35 8 7 8s-.41.03-.27.1m2.75.02c.07.07.12.43.12.9 0 .63-.03.79-.17.87s-.08.1.27.1c.25 0 .4-.03.33-.06-.2-.07-.18-1.83.01-1.83.2 0 .46.28.46.5 0 .1-.1.25-.22.33q-.2.15-.12.16c.2.01.64-.4.64-.58 0-.32-.33-.51-.9-.51-.42 0-.51.03-.42.12m3.3-.05q.12.03.12.88c0 .7-.03.86-.17.94-.13.08.03.1.62.08.77-.02.8-.03.83-.27q.04-.32-.08-.07-.12.17-.5.17h-.4v-.84q0-.85.13-.9.07-.04-.28-.04c-.22 0-.34.02-.28.05m3.3 0q.14.03.13.88c0 .7-.03.86-.17.94-.13.08.03.1.62.08.7-.02.8-.04.83-.22q.05-.24-.09-.07a1 1 0 0 1-.51.12c-.38 0-.38 0-.38-.4 0-.36.03-.4.25-.4q.23 0 .25.1 0 .09.1.1.09-.02.1-.25 0-.23-.1-.25a.1.1 0 0 0-.1.1q-.02.09-.25.1c-.22 0-.25-.04-.25-.4 0-.38.02-.4.3-.4.17 0 .33.07.39.17.12.21.24.13.15-.1-.05-.14-.2-.17-.73-.16-.36 0-.6.03-.54.06m3.26.04c.24.14.67 1.02.67 1.38q-.01.29-.17.4c-.14.08-.07.1.32.1s.46-.02.33-.1q-.19-.09-.18-.55c0-.53.12-.8.48-1.11.22-.19.24-.23.1-.23-.26 0-.68.45-.68.72q.02.31-.2-.15c-.12-.2-.18-.42-.15-.47.04-.06-.1-.1-.32-.1q-.44 0-.2.1"/></svg>