<svg xmlns="http://www.w3.org/2000/svg" width="24" height="24"><path fill="#FFF" fill-rule="evenodd" d="M11.7 8.2V10h2.8V8.9h-1.4V6.4h-1.4zM3 9.64v1.86h1.4V11c0-.63.16-.63.4 0l.18.45.7.03c.4.02.72-.01.72-.06s-.11-.35-.25-.66l-.25-.57.2-.26c.24-.31.27-1 .05-1.43-.26-.5-.66-.64-1.98-.68L3 7.78zm4.3-1.66c-1.18.64-1.18 2.76 0 3.37.46.24 1.5.2 1.9-.08.54-.36.75-.8.75-1.62 0-.78-.19-1.22-.68-1.59-.4-.3-1.5-.34-1.97-.08m2.8 1.62v1.8h2.71l-.03-.57-.03-.58-.65-.01-.65-.01L11.42 9l-.02-1.2h-1.3zm4.6 0v1.8h2.81l-.03-.57-.03-.58-.7-.01c-.41 0-.7-.06-.73-.13q-.03-.1.52-.11h.56v-.8h-.56q-.58 0-.52-.12.05-.13.81-.16l.76-.03.03 1.23.03 1.23.68.03.67.03v-.51c0-.64.18-.63.41 0l.17.45.7.03c.4.02.72 0 .72-.02l-.26-.65-.26-.6.2-.27c.25-.3.29-.95.1-1.34a2 2 0 0 0-.47-.47c-.32-.22-.4-.23-2.97-.23H14.7zm4.3-.4q0 .5.45.16c.16-.12.17-.16.06-.3a.5.5 0 0 0-.32-.16c-.14 0-.19.07-.19.3m-14.6.05c0 .2.05.25.25.25s.25-.05.25-.25S4.85 9 4.65 9s-.25.05-.25.25m3.44-.14c-.12.2-.08.97.06 1.14.36.44.9-.16.75-.82-.09-.33-.14-.38-.42-.41-.17-.02-.35.02-.39.1"/></svg>