<?xml version="1.0" encoding="UTF-8" standalone="no"?>
<svg viewBox="0 0 18.040001 21.999998" width="18.040001pt" height="21.999998pt" version="1.1" id="svg1" sodipodi:docname="pink_master_pin.svg" xml:space="preserve" xmlns:inkscape="http://www.inkscape.org/namespaces/inkscape" xmlns:sodipodi="http://sodipodi.sourceforge.net/DTD/sodipodi-0.dtd" xmlns="http://www.w3.org/2000/svg" xmlns:svg="http://www.w3.org/2000/svg"><defs id="defs1"/><sodipodi:namedview id="namedview1" pagecolor="#ffffff" bordercolor="#000000" borderopacity="0.25" inkscape:showpageshadow="2" inkscape:pageopacity="0.0" inkscape:pagecheckerboard="0" inkscape:deskcolor="#d1d1d1" inkscape:document-units="pt" inkscape:lockguides="true"><inkscape:page x="0" y="0" width="18.040001" height="21.999998" id="page2" margin="0" bleed="0"/></sodipodi:namedview><g id="g1" transform="matrix(0.0824912,0,0,0.0824912,0.80354582,2.2341664)"><path d="M 0,0 C 3.5,1.875 3.5,1.875 6,4 6,4.66 6,5.32 6,6 6.66,6 7.32,6 8,6 8,4.35 8,2.7 8,1 10.061321,0.89135055 12.124313,0.81411679 14.1875,0.75 15.336055,0.70359375 16.484609,0.6571875 17.667969,0.609375 21.685998,1.0804218 23.188424,2.1434784 26,5 c 2.850895,4.30226 2.644203,9.019209 2,14 -2.045806,4.091612 -3.722209,6.403153 -8,8 -3.234375,0.195312 -3.234375,0.195312 -6.75,0.125 C 12.079531,27.10695 10.909062,27.08891 9.703125,27.07031 8.8110938,27.047109 7.9190625,27.023906 7,27 7,26.01 7,25.02 7,24 6.21625,24.66 5.4325,25.32 4.625,26 0.39884197,28.854422 -4.0809483,28.516458 -9,28 c -0.99,-0.33 -1.98,-0.66 -3,-1 -2.332998,-0.03954 -4.667082,-0.04402 -7,0 -0.33,-0.99 -0.66,-1.98 -1,-3 -2.97,-0.33 -5.94,-0.66 -9,-1 -0.33,1.32 -0.66,2.64 -1,4 -26.07,0 -52.14,0 -79,0 -0.495,-2.97 -0.495,-2.97 -1,-6 -0.99,1.98 -1.98,3.96 -3,6 -1.65,0 -3.3,0 -5,0 -0.32613,-0.785039 -0.65227,-1.570078 -0.98828,-2.378906 -0.90059,-2.165125 -1.80706,-4.327808 -2.71875,-6.488282 -0.7439,-1.802425 -1.4645,-3.615703 -2.11719,-5.453124 C -124.52505,10.604978 -124.52505,10.604978 -126,8 c -2.475,-0.495 -2.475,-0.495 -5,-1 0,6.93 0,13.86 0,21 -2.31,0 -4.62,0 -7,0 0,-6.93 0,-13.86 0,-21 -1.32,0 -2.64,0 -4,0 -0.12375,1.11375 -0.2475,2.2275 -0.375,3.375 C -143,14 -143,14 -145,16 c 0.26255,2.625477 0.96243,3.950413 2.5625,6.0625 C -141,24 -141,24 -141,27 c -2.31,0 -4.62,0 -7,0 -1.32,-2.31 -2.64,-4.62 -4,-7 -0.33,2.31 -0.66,4.62 -1,7 -2.31,0 -4.62,0 -7,0 0,-8.58 0,-17.16 0,-26 13,0 13,0 17,2 0,-0.66 0,-1.32 0,-2 7.26,0 14.52,0 22,0 5,11.75 5,11.75 5,14 0.66,0 1.32,0 2,0 0.18176,-0.88752 0.18176,-0.88752 0.36719,-1.792969 0.16758,-0.790195 0.33515,-1.58039 0.50781,-2.394531 0.16242,-0.777305 0.32484,-1.5546094 0.49219,-2.3554687 C -112,6 -112,6 -110,1 c 26.07,0 52.14,0 79,0 0.33,0.99 0.66,1.98 1,3 0.33,-0.99 0.66,-1.98 1,-3 2.64,0 5.28,0 8,0 0.503678,1.4570673 1.002826,2.915701 1.5,4.375 0.417656,1.2181641 0.417656,1.2181641 0.84375,2.4609375 C -18,10 -18,10 -18,12 c 0.66,0 1.32,0 2,0 0.06188,-0.886875 0.12375,-1.77375 0.1875,-2.6875 C -14.810041,5.2255532 -13.159755,3.6973517 -10,1 -6.7887026,-0.60564871 -3.4832594,-0.48378603 0,0 Z" fill="#FFFFFF" transform="translate(164,84)" id="path2"/><path d="M 0,0 C 3.5,1.875 3.5,1.875 6,4 6,4.66 6,5.32 6,6 6.66,6 7.32,6 8,6 8,4.35 8,2.7 8,1 10.061321,0.89135055 12.124313,0.81411679 14.1875,0.75 15.336055,0.70359375 16.484609,0.6571875 17.667969,0.609375 21.685998,1.0804218 23.188424,2.1434784 26,5 c 2.850895,4.30226 2.644203,9.019209 2,14 -2.045806,4.091612 -3.722209,6.403153 -8,8 -3.234375,0.195312 -3.234375,0.195312 -6.75,0.125 C 12.079531,27.10695 10.909062,27.08891 9.703125,27.07031 8.8110938,27.047109 7.9190625,27.023906 7,27 7,26.01 7,25.02 7,24 6.21625,24.66 5.4325,25.32 4.625,26 0.39884197,28.854422 -4.0809483,28.516458 -9,28 c -0.99,-0.33 -1.98,-0.66 -3,-1 -2.332998,-0.03954 -4.667082,-0.04402 -7,0 -0.33,-0.99 -0.66,-1.98 -1,-3 -2.97,-0.33 -5.94,-0.66 -9,-1 -0.66,1.32 -1.32,2.64 -2,4 -0.05432,-3.021079 -0.09383,-6.041165 -0.125,-9.0625 -0.01676,-0.847559 -0.03352,-1.695117 -0.05078,-2.568359 C -31.215961,10.165818 -30.697458,5.9253018 -29,1 c 2.64,0 5.28,0 8,0 0.503678,1.4570673 1.002826,2.915701 1.5,4.375 0.278438,0.8121094 0.556875,1.6242187 0.84375,2.4609375 C -18,10 -18,10 -18,12 c 0.66,0 1.32,0 2,0 0.09281,-1.330312 0.09281,-1.330312 0.1875,-2.6875 C -14.810041,5.2255532 -13.159755,3.6973517 -10,1 -6.7887026,-0.60564871 -3.4832594,-0.48378603 0,0 Z" fill="#FFFFFF" transform="translate(164,84)" id="path3"/><path d="m 0,0 c 13,0 13,0 17,2 0,-0.66 0,-1.32 0,-2 7.26,0 14.52,0 22,0 5,11.75 5,11.75 5,14 0.66,0 1.32,0 2,0 0.181758,-0.88752 0.181758,-0.88752 0.367187,-1.792969 C 46.534766,11.416836 46.702344,10.626641 46.875,9.8125 47.037422,9.0351953 47.199844,8.2578906 47.367187,7.4570312 48,5 48,5 50,0 c 26.07,0 52.14,0 79,0 0,8.58 0,17.16 0,26 -25.74,0 -51.48,0 -78,0 -0.495,-2.97 -0.495,-2.97 -1,-6 -0.99,1.98 -1.98,3.96 -3,6 -1.65,0 -3.3,0 -5,0 -0.326133,-0.785039 -0.652266,-1.570078 -0.988281,-2.378906 -0.900586,-2.165125 -1.807061,-4.327808 -2.71875,-6.488282 C 37.549075,15.330387 36.828468,13.517109 36.175781,11.679688 35.474947,9.6049778 35.474947,9.6049778 34,7 31.525,6.505 31.525,6.505 29,6 c 0,6.93 0,13.86 0,21 -2.31,0 -4.62,0 -7,0 C 22,20.07 22,13.14 22,6 20.68,6 19.36,6 18,6 17.87625,7.11375 17.7525,8.2275 17.625,9.375 17,13 17,13 15,15 c 0.262548,2.625477 0.962434,3.950413 2.5625,6.0625 C 19,23 19,23 19,26 16.69,26 14.38,26 12,26 10.68,23.69 9.36,21.38 8,19 7.67,21.31 7.34,23.62 7,26 4.69,26 2.38,26 0,26 0,17.42 0,8.84 0,0 Z m 52,1 c 0,7.92 0,15.84 0,24 25.08,0 50.16,0 76,0 0,-7.92 0,-15.84 0,-24 -25.08,0 -50.16,0 -76,0 z" fill="#FFFFFF" transform="translate(4,85)" id="path4"/><path d="m 0,0 c 4.29,0 8.58,0 13,0 4,4 4,4 4.460937,6.2890625 C 17.418398,7.4453516 17.418398,7.4453516 17.375,8.625 17.355664,9.7890234 17.355664,9.7890234 17.335937,10.976563 17,13 17,13 15,15 c 0.262548,2.625477 0.962434,3.950413 2.5625,6.0625 C 19,23 19,23 19,26 16.69,26 14.38,26 12,26 10.68,23.69 9.36,21.38 8,19 7.67,21.31 7.34,23.62 7,26 4.69,26 2.38,26 0,26 0,17.42 0,8.84 0,0 Z" fill="#FFFFFF" transform="translate(4,85)" id="path5"/><path d="M 0,0 C 0.95648438,-0.01675781 1.9129687,-0.03351563 2.8984375,-0.05078125 6.0340626,0.36700261 7.3914279,1.0997054 9.625,3.3125 c 0.608676,3.5759715 0.444058,5.2969077 -1.5,8.375 -3.4464733,2.240208 -6.5553566,2.298094 -10.5,1.625 -2.36293,-1.156327 -4.1498375,-2.149838 -6,-4 C -7.7515963,2.4550591 -7.1288691,0.02866837 0,0 Z" fill="#FFFFFF" transform="translate(119.375,91.6875)" id="path6"/><path d="M 0,0 C 1.0815234,-0.01417969 2.1630469,-0.02835937 3.2773438,-0.04296875 6.0625,0.1875 6.0625,0.1875 8.0625,2.1875 8.2578125,4.7890625 8.2578125,4.7890625 8.1875,7.8125 8.169453,8.8153906 8.151406,9.8182813 8.132813,10.851563 8.098008,12.007852 8.098008,12.007852 8.062501,13.1875 c -1.32,0 -2.64,0 -4,0 0,-1.32 0,-2.64 0,-4 -1.98,0 -3.96,0 -6,0 0,1.65 0,3.3 0,5 -1.65,0 -3.3,0 -5,0 C -6.9643594,12.041734 -6.9838309,9.8958735 -7,7.75 -7.0116016,6.5550391 -7.0232031,5.3600781 -7.0351562,4.1289062 -6.8645196,-1.0106698 -4.5924231,0.02730335 0,0 Z" fill="#FFFFFF" transform="translate(100.9375,90.8125)" id="path7"/><path d="m 0,0 c 2.97,0.495 2.97,0.495 6,1 0.33,0.99 0.66,1.98 1,3 2.31,-0.66 4.62,-1.32 7,-2 0,1.65 0,3.3 0,5 -3.63,0 -7.26,0 -11,0 0,1.65 0,3.3 0,5 1.32,0 2.64,0 4,0 C 6.125,15.875 6.125,15.875 5,17 2.6875,17.4375 2.6875,17.4375 0,17 -2.6264672,14.018605 -3.8583213,11.867782 -4.5,7.9375 -3.8858421,4.3293221 -2.4792626,2.6342165 0,0 Z" fill="#FFFFFF" transform="translate(158,90)" id="path8"/><path d="m 0,0 c 1.32,0 2.64,0 4,0 0,6.93 0,13.86 0,21 2.31,0 4.62,0 7,0 0,-6.93 0,-13.86 0,-21 1.65,0 3.3,0 5,0 0.33,0.66 0.66,1.32 1,2 -2.475,-0.495 -2.475,-0.495 -5,-1 0,6.93 0,13.86 0,21 -5.61,0 -11.22,0 -17,0 -0.33,-0.66 -0.66,-1.32 -1,-2 2.31,0 4.62,0 7,0 C 0.0409375,18.39125 0.0409375,18.39125 -0.9375,16.75 -3.9150023,11.464933 -3.9150023,11.464933 -4,9 -3.0354217,7.6408214 -2.0314537,6.3091528 -1,5 -0.28566879,2.3506518 -0.28566879,2.3506518 0,0 Z" fill="#FFFFFF" transform="translate(22,91)" id="path9"/><path d="m 0,0 c 4.62,0 9.24,0 14,0 0,0.99 0,1.98 0,3 -2.97,0 -5.94,0 -9,0 0,0.66 0,1.32 0,2 2.64,0 5.28,0 8,0 0,0.99 0,1.98 0,3 -2.64,0 -5.28,0 -8,0 0,0.99 0,1.98 0,3 2.97,0 5.94,0 9,0 0,0.99 0,1.98 0,3 C 9.38,14 4.76,14 0,14 0,9.38 0,4.76 0,0 Z" fill="#FFFFFF" transform="translate(59,91)" id="path10"/><path d="M 0,0 C 2.97,0 5.94,0 9,0 9,0.99 9,1.98 9,3 6.36,2.67 3.72,2.34 1,2 0.67,3.32 0.34,4.64 0,6 -26.4,5.67 -52.8,5.34 -80,5 c 0,-0.33 0,-0.66 0,-1 26.07,0 52.14,0 79,0 0.33,-1.32 0.66,-2.64 1,-4 z" fill="#FFFFFF" transform="translate(135,107)" id="path11"/><path d="M 0,0 C 1.32,0 2.64,0 4,0 4.080821,1.9576628 4.1391078,3.9162673 4.1875,5.875 4.222305,6.9655469 4.257109,8.0560938 4.2929687,9.1796875 4.1962891,10.110391 4.0996094,11.041094 4,12 0.86588698,14.089409 0.02549528,14.273644 -3.5625,14.25 -4.7400586,14.2577 -4.7400586,14.2577 -5.9414062,14.26563 -8,14 -8,14 -10,12 -10.195313,9.3984375 -10.195313,9.3984375 -10.125,6.375 -10.10695,5.3721094 -10.08891,4.3692187 -10.07031,3.3359375 -10.047109,2.5650781 -10.023906,1.7942187 -10,1 c 0.99,0 1.98,0 3,0 0.33,2.97 0.66,5.94 1,9 2.97,0.495 2.97,0.495 6,1 C 0,7.37 0,3.74 0,0 Z" fill="#FFFFFF" transform="translate(87,91)" id="path12"/><path d="M 0,0 C 5,0 5,0 6.8125,1.0625 8.7028046,4.1466812 8.4266234,6.4651205 8,10 6.25,12.9375 6.25,12.9375 4,15 2.68,15 1.36,15 0,15 0,10.05 0,5.1 0,0 Z" fill="#FFFFFF" transform="translate(178,91)" id="path13"/><path d="m 0,0 c 0,7.92 0,15.84 0,24 -0.33,0 -0.66,0 -1,0 -0.33,-3.3 -0.66,-6.6 -1,-10 -0.33,0 -0.66,0 -1,0 -0.66,-1.98 -1.32,-3.96 -2,-6 -3.3,-0.66 -6.6,-1.32 -10,-2 0,-0.33 0,-0.66 0,-1 2.64,0 5.28,0 8,0 C -6.87625,4.360625 -6.7525,3.72125 -6.625,3.0625 -6.41875,2.381875 -6.2125,1.70125 -6,1 -4,0 -4,0 0,0 Z" fill="#FFFFFF" transform="translate(132,86)" id="path14"/><path d="m 0,0 c 3,0.25 3,0.25 5,2.25 0.125,2.625 0.125,2.625 0,5 -2.9566452,1.4783226 -5.74229737,1.0603278 -9,1 -0.625,-2.875 -0.625,-2.875 -1,-6 2,-2 2,-2 5,-2.25 z" fill="#FFFFFF" transform="translate(120,93.75)" id="path15"/><path d="M 0,0 C 1.9580351,-0.05389087 3.9164891,-0.09274217 5.875,-0.125 7.5108203,-0.15980469 7.5108203,-0.15980469 9.1796875,-0.1953125 12,0 12,0 14,2 13.625,5.125 13.625,5.125 13,8 12.34,8 11.68,8 11,8 11,7.34 11,6.68 11,6 8.36,6 5.72,6 3,6 3,4.68 3,3.36 3,2 2.01,1.34 1.02,0.68 0,0 Z" fill="#FFFFFF" transform="translate(95,91)" id="path16"/><path d="M 0,0 C 0,0.99 0,1.98 0,3 2.0836309,2.8584817 4.1668994,2.7116206 6.25,2.5625 7.9902344,2.4406836 7.9902344,2.4406836 9.765625,2.3164063 12.309774,2.0675221 14.559532,1.7188506 17,1 16,4 16,4 14,5 7.2806836,5.3195199 0.61986773,5.2316033 -6,4 -2.25,0 -2.25,0 0,0 Z" fill="#FFFFFF" transform="translate(171,108)" id="path17"/><path d="m 0,0 c 3.3,0 6.6,0 10,0 0,0.33 0,0.66 0,1 C 7.69,1 5.38,1 3,1 3.33,2.32 3.66,3.64 4,5 5.65,5.33 7.3,5.66 9,6 9,6.33 9,6.66 9,7 7.02,7 5.04,7 3,7 3,8.65 3,10.3 3,12 2.01,12 1.02,12 0,12 0,8.04 0,4.08 0,0 Z" fill="#FFFFFF" transform="translate(95,92)" id="path18"/><path d="m 0,0 c 0,3.96 0,7.92 0,12 -0.66,0 -1.32,0 -2,0 -2.1875,-2.8125 -2.1875,-2.8125 -4,-6 0.33,-0.99 0.66,-1.98 1,-3 0.66,0 1.32,0 2,0 0,-0.66 0,-1.32 0,-2 2,-1 2,-1 3,-1 z" fill="#FFFFFF" transform="translate(25,98)" id="path19"/><path d="m 0,0 c 0.33,0 0.66,0 1,0 0,1.65 0,3.3 0,5 -3.63,0 -7.26,0 -11,0 0,1.65 0,3.3 0,5 1.32,0 2.64,0 4,0 -0.875,3.875 -0.875,3.875 -2,5 -1.6661712,0.04064 -3.333881,0.04272 -5,0 1.32,-0.33 2.64,-0.66 4,-1 -0.66,-0.99 -1.32,-1.98 -2,-3 -0.07905,-2.3319939 -0.08799,-4.6683262 0,-7 3.63,0 7.26,0 11,0 C 0,2.68 0,1.36 0,0 Z" fill="#FFFFFF" transform="translate(171,92)" id="path20"/><path d="M 0,0 C 2.97,0 5.94,0 9,0 9,0.99 9,1.98 9,3 6.36,2.67 3.72,2.34 1,2 0.67,3.32 0.34,4.64 0,6 -2.64,6 -5.28,6 -8,6 -8,5.67 -8,5.34 -8,5 -6.576875,4.87625 -6.576875,4.87625 -5.125,4.75 -4.09375,4.5025 -3.0625,4.255 -2,4 -1.34,2.68 -0.68,1.36 0,0 Z" fill="#FFFFFF" transform="translate(135,107)" id="path21"/><path d="M 0,0 C 1.3756285,1.2896518 2.7076639,2.6268929 4,4 4,4.66 4,5.32 4,6 3.34,6 2.68,6 2,6 1.67,7.32 1.34,8.64 1,10 -1.31,10 -3.62,10 -6,10 -6.33,9.34 -6.66,8.68 -7,8 -4.69,8 -2.38,8 0,8 0,5.36 0,2.72 0,0 Z" fill="#FFFFFF" transform="translate(11,103)" id="path22"/><path d="M 0,0 C 0.33,0 0.66,0 1,0 1.33,2.31 1.66,4.62 2,7 4.31,7.33 6.62,7.66 9,8 9,8.33 9,8.66 9,9 7.5420712,9.0539974 6.0835729,9.0927918 4.625,9.125 3.8128906,9.1482031 3.0007813,9.1714063 2.1640625,9.1953125 0,9 0,9 -2,7 -2.25,4.5 -2.25,4.5 -2,2 -1.34,1.34 -0.68,0.68 0,0 Z" fill="#FFFFFF" transform="translate(114,95)" id="path23"/><path d="M 0,0 C 0.66,0.33 1.32,0.66 2,1 2.5935561,3.6486043 2.7420927,6.2919732 3,9 1.35,9 -0.3,9 -2,9 -1.125,1.125 -1.125,1.125 0,0 Z" fill="#FFFFFF" transform="translate(139,93)" id="path24"/><path d="M 0,0 C 0.33,0 0.66,0 1,0 1.1875,3.375 1.1875,3.375 1,7 -2.2279156,9.1519437 -3.2840081,9.2008644 -7,9 -7.33,8.34 -7.66,7.68 -8,7 -6.35,7 -4.7,7 -3,7 -2.690625,6.030625 -2.38125,5.06125 -2.0625,4.0625 -1,1 -1,1 0,0 Z" fill="#FFFFFF" transform="translate(54,104)" id="path25"/><path d="M 0,0 C 2.1724061,3.2586091 2.2356416,3.820508 1.8125,7.5 1.7364453,8.2734375 1.6603906,9.046875 1.5820312,9.84375 0.9062105,12.347462 -0.03996044,13.351665 -2,15 -2.66,14.67 -3.32,14.34 -4,14 -3.525625,13.360625 -3.05125,12.72125 -2.5625,12.0625 -0.52968613,8.0781848 -0.2789471,4.4150593 0,0 Z" fill="#FFFFFF" transform="translate(192,94)" id="path26"/><path d="M 0,0 C 1.32,0 2.64,0 4,0 4,0.66 4,1.32 4,2 3.01,2 2.02,2 1,2 1.0825,2.9075 1.165,3.815 1.25,4.75 1,8 1,8 -1,10.375 -1.66,10.91125 -2.32,11.4475 -3,12 -3.33,11.01 -3.66,10.02 -4,9 -3.0143939,7.6559917 -2.0124169,6.3239297 -1,5 -0.28566879,2.3506518 -0.28566879,2.3506518 0,0 Z" fill="#FFFFFF" transform="translate(22,91)" id="path27"/><path d="M 0,0 C 2.9375,0.375 2.9375,0.375 6,1 6.33,1.66 6.66,2.32 7,3 4.69,2.67 2.38,2.34 0,2 -0.99,4.97 -1.98,7.94 -3,11 -3.33,11 -3.66,11 -4,11 -4.3663016,7.0622582 -4.302332,5.4346023 -2,2.125 -1.34,1.42375 -0.68,0.7225 0,0 Z" fill="#FFFFFF" transform="translate(158,90)" id="path28"/><path d="M 0,0 C 2.1640625,0.0234375 2.1640625,0.0234375 4.625,0.375 5.8508984,0.54128906 5.8508984,0.54128906 7.1015625,0.7109375 7.7280469,0.80632812 8.3545313,0.90171875 9,1 9,1.33 9,1.66 9,2 8.0602734,2.1295508 8.0602734,2.1295508 7.1015625,2.2617188 4.6321712,2.6862671 2.3564316,3.1427242 0,4 -1.6761319,6.4701447 -1.6761319,6.4701447 -2,9 -2.33,9 -2.66,9 -3,9 -2.25,2.25 -2.25,2.25 0,0 Z" fill="#FFFFFF" transform="translate(114,92)" id="path29"/><path d="M 0,0 C 1.32,0 2.64,0 4,0 4,1.32 4,2.64 4,4 -0.08443115,5.5316617 -3.7945566,4.6308165 -8,4 -8,3.67 -8,3.34 -8,3 -5.36,3 -2.72,3 0,3 0,2.01 0,1.02 0,0 Z" fill="#FFFFFF" transform="translate(125,88)" id="path30"/><path d="M 0,0 C 2.475,0.495 2.475,0.495 5,1 4.67,2.32 4.34,3.64 4,5 2.68,5 1.36,5 0,5 0,3.35 0,1.7 0,0 Z" fill="#FFFFFF" transform="translate(11,91)" id="path31"/><path d="M 0,0 C 0,0.99 0,1.98 0,3 -2.64,3 -5.28,3 -8,3 -8.33,2.34 -8.66,1.68 -9,1 -2.25,0 -2.25,0 0,0 Z" fill="#FFFFFF" transform="translate(25,110)" id="path32"/><path d="M 0,0 C 1.65,0 3.3,0 5,0 4.125,3.875 4.125,3.875 3,5 1.3338288,5.0406383 -0.33388095,5.042721 -2,5 -0.68,4.67 0.64,4.34 2,4 1.34,2.68 0.68,1.36 0,0 Z" fill="#FFFFFF" transform="translate(160,102)" id="path33"/><path d="M 0,0 C 1.98,0 3.96,0 6,0 6,0.99 6,1.98 6,3 4.02,3 2.04,3 0,3 0,2.01 0,1.02 0,0 Z" fill="#FFFFFF" transform="translate(99,94)" id="path34"/></g></svg>
