<svg xmlns="http://www.w3.org/2000/svg" width="24" height="24"><path fill="#FFF" fill-rule="evenodd" d="M17.6 5c-.26.36-.18.54.19.45.14-.04.37-.09.5-.1q.49-.08.18-.3c-.1-.06-.17-.17-.17-.24 0-.24-.49-.1-.7.19m-.66.39q.04.08-.07.08c-.38-.01-.58.04-.52.14.04.06-.01.17-.12.24-.16.13-.15.14.2.15.3 0 .38.03.34.15q-.05.14.04.2.08.07.04.16c-.07.11.43.32.57.23.05-.03.07-.17.04-.3q-.1-.25.13-.17a1 1 0 0 1 .34.21c.21.26.54 1.1.67 1.76.11.54.1.6-.09.87q-.35.47-.11.34c.18-.11.1.3-.14.8l-.25.48.5.48c.28.27.52.49.54.49s.11-.24.21-.52q.18-.54.18-1.45l.01-.92.52-.53C20.5 7.73 21 6.9 21 6.58q.02-.23-.22-.15c-.13.04-.42.09-.65.13-.4.06-.41.08-.48.52-.04.24-.14.6-.23.79-.15.31-.17.33-.3.17q-.24-.34.02-.34c.2 0 .29-.3.1-.37a.16.16 0 0 1-.1-.2c.05-.13 0-.14-.24-.1-.26.06-.3.03-.36-.18a1 1 0 0 0-.2-.35 1.4 1.4 0 0 1-.2-.56c-.07-.5-.21-.58-.26-.16-.03.27-.05.28-.35.2-.28-.07-.33-.13-.33-.38q0-.3-.16-.3-.13 0-.1.09m-1.23.68q-.08.19-.23.06c-.21-.18-.4 0-.32.3q.07.27.3.33.47.1.27-.25c-.09-.14-.07-.2.08-.3.2-.12.26-.31.1-.31q-.1.02-.2.17m-2.76.5c-.16.24-.2.25-.74.2l-.81-.12c-.22-.05-.28 0-.55.51l-.34.67c-.02.05.3.08.81.06l.85-.04-.2.55c-.35.97-.32 2.93.04 3.16.05.03.33-.15.63-.4l.53-.46-.26-.52c-.22-.46-.26-.66-.26-1.48v-.94l.55-.3c.3-.15.7-.39.87-.52.28-.21.35-.23.53-.12.2.12.21.2.18 1.1-.04 1.17-.1 1.27-.69 1.04-.23-.1-.43-.15-.46-.13-.02.03.15.2.38.4l.41.36-.2.26a3 3 0 0 1-.46.46l-.25.2.3.48c.16.27.29.53.29.6q.01.1.14.11c.16 0 .58-.59.86-1.23.16-.35.26-.47.38-.43.1.03.39.08.65.12l.48.06-.07.43-.06.43.59.28.66.32c.12.06.08-.8-.08-1.47-.29-1.21-.86-1.99-2.42-3.31a2 2 0 0 1-.36-.4q-.05-.17-.15-.02a.2.2 0 0 1-.23.07 2 2 0 0 0-.77.09c-.6.14-.73.11-.51-.1q.1-.12.01-.18c-.05-.03-.18.06-.27.2m-8.42-.05c-.93.18-1.43.69-1.43 1.45 0 .52.32 1.01.85 1.31.52.3.72.28 1.18-.07.43-.32.59-.3.76.06.17.37.14.6-.12.9-.44.5-1.7.44-2.38-.13-.16-.14-.33-.23-.36-.2-.12.12.83 1.52 1.13 1.66.74.36 1.8.22 2.3-.3.39-.4.46-1.23.14-1.74a2 2 0 0 0-.46-.51q-.2-.15-.18-.29.08-.2-1.08-.28c-.77-.05-1.16-.84-.62-1.26.49-.38 1.33-.37 2.28.04.4.17.09-.2-.35-.41a2.6 2.6 0 0 0-1.66-.23m3.62-.01q.04.09-.11.1c-.15 0-.14.03.06.24.2.23.22.32.18 1.16-.02.5-.1.95-.15 1.01-.09.09-.23.07-.54-.05-.23-.1-.43-.15-.46-.13-.02.03.15.21.39.41l.42.37-.46.46-.46.46.32.58c.17.32.36.59.42.59.15 0 .58-.63.82-1.21l.2-.46.49.08.6.08q.13.01.13.45c0 .44 0 .45.6.75.71.35.76.3.66-.53a5 5 0 0 0-1.69-3.2l-1-.91c-.36-.34-.54-.45-.42-.25m.58 1.01c.03.1.09.53.12.98.08.86.08.86.63.81.13 0 .3.04.39.12.14.11.15.1.08-.12a5 5 0 0 0-.93-1.58c-.18-.2-.31-.3-.29-.2m6.5 0c.03.08.09.52.12.97.08.86.08.86.63.81.13 0 .3.04.39.12.14.11.15.1.08-.12a5 5 0 0 0-.93-1.58c-.18-.2-.31-.3-.29-.2M8.66 12.4c-.25.3-.36.79-.17.79.05 0 .15-.1.23-.21q.13-.23.36-.15c.12.04.22.13.22.2s.32.11 1.1.11c1.07 0 1.1 0 1.1-.22q.01-.21.1-.23.1.02.1.2.01.18.1.2c.1 0 .14-.52.05-.62-.03-.03-.17-.03-.3 0q-.26.03-.26.3l-.01.27-.07-.25c-.05-.2-.14-.26-.4-.28-.27-.03-.33 0-.28.12q.04.14-.05.22-.12.09-.04-.34c.08-.52-.08-.55-.22-.04-.05.2-.1.3-.11.2-.01-.2-.31-.24-.49-.06q-.13.15-.12 0c0-.14-.36-.52-.5-.52-.04 0-.2.14-.34.3m3.94-.17c-.3.15-.37.52-.14.78.15.17.26.19.77.14.33-.03.64-.08.68-.1q.08-.05.09.02c0 .05.32.08.72.08.68-.01.73-.03.8-.26q.07-.34.07-.02c.01.24.17.4.23.22q.04-.13.25.01c.3.2.53.06.53-.3 0-.27-.03-.3-.3-.3-.17 0-.3.05-.3.12q0 .12-.16-.03c-.19-.2-.68-.13-.6.07q.03.12-.04.2-.1.03-.1-.15c0-.23-.15-.28-.23-.09q-.06.15-.06 0c0-.06-.13-.12-.27-.12-.21 0-.25.04-.21.2q.04.18-.04.2-.08-.02-.09-.25t-.1-.25q-.09.01-.1.11 0 .12-.15-.01c-.13-.1-.15-.09-.15.11q.02.32-.14.07-.25-.33-.26-.03c0 .22-.38.4-.56.24-.14-.12-.19-.4-.08-.52.03-.03.17-.02.3.03.27.1.45-.07.23-.21-.19-.12-.3-.11-.59.04"/></svg>