<svg xmlns="http://www.w3.org/2000/svg" width="24" height="24"><path fill="#FFF" fill-rule="evenodd" d="M11.95 4.02c-3.43.59-5.89 1.7-7.58 3.4-1.3 1.31-1.68 2.65-1.1 3.81.63 1.27 2.53 2.31 4.78 2.63.75.1 3.1.11 3.9 0 4.8-.61 8.9-3.36 9.01-6.01.07-1.8-1.74-3.2-4.86-3.79-.82-.15-3.34-.17-4.15-.04m1.14 1.68c-1.96.25-3.2.89-2.74 1.4.18.2.28.24 1.53.6.4.11.72.25.72.3 0 .15-.61.3-1.21.3a9 9 0 0 1-1.4-.16l-.82-.17-.33.4c-.4.47-.41.53-.06.54l.52.05a39 39 0 0 0 3.9 0 7 7 0 0 0 1.78-.42c.37-.15.92-.6.92-.76s-.54-.4-1.51-.66a3 3 0 0 1-1.07-.4c-.11-.36 1.74-.41 2.68-.07l.45.16.33-.37c.17-.2.32-.4.32-.44 0-.24-2.83-.45-4-.3m-6.47 4.6c-.18.1-.35.3-.37.42-.15.68-.1.97.28 1.34.45.45 1.05.48 1.55.06.28-.23.34-.36.39-.8.04-.48.02-.54-.3-.85a1.26 1.26 0 0 0-1.55-.17m7.25-.03c-.6.38-.67 1.26-.14 1.79.29.29.4.34.81.34.4 0 .52-.05.81-.34s.34-.4.34-.83q0-.73-.57-1.02a1.5 1.5 0 0 0-1.25.06"/></svg>