<svg xmlns="http://www.w3.org/2000/svg" width="24" height="24"><path fill="#FFF" fill-rule="evenodd" d="M10.55 2.07c-.63.08-1.92.34-2.4.5a8 8 0 0 0-1.95.83c0 .05.25.62.56 1.27l.71 1.56c.14.35.18.37.6.37.23 0 .43-.02.43-.05l-.6-1.37c-.33-.73-.6-1.36-.6-1.4 0-.1 1.76-.63 2.6-.8a16 16 0 0 1 4.4.05c1.03.22 2.4.67 2.4.78 0 .04-.27.67-.6 1.39l-.6 1.35c0 .03.2.05.43.05h.44l.72-1.57c.4-.87.71-1.6.71-1.64a12 12 0 0 0-4.06-1.28 18 18 0 0 0-3.19-.04m.16 2.2c-.1.15-.12.16-.2.03-.18-.26-.23-.03-.07.29.09.16.16.37.16.46q0 .14.09.15c.08 0 .24-1 .17-1.08q-.04-.02-.15.15m.4-.03q-.12.16-.05.5c.05.3.1.36.3.36q.25 0 .24-.2c0-.21-.2-.28-.21-.08q-.01.1-.08-.17c-.08-.34-.04-.46.09-.25.11.18.25.06.17-.15-.08-.19-.3-.2-.46 0m.99-.05q-.14.1-.02.1.11.01.12.4c0 .22.05.4.1.4s.1-.22.1-.5c0-.51-.04-.57-.3-.4m.57-.04c-.13.14-.07.54.08.54q.14 0 .15.1-.01.08-.15.04-.15-.05-.15.1 0 .17.23.14c.19-.03.22-.09.22-.48q0-.47-.15-.48c-.09-.01-.2 0-.23.04M10 4.4c0 .23 0 .23-.14.04q-.31-.4-.2.4c.06.47.24.64.24.24q-.01-.3.1-.05c.2.31.3.19.24-.25-.07-.49-.24-.75-.24-.38m3.3.06c0 .14.04.23.1.19q.1-.04.1.17.01.26-.1.08c-.11-.18-.25-.07-.17.15.1.24.37.17.48-.12.08-.22.07-.3-.05-.39-.17-.12-.22-.3-.07-.2q.09.05.16-.04.04-.1-.2-.1c-.2 0-.25.05-.25.26m.72-.13c-.18.23-.22.75-.07.87.19.16.45-.03.45-.32 0-.1-.07-.21-.15-.24q-.14-.06-.15-.16 0-.09.15.02.17.16.15-.03c0-.2-.26-.3-.38-.14M4.82 7.1q-.7.15-.79.88c-.05.36-.02.45.25.72q.3.3.62.3c.41 0 .7.16.7.4 0 .3-.56.4-1.05.18-.22-.1-.29-.09-.48.1-.22.23-.22.23-.02.38.3.22.94.36 1.31.3.19-.04.47-.18.64-.32.25-.21.3-.33.3-.67 0-.64-.27-.88-1.08-1.02q-.7-.12-.42-.5c.15-.18.53-.2.81-.04.16.08.25.07.4-.07.25-.22.24-.3-.03-.48-.3-.19-.76-.25-1.17-.16m13.72.01c-.17.05-.43.23-.57.4-.23.28-.26.39-.26 1.15 0 1 .14 1.34.64 1.58.42.2.69.2 1.1 0 .5-.23.66-.6.66-1.57 0-.77-.03-.88-.25-1.16-.24-.27-.4-.36-.85-.46-.08-.02-.3.01-.47.06M6.63 8.72l.02 1.63.69.01c.82.02 1.25-.09 1.49-.37.2-.25.22-.87.03-1.15-.12-.17-.12-.22 0-.39.23-.31.17-.73-.15-1.06-.28-.28-.33-.29-1.2-.29H6.6zm3.05-.06c-.31.87-.57 1.6-.57 1.64s.16.06.36.06c.3 0 .38-.05.46-.29.1-.26.14-.28.62-.28s.52.02.62.29c.1.24.16.28.45.27.42-.02.43.04-.25-1.78-.5-1.37-.54-1.43-.82-1.46-.29-.03-.3-.02-.87 1.55m2.6-1.4c-.03.1-.04.83-.03 1.63l.01 1.45h.7l.03-.62q.06-1.29.67 0c.29.6.32.62.68.63.2 0 .37-.03.37-.08s-.14-.36-.31-.7c-.26-.52-.29-.63-.17-.72.43-.32.5-1.01.14-1.43-.23-.26-.3-.28-1.14-.31-.8-.04-.9-.02-.95.15m2.75 1.45.03 1.63h.32l.33.02v-.63c0-.57.02-.64.2-.64q.18-.02.52.63c.31.59.35.62.7.63.21 0 .38-.01.38-.05 0-.03-.14-.34-.32-.67l-.32-.61.27-.32c.3-.37.34-.69.12-1.12-.2-.4-.5-.49-1.46-.49H15zM7.4 8.05c0 .32.02.35.3.35.23 0 .6-.21.6-.35s-.37-.35-.6-.35c-.28 0-.3.03-.3.35m5.6.05c0 .36.02.4.26.4.36 0 .64-.17.64-.4s-.28-.4-.64-.4c-.24 0-.26.04-.26.4m2.74-.26a1 1 0 0 0-.02.38c.02.18.1.24.34.26.3.03.64-.17.64-.38 0-.33-.85-.56-.96-.26m2.8.11c-.12.19-.15.41-.12.9.04.67.14.85.5.85.34 0 .48-.28.48-1 0-.49-.04-.73-.16-.84-.23-.23-.51-.2-.7.09m-8.12.64c-.17.47-.15.51.13.51s.3-.1.11-.55l-.12-.3zm-3.02.76c0 .32.03.35.3.35.43 0 .6-.1.6-.35S8.13 9 7.7 9c-.27 0-.3.03-.3.35m2.2 1.48.8 1.78 1.18 2.56c.2.45.4.83.42.83.03 0 .23-.4.44-.88l1.18-2.55c.43-.92.78-1.7.78-1.73 0-.02-.2-.04-.44-.04h-.44l-.73 1.6c-.4.88-.76 1.6-.79 1.6s-.38-.72-.8-1.6l-.73-1.6h-.43c-.24 0-.44.01-.44.03"/></svg>