<svg xmlns="http://www.w3.org/2000/svg" width="24" height="24"><path fill="#FFF" fill-rule="evenodd" d="M3.63 7.84c-.65.3-.67.86-.05 1.44q.34.32.15.23c-.32-.16-.5-.14-.63.1q-.23.38.46.6c.46.14.95.05 1.28-.26l.27-.24.2.2c.42.42 1.03.5 1.61.2.35-.18.37-.18.41 0 .04.14.14.19.4.19q.56 0 .57-.42 0-.17.1-.18.09.01.1.19c0 .49.71.56.8.08l.05-.29.24.26c.44.47 1.41.43 1.76-.07l.15-.21v.2q.02.46.62.42c.27-.02.34-.08.36-.3q.01-.27.3-.33c.15-.04.35-.14.45-.22.16-.15.17-.14.17.23 0 .53.14.64.78.64.58 0 1.03-.18 1.26-.51l.15-.22.3.3c.54.55 1.28.55 1.81.01l.3-.3.2.26c.47.59 1.53.56 2.04-.05.46-.55.3-.89-.44-.89-.25 0-.51.05-.58.12q-.13.16-.12-.2c0-.25.04-.32.19-.32.1 0 .24.07.31.15.14.17.56.2.65.04a.2.2 0 0 1 .19-.06c.06.02.21 0 .34-.04.3-.11.31-.63.01-.8-.16-.08-.26-.07-.45.06-.24.15-.29.15-.66 0-.5-.2-1.1-.06-1.47.34l-.26.28-.19-.24a2 2 0 0 0-.54-.4c-.47-.2-1-.05-1.36.37-.24.3-.25.3-.36.1q-.28-.5-1.35-.5c-.48 0-.67.04-.71.15-.05.12-.09.12-.29 0-.16-.12-.43-.15-.91-.13-.62.03-.69.05-.74.26l-.05.24-.19-.2c-.42-.48-1.22-.48-1.73 0-.23.21-.23.21-.23.01 0-.32-.26-.48-.55-.35-.22.1-.25.18-.25.62 0 .27-.04.5-.1.5-.05 0-.1-.23-.1-.5 0-.44-.03-.52-.24-.61-.3-.14-.76-.04-.76.16 0 .19-.05.19-.36-.02-.6-.38-1.5-.12-1.84.53l-.18.33q-.03.04-.14-.07-.12-.1.06-.27c.22-.22.2-.32-.07-.5a1.2 1.2 0 0 0-1.14-.1m2.54.72c-.1.1-.08.76.03.93.08.12.14.11.4-.08q.31-.22.5-.17c.17.05.2.02.2-.23s-.03-.3-.2-.25c-.1.03-.29-.02-.42-.11q-.35-.25-.51-.1m4.13.49q-.01.88.43.37c.32-.35.16-.92-.25-.92-.15 0-.18.09-.18.55m4.1 0c0 .58.07.66.33.37.3-.33.16-.92-.2-.92q-.14-.01-.13.55m2.3 0c0 .48.03.56.17.53.1-.02.24-.15.32-.3.19-.33.02-.78-.29-.78-.18 0-.2.06-.2.56"/></svg>