<svg xmlns="http://www.w3.org/2000/svg" width="24" height="24"><path fill="#FFF" fill-rule="evenodd" d="M5.37 5.5C3.45 6 2.58 8.05 3.81 9.22c.38.36.51.42 1.69.7.44.1.56.17.58.36q.05.23-.23.32c-.43.16-.69.12-1.41-.24a7 7 0 0 0-.7-.33l-.18.47-.37.93-.2.48.47.2a6 6 0 0 0 2.78.4c1.63-.29 2.6-1.37 2.42-2.69-.13-.96-.66-1.43-2-1.77-.61-.15-.82-.25-.84-.39-.08-.42.66-.48 1.44-.12l.52.24.33-.84c.37-.97.36-.99-.41-1.29a5.4 5.4 0 0 0-2.33-.15m12.08.1c-1.14.36-1.85 1.25-1.85 2.3 0 .28.08.68.17.87.21.46.9.89 1.62 1.03.78.15 1.01.26 1.01.5 0 .53-1.02.5-1.85-.06-.2-.14-.4-.22-.45-.17-.2.22-.79 1.93-.67 1.93l.57.2c2.63.91 5-.08 5-2.1 0-1.16-.64-1.76-2.24-2.1q-.89-.2-.56-.55c.19-.23.9-.18 1.44.09l.47.24.1-.27.34-.88.24-.63-.27-.14a4.2 4.2 0 0 0-3.07-.26M12.1 7.13c-1.67.57-2.75 1.76-2.87 3.18-.19 2.01 1.77 2.91 3.93 1.81.75-.38 1.65-1.42 1.23-1.42-.06 0-.31.18-.57.4-.88.78-1.95.87-2.4.2-.6-.9.14-3.31 1.2-3.86.3-.16.33-.16.47.04.09.1.24.34.33.51a.9.9 0 0 0 1.4.24c.2-.18.23-.54.08-.82-.27-.52-1.7-.66-2.8-.28"/></svg>