<?xml version="1.0" encoding="UTF-8" standalone="no"?>
<svg
   viewBox="0 0 18.040001 21.999998"
   width="18.040001pt"
   height="21.999998pt"
   version="1.1"
   id="svg1"
   sodipodi:docname="pink_master_pin.svg"
   xml:space="preserve"
   xmlns:inkscape="http://www.inkscape.org/namespaces/inkscape"
   xmlns:sodipodi="http://sodipodi.sourceforge.net/DTD/sodipodi-0.dtd"
   xmlns="http://www.w3.org/2000/svg"
   xmlns:svg="http://www.w3.org/2000/svg"><defs
     id="defs1" /><sodipodi:namedview
     id="namedview1"
     pagecolor="#ffffff"
     bordercolor="#000000"
     borderopacity="0.25"
     inkscape:showpageshadow="2"
     inkscape:pageopacity="0.0"
     inkscape:pagecheckerboard="0"
     inkscape:deskcolor="#d1d1d1"
     inkscape:document-units="pt"><inkscape:page
       x="0"
       y="0"
       width="18.040001"
       height="21.999998"
       id="page2"
       margin="0"
       bleed="0" /></sodipodi:namedview><g
     id="g1"
     transform="matrix(0.01320137,0,0,0.01320137,0.77812322,5.437032)"><path
       d="m 0,0 c 0.70597069,-0.00282738 1.4119414,-0.00565475 2.1393051,-0.00856781 3.7545125,-0.01487439 7.508988,-0.02417128 11.2635269,-0.02854157 3.018681,-0.0043318 6.037068,-0.0180316 9.055664,-0.04101562 16.555025,-0.12330399 32.962857,0.16104136 49.459473,1.6523437 0.681075,0.061414 1.362151,0.1228286 2.063865,0.1861039 42.435006,3.9181134 84.330926,13.0028714 124.752536,26.4428024 -0.55063,5.67095 -1.66203,10.641993 -3.5625,16 -0.64569,1.854316 -0.64569,1.854316 -1.30444,3.746094 -0.37391,1.073789 -0.74782,2.147578 -1.13306,3.253906 0.87181,0.104495 1.74362,0.208989 2.64185,0.31665 10.27306,1.293316 20.39605,3.08161 30.54565,5.12085 0.85166,0.17068 1.70332,0.34136 2.58079,0.517212 96.76958,19.524011 196.11358,53.203093 307.23171,151.045283 0.41943,0.70939 0.83886,1.41878 1.271,2.14966 1.42463,2.30716 2.66681,4.08315 4.729,5.85034 3.6183,0.69039 6.89942,0.0583 10.5,-0.5625 2.07151,-0.26519 4.14452,-0.51884 6.21875,-0.76171 1.0493,-0.12553 2.0986,-0.25105 3.17969,-0.38037 20.02947,-1.90772 52.53209,0.28942 69.10156,12.70458 3.21089,4.42882 4.07846,8.35226 4.29712,13.7334 0.04,0.93488 0.0799,1.86975 0.12111,2.83295 0.0386,1.0042 0.0772,2.0084 0.11693,3.04303 0.0645,1.56117 0.0645,1.56117 0.13024,3.15387 0.0901,2.20221 0.17826,4.40451 0.26454,6.60687 0.13153,3.35339 0.26919,6.70648 0.40796,10.05957 0.087,2.14322 0.17355,4.28645 0.25976,6.42969 0.0609,1.49415 0.0609,1.49415 0.12306,3.01849 0.63744,16.40582 0.63744,16.40582 -1.72072,21.12213 -0.37125,0.76313 -0.74249,1.52625 -1.125,2.3125 -0.28875,0.55688 -0.57749,1.11375 -0.875,1.6875 0.61102,0.28489 1.22204,0.56977 1.85157,0.86329 2.97576,1.57445 4.85226,3.67653 7.14843,6.13671 0.47567,0.47051 0.95133,0.94102 1.44141,1.42579 10.96422,11.53676 14.08984,27.96592 13.97827,43.34301 -0.5569,17.96945 -7.40454,33.86497 -19.41968,47.2312 -0.5182,0.61102 -1.0364,1.22204 -1.57031,1.85157 -16.45702,18.11099 -44.04216,25.97228 -67.69385,27.27295 -3.91729,0.10864 -7.82161,0.0505 -11.73584,-0.12452 -0.22558,0.67805 -0.45117,1.3561 -0.68359,2.05469 -1.67584,3.74951 -3.92272,6.79568 -6.37891,10.07031 -0.49314,0.66307 -0.98629,1.32613 -1.49438,2.00928 -13.1648,17.58846 -28.14969,34.76447 -45.41577,48.46338 -2.26258,1.79546 -4.49302,3.61182 -6.71094,5.46094 -9.08823,7.55085 -18.42673,14.47736 -28.31641,20.9414 -0.73057,0.47792 -1.46115,0.95584 -2.21386,1.44825 -16.60116,10.79467 -33.67065,20.86716 -51.52393,29.45312 -2.53748,1.23232 -5.05741,2.49742 -7.57861,3.7627 -77.16866,38.34911 -163.96394,58.95587 -279.93359,72.52343 -1.19417,0.1185 -1.19417,0.1185 -2.41245,0.23938 -6.10712,0.59862 -12.21898,1.10686 -18.33755,1.57312 -1.71516,0.13241 -1.71516,0.13241 -3.46497,0.26749 -23.860006,1.77815 -47.669587,2.07721 -71.588746,2.04819 -4.109487,-0.005 -8.218676,0.002 -12.328125,0.0205 -29.656594,0.13042 -59.057068,-0.93061 -88.618164,-3.33619 -1.286787,-0.10468 -2.573573,-0.20937 -3.899353,-0.31723 -6.565436,-0.55253 -13.115373,-1.20157 -19.663147,-1.93277 -0.938689,-0.10226 -1.877379,-0.20453 -2.844513,-0.3099 -61.721062,-6.76533 -122.514612,-19.31641 -181.592982,-38.4401 -0.64073,-0.20627 -1.28145,-0.41254 -1.94159,-0.62506 -50.05319,-16.1315 -99.89677,-38.10099 -143.05841,-68.37494 -0.53464,-0.37157 -1.06928,-0.74314 -1.62012,-1.12597 -11.81047,-8.22095 -23.32285,-16.83589 -33.90332,-26.6084 -2.0527,-1.87786 -4.13545,-3.69953 -6.24219,-5.51563 -4.38353,-3.82521 -8.50834,-7.87588 -12.60937,-12 -0.71028,-0.7064 -1.42055,-1.41281 -2.15235,-2.14062 -0.67933,-0.68063 -1.35867,-1.36125 -2.05859,-2.0625 -0.60892,-0.61005 -1.21784,-1.2201 -1.84522,-1.84863 -1.56884,-1.69825 -1.56884,-1.69825 -3.56884,-4.69825 -2.9044,-0.46336 -2.9044,-0.46336 -6.35157,-0.40625 -1.31428,-0.0197 -2.62856,-0.0393 -3.98266,-0.0596 -1.04936,-0.008 -1.04936,-0.008 -2.11991,-0.0152 -27.27196,-0.2377 -53.64221,-4.06771 -79.60836,-12.58143 -1.00547,-0.3283 -2.01094,-0.65661 -3.04688,-0.99487 -12.15681,-4.15143 -12.15681,-4.15143 -15.97192,-10.29321 -2.65944,-5.55143 -2.83138,-11.22681 -3.18433,-17.29395 -0.0831,-1.20557 -0.16625,-2.41114 -0.25189,-3.65324 -0.26019,-3.83737 -0.49621,-7.67582 -0.73248,-11.51473 -0.173,-2.56846 -0.34746,-5.13682 -0.52344,-7.70507 -2.19515,-32.91957 -2.19515,-32.91957 2.77344,-39.48243 4.46165,-4.04661 9.0649,-5.2531 15,-5 4.2257,1.02431 8.27913,2.42445 12.36199,3.91413 3.30184,1.20338 6.62418,2.34705 9.9466,3.49212 0.98435,0.34106 0.98435,0.34106 1.98859,0.689 8.42193,2.8861 17.02269,4.96449 25.70282,6.90475 -0.36759,-2.50858 -0.36759,-2.50858 -2,-5 -2.90345,-1.01559 -5.51015,-1.70688 -8.5,-2.3125 -25.42075,-5.95231 -48.30175,-20.42505 -62.5,-42.6875 -11.41802,-19.28987 -15.49665,-40.07728 -10.3125,-62.125 6.51048,-24.97335 22.0826,-43.19616 43.88842,-56.34594 26.80157,-15.56974 59.9329,-21.36195 90.63111,-20.31031 1.59178,0.0446 3.18358,0.0889 4.77539,0.13282 2.42847,0.0679 4.85269,0.14958 7.27905,0.27246 9.77174,0.66332 9.77174,0.66332 18.78735,-2.42578 2.49799,-2.27554 4.70887,-4.67338 6.95118,-7.19825 1.44336,-1.20246 2.91969,-2.36672 4.42968,-3.48437 0.72204,-0.53593 1.44407,-1.07186 2.18799,-1.62402 0.74492,-0.54173 1.48983,-1.08346 2.25733,-1.64161 0.80808,-0.59071 1.61616,-1.18142 2.44873,-1.79003 14.31929,-10.36239 29.28321,-19.78087 44.67627,-28.45997 0.86512,-0.48936 1.73024,-0.97872 2.62158,-1.48291 71.99421,-40.478621 152.51739,-63.014433 233.37842,-77.517085 0,-3.469052 -0.27719,-5.354648 -1.3125,-8.546875 -0.27071,-0.844336 -0.54141,-1.688672 -0.82032,-2.558594 -0.28617,-0.872695 -0.57234,-1.74539 -0.86718,-2.644531 -0.28618,-0.888164 -0.57235,-1.776328 -0.86719,-2.691406 -0.70578,-2.187926 -1.41688,-4.373974 -2.13281,-6.558594 8.71402,-3.851222 17.77406,-6.363819 26.9375,-8.875 0.79417,-0.218768 1.58834,-0.437536 2.40658,-0.662933 C -88.356015,7.9699963 -44.249324,0.12325073 0,0 Z"
       fill="#242020"
       transform="translate(622.26562,3.796875)"
       id="path1-0" /><path
       d="M 0,0 C 2.7794115,3.3516432 3.2438705,4.8810701 3.3007813,9.1289063 3.7065982,27.298086 6.0414652,44.854975 10.125,62.5625 c 3.928317,0 6.764956,-1.622959 10.25,-3.25 17.776503,-7.883163 37.928929,-11.542926 57.125,-6.1875 2.898437,1.132812 2.898437,1.132812 5.625,2.4375 0.982266,0.451172 1.964531,0.902344 2.976562,1.367187 18.463428,9.589535 28.841618,26.395393 35.023438,45.632813 1.31277,4.65639 2.44686,9.3449 3.55078,14.05469 0.30367,1.26756 0.60734,2.53512 0.92021,3.84109 0.79427,3.31577 1.57931,6.63365 2.3622,9.95212 0.80572,3.40754 1.62047,6.81292 2.43439,10.21851 1.58615,6.64248 3.16252,13.28725 4.73242,19.93359 3.04214,0 3.99378,-1.82434 6.125,-3.9375 19.41596,-17.69134 50.47335,-25.16614 75.875,-29.0625 0,-0.66 0,-1.32 0,-2 -24.63703,-2.79354 -43.52996,8.8026 -63.98535,21.20361 -4.28922,2.54836 -6.98496,3.54153 -12.01465,2.79639 -3.50874,-1.9493 -4.73313,-3.23326 -6.05615,-7.03442 -1.19852,-4.55685 -1.71192,-9.17776 -2.23291,-13.8523 -0.10815,-0.93826 -0.2163,-1.87652 -0.32773,-2.84321 -0.22639,-1.97893 -0.44977,-3.95821 -0.67032,-5.93779 -0.33501,-2.99408 -0.68345,-5.98638 -1.0332,-8.97876 C 127.8308,85.010563 127.8308,85.010563 130.74609,79.496094 144.30695,68.473725 167.33006,64.73476 184.125,61.5625 c 0.76909,-0.150981 1.53817,-0.301963 2.33057,-0.45752 11.53333,-2.196711 22.95473,-2.829061 34.66943,-2.85498 1.28737,-0.0055 2.57474,-0.01096 3.90112,-0.0166 23.86018,0.178463 47.23705,6.464566 64.50122,23.583008 4.92607,5.207556 8.93623,10.600461 12.59766,16.746094 0.33175,-18.850031 0.17445,-37.413377 -1.93286,-56.164063 -2.46751,-22.21493 -2.46751,-22.21493 -0.0286,-26.779785 2.32653,-2.382624 4.7888,-3.992294 8.11896,-4.173645 0.8958,0.0036 1.7916,0.0073 2.71454,0.01105 1.01834,0.0019 2.03668,0.0037 3.08588,0.0057 1.11216,0.0075 2.22431,0.01494 3.37017,0.02264 1.73568,0.0066 1.73568,0.0066 3.50641,0.01337 3.72187,0.01629 7.44365,0.04039 11.16547,0.06476 2.39909,0.01116 4.79818,0.02223 7.19727,0.0332 5.97812,0.03239 11.95542,0.09539 17.9331,0.174317 2.44882,0.02874 4.89773,0.04968 7.34668,0.06348 3.60708,0.02134 7.21307,0.0678 10.81982,0.119629 1.6358,0.0018 1.6358,0.0018 3.30463,0.0037 6.08374,0.117985 9.80203,0.47802 14.3985,4.605652 2.39835,3.597524 2.23929,5.114608 2.1875,9.386719 -0.0108,0.983436 -0.0108,0.983436 -0.0217,1.98674 -0.12812,8.196505 -0.60082,16.38221 -1.02081,24.567642 -1.3138,26.024193 -1.35917,52.008092 -1.14496,78.058902 0.80945,-1.09862 1.6142,-2.2007 2.41699,-3.3042 0.44866,-0.61334 0.89731,-1.22668 1.35956,-1.85861 1.67983,-2.52252 2.58386,-5.0748 3.47345,-7.96219 0.31453,-0.99258 0.62906,-1.98516 0.95312,-3.00781 1.71983,-6.18801 2.05798,-12.08557 2.32032,-18.492193 0.50614,-3.584498 1.31263,-5.503432 3.47656,-8.375 4.86604,-3.24403 9.22487,-3.115008 14.97412,-3.046631 1.41263,0.01277 2.82525,0.02521 4.23789,0.03737 0.74302,0.0079 1.48605,0.01583 2.25159,0.02399 4.78524,0.04232 9.57074,0.03027 14.35612,0.03011 4.19808,0.003 8.39468,0.02379 12.59239,0.08187 4.07192,0.05528 8.14134,0.06161 12.21352,0.03531 1.54615,-0.0012 3.09242,0.01516 4.63818,0.04992 8.71759,0.403688 8.71759,0.403688 16.19109,-3.39287 1.7867,-2.535484 3.17861,-5.040239 4.5451,-7.819061 11.81883,-16.779755 34.03608,-26.67728 53.58936,-30.338135 26.57285,-4.540045 52.86748,-1.298061 75.41064,14.338135 2.98711,2.391034 5.88988,4.874912 8.7251,7.444092 3.12857,2.955025 3.12857,2.955025 7.2749,3.555908 0.86625,-0.680625 1.7325,-1.36125 2.625,-2.0625 7.578,-4.350334 19.18081,0.427568 27.29687,2.265625 0.70263,0.158331 1.40525,0.316661 2.12916,0.47979 3.70943,0.836398 7.41739,1.678948 11.12426,2.526558 3.815,0.871 7.63454,1.720075 11.45552,2.564411 2.954,0.65698 5.90411,1.330245 8.85342,2.007938 1.40676,0.320258 2.81492,0.634404 4.22447,0.942154 1.97044,0.431781 3.93525,0.889058 5.8997,1.347313 1.6747,0.378531 1.6747,0.378531 3.38324,0.76471 3.64569,1.410598 5.50423,3.192247 8.00836,6.164001 1.00225,3.006739 1.27252,5.435171 1.5,8.585937 0.12375,1.643555 0.12375,1.643555 0.25,3.320313 0.12375,1.717031 0.12375,1.717031 0.25,3.468745 0.16385,2.25802 0.33042,4.51584 0.5,6.77344 0.0722,1.00208 0.14437,2.00417 0.21875,3.03662 0.26579,2.66018 0.70814,5.20551 1.28125,7.81494 0.25169,-0.75096 0.50338,-1.50192 0.7627,-2.27563 1.15487,-3.43156 2.32098,-6.85919 3.4873,-10.28687 0.39574,-1.18143 0.79148,-2.36285 1.19922,-3.58008 5.23576,-15.321043 5.23576,-15.321043 9.33423,-18.041009 9.99075,-3.679821 26.32811,1.947282 36.52905,3.746094 1.91592,0.333239 3.83193,0.665925 5.74805,0.998047 4.64761,0.806796 9.29387,1.621032 13.93945,2.439453 -0.33,-0.66 -0.66,-1.32 -1,-2 -1.33501,-15.016818 0.11211,-27.167288 10,-39 5.47937,-5.763854 12.92796,-10.597667 21.00391,-11.238281 12.31954,-0.256939 19.74457,2.179659 28.72265,10.71875 3.39931,3.767274 8.27344,9.184784 8.27344,14.519531 0.96938,-0.458906 1.93875,-0.917812 2.9375,-1.390625 27.86007,-12.869283 55.07073,-12.141724 84.5625,-6.234375 1.00313,0.196824 2.00626,0.393647 3.03979,0.596436 14.89461,3.124925 14.89461,3.124925 19.04354,7.82051 1.58495,2.470331 1.83272,3.80724 1.94084,6.710251 0.0398,0.885148 0.0796,1.770296 0.12065,2.682267 0.0283,0.951041 0.0565,1.902082 0.0856,2.881942 0.0402,0.98927 0.0803,1.97854 0.12166,2.997788 0.125,3.165756 0.23018,6.331836 0.33537,9.498306 0.0814,2.104866 0.1641,4.209685 0.24805,6.314453 0.29608,7.705242 0.57369,15.407912 0.65942,23.118892 0.0108,0.88618 0.0216,1.77237 0.0327,2.68541 -0.17611,3.19918 -0.94122,4.98153 -3.12764,7.31874 -2.6875,1.3125 -2.6875,1.3125 -5,2 0,0.66 0,1.32 0,2 1.05574,0.34418 1.05574,0.34418 2.13281,0.69531 11.26298,5.12512 18.63047,16.46894 23.17578,27.47266 5.46833,16.13995 3.92706,33.81444 -2.8164,49.29297 -3.78939,7.56115 -8.48845,13.61687 -14.49219,19.53906 -1.03061,1.04607 -1.03061,1.04607 -2.08203,2.11328 -18.49571,17.67216 -45.53685,23.44908 -70.40137,23.17456 -17.82748,-0.49564 -39.37574,-2.81434 -54.8291,-12.3269 -5.3906,-5.93906 -5.11584,-15.59986 -5.97656,-23.35157 -0.10815,-0.94824 -0.2163,-1.89649 -0.32773,-2.87347 -0.22551,-1.98628 -0.44892,-3.97279 -0.67032,-5.95953 -0.33862,-3.03291 -0.68544,-6.06481 -1.0332,-9.09668 -0.21924,-1.94005 -0.43801,-3.88015 -0.65625,-5.82032 -0.1031,-0.9001 -0.20619,-1.80021 -0.31241,-2.7276 -1.31415,-11.90234 -1.31415,-11.90234 0.91397,-16.44427 2.84315,-3.21725 4.24337,-3.20642 8.375,-3.6875 -0.59168,-0.8482 -1.18336,-1.69641 -1.79297,-2.57031 -6.99345,-10.28379 -10.8348,-20.46809 -14.20703,-32.42969 -0.74443,0.64969 -0.74443,0.64969 -1.50391,1.3125 -3.29161,2.69825 -5.63096,4.52729 -9.87109,5.3125 -4.86597,-0.83896 -9.13831,-2.60283 -13.625,-4.625 -0.26377,0.84973 -0.52755,1.69947 -0.79932,2.57495 -1.248,3.56003 -2.75368,6.83764 -4.41162,10.22583 -0.31973,0.65609 -0.63945,1.31218 -0.96887,1.98815 -1.06157,2.17624 -2.12839,4.34988 -3.19519,6.52357 -0.75963,1.55484 -1.5189,3.10986 -2.27783,4.66504 -1.61378,3.30548 -3.22966,6.60992 -4.84717,9.91357 -2.47377,5.05339 -4.9409,10.10999 -7.40625,15.16748 -2.49236,5.11286 -4.985,10.22557 -7.48096,15.33667 -3.85045,7.88538 -7.69714,15.77248 -11.5253,23.6687 -1.70383,3.51443 -3.40962,7.0279 -5.11538,10.54139 -0.7987,1.6467 -1.5964,3.2939 -2.39295,4.94165 -3.8517,7.96716 -7.74711,15.90448 -11.87994,23.73034 -0.31492,0.60124 -0.62983,1.20248 -0.95429,1.82193 -9.61778,17.98706 -26.70205,29.53035 -45.74493,35.90073 -19.30618,5.54146 -45.5958,9.55046 -65,3 -3.95251,-2.5817 -5.60313,-4.53123 -7,-9 -0.28694,-2.68521 -0.48601,-5.29282 -0.59766,-7.98438 -0.0392,-0.77386 -0.0784,-1.54772 -0.11876,-2.34503 -0.12351,-2.47321 -0.23513,-4.94679 -0.34608,-7.42059 -0.11679,-2.42079 -0.23602,-4.84145 -0.35605,-7.26208 -0.0777,-1.60602 -0.15147,-3.21223 -0.22125,-4.81861 -0.17763,-3.99536 -0.41466,-7.96974 -0.78159,-11.95251 -0.0644,-0.76516 -0.12881,-1.53032 -0.19517,-2.31867 -0.12394,-1.43689 -0.2651,-2.87245 -0.42716,-4.30554 -0.418,-5.09716 0.81069,-7.70391 4.04372,-11.59259 3.76909,-2.51273 6.63774,-2.61907 11,-2 1.80811,0.62069 3.5997,1.29089 5.375,2 5.35908,2.12864 9.91552,2.44586 15.625,2 0.81395,-11.98311 -1.63298,-23.31126 -4,-35 -2.20224,2.20224 -1.83532,6.93349 -2.20703,9.92187 -1.74798,6.78526 -6.67294,9.5716 -12.3938,12.98194 -19.57824,11.50338 -40.59726,18.85655 -63.39917,20.09619 -0.8134,0.0529 -1.6268,0.1057 -2.46484,0.16016 -28.80928,0.95066 -55.32268,-8.0977 -77.53516,-26.16016 -0.33,-0.33 -0.66,-0.66 -1,-1 0.07,0.54568 0.14002,1.09135 0.21216,1.65356 0.90362,7.845 0.97147,15.64372 0.97534,23.53394 0.0122,1.3405 0.0245,2.68099 0.0371,4.02148 0.003,1.92876 0.003,1.92876 0.006,3.89649 0.004,1.15653 0.008,2.31306 0.0125,3.50464 -0.36155,5.04534 -0.96203,8.91104 -4.33447,12.80468 -3.85199,2.09947 -7.17514,2.0904 -11.44361,1.94849 -0.86279,-0.015 -1.72558,-0.0299 -2.61451,-0.0453 -11.2095,-0.26335 -22.40281,-1.04288 -33.583,-1.86214 -3.75033,-0.27161 -7.50176,-0.52127 -11.25366,-0.77026 -2.39918,-0.17121 -4.79827,-0.34369 -7.19726,-0.51758 -1.11451,-0.072 -2.22902,-0.14402 -3.37731,-0.21822 -1.03621,-0.0799 -2.07242,-0.15971 -3.14003,-0.24199 -0.90564,-0.0644 -1.81128,-0.12879 -2.74437,-0.19514 -3.06407,-0.61483 -5.03223,-1.68052 -7.5547,-3.51262 -2.75445,-4.95402 -3.39166,-9.08139 -3.47656,-14.69922 -0.0156,-0.7163 -0.0312,-1.4326 -0.0472,-2.17061 -0.0471,-2.27254 -0.0751,-4.5448 -0.10123,-6.81767 -0.0489,-2.98319 -0.10515,-5.96621 -0.16406,-8.94922 -0.0136,-0.71945 -0.0273,-1.4389 -0.0413,-2.18016 0.31831,-12.78188 0.31831,-12.78188 -4.16959,-24.18312 -3.94576,-2.11902 -7.63343,-3.18221 -12,-4 1.29484,18.80473 1.29484,18.80473 3.125,37.5625 1.77802,16.20372 1.77802,16.20372 -0.3125,21.375 -2.17364,2.47345 -3.81275,3.65956 -6.8125,5.0625 -2.8886,0.11778 -5.48959,0.0605 -8.35156,-0.17188 -1.28616,-0.085 -1.28616,-0.085 -2.5983,-0.17181 -1.93785,-0.13092 -3.87517,-0.26988 -5.81198,-0.41534 -3.49593,-0.26015 -6.99308,-0.49303 -10.49109,-0.72339 -5.98167,-0.40061 -11.95983,-0.83467 -17.93702,-1.29637 -3.4639,-0.26719 -6.92796,-0.52531 -10.39403,-0.76271 -4.0653,-0.27866 -8.12702,-0.59386 -12.18946,-0.91163 -1.24059,-0.0804 -2.48118,-0.16085 -3.75937,-0.24371 -6.77753,-0.56563 -10.87262,-1.10756 -15.46719,-6.30316 -0.33,-0.66 -0.66,-1.32 -1,-2 -10.60089,0.5924 -21.17209,1.40181 -31.74805,2.33936 -14.59438,1.26564 -14.59438,1.26564 -20.25195,-3.33936 -0.33,-0.99 -0.66,-1.98 -1,-3 -0.81283,0.29451 -0.81283,0.29451 -1.64209,0.59497 -27.21776,9.75174 -56.88244,14.86952 -84.1626,2.14722 -6.062,-3.3052 -11.93129,-7.05644 -16.40771,-12.3667 -2.58953,-2.64795 -2.58953,-2.64795 -5.9773,-2.77027 -1.25869,0.11868 -2.51738,0.23735 -3.81421,0.35962 -0.72167,0.0628 -1.44335,0.12568 -2.1869,0.19042 -2.60837,0.24377 -5.20727,0.53974 -7.80919,0.84474 -1.56969,0.17998 -1.56969,0.17998 -3.17108,0.36359 -9.89569,1.15056 -19.77503,2.42596 -29.655336,3.70062 -3.774681,0.48498 -7.550249,0.96255 -11.325928,1.4397 -1.141862,0.14998 -2.283725,0.29996 -3.46019,0.45448 -16.235116,2.04768 -16.235116,2.04768 -22.324966,0.10411 -6.391641,-6.39164 -6.918867,-19.46786 -8.644531,-28.13281 -0.339602,-1.68417 -0.679674,-3.36824 -1.020188,-5.05222 -0.895448,-4.43562 -1.783898,-8.87261 -2.671035,-13.3099 -0.707104,-3.53072 -1.419206,-7.06041 -2.131594,-10.59007 -3.67556,-18.21282 -7.300013,-36.43459 -10.790663,-54.68383 -0.225118,-1.17441 -0.450235,-2.34881 -0.682175,-3.55881 -0.194019,-1.01762 -0.388038,-2.03525 -0.587936,-3.08371 -0.451165,-2.23831 -0.956121,-4.44285 -1.534378,-6.65115 -1.65,0.99 -3.3,1.98 -5,3 1.319048,8.3978 2.935854,16.69393 4.757812,24.99609 0.396652,1.82383 0.396652,1.82383 0.801316,3.6845 0.562918,2.58675 1.126848,5.17326 1.692489,7.75941 0.882165,4.03455 1.758369,8.07039 2.633881,12.10639 2.357566,10.861 4.718896,21.72103 7.14502,32.56697 0.76109,3.40351 1.515544,6.80847 2.26947,10.21357 0.497192,2.22938 1.005805,4.45593 1.514953,6.68259 4.046307,18.00924 4.046307,18.00924 0.222168,24.13452 -3.412291,3.80415 -7.256525,4.25597 -12.142578,4.96533 -1.36804,0.22886 -1.36804,0.22886 -2.763717,0.46235 -3.040117,0.50124 -6.084688,0.96507 -9.130814,1.42828 -2.184675,0.35055 -4.369078,0.7028 -6.553223,1.05664 -5.7404555,0.92033 -11.4862553,1.80014 -17.2355954,2.66309 -3.5656917,0.53659 -7.1296316,1.08394 -10.6936036,1.63183 -2.293522,0.347 -4.587139,0.69338 -6.880859,1.03906 -1.052142,0.16245 -2.104284,0.32489 -3.188309,0.49225 -14.44254,2.14235 -14.44254,2.14235 -19.26091,-0.32037 -4.793673,-5.61545 -5.76471,-13.48203 -7.1875,-20.5625 -0.66,0 -1.32,0 -2,0 -1.200278,1.41386 -2.334283,2.88417 -3.4375,4.375 -19.025322,24.21715 -48.91281,35.93148 -78.71729,39.91284 -21.69978,2.46821 -43.50678,1.03556 -64.84521,-3.28784 -0.9299,-0.18724 -1.85979,-0.37447 -2.81787,-0.56738 -10.08683,-2.09292 -19.94162,-4.83523 -29.74463,-7.99512 -1.33092,-0.42116 -1.33092,-0.42116 -2.68872,-0.85083 -4.44618,-1.49334 -7.84422,-2.69594 -10.74878,-6.58667 -0.9453,-2.83591 -1.25319,-5.03921 -1.48071,-7.99951 -0.08,-1.01891 -0.16002,-2.03783 -0.24245,-3.08762 -0.0823,-1.10304 -0.16467,-2.20609 -0.2495,-3.34256 -0.0874,-1.14131 -0.17473,-2.28263 -0.26475,-3.45852 -0.18427,-2.42254 -0.36655,-4.84522 -0.54701,-7.26804 -0.27442,-3.66979 -0.55804,-7.33879 -0.84253,-11.00781 -0.1783,-2.35933 -0.35605,-4.71871 -0.53321,-7.07813 -0.0844,-1.0828 -0.16871,-2.1656 -0.25563,-3.28122 -0.23106,-3.15805 -0.42105,-6.31432 -0.58421,-9.47659 -0.0634,-1.15824 -0.12679,-2.31649 -0.19211,-3.50983 -0.0364,-1.14676 -0.0728,-2.29352 -0.11038,-3.47503 -0.0582,-1.55016 -0.0582,-1.55016 -0.11766,-3.13163 0.53111,-3.64503 1.89339,-5.26022 4.42015,-7.88351 5.67073,-2.83537 11.97896,-0.87103 17.63281,1.01172 1.85369,0.65405 3.70729,1.30849 5.55561,1.97757 24.06979,8.67806 50.47652,16.5102 75.81158,9.01071 0.66,-0.33 1.32,-0.66 2,-1 -8.69444,-8.09482 -20.07134,-10.1119 -31.29687,-12.43457 -25.47309,-5.32837 -47.53361,-11.95681 -66.70313,-30.56543 -0.69738,-0.62391 -1.39477,-1.24781 -2.11328,-1.89063 -12.77275,-11.80549 -20.40978,-29.24461 -21.25781,-46.51953 -0.46908,-21.653587 4.72629,-40.00631 19.37109,-56.589835 0.70512,-0.799219 1.41023,-1.598438 2.13672,-2.421875 19.27634,-20.518951 47.52013,-30.412247 74.81836,-34.285645 1.96126,-0.280515 3.91739,-0.596279 5.87305,-0.913574 23.18967,-3.429057 48.17954,-2.591242 71.17187,1.621094 -0.03352,-1.260703 -0.06703,-2.521406 -0.101562,-3.820312 -0.08547,-3.215076 0.06804,-4.120373 1.726562,-7.054688 4.676891,-4.1845867 10.473586,-4.5344469 16.515625,-5.0898437 0.787884,-0.077978 1.575768,-0.1559565 2.387527,-0.2362977 2.57331,-0.2526447 5.147463,-0.4949403 7.721848,-0.7363586 1.787062,-0.171764 3.57409,-0.3438872 5.361084,-0.5163574 4.5697,-0.4387632 9.140291,-0.86749783 13.711121,-1.29431155 3.410422,-0.32073037 6.819888,-0.65100818 10.2294,-0.98124695 3.104018,-0.2987609 6.20873,-0.5896641 9.313751,-0.8777923 1.452792,-0.1357427 2.905355,-0.2739462 4.357666,-0.4147339 2.019958,-0.1946873 4.041036,-0.3776323 6.062134,-0.5600892 1.69975,-0.1581921 1.69975,-0.1581921 3.433838,-0.31958 C -7.8723048,-3.4975555 -4.1078657,-3.4827557 0,0 Z"
       fill="#fdfbfb"
       transform="translate(274.875,171.4375)"
       id="path2" /><path
       d="m 0,0 c 4.8929588,2.6173911 7.8267383,5.9257129 10.707031,10.609375 0.592969,0.950039 1.185938,1.900078 1.796875,2.878906 2.424518,4.268977 2.704434,7.900405 3.015625,12.746094 0.125684,1.908457 0.125684,1.908457 0.253907,3.855469 0.06058,0.97582 0.121171,1.95164 0.183593,2.957031 0.5775,-0.825 1.155,-1.65 1.75,-2.5 9.553967,-11.352045 24.955784,-16.683714 39.25,-18.5 4.649734,-0.290803 9.27959,-0.333544 13.9375,-0.3125 1.272547,0.0042 2.545093,0.0084 3.856201,0.0127 15.441259,0.183118 35.058828,1.226068 49.206298,8.299805 1.76805,10.71729 1.12,22.04213 1.0625,32.875 -0.005,1.670572 -0.01,3.341145 -0.0137,5.011719 -0.0109,4.037798 -0.028,8.075522 -0.0488,12.113281 -1.7504,-1.110037 -3.50031,-2.220868 -5.25,-3.332031 -0.97453,-0.618509 -1.94906,-1.237017 -2.95312,-1.874268 -2.28629,-1.466251 -4.54547,-2.962472 -6.79688,-4.481201 C 99.575638,54.025677 88.922675,52.341328 76.917969,54.625 c -4.271056,1.184304 -7.576884,2.485053 -10.960938,5.421875 -0.918904,2.366125 -0.918904,2.366125 0,5 4.280975,4.788629 9.011486,7.171172 15.066406,8.964844 1.133925,0.361891 1.133925,0.361891 2.290757,0.731094 2.397031,0.763412 4.8001,1.504454 7.205337,2.241562 19.862019,6.138134 41.379359,13.490683 51.812499,33.125005 5.47577,11.28418 5.198,26.20957 1.72656,38.03515 -6.6908,17.62861 -18.70926,29.39961 -35.57031,37.51953 -6.65195,2.60486 -13.58232,4.25588 -20.523436,5.90552 -1.293589,0.30751 -2.580136,0.64729 -3.854737,1.02588 -5.467236,1.14626 -11.271063,0.69666 -16.840576,0.70141 -0.701904,6.8e-4 -1.403809,10e-4 -2.126983,0.002 -16.696976,-0.0256 -31.393248,-2.88499 -47.185517,-8.25205 -0.99,-0.33 -1.98,-0.66 -3,-1 -1.98,-17.16 -3.96,-34.32 -5.9999997,-52 5.5915107,2.23661 5.5915107,2.23661 8.4257807,4.17188 11.077338,7.36295 24.656723,16.2781 38.574219,13.82812 10.650191,-1.9939 10.650191,-1.9939 20,-7 0.744793,-2.49727 0.744793,-2.49727 0,-5 -6.693137,-6.98914 -17.961126,-8.1537 -27,-10 C 33.660572,124.84338 20.851023,121.53122 11.664063,107.96094 5.3101771,97.114259 2.794042,85.391289 2.3320313,72.984375 2.2933594,72.11877 2.2546875,71.253164 2.2148438,70.361328 2.1218264,68.256811 2.0384046,66.151874 1.9570312,64.046875 1.5071484,64.592148 1.0572656,65.137422 0.59375,65.699219 c -3.8063368,4.462338 -7.7934804,8.596336 -12.199219,12.472656 -0.867539,0.765703 -1.735078,1.531406 -2.628906,2.320312 -3.768669,2.086134 -5.687076,1.607863 -9.808594,0.554688 -3.089843,-1.191406 -3.089843,-1.191406 -5.9375,-2.5625 -0.957773,-0.455039 -1.915547,-0.910078 -2.902343,-1.378906 -0.712852,-0.349336 -1.425704,-0.698672 -2.160157,-1.058594 -2.251219,2.840086 -3.946587,5.669223 -5.536865,8.922607 -0.481581,0.980106 -0.963161,1.960211 -1.459335,2.970017 -0.51559,1.060239 -1.03118,2.120478 -1.562393,3.212845 -0.544393,1.111439 -1.088785,2.222877 -1.649674,3.367996 -1.453341,2.969454 -2.902938,5.94068 -4.350876,8.91277 -1.426665,2.92569 -2.858948,5.84864 -4.290466,8.77197 -5.966963,12.19757 -11.879896,24.42005 -17.745773,36.66652 -4.853937,10.12801 -9.763497,20.22843 -14.697098,30.31785 -1.47409,3.01633 -2.944305,6.03453 -4.414551,9.05274 -12.27294,25.14461 -22.98834,45.94959 -50.29297,56.80468 -5.24066,1.73249 -10.58581,2.93757 -16,4 -0.89557,0.17653 -1.79115,0.35305 -2.71387,0.53492 -3.8103,0.53927 -7.54898,0.60866 -11.38769,0.5979 -0.75889,9.5e-4 -1.51777,0.002 -2.29965,0.003 -1.59511,6.7e-4 -3.19021,-0.001 -4.78531,-0.005 -2.43789,-0.005 -4.8756,-4e-5 -7.31348,0.006 -1.55469,-6.6e-4 -3.10937,-0.002 -4.66406,-0.004 -1.08917,0.003 -1.08917,0.003 -2.20035,0.006 -3.35294,-0.0155 -6.43005,-0.0953 -9.63559,-1.13895 -3.22702,-36.04207 -3.22702,-36.04207 -3,-51 0.70383,0.28875 1.40766,0.5775 2.13281,0.875 8.27825,3.11245 17.26608,5.18709 25.98047,2.46485 3.17274,-1.81862 5.21597,-4.65603 6.41407,-8.07813 1.81218,-8.67154 0.44601,-17.199 -1.19922,-25.76172 -0.36607,-1.95892 -0.73134,-3.918 -1.09595,-5.87719 -0.1982,-1.05962 -0.39641,-2.11924 -0.60062,-3.21097 -1.16366,-6.28636 -2.27612,-12.58192 -3.39328,-18.87668 -0.24065,-1.35422 -0.48134,-2.70843 -0.72206,-4.06264 -0.48793,-2.74558 -0.97547,-5.49122 -1.46275,-8.23692 -0.62418,-3.51659 -1.24989,-7.0329 -1.87592,-10.54915 -0.48894,-2.74775 -0.97683,-5.49568 -1.46442,-8.24367 -0.34104,-1.9205 -0.68316,-3.84081 -1.02531,-5.76112 -0.20724,-1.16975 -0.41448,-2.3395 -0.628,-3.544692 -0.2717,-1.529284 -0.2717,-1.529284 -0.54888,-3.089462 -0.56001,-3.340204 -1.03197,-6.694716 -1.51094,-10.047501 -0.33,9.57 -0.66,19.140005 -1,29.000005 -11.57355,0.14588 -22.80675,-0.32931 -34.3125,-1.4961 -1.59075,-0.15524 -3.18157,-0.30977 -4.77246,-0.46364 -4.13333,-0.40171 -8.26562,-0.81322 -12.39777,-1.22691 -4.20175,-0.41872 -8.40448,-0.82735 -12.60711,-1.23718 -25.08768,-2.45366 -25.08768,-2.45366 -34.91016,-3.57617 1.43114,10.07446 3.76122,20.26525 12,26.99999 11.20247,7.03494 23.81572,6.31549 36.25781,3.65796 15.32979,-3.66275 29.76431,-10.32628 43.66016,-17.66186 2.08203,-0.99609 2.08203,-0.99609 4.08203,-0.99609 -0.18333,1.49221 -0.367,2.98439 -0.55078,4.47656 -0.17922,1.45624 -0.17922,1.45624 -0.36206,2.94189 -0.26863,2.15525 -0.54231,4.30987 -0.8208,6.46387 -0.7046,5.46175 -1.35698,10.91392 -1.8523,16.39892 -0.10143,0.98404 -0.20286,1.96808 -0.30737,2.98194 -0.1917,1.86478 -0.35601,3.73264 -0.48877,5.60254 -0.39972,3.6067 -0.75028,6.1737 -3.22925,8.91821 -2.05529,1.59557 -4.13223,2.92214 -6.38867,4.21606 -0.66701,0.40251 -1.33402,0.80502 -2.02124,1.21973 -28.32673,16.52886 -61.08139,21.52089 -92.92505,13.27637 -22.64643,-6.16696 -41.93085,-21.01778 -53.68261,-41.3086 -14.08552,-26.54713 -12.82889,-57.165208 -4.75635,-85.332515 1.18323,-3.763222 2.67167,-7.305758 4.38525,-10.85498 0.52465,-1.091836 1.0493,-2.183672 1.58985,-3.308594 10.49707,-20.589498 26.76667,-33.588389 48.44921,-40.6835935 22.80856,-6.2369735 48.53494,-5.8234567 69.39844,5.8046875 5.94557,3.540462 11.39516,7.591382 16.5625,12.1875 0.75797,0.663867 1.51594,1.327734 2.29688,2.011719 15.68859,14.633671 22.71322,34.446191 26.70312,54.988281 -1.78155,-14.01796 -4.22704,-27.8416 -7.01807,-41.687744 -0.25571,-1.279959 -0.51143,-2.559917 -0.7749,-3.878662 -0.23227,-1.144124 -0.46454,-2.288247 -0.70385,-3.467041 -0.50318,-2.966553 -0.50318,-2.966553 -0.50318,-6.966553 13.24754,2.921707 26.47751,5.917616 39.70093,8.946533 3.2836,0.751733 6.5677,1.501239 9.85181,2.250733 2.09573,0.479682 4.19143,0.959495 6.28711,1.439453 0.97799,0.222902 1.95598,0.445804 2.9636,0.675461 0.90267,0.207242 1.80534,0.414484 2.73537,0.628006 0.79176,0.181128 1.58352,0.362256 2.39928,0.548873 1.70917,0.423534 3.3914,0.954106 5.0619,1.510941 0.0729,0.840806 0.1459,1.681612 0.22106,2.547897 0.68856,7.930691 1.3798,15.861143 2.07404,23.791339 0.3568,4.076817 0.71258,8.153719 1.06599,12.230832 0.3412,3.935939 0.68514,7.871632 1.03094,11.807169 0.13134,1.500178 0.2617,3.000441 0.39107,4.50079 0.1816,2.104289 0.3667,4.208245 0.55259,6.312158 0.10437,1.19691 0.20874,2.39382 0.31627,3.627 0.30417,2.78157 0.74464,5.45276 1.34804,8.18282 0.40203,-1.10062 0.80405,-2.20124 1.21826,-3.33521 4.27277,-11.69566 8.5509,-23.389346 12.83496,-35.080872 0.60398,-1.648348 1.20783,-3.296741 1.81153,-4.94519 1.66567,-4.547879 3.33626,-9.09391 5.01025,-13.638733 0.409762,-1.118665 0.819523,-2.237329 1.2417,-3.389893 0.557117,-1.508565 0.557117,-1.508565 1.125489,-3.047607 0.318237,-0.864961 0.636474,-1.729922 0.964355,-2.621094 0.793457,-1.941406 0.793457,-1.941406 1.793457,-2.941406 10.099884,0.09574 20.087869,2.052864 30,3.8125 1.54657,0.270043 3.093202,0.539735 4.639893,0.809082 11.475891,2.007292 22.930524,4.121706 34.360107,6.378418 -1.348498,4.359708 -3.049078,8.313414 -5.125,12.375 -0.538828,1.059609 -1.077656,2.119219 -1.632812,3.210937 -0.409922,0.796641 -0.819844,1.593282 -1.242188,2.414063 5.033066,-3.521897 9.541002,-6.867293 13,-12 -0.218383,-2.504125 -0.602172,-3.629977 -2.453125,-5.351563 -0.592968,-0.420234 -1.185937,-0.840468 -1.796875,-1.273437 -5.246717,-4.221124 -7.658816,-10.101448 -9.75,-16.375 -0.766217,-11.88265 -0.420393,-20.599745 7.125,-30.25 C -19.962625,-1.7206232 -10.825027,-4.1021154 0,0 Z"
       fill="#ee3a43"
       transform="translate(1117.043,222.95312)"
       id="path3" /><path
       d="M 0,0 C 0.03867187,1.9297266 0.03867187,1.9297266 0.078125,3.8984375 0.69302975,25.739854 4.3420111,46.875842 9.6044922,68.05249 10,70 10,70 10,73 14.644509,70.380276 14.644509,70.380276 19.199219,67.609375 37.071596,56.38375 56.863384,50.926868 77.855469,54.691406 84.745093,56.621793 90.418908,59.551602 96,64 c 1.14082,0.897187 1.14082,0.897187 2.304687,1.8125 14.564043,12.161218 19.083483,28.479141 23.343753,46.20703 0.43003,1.75833 0.86091,3.51644 1.29257,5.27437 0.9044,3.69105 1.80275,7.3835 2.69607,11.07725 1.33754,5.53036 2.68955,11.0571 4.04358,16.58344 2.22226,9.0794 4.42448,18.16354 6.61866,27.24976 1.12687,4.6652 2.26071,9.32869 3.39577,13.99191 0.88737,3.65101 1.76971,7.30322 2.65066,10.95579 0.41673,1.72402 0.83536,3.44758 1.25598,5.17065 0.57903,2.37384 1.1509,4.7493 1.72102,7.1253 0.17131,0.69529 0.34261,1.39058 0.51911,2.10695 0.8438,3.55137 1.34692,6.79295 1.15814,10.44505 -9.72672,1.17554 -19.45367,2.34918 -29.18092,3.52036 -4.51655,0.54387 -9.03302,1.0884 -13.5493,1.63443 -4.356983,0.52674 -8.714166,1.05176 -13.071498,1.57557 -1.663875,0.20033 -3.327674,0.40129 -4.991398,0.60288 -2.326986,0.28184 -4.654227,0.56148 -6.981542,0.84059 -0.69052,0.0841 -1.381039,0.16831 -2.092484,0.25502 C 74.397442,230.75497 71.758334,231 69,231 c -0.165925,-0.82881 -0.165925,-0.82881 -0.335202,-1.67436 -2.699423,-13.48211 -5.404212,-26.96313 -8.114693,-40.44302 -1.31064,-6.51897 -2.619529,-13.03827 -3.924373,-19.5584 -1.2602,-6.29671 -2.525057,-12.59247 -3.793096,-18.88761 -0.482054,-2.39731 -0.962451,-4.79496 -1.441136,-7.19295 -0.6727,-3.36843 -1.351371,-6.7356 -2.031393,-10.10255 -0.19493,-0.98327 -0.38986,-1.96655 -0.590698,-2.97963 C 46.471569,116.76901 46.471569,116.76901 39,106 34.923435,104.73025 32.764837,104.30667 28.8125,105.85938 24.307735,108.40987 21.423981,110.87367 20,116 c 0.130229,7.90963 1.816004,15.5991 3.539062,23.28516 0.261247,1.19222 0.522494,2.38445 0.791657,3.6128 0.575109,2.62297 1.152509,5.24531 1.733368,7.86699 0.985264,4.45111 1.957257,8.90507 2.927124,13.35956 0.170495,0.78286 0.34099,1.56572 0.516651,2.3723 0.349644,1.60577 0.699224,3.21155 1.04874,4.81735 0.707433,3.25017 1.415242,6.50026 2.123135,9.75033 0.357049,1.63943 0.714,3.27887 1.070854,4.91833 0.911763,4.18786 1.825572,8.37525 2.743061,12.56186 0.906192,4.13561 1.807353,8.27229 2.705067,12.40974 0.33866,1.55649 0.679142,3.11259 1.021538,4.66826 0.473536,2.15267 0.940616,4.30666 1.406208,6.46106 0.266141,1.21905 0.532282,2.43809 0.806488,3.69408 0.498637,2.83345 0.68601,5.35676 0.567047,8.22218 -0.713305,0.11053 -1.426609,0.22106 -2.16153,0.33495 -6.738179,1.04419 -13.476308,2.08871 -20.21438,3.1336 -3.463699,0.53711 -6.927417,1.0741 -10.39118,1.6108 -3.9865491,0.6177 -7.9730128,1.23596 -11.9594725,1.85424 -1.8565672,0.28756 -1.8565672,0.28756 -3.7506409,0.58092 -1.7411256,0.27017 -1.7411256,0.27017 -3.5174255,0.54579 -1.0170401,0.15767 -2.0340801,0.31533 -3.0819401,0.47777 -1.898065,0.29991 -3.790619,0.6381 -5.673767,1.02066 C -22.129154,244.15333 -26.580997,244 -31,244 c -3.3,-14.52 -6.6,-29.04 -10,-44 -1.98,5.28 -3.96,10.56 -6,16 -2.246226,3.9101 -4.370994,7.3977 -7,11 -0.605859,0.85078 -1.211719,1.70156 -1.835937,2.57812 C -71.052048,249.82487 -94.940996,259.86998 -119,265 c -0.84272,0.18691 -1.68545,0.37383 -2.55371,0.56641 -9.6754,1.89647 -19.3757,1.83162 -29.19629,1.80859 -0.9104,-8.8e-4 -1.8208,-0.002 -2.75879,-0.003 -14.49403,-0.046 -28.37108,-0.8587 -42.49121,-4.37234 -1.0775,-0.26796 -2.15499,-0.53593 -3.26514,-0.81201 C -209.82791,259.49487 -220.15119,256.74048 -230,252 c -0.41184,-5.3485 -0.8206,-10.69722 -1.22681,-16.04614 -0.13787,-1.81028 -0.27651,-3.62051 -0.41601,-5.43067 C -232.60552,218.02207 -233.39859,205.52381 -234,193 c 6.23983,1.57296 12.33687,3.42796 18.42285,5.5127 23.38226,8.00252 53.403,16.92786 77.57715,7.4873 2.44906,-1.2115 4.6841,-2.53997 7,-4 0.66,0 1.32,0 2,0 1.23534,-3.70602 1.45529,-6.09754 1,-10 -5.13037,-9.69304 -17.48752,-13.59601 -27.24609,-16.71875 C -161.41975,173.52636 -167.71892,172.30223 -174,171 c -19.07632,-3.96087 -35.83275,-9.23074 -51,-22 -0.59039,-0.44602 -1.18078,-0.89203 -1.78906,-1.35156 C -238.66321,138.37684 -246.68465,123.5347 -250,109 c -0.40665,-3.43023 -0.47842,-6.7982 -0.4375,-10.25 0.008,-0.91459 0.0166,-1.82918 0.0251,-2.771484 0.44922,-18.173645 8.67631,-33.86823 21.20532,-46.833985 13.09552,-12.202008 29.57203,-19.390206 46.51953,-24.394531 0.77996,-0.234207 1.55993,-0.468413 2.36353,-0.709717 15.8231,-4.420579 31.59907,-5.511823 47.95898,-5.376465 3.06008,0.02374 6.11929,0.02051 9.17944,0.01392 11.21924,0.0173 22.09599,0.557673 33.18555,2.322266 2.535772,13.402525 4.456649,26.8723 6.271973,40.389404 0.48428,3.594508 0.979017,7.187486 1.474121,10.780518 0.309224,2.285722 0.617841,4.571526 0.925781,6.857422 0.148867,1.073784 0.297733,2.147568 0.451111,3.253891 0.195806,1.479086 0.195806,1.479086 0.395569,2.988052 0.117526,0.868058 0.235052,1.736116 0.35614,2.630478 C -80,90 -80,90 -81,92 c -0.776016,-0.568477 -1.552031,-1.136953 -2.351562,-1.722656 -19.613878,-14.124447 -41.526548,-21.536737 -65.863278,-17.78125 -6.53074,1.738255 -10.02434,4.65016 -13.59766,10.441406 -1.72038,4.436759 -1.87028,7.393492 -0.0625,11.8125 3.53374,4.240484 8.93105,4.527507 14.17969,5.109375 1.21156,0.142925 2.42311,0.285845 3.67138,0.433105 1.28665,0.15098 2.5733,0.30196 3.89893,0.45752 28.91025,3.58288 63.71192,10.18129 82.805176,34.37939 1.460506,1.94293 2.901504,3.89674 4.319824,5.87061 -1.040026,-19.20243 -2.937412,-38.00546 -6,-57 -0.168384,-1.089741 -0.336768,-2.179482 -0.510254,-3.302246 C -63.582523,60.959238 -68.347663,41.718408 -73.37648,22.403336 -74.700029,17.292583 -75.884484,12.160073 -77,7 c 12.557727,-1.8398742 25.167549,-3.0764372 37.799072,-4.2871094 3.523915,-0.3388991 7.046978,-0.6858595 10.570069,-1.0332031 2.268833,-0.2192394 4.537711,-0.438006 6.80664,-0.65625 1.038768,-0.10309479 2.077536,-0.20618958 3.147782,-0.31240845 C -12.429289,0.12122126 -6.2742329,-0.1274115 0,0 Z"
       fill="#ee3a43"
       transform="translate(268,179)"
       id="path4" /><path
       d="m 0,0 c 25.355835,-0.10739797 50.66441,-0.12979203 76,1 0.139492,8.3764485 -0.25738,16.641761 -0.847935,24.995319 -1.400343,20.294819 -1.391013,40.55441 -1.289394,60.887799 0.02096,4.661337 0.0297,9.322698 0.03967,13.984072 0.02105,9.04433 0.05489,18.08856 0.09766,27.13281 1.738092,-0.9096 3.471567,-1.82802 5.203125,-2.75 0.96583,-0.51047 1.93166,-1.02094 2.926758,-1.54687 10.62471,-6.3047 16.502692,-16.70437 19.932616,-28.292974 C 103.76974,87.982037 104.42964,80.585592 105,73 c 24.34067,-0.892974 48.64417,-1.127118 73,-1 -1.69409,7.360631 -3.63442,14.372131 -6.625,21.3125 -0.52267,1.215747 -0.52267,1.215747 -1.05591,2.456055 C 162.14147,114.30522 150.36366,129.89942 134,142 c 3.01063,2.38578 6.1207,4.18317 9.5,6 17.45407,10.12294 27.8528,25.68467 33.75,44.8125 3.97619,15.0764 6.79653,34.89285 2.75,50.1875 -8.22301,0.13106 -16.34388,-0.27218 -24.54297,-0.875 -1.24961,-0.0888 -2.49922,-0.17757 -3.7867,-0.26904 -3.2831,-0.23396 -6.56594,-0.47124 -9.84867,-0.71021 -3.36548,-0.24414 -6.73128,-0.48381 -10.09705,-0.72388 C 125.14944,239.95199 118.5746,239.47772 112,239 c -0.73458,-5.30049 -1.13886,-10.43662 -1.21094,-15.79688 -0.0281,-1.46876 -0.0567,-2.93751 -0.0859,-4.40625 -0.041,-2.26822 -0.078,-4.53624 -0.1045,-6.80468 0.15163,-17.59167 0.15163,-17.59167 -7.78613,-32.59375 -6.71252,-5.17906 -14.324956,-6.486 -22.5625,-6.96094 -1.046074,-0.0648 -1.046074,-0.0648 -2.113281,-0.13086 C 76.424681,172.2011 74.712364,172.1001 73,172 c 0.159199,0.57373 0.318398,1.14747 0.482422,1.73859 0.503629,2.20046 0.703171,4.19222 0.798828,6.44403 0.05511,1.22212 0.05511,1.22212 0.111328,2.46893 0.03545,0.87296 0.0709,1.74591 0.107422,2.64532 0.0406,0.90761 0.08121,1.81521 0.123047,2.75031 0.129513,2.90079 0.253749,5.80176 0.376953,8.70282 0.123498,2.88676 0.248258,5.77344 0.376953,8.65997 0.07993,1.7941 0.156921,3.58833 0.230469,5.38269 0.17111,3.85344 0.411748,7.65304 0.919922,11.47785 0.397664,3.13776 0.578969,6.07492 0.535156,9.22949 -0.009,0.85594 -0.01805,1.71187 -0.02734,2.59375 C 77.01776,235.03734 77.01776,235.03734 77,236 51.924818,235.50591 26.975607,233.15076 2,231 c -1.15941038,-3.47823 -0.7082088,-5.45896 0,-9 -1.28052246,0.12117 -2.56104492,0.24234 -3.8803711,0.36719 -4.7892819,0.45195 -9.5791189,0.89776 -14.3691409,1.34179 -2.065909,0.19236 -4.131669,0.38634 -6.197265,0.58204 -2.983498,0.28235 -5.967502,0.5587 -8.95166,0.83398 -0.910834,0.0875 -1.821667,0.17499 -2.760102,0.26514 -2.612755,0.23772 -5.223604,0.43759 -7.841461,0.60986 -1.373003,0.094 -1.373003,0.094 -2.773743,0.18994 -0.888869,0.0353 -1.777738,0.0706 -2.693542,0.10693 -0.796208,0.0371 -1.592415,0.0741 -2.41275,0.11231 C -52,226 -52,226 -53.774994,224.18018 -55.526401,221.51393 -57,219.24154 -57,216 c -0.859805,0.45891 -1.719609,0.91781 -2.605469,1.39062 -21.443938,11.22206 -48.832991,16.54699 -72.695801,10.12281 -2.99928,-0.9826 -5.843,-2.17291 -8.69873,-3.51343 -0.9191,-0.42281 -1.8382,-0.84563 -2.78516,-1.28125 -13.68816,-7.27779 -23.01497,-20.16382 -27.58984,-34.71875 -0.56213,-1.99434 -1.10673,-3.99381 -1.625,-6 -0.19207,-0.66 -0.38414,-1.32 -0.58203,-2 -2.12243,-10.15594 -0.29353,-20.65452 5.08984,-29.46875 1.7114,-2.32432 3.51781,-4.42657 5.49219,-6.53125 0.62391,-0.67676 1.24781,-1.35352 1.89063,-2.05078 12.11808,-11.90995 29.03039,-16.28255 45.0664,-20.15234 1.70196,-0.4109 3.40378,-0.82236 5.10547,-1.23438 0.83644,-0.20246 1.67288,-0.40493 2.53467,-0.61353 9.210486,-2.2941 18.239982,-5.33718 26.723143,-9.62866 C -79,109 -79,109 -77,109 c -1.106504,-4.21011 -2.111992,-7.94012 -4.9375,-11.3125 -11.595551,-6.389386 -23.78325,-7.757813 -36.46411,-4.091553 -14.79483,4.768071 -28.9153,12.528963 -41.73511,21.259523 C -162,116 -162,116 -164,116 c -1.1188,-2.2376 -1.3094,-3.88731 -1.58838,-6.37036 -0.10325,-0.90467 -0.20651,-1.80933 -0.3129,-2.74141 -0.10734,-0.98019 -0.21468,-1.96037 -0.32528,-2.97026 -0.11194,-1.00633 -0.22388,-2.01266 -0.33921,-3.04949 -0.23566,-2.132445 -0.46921,-4.265129 -0.70083,-6.398021 -0.3559,-3.260021 -0.724,-6.518514 -1.09277,-9.7771 -0.22732,-2.070881 -0.45391,-4.141842 -0.67969,-6.21289 -0.16709,-1.46117 -0.16709,-1.46117 -0.33756,-2.951859 -0.0969,-0.914121 -0.1939,-1.828243 -0.29379,-2.770065 -0.088,-0.80005 -0.17606,-1.600099 -0.26675,-2.424393 -0.0718,-2.66591 0.12548,-4.787796 0.93716,-7.334152 2.78395,-1.446652 5.23668,-2.462575 8.1875,-3.4375 0.84281,-0.292939 1.68561,-0.585879 2.55396,-0.887695 C -126.77226,47.97841 -91.920592,40.668662 -59,49 c 0.639375,0.160972 1.27875,0.321943 1.9375,0.487793 18.034255,4.731265 31.232642,14.910707 41.105469,30.582519 5.377179,10.039752 7.7824114,20.645658 9.019531,31.867188 0.1571851,1.30614 0.3143701,2.61229 0.4763184,3.95801 0.9169009,7.69869 1.7074811,15.41094 2.4924316,23.12402 0.086564,0.85009 0.1731271,1.70018 0.2623138,2.57604 0.4200447,4.14538 0.8310804,8.29132 1.2242585,12.43934 0.7898209,8.1901 1.76253473,16.31985 3.04077145,24.44946 0.19070824,1.213 0.19070824,1.213 0.38526917,2.45051 C 1.4517645,184.05498 1.9986006,186.9958 3,190 c 1.0805956,-5.26263 1.1414712,-10.32454 1.1293945,-15.66919 0.00175,-0.95914 0.0035,-1.91829 0.00531,-2.90649 0.00441,-3.17922 0.00148,-6.35838 -0.00189,-9.5376 6.753e-4,-2.24733 0.00165,-4.49466 0.0029,-6.74199 0.00148,-4.73534 -6.699e-4,-9.47067 -0.00534,-14.20601 -0.00558,-5.93859 -0.00239,-11.87714 0.00343,-17.81573 C 4.1524951,100.78319 4.0981869,78.44809 3.5898438,56.113281 3.5728304,55.295464 3.555817,54.477646 3.5382881,53.635046 3.2368984,39.665352 2.0831883,25.893563 0.25952148,12.033203 -0.08409855,8.0170834 -0.04981752,4.0280129 0,0 Z"
       fill="#ee3a43"
       transform="translate(584,194)"
       id="path5" /><path
       d="m 0,0 c -0.60302772,4.8707694 -1.5754928,9.419142 -2.9494629,14.128662 -0.1952174,0.674019 -0.3904349,1.348037 -0.591568,2.042481 -0.6393783,2.203403 -1.2854369,4.404786 -1.9316253,6.606201 -0.4473914,1.536871 -0.8943607,3.073866 -1.3409272,4.610977 -1.1712366,4.027272 -2.348167,8.052857 -3.5263216,12.07811 -1.203316,4.114997 -2.401198,8.231576 -3.599548,12.348022 C -16.287676,59.877853 -18.64192,67.939478 -21,76 c -4.241025,0.972748 -6.756986,0.788051 -10.960937,-0.441406 -1.766218,-0.500318 -1.766218,-0.500318 -3.568116,-1.010742 -0.625104,-0.181073 -1.250209,-0.362146 -1.894256,-0.548706 C -59.059675,67.772766 -81.061192,63.60542 -103.375,60.6875 c -1.21615,-0.159521 -2.4323,-0.319043 -3.6853,-0.483398 -18.35037,-2.262425 -36.66236,-2.445084 -55.1272,-2.454102 -1.24572,-6.75e-4 -2.49144,-0.0013 -3.7749,-0.002 -18.56144,0.01591 -36.65128,0.556104 -55.0376,3.252 -1.97528,0.271787 -3.95057,0.543573 -5.92586,0.815308 -24.24723,3.37179 -47.90005,8.631963 -71.33195,15.729126 C -300,78 -300,78 -302,78 c -5.18081,-15.574622 -9.91687,-31.27154 -14.53461,-47.020996 -0.64389,-2.195358 -1.28961,-4.390183 -1.93713,-6.584473 -0.92142,-3.125954 -1.83534,-6.254002 -2.74701,-9.382812 -0.28088,-0.950105 -0.56177,-1.900209 -0.85117,-2.879105 -0.25472,-0.880767 -0.50944,-1.761534 -0.77188,-2.6689909 -0.22458,-0.7684273 -0.44915,-1.5368546 -0.68054,-2.3285676 C -324,5 -324,5 -324,1 c 39.69169,-14.171126 83.32213,-21.282716 125.34375,-23.836914 2.40805,-0.147847 4.8129,-0.319435 7.21875,-0.499023 C -126.83375,-27.841161 -61.904643,-18.121985 0,0 Z"
       fill="#242021"
       transform="translate(803,39)"
       id="path6" /><path
       d="M 0,0 C 2.5360777,0.01073094 4.6998303,0.23133083 7.1445312,0.88671875 5.5333615,6.0444886 2.3538464,9.8719087 -0.91796875,14.074219 -1.5014307,14.830173 -2.0848926,15.586128 -2.6860352,16.36499 c -4.4826046,5.757095 -9.1997308,11.179544 -14.1694338,16.521729 -1.192212,1.370916 -2.37992,2.745766 -3.5625,4.125 -5.981006,6.849216 -12.52809,12.979599 -19.4375,18.875 -1.349648,1.183359 -1.349648,1.183359 -2.726562,2.390625 -61.830399,53.811436 -142.782129,85.528926 -419.596959,135.475766 -2.62634,0.13111 -5.2518,0.27423 -7.87741,0.41925 -15.78124,0.83795 -31.56092,0.95978 -47.36157,0.96436 -0.70329,4.4e-4 -1.40659,8.8e-4 -2.13119,0.001 -93.6276,0.0306 -188.00356,-11.31939 -417.30631,-98.251341 -0.82129,-0.499834 -1.64259,-0.999668 -2.48877,-1.514649 -10.47348,-6.412998 -20.66418,-13.14601 -30.51123,-20.485351 -0.53786,-0.398965 -1.07572,-0.79793 -1.62988,-1.208985 -13.52519,-10.076952 -26.10488,-21.228562 -38.37015,-32.791015 -0.7695,-0.71543 -1.5391,-1.43086 -2.332,-2.167969 -0.9494,-0.906855 -0.9494,-0.906855 -1.918,-1.832031 -0.5208,-0.495 -1.0415,-0.99 -1.5781,-1.5 -1.3946,-1.785113 -1.6818,-3.310978 -2.1719,-5.5 3.0756,-0.868976 5.8054,-1.298829 9,-1 3.1728,1.954663 5.4328,4.586701 7.875,7.375 1.39467,1.493141 2.79311,2.982743 4.19534,4.46875 0.67193,0.721875 1.34385,1.44375 2.03614,2.1875 3.18284,3.309235 6.67648,6.085235 10.28808,8.917968 2.7547,2.168244 5.38955,4.447527 8.04297,6.738282 21.13512,17.594442 45.27915,31.578239 69.5625,44.312501 0.92587,0.48823 1.85174,0.97646 2.80567,1.47949 49.91512,26.15587 104.47963,43.63274 159.19433,56.52051 0.76256,0.17962 1.52512,0.35924 2.31079,0.54431 46.23492,10.81888 93.55913,17.44366 140.87671,21.14319 0.77896,0.0611 1.55791,0.12224 2.36047,0.18521 5.48128,0.42322 10.96477,0.79105 16.45203,1.12729 1.15709,0.0737 1.15709,0.0737 2.33756,0.14886 19.77159,1.21006 39.59676,1.07309 59.39706,1.09137 4.018,0.004 8.03578,0.0181 12.05371,0.041 27.87817,0.15537 55.43939,-0.83907 83.21167,-3.28125 0.85097,-0.074 1.70195,-0.14801 2.5787,-0.22425 13.51672,-1.16985 13.51672,-1.16985 27.01115,-2.56872 1.24003,-0.13912 1.24003,-0.13912 2.50511,-0.28105 90.92666,-10.37857 181.12775,-32.99912 378.838635,-161.109575 1.592406,-2.170369 3.045607,-4.328002 4.476562,-6.601562 C -4.1568987,1.2908564 -4.1568987,1.2908564 0,0 Z"
       fill="#f7d800"
       transform="translate(1162.8555,430.11328)"
       id="path7" /><path
       d="M 0,0 C 3.96,0.495 3.96,0.495 8,1 8,5.5400039 7.542384,6.0491117 4.75,9.375 3.6517188,10.689844 3.6517188,10.689844 2.53125,12.03125 1.6959375,13.010938 0.860625,13.990625 0,15 -0.92784679,16.113948 -1.8548999,17.228557 -2.78125,18.34375 -11.723554,29.028313 -21.259594,39.094191 -32,48 c -0.535444,0.449238 -1.070889,0.898477 -1.622559,1.361328 C -94.616144,100.42573 -171.33761,131.84147 -275,158 c -0.86574,0.20623 -1.73147,0.41246 -2.62344,0.62494 -13.82199,3.27676 -27.68152,6.02106 -41.68906,8.37506 -1.00242,0.16986 -2.00483,0.33973 -3.03763,0.51474 -20.80684,3.50954 -41.66883,6.26142 -62.64987,8.48526 -1.10058,0.11668 -1.10058,0.11668 -2.22339,0.23572 -25.50915,2.68298 -51.07533,4.59207 -76.71411,5.38928 -1.24572,0.0401 -2.49144,0.0802 -3.7749,0.12158 -25.01858,0.67737 -49.9723,0.26659 -74.96527,-0.89724 -2.17908,-0.1014 -4.35824,-0.2008 -6.53742,-0.30008 -35.17913,-1.61616 -69.98993,-4.77114 -104.78729,-10.23609 -1.95527,-0.30653 -3.91125,-0.60849 -5.86725,-0.91034 C -736.63598,157.47729 -811.44334,135.91138 -881,101 c -0.92023,-0.46148 -1.84046,-0.92297 -2.78857,-1.398438 -32.26239,-16.300992 -61.66239,-36.75685 -88.39893,-61.039062 -0.55301,-0.496128 -1.10602,-0.992256 -1.67578,-1.503418 C -976.55157,34.586093 -978.67379,32.441638 -980,29 c 3.03158,-1.291229 5.68654,-2.077538 9,-2 3.22496,2.155982 5.49476,5.065429 8,8 27.25453,26.098646 61.27526,45.682077 95.00293,62.030273 1.36486,0.662742 2.7274,1.330286 4.08789,2.001954 80.52265,39.735153 172.30316,59.701283 311.27576,71.826473 2.54278,0.13644 5.08461,0.28509 7.62658,0.43573 14.01826,0.79402 28.02195,0.85856 42.06006,0.83594 3.91329,-0.005 7.82646,-4e-5 11.73975,0.006 25.36235,0.009 50.62026,-0.73755 75.89453,-2.88672 1.03234,-0.0862 2.06468,-0.17229 3.1283,-0.26105 21.46022,-1.80069 42.84649,-4.07247 64.1842,-6.98895 0.76691,-0.10466 1.53382,-0.20931 2.32397,-0.31714 C -291.98578,154.28108 -239.09657,140.95919 -188,123 c 0.63593,-0.22279 1.27186,-0.44557 1.92706,-0.67511 C -169.01921,116.34113 -152.41307,109.56224 -136,102 c 1.0008,-0.46052 2.00159,-0.92104 3.03271,-1.39551 34.490562,-15.966916 68.623955,-35.657273 96.709478,-61.530271 2.029447,-1.864423 4.098154,-3.661965 6.195312,-5.449219 C -18.609864,23.603943 -8.9629123,12.266888 0,0 Z"
       fill="#f8d900"
       transform="translate(1143,427)"
       id="path8" /><path
       d="M 0,0 C 2.0618983,0.00280822 4.1237842,0.00259133 6.1856842,0.00239563 28.797556,0.01832726 51.092266,1.1296517 73.519974,4.1153717 c 3.026605,0.3955187 6.058655,0.7443148 9.089905,1.1022339 69.267621,8.7265884 69.267621,8.7265884 87.917971,21.1601564 -1.63114,9.240802 -4.24817,18.143832 -6.90235,27.128906 -0.48322,1.642403 -0.96642,3.284813 -1.4496,4.927231 -1.00782,3.420849 -2.0196,6.840499 -3.03355,10.259537 -1.30048,4.388333 -2.5852,8.781119 -3.8664,13.17511 -0.98939,3.383255 -1.9898,6.763175 -2.99334,10.142255 -0.47895,1.619574 -0.95376,3.240376 -1.42439,4.862385 -0.65573,2.255892 -1.32681,4.506644 -2.002,6.756774 -0.28769,1.00897 -0.28769,1.00897 -0.58118,2.03833 -0.56468,1.84718 -0.56468,1.84718 -1.74719,4.70947 -3.89676,1.29892 -5.7015,0.44553 -9.63282,-0.69531 -1.36443,-0.388 -2.72894,-0.77577 -4.0935,-1.16333 -0.71703,-0.20687 -1.43406,-0.41373 -2.17282,-0.62686 -14.9074,-4.28294 -29.81434,-7.84261 -45.100863,-10.514498 C 84.053482,97.109717 84.053482,97.109717 82.549332,96.836258 13.26249,84.376782 -60.692352,88.283157 -127.98216,108.97639 c -1.07822,0.32839 -2.15644,0.65678 -3.26734,0.99512 -1.4114,0.44376 -1.4114,0.44376 -2.85131,0.89649 -2.37134,0.50976 -2.37134,0.50976 -5.37134,-0.49024 -1.09313,-2.57635 -1.09313,-2.57635 -2.11304,-6.05762 -0.18908,-0.63275 -0.37817,-1.2655 -0.57298,-1.91743 -0.62556,-2.10399 -1.23336,-4.212689 -1.84133,-6.321823 -0.43343,-1.46991 -0.86798,-2.93949 -1.3036,-4.408753 -1.14864,-3.884836 -2.28245,-7.773848 -3.41313,-11.66394 -1.13876,-3.90923 -2.29039,-7.81466 -3.44147,-11.720276 -1.30061,-4.414664 -2.60005,-8.82963 -3.8889,-13.247742 -0.19739,-0.675898 -0.39478,-1.351796 -0.59815,-2.048175 -0.38533,-1.319986 -0.76998,-2.640169 -1.15389,-3.960564 -1.55607,-5.325497 -3.2356,-10.607906 -4.96235,-15.880299 -0.69739,-2.719651 -0.85077,-4.980683 -0.71116,-7.773376 29.00272,-8.631843 58.05135,-15.4876632 87.999997,-20.0000002 1.004986,-0.1545263 2.009971,-0.3090527 3.04541,-0.4682617 C -48.354627,1.2419576 -24.337648,-0.03320279 0,0 Z m -159.47215,28.377762 c 0.69168,6.886163 2.71434,13.331199 4.67578,19.949219 0.54965,1.873508 0.54965,1.873508 1.1104,3.784866 0.77458,2.639251 1.55237,5.277528 2.33271,7.915085 0.98975,3.345651 1.9734,6.693055 2.95482,10.041156 0.94815,3.232879 1.90016,6.464618 2.85207,9.696393 0.34807,1.184784 0.69614,2.369568 1.05476,3.590255 2.18924,7.394703 4.5309,14.7236 7.01946,22.023024 0.87656,-0.21914 1.75312,-0.43828 2.65625,-0.66406 1.99665,-0.49916 3.99335,-0.99811 5.99072,-1.49439 4.28768,-1.06713 8.56911,-2.15465 12.84521,-3.267329 20.256671,-5.235023 40.561624,-9.237246 61.320317,-11.824219 0.998943,-0.124626 0.998943,-0.124626 2.018067,-0.25177 13.033221,-1.606543 25.95026,-2.655126 39.091308,-2.631043 1.184266,-9.56e-4 2.368532,-0.0019 3.5886844,-0.0029 2.4873662,-6.75e-4 4.9747343,0.0011 7.4620971,0.0053 3.7539478,0.0053 7.5077748,4.3e-5 11.2617188,-0.0063 18.6182527,-0.0074 36.7667717,0.734621 55.2031247,3.386719 0.77797,0.110487 1.555939,0.220973 2.357483,0.334808 21.171476,3.01822 41.86727,6.988313 62.42328,12.912514 1.20286,0.33862 2.40571,0.67724 3.64502,1.02612 1.06517,0.30857 2.13034,0.61714 3.22778,0.93506 3.05128,0.568 4.92467,0.22873 7.90894,-0.4585 2.74439,-9.316699 5.48299,-18.635079 8.21418,-27.955656 1.26836,-4.327802 2.53872,-8.654996 3.81365,-12.98087 1.23016,-4.174249 2.45507,-8.350006 3.67635,-12.526863 0.467,-1.593754 0.93589,-3.186954 1.4067,-4.779586 0.65881,-2.229751 1.31087,-4.461369 1.96138,-6.693551 0.19637,-0.658872 0.39273,-1.317744 0.59505,-1.996582 0.92976,-3.216685 1.33269,-5.670891 1.33269,-9.066894 -73.178129,-21.4221884 -149.405262,-29.6514706 -324,1 z"
       fill="#f2d401"
       transform="translate(638.47215,11.622238)"
       id="path9" /><path
       d="m 0,0 c 12.274948,1.3978419 24.286216,3.7360871 36.375,6.25 0.975981,0.2017483 1.951963,0.4034967 2.95752,0.6113586 C 54.293614,9.9569843 69.220085,13.117011 84,17 c 0.945074,0.247228 0.945074,0.247228 1.909241,0.499451 C 166.60295,38.64902 247.48523,70.541179 311,126 c 0.7902,0.67805 1.58039,1.35609 2.39453,2.05469 5.83605,5.11027 11.34473,10.55132 16.85547,16.00781 0.76917,0.75612 1.53833,1.51223 2.33081,2.29126 C 337.2012,150.96712 341.20919,155.682 345,161 c -4.455,1.485 -4.455,1.485 -9,3 -0.53367,-0.59426 -1.06734,-1.18852 -1.61719,-1.80078 -1.58032,-1.75805 -3.16251,-3.51442 -4.74609,-5.26953 -1.73348,-1.92609 -3.46026,-3.85823 -5.17969,-5.79688 -4.26577,-4.77501 -8.53333,-9.30604 -13.44141,-13.42187 -1.37506,-1.16721 -2.71827,-2.37274 -4.03125,-3.60938 -26.58282,-25.00273 -60.1534,-44.188272 -92.8413,-60.056638 -2.25858,-1.10124 -4.50712,-2.22161 -6.75635,-3.341797 C 142.02511,38.496521 69.597109,20.623131 -2,9 -1.34,6.03 -0.68,3.06 0,0 Z"
       fill="#f8d900"
       transform="translate(811,63)"
       id="path10" /><path
       d="m 0,0 c 41.872753,4.2962855 83.935055,15.349035 124,28 0.65065,0.204558 1.30131,0.409116 1.97168,0.619873 32.56747,10.254607 64.39186,22.593572 94.7832,38.22876 1.60863,0.824954 3.22032,1.643934 4.83399,2.458984 28.27149,14.279836 54.46754,31.381223 78.72363,51.754883 0.57009,0.47768 1.14018,0.95536 1.72754,1.44751 1.34044,1.13971 2.65333,2.31167 3.95996,3.48999 0,0.33 0,0.66 0,1 -4.84969,1.09328 -9.48142,1.38898 -13.96289,-1.08252 -4.49626,-3.092 -8.64894,-6.62873 -12.83594,-10.12158 -3.43356,-2.80139 -7.01387,-5.37428 -10.63867,-7.9209 -0.69754,-0.49057 -1.39509,-0.98114 -2.11377,-1.48657 C 257.51164,97.403099 243.82727,89.523975 230,82 229.20126,81.561074 228.40253,81.122148 227.57959,80.669922 202.11821,66.745808 175.38596,55.540502 148,46 147.07308,45.675126 147.07308,45.675126 146.12744,45.343689 114.83677,34.379844 83.25857,25.744475 50.875,18.625 49.73134,18.37179 48.587679,18.11858 47.409363,17.857697 31.023893,14.248464 14.611879,11.355244 -2,9 -1.125,2.25 -1.125,2.25 0,0 Z"
       fill="#f8d800"
       transform="translate(806,79)"
       id="path11" /><path
       d="M 0,0 C 1.7646268,3.088097 2,4.2331214 2,8 0.35862061,8.3006738 0.35862061,8.3006738 -1.315918,8.6074219 -34.261604,14.664818 -66.87113,21.426949 -99,31 c -1.1318,0.336123 -2.26359,0.672246 -3.42969,1.018555 C -140.98564,43.545267 -178.04073,57.977441 -214,76 c -0.96905,0.483237 -1.93811,0.966475 -2.93652,1.464355 -11.459,5.745817 -22.47661,12.046583 -33.34034,18.854004 -7.18041,4.478031 -13.00811,7.923131 -21.66064,8.369141 -1.1434,0.0657 -2.2868,0.13148 -3.46484,0.19922 -0.85723,0.0374 -1.71446,0.0748 -2.59766,0.11328 3.51043,-3.86512 7.5474,-6.581936 11.875,-9.4375 1.18541,-0.783347 1.18541,-0.783347 2.39478,-1.58252 C -229.11155,71.336783 -191.69972,53.462537 -153,39 c 1.83474,-0.686426 1.83474,-0.686426 3.70654,-1.386719 39.5508,-14.716434 80.268505,-25.339769 121.60596,-33.675781 0.9857,-0.2002176 1.9714,-0.4004352 2.986969,-0.60672 2.811331,-0.5679649 5.624525,-1.1253254 8.438812,-1.6784363 1.250794,-0.2523944 1.250794,-0.2523944 2.526856,-0.5098877 C -9.0643356,0.24173537 -4.7566523,-0.16816247 0,0 Z"
       fill="#f8d800"
       transform="translate(473,65)"
       id="path12" /><path
       d="M 0,0 C 1.7646268,3.088097 2,4.2331214 2,8 0.89640137,8.1952124 -0.20719727,8.3904248 -1.3442383,8.5915527 -39.176591,15.316417 -76.328484,23.461404 -113,35 c -1.09635,0.34418 -1.09635,0.34418 -2.21484,0.695312 C -151.14195,47.00454 -186.4534,60.599195 -219.5625,78.6875 -228.68675,83.646749 -236.61662,85.391826 -247,85 c 2.67762,-2.864183 5.19398,-4.875493 8.64063,-6.734375 0.89726,-0.487427 1.79453,-0.974854 2.71899,-1.477051 0.95382,-0.507729 1.90765,-1.015459 2.89038,-1.538574 0.98927,-0.532222 1.97855,-1.064443 2.9978,-1.612793 7.49176,-4.011384 15.02707,-7.916768 22.67359,-11.624512 2.23209,-1.087468 4.45375,-2.19487 6.67627,-3.301758 C -185.28783,51.265182 -169.71311,45.043666 -154,39 c 1.03544,-0.400737 2.07088,-0.801475 3.1377,-1.214355 C -108.32114,21.459073 -63.668009,10.632343 -19,2 -17.93177,1.7924609 -16.86354,1.5849219 -15.762939,1.3710937 -14.794451,1.1880469 -13.825962,1.005 -12.828125,0.81640625 -12.000869,0.65986572 -11.173613,0.5033252 -10.321289,0.34204102 -6.8437831,-0.17036809 -3.5084317,-0.13239365 0,0 Z"
       fill="#f8d900"
       transform="translate(478,81)"
       id="path13" /><path
       d="m 0,0 c 6.3686479,3.6932938 10.645796,10.580892 12.6875,17.5 0.875386,8.235108 0.422194,15.828524 -4,23 -4.1664072,4.852402 -8.69089581,7.48548 -15.09375,8.25 -6.848503,0.37526 -11.734779,-1.434446 -16.855469,-5.980469 C -28.945267,36.800018 -31.36996,30.705243 -31.6875,22.5 c 0.283467,-7.93708 2.549325,-14.4332439 8.375,-20 C -16.437492,-2.5270558 -7.8530096,-3.3634305 0,0 Z"
       fill="#f9da00"
       transform="translate(847.3125,511.5)"
       id="path14" /><path
       d="M 0,0 C 3.5428923,2.5059482 5.9512399,4.5851687 7.1328125,8.890625 8.0277052,14.488464 7.1537654,17.829297 4.5625,22.8125 c -0.33,0.99 -0.66,1.98 -1,3 0.8806258,1.805241 0.8806258,1.805241 2.3085937,3.574219 0.4995118,0.66709 0.9990235,1.334179 1.5136719,2.021484 C 8.1843066,32.443643 8.1843066,32.443643 9,33.5 c 0.5291602,0.701895 1.05832,1.403789 1.603516,2.126953 1.310629,1.735698 2.630417,3.463564 3.958984,5.185547 -3.161415,3.38134 -5.502386,4.773378 -10,6 -4.39719064,-5.620078 -8.7409398,-11.27445 -13,-17 0.165,0.763125 0.33,1.52625 0.5,2.3125 0.6656215,4.908958 0.5792008,9.741851 0.5,14.6875 -3.619734,1.316267 -6.095671,2 -10,2 -1.452079,-9.669654 -2.636531,-19.334151 -3.625,-29.0625 -0.134062,-1.278105 -0.268125,-2.556211 -0.40625,-3.873047 C -22.521442,5.6346894 -22.521442,5.6346894 -22.4375,0.8125 -14.990617,-1.4356156 -7.4986445,-2.5904408 0,0 Z"
       fill="#f9d900"
       transform="translate(759.4375,526.1875)"
       id="path15" /><path
       d="M 0,0 C 3.1593072,2.4762138 5.5142144,5.2159288 7.3125,8.8125 7.4343273,10.413255 7.487966,12.019661 7.5,13.625 7.51418,14.47707 7.528359,15.329141 7.542969,16.207031 7.3125,18.8125 7.3125,18.8125 5.3125,23.8125 c 6.93,6.93 6.93,6.93 14,14 -5,5 -5,5 -10,7 -4.62,-4.95 -9.24,-9.9 -14,-15 0.495,1.876875 0.99,3.75375 1.5,5.6875 1.0260366,3.890389 1.6793551,7.284484 1.5,11.3125 -1.2891349,0.671549 -2.581402,1.337089 -3.875,2 -0.7192969,0.37125 -1.4385937,0.7425 -2.1796875,1.125 -1.9453125,0.875 -1.9453125,0.875 -3.9453125,0.875 -1.740969,-6.189269 -3.466706,-12.382637 -5.181885,-18.579102 -0.585359,-2.107748 -1.174207,-4.21453 -1.766601,-6.320312 -0.850575,-3.025851 -1.68857,-6.054946 -2.52417,-9.084961 -0.267647,-0.941801 -0.535294,-1.883602 -0.811051,-2.853943 -0.240324,-0.880611 -0.480649,-1.761222 -0.728256,-2.668518 -0.215399,-0.772773 -0.430799,-1.5455456 -0.652725,-2.3417358 C -23.729428,6.5434796 -23.608319,5.0801916 -22.6875,2.8125 -15.812034,-0.41597983 -7.2480746,-3.2026376 0,0 Z"
       fill="#f9da00"
       transform="translate(891.6875,499.1875)"
       id="path16" /><path
       d="m 0,0 c 10.973056,0.3940056 21.325089,2.5764457 32,5 -1.542043,4.866207 -4.357064,8.202264 -7.5625,12.0625 -1.08085,1.325664 -2.16026,2.652504 -3.238281,3.980469 -0.805584,0.990725 -0.805584,0.990725 -1.627442,2.001465 C 17.240312,25.945185 14.983464,28.898421 12.75,31.875 12.022969,32.841797 11.295938,33.808594 10.546875,34.804687 8.9040004,36.688649 8.9040004,36.688649 9,38 c 5.94,0.99 11.88,1.98 18,3 -0.869726,4.348629 -1.947494,7.162707 -4,11 C 18.238541,52.105869 13.872288,51.769085 9.1914063,50.90625 7.9506836,50.680664 6.7099609,50.455078 5.4316406,50.222656 4.1548242,49.98418 2.8780078,49.745703 1.5625,49.5 0.24554603,49.25855 -1.0715106,49.01766 -2.3886719,48.777344 -5.5934989,48.190379 -8.7971735,47.597768 -12,47 c 1.757629,-3.672146 3.9295758,-6.656832 6.4375,-9.875 0.4337695,-0.558647 0.8675391,-1.117295 1.3144531,-1.692871 2.4161043,-3.106297 4.8497557,-6.198787 7.2832032,-9.291504 C 3.5302368,25.511401 4.0253174,24.882178 4.5354004,24.233887 5.4953052,23.015564 6.4566794,21.798398 7.4196777,20.58252 9.3784782,18.102834 11.24588,15.631181 13,13 7.72,12.34 2.44,11.68 -3,11 -2.2817669,6.6906014 -1.6926881,3.8367596 0,0 Z"
       fill="#f8d900"
       transform="translate(476,513)"
       id="path17" /><path
       d="m 0,0 c 7.3162626,-0.18463754 14.3157,0.5302655 21.5625,1.5 1.104082,0.1430859 2.208164,0.2861719 3.345703,0.4335937 C 27.606176,2.2839799 30.303356,2.6395527 33,3 c -1.302699,2.7362339 -2.742463,5.1881501 -4.503906,7.652344 -0.489522,0.68844 -0.979043,1.37688 -1.483399,2.086181 -0.519814,0.725662 -1.039629,1.451324 -1.575195,2.198975 -1.079919,1.517879 -2.159341,3.036113 -3.238281,4.554687 -0.537056,0.755069 -1.074112,1.510137 -1.627442,2.288086 C 17.00198,26.821684 13.507021,31.91482 10,37 c 6.27,0.99 12.54,1.98 19,3 -1.32,3.63 -2.64,7.26 -4,11 -11.758265,-0.716967 -23.3444794,-2.331787 -35,-4 1.254831,-2.610191 2.6053376,-5.015733 4.25,-7.398438 0.6587512,-0.957128 0.6587512,-0.957128 1.3308106,-1.933593 C -3.9508569,36.993789 -3.4825244,36.319609 -3,35.625 -2.5181323,34.927617 -2.0362647,34.230234 -1.5397949,33.511719 3.2342325,26.622044 8.1079878,19.806278 13,13 7.72,12.34 2.44,11.68 -3,11 -1.125,2.25 -1.125,2.25 0,0 Z"
       fill="#f9d900"
       transform="translate(522,521)"
       id="path18" /><path
       d="m 0,0 c 19,0 19,0 26,4 3.615115,4.5022598 3.49939,8.538522 3.355469,14.117187 C 28.768892,22.874263 26.681787,25.506689 23.1875,28.609375 19.395282,31.020142 15.419664,30.709233 11,31 11,36.61 11,42.22 11,48 8,49 8,49 0,49 0,32.83 0,16.66 0,0 Z"
       fill="#f8d900"
       transform="translate(647,530)"
       id="path19" /><path
       d="M 0,0 C 3.4632774,1.1544258 3.5726991,1.5185501 5.1289062,4.6142578 5.5194116,5.3788532 5.909917,6.1434485 6.3122559,6.9312134 6.7248364,7.7634442 7.137417,8.5956751 7.5625,9.453125 7.995061,10.305497 8.4276221,11.15787 8.873291,12.036072 10.258188,14.769451 11.629459,17.509399 13,20.25 c 1.37326,2.724868 2.749271,5.448324 4.126709,8.171082 0.856722,1.695772 1.710528,3.393021 2.561035,5.091918 1.61422,3.212704 3.228538,6.349286 5.097412,9.423523 C 26,45 26,45 26,47 c -3.63,0.99 -7.26,1.98 -11,3 -2.475,-4.455 -2.475,-4.455 -5,-9 -4.95,0 -9.9,0 -15,0 -0.66,2.97 -1.32,5.94 -2,9 -4.550318,1.137579 -6.630844,0.428378 -11,-1 0.631319,-5.73551 2.677769,-10.687164 4.816406,-15.992188 0.375918,-0.94594 0.751836,-1.89188 1.139145,-2.866485 1.196744,-3.007699 2.4017165,-6.012021 3.606949,-9.016327 0.8149991,-2.044053 1.6294583,-4.088322 2.4433594,-6.132812 C -4.0023407,9.9922803 -2.0037819,4.9951164 0,0 Z"
       fill="#f9da00"
       transform="translate(702,528)"
       id="path20" /><path
       d="M 0,0 C 2.5272704,2.2399624 3.663298,4.1696796 4.8093262,7.3320312 5.1294316,8.2030347 5.449537,9.0740381 5.7793426,9.9714356 6.1138393,10.908987 6.4483359,11.846538 6.7929687,12.8125 c 0.3508919,0.965266 0.7017838,1.930532 1.0633088,2.925049 0.7393451,2.039482 1.4745729,4.08046 2.2059785,6.122803 1.122153,3.131025 2.258361,6.256674 3.396728,9.381835 0.716333,1.981469 1.431855,3.96323 2.146485,5.945313 0.340569,0.937551 0.681138,1.875103 1.032028,2.841064 0.465973,1.306506 0.465973,1.306506 0.94136,2.639405 0.27519,0.765945 0.55038,1.531889 0.833908,2.321045 C 19,47 19,47 19,50 15.37,50.33 11.74,50.66 8,51 7.62875,49.55625 7.2575,48.1125 6.875,46.625 5.9298425,44.04886 5.9298425,44.04886 4,42 c -4.62815081,-1.426924 -9.1750482,-1.800035 -14,-2 -0.460195,1.165957 -0.460195,1.165957 -0.929688,2.355469 C -11.854342,44.640108 -12.866399,46.81377 -14,49 c -4.115744,-0.474894 -7.363833,-1.021024 -11,-3 4.937263,-10.300424 10.321539,-20.334047 15.875,-30.3125 0.5040788,-0.906931 0.5040788,-0.906931 1.0183411,-1.832184 C -2.4045957,3.6068935 -2.4045957,3.6068935 0,0 Z"
       fill="#f9da00"
       transform="translate(585,526)"
       id="path21" /><path
       d="m 0,0 c 2.9004326,0.73489673 5.7944163,1.487136 8.6875,2.25 0.8166211,0.2049609 1.633242,0.4099219 2.474609,0.6210938 5.548254,1.4825293 9.826683,3.0723595 13.123047,8.0820312 1.640513,4.697425 1.620163,9.73501 -0.195312,14.371094 C 21.521441,29.792084 19.069266,32.497995 14,34 c -3.706652,0.220146 -7.2791378,0.136129 -11,0 -1.32,4.95 -2.64,9.9 -4,15 -7.875,0 -7.875,0 -11,-1 1.901608,-9.998427 4.1001502,-19.881023 6.5893555,-29.748535 0.5472045,-2.172357 1.0866006,-4.346563 1.6254882,-6.520996 0.3472023,-1.386833 0.6948409,-2.7735561 1.0429688,-4.1601565 0.3108252,-1.239917 0.6216504,-2.479834 0.9418945,-3.7573242 C -1,1 -1,1 0,0 Z"
       fill="#f9da00"
       transform="translate(408,496)"
       id="path22" /><path
       d="m 0,0 c 0.46040207,4.1826585 0.80279429,8.3671131 1.125,12.5625 0.1972266,1.772139 0.1972266,1.772139 0.3984375,3.580078 C 1.7613063,19.680877 1.8249057,22.545883 1,26 c -2.917763,3.211017 -6.1411621,5.083329 -10,7 -1.11375,0.639375 -2.2275,1.27875 -3.375,1.9375 -5.604194,1.642609 -12.287074,2.762953 -17.695312,0.0078 -2.756132,-2.250175 -4.730792,-4.315021 -5.167969,-7.898437 C -35.418779,21.460931 -34.784492,18.382043 -31,14 -23.939886,6.7588571 -10.29775,0 0,0 Z"
       fill="#fefcfc"
       transform="translate(505,344)"
       id="path23" /><path
       d="M 0,0 C 3.7457303,3.4716525 6.2314041,5.9458369 6.9453125,11.183594 7.1920153,17.770558 6.7577594,22.211604 2.5625,27.375 c -4.7894542,3.735774 -8.5807855,4.66881 -14.640625,4.375 -4.458214,-0.70859 -6.960404,-2.731117 -9.832031,-6.105469 -3.087426,-4.308636 -4.219689,-7.868999 -3.882813,-13.167968 C -24.822823,6.7409749 -21.71704,3.1195972 -17.4375,-0.625 -11.636644,-2.5586187 -5.5393254,-2.6185902 0,0 Z"
       fill="#ee3f48"
       transform="translate(1116.4375,232.625)"
       id="path24" /><path
       d="M 0,0 C 0.66,0 1.32,0 2,0 7.7630306,32.514289 7.7630306,32.514289 8,46 4.5045155,44.698279 1.2728492,43.101613 -2.0090332,41.334961 -26.435858,28.384013 -53.986196,24.768663 -81,21 c 1.804126,-3.26461 2.833947,-4.889298 6,-7 4.130308,-0.447175 8.285687,-0.324026 12.4375,-0.3125 1.125996,-0.01611 2.251992,-0.03223 3.412109,-0.04883 16.743555,-0.0096 30.227933,5.599213 43.07959,16.109619 3.000213,2.320123 5.429293,3.588639 9.180176,3.790771 C -2.5304057,32.934936 -0.81515039,32.373841 2,29 2.6828378,25.751165 2.6828378,25.751165 2.4375,22.125 2.3736914,20.146934 2.3736914,20.146934 2.3085938,18.128906 1.913808,12.033588 1.0385204,6.017855 0,0 Z"
       fill="#2c2829"
       transform="translate(194,247)"
       id="path25" /><path
       d="M 0,0 C 3.9566464,2.0577907 6.4286872,4.1155176 8.0351563,8.2734375 9.0188497,16.424041 6.6073889,23.656526 1.8710937,30.316406 c -3.1063387,3.829802 -6.2970734,7.519924 -9.8359374,10.957031 -1.6500001,-0.659999 -3.3000003,-1.32 -5.0000003,-2 1.444247,-3.238613 3.2577227,-5.619691 5.6250003,-8.25 0.6316406,-0.706406 1.2632812,-1.412812 1.9140625,-2.140625 0.4821093,-0.531093 0.9642187,-1.062187 1.4609374,-1.609375 -1.2168749,-0.06188 -2.4337499,-0.12375 -3.6874999,-0.1875 -4.5072503,-0.55842 -6.4686143,-2.215821 -9.3125003,-5.8125 -2.504952,-4.277822 -2.682863,-8.144086 -2,-12.9999995 C -15.07703,0.49780991 -8.4738168,-3.1334591 0,0 Z"
       fill="#f6f6f6"
       transform="translate(695.96484,38.726562)"
       id="path26" /><path
       d="m 0,0 c 0.71600876,4.4834336 1.4279734,8.9674838 2.1362305,13.452148 0.2414071,1.524916 0.48391,3.049658 0.727539,4.574219 0.3503928,2.193888 0.6968141,4.388371 1.0424805,6.583008 0.1093689,0.679316 0.2187378,1.358632 0.3314209,2.058533 C 4.7345874,29.846673 5,32.768193 5,36 c 5.94,-0.495 5.94,-0.495 12,-1 -0.33,3.96 -0.66,7.92 -1,12 -2.770296,0.503146 -5.541165,1.002638 -8.3125,1.5 C 6.9018164,48.643086 6.1161328,48.786172 5.3066406,48.933594 4.1706543,49.136621 4.1706543,49.136621 3.0117188,49.34375 2.3152222,49.469434 1.6187256,49.595117 0.90112305,49.724609 -1,50 -1,50 -4,50 -4.9990296,43.628261 -5.9957051,37.256156 -6.9907227,30.883789 -7.3296947,28.714758 -7.6692111,26.545813 -8.0092773,24.376953 -8.4971917,21.264544 -8.983165,18.151836 -9.46875,15.039063 -9.6218665,14.065065 -9.7749829,13.091067 -9.9327393,12.087555 -10.072885,11.186772 -10.21303,10.285989 -10.357422,9.3579102 -10.481776,8.5629312 -10.60613,7.7679523 -10.734253,6.9488831 -11,5 -11,5 -11,3 -9.7316047,2.493847 -8.460169,1.995309 -7.1875,1.5 -6.125957,1.0823437 -6.125957,1.0823437 -5.0429687,0.65625 -3,0 -3,0 0,0 Z"
       fill="#f8d800"
       transform="translate(791,519)"
       id="path27" /><path
       d="M 0,0 C 4.663378,2.0823339 7.0905941,4.7382856 9.5195313,9.3046875 10.80271,13.154224 10.585968,16.252069 10.519531,20.304687 6.0610087,20.164315 1.6027664,20.016389 -2.8554688,19.867187 c -1.2516796,-0.03932 -2.5033593,-0.07863 -3.7929687,-0.11914 -6.9810735,-0.237576 -13.8943305,-0.618407 -20.8320315,-1.44336 0.461441,-7.38305 3.292304,-12.292303 8.5,-17.4999995 C -12.939143,-1.7844522 -6.3262559,-1.7733442 0,0 Z"
       fill="#fdf8f9"
       transform="translate(859.48047,273.69531)"
       id="path28" /><path
       d="M 0,0 C 3.63,0 7.26,0 11,0 9.511403,10.367552 7.5235529,20.565639 5.375,30.8125 5.0465681,32.391212 4.7184413,33.969988 4.390625,35.548828 3.5972536,39.366624 2.7997965,43.183545 2,47 -1.63,47 -5.26,47 -9,47 -8.3856118,38.458298 -6.7499734,30.246641 -4.9887695,21.884033 -4.496155,19.544237 -4.011146,17.20296 -3.5273438,14.861328 -3.2165809,13.367097 -2.9053984,11.872953 -2.59375,10.378906 -2.4489319,9.6820522 -2.3041138,8.9851981 -2.1549072,8.2672272 -1.5592299,5.445585 -0.91302481,2.7390744 0,0 Z"
       fill="#f9d900"
       transform="translate(449,508)"
       id="path29" /><path
       d="m 0,0 c 0.66,1.98 1.32,3.96 2,6 -7.92,1.485 -7.92,1.485 -16,3 0.66,1.98 1.32,3.96 2,6 0.125,2.875 0.125,2.875 0,5 0.68707,-0.216562 1.374141,-0.433125 2.0820312,-0.65625 C -9.0169141,19.065312 -8.1158594,18.786875 -7.1875,18.5 -6.2941797,18.221562 -5.4008594,17.943125 -4.4804687,17.65625 -2,17 -2,17 1,17 c 0.33,1.98 0.66,3.96 1,6 -3.96,0.66 -7.92,1.32 -12,2 0.33,1.2375 0.66,2.475 1,3.75 0.7989116,2.995918 1,5.051077 1,8.25 0.9758203,-0.216563 1.9516406,-0.433125 2.9570313,-0.65625 C -3.7706641,36.065312 -2.4983594,35.786875 -1.1875,35.5 0.07707031,35.221562 1.3416406,34.943125 2.6445313,34.65625 6,34 6,34 9,34 c 0,1.98 0,3.96 0,6 -3.1239439,0.837327 -6.2493197,1.66918 -9.375,2.5 -0.8894531,0.238477 -1.7789063,0.476953 -2.6953125,0.722656 -1.2761719,0.338379 -1.2761719,0.338379 -2.578125,0.683594 -0.7855225,0.209473 -1.5710449,0.418945 -2.3803711,0.634766 C -10,45 -10,45 -12,45 c -1.286143,-5.213364 -2.567772,-10.427808 -3.845215,-15.643311 -0.435281,-1.774393 -0.871797,-3.548485 -1.30957,-5.322265 -0.628737,-2.54845 -1.253033,-5.097953 -1.876465,-7.647705 -0.196864,-0.793846 -0.393728,-1.587692 -0.596558,-2.405594 C -20.373193,10.917701 -21,8.1653598 -21,5 c 2.416564,-0.6462204 4.833246,-1.29199 7.25,-1.9375 0.681914,-0.1824023 1.363828,-0.3648047 2.066406,-0.5527344 C -9.7897006,2.0041145 -7.8948797,1.5019415 -6,1 -5.2214062,0.79246094 -4.4428125,0.58492187 -3.640625,0.37109375 -2,0 -2,0 0,0 Z"
       fill="#f6f6f6"
       transform="translate(531,48)"
       id="path30" /><path
       d="m 0,0 c 5.2696899,0.5855211 10.365043,1.1663867 15.5625,2.0625 1.548809,0.2649023 1.548809,0.2649023 3.128906,0.5351563 C 19.83416,2.7968164 19.83416,2.7968164 21,3 20.34,4.65 19.68,6.3 19,8 17.041296,7.8592368 15.083039,7.7122324 13.125,7.5625 12.034453,7.4812891 10.943906,7.4000781 9.8203125,7.3164062 7,7 7,7 5,6 4.67,8.64 4.34,11.28 4,14 c 1.03125,0.06188 2.0625,0.12375 3.125,0.1875 5.278159,1.106711 8.017499,3.279544 11.25,7.6875 1.423779,4.840848 0.996272,8.840699 -1.0625,13.375 C 15.345779,38.749407 13.922457,40.664695 10,42 4.59446,42.652963 0.35555972,42.631036 -4.625,40.3125 -7.2081898,37.797289 -7.8027068,36.551278 -8,33 c 2.1875,-0.75 2.1875,-0.75 5,-1 0.78375,0.66 1.5675,1.32 2.375,2 2.5555576,2.366151 2.5555576,2.366151 6.25,2 3.3431829,-0.736339 3.3431829,-0.736339 5.3125,-2.6875 C 12.36134,30.213555 12.551538,28.378172 12,25 10.273997,21.856417 10.273997,21.856417 7,20 2.05,20.495 2.05,20.495 -3,21 -2.01,14.07 -1.02,7.14 0,0 Z"
       fill="#f8f8f8"
       transform="translate(718,42)"
       id="path31" /><path
       d="M 0,0 C 3.9113552,3.2160032 6.5773649,6.3040332 7.3710937,11.367188 7.489301,15.83125 7.5431444,19.007356 4.625,22.5625 1.5522554,25.415763 0.83520274,25.921207 -3.3125,26.3125 -7.6963805,25.940985 -9.0396156,25.207083 -12,22 -14.924997,16.755177 -15.650688,12.856191 -15,7 -13.372988,3.862192 -11.951787,1.7548653 -9.1875,-0.4375 -5.781792,-1.3132535 -3.3871971,-0.89136765 0,0 Z"
       fill="#25211f"
       transform="translate(842,522)"
       id="path32" /><path
       d="M 0,0 C 1.2375,0.7425 1.2375,0.7425 2.5,1.5 1.84,3.15 1.18,4.8 0.5,6.5 -0.180625,6.335 -0.86125,6.17 -1.5625,6 -4.9316652,5.4265251 -8.0882146,5.3687775 -11.5,5.5 c -1.356185,1.125341 -1.356185,1.125341 -1.0625,4.0625 0.02063,0.969375 0.04125,1.93875 0.0625,2.9375 0.99,0.433125 1.98,0.86625 3,1.3125 0.6355078,0.278438 1.2710156,0.556875 1.9257813,0.84375 2.0583854,0.871191 2.0583854,0.871191 4.1796874,1.5 C 0.36874958,17.342425 2.2473243,18.228374 5,21.1875 6.8154911,25.19671 7.3612262,28.176644 6.5,32.5 4.890765,35.603525 3.4965273,37.717014 0.75,39.875 -4.3341013,41.28725 -8.2432356,41.038613 -13,39 c -0.825,-0.495 -1.65,-0.99 -2.5,-1.5 0.50604,-2.168743 0.999838,-3.999676 2,-6 0.70125,0.33 1.4025,0.66 2.125,1 3.2671636,1.136405 5.4466819,1.521701 8.875,1 1.9354148,-2.390569 1.9354148,-2.390569 3,-5 C -1.0856075,25.069219 -1.9178319,23.730742 -5.4960937,22.3125 -6.6317578,22.044375 -7.7674219,21.77625 -8.9375,21.5 -12.864977,20.570631 -14.983794,20.010263 -17.875,17.152344 -20.299615,13.19486 -20.433695,10.002308 -19.5,5.5 -15.284095,-2.2398864 -7.6182389,-3.2649595 0,0 Z"
       fill="#f7f7f7"
       transform="translate(562.5,44.5)"
       id="path33" /><path
       d="M 0,0 C 1.3146237,2.6292474 0.75604823,3.6203737 0.00390625,6.4296875 -0.22490234,7.3075391 -0.45371094,8.1853906 -0.68945312,9.0898438 -0.93630859,10.008945 -1.1831641,10.928047 -1.4375,11.875 c -0.4822438,1.808734 -0.9602711,3.618599 -1.4335938,5.429687 -0.2158373,0.804214 -0.4316748,1.608428 -0.6540527,2.437012 C -4.1371804,22.267786 -4.1371804,22.267786 -4,26 c 1.65,0.66 3.3,1.32 5,2 -0.66,1.32 -1.32,2.64 -2,4 -1.98,-0.33 -3.96,-0.66 -6,-1 -0.33,2.97 -0.66,5.94 -1,9 -1.98,0 -3.96,0 -6,0 0.66,-3.63 1.32,-7.26 2,-11 -1.36125,-0.12375 -2.7225,-0.2475 -4.125,-0.375 C -19.972353,28.20562 -23.371298,27.395655 -27,26 -18.99885,16.357588 -10.100679,7.4472999 0,0 Z"
       fill="#f7f7f7"
       transform="translate(772,52)"
       id="path34" /><path
       d="m 0,0 c 0,0.66 0,1.32 0,2 -2.4208114,0.7122728 -4.8420302,1.4231222 -7.2636719,2.1325684 -2.143703,0.6281049 -4.2869211,1.2578667 -6.4296871,1.8891601 -5.617589,1.6460709 -11.240225,3.2415491 -16.904297,4.7204595 -10.42155,2.745462 -20.231141,5.472573 -29.634766,10.857177 -4.329049,2.451643 -4.329049,2.451643 -7.185547,2.119385 C -67.940039,23.481562 -68.462109,23.244375 -69,23 c 3.290077,-1.886654 6.582429,-3.769082 9.878906,-5.644531 2.706555,-1.541367 5.400122,-3.102494 8.085938,-4.679688 C -35.1135,3.4040004 -18.756395,-5.1153803 0,0 Z"
       fill="#2c2829"
       transform="translate(492,297)"
       id="path35" /><path
       d="m 0,0 c 0,1.65 0,3.3 0,5 -2.64,0 -5.28,0 -8,0 0.090879,0.9128979 0.1817578,1.8257959 0.2753906,2.7663574 0.3373983,3.4010176 0.6726048,6.8022366 1.0063477,10.2036136 0.1446352,1.469487 0.2901325,2.93889 0.4365234,4.408203 0.2107892,2.117212 0.4184322,4.234714 0.6254883,6.352295 0.1256836,1.272546 0.2513672,2.545093 0.3808594,3.856201 C -5.0471869,35.415142 -4.9431675,38.16548 -5,41 c -2.97,0.495 -2.97,0.495 -6,1 -0.508355,-4.311557 -1.005161,-8.624372 -1.5,-12.9375 -0.143086,-1.212363 -0.286172,-2.424727 -0.433594,-3.673828 C -13.674796,18.876685 -14.169674,12.553651 -14,6 c -3.63,0.66 -7.26,1.32 -11,2 0.66,-1.98 1.32,-3.96 2,-6 7.728888,-1.95403042 15.0504201,-2.22428282 23,-2 z"
       fill="#f6f5f5"
       transform="translate(597,39)"
       id="path36" /><path
       d="m 0,0 c 9.2590682,-0.1983013 18.337012,0.29100632 27.542725,1.171875 2.179553,0.2064187 4.360171,0.3965099 6.541259,0.5859375 1.392669,0.129237 2.785251,0.259409 4.177735,0.390625 1.247409,0.11521 2.494819,0.2304199 3.780029,0.3491211 C 45,3 45,3 47,5 44.938476,5.6489424 42.875737,6.2940264 40.8125,6.9375 39.663945,7.2971484 38.515391,7.6567969 37.332031,8.0273438 31.307308,9.7860263 25.811845,10.240337 19.5625,10.3125 18.729121,10.3415 17.895742,10.37051 17.037109,10.40039 11.500221,10.457291 8.3863786,9.6944996 4,6 0,1.4736842 0,1.4736842 0,0 Z"
       fill="#2a2627"
       transform="translate(844,342)"
       id="path37" /><path
       d="M 0,0 C 3.7457303,3.4716525 6.2314041,5.9458369 6.9453125,11.183594 7.1920153,17.770558 6.7577594,22.211604 2.5625,27.375 c -4.7894542,3.735774 -8.5807855,4.66881 -14.640625,4.375 -4.458214,-0.70859 -6.960404,-2.731117 -9.832031,-6.105469 -3.087426,-4.308636 -4.219689,-7.868999 -3.882813,-13.167968 C -24.822823,6.7409749 -21.71704,3.1195972 -17.4375,-0.625 -11.636644,-2.5586187 -5.5393254,-2.6185902 0,0 Z m -19.4375,5.375 c -2.566739,4.4490149 -3.578504,7.991934 -2.71875,13.003906 1.51196,4.198976 4.720235,7.996837 8.71875,9.996094 3.7570186,0.525983 7.4275051,0.827629 10.8554687,-0.976563 C 1.0474849,24.476901 3.1721218,21.615921 3.96875,17.042969 4.1538479,12.145588 3.9284615,9.1384155 0.6875,5.3125 -2.529596,2.0099256 -4.6428343,1.1937386 -9.25,1.0625 -13.924413,1.129855 -16.304467,1.672325 -19.4375,5.375 Z"
       fill="#fdf0f1"
       transform="translate(1116.4375,232.625)"
       id="path38" /><path
       d="m 0,0 c 0.21126755,14.014081 -0.42640239,28.000252 -1,42 -1.65,0 -3.3,0 -5,0 0,-10.23 0,-20.46 0,-31 -3.96,1.98 -3.96,1.98 -8,4 -0.66,-1.32 -1.32,-2.64 -2,-4 2.123427,-1.6478987 4.248645,-3.2933879 6.375,-4.9375 C -9.0217188,5.5939258 -8.4184375,5.1253516 -7.796875,4.6425781 -1.7849033,0 -1.7849033,0 0,0 Z"
       fill="#fafafa"
       transform="translate(659,36)"
       id="path39" /><path
       d="M 0,0 C 2.4375,1.5 2.4375,1.5 4,4 4.8041466,8.0456036 4.638289,10.978738 2.4375,14.5 -0.94888329,16.583928 -3.0938532,16.558021 -7,16 -9.4375,14.5 -9.4375,14.5 -11,12 -11.804147,7.9543964 -11.638289,5.0212624 -9.4375,1.5 -6.0511167,-0.58392818 -3.9061468,-0.55802097 0,0 Z"
       fill="#272324"
       transform="translate(694,44)"
       id="path40" /><path
       d="M 0,0 C 1.588125,-0.061875 3.17625,-0.12375 4.8125,-0.1875 6.1524805,-0.239707 6.1524805,-0.239707 7.5195312,-0.29296875 10,0 10,0 11.847656,1.2460937 13.356491,3.5425914 13.119887,4.5794773 12.625,7.25 11.981451,11.47805 12.19799,14.811727 13,19 12.01,19 11.02,19 10,19 9.5875,17.865625 9.175,16.73125 8.75,15.5625 7.433146,11.904566 7.433146,11.904566 4.8125,11.0625 4.214375,11.041875 3.61625,11.02125 3,11 3,13.64 3,16.28 3,19 2.01,19 1.02,19 0,19 0,12.73 0,6.46 0,0 Z"
       fill="#fdedee"
       transform="translate(1101,238)"
       id="path41" /><path
       d="M 0,0 C 0.66,0.33 1.32,0.66 2,1 2.4375,3.1875 2.4375,3.1875 2,6 -1.3089812,9.7564221 -5.0361231,11.261871 -9.9375,11.8125 -11.290529,11.89608 -12.644813,11.966197 -14,12 c 0.195312,-2.296875 0.195312,-2.296875 1,-5 2.179687,-1.765625 2.179687,-1.765625 4.875,-3.25 C -7.2407031,3.2498438 -6.3564062,2.7496875 -5.4453125,2.234375 -3,1 -3,1 0,0 Z"
       fill="#2e2a2b"
       transform="translate(494,358)"
       id="path42" /><path
       d="M 0,0 C 2.6423377,2.1925781 4.4666981,3.9333962 6,7 -0.7685324,7.101528 -7.3032486,7.0302694 -14,6 -11.233034,-0.68683476 -6.8822464,-2.2804269 0,0 Z"
       fill="#333030"
       transform="translate(856,280)"
       id="path43" /><path
       d="M 0,0 C 0.33,5.28 0.66,10.56 1,16 -6.03125,11.605469 -6.03125,11.605469 -8,10 -8,7 -8,7 -6.5039062,5.1757812 -5.8632422,4.5608984 -5.2225781,3.9460156 -4.5625,3.3125 -3.9244141,2.6898828 -3.2863281,2.0672656 -2.6289063,1.4257812 -1,0 -1,0 0,0 Z"
       fill="#282425"
       transform="translate(744,326)"
       id="path44" /><path
       d="M 0,0 C 2.8125,-0.3125 2.8125,-0.3125 6,0 8,2.1875 8,2.1875 9,5 8.4375,7.6875 8.4375,7.6875 7,10 4.9101562,11.144531 4.9101562,11.144531 3,12 2.4944009,10.56446 1.9957251,9.1264798 1.5,7.6875 1.2215625,6.8869922 0.943125,6.0864844 0.65625,5.2617187 0,3 0,3 0,0 Z"
       fill="#2a251e"
       transform="translate(881,510)"
       id="path45" /><path
       d="M 0,0 C 2.9375,0.375 2.9375,0.375 6,1 7.3993501,3.7987003 7.252654,5.9049879 7,9 5.6875,10.875 5.6875,10.875 4,12 3.01,12 2.02,12 1,12 -0.3271261,8.0186217 -0.06915913,4.1495477 0,0 Z"
       fill="#27231f"
       transform="translate(749,536)"
       id="path46" /><path
       d="M 0,0 C 5,1 5,1 6.875,2.25 8,4 8,4 7.9375,6.5625 7,9 7,9 5.125,10.3125 3,11 3,11 0,11 0,7.37 0,3.74 0,0 Z"
       fill="#2e281e"
       transform="translate(658,540)"
       id="path47" /><path
       d="M 0,0 C 4.875,1.875 4.875,1.875 6,3 6.1875,5.4375 6.1875,5.4375 6,8 4,10 4,10 0.375,10.125 -0.73875,10.08375 -1.8525,10.0425 -3,10 -2.6920167,8.5198863 -2.378482,7.0409267 -2.0625,5.5625 -1.8884766,4.7387891 -1.7144531,3.9150781 -1.5351562,3.0664063 -1,1 -1,1 0,0 Z"
       fill="#2b261e"
       transform="translate(416,509)"
       id="path48" /><path
       d="M 0,0 C 8.8400047,-0.7857782 17.023811,2.7207215 24,8 21.240554,9.379723 20.141211,8.5954508 17.246094,7.6367187 16.30959,7.3266992 15.373086,7.0166797 14.408203,6.6972656 13.427871,6.364043 12.447539,6.0308203 11.4375,5.6875 10.453301,5.3658789 9.4691016,5.0442578 8.4550781,4.7128906 7.5198633,4.3990039 6.5846484,4.0851172 5.6210937,3.7617188 4.7592749,3.4725659 3.8974561,3.1834131 3.0095215,2.885498 1,2 1,2 0,0 Z"
       fill="#3a3737"
       transform="translate(1201,286)"
       id="path49" /><path
       d="M 0,0 C 0.66,0 1.32,0 2,0 2.6715493,1.2891349 3.3370886,2.581402 4,3.875 4.37125,4.5942969 4.7425,5.3135937 5.125,6.0546875 6,8 6,8 6,10 3.03,10 0.06,10 -3,10 -2.01,6.7 -1.02,3.4 0,0 Z"
       fill="#2c271e"
       transform="translate(703,549)"
       id="path50" /><path
       d="M 0,0 C 1.4168712,4.2506136 0.19320039,6.7185163 -1,11 -3.31,10.67 -5.62,10.34 -8,10 -8,7 -8,7 -6.25,5.1757812 -5.5075,4.5608984 -4.765,3.9460156 -4,3.3125 -3.2575,2.6898828 -2.515,2.0672656 -1.75,1.4257812 -1.1725,0.95527344 -0.595,0.48476562 0,0 Z"
       fill="#312d2e"
       transform="translate(763,66)"
       id="path51" /><path
       d="M 0,0 C 4.455,0.99 4.455,0.99 9,2 9.33,3.65 9.66,5.3 10,7 7.36,7 4.72,7 2,7 1.34,4.69 0.68,2.38 0,0 Z"
       fill="#f1d301"
       transform="translate(95,366)"
       id="path52" /><path
       d="M 0,0 C 0.66,0 1.32,0 2,0 3.3162669,3.619734 4,6.0956713 4,10 1.36,10 -1.28,10 -4,10 -2.8905928,6.5132917 -1.7366233,3.2251576 0,0 Z"
       fill="#2a251e"
       transform="translate(583,547)"
       id="path53" /><path
       d="M 0,0 C 1.32,1.32 2.64,2.64 4,4 3.34,5.98 2.68,7.96 2,10 -1,9 -1,9 -2.375,6.6875 -3,4 -3,4 -1.625,1.6875 -0.820625,0.8521875 -0.820625,0.8521875 0,0 Z"
       fill="#ebebeb"
       transform="translate(606,69)"
       id="path54" /><path
       d="M 0,0 C 4.75,0.875 4.75,0.875 7,2 7,2.99 7,3.98 7,5 4.3526108,6.4606285 3.1055167,7 0,7 0,4.69 0,2.38 0,0 Z"
       fill="#ef4d55"
       transform="translate(1104,240)"
       id="path55" /><path
       d="m 0,0 c 6.1112924,1.0388092 12.077045,2.1573028 18,4 0,0.33 0,0.66 0,1 C 10.886587,5.4516453 6.2845321,4.3279791 0,1 0,0.67 0,0.34 0,0 Z"
       fill="#3e3a3b"
       transform="translate(1153,358)"
       id="path56" /><path
       d="M 0,0 C 2.213993,3.7954166 3.009802,7.7562942 4,12 3.01,12 2.02,12 1,12 0.63762737,10.37681 0.28534843,8.7513642 -0.0625,7.125 -0.25972656,6.2200781 -0.45695312,5.3151562 -0.66015625,4.3828125 -1,2 -1,2 0,0 Z"
       fill="#fce3e4"
       transform="translate(411,376)"
       id="path57" /></g></svg>
