<svg xmlns="http://www.w3.org/2000/svg" width="24" height="24"><path fill="#FFF" fill-rule="evenodd" d="M10.8 4.6c-.25.04-.64.13-.88.2-.36.1-.42.14-.37.3q.08.21-.12.2c-.72 0-3 .87-3.75 1.43-.24.17-.5.26-.94.3q-1.16.1-1.55.71c-.35.58-.17 1.26.43 1.65l.33.2-.31-.05c-.4-.08-.46.03-.38.66.08.58.2.67 1.09.77.39.05.61.16 1.04.51 3.24 2.64 10.77 2.5 13.6-.24.45-.44.74-.64.99-.69.5-.1 1.02-.63 1.02-1.07 0-.19-.07-.43-.15-.54-.08-.1-.15-.4-.15-.65 0-.57-.13-.69-.79-.74-.43-.03-.58-.1-1.03-.49a8 8 0 0 0-1.33-.86c-.8-.4-2.36-.9-2.81-.9q-.25 0-.24-.2c0-.22-.33-.34-1.3-.5a8 8 0 0 0-2.4 0M6.2 6.92l-1.31.17c-.86.1-1.27.28-1.58.67-.5.63-.04 1.5.93 1.75.25.06.49.15.52.2.08.13-.52.11-.97-.03-.22-.06-.42-.08-.45-.05s-.02.28.02.54c.08.43.13.5.44.6.72.24 1.64.1 2.12-.34.17-.15.2-.15.3 0 .11.13.21.14.68.05.3-.05.56-.11.58-.13.02-.01-.04-.34-.13-.74a4 4 0 0 1-.13-.88c.02-.1.1.13.17.52.23 1.15.2 1.12.9 1.07.34-.02.67 0 .74.06.2.16.72.24.98.14a4 4 0 0 1 1.24.03c.55.07 1.03.1 1.08.08.04-.02.07-.22.07-.44 0-.21.04-.39.1-.39q.09.02.1.22c0 .6.08.68.71.68.59 0 .59 0 .59-.3v-.29l.37.16q.38.16.9.1l.53-.06v.44q-.01.9 1.15.36c.36-.16.45-.3.9-1.2.4-.83.53-1.01.71-1.01.23 0 .4.3.3.5a1 1 0 0 0 0 .5c.06.36.1.4.43.5.37.1.9.02 1.29-.19a.82.82 0 0 0 .26-1.2c-.1-.14-.17-.45-.18-.74l-.01-.51-.42-.08a2 2 0 0 0-.73.02c-.25.07-.35.05-.5-.1-.11-.11-.23-.2-.28-.2-.2 0-.52.34-.52.55s-.03.23-.37.18c-.28-.05-.39-.02-.5.13-.13.18-.14.18-.2-.03q-.08-.3-.98-.38c-.11 0-.35-.1-.54-.2-.49-.25-1.23-.17-1.6.19-.22.21-.37.26-.79.26-.5 0-.52.01-.6.33-.09.27-.1.18-.11-.5l-.01-.83h-1.3v1.13L10.85 8c-.3-.29-1.02-.36-1.65-.18-.42.13-.45.16-.48.5-.02.2.02.46.08.58q.1.18.01.2c-.05 0-.14-.22-.21-.5a1.3 1.3 0 0 0-.43-.76c-.3-.25-.44-.27-1.07-.12q-.16.05-.18-.37c-.02-.22-.06-.42-.1-.45a2 2 0 0 0-.62.02m-.38.17c-.11.07-.1.21.02.84.09.42.16.8.16.85s-.21-.01-.47-.14a2 2 0 0 0-.74-.24c-.34 0-.44-.13-.24-.3.15-.12.53-.1.89.05.18.08.19.05.12-.35a2 2 0 0 0-.12-.5 2 2 0 0 0-.62-.04c-1.04.02-1.75.6-1.58 1.3q.16.58 1.08.84.54.16.56.34c.04.17-.02.18-.55.14a4 4 0 0 1-.73-.12c-.13-.05-.15.02-.12.38.04.48.02.47.9.61a1.8 1.8 0 0 0 1.51-.5l.3-.34.06.26c.06.24.09.25.52.2.26-.04.49-.1.52-.12.03-.03-.02-.4-.11-.83s-.14-.8-.11-.84c.12-.2.31-.05.38.3l.17.86.1.49.63-.07c.5-.05.65-.03.75.1.11.13.31.15 1.12.11.54-.02 1.01 0 1.04.05.03.04.28.08.56.08h.5l-.05-.33q-.08-.62.25-.52c.17.07.28.35.28.72 0 .2.05.23.5.23q.5 0 .5-.12a2 2 0 0 0-.41-1.07c-.2-.19-.2-.2-.02-.47l.18-.28.06.4c.1.84.73 1.32 1.53 1.2q.87-.13.86-.66c0-.52.18-.41.25.15.07.63.02.78-.27.7-.17-.06-.19-.03-.16.27.03.33.03.33.56.33.32 0 .58-.06.67-.15.08-.08.37-.62.65-1.18.36-.75.55-1.02.65-.98q.13.04.21-.06t.23.22c.17.36.3.46.74.55q.26.06.21.16c-.06.1-.44.08-.75-.05-.13-.06-.15-.01-.1.26.05.42.14.48.8.48.45 0 .57-.04.82-.3.5-.49.36-.98-.36-1.25-.25-.1-.45-.22-.45-.26 0-.14.54-.1.69.04.1.1.12.04.1-.28l-.04-.4-.58-.03c-.33-.02-.65.02-.72.08q-.13.15-.25-.1c-.21-.4-.78-.13-.67.31.05.2.03.21-.4.15l-.44-.06-.18.43-.18.42-.07-.46c-.06-.44-.1-.47-.42-.54-.2-.03-.42-.09-.5-.12q-.19-.08-.1.15c.06.19.03.18-.22-.08-.5-.5-1.27-.52-1.72-.05-.2.2-.33.25-.75.25-.5 0-.51.01-.64.35-.07.2-.2.35-.28.35-.14 0-.15-.12-.1-.85l.06-.85h-1.07l.04 1.23c.03 1.2 0 1.22-.22.1-.1-.57-.83-.82-1.69-.6-.43.1-.5.16-.53.38-.04.36.22.6.56.53.38-.1.65-.27.32-.2-.14.01-.34.07-.45.1l-.2.08.2-.17c.21-.17.81-.17.78 0 0 .05-.22.17-.48.25-.26.09-.56.26-.66.38l-.18.23-.1-.43c-.22-.85-.37-1.13-.65-1.27-.24-.11-.34-.11-.66.02-.44.17-.5.12-.5-.49 0-.33 0-.34-.42-.34-.24 0-.49.04-.56.09m8.88 2.1c0 .1.27.41.37.41.19 0 .83-.25.83-.32 0-.04-.17-.08-.37-.08a3 3 0 0 1-.6-.06q-.21-.05-.23.04"/></svg>