<svg xmlns="http://www.w3.org/2000/svg" width="24" height="24"><path fill="#FFF" fill-rule="evenodd" d="M3.72 5.18c-.8.74-.93 1.93-.37 3.25q.09.18-.14.17c-.2 0-.21.04-.21 1.5v1.5l.33.17c.43.24 2.24.24 2.78.01.3-.13.4-.13.6-.02.41.22.94.27 1.32.1.3-.12.42-.12.8-.01.49.15 1.43.13 1.73-.03q.19-.1.56.01c.36.11.37.14.4.62l.03.5.65.03c1 .05 1.8-.28 2-.81.07-.21.11-.22 1.3-.27a4 4 0 0 1 .57.05q.32.07.63-.08c.26-.14.34-.14.58-.01.34.18.54.18.97 0a1 1 0 0 1 .7-.04c1.57.49 2.83-2.26 1.5-3.3-.22-.18-.25-.27-.25-.86 0-.54-.03-.67-.2-.76-.1-.05-.7-.1-1.34-.1H17.5v-.7c0-.62-.03-.74-.25-.95-.24-.25-.26-.25-2.14-.25-2.25 0-2.21-.02-2.21 1.12v.68h-2.7v-.68c0-.58-.03-.72-.22-.9-.22-.2-.33-.2-3.1-.2H4.01zm.17.3c-.42.44-.52.73-.52 1.47 0 .54.06.83.26 1.27.14.3.24.6.2.62s-.16.06-.29.06c-.23 0-.23 0-.23 1.25 0 1.18.01 1.25.23 1.37.32.18 1.9.14 2.5-.06.42-.15.5-.15.76-.01.38.2.94.2 1.3 0 .26-.13.33-.13.65 0 .46.2 1.37.2 1.83 0 .32-.14.38-.14.53 0 .1.08.28.15.42.15.28 0 .38.2.38.79v.34l.66-.06c.87-.07 1.3-.4 1.57-1.21.02-.06.14-.02.27.07.32.22.56.21.89-.02.23-.17.29-.17.46-.05.25.19.75.18 1.03-.02.2-.14.24-.14.44 0 .29.2.92.2 1.08.01s.3-.19.66 0c.8.38 1.74-.56 1.74-1.74 0-.4-.22-.84-.54-1.04-.22-.15-.25-.25-.28-.84l-.03-.68H17.2v-.82c0-.6-.04-.86-.15-.97-.12-.12-.49-.15-1.95-.15h-1.8l-.05.32c-.03.18-.06.59-.08.92l-.02.6-1.4.03c-1.95.04-1.85.08-1.85-.86 0-.47-.05-.83-.12-.9-.14-.14-1.74-.17-1.82-.03-.04.05-.23.05-.47 0a2 2 0 0 0-.75 0c-.2.06-.36.06-.4 0a4 4 0 0 0-1.13-.09c-1.04 0-1.08 0-1.33.28m.5.54c-.47.71-.41 1.37.2 2.52.39.7.48.96.4 1.09-.12.23-.4.22-.72-.04L4 9.4v1.5l.35.07c.82.15 1.7-.2 1.99-.8.3-.62.18-1.1-.48-2.07-.29-.43-.36-.63-.36-1.01 0-.41.05-.54.36-.88l.36-.4h-.85c-.77 0-.86.02-1 .23m2.28.02a1 1 0 0 0-.25.5c0 .35.42.75.78.75.44 0 .82-.35.82-.75 0-.67-.87-1-1.35-.5m1.52-.19c-.04.04-.07 1-.07 2.12 0 1.58-.03 2.03-.12 2-.1-.03-.14-.39-.16-1.21L7.8 7.6H6.6v1.3c0 1.5.1 1.82.63 2 .38.12.62.06.93-.22.21-.19.22-.19.6.06q.63.44 1.39.12c.5-.22.65-.59.65-1.71 0-.93-.01-.98-.3-1.26a.8.8 0 0 0-.69-.29h-.4l-.03-.87-.03-.88-.55-.03c-.3-.02-.59 0-.63.04m5.6 0c-.04.04-.07 1.02-.07 2.17 0 1.68.03 2.15.15 2.42.27.56.98.73 1.4.32l.22-.23.2.23q.42.44.97.02l.27-.21.23.2c.3.29.86.3 1.11.02l.18-.2.22.2c.4.37 1.03.22 1.3-.3.26-.51.14-1.3-.2-1.3-.11 0-.15.12-.15.45s-.04.45-.15.45c-.12 0-.15-.2-.15-1.2V7.7h-.9c-.85 0-.91.02-1.22.3-.32.27-.33.32-.37 1.14-.06 1.6-.2.87-.23-1.21l-.03-2.08-.62-.03-.63-.03-.02 2.07c-.02 1.55-.06 2.08-.15 2.12-.1.03-.13-.43-.13-2.07V5.8h-.58c-.32 0-.62.03-.65.07m6.3.3c-.12.12-.07.5.08.63.32.27.82-.23.55-.55-.13-.15-.51-.2-.63-.08M11 9.03c0 1.37.01 1.44.23 1.65.25.24.66.28.98.12.18-.1.19-.07.19.44 0 .3.03.61.06.7.07.18.36.2.66.05.4-.21.48-.67.48-2.6V7.6l-.57.03-.58.03-.03 1.18q-.02 1.6-.26 1.01a8 8 0 0 1-.06-1.2V7.6H11zm-1.53-.96a4 4 0 0 0-.07 1c0 .71.03.94.13.9q.12-.02.15-.92.04-1.23-.21-.98m8.5.2c-.04.03-.07.44-.07.9 0 .67.03.83.15.83s.15-.16.15-.84c0-.78-.07-1.05-.24-.9"/></svg>