<svg xmlns="http://www.w3.org/2000/svg" width="24" height="24"><path fill="#FFF" fill-rule="evenodd" d="M6.04 6.9a2 2 0 0 0-.63.45c-.57.66-.36 1.42.52 1.86.86.43 1.08.85.63 1.14-.3.2-.8.1-1.22-.24l-.27-.21-.24.22c-.12.12-.23.27-.23.35s.24.26.53.43c.81.46 1.8.38 2.32-.2.15-.16.2-.36.2-.77 0-.49-.03-.58-.31-.81a6 6 0 0 0-.83-.54c-.4-.22-.51-.33-.51-.52 0-.38.23-.5.9-.43.53.04.6.03.81-.2.26-.26.2-.35-.3-.52-.4-.13-.93-.13-1.37 0m-1.97.35c-.37.2-.54.8-.4 1.45.09.44.08.49-.09.49-.22 0-.58.34-.58.55q0 .16.24.1c.13-.04.39 0 .58.08.32.13.36.13.63-.1l.3-.22-.2-.32a2 2 0 0 1-.02-1.68c.2-.41.2-.38-.01-.43a1 1 0 0 0-.45.08m4.62.08c-.15.33.04.58.4.54.54-.07.53-.7-.02-.76q-.28-.06-.38.22m.14 1.1c-.17.08-.34.23-.37.33A36 36 0 0 0 8 11c0 .05.2.09.44.09h.43l.26-1.31c.15-.72.24-1.35.21-1.4-.07-.12-.13-.11-.5.06m1.61-.05c-.38.15-.55.47-.75 1.44-.27 1.31-.28 1.26.23 1.26h.44l.12-.7q.21-1.21.81-1.2c.26 0 .3-.04.37-.42s.07-.43-.1-.46c-.11-.02-.32.06-.48.17-.33.25-.4.26-.33.07s-.06-.25-.31-.16m2.15.09c-1.01.53-1.2 2.05-.3 2.52.4.22 1.28.25 1.53.07a1 1 0 0 0 .22-.4l.07-.26-.61.05q-.6.06-.76-.07-.38-.3.25-.3c1.22 0 1.91-.98 1.13-1.6-.33-.26-1.06-.26-1.53-.01m3.56-.04q-.2.15-.27.04c-.1-.17-.56-.02-.74.24-.12.19-.55 1.96-.55 2.28 0 .05.2.09.44.09h.44l.07-.42c.18-1.2.44-1.68.89-1.68.25 0 .26.3.07 1.23l-.18.88.45-.03.46-.03.18-.85c.23-1.13.22-1.46-.02-1.7s-.95-.27-1.24-.05m2.34.23c-.96.96-.7 2.52.42 2.52.19 0 .44-.07.56-.16q.2-.12.22-.05c0 .06.18.11.4.11.33 0 .4-.04.44-.22l.25-1.29c.12-.58.21-1.11.21-1.17 0-.16-.41-.15-.66.02-.17.12-.22.12-.39 0-.1-.08-.39-.14-.63-.14-.38 0-.5.05-.82.38m-5.66.53c-.16.17-.16.22-.04.3.19.11.23.11.54 0q.25-.11.26-.3c0-.29-.5-.28-.76 0m6.33-.09c-.18.14-.37.59-.37.87 0 .1.06.25.13.36.31.42.97-.14.97-.82 0-.48-.36-.68-.73-.4"/></svg>