<svg xmlns="http://www.w3.org/2000/svg" width="24" height="24"><path fill="#FFFFFF" fill-rule="evenodd" d="M10.6 2.16a5.7 5.7 0 0 0-3.8 3.42 5.5 5.5 0 0 0-.25 2.77c.08.45.21.98.3 1.18L7 9.9h1.75c.96 0 1.75-.01 1.75-.03s-.22-.26-.5-.55c-1.35-1.4-.88-3.57.96-4.4.34-.14.83-.17 3.84-.22l3.45-.05v-2.6l-3.55-.02c-2.83-.01-3.66.01-4.1.13m.86 2.96a2.4 2.4 0 0 0-1.53 3.66 2.4 2.4 0 0 0 1.9 1.1c.53.03.7 0 1.17-.25a2.4 2.4 0 0 0 1.14-3.2 2.5 2.5 0 0 0-2.68-1.31m2.3.32c.79.67 1.12 1.86.8 2.84a3.2 3.2 0 0 1-1.5 1.68c-.5.24-.55.24-3.94.24H5.7V13h3.38c3.72-.02 4.23-.08 5.3-.61a7 7 0 0 0 2.4-2.28c.38-.7.72-1.95.72-2.6 0-.55-.21-1.52-.43-2.03l-.16-.38h-3.55zM3.5 14.4c0 .12.12.31.27.44l.27.24-.32.27c-.18.15-.32.35-.32.46 0 .18.07.2 1 .18l1-.02v-.28q-.01-.62.44-.03c.25.32.32.35.74.32.45-.03.46-.04.62-.53l.17-.5.17.53.18.52h.46c.36 0 .5-.05.6-.2.15-.25.47-.26.64-.01.11.16.27.19.96.2.7.01.85-.02 1.02-.19.2-.2.26-.5.13-.64-.04-.03-.07-.2-.07-.38q-.02-.61-.96-.56l-.45.03-.03.8-.03.8-.33-.8c-.28-.69-.36-.8-.56-.8s-.28.11-.56.8l-.32.8-.14-.35-.27-.72c-.14-.42-.34-.63-.55-.55-.07.03-.26.4-.41.81s-.29.76-.3.76l-.34-.4-.33-.42.3-.32c.38-.38.4-.46.09-.46-.13 0-.36.14-.53.3l-.29.31-.05-.28q-.05-.29-.25-.28c-.18 0-.2.08-.23.68l-.03.67h-.72l.23-.25c.23-.24.23-.25.05-.45s-.18-.2.1-.2c.22 0 .26-.04.23-.22-.03-.2-.1-.23-.66-.26s-.62-.01-.62.18m8.24-.07c-.03.08-.04.47-.02.88l.03.74h.7c.63 0 .7-.02.7-.2 0-.17-.08-.2-.47-.23-.58-.04-.64-.22-.08-.22.33 0 .4-.03.4-.2s-.07-.2-.4-.2c-.53 0-.51-.18.03-.22.34-.02.42-.07.42-.23 0-.18-.08-.2-.63-.23-.46-.02-.64 0-.68.11m1.6 0c-.03.08-.04.47-.02.88.03.67.05.74.25.77s.22-.02.25-.45l.03-.48.28.47c.22.36.35.48.53.48.25 0 .25 0 .22-.87-.03-.8-.05-.88-.23-.88-.16 0-.21.08-.25.43l-.05.42-.28-.45c-.29-.45-.62-.6-.73-.32m1.8.1c-.02.12-.04.52-.02.87.03.59.05.65.26.68s.22.01.22-.87c0-.84-.02-.91-.2-.91q-.2.01-.25.23m.65.02c0 .2.05.25.25.25.24 0 .25.02.25.65s0 .65.25.65c.24 0 .25-.02.25-.64 0-.6.02-.65.23-.68q.21-.03.22-.23c0-.18-.08-.2-.72-.23-.72-.03-.73-.03-.73.23m1.67-.19c-.04.04-.07.45-.07.9 0 .83 0 .84.25.84.22 0 .25-.04.25-.35 0-.32.02-.35.3-.35s.3.03.3.34v.33l1 .02c.94.01 1 0 1-.19 0-.16-.07-.2-.37-.2h-.36l.23-.25c.23-.24.23-.25.05-.45s-.18-.2.1-.2c.22 0 .26-.04.23-.22-.03-.2-.1-.23-.65-.26q-.64-.04-.63.09 0 .12-.15 0c-.21-.19-.45-.06-.45.24 0 .21-.05.25-.3.25-.24 0-.3-.04-.32-.27-.03-.27-.26-.41-.41-.27m1.53.84v.65l.32-.33.33-.32-.33-.32-.32-.33z"/></svg>