<svg xmlns="http://www.w3.org/2000/svg" width="24" height="24"><path fill="#FFF" fill-rule="evenodd" d="M10.43 2.2c-2.09.55-3.61 2-4.3 4.1-.26.8-.3.87-.65 1.02-.41.18-.78.7-.78 1.1 0 .13.1.41.24.61.2.3.22.38.1.47-.17.15-.08.68.16.94.1.1.33.2.5.2.29 0 .35.08.72.78a6 6 0 0 0 3.05 2.77c.26.11.4.2.3.2-.25.01-.49.45-.45.83.04.43.46.62.78.33.23-.2.28-.83.08-1.04q-.16-.17.06-.07c.1.04.45.1.76.13.43.04.56.1.56.22l.02.68.02.53.55-.03.56-.02-.07-.55c-.03-.3-.12-.6-.2-.66-.11-.09-.03-.14.38-.22.3-.06.6-.13.68-.17q.16-.07.28.29.13.33.3.32.16 0 .2.21c.04.26.1.28.47.11.24-.1.24-.12.1-.35-.13-.2-.14-.27-.04-.39q.14-.13-.04-.38c-.15-.22-.14-.24.3-.56l.47-.33.44.48.43.48.4-.39.4-.39-.34-.3c-.58-.52-.6-.57-.31-.96a9 9 0 0 0 1.3-3.2c.05-.32.12-.4.48-.53.62-.24.88-.56.94-1.15.04-.46.02-.53-.26-.8-.25-.26-.28-.32-.15-.4.18-.1.1-.63-.14-.86-.19-.2-.92-.2-1.2 0-.2.14-.22.12-.57-.44a6.1 6.1 0 0 0-6.53-2.61m2.04 1.82c-.32.51-.28 1.38.08 1.68.14.11.14.1.05-.14-.16-.44-.12-.75.15-1.01.13-.14.28-.25.33-.25.21 0 .54.38.62.7l.08.35.01-.41c.01-.6-.33-1.08-.81-1.12-.3-.03-.4.01-.51.2m-3.54.62c-.24.21-.28.31-.27.78 0 .5.28 1.17.42 1.03q.04-.06-.06-.17c-.2-.2-.15-.85.08-1.08.11-.11.26-.2.34-.2.24 0 .55.33.65.7l.1.35v-.38c.01-.44-.2-.9-.51-1.11-.3-.21-.42-.2-.75.08m8.65.72c-.46.25-.49.84-.05 1.32.11.12.29.22.4.22.3 0 .57.2.57.4 0 .23-.28.27-.36.05-.04-.09-.19-.15-.35-.15-.26 0-.29.04-.29.3 0 .37.31.7.66.7.33 0 .8-.25.94-.5.3-.54-.12-1.36-.72-1.42-.37-.04-.59-.31-.4-.5.1-.1.16-.1.27.05a.4.4 0 0 0 .37.15c.18-.02.22-.08.2-.28-.06-.49-.67-.65-1.24-.34m-1.23.24c-.08.14.04.68.17.76.15.1.28-.16.28-.54 0-.25-.04-.32-.2-.32-.1 0-.22.05-.25.1m-.86.07q-.15.03-.11.33c.02.16.01.38-.03.47-.06.17-.07.17-.2-.01a1 1 0 0 1-.15-.43c0-.24-.14-.28-.57-.17-.33.09-.29.25.23 1.04.37.55.47.8.49 1.17l.04.53c0 .04.17.04.36.02.39-.05.44-.22.25-.78-.08-.22-.06-.51.05-1.1.23-1.18.21-1.23-.36-1.07m-2.56.46c-.5.08-.63.13-.63.28q0 .17.09.23c.1.07.36 1.6.33 2.03-.01.18.02.34.06.37s.44 0 .88-.08c.86-.13.84-.11.68-.84-.06-.3-.42-.3-.54.03-.1.27-.4.35-.4.1a1 1 0 0 0-.06-.29q-.06-.15.2-.22c.37-.09.33-.49-.04-.49-.26 0-.37-.23-.25-.53.06-.15.09-.14.26.06.15.19.24.22.42.15.21-.07.22-.11.14-.5-.1-.48-.07-.47-1.14-.3m-2.32.46c-.12.07-.12.17-.03.53.2.77.32 1.48.32 1.88 0 .35.03.4.22.4a4 4 0 0 0 1.43-.35l-.08-.62c-.07-.5-.1-.53-.37-.53-.3 0-.3 0-.24.41.06.37.05.4-.12.37q-.18-.02-.26-.43c-.06-.36-.17-1.3-.18-1.62 0-.15-.48-.17-.7-.04m-.92.08c-.28.04-.38.28-.2.49.1.1.34 1.47.36 2.02.01.37.01.37.4.35.22-.02.4-.04.42-.06s-.03-.26-.1-.54c-.13-.5-.28-1.51-.3-2.03-.01-.26-.12-.3-.58-.23m-1.15.2c-.2.04-.23.1-.23.59 0 .3-.03.54-.08.54-.04 0-.15-.2-.26-.46-.18-.44-.2-.45-.6-.42-.48.04-.47-.02-.18 1.36.1.51.18 1 .16 1.1-.07.28.11.45.4.38.26-.06.35-.33.17-.52-.08-.08-.2-.94-.13-.94a6 6 0 0 1 .34.68c.17.37.32.63.33.57.02-.05.07-.42.1-.8.09-.8.23-.66.24.23l.01.52h.41c.4 0 .41-.01.36-.27a18 18 0 0 1-.36-2.25c-.01-.4-.07-.43-.69-.3m-3.02.55C4.85 7.76 5.11 9 5.83 9c.33 0 .65.36.48.53-.1.1-.15.08-.26-.06q-.13-.18-.42-.15c-.25.03-.28.07-.25.33.06.58.63.8 1.23.5.36-.19.53-.58.44-1.02-.07-.36-.47-.73-.8-.73-.26 0-.45-.18-.45-.42s.17-.23.31 0q.12.18.35.14c.19-.03.24-.1.24-.33 0-.46-.63-.65-1.2-.36m9.3 2.96a4.5 4.5 0 0 1-3.3 1.21c-.67 0-1.93-.3-2.05-.5a.2.2 0 0 0-.17-.1c-.19 0 .35.5.75.72 1.13.57 3.18.33 4.35-.52.35-.25 1.02-1.16.9-1.23-.01-.02-.23.17-.48.42m1.4 2.56q-.12.14 0 .2.09.06.1.17 0 .1-.15-.02c-.31-.26-.34.05-.03.39.23.26.32.3.41.2q.14-.12 0-.16-.12-.06-.13-.2c0-.14.02-.14.19 0 .14.14.2.15.27.05.14-.2-.51-.8-.66-.63m-8.7.58a3 3 0 0 1-.34.45l-.2.24.34.28c.2.16.38.3.41.3.08 0 .83-.9.78-.94q-.75-.56-.82-.56-.08.02-.18.22m-.07.35c-.24.38-.23.54.03.33.13-.1.15-.09.15.14 0 .14.03.26.08.26.14 0 .62-.69.52-.75q-.1-.05-.16.1c-.1.24-.2.18-.2-.12.01-.38-.16-.37-.42.04m6.8.41c-.31.15-.41.35-.23.46q.1.04.14-.06.06-.1.18.2c.07.17.2.32.26.32.17 0 .16-.11-.02-.46-.13-.26-.13-.3 0-.32.16-.04.2-.18.07-.25-.04-.03-.22.02-.4.11m-4.72.58c-.21.55.25.96.56.49.23-.36.15-.7-.19-.73-.22-.03-.29.02-.37.24m2.26.46c0 .39.04.53.15.53q.14 0 .1-.22c-.03-.28.15-.3.22-.03.1.39.26.2.24-.27s-.03-.48-.37-.51l-.35-.03z"/></svg>