<svg xmlns="http://www.w3.org/2000/svg" width="24" height="24"><path fill="#FFF" fill-rule="evenodd" d="M5.04 7c-.55.28-.82.67-.98 1.47-.16.73-.4 1.03-.82 1.03-.22 0-.24.04-.24.5 0 .55.04.58.61.38a1.7 1.7 0 0 0 1.08-.9c.2-.4.21-.41.21-.14q0 .28.39.67c.31.31.46.39.76.39.5 0 1.01-.33 1.16-.75l.13-.34.17.39c.33.74 1.22.93 1.84.39.2-.17.35-.37.35-.45 0-.2.18-.17.25.06.11.36.63.7 1.07.7.43 0 .94-.24 1.03-.5.07-.18-.32-.53-.52-.45q-.6.24-.13-.05l.63-.42c.27-.19.27-.19.36.04.33.85.34.75-.09 1.46l-.4.67.42.03c.47.04.38.14 1.16-1.33a58 58 0 0 1 1.02-1.9c0-.02-.18-.05-.4-.05-.38 0-.4.03-.66.51l-.26.51-.23-.5c-.23-.5-.26-.52-.65-.52-.44 0-.45.01-.29.33.11.21.1.21-.14-.02-.56-.52-1.64-.3-1.9.4-.14.36-.2.36-.34 0-.15-.4-.58-.66-1.1-.66H8.1v-.42c0-.42 0-.43-.35-.43H7.4v.98c-.02.84-.03.93-.14.7-.18-.42-.56-.77-.91-.84-.44-.08-1 .18-1.26.58l-.2.33.06-.3c.1-.46.3-.7.67-.81.3-.09.33-.14.36-.52.03-.4.02-.42-.25-.42-.15 0-.46.1-.69.2m13.33.08a1 1 0 0 0-.27.63c0 .33-.02.35-.28.31-.43-.06-.92.4-.92.85 0 .19.05.43.1.54.14.26.62.5.88.42.2-.05.22-.01.22.35 0 .33.06.45.32.67.25.2.38.25.62.2.45-.08.79-.5.74-.91-.04-.3-.02-.33.18-.28.27.07.8-.19.94-.45.32-.6-.2-1.48-.8-1.39-.28.04-.3.02-.3-.28 0-.2-.1-.44-.26-.63-.34-.41-.8-.42-1.17-.03m-3.43 1c-.29.19-.39.36-.6 1.07a.8.8 0 0 1-.37.43c-.22.1-.27.2-.27.48 0 .3.03.34.26.34.6 0 1.04-.45 1.18-1.21.05-.28.13-.4.36-.5.25-.1.3-.17.3-.45 0-.3-.03-.34-.28-.34-.15 0-.4.09-.58.19m3.61.85c0 .32.02.33.38.33.35 0 .37-.01.37-.33 0-.33-.02-.34-.37-.34-.36 0-.38.01-.38.34m-12.77.02q-.12.26-.01.42c.15.24.54.27.7.06q.25-.33-.03-.58c-.23-.24-.53-.2-.66.1m2.54-.14c-.16.16-.15.53.02.68.21.17.58.08.67-.16.15-.43-.38-.83-.69-.52"/></svg>