<svg xmlns="http://www.w3.org/2000/svg" width="24" height="24"><path fill="#FFF" fill-rule="evenodd" d="M11.2 2.9c0 .36-.1.4-1.28.36L9 3.23l-.31.36L7.2 5.2 5.76 6.76l-.26.32v5.08h6.48l6.47-.01.03-2.62.02-2.63-1.65-1.75a43 43 0 0 0-1.77-1.81 3 3 0 0 0-.82-.1c-.99-.02-.96 0-.96-.34v-.3h-2.1zm1.32 6.65.03 1.66h5l.03-1.66.02-1.65h-5.1zm-8.97 3.26c-.32.18-.45.4-.45.76 0 .31.3.73.54.73s.86.21.86.3c0 .16-.33.2-.5.05-.19-.17-1-.2-1-.04 0 .22.21.5.5.64.7.36 1.72.06 1.85-.55.1-.47-.14-.76-.8-.95q-.77-.22-.46-.4c.04-.02.17.02.27.1s.36.15.57.15q.66.02.14-.56c-.2-.22-.34-.28-.78-.3-.3-.03-.63 0-.74.07m2.7.04c-.52.27-.65.5-.65 1.19q0 1.36 1.23 1.36c.88 0 1.37-.5 1.37-1.37a1.31 1.31 0 0 0-1.95-1.18m2.52-.07-.28.03.03 1.26.03 1.26.85-.02c.98-.03 1.24-.15 1.47-.69.37-.9-.12-1.81-1-1.83l-.62-.02zm2.47.01c-.02.02-.04.6-.04 1.27v1.22l.46.04c.25.02.47.01.5-.01.02-.02.04-.6.04-1.27v-1.22l-.46-.04a2 2 0 0 0-.5.01m1.58 0-.33.02.03 1.26.03 1.26h.8l.04-.49.04-.49.1.5c.12.47.13.49.47.49s.35-.03.51-.55l.17-.54.01.51c.01.52.01.52.37.56.21.02.38 0 .4-.07.03-.06.03-.65.02-1.3l-.03-1.2h-.49c-.54 0-.54 0-.79.9l-.14.5-.18-.6c-.26-.84-.27-.84-1.03-.77m3.66.22c-.21.54-.78 2.2-.78 2.27 0 .04.2.07.42.07q.45 0 .46-.18c.03-.11.14-.16.42-.16q.4 0 .42.16c.04.2.88.27.88.07 0-.13-.77-2.33-.84-2.4a1 1 0 0 0-.47-.07c-.35 0-.43.03-.51.24m2.55-.1a1.4 1.4 0 0 0-.25 2.12c.23.24.42.32.8.35.72.07 1.23-.22 1.37-.8.07-.26.06-.27-.38-.27-.36 0-.46.04-.5.2-.06.23-.45.28-.65.08-.15-.15-.16-.72-.02-.99.14-.25.46-.24.62.01.1.15.24.2.55.2.49 0 .48.01.3-.44-.26-.6-1.21-.85-1.84-.46m-12.41.62c-.13.13-.16.75-.06 1.02.07.19.45.21.62.04.07-.07.12-.3.12-.53q0-.65-.4-.65a.5.5 0 0 0-.28.12m2.84-.05c-.03.04-.06.3-.06.6q.01.9.5.48c.23-.2.27-.77.08-.92-.2-.15-.45-.22-.52-.16"/></svg>