<?xml version="1.0" encoding="UTF-8" standalone="no"?>
<svg viewBox="0 0 24 24" width="24pt" height="24pt" version="1.1" xml:space="preserve" xmlns="http://www.w3.org/2000/svg" xmlns:svg="http://www.w3.org/2000/svg"><g style="isolation:isolate" transform="translate(0,-0.1615)"><g transform="translate(-1.9758741,1.0098912)"><clipPath><rect x="2.7690001" y="0" width="18.462" height="24" fill="none" stroke="none"/></clipPath><g transform="matrix(1.5209384,0,0,1.5209384,-4.2046631,-4.352047)"><path d="m 6.985,8.657 c 0,1.787 0.9,3.388 2.485,4.171 1.491,0.736 3.476,0.736 4.971,0 1.474,-0.726 2.481,-2.384 2.481,-4.171 0,-2.735 -2.187,-4.97 -4.969,-4.97 -2.794,0 -4.968,2.218 -4.968,4.97 z" fill="#FFFFFF"/><path d="m 11.956,4.976 c -0.5,1.695 -1.99,4.18 -3.077,5.398 h 2.577 l 0.006,0.739 C 11.456,11.531 11.123,11.966 10.639,11.96 9.966,11.952 9.124,11.641 8.615,10.778 8.245,10.148 7.976,9.651 7.976,8.657 c 0,-2.174 1.751,-3.975 3.978,-3.975 2.202,0 3.977,1.853 3.977,3.975 0,0.994 -0.464,1.855 -0.617,2.103 -0.544,0.881 -1.372,1.192 -2.013,1.2 -0.442,0.005 -0.85,-0.319 -0.85,-0.85 v -0.736 h 2.617 C 13.942,9.156 12.451,6.671 11.956,4.976 Z" fill="#FFFFFF"/></g></g></g></svg>
