<svg xmlns="http://www.w3.org/2000/svg" width="24" height="24"><path fill="#FFF" fill-rule="evenodd" d="M3.22 8.16c-.17.12-.22.24-.2.46.03.33.15.43.61.53.43.09.32.4-.16.43q-.37.03-.37.18c0 .1.12.14.45.14.36 0 .48-.05.6-.24a.53.53 0 0 0-.32-.82c-.48-.1-.55-.14-.5-.27.02-.06.2-.14.4-.17s.38-.08.37-.12V8.1c0-.16-.63-.12-.88.06m2.18.04q0 .18.1.2c.05 0 .1.35.12.77.03.65.06.78.2.81S6 9.94 6 9.6c0-.33.03-.4.18-.4q.8.08.82-.6.01-.6-1.02-.6c-.51 0-.58.02-.58.2m3.11-.06c-.7.38-.64 1.46.08 1.76.62.25 1.31-.2 1.31-.85 0-.47-.14-.71-.5-.9-.35-.18-.57-.18-.89-.01m2.54-.04c-.04.06-.02.17.04.23.05.07.11.46.13.87l.03.75.53.03c.47.03.53 0 .5-.15q-.03-.18-.36-.21l-.32-.03v-.8c0-.77 0-.79-.24-.79-.14 0-.28.05-.31.1m2.35.1q0 .18.1.2c.06 0 .1.33.1.8v.8h.5c.43 0 .5-.03.5-.2 0-.16-.07-.2-.35-.2s-.35-.04-.35-.2.07-.2.35-.2.35-.04.35-.2-.07-.2-.35-.2-.35-.04-.35-.2.07-.2.35-.2.35-.04.35-.2c0-.18-.07-.2-.6-.2s-.6.02-.6.2m2.55-.1c-.1.16.04.3.3.3.24 0 .25.02.25.8 0 .64.03.8.15.8s.15-.15.15-.8c0-.78 0-.79.27-.82q.27-.04.28-.18c0-.12-.15-.16-.67-.18-.38-.02-.69.01-.73.08m2.98 0c-.12.05-.3.21-.4.36-.44.67-.01 1.49.78 1.49.36 0 .46-.06.74-.38.24-.28.4-.37.64-.37S21 9.16 21 9s-.07-.2-.31-.2-.4-.09-.63-.35c-.33-.38-.76-.5-1.13-.35M6 8.65c0 .24.03.26.33.23q.34-.02.32-.23c0-.15-.08-.2-.33-.23-.29-.03-.32 0-.32.23m2.46-.03c-.2.28-.2.48 0 .76.23.34.83.27 1.04-.1.13-.25.13-.3 0-.55-.21-.38-.8-.45-1.04-.11"/></svg>