<svg xmlns="http://www.w3.org/2000/svg" width="24" height="24"><path fill="#FFF" fill-rule="evenodd" d="M5.27 5.97c-.03.02-.2.07-.39.1-.48.07-1.17.43-1.54.8-.56.58-.36 1.41.44 1.82l.42.2 2.83.76c.1.02.36.15.58.3.3.2.39.32.39.54 0 .57-.73.91-1.85.87-1.19-.04-1.75-.34-1.8-.94-.03-.4-.12-.52-.41-.52q-.64 0-.64.53c0 .54.58 1.03 1.5 1.25 1.79.43 3.48.11 4.06-.76l.22-.32.06.27.11.76c.07.56.27.62.69.18.26-.27.27-.3.2-1.1l-.06-.84.28.27c.56.52 1.52.18 1.54-.54 0-.24.01-.24.14.06.2.47.7.77 1.24.76.38 0 .5-.06.8-.35.22-.22.38-.5.42-.74l.08-.38v.33c.02.48.35.88.85 1.05s.93.06 1.4-.37c.28-.27.3-.31.24-.87-.03-.32-.02-.59.03-.59.09 0 .41.65.39.77-.02.09.05.31.27.8q.36.92.95-.69c.26-.7.41-.67.76.1.13.31.34.64.45.74.26.22.81.23 1 .02.1-.15.1-.19-.1-.32a1.6 1.6 0 0 1-.52-1.03c0-.24-.63-.89-.87-.89s-.54.31-.77.78q-.29.59-.4.04c-.07-.38-.53-.82-.85-.82a1 1 0 0 0-.48.15c-.19.13-.25.13-.59 0-.54-.24-1-.12-1.47.37-.21.22-.4.39-.4.37l-.2-.32a1.3 1.3 0 0 0-1.23-.52c-.42.07-.87.45-1.04.85l-.13.3-.18-.28c-.4-.68-1.45-1.11-1.98-.83-.31.17-.18.29.3.26.56-.03.99.35.99.88 0 .8-.67.72-.95-.12-.26-.78-.58-.63-.72.34-.07.53-.17.57-.38.15-.3-.57-1.13-.94-3.06-1.35-.87-.18-1.56-.5-1.76-.81-.12-.2-.11-.25.09-.47.34-.37 1.03-.6 1.86-.63 1.3-.05 2.07.48 1.65 1.14-.07.12-.11.27-.08.32.1.17.61.1.89-.1.57-.46.17-1.3-.77-1.63a9 9 0 0 0-2.5-.1M13.1 8.5c-.44.44-.1 1.4.5 1.4q.6 0 .6-.7c0-.3-.06-.43-.3-.64-.38-.31-.54-.32-.8-.06m2.73-.1c-.37.15-.42.88-.07 1.25.44.47 1.12.19 1.08-.45-.02-.32-.28-.8-.43-.8l-.23-.04a1 1 0 0 0-.35.04m3.36 2.14c-.02.02-.24.07-.49.11-.24.04-.48.09-.52.11-.08.05-.31.11-.78.2-.14.02-1.71.07-3.5.1-2.61.04-3.28.08-3.4.2q-.13.14-.05.23c.06.06 1.58.11 3.55.14 3.17.03 3.53.05 4.43.26.86.2 1.06.22 1.55.12.74-.15 1.02-.34 1.02-.7a.7.7 0 0 0-.18-.44c-.26-.23-1.48-.48-1.63-.33m-.6.45c-.32.1-.4.17-.37.35.04.25.39.33.6.14.16-.17.65-.39.98-.45q.61-.09-.24-.15c-.31-.01-.74.03-.97.1"/></svg>