<svg xmlns="http://www.w3.org/2000/svg" width="24" height="24"><path fill="#FFF" fill-rule="evenodd" d="M13.8 8.05V9.8h.7V6.3h-.7zm1.2-1.6c-.17.2-.05.62.2.7.44.14.8-.4.48-.73-.17-.17-.53-.15-.68.03m-11.37.6c-.38.16-.53.42-.53.89 0 .4.17.6.66.8.43.19.48.5.07.44a2 2 0 0 1-.44-.12q-.15-.08-.27.2c-.17.35-.15.4.13.52.34.15 1.06.15 1.26 0 .4-.31.5-.97.24-1.35a1 1 0 0 0-.5-.33q-.37-.12-.33-.28.05-.26.5-.07c.24.1.44-.51.2-.64q-.52-.26-.99-.06m8.47 1.13c0 1.49.06 1.62.78 1.62.41 0 .42 0 .42-.35q0-.36-.15-.35T13 8.7c0-.32.04-.4.23-.42.17-.02.23-.1.25-.35.03-.26 0-.32-.2-.35-.18-.02-.24-.1-.26-.35-.03-.32-.05-.33-.48-.33h-.44zm4.4-.65-.35.12-.03 1.08-.03 1.08.38-.03.38-.03.05-.8c.04-.72.07-.8.25-.8.19 0 .2.08.23 1.22l.03 1.23h.79V9.35c0-.7-.05-1.35-.11-1.48-.2-.45-.86-.59-1.59-.34m2.63.02q-.58.25-.7.97c-.1.68.87 1.38 1.7 1.21.24-.05.28-.1.25-.36-.03-.28-.07-.31-.43-.35a1 1 0 0 1-.52-.14c-.18-.14-.16-.53.03-.72.17-.18.24-.19.48-.1s.2.2-.07.2c-.17 0-.23.05-.25.27l-.03.27h1.44l-.06-.36q-.1-.64-.74-.9c-.4-.17-.7-.17-1.1 0m-13.75.08-.28.1v2.89l.43-.03.42-.03.03-1.13c.02-.88.06-1.14.17-1.19.2-.07.65.24.65.46s-.3.51-.54.51c-.28 0-.16.43.15.54.35.12.94-.17 1.11-.55.14-.32.28-.38.28-.13 0 .28.54.71.98.79 1.08.18 1.88-.66 1.52-1.6-.14-.37-.66-.65-1.23-.65-.6 0-1.05.23-1.22.63l-.13.31-.15-.36a1 1 0 0 0-.46-.52c-.34-.18-1.3-.2-1.74-.04m5.56-.01-.33.1v2.1l.38-.03.37-.03.05-.75c.05-.69.07-.75.28-.78.2-.03.23-.09.2-.35-.03-.28-.07-.32-.33-.34-.17 0-.45.03-.62.08m4.01.02c-.02.07-.03.58-.02 1.13l.03.99.43.03.42.03V7.5h-.4c-.24 0-.43.05-.46.13m-6.22.79c-.28.28-.03.72.39.66.3-.04.47-.33.33-.55s-.55-.28-.72-.11M3.1 10.95c0 .23.22.65.35.65q.12-.02.23-.22c.1-.23.1-.23.11-.01.01.2.02.21 2.14.2l2.12-.02v-.22q-.01-.21.07-.23.07.02.08.25c0 .36.3.33.31-.02l.01-.28.07.25c.07.25.08.25 1.24.27 1.17.01 1.17.01 1.17-.22 0-.13.05-.27.1-.3.21-.13-.02-.24-.5-.23-.39.01-.51.05-.56.2-.05.17-.07.17-.25-.04s-.2-.22-.33-.05c-.12.15-.15.15-.25.03s-.46-.14-2.04-.12c-2.28.04-2.07.02-2.08.24q.01.2-.1-.05c-.1-.3-.36-.3-.45 0l-.07.22-.08-.23c-.07-.18-.16-.22-.49-.22q-.38 0-.4.12 0 .15-.12 0-.26-.24-.28.03m8.43.11c-.16.25-.16.27 0 .39.1.07.38.13.62.13.45.01.45.01.45-.34 0-.38-.2-.54-.45-.34q-.15.13-.15.01c0-.2-.3-.11-.47.15m2.33-.18c-.03.04-.04.22-.04.4q0 .34.2.32c.26 0 .45-.44.28-.65-.13-.16-.36-.2-.44-.07m.67.13c.04.13.07.32.07.42q.01.16.16.17c.24 0 .15-.74-.1-.78-.15-.03-.18 0-.13.2m.58-.08q-.1.14-.02.2c.05.03.07.15.04.26q-.08.22.2.2c.15 0 .27-.05.27-.1q.01-.09.2.02c.14.1.22.09.34-.01.35-.3.03-.87-.34-.63q-.19.1-.25.02c-.09-.14-.3-.12-.44.04m1.54-.06c-.03.03-.05.2-.05.38v.32h.55q.56 0 .64-.15.09-.2.14 0c.1.24.33.2.42-.05l.08-.23.04.22c.04.22.07.23 1.26.2l1.22-.02v-.69l-.62-.02c-.39-.02-.63.02-.63.08q0 .1-.12 0c-.18-.13-1.38-.14-1.38 0q0 .1-.13 0a3 3 0 0 0-1.42-.04"/></svg>