<?xml version="1.0" encoding="UTF-8" standalone="no"?>
<svg
   viewBox="0 0 24 24"
   width="24pt"
   height="24pt"
   version="1.1"
   id="svg1"
   sodipodi:docname="starbucks_white.svg"
   xml:space="preserve"
   inkscape:version="1.4.2 (f4327f4, 2025-05-13)"
   xmlns:inkscape="http://www.inkscape.org/namespaces/inkscape"
   xmlns:sodipodi="http://sodipodi.sourceforge.net/DTD/sodipodi-0.dtd"
   xmlns="http://www.w3.org/2000/svg"
   xmlns:svg="http://www.w3.org/2000/svg"><defs
     id="defs1" /><sodipodi:namedview
     id="namedview1"
     pagecolor="#ffffff"
     bordercolor="#000000"
     borderopacity="0.25"
     inkscape:showpageshadow="2"
     inkscape:pageopacity="0.0"
     inkscape:pagecheckerboard="0"
     inkscape:deskcolor="#d1d1d1"
     inkscape:document-units="pt"
     inkscape:zoom="24.15625"
     inkscape:cx="16"
     inkscape:cy="16"
     inkscape:window-width="1920"
     inkscape:window-height="991"
     inkscape:window-x="-9"
     inkscape:window-y="1341"
     inkscape:window-maximized="1"
     inkscape:current-layer="svg1" /><path
     fill="#ffffff"
     fill-rule="evenodd"
     d="m 11.74294,2.6917961 c -0.184966,0.4624164 -0.219647,0.4855373 -0.693624,0.4855373 -0.27745,0 -0.508659,0.034682 -0.508659,0.080923 0,0.046242 0.161847,0.2427686 0.358373,0.4624163 0.346815,0.3468124 0.346815,0.3814936 0.231208,0.7745476 -0.08093,0.2312082 -0.173406,0.4161747 -0.196527,0.4161747 -0.02312,0 -0.346812,-0.1502854 -0.693624,-0.3468122 A 3.4681229,3.4681229 0 0 0 9.3730546,4.2177702 c -0.2080868,0 -0.2080868,0.023122 -0.034682,0.4624164 C 9.4539834,4.9460759 9.5002187,5.1772842 9.4770979,5.2119653 9.4424159,5.2350863 9.2343306,5.1772846 9.0031217,5.0963608 8.2632561,4.7842298 8.1938934,4.8420318 8.5638262,5.524096 c 0.173406,0.3352518 0.346812,0.7167453 0.3814939,0.8670306 l 0.069363,0.254329 0.5086581,-0.2196478 A 6.7050375,6.7050375 0 0 1 13.96254,6.2408413 c 1.005755,0.3468124 1.086679,0.3468124 1.086679,0.1156045 0,-0.1040429 0.138725,-0.4392955 0.300571,-0.762987 0.161846,-0.3236914 0.265889,-0.624262 0.231208,-0.6589433 -0.04626,-0.046242 -0.312132,0 -0.601142,0.1156044 -0.578019,0.2080873 -0.5549,0.2658894 -0.323692,-0.5780204 q 0.161847,-0.566461 -1.040436,0.092482 L 12.979903,4.9113947 12.84118,4.4489783 C 12.702455,3.9865621 12.702455,3.9634412 13.072387,3.674431 Q 13.742891,3.1657728 12.84118,3.1773334 c -0.404616,0 -0.462417,-0.034682 -0.670504,-0.4855374 L 11.951029,2.1946987 Z m 3.942101,0 0.890152,0.6473829 a 8.0922866,8.0922866 0 0 1 3.236913,5.3409096 q 0.06936,0.4970971 0.08093,-0.069364 c 0.0116,-0.5549002 -0.381497,-1.849666 -0.820795,-2.6473341 A 8.0922866,8.0922866 0 0 0 16.066534,2.8420814 C 15.789084,2.7033565 15.615678,2.6224338 15.685041,2.6917961 M 11.50017,4.9807572 11.17648,5.258207 h 0.728306 C 12.679333,5.269772 12.783376,5.177284 12.332522,4.8767135 11.962587,4.6339448 11.881664,4.6455054 11.50017,4.9807564 m -5.9304899,0.936394 c 0,0.6936243 -0.1849665,1.213843 -0.7398662,2.0808739 C 4.4598806,8.5529242 4.355837,8.8072529 4.4483204,8.8766154 4.6795286,9.0269006 4.9338575,8.9922136 5.6043613,8.6800886 5.9742944,8.5298034 6.4251504,8.3795183 6.644798,8.3679571 6.9222479,8.3563545 7.1534562,8.2061111 7.5927517,7.7436947 7.9164429,7.4200037 8.2748158,7.0963122 8.40198,7.0269496 8.9568799,6.7148187 7.8586412,6.5414126 7.0725333,6.807302 L 6.6679189,6.9460268 6.3789087,6.3680064 A 2.3120818,2.3120818 0 0 0 5.8355694,5.6397006 C 5.5812405,5.4778549 5.5696801,5.4894152 5.5696801,5.9171504 m 12.2655969,0 c -0.11561,0.1618457 -0.289011,0.4624163 -0.358373,0.6936243 A 1.156041,1.156041 0 0 1 17.303497,7.0038288 L 16.864203,6.8304227 c -0.473978,-0.196527 -1.09824,-0.2312082 -1.352568,-0.057803 -0.150287,0.092483 -0.127165,0.1387247 0.115597,0.3121308 0.346811,0.2312082 1.156041,1.0751185 1.156041,1.2138437 0,0.046247 0.208087,0.092481 0.450855,0.092481 0.24277,0 0.728306,0.1271642 1.075118,0.2890092 0.335251,0.1618462 0.716745,0.2890104 0.843911,0.2890104 0.520218,0 0.520218,-0.1618449 0,-0.9710746 Q 18.286133,6.6801375 18.447979,5.9402713 c 0.04626,-0.2658894 0.02312,-0.3236915 -0.161846,-0.3236915 -0.115611,0 -0.323693,0.1387249 -0.450856,0.3005706 M 11.245845,6.3217647 C 10.529096,6.5992145 10.30945,7.119433 10.88747,7.119433 c 0.427735,0 0.83235,0.3814935 0.786108,0.7283063 -0.03468,0.2312075 -0.115598,0.2543285 -0.601142,0.2658895 q -0.54334,0 -0.647383,0.173406 c -0.161845,0.3236911 0.115611,1.1444806 0.578021,1.6184564 0.369932,0.3814948 0.497096,0.4508578 0.924832,0.4508578 0.416175,0 0.554899,-0.06936 0.924833,-0.4392958 0.450857,-0.4508572 0.762987,-1.2369646 0.635822,-1.6184586 -0.04623,-0.161845 -0.173406,-0.2080868 -0.520217,-0.1965268 -0.242769,0 -0.485539,0.046247 -0.53178,0.092481 Q 12.170676,8.425759 12.159116,7.9517829 12.147516,7.2350374 12.910541,7.1887958 C 13.16487,7.1656758 13.384519,7.1078728 13.39608,7.0500709 13.557925,6.4373689 12.135994,5.963392 11.234282,6.3217647 M 10.274769,6.5529728 C 9.9626367,6.7379393 9.6158244,7.524047 9.6158244,8.032705 c 0,0.2543298 0.1271642,0.8092286 0.2890093,1.2369642 0.3930553,1.0519978 0.3699353,1.3294498 -0.184966,2.1733568 -0.6011416,0.890151 -0.5780206,1.294767 0.1156107,2.196479 0.6820646,0.878589 0.6936266,1.109799 0.1387243,2.196478 -0.2658884,0.508659 -0.4739764,1.063559 -0.4739764,1.248525 0,0.254327 -0.046235,0.30057 -0.2080879,0.254327 q -0.2427686,-0.09248 -0.023117,0.0578 c 0.092481,0.06936 0.5548998,0.208086 1.0173186,0.31213 1.260084,0.277452 3.13287,0.173406 4.346712,-0.24277 a 8.3234948,8.3234948 0 0 0 4.982539,-5.040337 c 0.265888,-0.774548 0.335252,-1.213844 0.358371,-2.184916 A 3.4681229,3.4681229 0 0 0 19.950842,9.2349874 Q 19.754313,9.8939282 18.54047,9.3159034 C 17.869964,9.0037759 17.245701,8.8650506 17.245701,9.0384579 c 0,0.1734059 0.25433,0.5086568 0.404615,0.5086568 0.09248,0 0.450858,0.127166 0.809229,0.2890105 0.358373,0.161846 0.809228,0.2890118 1.040436,0.2890118 0.346812,0 0.404615,0.03469 0.404615,0.289011 0,0.427735 -0.28901,0.473977 -0.971075,0.173406 -0.855469,-0.381494 -1.225403,-0.427735 -1.225403,-0.161846 0,0.161846 0.23121,0.323691 0.809229,0.601141 0.450856,0.196527 0.890152,0.369934 0.982634,0.369934 0.231209,0 0.231209,0.450855 0,0.531777 -0.09248,0.04625 -0.427735,-0.06936 -0.751426,-0.231207 -0.670503,-0.346812 -0.924833,-0.381494 -0.924833,-0.09249 q 0,0.208087 0.751427,0.578022 1.040437,0.531778 0.647384,0.774547 c -0.0578,0.03468 -0.346812,-0.04626 -0.624263,-0.184967 -0.520218,-0.25433 -0.890152,-0.231208 -0.890152,0.03468 0,0.08093 0.26589,0.26589 0.578021,0.416175 q 0.809228,0.404615 0.473976,0.647383 C 18.575149,13.986302 17.71968,13.547007 17.71968,13.338919 q -0.02312,-0.196525 -0.161846,-0.208088 c -0.289012,0 -1.005758,-0.589579 -1.075121,-0.901711 A 5.7802048,5.7802048 0 0 0 15.95093,11.16558 c -0.369934,-0.624262 -0.439295,-0.820788 -0.381494,-1.156041 0.196527,-1.1791624 0.196527,-1.8727864 0,-2.3698848 -0.09248,-0.2774498 -0.265889,-0.5317788 -0.346812,-0.5664599 -0.208087,-0.080923 -0.208087,-0.080923 0,0.4277351 0.219648,0.5317786 0.219648,1.1213604 0,1.9305889 -0.231208,0.8785917 -0.231208,0.9017127 0.30057,1.7803037 0.56646,0.924833 0.647383,1.375688 0.404614,1.96527 -0.104043,0.242768 -0.184966,0.485538 -0.184966,0.53178 0,0.04626 0.219648,0.254328 0.485537,0.462416 0.50866,0.369932 1.132921,0.462416 1.132921,0.184966 q 0.0116,-0.416176 0.57802,-0.11561 c 0.520219,0.254329 0.381493,0.462416 -0.265889,0.416176 -0.427736,-0.03468 -0.543338,0 -0.543338,0.138724 0,0.09248 0.115598,0.208088 0.231207,0.242768 0.369933,0.115599 0.231207,0.462417 -0.173408,0.462417 q -0.797667,0.0116 -0.462415,0.393053 c 0.150286,0.184967 0.138726,0.219648 -0.184966,0.404616 -0.196529,0.115597 -0.369934,0.184966 -0.381494,0.161845 -0.231209,-0.26589 -0.878591,-1.618458 -0.878591,-1.803423 0,-0.138727 -0.04626,-0.25433 -0.115599,-0.25433 -0.265888,0 -0.104044,0.80923 0.289011,1.456611 0.439296,0.739867 0.485537,0.924833 0.231209,1.005756 q -0.150285,0.0578 -0.26589,-0.242768 a 4.6241638,4.6241638 0 0 0 -0.462422,-0.878587 c -0.520219,-0.809229 -0.485537,-1.179161 0.150285,-2.046192 0.693623,-0.947954 0.705185,-1.387249 0.0578,-2.358323 C 14.656163,10.576 14.609922,10.263869 14.875811,9.3737155 15.222623,8.2754766 14.979855,6.9922713 14.378715,6.6685799 c -0.196528,-0.1040429 -0.184968,-0.046242 0.0578,0.4277353 0.346814,0.6589435 0.312131,1.4334911 -0.08093,2.5317296 l -0.254329,0.7167472 0.531777,0.913272 c 0.682066,1.156041 0.682066,1.421929 0.0116,2.404566 -0.658944,0.947952 -0.670504,1.306326 -0.11561,2.312081 0.439296,0.762988 0.485538,1.225404 0.150288,1.294765 q -0.231211,0.06936 -0.208088,-0.28901 c 0,-0.173404 -0.06936,-0.462415 -0.161847,-0.612702 -0.901739,-1.687821 -0.901739,-1.630017 -0.196554,-2.658892 0.751426,-1.09824 0.762987,-1.421933 0.127165,-2.358325 -0.25433,-0.369933 -0.462417,-0.809229 -0.462417,-0.959513 0,-0.161846 0.138724,-0.6820661 0.30057,-1.1560426 C 14.459639,8.1367486 14.424958,7.4315631 13.962536,6.8304217 13.789137,6.5992135 13.592611,6.4258073 13.523247,6.4258073 q -0.11561,0 0.04626,0.2080874 0.809228,0.9595138 0.09248,2.5664108 c -0.462417,1.0519975 -0.450857,1.4103705 0.08093,2.1964795 0.578018,0.867031 0.578018,1.248524 -0.04626,2.115555 -0.693626,0.971074 -0.716747,1.190721 -0.219648,2.231158 0.485537,1.017316 0.5549,1.722501 0.184966,1.814985 -0.208087,0.0578 -0.231208,0 -0.231208,-0.485536 0,-0.381494 -0.115597,-0.786109 -0.404614,-1.38725 -0.231209,-0.462417 -0.404615,-0.947954 -0.404615,-1.086678 0,-0.138725 0.265889,-0.635823 0.578021,-1.098239 a 3.4681229,3.4681229 0 0 0 0.578017,-1.121361 c 0,-0.138723 -0.231209,-0.589582 -0.497098,-0.994195 l -0.497099,-0.728306 h -0.832347 l -0.832351,-0.01161 -0.416173,0.693625 c -0.612704,1.040436 -0.612704,1.156039 0,2.057753 0.728305,1.075117 0.739865,1.167601 0.231206,2.277401 -0.393053,0.901711 -0.520218,1.560655 -0.335252,1.849664 q 0.09249,0.138724 -0.184966,0.09248 c -0.4277353,-0.05781 -0.4392973,-0.809228 -0.03468,-1.618458 0.173405,-0.335251 0.346812,-0.762986 0.404613,-0.936391 0.115611,-0.439296 -0.09249,-1.06356 -0.578021,-1.676261 C 9.6967589,12.7493 9.6851978,12.286884 10.182296,11.489215 10.725636,10.633744 10.748757,10.240692 10.321021,9.2118144 9.8817087,8.1713814 9.8585867,7.5818008 10.251638,6.9228571 L 10.505976,6.4258083 Z M 9.4655381,6.8766644 C 8.8875173,7.4778055 8.7487933,8.3679571 9.0840442,9.30435 c 0.3005714,0.855472 0.2427685,1.352569 -0.2312076,2.011513 -0.3121312,0.416175 -0.4392955,0.728305 -0.4855373,1.121361 -0.046235,0.485535 0,0.601139 0.381494,1.109798 0.8439102,1.1098 0.8670311,1.352568 0.1849658,2.427687 -0.1965269,0.31213 -0.3583731,0.670503 -0.3583731,0.786106 q 0,0.23121 -0.1849658,0.150285 L 8.1592115,16.84174 c -0.1387242,0 0,-0.369933 0.3468132,-0.924834 0.2427686,-0.381493 0.4161745,-0.786106 0.4161745,-1.005756 0,-0.497097 -0.184967,-0.578019 -0.2658894,-0.115609 A 4.6241638,4.6241638 0 0 1 7.7314767,16.494926 1.156041,1.156041 0 0 1 7.3615436,16.275279 Q 7.0840937,16.067192 7.2112581,15.940028 c 0.069363,-0.06936 0.092483,-0.208088 0.046241,-0.312133 Q 7.1996984,15.408247 6.8875668,15.512297 c -0.2890103,0.06936 -0.6242622,-0.09249 -0.6242622,-0.300571 q 0.023122,-0.08093 0.2658895,-0.115599 0.2312081,-0.0578 0.2543289,-0.219647 c 0,-0.115611 -0.1271644,-0.173407 -0.4855372,-0.173407 -0.2658893,0 -0.5433392,-0.06936 -0.6242621,-0.138726 -0.1156043,-0.115597 -0.046241,-0.184966 0.3005708,-0.335252 q 0.427735,-0.173405 0.4970976,-0.06936 c 0.011565,0.0578 0.092483,0.196526 0.1734059,0.312131 0.138725,0.184966 0.1849666,0.184966 0.6127018,0 0.2427685,-0.104045 0.5780205,-0.312131 0.7514266,-0.473977 L 8.3094965,13.708869 8.1014099,13.281134 C 7.8123996,12.714672 7.8239599,12.3563 8.1707729,11.743597 8.9337595,10.402591 8.9684414,10.286986 8.7603534,9.5702392 8.529146,8.7378901 8.529146,7.8708602 8.7603534,7.4315641 8.9915632,6.9922685 8.8990797,6.922906 8.5869484,7.3159597 8.1476528,7.8824198 8.0667305,8.3795181 8.2748171,9.3968332 L 8.4597842,10.298546 7.8702027,11.50083 Q 6.9684895,13.292693 6.4020295,13.084605 6.274865,13.038355 6.2633046,13.292693 c 0,0.184966 -0.1156044,0.30057 -0.4739767,0.462418 -0.8785913,0.358371 -0.959514,-0.08092 -0.104043,-0.543341 0.4970978,-0.27745 0.5664601,-0.346812 0.4624163,-0.53178 Q 6.0320965,12.448784 5.8240091,12.541266 l -1.156041,0.566459 a 8.0922866,8.0922866 0 0 0 3.7571328,3.953661 c 0.6127015,0.300571 0.6127015,0.300571 0.6127015,-0.0578 0,-0.161845 0.184967,-0.624262 0.4046147,-1.017317 C 10.020437,14.945831 9.9973167,14.529657 9.3268064,13.674186 8.6331826,12.784036 8.6331826,12.402542 9.2690074,11.419907 9.9048297,10.437271 9.9163907,10.298546 9.5580178,9.3852735 9.1765277,8.4373199 9.1880888,7.5587289 9.6042634,7.0038288 9.9510747,6.5414126 9.8585927,6.4604895 9.4655381,6.8766644 M 5.511878,9.2581094 C 4.7604514,9.6164811 4.2171121,9.6280419 4.0552663,9.2812264 3.8587394,8.81881 4.0437015,11.281178 4.2633538,11.986364 l 0.2080874,0.658942 0.7514265,-0.381493 Q 5.9858548,11.87076 6.0089756,11.62799 c 0.046241,-0.312131 -0.092483,-0.312131 -0.8092288,0.0578 -0.312131,0.161846 -0.6473827,0.265887 -0.7398662,0.231208 -0.2196477,-0.08093 -0.2080872,-0.531779 0,-0.531779 0.104043,0 0.4624166,-0.127164 0.786108,-0.277449 0.3468122,-0.161848 0.6936246,-0.312133 0.8092286,-0.346814 0.1156044,-0.03468 0.2080874,-0.173406 0.2080874,-0.312131 0,-0.208088 -0.057802,-0.231208 -0.3121312,-0.184968 a 4.6241638,4.6241638 0 0 0 -0.9248326,0.312136 q -0.9826349,0.462416 -0.959514,-0.173406 c 0,-0.25433 0.046242,-0.289011 0.4392955,-0.289011 0.2312084,0 0.705185,-0.1271648 1.0404371,-0.2890108 0.3352517,-0.1618462 0.6936243,-0.2890101 0.7861077,-0.2890101 0.138725,0 0.3930538,-0.3352526 0.3930538,-0.5086585 0,-0.1618462 -0.6820641,-0.034682 -1.2138429,0.2312088 m 6.069217,0.2774497 c 0.358372,0.2774491 0.381492,0.2774491 0.705185,0 l 0.277451,-0.2312039 h -1.271648 z"
     id="path1-8"
     style="stroke-width:1.15603" /></svg>
