<svg xmlns="http://www.w3.org/2000/svg" width="24" height="24"><path fill="#FFF" fill-rule="evenodd" d="M7.3 3c-.16.3-.11 1.1.1 1.74.25.75.25 1.18.01 1.4-.23.2-.6.14-.9-.18A3 3 0 0 1 6 4.7c0-.31-.18-.22-.4.2q-.4.78.01 1.98c.18.51.2.66.1.78-.25.29-.94.08-1.25-.37-.2-.27-.2-1-.02-1.5.08-.21.1-.38.06-.38-.16 0-.9.94-1.17 1.49-.37.75-.42 1.58-.14 2.74a8.3 8.3 0 0 0 2.43 4.22c.7.65 1.8 1.35 2.13 1.35.28 0 1.2-.62 1.83-1.23.72-.7.66-.81-.08-.14-.34.3-.87.68-1.18.85l-.58.31-.5-.29a8 8 0 0 1-3.69-5.62c-.07-.52-.05-.57.17-.72.58-.38 3.6-.39 5.23 0l1 .21.28.06-.06-.45c-.07-.54-.46-1.6-.56-1.54a1 1 0 0 0-.1.38c-.02.36-.25.78-.43.78q-.1 0-.05-.42c.1-.7-.1-1.37-.78-2.73a8 8 0 0 1-.65-1.58c0-.31-.15-.36-.3-.08m-2.02.54C5.1 3.95 5.03 5 5.18 5c.11 0 .52-1.02.52-1.3a1 1 0 0 0-.12-.43c-.12-.15-.15-.12-.3.26M10.4 8.4c-.07.17-.11.32-.09.33.16.11.63.27.67.23.07-.07-.17-.63-.33-.76q-.13-.13-.25.2m-4.85-.04-.78.1c-.8.08-1.01.3-.92.92a7 7 0 0 0 1.14 2.92c.33.4.27 0-.13-.79-.61-1.2-.85-2.6-.49-2.76.1-.05.88-.1 1.73-.13a10 10 0 0 1 3.98.54c.75.28.93.25.34-.05a11 11 0 0 0-4.87-.75m.16 1.28c-.3.17-.4.38-.4.93-.01.49.11.64.8.99.46.23.49.27.49.64q0 .42-.15.4-.15.02-.15-.36v-.35l-.47.03-.48.03-.03.42c-.03.35.02.48.22.68.22.21.34.25.9.25.49 0 .7-.05.9-.2.24-.2.26-.28.26-.94v-.72l-.62-.35c-.5-.28-.64-.4-.66-.62-.04-.34.25-.38.3-.04.03.19.09.22.48.22.45 0 .45 0 .48-.36q.07-.8-1.07-.79c-.3 0-.67.07-.8.14m2.06-.08c-.04.04-.07.22-.07.4 0 .31.03.34.3.34h.3l.02 1.47.03 1.48.48.03.47.03v-3l.32-.03c.3-.03.33-.06.33-.38v-.35l-1.06-.03a5 5 0 0 0-1.12.04m2.53 1.84v1.9h1.9v-.8h-1v-.8h.91l-.03-.37c-.03-.37-.04-.38-.46-.41-.4-.03-.42-.05-.42-.33s.01-.29.5-.29h.5v-.8h-1.9zm2.37-1.84c-.04.04-.07.9-.07 1.91v1.84l.98-.03.97-.03v-.35c0-.35 0-.35-.47-.38l-.48-.03v-.39c0-.39 0-.39.43-.42.4-.03.42-.04.42-.38s-.01-.35-.42-.38-.43-.05-.43-.32.03-.3.48-.32c.47-.03.47-.03.47-.38v-.35l-.9-.03c-.5-.01-.94 0-.98.04M15 11.4v1.9h.89l.03-.53.04-.52.24.53.24.52h.48c.26 0 .48-.03.48-.07 0-.03-.14-.38-.32-.76l-.32-.7.22-.15c.2-.13.22-.23.22-.92 0-.73-.02-.8-.26-1-.22-.16-.4-.2-1.1-.2H15zm2.8-1.6a.8.8 0 0 0-.3.7c0 .47.18.69.93 1.12.42.25.47.31.47.63 0 .28-.04.35-.2.35s-.2-.07-.2-.35c0-.2-.03-.35-.07-.36l-.3-.03a1 1 0 0 0-.42.05c-.4.16-.17 1.2.31 1.35a3 3 0 0 0 1.48-.09q.4-.25.4-1c-.02-.63-.1-.76-.75-1.1-.48-.26-.6-.37-.63-.6s0-.27.17-.27q.22-.02.21.25c0 .23.04.25.44.25.5 0 .64-.18.47-.63-.16-.4-.49-.57-1.14-.57-.51 0-.62.04-.88.3m2.62-.17c-.24.3.17.7.46.46a.4.4 0 0 0 .11-.33c-.04-.25-.4-.33-.57-.13m-4.44.63c-.04.04-.07.25-.07.46 0 .32.03.38.2.38.19 0 .2-.05.18-.42-.03-.4-.16-.57-.31-.42M6.1 13.58c0 .09.71.62 1.22.92l.38.22.55-.32c.64-.36.68-.52.06-.2a2 2 0 0 1-.54.2c-.07 0-.42-.2-.78-.45q-.9-.64-.89-.37"/></svg>