<svg xmlns="http://www.w3.org/2000/svg" width="24" height="24"><path fill="#FFF" fill-rule="evenodd" d="M7.3 3c-.16.3-.12 1.1.1 1.73.3.87.26 1.28-.16 1.4-.41.14-1.04-.62-1.04-1.26 0-.41-.2-.5-.46-.2-.34.4-.4 1.05-.2 1.83.3 1.08.3 1.07.07 1.15-.13.04-.36 0-.59-.12-.52-.25-.67-.73-.48-1.54.16-.71.06-.76-.45-.21a4.5 4.5 0 0 0-.98 1.6 5.3 5.3 0 0 0 .19 2.63 9 9 0 0 0 1.1 2.37c.09.1.27.33.4.52.13.2.4.52.6.74a9 9 0 0 0 2.3 1.56c.44 0 1.96-1.09 2.34-1.67.22-.33.05-.28-.37.1-.71.64-1.6 1.17-1.96 1.17-.27 0-1.83-1.2-2.05-1.58-.15-.23.33.06.6.37.24.3 1.34 1.01 1.55 1 .25 0 1.16-.58 1.75-1.13.55-.51.6-.53.71-.35.1.16.24.19 1 .19.49 0 .93-.05.99-.1.06-.07.07-.25.04-.43-.06-.3-.1-.32-.48-.35q-.64-.04-.48-.52.06-.18.31-.15.51.04.5-.57c0-.3-.04-.33-.41-.38-.32-.04-.4-.1-.4-.25 0-.16.07-.2.38-.2.47-.02.6-.14.55-.56l-.03-.34-.67-.03c-.38-.02-.68-.07-.68-.12 0-.08-.97-.47-1.7-.68a12 12 0 0 0-3.3-.28c-1.97.1-2.08.17-1.9 1.27.16 1.07 1 2.89 1.32 2.89q.1 0 .05.06-.05.08.04.28.1.2-.15-.09c-.32-.38-1-1.58-1.15-2.05l-.26-.83a4 4 0 0 1-.15-.97c0-.6.07-.65 1.05-.74 2.02-.2 4.57.09 5.8.65.21.1.43.15.48.1.1-.1-.06-.53-.28-.71-.15-.12-.19-.12-.3.04-.12.16-.14.13-.2-.3-.08-.53-.42-1.34-.56-1.34q-.09.02-.14.28a3 3 0 0 1-.18.52c-.1.22-.12.16-.18-.54-.06-.72-.13-.92-.78-2.18a9 9 0 0 1-.71-1.63c0-.3-.25-.33-.4-.06m-2 .54c-.2.44-.26 1.12-.11 1.36.07.1.12.08.25-.1a1 1 0 0 0 .16-.32q.01-.1.15-.23c.18-.18.2-.54.03-.89-.16-.35-.26-.32-.48.18M4.96 8.6c-.76.12-.81.21-.62 1.19.1.45.21.9.26.98l.32.65c.26.56.37.66.5.43q.09-.16.48-.16c.38 0 .5.11.56.55q.04.4.13.1c.14-.34 0-.55-.56-.87-.6-.34-.74-.57-.69-1.15.08-.86 1.07-1.24 1.99-.77.26.14.3.14.4 0s.3-.16 1.22-.14l1.1.03v.4c0 .36-.03.4-.3.45l-.3.05-.03 1.4a7 7 0 0 1-.12 1.5c-.1.13-.68.08-.87-.07-.1-.08-.13-.5-.13-1.5V10.3h-.25a.4.4 0 0 0-.35.2c-.16.3-.9.25-1.06-.07-.13-.26-.24-.2-.17.08.03.1.2.26.37.34s.43.25.59.38c.25.2.27.29.29.91.02.65 0 .7-.28.92-.16.13-.46.27-.67.31l-.37.08.62.43c.35.23.71.42.81.42q.41 0 1.42-.8c.98-.79.94-.69.96-2.4 0-1.15.04-1.52.15-1.6.23-.2.17-.25-.48-.48a12 12 0 0 0-4.92-.4m13.59.74-.37.08q-.68.14-.68 1.02c0 .48.03.55.32.77.18.14.48.32.66.41.27.14.32.22.32.52 0 .2-.04.33-.1.29-.05-.03-.1-.19-.1-.35 0-.3-.15-.4-.59-.4-.38 0-.51.17-.51.65 0 .43.19.69.67.94.36.18.97.13 1.34-.12.33-.22.34-.24.35-.97 0-.41 0-.8-.03-.86a2 2 0 0 0-.58-.35c-.56-.24-.69-.38-.58-.65q.05-.18.17.08c.09.18.21.24.54.26q.43.04.43-.1c.08-.82-.05-1.04-.71-1.16-.25-.05-.5-.07-.55-.06m-5.88.1c-.04.04-.07.9-.07 1.9 0 1.57.02 1.83.16 1.88a5 5 0 0 0 1.8-.05c.07-.06.08-.24.05-.42-.06-.3-.1-.32-.49-.35-.4-.03-.42-.04-.42-.38 0-.32.02-.34.35-.34.36 0 .56-.2.51-.53-.03-.25-.17-.35-.51-.39q-.32-.02-.3-.23c0-.16.08-.2.38-.23s.4-.09.47-.28a.5.5 0 0 0 0-.45c-.1-.17-.22-.19-.99-.19-.48 0-.9.03-.94.07m2.36 0c-.16.06-.18 3.5-.02 3.69.13.15.76.19.98.05q.13-.1.07-.35-.14-.53.23.09c.18.32.24.35.66.35.58 0 .65-.16.32-.72-.34-.58-.35-.78-.1-1.14.17-.23.21-.43.2-.9-.02-.64-.11-.8-.6-1.02a5 5 0 0 0-1.74-.06m5.29.03c-.18.11-.11.51.11.65.15.09.22.07.38-.13.18-.22.19-.25.03-.42-.19-.2-.32-.23-.52-.1"/></svg>