<svg xmlns="http://www.w3.org/2000/svg" width="24" height="24"><path fill="#FFF" fill-rule="evenodd" d="M12.6 6.01c-.65.18-.65.18-.42.35.2.14.22.23.22 1.45 0 1.06-.03 1.3-.15 1.35-.34.14-.1.24.54.24.67 0 .98-.11.66-.24-.12-.04-.15-.33-.15-1.66 0-1.78.04-1.69-.7-1.49m1.6.14c-.16.2-.05.62.19.7.42.13.72-.25.51-.65-.13-.24-.52-.27-.7-.05m-7.88.15c-.06.1-.35.37-.63.57-.4.3-.46.39-.3.41.17.03.2.13.23.87.02.64.07.88.22 1.04.23.26.65.27 1.09.04l.32-.17-.3-.06-.3-.05-.03-.82c-.03-.77-.02-.82.2-.85.32-.05.35-.28.04-.28-.24 0-.26-.04-.26-.4q0-.69-.28-.3m13.7-.08c-.15.15-.16.5-.01.65q.12.1-.37.11c-.57.02-.98.27-1.02.64-.02.14.04.3.12.37.14.12.14.16-.04.38-.25.32-.25.6-.01.74.18.12.18.12 0 .3-.25.25-.24.35.08.56q.27.18.82.17c.87-.01 1.41-.36 1.41-.9 0-.52-.37-.74-1.21-.74-.85 0-.91-.16-.1-.22q.6-.04.8-.23c.26-.23.27-.7.03-.86-.18-.11-.17-.13.06-.36.22-.22.23-.26.1-.46-.18-.26-.48-.33-.66-.15m-16.4.8c-.35.1-.62.41-.62.73 0 .29.36.61.9.8.67.24.77.55.19.55-.3 0-.68-.3-.96-.75-.1-.17-.12-.14-.12.28-.01.46 0 .49.34.63.7.29 1.59.08 1.7-.4.14-.53.03-.7-.65-1.02s-.83-.57-.38-.62c.26-.03.36.04.72.53.14.19.15.17.16-.23 0-.26-.05-.44-.12-.46a2.5 2.5 0 0 0-1.15-.04m4.47 0c-.54.1-.9.57-.9 1.16 0 .76.48 1.22 1.26 1.22.29 0 .44-.08.75-.39.37-.37.5-.61.3-.61q-.09.02-.21.15c-.2.24-.86.2-1.04-.07-.3-.42-.22-.48.6-.48.74 0 .75 0 .69-.22-.1-.35-.54-.76-.83-.8-.15-.02-.43 0-.62.03m3.23 0q-.21.09-.23.19a.1.1 0 0 1-.1.1q-.1-.01-.05-.1c.12-.2-.25-.22-.75-.05s-.5.18-.3.32c.17.12.2.25.2.89 0 .57-.04.76-.15.8-.35.14-.1.24.6.24s.95-.1.6-.24c-.2-.07-.21-1.24-.02-1.5.12-.17.14-.17.2-.02.08.2.4.21.57.02.3-.37-.1-.83-.57-.65m5.74.08c-.3.15-.37.16-.37.05a.14.14 0 0 0-.14-.14c-.11 0-.26.04-.96.27-.13.04-.12.06.03.17.23.18.25 1.63.02 1.72-.35.14-.1.24.55.24.69 0 .8-.05.6-.26-.06-.06-.1-.43-.08-.85.03-.68.05-.74.26-.77s.22 0 .22.82c0 .54-.04.86-.1.86q-.1.01-.05.1c.08.12 1.22.13 1.3.01q.02-.08-.1-.15c-.12-.04-.15-.25-.15-1q0-.94-.12-1.04-.39-.3-.9-.03m-2.96.08c-.42.15-.43.16-.23.3.18.12.21.25.21.89 0 .57-.04.76-.15.8-.35.14-.1.24.6.24s.95-.1.6-.24c-.12-.04-.15-.26-.15-1.1 0-1.2 0-1.2-.88-.9m-5.96.2c-.13.33-.06.44.24.44q.3 0 .3-.14c0-.27-.12-.46-.3-.46q-.17.01-.24.16m11.36.26q.02.44.18.43c.24 0 .2-.79-.03-.83-.16-.03-.18.02-.15.4m-.4 1.87c-.13.35.84.56 1.24.27.16-.12.17-.17.06-.28-.18-.18-1.23-.18-1.3 0M7.9 11.06c0 .57.04.95.1.95.05 0 .1-.2.1-.46v-.45l.48.03.47.03.03.43c.06.8.22.42.22-.53 0-.57-.04-.95-.1-.95-.05 0-.1.18-.1.4v.4h-1v-.4c0-.22-.04-.4-.1-.4s-.1.38-.1.95m2.37-.7q-.67.69 0 1.48c.25.27 1.04.23 1.31-.06.32-.34.3-1.1-.03-1.42a.9.9 0 0 0-1.28 0m2.23.7c0 .57.04.95.1.95.09 0 .16-.79.1-1.17q-.03-.35.36.27c.15.22.3.4.35.4s.2-.2.33-.42l.26-.43v.68c0 .53.03.67.15.67s.15-.17.15-.9c0-.49-.04-.92-.1-.95-.05-.03-.24.17-.42.44-.18.28-.36.5-.4.5-.03 0-.2-.21-.37-.49-.17-.27-.35-.5-.4-.5-.07 0-.11.38-.11.95m2.57-.88a4 4 0 0 0-.07.95V12h.6q.59 0 .55-.1c-.03-.05-.24-.1-.46-.1-.38 0-.39 0-.39-.35s0-.35.4-.35q.4 0 .35-.1c-.03-.05-.22-.1-.4-.1-.32 0-.35-.02-.35-.3 0-.29.02-.3.46-.3.27 0 .43-.04.39-.1-.07-.11-.98-.14-1.08-.03m-4.52.25c-.28.16-.35.28-.35.66 0 .4.3.72.7.72.67 0 .96-.88.44-1.3-.3-.22-.5-.25-.79-.08"/></svg>