<svg xmlns="http://www.w3.org/2000/svg" xmlns:xlink="http://www.w3.org/1999/xlink" version="1.1" x="0px" y="0px" viewBox="0 0 240 47.9" enable-background="new 0 0 240 47.9" xml:space="preserve" role="img" aria-labelledby="subway-logo">
	 
<g>
	<path fill="#ffffff" d="M39.2,32c0,5.9-3.4,9.5-8.8,10.6c-1.5,0.3-4,0.3-5.7,0.3l-13.1-0.1v5L0,38.3l11.6-9.5v5l14.7,0.1&#13;&#10;&#9;&#9;c1.4,0,2-0.8,2-1.6c0-1.5-1.4-2-5.6-4c-6.7-3.2-11.9-5.5-11.9-12.8c0-5.7,4.1-9.6,10.1-10.4c1.2-0.2,3.5-0.2,4.9-0.2&#13;&#10;&#9;&#9;c3,0,11.4,0.2,11.4,0.2v9.1L23.4,14c-1.2,0-1.8,0.8-1.8,1.6c0,1.2,1,1.7,4.9,3.5C34.7,22.9,39.2,25,39.2,32z M60.9,31.3&#13;&#10;&#9;&#9;c0,1.7-1.5,3.1-4.2,3.1c-2.9,0-4.2-1.4-4.2-3.1V5H41.2v27.2c0,6,5,11.7,15.4,11.7c9.9,0,15.4-5.6,15.4-11.7V5H60.9V31.3z&#13;&#10;&#9;&#9; M106.7,31.5c0,7.5-5.1,11.6-12.5,11.6H75.5V5h18c8.1,0,12.2,4.5,12.2,10.4c0,3-1.4,5.6-4.2,7.5C104.8,24.7,106.7,27.5,106.7,31.5z&#13;&#10;&#9;&#9; M86.6,20.1l5.2,0c2,0,2.9-1.4,2.9-3.4c0-2.1-0.9-3.4-2.9-3.4h-5.2V20.1z M95.4,31c0-2.3-1.1-3.6-3.1-3.6h-5.7v7.2h5.7&#13;&#10;&#9;&#9;C94.4,34.6,95.4,33.2,95.4,31z"/>
	<g>
		<path fill="#ffffff" d="M144.1,5h11.1v26.8c0,6.2-4.4,11.8-13.7,11.8c-4,0-7.1-1.2-9.3-3c-2.2,1.8-5.2,3-8.9,3&#13;&#10;&#9;&#9;&#9;c-9.9,0-14-5.6-14-11.8V5h11.1v26.6c0,1.1,0.6,2.5,3.1,2.5c2.5,0,3.2-1.3,3.2-2.5V5h11.1v26.6c0,1.1,0.6,2.5,3.1,2.5&#13;&#10;&#9;&#9;&#9;c2.5,0,3.2-1.3,3.2-2.5V5z M203,20L203,5h-11v16c0,5.3,3.6,9.3,9.7,11l0,11H213V32c6.2-1.7,9.6-5.7,9.6-11v-5.9&#13;&#10;&#9;&#9;&#9;c0-0.6,0.3-0.9,0.9-0.9l4.9,0v4.8L240,9.5L228.4,0v4.8h-7.7c-6.5,0-9.2,3.8-9.2,9.2v6c0,1.4-1,3.1-4.3,3.1&#13;&#10;&#9;&#9;&#9;C204,23.1,203,21.4,203,20z M189.2,15.9v27.2h-11.1V32h-8.4l0,11h-11.1V15.9c0-6.8,5.6-12,15.3-12C183.5,3.9,189.2,9,189.2,15.9z&#13;&#10;&#9;&#9;&#9; M178.1,23.3l0-6.8c0-1.8-1.3-3.1-4.2-3.1c-3,0-4.2,1.3-4.2,3.1v6.8H178.1z"/>
		
	</g>
</g>
</svg>