<svg xmlns="http://www.w3.org/2000/svg" width="24" height="24"><path fill="#FFF" fill-rule="evenodd" d="M6 6.98q-.02.16-.07.04c-.03-.09-.4-.12-1.33-.12-.7 0-1.35.03-1.44.06-.14.05-.16.29-.16 1.6 0 1.35.02 1.54.18 1.63.16.1.16.1 0 .1-.14 0-.18.1-.18.41v.4h2c1.31 0 1.99-.03 1.95-.1q-.06-.1.2 0c.38.15 3.62.11 3.74-.04.06-.07.12-.75.14-1.52l.03-1.39v1.53l-.01 1.52h.68q.66 0 .62-.1-.06-.1.2 0c.28.1 3.68.13 3.61.02q-.02-.07.19-.07t.18.08c-.07.11 1.16.08 1.39-.04q.22-.12.14 0c-.05.08.36.1 1.42.1h1.49l.02-2.15L21 6.8h-7.5c-7.08 0-7.51.01-7.52.18"/></svg>