<svg xmlns="http://www.w3.org/2000/svg" width="24" height="24"><path fill="#FFF" fill-rule="evenodd" d="M5.1 8.93c.02 6.05.03 6.88.16 6.6 3.15-7.22 5.89-13.3 6.01-13.4.14-.1-.45-.13-3-.13H5.1zm8.28-3.35c.02 2.02.07 3.5.11 3.42.05-.08.73-1.61 1.52-3.4a56 56 0 0 1 1.57-3.42c.14-.17.06-.18-1.54-.18h-1.69zm-2.17 1.47c-.13.28-1.07 2.36-2.07 4.64a68 68 0 0 1-1.96 4.23c-.07.04 2.51.08 5.75.08h5.87v-2.45h-1.95l-.05-3.48-.05-3.48-1.44 3.28c-.79 1.8-1.5 3.38-1.57 3.5-.14.22-.21.23-1.2.23H11.5l-.02-3.52-.03-3.53z"/></svg>