<svg xmlns="http://www.w3.org/2000/svg" width="24" height="24"><path fill="#FFF" fill-rule="evenodd" d="M10.52 6.07a1 1 0 0 0-.23.25c-.13.23.04.48.32.48.1 0 .19.05.19.1 0 .14-.23.13-.38-.02-.1-.1-.15-.1-.24 0-.28.28.43.57.82.32q.14-.08.27.02c.07.05.28.08.46.06.29-.03.33 0 .3.14-.06.22.25.25.33.03a.3.3 0 0 1 .23-.15q.17 0 .29-.12c.1-.1.15-.1.24 0 .15.15.5.15.66 0q.13-.15.12 0c0 .26.3.1.36-.17.04-.17.13-.32.21-.35.13-.05.14 0 .09.29l-.07.35h.44q.44 0 .58-.16c.11-.14.13-.14.21 0 .1.19.49.21.66.04.1-.1.15-.1.24 0 .16.16.75.15.82 0q.06-.15.12 0c.07.14.6.16.7.02q.06-.09.16-.04.1.07-.02.14c-.2.12-.02.3.3.3q.29 0 .41-.19c.1-.14.2-.17.55-.13.42.04.43.04.5-.32.03-.2.04-.43 0-.5-.06-.18-.33-.2-.56-.07-.08.06-.19.07-.24.03-.21-.13-.61-.1-.78.05q-.16.14-.18.05c0-.17-.37-.24-.61-.11-.2.1-.21.1-.16-.1.06-.26-.12-.4-.27-.2-.06.08-.25.21-.42.3-.25.13-.32.13-.42.02-.19-.2-.49-.16-.73.1l-.21.22.07-.23c.1-.32-.1-.52-.5-.52q-.35 0-.45.2-.1.18-.32.15c-.12-.03-.25 0-.3.07q-.06.12-.2.02-.23-.15-.6 0c-.1.05-.24.04-.3-.02-.1-.08-.6-.1-1.1-.03-.03 0-.1.16-.14.34l-.08.32-.03-.37q-.08-.64-.33-.18c-.09.17-.14.18-.35.08q-.23-.1-.25-.2c0-.05.1-.04.21.03.28.14.48-.03.3-.26-.13-.15-.43-.19-.69-.08m-3.17.97q-1.59.76-1.6 2.71c0 .98.24 1.51.87 1.92.35.23.55.29 1.2.32.43.02.9 0 1.04-.03.23-.06.25-.1.22-.54l-.03-.47-.73-.05c-.65-.04-.77-.08-.98-.33-.2-.23-.24-.4-.24-.87 0-.33.07-.78.17-1.01q.29-.79 1.6-.79h.6l.1-.5c.06-.27.08-.52.05-.55a5 5 0 0 0-.91-.05c-.7 0-.96.05-1.36.24m9.52.48q-.39.1-.47.34c-.05.13-.14.24-.2.24s-.15.12-.2.26l-.1.26-.2-.26c-.16-.2-.3-.26-.58-.26-.2 0-.44.04-.52.1q-.14.08-.27-.01c-.06-.06-.27-.09-.45-.07l-.33.03-.22 1.05c-.32 1.54-.32 1.5.25 1.5h.48l.13-.72q.18-1.1.5-1.08.14-.02.08.43l-.13.9-.07.47h.47c.4 0 .46-.03.5-.22.2-.87.26-1.17.26-1.45 0-.31.01-.32.19-.17.15.13.17.23.1.53-.05.2-.09.53-.09.73q0 .71.87.66c.32-.02.39-.07.41-.28.04-.3.22-.52.22-.28 0 .21.47.58.74.58.11 0 .33-.07.49-.14s.27-.1.27-.05.2.09.45.09c.34 0 .45-.04.45-.16 0-.14.01-.14.16 0 .25.25.72.2.86-.09.09-.2.08-.3-.06-.5q-.27-.43-.74-.1c-.26.2-.26.18-.06-.8.19-.92.17-.95-.69-.95q-.97 0-1.44.51c-.3.33-.53.91-.46 1.17.04.18 0 .22-.16.22q-.42 0-.25-.68c.07-.27.16-.38.34-.42q.25-.05.3-.38c.08-.35.05-.42-.22-.42-.16 0-.18-.05-.12-.35.07-.38.07-.38-.5-.23m-12.96.8c-.57.3-.9.84-.9 1.51 0 .38.05.53.25.72a.8.8 0 0 0 1.03.1q.2-.14.22-.06c0 .06.2.11.44.11h.45l.06-.57c.04-.32.13-.85.2-1.18.13-.54.13-.61-.02-.72-.28-.21-1.23-.16-1.73.1m4.56-.14a9 9 0 0 0-.23 1.05c-.16.95-.16.97.04 1.24.17.22.27.27.6.25l1-.02h.61l.08-.63.07-.63.09.41c.05.23.2.51.33.64.28.26.93.36 1.45.23.31-.08.35-.13.38-.45l.03-.37-.55.06q-.57.06-.56-.06c0-.06.14-.11.3-.11.51 0 .98-.25 1.06-.57.12-.45.07-.66-.21-.9a1 1 0 0 0-.67-.23 1.5 1.5 0 0 0-1.5 1.1q-.08.25-.01-.2c.12-.84.12-.85-.3-.88-.22-.02-.44.01-.5.06a3 3 0 0 0-.23.83c-.14.76-.37 1.16-.53.9-.05-.07-.02-.44.05-.84s.12-.78.1-.85c-.06-.14-.82-.17-.9-.03m-4.2.86c-.27.29-.35.78-.15.9.16.1.36-.14.48-.6.14-.52 0-.65-.33-.3m14.47-.03c-.37.42-.37 1.1 0 .95.24-.09.5-1.17.29-1.17-.05 0-.18.1-.29.22"/></svg>