<?xml version="1.0" encoding="UTF-8" standalone="no"?>
<svg
   viewBox="0 0 24 24"
   width="24pt"
   height="24pt"
   version="1.1"
   id="svg1"
   sodipodi:docname="sushidog.svg"
   xml:space="preserve"
   inkscape:version="1.3 (0e150ed6c4, 2023-07-21)"
   xmlns:inkscape="http://www.inkscape.org/namespaces/inkscape"
   xmlns:sodipodi="http://sodipodi.sourceforge.net/DTD/sodipodi-0.dtd"
   xmlns="http://www.w3.org/2000/svg"
   xmlns:svg="http://www.w3.org/2000/svg"><defs
     id="defs1" /><sodipodi:namedview
     id="namedview1"
     pagecolor="#ffffff"
     bordercolor="#000000"
     borderopacity="0.25"
     inkscape:showpageshadow="2"
     inkscape:pageopacity="0.0"
     inkscape:pagecheckerboard="0"
     inkscape:deskcolor="#d1d1d1"
     inkscape:document-units="pt"
     inkscape:zoom="11.546875"
     inkscape:cx="6.1488498"
     inkscape:cy="10.002706"
     inkscape:window-width="1920"
     inkscape:window-height="974"
     inkscape:window-x="-11"
     inkscape:window-y="1609"
     inkscape:window-maximized="1"
     inkscape:current-layer="svg1" /><g
     transform="matrix(0.00266685,0,0,-0.00266685,1.3228209,20.81722)"
     fill="#000000"
     stroke="none"
     id="g26"
     style="fill:#036046;fill-opacity:1"><path
       d="M 3780,7144 C 3332,7105 2948,6999 2575,6810 2090,6564 1657,6175 1366,5726 1206,5480 1113,5291 1023,5035 827,4475 798,3841 940,3250 c 99,-412 297,-828 554,-1160 198,-256 476,-521 722,-687 440,-298 870,-460 1424,-535 126,-17 594,-17 720,0 406,55 735,155 1065,322 485,246 918,635 1209,1084 160,246 253,435 343,691 228,652 229,1413 3,2060 -96,275 -210,502 -372,743 -210,312 -531,633 -838,838 -432,289 -846,446 -1370,520 -100,14 -524,26 -620,18 z m 541,-59 c 172,-18 390,-61 558,-110 1006,-293 1809,-1101 2100,-2112 140,-486 159,-998 57,-1498 C 6844,2431 6221,1632 5355,1210 4940,1008 4542,913 4070,903 c -348,-7 -629,29 -949,122 -1006,293 -1809,1101 -2100,2112 -83,287 -121,560 -121,862 0,608 171,1189 499,1691 395,607 1006,1068 1682,1273 194,59 460,112 654,130 111,10 456,6 586,-8 z"
       id="path1-8"
       style="fill:#036046;fill-opacity:1" /><path
       d="m 3696,6763 -39,-4 7,-57 c 3,-31 9,-80 12,-108 7,-59 8,-59 -87,-69 l -65,-7 -13,107 -13,107 -62,-7 c -33,-4 -62,-8 -63,-9 -2,-1 13,-111 32,-245 19,-133 35,-253 35,-266 0,-33 13,-38 77,-30 l 55,7 -6,46 c -20,161 -20,159 5,165 13,3 50,9 82,12 55,7 57,7 57,-16 0,-13 5,-59 12,-103 l 12,-78 60,7 c 34,3 62,8 63,9 2,1 -6,65 -17,142 -11,76 -27,189 -35,249 -9,61 -18,120 -20,133 -6,23 -7,23 -89,15 z"
       id="path2"
       style="fill:#036046;fill-opacity:1" /><path
       d="m 4340,6739 c -1,-8 -18,-130 -39,-272 -20,-142 -34,-260 -30,-262 9,-6 119,-19 119,-14 0,2 18,123 39,269 21,146 36,268 32,272 -3,3 -32,9 -63,13 -46,6 -58,4 -58,-6 z"
       id="path3"
       style="fill:#036046;fill-opacity:1" /><path
       d="m 4978,6572 c -9,-20 -27,-59 -39,-87 -11,-27 -34,-78 -50,-113 -16,-34 -29,-64 -29,-66 0,-4 -78,-175 -87,-188 -2,-4 24,-22 59,-40 56,-28 72,-32 153,-32 103,-1 142,13 202,73 54,53 77,113 77,196 0,124 -70,220 -194,269 -36,14 -68,26 -70,26 -3,0 -13,-17 -22,-38 z m 113,-145 c 26,-19 49,-73 49,-112 0,-45 -20,-85 -60,-119 -26,-21 -42,-26 -86,-26 -58,0 -59,1 -44,28 21,37 100,220 100,231 0,14 21,14 41,-2 z"
       id="path4"
       style="fill:#036046;fill-opacity:1" /><path
       d="m 2694,6476 c -104,-45 -133,-178 -57,-260 39,-42 70,-51 178,-51 h 100 v -40 c 0,-34 -4,-41 -28,-49 -22,-8 -35,-7 -56,5 -29,17 -44,13 -109,-28 l -23,-14 22,-31 c 27,-37 90,-67 142,-68 52,0 121,35 153,78 21,27 29,50 32,93 5,69 -16,119 -66,157 -33,25 -42,27 -140,27 -90,0 -106,2 -116,18 -15,25 27,62 53,47 13,-6 33,-1 74,19 l 57,28 -22,28 c -40,51 -127,70 -194,41 z"
       id="path5"
       style="fill:#036046;fill-opacity:1" /><path
       d="m 5685,6110 c -65,-13 -93,-27 -137,-67 -151,-139 -102,-390 90,-463 67,-25 117,-25 189,0 64,22 123,74 156,135 31,58 31,193 0,251 -55,103 -187,167 -298,144 z m 115,-138 c 19,-9 45,-33 58,-52 32,-48 28,-137 -9,-176 -39,-42 -77,-57 -131,-52 -90,9 -154,102 -127,186 30,94 125,137 209,94 z"
       id="path6"
       style="fill:#036046;fill-opacity:1" /><path
       d="m 2046,6008 -36,-43 43,-40 c 23,-22 86,-81 140,-130 84,-79 97,-95 97,-123 0,-45 -38,-82 -84,-82 -30,0 -52,16 -173,126 l -138,125 -37,-43 c -43,-50 -44,-55 -19,-77 10,-9 61,-55 113,-103 52,-48 106,-96 121,-108 92,-73 214,-66 286,17 65,73 77,173 30,249 -21,34 -272,267 -293,272 -7,2 -29,-16 -50,-40 z"
       id="path7"
       style="fill:#036046;fill-opacity:1" /><path
       d="m 4885,5606 c -22,-7 -64,-27 -93,-44 -29,-18 -55,-32 -58,-32 -2,0 -22,-11 -44,-25 -22,-14 -64,-38 -92,-54 -29,-16 -82,-46 -118,-66 -169,-99 -170,-99 -204,-86 -140,58 -285,68 -375,26 -30,-14 -76,-42 -103,-62 -44,-31 -64,-39 -159,-54 -113,-19 -249,-65 -292,-99 -14,-11 -36,-39 -50,-63 -22,-38 -35,-47 -99,-72 -110,-43 -160,-76 -193,-127 -16,-25 -43,-53 -60,-62 -49,-27 -105,-86 -152,-158 -43,-66 -44,-70 -32,-106 7,-20 19,-42 28,-49 9,-6 14,-13 11,-16 -8,-6 -189,-102 -344,-183 -162,-84 -207,-119 -238,-188 -20,-45 -23,-66 -22,-181 0,-117 3,-137 28,-200 40,-105 99,-196 161,-253 69,-64 167,-112 225,-112 40,0 151,39 330,115 145,63 250,105 257,105 4,0 6,-37 5,-82 -4,-101 10,-179 51,-278 29,-70 49,-101 192,-290 60,-80 108,-171 148,-285 14,-38 65,-180 114,-315 50,-135 101,-279 114,-320 24,-77 37,-96 53,-80 11,11 -11,85 -75,263 -21,59 -57,158 -80,220 -22,61 -47,128 -54,147 -7,19 -30,80 -51,135 -46,123 -92,203 -185,320 -95,120 -117,155 -152,250 -22,59 -31,104 -34,171 -7,114 1,160 30,175 33,18 330,139 340,139 5,0 -11,-22 -36,-49 -93,-105 -155,-241 -165,-363 -4,-55 -2,-68 10,-68 10,0 19,27 31,91 20,103 52,179 110,259 46,64 97,120 109,120 5,0 5,-18 2,-41 -6,-36 -5,-41 11,-37 12,2 22,17 28,38 5,19 17,47 28,62 18,25 19,29 4,57 -8,17 -15,44 -15,61 0,17 -12,54 -26,82 -41,81 -92,221 -99,274 l -7,49 46,-62 c 43,-59 49,-63 86,-63 47,0 100,20 147,56 39,30 42,55 13,139 -21,62 -19,81 5,49 55,-69 154,-231 182,-294 30,-71 66,-251 89,-443 6,-54 24,-81 41,-63 6,5 -30,283 -44,343 -3,16 1,23 19,28 12,4 97,38 187,76 91,38 167,67 169,64 3,-2 -21,-75 -53,-162 -54,-152 -70,-194 -149,-403 -59,-155 -69,-210 -63,-335 9,-201 19,-223 346,-780 202,-344 208,-353 226,-325 5,9 -85,167 -303,530 -50,84 -172,308 -187,343 -41,98 -58,294 -34,397 9,40 56,171 149,420 16,41 50,134 76,205 26,72 51,135 55,140 4,6 25,17 46,24 37,13 168,68 423,175 69,30 172,73 230,97 81,33 114,53 150,89 59,61 62,65 89,135 62,160 36,398 -65,596 -139,270 -393,428 -589,365 z m 258,-70 c 174,-89 318,-287 373,-515 10,-40 16,-110 17,-176 0,-91 -4,-121 -23,-170 -41,-107 -96,-166 -184,-197 -63,-22 -96,-22 -171,-3 -313,82 -558,573 -445,895 51,146 146,214 288,207 60,-3 86,-11 145,-41 z m -960,-247 c 37,-11 67,-23 67,-27 0,-4 -87,-56 -192,-116 -106,-60 -214,-122 -241,-138 -68,-40 -99,-36 -159,20 -38,35 -37,53 2,46 44,-9 73,2 124,47 47,42 56,65 34,88 -11,10 -9,15 7,27 32,24 117,67 150,74 42,11 128,2 208,-21 z m -376,-105 c 6,-16 -9,-32 -64,-71 -32,-23 -87,-31 -97,-15 -6,10 122,102 142,102 7,0 15,-7 19,-16 z m -182,-39 c -16,-14 -33,-25 -36,-25 -19,0 -17,-37 5,-74 25,-43 49,-66 86,-86 22,-12 21,-12 -13,-36 -42,-28 -60,-31 -53,-6 19,63 19,72 -2,72 -15,0 -22,-9 -27,-32 -22,-106 -134,-248 -224,-285 -22,-10 -54,-13 -85,-10 -40,3 -55,11 -78,36 -16,18 -26,36 -23,41 3,5 34,7 69,3 l 64,-6 15,49 c 9,27 18,67 19,89 3,36 0,42 -28,55 l -31,16 23,34 c 13,19 23,40 23,46 1,5 14,24 31,41 38,39 202,99 275,102 17,0 16,-3 -10,-24 z m -395,-209 c 0,-3 -13,-24 -29,-48 -15,-24 -40,-65 -55,-91 -24,-44 -25,-50 -12,-75 8,-15 26,-38 40,-51 14,-14 26,-31 26,-39 0,-7 -21,-41 -47,-74 -34,-45 -60,-67 -100,-85 -63,-29 -98,-25 -137,16 -32,33 -28,37 33,40 25,1 49,5 54,8 5,3 22,34 38,69 28,61 28,66 15,99 -10,23 -22,35 -35,35 -33,0 -32,14 4,71 28,45 45,60 107,91 67,34 98,45 98,34 z m 89,-30 c 9,-10 9,-26 1,-61 -18,-82 -25,-88 -82,-82 -28,4 -53,8 -55,11 -3,2 16,36 41,75 46,72 71,87 95,57 z m -399,-201 c 0,-8 -7,-15 -16,-15 -14,0 -14,3 -4,15 7,8 14,15 16,15 2,0 4,-7 4,-15 z m 120,-11 c 8,-20 5,-37 -17,-82 -26,-53 -31,-58 -70,-65 -75,-14 -78,-3 -27,91 41,74 48,82 75,82 22,0 32,-6 39,-26 z m -150,-37 c 0,-20 -30,-57 -46,-57 -19,0 -18,13 7,44 22,28 39,34 39,13 z m -47,-101 c -3,-13 3,-36 12,-50 19,-28 9,-34 -26,-15 -44,23 -44,89 1,89 13,0 16,-6 13,-24 z m 967,-96 c 22,-12 82,-173 78,-209 -7,-61 -154,-116 -199,-75 -32,29 -89,138 -89,170 0,40 31,87 71,107 38,18 110,22 139,7 z"
       id="path8"
       style="fill:#036046;fill-opacity:1" /><path
       d="m 4996,5378 c -18,-68 -3,-135 55,-240 5,-10 9,-37 9,-61 0,-45 22,-77 51,-77 8,1 2,11 -16,26 -20,17 -23,22 -8,15 12,-6 26,-11 30,-11 13,0 15,63 4,91 -9,21 -10,19 -12,-21 -2,-38 -3,-40 -6,-12 -4,32 -17,42 -26,20 -4,-8 -6,-7 -6,4 -1,9 -4,23 -7,32 -3,9 -1,16 5,16 6,0 11,-7 11,-15 0,-18 7,-19 24,-2 10,10 10,19 -1,45 -16,39 -26,42 -17,5 4,-22 3,-25 -5,-13 -6,8 -8,27 -5,42 3,14 0,29 -5,33 -6,3 -11,18 -11,33 l -1,27 -12,-28 c -11,-27 -12,-26 -12,25 0,41 4,53 17,56 25,5 31,32 7,32 -11,0 -17,-4 -14,-10 3,-5 1,-10 -4,-10 -6,0 -11,5 -11,10 0,20 -28,9 -34,-12 z m 17,-108 c 3,-11 1,-18 -4,-14 -5,3 -9,12 -9,20 0,20 7,17 13,-6 z m 34,-82 c 2,-17 0,-19 -7,-8 -5,8 -6,18 -4,22 8,12 10,10 11,-14 z"
       id="path9"
       style="fill:#036046;fill-opacity:1" /><path
       d="m 5105,5369 c -12,-19 -10,-82 3,-87 7,-2 10,-8 6,-13 -3,-5 5,-26 17,-46 18,-29 23,-55 27,-139 4,-88 7,-104 21,-103 21,1 60,17 44,18 -18,1 -16,21 2,21 8,0 15,-5 15,-11 0,-8 5,-8 15,1 14,11 13,18 -9,54 -13,22 -27,57 -31,76 -11,51 -24,65 -41,43 -13,-17 -13,-17 -14,0 0,9 5,17 11,17 6,0 9,9 6,20 -3,11 -1,23 4,26 5,3 9,-4 9,-15 0,-35 24,-23 37,19 12,37 11,41 -13,65 -13,14 -29,25 -34,25 -6,0 -10,4 -10,8 0,5 -11,14 -25,20 -32,15 -32,15 -40,1 z m 40,-29 c 3,-5 1,-10 -4,-10 -6,0 -11,5 -11,10 0,6 2,10 4,10 3,0 8,-4 11,-10 z m -28,-32 c -3,-7 -5,-2 -5,12 0,14 2,19 5,13 2,-7 2,-19 0,-25 z m 73,6 c 0,-2 -7,-4 -15,-4 -8,0 -15,4 -15,10 0,5 7,7 15,4 8,-4 15,-8 15,-10 z m 24,-30 c 3,-8 2,-12 -4,-9 -6,4 -8,-7 -5,-27 5,-32 5,-32 -4,-5 -13,38 -1,76 13,41 z m -44,-4 c 0,-5 -7,-7 -15,-4 -8,4 -15,8 -15,10 0,2 7,4 15,4 8,0 15,-4 15,-10 z m -14,-45 c 4,-14 4,-29 0,-32 -3,-4 -6,3 -6,13 0,11 -5,25 -12,32 -9,9 -9,12 0,12 6,0 14,-11 18,-25 z m 53,-110 c 0,-5 -4,-3 -9,5 -5,8 -9,22 -9,30 0,16 17,-16 18,-35 z m -21,-35 c 0,-22 -1,-22 -8,5 -4,17 -8,39 -8,50 0,16 2,15 8,-5 4,-14 8,-36 8,-50 z m 45,-29 c 3,-15 1,-18 -11,-14 -10,4 -13,2 -8,-5 5,-8 0,-12 -13,-12 -13,0 -21,6 -21,18 0,13 2,14 9,3 7,-11 10,-9 16,8 8,26 21,27 28,2 z"
       id="path10"
       style="fill:#036046;fill-opacity:1" /><path
       d="m 4940,5355 c 0,-8 -6,-15 -14,-15 -8,0 -21,-13 -30,-30 -9,-20 -11,-30 -3,-30 8,0 8,-3 0,-11 -12,-12 4,-69 19,-69 4,0 8,-5 8,-12 0,-7 11,-24 25,-38 14,-14 37,-38 51,-55 l 25,-30 -7,35 c -7,41 -50,137 -72,163 -10,11 -11,17 -3,17 7,0 11,13 9,33 -1,18 2,38 6,45 4,7 2,12 -3,12 -6,0 -11,-7 -11,-15 z m -13,-47 c -3,-8 -6,-5 -6,6 -1,11 2,17 5,13 3,-3 4,-12 1,-19 z m -10,-90 c -3,-7 -5,-2 -5,12 0,14 2,19 5,13 2,-7 2,-19 0,-25 z m 77,-74 c 10,-25 -1,-29 -14,-5 -6,12 -7,21 -1,21 5,0 12,-7 15,-16 z"
       id="path11"
       style="fill:#036046;fill-opacity:1" /><path
       d="m 5259,5233 c -1,-10 0,-22 1,-28 1,-5 3,-32 4,-59 1,-28 7,-51 14,-54 7,-2 12,-10 12,-18 0,-20 18,-17 30,5 16,32 12,73 -14,121 -26,48 -45,62 -47,33 z m 25,-19 c 3,-8 2,-12 -4,-9 -6,3 -10,10 -10,16 0,14 7,11 14,-7 z m 26,-84 c 5,9 8,4 7,-13 -1,-15 -5,-27 -8,-27 -9,0 -19,40 -17,70 1,17 3,14 5,-9 3,-24 7,-30 13,-21 z"
       id="path12"
       style="fill:#036046;fill-opacity:1" /><path
       d="m 5360,5060 c -21,-42 -73,-91 -117,-111 -46,-21 -51,-34 -29,-64 13,-18 15,-18 58,-2 48,19 101,68 116,107 6,16 5,37 -3,60 l -12,35 z"
       id="path13"
       style="fill:#036046;fill-opacity:1" /><path
       d="m 5380,4925 c -28,-38 -87,-75 -118,-75 -12,0 -23,-4 -26,-9 -9,-13 36,-151 48,-151 18,0 65,48 84,88 26,51 44,123 40,155 l -3,25 z"
       id="path14"
       style="fill:#036046;fill-opacity:1" /><path
       d="m 5076,4743 c -8,-19 15,-37 73,-58 48,-16 91,-20 91,-7 -1,17 -17,30 -50,36 -20,3 -52,15 -72,26 -32,17 -37,17 -42,3 z"
       id="path15"
       style="fill:#036046;fill-opacity:1" /><path
       d="m 6207,5399 c -142,-32 -241,-170 -221,-307 6,-40 24,-83 63,-152 4,-8 20,-41 35,-73 15,-32 30,-57 34,-55 4,2 67,33 139,71 l 132,67 -50,98 c -27,53 -53,100 -57,104 -6,6 -94,-31 -109,-45 -3,-3 5,-24 17,-46 13,-22 20,-47 16,-56 -6,-15 -9,-16 -28,-3 -45,30 -63,66 -63,127 1,46 6,64 25,89 51,63 147,77 212,30 37,-26 50,-52 57,-117 l 6,-54 54,-19 c 30,-10 57,-16 60,-13 3,3 7,34 9,70 4,53 0,73 -22,121 -33,73 -101,138 -158,152 -66,17 -109,20 -151,11 z"
       id="path16"
       style="fill:#036046;fill-opacity:1" /><path
       d="m 1479,5238 c -73,-42 -102,-161 -56,-228 31,-46 67,-71 114,-77 62,-8 106,12 172,78 50,51 64,59 83,53 65,-20 42,-114 -28,-114 -12,0 -24,-8 -27,-17 -3,-10 -12,-35 -21,-56 l -16,-37 27,-11 c 69,-26 175,23 212,98 61,125 -21,263 -156,263 -67,0 -95,-14 -156,-79 -48,-51 -76,-62 -95,-38 -14,17 3,58 27,64 18,4 61,85 61,112 0,20 -102,12 -141,-11 z"
       id="path17"
       style="fill:#036046;fill-opacity:1" /><path
       d="m 2199,2247 c -58,-62 -119,-127 -134,-146 l -29,-33 50,-46 c 27,-25 66,-62 87,-81 l 39,-36 29,35 30,35 -51,48 c -33,32 -47,53 -43,61 5,8 50,57 101,111 50,54 92,102 92,107 0,9 -51,58 -60,57 -3,0 -53,-50 -111,-112 z"
       id="path18"
       style="fill:#036046;fill-opacity:1" /><path
       d="m 5625,2300 -29,-30 25,-26 c 18,-19 203,-204 255,-253 5,-6 164,150 164,161 0,11 -46,58 -57,58 -5,0 -30,-21 -56,-47 l -47,-47 -57,54 c -31,30 -80,79 -109,108 -28,28 -53,52 -56,52 -2,0 -17,-13 -33,-30 z"
       id="path19"
       style="fill:#036046;fill-opacity:1" /><path
       d="m 2540,1978 c -40,-62 -88,-137 -107,-166 -19,-29 -33,-55 -31,-56 15,-13 211,-136 212,-134 1,2 12,16 24,32 12,16 22,33 22,37 0,5 -29,27 -65,50 -36,22 -65,44 -65,48 0,3 7,17 16,29 l 15,22 52,-35 c 28,-19 55,-35 58,-35 7,0 52,71 47,75 -2,1 -25,16 -51,34 -49,33 -57,55 -26,74 12,8 30,0 77,-32 33,-22 63,-41 65,-41 5,0 47,67 47,74 0,6 -203,136 -212,136 -2,0 -38,-51 -78,-112 z"
       id="path20"
       style="fill:#036046;fill-opacity:1" /><path
       d="m 5302,2044 c -18,-15 -31,-31 -29,-38 4,-9 211,-303 222,-314 4,-4 143,91 189,129 4,4 -4,23 -19,43 l -27,35 -59,-41 c -69,-46 -54,-54 -136,67 -27,38 -53,77 -60,85 -7,8 -20,25 -30,38 l -18,22 z"
       id="path21"
       style="fill:#036046;fill-opacity:1" /><path
       d="m 2964,1835 c -18,-44 -19,-41 16,-54 17,-5 30,-17 30,-25 0,-8 -16,-52 -36,-98 -20,-45 -44,-104 -55,-130 l -19,-48 41,-21 c 23,-11 42,-19 43,-17 1,2 26,62 56,133 66,161 64,159 100,140 26,-13 29,-13 43,8 29,45 29,61 -1,74 -79,35 -179,73 -190,73 -7,0 -20,-16 -28,-35 z"
       id="path22"
       style="fill:#036046;fill-opacity:1" /><path
       d="m 4989,1861 c -68,-14 -135,-70 -154,-131 -4,-13 -7,-46 -6,-73 2,-126 120,-216 243,-186 156,37 206,232 87,340 -23,21 -56,41 -73,44 -17,4 -38,8 -46,9 -8,2 -31,0 -51,-3 z m 118,-126 c 35,-40 32,-108 -6,-146 -24,-24 -38,-29 -76,-29 -38,0 -52,5 -76,29 -51,51 -34,147 31,174 8,4 35,5 60,3 33,-3 50,-11 67,-31 z"
       id="path23"
       style="fill:#036046;fill-opacity:1" /><path
       d="m 3365,1658 c -9,-40 -19,-80 -21,-89 -3,-12 6,-19 36,-27 38,-9 42,-8 50,11 12,28 42,148 38,152 -5,4 -71,25 -78,25 -5,0 -15,-33 -25,-72 z"
       id="path24"
       style="fill:#036046;fill-opacity:1" /><path
       d="m 4372,1678 c -33,-7 -42,-13 -38,-26 2,-9 19,-87 36,-172 17,-85 33,-166 36,-179 5,-21 9,-23 45,-18 23,3 43,7 45,10 2,2 0,25 -5,51 -12,67 7,71 63,13 42,-44 45,-45 82,-36 21,4 42,9 47,9 15,0 5,17 -44,69 l -50,54 15,39 c 21,50 20,63 -5,114 -35,72 -114,98 -227,72 z m 117,-89 c 24,-8 31,-17 31,-37 0,-27 -25,-62 -45,-62 -12,0 -37,89 -29,102 6,10 5,10 43,-3 z"
       id="path25"
       style="fill:#036046;fill-opacity:1" /><path
       d="m 3714,1654 c -32,-16 -64,-69 -64,-108 0,-38 41,-88 95,-115 39,-20 50,-31 50,-50 0,-16 -8,-27 -23,-32 -18,-7 -29,-3 -54,21 -22,21 -41,30 -64,30 -41,0 -43,-15 -14,-76 16,-32 31,-46 61,-58 49,-20 70,-20 114,-2 72,31 99,136 50,194 -14,17 -46,40 -71,52 -35,17 -44,27 -42,43 4,26 22,32 41,13 8,-9 33,-18 56,-22 40,-6 41,-6 41,22 -1,34 -18,60 -57,86 -34,22 -77,23 -119,2 z"
       id="path26"
       style="fill:#036046;fill-opacity:1" /></g></svg>
