<svg xmlns="http://www.w3.org/2000/svg" width="24" height="24"><path fill="#FFF" fill-rule="evenodd" d="M20.58 6.6c-.01.05 0 .38.02.72.04.47.09.63.2.63s.16-.16.18-.72c.03-.67.01-.73-.17-.73q-.17 0-.23.1m-8.91.16c-.04.04-.07.25-.07.46 0 .38 0 .38-.4.38-.33 0-.4-.03-.4-.2q0-.2-.2-.2t-.2.2c0 .17-.07.2-.4.2-.36 0-.4-.02-.4-.25 0-.21-.05-.25-.3-.25q-.31 0-.54.25c-.3.33-1.06.37-1.06.05q0-.2-.2-.2t-.2.2c0 .17-.07.2-.5.2-.47 0-.5-.02-.5-.25 0-.21-.05-.25-.3-.25q-.31.01-.56.25-.5.5-.97-.05c-.27-.32-.46-.37-.78-.2-.23.13-.25.38-.04.46.22.09.18.24-.05.24-.11 0-.23-.07-.26-.15q-.07-.13-.2-.15c-.19 0-.18.4.01.46q.13.08.15.24c0 .14.07.17.33.16.24-.02.31-.06.3-.19Q3.9 8.01 4 8c.2 0 .23-.3.05-.5q-.16-.18-.09-.2c.05 0 .2.16.34.35l.25.34h1.33c.99 0 1.31.04 1.3.13q-.01.13.3.13c.17 0 .3-.04.3-.1-.02-.06.74-.12 2.07-.15l2.1-.05v-.6c0-.53-.1-.76-.28-.59m.67.07c-.03.08-.04.36-.02.63.02.36.07.49.18.49.2 0 .22-1.16.03-1.22q-.12-.03-.19.1m1.92-.06q-.18.22.22.23h.27l-.33.15q-.65.3-.23.67l.23.18h-.31q-.3 0-.37-.15c-.06-.16-.44-.21-.44-.07 0 .23.48.52.86.52.6 0 .84-.22.84-.76 0-.24-.04-.44-.09-.44q-.08-.01-.07-.16c.01-.16-.45-.3-.58-.17m1.04.58c0 .51.03.65.15.65s.15-.14.15-.65-.03-.65-.15-.65-.15.14-.15.65m.82-.1c-.3.22-.29.53.03.6.24.07.35.25.15.25q-.09.01-.1.15c0 .21.26.19.5-.05.18-.18.33-.2 1.95-.2h1.75v-.4q0-.42-.15-.4-.13.02-.15.2 0 .18-.1.2-.09-.02-.1-.2c0-.27-.28-.25-.4.03l-.09.22v-.22c-.01-.3-.41-.33-.41-.03 0 .19-.07.2-1.1.2h-1.1v-.25c0-.2-.05-.25-.23-.25a1 1 0 0 0-.45.16m-4.4 1.2c-.26.18-.29.56-.06.74.27.23.37.5.23.66-.19.23.17.18.41-.06.27-.27.25-.42-.07-.8-.22-.27-.25-.35-.15-.51.15-.24-.03-.26-.36-.03M3 9.15c0 .13.51.15 4 .15s4-.02 4-.15S10.49 9 7 9s-4 .02-4 .15m10 0c0 .13.51.15 4 .15s4-.02 4-.15S20.49 9 17 9s-4 .02-4 .15M7.81 10.7c-.01.75 0 .8.2.8s.2-.05.17-.77c-.02-.62-.06-.78-.2-.8-.13-.04-.16.08-.17.77m2.6 0c-.01.73 0 .81.16.78.15-.03.18-.14.18-.78 0-.61-.03-.75-.16-.78-.14-.03-.17.1-.18.78m-7.21-.44q-.15.26-.03.32c.06.04.13.25.15.47.03.38.04.4.41.43.33.03.38 0 .35-.15q-.05-.16-.23-.18-.2.01-.23-.28c-.03-.23 0-.27.23-.27q.29.01.23-.17c-.02-.1-.13-.2-.26-.21q-.2-.04-.22-.13c0-.19-.27-.08-.4.17m15.65-.06c-.14.16-.16.23-.07.32.07.07.12.26.12.43s.05.36.12.43c.15.15.65.16.74 0 .08-.13-.14-.28-.33-.21q-.13.06-.13-.25c0-.24.05-.31.23-.34q.45-.07-.1-.4c-.36-.22-.37-.22-.58.02m-2.65.6c0 .56.03.7.15.7.09 0 .2-.1.24-.22l.08-.22.12.22c.06.12.18.22.26.22.2 0 .2-.34 0-.5-.12-.1-.12-.15 0-.35.14-.2.14-.24 0-.34-.1-.1-.16-.08-.26.1l-.13.24-.06-.25c-.03-.14-.14-.26-.23-.28-.15-.03-.17.06-.17.67m-11.7-.4a.6.6 0 0 0-.23.49c0 .48.18.62.8.62h.54l-.03-.62-.03-.62-.42-.03q-.41-.03-.64.16m1.4-.08c-.06.03-.09.3-.07.6.02.42.07.55.2.57.15.03.18-.04.18-.42 0-.34.04-.46.15-.46s.15.12.15.46c0 .38.03.45.18.42q.17-.01.2-.46.03-.42.18-.42.14-.02.14.46c0 .38.03.45.17.42s.18-.14.17-.5c0-.27-.06-.54-.12-.6a3.4 3.4 0 0 0-1.53-.07m2.56-.03c-.03.03-.05.32-.05.64 0 .51.02.59.18.56q.17-.01.2-.46c.04-.56.26-.5.3.06.04.58.3.57.34 0q.03-.44.18-.43.15-.01.18.43.03.42.18.42c.21 0 .2-.93-.03-1.11-.15-.13-1.37-.22-1.48-.1m3.3 0c-.03.02-.05.3-.05.63 0 .45.03.58.15.58q.15.02.15-.4c0-.41.16-.62.31-.39.05.08.09.29.09.46 0 .51.28.43.32-.09.04-.57.26-.62.3-.06q.03.45.2.46c.15.03.18-.04.18-.46 0-.65-.15-.76-.97-.77-.35 0-.66.01-.68.04m2.1.15c-.29.29-.31.52-.1.84.15.2.24.23.68.2l.52-.03.03-.49c.04-.57-.04-.68-.53-.73-.27-.03-.4.02-.6.21m1.4-.15c-.03.02-.05.3-.05.63 0 .51.02.59.18.56q.18-.02.2-.42t.23-.43c.34-.1.18-.38-.2-.38-.18 0-.35.02-.37.04m2.3.16c-.28.28-.3.51-.08.83.18.26.75.3.94.07q.11-.14.04-.15-.06 0 .04-.12c.2-.2.14-.45-.14-.67-.34-.27-.5-.26-.8.04m2.52-.1c-.27.28-.18.57.24.75q.36.13-.08.04c-.3-.05-.33-.03-.3.13.05.26.77.32.95.07.1-.15.1-.22-.02-.4q-.13-.23-.05-.24c.17 0 .1-.29-.1-.4q-.38-.22-.64.06m-15.4.4c-.09.22.17.49.39.4.1-.03.15-.15.13-.28-.04-.29-.42-.37-.52-.12m9.38-.01c-.08.2.02.45.2.45.2 0 .37-.25.3-.44-.08-.2-.43-.21-.5-.01"/></svg>