<?xml version="1.0" encoding="UTF-8" standalone="no"?>
<svg
   viewBox="0 0 24 24"
   width="24pt"
   height="24pt"
   version="1.1"
   id="svg3169"
   sodipodi:docname="tedi.svg"
   inkscape:version="1.4 (86a8ad7, 2024-10-11)"
   xmlns:inkscape="http://www.inkscape.org/namespaces/inkscape"
   xmlns:sodipodi="http://sodipodi.sourceforge.net/DTD/sodipodi-0.dtd"
   xmlns="http://www.w3.org/2000/svg"
   xmlns:svg="http://www.w3.org/2000/svg">
  <defs
     id="defs3173" />
  <sodipodi:namedview
     id="namedview3171"
     pagecolor="#ffffff"
     bordercolor="#000000"
     borderopacity="0.25"
     inkscape:showpageshadow="2"
     inkscape:pageopacity="0.0"
     inkscape:pagecheckerboard="0"
     inkscape:deskcolor="#d1d1d1"
     inkscape:document-units="pt"
     showgrid="false"
     inkscape:zoom="24.625"
     inkscape:cx="16"
     inkscape:cy="16.020305"
     inkscape:window-width="1920"
     inkscape:window-height="974"
     inkscape:window-x="-11"
     inkscape:window-y="1609"
     inkscape:window-maximized="1"
     inkscape:current-layer="svg3169" />
  <path
     d="m 8.4156575,9.7339005 0.034904,-1.794742 A 0.04879987,0.04918053 0 0 0 8.4358305,7.9025565 L 8.3553924,7.8233923 C 8.3224117,7.7910685 8.2896849,7.7588177 8.256813,7.7266036 l 3.991e-4,4.753e-4 A 0.04887243,0.04925366 0 0 0 8.222381,7.7124162 l -4.1296662,-0.00146 a 0.05442364,0.05484818 0 0 0 -0.036137,0.014699 0.05006975,0.05046032 0 0 0 -0.015347,0.035944 l -0.035811,1.7953636 c 0,0.016125 0.00747,0.030313 0.018976,0.039637 -0.00116,-9.142e-4 -0.00254,-0.00186 -0.0037,-0.00307 0.059685,0.058761 0.1193329,0.1172654 0.1790175,0.1759529 0.00889,0.00874 0.021153,0.014187 0.034577,0.014334 l 0.8546689,3.29e-4 -0.068501,3.4621263 c -4.354e-4,0.01616 0.00675,0.0305 0.018069,0.03982 -0.00112,-8.05e-4 -0.00218,-0.0017 -0.00316,-0.0025 l 0.178945,0.175844 c 0.00882,0.0087 0.020862,0.01415 0.034359,0.01371 l 1.956385,6.58e-4 a 0.05181131,0.05221546 0 0 0 0.050179,-0.05057 l 0.071585,-3.6385548 1.0372421,5.851e-4 c 0.013279,-1.829e-4 0.02645,-0.0053 0.036101,-0.015358 0.00914,-0.00929 0.014731,-0.022671 0.015493,-0.036017 M 7.0478462,9.5580573 6.9757167,13.196612 5.3050559,13.195661 5.3731218,9.7329498 A 0.04898128,0.04936336 0 0 0 5.3583911,9.6960918 C 5.2987428,9.6375871 5.2390582,9.578863 5.1793736,9.5203583 c 1.088e-4,1.463e-4 2.177e-4,3.656e-4 3.628e-4,4.753e-4 A 0.04948923,0.04987527 0 0 0 5.144869,9.5062075 L 4.2901275,9.5055858 4.3200242,7.9888144 8.1665786,7.9900211 8.1360651,9.507341 7.0982062,9.5066828 c -0.027321,4.388e-4 -0.049453,0.023036 -0.05036,0.051374 M 5.1932698,9.5466854 c -2.54e-4,-0.00161 -8.345e-4,-0.00314 -0.00131,-0.00468 4.717e-4,0.00154 0.00105,0.00307 0.00131,0.00468 m -0.00729,-0.018246 c -8.708e-4,-0.00135 -0.00192,-0.00241 -0.0029,-0.00369 9.796e-4,0.00128 0.00203,0.00234 0.0029,0.00369 M 8.2634164,7.7345748 c -7.982e-4,-0.00113 -0.00174,-0.00219 -0.00258,-0.00314 8.345e-4,9.507e-4 0.00178,0.00201 0.00258,0.00314 m 0.0074,0.018466 c -2.54e-4,-0.00132 -7.983e-4,-0.00234 -0.00105,-0.00369 2.539e-4,0.00135 7.982e-4,0.00238 0.00105,0.00369 m -0.00279,-0.00965 c -6.168e-4,-0.00135 -0.00134,-0.00249 -0.00192,-0.00384 5.806e-4,0.00135 0.00131,0.00249 0.00192,0.00384 M 4.0325948,9.6020455 c -0.00171,-9.507e-4 -0.00341,-0.00183 -0.00483,-0.00282 0.00141,9.872e-4 0.00312,0.00186 0.00483,0.00282 m 0.00954,0.00391 c -0.002,-7.679e-4 -0.00406,-0.00135 -0.0061,-0.00216 0.00203,8.045e-4 0.0041,0.00139 0.0061,0.00216 m 1.0000526,3.6832005 c 0.00138,7.69e-4 0.00276,0.0014 0.00425,0.0022 -0.00149,-8.4e-4 -0.00287,-0.0014 -0.00425,-0.0022 m 0.00831,0.0045 c 0.00171,6.58e-4 0.00363,0.0011 0.00544,0.0016 -0.00181,-6.22e-4 -0.00374,-9.51e-4 -0.00544,-0.0016 M 12.384992,9.4792953 c 0.01237,-3.66e-5 0.02456,-0.00596 0.03371,-0.014626 0.0099,-0.00932 0.01538,-0.022707 0.01553,-0.035944 l 0.02953,-1.4881407 a 0.05032373,0.05071628 0 0 0 -0.01527,-0.03748 C 12.38891,7.8445272 12.329262,7.7858762 12.269541,7.7272618 l 0.0013,0.00132 a 0.04818307,0.04855892 0 0 0 -0.03548,-0.014772 L 8.548812,7.7122698 A 0.05188387,0.05228859 0 0 0 8.498488,7.7635348 L 8.3897881,13.247877 c -4.716e-4,0.01642 0.00729,0.03097 0.019193,0.04033 a 0.08225227,0.08289388 0 0 1 -0.00446,-0.0037 c 0.017887,0.01759 0.035666,0.0351 0.053662,0.05273 0.04187,0.04095 0.083559,0.08213 0.1253558,0.123079 0.00889,0.0088 0.021334,0.01433 0.035121,0.01448 l 3.6827751,9.14e-4 c 0.01252,-2.92e-4 0.02471,-0.0059 0.03385,-0.01477 a 0.0507954,0.05119163 0 0 0 0.01538,-0.0358 l 0.02953,-1.487994 a 0.04898128,0.04936336 0 0 0 -0.01473,-0.0373 L 12.18747,11.724743 h -2.9e-4 l -7.26e-4,-8.41e-4 c 2.9e-4,1.46e-4 2.9e-4,4.02e-4 2.9e-4,4.02e-4 a 0.04825563,0.04863205 0 0 0 -0.03476,-0.01411 l -1.531735,-0.0011 0.0058,-0.296948 1.510909,1.09e-4 a 0.05115823,0.05155728 0 0 0 0.03385,-0.01466 c 0.0092,-0.0094 0.01542,-0.02278 0.01542,-0.03602 l 0.02797,-1.4040406 c 0,-0.014261 -0.0057,-0.027278 -0.0152,-0.036492 L 12.020789,9.745894 c 0,-1.097e-4 -7.3e-5,-1.097e-4 -7.3e-5,-1.097e-4 l -6.17e-4,-6.948e-4 c 7.3e-5,1.463e-4 7.3e-5,2.194e-4 2.18e-4,3.657e-4 a 0.0503963,0.05078941 0 0 0 -0.03494,-0.014663 h -1.326159 l 0.0051,-0.251936 z m -1.999416,-0.2270715 -0.01092,0.5292849 c -1.45e-4,0.016308 0.0076,0.030605 0.01919,0.03982 -0.0015,-9.873e-4 -0.0029,-0.00194 -0.0041,-0.00314 0.05972,0.058505 0.119369,0.1171922 0.178944,0.1758432 0.009,0.00874 0.02119,0.014151 0.03472,0.014151 l 1.326304,8.78e-4 -0.02228,1.125959 -1.509821,-7.67e-4 c -0.02736,4.75e-4 -0.05032,0.023 -0.05032,0.05061 l -0.01176,0.57554 c -2.54e-4,0.01616 0.0071,0.0305 0.01869,0.03982 -0.0013,-0.0011 -0.0028,-0.0022 -0.0039,-0.0033 0.05958,0.05869 0.119224,0.117229 0.178945,0.175953 0.009,0.0089 0.02133,0.01422 0.03519,0.01433 l 1.531227,6.21e-4 -0.0238,1.209951 -3.3973055,-0.0014 0.1026793,-5.2060789 3.4017682,0.00106 -0.02376,1.209841 -1.718409,-4.753e-4 a 0.05257324,0.05298334 0 0 0 -0.05134,0.051448 m 0.02551,0.5780998 c -0.002,-5.85e-4 -0.004,-0.00106 -0.0059,-0.00186 0.0018,8.044e-4 0.0039,0.00128 0.0059,0.00186 m -0.0094,-0.00377 c -0.0016,-9.142e-4 -0.0034,-0.00179 -0.0049,-0.00274 0.0016,9.507e-4 0.0033,0.00183 0.0049,0.00274 M 8.420084,13.29479 c 0.002,7.68e-4 0.00421,0.0013 0.00653,0.0021 -0.00232,-7.68e-4 -0.00446,-0.0013 -0.00653,-0.0021 m 3.77301,-1.56299 c -7.26e-4,-9.51e-4 -0.0014,-0.0016 -0.0022,-0.0026 7.98e-4,9.14e-4 0.0015,0.0016 0.0022,0.0026 m 0.0074,0.01865 c -1.45e-4,-6.59e-4 -4.72e-4,-0.0013 -6.53e-4,-0.002 1.81e-4,7.32e-4 5.08e-4,0.0014 6.53e-4,0.002 m -0.003,-0.0098 c -2.54e-4,-9.51e-4 -9.07e-4,-0.0018 -0.0014,-0.0028 4.72e-4,0.0011 0.0012,0.0018 0.0014,0.0028 m -0.1709,-1.9876989 c -5.81e-4,-8.776e-4 -0.0013,-0.00168 -0.0019,-0.00249 5.81e-4,8.044e-4 0.0013,0.00161 0.0019,0.00249 m 0.0077,0.018283 c -1.09e-4,-5.484e-4 -3.63e-4,-0.00113 -5.81e-4,-0.00176 2.54e-4,6.216e-4 5.08e-4,0.00121 5.81e-4,0.00176 m -0.003,-0.00954 c -3.26e-4,-8.045e-4 -7.98e-4,-0.00154 -0.0012,-0.00227 3.99e-4,7.313e-4 9.07e-4,0.00132 0.0012,0.00227 m 3.641668,0.1120365 C 15.616232,9.8180376 15.559704,9.762385 15.502886,9.706769 c -0.0026,-0.00278 -0.0063,-0.00618 -0.0089,-0.00889 0.01197,0.011811 0.02355,0.024133 0.03487,0.036492 -0.06767,-0.075252 -0.149302,-0.1377786 -0.244289,-0.1870689 -0.192188,-0.09869 -0.437204,-0.1456402 -0.734321,-0.1452379 -0.03051,-1.097e-4 -0.05352,-4.754e-4 -0.0833,-5.851e-4 -0.02845,4.754e-4 -0.0513,0.023219 -0.05159,0.051301 l -0.04183,2.1245989 c -7.62e-4,0.01408 0.0048,0.02713 0.01371,0.03613 l 0.178981,0.17588 c 0.0098,0.0098 0.023,0.01503 0.03752,0.01474 0.438183,-0.0078 0.768752,-0.08852 0.995517,-0.27095 0.113383,-0.09083 0.198429,-0.207875 0.255537,-0.348944 0.05656,-0.140924 0.08606,-0.305907 0.08994,-0.496376 0,-0.01196 0,-0.0238 1.46e-4,-0.03499 4.71e-4,-0.179207 -0.02438,-0.336987 -0.0754,-0.472681 -0.04481,-0.119715 -0.110698,-0.2220989 -0.196542,-0.3064554 m -0.0086,0.6378484 c -0.0038,0.181254 -0.03128,0.333879 -0.08218,0.459956 -0.07699,0.189007 -0.203472,0.320643 -0.393229,0.412166 -0.141102,0.06768 -0.318197,0.110208 -0.531138,0.13021 l 0.0361,-1.8344892 h 0.03356 c 0.338733,2.56e-4 0.646734,0.069511 0.77024,0.1894822 0.04709,0.055067 0.07336,0.1080143 0.09804,0.172772 0.04572,0.121763 0.06886,0.266855 0.06857,0.43703 v 0.03287 m -0.08824,-0.718914"
     id="path9543"
     style="stroke-width:0.0364237" />
  <path
     d="M 17.929818,10.63246 C 17.932031,9.8823197 17.661183,9.2137936 17.160666,8.7218054 17.100837,8.6633007 17.041297,8.60454 16.981468,8.5459622 c 0.0017,0.00146 0.0029,0.003 0.0045,0.00442 C 16.794141,8.3610873 16.568428,8.1974934 16.310932,8.0654922 15.800656,7.8058409 15.089194,7.7146101 14.142875,7.7138057 l -1.583619,-1.463e-4 c -0.02721,4.754e-4 -0.04942,0.023036 -0.0504,0.050607 l -0.107904,5.4844146 c -5.08e-4,0.01616 0.007,0.03064 0.01854,0.04004 -0.0012,-9.14e-4 -0.0026,-0.0017 -0.0037,-0.0029 0.05958,0.05861 0.11926,0.117375 0.178945,0.17588 0.0088,0.0087 0.02093,0.01408 0.03439,0.01379 l 1.437075,6.22e-4 c 0.131995,4.75e-4 0.259746,-3.29e-4 0.384086,-0.0024 0.906698,-0.01616 1.643521,-0.10955 2.287425,-0.549908 0.746076,-0.507346 1.174064,-1.31504 1.191987,-2.235209 7.3e-5,-0.01883 7.3e-5,-0.03708 7.3e-5,-0.05606 m -0.280536,-0.120191 c -0.01771,0.89004 -0.427625,1.661681 -1.146561,2.151073 -0.616801,0.423208 -1.328663,0.516121 -2.231297,0.532063 -0.123505,0.0023 -0.250603,0.0031 -0.381945,0.0032 l -1.203996,-6.21e-4 0.102824,-5.2068836 1.531119,8.045e-4 c 0.940005,3.291e-4 1.639058,0.093022 2.123139,0.3407534 0.207717,0.1067711 0.39341,0.2345308 0.556681,0.3795494 0.424758,0.4624432 0.651814,1.0669798 0.650834,1.7462923 3.6e-5,0.01803 -1.09e-4,0.03561 -7.98e-4,0.05375 M 16.70612,8.440544 C 16.72045,8.45177 16.7342,8.463251 16.74821,8.474586 16.73424,8.463214 16.72045,8.451733 16.70612,8.440544 m -4.283612,4.850699 c 0.0016,0.0012 0.0033,0.0019 0.0049,0.0027 -0.0017,-8.05e-4 -0.0033,-0.0016 -0.0049,-0.0027 m 0.0084,0.0046 c 0.0019,7.32e-4 0.0038,0.0012 0.0058,0.0019 -0.002,-6.22e-4 -0.004,-0.0012 -0.0058,-0.0019"
     id="path9545"
     style="stroke-width:0.0364237" />
  <path
     d="M 19.994578,8.7649161 V 8.742538 C 19.995086,8.4960503 19.919546,8.2848849 19.767487,8.1354784 L 19.588469,7.9596352 c 0.0036,0.00329 0.0069,0.00706 0.01041,0.010641 -0.0061,-0.00607 -0.01186,-0.012432 -0.01829,-0.018356 C 19.423413,7.8021847 19.190988,7.72079 18.893146,7.7203877 c -0.0097,2.926e-4 -0.01948,4.023e-4 -0.0291,6.217e-4 -0.293779,0.00508 -0.525805,0.091194 -0.686609,0.2445497 -0.159788,0.152551 -0.243781,0.3696401 -0.248534,0.6223074 v 0.021903 c -4.72e-4,0.2512778 0.08102,0.4696466 0.240407,0.6222343 a 0.23583579,0.23767542 0 0 1 -0.0068,-0.00651 c 0.0267,0.026327 0.0537,0.052727 0.08073,0.079201 l 0.09825,0.096642 c 0.0024,0.00216 0.0045,0.00435 0.0068,0.00651 0.03498,0.03364 0.07365,0.06366 0.115668,0.090536 l -0.420295,-4.023e-4 a 0.05289978,0.05331243 0 0 0 -0.05145,0.051448 l -0.07282,3.6103995 c 0,0.01338 0.0049,0.02666 0.01386,0.03547 l 0.178945,0.175989 c 0.0098,0.0095 0.02224,0.01496 0.03538,0.01532 l 1.634305,7.68e-4 a 0.05170246,0.05210577 0 0 0 0.05032,-0.05061 l 0.07278,-3.6105455 a 0.04607869,0.04643812 0 0 0 -0.01379,-0.036127 L 19.712192,9.5141787 a 0.04912641,0.04950962 0 0 0 -0.03548,-0.014772 l -0.06331,-7.31e-5 a 0.77571835,0.78176932 0 0 0 0.133229,-0.1049795 c 0.159353,-0.1560613 0.242548,-0.376551 0.247954,-0.6294376 m -1.66098,0.467306 C 18.251715,9.1114469 18.209011,8.960395 18.209265,8.783857 l 2.18e-4,-0.019745 c 0.0045,-0.2324832 0.07935,-0.4185282 0.216424,-0.5498347 0.137003,-0.1311969 0.3412,-0.2103611 0.616911,-0.2158824 0.009,-2.56e-4 0.01807,4.753e-4 0.02699,7.31e-5 0.222665,0 0.39722,0.04823 0.527183,0.1320378 0.07768,0.1168998 0.117519,0.2637832 0.117084,0.4378713 v 0.02044 c -0.0045,0.2324466 -0.07928,0.4226235 -0.216352,0.5574768 -0.137075,0.1347437 -0.339967,0.2173451 -0.612158,0.2222083 -0.0083,1.097e-4 -0.0168,1.828e-4 -0.02496,3.291e-4 -0.220016,0 -0.395261,-0.049985 -0.527002,-0.1366086 m -0.129528,3.8763393 0.06759,-3.3323185 1.348545,7.313e-4 -0.06709,3.3324652 z"
     id="path9547"
     style="stroke-width:0.0364237" />
  <path
     d="m 18.021612,13.108416 1.531699,9.51e-4 0.07043,-3.5082722 -1.53101,-7.679e-4 z M 4.1075906,9.5054396 5.1449779,9.5060612 c 0.00425,0 0.00711,0.00713 0.010195,0.010055 0.00312,0.00318 0.00747,0.00742 0.010667,0.010494 0.0033,0.00322 0.00769,0.00761 0.010957,0.01086 0.00566,0.00559 0.011393,0.011116 0.017089,0.01682 1.088e-4,9.142e-4 2.177e-4,0.00176 2.177e-4,0.00267 l -0.07144,3.6385188 1.8530525,9.5e-4 0.072311,-3.6384084 a 0.05206529,0.05247142 0 0 1 0.051376,-0.051411 l 1.0366253,6.947e-4 0.033997,-1.6931631 -4.0289099,-0.0011 z m 1.0473649,0.00183 c 0.00105,1.828e-4 0.00207,6.581e-4 0.00308,9.507e-4 -9.796e-4,-2.926e-4 -0.00203,-7.679e-4 -0.00308,-9.507e-4 m 0.017524,0.00739 c 0.00116,8.776e-4 0.00218,0.00183 0.00323,0.00274 -0.00105,-9.141e-4 -0.00203,-0.00186 -0.00323,-0.00274 m 3.3195158,3.6816664 3.5799157,0.0015 0.02717,-1.385867 -1.711587,-6.22e-4 -0.05192,-0.05094 0.01176,-0.575686 c 1.09e-4,-0.0275 0.02297,-0.04999 0.05159,-0.05061 l 1.508696,8.78e-4 0.02551,-1.3018769 -1.506628,-8.045e-4 c -0.01832,-0.017734 -0.03606,-0.035176 -0.05199,-0.050826 l 0.01081,-0.5294312 a 0.05300863,0.05342212 0 0 1 0.05156,-0.051301 l 1.718481,5.85e-4 0.02725,-1.385794 -3.5842689,-0.0011 z m 1.8545767,-1.403858 c 0.0011,0.0014 0.0021,0.003 0.0035,0.0042 -0.0014,-0.0013 -0.0025,-0.0028 -0.0035,-0.0042 m -0.0073,-0.01207 c -9.07e-4,-0.002 -0.0014,-0.0043 -0.002,-0.0065 6.53e-4,0.0022 0.0011,0.0045 0.002,0.0065 m 0.0045,0.0086 c -9.07e-4,-0.0015 -0.0017,-0.0032 -0.0026,-0.005 8.71e-4,0.0018 0.0017,0.0034 0.0026,0.005 m 0.04263,-1.9749735 c 0.0011,0.00121 0.0018,0.00249 0.0031,0.00369 -0.0013,-0.00124 -0.0021,-0.00249 -0.0031,-0.00369 m -0.0079,-0.012652 c -5.8e-4,-0.00128 -7.98e-4,-0.0026 -0.0012,-0.0041 3.99e-4,0.0015 6.53e-4,0.00282 0.0012,0.0041 m 0.0047,0.00874 c -7.98e-4,-0.00113 -0.0014,-0.00267 -0.0021,-0.00402 6.53e-4,0.00135 0.0012,0.00289 0.0021,0.00402 M 16.263511,8.156723 C 15.779431,7.9090286 15.080522,7.8162621 14.140481,7.8160427 l -1.531155,-7.313e-4 -0.106344,5.3825076 1.386678,8.77e-4 c 0.131052,-4.02e-4 0.258077,-0.0012 0.381909,-0.0033 0.902489,-0.0158 1.614351,-0.108929 2.231841,-0.532174 0.718211,-0.489245 1.128021,-1.260886 1.146017,-2.150779 6.89e-4,-0.01836 6.89e-4,-0.03587 6.89e-4,-0.05408 0.0014,-1.0016372 -0.492534,-1.8413627 -1.386605,-2.301612 m -0.497795,2.355181 c -0.0039,0.190432 -0.03342,0.355379 -0.08994,0.496558 -0.05725,0.140924 -0.142155,0.257897 -0.255537,0.348798 -0.226475,0.182316 -0.556428,0.263125 -0.995046,0.270914 l -0.05185,-0.05079 0.04209,-2.1245987 c 0,-0.028046 0.02286,-0.05068 0.05145,-0.051155 0.02979,7.31e-5 0.05279,3.291e-4 0.08334,5.485e-4 0.297081,-3.657e-4 0.542205,0.046475 0.734284,0.1451282 0.191934,0.099531 0.329771,0.2532889 0.405928,0.456995 0.05094,0.135548 0.07572,0.293328 0.0754,0.472682 -1.09e-4,0.01108 -1.09e-4,0.02304 -1.09e-4,0.03492 M 19.510425,8.0267694 C 19.375927,7.8990097 19.17133,7.822661 18.890794,7.822661 c -0.0089,2.56e-4 -0.01803,-3.656e-4 -0.02696,-1.463e-4 -0.275601,0.00545 -0.479944,0.084759 -0.617055,0.2159556 -0.137039,0.1311603 -0.211672,0.3173515 -0.216425,0.5497615 l -3.6e-5,0.019672 c -4.72e-4,0.2303257 0.07198,0.4173946 0.209313,0.5499809 0.137801,0.1320378 0.343922,0.2109826 0.620902,0.2109826 l 0.025,-3.656e-4 c 0.272191,-0.00483 0.475082,-0.087428 0.61223,-0.2221717 0.137039,-0.1347437 0.211672,-0.3251034 0.216279,-0.55755 V 8.568413 c 5.81e-4,-0.2302527 -0.06904,-0.4131531 -0.203617,-0.541644"
     fill="#ffffff"
     id="path9549"
     style="stroke-width:0.0364237" />
</svg>
