<svg xmlns="http://www.w3.org/2000/svg" width="24" height="24"><path fill="#FFF" fill-rule="evenodd" d="M11.5 4.17c-.34.12-.6.47-.6.79q.02.64.98.8c.26.04.57.1.7.15.25.1.3.44.06.53-.28.1-.94.06-1.3-.09-.46-.2-.44-.2-.44.14s.16.4 1.18.4c1.06.01 1.42-.21 1.42-.88 0-.4-.37-.69-1-.81-.8-.15-.9-.2-.9-.4 0-.35.7-.4 1.38-.1l.43.2-.03-.32c-.02-.25-.09-.34-.28-.4a5 5 0 0 0-1.6 0m3.15.1c-.6.29-.87.63-.93 1.2-.04.42 0 .52.24.81.37.45.8.61 1.58.61.86 0 .96-.05.96-.48 0-.33-.01-.34-.18-.2-.42.38-1.36.26-1.61-.2-.47-.89.5-1.83 1.4-1.38.42.2.4.21.37-.16l-.03-.33-.7-.02c-.51-.02-.8.02-1.1.16m2.88 0c-1.06.48-1.12 1.96-.1 2.44.42.2 1.26.22 1.7.03.53-.22.87-.7.87-1.22q.01-.92-.73-1.25a2.2 2.2 0 0 0-1.74 0M4.8 4.52q0 .32.14.26c.07-.03.35-.09.6-.12l.47-.07-.03 1.1-.03 1.12h.9L6.82 5.7l-.03-1.12.43.06c.24.03.52.09.61.13.14.05.17 0 .17-.25V4.2H4.8zm3.5.99v1.3h2.4V6.5c0-.26-.03-.3-.17-.24-.1.05-.46.1-.8.13l-.63.04v-.74l.45.04c.43.03.45.02.45-.24 0-.27-.01-.27-.45-.21l-.45.06v-.76l.53.06c.28.03.6.08.7.12.14.06.17.02.17-.24V4.2H8.3zm9.5-.7a.8.8 0 0 0-.3.7c0 .5.42 1 .85 1s.85-.5.85-1-.42-1-.85-1c-.16 0-.38.12-.56.3M6.6 7.56c-1.05.04-1.07.04-1.45.38l-.39.34h1.06c1.04.01 1.06 0 1.47-.31.23-.18.42-.36.42-.4q0-.07-.02-.06c-.02.01-.5.04-1.1.05m3.05.03c-1.11.05-1.13.05-1.45.38l-.33.32h1.07c1.06 0 1.08 0 1.45-.32l.42-.35c.1-.07-.1-.08-1.16-.03m3.1 0c-1.11.05-1.13.05-1.45.38l-.33.32h1c.6 0 1.08-.06 1.2-.13.3-.17.79-.57.74-.6-.02 0-.55 0-1.16.03m3.12 0c-1.03.05-1.12.07-1.48.35l-.37.3 1.02.03c1 .03 1.02.02 1.5-.3.26-.18.48-.36.48-.4q0-.07-.02-.06zm3.1 0c-1.07.06-1.12.07-1.5.39l-.4.32h1.06c1.06 0 1.06 0 1.53-.35.25-.2.46-.38.46-.4q0-.05-.02-.03zM4.44 9.44c-.4.18-.96.74-1.17 1.19-.85 1.79.58 2.81 2.12 1.51.47-.4.28-.47-.35-.13-.3.16-.65.29-.75.29-.3 0-.59-.36-.59-.75 0-.32.03-.35.38-.4q1.17-.2 1.62-.71c.35-.4.38-.66.1-.94-.24-.24-.88-.26-1.36-.06m5.68.15c-.07.04-.16.2-.2.37q-.08.3-.45.47c-.43.2-.51.42-.1.26.14-.05.28-.07.3-.05.03.03-.12.78-.35 1.66l-.4 1.61.31-.03c.29-.03.32-.07.45-.6l.14-.57h.38c.72.02 1.42-.64 1.7-1.6.12-.38.11-.44-.07-.69-.17-.23-.28-.27-.78-.3l-.57-.03.06-.3c.04-.23.02-.29-.12-.29-.1 0-.23.04-.3.09m-5.77.35c-.37.4-.62.96-.42.96.3 0 1.18-.51 1.28-.74.29-.62-.33-.78-.86-.22m2.1.5c-.3.4-.27.6.04.32.24-.22.39-.14.57.3.19.45.19.46-.21.87q-.56.59-.55.22c0-.26-.3-.16-.36.12q-.08.27.1.4c.24.16.46.05.88-.47l.32-.4.2.42q.42.86 1 .18c.35-.42.36-.73.02-.4-.3.28-.4.22-.6-.37-.16-.47-.16-.47.1-.75q.46-.46.57-.15c.06.2.38-.13.35-.37-.05-.38-.45-.32-.87.12l-.37.4-.2-.37q-.42-.78-1-.06m6.24-.04c-.21.17-.38.37-.38.45q0 .27.26-.01c.17-.17.34-.2.34-.06 0 .06-.12.47-.26.92-.26.83-.24 1.04.11.97.11-.02.28-.28.45-.69.38-.94.64-1.27 1.03-1.3.27-.03.33-.09.35-.31.03-.24 0-.28-.22-.28q-.25-.01-.52.38l-.35.45c-.04.05-.04-.12-.02-.37.05-.43.04-.46-.18-.46-.13 0-.4.14-.61.31m2.76-.12a1.9 1.9 0 0 0-.92 1.44c-.08.99.56 1.3 1.51.74.63-.37.65-.65.02-.3-.54.3-.91.26-1-.12q-.16-.55.33-.55c.4 0 1.15-.4 1.3-.7.27-.57-.57-.93-1.24-.51m2.1.15c-.47.47-.43.72.21 1.13q.98.66.06.67c-.33 0-.49-.07-.62-.23l-.19-.23-.11.26c-.18.4.1.66.71.66.57 0 .95-.26 1.05-.7.08-.35-.17-.7-.67-.96-.4-.2-.38-.54.04-.54.17 0 .4.07.5.16.16.15.18.15.24 0q.2-.5-.44-.54c-.38-.03-.47.01-.78.32m2.17-.03c-.46.46-.41.7.25 1.2.3.22.53.46.51.52-.07.21-.88.13-1.07-.1q-.17-.24-.29-.1c-.32.32.02.77.6.77.54 0 .95-.23 1.08-.6.14-.41.03-.6-.55-1-.25-.18-.43-.37-.41-.43.06-.19.67-.2.86-.03q.3.28.31-.2c0-.46-.84-.48-1.3-.03m-9.27.02c-.1.16-.42 1.46-.43 1.75 0 .6.7.26 1.06-.51.3-.64.31-1.12.05-1.27-.27-.14-.58-.13-.68.03m5.2.05c-.11.1-.29.32-.38.5l-.17.35.29-.07c.43-.1.78-.4.78-.67 0-.3-.23-.35-.51-.11m-4.81 3.01c-.13.1-.23.22-.23.25s.23.06.51.06c.4 0 .58-.05.8-.25l.3-.25h-.58c-.42 0-.64.06-.8.2"/></svg>