<svg xmlns="http://www.w3.org/2000/svg" width="24" height="24"><path fill="#FFF" fill-rule="evenodd" d="M10.94 2.15c-.89.2-1.6.6-2.3 1.29a4.6 4.6 0 0 0-.95 5.32 4.74 4.74 0 1 0 3.25-6.61m.3.85a4 4 0 0 0-2.85 2.41 3.9 3.9 0 0 0 1.47 4.56 3.85 3.85 0 0 0 5.62-1.65c.24-.5.27-.7.27-1.57 0-.89-.03-1.06-.28-1.56A4 4 0 0 0 12.72 3c-.6-.12-.88-.12-1.49 0M10.1 6.8V9l.63-.03.62-.03.03-.57c.03-.57.04-.58.32-.58.25 0 .36.1.7.6l.4.6h.65c.36 0 .65-.03.65-.06s-.2-.35-.44-.7l-.44-.63.24-.15c.34-.23.56-.72.56-1.27a1.4 1.4 0 0 0-.82-1.37c-.4-.2-.6-.22-1.77-.22H10.1zm1.3-.6v.6h.5c.37 0 .55-.05.7-.2.46-.46.09-1-.7-1h-.5zM6 12.13c-.14.15-.13.4.03.56q.15.13 0 .18-.12.06-.13.24c0 .1-.04.19-.1.19-.05 0-.1.25-.1.55s.05.55.1.55q.1-.01.1-.14 0-.15.33-.18c.17-.02.32-.07.32-.13s-.15-.11-.32-.13-.33-.07-.33-.12.15-.1.33-.12c.37-.03.43-.21.1-.26-.28-.04-.3-.22-.04-.22.27 0 .35-.17.14-.3q-.15-.09-.07-.1c.15 0 .25-.26.18-.44-.07-.19-.4-.26-.53-.13m.94.1c-.03.12-.05.65-.03 1.17l.03.95.33.03c.3.03.32.01.32-.27 0-.41.31-.42.6-.01.17.23.29.3.56.3.4 0 .4-.02.13-.41-.2-.27-.2-.32-.06-.47.22-.25.3-.64.18-.95-.14-.37-.64-.57-1.4-.57-.55 0-.61.02-.66.23m2.82.43c-.33.18-.53.77-.38 1.16.17.44.48.58 1.26.55l.7-.02v-1.8l-.66-.01c-.39 0-.76.04-.92.12m2.9-.1c-.04.04-.28.07-.53.05l-.45-.02.03.88.03.88.33.03.32.03v-.54q0-.87.45-.73c.11.04.15.21.15.66v.61l.33-.03.32-.03v-.72c0-.51-.04-.77-.15-.87-.18-.18-.72-.3-.83-.2m1.72.09c-.14.08-.32.28-.4.45-.25.63.35 1.3 1.04 1.16q.3-.06.24.07t-.55.1c-.43 0-.52.02-.58.2-.09.27.1.37.79.37.48 0 .62-.04.82-.25.23-.22.25-.32.25-1.2v-.96h-.37c-.21.01-.51 0-.68-.04a1 1 0 0 0-.56.1m2.45-.06c-.33.14-.54.5-.54.92 0 .3.07.43.32.64.28.23.39.27.8.22q.88-.07.58-.42-.14-.15-.38-.1c-.27.07-.62-.02-.62-.16 0-.05.27-.09.6-.09.6 0 .6 0 .6-.28 0-.54-.8-.97-1.36-.73m-9.2.16c-.1.26.04.45.35.45.32 0 .48-.24.3-.46-.15-.19-.58-.18-.65.01m2.42.5c-.1.29-.07.44.15.55.27.15.51-.05.47-.4q-.01-.27-.3-.28-.25-.03-.32.13m4.59.05c-.09.28.06.43.36.38q.25-.02.24-.28c0-.34-.5-.42-.6-.1M5.8 14.8c0 .07 1.38.1 3.95.1s3.95-.03 3.95-.1-1.38-.1-3.95-.1-3.95.04-3.95.1m10.3 0c0 .06.42.1 1.05.1s1.05-.04 1.05-.1-.42-.1-1.05-.1-1.05.04-1.05.1m-10.38.85c0 .22.02.32.05.22.05-.18.33-.24.33-.07q.01.1.1.1c.05 0 .1-.13.1-.3s-.04-.3-.1-.3q-.09.02-.1.15c0 .2-.28.19-.33-.02q-.05-.13-.05.22m8.68-.16c-.12.23.12.54.39.49.18-.04.29-.38.12-.38q-.1.02-.11.15 0 .14-.15.08c-.23-.08-.14-.36.15-.44l.25-.07-.27-.01q-.26 0-.38.18m2.09 0c-.2.16-.21.21-.1.35.07.09.22.16.32.16.15 0 .19-.07.19-.35 0-.4-.08-.43-.41-.16m-9.99.06c-.1.12-.1.18 0 .3.16.2.39.2.46 0 .06-.15-.11-.45-.26-.45q-.08.02-.2.15m.73 0a.4.4 0 0 0 0 .27q.06.12.06-.04c.01-.26.2-.22.22.05v.22l.1-.22c.04-.13.13-.23.18-.23q.1.02.14.23.06.22.04-.08c-.02-.26-.06-.3-.35-.31-.2-.01-.36.04-.39.12m1.1-.09c-.18.06-.16.42.02.5.18.06.2.05.3-.23.06-.22-.09-.35-.32-.27m2.1 0c-.18.06-.16.42.02.5.18.06.2.05.3-.23.06-.22-.09-.35-.32-.27m2.6.08c-.07.2.03.45.2.45.19 0 .28-.35.14-.5q-.23-.21-.33.05m2.2 0c-.1.23.03.45.26.45.25 0 .28-.45.04-.54-.22-.08-.24-.08-.3.09m1.86 0c-.1.12-.1.18 0 .3q.13.13.25.15c.17 0 .25-.36.12-.5-.15-.14-.22-.13-.37.05m-5.3.07c0 .42.52.5.58.1q.02-.2-.07-.22-.1.02-.11.15t-.1.15q-.09-.02-.1-.15 0-.13-.1-.15-.09.01-.1.13"/></svg>