<svg xmlns="http://www.w3.org/2000/svg" width="24" height="24"><path fill="#FFF" fill-rule="evenodd" d="M3 8.95v1.55h18V7.4H3zm7.73-1.38c-.35.07-.7.5-.83 1.02-.27 1.13.5 2.14 1.3 1.71.1-.05.47-.47.83-.92a8 8 0 0 1 1.57-1.51c0-.14-.67-.37-1.07-.37q-.9-.01-1.36.94c-.29.56-.43.68-.53.42-.08-.2.2-.69.55-.99.3-.24.3-.25.08-.3L11 7.51zm9.57.08c-.18.22-.08.5.2.5.27 0 .46-.25.37-.49-.08-.2-.4-.21-.57-.01m-14.98.02q-.14.04-.02.18c.07.09.01.42-.2 1.16a7 7 0 0 1-.4 1.14c-.2.19-.09.25.45.25.5 0 .55-.02.53-.22-.01-.26.17-.95.31-1.17a.2.2 0 0 1 .25-.08c.14.06.14.1 0 .48-.26.76-.17.99.4.99.13 0 .3-.08.4-.18.18-.2.22-.37.06-.27-.14.09-.13-.08.06-.72.15-.5.15-.56-.02-.74-.2-.23-.4-.24-.77-.05-.27.15-.27.15-.2-.12.15-.59.11-.67-.32-.69a2 2 0 0 0-.53.04m-1.52.48c-.13.14-.32.25-.42.25-.21 0-.22.04-.07.29.1.14.08.29-.05.66-.09.27-.16.57-.16.66 0 .37.68.51 1.08.23.24-.17.3-.36.08-.28q-.37.14-.1-.7c.13-.4.23-.56.37-.58.25-.04.35-.28.13-.28q-.16 0-.16-.25c0-.2-.05-.25-.23-.25-.13 0-.34.11-.47.25m14.62 0c-.17.14-.37.25-.46.25-.2 0-.2.04-.04.3.1.14.08.3-.07.8-.19.61-.19.63 0 .76.25.18.65.18.93-.02.24-.17.3-.36.08-.28-.23.09-.25-.09-.09-.68.12-.43.21-.58.36-.6.24-.04.35-.28.13-.28q-.16 0-.16-.25.01-.26-.2-.25c-.1 0-.32.11-.48.25m-10.29.3c-.5.22-.78.96-.57 1.5.17.44 1.14.59 1.58.24.37-.29.35-.5-.04-.4-.32.1-.7.04-.7-.1q0-.26.17-.21c.07.02.31-.02.53-.08.86-.23.71-.98-.21-1.06a2 2 0 0 0-.76.1m5.3 0q-.57.26-.7 1c-.05.3-.01.4.25.66.22.22.4.3.66.3.47 0 .82-.15.96-.4.15-.28.1-.32-.28-.2-.22.08-.36.08-.51 0q-.5-.24.26-.34c.25-.03.55-.14.65-.23.22-.2.23-.56.03-.73-.23-.19-.96-.22-1.32-.06m2.04-.07q-.19.04-.14.24c.05.2-.28 1.38-.44 1.54-.2.2-.07.26.47.23l.56-.03.03-.4c.04-.52.2-.94.4-1.01.25-.1.26-.02.08.59-.13.46-.13.6-.03.72.16.2.64.2.84 0 .18-.18.22-.4.06-.3-.13.08-.13.05.07-.65.15-.57.15-.6-.02-.8-.21-.23-.4-.25-.74-.06-.2.12-.27.12-.39 0q-.21-.2-.75-.07m4.44.04q-.23.09-.17.25c.07.19-.32 1.54-.45 1.54q-.08.01-.09.1c0 .07.22.1.56.08l.56-.03.04-.35c.01-.2.1-.55.18-.79.2-.55.2-.77 0-.85s-.34-.07-.63.05M8.5 8.8a1 1 0 0 0-.08.37c.03.15.06.14.26-.06.12-.12.22-.29.22-.37 0-.22-.28-.18-.4.06m5.21.05c-.14.32-.06.47.2.34.22-.12.26-.6.06-.6-.08 0-.2.12-.26.26"/></svg>