<svg xmlns="http://www.w3.org/2000/svg" width="24" height="24"><path fill-rule="evenodd" d="M10.77 2.09c-.2.04-.4.1-.44.14q-.22.22.63.06a6.78 6.78 0 0 1 5.81 11.48c-.33.34-.57.66-.53.7s.41-.27.82-.7a6.95 6.95 0 0 0-4.81-11.73c-.6-.02-1.27 0-1.48.05m-1.44.34c.06.16-.08.25-.15.1-.01-.05-.19 0-.38.09q-.32.16-.18.18.16.01.18.15 0 .13.1.15c.13 0 .13-.17-.01-.26q-.12-.06.02-.15.13-.06.26.1.11.15.13.04.01-.11.14-.07.15.07.1-.15c-.04-.12-.11-.24-.17-.28q-.1-.06-.04.1M11.4 3.6v.61h.39c.4 0 .68-.2.55-.41a1 1 0 0 1-.08-.43c0-.3-.04-.31-.43-.34L11.4 3zm-3.82-.01a6.9 6.9 0 0 0-1.81 8.52c.38.8.6 1.09 1.32 1.81a6.8 6.8 0 0 0 4.47 2.06c.71.06 1.44-.02 1.44-.15 0-.04-.46-.07-1.02-.08A6.77 6.77 0 0 1 8.12 3.42c.16-.09.28-.2.28-.24q-.01-.27-.82.4m5.12.08c-.07.3-.1.57-.08.6.02.01.23.06.47.1.35.06.43.04.4-.07-.03-.08-.15-.15-.27-.17s-.22-.1-.22-.16q0-.14.25-.08c.3.05.35-.17.05-.25q-.18-.06-.2-.15.01-.09.24-.04.24.06.3-.08c.05-.15-.2-.26-.6-.26-.2 0-.24.09-.34.56m-3.09-.2c-.2.08-.31.2-.28.26.3.78.4.98.47.98.23 0 .7-.24.7-.36 0-.17-.01-.17-.34-.04q-.28.11-.26-.05c0-.07.09-.17.2-.2.32-.1.24-.28-.1-.21-.33.06-.42-.09-.1-.19.11-.03.2-.13.2-.2 0-.18-.06-.18-.49 0m4.46.56q-.76.67-.07.52c.25-.05.31-.02.4.22.06.14.16.25.23.22.15-.05.17-1.29.02-1.34-.06-.01-.31.15-.58.38m-5.64.13-.28.24.31.43c.17.24.36.45.42.47.14.04.69-.45.59-.54-.04-.05-.17-.03-.28.04-.28.18-.46.04-.2-.15.27-.18.18-.37-.1-.22-.26.14-.4.01-.16-.15.18-.14.23-.36.08-.36-.06 0-.22.1-.38.24m6.84.61c-.44.53-.4.81.05.38l.3-.28-.07.3-.1.42c-.02.06.03.17.11.24.13.1.22.06.57-.3.32-.31.39-.43.3-.53s-.18-.07-.38.12l-.25.24.06-.35c.04-.19.08-.36.1-.38.05-.05-.16-.31-.25-.31-.04 0-.24.2-.44.45m-7.76.2c-.13.13-.22.28-.2.32.1.23.88.83.94.73.04-.06 0-.2-.09-.29-.14-.16-.14-.19 0-.33.24-.23.07-.44-.17-.22s-.38.1-.16-.14c.16-.17.14-.32-.03-.32-.04 0-.17.1-.3.24m3.35.1A4.1 4.1 0 0 0 7.92 8.6c-.02.37-.01.9.02 1.15.06.4.1.46.3.43q.22-.02.18-.23a11 11 0 0 1-.05-1c0-.7.03-.9.3-1.45a3.64 3.64 0 0 1 5.07-1.72c.26.15.72.53 1 .84.38.41.58.57.7.52.22-.08.21-.1-.2-.65a4.7 4.7 0 0 0-2.07-1.44 5 5 0 0 0-2.32-.01M6.75 6c-.08.16-.15.31-.15.34 0 .11.96.56 1.1.5.12-.04.11-.09-.09-.25s-.21-.22-.1-.34q.12-.16.02-.26t-.27.12c-.19.27-.36.17-.18-.11.16-.25.15-.3-.03-.3-.08 0-.21.13-.3.3m4.43.3c-.4.12-.97.49-1.08.7-.28.52.05 1.1.63 1.1.42 0 1.3-.42 1.5-.71.25-.35.21-.74-.1-.98-.27-.22-.5-.25-.95-.11m3.78 1.18a22 22 0 0 0-2.33 1.08q-.01.1.05.22c.13.19 4.77-1.8 4.77-2.04q0-.17-.1-.2a27 27 0 0 0-2.4.94M6.3 7.12c-.55.6.15 1.48.79 1 .36-.27.41-.84.1-1.06-.32-.22-.65-.2-.89.06m.25.22c-.27.2-.15.51.2.51.23 0 .3-.05.33-.22.04-.29-.28-.47-.53-.3m9.13.5c-.14.1-.15.2-.07.61a3.75 3.75 0 0 1-1.97 3.81c-.5.25-.73.3-1.49.33-1.29.05-1.88-.18-2.78-1.1a5 5 0 0 0-.76-.68c-.44 0 .22.99 1.01 1.53.81.56 1.3.7 2.38.7 1.22.02 1.87-.22 2.7-1a3.9 3.9 0 0 0 1.38-3.28c-.06-.86-.16-1.1-.4-.93m-9.72.83c-.26.7.6 1.3 1.08.76.22-.24.19-.86-.04-.86q-.15-.01-.12.32c.03.25-.01.33-.18.38-.28.09-.51-.12-.48-.43.03-.28-.16-.41-.26-.17m5.64 0q-.15.15-.01.29c.06.07.09.2.05.29-.09.24.29.4.52.22.1-.08.28-.15.39-.15.2 0 .2-.01.02-.15-.1-.07-.16-.18-.12-.24q.04-.1-.09-.11a.2.2 0 0 0-.2.13q-.05.12-.05-.03c.02-.32-.02-.4-.2-.4-.1 0-.24.07-.31.15m-2.8 1.44c-2.1.9-2.52 1.16-2.22 1.35.05.03 1.14-.4 2.43-.94 1.8-.76 2.34-1.03 2.34-1.17q-.02-.16-.15-.2c-.08 0-1.16.42-2.4.96m5.02-.7c-.48.3-.82.89-.82 1.42q0 .36-.1.2-.08-.14-.17-.08c-.04.04-.01.17.06.28s.1.23.08.25q-.05.01-.17-.22c-.15-.28-.66-.57-1.17-.69-.39-.08-.4-.03-.13.4.23.38.74.65 1.2.65.18 0 .33.06.36.15q.07.14.15.15.07-.02-.03-.25c-.15-.34.03-.72.62-1.3q.5-.46.56-.81c.03-.2.05-.37.02-.39-.02-.02-.23.08-.46.23m2.53 1.49c-.08.2-.14.37-.13.38.08.06 1.02.45 1.1.45.17 0 .07-.29-.12-.35-.16-.05-.18-.1-.1-.25.13-.25.13-.3-.04-.3q-.13.02-.2.15c-.1.28-.26.16-.2-.15.09-.43-.12-.38-.31.07m-.6 1.03c-.03.05.09.34.26.65.32.57.53.62.54.12q0-.21.27-.35c.16-.07.28-.17.28-.2 0-.08-.87-.32-1.15-.32q-.13 0-.2.1m-.81.84-.28.23.38.46c.4.5.51.5.9.09.22-.25.03-.41-.23-.18-.23.2-.36.08-.15-.15.23-.25.08-.45-.17-.23-.1.1-.22.14-.27.1-.04-.04.03-.16.15-.26.2-.16.21-.3.02-.3-.04 0-.2.1-.35.24m-5.14.7q0 .13.12.18.13.02-.05.5c-.13.4-.13.47-.01.52q.15.05.29-.3c.08-.2.15-.4.15-.46q.02-.08.2-.03c.39.12.2-.22-.2-.39-.5-.2-.5-.2-.5-.02m4.07-.08c-.05.05.35.97.48 1.12.01.02.18-.05.38-.14q.34-.16.3-.3c-.04-.1-.1-.11-.26-.03-.17.1-.23.08-.34-.07-.08-.1-.16-.3-.2-.41-.05-.22-.23-.3-.36-.17m-2.91.57c-.12.57-.11.97.02 1.02.29.1.72.05.72-.1q-.01-.15-.25-.15t-.25-.1q.02-.09.25-.1.24 0 .25-.15-.01-.15-.25-.15t-.25-.1c0-.05.14-.1.3-.1.32 0 .4-.14.14-.24-.35-.13-.64-.06-.68.17m1.5-.14a7 7 0 0 0-.36 1.14c0 .13.28.07.34-.08.06-.17.37-.2.53-.04.06.06.18.1.27.07.13-.02.1-.12-.17-.57-.33-.56-.5-.7-.61-.52m3.3.68c-.1.1-.07.25.03.18a.1.1 0 0 1 .15.04q.04.09-.1.15a.16.16 0 0 1-.2-.1c-.06-.13-.09-.13-.23 0a1 1 0 0 1-.36.2c-.19.07-.19.08-.03.2.1.07.14.17.1.2q-.05.08.08.04.14-.06.12-.29c-.02-.22-.02-.22.1-.05s.15.16.27.02c.08-.09.2-.16.27-.16q.13-.01.14-.14c0-.17-.24-.38-.33-.3"/></svg>