<svg xmlns="http://www.w3.org/2000/svg" width="24" height="24"><path fill="#FFFFFF" fill-rule="evenodd" d="M11.17 2.14c-.5.19-.67.33-.91.86-.2.44-.2.56-.18 4.6.04 4.42.06 4.55.55 5.09.5.55 1.57.69 2.18.28.64-.42.7-.69.75-3.3.06-2.84.07-2.8-.85-2.85-.72-.03-1.01.13-1.01.58q.01.49.47.5h.23v1.93c0 1.75-.02 1.96-.18 2.1a.6.6 0 0 1-.7.08c-.25-.16-.3-.98-.31-4.74l-.01-3.68.25-.24c.29-.3.6-.32.75-.06.05.11.1.62.1 1.13 0 1.1.1 1.31.6 1.31.52 0 .61-.21.54-1.33-.1-1.6-.32-2.1-1.02-2.3a1.8 1.8 0 0 0-1.25.04m-4.55.08c-.15.15-.15.7 0 .86.07.07.34.12.6.12h.48V8c0 4.67 0 4.8.2 5 .23.23.58.26.86.06.18-.14.19-.29.15-5L8.88 3.2h.54c.62 0 .78-.11.78-.55 0-.17-.05-.36-.12-.43a12 12 0 0 0-3.46 0m7.43.02c-.18.13-.19.29-.17 2.72.04 5.48.14 7.93.3 8.06q.16.14 1.02.12c.76 0 .93-.04 1.33-.28.8-.46.9-.8.9-2.76 0-1.49-.02-1.7-.21-2.07a2 2 0 0 0-.43-.57l-.22-.15.27-.31c.36-.43.38-.56.34-2.31-.03-1.78-.12-2-.93-2.38-.54-.25-1.89-.3-2.2-.07m1.05 2.81q0 1.85.1 1.85c.06 0 .24-.07.4-.15.37-.2.5-.64.5-1.75 0-1.08-.12-1.53-.46-1.68-.55-.26-.54-.27-.54 1.73m0 4.95v2h.34a1 1 0 0 0 .57-.2c.22-.17.24-.27.27-1.32.04-1.2-.1-2.08-.34-2.33a1 1 0 0 0-.5-.15h-.34zm-8.6 3.9q0 .09.1.1c.05 0 .1.43.12.97q.03.98.16 1c.09.04.12-.2.12-.96 0-1.3.18-1.33.22-.04q.03.98.16 1 .12.06.12-.46c0-.28.05-.51.1-.51s.1.2.1.44c0 .25.05.48.1.51q.1.04.1-1.04c0-.67-.04-1.11-.1-1.11-.05 0-.1.22-.1.5 0 .64-.18.66-.22.03l-.03-.48-.47-.03q-.46-.02-.48.07m1.62.98.03 1.08.28.03c.15.02.27-.01.27-.07q-.02-.1-.2-.11c-.17 0-.2-.07-.2-.4q0-.42.15-.4.13-.01.15-.1-.02-.1-.15-.16c-.2-.08-.2-.74 0-.74.07 0 .17-.04.2-.1q.04-.1-.25-.1h-.3zm1.15-1c-.04.03-.07.48-.07.98 0 .96.11 1.24.45 1.11.2-.07.22-1.26.02-1.26-.1 0-.13.14-.1.55q.06.55-.06.55-.1 0-.11-.9c0-.53.04-.9.1-.9q.09.02.1.25t.1.25c.07 0 .1-.14.08-.32q-.02-.35-.23-.36c-.12-.02-.24 0-.28.04m.8 0a8 8 0 0 0 0 1.98c.06.19.34.2.51.04.15-.15.16-1.61.02-1.89-.1-.19-.4-.26-.53-.12m.85.05c-.18.18-.16 1.69.02 1.94.12.15.18.17.33.08.14-.09.19-.27.21-.9.02-.43 0-.9-.03-1.01-.06-.25-.34-.3-.53-.11m.78.98c0 1 .02 1.1.18 1.1.34 0 .42-.21.42-1.06 0-.99-.05-1.14-.36-1.14-.24 0-.24 0-.24 1.1m1.2-.05c0 .89.03 1.07.16 1.12.37.14.49-.1.5-.98.01-.96-.07-1.19-.41-1.19-.25 0-.25 0-.25 1.05m.82-.05c.03 1.08.14 1.31.52 1.17.13-.05.16-.23.16-1.12 0-.63-.04-1.05-.1-1.05s-.1.38-.1.94c0 1.28-.18 1.35-.22.1-.02-.68-.07-.99-.16-1.02-.1-.03-.12.19-.1.98m.88.1c0 .66.04 1.1.1 1.1s.1-.23.1-.52q0-.9.18.02c.04.24.13.45.2.48.1.03.12-.05.06-.34a8 8 0 0 1-.08-1.09c-.01-.69-.02-.7-.29-.73l-.27-.03zm.81-.92c-.06.12-.07.54-.03 1.09.07.86.08.89.32.89s.25-.03.28-.64c.03-.6.02-.63-.17-.58-.19.04-.21 0-.21-.34 0-.21.04-.39.1-.39q.1.02.1.25.01.23.1.25c.07 0 .1-.14.08-.32-.02-.25-.08-.34-.25-.36a.3.3 0 0 0-.32.15m.79.93V16h.25q.23 0 .25-.1-.02-.1-.15-.1c-.23 0-.2-.76.02-.85.17-.06.17-.07 0-.2-.22-.16-.24-.75-.02-.75q.13 0 .15-.1-.02-.1-.25-.1h-.25zm.6 0c0 .85.03 1.1.13 1.08.06-.03.14-.24.17-.49l.05-.44.08.47c.05.27.13.48.19.48q.1 0 .03-.47c-.08-.53-.08-.52.01-1.06q.1-.67-.42-.67c-.24 0-.24 0-.24 1.1m-6.6-.06c0 .81.12 1.19.23.75a4 4 0 0 0-.14-1.59c-.05 0-.09.38-.09.84m.87-.67c-.04.15-.04.45.02 1.51q.02.11.11.07c.13-.08.13-1.62 0-1.7q-.07-.03-.13.12m.83.73q0 .89.1.85c.05-.03.1-.42.1-.85s-.04-.82-.1-.85-.1.27-.1.85"/></svg>