<svg xmlns="http://www.w3.org/2000/svg" width="24" height="24"><path fill-rule="evenodd" d="M3 7.1v.3h1.4v2.8H5V7.4h1.4v-.6H3zm3.8 1.4v1.7h.25c.25 0 .25-.01.25-.83 0-.93.1-1.11.67-1.23.24-.05.36-.01.52.15.18.18.21.33.21 1.06v.85h.62l-.04-1.05c-.03-.9-.06-1.07-.24-1.25-.29-.3-.92-.37-1.32-.16-.17.09-.33.16-.36.16-.04 0-.06-.25-.06-.55 0-.52-.01-.55-.25-.55H6.8zm3.64-.76c-.5.22-.74.6-.74 1.23 0 .46.04.58.33.9.26.28.42.36.8.4.25.03.57.03.7 0 .28-.08.87-.53.87-.68s-.67-.1-.8.06c-.19.22-.86.2-1.1-.05-.43-.43-.29-.5.9-.5h1.12l-.07-.32c-.21-.98-1.1-1.43-2-1.04m3.08 0c-.45.2-.73.7-.73 1.29 0 .4.05.53.34.85.34.36.36.37 1.06.37s.72 0 1.06-.37c.29-.32.34-.45.34-.85 0-1.1-1.02-1.74-2.07-1.28M16 8.9v1.3h.6v-.8c0-1 .15-1.18.93-1.1.13 0 .17-.06.17-.34 0-.43-.16-.46-.73-.17-.36.18-.37.18-.37 0 0-.14-.07-.19-.3-.19H16zm2.06-1.08c.04.13.29.67.55 1.2.27.54.49 1.04.49 1.13 0 .23-.46.48-.76.4-.23-.05-.25-.03-.22.22.03.24.08.28.4.31.72.06.9-.13 1.72-1.84.42-.86.76-1.58.76-1.6s-.14-.04-.3-.04c-.3 0-.34.05-.77.96l-.45.95-.3-.63-.45-.95c-.12-.26-.21-.33-.45-.33-.26 0-.29.03-.22.23m-7.56.47c-.33.33-.24.4.55.4.59 0 .75-.03.75-.14 0-.43-.95-.61-1.3-.26m3.33-.1c-.48.2-.58.95-.18 1.35.53.53 1.35.17 1.35-.6 0-.6-.6-.99-1.17-.75"/></svg>