<svg xmlns="http://www.w3.org/2000/svg" width="24" height="24"><path fill="#FFFFFF" fill-rule="evenodd" d="M10.63 2.08q-.12.08-.06.45c.05.34.09.38.32.35s.34-.23.12-.23a.3.3 0 0 1-.17-.07q-.06-.08.1-.08c.22 0 .2-.2-.01-.2q-.16-.02-.05-.07T11 2.1c0-.11-.2-.12-.37 0m.67.3c0 .46.04.5.38.42.5-.13.37-.81-.14-.81-.21 0-.24.05-.24.38m1.4-.14c-.2.26-.08.6.23.64.32.04.37-.13.06-.21-.26-.07-.2-.3.1-.35.11-.02.21-.08.21-.13 0-.14-.46-.1-.6.05m.8.3c-.13.39-.04.7.12.42.13-.23.27-.2.2.04-.08.35.16.22.28-.15.14-.42.04-.65-.16-.38-.12.16-.13.16-.14.01 0-.32-.18-.28-.3.07m-4.03-.17c-.2.04-.22.2-.05.57.11.25.28.34.28.15q.01-.08.15-.04c.16.07.2-.11.05-.2q-.08-.08-.04-.2c.06-.17-.16-.34-.38-.28m4.84.45c-.15.4-.15.47-.02.47s.4-.61.34-.72q-.14-.23-.32.25m-5.54-.12c-.16.09-.16.12 0 .44.17.38.38.48.3.15q-.05-.18.03-.2c.17 0 .09-.2-.08-.2q-.16-.02-.05-.07c.13-.05.17-.23.04-.23l-.24.1m6.04.22c-.19.19-.14.56.09.68.27.15.38.04.14-.14-.27-.2-.13-.5.2-.42.27.07.35-.08.1-.18q-.35-.13-.53.06m-7.02.43q0 .14-.15.09-.32-.12.1.41.24.3.32.2a1 1 0 0 1 .28-.2c.19-.07.18-.08-.07-.17Q8 3.58 8 3.39q0-.17-.1-.19-.09.02-.1.15m3.65-.03c-.5.03-1.1.13-1.34.22a5.8 5.8 0 0 0-3.66 4.21 5.7 5.7 0 0 0 4.25 6.61c.85.21 2.2.14 3.07-.16a5.7 5.7 0 0 0 3.69-6.51c-.18-.78-.61-1.7-.85-1.77-.17-.06-.13.15.23 1.16a5.2 5.2 0 0 1-9.11 4.85 5.24 5.24 0 0 1 1.41-7.45 5.4 5.4 0 0 1 5.2-.26c.29.15.41.17.5.08.15-.16-.2-.43-.9-.7a5.4 5.4 0 0 0-2.49-.28m4.06.17q-.36.5-.07.38.13-.04.2.15c.07.29.24.14.18-.17-.03-.2 0-.25.17-.25.11 0 .21-.05.21-.1q-.02-.09-.15-.1-.13 0-.15-.1c0-.19-.19-.1-.4.19m-8.36.4c-.06.12-.13.22-.17.22-.2-.02-.19.01.08.29.3.32.5.4.41.15q-.06-.15.14-.15.18-.01.2-.1-.02-.09-.24-.1c-.2 0-.26-.06-.28-.27l-.04-.28zm9.07.13c-.18.24-.2.33-.1.45.17.2.31.17.24-.06q-.09-.23.11-.13.19.08.11-.1-.07-.16.09-.1c.17.06.19-.08.02-.25s-.22-.15-.47.19m-5.51.23a5 5 0 0 0-3.07 2.63c-.34.7-.38.88-.41 1.74a4.3 4.3 0 0 0 1.44 3.7 4.74 4.74 0 0 0 7.58-1.33 4.7 4.7 0 0 0-2.2-6.4c-.8-.4-.9-.41-1.87-.44a5 5 0 0 0-1.47.1m.1.2a4.58 4.58 0 0 0-.85 8.52 4.55 4.55 0 0 0 6.54-4.76 4.7 4.7 0 0 0-3.34-3.75 5 5 0 0 0-2.35-.01m5.92.1c-.26.26-.28.4-.06.32q.16-.07.12.16-.06.45.47.03c.32-.26.27-.47-.06-.27q-.26.19-.1-.07c.24-.45 0-.57-.37-.18m-10.25 0-.08.22q-.02.09.11.1a1 1 0 0 1 .38.13c.33.2.42.04.12-.2-.14-.11-.24-.25-.22-.3.03-.13-.25-.1-.3.04m5.32 1.2c-1.62.36-2.59.97-3.06 1.94-.24.48-.26.63-.22 1.28.09 1.39.71 2.23 2.21 3 .66.34.85.39 1.44.39.97 0 1.5-.17 2-.67a2.3 2.3 0 0 0 .56-2.11c-.05-.3-.06-.55-.02-.55s.21-.12.38-.26c.25-.2.31-.34.31-.64 0-.46-.26-.7-1.02-.97-.48-.18-.57-.26-.38-.38s.1-.63-.16-.94c-.28-.34-.47-.4-.37-.13.06.16.05.16-.13 0-.16-.14-.23-.15-.32-.06q-.13.15-.12 0c0-.15-.04-.14-1.1.1m-.43 1.35c-.04.03-.07.37-.07.75 0 .49-.06.79-.2 1.05-.11.2-.2.5-.2.65 0 .37-.13.36-.27-.02-.13-.35-.37-.47-.58-.3-.24.2-.18.59.14.9.25.25.29.36.24.65-.1.59.02.8.59 1.1 1.2.6 3.02.14 3.36-.85l.1-.27-.4.14a1.7 1.7 0 0 1-1.42-.22c-.16-.12-.22-.11-.42.02-.3.2-.32.01-.04-.27a.7.7 0 0 0 .2-.4q0-.18.1-.2c.05 0 .1.13.1.28 0 .58 1.28.85 1.76.37q.24-.24.2-.47-.24-1.16-.03-1.18c.08 0 .26-.1.41-.21.2-.16.26-.28.24-.52-.04-.4-.44-.64-1.47-.89-.74-.17-2.21-.25-2.34-.11m.66 1.18q-.04.17.13.3c.15.1.17.16.07.26q-.25.24.03.33c.21.08.54-.2.54-.46 0-.33-.2-.58-.46-.58-.13 0-.27.07-.3.15m-4.47 5.43c-.3.3-.35.47-.13.39q.14-.05.2.16c.07.21.08.21.17-.05.06-.15.2-.3.3-.33q.17-.06.13-.16a.1.1 0 0 0-.15-.04q-.08.06-.09-.1.01-.34-.43.13m8.33-.03c-.11.13-.08.2.16.46l.28.3.2-.21.2-.2-.3-.25c-.35-.29-.38-.3-.54-.1m-7.58.58c-.18.49-.16.6.1.52q.2-.08.14.04c-.17.26.07.3.4.05.38-.3.45-.5.14-.41q-.2.04-.2-.09c0-.17-.12-.18-.27-.03q-.11.11-.06-.15c.08-.37-.1-.32-.25.07M15.5 14c0 .06.08.23.17.38l.17.27-.3-.28c-.37-.34-.5-.25-.22.14.4.54.86.27.52-.3-.18-.3-.34-.4-.34-.2m-.83.45c-.03.04.03.24.14.45.17.35.22.38.4.29q.17-.1.14-.2-.07-.1-.15-.05-.1.02-.25-.25c-.17-.32-.18-.33-.28-.24m-5.4.42c-.3.31-.35.47-.12.38.08-.03.24.04.34.16l.2.2.06-.25c.08-.32.03-.7-.1-.74-.06-.02-.23.1-.38.25m4.85-.12c-.12.08-.22.23-.22.33 0 .27.35.54.6.46.28-.09.25-.25-.04-.25-.33 0-.42-.17-.2-.4.22-.26.14-.34-.14-.14m-3.56.47c-.09.34-.07.67.04.67q.1 0 .1-.12 0-.15.12 0 .31.28.19-.12c-.07-.17-.05-.27.07-.4.2-.2.09-.34-.13-.16q-.15.13-.15.01c0-.2-.18-.12-.24.12m.9.25q.13.7.34.42c.09-.13.11-.13.2 0q.21.29.35-.42.11-.62-.21-.2c-.13.16-.13.16-.14 0q0-.16-.1-.18-.09.02-.1.18.02.24-.1 0c-.19-.31-.31-.2-.24.2m1.2-.2q-.2.74-.07.72.1-.01.17-.1c.03-.07.17-.09.3-.06q.42.13.07-.45c-.2-.33-.4-.38-.46-.12"/></svg>