<svg xmlns="http://www.w3.org/2000/svg" width="24" height="24"><path fill="#FFFFFF" fill-rule="evenodd" d="M3 7.65c0 1.17.04 1.85.1 1.85s.1-.65.1-1.75V6h17.6v1.75c0 1.1.04 1.75.1 1.75s.1-.68.1-1.85V5.8H3zm4.54-.8q-.64.27-.64 1.03c0 .37.06.5.34.78s.41.34.78.34c1.4 0 1.75-1.7.45-2.2-.36-.13-.55-.12-.93.04M5.5 7q0 .2.2.2c.19 0 .2.07.2.9 0 .9 0 .9.25.9s.25 0 .25-.9c0-.83.01-.9.2-.9q.2 0 .2-.2c0-.18-.07-.2-.65-.2s-.65.02-.65.2m4.02.88c.03 1.02.04 1.07.26 1.1.18.03.22-.01.22-.23v-.27l.35.27c.3.22.39.24.5.14.14-.1.13-.15-.04-.33-.2-.2-.2-.21 0-.45a.8.8 0 0 0-.06-1.06c-.2-.2-.34-.25-.75-.25h-.5zM11.2 7q0 .2.2.2c.19 0 .2.07.2.9 0 .9 0 .9.25.9s.25 0 .25-.9c0-.83.01-.9.2-.9q.2 0 .2-.2c0-.18-.07-.2-.65-.2s-.65.02-.65.2m1.6.9V9h.5V6.8h-.5zm.9 0v1.11l.63-.03c.54-.03.62-.05.62-.23 0-.16-.08-.2-.37-.23l-.38-.03v-.85c0-.83 0-.84-.25-.84h-.25zm1.6 0V9h.6c.57 0 .6-.01.6-.25 0-.22-.04-.25-.4-.25h-.4v-.85c0-.78-.02-.85-.2-.85s-.2.07-.2 1.1m2.11-.89-.4 1.02c-.17.43-.31.82-.31.87 0 .17.39.1.49-.07s.1-.17.24.01.14.19.25 0c.1-.18.11-.18.24 0 .08.1.23.16.35.14.21-.03.2-.06-.2-1.05a8 8 0 0 0-.5-1.09q-.06-.04-.16.17m-9.74.3c-.46.27-.39.98.12 1.19.72.3 1.33-.56.78-1.08a.75.75 0 0 0-.9-.1M10 7.6c0 .43.02.45.3.3a.33.33 0 0 0 0-.6c-.28-.15-.3-.13-.3.3M8.55 9.7c1.15.05 2.4.13 2.78.2.5.07.85.07 1.35 0a34 34 0 0 1 2.77-.2c1.6-.05.8-.07-3.45-.07s-5.05.02-3.45.08M3 10.4v.7h18v-.7c0-.4-.04-.7-.1-.7s-.1.27-.1.6v.6H3.2v-.6c0-.33-.04-.6-.1-.6s-.1.3-.1.7m2.73 1.5q.01.29.13.3.12-.01.08-.17-.08-.22.05-.03c.13.18.65.25.55.07q-.08-.12.07 0c.07.07.28.13.46.13.3 0 .33-.03.33-.3 0-.17-.05-.3-.1-.3q-.1.02-.05.2t-.04.2q-.1 0-.11-.1c0-.15-.77-.12-.83.03q-.05.09-.06-.1 0-.24-.24-.23c-.2 0-.24.05-.24.3m1.9-.15c-.11.3.04.41.61.43.56.01.56.01.56-.28 0-.17-.05-.3-.1-.3q-.1.02-.05.2t-.04.2q-.1 0-.11-.1-.02-.09-.2-.1-.18 0-.2-.1c0-.16-.4-.12-.46.05m1.26.15c0 .25.04.3.25.3q.25 0 .19-.14-.04-.14.04-.2.1-.04.08.12c0 .13.07.17.31.19q.34.01.33-.13.01-.13.16-.14.15 0 .1.15-.04.13.04.15.1-.02.1-.2c0-.17-.07-.2-.4-.2-.31 0-.4.04-.4.18q-.01.15-.12-.11c-.12-.33-.3-.3-.4.04q-.06.3-.08.04l-.01-.27q0-.08-.09-.08c-.05 0-.1.13-.1.3m2.01-.03c0 .3.02.33.27.33a1 1 0 0 0 .35-.06c.11-.11-.05-.34-.25-.34q-.16 0-.13.1.05.09-.04.1-.1-.02-.14-.22-.05-.26-.06.1m.84.02c0 .27.03.3.25.28.2-.02.25-.09.25-.28s-.06-.26-.25-.28c-.22-.02-.25.01-.25.28m2-.2c-.03.06-.24.1-.46.1-.32 0-.39.03-.39.2q0 .18.1.2.1-.02.1-.15.02-.13.15-.15.13 0 .09.15-.05.13.05.15.1-.02.11-.15t.16-.15q.16 0 .1.15-.03.13.04.15c.06 0 .1-.13.08-.3-.02-.33-.04-.35-.13-.2m1.61.13c-.1.35-.08.37.24.37.24 0 .3-.04.28-.17-.03-.17-.26-.42-.4-.43q-.05.02-.12.23m.64-.13q0 .1.1.1.09.02.1.2t.14.2q.14 0 .08-.26-.05-.28.07-.2.1.08.11.25c0 .16.1.18.85.17.7 0 .85-.03.85-.16 0-.2-1.09-.28-1.21-.08q-.1.15-.09 0-.02-.1-.2-.12-.18 0-.2-.1c0-.05-.14-.1-.3-.1s-.3.05-.3.1m-2 .23c0 .23.03.25.52.23.42 0 .53-.05.56-.18.03-.14-.03-.18-.27-.18q-.3 0-.34.18-.05.23-.06-.02c0-.16-.03-.17-.18-.05q-.16.12-.1.02t-.03-.18q-.1-.04-.1.18"/></svg>