<svg xmlns="http://www.w3.org/2000/svg" width="24" height="24"><path fill="#FFF" fill-rule="evenodd" d="M10.48 7.88c-.4.45-.76 1.79-.58 2.12.12.22.5.27.68.08.1-.1.15-.1.24 0 .15.15.6.15.76 0 .1-.1.15-.1.24 0 .15.15.5.15.66 0 .1-.1.15-.1.24 0 .18.18.73.14 1-.07.2-.17.23-.28.26-1.19l.04-.99h-.3l-.31-.02-.03.91c-.02.65-.07.93-.16.96q-.13.02-.19-.17c-.07-.27-.2-.27-.29 0-.06.22-.07.22-.2.04a1 1 0 0 1-.14-.37c0-.3-.34-.2-.5.14-.2.38-.63.73-.8.63q-.12-.08.2-.26c.35-.22.4-.55.08-.65-.17-.05-.28 0-.47.23-.14.16-.3.38-.37.48q-.1.18-.27.12c-.15-.06-.12-.16.23-.82.4-.77.52-1.35.27-1.35q-.13.02-.3.17m-7.4 0c-.04.03-.07.17-.07.3 0 .2.04.23.28.2l.27-.02-.01.93-.02.92h.66l-.05-.96-.06-.96.31.07c.33.07.36.04.26-.32-.06-.21-.12-.23-.78-.23-.4 0-.76.03-.8.07M5 7.99c-.2.16-.24.3-.27.94-.04.7-.02.78.21 1.01.35.35.85.35 1.18 0 .2-.22.24-.35.24-.94s-.04-.72-.24-.94A.8.8 0 0 0 5 7.99m1.5.8c.03 1.17.17 1.41.8 1.41.3 0 .44-.06.6-.26.18-.23.21-.4.21-1.2V7.8h-.6l-.02.92c-.02.75-.06.93-.18.93s-.16-.18-.18-.93L7.1 7.8h-.64zm1.93-.73c-.3.39-.27.53.3 1.04.27.26.46.5.42.53-.11.12-.4.08-.53-.08q-.12-.13-.2-.15c-.07 0-.33.5-.28.55.37.3 1.1.33 1.38.05q.52-.52-.25-1.17a2 2 0 0 1-.45-.45c0-.13.45-.1.58.04q.13.15.22-.02.38-.6-.67-.6a.6.6 0 0 0-.52.26m6 0c-.4.51-.4 1.47 0 1.9a.8.8 0 0 0 1.14 0c.22-.22.25-.34.25-.96s-.03-.74-.25-.95c-.34-.35-.86-.34-1.14.01m1.57.77c.03.88.06 1.04.24 1.2.25.21.76.22 1.06.01.2-.14.22-.24.22-1.04 0-.88.13-1.26.26-.75.04.14.04.64.02 1.1l-.04.85h.32c.32 0 .32 0 .27-.42-.04-.4-.04-.42.12-.23.09.11.18.3.22.43.04.17.12.22.4.22.18 0 .33-.03.33-.08a2 2 0 0 0-.25-.45c-.21-.3-.23-.38-.11-.43.22-.09.37-.55.28-.89-.12-.44-.44-.55-1.47-.54l-.9.01.03.9c.04.75.02.89-.13.94-.28.11-.36-.15-.33-1.03l.03-.81h-.6zm3.74-.87q-.22.14-.22.5c0 .3.06.39.45.66.25.18.45.38.45.45 0 .2-.47.16-.59-.04-.08-.14-.12-.15-.25-.04q-.33.28.06.55a.9.9 0 0 0 1.13-.09q.6-.6-.3-1.15c-.2-.12-.35-.28-.35-.36 0-.16.36-.2.45-.04q.15.25.33-.15c.1-.2.09-.26-.08-.35a1.3 1.3 0 0 0-1.08.06M5.3 8.49c-.22.41-.06 1.21.24 1.21q.27.01.26-.7c0-.21-.03-.45-.06-.54-.08-.22-.31-.2-.44.03m9.46-.03c-.03.09-.06.33-.06.54q0 .71.26.7c.18 0 .34-.32.34-.7 0-.56-.38-.95-.54-.54m3.54.14c0 .27.03.3.23.28q.23-.02.22-.28.01-.26-.22-.28c-.2-.03-.23.01-.23.28"/></svg>