<svg xmlns="http://www.w3.org/2000/svg" width="24" height="24"><path fill="#FFF" fill-rule="evenodd" d="M10.65 2.19a6.5 6.5 0 0 0-4.19 4.18c-1.37 4.03.6 8.44 4.23 9.45 2.04.56 4.3-.27 5.71-2.1a8 8 0 0 0 1.33-2.69 8 8 0 0 0 .23-2.56 7.3 7.3 0 0 0-1.55-4.17 5.5 5.5 0 0 0-5.76-2.11m3.6 1.08c.28.14.84.6 1.24 1.01s.65.62.53.45c-.47-.66-1.85-1.75-2.2-1.73-.03 0 .16.13.43.27M6.87 7.6c-.05.2-.05.2.13.04.1-.1.3-.15.47-.13l.28.03.03.87c.02.5-.02.97-.08 1.08-.1.18-.08.2.17.2h.28l-.03-1.1-.03-1.1h.27c.15 0 .36.07.46.17.17.15.18.15.18-.05s-.04-.22-1.04-.22c-.97 0-1.04.01-1.1.2m6.86.13c.08.06.3.34.48.6.26.4.31.56.28.93-.03.43-.02.44.26.44q.33 0 .18-.12c-.3-.3-.03-1.04.61-1.75l.2-.23h-.27q-.27 0-.2.1c.05.1-.4.9-.5.9s-.56-.82-.5-.9q.03-.1-.32-.1c-.32 0-.35.02-.22.13m-4.74 1c.02.34.09.7.13.8.14.25.58.33.88.16.23-.13.26-.22.3-.74 0-.33.07-.65.13-.72q.13-.14-.08-.13c-.17 0-.19.07-.16.6.04.7-.07.9-.49.9q-.56.02-.47-.96c.04-.45.02-.54-.12-.54s-.16.1-.12.63m2.07.17v.8h.63c.52 0 .62-.03.62-.17q0-.19-.12-.05c-.07.07-.26.12-.44.12-.24 0-.33-.05-.38-.22-.09-.35-.07-.87.04-1.09.1-.16.07-.19-.12-.19-.22 0-.23.03-.23.8m1.63-.68c.16.16.16 1.2 0 1.36-.1.1.03.12.55.12.37 0 .67-.03.67-.07s-.2-.08-.42-.08h-.43v-.73c0-.7 0-.72-.24-.72q-.28 0-.13.12m3.59-.06c-.16.16-.06.54.18.71.7.5.72.51.5.68-.25.2-.31.19-.55-.05l-.2-.2v.2c0 .11.03.2.08.18a1 1 0 0 1 .3.06c.46.16.9-.38.57-.74-.09-.1-.3-.24-.46-.3-.36-.15-.4-.5-.06-.5.13 0 .28.05.35.12q.14.15.12-.03 0-.15-.38-.17c-.21-.02-.41 0-.45.04"/></svg>