<svg xmlns="http://www.w3.org/2000/svg" width="24" height="24"><path fill="#FFF" fill-rule="evenodd" d="M16.9 3.02c-1.06.53-2.05.55-4.75.06-1.64-.3-4.51-.32-5.7-.04C4.25 3.54 3 4.77 3 6.4c0 .79.08.87.4.38a5 5 0 0 1 1.76-1.55c.9-.41 2.94-.67 3.2-.4.03.03-.3 1.71-.73 3.74l-.79 3.68.25.03c.13.02.44-.04.68-.13.75-.29.85-.54 1.53-3.8l.65-3.12c.07-.31.3-.3 2.37.13 1.87.4 3.06.47 3.71.25a2.5 2.5 0 0 0 1.24-1.04 3.5 3.5 0 0 0 .24-1.62c-.06-.2-.06-.2-.61.07m-9.46.62q-.06.17-.02.21c.09.1 3.93.06 3.96-.03.06-.18-.34-.24-2.1-.3-1.6-.04-1.78-.03-1.84.12m7.89 2.83c-.29.04-.34.1-.43.46-.17.64-.18.67-.35.67q-.14.02-.15.2.01.18.13.2c.11 0 .09.23-.1 1.13-.41 1.94-.46 2.08-.76 2.3l-.27.21-.22-.22-.22-.21.33-1.58.38-1.8c.05-.22.03-.23-.6-.23-.54 0-.67.03-.71.18-.03.1-.2.83-.36 1.64-.36 1.74-.42 1.93-.7 2.08-.3.16-.5-.04-.5-.49 0-.2.16-1.05.34-1.88l.33-1.53h-1.34L9.8 9.13c-.4 1.93-.4 2.49-.05 2.82.49.45 1.36.27 1.86-.37.15-.2.18-.2.18-.05 0 .1.11.29.25.42.4.4 1.22.3 1.76-.2l.25-.25.14.24c.3.55 1.25.6 1.89.08l.36-.29.31.34c.24.25.4.33.67.33q.7 0 1.2-.48c.23-.21.3-.24.35-.13.27.76 1.44.82 1.83.1.1-.18.08-.2-.1-.14q-.2.07-.36-.18c-.15-.23-.14-.34.15-1.68l.35-1.56c.03-.1-.14-.13-.64-.13h-.68l-.33 1.58c-.26 1.2-.4 1.62-.57 1.8-.27.27-.45.28-.69.01-.18-.2-.18-.23.04-1.32.46-2.24.4-2.07.73-2.07q.31.01.29-.2.01-.21-.25-.2c-.27 0-.27.01-.04-.89l.08-.34-.52.07-.69.06c-.12 0-.2.15-.28.54-.08.4-.16.55-.3.59-.24.06-.27.37-.04.37q.16 0 .1.18l-.3 1.42c-.3 1.43-.47 1.86-.75 1.95-.33.1-.61-.11-.61-.48 0-.28.41-2.41.56-2.89.03-.1.17-.18.32-.2.38-.04.43-.38.06-.38-.24 0-.26-.03-.2-.3l.12-.6c.06-.29.05-.3-.27-.28-.19 0-.49.03-.66.05m4.53.15c-.2.3-.2.5.02.78.36.44 1.12.17 1.12-.4 0-.56-.82-.83-1.14-.38M8.3 14.5c0 .56.03.7.15.7q.15-.01.15-.25c0-.21.05-.25.3-.25.39 0 .67-.38.5-.7-.09-.16-.2-.2-.6-.2h-.5zm2.5 0c0 .63.02.7.2.7s.2-.07.2-.7-.02-.7-.2-.7-.2.07-.2.7m1.8-.55q0 .15.31.15h.31l-.36.44c-.2.24-.36.5-.36.55 0 .07.24.11.6.11.47 0 .6-.03.6-.15q.01-.15-.36-.15h-.36l.36-.42c.5-.58.47-.68-.19-.68-.42 0-.55.03-.55.15m2.5 0q0 .15.31.15h.31l-.36.44c-.2.24-.36.5-.36.55 0 .07.24.11.6.11.47 0 .6-.03.6-.15q.01-.15-.36-.15h-.35l.35-.44c.2-.23.36-.48.36-.55q-.01-.1-.55-.11c-.42 0-.55.03-.55.15m2.7.3c-.3.71-.35.95-.17.95q.14-.02.2-.15c.04-.08.18-.15.32-.15s.28.07.31.15c.06.15.34.21.34.07 0-.04-.1-.35-.23-.67-.3-.77-.5-.82-.77-.2m1.17-.38c-.12.11-.07.33.08.4.2.07.45-.14.38-.33-.05-.14-.34-.2-.46-.07"/></svg>