<?xml version="1.0" encoding="UTF-8" standalone="no"?>
<svg viewBox="0 0 24 24" width="24pt" height="24pt" version="1.1" id="svg1" xml:space="preserve" xmlns="http://www.w3.org/2000/svg" xmlns:svg="http://www.w3.org/2000/svg"><defs id="defs1"/><path d="m 8.2569387,4.270111 c -0.299205,0.299204 -0.303632,0.384038 -0.303632,5.858267 0,6.267013 -0.114255,5.728016 1.213956,5.728016 1.2647993,0 1.2139563,0.08955 1.2139563,-2.138419 v -1.965181 l 1.392479,-0.0697 c 1.565147,-0.07841 2.422771,-0.390179 3.192848,-1.161113 C 16.202782,9.28446 16.411725,7.033214 15.430563,5.52548 15.171205,5.127017 14.816301,4.85709 14.128488,4.53532 13.219734,4.110007 13.093483,4.090441 10.871943,4.0296 8.6616857,3.96919 8.5474307,3.97961 8.2569387,4.270107 m 2.1242803,3.604021 v 2.015168 l 1.071138,-0.05413 c 0.979448,-0.04941 1.110127,-0.09297 1.525729,-0.508576 0.384038,-0.384181 0.463445,-0.582842 0.512432,-1.282652 0.101544,-1.45132 -0.664963,-2.158557 -2.359503,-2.176837 l -0.749796,-0.008 v 2.015024" stroke="none" fill="#FFFFFF" fill-rule="evenodd" id="path1-5" style="stroke-width:0.142818"/></svg>
