<svg xmlns="http://www.w3.org/2000/svg" width="24" height="24"><path fill="#FFFFFF" fill-rule="evenodd" d="M11.15 2.1c-.38.04-.9.13-1.15.2a8 8 0 0 0-2.43 1.3A8 8 0 0 0 6.5 5.07c0 .04-.11.3-.25.57-.45.89-.69 2.55-.61 4.26.06 1.4.25 2.2.78 3.27a4.7 4.7 0 0 0 3.13 2.54c3.33.7 5.98.01 7.43-1.95.2-.28.43-.62.5-.76.72-1.55.86-2.33.8-4.64-.07-1.98-.18-2.52-.8-3.68a5.7 5.7 0 0 0-2.5-2.18 3 3 0 0 0-.54-.15c-.22-.04-.5-.1-.64-.15-.36-.12-1.83-.17-2.65-.1m-.44 2.58c-.77.3-1.81 1.54-1.81 2.17 0 .09-.05.26-.11.37a8 8 0 0 0-.1 1.82c0 1.38.02 1.71.2 2.28.46 1.39 1.13 2.02 2.32 2.16 2.33.29 3.53-.59 4.01-2.93.14-.67.14-2.45 0-3.22C15 6 14.3 5 13.35 4.67a5 5 0 0 0-2.63.01"/></svg>