<?xml version="1.0" encoding="UTF-8" standalone="no"?>
<svg viewBox="0 0 24 24" width="24pt" height="24pt" version="1.1" id="svg1" xml:space="preserve" xmlns="http://www.w3.org/2000/svg" xmlns:svg="http://www.w3.org/2000/svg"><defs id="defs1"/><path d="m 8.7604218,4.2149828 c -0.2321594,0.1366498 -0.2509382,0.5674103 -0.2509382,5.775911 0,4.1862452 0.04402,5.6722392 0.1720766,5.8002902 0.1236076,0.123608 1.0745954,0.172077 3.3733458,0.172077 h 3.201271 l 0.153158,-0.394334 c 0.0952,-0.244916 0.107545,-0.584473 0.03241,-0.896212 l -0.121032,-0.501879 -2.222608,-0.0717 -2.222607,-0.0717 -0.04058,-1.613183 -0.04058,-1.613184 h 1.786976 c 1.433224,0 1.83143,-0.04461 2.01225,-0.225275 0.234161,-0.234307 0.303421,-1.1504527 0.10984,-1.4551634 C 14.627844,9.0016183 14.000055,8.9330827 12.733886,8.9055467 L 10.875499,8.8652496 10.83478,7.4886671 10.793921,6.1120824 12.985698,6.010555 c 1.20537,-0.055774 2.243685,-0.1529934 2.307353,-0.2160967 0.06367,-0.063103 0.09593,-0.4625885 0.0717,-0.8878956 l -0.04402,-0.7733239 -3.154669,-0.032992 c -1.966934,-0.020605 -3.2491643,0.022712 -3.4056091,0.11471" stroke="none" fill="#FFFFFF" fill-rule="evenodd" id="path1-5" style="stroke-width:0.143394"/></svg>
