<svg xmlns="http://www.w3.org/2000/svg" width="24" height="24"><path fill="#FFFFFF" fill-rule="evenodd" d="M11.35 2.22a5.7 5.7 0 0 0-3.64 3.12A6 6 0 0 0 7.2 6.7c-.3.57-.28 3.99.04 5.05.61 2.05 1.97 3.5 3.69 3.95a8 8 0 0 0 3.78.07 5 5 0 0 0 1.86-.82c.37-.32.38-.33.42-1.22.04-.77.02-.92-.15-1.13l-.2-.24-1.09.54-1.09.54h-1c-1.16-.01-1.67-.2-2.27-.83-.95-1-1.35-2.84-1.04-4.76.32-1.93 1.11-2.98 2.51-3.3.68-.17.78-.17 1.44-.02s1.07.33 1.93.85c.7.42.9.16.92-1.14 0-1.19-.34-1.5-2.35-2.14a9 9 0 0 0-3.24.1"/></svg>