<svg xmlns="http://www.w3.org/2000/svg" width="24" height="24"><path fill="#FFFFFF" fill-rule="evenodd" d="M10.51 2.1c-.4.05-.86.14-1 .2-.93.43-1.52.78-1.9 1.14A5 5 0 0 0 6.6 4.77c0 .03-.09.24-.2.47-.7 1.52-.67 4.75.07 6.36a4.3 4.3 0 0 0 2.73 2.3c1 .31 2.97.34 3.81.06l.57-.18.77.65c1.07.9 2.32 1.52 3.05 1.52h.55v-1.9l-.82-.4c-.88-.44-1.7-1.04-1.55-1.14.19-.12.79-1.17 1-1.76.41-1.13.5-3.31.21-4.87a5 5 0 0 0-2.13-3.11 6 6 0 0 0-2.35-.68c-.47-.05-.9-.08-.96-.07zm-.2 2.25c-.88.39-1.34.98-1.62 2.13A7.5 7.5 0 0 0 9 10.82c.24.47.83.96 1.34 1.1s1.59.14 2.11 0c.55-.16 1.2-.79 1.52-1.5.25-.55.26-.65.27-2.32 0-1.62-.02-1.8-.24-2.33a2.7 2.7 0 0 0-1.5-1.47 5 5 0 0 0-2.2.05"/></svg>