<svg xmlns="http://www.w3.org/2000/svg" width="24" height="24"><path fill="#FFFFFF" fill-rule="evenodd" d="M6.45 2.07c-.52.06-.65.18-.65.6A63 63 0 0 0 7.74 8.8c.1.3.21.64.26.75s.16.45.25.75.2.62.25.71c.05.1.12.33.15.53.04.2.11.39.16.42s.09.14.09.25.04.27.1.37c.05.1.3.8.55 1.57s.55 1.49.66 1.6c.18.18.33.2 1.73.2 1.75 0 1.87-.04 2.08-.8.06-.22.14-.44.18-.5s.15-.4.25-.75c.1-.36.22-.7.26-.75s.1-.27.14-.48.11-.4.16-.43.09-.16.09-.29.04-.26.09-.3c.05-.02.12-.22.16-.42.04-.21.1-.43.14-.48s.16-.37.25-.7l.26-.8.26-.75a72 72 0 0 0 1-2.95c.35-1.1.69-2.08.74-2.17.05-.1.12-.34.16-.55.05-.31.02-.42-.16-.58-.2-.17-.36-.2-1.27-.2-.89.02-1.07.05-1.22.21-.1.1-.33.66-.5 1.24l-.51 1.6a265 265 0 0 0-1.66 5.35c-.1.33-.2.65-.25.7-.03.05-.1.3-.14.52-.04.24-.1.45-.16.49s-.09.16-.09.3c0 .37-.14.28-.28-.19a32 32 0 0 0-.83-2.6 1 1 0 0 1-.09-.36q0-.18-.1-.26c-.05-.03-.12-.26-.16-.5-.03-.25-.1-.48-.15-.5q-.08-.08-.09-.26c0-.1-.04-.27-.1-.37a6 6 0 0 1-.26-.77c-.1-.33-.2-.65-.24-.7s-.1-.27-.14-.49-.11-.46-.16-.55-.25-.68-.45-1.33a6 6 0 0 0-.53-1.31 5 5 0 0 0-2.17-.2"/></svg>