<?xml version="1.0" encoding="UTF-8" standalone="no"?>
<svg viewBox="0 0 24 24" width="24pt" height="24pt" version="1.1" id="svg1" xml:space="preserve" xmlns="http://www.w3.org/2000/svg" xmlns:svg="http://www.w3.org/2000/svg"><defs id="defs1"/><path d="m 7.5088898,4.2674871 c -0.127864,0.1278633 -0.171821,1.6285743 -0.171821,5.8678209 v 5.696001 l 0.328178,0.08233 c 0.180411,0.04525 0.712053,0.06257 1.181267,0.03852 l 0.85309,-0.04381 0.03909,-2.541515 0.03909,-2.541515 h 2.2127652 2.212765 l 0.03909,2.541515 0.03909,2.541515 0.979378,0.04267 c 0.598796,0.02606 1.057843,-0.02248 1.181268,-0.125 C 16.716337,15.5985 16.745117,4.5404037 16.47221,4.2674951 16.294662,4.089947 14.836477,4.0290939 14.436421,4.1825871 14.24298,4.2567561 14.209904,4.602116 14.209904,6.545122 V 8.8207444 H 11.990553 9.7712018 V 6.545114 c 0,-1.943006 -0.03308,-2.2883657 -0.226517,-2.3625349 -0.400056,-0.1534932 -1.858241,-0.09264 -2.035789,0.084908" stroke="none" fill="#FFFFFF" fill-rule="evenodd" id="path1-7" style="stroke-width:0.143184"/></svg>
