<?xml version="1.0" encoding="UTF-8" standalone="no"?>
<svg
   viewBox="0 0 24 24"
   width="24pt"
   height="24pt"
   version="1.1"
   sodipodi:docname="urban_baristas.svg"
   xml:space="preserve"
   inkscape:version="1.4 (86a8ad7, 2024-10-11)"
   id="svg43"
   xmlns:inkscape="http://www.inkscape.org/namespaces/inkscape"
   xmlns:sodipodi="http://sodipodi.sourceforge.net/DTD/sodipodi-0.dtd"
   xmlns="http://www.w3.org/2000/svg"
   xmlns:svg="http://www.w3.org/2000/svg"><defs
     id="defs43" /><sodipodi:namedview
     pagecolor="#ffffff"
     bordercolor="#000000"
     borderopacity="0.25"
     inkscape:showpageshadow="2"
     inkscape:pageopacity="0.0"
     inkscape:pagecheckerboard="0"
     inkscape:deskcolor="#d1d1d1"
     inkscape:document-units="pt"
     inkscape:zoom="16.000001"
     inkscape:cx="8.9374996"
     inkscape:cy="14.843749"
     inkscape:window-width="1920"
     inkscape:window-height="974"
     inkscape:window-x="-11"
     inkscape:window-y="1609"
     inkscape:window-maximized="1"
     inkscape:current-layer="svg43"
     id="namedview1" /><g
     id="g22"
     transform="matrix(0.00443206,0,0,0.00443206,5.0174797,4.1368587)"
     style="fill:#ffffff"><path
       d="m 0,0 c 49.83,0 99.66,0 151,0 3.23955,7.1270057 6.35947,14.196288 9.22925,21.4646 0.39122,0.984315 0.78244,1.96863 1.18551,2.982772 0.84359,2.123504 1.68593,4.247501 2.52714,6.371947 1.3512,3.412279 2.70582,6.823187 4.06123,10.233797 2.89781,7.293595 5.79129,14.588911 8.68437,21.884384 3.77183,9.510273 7.5458,19.019686 11.32422,28.527344 0.46818,1.178267 0.93637,2.356534 1.41874,3.570507 6.12233,15.399779 12.31838,30.766429 18.62032,46.093559 6.59577,16.04187 13.07352,32.12786 19.48047,48.24609 0.44855,1.12834 0.8971,2.25668 1.35925,3.41921 3.66691,9.2267 7.32833,18.45559 10.98957,27.68455 3.19369,8.04975 6.3895,16.09866 9.58868,24.14624 0.67314,1.69344 0.67314,1.69344 1.35988,3.42108 C 256.80231,263.06554 262.85435,278.05013 269,293 c 6.61228,16.08499 13.10722,32.21389 19.53125,48.375 0.67272,1.69223 0.67272,1.69223 1.35902,3.41864 3.66699,9.2269 7.32848,18.45597 10.9898,27.68512 2.7543,6.94226 5.51061,13.88372 8.26921,20.82428 1.24085,3.12401 2.47907,6.24906 3.71705,9.37421 C 321.41386,424.18806 330.2341,445.57224 339,467 c 13.86,34.65 27.72,69.3 42,105 0.33,-188.76 0.66,-377.52 1,-572 42.24,0 84.48,0 128,0 0,294.69 0,589.38 0,893 -45.54,0 -91.08,0 -138,0 -2.98982,-6.57759 -5.9259,-13.09123 -8.60938,-19.78516 -0.32377,-0.80183 -0.64755,-1.60366 -0.98114,-2.42979 -1.05536,-2.61497 -2.1074,-5.23126 -3.15948,-7.84755 -0.7517,-1.86403 -1.50366,-3.72797 -2.25586,-5.5918 -1.5596,-3.86499 -3.11808,-7.73043 -4.67578,-11.59619 -3.24714,-8.05602 -6.5079,-16.10652 -9.76849,-24.1571 -1.76464,-4.35738 -3.52831,-8.71514 -5.29206,-13.07288 -0.35027,-0.86537 -0.70054,-1.73075 -1.06143,-2.62234 -2.14528,-5.30009 -4.29032,-10.60027 -6.43521,-15.90052 C 322.67897,772.49581 315.59475,754.99578 308.5,737.5 c -7.45593,-18.38644 -14.90004,-36.77765 -22.34277,-55.16943 -2.13812,-5.28346 -4.27653,-10.5668 -6.41504,-15.8501 -0.35022,-0.86524 -0.70045,-1.73049 -1.06128,-2.62195 -1.0603,-2.61951 -2.1206,-5.23901 -3.18091,-7.85852 -3.91322,-9.66767 -7.82642,-19.33534 -11.73883,-29.00333 C 256.67897,609.49581 249.59475,591.99578 242.5,574.5 c -5.29625,-13.06065 -10.58763,-26.12325 -15.875,-39.1875 -0.53026,-1.31018 -0.53026,-1.31018 -1.07123,-2.64682 -2.87919,-7.11411 -5.75811,-14.22833 -8.63702,-21.34256 -2.51379,-6.21192 -5.02769,-12.42381 -7.54175,-18.63562 -0.35367,-0.87385 -0.70733,-1.74771 -1.07172,-2.64804 C 203.373,477.85796 198.43841,465.67821 193.5,453.5 c -7.45593,-18.38644 -14.90004,-36.77765 -22.34277,-55.16943 -3.19968,-7.90664 -6.40002,-15.81301 -9.60031,-23.71939 -1.05099,-2.59654 -2.10194,-5.19309 -3.15287,-7.78965 -3.30772,-8.1724 -6.61575,-16.34469 -9.92471,-24.5166 -1.55621,-3.8433 -3.11226,-7.68666 -4.6683,-11.53003 -0.73902,-1.82522 -1.47812,-3.65042 -2.21729,-5.47558 -1.02753,-2.5372 -2.05481,-5.0745 -3.08203,-7.61182 -0.44579,-1.10046 -0.44579,-1.10046 -0.90059,-2.22314 C 135.39213,309.98218 133.19655,304.49137 131,299 130.67,495.35 130.34,691.7 130,894 87.1,894 44.2,894 0,894 0,598.98 0,303.96 0,0 Z"
       fill="#030303"
       transform="translate(2668,866)"
       id="path1-4"
       style="fill:#ffffff" /><path
       d="m 0,0 c 348.44262,0 348.44262,0 405,45 0.9307,0.738633 1.86141,1.477266 2.82031,2.238281 5.43974,4.386639 10.69262,8.943436 15.85156,13.65625 2.05243,1.856136 4.14659,3.639179 6.26563,5.417969 43.39401,38.07868 61.0473,99.79593 64.70312,155.48047 1.37077,24.96704 0.91736,48.71215 -4.64062,73.20703 -0.26764,1.20012 -0.53528,2.40023 -0.81104,3.63672 -7.57621,33.4117 -18.97902,68.08249 -43.25146,93.32031 -2.01106,2.05294 -2.01106,2.05294 -3.86719,4.53125 C 434.2569,405.96757 422.62774,413.02514 412,419 c 0.56284,0.34144 1.12567,0.68288 1.70557,1.03467 C 429.24541,429.48778 444.14913,439.15804 458,451 c 0.77215,0.66 1.5443,1.32 2.33984,2 51.11592,44.90716 74.94989,105.94066 79.3086,172.97656 1.52585,27.55141 -0.006,53.48875 -7.64844,80.02344 -0.23139,0.82258 -0.46277,1.64517 -0.70117,2.49268 C 522.75268,738.27103 506.05591,766.01418 488,791 c -0.75797,1.05316 -1.51594,2.10633 -2.29688,3.19141 C 471.95392,812.88935 456.20903,830.58652 438,845 c -1.46566,1.19109 -1.46566,1.19109 -2.96094,2.40625 C 322.77289,936.76673 94.359404,891 0,891 0,596.97 0,302.94 0,0 Z m 128,127 c 0,74.58 0,149.16 0,226 31.49437,0.0928 31.49437,0.0928 63.625,0.1875 6.58663,0.0273 13.17325,0.0546 19.95947,0.0828 5.99516,0.01 5.99516,0.01 11.99033,0.0161 2.63421,0.005 5.26797,0.0138 7.9021,0.0304 30.26812,0.26057 30.26812,0.26057 59.5856,-6.56673 0.86013,-0.30229 1.72025,-0.60457 2.60645,-0.91602 C 304.56602,341.88108 314.17036,336.5569 323,329 c 0.78762,-0.64324 1.57523,-1.28648 2.38672,-1.94922 C 347.38682,308.36624 364.39293,276.85632 367,248 c 1.89711,-28.25236 -7.15622,-58.28516 -25.5625,-80 -1.78411,-2.02906 -3.60358,-4.01486 -5.4375,-6 -0.96486,-1.08668 -0.96486,-1.08668 -1.94922,-2.19531 -19.7108,-21.12177 -48.10087,-31.61819 -76.4769,-32.96762 -8.54978,-0.23069 -17.09968,-0.19335 -25.65145,-0.14091 -3.30856,0.0174 -6.61712,0.0179 -9.92573,0.02 -9.6031,0.0156 -19.20616,0.0575 -28.8092,0.0963 -32.26781,0.0928 -32.26781,0.0928 -65.1875,0.1875 z m 0,362 c 0,87.12 0,174.24 0,264 26.83312,0.0619 53.66625,0.12375 81.3125,0.1875 12.66178,0.041 12.66178,0.041 25.57935,0.0828 7.63313,0.01 7.63313,0.01 15.26628,0.0161 3.37339,0.003 6.74664,0.0139 10.11999,0.0304 34.5617,0.16121 67.75087,-1.53854 95.72188,-24.3168 0.81598,-0.65227 1.63195,-1.30453 2.47266,-1.97656 26.33534,-22.28697 42.16819,-58.25638 45.32666,-92.15381 2.59395,-37.09166 -4.65015,-69.5854 -28.9126,-98.37744 C 372.64302,533.94085 370.33931,531.46398 368,529 c -0.4689,-0.50145 -0.93779,-1.00289 -1.4209,-1.51953 -18.89631,-20.10715 -44.77385,-37.24412 -73.18431,-38.66016 -4.34787,-0.0912 -8.69522,-0.0681 -13.04372,-0.0474 -1.69329,6.1e-4 -3.38659,3.4e-4 -5.07989,-7.3e-4 -4.50991,-4.5e-4 -9.01971,0.0111 -13.52959,0.0252 -4.24126,0.0114 -8.48249,0.0119 -12.72377,0.0134 -12.38095,0.0105 -24.76189,0.0384 -37.14282,0.0642 -27.67875,0.0412 -55.3575,0.0825 -83.875,0.125 z"
       fill="#030303"
       transform="translate(1332,868)"
       id="path2-5"
       style="fill:#ffffff" /><path
       d="m 0,0 c 32.679886,-0.06867174 65.35975,-0.12164903 98.039692,-0.15319599 3.872028,-0.003751 7.744048,-0.007634 11.616068,-0.0115989 1.15611,-0.00118 1.15611,-0.00118 2.33558,-0.002385 12.42405,-0.0129978 24.84806,-0.03662 37.27209,-0.0642788 12.78057,-0.0282119 25.56111,-0.0447509 38.3417,-0.0508071 7.86467,-0.004084 15.72922,-0.0169064 23.59386,-0.0414839 6.0653,-0.0179706 12.1305,-0.019577 18.19583,-0.0155736 2.46275,-8.1508e-4 4.92551,-0.006642 7.38823,-0.0182934 20.95708,-0.0941545 41.99197,1.14014113 62.46695,5.92011639 1.0866,0.2483057 2.1732,0.4966113 3.29272,0.7524414 C 322.60949,11.111812 342.49578,17.860133 361,27 c 0.83918,0.403477 1.67836,0.806953 2.54297,1.222656 C 385.50815,38.840745 406.29968,52.314281 425,68 c 1.08695,0.896183 2.1742,1.792008 3.26172,2.6875 7.29106,6.047535 14.33074,12.356821 21.20801,18.870117 1.43285,1.350557 2.88331,2.682358 4.33496,4.012695 C 462.13961,101.47037 468.52458,110.56226 475,120 c 0.46326,0.67144 0.92651,1.34288 1.40381,2.03467 6.24958,9.0926 12.09284,18.40369 17.59619,27.96533 0.45633,0.78697 0.91266,1.57395 1.38281,2.38477 23.66211,41.09235 37.53521,86.1422 37.85547,133.67382 0.01,1.21065 0.0196,2.4213 0.0297,3.66863 C 533.44314,317.01897 533.16547,343.96684 529,371 c -0.11362,0.74192 -0.22724,1.48383 -0.3443,2.24823 C 525.05322,396.55208 521.32416,420.20928 512,442 c -0.5605,1.31992 -0.5605,1.31992 -1.13232,2.6665 C 493.41374,485.30521 466.87818,522.61302 431,549 c -0.57073,0.4262 -1.14146,0.85239 -1.72949,1.2915 C 416.55713,559.76738 403.02764,567.64318 389,575 c 1.94529,6.4184 4.44823,12.29352 7.5,18.25781 0.4322,0.85743 0.86441,1.71486 1.30971,2.59827 0.91836,1.8207 1.83936,3.64007 2.76283,5.45819 2.40358,4.73275 4.7877,9.47528 7.17355,14.21698 0.69796,1.38537 0.69796,1.38537 1.41002,2.79874 3.38452,6.72735 6.69041,13.4852 9.90639,20.29501 4.03076,8.52989 8.21838,16.97166 12.45923,25.39893 3.88008,7.73003 7.62483,15.51824 11.33374,23.33154 3.29717,6.92501 6.69679,13.79337 10.14453,20.64453 4.39568,8.73486 8.66223,17.52187 12.85547,26.35547 3.29717,6.92501 6.69679,13.79337 10.14453,20.64453 4.39568,8.73486 8.66223,17.52187 12.85547,26.35547 3.78094,7.94105 7.70831,15.80345 11.66186,23.65967 3.90502,7.77973 7.67481,15.61784 11.40845,23.48095 3.54741,7.45161 7.22208,14.83341 10.93408,22.20411 3.91552,7.79735 7.69499,15.65618 11.43701,23.53808 0.42668,0.89848 0.85336,1.79695 1.29297,2.72266 0.40461,0.85432 0.80921,1.70865 1.22608,2.58886 1.12683,2.33172 2.30736,4.62847 3.50049,6.92676 C 542,890 542,890 542,893 c -52.14,0 -104.28,0 -158,0 -8.28548,-17.12333 -16.54015,-34.20712 -24.50391,-51.47266 -4.02457,-8.70289 -8.13605,-17.36458 -12.24609,-26.02734 -0.38079,-0.80273 -0.76157,-1.60547 -1.1539,-2.43253 -1.54761,-3.26241 -3.09534,-6.52477 -4.64336,-9.787 -4.03554,-8.50561 -8.05834,-17.01722 -12.07774,-25.53047 -0.3501,-0.74145 -0.7002,-1.48291 -1.06091,-2.24683 C 322.86952,763.97151 317.43706,752.43418 312.0097,740.89441 306.85032,729.92463 301.67858,718.96073 296.5,708 c -6.18353,-13.08827 -12.35974,-26.17995 -18.51563,-39.28125 -3.12039,-6.63991 -6.24629,-13.27705 -9.39048,-19.90573 -1.50423,-3.17194 -3.00569,-6.34518 -4.50695,-9.51853 -0.72039,-1.52071 -1.44215,-3.04078 -2.16534,-4.56018 -0.99815,-2.09732 -1.99162,-4.1968 -2.9841,-6.29681 -0.29914,-0.62535 -0.59828,-1.25069 -0.90648,-1.89499 C 256,622.22773 256,622.22773 256,620 c -41.25,0 -82.5,0 -125,0 0,90.42 0,180.84 0,274 -43.56,0 -87.12,0 -132,0 -0.019527,-55.40925 -0.019527,-55.40925 -0.025528,-75.06619 -3.958e-4,-1.29596 -7.915e-4,-2.59191 -0.0012,-3.92713 -0.017184,-56.58452 -0.027503,-113.16904 -0.03513,-169.75357 -4.264e-4,-3.16279 -8.605e-4,-6.32559 -0.0013,-9.48839 -0.010823,-77.64137 -0.015112,-155.28275 0.55413704,-495.39852 0.009063,-2.75376 0.0180949,-5.50753 0.0271236,-8.26129 C -0.33732581,88.069876 -0.17927523,44.034905 0,0 Z m 130,137 c -0.1779,25.58326 -0.34326,51.1666 -0.5,76.75 -0.006,0.96877 -0.0119,1.93754 -0.018,2.93566 -0.40302,65.77175 -0.5732,131.54138 -0.54447,197.31434 4.2e-4,1.0006 8.5e-4,2.00121 10e-4,3.03213 0.0109,25.32264 0.0307,50.64525 0.0612,75.96787 13.24117,0.11689 26.4822,0.20521 39.72378,0.25906 6.15151,0.0259 12.30266,0.0609 18.45395,0.11814 5.95882,0.0551 11.9173,0.0844 17.87635,0.0972 2.25051,0.009 4.50101,0.0268 6.75137,0.0543 21.14959,0.24696 41.86077,-2.6058 61.88205,-9.65365 1.10465,-0.38052 2.20929,-0.76103 3.34741,-1.15308 C 299.94805,474.59103 320.69634,463.04141 339,447 c 0.8134,-0.70383 1.6268,-1.40766 2.46484,-2.13281 C 368.02105,421.45745 387.58635,393.77684 396,359 c 0.31542,-1.27448 0.31542,-1.27448 0.63721,-2.57471 C 402.69836,330.7074 402.80082,299.80922 397,274 c -0.19868,-0.90879 -0.39735,-1.81758 -0.60205,-2.75391 -6.45101,-28.72268 -19.36855,-63.38161 -43.27295,-82.37109 -0.96164,-0.76699 -1.92328,-1.53398 -2.91406,-2.32422 -0.77586,-0.61367 -0.77586,-0.61367 -1.56739,-1.23974 -1.73651,-1.38519 -3.45261,-2.7931 -5.16699,-4.20557 -21.0677,-17.272 -44.52277,-31.38438 -70.66406,-39.41797 -0.78294,-0.24267 -1.56589,-0.48533 -2.37256,-0.73535 -10.83618,-3.17299 -21.67539,-4.25447 -32.9314,-4.1792 -1.17232,-2.9e-4 -2.34465,-5.8e-4 -3.5525,-8.9e-4 -3.82527,10e-4 -7.65034,0.0169 -11.47557,0.0326 -2.67185,0.004 -5.3437,0.007 -8.01555,0.009 -6.28239,0.006 -12.56472,0.0225 -18.84708,0.0427 -7.16098,0.0225 -14.32196,0.0334 -21.48296,0.0434 C 159.42322,136.92017 144.71161,136.95528 130,137 Z"
       fill="#030303"
       transform="translate(672,865)"
       id="path3-5"
       style="fill:#ffffff" /><path
       d="M 0,0 C 0.73324242,4.2423e-4 1.4664848,8.4846e-4 2.2219467,0.00128555 21.272976,0.01249239 40.32399,0.03280917 59.375,0.0625 c 6.799074,28.259383 13.484033,56.541545 19.991653,84.869427 1.108892,4.824582 2.220269,9.648591 3.331589,14.472614 0.229969,0.998259 0.459939,1.996519 0.696877,3.025029 0.471166,2.0452 0.942345,4.0904 1.413536,6.13559 0.717916,3.11641 1.435605,6.23287 2.153259,9.34935 5.274352,22.90131 10.575018,45.79653 15.877106,68.69144 1.32049,5.70219 2.64074,11.40445 3.96103,17.1067 1.86626,8.06012 3.73263,16.12022 5.59912,24.18029 5.1735,22.34082 10.34512,44.68208 15.51665,67.02337 0.7728,3.33852 1.54561,6.67703 2.31843,10.01554 8.67839,37.48986 17.35422,74.98031 26.02937,112.47091 8.59813,37.15776 17.19746,74.31524 25.79888,111.47224 0.25524,1.10262 0.51049,2.20524 0.77347,3.34128 2.30948,9.97663 4.61899,19.95325 6.92853,29.92987 3.35555,14.49514 6.711,28.9903 10.06636,43.48549 0.78257,3.38071 1.56514,6.76142 2.34771,10.14213 2.34492,10.13003 4.68981,20.26007 7.03461,30.39013 1.29872,5.61073 2.59745,11.22146 3.89619,16.83219 0.25731,1.11161 0.51462,2.22323 0.77973,3.36852 3.69128,15.94666 7.38347,31.8931 11.07618,47.83942 4.951,21.38 9.90047,42.76035 14.84733,64.14131 0.50566,2.1855 1.01132,4.37101 1.51698,6.55652 0.24998,1.08044 0.49997,2.16089 0.75753,3.27408 1.80686,7.8089 3.61481,15.61755 5.42313,23.42611 2.26903,9.79806 4.53646,19.59649 6.80192,29.39537 1.17222,5.07006 2.34516,10.13994 3.51998,15.2094 1.07967,4.65896 2.15732,9.31837 3.23333,13.97818 0.39291,1.69989 0.78657,3.3996 1.18104,5.09914 0.5345,2.30342 1.06634,4.60745 1.59747,6.91166 0.15716,0.67433 0.31431,1.34866 0.47623,2.04343 1.05478,4.59499 1.05478,4.59499 1.05478,6.82327 -47.85,0 -95.7,0 -145,0 -4.43438,-18.99563 -8.86875,-37.99125 -13.4375,-57.5625 -1.37986,-5.90979 -2.75972,-11.81958 -4.1814,-17.90845 -1.73669,-7.44104 -1.73669,-7.44104 -2.5597,-10.96788 -0.552764,-2.36833 -1.105706,-4.73661 -1.658818,-7.10486 -5.093501,-21.80984 -10.126434,-43.633 -15.162582,-65.45631 -81.51,-0.33 -163.02,-0.66 -247,-1 -0.66,3.3 -1.32,6.6 -2,10 -0.40993,1.78163 -0.83334,3.56032 -1.2809,5.33287 -0.23375,0.93079 -0.46751,1.86159 -0.70834,2.82059 -0.24984,0.98439 -0.49969,1.96879 -0.7571,2.98301 -0.26869,1.06691 -0.53738,2.13381 -0.81421,3.23304 -0.885,3.51155 -1.7735,7.0222 -2.66211,10.53283 -0.62596,2.48014 -1.25172,4.96033 -1.8773,7.44057 -1.31406,5.20777 -2.62966,10.41515 -3.94667,15.62218 -1.66041,6.56477 -3.31793,13.13026 -4.97442,19.69602 -1.60785,6.37233 -3.21721,12.74429 -4.82661,19.11623 -0.2941,1.16498 -0.5882,2.32995 -0.89122,3.53023 -5.0287,19.91281 -10.14624,39.80124 -15.26112,59.69243 -48.51,0 -97.02,0 -147,0 1.22624,-6.74432 2.47409,-13.38378 4.0459,-20.03979 0.19662,-0.84255 0.39325,-1.68509 0.59583,-2.55317 0.6533,-2.79645 1.31047,-5.59197 1.96765,-8.38751 0.47497,-2.02949 0.94971,-4.05904 1.42424,-6.08864 1.296,-5.54009 2.5954,-11.07939 3.89538,-16.61856 1.39356,-5.94056 2.78396,-11.88186 4.17476,-17.82307 2.54205,-10.85698 5.08653,-21.71339 7.63233,-32.56949 2.32256,-9.90417 4.6441,-19.80857 6.96459,-29.71323 0.15291,-0.65266 0.30582,-1.30533 0.46337,-1.97777 0.61907,-2.6424 1.23814,-5.2848 1.85719,-7.92721 5.35732,-22.86722 10.71692,-45.73392 16.07808,-68.60025 6.7866,-28.94613 13.5691,-57.89323 20.349,-86.84094 0.80163,-3.42266 1.60327,-6.84531 2.40492,-10.26796 2.12485,-9.07209 4.24967,-18.14418 6.37444,-27.21628 3.75201,-16.01996 7.50426,-32.03986 11.2567,-48.05972 0.26859,-1.14667 0.53718,-2.29334 0.81391,-3.47475 1.35755,-5.79568 2.71512,-11.59136 4.07268,-17.38704 2.43895,-10.41231 4.87786,-20.82462 7.31678,-31.23694 1.35408,-5.78089 2.70817,-11.56179 4.06225,-17.34268 0.54167,-2.3125 1.08333,-4.625 1.625,-6.9375 29.25,-124.875 29.25,-124.875 30.06251,-128.34377 0.54164,-2.31242 1.08329,-4.62484 1.62494,-6.93727 1.35445,-5.78246 2.70891,-11.56493 4.06337,-17.34739 2.43412,-10.39171 4.8682,-20.78342 7.30205,-31.17519 1.34953,-5.76208 2.6991,-11.52416 4.04869,-17.28622 0.2674,-1.14165 0.53479,-2.2833 0.81029,-3.45955 3.85931,-16.477 7.72067,-32.95352 11.58317,-49.42978 2.22768,-9.50294 4.45489,-19.00599 6.68197,-28.50907 0.54662,-2.33239 1.09325,-4.66478 1.63992,-6.99716 5.97027,-25.4729 11.93062,-50.948031 17.85106,-76.432569 0.23828,-1.02555 0.47656,-2.051101 0.72207,-3.107729 2.24852,-9.678091 4.49558,-19.356518 6.73753,-29.036135 0.79416,-3.427854 1.58937,-6.855463 2.38478,-10.283025 0.53896,-2.324393 1.07634,-4.649146 1.61367,-6.973913 0.32062,-1.38172 0.64132,-2.76342 0.96211,-4.145096 0.27466,-1.1863204 0.54932,-2.3726406 0.8323,-3.5949099 C -143.625,4.0625 -143.625,4.0625 -142.625,1.0625 c 9.66632,-0.18838356 19.33301,-0.35090298 29,-0.5 0.76935,-0.0118772 1.53869,-0.0237545 2.33135,-0.0359917 C -74.197103,-0.03721538 -37.099763,-0.02209394 0,0 Z m -43.625,149.0625 c -2.18988,6.18574 -3.890449,12.3601 -5.298828,18.76587 -0.211276,0.9427 -0.422551,1.88541 -0.640229,2.85668 -0.701817,3.13656 -1.39697,6.27457 -2.092193,9.41261 -0.50359,2.25637 -1.007625,4.51265 -1.51207,6.76884 -1.085526,4.85906 -2.168195,9.71874 -3.248642,14.57893 -1.733858,7.7989 -3.474292,15.59632 -5.216095,23.39344 -0.599338,2.68319 -1.198649,5.36639 -1.797958,8.04959 -0.149583,0.66967 -0.299166,1.33934 -0.453282,2.02931 -1.074248,4.80964 -2.14763,9.61947 -3.220699,14.42937 -6.00819,26.92859 -12.062066,53.84685 -18.123893,80.76342 -1.397984,6.20824 -2.795223,12.41664 -4.192498,18.62504 -3.111716,13.8256 -6.224151,27.65103 -9.336738,41.47644 -2.657565,11.80429 -5.315055,23.6086 -7.972345,35.41296 -0.14659,0.65119 -0.29318,1.30238 -0.44421,1.9733 -5.73726,25.48654 -11.47049,50.97399 -17.20103,76.46205 -1.69158,7.52325 -3.38443,15.04622 -5.0779,22.56904 -1.89343,8.41128 -3.78467,16.82304 -5.67263,25.23554 -0.92535,4.12306 -1.85168,8.24589 -2.7808,12.3681 -0.8349,3.70433 -1.66691,7.40929 -2.49643,11.11482 -0.43744,1.9505 -0.87802,3.90028 -1.31871,5.85004 -0.38152,1.70863 -0.38152,1.70863 -0.77074,3.45177 -0.22057,0.98152 -0.44113,1.96305 -0.66838,2.97432 -0.5571,2.51602 -0.5571,2.51602 -0.4637,5.43852 66.66,0 133.32,0 202,0 -1.260586,-6.93322 -2.560391,-13.77882 -4.137695,-20.63477 -0.206371,-0.90603 -0.412741,-1.81206 -0.625365,-2.74555 -0.686039,-3.00917 -1.37554,-6.01755 -2.065065,-9.02593 -0.497507,-2.17875 -0.994805,-4.35755 -1.491913,-6.53639 -1.355471,-5.93814 -2.714017,-11.87557 -4.073128,-17.81287 C 44.530602,529.9649 43.082169,523.62217 41.633301,517.27954 38.043874,501.56887 34.448819,485.85948 30.852896,470.15029 30.219645,467.3838 29.586451,464.6173 28.95326,461.8508 23.117224,436.3524 17.278882,410.85454 11.437256,385.35742 3.5110244,350.76132 -4.4064013,316.16321 -12.3125,281.5625 c -1.920524,-8.40496 -3.841073,-16.80991 -5.761719,-25.21484 -0.345913,-1.51377 -0.345913,-1.51377 -0.698814,-3.05812 C -24.051296,230.19172 -29.337219,207.09565 -34.625,184 c -0.208656,-0.91136 -0.417311,-1.82271 -0.63229,-2.76169 -2.455597,-10.72534 -4.911478,-21.45061 -7.36771,-32.17581 -0.33,0 -0.66,0 -1,0 z"
       fill="#030303"
       transform="translate(2292.625,866.9375)"
       id="path4-1"
       style="fill:#ffffff" /><path
       d="m 0,0 c 43.89,0 87.78,0 133,0 0.0418,62.65814 0.0418,62.65814 0.0503,87.969238 2.6e-4,0.74952 5.1e-4,1.499039 7.8e-4,2.271271 0.003,9.703354 0.006,19.406711 0.009,29.110061 0.002,5.73217 0.004,11.46434 0.006,17.19651 0.0298,83.60004 -0.0496,167.19884 -0.33816,250.79843 -0.0208,6.0302 -0.0411,12.0604 -0.0613,18.0906 -0.12173,36.30263 -0.24568,72.60524 -0.40239,108.90773 -0.0678,15.71704 -0.12879,31.43409 -0.18321,47.15118 -0.0328,9.38067 -0.0719,18.76126 -0.11991,28.14186 -0.0318,6.30744 -0.0559,12.61489 -0.0742,18.92238 -0.0107,3.5906 -0.0245,7.1811 -0.0479,10.77165 C 131.614,654.74736 133.07451,687.72886 157,716 c 0.66902,0.88752 0.66902,0.88752 1.35156,1.79297 C 175.55133,740.00493 207.94371,753.52649 235,757 c 5.36847,0.44296 10.74387,0.38894 16.125,0.3125 0.71389,-0.006 1.42778,-0.0119 2.1633,-0.018 38.36355,-0.32151 78.07482,-6.10236 107.01639,-33.47422 11.97497,-12.72049 18.36672,-28.56037 22.44531,-45.25781 0.19876,-0.80889 0.39751,-1.61777 0.60229,-2.45117 3.86584,-16.8486 3.94076,-33.51503 3.92618,-50.71192 0.005,-2.69493 0.0108,-5.38985 0.0176,-8.08478 0.0131,-5.83865 0.0189,-11.67727 0.0198,-17.51594 10e-4,-8.68172 0.0142,-17.3634 0.0293,-26.04511 0.0251,-14.60754 0.041,-29.21506 0.0516,-43.82261 0.0105,-14.45578 0.0252,-28.91154 0.0453,-43.36731 10e-4,-0.90003 0.002,-1.80005 0.004,-2.72735 0.006,-4.57109 0.0128,-9.14217 0.0193,-13.71326 0.0456,-32.34667 0.0821,-64.69335 0.11313,-97.04004 0.0302,-31.41733 0.0645,-62.83464 0.1045,-94.25196 0.001,-0.96903 0.002,-1.93806 0.004,-2.93646 0.0124,-9.73173 0.0248,-19.46347 0.0373,-29.1952 0.0255,-19.8233 0.0504,-39.6466 0.075,-59.4699 10e-4,-0.91137 0.002,-1.82274 0.003,-2.76173 0.0346,-27.92512 0.0669,-55.85025 0.0967,-83.77538 8.5e-4,-0.792563 0.002,-1.585129 0.003,-2.401712 C 387.93575,66.19378 387.96755,34.09689 388,2 433.54,1.67 479.08,1.34 526,1 c 0.0403,75.2086 0.0403,75.2086 0.0513,98.487183 3.9e-4,0.830207 7.9e-4,1.660417 10e-4,2.515787 0.0132,27.96259 0.0237,55.92518 0.0322,83.88778 2.7e-4,0.91301 5.5e-4,1.82603 8.3e-4,2.76671 0.006,19.84515 0.0115,39.6903 0.0166,59.53545 0.003,9.7329 0.005,19.46579 0.008,29.19869 2.6e-4,0.96851 5.3e-4,1.93702 8e-4,2.93488 0.009,31.35842 0.0235,62.71684 0.0419,94.07526 0.0189,32.24092 0.0312,64.48184 0.0352,96.72277 5.8e-4,4.56004 0.001,9.12009 0.002,13.68013 1.4e-4,0.89743 2.7e-4,1.79486 4.1e-4,2.71949 0.002,14.41139 0.0116,28.82278 0.0235,43.23417 0.0118,14.50935 0.0163,29.01868 0.0133,43.52803 -0.002,8.60661 0.002,17.21318 0.0146,25.81978 0.008,5.76755 0.008,11.53508 0.002,17.30263 -0.003,3.27451 -0.002,6.54892 0.006,9.82343 C 526.42763,704.70707 500.9136,775.4771 446.0625,831.25 439.49457,837.78972 432.4378,843.48873 425,849 c -1.11981,0.85024 -2.2396,1.7005 -3.35938,2.55078 C 412.60419,858.30815 402.99627,863.79365 393,869 c -0.71688,0.38011 -1.43376,0.76022 -2.17236,1.15186 C 325.3163,904.5412 242.58651,906.62901 173,885 132.48307,872.21247 91.980666,849.41552 65.234375,815.79297 62.945261,812.93158 60.5715,810.1576 58.1875,807.375 48.72679,796.03098 40.4667,783.73285 33,771 c -0.526904,-0.87761 -0.526904,-0.87761 -1.064453,-1.77295 -21.09913,-35.21173 -32.16301963,-76.20863 -32.05859483,-117.19661 -0.001154,-1.13608 -0.002308,-2.27216 -0.003497,-3.44266 -0.002636,-3.78638 0.00183,-7.57272 0.00629,-11.3591 1.2103e-4,-2.75008 -0.00127,-5.50017 -0.002589,-8.25026 -0.002066,-5.96846 -4.4333e-4,-11.93691 0.003638,-17.90536 0.006052,-8.87479 0.006334,-17.74957 0.005458,-26.62435 -0.001312,-14.9311 0.00202,-29.8622 0.008017,-44.79329 0.0059212,-14.77923 0.0097668,-29.55845 0.01085282,-44.33768 6.874e-5,-0.91964 1.3748e-4,-1.83928 2.083e-4,-2.78679 3.3834e-4,-4.67057 6.3972e-4,-9.34114 9.2687e-4,-14.01172 0.0020993,-33.06378 0.0088334,-66.12757 0.01830262,-99.19135 0.0091874,-32.11686 0.01626957,-64.23372 0.02050781,-96.35059 1.3153e-4,-0.99034 2.6305e-4,-1.98068 3.9856e-4,-3.00104 0.0013185,-9.94562 0.0025944,-19.89124 0.0038389,-29.83686 0.0025361,-20.25957 0.0053573,-40.51915 0.0083511,-60.77872 1.3729e-4,-0.93146 2.7458e-4,-1.86292 4.1603e-4,-2.8226 0.0042223,-28.54474 0.009653,-57.08948 0.01627709,-85.63422 1.8755e-4,-0.81026 3.7511e-4,-1.620523 5.6835e-4,-2.455341 C -0.01746713,65.632339 -0.0085727,32.81617 0,0 Z"
       fill="#030303"
       transform="translate(0,867)"
       id="path5-7"
       style="fill:#ffffff" /><path
       d="m 0,0 c 3.6643495,1.7102547 5.9345589,3.7599792 8.75,6.6875 2.895389,2.958424 5.76838,5.837107 8.9375,8.5 4.897189,4.176131 9.354302,8.804392 13.858154,13.395264 0.924862,0.93743 0.924862,0.93743 1.868408,1.893798 0.597159,0.607471 1.194317,1.214942 1.809571,1.840821 1.684212,1.595326 3.423017,2.911593 5.299804,4.268554 C 41.749336,37.780898 41.749336,37.780898 43,39 c -0.291294,4.304263 -1.583574,7.672005 -3.484375,11.507812 -0.774042,1.580955 -0.774042,1.580955 -1.563721,3.193848 -0.561628,1.129702 -1.123257,2.259404 -1.701904,3.42334 -1.200611,2.445969 -2.395232,4.894847 -3.589844,7.34375 -0.306369,0.626374 -0.612737,1.252747 -0.92839,1.898102 C 28.620763,72.741935 25.650459,79.179964 22.6875,85.625 17.585796,96.69012 12.310272,107.66081 6.9700623,118.61212 1.8344273,129.1493 -3.1588342,139.74032 -8.0598144,150.38916 -12.646479,160.31999 -17.420717,170.15392 -22.216797,179.98483 -28.023954,191.89609 -33.612929,203.89204 -39,216 c 3.597049,-0.71404 6.578905,-2.16771 9.847656,-3.80859 1.164668,-0.5833 2.329336,-1.16661 3.529297,-1.76758 0.608518,-0.30736 1.217036,-0.61472 1.843994,-0.9314 1.781569,-0.89964 3.566392,-1.79283 5.351319,-2.68579 5.941893,-2.9803 11.8482465,-6.01951 17.71885644,-9.13795 C 8.2342661,192.92061 17.252161,188.33219 26.3125,183.8125 c 0.633226,-0.3159 1.266452,-0.6318 1.918867,-0.95728 5.250832,-2.6184 10.504271,-5.23155 15.757769,-7.8446 14.199474,-7.06353 28.384559,-14.13557 42.394165,-21.57117 8.16211,-4.32675 16.387389,-8.5305 24.629149,-12.70312 1.98006,-1.00615 3.95688,-2.01871 5.93067,-3.03711 2.89562,-1.49305 5.80094,-2.9654 8.70922,-4.4336 0.8822,-0.46017 1.7644,-0.92035 2.67333,-1.39447 1.22893,-0.61249 1.22893,-0.61249 2.48268,-1.23736 0.71546,-0.36511 1.43093,-0.73021 2.16808,-1.10639 C 135,129 135,129 137.09108,129.737 c 2.92225,1.93345 5.24386,4.43741 7.65892,6.9505 3.26102,3.33163 6.48855,6.62445 10.0625,9.625 4.92648,4.17657 9.38891,8.84095 13.90942,13.44653 0.62286,0.63124 1.24572,1.26248 1.88745,1.91284 0.55656,0.56816 1.11311,1.13631 1.68653,1.72168 1.80218,1.69891 3.69798,3.15692 5.7041,4.60645 -1.61846,3.90909 -4.27733,6.72397 -7.13672,9.76172 -0.7873,0.84422 -0.7873,0.84422 -1.5905,1.70549 -6.85068,7.28959 -13.9772,14.30841 -21.08528,21.34529 -2.71786,2.69099 -5.43218,5.38549 -8.14453,8.08203 -0.90647,0.89402 -0.90647,0.89402 -1.83125,1.80611 -3.01195,2.99483 -5.89749,6.04525 -8.67339,9.26103 -3.55235,4.10977 -7.33074,7.94155 -11.19458,11.75708 -1.05894,1.05326 -1.05894,1.05326 -2.13928,2.12781 -2.98344,2.96728 -5.97288,5.92849 -8.96179,8.89026 -2.19759,2.17936 -4.39206,4.36183 -6.58643,6.54443 -0.663746,0.65545 -1.327493,1.3109 -2.011353,1.98621 C 95.476172,254.41976 92.421196,257.616 89.5,261 c -3.537955,4.09848 -7.305193,7.91584 -11.15625,11.71875 -1.058945,1.05326 -1.058945,1.05326 -2.139282,2.12781 -2.983442,2.96728 -5.972875,5.92849 -8.961792,8.89026 -2.197582,2.17936 -4.392055,4.36183 -6.586426,6.54443 -0.663746,0.65545 -1.327493,1.3109 -2.011353,1.98621 -3.806268,3.78654 -7.387409,7.69441 -10.895019,11.75781 -2.922751,3.29831 -6.052091,6.37998 -9.187378,9.47473 -1.025651,1.01997 -1.025651,1.01997 -2.072021,2.06055 -2.887857,2.8717 -5.78171,5.73733 -8.675049,8.60351 -2.128087,2.10987 -4.253059,4.22284 -6.37793,6.33594 -0.641873,0.63357 -1.283745,1.26715 -1.945068,1.91992 -3.113499,3.09685 -6.108761,6.24165 -8.97876,9.56641 -3.5430932,4.1025 -7.3143048,7.92501 -11.169922,11.73242 -1.0589447,1.05326 -1.0589447,1.05326 -2.1392822,2.12781 -2.9834415,2.96728 -5.9728749,5.92849 -8.9617918,8.89026 -2.197582,2.17936 -4.392055,4.36183 -6.586426,6.54443 -0.663746,0.65545 -1.327493,1.3109 -2.011353,1.98621 C -24.782457,377.67187 -28.945853,382.25023 -33,387 c -4.481115,-0.84574 -6.712075,-3.41353 -9.75,-6.625 -1.073565,-1.10607 -2.149084,-2.21024 -3.226562,-3.3125 -0.519815,-0.53238 -1.039629,-1.06477 -1.575196,-1.61328 -1.783281,-1.78449 -3.65042,-3.44178 -5.573242,-5.07422 -4.904591,-4.16994 -9.367752,-8.78463 -13.875,-13.375 10.563773,-12.61784 22.127806,-24.24486 33.8125,-35.8125 2.717864,-2.69099 5.43218,-5.38549 8.144531,-8.08203 0.604314,-0.59602 1.208627,-1.19203 1.831253,-1.80611 3.016449,-2.99931 5.906255,-6.05476 8.687058,-9.2747 3.480893,-4.02718 7.1751736,-7.78663 10.962158,-11.52466 1.0256506,-1.01997 1.0256506,-1.01997 2.0720215,-2.06055 2.8878562,-2.8717 5.7817093,-5.73733 8.6750488,-8.60351 2.128087,-2.10987 4.2530587,-4.22284 6.3779297,-6.33594 0.641873,-0.63357 1.283745,-1.26715 1.945068,-1.91992 3.113499,-3.09685 6.108761,-6.24165 8.97876,-9.56641 3.543093,-4.1025 7.314305,-7.92501 11.169922,-11.73242 1.058945,-1.05326 1.058945,-1.05326 2.139282,-2.12781 2.983442,-2.96728 5.972875,-5.92849 8.961792,-8.89026 2.197582,-2.17936 4.392055,-4.36183 6.586426,-6.54443 0.663746,-0.65545 1.327493,-1.3109 2.011353,-1.98621 C 59.782457,226.32813 63.945853,221.74977 68,217 c -3.885157,0.88728 -7.273552,2.46233 -10.835938,4.21094 -0.667109,0.32387 -1.334219,0.64774 -2.021545,0.98143 -2.174393,1.05705 -4.345989,2.11971 -6.517517,3.18263 -1.506895,0.73418 -3.013895,1.46815 -4.520996,2.2019 -9.145541,4.45863 -18.259566,8.97735 -27.34668,13.55396 C 9.5146268,244.76925 2.2059043,248.25941 -5.1157227,251.7356 -12.456939,255.23315 -19.735432,258.84622 -27,262.5 c -8.085391,4.06654 -16.197168,8.06018 -24.375,11.9375 -8.59829,4.07729 -17.12295,8.28847 -25.625,12.5625 -8.927119,4.4826 -17.871427,8.9227 -26.875,13.25 -1.40766,0.68063 -1.40766,0.68063 -2.84375,1.375 -4.36427,2.08558 -8.63047,3.99358 -13.28125,5.375 -1.21065,-0.99327 -2.39296,-2.02113 -3.5625,-3.0625 -0.66129,-0.56848 -1.32258,-1.13695 -2.00391,-1.72266 -2.14881,-3.31983 -1.23132,-5.39907 -0.43359,-9.21484 0.99205,-2.73276 2.21374,-5.33035 3.47266,-7.94922 0.53161,-1.1361 0.53161,-1.1361 1.07397,-2.29515 0.76455,-1.63192 1.53317,-3.26194 2.30545,-4.89021 2.07902,-4.38491 4.12717,-8.78423 6.17917,-13.18183 0.41984,-0.89773 0.83967,-1.79546 1.27223,-2.72039 4.03522,-8.64564 7.91187,-17.35765 11.75902,-26.0882 5.437819,-12.31974 10.984126,-24.5844 16.625,-36.8125 6.292669,-13.64388 12.496535,-27.3226 18.620697,-41.04318 4.147508,-9.28651 8.32899,-18.55779 12.504303,-27.83182 0.816339,-1.81355 1.632664,-3.62711 2.448975,-5.44067 C -47.82591,120.49778 -45.913035,116.24886 -44,112 c -3.493172,2.76171 -6.729799,5.59475 -9.875,8.75 -0.801797,0.79922 -1.603594,1.59844 -2.429687,2.42188 -2.035223,2.1355 -3.966469,4.28683 -5.885254,6.52246 -3.654464,4.18774 -7.512891,8.12042 -11.466309,12.02441 -1.058945,1.05326 -1.058945,1.05326 -2.139282,2.12781 -2.983442,2.96728 -5.972875,5.92849 -8.961792,8.89026 -2.197582,2.17936 -4.392055,4.36183 -6.586426,6.54443 -0.663746,0.65545 -1.327493,1.3109 -2.011353,1.98621 -3.806268,3.78654 -7.387407,7.69441 -10.895017,11.75781 -2.92275,3.29831 -6.05209,6.37998 -9.18738,9.47473 -0.68377,0.67998 -1.36753,1.35996 -2.07202,2.06055 -2.88786,2.8717 -5.78171,5.73733 -8.67505,8.60351 -2.12809,2.10987 -4.25306,4.22284 -6.37793,6.33594 -0.64187,0.63357 -1.28375,1.26715 -1.94507,1.91992 -3.10342,3.08682 -6.08987,6.22043 -8.94971,9.53516 -3.69983,4.28391 -7.64808,8.27723 -11.66381,12.26367 -1.11715,1.11502 -1.11715,1.11502 -2.25685,2.25256 -2.35083,2.34528 -4.70512,4.68704 -7.05956,7.02869 -1.60635,1.60133 -3.21247,3.20289 -4.81836,4.80469 -3.91206,3.9011 -7.82697,7.79933 -11.74414,11.69531 -0.46471,-0.39905 -0.92941,-0.79809 -1.4082,-1.20923 -0.61811,-0.53037 -1.23621,-1.06074 -1.87305,-1.60718 -0.60908,-0.52279 -1.21816,-1.04559 -1.8457,-1.58422 -1.23942,-1.05833 -2.48328,-2.11149 -3.73169,-3.15918 -5.65409,-4.74581 -10.78295,-10.02321 -15.94995,-15.28565 -0.62649,-0.63494 -1.25297,-1.26989 -1.89844,-1.92407 -0.56179,-0.57339 -1.12358,-1.14678 -1.70239,-1.73755 -1.72622,-1.7025 -1.72622,-1.7025 -4.59058,-3.49292 1.27571,-2.79908 2.58917,-4.83369 4.77808,-6.98926 0.55785,-0.55448 1.11571,-1.10895 1.69047,-1.68023 0.60206,-0.5886 1.20412,-1.1772 1.82442,-1.78364 0.62425,-0.61905 1.24851,-1.2381 1.89168,-1.87591 1.99625,-1.97847 3.99904,-3.95015 6.00285,-5.92096 1.98514,-1.95733 3.96873,-3.91616 5.9493,-5.87811 1.23046,-1.21842 2.46358,-2.43416 3.69992,-3.64661 3.0031,-2.96892 5.87271,-5.99633 8.63325,-9.19305 3.48243,-4.03013 7.17825,-7.79193 10.96753,-11.53223 0.68377,-0.67998 1.36753,-1.35996 2.07202,-2.06055 2.88786,-2.8717 5.78171,-5.73733 8.67505,-8.60351 2.12809,-2.10987 4.25306,-4.22284 6.37793,-6.33594 0.64187,-0.63357 1.28375,-1.26715 1.94507,-1.91992 3.1135,-3.09685 6.10876,-6.24165 8.97876,-9.56641 3.54309,-4.1025 7.3143,-7.92501 11.16992,-11.73242 1.05894,-1.05326 1.05894,-1.05326 2.13928,-2.12781 2.98344,-2.96728 5.97288,-5.92849 8.96179,-8.89026 2.19759,-2.17936 4.39206,-4.36183 6.58643,-6.54443 0.66375,-0.65545 1.32749,-1.3109 2.01135,-1.98621 3.16873,-3.1523 6.2237,-6.34854 9.1449,-9.73254 3.537955,-4.098477 7.305193,-7.91584 11.15625,-11.71875 1.058945,-1.053265 1.058945,-1.053265 2.139282,-2.127808 2.983442,-2.96728 5.972875,-5.928496 8.961792,-8.890258 2.197582,-2.179369 4.392055,-4.361833 6.586426,-6.544434 0.663746,-0.655448 1.327493,-1.310896 2.011353,-1.986206 3.806268,-3.786549 7.387409,-7.69441 10.895019,-11.757813 2.922751,-3.298315 6.052091,-6.379978 9.187378,-9.474731 0.683767,-0.67998 1.367534,-1.359961 2.072021,-2.060547 2.887857,-2.871704 5.78171,-5.737337 8.675049,-8.603516 2.128087,-2.109865 4.253059,-4.222833 6.37793,-6.335937 0.962809,-0.950361 0.962809,-0.950361 1.945068,-1.919922 3.816977,-3.796559 7.416144,-7.719933 10.934113,-11.794678 1.837012,-2.104704 3.758558,-4.099686 5.741913,-6.06665 0.699316,-0.696094 1.398633,-1.392187 2.1191404,-2.109375 C -8.992793,8.9132813 -8.2883203,8.2171875 -7.5625,7.5 -6.4651855,6.4094531 -6.4651855,6.4094531 -5.3457031,5.296875 -3.5661018,3.528905 -1.7841908,1.7633362 0,0 Z"
       fill="#030303"
       transform="translate(2429,282)"
       id="path6-1"
       style="fill:#ffffff" /><path
       d="m 0,0 c 5.1872293,2.7961889 9.6504362,5.941339 14.1875,9.6875 1.328282,1.079536 2.657721,2.157648 3.988281,3.234375 0.650493,0.526582 1.300987,1.053164 1.971192,1.595703 3.486847,2.789478 7.077863,5.436844 10.661621,8.099609 4.450818,3.323132 8.85656,6.703986 13.265381,10.08252 4.104759,3.144515 8.214643,6.28202 12.332275,9.409668 1.378773,1.047887 1.378773,1.047887 2.7854,2.116943 1.774469,1.348168 3.549648,2.695401 5.325684,4.041504 C 81.918822,61.49539 81.918822,61.49539 87,67 c 0.928125,0.928125 1.85625,1.85625 2.8125,2.8125 C 102.20538,84.607105 107.11483,106.14924 106,125 c -3.32007,25.14888 -17.250766,48.25293 -37,64 -11.185773,7.86176 -22.901372,14.23266 -36.75,14.0625 -0.697383,-0.005 -1.394766,-0.009 -2.113281,-0.0137 C 28.424442,203.0371 26.71221,203.01917 25,203 c 0.253945,0.55945 0.507891,1.11891 0.769531,1.69531 C 33.704093,223.17957 35.184595,245.00181 28,264 17.973019,288.57995 2.2300067,306.75922 -22.3125,317.3125 -43.127886,325.79277 -67.5402,329.68259 -89,321 c -10.717153,-4.57265 -19.40277,-11.16843 -28.29346,-18.59521 -2.38632,-1.96437 -4.84946,-3.81347 -7.33154,-5.65479 -5.46905,-4.06335 -10.89528,-8.18028 -16.3125,-12.3125 -0.89767,-0.68457 -1.79534,-1.36915 -2.72021,-2.07446 -1.85165,-1.41224 -3.70322,-2.8246 -5.55469,-4.23706 -3.6289,-2.7676 -7.25977,-5.53259 -10.89063,-8.29761 C -170.07829,262.23145 -180.04312,254.62099 -190,247 c 0.86345,-4.20741 3.0153,-6.86006 5.6875,-10.125 1.00847,-1.25729 2.01625,-2.51513 3.02344,-3.77344 0.53593,-0.66612 1.07185,-1.33224 1.62402,-2.01855 2.86318,-3.58192 5.66782,-7.20911 8.47754,-10.83301 1.19388,-1.53656 2.38789,-3.07301 3.58203,-4.60938 0.89453,-1.15145 0.89453,-1.15145 1.80713,-2.32617 3.51181,-4.51967 7.02669,-9.03697 10.54102,-13.55468 2.9553,-3.79933 5.90981,-7.59926 8.86279,-11.4004 5.7205,-7.36204 11.45155,-14.7151 17.21826,-22.04101 5.48889,-6.97825 10.93119,-13.99275 16.37793,-21.00391 2.93133,-3.77261 5.86493,-7.54345 8.79834,-11.31445 1.16668,-1.49999 2.33334,-2.99999 3.5,-4.5 63,-81 63,-81 64.750244,-83.250244 1.165943,-1.499116 2.331796,-2.998302 3.497559,-4.497559 2.927001,-3.764105 5.855588,-7.526957 8.787353,-11.287353 C -15.585209,20.353769 -7.7695423,10.195911 0,0 Z M 8,64 C 6.621049,65.412709 6.621049,65.412709 5.234375,67.304687 4.6811255,68.024307 4.127876,68.743926 3.5578613,69.485352 2.9612671,70.273936 2.3646728,71.06252 1.75,71.875 c -1.27197916,1.658974 -2.54411908,3.317825 -3.8164063,4.976562 -0.6524267,0.854971 -1.3048535,1.709942 -1.9770507,2.590821 -3.0247568,3.953999 -6.084283,7.880684 -9.144043,11.807617 -0.579917,0.745562 -1.159834,1.491123 -1.757324,2.259277 C -22.894225,103.72801 -30.886687,113.91067 -39,124 c 3.177408,3.28541 6.378784,6.17325 10.0625,8.875 3.962922,2.91334 7.893192,5.8544 11.78125,8.86719 0.859724,0.66016 1.719448,1.32032 2.605225,2.00049 1.699706,1.30546 3.393587,2.61856 5.080566,3.94043 C -0.24958796,154.71739 10.052748,160.36375 22,159 c 12.841526,-2.87374 23.259262,-8.13079 31,-19 5.373384,-9.71882 6.558708,-20.17667 4.386719,-31.07812 C 53.060785,95.581991 42.942004,88.281533 32.026367,80.468262 28.943506,78.234488 25.941593,75.900491 22.9375,73.5625 16.064838,67.30339 16.064838,67.30339 8,64 Z m -77,99 c -1.978754,2.30701 -3.905687,4.63436 -5.8125,7 -0.583865,0.72115 -1.167729,1.4423 -1.769287,2.1853 -4.45025,5.53143 -8.733483,11.17272 -12.961914,16.87451 -3.913498,5.26201 -7.971253,10.3923 -12.088379,15.49585 -3.2603,4.0455 -6.46247,8.12908 -9.61792,12.25684 -4.17456,5.45801 -8.4311,10.84316 -12.75,16.1875 1.39042,3.26569 2.89886,4.99455 5.71094,7.13672 0.74403,0.57258 1.48806,1.14517 2.25464,1.73511 0.79511,0.59917 1.59022,1.19834 2.40942,1.81567 0.81638,0.62431 1.63276,1.24862 2.47388,1.89185 2.37774,1.8149 4.7632,3.61916 7.15112,5.42065 1.11082,0.84356 2.22152,1.68728 3.33203,2.53125 1.884103,1.42274 3.774633,2.83702 5.671876,4.24219 2.253178,1.67446 4.485545,3.3675 6.710938,5.07812 C -78.061415,270.63687 -68.382615,276.84969 -55,276 c 14.259091,-2.40711 26.008971,-9.20095 35.039063,-20.56641 7.248473,-10.59511 10.4697754,-21.95112 8.453124,-34.625 C -12.913517,213.83662 -14.951088,207.87264 -19,202 c -0.524648,-0.76441 -1.049297,-1.52883 -1.589844,-2.31641 -3.419263,-3.80718 -7.40937,-6.6176 -11.535156,-9.62109 -1.799246,-1.32798 -3.597399,-2.65744 -5.394531,-3.98828 -0.910884,-0.6737 -1.821768,-1.34739 -2.760254,-2.04151 -4.968059,-3.71244 -9.843277,-7.54346 -14.71875,-11.37622 C -61.57978,166.57189 -61.57978,166.57189 -69,163 Z"
       fill="#030303"
       transform="translate(871,2015)"
       id="path7-1"
       style="fill:#ffffff" /><path
       d="m 0,0 c 10.171018,1.4688885 20.245366,3.3109007 30.332031,5.265625 0.806583,0.1561654 1.613165,0.3123308 2.444189,0.4732284 4.266109,0.8269211 8.531449,1.6576943 12.79629,2.4911271 3.486523,0.6805292 6.97444,1.3530737 10.463867,2.0185545 4.26447,0.813324 8.526023,1.640592 12.785955,2.477348 1.601896,0.312395 3.204691,0.620219 4.808445,0.922928 30.302433,5.73433 55.958173,20.307358 73.920983,45.864373 15.1507,22.701356 19.99311,51.897056 15.32055,78.542726 -5.64501,27.74289 -16.8657,54.83007 -40.52465,71.80346 -3.75599,2.40173 -7.56793,4.54894 -11.53516,6.57813 -0.64083,0.33024 -1.28165,0.66048 -1.94189,1.00073 -3.49021,1.70147 -6.813,2.85995 -10.617924,3.66358 -1.19941,0.25639 -1.19941,0.25639 -2.42305,0.51796 C 95.225856,221.74524 94.622076,221.87072 94,222 c 3.172946,12.18878 6.34617,24.37749 9.51972,36.56611 1.47411,5.6616 2.94813,11.32323 4.42193,16.98492 1.42625,5.479 2.85275,10.95793 4.27941,16.43683 0.54022,2.0748 1.08035,4.14962 1.62039,6.22446 0.51537,1.98 1.03089,3.95996 1.54657,5.93988 0.49329,1.89455 0.98602,3.78924 1.47815,5.68409 1.18644,4.56141 2.38706,9.11826 3.61592,13.66844 0.23431,0.87278 0.46862,1.74555 0.71003,2.64478 0.44028,1.63695 0.88452,3.27285 1.33349,4.90744 C 123.4564,334.52682 124,337.37926 124,341 c -6.9889,-0.56265 -13.74382,-1.62306 -20.60156,-3.06641 -0.96248,-0.19835 -1.92496,-0.3967 -2.9166,-0.60106 -3.03662,-0.62692 -6.071728,-1.26085 -9.10684,-1.89503 -2.074122,-0.4295 -4.14834,-0.85854 -6.222656,-1.28711 C 80.10044,333.1056 75.049881,332.05452 70,331 c -3.51504,-12.40462 -6.777749,-24.8532 -9.863281,-37.37109 -0.441134,-1.78316 -0.882395,-3.56629 -1.323777,-5.34938 -0.913429,-3.69277 -1.824927,-7.386 -2.735061,-11.07958 -1.167072,-4.73536 -2.339762,-9.4693 -3.513913,-14.20291 -0.907481,-3.66158 -1.811731,-7.32395 -2.71502,-10.98656 -0.431528,-1.7478 -0.864138,-3.49534 -1.297856,-5.24259 -0.601508,-2.425 -1.198584,-4.85104 -1.7945,-7.27741 -0.17916,-0.71835 -0.358319,-1.43669 -0.542908,-2.17681 C 45.516708,234.459 45,231.9517 45,229 44.239211,228.89188 43.478423,228.78376 42.69458,228.67236 33.952919,227.38429 25.33085,225.70248 16.6875,223.875 15.349675,223.59474 14.011785,223.31479 12.673828,223.03516 9.4485632,222.35983 6.2239863,221.6814 3,221 c -0.1161163,0.64215 -0.2322327,1.2843 -0.3518677,1.94591 -3.29444376,18.15361 -6.8411824,36.24683 -10.5245971,54.32484 -0.7421181,3.64268 -1.4793848,7.28633 -2.2154962,10.93022 -0.574465,2.84074 -1.151573,5.68093 -1.729488,8.52097 -0.273581,1.34626 -0.546292,2.6927 -0.8181,4.03932 -0.374907,1.85561 -0.753807,3.7104 -1.132912,5.56516 -0.213642,1.05107 -0.427284,2.10214 -0.6474,3.18507 C -15,312 -15,312 -16,314 c -9.351474,-1.23053 -18.577829,-2.78748 -27.818604,-4.65942 -2.036551,-0.4117 -4.074676,-0.8149 -6.113037,-1.21753 -1.287129,-0.25846 -2.574257,-0.51692 -3.90039,-0.78321 -1.743739,-0.3501 -1.743739,-0.3501 -3.522705,-0.70727 C -60,306 -60,306 -61,305 c 0.180461,-6.99117 1.642961,-13.89692 3.043457,-20.72485 0.207522,-1.03176 0.415044,-2.06352 0.628855,-3.12654 0.690496,-3.4268 1.38797,-6.85214 2.085501,-10.27752 0.496604,-2.4568 0.992789,-4.91369 1.488586,-7.37066 1.201974,-5.95065 2.408507,-11.90035 3.617134,-17.84965 1.411376,-6.94852 2.817033,-13.89819 4.222597,-20.84788 8.41391,-41.59736 16.872251,-83.18587 25.360859,-124.76804 1.109409,-5.434674 2.218017,-10.869514 3.326449,-16.304391 0.21253,-1.041674 0.42506,-2.083348 0.644031,-3.156588 2.578214,-12.642179 5.130717,-25.289234 7.6538201,-37.942533 0.2544192,-1.275444 0.5088385,-2.550888 0.7709674,-3.864982 1.2363111,-6.200545 2.4699142,-12.401613 3.6995831,-18.603478 0.4425589,-2.22447 0.8851534,-4.448932 1.3277893,-6.673386 0.2016842,-1.021727 0.4033683,-2.043455 0.6111641,-3.096144 C -2.3329135,9.4587571 -2.1466201,8.5241559 -1.9546814,7.5612335 -1.7935354,6.7482344 -1.6323893,5.9352354 -1.4663601,5.0976 -1,3 -1,3 0,0 Z m 36,56 c -3.490068,13.243843 -6.264836,26.603698 -8.984375,40.023437 -0.464855,2.281679 -0.929967,4.563303 -1.395325,6.844883 -0.966951,4.74462 -1.931526,9.48971 -2.894226,14.2352 -1.235888,6.09165 -2.476714,12.18229 -3.719143,18.27261 -0.95718,4.69381 -1.91236,9.38803 -2.866863,14.08239 -0.45724,2.24806 -0.914977,4.49602 -1.373215,6.74388 -0.636157,3.12273 -1.269755,6.24597 -1.902595,9.36938 -0.190082,0.9308 -0.380163,1.86159 -0.576004,2.8206 -0.170917,0.84628 -0.341833,1.69257 -0.517929,2.5645 -0.149666,0.73693 -0.299332,1.47386 -0.453533,2.23313 C 10.942532,175.02209 10.942532,175.02209 11,177 c 4.798871,1.00964 9.600253,2.00599 14.404297,2.99072 1.629965,0.33598 3.25922,0.67543 4.887695,1.01856 C 51.80192,185.5356 70.281618,184.31031 89.625,172.8125 104.82287,162.68059 112.27384,149.45475 116,132 118.38061,117.29898 116.59476,102.31272 108.46875,89.605469 106.74761,87.287619 104.93504,85.142504 103,83 101.86885,81.747031 101.86885,81.747031 100.71484,80.46875 90.091192,69.289504 78.99374,63.875903 64.027344,61.175781 63.218825,61.024654 62.410305,60.873526 61.577286,60.717819 59.031755,60.243409 56.48471,59.777802 53.9375,59.3125 52.195855,58.989517 50.454317,58.665954 48.712891,58.341797 44.476672,57.553429 40.238465,56.776187 36,56 Z"
       fill="#030303"
       transform="translate(1243,2244)"
       id="path8-5"
       style="fill:#ffffff" /><path
       d="m 0,0 c 2.3164541,0.71078181 4.6328568,1.4217306 6.9492187,2.1328125 0.7436481,0.2282547 1.4872962,0.4565094 2.2534791,0.6916809 4.2408302,1.3022744 8.4807722,2.6073618 12.7194212,3.9167175 1.822816,0.5628889 3.645652,1.1257131 5.468506,1.6884766 1.402875,0.433125 1.402875,0.433125 2.834091,0.875 5.927592,1.8268725 11.861782,3.6303805 17.801453,5.4175725 4.000594,1.205927 7.997635,2.423376 11.994247,3.642425 1.919174,0.582456 3.839862,1.15995 5.762146,1.732056 30.66707,9.135758 54.745588,24.995358 70.507718,53.57489 12.66721,24.205955 13.89748,52.822599 6.0105,78.614989 C 133.45254,180.07782 119.21427,203.78632 93,218 c -8.41528,4.11462 -16.921552,6.40616 -26,9 5.61,38.28 11.22,76.56 17,116 -4.102228,1.02556 -5.041465,0.95259 -8.860352,-0.26343 -0.960694,-0.30038 -1.921388,-0.60077 -2.911193,-0.91026 -1.543945,-0.4999 -1.543945,-0.4999 -3.11908,-1.0099 -1.05975,-0.33436 -2.119501,-0.66871 -3.211365,-1.0132 -3.385794,-1.07066 -6.766858,-2.15549 -10.14801,-3.24071 -2.293974,-0.72815 -4.588241,-1.45538 -6.882813,-2.18164 C 43.241336,332.59797 37.619303,330.80342 32,329 c -2.121257,-10.50976 -3.419482,-21.13844 -4.820313,-31.76172 -0.265954,-2.00213 -0.532142,-4.00423 -0.798553,-6.0063 -0.696063,-5.23565 -1.388977,-10.47171 -2.081207,-15.70787 -0.70873,-5.3566 -1.420476,-10.7128 -2.131958,-16.06903 C 20.775714,248.97044 19.386791,238.48536 18,228 14.198345,226.72788 10.396098,225.45754 6.59375,224.1875 5.5286621,223.83107 4.4635742,223.47465 3.3662109,223.10742 -5.056452,220.29557 -13.50895,217.59726 -22,215 c -0.13125,0.81308 -0.13125,0.81308 -0.265152,1.64258 -1.468009,8.18434 -4.04719,15.9769 -6.637192,23.85742 -0.483725,1.48616 -0.966915,2.97249 -1.4496,4.45898 -1.264734,3.89061 -2.535984,7.77906 -3.808884,11.667 -1.789482,5.46983 -3.569984,10.9426 -5.351516,16.41504 -0.945968,2.9057 -1.894357,5.8106 -2.844818,8.71484 C -44.662842,288.81111 -46.920994,295.87417 -49,303 c -5.326866,-0.6173 -10.170931,-1.83088 -15.269531,-3.46875 -0.762214,-0.24037 -1.524427,-0.48074 -2.309738,-0.72839 -1.598331,-0.50513 -3.195842,-1.01286 -4.792557,-1.52307 -2.449174,-0.78251 -4.900709,-1.55721 -7.352783,-2.33057 -1.556783,-0.49304 -3.113428,-0.98652 -4.669922,-1.48047 -0.733301,-0.23231 -1.466601,-0.46463 -2.222122,-0.70398 C -90.76489,291.11756 -90.76489,291.11756 -93,290 c 2.036102,-7.74224 4.337032,-15.36568 6.816406,-22.97656 0.368083,-1.13761 0.736166,-2.27522 1.115402,-3.4473 0.999411,-3.08867 2.000803,-6.17669 3.002747,-9.26454 1.95072,-6.01608 3.892892,-12.03492 5.834976,-18.05379 0.330371,-1.0236 0.330371,-1.0236 0.667416,-2.06788 4.503828,-13.95924 8.916097,-27.94669 13.313053,-41.93993 7.036362,-22.38261 14.236818,-44.70895 21.488525,-67.02244 C -33.83344,103.90887 -26.97836,82.570145 -20.25,61.1875 c 3.080378,-9.786941 3.080378,-9.786941 4.324219,-13.738281 0.504539,-1.602844 0.504539,-1.602844 1.019272,-3.238068 2.889156,-9.17112 5.8023034,-18.334339 8.7520901,-27.486145 0.471359,-1.462894 0.9416856,-2.926122 1.4108886,-4.389709 0.6209845,-1.9357 1.2465474,-3.8699282 1.8724365,-5.804047 C -2.3595374,4.9466699 -2.3595374,4.9466699 -1.8376465,3.3300781 -1,1 -1,1 0,0 Z m 28,59 c -7.454025,22.060388 -14.681737,44.19254 -21.8281403,66.35415 -0.6681696,2.07191 -1.3366785,4.14371 -2.0052337,6.21549 -1.0729411,3.32554 -2.1447031,6.65146 -3.21552279,9.97768 -0.58465269,1.81577 -1.16993435,3.63134 -1.75524139,5.4469 C -1.875777,150.32749 -2.9398739,153.66305 -4,157 c -0.3824487,1.19707 -0.7648975,2.39413 -1.1589355,3.62747 -0.3671412,1.16587 -0.7342823,2.33173 -1.1125489,3.53293 -0.3320544,1.04934 -0.6641089,2.09868 -1.0062256,3.17983 C -8.1310347,170.02317 -8.1310347,170.02317 -8,173 c 3.6973985,1.2491 7.39616995,2.49404 11.0961914,3.73535 1.8683938,0.62775 3.7357219,1.25867 5.6030274,1.88965 C 29.503849,185.59736 47.951273,186.66614 68.25,177.25 83.055269,169.39334 91.950218,158.04935 97.265625,142.23437 101.13767,128.96724 102.67696,112.9365 96.103516,100.27295 82.063949,75.516514 62.597581,68.537703 36.523437,60.574219 35.037229,60.11922 35.037229,60.11922 33.520996,59.655029 30.950186,58.87426 30.950186,58.87426 28,59 Z"
       fill="#030303"
       transform="translate(1912,34)"
       id="path9-2"
       style="fill:#ffffff" /><path
       d="M 0,0 C 2.1621353,1.5326196 3.6606084,3.1879933 5.3703613,5.2189941 10.911375,11.555545 16.89634,17.42404 22.89209,23.328125 c 3.581751,3.544468 7.095552,7.087891 10.376709,10.914307 4.24624,4.945129 8.898257,9.467522 13.539062,14.039062 5.250079,5.17172 10.370718,10.350392 15.167969,15.945313 3.748923,4.204549 7.820477,8.103007 11.832031,12.054687 5.250079,5.17172 10.370718,10.350392 15.167969,15.945313 3.748923,4.204549 7.820477,8.103003 11.83203,12.054683 5.25008,5.17172 10.37072,10.3504 15.16797,15.94532 3.74892,4.20455 7.82048,8.103 11.83203,12.05468 5.25008,5.17172 10.37072,10.3504 15.16797,15.94532 3.74892,4.20455 7.82048,8.103 11.83203,12.05468 5.26031,5.1818 10.39251,10.37061 15.19922,15.97657 3.57904,4.02156 7.46536,7.7486 11.30078,11.52343 9.09792,8.9542 9.09792,8.9542 12.95313,13.45704 5.13324,5.98232 10.87956,11.38231 16.51562,16.88476 1.29164,1.27521 1.29164,1.27521 2.60938,2.57617 0.77762,0.76079 1.55525,1.52158 2.35644,2.30542 2.07663,2.28896 3.57366,4.57791 5.06543,7.27661 -0.81042,0.47309 -1.62083,0.94618 -2.45581,1.4336 -3.07411,1.79551 -6.14741,3.59239 -9.22021,5.39013 -1.3174,0.77039 -2.6351,1.54027 -3.95313,2.30957 -1.28047,0.74748 -2.56051,1.49569 -3.84012,2.24463 -1.279,0.74846 -2.55902,1.49521 -3.84002,2.24024 -3.18602,1.86373 -6.32291,3.77274 -9.40799,5.7998 -0.58861,0.38157 -1.17721,0.76313 -1.78365,1.15625 -1.6092,1.05005 -3.20653,2.11823 -4.80302,3.1875 -0.8897,0.40864 -1.77939,0.81727 -2.69605,1.23828 -2.87412,-1.08826 -4.85234,-2.6031 -7.00513,-4.7622 -0.5577,-0.55463 -1.11541,-1.10926 -1.69001,-1.6807 -0.88761,-0.89838 -0.88761,-0.89838 -1.79314,-1.81491 -0.62142,-0.62188 -1.24285,-1.24376 -1.8831,-1.88449 -1.31437,-1.31739 -2.62631,-2.6372 -3.93599,-3.95926 -1.9824,-2.0005 -3.97252,-3.99303 -5.96411,-5.98437 -11.53476,-11.56943 -11.53476,-11.56943 -16.51831,-17.58936 -1.1941,-1.46611 -1.1941,-1.46611 -3.21021,-2.32471 -1.89815,0.81762 -1.89815,0.81762 -3.98828,2.14844 -0.83676,0.50217 -1.67353,1.00434 -2.53564,1.52173 -0.92023,0.5626 -1.84046,1.12519 -2.78858,1.70483 -2.00339,1.20529 -4.00732,2.40967 -6.01172,3.61329 -1.61527,0.9738 -1.61527,0.9738 -3.26318,1.96728 -5.36778,3.21575 -10.77359,6.36564 -16.17774,9.51975 -3.678774,2.15044 -7.350031,4.31371 -11.023097,6.47389 -3.821427,2.24404 -7.658875,4.45832 -11.50473,6.66017 -1.839984,1.06747 -3.679837,2.13516 -5.519532,3.20312 -0.841919,0.47317 -1.683838,0.94634 -2.551269,1.43384 -0.752652,0.44078 -1.505303,0.88156 -2.280762,1.3357 -0.979969,0.56038 -0.979969,0.56038 -1.979736,1.13208 -0.453992,0.42434 -0.907984,0.84868 -1.375733,1.28588 0,3.57083 0.364086,5.70149 1.376953,9.04395 0.300312,1.00073 0.600623,2.00147 0.910035,3.03253 0.328106,1.07305 0.656213,2.14609 0.994262,3.25165 0.332941,1.10414 0.665882,2.20828 1.008911,3.34589 1.064792,3.52691 2.137217,7.05145 3.209839,10.57598 0.72316,2.39048 1.445823,4.7811 2.167969,7.17188 1.771573,5.86113 3.549418,11.72034 5.332031,17.57812 -2.930533,3.17833 -5.863233,5.26856 -9.621093,7.39063 -1.642588,0.93574 -1.642588,0.93574 -3.31836,1.89038 -1.165974,0.6564 -2.331991,1.31273 -3.498047,1.96899 -2.354672,1.33668 -4.706803,2.6778 -7.058593,4.01954 -1.125191,0.64147 -2.250381,1.28293 -3.409668,1.94384 -4.735197,2.73412 -9.364423,5.61714 -13.969239,8.56397 -2.125,1.22265 -2.125,1.22265 -4.125,1.22265 C 16.877488,280.77845 16.877488,280.77845 7.9328613,252.71899 1.6912377,233.14015 -4.6107831,213.58146 -10.942139,194.03149 c -1.650881,-5.09821 -3.301663,-10.19646 -4.952425,-15.29471 -0.472128,-1.45812 -0.944269,-2.91624 -1.416423,-4.37435 -3.359682,-10.3757 -6.714983,-20.75281 -10.064745,-31.13172 -0.209097,-0.64781 -0.418194,-1.29562 -0.633627,-1.96306 -2.272043,-7.03955 -4.541727,-14.07985 -6.807536,-21.12141 -3.808828,-11.83332 -7.629683,-23.6621 -11.497177,-35.476364 -1.585205,-4.842894 -3.163661,-9.68798 -4.740487,-14.533608 -1.073943,-3.298536 -2.151759,-6.595698 -3.238745,-9.889961 -1.190423,-3.612914 -2.368255,-7.229707 -3.543366,-10.847625 -0.357201,-1.072868 -0.714402,-2.145736 -1.082428,-3.251114 -0.316737,-0.983348 -0.633473,-1.966697 -0.959808,-2.979843 -0.27943,-0.852242 -0.558859,-1.704483 -0.846756,-2.58255 -0.516355,-2.550006 -0.462892,-3.908608 0.533523,-6.303681 2.167741,-1.560397 4.226592,-2.857146 6.546875,-4.148437 1.376984,-0.795195 2.753936,-1.590444 4.13086,-2.385743 0.714704,-0.406658 1.429409,-0.813317 2.165771,-1.232299 3.436425,-1.965645 6.833072,-3.997401 10.234619,-6.022583 1.359111,-0.805135 2.718487,-1.609821 4.078125,-2.414063 0.67418,-0.398965 1.34836,-0.79793 2.042969,-1.208984 1.374062,-0.81266 2.748414,-1.62483 4.123047,-2.436524 2.044606,-1.20765 4.087765,-2.417722 6.130859,-3.627929 0.65142,-0.383597 1.30284,-0.767194 1.973999,-1.1624149 4.91962,-2.9155674 9.6583144,-6.0532286 14.3297123,-9.3546753 C -2.1921387,-0.71850586 -2.1921387,-0.71850586 0,0 Z m -3.1921387,65.281494 c 1.1974389,5.817752 2.66708509,11.427288 4.5751953,17.050293 0.2511532,0.752308 0.5023064,1.504617 0.7610703,2.279722 0.8264181,2.472154 1.6591532,4.942131 2.4918594,7.412173 0.5877807,1.754918 1.1751126,3.509988 1.7620239,5.265197 1.2409969,3.708841 2.4845948,7.416801 3.7304078,11.124021 2.892725,8.60832 5.773431,17.22067 8.653931,25.83308 0.631505,1.888 1.263178,3.77594 1.895019,5.66383 5.507105,16.45624 10.931229,32.93748 16.221314,49.46495 2.380618,7.41279 4.845256,14.74075 7.909179,21.90673 4.110528,-1.60042 7.918324,-3.51231 11.75,-5.6875 0.673938,-0.38083 1.347876,-0.76167 2.042237,-1.15405 15.269727,-8.69931 30.287361,-17.87398 45.207762,-27.15845 -4.514574,-6.51843 -9.769161,-11.97791 -15.437499,-17.5 -5.136282,-5.02734 -10.129576,-10.06495 -14.808838,-15.52148 -3.245129,-3.66122 -6.76458,-7.05185 -10.253662,-10.47852 -4.778808,-4.69332 -9.371551,-9.43992 -13.740234,-14.51757 -3.093706,-3.48514 -6.43413,-6.7205 -9.759766,-9.98243 -3.958673,-3.88283 -7.850583,-7.7634 -11.46875,-11.968746 -3.79267,-4.403282 -7.886982,-8.461119 -12.03125,-12.53125 C 11.46372,80.024011 6.7837392,75.241573 2.4309082,70.025635 0.70471903,68.170657 -1.1265105,66.741564 -3.1921387,65.281494 Z"
       fill="#030303"
       transform="translate(2105.1921,2143.7185)"
       id="path10-7"
       style="fill:#ffffff" /><path
       d="M 0,0 C 6.6592721,2.0670897 12.980563,4.6337177 19.335937,7.4921875 20.775936,8.133914 20.775936,8.133914 22.245026,8.7886047 25.290125,10.146803 28.33257,11.510835 31.375,12.875 c 2.033685,0.90793 4.067538,1.815485 6.101562,2.722656 7.459382,3.329858 14.914883,6.667463 22.350739,10.049591 0.973683,0.442804 1.947367,0.885608 2.950556,1.34183 C 63.877818,27.489484 63.877818,27.489484 65,28 61.820822,45.456611 58.470925,62.868941 54.921875,80.253906 c -0.485277,2.385964 -0.970363,4.771967 -1.455276,7.158005 -1.165404,5.731416 -2.333053,11.462372 -3.501868,17.193089 -0.953157,4.67367 -1.905194,9.34756 -2.856546,14.02159 -9.55479,46.94188 -19.158829,93.87369 -28.78299,140.80139 -0.248825,1.2135 -0.49765,2.42701 -0.754015,3.67729 -1.201991,5.86104 -2.405292,11.72181 -3.611555,17.58197 -1.951974,9.48763 -3.899314,18.97578 -5.7930419,28.47524 -0.7428185,3.72554 -1.4911792,7.44995 -2.2397776,11.17433 -0.5027236,2.51539 -0.9962217,5.03247 -1.4894428,7.54973 -0.2975557,1.4816 -0.5955741,2.96311 -0.8941498,4.44451 -0.2518858,1.27382 -0.5037717,2.54764 -0.7632904,3.86005 C 2.5225481,337.11804 2.2651737,338.04497 2,339 c -0.66,0.33 -1.32,0.66 -2,1 -2.6464401,-1.00874 -5.1823318,-2.08532 -7.7539062,-3.26172 -0.7748827,-0.34706 -1.5497654,-0.69413 -2.3481298,-1.05171 -2.490197,-1.11735 -4.975328,-2.24551 -7.460464,-3.37407 -1.648763,-0.74226 -3.297848,-1.4838 -4.947266,-2.22461 -3.067215,-1.37862 -6.132386,-2.76159 -9.195556,-4.14917 C -36.127366,323.93767 -40.562314,321.96608 -45,320 c 1.56101,-11.30755 3.838758,-22.4467 6.125,-33.625 0.735093,-3.59569 1.466343,-7.19213 2.195313,-10.78906 0.168716,-0.81869 0.337432,-1.63737 0.51126,-2.48087 C -35.543311,270.0198 -35,267.15687 -35,264 c -17.444764,-8.02266 -34.907069,-16.00506 -52.445923,-23.82031 -1.570489,-0.69991 -3.140562,-1.40074 -4.710205,-2.10254 -2.203144,-0.98445 -4.407978,-1.96501 -6.613403,-2.94434 -0.645463,-0.2889 -1.290929,-0.5778 -1.955949,-0.87546 -3.70169,-1.63688 -7.41501,-3.03926 -11.27452,-4.25735 -0.64324,0.825 -1.28648,1.65 -1.94922,2.5 -5.1398,6.57497 -10.33219,13.10034 -15.61328,19.5625 -5.61717,6.87639 -11.07163,13.86376 -16.4375,20.9375 -5.26018,-0.59653 -9.48812,-2.32702 -14.25,-4.49219 -0.77634,-0.3466 -1.55268,-0.69321 -2.35254,-1.05032 -2.4688,-1.10433 -4.93306,-2.2184 -7.39746,-3.33249 -1.65598,-0.7415 -3.31222,-1.48239 -4.96875,-2.22266 C -187.88448,256.11425 -187.88448,256.11425 -194,253 c 1.7924,-4.14753 4.53511,-7.55183 7.25,-11.125 0.78866,-1.04474 0.78866,-1.04474 1.59326,-2.1106 5.21941,-6.8921 10.53167,-13.71186 15.85205,-20.52612 2.7847,-3.56704 5.54994,-7.14807 8.30469,-10.73828 3.91531,-5.1008 7.85996,-10.178 11.8125,-15.25 5.13445,-6.59032 10.22655,-13.21122 15.29224,-19.85449 4.51754,-5.9177 9.08707,-11.79384 13.66479,-17.66504 3.9381,-5.05578 7.84463,-10.13444 11.73047,-15.23047 5.0493,-6.62184 10.149256,-13.20247 15.269531,-19.76953 C -89.292372,115.67469 -85.385842,110.59603 -81.5,105.5 -76.450696,98.878163 -71.350744,92.297533 -66.230469,85.730469 -62.292372,80.674686 -58.385842,75.596032 -54.5,70.5 -49.450696,63.878163 -44.350744,57.297533 -39.230469,50.730469 -35.292371,45.674685 -31.38588,40.596004 -27.5,35.5 -21.279946,27.343928 -14.988283,19.244709 -8.6806641,11.15625 -5.7840082,7.439913 -2.892134,3.7198564 0,0 Z M 9,63 C 7.953082,64.256648 6.9502837,65.550053 5.9648437,66.855469 5.3281274,67.695374 4.6914111,68.535278 4.0354004,69.400635 2.9969397,70.780133 2.9969397,70.780133 1.9375,72.1875 c -1.46083289,1.929767 -2.92177348,3.859452 -4.3828125,5.789062 -0.7531348,0.996768 -1.5062695,1.993536 -2.2822266,3.020508 -2.8767798,3.801504 -5.7682339,7.591675 -8.6608889,11.381104 -5.412456,7.090427 -10.803901,14.194636 -16.142822,21.340576 -4.165856,5.55447 -8.394211,11.06197 -12.605469,16.58203 C -45.608826,134.85426 -49.072708,139.4127 -52.5,144 c -4.130099,5.52798 -8.315131,11.01341 -12.5,16.5 -1.388076,1.82288 -2.776098,3.64579 -4.164062,5.46875 -2.257699,2.96454 -4.521409,5.92408 -6.796875,8.875 -1.194961,1.56234 -1.194961,1.56234 -2.414063,3.15625 -0.667734,0.86625 -1.335469,1.7325 -2.023437,2.625 -1.615578,2.39578 -2.572693,4.68643 -3.601563,7.375 5.65149,2.56022 11.303365,5.11958 16.955566,7.67822 1.914164,0.86664 3.828229,1.7335 5.742188,2.60059 5.534802,2.50737 11.072006,5.00931 16.611694,7.50586 2.663894,1.20329 5.324305,2.41404 7.984497,3.62549 1.633668,0.73855 3.267451,1.47684 4.901368,2.21484 0.747968,0.34297 1.495936,0.68594 2.266571,1.03931 4.104296,1.84476 4.104296,1.84476 8.538116,2.33569 3.895605,-18.93213 7.789929,-37.86453 11.6827307,-56.79724 1.8075412,-8.79085 3.6155008,-17.58162 5.424447,-26.37219 1.5767538,-7.66224 3.15272087,-15.32464 4.72774515,-22.98723 C 1.6688368,104.78644 2.5031434,100.72961 3.3383923,96.672985 4.1248471,92.853274 4.9102484,89.033349 5.694849,85.213257 5.9826839,83.812771 6.2709007,82.412364 6.5595322,81.012043 6.9543357,79.096326 7.3476177,77.180296 7.7408295,75.264252 7.961138,74.193128 8.1814465,73.122005 8.4084311,72.018423 8.9960952,69.019924 9.5128292,66.016311 10,63 9.67,63 9.34,63 9,63 Z"
       fill="#030303"
       transform="translate(1088,2170)"
       id="path11-6"
       style="fill:#ffffff" /><path
       d="m 0,0 c 4.4386483,4.0061331 8.6919045,8.1988797 12.932129,12.413086 0.871406,0.865767 1.742812,1.731533 2.640625,2.623535 5.922815,5.989301 11.33286,12.263785 16.546875,18.876465 0.534075,0.674663 1.068149,1.349326 1.618408,2.044434 27.055779,34.597732 52.585065,77.4945 64.381592,119.95557 0.336445,1.13824 0.672891,2.27648 1.019531,3.44921 5.31058,21.26656 3.9568,45.39081 -7.042969,64.48829 -8.297504,12.85621 -18.753763,22.22211 -31.916504,29.86377 -2.344414,1.36419 -4.67708,2.74734 -7.009277,4.13232 -4.713048,2.7964 -9.433425,5.58016 -14.155762,8.36084 -4.63452,2.73037 -9.264619,5.46821 -13.895019,8.20557 -1.811172,1.07035 -3.62237,2.14066 -5.433594,3.21093 -0.904761,0.53464 -1.809521,1.06928 -2.741699,1.62012 -2.973951,1.75712 -5.948138,3.51385 -8.9223633,5.27051 -0.998379,0.58974 -1.9967579,1.17949 -3.0253907,1.78711 -1.9113761,1.12904 -3.8228302,2.25796 -5.73437497,3.38672 -0.86302733,0.50982 -1.72605473,1.01964 -2.61523433,1.54492 -1.1990699,0.70238 -1.1990699,0.70238 -2.4223633,1.41894 -1.6903478,1.01241 -3.3407714,2.09133 -4.9760744,3.19043 -2.128906,1.07032 -2.128906,1.07032 -4.015137,1.01929 -3.209255,-1.44079 -4.402192,-4.11111 -6.062988,-7.06226 -0.369674,-0.63248 -0.739348,-1.26496 -1.120224,-1.91661 -0.798681,-1.36974 -1.591583,-2.74286 -2.379349,-4.11891 -1.253252,-2.1891 -2.520798,-4.36929 -3.792907,-6.54748 -1.309147,-2.24168 -2.617516,-4.48377 -3.921448,-6.72849 -4.065659,-6.99639 -8.246638,-13.9182 -12.461853,-20.82522 -0.701099,-1.15167 -1.402026,-2.30345 -2.102783,-3.45533 -2.088866,-3.4327 -4.180282,-6.86384 -6.272217,-10.29467 -2.793856,-4.58201 -5.5861,-9.16498 -8.375,-13.75 -0.346254,-0.56909 -0.692509,-1.13819 -1.049255,-1.72452 -6.262613,-10.29953 -12.415393,-20.66255 -18.552735,-31.03708 -4.762326,-8.04676 -9.565705,-16.05959 -14.52301,-23.9884 -5.383239,-8.61008 -10.580159,-17.32342 -15.749999,-26.0625 -8.12214,-13.7274 -16.35566,-27.38248 -24.65723,-41.001957 -2.11525,-3.471124 -4.22572,-6.945142 -6.33496,-10.419922 -0.35193,-0.57962 -0.70387,-1.15924 -1.06647,-1.756424 -1.76092,-2.900645 -3.52035,-5.802181 -5.27728,-8.705246 -3.32935,-5.497634 -6.67347,-10.984831 -10.06366,-16.445221 -1.60984,-2.594671 -3.21222,-5.193907 -4.81402,-7.793549 -0.76955,-1.244177 -1.54278,-2.486079 -2.31983,-3.725585 -1.07354,-1.712957 -2.13367,-3.434293 -3.19311,-5.156006 -0.60925,-0.979124 -1.21849,-1.958247 -1.84619,-2.967041 -1.17725,-2.466553 -1.17725,-2.466553 -0.17725,-5.466553 2.1448,-1.368236 4.25419,-2.568485 6.5,-3.75 7.17561,-3.904556 14.19739,-8.022833 21.1875,-12.25 10.67782,-6.442859 21.40871,-12.7882671 32.18921,-19.05761725 7.41265,-4.31179745 7.41265,-4.31179745 14.693601,-8.84082035 C -65.064836,-28.060188 -27.733535,-23.963029 0,0 Z m -90.067871,39.413086 c -1.856998,1.146235 -3.715335,2.290269 -5.574051,3.433716 -1.67959,1.034798 -3.355977,2.074789 -5.032148,3.115112 -3.36863,2.049953 -6.77443,4.009433 -10.2063,5.951172 5.11892,9.055321 10.3789,18.003606 15.812499,26.875 6.306053,10.330105 12.524051,20.709253 18.6875,31.125004 5.988662,10.11596 12.015653,20.20641 18.125,30.25 0.347745,0.57174 0.695489,1.14347 1.053772,1.73254 2.438086,4.00724 4.879271,8.01258 7.321228,12.01746 2.793856,4.582 5.5861,9.16497 8.375,13.75 0.346254,0.56909 0.692508,1.13818 1.049255,1.72451 6.256121,10.28886 12.402883,20.64092 18.5336,31.00486 6.86534,11.60087 13.8719815,23.10489 21.04214491,34.52063 8.10039209,-4.37763 16.13320009,-8.86478 24.12500009,-13.4375 1.115039,-0.62971 2.230078,-1.25942 3.378906,-1.90821 C 39.033,212.45642 50.623809,204.77116 54.682129,190.2373 60.953644,156.91988 28.273365,111.77215 11.119629,84.913086 10.727271,84.297397 10.334912,83.681709 9.9306641,83.047363 7.7301625,79.619203 5.4412123,76.260072 3.1196289,72.913086 2.6847315,72.2721 2.249834,71.631113 1.8017578,70.970703 -4.7941713,61.249682 -11.580691,52.250722 -19.880371,43.913086 c -1.051875,-1.104082 -1.051875,-1.104082 -2.125,-2.230469 -9.336845,-9.142327 -21.988967,-14.91023 -35,-15.082031 -0.708984,-0.029 -1.417969,-0.05801 -2.148438,-0.08789 -11.753936,-0.137411 -21.301933,6.915743 -30.914062,12.90039 z"
       fill="#030303"
       transform="translate(1004.8804,193.08691)"
       id="path12-1"
       style="fill:#ffffff" /><path
       d="m 0,0 c 4.0263756,3.7275986 6.8145543,7.5572817 9.625,12.25 0.884175,1.444771 1.769633,2.888757 2.65625,4.332031 0.451172,0.736861 0.902344,1.473721 1.367188,2.23291 C 15.756182,22.222513 17.938191,25.58032 20.125,28.9375 24.782817,36.104152 29.397054,43.297991 34,50.5 c 4.482283,7.011594 8.970523,14.018788 13.5,21 5.236039,8.070226 10.416076,16.175985 15.597656,24.28125 3.784322,5.91704 7.579439,11.82657 11.402344,17.71875 5.236039,8.07023 10.416076,16.17598 15.597656,24.28125 3.784323,5.91704 7.579537,11.8265 11.402344,17.71875 7.92838,12.22385 15.75514,24.51315 23.60254,36.78906 9.6661,15.12646 9.6661,15.12646 19.39746,30.21094 4.31398,6.65932 8.62198,13.32251 12.91235,19.99707 1.06296,1.65205 2.12898,3.30212 3.19507,4.95215 0.98323,1.5314 0.98323,1.5314 1.98633,3.09375 0.87688,1.36161 0.87688,1.36161 1.77148,2.75073 1.71159,2.83348 3.19295,5.72777 4.63477,8.7063 -8.52661,3.66391 -17.14224,7.00017 -25.87524,10.13184 -1.38937,0.50067 -2.77672,1.00698 -4.16211,1.51855 -2.03418,0.75102 -4.0736,1.48566 -6.11499,2.2168 -1.79426,0.65138 -1.79426,0.65138 -3.62476,1.31592 -3.35568,0.85055 -5.0212,1.09517 -8.2229,-0.18311 -1.73828,-1.90747 -1.73828,-1.90747 -3.3125,-4.42578 -0.59482,-0.93304 -1.18964,-1.86608 -1.80249,-2.82739 -0.62205,-1.00958 -1.24411,-2.01916 -1.88501,-3.05933 -1.32388,-2.09396 -2.64811,-4.18771 -3.97266,-6.28125 -0.6666,-1.06477 -1.33321,-2.12953 -2.02002,-3.22656 -1.92652,-3.05169 -3.89129,-6.07344 -5.87841,-9.08594 -0.60135,-0.91225 -1.2027,-1.82451 -1.82227,-2.7644 -1.146738,-1.73697 -2.295129,-3.47284 -3.445312,-5.20752 -0.509824,-0.77884 -1.019648,-1.55767 -1.544922,-2.36011 -0.449157,-0.68103 -0.898315,-1.36206 -1.361084,-2.06372 C 93,234 93,234 93,232 c -6.307067,2.23159 -12.613876,4.4639 -18.920563,6.69656 -3.316278,1.17378 -6.632788,2.3469 -9.94931,3.51999 -9.489969,3.35817 -18.979324,6.71702 -28.446533,10.13892 -0.995816,0.35919 -0.995816,0.35919 -2.01175,0.72565 -2.964031,1.0693 -5.926307,2.14298 -8.885711,3.22503 -1.512554,0.54648 -1.512554,0.54648 -3.055664,1.10401 -1.277743,0.46611 -1.277743,0.46611 -2.581299,0.94165 C 17,259 17,259 14,259 c 0.08041,0.70794 0.160811,1.41587 0.243652,2.14526 1.378545,12.17387 2.750254,24.34862 3.943848,36.54224 0.08363,0.82846 0.167256,1.65693 0.253418,2.5105 0.473808,4.95867 0.633092,9.82058 0.559082,14.802 -8.265572,3.44004 -16.6770446,6.44805 -25.1159668,9.42871 -2.3426703,0.82877 -4.6826772,1.66478 -7.0227052,2.50098 -1.493984,0.52909 -2.988119,1.05775 -4.482422,1.58593 -0.696854,0.24994 -1.393708,0.49988 -2.111679,0.75739 C -22.62784,330.28837 -24.906923,331 -28,331 c -1.198285,-2.39657 -1.363053,-4.32092 -1.669656,-6.98819 -0.12391,-1.0617 -0.24782,-2.1234 -0.375484,-3.21728 -0.133271,-1.17565 -0.266541,-2.35131 -0.40385,-3.5626 -0.143779,-1.24169 -0.287557,-2.48339 -0.435693,-3.76272 -0.400222,-3.45731 -0.795679,-6.91515 -1.190387,-10.37309 -0.426019,-3.72496 -0.856404,-7.44942 -1.286258,-11.17394 -0.841879,-7.30063 -1.679713,-14.60171 -2.516227,-21.90296 -0.973472,-8.4952 -1.951031,-16.98994 -2.928799,-25.48465 -1.743963,-15.15245 -3.484364,-30.3053 -5.222699,-45.4584 -1.688394,-14.71772 -3.379018,-29.43518 -5.072265,-44.15234 -0.104282,-0.90639 -0.208565,-1.81278 -0.316007,-2.74664 -0.210067,-1.82583 -0.420135,-3.65166 -0.630203,-5.47749 -0.103615,-0.90058 -0.20723,-1.80116 -0.313984,-2.72903 -0.155021,-1.34737 -0.155021,-1.34737 -0.313174,-2.72196 -1.611331,-14.00558 -3.220887,-28.01137 -4.830152,-42.017194 -0.486731,-4.236064 -0.973553,-8.472117 -1.460575,-12.708147 -1.024416,-8.910214 -2.048252,-17.820494 -3.070043,-26.731009 -0.422729,-3.686311 -0.845811,-7.372581 -1.269863,-11.05874 -0.458799,-3.988376 -0.915837,-7.976952 -1.372675,-11.965554 -0.135501,-1.175658 -0.271002,-2.351316 -0.410609,-3.562601 -0.121302,-1.061701 -0.242604,-2.123402 -0.367582,-3.217275 -0.10578,-0.921637 -0.21156,-1.843273 -0.320545,-2.792837 C -64,25 -64,25 -64,23 -42.68242,15.288844 -21.35641,7.6030696 0,0 Z m -14,62 c 0.591678,14.206366 2.529713,28.2755 4.2993278,42.37217 0.4455601,3.5562 0.8864134,7.11298 1.3278695,10.66968 0.7402516,5.95866 1.4836435,11.91691 2.229248,17.8749 0.9555682,7.63588 1.9060068,15.27239 2.8548126,22.90911 0.8193449,6.59451 1.6408693,13.18874 2.46282581,19.78292 0.26272491,2.10833 0.52518286,4.21668 0.78761673,6.32504 0.48902529,3.92729 0.98031354,7.8543 1.47189326,11.78127 0.1444455,1.16111 0.288891,2.32221 0.4377137,3.51851 0.1345559,1.07199 0.2691119,2.14399 0.4077453,3.24847 0.1157689,0.92628 0.2315378,1.85256 0.3508149,2.8069 C 3.0278399,206.20391 3.5031728,209.10041 4,212 c 7.60737,-1.96369 15.003649,-4.29288 22.398437,-6.94141 1.037988,-0.36834 2.075975,-0.73669 3.145417,-1.11619 2.173707,-0.77215 4.346746,-1.54619 6.519134,-2.32204 3.322659,-1.18666 6.647212,-2.36788 9.972168,-3.54809 2.121205,-0.75425 4.242302,-1.5088 6.363281,-2.26368 0.989628,-0.35212 1.979255,-0.70424 2.998871,-1.06703 0.925114,-0.33052 1.850228,-0.66104 2.803376,-1.00157 1.21265,-0.43277 1.21265,-0.43277 2.449798,-0.87428 C 63.119804,191.95586 65.561029,190.98804 68,190 63.756198,182.48282 59.242991,175.19568 54.530762,167.96704 50.751664,162.16952 47.022042,156.34226 43.3125,150.5 38.263716,142.55368 33.201526,134.61613 28.125,126.6875 27.459119,125.64747 26.793237,124.60744 26.107178,123.53589 24.071676,120.35712 22.035892,117.17852 20,114 17.963499,110.82053 15.927106,107.64098 13.891113,104.46118 12.556488,102.37682 11.221532,100.29267 9.8862305,98.20874 6.5846587,93.052844 3.2941501,87.890379 0.0234375,82.714844 -0.61190918,81.710906 -1.2472559,80.706968 -1.9018555,79.672607 -3.0987569,77.779859 -4.2932507,75.885585 -5.4848633,73.989502 -6.0209521,73.142185 -6.557041,72.294868 -7.109375,71.421875 -7.5731152,70.685498 -8.0368555,69.949121 -8.5146484,69.19043 -10.215859,66.681675 -12.096938,64.358013 -14,62 Z"
       fill="#030303"
       transform="translate(1184,63)"
       id="path13-4"
       style="fill:#ffffff" /><path
       d="M 0,0 C 1.6611716,1.4408374 3.3088978,2.8974486 4.9375,4.375 5.5678516,4.9241406 6.1982031,5.4732813 6.8476562,6.0390625 21.324396,19.427574 29.975543,39.373279 31.079834,58.890625 31.552569,72.613167 30.889923,85.206793 26.9375,98.375 c -0.246694,0.830962 -0.493389,1.66192 -0.747559,2.51807 -5.559883,18.35888 -13.479823,35.46951 -22.252441,52.48193 -0.3304834,0.64695 -0.6609668,1.2939 -1.0014648,1.96045 -23.4675422,45.83486 -51.6823452,93.977 -103.0986352,111.00537 -25.15344,7.90791 -48.96319,2.68019 -71.8999,-8.96582 -18.0406,-9.6202 -29.35845,-26.00679 -36,-45 -12.71704,-42.49011 1.25402,-81.86168 21.46484,-119.542969 7.00745,-12.796505 14.4975,-25.282098 22.53516,-37.457031 0.46503,-0.704473 0.93006,-1.408945 1.40918,-2.134766 9.46524,-14.240919 19.79579,-27.483904 31.59082,-39.865234 0.79922,-0.863672 1.59844,-1.727344 2.42188,-2.617187 C -94.077668,-25.499407 -39.686378,-31.901533 0,0 Z m -96.0625,43.375 c -3.792074,4.57561 -7.42832,9.250895 -11,14 -0.50692,0.673213 -1.01385,1.346426 -1.53613,2.040039 -14.18047,18.95742 -26.60601,38.926665 -37.46387,59.959961 -0.44859,0.86448 -0.89719,1.72896 -1.35937,2.61963 -11.43218,22.27173 -24.75843,51.45617 -17.01563,76.94287 2.03411,5.19512 4.57789,9.36007 8.375,13.4375 0.6484,0.70125 1.2968,1.4025 1.96484,2.125 7.50797,7.38577 15.66732,10.00982 26.09766,10.375 6.63998,-0.2189 11.95823,-1.67424 17.9375,-4.5 0.88043,-0.4009 1.76086,-0.8018 2.66797,-1.21484 8.129652,-4.04723 14.645319,-9.73952 21.33203,-15.78516 0.669023,-0.59684 1.338047,-1.19367 2.027344,-1.80859 13.281884,-12.53185 23.27266,-29.66565 32.466797,-45.30079 2.161445,-3.67329 4.383315,-7.2975 6.669922,-10.89453 15.967522,-25.16311 34.445265,-60.395265 27.6875,-91.300778 -3.989203,-12.626373 -11.683461,-20.010314 -23.015625,-26.25 C -59.549631,17.972468 -82.861797,27.873025 -96.0625,43.375 Z"
       fill="#030303"
       transform="translate(2269.0625,178.625)"
       id="path14-2"
       style="fill:#ffffff" /><path
       d="m 0,0 c 22.424698,-0.55249257 44.499576,6.8347903 62.445312,20.121094 -0.676119,3.309352 -1.905321,5.981945 -3.476562,8.964843 -0.754585,1.43944 -0.754585,1.43944 -1.524414,2.907959 -0.535928,1.011351 -1.071856,2.022701 -1.624024,3.064698 -0.541083,1.028752 -1.082167,2.057505 -1.639648,3.117431 -3.866416,7.339373 -7.764965,14.661367 -11.735352,21.945069 -3.807152,-0.56204 -6.257933,-1.611921 -9.4375,-3.75 C 20.820316,48.776783 5.660718,44.601587 -8.5976563,47.804687 -19.631393,51.555224 -28.451226,57.882868 -33.867187,68.308594 c -5.119233,10.605668 -3.474433,23.667582 0.0625,34.511716 4.088733,10.79681 9.954827,19.4809 17.25,28.30078 0.446337,0.54931 0.892675,1.09861 1.352539,1.66455 7.301576,8.94405 15.30497197,17.17609 23.4599605,25.33545 0.4938217,0.49482 0.9876434,0.98964 1.4964294,1.49945 5.7177691,5.71647 11.5279941,11.26391 17.6910701,16.50055 1.106228,0.96137 2.211724,1.92358 3.316407,2.88672 33.732427,29.25455 33.732427,29.25455 76.367191,38.49219 11.50619,-1.31461 19.78279,-6.39527 27.6289,-14.69141 7.23055,-9.16406 7.85864,-19.44408 6.6875,-30.6875 -2.88892,-16.84603 -11.54818,-30.70614 -23,-43 -5.19117,4.12934 -9.62868,8.76807 -14.07617,13.66748 -6.082766,6.66794 -12.500599,12.99481 -18.923828,19.33252 -3.97244,-3.34057 -7.818869,-6.70942 -11.4375,-10.4375 -2.769445,-2.80693 -5.568345,-5.49693 -8.5625,-8.0625 -3.079802,-2.66916 -6.103715,-5.3842 -9.0625,-8.1875 -0.774726,-0.72574 -1.549453,-1.45148 -2.347656,-2.19922 -1.589844,-2.11328 -1.589844,-2.11328 -1.426025,-3.99243 1.070464,-2.71507 2.530344,-4.13848 4.625244,-6.16772 0.777305,-0.76313 1.554609,-1.52625 2.355469,-2.3125 0.818554,-0.78891 1.637109,-1.57781 2.480468,-2.39063 5.098628,-4.95814 10.047786,-9.92438 14.677247,-15.32519 3.491426,-3.958358 7.323419,-7.589118 11.092285,-11.280275 3.139937,-3.100932 6.166324,-6.237353 9.046875,-9.582031 3.793421,-4.399474 7.865691,-8.481228 11.996091,-12.5625 0.73155,-0.727031 1.46309,-1.454063 2.2168,-2.203125 1.7796,-1.76797 3.56151,-3.533539 5.3457,-5.296875 3.89076,1.595843 6.3684,4.109963 9.32422,7.058593 0.5057,0.503787 1.0114,1.007574 1.53243,1.526627 1.07067,1.069314 2.13883,2.14115 3.20463,3.215317 1.59664,1.60718 3.20344,3.203611 4.81177,4.799072 6.49901,6.490709 12.4061,13.206952 18.12695,20.400391 0.87387,1.028676 1.75379,2.052306 2.64453,3.066406 22.39224,25.78134 34.38688,52.49144 32.35547,86.93359 -0.66508,5.22114 -2.14481,10.08103 -4,15 -0.38543,1.0493 -0.77086,2.0986 -1.16797,3.17969 -4.55337,11.58237 -10.12959,20.90699 -18.83203,29.82031 -0.80824,0.85852 -1.61648,1.71703 -2.44922,2.60157 -14.57298,15.14492 -32.79351,23.92029 -53.97265,24.63671 C 68.359986,265.05721 40.0608,247.76403 10.445313,223.12109 9.8583057,222.63463 9.2712988,222.14817 8.6665039,221.64697 -3.6117341,211.45445 -15.222271,200.6404 -26.501221,189.35986 c -1.744855,-1.74265 -3.497604,-3.4771 -5.250732,-5.21142 -6.732789,-6.69923 -12.934309,-13.54761 -18.802734,-21.02735 -0.975399,-1.19342 -1.952916,-2.38512 -2.933594,-3.57422 C -73.282617,134.9352 -86.732747,106.43811 -83.332031,73.99707 -80.424533,51.136354 -68.80014,31.73802 -51.0625,17.058594 -36.039364,5.5626286 -18.648554,0.88395285 0,0 Z"
       fill="#030303"
       transform="translate(670.55469,391.87891)"
       id="path15-3"
       style="fill:#ffffff" /><path
       d="m 0,0 c 8.7871717,6.5314045 16.115024,14.462803 22.5,23.3125 0.430547,0.595627 0.861094,1.191255 1.304687,1.804932 C 26.75,29.359242 26.75,29.359242 26.75,32.75 c -5.901758,2.455159 -11.810559,4.892717 -17.7246094,7.318115 -2.0114358,0.827331 -4.0212188,1.658693 -6.0292968,2.494141 -2.8850787,1.199503 -5.7757721,2.384432 -8.6679688,3.56665 -0.8980536,0.377016 -1.7961072,0.754031 -2.7213745,1.142472 -0.8405695,0.340428 -1.6811385,0.680856 -2.5471805,1.031601 -0.737243,0.304223 -1.474486,0.608447 -2.23407,0.92189 -2.431621,0.615235 -3.747554,0.413581 -6.0755,-0.474869 -1.351562,-1.636719 -1.351562,-1.636719 -2.625,-3.6875 -3.543259,-5.005414 -7.950208,-7.612053 -13.375,-10.3125 -1.05832,-0.542695 -2.116641,-1.085391 -3.207031,-1.644531 C -42.902905,31.244251 -47.239881,31.29712 -52,31.375 c -0.886714,0.0094 -1.773428,0.01885 -2.687012,0.02856 -6.559129,0.150847 -12.442123,0.857953 -18.562988,3.346436 -0.868828,0.340313 -1.737656,0.680625 -2.632812,1.03125 -8.916183,3.939089 -13.953067,9.976352 -17.640625,18.890625 -3.155674,9.025905 -2.771376,19.369703 1.273437,28.078125 7.442424,10.655097 21.587165,14.40793 33.282715,18.647954 3.62346,1.31792 7.24085,2.65128 10.857101,3.98881 22.8658,8.51461 22.8658,8.51461 45.985184,16.30074 24.554496,7.91729 42.380516,23.48998 54.875,46.0625 9.778333,19.82423 11.114541,44.97385 4.365723,65.97363 C 52.886999,245.80827 47.14107,257.0293 38.75,266.75 c -0.571055,0.66645 -1.142109,1.33289 -1.730469,2.01953 -19.323813,20.8895 -49.756319,27.79908 -77.099609,28.90772 -8.564631,0.22263 -16.743354,-0.41801 -25.169922,-1.92725 -1.202695,-0.21141 -2.405391,-0.42281 -3.644531,-0.64063 C -85.14365,291.51802 -100.62755,282.42608 -113.25,271.75 c -0.85465,-0.69352 -1.7093,-1.38703 -2.58984,-2.10156 -9.11138,-7.72151 -17.61455,-17.86854 -22.41016,-28.89844 0,-0.66 0,-1.32 0,-2 31.3204,-13.08827 31.3204,-13.08827 45,-18 0.779238,1.10408 0.779238,1.10408 1.574219,2.23047 5.183781,7.34424 5.183781,7.34424 11.425781,13.76953 0.821777,0.73477 0.821777,0.73477 1.660156,1.48437 13.580232,11.26574 32.97397,10.6728 49.649414,9.32959 13.451581,-1.57932 26.9437489,-7.54025 35.5888675,-18.14209 5.8382685,-8.14974 7.7701945,-16.35701 6.7148435,-26.32421 C 11.219082,191.68258 7.1583456,181.91583 -2.25,174.75 c -10.505734,-5.78389 -21.824782,-9.55112 -33.168488,-13.31082 -3.875388,-1.28542 -7.743333,-2.59259 -11.611923,-3.8983 -2.907034,-0.98085 -5.814986,-1.95895 -8.723007,-2.93688 -7.052417,-2.37546 -14.094738,-4.77826 -21.11792,-7.23889 -1.871748,-0.65338 -3.747215,-1.29608 -5.622803,-1.93835 -24.165279,-8.4955 -44.180449,-25.15974 -55.404299,-48.387698 C -145.95209,77.440279 -146.83077,55.296591 -139,35.5 -129.17434,13.988191 -114.58807,-0.76251901 -92.25,-9.25 -60.824492,-19.779976 -28.084305,-18.290575 0,0 Z"
       fill="#030303"
       transform="translate(1756.25,2298.25)"
       id="path16-2"
       style="fill:#ffffff" /><path
       d="M 0,0 C 0,3.7021461 -0.91624743,4.7141881 -3,7.75 -3.7141406,8.7941406 -4.4282813,9.8382813 -5.1640625,10.914063 -6.1092249,12.276146 -7.0545602,13.638109 -8,15 c -1.3412426,1.945246 -2.68238,3.890564 -4.023438,5.835937 -1.449803,2.096851 -2.900331,4.1932 -4.351562,6.289063 -0.714141,1.032217 -1.428281,2.064434 -2.164062,3.12793 -0.675469,0.970986 -1.350938,1.941972 -2.046875,2.942382 -0.913382,1.315086 -0.913382,1.315086 -1.845215,2.656739 C -24,38 -24,38 -26,40 -29.038236,39.642561 -31.864304,38.759128 -34.8125,37.9375 -44.881022,35.462556 -55.152851,37.546425 -64.125,42.625 -75.601251,50.097479 -84.728421,59.122256 -87.65625,72.820312 -88.665886,82.159442 -86.251255,91.248777 -81,99 c 4.718385,5.70098 9.548779,10.27682 17.101563,11.50391 C -49.883199,110.73698 -36.547491,107.24913 -23,104 c 0.808423,-0.19328 1.616847,-0.38656 2.449768,-0.58569 14.3957996,-3.444638 28.7823092,-6.93428 43.13031,-10.57349 0.723225,-0.182875 1.446449,-0.365751 2.191589,-0.554168 1.946124,-0.492975 3.89146,-0.989057 5.836731,-1.485382 C 46.977663,86.934013 66.206561,86.989064 82,93 c 1.554609,0.560742 1.554609,0.560742 3.140625,1.132812 23.543835,9.115688 39.963605,26.104458 50.054685,48.943358 2.03703,4.87009 3.55661,9.80014 4.80469,14.92383 0.33645,1.35352 0.33645,1.35352 0.67969,2.73437 3.02828,14.68511 2.6719,30.23958 -2.67969,44.26563 -0.37383,1.03383 -0.74766,2.06766 -1.13281,3.13281 C 126.29939,235.49711 101.57991,257.29505 75.5,269.75 49.587656,280.87134 18.679907,281.59152 -7.6301269,271.27637 -12.210984,269.40395 -16.649941,267.35628 -21,265 c 1.458292,-4.22671 3.671705,-7.56721 6.3125,-11.125 4.949347,-6.78395 9.6940328,-13.69534 14.39575195,-20.65283 0.52940186,-0.77972 1.05880371,-1.55945 1.60424805,-2.3628 0.4705078,-0.69641 0.9410156,-1.39283 1.4257813,-2.11035 C 4,227 4,227 6,225 c 3.7270472,0.40914 7.062363,1.70471 10.5625,3 14.039592,4.69132 25.365695,2.74731 38.4375,-3.625 7.265952,-3.70689 13.772224,-8.08626 20,-13.375 0.895898,-0.75926 1.791797,-1.51852 2.714844,-2.30078 C 86.388152,200.73021 92.802138,189.91328 94,178 c 0.08121,-0.79793 0.162422,-1.59586 0.246094,-2.41797 C 94.758474,165.56733 90.590534,157.32773 84,150 76.152559,141.62212 67.594808,136.81885 55.960937,136.42578 c -12.920082,-0.0695 -25.440256,3.96442 -37.834472,7.23621 -3.315638,0.87056 -6.637318,1.71739 -9.9584962,2.56653 -9.368929,2.40182 -18.7247798,4.85273 -28.0712888,7.34033 -0.875123,0.23238 -1.750245,0.46476 -2.651886,0.70418 -1.566091,0.41681 -3.131495,0.83621 -4.695984,1.259 C -48.91786,161.31368 -73.925,159.17213 -94,149 c -0.834023,-0.41766 -1.668047,-0.83531 -2.527344,-1.26563 C -103.99586,143.62846 -109.96884,137.92836 -116,132 c -0.99,-0.93586 -0.99,-0.93586 -2,-1.89063 C -131.38258,116.35505 -137.17166,95.692175 -137,77 -135.6813,50.878399 -122.80056,29.964122 -103.86914,12.623535 -73.732653,-13.553011 -35.438974,-15.475535 0,0 Z"
       fill="#030303"
       transform="translate(2355,2018)"
       id="path17-2"
       style="fill:#ffffff" /><path
       d="m 0,0 c -0.62033807,6.9597119 -2.3817958,13.337803 -4.3671875,20.023437 -0.3462543,1.184649 -0.6925085,2.369297 -1.0492554,3.589844 -0.752183,2.571035 -1.5064963,5.141327 -2.2645263,7.710633 -1.2161467,4.122733 -2.4234868,8.248012 -3.6290898,12.37384 -0.416404,1.424776 -0.832817,2.84955 -1.249237,4.274322 -0.208474,0.713332 -0.416948,1.426663 -0.63174,2.16161 -0.642436,2.1971 -1.285669,4.393965 -1.929112,6.590771 -2.935012,10.023057 -5.847272,20.052479 -8.739227,30.088043 -0.296623,1.029153 -0.296623,1.029153 -0.599239,2.079098 -2.182653,7.574779 -4.358614,15.151452 -6.528202,22.729982 -0.782778,2.73299 -1.565882,5.46588 -2.349121,8.19873 -0.192314,0.67134 -0.384627,1.34268 -0.582768,2.03437 -2.516032,8.77757 -5.077921,17.54015 -7.687466,26.29037 -1.534693,5.14694 -3.048814,10.29989 -4.562957,15.45291 -0.710299,2.39995 -1.42885,4.79748 -2.156372,7.19226 -1.001447,3.29838 -1.973594,6.60416 -2.940125,9.9129 -0.294762,0.94294 -0.589525,1.88588 -0.893219,2.8574 -3.911512,13.6943 -0.08418,28.44289 2.042513,42.22534 0.505159,3.27455 1.003343,6.5501 1.499861,9.82597 1.053562,6.94283 2.115726,13.88432 3.17897,20.82567 1.236465,8.07431 2.469339,16.14914 3.693708,24.2253 0.4899,3.21955 0.986036,6.43809 1.482455,9.65664 0.300385,1.97608 0.600485,3.95219 0.900253,5.92836 0.13869,0.88792 0.27738,1.77583 0.420273,2.69065 0.713226,4.74926 1.082153,9.25895 0.940811,14.06155 -5.443435,0.86033 -10.887768,1.71464 -16.333008,2.56348 -1.850843,0.28937 -3.701433,0.58037 -5.551758,0.87304 -2.665361,0.4213 -5.331588,0.83669 -7.998046,1.25098 -0.82211,0.13124 -1.64422,0.26249 -2.491242,0.39771 C -74.615986,318.73819 -78.692516,319.24976 -83,319 c -1.552534,-1.55253 -1.425353,-3.23477 -1.731995,-5.38757 -0.137189,-0.94759 -0.274379,-1.89517 -0.415725,-2.87146 -0.147512,-1.04825 -0.295024,-2.0965 -0.447007,-3.17652 -0.157925,-1.09759 -0.31585,-2.19519 -0.478561,-3.32605 -0.34426,-2.39356 -0.686832,-4.78737 -1.027946,-7.18138 -0.541762,-3.79237 -1.090904,-7.58359 -1.642601,-11.37452 -0.187049,-1.28532 -0.374098,-2.57064 -0.566815,-3.89491 -0.09466,-0.65042 -0.189314,-1.30084 -0.28684,-1.97096 -1.283923,-8.82721 -2.560374,-17.65543 -3.817061,-26.48655 -0.938027,-6.59123 -1.895084,-13.17945 -2.862907,-19.76637 -0.365297,-2.50918 -0.724074,-5.01931 -1.076126,-7.53037 -0.494751,-3.52352 -1.011903,-7.04309 -1.534111,-10.56264 -0.139415,-1.03205 -0.278831,-2.06411 -0.42247,-3.12744 C -100.33073,205.6746 -102.33453,200.65271 -106,195 c -0.66975,-1.05558 -1.3395,-2.11116 -2.02954,-3.19873 -0.65154,-0.96309 -1.30308,-1.92618 -1.97437,-2.91846 -0.73476,-1.09216 -1.46953,-2.18431 -2.22656,-3.30957 -0.38076,-0.56288 -0.76151,-1.12575 -1.15381,-1.70569 -2.01747,-2.98377 -4.02251,-5.97585 -6.02588,-8.96911 -0.39704,-0.59317 -0.79408,-1.18634 -1.20315,-1.79749 -3.38046,-5.06414 -6.65891,-10.18811 -9.88669,-15.35095 -3.70509,-5.92329 -7.47936,-11.78337 -11.37671,-17.58179 -4.11271,-6.1271 -8.15061,-12.30234 -12.18579,-18.48071 -0.36258,-0.55511 -0.72516,-1.11023 -1.09872,-1.68216 -1.86739,-2.85911 -3.73431,-5.71852 -5.60099,-8.57809 -3.57614,-5.47779 -7.15731,-10.9523 -10.73779,-16.42725 -1.41408,-2.162749 -2.82814,-4.325509 -4.24219,-6.488281 -3.57892,-5.473692 -7.15851,-10.946943 -10.73852,-16.419922 -1.41649,-2.166254 -2.83235,-4.332914 -4.24756,-6.5 -3.54649,-5.430238 -7.1019,-10.854215 -10.67407,-16.267578 -1.0497,-1.595819 -1.0497,-1.595819 -2.12061,-3.223877 -1.33259,-2.025692 -2.66871,-4.049074 -4.00879,-6.069824 -0.58894,-0.896946 -1.17788,-1.793892 -1.78467,-2.718018 -0.52021,-0.787617 -1.04043,-1.575234 -1.57641,-2.386719 C -212,33 -212,33 -212,31 c 15.51,-2.31 31.02,-4.62 47,-7 11.39812,14.81755 11.39812,14.81755 15.375,20.75 0.92744,1.365224 1.85586,2.729785 2.78516,4.09375 0.4668,0.685781 0.9336,1.371563 1.41455,2.078125 2.37798,3.467174 4.80728,6.897663 7.23779,10.328125 4.41559,6.236315 8.80942,12.48729 13.1875,18.75 5.81385,8.313802 11.65391,16.608666 17.51025,24.89258 2.60197,3.68078 5.20232,7.3627 7.80225,11.04492 0.499351,0.70721 0.998701,1.41442 1.513184,2.14307 3.738491,5.29692 7.464251,10.60254 11.174316,15.91943 2.255195,-3.38279 3.235447,-6.69955 4.347412,-10.55615 0.226462,-0.77006 0.452924,-1.54012 0.686249,-2.33351 0.752743,-2.56404 1.498168,-5.13014 2.243683,-7.69628 0.530825,-1.81293 1.06213,-3.62572 1.593887,-5.43838 1.409155,-4.80795 2.812257,-9.617646 4.213974,-14.427767 1.38315,-4.743459 2.771025,-9.485533 4.158936,-14.227601 0.407268,-1.391653 0.407268,-1.391653 0.822763,-2.81142 0.547282,-1.870069 1.094587,-3.740132 1.641916,-5.610187 0.817462,-2.793514 1.63447,-5.587161 2.451428,-8.380822 3.435775,-11.745465 6.884768,-23.486943 10.363771,-35.219684 0.483077,-1.629653 0.965533,-3.25949 1.447338,-4.889519 0.659429,-2.230055 1.321299,-4.45937 1.983965,-6.688465 0.372464,-1.255597 0.744927,-2.511195 1.128678,-3.80484 C -49,9 -49,9 -48,7 c 2.737061,-0.6542969 2.737061,-0.6542969 6.386719,-1.21875 0.653459,-0.103407 1.306918,-0.206814 1.980179,-0.3133545 C -37.527446,5.1368712 -35.4201,4.8183918 -33.3125,4.5 -31.941932,4.285955 -30.571488,4.0711197 -29.201172,3.8554688 -25.136667,3.2196112 -21.069104,2.6056616 -17,2 -16.328862,1.8997754 -15.657723,1.7995508 -14.966248,1.6962891 -3.5541848,0 -3.5541848,0 0,0 Z"
       fill="#030303"
       transform="translate(1497)"
       id="path18-1"
       style="fill:#ffffff" /><path
       d="m 0,0 c 8.8598121,0.62416204 17.674366,1.4628386 26.497803,2.4746094 1.279732,0.1448433 2.559464,0.2896866 3.877975,0.438919 3.466713,0.3924658 6.933088,0.7878375 10.399394,1.1838704 3.64582,0.4161153 7.291919,0.8297724 10.937978,1.2437877 6.111673,0.6943685 12.223131,1.3906015 18.334457,2.0880127 7.054339,0.8050063 14.10899,1.6072177 21.163819,2.4079128 6.812664,0.773259 13.625124,1.548302 20.437484,2.324219 2.88934,0.32907 5.77874,0.657554 8.6682,0.985565 4.03049,0.457655 8.06068,0.917936 12.09085,1.378495 1.1923,0.135094 2.3846,0.270189 3.61304,0.409378 1.10013,0.126141 2.20025,0.252283 3.33372,0.382248 0.951,0.108394 1.902,0.216789 2.88181,0.328468 C 145.17268,16.022153 148.08322,16.49611 151,17 c -0.61357,10.359953 -1.73016,20.58824 -3.0625,30.875 -0.1885,1.47782 -0.37666,2.955684 -0.56445,4.433594 C 146.91937,55.872917 146.46104,59.436621 146,63 c -5.04221,-0.515625 -10.08376,-1.037439 -15.125,-1.5625 -1.2022,-0.12514 -1.2022,-0.12514 -2.42868,-0.252808 -12.20654,-1.27509 -24.40437,-2.622181 -36.598664,-4.008911 -0.695665,-0.07903 -1.391331,-0.158062 -2.108078,-0.239488 -7.038825,-0.799758 -14.077319,-1.602274 -21.114939,-2.412563 -2.022358,-0.232461 -4.044851,-0.463704 -6.067403,-0.694461 -2.503225,-0.285766 -5.0062,-0.573732 -7.508881,-0.864227 -1.119475,-0.12736 -2.23895,-0.254721 -3.392349,-0.38594 -0.975705,-0.11229 -1.951409,-0.224579 -2.95668,-0.340271 C 46.115819,52.010247 43.591909,51.956296 41,52 c -0.165798,1.455792 -0.165798,1.455792 -0.334946,2.940994 -1.041161,9.138181 -2.085714,18.275969 -3.133605,27.413381 -0.538644,4.697843 -1.076084,9.395818 -1.610795,14.094111 -0.515892,4.532554 -1.034919,9.064744 -1.556139,13.596684 -0.198481,1.73066 -0.395825,3.46144 -0.592022,5.19236 -0.274605,2.42093 -0.553219,4.84137 -0.832796,7.26174 -0.08056,0.71857 -0.161122,1.43714 -0.244125,2.17749 C 32.353991,127.60261 31.935086,130.19474 31,133 c 1.787487,-0.0474 1.787487,-0.0474 3.611084,-0.0957 6.590104,0.004 13.075696,0.84988 19.611572,1.62695 1.35472,0.15739 2.709493,0.31432 4.064316,0.47083 3.536638,0.40975 7.072529,0.82563 10.608292,1.24285 3.619761,0.42602 7.240206,0.84614 10.860595,1.26679 C 86.837913,138.33543 93.919193,139.16563 101,140 c -0.5511,9.99921 -1.319272,19.92649 -2.5,29.875 -0.195293,1.7267 -0.195293,1.7267 -0.394531,3.48828 C 97.128276,181.74345 97.128276,181.74345 96,184 c -13.173356,-0.58403 -26.221998,-2.05166 -39.313965,-3.58398 -3.601703,-0.42077 -7.204333,-0.83284 -10.807129,-1.24415 -2.290424,-0.26511 -4.58079,-0.53072 -6.871094,-0.79687 -1.076921,-0.12294 -2.153842,-0.24589 -3.263397,-0.37256 -0.989285,-0.11682 -1.97857,-0.23364 -2.997833,-0.354 -1.306611,-0.15203 -1.306611,-0.15203 -2.639618,-0.30713 C 28,177 28,177 26,176 c -0.03847,0.71216 -0.07694,1.42431 -0.116577,2.15805 -0.784485,12.57323 -2.328832,25.05967 -3.789673,37.56851 -0.287831,2.48146 -0.575466,4.96293 -0.862915,7.44443 -0.599871,5.17256 -1.201906,10.34487 -1.805542,15.517 -0.619483,5.30894 -1.236495,10.61816 -1.850586,15.92773 -0.744324,6.43547 -1.491221,12.87063 -2.240402,19.30553 -0.28463,2.44717 -0.568498,4.89444 -0.851593,7.3418 -0.39466,3.40823 -0.792712,6.81604 -1.191696,10.22377 -0.116394,1.0109 -0.232787,2.02181 -0.352707,3.06335 -0.109314,0.92765 -0.218627,1.8553 -0.331253,2.81107 -0.09365,0.80405 -0.187292,1.60811 -0.283776,2.43653 C 12.012368,301.91575 11.558029,303.93474 11,306 c -10.34286835,-0.41775 -20.5907701,-1.31752 -30.875,-2.5 -1.147104,-0.1306 -2.294209,-0.2612 -3.476074,-0.39575 C -31.612553,302.12915 -31.612553,302.12915 -35,301 c 6.521307,-58.53401 13.303987,-117.03753 20.099606,-175.54023 1.204895,-10.37409 2.407757,-20.7484 3.610195,-31.12277 1.174452,-10.132353 2.3500594,-20.264572 3.5266164,-30.396681 0.6964103,-5.99732 1.3924011,-11.994688 2.0872806,-17.992186 0.6463625,-5.578287 1.2941679,-11.156405 1.9431038,-16.734394 0.2371557,-2.040589 0.4738008,-4.081238 0.709898,-6.12195 0.3218883,-2.781537 0.6456189,-5.562855 0.9698181,-8.344124 0.1391923,-1.208497 0.1391923,-1.208497 0.2811966,-2.441408 C -1.2893201,8.1810849 -0.72410781,4.0916791 0,0 Z"
       fill="#030303"
       transform="translate(1682,2)"
       id="path19-6"
       style="fill:#ffffff" /><path
       d="m 0,0 c 0.93695068,1.6186218 0.93695068,1.6186218 1.7333984,3.737793 0.3033124,0.7910714 0.6066248,1.5821429 0.9191285,2.3971862 0.3157598,0.8603788 0.6315197,1.7207575 0.9568481,2.6072083 0.4966013,1.3189675 0.4966013,1.3189675 1.0032349,2.6645815 0.6980285,1.862489 1.3903192,3.727138 2.0773315,5.593719 1.0552214,2.861395 2.1323387,5.713821 3.2124024,8.565918 0.6745052,1.808099 1.3477252,3.616678 2.0195312,5.425781 0.323857,0.856331 0.647714,1.712661 0.981384,2.594941 0.290704,0.797375 0.581408,1.594751 0.880921,2.41629 0.259645,0.700918 0.51929,1.401835 0.786804,2.123993 C 15,40 15,40 14,43 11.453555,44.125156 9.0043636,45.052468 6.3710937,45.925781 5.5892018,46.195855 4.8073099,46.465929 4.0017242,46.744186 1.4839798,47.611443 -1.0388945,48.462466 -3.5625,49.3125 c -3.273479,1.117183 -6.54485,2.240483 -9.816406,3.363281 -0.802331,0.273936 -1.604661,0.547872 -2.431305,0.830109 C -23.601295,56.176964 -31.307887,59.057702 -39,62 c 8.99829,25.819345 18.502332,51.4525 27.975906,77.10022 4.3949968,11.8997 8.7753905,23.80474 13.149094,35.71228 0.3646838,0.99264 0.7293677,1.98528 1.1051025,3.008 4.1355234,11.25786 8.2620025,22.51899 12.3753665,33.78497 0.579859,1.58807 0.579859,1.58807 1.171432,3.20822 1.956224,5.35826 3.911387,10.7169 5.865433,16.07596 4.131605,11.32419 8.286998,22.63916 12.477465,33.94168 0.741837,2.00135 1.483061,4.00292 2.224058,6.00458 0.363104,0.98079 0.363104,0.98079 0.733544,1.98139 0.485348,1.311 0.970676,2.622 1.455984,3.93301 1.190203,3.214 2.38248,6.42722 3.579072,9.63885 1.324779,3.55754 2.6438,7.11717 3.961762,10.67725 0.398995,1.06614 0.79799,2.13228 1.209076,3.23072 0.35986,0.97518 0.71972,1.95035 1.090484,2.95507 0.315755,0.84909 0.63151,1.69819 0.956833,2.57301 C 51,308 51,308 51,311 c -6.915727,2.60061 -13.833453,5.19584 -20.753418,7.78516 -2.072183,0.77539 -4.144146,1.55137 -6.21582,2.32812 -2.633981,0.98653 -5.269566,1.96863 -7.905762,2.94922 -0.79511,0.2985 -1.59022,0.597 -2.409424,0.90454 C 8.2294383,327 8.2294383,327 6,327 -7.9857533,289.47771 -21.76453,251.8797 -35.493958,214.26297 c -6.736411,-18.45393 -13.51797,-36.89099 -20.319091,-55.32117 -4.912296,-13.31204 -9.809854,-26.62922 -14.66742,-39.96133 -0.441393,-1.21094 -0.882786,-2.42189 -1.337555,-3.66953 -2.109543,-5.78865 -4.216273,-11.57829 -6.318695,-17.369534 -0.749923,-2.059923 -1.499919,-4.119821 -2.25,-6.179687 -0.507832,-1.403525 -0.507832,-1.403525 -1.025924,-2.835404 -0.313308,-0.859094 -0.626616,-1.718189 -0.949418,-2.603317 -0.269751,-0.742968 -0.539502,-1.485937 -0.817428,-2.251419 C -84.008407,81.978774 -84.963645,79.99715 -86,78 c -0.657326,0.238033 -1.314652,0.476067 -1.991898,0.721313 -6.192849,2.241622 -12.387332,4.478663 -18.583692,6.710564 -3.1856,1.147623 -6.37055,2.297011 -9.55405,3.450447 -3.65932,1.325745 -7.32139,2.64379 -10.98364,3.961426 -1.71574,0.623403 -1.71574,0.623403 -3.46614,1.259399 -1.06088,0.380395 -2.12175,0.760789 -3.21477,1.15271 -0.93488,0.337533 -1.86975,0.675066 -2.83296,1.022828 C -139,97 -139,97 -142,97 c -2.16641,-5.63722 -4.32064,-11.278882 -6.46362,-16.925049 -0.73103,-1.920874 -1.46539,-3.840481 -2.20313,-5.758789 -1.05865,-2.754483 -2.10529,-5.513268 -3.14966,-8.273193 -0.33326,-0.859468 -0.66653,-1.718935 -1.0099,-2.604447 -0.30039,-0.800603 -0.60077,-1.601207 -0.91026,-2.426071 -0.2687,-0.703934 -0.53739,-1.407868 -0.81423,-2.133133 C -157,57 -157,57 -156,54 c 1.81125,-0.978729 1.81125,-0.978729 4.22607,-1.843262 0.91293,-0.333222 1.82586,-0.666445 2.76645,-1.009765 1.01052,-0.355298 2.02103,-0.710596 3.06217,-1.076661 1.58816,-0.573793 1.58816,-0.573793 3.2084,-1.159179 3.53338,-1.273286 7.07251,-2.529695 10.61191,-3.786133 2.48016,-0.889833 4.95997,-1.780637 7.43945,-2.672363 6.56094,-2.356954 13.1278,-4.697052 19.69617,-7.033203 3.9183,-1.393686 7.835342,-2.790882 11.752075,-4.188965 10.056642,-3.589176 20.113733,-7.177013 30.178223,-10.744141 11.128467,-3.944717 22.250004,-7.904196 33.340332,-11.955078 1.849584,-0.6734102 3.699192,-1.3467526 5.548828,-2.0200195 3.351383,-1.2202914 6.698272,-2.4519479 10.042969,-3.6904297 C -12.668133,2.2889369 -11.209159,1.7574945 -9.75,1.2265625 -9.0999499,0.98192261 -8.4498999,0.73728271 -7.7801514,0.48522949 -3.3411668,-1.1137223 -3.3411668,-1.1137223 0,0 Z"
       fill="#030303"
       transform="translate(1964,2217)"
       id="path20-8"
       style="fill:#ffffff" /><path
       d="m 0,0 c 14.85,0.33 29.7,0.66 45,1 -1.480652,57.530108 -3.138966,115.05469 -4.850321,172.57836 -0.421141,14.15656 -0.839703,28.31319 -1.253435,42.46996 -0.329922,11.2868 -0.663423,22.57348 -1.000265,33.86007 -0.187302,6.27883 -0.373068,12.5577 -0.555008,18.8367 -0.169136,5.83438 -0.342645,11.66861 -0.51964,17.50276 -0.06412,2.13904 -0.126618,4.27813 -0.187414,6.41726 -0.08281,2.90532 -0.171336,5.81041 -0.261374,8.71552 -0.02296,0.8535 -0.04592,1.70699 -0.06957,2.58636 C 36.114135,309.77173 36.114135,309.77173 35,312 c -5.78424,-0.11819 -11.568306,-0.24243 -17.352295,-0.37231 -1.968063,-0.0433 -3.936163,-0.085 -5.904297,-0.125 -2.8273441,-0.0577 -5.6545007,-0.12142 -8.4816892,-0.18628 -0.8813411,-0.0167 -1.7626822,-0.0334 -2.67073064,-0.0507 -0.82062424,-0.0199 -1.64124846,-0.0399 -2.48674006,-0.0604 -1.0825482,-0.0233 -1.0825482,-0.0233 -2.186966,-0.0471 C -6,311 -6,311 -9,310 c -0.098816,-18.50026 0.1470626,-36.95898 0.7185059,-55.45044 0.077544,-2.61029 0.1547268,-5.22059 0.2315826,-7.8309 0.1853586,-6.27251 0.3750997,-12.54488 0.5664982,-18.81721 0.2235867,-7.33222 0.4427954,-14.66457 0.6619282,-21.99692 0.3913448,-13.0893 0.7867907,-26.17846 1.1845222,-39.26757 0.3845739,-12.65615 0.7658141,-25.31239 1.1435547,-37.96875 0.4135109,-13.85468 0.8287479,-27.70931 1.2470561,-41.563853 0.044673,-1.479627 0.089346,-2.959254 0.1340188,-4.438881 0.021972,-0.727647 0.043944,-1.455294 0.066582,-2.204991 0.1537288,-5.094323 0.3063018,-10.18868 0.4584536,-15.28305 0.2049859,-6.861366 0.4130005,-13.722634 0.6229782,-20.583849 0.076319,-2.507671 0.1517216,-5.015371 0.2261104,-7.5231 0.1021945,-3.43966 0.2078134,-6.8792 0.3142434,-10.318731 0.042322,-1.464137 0.042322,-1.464137 0.085499,-2.957852 C -1.0863677,15.834805 -0.53080765,7.9621147 0,0 Z"
       fill="#030303"
       transform="translate(1495,2289)"
       id="path21-5"
       style="fill:#ffffff" /><path
       d="m 0,0 c 2.2436646,8.2901193 4.478298,16.582597 6.7013864,24.878255 1.0325119,3.851774 2.0681353,7.702656 3.1108695,11.551677 1.0058491,3.713319 2.0035241,7.428746 2.9955271,11.145788 0.380242,1.418981 0.763441,2.837173 1.149616,4.254551 0.539671,1.98272 1.068833,3.967966 1.59558,5.954153 0.304223,1.130291 0.608447,2.260582 0.92189,3.425125 C 17,64 17,64 16,67 13.97302,68.756914 11.948917,70.386805 9.8125,72 8.5311372,72.986833 7.2498904,73.973816 5.96875,74.960937 5.3100391,75.464639 4.6513281,75.96834 3.9726563,76.487305 0.90072256,78.842961 -2.1438195,81.233022 -5.1875,83.625 -6.0507288,84.300428 -6.0507288,84.300428 -6.9313965,84.989502 -11.665619,88.704211 -16.293283,92.534711 -20.890625,96.417969 -23,98 -23,98 -25,98 -28.503682,85.57025 -31.857881,73.106636 -35.076904,60.600098 c -0.496156,-1.922377 -0.995579,-3.843912 -1.498047,-5.764649 -0.738561,-2.823589 -1.467635,-5.649475 -2.19458,-8.476074 -0.224927,-0.853138 -0.449853,-1.706276 -0.681595,-2.585266 C -40.547682,39.463206 -41.51475,35.480575 -41,31 c 1.986315,-2.014247 3.71517,-3.463271 6,-5.0625 1.286546,-0.952553 2.571645,-1.907063 3.855469,-2.863281 0.677241,-0.497095 1.354482,-0.99419 2.052246,-1.506348 3.555845,-2.664602 6.972643,-5.496954 10.404785,-8.317871 1.341763,-1.093289 2.684191,-2.185763 4.027344,-3.2773437 0.626323,-0.5090186 1.252646,-1.0180372 1.897949,-1.5424805 C -10.391037,6.5057762 -8.0159916,4.5872445 -5.625,2.6875 -4.9572656,2.1551172 -4.2895312,1.6227344 -3.6015625,1.0742187 -2,0 -2,0 0,0 Z"
       fill="#030303"
       transform="translate(777,273)"
       id="path22-7"
       style="fill:#ffffff" /></g></svg>
