<svg xmlns="http://www.w3.org/2000/svg" width="24" height="24"><path fill="#FFF" fill-rule="evenodd" d="M3.6 6.6c-.1.11-.26.8-.4 1.7-.2 1.24-.22 1.55-.12 1.88.26.85.8 1.22 1.8 1.22.74 0 1.3-.26 1.9-.88l.48-.49-.04.32c-.02.18.01.43.08.55.12.22.88.6 1.2.6s1.23-.45 1.5-.74q.4-.44.4-.12c0 .08.13.28.29.45.36.39.74.4 1.25.06.31-.21.36-.22.34-.07-.03.14.07.17.63.2.52.02.69 0 .8-.14.08-.1.23-.7.35-1.33l.2-1.16.13.6c.07.33.2.92.3 1.3l.16.7.66.03c.75.03.76.02 1.32-.97.39-.7.34-.72.53.16.13.66 1.06 1.07 1.9.84.53-.14 1.42-.85 1.44-1.13 0-.04-.2-.11-.42-.16l-.43-.1h.41q.4-.03.57-.2c.33-.36.14-1.24-.36-1.7-.38-.35-1.29-.42-1.85-.13-.5.25-.53.26-.46.06.05-.13-.07-.15-.72-.15-.44 0-.84.04-.89.08s-.2.27-.32.52l-.22.45-.02-.32a4 4 0 0 0-.08-.64q-.01-.1-1.63-.1c-.9.01-1.81-.01-2.04-.05q-.84-.12-1.47.79c-.1.15-.12.12-.12-.22q-.01-.71-.56-.71-.31.01-.29-.2c0-.3-.28-.36-.58-.12-.15.12-.46.3-.7.42a2 2 0 0 0-.62.47l-.2.26.05-.3.15-.87.1-.73c0-.18-1.68-.18-1.91 0q-.17.12-.34 1.22c-.2 1.22-.3 1.55-.45 1.55s-.12-.76.05-1.67c.25-1.3.3-1.23-.72-1.23-.75 0-.9.03-1.04.2m8.48 2.67c-.12.11-.08.4.07.52.12.1.17.08.26-.1.18-.33-.08-.67-.33-.42"/></svg>