<svg xmlns="http://www.w3.org/2000/svg" width="24" height="24"><path fill="#FFF" fill-rule="evenodd" d="M3.22 7.73c-.28 1.7-.28 2.15 0 2.57.38.55.71.74 1.42.78.35.02.8-.01 1-.08.48-.15 1.28-.9 1.49-1.37.14-.32.67-2.8.67-3.13 0-.06-.37-.1-.9-.1-.76 0-.9.03-.94.17L5.7 7.85C5.48 9 5.4 9.2 5.1 9.2c-.23 0-.25-.3-.05-1.27l.2-1.1.06-.43H3.45zm5.85-.39c-.03.08-.24.2-.45.26a1.7 1.7 0 0 0-1.03.88c-.12.31-.11.8.01.87q.1.06.1.16t-.1.04c-.18-.11-.4.27-.4.7 0 .46.17.7.63.8q.26.08.27.26c0 .27.5.26.57-.01q.06-.19.26-.2c.35 0 1.06-.49 1.27-.88l.2-.37v.33c0 .76 1.01 1.2 1.63.72q.44-.36.3-.05c-.04.13.07.15.69.15h.73L14 9.6c.13-.77.26-1.4.3-1.4s.19.62.35 1.38l.3 1.37.7.03.71.03.44-.78c.68-1.2.68-1.2.63-.66-.1 1.22 1.17 1.92 2.42 1.34.4-.19 1.03-.76.93-.86-.12-.12-1.35-.17-1.42-.06-.12.2-.46.13-.46-.09 0-.18.08-.2 1.03-.22l1.02-.03.03-.57c.03-.53 0-.6-.3-.94-.29-.3-.42-.37-.86-.42-.75-.07-1.14.04-1.63.46l-.44.37.23-.32c.12-.17.22-.34.22-.37 0-.04-.37-.06-.82-.04l-.82.03-.27.64-.27.65-.07-.67-.07-.67h-1.54c-1.32 0-1.54.02-1.54.15s-.04.12-.22-.05q-.21-.2-.64-.2-1 0-1.5 1.55-.12.37-.13.19a.5.5 0 0 0-.17-.35c-.14-.11-.13-.14.1-.26.34-.18.42-.53.22-.92-.14-.26-.22-.31-.52-.31s-.36-.03-.31-.2c.04-.16 0-.2-.23-.2-.15 0-.3.07-.33.14M12 9.14c-.16.2-.09.6.12.64s.53-.42.44-.63c-.07-.2-.4-.2-.56 0"/></svg>