<?xml version="1.0" encoding="UTF-8" standalone="no"?>
<svg
   viewBox="0 0 24 24"
   width="24pt"
   height="24pt"
   version="1.1"
   id="svg1"
   sodipodi:docname="wagamama.svg"
   inkscape:version="1.3 (0e150ed6c4, 2023-07-21)"
   inkscape:dataloss="true"
   xmlns:inkscape="http://www.inkscape.org/namespaces/inkscape"
   xmlns:sodipodi="http://sodipodi.sourceforge.net/DTD/sodipodi-0.dtd"
   xmlns="http://www.w3.org/2000/svg"
   xmlns:svg="http://www.w3.org/2000/svg">
  <defs
     id="defs1" />
  <sodipodi:namedview
     id="namedview1"
     pagecolor="#ffffff"
     bordercolor="#000000"
     borderopacity="0.25"
     inkscape:showpageshadow="2"
     inkscape:pageopacity="0.0"
     inkscape:pagecheckerboard="0"
     inkscape:deskcolor="#d1d1d1"
     inkscape:document-units="pt"
     inkscape:zoom="23.09375"
     inkscape:cx="15.978349"
     inkscape:cy="16"
     inkscape:window-width="1920"
     inkscape:window-height="974"
     inkscape:window-x="-11"
     inkscape:window-y="1609"
     inkscape:window-maximized="1"
     inkscape:current-layer="svg1" />
  <g
     id="g12"
     style="isolation:isolate"
     transform="translate(-0.03585924,0.55683377)">
    <g
       id="g11">
      <path
         d="M 13.418,7.898 H 12.911 L 12.761,8.461 12.599,7.898 H 12.092 L 12.507,7.55 12.346,7 12.761,7.349 13.164,7 13.014,7.55 Z"
         fill="#d10a0a"
         id="path3" />
      <path
         d="m 5.291,8.957 h -0.38 l -0.185,1.408 c -0.023,0.16 -0.034,0.321 -0.046,0.482 v 0 c 0,-0.094 -0.034,-0.429 -0.046,-0.509 L 4.473,8.957 H 4 l 0.403,2.279 H 4.911 L 5.049,10.284 C 5.072,10.097 5.084,9.922 5.095,9.735 h 0.012 c 0.011,0.201 0.023,0.388 0.057,0.576 l 0.15,0.925 H 5.81 L 6.202,8.957 h -0.45 l -0.15,1.381 C 5.591,10.405 5.556,10.74 5.556,10.847 v 0 C 5.545,10.673 5.533,10.512 5.51,10.351 Z"
         fill="#ffffff"
         id="path4" />
      <path
         d="m 7.297,10.284 c -0.012,0.215 0.034,0.603 -0.231,0.603 -0.161,0 -0.207,-0.12 -0.207,-0.295 0,-0.093 0.011,-0.201 0.069,-0.268 0.127,-0.107 0.254,-0.201 0.369,-0.295 z m 0.484,0.952 C 7.758,11.129 7.746,11.021 7.746,10.914 V 9.574 C 7.758,9.265 7.712,8.89 7.101,8.89 6.536,8.89 6.409,9.198 6.421,9.627 h 0.426 c 0,-0.201 0.035,-0.335 0.242,-0.335 0.116,0 0.185,0.027 0.208,0.121 0.034,0.188 -0.035,0.295 -0.219,0.389 -0.358,0.16 -0.669,0.295 -0.669,0.804 0,0.469 0.15,0.684 0.519,0.684 0.15,0 0.288,-0.108 0.392,-0.295 h 0.011 c -0.011,0.08 0,0.16 0.023,0.241 z"
         fill-rule="evenodd"
         fill="#ffffff"
         id="path5" />
      <path
         d="M 8.173,11.491 C 8.196,11.866 8.45,12 8.749,12 9.36,12 9.476,11.625 9.476,11.169 V 8.957 H 9.026 V 9.185 H 9.014 C 8.957,8.984 8.83,8.89 8.622,8.89 8.334,8.903 8.161,9.078 8.15,9.708 v 0.817 c 0.011,0.362 0.092,0.765 0.472,0.765 0.196,-0.014 0.323,-0.081 0.415,-0.295 l 0.012,0.013 v 0.255 c 0,0.174 -0.035,0.362 -0.231,0.362 -0.057,0 -0.103,-0.014 -0.138,-0.041 C 8.646,11.571 8.622,11.531 8.622,11.491 Z M 9.026,9.802 v 0.683 c 0,0.268 -0.081,0.402 -0.219,0.402 -0.138,0 -0.196,-0.174 -0.196,-0.388 V 9.735 C 8.622,9.507 8.599,9.292 8.807,9.292 c 0.219,0 0.219,0.335 0.219,0.51 z"
         fill-rule="evenodd"
         fill="#ffffff"
         id="path6" />
      <path
         d="m 10.732,10.284 c 0,0.215 0.046,0.603 -0.219,0.603 -0.173,0 -0.219,-0.12 -0.219,-0.295 0,-0.093 0.011,-0.201 0.081,-0.268 0.115,-0.107 0.253,-0.201 0.357,-0.295 z m 0.496,0.952 c -0.023,-0.107 -0.035,-0.215 -0.035,-0.322 v -1.34 c 0,-0.309 -0.034,-0.684 -0.645,-0.684 -0.577,0 -0.692,0.308 -0.692,0.737 h 0.438 c -0.012,-0.201 0.023,-0.335 0.23,-0.335 0.127,0 0.196,0.027 0.208,0.121 0.046,0.188 -0.023,0.295 -0.219,0.389 -0.357,0.16 -0.669,0.295 -0.669,0.804 0,0.469 0.162,0.684 0.531,0.684 0.149,0 0.288,-0.108 0.392,-0.295 v 0 c 0,0.08 0,0.16 0.034,0.241 z"
         fill-rule="evenodd"
         fill="#ffffff"
         id="path7" />
      <path
         d="m 12.104,8.957 h -0.45 v 2.279 h 0.45 V 9.735 c 0,-0.255 0.011,-0.429 0.219,-0.443 0.207,0 0.219,0.174 0.219,0.376 v 1.568 h 0.461 V 9.735 c 0,-0.269 0.034,-0.429 0.219,-0.443 0.207,0 0.219,0.201 0.219,0.402 v 1.542 H 13.89 V 9.373 C 13.89,9.131 13.752,8.89 13.418,8.89 13.187,8.89 13.049,8.997 12.957,9.185 12.934,8.971 12.703,8.89 12.542,8.89 12.392,8.903 12.207,8.944 12.104,9.185 v 0 z"
         fill="#ffffff"
         id="path8" />
      <path
         d="m 15.124,10.284 c -0.012,0.215 0.035,0.603 -0.231,0.603 -0.161,0 -0.207,-0.12 -0.207,-0.295 0,-0.093 0.011,-0.201 0.069,-0.268 0.127,-0.107 0.254,-0.201 0.369,-0.295 z m 0.484,0.952 C 15.585,11.129 15.573,11.021 15.573,10.914 V 9.574 C 15.585,9.265 15.539,8.89 14.928,8.89 c -0.565,0 -0.692,0.308 -0.68,0.737 h 0.426 c 0,-0.201 0.035,-0.335 0.242,-0.335 0.116,0 0.185,0.027 0.208,0.121 0.035,0.188 -0.035,0.295 -0.219,0.389 -0.357,0.16 -0.68,0.295 -0.68,0.804 0,0.469 0.161,0.684 0.53,0.684 0.15,0 0.288,-0.108 0.392,-0.295 h 0.012 c -0.012,0.08 0,0.16 0.023,0.241 z"
         fill-rule="evenodd"
         fill="#ffffff"
         id="path9" />
      <path
         d="m 16.484,8.957 h -0.461 v 2.279 h 0.461 V 9.735 c 0,-0.255 0.012,-0.429 0.219,-0.443 0.208,0 0.219,0.174 0.219,0.376 v 1.568 h 0.45 V 9.735 c 0,-0.269 0.034,-0.429 0.23,-0.443 0.196,0 0.219,0.201 0.219,0.402 v 1.542 h 0.45 V 9.373 c 0,-0.242 -0.15,-0.483 -0.473,-0.483 -0.23,0 -0.369,0.107 -0.461,0.295 C 17.303,8.971 17.084,8.89 16.922,8.89 16.772,8.903 16.588,8.944 16.484,9.185 v 0 z"
         fill="#ffffff"
         id="path10" />
      <path
         d="m 19.516,10.298 c -0.012,0.214 0.034,0.603 -0.231,0.603 -0.173,0 -0.207,-0.121 -0.207,-0.295 0,-0.094 0,-0.201 0.069,-0.268 0.115,-0.121 0.254,-0.201 0.369,-0.295 z M 20,11.249 C 19.977,11.142 19.965,11.035 19.965,10.928 V 9.587 C 19.977,9.279 19.931,8.903 19.32,8.903 c -0.565,0 -0.692,0.309 -0.68,0.738 h 0.426 c 0,-0.201 0.035,-0.335 0.231,-0.335 0.127,0 0.196,0.026 0.219,0.12 0.034,0.188 -0.035,0.295 -0.231,0.376 -0.346,0.174 -0.668,0.295 -0.668,0.817 0,0.469 0.161,0.684 0.53,0.684 0.15,0 0.288,-0.107 0.392,-0.295 h 0.011 c -0.011,0.08 -0.011,0.161 0.023,0.241 z"
         fill-rule="evenodd"
         fill="#ffffff"
         id="path11" />
    </g>
  </g>
</svg>
