<svg xmlns="http://www.w3.org/2000/svg" width="24" height="24"><path fill="#FFF" fill-rule="evenodd" d="M6.57 6.64A146 146 0 0 0 3.1 8.87q-.09.1.63.54l3.55 2.22 2.81 1.78.47-.3.47-.3.48.3.48.3.5-.32.5-.3.48.3c.44.27.51.29.7.16l2.1-1.3c1.76-1.09 2.24-1.39 4.07-2.55l.68-.43-.63-.4-1.63-1.02L14.65 5a3 3 0 0 0-.74-.39c-.07 0-.32.11-.56.25l-.43.26-.5-.3-.5-.32-.47.3-.47.3-.48-.3a3 3 0 0 0-.51-.28zm-.37.86c0 .06.14.76.31 1.55l.32 1.45h.37c.44 0 .48-.07.57-.92.03-.32.1-.6.13-.63.04-.03.13.31.2.76l.13.8.4-.03.4-.03.28-1.3c.38-1.77.38-1.77-.08-1.73l-.37.03-.13.69c-.07.38-.14.7-.16.73-.03.02-.1-.3-.18-.7l-.14-.72h-.69l-.16.75c-.17.77-.22.76-.35-.05-.11-.71-.14-.75-.5-.75-.2 0-.35.05-.35.1m3.6 1.45v1.55h1.6v-.35c0-.34 0-.35-.4-.35-.36 0-.4-.03-.4-.25s.04-.25.35-.25c.33 0 .35-.02.35-.35s-.02-.35-.35-.35c-.3 0-.35-.03-.35-.25s.04-.25.4-.25c.4 0 .4 0 .4-.35V7.4H9.8zm1.87-1.48c-.04.03-.07.2-.07.35 0 .27.02.28.45.28.25 0 .45.02.45.04l-.45 1.12c-.25.59-.45 1.1-.45 1.15s.5.09 1.1.09h1.1v-.7h-1.09l.5-1.11c.27-.61.49-1.15.49-1.2 0-.1-1.93-.12-2.03-.02"/></svg>