<svg xmlns="http://www.w3.org/2000/svg" width="24" height="24"><path fill="#FFF" fill-rule="evenodd" d="M11.39 3.19c-.36.35-.48.68-.33.84.04.03.21-.1.39-.29.41-.43.73-.44 1.42-.02.61.37.7.56.16.32-.66-.3-1.05-.3-1.41.01-.35.3-.44.62-.14.5.39-.16.55-.17.92-.05l.4.13-.43.27c-.52.34-.72.56-.92 1.03-.4.97.05 2.27.92 2.63.5.21 1.23.17 1.73-.09q.9-.49.9-1.71c0-.98-.4-1.66-1.1-1.86-.43-.12-.49.08-.12.48.62.66.56 2.3-.1 2.76-.8.56-1.7-.46-1.54-1.77.08-.7.35-1.06 1.2-1.6.41-.27.77-.56.8-.65.08-.18-.18-.42-.45-.42-.09 0-.23-.08-.3-.17-.31-.37-.93-.73-1.27-.73-.27 0-.43.09-.73.39M3.07 4.87q-.18.17.12.28c.13.04.34.5.76 1.65.32.88.64 1.68.71 1.78q.3.41.7-.68l.3-.8c.04-.09.17.17.33.64.44 1.29.71 1.27 1.11-.07.9-3 1-3.1 1-.93 0 1.32-.02 1.56-.15 1.56a.15.15 0 0 0-.15.15c0 .12.15.15.75.15q1.12 0 .55-.3c-.17-.1-.2-.2-.2-.85V6.7h1.2v.79c0 .72-.02.8-.21.84-.44.12-.05.27.67.27.56 0 .74-.03.74-.14q-.02-.12-.2-.19c-.19-.05-.2-.14-.2-1.55 0-1.44 0-1.5.21-1.55.12-.03.2-.12.17-.19q-.03-.13-.74-.13c-.57 0-.7.03-.72.18q-.02.16.12.17c.13 0 .16.12.16.55v.55H8.9v-.54c0-.46.03-.54.21-.6q.2-.04.17-.18c-.03-.1-.33-.14-1.08-.16q-1.6-.05-1.07.32c.23.17.22.22-.14 1.4l-.32 1.01-.33-1c-.39-1.14-.4-1.3-.16-1.44q.18-.1.06-.2c-.16-.17-1.36-.1-1.42.07-.02.07.05.16.15.18q.2.07.35.55c.15.46.15.52-.05 1.14-.12.36-.24.65-.28.65-.03 0-.23-.47-.43-1.06-.36-1-.4-1.34-.16-1.34q.09-.02.1-.15c0-.12-.14-.15-.68-.15-.38 0-.72.03-.75.07m12.07.05q-.05.1.1.23c.23.17.25 3.15.01 3.15a.15.15 0 0 0-.15.15c0 .13.21.15 1.3.15h1.3l.15-.36c.18-.44.18-.44.02-.44-.08 0-.22.1-.32.2-.16.17-.29.2-.74.18l-.56-.03-.03-1.4c-.02-1.33-.02-1.4.2-1.56q.18-.16.14-.28c-.1-.15-1.33-.15-1.42 0m3 0q-.05.12.1.24c.23.17.25 3.15.01 3.15a.15.15 0 0 0-.15.15c0 .13.21.15 1.33.15h1.33l.12-.32c.15-.42-.01-.62-.24-.3-.14.2-.23.23-.77.2l-.62-.03v-1.4l.45-.05q.46-.05.45-.2 0-.15-.45-.2c-.4-.05-.45-.08-.48-.34-.02-.16 0-.4.02-.52.06-.2.12-.24.5-.24q.43 0 .7.21c.35.27.49.14.3-.29l-.13-.32h-1.2q-1.2 0-1.27.12M8.15 9.05l-.37.1c-.37.07-.88.53-1.05.92-.07.19-.14.6-.14.94-.02 1.27.76 2.06 1.94 1.96q1.06-.09 1.47-.91c.16-.34.2-.37.26-.2.35.96 1.51 1.4 2.49.95.48-.22.69-.44.9-.94.36-.86.06-2.08-.62-2.53a1.9 1.9 0 0 0-2.64.6c-.22.39-.22.4-.31.15a2 2 0 0 0-.78-.84 3 3 0 0 0-1.15-.2m6.85.01c-.6.1-1 .26-1 .4q.02.12.15.14c.13 0 .15.22.15 1.4 0 1.2-.02 1.4-.16 1.4q-.15 0-.12.18c.07.36 1.68.55 2.35.27.5-.21.72-.42.94-.9.44-.96.1-2.28-.71-2.7a4 4 0 0 0-1.6-.19m3.45.02c-.28.06-.62.4-.7.68-.1.4.21.89.86 1.34.7.49.93.8.84 1.1-.08.25-.48.42-.8.34a1.4 1.4 0 0 1-.5-.35c-.4-.4-.58-.25-.42.33l.12.41.7.04c.9.04 1.35-.16 1.52-.7.2-.61 0-1.02-.77-1.6-.7-.52-.8-.63-.8-.9 0-.4.89-.37 1.1.04.15.27.4.24.39-.04-.03-.6-.1-.68-.74-.7a5 5 0 0 0-.8 0M4 9.25q.02.13.15.2c.12.04.15.32.15 1.6 0 1.32-.02 1.56-.15 1.56a.15.15 0 0 0-.15.15c0 .12.15.15.75.15.57 0 .75-.03.75-.14q-.02-.12-.2-.19c-.18-.05-.2-.14-.2-.8V11l.42-.03q.45-.03.46-.2c.03-.15-.04-.18-.43-.18H5.1l.03-.52.03-.53.47-.03c.37-.02.5.01.67.2.29.3.44.13.26-.3L6.4 9.1H5.2c-.97 0-1.21.03-1.21.14m4.1.3c-.64.32-.9 1.52-.53 2.38.54 1.2 1.82.63 1.83-.82 0-1.15-.63-1.9-1.3-1.56m3.57-.01c-.75.25-.93 2.28-.25 2.84.55.46 1.27.09 1.48-.76.3-1.26-.36-2.38-1.23-2.08m3.6-.01c-.16.12-.17.29-.15 1.53l.03 1.4.26.09c.35.12.78-.1 1.03-.53.38-.65.22-1.98-.27-2.4-.23-.18-.7-.23-.9-.09M3.82 13.47c-.07.03-.2.18-.28.35-.2.38-.1.81.23 1.08.25.2.4.2 8.34.2h8.08l.27-.24a.83.83 0 0 0 .04-1.2l-.23-.26H12.1c-4.49.01-8.22.04-8.29.07m1.16.35c.07.07.12.24.12.38s-.05.31-.12.38q-.16.13.17.12c.23 0 .26-.03.17-.12-.14-.14-.16-.48-.03-.48q.09.02.21.15c.12.14.15.14.3 0q.36-.35.28.15c-.04.25-.01.3.16.3s.21-.06.21-.5q0-.84-.5-.3l-.18.2-.22-.2c-.23-.22-.79-.3-.57-.08m3.18.34c-.31.56-.3.54-.06.54q.2 0 .14-.15-.08-.16.21-.15.3 0 .21.15-.07.15.2.15c.13 0 .24-.03.24-.07 0-.15-.45-.87-.56-.9-.07-.02-.24.17-.38.43m2.43-.43-.02.5c-.02.41 0 .47.18.47s.2-.05.17-.45c-.03-.35 0-.45.11-.45.24 0 .32.22.14.35-.15.1-.14.14.06.33.13.12.32.22.42.22.18 0 .18-.01-.02-.21-.18-.18-.2-.25-.1-.4s.09-.22-.03-.3c-.13-.07-.89-.14-.9-.06m2.65.47c0 .43.03.5.2.5s.2-.07.2-.5-.02-.5-.2-.5c-.17 0-.2.07-.2.5m.68-.23c-.11.24-.1.3.09.5.12.13.3.23.42.23.18 0 .16-.04-.13-.27l-.34-.27.3-.23.28-.23h-.25q-.25 0-.37.27m2.05-.16c.15.16.16.61 0 .77-.1.1 0 .12.44.12.4 0 .57-.04.62-.15.06-.17-.1-.2-.19-.05-.03.06-.15.1-.26.1-.24 0-.26-.37-.02-.43q.25-.05 0-.06c-.23-.01-.22-.31.01-.31.1 0 .24.06.31.13q.15.16.09-.03-.03-.15-.59-.18c-.43-.03-.52 0-.41.1m2.39-.05c-.15.14-.06.23.12.13q.18-.09.25-.1c.12 0 .06.79-.06.83q-.1.05.17.06c.3.01.3 0 .27-.44-.04-.42.08-.6.23-.35.1.16.25.12.19-.05q-.04-.15-.58-.15c-.3 0-.56.03-.6.07"/></svg>