<svg xmlns="http://www.w3.org/2000/svg" width="24" height="24"><path fill-rule="evenodd" d="m5.8 7.46-.16.43q-.02.14.04.2c.05.03.18.35.3.7l.21.63-.54-.04-.55-.03-.15.44c-.08.25-.13.46-.1.49s.1-.14.16-.37l.12-.41h1.13l.16.5c.15.45.15.5 0 .53-.1.03.17.05.58.05s.67-.02.58-.05c-.16-.04-.18-.2-.18-1.59V7.4h.33c.5 0 .7.27.66.9-.02.27 0 .5.04.5.14 0 .57-.49.57-.65 0-.6-.52-.85-1.67-.84-.48.01-.78.04-.65.06.21.04.22.08.22 1.15 0 .61-.02 1.1-.04 1.07a17 17 0 0 1-.47-1.2c-.23-.62-.43-1.16-.45-1.18s-.08.1-.14.25m3.55.26c-.26.75-.28.86-.12.6.13-.23.14-.22.35.36.12.32.22.62.22.66 0 .03-.18.06-.4.06-.42 0-.52-.12-.38-.49.05-.13.06-.26.04-.29q-.05-.02-.12.22c-.07.3-.06.3-.45.1-.17-.08-.36-.13-.42-.1q-.09.04.15.14c.34.14.45.51.3 1-.06.2-.1.38-.07.4q.05.04.05-.08.02-.1.25.14c.24.26.68.35.8.16q.05-.09-.1-.03-.35.12-.35-.64V9.5h.38c.37 0 .38.01.57.55.18.55.18.55.6.54.22 0 .34-.03.28-.06-.1-.03-.13-.46-.13-1.64V7.3h-.55l.03.82c.04.97-.05.95-.38-.07a5 5 0 0 0-.3-.78c-.03-.04-.14.17-.25.45m-6.15.06v.47l.15-.32c.17-.4.45-.55 1-.51l.45.03-.58 1c-.32.55-.73 1.26-.9 1.58l-.33.57H5.6v-.95l-.2.36c-.1.2-.25.39-.32.41-.17.06-1.38.1-1.38.05 0-.03.36-.67.8-1.43l.91-1.56c.09-.17.01-.18-1.06-.18H3.2zm8.85 1.17v1.65h.3c.3 0 .3 0 .27-.52l-.03-.53.2.3c.19.32.67.75.82.75q.05-.01-.16-.24c-.28-.28-.4-.92-.33-1.8.06-.67.2-1 .53-1.15q.16-.09.07-.1c-.21-.01-.62.3-.88.68l-.25.36.03-.53c.03-.52.03-.52-.27-.52h-.3zm2.46-1.5c.35.2.49.62.49 1.52 0 .8-.17 1.34-.47 1.52q-.15.1-.07.1c.19.01.64-.4.9-.8.3-.48.31-1.05.04-1.58-.22-.44-.73-.91-.98-.9q-.18 0 .1.14m.98-.07q.01.08.08.17c.05.06.33.77.62 1.58.3.81.56 1.44.6 1.4.16-.18.3-.76.2-.87a8 8 0 0 1-.43-1.06l-.42-1.12c-.07-.18-.65-.26-.65-.1m2.3.18c-.13.32-.12.43 0 .24q.1-.17.08 1.33l-.03 1.47h.55V7.3h-.25q-.26-.01-.35.26m1.08 1.39.03 1.65h.24c.25 0 .25-.01.25-.85 0-.47.04-.85.1-.85.23 0 .59.2.63.37.03.1.05-.07.05-.37 0-.42-.01-.5-.08-.32q-.09.23-.4.22h-.3V7.3h-.55zm1.42-1.5c.14.07.3.26.37.42.12.28.12.28.13-.14V7.3h-.37c-.38 0-.38 0-.13.15m.58 2.47c-.02.12-.18.33-.37.45l-.34.23H21v-.45c0-.48-.06-.6-.12-.23"/></svg>