<svg xmlns="http://www.w3.org/2000/svg" width="24" height="24"><path fill="#FFF" fill-rule="evenodd" d="m5.25 8.83-.6 1.62-.48.03c-.26.02-.47 0-.47-.02s.39-.72.86-1.53c.48-.81.89-1.51.9-1.55.03-.05-.5-.08-1.15-.08H3.1v.5c0 .28.04.5.1.5.05 0 .1-.1.1-.2 0-.38.44-.7.95-.7.25 0 .45.03.45.06s-.36.67-.8 1.42c-.43.76-.82 1.45-.86 1.55-.06.16.05.17 1.25.17H5.6v-.5c0-.27-.04-.5-.1-.5q-.09.02-.1.18c0 .24-.28.62-.45.62-.12 0-.11-.08.03-.45l.16-.45h.52c.51 0 .51 0 .68.43.2.53.2.55-.01.6-.1.03.18.05.62.05s.72-.02.63-.05c-.15-.04-.18-.16-.18-.79V9h.43c.24 0 .48.05.55.12.26.26.06 1.33-.26 1.41-.1.03-.01.05.18.05q.32 0 .23-.04-.1-.06-.06-.2.04-.16.25.11c.2.26.6.33.88.14q.2-.12-.05-.07c-.33.04-.45-.1-.45-.58 0-.44 0-.44.35-.44.29 0 .37.05.45.25.22.57.22.73.03.78-.1.03.14.05.52.05.39 0 .62-.02.53-.05-.15-.04-.18-.16-.18-.79V9H12v.74c0 .7-.02.75-.22.79-.13.02.1.04.52.04.41 0 .65-.02.53-.04-.2-.04-.23-.1-.23-.46v-.42l.21.33c.24.37.85.72 1.24.72.35 0 .78-.23 1.08-.6.33-.38.39-.38.35.02-.02.25-.09.34-.28.4q-.26.06.3.06c.3 0 .45-.03.33-.05-.22-.04-.23-.07-.23-1.39 0-.74.02-1.34.04-1.34s.27.65.56 1.45.55 1.44.57 1.41c.02-.02.26-.66.53-1.42l.49-1.39v1.32c.01 1.29 0 1.32-.21 1.36-.13.02.6.05 1.6.06l1.82.01-.01-.52q-.02-.47-.06-.32c-.07.38-.48.66-1.03.72l-.5.05v-.77c0-.74 0-.76.24-.76.14 0 .32.1.4.22.15.21.16.2.16-.37 0-.55-.01-.58-.13-.35a.5.5 0 0 1-.4.28l-.27.03V7.4h.43c.47 0 .68.15.86.6.09.22.1.2.1-.22l.01-.48h-2.99l-.37 1.15A8 8 0 0 1 17 9.6c-.03 0-.24-.5-.46-1.13l-.41-1.12-.54-.01c-.3-.01-.44 0-.31.03.18.04.22.1.22.46v.42l-.24-.36c-.27-.4-.79-.69-1.2-.69s-1 .35-1.25.72l-.2.33v-.42c-.01-.35.02-.42.22-.46.12-.02-.12-.04-.53-.04s-.65.02-.53.04c.21.04.23.1.23.74v.69h-1.2v-.7c0-.64.02-.7.2-.7q.2 0 .17-.08a2 2 0 0 0-.74-.03c-.37.03-.58.06-.45.09.2.03.22.08.21.7v.67l-.25-.65-.3-.8c-.07-.21-.19-.02-.5.85l-.3.83c-.01.02-.12 0-.23-.03-.2-.06-.2-.08.09-.35.36-.34.38-.6.06-.97-.23-.26-.3-.28-1.26-.33a4 4 0 0 0-1.07.03q-.02.07.16.07c.2 0 .21.05.2 1.03v1.02l-.4-1.12A6 6 0 0 0 5.9 7.2c-.04 0-.34.73-.66 1.63m8.5-1.41a.7.7 0 0 0-.45.35c-.18.4-.24 1.5-.1 2 .15.6.33.75.88.71.7-.05.87-.34.87-1.53 0-.79-.03-.98-.2-1.21q-.37-.5-1-.32M7.4 8.1v.7h.4c.33 0 .42-.04.51-.24.15-.32.03-.93-.2-1.06-.11-.05-.31-.1-.45-.1-.25 0-.26.02-.26.7m11 .85c0 1.48 0 1.55.2 1.55s.2-.07.2-1.55 0-1.55-.2-1.55-.2.07-.2 1.55M5.46 8.62l-.22.63c-.03.06.15.1.41.1.52 0 .52-.03.18-.84l-.18-.42zm3.8-.42c-.4 1-.38 1.15.12 1.18.32.01.35-.15.13-.78q-.18-.54-.25-.4"/></svg>