<svg xmlns="http://www.w3.org/2000/svg" width="24" height="24"><path fill="#FFF" fill-rule="evenodd" d="M10.53 2.19a5.8 5.8 0 0 0-3.89 3.56 4 4 0 0 0-.29 1.9c0 1 .04 1.31.23 1.86a5.77 5.77 0 0 0 8.07 3.26 6.6 6.6 0 0 0 2.48-2.57A5.5 5.5 0 0 0 16 3.7a5.4 5.4 0 0 0-2.66-1.55 6.4 6.4 0 0 0-2.82.04M7.17 5.77a5 5 0 0 0-.37 2.01c0 .77.07 1.09.24 1.15.43.17 6.42-1.44 7.02-1.87.1-.07.15-.2.12-.28-.05-.12-.37-.16-1.6-.2a15 15 0 0 1-5.1-1.03q-.16-.09-.31.22m-1.6 8.1c-.04.03-.07.19-.07.34 0 .25.04.28.4.3l.4.04-.4.52a2 2 0 0 0-.4.72c0 .2.06.21 1 .21 1.1 0 1.2-.05 1-.55q-.11-.3-.22-.17c-.12.12-.68.17-.68.06 0-.03.18-.29.4-.56s.4-.61.4-.74c0-.23-.02-.24-.88-.24-.49 0-.92.03-.95.07m2.2.5c-.04.03-.07.42-.07.85V16h.7c.68 0 .7 0 .7-.24 0-.21-.05-.25-.37-.29l-.38-.04.38-.01c.32-.02.37-.05.37-.26s-.05-.25-.37-.29l-.38-.04.38-.01c.32-.02.37-.05.37-.27 0-.24-.02-.25-.63-.25-.35 0-.67.03-.7.07m1.47.07c-.1.26 0 .5.24.54.2.03.22.1.22.53 0 .48 0 .49.3.49s.3-.01.3-.5c0-.43.03-.49.22-.52.18-.02.23-.1.23-.33v-.3l-.73-.03c-.57-.02-.74 0-.78.12m1.66.21c0 .28.04.35.2.35.17 0 .2.07.2.5v.5h.7v-.5c0-.43.03-.5.2-.5.16 0 .2-.07.2-.35v-.35h-1.5zm1.67-.28c-.04.03-.07.42-.07.85V16h.7c.68 0 .7 0 .7-.24 0-.21-.05-.25-.37-.29l-.38-.04.38-.01c.32-.02.37-.05.37-.26s-.05-.25-.37-.29l-.38-.04.38-.01c.32-.02.37-.05.37-.27 0-.24-.02-.25-.63-.25-.35 0-.67.03-.7.07m1.5 0c-.04.03-.07.42-.07.85V16h.35c.27 0 .35-.04.35-.17 0-.17.01-.17.14 0 .08.1.26.17.45.17.34 0 .36-.02.2-.32q-.12-.2 0-.31c.2-.2.13-.74-.11-.91-.22-.16-1.18-.22-1.31-.1m1.73.78V16h.71l-.03-.82-.03-.83-.32-.03-.33-.03zm1.13-.02-.31.83.3.03q.3.03.4-.12c.11-.2.37-.2.44-.01.06.15.74.22.74.07 0-.04-.13-.41-.29-.82-.27-.71-.3-.75-.62-.78l-.34-.03z"/></svg>