<?xml version="1.0" encoding="UTF-8" standalone="no"?><!-- Generator: Gravit.io --><svg xmlns="http://www.w3.org/2000/svg" xmlns:xlink="http://www.w3.org/1999/xlink" style="isolation:isolate" viewBox="0 0 24 24" width="24pt" height="24pt"><defs><clipPath id="_clipPath_EE4lp37vvsZjhLwtTcxU9TXkjFe4SQqn"><rect width="24" height="24"/></clipPath></defs><g clip-path="url(#_clipPath_EE4lp37vvsZjhLwtTcxU9TXkjFe4SQqn)"><clipPath id="_clipPath_2MKjZiNvvSWjB58iWdKoFIfRDba2Kpvq"><rect x="0" y="0" width="24" height="24" transform="matrix(1,0,0,1,0,0)" fill="rgb(255,255,255)"/></clipPath><g clip-path="url(#_clipPath_2MKjZiNvvSWjB58iWdKoFIfRDba2Kpvq)"><g><path d=" M 18.593 16.825 C 20.37 15.006 21.563 12.624 21.563 9.901 C 21.563 4.623 17.278 0.338 12 0.338 C 6.722 0.338 2.438 4.623 2.438 9.901 C 2.438 12.657 3.526 14.954 5.474 16.888 L 5.473 16.888 L 11.611 23.662 L 18.605 16.825 L 18.593 16.825 L 18.593 16.825 Z " fill="rgb(174,174,174)"/></g></g><g><path d=" M 13.382 4.069 C 11.791 3.891 9.961 4.06 8.013 4.564 C 7.75 4.632 7.659 4.674 7.578 4.768 C 7.492 4.866 7.482 4.915 7.464 5.296 C 7.455 5.473 7.43 5.962 7.408 6.382 C 7.387 6.803 7.368 7.184 7.367 7.229 C 7.363 7.487 7.59 7.705 7.89 7.736 C 8.019 7.749 8.145 7.72 8.305 7.642 C 8.947 7.322 9.634 7.05 10.166 6.906 C 10.483 6.821 10.942 6.74 11.306 6.704 C 11.668 6.669 11.911 6.675 12.189 6.724 C 12.414 6.764 12.557 6.814 12.709 6.907 C 12.925 7.038 13.05 7.178 13.119 7.367 C 13.24 7.696 13.169 8.112 12.936 8.454 C 12.796 8.66 12.509 8.944 12.206 9.179 C 12.15 9.223 10.974 9.961 9.594 10.816 C 8.215 11.673 7.062 12.394 7.035 12.42 C 6.959 12.491 6.916 12.58 6.908 12.687 C 6.896 12.864 6.804 14.698 6.807 14.73 C 6.816 14.839 6.908 14.987 7.015 15.063 C 7.084 15.113 7.187 15.155 7.275 15.171 C 7.318 15.178 7.538 15.185 7.772 15.187 C 8.004 15.189 8.414 15.192 8.685 15.194 C 8.955 15.197 9.606 15.202 10.131 15.206 C 10.657 15.211 11.324 15.216 11.612 15.218 C 11.901 15.22 12.252 15.224 12.392 15.224 C 12.534 15.225 12.975 15.229 13.375 15.232 C 13.774 15.236 14.217 15.24 14.357 15.24 C 14.499 15.241 14.94 15.245 15.34 15.248 C 16.392 15.257 16.431 15.257 16.515 15.241 C 16.611 15.223 16.735 15.154 16.796 15.084 C 16.892 14.973 16.89 14.987 16.938 14.064 C 17.002 12.831 17.001 12.859 16.97 12.774 C 16.907 12.598 16.735 12.463 16.526 12.426 C 16.467 12.416 16.259 12.411 15.878 12.41 C 15.277 12.41 14.436 12.408 13.603 12.407 C 13.322 12.407 12.992 12.406 12.87 12.406 C 12.749 12.405 12.649 12.403 12.646 12.4 C 12.644 12.398 12.968 12.166 13.368 11.885 C 14.81 10.871 15.181 10.593 15.703 10.143 C 16.438 9.51 16.823 8.99 17.043 8.341 C 17.28 7.635 17.234 6.777 16.923 6.122 C 16.506 5.241 15.649 4.61 14.406 4.265 C 14.206 4.21 13.599 4.094 13.382 4.069 Z " fill="rgb(255,255,255)"/></g></g></svg>