<?xml version="1.0" encoding="UTF-8" standalone="no"?>
<svg
   viewBox="0 0 24 24"
   width="24pt"
   height="24pt"
   version="1.1"
   id="svg23906"
   sodipodi:docname="bruntwood.svg"
   xml:space="preserve"
   inkscape:version="1.2.2 (732a01da63, 2022-12-09)"
   inkscape:export-filename="bruntwood.svg"
   inkscape:export-xdpi="96"
   inkscape:export-ydpi="96"
   xmlns:inkscape="http://www.inkscape.org/namespaces/inkscape"
   xmlns:sodipodi="http://sodipodi.sourceforge.net/DTD/sodipodi-0.dtd"
   xmlns="http://www.w3.org/2000/svg"
   xmlns:svg="http://www.w3.org/2000/svg"><defs
     id="defs23910" /><sodipodi:namedview
     id="namedview23908"
     pagecolor="#ffffff"
     bordercolor="#000000"
     borderopacity="0.25"
     inkscape:showpageshadow="2"
     inkscape:pageopacity="0.0"
     inkscape:pagecheckerboard="0"
     inkscape:deskcolor="#d1d1d1"
     inkscape:document-units="pt"
     showgrid="false"
     inkscape:zoom="12.125"
     inkscape:cx="6.5979381"
     inkscape:cy="25.237113"
     inkscape:window-width="1920"
     inkscape:window-height="974"
     inkscape:window-x="-11"
     inkscape:window-y="-11"
     inkscape:window-maximized="1"
     inkscape:current-layer="svg23906" /><g
     transform="matrix(6.6215291e-4,0,0,-6.6215291e-4,3.518537,11.591515)"
     fill="#000000"
     stroke="none"
     id="g24090"
     style="fill:#ffffff"><path
       d="M 10,1985 V 50 h 255 255 v 191 192 l 81,-86 C 895,32 1285,-71 1720,50 c 98,28 237,94 333,159 265,178 451,476 524,836 23,114 25,459 4,575 -50,274 -168,514 -343,696 -245,255 -543,373 -908,361 -117,-4 -162,-10 -235,-31 -211,-62 -390,-180 -533,-351 l -42,-50 v 838 837 H 265 10 Z m 1390,214 c 340,-42 588,-278 666,-635 21,-96 24,-330 5,-419 -68,-329 -253,-547 -541,-637 -65,-20 -96,-23 -225,-23 -129,0 -160,3 -225,23 -288,90 -471,305 -541,637 -19,88 -16,322 5,420 83,382 363,625 746,644 14,0 64,-4 110,-10 z"
       id="path24072"
       style="fill:#ffffff" /><path
       d="m 25080,3083 v -838 l -47,55 c -240,279 -573,418 -916,381 -500,-54 -867,-346 -1036,-824 -62,-176 -75,-268 -75,-512 0,-190 3,-234 22,-322 118,-541 482,-911 984,-999 123,-22 319,-21 422,1 228,48 440,174 583,344 l 58,69 3,-194 2,-194 h 255 255 v 1935 1935 h -255 -255 z m -582,-904 c 211,-54 397,-214 492,-423 60,-132 75,-212 74,-416 0,-219 -14,-285 -93,-445 -103,-208 -271,-342 -500,-397 -72,-17 -107,-19 -211,-15 -142,6 -212,23 -318,75 -147,73 -260,189 -337,347 -70,142 -89,238 -89,435 0,137 3,180 22,253 85,338 326,562 652,607 85,11 217,2 308,-21 z"
       id="path24074"
       style="fill:#ffffff" /><path
       d="m 11400,3010 v -380 h -215 -215 v -225 -225 l 213,-2 212,-3 6,-755 c 5,-675 7,-763 23,-829 95,-401 349,-582 816,-584 142,0 207,8 343,39 l 67,16 v 230 c 0,219 -1,229 -19,223 -108,-34 -318,-46 -423,-24 -106,23 -196,86 -238,169 -55,107 -55,111 -55,840 v 675 l 373,3 372,2 v 225 225 h -375 -375 v 380 380 h -255 -255 z"
       id="path24076"
       style="fill:#ffffff" /><path
       d="m 4355,2660 c -263,-56 -471,-198 -624,-429 l -36,-54 -3,226 -2,227 H 3435 3180 V 1340 50 l 258,2 257,3 5,750 c 5,665 8,757 23,813 38,143 106,262 198,346 66,61 190,127 284,151 152,39 335,43 470,10 33,-8 63,-14 68,-15 4,0 7,125 7,279 v 279 l -31,6 c -65,13 -273,5 -364,-14 z"
       id="path24078"
       style="fill:#ffffff" /><path
       d="m 9395,2674 c -170,-35 -250,-66 -361,-140 -90,-59 -177,-148 -236,-238 l -38,-59 v 196 197 H 8500 8240 V 1340 50 l 258,2 257,3 6,810 c 4,723 7,817 22,875 68,256 189,397 397,462 63,19 96,23 205,22 114,0 139,-4 208,-27 220,-76 344,-239 392,-514 12,-71 15,-217 15,-859 V 50 h 260 260 v 809 c 0,658 -3,831 -15,923 -37,287 -118,470 -280,634 -136,137 -285,215 -482,249 -78,14 -297,19 -348,9 z"
       id="path24080"
       style="fill:#ffffff" /><path
       d="m 18074,2661 c -409,-72 -746,-327 -919,-693 -88,-188 -124,-343 -132,-573 -25,-704 374,-1231 1038,-1372 116,-24 399,-24 521,0 269,54 478,164 663,351 227,228 348,505 374,852 32,426 -102,818 -374,1089 -188,189 -421,305 -700,350 -122,20 -344,18 -471,-4 z m 453,-481 c 371,-95 603,-452 580,-895 -8,-144 -42,-278 -103,-397 -39,-75 -66,-111 -139,-184 -99,-100 -170,-145 -300,-191 -74,-25 -92,-27 -235,-28 -135,0 -165,3 -230,23 -268,85 -455,285 -532,572 -19,74 -22,108 -22,265 0,214 14,281 95,444 44,90 64,117 138,191 98,98 181,150 296,186 150,47 303,51 452,14 z"
       id="path24082"
       style="fill:#ffffff" /><path
       d="m 21085,2666 c -499,-82 -881,-420 -1020,-901 -46,-161 -58,-269 -52,-475 4,-133 11,-209 26,-271 123,-530 489,-892 1009,-996 64,-13 134,-17 262,-17 254,1 410,37 620,145 444,228 704,714 676,1266 -31,635 -415,1104 -1011,1238 -97,22 -404,29 -510,11 z m 433,-487 c 309,-79 529,-352 572,-714 36,-302 -60,-600 -252,-782 -156,-146 -334,-210 -562,-200 -350,15 -610,225 -711,572 -61,213 -45,499 40,691 62,139 187,282 316,357 167,98 396,128 597,76 z"
       id="path24084"
       style="fill:#ffffff" /><path
       d="m 5233,1753 c 3,-855 4,-880 25,-968 57,-242 140,-401 279,-537 117,-113 252,-185 426,-225 113,-26 358,-23 462,6 204,55 360,168 484,350 l 51,75 V 252 50 h 260 260 v 1290 1290 h -260 -260 v -757 c 0,-591 -3,-778 -14,-849 -45,-299 -192,-488 -429,-551 -98,-26 -262,-22 -359,10 -237,76 -371,273 -407,601 -7,59 -11,374 -11,821 v 725 h -255 -256 z"
       id="path24086"
       style="fill:#ffffff" /><path
       d="m 12965,2618 c 2,-7 155,-573 340,-1258 185,-685 341,-1260 346,-1277 l 11,-33 h 319 319 l 9,23 c 4,12 129,488 277,1059 148,570 271,1034 274,1031 3,-2 127,-478 275,-1056 l 271,-1052 322,-3 322,-2 10,22 c 7,18 658,2421 685,2531 l 7,27 -248,-2 -248,-3 -263,-1054 c -144,-579 -263,-1054 -265,-1056 -2,-2 -124,473 -272,1056 l -270,1059 h -328 -327 l -10,-35 c -5,-19 -125,-491 -267,-1048 -141,-556 -260,-1015 -263,-1019 -4,-4 -125,467 -270,1047 l -263,1055 h -249 c -194,0 -247,-3 -244,-12 z"
       id="path24088"
       style="fill:#ffffff" /></g></svg>
