<?xml version="1.0" encoding="UTF-8" standalone="no"?>
<svg
   viewBox="0 0 24 24"
   width="24pt"
   height="24pt"
   version="1.1"
   id="svg1017"
   sodipodi:docname="exapansive.svg"
   xml:space="preserve"
   inkscape:version="1.2.2 (732a01da63, 2022-12-09)"
   inkscape:export-filename="exapansive.svg"
   inkscape:export-xdpi="96"
   inkscape:export-ydpi="96"
   xmlns:inkscape="http://www.inkscape.org/namespaces/inkscape"
   xmlns:sodipodi="http://sodipodi.sourceforge.net/DTD/sodipodi-0.dtd"
   xmlns="http://www.w3.org/2000/svg"
   xmlns:svg="http://www.w3.org/2000/svg"><defs
     id="defs1021" /><sodipodi:namedview
     id="namedview1019"
     pagecolor="#ffffff"
     bordercolor="#000000"
     borderopacity="0.25"
     inkscape:showpageshadow="2"
     inkscape:pageopacity="0.0"
     inkscape:pagecheckerboard="0"
     inkscape:deskcolor="#d1d1d1"
     inkscape:document-units="pt"
     showgrid="false"
     inkscape:zoom="12.125"
     inkscape:cx="3.4639175"
     inkscape:cy="18.061856"
     inkscape:window-width="1920"
     inkscape:window-height="974"
     inkscape:window-x="-11"
     inkscape:window-y="-11"
     inkscape:window-maximized="1"
     inkscape:current-layer="svg1017" /><g
     id="svgg"
     transform="matrix(0.75,0,0,0.75,-142.60824,-71.615511)"><path
       id="path0"
       d="m 199.27415,100.96545 c -0.0255,0.0295 -0.0597,0.0885 -0.0763,0.13098 -0.0162,0.0428 -0.071,0.0776 -0.1214,0.0776 -0.063,0 -0.0876,0.0244 -0.0789,0.0776 0.009,0.0526 -0.0117,0.0734 -0.0643,0.0643 -0.0532,-0.009 -0.0776,0.016 -0.0776,0.0788 0,0.0504 -0.0348,0.10522 -0.0776,0.12142 -0.0425,0.016 -0.10228,0.054 -0.13283,0.084 -0.0625,0.0617 -0.0765,0.5037 -0.0162,0.5037 0.0215,0 0.0502,0.042 0.0635,0.093 0.0144,0.055 0.0449,0.0802 0.0746,0.0619 0.0294,-0.0184 0.0601,0.007 0.0744,0.0622 0.0135,0.051 0.052,0.093 0.0855,0.093 0.0338,0 0.0613,0.0399 0.0613,0.0884 0,0.0487 0.0149,0.0861 0.0332,0.0834 0.0908,-0.0144 0.13575,0.0135 0.1578,0.098 0.0135,0.0512 0.0444,0.0808 0.0686,0.0659 0.0242,-0.0148 0.0569,0.013 0.0723,0.0619 0.0156,0.0491 0.0569,0.0893 0.0919,0.0893 0.0348,0 0.0632,0.0399 0.0632,0.0885 0,0.0489 0.0152,0.0864 0.0332,0.0834 0.0914,-0.0144 0.14399,0.0117 0.14399,0.0717 0,0.0364 0.0297,0.0664 0.0664,0.0664 0.0597,0 0.0861,0.0526 0.0717,0.14373 -0.003,0.0184 0.0346,0.0332 0.0831,0.0332 0.0489,0 0.0887,0.0287 0.0887,0.0635 0,0.0348 0.0402,0.0763 0.089,0.0917 0.0492,0.0156 0.077,0.0484 0.0622,0.0725 -0.0152,0.0242 0.0146,0.055 0.0656,0.0682 0.0847,0.0223 0.11265,0.0672 0.0983,0.15808 -0.003,0.018 0.0346,0.0332 0.0834,0.0332 0.0486,0 0.0885,0.0285 0.0885,0.0632 0,0.0351 0.0401,0.0763 0.0893,0.0919 0.0489,0.0155 0.0768,0.048 0.0619,0.0723 -0.0149,0.0242 0.0127,0.0545 0.0616,0.0674 0.0489,0.0128 0.0988,0.0611 0.11104,0.10759 0.0123,0.0465 0.054,0.0844 0.0927,0.0844 0.0388,0 0.0704,0.0298 0.0704,0.0664 0,0.0364 0.03,0.0664 0.0664,0.0664 0.037,0 0.0664,0.0393 0.0664,0.0885 0,0.0593 0.0295,0.0887 0.0887,0.0887 0.0486,0 0.0885,0.0189 0.0885,0.042 0,0.0608 0.20058,0.26778 0.25957,0.26778 0.0279,0 0.0523,0.0152 0.0547,0.0332 0.0322,0.24335 0.0212,0.27391 -0.1432,0.39532 -0.093,0.0688 -0.16949,0.14983 -0.17002,0.18039 -5.3e-4,0.0306 -0.0276,0.0553 -0.0603,0.0553 -0.0326,0 -0.0826,0.051 -0.11105,0.11317 -0.0282,0.0625 -0.0712,0.10097 -0.0956,0.0861 -0.0242,-0.0151 -0.0441,0.002 -0.0441,0.0367 0,0.0351 -0.0399,0.0741 -0.0885,0.0869 -0.0487,0.0128 -0.0884,0.0526 -0.0884,0.0887 0,0.0359 -0.042,0.0763 -0.093,0.0896 -0.0512,0.0136 -0.0813,0.0433 -0.067,0.0668 0.0144,0.0232 -0.0135,0.0526 -0.0622,0.065 -0.0518,0.0138 -0.0879,0.0606 -0.0879,0.11449 0,0.0646 -0.0202,0.0834 -0.0692,0.0649 -0.0462,-0.0178 -0.0773,0.005 -0.0938,0.0678 -0.0135,0.0518 -0.0499,0.0943 -0.0808,0.0943 -0.0308,0 -0.0664,0.0399 -0.0792,0.0884 -0.0128,0.0489 -0.055,0.0887 -0.0938,0.0887 -0.0388,0 -0.0703,0.0297 -0.0703,0.0664 0,0.0364 -0.025,0.0667 -0.0555,0.0675 -0.0303,5.3e-4 -0.11316,0.0792 -0.18384,0.17481 -0.0707,0.0956 -0.15037,0.16977 -0.1772,0.16498 -0.0265,-0.005 -0.0427,0.0178 -0.0361,0.0502 0.007,0.0327 -0.0281,0.0699 -0.0776,0.0826 -0.0494,0.013 -0.0898,0.0499 -0.0898,0.0818 0,0.0322 -0.0399,0.071 -0.0885,0.0863 -0.0486,0.0156 -0.0885,0.0569 -0.0885,0.0917 0,0.0348 -0.0268,0.0635 -0.0595,0.0635 -0.0324,0 -0.0823,0.0508 -0.11077,0.11317 -0.0308,0.0675 -0.072,0.10042 -0.10256,0.0816 -0.0314,-0.0194 -0.0388,-0.0119 -0.0191,0.0199 0.0191,0.0311 -0.0128,0.068 -0.0818,0.0943 -0.0625,0.0237 -0.11344,0.0733 -0.11344,0.11051 0,0.0372 -0.0199,0.0675 -0.0441,0.0675 -0.0274,0 -0.0444,0.21412 -0.0444,0.55339 0,0.33951 0.017,0.55364 0.0444,0.55364 0.0242,0 0.0441,0.0285 0.0441,0.0632 0,0.0351 0.0399,0.0763 0.0887,0.0916 0.0486,0.0154 0.0884,0.0565 0.0884,0.0917 0,0.0348 0.0298,0.0632 0.0664,0.0632 0.0369,0 0.0664,0.0393 0.0664,0.0887 0,0.0589 0.0294,0.0885 0.0885,0.0885 0.0494,0 0.0887,0.0295 0.0887,0.0664 0,0.0364 0.0297,0.0664 0.0664,0.0664 0.0597,0 0.0861,0.0526 0.0715,0.144 -0.003,0.0181 0.0348,0.0332 0.0834,0.0332 0.0589,0 0.0885,0.0295 0.0885,0.0885 0,0.0487 0.0152,0.0861 0.0332,0.0834 0.0914,-0.0146 0.144,0.0117 0.144,0.0715 0,0.0367 0.0297,0.0664 0.0664,0.0664 0.037,0 0.0664,0.0393 0.0664,0.0887 0,0.0571 0.0295,0.0885 0.0834,0.0885 0.0476,0 0.0938,0.0402 0.10759,0.093 0.0135,0.0512 0.0444,0.0808 0.0685,0.0659 0.0242,-0.0151 0.0569,0.0127 0.0723,0.0619 0.0156,0.0492 0.0569,0.0893 0.0919,0.0893 0.0348,0 0.0632,0.0399 0.0632,0.0885 0,0.0589 0.0294,0.0885 0.0887,0.0885 0.0491,0 0.0885,0.0295 0.0885,0.0664 0,0.0367 0.0297,0.0664 0.0664,0.0664 0.038,0 0.0664,0.0399 0.0664,0.0932 0,0.0656 0.0202,0.0858 0.0678,0.0674 0.0455,-0.0176 0.0821,0.0112 0.11077,0.0863 0.0237,0.0625 0.0638,0.0996 0.0901,0.0834 0.0261,-0.0162 0.0582,0.0123 0.0717,0.0638 0.0133,0.051 0.0518,0.093 0.0855,0.093 0.0337,0 0.0611,0.0399 0.0611,0.0884 0,0.059 0.0295,0.0885 0.0887,0.0885 0.0492,0 0.0884,0.0295 0.0884,0.0664 0,0.0367 0.0298,0.0664 0.0664,0.0664 0.0364,0 0.0664,0.0319 0.0664,0.0707 0,0.0388 0.0399,0.081 0.0884,0.0938 0.0808,0.0209 0.10814,0.0667 0.0938,0.15674 -0.003,0.0181 0.0247,0.0332 0.0613,0.0332 0.0787,0 0.0879,0.0698 0.0151,0.11477 -0.0335,0.0208 -0.0401,0.0104 -0.0189,-0.0306 0.0178,-0.0342 0.004,-0.0274 -0.0311,0.0154 -0.0351,0.0425 -0.0864,0.0773 -0.11397,0.0773 -0.028,0 -0.0505,0.0229 -0.0505,0.0504 0,0.0279 -0.0351,0.0792 -0.0776,0.11397 -0.0518,0.0425 -0.0555,0.0545 -0.0112,0.0361 0.0367,-0.0151 0.0176,0.008 -0.0425,0.0521 -0.0601,0.0438 -0.13922,0.11451 -0.17588,0.15701 -0.0369,0.0425 -0.094,0.0777 -0.12726,0.0777 -0.0329,0 -0.0516,0.0247 -0.0413,0.0553 0.0231,0.0667 -0.1671,0.25452 -0.25744,0.25452 -0.0353,0 -0.064,0.0306 -0.064,0.068 0,0.0372 -0.0297,0.0792 -0.0661,0.093 -0.0364,0.0141 -0.0573,0.0396 -0.0467,0.0571 0.0106,0.0172 -0.0393,0.0661 -0.11104,0.10839 -0.0717,0.0425 -0.13045,0.0959 -0.13045,0.11875 0,0.0232 -0.0298,0.042 -0.0664,0.042 -0.0364,0 -0.0664,0.0226 -0.0664,0.0504 0,0.0276 -0.0348,0.0789 -0.0773,0.11397 -0.0508,0.0413 -0.0545,0.0534 -0.0112,0.0346 0.0367,-0.0156 0.0194,0.0124 -0.0377,0.063 -0.0574,0.0504 -0.12221,0.0808 -0.144,0.0672 -0.0218,-0.0135 -0.0396,0.003 -0.0396,0.0346 0,0.0327 -0.0351,0.0893 -0.0775,0.1262 -0.0425,0.0367 -0.11318,0.11583 -0.15701,0.17586 -0.0438,0.0601 -0.0672,0.0792 -0.0521,0.0425 0.0184,-0.0444 0.006,-0.0407 -0.0361,0.0113 -0.0348,0.0425 -0.0861,0.0776 -0.11397,0.0776 -0.0276,0 -0.0504,0.0385 -0.0504,0.0858 0,0.0473 -0.0229,0.10016 -0.051,0.11769 -0.0316,0.0194 -0.0391,0.0119 -0.0198,-0.0191 0.0202,-0.0327 0.007,-0.0413 -0.0372,-0.0244 -0.0374,0.0146 -0.0598,0.0403 -0.0492,0.0576 0.0242,0.039 -0.21625,0.26938 -0.28133,0.26938 -0.0265,0 -0.0484,0.0226 -0.0484,0.0505 0,0.0276 -0.0348,0.0789 -0.0775,0.11398 -0.0504,0.0413 -0.0545,0.0537 -0.011,0.0348 0.0364,-0.0156 0.0276,0.003 -0.0197,0.0409 -0.0473,0.0385 -0.10201,0.0699 -0.12168,0.0699 -0.0197,0 -0.0359,0.0996 -0.0359,0.2213 0,0.12167 0.0198,0.2213 0.0444,0.2213 0.0242,0 0.0441,0.0399 0.0441,0.0887 0,0.0589 0.0294,0.0885 0.0887,0.0885 0.0487,0 0.0861,0.0148 0.0831,0.0332 -0.0141,0.0896 0.0111,0.144 0.067,0.144 0.034,0 0.0734,0.0297 0.0872,0.0664 0.0141,0.0364 0.0561,0.0664 0.0932,0.0664 0.0385,0 0.068,0.0385 0.068,0.0885 0,0.0499 0.0294,0.0885 0.0678,0.0885 0.0371,0 0.0791,0.03 0.0932,0.0664 0.0141,0.0367 0.0622,0.0664 0.10681,0.0664 0.0446,0 0.0954,0.0231 0.11264,0.0512 0.0215,0.0346 0.0117,0.0391 -0.0306,0.0135 -0.0518,-0.0311 -0.0526,-0.0257 -0.005,0.0332 0.0664,0.0821 0.16365,0.0781 0.24204,-0.01 0.0425,-0.048 0.035,-0.0473 -0.0338,0.003 -0.0818,0.0593 -0.084,0.0582 -0.0279,-0.0133 0.0335,-0.0425 0.0983,-0.0776 0.14399,-0.0776 0.0456,0 0.0834,-0.0247 0.084,-0.0553 2.7e-4,-0.0306 0.0502,-0.10229 0.11079,-0.15967 0.0603,-0.0574 0.10971,-0.12327 0.10971,-0.14638 0,-0.0234 0.0202,-0.03 0.0446,-0.0149 0.0244,0.0152 0.0565,-0.003 0.0712,-0.0413 0.0146,-0.0382 0.0542,-0.0693 0.0882,-0.0693 0.034,0 0.0616,-0.0276 0.0616,-0.0617 0,-0.034 0.0314,-0.0735 0.0693,-0.0882 0.038,-0.0146 0.0587,-0.0438 0.0456,-0.0646 -0.0127,-0.0209 0.0257,-0.0643 0.0858,-0.0964 0.0601,-0.0322 0.1092,-0.0848 0.1092,-0.11716 0,-0.0327 0.0399,-0.0589 0.0884,-0.0589 0.0489,0 0.0887,-0.0261 0.0887,-0.0579 0,-0.0318 0.0314,-0.0967 0.0696,-0.144 0.0382,-0.0473 0.0553,-0.0579 0.0374,-0.0239 -0.0212,0.0409 -0.0149,0.0516 0.0189,0.0308 0.0282,-0.0176 0.051,-0.0617 0.051,-0.098 0,-0.0367 0.0213,-0.0534 0.0473,-0.0371 0.0261,0.0159 0.0582,-0.0128 0.0717,-0.064 0.0133,-0.0511 0.055,-0.093 0.093,-0.093 0.0377,0 0.0565,-0.0119 0.042,-0.0265 -0.0378,-0.0378 0.22316,-0.2832 0.301,-0.2832 0.036,0 0.065,-0.0229 0.065,-0.0504 0,-0.0279 0.0348,-0.0792 0.0773,-0.11397 0.047,-0.0385 0.0512,-0.0507 0.0112,-0.0311 -0.0367,0.0178 -0.0165,-0.0159 0.0444,-0.0751 0.0686,-0.0664 0.12301,-0.0903 0.14319,-0.0625 0.0186,0.0261 0.0328,0.0114 0.0332,-0.0337 2.6e-4,-0.0433 0.0303,-0.0901 0.0667,-0.10415 0.0364,-0.0141 0.0601,-0.0382 0.0526,-0.054 -0.008,-0.0156 0.0353,-0.0784 0.0957,-0.13921 0.0603,-0.0608 0.0951,-0.081 0.0773,-0.0444 -0.0197,0.0402 -0.007,0.0359 0.0311,-0.0112 0.0348,-0.0425 0.0861,-0.0773 0.11397,-0.0773 0.0276,0 0.0504,-0.0197 0.0504,-0.0435 0,-0.0239 0.0845,-0.12992 0.1881,-0.23539 0.18464,-0.18809 0.34324,-0.23166 0.34324,-0.0943 0,0.0348 0.0297,0.0632 0.0664,0.0632 0.0369,0 0.0664,0.0393 0.0664,0.0885 0,0.0573 0.0295,0.0887 0.0834,0.0887 0.0473,0 0.0938,0.0399 0.1076,0.093 0.0133,0.0511 0.0433,0.0813 0.0667,0.067 0.0232,-0.0144 0.0523,0.0135 0.065,0.0618 0.0128,0.0484 0.0547,0.0879 0.0935,0.0879 0.0413,0 0.0707,0.0372 0.0707,0.0887 0,0.0589 0.0295,0.0885 0.0885,0.0885 0.0494,0 0.0887,0.0295 0.0887,0.0664 0,0.0364 0.0297,0.0664 0.0664,0.0664 0.037,0 0.0664,0.0393 0.0664,0.0885 0,0.0489 0.0149,0.0864 0.0332,0.0834 0.0908,-0.0144 0.13576,0.0135 0.15782,0.0983 0.0144,0.055 0.0449,0.0802 0.0746,0.0619 0.0295,-0.0184 0.0601,0.007 0.0744,0.0619 0.0135,0.0512 0.0521,0.093 0.0855,0.093 0.0338,0 0.0614,0.0399 0.0614,0.0887 0,0.059 0.0295,0.0885 0.0885,0.0885 0.0494,0 0.0887,0.0295 0.0887,0.0664 0,0.0364 0.0316,0.0664 0.0703,0.0664 0.0388,0 0.0811,0.0399 0.0938,0.0885 0.0128,0.0488 0.0508,0.0887 0.0845,0.0887 0.0338,0 0.0611,0.0419 0.0611,0.0932 0,0.0672 0.0199,0.0855 0.0707,0.0661 0.0462,-0.0178 0.0781,0.002 0.0924,0.0577 0.0123,0.0465 0.0603,0.0946 0.10681,0.1068 0.0558,0.0146 0.0755,0.0462 0.0577,0.0927 -0.0194,0.0507 -5.5e-4,0.0703 0.0664,0.0703 0.0512,0 0.0933,0.0285 0.0933,0.0635 0,0.0348 0.0399,0.0759 0.0885,0.0914 0.0486,0.0156 0.0884,0.0569 0.0884,0.0916 0,0.0348 0.03,0.0635 0.0664,0.0635 0.0369,0 0.0664,0.0393 0.0664,0.0885 0,0.059 0.0294,0.0885 0.0887,0.0885 0.0492,0 0.0885,0.0295 0.0885,0.0664 0,0.037 0.0393,0.0664 0.0885,0.0664 0.0597,0 0.0887,0.0294 0.0887,0.0908 0,0.13204 0.8164,0.12486 0.89928,-0.008 0.0285,-0.0455 0.0659,-0.0829 0.0832,-0.0829 0.0529,0 0.25716,-0.20616 0.25716,-0.25955 0,-0.0276 0.0276,-0.0502 0.0613,-0.0502 0.0338,0 0.0723,-0.042 0.0855,-0.093 0.0144,-0.055 0.0449,-0.0805 0.0746,-0.0622 0.0294,0.0184 0.0601,-0.007 0.0744,-0.0619 0.0135,-0.0511 0.054,-0.093 0.0898,-0.093 0.0359,0 0.0757,-0.0399 0.0884,-0.0885 0.0218,-0.0826 0.0685,-0.10918 0.16233,-0.0922 0.0212,0.004 0.0268,-0.0237 0.0124,-0.0611 -0.0184,-0.0473 5.3e-4,-0.0682 0.0608,-0.0682 0.048,0 0.0847,-0.0149 0.0821,-0.0332 -0.0149,-0.0927 0.0122,-0.14373 0.0757,-0.14373 0.0388,0 0.0805,-0.038 0.0927,-0.0845 0.0119,-0.0465 0.0619,-0.0951 0.11105,-0.10786 0.0488,-0.0127 0.0765,-0.0431 0.0617,-0.0672 -0.0152,-0.0241 0.0128,-0.0569 0.0618,-0.0725 0.0492,-0.0154 0.0893,-0.0569 0.0893,-0.0917 0,-0.0348 0.0226,-0.0635 0.0502,-0.0635 0.0589,0 0.25955,-0.20696 0.25955,-0.2678 0,-0.0231 0.0318,-0.042 0.0706,-0.042 0.0388,0 0.0811,-0.0399 0.0938,-0.0887 0.0128,-0.0489 0.0603,-0.0885 0.10654,-0.0885 0.0456,0 0.0834,-0.03 0.0834,-0.0664 0,-0.0367 0.0297,-0.0664 0.0664,-0.0664 0.0364,0 0.064,-0.0149 0.0611,-0.0332 -0.013,-0.0818 0.009,-0.14399 0.0507,-0.14399 0.0593,0 0.44153,-0.3823 0.44153,-0.44155 0,-0.0417 0.0622,-0.0635 0.14399,-0.0508 0.0181,0.003 0.0332,-0.0247 0.0332,-0.0611 0,-0.037 0.0393,-0.0664 0.0884,-0.0664 0.0492,0 0.0885,0.0294 0.0885,0.0664 0,0.0364 0.0276,0.0664 0.0613,0.0664 0.0337,0 0.0723,0.042 0.0855,0.093 0.0135,0.0516 0.0455,0.0799 0.072,0.0638 0.0261,-0.0162 0.0603,0.004 0.0757,0.0441 0.0348,0.0903 0.22634,0.28612 0.28001,0.28612 0.0218,0 0.0526,0.0413 0.0686,0.0919 0.0176,0.055 0.054,0.0821 0.0914,0.0678 0.0409,-0.0156 0.0625,0.006 0.0625,0.0632 0,0.0478 0.03,0.0872 0.0664,0.0872 0.0367,0 0.0664,0.0332 0.0664,0.0739 0,0.0407 0.0124,0.0614 0.0276,0.0462 0.0264,-0.0262 0.14958,0.071 0.14958,0.11822 0,0.0382 0.22237,0.24867 0.26248,0.24867 0.0204,0 0.0475,0.0399 0.0603,0.0887 0.0128,0.0486 0.055,0.0884 0.0938,0.0884 0.0388,0 0.0703,0.0298 0.0703,0.0664 0,0.0364 0.0276,0.0664 0.0613,0.0664 0.0337,0 0.0723,0.0425 0.0858,0.0943 0.0159,0.0611 0.048,0.0853 0.0911,0.0688 0.0445,-0.017 0.0712,0.006 0.0811,0.0717 0.008,0.0534 0.0413,0.0917 0.0731,0.085 0.0319,-0.007 0.0686,0.0279 0.0816,0.0773 0.013,0.0494 0.0489,0.0898 0.0797,0.0898 0.0308,0 0.0664,0.0399 0.0792,0.0887 0.0128,0.0486 0.055,0.0884 0.0938,0.0884 0.0388,0 0.0704,0.0276 0.0704,0.0613 0,0.0335 0.042,0.072 0.093,0.0855 0.0518,0.0133 0.0799,0.0455 0.0637,0.0717 -0.0162,0.0263 0.006,0.0613 0.0508,0.0781 0.10707,0.0403 0.19341,0.12886 0.1594,0.16287 -0.0149,0.0152 0.005,0.0274 0.0465,0.0274 0.0407,0 0.0739,0.03 0.0739,0.0664 0,0.0413 0.0417,0.0664 0.11053,0.0664 0.0608,0 0.10838,0.0151 0.10547,0.0332 -0.0155,0.0988 0.0156,0.12965 0.1129,0.11105 0.0693,-0.0133 0.0991,-0.0423 0.0837,-0.0823 -0.0156,-0.0409 0.008,-0.0619 0.071,-0.0619 0.0521,0 0.10626,-0.0297 0.12033,-0.0664 0.0138,-0.0364 0.0531,-0.0664 0.0872,-0.0664 0.0558,0 0.0811,-0.0541 0.067,-0.14373 -0.003,-0.0184 0.0223,-0.0332 0.0561,-0.0332 0.0335,0 0.0715,-0.0399 0.0842,-0.0887 0.0138,-0.0529 0.0606,-0.0884 0.11584,-0.0884 0.0529,0 0.0927,-0.0285 0.0927,-0.0664 0,-0.0367 0.03,-0.0664 0.0664,-0.0664 0.0407,0 0.0664,-0.0413 0.0664,-0.10573 0,-0.0707 0.0239,-0.10388 0.0723,-0.0996 0.10998,0.009 0.12274,-0.18038 0.0159,-0.23777 -0.0484,-0.0257 -0.0882,-0.0739 -0.0882,-0.1068 0,-0.0327 -0.0423,-0.0707 -0.0943,-0.0842 -0.063,-0.0165 -0.0855,-0.0476 -0.0678,-0.0938 0.0181,-0.0473 5.3e-4,-0.0691 -0.0555,-0.0691 -0.0465,0 -0.0927,-0.0409 -0.10652,-0.0943 -0.0165,-0.063 -0.0476,-0.0855 -0.0938,-0.0678 -0.048,0.0184 -0.0691,0 -0.0691,-0.0608 0,-0.0478 -0.0298,-0.0872 -0.0664,-0.0872 -0.0369,0 -0.0664,-0.0393 -0.0664,-0.0885 0,-0.0487 -0.0149,-0.0861 -0.0332,-0.0834 -0.0896,0.0144 -0.14399,-0.0112 -0.14399,-0.067 0,-0.0337 -0.0298,-0.0731 -0.0664,-0.0872 -0.0364,-0.0138 -0.0664,-0.0558 -0.0664,-0.0932 0,-0.0382 -0.0385,-0.0678 -0.0885,-0.0678 -0.0589,0 -0.0885,-0.0295 -0.0885,-0.0885 0,-0.0593 -0.0294,-0.0887 -0.0887,-0.0887 -0.0492,0 -0.0885,-0.0295 -0.0885,-0.0664 0,-0.0364 -0.03,-0.0664 -0.0664,-0.0664 -0.0598,0 -0.0861,-0.0526 -0.0717,-0.14372 0.003,-0.0184 -0.0346,-0.0332 -0.0832,-0.0332 -0.0489,0 -0.0887,-0.0189 -0.0887,-0.042 0,-0.0611 -0.20058,-0.26805 -0.25956,-0.26805 -0.0276,0 -0.0502,-0.0399 -0.0502,-0.0885 0,-0.0593 -0.0294,-0.0887 -0.0887,-0.0887 -0.0492,0 -0.0885,-0.0294 -0.0885,-0.0664 0,-0.0364 -0.03,-0.0664 -0.0664,-0.0664 -0.0369,0 -0.0664,-0.0393 -0.0664,-0.0885 0,-0.0589 -0.0295,-0.0885 -0.0885,-0.0885 -0.0601,0 -0.0887,-0.0294 -0.0887,-0.0917 0,-0.0735 -0.0186,-0.0855 -0.0951,-0.0613 -0.0776,0.0247 -0.0898,0.0162 -0.0664,-0.0455 0.0204,-0.0529 0.003,-0.0823 -0.0595,-0.0988 -0.0491,-0.0128 -0.0887,-0.0603 -0.0887,-0.10653 0,-0.0521 -0.0314,-0.0834 -0.0834,-0.0834 -0.0476,0 -0.094,-0.0399 -0.10786,-0.093 -0.0133,-0.0512 -0.0455,-0.0797 -0.0715,-0.0638 -0.0276,0.017 -0.0473,-0.008 -0.0473,-0.0619 0,-0.0541 0.0289,-0.0911 0.0712,-0.0911 0.0456,0 0.0618,-0.0244 0.0452,-0.068 -0.0172,-0.0449 0.0106,-0.0818 0.0837,-0.10946 0.0607,-0.0231 0.10999,-0.0723 0.10999,-0.10946 0,-0.037 0.0189,-0.0675 0.0423,-0.0675 0.0231,0 0.093,-0.0508 0.15489,-0.11264 0.0618,-0.0619 0.11264,-0.13177 0.11264,-0.15489 0,-0.0233 0.017,-0.0423 0.038,-0.0423 0.0526,0 0.27204,-0.20828 0.27204,-0.25849 0,-0.0226 0.0399,-0.0516 0.0885,-0.0643 0.0489,-0.0127 0.0887,-0.055 0.0887,-0.0938 0,-0.0423 0.0374,-0.0706 0.0933,-0.0706 0.0648,0 0.0855,-0.0202 0.0678,-0.0664 -0.0172,-0.0452 0.003,-0.0664 0.0616,-0.0664 0.048,0 0.0847,-0.0149 0.0821,-0.0332 -0.0133,-0.0829 0.009,-0.14374 0.0529,-0.14374 0.0569,0 0.32944,-0.2646 0.27657,-0.26858 -0.0198,-0.002 0.008,-0.0208 0.0632,-0.0427 0.0547,-0.022 0.0996,-0.0693 0.0996,-0.10494 0,-0.0356 0.0399,-0.0776 0.0885,-0.093 0.0486,-0.0154 0.0885,-0.0467 0.0885,-0.0693 0,-0.0229 0.03,-0.0414 0.0664,-0.0414 0.0367,0 0.0664,-0.0374 0.0664,-0.0834 0,-0.0478 0.0403,-0.0938 0.0943,-0.10787 0.063,-0.0165 0.0855,-0.0475 0.068,-0.0938 -0.0178,-0.0456 -7.9e-4,-0.0692 0.048,-0.0692 0.0736,0 0.27683,-0.20005 0.27683,-0.27258 0,-0.0204 0.0284,-0.0374 0.0632,-0.0374 0.0351,0 0.0763,-0.0399 0.0917,-0.0884 0.0155,-0.0486 0.0565,-0.0885 0.0917,-0.0885 0.0348,0 0.0632,-0.0199 0.0632,-0.0444 0,-0.0244 0.0382,-0.0823 0.0848,-0.12912 0.071,-0.071 0.0847,-0.14957 0.0847,-0.48511 0,-0.35573 -0.01,-0.40355 -0.0847,-0.42745 -0.0523,-0.0167 -0.0848,-0.0675 -0.0848,-0.13258 0,-0.10759 -0.15462,-0.29622 -0.28373,-0.34563 -0.0391,-0.0152 -0.0661,-0.0529 -0.0598,-0.084 0.006,-0.0311 -0.0152,-0.051 -0.0476,-0.0445 -0.0328,0.007 -0.0702,-0.0289 -0.0834,-0.0799 -0.0144,-0.0545 -0.0486,-0.0829 -0.0842,-0.0691 -0.0374,0.0144 -0.0707,-0.0184 -0.0876,-0.0861 -0.0167,-0.0672 -0.059,-0.10919 -0.10972,-0.10919 -0.054,0 -0.0739,-0.0223 -0.0577,-0.0646 0.0165,-0.0427 -0.0128,-0.0741 -0.0869,-0.0927 -0.072,-0.018 -0.10335,-0.0502 -0.0879,-0.0903 0.0159,-0.0413 -0.007,-0.0625 -0.0693,-0.0625 -0.0646,0 -0.0932,-0.0279 -0.0932,-0.0911 0,-0.0534 -0.0197,-0.0789 -0.0473,-0.0618 -0.0261,0.0162 -0.0584,-0.0136 -0.0723,-0.0664 -0.0148,-0.0569 -0.0492,-0.0861 -0.085,-0.0723 -0.0329,0.0124 -0.0553,-8e-4 -0.0494,-0.0308 0.005,-0.0295 -0.0138,-0.0489 -0.0433,-0.0433 -0.0311,0.006 -0.0431,-0.0173 -0.0284,-0.0553 0.0159,-0.0413 -8e-4,-0.0659 -0.0459,-0.0659 -0.0391,0 -0.0712,-0.0276 -0.0712,-0.0614 0,-0.0335 -0.0399,-0.0715 -0.0885,-0.0843 -0.0486,-0.0128 -0.0885,-0.0526 -0.0885,-0.0887 0,-0.0359 -0.0399,-0.0757 -0.0887,-0.0884 -0.0487,-0.0127 -0.0885,-0.055 -0.0885,-0.0938 0,-0.0388 -0.03,-0.0703 -0.0664,-0.0703 -0.0367,0 -0.0664,-0.0295 -0.0664,-0.0656 0,-0.0361 -0.0486,-0.0778 -0.10786,-0.0927 -0.0627,-0.0156 -0.0986,-0.0504 -0.0858,-0.0834 0.0119,-0.0316 -0.0194,-0.0674 -0.0707,-0.0808 -0.051,-0.0133 -0.0869,-0.0508 -0.0799,-0.0834 0.007,-0.0348 -0.0195,-0.0537 -0.0654,-0.0459 -0.0537,0.009 -0.0773,-0.0162 -0.0773,-0.0823 0,-0.0638 -0.0208,-0.0875 -0.0625,-0.0712 -0.0399,0.0151 -0.072,-0.0151 -0.0895,-0.084 -0.0149,-0.0593 -0.0564,-0.1076 -0.0925,-0.1076 -0.0361,0 -0.0656,-0.03 -0.0656,-0.0664 0,-0.0366 -0.03,-0.0664 -0.0664,-0.0664 -0.0367,0 -0.0664,-0.0199 -0.0664,-0.0444 0,-0.0244 0.0311,-0.0444 0.0691,-0.0444 0.038,0 0.0577,-0.018 0.0441,-0.0403 -0.0138,-0.0221 0.0298,-0.0834 0.097,-0.13602 0.067,-0.0526 0.094,-0.0813 0.0598,-0.0635 -0.0409,0.0213 -0.0512,0.0148 -0.0306,-0.0189 0.0173,-0.0281 0.0702,-0.051 0.11743,-0.051 0.0473,0 0.0861,-0.0189 0.0861,-0.0417 0,-0.0571 0.26487,-0.34272 0.26833,-0.28933 0.002,0.0237 0.0209,-0.002 0.0431,-0.0565 0.0218,-0.0547 0.0682,-0.0996 0.10308,-0.0996 0.0346,0 0.0759,-0.0518 0.0919,-0.11529 0.0184,-0.0733 0.077,-0.13337 0.16205,-0.16551 0.0946,-0.0356 0.12725,-0.0727 0.11292,-0.12831 -0.0112,-0.0427 -0.003,-0.067 0.0194,-0.0534 0.0218,0.0136 0.0749,0.004 0.11769,-0.0208 0.0427,-0.025 0.0603,-0.046 0.0391,-0.0468 -0.0212,-5.4e-4 -0.0138,-0.0308 0.0162,-0.0672 0.03,-0.0361 0.0757,-0.0529 0.10148,-0.037 0.0289,0.018 0.0361,8e-4 0.0186,-0.0444 -0.0202,-0.0529 0.003,-0.0808 0.0811,-0.10069 0.0601,-0.0148 0.10918,-0.0478 0.10918,-0.0731 0,-0.025 0.0348,-0.0741 0.0776,-0.1092 0.0504,-0.0414 0.0545,-0.0533 0.0109,-0.0348 -0.0364,0.0159 -0.0276,-0.003 0.0197,-0.0409 0.0473,-0.0382 0.11212,-0.0696 0.144,-0.0696 0.0319,0 0.0579,-0.0305 0.0579,-0.068 0,-0.0371 0.0446,-0.0858 0.0996,-0.10787 0.0547,-0.022 0.0802,-0.0412 0.0565,-0.0427 -0.0537,-0.003 0.23193,-0.26858 0.28932,-0.26858 0.0229,0 0.0414,-0.0186 0.0414,-0.0414 0,-0.0573 0.26488,-0.34298 0.26859,-0.28931 8e-4,0.0237 0.0208,-0.002 0.0427,-0.0565 0.0221,-0.0547 0.0682,-0.0996 0.10309,-0.0996 0.0346,0 0.0757,-0.0508 0.0911,-0.11238 0.0156,-0.0619 0.046,-0.10175 0.0674,-0.0885 0.072,0.0446 0.0778,-0.0861 0.006,-0.14558 -0.0438,-0.0366 -0.0467,-0.0465 -0.007,-0.0261 0.0409,0.0213 0.0329,-0.008 -0.022,-0.084 -0.0468,-0.0643 -0.11876,-0.12859 -0.1602,-0.1424 -0.0433,-0.0146 -0.0649,-0.0529 -0.0508,-0.0898 0.0167,-0.0436 -0.005,-0.064 -0.0685,-0.064 -0.0638,0 -0.0933,-0.0281 -0.0933,-0.0887 0,-0.0486 -0.0252,-0.0885 -0.0558,-0.0885 -0.0308,0 -0.0813,-0.0407 -0.11212,-0.0903 -0.0311,-0.0497 -0.0757,-0.0784 -0.0994,-0.0638 -0.0234,0.0146 -0.0427,-0.0146 -0.0427,-0.0646 0,-0.0619 -0.0287,-0.0914 -0.0885,-0.0914 -0.0488,0 -0.0887,-0.02 -0.0887,-0.0441 0,-0.0922 -0.43437,-0.0515 -0.46464,0.0433 -0.0152,0.0481 -0.0423,0.0832 -0.0597,0.0776 -0.0176,-0.005 -0.10918,0.0646 -0.20323,0.15569 -0.0943,0.0914 -0.15834,0.16603 -0.1424,0.16603 0.0159,0 -0.006,0.0366 -0.0486,0.0816 -0.0425,0.0449 -0.0903,0.0749 -0.10599,0.0667 -0.0156,-0.008 -0.0402,0.0148 -0.054,0.0512 -0.0141,0.0364 -0.0608,0.0678 -0.1044,0.0693 -0.0691,0.003 -0.0678,0.008 0.01,0.0412 0.0486,0.0209 0.065,0.0396 0.0364,0.0412 -0.0688,0.004 -0.32411,0.26143 -0.32491,0.32757 -5.3e-4,0.0351 -0.0114,0.0366 -0.0332,0.005 -0.0212,-0.0303 -0.0595,-0.0189 -0.10998,0.0332 -0.0427,0.0441 -0.0674,0.0799 -0.0555,0.0799 0.0123,0 -0.0127,0.0366 -0.0553,0.0816 -0.0425,0.0449 -0.0903,0.0749 -0.106,0.0667 -0.0156,-0.008 -0.0402,0.0148 -0.054,0.0512 -0.0141,0.0364 -0.0561,0.0661 -0.0932,0.0661 -0.0371,0 -0.0678,0.0279 -0.0678,0.0619 0,0.0337 -0.0314,0.0735 -0.0693,0.0882 -0.038,0.0146 -0.0569,0.0465 -0.0417,0.071 0.0151,0.0247 0.005,0.0446 -0.0208,0.0446 -0.0266,0 -0.0664,0.0449 -0.0882,0.0996 -0.022,0.055 -0.0414,0.0749 -0.0431,0.0445 -0.002,-0.037 -0.0298,-0.0298 -0.0842,0.022 -0.0449,0.0427 -0.0736,0.0924 -0.0638,0.11078 0.01,0.0184 -0.005,0.0332 -0.0324,0.0332 -0.0508,0 -0.4899,0.42161 -0.46865,0.44977 0.006,0.008 -0.025,0.0499 -0.0696,0.0927 -0.0446,0.0425 -0.0811,0.0682 -0.0811,0.0574 0,-0.0109 -0.0498,0.0261 -0.11078,0.0826 -0.0608,0.0563 -0.11078,0.13416 -0.11078,0.17269 0,0.0582 -0.0218,0.0625 -0.13018,0.0247 -0.0847,-0.0298 -0.12167,-0.0672 -0.10574,-0.1084 0.0162,-0.0423 -0.006,-0.063 -0.0693,-0.063 -0.0646,0 -0.0932,-0.0281 -0.0932,-0.0914 0,-0.0532 -0.0194,-0.0789 -0.0473,-0.0619 -0.0261,0.0162 -0.0582,-0.0133 -0.072,-0.0661 -0.0152,-0.0571 -0.0494,-0.0863 -0.0853,-0.0725 -0.0329,0.0128 -0.0553,-7.9e-4 -0.0494,-0.0308 0.005,-0.0294 -0.0135,-0.0489 -0.0433,-0.0431 -0.0311,0.006 -0.0431,-0.0172 -0.0284,-0.0555 0.0159,-0.0414 -7.8e-4,-0.0659 -0.046,-0.0659 -0.0391,0 -0.071,-0.0298 -0.071,-0.0664 0,-0.0364 -0.0319,-0.0664 -0.0707,-0.0664 -0.0388,0 -0.081,-0.0399 -0.0938,-0.0885 -0.0128,-0.0487 -0.0494,-0.0885 -0.0813,-0.0885 -0.0322,0 -0.071,-0.0399 -0.0863,-0.0887 -0.0156,-0.0487 -0.0569,-0.0885 -0.0917,-0.0885 -0.0348,0 -0.0635,-0.0295 -0.0635,-0.0656 0,-0.0361 -0.0484,-0.0776 -0.10759,-0.0925 -0.063,-0.0159 -0.0988,-0.0508 -0.0861,-0.0837 0.0119,-0.0314 -0.0194,-0.0672 -0.0707,-0.0808 -0.0508,-0.0133 -0.0869,-0.0508 -0.0799,-0.0832 0.006,-0.0327 -0.0144,-0.0536 -0.0468,-0.047 -0.0326,0.007 -0.0702,-0.029 -0.0834,-0.0799 -0.0144,-0.055 -0.0486,-0.0829 -0.0847,-0.0692 -0.0351,0.0136 -0.0607,-0.005 -0.0607,-0.0444 0,-0.0371 -0.0196,-0.0555 -0.0438,-0.0407 -0.025,0.0156 -0.0324,-0.003 -0.0172,-0.0414 0.0244,-0.064 -0.054,-0.0954 -0.17879,-0.0715 -0.0223,0.004 -0.0152,-0.0233 0.0165,-0.0613 0.0478,-0.0576 0.0449,-0.0688 -0.0189,-0.0688 -0.0417,0 -0.0864,-0.0399 -0.0991,-0.0885 -0.0128,-0.0489 -0.0526,-0.0887 -0.0885,-0.0887 -0.0361,0 -0.076,-0.0399 -0.0887,-0.0885 -0.0127,-0.0487 -0.0508,-0.0885 -0.0842,-0.0885 -0.0338,0 -0.0613,-0.0294 -0.0613,-0.0656 0,-0.0361 -0.0487,-0.0778 -0.10787,-0.0927 -0.0627,-0.0156 -0.0986,-0.0504 -0.0858,-0.0834 0.0119,-0.0316 -0.0194,-0.0675 -0.0707,-0.0808 -0.051,-0.0133 -0.0869,-0.0483 -0.0799,-0.0778 0.007,-0.03 -0.0462,-0.0622 -0.12062,-0.0731 -0.0731,-0.0106 -0.13948,-0.038 -0.14771,-0.0608 -0.0202,-0.0568 -1.11421,-0.0542 -1.11421,0.003 0,0.0242 -0.03,0.0441 -0.0664,0.0441 -0.0364,0 -0.0664,0.0207 -0.0664,0.046 0,0.0597 -0.25478,0.30844 -0.31614,0.30844 -0.0263,0 -0.0367,0.0284 -0.0231,0.0635 0.0159,0.0417 -0.009,0.0685 -0.0728,0.0776 -0.0533,0.008 -0.098,0.0436 -0.0991,0.0802 -8e-4,0.0364 -0.0266,0.0614 -0.0564,0.055 -0.03,-0.006 -0.0739,0.0399 -0.0975,0.10227 -0.0239,0.0625 -0.0635,0.10123 -0.0879,0.0861 -0.0247,-0.0152 -0.0579,0.008 -0.0744,0.0526 -0.0348,0.0946 -0.22156,0.27975 -0.28187,0.27975 -0.0231,0 -0.042,0.0298 -0.042,0.0664 0,0.0364 -0.03,0.0664 -0.0664,0.0664 -0.0367,0 -0.0664,0.0188 -0.0664,0.042 0,0.0603 -0.18518,0.24706 -0.27975,0.28187 -0.0441,0.0165 -0.0678,0.0497 -0.0526,0.0744 0.0152,0.0244 -0.0244,0.0646 -0.0884,0.0887 -0.0638,0.0242 -0.10494,0.0619 -0.0917,0.0834 0.0133,0.0215 -0.0155,0.0497 -0.0637,0.0625 -0.0522,0.0135 -0.0879,0.0603 -0.0879,0.11424 0,0.0627 -0.0208,0.0834 -0.0661,0.0659 -0.0385,-0.0146 -0.0781,0.006 -0.0951,0.0508 -0.0403,0.10547 -0.21493,0.28744 -0.27551,0.28744 -0.0279,0 -0.0504,0.0298 -0.0504,0.0664 0,0.0364 -0.0247,0.067 -0.0553,0.0675 -0.0306,5.4e-4 -0.11238,0.0781 -0.18199,0.17243 -0.0752,0.10175 -0.15647,0.16577 -0.19925,0.15727 -0.0401,-0.008 -0.10759,-0.0156 -0.15009,-0.0176 -0.0425,-0.002 -0.0776,-0.0223 -0.0776,-0.0455 0,-0.0233 -0.0508,-0.093 -0.11264,-0.15514 -0.0618,-0.0619 -0.13177,-0.11264 -0.15489,-0.11264 -0.0233,0 -0.0422,-0.0399 -0.0422,-0.0885 0,-0.0593 -0.0294,-0.0887 -0.0887,-0.0887 -0.0492,0 -0.0885,-0.0295 -0.0885,-0.0664 0,-0.0364 -0.03,-0.0664 -0.0664,-0.0664 -0.0369,0 -0.0664,-0.0393 -0.0664,-0.0884 0,-0.0571 -0.0295,-0.0885 -0.0834,-0.0885 -0.0476,0 -0.0938,-0.0402 -0.10759,-0.093 -0.0135,-0.0513 -0.0445,-0.0808 -0.0686,-0.0659 -0.0241,0.0148 -0.0569,-0.013 -0.0723,-0.0619 -0.0156,-0.0491 -0.0569,-0.0893 -0.0919,-0.0893 -0.0571,0 -0.0829,-0.0536 -0.0686,-0.14399 0.003,-0.018 -0.01,-0.0308 -0.0279,-0.0279 -0.0908,0.0144 -0.13575,-0.0135 -0.15807,-0.0983 -0.0133,-0.051 -0.0433,-0.0813 -0.0664,-0.067 -0.0234,0.0144 -0.0526,-0.0135 -0.0654,-0.0618 -0.0124,-0.0484 -0.0547,-0.0879 -0.0935,-0.0879 -0.0413,0 -0.0707,-0.0371 -0.0707,-0.0887 0,-0.0589 -0.0295,-0.0884 -0.0885,-0.0884 -0.0492,0 -0.0885,-0.0295 -0.0885,-0.0664 0,-0.0366 -0.03,-0.0664 -0.0664,-0.0664 -0.0369,0 -0.0664,-0.0393 -0.0664,-0.0885 0,-0.0593 -0.0295,-0.0887 -0.0887,-0.0887 -0.0487,0 -0.0885,-0.0284 -0.0885,-0.0632 0,-0.0351 -0.0401,-0.0763 -0.0893,-0.0919 -0.0489,-0.0155 -0.0768,-0.048 -0.0619,-0.0723 0.0149,-0.0242 -0.0146,-0.055 -0.0659,-0.0685 -0.0844,-0.0221 -0.11237,-0.067 -0.098,-0.15781 0.003,-0.0184 -0.01,-0.0308 -0.0282,-0.0279 -0.09,0.0141 -0.14372,-0.0114 -0.14372,-0.0688 0,-0.0348 -0.0402,-0.076 -0.0893,-0.0917 -0.0492,-0.0156 -0.077,-0.0481 -0.0619,-0.0725 0.0149,-0.0242 -0.0146,-0.055 -0.0659,-0.0682 -0.051,-0.0133 -0.093,-0.042 -0.093,-0.0635 0,-0.0595 -0.45828,-0.0433 -0.51141,0.0181 m 7.25143,1.85783 c 0.0172,0.0427 0.0621,0.0776 0.0996,0.0776 0.0372,0 0.0678,0.0285 0.0678,0.0635 0,0.0348 0.0399,0.0759 0.0885,0.0914 0.0489,0.0156 0.0887,0.0569 0.0887,0.0917 0,0.0348 0.0285,0.0635 0.0632,0.0635 0.035,0 0.0763,0.0402 0.0919,0.089 0.0154,0.0491 0.047,0.0778 0.0696,0.0638 0.0229,-0.0141 0.06,0.0205 0.0826,0.0768 0.0226,0.0563 0.0425,0.0844 0.0438,0.0624 0.002,-0.022 0.0422,-0.005 0.0904,0.0391 0.0484,0.0436 0.0783,0.0943 0.067,0.11264 -0.0111,0.0184 0.0209,0.0441 0.072,0.0574 0.0511,0.0133 0.0802,0.0441 0.0654,0.0683 -0.0152,0.0242 0.0127,0.0569 0.0619,0.0725 0.0491,0.0154 0.0893,0.0569 0.0893,0.0917 0,0.0348 0.0285,0.0635 0.0632,0.0635 0.0351,0 0.0763,0.0399 0.0917,0.0885 0.0155,0.0487 0.0565,0.0885 0.0917,0.0885 0.0348,0 0.0632,0.0318 0.0632,0.0707 0,0.0388 0.0399,0.0811 0.0887,0.0938 0.0486,0.0127 0.0885,0.0508 0.0885,0.0843 0,0.0338 0.0276,0.0614 0.0613,0.0614 0.0335,0 0.072,0.042 0.0855,0.093 0.0144,0.055 0.0449,0.0802 0.0744,0.0618 0.0297,-0.0184 0.0603,0.007 0.0744,0.0617 0.0135,0.0508 0.0369,0.0853 0.0526,0.0765 0.0154,-0.009 0.068,0.0244 0.11662,0.0735 0.0486,0.0494 0.0638,0.0755 0.0332,0.0582 -0.0306,-0.0172 -0.0553,-0.0199 -0.0553,-0.005 0,0.0141 0.0526,0.0456 0.11664,0.0702 0.0642,0.0244 0.10519,0.0563 0.0908,0.0707 -0.0144,0.0144 0.005,0.0573 0.0433,0.0959 0.0635,0.0632 0.0614,0.0765 -0.0242,0.14558 -0.0516,0.042 -0.0954,0.10282 -0.097,0.1355 -0.002,0.0327 -0.0202,0.0194 -0.0413,-0.0293 -0.0314,-0.0727 -0.0385,-0.0751 -0.0412,-0.0133 -0.002,0.0413 -0.038,0.0956 -0.0805,0.12035 -0.0427,0.0247 -0.0627,0.0457 -0.0445,0.0465 0.0184,5.4e-4 -0.002,0.038 -0.0444,0.0829 -0.0425,0.0449 -0.0925,0.0734 -0.11104,0.0635 -0.0184,-0.01 -0.0455,0.0133 -0.0601,0.0512 -0.0146,0.0382 -0.0541,0.0693 -0.0882,0.0693 -0.034,0 -0.0617,0.0276 -0.0617,0.0617 0,0.034 -0.0311,0.0736 -0.0693,0.0882 -0.038,0.0146 -0.0574,0.0456 -0.0431,0.0691 0.0146,0.0233 -0.0172,0.0656 -0.0707,0.094 -0.0996,0.0534 -0.24176,0.19394 -0.36849,0.36449 -0.0399,0.0537 -0.0584,0.0674 -0.0414,0.0311 0.0172,-0.0367 -0.048,0.0133 -0.14505,0.11052 -0.097,0.0975 -0.17296,0.18702 -0.16897,0.19924 0.004,0.0123 -0.0293,0.0571 -0.0741,0.0996 -0.0449,0.0427 -0.0821,0.0627 -0.0829,0.0444 -5.4e-4,-0.0184 -0.0218,0.002 -0.0465,0.0444 -0.0247,0.0425 -0.0741,0.0773 -0.10946,0.0773 -0.0353,0 -0.064,0.0229 -0.064,0.0505 0,0.0279 -0.0351,0.0792 -0.0775,0.11397 -0.0473,0.0388 -0.0518,0.0512 -0.0112,0.0316 0.0367,-0.0176 -0.0119,0.0396 -0.10759,0.12673 -0.16791,0.15328 -0.33501,0.16817 -0.33501,0.03 0,-0.0237 -0.03,-0.0427 -0.0664,-0.0427 -0.0601,0 -0.0861,-0.0526 -0.0717,-0.14399 0.003,-0.0181 -0.0346,-0.0332 -0.0834,-0.0332 -0.0486,0 -0.0885,-0.0189 -0.0885,-0.0423 0,-0.0547 -0.2128,-0.26753 -0.2678,-0.26753 -0.0231,0 -0.0422,-0.0399 -0.0422,-0.0887 0,-0.0589 -0.0294,-0.0885 -0.0884,-0.0885 -0.0492,0 -0.0885,-0.0295 -0.0885,-0.0664 0,-0.0364 -0.03,-0.0664 -0.0664,-0.0664 -0.037,0 -0.0664,-0.0393 -0.0664,-0.0885 0,-0.0574 -0.0294,-0.0887 -0.0834,-0.0887 -0.0465,0 -0.0938,-0.0395 -0.10707,-0.0898 -0.0128,-0.0494 -0.0498,-0.0842 -0.0826,-0.0773 -0.0324,0.006 -0.0534,-0.0144 -0.0467,-0.047 0.007,-0.0324 -0.0282,-0.0696 -0.0776,-0.0826 -0.0816,-0.0213 -0.10918,-0.0668 -0.0948,-0.15701 0.003,-0.0184 -0.01,-0.0308 -0.0282,-0.0279 -0.0908,0.0144 -0.13575,-0.0135 -0.15781,-0.0983 -0.0133,-0.0512 -0.0433,-0.0813 -0.0667,-0.067 -0.0232,0.0144 -0.0523,-0.0136 -0.065,-0.0619 -0.0128,-0.0486 -0.0547,-0.0882 -0.0935,-0.0882 -0.0413,0 -0.0707,-0.037 -0.0707,-0.0884 0,-0.0589 -0.0295,-0.0885 -0.0885,-0.0885 -0.0494,0 -0.0887,-0.0295 -0.0887,-0.0664 0,-0.0367 -0.0276,-0.0664 -0.0614,-0.0664 -0.0983,0 -0.11955,-0.31722 -0.0231,-0.34246 0.042,-0.0112 0.0869,-0.0601 0.0996,-0.10892 0.0127,-0.0489 0.0446,-0.0757 0.0707,-0.0597 0.0263,0.0162 0.0664,-0.0208 0.09,-0.0831 0.0287,-0.0751 0.0654,-0.10387 0.11053,-0.0866 0.0478,0.0184 0.068,-0.002 0.068,-0.0672 0,-0.0534 0.0284,-0.0933 0.0664,-0.0933 0.0364,0 0.0664,-0.03 0.0664,-0.0664 0,-0.037 0.0393,-0.0664 0.0884,-0.0664 0.059,0 0.0885,-0.0295 0.0885,-0.0885 0,-0.0489 0.0287,-0.0887 0.0635,-0.0887 0.0348,0 0.0763,-0.0402 0.0916,-0.089 0.0156,-0.0492 0.0484,-0.077 0.0725,-0.0622 0.0242,0.0152 0.055,-0.0146 0.0682,-0.0656 0.0138,-0.0532 0.0603,-0.093 0.10787,-0.093 0.054,0 0.0834,-0.0314 0.0834,-0.0887 0,-0.0492 0.0295,-0.0884 0.0664,-0.0884 0.0365,0 0.0664,-0.03 0.0664,-0.0664 0,-0.0597 0.0526,-0.0861 0.14374,-0.0717 0.0184,0.003 0.0332,-0.0346 0.0332,-0.0832 0,-0.0593 0.0295,-0.0887 0.0887,-0.0887 0.0487,0 0.0861,-0.0148 0.0832,-0.0332 -0.0144,-0.0911 0.0119,-0.14373 0.0717,-0.14373 0.0364,0 0.0664,-0.03 0.0664,-0.0664 0,-0.037 0.0393,-0.0664 0.0885,-0.0664 0.0593,0 0.0887,-0.0294 0.0887,-0.0887 0,-0.0487 0.0275,-0.0885 0.0611,-0.0885 0.0338,0 0.072,-0.0403 0.0848,-0.0898 0.0276,-0.10574 0.12831,-0.0986 0.17374,0.0122 m -3.50762,3.69094 c 0,0.034 0.0298,0.0617 0.0664,0.0617 0.0364,0 0.0664,0.0318 0.0664,0.0707 0,0.0388 0.0399,0.0811 0.0885,0.0938 0.0486,0.0128 0.0884,0.0508 0.0884,0.0842 0,0.0555 0.0547,0.0808 0.14399,0.0667 0.0184,-0.003 0.0308,0.01 0.0279,0.0279 -0.0144,0.0914 0.0119,0.14399 0.0717,0.14399 0.038,0 0.0664,0.0399 0.0664,0.0933 0,0.0656 0.0202,0.0855 0.068,0.0672 0.0399,-0.0155 0.0794,0.003 0.0951,0.0438 0.0346,0.09 0.22662,0.28267 0.28161,0.28267 0.0233,0 0.0422,0.0319 0.0422,0.0707 0,0.0388 0.0399,0.0808 0.0887,0.0935 0.0486,0.0128 0.0884,0.0508 0.0884,0.0845 0,0.0338 0.0284,0.0613 0.0635,0.0613 0.0348,0 0.076,0.0399 0.0914,0.0885 0.0157,0.0487 0.0569,0.0885 0.0917,0.0885 0.0348,0 0.0635,0.0332 0.0635,0.0739 0,0.0407 0.0119,0.0617 0.0268,0.047 0.0364,-0.0367 0.14638,0.0693 0.11903,0.11476 -0.0123,0.0197 0.0198,0.047 0.0709,0.0603 0.0847,0.0223 0.11265,0.0672 0.0983,0.15807 -0.003,0.0181 0.0346,0.0332 0.0834,0.0332 0.0487,0 0.0885,0.0275 0.0885,0.0611 0,0.0337 0.0385,0.0715 0.0853,0.0837 0.1068,0.0279 0.0959,0.1169 -0.0314,0.25344 -0.054,0.0579 -0.0983,0.12275 -0.0983,0.144 0,0.0212 -0.0198,0.0261 -0.0446,0.0109 -0.0244,-0.0151 -0.0563,0.004 -0.071,0.0417 -0.0146,0.038 -0.0545,0.0693 -0.0882,0.0693 -0.034,0 -0.0619,0.0276 -0.0619,0.0617 0,0.034 -0.0311,0.0735 -0.0691,0.0882 -0.0382,0.0146 -0.0587,0.0436 -0.046,0.0646 0.013,0.0208 -0.0255,0.064 -0.0855,0.0962 -0.0601,0.0322 -0.1092,0.085 -0.1092,0.11742 0,0.0324 -0.0399,0.059 -0.0887,0.059 -0.0486,0 -0.0885,0.0261 -0.0885,0.0579 0,0.0319 -0.0314,0.0967 -0.0696,0.14399 -0.0385,0.0473 -0.0553,0.0579 -0.0374,0.0237 0.0213,-0.0409 0.0146,-0.0512 -0.0189,-0.0305 -0.0282,0.0172 -0.0512,0.0617 -0.0512,0.098 0,0.0367 -0.0212,0.0534 -0.0473,0.0371 -0.0261,-0.0159 -0.0582,0.0124 -0.0714,0.0638 -0.0133,0.0512 -0.0553,0.093 -0.093,0.093 -0.0377,0 -0.0565,0.0119 -0.042,0.0265 0.0378,0.0378 -0.22317,0.28346 -0.30128,0.28346 -0.0356,0 -0.0649,0.0226 -0.0649,0.0504 0,0.0276 -0.0348,0.0789 -0.0776,0.11398 -0.0468,0.0382 -0.051,0.0508 -0.0109,0.0311 0.0364,-0.0178 0.0165,0.0159 -0.0444,0.0752 -0.0686,0.0664 -0.12301,0.09 -0.1432,0.0621 -0.0186,-0.0257 -0.0329,-0.0113 -0.0332,0.0338 -5.2e-4,0.0435 -0.0306,0.0903 -0.067,0.10441 -0.0364,0.0138 -0.0601,0.0382 -0.0523,0.054 0.007,0.0156 -0.0431,0.0882 -0.11211,0.16126 -0.1246,0.13177 -0.12567,0.13205 -0.15196,0.0332 -0.0144,-0.0547 -0.0537,-0.0996 -0.0875,-0.0996 -0.0337,0 -0.0613,-0.0297 -0.0613,-0.0664 0,-0.0364 -0.0149,-0.0664 -0.0332,-0.0664 -0.0565,0 -0.29862,-0.22555 -0.30074,-0.28029 -7.9e-4,-0.0284 -0.0231,-0.0478 -0.0486,-0.0431 -0.0255,0.005 -0.10442,-0.0693 -0.17509,-0.16498 -0.0707,-0.0954 -0.15355,-0.17428 -0.18384,-0.17482 -0.0306,-5.3e-4 -0.0555,-0.0308 -0.0555,-0.0675 0,-0.0364 -0.0226,-0.0664 -0.0502,-0.0664 -0.0606,0 -0.23511,-0.18197 -0.27549,-0.28745 -0.017,-0.0444 -0.0565,-0.0654 -0.0951,-0.0504 -0.0455,0.0173 -0.0661,-0.003 -0.0661,-0.0661 0,-0.0537 -0.0361,-0.10069 -0.0879,-0.11422 -0.0487,-0.0128 -0.0773,-0.0407 -0.0638,-0.0625 0.0133,-0.0215 -0.028,-0.0589 -0.0919,-0.0834 -0.0638,-0.0242 -0.10361,-0.064 -0.0882,-0.0887 0.0152,-0.0244 -0.009,-0.0579 -0.0529,-0.0741 -0.0943,-0.0348 -0.27949,-0.22157 -0.27949,-0.28215 0,-0.0231 -0.0297,-0.042 -0.0664,-0.042 -0.0367,0 -0.0664,-0.0284 -0.0664,-0.0635 0,-0.0348 -0.0377,-0.0755 -0.084,-0.0901 -0.0969,-0.0308 -0.0778,-0.20058 0.0226,-0.20058 0.0337,0 0.0614,-0.03 0.0614,-0.0664 0,-0.037 0.0393,-0.0664 0.0885,-0.0664 0.0593,0 0.0887,-0.0294 0.0887,-0.0887 0,-0.0486 0.0274,-0.0885 0.0611,-0.0885 0.0337,0 0.0723,-0.042 0.0855,-0.093 0.0144,-0.055 0.0449,-0.0802 0.0746,-0.0619 0.0297,0.0184 0.0603,-0.007 0.0746,-0.0622 0.022,-0.0844 0.067,-0.11237 0.15781,-0.098 0.0184,0.003 0.0332,-0.0348 0.0332,-0.0834 0,-0.0491 0.0294,-0.0885 0.0664,-0.0885 0.0364,0 0.0664,-0.03 0.0664,-0.0664 0,-0.0369 0.0393,-0.0664 0.0885,-0.0664 0.0573,0 0.0887,-0.0295 0.0887,-0.0834 0,-0.0465 0.0396,-0.0938 0.0898,-0.10706 0.0494,-0.0127 0.0842,-0.0499 0.0773,-0.0826 -0.006,-0.0324 0.0144,-0.0534 0.047,-0.0467 0.0324,0.007 0.0696,-0.0282 0.0826,-0.0776 0.013,-0.0499 0.0603,-0.0898 0.1068,-0.0898 0.054,0 0.0834,-0.0314 0.0834,-0.0885 0,-0.0492 0.0295,-0.0884 0.0664,-0.0884 0.0364,0 0.0664,-0.0287 0.0664,-0.0635 0,-0.0348 0.0399,-0.076 0.0885,-0.0917 0.0488,-0.0154 0.0887,-0.0541 0.0887,-0.0863 0,-0.0318 0.0399,-0.0685 0.0885,-0.0813 0.0486,-0.0127 0.0884,-0.055 0.0884,-0.0938 0,-0.0388 0.03,-0.0707 0.0664,-0.0707 0.0367,0 0.0664,-0.0284 0.0664,-0.0635 0,-0.0359 0.0529,-0.0702 0.12194,-0.0787 0.15993,-0.0202 0.23245,0.005 0.23245,0.0805 m 7.21716,5.3e-4 c 0,0.0337 0.0399,0.0611 0.0887,0.0611 0.0598,0 0.0885,0.0295 0.0885,0.0914 0,0.0532 0.0197,0.0789 0.0473,0.0619 0.0261,-0.0162 0.0582,0.0123 0.0715,0.0632 0.0133,0.051 0.0417,0.0816 0.0632,0.0683 0.0215,-0.0133 0.0613,0.0252 0.089,0.0853 0.0274,0.0603 0.0893,0.11982 0.13736,0.13256 0.048,0.0124 0.0755,0.0427 0.0603,0.067 -0.0149,0.0242 0.013,0.0569 0.0622,0.0723 0.0489,0.0156 0.089,0.0569 0.089,0.0919 0,0.0348 0.0215,0.0632 0.0476,0.0632 0.0656,0 0.17587,0.1161 0.14239,0.14984 -0.0152,0.0151 0.005,0.0274 0.0462,0.0274 0.0407,0 0.0739,0.0318 0.0739,0.0707 0,0.0388 0.0399,0.0808 0.0885,0.0935 0.0489,0.0127 0.0887,0.0508 0.0887,0.0845 0,0.0338 0.0212,0.0614 0.0473,0.0614 0.0656,0 0.17588,0.1161 0.1424,0.14958 -0.0151,0.0151 0.005,0.0275 0.0465,0.0275 0.0403,0 0.0736,0.0287 0.0736,0.0635 0,0.0348 0.0399,0.076 0.0887,0.0917 0.0487,0.0155 0.0885,0.0542 0.0885,0.0864 0,0.0318 0.042,0.0691 0.093,0.0826 0.0593,0.0155 0.0808,0.0438 0.0595,0.0784 -0.0212,0.0346 -0.0149,0.0427 0.0178,0.0226 0.0282,-0.0176 0.0511,-0.0106 0.0511,0.0151 0,0.0257 0.025,0.042 0.0555,0.0359 0.0308,-0.006 0.0494,0.0232 0.0423,0.0664 -0.008,0.0512 0.0156,0.0777 0.0715,0.0777 0.0611,0 0.0816,0.0274 0.0741,0.0996 -0.005,0.0547 -0.013,0.13443 -0.0162,0.17694 -0.003,0.0427 -0.0356,0.0776 -0.072,0.0776 -0.0367,0 -0.0664,0.0284 -0.0664,0.0635 0,0.0348 -0.0399,0.076 -0.0887,0.0914 -0.0486,0.0156 -0.0885,0.0569 -0.0885,0.0917 0,0.0348 -0.0319,0.0635 -0.0707,0.0635 -0.0388,0 -0.0808,0.0399 -0.0935,0.0885 -0.0128,0.0487 -0.0486,0.0885 -0.0794,0.0885 -0.0308,0 -0.0664,0.0401 -0.0792,0.0887 -0.0154,0.0593 -0.0467,0.0797 -0.0938,0.0619 -0.05,-0.0194 -0.0704,-0.002 -0.0704,0.0608 0,0.0529 -0.038,0.098 -0.0943,0.11291 -0.063,0.0165 -0.0855,0.0476 -0.068,0.0938 0.0186,0.048 2.6e-4,0.0691 -0.0606,0.0691 -0.0479,0 -0.0871,0.0297 -0.0871,0.0664 0,0.037 -0.0393,0.0664 -0.0885,0.0664 -0.0593,0 -0.0887,0.0295 -0.0887,0.0885 0,0.0487 -0.0274,0.0885 -0.0611,0.0885 -0.0338,0 -0.0723,0.042 -0.0855,0.093 -0.0135,0.0512 -0.0444,0.0808 -0.0685,0.0659 -0.0242,-0.0149 -0.0564,0.0119 -0.0717,0.0597 -0.0152,0.0478 -0.0664,0.0991 -0.1137,0.11424 -0.0476,0.0152 -0.0864,0.0561 -0.0864,0.0908 0,0.0348 -0.03,0.0635 -0.0664,0.0635 -0.0367,0 -0.0664,0.0297 -0.0664,0.0664 0,0.0597 -0.0526,0.0861 -0.14399,0.0715 -0.0181,-0.003 -0.0332,0.0348 -0.0332,0.0834 0,0.0487 -0.025,0.0885 -0.0558,0.0885 -0.0306,0 -0.0805,0.0399 -0.11105,0.0887 -0.0303,0.0487 -0.0749,0.0885 -0.0991,0.0885 -0.0242,0 -0.0438,-0.0399 -0.0438,-0.0885 0,-0.0593 -0.0294,-0.0887 -0.0887,-0.0887 -0.059,0 -0.0885,-0.0295 -0.0885,-0.0885 0,-0.0499 -0.0294,-0.0885 -0.0678,-0.0885 -0.0374,0 -0.0794,-0.03 -0.0933,-0.0664 -0.0141,-0.0367 -0.0533,-0.0664 -0.0871,-0.0664 -0.0558,0 -0.0813,-0.0545 -0.067,-0.14399 0.003,-0.0184 -0.0348,-0.0332 -0.0834,-0.0332 -0.0486,0 -0.0885,-0.0189 -0.0885,-0.042 0,-0.0611 -0.20059,-0.26806 -0.25982,-0.26806 -0.0276,0 -0.0502,-0.0399 -0.0502,-0.0885 0,-0.059 -0.0295,-0.0885 -0.0885,-0.0885 -0.0494,0 -0.0887,-0.0294 -0.0887,-0.0664 0,-0.0367 -0.0297,-0.0664 -0.0664,-0.0664 -0.037,0 -0.0664,-0.0393 -0.0664,-0.0887 0,-0.0589 -0.0294,-0.0885 -0.0884,-0.0885 -0.0598,0 -0.0885,-0.0295 -0.0885,-0.0906 0,-0.0617 -0.0247,-0.0864 -0.0776,-0.0773 -0.0456,0.008 -0.0725,-0.0112 -0.065,-0.0462 0.006,-0.0324 -0.0282,-0.0696 -0.0776,-0.0826 -0.0502,-0.013 -0.0898,-0.0603 -0.0898,-0.1068 0,-0.0459 -0.0149,-0.0811 -0.0332,-0.0784 -0.0903,0.0144 -0.13575,-0.0133 -0.157,-0.0948 -0.013,-0.0494 -0.0502,-0.0844 -0.0826,-0.0776 -0.0327,0.006 -0.0537,-0.0144 -0.047,-0.0467 0.007,-0.0327 -0.028,-0.0699 -0.0773,-0.0826 -0.0503,-0.0133 -0.0898,-0.0607 -0.0898,-0.10707 0,-0.0457 -0.03,-0.0834 -0.0664,-0.0834 -0.11503,0 -0.0723,-0.094 0.0664,-0.14638 0.0731,-0.0275 0.13283,-0.0763 0.13283,-0.10813 0,-0.0318 0.0297,-0.0696 0.0661,-0.0834 0.0364,-0.0141 0.055,-0.0433 0.0417,-0.065 -0.0135,-0.0218 -0.008,-0.0402 0.0112,-0.0407 0.0197,-5.2e-4 0.0858,-0.0423 0.14666,-0.0924 0.0608,-0.0502 0.0826,-0.0765 0.0484,-0.0585 -0.0409,0.0215 -0.0512,0.0155 -0.0306,-0.0184 0.0172,-0.0282 0.0703,-0.0512 0.11769,-0.0512 0.047,0 0.0858,-0.0186 0.0858,-0.0413 0,-0.0574 0.26486,-0.34298 0.26859,-0.28932 7.9e-4,0.0237 0.0208,-0.003 0.0427,-0.0565 0.022,-0.0547 0.0707,-0.0996 0.10786,-0.0996 0.0372,0 0.0678,-0.0261 0.0678,-0.0579 0,-0.0318 0.0314,-0.0967 0.0699,-0.14399 0.0382,-0.0473 0.0565,-0.0561 0.0409,-0.0195 -0.0189,0.0433 -0.006,0.0396 0.0348,-0.0112 0.035,-0.0425 0.0864,-0.0776 0.11397,-0.0776 0.0279,0 0.0504,-0.0297 0.0504,-0.0664 0,-0.0364 0.0209,-0.0664 0.047,-0.0664 0.0257,0 0.0346,-0.0196 0.0197,-0.0436 -0.0159,-0.0261 0.004,-0.0322 0.0488,-0.0146 0.0494,0.0189 0.0656,0.0119 0.046,-0.0197 -0.0167,-0.0268 0.01,-0.0768 0.0587,-0.11131 0.0492,-0.0342 0.077,-0.0744 0.0622,-0.0893 -0.0149,-0.0149 0.025,-0.0402 0.0887,-0.0563 0.0638,-0.0159 0.11583,-0.0494 0.11583,-0.0746 0,-0.0252 0.035,-0.0741 0.0776,-0.10919 0.0508,-0.0413 0.0545,-0.0537 0.0111,-0.0348 -0.0367,0.0156 -0.0279,-0.003 0.0194,-0.0409 0.0473,-0.0385 0.10973,-0.0699 0.13868,-0.0699 0.0293,0 0.063,-0.0385 0.0752,-0.0855 0.0263,-0.0996 0.20934,-0.0784 0.20934,0.0244 m -3.70423,3.4954 c -0.0178,0.0463 0.005,0.0773 0.0678,0.0938 0.0518,0.0136 0.0943,0.0508 0.0943,0.0829 0,0.0322 0.0399,0.071 0.0885,0.0864 0.0488,0.0154 0.0887,0.0542 0.0887,0.0863 0,0.0322 0.0399,0.0688 0.0887,0.0816 0.0632,0.0165 0.0799,0.0455 0.0587,0.10149 -0.0237,0.0614 -0.0135,0.0717 0.048,0.048 0.0555,-0.0212 0.0848,-0.005 0.10095,0.0571 0.0128,0.048 0.0606,0.0994 0.1068,0.11398 0.046,0.0146 0.0837,0.0553 0.0837,0.09 0,0.0348 0.0276,0.0635 0.0614,0.0635 0.0335,0 0.0723,0.0423 0.0858,0.0943 0.0165,0.063 0.0476,0.0855 0.0938,0.0678 0.048,-0.0186 0.0691,-2.7e-4 0.0691,0.0606 0,0.048 0.0297,0.0872 0.0664,0.0872 0.0364,0 0.0664,0.0286 0.0664,0.0635 0,0.0348 0.0399,0.076 0.0885,0.0917 0.0486,0.0155 0.0885,0.0554 0.0885,0.0885 0,0.0332 0.0399,0.0731 0.0887,0.0885 0.0487,0.0156 0.0885,0.0569 0.0885,0.0917 0,0.0348 0.0297,0.0635 0.0664,0.0635 0.0597,0 0.0861,0.0526 0.0717,0.14373 -0.003,0.0184 0.0346,0.0332 0.0831,0.0332 0.0494,0 0.0887,0.0294 0.0887,0.0664 0,0.0367 0.0297,0.0664 0.0664,0.0664 0.0364,0 0.0664,0.0318 0.0664,0.0707 0,0.0388 0.0399,0.0811 0.0884,0.0938 0.0486,0.0127 0.0885,0.0494 0.0885,0.0818 0,0.0322 0.0231,0.0728 0.0512,0.0901 0.0346,0.0215 0.039,0.0117 0.0135,-0.0306 -0.0318,-0.0529 -0.0264,-0.0531 0.0374,-8e-4 0.0739,0.0597 0.10627,0.23193 0.0417,0.22184 -0.0914,-0.0146 -0.14399,0.0117 -0.14399,0.0714 0,0.0369 -0.0393,0.0664 -0.0885,0.0664 -0.0589,0 -0.0884,0.0295 -0.0884,0.0887 0,0.0487 -0.0276,0.0885 -0.0613,0.0885 -0.0338,0 -0.0717,0.0399 -0.0844,0.0887 -0.0155,0.0593 -0.0467,0.0797 -0.0938,0.0617 -0.0508,-0.0194 -0.0703,-5.4e-4 -0.0703,0.0664 0,0.0512 -0.0284,0.0932 -0.0635,0.0932 -0.0348,0 -0.0759,0.0399 -0.0914,0.0885 -0.0156,0.0487 -0.0569,0.0885 -0.0917,0.0885 -0.0348,0 -0.0635,0.03 -0.0635,0.0664 0,0.037 -0.0393,0.0664 -0.0885,0.0664 -0.0589,0 -0.0885,0.0295 -0.0885,0.0887 0,0.0486 -0.0276,0.0885 -0.0614,0.0885 -0.0338,0 -0.0723,0.042 -0.0855,0.093 -0.0144,0.055 -0.0449,0.0802 -0.0746,0.0619 -0.0294,-0.0184 -0.0601,0.006 -0.0741,0.0606 -0.013,0.0504 -0.0617,0.1036 -0.10759,0.11821 -0.0462,0.0146 -0.084,0.055 -0.084,0.0901 0,0.0348 -0.0298,0.0632 -0.0664,0.0632 -0.0364,0 -0.0664,0.03 -0.0664,0.0664 0,0.0601 -0.0526,0.0861 -0.14372,0.0717 -0.0184,-0.003 -0.0332,0.0346 -0.0332,0.0834 0,0.0487 -0.0276,0.0885 -0.0614,0.0885 -0.0338,0 -0.0723,0.042 -0.0855,0.093 -0.0144,0.055 -0.0449,0.0802 -0.0747,0.0619 -0.0294,-0.0184 -0.0601,0.007 -0.0744,0.0622 -0.0144,0.0542 -0.0603,0.093 -0.11051,0.093 -0.0473,0 -0.0744,0.0186 -0.0603,0.0413 0.0138,0.0226 -0.0348,0.0112 -0.10866,-0.0255 -0.0749,-0.0374 -0.12115,-0.0879 -0.10468,-0.1145 0.0176,-0.0284 0.009,-0.035 -0.0215,-0.0162 -0.0303,0.0186 -0.0714,-0.0141 -0.10227,-0.0818 -0.0284,-0.0622 -0.0784,-0.11318 -0.11107,-0.11318 -0.0327,0 -0.0593,-0.03 -0.0593,-0.0664 0,-0.0367 -0.017,-0.0664 -0.0377,-0.0664 -0.0553,0 -0.2941,-0.22952 -0.29649,-0.28479 -8e-4,-0.0261 -0.0229,-0.0433 -0.0484,-0.0385 -0.0257,0.005 -0.10442,-0.0693 -0.17508,-0.16497 -0.071,-0.0956 -0.15355,-0.17428 -0.18411,-0.17482 -0.0303,-5.3e-4 -0.0553,-0.0311 -0.0553,-0.0675 0,-0.0367 -0.0263,-0.0664 -0.0584,-0.0664 -0.0664,0 -0.2197,-0.16338 -0.26567,-0.2832 -0.0184,-0.0478 -0.0573,-0.0699 -0.097,-0.055 -0.0455,0.0176 -0.0659,-0.003 -0.0659,-0.0659 0,-0.054 -0.0361,-0.1007 -0.0882,-0.11424 -0.0484,-0.0128 -0.0763,-0.042 -0.0618,-0.0654 0.0144,-0.0231 -0.0156,-0.0532 -0.067,-0.0664 -0.051,-0.0136 -0.093,-0.0526 -0.093,-0.0872 0,-0.0342 -0.0348,-0.076 -0.0776,-0.0922 -0.20563,-0.0787 -0.33687,-0.31376 -0.19607,-0.35175 0.0409,-0.0111 0.10442,-0.0837 0.14081,-0.16126 0.0403,-0.0858 0.1052,-0.14638 0.16604,-0.15515 0.0547,-0.008 0.0996,-0.0431 0.0996,-0.0787 0,-0.0356 0.0298,-0.0763 0.0661,-0.0904 0.0364,-0.0138 0.0571,-0.0401 0.0456,-0.0582 -0.0111,-0.0184 0.0282,-0.0589 0.0875,-0.0906 0.0593,-0.0318 0.0975,-0.0741 0.0853,-0.094 -0.0124,-0.0199 0.0282,-0.0489 0.09,-0.0646 0.0619,-0.0154 0.11237,-0.0487 0.11237,-0.0739 0,-0.0252 0.035,-0.0741 0.0776,-0.10921 0.0502,-0.0412 0.0541,-0.0531 0.0112,-0.0342 -0.0367,0.0162 -0.0173,-0.0106 0.0431,-0.0597 0.0601,-0.0489 0.12487,-0.0792 0.14373,-0.0675 0.0191,0.0117 0.0346,-0.005 0.0346,-0.038 0,-0.0324 0.0348,-0.0893 0.0776,-0.12594 0.0425,-0.0367 0.11316,-0.11583 0.15701,-0.17587 0.0435,-0.06 0.0672,-0.0792 0.0521,-0.0427 -0.0184,0.0444 -0.006,0.0407 0.0359,-0.0109 0.0351,-0.0427 0.0864,-0.0776 0.11397,-0.0776 0.0279,0 0.0505,-0.0388 0.0505,-0.0858 0,-0.0473 0.0231,-0.10044 0.0512,-0.11771 0.0346,-0.0212 0.0391,-0.0114 0.0146,0.0306 -0.0202,0.0342 0.042,-0.0223 0.13788,-0.12593 0.0962,-0.10361 0.19899,-0.1881 0.22901,-0.1881 0.03,0 0.0545,-0.0229 0.0545,-0.0504 0,-0.0279 0.0348,-0.0792 0.0773,-0.11397 0.0508,-0.0417 0.0547,-0.0537 0.0112,-0.0348 -0.0364,0.0156 -0.0276,-0.003 0.0197,-0.0413 0.10707,-0.0866 0.1169,-0.0869 0.084,-5.3e-4"
       stroke="none"
       fill="#14bcb4"
       fill-rule="evenodd"
       style="stroke-width:0.265668;fill:#ffffff" /><path
       id="path2"
       d=""
       stroke="none"
       fill="#189cb8"
       fill-rule="evenodd" /><path
       id="path3"
       d=""
       stroke="none"
       fill="#185480"
       fill-rule="evenodd" /><path
       id="path4"
       d=""
       stroke="none"
       fill="#185844"
       fill-rule="evenodd" /></g></svg>
