<?xml version="1.0" encoding="UTF-8" standalone="no"?>
<svg
   viewBox="0 0 24 24"
   width="24pt"
   height="24pt"
   version="1.1"
   id="svg491"
   xml:space="preserve"
   xmlns="http://www.w3.org/2000/svg"
   xmlns:svg="http://www.w3.org/2000/svg"><defs
     id="defs495" /><g
     transform="matrix(0.1,0,0,-0.1,-337.81428,128.89346)"
     fill="#000000"
     stroke="none"
     id="g666"><path
       d="m 3521.8394,1260.072 c -12.6422,-3.3841 -23.8159,-15.1962 -26.3061,-27.7108 -1.2131,-6.1934 -2.0432,-6.6404 -13.2169,-7.0873 -11.3014,-0.4471 -14.5577,-1.5325 -18.8995,-6.3851 -8.4282,-9.322 -5.1719,-24.2629 6.3211,-29.3708 1.4685,-0.6386 4.9164,-1.4686 7.7259,-1.7239 2.8092,-0.3193 6.1933,-1.1494 7.5981,-1.9156 10.7906,-5.4911 12.5145,-20.6872 3.384,-28.4769 -4.0864,-3.5118 -7.0873,-4.2141 -17.7503,-4.2141 -13.0253,0 -12.1315,1.2769 -12.1315,-17.7503 0,-9.5775 0.2555,-15.324 0.7024,-16.3455 1.2132,-2.6178 3.5756,-3.1926 8.3005,-1.9794 13.2808,3.4479 23.8798,14.1108 27.1362,27.4554 1.6601,6.9596 1.7239,6.9596 13.5361,7.3428 9.1943,0.3192 10.2799,0.5107 13.2169,2.0432 8.1089,4.2778 12.0038,12.8975 9.5775,21.3258 -2.3625,8.3005 -7.662,12.5784 -17.1118,13.7277 -8.6197,1.0216 -13.1531,3.8948 -16.5371,10.4075 -1.7239,3.2562 -1.9154,10.3436 -0.3831,13.8553 1.5324,3.5118 5.5549,7.5982 9.1305,9.2583 2.9371,1.4046 4.0864,1.5324 13.2808,1.5324 13.6639,0 12.5783,-1.5324 12.5783,17.5587 0,15.8347 -0.2552,17.5586 -3.0009,18.7718 -1.9155,0.8939 -2.8732,0.83 -7.1511,-0.3192 z"
       id="path646"
       style="fill:#ffffff;stroke-width:0.0638498" /></g></svg>
