<?xml version="1.0" encoding="UTF-8" standalone="no"?>
<svg
   viewBox="0 0 24 24"
   width="24pt"
   height="24pt"
   version="1.1"
   id="svg429"
   sodipodi:docname="hq.svg"
   xml:space="preserve"
   inkscape:version="1.2.2 (732a01da63, 2022-12-09)"
   inkscape:export-filename="hq.svg"
   inkscape:export-xdpi="96"
   inkscape:export-ydpi="96"
   xmlns:inkscape="http://www.inkscape.org/namespaces/inkscape"
   xmlns:sodipodi="http://sodipodi.sourceforge.net/DTD/sodipodi-0.dtd"
   xmlns="http://www.w3.org/2000/svg"
   xmlns:svg="http://www.w3.org/2000/svg"><defs
     id="defs433" /><sodipodi:namedview
     id="namedview431"
     pagecolor="#ffffff"
     bordercolor="#000000"
     borderopacity="0.25"
     inkscape:showpageshadow="2"
     inkscape:pageopacity="0.0"
     inkscape:pagecheckerboard="0"
     inkscape:deskcolor="#d1d1d1"
     inkscape:document-units="pt"
     showgrid="false"
     inkscape:zoom="8.9382717"
     inkscape:cx="-14.656077"
     inkscape:cy="13.313536"
     inkscape:window-width="1920"
     inkscape:window-height="974"
     inkscape:window-x="-11"
     inkscape:window-y="1609"
     inkscape:window-maximized="1"
     inkscape:current-layer="svg429" /><g
     transform="matrix(0.01114657,0,0,-0.01114657,-95.119853,20.262294)"
     fill="#000000"
     stroke="none"
     id="g568"><path
       d="m 9506.9274,1470.1917 c -138.3542,-35.9881 -262.3131,-133.5558 -325.4921,-255.1155 -43.9855,-85.5716 -59.1804,-147.951 -59.1804,-242.31968 0.7997,-111.96292 28.7904,-206.33165 87.9708,-292.70303 13.5955,-19.99337 24.7918,-38.38728 24.7918,-41.58622 0,-3.19894 -21.5928,-42.38595 -47.9841,-87.97084 -26.3912,-44.78516 -47.9841,-83.97218 -47.9841,-87.17112 0,-2.3992 131.9563,-3.99867 294.3025,-2.3992 l 293.5027,3.19894 65.5783,21.59284 c 221.5272,74.37536 364.6792,283.90592 351.8842,513.42981 -7.998,135.955 -53.583,237.5214 -152.7502,335.8888 -72.7764,71.9761 -129.5574,106.3647 -220.7269,131.1565 -71.1764,19.9934 -195.935,21.5928 -263.9125,3.9987 z"
       id="path566"
       style="fill:#ffffff;stroke-width:0.799735" /></g></svg>
