<?xml version="1.0" encoding="UTF-8" standalone="no"?>
<svg
   viewBox="0 0 24 24"
   width="24pt"
   height="24pt"
   version="1.1"
   id="svg134"
   xml:space="preserve"
   xmlns="http://www.w3.org/2000/svg"
   xmlns:svg="http://www.w3.org/2000/svg"><defs
     id="defs138" /><g
     transform="matrix(0.01587621,0,0,-0.01587621,-248.44703,-28.273025)"
     fill="#000000"
     stroke="none"
     id="g272"><g
       transform="matrix(0.0363458,0,0,0.0363458,16030.003,-2796.835)"
       fill="#000000"
       stroke="none"
       id="g368"
       style="fill:#ffffff"><path
         d="M 0,10240 V 0 H 10240 20480 V 10240 20480 H 10240 0 Z m 14274,2249 c 552,-48 928,-301 1079,-726 26,-71 57,-214 57,-259 v -24 h -383 -382 l -13,42 c -33,103 -139,221 -249,277 -146,73 -333,65 -513,-21 -70,-33 -100,-56 -170,-127 -134,-135 -193,-276 -193,-461 -1,-314 211,-577 520,-646 96,-21 225,-15 306,14 127,46 242,155 290,276 l 25,61 381,3 381,2 v -24 c 0,-42 -30,-181 -54,-252 -53,-157 -133,-284 -251,-399 -175,-170 -417,-280 -725,-327 -134,-20 -495,-17 -600,5 -548,117 -952,546 -1030,1092 -15,108 -12,339 6,446 90,536 519,960 1059,1044 100,16 304,18 459,4 z m -2654,-63 c 0,-2 187,-554 415,-1226 228,-672 415,-1224 415,-1226 0,-2 -170,-3 -377,-2 l -377,3 -40,138 -40,137 h -392 -392 l -20,-67 c -11,-38 -30,-101 -42,-140 l -21,-73 h -374 c -206,0 -375,4 -375,8 0,6 787,2334 825,2440 3,9 92,12 400,12 217,0 395,-2 395,-4 z M 3390,11190 V 9960 h -365 -365 v 1230 1230 h 365 365 z m 1925,436 c 143,-437 261,-793 263,-791 3,2 120,359 261,792 l 257,788 452,3 452,2 V 11190 9960 h -345 -345 v 773 c 0,424 -4,765 -9,757 -4,-8 -106,-354 -226,-767 l -219,-753 h -273 -272 l -24,78 c -13,42 -118,387 -233,766 l -209,689 -3,-767 -2,-766 h -350 -350 v 1225 1225 h 458 458 z m 3843,766 c 330,-87 573,-333 654,-659 28,-113 30,-341 5,-445 -87,-353 -347,-611 -688,-683 -53,-11 -143,-15 -365,-15 h -294 v -315 -315 h -365 -365 v 1231 1230 l 668,-4 c 649,-3 669,-4 750,-25 z m 8662,-287 v -315 h -310 -310 l -2,-907 -3,-908 -367,-3 -368,-2 v 910 910 h -315 -315 v 315 315 h 995 995 z M 3938,7928 l 2,-1108 h 945 945 v 1110 1110 l 638,-2 637,-3 V 6295 3555 l -637,-3 -638,-2 v 1090 1090 h -945 -945 l -2,-1087 -3,-1088 -637,-3 -638,-2 v 2745 2745 l 638,-2 637,-3 z M 9490,7156 V 5273 l 24,-97 c 81,-317 321,-559 644,-648 105,-29 384,-31 512,-4 376,79 591,291 688,675 14,60 17,243 22,1951 l 5,1885 638,3 638,2 -4,-1942 c -3,-2112 0,-1994 -57,-2237 -53,-225 -166,-481 -284,-646 -369,-512 -965,-784 -1776,-812 -765,-25 -1418,198 -1816,619 -243,258 -388,557 -466,959 l -22,114 -3,1973 -3,1972 h 630 630 z m 6930,1860 c 252,-37 441,-91 617,-175 355,-170 583,-419 698,-764 47,-140 65,-254 72,-442 9,-249 -21,-411 -112,-602 -156,-331 -471,-579 -823,-651 l -93,-18 83,-13 c 234,-35 464,-150 646,-325 200,-191 322,-421 367,-696 21,-125 16,-411 -9,-555 -53,-294 -177,-544 -365,-735 -245,-248 -551,-392 -984,-462 -129,-22 -157,-22 -1429,-25 l -1298,-4 v 2746 2746 l 1258,-4 c 1125,-3 1269,-5 1372,-21 z"
         id="path358"
         style="fill:#ffffff" /><path
         d="m 11202,11645 c -12,-44 -68,-254 -125,-467 l -104,-388 h 248 c 142,0 249,4 249,9 0,7 -232,879 -243,916 -2,5 -13,-26 -25,-70 z"
         id="path360"
         style="fill:#ffffff" /><path
         d="m 8470,11505 v -346 l 193,3 c 180,3 195,5 241,27 27,14 67,42 87,62 21,21 51,62 66,91 26,49 28,62 28,163 0,100 -2,115 -27,161 -15,28 -50,72 -78,97 -78,70 -115,80 -327,85 l -183,4 z"
         id="path362"
         style="fill:#ffffff" /><path
         d="m 15060,7461 v -671 h 363 c 386,0 508,8 627,41 244,66 418,239 465,464 19,89 19,250 0,338 -49,231 -219,398 -480,469 -76,21 -104,22 -527,26 l -448,3 z"
         id="path364"
         style="fill:#ffffff" /><path
         d="m 15070,5210 v -701 l 488,3 c 427,3 494,6 546,21 241,71 420,251 485,487 26,93 29,291 5,390 -40,174 -164,330 -324,409 -171,83 -182,85 -722,89 l -478,3 z"
         id="path366"
         style="fill:#ffffff" /></g></g></svg>
