<?xml version="1.0" encoding="UTF-8" standalone="no"?>
<svg
   viewBox="0 0 24 24"
   width="24pt"
   height="24pt"
   version="1.1"
   id="svg134"
   sodipodi:docname="iwg.svg"
   xml:space="preserve"
   inkscape:version="1.2.2 (732a01da63, 2022-12-09)"
   inkscape:export-filename="iwg.svg"
   inkscape:export-xdpi="96"
   inkscape:export-ydpi="96"
   xmlns:inkscape="http://www.inkscape.org/namespaces/inkscape"
   xmlns:sodipodi="http://sodipodi.sourceforge.net/DTD/sodipodi-0.dtd"
   xmlns="http://www.w3.org/2000/svg"
   xmlns:svg="http://www.w3.org/2000/svg"><defs
     id="defs138" /><sodipodi:namedview
     id="namedview136"
     pagecolor="#ffffff"
     bordercolor="#000000"
     borderopacity="0.25"
     inkscape:showpageshadow="2"
     inkscape:pageopacity="0.0"
     inkscape:pagecheckerboard="0"
     inkscape:deskcolor="#d1d1d1"
     inkscape:document-units="pt"
     showgrid="false"
     inkscape:zoom="8.1980193"
     inkscape:cx="7.4408218"
     inkscape:cy="14.27174"
     inkscape:window-width="1920"
     inkscape:window-height="974"
     inkscape:window-x="-11"
     inkscape:window-y="-11"
     inkscape:window-maximized="1"
     inkscape:current-layer="svg134" /><g
     style="clip-rule:evenodd;fill-rule:evenodd;stroke-linejoin:round;stroke-miterlimit:2;fill:#8ad0e3;fill-opacity:1"
     id="g421"
     transform="matrix(0.28647317,0,0,0.28647317,-154.47281,-62.045521)"><g
       fill-rule="nonzero"
       id="g380"
       style="fill:#8ad0e3;fill-opacity:1"><g
         fill="#3d7b7d"
         id="g322"
         transform="matrix(0.27376558,0,0,0.27376558,531.12455,198.47179)"
         style="fill:#8ad0e3;fill-opacity:1"><path
           d="m 98.862,156.62 c -1.217,0 -2.663,0.075 -4.413,0.233 -1.35,0.127 -2.772,0.292 -4.243,0.491 v 80.672 c 3.369,0.538 6.314,0.807 8.77,0.807 2.319,0 5.231,-0.271 8.664,-0.809 v -80.675 c -1.427,-0.199 -2.831,-0.362 -4.191,-0.489 -1.792,-0.155 -3.294,-0.23 -4.587,-0.23"
           id="path316"
           style="fill:#8ad0e3;fill-opacity:1" /><path
           d="m 256.59,155.928 c -6.055,0 -11.539,1.054 -16.302,3.136 -4.726,2.066 -8.759,4.99 -11.991,8.692 -3.224,3.716 -5.735,8.191 -7.457,13.302 -1.724,5.151 -2.598,10.818 -2.598,16.842 0,6.037 0.838,11.692 2.49,16.803 1.634,5.06 4.134,9.458 7.428,13.078 3.281,3.622 7.431,6.492 12.34,8.535 4.91,2.05 10.756,3.089 17.375,3.089 3.159,0 6.97,-0.272 11.322,-0.804 3.981,-0.484 8.074,-1.461 12.183,-2.911 v -40.024 c -1.327,-0.199 -2.669,-0.356 -4,-0.472 -1.815,-0.145 -3.382,-0.22 -4.654,-0.22 -1.344,0 -2.829,0.073 -4.408,0.22 -1.21,0.118 -2.573,0.284 -4.134,0.499 v 27.97 l -1.304,0.266 c -1.256,0.253 -2.704,0.385 -4.302,0.385 -7.11,0 -12.568,-2.267 -16.226,-6.735 -3.579,-4.369 -5.391,-10.991 -5.391,-19.678 0,-8.755 1.849,-15.492 5.497,-20.022 3.746,-4.628 9.088,-6.973 15.882,-6.973 1.376,0 2.689,0.058 3.907,0.181 1.166,0.113 2.361,0.292 3.656,0.545 1.225,0.249 2.516,0.579 3.842,0.983 0.931,0.282 1.924,0.599 2.968,0.951 0.838,-1.789 1.657,-3.876 2.443,-6.226 0.833,-2.51 1.368,-5.122 1.593,-7.777 -3.519,-1.414 -6.784,-2.368 -9.721,-2.836 -3.307,-0.53 -6.818,-0.799 -10.438,-0.799"
           id="path318"
           style="fill:#8ad0e3;fill-opacity:1" /><path
           d="m 189.869,239.294 c 2.422,-11.805 7.798,-20.723 13.563,-29.552 2.048,-3.136 4.367,-6.684 6.218,-10.575 0.176,-0.372 0.36,-0.739 0.541,-1.106 l 0.028,-0.052 c 0.732,-1.473 1.559,-3.138 2.159,-5.16 0.858,-2.891 1.259,-5.843 1.189,-8.775 -0.131,-5.616 -1.613,-10.585 -4.524,-15.188 -2.568,-4.061 -5.911,-7.327 -9.936,-9.708 -5.893,-3.483 -13.189,-4.884 -20.012,-3.839 -5.191,0.791 -9.869,2.807 -13.899,5.998 l -0.864,0.682 -0.864,-0.68 c -1.147,-0.9 -2.135,-1.585 -3.107,-2.161 -5.893,-3.483 -13.186,-4.884 -20.012,-3.84 -8.664,1.319 -16.014,6.151 -20.702,13.602 -2.859,4.548 -4.364,9.675 -4.473,15.242 -0.139,7.04 2.314,12.18 4.171,15.433 0.325,0.568 0.638,1.145 0.951,1.719 l 0.054,0.096 c 0.598,1.099 1.213,2.229 1.921,3.379 1.063,1.719 2.118,3.359 3.387,5.326 1.973,3.051 3.824,5.921 5.51,8.941 3.852,6.908 6.34,13.341 7.816,20.221 2.404,0.388 4.341,0.572 6.042,0.572 1.634,0 3.682,-0.194 6.097,-0.572 2.094,-10.228 6.365,-18.342 12.113,-27.308 l 1.176,-1.833 1.177,1.83 c 1.432,2.234 2.947,4.621 4.325,7.09 3.852,6.908 6.34,13.344 7.816,20.221 2.407,0.388 4.344,0.572 6.042,0.572 1.634,0 3.682,-0.194 6.097,-0.572 m -32.756,-40.029 c -0.83,1.342 -1.691,2.669 -2.495,3.899 -2.795,4.282 -5.737,8.949 -8.325,14.071 l -1.251,2.476 -1.244,-2.479 c -0.662,-1.319 -1.375,-2.668 -2.128,-4.015 -1.879,-3.372 -3.93,-6.542 -5.91,-9.611 -1.081,-1.675 -2.19,-3.389 -3.25,-5.108 -0.543,-0.882 -1.081,-1.87 -1.601,-2.826 -0.367,-0.672 -0.736,-1.347 -1.122,-2.02 -1.877,-3.294 -2.652,-6.055 -2.588,-9.238 0.065,-3.397 0.926,-6.365 2.627,-9.072 1.621,-2.578 5.378,-7.058 12.335,-8.118 0.913,-0.14 1.841,-0.21 2.759,-0.21 4.406,0 7.731,1.575 9.318,2.51 0.618,0.368 1.223,0.781 1.846,1.27 l 0.864,0.677 -0.45,0.998 c -1.629,3.612 -2.498,7.552 -2.578,11.71 -0.093,4.762 0.97,9.248 3.25,13.716 l 0.357,0.7 z m 23.303,13.952 c -1.877,-3.367 -3.927,-6.539 -5.908,-9.608 l -0.069,-0.106 c -1.052,-1.629 -2.141,-3.315 -3.183,-5.006 -0.538,-0.874 -1.055,-1.823 -1.6,-2.826 l -0.029,-0.051 c -0.359,-0.657 -0.719,-1.313 -1.094,-1.968 -1.877,-3.293 -2.652,-6.055 -2.59,-9.238 0.067,-3.397 0.925,-6.365 2.629,-9.072 1.621,-2.578 5.378,-7.058 12.336,-8.118 0.912,-0.14 1.84,-0.21 2.758,-0.21 4.406,0 7.731,1.575 9.318,2.513 2.407,1.422 4.336,3.315 5.895,5.781 1.764,2.787 2.583,5.577 2.666,9.047 0.049,2.089 -0.349,3.909 -0.696,5.067 -0.302,1.024 -0.809,2.043 -1.393,3.225 -0.228,0.455 -0.45,0.904 -0.667,1.357 -1.5,3.152 -3.491,6.203 -5.419,9.153 -2.801,4.286 -5.74,8.953 -8.331,14.077 l -1.251,2.477 -1.244,-2.479 c -0.659,-1.313 -1.375,-2.663 -2.128,-4.015"
           id="path320"
           style="fill:#8ad0e3;fill-opacity:1" /></g></g></g></svg>
