<?xml version="1.0" encoding="UTF-8" standalone="no"?>
<svg
   viewBox="0 0 24 24"
   width="24pt"
   height="24pt"
   version="1.1"
   id="svg827"
   sodipodi:docname="knotel.svg"
   xml:space="preserve"
   inkscape:version="1.2.2 (732a01da63, 2022-12-09)"
   xmlns:inkscape="http://www.inkscape.org/namespaces/inkscape"
   xmlns:sodipodi="http://sodipodi.sourceforge.net/DTD/sodipodi-0.dtd"
   xmlns="http://www.w3.org/2000/svg"
   xmlns:svg="http://www.w3.org/2000/svg"><defs
     id="defs831" /><sodipodi:namedview
     id="namedview829"
     pagecolor="#ffffff"
     bordercolor="#000000"
     borderopacity="0.25"
     inkscape:showpageshadow="2"
     inkscape:pageopacity="0.0"
     inkscape:pagecheckerboard="0"
     inkscape:deskcolor="#d1d1d1"
     inkscape:document-units="pt"
     showgrid="false"
     inkscape:zoom="8.5736697"
     inkscape:cx="-4.3155383"
     inkscape:cy="6.9981702"
     inkscape:window-width="1920"
     inkscape:window-height="974"
     inkscape:window-x="-11"
     inkscape:window-y="-11"
     inkscape:window-maximized="1"
     inkscape:current-layer="svg827" /><g
     transform="matrix(0.00267361,0,0,-0.00267361,-0.06667746,17.948737)"
     fill="#000000"
     stroke="none"
     id="g974"
     style="fill:#ffffff"><path
       d="m 4245,5974 c -708,-73 -1325,-355 -1813,-828 -274,-266 -456,-517 -618,-851 -383,-792 -394,-1721 -29,-2527 95,-210 242,-451 391,-638 112,-141 374,-395 524,-507 408,-306 860,-496 1361,-575 196,-30 659,-33 839,-5 480,75 872,223 1240,469 177,118 281,201 424,338 527,507 840,1160 907,1890 16,173 6,519 -19,685 -83,534 -283,1001 -613,1425 -92,119 -295,328 -419,432 -346,291 -747,496 -1186,609 -250,63 -390,80 -689,84 -143,2 -278,1 -300,-1 z M 5310,4532 c 0,-13 -797,-2232 -804,-2239 -3,-4 -9,-4 -12,0 -7,7 -804,2226 -804,2239 0,4 365,8 810,8 446,0 810,-4 810,-8 z M 3480,1778 c 0,-80 10,-86 57,-35 57,62 92,87 122,87 54,0 53,-13 -9,-84 -35,-38 -57,-72 -54,-79 4,-7 31,-47 61,-90 30,-43 51,-82 48,-87 -3,-6 -24,-10 -45,-10 -40,0 -46,5 -119,100 l -19,24 -61,-53 -61,-53 v 160 c 0,159 0,161 23,165 56,11 57,10 57,-45 z m 393,37 c 18,-9 53,-45 80,-80 26,-36 52,-65 57,-65 6,0 10,33 10,75 v 75 h 45 45 v -170 -170 h -32 c -32,0 -36,3 -147,130 l -39,45 -7,-83 -8,-82 h -38 -39 v 163 c 0,90 3,167 7,170 10,11 33,8 66,-8 z m 597,-4 c 113,-60 133,-201 40,-285 -120,-108 -297,-42 -308,115 -4,49 0,65 22,102 46,80 164,112 246,68 z m 970,-116 v -135 h 79 c 73,0 79,-2 85,-22 12,-48 13,-48 -124,-48 h -130 v 164 165 l 28,4 c 67,10 62,20 62,-128 z m -540,91 c 0,-33 -1,-34 -50,-41 l -50,-7 v -124 -124 h -45 -44 l -3,122 -3,123 -47,9 c -36,6 -48,13 -48,26 0,10 -3,25 -6,34 -5,14 11,16 145,16 h 151 z m 354,9 c 4,-14 4,-30 1,-35 -4,-6 -36,-10 -73,-10 -43,-1 -74,-6 -86,-15 -20,-15 -20,-15 0,-30 10,-8 27,-15 37,-15 13,0 17,-8 17,-35 0,-30 -3,-35 -24,-35 -33,0 -53,-25 -36,-45 9,-11 33,-15 91,-15 h 79 v -35 -35 h -135 -135 v 165 165 h 129 129 z"
       id="path970"
       style="fill:#ffffff" /><path
       d="m 4323,1726 c -23,-20 -28,-32 -28,-69 0,-61 32,-97 87,-97 72,0 110,71 77,143 -23,50 -91,61 -136,23 z"
       id="path972"
       style="fill:#ffffff" /></g></svg>
