<?xml version="1.0" encoding="UTF-8" standalone="no"?>
<svg
   viewBox="0 0 24 24"
   width="24pt"
   height="24pt"
   version="1.1"
   id="svg557"
   sodipodi:docname="landmark_space.svg"
   xml:space="preserve"
   inkscape:version="1.2.2 (732a01da63, 2022-12-09)"
   inkscape:export-filename="landmark_space.svg"
   inkscape:export-xdpi="33.866665"
   inkscape:export-ydpi="33.866665"
   xmlns:inkscape="http://www.inkscape.org/namespaces/inkscape"
   xmlns:sodipodi="http://sodipodi.sourceforge.net/DTD/sodipodi-0.dtd"
   xmlns="http://www.w3.org/2000/svg"
   xmlns:svg="http://www.w3.org/2000/svg"><defs
     id="defs561" /><sodipodi:namedview
     id="namedview559"
     pagecolor="#ffffff"
     bordercolor="#000000"
     borderopacity="0.25"
     inkscape:showpageshadow="2"
     inkscape:pageopacity="0.0"
     inkscape:pagecheckerboard="0"
     inkscape:deskcolor="#d1d1d1"
     inkscape:document-units="pt"
     showgrid="false"
     inkscape:zoom="11.59375"
     inkscape:cx="19.320755"
     inkscape:cy="7.0727763"
     inkscape:window-width="1920"
     inkscape:window-height="974"
     inkscape:window-x="-11"
     inkscape:window-y="1609"
     inkscape:window-maximized="1"
     inkscape:current-layer="svg557" /><g
     transform="matrix(0.1,0,0,-0.1,-198.93997,73.774025)"
     fill="#000000"
     stroke="none"
     id="g675"
     style="fill:#ffffff"><g
       id="g718"
       transform="matrix(0.03987236,0,0,0.03987236,2022.0448,597.11146)"
       style="fill:#ffffff"><path
         d="M 681,1149 C 522,736 487,653 464,632 c -15,-13 -24,-25 -21,-28 2,-3 38,-4 78,-2 50,2 68,6 54,11 -62,25 -66,46 -32,138 l 24,64 h 97 97 l 30,-75 c 33,-84 34,-113 4,-118 -11,-2 -24,-8 -30,-13 -5,-5 30,-9 88,-9 90,0 123,10 78,25 -19,6 -64,110 -191,445 -39,101 -46,111 -59,79 z m 33,-203 c 20,-54 36,-103 36,-108 0,-4 -38,-8 -85,-8 -47,0 -85,4 -85,9 0,23 83,221 90,214 4,-4 24,-53 44,-107 z"
         id="path623"
         style="fill:#ffffff" /><path
         d="m 3017,1163 c -3,-4 -48,-120 -101,-258 -66,-171 -105,-257 -121,-272 -14,-12 -25,-25 -25,-28 0,-3 34,-5 75,-5 43,0 75,4 75,10 0,6 -10,10 -23,10 -53,0 -60,45 -23,136 l 24,59 h 97 98 l 30,-82 c 31,-87 31,-113 -2,-113 -11,0 -23,-4 -26,-10 -4,-6 28,-10 89,-10 89,0 122,10 77,25 -21,6 -28,21 -142,315 -84,219 -93,238 -102,223 z m 22,-208 c 23,-58 41,-110 41,-115 0,-6 -38,-10 -85,-10 -54,0 -85,4 -85,11 0,13 80,219 85,219 2,0 22,-47 44,-105 z"
         id="path625"
         style="fill:#ffffff" /><path
         d="m 3820,1160 c 0,-3 14,-11 30,-17 l 30,-11 V 888 c 0,-253 -2,-268 -42,-268 -10,0 -18,-4 -18,-10 0,-6 40,-10 100,-10 60,0 100,4 100,10 0,6 -11,10 -25,10 -18,0 -28,7 -35,26 -12,30 -13,231 -2,238 21,13 61,-28 133,-134 42,-63 75,-118 73,-122 -3,-5 -12,-8 -20,-8 -8,0 -14,-4 -14,-10 0,-6 35,-10 85,-10 86,0 104,8 62,27 -30,14 -229,291 -220,306 34,57 152,191 181,207 l 37,19 h -80 c -58,0 -74,-3 -57,-9 43,-18 22,-68 -80,-189 -28,-32 -72,-61 -95,-61 -10,0 -13,26 -13,98 0,125 5,140 44,151 24,7 9,9 -72,12 -56,2 -102,2 -102,-1 z"
         id="path627"
         style="fill:#ffffff" /><path
         d="m 30,1149 c 13,-6 28,-15 32,-22 4,-7 8,-118 8,-248 0,-244 -2,-259 -42,-259 -10,0 -18,-4 -18,-10 0,-6 75,-10 205,-10 h 204 l -3,81 c -2,44 -6,82 -8,85 -3,2 -10,-21 -17,-51 -18,-80 -42,-95 -147,-95 -72,0 -85,3 -94,19 -12,23 -14,470 -1,489 4,7 21,17 37,22 21,6 0,8 -76,9 -79,0 -99,-3 -80,-10 z"
         id="path629"
         style="fill:#ffffff" /><path
         d="m 985,1153 c 45,-11 45,-14 45,-267 0,-251 -2,-266 -42,-266 -10,0 -18,-4 -18,-10 0,-6 32,-10 75,-10 43,0 75,4 75,10 0,6 -11,10 -24,10 -44,0 -47,13 -44,258 l 3,230 165,-254 c 90,-140 168,-254 172,-254 4,0 8,111 8,248 0,265 4,290 50,303 14,4 -11,7 -60,7 -65,0 -78,-2 -55,-9 52,-15 55,-27 55,-227 0,-105 -4,-181 -9,-178 -5,3 -69,98 -142,211 l -132,205 -71,-1 c -39,-1 -62,-4 -51,-6 z"
         id="path631"
         style="fill:#ffffff" /><path
         d="m 1554,1150 c 16,-5 33,-15 37,-22 13,-19 11,-466 -1,-489 -6,-10 -19,-19 -30,-19 -10,0 -22,-4 -25,-10 -11,-17 253,-13 314,6 107,31 171,120 179,246 6,104 -10,167 -59,222 -58,65 -99,76 -288,75 -106,0 -147,-4 -127,-9 z m 296,-22 c 36,-19 51,-34 74,-81 26,-52 29,-68 29,-155 0,-117 -14,-171 -54,-217 -46,-52 -159,-80 -204,-51 l -25,16 v 236 c 0,143 4,243 10,255 16,28 111,27 170,-3 z"
         id="path633"
         style="fill:#ffffff" /><path
         d="m 2125,1153 c 45,-11 45,-14 45,-267 0,-251 -2,-266 -42,-266 -10,0 -18,-4 -18,-10 0,-6 32,-10 75,-10 43,0 75,4 75,10 0,6 -11,10 -24,10 -44,0 -47,13 -44,255 l 3,227 97,-248 c 53,-137 100,-250 105,-251 5,-2 46,99 93,224 46,126 89,239 96,253 11,21 13,-11 14,-198 0,-230 -5,-262 -40,-262 -10,0 -22,-5 -25,-10 -4,-6 32,-10 100,-10 68,0 104,4 100,10 -3,5 -15,10 -25,10 -11,0 -24,9 -30,19 -12,23 -14,470 -1,489 4,7 21,17 37,22 23,6 13,8 -46,9 l -75,1 -54,-148 c -86,-235 -113,-303 -118,-298 -3,2 -42,103 -88,223 l -82,218 -74,2 c -41,0 -65,-1 -54,-4 z"
         id="path635"
         style="fill:#ffffff" /><path
         d="m 3310,1153 c 50,-10 50,-10 50,-267 0,-251 -2,-266 -42,-266 -10,0 -18,-4 -18,-10 0,-6 40,-10 101,-10 64,0 98,4 94,10 -3,6 -15,10 -26,10 -29,0 -39,39 -39,151 v 99 h 55 c 79,0 96,-20 124,-143 25,-109 45,-137 97,-137 17,0 43,10 58,21 31,24 29,37 -3,17 -35,-21 -54,1 -76,89 -26,99 -44,128 -91,143 l -37,13 38,12 c 78,28 125,104 105,174 -12,43 -26,58 -71,82 -33,16 -58,19 -191,18 -84,-1 -142,-4 -128,-6 z m 254,-15 c 79,-35 86,-185 12,-234 -17,-10 -48,-17 -84,-18 l -57,-1 v 123 c 0,98 3,125 15,132 21,13 84,12 114,-2 z"
         id="path637"
         style="fill:#ffffff" /></g></g></svg>
