<?xml version="1.0" encoding="UTF-8" standalone="no"?>
<svg
   viewBox="0 0 24 24"
   width="24pt"
   height="24pt"
   version="1.1"
   id="svg134"
   xml:space="preserve"
   xmlns="http://www.w3.org/2000/svg"
   xmlns:svg="http://www.w3.org/2000/svg"><defs
     id="defs138" /><style
     type="text/css"
     id="style317">
	.st0{fill:#ED1A45;}
</style><g
     id="g329"
     transform="matrix(0.02826335,0,0,0.02826335,3.4210282,1.568135)"
     style="fill:#000000">
	<g
   id="g325"
   style="fill:#000000">
		<path
   d="m 216.5,331.5 c 0,-12 -9.2,-25.5 -24.8,-25.5 -20.6,0 -27.3,17.8 -27.3,25.5 z m 83.9,84.4 20,0.6 c 14.6,0.3 21.9,5.2 21.9,16 0,12.3 -13.1,19.7 -31.8,19.7 -20.3,0 -33.1,-8 -33.1,-21.2 0,-10.2 5.4,-14.4 9.9,-16.3 4.2,0.6 8.7,0.9 13.1,1.2 M 309,306 c 16.2,0 26.4,10.8 26.4,24.9 0,14.7 -9.8,25.5 -26.1,25.5 -15.2,0 -25.7,-10.7 -25.7,-25.5 0,-14.2 9.5,-24.9 25.4,-24.9 m -232.9,9.5 c 18.7,0 27,-12.3 27,-25.5 0,-14.1 -9.2,-25.2 -27,-25.2 H 48.4 v 50.7 z m 435,51.9 c 7,6.7 19.4,11.4 32.1,11.4 12.7,0 20,-4.3 20,-11.4 0,-7.1 -3.8,-10.8 -27.9,-14.7 -18.1,-3.1 -36.2,-11.1 -36.2,-32.6 0,-23 24.5,-34.4 46.1,-34.4 18.5,0 33.7,3.7 44.8,11.7 l -13.7,17.2 c -5.7,-4 -16.2,-8.6 -30.2,-8.6 -13.7,0 -20,4.9 -20,11.1 0,8.6 6,10.8 21.9,13.5 25.1,4 44.8,10.4 44.8,34.7 0,20 -21,35.6 -49.6,35.6 -20.3,0 -37.8,-4.9 -48,-15.7 z M 378.6,287.9 h 28.3 v 66.9 c 0,13.8 8.3,21.5 21,21.5 17.1,0 26.7,-14.4 26.7,-28.6 v -59.9 h 28.3 v 109.3 h -27 l -0.6,-11.9 c -6.4,7.7 -16.8,14.4 -33.7,14.4 -28.3,0 -42.9,-18.1 -42.9,-44.5 v -67.2 z m -137,93 c -2.5,3.1 -16.2,20 -49.2,20 -31.2,0 -56.6,-20.3 -56.6,-58.7 0,-29.8 21.6,-56.5 55.6,-56.5 35.3,0 53.1,24.3 53.1,57.4 0,2.5 0,5 -0.3,7.4 h -79.7 c 1.3,14.8 11.4,27.3 29.9,27.3 17.2,0 26.4,-6.4 33.4,-12.6 z M 20.8,243.6 h 56.6 c 39.1,0 55,25.2 55,45.8 0,19 -9.2,35.3 -29.6,42.4 l 34,65.4 H 104.4 L 75.2,336.7 H 48.4 v 60.5 H 20.8 Z m 288.8,42.1 c -28.9,0 -51.8,17.8 -51.8,45.2 0,13.5 4.4,24.3 12.1,31.6 -8.3,5.8 -12.7,13.8 -12.7,23 0,9.5 3.5,16.3 9.2,20.9 -10.8,5.5 -17.2,16.9 -17.2,27.6 0,27.7 25.8,40.6 58.5,40.6 32.4,0 62.9,-15.7 62.9,-44.6 0,-23.9 -17.5,-35.3 -44.1,-35.9 l -23.8,-0.6 c -12.1,-0.3 -18.8,-3.7 -18.8,-11.3 0,-3.4 1.3,-6.4 4.5,-8.9 6.4,2.2 13.7,3.4 21.6,3.4 29.9,0 51.5,-18.1 51.5,-45.5 0,-8.9 -2.5,-16.3 -6.4,-22.7 l 15.3,-11.3 -14.6,-16.6 -17.5,12.6 c -9,-5 -19.1,-7.5 -28.7,-7.5"
   id="path319"
   style="fill:#000000" />
		<path
   class="st0"
   d="m 342.3,219.6 c 0,13 10.9,23.4 24.3,23.4 13.4,0 24.3,-10.5 24.3,-23.4 0,-13 -10.9,-23.5 -24.3,-23.5 -13.5,0 -24.3,10.5 -24.3,23.5"
   id="path321"
   style="fill:#ffffff" />
		<path
   d="m 297.4,179.9 v 53.3 c -13.8,-2.5 -26.4,-9.7 -38,-30.1 l -23,12.2 c 24,42.3 56,44.7 80.6,44.7 h 6.5 v -90 z"
   id="path323"
   style="fill:#000000" />
	</g>
	
</g></svg>
