<?xml version="1.0" encoding="UTF-8" standalone="no"?>
<svg
   viewBox="0 0 24 24"
   width="24pt"
   height="24pt"
   version="1.1"
   id="svg134"
   sodipodi:docname="venturex.svg"
   xml:space="preserve"
   inkscape:version="1.2.2 (732a01da63, 2022-12-09)"
   xmlns:inkscape="http://www.inkscape.org/namespaces/inkscape"
   xmlns:sodipodi="http://sodipodi.sourceforge.net/DTD/sodipodi-0.dtd"
   xmlns="http://www.w3.org/2000/svg"
   xmlns:svg="http://www.w3.org/2000/svg"><defs
     id="defs138" /><sodipodi:namedview
     id="namedview136"
     pagecolor="#ffffff"
     bordercolor="#000000"
     borderopacity="0.25"
     inkscape:showpageshadow="2"
     inkscape:pageopacity="0.0"
     inkscape:pagecheckerboard="0"
     inkscape:deskcolor="#d1d1d1"
     inkscape:document-units="pt"
     showgrid="false"
     inkscape:zoom="16.396038"
     inkscape:cx="3.8423916"
     inkscape:cy="17.138286"
     inkscape:window-width="1920"
     inkscape:window-height="974"
     inkscape:window-x="-11"
     inkscape:window-y="-11"
     inkscape:window-maximized="1"
     inkscape:current-layer="svg134" /><g
     transform="matrix(0.1,0,0,-0.1,-197.88097,54.365363)"
     fill="#000000"
     stroke="none"
     id="g484"><g
       id="g581"
       transform="matrix(0.06841082,0,0,0.06841082,1952.4202,403.74711)"
       style="fill:#ffde16;fill-opacity:1"><path
         d="m 851,713 c 0,-5 21,-116 47,-248 l 47,-240 53,-3 c 28,-2 52,-2 52,0 1,2 22,114 49,251 l 47,247 h -42 c -51,0 -45,12 -76,-178 -12,-79 -25,-135 -29,-125 -3,10 -16,82 -29,161 l -23,142 h -48 c -27,0 -49,-3 -48,-7 z"
         id="path430"
         style="fill:#ffde16;fill-opacity:1" /><path
         d="M 1170,470 V 220 h 120 120 v 40 39 l -72,3 -73,3 -3,68 -3,67 h 61 60 v 40 40 h -60 -60 v 60 60 h 75 75 v 40 40 h -120 -120 z"
         id="path432"
         style="fill:#ffde16;fill-opacity:1" /><path
         d="M 1430,470 V 220 h 45 45 l 1,153 v 152 l 60,-152 60,-153 h 45 44 v 250 250 h -45 -45 V 588 l -1,-133 -52,133 -52,132 h -52 -53 z"
         id="path434"
         style="fill:#ffde16;fill-opacity:1" /><path
         d="m 1750,680 v -40 h 50 50 V 430 220 h 50 50 v 210 210 h 54 55 l 3,-174 c 3,-201 10,-220 88,-245 54,-18 122,-3 160,35 25,24 25,25 28,244 l 3,220 h -45 -46 V 522 c 0,-208 -3,-222 -45,-222 -42,0 -45,14 -45,222 v 198 h -205 -205 z"
         id="path436"
         style="fill:#ffde16;fill-opacity:1" /><path
         d="M 2380,470 V 220 h 45 45 v 100 c 0,93 1,100 20,100 20,0 20,-2 50,-120 21,-84 17,-80 71,-80 43,0 50,2 45,18 -2,9 -17,59 -32,110 l -27,92 23,25 c 50,53 45,179 -9,227 -30,27 -36,28 -131,28 h -100 z m 173,137 c 14,-43 0,-96 -28,-109 -44,-20 -55,-6 -55,72 v 71 l 37,-3 c 30,-2 38,-8 46,-31 z"
         id="path438"
         style="fill:#ffde16;fill-opacity:1" /><path
         d="M 2690,470 V 220 h 120 120 v 40 39 l -72,3 -73,3 v 65 65 l 58,3 57,3 v 39 40 h -60 -60 v 60 60 h 75 75 v 40 40 h -120 -120 z"
         id="path440"
         style="fill:#ffde16;fill-opacity:1" /><path
         d="m 3070,717 c 0,-3 20,-59 45,-125 l 46,-120 -32,-78 c -17,-44 -40,-100 -50,-127 l -19,-47 h 48 48 l 24,70 c 13,38 27,70 31,70 3,0 17,-31 30,-70 l 24,-70 h 51 52 l -50,131 -50,130 42,107 c 23,59 44,113 47,120 4,10 -6,12 -42,10 -44,-3 -49,-6 -58,-33 -5,-16 -16,-46 -24,-65 l -15,-35 -22,65 -23,65 -51,3 c -29,2 -52,1 -52,-1 z"
         id="path442"
         style="fill:#ffde16;fill-opacity:1" /></g></g></svg>
