<?xml version="1.0" encoding="UTF-8" standalone="no"?>
<svg
   viewBox="0 0 24 24"
   width="24pt"
   height="24pt"
   version="1.1"
   id="svg393"
   sodipodi:docname="wework.svg"
   xml:space="preserve"
   inkscape:version="1.2.2 (732a01da63, 2022-12-09)"
   xmlns:inkscape="http://www.inkscape.org/namespaces/inkscape"
   xmlns:sodipodi="http://sodipodi.sourceforge.net/DTD/sodipodi-0.dtd"
   xmlns="http://www.w3.org/2000/svg"
   xmlns:svg="http://www.w3.org/2000/svg"><defs
     id="defs397" /><sodipodi:namedview
     id="namedview395"
     pagecolor="#ffffff"
     bordercolor="#000000"
     borderopacity="0.25"
     inkscape:showpageshadow="2"
     inkscape:pageopacity="0.0"
     inkscape:pagecheckerboard="0"
     inkscape:deskcolor="#d1d1d1"
     inkscape:document-units="pt"
     showgrid="false"
     inkscape:zoom="6.0625"
     inkscape:cx="-30.020619"
     inkscape:cy="26.061856"
     inkscape:window-width="1920"
     inkscape:window-height="974"
     inkscape:window-x="-11"
     inkscape:window-y="-11"
     inkscape:window-maximized="1"
     inkscape:current-layer="svg393" /><path
     d="m 15.404227,8.3651575 c 0.698656,0 0.853175,0.764476 0.887401,1.2685521 H 14.40001 c 0.0771,-0.7199432 0.406221,-1.2685521 1.004217,-1.2685521 z m 1.836549,1.6157494 c 0.162543,0 0.294566,-0.1307156 0.294642,-0.2814532 8e-5,-0.6758533 -0.978747,-1.6333333 -2.192557,-1.6333333 -1.266114,0 -2.292445,0.9999578 -2.292445,2.2335956 0,1.233712 1.026331,2.233671 2.292445,2.233671 1.015584,0 1.876245,-0.64351 2.177469,-1.534785 h -0.277884 c -0.213217,0.397046 -0.583236,0.812885 -1.198644,0.812885 -1.069501,0 -1.667268,-0.728735 -1.662182,-1.8304264 l 8e-5,-8.02e-5 z M 13.00285,8.1408089 h -1.251506 v 0.2041949 h 0.04991 c 0.551431,0 0.925828,0.5606643 0.714433,1.0700375 L 11.932448,10.819858 11.015661,8.6654814 c -0.06469,-0.1518685 0.0468,-0.3204776 0.211912,-0.3204776 h 0.0037 V 8.1408089 H 8.9724629 v 0.2041949 h 0.030232 c 0.1858076,0 0.3535704,0.1109651 0.4263574,0.2818586 L 9.7541388,9.3908176 9.1611506,10.819858 8.2443448,8.6654814 C 8.1796583,8.5136129 8.2911781,8.3450238 8.4561993,8.3450238 h 0.00367 V 8.1408089 H 6.2011501 v 0.2042149 h 0.030232 c 0.1858076,0 0.3535699,0.1109451 0.4263568,0.2818386 l 1.5322144,3.6003866 a 0.40827537,0.40827537 0 0 0 0.3764515,0.248343 0.40810265,0.40810265 0 0 0 0.3763553,-0.251683 L 9.938706,9.8245069 10.961333,12.227228 a 0.40808345,0.40808345 0 0 0 0.376353,0.248383 0.40802585,0.40802585 0 0 0 0.376374,-0.251702 l 1.539259,-3.7079361 c 0.07409,-0.1785304 -0.0572,-0.375164 -0.250494,-0.375164 z m 4.261709,7.2062231 c -1.389749,1.389653 -3.237353,2.155049 -5.202738,2.155049 -1.965231,0 -3.8129112,-0.765396 -5.2026601,-2.155049 -1.3896529,-1.389748 -2.1550488,-3.237411 -2.1550488,-5.20266 0,-1.965385 0.7653959,-3.8130668 2.1550488,-5.202738 1.3897489,-1.3896529 3.2374111,-2.1550488 5.2026601,-2.1550488 1.965385,0 3.812989,0.7653959 5.202738,2.1550488 1.389728,1.3896712 2.154974,3.237353 2.154974,5.202738 0,1.965229 -0.765246,3.812912 -2.154974,5.20266 z M 19.490053,7.006161 C 19.083909,6.0461091 18.502726,5.1839898 17.762418,4.4436793 17.022185,3.7034488 16.160066,3.1221885 15.200015,2.7161403 14.205891,2.2956755 13.150095,2.0824779 12.061821,2.0824779 c -1.08812,0 -2.1439914,0.2132176 -3.1381153,0.6336624 C 7.9637316,3.1222084 7.1015345,3.7034666 6.3612262,4.4436993 5.6209935,5.1840076 5.0397354,6.0461269 4.6336851,7.0061788 4.2132024,8.0003027 4.0000048,9.0561741 4.0000048,10.144372 c 0,1.08812 0.2132154,2.143992 0.6336603,3.138116 0.4060703,0.960051 0.9873284,1.822171 1.7275611,2.562403 0.7403083,0.740309 1.6025054,1.321566 2.5624795,1.727638 0.9941239,0.420443 2.0499953,0.633659 3.1381153,0.633659 1.088274,0 2.14407,-0.213216 3.138194,-0.633659 0.960051,-0.406072 1.82217,-0.987329 2.562403,-1.727638 0.740308,-0.740232 1.321491,-1.602352 1.727635,-2.562403 0.420445,-0.994124 0.633662,-2.049996 0.633662,-3.138116 0,-1.0881979 -0.213217,-2.1440693 -0.633662,-3.1381932 z"
     fill="#252729"
     fill-rule="evenodd"
     id="path524"
     style="fill:#ffffff;stroke-width:0.191949" /></svg>
