<?xml version="1.0" encoding="UTF-8" standalone="no"?>
<svg
   viewBox="0 0 24 24"
   width="24pt"
   height="24pt"
   version="1.1"
   id="svg486"
   sodipodi:docname="wojo.svg"
   xml:space="preserve"
   inkscape:version="1.2.2 (732a01da63, 2022-12-09)"
   inkscape:export-filename="wojo.svg"
   inkscape:export-xdpi="96"
   inkscape:export-ydpi="96"
   xmlns:inkscape="http://www.inkscape.org/namespaces/inkscape"
   xmlns:sodipodi="http://sodipodi.sourceforge.net/DTD/sodipodi-0.dtd"
   xmlns="http://www.w3.org/2000/svg"
   xmlns:svg="http://www.w3.org/2000/svg"><defs
     id="defs490" /><sodipodi:namedview
     id="namedview488"
     pagecolor="#ffffff"
     bordercolor="#000000"
     borderopacity="0.25"
     inkscape:showpageshadow="2"
     inkscape:pageopacity="0.0"
     inkscape:pagecheckerboard="0"
     inkscape:deskcolor="#d1d1d1"
     inkscape:document-units="pt"
     showgrid="false"
     inkscape:zoom="12.640625"
     inkscape:cx="-3.8763906"
     inkscape:cy="18.353523"
     inkscape:window-width="1920"
     inkscape:window-height="974"
     inkscape:window-x="-11"
     inkscape:window-y="1609"
     inkscape:window-maximized="1"
     inkscape:current-layer="svg486" /><g
     transform="matrix(0.1,0,0,-0.1,-414.88102,-73.148754)"
     fill="#000000"
     stroke="none"
     id="g749"><g
       id="g890"
       transform="matrix(0.23408462,0,0,0.23408462,3922.1972,-940.98402)"
       style="fill:#ffffff"><path
         d="m 1364,770 c -215,-85 -281,-360 -128,-530 73,-81 143,-112 254,-111 202,0 355,186 319,385 -20,111 -79,192 -175,241 -76,39 -194,45 -270,15 z m 243,-75 c 167,-82 192,-323 46,-444 -138,-114 -353,-57 -418,112 -27,71 -18,170 21,233 31,51 102,107 158,124 49,15 133,4 193,-25 z"
         id="path685"
         style="fill:#ffffff" /><path
         d="m 1416,646 c -78,-29 -126,-99 -126,-184 0,-62 13,-98 48,-136 75,-80 202,-86 280,-13 70,65 82,180 26,259 -51,72 -147,104 -228,74 z m 133,-70 c 83,-43 91,-165 15,-223 -86,-65 -214,-2 -214,105 0,98 110,164 199,118 z"
         id="path687"
         style="fill:#ffffff" /><path
         d="m 1452,504 c -42,-29 -18,-104 35,-104 49,0 72,76 31,104 -12,9 -27,16 -33,16 -6,0 -21,-7 -33,-16 z"
         id="path689"
         style="fill:#ffffff" /></g></g></svg>
