<?xml version="1.0" encoding="UTF-8" standalone="no"?><!-- Generator: Gravit.io --><svg xmlns="http://www.w3.org/2000/svg" xmlns:xlink="http://www.w3.org/1999/xlink" style="isolation:isolate" viewBox="0 0 24 24" width="24pt" height="24pt"><defs><clipPath id="_clipPath_T00Azjwu0BQApScZw4ZmXwgDvvd0E1L7"><rect width="24" height="24"/></clipPath></defs><g clip-path="url(#_clipPath_T00Azjwu0BQApScZw4ZmXwgDvvd0E1L7)"><ellipse vector-effect="non-scaling-stroke" cx="11.951086596915527" cy="22.399278846153855" rx="2.926562500000001" ry="0.907984775641026" fill="rgb(162,162,162)" fill-opacity="0.7"/><path d=" M 3.847 8.619 C 3.847 4.092 7.487 0.428 11.972 0.428 C 16.464 0.428 20.104 4.092 20.104 8.619 C 20.104 11.048 19.049 13.239 17.374 14.739 C 17.281 14.819 14.089 17.812 11.952 22.399 C 11.148 19.153 8.028 16.033 6.597 14.759 C 4.909 13.252 3.847 11.062 3.847 8.619 Z " fill="rgb(198,0,58)"/><circle vector-effect="non-scaling-stroke" cx="11.963162150349653" cy="8.666947115384612" r="6.078245192307694" fill="rgb(255,255,255)"/><g><path d=" M 11.294 3.16 C 8.735 3.504 6.782 5.497 6.49 8.063 C 6.448 8.433 6.473 9.245 6.539 9.61 C 6.958 11.97 8.796 13.768 11.175 14.145 C 11.381 14.178 11.577 14.188 12.006 14.188 C 12.608 14.188 12.839 14.162 13.326 14.042 C 15.295 13.567 16.871 12.005 17.37 10.041 C 17.501 9.521 17.531 9.266 17.531 8.662 C 17.531 8.072 17.503 7.826 17.381 7.328 C 16.997 5.761 15.932 4.429 14.476 3.699 C 14.003 3.462 13.49 3.294 12.919 3.193 C 12.554 3.127 11.666 3.111 11.294 3.16 Z  M 14.064 6.295 C 14.12 6.328 14.195 6.398 14.232 6.454 C 14.293 6.546 14.3 6.574 14.3 6.742 C 14.3 6.911 14.293 6.939 14.232 7.03 C 14.069 7.274 13.752 7.335 13.509 7.173 C 13.2 6.969 13.212 6.503 13.53 6.295 C 13.67 6.201 13.905 6.201 14.064 6.295 Z  M 9.194 6.358 C 9.557 6.48 9.847 6.791 9.946 7.164 C 10.037 7.515 9.943 7.939 9.721 8.194 L 9.648 8.276 L 9.784 8.423 C 10.037 8.693 10.145 8.969 10.145 9.346 C 10.145 10.338 9.086 10.975 8.204 10.512 C 7.995 10.402 7.855 10.275 7.724 10.086 C 7.368 9.561 7.424 8.856 7.864 8.409 L 7.988 8.28 L 7.918 8.189 C 7.555 7.737 7.581 7.084 7.972 6.67 C 8.297 6.326 8.749 6.211 9.194 6.358 Z  M 15.843 6.471 C 16.101 6.597 16.316 6.857 16.363 7.098 L 16.379 7.175 L 16.164 7.175 L 15.951 7.175 L 15.92 7.098 C 15.871 6.983 15.714 6.855 15.567 6.812 C 15.368 6.754 15.176 6.805 15.026 6.953 C 14.776 7.206 14.825 7.616 15.129 7.798 C 15.195 7.84 15.293 7.88 15.349 7.887 C 15.558 7.92 15.822 7.777 15.913 7.585 L 15.953 7.503 L 16.166 7.503 L 16.379 7.503 L 16.363 7.578 C 16.316 7.819 16.094 8.084 15.836 8.213 C 15.691 8.283 15.668 8.287 15.424 8.287 C 15.192 8.287 15.153 8.28 15.028 8.222 C 14.656 8.049 14.452 7.735 14.452 7.339 C 14.452 6.897 14.705 6.555 15.143 6.41 C 15.202 6.391 15.321 6.382 15.462 6.386 C 15.661 6.391 15.703 6.4 15.843 6.471 Z  M 12.977 6.754 L 12.977 7.058 L 12.099 7.058 L 11.222 7.058 L 11.222 7.506 C 11.222 7.899 11.226 7.95 11.257 7.939 C 11.531 7.833 11.917 7.812 12.17 7.887 C 12.505 7.988 12.783 8.189 12.968 8.465 C 13.139 8.723 13.195 8.913 13.198 9.236 C 13.198 9.46 13.188 9.533 13.141 9.678 C 13.003 10.104 12.657 10.453 12.233 10.587 C 11.552 10.802 10.849 10.5 10.521 9.849 C 10.468 9.744 10.414 9.542 10.395 9.381 L 10.383 9.283 L 10.685 9.283 L 10.987 9.283 L 11.001 9.346 C 11.076 9.685 11.212 9.863 11.493 9.99 C 11.58 10.029 11.652 10.041 11.795 10.043 C 11.961 10.043 12.001 10.034 12.139 9.966 C 12.32 9.877 12.444 9.751 12.53 9.566 C 12.617 9.379 12.617 9.116 12.53 8.929 C 12.444 8.744 12.32 8.618 12.139 8.529 C 12.001 8.461 11.961 8.451 11.795 8.451 C 11.582 8.454 11.444 8.503 11.278 8.639 L 11.177 8.721 L 10.896 8.611 L 10.613 8.498 L 10.613 7.473 L 10.613 6.45 L 11.795 6.45 L 12.977 6.45 L 12.977 6.754 Z  M 14.413 9.484 C 14.518 9.538 14.57 9.608 14.57 9.706 C 14.572 9.987 13.893 10.523 13.537 10.523 C 13.432 10.523 13.413 10.5 13.432 10.395 C 13.455 10.278 13.813 9.751 13.87 9.751 C 13.956 9.751 13.942 9.819 13.813 10.001 C 13.743 10.102 13.659 10.233 13.624 10.294 L 13.56 10.404 L 13.631 10.383 C 13.987 10.282 14.509 9.807 14.429 9.657 C 14.368 9.542 14.092 9.542 13.743 9.659 C 13.493 9.741 13.469 9.744 13.469 9.671 C 13.469 9.622 13.493 9.606 13.64 9.554 C 13.872 9.47 13.968 9.451 14.167 9.449 C 14.282 9.446 14.364 9.458 14.413 9.484 Z  M 16.237 9.486 C 16.344 9.585 16.246 9.737 15.869 10.055 C 15.766 10.142 15.658 10.257 15.628 10.31 L 15.574 10.406 L 15.635 10.383 C 15.745 10.341 15.789 10.31 15.965 10.158 C 16.059 10.076 16.152 10.008 16.173 10.008 C 16.258 10.008 16.234 10.081 16.103 10.224 C 16.028 10.303 15.979 10.374 15.993 10.378 C 16.042 10.395 16.248 10.261 16.414 10.111 C 16.506 10.029 16.597 9.962 16.616 9.962 C 16.672 9.962 16.686 10.022 16.646 10.079 C 16.588 10.163 15.97 10.807 15.911 10.844 C 15.86 10.879 15.85 10.879 15.815 10.844 C 15.78 10.807 15.787 10.793 15.927 10.652 L 16.077 10.502 L 15.991 10.516 C 15.925 10.526 15.892 10.519 15.857 10.488 C 15.813 10.446 15.806 10.446 15.726 10.484 C 15.576 10.556 15.415 10.512 15.448 10.406 C 15.459 10.371 15.433 10.378 15.307 10.446 C 15.134 10.537 15.017 10.544 14.982 10.465 C 14.961 10.416 14.961 10.416 14.855 10.47 C 14.733 10.53 14.659 10.537 14.619 10.491 C 14.593 10.46 14.579 10.46 14.511 10.491 C 14.403 10.535 14.352 10.533 14.289 10.481 C 14.239 10.441 14.237 10.43 14.263 10.352 C 14.279 10.308 14.333 10.226 14.385 10.172 C 14.551 10.001 14.766 9.938 14.874 10.027 C 14.921 10.065 14.923 10.076 14.897 10.128 C 14.881 10.158 14.836 10.219 14.801 10.261 C 14.764 10.303 14.733 10.348 14.733 10.362 C 14.733 10.402 14.914 10.294 15.087 10.149 C 15.178 10.072 15.274 10.008 15.3 10.008 C 15.389 10.008 15.373 10.076 15.251 10.21 C 15.134 10.336 15.108 10.383 15.155 10.383 C 15.167 10.383 15.265 10.322 15.375 10.247 C 15.553 10.128 15.588 10.093 15.689 9.922 C 15.937 9.507 16.11 9.372 16.237 9.486 Z  M 14.237 10.912 C 14.314 10.966 14.307 11.088 14.218 11.177 C 14.125 11.268 14.059 11.289 14.01 11.237 C 13.975 11.202 13.977 11.195 14.031 11.156 C 14.169 11.053 14.181 11.034 14.139 11.01 C 14.078 10.978 13.886 11.05 13.729 11.17 C 13.511 11.333 13.329 11.598 13.329 11.753 C 13.329 11.802 13.34 11.811 13.397 11.811 C 13.432 11.811 13.49 11.79 13.523 11.764 C 13.598 11.703 13.68 11.703 13.68 11.76 C 13.68 11.837 13.502 11.952 13.383 11.952 C 13.139 11.952 13.137 11.657 13.375 11.341 C 13.633 10.999 14.059 10.786 14.237 10.912 Z  M 15.426 10.957 C 15.499 11.067 15.401 11.198 15.082 11.415 C 14.965 11.495 14.942 11.518 14.979 11.525 C 15.005 11.53 15.035 11.544 15.047 11.554 C 15.071 11.577 15.185 11.523 15.396 11.394 C 15.513 11.324 15.539 11.315 15.588 11.338 C 15.635 11.359 15.647 11.383 15.647 11.458 C 15.647 11.535 15.632 11.561 15.551 11.636 C 15.497 11.682 15.422 11.736 15.38 11.755 C 15.34 11.771 15.323 11.785 15.342 11.788 C 15.419 11.788 15.721 11.621 15.822 11.521 C 15.939 11.401 15.998 11.385 15.998 11.467 C 15.998 11.547 15.942 11.612 15.785 11.717 C 15.6 11.844 15.452 11.905 15.33 11.905 C 15.206 11.905 15.155 11.86 15.155 11.753 C 15.155 11.675 15.153 11.673 15.089 11.696 C 15.052 11.708 14.998 11.764 14.956 11.83 C 14.867 11.97 14.694 12.158 14.612 12.2 C 14.49 12.263 14.382 12.23 14.382 12.13 C 14.382 12.101 14.413 12.015 14.45 11.938 L 14.518 11.795 L 14.415 11.851 C 14.335 11.895 14.291 11.907 14.235 11.895 C 14.148 11.877 14.125 11.877 13.982 11.895 C 13.851 11.912 13.809 11.874 13.83 11.755 C 13.848 11.659 13.989 11.504 14.122 11.437 C 14.277 11.359 14.452 11.385 14.452 11.486 C 14.452 11.511 14.415 11.582 14.368 11.638 C 14.321 11.696 14.289 11.748 14.296 11.757 C 14.314 11.774 14.513 11.645 14.661 11.521 C 14.717 11.474 14.813 11.364 14.874 11.277 C 15.033 11.05 15.209 10.898 15.309 10.898 C 15.368 10.898 15.398 10.914 15.426 10.957 Z " fill="rgb(198,0,58)"/><path d=" M 13.696 6.595 C 13.631 6.646 13.612 6.735 13.645 6.82 C 13.701 6.948 13.884 6.951 13.951 6.822 C 13.982 6.761 13.982 6.738 13.958 6.681 C 13.914 6.571 13.783 6.529 13.696 6.595 Z " fill="rgb(198,0,58)"/><path d=" M 8.634 6.955 C 8.466 7.016 8.321 7.199 8.286 7.386 C 8.267 7.498 8.318 7.686 8.398 7.791 C 8.487 7.906 8.67 7.995 8.819 7.995 C 9.309 7.992 9.538 7.384 9.171 7.063 C 9.011 6.923 8.826 6.885 8.634 6.955 Z " fill="rgb(198,0,58)"/><path d=" M 8.559 8.676 C 8.41 8.735 8.253 8.882 8.178 9.037 C 8.103 9.196 8.098 9.458 8.169 9.613 C 8.29 9.875 8.534 10.032 8.824 10.032 C 9.22 10.032 9.519 9.737 9.522 9.341 C 9.526 8.84 9.028 8.496 8.559 8.676 Z " fill="rgb(198,0,58)"/></g></g></svg>