<?xml version="1.0" encoding="UTF-8" standalone="no"?><!-- Generator: Gravit.io --><svg xmlns="http://www.w3.org/2000/svg" xmlns:xlink="http://www.w3.org/1999/xlink" style="isolation:isolate" viewBox="0 0 24 24" width="24pt" height="24pt"><defs><clipPath id="_clipPath_6kDezHO63aHDl2984U8jvW1XrD6OCguS"><rect width="24" height="24"/></clipPath></defs><g clip-path="url(#_clipPath_6kDezHO63aHDl2984U8jvW1XrD6OCguS)"><path d=" M 18.086 16.765 C 19.727 15.086 20.828 12.887 20.828 10.373 C 20.828 5.501 16.872 1.545 12 1.545 C 7.128 1.545 3.172 5.501 3.172 10.373 C 3.172 12.917 4.177 15.038 5.975 16.823 L 5.975 16.823 L 11.641 23.076 L 18.097 16.765 L 18.086 16.765 Z " fill="rgb(24,84,148)"/><g><path d=" M 15.4 5.672 C 15.431 5.598 15.37 5.529 15.37 5.529 C 15.37 5.529 14.892 4.721 13.21 4.538 C 12.306 4.442 11.081 4.625 10.22 5.09 C 8.656 5.929 8.421 7.315 8.421 7.315 C 8.413 7.35 8.4 7.454 8.434 7.497 C 8.469 7.541 8.521 7.541 8.586 7.519 C 9.138 7.332 10.777 6.789 11.811 6.515 C 13.284 6.124 14.497 5.885 15.27 5.755 C 15.331 5.742 15.379 5.724 15.4 5.672 Z " fill="rgb(250,175,24)"/><path d=" M 17.082 12.199 C 16.2 14.181 14.51 15.559 12.289 15.589 C 10.677 15.611 9.251 15.059 8.221 14.094 L 7.6 14.359 L 7.6 13.395 C 6.922 12.482 6.527 11.322 6.527 10.009 C 6.527 6.641 9.104 3.99 12.702 3.99 C 13.288 3.99 13.819 4.082 14.218 4.173 C 13.601 3.977 12.989 3.869 12.306 3.869 C 8.447 3.869 5.849 6.998 5.849 10.227 C 5.849 13.742 8.608 16.689 12.228 16.689 C 15.687 16.689 17.552 14.251 18.151 12.782 L 17.082 12.199 Z " fill="rgb(255,255,255)"/><path d=" M 16.187 11.504 C 16.696 11.448 17.048 11.243 17.239 11.052 C 17.413 10.878 17.456 10.644 17.456 10.466 C 17.465 10.205 17.456 9.388 17.456 9.388 L 16.113 9.679 C 16.113 9.679 16.113 9.779 16.113 9.992 C 16.118 10.2 16.217 10.313 16.435 10.274 C 16.504 10.261 16.609 10.231 16.609 10.231 L 16.609 10.487 C 16.609 10.479 16.63 10.631 16.291 10.696 C 15.848 10.765 15.648 10.492 15.644 10.009 C 15.653 9.492 15.944 9.197 16.3 9.114 C 16.7 9.023 16.926 9.118 17.056 9.136 C 17.499 9.201 17.625 8.536 17.221 8.38 C 16.921 8.258 16.535 8.236 16.165 8.31 C 15.67 8.41 14.701 8.823 14.696 10.166 C 14.692 11.235 15.479 11.582 16.187 11.504 Z " fill="rgb(237,29,33)"/><path d=" M 11.82 12.647 C 11.82 12.647 12.232 12.504 12.267 12.495 C 12.598 12.382 12.719 12.182 12.719 11.843 C 12.715 11.474 12.715 10.752 12.715 10.752 L 13.675 11.856 C 13.832 12.017 14.027 12.03 14.205 11.978 C 14.388 11.926 14.544 11.756 14.549 11.517 C 14.549 10.722 14.549 8.775 14.549 8.775 C 14.549 8.775 14.301 8.827 14.097 8.884 C 13.862 8.949 13.68 9.101 13.68 9.501 C 13.68 9.64 13.68 10.452 13.68 10.452 C 13.68 10.452 13.132 9.77 12.78 9.418 C 12.593 9.231 12.28 9.344 12.28 9.344 L 11.82 9.483 L 11.82 12.647 Z " fill="rgb(238,28,35)"/><path d=" M 11.528 9.553 C 11.528 9.553 11.242 9.635 11.007 9.722 C 10.703 9.831 10.525 10.009 10.525 10.47 C 10.525 10.896 10.525 13.099 10.525 13.099 C 10.525 13.099 10.79 13.008 11.042 12.912 C 11.394 12.777 11.528 12.595 11.528 12.226 C 11.528 11.908 11.528 9.553 11.528 9.553 Z " fill="rgb(237,28,35)"/><path d=" M 10.099 10.179 C 9.834 10.057 9.608 10.192 9.512 10.339 L 8.699 11.726 L 8.699 10.609 L 7.735 11.004 L 7.73 14.159 L 8.408 13.877 C 8.408 13.877 8.543 13.838 8.621 13.712 C 8.695 13.594 8.691 13.403 8.691 13.403 L 8.691 12.404 L 9.447 13.208 C 9.612 13.381 9.916 13.468 10.186 13.251 C 10.429 13.056 10.39 12.721 10.255 12.569 L 9.569 11.878 C 9.569 11.878 10.173 10.922 10.273 10.765 C 10.403 10.548 10.338 10.287 10.099 10.179 Z " fill="rgb(238,29,35)"/><path d=" M 9.721 13.89 C 9.686 13.972 9.768 14.055 9.768 14.055 C 10.116 14.494 11.668 15.05 13.354 14.642 C 15.926 14.02 16.47 12.199 16.53 11.943 C 16.543 11.891 16.552 11.808 16.504 11.756 C 16.465 11.713 16.404 11.713 16.326 11.73 C 14.536 12.152 11.568 13.06 9.851 13.794 C 9.777 13.825 9.747 13.838 9.721 13.89 Z " fill="rgb(250,175,24)"/><path d=" M 8.195 9.753 C 8.191 9.579 8.056 9.483 7.826 9.601 L 7.826 10.161 C 7.826 10.161 7.9 10.127 7.956 10.1 C 8.095 10.035 8.2 9.922 8.195 9.753 Z  M 7.822 9.244 C 7.865 9.227 7.896 9.214 7.93 9.197 C 8.056 9.136 8.148 9.018 8.148 8.871 C 8.148 8.701 8.008 8.658 7.822 8.753 C 7.822 8.758 7.822 9.244 7.822 9.244 Z  M 8.812 9.67 C 8.821 10.114 8.504 10.348 8.087 10.518 L 7.239 10.878 L 7.239 8.579 C 7.239 8.579 7.774 8.362 7.948 8.297 C 8.443 8.115 8.734 8.336 8.734 8.666 C 8.734 8.888 8.639 9.075 8.434 9.24 C 8.634 9.275 8.808 9.44 8.812 9.67 Z " fill="rgb(238,28,35)"/><path d=" M 10.42 7.732 C 10.42 7.537 10.286 7.489 10.125 7.532 C 9.994 7.571 9.842 7.628 9.842 7.628 L 9.842 9.058 C 9.842 9.201 9.821 9.379 9.642 9.423 C 9.508 9.457 9.443 9.366 9.443 9.223 L 9.443 8.054 C 9.443 7.858 9.308 7.802 9.147 7.854 C 8.965 7.915 8.86 7.958 8.86 7.958 C 8.86 7.958 8.86 8.971 8.86 9.375 C 8.856 9.848 9.186 10.087 9.682 9.94 C 10.12 9.809 10.416 9.562 10.42 8.931 L 10.42 7.732 Z " fill="rgb(237,29,31)"/><path d=" M 15.14 8.323 C 15.266 8.297 15.344 8.206 15.344 8.049 C 15.344 7.91 15.344 7.802 15.344 7.802 L 14.657 7.954 L 14.657 7.55 C 14.657 7.55 14.996 7.48 15.088 7.458 C 15.205 7.432 15.266 7.367 15.266 7.232 C 15.266 7.106 15.266 6.998 15.266 6.998 L 14.657 7.128 L 14.657 6.806 C 14.657 6.806 14.975 6.741 15.144 6.707 C 15.279 6.68 15.322 6.589 15.322 6.463 C 15.322 6.381 15.322 6.22 15.322 6.22 C 15.018 6.272 14.44 6.389 14.079 6.472 L 14.075 8.566 C 14.075 8.566 14.762 8.406 15.14 8.323 Z " fill="rgb(238,28,35)"/><path d=" M 11.159 8.236 C 11.159 8.236 11.498 8.058 11.498 7.78 C 11.494 7.541 11.276 7.593 11.163 7.636 L 11.159 8.236 Z  M 11.163 8.562 C 11.163 8.562 11.163 8.962 11.163 9.127 C 11.163 9.279 11.059 9.388 10.929 9.44 C 10.929 9.444 10.929 9.436 10.929 9.44 C 10.82 9.479 10.585 9.557 10.585 9.557 L 10.585 7.397 C 10.585 7.397 11.068 7.228 11.35 7.163 C 11.785 7.059 12.098 7.258 12.093 7.615 C 12.089 7.954 11.902 8.158 11.733 8.301 L 12.106 8.658 C 12.219 8.771 12.228 8.971 12.102 9.092 C 12.024 9.166 11.82 9.24 11.663 9.075 C 11.659 9.075 11.163 8.562 11.163 8.562 Z " fill="rgb(238,29,35)"/><path d=" M 16.035 7.076 C 16.035 7.076 16.37 6.95 16.365 6.68 C 16.361 6.454 16.139 6.494 16.031 6.52 L 16.035 7.076 Z  M 15.47 8.258 L 15.47 6.189 C 15.47 6.189 16.074 6.081 16.231 6.063 C 16.665 6.007 16.956 6.25 16.948 6.589 C 16.943 6.889 16.756 7.072 16.596 7.18 C 16.596 7.18 16.891 7.51 16.969 7.602 C 17.074 7.719 17.069 7.923 16.913 8.023 C 16.761 8.119 16.604 8.071 16.517 7.971 L 16.035 7.397 C 16.035 7.397 16.035 7.749 16.035 7.902 C 16.035 8.054 15.944 8.167 15.787 8.197 L 15.47 8.258 L 15.47 8.258 Z " fill="rgb(238,29,35)"/><path d=" M 13.94 7.389 L 13.084 7.584 C 13.084 7.584 13.084 7.676 13.084 7.823 C 13.084 7.936 13.162 8.006 13.275 7.984 C 13.345 7.971 13.401 7.958 13.401 7.958 L 13.401 8.197 C 13.401 8.293 13.262 8.354 13.115 8.349 C 12.906 8.34 12.793 8.18 12.789 7.875 C 12.793 7.476 12.984 7.241 13.241 7.176 C 13.367 7.141 13.484 7.158 13.575 7.171 C 13.797 7.206 13.923 7.102 13.927 6.919 C 13.932 6.724 13.758 6.602 13.388 6.615 C 12.58 6.641 12.167 7.224 12.167 7.915 C 12.167 8.623 12.632 8.936 13.197 8.836 C 13.514 8.771 13.675 8.666 13.784 8.571 C 13.893 8.475 13.94 8.332 13.94 8.206 L 13.94 7.389 Z " fill="rgb(238,29,35)"/><path d=" M 10.564 5.073 C 9.616 5.49 8.978 6.485 8.943 6.902 C 8.93 7.067 9.151 7.093 9.173 6.915 C 9.373 6.15 9.981 5.429 10.564 5.073 Z " fill="rgb(255,255,255)"/><path d=" M 13.697 5.785 C 14.205 5.659 14.488 5.642 14.492 5.411 C 14.501 5.029 13.415 4.586 12.415 4.668 C 13.432 4.738 14.04 5.129 14.04 5.398 C 14.045 5.572 13.893 5.724 13.697 5.785 Z " fill="rgb(255,255,255)"/><path d=" M 14.01 14.216 C 14.775 13.916 15.509 13.338 15.918 12.478 C 16.035 12.23 15.696 12.099 15.6 12.395 C 15.361 13.008 14.875 13.725 14.01 14.216 Z " fill="rgb(255,255,255)"/></g></g></svg>