<?xml version="1.0" encoding="UTF-8" standalone="no"?><!-- Generator: Gravit.io --><svg xmlns="http://www.w3.org/2000/svg" xmlns:xlink="http://www.w3.org/1999/xlink" style="isolation:isolate" viewBox="0 0 400 520" width="400pt" height="520pt"><defs><clipPath id="_clipPath_wOiclBPNW0R2GfDQQrQG7jFF1jagDhFy"><rect width="400" height="520"/></clipPath></defs><g clip-path="url(#_clipPath_wOiclBPNW0R2GfDQQrQG7jFF1jagDhFy)"><g><defs><filter id="kFSLlFIQJWgyAXjpq4GCDOowUbxcQni1" x="-200%" y="-200%" width="400%" height="400%" filterUnits="objectBoundingBox" color-interpolation-filters="sRGB"><feGaussianBlur xmlns="http://www.w3.org/2000/svg" stdDeviation="4.293609062839028"/></filter></defs><g filter="url(#kFSLlFIQJWgyAXjpq4GCDOowUbxcQni1)"><ellipse vector-effect="non-scaling-stroke" cx="198.91361582044095" cy="490" rx="65" ry="20.166666666666686" fill="rgb(162,162,162)" fill-opacity="0.7"/></g><defs><filter id="F3nUQo462ilVwdaopttM45P87erpGb3r" x="-200%" y="-200%" width="400%" height="400%" filterUnits="objectBoundingBox" color-interpolation-filters="sRGB"><feGaussianBlur xmlns="http://www.w3.org/2000/svg" stdDeviation="0"/></filter></defs><g filter="url(#F3nUQo462ilVwdaopttM45P87erpGb3r)"><path d=" M 18.914 183.931 C 18.914 83.382 99.774 2 199.384 2 C 299.14 2 380 83.382 380 183.931 C 380 237.891 356.562 286.544 319.355 319.863 C 317.304 321.633 246.405 388.124 198.944 490 C 181.073 417.906 111.785 348.613 79.998 320.306 C 42.498 286.839 18.914 238.186 18.914 183.931 Z  M 311.005 183.931" fill="rgb(139,139,139)"/></g></g><circle vector-effect="non-scaling-stroke" cx="199.18181818181824" cy="184.99999999999997" r="135" fill="rgb(255,255,255)"/><g><path d=" M 255.859 101.744 C 256.413 100.399 255.305 99.132 255.305 99.132 C 255.305 99.132 246.6 84.412 215.972 81.088 C 199.51 79.347 177.192 82.671 161.522 91.139 C 133.03 106.413 128.757 131.66 128.757 131.66 C 128.598 132.293 128.361 134.192 128.994 134.984 C 129.627 135.775 130.577 135.775 131.764 135.38 C 141.815 131.976 171.652 122.084 190.488 117.098 C 217.317 109.975 239.398 105.622 253.485 103.248 C 254.593 103.01 255.464 102.694 255.859 101.744 Z " fill="rgb(250,175,24)"/><path d=" M 286.487 220.616 C 270.421 256.705 239.635 281.793 199.193 282.347 C 169.832 282.743 143.873 272.691 125.116 255.122 L 113.799 259.95 L 113.799 242.38 C 101.453 225.76 94.251 204.629 94.251 180.728 C 94.251 119.393 141.182 71.116 206.712 71.116 C 217.396 71.116 227.051 72.778 234.333 74.44 C 223.094 70.879 211.935 68.9 199.51 68.9 C 129.232 68.9 81.904 125.882 81.904 184.685 C 81.904 248.711 132.16 302.37 198.085 302.37 C 261.083 302.37 295.035 257.971 305.956 231.221 L 286.487 220.616 Z " fill="rgb(24,84,148)"/><path d=" M 270.184 207.953 C 279.444 206.924 285.854 203.205 289.336 199.722 C 292.502 196.557 293.294 192.283 293.294 189.038 C 293.452 184.29 293.294 169.411 293.294 169.411 L 268.839 174.713 C 268.839 174.713 268.839 176.534 268.839 180.412 C 268.918 184.21 270.738 186.268 274.695 185.556 C 275.961 185.318 277.861 184.764 277.861 184.764 L 277.861 189.434 C 277.861 189.275 278.257 192.045 272.083 193.233 C 264.011 194.499 260.37 189.513 260.291 180.728 C 260.449 171.31 265.752 165.928 272.242 164.425 C 279.523 162.763 283.638 164.504 286.012 164.82 C 294.085 166.008 296.38 153.899 289.02 151.05 C 283.559 148.834 276.515 148.438 269.788 149.783 C 260.766 151.604 243.117 159.122 243.038 183.577 C 242.959 203.046 257.284 209.378 270.184 207.953 Z " fill="rgb(237,29,33)"/><path d=" M 190.646 228.767 C 190.646 228.767 198.164 226.156 198.798 225.998 C 204.812 223.94 207.028 220.299 207.028 214.126 C 206.949 207.399 206.949 194.261 206.949 194.261 L 224.44 214.364 C 227.289 217.292 230.85 217.529 234.095 216.58 C 237.419 215.63 240.268 212.543 240.347 208.19 C 240.347 193.707 240.347 158.252 240.347 158.252 C 240.347 158.252 235.836 159.201 232.117 160.23 C 227.843 161.417 224.519 164.187 224.519 171.468 C 224.519 174.001 224.519 188.801 224.519 188.801 C 224.519 188.801 214.547 176.375 208.136 169.965 C 204.733 166.562 199.035 168.619 199.035 168.619 L 190.646 171.152 L 190.646 228.767 Z " fill="rgb(238,28,35)"/><path d=" M 185.343 172.418 C 185.343 172.418 180.12 173.922 175.846 175.505 C 170.306 177.483 167.062 180.728 167.062 189.117 C 167.062 196.873 167.062 236.998 167.062 236.998 C 167.062 236.998 171.889 235.336 176.479 233.595 C 182.89 231.142 185.343 227.818 185.343 221.091 C 185.343 215.313 185.343 172.418 185.343 172.418 Z " fill="rgb(237,28,35)"/><path d=" M 159.306 183.815 C 154.478 181.599 150.363 184.052 148.621 186.743 L 133.822 211.989 L 133.822 191.65 L 116.252 198.852 L 116.173 256.309 L 128.519 251.165 C 128.519 251.165 130.973 250.452 132.397 248.157 C 133.743 246.021 133.663 242.538 133.663 242.538 L 133.663 224.336 L 147.434 238.977 C 150.442 242.143 155.982 243.725 160.888 239.768 C 165.32 236.207 164.608 230.113 162.155 227.343 L 149.65 214.759 C 149.65 214.759 160.651 197.348 162.471 194.499 C 164.846 190.542 163.658 185.793 159.306 183.815 Z " fill="rgb(238,29,35)"/><path d=" M 152.42 251.402 C 151.787 252.906 153.291 254.41 153.291 254.41 C 159.622 262.403 187.876 272.533 218.583 265.094 C 265.435 253.776 275.328 220.616 276.436 215.946 C 276.674 214.997 276.832 213.493 275.961 212.543 C 275.249 211.752 274.141 211.752 272.717 212.068 C 240.11 219.745 186.056 236.286 154.794 249.661 C 153.449 250.215 152.895 250.452 152.42 251.402 Z " fill="rgb(250,175,24)"/><path d=" M 124.641 176.059 C 124.562 172.893 122.109 171.152 117.914 173.289 L 117.914 183.498 C 117.914 183.498 119.26 182.865 120.288 182.39 C 122.821 181.203 124.72 179.145 124.641 176.059 Z  M 117.835 166.799 C 118.626 166.482 119.18 166.245 119.814 165.928 C 122.109 164.82 123.771 162.684 123.771 159.993 C 123.771 156.906 121.238 156.115 117.835 157.856 C 117.835 157.935 117.835 166.799 117.835 166.799 Z  M 135.879 174.555 C 136.038 182.628 130.26 186.901 122.663 189.988 L 107.23 196.557 L 107.23 154.69 C 107.23 154.69 116.964 150.733 120.13 149.546 C 129.152 146.222 134.455 150.258 134.455 156.273 C 134.455 160.309 132.714 163.713 128.994 166.72 C 132.635 167.353 135.8 170.36 135.879 174.555 Z " fill="rgb(238,28,35)"/><path d=" M 165.162 139.258 C 165.162 135.696 162.709 134.826 159.78 135.617 C 157.406 136.329 154.636 137.358 154.636 137.358 L 154.636 163.396 C 154.636 166.008 154.24 169.252 150.996 170.044 C 148.542 170.677 147.355 169.015 147.355 166.403 L 147.355 145.114 C 147.355 141.553 144.902 140.524 141.973 141.474 C 138.649 142.582 136.75 143.373 136.75 143.373 C 136.75 143.373 136.75 161.813 136.75 169.173 C 136.671 177.8 142.686 182.153 151.708 179.462 C 159.701 177.088 165.083 172.576 165.162 161.101 L 165.162 139.258 Z " fill="rgb(237,29,31)"/><path d=" M 251.111 150.021 C 253.406 149.546 254.83 147.884 254.83 145.035 C 254.83 142.502 254.83 140.524 254.83 140.524 L 242.326 143.294 L 242.326 135.934 C 242.326 135.934 248.499 134.667 250.161 134.272 C 252.298 133.797 253.406 132.61 253.406 130.156 C 253.406 127.861 253.406 125.882 253.406 125.882 L 242.326 128.257 L 242.326 122.4 C 242.326 122.4 248.103 121.213 251.19 120.58 C 253.643 120.105 254.435 118.443 254.435 116.148 C 254.435 114.644 254.435 111.716 254.435 111.716 C 248.895 112.666 238.369 114.803 231.8 116.306 L 231.721 154.453 C 231.721 154.453 244.225 151.525 251.111 150.021 Z " fill="rgb(238,28,35)"/><path d=" M 178.616 148.438 C 178.616 148.438 184.789 145.193 184.789 140.128 C 184.71 135.775 180.753 136.725 178.695 137.516 L 178.616 148.438 Z  M 178.695 154.374 C 178.695 154.374 178.695 161.655 178.695 164.662 C 178.695 167.432 176.796 169.411 174.422 170.36 C 174.422 170.44 174.422 170.281 174.422 170.36 C 172.443 171.073 168.17 172.497 168.17 172.497 L 168.17 133.164 C 168.17 133.164 176.954 130.077 182.099 128.89 C 190.013 126.99 195.711 130.631 195.632 137.121 C 195.553 143.294 192.15 147.013 189.063 149.625 L 195.869 156.115 C 197.927 158.173 198.085 161.813 195.79 164.029 C 194.366 165.374 190.646 166.72 187.797 163.713 C 187.718 163.713 178.695 154.374 178.695 154.374 Z " fill="rgb(238,29,35)"/><path d=" M 267.414 127.307 C 267.414 127.307 273.508 125.012 273.429 120.105 C 273.35 115.99 269.313 116.702 267.335 117.177 L 267.414 127.307 Z  M 257.126 148.834 L 257.126 111.162 C 257.126 111.162 268.126 109.183 270.975 108.867 C 278.89 107.838 284.192 112.27 284.034 118.443 C 283.955 123.904 280.552 127.228 277.623 129.206 C 277.623 129.206 283.005 135.221 284.43 136.883 C 286.329 139.02 286.25 142.74 283.401 144.56 C 280.631 146.301 277.782 145.431 276.199 143.61 L 267.414 133.164 C 267.414 133.164 267.414 139.574 267.414 142.344 C 267.414 145.114 265.752 147.172 262.903 147.726 L 257.126 148.834 L 257.126 148.834 Z " fill="rgb(238,29,35)"/><path d=" M 229.267 133.005 L 213.676 136.567 C 213.676 136.567 213.676 138.229 213.676 140.92 C 213.676 142.977 215.101 144.243 217.159 143.848 C 218.425 143.61 219.454 143.373 219.454 143.373 L 219.454 147.726 C 219.454 149.467 216.921 150.575 214.23 150.496 C 210.432 150.337 208.374 147.409 208.295 141.869 C 208.374 134.588 211.856 130.314 216.526 129.127 C 218.821 128.494 220.957 128.811 222.619 129.048 C 226.656 129.681 228.951 127.782 229.03 124.458 C 229.109 120.897 225.943 118.681 219.216 118.918 C 204.496 119.393 196.977 129.998 196.977 142.582 C 196.977 155.482 205.446 161.18 215.734 159.36 C 221.511 158.173 224.44 156.273 226.418 154.532 C 228.397 152.791 229.267 150.179 229.267 147.884 L 229.267 133.005 Z " fill="rgb(238,29,35)"/><path d=" M 167.774 90.822 C 150.521 98.42 138.887 116.544 138.254 124.141 C 138.016 127.149 142.053 127.624 142.448 124.379 C 146.089 110.45 157.169 97.312 167.774 90.822 Z " fill="rgb(255,255,255)"/><path d=" M 224.835 103.802 C 234.095 101.507 239.239 101.19 239.318 96.996 C 239.477 90.031 219.691 81.958 201.488 83.462 C 220.008 84.728 231.088 91.851 231.088 96.758 C 231.167 99.924 228.397 102.694 224.835 103.802 Z " fill="rgb(255,255,255)"/><path d=" M 230.534 257.338 C 244.463 251.877 257.838 241.351 265.277 225.681 C 267.414 221.17 261.241 218.796 259.5 224.177 C 255.147 235.336 246.283 248.395 230.534 257.338 Z " fill="rgb(255,255,255)"/></g></g></svg>