<?xml version="1.0" encoding="UTF-8" standalone="no"?><!-- Generator: Gravit.io --><svg xmlns="http://www.w3.org/2000/svg" xmlns:xlink="http://www.w3.org/1999/xlink" style="isolation:isolate" viewBox="0 0 400 520" width="400pt" height="520pt"><defs><clipPath id="_clipPath_sjHaZWnIOWEG6YGgM2rfxPLsYVTk8WID"><rect width="400" height="520"/></clipPath></defs><g clip-path="url(#_clipPath_sjHaZWnIOWEG6YGgM2rfxPLsYVTk8WID)"><g><defs><filter id="dU1S2KR9Oce8nRdAMnl9tiK49w94jkM7" x="-200%" y="-200%" width="400%" height="400%" filterUnits="objectBoundingBox" color-interpolation-filters="sRGB"><feGaussianBlur xmlns="http://www.w3.org/2000/svg" stdDeviation="4.293609062839028"/></filter></defs><g filter="url(#dU1S2KR9Oce8nRdAMnl9tiK49w94jkM7)"><ellipse vector-effect="non-scaling-stroke" cx="198.91361582044095" cy="490" rx="65" ry="20.166666666666686" fill="rgb(162,162,162)" fill-opacity="0.7"/></g><defs><filter id="0XWBhjVLWKyEP1yEoGk5EtnEEJNvD6oR" x="-200%" y="-200%" width="400%" height="400%" filterUnits="objectBoundingBox" color-interpolation-filters="sRGB"><feGaussianBlur xmlns="http://www.w3.org/2000/svg" stdDeviation="0"/></filter></defs><g filter="url(#0XWBhjVLWKyEP1yEoGk5EtnEEJNvD6oR)"><path d=" M 18.914 183.931 C 18.914 83.382 99.774 2 199.384 2 C 299.14 2 380 83.382 380 183.931 C 380 237.891 356.562 286.544 319.355 319.863 C 317.304 321.633 246.405 388.124 198.944 490 C 181.073 417.906 111.785 348.613 79.998 320.306 C 42.498 286.839 18.914 238.186 18.914 183.931 Z  M 311.005 183.931" fill="rgb(238,111,11)"/></g></g><circle vector-effect="non-scaling-stroke" cx="199.18181818181824" cy="184.99999999999997" r="135" fill="rgb(255,255,255)"/><circle vector-effect="non-scaling-stroke" cx="198.99999999999977" cy="184.3333333333332" r="120.33333333333336" fill="rgb(238,111,11)"/><path d=" M 118.636 200.084 L 118.636 151.754 L 151.722 151.754 L 151.722 160.709 L 133.948 160.709 L 133.948 171.031 L 149.534 171.031 L 149.534 180.875 L 133.948 180.875 L 133.948 200.084 L 118.636 200.084 L 118.636 200.084 Z  M 159.344 200.084 L 159.344 163.204 L 174.109 163.204 L 174.109 200.084 L 159.344 200.084 L 159.344 200.084 Z  M 166.761 155.616 L 166.761 155.616 L 166.761 155.616 Q 164.813 155.616 163.104 155.206 L 163.104 155.206 L 163.104 155.206 Q 161.395 154.796 160.147 154.078 L 160.147 154.078 L 160.147 154.078 Q 158.899 153.36 158.165 152.335 L 158.165 152.335 L 158.165 152.335 Q 157.43 151.31 157.43 150.079 L 157.43 150.079 L 157.43 150.079 Q 157.43 148.712 158.147 147.669 L 158.147 147.669 L 158.147 147.669 Q 158.865 146.627 160.13 145.943 L 160.13 145.943 L 160.13 145.943 Q 161.395 145.26 163.104 144.918 L 163.104 144.918 L 163.104 144.918 Q 164.813 144.576 166.795 144.576 L 166.795 144.576 L 166.795 144.576 Q 168.777 144.576 170.503 144.918 L 170.503 144.918 L 170.503 144.918 Q 172.229 145.26 173.494 145.943 L 173.494 145.943 L 173.494 145.943 Q 174.759 146.627 175.477 147.669 L 175.477 147.669 L 175.477 147.669 Q 176.194 148.712 176.194 150.079 L 176.194 150.079 L 176.194 150.079 Q 176.194 151.31 175.459 152.335 L 175.459 152.335 L 175.459 152.335 Q 174.725 153.36 173.46 154.078 L 173.46 154.078 L 173.46 154.078 Q 172.195 154.796 170.469 155.206 L 170.469 155.206 L 170.469 155.206 Q 168.743 155.616 166.761 155.616 Z  M 185.149 200.084 L 185.149 163.204 L 199.197 163.204 L 199.197 163.204 Q 199.129 164.093 199.095 165.169 L 199.095 165.169 L 199.095 165.169 Q 199.061 166.246 199.061 167.425 L 199.061 167.425 L 199.061 167.425 Q 199.061 168.604 199.061 169.801 L 199.061 169.801 L 199.061 169.801 Q 199.061 170.997 199.061 172.091 L 199.061 172.091 L 199.061 172.091 Q 199.744 170.416 200.838 168.656 L 200.838 168.656 L 200.838 168.656 Q 201.932 166.896 203.418 165.494 L 203.418 165.494 L 203.418 165.494 Q 204.905 164.093 206.802 163.187 L 206.802 163.187 L 206.802 163.187 Q 208.699 162.281 211.058 162.281 L 211.058 162.281 L 211.058 162.281 Q 211.502 162.281 212.032 162.333 L 212.032 162.333 L 212.032 162.333 Q 212.562 162.384 213.074 162.486 L 213.074 162.486 L 213.074 162.486 Q 213.587 162.589 214.048 162.743 L 214.048 162.743 L 214.048 162.743 Q 214.51 162.896 214.817 163.102 L 214.817 163.102 L 213.621 177.184 L 213.621 177.184 Q 212.083 176.603 210.374 176.312 L 210.374 176.312 L 210.374 176.312 Q 208.665 176.021 207.4 176.021 L 207.4 176.021 L 207.4 176.021 Q 205.657 176.021 204.341 176.449 L 204.341 176.449 L 204.341 176.449 Q 203.025 176.876 202.103 177.56 L 202.103 177.56 L 202.103 177.56 Q 201.18 178.243 200.65 179.063 L 200.65 179.063 L 200.65 179.063 Q 200.12 179.884 199.915 180.67 L 199.915 180.67 L 199.915 200.084 L 185.149 200.084 L 185.149 200.084 Z  M 250.262 164.195 L 249.749 174.244 L 249.749 174.244 Q 246.331 172.672 243.067 171.8 L 243.067 171.8 L 243.067 171.8 Q 239.803 170.929 237.342 170.929 L 237.342 170.929 L 237.342 170.929 Q 234.744 170.929 233.65 171.424 L 233.65 171.424 L 233.65 171.424 Q 232.557 171.92 232.557 173.15 L 232.557 173.15 L 232.557 173.15 Q 232.557 174.244 234.163 174.876 L 234.163 174.876 L 234.163 174.876 Q 235.77 175.509 238.88 176.329 L 238.88 176.329 L 238.88 176.329 Q 241.99 177.149 244.451 178.141 L 244.451 178.141 L 244.451 178.141 Q 246.912 179.132 248.638 180.602 L 248.638 180.602 L 248.638 180.602 Q 250.364 182.071 251.27 184.122 L 251.27 184.122 L 251.27 184.122 Q 252.176 186.173 252.176 189.146 L 252.176 189.146 L 252.176 189.146 Q 252.176 191.813 251.15 194.017 L 251.15 194.017 L 251.15 194.017 Q 250.125 196.222 248.04 197.794 L 248.04 197.794 L 248.04 197.794 Q 245.955 199.366 242.776 200.221 L 242.776 200.221 L 242.776 200.221 Q 239.598 201.075 235.291 201.075 L 235.291 201.075 L 235.291 201.075 Q 231.463 201.075 227.601 200.511 L 227.601 200.511 L 227.601 200.511 Q 223.738 199.947 219.808 198.512 L 219.808 198.512 L 219.808 187.95 L 219.808 187.95 Q 223.328 189.488 226.883 190.411 L 226.883 190.411 L 226.883 190.411 Q 230.438 191.334 233.65 191.334 L 233.65 191.334 L 233.65 191.334 Q 239.427 191.334 239.427 188.941 L 239.427 188.941 L 239.427 188.941 Q 239.427 188.531 239.153 188.189 L 239.153 188.189 L 239.153 188.189 Q 238.88 187.848 238.145 187.523 L 238.145 187.523 L 238.145 187.523 Q 237.41 187.198 236.094 186.839 L 236.094 186.839 L 236.094 186.839 Q 234.778 186.48 232.728 185.968 L 232.728 185.968 L 232.728 185.968 Q 229.891 185.284 227.378 184.208 L 227.378 184.208 L 227.378 184.208 Q 224.866 183.131 223.003 181.576 L 223.003 181.576 L 223.003 181.576 Q 221.141 180.021 220.064 177.936 L 220.064 177.936 L 220.064 177.936 Q 218.987 175.851 218.987 173.185 L 218.987 173.185 L 218.987 173.185 Q 218.987 170.792 219.996 168.775 L 219.996 168.775 L 219.996 168.775 Q 221.004 166.759 223.038 165.323 L 223.038 165.323 L 223.038 165.323 Q 225.071 163.888 228.096 163.084 L 228.096 163.084 L 228.096 163.084 Q 231.121 162.281 235.12 162.281 L 235.12 162.281 L 235.12 162.281 Q 237.444 162.281 239.581 162.486 L 239.581 162.486 L 239.581 162.486 Q 241.717 162.691 243.631 162.982 L 243.631 162.982 L 243.631 162.982 Q 245.545 163.272 247.203 163.597 L 247.203 163.597 L 247.203 163.597 Q 248.86 163.922 250.262 164.195 L 250.262 164.195 L 250.262 164.195 Z  M 278.904 201.075 L 278.904 201.075 L 278.904 201.075 Q 275.726 201.075 272.82 200.306 L 272.82 200.306 L 272.82 200.306 Q 269.915 199.537 267.71 197.708 L 267.71 197.708 L 267.71 197.708 Q 265.506 195.88 264.19 192.855 L 264.19 192.855 L 264.19 192.855 Q 262.874 189.83 262.874 185.318 L 262.874 185.318 L 262.874 171.681 L 256.072 171.681 L 256.072 169.459 L 272.171 151.959 L 277.64 151.959 L 277.64 163.204 L 288.577 163.204 L 288.577 163.204 Q 288.167 165.255 287.842 167.34 L 287.842 167.34 L 287.842 167.34 Q 287.518 169.425 287.483 171.681 L 287.483 171.681 L 277.64 171.681 L 277.64 185.182 L 277.64 185.182 Q 277.64 186.412 277.828 187.557 L 277.828 187.557 L 277.828 187.557 Q 278.016 188.702 278.597 189.574 L 278.597 189.574 L 278.597 189.574 Q 279.178 190.445 280.271 190.975 L 280.271 190.975 L 280.271 190.975 Q 281.365 191.505 283.177 191.505 L 283.177 191.505 L 283.177 191.505 Q 284.339 191.505 285.74 191.283 L 285.74 191.283 L 285.74 191.283 Q 287.142 191.061 288.919 190.445 L 288.919 190.445 L 289.739 199.298 L 289.739 199.298 Q 287.586 200.084 284.8 200.58 L 284.8 200.58 L 284.8 200.58 Q 282.015 201.075 278.904 201.075 Z " fill="rgb(255,255,255)"/></g></svg>