<?xml version="1.0" encoding="UTF-8" standalone="no"?><!-- Generator: Gravit.io --><svg xmlns="http://www.w3.org/2000/svg" xmlns:xlink="http://www.w3.org/1999/xlink" style="isolation:isolate" viewBox="0 0 400 520" width="400pt" height="520pt"><defs><clipPath id="_clipPath_5DCEmL7Y0wTewEc5j7GVuLx7O8OIuv68"><rect width="400" height="520"/></clipPath></defs><g clip-path="url(#_clipPath_5DCEmL7Y0wTewEc5j7GVuLx7O8OIuv68)"><g><defs><filter id="e1Re13MnwxG2x6Eq9MyU04AbPi0Tm7Oz" x="-200%" y="-200%" width="400%" height="400%" filterUnits="objectBoundingBox" color-interpolation-filters="sRGB"><feGaussianBlur xmlns="http://www.w3.org/2000/svg" stdDeviation="4.293609062839028"/></filter></defs><g filter="url(#e1Re13MnwxG2x6Eq9MyU04AbPi0Tm7Oz)"><ellipse vector-effect="non-scaling-stroke" cx="198.91361582044095" cy="490" rx="65" ry="20.166666666666686" fill="rgb(162,162,162)" fill-opacity="0.7"/></g><defs><filter id="p4OmwEz4yMbImGM0KoRqTWOsaA9GpY6B" x="-200%" y="-200%" width="400%" height="400%" filterUnits="objectBoundingBox" color-interpolation-filters="sRGB"><feGaussianBlur xmlns="http://www.w3.org/2000/svg" stdDeviation="0"/></filter></defs><g filter="url(#p4OmwEz4yMbImGM0KoRqTWOsaA9GpY6B)"><path d=" M 18.914 183.931 C 18.914 83.382 99.774 2 199.384 2 C 299.14 2 380 83.382 380 183.931 C 380 237.891 356.562 286.544 319.355 319.863 C 317.304 321.633 246.405 388.124 198.944 490 C 181.073 417.906 111.785 348.613 79.998 320.306 C 42.498 286.839 18.914 238.186 18.914 183.931 Z  M 311.005 183.931" fill="rgb(238,111,11)"/></g></g><circle vector-effect="non-scaling-stroke" cx="199.18181818181824" cy="184.99999999999997" r="135" fill="rgb(255,255,255)"/><circle vector-effect="non-scaling-stroke" cx="198.99999999999977" cy="184.3333333333332" r="120.33333333333336" fill="rgb(238,111,11)"/><text transform="matrix(1,0,0,1,137.846,154.824)" style="font-family:'Candal';font-weight:400;font-size:44px;font-style:normal;fill:#ffffff;stroke:none;">First </text><text transform="matrix(1,0,0,1,107.08,211.93)" style="font-family:'Candal';font-weight:400;font-size:44px;font-style:normal;fill:#ffffff;stroke:none;">Kitchen</text></g></svg>