<?xml version="1.0" encoding="UTF-8" standalone="no"?><!-- Generator: Gravit.io --><svg xmlns="http://www.w3.org/2000/svg" xmlns:xlink="http://www.w3.org/1999/xlink" style="isolation:isolate" viewBox="0 0 400 520" width="400pt" height="520pt"><defs><clipPath id="_clipPath_U7qys0RrPEivFfTEc47y9RotecBZ8BEd"><rect width="400" height="520"/></clipPath></defs><g clip-path="url(#_clipPath_U7qys0RrPEivFfTEc47y9RotecBZ8BEd)"><g><defs><filter id="WhsBoMjQU01uXkmyoVWXEm1GEXkgRwf9" x="-200%" y="-200%" width="400%" height="400%" filterUnits="objectBoundingBox" color-interpolation-filters="sRGB"><feGaussianBlur xmlns="http://www.w3.org/2000/svg" stdDeviation="4.293609062839028"/></filter></defs><g filter="url(#WhsBoMjQU01uXkmyoVWXEm1GEXkgRwf9)"><ellipse vector-effect="non-scaling-stroke" cx="198.91361582044095" cy="490" rx="65" ry="20.166666666666686" fill="rgb(162,162,162)" fill-opacity="0.7"/></g><defs><filter id="mQ54Q85oFwDFO0KfoBtWI9uY5OkVLx7W" x="-200%" y="-200%" width="400%" height="400%" filterUnits="objectBoundingBox" color-interpolation-filters="sRGB"><feGaussianBlur xmlns="http://www.w3.org/2000/svg" stdDeviation="0"/></filter></defs><g filter="url(#mQ54Q85oFwDFO0KfoBtWI9uY5OkVLx7W)"><path d=" M 18.914 183.931 C 18.914 83.382 99.774 2 199.384 2 C 299.14 2 380 83.382 380 183.931 C 380 237.891 356.562 286.544 319.355 319.863 C 317.304 321.633 246.405 388.124 198.944 490 C 181.073 417.906 111.785 348.613 79.998 320.306 C 42.498 286.839 18.914 238.186 18.914 183.931 Z  M 311.005 183.931" fill="rgb(0,94,60)"/></g></g><circle vector-effect="non-scaling-stroke" cx="199.18181818181824" cy="184.99999999999997" r="135" fill="rgb(255,255,255)"/><circle vector-effect="non-scaling-stroke" cx="198.99999999999977" cy="184.3333333333332" r="120.33333333333336" fill="rgb(255,255,255)"/><path d=" M 126.471 201.469 L 126.471 201.469 L 126.471 201.469 Q 125.593 201.469 125.397 202.133 L 125.397 202.133 L 125.397 202.133 Q 125.28 202.543 125.28 205.824 L 125.28 205.824 L 125.28 209.613 L 125.28 209.613 Q 125.28 210.824 125.495 211.107 L 125.495 211.107 L 125.495 211.107 Q 125.71 211.391 126.823 211.391 L 126.823 211.391 L 127.643 211.391 L 127.819 211.371 L 128.991 211.313 L 128.991 211.313 Q 129.167 211.293 129.323 211.293 L 129.323 211.293 L 129.323 211.293 Q 131.198 211.293 132.468 209.906 L 132.468 209.906 L 132.468 209.906 Q 133.737 208.52 133.737 206.547 L 133.737 206.547 L 133.737 206.02 L 133.737 206.02 Q 133.737 204.008 132.36 202.748 L 132.36 202.748 L 132.36 202.748 Q 130.983 201.488 128.991 201.488 L 128.991 201.488 L 128.639 201.449 L 128.132 201.43 L 126.96 201.43 L 126.96 201.43 Q 126.647 201.469 126.471 201.469 Z  M 128.815 213.402 L 128.815 213.402 L 127.135 213.402 L 127.135 213.402 Q 125.632 213.402 125.446 213.813 L 125.446 213.813 L 125.446 213.813 Q 125.26 214.223 125.26 216.293 L 125.26 216.293 L 125.26 221.898 L 125.26 221.898 Q 125.26 223.715 125.7 224.115 L 125.7 224.115 L 125.7 224.115 Q 126.139 224.516 128.151 224.516 L 128.151 224.516 L 129.303 224.516 L 129.303 224.516 Q 131.882 224.516 133.483 223.158 L 133.483 223.158 L 133.483 223.158 Q 135.085 221.801 135.085 219.574 L 135.085 219.574 L 135.085 218.559 L 135.085 218.559 Q 135.085 216.156 133.327 214.779 L 133.327 214.779 L 133.327 214.779 Q 131.569 213.402 128.815 213.402 Z  M 126.296 199.34 L 128.366 199.34 L 128.366 199.34 Q 135.319 199.34 137.292 202.992 L 137.292 202.992 L 137.292 202.992 Q 137.995 204.281 137.995 205.951 L 137.995 205.951 L 137.995 205.951 Q 137.995 207.621 137.204 208.891 L 137.204 208.891 L 137.204 208.891 Q 136.413 210.16 135.798 210.658 L 135.798 210.658 L 135.798 210.658 Q 135.182 211.156 134.548 211.537 L 134.548 211.537 L 134.548 211.537 Q 133.913 211.918 133.913 212.035 L 133.913 212.035 L 133.913 212.035 Q 133.913 212.152 135.485 212.943 L 135.485 212.943 L 135.485 212.943 Q 137.057 213.734 137.975 214.809 L 137.975 214.809 L 137.975 214.809 Q 139.616 216.762 139.616 218.832 L 139.616 218.832 L 139.616 219.34 L 139.616 219.34 Q 139.616 222.777 136.803 224.809 L 136.803 224.809 L 136.803 224.809 Q 135.788 225.551 133.962 226.107 L 133.962 226.107 L 133.962 226.107 Q 132.135 226.664 129.616 226.664 L 129.616 226.664 L 127.546 226.664 L 127.038 226.645 L 127.038 226.645 Q 126.53 226.625 126.003 226.625 L 126.003 226.625 L 125.495 226.605 L 125.495 226.605 Q 124.987 226.586 124.479 226.586 L 124.479 226.586 L 123.971 226.566 L 123.971 226.566 Q 123.464 226.547 122.956 226.547 L 122.956 226.547 L 121.452 226.547 L 121.452 226.547 Q 118.053 226.547 118.053 225.893 L 118.053 225.893 L 118.053 225.893 Q 118.053 225.238 119.098 224.662 L 119.098 224.662 L 119.098 224.662 Q 120.143 224.086 120.466 222.689 L 120.466 222.689 L 120.466 222.689 Q 120.788 221.293 120.788 216.176 L 120.788 216.176 L 120.788 209.75 L 120.749 207.719 L 120.749 207.719 Q 120.729 207.211 120.729 205.297 L 120.729 205.297 L 120.729 205.297 Q 120.729 203.383 120.368 202.611 L 120.368 202.611 L 120.368 202.611 Q 120.007 201.84 118.932 201.332 L 118.932 201.332 L 118.932 201.332 Q 117.858 200.824 117.858 200.434 L 117.858 200.434 L 117.858 200.434 Q 117.858 199.867 118.405 199.662 L 118.405 199.662 L 118.405 199.662 Q 118.952 199.457 121.764 199.457 L 121.764 199.457 L 126.296 199.34 L 126.296 199.34 Z  M 146.276 219.047 L 146.276 219.047 Q 146.1 217.777 146.1 211.225 L 146.1 211.225 L 146.1 211.225 Q 146.1 204.672 145.885 203.5 L 145.885 203.5 L 145.885 203.5 Q 145.671 202.328 144.889 201.859 L 144.889 201.859 L 144.889 201.859 Q 143.268 200.883 143.268 200.336 L 143.268 200.336 L 143.268 200.336 Q 143.268 199.789 143.962 199.555 L 143.962 199.555 L 143.962 199.555 Q 144.655 199.32 147.487 199.32 L 147.487 199.32 L 150.456 199.32 L 150.456 199.32 Q 152.624 199.32 152.624 200.199 L 152.624 200.199 L 152.624 200.199 Q 152.624 200.238 151.891 201.146 L 151.891 201.146 L 151.891 201.146 Q 151.159 202.055 150.905 203.764 L 150.905 203.764 L 150.905 203.764 Q 150.651 205.473 150.651 210.902 L 150.651 210.902 L 150.651 210.902 Q 150.651 216.332 150.925 218.324 L 150.925 218.324 L 150.925 218.324 Q 151.745 224.262 157.526 224.281 L 157.526 224.281 L 157.526 224.281 Q 161.315 224.281 163.014 221.625 L 163.014 221.625 L 163.014 221.625 Q 164.44 219.438 164.44 214.027 L 164.44 214.027 L 164.479 212.426 L 164.479 212.426 Q 164.479 211.234 164.479 208.246 L 164.479 208.246 L 164.479 208.246 Q 164.479 205.258 164.118 203.803 L 164.118 203.803 L 164.118 203.803 Q 163.757 202.348 163.044 201.254 L 163.044 201.254 L 163.044 201.254 Q 162.331 200.16 162.331 200.102 L 162.331 200.102 L 162.331 200.102 Q 162.331 199.359 165.202 199.359 L 165.202 199.359 L 165.202 199.359 Q 168.073 199.359 169.069 199.555 L 169.069 199.555 L 169.069 199.555 Q 170.065 199.75 170.065 200.648 L 170.065 200.648 L 170.065 200.648 Q 170.065 201.098 168.893 201.781 L 168.893 201.781 L 168.893 201.781 Q 167.721 202.465 167.448 203.275 L 167.448 203.275 L 167.448 203.275 Q 167.175 204.086 167.175 209.496 L 167.175 209.496 L 167.214 214.203 L 167.214 214.203 Q 167.194 218.031 166.764 220.004 L 166.764 220.004 L 166.764 220.004 Q 166.335 221.996 164.987 223.598 L 164.987 223.598 L 164.987 223.598 Q 162.37 226.723 156.491 226.723 L 156.491 226.723 L 156.491 226.723 Q 150.612 226.723 147.897 223.148 L 147.897 223.148 L 147.897 223.148 Q 146.608 221.469 146.276 219.047 L 146.276 219.047 L 146.276 219.047 Z  M 180.612 204.145 L 180.612 204.145 L 180.612 210.688 L 180.612 210.688 Q 180.612 212.113 180.934 212.396 L 180.934 212.396 L 180.934 212.396 Q 181.257 212.68 182.311 212.68 L 182.311 212.68 L 183.151 212.68 L 183.151 212.68 Q 186.061 212.68 187.643 211.225 L 187.643 211.225 L 187.643 211.225 Q 189.225 209.77 189.225 207.406 L 189.225 207.406 L 189.225 206.605 L 189.225 206.605 Q 189.225 204.184 187.673 202.768 L 187.673 202.768 L 187.673 202.768 Q 186.12 201.352 183.62 201.352 L 183.62 201.352 L 182.409 201.352 L 182.409 201.352 Q 181.178 201.352 180.895 201.752 L 180.895 201.752 L 180.895 201.752 Q 180.612 202.152 180.612 204.145 Z  M 182.76 199.301 L 184.128 199.301 L 184.128 199.301 Q 191.218 199.301 193.249 203.637 L 193.249 203.637 L 193.249 203.637 Q 193.796 204.809 193.796 206.566 L 193.796 206.566 L 193.796 206.566 Q 193.796 209.848 190.846 212.289 L 190.846 212.289 L 190.846 212.289 Q 189.206 213.656 189.206 214.574 L 189.206 214.574 L 189.206 214.574 Q 189.206 214.848 191.139 218.119 L 191.139 218.119 L 191.139 218.119 Q 193.073 221.391 193.962 222.504 L 193.962 222.504 L 193.962 222.504 Q 194.85 223.617 196.178 224.154 L 196.178 224.154 L 196.178 224.154 Q 197.507 224.691 197.507 225.16 L 197.507 225.16 L 197.507 225.16 Q 197.507 226.547 194.479 226.547 L 194.479 226.547 L 194.479 226.547 Q 192.272 226.547 191.178 225.473 L 191.178 225.473 L 191.178 225.473 Q 190.417 224.73 188.132 220.648 L 188.132 220.648 L 188.132 220.648 Q 185.846 216.566 185.553 216.195 L 185.553 216.195 L 185.553 216.195 Q 184.518 214.887 182.409 214.887 L 182.409 214.887 L 182.409 214.887 Q 181.51 214.887 181.178 215.697 L 181.178 215.697 L 181.178 215.697 Q 180.846 216.508 180.846 219.32 L 180.846 219.32 L 180.846 219.32 Q 180.846 222.133 181.227 223.051 L 181.227 223.051 L 181.227 223.051 Q 181.608 223.969 182.389 224.799 L 182.389 224.799 L 182.389 224.799 Q 183.171 225.629 183.171 225.766 L 183.171 225.766 L 183.171 225.766 Q 183.171 226.43 180.69 226.43 L 180.69 226.43 L 180.026 226.41 L 179.382 226.371 L 179.382 226.371 Q 178.952 226.352 178.053 226.352 L 178.053 226.352 L 178.053 226.352 Q 173.464 226.352 173.464 225.57 L 173.464 225.57 L 173.464 225.57 Q 173.464 224.789 174.108 224.398 L 174.108 224.398 L 174.108 224.398 Q 175.749 223.383 175.866 223.168 L 175.866 223.168 L 175.866 223.168 Q 176.315 222.348 176.315 218.656 L 176.315 218.656 L 176.354 217.289 L 176.374 215.922 L 176.374 215.922 Q 176.374 215.238 176.374 214.555 L 176.374 214.555 L 176.335 212.523 L 176.335 212.523 Q 176.335 204.574 175.954 203.227 L 175.954 203.227 L 175.954 203.227 Q 175.573 201.879 174.587 201.283 L 174.587 201.283 L 174.587 201.283 Q 173.6 200.688 173.6 200.238 L 173.6 200.238 L 173.6 200.238 Q 173.6 199.457 176.725 199.457 L 176.725 199.457 L 177.389 199.438 L 177.389 199.438 Q 178.073 199.418 178.737 199.418 L 178.737 199.418 L 182.76 199.301 L 182.76 199.301 Z  M 213.796 199.105 L 213.796 199.105 L 213.796 199.105 Q 219.382 199.105 221.843 200.023 L 221.843 200.023 L 221.843 200.023 Q 222.389 200.219 222.897 200.941 L 222.897 200.941 L 222.897 200.941 Q 223.405 201.664 223.405 203.441 L 223.405 203.441 L 223.405 203.441 Q 223.405 205.219 222.76 205.766 L 222.76 205.766 L 222.37 205.98 L 222.37 205.98 Q 221.843 205.98 220.632 204.613 L 220.632 204.613 L 220.632 204.613 Q 217.819 201.488 213.874 201.488 L 213.874 201.488 L 213.874 201.488 Q 209.948 201.488 207.585 204.555 L 207.585 204.555 L 207.585 204.555 Q 205.241 207.621 205.241 212.719 L 205.241 212.719 L 205.241 212.719 Q 205.241 217.797 207.702 221 L 207.702 221 L 207.702 221 Q 210.163 224.223 214.167 224.223 L 214.167 224.223 L 214.167 224.223 Q 216.764 224.223 217.936 223.129 L 217.936 223.129 L 217.936 223.129 Q 219.108 222.035 219.108 218.793 L 219.108 218.793 L 219.108 218.793 Q 219.108 217.543 218.522 216.605 L 218.522 216.605 L 218.522 216.605 Q 218.366 216.352 217.751 215.756 L 217.751 215.756 L 217.751 215.756 Q 217.135 215.16 217.135 215.004 L 217.135 215.004 L 217.135 215.004 Q 217.135 214.164 220.983 214.164 L 220.983 214.164 L 220.983 214.164 Q 223.444 214.164 224.245 214.428 L 224.245 214.428 L 224.245 214.428 Q 225.046 214.691 225.046 215.414 L 225.046 215.414 L 225.046 215.414 Q 225.046 215.551 224.538 216.303 L 224.538 216.303 L 224.538 216.303 Q 224.03 217.055 223.952 217.309 L 223.952 217.309 L 223.952 217.309 Q 223.874 217.563 223.63 220.658 L 223.63 220.658 L 223.63 220.658 Q 223.385 223.754 222.946 224.379 L 222.946 224.379 L 222.946 224.379 Q 222.507 225.004 220.768 225.531 L 220.768 225.531 L 220.768 225.531 Q 216.335 226.898 214.225 226.898 L 214.225 226.898 L 213.444 226.898 L 213.444 226.898 Q 210.71 226.898 208.288 225.951 L 208.288 225.951 L 208.288 225.951 Q 205.866 225.004 204.167 223.305 L 204.167 223.305 L 204.167 223.305 Q 202.468 221.605 201.432 218.93 L 201.432 218.93 L 201.432 218.93 Q 200.397 216.254 200.397 213.441 L 200.397 213.441 L 200.397 212.602 L 200.397 212.602 Q 200.397 209.848 201.491 207.152 L 201.491 207.152 L 201.491 207.152 Q 203.542 202.113 208.327 200.18 L 208.327 200.18 L 208.327 200.18 Q 210.983 199.105 213.796 199.105 Z  M 244.811 199.281 L 245.632 199.281 L 245.632 199.281 Q 249.128 199.281 249.128 203.207 L 249.128 203.207 L 249.128 203.207 Q 249.128 204.242 248.678 204.242 L 248.678 204.242 L 248.678 204.242 Q 248.425 204.242 247.477 203.666 L 247.477 203.666 L 247.477 203.666 Q 246.53 203.09 245.905 202.875 L 245.905 202.875 L 245.905 202.875 Q 243.132 201.918 240.983 201.918 L 240.983 201.918 L 240.983 201.918 Q 238.835 201.918 238.034 202.973 L 238.034 202.973 L 238.034 202.973 Q 236.921 204.438 236.921 208.363 L 236.921 208.363 L 236.921 208.363 Q 236.921 209.77 237.878 210.453 L 237.878 210.453 L 237.878 210.453 Q 238.835 211.137 240.075 211.137 L 240.075 211.137 L 240.075 211.137 Q 241.315 211.137 242.594 210.287 L 242.594 210.287 L 242.594 210.287 Q 243.874 209.438 243.893 209.438 L 243.893 209.438 L 243.893 209.438 Q 244.87 209.438 245.231 210.199 L 245.231 210.199 L 245.231 210.199 Q 245.593 210.961 245.593 212.68 L 245.593 212.68 L 245.593 212.68 Q 245.593 215.707 244.206 215.707 L 244.206 215.707 L 244.206 215.707 Q 243.835 215.707 242.663 214.76 L 242.663 214.76 L 242.663 214.76 Q 241.491 213.813 240.182 213.813 L 240.182 213.813 L 240.182 213.813 Q 237.936 213.813 237.194 214.77 L 237.194 214.77 L 237.194 214.77 Q 236.706 215.395 236.706 218.52 L 236.706 218.52 L 236.706 218.52 Q 236.706 221.645 237.819 223.09 L 237.819 223.09 L 237.819 223.09 Q 238.444 223.891 240.807 223.891 L 240.807 223.891 L 240.807 223.891 Q 243.171 223.891 246.315 222.875 L 246.315 222.875 L 246.315 222.875 Q 247.194 222.602 247.721 222.23 L 247.721 222.23 L 247.721 222.23 Q 248.249 221.859 248.796 221.439 L 248.796 221.439 L 248.796 221.439 Q 249.343 221.02 249.479 221.02 L 249.479 221.02 L 249.479 221.02 Q 250.143 221.02 250.143 221.684 L 250.143 221.684 L 250.143 222.309 L 250.143 222.309 Q 250.143 223.813 249.626 224.779 L 249.626 224.779 L 249.626 224.779 Q 249.108 225.746 248.678 226.02 L 248.678 226.02 L 248.678 226.02 Q 247.878 226.527 242.311 226.527 L 242.311 226.527 L 239.733 226.527 L 238.874 226.508 L 238.874 226.508 Q 231.51 226.508 230.378 226.342 L 230.378 226.342 L 230.378 226.342 Q 229.245 226.176 229.245 225.473 L 229.245 225.473 L 229.245 225.473 Q 229.245 225.023 230.3 224.34 L 230.3 224.34 L 230.3 224.34 Q 231.354 223.656 231.667 222.621 L 231.667 222.621 L 231.667 222.621 Q 231.979 221.586 231.979 214.516 L 231.979 214.516 L 232.057 206.879 L 232.057 206.879 Q 232.057 203.129 231.589 202.23 L 231.589 202.23 L 231.589 202.23 Q 231.374 201.82 230.378 201.293 L 230.378 201.293 L 230.378 201.293 Q 229.382 200.766 229.382 200.355 L 229.382 200.355 L 229.382 200.355 Q 229.382 199.574 230.651 199.379 L 230.651 199.379 L 230.651 199.379 Q 231.178 199.301 238.952 199.301 L 238.952 199.301 L 244.811 199.281 L 244.811 199.281 Z  M 261.276 204.145 L 261.276 204.145 L 261.276 210.688 L 261.276 210.688 Q 261.276 212.113 261.598 212.396 L 261.598 212.396 L 261.598 212.396 Q 261.921 212.68 262.975 212.68 L 262.975 212.68 L 263.815 212.68 L 263.815 212.68 Q 266.725 212.68 268.307 211.225 L 268.307 211.225 L 268.307 211.225 Q 269.889 209.77 269.889 207.406 L 269.889 207.406 L 269.889 206.605 L 269.889 206.605 Q 269.889 204.184 268.337 202.768 L 268.337 202.768 L 268.337 202.768 Q 266.784 201.352 264.284 201.352 L 264.284 201.352 L 263.073 201.352 L 263.073 201.352 Q 261.843 201.352 261.559 201.752 L 261.559 201.752 L 261.559 201.752 Q 261.276 202.152 261.276 204.145 Z  M 263.425 199.301 L 264.792 199.301 L 264.792 199.301 Q 271.882 199.301 273.913 203.637 L 273.913 203.637 L 273.913 203.637 Q 274.46 204.809 274.46 206.566 L 274.46 206.566 L 274.46 206.566 Q 274.46 209.848 271.51 212.289 L 271.51 212.289 L 271.51 212.289 Q 269.87 213.656 269.87 214.574 L 269.87 214.574 L 269.87 214.574 Q 269.87 214.848 271.803 218.119 L 271.803 218.119 L 271.803 218.119 Q 273.737 221.391 274.626 222.504 L 274.626 222.504 L 274.626 222.504 Q 275.514 223.617 276.843 224.154 L 276.843 224.154 L 276.843 224.154 Q 278.171 224.691 278.171 225.16 L 278.171 225.16 L 278.171 225.16 Q 278.171 226.547 275.143 226.547 L 275.143 226.547 L 275.143 226.547 Q 272.936 226.547 271.843 225.473 L 271.843 225.473 L 271.843 225.473 Q 271.081 224.73 268.796 220.648 L 268.796 220.648 L 268.796 220.648 Q 266.51 216.566 266.218 216.195 L 266.218 216.195 L 266.218 216.195 Q 265.182 214.887 263.073 214.887 L 263.073 214.887 L 263.073 214.887 Q 262.175 214.887 261.843 215.697 L 261.843 215.697 L 261.843 215.697 Q 261.51 216.508 261.51 219.32 L 261.51 219.32 L 261.51 219.32 Q 261.51 222.133 261.891 223.051 L 261.891 223.051 L 261.891 223.051 Q 262.272 223.969 263.053 224.799 L 263.053 224.799 L 263.053 224.799 Q 263.835 225.629 263.835 225.766 L 263.835 225.766 L 263.835 225.766 Q 263.835 226.43 261.354 226.43 L 261.354 226.43 L 260.69 226.41 L 260.046 226.371 L 260.046 226.371 Q 259.616 226.352 258.718 226.352 L 258.718 226.352 L 258.718 226.352 Q 254.128 226.352 254.128 225.57 L 254.128 225.57 L 254.128 225.57 Q 254.128 224.789 254.772 224.398 L 254.772 224.398 L 254.772 224.398 Q 256.413 223.383 256.53 223.168 L 256.53 223.168 L 256.53 223.168 Q 256.979 222.348 256.979 218.656 L 256.979 218.656 L 257.018 217.289 L 257.038 215.922 L 257.038 215.922 Q 257.038 215.238 257.038 214.555 L 257.038 214.555 L 256.999 212.523 L 256.999 212.523 Q 256.999 204.574 256.618 203.227 L 256.618 203.227 L 256.618 203.227 Q 256.237 201.879 255.251 201.283 L 255.251 201.283 L 255.251 201.283 Q 254.264 200.688 254.264 200.238 L 254.264 200.238 L 254.264 200.238 Q 254.264 199.457 257.389 199.457 L 257.389 199.457 L 258.053 199.438 L 258.053 199.438 Q 258.737 199.418 259.401 199.418 L 259.401 199.418 L 263.425 199.301 L 263.425 199.301 Z  M 95.866 154.438 L 101.569 154.438 L 101.569 154.438 Q 103.151 154.438 103.884 155.209 L 103.884 155.209 L 103.884 155.209 Q 104.616 155.98 104.616 158.52 L 104.616 158.52 L 104.616 158.52 Q 104.616 159.945 103.971 159.945 L 103.971 159.945 L 103.971 159.945 Q 103.893 159.945 102.721 159.018 L 102.721 159.018 L 102.721 159.018 Q 101.55 158.09 100.729 157.758 L 100.729 157.758 L 100.729 157.758 Q 98.698 156.957 95.69 156.957 L 95.69 156.957 L 95.69 156.957 Q 93.796 156.957 93.034 158.188 L 93.034 158.188 L 93.034 158.188 Q 92.272 159.418 92.272 163.07 L 92.272 163.07 L 92.272 163.07 Q 92.272 165.121 93.014 165.863 L 93.014 165.863 L 93.014 165.863 Q 93.757 166.605 95.231 166.605 L 95.231 166.605 L 95.231 166.605 Q 96.706 166.605 98.063 165.785 L 98.063 165.785 L 98.063 165.785 Q 99.421 164.965 99.499 164.965 L 99.499 164.965 L 99.499 164.965 Q 100.221 164.965 100.524 165.629 L 100.524 165.629 L 100.524 165.629 Q 100.827 166.293 100.827 167.777 L 100.827 167.777 L 100.827 167.777 Q 100.827 171.059 99.186 171.059 L 99.186 171.059 L 99.186 171.059 Q 98.913 171.059 97.77 170.463 L 97.77 170.463 L 97.77 170.463 Q 96.628 169.867 96.1 169.867 L 96.1 169.867 L 96.1 169.867 Q 94.225 169.867 93.278 170.6 L 93.278 170.6 L 93.278 170.6 Q 92.331 171.332 92.331 173.559 L 92.331 173.559 L 92.331 173.559 Q 92.331 175.785 92.721 177.426 L 92.721 177.426 L 92.721 177.426 Q 93.112 179.066 93.346 179.496 L 93.346 179.496 L 93.346 179.496 Q 93.581 179.926 93.903 180.395 L 93.903 180.395 L 93.903 180.395 Q 94.225 180.863 94.225 181.059 L 94.225 181.059 L 94.225 181.059 Q 94.225 181.781 91.589 181.781 L 91.589 181.781 L 90.905 181.781 L 90.221 181.762 L 90.221 181.762 Q 84.889 181.762 84.889 180.688 L 84.889 180.688 L 84.889 180.688 Q 84.889 180.141 85.925 179.477 L 85.925 179.477 L 85.925 179.477 Q 86.979 178.813 87.214 178.07 L 87.214 178.07 L 87.214 178.07 Q 87.448 177.328 87.448 174.477 L 87.448 174.477 L 87.448 170.57 L 87.507 168.48 L 87.526 166.371 L 87.526 164.242 L 87.526 164.242 Q 87.526 159.711 87.175 158.49 L 87.175 158.49 L 87.175 158.49 Q 86.823 157.27 86.218 156.84 L 86.218 156.84 L 86.218 156.84 Q 84.733 155.766 84.733 155.57 L 84.733 155.57 L 84.733 155.57 Q 84.733 154.906 85.534 154.711 L 85.534 154.711 L 85.534 154.711 Q 86.042 154.594 88.835 154.594 L 88.835 154.594 L 93.737 154.496 L 95.866 154.438 L 95.866 154.438 Z  M 115.143 159.359 L 115.143 159.359 L 115.143 165.902 L 115.143 165.902 Q 115.143 167.328 115.466 167.611 L 115.466 167.611 L 115.466 167.611 Q 115.788 167.895 116.843 167.895 L 116.843 167.895 L 117.682 167.895 L 117.682 167.895 Q 120.593 167.895 122.175 166.439 L 122.175 166.439 L 122.175 166.439 Q 123.757 164.984 123.757 162.621 L 123.757 162.621 L 123.757 161.82 L 123.757 161.82 Q 123.757 159.398 122.204 157.982 L 122.204 157.982 L 122.204 157.982 Q 120.651 156.566 118.151 156.566 L 118.151 156.566 L 116.94 156.566 L 116.94 156.566 Q 115.71 156.566 115.426 156.967 L 115.426 156.967 L 115.426 156.967 Q 115.143 157.367 115.143 159.359 Z  M 117.292 154.516 L 118.659 154.516 L 118.659 154.516 Q 125.749 154.516 127.78 158.852 L 127.78 158.852 L 127.78 158.852 Q 128.327 160.023 128.327 161.781 L 128.327 161.781 L 128.327 161.781 Q 128.327 165.063 125.378 167.504 L 125.378 167.504 L 125.378 167.504 Q 123.737 168.871 123.737 169.789 L 123.737 169.789 L 123.737 169.789 Q 123.737 170.063 125.671 173.334 L 125.671 173.334 L 125.671 173.334 Q 127.604 176.605 128.493 177.719 L 128.493 177.719 L 128.493 177.719 Q 129.382 178.832 130.71 179.369 L 130.71 179.369 L 130.71 179.369 Q 132.038 179.906 132.038 180.375 L 132.038 180.375 L 132.038 180.375 Q 132.038 181.762 129.01 181.762 L 129.01 181.762 L 129.01 181.762 Q 126.803 181.762 125.71 180.688 L 125.71 180.688 L 125.71 180.688 Q 124.948 179.945 122.663 175.863 L 122.663 175.863 L 122.663 175.863 Q 120.378 171.781 120.085 171.41 L 120.085 171.41 L 120.085 171.41 Q 119.05 170.102 116.94 170.102 L 116.94 170.102 L 116.94 170.102 Q 116.042 170.102 115.71 170.912 L 115.71 170.912 L 115.71 170.912 Q 115.378 171.723 115.378 174.535 L 115.378 174.535 L 115.378 174.535 Q 115.378 177.348 115.759 178.266 L 115.759 178.266 L 115.759 178.266 Q 116.139 179.184 116.921 180.014 L 116.921 180.014 L 116.921 180.014 Q 117.702 180.844 117.702 180.98 L 117.702 180.98 L 117.702 180.98 Q 117.702 181.645 115.221 181.645 L 115.221 181.645 L 114.557 181.625 L 113.913 181.586 L 113.913 181.586 Q 113.483 181.566 112.585 181.566 L 112.585 181.566 L 112.585 181.566 Q 107.995 181.566 107.995 180.785 L 107.995 180.785 L 107.995 180.785 Q 107.995 180.004 108.639 179.613 L 108.639 179.613 L 108.639 179.613 Q 110.28 178.598 110.397 178.383 L 110.397 178.383 L 110.397 178.383 Q 110.846 177.563 110.846 173.871 L 110.846 173.871 L 110.885 172.504 L 110.905 171.137 L 110.905 171.137 Q 110.905 170.453 110.905 169.77 L 110.905 169.77 L 110.866 167.738 L 110.866 167.738 Q 110.866 159.789 110.485 158.441 L 110.485 158.441 L 110.485 158.441 Q 110.104 157.094 109.118 156.498 L 109.118 156.498 L 109.118 156.498 Q 108.132 155.902 108.132 155.453 L 108.132 155.453 L 108.132 155.453 Q 108.132 154.672 111.257 154.672 L 111.257 154.672 L 111.921 154.652 L 111.921 154.652 Q 112.604 154.633 113.268 154.633 L 113.268 154.633 L 117.292 154.516 L 117.292 154.516 Z  M 150.885 154.496 L 151.706 154.496 L 151.706 154.496 Q 155.202 154.496 155.202 158.422 L 155.202 158.422 L 155.202 158.422 Q 155.202 159.457 154.753 159.457 L 154.753 159.457 L 154.753 159.457 Q 154.499 159.457 153.551 158.881 L 153.551 158.881 L 153.551 158.881 Q 152.604 158.305 151.979 158.09 L 151.979 158.09 L 151.979 158.09 Q 149.206 157.133 147.057 157.133 L 147.057 157.133 L 147.057 157.133 Q 144.909 157.133 144.108 158.188 L 144.108 158.188 L 144.108 158.188 Q 142.995 159.652 142.995 163.578 L 142.995 163.578 L 142.995 163.578 Q 142.995 164.984 143.952 165.668 L 143.952 165.668 L 143.952 165.668 Q 144.909 166.352 146.149 166.352 L 146.149 166.352 L 146.149 166.352 Q 147.389 166.352 148.669 165.502 L 148.669 165.502 L 148.669 165.502 Q 149.948 164.652 149.968 164.652 L 149.968 164.652 L 149.968 164.652 Q 150.944 164.652 151.305 165.414 L 151.305 165.414 L 151.305 165.414 Q 151.667 166.176 151.667 167.895 L 151.667 167.895 L 151.667 167.895 Q 151.667 170.922 150.28 170.922 L 150.28 170.922 L 150.28 170.922 Q 149.909 170.922 148.737 169.975 L 148.737 169.975 L 148.737 169.975 Q 147.565 169.027 146.257 169.027 L 146.257 169.027 L 146.257 169.027 Q 144.01 169.027 143.268 169.984 L 143.268 169.984 L 143.268 169.984 Q 142.78 170.609 142.78 173.734 L 142.78 173.734 L 142.78 173.734 Q 142.78 176.859 143.893 178.305 L 143.893 178.305 L 143.893 178.305 Q 144.518 179.105 146.882 179.105 L 146.882 179.105 L 146.882 179.105 Q 149.245 179.105 152.389 178.09 L 152.389 178.09 L 152.389 178.09 Q 153.268 177.816 153.796 177.445 L 153.796 177.445 L 153.796 177.445 Q 154.323 177.074 154.87 176.654 L 154.87 176.654 L 154.87 176.654 Q 155.417 176.234 155.553 176.234 L 155.553 176.234 L 155.553 176.234 Q 156.218 176.234 156.218 176.898 L 156.218 176.898 L 156.218 177.523 L 156.218 177.523 Q 156.218 179.027 155.7 179.994 L 155.7 179.994 L 155.7 179.994 Q 155.182 180.961 154.753 181.234 L 154.753 181.234 L 154.753 181.234 Q 153.952 181.742 148.385 181.742 L 148.385 181.742 L 145.807 181.742 L 144.948 181.723 L 144.948 181.723 Q 137.585 181.723 136.452 181.557 L 136.452 181.557 L 136.452 181.557 Q 135.319 181.391 135.319 180.688 L 135.319 180.688 L 135.319 180.688 Q 135.319 180.238 136.374 179.555 L 136.374 179.555 L 136.374 179.555 Q 137.428 178.871 137.741 177.836 L 137.741 177.836 L 137.741 177.836 Q 138.053 176.801 138.053 169.73 L 138.053 169.73 L 138.132 162.094 L 138.132 162.094 Q 138.132 158.344 137.663 157.445 L 137.663 157.445 L 137.663 157.445 Q 137.448 157.035 136.452 156.508 L 136.452 156.508 L 136.452 156.508 Q 135.456 155.98 135.456 155.57 L 135.456 155.57 L 135.456 155.57 Q 135.456 154.789 136.725 154.594 L 136.725 154.594 L 136.725 154.594 Q 137.253 154.516 145.026 154.516 L 145.026 154.516 L 150.885 154.496 L 150.885 154.496 Z  M 172.819 157.484 L 172.819 157.484 Q 171.218 156.391 169.216 156.391 L 169.216 156.391 L 169.216 156.391 Q 167.214 156.391 165.944 157.436 L 165.944 157.436 L 165.944 157.436 Q 164.675 158.48 164.675 160.365 L 164.675 160.365 L 164.675 160.365 Q 164.675 162.25 166.569 163.695 L 166.569 163.695 L 166.569 163.695 Q 167.702 164.574 171.198 166.078 L 171.198 166.078 L 171.198 166.078 Q 174.694 167.582 176.061 168.852 L 176.061 168.852 L 176.061 168.852 Q 178.678 171.273 178.678 173.891 L 178.678 173.891 L 178.678 174.594 L 178.678 174.594 Q 178.678 177.836 176.1 179.867 L 176.1 179.867 L 176.1 179.867 Q 174.909 180.805 173.132 181.361 L 173.132 181.361 L 173.132 181.361 Q 171.354 181.918 169.577 181.918 L 169.577 181.918 L 168.854 181.918 L 168.854 181.918 Q 164.831 181.918 161.803 180.707 L 161.803 180.707 L 161.803 180.707 Q 160.436 180.16 160.436 177.719 L 160.436 177.719 L 160.436 177.035 L 160.436 177.035 Q 160.436 174.145 161.432 174.145 L 161.432 174.145 L 161.432 174.145 Q 162.116 174.145 163.288 176 L 163.288 176 L 163.288 176 Q 164.46 177.855 165.993 178.793 L 165.993 178.793 L 165.993 178.793 Q 167.526 179.73 169.694 179.73 L 169.694 179.73 L 169.694 179.73 Q 171.862 179.73 173.19 178.588 L 173.19 178.588 L 173.19 178.588 Q 174.518 177.445 174.518 175.766 L 174.518 175.766 L 174.518 175.766 Q 174.518 173.461 172.37 171.879 L 172.37 171.879 L 172.37 171.879 Q 171.452 171.215 167.76 169.506 L 167.76 169.506 L 167.76 169.506 Q 164.069 167.797 162.643 166.313 L 162.643 166.313 L 162.643 166.313 Q 160.69 164.281 160.69 161.352 L 160.69 161.352 L 160.69 161.352 Q 160.69 158.422 162.78 156.488 L 162.78 156.488 L 162.78 156.488 Q 163.932 155.414 165.651 154.818 L 165.651 154.818 L 165.651 154.818 Q 167.37 154.223 169.167 154.223 L 169.167 154.223 L 169.889 154.223 L 169.889 154.223 Q 170.632 154.223 171.999 154.477 L 171.999 154.477 L 172.682 154.613 L 172.682 154.613 Q 173.893 154.848 173.991 154.867 L 173.991 154.867 L 174.596 154.906 L 175.182 154.926 L 175.182 154.926 Q 176.003 154.984 176.335 155.121 L 176.335 155.121 L 176.335 155.121 Q 177.487 155.59 177.487 158.383 L 177.487 158.383 L 177.487 158.383 Q 177.487 161.176 176.393 161.176 L 176.393 161.176 L 176.393 161.176 Q 175.846 161.176 174.753 159.613 L 174.753 159.613 L 174.753 159.613 Q 173.659 158.051 172.819 157.484 L 172.819 157.484 L 172.819 157.484 Z  M 209.948 180.98 L 209.948 180.98 L 209.948 180.98 Q 209.948 181.801 207.135 181.801 L 207.135 181.801 L 206.198 181.801 L 205.241 181.781 L 205.241 181.781 Q 202.624 181.781 201.628 181.586 L 201.628 181.586 L 201.628 181.586 Q 200.632 181.391 200.632 180.746 L 200.632 180.746 L 200.632 180.746 Q 200.632 180.57 201.286 179.809 L 201.286 179.809 L 201.286 179.809 Q 201.94 179.047 202.272 177.777 L 202.272 177.777 L 202.272 177.777 Q 202.604 176.508 202.604 173.305 L 202.604 173.305 L 202.604 173.305 Q 202.604 170.102 201.911 169.467 L 201.911 169.467 L 201.911 169.467 Q 201.218 168.832 196.344 168.832 L 196.344 168.832 L 196.344 168.832 Q 191.471 168.832 190.671 169.594 L 190.671 169.594 L 190.671 169.594 Q 190.143 170.082 190.143 173.48 L 190.143 173.48 L 190.143 173.48 Q 190.143 176.879 190.387 177.934 L 190.387 177.934 L 190.387 177.934 Q 190.632 178.988 191.042 179.574 L 191.042 179.574 L 191.432 180.023 L 191.432 180.023 Q 192.038 180.707 192.038 180.824 L 192.038 180.824 L 192.038 180.824 Q 192.038 181.527 190.807 181.664 L 190.807 181.664 L 190.807 181.664 Q 190.26 181.723 186.423 181.723 L 186.423 181.723 L 186.423 181.723 Q 182.585 181.723 182.585 180.844 L 182.585 180.844 L 182.585 180.844 Q 182.585 180.375 184.089 179.379 L 184.089 179.379 L 184.089 179.379 Q 185.085 178.715 185.28 177.592 L 185.28 177.592 L 185.28 177.592 Q 185.475 176.469 185.475 168.188 L 185.475 168.188 L 185.475 168.188 Q 185.475 159.906 185.182 158.598 L 185.182 158.598 L 185.182 158.598 Q 184.889 157.289 183.727 156.615 L 183.727 156.615 L 183.727 156.615 Q 182.565 155.941 182.565 155.375 L 182.565 155.375 L 182.565 155.375 Q 182.565 154.613 187.448 154.613 L 187.448 154.613 L 189.343 154.613 L 189.343 154.613 Q 192.077 154.613 192.077 155.531 L 192.077 155.531 L 192.077 155.531 Q 192.077 155.609 191.413 156.439 L 191.413 156.439 L 191.413 156.439 Q 190.749 157.27 190.485 158.471 L 190.485 158.471 L 190.485 158.471 Q 190.221 159.672 190.221 162.406 L 190.221 162.406 L 190.221 162.406 Q 190.221 165.141 190.866 165.746 L 190.866 165.746 L 190.866 165.746 Q 191.51 166.352 196.344 166.352 L 196.344 166.352 L 196.344 166.352 Q 201.178 166.352 201.862 165.688 L 201.862 165.688 L 201.862 165.688 Q 202.35 165.219 202.35 162.221 L 202.35 162.221 L 202.35 162.221 Q 202.35 159.223 202.145 158.402 L 202.145 158.402 L 202.145 158.402 Q 201.94 157.582 201.51 157.016 L 201.51 157.016 L 201.1 156.566 L 201.1 156.566 Q 200.495 155.922 200.495 155.707 L 200.495 155.707 L 200.495 155.707 Q 200.495 154.965 201.569 154.828 L 201.569 154.828 L 201.569 154.828 Q 202.643 154.691 206.354 154.691 L 206.354 154.691 L 206.354 154.691 Q 210.065 154.691 210.065 155.492 L 210.065 155.492 L 210.065 155.492 Q 210.065 156.098 209.362 156.586 L 209.362 156.586 L 209.362 156.586 Q 207.78 157.66 207.643 157.973 L 207.643 157.973 L 207.643 157.973 Q 207.311 158.734 207.311 165.355 L 207.311 165.355 L 207.175 175.004 L 207.175 175.004 Q 207.175 177.719 207.468 178.5 L 207.468 178.5 L 207.468 178.5 Q 207.76 179.281 208.444 179.691 L 208.444 179.691 L 208.444 179.691 Q 209.948 180.609 209.948 180.98 Z  M 238.405 171.625 L 238.405 176.898 L 238.405 176.898 Q 238.405 180.258 238.19 180.814 L 238.19 180.814 L 238.19 180.814 Q 237.975 181.371 237.233 181.371 L 237.233 181.371 L 237.233 181.371 Q 235.632 181.371 233.19 178.441 L 233.19 178.441 L 232.604 177.719 L 232.604 177.719 Q 230.749 175.355 229.001 172.777 L 229.001 172.777 L 229.001 172.777 Q 227.253 170.199 226.608 169.281 L 226.608 169.281 L 226.608 169.281 Q 220.593 160.902 220.065 160.902 L 220.065 160.902 L 220.065 160.902 Q 219.655 160.902 219.655 167.758 L 219.655 167.758 L 219.655 167.758 Q 219.655 174.613 220.221 177.445 L 220.221 177.445 L 220.221 177.445 Q 220.417 178.461 221.071 179.428 L 221.071 179.428 L 221.071 179.428 Q 221.725 180.395 221.725 180.727 L 221.725 180.727 L 221.725 180.727 Q 221.725 181.566 217.76 181.566 L 217.76 181.566 L 216.862 181.566 L 216.862 181.566 Q 214.089 181.566 214.089 180.863 L 214.089 180.863 L 214.089 180.863 Q 214.089 180.16 215.29 179.486 L 215.29 179.486 L 215.29 179.486 Q 216.491 178.813 216.803 177.65 L 216.803 177.65 L 216.803 177.65 Q 217.116 176.488 217.116 169.457 L 217.116 169.457 L 217.175 166.547 L 217.155 163.695 L 217.155 163.695 Q 217.155 159.535 216.647 158.246 L 216.647 158.246 L 216.647 158.246 Q 216.413 157.641 215.3 156.791 L 215.3 156.791 L 215.3 156.791 Q 214.186 155.941 214.186 155.785 L 214.186 155.785 L 214.186 155.785 Q 214.186 154.75 216.305 154.75 L 216.305 154.75 L 216.305 154.75 Q 218.425 154.75 219.655 155.258 L 219.655 155.258 L 219.655 155.258 Q 220.885 155.766 221.833 156.664 L 221.833 156.664 L 221.833 156.664 Q 222.78 157.563 225.934 161.752 L 225.934 161.752 L 225.934 161.752 Q 229.089 165.941 230.3 167.641 L 230.3 167.641 L 231.96 169.906 L 231.96 169.906 Q 234.948 173.988 235.143 173.988 L 235.143 173.988 L 235.143 173.988 Q 235.768 173.988 235.768 167.172 L 235.768 167.172 L 235.768 167.172 Q 235.768 160.355 235.505 158.949 L 235.505 158.949 L 235.505 158.949 Q 235.241 157.543 234.391 156.615 L 234.391 156.615 L 234.391 156.615 Q 233.542 155.688 233.542 155.609 L 233.542 155.609 L 233.542 155.609 Q 233.542 154.652 235.632 154.652 L 235.632 154.652 L 237.487 154.652 L 237.487 154.652 Q 239.968 154.652 240.768 155.023 L 240.768 155.023 L 240.768 155.023 Q 241.237 155.238 241.237 155.863 L 241.237 155.863 L 241.237 155.863 Q 241.237 155.922 239.753 157.387 L 239.753 157.387 L 239.753 157.387 Q 238.952 158.168 238.698 159.379 L 238.698 159.379 L 238.698 159.379 Q 238.444 160.59 238.444 167.816 L 238.444 167.816 L 238.405 171.625 L 238.405 171.625 Z  M 260.671 154.496 L 261.491 154.496 L 261.491 154.496 Q 264.987 154.496 264.987 158.422 L 264.987 158.422 L 264.987 158.422 Q 264.987 159.457 264.538 159.457 L 264.538 159.457 L 264.538 159.457 Q 264.284 159.457 263.337 158.881 L 263.337 158.881 L 263.337 158.881 Q 262.389 158.305 261.764 158.09 L 261.764 158.09 L 261.764 158.09 Q 258.991 157.133 256.843 157.133 L 256.843 157.133 L 256.843 157.133 Q 254.694 157.133 253.893 158.188 L 253.893 158.188 L 253.893 158.188 Q 252.78 159.652 252.78 163.578 L 252.78 163.578 L 252.78 163.578 Q 252.78 164.984 253.737 165.668 L 253.737 165.668 L 253.737 165.668 Q 254.694 166.352 255.934 166.352 L 255.934 166.352 L 255.934 166.352 Q 257.175 166.352 258.454 165.502 L 258.454 165.502 L 258.454 165.502 Q 259.733 164.652 259.753 164.652 L 259.753 164.652 L 259.753 164.652 Q 260.729 164.652 261.091 165.414 L 261.091 165.414 L 261.091 165.414 Q 261.452 166.176 261.452 167.895 L 261.452 167.895 L 261.452 167.895 Q 261.452 170.922 260.065 170.922 L 260.065 170.922 L 260.065 170.922 Q 259.694 170.922 258.522 169.975 L 258.522 169.975 L 258.522 169.975 Q 257.35 169.027 256.042 169.027 L 256.042 169.027 L 256.042 169.027 Q 253.796 169.027 253.053 169.984 L 253.053 169.984 L 253.053 169.984 Q 252.565 170.609 252.565 173.734 L 252.565 173.734 L 252.565 173.734 Q 252.565 176.859 253.678 178.305 L 253.678 178.305 L 253.678 178.305 Q 254.303 179.105 256.667 179.105 L 256.667 179.105 L 256.667 179.105 Q 259.03 179.105 262.175 178.09 L 262.175 178.09 L 262.175 178.09 Q 263.053 177.816 263.581 177.445 L 263.581 177.445 L 263.581 177.445 Q 264.108 177.074 264.655 176.654 L 264.655 176.654 L 264.655 176.654 Q 265.202 176.234 265.339 176.234 L 265.339 176.234 L 265.339 176.234 Q 266.003 176.234 266.003 176.898 L 266.003 176.898 L 266.003 177.523 L 266.003 177.523 Q 266.003 179.027 265.485 179.994 L 265.485 179.994 L 265.485 179.994 Q 264.968 180.961 264.538 181.234 L 264.538 181.234 L 264.538 181.234 Q 263.737 181.742 258.171 181.742 L 258.171 181.742 L 255.593 181.742 L 254.733 181.723 L 254.733 181.723 Q 247.37 181.723 246.237 181.557 L 246.237 181.557 L 246.237 181.557 Q 245.104 181.391 245.104 180.688 L 245.104 180.688 L 245.104 180.688 Q 245.104 180.238 246.159 179.555 L 246.159 179.555 L 246.159 179.555 Q 247.214 178.871 247.526 177.836 L 247.526 177.836 L 247.526 177.836 Q 247.839 176.801 247.839 169.73 L 247.839 169.73 L 247.917 162.094 L 247.917 162.094 Q 247.917 158.344 247.448 157.445 L 247.448 157.445 L 247.448 157.445 Q 247.233 157.035 246.237 156.508 L 246.237 156.508 L 246.237 156.508 Q 245.241 155.98 245.241 155.57 L 245.241 155.57 L 245.241 155.57 Q 245.241 154.789 246.51 154.594 L 246.51 154.594 L 246.51 154.594 Q 247.038 154.516 254.811 154.516 L 254.811 154.516 L 260.671 154.496 L 260.671 154.496 Z  M 282.604 157.484 L 282.604 157.484 Q 281.003 156.391 279.001 156.391 L 279.001 156.391 L 279.001 156.391 Q 276.999 156.391 275.729 157.436 L 275.729 157.436 L 275.729 157.436 Q 274.46 158.48 274.46 160.365 L 274.46 160.365 L 274.46 160.365 Q 274.46 162.25 276.354 163.695 L 276.354 163.695 L 276.354 163.695 Q 277.487 164.574 280.983 166.078 L 280.983 166.078 L 280.983 166.078 Q 284.479 167.582 285.846 168.852 L 285.846 168.852 L 285.846 168.852 Q 288.464 171.273 288.464 173.891 L 288.464 173.891 L 288.464 174.594 L 288.464 174.594 Q 288.464 177.836 285.885 179.867 L 285.885 179.867 L 285.885 179.867 Q 284.694 180.805 282.917 181.361 L 282.917 181.361 L 282.917 181.361 Q 281.139 181.918 279.362 181.918 L 279.362 181.918 L 278.639 181.918 L 278.639 181.918 Q 274.616 181.918 271.589 180.707 L 271.589 180.707 L 271.589 180.707 Q 270.221 180.16 270.221 177.719 L 270.221 177.719 L 270.221 177.035 L 270.221 177.035 Q 270.221 174.145 271.218 174.145 L 271.218 174.145 L 271.218 174.145 Q 271.901 174.145 273.073 176 L 273.073 176 L 273.073 176 Q 274.245 177.855 275.778 178.793 L 275.778 178.793 L 275.778 178.793 Q 277.311 179.73 279.479 179.73 L 279.479 179.73 L 279.479 179.73 Q 281.647 179.73 282.975 178.588 L 282.975 178.588 L 282.975 178.588 Q 284.303 177.445 284.303 175.766 L 284.303 175.766 L 284.303 175.766 Q 284.303 173.461 282.155 171.879 L 282.155 171.879 L 282.155 171.879 Q 281.237 171.215 277.546 169.506 L 277.546 169.506 L 277.546 169.506 Q 273.854 167.797 272.428 166.313 L 272.428 166.313 L 272.428 166.313 Q 270.475 164.281 270.475 161.352 L 270.475 161.352 L 270.475 161.352 Q 270.475 158.422 272.565 156.488 L 272.565 156.488 L 272.565 156.488 Q 273.718 155.414 275.436 154.818 L 275.436 154.818 L 275.436 154.818 Q 277.155 154.223 278.952 154.223 L 278.952 154.223 L 279.675 154.223 L 279.675 154.223 Q 280.417 154.223 281.784 154.477 L 281.784 154.477 L 282.468 154.613 L 282.468 154.613 Q 283.678 154.848 283.776 154.867 L 283.776 154.867 L 284.382 154.906 L 284.968 154.926 L 284.968 154.926 Q 285.788 154.984 286.12 155.121 L 286.12 155.121 L 286.12 155.121 Q 287.272 155.59 287.272 158.383 L 287.272 158.383 L 287.272 158.383 Q 287.272 161.176 286.178 161.176 L 286.178 161.176 L 286.178 161.176 Q 285.632 161.176 284.538 159.613 L 284.538 159.613 L 284.538 159.613 Q 283.444 158.051 282.604 157.484 L 282.604 157.484 L 282.604 157.484 Z  M 305.026 157.484 L 305.026 157.484 Q 303.425 156.391 301.423 156.391 L 301.423 156.391 L 301.423 156.391 Q 299.421 156.391 298.151 157.436 L 298.151 157.436 L 298.151 157.436 Q 296.882 158.48 296.882 160.365 L 296.882 160.365 L 296.882 160.365 Q 296.882 162.25 298.776 163.695 L 298.776 163.695 L 298.776 163.695 Q 299.909 164.574 303.405 166.078 L 303.405 166.078 L 303.405 166.078 Q 306.901 167.582 308.268 168.852 L 308.268 168.852 L 308.268 168.852 Q 310.885 171.273 310.885 173.891 L 310.885 173.891 L 310.885 174.594 L 310.885 174.594 Q 310.885 177.836 308.307 179.867 L 308.307 179.867 L 308.307 179.867 Q 307.116 180.805 305.339 181.361 L 305.339 181.361 L 305.339 181.361 Q 303.561 181.918 301.784 181.918 L 301.784 181.918 L 301.061 181.918 L 301.061 181.918 Q 297.038 181.918 294.01 180.707 L 294.01 180.707 L 294.01 180.707 Q 292.643 180.16 292.643 177.719 L 292.643 177.719 L 292.643 177.035 L 292.643 177.035 Q 292.643 174.145 293.639 174.145 L 293.639 174.145 L 293.639 174.145 Q 294.323 174.145 295.495 176 L 295.495 176 L 295.495 176 Q 296.667 177.855 298.2 178.793 L 298.2 178.793 L 298.2 178.793 Q 299.733 179.73 301.901 179.73 L 301.901 179.73 L 301.901 179.73 Q 304.069 179.73 305.397 178.588 L 305.397 178.588 L 305.397 178.588 Q 306.725 177.445 306.725 175.766 L 306.725 175.766 L 306.725 175.766 Q 306.725 173.461 304.577 171.879 L 304.577 171.879 L 304.577 171.879 Q 303.659 171.215 299.968 169.506 L 299.968 169.506 L 299.968 169.506 Q 296.276 167.797 294.85 166.313 L 294.85 166.313 L 294.85 166.313 Q 292.897 164.281 292.897 161.352 L 292.897 161.352 L 292.897 161.352 Q 292.897 158.422 294.987 156.488 L 294.987 156.488 L 294.987 156.488 Q 296.139 155.414 297.858 154.818 L 297.858 154.818 L 297.858 154.818 Q 299.577 154.223 301.374 154.223 L 301.374 154.223 L 302.096 154.223 L 302.096 154.223 Q 302.839 154.223 304.206 154.477 L 304.206 154.477 L 304.889 154.613 L 304.889 154.613 Q 306.1 154.848 306.198 154.867 L 306.198 154.867 L 306.803 154.906 L 307.389 154.926 L 307.389 154.926 Q 308.21 154.984 308.542 155.121 L 308.542 155.121 L 308.542 155.121 Q 309.694 155.59 309.694 158.383 L 309.694 158.383 L 309.694 158.383 Q 309.694 161.176 308.6 161.176 L 308.6 161.176 L 308.6 161.176 Q 308.053 161.176 306.96 159.613 L 306.96 159.613 L 306.96 159.613 Q 305.866 158.051 305.026 157.484 L 305.026 157.484 L 305.026 157.484 Z " fill="rgb(0,94,60)"/></g></svg>