<?xml version="1.0" encoding="UTF-8" standalone="no"?><!-- Generator: Gravit.io --><svg xmlns="http://www.w3.org/2000/svg" xmlns:xlink="http://www.w3.org/1999/xlink" style="isolation:isolate" viewBox="0 0 400 520" width="400pt" height="520pt"><defs><clipPath id="_clipPath_nrMMMR86BJcQQmByCEjxXkI8rpLnVhlk"><rect width="400" height="520"/></clipPath></defs><g clip-path="url(#_clipPath_nrMMMR86BJcQQmByCEjxXkI8rpLnVhlk)"><g><defs><filter id="KrtvFfLxZdcIqCYrg7wi19qL4UiD1hLR" x="-200%" y="-200%" width="400%" height="400%" filterUnits="objectBoundingBox" color-interpolation-filters="sRGB"><feGaussianBlur xmlns="http://www.w3.org/2000/svg" stdDeviation="4.293609062839028"/></filter></defs><g filter="url(#KrtvFfLxZdcIqCYrg7wi19qL4UiD1hLR)"><ellipse vector-effect="non-scaling-stroke" cx="198.91361582044095" cy="490" rx="65" ry="20.166666666666686" fill="rgb(162,162,162)" fill-opacity="0.7"/></g><defs><filter id="Y8uDQIn0yvmYER5jQmRL1uYpRXiSlj8f" x="-200%" y="-200%" width="400%" height="400%" filterUnits="objectBoundingBox" color-interpolation-filters="sRGB"><feGaussianBlur xmlns="http://www.w3.org/2000/svg" stdDeviation="0"/></filter></defs><g filter="url(#Y8uDQIn0yvmYER5jQmRL1uYpRXiSlj8f)"><path d=" M 18.914 183.931 C 18.914 83.382 99.774 2 199.384 2 C 299.14 2 380 83.382 380 183.931 C 380 237.891 356.562 286.544 319.355 319.863 C 317.304 321.633 246.405 388.124 198.944 490 C 181.073 417.906 111.785 348.613 79.998 320.306 C 42.498 286.839 18.914 238.186 18.914 183.931 Z  M 311.005 183.931" fill="rgb(229,1,37)"/></g></g><circle vector-effect="non-scaling-stroke" cx="199.18181818181824" cy="184.99999999999997" r="135" fill="rgb(255,255,255)"/><circle vector-effect="non-scaling-stroke" cx="198.99999999999977" cy="184.3333333333332" r="120.33333333333336" fill="rgb(255,255,255)"/><g><defs><filter id="RtNY3u7aBurda5Wysr55FmrX5B8cgbrZ" x="-200%" y="-200%" width="400%" height="400%" filterUnits="objectBoundingBox" color-interpolation-filters="sRGB"><feGaussianBlur xmlns="http://www.w3.org/2000/svg" in="SourceGraphic" stdDeviation="1.2880827188517086"/><feOffset xmlns="http://www.w3.org/2000/svg" dx="-1" dy="-4" result="pf_100_offsetBlur"/><feFlood xmlns="http://www.w3.org/2000/svg" flood-color="#EC7587" flood-opacity="1"/><feComposite xmlns="http://www.w3.org/2000/svg" in2="pf_100_offsetBlur" operator="in" result="pf_100_dropShadow"/><feBlend xmlns="http://www.w3.org/2000/svg" in="SourceGraphic" in2="pf_100_dropShadow" mode="normal"/></filter></defs><g filter="url(#RtNY3u7aBurda5Wysr55FmrX5B8cgbrZ)"><path d="M 154.328 97.967 L 242.983 97.967 C 266.896 97.967 286.31 117.381 286.31 141.294 L 286.31 224.672 C 286.31 248.586 266.896 268 242.983 268 L 154.328 268 C 130.414 268 111 248.586 111 224.672 L 111 141.294 C 111 117.381 130.414 97.967 154.328 97.967 Z" style="stroke:none;fill:#E70024;stroke-miterlimit:10;"/></g><defs><filter id="nU2QTmBd4Hb2UXoMFJd0qEwcEuTyvZxJ" x="-200%" y="-200%" width="400%" height="400%" filterUnits="objectBoundingBox" color-interpolation-filters="sRGB"><feGaussianBlur xmlns="http://www.w3.org/2000/svg" in="SourceGraphic" stdDeviation="1.2880827188517086"/><feOffset xmlns="http://www.w3.org/2000/svg" dx="2" dy="-2" result="pf_100_offsetBlur"/><feFlood xmlns="http://www.w3.org/2000/svg" flood-color="#F5A300" flood-opacity="0.8"/><feComposite xmlns="http://www.w3.org/2000/svg" in2="pf_100_offsetBlur" operator="in" result="pf_100_dropShadow"/><feBlend xmlns="http://www.w3.org/2000/svg" in="SourceGraphic" in2="pf_100_dropShadow" mode="normal"/></filter></defs><g filter="url(#nU2QTmBd4Hb2UXoMFJd0qEwcEuTyvZxJ)"><circle vector-effect="non-scaling-stroke" cx="223.57386691269744" cy="188.84649982700952" r="48.6647445508015" fill="rgb(245,163,0)"/></g><defs><filter id="jJzbSsDMbdNwoT5P5ieEgkEMtEHF2m0R" x="-200%" y="-200%" width="400%" height="400%" filterUnits="objectBoundingBox" color-interpolation-filters="sRGB"><feGaussianBlur xmlns="http://www.w3.org/2000/svg" in="SourceGraphic" stdDeviation="0.8587218125678057"/><feOffset xmlns="http://www.w3.org/2000/svg" dx="0" dy="2" result="pf_100_offsetBlur"/><feFlood xmlns="http://www.w3.org/2000/svg" flood-color="#000000" flood-opacity="0.65"/><feComposite xmlns="http://www.w3.org/2000/svg" in2="pf_100_offsetBlur" operator="in" result="pf_100_dropShadow"/><feBlend xmlns="http://www.w3.org/2000/svg" in="SourceGraphic" in2="pf_100_dropShadow" mode="normal"/></filter></defs><g filter="url(#jJzbSsDMbdNwoT5P5ieEgkEMtEHF2m0R)"><path d=" M 153.215 128.455 L 130.349 206.436 Q 128.579 212.844 130.349 215.817 Q 132.118 218.791 137.678 219.482 L 206.571 219.922 L 213.02 201.746 Q 160.837 202.138 160.837 201.452 Q 160.837 200.037 184.877 128.455 L 153.215 128.455 Z " fill="rgb(255,255,255)"/></g></g></g></svg>