<?xml version="1.0" encoding="UTF-8" standalone="no"?><!-- Generator: Gravit.io --><svg xmlns="http://www.w3.org/2000/svg" xmlns:xlink="http://www.w3.org/1999/xlink" style="isolation:isolate" viewBox="0 0 24 24" width="24pt" height="24pt"><defs><clipPath id="_clipPath_Smjpo2EYrARavLOaxgMe2WQYgEVsMrvC"><rect width="24" height="24"/></clipPath></defs><g clip-path="url(#_clipPath_Smjpo2EYrARavLOaxgMe2WQYgEVsMrvC)"><path d=" M 18.086 16.765 C 19.727 15.086 20.828 12.887 20.828 10.373 C 20.828 5.501 16.872 1.545 12 1.545 C 7.128 1.545 3.172 5.501 3.172 10.373 C 3.172 12.917 4.177 15.038 5.975 16.823 L 5.975 16.823 L 11.641 23.076 L 18.097 16.765 L 18.086 16.765 Z " fill="rgb(236,27,36)"/><g><path d=" M 13.509 11.656 C 13.979 12.571 13.566 13.61 12.762 13.977 C 11.88 14.384 10.856 14.038 10.443 13.231 L 8.263 8.984 C 7.793 8.072 8.206 7.03 9.01 6.663 C 9.895 6.259 10.916 6.602 11.331 7.409 L 13.509 11.656 Z " fill="rgb(255,255,255)"/><path d=" M 17.92 11.656 C 18.39 12.571 17.978 13.61 17.174 13.977 C 16.288 14.384 15.264 14.038 14.852 13.231 L 12.675 8.984 C 12.208 8.072 12.617 7.03 13.421 6.663 C 14.304 6.259 15.328 6.602 15.74 7.409 L 17.92 11.656 Z " fill="rgb(255,255,255)"/><path d=" M 9.519 12.511 C 8.931 11.369 7.823 9.21 7.823 9.21 C 7.73 9.03 7.664 8.84 7.624 8.647 L 6.08 11.656 C 5.61 12.571 6.022 13.61 6.826 13.977 C 7.712 14.384 8.733 14.038 9.148 13.231 L 9.519 12.511 Z " fill="rgb(255,255,255)"/></g></g></svg>