<?xml version="1.0" encoding="UTF-8" standalone="no"?><!-- Generator: Gravit.io --><svg xmlns="http://www.w3.org/2000/svg" xmlns:xlink="http://www.w3.org/1999/xlink" style="isolation:isolate" viewBox="0 0 24 24" width="24pt" height="24pt"><defs><clipPath id="_clipPath_t0e9kLeIGgXXMSfqUai5NPWhkyw5SZbT"><rect width="24" height="24"/></clipPath></defs><g clip-path="url(#_clipPath_t0e9kLeIGgXXMSfqUai5NPWhkyw5SZbT)"><g><defs><filter id="L3UqYpRthSLpG516oNFurdIvduiQOB7d" x="-200%" y="-200%" width="400%" height="400%" filterUnits="objectBoundingBox" color-interpolation-filters="sRGB"><feGaussianBlur xmlns="http://www.w3.org/2000/svg" stdDeviation="4.293609062839028"/></filter></defs><g filter="url(#L3UqYpRthSLpG516oNFurdIvduiQOB7d)"><ellipse vector-effect="non-scaling-stroke" cx="11.937653344309695" cy="22.712036298505467" rx="2.961238831121353" ry="0.918743329655598" fill="rgb(162,162,162)" fill-opacity="0.7"/></g><defs><filter id="rnF978yIHfr8wnSROCAWfwJ6JIwsVFFH" x="-200%" y="-200%" width="400%" height="400%" filterUnits="objectBoundingBox" color-interpolation-filters="sRGB"><feGaussianBlur xmlns="http://www.w3.org/2000/svg" stdDeviation="0"/></filter></defs><g filter="url(#rnF978yIHfr8wnSROCAWfwJ6JIwsVFFH)"><path d=" M 3.737 8.768 C 3.737 4.188 7.421 0.48 11.959 0.48 C 16.504 0.48 20.188 4.188 20.188 8.768 C 20.188 11.227 19.12 13.443 17.425 14.961 C 17.331 15.042 14.101 18.071 11.939 22.712 C 11.125 19.428 7.968 16.271 6.52 14.981 C 4.812 13.457 3.737 11.24 3.737 8.768 Z  M 17.044 8.768" fill="rgb(141,23,28)"/></g></g><circle vector-effect="non-scaling-stroke" cx="11.96239974000271" cy="8.800666836779577" r="5.717468820088149" fill="rgb(255,255,255)"/><g><path d=" M 11.958 14.135 C 14.867 14.135 17.239 11.779 17.239 8.888 C 17.239 5.996 14.867 3.641 11.958 3.641 C 9.058 3.641 6.685 5.996 6.685 8.888 C 6.685 11.779 9.058 14.135 11.958 14.135 Z " fill-rule="evenodd" fill="rgb(255,246,139)"/><path d=" M 11.958 12.494 C 13.957 12.494 15.59 10.87 15.59 8.888 C 15.59 6.906 13.957 5.282 11.958 5.282 C 9.96 5.282 8.335 6.906 8.335 8.888 C 8.335 10.87 9.96 12.494 11.958 12.494 L 11.958 12.494 Z " fill-rule="evenodd" fill="rgb(255,255,255)"/><path d=" M 13.608 6.116 C 12.97 6.209 12.621 6.422 12.366 6.762 C 12.12 7.196 12.179 7.51 12.732 7.442 C 13.064 7.425 13.242 7.213 13.812 6.787 C 14.059 6.651 14.543 6.711 14.986 6.702 C 15.377 6.651 15.836 6.328 15.879 5.903 C 15.947 5.605 15.785 5.469 15.462 5.571 C 15.122 5.775 15.181 5.903 14.875 6.064 C 14.722 6.167 14.552 6.201 14.331 6.141 C 14.127 6.124 13.923 6.115 13.719 6.116 L 13.608 6.116 L 13.608 6.116 Z " fill-rule="evenodd" fill="rgb(0,0,0)"/><path d=" M 13.625 6.167 C 13.404 6.192 13.2 6.26 12.996 6.337 L 12.826 6.422 C 12.528 6.626 12.366 6.83 12.315 7.043 C 12.264 7.23 12.315 7.366 12.536 7.391 C 12.843 7.417 13.149 7.289 13.412 7.008 L 13.727 6.736 C 13.515 6.719 13.293 6.821 13.106 6.966 C 13.225 6.872 13.344 6.762 13.548 6.711 C 13.897 6.66 14.229 6.643 14.578 6.66 C 14.977 6.702 15.275 6.592 15.513 6.405 C 15.598 6.32 15.675 6.277 15.734 6.167 C 15.819 6.005 15.845 5.792 15.811 5.673 C 15.7 5.563 15.59 5.571 15.53 5.614 C 15.334 5.682 15.13 5.988 14.858 6.124 C 14.722 6.201 14.637 6.252 14.178 6.175 C 13.999 6.158 13.812 6.158 13.625 6.167 L 13.625 6.167 Z " fill-rule="evenodd" fill="rgb(236,183,49)"/><path d=" M 15.334 6.158 C 15.487 6.056 15.624 5.945 15.641 5.767 C 15.615 5.707 15.581 5.69 15.53 5.699 C 15.377 5.758 15.283 5.903 15.173 6.022 C 15.3 5.92 15.436 5.75 15.53 5.784 C 15.607 5.928 15.445 6.039 15.334 6.158 L 15.334 6.158 Z  M 12.86 7.272 C 12.613 7.366 12.477 7.332 12.46 7.153 C 12.46 7.017 12.553 6.889 12.775 6.677 C 12.885 6.592 12.996 6.515 13.149 6.447 L 13.31 6.439 L 13.404 6.354 L 13.531 6.362 L 13.591 6.311 L 13.71 6.311 L 13.727 6.277 L 13.889 6.269 C 14.008 6.243 14.127 6.251 14.246 6.243 L 13.752 6.311 L 13.719 6.354 L 13.616 6.345 L 13.54 6.396 L 13.429 6.379 L 13.336 6.464 L 13.183 6.473 C 12.944 6.575 12.749 6.728 12.621 6.932 C 12.562 7.042 12.528 7.153 12.57 7.255 C 12.664 7.306 12.758 7.306 12.86 7.272 L 12.86 7.272 Z  M 14.697 6.192 C 14.799 6.243 14.994 6.243 15.19 6.226 C 15.037 6.252 14.918 6.26 14.739 6.243 C 14.671 6.235 14.637 6.209 14.62 6.192 L 14.697 6.192 Z  M 15.777 6.311 C 15.607 6.617 15.343 6.838 15.02 6.855 C 15.156 6.855 15.275 6.881 15.488 6.745 C 15.717 6.541 15.751 6.413 15.777 6.311 Z " fill-rule="evenodd" fill="rgb(0,0,0)"/><path d=" M 15.811 6.481 C 15.641 6.77 15.479 6.94 15.156 6.974 C 15.3 6.966 15.36 6.992 15.555 6.889 C 15.777 6.677 15.777 6.592 15.811 6.481 Z  M 15.785 6.736 C 15.607 6.983 15.607 7.025 15.266 7.119 C 15.42 7.102 15.385 7.127 15.607 7.034 C 15.802 6.821 15.743 6.821 15.785 6.736 Z  M 12.103 7.153 C 12.111 6.932 12.222 6.558 12.647 6.43 C 12.494 6.439 12.383 6.498 12.247 6.617 C 12.052 6.813 12.111 7.085 12.103 7.153 L 12.103 7.153 Z " fill-rule="evenodd" fill="rgb(0,0,0)"/><path d=" M 11.95 7.059 C 12.018 6.736 12.162 6.447 12.587 6.43 C 12.451 6.43 12.341 6.413 12.128 6.566 C 11.907 6.838 11.975 6.974 11.95 7.059 Z " fill-rule="evenodd" fill="rgb(0,0,0)"/><path d=" M 10.076 9.688 C 9.88 9.798 9.773 9.952 9.723 10.119 C 9.673 10.288 9.679 10.473 9.708 10.643 L 9.708 10.645 C 9.738 10.866 9.792 11.051 9.877 11.221 C 9.962 11.391 10.077 11.549 10.228 11.717 L 10.184 11.757 C 10.029 11.585 9.911 11.423 9.823 11.247 C 9.736 11.071 9.68 10.882 9.65 10.653 L 9.65 10.653 C 9.619 10.475 9.613 10.281 9.666 10.102 C 9.72 9.921 9.835 9.755 10.047 9.636 L 10.076 9.688 L 10.076 9.688 Z " fill="rgb(0,0,0)"/><path d=" M 9.846 11.705 L 9.914 11.399 L 9.972 11.412 L 9.904 11.718 L 9.846 11.705 Z " fill="rgb(0,0,0)"/><path d=" M 11.482 10.427 C 11.533 10.402 11.601 10.436 11.635 10.504 C 11.66 10.563 11.643 10.64 11.592 10.665 C 11.541 10.691 11.473 10.657 11.439 10.589 C 11.405 10.521 11.422 10.444 11.482 10.427 L 11.482 10.427 Z  M 11.941 11.354 C 11.992 11.329 12.06 11.363 12.094 11.431 C 12.12 11.499 12.103 11.575 12.052 11.601 C 12.001 11.626 11.933 11.584 11.899 11.524 C 11.865 11.456 11.882 11.38 11.941 11.354 Z  M 12.077 10.249 C 12.06 10.215 12.009 10.121 11.933 10.147 C 11.882 10.198 11.899 10.266 11.941 10.334 C 11.924 10.317 12.094 10.274 12.077 10.249 Z  M 11.244 11.048 C 10.878 11.201 10.461 11.567 10.121 11.873 C 10.087 11.873 10.096 11.831 10.096 11.797 C 10.47 11.422 11.108 10.963 11.244 11.048 L 11.244 11.048 Z " fill-rule="evenodd" fill="rgb(0,0,0)"/><path d=" M 10.317 12.009 L 10.138 11.805 L 10.104 11.839 C 10.147 11.915 10.215 11.966 10.317 12.009 L 10.317 12.009 Z  M 11.074 11.448 C 10.827 11.592 10.589 11.822 10.368 12.026 C 10.436 12.043 10.504 12.077 10.555 12.111 C 10.521 12.077 10.521 12.043 10.504 12.009 C 10.666 11.797 10.904 11.626 11.074 11.448 Z  M 10.963 11.924 C 11.091 11.278 11.38 10.895 11.712 10.546 C 11.907 10.385 11.992 10.257 12.409 10.13 C 12.494 10.053 12.579 9.968 12.681 9.943 C 12.817 9.909 12.919 9.977 12.851 10.138 C 12.826 10.198 12.792 10.24 12.724 10.283 C 13.03 10.393 13.438 10.555 13.48 10.946 C 13.446 11.057 13.395 11.091 13.293 11.065 C 13.157 11.023 13.081 10.895 13.038 10.768 C 12.877 10.614 12.817 10.623 12.987 10.793 L 13.013 10.861 C 13.047 11.04 12.979 11.065 12.868 11.04 C 12.885 11.116 12.851 11.21 12.809 11.227 C 12.868 11.499 13.013 11.771 13.115 12.247 L 13.021 12.298 C 12.979 11.967 12.877 11.601 12.783 11.252 C 12.74 11.244 12.698 11.244 12.655 11.218 C 12.579 11.371 12.494 11.439 12.349 11.388 C 12.247 11.354 12.196 11.286 12.145 11.193 C 12.111 11.116 12.154 11.057 12.247 11.065 L 12.239 11.023 C 12.128 11.048 12.069 11.048 12.009 10.997 C 11.924 11.507 11.729 11.941 11.499 12.366 L 11.405 12.366 C 11.677 11.941 11.907 11.499 11.95 10.955 C 12.035 10.989 12.154 10.989 12.256 10.955 C 12.298 11.006 12.298 11.031 12.366 11.133 C 12.383 11.167 12.392 11.193 12.383 11.227 C 12.349 11.184 12.315 11.142 12.256 11.133 C 12.196 11.108 12.171 11.142 12.188 11.184 C 12.239 11.227 12.264 11.295 12.358 11.329 C 12.477 11.371 12.553 11.337 12.587 11.227 C 12.638 11.091 12.553 11.023 12.528 10.946 C 12.562 10.921 12.579 10.912 12.596 10.963 C 12.613 11.04 12.63 11.125 12.707 11.167 C 12.783 11.193 12.86 11.133 12.809 10.997 C 12.775 10.904 12.749 10.895 12.732 10.853 C 12.715 10.802 12.732 10.751 12.766 10.785 C 12.792 10.853 12.834 10.921 12.877 10.98 C 12.979 11.031 13.004 10.963 12.97 10.853 C 12.945 10.751 12.902 10.708 12.826 10.666 C 12.783 10.64 12.783 10.589 12.826 10.563 C 12.885 10.563 12.936 10.572 13.013 10.64 L 13.191 10.887 C 13.259 10.997 13.344 11.014 13.378 10.989 C 13.446 10.98 13.446 10.904 13.361 10.734 C 13.106 10.487 12.902 10.376 12.715 10.342 C 12.604 10.308 12.511 10.266 12.392 10.266 L 12.366 10.283 C 12.468 10.283 12.587 10.283 12.673 10.249 C 12.69 10.24 12.758 10.189 12.817 10.121 C 12.851 9.985 12.775 9.934 12.673 9.985 C 12.587 10.045 12.511 10.13 12.426 10.164 C 12.137 10.283 11.933 10.393 11.763 10.555 C 11.576 10.793 11.652 10.581 11.159 11.405 C 11.04 11.592 11.023 11.771 10.963 11.924 L 10.963 11.924 Z " fill-rule="evenodd" fill="rgb(0,0,0)"/><path d=" M 12.009 9.628 C 12.094 9.704 12.188 9.781 12.281 9.823 C 12.409 9.696 12.519 9.619 12.621 9.594 C 12.664 9.577 12.715 9.56 12.749 9.602 L 13.149 10.342 L 13.217 10.521 L 13.115 10.461 C 13.004 10.232 12.894 9.883 12.732 9.67 C 12.724 9.636 12.69 9.628 12.638 9.653 C 12.57 9.687 12.451 9.713 12.434 9.789 L 12.443 9.841 L 12.536 10.028 L 12.503 10.07 C 12.486 9.994 12.443 9.909 12.392 9.858 C 12.332 9.9 12.281 9.926 12.247 9.9 C 12.179 9.866 12.12 9.807 12.052 9.721 L 12.009 9.628 L 12.009 9.628 Z  M 10.495 7.043 C 10.274 7.051 10.036 7.145 9.832 7.391 C 9.824 7.408 9.781 7.476 9.79 7.544 C 9.9 7.323 10.147 7.17 10.495 7.043 Z  M 11.082 7.876 C 11.108 7.85 11.159 7.85 11.201 7.893 C 11.235 7.927 11.244 7.978 11.218 8.012 C 11.184 8.037 11.133 8.029 11.099 7.995 C 11.057 7.961 11.057 7.901 11.082 7.876 Z " fill-rule="evenodd" fill="rgb(0,0,0)"/><path d=" M 10.98 7.859 C 10.972 7.834 10.972 7.816 10.997 7.791 C 11.04 7.774 11.065 7.774 11.099 7.8 C 11.116 7.808 11.159 7.859 11.184 7.884 C 11.159 7.876 11.125 7.825 11.099 7.808 C 11.057 7.782 11.031 7.791 11.014 7.8 C 10.989 7.816 10.98 7.833 10.98 7.859 Z " fill-rule="evenodd" fill="rgb(0,0,0)"/><path d=" M 10.921 7.527 C 11.125 7.655 11.346 7.757 11.567 7.799 C 11.703 7.833 11.822 7.893 11.788 8.072 L 11.763 8.114 C 11.865 8.191 11.924 8.267 11.873 8.369 C 11.856 8.395 11.822 8.412 11.797 8.429 C 11.814 8.565 12.001 8.658 11.916 8.794 C 11.814 8.922 11.686 8.998 11.584 9.041 C 11.354 9.1 11.15 9.126 10.946 9.092 C 11.176 9.092 11.363 9.041 11.524 8.99 C 11.678 8.931 11.873 8.828 11.865 8.692 C 11.839 8.59 11.763 8.522 11.729 8.463 C 11.584 8.641 11.405 8.735 11.184 8.726 C 11.006 8.684 10.98 8.624 10.997 8.48 C 11.074 8.488 11.142 8.497 11.193 8.471 C 11.252 8.437 11.337 8.301 11.346 8.233 C 11.371 8.284 11.456 8.31 11.524 8.276 C 11.669 8.182 11.746 8.089 11.72 8.021 C 11.712 7.918 11.524 7.851 11.414 7.816 C 11.091 7.655 11.057 7.655 10.921 7.527 L 10.921 7.527 Z " fill-rule="evenodd" fill="rgb(0,0,0)"/><path d=" M 11.295 8.412 C 11.252 8.505 11.167 8.565 11.074 8.582 C 11.116 8.616 11.167 8.624 11.235 8.582 C 11.286 8.522 11.312 8.446 11.295 8.412 Z  M 11.346 8.412 C 11.337 8.514 11.286 8.599 11.21 8.65 C 11.269 8.667 11.337 8.65 11.371 8.59 C 11.397 8.539 11.38 8.446 11.346 8.412 Z  M 11.422 8.361 C 11.431 8.454 11.456 8.548 11.397 8.599 C 11.456 8.607 11.49 8.565 11.499 8.514 C 11.524 8.437 11.49 8.378 11.422 8.361 Z  M 11.524 8.327 C 11.524 8.395 11.584 8.471 11.533 8.539 C 11.601 8.522 11.609 8.505 11.618 8.48 C 11.635 8.378 11.592 8.335 11.524 8.327 L 11.524 8.327 Z  M 11.618 8.259 C 11.652 8.344 11.661 8.412 11.661 8.471 C 11.72 8.446 11.729 8.386 11.737 8.318 C 11.695 8.242 11.661 8.259 11.618 8.259 Z  M 11.72 8.191 C 11.703 8.216 11.78 8.216 11.771 8.395 C 11.839 8.352 11.831 8.361 11.839 8.327 C 11.865 8.208 11.788 8.191 11.72 8.191 L 11.72 8.191 Z " fill-rule="evenodd" fill="rgb(255,255,255)"/><path d=" M 10.538 7.714 C 10.572 7.825 10.597 7.935 10.546 8.071 C 10.529 8.174 10.495 8.216 10.512 8.31 C 10.683 8.624 10.674 8.658 10.555 8.718 C 10.495 8.743 10.402 8.752 10.291 8.709 C 10.206 8.624 10.164 8.539 10.181 8.463 C 10.198 8.378 10.223 8.31 10.223 8.216 C 10.223 8.148 10.181 8.08 10.147 8.029 C 10.198 8.063 10.232 8.106 10.249 8.157 C 10.266 8.25 10.283 8.352 10.257 8.471 C 10.3 8.607 10.376 8.701 10.461 8.675 C 10.376 8.582 10.359 8.48 10.402 8.395 C 10.419 8.454 10.41 8.548 10.478 8.582 C 10.529 8.65 10.58 8.573 10.555 8.582 C 10.563 8.539 10.512 8.42 10.47 8.31 C 10.453 8.233 10.478 8.148 10.521 8.029 C 10.538 7.927 10.495 7.612 10.538 7.714 L 10.538 7.714 Z " fill-rule="evenodd" fill="rgb(0,0,0)"/><path d=" M 9.807 8.31 L 9.798 8.42 C 9.755 8.522 9.73 8.616 9.739 8.709 C 9.773 8.777 9.807 8.82 9.858 8.837 L 9.807 8.667 L 9.892 8.233 C 9.917 8.165 9.994 8.122 10.011 8.199 L 10.036 8.276 C 10.053 8.216 10.062 8.148 10.053 8.08 C 10.062 8.055 10.147 7.935 10.274 7.893 C 10.351 7.884 10.359 7.995 10.351 8.097 C 10.385 8.055 10.393 8.003 10.368 7.876 C 10.359 7.825 10.385 7.782 10.453 7.748 C 10.478 7.782 10.504 7.774 10.547 7.723 C 10.674 7.612 10.836 7.578 10.929 7.527 C 10.946 7.315 10.028 7.893 9.807 8.31 L 9.807 8.31 Z " fill-rule="evenodd" fill="rgb(0,0,0)"/><path d=" M 9.653 8.488 C 9.5 8.701 9.432 8.99 9.602 9.245 C 9.687 9.33 9.79 9.373 9.909 9.39 C 10.079 9.534 10.215 9.568 10.274 9.5 C 10.334 9.458 10.368 9.415 10.385 9.381 C 10.529 9.415 10.58 9.313 10.657 9.075 C 10.555 9.177 10.529 9.237 10.402 9.305 C 10.3 9.339 10.198 9.322 10.096 9.262 C 10.104 9.33 10.138 9.373 10.215 9.407 C 10.13 9.415 10.011 9.441 9.934 9.279 C 9.738 9.228 9.653 9.211 9.594 8.956 C 9.526 8.845 9.577 8.684 9.653 8.488 L 9.653 8.488 Z " fill-rule="evenodd" fill="rgb(0,0,0)"/><path d=" M 10.47 8.863 C 10.402 8.837 10.351 8.811 10.266 8.811 C 10.189 8.811 10.155 8.871 10.155 8.879 C 10.096 8.964 10.113 9.033 10.198 9.101 C 10.3 9.16 10.41 9.177 10.512 9.177 C 10.58 9.143 10.614 9.135 10.657 9.05 C 10.614 9.118 10.572 9.109 10.495 9.126 C 10.359 9.126 10.215 9.066 10.189 8.973 C 10.172 8.93 10.198 8.896 10.266 8.845 C 10.334 8.811 10.393 8.828 10.47 8.863 Z  M 11.516 9.152 C 11.465 9.279 11.422 9.543 11.533 9.645 L 11.746 9.424 L 11.848 9.424 C 11.805 9.347 11.575 9.186 11.516 9.152 L 11.516 9.152 Z " fill-rule="evenodd" fill="rgb(0,0,0)"/><path d=" M 11.567 9.245 C 11.524 9.296 11.49 9.432 11.524 9.602 C 11.584 9.534 11.678 9.424 11.754 9.39 C 11.695 9.33 11.635 9.271 11.567 9.245 L 11.567 9.245 Z " fill-rule="evenodd" fill="rgb(255,255,255)"/><path d=" M 10.614 9.288 C 10.402 9.313 10.266 9.33 10.113 9.483 C 10.087 9.517 10.028 9.696 10.07 9.73 C 10.393 9.73 10.657 9.713 10.929 9.908 C 11.048 9.84 11.167 9.764 11.32 9.772 L 11.456 9.67 C 11.082 9.407 10.878 9.364 10.614 9.288 L 10.614 9.288 Z " fill-rule="evenodd" fill="rgb(0,0,0)"/><path d=" M 10.529 9.356 C 10.912 9.407 11.082 9.492 11.405 9.696 L 11.21 9.738 C 11.108 9.73 10.895 9.84 10.929 9.866 C 10.648 9.687 10.495 9.67 10.164 9.653 C 10.155 9.551 10.359 9.407 10.529 9.356 L 10.529 9.356 Z " fill-rule="evenodd" fill="rgb(255,255,255)"/><path d=" M 11.422 9.747 C 11.244 9.721 11.074 9.738 10.87 9.9 C 10.853 9.942 10.887 10.028 10.946 10.087 C 11.031 10.181 11.125 10.266 11.21 10.359 C 11.244 10.385 11.278 10.376 11.312 10.359 L 11.55 9.985 C 11.627 9.951 11.669 9.917 11.737 9.858 C 11.848 9.874 11.967 9.866 12.035 9.849 C 12.069 9.806 12.06 9.789 12.06 9.738 C 12.018 9.628 12.018 9.509 11.933 9.441 C 11.933 9.407 11.797 9.381 11.797 9.415 C 11.695 9.449 11.601 9.56 11.559 9.645 L 11.422 9.747 L 11.422 9.747 Z " fill-rule="evenodd" fill="rgb(204,34,41)"/><path d=" M 11.42 9.767 C 11.333 9.754 11.248 9.752 11.16 9.773 C 11.074 9.793 10.984 9.835 10.887 9.912 C 10.886 9.915 10.885 9.918 10.885 9.922 C 10.885 9.928 10.885 9.935 10.886 9.942 C 10.893 9.982 10.92 10.033 10.96 10.073 L 10.961 10.074 C 11.004 10.12 11.048 10.166 11.093 10.21 C 11.137 10.254 11.181 10.298 11.223 10.345 C 11.235 10.353 11.248 10.356 11.26 10.355 C 11.272 10.354 11.285 10.35 11.298 10.344 L 11.533 9.974 C 11.536 9.972 11.539 9.969 11.542 9.967 C 11.575 9.953 11.606 9.935 11.635 9.915 C 11.663 9.895 11.691 9.872 11.724 9.843 C 11.729 9.84 11.734 9.838 11.74 9.838 L 11.741 9.838 L 11.742 9.838 C 11.772 9.843 11.802 9.845 11.833 9.846 C 11.907 9.849 11.976 9.842 12.023 9.831 C 12.042 9.806 12.042 9.791 12.041 9.764 C 12.041 9.757 12.04 9.749 12.04 9.742 C 12.02 9.689 12.009 9.631 11.993 9.579 L 11.993 9.579 C 11.978 9.531 11.959 9.487 11.92 9.456 C 11.916 9.452 11.914 9.447 11.913 9.441 C 11.913 9.435 11.889 9.428 11.865 9.423 C 11.856 9.421 11.848 9.42 11.839 9.419 C 11.833 9.419 11.826 9.419 11.82 9.42 C 11.818 9.42 11.816 9.412 11.816 9.415 C 11.816 9.422 11.809 9.432 11.803 9.434 L 11.802 9.434 L 11.802 9.434 C 11.79 9.439 11.776 9.444 11.763 9.451 C 11.75 9.459 11.737 9.467 11.725 9.476 C 11.66 9.523 11.606 9.595 11.576 9.654 C 11.575 9.656 11.573 9.659 11.57 9.661 L 11.434 9.763 C 11.43 9.765 11.425 9.766 11.42 9.767 L 11.42 9.767 Z  M 11.151 9.734 C 11.241 9.713 11.328 9.714 11.417 9.726 L 11.543 9.632 C 11.575 9.569 11.633 9.494 11.702 9.444 C 11.716 9.434 11.73 9.424 11.745 9.416 C 11.756 9.41 11.768 9.405 11.78 9.4 C 11.786 9.39 11.798 9.383 11.813 9.381 C 11.822 9.379 11.832 9.379 11.842 9.38 C 11.851 9.38 11.862 9.382 11.873 9.384 C 11.908 9.391 11.941 9.408 11.95 9.429 C 11.993 9.466 12.015 9.514 12.031 9.568 L 12.032 9.568 C 12.047 9.62 12.057 9.675 12.079 9.731 L 12.079 9.731 L 12.079 9.731 L 12.079 9.731 L 12.079 9.731 L 12.079 9.731 L 12.079 9.731 L 12.079 9.731 L 12.079 9.731 L 12.079 9.732 C 12.079 9.732 12.079 9.732 12.079 9.731 C 12.079 9.732 12.079 9.732 12.079 9.732 L 12.079 9.732 L 12.079 9.732 L 12.079 9.732 L 12.079 9.732 C 12.08 9.734 12.08 9.738 12.08 9.738 C 12.08 9.747 12.081 9.755 12.081 9.763 C 12.082 9.801 12.083 9.821 12.05 9.861 C 12.047 9.864 12.043 9.867 12.04 9.868 C 11.989 9.881 11.912 9.889 11.831 9.886 C 11.802 9.885 11.772 9.883 11.743 9.879 C 11.712 9.906 11.685 9.928 11.658 9.947 C 11.63 9.967 11.601 9.984 11.564 10.001 L 11.329 10.37 C 11.326 10.373 11.324 10.375 11.321 10.377 C 11.302 10.387 11.282 10.394 11.262 10.395 C 11.238 10.397 11.214 10.389 11.195 10.373 C 11.154 10.327 11.109 10.283 11.065 10.238 C 11.02 10.193 10.975 10.148 10.931 10.101 C 10.886 10.055 10.855 9.995 10.847 9.948 L 10.847 9.948 C 10.846 9.938 10.845 9.929 10.845 9.92 C 10.846 9.91 10.848 9.901 10.851 9.893 L 10.851 9.893 L 10.851 9.893 C 10.853 9.89 10.855 9.887 10.857 9.884 C 10.962 9.802 11.058 9.756 11.151 9.734 L 11.151 9.734 Z " fill="rgb(0,0,0)"/><path d=" M 11.635 9.73 C 11.661 9.806 11.609 9.67 11.558 9.662 C 11.473 9.653 11.448 9.67 11.439 9.704 C 11.397 9.704 11.422 9.823 11.473 9.866 C 11.499 9.891 11.533 9.917 11.567 9.942 C 11.635 9.968 11.703 9.925 11.703 9.84 L 11.635 9.73 Z " fill-rule="evenodd" fill="rgb(204,34,41)"/><path d=" M 11.645 9.76 L 11.644 9.76 C 11.637 9.763 11.634 9.756 11.627 9.745 C 11.614 9.723 11.584 9.674 11.557 9.669 C 11.516 9.665 11.49 9.667 11.473 9.674 C 11.458 9.68 11.45 9.691 11.447 9.706 L 11.445 9.712 L 11.439 9.712 C 11.437 9.712 11.435 9.713 11.433 9.714 L 11.433 9.714 C 11.429 9.717 11.426 9.725 11.426 9.734 C 11.425 9.746 11.427 9.76 11.43 9.774 C 11.438 9.806 11.456 9.841 11.478 9.86 L 11.478 9.86 L 11.479 9.861 C 11.491 9.873 11.506 9.886 11.522 9.898 C 11.538 9.911 11.554 9.924 11.57 9.936 C 11.582 9.94 11.594 9.942 11.606 9.942 C 11.624 9.942 11.641 9.937 11.655 9.927 C 11.669 9.917 11.681 9.903 11.688 9.884 C 11.692 9.872 11.695 9.858 11.695 9.842 L 11.645 9.76 L 11.645 9.76 Z  M 11.56 9.654 C 11.581 9.658 11.602 9.681 11.618 9.703 L 11.607 9.67 L 11.641 9.726 L 11.709 9.836 L 11.711 9.838 L 11.711 9.84 C 11.711 9.859 11.708 9.875 11.702 9.89 C 11.695 9.91 11.682 9.927 11.664 9.94 C 11.647 9.951 11.627 9.957 11.606 9.957 C 11.593 9.957 11.578 9.955 11.564 9.95 L 11.563 9.949 L 11.562 9.948 C 11.545 9.935 11.528 9.922 11.512 9.91 C 11.497 9.898 11.482 9.885 11.468 9.872 C 11.443 9.851 11.424 9.813 11.416 9.778 C 11.412 9.763 11.41 9.748 11.411 9.733 L 11.411 9.733 L 11.411 9.733 L 11.411 9.733 L 11.56 9.654 Z  M 11.559 9.654 L 11.56 9.654 L 11.559 9.654 Z  M 11.467 9.66 C 11.487 9.652 11.515 9.65 11.559 9.654 L 11.467 9.66 Z  M 11.434 9.697 C 11.438 9.68 11.451 9.666 11.467 9.66 L 11.434 9.697 Z  M 11.424 9.702 C 11.424 9.702 11.424 9.702 11.424 9.702 C 11.427 9.7 11.43 9.698 11.434 9.698 L 11.424 9.702 Z  M 11.411 9.733 C 11.411 9.719 11.416 9.708 11.424 9.702 L 11.411 9.733 Z " fill="rgb(0,0,0)"/><path d=" M 11.431 9.84 C 11.303 9.84 11.235 9.874 11.252 9.977 L 11.329 10.011 C 11.286 9.994 11.269 9.968 11.286 9.917 C 11.32 9.857 11.38 9.866 11.431 9.84 L 11.431 9.84 Z  M 11.652 9.721 C 11.72 9.611 11.788 9.577 11.865 9.645 L 11.848 9.73 C 11.856 9.679 11.848 9.662 11.788 9.636 C 11.72 9.636 11.695 9.696 11.652 9.721 L 11.652 9.721 Z  M 12.851 9.798 L 13.038 9.628 C 13.081 9.339 13.106 9.177 13.183 8.896 C 13.276 8.599 13.31 8.488 13.429 8.318 C 13.523 8.182 13.472 8.165 13.446 7.893 C 13.463 7.969 13.404 8.088 13.48 7.706 C 13.48 7.646 13.489 7.612 13.472 7.57 C 13.463 7.536 13.421 7.502 13.378 7.442 C 13.37 7.383 13.378 7.306 13.395 7.281 C 13.48 7.204 13.625 7.153 13.71 7.281 C 13.786 7.306 13.812 7.451 13.786 7.655 C 13.82 7.791 13.872 7.731 13.897 7.706 C 14.178 7.468 14.484 7.298 14.875 7.289 C 15.079 7.281 15.181 7.306 15.181 7.468 C 15.147 7.57 15.096 7.655 14.986 7.689 C 14.832 7.689 14.722 7.714 14.569 7.68 C 14.331 7.697 14.169 7.799 14.45 7.731 C 14.594 7.714 14.637 7.74 14.679 7.825 C 14.671 7.961 14.594 8.08 14.518 8.114 C 14.62 8.148 14.679 8.165 14.62 8.284 C 14.654 8.327 14.671 8.42 14.654 8.471 C 14.637 8.505 14.603 8.684 14.416 8.701 C 14.365 8.735 14.263 8.718 14.271 8.624 C 14.254 8.582 14.186 8.59 14.169 8.599 C 14.067 8.718 14.016 8.709 13.872 8.692 C 13.846 9.211 13.88 9.356 13.863 9.602 C 13.846 9.764 13.872 9.942 13.82 10.104 C 13.803 10.164 13.795 10.147 13.761 10.215 C 13.676 10.266 13.489 10.47 13.302 10.614 L 13.217 10.538 C 13.429 10.41 13.684 10.232 13.786 10.061 C 13.838 9.857 13.812 9.781 13.838 9.483 L 13.829 8.82 C 13.838 8.752 13.838 8.658 13.795 8.616 C 13.846 8.633 13.855 8.65 13.931 8.641 C 14.059 8.616 14.093 8.616 14.127 8.548 C 14.042 8.531 14.033 8.446 14.118 8.335 C 14.008 8.25 13.948 8.284 13.982 8.071 C 14.016 7.859 14.577 7.876 14.45 7.876 C 14.331 7.876 14.076 7.969 14.033 8.063 C 13.999 8.156 13.991 8.284 14.195 8.25 C 14.39 8.216 14.62 7.918 14.603 7.927 C 14.586 7.935 14.654 7.842 14.569 7.782 C 14.382 7.748 14.305 7.799 14.229 7.808 C 14.229 7.714 14.365 7.689 14.458 7.646 L 14.918 7.629 C 15.02 7.604 15.096 7.561 15.113 7.485 C 15.139 7.391 15.079 7.323 14.849 7.34 C 14.62 7.34 14.407 7.433 14.186 7.536 C 14.033 7.638 13.897 7.697 13.855 7.791 C 13.872 7.884 13.855 7.961 13.855 8.054 C 13.846 8.088 13.812 8.173 13.778 8.216 L 13.838 8.029 C 13.863 7.901 13.846 7.799 13.786 7.714 L 13.769 7.655 C 13.769 7.595 13.795 7.34 13.684 7.297 C 13.642 7.212 13.472 7.221 13.446 7.289 C 13.344 7.323 13.378 7.51 13.48 7.595 C 13.506 7.918 13.429 7.774 13.489 7.748 C 13.446 7.859 13.463 7.859 13.446 7.867 C 13.438 7.825 13.438 7.969 13.497 8.114 C 13.506 8.335 13.48 8.258 13.48 8.309 C 13.285 8.607 13.2 8.956 13.149 9.304 C 13.047 9.772 13.055 9.823 13.106 9.917 C 13.038 9.823 13.038 9.764 13.038 9.696 L 12.894 9.857 L 12.851 9.798 L 12.851 9.798 Z " fill-rule="evenodd" fill="rgb(0,0,0)"/><path d=" M 13.37 8.42 C 13.404 8.344 13.498 8.318 13.472 8.242 C 13.481 8.199 13.498 8.165 13.463 8.08 C 13.387 7.918 13.463 7.782 13.455 7.799 L 13.463 7.782 C 13.455 7.782 13.489 7.595 13.429 7.544 C 13.361 7.476 13.361 7.374 13.378 7.289 C 13.395 7.221 13.455 7.161 13.582 7.17 C 13.693 7.204 13.761 7.298 13.778 7.383 L 13.77 7.459 C 13.727 7.34 13.633 7.213 13.531 7.238 C 13.404 7.255 13.395 7.366 13.421 7.459 C 13.48 7.536 13.48 7.612 13.497 7.655 C 13.48 7.748 13.489 7.799 13.463 7.842 C 13.421 7.918 13.472 7.987 13.489 8.071 C 13.531 8.182 13.497 8.148 13.514 8.225 C 13.497 8.378 13.421 8.361 13.387 8.463 L 13.37 8.42 L 13.37 8.42 Z " fill-rule="evenodd" fill="rgb(0,0,0)"/><path d=" M 14.552 8.446 C 14.527 8.48 14.382 8.539 14.331 8.565 C 14.28 8.59 14.305 8.65 14.373 8.667 C 14.433 8.675 14.484 8.658 14.518 8.624 C 14.586 8.565 14.594 8.539 14.612 8.522 C 14.637 8.437 14.637 8.352 14.552 8.446 Z  M 14.493 8.182 C 14.476 8.165 14.178 8.335 14.144 8.403 C 14.11 8.471 14.11 8.497 14.237 8.505 C 14.322 8.505 14.382 8.471 14.45 8.429 C 14.544 8.369 14.578 8.352 14.586 8.31 C 14.603 8.225 14.569 8.148 14.493 8.182 L 14.493 8.182 Z " fill-rule="evenodd" fill="rgb(255,255,255)"/><path d=" M 11.04 11.108 C 10.827 10.818 10.614 10.546 10.402 10.317 C 10.232 10.155 10.036 10.087 9.824 10.121 C 10.011 10.036 10.147 10.07 10.334 10.138 L 10.819 10.665 L 11.133 11.074 L 11.04 11.108 L 11.04 11.108 Z  M 9.841 8.25 C 10.164 7.867 10.529 7.621 10.938 7.502 L 10.691 7.162 C 10.938 6.966 10.955 6.711 10.819 6.413 C 10.563 6.167 10.3 6.133 10.011 6.32 C 9.934 6.362 9.875 6.447 9.84 6.575 L 9.84 6.736 C 9.883 6.762 9.917 6.796 9.951 6.83 C 9.934 6.736 9.908 6.609 9.942 6.524 C 10.087 6.252 10.393 6.192 10.742 6.43 C 10.853 6.6 10.861 6.702 10.827 6.855 C 10.793 6.983 10.716 7.085 10.555 7.051 L 10.861 7.459 C 10.461 7.587 10.13 7.808 9.84 8.106 L 9.84 8.25 L 9.841 8.25 L 9.841 8.25 Z  M 9.585 8.607 C 9.661 8.482 9.746 8.362 9.841 8.25 L 9.841 8.106 C 9.756 8.191 9.67 8.293 9.594 8.395 L 9.313 7.961 L 9.398 8.208 C 9.313 8.344 9.186 8.378 9.024 8.318 C 8.752 8.174 8.701 7.663 9.135 7.587 C 8.99 7.434 8.948 7.264 8.99 7.034 C 9.058 6.847 9.177 6.702 9.466 6.634 C 9.586 6.626 9.722 6.66 9.841 6.736 L 9.841 6.575 C 9.832 6.592 9.832 6.609 9.824 6.626 C 9.594 6.541 9.364 6.566 9.152 6.685 C 8.897 6.949 8.846 7.238 8.982 7.544 C 8.641 7.731 8.607 8.199 8.948 8.412 C 9.126 8.488 9.279 8.429 9.424 8.301 L 9.585 8.607 L 9.585 8.607 Z " fill-rule="evenodd" fill="rgb(0,0,0)"/></g></g></svg>