<?xml version="1.0" encoding="UTF-8" standalone="no"?><!-- Generator: Gravit.io --><svg xmlns="http://www.w3.org/2000/svg" xmlns:xlink="http://www.w3.org/1999/xlink" style="isolation:isolate" viewBox="0 0 24 24" width="24pt" height="24pt"><defs><clipPath id="_clipPath_HJkEibKobBk6BIF4yeAwcLyG38g4ez9w"><rect width="24" height="24"/></clipPath></defs><g clip-path="url(#_clipPath_HJkEibKobBk6BIF4yeAwcLyG38g4ez9w)"><path d=" M 18.086 16.765 C 19.727 15.086 20.828 12.887 20.828 10.373 C 20.828 5.501 16.872 1.545 12 1.545 C 7.128 1.545 3.172 5.501 3.172 10.373 C 3.172 12.917 4.177 15.038 5.975 16.823 L 5.975 16.823 L 11.641 23.076 L 18.097 16.765 L 18.086 16.765 Z " fill="rgb(141,23,28)"/><g><path d=" M 11.995 16.959 C 15.625 16.959 18.587 14.018 18.587 10.409 C 18.587 6.799 15.625 3.859 11.995 3.859 C 8.375 3.859 5.413 6.799 5.413 10.409 C 5.413 14.018 8.375 16.959 11.995 16.959 Z " fill-rule="evenodd" fill="rgb(255,246,139)"/><path d=" M 11.995 14.91 C 14.49 14.91 16.528 12.882 16.528 10.409 C 16.528 7.935 14.49 5.907 11.995 5.907 C 9.5 5.907 7.472 7.935 7.472 10.409 C 7.472 12.882 9.5 14.91 11.995 14.91 L 11.995 14.91 Z " fill-rule="evenodd" fill="rgb(255,255,255)"/><path d=" M 14.054 6.948 C 13.258 7.065 12.823 7.33 12.504 7.755 C 12.196 8.296 12.271 8.689 12.961 8.604 C 13.375 8.583 13.598 8.317 14.309 7.787 C 14.617 7.617 15.222 7.691 15.774 7.68 C 16.263 7.617 16.836 7.213 16.889 6.682 C 16.974 6.311 16.772 6.141 16.369 6.268 C 15.944 6.523 16.018 6.682 15.636 6.884 C 15.445 7.012 15.233 7.054 14.957 6.98 C 14.703 6.958 14.448 6.947 14.192 6.948 L 14.054 6.948 L 14.054 6.948 Z " fill-rule="evenodd" fill="rgb(0,0,0)"/><path d=" M 14.075 7.012 C 13.799 7.043 13.545 7.128 13.29 7.224 L 13.078 7.33 C 12.706 7.585 12.504 7.84 12.441 8.105 C 12.377 8.339 12.441 8.509 12.717 8.54 C 13.099 8.572 13.481 8.413 13.81 8.063 L 14.203 7.723 C 13.938 7.702 13.662 7.829 13.428 8.009 C 13.577 7.893 13.725 7.755 13.98 7.691 C 14.415 7.627 14.829 7.606 15.265 7.627 C 15.764 7.68 16.135 7.542 16.432 7.309 C 16.539 7.203 16.634 7.149 16.709 7.012 C 16.815 6.81 16.846 6.545 16.804 6.396 C 16.666 6.258 16.528 6.268 16.454 6.322 C 16.209 6.406 15.955 6.789 15.615 6.958 C 15.445 7.054 15.339 7.118 14.766 7.022 C 14.543 7.001 14.309 7.001 14.075 7.012 L 14.075 7.012 Z " fill-rule="evenodd" fill="rgb(236,183,49)"/><path d=" M 16.209 7.001 C 16.4 6.873 16.57 6.736 16.592 6.513 C 16.56 6.438 16.517 6.417 16.454 6.428 C 16.263 6.502 16.146 6.682 16.008 6.831 C 16.167 6.704 16.337 6.491 16.454 6.534 C 16.549 6.714 16.347 6.852 16.209 7.001 L 16.209 7.001 Z  M 13.12 8.392 C 12.812 8.509 12.642 8.466 12.621 8.243 C 12.621 8.073 12.738 7.914 13.014 7.649 C 13.152 7.542 13.29 7.447 13.481 7.362 L 13.683 7.351 L 13.799 7.245 L 13.959 7.256 L 14.033 7.192 L 14.182 7.192 L 14.203 7.149 L 14.405 7.139 C 14.553 7.107 14.702 7.118 14.85 7.107 L 14.234 7.192 L 14.192 7.245 L 14.065 7.234 L 13.969 7.298 L 13.831 7.277 L 13.714 7.383 L 13.523 7.394 C 13.226 7.521 12.982 7.712 12.823 7.967 C 12.748 8.105 12.706 8.243 12.759 8.37 C 12.876 8.434 12.993 8.434 13.12 8.392 L 13.12 8.392 Z  M 15.413 7.043 C 15.541 7.107 15.785 7.107 16.029 7.086 C 15.838 7.118 15.689 7.128 15.466 7.107 C 15.381 7.097 15.339 7.065 15.318 7.043 L 15.413 7.043 Z  M 16.762 7.192 C 16.549 7.574 16.22 7.85 15.817 7.871 C 15.986 7.871 16.135 7.903 16.401 7.733 C 16.687 7.479 16.73 7.319 16.762 7.192 Z " fill-rule="evenodd" fill="rgb(0,0,0)"/><path d=" M 16.804 7.404 C 16.592 7.765 16.39 7.978 15.986 8.02 C 16.167 8.009 16.241 8.041 16.485 7.914 C 16.762 7.649 16.762 7.542 16.804 7.404 Z  M 16.772 7.723 C 16.549 8.031 16.549 8.084 16.124 8.2 C 16.316 8.179 16.273 8.211 16.549 8.094 C 16.793 7.829 16.719 7.829 16.772 7.723 Z  M 12.175 8.243 C 12.186 7.967 12.324 7.5 12.855 7.341 C 12.663 7.351 12.526 7.426 12.356 7.574 C 12.111 7.818 12.186 8.158 12.175 8.243 L 12.175 8.243 Z " fill-rule="evenodd" fill="rgb(0,0,0)"/><path d=" M 11.984 8.126 C 12.069 7.723 12.249 7.362 12.78 7.341 C 12.61 7.341 12.473 7.32 12.207 7.511 C 11.931 7.85 12.016 8.02 11.984 8.126 Z " fill-rule="evenodd" fill="rgb(0,0,0)"/><path d=" M 9.645 11.407 C 9.4 11.545 9.267 11.737 9.205 11.946 C 9.142 12.157 9.15 12.387 9.186 12.6 L 9.186 12.602 C 9.223 12.879 9.291 13.108 9.396 13.321 C 9.502 13.534 9.646 13.731 9.835 13.94 L 9.78 13.99 C 9.587 13.776 9.439 13.574 9.33 13.354 C 9.221 13.135 9.151 12.898 9.113 12.613 L 9.113 12.613 C 9.075 12.39 9.067 12.148 9.134 11.924 C 9.201 11.698 9.345 11.491 9.609 11.342 L 9.645 11.407 L 9.645 11.407 Z " fill="rgb(0,0,0)"/><path d=" M 9.357 13.925 L 9.442 13.543 L 9.515 13.559 L 9.43 13.942 L 9.357 13.925 Z " fill="rgb(0,0,0)"/><path d=" M 11.4 12.33 C 11.464 12.299 11.549 12.341 11.591 12.426 C 11.623 12.5 11.602 12.596 11.538 12.628 C 11.475 12.659 11.39 12.617 11.347 12.532 C 11.305 12.447 11.326 12.352 11.4 12.33 L 11.4 12.33 Z  M 11.973 13.488 C 12.037 13.456 12.122 13.498 12.164 13.583 C 12.196 13.668 12.175 13.763 12.111 13.795 C 12.048 13.827 11.963 13.774 11.92 13.7 C 11.878 13.615 11.899 13.519 11.973 13.488 Z  M 12.143 12.107 C 12.122 12.065 12.058 11.948 11.963 11.98 C 11.899 12.044 11.92 12.129 11.973 12.214 C 11.952 12.192 12.164 12.139 12.143 12.107 Z  M 11.103 13.105 C 10.647 13.297 10.126 13.753 9.702 14.135 C 9.659 14.135 9.67 14.082 9.67 14.04 C 10.137 13.572 10.933 12.999 11.103 13.105 L 11.103 13.105 Z " fill-rule="evenodd" fill="rgb(0,0,0)"/><path d=" M 9.946 14.305 L 9.723 14.05 L 9.68 14.093 C 9.733 14.188 9.818 14.252 9.946 14.305 L 9.946 14.305 Z  M 10.891 13.604 C 10.583 13.785 10.285 14.071 10.009 14.326 C 10.094 14.347 10.179 14.39 10.243 14.432 C 10.201 14.39 10.201 14.347 10.179 14.305 C 10.381 14.04 10.678 13.827 10.891 13.604 Z  M 10.753 14.199 C 10.912 13.392 11.273 12.914 11.687 12.479 C 11.931 12.277 12.037 12.118 12.557 11.959 C 12.663 11.863 12.77 11.757 12.897 11.725 C 13.067 11.683 13.194 11.768 13.109 11.97 C 13.077 12.044 13.035 12.097 12.95 12.15 C 13.332 12.288 13.842 12.49 13.895 12.978 C 13.852 13.116 13.789 13.158 13.662 13.127 C 13.492 13.074 13.396 12.914 13.343 12.755 C 13.141 12.564 13.067 12.575 13.279 12.787 L 13.311 12.872 C 13.353 13.095 13.269 13.127 13.131 13.095 C 13.152 13.19 13.109 13.307 13.056 13.328 C 13.131 13.668 13.311 14.008 13.439 14.602 L 13.322 14.666 C 13.269 14.252 13.141 13.796 13.024 13.36 C 12.971 13.35 12.918 13.35 12.865 13.318 C 12.77 13.509 12.663 13.594 12.483 13.53 C 12.356 13.488 12.292 13.403 12.228 13.286 C 12.186 13.191 12.239 13.116 12.356 13.127 L 12.345 13.074 C 12.207 13.106 12.133 13.106 12.058 13.042 C 11.952 13.679 11.708 14.22 11.421 14.751 L 11.304 14.751 C 11.644 14.22 11.931 13.668 11.984 12.989 C 12.09 13.031 12.239 13.031 12.366 12.989 C 12.419 13.052 12.419 13.084 12.504 13.212 C 12.526 13.254 12.536 13.286 12.526 13.329 C 12.483 13.275 12.441 13.222 12.366 13.212 C 12.292 13.18 12.26 13.222 12.281 13.275 C 12.345 13.329 12.377 13.413 12.494 13.456 C 12.642 13.509 12.738 13.467 12.78 13.329 C 12.844 13.159 12.738 13.074 12.706 12.978 C 12.748 12.946 12.77 12.936 12.791 12.999 C 12.812 13.095 12.833 13.201 12.929 13.254 C 13.024 13.286 13.12 13.212 13.056 13.042 C 13.014 12.925 12.982 12.914 12.961 12.861 C 12.94 12.798 12.961 12.734 13.003 12.776 C 13.035 12.861 13.088 12.946 13.141 13.021 C 13.269 13.084 13.3 12.999 13.258 12.861 C 13.226 12.734 13.173 12.681 13.078 12.628 C 13.024 12.596 13.024 12.532 13.078 12.5 C 13.152 12.5 13.216 12.511 13.311 12.596 L 13.534 12.904 C 13.619 13.042 13.725 13.063 13.768 13.031 C 13.853 13.021 13.853 12.925 13.746 12.713 C 13.428 12.405 13.173 12.267 12.94 12.224 C 12.802 12.182 12.685 12.129 12.536 12.129 L 12.504 12.15 C 12.632 12.15 12.78 12.15 12.886 12.108 C 12.908 12.097 12.993 12.033 13.067 11.948 C 13.109 11.778 13.014 11.715 12.886 11.778 C 12.78 11.853 12.685 11.959 12.579 12.001 C 12.218 12.15 11.963 12.288 11.751 12.49 C 11.517 12.787 11.613 12.522 10.997 13.551 C 10.848 13.785 10.827 14.008 10.753 14.199 L 10.753 14.199 Z " fill-rule="evenodd" fill="rgb(0,0,0)"/><path d=" M 12.058 11.332 C 12.164 11.428 12.281 11.523 12.398 11.577 C 12.557 11.417 12.695 11.322 12.823 11.29 C 12.876 11.269 12.94 11.248 12.982 11.301 L 13.481 12.224 L 13.566 12.447 L 13.439 12.373 C 13.3 12.086 13.163 11.651 12.961 11.386 C 12.95 11.343 12.908 11.332 12.844 11.364 C 12.759 11.407 12.61 11.439 12.589 11.534 L 12.6 11.598 L 12.717 11.831 L 12.674 11.885 C 12.653 11.789 12.6 11.683 12.536 11.619 C 12.462 11.672 12.398 11.704 12.356 11.672 C 12.271 11.63 12.196 11.555 12.112 11.449 L 12.058 11.332 L 12.058 11.332 Z  M 10.169 8.105 C 9.893 8.116 9.595 8.232 9.341 8.54 C 9.33 8.562 9.277 8.646 9.288 8.731 C 9.426 8.455 9.733 8.264 10.169 8.105 Z  M 10.901 9.145 C 10.933 9.114 10.997 9.114 11.05 9.167 C 11.092 9.209 11.103 9.273 11.071 9.315 C 11.029 9.347 10.965 9.337 10.922 9.294 C 10.869 9.252 10.869 9.177 10.901 9.145 Z " fill-rule="evenodd" fill="rgb(0,0,0)"/><path d=" M 10.774 9.124 C 10.763 9.092 10.763 9.071 10.795 9.039 C 10.848 9.018 10.88 9.018 10.922 9.05 C 10.944 9.061 10.997 9.124 11.029 9.156 C 10.997 9.145 10.954 9.082 10.922 9.061 C 10.869 9.029 10.837 9.039 10.816 9.05 C 10.784 9.071 10.774 9.092 10.774 9.124 Z " fill-rule="evenodd" fill="rgb(0,0,0)"/><path d=" M 10.7 8.71 C 10.954 8.869 11.23 8.997 11.506 9.05 C 11.676 9.092 11.825 9.167 11.782 9.39 L 11.751 9.443 C 11.878 9.538 11.952 9.634 11.889 9.761 C 11.867 9.793 11.825 9.814 11.793 9.836 C 11.814 10.005 12.048 10.122 11.942 10.292 C 11.814 10.451 11.655 10.547 11.528 10.6 C 11.241 10.674 10.986 10.706 10.731 10.663 C 11.018 10.663 11.252 10.6 11.453 10.536 C 11.644 10.462 11.889 10.335 11.878 10.165 C 11.846 10.037 11.751 9.952 11.708 9.878 C 11.528 10.101 11.305 10.218 11.029 10.207 C 10.806 10.154 10.774 10.08 10.795 9.899 C 10.891 9.91 10.976 9.92 11.039 9.889 C 11.114 9.846 11.22 9.676 11.23 9.591 C 11.262 9.655 11.368 9.687 11.453 9.644 C 11.634 9.528 11.729 9.411 11.697 9.326 C 11.687 9.199 11.453 9.114 11.315 9.071 C 10.912 8.869 10.869 8.869 10.7 8.71 L 10.7 8.71 Z " fill-rule="evenodd" fill="rgb(0,0,0)"/><path d=" M 11.167 9.814 C 11.114 9.931 11.007 10.005 10.891 10.027 C 10.944 10.069 11.007 10.08 11.092 10.027 C 11.156 9.952 11.188 9.857 11.167 9.814 Z  M 11.23 9.814 C 11.22 9.942 11.156 10.048 11.06 10.111 C 11.135 10.133 11.22 10.111 11.262 10.037 C 11.294 9.974 11.273 9.857 11.23 9.814 Z  M 11.326 9.751 C 11.336 9.867 11.368 9.984 11.294 10.048 C 11.368 10.059 11.411 10.005 11.421 9.942 C 11.453 9.846 11.411 9.772 11.326 9.751 Z  M 11.453 9.708 C 11.453 9.793 11.528 9.889 11.464 9.974 C 11.549 9.952 11.559 9.931 11.57 9.899 C 11.591 9.772 11.538 9.719 11.453 9.708 L 11.453 9.708 Z  M 11.57 9.623 C 11.613 9.729 11.623 9.814 11.623 9.889 C 11.697 9.857 11.708 9.782 11.719 9.698 C 11.666 9.602 11.623 9.623 11.57 9.623 Z  M 11.697 9.538 C 11.676 9.57 11.772 9.57 11.761 9.793 C 11.846 9.74 11.835 9.751 11.846 9.708 C 11.878 9.56 11.782 9.538 11.697 9.538 L 11.697 9.538 Z " fill-rule="evenodd" fill="rgb(255,255,255)"/><path d=" M 10.222 8.944 C 10.264 9.082 10.296 9.22 10.232 9.39 C 10.211 9.517 10.169 9.57 10.19 9.687 C 10.402 10.08 10.392 10.122 10.243 10.196 C 10.169 10.228 10.052 10.239 9.914 10.186 C 9.808 10.08 9.755 9.973 9.776 9.878 C 9.797 9.772 9.829 9.687 9.829 9.57 C 9.829 9.485 9.776 9.4 9.733 9.337 C 9.797 9.379 9.84 9.432 9.861 9.496 C 9.882 9.613 9.903 9.74 9.871 9.889 C 9.925 10.058 10.02 10.175 10.126 10.143 C 10.02 10.027 9.999 9.899 10.052 9.793 C 10.073 9.867 10.063 9.984 10.147 10.027 C 10.211 10.111 10.275 10.016 10.243 10.027 C 10.254 9.974 10.19 9.825 10.137 9.687 C 10.116 9.591 10.147 9.485 10.2 9.337 C 10.222 9.209 10.169 8.816 10.222 8.944 L 10.222 8.944 Z " fill-rule="evenodd" fill="rgb(0,0,0)"/><path d=" M 9.309 9.687 L 9.298 9.825 C 9.245 9.952 9.213 10.069 9.224 10.186 C 9.266 10.271 9.309 10.324 9.372 10.345 L 9.309 10.133 L 9.415 9.591 C 9.447 9.506 9.542 9.453 9.564 9.549 L 9.595 9.644 C 9.617 9.57 9.627 9.485 9.617 9.4 C 9.627 9.368 9.734 9.22 9.893 9.167 C 9.988 9.156 9.999 9.294 9.988 9.421 C 10.031 9.368 10.041 9.305 10.01 9.145 C 9.999 9.082 10.031 9.029 10.116 8.986 C 10.148 9.029 10.179 9.018 10.233 8.954 C 10.392 8.816 10.594 8.774 10.71 8.71 C 10.731 8.445 9.585 9.167 9.309 9.687 L 9.309 9.687 Z " fill-rule="evenodd" fill="rgb(0,0,0)"/><path d=" M 9.118 9.91 C 8.927 10.175 8.842 10.536 9.054 10.855 C 9.16 10.961 9.288 11.014 9.436 11.035 C 9.648 11.216 9.818 11.258 9.893 11.173 C 9.967 11.12 10.009 11.067 10.031 11.025 C 10.211 11.067 10.275 10.94 10.37 10.642 C 10.243 10.77 10.211 10.844 10.052 10.929 C 9.925 10.972 9.797 10.95 9.67 10.876 C 9.68 10.961 9.723 11.014 9.818 11.056 C 9.712 11.067 9.563 11.099 9.468 10.897 C 9.224 10.833 9.118 10.812 9.043 10.494 C 8.958 10.356 9.022 10.154 9.118 9.91 L 9.118 9.91 Z " fill-rule="evenodd" fill="rgb(0,0,0)"/><path d=" M 10.137 10.377 C 10.052 10.345 9.988 10.313 9.882 10.313 C 9.787 10.313 9.744 10.388 9.744 10.398 C 9.67 10.504 9.691 10.589 9.797 10.674 C 9.925 10.748 10.063 10.77 10.19 10.77 C 10.275 10.727 10.317 10.717 10.37 10.611 C 10.317 10.695 10.264 10.685 10.169 10.706 C 9.999 10.706 9.818 10.632 9.787 10.515 C 9.765 10.462 9.797 10.419 9.882 10.356 C 9.967 10.313 10.041 10.335 10.137 10.377 Z  M 11.443 10.738 C 11.379 10.897 11.326 11.226 11.464 11.354 L 11.729 11.078 L 11.857 11.078 C 11.804 10.982 11.517 10.78 11.443 10.738 L 11.443 10.738 Z " fill-rule="evenodd" fill="rgb(0,0,0)"/><path d=" M 11.506 10.855 C 11.453 10.918 11.411 11.088 11.453 11.301 C 11.528 11.216 11.644 11.078 11.74 11.035 C 11.666 10.961 11.591 10.887 11.506 10.855 L 11.506 10.855 Z " fill-rule="evenodd" fill="rgb(255,255,255)"/><path d=" M 10.317 10.908 C 10.052 10.94 9.882 10.961 9.691 11.152 C 9.659 11.194 9.585 11.417 9.638 11.46 C 10.041 11.46 10.37 11.439 10.71 11.683 C 10.859 11.598 11.007 11.502 11.199 11.513 L 11.368 11.386 C 10.901 11.056 10.646 11.003 10.317 10.908 L 10.317 10.908 Z " fill-rule="evenodd" fill="rgb(0,0,0)"/><path d=" M 10.211 10.993 C 10.689 11.056 10.901 11.163 11.305 11.417 L 11.06 11.47 C 10.933 11.46 10.668 11.598 10.71 11.63 C 10.36 11.407 10.169 11.386 9.755 11.364 C 9.744 11.237 9.999 11.056 10.211 10.993 L 10.211 10.993 Z " fill-rule="evenodd" fill="rgb(255,255,255)"/><path d=" M 11.326 11.481 C 11.103 11.449 10.891 11.47 10.636 11.672 C 10.615 11.725 10.657 11.831 10.731 11.906 C 10.838 12.023 10.954 12.129 11.061 12.245 C 11.103 12.277 11.146 12.267 11.188 12.245 L 11.485 11.778 C 11.581 11.736 11.634 11.693 11.719 11.619 C 11.857 11.64 12.005 11.63 12.09 11.608 C 12.133 11.555 12.122 11.534 12.122 11.47 C 12.069 11.332 12.069 11.184 11.963 11.099 C 11.963 11.056 11.793 11.024 11.793 11.067 C 11.666 11.109 11.549 11.247 11.496 11.354 L 11.326 11.481 L 11.326 11.481 Z " fill-rule="evenodd" fill="rgb(204,34,41)"/><path d=" M 11.322 11.506 C 11.214 11.49 11.108 11.487 10.998 11.513 C 10.891 11.539 10.779 11.592 10.657 11.687 C 10.656 11.691 10.656 11.695 10.655 11.699 C 10.655 11.707 10.656 11.715 10.657 11.724 C 10.665 11.774 10.699 11.838 10.749 11.888 L 10.75 11.889 C 10.803 11.947 10.858 12.004 10.914 12.059 C 10.969 12.114 11.024 12.169 11.077 12.227 C 11.092 12.238 11.108 12.241 11.123 12.241 C 11.138 12.24 11.154 12.234 11.171 12.226 L 11.464 11.765 C 11.467 11.762 11.471 11.758 11.475 11.756 C 11.516 11.738 11.555 11.716 11.592 11.69 C 11.627 11.666 11.661 11.637 11.702 11.601 C 11.708 11.597 11.715 11.595 11.722 11.595 L 11.724 11.595 L 11.724 11.595 C 11.762 11.6 11.8 11.604 11.838 11.605 C 11.93 11.608 12.017 11.6 12.076 11.587 C 12.1 11.555 12.099 11.536 12.098 11.502 C 12.098 11.493 12.097 11.484 12.097 11.475 C 12.072 11.409 12.058 11.336 12.039 11.272 L 12.039 11.272 C 12.02 11.211 11.996 11.157 11.947 11.118 C 11.943 11.113 11.939 11.106 11.938 11.099 C 11.938 11.092 11.909 11.083 11.878 11.076 C 11.868 11.074 11.857 11.073 11.846 11.072 C 11.838 11.072 11.83 11.072 11.822 11.073 C 11.819 11.073 11.818 11.063 11.818 11.067 C 11.818 11.076 11.809 11.088 11.801 11.091 L 11.8 11.091 L 11.8 11.091 C 11.784 11.096 11.768 11.104 11.752 11.112 C 11.735 11.121 11.719 11.132 11.704 11.143 C 11.623 11.202 11.555 11.291 11.518 11.365 C 11.516 11.368 11.513 11.371 11.511 11.374 L 11.341 11.501 C 11.335 11.504 11.329 11.505 11.322 11.506 L 11.322 11.506 Z  M 10.987 11.465 C 11.1 11.438 11.209 11.44 11.319 11.455 L 11.476 11.337 C 11.516 11.259 11.589 11.166 11.675 11.103 C 11.692 11.09 11.71 11.078 11.728 11.069 C 11.742 11.061 11.757 11.054 11.773 11.048 C 11.78 11.035 11.794 11.027 11.814 11.024 C 11.824 11.022 11.837 11.022 11.849 11.022 C 11.861 11.023 11.875 11.025 11.888 11.028 C 11.932 11.037 11.974 11.058 11.985 11.085 C 12.038 11.13 12.066 11.191 12.086 11.257 L 12.086 11.257 C 12.106 11.322 12.118 11.391 12.145 11.461 L 12.145 11.461 L 12.145 11.461 L 12.145 11.461 L 12.145 11.461 L 12.145 11.461 L 12.145 11.462 L 12.145 11.462 L 12.145 11.462 L 12.146 11.462 C 12.146 11.462 12.146 11.462 12.145 11.462 C 12.146 11.462 12.146 11.462 12.146 11.462 L 12.146 11.462 L 12.146 11.462 L 12.146 11.462 L 12.146 11.462 C 12.146 11.465 12.147 11.47 12.147 11.471 C 12.147 11.481 12.147 11.491 12.148 11.501 C 12.149 11.548 12.15 11.573 12.11 11.624 C 12.106 11.627 12.101 11.63 12.096 11.633 C 12.034 11.648 11.938 11.658 11.837 11.655 C 11.8 11.654 11.763 11.651 11.726 11.645 C 11.687 11.68 11.654 11.707 11.62 11.731 C 11.585 11.756 11.548 11.777 11.502 11.798 L 11.209 12.259 C 11.206 12.262 11.202 12.265 11.199 12.268 C 11.175 12.28 11.151 12.289 11.126 12.29 C 11.095 12.292 11.065 12.282 11.042 12.262 C 10.99 12.205 10.935 12.15 10.879 12.094 C 10.823 12.038 10.767 11.982 10.713 11.923 C 10.657 11.866 10.617 11.791 10.608 11.732 L 10.608 11.732 C 10.606 11.72 10.605 11.708 10.606 11.697 C 10.606 11.685 10.609 11.674 10.613 11.664 L 10.613 11.663 L 10.613 11.663 C 10.615 11.659 10.618 11.656 10.62 11.653 C 10.751 11.549 10.871 11.492 10.987 11.465 L 10.987 11.465 Z " fill="rgb(0,0,0)"/><path d=" M 11.591 11.46 C 11.623 11.555 11.559 11.386 11.496 11.375 C 11.39 11.364 11.358 11.386 11.347 11.428 C 11.294 11.428 11.326 11.577 11.39 11.63 C 11.421 11.661 11.464 11.693 11.506 11.725 C 11.591 11.757 11.676 11.704 11.676 11.598 L 11.591 11.46 Z " fill-rule="evenodd" fill="rgb(204,34,41)"/><path d=" M 11.603 11.498 L 11.603 11.498 C 11.594 11.501 11.589 11.492 11.582 11.479 C 11.565 11.451 11.528 11.39 11.494 11.384 C 11.443 11.379 11.41 11.381 11.389 11.39 C 11.37 11.398 11.361 11.412 11.356 11.43 L 11.354 11.437 L 11.347 11.437 C 11.344 11.437 11.342 11.438 11.339 11.44 L 11.339 11.44 C 11.334 11.444 11.331 11.453 11.33 11.465 C 11.329 11.48 11.331 11.497 11.336 11.515 C 11.346 11.555 11.367 11.599 11.396 11.622 L 11.396 11.623 L 11.396 11.623 C 11.412 11.639 11.43 11.654 11.45 11.67 C 11.47 11.686 11.49 11.702 11.511 11.717 C 11.526 11.722 11.541 11.725 11.555 11.725 C 11.578 11.725 11.599 11.718 11.617 11.706 C 11.634 11.694 11.649 11.676 11.657 11.653 C 11.663 11.637 11.666 11.62 11.667 11.6 L 11.603 11.498 L 11.603 11.498 Z  M 11.497 11.366 C 11.524 11.37 11.55 11.398 11.57 11.426 L 11.556 11.385 L 11.599 11.455 L 11.684 11.593 L 11.686 11.595 L 11.686 11.598 C 11.686 11.621 11.682 11.641 11.675 11.659 C 11.666 11.684 11.649 11.706 11.628 11.722 C 11.607 11.736 11.582 11.744 11.555 11.744 C 11.538 11.744 11.521 11.741 11.503 11.734 L 11.502 11.734 L 11.501 11.733 C 11.479 11.716 11.457 11.7 11.438 11.685 C 11.419 11.67 11.401 11.654 11.383 11.637 C 11.352 11.611 11.328 11.563 11.317 11.52 C 11.313 11.502 11.31 11.483 11.311 11.464 L 11.311 11.464 L 11.311 11.464 L 11.311 11.464 L 11.497 11.366 Z  M 11.497 11.366 L 11.497 11.366 L 11.497 11.366 Z  M 11.382 11.373 C 11.406 11.363 11.442 11.36 11.497 11.365 L 11.382 11.373 Z  M 11.34 11.419 C 11.346 11.398 11.361 11.381 11.382 11.373 L 11.34 11.419 Z  M 11.328 11.425 C 11.328 11.425 11.328 11.425 11.328 11.425 C 11.331 11.422 11.336 11.42 11.34 11.419 L 11.328 11.425 Z  M 11.311 11.464 C 11.312 11.447 11.318 11.432 11.328 11.425 L 11.311 11.464 Z " fill="rgb(0,0,0)"/><path d=" M 11.336 11.598 C 11.177 11.598 11.092 11.64 11.114 11.768 L 11.209 11.81 C 11.156 11.789 11.135 11.757 11.156 11.693 C 11.198 11.619 11.273 11.63 11.336 11.598 L 11.336 11.598 Z  M 11.613 11.449 C 11.697 11.311 11.782 11.269 11.878 11.354 L 11.857 11.46 C 11.867 11.396 11.857 11.375 11.782 11.343 C 11.697 11.343 11.666 11.417 11.613 11.449 L 11.613 11.449 Z  M 13.109 11.545 L 13.343 11.332 C 13.396 10.972 13.428 10.77 13.524 10.419 C 13.64 10.048 13.683 9.91 13.831 9.697 C 13.948 9.528 13.884 9.506 13.852 9.167 C 13.874 9.262 13.799 9.411 13.895 8.933 C 13.895 8.859 13.906 8.816 13.884 8.763 C 13.874 8.721 13.821 8.678 13.767 8.604 C 13.757 8.53 13.767 8.434 13.789 8.402 C 13.895 8.307 14.075 8.243 14.181 8.402 C 14.277 8.434 14.309 8.615 14.277 8.869 C 14.319 9.039 14.383 8.965 14.415 8.933 C 14.765 8.636 15.148 8.424 15.636 8.413 C 15.891 8.402 16.018 8.434 16.018 8.636 C 15.976 8.763 15.912 8.869 15.774 8.912 C 15.583 8.912 15.445 8.944 15.254 8.901 C 14.956 8.922 14.755 9.05 15.105 8.965 C 15.286 8.944 15.339 8.976 15.392 9.082 C 15.381 9.252 15.286 9.4 15.19 9.443 C 15.318 9.485 15.392 9.506 15.318 9.655 C 15.36 9.708 15.381 9.825 15.36 9.888 C 15.339 9.931 15.296 10.154 15.063 10.175 C 14.999 10.218 14.872 10.196 14.882 10.08 C 14.861 10.027 14.776 10.037 14.755 10.048 C 14.627 10.196 14.564 10.186 14.383 10.165 C 14.351 10.812 14.394 10.993 14.372 11.301 C 14.351 11.502 14.383 11.725 14.319 11.927 C 14.298 12.001 14.288 11.98 14.245 12.065 C 14.139 12.129 13.905 12.383 13.672 12.564 L 13.566 12.468 C 13.831 12.309 14.15 12.086 14.277 11.874 C 14.341 11.619 14.309 11.523 14.341 11.152 L 14.33 10.324 C 14.341 10.239 14.341 10.122 14.288 10.069 C 14.351 10.09 14.362 10.111 14.458 10.101 C 14.617 10.069 14.659 10.069 14.702 9.984 C 14.596 9.963 14.585 9.857 14.691 9.719 C 14.553 9.612 14.479 9.655 14.521 9.389 C 14.564 9.124 15.264 9.145 15.105 9.145 C 14.956 9.145 14.638 9.262 14.585 9.379 C 14.542 9.496 14.532 9.655 14.787 9.612 C 15.031 9.57 15.318 9.198 15.296 9.209 C 15.275 9.22 15.36 9.103 15.254 9.028 C 15.02 8.986 14.925 9.05 14.829 9.06 C 14.829 8.943 14.999 8.912 15.116 8.859 L 15.689 8.837 C 15.816 8.806 15.912 8.752 15.933 8.657 C 15.965 8.54 15.891 8.455 15.604 8.476 C 15.318 8.476 15.052 8.593 14.776 8.721 C 14.585 8.848 14.415 8.922 14.362 9.039 C 14.383 9.156 14.362 9.251 14.362 9.368 C 14.351 9.411 14.309 9.517 14.266 9.57 L 14.341 9.336 C 14.373 9.177 14.351 9.05 14.277 8.943 L 14.256 8.869 C 14.256 8.795 14.288 8.476 14.15 8.423 C 14.097 8.317 13.884 8.328 13.852 8.413 C 13.725 8.455 13.767 8.689 13.895 8.795 C 13.927 9.198 13.831 9.018 13.905 8.986 C 13.852 9.124 13.874 9.124 13.852 9.135 C 13.842 9.082 13.842 9.262 13.916 9.442 C 13.927 9.718 13.895 9.623 13.895 9.687 C 13.651 10.058 13.545 10.494 13.481 10.929 C 13.353 11.513 13.364 11.576 13.428 11.693 C 13.343 11.576 13.343 11.502 13.343 11.417 L 13.162 11.619 L 13.109 11.545 L 13.109 11.545 Z " fill-rule="evenodd" fill="rgb(0,0,0)"/><path d=" M 13.757 9.825 C 13.799 9.729 13.916 9.698 13.884 9.602 C 13.895 9.549 13.916 9.506 13.874 9.4 C 13.778 9.199 13.874 9.029 13.863 9.05 L 13.874 9.029 C 13.863 9.029 13.906 8.795 13.831 8.731 C 13.746 8.646 13.746 8.519 13.768 8.413 C 13.789 8.328 13.863 8.254 14.022 8.264 C 14.16 8.307 14.245 8.424 14.266 8.53 L 14.256 8.625 C 14.203 8.477 14.086 8.317 13.959 8.349 C 13.799 8.37 13.789 8.509 13.821 8.625 C 13.895 8.721 13.895 8.816 13.916 8.869 C 13.895 8.986 13.905 9.05 13.874 9.103 C 13.821 9.199 13.884 9.284 13.906 9.39 C 13.959 9.528 13.916 9.485 13.937 9.581 C 13.916 9.772 13.821 9.751 13.778 9.878 L 13.757 9.825 L 13.757 9.825 Z " fill-rule="evenodd" fill="rgb(0,0,0)"/><path d=" M 15.233 9.857 C 15.201 9.899 15.02 9.974 14.957 10.005 C 14.893 10.037 14.925 10.111 15.01 10.133 C 15.084 10.144 15.148 10.122 15.19 10.08 C 15.275 10.005 15.286 9.974 15.307 9.952 C 15.339 9.846 15.339 9.74 15.233 9.857 Z  M 15.158 9.528 C 15.137 9.506 14.766 9.719 14.723 9.804 C 14.681 9.889 14.681 9.92 14.84 9.931 C 14.946 9.931 15.02 9.889 15.105 9.836 C 15.222 9.761 15.265 9.74 15.275 9.687 C 15.296 9.581 15.254 9.485 15.158 9.528 L 15.158 9.528 Z " fill-rule="evenodd" fill="rgb(255,255,255)"/><path d=" M 10.848 13.18 C 10.583 12.819 10.317 12.479 10.052 12.192 C 9.84 11.991 9.595 11.906 9.33 11.948 C 9.564 11.842 9.733 11.884 9.967 11.969 L 10.572 12.628 L 10.965 13.137 L 10.848 13.18 L 10.848 13.18 Z  M 9.351 9.613 C 9.755 9.135 10.211 8.827 10.721 8.678 L 10.413 8.254 C 10.721 8.009 10.742 7.691 10.572 7.319 C 10.254 7.012 9.924 6.969 9.563 7.203 C 9.468 7.256 9.394 7.362 9.351 7.521 L 9.351 7.723 C 9.404 7.755 9.447 7.797 9.489 7.84 C 9.468 7.723 9.436 7.564 9.478 7.457 C 9.659 7.118 10.041 7.043 10.476 7.341 C 10.614 7.553 10.625 7.68 10.583 7.872 C 10.54 8.031 10.445 8.158 10.243 8.116 L 10.625 8.625 C 10.126 8.784 9.712 9.06 9.351 9.432 L 9.351 9.613 L 9.351 9.613 L 9.351 9.613 Z  M 9.033 10.058 C 9.127 9.901 9.233 9.752 9.351 9.613 L 9.351 9.432 C 9.245 9.538 9.139 9.666 9.043 9.793 L 8.693 9.252 L 8.799 9.56 C 8.693 9.729 8.534 9.772 8.332 9.697 C 7.992 9.517 7.929 8.88 8.47 8.784 C 8.29 8.593 8.237 8.381 8.29 8.094 C 8.375 7.861 8.523 7.68 8.884 7.595 C 9.033 7.585 9.203 7.627 9.351 7.723 L 9.351 7.521 C 9.341 7.542 9.341 7.564 9.33 7.585 C 9.043 7.479 8.757 7.511 8.491 7.659 C 8.173 7.988 8.109 8.349 8.279 8.731 C 7.854 8.965 7.812 9.549 8.237 9.814 C 8.46 9.91 8.651 9.835 8.831 9.676 L 9.033 10.058 L 9.033 10.058 Z " fill-rule="evenodd" fill="rgb(0,0,0)"/></g></g></svg>