<?xml version="1.0" encoding="UTF-8" standalone="no"?><!-- Generator: Gravit.io --><svg xmlns="http://www.w3.org/2000/svg" xmlns:xlink="http://www.w3.org/1999/xlink" style="isolation:isolate" viewBox="0 0 24 24" width="24pt" height="24pt"><defs><clipPath id="_clipPath_1T7ItEJvwn0nM4ewlWKFk6Hr5DsjdGfL"><rect width="24" height="24"/></clipPath></defs><g clip-path="url(#_clipPath_1T7ItEJvwn0nM4ewlWKFk6Hr5DsjdGfL)"><path d=" M 18.086 16.765 C 19.727 15.086 20.828 12.887 20.828 10.373 C 20.828 5.501 16.872 1.545 12 1.545 C 7.128 1.545 3.172 5.501 3.172 10.373 C 3.172 12.917 4.177 15.038 5.975 16.823 L 5.975 16.823 L 11.641 23.076 L 18.097 16.765 L 18.086 16.765 Z " fill="rgb(0,0,0)"/><g><g><path d=" M 15.778 8.417 L 15.778 8.144 L 15.778 7.869 C 16.064 7.862 16.124 7.779 16.178 7.705 C 16.23 7.626 16.234 7.524 16.234 7.523 L 16.234 7.521 C 16.236 6.838 15.804 6.186 15.04 5.687 C 14.279 5.192 13.203 4.875 12.012 4.876 C 10.821 4.875 9.744 5.192 8.984 5.687 C 8.22 6.186 7.789 6.838 7.791 7.521 L 7.791 7.523 C 7.792 7.523 7.794 7.626 7.845 7.705 C 7.9 7.779 7.961 7.862 8.246 7.869 L 15.778 7.869 L 15.778 8.144 L 15.778 8.417 L 8.246 8.417 C 7.815 8.425 7.51 8.218 7.379 7.993 C 7.245 7.772 7.243 7.571 7.242 7.523 L 7.242 7.521 C 7.277 5.658 9.457 4.332 12.012 4.327 C 14.567 4.332 16.747 5.658 16.782 7.521 L 16.782 7.523 C 16.781 7.571 16.779 7.772 16.644 7.993 C 16.516 8.214 16.22 8.418 15.802 8.418 C 15.794 8.418 15.786 8.417 15.778 8.417 Z " fill="rgb(85,163,53)"/></g><g><path d=" M 9.044 14.853 C 8.352 14.847 7.917 14.792 7.597 14.534 C 7.277 14.259 7.243 13.869 7.242 13.448 L 7.242 13.447 C 7.243 13.396 7.248 13.209 7.392 13.01 C 7.536 12.808 7.83 12.647 8.246 12.652 L 15.778 12.652 L 15.778 12.925 L 15.778 13.2 L 8.246 13.2 C 7.947 13.205 7.873 13.286 7.833 13.335 C 7.798 13.38 7.791 13.43 7.79 13.442 L 7.79 13.447 L 7.79 13.448 C 7.79 13.857 7.843 14.032 7.949 14.114 C 8.055 14.215 8.384 14.31 9.044 14.304 L 14.691 14.304 C 15.496 14.308 15.903 14.196 16.051 14.074 C 16.19 13.968 16.23 13.817 16.234 13.461 C 16.234 13.458 16.234 13.452 16.233 13.447 C 16.231 13.445 16.234 13.438 16.229 13.415 C 16.222 13.392 16.211 13.362 16.192 13.335 C 16.15 13.286 16.078 13.205 15.778 13.2 L 15.778 12.925 L 15.778 12.652 C 16.195 12.647 16.489 12.808 16.633 13.01 C 16.76 13.185 16.777 13.353 16.781 13.424 C 16.782 13.425 16.782 13.43 16.782 13.436 L 16.783 13.448 C 16.784 13.825 16.74 14.237 16.385 14.509 C 16.036 14.766 15.534 14.848 14.691 14.853 L 9.044 14.853 Z " fill="rgb(85,163,53)"/></g><g><path d=" M 8.083 12.124 C 7.631 12.123 7.245 11.773 7.243 11.313 C 7.245 10.852 7.631 10.504 8.083 10.502 L 15.942 10.502 C 16.394 10.504 16.78 10.852 16.782 11.313 C 16.78 11.773 16.394 12.123 15.942 12.124 L 8.083 12.124 Z  M 7.79 11.313 C 7.79 11.445 7.91 11.573 8.083 11.574 L 15.942 11.574 C 16.113 11.573 16.234 11.445 16.234 11.313 C 16.234 11.18 16.113 11.052 15.942 11.05 L 8.083 11.05 C 7.91 11.052 7.79 11.18 7.79 11.313 Z " fill="rgb(85,163,53)"/></g><g><path d=" M 11.21 9.59 C 11.131 9.5 11.128 9.417 10.863 9.4 C 10.688 9.4 10.59 9.499 10.548 9.548 C 10.536 9.561 10.537 9.561 10.534 9.567 C 10.516 9.598 10.273 9.972 9.74 9.977 C 9.234 9.992 8.969 9.61 8.961 9.59 C 8.882 9.499 8.88 9.417 8.615 9.4 C 8.439 9.4 8.342 9.499 8.299 9.548 C 8.288 9.561 8.288 9.561 8.285 9.567 C 8.268 9.598 8.025 9.972 7.492 9.977 C 7.34 9.977 7.217 9.854 7.217 9.704 C 7.217 9.551 7.34 9.429 7.492 9.429 C 7.674 9.429 7.771 9.333 7.811 9.287 C 7.822 9.276 7.821 9.276 7.818 9.281 C 7.835 9.253 8.073 8.858 8.615 8.85 C 9.124 8.834 9.385 9.231 9.393 9.252 C 9.453 9.318 9.473 9.413 9.74 9.429 C 9.922 9.429 10.019 9.333 10.059 9.287 C 10.064 9.282 10.066 9.28 10.067 9.279 C 10.095 9.233 10.334 8.858 10.863 8.85 C 11.371 8.834 11.632 9.23 11.64 9.252 C 11.701 9.318 11.721 9.413 11.988 9.429 C 12.169 9.429 12.266 9.333 12.306 9.287 C 12.311 9.284 12.313 9.281 12.314 9.28 C 12.34 9.237 12.58 8.858 13.111 8.85 C 13.62 8.834 13.881 9.231 13.889 9.252 C 13.949 9.318 13.968 9.413 14.234 9.429 C 14.386 9.429 14.509 9.551 14.509 9.704 C 14.509 9.854 14.386 9.977 14.234 9.977 C 13.73 9.992 13.465 9.61 13.457 9.59 C 13.379 9.499 13.376 9.417 13.111 9.4 C 12.935 9.4 12.837 9.499 12.795 9.548 C 12.784 9.561 12.785 9.562 12.781 9.567 C 12.763 9.596 12.521 9.972 11.988 9.977 C 11.977 9.977 11.967 9.978 11.957 9.978 C 11.472 9.978 11.216 9.608 11.21 9.59 Z " fill="rgb(85,163,53)"/></g><g><path d=" M 15.705 9.59 C 15.625 9.499 15.623 9.417 15.358 9.4 C 15.183 9.4 15.085 9.499 15.043 9.548 C 15.032 9.561 15.032 9.561 15.029 9.567 C 15.011 9.596 14.769 9.972 14.234 9.977 C 14.084 9.977 13.962 9.854 13.962 9.704 C 13.962 9.551 14.084 9.429 14.234 9.429 C 14.418 9.429 14.515 9.333 14.555 9.287 C 14.565 9.276 14.565 9.276 14.562 9.281 C 14.578 9.253 14.817 8.858 15.358 8.851 C 15.867 8.834 16.128 9.231 16.137 9.253 C 16.195 9.317 16.217 9.413 16.483 9.429 C 16.635 9.429 16.757 9.551 16.757 9.704 C 16.757 9.854 16.635 9.977 16.483 9.977 C 16.473 9.977 16.464 9.978 16.454 9.978 C 15.967 9.977 15.712 9.61 15.705 9.59 Z " fill="rgb(85,163,53)"/></g></g></g></svg>