<?xml version="1.0" encoding="UTF-8" standalone="no"?><!-- Generator: Gravit.io --><svg xmlns="http://www.w3.org/2000/svg" xmlns:xlink="http://www.w3.org/1999/xlink" style="isolation:isolate" viewBox="0 0 24 24" width="24pt" height="24pt"><defs><clipPath id="_clipPath_KdVWBWAKy6RDJJWd9Oq4mzLtpdaKsO90"><rect width="24" height="24"/></clipPath></defs><g clip-path="url(#_clipPath_KdVWBWAKy6RDJJWd9Oq4mzLtpdaKsO90)"><ellipse vector-effect="non-scaling-stroke" cx="11.951086596915527" cy="22.399278846153855" rx="2.926562500000001" ry="0.907984775641026" fill="rgb(162,162,162)" fill-opacity="0.7"/><path d=" M 3.847 8.619 C 3.847 4.092 7.487 0.428 11.972 0.428 C 16.464 0.428 20.104 4.092 20.104 8.619 C 20.104 11.048 19.049 13.239 17.374 14.739 C 17.281 14.819 14.089 17.812 11.952 22.399 C 11.148 19.153 8.028 16.033 6.597 14.759 C 4.909 13.252 3.847 11.062 3.847 8.619 Z " fill="rgb(0,0,0)"/><circle vector-effect="non-scaling-stroke" cx="11.963162150349653" cy="8.666947115384612" r="6.078245192307694" fill="rgb(255,255,255)"/><g><g><path d=" M 14.846 7.63 L 14.846 7.424 L 14.846 7.217 C 15.061 7.212 15.107 7.149 15.148 7.093 C 15.187 7.034 15.19 6.957 15.189 6.957 L 15.189 6.955 C 15.191 6.44 14.866 5.949 14.29 5.573 C 13.717 5.2 12.906 4.961 12.009 4.962 C 11.112 4.961 10.3 5.2 9.728 5.573 C 9.152 5.949 8.828 6.44 8.829 6.955 L 8.829 6.957 C 8.83 6.957 8.832 7.034 8.87 7.093 C 8.912 7.149 8.957 7.212 9.172 7.217 L 14.846 7.217 L 14.846 7.424 L 14.846 7.63 L 9.172 7.63 C 8.847 7.636 8.617 7.48 8.519 7.311 C 8.418 7.144 8.417 6.993 8.416 6.957 L 8.416 6.955 C 8.442 5.551 10.084 4.553 12.009 4.549 C 13.934 4.553 15.576 5.551 15.603 6.955 L 15.603 6.957 C 15.602 6.993 15.6 7.144 15.498 7.311 C 15.402 7.477 15.179 7.631 14.864 7.631 C 14.858 7.631 14.853 7.63 14.846 7.63 Z " fill="rgb(85,163,53)"/></g><g><path d=" M 9.773 12.478 C 9.251 12.474 8.924 12.432 8.683 12.238 C 8.442 12.031 8.416 11.737 8.416 11.42 L 8.416 11.419 C 8.416 11.381 8.42 11.24 8.528 11.09 C 8.637 10.938 8.858 10.817 9.172 10.82 L 14.846 10.82 L 14.846 11.026 L 14.846 11.233 L 9.172 11.233 C 8.946 11.237 8.891 11.298 8.861 11.335 C 8.834 11.369 8.829 11.406 8.829 11.416 L 8.829 11.419 L 8.829 11.42 C 8.828 11.728 8.869 11.86 8.948 11.922 C 9.028 11.998 9.276 12.069 9.773 12.065 L 14.027 12.065 C 14.634 12.068 14.94 11.984 15.052 11.891 C 15.157 11.812 15.187 11.698 15.19 11.43 C 15.19 11.427 15.19 11.423 15.189 11.419 C 15.188 11.418 15.19 11.412 15.186 11.395 C 15.18 11.378 15.173 11.355 15.158 11.335 C 15.126 11.298 15.072 11.237 14.846 11.233 L 14.846 11.026 L 14.846 10.82 C 15.16 10.817 15.382 10.938 15.49 11.09 C 15.586 11.222 15.599 11.349 15.602 11.402 C 15.603 11.403 15.603 11.406 15.603 11.411 L 15.603 11.42 C 15.604 11.704 15.571 12.014 15.303 12.219 C 15.04 12.413 14.662 12.475 14.027 12.478 L 9.773 12.478 Z " fill="rgb(85,163,53)"/></g><g><path d=" M 9.049 10.422 C 8.708 10.422 8.418 10.158 8.416 9.812 C 8.418 9.465 8.708 9.202 9.049 9.201 L 14.97 9.201 C 15.31 9.202 15.601 9.465 15.603 9.812 C 15.601 10.158 15.31 10.422 14.97 10.422 L 9.049 10.422 Z  M 8.829 9.812 C 8.829 9.911 8.919 10.008 9.049 10.009 L 14.97 10.009 C 15.099 10.008 15.19 9.911 15.19 9.812 C 15.19 9.711 15.099 9.615 14.97 9.614 L 9.049 9.614 C 8.919 9.615 8.829 9.711 8.829 9.812 Z " fill="rgb(85,163,53)"/></g><g><path d=" M 11.405 8.514 C 11.345 8.446 11.343 8.383 11.144 8.37 C 11.011 8.37 10.938 8.445 10.906 8.482 C 10.897 8.491 10.898 8.491 10.895 8.497 C 10.882 8.519 10.699 8.801 10.297 8.805 C 9.916 8.817 9.716 8.529 9.711 8.514 C 9.651 8.445 9.649 8.383 9.45 8.37 C 9.317 8.37 9.244 8.445 9.212 8.482 C 9.204 8.491 9.204 8.491 9.202 8.497 C 9.189 8.519 9.006 8.801 8.604 8.805 C 8.49 8.805 8.397 8.712 8.397 8.599 C 8.397 8.485 8.49 8.392 8.604 8.392 C 8.741 8.392 8.814 8.32 8.845 8.286 C 8.852 8.277 8.852 8.277 8.849 8.281 C 8.862 8.26 9.042 7.962 9.45 7.956 C 9.833 7.944 10.03 8.243 10.036 8.259 C 10.081 8.308 10.096 8.38 10.297 8.392 C 10.435 8.392 10.508 8.32 10.538 8.286 C 10.542 8.282 10.543 8.28 10.544 8.279 C 10.565 8.245 10.745 7.962 11.144 7.956 C 11.526 7.944 11.723 8.243 11.729 8.259 C 11.775 8.309 11.789 8.38 11.991 8.392 C 12.127 8.392 12.2 8.32 12.231 8.286 C 12.234 8.283 12.236 8.281 12.237 8.28 C 12.256 8.248 12.437 7.962 12.837 7.956 C 13.22 7.944 13.417 8.243 13.423 8.259 C 13.468 8.308 13.483 8.38 13.683 8.392 C 13.798 8.392 13.89 8.485 13.89 8.599 C 13.89 8.712 13.798 8.805 13.683 8.805 C 13.303 8.817 13.103 8.529 13.098 8.514 C 13.039 8.445 13.036 8.383 12.837 8.37 C 12.704 8.37 12.631 8.445 12.599 8.482 C 12.591 8.491 12.591 8.493 12.589 8.497 C 12.575 8.518 12.393 8.801 11.991 8.805 C 11.983 8.805 11.975 8.806 11.967 8.806 C 11.602 8.806 11.41 8.527 11.405 8.514 Z " fill="rgb(85,163,53)"/></g><g><path d=" M 14.791 8.514 C 14.731 8.445 14.729 8.383 14.53 8.37 C 14.398 8.37 14.324 8.445 14.292 8.482 C 14.284 8.491 14.284 8.491 14.282 8.497 C 14.268 8.518 14.086 8.801 13.683 8.805 C 13.57 8.805 13.478 8.712 13.478 8.599 C 13.478 8.485 13.57 8.392 13.683 8.392 C 13.822 8.392 13.894 8.32 13.925 8.286 C 13.932 8.277 13.932 8.277 13.93 8.281 C 13.942 8.26 14.122 7.962 14.53 7.957 C 14.913 7.944 15.11 8.243 15.116 8.26 C 15.16 8.308 15.177 8.38 15.378 8.392 C 15.492 8.392 15.584 8.485 15.584 8.599 C 15.584 8.712 15.492 8.805 15.378 8.805 C 15.37 8.805 15.363 8.806 15.356 8.806 C 14.989 8.805 14.797 8.529 14.791 8.514 Z " fill="rgb(85,163,53)"/></g></g></g></svg>