<?xml version="1.0" encoding="UTF-8" standalone="no"?><!-- Generator: Gravit.io --><svg xmlns="http://www.w3.org/2000/svg" xmlns:xlink="http://www.w3.org/1999/xlink" style="isolation:isolate" viewBox="0 0 400 520" width="400pt" height="520pt"><defs><clipPath id="_clipPath_j6tk3XA453E0NCtKDRstvFZrujfbNhSJ"><rect width="400" height="520"/></clipPath></defs><g clip-path="url(#_clipPath_j6tk3XA453E0NCtKDRstvFZrujfbNhSJ)"><g><defs><filter id="dK9F3098i5XUmZRRZzhfUwZK0GMcc8P4" x="-200%" y="-200%" width="400%" height="400%" filterUnits="objectBoundingBox" color-interpolation-filters="sRGB"><feGaussianBlur xmlns="http://www.w3.org/2000/svg" stdDeviation="4.293609062839028"/></filter></defs><g filter="url(#dK9F3098i5XUmZRRZzhfUwZK0GMcc8P4)"><ellipse vector-effect="non-scaling-stroke" cx="198.91361582044095" cy="490" rx="65" ry="20.166666666666686" fill="rgb(162,162,162)" fill-opacity="0.7"/></g><defs><filter id="HUWBnyccNJSo6r9xtpquqJ4LGKLrf7bN" x="-200%" y="-200%" width="400%" height="400%" filterUnits="objectBoundingBox" color-interpolation-filters="sRGB"><feGaussianBlur xmlns="http://www.w3.org/2000/svg" stdDeviation="0"/></filter></defs><g filter="url(#HUWBnyccNJSo6r9xtpquqJ4LGKLrf7bN)"><path d=" M 18.914 183.931 C 18.914 83.382 99.774 2 199.384 2 C 299.14 2 380 83.382 380 183.931 C 380 237.891 356.562 286.544 319.355 319.863 C 317.304 321.633 246.405 388.124 198.944 490 C 181.073 417.906 111.785 348.613 79.998 320.306 C 42.498 286.839 18.914 238.186 18.914 183.931 Z  M 311.005 183.931" fill="rgb(94,75,168)"/></g></g><circle vector-effect="non-scaling-stroke" cx="199.18181818181824" cy="184.99999999999997" r="135" fill="rgb(255,255,255)"/><circle vector-effect="non-scaling-stroke" cx="198.99999999999977" cy="184.3333333333332" r="120.33333333333336" fill="rgb(94,75,168)"/><g><path d=" M 267 216.442 C 267 232.754 253.725 245.917 237.412 245.917 L 250.125 258.517 L 250.125 262.792 L 233.25 262.792 L 216.375 245.917 L 184.538 245.917 L 167.663 262.792 L 148.875 262.792 L 148.875 258.517 L 161.475 245.917 C 145.275 245.917 132 232.642 132 216.442 L 132 139.042 C 132 109.454 165.75 105.292 199.5 105.292 C 236.85 105.292 267 109.567 267 139.042 L 267 216.442 Z " fill="rgb(255,255,255)"/><circle vector-effect="non-scaling-stroke" cx="238.87499999999966" cy="217.79166666666683" r="11.25" fill="rgb(94,75,168)"/><circle vector-effect="non-scaling-stroke" cx="160.1250000000003" cy="217.79166666666683" r="11.25" fill="rgb(94,75,168)"/><path d=" M 143.363 139.042 L 255.863 139.042 L 255.863 195.292 L 143.363 195.292 L 143.363 139.042 Z " fill="rgb(94,75,168)"/></g></g></svg>