<?xml version="1.0" encoding="UTF-8" standalone="no"?><!-- Generator: Gravit.io --><svg xmlns="http://www.w3.org/2000/svg" xmlns:xlink="http://www.w3.org/1999/xlink" style="isolation:isolate" viewBox="0 0 24 24" width="24pt" height="24pt"><defs><clipPath id="_clipPath_ZFRpzirO6QyNtRNFzVmnisO2u0kqgtxO"><rect width="24" height="24"/></clipPath></defs><g clip-path="url(#_clipPath_ZFRpzirO6QyNtRNFzVmnisO2u0kqgtxO)"><path d=" M 18.086 16.765 C 19.727 15.086 20.828 12.887 20.828 10.373 C 20.828 5.501 16.872 1.545 12 1.545 C 7.128 1.545 3.172 5.501 3.172 10.373 C 3.172 12.917 4.177 15.038 5.975 16.823 L 5.975 16.823 L 11.641 23.076 L 18.097 16.765 L 18.086 16.765 Z " fill="rgb(202,178,221)"/><g><g><g><path d=" M 12.078 3.983 C 12.049 3.983 12.021 3.985 11.992 3.985 C 11.138 3.994 10.274 4.194 9.478 4.574 C 9.478 4.574 9.601 4.542 9.686 4.544 C 9.699 4.544 9.709 4.544 9.719 4.545 C 9.801 4.559 9.879 4.6 9.945 4.651 C 10.038 4.723 10.072 4.859 10.173 4.92 C 10.254 4.97 10.357 4.978 10.452 4.983 C 10.657 4.993 10.858 4.92 11.063 4.91 C 11.268 4.898 11.478 4.891 11.683 4.92 C 11.986 4.964 12.285 5.045 12.567 5.163 C 12.898 5.305 13.208 5.499 13.499 5.711 C 13.784 5.919 14.035 6.171 14.29 6.416 C 14.657 6.769 14.954 7.2 15.352 7.52 C 15.515 7.651 15.683 7.762 15.89 7.847 C 16.184 7.969 16.822 8.056 16.822 8.056 L 17.089 8.123 C 17.227 8.146 17.354 8.179 17.465 8.218 L 17.471 8.219 C 17.573 8.256 17.663 8.3 17.738 8.349 C 17.533 7.668 17.174 7.019 16.781 6.439 C 15.794 4.984 13.848 3.996 12.078 3.983 Z " fill="rgb(158,127,186)"/></g><g><path d=" M 8.491 5.166 C 7.964 5.556 7.489 6.035 7.102 6.605 C 6.506 7.479 6.074 8.546 6.074 9.611 L 6.074 14.557 C 6.074 14.667 6.134 14.722 6.212 14.722 L 7.711 14.722 C 7.513 14.625 7.373 14.495 7.295 14.34 C 6.718 13.18 8.563 11.134 11.431 9.563 C 11.553 9.473 11.669 9.379 11.666 9.342 C 11.661 9.295 11.475 9.371 11.475 9.371 C 10.107 9.914 8.901 10.768 7.796 11.694 C 7.796 11.694 7.575 10.701 7.482 10.213 C 7.424 9.911 7.348 9.611 7.321 9.306 C 7.296 9.023 7.321 8.456 7.321 8.456 C 7.321 8.456 7.334 7.886 7.42 7.607 C 7.509 7.316 7.845 6.767 7.845 6.767 C 7.845 6.767 8.12 6.381 8.335 6.166 C 8.389 6.111 8.444 6.006 8.447 5.924 C 8.448 5.858 8.404 5.817 8.389 5.752 C 8.369 5.668 8.348 5.567 8.351 5.48 C 8.354 5.413 8.367 5.358 8.396 5.298 C 8.417 5.255 8.459 5.204 8.491 5.166 Z " fill="rgb(104,42,143)"/></g><g><path d=" M 17.923 9.602 C 17.477 10.709 15.971 12.214 13.79 13.385 C 12.53 14.061 11.384 14.491 10.418 14.722 L 17.79 14.722 C 17.88 14.722 17.926 14.678 17.926 14.56 C 17.925 13.082 17.924 11.329 17.923 9.602 L 17.923 9.602 Z " fill="rgb(104,42,143)"/></g><g><path d=" M 12.361 11.23 C 12.361 11.23 12.922 12.304 12.053 12.963 C 10.866 13.866 9.99 12.905 9.99 12.905 C 10.575 12.283 11.399 11.687 12.361 11.23 Z  M 16.209 9.492 C 15.411 9.491 13.797 10.054 12.098 11.015 C 9.604 12.428 8.48 13.837 8.911 14.099 C 9.488 14.447 11.339 14.29 13.925 12.796 C 14.987 12.182 16.985 10.7 16.724 9.722 C 16.681 9.566 16.499 9.492 16.209 9.492 Z " fill="rgb(104,42,143)"/></g></g></g></g></svg>