<?xml version="1.0" encoding="UTF-8" standalone="no"?><!-- Generator: Gravit.io --><svg xmlns="http://www.w3.org/2000/svg" xmlns:xlink="http://www.w3.org/1999/xlink" style="isolation:isolate" viewBox="0 0 400 520" width="400pt" height="520pt"><defs><clipPath id="_clipPath_9n5Mgc2SbJHGejvXsGZnWlVQnL8JceQD"><rect width="400" height="520"/></clipPath></defs><g clip-path="url(#_clipPath_9n5Mgc2SbJHGejvXsGZnWlVQnL8JceQD)"><g><defs><filter id="OQityC6cuXbqM2Vc6ANDM9zs9tEMInh8" x="-200%" y="-200%" width="400%" height="400%" filterUnits="objectBoundingBox" color-interpolation-filters="sRGB"><feGaussianBlur xmlns="http://www.w3.org/2000/svg" stdDeviation="4.293609062839028"/></filter></defs><g filter="url(#OQityC6cuXbqM2Vc6ANDM9zs9tEMInh8)"><ellipse vector-effect="non-scaling-stroke" cx="198.91361582044095" cy="490" rx="65" ry="20.166666666666686" fill="rgb(162,162,162)" fill-opacity="0.7"/></g><defs><filter id="WnRkBGddmmZw5pOwZ6LYGw5iMIq7bJSR" x="-200%" y="-200%" width="400%" height="400%" filterUnits="objectBoundingBox" color-interpolation-filters="sRGB"><feGaussianBlur xmlns="http://www.w3.org/2000/svg" stdDeviation="0"/></filter></defs><g filter="url(#WnRkBGddmmZw5pOwZ6LYGw5iMIq7bJSR)"><path d=" M 18.914 183.931 C 18.914 83.382 99.774 2 199.384 2 C 299.14 2 380 83.382 380 183.931 C 380 237.891 356.562 286.544 319.355 319.863 C 317.304 321.633 246.405 388.124 198.944 490 C 181.073 417.906 111.785 348.613 79.998 320.306 C 42.498 286.839 18.914 238.186 18.914 183.931 Z  M 311.005 183.931" fill="rgb(39,52,116)"/></g></g><circle vector-effect="non-scaling-stroke" cx="199.18181818181824" cy="184.99999999999997" r="135" fill="rgb(241,189,22)"/><circle vector-effect="non-scaling-stroke" cx="198.99999999999977" cy="184.3333333333332" r="120.33333333333336" fill="rgb(255,255,255)"/><defs><filter id="70pGFskyOOAHaz7FIrPxa1rtVEc0mxCX" x="-200%" y="-200%" width="400%" height="400%" filterUnits="objectBoundingBox" color-interpolation-filters="sRGB"><feGaussianBlur xmlns="http://www.w3.org/2000/svg" in="SourceGraphic" stdDeviation="1.7174436251356113"/><feOffset xmlns="http://www.w3.org/2000/svg" dx="4" dy="0" result="pf_100_offsetBlur"/><feFlood xmlns="http://www.w3.org/2000/svg" flood-color="#F1BD16" flood-opacity="1"/><feComposite xmlns="http://www.w3.org/2000/svg" in2="pf_100_offsetBlur" operator="in" result="pf_100_dropShadow"/><feBlend xmlns="http://www.w3.org/2000/svg" in="SourceGraphic" in2="pf_100_dropShadow" mode="normal"/></filter></defs><g filter="url(#70pGFskyOOAHaz7FIrPxa1rtVEc0mxCX)"><circle vector-effect="non-scaling-stroke" cx="197.75000000000003" cy="185.25" r="34.49999999999997" fill="rgb(241,189,22)"/></g><g><defs><filter id="B3W6JBhqiBGOSrrHFmKQNI9M8PBLcmwK" x="-200%" y="-200%" width="400%" height="400%" filterUnits="objectBoundingBox" color-interpolation-filters="sRGB"><feGaussianBlur xmlns="http://www.w3.org/2000/svg" in="SourceGraphic" stdDeviation="1.7174436251356113"/><feOffset xmlns="http://www.w3.org/2000/svg" dx="4" dy="0" result="pf_100_offsetBlur"/><feFlood xmlns="http://www.w3.org/2000/svg" flood-color="#273474" flood-opacity="1"/><feComposite xmlns="http://www.w3.org/2000/svg" in2="pf_100_offsetBlur" operator="in" result="pf_100_dropShadow"/><feBlend xmlns="http://www.w3.org/2000/svg" in="SourceGraphic" in2="pf_100_dropShadow" mode="normal"/></filter></defs><g filter="url(#B3W6JBhqiBGOSrrHFmKQNI9M8PBLcmwK)"><path d=" M 98.667 163 L 130.333 163 Q 132.109 165.425 132 167 C 131.891 168.575 131.351 169.455 130.333 170.333 C 127.579 170.1 125.181 170.517 122.667 171.667 C 120.153 172.817 119.137 173.705 117.667 175.333 L 121 182.333 L 129.333 181.667 C 128.73 185.325 127.491 188.318 125.333 191.333 C 123.175 194.349 122.165 195.117 120 196.667 L 124 199 C 125.259 200.29 126.082 201.628 126.667 203.333 C 127.251 205.039 127.503 207.466 127 209.667 L 117.667 201.667 L 113 207.667 C 110.993 208.542 108.898 208.426 107 207.333 C 105.102 206.241 104.54 205.28 104 203.667 L 107 195.333 C 103.846 194.29 101.514 192.291 100 189.333 C 98.486 186.376 98.644 185.732 98.667 183.667 L 110.667 183 L 111.667 178.667 L 105.333 177.667 C 102.862 175.605 101.2 173.32 100 170.333 C 98.8 167.347 98.608 165.636 98.667 163 Z " fill="rgb(39,52,116)"/></g><defs><filter id="5migxdIKTNVzKJax1Gz9gfgFyWM3XzLe" x="-200%" y="-200%" width="400%" height="400%" filterUnits="objectBoundingBox" color-interpolation-filters="sRGB"><feGaussianBlur xmlns="http://www.w3.org/2000/svg" in="SourceGraphic" stdDeviation="1.7174436251356113"/><feOffset xmlns="http://www.w3.org/2000/svg" dx="4" dy="0" result="pf_100_offsetBlur"/><feFlood xmlns="http://www.w3.org/2000/svg" flood-color="#273474" flood-opacity="1"/><feComposite xmlns="http://www.w3.org/2000/svg" in2="pf_100_offsetBlur" operator="in" result="pf_100_dropShadow"/><feBlend xmlns="http://www.w3.org/2000/svg" in="SourceGraphic" in2="pf_100_dropShadow" mode="normal"/></filter></defs><g filter="url(#5migxdIKTNVzKJax1Gz9gfgFyWM3XzLe)"><path d=" M 189.25 165.875 C 193.854 166.186 198.263 166.136 202.875 166 C 207.487 165.864 211.9 165.521 216.75 164.875 C 221.6 164.229 218.817 169.26 218.25 171.75 C 218.388 173.239 218.375 174.499 218.25 176 C 218.125 177.501 217.839 178.955 217.375 180.5 L 214.625 181.625 C 213.594 181.176 212.888 180.921 211.5 181.5 C 210.112 182.079 209.5 184 208.625 186.125 C 207.75 188.25 207.468 189.392 207.25 191.25 C 207.032 193.108 207.207 194.53 207.625 196.25 C 208.043 197.97 208.73 199.166 209.75 200.5 C 210.77 201.834 212.753 203.589 214.875 204.5 C 216.997 205.411 218.671 206.726 220.875 207.625 C 221.174 208.238 221.174 208.887 220.875 209.5 C 220.576 210.113 220.875 210 217.5 210.125 Q 214.125 210.25 209.75 208.75 Q 206.55 207.349 205.25 206 C 203.95 204.651 201.985 201.797 201.5 199 C 201.015 196.203 200.78 195.37 200.875 193.375 C 200.978 191.13 201.127 189.233 201.375 187 C 201.623 184.767 201.875 183.017 202.25 180.875 C 199.947 180.748 198.005 180.487 195.75 180 C 193.495 179.513 192.307 179.147 190.5 178.5 C 189.277 178.184 188.214 177.688 187.5 176.625 C 186.786 175.562 186.75 172.5 187.5 169 L 189.25 165.875 Z " fill="rgb(39,52,116)"/></g><defs><filter id="FRC7dFe8GlsOnVMiBJpsY9aaDkViLO2z" x="-200%" y="-200%" width="400%" height="400%" filterUnits="objectBoundingBox" color-interpolation-filters="sRGB"><feGaussianBlur xmlns="http://www.w3.org/2000/svg" in="SourceGraphic" stdDeviation="1.7174436251356113"/><feOffset xmlns="http://www.w3.org/2000/svg" dx="4" dy="0" result="pf_100_offsetBlur"/><feFlood xmlns="http://www.w3.org/2000/svg" flood-color="#273474" flood-opacity="1"/><feComposite xmlns="http://www.w3.org/2000/svg" in2="pf_100_offsetBlur" operator="in" result="pf_100_dropShadow"/><feBlend xmlns="http://www.w3.org/2000/svg" in="SourceGraphic" in2="pf_100_dropShadow" mode="normal"/></filter></defs><g filter="url(#FRC7dFe8GlsOnVMiBJpsY9aaDkViLO2z)"><path d=" M 228.313 162.75 C 227.25 163.326 227.024 168.679 226.375 172.125 C 225.726 175.571 224.625 182.125 224.25 186.75 C 223.875 191.375 224.262 192.765 224.625 196 C 224.988 199.235 225 200.875 225.875 203.625 C 226.75 206.375 227.281 206.91 228.375 208.5 L 237.875 208.5 C 236.688 205.582 235.974 202.99 235.5 199.875 C 235.026 196.76 234.97 194.771 235.125 192 L 236.875 191.625 C 237.92 194.701 239.082 197.212 240.75 200 C 242.418 202.788 243.191 203.764 244.75 205.625 C 246.309 207.486 247.221 207.339 248.75 207.875 C 250.279 208.411 252.506 209.045 254.625 209.125 C 256.744 209.205 257.89 208.201 259.25 207 C 260.61 205.799 261.204 204.276 261.375 202.5 C 261.546 200.724 261.749 199.311 261.375 197.625 C 261.001 195.939 260.3 194.987 259.25 193.875 C 258.2 192.763 256.94 191.421 255.375 190.5 L 251.375 187.75 C 252.425 188.813 253.15 189.881 253.75 191.25 C 254.35 192.619 254.473 193.241 254.625 194.375 C 254.777 195.509 254.595 195.937 254.375 196.75 C 254.155 197.563 253.835 197.881 253.375 198.375 Q 251.984 197.883 251.375 197.375 C 250.766 196.867 250.125 195 249.625 193.5 C 249.125 192 248.637 190.69 248.25 189.125 C 247.863 187.56 247.302 185.652 246.875 183.75 C 246.448 181.848 246.189 181.257 245.25 178.813 C 244.311 176.368 243.219 176.565 241.75 175.875 C 240.281 175.185 239.299 175.793 238.313 176.063 Q 237.875 173.125 237.375 170.625 C 236.875 168.125 236.547 167.626 236 165.875 C 235.453 164.124 232.727 161.792 231.625 162 C 230.523 162.208 229.375 162.174 228.313 162.75 Z " fill="rgb(39,52,116)"/></g><defs><filter id="AP2GNQ1aAHoWkXzSM7NpYL1X1mCrUHRo" x="-200%" y="-200%" width="400%" height="400%" filterUnits="objectBoundingBox" color-interpolation-filters="sRGB"><feGaussianBlur xmlns="http://www.w3.org/2000/svg" in="SourceGraphic" stdDeviation="1.7174436251356113"/><feOffset xmlns="http://www.w3.org/2000/svg" dx="4" dy="0" result="pf_100_offsetBlur"/><feFlood xmlns="http://www.w3.org/2000/svg" flood-color="#273474" flood-opacity="1"/><feComposite xmlns="http://www.w3.org/2000/svg" in2="pf_100_offsetBlur" operator="in" result="pf_100_dropShadow"/><feBlend xmlns="http://www.w3.org/2000/svg" in="SourceGraphic" in2="pf_100_dropShadow" mode="normal"/></filter></defs><g filter="url(#AP2GNQ1aAHoWkXzSM7NpYL1X1mCrUHRo)"><path d=" M 264.875 174.5 C 265.004 172.922 265.079 171.583 265.125 170 C 265.171 168.417 265.167 164.969 265 162.25 C 265.533 161.359 266.203 160.728 267.125 160.25 C 268.047 159.772 269.383 159.505 270.625 159.75 C 271.867 159.995 272.517 160.356 273.313 161.063 Q 273.813 163.25 274.063 164.938 C 274.313 166.625 274.599 169.428 274.625 171.875 C 275.236 171.957 275.758 171.995 276.375 172 C 276.992 172.005 277.677 171.969 278.375 171.875 C 279.073 171.781 279.867 171.111 280.375 170.375 C 280.883 169.639 281.063 168.688 281.188 167.5 C 281.313 166.313 281.503 165.18 281.625 164.375 Q 283.186 164.277 285.625 164.125 C 285.752 165.484 285.827 166.636 285.875 168 C 285.923 169.364 285.934 171.082 285.875 172.75 C 285.816 174.418 286.056 174.556 286.688 175.5 C 287.319 176.444 288.672 176.701 289.688 176.625 C 290.703 176.549 291.438 176.75 292.438 177.25 C 293.438 177.75 293.493 178.369 293.75 179.125 C 294.007 179.881 293.938 181.813 293.563 183.5 C 293.188 185.188 292.865 186.133 292.188 187.438 C 291.51 188.742 290.319 190.891 288.938 192.5 C 287.556 194.109 285.538 196.598 283.375 198.5 C 283.787 196.681 284.313 195.179 285.125 193.5 C 285.937 191.821 286.188 191.5 287.125 190.125 C 288.063 188.75 288.031 187.655 288.25 186.25 C 288.469 184.845 288.146 184.093 287.75 183 C 287.354 181.907 286.42 181.383 285.375 181 C 284.33 180.617 283.125 180.5 281.313 180.688 C 279.5 180.875 277.319 181.432 276.688 182.188 C 276.056 182.943 275.5 185.25 275.75 187.375 C 276 189.5 276.438 190.625 277 192.625 C 277.563 194.625 277.941 196.202 278.5 198.125 C 279.059 200.048 279.125 200.188 279.5 201.625 C 279.875 203.063 280.398 204.009 281 205.25 C 281.602 206.491 281.68 206.795 282.063 207.625 Q 275.625 208.875 273.25 208.25 C 272.158 207.025 271.855 207.035 270.813 205.375 C 269.77 203.715 269.395 203.018 268.875 201.625 C 268.355 200.232 267.722 198.821 267.25 197.25 C 266.778 195.679 266.308 193.791 266 191.875 C 265.692 189.959 265.536 188.236 265.5 186.25 C 264.254 186.582 263.164 186.732 261.875 186.75 C 260.586 186.768 258.653 186.546 257 186 C 256.507 183.888 256.319 182.043 256.375 179.875 C 256.431 177.707 256.607 176.685 257 175 C 258.235 174.582 259.325 174.357 260.625 174.25 C 261.925 174.143 263.404 174.203 264.875 174.5 Z " fill="rgb(39,52,116)"/></g><g filter="url(#JlV4H1GzgdEf5sICnERNEOh1rYrzfdOL)"><path d=" M 169.375 158.25 Q 169.146 164.119 169 167.875 Q 169.976 168.216 171.5 168.75 C 172.2 169.891 172.516 171.036 172.5 172.375 Q 172.484 173.714 171.625 175.625 C 170.905 175.949 170.419 175.575 169.875 177 C 169.331 178.425 169.101 179.725 169.125 181.25 C 169.149 182.775 169.457 184.262 170.125 185.75 L 181.25 185.625 C 181.821 186.708 181.921 187.997 181.875 189 C 181.829 190.003 181.508 190.846 180.875 191.625 C 180.242 192.404 178.438 192.813 176.875 193.25 Q 175.11 193.52 173.5 193.813 Q 172.817 193.91 171 194.25 Q 172.001 209.545 171.563 210 C 171.124 210.455 168.662 209.904 168.125 209.5 C 167.588 209.096 166.802 201.04 165.875 195.625 Q 160.802 196.113 152.875 196.875 C 152.393 197.896 152.351 198.944 152.75 200 C 153.149 201.056 153.284 200.838 153.625 201.375 Q 154.259 200.497 155.25 199.125 C 155.142 200.597 155.002 202.075 154.5 203.25 C 153.998 204.425 153.688 205.25 153.25 206.438 C 152.813 207.625 152.125 209.563 150.563 209.938 C 149.242 210.255 148.014 209.166 147.75 207.375 C 147.486 205.584 147.337 204.058 147.25 202.25 C 147.163 200.442 147.166 199.005 147.25 197.25 C 145.605 197.261 144.208 197.073 142.625 196.625 C 141.042 196.177 139.225 195.371 137.625 194.25 L 137.875 185.25 L 149.313 186.125 C 149.932 184.285 149.932 183.3 150.188 181.375 C 150.443 179.45 150.652 178.713 150.75 177.25 Q 148.555 177.006 145.125 176.625 C 144.396 174.984 144.59 173.079 144.563 171.625 C 144.535 170.171 145.677 168.635 146.25 168 C 146.823 167.365 147.602 167.132 148.75 167 C 149.898 166.868 150.865 166.719 152 166.5 C 153.135 166.281 153.138 166.269 153.75 166.125 C 153.931 164.597 154.687 163.052 155.125 162 C 155.563 160.948 156.195 160.159 157.125 159.5 C 158.055 158.841 158.293 158.811 159 158.625 C 157.778 159.988 157.068 161.447 156.75 163.25 C 156.432 165.053 156.551 165.37 156.75 166.5 C 158.368 166.679 159.75 166.716 161.375 166.625 Q 163 166.534 164.625 166.25 C 165.086 164.784 165.611 163.584 166.375 162.25 C 167.139 160.916 168.153 159.518 169.375 158.25 Z " fill="rgb(39,52,116)"/><path d=" M 155.188 177.031 C 154.351 178.549 153.824 179.945 153.438 181.625 C 153.051 183.305 152.972 184.37 153 185.875 L 156.75 185.875 C 156.458 184.401 156.458 183.099 156.75 181.625 C 157.042 180.151 157.76 178.42 158.875 177 L 155.188 177.031 Z " fill="rgb(255,255,255)"/><path d=" M 160.563 177.063 C 160.741 178.342 160.857 179.484 160.938 180.719 C 161.018 181.953 161.084 184.307 161 186.25 L 164.5 185.875 L 164.625 177 L 160.563 177.063 Z " fill="rgb(255,255,255)"/></g><defs><filter id="JlV4H1GzgdEf5sICnERNEOh1rYrzfdOL" x="-200%" y="-200%" width="400%" height="400%" filterUnits="objectBoundingBox" color-interpolation-filters="sRGB"><feGaussianBlur xmlns="http://www.w3.org/2000/svg" in="SourceGraphic" stdDeviation="1.7174436251356113"/><feOffset xmlns="http://www.w3.org/2000/svg" dx="4" dy="0" result="pf_100_offsetBlur"/><feFlood xmlns="http://www.w3.org/2000/svg" flood-color="#273474" flood-opacity="1"/><feComposite xmlns="http://www.w3.org/2000/svg" in2="pf_100_offsetBlur" operator="in" result="pf_100_dropShadow"/><feBlend xmlns="http://www.w3.org/2000/svg" in="SourceGraphic" in2="pf_100_dropShadow" mode="normal"/></filter></defs><path d=" M 292.625 192.625 L 304.25 193.375 L 303.625 212.125 L 292.125 211.125 L 292.625 192.625 Z " fill="rgb(214,35,57)"/></g></g></svg>