<?xml version="1.0" encoding="UTF-8" standalone="no"?><!-- Generator: Gravit.io --><svg xmlns="http://www.w3.org/2000/svg" xmlns:xlink="http://www.w3.org/1999/xlink" style="isolation:isolate" viewBox="0 0 400 520" width="400pt" height="520pt"><defs><clipPath id="_clipPath_rcsa3ldrnWA9duA1gAVFTpIyyU2kZx4G"><rect width="400" height="520"/></clipPath></defs><g clip-path="url(#_clipPath_rcsa3ldrnWA9duA1gAVFTpIyyU2kZx4G)"><g><defs><filter id="0Sj9FTcUrITVQ4kVkNUaBYuYPKPHziDi" x="-200%" y="-200%" width="400%" height="400%" filterUnits="objectBoundingBox" color-interpolation-filters="sRGB"><feGaussianBlur xmlns="http://www.w3.org/2000/svg" stdDeviation="4.293609062839028"/></filter></defs><g filter="url(#0Sj9FTcUrITVQ4kVkNUaBYuYPKPHziDi)"><ellipse vector-effect="non-scaling-stroke" cx="198.91361582044095" cy="490" rx="65" ry="20.166666666666686" fill="rgb(162,162,162)" fill-opacity="0.7"/></g><defs><filter id="Hgx71rUm7JKqbukRuyOs0djFPsXykEq3" x="-200%" y="-200%" width="400%" height="400%" filterUnits="objectBoundingBox" color-interpolation-filters="sRGB"><feGaussianBlur xmlns="http://www.w3.org/2000/svg" stdDeviation="0"/></filter></defs><g filter="url(#Hgx71rUm7JKqbukRuyOs0djFPsXykEq3)"><path d=" M 18.914 183.931 C 18.914 83.382 99.774 2 199.384 2 C 299.14 2 380 83.382 380 183.931 C 380 237.891 356.562 286.544 319.355 319.863 C 317.304 321.633 246.405 388.124 198.944 490 C 181.073 417.906 111.785 348.613 79.998 320.306 C 42.498 286.839 18.914 238.186 18.914 183.931 Z  M 311.005 183.931" fill="rgb(94,75,168)"/></g></g><circle vector-effect="non-scaling-stroke" cx="199.18181818181824" cy="184.99999999999997" r="135" fill="rgb(255,255,255)"/><circle vector-effect="non-scaling-stroke" cx="198.99999999999977" cy="184.3333333333332" r="120.33333333333336" fill="rgb(94,75,168)"/><g><path d=" M 198.5 117.25 C 170 117.25 141.5 120.813 141.5 145.75 L 141.5 213.438 C 141.5 227.189 152.686 238.375 166.438 238.375 L 155.75 249.062 L 155.75 252.625 L 171.639 252.625 L 185.889 238.375 L 212.75 238.375 L 227 252.625 L 241.25 252.625 L 241.25 249.062 L 230.563 238.375 C 244.314 238.375 255.5 227.189 255.5 213.438 L 255.5 145.75 C 255.5 120.813 229.993 117.25 198.5 117.25 Z  M 166.438 224.125 C 160.524 224.125 155.75 219.351 155.75 213.438 C 155.75 207.524 160.524 202.75 166.438 202.75 C 172.351 202.75 177.125 207.524 177.125 213.438 C 177.125 219.351 172.351 224.125 166.438 224.125 Z  M 191.375 174.25 L 155.75 174.25 L 155.75 145.75 L 191.375 145.75 L 191.375 174.25 Z  M 205.625 174.25 L 205.625 145.75 L 241.25 145.75 L 241.25 174.25 L 205.625 174.25 Z  M 230.563 224.125 C 224.649 224.125 219.875 219.351 219.875 213.438 C 219.875 207.524 224.649 202.75 230.563 202.75 C 236.476 202.75 241.25 207.524 241.25 213.438 C 241.25 219.351 236.476 224.125 230.563 224.125 Z " fill="rgb(255,255,255)"/><path d=" M 113 103 L 284 103 L 284 274 L 113 274 L 113 103 Z " fill="none"/></g></g></svg>