<?xml version="1.0" encoding="UTF-8" standalone="no"?><!-- Generator: Gravit.io --><svg xmlns="http://www.w3.org/2000/svg" xmlns:xlink="http://www.w3.org/1999/xlink" style="isolation:isolate" viewBox="0 0 400 520" width="400pt" height="520pt"><defs><clipPath id="_clipPath_j6EjKU5ylh7R4YF26RI8c1otOqf7d8Tl"><rect width="400" height="520"/></clipPath></defs><g clip-path="url(#_clipPath_j6EjKU5ylh7R4YF26RI8c1otOqf7d8Tl)"><g><defs><filter id="sp4KphNJw5oGPs19axHZRWWsy0yp5VLu" x="-200%" y="-200%" width="400%" height="400%" filterUnits="objectBoundingBox" color-interpolation-filters="sRGB"><feGaussianBlur xmlns="http://www.w3.org/2000/svg" stdDeviation="4.293609062839028"/></filter></defs><g filter="url(#sp4KphNJw5oGPs19axHZRWWsy0yp5VLu)"><ellipse vector-effect="non-scaling-stroke" cx="198.91361582044095" cy="490" rx="65" ry="20.166666666666686" fill="rgb(162,162,162)" fill-opacity="0.7"/></g><defs><filter id="A3e1OEsJlQ5M6qc4HkmPQaPlJsxODuBm" x="-200%" y="-200%" width="400%" height="400%" filterUnits="objectBoundingBox" color-interpolation-filters="sRGB"><feGaussianBlur xmlns="http://www.w3.org/2000/svg" stdDeviation="0"/></filter></defs><g filter="url(#A3e1OEsJlQ5M6qc4HkmPQaPlJsxODuBm)"><path d=" M 18.914 183.931 C 18.914 83.382 99.774 2 199.384 2 C 299.14 2 380 83.382 380 183.931 C 380 237.891 356.562 286.544 319.355 319.863 C 317.304 321.633 246.405 388.124 198.944 490 C 181.073 417.906 111.785 348.613 79.998 320.306 C 42.498 286.839 18.914 238.186 18.914 183.931 Z  M 311.005 183.931" fill="rgb(70,70,70)"/></g></g><circle vector-effect="non-scaling-stroke" cx="199.18181818181824" cy="184.99999999999997" r="135" fill="rgb(255,255,255)"/><circle vector-effect="non-scaling-stroke" cx="198.99999999999977" cy="184.3333333333332" r="120.33333333333336" fill="rgb(239,123,0)"/><g><g><path d=" M 194.351 148.732 C 194.138 148.742 193.949 148.754 193.76 148.802 C 193.063 148.876 191.871 149.654 190.211 151.168 C 189.635 151.817 188.951 152.142 188.159 152.142 C 188.159 152.142 181.827 152.42 181.827 152.42 C 179.737 150.761 178.273 149.95 177.409 149.95 C 176.64 149.95 175.295 150.739 173.374 152.35 C 171.665 153.742 170.508 154.849 169.86 155.69 C 168.947 156.819 169.088 158.467 170.312 160.63 C 170.576 161.182 170.726 162.04 170.799 163.17 C 170.799 163.17 171.112 182.373 171.112 182.373 C 171.425 184.175 172.604 185.098 174.696 185.122 C 176.473 185.145 177.645 184.82 178.244 184.148 C 178.845 183.498 180.223 183.043 182.314 182.826 C 182.314 182.826 182.314 185.017 182.314 185.017 C 182.314 185.017 176.435 186.2 176.435 186.2 C 174.656 186.585 173.465 186.26 172.817 185.226 C 171.784 185.443 170.948 186.149 170.347 187.279 C 169.699 188.458 169.493 189.721 169.686 191.14 C 169.974 193.375 171.078 194.796 173.026 195.35 C 174.733 195.878 175.956 195.66 176.679 194.723 C 177.063 194.265 178.917 193.769 182.21 193.193 C 182.21 193.193 182.14 195.036 182.14 195.036 C 182.14 195.733 181.783 196.167 181.062 196.358 C 181.062 196.358 175.774 198.063 175.774 198.063 C 174.933 198.376 174.11 198.006 173.269 197.019 C 172.86 196.564 172.339 196.628 171.739 197.228 C 169.888 199.03 169.021 201.24 169.164 203.908 C 169.236 206.023 170.479 208.267 172.956 210.622 C 175.503 213.099 178.007 214.255 180.436 214.135 C 181.758 214.063 182.929 213.401 183.915 212.153 C 184.9 210.638 185.667 209.567 186.246 208.917 C 187.11 208.003 188.672 206.637 190.907 204.812 C 193.241 208.127 194.671 210.827 195.221 212.918 C 195.8 215.104 197.563 216.188 200.474 216.188 C 206.41 216.188 210.301 213.295 212.198 207.526 C 212.728 208.365 213.311 209.547 214.007 211.109 C 214.561 212.286 215.202 212.918 215.851 212.918 C 218.734 212.918 221.118 211.649 223.017 209.126 C 224.579 207.013 225.4 204.649 225.522 202.029 C 225.522 195.901 225.544 190.818 225.592 186.826 C 227.562 187.211 228.642 186.713 228.862 185.296 C 229.055 184.165 228.695 182.831 227.783 181.364 C 227.134 180.283 226.293 179.287 225.209 178.303 C 224.224 177.391 223.577 176.598 223.191 175.903 C 224.37 176.31 225.387 176.204 226.253 175.555 C 227.097 174.906 227.505 173.93 227.505 172.632 C 227.505 170.014 226.027 168.379 223.122 167.658 C 223.122 167.658 223.47 166.579 223.47 166.579 C 226.474 167.564 228.251 166.731 228.827 164.109 C 229.379 161.562 228.504 159.244 226.148 157.151 C 225.309 156.431 223.65 154.131 221.174 150.263 C 219.852 148.172 218.12 148.443 215.955 151.063 C 215.955 151.063 205.031 151.481 205.031 151.481 C 205.031 151.481 202.979 150.159 202.979 150.159 C 202.425 149.8 201.611 150.211 200.579 151.342 C 197.908 149.51 195.842 148.665 194.351 148.732 Z  M 193.516 160.143 C 193.516 160.143 193.412 163.17 193.412 163.17 C 193.412 163.17 191.081 163.205 191.081 163.205 C 191.081 163.205 191.151 160.178 191.151 160.178 C 191.151 160.178 193.516 160.143 193.516 160.143 Z  M 182.627 160.804 C 182.627 160.804 182.523 163.831 182.523 163.831 C 182.523 163.831 180.192 163.9 180.192 163.9 C 180.192 163.9 180.262 160.874 180.262 160.874 C 180.262 160.874 182.627 160.804 182.627 160.804 Z  M 211.676 162.578 C 211.627 163.228 211.248 164.267 210.528 165.709 C 206.564 165.709 203.723 165.949 202.04 166.405 C 202.04 166.405 202.179 165.188 202.179 165.188 C 202.298 164.779 202.503 164.695 202.77 164.909 C 203.227 165.294 203.722 165.435 204.37 165.362 C 205.261 165.289 206.015 164.444 206.667 162.857 C 206.667 162.857 211.676 162.578 211.676 162.578 Z  M 193.516 171.136 C 193.516 171.136 193.377 174.163 193.377 174.163 C 193.377 174.163 191.046 174.198 191.046 174.198 C 191.046 174.198 191.116 171.171 191.116 171.171 C 191.116 171.171 193.516 171.136 193.516 171.136 Z  M 182.419 171.624 C 182.419 171.624 182.384 175.381 182.384 175.381 C 182.384 175.381 180.262 175.763 180.262 175.763 C 180.262 175.763 180.123 172.006 180.123 172.006 C 180.123 172.006 182.419 171.624 182.419 171.624 Z  M 209.693 174.094 C 210.667 174.079 211.646 174.119 212.65 174.198 C 212.65 174.198 211.085 176.181 211.085 176.181 C 204.955 177.094 201.681 177.364 201.274 176.981 C 201.274 176.981 201.344 175.45 201.344 175.45 C 203.992 174.603 206.772 174.136 209.693 174.094 Z  M 192.716 182.06 C 192.716 182.06 193.308 183.452 193.308 183.452 C 193.308 183.452 190.907 183.695 190.907 183.695 C 190.907 183.695 190.907 182.095 190.907 182.095 C 190.907 182.095 192.716 182.06 192.716 182.06 Z  M 214.077 186.548 C 214.341 186.548 214.502 186.698 214.529 187.035 C 214.6 187.394 214.633 190.517 214.633 196.428 C 214.633 197.006 214.276 197.298 213.555 197.298 C 212.716 197.298 212.302 196.94 212.302 196.219 C 212.302 196.219 212.302 187.174 212.302 187.174 C 212.302 186.79 212.475 186.583 212.789 186.583 C 212.789 186.583 214.077 186.548 214.077 186.548 Z  M 197.448 187.279 C 198.241 187.688 199.053 188.035 199.848 188.253 C 199.848 188.253 199.848 194.862 199.848 194.862 C 198.788 193.807 197.187 192.851 195.047 192.01 C 194.325 191.743 193.027 192.049 191.081 192.914 C 191.081 192.914 191.012 191.662 191.012 191.662 C 193.367 191.349 194.832 190.938 195.36 190.409 C 196.2 189.567 196.893 188.529 197.448 187.279 Z  M 199.883 198.133 C 199.883 198.133 199.848 201.681 199.848 201.681 C 198.788 201.681 197.513 201.399 196.021 200.846 C 197.656 199.571 198.942 198.663 199.883 198.133 Z " fill="rgb(22,20,19)"/><g><path d=" M 154.922 187.331 C 156.292 186.344 156.991 184.903 157.038 182.956 C 157.11 178.967 155.669 176.323 152.76 175.05 C 152.639 175.988 152.063 176.757 151.005 177.309 C 149.78 177.958 148.314 178.101 146.56 177.718 C 142.979 176.973 138.868 176.515 134.207 176.396 C 134.207 176.396 134.375 173.391 134.375 173.391 C 134.375 173.391 141.488 174.136 141.488 174.136 C 142.09 174.208 142.931 174.569 143.988 175.219 C 146.318 176.54 148.41 176.757 150.26 175.842 C 151.895 175.05 152.76 173.8 152.88 172.142 C 153 169.931 152.086 167.408 150.139 164.57 C 148.194 161.76 146.488 160.341 145.021 160.293 C 144.275 160.293 143.026 161.112 141.319 162.745 C 141.319 162.745 135.456 162.241 135.456 162.241 C 135.456 162.241 135.672 160.174 135.672 160.174 C 137.811 159.909 138.868 159.091 138.868 157.675 C 138.868 155.847 137.282 154.068 134.087 152.34 C 131.273 150.776 128.342 149.767 125.265 149.311 C 123.44 148.998 122.093 149.262 121.229 150.103 C 118.298 152.916 115.197 153.924 111.951 153.179 C 111.542 154.549 111.688 155.943 112.408 157.385 C 113.082 158.685 114.02 159.596 115.197 160.126 C 115.748 160.341 116.038 160.703 116.038 161.207 C 116.038 161.207 116.11 162.745 116.11 162.745 C 116.11 162.745 109.717 163.419 109.717 163.419 C 106.425 163.827 104.31 163.297 103.396 161.786 C 99.671 163.058 97.916 166.182 98.108 171.108 C 98.229 172.862 98.951 174.258 100.319 175.314 C 101.498 176.228 102.771 176.661 104.14 176.637 C 105.367 176.613 106.4 176.252 107.266 175.602 C 108.227 174.929 108.852 174.569 109.163 174.52 C 109.163 174.52 116.493 173.848 116.493 173.848 C 116.493 173.848 116.566 176.924 116.566 176.924 C 116.566 176.924 103.227 178.391 103.227 178.391 C 100.199 178.655 98.276 177.837 97.484 175.891 C 93.903 177.67 92.318 180.505 92.701 184.424 C 92.894 186.058 93.637 187.427 94.912 188.532 C 96.138 189.565 97.411 190.071 98.782 190.071 C 99.769 190.071 100.969 189.734 102.387 189.036 C 104.165 188.195 106.088 187.596 108.13 187.235 C 121.493 184.806 134.567 185.072 147.352 188.076 C 150.646 188.822 153.168 188.58 154.922 187.331 Z " fill="rgb(22,20,19)"/></g><g><path d=" M 116.493 203.168 C 116.373 200.597 116.182 198.962 115.869 198.314 C 122.672 197.281 128.366 197.257 132.957 198.219 C 132.957 198.219 132.212 202.927 132.212 202.927 C 130.578 202.785 127.692 202.76 123.559 202.832 C 123.559 202.832 116.493 203.168 116.493 203.168 Z  M 97.605 200.019 C 97.797 201.053 98.638 201.631 100.152 201.798 C 101.185 203.77 102.435 207.567 103.924 213.191 C 104.767 215.306 106.785 216.411 110.004 216.483 C 113.346 216.507 115.892 215.329 117.648 212.903 C 117.648 212.903 125.554 212.493 125.554 212.493 C 125.554 212.493 131.25 212.783 131.25 212.783 C 132.5 213.046 133.678 213.647 134.783 214.56 C 135.865 215.545 137.956 216.074 141.031 216.195 C 143.316 216.267 145.119 215.572 146.439 214.103 C 147.905 212.468 148.001 210.451 146.679 208.047 C 147.81 205.477 148.506 203.456 148.771 202.014 C 151.846 201.342 153.384 199.828 153.384 197.473 C 153.384 196.006 151.823 193.964 148.723 191.368 C 145.576 188.748 142.833 187.235 140.527 186.825 C 139.758 186.657 138.269 187.45 136.081 189.157 C 128.486 188.365 120.532 188.557 112.241 189.734 C 110.942 188.796 110.03 188.172 109.5 187.908 C 108.611 187.499 107.698 187.499 106.713 187.908 C 104.695 188.822 102.698 190.336 100.728 192.45 C 98.181 195.167 97.147 197.69 97.605 200.019 Z " fill="rgb(22,20,19)"/></g><g><path d=" M 264.806 203.456 C 264.156 203.626 263.435 203.626 262.689 203.456 C 262.689 203.456 268.891 197.761 268.891 197.761 C 268.023 201.005 266.655 202.904 264.806 203.456 Z  M 277.783 167.864 C 276.749 169.162 276.005 170.003 275.548 170.363 C 271.532 170.051 266.249 170.412 259.733 171.445 C 259.085 171.566 258.314 171.301 257.404 170.604 C 256.513 169.835 256.778 169.355 258.194 169.185 C 262.016 168.609 268.553 168.177 277.783 167.864 Z  M 282.108 167.815 C 282.108 167.815 287.11 167.984 287.11 167.984 C 287.036 169.042 286.554 170.051 285.689 170.988 C 284.247 169.546 283.046 168.489 282.108 167.815 Z  M 284.198 154.598 C 284.198 153.275 281.724 151.787 276.749 150.175 C 270.981 148.229 267.16 148.013 265.261 149.527 C 263.123 151.354 260.575 152.098 257.571 151.761 C 257.763 154.79 258.821 156.711 260.744 157.555 C 261.51 157.794 261.847 158.66 261.776 160.126 C 261.776 160.126 256.872 160.799 256.872 160.799 C 256.079 160.87 255.576 160.655 255.336 160.126 C 254.398 157.842 251.44 156.52 246.518 156.135 C 246.322 157.313 245.291 158.708 243.392 160.293 C 243.056 160.678 243.103 161.04 243.559 161.374 C 245.124 162.361 245.772 163.971 245.555 166.157 C 245.291 168.512 244.041 170.581 241.853 172.357 C 241.205 174.785 241.492 177.07 242.718 179.209 C 244.088 181.538 246.226 182.716 249.137 182.716 C 250.432 182.716 251.633 182.236 252.717 181.299 C 253.797 180.313 254.446 179.137 254.66 177.765 C 256.127 177.934 256.728 178.221 256.419 178.63 C 255.673 179.687 254.181 180.89 251.994 182.261 C 249.59 183.75 247.766 184.493 246.518 184.493 C 245.265 184.038 244.45 183.798 244.062 183.798 C 242.79 183.798 242.141 185.216 242.141 188.076 C 242.141 190.936 243.751 192.354 246.972 192.354 C 249.447 192.354 253.076 190.504 257.86 186.825 C 262.209 183.438 265.021 180.65 266.27 178.462 C 267.064 178.728 267.16 179.232 266.509 180.001 C 263.315 183.629 259.759 186.801 255.793 189.494 C 252.165 191.969 249.496 193.196 247.838 193.196 C 246.322 193.196 245.073 192.907 244.136 192.354 C 242.814 193.411 242.407 195.046 242.933 197.232 C 243.512 199.636 245.243 200.838 248.125 200.838 C 251.033 200.838 255.022 198.962 260.07 195.19 C 264.42 191.921 267.327 189.157 268.772 186.873 C 268.772 186.873 269.225 187.956 269.225 187.956 C 267.302 190.697 264.033 193.748 259.444 197.136 C 254.471 200.741 250.77 202.544 248.292 202.544 C 246.491 202.544 244.859 201.823 243.345 200.381 C 241.781 201.895 241.302 204.009 241.901 206.75 C 242.598 209.706 244.521 211.195 247.669 211.195 C 250.288 211.195 253.268 210.138 256.608 208.047 C 258.604 208.889 260.215 210.354 261.391 212.446 C 262.379 214.152 263.193 215.185 263.89 215.572 C 264.875 216.148 266.751 216.434 269.515 216.434 C 272.47 216.434 275.259 215.572 277.831 213.861 C 280.521 212.086 282.253 209.802 283.023 207.038 C 283.238 206.39 283.575 206.39 284.031 207.038 C 286.721 211.579 290.352 213.861 294.918 213.861 C 298.981 213.861 301 211.412 301 206.533 C 301 205.764 300.495 203.913 299.46 201.005 C 298.547 198.386 298.285 194.997 298.666 190.864 C 298.786 190.071 298.572 190.022 298.043 190.745 C 295.808 193.748 294.099 195.262 292.972 195.262 C 291.505 195.262 289.872 194.349 288.068 192.522 C 288.863 191.802 289.485 191.536 289.894 191.729 C 291.866 192.594 293.693 192.594 295.377 191.729 C 296.937 190.84 297.706 189.686 297.706 188.245 C 297.706 186.058 296.359 184.424 293.668 183.341 C 290.278 181.947 287.636 180.385 285.736 178.679 C 284.294 177.284 283.119 176.757 282.201 177.093 C 282.201 177.093 278.696 177.718 278.696 177.718 C 278.382 177.79 278.454 178.318 278.913 179.256 C 278.913 179.256 279.873 181.083 279.873 181.083 C 280.111 181.492 280.065 181.827 279.704 182.092 C 279.704 182.092 278.913 182.621 278.913 182.621 C 276.726 179.376 275.212 177.333 274.371 176.468 C 277.204 176.204 280.93 176.252 285.519 176.637 C 287.489 179.209 289.63 180.505 291.962 180.505 C 294.918 180.505 297.154 179.376 298.714 177.14 C 300.036 175.291 300.709 173.031 300.709 170.363 C 300.709 166.589 299.148 163.13 296 160.005 C 293.451 157.434 291.409 156.135 289.894 156.135 C 288.624 156.135 287.299 157.074 285.975 158.925 C 283.455 158.852 281.554 158.852 280.283 158.876 C 280.283 158.876 280.33 157.338 280.33 157.338 C 282.9 156.809 284.198 155.896 284.198 154.598 Z " fill="rgb(22,20,19)"/></g></g></g></g></svg>