<?xml version="1.0" encoding="UTF-8" standalone="no"?><!-- Generator: Gravit.io --><svg xmlns="http://www.w3.org/2000/svg" xmlns:xlink="http://www.w3.org/1999/xlink" style="isolation:isolate" viewBox="0 0 24 24" width="24pt" height="24pt"><defs><clipPath id="_clipPath_NTqzQA9uKlOKAPb4oavws2o8et9UoMz5"><rect width="24" height="24"/></clipPath></defs><g clip-path="url(#_clipPath_NTqzQA9uKlOKAPb4oavws2o8et9UoMz5)"><path d=" M 18.205 16.541 C 19.878 14.83 21 12.587 21 10.024 C 21 5.057 16.967 1.024 12 1.024 C 7.033 1.024 3 5.057 3 10.024 C 3 12.619 4.025 14.781 5.858 16.6 L 5.858 16.6 L 11.634 22.976 L 18.216 16.541 L 18.205 16.541 Z " fill="rgb(253,208,0)"/><g><g><path d=" M 5.248 11.939 L 4.381 11.939 L 5.343 7.349 L 6.458 7.349 L 7.42 11.939 L 6.554 11.939 L 6.395 10.921 L 5.407 10.921 L 5.248 11.939 Z  M 5.537 10.236 L 6.259 10.236 L 5.904 8.266 L 5.889 8.266 L 5.537 10.236 Z " fill="rgb(89,87,87)"/><path d=" M 9.174 8.88 L 9.174 8.525 C 9.174 8.136 8.972 7.971 8.741 7.971 C 8.38 7.971 8.264 8.136 8.264 8.479 L 8.264 10.807 C 8.264 11.15 8.38 11.315 8.741 11.315 C 9.067 11.315 9.174 11.15 9.174 10.85 L 9.174 10.297 L 10.073 10.297 L 10.073 10.825 C 10.073 11.472 9.639 12 8.741 12 C 7.802 12 7.366 11.472 7.366 10.825 L 7.366 8.461 C 7.366 7.814 7.799 7.286 8.741 7.286 C 9.639 7.286 10.073 7.857 10.073 8.545 L 10.073 8.883 L 9.174 8.883 L 9.174 8.88 Z " fill="rgb(89,87,87)"/></g><g><path d=" M 10.96 8.035 L 10.09 8.035 L 10.09 7.349 L 12.725 7.349 L 12.725 8.035 L 11.856 8.035 L 11.856 11.939 L 10.96 11.939 L 10.96 8.035 Z " fill="rgb(89,87,87)"/><path d=" M 16.1 7.349 L 16.981 7.349 L 15.889 11.939 L 14.993 11.939 L 13.901 7.349 L 14.782 7.349 L 15.433 10.533 L 15.447 10.533 L 16.1 7.349 Z " fill="rgb(89,87,87)"/><path d=" M 17.114 11.939 L 17.114 7.349 L 19.518 7.349 L 19.518 8.035 L 18.013 8.035 L 18.013 9.218 L 19.171 9.218 L 19.171 9.906 L 18.013 9.906 L 18.013 11.251 L 19.619 11.251 L 19.619 11.939 L 17.114 11.939 Z " fill="rgb(89,87,87)"/><path d=" M 12.875 7.349 L 13.788 7.349 L 13.63 10.797 L 13.037 10.797 L 12.875 7.349 Z  M 12.904 11.188 L 13.757 11.188 L 13.757 11.937 L 12.904 11.937 L 12.904 11.188 Z " fill="rgb(89,87,87)"/></g></g></g></svg>