<?xml version="1.0" encoding="UTF-8" standalone="no"?><!-- Generator: Gravit.io --><svg xmlns="http://www.w3.org/2000/svg" xmlns:xlink="http://www.w3.org/1999/xlink" style="isolation:isolate" viewBox="0 0 24 24" width="24pt" height="24pt"><defs><clipPath id="_clipPath_wM7HSFnnKK7GuifEmytgwrFRKsDZeCvw"><rect width="24" height="24"/></clipPath></defs><g clip-path="url(#_clipPath_wM7HSFnnKK7GuifEmytgwrFRKsDZeCvw)"><clipPath id="_clipPath_fH6DaxXHuMKhkYMz2sXHKBxFlviFIgKG"><rect x="0" y="0" width="24" height="24" transform="matrix(1,0,0,1,0,0)" fill="rgb(255,255,255)"/></clipPath><g clip-path="url(#_clipPath_fH6DaxXHuMKhkYMz2sXHKBxFlviFIgKG)"><g><path d=" M 18.219 16.551 C 19.896 14.836 21.02 12.588 21.02 10.02 C 21.02 5.042 16.978 1 12 1 C 7.022 1 2.98 5.042 2.98 10.02 C 2.98 12.62 4.007 14.787 5.844 16.61 L 5.844 16.61 L 11.633 23 L 18.23 16.551 L 18.219 16.551 L 18.219 16.551 Z " fill="rgb(76,158,69)"/><rect x="0" y="0" width="24" height="24" transform="matrix(1,0,0,1,0,0)" fill="none"/></g></g><clipPath id="_clipPath_0FMZifkaAGoRhI1G3bHjyCCQzGx5SQpt"><rect x="2.98" y="1" width="18.04" height="22" transform="matrix(1,0,0,1,0,0)" fill="rgb(255,255,255)"/></clipPath><g clip-path="url(#_clipPath_0FMZifkaAGoRhI1G3bHjyCCQzGx5SQpt)"><g><circle vector-effect="non-scaling-stroke" cx="11.999999999999996" cy="10" r="7" fill="rgb(255,255,255)"/></g></g><path d=" M 8.319 10.081 C 8.465 9.984 8.653 9.956 8.83 9.965 C 8.956 9.974 9.093 10.002 9.184 10.088 C 9.285 10.187 9.284 10.374 9.153 10.45 C 9.059 10.502 8.915 10.494 8.851 10.407 C 8.792 10.333 8.807 10.226 8.873 10.159 C 8.822 10.15 8.769 10.136 8.717 10.151 C 8.616 10.171 8.538 10.257 8.541 10.351 L 8.541 10.783 L 9.03 10.783 L 9.03 10.972 L 8.541 10.972 L 8.541 12.09 C 8.538 12.138 8.556 12.204 8.619 12.212 C 8.724 12.221 8.831 12.213 8.938 12.215 L 8.938 12.413 L 7.859 12.413 L 7.859 12.215 C 7.928 12.214 7.998 12.218 8.067 12.214 C 8.124 12.21 8.162 12.155 8.158 12.106 L 8.159 10.972 L 7.883 10.972 L 7.883 10.783 L 8.164 10.783 L 8.164 10.354 C 8.164 10.248 8.224 10.144 8.319 10.081 Z  M 14.388 10.058 L 15.08 10.004 L 15.08 11.021 C 15.166 10.905 15.285 10.805 15.433 10.759 C 15.649 10.693 15.905 10.715 16.085 10.847 C 16.195 10.927 16.259 11.048 16.26 11.176 L 16.26 12.126 C 16.259 12.17 16.303 12.217 16.355 12.215 C 16.42 12.217 16.485 12.215 16.55 12.215 L 16.55 12.413 C 16.239 12.413 15.928 12.413 15.617 12.413 L 15.617 12.215 C 15.682 12.213 15.748 12.222 15.813 12.21 C 15.863 12.199 15.887 12.15 15.883 12.106 L 15.882 11.248 C 15.885 11.164 15.845 11.076 15.763 11.032 C 15.501 10.886 15.09 11.065 15.081 11.352 L 15.08 12.071 C 15.081 12.12 15.081 12.187 15.141 12.209 C 15.219 12.223 15.3 12.213 15.38 12.215 L 15.38 12.413 L 14.413 12.413 L 14.413 12.215 C 14.486 12.213 14.56 12.222 14.633 12.21 C 14.695 12.19 14.702 12.122 14.703 12.071 L 14.703 10.354 C 14.703 10.315 14.7 10.265 14.653 10.247 C 14.565 10.24 14.477 10.246 14.388 10.244 L 14.388 10.058 Z  M 9.199 10.787 L 9.89 10.729 L 9.89 11.053 C 9.949 10.933 10.049 10.826 10.185 10.774 C 10.4 10.692 10.667 10.729 10.842 10.869 C 10.784 11.001 10.672 11.114 10.526 11.169 C 10.384 11.225 10.224 11.222 10.075 11.195 C 10.143 11.035 10.325 10.946 10.503 10.917 C 10.33 10.898 10.147 10.956 10.037 11.08 C 9.941 11.191 9.884 11.333 9.89 11.475 L 9.891 12.105 C 9.889 12.152 9.916 12.209 9.974 12.213 C 10.088 12.219 10.202 12.214 10.316 12.216 L 10.316 12.413 C 9.95 12.413 9.584 12.413 9.218 12.413 L 9.218 12.215 C 9.289 12.214 9.36 12.22 9.431 12.212 C 9.483 12.203 9.51 12.152 9.508 12.108 L 9.509 11.053 C 9.513 11.018 9.489 10.979 9.449 10.973 C 9.366 10.968 9.282 10.973 9.199 10.972 L 9.199 10.787 L 9.199 10.787 Z  M 11.092 10.893 C 11.316 10.728 11.628 10.692 11.905 10.747 C 12.096 10.785 12.262 10.893 12.363 11.045 C 12.482 11.22 12.512 11.43 12.518 11.633 C 12.071 11.634 11.623 11.632 11.176 11.633 C 11.182 11.821 11.224 12.041 11.413 12.151 C 11.639 12.274 11.971 12.246 12.143 12.056 C 12.198 12 12.231 11.93 12.259 11.861 L 12.495 11.861 C 12.492 12 12.412 12.127 12.308 12.224 C 12.146 12.378 11.91 12.463 11.676 12.457 C 11.426 12.464 11.163 12.39 10.991 12.22 C 10.801 12.036 10.739 11.772 10.754 11.528 C 10.768 11.288 10.879 11.043 11.092 10.893 M 11.322 11.068 C 11.229 11.164 11.19 11.293 11.189 11.418 L 12.068 11.418 C 12.068 11.268 12.031 11.095 11.888 11.002 C 11.717 10.896 11.458 10.925 11.322 11.068 Z  M 12.873 10.895 C 12.992 10.791 13.158 10.742 13.32 10.728 C 13.538 10.707 13.77 10.748 13.946 10.871 L 14.015 10.722 L 14.195 10.722 L 14.195 11.313 C 14.128 11.313 14.061 11.313 13.994 11.313 C 13.963 11.193 13.894 11.073 13.772 11.011 C 13.647 10.949 13.499 10.933 13.359 10.947 C 13.279 10.956 13.196 10.979 13.141 11.035 C 13.075 11.099 13.071 11.208 13.135 11.275 C 13.177 11.32 13.239 11.342 13.301 11.355 L 13.91 11.488 C 14.046 11.518 14.175 11.591 14.245 11.703 C 14.319 11.825 14.32 11.976 14.27 12.105 C 14.207 12.262 14.047 12.373 13.875 12.42 C 13.574 12.503 13.229 12.454 12.979 12.277 C 12.965 12.322 12.951 12.368 12.935 12.413 L 12.744 12.413 L 12.744 11.791 L 12.942 11.791 C 12.962 11.902 13.013 12.012 13.106 12.09 C 13.228 12.198 13.404 12.241 13.572 12.237 C 13.689 12.23 13.818 12.204 13.895 12.116 C 13.967 12.037 13.962 11.901 13.862 11.843 C 13.747 11.777 13.607 11.77 13.48 11.734 C 13.281 11.681 13.06 11.667 12.893 11.547 C 12.675 11.393 12.678 11.064 12.873 10.895 L 12.873 10.895 Z " fill="rgb(76,158,69)"/><path d=" M 7.026 7.102 C 7.18 7.021 7.363 6.996 7.539 7.001 C 7.711 7.009 7.895 7.05 8.018 7.166 C 8.111 7.253 8.142 7.378 8.143 7.495 L 8.142 8.091 C 8.143 8.16 8.147 8.233 8.185 8.295 C 8.21 8.345 8.254 8.384 8.282 8.432 C 8.298 8.456 8.284 8.485 8.261 8.5 L 8.033 8.679 C 8.006 8.703 7.963 8.723 7.929 8.698 C 7.851 8.647 7.796 8.575 7.743 8.504 C 7.643 8.593 7.528 8.679 7.386 8.703 C 7.23 8.729 7.057 8.729 6.917 8.653 C 6.8 8.591 6.729 8.475 6.709 8.355 C 6.687 8.219 6.704 8.072 6.788 7.954 C 6.867 7.843 6.996 7.766 7.135 7.728 C 7.31 7.68 7.493 7.671 7.673 7.653 C 7.671 7.558 7.693 7.445 7.609 7.373 C 7.481 7.274 7.241 7.326 7.196 7.479 C 7.183 7.508 7.175 7.559 7.13 7.556 C 7.027 7.551 6.925 7.537 6.823 7.528 C 6.791 7.527 6.755 7.511 6.754 7.479 C 6.773 7.324 6.877 7.181 7.026 7.102 M 7.265 8.003 C 7.169 8.099 7.157 8.267 7.254 8.365 C 7.356 8.454 7.528 8.403 7.596 8.301 C 7.689 8.184 7.674 8.034 7.673 7.898 C 7.532 7.898 7.373 7.91 7.265 8.003 Z  M 11.349 7.111 C 11.509 7.02 11.704 6.994 11.89 7.001 C 12.069 7.011 12.264 7.059 12.381 7.191 C 12.471 7.289 12.482 7.423 12.485 7.546 L 12.486 8.161 C 12.487 8.228 12.515 8.293 12.558 8.347 C 12.588 8.387 12.631 8.425 12.629 8.477 L 12.368 8.682 C 12.342 8.706 12.298 8.72 12.266 8.696 C 12.192 8.643 12.133 8.575 12.082 8.503 C 11.983 8.596 11.864 8.68 11.72 8.704 C 11.544 8.733 11.34 8.727 11.199 8.614 C 11.056 8.504 11.022 8.318 11.046 8.158 C 11.069 7.998 11.177 7.858 11.334 7.782 C 11.543 7.68 11.787 7.678 12.017 7.652 C 12.012 7.558 12.032 7.445 11.948 7.373 C 11.82 7.273 11.578 7.327 11.534 7.481 C 11.525 7.512 11.51 7.56 11.465 7.557 C 11.361 7.549 11.257 7.537 11.153 7.527 C 11.123 7.526 11.095 7.505 11.092 7.477 C 11.114 7.326 11.208 7.192 11.349 7.111 M 11.657 7.966 C 11.515 8.043 11.486 8.238 11.582 8.355 C 11.668 8.444 11.831 8.42 11.907 8.333 C 12.027 8.216 12.016 8.046 12.017 7.898 C 11.894 7.898 11.764 7.906 11.657 7.966 Z  M 9.197 7.051 C 9.323 7.002 9.474 7.001 9.6 7.052 C 9.711 7.098 9.78 7.196 9.83 7.293 C 9.881 7.169 9.997 7.067 10.139 7.033 C 10.318 6.986 10.531 7.029 10.653 7.161 C 10.741 7.252 10.755 7.378 10.758 7.493 C 10.75 7.874 10.757 8.255 10.754 8.636 C 10.76 8.663 10.734 8.679 10.717 8.696 C 10.592 8.693 10.468 8.699 10.344 8.694 C 10.302 8.69 10.293 8.649 10.294 8.618 L 10.295 7.81 C 10.297 7.708 10.308 7.602 10.276 7.503 C 10.23 7.386 10.043 7.376 9.955 7.459 C 9.879 7.52 9.874 7.618 9.87 7.703 L 9.869 8.633 C 9.871 8.65 9.865 8.667 9.852 8.679 C 9.839 8.691 9.821 8.697 9.802 8.695 L 9.474 8.695 C 9.456 8.696 9.438 8.69 9.426 8.678 C 9.414 8.667 9.408 8.65 9.41 8.634 L 9.41 7.67 C 9.408 7.598 9.4 7.522 9.354 7.462 C 9.296 7.389 9.173 7.387 9.093 7.43 C 8.998 7.492 8.987 7.609 8.984 7.706 C 8.987 8.009 8.975 8.312 8.98 8.616 C 8.982 8.647 8.978 8.695 8.932 8.694 C 8.816 8.697 8.701 8.695 8.585 8.695 C 8.548 8.699 8.518 8.667 8.525 8.634 L 8.525 7.108 C 8.517 7.069 8.563 7.041 8.602 7.048 C 8.711 7.052 8.821 7.041 8.929 7.054 L 8.954 7.076 C 8.968 7.15 8.957 7.226 8.959 7.301 C 9.004 7.197 9.081 7.097 9.197 7.051 L 9.197 7.051 Z  M 14.841 7.036 C 15.05 6.989 15.286 7.017 15.459 7.138 C 15.63 7.255 15.725 7.441 15.766 7.628 C 15.819 7.877 15.8 8.148 15.666 8.375 C 15.58 8.524 15.433 8.648 15.254 8.699 C 15.045 8.758 14.802 8.733 14.624 8.613 C 14.451 8.497 14.354 8.31 14.313 8.122 C 14.263 7.88 14.278 7.621 14.391 7.394 C 14.476 7.224 14.638 7.082 14.841 7.036 Z  M 14.955 7.348 C 14.898 7.368 14.858 7.415 14.835 7.465 C 14.786 7.568 14.783 7.683 14.778 7.793 C 14.778 7.927 14.779 8.062 14.813 8.193 C 14.834 8.269 14.87 8.352 14.95 8.39 C 15.047 8.429 15.16 8.397 15.215 8.316 C 15.295 8.196 15.295 8.051 15.301 7.916 C 15.298 7.758 15.299 7.595 15.235 7.447 C 15.195 7.349 15.058 7.308 14.955 7.348 L 14.955 7.348 Z  M 16.746 7.041 C 16.926 6.985 17.153 7.014 17.278 7.153 C 17.383 7.266 17.392 7.422 17.399 7.564 L 17.4 8.634 C 17.403 8.662 17.379 8.697 17.345 8.695 C 17.229 8.696 17.113 8.696 16.997 8.695 C 16.963 8.697 16.936 8.665 16.941 8.636 L 16.94 7.669 C 16.936 7.59 16.928 7.501 16.865 7.441 C 16.803 7.389 16.702 7.384 16.634 7.427 C 16.577 7.459 16.544 7.516 16.525 7.573 C 16.488 7.678 16.496 7.79 16.495 7.899 L 16.495 8.634 C 16.497 8.664 16.472 8.698 16.436 8.695 C 16.32 8.696 16.204 8.697 16.089 8.694 C 16.055 8.696 16.032 8.661 16.036 8.633 L 16.036 7.11 C 16.034 7.092 16.041 7.075 16.055 7.063 C 16.07 7.051 16.089 7.045 16.109 7.049 C 16.218 7.05 16.329 7.043 16.439 7.052 L 16.465 7.077 C 16.478 7.158 16.468 7.242 16.47 7.324 C 16.524 7.206 16.607 7.086 16.746 7.041 L 16.746 7.041 Z  M 12.917 7.044 L 14.039 7.044 C 14.087 7.041 14.107 7.089 14.101 7.125 C 14.096 7.209 14.123 7.306 14.058 7.377 L 13.46 8.151 C 13.651 8.155 13.845 8.174 14.02 8.249 C 14.068 8.269 14.13 8.297 14.129 8.353 C 14.132 8.435 14.131 8.518 14.13 8.6 C 14.131 8.62 14.12 8.638 14.102 8.648 C 14.083 8.658 14.061 8.658 14.042 8.648 C 13.686 8.485 13.265 8.485 12.909 8.648 C 12.861 8.68 12.808 8.627 12.82 8.583 C 12.83 8.465 12.79 8.335 12.858 8.227 L 13.512 7.377 C 13.319 7.376 13.127 7.379 12.935 7.376 C 12.901 7.379 12.879 7.348 12.883 7.32 C 12.882 7.244 12.88 7.167 12.884 7.09 C 12.884 7.07 12.906 7.059 12.917 7.044 Z  M 13.314 8.771 C 13.483 8.755 13.66 8.754 13.822 8.807 C 13.897 8.829 13.883 8.913 13.884 8.968 C 13.868 9.167 13.794 9.363 13.674 9.529 C 13.621 9.596 13.565 9.666 13.487 9.71 C 13.459 9.729 13.409 9.706 13.425 9.673 C 13.494 9.499 13.581 9.328 13.61 9.144 C 13.613 9.1 13.623 9.047 13.586 9.012 C 13.55 8.988 13.504 8.978 13.46 8.972 C 13.252 8.952 13.045 8.986 12.838 8.997 C 12.798 8.981 12.818 8.938 12.847 8.922 C 12.983 8.832 13.149 8.789 13.314 8.771 L 13.314 8.771 Z  M 8.223 8.872 C 8.248 8.851 8.282 8.865 8.307 8.878 C 9.049 9.267 9.894 9.488 10.748 9.538 C 11.602 9.59 12.467 9.448 13.256 9.149 C 13.339 9.108 13.436 9.215 13.357 9.274 C 13.113 9.444 12.834 9.57 12.547 9.67 C 12.249 9.772 11.938 9.845 11.622 9.885 C 11.212 9.938 10.793 9.937 10.383 9.879 C 9.59 9.771 8.835 9.449 8.241 8.962 C 8.209 8.944 8.186 8.895 8.223 8.872 L 8.223 8.872 Z " fill="rgb(0,0,0)"/></g></svg>