<?xml version="1.0" encoding="UTF-8" standalone="no"?><!-- Generator: Gravit.io --><svg xmlns="http://www.w3.org/2000/svg" xmlns:xlink="http://www.w3.org/1999/xlink" style="isolation:isolate" viewBox="0 0 24 24" width="24pt" height="24pt"><defs><clipPath id="_clipPath_dQ3E6fpf086wtVA8c704vGzvgMA1GHw3"><rect width="24" height="24"/></clipPath></defs><g clip-path="url(#_clipPath_dQ3E6fpf086wtVA8c704vGzvgMA1GHw3)"><clipPath id="_clipPath_JvfEm9vjjpsBNG77MiqcuZzjn0JyjeRs"><rect x="0" y="0" width="24" height="24" transform="matrix(1,0,0,1,0,0)" fill="rgb(255,255,255)"/></clipPath><g clip-path="url(#_clipPath_JvfEm9vjjpsBNG77MiqcuZzjn0JyjeRs)"><g><clipPath id="_clipPath_hWvYvU5PnXfAWeIQkesEOPgBcYoGLqJL"><rect x="0" y="0" width="24" height="24" transform="matrix(1,0,0,1,0,0)" fill="rgb(255,255,255)"/></clipPath><g clip-path="url(#_clipPath_hWvYvU5PnXfAWeIQkesEOPgBcYoGLqJL)"><g><g><clipPath id="_clipPath_bbbhmiqT4kBkwIGfh5SX3ZGBx9dOmEa1"><rect x="0" y="0" width="24" height="24" transform="matrix(1,0,0,1,0,0)" fill="rgb(255,255,255)"/></clipPath><g clip-path="url(#_clipPath_bbbhmiqT4kBkwIGfh5SX3ZGBx9dOmEa1)"><g><g><g><clipPath id="_clipPath_4TxJ7RqKTLsRX1CRdPivmq6puxiqVqwC"><rect x="2.98" y="1" width="18.04" height="22" transform="matrix(1,0,0,1,0,0)" fill="rgb(255,255,255)"/></clipPath><g clip-path="url(#_clipPath_4TxJ7RqKTLsRX1CRdPivmq6puxiqVqwC)"><g><g><g><g><path d=" M 18.219 16.551 C 19.896 14.836 21.02 12.588 21.02 10.02 C 21.02 5.042 16.978 1 12 1 C 7.022 1 2.98 5.042 2.98 10.02 C 2.98 12.62 4.007 14.787 5.844 16.61 L 5.844 16.61 L 11.633 23 L 18.23 16.551 L 18.219 16.551 L 18.219 16.551 L 18.219 16.551 Z " fill="rgb(198,151,32)"/></g></g></g></g></g></g></g></g></g></g></g></g></g></g><g><path d=" M 8.479 15.975 C 6.804 15.975 6.012 15.053 6.012 14.13 C 6.012 12.812 7.011 12.158 8.265 12.158 L 10.068 12.158 L 10.068 11.615 C 10.068 10.983 9.575 10.679 8.761 10.679 C 7.974 10.679 7.58 10.846 7.296 11.223 L 6.348 10.54 C 6.814 9.858 7.507 9.466 8.734 9.466 C 10.292 9.466 11.42 10.06 11.42 11.564 L 11.42 13.162 C 11.395 15.361 10.584 16.032 8.485 15.969 M 10.065 13.208 L 8.359 13.208 C 7.518 13.208 7.279 13.637 7.279 13.965 C 7.279 14.407 7.598 14.812 8.546 14.812 C 10.22 14.812 10.065 14.041 10.065 13.47 L 10.065 13.208 Z " fill="rgb(33,31,94)"/><path d=" M 14.57 18.54 C 13.343 18.54 12.569 18.035 12.103 17.353 L 13.012 16.728 C 13.359 17.133 13.809 17.327 14.597 17.327 C 15.41 17.327 16.077 16.839 16.077 16.202 L 16.077 15.299 C 15.651 15.742 15.037 15.848 14.344 15.848 C 12.491 15.848 12.063 14.484 12.063 13.131 L 12.063 12.436 C 12.063 10.882 12.596 9.466 14.53 9.466 C 14.958 9.466 15.464 9.554 15.798 9.82 C 16.4 10.306 16.89 10.904 17.239 11.577 C 17.382 11.841 17.446 12.136 17.425 12.431 L 17.425 16.229 C 17.425 17.555 16.371 18.548 14.57 18.548 M 15.81 11.243 C 15.556 10.929 15.159 10.747 14.742 10.755 C 13.46 10.755 13.408 11.665 13.408 12.512 L 13.408 12.967 C 13.408 13.821 13.58 14.699 14.662 14.699 C 15.114 14.69 15.536 14.485 15.808 14.142 C 16.022 13.852 16.074 13.611 16.074 12.727 C 16.074 11.842 16.009 11.476 15.808 11.236" fill="rgb(204,8,57)"/><g><path d=" M 11.373 2.355 C 11.122 2.395 10.975 2.393 11.041 2.355 C 11.193 2.296 11.351 2.255 11.514 2.233 C 11.727 2.2 11.892 2.197 11.878 2.22 C 11.864 2.243 11.632 2.313 11.373 2.352 M 12.742 2.326 C 12.485 2.298 12.261 2.253 12.254 2.215 C 12.248 2.177 12.42 2.187 12.64 2.215 C 12.801 2.227 12.959 2.261 13.109 2.315 C 13.164 2.352 13.001 2.359 12.742 2.33 M 9.38 3.379 C 9.242 3.476 9.23 3.446 9.344 3.329 C 9.472 3.198 9.612 3.078 9.762 2.969 C 9.905 2.866 9.957 2.861 9.861 2.969 C 9.715 3.121 9.554 3.259 9.38 3.382 M 10.428 2.918 C 10.177 2.989 10.061 2.944 10.162 2.824 C 10.312 2.68 10.499 2.575 10.704 2.517 C 10.933 2.446 11.09 2.467 11.033 2.565 C 10.971 2.687 10.696 2.841 10.428 2.918 Z " fill="rgb(33,31,94)"/><path d=" M 11.979 2.695 C 11.655 2.703 11.426 2.618 11.463 2.497 C 11.493 2.402 11.736 2.314 12.008 2.305 C 12.28 2.297 12.513 2.374 12.531 2.468 C 12.55 2.59 12.3 2.686 11.976 2.695 M 13.591 2.84 C 13.304 2.776 13.029 2.631 12.982 2.512 C 12.947 2.415 13.11 2.381 13.36 2.442 C 13.572 2.486 13.766 2.586 13.92 2.729 C 14.009 2.851 13.865 2.899 13.591 2.84 Z  M 14.772 3.266 C 14.58 3.155 14.406 3.018 14.256 2.859 C 14.166 2.756 14.236 2.756 14.402 2.859 C 14.566 2.962 14.718 3.081 14.854 3.215 C 14.966 3.337 14.935 3.362 14.773 3.269 M 8.728 4.277 C 8.643 4.351 8.656 4.265 8.751 4.094 C 8.839 3.933 8.947 3.782 9.071 3.644 C 9.173 3.539 9.189 3.589 9.095 3.766 C 8.999 3.952 8.876 4.124 8.728 4.276" fill="rgb(33,31,94)"/><path d=" M 9.524 3.867 C 9.313 3.939 9.23 3.828 9.33 3.623 C 9.445 3.415 9.625 3.244 9.845 3.135 C 10.061 3.044 10.186 3.118 10.113 3.313 C 9.997 3.561 9.786 3.758 9.522 3.861 M 11.047 3.56 C 10.702 3.597 10.482 3.438 10.55 3.215 C 10.611 3.016 10.897 2.824 11.202 2.781 C 11.507 2.739 11.761 2.867 11.745 3.068 C 11.727 3.301 11.409 3.523 11.047 3.556 M 12.982 3.538 C 12.609 3.511 12.302 3.294 12.295 3.064 C 12.295 2.863 12.545 2.723 12.868 2.756 C 13.192 2.789 13.476 2.968 13.528 3.172 C 13.584 3.399 13.342 3.566 12.982 3.538 M 14.609 3.805 C 14.331 3.716 14.106 3.518 13.991 3.261 C 13.926 3.062 14.065 2.978 14.303 3.068 C 14.538 3.166 14.732 3.336 14.853 3.55 C 14.949 3.756 14.845 3.875 14.608 3.805" fill="rgb(33,31,94)"/><path d=" M 15.522 4.212 C 15.356 4.063 15.22 3.886 15.121 3.69 C 15.029 3.509 15.056 3.455 15.176 3.56 C 15.316 3.699 15.434 3.856 15.527 4.026 C 15.621 4.201 15.624 4.291 15.527 4.216 M 8.768 5.052 C 8.639 5.09 8.576 4.918 8.639 4.67 C 8.703 4.423 8.861 4.192 9.001 4.116 C 9.142 4.041 9.243 4.176 9.182 4.447 C 9.12 4.718 8.924 5.008 8.766 5.057" fill="rgb(33,31,94)"/><path d=" M 9.959 4.856 C 9.659 4.888 9.471 4.663 9.534 4.356 C 9.602 4.058 9.836 3.82 10.145 3.736 C 10.45 3.672 10.677 3.87 10.639 4.181 C 10.592 4.522 10.317 4.795 9.959 4.856 Z  M 11.922 4.758 C 11.505 4.758 11.189 4.486 11.216 4.137 C 11.237 3.82 11.561 3.556 11.944 3.549 C 12.326 3.542 12.655 3.793 12.666 4.116 C 12.68 4.464 12.343 4.755 11.922 4.758 Z  M 13.991 4.82 C 13.615 4.784 13.316 4.504 13.271 4.148 C 13.25 4.007 13.305 3.864 13.418 3.769 C 13.53 3.674 13.686 3.638 13.832 3.675 C 14.161 3.741 14.419 3.985 14.491 4.297 C 14.528 4.435 14.489 4.582 14.388 4.688 C 14.288 4.794 14.138 4.846 13.989 4.825 M 15.374 5.002 C 15.175 4.96 14.961 4.679 14.898 4.376 C 14.839 4.094 14.948 3.937 15.141 4.021 C 15.31 4.096 15.493 4.352 15.558 4.597 C 15.624 4.842 15.536 5.041 15.374 5.002 Z " fill="rgb(33,31,94)"/><path d=" M 8.437 6.137 C 8.365 6.126 8.308 5.924 8.323 5.68 C 8.337 5.435 8.409 5.22 8.484 5.191 C 8.558 5.163 8.642 5.353 8.629 5.639 C 8.616 5.926 8.533 6.157 8.437 6.141 M 9.238 6.207 C 9.018 6.195 8.852 5.933 8.865 5.617 C 8.878 5.301 9.064 5.028 9.286 4.993 C 9.543 4.955 9.735 5.213 9.725 5.573 C 9.715 5.933 9.493 6.22 9.238 6.207 M 10.901 6.26 C 10.712 6.253 10.534 6.175 10.407 6.043 C 10.28 5.911 10.214 5.736 10.223 5.558 C 10.23 5.184 10.532 4.876 10.924 4.841 C 11.119 4.836 11.308 4.907 11.446 5.038 C 11.584 5.17 11.658 5.349 11.651 5.534 C 11.656 5.726 11.578 5.911 11.437 6.049 C 11.296 6.187 11.103 6.265 10.901 6.267 M 13.09 6.265 C 12.885 6.266 12.689 6.189 12.545 6.051 C 12.402 5.914 12.323 5.727 12.326 5.533 C 12.321 5.344 12.398 5.161 12.539 5.027 C 12.68 4.894 12.874 4.821 13.073 4.827 C 13.479 4.85 13.798 5.164 13.807 5.549 C 13.814 5.734 13.741 5.915 13.607 6.049 C 13.472 6.184 13.286 6.262 13.09 6.265 Z  M 14.884 6.223 C 14.6 6.235 14.36 5.947 14.349 5.57 C 14.339 5.193 14.557 4.932 14.839 4.967 C 15.086 5.001 15.3 5.289 15.311 5.611 C 15.323 5.933 15.132 6.209 14.884 6.221 M 15.819 6.148 C 15.701 6.163 15.6 5.932 15.587 5.626 C 15.574 5.32 15.652 5.115 15.771 5.156 C 15.865 5.19 15.956 5.421 15.967 5.671 C 15.977 5.921 15.909 6.136 15.819 6.148 Z  M 8.424 6.924 C 8.344 6.789 8.299 6.637 8.296 6.481 C 8.296 6.278 8.265 6.125 8.288 6.135 C 8.311 6.144 8.379 6.365 8.417 6.608 C 8.454 6.851 8.454 6.984 8.417 6.924 M 8.87 7.232 C 8.733 7.174 8.59 6.928 8.549 6.668 C 8.508 6.408 8.581 6.197 8.717 6.212 C 8.879 6.227 9.046 6.503 9.09 6.822 C 9.134 7.14 9.031 7.31 8.87 7.238 M 10.039 7.536 C 9.748 7.488 9.487 7.198 9.446 6.875 C 9.404 6.553 9.61 6.275 9.917 6.287 C 10.252 6.301 10.561 6.622 10.581 6.993 C 10.602 7.364 10.359 7.587 10.039 7.536 M 11.931 7.687 C 11.534 7.687 11.205 7.397 11.178 7.022 C 11.171 6.835 11.247 6.654 11.387 6.522 C 11.527 6.39 11.718 6.319 11.915 6.325 C 12.118 6.321 12.314 6.393 12.459 6.527 C 12.604 6.66 12.687 6.844 12.688 7.035 C 12.668 7.413 12.329 7.704 11.931 7.687 Z  M 13.92 7.588 C 13.57 7.632 13.296 7.382 13.315 7.017 C 13.327 6.643 13.631 6.336 14.025 6.302 C 14.366 6.292 14.609 6.572 14.573 6.918 C 14.534 7.253 14.269 7.524 13.92 7.588 M 15.279 7.305 C 15.083 7.372 14.957 7.183 14.994 6.861 C 15.032 6.539 15.23 6.251 15.432 6.23 C 15.6 6.216 15.703 6.436 15.66 6.718 C 15.618 7 15.449 7.251 15.274 7.309 M 8.896 7.857 C 8.77 7.713 8.671 7.55 8.602 7.376 C 8.521 7.182 8.517 7.06 8.602 7.12 C 8.754 7.274 8.87 7.459 8.939 7.66 C 9.023 7.871 9.001 7.953 8.901 7.857 M 9.684 8.326 C 9.446 8.215 9.262 8.021 9.169 7.786 C 9.08 7.542 9.176 7.388 9.395 7.447 C 9.68 7.553 9.897 7.778 9.981 8.057 C 10.047 8.301 9.908 8.417 9.681 8.326 M 11.125 8.672 C 10.8 8.631 10.499 8.404 10.444 8.152 C 10.38 7.876 10.617 7.664 10.986 7.697 C 11.354 7.73 11.696 7.994 11.716 8.284 C 11.731 8.541 11.458 8.714 11.125 8.672 Z  M 12.925 8.702 C 12.58 8.733 12.299 8.553 12.304 8.292 C 12.304 8.002 12.63 7.741 13.028 7.719 C 13.426 7.697 13.672 7.914 13.619 8.196 C 13.571 8.447 13.262 8.672 12.925 8.702 Z  M 14.459 8.397 C 14.21 8.481 14.048 8.359 14.112 8.11 C 14.197 7.821 14.43 7.592 14.732 7.5 C 14.974 7.445 15.097 7.61 15.009 7.855 C 14.911 8.1 14.712 8.297 14.459 8.401 M 15.352 7.931 C 15.235 8.03 15.197 7.946 15.282 7.725 C 15.367 7.504 15.539 7.237 15.655 7.17 C 15.771 7.102 15.763 7.235 15.679 7.437 C 15.606 7.621 15.495 7.789 15.352 7.931 M 9.574 8.64 C 9.416 8.522 9.275 8.383 9.157 8.228 C 9.048 8.079 9.059 8.018 9.2 8.106 C 9.389 8.237 9.553 8.398 9.685 8.581 C 9.778 8.725 9.722 8.744 9.574 8.639 M 10.572 9.105 C 10.343 9.04 10.142 8.906 9.999 8.724 C 9.903 8.563 10.025 8.48 10.294 8.546 C 10.563 8.612 10.87 8.819 10.938 8.985 C 10.99 9.128 10.822 9.178 10.576 9.107 M 11.995 9.325 C 11.7 9.316 11.436 9.196 11.403 9.054 C 11.363 8.886 11.61 8.755 11.963 8.762 C 12.316 8.769 12.584 8.916 12.567 9.084 C 12.549 9.223 12.291 9.328 11.995 9.328 M 13.476 9.183 C 13.211 9.244 13.022 9.183 13.061 9.04 C 13.105 8.872 13.395 8.683 13.705 8.622 C 13.996 8.564 14.155 8.656 14.067 8.819 C 13.99 8.962 13.727 9.124 13.472 9.185 M 11.449 9.517 C 11.266 9.498 11.089 9.439 10.934 9.344 C 10.865 9.273 11.022 9.245 11.299 9.286 C 11.575 9.326 11.83 9.415 11.848 9.486 C 11.866 9.556 11.684 9.554 11.449 9.517 M 12.688 9.538 C 12.45 9.565 12.259 9.538 12.263 9.488 C 12.263 9.417 12.505 9.342 12.797 9.31 C 13.09 9.278 13.261 9.31 13.199 9.384 C 13.137 9.459 12.922 9.506 12.684 9.538 M 10.055 8.922 C 9.864 8.834 9.814 8.838 9.926 8.922 C 9.937 8.932 9.952 8.941 9.966 8.951 C 10.157 9.073 10.359 9.178 10.57 9.266 C 10.62 9.281 10.633 9.273 10.592 9.237 C 10.425 9.117 10.247 9.013 10.06 8.926 M 14.108 8.996 C 13.913 9.07 13.731 9.17 13.565 9.293 C 13.546 9.31 13.543 9.321 13.551 9.326 C 13.822 9.226 14.082 9.098 14.323 8.944 C 14.314 8.927 14.24 8.944 14.106 8.996 M 14.947 8.214 C 14.736 8.333 14.557 8.495 14.421 8.689 C 14.331 8.834 14.41 8.856 14.581 8.755 C 14.603 8.742 14.625 8.728 14.648 8.712 C 14.767 8.618 14.88 8.517 14.987 8.409 L 15.041 8.342 C 15.149 8.19 15.114 8.127 14.947 8.22 M 15.999 6.151 C 15.94 6.168 15.87 6.395 15.824 6.652 C 15.777 6.91 15.799 7.052 15.858 6.99 L 15.875 6.967 C 15.954 6.725 16.006 6.475 16.031 6.223 C 16.031 6.174 16.016 6.146 15.999 6.149 M 15.951 5.207 C 15.968 5.221 15.977 5.207 15.978 5.173 C 15.93 4.925 15.853 4.682 15.75 4.449 L 15.735 4.426 C 15.67 4.347 15.668 4.464 15.735 4.695 C 15.802 4.925 15.897 5.166 15.956 5.207 M 13.434 2.374 L 13.445 2.398 C 13.517 2.438 13.749 2.542 13.953 2.628 C 14.098 2.687 14.133 2.725 14.141 2.689 C 13.917 2.561 13.68 2.456 13.434 2.374 M 10.219 2.7 L 10.72 2.456 C 10.735 2.448 10.737 2.434 10.731 2.415 C 10.486 2.506 10.25 2.62 10.029 2.755 C 10.055 2.785 10.107 2.755 10.219 2.702 M 8.337 5.246 C 8.415 5.09 8.474 4.927 8.513 4.758 C 8.572 4.539 8.585 4.431 8.542 4.506 C 8.519 4.541 8.492 4.574 8.462 4.604 C 8.395 4.779 8.343 4.957 8.305 5.139 C 8.305 5.22 8.32 5.261 8.337 5.244" fill="rgb(33,31,94)"/></g></g></g></svg>