<?xml version="1.0" encoding="UTF-8" standalone="no"?><!-- Generator: Gravit.io --><svg xmlns="http://www.w3.org/2000/svg" xmlns:xlink="http://www.w3.org/1999/xlink" style="isolation:isolate" viewBox="0 0 60.873 60.904" width="60.873pt" height="60.904pt"><defs><clipPath id="_clipPath_njktQo8WMgeAjMeXy0TGf1OYgNI1hwCB"><rect width="60.873" height="60.904"/></clipPath></defs><g clip-path="url(#_clipPath_njktQo8WMgeAjMeXy0TGf1OYgNI1hwCB)"><g><path d=" M 40.662 2.63 C 56.007 8.27 63.883 25.315 58.239 40.67 C 52.596 56.026 35.556 63.913 20.211 58.274 C 4.866 52.634 -3.01 35.589 2.634 20.234 C 8.277 4.878 25.317 -3.009 40.662 2.63 Z " fill="rgb(212,175,55)" vector-effect="non-scaling-stroke" stroke-width="1.614" stroke="rgb(0,0,0)" stroke-linejoin="miter" stroke-linecap="butt" stroke-miterlimit="4"/><mask id="_mask_CMysaAkgvE2uywK1H5l1FbEBOQhb5Ltj" x="-200%" y="-200%" width="400%" height="400%"><rect x="-200%" y="-200%" width="400%" height="400%" style="fill:white;"/><path d=" M 26.845 29.368 C 27.464 28.532 29.2 28.893 29.794 29.401 C 30.675 30.242 31.596 31.392 30.841 33.17 C 30.459 34.233 28.897 35.055 28.916 34.933 C 28.916 34.931 29.511 33.708 29.662 33.212 C 29.931 32.7 29.778 31.338 29.712 31.42 C 29.528 30.68 28.938 30.182 28.433 29.913 C 27.839 29.592 27.355 29.507 26.845 29.369 L 26.845 29.368 Z " fill-rule="evenodd" fill="black" stroke="none"/></mask><path d=" M 26.845 29.368 C 27.464 28.532 29.2 28.893 29.794 29.401 C 30.675 30.242 31.596 31.392 30.841 33.17 C 30.459 34.233 28.897 35.055 28.916 34.933 C 28.916 34.931 29.511 33.708 29.662 33.212 C 29.931 32.7 29.778 31.338 29.712 31.42 C 29.528 30.68 28.938 30.182 28.433 29.913 C 27.839 29.592 27.355 29.507 26.845 29.369 L 26.845 29.368 Z " fill-rule="evenodd" fill="rgb(0,0,0)"/><path d=" M 26.845 29.368 C 27.464 28.532 29.2 28.893 29.794 29.401 C 30.675 30.242 31.596 31.392 30.841 33.17 C 30.459 34.233 28.897 35.055 28.916 34.933 C 28.916 34.931 29.511 33.708 29.662 33.212 C 29.931 32.7 29.778 31.338 29.712 31.42 C 29.528 30.68 28.938 30.182 28.433 29.913 C 27.839 29.592 27.355 29.507 26.845 29.369 L 26.845 29.368 Z " fill-rule="evenodd" fill="rgb(0,0,0)" mask="url(#_mask_CMysaAkgvE2uywK1H5l1FbEBOQhb5Ltj)" vector-effect="non-scaling-stroke" stroke-width="1.195" stroke="rgb(0,0,0)" stroke-linejoin="miter" stroke-linecap="butt" stroke-miterlimit="4"/><mask id="_mask_17foU55dTsiZEfkukZfRAl5PHy1oo11H" x="-200%" y="-200%" width="400%" height="400%"><rect x="-200%" y="-200%" width="400%" height="400%" style="fill:white;"/><path d=" M 32.335 35.566 C 32.954 34.729 34.689 35.09 35.284 35.598 C 36.164 36.439 37.086 37.589 36.33 39.367 C 35.948 40.43 34.387 41.252 34.406 41.13 C 34.407 41.129 35.001 39.905 35.151 39.409 C 35.42 38.897 35.268 37.535 35.201 37.617 C 35.018 36.877 34.427 36.379 33.923 36.11 C 33.329 35.789 32.844 35.704 32.335 35.566 L 32.335 35.566 Z " fill-rule="evenodd" fill="black" stroke="none"/></mask><path d=" M 32.335 35.566 C 32.954 34.729 34.689 35.09 35.284 35.598 C 36.164 36.439 37.086 37.589 36.33 39.367 C 35.948 40.43 34.387 41.252 34.406 41.13 C 34.407 41.129 35.001 39.905 35.151 39.409 C 35.42 38.897 35.268 37.535 35.201 37.617 C 35.018 36.877 34.427 36.379 33.923 36.11 C 33.329 35.789 32.844 35.704 32.335 35.566 L 32.335 35.566 Z " fill-rule="evenodd" fill="rgb(0,0,0)"/><path d=" M 32.335 35.566 C 32.954 34.729 34.689 35.09 35.284 35.598 C 36.164 36.439 37.086 37.589 36.33 39.367 C 35.948 40.43 34.387 41.252 34.406 41.13 C 34.407 41.129 35.001 39.905 35.151 39.409 C 35.42 38.897 35.268 37.535 35.201 37.617 C 35.018 36.877 34.427 36.379 33.923 36.11 C 33.329 35.789 32.844 35.704 32.335 35.566 L 32.335 35.566 Z " fill-rule="evenodd" fill="rgb(0,0,0)" mask="url(#_mask_17foU55dTsiZEfkukZfRAl5PHy1oo11H)" vector-effect="non-scaling-stroke" stroke-width="1.195" stroke="rgb(0,0,0)" stroke-linejoin="miter" stroke-linecap="butt" stroke-miterlimit="4"/><mask id="_mask_MgvpqdJPrrTxokxjt9BPztD7DCuexcmH" x="-200%" y="-200%" width="400%" height="400%"><rect x="-200%" y="-200%" width="400%" height="400%" style="fill:white;"/><path d=" M 30.029 42.277 C 30.648 41.441 32.384 41.801 32.978 42.31 C 33.859 43.15 34.78 44.3 34.025 46.078 C 33.643 47.141 32.081 47.963 32.1 47.842 C 32.1 47.84 32.695 46.616 32.845 46.121 C 33.114 45.609 32.962 44.247 32.896 44.328 C 32.712 43.589 32.122 43.09 31.617 42.822 C 31.023 42.5 30.539 42.416 30.029 42.277 L 30.029 42.277 Z " fill-rule="evenodd" fill="black" stroke="none"/></mask><path d=" M 30.029 42.277 C 30.648 41.441 32.384 41.801 32.978 42.31 C 33.859 43.15 34.78 44.3 34.025 46.078 C 33.643 47.141 32.081 47.963 32.1 47.842 C 32.1 47.84 32.695 46.616 32.845 46.121 C 33.114 45.609 32.962 44.247 32.896 44.328 C 32.712 43.589 32.122 43.09 31.617 42.822 C 31.023 42.5 30.539 42.416 30.029 42.277 L 30.029 42.277 Z " fill-rule="evenodd" fill="rgb(0,0,0)"/><path d=" M 30.029 42.277 C 30.648 41.441 32.384 41.801 32.978 42.31 C 33.859 43.15 34.78 44.3 34.025 46.078 C 33.643 47.141 32.081 47.963 32.1 47.842 C 32.1 47.84 32.695 46.616 32.845 46.121 C 33.114 45.609 32.962 44.247 32.896 44.328 C 32.712 43.589 32.122 43.09 31.617 42.822 C 31.023 42.5 30.539 42.416 30.029 42.277 L 30.029 42.277 Z " fill-rule="evenodd" fill="rgb(0,0,0)" mask="url(#_mask_MgvpqdJPrrTxokxjt9BPztD7DCuexcmH)" vector-effect="non-scaling-stroke" stroke-width="1.195" stroke="rgb(0,0,0)" stroke-linejoin="miter" stroke-linecap="butt" stroke-miterlimit="4"/><mask id="_mask_EF2ekPDozE1EX0lajSShpg9qDPptqwV9" x="-200%" y="-200%" width="400%" height="400%"><rect x="-200%" y="-200%" width="400%" height="400%" style="fill:white;"/><path d=" M 24.232 36.608 C 24.851 35.772 26.587 36.133 27.181 36.641 C 28.062 37.482 28.983 38.632 28.228 40.409 C 27.846 41.472 26.284 42.294 26.303 42.173 C 26.303 42.171 26.898 40.948 27.049 40.452 C 27.318 39.94 27.165 38.578 27.099 38.659 C 26.915 37.92 26.325 37.421 25.82 37.153 C 25.226 36.832 24.742 36.747 24.232 36.608 L 24.232 36.608 Z " fill-rule="evenodd" fill="black" stroke="none"/></mask><path d=" M 24.232 36.608 C 24.851 35.772 26.587 36.133 27.181 36.641 C 28.062 37.482 28.983 38.632 28.228 40.409 C 27.846 41.472 26.284 42.294 26.303 42.173 C 26.303 42.171 26.898 40.948 27.049 40.452 C 27.318 39.94 27.165 38.578 27.099 38.659 C 26.915 37.92 26.325 37.421 25.82 37.153 C 25.226 36.832 24.742 36.747 24.232 36.608 L 24.232 36.608 Z " fill-rule="evenodd" fill="rgb(0,0,0)"/><path d=" M 24.232 36.608 C 24.851 35.772 26.587 36.133 27.181 36.641 C 28.062 37.482 28.983 38.632 28.228 40.409 C 27.846 41.472 26.284 42.294 26.303 42.173 C 26.303 42.171 26.898 40.948 27.049 40.452 C 27.318 39.94 27.165 38.578 27.099 38.659 C 26.915 37.92 26.325 37.421 25.82 37.153 C 25.226 36.832 24.742 36.747 24.232 36.608 L 24.232 36.608 Z " fill-rule="evenodd" fill="rgb(0,0,0)" mask="url(#_mask_EF2ekPDozE1EX0lajSShpg9qDPptqwV9)" vector-effect="non-scaling-stroke" stroke-width="1.195" stroke="rgb(0,0,0)" stroke-linejoin="miter" stroke-linecap="butt" stroke-miterlimit="4"/><mask id="_mask_csqZrAbYLwki9cOuOkOFBklkQqeKWSLQ" x="-200%" y="-200%" width="400%" height="400%"><rect x="-200%" y="-200%" width="400%" height="400%" style="fill:white;"/><path d=" M 18.912 30.954 C 19.532 30.118 21.267 30.479 21.862 30.987 C 22.742 31.828 23.664 32.977 22.908 34.755 C 22.526 35.818 20.964 36.64 20.984 36.519 C 20.984 36.517 21.578 35.294 21.729 34.798 C 21.998 34.286 21.845 32.924 21.779 33.005 C 21.596 32.266 21.005 31.767 20.501 31.499 C 19.907 31.177 19.422 31.093 18.912 30.954 L 18.912 30.954 Z " fill-rule="evenodd" fill="black" stroke="none"/></mask><path d=" M 18.912 30.954 C 19.532 30.118 21.267 30.479 21.862 30.987 C 22.742 31.828 23.664 32.977 22.908 34.755 C 22.526 35.818 20.964 36.64 20.984 36.519 C 20.984 36.517 21.578 35.294 21.729 34.798 C 21.998 34.286 21.845 32.924 21.779 33.005 C 21.596 32.266 21.005 31.767 20.501 31.499 C 19.907 31.177 19.422 31.093 18.912 30.954 L 18.912 30.954 Z " fill-rule="evenodd" fill="rgb(0,0,0)"/><path d=" M 18.912 30.954 C 19.532 30.118 21.267 30.479 21.862 30.987 C 22.742 31.828 23.664 32.977 22.908 34.755 C 22.526 35.818 20.964 36.64 20.984 36.519 C 20.984 36.517 21.578 35.294 21.729 34.798 C 21.998 34.286 21.845 32.924 21.779 33.005 C 21.596 32.266 21.005 31.767 20.501 31.499 C 19.907 31.177 19.422 31.093 18.912 30.954 L 18.912 30.954 Z " fill-rule="evenodd" fill="rgb(0,0,0)" mask="url(#_mask_csqZrAbYLwki9cOuOkOFBklkQqeKWSLQ)" vector-effect="non-scaling-stroke" stroke-width="1.195" stroke="rgb(0,0,0)" stroke-linejoin="miter" stroke-linecap="butt" stroke-miterlimit="4"/><mask id="_mask_tpc2u4bk5dwCBtR6L8fqg3r9ZLut1pA2" x="-200%" y="-200%" width="400%" height="400%"><rect x="-200%" y="-200%" width="400%" height="400%" style="fill:white;"/><path d=" M 13.815 24.256 C 14.435 23.42 16.17 23.781 16.765 24.289 C 17.645 25.13 18.567 26.279 17.811 28.057 C 17.429 29.12 15.868 29.942 15.887 29.821 C 15.887 29.819 16.481 28.596 16.632 28.1 C 16.901 27.588 16.749 26.226 16.682 26.307 C 16.499 25.568 15.908 25.069 15.404 24.801 C 14.81 24.48 14.325 24.395 13.815 24.256 L 13.815 24.256 Z " fill-rule="evenodd" fill="black" stroke="none"/></mask><path d=" M 13.815 24.256 C 14.435 23.42 16.17 23.781 16.765 24.289 C 17.645 25.13 18.567 26.279 17.811 28.057 C 17.429 29.12 15.868 29.942 15.887 29.821 C 15.887 29.819 16.481 28.596 16.632 28.1 C 16.901 27.588 16.749 26.226 16.682 26.307 C 16.499 25.568 15.908 25.069 15.404 24.801 C 14.81 24.48 14.325 24.395 13.815 24.256 L 13.815 24.256 Z " fill-rule="evenodd" fill="rgb(0,0,0)"/><path d=" M 13.815 24.256 C 14.435 23.42 16.17 23.781 16.765 24.289 C 17.645 25.13 18.567 26.279 17.811 28.057 C 17.429 29.12 15.868 29.942 15.887 29.821 C 15.887 29.819 16.481 28.596 16.632 28.1 C 16.901 27.588 16.749 26.226 16.682 26.307 C 16.499 25.568 15.908 25.069 15.404 24.801 C 14.81 24.48 14.325 24.395 13.815 24.256 L 13.815 24.256 Z " fill-rule="evenodd" fill="rgb(0,0,0)" mask="url(#_mask_tpc2u4bk5dwCBtR6L8fqg3r9ZLut1pA2)" vector-effect="non-scaling-stroke" stroke-width="1.195" stroke="rgb(0,0,0)" stroke-linejoin="miter" stroke-linecap="butt" stroke-miterlimit="4"/><mask id="_mask_TpNDll6o3qYQ1fPLJNeBorTGSFMoze6R" x="-200%" y="-200%" width="400%" height="400%"><rect x="-200%" y="-200%" width="400%" height="400%" style="fill:white;"/><path d=" M 16.271 37.703 C 16.89 36.867 18.626 37.227 19.22 37.736 C 19.511 38.013 19.806 38.324 20.044 38.681 C 20.526 39.404 20.773 40.313 20.267 41.504 C 19.885 42.567 18.323 43.389 18.342 43.267 C 18.342 43.266 18.937 42.042 19.088 41.547 C 19.357 41.034 19.204 39.673 19.138 39.754 C 18.954 39.015 18.364 38.516 17.859 38.248 C 17.265 37.926 16.781 37.842 16.271 37.703 L 16.271 37.703 Z " fill-rule="evenodd" fill="black" stroke="none"/></mask><path d=" M 16.271 37.703 C 16.89 36.867 18.626 37.227 19.22 37.736 C 19.511 38.013 19.806 38.324 20.044 38.681 C 20.526 39.404 20.773 40.313 20.267 41.504 C 19.885 42.567 18.323 43.389 18.342 43.267 C 18.342 43.266 18.937 42.042 19.088 41.547 C 19.357 41.034 19.204 39.673 19.138 39.754 C 18.954 39.015 18.364 38.516 17.859 38.248 C 17.265 37.926 16.781 37.842 16.271 37.703 L 16.271 37.703 Z " fill-rule="evenodd" fill="rgb(0,0,0)"/><path d=" M 16.271 37.703 C 16.89 36.867 18.626 37.227 19.22 37.736 C 19.511 38.013 19.806 38.324 20.044 38.681 C 20.526 39.404 20.773 40.313 20.267 41.504 C 19.885 42.567 18.323 43.389 18.342 43.267 C 18.342 43.266 18.937 42.042 19.088 41.547 C 19.357 41.034 19.204 39.673 19.138 39.754 C 18.954 39.015 18.364 38.516 17.859 38.248 C 17.265 37.926 16.781 37.842 16.271 37.703 L 16.271 37.703 Z " fill-rule="evenodd" fill="rgb(0,0,0)" mask="url(#_mask_TpNDll6o3qYQ1fPLJNeBorTGSFMoze6R)" vector-effect="non-scaling-stroke" stroke-width="1.195" stroke="rgb(0,0,0)" stroke-linejoin="miter" stroke-linecap="butt" stroke-miterlimit="4"/><mask id="_mask_DKeqSDOmK4cr1LdDrxg1A9VnM9NqG80m" x="-200%" y="-200%" width="400%" height="400%"><rect x="-200%" y="-200%" width="400%" height="400%" style="fill:white;"/><path d=" M 21.643 43.215 C 22.262 42.379 23.998 42.74 24.592 43.248 C 25.472 44.089 26.394 45.239 25.639 47.016 C 25.257 48.079 23.695 48.901 23.714 48.78 C 23.715 48.778 24.309 47.555 24.459 47.059 C 24.728 46.547 24.576 45.185 24.51 45.267 C 24.326 44.527 23.736 44.028 23.231 43.76 C 22.637 43.439 22.153 43.354 21.643 43.215 L 21.643 43.215 Z " fill-rule="evenodd" fill="black" stroke="none"/></mask><path d=" M 21.643 43.215 C 22.262 42.379 23.998 42.74 24.592 43.248 C 25.472 44.089 26.394 45.239 25.639 47.016 C 25.257 48.079 23.695 48.901 23.714 48.78 C 23.715 48.778 24.309 47.555 24.459 47.059 C 24.728 46.547 24.576 45.185 24.51 45.267 C 24.326 44.527 23.736 44.028 23.231 43.76 C 22.637 43.439 22.153 43.354 21.643 43.215 L 21.643 43.215 Z " fill-rule="evenodd" fill="rgb(0,0,0)"/><path d=" M 21.643 43.215 C 22.262 42.379 23.998 42.74 24.592 43.248 C 25.472 44.089 26.394 45.239 25.639 47.016 C 25.257 48.079 23.695 48.901 23.714 48.78 C 23.715 48.778 24.309 47.555 24.459 47.059 C 24.728 46.547 24.576 45.185 24.51 45.267 C 24.326 44.527 23.736 44.028 23.231 43.76 C 22.637 43.439 22.153 43.354 21.643 43.215 L 21.643 43.215 Z " fill-rule="evenodd" fill="rgb(0,0,0)" mask="url(#_mask_DKeqSDOmK4cr1LdDrxg1A9VnM9NqG80m)" vector-effect="non-scaling-stroke" stroke-width="1.195" stroke="rgb(0,0,0)" stroke-linejoin="miter" stroke-linecap="butt" stroke-miterlimit="4"/><mask id="_mask_9vGm3ZJmOYrWlM5ZXaVh62tODl5wdvXg" x="-200%" y="-200%" width="400%" height="400%"><rect x="-200%" y="-200%" width="400%" height="400%" style="fill:white;"/><path d=" M 26.67 48.661 C 27.028 47.89 28.477 47.894 29.037 48.203 C 29.88 48.732 30.806 49.502 30.493 51.049 C 30.362 51.963 29.246 52.877 29.241 52.777 C 29.242 52.776 29.517 51.698 29.556 51.277 C 29.687 50.823 29.342 49.757 29.302 49.833 C 29.034 49.271 28.479 48.969 28.031 48.837 C 27.503 48.677 27.101 48.688 26.67 48.661 L 26.67 48.661 Z " fill-rule="evenodd" fill="black" stroke="none"/></mask><path d=" M 26.67 48.661 C 27.028 47.89 28.477 47.894 29.037 48.203 C 29.88 48.732 30.806 49.502 30.493 51.049 C 30.362 51.963 29.246 52.877 29.241 52.777 C 29.242 52.776 29.517 51.698 29.556 51.277 C 29.687 50.823 29.342 49.757 29.302 49.833 C 29.034 49.271 28.479 48.969 28.031 48.837 C 27.503 48.677 27.101 48.688 26.67 48.661 L 26.67 48.661 Z " fill-rule="evenodd" fill="rgb(0,0,0)"/><path d=" M 26.67 48.661 C 27.028 47.89 28.477 47.894 29.037 48.203 C 29.88 48.732 30.806 49.502 30.493 51.049 C 30.362 51.963 29.246 52.877 29.241 52.777 C 29.242 52.776 29.517 51.698 29.556 51.277 C 29.687 50.823 29.342 49.757 29.302 49.833 C 29.034 49.271 28.479 48.969 28.031 48.837 C 27.503 48.677 27.101 48.688 26.67 48.661 L 26.67 48.661 Z " fill-rule="evenodd" fill="rgb(0,0,0)" mask="url(#_mask_9vGm3ZJmOYrWlM5ZXaVh62tODl5wdvXg)" vector-effect="non-scaling-stroke" stroke-width="0.977" stroke="rgb(0,0,0)" stroke-linejoin="miter" stroke-linecap="butt" stroke-miterlimit="4"/><mask id="_mask_eyWyPjeV7hlIEqPHLu5UutITO61Upb4L" x="-200%" y="-200%" width="400%" height="400%"><rect x="-200%" y="-200%" width="400%" height="400%" style="fill:white;"/><path d=" M 31.476 52.825 C 31.608 52.154 32.885 51.881 33.452 52.016 C 34.321 52.268 35.322 52.693 35.416 53.961 C 35.518 54.7 34.754 55.628 34.726 55.55 C 34.726 55.549 34.711 54.655 34.644 54.318 C 34.652 53.938 34.092 53.172 34.075 53.239 C 33.705 52.851 33.144 52.72 32.717 52.703 C 32.214 52.679 31.862 52.764 31.476 52.825 L 31.476 52.825 Z " fill-rule="evenodd" fill="black" stroke="none"/></mask><path d=" M 31.476 52.825 C 31.608 52.154 32.885 51.881 33.452 52.016 C 34.321 52.268 35.322 52.693 35.416 53.961 C 35.518 54.7 34.754 55.628 34.726 55.55 C 34.726 55.549 34.711 54.655 34.644 54.318 C 34.652 53.938 34.092 53.172 34.075 53.239 C 33.705 52.851 33.144 52.72 32.717 52.703 C 32.214 52.679 31.862 52.764 31.476 52.825 L 31.476 52.825 Z " fill-rule="evenodd" fill="rgb(0,0,0)"/><path d=" M 31.476 52.825 C 31.608 52.154 32.885 51.881 33.452 52.016 C 34.321 52.268 35.322 52.693 35.416 53.961 C 35.518 54.7 34.754 55.628 34.726 55.55 C 34.726 55.549 34.711 54.655 34.644 54.318 C 34.652 53.938 34.092 53.172 34.075 53.239 C 33.705 52.851 33.144 52.72 32.717 52.703 C 32.214 52.679 31.862 52.764 31.476 52.825 L 31.476 52.825 Z " fill-rule="evenodd" fill="rgb(0,0,0)" mask="url(#_mask_eyWyPjeV7hlIEqPHLu5UutITO61Upb4L)" vector-effect="non-scaling-stroke" stroke-width="0.837" stroke="rgb(0,0,0)" stroke-linejoin="miter" stroke-linecap="butt" stroke-miterlimit="4"/><mask id="_mask_fglwcNCUpHC3ITQCrngpLmgtklr3hTSk" x="-200%" y="-200%" width="400%" height="400%"><rect x="-200%" y="-200%" width="400%" height="400%" style="fill:white;"/><path d=" M 35.421 47.779 C 35.812 47.29 37.001 47.556 37.422 47.881 C 38.048 48.414 38.713 49.136 38.262 50.191 C 38.041 50.824 37.01 51.278 37.019 51.205 C 37.019 51.204 37.38 50.48 37.464 50.184 C 37.629 49.881 37.478 49.053 37.436 49.1 C 37.286 48.647 36.868 48.329 36.517 48.153 C 36.103 47.942 35.772 47.877 35.421 47.779 L 35.421 47.779 Z " fill-rule="evenodd" fill="black" stroke="none"/></mask><path d=" M 35.421 47.779 C 35.812 47.29 37.001 47.556 37.422 47.881 C 38.048 48.414 38.713 49.136 38.262 50.191 C 38.041 50.824 37.01 51.278 37.019 51.205 C 37.019 51.204 37.38 50.48 37.464 50.184 C 37.629 49.881 37.478 49.053 37.436 49.1 C 37.286 48.647 36.868 48.329 36.517 48.153 C 36.103 47.942 35.772 47.877 35.421 47.779 L 35.421 47.779 Z " fill-rule="evenodd" fill="rgb(0,0,0)"/><path d=" M 35.421 47.779 C 35.812 47.29 37.001 47.556 37.422 47.881 C 38.048 48.414 38.713 49.136 38.262 50.191 C 38.041 50.824 37.01 51.278 37.019 51.205 C 37.019 51.204 37.38 50.48 37.464 50.184 C 37.629 49.881 37.478 49.053 37.436 49.1 C 37.286 48.647 36.868 48.329 36.517 48.153 C 36.103 47.942 35.772 47.877 35.421 47.779 L 35.421 47.779 Z " fill-rule="evenodd" fill="rgb(0,0,0)" mask="url(#_mask_fglwcNCUpHC3ITQCrngpLmgtklr3hTSk)" vector-effect="non-scaling-stroke" stroke-width="0.765" stroke="rgb(0,0,0)" stroke-linejoin="miter" stroke-linecap="butt" stroke-miterlimit="4"/><mask id="_mask_3k9xPG2Csp5drQB0V5XTfeoGQVLCdpKV" x="-200%" y="-200%" width="400%" height="400%"><rect x="-200%" y="-200%" width="400%" height="400%" style="fill:white;"/><path d=" M 37.531 41.029 C 38.088 40.273 39.638 40.593 40.168 41.049 C 40.952 41.804 41.773 42.838 41.091 44.444 C 40.746 45.405 39.347 46.151 39.364 46.042 C 39.365 46.04 39.9 44.935 40.036 44.487 C 40.279 44.024 40.147 42.796 40.087 42.87 C 39.926 42.204 39.399 41.756 38.949 41.515 C 38.419 41.227 37.986 41.153 37.531 41.029 L 37.531 41.029 Z " fill-rule="evenodd" fill="black" stroke="none"/></mask><path d=" M 37.531 41.029 C 38.088 40.273 39.638 40.593 40.168 41.049 C 40.952 41.804 41.773 42.838 41.091 44.444 C 40.746 45.405 39.347 46.151 39.364 46.042 C 39.365 46.04 39.9 44.935 40.036 44.487 C 40.279 44.024 40.147 42.796 40.087 42.87 C 39.926 42.204 39.399 41.756 38.949 41.515 C 38.419 41.227 37.986 41.153 37.531 41.029 L 37.531 41.029 Z " fill-rule="evenodd" fill="rgb(0,0,0)"/><path d=" M 37.531 41.029 C 38.088 40.273 39.638 40.593 40.168 41.049 C 40.952 41.804 41.773 42.838 41.091 44.444 C 40.746 45.405 39.347 46.151 39.364 46.042 C 39.365 46.04 39.9 44.935 40.036 44.487 C 40.279 44.024 40.147 42.796 40.087 42.87 C 39.926 42.204 39.399 41.756 38.949 41.515 C 38.419 41.227 37.986 41.153 37.531 41.029 L 37.531 41.029 Z " fill-rule="evenodd" fill="rgb(0,0,0)" mask="url(#_mask_3k9xPG2Csp5drQB0V5XTfeoGQVLCdpKV)" vector-effect="non-scaling-stroke" stroke-width="1.074" stroke="rgb(0,0,0)" stroke-linejoin="miter" stroke-linecap="butt" stroke-miterlimit="4"/><mask id="_mask_WtD1tCZKPGixkLU6m7Id1tCOpem9gdTZ" x="-200%" y="-200%" width="400%" height="400%"><rect x="-200%" y="-200%" width="400%" height="400%" style="fill:white;"/><path d=" M 42.633 45.722 C 43.017 45.185 44.058 45.391 44.41 45.705 C 44.93 46.226 45.472 46.942 44.993 48.076 C 44.751 48.753 43.798 49.293 43.811 49.216 C 43.811 49.214 44.185 48.433 44.282 48.118 C 44.451 47.79 44.376 46.931 44.335 46.983 C 44.234 46.518 43.884 46.209 43.583 46.046 C 43.229 45.85 42.938 45.803 42.633 45.722 L 42.633 45.722 Z " fill-rule="evenodd" fill="black" stroke="none"/></mask><path d=" M 42.633 45.722 C 43.017 45.185 44.058 45.391 44.41 45.705 C 44.93 46.226 45.472 46.942 44.993 48.076 C 44.751 48.753 43.798 49.293 43.811 49.216 C 43.811 49.214 44.185 48.433 44.282 48.118 C 44.451 47.79 44.376 46.931 44.335 46.983 C 44.234 46.518 43.884 46.209 43.583 46.046 C 43.229 45.85 42.938 45.803 42.633 45.722 L 42.633 45.722 Z " fill-rule="evenodd" fill="rgb(0,0,0)"/><path d=" M 42.633 45.722 C 43.017 45.185 44.058 45.391 44.41 45.705 C 44.93 46.226 45.472 46.942 44.993 48.076 C 44.751 48.753 43.798 49.293 43.811 49.216 C 43.811 49.214 44.185 48.433 44.282 48.118 C 44.451 47.79 44.376 46.931 44.335 46.983 C 44.234 46.518 43.884 46.209 43.583 46.046 C 43.229 45.85 42.938 45.803 42.633 45.722 L 42.633 45.722 Z " fill-rule="evenodd" fill="rgb(0,0,0)" mask="url(#_mask_WtD1tCZKPGixkLU6m7Id1tCOpem9gdTZ)" vector-effect="non-scaling-stroke" stroke-width="0.738" stroke="rgb(0,0,0)" stroke-linejoin="miter" stroke-linecap="butt" stroke-miterlimit="4"/><mask id="_mask_htNaOsQJ77p9sG3tNbV5aE9tOkT2r7mL" x="-200%" y="-200%" width="400%" height="400%"><rect x="-200%" y="-200%" width="400%" height="400%" style="fill:white;"/><path d=" M 45.373 39.213 C 45.815 38.535 46.903 38.716 47.255 39.074 C 47.77 39.672 48.295 40.506 47.714 41.916 C 47.411 42.756 46.367 43.475 46.386 43.38 C 46.387 43.379 46.834 42.404 46.958 42.014 C 47.158 41.605 47.137 40.566 47.09 40.632 C 47.014 40.073 46.664 39.722 46.357 39.544 C 45.995 39.329 45.69 39.291 45.373 39.213 L 45.373 39.213 Z " fill-rule="evenodd" fill="black" stroke="none"/></mask><path d=" M 45.373 39.213 C 45.815 38.535 46.903 38.716 47.255 39.074 C 47.77 39.672 48.295 40.506 47.714 41.916 C 47.411 42.756 46.367 43.475 46.386 43.38 C 46.387 43.379 46.834 42.404 46.958 42.014 C 47.158 41.605 47.137 40.566 47.09 40.632 C 47.014 40.073 46.664 39.722 46.357 39.544 C 45.995 39.329 45.69 39.291 45.373 39.213 L 45.373 39.213 Z " fill-rule="evenodd" fill="rgb(0,0,0)"/><path d=" M 45.373 39.213 C 45.815 38.535 46.903 38.716 47.255 39.074 C 47.77 39.672 48.295 40.506 47.714 41.916 C 47.411 42.756 46.367 43.475 46.386 43.38 C 46.387 43.379 46.834 42.404 46.958 42.014 C 47.158 41.605 47.137 40.566 47.09 40.632 C 47.014 40.073 46.664 39.722 46.357 39.544 C 45.995 39.329 45.69 39.291 45.373 39.213 L 45.373 39.213 Z " fill-rule="evenodd" fill="rgb(0,0,0)" mask="url(#_mask_htNaOsQJ77p9sG3tNbV5aE9tOkT2r7mL)" vector-effect="non-scaling-stroke" stroke-width="0.836" stroke="rgb(0,0,0)" stroke-linejoin="miter" stroke-linecap="butt" stroke-miterlimit="4"/><mask id="_mask_VqItbllkw5sDQl7IkjAHya4ZsuODncKj" x="-200%" y="-200%" width="400%" height="400%"><rect x="-200%" y="-200%" width="400%" height="400%" style="fill:white;"/><path d=" M 41.702 34.673 C 41.933 34.134 42.663 34.573 42.925 35.001 C 43.316 35.699 43.734 36.623 43.476 37.827 C 43.351 38.554 42.729 38.986 42.733 38.9 C 42.734 38.899 42.942 38.078 42.989 37.736 C 43.084 37.395 42.979 36.397 42.954 36.449 C 42.855 35.896 42.595 35.475 42.377 35.23 C 42.121 34.937 41.918 34.826 41.702 34.673 L 41.702 34.673 Z " fill-rule="evenodd" fill="black" stroke="none"/></mask><path d=" M 41.702 34.673 C 41.933 34.134 42.663 34.573 42.925 35.001 C 43.316 35.699 43.734 36.623 43.476 37.827 C 43.351 38.554 42.729 38.986 42.733 38.9 C 42.734 38.899 42.942 38.078 42.989 37.736 C 43.084 37.395 42.979 36.397 42.954 36.449 C 42.855 35.896 42.595 35.475 42.377 35.23 C 42.121 34.937 41.918 34.826 41.702 34.673 L 41.702 34.673 Z " fill-rule="evenodd" fill="rgb(0,0,0)"/><path d=" M 41.702 34.673 C 41.933 34.134 42.663 34.573 42.925 35.001 C 43.316 35.699 43.734 36.623 43.476 37.827 C 43.351 38.554 42.729 38.986 42.733 38.9 C 42.734 38.899 42.942 38.078 42.989 37.736 C 43.084 37.395 42.979 36.397 42.954 36.449 C 42.855 35.896 42.595 35.475 42.377 35.23 C 42.121 34.937 41.918 34.826 41.702 34.673 L 41.702 34.673 Z " fill-rule="evenodd" fill="rgb(0,0,0)" mask="url(#_mask_VqItbllkw5sDQl7IkjAHya4ZsuODncKj)" vector-effect="non-scaling-stroke" stroke-width="0.65" stroke="rgb(0,0,0)" stroke-linejoin="miter" stroke-linecap="butt" stroke-miterlimit="4"/><mask id="_mask_kXqVftftq7ndOX04UHjrFSiawUnYLBjT" x="-200%" y="-200%" width="400%" height="400%"><rect x="-200%" y="-200%" width="400%" height="400%" style="fill:white;"/><path d=" M 49.089 33.48 C 49.362 33.149 49.959 33.829 50.14 34.291 C 50.402 35.026 50.66 35.956 50.281 36.809 C 50.079 37.337 49.471 37.406 49.486 37.339 C 49.486 37.338 49.773 36.771 49.858 36.518 C 49.985 36.286 50.015 35.436 49.986 35.467 C 49.966 34.979 49.786 34.524 49.623 34.229 C 49.43 33.879 49.263 33.699 49.089 33.48 L 49.089 33.48 Z " fill-rule="evenodd" fill="black" stroke="none"/></mask><path d=" M 49.089 33.48 C 49.362 33.149 49.959 33.829 50.14 34.291 C 50.402 35.026 50.66 35.956 50.281 36.809 C 50.079 37.337 49.471 37.406 49.486 37.339 C 49.486 37.338 49.773 36.771 49.858 36.518 C 49.985 36.286 50.015 35.436 49.986 35.467 C 49.966 34.979 49.786 34.524 49.623 34.229 C 49.43 33.879 49.263 33.699 49.089 33.48 L 49.089 33.48 Z " fill-rule="evenodd" fill="rgb(0,0,0)"/><path d=" M 49.089 33.48 C 49.362 33.149 49.959 33.829 50.14 34.291 C 50.402 35.026 50.66 35.956 50.281 36.809 C 50.079 37.337 49.471 37.406 49.486 37.339 C 49.486 37.338 49.773 36.771 49.858 36.518 C 49.985 36.286 50.015 35.436 49.986 35.467 C 49.966 34.979 49.786 34.524 49.623 34.229 C 49.43 33.879 49.263 33.699 49.089 33.48 L 49.089 33.48 Z " fill-rule="evenodd" fill="rgb(0,0,0)" mask="url(#_mask_kXqVftftq7ndOX04UHjrFSiawUnYLBjT)" vector-effect="non-scaling-stroke" stroke-width="0.571" stroke="rgb(0,0,0)" stroke-linejoin="miter" stroke-linecap="butt" stroke-miterlimit="4"/><mask id="_mask_DdPM9hvbbhxH6dM2RT0JP6hgRWIlQ4GZ" x="-200%" y="-200%" width="400%" height="400%"><rect x="-200%" y="-200%" width="400%" height="400%" style="fill:white;"/><path d=" M 25.884 16.86 C 26.054 16.397 26.759 16.929 27.035 17.372 C 27.45 18.087 27.908 19.018 27.766 20.096 C 27.709 20.752 27.171 21.05 27.168 20.971 C 27.169 20.97 27.295 20.24 27.311 19.929 C 27.372 19.627 27.195 18.68 27.176 18.724 C 27.041 18.193 26.768 17.758 26.549 17.492 C 26.29 17.176 26.094 17.039 25.884 16.86 L 25.884 16.86 Z " fill-rule="evenodd" fill="black" stroke="none"/></mask><path d=" M 25.884 16.86 C 26.054 16.397 26.759 16.929 27.035 17.372 C 27.45 18.087 27.908 19.018 27.766 20.096 C 27.709 20.752 27.171 21.05 27.168 20.971 C 27.169 20.97 27.295 20.24 27.311 19.929 C 27.372 19.627 27.195 18.68 27.176 18.724 C 27.041 18.193 26.768 17.758 26.549 17.492 C 26.29 17.176 26.094 17.039 25.884 16.86 L 25.884 16.86 Z " fill-rule="evenodd" fill="rgb(0,0,0)"/><path d=" M 25.884 16.86 C 26.054 16.397 26.759 16.929 27.035 17.372 C 27.45 18.087 27.908 19.018 27.766 20.096 C 27.709 20.752 27.171 21.05 27.168 20.971 C 27.169 20.97 27.295 20.24 27.311 19.929 C 27.372 19.627 27.195 18.68 27.176 18.724 C 27.041 18.193 26.768 17.758 26.549 17.492 C 26.29 17.176 26.094 17.039 25.884 16.86 L 25.884 16.86 Z " fill-rule="evenodd" fill="rgb(0,0,0)" mask="url(#_mask_DdPM9hvbbhxH6dM2RT0JP6hgRWIlQ4GZ)" vector-effect="non-scaling-stroke" stroke-width="0.597" stroke="rgb(0,0,0)" stroke-linejoin="miter" stroke-linecap="butt" stroke-miterlimit="4"/><mask id="_mask_DDNgAYevufMAkhN3EAdIJXwjQ2tCxvmE" x="-200%" y="-200%" width="400%" height="400%"><rect x="-200%" y="-200%" width="400%" height="400%" style="fill:white;"/><path d=" M 51.632 37.247 C 51.801 36.76 52.358 37.052 52.562 37.387 C 52.865 37.938 53.192 38.68 53.01 39.738 C 52.927 40.374 52.458 40.813 52.46 40.74 C 52.461 40.739 52.609 40.013 52.641 39.716 C 52.709 39.413 52.618 38.573 52.6 38.62 C 52.519 38.16 52.317 37.83 52.15 37.645 C 51.953 37.424 51.797 37.353 51.633 37.247 L 51.632 37.247 Z " fill-rule="evenodd" fill="black" stroke="none"/></mask><path d=" M 51.632 37.247 C 51.801 36.76 52.358 37.052 52.562 37.387 C 52.865 37.938 53.192 38.68 53.01 39.738 C 52.927 40.374 52.458 40.813 52.46 40.74 C 52.461 40.739 52.609 40.013 52.641 39.716 C 52.709 39.413 52.618 38.573 52.6 38.62 C 52.519 38.16 52.317 37.83 52.15 37.645 C 51.953 37.424 51.797 37.353 51.633 37.247 L 51.632 37.247 Z " fill-rule="evenodd" fill="rgb(0,0,0)"/><path d=" M 51.632 37.247 C 51.801 36.76 52.358 37.052 52.562 37.387 C 52.865 37.938 53.192 38.68 53.01 39.738 C 52.927 40.374 52.458 40.813 52.46 40.74 C 52.461 40.739 52.609 40.013 52.641 39.716 C 52.709 39.413 52.618 38.573 52.6 38.62 C 52.519 38.16 52.317 37.83 52.15 37.645 C 51.953 37.424 51.797 37.353 51.633 37.247 L 51.632 37.247 Z " fill-rule="evenodd" fill="rgb(0,0,0)" mask="url(#_mask_DDNgAYevufMAkhN3EAdIJXwjQ2tCxvmE)" vector-effect="non-scaling-stroke" stroke-width="0.523" stroke="rgb(0,0,0)" stroke-linejoin="miter" stroke-linecap="butt" stroke-miterlimit="4"/><mask id="_mask_JRnxScYJ9vO9U5MtWSlzss4KZvNYkHPf" x="-200%" y="-200%" width="400%" height="400%"><rect x="-200%" y="-200%" width="400%" height="400%" style="fill:white;"/><path d=" M 53.892 32.051 C 54.133 31.595 54.64 31.968 54.79 32.33 C 55.006 32.92 55.217 33.703 54.877 34.721 C 54.699 35.338 54.168 35.701 54.182 35.629 C 54.182 35.628 54.437 34.933 54.515 34.644 C 54.629 34.355 54.666 33.511 54.641 33.555 C 54.63 33.087 54.481 32.731 54.344 32.523 C 54.182 32.275 54.04 32.181 53.893 32.051 L 53.892 32.051 Z " fill-rule="evenodd" fill="black" stroke="none"/></mask><path d=" M 53.892 32.051 C 54.133 31.595 54.64 31.968 54.79 32.33 C 55.006 32.92 55.217 33.703 54.877 34.721 C 54.699 35.338 54.168 35.701 54.182 35.629 C 54.182 35.628 54.437 34.933 54.515 34.644 C 54.629 34.355 54.666 33.511 54.641 33.555 C 54.63 33.087 54.481 32.731 54.344 32.523 C 54.182 32.275 54.04 32.181 53.893 32.051 L 53.892 32.051 Z " fill-rule="evenodd" fill="rgb(0,0,0)"/><path d=" M 53.892 32.051 C 54.133 31.595 54.64 31.968 54.79 32.33 C 55.006 32.92 55.217 33.703 54.877 34.721 C 54.699 35.338 54.168 35.701 54.182 35.629 C 54.182 35.628 54.437 34.933 54.515 34.644 C 54.629 34.355 54.666 33.511 54.641 33.555 C 54.63 33.087 54.481 32.731 54.344 32.523 C 54.182 32.275 54.04 32.181 53.893 32.051 L 53.892 32.051 Z " fill-rule="evenodd" fill="rgb(0,0,0)" mask="url(#_mask_JRnxScYJ9vO9U5MtWSlzss4KZvNYkHPf)" vector-effect="non-scaling-stroke" stroke-width="0.523" stroke="rgb(0,0,0)" stroke-linejoin="miter" stroke-linecap="butt" stroke-miterlimit="4"/><mask id="_mask_q6gW5XeJe2WL5kZPpVi5D0wDRcbgGsJ5" x="-200%" y="-200%" width="400%" height="400%"><rect x="-200%" y="-200%" width="400%" height="400%" style="fill:white;"/><path d=" M 49.257 43.458 C 49.589 42.967 50.224 42.977 50.401 43.178 C 50.652 43.521 50.887 44.018 50.402 45.006 C 50.143 45.589 49.443 46.169 49.463 46.105 C 49.464 46.104 49.827 45.416 49.939 45.147 C 50.099 44.857 50.186 44.173 50.152 44.222 C 50.16 43.861 49.984 43.665 49.817 43.578 C 49.62 43.473 49.441 43.478 49.257 43.458 L 49.257 43.458 Z " fill-rule="evenodd" fill="black" stroke="none"/></mask><path d=" M 49.257 43.458 C 49.589 42.967 50.224 42.977 50.401 43.178 C 50.652 43.521 50.887 44.018 50.402 45.006 C 50.143 45.589 49.443 46.169 49.463 46.105 C 49.464 46.104 49.827 45.416 49.939 45.147 C 50.099 44.857 50.186 44.173 50.152 44.222 C 50.16 43.861 49.984 43.665 49.817 43.578 C 49.62 43.473 49.441 43.478 49.257 43.458 L 49.257 43.458 Z " fill-rule="evenodd" fill="rgb(0,0,0)"/><path d=" M 49.257 43.458 C 49.589 42.967 50.224 42.977 50.401 43.178 C 50.652 43.521 50.887 44.018 50.402 45.006 C 50.143 45.589 49.443 46.169 49.463 46.105 C 49.464 46.104 49.827 45.416 49.939 45.147 C 50.099 44.857 50.186 44.173 50.152 44.222 C 50.16 43.861 49.984 43.665 49.817 43.578 C 49.62 43.473 49.441 43.478 49.257 43.458 L 49.257 43.458 Z " fill-rule="evenodd" fill="rgb(0,0,0)" mask="url(#_mask_q6gW5XeJe2WL5kZPpVi5D0wDRcbgGsJ5)" vector-effect="non-scaling-stroke" stroke-width="0.519" stroke="rgb(0,0,0)" stroke-linejoin="miter" stroke-linecap="butt" stroke-miterlimit="4"/><mask id="_mask_UBs0ZJH5x27rLp0a8CMXZftjDh9AbMfc" x="-200%" y="-200%" width="400%" height="400%"><rect x="-200%" y="-200%" width="400%" height="400%" style="fill:white;"/><path d=" M 39.203 51.256 C 39.435 50.834 40.483 50.83 40.899 50.996 C 41.527 51.28 42.225 51.695 42.053 52.539 C 41.99 53.038 41.216 53.541 41.209 53.486 C 41.209 53.486 41.37 52.897 41.382 52.667 C 41.461 52.419 41.174 51.84 41.148 51.882 C 40.934 51.577 40.522 51.415 40.193 51.345 C 39.805 51.26 39.515 51.269 39.202 51.256 L 39.203 51.256 Z " fill-rule="evenodd" fill="black" stroke="none"/></mask><path d=" M 39.203 51.256 C 39.435 50.834 40.483 50.83 40.899 50.996 C 41.527 51.28 42.225 51.695 42.053 52.539 C 41.99 53.038 41.216 53.541 41.209 53.486 C 41.209 53.486 41.37 52.897 41.382 52.667 C 41.461 52.419 41.174 51.84 41.148 51.882 C 40.934 51.577 40.522 51.415 40.193 51.345 C 39.805 51.26 39.515 51.269 39.202 51.256 L 39.203 51.256 Z " fill-rule="evenodd" fill="rgb(0,0,0)"/><path d=" M 39.203 51.256 C 39.435 50.834 40.483 50.83 40.899 50.996 C 41.527 51.28 42.225 51.695 42.053 52.539 C 41.99 53.038 41.216 53.541 41.209 53.486 C 41.209 53.486 41.37 52.897 41.382 52.667 C 41.461 52.419 41.174 51.84 41.148 51.882 C 40.934 51.577 40.522 51.415 40.193 51.345 C 39.805 51.26 39.515 51.269 39.202 51.256 L 39.203 51.256 Z " fill-rule="evenodd" fill="rgb(0,0,0)" mask="url(#_mask_UBs0ZJH5x27rLp0a8CMXZftjDh9AbMfc)" vector-effect="non-scaling-stroke" stroke-width="0.613" stroke="rgb(0,0,0)" stroke-linejoin="miter" stroke-linecap="butt" stroke-miterlimit="4"/><mask id="_mask_Q2uKbGZcB9WJUAGN1Sg0ntOOw6cXTFhV" x="-200%" y="-200%" width="400%" height="400%"><rect x="-200%" y="-200%" width="400%" height="400%" style="fill:white;"/><path d=" M 36.145 55.186 C 36.362 54.746 37.372 54.432 37.775 54.456 C 38.385 54.52 39.064 54.679 38.911 55.473 C 38.858 55.93 38.119 56.602 38.112 56.556 C 38.112 56.556 38.257 55.99 38.266 55.784 C 38.336 55.541 38.053 55.118 38.028 55.162 C 37.817 54.957 37.418 54.936 37.1 54.972 C 36.725 55.012 36.445 55.105 36.144 55.186 L 36.145 55.186 Z " fill-rule="evenodd" fill="black" stroke="none"/></mask><path d=" M 36.145 55.186 C 36.362 54.746 37.372 54.432 37.775 54.456 C 38.385 54.52 39.064 54.679 38.911 55.473 C 38.858 55.93 38.119 56.602 38.112 56.556 C 38.112 56.556 38.257 55.99 38.266 55.784 C 38.336 55.541 38.053 55.118 38.028 55.162 C 37.817 54.957 37.418 54.936 37.1 54.972 C 36.725 55.012 36.445 55.105 36.144 55.186 L 36.145 55.186 Z " fill-rule="evenodd" fill="rgb(0,0,0)"/><path d=" M 36.145 55.186 C 36.362 54.746 37.372 54.432 37.775 54.456 C 38.385 54.52 39.064 54.679 38.911 55.473 C 38.858 55.93 38.119 56.602 38.112 56.556 C 38.112 56.556 38.257 55.99 38.266 55.784 C 38.336 55.541 38.053 55.118 38.028 55.162 C 37.817 54.957 37.418 54.936 37.1 54.972 C 36.725 55.012 36.445 55.105 36.144 55.186 L 36.145 55.186 Z " fill-rule="evenodd" fill="rgb(0,0,0)" mask="url(#_mask_Q2uKbGZcB9WJUAGN1Sg0ntOOw6cXTFhV)" vector-effect="non-scaling-stroke" stroke-width="0.567" stroke="rgb(0,0,0)" stroke-linejoin="miter" stroke-linecap="butt" stroke-miterlimit="4"/><mask id="_mask_XOZTUOefgHxG5QMRG8M0IeSkjKk2tz8F" x="-200%" y="-200%" width="400%" height="400%"><rect x="-200%" y="-200%" width="400%" height="400%" style="fill:white;"/><path d=" M 30.126 56.513 C 30.611 56.223 31.925 56.212 32.369 56.322 C 33.025 56.512 33.708 56.79 33.104 57.369 C 32.796 57.71 31.595 58.06 31.611 58.023 C 31.612 58.023 32.083 57.619 32.205 57.462 C 32.415 57.29 32.324 56.898 32.272 56.926 C 32.145 56.72 31.704 56.612 31.324 56.566 C 30.878 56.511 30.51 56.519 30.125 56.513 L 30.126 56.513 Z " fill-rule="evenodd" fill="black" stroke="none"/></mask><path d=" M 30.126 56.513 C 30.611 56.223 31.925 56.212 32.369 56.322 C 33.025 56.512 33.708 56.79 33.104 57.369 C 32.796 57.71 31.595 58.06 31.611 58.023 C 31.612 58.023 32.083 57.619 32.205 57.462 C 32.415 57.29 32.324 56.898 32.272 56.926 C 32.145 56.72 31.704 56.612 31.324 56.566 C 30.878 56.511 30.51 56.519 30.125 56.513 L 30.126 56.513 Z " fill-rule="evenodd" fill="rgb(0,0,0)"/><path d=" M 30.126 56.513 C 30.611 56.223 31.925 56.212 32.369 56.322 C 33.025 56.512 33.708 56.79 33.104 57.369 C 32.796 57.71 31.595 58.06 31.611 58.023 C 31.612 58.023 32.083 57.619 32.205 57.462 C 32.415 57.29 32.324 56.898 32.272 56.926 C 32.145 56.72 31.704 56.612 31.324 56.566 C 30.878 56.511 30.51 56.519 30.125 56.513 L 30.126 56.513 Z " fill-rule="evenodd" fill="rgb(0,0,0)" mask="url(#_mask_XOZTUOefgHxG5QMRG8M0IeSkjKk2tz8F)" vector-effect="non-scaling-stroke" stroke-width="0.567" stroke="rgb(0,0,0)" stroke-linejoin="miter" stroke-linecap="butt" stroke-miterlimit="4"/><mask id="_mask_OSbfALrVWitoKQM1PFzoh9eqG5hvFWIH" x="-200%" y="-200%" width="400%" height="400%"><rect x="-200%" y="-200%" width="400%" height="400%" style="fill:white;"/><path d=" M 42.11 53.72 C 42.377 53.449 43.3 53.303 43.641 53.339 C 44.152 53.414 44.705 53.553 44.429 54.054 C 44.3 54.345 43.544 54.737 43.546 54.707 C 43.547 54.706 43.775 54.351 43.82 54.219 C 43.924 54.067 43.758 53.78 43.729 53.807 C 43.586 53.664 43.247 53.629 42.968 53.634 C 42.639 53.64 42.383 53.684 42.109 53.72 L 42.11 53.72 Z " fill-rule="evenodd" fill="black" stroke="none"/></mask><path d=" M 42.11 53.72 C 42.377 53.449 43.3 53.303 43.641 53.339 C 44.152 53.414 44.705 53.553 44.429 54.054 C 44.3 54.345 43.544 54.737 43.546 54.707 C 43.547 54.706 43.775 54.351 43.82 54.219 C 43.924 54.067 43.758 53.78 43.729 53.807 C 43.586 53.664 43.247 53.629 42.968 53.634 C 42.639 53.64 42.383 53.684 42.109 53.72 L 42.11 53.72 Z " fill-rule="evenodd" fill="rgb(0,0,0)"/><path d=" M 42.11 53.72 C 42.377 53.449 43.3 53.303 43.641 53.339 C 44.152 53.414 44.705 53.553 44.429 54.054 C 44.3 54.345 43.544 54.737 43.546 54.707 C 43.547 54.706 43.775 54.351 43.82 54.219 C 43.924 54.067 43.758 53.78 43.729 53.807 C 43.586 53.664 43.247 53.629 42.968 53.634 C 42.639 53.64 42.383 53.684 42.109 53.72 L 42.11 53.72 Z " fill-rule="evenodd" fill="rgb(0,0,0)" mask="url(#_mask_OSbfALrVWitoKQM1PFzoh9eqG5hvFWIH)" vector-effect="non-scaling-stroke" stroke-width="0.424" stroke="rgb(0,0,0)" stroke-linejoin="miter" stroke-linecap="butt" stroke-miterlimit="4"/><mask id="_mask_be7yLY9SWH68vPMK9S9qTQYoTZIwbXaa" x="-200%" y="-200%" width="400%" height="400%"><rect x="-200%" y="-200%" width="400%" height="400%" style="fill:white;"/><path d=" M 45.584 49.404 C 45.969 49.041 46.939 48.889 47.256 48.961 C 47.722 49.095 48.199 49.321 47.699 50.007 C 47.441 50.406 46.521 50.909 46.537 50.868 C 46.537 50.867 46.923 50.384 47.028 50.202 C 47.201 49.996 47.169 49.584 47.128 49.62 C 47.054 49.411 46.739 49.342 46.463 49.334 C 46.139 49.322 45.868 49.37 45.584 49.404 L 45.584 49.404 Z " fill-rule="evenodd" fill="black" stroke="none"/></mask><path d=" M 45.584 49.404 C 45.969 49.041 46.939 48.889 47.256 48.961 C 47.722 49.095 48.199 49.321 47.699 50.007 C 47.441 50.406 46.521 50.909 46.537 50.868 C 46.537 50.867 46.923 50.384 47.028 50.202 C 47.201 49.996 47.169 49.584 47.128 49.62 C 47.054 49.411 46.739 49.342 46.463 49.334 C 46.139 49.322 45.868 49.37 45.584 49.404 L 45.584 49.404 Z " fill-rule="evenodd" fill="rgb(0,0,0)"/><path d=" M 45.584 49.404 C 45.969 49.041 46.939 48.889 47.256 48.961 C 47.722 49.095 48.199 49.321 47.699 50.007 C 47.441 50.406 46.521 50.909 46.537 50.868 C 46.537 50.867 46.923 50.384 47.028 50.202 C 47.201 49.996 47.169 49.584 47.128 49.62 C 47.054 49.411 46.739 49.342 46.463 49.334 C 46.139 49.322 45.868 49.37 45.584 49.404 L 45.584 49.404 Z " fill-rule="evenodd" fill="rgb(0,0,0)" mask="url(#_mask_be7yLY9SWH68vPMK9S9qTQYoTZIwbXaa)" vector-effect="non-scaling-stroke" stroke-width="0.501" stroke="rgb(0,0,0)" stroke-linejoin="miter" stroke-linecap="butt" stroke-miterlimit="4"/><mask id="_mask_xQWuJkeqZwtjrJQITKAFzLp3BxmA7u3y" x="-200%" y="-200%" width="400%" height="400%"><rect x="-200%" y="-200%" width="400%" height="400%" style="fill:white;"/><path d=" M 50.55 46.936 C 50.79 46.579 51.417 46.235 51.625 46.211 C 51.932 46.197 52.249 46.247 51.944 46.868 C 51.787 47.221 51.203 47.809 51.212 47.775 C 51.213 47.774 51.45 47.329 51.513 47.171 C 51.618 46.98 51.587 46.686 51.561 46.723 C 51.507 46.589 51.3 46.614 51.12 46.674 C 50.909 46.744 50.734 46.843 50.55 46.936 L 50.55 46.936 Z " fill-rule="evenodd" fill="black" stroke="none"/></mask><path d=" M 50.55 46.936 C 50.79 46.579 51.417 46.235 51.625 46.211 C 51.932 46.197 52.249 46.247 51.944 46.868 C 51.787 47.221 51.203 47.809 51.212 47.775 C 51.213 47.774 51.45 47.329 51.513 47.171 C 51.618 46.98 51.587 46.686 51.561 46.723 C 51.507 46.589 51.3 46.614 51.12 46.674 C 50.909 46.744 50.734 46.843 50.55 46.936 L 50.55 46.936 Z " fill-rule="evenodd" fill="rgb(0,0,0)"/><path d=" M 50.55 46.936 C 50.79 46.579 51.417 46.235 51.625 46.211 C 51.932 46.197 52.249 46.247 51.944 46.868 C 51.787 47.221 51.203 47.809 51.212 47.775 C 51.213 47.774 51.45 47.329 51.513 47.171 C 51.618 46.98 51.587 46.686 51.561 46.723 C 51.507 46.589 51.3 46.614 51.12 46.674 C 50.909 46.744 50.734 46.843 50.55 46.936 L 50.55 46.936 Z " fill-rule="evenodd" fill="rgb(0,0,0)" mask="url(#_mask_xQWuJkeqZwtjrJQITKAFzLp3BxmA7u3y)" vector-effect="non-scaling-stroke" stroke-width="0.348" stroke="rgb(0,0,0)" stroke-linejoin="miter" stroke-linecap="butt" stroke-miterlimit="4"/><mask id="_mask_iNrRRwQRGN3nfFzHoWocGA9xEJhUAMM4" x="-200%" y="-200%" width="400%" height="400%"><rect x="-200%" y="-200%" width="400%" height="400%" style="fill:white;"/><path d=" M 55.605 35.628 C 55.717 35.288 56.084 35.483 56.212 35.711 C 56.403 36.086 56.606 36.592 56.472 37.323 C 56.408 37.762 56.095 38.072 56.098 38.021 C 56.098 38.02 56.205 37.519 56.23 37.313 C 56.279 37.104 56.232 36.527 56.219 36.559 C 56.173 36.244 56.046 36.02 55.939 35.895 C 55.813 35.745 55.712 35.698 55.606 35.628 L 55.605 35.628 Z " fill-rule="evenodd" fill="black" stroke="none"/></mask><path d=" M 55.605 35.628 C 55.717 35.288 56.084 35.483 56.212 35.711 C 56.403 36.086 56.606 36.592 56.472 37.323 C 56.408 37.762 56.095 38.072 56.098 38.021 C 56.098 38.02 56.205 37.519 56.23 37.313 C 56.279 37.104 56.232 36.527 56.219 36.559 C 56.173 36.244 56.046 36.02 55.939 35.895 C 55.813 35.745 55.712 35.698 55.606 35.628 L 55.605 35.628 Z " fill-rule="evenodd" fill="rgb(0,0,0)"/><path d=" M 55.605 35.628 C 55.717 35.288 56.084 35.483 56.212 35.711 C 56.403 36.086 56.606 36.592 56.472 37.323 C 56.408 37.762 56.095 38.072 56.098 38.021 C 56.098 38.02 56.205 37.519 56.23 37.313 C 56.279 37.104 56.232 36.527 56.219 36.559 C 56.173 36.244 56.046 36.02 55.939 35.895 C 55.813 35.745 55.712 35.698 55.606 35.628 L 55.605 35.628 Z " fill-rule="evenodd" fill="rgb(0,0,0)" mask="url(#_mask_iNrRRwQRGN3nfFzHoWocGA9xEJhUAMM4)" vector-effect="non-scaling-stroke" stroke-width="0.351" stroke="rgb(0,0,0)" stroke-linejoin="miter" stroke-linecap="butt" stroke-miterlimit="4"/><mask id="_mask_EXBSrJNfXfaBvhZYbKea7vmYtNQEVY7F" x="-200%" y="-200%" width="400%" height="400%"><rect x="-200%" y="-200%" width="400%" height="400%" style="fill:white;"/><path d=" M 53.42 41.108 C 53.533 40.769 53.899 40.963 54.027 41.191 C 54.218 41.566 54.421 42.072 54.287 42.803 C 54.223 43.243 53.91 43.552 53.913 43.501 C 53.913 43.501 54.021 42.999 54.046 42.794 C 54.094 42.584 54.047 42.007 54.035 42.04 C 53.988 41.724 53.861 41.5 53.754 41.375 C 53.628 41.226 53.527 41.179 53.421 41.109 L 53.42 41.108 Z " fill-rule="evenodd" fill="black" stroke="none"/></mask><path d=" M 53.42 41.108 C 53.533 40.769 53.899 40.963 54.027 41.191 C 54.218 41.566 54.421 42.072 54.287 42.803 C 54.223 43.243 53.91 43.552 53.913 43.501 C 53.913 43.501 54.021 42.999 54.046 42.794 C 54.094 42.584 54.047 42.007 54.035 42.04 C 53.988 41.724 53.861 41.5 53.754 41.375 C 53.628 41.226 53.527 41.179 53.421 41.109 L 53.42 41.108 Z " fill-rule="evenodd" fill="rgb(0,0,0)"/><path d=" M 53.42 41.108 C 53.533 40.769 53.899 40.963 54.027 41.191 C 54.218 41.566 54.421 42.072 54.287 42.803 C 54.223 43.243 53.91 43.552 53.913 43.501 C 53.913 43.501 54.021 42.999 54.046 42.794 C 54.094 42.584 54.047 42.007 54.035 42.04 C 53.988 41.724 53.861 41.5 53.754 41.375 C 53.628 41.226 53.527 41.179 53.421 41.109 L 53.42 41.108 Z " fill-rule="evenodd" fill="rgb(0,0,0)" mask="url(#_mask_EXBSrJNfXfaBvhZYbKea7vmYtNQEVY7F)" vector-effect="non-scaling-stroke" stroke-width="0.351" stroke="rgb(0,0,0)" stroke-linejoin="miter" stroke-linecap="butt" stroke-miterlimit="4"/><mask id="_mask_yLSeoUESjTTAMU8wpKyoK0Xwf2lzbJy2" x="-200%" y="-200%" width="400%" height="400%"><rect x="-200%" y="-200%" width="400%" height="400%" style="fill:white;"/><path d=" M 16.84 17.685 C 17.336 17.024 18.745 17.322 19.23 17.73 C 19.949 18.405 20.703 19.325 20.102 20.733 C 19.799 21.576 18.539 22.22 18.554 22.123 C 18.554 22.122 19.028 21.153 19.147 20.76 C 19.362 20.354 19.229 19.27 19.176 19.335 C 19.023 18.746 18.541 18.345 18.131 18.129 C 17.647 17.869 17.254 17.799 16.84 17.685 L 16.84 17.685 Z " fill-rule="evenodd" fill="black" stroke="none"/></mask><path d=" M 16.84 17.685 C 17.336 17.024 18.745 17.322 19.23 17.73 C 19.949 18.405 20.703 19.325 20.102 20.733 C 19.799 21.576 18.539 22.22 18.554 22.123 C 18.554 22.122 19.028 21.153 19.147 20.76 C 19.362 20.354 19.229 19.27 19.176 19.335 C 19.023 18.746 18.541 18.345 18.131 18.129 C 17.647 17.869 17.254 17.799 16.84 17.685 L 16.84 17.685 Z " fill-rule="evenodd" fill="rgb(0,0,0)"/><path d=" M 16.84 17.685 C 17.336 17.024 18.745 17.322 19.23 17.73 C 19.949 18.405 20.703 19.325 20.102 20.733 C 19.799 21.576 18.539 22.22 18.554 22.123 C 18.554 22.122 19.028 21.153 19.147 20.76 C 19.362 20.354 19.229 19.27 19.176 19.335 C 19.023 18.746 18.541 18.345 18.131 18.129 C 17.647 17.869 17.254 17.799 16.84 17.685 L 16.84 17.685 Z " fill-rule="evenodd" fill="rgb(0,0,0)" mask="url(#_mask_yLSeoUESjTTAMU8wpKyoK0Xwf2lzbJy2)" vector-effect="non-scaling-stroke" stroke-width="0.96" stroke="rgb(0,0,0)" stroke-linejoin="miter" stroke-linecap="butt" stroke-miterlimit="4"/><mask id="_mask_9xH6cc8gUJyxSF0D2o66f4Br2HaKmuqY" x="-200%" y="-200%" width="400%" height="400%"><rect x="-200%" y="-200%" width="400%" height="400%" style="fill:white;"/><path d=" M 20.317 11.747 C 20.729 11.222 21.941 11.491 22.365 11.831 C 22.994 12.391 23.659 13.151 23.172 14.279 C 22.93 14.956 21.863 15.451 21.874 15.374 C 21.874 15.372 22.261 14.598 22.354 14.282 C 22.53 13.958 22.395 13.078 22.351 13.129 C 22.208 12.649 21.787 12.315 21.431 12.132 C 21.012 11.912 20.673 11.847 20.317 11.747 L 20.317 11.747 Z " fill-rule="evenodd" fill="black" stroke="none"/></mask><path d=" M 20.317 11.747 C 20.729 11.222 21.941 11.491 22.365 11.831 C 22.994 12.391 23.659 13.151 23.172 14.279 C 22.93 14.956 21.863 15.451 21.874 15.374 C 21.874 15.372 22.261 14.598 22.354 14.282 C 22.53 13.958 22.395 13.078 22.351 13.129 C 22.208 12.649 21.787 12.315 21.431 12.132 C 21.012 11.912 20.673 11.847 20.317 11.747 L 20.317 11.747 Z " fill-rule="evenodd" fill="rgb(0,0,0)"/><path d=" M 20.317 11.747 C 20.729 11.222 21.941 11.491 22.365 11.831 C 22.994 12.391 23.659 13.151 23.172 14.279 C 22.93 14.956 21.863 15.451 21.874 15.374 C 21.874 15.372 22.261 14.598 22.354 14.282 C 22.53 13.958 22.395 13.078 22.351 13.129 C 22.208 12.649 21.787 12.315 21.431 12.132 C 21.012 11.912 20.673 11.847 20.317 11.747 L 20.317 11.747 Z " fill-rule="evenodd" fill="rgb(0,0,0)" mask="url(#_mask_9xH6cc8gUJyxSF0D2o66f4Br2HaKmuqY)" vector-effect="non-scaling-stroke" stroke-width="0.799" stroke="rgb(0,0,0)" stroke-linejoin="miter" stroke-linecap="butt" stroke-miterlimit="4"/><mask id="_mask_28D95bgQBku0AZcL1Sy4j2HcLKx5D5PE" x="-200%" y="-200%" width="400%" height="400%"><rect x="-200%" y="-200%" width="400%" height="400%" style="fill:white;"/><path d=" M 10.931 19.55 C 11.436 19.058 12.62 19.72 12.993 20.237 C 13.537 21.069 14.085 22.143 13.403 23.314 C 13.045 24.03 11.881 24.3 11.905 24.213 C 11.905 24.212 12.426 23.422 12.574 23.082 C 12.806 22.756 12.816 21.694 12.763 21.741 C 12.697 21.142 12.326 20.633 11.996 20.318 C 11.608 19.942 11.276 19.769 10.931 19.55 L 10.931 19.55 Z " fill-rule="evenodd" fill="black" stroke="none"/></mask><path d=" M 10.931 19.55 C 11.436 19.058 12.62 19.72 12.993 20.237 C 13.537 21.069 14.085 22.143 13.403 23.314 C 13.045 24.03 11.881 24.3 11.905 24.213 C 11.905 24.212 12.426 23.422 12.574 23.082 C 12.806 22.756 12.816 21.694 12.763 21.741 C 12.697 21.142 12.326 20.633 11.996 20.318 C 11.608 19.942 11.276 19.769 10.931 19.55 L 10.931 19.55 Z " fill-rule="evenodd" fill="rgb(0,0,0)"/><path d=" M 10.931 19.55 C 11.436 19.058 12.62 19.72 12.993 20.237 C 13.537 21.069 14.085 22.143 13.403 23.314 C 13.045 24.03 11.881 24.3 11.905 24.213 C 11.905 24.212 12.426 23.422 12.574 23.082 C 12.806 22.756 12.816 21.694 12.763 21.741 C 12.697 21.142 12.326 20.633 11.996 20.318 C 11.608 19.942 11.276 19.769 10.931 19.55 L 10.931 19.55 Z " fill-rule="evenodd" fill="rgb(0,0,0)" mask="url(#_mask_28D95bgQBku0AZcL1Sy4j2HcLKx5D5PE)" vector-effect="non-scaling-stroke" stroke-width="0.885" stroke="rgb(0,0,0)" stroke-linejoin="miter" stroke-linecap="butt" stroke-miterlimit="4"/><mask id="_mask_Xj9HzgU3NH3o8I3PAVed2azexM9yZ9DE" x="-200%" y="-200%" width="400%" height="400%"><rect x="-200%" y="-200%" width="400%" height="400%" style="fill:white;"/><path d=" M 9.78 15.703 C 10.084 15.345 10.515 15.843 10.603 16.228 C 10.72 16.847 10.8 17.645 10.311 18.504 C 10.039 19.03 9.473 19.219 9.497 19.155 C 9.497 19.154 9.854 18.575 9.974 18.325 C 10.129 18.087 10.298 17.303 10.266 17.337 C 10.33 16.894 10.241 16.515 10.142 16.279 C 10.025 15.998 9.902 15.868 9.78 15.703 L 9.78 15.703 Z " fill-rule="evenodd" fill="black" stroke="none"/></mask><path d=" M 9.78 15.703 C 10.084 15.345 10.515 15.843 10.603 16.228 C 10.72 16.847 10.8 17.645 10.311 18.504 C 10.039 19.03 9.473 19.219 9.497 19.155 C 9.497 19.154 9.854 18.575 9.974 18.325 C 10.129 18.087 10.298 17.303 10.266 17.337 C 10.33 16.894 10.241 16.515 10.142 16.279 C 10.025 15.998 9.902 15.868 9.78 15.703 L 9.78 15.703 Z " fill-rule="evenodd" fill="rgb(0,0,0)"/><path d=" M 9.78 15.703 C 10.084 15.345 10.515 15.843 10.603 16.228 C 10.72 16.847 10.8 17.645 10.311 18.504 C 10.039 19.03 9.473 19.219 9.497 19.155 C 9.497 19.154 9.854 18.575 9.974 18.325 C 10.129 18.087 10.298 17.303 10.266 17.337 C 10.33 16.894 10.241 16.515 10.142 16.279 C 10.025 15.998 9.902 15.868 9.78 15.703 L 9.78 15.703 Z " fill-rule="evenodd" fill="rgb(0,0,0)" mask="url(#_mask_Xj9HzgU3NH3o8I3PAVed2azexM9yZ9DE)" vector-effect="non-scaling-stroke" stroke-width="0.511" stroke="rgb(0,0,0)" stroke-linejoin="miter" stroke-linecap="butt" stroke-miterlimit="4"/><mask id="_mask_688C3zLlT6dZCvqfwANKXd71xlhTj3b4" x="-200%" y="-200%" width="400%" height="400%"><rect x="-200%" y="-200%" width="400%" height="400%" style="fill:white;"/><path d=" M 14.932 12.703 C 15.277 12.336 16.017 12.769 16.238 13.126 C 16.559 13.702 16.872 14.45 16.388 15.307 C 16.129 15.83 15.368 16.059 15.387 15.996 C 15.387 15.996 15.753 15.416 15.861 15.168 C 16.023 14.928 16.069 14.171 16.033 14.206 C 16.013 13.781 15.793 13.43 15.592 13.216 C 15.355 12.96 15.147 12.848 14.932 12.703 L 14.932 12.703 Z " fill-rule="evenodd" fill="black" stroke="none"/></mask><path d=" M 14.932 12.703 C 15.277 12.336 16.017 12.769 16.238 13.126 C 16.559 13.702 16.872 14.45 16.388 15.307 C 16.129 15.83 15.368 16.059 15.387 15.996 C 15.387 15.996 15.753 15.416 15.861 15.168 C 16.023 14.928 16.069 14.171 16.033 14.206 C 16.013 13.781 15.793 13.43 15.592 13.216 C 15.355 12.96 15.147 12.848 14.932 12.703 L 14.932 12.703 Z " fill-rule="evenodd" fill="rgb(0,0,0)"/><path d=" M 14.932 12.703 C 15.277 12.336 16.017 12.769 16.238 13.126 C 16.559 13.702 16.872 14.45 16.388 15.307 C 16.129 15.83 15.368 16.059 15.387 15.996 C 15.387 15.996 15.753 15.416 15.861 15.168 C 16.023 14.928 16.069 14.171 16.033 14.206 C 16.013 13.781 15.793 13.43 15.592 13.216 C 15.355 12.96 15.147 12.848 14.932 12.703 L 14.932 12.703 Z " fill-rule="evenodd" fill="rgb(0,0,0)" mask="url(#_mask_688C3zLlT6dZCvqfwANKXd71xlhTj3b4)" vector-effect="non-scaling-stroke" stroke-width="0.599" stroke="rgb(0,0,0)" stroke-linejoin="miter" stroke-linecap="butt" stroke-miterlimit="4"/><mask id="_mask_6wDFwM4QoeTxEHNcpfWPz9W7QbazCZy6" x="-200%" y="-200%" width="400%" height="400%"><rect x="-200%" y="-200%" width="400%" height="400%" style="fill:white;"/><path d=" M 18.045 7.999 C 18.341 7.657 18.937 8.024 19.108 8.338 C 19.353 8.847 19.586 9.512 19.159 10.301 C 18.929 10.781 18.293 11.013 18.311 10.956 C 18.311 10.955 18.632 10.42 18.729 10.193 C 18.871 9.971 18.934 9.286 18.903 9.319 C 18.901 8.936 18.73 8.627 18.571 8.44 C 18.385 8.217 18.217 8.123 18.045 7.999 L 18.045 7.999 Z " fill-rule="evenodd" fill="black" stroke="none"/></mask><path d=" M 18.045 7.999 C 18.341 7.657 18.937 8.024 19.108 8.338 C 19.353 8.847 19.586 9.512 19.159 10.301 C 18.929 10.781 18.293 11.013 18.311 10.956 C 18.311 10.955 18.632 10.42 18.729 10.193 C 18.871 9.971 18.934 9.286 18.903 9.319 C 18.901 8.936 18.73 8.627 18.571 8.44 C 18.385 8.217 18.217 8.123 18.045 7.999 L 18.045 7.999 Z " fill-rule="evenodd" fill="rgb(0,0,0)"/><path d=" M 18.045 7.999 C 18.341 7.657 18.937 8.024 19.108 8.338 C 19.353 8.847 19.586 9.512 19.159 10.301 C 18.929 10.781 18.293 11.013 18.311 10.956 C 18.311 10.955 18.632 10.42 18.729 10.193 C 18.871 9.971 18.934 9.286 18.903 9.319 C 18.901 8.936 18.73 8.627 18.571 8.44 C 18.385 8.217 18.217 8.123 18.045 7.999 L 18.045 7.999 Z " fill-rule="evenodd" fill="rgb(0,0,0)" mask="url(#_mask_6wDFwM4QoeTxEHNcpfWPz9W7QbazCZy6)" vector-effect="non-scaling-stroke" stroke-width="0.517" stroke="rgb(0,0,0)" stroke-linejoin="miter" stroke-linecap="butt" stroke-miterlimit="4"/><mask id="_mask_85nLq5QRathCeSppv15Ic0mDcjTMyAmU" x="-200%" y="-200%" width="400%" height="400%"><rect x="-200%" y="-200%" width="400%" height="400%" style="fill:white;"/><path d=" M 23.527 7.204 C 23.77 6.79 24.71 6.859 25.068 7.057 C 25.608 7.391 26.199 7.864 25.975 8.714 C 25.88 9.219 25.142 9.678 25.14 9.621 C 25.141 9.621 25.334 9.032 25.364 8.798 C 25.456 8.55 25.245 7.939 25.219 7.98 C 25.052 7.653 24.696 7.459 24.407 7.364 C 24.067 7.251 23.806 7.239 23.527 7.204 L 23.527 7.204 Z " fill-rule="evenodd" fill="black" stroke="none"/></mask><path d=" M 23.527 7.204 C 23.77 6.79 24.71 6.859 25.068 7.057 C 25.608 7.391 26.199 7.864 25.975 8.714 C 25.88 9.219 25.142 9.678 25.14 9.621 C 25.141 9.621 25.334 9.032 25.364 8.798 C 25.456 8.55 25.245 7.939 25.219 7.98 C 25.052 7.653 24.696 7.459 24.407 7.364 C 24.067 7.251 23.806 7.239 23.527 7.204 L 23.527 7.204 Z " fill-rule="evenodd" fill="rgb(0,0,0)"/><path d=" M 23.527 7.204 C 23.77 6.79 24.71 6.859 25.068 7.057 C 25.608 7.391 26.199 7.864 25.975 8.714 C 25.88 9.219 25.142 9.678 25.14 9.621 C 25.141 9.621 25.334 9.032 25.364 8.798 C 25.456 8.55 25.245 7.939 25.219 7.98 C 25.052 7.653 24.696 7.459 24.407 7.364 C 24.067 7.251 23.806 7.239 23.527 7.204 L 23.527 7.204 Z " fill-rule="evenodd" fill="rgb(0,0,0)" mask="url(#_mask_85nLq5QRathCeSppv15Ic0mDcjTMyAmU)" vector-effect="non-scaling-stroke" stroke-width="0.589" stroke="rgb(0,0,0)" stroke-linejoin="miter" stroke-linecap="butt" stroke-miterlimit="4"/><mask id="_mask_GPBWccqZz7ZLiJwtqkk96TPYRBKOssxc" x="-200%" y="-200%" width="400%" height="400%"><rect x="-200%" y="-200%" width="400%" height="400%" style="fill:white;"/><path d=" M 21.928 23.852 C 22.361 23.206 23.597 23.467 24.024 23.851 C 24.657 24.486 25.322 25.358 24.8 26.725 C 24.538 27.543 23.436 28.186 23.448 28.092 C 23.449 28.091 23.86 27.149 23.963 26.769 C 24.149 26.374 24.029 25.333 23.983 25.396 C 23.846 24.832 23.422 24.455 23.062 24.255 C 22.637 24.014 22.292 23.954 21.928 23.852 L 21.928 23.852 Z " fill-rule="evenodd" fill="black" stroke="none"/></mask><path d=" M 21.928 23.852 C 22.361 23.206 23.597 23.467 24.024 23.851 C 24.657 24.486 25.322 25.358 24.8 26.725 C 24.538 27.543 23.436 28.186 23.448 28.092 C 23.449 28.091 23.86 27.149 23.963 26.769 C 24.149 26.374 24.029 25.333 23.983 25.396 C 23.846 24.832 23.422 24.455 23.062 24.255 C 22.637 24.014 22.292 23.954 21.928 23.852 L 21.928 23.852 Z " fill-rule="evenodd" fill="rgb(0,0,0)"/><path d=" M 21.928 23.852 C 22.361 23.206 23.597 23.467 24.024 23.851 C 24.657 24.486 25.322 25.358 24.8 26.725 C 24.538 27.543 23.436 28.186 23.448 28.092 C 23.449 28.091 23.86 27.149 23.963 26.769 C 24.149 26.374 24.029 25.333 23.983 25.396 C 23.846 24.832 23.422 24.455 23.062 24.255 C 22.637 24.014 22.292 23.954 21.928 23.852 L 21.928 23.852 Z " fill-rule="evenodd" fill="rgb(0,0,0)" mask="url(#_mask_GPBWccqZz7ZLiJwtqkk96TPYRBKOssxc)" vector-effect="non-scaling-stroke" stroke-width="0.882" stroke="rgb(0,0,0)" stroke-linejoin="miter" stroke-linecap="butt" stroke-miterlimit="4"/></g></g></svg>