<?xml version="1.0" encoding="UTF-8" standalone="no"?><!-- Generator: Gravit.io --><svg xmlns="http://www.w3.org/2000/svg" xmlns:xlink="http://www.w3.org/1999/xlink" style="isolation:isolate" viewBox="0 0 400 520" width="400pt" height="520pt"><defs><clipPath id="_clipPath_9cxN4jXOnYuEmgPDSZZw3Yvzm3KmSiyw"><rect width="400" height="520"/></clipPath></defs><g clip-path="url(#_clipPath_9cxN4jXOnYuEmgPDSZZw3Yvzm3KmSiyw)"><g><defs><filter id="KhhhJBJTy0rC1Am3ywiUwFRaz4azFM1a" x="-200%" y="-200%" width="400%" height="400%" filterUnits="objectBoundingBox" color-interpolation-filters="sRGB"><feGaussianBlur xmlns="http://www.w3.org/2000/svg" stdDeviation="4.293609062839028"/></filter></defs><g filter="url(#KhhhJBJTy0rC1Am3ywiUwFRaz4azFM1a)"><ellipse vector-effect="non-scaling-stroke" cx="198.91361582044095" cy="491.99999999999994" rx="65" ry="20.166666666666686" fill="rgb(162,162,162)" fill-opacity="0.7"/></g><defs><filter id="0UAh5u9pccSp5u3QdNHvbUwxOiyNVSuN" x="-200%" y="-200%" width="400%" height="400%" filterUnits="objectBoundingBox" color-interpolation-filters="sRGB"><feGaussianBlur xmlns="http://www.w3.org/2000/svg" stdDeviation="0"/></filter></defs><g filter="url(#0UAh5u9pccSp5u3QdNHvbUwxOiyNVSuN)"><path d=" M 18.914 185.931 C 18.914 85.382 99.774 4 199.384 4 C 299.14 4 380 85.382 380 185.931 C 380 239.891 356.562 288.544 319.355 321.863 C 317.304 323.633 246.405 390.124 198.944 492 C 181.073 419.906 111.785 350.613 79.998 322.306 C 42.498 288.839 18.914 240.186 18.914 185.931 Z  M 311.005 185.931" fill="rgb(0,0,0)" vector-effect="non-scaling-stroke" stroke-width="2" stroke="rgb(0,0,0)" stroke-linejoin="miter" stroke-linecap="butt" stroke-miterlimit="4"/></g></g><circle vector-effect="non-scaling-stroke" cx="199" cy="186.99999999999997" r="135" fill="rgb(255,255,255)"/><circle vector-effect="non-scaling-stroke" cx="199.4999999999999" cy="188.07082304388638" r="121.92917695611357" fill="rgb(0,0,0)"/><g><path d=" M 200.707 118 C 226.356 162.275 251.87 206.626 277.413 250.961 C 272.743 251.037 268.057 251.051 263.371 250.99 C 248.935 237.246 233.004 224.369 214.318 216.956 C 196.964 209.964 176.018 211.012 160.235 221.435 C 149.38 228.622 142.686 240.105 136.173 251.037 C 132.116 251.037 128.057 251.022 124 250.961 C 149.559 206.641 175.118 162.306 200.707 118 M 200.722 140.474 C 187.351 163.459 174.129 186.517 160.758 209.484 C 170.177 203.661 181.466 201.819 192.397 202.208 C 215.02 202.508 235.968 214.203 252.228 229.25 C 234.936 199.723 217.956 170.032 200.722 140.474 L 200.722 140.474 Z " fill="rgb(255,255,255)"/></g></g></svg>