<?xml version="1.0" encoding="UTF-8" standalone="no"?><!-- Generator: Gravit.io --><svg xmlns="http://www.w3.org/2000/svg" xmlns:xlink="http://www.w3.org/1999/xlink" style="isolation:isolate" viewBox="0 0 24 24" width="24pt" height="24pt"><defs><clipPath id="_clipPath_jQvNXpeaWQ3UINbhBpP0xxb8sZJ9Buta"><rect width="24" height="24"/></clipPath></defs><g clip-path="url(#_clipPath_jQvNXpeaWQ3UINbhBpP0xxb8sZJ9Buta)"><clipPath id="_clipPath_vVY5lWkjkhgNCckYeVWBhgrMfid6Gxv6"><rect x="0" y="0" width="24" height="24" transform="matrix(1,0,0,1,0,0)" fill="rgb(255,255,255)"/></clipPath><g clip-path="url(#_clipPath_vVY5lWkjkhgNCckYeVWBhgrMfid6Gxv6)"><g><path d=" M 18.219 16.551 C 19.896 14.836 21.02 12.588 21.02 10.02 C 21.02 5.042 16.978 1 12 1 C 7.022 1 2.98 5.042 2.98 10.02 C 2.98 12.62 4.007 14.787 5.844 16.61 L 5.844 16.61 L 11.633 23 L 18.23 16.551 L 18.219 16.551 Z " fill="rgb(1,1,101)"/></g></g><path d=" M 9.968 11.909 C 9.338 11.909 9.035 11.407 9.193 10.827 C 9.52 9.624 11.619 7.841 13.049 7.841 C 14.093 7.841 14.013 8.807 13.402 9.632 L 13.064 10.019 C 11.851 11.251 10.727 11.909 9.968 11.909 Z  M 15.081 3.797 C 13.255 3.798 11.245 4.954 9.982 6.049 L 10.082 6.198 C 12.042 4.776 14.761 3.851 15.511 5.239 C 15.907 5.97 15.235 7.448 14.289 8.616 C 14.515 8.1 14.365 7.11 13.046 7.11 C 10.852 7.11 6.534 10.118 6.534 13.197 C 6.534 14.43 7.361 15.234 8.722 15.234 C 12.365 15.234 17.306 9.052 17.306 5.946 C 17.306 4.849 16.697 3.797 15.081 3.797 Z " fill="rgb(255,255,255)"/></g></svg>