<?xml version="1.0" encoding="UTF-8" standalone="no"?>
<!-- Generator: Gravit.io -->

<svg
   style="isolation:isolate"
   viewBox="0 0 363.086 517"
   width="363.086pt"
   height="517pt"
   version="1.1"
   id="svg243"
   sodipodi:docname="boots.svg"
   inkscape:export-filename="boots_grey.svg"
   inkscape:export-xdpi="96"
   inkscape:export-ydpi="96"
   xmlns:inkscape="http://www.inkscape.org/namespaces/inkscape"
   xmlns:sodipodi="http://sodipodi.sourceforge.net/DTD/sodipodi-0.dtd"
   xmlns="http://www.w3.org/2000/svg"
   xmlns:svg="http://www.w3.org/2000/svg">
  <sodipodi:namedview
     id="namedview245"
     pagecolor="#ffffff"
     bordercolor="#000000"
     borderopacity="0.25"
     inkscape:showpageshadow="2"
     inkscape:pageopacity="0.0"
     inkscape:pagecheckerboard="0"
     inkscape:deskcolor="#d1d1d1"
     inkscape:document-units="pt"
     showgrid="false" />
  <defs
     id="defs131">
    <clipPath
       id="_clipPath_D12PZq4sRSPO69el8Z87E5oQuLS2L3Mv">
      <rect
         width="400"
         height="520"
         id="rect128"
         x="0"
         y="0" />
    </clipPath>
  </defs>
  <g
     clip-path="url(#_clipPath_D12PZq4sRSPO69el8Z87E5oQuLS2L3Mv)"
     id="g241"
     transform="translate(-17.914001,-2.9999999)">
    <g
       id="g151"
       style="fill:#666666">
      <defs
         id="defs136">
        <filter
           id="tqtvqCHyBzQPMShFCNRwacdz6yaPu7eQ"
           x="-0.07926663"
           y="-0.2554875"
           width="1.1585333"
           height="1.510975"
           filterUnits="objectBoundingBox"
           color-interpolation-filters="sRGB">
          <feGaussianBlur
             stdDeviation="4.293609062839028"
             id="feGaussianBlur133" />
        </filter>
      </defs>
      <g
         filter="url(#tqtvqCHyBzQPMShFCNRwacdz6yaPu7eQ)"
         id="g140"
         style="fill:#666666">
        <ellipse
           vector-effect="non-scaling-stroke"
           cx="198.91362"
           cy="492"
           rx="65"
           ry="20.166666"
           fill="rgb(162,162,162)"
           fill-opacity="0.7"
           id="ellipse138"
           style="fill:#666666" />
      </g>
      <defs
         id="defs145">
        <filter
           id="xUQUypoxnlEG9AjohnKbJQDG8cQtAwOk"
           x="-0.0027694234"
           y="-0.0020491802"
           width="1.0055388"
           height="1.0081743"
           filterUnits="objectBoundingBox"
           color-interpolation-filters="sRGB">
          <feGaussianBlur
             stdDeviation="0"
             id="feGaussianBlur142" />
        </filter>
      </defs>
      <g
         filter="url(#xUQUypoxnlEG9AjohnKbJQDG8cQtAwOk)"
         id="g149"
         style="fill:#666666">
        <path
           d="M 18.914,185.931 C 18.914,85.382 99.774,4 199.384,4 299.14,4 380,85.382 380,185.931 c 0,53.96 -23.438,102.613 -60.645,135.932 -2.051,1.77 -72.95,68.261 -120.411,170.137 C 181.073,419.906 111.785,350.613 79.998,322.306 42.498,288.839 18.914,240.186 18.914,185.931 Z m 292.091,0"
           fill="rgb(27,68,142)"
           vector-effect="non-scaling-stroke"
           stroke-width="2"
           stroke="#1b448e"
           stroke-linejoin="miter"
           stroke-linecap="butt"
           stroke-miterlimit="4"
           id="path147"
           style="fill:#666666" />
      </g>
    </g>
    <circle
       vector-effect="non-scaling-stroke"
       cx="199.18182"
       cy="187"
       r="135"
       fill="#ffffff"
       id="circle153" />
    <circle
       vector-effect="non-scaling-stroke"
       cx="199"
       cy="187"
       r="125"
       fill="#1b448e"
       id="circle155" />
    <g
       id="g239">
      <path
         d="m 296.406,173.146 -0.086,-1.335 -0.172,-1.335 -0.259,-1.249 -0.344,-1.249 -0.862,-2.368 -0.947,-2.326 -0.947,-2.282 -0.862,-2.283 -0.344,-1.162 -0.259,-1.206 -0.172,-1.249 -0.086,-1.249 1.12,-0.861 0.301,-0.259 0.258,-0.258 0.259,-0.259 0.215,-0.258 0.259,-0.344 0.258,-0.388 0.129,-0.215 0.086,-0.216 0.086,-0.215 0.087,-0.215 0.043,-0.216 0.043,-0.215 0.043,-0.215 v -0.216 l -0.043,-0.258 -0.043,-0.258 -0.087,-0.259 -0.129,-0.258 -0.172,-0.172 -0.172,-0.13 -0.086,-0.086 -0.087,-0.043 h -0.129 l -0.086,-0.043 -0.129,-0.043 -0.086,-0.043 h -0.129 l -0.13,-0.043 h -0.129 -0.086 -0.129 l -0.129,0.043 -0.259,0.129 -0.301,0.172 -0.302,0.216 -0.258,0.215 -0.215,0.215 -0.216,0.259 -0.215,0.258 -0.172,0.259 -0.302,0.559 -0.258,0.56 -0.474,1.12 -10.594,12.919 -1.421,-0.129 -0.689,-0.043 h -0.689 l -0.689,0.043 -0.689,0.086 -0.689,0.13 -0.646,0.172 -0.646,0.215 -0.603,0.259 -0.603,0.301 -0.603,0.345 -0.56,0.387 -0.559,0.431 -0.517,0.473 -0.517,0.517 -0.56,0.603 -0.517,0.646 -0.43,0.689 -0.388,0.732 -0.344,0.775 -0.259,0.776 -0.215,0.818 -0.129,0.818 -0.086,0.818 -0.043,0.862 0.043,0.861 0.086,0.861 0.129,0.818 0.172,0.819 0.216,0.775 0.301,0.775 -3.359,3.488 -3.618,3.187 -0.947,0.732 -0.947,0.646 -0.474,0.259 -0.517,0.215 -0.474,0.172 -0.473,0.129 -0.173,0.043 h -0.172 -0.172 -0.172 -0.13 l -0.129,-0.043 -0.129,-0.043 -0.129,-0.043 -0.129,-0.043 -0.13,-0.086 -0.129,-0.086 -0.129,-0.086 -0.086,-0.086 -0.086,-0.13 -0.086,-0.129 -0.043,-0.129 -0.13,-0.301 -0.086,-0.302 -0.043,-0.301 v -0.302 -0.301 l 0.043,-0.302 0.043,-0.301 0.086,-0.302 0.216,-0.602 0.258,-0.603 0.474,-1.12 15.073,-36.993 22.781,-2.756 2.756,-4.953 h -22.609 l 2.153,-4.952 -6.201,0.258 -2.024,4.35 h -82.814 l 2.024,1.895 0.732,0.775 0.646,0.818 0.56,0.862 0.517,0.861 0.43,0.904 0.388,0.948 0.301,0.99 0.259,0.991 0.215,0.99 0.129,1.034 0.086,1.033 0.044,1.034 -0.044,0.99 -0.086,0.991 -0.301,1.938 34.237,-3.79 38.457,-4.263 -4.953,9.732 -1.464,-0.603 -1.335,-0.603 -1.378,-0.43 -1.421,-0.302 -1.422,-0.215 -1.464,-0.086 -1.464,0.043 -1.464,0.129 -1.464,0.215 -1.422,0.302 -1.421,0.431 -1.378,0.43 -1.335,0.517 -2.541,1.206 -2.325,1.421 -1.507,-0.517 -1.508,-0.344 -1.507,-0.216 -1.507,-0.086 h -1.507 l -1.508,0.129 -1.507,0.216 -1.464,0.344 -1.464,0.388 -1.422,0.474 -2.799,1.162 -2.627,1.378 -2.498,1.508 -0.129,-0.388 -0.129,-0.431 -0.172,-0.387 -0.216,-0.388 -0.215,-0.387 -0.258,-0.388 -0.259,-0.344 -0.301,-0.345 -0.302,-0.301 -0.344,-0.302 -0.345,-0.258 -0.387,-0.259 -0.388,-0.215 -0.387,-0.172 -0.431,-0.129 -0.431,-0.087 -0.99,-0.172 -0.991,-0.086 -0.99,0.043 -0.948,0.129 -0.947,0.216 -0.947,0.301 -0.905,0.345 -0.904,0.387 -1.68,0.905 -1.55,0.947 -2.498,1.766 -0.258,-0.173 -0.302,-0.172 -0.646,-0.344 -0.689,-0.345 -0.603,-0.258 -0.43,-0.13 -0.431,-0.129 -0.43,-0.086 -0.431,-0.086 -0.431,-0.043 -0.43,-0.043 h -0.905 l -0.904,0.086 -0.905,0.172 -0.861,0.216 -0.818,0.301 1.034,-1.895 0.473,-0.947 0.474,-0.991 0.388,-0.99 0.387,-0.991 0.302,-1.033 0.258,-1.034 0.129,-1.12 0.086,-1.119 v -1.12 l -0.086,-1.12 -0.172,-1.119 -0.259,-1.077 -0.301,-1.033 -0.388,-1.034 -0.43,-0.991 -0.517,-0.99 -0.603,-0.947 -0.646,-0.905 -0.732,-0.861 -0.775,-0.818 -0.861,-0.776 -0.905,-0.732 0.302,-0.301 0.301,-0.302 0.603,-0.559 0.646,-0.517 0.689,-0.474 1.378,-0.861 0.689,-0.431 0.646,-0.474 v 0 0 0 0 0 0 0 l 0.043,-0.043 0.043,-0.043 0.043,-0.043 0.043,-0.043 0.043,-0.043 0.044,-0.043 0.043,-0.043 0.043,-0.086 v -0.086 -0.086 -0.087 l -0.043,-0.086 -0.043,-0.129 -0.044,-0.086 -0.043,-0.043 -0.043,-0.043 -0.043,-0.043 -0.043,-0.043 -0.043,-0.043 -0.043,-0.043 h -0.043 l -0.086,-0.043 h -0.129 -0.043 -0.043 l -0.044,-0.043 -0.043,-0.044 -1.119,0.302 -1.163,0.387 -1.163,0.431 -1.119,0.517 -1.938,0.99 -1.378,0.733 -2.671,-0.948 -2.756,-0.732 -2.842,-0.517 -2.885,-0.344 -2.929,-0.173 h -2.928 l -2.885,0.173 -2.843,0.344 -4.392,1.034 -4.307,1.335 -4.177,1.636 -4.005,1.981 -3.833,2.326 -3.617,2.713 -3.403,3.144 -3.186,3.531 -1.163,1.766 -1.077,1.894 -0.947,1.981 -0.388,1.034 -0.344,1.034 -0.259,1.033 -0.172,1.034 -0.086,1.076 v 1.077 l 0.129,1.077 0.258,1.076 0.388,1.034 0.517,1.033 0.43,0.517 0.431,0.517 0.474,0.474 0.517,0.43 0.516,0.388 0.56,0.387 0.56,0.345 0.603,0.301 0.603,0.259 0.646,0.215 0.646,0.172 0.646,0.13 0.689,0.043 0.689,0.043 0.689,-0.043 0.689,-0.087 0.431,-0.129 0.43,-0.172 0.431,-0.172 0.431,-0.216 0.387,-0.258 0.388,-0.301 0.387,-0.302 0.345,-0.344 0.344,-0.345 0.302,-0.388 0.301,-0.387 0.302,-0.388 0.258,-0.387 0.215,-0.431 0.216,-0.431 0.172,-0.43 -0.775,-0.216 -0.775,-0.258 -0.775,-0.301 -0.388,-0.216 -0.345,-0.215 -0.344,-0.215 -0.345,-0.259 -0.301,-0.301 -0.302,-0.302 -0.215,-0.344 -0.215,-0.388 -0.172,-0.387 -0.13,-0.431 -0.086,-0.947 v -0.948 l 0.043,-0.904 0.13,-0.905 0.172,-0.861 0.215,-0.861 0.302,-0.861 0.301,-0.819 0.775,-1.593 0.905,-1.55 0.99,-1.465 1.077,-1.421 2.799,-2.799 2.971,-2.455 3.144,-2.11 3.316,-1.766 3.445,-1.421 3.575,-1.076 3.703,-0.732 3.79,-0.431 2.713,0.129 1.335,0.129 1.292,0.216 1.206,0.301 0.603,0.215 0.56,0.216 0.559,0.301 0.517,0.302 0.517,0.344 0.474,0.431 -5.814,3.617 -2.885,2.369 -2.67,2.584 -2.455,2.756 -2.326,2.885 -2.153,2.972 -2.067,3.014 -3.876,6.072 -1.076,-0.086 -1.077,-0.043 h -1.077 l -1.033,0.086 -1.034,0.173 -0.99,0.258 -0.474,0.129 -0.474,0.172 -0.43,0.216 -0.431,0.215 -0.258,0.172 -0.259,0.173 -0.258,0.215 -0.216,0.215 -0.215,0.216 -0.215,0.215 -0.216,0.215 -0.172,0.259 -0.172,0.258 -0.129,0.258 -0.129,0.259 -0.13,0.301 -0.086,0.302 -0.086,0.301 -0.043,0.302 0.258,0.387 0.044,0.517 0.086,0.474 0.129,0.473 0.172,0.474 0.215,0.431 0.259,0.43 0.301,0.431 0.302,0.388 0.344,0.387 0.388,0.345 0.775,0.646 0.818,0.56 0.818,0.473 -0.602,1.594 -6.676,14.513 -1.421,3.057 -0.732,1.421 -0.344,0.689 -0.388,0.603 -1.464,-0.516 -0.775,-0.216 -0.775,-0.172 -0.819,-0.129 -0.818,-0.086 h -0.431 l -0.43,0.043 -0.431,0.043 -0.43,0.086 -0.819,0.086 -0.818,0.172 -0.818,0.259 -0.775,0.344 -0.776,0.388 -0.775,0.473 -0.732,0.517 -0.689,0.56 -0.646,0.603 -0.603,0.646 -0.56,0.689 -0.516,0.732 -0.474,0.732 -0.431,0.775 -0.344,0.776 -0.302,0.775 -0.344,0.99 -0.259,0.991 -0.172,1.033 -0.129,1.034 -0.043,1.033 0.043,1.034 0.129,1.034 0.172,0.99 0.216,0.991 0.301,0.99 0.345,0.947 0.43,0.948 0.474,0.904 0.517,0.862 0.603,0.818 0.603,0.775 -0.388,0.517 -0.387,0.473 -0.862,0.905 -0.947,0.818 -0.991,0.775 -1.076,0.646 -1.12,0.603 -0.991,0.388 -1.162,0.43 -1.68,0.345 -0.904,0.129 -0.905,0.086 h -0.473 l -0.431,-0.043 -0.431,-0.043 -0.43,-0.086 -0.431,-0.129 -0.387,-0.129 -0.388,-0.216 -0.388,-0.258 0.56,-0.086 0.517,-0.13 0.517,-0.172 0.517,-0.215 0.473,-0.258 0.259,-0.13 0.215,-0.172 0.215,-0.172 0.216,-0.172 0.215,-0.216 0.215,-0.215 0.216,-0.215 0.215,-0.216 0.172,-0.215 0.172,-0.258 0.13,-0.259 0.129,-0.258 0.129,-0.259 0.086,-0.301 0.086,-0.302 0.043,-0.301 0.043,-0.258 v -0.302 -0.258 l -0.043,-0.259 -0.043,-0.258 -0.086,-0.215 -0.086,-0.345 -0.129,-0.344 -0.129,-0.345 -0.173,-0.344 -0.215,-0.302 -0.215,-0.301 -0.259,-0.302 -0.258,-0.301 -0.301,-0.259 -0.302,-0.258 -0.301,-0.215 -0.302,-0.216 -0.344,-0.172 -0.302,-0.172 -0.344,-0.129 -0.345,-0.087 -0.387,-0.086 -0.388,-0.086 -0.388,-0.043 -0.387,-0.043 h -0.388 -0.387 l -0.388,0.043 -0.388,0.043 -0.387,0.086 -0.388,0.086 -0.387,0.13 -0.345,0.129 -0.344,0.172 -0.345,0.172 -0.301,0.216 -0.302,0.215 -0.387,0.258 -0.388,0.302 -0.344,0.301 -0.302,0.345 -0.301,0.344 -0.259,0.388 -0.215,0.388 -0.172,0.387 -0.173,0.431 -0.129,0.43 -0.086,0.431 -0.043,0.474 v 0.474 0.473 l 0.043,0.474 0.086,0.474 0.086,0.559 0.13,0.517 0.559,0.732 0.259,0.517 0.301,0.474 0.345,0.431 0.387,0.43 0.388,0.388 0.431,0.387 0.43,0.388 0.474,0.344 0.474,0.302 0.99,0.517 0.991,0.43 1.421,0.388 1.421,0.258 1.421,0.129 h 1.421 l 1.378,-0.129 1.335,-0.215 1.335,-0.301 1.335,-0.388 2.541,-0.947 2.412,-1.163 2.239,-1.249 2.067,-1.249 2.24,1.206 2.153,1.033 1.077,0.431 1.076,0.388 1.077,0.387 1.119,0.345 2.154,0.473 2.153,0.302 2.153,0.129 h 2.11 l 2.111,-0.172 2.067,-0.302 2.024,-0.43 1.981,-0.603 1.938,-0.775 1.895,-0.905 1.851,-1.033 1.766,-1.163 1.723,-1.292 1.636,-1.421 1.55,-1.55 1.465,-1.68 1.464,-1.852 1.335,-1.938 1.163,-2.067 1.033,-2.153 0.861,-2.196 0.689,-2.283 0.56,-2.325 0.388,-2.369 0.258,-2.369 0.086,-2.411 -0.086,-2.412 -0.215,-2.368 -0.388,-2.326 -0.559,-2.282 -0.689,-2.24 -0.862,-2.153 -0.689,-1.636 -0.732,-1.637 -1.507,-3.144 1.636,-0.689 1.637,-0.775 3.273,-1.593 1.593,-0.775 1.507,-0.905 1.465,-0.99 1.421,-1.034 2.842,-2.153 1.421,-1.077 1.464,-1.033 0.948,-0.345 1.033,-0.301 1.034,-0.216 1.077,-0.129 0.516,-0.043 h 0.517 l 0.517,0.043 0.517,0.086 0.516,0.087 0.517,0.129 0.474,0.172 0.474,0.215 -1.981,2.11 -1.895,2.154 -1.766,2.239 -1.636,2.283 -1.508,2.368 -1.378,2.412 -1.292,2.454 -1.162,2.541 -0.948,2.498 -0.861,2.627 -0.689,2.713 -0.474,2.756 -0.129,1.378 -0.043,1.378 0.043,1.379 0.129,1.378 0.258,1.335 0.345,1.335 0.474,1.335 0.603,1.292 0.301,0.43 0.302,0.431 0.344,0.387 0.388,0.388 0.387,0.345 0.431,0.301 0.431,0.301 0.43,0.216 0.431,0.215 0.474,0.172 0.473,0.13 0.474,0.129 0.474,0.086 0.473,0.043 h 0.517 l 0.474,-0.043 1.809,-0.302 1.722,-0.473 1.68,-0.646 1.593,-0.818 1.551,-0.948 1.464,-1.077 1.421,-1.162 1.335,-1.249 2.498,-2.756 2.282,-2.972 2.024,-3.057 1.809,-3.015 2.842,-5.598 1.292,-2.843 1.163,-2.885 0.99,-2.972 0.776,-3.057 0.516,-3.144 0.216,-3.273 1.808,-1.335 1.852,-1.249 1.938,-1.119 1.981,-0.948 2.067,-0.775 1.034,-0.301 1.076,-0.259 1.077,-0.215 1.12,-0.129 1.119,-0.043 h 1.163 l -2.498,2.153 -2.325,2.325 -2.153,2.455 -1.981,2.541 -1.852,2.627 -1.68,2.713 -1.55,2.756 -1.378,2.756 -0.948,2.24 -0.775,2.411 -0.301,1.249 -0.259,1.292 -0.172,1.292 -0.129,1.292 v 1.292 l 0.086,1.292 0.215,1.249 0.302,1.249 0.431,1.162 0.559,1.12 0.732,1.077 0.862,1.033 0.387,0.388 0.388,0.344 0.431,0.302 0.43,0.258 0.474,0.216 0.474,0.172 0.516,0.129 0.517,0.129 0.517,0.086 0.517,0.043 h 0.517 l 0.516,-0.043 0.517,-0.043 0.517,-0.086 0.517,-0.129 0.516,-0.129 1.766,-0.689 1.723,-0.862 1.636,-1.033 1.551,-1.163 1.507,-1.335 1.421,-1.464 1.335,-1.55 1.249,-1.637 1.163,-1.723 1.076,-1.808 1.852,-3.747 1.464,-3.833 1.034,-3.789 0.301,-2.068 0.173,-2.11 v -2.11 l -0.087,-1.033 -0.129,-1.034 -0.215,-1.034 -0.259,-1.033 -0.301,-0.991 -0.388,-0.947 -0.473,-0.948 -0.56,-0.904 -0.603,-0.861 -0.732,-0.861 0.775,-0.56 0.689,-0.474 0.603,-0.388 0.56,-0.344 0.947,-0.517 0.991,-0.474 1.033,-0.387 1.034,-0.345 1.076,-0.258 1.12,-0.215 1.12,-0.13 1.12,-0.043 h 1.119 l 1.12,0.086 1.12,0.13 1.076,0.215 1.034,0.301 0.99,0.388 0.948,0.431 0.904,0.516 -10.292,22.911 -0.388,1.034 -0.345,1.076 -0.301,1.077 -0.215,1.119 -0.043,0.56 -0.043,0.56 v 0.56 l 0.043,0.517 0.129,0.517 0.129,0.516 0.215,0.517 0.259,0.517 0.215,0.344 0.215,0.302 0.259,0.301 0.258,0.259 0.259,0.258 0.301,0.215 0.301,0.216 0.302,0.172 0.603,0.345 0.646,0.258 0.646,0.215 0.646,0.173 1.464,0.043 1.421,-0.13 1.378,-0.258 1.292,-0.388 1.292,-0.516 1.206,-0.646 1.206,-0.732 1.162,-0.819 2.24,-1.851 2.153,-2.025 4.091,-4.134 0.431,0.646 0.517,0.603 0.516,0.56 0.56,0.517 0.603,0.473 0.603,0.431 0.646,0.388 0.689,0.344 0.689,0.302 0.732,0.258 0.732,0.215 0.733,0.173 0.775,0.129 0.775,0.086 0.775,0.043 0.775,0.043 v 0.129 l -0.129,0.259 -0.129,0.258 -0.302,0.474 -0.301,0.43 -0.345,0.388 -0.387,0.388 -0.388,0.344 -0.861,0.689 -1.034,0.689 -1.033,0.603 -1.034,0.517 -1.033,0.431 -1.034,0.387 -1.077,0.345 -2.153,0.646 -48.835,11.756 -31.61,7.709 -1.766,0.56 -1.722,0.775 -1.68,0.904 -0.818,0.517 -0.775,0.56 -0.732,0.603 -0.733,0.646 -0.689,0.689 -0.602,0.732 -0.56,0.775 -0.517,0.818 -0.431,0.862 -0.387,0.861 -0.259,0.646 -0.215,0.689 -0.215,0.689 -0.173,0.732 -0.129,0.775 -0.086,0.776 -0.043,0.775 v 0.775 l 0.043,0.775 0.086,0.775 0.172,0.732 0.216,0.732 0.258,0.689 0.345,0.689 0.387,0.646 0.431,0.603 0.301,-0.473 0.302,-0.431 0.344,-0.388 0.388,-0.344 0.387,-0.345 0.388,-0.301 0.388,-0.258 0.387,-0.216 86.302,-26.829 5.168,-1.68 1.249,-0.474 1.249,-0.516 1.249,-0.603 1.206,-0.689 0.947,-0.646 0.861,-0.689 0.819,-0.732 0.732,-0.819 0.689,-0.861 0.603,-0.904 1.119,-1.852 0.948,-1.938 0.861,-1.981 1.68,-3.962 v 0 0 0 0 0 0 0 h 0.043 0.043 0.086 l 0.043,-0.043 h 0.043 0.043 0.043 l 0.043,-0.043 0.043,-0.043 0.043,-0.043 0.517,-0.259 0.56,-0.344 1.12,-0.775 0.904,-0.646 0.258,-0.216 0.087,-0.043 v -0.043 0 0 0 0 0 l 0.775,-0.603 0.732,-0.646 0.689,-0.646 0.646,-0.689 0.603,-0.732 0.56,-0.775 0.516,-0.775 0.431,-0.818 0.388,-0.819 0.344,-0.861 0.302,-0.861 0.258,-0.861 0.215,-0.862 0.13,-0.904 0.129,-0.904 z"
         fill="#ffffff"
         id="path157" />
      <g
         id="g165">
        <g
           id="g163">
          <g
             id="g161">
            <path
               d="m 289.731,174.61 0.301,-1.119 0.216,-1.12 0.129,-1.12 0.086,-1.119 v -2.24 l -0.215,-2.239 -0.345,-2.24 -0.43,-2.239 -0.905,-4.35 -6.675,9.001 0.775,0.603 0.732,0.603 0.689,0.646 0.646,0.689 0.56,0.689 0.517,0.732 0.474,0.775 0.43,0.775 0.388,0.819 0.344,0.818 0.302,0.861 0.215,0.861 0.173,0.862 0.129,0.904 0.129,1.809 0.387,-0.905 0.345,-0.861 0.301,-0.861 z"
               fill="#1b448e"
               id="path159" />
          </g>
        </g>
      </g>
      <g
         id="g173">
        <g
           id="g171">
          <g
             id="g169">
            <path
               d="m 284.649,179.692 0.129,-0.775 0.043,-0.775 v -0.776 l -0.043,-0.775 -0.129,-0.775 -0.172,-0.732 -0.215,-0.732 -0.302,-0.689 -0.344,-0.689 -0.388,-0.646 -0.431,-0.646 -0.473,-0.603 -0.517,-0.56 -0.603,-0.517 -0.646,-0.516 -0.689,-0.431 -9.431,12.316 0.56,0.69 0.603,0.602 0.646,0.56 0.646,0.517 0.689,0.431 0.689,0.344 0.689,0.302 0.344,0.129 0.345,0.086 0.516,0.129 0.517,0.086 0.517,0.043 0.517,0.043 h 0.517 l 0.516,-0.043 0.517,-0.086 0.517,-0.086 0.474,-0.129 0.473,-0.172 0.474,-0.173 0.431,-0.215 0.43,-0.258 0.431,-0.302 0.388,-0.301 0.387,-0.345 0.215,-0.387 0.216,-0.431 0.172,-0.431 0.172,-0.43 0.302,-0.905 z"
               fill="#1b448e"
               id="path167" />
          </g>
        </g>
      </g>
      <g
         id="g181">
        <g
           id="g179">
          <g
             id="g177">
            <path
               d="m 276.252,168.064 -0.345,-0.086 -0.344,-0.043 -0.345,-0.043 h -0.345 -0.344 l -0.345,0.043 -0.344,0.043 -0.345,0.086 -0.344,0.087 -0.345,0.129 -0.344,0.129 -0.302,0.129 -0.301,0.172 -0.302,0.216 -0.258,0.215 -0.258,0.215 -0.388,0.388 -0.344,0.431 -0.302,0.43 -0.301,0.474 -0.259,0.474 -0.215,0.473 -0.172,0.517 -0.129,0.517 -0.13,0.517 -0.043,0.516 -0.043,0.517 v 0.517 l 0.043,0.517 0.086,0.517 0.13,0.516 0.215,0.517 z"
               fill="#1b448e"
               id="path175" />
          </g>
        </g>
      </g>
      <g
         id="g189">
        <g
           id="g187">
          <g
             id="g185">
            <path
               d="m 205.883,169.098 0.043,-1.163 v -0.603 l -0.043,-0.603 -0.043,-0.301 -0.043,-0.302 -0.086,-0.258 -0.129,-0.258 -0.129,-0.216 -0.172,-0.215 -0.087,-0.086 -0.129,-0.086 -0.258,-0.129 -0.259,-0.13 -0.258,-0.086 -0.258,-0.043 h -0.259 l -0.258,0.043 -0.215,0.043 -0.216,0.086 -0.215,0.13 -0.215,0.129 -0.216,0.129 -0.43,0.345 -0.776,0.689 -2.842,3.014 -2.67,3.101 -2.541,3.23 -2.368,3.316 -2.197,3.402 -2.024,3.445 -1.851,3.531 -1.68,3.575 -1.12,2.368 -0.516,1.378 -0.474,1.422 -0.216,0.732 -0.129,0.732 -0.086,0.732 -0.043,0.732 0.043,0.732 0.086,0.689 0.173,0.689 0.258,0.689 0.086,0.129 0.086,0.13 0.086,0.129 0.086,0.129 0.13,0.086 0.129,0.086 0.129,0.086 0.129,0.086 0.129,0.044 0.13,0.043 0.129,0.043 0.129,0.043 0.129,0.043 0.129,0.043 0.13,0.043 h 0.129 l 0.215,0.043 0.215,0.043 h 0.431 l 0.431,-0.086 0.43,-0.129 0.431,-0.216 0.431,-0.258 0.43,-0.301 0.431,-0.302 0.861,-0.689 0.819,-0.775 1.421,-1.55 1.981,-2.412 1.851,-2.498 1.766,-2.541 1.637,-2.584 1.507,-2.67 1.421,-2.713 2.584,-5.469 1.981,-5.254 0.861,-2.67 0.345,-1.335 z"
               fill="#1b448e"
               id="path183" />
          </g>
        </g>
      </g>
      <g
         id="g197">
        <g
           id="g195">
          <g
             id="g193">
            <path
               d="m 177.159,154.284 0.043,-1.335 v -1.335 l -0.086,-1.335 -0.172,-1.292 -0.129,-0.603 -0.173,-0.603 -0.172,-0.603 -0.215,-0.56 -0.259,-0.56 -0.258,-0.603 -0.345,-0.516 -0.387,-0.517 -2.326,2.153 -2.497,2.885 -2.326,2.972 -2.153,3.014 -2.024,3.058 -7.494,12.575 1.292,0.732 0.603,0.388 0.56,0.387 0.517,0.431 0.474,0.431 0.473,0.516 0.431,0.56 4.78,-2.756 1.163,-0.775 1.12,-0.818 1.076,-0.862 1.034,-0.947 0.99,-0.991 0.905,-1.033 0.861,-1.077 0.775,-1.12 0.732,-1.162 0.689,-1.163 0.603,-1.206 0.517,-1.249 0.474,-1.249 0.387,-1.292 0.302,-1.292 z"
               fill="#1b448e"
               id="path191" />
          </g>
        </g>
      </g>
      <g
         id="g205">
        <g
           id="g203">
          <g
             id="g201">
            <path
               d="m 160.493,198.813 0.388,-2.326 0.258,-2.411 0.129,-2.498 -0.043,-2.498 -0.258,-2.455 -0.216,-1.205 -0.258,-1.163 -0.345,-1.12 -0.387,-1.12 -0.431,-1.033 -0.517,-1.034 -0.775,0.216 -0.818,0.172 -0.861,0.172 -0.862,0.129 -1.722,0.173 -0.818,0.043 h -0.776 l -6.589,14.297 -3.574,7.02 -3.919,6.847 -1.206,1.981 -1.378,2.024 -3.014,4.048 -2.972,3.575 -2.325,2.627 1.335,0.387 1.335,0.302 1.335,0.215 1.335,0.129 1.335,0.043 1.335,-0.043 1.292,-0.129 1.292,-0.215 1.249,-0.302 1.248,-0.344 1.206,-0.431 1.206,-0.474 1.163,-0.516 1.12,-0.603 1.119,-0.646 1.034,-0.689 1.335,-0.991 1.249,-1.033 1.162,-1.12 1.12,-1.163 2.067,-2.455 1.809,-2.626 1.507,-2.757 1.292,-2.885 1.034,-2.971 z"
               fill="#1b448e"
               id="path199" />
          </g>
        </g>
      </g>
      <g
         id="g213">
        <g
           id="g211">
          <g
             id="g209">
            <path
               d="m 153.689,176.031 2.756,-0.301 -1.895,-1.163 z"
               fill="#1b448e"
               id="path207" />
          </g>
        </g>
      </g>
      <g
         id="g221">
        <g
           id="g219">
          <g
             id="g217">
            <path
               d="m 145.248,171.122 v 0 0 0 0 0 0 0 l -0.086,-0.043 -0.129,-0.043 -0.173,-0.043 -0.215,-0.086 -0.258,-0.043 -0.345,-0.087 -0.387,-0.043 -0.474,-0.086 -0.216,-0.043 -0.215,-0.043 h -0.215 -0.215 l -0.216,0.043 -0.215,0.043 -0.172,0.043 -0.173,0.086 -0.172,0.087 -0.172,0.129 -0.172,0.129 -0.13,0.129 -0.129,0.172 -0.129,0.173 -0.086,0.129 -0.086,0.129 -0.086,0.129 -0.043,0.129 -0.044,0.13 -0.043,0.129 -0.043,0.129 v 0.129 0.129 0.13 l 0.043,0.129 0.043,0.129 0.044,0.129 0.043,0.129 0.043,0.13 0.086,0.129 0.086,0.215 0.129,0.172 0.129,0.173 0.129,0.172 0.13,0.129 0.172,0.129 0.172,0.13 0.172,0.129 0.388,0.172 0.388,0.172 0.387,0.173 0.345,0.172 z"
               fill="#1b448e"
               id="path215" />
          </g>
        </g>
      </g>
      <g
         id="g229">
        <g
           id="g227">
          <g
             id="g225">
            <path
               d="m 125.696,212.766 -0.43,-0.388 -0.388,-0.387 -0.387,-0.388 -0.345,-0.431 -0.301,-0.43 -0.302,-0.431 -0.258,-0.474 -0.259,-0.473 -0.215,-0.517 -0.172,-0.474 -0.129,-0.517 -0.13,-0.516 -0.086,-0.517 -0.043,-0.517 -0.043,-0.56 v -0.517 l -0.689,0.603 -0.603,0.689 -0.517,0.733 -0.473,0.775 -0.388,0.818 -0.344,0.861 -0.259,0.862 -0.215,0.904 -0.129,0.56 -0.086,0.56 v 0.559 0.56 l 0.043,0.517 0.086,0.517 0.129,0.517 0.172,0.516 0.216,0.517 0.215,0.517 0.517,0.99 0.603,0.948 0.689,0.947 0.43,-0.43 2.154,-3.23 0.99,-1.637 0.474,-0.861 z"
               fill="#1b448e"
               id="path223" />
          </g>
        </g>
      </g>
      <g
         id="g237">
        <g
           id="g235">
          <g
             id="g233">
            <path
               d="m 233.574,177.668 0.431,-2.024 0.301,-1.938 0.129,-1.809 -0.043,-1.679 -0.043,-0.776 -0.129,-0.732 -0.129,-0.689 -0.172,-0.646 -0.216,-0.603 -0.301,-0.516 -0.302,-0.474 -0.344,-0.431 h -0.043 -0.043 -0.043 -0.043 l -0.086,0.043 -0.13,0.086 -0.301,0.216 -0.345,0.301 -0.775,0.819 -0.861,0.947 -1.593,1.852 -0.517,0.603 -0.129,0.172 -0.044,0.043 v 0 0 0 0 0 l -3.66,5.168 -1.68,2.67 -1.55,2.713 -1.421,2.756 -1.206,2.842 -1.033,2.886 -0.776,3.014 -0.301,1.594 -0.086,0.818 -0.043,0.818 v 0.388 l 0.043,0.387 0.043,0.388 0.086,0.387 0.129,0.388 0.129,0.388 0.216,0.344 0.215,0.345 0.172,0.172 0.173,0.172 0.215,0.129 0.215,0.086 0.216,0.087 0.215,0.043 0.258,0.043 0.216,0.043 h 0.258 l 0.215,-0.043 0.216,-0.043 0.215,-0.043 0.215,-0.087 0.216,-0.086 0.215,-0.086 0.215,-0.086 0.474,-0.215 0.474,-0.302 0.473,-0.344 0.474,-0.388 0.948,-0.861 0.904,-0.991 0.861,-1.076 0.818,-1.12 1.465,-2.153 1.851,-3.402 1.723,-3.402 0.775,-1.766 0.732,-1.766 0.646,-1.808 z"
               fill="#1b448e"
               id="path231" />
          </g>
        </g>
      </g>
    </g>
  </g>
</svg>
