<?xml version="1.0" encoding="UTF-8" standalone="no"?><!-- Generator: Gravit.io --><svg xmlns="http://www.w3.org/2000/svg" xmlns:xlink="http://www.w3.org/1999/xlink" style="isolation:isolate" viewBox="0 0 400 520" width="400pt" height="520pt"><defs><clipPath id="_clipPath_XCRVcGQGHjYqNLcrCxkW2Muk4BoaTq0u"><rect width="400" height="520"/></clipPath></defs><g clip-path="url(#_clipPath_XCRVcGQGHjYqNLcrCxkW2Muk4BoaTq0u)"><g><defs><filter id="kpwkUubGfBrdrGfXScFzQlGKWhCSmNuc" x="-200%" y="-200%" width="400%" height="400%" filterUnits="objectBoundingBox" color-interpolation-filters="sRGB"><feGaussianBlur xmlns="http://www.w3.org/2000/svg" stdDeviation="4.293609062839028"/></filter></defs><g filter="url(#kpwkUubGfBrdrGfXScFzQlGKWhCSmNuc)"><ellipse vector-effect="non-scaling-stroke" cx="198.91361582044095" cy="490" rx="65" ry="20.166666666666686" fill="rgb(162,162,162)" fill-opacity="0.7"/></g><defs><filter id="3qFcYGlQAo6a7ZDZ8vWNVu8Byzl0vVrL" x="-200%" y="-200%" width="400%" height="400%" filterUnits="objectBoundingBox" color-interpolation-filters="sRGB"><feGaussianBlur xmlns="http://www.w3.org/2000/svg" stdDeviation="0"/></filter></defs><g filter="url(#3qFcYGlQAo6a7ZDZ8vWNVu8Byzl0vVrL)"><path d=" M 18.914 183.931 C 18.914 83.382 99.774 2 199.384 2 C 299.14 2 380 83.382 380 183.931 C 380 237.891 356.562 286.544 319.355 319.863 C 317.304 321.633 246.405 388.124 198.944 490 C 181.073 417.906 111.785 348.613 79.998 320.306 C 42.498 286.839 18.914 238.186 18.914 183.931 Z  M 311.005 183.931" fill="rgb(27,68,142)" vector-effect="non-scaling-stroke" stroke-width="2" stroke="rgb(27,68,142)" stroke-linejoin="miter" stroke-linecap="butt" stroke-miterlimit="4"/></g></g><circle vector-effect="non-scaling-stroke" cx="199.18181818181824" cy="184.99999999999997" r="135" fill="rgb(255,255,255)"/><circle vector-effect="non-scaling-stroke" cx="199.00000000000003" cy="185.00000000000003" r="125.00000000000003" fill="rgb(27,68,142)"/><g><path d=" M 296.406 171.146 L 296.32 169.811 L 296.148 168.476 L 295.889 167.227 L 295.545 165.978 L 294.683 163.61 L 293.736 161.284 L 292.789 159.002 L 291.927 156.719 L 291.583 155.557 L 291.324 154.351 L 291.152 153.102 L 291.066 151.853 L 292.186 150.992 L 292.487 150.733 L 292.745 150.475 L 293.004 150.216 L 293.219 149.958 L 293.478 149.614 L 293.736 149.226 L 293.865 149.011 L 293.951 148.795 L 294.037 148.58 L 294.124 148.365 L 294.167 148.149 L 294.21 147.934 L 294.253 147.719 L 294.253 147.503 L 294.21 147.245 L 294.167 146.987 L 294.08 146.728 L 293.951 146.47 L 293.779 146.298 L 293.607 146.168 L 293.521 146.082 L 293.434 146.039 L 293.305 146.039 L 293.219 145.996 L 293.09 145.953 L 293.004 145.91 L 292.875 145.91 L 292.745 145.867 L 292.616 145.867 L 292.53 145.867 L 292.401 145.867 L 292.272 145.91 L 292.013 146.039 L 291.712 146.211 L 291.41 146.427 L 291.152 146.642 L 290.937 146.857 L 290.721 147.116 L 290.506 147.374 L 290.334 147.633 L 290.032 148.192 L 289.774 148.752 L 289.3 149.872 L 278.706 162.791 L 277.285 162.662 L 276.596 162.619 L 275.907 162.619 L 275.218 162.662 L 274.529 162.748 L 273.84 162.878 L 273.194 163.05 L 272.548 163.265 L 271.945 163.524 L 271.342 163.825 L 270.739 164.17 L 270.179 164.557 L 269.62 164.988 L 269.103 165.461 L 268.586 165.978 L 268.026 166.581 L 267.509 167.227 L 267.079 167.916 L 266.691 168.648 L 266.347 169.423 L 266.088 170.199 L 265.873 171.017 L 265.744 171.835 L 265.658 172.653 L 265.615 173.515 L 265.658 174.376 L 265.744 175.237 L 265.873 176.055 L 266.045 176.874 L 266.261 177.649 L 266.562 178.424 L 263.203 181.912 L 259.585 185.099 L 258.638 185.831 L 257.691 186.477 L 257.217 186.736 L 256.7 186.951 L 256.226 187.123 L 255.753 187.252 L 255.58 187.295 L 255.408 187.295 L 255.236 187.295 L 255.064 187.295 L 254.934 187.295 L 254.805 187.252 L 254.676 187.209 L 254.547 187.166 L 254.418 187.123 L 254.288 187.037 L 254.159 186.951 L 254.03 186.865 L 253.944 186.779 L 253.858 186.649 L 253.772 186.52 L 253.729 186.391 L 253.599 186.09 L 253.513 185.788 L 253.47 185.487 L 253.47 185.185 L 253.47 184.884 L 253.513 184.582 L 253.556 184.281 L 253.642 183.979 L 253.858 183.377 L 254.116 182.774 L 254.59 181.654 L 269.663 144.661 L 292.444 141.905 L 295.2 136.952 L 272.591 136.952 L 274.744 132 L 268.543 132.258 L 266.519 136.608 L 183.705 136.608 L 185.729 138.503 L 186.461 139.278 L 187.107 140.096 L 187.667 140.958 L 188.184 141.819 L 188.614 142.723 L 189.002 143.671 L 189.303 144.661 L 189.562 145.652 L 189.777 146.642 L 189.906 147.676 L 189.992 148.709 L 190.036 149.743 L 189.992 150.733 L 189.906 151.724 L 189.605 153.662 L 223.842 149.872 L 262.299 145.609 L 257.346 155.341 L 255.882 154.738 L 254.547 154.135 L 253.169 153.705 L 251.748 153.403 L 250.326 153.188 L 248.862 153.102 L 247.398 153.145 L 245.934 153.274 L 244.47 153.489 L 243.048 153.791 L 241.627 154.222 L 240.249 154.652 L 238.914 155.169 L 236.373 156.375 L 234.048 157.796 L 232.541 157.279 L 231.033 156.935 L 229.526 156.719 L 228.019 156.633 L 226.512 156.633 L 225.004 156.762 L 223.497 156.978 L 222.033 157.322 L 220.569 157.71 L 219.147 158.184 L 216.348 159.346 L 213.721 160.724 L 211.223 162.232 L 211.094 161.844 L 210.965 161.413 L 210.793 161.026 L 210.577 160.638 L 210.362 160.251 L 210.104 159.863 L 209.845 159.519 L 209.544 159.174 L 209.242 158.873 L 208.898 158.571 L 208.553 158.313 L 208.166 158.054 L 207.778 157.839 L 207.391 157.667 L 206.96 157.538 L 206.529 157.451 L 205.539 157.279 L 204.548 157.193 L 203.558 157.236 L 202.61 157.365 L 201.663 157.581 L 200.716 157.882 L 199.811 158.227 L 198.907 158.614 L 197.227 159.519 L 195.677 160.466 L 193.179 162.232 L 192.921 162.059 L 192.619 161.887 L 191.973 161.543 L 191.284 161.198 L 190.681 160.94 L 190.251 160.81 L 189.82 160.681 L 189.39 160.595 L 188.959 160.509 L 188.528 160.466 L 188.098 160.423 L 187.193 160.423 L 186.289 160.509 L 185.384 160.681 L 184.523 160.897 L 183.705 161.198 L 184.739 159.303 L 185.212 158.356 L 185.686 157.365 L 186.074 156.375 L 186.461 155.384 L 186.763 154.351 L 187.021 153.317 L 187.15 152.197 L 187.236 151.078 L 187.236 149.958 L 187.15 148.838 L 186.978 147.719 L 186.719 146.642 L 186.418 145.609 L 186.03 144.575 L 185.6 143.584 L 185.083 142.594 L 184.48 141.647 L 183.834 140.742 L 183.102 139.881 L 182.327 139.063 L 181.466 138.287 L 180.561 137.555 L 180.863 137.254 L 181.164 136.952 L 181.767 136.393 L 182.413 135.876 L 183.102 135.402 L 184.48 134.541 L 185.169 134.11 L 185.815 133.636 L 185.815 133.636 L 185.815 133.636 L 185.815 133.636 L 185.815 133.636 L 185.815 133.636 L 185.815 133.636 L 185.815 133.636 L 185.858 133.593 L 185.901 133.55 L 185.944 133.507 L 185.987 133.464 L 186.03 133.421 L 186.074 133.378 L 186.117 133.335 L 186.16 133.249 L 186.16 133.163 L 186.16 133.077 L 186.16 132.99 L 186.117 132.904 L 186.074 132.775 L 186.03 132.689 L 185.987 132.646 L 185.944 132.603 L 185.901 132.56 L 185.858 132.517 L 185.815 132.474 L 185.772 132.431 L 185.729 132.431 L 185.643 132.388 L 185.514 132.388 L 185.471 132.388 L 185.428 132.388 L 185.384 132.345 L 185.341 132.301 L 184.222 132.603 L 183.059 132.99 L 181.896 133.421 L 180.777 133.938 L 178.839 134.928 L 177.461 135.661 L 174.79 134.713 L 172.034 133.981 L 169.192 133.464 L 166.307 133.12 L 163.378 132.947 L 160.45 132.947 L 157.565 133.12 L 154.722 133.464 L 150.33 134.498 L 146.023 135.833 L 141.846 137.469 L 137.841 139.45 L 134.008 141.776 L 130.391 144.489 L 126.988 147.633 L 123.802 151.164 L 122.639 152.93 L 121.562 154.824 L 120.615 156.805 L 120.227 157.839 L 119.883 158.873 L 119.624 159.906 L 119.452 160.94 L 119.366 162.016 L 119.366 163.093 L 119.495 164.17 L 119.753 165.246 L 120.141 166.28 L 120.658 167.313 L 121.088 167.83 L 121.519 168.347 L 121.993 168.821 L 122.51 169.251 L 123.026 169.639 L 123.586 170.026 L 124.146 170.371 L 124.749 170.672 L 125.352 170.931 L 125.998 171.146 L 126.644 171.318 L 127.29 171.448 L 127.979 171.491 L 128.668 171.534 L 129.357 171.491 L 130.046 171.404 L 130.477 171.275 L 130.907 171.103 L 131.338 170.931 L 131.769 170.715 L 132.156 170.457 L 132.544 170.156 L 132.931 169.854 L 133.276 169.51 L 133.62 169.165 L 133.922 168.777 L 134.223 168.39 L 134.525 168.002 L 134.783 167.615 L 134.998 167.184 L 135.214 166.753 L 135.386 166.323 L 134.611 166.107 L 133.836 165.849 L 133.061 165.548 L 132.673 165.332 L 132.328 165.117 L 131.984 164.902 L 131.639 164.643 L 131.338 164.342 L 131.036 164.04 L 130.821 163.696 L 130.606 163.308 L 130.434 162.921 L 130.304 162.49 L 130.218 161.543 L 130.218 160.595 L 130.261 159.691 L 130.391 158.786 L 130.563 157.925 L 130.778 157.064 L 131.08 156.203 L 131.381 155.384 L 132.156 153.791 L 133.061 152.241 L 134.051 150.776 L 135.128 149.355 L 137.927 146.556 L 140.898 144.101 L 144.042 141.991 L 147.358 140.225 L 150.803 138.804 L 154.378 137.728 L 158.081 136.996 L 161.871 136.565 L 164.584 136.694 L 165.919 136.823 L 167.211 137.039 L 168.417 137.34 L 169.02 137.555 L 169.58 137.771 L 170.139 138.072 L 170.656 138.374 L 171.173 138.718 L 171.647 139.149 L 165.833 142.766 L 162.948 145.135 L 160.278 147.719 L 157.823 150.475 L 155.497 153.36 L 153.344 156.332 L 151.277 159.346 L 147.401 165.418 L 146.325 165.332 L 145.248 165.289 L 144.171 165.289 L 143.138 165.375 L 142.104 165.548 L 141.114 165.806 L 140.64 165.935 L 140.166 166.107 L 139.736 166.323 L 139.305 166.538 L 139.047 166.71 L 138.788 166.883 L 138.53 167.098 L 138.314 167.313 L 138.099 167.529 L 137.884 167.744 L 137.668 167.959 L 137.496 168.218 L 137.324 168.476 L 137.195 168.734 L 137.066 168.993 L 136.936 169.294 L 136.85 169.596 L 136.764 169.897 L 136.721 170.199 L 136.979 170.586 L 137.023 171.103 L 137.109 171.577 L 137.238 172.05 L 137.41 172.524 L 137.625 172.955 L 137.884 173.385 L 138.185 173.816 L 138.487 174.204 L 138.831 174.591 L 139.219 174.936 L 139.994 175.582 L 140.812 176.142 L 141.63 176.615 L 141.028 178.209 L 134.352 192.722 L 132.931 195.779 L 132.199 197.2 L 131.855 197.889 L 131.467 198.492 L 130.003 197.976 L 129.228 197.76 L 128.453 197.588 L 127.634 197.459 L 126.816 197.373 L 126.385 197.373 L 125.955 197.416 L 125.524 197.459 L 125.094 197.545 L 124.275 197.631 L 123.457 197.803 L 122.639 198.062 L 121.864 198.406 L 121.088 198.794 L 120.313 199.267 L 119.581 199.784 L 118.892 200.344 L 118.246 200.947 L 117.643 201.593 L 117.083 202.282 L 116.567 203.014 L 116.093 203.746 L 115.662 204.521 L 115.318 205.297 L 115.016 206.072 L 114.672 207.062 L 114.413 208.053 L 114.241 209.086 L 114.112 210.12 L 114.069 211.153 L 114.112 212.187 L 114.241 213.221 L 114.413 214.211 L 114.629 215.202 L 114.93 216.192 L 115.275 217.139 L 115.705 218.087 L 116.179 218.991 L 116.696 219.853 L 117.299 220.671 L 117.902 221.446 L 117.514 221.963 L 117.127 222.436 L 116.265 223.341 L 115.318 224.159 L 114.327 224.934 L 113.251 225.58 L 112.131 226.183 L 111.14 226.571 L 109.978 227.001 L 108.298 227.346 L 107.394 227.475 L 106.489 227.561 L 106.016 227.561 L 105.585 227.518 L 105.154 227.475 L 104.724 227.389 L 104.293 227.26 L 103.906 227.131 L 103.518 226.915 L 103.13 226.657 L 103.69 226.571 L 104.207 226.441 L 104.724 226.269 L 105.241 226.054 L 105.714 225.796 L 105.973 225.666 L 106.188 225.494 L 106.403 225.322 L 106.619 225.15 L 106.834 224.934 L 107.049 224.719 L 107.265 224.504 L 107.48 224.288 L 107.652 224.073 L 107.824 223.815 L 107.954 223.556 L 108.083 223.298 L 108.212 223.039 L 108.298 222.738 L 108.384 222.436 L 108.427 222.135 L 108.47 221.877 L 108.47 221.575 L 108.47 221.317 L 108.427 221.058 L 108.384 220.8 L 108.298 220.585 L 108.212 220.24 L 108.083 219.896 L 107.954 219.551 L 107.781 219.207 L 107.566 218.905 L 107.351 218.604 L 107.092 218.302 L 106.834 218.001 L 106.533 217.742 L 106.231 217.484 L 105.93 217.269 L 105.628 217.053 L 105.284 216.881 L 104.982 216.709 L 104.638 216.58 L 104.293 216.493 L 103.906 216.407 L 103.518 216.321 L 103.13 216.278 L 102.743 216.235 L 102.355 216.235 L 101.968 216.235 L 101.58 216.278 L 101.192 216.321 L 100.805 216.407 L 100.417 216.493 L 100.03 216.623 L 99.685 216.752 L 99.341 216.924 L 98.996 217.096 L 98.695 217.312 L 98.393 217.527 L 98.006 217.785 L 97.618 218.087 L 97.274 218.388 L 96.972 218.733 L 96.671 219.077 L 96.412 219.465 L 96.197 219.853 L 96.025 220.24 L 95.852 220.671 L 95.723 221.101 L 95.637 221.532 L 95.594 222.006 L 95.594 222.48 L 95.594 222.953 L 95.637 223.427 L 95.723 223.901 L 95.809 224.46 L 95.939 224.977 L 96.498 225.709 L 96.757 226.226 L 97.058 226.7 L 97.403 227.131 L 97.79 227.561 L 98.178 227.949 L 98.609 228.336 L 99.039 228.724 L 99.513 229.068 L 99.987 229.37 L 100.977 229.887 L 101.968 230.317 L 103.389 230.705 L 104.81 230.963 L 106.231 231.092 L 107.652 231.092 L 109.03 230.963 L 110.365 230.748 L 111.7 230.447 L 113.035 230.059 L 115.576 229.112 L 117.988 227.949 L 120.227 226.7 L 122.294 225.451 L 124.534 226.657 L 126.687 227.69 L 127.764 228.121 L 128.84 228.509 L 129.917 228.896 L 131.036 229.241 L 133.19 229.714 L 135.343 230.016 L 137.496 230.145 L 139.606 230.145 L 141.717 229.973 L 143.784 229.671 L 145.808 229.241 L 147.789 228.638 L 149.727 227.863 L 151.622 226.958 L 153.473 225.925 L 155.239 224.762 L 156.962 223.47 L 158.598 222.049 L 160.148 220.499 L 161.613 218.819 L 163.077 216.967 L 164.412 215.029 L 165.575 212.962 L 166.608 210.809 L 167.469 208.613 L 168.158 206.33 L 168.718 204.005 L 169.106 201.636 L 169.364 199.267 L 169.45 196.856 L 169.364 194.444 L 169.149 192.076 L 168.761 189.75 L 168.202 187.468 L 167.513 185.228 L 166.651 183.075 L 165.962 181.439 L 165.23 179.802 L 163.723 176.658 L 165.359 175.969 L 166.996 175.194 L 170.269 173.601 L 171.862 172.826 L 173.369 171.921 L 174.834 170.931 L 176.255 169.897 L 179.097 167.744 L 180.518 166.667 L 181.982 165.634 L 182.93 165.289 L 183.963 164.988 L 184.997 164.772 L 186.074 164.643 L 186.59 164.6 L 187.107 164.6 L 187.624 164.643 L 188.141 164.729 L 188.657 164.816 L 189.174 164.945 L 189.648 165.117 L 190.122 165.332 L 188.141 167.442 L 186.246 169.596 L 184.48 171.835 L 182.844 174.118 L 181.336 176.486 L 179.958 178.898 L 178.666 181.352 L 177.504 183.893 L 176.556 186.391 L 175.695 189.018 L 175.006 191.731 L 174.532 194.487 L 174.403 195.865 L 174.36 197.243 L 174.403 198.622 L 174.532 200 L 174.79 201.335 L 175.135 202.67 L 175.609 204.005 L 176.212 205.297 L 176.513 205.727 L 176.815 206.158 L 177.159 206.545 L 177.547 206.933 L 177.934 207.278 L 178.365 207.579 L 178.796 207.88 L 179.226 208.096 L 179.657 208.311 L 180.131 208.483 L 180.604 208.613 L 181.078 208.742 L 181.552 208.828 L 182.025 208.871 L 182.542 208.871 L 183.016 208.828 L 184.825 208.526 L 186.547 208.053 L 188.227 207.407 L 189.82 206.589 L 191.371 205.641 L 192.835 204.564 L 194.256 203.402 L 195.591 202.153 L 198.089 199.397 L 200.371 196.425 L 202.395 193.368 L 204.204 190.353 L 207.046 184.755 L 208.338 181.912 L 209.501 179.027 L 210.491 176.055 L 211.267 172.998 L 211.783 169.854 L 211.999 166.581 L 213.807 165.246 L 215.659 163.997 L 217.597 162.878 L 219.578 161.93 L 221.645 161.155 L 222.679 160.854 L 223.755 160.595 L 224.832 160.38 L 225.952 160.251 L 227.071 160.208 L 228.234 160.208 L 225.736 162.361 L 223.411 164.686 L 221.258 167.141 L 219.277 169.682 L 217.425 172.309 L 215.745 175.022 L 214.195 177.778 L 212.817 180.534 L 211.869 182.774 L 211.094 185.185 L 210.793 186.434 L 210.534 187.726 L 210.362 189.018 L 210.233 190.31 L 210.233 191.602 L 210.319 192.894 L 210.534 194.143 L 210.836 195.392 L 211.267 196.554 L 211.826 197.674 L 212.558 198.751 L 213.42 199.784 L 213.807 200.172 L 214.195 200.516 L 214.626 200.818 L 215.056 201.076 L 215.53 201.292 L 216.004 201.464 L 216.52 201.593 L 217.037 201.722 L 217.554 201.808 L 218.071 201.851 L 218.588 201.851 L 219.104 201.808 L 219.621 201.765 L 220.138 201.679 L 220.655 201.55 L 221.171 201.421 L 222.937 200.732 L 224.66 199.87 L 226.296 198.837 L 227.847 197.674 L 229.354 196.339 L 230.775 194.875 L 232.11 193.325 L 233.359 191.688 L 234.522 189.965 L 235.598 188.157 L 237.45 184.41 L 238.914 180.577 L 239.948 176.788 L 240.249 174.72 L 240.422 172.61 L 240.422 170.5 L 240.335 169.467 L 240.206 168.433 L 239.991 167.399 L 239.732 166.366 L 239.431 165.375 L 239.043 164.428 L 238.57 163.48 L 238.01 162.576 L 237.407 161.715 L 236.675 160.854 L 237.45 160.294 L 238.139 159.82 L 238.742 159.432 L 239.302 159.088 L 240.249 158.571 L 241.24 158.097 L 242.273 157.71 L 243.307 157.365 L 244.383 157.107 L 245.503 156.892 L 246.623 156.762 L 247.743 156.719 L 248.862 156.719 L 249.982 156.805 L 251.102 156.935 L 252.178 157.15 L 253.212 157.451 L 254.202 157.839 L 255.15 158.27 L 256.054 158.786 L 245.762 181.697 L 245.374 182.731 L 245.029 183.807 L 244.728 184.884 L 244.513 186.003 L 244.47 186.563 L 244.427 187.123 L 244.427 187.683 L 244.47 188.2 L 244.599 188.717 L 244.728 189.233 L 244.943 189.75 L 245.202 190.267 L 245.417 190.611 L 245.632 190.913 L 245.891 191.214 L 246.149 191.473 L 246.408 191.731 L 246.709 191.946 L 247.01 192.162 L 247.312 192.334 L 247.915 192.679 L 248.561 192.937 L 249.207 193.152 L 249.853 193.325 L 251.317 193.368 L 252.738 193.238 L 254.116 192.98 L 255.408 192.592 L 256.7 192.076 L 257.906 191.43 L 259.112 190.698 L 260.274 189.879 L 262.514 188.028 L 264.667 186.003 L 268.758 181.869 L 269.189 182.515 L 269.706 183.118 L 270.222 183.678 L 270.782 184.195 L 271.385 184.668 L 271.988 185.099 L 272.634 185.487 L 273.323 185.831 L 274.012 186.133 L 274.744 186.391 L 275.476 186.606 L 276.209 186.779 L 276.984 186.908 L 277.759 186.994 L 278.534 187.037 L 279.309 187.08 L 279.309 187.209 L 279.18 187.468 L 279.051 187.726 L 278.749 188.2 L 278.448 188.63 L 278.103 189.018 L 277.716 189.406 L 277.328 189.75 L 276.467 190.439 L 275.433 191.128 L 274.4 191.731 L 273.366 192.248 L 272.333 192.679 L 271.299 193.066 L 270.222 193.411 L 268.069 194.057 L 219.234 205.813 L 187.624 213.522 L 185.858 214.082 L 184.136 214.857 L 182.456 215.761 L 181.638 216.278 L 180.863 216.838 L 180.131 217.441 L 179.398 218.087 L 178.709 218.776 L 178.107 219.508 L 177.547 220.283 L 177.03 221.101 L 176.599 221.963 L 176.212 222.824 L 175.953 223.47 L 175.738 224.159 L 175.523 224.848 L 175.35 225.58 L 175.221 226.355 L 175.135 227.131 L 175.092 227.906 L 175.092 228.681 L 175.135 229.456 L 175.221 230.231 L 175.393 230.963 L 175.609 231.695 L 175.867 232.384 L 176.212 233.073 L 176.599 233.719 L 177.03 234.322 L 177.331 233.849 L 177.633 233.418 L 177.977 233.03 L 178.365 232.686 L 178.752 232.341 L 179.14 232.04 L 179.528 231.782 L 179.915 231.566 L 266.217 204.737 L 271.385 203.057 L 272.634 202.583 L 273.883 202.067 L 275.132 201.464 L 276.338 200.775 L 277.285 200.129 L 278.146 199.44 L 278.965 198.708 L 279.697 197.889 L 280.386 197.028 L 280.989 196.124 L 282.108 194.272 L 283.056 192.334 L 283.917 190.353 L 285.597 186.391 L 285.597 186.391 L 285.597 186.391 L 285.597 186.391 L 285.597 186.391 L 285.597 186.391 L 285.597 186.391 L 285.597 186.391 L 285.64 186.391 L 285.683 186.391 L 285.769 186.391 L 285.812 186.348 L 285.855 186.348 L 285.898 186.348 L 285.941 186.348 L 285.984 186.305 L 286.027 186.262 L 286.07 186.219 L 286.587 185.96 L 287.147 185.616 L 288.267 184.841 L 289.171 184.195 L 289.429 183.979 L 289.516 183.936 L 289.516 183.893 L 289.516 183.893 L 289.516 183.893 L 289.516 183.893 L 289.516 183.893 L 289.516 183.893 L 290.291 183.29 L 291.023 182.644 L 291.712 181.998 L 292.358 181.309 L 292.961 180.577 L 293.521 179.802 L 294.037 179.027 L 294.468 178.209 L 294.856 177.39 L 295.2 176.529 L 295.502 175.668 L 295.76 174.807 L 295.975 173.945 L 296.105 173.041 L 296.234 172.137 L 296.406 171.146 Z " fill="rgb(255,255,255)"/><g><g><g><path d=" M 289.731 172.61 L 290.032 171.491 L 290.248 170.371 L 290.377 169.251 L 290.463 168.132 L 290.463 165.892 L 290.248 163.653 L 289.903 161.413 L 289.473 159.174 L 288.568 154.824 L 281.893 163.825 L 282.668 164.428 L 283.4 165.031 L 284.089 165.677 L 284.735 166.366 L 285.295 167.055 L 285.812 167.787 L 286.286 168.562 L 286.716 169.337 L 287.104 170.156 L 287.448 170.974 L 287.75 171.835 L 287.965 172.696 L 288.138 173.558 L 288.267 174.462 L 288.396 176.271 L 288.783 175.366 L 289.128 174.505 L 289.429 173.644 L 289.731 172.61 Z " fill="rgb(27,68,142)"/></g></g></g><g><g><g><path d=" M 284.649 177.692 L 284.778 176.917 L 284.821 176.142 L 284.821 175.366 L 284.778 174.591 L 284.649 173.816 L 284.477 173.084 L 284.262 172.352 L 283.96 171.663 L 283.616 170.974 L 283.228 170.328 L 282.797 169.682 L 282.324 169.079 L 281.807 168.519 L 281.204 168.002 L 280.558 167.486 L 279.869 167.055 L 270.438 179.371 L 270.998 180.061 L 271.601 180.663 L 272.247 181.223 L 272.893 181.74 L 273.582 182.171 L 274.271 182.515 L 274.96 182.817 L 275.304 182.946 L 275.649 183.032 L 276.165 183.161 L 276.682 183.247 L 277.199 183.29 L 277.716 183.333 L 278.233 183.333 L 278.749 183.29 L 279.266 183.204 L 279.783 183.118 L 280.257 182.989 L 280.73 182.817 L 281.204 182.644 L 281.635 182.429 L 282.065 182.171 L 282.496 181.869 L 282.884 181.568 L 283.271 181.223 L 283.486 180.836 L 283.702 180.405 L 283.874 179.974 L 284.046 179.544 L 284.348 178.639 L 284.649 177.692 Z " fill="rgb(27,68,142)"/></g></g></g><g><g><g><path d=" M 276.252 166.064 L 275.907 165.978 L 275.563 165.935 L 275.218 165.892 L 274.873 165.892 L 274.529 165.892 L 274.184 165.935 L 273.84 165.978 L 273.495 166.064 L 273.151 166.151 L 272.806 166.28 L 272.462 166.409 L 272.16 166.538 L 271.859 166.71 L 271.557 166.926 L 271.299 167.141 L 271.041 167.356 L 270.653 167.744 L 270.309 168.175 L 270.007 168.605 L 269.706 169.079 L 269.447 169.553 L 269.232 170.026 L 269.06 170.543 L 268.931 171.06 L 268.801 171.577 L 268.758 172.093 L 268.715 172.61 L 268.715 173.127 L 268.758 173.644 L 268.844 174.161 L 268.974 174.677 L 269.189 175.194 L 276.252 166.064 Z " fill="rgb(27,68,142)"/></g></g></g><g><g><g><path d=" M 205.883 167.098 L 205.926 165.935 L 205.926 165.332 L 205.883 164.729 L 205.84 164.428 L 205.797 164.126 L 205.711 163.868 L 205.582 163.61 L 205.453 163.394 L 205.281 163.179 L 205.194 163.093 L 205.065 163.007 L 204.807 162.878 L 204.548 162.748 L 204.29 162.662 L 204.032 162.619 L 203.773 162.619 L 203.515 162.662 L 203.3 162.705 L 203.084 162.791 L 202.869 162.921 L 202.654 163.05 L 202.438 163.179 L 202.008 163.524 L 201.232 164.213 L 198.39 167.227 L 195.72 170.328 L 193.179 173.558 L 190.811 176.874 L 188.614 180.276 L 186.59 183.721 L 184.739 187.252 L 183.059 190.827 L 181.939 193.195 L 181.423 194.573 L 180.949 195.995 L 180.733 196.727 L 180.604 197.459 L 180.518 198.191 L 180.475 198.923 L 180.518 199.655 L 180.604 200.344 L 180.777 201.033 L 181.035 201.722 L 181.121 201.851 L 181.207 201.981 L 181.293 202.11 L 181.379 202.239 L 181.509 202.325 L 181.638 202.411 L 181.767 202.497 L 181.896 202.583 L 182.025 202.627 L 182.155 202.67 L 182.284 202.713 L 182.413 202.756 L 182.542 202.799 L 182.671 202.842 L 182.801 202.885 L 182.93 202.885 L 183.145 202.928 L 183.36 202.971 L 183.791 202.971 L 184.222 202.885 L 184.652 202.756 L 185.083 202.54 L 185.514 202.282 L 185.944 201.981 L 186.375 201.679 L 187.236 200.99 L 188.055 200.215 L 189.476 198.665 L 191.457 196.253 L 193.308 193.755 L 195.074 191.214 L 196.711 188.63 L 198.218 185.96 L 199.639 183.247 L 202.223 177.778 L 204.204 172.524 L 205.065 169.854 L 205.41 168.519 L 205.883 167.098 Z " fill="rgb(27,68,142)"/></g></g></g><g><g><g><path d=" M 177.159 152.284 L 177.202 150.949 L 177.202 149.614 L 177.116 148.279 L 176.944 146.987 L 176.815 146.384 L 176.642 145.781 L 176.47 145.178 L 176.255 144.618 L 175.996 144.058 L 175.738 143.455 L 175.393 142.939 L 175.006 142.422 L 172.68 144.575 L 170.183 147.46 L 167.857 150.432 L 165.704 153.446 L 163.68 156.504 L 156.186 169.079 L 157.478 169.811 L 158.081 170.199 L 158.641 170.586 L 159.158 171.017 L 159.632 171.448 L 160.105 171.964 L 160.536 172.524 L 165.316 169.768 L 166.479 168.993 L 167.599 168.175 L 168.675 167.313 L 169.709 166.366 L 170.699 165.375 L 171.604 164.342 L 172.465 163.265 L 173.24 162.145 L 173.972 160.983 L 174.661 159.82 L 175.264 158.614 L 175.781 157.365 L 176.255 156.116 L 176.642 154.824 L 176.944 153.532 L 177.159 152.284 Z " fill="rgb(27,68,142)"/></g></g></g><g><g><g><path d=" M 160.493 196.813 L 160.881 194.487 L 161.139 192.076 L 161.268 189.578 L 161.225 187.08 L 160.967 184.625 L 160.751 183.42 L 160.493 182.257 L 160.148 181.137 L 159.761 180.017 L 159.33 178.984 L 158.813 177.95 L 158.038 178.166 L 157.22 178.338 L 156.359 178.51 L 155.497 178.639 L 153.775 178.812 L 152.957 178.855 L 152.181 178.855 L 145.592 193.152 L 142.018 200.172 L 138.099 207.019 L 136.893 209 L 135.515 211.024 L 132.501 215.072 L 129.529 218.647 L 127.204 221.274 L 128.539 221.661 L 129.874 221.963 L 131.209 222.178 L 132.544 222.307 L 133.879 222.35 L 135.214 222.307 L 136.506 222.178 L 137.798 221.963 L 139.047 221.661 L 140.295 221.317 L 141.501 220.886 L 142.707 220.412 L 143.87 219.896 L 144.99 219.293 L 146.109 218.647 L 147.143 217.958 L 148.478 216.967 L 149.727 215.934 L 150.889 214.814 L 152.009 213.651 L 154.076 211.196 L 155.885 208.57 L 157.392 205.813 L 158.684 202.928 L 159.718 199.957 L 160.493 196.813 Z " fill="rgb(27,68,142)"/></g></g></g><g><g><g><path d=" M 153.689 174.031 L 156.445 173.73 L 154.55 172.567 L 153.689 174.031 Z " fill="rgb(27,68,142)"/></g></g></g><g><g><g><path d=" M 145.248 169.122 L 145.248 169.122 L 145.248 169.122 L 145.248 169.122 L 145.248 169.122 L 145.248 169.122 L 145.248 169.122 L 145.248 169.122 L 145.162 169.079 L 145.033 169.036 L 144.86 168.993 L 144.645 168.907 L 144.387 168.864 L 144.042 168.777 L 143.655 168.734 L 143.181 168.648 L 142.965 168.605 L 142.75 168.562 L 142.535 168.562 L 142.32 168.562 L 142.104 168.605 L 141.889 168.648 L 141.717 168.691 L 141.544 168.777 L 141.372 168.864 L 141.2 168.993 L 141.028 169.122 L 140.898 169.251 L 140.769 169.423 L 140.64 169.596 L 140.554 169.725 L 140.468 169.854 L 140.382 169.983 L 140.339 170.112 L 140.295 170.242 L 140.252 170.371 L 140.209 170.5 L 140.209 170.629 L 140.209 170.758 L 140.209 170.888 L 140.252 171.017 L 140.295 171.146 L 140.339 171.275 L 140.382 171.404 L 140.425 171.534 L 140.511 171.663 L 140.597 171.878 L 140.726 172.05 L 140.855 172.223 L 140.984 172.395 L 141.114 172.524 L 141.286 172.653 L 141.458 172.783 L 141.63 172.912 L 142.018 173.084 L 142.406 173.256 L 142.793 173.429 L 143.138 173.601 L 145.248 169.122 Z " fill="rgb(27,68,142)"/></g></g></g><g><g><g><path d=" M 125.696 210.766 L 125.266 210.378 L 124.878 209.991 L 124.491 209.603 L 124.146 209.172 L 123.845 208.742 L 123.543 208.311 L 123.285 207.837 L 123.026 207.364 L 122.811 206.847 L 122.639 206.373 L 122.51 205.856 L 122.38 205.34 L 122.294 204.823 L 122.251 204.306 L 122.208 203.746 L 122.208 203.229 L 121.519 203.832 L 120.916 204.521 L 120.399 205.254 L 119.926 206.029 L 119.538 206.847 L 119.194 207.708 L 118.935 208.57 L 118.72 209.474 L 118.591 210.034 L 118.505 210.594 L 118.505 211.153 L 118.505 211.713 L 118.548 212.23 L 118.634 212.747 L 118.763 213.264 L 118.935 213.78 L 119.151 214.297 L 119.366 214.814 L 119.883 215.804 L 120.486 216.752 L 121.175 217.699 L 121.605 217.269 L 123.759 214.039 L 124.749 212.402 L 125.223 211.541 L 125.696 210.766 Z " fill="rgb(27,68,142)"/></g></g></g><g><g><g><path d=" M 233.574 175.668 L 234.005 173.644 L 234.306 171.706 L 234.435 169.897 L 234.392 168.218 L 234.349 167.442 L 234.22 166.71 L 234.091 166.021 L 233.919 165.375 L 233.703 164.772 L 233.402 164.256 L 233.1 163.782 L 232.756 163.351 L 232.713 163.351 L 232.67 163.351 L 232.627 163.351 L 232.584 163.351 L 232.498 163.394 L 232.368 163.48 L 232.067 163.696 L 231.722 163.997 L 230.947 164.816 L 230.086 165.763 L 228.493 167.615 L 227.976 168.218 L 227.847 168.39 L 227.803 168.433 L 227.803 168.433 L 227.803 168.433 L 227.803 168.433 L 227.803 168.433 L 227.803 168.433 L 224.143 173.601 L 222.463 176.271 L 220.913 178.984 L 219.492 181.74 L 218.286 184.582 L 217.253 187.468 L 216.477 190.482 L 216.176 192.076 L 216.09 192.894 L 216.047 193.712 L 216.047 194.1 L 216.09 194.487 L 216.133 194.875 L 216.219 195.262 L 216.348 195.65 L 216.477 196.038 L 216.693 196.382 L 216.908 196.727 L 217.08 196.899 L 217.253 197.071 L 217.468 197.2 L 217.683 197.286 L 217.899 197.373 L 218.114 197.416 L 218.372 197.459 L 218.588 197.502 L 218.846 197.502 L 219.061 197.459 L 219.277 197.416 L 219.492 197.373 L 219.707 197.286 L 219.923 197.2 L 220.138 197.114 L 220.353 197.028 L 220.827 196.813 L 221.301 196.511 L 221.774 196.167 L 222.248 195.779 L 223.196 194.918 L 224.1 193.927 L 224.961 192.851 L 225.779 191.731 L 227.244 189.578 L 229.095 186.176 L 230.818 182.774 L 231.593 181.008 L 232.325 179.242 L 232.971 177.434 L 233.574 175.668 Z " fill="rgb(27,68,142)"/></g></g></g></g></g></svg>