<?xml version="1.0" encoding="UTF-8" standalone="no"?><!-- Generator: Gravit.io --><svg xmlns="http://www.w3.org/2000/svg" xmlns:xlink="http://www.w3.org/1999/xlink" style="isolation:isolate" viewBox="0 0 400 520" width="400pt" height="520pt"><defs><clipPath id="_clipPath_myYmxE3Xaptny5hoGObFfRwrfYq6ht25"><rect width="400" height="520"/></clipPath></defs><g clip-path="url(#_clipPath_myYmxE3Xaptny5hoGObFfRwrfYq6ht25)"><g><defs><filter id="QhURkIwQvd0YxoXussZQkbas1W4ClxdT" x="-200%" y="-200%" width="400%" height="400%" filterUnits="objectBoundingBox" color-interpolation-filters="sRGB"><feGaussianBlur xmlns="http://www.w3.org/2000/svg" stdDeviation="4.293609062839028"/></filter></defs><g filter="url(#QhURkIwQvd0YxoXussZQkbas1W4ClxdT)"><ellipse vector-effect="non-scaling-stroke" cx="198.91361582044095" cy="491.99999999999994" rx="65" ry="20.166666666666686" fill="rgb(162,162,162)" fill-opacity="0.7"/></g><defs><filter id="vGTHriAP4DOWrRG4IFjIXPPW2zEj9x6t" x="-200%" y="-200%" width="400%" height="400%" filterUnits="objectBoundingBox" color-interpolation-filters="sRGB"><feGaussianBlur xmlns="http://www.w3.org/2000/svg" stdDeviation="0"/></filter></defs><g filter="url(#vGTHriAP4DOWrRG4IFjIXPPW2zEj9x6t)"><path d=" M 18.914 185.931 C 18.914 85.382 99.774 4 199.384 4 C 299.14 4 380 85.382 380 185.931 C 380 239.891 356.562 288.544 319.355 321.863 C 317.304 323.633 246.405 390.124 198.944 492 C 181.073 419.906 111.785 350.613 79.998 322.306 C 42.498 288.839 18.914 240.186 18.914 185.931 Z  M 311.005 185.931" fill="rgb(77,86,73)"/></g></g><circle vector-effect="non-scaling-stroke" cx="199" cy="186.99999999999997" r="135" fill="rgb(232,232,232)"/><circle vector-effect="non-scaling-stroke" cx="199.50000000000003" cy="186.64164608777287" r="125.49999999999997" fill="rgb(255,255,255)"/><g><g><path d=" M 290.756 174.637 L 290.756 174.637 C 288.843 176.381 287.892 178.657 287.892 181.386 C 287.892 184.305 289.282 186.714 292.059 188.525 C 292.078 188.525 292.093 188.53 299.426 192.053 C 301.779 193.268 302.93 194.666 302.93 196.247 C 302.93 197.448 302.492 198.441 301.547 199.26 C 300.588 200.087 299.48 200.507 298.145 200.507 C 295.003 200.507 292.767 198.828 291.354 195.359 L 291.215 195.05 L 286.13 198.183 L 286.226 198.428 C 287.427 200.773 288.843 202.554 290.463 203.694 C 292.53 205.193 295.206 205.976 298.441 205.976 C 301.272 205.976 303.777 205.007 305.866 203.091 C 307.992 201.149 309.064 198.702 309.064 195.74 C 309.064 192.63 307.67 190.073 304.917 188.112 C 304.711 187.964 304.076 187.552 297.516 184.403 C 295.186 183.281 294.001 182.113 294.001 180.914 C 294.001 180.075 294.263 179.383 294.81 178.788 C 295.518 177.969 296.534 177.583 297.982 177.583 C 300.035 177.583 301.519 178.477 303.065 180.666 L 303.147 180.818 L 303.363 180.818 L 307.944 177.241 L 307.779 176.995 C 305.352 173.715 302.008 172.054 297.879 172.054 C 295.053 172.054 292.661 172.914 290.756 174.637" fill="rgb(0,0,0)"/><path d=" M 90.686 166 L 90.253 166 L 90.253 205.444 L 104.551 205.444 C 107.925 205.444 110.897 204.443 113.332 202.533 C 116.163 200.344 117.583 197.347 117.583 193.574 C 117.583 191.243 116.798 189.086 115.266 187.227 C 114.037 185.686 112.277 184.471 110.457 183.813 C 113.168 181.221 113.725 179.1 113.725 176.13 C 113.725 173.42 112.8 171.087 110.937 169.228 C 108.766 167.089 105.649 166 101.638 166 L 90.686 166 Z  M 101.274 171.796 C 103.197 171.796 104.733 172.315 105.88 173.331 C 106.811 174.208 107.298 175.267 107.298 176.502 C 107.298 180.073 105.059 181.802 100.471 181.802 L 96.578 181.802 L 96.578 171.796 L 101.274 171.796 Z  M 102.715 187.593 C 108.228 187.593 110.897 189.561 110.897 193.59 C 110.897 195.519 110.226 197.006 108.956 198.035 C 107.611 199.102 105.801 199.638 103.565 199.638 L 96.578 199.638 L 96.578 187.593 L 102.715 187.593 Z " fill="rgb(0,0,0)"/><path d=" M 237.045 172.23 L 211.137 172.23 L 211.137 177.983 L 221.085 177.983 L 221.085 205.444 L 227.276 205.444 L 227.276 177.983 L 237.294 177.983 L 237.294 172.23 L 237.045 172.23 Z " fill="rgb(0,0,0)"/><path d=" M 276.086 172.23 L 270.182 172.23 L 270.182 184.837 L 253.896 184.837 L 253.896 172.23 L 247.688 172.23 L 247.688 205.444 L 253.896 205.444 L 253.896 190.592 L 270.182 190.592 L 270.182 205.444 L 276.359 205.444 L 276.359 172.23 L 276.086 172.23 Z " fill="rgb(0,0,0)"/><path d=" M 126.656 188.857 C 126.656 198.292 134.342 206 143.8 206 C 153.272 206 160.945 198.292 160.945 188.857 C 160.945 179.392 153.272 171.692 143.8 171.692 C 134.342 171.692 126.656 179.392 126.656 188.857 Z  M 132.856 188.857 C 132.856 182.81 137.76 177.893 143.8 177.893 C 149.831 177.893 154.748 182.81 154.748 188.857 C 154.748 194.883 149.831 199.79 143.8 199.79 C 137.76 199.79 132.856 194.883 132.856 188.857 Z " fill="rgb(0,0,0)"/><path d=" M 169.799 188.857 C 169.799 198.292 177.485 206 186.952 206 C 196.387 206 204.106 198.292 204.106 188.857 C 204.106 179.392 196.387 171.692 186.952 171.692 C 177.485 171.692 169.799 179.392 169.799 188.857 Z  M 175.986 188.857 C 175.986 182.81 180.901 177.893 186.952 177.893 C 192.988 177.893 197.898 182.81 197.898 188.857 C 197.898 194.883 192.988 199.79 186.952 199.79 C 180.901 199.79 175.986 194.883 175.986 188.857 Z " fill="rgb(0,0,0)"/></g></g></g></svg>