<?xml version="1.0" encoding="UTF-8" standalone="no"?><!-- Generator: Gravit.io --><svg xmlns="http://www.w3.org/2000/svg" xmlns:xlink="http://www.w3.org/1999/xlink" style="isolation:isolate" viewBox="0 0 24 24" width="24pt" height="24pt"><defs><clipPath id="_clipPath_yINCSM8j2ad63FXZ1BjzTnzShVcRfKBz"><rect width="24" height="24"/></clipPath></defs><g clip-path="url(#_clipPath_yINCSM8j2ad63FXZ1BjzTnzShVcRfKBz)"><clipPath id="_clipPath_y0DAIPsRcAuH1vYNmZEnvMcRVUCePm2Q"><rect x="0" y="0" width="24" height="24" transform="matrix(1,0,0,1,0,0)" fill="rgb(255,255,255)"/></clipPath><g clip-path="url(#_clipPath_y0DAIPsRcAuH1vYNmZEnvMcRVUCePm2Q)"><g><clipPath id="_clipPath_ZHs7No8OqHFl8hSWascMUWcZdqQFmSIm"><rect x="0" y="0" width="24" height="24" transform="matrix(1,0,0,1,0,0)" fill="rgb(255,255,255)"/></clipPath><g clip-path="url(#_clipPath_ZHs7No8OqHFl8hSWascMUWcZdqQFmSIm)"><g><g><clipPath id="_clipPath_DPNwbgMf4w51eHR786lTjjTXavSHt7FQ"><rect x="2.062" y="-0.118" width="19.876" height="19.876" transform="matrix(1,0,0,1,0,0)" fill="rgb(255,255,255)"/></clipPath><g clip-path="url(#_clipPath_DPNwbgMf4w51eHR786lTjjTXavSHt7FQ)"><g><g><g><clipPath id="_clipPath_7kpjZHnz5aNjP2BrCFVRC2I7L3c6Qst4"><rect x="4.81" y="5.027" width="14.379" height="9.587" transform="matrix(1,0,0,1,0,0)" fill="rgb(255,255,255)"/></clipPath><g clip-path="url(#_clipPath_7kpjZHnz5aNjP2BrCFVRC2I7L3c6Qst4)"><g><g><g><g><clipPath id="_clipPath_vmF61OKYa8eOUQJXkXhV8IdCCZh81pvb"><path d=" M 4.81 5.027 L 19.19 5.027 L 19.19 14.613 L 4.81 14.613 L 4.81 5.027 L 4.81 5.027 Z " fill="rgb(255,255,255)"/></clipPath><g clip-path="url(#_clipPath_vmF61OKYa8eOUQJXkXhV8IdCCZh81pvb)"><g><g><g><g><path d=" M 17.347 7.369 L 17.026 7.485 C 16.899 7.082 16.54 6.823 16.054 6.823 C 15.524 6.823 15.176 7.088 15.176 7.536 C 15.176 8.497 17.374 7.989 17.374 9.341 C 17.374 9.987 16.855 10.441 16.081 10.441 C 15.364 10.441 14.932 10.098 14.634 9.552 L 14.932 9.369 C 15.131 9.788 15.496 10.116 16.049 10.116 C 16.689 10.116 17.021 9.822 17.021 9.336 C 17.021 8.369 14.822 8.844 14.822 7.53 C 14.822 6.751 15.524 6.498 16.043 6.498 C 16.629 6.498 17.159 6.762 17.347 7.369 Z  M 11.94 7.381 C 11.94 7.597 12.082 7.779 12.398 8.116 C 12.768 7.9 12.971 7.674 12.971 7.381 C 12.971 7.094 12.778 6.868 12.447 6.868 C 12.138 6.868 11.94 7.11 11.94 7.381 Z  M 12.31 8.524 C 11.807 8.801 11.586 9.022 11.586 9.364 C 11.586 9.756 11.94 10.082 12.392 10.082 C 12.8 10.082 13.01 9.894 13.237 9.529 L 12.31 8.524 L 12.31 8.524 Z  M 14.099 10.458 L 13.458 9.773 C 13.226 10.137 12.911 10.402 12.392 10.402 C 11.723 10.402 11.232 9.938 11.232 9.369 C 11.232 8.894 11.525 8.602 12.088 8.281 C 11.767 7.962 11.591 7.695 11.591 7.381 C 11.591 6.922 11.978 6.558 12.447 6.558 C 12.944 6.558 13.314 6.922 13.314 7.381 C 13.314 7.822 12.966 8.121 12.618 8.347 L 13.414 9.215 L 13.883 8.453 L 14.165 8.63 L 13.646 9.474 L 14.358 10.231 L 14.099 10.458 L 14.099 10.458 Z  M 10.349 6.547 L 10.349 10.402 L 9.995 10.402 L 9.995 7.254 L 8.725 9.718 L 8.476 9.718 L 7.206 7.258 L 7.206 10.402 L 6.852 10.402 L 6.852 6.547 L 7.222 6.547 L 8.603 9.21 L 9.984 6.547 L 10.349 6.547 L 10.349 6.547 Z " fill="rgb(255,255,255)"/><path d=" M 9.368 11.711 L 9.368 12.041 L 9.93 12.041 L 9.93 12.267 L 9.368 12.267 L 9.368 12.791 L 9.125 12.791 L 9.125 11.485 L 9.976 11.485 L 9.976 11.711 L 9.368 11.711 L 9.368 11.711 Z " fill="rgb(255,255,255)"/><path d=" M 6.852 12.041 L 8.403 12.041 L 8.403 12.267 L 6.852 12.267 L 6.852 12.041 L 6.852 12.041 Z " fill="rgb(255,255,255)"/><path d=" M 15.543 12.041 L 17.093 12.041 L 17.093 12.267 L 15.543 12.267 L 15.543 12.041 L 15.543 12.041 Z " fill="rgb(255,255,255)"/><path d=" M 10.754 11.747 C 10.691 11.787 10.641 11.841 10.605 11.909 C 10.569 11.977 10.551 12.053 10.551 12.135 C 10.551 12.219 10.569 12.296 10.605 12.365 C 10.641 12.434 10.691 12.489 10.756 12.53 C 10.821 12.569 10.893 12.59 10.972 12.59 C 11.051 12.59 11.121 12.57 11.185 12.531 C 11.248 12.491 11.298 12.436 11.334 12.368 C 11.37 12.299 11.388 12.224 11.388 12.14 C 11.388 12.057 11.37 11.981 11.334 11.911 C 11.298 11.841 11.248 11.787 11.184 11.747 C 11.12 11.706 11.048 11.687 10.968 11.687 C 10.889 11.687 10.817 11.706 10.754 11.747 Z  M 11.319 11.552 C 11.421 11.612 11.501 11.693 11.558 11.796 C 11.615 11.899 11.644 12.011 11.644 12.135 C 11.644 12.259 11.615 12.373 11.557 12.477 C 11.499 12.581 11.419 12.663 11.317 12.723 C 11.214 12.784 11.098 12.814 10.968 12.814 C 10.838 12.814 10.721 12.784 10.619 12.723 C 10.518 12.663 10.438 12.582 10.381 12.479 C 10.324 12.376 10.295 12.264 10.295 12.14 C 10.295 12.016 10.324 11.902 10.382 11.799 C 10.44 11.696 10.52 11.614 10.623 11.553 C 10.725 11.493 10.841 11.463 10.972 11.463 C 11.101 11.463 11.217 11.493 11.319 11.552 Z " fill="rgb(255,255,255)"/><path d=" M 12.448 11.747 C 12.384 11.787 12.335 11.841 12.299 11.909 C 12.263 11.977 12.244 12.053 12.244 12.135 C 12.244 12.219 12.263 12.296 12.299 12.365 C 12.335 12.434 12.385 12.489 12.45 12.53 C 12.514 12.569 12.586 12.59 12.666 12.59 C 12.745 12.59 12.816 12.57 12.879 12.531 C 12.942 12.491 12.992 12.436 13.028 12.368 C 13.064 12.299 13.082 12.224 13.082 12.14 C 13.082 12.057 13.064 11.981 13.028 11.911 C 12.992 11.841 12.942 11.787 12.878 11.747 C 12.814 11.706 12.742 11.687 12.663 11.687 C 12.583 11.687 12.512 11.706 12.448 11.747 Z  M 13.013 11.552 C 13.115 11.612 13.195 11.693 13.252 11.796 C 13.309 11.899 13.337 12.011 13.337 12.135 C 13.337 12.259 13.309 12.373 13.251 12.477 C 13.193 12.581 13.113 12.663 13.01 12.723 C 12.908 12.784 12.792 12.814 12.663 12.814 C 12.532 12.814 12.416 12.784 12.314 12.723 C 12.211 12.663 12.132 12.582 12.075 12.479 C 12.017 12.376 11.989 12.264 11.989 12.14 C 11.989 12.016 12.018 11.902 12.075 11.799 C 12.133 11.696 12.214 11.614 12.316 11.553 C 12.419 11.493 12.536 11.463 12.666 11.463 C 12.796 11.463 12.911 11.493 13.013 11.552 Z " fill="rgb(255,255,255)"/><path d=" M 14.467 12.511 C 14.537 12.474 14.591 12.424 14.629 12.358 C 14.666 12.294 14.685 12.221 14.685 12.139 C 14.685 12.055 14.666 11.981 14.629 11.917 C 14.591 11.851 14.537 11.802 14.466 11.765 C 14.396 11.73 14.312 11.711 14.216 11.711 L 13.993 11.711 L 13.993 12.565 L 14.216 12.565 C 14.314 12.565 14.397 12.547 14.467 12.511 Z  M 14.597 11.571 C 14.706 11.627 14.791 11.705 14.85 11.804 C 14.91 11.904 14.941 12.015 14.941 12.139 C 14.941 12.261 14.91 12.371 14.85 12.471 C 14.791 12.57 14.706 12.648 14.597 12.705 C 14.488 12.763 14.361 12.791 14.216 12.791 L 13.75 12.791 L 13.75 11.485 L 14.216 11.485 C 14.361 11.485 14.488 11.514 14.597 11.571 Z " fill="rgb(255,255,255)"/></g></g></g></g></g></g></g></g></g></g></g></g></g></g></g></g></g><clipPath id="_clipPath_p6gOkMD3lEbAYNmVX1ip8638Z5iVMWCi"><rect x="2.98" y="1" width="18.04" height="22" transform="matrix(1,0,0,1,0,0)" fill="rgb(255,255,255)"/></clipPath><g clip-path="url(#_clipPath_p6gOkMD3lEbAYNmVX1ip8638Z5iVMWCi)"><g><g><path d=" M 18.219 16.551 C 19.896 14.836 21.02 12.588 21.02 10.02 C 21.02 5.042 16.978 1 12 1 C 7.022 1 2.98 5.042 2.98 10.02 C 2.98 12.62 4.007 14.787 5.844 16.61 L 5.844 16.61 L 11.633 23 L 18.23 16.551 L 18.219 16.551 Z " fill="rgb(0,153,0)"/></g></g></g><clipPath id="_clipPath_boNaOsNSImd70WUNnfJJPtwbhdd17ef3"><rect x="0" y="0" width="24" height="24" transform="matrix(1,0,0,1,0,0)" fill="rgb(255,255,255)"/></clipPath><g clip-path="url(#_clipPath_boNaOsNSImd70WUNnfJJPtwbhdd17ef3)"><g><g><clipPath id="_clipPath_k9BLFNwfjKL4Yd0eG1H261QHZjUPEM87"><rect x="0" y="0" width="24" height="24" transform="matrix(1,0,0,1,0,0)" fill="rgb(255,255,255)"/></clipPath><g clip-path="url(#_clipPath_k9BLFNwfjKL4Yd0eG1H261QHZjUPEM87)"><g><g><g><clipPath id="_clipPath_f1T2U39qKaygN6gHDtsUm6Rt1gxop0xU"><rect x="2.769" y="0" width="18.462" height="24" transform="matrix(1,0,0,1,0,0)" fill="rgb(255,255,255)"/></clipPath><g clip-path="url(#_clipPath_f1T2U39qKaygN6gHDtsUm6Rt1gxop0xU)"><g><g><g><g><circle vector-effect="non-scaling-stroke" cx="12" cy="9.900000000000002" r="6.700000000000003" fill="rgb(255,255,0)"/><ellipse vector-effect="non-scaling-stroke" cx="12.011538461538457" cy="9.821922127127984" rx="6.25" ry="6.199999999999999" fill="rgb(255,255,255)"/><clipPath id="_clipPath_zDHtteJc3CCokYdrpQiSI3ogAlF1uxw7"><rect x="6.577" y="6.164" width="10.394" height="7.349" transform="matrix(1,0,0,1,0,0)" fill="rgb(255,255,255)"/></clipPath><g clip-path="url(#_clipPath_zDHtteJc3CCokYdrpQiSI3ogAlF1uxw7)"><g><g><g><g><path d=" M 6.773 6.506 L 17.167 6.506 L 17.167 13.855 L 6.773 13.855 L 6.773 6.506 L 6.773 6.506 Z " fill="none"/></g></g></g></g></g></g></g></g></g></g></g></g></g></g></g></g></g></g></g><clipPath id="_clipPath_DVh1MFzHAhuqzsOrDIiv1PGbIxmc52YB"><rect x="0" y="0" width="24" height="24" transform="matrix(1,0,0,1,0,0)" fill="rgb(255,255,255)"/></clipPath><g clip-path="url(#_clipPath_DVh1MFzHAhuqzsOrDIiv1PGbIxmc52YB)"><g><rect x="0" y="0" width="24" height="24" transform="matrix(1,0,0,1,0,0)" fill="none"/><rect x="2.769" y="0" width="18.462" height="24" transform="matrix(1,0,0,1,0,0)" fill="none"/></g></g><clipPath id="_clipPath_YC4m3WLNhjVatWkMa7rZvJEbG7IMtET2"><rect x="0" y="0" width="24" height="24" transform="matrix(1,0,0,1,0,0)" fill="rgb(255,255,255)"/></clipPath><g clip-path="url(#_clipPath_YC4m3WLNhjVatWkMa7rZvJEbG7IMtET2)"><g><rect x="0" y="0" width="24" height="24" transform="matrix(1,0,0,1,0,0)" fill="none"/><rect x="2.769" y="0" width="18.462" height="24" transform="matrix(1,0,0,1,0,0)" fill="none"/><rect x="2.769" y="0" width="18.462" height="24" transform="matrix(1,0,0,1,0,0)" fill="none"/><rect x="2.769" y="0" width="18.462" height="24" transform="matrix(1,0,0,1,0,0)" fill="none"/><rect x="2.769" y="0" width="18.462" height="24" transform="matrix(1,0,0,1,0,0)" fill="none"/><clipPath id="_clipPath_2Pg53nXuoAnrH4NE9VLcPSbAHB02TR0f"><rect x="6.769" y="1" width="18.462" height="24" transform="matrix(1,0,0,1,0,0)" fill="rgb(255,255,255)"/></clipPath><g clip-path="url(#_clipPath_2Pg53nXuoAnrH4NE9VLcPSbAHB02TR0f)"><g><g><g><g><path d=" M 16.722 10.591 C 16.418 10.266 16.084 9.989 15.731 9.766 C 16.079 9.543 16.414 9.262 16.717 8.936 C 16.32 8.735 15.91 8.588 15.504 8.499 C 15.754 8.168 15.972 7.789 16.151 7.383 C 15.709 7.33 15.276 7.334 14.861 7.388 C 14.986 6.99 15.062 6.562 15.084 6.116 C 14.651 6.218 14.241 6.366 13.875 6.558 C 13.853 6.143 13.781 5.714 13.652 5.286 C 13.282 5.531 12.947 5.812 12.666 6.116 C 12.505 5.732 12.286 5.357 12.019 5 C 11.751 5.357 11.537 5.737 11.376 6.12 C 11.095 5.812 10.76 5.531 10.39 5.29 L 10.39 5.29 C 10.261 5.714 10.189 6.143 10.167 6.558 C 9.797 6.366 9.391 6.218 8.958 6.116 C 8.985 6.562 9.06 6.99 9.185 7.388 C 8.77 7.334 8.338 7.334 7.891 7.388 C 8.065 7.798 8.284 8.173 8.538 8.503 C 8.132 8.597 7.722 8.744 7.325 8.945 C 7.628 9.271 7.963 9.547 8.315 9.77 C 7.967 9.993 7.633 10.275 7.329 10.6 C 7.726 10.801 8.137 10.948 8.543 11.038 C 8.293 11.368 8.074 11.747 7.896 12.153 C 8.338 12.207 8.77 12.202 9.181 12.153 C 9.056 12.55 8.98 12.979 8.958 13.42 C 9.391 13.318 9.801 13.17 10.167 12.979 C 10.185 13.394 10.261 13.822 10.39 14.25 C 10.76 14.005 11.095 13.728 11.376 13.42 C 11.537 13.804 11.755 14.183 12.023 14.54 C 12.291 14.183 12.505 13.804 12.666 13.42 C 12.947 13.728 13.282 14.009 13.656 14.25 C 13.786 13.826 13.857 13.398 13.879 12.979 C 14.25 13.17 14.66 13.318 15.093 13.42 C 15.066 12.974 14.991 12.55 14.866 12.153 C 15.276 12.207 15.713 12.207 16.155 12.153 C 15.981 11.743 15.762 11.368 15.508 11.038 C 15.914 10.939 16.325 10.792 16.722 10.591 Z " fill="rgb(0,153,0)"/><path d=" M 15.508 11.033 C 15.276 10.73 15.013 10.462 14.727 10.243 C 15.071 10.136 15.406 9.971 15.731 9.766 C 15.406 9.561 15.071 9.4 14.727 9.293 C 15.013 9.074 15.272 8.806 15.508 8.499 C 15.133 8.414 14.763 8.378 14.402 8.396 C 14.593 8.093 14.75 7.753 14.861 7.383 C 14.482 7.432 14.12 7.526 13.786 7.664 C 13.862 7.312 13.893 6.941 13.871 6.553 C 13.531 6.732 13.224 6.941 12.96 7.187 C 12.911 6.83 12.813 6.468 12.661 6.116 C 12.398 6.401 12.184 6.705 12.019 7.026 C 11.854 6.709 11.635 6.401 11.372 6.12 C 11.225 6.473 11.126 6.834 11.082 7.187 C 10.818 6.946 10.506 6.732 10.163 6.558 C 10.145 6.941 10.176 7.316 10.252 7.669 C 9.922 7.53 9.56 7.441 9.176 7.392 C 9.292 7.758 9.449 8.097 9.64 8.4 C 9.283 8.387 8.909 8.423 8.529 8.508 C 8.761 8.811 9.025 9.079 9.31 9.297 C 8.967 9.404 8.632 9.569 8.306 9.775 C 8.632 9.98 8.967 10.141 9.31 10.248 C 9.025 10.466 8.766 10.734 8.529 11.042 C 8.904 11.127 9.275 11.162 9.632 11.145 C 9.44 11.448 9.283 11.787 9.172 12.158 C 9.551 12.108 9.917 12.015 10.247 11.876 C 10.171 12.224 10.14 12.599 10.158 12.983 C 10.502 12.805 10.81 12.595 11.073 12.354 C 11.122 12.711 11.22 13.072 11.367 13.425 C 11.626 13.139 11.845 12.836 12.01 12.519 C 12.175 12.836 12.394 13.144 12.657 13.425 C 12.804 13.072 12.902 12.711 12.951 12.354 C 13.215 12.595 13.527 12.809 13.871 12.983 C 13.888 12.599 13.857 12.224 13.781 11.876 C 14.111 12.015 14.477 12.104 14.857 12.153 C 14.741 11.787 14.584 11.448 14.393 11.145 C 14.758 11.154 15.133 11.118 15.508 11.033 Z " fill="rgb(153,204,0)"/><path d=" M 13.875 9.77 C 14.174 9.659 14.464 9.498 14.732 9.293 C 14.41 9.19 14.085 9.141 13.768 9.137 C 14.013 8.931 14.228 8.682 14.406 8.396 C 14.071 8.409 13.746 8.472 13.447 8.583 C 13.607 8.307 13.723 7.999 13.795 7.669 C 13.482 7.798 13.201 7.968 12.956 8.173 C 13.009 7.856 13.014 7.526 12.969 7.191 C 12.719 7.419 12.51 7.678 12.349 7.954 C 12.291 7.637 12.184 7.325 12.028 7.026 C 11.876 7.325 11.764 7.633 11.711 7.945 C 11.55 7.669 11.341 7.414 11.091 7.187 C 11.046 7.521 11.05 7.852 11.104 8.168 C 10.859 7.963 10.573 7.794 10.261 7.669 C 10.332 7.999 10.448 8.307 10.609 8.583 C 10.31 8.476 9.984 8.414 9.649 8.4 C 9.832 8.686 10.046 8.931 10.287 9.141 C 9.966 9.141 9.64 9.195 9.319 9.297 C 9.587 9.503 9.872 9.663 10.176 9.77 C 9.877 9.882 9.587 10.042 9.319 10.248 C 9.64 10.346 9.966 10.399 10.283 10.404 C 10.038 10.609 9.823 10.859 9.64 11.145 C 9.975 11.131 10.301 11.069 10.6 10.962 C 10.439 11.238 10.323 11.551 10.252 11.876 C 10.564 11.747 10.845 11.577 11.091 11.372 C 11.037 11.689 11.033 12.015 11.077 12.349 C 11.327 12.122 11.537 11.867 11.698 11.591 C 11.755 11.908 11.863 12.216 12.019 12.515 C 12.175 12.216 12.282 11.908 12.34 11.591 C 12.501 11.867 12.71 12.122 12.96 12.349 C 13.005 12.015 13 11.685 12.947 11.372 C 13.192 11.577 13.478 11.747 13.79 11.876 C 13.719 11.546 13.603 11.238 13.442 10.962 C 13.746 11.069 14.067 11.131 14.406 11.145 C 14.223 10.859 14.009 10.614 13.763 10.404 C 14.085 10.404 14.41 10.35 14.732 10.248 C 14.46 10.038 14.174 9.877 13.875 9.77 Z " fill="rgb(255,255,0)"/><path d=" M 12.96 9.931 C 13.273 9.931 13.58 9.873 13.871 9.766 C 13.576 9.659 13.273 9.601 12.96 9.601 C 13.255 9.494 13.522 9.333 13.759 9.132 C 13.447 9.132 13.139 9.181 12.844 9.288 C 13.085 9.088 13.282 8.847 13.438 8.574 C 13.143 8.682 12.875 8.833 12.635 9.034 C 12.791 8.762 12.893 8.467 12.947 8.164 C 12.706 8.365 12.505 8.601 12.344 8.873 C 12.398 8.566 12.394 8.253 12.34 7.945 C 12.184 8.213 12.077 8.503 12.023 8.806 C 11.97 8.499 11.858 8.204 11.702 7.936 C 11.648 8.244 11.644 8.557 11.698 8.864 C 11.541 8.592 11.336 8.356 11.1 8.155 C 11.153 8.463 11.256 8.757 11.412 9.025 C 11.171 8.824 10.899 8.673 10.609 8.566 C 10.765 8.838 10.961 9.074 11.202 9.279 C 10.908 9.172 10.6 9.123 10.292 9.123 C 10.528 9.324 10.796 9.48 11.091 9.592 C 10.778 9.592 10.47 9.65 10.176 9.757 C 10.47 9.864 10.774 9.922 11.086 9.922 C 10.792 10.029 10.524 10.19 10.283 10.391 C 10.595 10.391 10.903 10.341 11.198 10.234 C 10.957 10.435 10.76 10.676 10.604 10.948 C 10.899 10.841 11.171 10.69 11.407 10.489 C 11.251 10.761 11.149 11.055 11.095 11.363 C 11.336 11.162 11.537 10.926 11.693 10.658 C 11.639 10.966 11.644 11.279 11.698 11.582 C 11.854 11.314 11.965 11.02 12.019 10.716 C 12.072 11.024 12.184 11.314 12.34 11.586 C 12.394 11.279 12.398 10.971 12.344 10.663 C 12.501 10.935 12.706 11.171 12.942 11.368 C 12.889 11.06 12.786 10.77 12.63 10.498 C 12.871 10.698 13.143 10.85 13.438 10.957 C 13.282 10.685 13.085 10.449 12.844 10.243 C 13.139 10.35 13.447 10.399 13.759 10.399 C 13.522 10.199 13.255 10.042 12.96 9.931 Z " fill="rgb(255,255,255)"/></g></g></g></g></g></g></g></g></svg>