<?xml version="1.0" encoding="UTF-8" standalone="no"?>
<svg
   viewBox="0 0 24 24"
   width="24pt"
   height="24pt"
   version="1.1"
   id="svg4"
   sodipodi:docname="bunnings_24px.svg"
   xml:space="preserve"
   inkscape:version="1.2.2 (732a01da63, 2022-12-09)"
   xmlns:inkscape="http://www.inkscape.org/namespaces/inkscape"
   xmlns:sodipodi="http://sodipodi.sourceforge.net/DTD/sodipodi-0.dtd"
   xmlns="http://www.w3.org/2000/svg"
   xmlns:svg="http://www.w3.org/2000/svg"><defs
     id="defs8" /><sodipodi:namedview
     id="namedview6"
     pagecolor="#ffffff"
     bordercolor="#000000"
     borderopacity="0.25"
     inkscape:showpageshadow="2"
     inkscape:pageopacity="0.0"
     inkscape:pagecheckerboard="0"
     inkscape:deskcolor="#d1d1d1"
     inkscape:document-units="pt"
     showgrid="false"
     inkscape:zoom="18.406873"
     inkscape:cx="9.045534"
     inkscape:cy="19.856713"
     inkscape:window-width="1920"
     inkscape:window-height="991"
     inkscape:window-x="302"
     inkscape:window-y="1431"
     inkscape:window-maximized="1"
     inkscape:current-layer="svg4" /><g
     id="g368"
     transform="matrix(0.07672522,0,0,0.07672522,3.3119531,1.2224315)"
     style="display:inline"><path
       d="m 17,87.456 c 0,6.041 -0.083,6.003 5.154,2.38 2.619,-1.811 11.858,-2.659 11.835,-1.086 -0.006,0.412 -3.831,3.398 -8.5,6.636 -8.151,5.65 -8.489,6.038 -8.489,9.716 0,3.831 0,3.831 9.25,-2.76 C 43.281,90.206 42.972,82.886 25.396,82.147 17,81.795 17,81.795 17,87.456 m 28,11.408 c 0,14.16 8.495,20.732 16.479,12.748 4.46,-4.46 5.057,-21.823 0.771,-22.432 C 60.061,88.87 60,89.103 60,97.775 60,107.128 58.748,110 54.671,110 50.609,110 49,106.454 49,97.5 49,89.667 48.843,89 47,89 c -1.865,0 -2,0.667 -2,9.864 m 42.792,-2.26 c -0.292,7.605 -0.292,7.605 -9.167,0.5 C 73.744,93.197 69.581,90 69.375,90 69.169,90 69,95.4 69,102 c 0,12 0,12 2.5,12 2.429,0 2.5,-0.2 2.5,-7 0,-8.413 -0.412,-8.348 8.389,-1.334 3.911,3.116 7.674,6.096 8.361,6.622 0.984,0.753 1.25,-1.624 1.25,-11.166 0,-15.37 -3.641,-19.279 -4.208,-4.518 m 27.875,-6.937 c -0.367,0.366 -0.667,3.516 -0.667,7 0,7.669 0.361,7.64 -8.389,0.667 C 102.7,94.218 98.938,91.238 98.25,90.712 97.266,89.959 97,92.336 97,101.878 97,114 97,114 99.5,114 c 2.429,0 2.5,-0.2 2.5,-7 0,-8.42 -0.504,-8.349 8.329,-1.18 3.944,3.201 7.734,6.152 8.421,6.559 0.972,0.574 1.25,-1.945 1.25,-11.32 0,-12.088 -1.002,-14.723 -4.333,-11.392 M 125,101.5 c 0,11.833 0.107,12.5 2,12.5 1.893,0 2,-0.667 2,-12.5 0,-11.833 -0.107,-12.5 -2,-12.5 -1.893,0 -2,0.667 -2,12.5 M 153,96 c 0,8.573 -0.259,8.61 -9.389,1.334 -3.911,-3.116 -7.673,-6.096 -8.361,-6.622 -0.984,-0.753 -1.25,1.624 -1.25,11.166 0,12.122 0,12.122 2.5,12.122 2.429,0 2.5,-0.2 2.5,-7 0,-8.42 -0.504,-8.349 8.329,-1.18 3.944,3.201 7.734,6.152 8.421,6.559 0.972,0.574 1.25,-1.945 1.25,-11.32 C 157,89.667 156.889,89 155,89 c -1.81,0 -2,0.667 -2,7 m 16.418,-6.085 c -7.27,3.128 -9.905,13.976 -4.854,19.979 5.759,6.844 16.968,5.779 20.987,-1.993 C 188.496,102.207 187.7,101 181,101 c -5.333,0 -6,0.222 -6,2 0,1.637 0.667,2 3.674,2 3.675,0 3.675,0 1.326,2.5 -7.276,7.744 -18.568,-3.077 -11.63,-11.144 3.056,-3.552 8.476,-3.789 11.953,-0.523 2.147,2.018 2.504,2.08 3.697,0.643 3.285,-3.958 -8.424,-9.218 -14.602,-6.561 m 24.277,0.196 c -5.334,3.103 -4.3,8.73 2.355,12.825 6.867,4.225 5.82,10.741 -1.129,7.022 -1.727,-0.925 -2.466,-0.842 -3.725,0.417 -1.959,1.96 4.469,5.164 8.127,4.051 8.307,-2.528 7.74,-10.367 -1.073,-14.831 -2.039,-1.033 -3.25,-2.394 -3.25,-3.652 0,-2.492 2.673,-3.628 5.047,-2.146 1.385,0.865 2.072,0.765 3.08,-0.45 2.637,-3.178 -5.018,-5.804 -9.432,-3.236 M 37.022,98.576 C 36.997,102 35.606,103.503 26.587,109.843 20.674,114 20.674,114 26.795,114 37.458,114 44.398,104.901 39,98 37.044,95.5 37.044,95.5 37.022,98.576 M 107,124.5 c 0,13.5 0,13.5 2.5,13.5 2.383,0 2.5,-0.275 2.5,-5.878 0,-4.004 0.478,-6.274 1.5,-7.122 0.825,-0.685 1.5,-1.92 1.5,-2.745 0,-1.22 -0.28,-1.267 -1.5,-0.255 -1.295,1.075 -1.5,0.635 -1.5,-3.223 0,-4.095 -2.049,-7.777 -4.329,-7.777 -0.369,0 -0.671,6.075 -0.671,13.5 m -45.264,-3.808 c -4.439,1.158 -6.1,10.305 -2.663,14.673 3.878,4.931 8.173,2.189 4.395,-2.806 -1.881,-2.488 -1.869,-4.981 0.032,-6.559 0.825,-0.685 1.5,-2.315 1.5,-3.622 0,-2.418 -0.154,-2.497 -3.264,-1.686 m 23.014,0.753 C 83.237,122.235 82,122.458 82,121.941 82,121.423 80.875,121 79.5,121 c -2.471,0 -2.5,0.1 -2.5,8.5 0,8.4 0.029,8.5 2.5,8.5 2.357,0 2.5,-0.308 2.5,-5.378 0,-8.737 6.024,-11.289 6.434,-2.725 0.154,3.211 0.828,4.897 2.499,6.25 4.255,3.445 6.728,1.634 3.535,-2.588 C 92.107,130.437 92.664,130 99,130 c 6.967,0 8.286,-2.805 3.545,-7.545 -4.095,-4.096 -6.776,-1.577 -2.89,2.716 1.578,1.744 1.463,1.829 -2.469,1.829 -3.254,0 -4.002,-0.316 -3.548,-1.5 0.317,-0.825 0.978,-1.5 1.469,-1.5 0.491,0 0.893,-0.9 0.893,-2 0,-1.1 -0.389,-2 -0.865,-2 -0.476,0 -2.009,0.9 -3.408,2 -3.16,2.486 -3.51,2.486 -3.907,0.004 -0.297,-1.848 -0.522,-1.889 -3.07,-0.559 m 32.608,2.305 c 0.341,2.063 0.625,6.113 0.631,9 0.01,4.93 0.163,5.25 2.511,5.25 3.333,0 3.885,-13.437 0.671,-16.345 -3.149,-2.85 -4.507,-2.105 -3.813,2.095 M 131,120.785 c -6.5,2.064 -7.748,11.587 -2.087,15.933 3.811,2.926 5.733,-0.957 2.555,-5.159 -1.889,-2.498 -1.849,-3.178 0.318,-5.345 2.109,-2.109 1.522,-6.162 -0.786,-5.429 m 4.25,1.687 c 0,1.391 0.378,2.528 0.84,2.528 2.252,0 3.036,4.159 1.284,6.817 -2.129,3.231 -2.506,6.183 -0.789,6.183 4.465,0 7.965,-5.254 6.984,-10.484 -1.046,-5.577 -8.319,-9.987 -8.319,-5.044 m 30.809,-0.531 c -2.675,2.675 -2.616,5.556 0.155,7.496 2.636,1.847 4.38,0.009 3.28,-3.457 -0.536,-1.686 -0.163,-1.98 2.512,-1.98 2.451,0 3.068,-0.384 2.809,-1.75 -0.506,-2.67 -6.194,-2.871 -8.756,-0.309 m 16.176,-0.904 c -6.315,2.537 -4.753,16.963 1.838,16.963 2.294,0 2.534,-2.251 0.427,-4 -3.229,-2.68 -1.743,-4 4.5,-4 6.424,0 6.551,-0.121 4.95,-4.713 -1.302,-3.736 -5.95,-6.333 -5.95,-3.325 0,1.056 0.45,2.198 1,2.538 2.083,1.287 0.87,2.5 -2.5,2.5 -3.749,0 -4.413,-0.997 -2,-3 1.549,-1.286 2.076,-4.049 0.75,-3.937 -0.412,0.035 -1.769,0.473 -3.015,0.974 M 29.511,123.034 C 32.631,132.865 39,141.941 39,136.557 39,131.756 33.688,121 31.317,121 c -2.01,0 -2.336,0.366 -1.806,2.034 m 10.58,1.716 c -0.819,2.498 -0.919,4.579 -0.302,6.234 0.928,2.483 0.928,2.483 1.637,0.25 1.057,-3.33 2.11,-2.737 4.021,2.266 1.572,4.116 4.546,6.237 4.558,3.25 0.036,-9.28 -7.726,-18.675 -9.914,-12 m 11.036,-0.225 c -2.735,7.563 -0.234,10.893 2.984,3.975 3.424,-7.362 3.435,-7.5 0.59,-7.5 -1.723,0 -2.619,0.883 -3.574,3.525 m 15.874,-1.397 c 0,0.895 0.674,2.187 1.499,2.872 1.884,1.564 1.944,5.387 0.108,6.91 -1.543,1.281 -2.826,5.09 -1.714,5.09 0.388,0 1.246,-0.54 1.906,-1.2 0.933,-0.933 1.2,-0.933 1.2,0 0,0.66 1.125,1.2 2.5,1.2 2.471,0 2.5,-0.098 2.5,-8.524 0,-8.524 0,-8.524 -3.999,-8.25 -2.913,0.2 -3.998,0.716 -4,1.902 M 146,127.845 c 0,7.171 1.566,10.155 5.329,10.155 1.823,0 2.341,-3.468 0.671,-4.5 -0.55,-0.34 -1,-3.291 -1,-6.559 0,-5.67 -0.114,-5.941 -2.5,-5.941 -2.423,0 -2.5,0.21 -2.5,6.845 m 11,-0.904 c 0,3.268 -0.45,6.219 -1,6.559 -1.775,1.097 -1.136,4.5 0.845,4.5 3.555,0 5.155,-3.205 5.155,-10.329 0,-6.449 -0.083,-6.671 -2.5,-6.671 -2.386,0 -2.5,0.271 -2.5,5.941 m 14.441,2.787 c -1.076,4.907 -1.43,5.491 -2.949,4.876 -0.821,-0.332 -2.108,-0.854 -2.861,-1.161 -0.819,-0.333 -1.577,0.244 -1.889,1.436 -0.875,3.344 7.655,4.581 10.687,1.55 2.251,-2.251 2.017,-7.12 -0.404,-8.416 -1.709,-0.914 -2.058,-0.683 -2.584,1.715 m -72.191,3.934 c -1.52,0.614 -1.678,4.338 -0.184,4.338 1.821,0 4.671,-1.872 5.285,-3.472 0.591,-1.54 -2.239,-2.021 -5.101,-0.866 m 89.417,0.005 c -1.194,1.193 -0.702,4.333 0.678,4.333 1.35,0 4.655,-3.073 4.655,-4.329 0,-0.871 -4.463,-0.874 -5.333,-0.004"
       stroke="none"
       fill="#ffffff"
       fill-rule="evenodd"
       id="path350"
       inkscape:label="path350"
       style="display:inline"
       sodipodi:nodetypes="ccccsccccscsssscccssssccsccsccsssccsccsssccccsssscssccccssscccccccccccscccccscccsscscsscccccsccssssscccsccscssscccccscccccsccscscccccscccscscscsccccsscccccccccsccccssssscccscsscccssscccccccccscccssc" /><path
       d="M 18.75,92.666 C 14.721,95.653 14,96.698 14,99.555 c 0,3.006 12.4,-3.641 18.917,-10.139 2.653,-2.646 -10.188,0.3 -14.167,3.25 M 76,111 c 0,6 0,6 -30.031,6 -30.031,0 -30.031,0 -29.75,12.25 C 16.668,148.846 206,149.1 206,129.505 206,117 206,117 181.838,117 c -24.161,0 -24.161,0 -31.917,-6 -4.266,-3.3 -8.018,-6 -8.339,-6 -0.32,0 -0.582,2.7 -0.582,6 0,9.252 -16.669,9.252 -28.259,0 -4.134,-3.3 -7.792,-6 -8.129,-6 -0.336,0 -0.612,2.7 -0.612,6 0,6 0,6 -5.551,6 -5.257,0 -5.959,-0.317 -13.291,-6 -4.257,-3.3 -8.06,-6 -8.449,-6 -0.39,0 -0.709,2.7 -0.709,6 m 30.393,0.582 c 0.334,0.87 0.607,7.17 0.607,14 0,14.578 5.083,20.403 5.82,6.668 0.169,-3.162 0.729,-6.177 1.244,-6.7 1.718,-1.743 1.182,-5.999 -0.572,-4.543 -1.311,1.088 -1.465,0.701 -1.177,-2.944 0.276,-3.486 -0.083,-4.522 -2.126,-6.129 -2.979,-2.344 -4.618,-2.496 -3.796,-0.352 M 28,120.556 c 0,3.631 7.655,17.444 9.668,17.444 3.011,0 2.95,-0.782 -0.795,-10.165 C 34.096,120.875 28,115.874 28,120.556 m 11.691,3.548 c -1.404,3.576 -1.433,4.509 -0.221,7.25 1.333,3.016 1.419,3.053 2.077,0.896 0.996,-3.267 1.958,-2.779 3.453,1.75 1.175,3.561 6,6.215 6,3.3 0,-9.676 -8.702,-19.831 -11.309,-13.196 m 10.924,0.233 c -3.04,7.961 0.255,12.812 3.656,5.382 4.26,-9.305 4.3,-9.719 0.932,-9.719 -2.537,0 -3.154,0.584 -4.588,4.337 m 9.168,-2.587 c -5.465,6.265 -2.956,17.25 3.94,17.25 1.516,0 1.754,-5.587 0.277,-6.5 -0.55,-0.34 -1,-1.941 -1,-3.559 0,-1.618 0.45,-2.941 1,-2.941 0.55,0 1,-1.35 1,-3 0,-3.494 -2.696,-4.14 -5.217,-1.25 M 66,122.495 c 0,1.133 0.9,2.831 2,3.773 1.1,0.942 2,2.388 2,3.214 0,0.825 -0.9,2.063 -2,2.75 -4.172,2.605 -2.6,6.33 2.5,5.925 4.5,-0.358 4.5,-0.358 4.5,-9.236 0,-8.878 0,-8.878 -4.5,-8.682 -3.814,0.166 -4.5,0.51 -4.5,2.256 M 77,129 c 0,8.933 0.019,9 2.5,9 2.181,0 2.5,-0.438 2.5,-3.435 0,-5.088 1.614,-8.565 3.975,-8.565 1.668,0 2.031,0.662 2.057,3.75 0.039,4.639 3.729,9.25 7.402,9.25 0.991,0 0.608,-4.856 -0.434,-5.5 -3.096,-1.913 -0.78,-3.5 5.108,-3.5 6.109,0 6.109,0 5.426,-2.75 -0.868,-3.498 -4.34,-7.25 -6.708,-7.25 -2.232,0 -2.496,3.529 -0.326,4.362 2.578,0.989 1.64,2.638 -1.5,2.638 -2.946,0 -3.971,-1.282 -2,-2.5 1.451,-0.896 1.228,-4.5 -0.277,-4.5 -0.703,0 -2.278,0.701 -3.5,1.557 -2.012,1.409 -2.223,1.409 -2.223,0 0,-1.867 -3.069,-2.058 -4.925,-0.307 -1.06,1 -1.417,1 -1.783,0 C 80.209,115.571 77,120.272 77,129 m 39,-6.625 c 0,1.379 0.45,2.785 1,3.125 0.55,0.34 1,3.291 1,6.559 0,5.934 0.003,5.941 3,5.941 5.861,0 3.675,-17.126 -2.273,-17.816 -2.328,-0.271 -2.727,0.05 -2.727,2.191 m 11.455,0.08 c -4.825,4.824 -1.306,16.545 4.968,16.545 2.089,0 2.156,-5.564 0.077,-6.362 -0.825,-0.316 -1.5,-1.659 -1.5,-2.984 0,-1.325 0.675,-2.969 1.5,-3.654 0.825,-0.685 1.5,-2.315 1.5,-3.622 0,-3.204 -3.303,-3.166 -6.545,0.077 M 135,122.378 c 0,1.307 0.675,2.937 1.5,3.622 0.825,0.685 1.5,2.329 1.5,3.654 0,1.325 -0.675,2.668 -1.5,2.984 -2.079,0.798 -2.012,6.362 0.077,6.362 6.408,0 9.833,-11.862 4.777,-16.548 -3.462,-3.209 -6.354,-3.243 -6.354,-0.074 m 10,4.667 c 0,7.371 2.475,11.955 6.455,11.955 1.759,0 2.218,-5.466 0.545,-6.5 -0.55,-0.34 -1,-3.291 -1,-6.559 0,-5.934 -0.003,-5.941 -3,-5.941 -3,0 -3,0 -3,7.045 m 12,-1.234 c 0,4.064 -0.475,6.338 -1.5,7.189 -2.22,1.843 -1.951,6 0.389,6 6.641,0 10.349,-18.07 3.861,-18.816 -2.727,-0.314 -2.75,-0.267 -2.75,5.627 m 8.58,-3.899 c -2.137,2.36 -1.74,6.985 0.729,8.487 2.282,1.39 5.021,-1.783 4.085,-4.733 -0.532,-1.675 -0.26,-1.849 1.995,-1.283 1.436,0.36 2.611,0.233 2.611,-0.282 0,-0.516 0.273,-1.649 0.607,-2.519 0.953,-2.484 -7.739,-2.198 -10.027,0.33 m 14.344,0.669 c -4.723,5.028 -2.568,13.972 3.826,15.882 2.753,0.822 3.212,-2.644 0.686,-5.17 -2.373,-2.373 -0.331,-3.548 5.468,-3.146 4.92,0.341 5.097,0.262 5.097,-2.262 C 195,124.587 191.467,120 188.927,120 c -2.055,0 -2.75,3.373 -0.927,4.5 1.842,1.139 1.025,2.5 -1.5,2.5 -2.525,0 -3.342,-1.361 -1.5,-2.5 0.55,-0.34 1,-1.491 1,-2.559 0,-2.786 -3.171,-2.452 -6.076,0.64 m -8.902,6.378 c -0.577,1.078 -0.93,2.541 -0.786,3.25 0.176,0.859 -0.908,1.291 -3.236,1.291 -5.299,0 -5.691,4.092 -0.486,5.069 7.124,1.336 12.441,-3.936 9.105,-9.028 -1.999,-3.05 -3.195,-3.202 -4.597,-0.582 m -73.011,5.528 c -1.283,1.546 -0.742,4.513 0.823,4.513 1.316,0 6.166,-3.99 6.166,-5.073 0,-1.508 -5.648,-1.056 -6.989,0.56 m 90.239,-0.825 c -1.519,0.613 -1.682,5.338 -0.184,5.338 1.907,0 4.864,-2.001 5.946,-4.023 1.076,-2.009 -2.192,-2.755 -5.762,-1.315"
       stroke="none"
       fill="#da281c"
       fill-rule="evenodd"
       id="path352"
       style="display:inline" /><path
       d="m 102.762,2.707 c 1.244,0.239 3.044,0.23 4,-0.02 0.956,-0.25 -0.062,-0.446 -2.262,-0.435 -2.2,0.011 -2.982,0.216 -1.738,0.455 M 118.75,2.706 c 1.237,0.238 3.263,0.238 4.5,0 1.237,-0.239 0.225,-0.434 -2.25,-0.434 -2.475,0 -3.487,0.195 -2.25,0.434 M 94.813,3.683 C 95.534,3.972 96.397,3.936 96.729,3.604 97.061,3.272 96.471,3.036 95.417,3.079 94.252,3.127 94.015,3.364 94.813,3.683 M 128.75,3.662 c 0.688,0.278 1.813,0.278 2.5,0 0.688,-0.277 0.125,-0.504 -1.25,-0.504 -1.375,0 -1.937,0.227 -1.25,0.504 M 42.872,26.75 c -1.243,1.586 -1.208,1.621 0.378,0.378 0.962,-0.755 1.75,-1.543 1.75,-1.75 0,-0.823 -0.821,-0.294 -2.128,1.372 M 185.5,30 c 0.995,1.1 2.035,2 2.31,2 0.275,0 -0.315,-0.9 -1.31,-2 -0.995,-1.1 -2.035,-2 -2.31,-2 -0.275,0 0.315,0.9 1.31,2 M 33.946,34.75 C 30.5,38.5 30.5,38.5 34.25,35.054 37.74,31.846 38.46,31 37.696,31 c -0.167,0 -1.854,1.688 -3.75,3.75 M 195,39.5 c 1.292,1.375 2.574,2.5 2.849,2.5 0.275,0 -0.557,-1.125 -1.849,-2.5 -1.292,-1.375 -2.574,-2.5 -2.849,-2.5 -0.275,0 0.557,1.125 1.849,2.5 M 25.872,43.75 c -1.243,1.586 -1.208,1.621 0.378,0.378 0.962,-0.755 1.75,-1.543 1.75,-1.75 0,-0.823 -0.821,-0.294 -2.128,1.372 M 199,44.378 c 0,0.207 0.787,0.995 1.75,1.75 1.586,1.243 1.621,1.208 0.378,-0.378 C 199.821,44.084 199,43.555 199,44.378 M 16.189,87.75 c -0.177,5.841 0.743,7.788 2.406,5.095 0.431,-0.696 0.276,-0.883 -0.39,-0.472 C 17.462,92.832 16.983,91.166 16.74,87.278 16.378,81.5 16.378,81.5 16.189,87.75 M 35,83.378 c 0,0.207 0.788,0.995 1.75,1.75 1.586,1.243 1.621,1.208 0.378,-0.378 C 35.821,83.084 35,82.555 35,83.378 m 3.195,6.122 c 0.02,1.65 0.244,2.204 0.498,1.231 0.254,-0.973 0.237,-2.323 -0.037,-3 -0.274,-0.677 -0.481,0.119 -0.461,1.769 M 25,88.558 c 3.787,0.824 9,0.964 9,0.241 0,-0.439 -2.362,-0.747 -5.25,-0.683 -2.888,0.064 -4.575,0.263 -3.75,0.442 m 147.75,0.104 c 0.688,0.278 1.813,0.278 2.5,0 0.688,-0.277 0.125,-0.504 -1.25,-0.504 -1.375,0 -1.937,0.227 -1.25,0.504 m 24.063,0.021 c 0.721,0.289 1.584,0.253 1.916,-0.079 0.332,-0.332 -0.258,-0.568 -1.312,-0.525 -1.165,0.048 -1.402,0.285 -0.604,0.604 M 44.365,98.5 c 0.003,5.5 0.171,7.622 0.373,4.716 0.203,-2.905 0.201,-7.405 -0.004,-10 C 44.528,90.622 44.363,93 44.365,98.5 m 4.99,-1 c -0.003,4.95 0.166,7.101 0.376,4.78 0.209,-2.321 0.212,-6.371 0.005,-9 -0.206,-2.629 -0.378,-0.73 -0.381,4.22 m 9.851,0.128 c -0.211,9.357 -0.743,10.674 -4.706,11.648 -1.924,0.473 -1.921,0.496 0.095,0.608 4.251,0.235 5.517,-2.837 5.151,-12.508 C 59.411,88.5 59.411,88.5 59.206,97.628 M 87.343,96.5 c 0.003,4.4 0.179,6.076 0.39,3.724 0.212,-2.352 0.209,-5.952 -0.006,-8 C 87.512,90.176 87.339,92.1 87.343,96.5 m 4.873,4.372 c -0.203,11.601 -0.325,12.291 -1.966,11.055 -1.66,-1.25 -1.661,-1.22 -0.024,0.568 2.625,2.868 2.863,1.773 2.522,-11.61 C 92.432,88.5 92.432,88.5 92.216,100.872 M 97,89.378 c 0,0.207 0.787,0.995 1.75,1.75 1.586,1.243 1.621,1.208 0.378,-0.378 C 97.821,89.084 97,88.555 97,89.378 m 23.216,11.431 c -0.167,9.51 -0.5,12.149 -1.466,11.603 -0.992,-0.56 -0.996,-0.431 -0.017,0.625 2.082,2.245 2.342,0.677 2.015,-12.152 -0.316,-12.385 -0.316,-12.385 -0.532,-0.076 m 4.237,0.939 C 124.5,114.5 124.5,114.5 127,114.5 c 2.5,0 2.5,0 2.547,-12.752 0.046,-12.751 0.046,-12.751 -0.28,-0.25 -0.499,19.091 -4.035,19.091 -4.534,0 -0.326,-12.501 -0.326,-12.501 -0.28,0.25 M 134,89.378 c 0,0.207 0.787,0.995 1.75,1.75 1.586,1.243 1.621,1.208 0.378,-0.378 C 134.821,89.084 134,88.555 134,89.378 M 152.336,96 c 0,4.125 0.177,5.813 0.392,3.75 0.216,-2.062 0.216,-5.437 0,-7.5 -0.215,-2.062 -0.392,-0.375 -0.392,3.75 m 4.88,4.809 c -0.167,9.51 -0.5,12.149 -1.466,11.603 -0.992,-0.56 -0.996,-0.431 -0.017,0.625 2.082,2.245 2.342,0.677 2.015,-12.152 -0.316,-12.385 -0.316,-12.385 -0.532,-0.076 m 7.708,-8.059 C 162.5,95.5 162.5,95.5 165.25,93.076 167.82,90.81 168.459,90 167.674,90 c -0.179,0 -1.416,1.237 -2.75,2.75 m 18.001,-0.529 c 3.508,4.029 1.126,7.032 -2.825,3.562 -2.6,-2.283 -2.6,-2.283 -0.152,0.492 2.447,2.774 2.447,2.774 4.474,0.747 2.027,-2.027 2.027,-2.027 -0.919,-4.775 -2.947,-2.747 -2.947,-2.747 -0.578,-0.026 m 20.514,-1.427 c 0.403,0.711 0.157,2.061 -0.548,3 -1.154,1.536 -1.092,1.532 0.621,-0.037 1.589,-1.456 1.679,-1.95 0.548,-3 -1.09,-1.012 -1.211,-1.005 -0.621,0.037 m 17.64,1.789 c 0.048,1.165 0.285,1.402 0.604,0.605 0.289,-0.722 0.253,-1.585 -0.079,-1.917 -0.332,-0.332 -0.568,0.258 -0.525,1.312 M 73,92.378 c 0,0.207 0.787,0.995 1.75,1.75 1.586,1.243 1.621,1.208 0.378,-0.378 C 73.821,92.084 73,91.555 73,92.378 m 29,1 c 0,0.207 0.787,0.995 1.75,1.75 1.586,1.243 1.621,1.208 0.378,-0.378 C 102.821,93.084 102,92.555 102,93.378 m 37,0 c 0,0.207 0.787,0.995 1.75,1.75 1.586,1.243 1.621,1.208 0.378,-0.378 C 139.821,93.084 139,92.555 139,93.378 m 34.813,0.305 c 0.721,0.289 1.584,0.253 1.916,-0.079 0.332,-0.332 -0.258,-0.568 -1.312,-0.525 -1.165,0.048 -1.402,0.285 -0.604,0.604 m 21.776,0.173 c -0.291,0.47 0.583,0.643 1.941,0.383 1.359,-0.26 2.47,-0.645 2.47,-0.856 0,-0.773 -3.899,-0.356 -4.411,0.473 M 3.079,95.583 c 0.048,1.165 0.285,1.402 0.604,0.605 0.289,-0.722 0.253,-1.585 -0.079,-1.917 -0.332,-0.332 -0.568,0.258 -0.525,1.312 m 165.326,0.667 c -1.905,2.25 -1.905,2.25 0.345,0.345 1.238,-1.048 2.25,-2.06 2.25,-2.25 0,-0.8 -0.805,-0.209 -2.595,1.905 M 36.252,98.5 c 0.011,2.2 0.216,2.982 0.455,1.738 0.239,-1.244 0.23,-3.044 -0.02,-4 -0.25,-0.956 -0.446,0.062 -0.435,2.262 M 78,96.378 c 0,0.207 0.787,0.995 1.75,1.75 1.586,1.243 1.621,1.208 0.378,-0.378 C 78.821,96.084 78,95.555 78,96.378 m 29,1 c 0,0.207 0.787,0.995 1.75,1.75 1.586,1.243 1.621,1.208 0.378,-0.378 C 107.821,97.084 107,96.555 107,97.378 m 37,0 c 0,0.207 0.787,0.995 1.75,1.75 1.586,1.243 1.621,1.208 0.378,-0.378 C 144.821,97.084 144,96.555 144,97.378 m 78.195,2.122 c 0.02,1.65 0.244,2.204 0.498,1.231 0.254,-0.973 0.237,-2.323 -0.037,-3 -0.274,-0.677 -0.481,0.119 -0.461,1.769 m -60.943,2 c 0.011,2.2 0.216,2.982 0.455,1.738 0.239,-1.244 0.23,-3.044 -0.02,-4 -0.25,-0.956 -0.446,0.062 -0.435,2.262 m 4.943,0 c 0.02,1.65 0.244,2.204 0.498,1.231 0.254,-0.973 0.237,-2.323 -0.037,-3 -0.274,-0.677 -0.481,0.119 -0.461,1.769 M 16.398,101.405 c -0.296,0.772 -0.382,2.91 -0.189,4.75 0.306,2.933 0.408,2.76 0.827,-1.405 0.491,-4.871 0.31,-5.816 -0.638,-3.345 M 83,100.378 c 0,0.207 0.787,0.995 1.75,1.75 1.586,1.243 1.621,1.208 0.378,-0.378 C 83.821,100.084 83,99.555 83,100.378 m 20,0 c 0,0.207 0.787,0.995 1.75,1.75 1.586,1.243 1.621,1.208 0.378,-0.378 C 103.821,100.084 103,99.555 103,100.378 m 37,0 c 0,0.207 0.787,0.995 1.75,1.75 1.586,1.243 1.621,1.208 0.378,-0.378 C 140.821,100.084 140,99.555 140,100.378 M 2.252,104.5 c 0.011,2.2 0.216,2.982 0.455,1.738 0.239,-1.244 0.23,-3.044 -0.02,-4 -0.25,-0.956 -0.446,0.062 -0.435,2.262 M 187.158,103 c 0,1.375 0.227,1.938 0.504,1.25 0.278,-0.687 0.278,-1.812 0,-2.5 -0.277,-0.687 -0.504,-0.125 -0.504,1.25 M 79,103.378 c 0,0.207 0.787,0.995 1.75,1.75 1.586,1.243 1.621,1.208 0.378,-0.378 C 79.821,103.084 79,102.555 79,103.378 m 29,1 c 0,0.207 0.787,0.995 1.75,1.75 1.586,1.243 1.621,1.208 0.378,-0.378 -1.307,-1.666 -2.128,-2.195 -2.128,-1.372 m 37,0 c 0,0.207 0.787,0.995 1.75,1.75 1.586,1.243 1.621,1.208 0.378,-0.378 -1.307,-1.666 -2.128,-2.195 -2.128,-1.372 m 60.195,3.122 c 0.02,1.65 0.244,2.204 0.498,1.231 0.254,-0.973 0.237,-2.323 -0.037,-3 -0.274,-0.677 -0.481,0.119 -0.461,1.769 m -19.631,0.207 c -0.542,1.425 -0.428,1.54 0.56,0.56 0.684,-0.679 0.991,-1.486 0.683,-1.793 -0.308,-0.308 -0.867,0.247 -1.243,1.233 M 84,107.378 c 0,0.207 0.787,0.995 1.75,1.75 1.586,1.243 1.621,1.208 0.378,-0.378 C 84.821,107.084 84,106.555 84,107.378 m -46.128,2.372 c -1.243,1.586 -1.208,1.621 0.378,0.378 1.666,-1.307 2.195,-2.128 1.372,-2.128 -0.207,0 -0.995,0.787 -1.75,1.75 M 113,108.378 c 0,0.207 0.787,0.995 1.75,1.75 1.586,1.243 1.621,1.208 0.378,-0.378 -1.307,-1.666 -2.128,-2.195 -2.128,-1.372 m 37,0 c 0,0.207 0.787,0.995 1.75,1.75 1.586,1.243 1.621,1.208 0.378,-0.378 -1.307,-1.666 -2.128,-2.195 -2.128,-1.372 m 40.872,1.372 c -1.243,1.586 -1.208,1.621 0.378,0.378 0.963,-0.755 1.75,-1.543 1.75,-1.75 0,-0.823 -0.821,-0.294 -2.128,1.372 M 106,111.059 c 0,0.582 0.45,0.781 1,0.441 0.55,-0.34 1,-0.816 1,-1.059 0,-0.243 -0.45,-0.441 -1,-0.441 -0.55,0 -1,0.477 -1,1.059 m 90.813,-0.376 c 0.721,0.289 1.584,0.253 1.916,-0.079 0.332,-0.332 -0.258,-0.568 -1.312,-0.525 -1.165,0.048 -1.402,0.285 -0.604,0.604 M 110.5,113 c 0.995,1.1 2.035,2 2.31,2 0.275,0 -0.315,-0.9 -1.31,-2 -0.995,-1.1 -2.035,-2 -2.31,-2 -0.275,0 0.315,0.9 1.31,2 m 92.372,-0.25 c -1.243,1.586 -1.208,1.621 0.378,0.378 0.963,-0.755 1.75,-1.543 1.75,-1.75 0,-0.823 -0.821,-0.294 -2.128,1.372 M 20,114.243 c 0,0.416 2.813,0.705 6.25,0.641 6.755,-0.125 6.099,-0.603 -1.5,-1.092 -2.613,-0.169 -4.75,0.034 -4.75,0.451 m 32.762,0.464 c 1.244,0.239 3.044,0.23 4,-0.02 0.956,-0.25 -0.062,-0.446 -2.262,-0.435 -2.2,0.011 -2.982,0.216 -1.738,0.455 m 17.507,-0.014 c 0.973,0.254 2.323,0.237 3,-0.037 0.677,-0.274 -0.119,-0.481 -1.769,-0.461 -1.65,0.02 -2.204,0.244 -1.231,0.498 m 28,0 c 0.973,0.254 2.323,0.237 3,-0.037 0.677,-0.274 -0.119,-0.481 -1.769,-0.461 -1.65,0.02 -2.204,0.244 -1.231,0.498 m 37,0 c 0.973,0.254 2.323,0.237 3,-0.037 0.677,-0.274 -0.119,-0.481 -1.769,-0.461 -1.65,0.02 -2.204,0.244 -1.231,0.498 m 35.544,-0.01 c 0.721,0.289 1.584,0.253 1.916,-0.079 0.332,-0.332 -0.258,-0.568 -1.312,-0.525 -1.165,0.048 -1.402,0.285 -0.604,0.604 m 6,0 c 0.721,0.289 1.584,0.253 1.916,-0.079 0.332,-0.332 -0.258,-0.568 -1.312,-0.525 -1.165,0.048 -1.402,0.285 -0.604,0.604 M 2.272,121 c 0,2.475 0.195,3.487 0.434,2.25 0.238,-1.237 0.238,-3.263 0,-4.5 C 2.467,117.513 2.272,118.525 2.272,121 M 28,120.827 c 0,0.455 1.35,0.628 3,0.386 1.65,-0.242 3,-0.614 3,-0.826 0,-0.213 -1.35,-0.387 -3,-0.387 -1.65,0 -3,0.372 -3,0.827 m 13.75,-0.165 c 0.688,0.278 1.813,0.278 2.5,0 0.688,-0.277 0.125,-0.504 -1.25,-0.504 -1.375,0 -1.937,0.227 -1.25,0.504 M 52,120.387 c 0,0.212 1.35,0.584 3,0.826 1.65,0.242 3,0.069 3,-0.386 0,-0.455 -1.35,-0.827 -3,-0.827 -1.65,0 -3,0.174 -3,0.387 m 14,2.271 c 0,1.223 0.385,2.462 0.856,2.753 0.47,0.291 0.63,-0.65 0.355,-2.09 -0.28,-1.461 -0.095,-2.367 0.419,-2.05 0.506,0.313 2.483,0.203 4.395,-0.243 3.316,-0.775 3.257,-0.807 -1.275,-0.703 -4.21,0.098 -4.75,0.363 -4.75,2.333 m 12.269,-1.965 c 0.973,0.254 2.323,0.237 3,-0.037 0.677,-0.274 -0.119,-0.481 -1.769,-0.461 -1.65,0.02 -2.204,0.244 -1.231,0.498 m 9.847,1.057 c -0.139,2.693 1.127,2.903 3.012,0.5 1.228,-1.567 1.198,-1.614 -0.294,-0.447 -1.413,1.104 -1.738,1.028 -2.134,-0.5 -0.369,-1.422 -0.493,-1.327 -0.584,0.447 m 9.042,0.25 c 0,1.375 0.227,1.938 0.504,1.25 0.278,-0.687 0.278,-1.812 0,-2.5 -0.277,-0.687 -0.504,-0.125 -0.504,1.25 m 15.714,-0.25 c -1.243,1.586 -1.208,1.621 0.378,0.378 1.666,-1.307 2.195,-2.128 1.372,-2.128 -0.207,0 -0.995,0.787 -1.75,1.75 m 3.128,0.691 c 0,1.343 0.369,2.669 0.819,2.947 0.451,0.279 0.624,-0.82 0.387,-2.441 -0.525,-3.574 -1.206,-3.86 -1.206,-0.506 m 4,-2.063 c 0,0.207 0.787,0.995 1.75,1.75 1.586,1.243 1.621,1.208 0.378,-0.378 C 120.821,120.084 120,119.555 120,120.378 M 133.158,122 c 0,1.375 0.227,1.938 0.504,1.25 0.278,-0.687 0.278,-1.812 0,-2.5 -0.277,-0.687 -0.504,-0.125 -0.504,1.25 m 12.038,5.25 c 0.196,7.25 0.196,7.25 0.544,0.562 0.333,-6.395 0.467,-6.706 3.054,-7.1 2.464,-0.376 2.416,-0.426 -0.544,-0.562 C 145,120 145,120 145.196,127.25 m 14.506,-6.535 c 1.889,0.351 2.256,1.181 2.582,5.852 0.38,5.443 0.38,5.443 0.298,-0.312 -0.077,-5.423 -0.226,-5.761 -2.582,-5.851 -2.076,-0.081 -2.126,-0.028 -0.298,0.311 M 174.5,121 c 0.34,0.55 0.816,1 1.059,1 0.243,0 0.441,-0.45 0.441,-1 0,-0.55 -0.477,-1 -1.059,-1 -0.582,0 -0.781,0.45 -0.441,1 m 12.648,0.5 c -0.047,1.1 0.576,2.874 1.384,3.941 0.807,1.068 1.468,1.495 1.468,0.95 0,-0.545 -0.406,-1.418 -0.903,-1.941 -0.497,-0.523 -1.119,-1.85 -1.384,-2.95 -0.481,-2 -0.481,-2 -0.565,0 M 189,120.393 c 0,0.216 0.698,0.661 1.552,0.989 0.89,0.341 1.291,0.173 0.941,-0.393 -0.587,-0.951 -2.493,-1.406 -2.493,-0.596 m -62.128,2.357 c -1.243,1.586 -1.208,1.621 0.378,0.378 1.666,-1.307 2.195,-2.128 1.372,-2.128 -0.207,0 -0.995,0.787 -1.75,1.75 m -71.233,1.749 c -0.317,0.824 -0.129,2.512 0.416,3.75 0.888,2.017 0.933,1.957 0.428,-0.583 -0.36,-1.81 -0.192,-2.604 0.465,-2.198 0.612,0.378 0.788,0.007 0.434,-0.916 -0.742,-1.933 -1.019,-1.941 -1.743,-0.053 m 128.341,0.025 c -0.696,0.838 -1.071,1.718 -0.835,1.955 0.237,0.236 0.98,-0.449 1.651,-1.524 1.452,-2.325 0.968,-2.58 -0.816,-0.431 M 113.2,125.2 c -0.66,0.66 -1.121,3.247 -1.025,5.75 0.174,4.55 0.174,4.55 0.568,0.07 0.217,-2.465 0.869,-5.052 1.448,-5.75 1.337,-1.611 0.601,-1.662 -0.991,-0.07 m 55.8,-0.558 c 0,0.537 0.7,1.849 1.555,2.917 1.467,1.83 1.487,1.798 0.365,-0.559 -1.458,-3.061 -1.92,-3.628 -1.92,-2.358 M 222.158,126 c 0,1.375 0.227,1.938 0.504,1.25 0.278,-0.687 0.278,-1.812 0,-2.5 -0.277,-0.687 -0.504,-0.125 -0.504,1.25 M 83.2,126.2 c -0.66,0.66 -1.171,1.897 -1.137,2.75 0.037,0.901 0.46,0.56 1.011,-0.815 0.728,-1.818 1.515,-2.256 3.406,-1.894 1.353,0.259 2.222,0.085 1.931,-0.385 C 87.64,124.608 84.59,124.81 83.2,126.2 m 40.128,5.3 c 0.005,3.85 0.185,5.302 0.402,3.228 0.216,-2.075 0.213,-5.225 -0.008,-7 -0.221,-1.776 -0.398,-0.078 -0.394,3.772 m -74.597,-2.58 c -0.435,1.663 -0.305,2.054 0.437,1.312 0.582,-0.582 0.86,-1.647 0.62,-2.369 -0.25,-0.749 -0.703,-0.295 -1.057,1.057 M 62.158,129 c 0,1.375 0.227,1.938 0.504,1.25 0.278,-0.687 0.278,-1.812 0,-2.5 -0.277,-0.687 -0.504,-0.125 -0.504,1.25 m 42.921,-0.417 c 0.048,1.165 0.285,1.402 0.604,0.605 0.289,-0.722 0.253,-1.585 -0.079,-1.917 -0.332,-0.332 -0.568,0.258 -0.525,1.312 m 71.546,1.542 c -0.834,4.168 -0.026,4.976 0.875,0.875 0.38,-1.729 0.482,-3.351 0.227,-3.606 -0.255,-0.255 -0.751,0.974 -1.102,2.731 M 3.158,130 c 0,1.375 0.227,1.938 0.504,1.25 0.278,-0.687 0.278,-1.812 0,-2.5 -0.277,-0.687 -0.504,-0.125 -0.504,1.25 m 162.068,-0.421 c 0.95,0.991 1.942,1.587 2.205,1.324 0.263,-0.263 -0.514,-1.074 -1.726,-1.803 -2.107,-1.265 -2.128,-1.243 -0.479,0.479 m 4.338,0.714 c 0.376,0.986 0.935,1.541 1.243,1.233 0.308,-0.307 0.001,-1.114 -0.683,-1.793 -0.988,-0.98 -1.102,-0.865 -0.56,0.56 m -130.893,1.122 c -0.299,0.779 -0.161,2.691 0.307,4.25 0.708,2.363 0.864,2.47 0.936,0.644 0.047,-1.205 0.536,-2.469 1.086,-2.809 0.55,-0.34 1,-1.127 1,-1.75 0,-0.623 -0.698,-0.259 -1.552,0.809 -1.508,1.886 -1.534,1.878 -0.932,-0.309 0.677,-2.463 0.027,-3.106 -0.845,-0.835 m 29.079,0.977 c -0.963,0.731 -1.714,2.179 -1.671,3.218 0.059,1.413 0.218,1.511 0.63,0.39 0.304,-0.825 1.238,-2.287 2.076,-3.25 1.801,-2.067 1.399,-2.206 -1.035,-0.358 m 153.329,0.191 c 0.048,1.165 0.285,1.402 0.604,0.605 0.289,-0.722 0.253,-1.585 -0.079,-1.917 -0.332,-0.332 -0.568,0.258 -0.525,1.312 m -169.867,1.449 c -0.667,1.067 -1.209,2.509 -1.206,3.204 0.004,0.695 0.687,-0.04 1.518,-1.635 1.733,-3.323 1.504,-4.476 -0.312,-1.569 M 155.2,133.2 c -2.16,2.16 -1.485,5.815 1.05,5.684 1.693,-0.087 1.817,-0.229 0.5,-0.573 -2.011,-0.526 -2.314,-3.347 -0.55,-5.111 0.66,-0.66 0.975,-1.2 0.7,-1.2 -0.275,0 -1.04,0.54 -1.7,1.2 m -22.2,2.217 c 0,1.329 -0.562,2.643 -1.25,2.921 -0.747,0.301 -0.545,0.536 0.5,0.583 1.295,0.058 1.75,-0.7 1.75,-2.921 0,-1.65 -0.225,-3 -0.5,-3 -0.275,0 -0.5,1.088 -0.5,2.417 M 169,134 c -0.901,0.582 -1.025,0.975 -0.309,0.985 0.655,0.008 1.469,-0.435 1.809,-0.985 0.767,-1.242 0.421,-1.242 -1.5,0 m 9,-0.322 c 0,0.557 1.012,1.869 2.25,2.917 2.25,1.905 2.25,1.905 0.261,-0.595 -1.094,-1.375 -2.107,-2.687 -2.25,-2.917 -0.144,-0.229 -0.261,0.039 -0.261,0.595 m 9.116,2.572 c -0.084,2.002 0.36,2.746 1.634,2.735 1.111,-0.01 1.336,-0.284 0.616,-0.75 -0.624,-0.404 -1.359,-1.635 -1.634,-2.735 -0.383,-1.533 -0.527,-1.358 -0.616,0.75 M 58,135.378 c 0,0.207 0.788,0.995 1.75,1.75 1.586,1.243 1.621,1.208 0.378,-0.378 C 58.821,135.084 58,134.555 58,135.378 m 39.268,1.039 c 0.127,1.055 0.907,2.101 1.732,2.326 0.965,0.263 1.107,0.114 0.4,-0.417 -0.605,-0.454 -1.385,-1.501 -1.732,-2.326 -0.445,-1.054 -0.564,-0.93 -0.4,0.417 M 146,135.378 c 0,0.207 0.787,0.995 1.75,1.75 1.586,1.243 1.621,1.208 0.378,-0.378 -1.307,-1.666 -2.128,-2.195 -2.128,-1.372 m 13.872,1.372 c -1.243,1.586 -1.208,1.621 0.378,0.378 1.666,-1.307 2.195,-2.128 1.372,-2.128 -0.207,0 -0.995,0.787 -1.75,1.75 m 32,0 c -1.243,1.586 -1.208,1.621 0.378,0.378 1.666,-1.307 2.195,-2.128 1.372,-2.128 -0.207,0 -0.995,0.787 -1.75,1.75 M 68.5,137 c -0.34,0.55 -0.141,1 0.441,1 0.582,0 1.059,-0.45 1.059,-1 0,-0.55 -0.198,-1 -0.441,-1 -0.243,0 -0.719,0.45 -1.059,1 m -5.687,1.683 c 0.721,0.289 1.584,0.253 1.916,-0.079 0.332,-0.332 -0.258,-0.568 -1.312,-0.525 -1.165,0.048 -1.402,0.285 -0.604,0.604 m 73,0 c 0.721,0.289 1.584,0.253 1.916,-0.079 0.332,-0.332 -0.258,-0.568 -1.312,-0.525 -1.165,0.048 -1.402,0.285 -0.604,0.604 m 15,0 c 0.721,0.289 1.584,0.253 1.916,-0.079 0.332,-0.332 -0.258,-0.568 -1.312,-0.525 -1.165,0.048 -1.402,0.285 -0.604,0.604 m 16.437,0.006 c 0.963,0.252 2.537,0.252 3.5,0 0.963,-0.251 0.175,-0.457 -1.75,-0.457 -1.925,0 -2.713,0.206 -1.75,0.457 m 30.622,44.061 c -1.243,1.586 -1.208,1.621 0.378,0.378 0.963,-0.755 1.75,-1.543 1.75,-1.75 0,-0.823 -0.821,-0.294 -2.128,1.372 M 29.5,186 c 0.995,1.1 2.035,2 2.31,2 0.275,0 -0.315,-0.9 -1.31,-2 -0.995,-1.1 -2.035,-2 -2.31,-2 -0.275,0 0.315,0.9 1.31,2 m 160.905,5.25 c -1.905,2.25 -1.905,2.25 0.345,0.345 1.238,-1.048 2.25,-2.06 2.25,-2.25 0,-0.8 -0.805,-0.209 -2.595,1.905 M 39,195.5 c 1.292,1.375 2.574,2.5 2.849,2.5 0.275,0 -0.557,-1.125 -1.849,-2.5 -1.292,-1.375 -2.574,-2.5 -2.849,-2.5 -0.275,0 0.557,1.125 1.849,2.5 m 142.872,3.25 c -1.243,1.586 -1.208,1.621 0.378,0.378 1.666,-1.307 2.195,-2.128 1.372,-2.128 -0.207,0 -0.995,0.787 -1.75,1.75 M 44,199.378 c 0,0.207 0.788,0.995 1.75,1.75 1.586,1.243 1.621,1.208 0.378,-0.378 C 44.821,199.084 44,198.555 44,199.378 m 47.813,22.305 c 0.721,0.289 1.584,0.253 1.916,-0.079 0.332,-0.332 -0.258,-0.568 -1.312,-0.525 -1.165,0.048 -1.402,0.285 -0.604,0.604 m 40,0 c 0.721,0.289 1.584,0.253 1.916,-0.079 0.332,-0.332 -0.258,-0.568 -1.312,-0.525 -1.165,0.048 -1.402,0.285 -0.604,0.604 m -33.544,1.01 c 0.973,0.254 2.323,0.237 3,-0.037 0.677,-0.274 -0.119,-0.481 -1.769,-0.461 -1.65,0.02 -2.204,0.244 -1.231,0.498 m 26.481,-0.031 c 0.688,0.278 1.813,0.278 2.5,0 0.688,-0.277 0.125,-0.504 -1.25,-0.504 -1.375,0 -1.937,0.227 -1.25,0.504"
       stroke="none"
       fill="#f2d7d6"
       fill-rule="evenodd"
       id="path354"
       style="display:inline" /><path
       d="M 100.906,3.024 C 17.371,12.42 -25.638,107.947 22.786,176.538 74.167,249.319 187.063,233.254 216.795,148.931 243.482,73.242 180.591,-5.939 100.906,3.024 M 16,88.441 c 0,3.543 -0.45,6.719 -1,7.059 -0.55,0.34 -1,2.193 -1,4.118 0,2.079 0.406,3.249 1,2.882 0.595,-0.368 1,0.823 1,2.941 0,4.025 0.712,4.329 4.115,1.757 C 33.84,96.825 36,95.75 36,99.294 c 0,3.124 -0.637,3.827 -7.967,8.801 C 18.485,114.573 18.347,115 25.803,115 37.633,115 45.41,104.456 38.825,97.344 37.224,95.616 37.044,94.787 37.914,93.16 41.711,86.065 37.024,82 25.045,82 16,82 16,82 16,88.441 m 153.02,1.311 c -9.65,4.848 -10.504,17.695 -1.546,23.232 6.573,4.062 15.66,1.468 18.92,-5.401 2.841,-5.988 2.399,-6.583 -4.894,-6.583 -5.833,0 -6.5,0.205 -6.5,2 0,1.568 0.667,2 3.083,2 3.61,0 3.531,1.838 -0.162,3.759 -7.593,3.95 -14.874,-6.696 -8.607,-12.585 3.112,-2.923 7.441,-2.783 10.708,0.347 2.631,2.52 2.631,2.52 4.469,0.489 2.348,-2.595 -0.72,-6.423 -6.417,-8.006 -4.72,-1.311 -5.002,-1.288 -9.054,0.748 m 25.48,-0.597 c -7.037,3.849 -5.089,12.619 3.402,15.314 2.072,0.657 3.447,3.157 2.542,4.621 -0.726,1.175 -4.523,1.146 -6.41,-0.048 -1.632,-1.032 -4.034,0.409 -4.034,2.42 0,3.799 10.028,4.601 13.545,1.083 4.446,-4.445 3.129,-8.37 -4.36,-12.99 -4.966,-3.064 -5.002,-5.05 -0.092,-5.067 6.531,-0.022 7.863,-2.773 2.439,-5.039 -4.088,-1.708 -4.421,-1.722 -7.032,-0.294 M 44,98.6 c 0,9.584 0.006,9.606 3.4,13 8.741,8.741 17.6,2.198 17.6,-13 C 65,89 65,89 62,89 59,89 59,89 59,97.8 59,107.066 58.223,109 54.5,109 50.777,109 50,107.066 50,97.8 50,89 50,89 47,89 c -3,0 -3,0 -3,9.6 m 25,3.28 c 0,16.449 4.594,21.396 5.208,5.607 0.292,-7.514 0.292,-7.514 9.001,-0.5 4.79,3.857 8.952,7.013 9.25,7.013 C 92.757,114 93,108.375 93,101.5 93,89 93,89 90,89 c -3,0 -3,0 -3,7.12 0,7.976 1.562,8.393 -13.25,-3.536 C 69,88.759 69,88.759 69,101.88 m 28,0.087 c 0,16.3 4.592,21.257 5.208,5.622 0.292,-7.412 0.292,-7.412 8.792,-0.536 4.675,3.782 8.838,6.892 9.25,6.912 0.412,0.019 0.75,-5.59 0.75,-12.465 0,-15.606 -5.576,-20.535 -6.206,-5.486 -0.294,7.013 -0.294,7.013 -9.044,-0.033 C 97,88.934 97,88.934 97,101.967 m 27.22,-0.217 c 0.439,20.016 5.121,20.016 5.56,0 C 130.06,89 130.06,89 127,89 c -3.06,0 -3.06,0 -2.78,12.75 m 9.78,0.217 c 0,16.3 4.592,21.257 5.208,5.622 0.292,-7.412 0.292,-7.412 8.792,-0.536 4.675,3.782 8.838,6.892 9.25,6.912 0.412,0.019 0.75,-5.59 0.75,-12.465 0,-15.606 -5.576,-20.535 -6.206,-5.486 -0.294,7.013 -0.294,7.013 -9.044,-0.033 C 134,88.934 134,88.934 134,101.967 M 76,111 c 0,6 0,6 -30.031,6 -30.031,0 -30.031,0 -29.75,12.25 C 16.668,148.846 206,149.1 206,129.505 206,117 206,117 181.838,117 c -24.161,0 -24.161,0 -31.917,-6 -4.266,-3.3 -8.018,-6 -8.339,-6 -0.32,0 -0.582,2.7 -0.582,6 0,9.252 -16.669,9.252 -28.259,0 -4.134,-3.3 -7.792,-6 -8.129,-6 -0.336,0 -0.612,2.7 -0.612,6 0,6 0,6 -5.551,6 -5.257,0 -5.959,-0.317 -13.291,-6 -4.257,-3.3 -8.06,-6 -8.449,-6 -0.39,0 -0.709,2.7 -0.709,6"
       stroke="none"
       fill="#0c5354"
       fill-rule="evenodd"
       id="path356"
       style="display:inline" /></g></svg>
