<?xml version="1.0" encoding="UTF-8" standalone="no"?><!-- Generator: Gravit.io --><svg xmlns="http://www.w3.org/2000/svg" xmlns:xlink="http://www.w3.org/1999/xlink" style="isolation:isolate" viewBox="0 0 24 24" width="24pt" height="24pt"><defs><clipPath id="_clipPath_rQLQqDGEwWvQ7o3QsX6u6zj7SNXrY70Y"><rect width="24" height="24"/></clipPath></defs><g clip-path="url(#_clipPath_rQLQqDGEwWvQ7o3QsX6u6zj7SNXrY70Y)"><path d=" M 18.219 16.551 C 19.896 14.836 21.02 12.588 21.02 10.02 C 21.02 5.042 16.978 1 12 1 C 7.022 1 2.98 5.042 2.98 10.02 C 2.98 12.62 4.007 14.787 5.844 16.61 L 5.844 16.61 L 11.633 23 L 18.23 16.551 L 18.219 16.551 Z " fill="rgb(159,148,123)"/><path d=" M 7.132 11.867 L 7.132 11.867 L 6.188 11.837 L 6.188 11.837 Q 5.916 11.837 5.342 11.867 L 5.342 11.867 L 5.342 11.867 Q 5.323 11.75 5.354 11.651 L 5.354 11.651 L 5.354 11.651 Q 5.613 11.614 5.848 11.528 L 5.848 11.528 L 5.848 7.823 L 5.373 7.7 L 5.373 7.7 Q 5.354 7.583 5.403 7.484 L 5.403 7.484 L 5.403 7.484 Q 5.959 7.515 6.157 7.515 L 6.157 7.515 L 6.984 7.509 L 6.984 7.509 Q 8.509 7.496 8.521 8.503 L 8.521 8.503 L 8.521 8.503 Q 8.521 8.904 8.247 9.179 L 8.247 9.179 L 8.247 9.179 Q 7.972 9.453 7.564 9.521 L 7.564 9.521 L 7.564 9.534 L 7.564 9.534 Q 8.787 9.669 8.787 10.663 L 8.787 10.663 L 8.787 10.663 Q 8.787 10.997 8.651 11.241 L 8.651 11.241 L 8.651 11.241 Q 8.515 11.485 8.274 11.617 L 8.274 11.617 L 8.274 11.617 Q 8.034 11.75 7.753 11.809 L 7.753 11.809 L 7.753 11.809 Q 7.472 11.867 7.132 11.867 Z  M 6.496 9.725 L 6.496 11.559 L 7.058 11.59 L 7.058 11.59 Q 7.626 11.59 7.867 11.346 L 7.867 11.346 L 7.867 11.346 Q 8.108 11.102 8.095 10.657 L 8.095 10.657 L 8.095 10.657 Q 8.095 10.151 7.833 9.938 L 7.833 9.938 L 7.833 9.938 Q 7.571 9.725 6.935 9.725 L 6.935 9.725 L 6.496 9.725 Z  M 6.496 7.811 L 6.496 9.416 L 6.854 9.416 L 6.854 9.416 Q 7.398 9.416 7.629 9.197 L 7.629 9.197 L 7.629 9.197 Q 7.861 8.978 7.861 8.527 L 7.861 8.527 L 7.861 8.527 Q 7.861 8.138 7.617 7.969 L 7.617 7.969 L 7.617 7.969 Q 7.373 7.799 6.805 7.799 L 6.805 7.799 L 6.805 7.799 Q 6.719 7.799 6.496 7.811 L 6.496 7.811 Z  M 11.794 10.188 L 9.929 10.17 L 9.929 10.293 L 9.929 10.293 Q 9.929 10.91 10.179 11.256 L 10.179 11.256 L 10.179 11.256 Q 10.429 11.602 10.861 11.602 L 10.861 11.602 L 10.861 11.602 Q 11.139 11.602 11.306 11.549 L 11.306 11.549 L 11.306 11.549 Q 11.473 11.497 11.726 11.324 L 11.726 11.324 L 11.726 11.324 Q 11.824 11.367 11.837 11.472 L 11.837 11.472 L 11.837 11.472 Q 11.411 11.935 10.843 11.941 L 10.843 11.941 L 10.843 11.941 Q 10.133 11.941 9.707 11.497 L 9.707 11.497 L 9.707 11.497 Q 9.281 11.052 9.275 10.293 L 9.275 10.293 L 9.275 10.293 Q 9.281 9.515 9.722 9.08 L 9.722 9.08 L 9.722 9.08 Q 10.164 8.645 10.812 8.645 L 10.812 8.645 L 10.812 8.645 Q 11.337 8.645 11.611 9 L 11.611 9 L 11.611 9 Q 11.886 9.355 11.886 9.96 L 11.886 9.96 L 11.886 9.96 Q 11.886 10.065 11.88 10.12 L 11.88 10.12 L 11.794 10.188 Z  M 10.806 8.91 L 10.806 8.91 L 10.806 8.91 Q 10.516 8.91 10.272 9.172 L 10.272 9.172 L 10.272 9.172 Q 10.028 9.435 9.954 9.916 L 9.954 9.916 L 11.3 9.842 L 11.3 9.842 Q 11.3 9.348 11.192 9.129 L 11.192 9.129 L 11.192 9.129 Q 11.084 8.91 10.806 8.91 Z  M 13.312 8.743 L 13.312 8.743 L 13.294 9.163 L 13.3 9.169 L 13.3 9.169 Q 13.819 8.663 14.461 8.651 L 14.461 8.651 L 14.461 8.651 Q 14.868 8.651 15.097 8.882 L 15.097 8.882 L 15.097 8.882 Q 15.325 9.114 15.325 9.546 L 15.325 9.546 L 15.331 11.528 L 15.763 11.651 L 15.763 11.651 Q 15.782 11.769 15.733 11.867 L 15.733 11.867 L 15.733 11.867 Q 15.239 11.837 15.023 11.837 L 15.023 11.837 L 15.023 11.837 Q 14.8 11.837 14.294 11.867 L 14.294 11.867 L 14.294 11.867 Q 14.275 11.75 14.306 11.651 L 14.306 11.651 L 14.306 11.651 Q 14.498 11.614 14.714 11.528 L 14.714 11.528 L 14.714 9.824 L 14.714 9.824 Q 14.714 9.416 14.587 9.25 L 14.587 9.25 L 14.587 9.25 Q 14.461 9.083 14.171 9.083 L 14.171 9.083 L 14.171 9.083 Q 13.67 9.083 13.343 9.453 L 13.343 9.453 L 13.343 11.528 L 13.757 11.651 L 13.757 11.651 Q 13.775 11.769 13.726 11.867 L 13.726 11.867 L 13.726 11.867 Q 13.232 11.837 13.035 11.837 L 13.035 11.837 L 13.035 11.837 Q 12.849 11.837 12.281 11.867 L 12.281 11.867 L 12.281 11.867 Q 12.263 11.75 12.294 11.651 L 12.294 11.651 L 12.294 11.651 Q 12.59 11.577 12.726 11.528 L 12.726 11.528 L 12.726 9.12 L 12.213 9.071 L 12.213 9.071 Q 12.195 8.947 12.244 8.854 L 12.244 8.854 L 12.244 8.854 Q 12.72 8.774 13.102 8.688 L 13.102 8.688 L 13.102 8.688 Q 13.207 8.694 13.312 8.743 Z  M 18.573 10.188 L 16.708 10.17 L 16.708 10.293 L 16.708 10.293 Q 16.708 10.91 16.958 11.256 L 16.958 11.256 L 16.958 11.256 Q 17.208 11.602 17.64 11.602 L 17.64 11.602 L 17.64 11.602 Q 17.918 11.602 18.085 11.549 L 18.085 11.549 L 18.085 11.549 Q 18.252 11.497 18.505 11.324 L 18.505 11.324 L 18.505 11.324 Q 18.603 11.367 18.616 11.472 L 18.616 11.472 L 18.616 11.472 Q 18.19 11.935 17.622 11.941 L 17.622 11.941 L 17.622 11.941 Q 16.912 11.941 16.486 11.497 L 16.486 11.497 L 16.486 11.497 Q 16.06 11.052 16.054 10.293 L 16.054 10.293 L 16.054 10.293 Q 16.06 9.515 16.501 9.08 L 16.501 9.08 L 16.501 9.08 Q 16.943 8.645 17.591 8.645 L 17.591 8.645 L 17.591 8.645 Q 18.116 8.645 18.39 9 L 18.39 9 L 18.39 9 Q 18.665 9.355 18.665 9.96 L 18.665 9.96 L 18.665 9.96 Q 18.665 10.065 18.659 10.12 L 18.659 10.12 L 18.573 10.188 Z  M 17.585 8.91 L 17.585 8.91 L 17.585 8.91 Q 17.295 8.91 17.051 9.172 L 17.051 9.172 L 17.051 9.172 Q 16.807 9.435 16.733 9.916 L 16.733 9.916 L 18.079 9.842 L 18.079 9.842 Q 18.079 9.348 17.971 9.129 L 17.971 9.129 L 17.971 9.129 Q 17.863 8.91 17.585 8.91 Z " fill="rgb(53,46,30)"/></g></svg>