<?xml version="1.0" encoding="UTF-8" standalone="no"?><!-- Generator: Gravit.io --><svg xmlns="http://www.w3.org/2000/svg" xmlns:xlink="http://www.w3.org/1999/xlink" style="isolation:isolate" viewBox="0 0 24 24" width="24pt" height="24pt"><defs><clipPath id="_clipPath_BjCz4brZnkNh5zdTikUTufxQ8j6AtFgQ"><rect width="24" height="24"/></clipPath></defs><g clip-path="url(#_clipPath_BjCz4brZnkNh5zdTikUTufxQ8j6AtFgQ)"><path d=" M 18.219 16.551 C 19.896 14.836 21.02 12.588 21.02 10.02 C 21.02 5.042 16.978 1 12 1 C 7.022 1 2.98 5.042 2.98 10.02 C 2.98 12.62 4.007 14.787 5.844 16.61 L 5.844 16.61 L 11.633 23 L 18.23 16.551 L 18.219 16.551 Z " fill="rgb(100,64,58)"/><g><path d=" M 7.441 11.978 L 7.441 16.283 L 11.891 16.317 L 16.559 16.283 L 16.559 11.978 L 16.559 4 L 12 4 L 7.441 4 L 7.441 11.978 Z  M 10.591 4.269 C 10.515 4.351 10.258 4.514 10.019 4.631 C 9.732 4.777 9.533 4.924 9.411 5.081 C 9.311 5.21 9.159 5.397 9.066 5.496 C 8.972 5.596 8.832 5.859 8.756 6.081 C 8.633 6.437 8.627 6.49 8.709 6.554 C 8.809 6.63 8.814 6.613 8.37 7.542 C 8.166 7.969 8.16 8.115 8.323 8.232 C 8.446 8.314 8.446 8.337 8.382 8.664 C 8.318 9.003 8.335 9.202 8.44 9.202 C 8.47 9.202 8.493 9.161 8.493 9.114 C 8.493 8.933 8.68 8.571 8.814 8.501 C 9.013 8.395 9.2 8.53 9.376 8.892 C 9.446 9.044 9.557 9.249 9.621 9.337 C 9.72 9.489 9.726 9.506 9.639 9.64 C 9.58 9.728 9.545 9.909 9.545 10.137 C 9.545 10.447 9.533 10.488 9.434 10.488 C 9.3 10.488 9.224 10.582 9.323 10.622 C 9.422 10.658 9.305 10.862 9.171 10.885 C 9.031 10.915 8.791 10.745 8.715 10.558 C 8.668 10.441 8.645 10.424 8.627 10.494 C 8.604 10.599 8.733 10.973 8.996 11.599 C 9.153 11.961 9.165 12.037 9.206 13.206 C 9.224 13.878 9.265 14.556 9.288 14.708 C 9.323 14.971 9.317 14.989 9.136 15.094 C 9.031 15.158 8.668 15.281 8.329 15.369 C 7.984 15.45 7.675 15.55 7.634 15.585 C 7.569 15.632 7.558 14.55 7.558 9.88 L 7.558 4.117 L 9.148 4.117 L 10.732 4.117 L 10.591 4.269 Z  M 13.596 5.689 C 13.946 5.748 14.262 5.83 14.297 5.865 C 14.344 5.911 14.361 6.104 14.35 6.437 L 14.332 6.94 L 14.578 7.226 C 14.712 7.384 14.811 7.519 14.8 7.53 C 14.788 7.536 14.659 7.612 14.513 7.694 C 14.28 7.829 14.198 7.846 13.888 7.817 C 13.689 7.799 13.49 7.811 13.426 7.846 C 13.35 7.887 13.274 7.881 13.157 7.823 C 13.017 7.747 12.941 7.753 12.573 7.834 C 12.339 7.887 12.094 7.963 12.029 8.004 C 11.83 8.127 11.258 8.284 11.158 8.249 C 11.094 8.22 11.065 8.138 11.065 7.957 C 11.065 7.811 11.024 7.583 10.977 7.449 C 10.93 7.314 10.889 7.045 10.889 6.852 C 10.889 6.519 10.907 6.484 11.182 6.133 C 11.509 5.718 11.55 5.695 11.93 5.689 C 12.082 5.689 12.257 5.666 12.321 5.637 C 12.509 5.555 12.924 5.572 13.596 5.689 Z  M 13.853 8.138 C 13.999 8.232 14.04 8.507 14.005 9.185 C 13.964 10.015 13.929 10.055 13.374 10.032 C 13.181 10.026 12.988 10.044 12.941 10.073 C 12.807 10.161 12.929 10.254 13.187 10.254 C 13.321 10.254 13.473 10.283 13.52 10.313 C 13.59 10.359 13.584 10.389 13.473 10.506 C 13.309 10.675 13.309 10.739 13.479 10.862 C 13.602 10.95 13.584 10.956 13.128 10.932 C 12.684 10.909 12.456 10.932 12.134 11.037 C 12.012 11.078 12 11.061 12 10.897 C 12 10.652 12.076 10.511 12.427 10.155 C 12.59 9.985 12.707 9.833 12.684 9.81 C 12.585 9.711 12.216 9.868 11.918 10.143 C 11.649 10.389 11.567 10.511 11.38 10.985 C 11.258 11.289 11.141 11.54 11.117 11.54 C 11.088 11.54 11.041 11.488 11.006 11.423 C 10.96 11.336 10.965 11.219 11.03 10.973 C 11.082 10.786 11.1 10.617 11.076 10.593 C 11.047 10.564 10.942 10.576 10.837 10.611 C 10.562 10.704 10.492 10.617 10.615 10.33 C 10.685 10.161 10.889 9.144 10.889 8.957 C 10.889 8.939 11.053 8.91 11.258 8.892 C 11.456 8.869 11.684 8.84 11.766 8.816 C 11.871 8.793 11.959 8.822 12.058 8.904 L 12.205 9.021 L 11.795 9.027 C 11.386 9.027 11.117 9.103 11.299 9.167 C 11.994 9.407 12.152 9.442 12.421 9.407 C 12.66 9.372 12.701 9.348 12.69 9.255 C 12.678 9.173 12.742 9.103 12.906 9.009 C 13.04 8.933 13.216 8.758 13.327 8.588 C 13.637 8.103 13.707 8.045 13.853 8.138 Z  M 13.549 11.347 C 13.824 11.493 14.017 11.686 13.958 11.768 C 13.905 11.856 13.526 11.85 13.128 11.745 C 12.877 11.68 12.736 11.675 12.585 11.715 C 12.433 11.756 12.357 11.751 12.251 11.686 C 12.076 11.569 12.082 11.54 12.339 11.347 C 12.532 11.201 12.59 11.189 12.935 11.207 C 13.163 11.219 13.409 11.277 13.549 11.347 Z  M 12.099 11.71 C 12.234 11.797 12.45 11.891 12.573 11.914 C 12.894 11.961 12.97 12.066 12.853 12.294 C 12.801 12.388 12.76 12.487 12.76 12.505 C 12.76 12.522 12.865 12.639 12.994 12.768 C 13.263 13.031 13.28 13.13 13.087 13.323 C 12.707 13.703 11.871 13.481 11.649 12.943 C 11.585 12.797 11.591 12.703 11.649 12.446 C 11.719 12.148 11.708 11.873 11.62 11.639 C 11.556 11.482 11.813 11.517 12.099 11.71 Z " fill="rgb(232,232,232)"/></g></g></svg>