<?xml version="1.0" encoding="UTF-8" standalone="no"?><!-- Generator: Gravit.io --><svg xmlns="http://www.w3.org/2000/svg" xmlns:xlink="http://www.w3.org/1999/xlink" style="isolation:isolate" viewBox="0 0 24 24" width="24pt" height="24pt"><defs><clipPath id="_clipPath_xzDyier4BcWrBGhC0o9bpRvCDRWBWLny"><rect width="24" height="24"/></clipPath></defs><g clip-path="url(#_clipPath_xzDyier4BcWrBGhC0o9bpRvCDRWBWLny)"><path d=" M 21.557 9.743 C 21.562 9.795 21.563 9.848 21.563 9.901 C 21.563 12.624 20.37 15.006 18.593 16.825 L 18.605 16.825 L 11.611 23.662 L 5.473 16.888 L 5.474 16.888 C 3.526 14.954 2.438 12.657 2.438 9.901 C 2.438 9.848 2.438 9.795 2.443 9.743 L 21.557 9.743 L 21.557 9.743 Z " fill="rgb(255,48,8)"/><path d=" M 21.557 9.743 C 21.476 4.537 17.225 0.338 12 0.338 C 6.775 0.338 2.524 4.537 2.443 9.743 L 21.557 9.743 L 21.557 9.743 Z " fill="rgb(250,208,10)"/><g><path d=" M 7.428 5.926 L 7.997 5.926 L 6.939 7.832 L 6.939 8.835 L 6.388 8.835 L 6.388 7.832 L 5.33 5.926 L 5.919 5.926 L 6.668 7.339 L 7.428 5.926 Z  M 10.371 6.411 L 9.025 6.411 L 9.025 7.138 L 10.279 7.138 L 10.279 7.594 L 9.025 7.594 L 9.025 8.35 L 10.371 8.35 L 10.371 8.835 L 8.473 8.835 L 8.473 5.926 L 10.371 5.926 L 10.371 6.411 Z  M 11.149 8.835 L 11.149 5.926 L 11.7 5.926 L 11.7 8.35 L 12.925 8.35 L 12.925 8.835 L 11.149 8.835 Z  M 13.573 8.835 L 13.573 5.926 L 14.125 5.926 L 14.125 8.35 L 15.35 8.35 L 15.35 8.835 L 13.573 8.835 Z  M 17.072 8.885 L 17.072 8.885 Q 16.625 8.885 16.303 8.702 L 16.303 8.702 L 16.303 8.702 Q 15.981 8.518 15.814 8.179 L 15.814 8.179 L 15.814 8.179 Q 15.647 7.84 15.647 7.381 L 15.647 7.381 L 15.647 7.381 Q 15.647 6.921 15.814 6.582 L 15.814 6.582 L 15.814 6.582 Q 15.981 6.244 16.303 6.06 L 16.303 6.06 L 16.303 6.06 Q 16.625 5.876 17.072 5.876 L 17.072 5.876 L 17.072 5.876 Q 17.519 5.876 17.841 6.06 L 17.841 6.06 L 17.841 6.06 Q 18.163 6.244 18.33 6.582 L 18.33 6.582 L 18.33 6.582 Q 18.497 6.921 18.497 7.381 L 18.497 7.381 L 18.497 7.381 Q 18.497 7.84 18.33 8.179 L 18.33 8.179 L 18.33 8.179 Q 18.163 8.518 17.841 8.702 L 17.841 8.702 L 17.841 8.702 Q 17.519 8.885 17.072 8.885 L 17.072 8.885 Z  M 17.072 8.375 L 17.072 8.375 Q 17.465 8.375 17.691 8.118 L 17.691 8.118 L 17.691 8.118 Q 17.916 7.861 17.916 7.381 L 17.916 7.381 L 17.916 7.381 Q 17.916 6.9 17.691 6.643 L 17.691 6.643 L 17.691 6.643 Q 17.465 6.386 17.072 6.386 L 17.072 6.386 L 17.072 6.386 Q 16.679 6.386 16.453 6.643 L 16.453 6.643 L 16.453 6.643 Q 16.228 6.9 16.228 7.381 L 16.228 7.381 L 16.228 7.381 Q 16.228 7.861 16.453 8.118 L 16.453 8.118 L 16.453 8.118 Q 16.679 8.375 17.072 8.375 L 17.072 8.375 Z " fill="rgb(0,0,0)"/><path d=" M 8.147 12.12 L 8.147 12.12 Q 8.371 12.12 8.532 12.209 L 8.532 12.209 L 8.532 12.209 Q 8.693 12.298 8.776 12.462 L 8.776 12.462 L 8.776 12.462 Q 8.86 12.626 8.86 12.848 L 8.86 12.848 L 8.86 12.848 Q 8.86 13.069 8.776 13.233 L 8.776 13.233 L 8.776 13.233 Q 8.693 13.397 8.532 13.486 L 8.532 13.486 L 8.532 13.486 Q 8.371 13.575 8.147 13.575 L 8.147 13.575 L 7.61 13.575 L 7.61 12.12 L 8.147 12.12 Z  M 8.147 13.33 L 8.147 13.33 Q 8.346 13.33 8.457 13.207 L 8.457 13.207 L 8.457 13.207 Q 8.569 13.084 8.569 12.848 L 8.569 12.848 L 8.569 12.848 Q 8.569 12.611 8.457 12.488 L 8.457 12.488 L 8.457 12.488 Q 8.346 12.365 8.147 12.365 L 8.147 12.365 L 7.886 12.365 L 7.886 13.33 L 8.147 13.33 Z  M 9.903 13.6 L 9.903 13.6 Q 9.679 13.6 9.518 13.508 L 9.518 13.508 L 9.518 13.508 Q 9.357 13.416 9.274 13.247 L 9.274 13.247 L 9.274 13.247 Q 9.19 13.077 9.19 12.848 L 9.19 12.848 L 9.19 12.848 Q 9.19 12.618 9.274 12.448 L 9.274 12.448 L 9.274 12.448 Q 9.357 12.279 9.518 12.187 L 9.518 12.187 L 9.518 12.187 Q 9.679 12.095 9.903 12.095 L 9.903 12.095 L 9.903 12.095 Q 10.126 12.095 10.287 12.187 L 10.287 12.187 L 10.287 12.187 Q 10.448 12.279 10.532 12.448 L 10.532 12.448 L 10.532 12.448 Q 10.615 12.618 10.615 12.848 L 10.615 12.848 L 10.615 12.848 Q 10.615 13.077 10.532 13.247 L 10.532 13.247 L 10.532 13.247 Q 10.448 13.416 10.287 13.508 L 10.287 13.508 L 10.287 13.508 Q 10.126 13.6 9.903 13.6 L 9.903 13.6 Z  M 9.903 13.345 L 9.903 13.345 Q 10.099 13.345 10.212 13.216 L 10.212 13.216 L 10.212 13.216 Q 10.325 13.088 10.325 12.848 L 10.325 12.848 L 10.325 12.848 Q 10.325 12.607 10.212 12.479 L 10.212 12.479 L 10.212 12.479 Q 10.099 12.35 9.903 12.35 L 9.903 12.35 L 9.903 12.35 Q 9.706 12.35 9.593 12.479 L 9.593 12.479 L 9.593 12.479 Q 9.481 12.607 9.481 12.848 L 9.481 12.848 L 9.481 12.848 Q 9.481 13.088 9.593 13.216 L 9.593 13.216 L 9.593 13.216 Q 9.706 13.345 9.903 13.345 L 9.903 13.345 Z  M 11.658 13.6 L 11.658 13.6 Q 11.435 13.6 11.274 13.508 L 11.274 13.508 L 11.274 13.508 Q 11.113 13.416 11.029 13.247 L 11.029 13.247 L 11.029 13.247 Q 10.946 13.077 10.946 12.848 L 10.946 12.848 L 10.946 12.848 Q 10.946 12.618 11.029 12.448 L 11.029 12.448 L 11.029 12.448 Q 11.113 12.279 11.274 12.187 L 11.274 12.187 L 11.274 12.187 Q 11.435 12.095 11.658 12.095 L 11.658 12.095 L 11.658 12.095 Q 11.882 12.095 12.043 12.187 L 12.043 12.187 L 12.043 12.187 Q 12.204 12.279 12.287 12.448 L 12.287 12.448 L 12.287 12.448 Q 12.371 12.618 12.371 12.848 L 12.371 12.848 L 12.371 12.848 Q 12.371 13.077 12.287 13.247 L 12.287 13.247 L 12.287 13.247 Q 12.204 13.416 12.043 13.508 L 12.043 13.508 L 12.043 13.508 Q 11.882 13.6 11.658 13.6 L 11.658 13.6 Z  M 11.658 13.345 L 11.658 13.345 Q 11.855 13.345 11.968 13.216 L 11.968 13.216 L 11.968 13.216 Q 12.081 13.088 12.081 12.848 L 12.081 12.848 L 12.081 12.848 Q 12.081 12.607 11.968 12.479 L 11.968 12.479 L 11.968 12.479 Q 11.855 12.35 11.658 12.35 L 11.658 12.35 L 11.658 12.35 Q 11.462 12.35 11.349 12.479 L 11.349 12.479 L 11.349 12.479 Q 11.236 12.607 11.236 12.848 L 11.236 12.848 L 11.236 12.848 Q 11.236 13.088 11.349 13.216 L 11.349 13.216 L 11.349 13.216 Q 11.462 13.345 11.658 13.345 L 11.658 13.345 Z  M 13.886 13.575 L 13.583 13.575 L 13.287 13.021 L 13.027 13.021 L 13.027 13.575 L 12.751 13.575 L 12.751 12.12 L 13.276 12.12 L 13.276 12.12 Q 13.558 12.12 13.698 12.233 L 13.698 12.233 L 13.698 12.233 Q 13.838 12.346 13.838 12.561 L 13.838 12.561 L 13.838 12.561 Q 13.838 12.714 13.769 12.82 L 13.769 12.82 L 13.769 12.82 Q 13.7 12.927 13.564 12.979 L 13.564 12.979 L 13.886 13.575 Z  M 13.027 12.365 L 13.027 12.779 L 13.278 12.779 L 13.278 12.779 Q 13.416 12.779 13.482 12.731 L 13.482 12.731 L 13.482 12.731 Q 13.548 12.682 13.548 12.568 L 13.548 12.568 L 13.548 12.568 Q 13.548 12.457 13.483 12.411 L 13.483 12.411 L 13.483 12.411 Q 13.418 12.365 13.276 12.365 L 13.276 12.365 L 13.027 12.365 Z  M 14.752 12.12 L 14.752 12.12 Q 14.975 12.12 15.136 12.209 L 15.136 12.209 L 15.136 12.209 Q 15.297 12.298 15.381 12.462 L 15.381 12.462 L 15.381 12.462 Q 15.464 12.626 15.464 12.848 L 15.464 12.848 L 15.464 12.848 Q 15.464 13.069 15.381 13.233 L 15.381 13.233 L 15.381 13.233 Q 15.297 13.397 15.136 13.486 L 15.136 13.486 L 15.136 13.486 Q 14.975 13.575 14.752 13.575 L 14.752 13.575 L 14.215 13.575 L 14.215 12.12 L 14.752 12.12 Z  M 14.752 13.33 L 14.752 13.33 Q 14.95 13.33 15.062 13.207 L 15.062 13.207 L 15.062 13.207 Q 15.174 13.084 15.174 12.848 L 15.174 12.848 L 15.174 12.848 Q 15.174 12.611 15.062 12.488 L 15.062 12.488 L 15.062 12.488 Q 14.95 12.365 14.752 12.365 L 14.752 12.365 L 14.49 12.365 L 14.49 13.33 L 14.752 13.33 Z  M 16.746 13.575 L 16.624 13.245 L 16.004 13.245 L 15.882 13.575 L 15.606 13.575 L 16.158 12.12 L 16.48 12.12 L 17.032 13.575 L 16.746 13.575 Z  M 16.089 13.011 L 16.539 13.011 L 16.315 12.392 L 16.089 13.011 Z  M 17.759 13.6 L 17.759 13.6 Q 17.642 13.6 17.511 13.569 L 17.511 13.569 L 17.511 13.569 Q 17.379 13.537 17.262 13.483 L 17.262 13.483 L 17.262 13.215 L 17.262 13.215 Q 17.533 13.362 17.747 13.362 L 17.747 13.362 L 17.747 13.362 Q 17.853 13.362 17.919 13.316 L 17.919 13.316 L 17.919 13.316 Q 17.985 13.27 17.985 13.186 L 17.985 13.186 L 17.985 13.186 Q 17.985 13.128 17.948 13.087 L 17.948 13.087 L 17.948 13.087 Q 17.912 13.046 17.857 13.02 L 17.857 13.02 L 17.857 13.02 Q 17.803 12.994 17.703 12.956 L 17.703 12.956 L 17.703 12.956 Q 17.567 12.906 17.481 12.86 L 17.481 12.86 L 17.481 12.86 Q 17.396 12.814 17.335 12.729 L 17.335 12.729 L 17.335 12.729 Q 17.274 12.645 17.274 12.511 L 17.274 12.511 L 17.274 12.511 Q 17.274 12.315 17.41 12.205 L 17.41 12.205 L 17.41 12.205 Q 17.546 12.095 17.782 12.095 L 17.782 12.095 L 17.782 12.095 Q 17.893 12.095 18 12.119 L 18 12.119 L 18 12.119 Q 18.106 12.143 18.196 12.189 L 18.196 12.189 L 18.196 12.45 L 18.196 12.45 Q 17.985 12.333 17.788 12.333 L 17.788 12.333 L 17.788 12.333 Q 17.68 12.333 17.618 12.372 L 17.618 12.372 L 17.618 12.372 Q 17.556 12.411 17.556 12.482 L 17.556 12.482 L 17.556 12.482 Q 17.556 12.553 17.62 12.594 L 17.62 12.594 L 17.62 12.594 Q 17.684 12.634 17.818 12.682 L 17.818 12.682 L 17.818 12.682 Q 17.958 12.735 18.048 12.783 L 18.048 12.783 L 18.048 12.783 Q 18.138 12.831 18.203 12.922 L 18.203 12.922 L 18.203 12.922 Q 18.269 13.013 18.273 13.157 L 18.273 13.157 L 18.273 13.157 Q 18.273 13.364 18.133 13.482 L 18.133 13.482 L 18.133 13.482 Q 17.993 13.6 17.759 13.6 L 17.759 13.6 Z  M 19.611 12.12 L 19.887 12.12 L 19.887 13.575 L 19.611 13.575 L 19.611 12.935 L 18.921 12.935 L 18.921 13.575 L 18.645 13.575 L 18.645 12.12 L 18.921 12.12 L 18.921 12.691 L 19.611 12.691 L 19.611 12.12 Z " fill="rgb(255,255,255)"/><path d=" M 3.713 11.939 Q 3.741 11.899 3.754 11.88 Q 4.742 11.89 6.287 11.905 C 6.367 11.911 6.433 11.926 6.508 11.955 C 6.582 11.984 6.654 12.025 6.709 12.07 C 6.765 12.116 6.792 12.177 6.834 12.212 Q 6.896 12.322 6.991 12.493 Q 7.025 12.584 7.037 12.67 C 7.044 12.727 7.028 12.792 7.037 12.836 Q 7.021 12.938 6.996 13.098 Q 6.91 13.291 6.85 13.384 Q 6.783 13.453 6.679 13.561 Q 6.531 13.658 6.458 13.697 Q 6.374 13.718 6.243 13.752 L 5.834 13.752 L 5.496 13.752 Q 4.952 13.238 4.893 13.153 C 4.833 13.068 4.89 13.087 4.893 13.051 L 4.987 13.044 L 6.141 13.029 C 6.191 13.019 6.232 12.996 6.265 12.956 C 6.298 12.917 6.319 12.861 6.316 12.803 C 6.313 12.745 6.303 12.711 6.276 12.67 C 6.25 12.628 6.201 12.6 6.148 12.591 L 4.345 12.569 L 3.713 11.939 Z " fill="rgb(255,255,255)"/></g></g></svg>