<?xml version="1.0" encoding="UTF-8" standalone="no"?>
<!-- Generator: Gravit.io -->

<svg
   style="isolation:isolate"
   viewBox="0 0 24 24"
   width="24pt"
   height="24pt"
   version="1.1"
   id="svg11"
   sodipodi:docname="coles_delivery_blue.svg"
   inkscape:version="1.2.2 (732a01da63, 2022-12-09)"
   xmlns:inkscape="http://www.inkscape.org/namespaces/inkscape"
   xmlns:sodipodi="http://sodipodi.sourceforge.net/DTD/sodipodi-0.dtd"
   xmlns="http://www.w3.org/2000/svg"
   xmlns:svg="http://www.w3.org/2000/svg">
  <sodipodi:namedview
     id="namedview13"
     pagecolor="#ffffff"
     bordercolor="#000000"
     borderopacity="0.25"
     inkscape:showpageshadow="2"
     inkscape:pageopacity="0.0"
     inkscape:pagecheckerboard="0"
     inkscape:deskcolor="#d1d1d1"
     inkscape:document-units="pt"
     showgrid="false"
     inkscape:zoom="25.125"
     inkscape:cx="16"
     inkscape:cy="16.0199"
     inkscape:window-width="1920"
     inkscape:window-height="991"
     inkscape:window-x="-9"
     inkscape:window-y="-9"
     inkscape:window-maximized="1"
     inkscape:current-layer="svg11" />
  <defs
     id="defs5">
    <clipPath
       id="_clipPath_YARZTSILWCwvbMPwMGggkcSefavdEvlg">
      <rect
         width="24"
         height="24"
         id="rect2" />
    </clipPath>
    <clipPath
       id="_clipPath_C9LIAsG9DSgUZ0cwTA85FiutDAd51BSI">
      <rect
         width="24"
         height="24"
         id="rect1522"
         x="0"
         y="0" />
    </clipPath>
  </defs>
  <g
     clip-path="url(#_clipPath_YARZTSILWCwvbMPwMGggkcSefavdEvlg)"
     id="g9">
    <path
       d=" M 18.593 16.825 C 20.37 15.006 21.563 12.624 21.563 9.901 C 21.563 4.623 17.278 0.338 12 0.338 C 6.722 0.338 2.438 4.623 2.438 9.901 C 2.438 12.657 3.526 14.954 5.474 16.888 L 5.473 16.888 L 11.611 23.662 L 18.605 16.825 L 18.593 16.825 Z "
       fill="rgb(0,113,206)"
       id="path7" />
  </g>
  <g
     clip-path="url(#_clipPath_C9LIAsG9DSgUZ0cwTA85FiutDAd51BSI)"
     id="g1575"
     style="isolation:isolate"
     transform="translate(0.17924672,0.46896265)">
    <g
       id="g1543">
      <circle
         vector-effect="non-scaling-stroke"
         cx="4.0401621"
         cy="6.607913"
         r="0.21547592"
         fill="#e01a22"
         id="circle1527" />
      <circle
         vector-effect="non-scaling-stroke"
         cx="4.9754691"
         cy="7.6359777"
         r="0.21547592"
         fill="#e01a22"
         id="circle1529" />
      <path
         d="M 4.998,6.816 H 6.474 L 6.472,6.37 5.013,6.385 c -0.024,-0.009 -0.065,0 -0.092,0 -0.119,0 -0.215,0.096 -0.215,0.215 0,0.119 0.096,0.216 0.215,0.216 q 0.027,0 0.077,0 z"
         fill="#e01a22"
         id="path1531" />
      <path
         d="M 5.611,7.343 6.536,7.336 Q 6.661,7.335 6.69,7.323 C 6.719,7.312 6.825,7.253 6.825,7.105 6.825,6.958 6.714,6.919 6.677,6.906 Q 6.64,6.893 6.516,6.887 L 5.617,6.893 C 5.601,6.884 5.58,6.905 5.495,6.905 5.41,6.905 5.342,7.001 5.342,7.12 c 0,0.119 0.068,0.216 0.153,0.216 q 0.019,0 0.116,0.007 z"
         fill="#4a4a49"
         id="path1533" />
      <path
         d="M 5.598,8.364 6.523,8.357 Q 6.648,8.356 6.677,8.344 C 6.706,8.333 6.812,8.274 6.812,8.126 6.812,7.978 6.701,7.94 6.664,7.927 Q 6.627,7.914 6.504,7.908 L 5.605,7.914 C 5.588,7.905 5.567,7.926 5.482,7.926 c -0.084,0 -0.153,0.096 -0.153,0.215 0,0.119 0.069,0.216 0.153,0.216 q 0.019,0 0.116,0.007 z"
         fill="#4a4a49"
         id="path1535" />
      <path
         d="M 5.889,7.866 6.65,7.855 V 7.435 H 5.904 c -0.024,-0.009 -0.065,0 -0.092,0 -0.119,0 -0.215,0.096 -0.215,0.215 0,0.119 0.096,0.216 0.215,0.216 q 0.027,0 0.077,0 z"
         fill="#e01a22"
         id="path1537" />
      <circle
         vector-effect="non-scaling-stroke"
         cx="5.818018"
         cy="7.6437073"
         r="0.21547592"
         fill="#e01a22"
         id="circle1539" />
      <path
         d="M 11.468,12.416 H 13.97 V 5.719 H 6.428 v 6.697 h 1.685 c 0.307,-0.617 0.943,-1.041 1.678,-1.041 0.734,0 1.371,0.424 1.677,1.041 z"
         fill="#e01a22"
         id="path1541" />
    </g>
    <g
       id="g1549">
      <path
         d="m 8.482,13.021 c 0,-0.737 0.599,-1.336 1.337,-1.336 0.738,0 1.337,0.599 1.337,1.336 0,0.738 -0.599,1.337 -1.337,1.337 -0.738,0 -1.337,-0.599 -1.337,-1.337 z m 0.479,0.014 c 0,-0.466 0.378,-0.844 0.844,-0.844 0.466,0 0.844,0.378 0.844,0.844 0,0.466 -0.378,0.845 -0.844,0.845 -0.466,0 -0.844,-0.379 -0.844,-0.845 z"
         fill-rule="evenodd"
         fill="#4a4a49"
         id="path1545" />
      <circle
         vector-effect="non-scaling-stroke"
         cx="9.7907114"
         cy="13.049446"
         r="0.43617845"
         fill="#d1d3d4"
         id="circle1547" />
    </g>
    <g
       id="g1555">
      <path
         d="m 15.151,13.021 c 0,-0.737 0.599,-1.336 1.337,-1.336 0.738,0 1.337,0.599 1.337,1.336 0,0.738 -0.599,1.337 -1.337,1.337 -0.738,0 -1.337,-0.599 -1.337,-1.337 z m 0.479,0.014 c 0,-0.466 0.378,-0.844 0.844,-0.844 0.466,0 0.844,0.378 0.844,0.844 0,0.466 -0.378,0.845 -0.844,0.845 -0.466,0 -0.844,-0.379 -0.844,-0.845 z"
         fill-rule="evenodd"
         fill="#4a4a49"
         id="path1551" />
      <circle
         vector-effect="non-scaling-stroke"
         cx="16.46002"
         cy="13.049446"
         r="0.43617845"
         fill="#d1d3d4"
         id="circle1553" />
    </g>
    <g
       id="g1567">
      <path
         d="M 8.443,8.864 C 8.355,9.228 8.035,9.496 7.656,9.496 7.209,9.496 6.846,9.121 6.847,8.658 6.846,8.196 7.209,7.821 7.656,7.821 c 0.377,0 0.696,0.272 0.787,0.633 H 8.114 C 8.039,8.274 7.864,8.149 7.663,8.149 c -0.273,0 -0.494,0.227 -0.494,0.509 0,0.282 0.221,0.511 0.494,0.511 0.201,0 0.376,-0.125 0.451,-0.305"
         fill-rule="evenodd"
         fill="#ffffff"
         id="path1557" />
      <path
         d="M 9.31,7.821 C 8.863,7.821 8.5,8.196 8.499,8.658 8.5,9.121 8.863,9.495 9.31,9.496 9.757,9.495 10.12,9.121 10.12,8.658 10.12,8.196 9.757,7.821 9.31,7.821 Z m 0,1.342 C 9.04,9.164 8.821,8.937 8.821,8.658 8.821,8.379 9.04,8.153 9.31,8.152 9.58,8.153 9.799,8.379 9.799,8.658 9.799,8.937 9.58,9.164 9.31,9.163 Z"
         fill-rule="evenodd"
         fill="#ffffff"
         id="path1559" />
      <path
         d="m 10.222,7.36 v 2.136 h 0.356 V 7.36 Z"
         fill="#ffffff"
         id="path1561" />
      <path
         d="M 11.513,9.174 C 11.264,9.173 11.057,8.984 11.056,8.757 11.057,8.748 11.057,8.74 11.058,8.732 h 1.165 c 10e-4,-0.664 -0.331,-0.914 -0.739,-0.914 -0.315,0 -0.771,0.21 -0.77,0.831 -0.001,0.515 0.361,0.847 0.77,0.847 0.352,0 0.65,-0.22 0.723,-0.583 H 11.88 c -0.05,0.166 -0.192,0.26 -0.367,0.261 z m -0.035,-1.06 c 0.206,0 0.375,0.148 0.4,0.334 L 11.086,8.447 11.077,8.451 C 11.1,8.261 11.271,8.114 11.478,8.114 Z"
         fill-rule="evenodd"
         fill="#ffffff"
         id="path1563" />
      <path
         d="m 13.221,8.348 h 0.308 c 0,0 0.014,-0.285 -0.216,-0.428 0,0 -0.109,-0.102 -0.412,-0.101 0,0 -0.306,-0.004 -0.445,0.139 0,0 -0.144,0.112 -0.144,0.332 0,0 -0.026,0.212 0.175,0.345 0,0 0.164,0.081 0.322,0.129 0,0 0.257,0.072 0.3,0.098 0,0 0.22,0.106 0.088,0.238 0,0 -0.059,0.086 -0.259,0.086 0,0 -0.35,0.013 -0.349,-0.262 h -0.313 c 0,0 -0.03,0.293 0.211,0.456 0,0 0.154,0.108 0.453,0.105 0,0 0.287,-0.003 0.44,-0.116 0,0 0.196,-0.146 0.195,-0.394 0,0 0.024,-0.255 -0.286,-0.397 0,0 -0.313,-0.11 -0.392,-0.131 0,0 -0.309,-0.071 -0.247,-0.231 0,0 0.014,-0.109 0.261,-0.109 0,0 0.175,-0.003 0.251,0.099 0,0 0.052,0.061 0.059,0.142 z"
         fill-rule="evenodd"
         fill="#ffffff"
         id="path1565" />
    </g>
    <path
       d="m 18.194,12.736 c 0.005,0 0.012,0 0.018,10e-4 q 0.248,0.029 0.352,0.016 c 0.105,-0.013 0.215,-0.011 0.289,-0.08 q 0.074,-0.069 0.112,-0.257 l 0.016,-2.355 Q 17.961,8.599 17.411,7.786 17.262,7.663 17.188,7.62 C 17.113,7.576 17.029,7.537 16.937,7.508 L 14.655,7.497 q -0.129,0.014 -0.193,0.089 -0.064,0.076 -0.048,0.232 -0.006,1.82 -0.015,4.663 0.147,-0.02 0.432,0 c 0.011,0 0.023,10e-4 0.044,0.003 0.236,-0.658 0.868,-1.117 1.607,-1.117 0.834,0 1.533,0.587 1.712,1.369 z"
       fill="#ffffff"
       id="path1569" />
    <path
       d="m 15.12,10.743 0.389,-0.003 q 0.053,-10e-4 0.065,-0.006 c 0.012,-0.004 0.057,-0.029 0.057,-0.092 0,-0.062 -0.047,-0.078 -0.062,-0.083 q -0.016,-0.006 -0.068,-0.008 l -0.378,0.002 c -0.007,-0.004 -0.016,0.005 -0.052,0.005 -0.035,0 -0.064,0.041 -0.064,0.091 0,0.05 0.029,0.091 0.064,0.091 q 0.008,0 0.049,0.003 z"
       fill="#4a4a49"
       id="path1571" />
    <path
       d="m 14.955,8.052 h 1.899 c 0.109,0.046 0.125,0.059 0.187,0.127 q 0.062,0.067 1.133,1.766 v 0.233 h -3.206 z"
       fill="#a4dbf8"
       id="path1573" />
  </g>
</svg>
