<?xml version="1.0" encoding="UTF-8" standalone="no"?><!-- Generator: Gravit.io --><svg xmlns="http://www.w3.org/2000/svg" xmlns:xlink="http://www.w3.org/1999/xlink" style="isolation:isolate" viewBox="0 0 24 24" width="24pt" height="24pt"><defs><clipPath id="_clipPath_EkvHscPTeX96Hu6AWQXE3t5YBUXg4R8l"><rect width="24" height="24"/></clipPath></defs><g clip-path="url(#_clipPath_EkvHscPTeX96Hu6AWQXE3t5YBUXg4R8l)"><path d=" M 18.219 16.551 C 19.896 14.836 21.02 12.588 21.02 10.02 C 21.02 5.042 16.978 1 12 1 C 7.022 1 2.98 5.042 2.98 10.02 C 2.98 12.62 4.007 14.787 5.844 16.61 L 5.844 16.61 L 11.633 23 L 18.23 16.551 L 18.219 16.551 Z " fill="rgb(87,87,86)"/><g><path d=" M 6.83 5.977 C 5.894 6.34 5.481 6.858 5.432 7.739 C 5.382 8.589 5.647 9.144 6.27 9.507 C 6.504 9.643 6.645 9.68 7.101 9.698 C 7.699 9.729 7.804 9.698 8.241 9.353 C 8.414 9.218 8.5 9.101 8.5 9.002 C 8.5 8.768 8.414 8.774 8.124 9.039 C 7.699 9.421 7.225 9.501 6.83 9.261 C 6.448 9.027 6.307 8.799 6.22 8.306 C 5.986 6.907 6.627 6.051 7.748 6.273 C 8.1 6.347 8.192 6.457 8.192 6.79 C 8.192 6.92 8.217 6.944 8.328 6.926 C 8.469 6.907 8.549 6.741 8.648 6.279 C 8.691 6.094 8.685 6.082 8.457 6.026 C 8.328 5.989 8.18 5.965 8.13 5.965 C 8.081 5.965 7.816 5.946 7.545 5.928 C 7.2 5.903 6.984 5.915 6.83 5.977 Z " fill="rgb(255,255,255)"/><path d=" M 9.769 5.977 C 9.252 6.168 8.999 6.47 8.845 7.086 C 8.722 7.585 8.722 8.059 8.839 8.515 C 9.042 9.304 9.511 9.711 10.213 9.711 C 10.86 9.711 11.113 9.52 11.464 8.75 C 11.716 8.214 11.76 7.69 11.618 7.043 C 11.525 6.642 11.482 6.544 11.273 6.359 C 11.143 6.242 10.952 6.1 10.848 6.051 C 10.576 5.909 10.053 5.872 9.769 5.977 Z  M 10.675 6.384 C 10.909 6.568 10.977 6.87 10.983 7.733 C 10.983 8.583 10.878 9.058 10.638 9.286 C 10.379 9.526 9.93 9.36 9.634 8.916 C 9.227 8.3 9.449 6.636 9.966 6.353 C 10.201 6.23 10.49 6.242 10.675 6.384 Z " fill="rgb(255,255,255)"/><path d=" M 13.097 5.977 C 12.579 6.168 12.326 6.47 12.172 7.086 C 12.049 7.585 12.049 8.059 12.166 8.515 C 12.37 9.304 12.838 9.711 13.54 9.711 C 14.181 9.711 14.44 9.514 14.791 8.756 C 15.044 8.226 15.087 7.69 14.945 7.043 C 14.853 6.642 14.809 6.544 14.6 6.359 C 14.471 6.242 14.28 6.1 14.175 6.051 C 13.904 5.909 13.38 5.872 13.097 5.977 Z  M 14.002 6.384 C 14.236 6.568 14.304 6.87 14.31 7.733 C 14.31 8.583 14.206 9.058 13.965 9.286 C 13.707 9.526 13.257 9.36 12.961 8.916 C 12.554 8.3 12.776 6.636 13.294 6.353 C 13.528 6.23 13.817 6.242 14.002 6.384 Z " fill="rgb(255,255,255)"/><path d=" M 17.003 6.014 C 17.003 6.119 17.046 6.137 17.249 6.137 L 17.502 6.137 L 17.299 6.396 C 17.188 6.544 17.083 6.673 17.065 6.692 C 17.046 6.71 16.898 6.889 16.744 7.092 C 16.59 7.295 16.405 7.511 16.338 7.573 C 16.22 7.677 16.214 7.677 16.196 7.573 C 16.184 7.511 16.177 7.178 16.19 6.827 C 16.208 6.254 16.22 6.199 16.331 6.199 C 16.473 6.199 16.492 6.026 16.35 5.971 C 16.294 5.952 16.042 5.958 15.783 5.989 C 15.407 6.032 15.302 6.069 15.29 6.149 C 15.272 6.23 15.309 6.26 15.426 6.26 C 15.567 6.26 15.586 6.285 15.592 6.488 C 15.604 6.938 15.604 7.53 15.592 8.423 L 15.586 9.323 L 15.389 9.378 C 15.247 9.421 15.185 9.477 15.185 9.557 C 15.185 9.668 15.235 9.68 15.875 9.68 C 16.251 9.68 16.584 9.655 16.609 9.631 C 16.713 9.532 16.529 9.372 16.331 9.39 L 16.14 9.409 L 16.14 8.86 C 16.14 8.324 16.14 8.312 16.362 8.053 L 16.59 7.788 L 16.775 8.121 C 16.88 8.3 17.083 8.651 17.225 8.897 C 17.373 9.138 17.465 9.341 17.434 9.341 C 17.397 9.341 17.373 9.397 17.373 9.47 C 17.373 9.588 17.404 9.594 17.977 9.575 C 18.519 9.557 18.574 9.544 18.574 9.44 C 18.574 9.353 18.513 9.304 18.377 9.267 C 18.241 9.23 18.124 9.125 17.97 8.891 C 17.397 8.016 17.052 7.474 17.028 7.4 C 17.009 7.357 17.163 7.098 17.367 6.833 C 17.866 6.193 17.915 6.149 18.106 6.125 C 18.198 6.112 18.272 6.063 18.285 5.995 C 18.303 5.903 18.241 5.891 17.656 5.891 C 17.046 5.891 17.003 5.897 17.003 6.014 Z " fill="rgb(255,255,255)"/><path d=" M 7.572 13.031 C 5.899 13.232 5.766 13.379 7.238 13.419 L 8.509 13.446 L 7.345 13.526 C 6.716 13.566 6.14 13.646 6.087 13.7 C 6.033 13.767 6.555 13.82 7.251 13.834 L 8.509 13.861 L 7.439 13.901 C 5.873 13.968 5.779 14.128 7.238 14.209 L 8.509 14.289 L 7.278 14.316 C 6.595 14.329 6.033 14.396 6.033 14.463 C 6.033 14.57 7.613 14.744 8.723 14.744 C 9.232 14.744 9.446 14.677 9.741 14.396 L 10.115 14.048 L 12.926 14.128 C 14.479 14.182 16.125 14.249 16.593 14.289 C 17.544 14.383 17.677 14.289 17.677 13.606 C 17.677 12.763 17.477 12.723 14.934 13.191 C 14.345 13.298 13.006 13.432 11.962 13.486 L 10.062 13.58 L 9.647 13.218 C 9.192 12.843 9.205 12.843 7.572 13.031 Z " fill="rgb(255,255,255)"/><path d=" M 6.175 11.044 C 6.079 11.261 6.067 11.455 6.151 11.684 C 6.26 11.987 6.321 12.011 6.865 12.011 C 7.203 11.999 8.001 11.938 8.642 11.854 C 9.295 11.769 10.214 11.709 10.71 11.709 C 11.459 11.709 11.641 11.745 11.834 11.963 C 12.052 12.204 12.136 12.216 13.756 12.132 C 15.546 12.047 16.211 11.938 17.057 11.624 C 17.94 11.298 17.722 11.104 16.453 11.104 C 12.414 11.092 7.989 10.971 7.53 10.874 C 6.611 10.669 6.333 10.705 6.175 11.044 Z " fill="rgb(255,255,255)"/></g></g></svg>