<?xml version="1.0" encoding="UTF-8" standalone="no"?><!-- Generator: Gravit.io --><svg xmlns="http://www.w3.org/2000/svg" xmlns:xlink="http://www.w3.org/1999/xlink" style="isolation:isolate" viewBox="0 0 400 520" width="400pt" height="520pt"><defs><clipPath id="_clipPath_1k7fjI3kqme3paNwVrdgM57hmYqcIKpm"><rect width="400" height="520"/></clipPath></defs><g clip-path="url(#_clipPath_1k7fjI3kqme3paNwVrdgM57hmYqcIKpm)"><g><defs><filter id="RDpIN2J52UfEIpbSA5ocunSeRHDCDJxi" x="-200%" y="-200%" width="400%" height="400%" filterUnits="objectBoundingBox" color-interpolation-filters="sRGB"><feGaussianBlur xmlns="http://www.w3.org/2000/svg" stdDeviation="4.293609062839028"/></filter></defs><g filter="url(#RDpIN2J52UfEIpbSA5ocunSeRHDCDJxi)"><ellipse vector-effect="non-scaling-stroke" cx="198.91361582044095" cy="490" rx="65" ry="20.166666666666686" fill="rgb(162,162,162)" fill-opacity="0.7"/></g><defs><filter id="4d69z4656WDdG62oFeBaEkp2tOB2LkpF" x="-200%" y="-200%" width="400%" height="400%" filterUnits="objectBoundingBox" color-interpolation-filters="sRGB"><feGaussianBlur xmlns="http://www.w3.org/2000/svg" stdDeviation="0"/></filter></defs><g filter="url(#4d69z4656WDdG62oFeBaEkp2tOB2LkpF)"><path d=" M 18.914 183.931 C 18.914 83.382 99.774 2 199.384 2 C 299.14 2 380 83.382 380 183.931 C 380 237.891 356.562 286.544 319.355 319.863 C 317.304 321.633 246.405 388.124 198.944 490 C 181.073 417.906 111.785 348.613 79.998 320.306 C 42.498 286.839 18.914 238.186 18.914 183.931 Z  M 311.005 183.931" fill="rgb(1,177,221)" vector-effect="non-scaling-stroke" stroke-width="2" stroke="rgb(1,177,221)" stroke-linejoin="miter" stroke-linecap="butt" stroke-miterlimit="4"/></g></g><circle vector-effect="non-scaling-stroke" cx="199" cy="184.99999999999997" r="135" fill="rgb(255,255,255)"/><path d=" M 201.987 240.541 C 202.003 225.874 202.04 213.633 202.069 213.338 C 202.098 213.044 202.173 212.218 202.235 211.503 C 202.53 208.13 203.135 204.631 204 201.295 C 204.443 199.588 204.701 198.783 205.183 197.611 C 207.317 192.419 211.056 188.379 216.09 185.828 C 217.622 185.051 218.657 184.651 220.862 183.984 C 225.514 182.577 229.731 181.807 234.996 181.402 C 236.554 181.282 241.494 181.281 243.14 181.4 C 248.83 181.814 254.458 182.945 259.389 184.665 C 261.641 185.451 264.101 186.823 266.118 188.418 C 266.94 189.068 268.907 191.036 269.588 191.889 C 270.822 193.434 272.05 195.488 272.834 197.318 C 273.79 199.548 274.803 203.527 275.404 207.417 L 275.6 208.684 C 276.44 214.138 276.378 219.311 275.598 225.419 L 275.368 226.872 C 274.771 230.648 273.819 234.421 272.918 236.586 C 271.262 240.564 268.529 244.008 265.076 246.467 C 262.469 248.324 260.03 249.386 255.565 250.606 C 250.725 251.929 246.051 252.617 240.652 252.801 L 239.159 252.852 L 235.366 242.424 C 233.279 236.688 231.578 231.989 231.584 231.981 C 231.591 231.973 231.888 232.07 232.244 232.197 C 235.065 233.199 240.197 233.389 244.21 232.64 C 246.165 232.275 247.94 231.423 249.334 230.181 C 251.387 228.353 252.381 226.438 253.113 222.903 C 253.599 220.553 253.726 219.172 253.69 216.587 C 253.656 214.063 253.477 212.611 252.922 210.34 C 252.229 207.503 251.339 205.832 249.683 204.257 C 248.134 202.782 246.412 201.909 244.211 201.483 C 242.39 201.13 241.286 201.033 239.086 201.033 C 236.853 201.033 235.59 201.143 233.879 201.487 C 230.525 202.16 227.844 204.131 226.374 207 C 225.339 209.023 224.595 212.363 224.41 215.823 C 224.391 216.18 224.373 227.888 224.371 241.841 L 224.367 267.208 L 213.163 267.208 L 201.958 267.208 L 201.987 240.541 L 201.987 240.541 Z  M 157.459 252.783 C 151.371 252.521 145.756 251.522 140.292 249.727 C 138.669 249.193 137.965 248.905 136.66 248.24 C 131.155 245.434 127.085 240.627 125.205 234.711 C 124.862 233.632 124.169 230.81 123.863 229.244 C 123.335 226.544 122.898 223.169 122.764 220.758 C 122.688 219.382 122.688 214.721 122.763 213.368 C 123.081 207.691 124.467 200.825 126.026 197.204 C 128.283 191.96 132.431 187.745 137.654 185.386 C 138.791 184.872 139.749 184.526 141.554 183.978 C 153.916 180.222 167.12 180.392 179.479 184.467 C 183.236 185.705 186.768 187.979 189.313 190.797 C 191.334 193.035 192.97 195.743 193.971 198.504 C 195.07 201.537 196.313 207.766 196.573 211.542 C 196.6 211.941 196.637 212.354 196.653 212.459 C 196.787 213.293 196.84 217.804 196.743 219.991 C 196.487 225.762 195.14 232.855 193.592 236.584 C 192.828 238.426 191.463 240.727 190.212 242.281 C 188.159 244.833 185.262 247.106 182.234 248.541 C 179.041 250.054 173.03 251.623 167.858 252.293 C 164.528 252.725 160.514 252.914 157.459 252.783 L 157.459 252.783 Z  M 162.373 232.992 C 166.187 232.622 168.301 231.803 170.306 229.914 C 171.925 228.391 172.865 226.663 173.545 223.964 C 174.683 219.45 174.685 214.68 173.552 210.172 C 172.889 207.535 172.049 205.93 170.542 204.423 C 168.102 201.983 165.017 201.025 159.638 201.038 C 155.336 201.048 152.765 201.631 150.561 203.099 C 149.237 203.98 147.961 205.335 147.239 206.624 C 146.347 208.221 145.667 210.626 145.256 213.644 C 145.08 214.935 145.044 218.346 145.191 219.762 C 145.485 222.592 146.17 225.367 146.964 226.948 C 148.018 229.048 149.602 230.629 151.709 231.684 C 153.226 232.444 154.615 232.758 157.765 233.055 C 158.532 233.128 161.379 233.089 162.373 232.992 L 162.373 232.992 Z  M 157.383 176.292 C 156.605 176.259 155.675 176.209 155.318 176.182 C 154.501 176.118 153.123 175.987 152.871 175.949 C 152.766 175.933 152.473 175.898 152.221 175.872 C 151.969 175.845 151.676 175.811 151.571 175.796 C 151.466 175.781 151.213 175.746 151.01 175.718 C 150.806 175.69 150.583 175.657 150.513 175.644 C 150.443 175.631 150.025 175.562 149.583 175.491 C 146.004 174.916 140.958 173.591 138.457 172.569 C 136.498 171.769 134.332 170.496 132.684 169.176 C 131.63 168.332 129.898 166.587 129.116 165.581 C 127.177 163.087 125.879 160.561 125.041 157.646 C 123.839 153.474 123.01 148.602 122.766 144.289 C 122.689 142.936 122.687 138.262 122.762 136.948 C 122.968 133.345 123.56 129.373 124.426 125.784 C 125.106 122.964 125.577 121.6 126.569 119.582 C 129.237 114.153 133.908 110.064 139.719 108.071 C 144.374 106.474 149.613 105.407 155.05 104.946 C 156.659 104.809 161.127 104.763 162.965 104.864 C 168.496 105.167 173.937 106.175 179.176 107.868 C 181.964 108.769 184.565 110.149 186.736 111.878 C 187.645 112.603 189.599 114.55 190.294 115.423 C 191.93 117.481 193.341 120.075 194.167 122.547 C 194.861 124.624 195.722 128.495 196.144 131.443 C 196.524 134.1 196.71 136.264 196.805 139.147 L 196.847 140.428 L 185.649 140.428 L 174.451 140.428 L 174.41 140.256 C 174.387 140.161 174.366 139.777 174.364 139.401 C 174.352 137.085 173.696 133.608 172.86 131.428 C 172.19 129.68 170.818 127.939 169.197 126.779 C 167.596 125.634 166.052 125.093 163.27 124.701 C 162.051 124.53 157.789 124.505 156.541 124.662 C 155.286 124.82 153.809 125.109 153.139 125.328 C 150.228 126.278 147.848 128.469 146.673 131.282 C 146.123 132.598 145.576 134.852 145.29 136.975 C 145.078 138.555 145.029 141.734 145.192 143.295 C 145.484 146.076 146.185 148.935 146.944 150.444 C 148.412 153.357 151.219 155.479 154.429 156.098 C 157.801 156.749 161.836 156.747 165.067 156.094 C 167.171 155.669 168.996 154.707 170.488 153.236 C 172.247 151.501 173.142 149.618 173.833 146.201 C 173.96 145.57 174.07 145.05 174.077 145.044 C 174.104 145.022 195.037 154.806 195.101 154.87 C 195.183 154.952 194.646 157.084 194.203 158.435 C 192.484 163.68 188.919 168.148 184.184 170.993 C 182.708 171.88 181.252 172.542 179.511 173.119 C 176.053 174.264 172.047 175.21 168.547 175.709 C 167.82 175.812 166.385 175.984 165.909 176.025 C 165.614 176.05 165.253 176.083 165.106 176.098 C 164.804 176.129 163.825 176.198 162.965 176.249 C 161.66 176.325 158.704 176.348 157.383 176.292 L 157.383 176.292 Z  M 238.048 176.339 C 238.031 176.323 237.328 176.289 236.487 176.262 C 235.646 176.235 234.837 176.198 234.69 176.18 C 234.543 176.162 234.122 176.126 233.754 176.099 C 233.386 176.072 232.99 176.038 232.874 176.024 C 232.759 176.01 232.44 175.977 232.167 175.95 C 231.733 175.908 230.937 175.807 230.332 175.716 C 230.227 175.7 229.986 175.667 229.796 175.641 C 226.87 175.246 222.344 174.147 219.119 173.049 C 215.641 171.864 212.969 170.221 210.347 167.654 C 207.28 164.652 205.336 161.272 204.147 156.874 C 203.152 153.195 202.567 149.794 202.155 145.283 C 201.96 143.153 201.958 137.602 202.152 135.946 C 202.171 135.782 202.224 135.218 202.271 134.693 C 202.617 130.74 203.694 125.301 204.714 122.355 C 206.282 117.822 209.207 113.887 213.05 111.141 C 215.514 109.381 217.844 108.339 221.92 107.174 C 231.252 104.507 241.347 104.068 250.863 105.915 C 254.601 106.641 258.595 107.772 260.84 108.741 C 266.404 111.144 270.792 115.689 273.069 121.406 C 273.918 123.537 274.838 127.299 275.404 130.951 L 275.6 132.218 C 276.347 137.828 276.409 142.596 275.598 148.954 L 275.374 150.368 C 274.918 153.238 274.155 156.558 273.501 158.512 C 272.363 161.915 270.554 164.869 268.067 167.385 C 265.769 169.71 263.298 171.366 260.315 172.579 C 257.764 173.617 252.828 174.913 249.218 175.492 C 248.777 175.562 248.36 175.631 248.293 175.643 C 248.226 175.655 247.988 175.689 247.765 175.717 C 247.542 175.745 247.298 175.78 247.223 175.795 C 247.147 175.809 246.851 175.845 246.565 175.874 C 246.279 175.902 245.988 175.936 245.918 175.949 C 245.788 175.974 244.446 176.102 243.56 176.175 C 242.271 176.281 238.122 176.404 238.048 176.339 L 238.048 176.339 Z  M 241.978 156.44 C 243.478 156.293 244.989 156.008 245.825 155.715 C 248.521 154.768 250.778 152.744 251.964 150.211 C 252.566 148.927 253.234 146.269 253.549 143.907 C 253.716 142.659 253.742 138.911 253.594 137.637 C 253.31 135.199 252.711 132.633 252.088 131.18 C 251.543 129.908 250.537 128.486 249.542 127.58 C 248.499 126.63 247.017 125.769 245.663 125.328 C 244.993 125.109 243.516 124.82 242.26 124.662 C 241.179 124.526 236.828 124.525 235.837 124.66 C 232.88 125.066 231.519 125.504 229.911 126.57 C 228.292 127.642 227.076 129.029 226.242 130.754 C 225.467 132.357 224.797 135.123 224.508 137.904 C 224.389 139.053 224.392 142.215 224.514 143.333 C 224.73 145.33 225.242 147.74 225.762 149.221 C 227.01 152.771 229.989 155.339 233.734 156.094 C 236.246 156.6 239.112 156.72 241.978 156.44 L 241.978 156.44 Z " fill="rgb(1,177,221)"/></g></svg>