<?xml version="1.0" encoding="UTF-8" standalone="no"?><!-- Generator: Gravit.io --><svg xmlns="http://www.w3.org/2000/svg" xmlns:xlink="http://www.w3.org/1999/xlink" style="isolation:isolate" viewBox="0 0 24 24" width="24pt" height="24pt"><defs><clipPath id="_clipPath_pAVm8aKYqFut9Dp6Zyu8F8xTZLhnMpHr"><rect width="24" height="24"/></clipPath></defs><g clip-path="url(#_clipPath_pAVm8aKYqFut9Dp6Zyu8F8xTZLhnMpHr)"><clipPath id="_clipPath_LyOWVFrrtakwIwFioFBEHRd4b3DwCbzz"><rect x="0" y="0" width="24" height="24" transform="matrix(1,0,0,1,0,0)" fill="rgb(255,255,255)"/></clipPath><g clip-path="url(#_clipPath_LyOWVFrrtakwIwFioFBEHRd4b3DwCbzz)"><g><path d=" M 18.219 16.551 C 19.896 14.836 21.02 12.588 21.02 10.02 C 21.02 5.042 16.978 1 12 1 C 7.022 1 2.98 5.042 2.98 10.02 C 2.98 12.62 4.007 14.787 5.844 16.61 L 5.844 16.61 L 11.633 23 L 18.23 16.551 L 18.219 16.551 L 18.219 16.551 Z " fill="rgb(57,71,82)"/></g></g><g><g><path d=" M 10.952 7.459 C 10.653 7.459 10.404 7.567 10.205 7.784 C 9.969 8.039 9.851 8.375 9.851 8.789 C 9.851 9.204 9.969 9.539 10.205 9.795 C 10.404 10.012 10.655 10.12 10.957 10.12 C 11.259 10.12 11.509 10.012 11.707 9.795 C 11.825 9.666 11.915 9.508 11.978 9.321 C 12.033 9.155 12.061 8.983 12.061 8.806 C 12.061 8.373 11.943 8.032 11.707 7.784 C 11.506 7.571 11.254 7.462 10.952 7.459 M 10.95 6.811 C 11.498 6.811 11.932 6.991 12.253 7.351 C 12.592 7.728 12.762 8.216 12.762 8.813 C 12.762 9.179 12.68 9.52 12.518 9.838 C 12.2 10.457 11.679 10.767 10.955 10.767 C 10.411 10.767 9.979 10.587 9.659 10.227 C 9.487 10.035 9.356 9.804 9.267 9.535 C 9.189 9.298 9.15 9.049 9.15 8.788 C 9.15 8.405 9.23 8.055 9.391 7.738 C 9.7 7.131 10.219 6.822 10.95 6.811 Z " fill-rule="evenodd" fill="rgb(212,208,196)"/><path d=" M 14.878 7.508 L 14.878 10.407 C 14.878 10.464 14.889 10.508 14.91 10.538 C 14.932 10.568 14.97 10.592 15.025 10.611 L 15.025 10.7 L 14.045 10.7 L 14.045 10.611 C 14.1 10.592 14.138 10.568 14.16 10.538 C 14.181 10.508 14.192 10.464 14.192 10.407 L 14.192 7.508 L 13.216 7.508 C 13.17 7.508 13.135 7.52 13.11 7.546 C 13.086 7.572 13.066 7.618 13.05 7.686 L 12.977 7.686 L 12.977 6.699 L 13.05 6.699 C 13.067 6.767 13.088 6.814 13.111 6.84 C 13.135 6.865 13.17 6.878 13.216 6.878 L 15.852 6.878 C 15.899 6.878 15.935 6.865 15.96 6.84 C 15.985 6.814 16.005 6.767 16.02 6.699 L 16.093 6.699 L 16.093 7.686 L 16.02 7.686 C 16.005 7.618 15.985 7.572 15.96 7.546 C 15.936 7.52 15.899 7.508 15.852 7.508 L 14.878 7.508 Z " fill-rule="evenodd" fill="rgb(212,208,196)"/><path d=" M 17.239 9.021 L 17.239 10.071 L 19.261 10.071 C 19.307 10.071 19.342 10.058 19.367 10.032 C 19.391 10.006 19.411 9.959 19.427 9.892 L 19.5 9.892 L 19.5 10.879 L 19.427 10.879 C 19.411 10.812 19.391 10.765 19.367 10.739 C 19.342 10.713 19.307 10.7 19.261 10.7 L 16.406 10.7 L 16.406 10.611 C 16.461 10.592 16.499 10.568 16.52 10.538 C 16.542 10.508 16.553 10.465 16.553 10.407 L 16.553 7.172 C 16.553 7.114 16.542 7.07 16.52 7.04 C 16.499 7.01 16.461 6.986 16.406 6.967 L 16.406 6.878 L 19.206 6.878 C 19.252 6.878 19.287 6.865 19.312 6.838 C 19.336 6.812 19.356 6.765 19.372 6.699 L 19.445 6.699 L 19.445 7.686 L 19.372 7.686 C 19.356 7.62 19.336 7.574 19.312 7.547 C 19.287 7.521 19.252 7.508 19.206 7.508 L 17.239 7.508 L 17.239 8.414 L 18.516 8.414 C 18.562 8.414 18.597 8.401 18.622 8.375 C 18.646 8.349 18.666 8.302 18.681 8.236 L 18.755 8.236 L 18.755 9.2 L 18.681 9.2 C 18.666 9.135 18.646 9.089 18.622 9.062 C 18.597 9.035 18.562 9.021 18.516 9.021 L 17.239 9.021 Z " fill-rule="evenodd" fill="rgb(212,208,196)"/><path d=" M 8.119 9.11 L 8.645 10.072 L 8.573 10.133 C 8.522 10.074 8.479 10.045 8.446 10.045 C 8.413 10.045 8.319 10.099 8.166 10.207 C 7.848 10.428 7.581 10.578 7.364 10.655 C 7.147 10.732 6.889 10.771 6.59 10.771 C 5.993 10.771 5.504 10.599 5.122 10.256 C 4.896 10.056 4.719 9.807 4.59 9.511 C 4.44 9.172 4.365 8.798 4.365 8.389 C 4.365 7.832 4.499 7.348 4.767 6.937 C 5.17 6.32 5.778 6.011 6.593 6.011 C 6.892 6.011 7.148 6.049 7.363 6.125 C 7.577 6.202 7.845 6.352 8.166 6.576 C 8.319 6.682 8.413 6.734 8.446 6.734 C 8.479 6.734 8.522 6.705 8.573 6.647 L 8.645 6.708 L 8.119 7.668 L 8.044 7.608 C 8.047 7.572 8.05 7.542 8.05 7.517 C 8.05 7.452 8.026 7.391 7.98 7.334 C 7.934 7.277 7.852 7.208 7.734 7.128 C 7.407 6.904 7.06 6.792 6.694 6.792 C 6.262 6.792 5.917 6.924 5.661 7.186 C 5.357 7.494 5.206 7.895 5.206 8.391 C 5.206 8.887 5.357 9.288 5.661 9.596 C 5.917 9.858 6.262 9.99 6.694 9.99 C 7.06 9.99 7.407 9.877 7.734 9.652 C 7.852 9.572 7.934 9.502 7.98 9.445 C 8.026 9.388 8.05 9.327 8.05 9.261 C 8.05 9.237 8.048 9.208 8.044 9.174 L 8.119 9.11 Z " fill-rule="evenodd" fill="rgb(212,208,196)"/><path d=" M 10.165 6.427 L 9.957 6.027 L 10.998 5.4 L 11.996 6.027 L 11.789 6.427 L 10.998 5.951 L 10.165 6.427 Z " fill-rule="evenodd" fill="rgb(212,208,196)"/><path d=" M 5.007 13.047 C 5.091 13.047 5.15 13.035 5.184 13.009 C 5.218 12.984 5.235 12.94 5.235 12.878 C 5.235 12.816 5.218 12.772 5.184 12.747 C 5.15 12.721 5.091 12.709 5.007 12.709 L 4.613 12.709 L 4.613 13.047 L 5.007 13.047 Z  M 4.928 12.421 C 4.978 12.421 5.019 12.42 5.051 12.417 C 5.084 12.414 5.109 12.408 5.128 12.398 C 5.146 12.389 5.16 12.376 5.167 12.359 C 5.175 12.342 5.179 12.319 5.179 12.291 C 5.179 12.263 5.175 12.24 5.167 12.223 C 5.16 12.206 5.146 12.193 5.128 12.184 C 5.109 12.174 5.084 12.168 5.051 12.165 C 5.019 12.162 4.978 12.161 4.928 12.161 L 4.613 12.161 L 4.613 12.421 L 4.928 12.421 Z  M 4.255 11.914 C 4.248 11.906 4.229 11.9 4.2 11.896 L 4.2 11.862 L 5.084 11.862 C 5.147 11.862 5.205 11.87 5.258 11.885 C 5.31 11.9 5.356 11.923 5.395 11.954 C 5.433 11.985 5.464 12.025 5.485 12.075 C 5.507 12.125 5.518 12.185 5.518 12.254 C 5.518 12.339 5.497 12.407 5.455 12.459 C 5.413 12.511 5.36 12.545 5.295 12.562 L 5.295 12.567 C 5.374 12.594 5.438 12.634 5.489 12.689 C 5.539 12.743 5.564 12.823 5.564 12.928 C 5.564 12.985 5.555 13.039 5.537 13.089 C 5.52 13.14 5.492 13.184 5.454 13.222 C 5.416 13.26 5.367 13.29 5.308 13.312 C 5.248 13.335 5.177 13.346 5.095 13.346 L 4.2 13.346 L 4.2 13.312 C 4.229 13.309 4.248 13.302 4.254 13.294 C 4.261 13.285 4.265 13.275 4.265 13.261 L 4.265 11.946 C 4.265 11.933 4.262 11.922 4.254 11.914 L 4.255 11.914 Z " fill-rule="evenodd" fill="rgb(212,208,196)"/><path d=" M 6.907 12.488 C 6.975 12.488 7.022 12.473 7.048 12.442 C 7.073 12.411 7.086 12.375 7.086 12.333 C 7.086 12.292 7.073 12.256 7.048 12.225 C 7.022 12.194 6.975 12.178 6.907 12.178 L 6.517 12.178 L 6.517 12.489 L 6.907 12.488 Z  M 6.528 13.294 C 6.535 13.303 6.553 13.309 6.582 13.313 L 6.582 13.346 L 6.105 13.346 L 6.105 13.313 C 6.134 13.309 6.152 13.303 6.159 13.294 C 6.166 13.286 6.169 13.275 6.169 13.262 L 6.169 11.947 C 6.169 11.934 6.166 11.923 6.159 11.914 C 6.152 11.906 6.134 11.9 6.105 11.896 L 6.105 11.862 L 6.954 11.862 C 7.125 11.862 7.25 11.9 7.327 11.976 C 7.404 12.053 7.443 12.171 7.443 12.33 C 7.443 12.46 7.412 12.562 7.349 12.635 C 7.286 12.709 7.207 12.761 7.111 12.793 L 7.385 13.262 C 7.404 13.296 7.426 13.313 7.452 13.313 L 7.452 13.346 L 6.97 13.346 L 6.97 13.313 C 7.004 13.311 7.021 13.294 7.021 13.262 C 7.021 13.258 7.015 13.245 7.002 13.222 C 6.99 13.2 6.974 13.172 6.956 13.14 C 6.937 13.108 6.917 13.074 6.894 13.037 C 6.872 13.001 6.85 12.965 6.829 12.932 C 6.809 12.898 6.79 12.868 6.775 12.841 C 6.759 12.815 6.749 12.797 6.745 12.788 L 6.517 12.788 L 6.517 13.262 C 6.517 13.275 6.521 13.286 6.528 13.294 L 6.528 13.294 Z " fill-rule="evenodd" fill="rgb(212,208,196)"/><path d=" M 8.839 12.799 L 8.614 12.127 L 8.408 12.799 L 8.839 12.799 Z  M 8.276 13.284 C 8.276 13.294 8.278 13.301 8.284 13.305 C 8.289 13.31 8.301 13.313 8.318 13.313 L 8.318 13.346 L 7.907 13.346 L 7.907 13.313 C 7.924 13.309 7.936 13.303 7.944 13.294 C 7.952 13.286 7.959 13.27 7.967 13.248 C 7.97 13.238 7.978 13.213 7.99 13.171 C 8.003 13.13 8.019 13.078 8.039 13.015 C 8.059 12.952 8.082 12.882 8.106 12.805 C 8.131 12.727 8.156 12.649 8.181 12.569 C 8.205 12.489 8.23 12.411 8.254 12.335 C 8.278 12.259 8.299 12.19 8.318 12.13 C 8.336 12.07 8.351 12.021 8.363 11.983 C 8.374 11.946 8.38 11.926 8.38 11.924 C 8.38 11.915 8.375 11.908 8.365 11.904 C 8.355 11.901 8.345 11.898 8.334 11.896 L 8.334 11.862 L 8.939 11.862 L 8.939 11.896 C 8.927 11.898 8.917 11.901 8.909 11.904 C 8.901 11.908 8.898 11.917 8.898 11.933 C 8.898 11.936 8.905 11.961 8.92 12.006 C 8.934 12.051 8.953 12.11 8.976 12.182 C 9 12.255 9.026 12.337 9.056 12.428 C 9.087 12.519 9.118 12.612 9.15 12.707 C 9.183 12.802 9.214 12.895 9.244 12.985 C 9.275 13.075 9.302 13.156 9.327 13.228 C 9.339 13.262 9.349 13.284 9.358 13.296 C 9.366 13.307 9.378 13.312 9.392 13.312 L 9.392 13.346 L 8.935 13.346 L 8.935 13.312 C 8.964 13.311 8.979 13.299 8.979 13.279 C 8.979 13.277 8.975 13.264 8.967 13.24 C 8.959 13.217 8.951 13.191 8.942 13.161 C 8.932 13.132 8.923 13.105 8.915 13.078 C 8.906 13.052 8.901 13.034 8.9 13.025 L 8.35 13.025 C 8.335 13.075 8.322 13.117 8.313 13.149 C 8.304 13.181 8.296 13.206 8.291 13.225 C 8.285 13.244 8.282 13.257 8.279 13.266 C 8.277 13.274 8.276 13.281 8.276 13.284 L 8.276 13.284 Z " fill-rule="evenodd" fill="rgb(212,208,196)"/><path d=" M 9.997 12.773 C 9.994 12.785 9.993 12.805 9.993 12.833 C 9.993 12.852 10.007 12.873 10.036 12.896 C 10.064 12.92 10.101 12.942 10.147 12.963 C 10.192 12.983 10.245 13.001 10.303 13.015 C 10.362 13.029 10.422 13.036 10.482 13.036 C 10.598 13.036 10.683 13.02 10.737 12.987 C 10.791 12.954 10.818 12.906 10.818 12.844 C 10.818 12.81 10.795 12.786 10.748 12.772 C 10.701 12.758 10.641 12.747 10.57 12.738 C 10.499 12.73 10.423 12.72 10.341 12.71 C 10.259 12.7 10.182 12.681 10.111 12.654 C 10.04 12.626 9.981 12.587 9.933 12.535 C 9.886 12.483 9.863 12.412 9.863 12.322 C 9.863 12.251 9.876 12.186 9.903 12.127 C 9.93 12.069 9.968 12.019 10.017 11.978 C 10.066 11.936 10.125 11.904 10.194 11.88 C 10.264 11.857 10.341 11.845 10.426 11.845 C 10.505 11.845 10.579 11.851 10.647 11.863 C 10.715 11.876 10.775 11.889 10.828 11.904 C 10.88 11.919 10.924 11.933 10.96 11.945 C 10.996 11.958 11.021 11.964 11.037 11.964 C 11.052 11.964 11.064 11.959 11.074 11.951 C 11.083 11.942 11.091 11.933 11.099 11.921 L 11.125 11.933 L 10.965 12.325 L 10.937 12.308 L 10.937 12.277 C 10.937 12.26 10.922 12.243 10.892 12.225 C 10.861 12.207 10.823 12.191 10.777 12.177 C 10.73 12.163 10.678 12.151 10.621 12.141 C 10.564 12.132 10.508 12.127 10.454 12.127 C 10.354 12.127 10.283 12.141 10.243 12.17 C 10.203 12.198 10.183 12.228 10.183 12.26 C 10.183 12.292 10.197 12.316 10.225 12.332 C 10.252 12.348 10.289 12.36 10.334 12.367 C 10.378 12.375 10.43 12.381 10.487 12.386 C 10.544 12.39 10.603 12.397 10.663 12.407 C 10.723 12.416 10.782 12.429 10.839 12.446 C 10.897 12.463 10.948 12.488 10.992 12.521 C 11.037 12.554 11.074 12.597 11.101 12.651 C 11.129 12.704 11.143 12.772 11.143 12.853 C 11.143 12.915 11.133 12.976 11.112 13.036 C 11.091 13.096 11.055 13.15 11.005 13.198 C 10.955 13.246 10.888 13.284 10.803 13.313 C 10.719 13.341 10.614 13.355 10.489 13.355 C 10.392 13.355 10.308 13.35 10.237 13.338 C 10.167 13.327 10.107 13.313 10.058 13.297 C 10.008 13.281 9.969 13.267 9.94 13.253 C 9.912 13.24 9.891 13.234 9.877 13.234 C 9.867 13.234 9.859 13.237 9.852 13.245 C 9.845 13.252 9.838 13.261 9.83 13.27 L 9.802 13.262 L 9.974 12.759 L 9.997 12.773 Z " fill-rule="evenodd" fill="rgb(212,208,196)"/><path d=" M 11.765 12.773 C 11.762 12.785 11.76 12.805 11.76 12.833 C 11.76 12.852 11.775 12.873 11.803 12.896 C 11.832 12.92 11.869 12.942 11.915 12.963 C 11.96 12.983 12.012 13.001 12.071 13.015 C 12.13 13.029 12.189 13.036 12.25 13.036 C 12.366 13.036 12.451 13.02 12.505 12.987 C 12.559 12.954 12.586 12.906 12.586 12.844 C 12.586 12.81 12.563 12.786 12.515 12.772 C 12.468 12.758 12.409 12.747 12.338 12.738 C 12.267 12.73 12.19 12.72 12.108 12.71 C 12.026 12.7 11.95 12.681 11.879 12.654 C 11.807 12.626 11.748 12.587 11.701 12.535 C 11.654 12.483 11.63 12.412 11.63 12.322 C 11.63 12.251 11.644 12.186 11.671 12.127 C 11.698 12.069 11.736 12.019 11.785 11.978 C 11.833 11.936 11.892 11.904 11.962 11.88 C 12.032 11.857 12.109 11.845 12.194 11.845 C 12.273 11.845 12.346 11.851 12.414 11.863 C 12.482 11.876 12.543 11.889 12.595 11.904 C 12.648 11.919 12.692 11.933 12.728 11.945 C 12.763 11.958 12.789 11.964 12.804 11.964 C 12.82 11.964 12.832 11.959 12.841 11.951 C 12.851 11.942 12.859 11.933 12.867 11.921 L 12.892 11.933 L 12.732 12.325 L 12.704 12.308 L 12.704 12.277 C 12.704 12.26 12.689 12.243 12.659 12.225 C 12.629 12.207 12.591 12.191 12.544 12.177 C 12.498 12.163 12.446 12.151 12.389 12.141 C 12.332 12.132 12.276 12.127 12.222 12.127 C 12.121 12.127 12.051 12.141 12.011 12.17 C 11.971 12.198 11.95 12.228 11.95 12.26 C 11.95 12.292 11.964 12.316 11.992 12.332 C 12.02 12.348 12.056 12.36 12.101 12.367 C 12.146 12.375 12.197 12.381 12.254 12.386 C 12.312 12.39 12.37 12.397 12.431 12.407 C 12.491 12.416 12.55 12.429 12.607 12.446 C 12.664 12.463 12.715 12.488 12.76 12.521 C 12.805 12.554 12.841 12.597 12.869 12.651 C 12.897 12.704 12.911 12.772 12.911 12.853 C 12.911 12.915 12.9 12.976 12.88 13.036 C 12.859 13.096 12.823 13.15 12.773 13.198 C 12.723 13.246 12.655 13.284 12.571 13.313 C 12.487 13.341 12.382 13.355 12.257 13.355 C 12.159 13.355 12.075 13.35 12.005 13.338 C 11.935 13.327 11.875 13.313 11.825 13.297 C 11.776 13.281 11.737 13.267 11.708 13.253 C 11.679 13.24 11.658 13.234 11.644 13.234 C 11.635 13.234 11.627 13.237 11.62 13.245 C 11.613 13.252 11.606 13.261 11.598 13.27 L 11.57 13.262 L 11.742 12.759 L 11.765 12.773 Z " fill-rule="evenodd" fill="rgb(212,208,196)"/><path d=" M 14.344 12.805 C 14.341 12.786 14.335 12.77 14.325 12.758 C 14.315 12.746 14.298 12.74 14.275 12.74 L 13.843 12.74 L 13.843 13.002 L 14.588 13.002 C 14.6 13.002 14.609 12.997 14.616 12.987 C 14.622 12.976 14.626 12.953 14.63 12.917 L 14.657 12.917 L 14.657 13.4 L 14.63 13.4 C 14.627 13.376 14.622 13.361 14.616 13.355 C 14.609 13.349 14.6 13.346 14.588 13.346 L 13.43 13.346 L 13.43 13.313 C 13.46 13.309 13.478 13.303 13.485 13.294 C 13.492 13.286 13.495 13.275 13.495 13.262 L 13.495 11.947 C 13.495 11.934 13.492 11.923 13.485 11.914 C 13.478 11.906 13.46 11.9 13.43 11.896 L 13.43 11.862 L 14.588 11.862 C 14.6 11.862 14.609 11.857 14.616 11.847 C 14.622 11.836 14.626 11.815 14.63 11.783 L 14.657 11.783 L 14.657 12.274 L 14.63 12.274 C 14.627 12.242 14.622 12.221 14.616 12.211 C 14.609 12.2 14.6 12.195 14.588 12.195 L 13.843 12.195 L 13.843 12.429 L 14.275 12.429 C 14.298 12.429 14.315 12.423 14.325 12.411 C 14.335 12.399 14.341 12.383 14.344 12.364 L 14.372 12.364 L 14.372 12.805 L 14.344 12.805 Z " fill-rule="evenodd" fill="rgb(212,208,196)"/><path d=" M 16.001 12.488 C 16.069 12.488 16.115 12.473 16.141 12.442 C 16.166 12.411 16.179 12.375 16.179 12.333 C 16.179 12.292 16.166 12.256 16.141 12.225 C 16.115 12.194 16.069 12.178 16.001 12.178 L 15.611 12.178 L 15.611 12.489 L 16.001 12.488 Z  M 15.621 13.294 C 15.628 13.303 15.646 13.309 15.676 13.313 L 15.676 13.346 L 15.198 13.346 L 15.198 13.313 C 15.227 13.309 15.246 13.303 15.252 13.294 C 15.259 13.286 15.263 13.275 15.263 13.262 L 15.263 11.947 C 15.263 11.934 15.259 11.923 15.252 11.914 C 15.246 11.906 15.227 11.9 15.198 11.896 L 15.198 11.862 L 16.047 11.862 C 16.219 11.862 16.343 11.9 16.421 11.976 C 16.498 12.053 16.536 12.171 16.536 12.33 C 16.536 12.46 16.505 12.562 16.443 12.635 C 16.38 12.709 16.301 12.761 16.205 12.793 L 16.478 13.262 C 16.497 13.296 16.519 13.313 16.546 13.313 L 16.546 13.346 L 16.063 13.346 L 16.063 13.313 C 16.097 13.311 16.114 13.294 16.114 13.262 C 16.114 13.258 16.108 13.245 16.096 13.222 C 16.083 13.2 16.068 13.172 16.049 13.14 C 16.031 13.108 16.01 13.074 15.988 13.037 C 15.965 13.001 15.944 12.965 15.923 12.932 C 15.902 12.898 15.884 12.868 15.868 12.841 C 15.853 12.815 15.843 12.797 15.838 12.788 L 15.611 12.788 L 15.611 13.262 C 15.611 13.275 15.614 13.286 15.621 13.294 L 15.621 13.294 Z " fill-rule="evenodd" fill="rgb(212,208,196)"/><path d=" M 17.119 13.313 C 17.148 13.309 17.166 13.303 17.173 13.294 C 17.18 13.286 17.184 13.275 17.184 13.262 L 17.184 12.604 L 17.184 11.947 C 17.184 11.933 17.18 11.923 17.173 11.914 C 17.166 11.906 17.148 11.9 17.119 11.896 L 17.119 11.862 L 17.597 11.862 L 17.597 11.896 C 17.567 11.899 17.549 11.906 17.542 11.914 C 17.535 11.923 17.532 11.933 17.532 11.947 L 17.532 13.262 C 17.532 13.275 17.535 13.286 17.542 13.294 C 17.549 13.303 17.567 13.309 17.597 13.313 L 17.597 13.346 L 17.119 13.346 L 17.119 13.313 Z " fill-rule="evenodd" fill="rgb(212,208,196)"/><path d=" M 19.13 12.805 C 19.127 12.786 19.12 12.77 19.11 12.758 C 19.1 12.746 19.084 12.74 19.06 12.74 L 18.629 12.74 L 18.629 13.002 L 19.374 13.002 C 19.386 13.002 19.395 12.997 19.401 12.987 C 19.408 12.976 19.412 12.953 19.415 12.917 L 19.443 12.917 L 19.443 13.4 L 19.415 13.4 C 19.412 13.376 19.408 13.361 19.401 13.355 C 19.395 13.349 19.386 13.346 19.374 13.346 L 18.216 13.346 L 18.216 13.313 C 18.245 13.309 18.264 13.303 18.27 13.294 C 18.277 13.286 18.281 13.275 18.281 13.262 L 18.281 11.947 C 18.281 11.934 18.277 11.923 18.27 11.914 C 18.263 11.906 18.245 11.9 18.216 11.896 L 18.216 11.862 L 19.374 11.862 C 19.386 11.862 19.395 11.857 19.401 11.847 C 19.408 11.836 19.412 11.815 19.415 11.783 L 19.443 11.783 L 19.443 12.274 L 19.415 12.274 C 19.412 12.242 19.408 12.221 19.401 12.211 C 19.395 12.2 19.386 12.195 19.374 12.195 L 18.629 12.195 L 18.629 12.429 L 19.06 12.429 C 19.084 12.429 19.1 12.423 19.11 12.411 C 19.12 12.399 19.127 12.383 19.13 12.364 L 19.158 12.364 L 19.158 12.805 L 19.13 12.805 Z " fill-rule="evenodd" fill="rgb(212,208,196)"/></g></g></g></svg>