<?xml version="1.0" encoding="UTF-8" standalone="no"?><!-- Generator: Gravit.io --><svg xmlns="http://www.w3.org/2000/svg" xmlns:xlink="http://www.w3.org/1999/xlink" style="isolation:isolate" viewBox="0 0 24 24" width="24pt" height="24pt"><defs><clipPath id="_clipPath_YyvMPxqqWviLcByvPQM51b3HWTeqnPao"><rect width="24" height="24"/></clipPath></defs><g clip-path="url(#_clipPath_YyvMPxqqWviLcByvPQM51b3HWTeqnPao)"><clipPath id="_clipPath_mqXprxJbkFVymeNX5clsDrBJyO3vYCzJ"><rect x="0" y="0" width="24" height="24" transform="matrix(1,0,0,1,0,0)" fill="rgb(255,255,255)"/></clipPath><g clip-path="url(#_clipPath_mqXprxJbkFVymeNX5clsDrBJyO3vYCzJ)"><g><path d=" M 18.593 16.825 C 20.37 15.006 21.563 12.624 21.563 9.901 C 21.563 4.623 17.278 0.338 12 0.338 C 6.722 0.338 2.438 4.623 2.438 9.901 C 2.438 12.657 3.526 14.954 5.474 16.888 L 5.473 16.888 L 11.611 23.662 L 18.605 16.825 L 18.593 16.825 L 18.593 16.825 Z " fill="rgb(33,39,33)"/></g></g><clipPath id="_clipPath_TQiHcKsTSZ9H6OjCXkWbIoKH5ZWYoYeR"><rect x="2.98" y="0.5" width="18.04" height="22" transform="matrix(1,0,0,1,0,0)" fill="rgb(255,255,255)"/></clipPath><g clip-path="url(#_clipPath_TQiHcKsTSZ9H6OjCXkWbIoKH5ZWYoYeR)"><g><circle vector-effect="non-scaling-stroke" cx="12" cy="9.499999999999996" r="7.000000000000002" fill="rgb(255,255,255)"/></g></g><g><g><g><g><path d=" M 6.854 10.414 C 6.372 10.426 5.973 9.983 5.961 9.424 L 5.961 9.367 C 5.961 8.789 6.326 8.349 6.829 8.322 L 6.88 8.322 C 7.098 8.322 7.273 8.382 7.418 8.503 C 7.418 8.503 7.427 8.511 7.444 8.526 L 7.417 8.565 L 7.393 8.545 C 7.243 8.424 7.063 8.364 6.881 8.372 L 6.833 8.372 C 6.352 8.396 6.004 8.816 6.004 9.367 L 6.004 9.375 C 5.993 9.908 6.355 10.351 6.814 10.365 C 6.826 10.365 6.838 10.365 6.849 10.365 C 6.852 10.365 7.197 10.34 7.403 10.167 L 7.429 10.207 C 7.214 10.391 6.867 10.415 6.851 10.416 M 7.374 9.728 C 7.24 9.917 7.103 10.044 6.87 10.044 C 6.557 10.044 6.337 9.739 6.337 9.35 L 6.337 9.343 C 6.337 8.965 6.557 8.657 6.87 8.657 C 7.083 8.657 7.23 8.776 7.358 8.961 L 7.826 8.545 C 7.628 8.222 7.335 8 6.878 8 C 6.201 8 5.7 8.594 5.7 9.35 L 5.7 9.357 C 5.689 10.085 6.187 10.686 6.814 10.7 L 6.851 10.7 C 7.332 10.7 7.631 10.439 7.841 10.114 L 7.841 10.114 L 7.374 9.728 Z " fill="rgb(33,39,33)"/><path d=" M 12.764 9.531 L 12.764 8.347 L 12.807 8.347 L 12.807 9.531 C 12.807 9.996 12.601 10.32 12.253 10.4 C 12.193 10.413 12.133 10.419 12.072 10.419 C 12.009 10.419 11.947 10.413 11.885 10.402 C 11.536 10.329 11.319 9.988 11.319 9.511 L 11.319 8.347 L 11.361 8.347 L 11.361 9.512 C 11.361 9.969 11.56 10.283 11.892 10.353 C 12.009 10.375 12.127 10.375 12.244 10.353 C 12.568 10.279 12.762 9.972 12.762 9.533 M 12.463 9.515 C 12.463 9.879 12.3 10.05 12.051 10.05 C 11.803 10.05 11.64 9.872 11.64 9.497 L 11.64 8.012 L 11.013 8.012 L 11.013 9.509 C 11.013 10.321 11.412 10.698 12.047 10.698 C 12.682 10.698 13.094 10.331 13.094 9.492 L 13.094 8.012 L 12.466 8.012 L 12.463 9.515 Z " fill="rgb(33,39,33)"/><path d=" M 9.977 10.358 L 9.941 10.385 L 9.531 9.666 L 8.758 9.666 L 8.758 10.371 L 8.715 10.371 L 8.715 8.373 L 9.475 8.373 C 9.553 8.372 9.632 8.381 9.709 8.399 C 9.818 8.419 9.918 8.476 9.998 8.563 L 10.003 8.569 C 10.054 8.626 10.122 8.73 10.122 8.956 L 10.122 8.963 C 10.125 9.066 10.103 9.168 10.06 9.257 C 10.02 9.358 9.955 9.442 9.874 9.5 C 9.784 9.574 9.683 9.628 9.576 9.656 L 9.977 10.358 Z  M 10.409 8.946 L 10.409 8.941 C 10.409 8.685 10.342 8.485 10.211 8.336 C 10.061 8.158 9.825 8.054 9.483 8.054 L 8.427 8.054 L 8.427 10.648 L 9.046 10.648 L 9.046 9.862 L 9.317 9.862 L 9.767 10.648 L 10.482 10.648 L 9.949 9.743 C 10.227 9.606 10.409 9.343 10.409 8.946 Z " fill="rgb(33,39,33)"/><path d=" M 9.786 8.99 C 9.786 9.179 9.665 9.298 9.454 9.298 L 9.046 9.298 L 9.046 8.675 L 9.45 8.675 C 9.658 8.675 9.785 8.779 9.785 8.983 L 9.786 8.99 Z  M 10.021 9.238 C 10.062 9.155 10.082 9.06 10.079 8.965 L 10.079 8.957 C 10.079 8.75 10.018 8.657 9.973 8.605 L 9.968 8.6 C 9.894 8.521 9.801 8.469 9.701 8.451 C 9.626 8.435 9.551 8.426 9.475 8.426 L 8.758 8.426 L 8.758 9.617 L 9.539 9.617 C 9.651 9.591 9.757 9.537 9.85 9.459 C 9.924 9.406 9.984 9.329 10.02 9.237" fill="rgb(33,39,33)"/><path d=" M 17.891 8.409 L 17.172 8.409 L 17.172 10.387 L 17.13 10.387 L 17.13 8.409 L 16.411 8.409 L 16.411 8.36 L 17.891 8.36 L 17.891 8.409 Z  M 16.171 8.052 L 16.171 8.682 L 16.841 8.682 L 16.841 10.648 L 17.462 10.648 L 17.462 8.682 L 18.132 8.682 L 18.132 8.052 L 16.171 8.052 Z " fill="rgb(33,39,33)"/><path d=" M 15.39 9.864 C 15.384 10.045 15.331 10.171 15.224 10.26 C 15.216 10.269 15.075 10.416 14.778 10.416 C 14.605 10.416 14.379 10.367 14.096 10.209 L 14.115 10.164 C 14.853 10.574 15.194 10.228 15.197 10.222 C 15.296 10.138 15.341 10.028 15.347 9.862 L 15.347 9.855 C 15.347 9.684 15.302 9.531 14.75 9.392 L 14.708 9.382 C 14.154 9.234 14.066 9.109 14.066 8.862 L 14.066 8.854 C 14.062 8.704 14.121 8.561 14.226 8.471 C 14.239 8.458 14.58 8.115 15.22 8.448 L 15.203 8.495 C 14.59 8.177 14.257 8.509 14.254 8.512 C 14.159 8.593 14.105 8.722 14.11 8.858 L 14.11 8.866 C 14.11 9.085 14.195 9.199 14.717 9.338 L 14.759 9.347 C 15.343 9.495 15.39 9.666 15.39 9.859 L 15.39 9.864 Z  M 14.82 9.031 C 14.509 8.954 14.433 8.898 14.433 8.779 L 14.433 8.771 C 14.433 8.679 14.507 8.604 14.657 8.604 C 14.855 8.604 15.078 8.694 15.282 8.86 L 15.587 8.35 C 15.346 8.125 15.05 8.007 14.671 8.007 C 14.135 8.007 13.806 8.354 13.806 8.838 L 13.806 8.846 C 13.806 9.38 14.173 9.535 14.649 9.661 C 14.952 9.743 15.025 9.802 15.025 9.909 L 15.025 9.916 C 15.025 10.027 14.936 10.095 14.77 10.095 C 14.505 10.091 14.249 9.981 14.045 9.783 L 13.701 10.261 C 13.975 10.547 14.352 10.692 14.748 10.692 C 15.29 10.692 15.651 10.376 15.651 9.846 L 15.651 9.838 C 15.646 9.349 15.324 9.155 14.818 9.03" fill="rgb(33,39,33)"/><path d=" M 18.655 8.05 L 18.602 8.149 L 18.55 8.05 L 18.503 8.05 L 18.503 8.281 L 18.546 8.281 L 18.546 8.133 L 18.601 8.232 L 18.601 8.232 L 18.657 8.133 L 18.657 8.281 L 18.7 8.281 L 18.7 8.05 L 18.655 8.05 Z  M 18.305 8.05 L 18.305 8.099 L 18.365 8.099 L 18.365 8.281 L 18.408 8.281 L 18.408 8.099 L 18.468 8.099 L 18.468 8.05 L 18.305 8.05 Z " fill="rgb(33,39,33)"/></g></g></g></g></g></svg>