<?xml version="1.0" encoding="UTF-8" standalone="no"?><!-- Generator: Gravit.io --><svg xmlns="http://www.w3.org/2000/svg" xmlns:xlink="http://www.w3.org/1999/xlink" style="isolation:isolate" viewBox="0 0 24 24" width="24pt" height="24pt"><defs><clipPath id="_clipPath_xs0Qzf5CEGu1xAdIXxIgWa7h1iZJIVn4"><rect width="24" height="24"/></clipPath></defs><g clip-path="url(#_clipPath_xs0Qzf5CEGu1xAdIXxIgWa7h1iZJIVn4)"><clipPath id="_clipPath_Lzjuxe5owKA12IFXKCe2zhgghRmPjQxd"><rect x="0" y="0" width="24" height="24" transform="matrix(1,0,0,1,0,0)" fill="rgb(255,255,255)"/></clipPath><g clip-path="url(#_clipPath_Lzjuxe5owKA12IFXKCe2zhgghRmPjQxd)"><g><clipPath id="_clipPath_x1sPbBWLEEup6yZvwHyvn5hFR4ifcXJf"><rect x="0" y="0" width="24" height="24" transform="matrix(1,0,0,1,0,0)" fill="rgb(255,255,255)"/></clipPath><g clip-path="url(#_clipPath_x1sPbBWLEEup6yZvwHyvn5hFR4ifcXJf)"><g><g><path d=" M 18.219 16.551 C 19.896 14.836 21.02 12.588 21.02 10.02 C 21.02 5.042 16.978 1 12 1 C 7.022 1 2.98 5.042 2.98 10.02 C 2.98 12.62 4.007 14.787 5.844 16.61 L 5.844 16.61 L 11.633 23 L 18.23 16.551 L 18.219 16.551 L 18.219 16.551 L 18.219 16.551 Z " fill="rgb(76,18,161)"/></g></g></g><g><rect x="3.5" y="1" width="17" height="17" transform="matrix(1,0,0,1,0,0)" fill="none"/></g></g></g><path d=" M 5.597 11.536 C 6.191 11.536 6.763 11.167 7.014 10.554 L 6.394 10.198 C 6.246 10.559 5.981 10.797 5.594 10.797 C 5.088 10.797 4.73 10.368 4.73 9.768 C 4.73 9.176 5.088 8.741 5.594 8.741 C 5.981 8.741 6.254 8.977 6.394 9.339 L 7.012 8.983 C 6.765 8.37 6.193 8 5.592 8 C 4.712 8 4 8.791 4 9.768 C 4 10.745 4.719 11.536 5.597 11.536 L 5.597 11.536 Z  M 8.64 11.536 C 8.999 11.536 9.319 11.345 9.558 11.099 L 9.558 11.152 C 9.504 11.272 9.451 11.317 9.386 11.395 L 9.386 11.455 L 9.985 11.455 L 9.985 8.081 L 9.286 8.081 L 9.286 10.034 C 9.286 10.486 9.019 10.803 8.64 10.803 C 8.274 10.803 7.986 10.499 7.986 10.034 L 7.986 8.081 L 7.29 8.081 L 7.29 10.087 C 7.29 10.966 7.815 11.536 8.64 11.536 L 8.64 11.536 Z  M 10.426 11.455 L 11.125 11.455 L 11.125 9.427 C 11.127 9.035 11.417 8.718 11.771 8.718 C 11.891 8.718 12.005 8.732 12.092 8.791 L 12.092 8.036 C 11.987 8.008 11.88 7.998 11.771 8 C 11.428 7.995 11.097 8.144 10.853 8.415 L 10.853 8.365 C 10.899 8.269 10.96 8.217 11.026 8.159 L 11.026 8.091 L 10.426 8.091 L 10.426 11.455 L 10.426 11.455 Z  M 12.536 11.455 L 13.237 11.455 L 13.237 9.878 L 13.237 9.427 C 13.239 9.035 13.529 8.718 13.883 8.718 C 14.001 8.718 14.116 8.732 14.203 8.791 L 14.203 8.036 C 14.098 8.008 13.992 7.998 13.883 8 C 13.539 7.995 13.208 8.144 12.964 8.415 L 12.964 8.365 C 13.01 8.269 13.071 8.217 13.137 8.159 L 13.137 8.091 L 12.536 8.091 L 12.536 11.455 Z  M 15.925 13 C 16.365 13.005 16.78 12.774 17.036 12.379 C 17.189 12.136 17.275 11.847 17.275 11.478 L 17.275 8.081 L 16.576 8.081 L 16.576 8.568 L 16.576 10.034 C 16.576 10.486 16.309 10.803 15.93 10.803 C 15.556 10.803 15.284 10.506 15.284 10.034 L 15.284 8.081 L 14.584 8.081 L 14.584 10.087 C 14.584 11.011 15.177 11.536 15.898 11.536 C 16.296 11.536 16.609 11.373 16.843 11.13 L 16.843 11.181 C 16.787 11.265 16.724 11.342 16.653 11.41 C 16.653 11.995 16.327 12.259 15.966 12.259 C 15.586 12.259 15.373 12.045 15.307 11.734 L 14.62 11.734 C 14.625 12.274 15.091 13 15.925 13 L 15.925 13 Z  M 18.802 11.536 C 19.428 11.536 20 11.099 20 10.413 C 20 9.799 19.7 9.532 19.168 9.37 L 18.896 9.279 C 18.629 9.198 18.451 9.116 18.451 8.932 C 18.451 8.791 18.558 8.666 18.784 8.666 C 18.99 8.666 19.118 8.786 19.17 8.932 L 19.751 8.613 C 19.545 8.169 19.125 8.006 18.763 8.006 C 18.171 8.006 17.752 8.412 17.752 8.967 C 17.752 9.514 18.118 9.751 18.51 9.876 L 18.888 9.994 C 19.202 10.099 19.288 10.195 19.288 10.416 C 19.288 10.675 19.061 10.813 18.815 10.813 C 18.548 10.813 18.283 10.65 18.283 10.348 C 18.283 10.313 18.286 10.28 18.288 10.243 L 17.581 10.243 C 17.571 10.288 17.565 10.336 17.569 10.384 C 17.569 11.062 18.082 11.536 18.802 11.536 L 18.802 11.536 Z " fill="rgb(255,255,255)"/></g></svg>