<?xml version="1.0" encoding="UTF-8" standalone="no"?><!-- Generator: Gravit.io --><svg xmlns="http://www.w3.org/2000/svg" xmlns:xlink="http://www.w3.org/1999/xlink" style="isolation:isolate" viewBox="0 0 24 24" width="24pt" height="24pt"><defs><clipPath id="_clipPath_F0Lh2p8dUCnimtfTwPNjn2LkgEd1cUSZ"><rect width="24" height="24"/></clipPath></defs><g clip-path="url(#_clipPath_F0Lh2p8dUCnimtfTwPNjn2LkgEd1cUSZ)"><path d=" M 18.219 16.551 C 19.896 14.836 21.02 12.588 21.02 10.02 C 21.02 5.042 16.978 1 12 1 C 7.022 1 2.98 5.042 2.98 10.02 C 2.98 12.62 4.007 14.787 5.844 16.61 L 5.844 16.61 L 11.633 23 L 18.23 16.551 L 18.219 16.551 Z " fill="rgb(47,50,137)"/><g><g><path d=" M 18.127 10.215 C 18.128 6.831 15.385 4.094 12.001 4.101 C 8.618 4.11 5.874 6.861 5.874 10.246 C 5.873 13.631 8.616 16.368 12 16.36 C 15.384 16.352 18.127 13.6 18.127 10.215 L 18.127 10.215 Z  M 17.409 8.927 C 17.409 8.927 17.381 9.029 17.431 9.043 C 17.464 9.053 17.499 9.062 17.506 9.091 C 17.514 9.12 17.496 9.147 17.474 9.153 C 17.449 9.161 17.128 9.25 17.128 9.25 C 17.128 9.25 17.078 9.265 17.067 9.22 C 17.056 9.18 17.11 9.154 17.11 9.154 C 17.365 8.997 17.314 8.758 17.314 8.758 L 17.406 8.732 C 17.406 8.732 17.431 8.817 17.409 8.927 L 17.409 8.927 Z  M 16.954 7.687 C 16.954 7.687 16.95 7.793 17.002 7.795 C 17.036 7.796 17.073 7.798 17.086 7.824 C 17.102 7.85 17.089 7.881 17.07 7.892 C 17.048 7.905 16.757 8.067 16.757 8.067 C 16.757 8.067 16.711 8.093 16.69 8.052 C 16.671 8.016 16.717 7.978 16.717 7.978 C 16.927 7.766 16.821 7.546 16.821 7.546 L 16.905 7.499 C 16.905 7.499 16.949 7.576 16.954 7.687 Z  M 16.379 6.675 L 16.163 6.885 C 16.163 6.885 16.127 6.927 16.1 6.911 C 16.063 6.89 16.084 6.853 16.084 6.853 C 16.084 6.853 16.112 6.773 16.115 6.656 C 16.117 6.539 16.04 6.453 16.04 6.453 L 16.102 6.392 L 16.379 6.675 Z  M 15.649 6.082 C 15.649 6.082 15.613 6.032 15.649 5.997 C 15.691 5.957 15.744 6.024 15.744 6.024 L 16.05 6.339 L 15.138 7.227 L 14.809 6.889 C 14.792 6.872 14.759 6.828 14.798 6.79 C 14.826 6.763 14.875 6.79 14.875 6.79 C 14.926 6.814 14.967 6.782 14.967 6.782 L 15.627 6.138 C 15.663 6.103 15.649 6.082 15.649 6.082 L 15.649 6.082 Z  M 15.843 8.012 L 15.758 8.058 C 15.758 8.058 15.708 7.979 15.705 7.869 C 15.705 7.869 15.707 7.798 15.657 7.778 C 15.626 7.763 15.591 7.759 15.577 7.733 C 15.561 7.707 15.574 7.675 15.592 7.665 C 15.617 7.652 15.877 7.505 15.877 7.505 C 15.877 7.505 15.912 7.486 15.936 7.527 C 15.957 7.566 15.911 7.605 15.911 7.605 C 15.714 7.83 15.843 8.012 15.843 8.012 L 15.843 8.012 Z  M 15.467 7.563 L 15.192 7.279 L 15.255 7.218 C 15.255 7.218 15.338 7.297 15.456 7.298 C 15.574 7.299 15.653 7.274 15.653 7.274 C 15.653 7.274 15.691 7.253 15.711 7.291 C 15.726 7.318 15.683 7.352 15.683 7.352 L 15.467 7.563 Z  M 15.667 7.121 C 15.651 7.137 15.569 7.14 15.622 7.039 C 15.675 6.937 15.642 6.843 15.642 6.843 L 15.702 6.784 C 15.702 6.784 15.794 6.82 15.898 6.77 C 16 6.72 15.994 6.802 15.978 6.818 L 15.667 7.121 Z  M 14.811 5.365 L 14.957 5.45 C 14.957 5.45 15.329 5.627 15.131 5.973 C 14.999 6.202 14.806 6.18 14.689 6.139 C 14.689 6.139 14.727 6.15 14.725 6.231 L 14.719 6.591 C 14.715 6.642 14.733 6.661 14.733 6.661 C 14.733 6.661 14.763 6.688 14.738 6.732 C 14.709 6.782 14.623 6.724 14.623 6.724 L 14.377 6.583 C 14.377 6.583 14.299 6.548 14.328 6.497 C 14.349 6.458 14.41 6.477 14.41 6.477 C 14.41 6.477 14.452 6.486 14.458 6.441 C 14.458 6.441 14.465 6.066 14.465 6.042 C 14.467 6.019 14.443 6.006 14.443 6.006 L 14.49 5.923 C 14.49 5.923 14.583 5.979 14.636 5.884 L 14.803 5.595 C 14.858 5.5 14.763 5.449 14.763 5.449 L 14.811 5.365 Z  M 14.263 5.111 C 14.293 5.06 14.364 5.108 14.364 5.108 L 14.746 5.328 L 14.205 6.27 C 14.205 6.27 14.184 6.318 14.219 6.36 C 14.219 6.36 14.258 6.401 14.239 6.435 C 14.211 6.482 14.161 6.461 14.139 6.449 L 13.701 6.198 C 13.68 6.186 13.636 6.152 13.664 6.105 C 13.682 6.072 13.739 6.084 13.739 6.084 C 13.792 6.093 13.823 6.051 13.823 6.051 L 14.282 5.251 C 14.307 5.208 14.288 5.192 14.288 5.192 C 14.288 5.192 14.24 5.153 14.263 5.111 L 14.263 5.111 Z  M 13.502 4.924 L 13.528 4.831 L 13.691 4.875 C 13.691 4.875 14.095 4.955 13.989 5.34 C 13.882 5.724 13.494 5.588 13.494 5.588 L 13.331 5.543 L 13.356 5.449 C 13.356 5.449 13.46 5.482 13.488 5.377 L 13.577 5.054 C 13.606 4.95 13.502 4.924 13.502 4.924 L 13.502 4.924 Z  M 12.6 5.834 C 12.61 5.795 12.667 5.794 12.667 5.794 C 12.722 5.789 12.741 5.741 12.741 5.741 L 12.987 4.852 C 13 4.803 12.978 4.793 12.978 4.793 C 12.978 4.793 12.921 4.767 12.935 4.72 C 12.95 4.665 13.031 4.695 13.031 4.695 L 13.456 4.811 L 13.166 5.857 C 13.166 5.857 13.157 5.909 13.202 5.941 C 13.202 5.941 13.25 5.971 13.24 6.009 C 13.226 6.061 13.171 6.053 13.148 6.046 L 12.66 5.914 C 12.636 5.906 12.585 5.885 12.6 5.834 L 12.6 5.834 Z  M 12.087 4.622 C 12.087 4.622 12.174 4.622 12.274 4.673 C 12.274 4.673 12.364 4.73 12.391 4.685 C 12.41 4.655 12.429 4.624 12.458 4.625 C 12.49 4.625 12.51 4.651 12.509 4.674 C 12.509 4.7 12.506 5.033 12.506 5.033 C 12.506 5.033 12.506 5.085 12.458 5.083 C 12.417 5.082 12.407 5.023 12.407 5.023 C 12.33 4.735 12.085 4.719 12.085 4.719 L 12.087 4.622 Z  M 11.676 4.728 C 11.757 4.658 11.885 4.621 12.013 4.62 L 12.011 4.719 C 11.943 4.719 11.863 4.735 11.816 4.764 C 11.772 4.793 11.751 4.831 11.75 4.877 C 11.75 4.917 11.767 4.944 11.8 4.959 C 11.834 4.975 11.877 4.987 11.925 4.995 L 12.078 5.024 C 12.214 5.053 12.312 5.103 12.381 5.157 C 12.472 5.229 12.569 5.348 12.568 5.472 C 12.568 5.522 12.563 5.569 12.545 5.615 C 12.51 5.705 12.444 5.773 12.362 5.823 C 12.277 5.872 12.166 5.896 12.073 5.895 L 12.074 5.796 C 12.124 5.792 12.165 5.78 12.22 5.747 C 12.279 5.713 12.308 5.665 12.311 5.602 C 12.309 5.52 12.244 5.463 12.112 5.43 L 11.968 5.397 C 11.913 5.388 11.863 5.373 11.821 5.359 C 11.76 5.341 11.709 5.314 11.668 5.279 C 11.627 5.246 11.597 5.206 11.577 5.159 C 11.557 5.113 11.548 5.064 11.549 5.012 C 11.549 4.897 11.591 4.803 11.676 4.728 L 11.676 4.728 Z  M 11.999 5.798 L 11.997 5.894 C 11.997 5.894 11.904 5.899 11.808 5.847 C 11.808 5.847 11.747 5.811 11.704 5.842 C 11.676 5.863 11.655 5.892 11.624 5.891 C 11.595 5.89 11.574 5.865 11.574 5.843 C 11.574 5.816 11.578 5.517 11.578 5.517 C 11.578 5.517 11.578 5.477 11.626 5.478 C 11.67 5.478 11.681 5.537 11.681 5.537 C 11.778 5.82 11.999 5.798 11.999 5.798 L 11.999 5.798 Z  M 11.321 5.555 C 11.352 5.555 11.361 5.609 11.361 5.609 L 11.435 5.9 L 11.051 5.998 L 11.03 5.913 C 11.03 5.913 11.14 5.881 11.2 5.779 C 11.259 5.678 11.276 5.596 11.276 5.596 C 11.276 5.596 11.279 5.553 11.321 5.555 L 11.321 5.555 Z  M 10.899 5.392 L 10.878 5.311 C 10.878 5.311 10.956 5.249 10.963 5.134 C 10.972 5.02 11.04 5.067 11.046 5.088 L 11.152 5.508 C 11.158 5.53 11.12 5.602 11.058 5.507 C 10.997 5.41 10.899 5.392 10.899 5.392 L 10.899 5.392 Z  M 11.123 4.67 L 11.197 4.962 C 11.197 4.962 11.214 5.012 11.188 5.028 C 11.15 5.05 11.129 5.013 11.129 5.013 C 11.129 5.013 11.074 4.95 10.974 4.89 C 10.874 4.829 10.76 4.854 10.76 4.854 L 10.739 4.769 L 11.123 4.67 Z  M 10.24 4.896 L 10.666 4.787 L 10.979 6.019 L 10.522 6.137 C 10.498 6.143 10.444 6.15 10.431 6.097 C 10.42 6.06 10.469 6.03 10.469 6.03 C 10.514 5.999 10.507 5.947 10.507 5.947 L 10.28 5.055 C 10.268 5.006 10.243 5.008 10.243 5.008 C 10.243 5.008 10.181 5.013 10.169 4.966 C 10.155 4.909 10.24 4.896 10.24 4.896 L 10.24 4.896 Z  M 8.812 5.613 L 9.719 6.287 C 9.719 6.287 9.755 6.324 9.807 6.31 C 9.807 6.31 9.86 6.291 9.884 6.322 C 9.916 6.365 9.876 6.403 9.857 6.417 L 9.453 6.719 C 9.434 6.734 9.388 6.761 9.355 6.717 C 9.331 6.687 9.365 6.64 9.365 6.64 C 9.415 6.582 9.368 6.55 9.368 6.55 L 9.248 6.461 L 9.015 6.636 L 8.955 6.555 L 9.163 6.399 L 8.525 5.923 L 8.498 5.849 L 8.812 5.613 Z  M 8.887 6.911 L 8.567 6.039 L 8.73 6.16 L 8.979 6.841 C 8.979 6.841 8.999 6.893 9.067 6.863 C 9.067 6.863 9.121 6.845 9.144 6.876 C 9.175 6.919 9.137 6.957 9.117 6.972 L 8.973 7.08 C 8.954 7.095 8.906 7.121 8.874 7.078 C 8.85 7.047 8.884 7.001 8.884 7.001 C 8.913 6.954 8.887 6.911 8.887 6.911 L 8.887 6.911 Z  M 7.943 6.366 L 8.023 6.269 C 8.023 6.269 8.071 6.198 8.116 6.236 C 8.15 6.264 8.132 6.308 8.132 6.308 C 8.132 6.308 8.126 6.326 8.148 6.373 L 8.347 6.879 L 8.214 6.85 L 8.069 6.469 C 8.048 6.43 8.011 6.454 8.011 6.454 C 8.011 6.454 7.962 6.491 7.928 6.463 C 7.883 6.427 7.943 6.366 7.943 6.366 L 7.943 6.366 Z  M 7.369 7.059 L 7.65 6.721 C 7.65 6.721 7.698 6.651 7.743 6.688 C 7.776 6.715 7.749 6.772 7.749 6.772 C 7.749 6.772 7.732 6.812 7.775 6.825 L 8.461 6.972 L 8.691 7.162 C 8.691 7.162 8.733 7.191 8.781 7.164 C 8.781 7.164 8.828 7.132 8.858 7.157 C 8.9 7.192 8.871 7.237 8.855 7.256 L 8.534 7.644 C 8.519 7.663 8.479 7.7 8.438 7.666 C 8.408 7.641 8.429 7.589 8.429 7.589 C 8.447 7.537 8.411 7.502 8.411 7.502 L 8.18 7.31 L 7.495 7.164 C 7.446 7.15 7.428 7.159 7.428 7.159 C 7.428 7.159 7.388 7.185 7.355 7.157 C 7.309 7.12 7.369 7.059 7.369 7.059 L 7.369 7.059 Z  M 6.405 9.722 L 6.705 9.721 C 6.705 9.721 6.759 9.716 6.768 9.745 C 6.779 9.787 6.738 9.799 6.738 9.799 C 6.738 9.799 6.663 9.836 6.58 9.919 C 6.497 10.001 6.492 10.117 6.492 10.117 L 6.405 10.117 L 6.405 9.722 Z  M 6.79 9.898 L 7.223 9.896 C 7.246 9.896 7.307 9.951 7.198 9.987 C 7.09 10.023 7.048 10.114 7.048 10.114 L 6.965 10.114 C 6.965 10.114 6.923 10.024 6.814 9.988 C 6.706 9.953 6.768 9.898 6.79 9.898 Z  M 7.676 10.66 C 7.676 10.686 7.669 10.74 7.615 10.74 C 7.576 10.74 7.56 10.686 7.56 10.686 C 7.54 10.635 7.488 10.63 7.488 10.63 L 6.567 10.632 C 6.517 10.632 6.513 10.656 6.513 10.656 C 6.513 10.656 6.504 10.717 6.454 10.718 C 6.396 10.718 6.404 10.632 6.404 10.632 L 6.404 10.192 L 7.675 10.189 L 7.676 10.66 Z  M 7.677 10.114 L 7.588 10.114 C 7.588 10.114 7.585 9.998 7.502 9.916 C 7.418 9.835 7.343 9.798 7.343 9.798 C 7.343 9.798 7.302 9.785 7.313 9.743 C 7.323 9.715 7.377 9.719 7.377 9.719 L 7.677 9.719 L 7.677 10.114 Z  M 7.705 9.522 C 7.698 9.545 7.677 9.596 7.624 9.581 C 7.588 9.57 7.586 9.513 7.586 9.513 C 7.582 9.459 7.535 9.439 7.535 9.439 L 6.65 9.184 C 6.602 9.17 6.592 9.192 6.592 9.192 C 6.592 9.192 6.565 9.248 6.518 9.234 C 6.462 9.218 6.494 9.139 6.494 9.139 L 6.616 8.715 L 7.837 9.069 L 7.705 9.522 Z  M 7.858 8.998 L 7.765 8.971 C 7.765 8.971 7.799 8.868 7.694 8.837 L 6.861 8.596 C 6.757 8.566 6.73 8.672 6.73 8.672 L 6.637 8.644 C 6.637 8.644 6.781 8.078 7.411 8.26 C 8.04 8.441 7.858 8.998 7.858 8.998 Z  M 7.992 8.42 C 7.958 8.402 7.969 8.347 7.969 8.347 C 7.977 8.292 7.934 8.263 7.934 8.263 L 7.125 7.823 C 7.081 7.8 7.066 7.82 7.066 7.82 C 7.066 7.82 7.028 7.869 6.985 7.845 C 6.934 7.817 6.981 7.746 6.981 7.746 L 7.193 7.359 C 7.193 7.359 7.227 7.279 7.278 7.308 C 7.322 7.33 7.3 7.389 7.3 7.389 C 7.3 7.389 7.292 7.412 7.336 7.436 L 8.146 7.875 C 8.146 7.875 8.193 7.895 8.235 7.859 C 8.235 7.859 8.275 7.819 8.309 7.838 C 8.357 7.864 8.337 7.915 8.325 7.936 L 8.083 8.38 C 8.071 8.402 8.039 8.445 7.992 8.42 L 7.992 8.42 Z  M 9.291 14.812 C 9.031 14.957 8.817 14.8 8.817 14.8 L 8.871 14.726 C 8.871 14.726 9.048 14.841 9.243 14.735 C 9.243 14.735 9.297 14.703 9.32 14.748 C 9.339 14.783 9.291 14.812 9.291 14.812 L 9.291 14.812 Z  M 9.419 13.854 C 9.419 13.854 9.337 13.789 9.277 13.874 L 8.79 14.543 C 8.73 14.627 8.814 14.685 8.814 14.685 L 8.76 14.759 C 8.76 14.759 8.299 14.448 8.667 13.942 C 9.035 13.437 9.474 13.779 9.474 13.779 L 9.419 13.854 Z  M 9.545 14.409 C 9.513 14.386 9.539 14.335 9.539 14.335 C 9.637 14.068 9.476 13.894 9.476 13.894 L 9.531 13.819 C 9.531 13.819 9.597 13.869 9.646 13.963 C 9.646 13.963 9.686 14.056 9.732 14.037 C 9.762 14.025 9.794 14.011 9.817 14.028 C 9.841 14.045 9.842 14.076 9.829 14.094 C 9.815 14.114 9.609 14.396 9.609 14.396 C 9.609 14.396 9.581 14.436 9.545 14.409 L 9.545 14.409 Z  M 9.933 15.399 C 9.933 15.399 9.411 15.216 9.639 14.634 C 9.868 14.051 10.375 14.27 10.375 14.27 L 10.342 14.356 C 10.342 14.356 10.247 14.317 10.21 14.413 L 9.908 15.182 C 9.87 15.279 9.966 15.313 9.966 15.313 L 9.933 15.399 Z  M 10 15.426 L 10.034 15.339 C 10.034 15.339 10.127 15.379 10.166 15.284 L 10.468 14.514 C 10.506 14.417 10.41 14.383 10.41 14.383 L 10.443 14.297 C 10.443 14.297 10.965 14.48 10.736 15.062 C 10.508 15.644 10 15.426 10 15.426 L 10 15.426 Z  M 11.293 15.749 L 10.815 15.684 C 10.792 15.68 10.741 15.667 10.749 15.616 C 10.754 15.579 10.808 15.57 10.808 15.57 C 10.858 15.559 10.871 15.511 10.871 15.511 L 10.994 14.642 C 11.001 14.594 10.978 14.587 10.978 14.587 C 10.978 14.587 10.923 14.57 10.928 14.524 C 10.937 14.469 11.016 14.488 11.016 14.488 L 11.433 14.546 L 11.286 15.569 C 11.286 15.569 11.284 15.618 11.331 15.643 C 11.331 15.643 11.38 15.667 11.375 15.704 C 11.368 15.754 11.316 15.753 11.293 15.749 L 11.293 15.749 Z  M 11.657 14.948 L 11.599 15.358 C 11.596 15.379 11.536 15.429 11.516 15.321 C 11.497 15.215 11.418 15.164 11.418 15.164 L 11.428 15.085 C 11.428 15.085 11.519 15.058 11.568 14.96 C 11.616 14.863 11.66 14.927 11.657 14.948 Z  M 11.835 14.891 C 11.835 14.891 11.832 14.944 11.804 14.947 C 11.763 14.953 11.757 14.912 11.757 14.912 C 11.757 14.912 11.733 14.837 11.665 14.747 C 11.599 14.657 11.491 14.639 11.491 14.639 L 11.503 14.555 L 11.876 14.607 L 11.835 14.891 Z  M 12.634 15.757 L 12.154 15.806 C 12.131 15.808 12.079 15.808 12.074 15.757 C 12.07 15.719 12.12 15.698 12.12 15.698 C 12.167 15.675 12.167 15.625 12.167 15.625 L 12.08 14.752 C 12.075 14.704 12.051 14.703 12.051 14.703 C 12.051 14.703 11.992 14.7 11.988 14.654 C 11.982 14.598 12.064 14.598 12.064 14.598 L 12.482 14.555 L 12.585 15.582 C 12.585 15.582 12.596 15.63 12.646 15.644 C 12.646 15.644 12.7 15.654 12.704 15.691 C 12.708 15.742 12.657 15.753 12.634 15.757 L 12.634 15.757 Z  M 12.749 15.287 C 12.705 15.188 12.615 15.157 12.615 15.157 L 12.607 15.078 C 12.607 15.078 12.688 15.03 12.712 14.923 C 12.736 14.817 12.795 14.87 12.796 14.891 L 12.838 15.302 C 12.84 15.324 12.794 15.387 12.749 15.287 L 12.749 15.287 Z  M 12.939 14.855 C 12.901 14.87 12.885 14.833 12.885 14.833 C 12.885 14.833 12.843 14.765 12.757 14.694 C 12.671 14.623 12.561 14.631 12.561 14.631 L 12.553 14.547 L 12.928 14.508 L 12.956 14.794 C 12.956 14.794 12.966 14.844 12.939 14.855 L 12.939 14.855 Z  M 13.496 15.602 C 13.474 15.61 13.424 15.622 13.406 15.572 C 13.394 15.538 13.437 15.506 13.437 15.506 C 13.477 15.471 13.465 15.423 13.465 15.423 L 13.168 14.598 C 13.152 14.553 13.129 14.557 13.129 14.557 C 13.129 14.557 13.07 14.568 13.056 14.525 C 13.037 14.473 13.116 14.452 13.116 14.452 L 13.51 14.31 L 13.919 15.448 L 13.496 15.602 Z  M 13.577 14.285 L 13.931 14.157 L 14.029 14.426 C 14.029 14.426 14.049 14.473 14.026 14.49 C 13.993 14.514 13.969 14.481 13.969 14.481 C 13.969 14.481 13.911 14.426 13.811 14.378 C 13.71 14.33 13.605 14.364 13.605 14.364 L 13.577 14.285 Z  M 13.786 14.862 L 13.759 14.787 C 13.759 14.787 13.827 14.721 13.824 14.611 C 13.82 14.503 13.889 14.54 13.896 14.56 L 14.036 14.947 C 14.044 14.967 14.014 15.04 13.947 14.955 C 13.88 14.869 13.786 14.862 13.786 14.862 Z  M 13.987 15.425 L 13.959 15.346 C 13.959 15.346 14.061 15.305 14.108 15.204 C 14.155 15.103 14.163 15.023 14.163 15.023 C 14.163 15.023 14.161 14.982 14.203 14.979 C 14.231 14.977 14.244 15.027 14.244 15.027 L 14.342 15.296 L 13.987 15.425 Z  M 14.739 15.086 C 14.718 15.098 14.672 15.122 14.644 15.079 C 14.624 15.048 14.659 15.007 14.659 15.007 C 14.688 14.963 14.666 14.92 14.666 14.92 L 14.18 14.19 C 14.154 14.151 14.132 14.16 14.132 14.16 C 14.132 14.16 14.079 14.184 14.053 14.146 C 14.022 14.099 14.095 14.06 14.095 14.06 L 14.444 13.829 L 15.113 14.836 L 14.739 15.086 Z  M 14.82 14.046 C 14.792 13.942 14.868 13.96 14.879 13.978 L 15.107 14.322 C 15.119 14.339 15.108 14.418 15.023 14.35 C 14.937 14.283 14.843 14.298 14.843 14.298 L 14.8 14.232 C 14.8 14.232 14.849 14.152 14.82 14.046 Z  M 14.989 13.88 C 14.961 13.911 14.93 13.886 14.93 13.886 C 14.93 13.886 14.862 13.845 14.753 13.822 C 14.643 13.8 14.549 13.858 14.549 13.858 L 14.502 13.789 L 14.817 13.579 L 14.975 13.818 C 14.975 13.818 15.007 13.858 14.989 13.88 L 14.989 13.88 Z  M 15.174 14.798 L 15.127 14.728 C 15.127 14.728 15.217 14.664 15.238 14.552 C 15.259 14.444 15.249 14.365 15.249 14.365 C 15.249 14.365 15.237 14.326 15.277 14.313 C 15.303 14.304 15.328 14.349 15.328 14.349 L 15.487 14.588 L 15.174 14.798 Z  M 12 14.162 C 9.829 14.168 8.07 12.412 8.07 10.24 C 8.07 8.069 9.83 6.304 12.001 6.298 C 14.172 6.293 15.932 8.05 15.932 10.221 C 15.932 12.393 14.171 14.157 12 14.162 L 12 14.162 Z  M 15.795 8.124 L 15.881 8.075 C 15.909 8.117 15.941 8.145 15.996 8.177 C 16.054 8.211 16.11 8.214 16.166 8.183 C 16.237 8.141 16.254 8.056 16.217 7.925 L 16.174 7.784 C 16.157 7.731 16.144 7.682 16.134 7.637 C 16.121 7.575 16.118 7.517 16.128 7.465 C 16.137 7.413 16.157 7.367 16.187 7.326 C 16.217 7.286 16.255 7.252 16.3 7.228 C 16.4 7.171 16.503 7.16 16.609 7.195 C 16.711 7.23 16.806 7.324 16.871 7.433 L 16.784 7.482 C 16.75 7.424 16.696 7.361 16.648 7.336 C 16.601 7.312 16.558 7.312 16.517 7.334 C 16.482 7.355 16.467 7.383 16.471 7.419 C 16.474 7.457 16.485 7.5 16.502 7.546 L 16.552 7.692 C 16.595 7.825 16.6 7.934 16.587 8.023 C 16.57 8.137 16.515 8.281 16.408 8.342 C 16.363 8.367 16.32 8.386 16.271 8.393 C 16.177 8.408 16.085 8.386 16 8.338 C 15.916 8.291 15.841 8.205 15.795 8.124 L 15.795 8.124 Z  M 16.153 8.808 C 16.153 8.808 16.171 8.74 16.13 8.708 C 16.102 8.687 16.068 8.674 16.061 8.645 C 16.052 8.617 16.072 8.589 16.093 8.583 C 16.119 8.575 16.407 8.496 16.407 8.496 C 16.407 8.496 16.445 8.484 16.459 8.531 C 16.47 8.573 16.415 8.6 16.415 8.6 C 16.172 8.773 16.254 8.979 16.254 8.979 L 16.16 9.005 C 16.16 9.005 16.131 8.916 16.153 8.808 Z  M 16.181 9.077 L 16.276 9.05 C 16.293 9.097 16.317 9.133 16.363 9.177 C 16.412 9.224 16.466 9.239 16.527 9.223 C 16.606 9.198 16.643 9.12 16.638 8.984 L 16.63 8.838 C 16.624 8.781 16.623 8.729 16.626 8.685 C 16.627 8.621 16.638 8.563 16.66 8.515 C 16.681 8.467 16.711 8.426 16.75 8.394 C 16.79 8.362 16.834 8.338 16.883 8.326 C 16.993 8.293 17.097 8.308 17.191 8.368 C 17.281 8.425 17.352 8.538 17.388 8.661 L 17.293 8.688 C 17.273 8.621 17.236 8.55 17.195 8.513 C 17.155 8.479 17.113 8.468 17.068 8.481 C 17.031 8.492 17.009 8.516 17.003 8.552 C 16.998 8.59 16.999 8.633 17.003 8.684 L 17.018 8.837 C 17.028 8.977 17.007 9.084 16.974 9.166 C 16.93 9.274 16.844 9.4 16.723 9.434 C 16.674 9.447 16.628 9.456 16.58 9.452 C 16.485 9.443 16.4 9.4 16.33 9.333 C 16.259 9.267 16.206 9.167 16.181 9.077 L 16.181 9.077 Z  M 16.956 9.491 C 17.611 9.476 17.603 10.056 17.603 10.056 L 17.506 10.058 C 17.506 10.058 17.506 9.951 17.398 9.953 L 16.531 9.973 C 16.423 9.976 16.428 10.084 16.428 10.084 L 16.331 10.086 C 16.331 10.086 16.299 9.506 16.956 9.491 L 16.956 9.491 Z  M 16.333 10.162 L 16.429 10.16 C 16.429 10.16 16.429 10.268 16.537 10.265 L 17.405 10.245 C 17.513 10.242 17.508 10.135 17.508 10.135 L 17.604 10.133 C 17.604 10.133 17.637 10.712 16.981 10.728 C 16.325 10.743 16.333 10.162 16.333 10.162" fill="rgb(255,255,255)"/><path d=" M 11.995 6.928 C 10.174 6.932 8.692 8.417 8.692 10.238 C 8.692 12.06 10.173 13.538 11.994 13.533 C 13.815 13.529 15.296 12.043 15.296 10.222 C 15.297 8.401 13.815 6.923 11.995 6.928 L 11.995 6.928 Z  M 12 13.322 C 10.293 13.327 8.909 11.946 8.909 10.238 C 8.91 8.53 10.294 7.142 12.001 7.138 C 13.708 7.134 15.092 8.515 15.092 10.223 C 15.092 11.93 13.708 13.319 12 13.322" fill="rgb(255,255,255)"/><path d=" M 12.001 6.511 C 9.946 6.516 8.283 8.186 8.282 10.24 C 8.282 12.294 9.946 13.955 12 13.949 C 14.053 13.945 15.719 12.276 15.72 10.221 C 15.719 8.167 14.054 6.506 12.001 6.511 Z  M 11.994 13.791 C 10.031 13.796 8.435 12.202 8.435 10.239 C 8.435 8.277 10.032 6.675 11.995 6.67 C 13.958 6.666 15.554 8.258 15.554 10.221 C 15.554 12.184 13.957 13.787 11.994 13.791" fill="rgb(255,255,255)"/><path d=" M 15.538 4.663 L 15.175 4.85 L 15.521 5.071 L 15.538 4.663 Z " fill="rgb(255,255,255)"/><path d=" M 14.675 4.2 L 14.344 4.441 L 14.719 4.606 L 14.675 4.2 Z " fill="rgb(255,255,255)"/><path d=" M 14.219 4.019 L 13.907 4.283 L 14.294 4.42 L 14.219 4.019 Z " fill="rgb(255,255,255)"/><path d=" M 15.115 4.416 L 14.767 4.63 L 15.129 4.823 L 15.115 4.416 Z " fill="rgb(255,255,255)"/><path d=" M 13.269 3.76 L 12.999 4.068 L 13.403 4.146 L 13.269 3.76 Z " fill="rgb(255,255,255)"/><path d=" M 13.751 3.873 L 13.459 4.159 L 13.855 4.266 L 13.751 3.873 Z " fill="rgb(255,255,255)"/><path d=" M 12.288 3.647 L 12.068 3.991 L 12.478 4.007 L 12.288 3.647 Z " fill="rgb(255,255,255)"/><path d=" M 12.78 3.685 L 12.535 4.013 L 12.943 4.06 L 12.78 3.685 Z " fill="rgb(255,255,255)"/><path d=" M 17.621 7.506 L 17.838 7.159 L 17.43 7.142 L 17.621 7.506 Z " fill="rgb(255,255,255)"/><path d=" M 18.082 8.818 L 18.37 8.529 L 17.977 8.421 L 18.082 8.818 Z " fill="rgb(255,255,255)"/><path d=" M 18.169 9.275 L 18.478 9.007 L 18.093 8.87 L 18.169 9.275 Z " fill="rgb(255,255,255)"/><path d=" M 17.961 8.369 L 18.228 8.059 L 17.827 7.982 L 17.961 8.369 Z " fill="rgb(255,255,255)"/><path d=" M 15.943 4.941 L 15.566 5.101 L 15.895 5.347 L 15.943 4.941 Z " fill="rgb(255,255,255)"/><path d=" M 18.22 9.736 L 18.549 9.493 L 18.175 9.328 L 18.22 9.736 Z " fill="rgb(255,255,255)"/><path d=" M 18.239 10.201 L 18.584 9.982 L 18.225 9.79 L 18.239 10.201 Z " fill="rgb(255,255,255)"/><path d=" M 16.247 5.649 L 16.325 5.249 L 15.938 5.381 L 16.247 5.649 Z " fill="rgb(255,255,255)"/><path d=" M 16.577 5.978 L 16.683 5.583 L 16.287 5.686 L 16.577 5.978 Z " fill="rgb(255,255,255)"/><path d=" M 17.403 7.095 L 17.594 6.734 L 17.186 6.747 L 17.403 7.095 Z " fill="rgb(255,255,255)"/><path d=" M 17.155 6.703 L 17.32 6.328 L 16.912 6.372 L 17.155 6.703 Z " fill="rgb(255,255,255)"/><path d=" M 17.808 7.931 L 18.049 7.602 L 17.644 7.555 L 17.808 7.931 Z " fill="rgb(255,255,255)"/><path d=" M 16.878 6.329 L 17.014 5.943 L 16.612 6.018 L 16.878 6.329 Z " fill="rgb(255,255,255)"/><path d=" M 15.908 15.086 L 16.295 15.218 L 16.221 14.817 L 15.908 15.086 Z " fill="rgb(255,255,255)"/><path d=" M 15.536 15.365 L 15.911 15.525 L 15.867 15.12 L 15.536 15.365 Z " fill="rgb(255,255,255)"/><path d=" M 16.26 14.78 L 16.655 14.883 L 16.551 14.489 L 16.26 14.78 Z " fill="rgb(255,255,255)"/><path d=" M 17.165 13.719 L 17.573 13.733 L 17.385 13.371 L 17.165 13.719 Z " fill="rgb(255,255,255)"/><path d=" M 16.89 14.095 L 17.296 14.139 L 17.134 13.764 L 16.89 14.095 Z " fill="rgb(255,255,255)"/><path d=" M 17.412 13.325 L 17.819 13.308 L 17.605 12.962 L 17.412 13.325 Z " fill="rgb(255,255,255)"/><path d=" M 17.628 12.912 L 18.033 12.865 L 17.793 12.536 L 17.628 12.912 Z " fill="rgb(255,255,255)"/><path d=" M 15.144 15.615 L 15.507 15.803 L 15.492 15.394 L 15.144 15.615 Z " fill="rgb(255,255,255)"/><path d=" M 15.08 16.05 L 15.097 15.642 L 14.734 15.836 L 15.08 16.05 Z " fill="rgb(255,255,255)"/><path d=" M 13.235 16.703 L 13.371 16.318 L 12.967 16.395 L 13.235 16.703 Z " fill="rgb(255,255,255)"/><path d=" M 12.26 16.816 L 12.452 16.455 L 12.042 16.472 L 12.26 16.816 Z " fill="rgb(255,255,255)"/><path d=" M 12.749 16.777 L 12.914 16.403 L 12.506 16.452 L 12.749 16.777 Z " fill="rgb(255,255,255)"/><path d=" M 13.713 16.592 L 13.82 16.198 L 13.423 16.306 L 13.713 16.592 Z " fill="rgb(255,255,255)"/><path d=" M 14.639 16.265 L 14.687 15.858 L 14.31 16.025 L 14.639 16.265 Z " fill="rgb(255,255,255)"/><path d=" M 14.182 16.446 L 14.259 16.045 L 13.872 16.182 L 14.182 16.446 Z " fill="rgb(255,255,255)"/><path d=" M 16.587 14.449 L 16.988 14.523 L 16.856 14.137 L 16.587 14.449 Z " fill="rgb(255,255,255)"/><path d=" M 18.172 11.133 L 18.546 10.967 L 18.219 10.723 L 18.172 11.133 Z " fill="rgb(255,255,255)"/><path d=" M 18.087 11.593 L 18.471 11.456 L 18.164 11.189 L 18.087 11.593 Z " fill="rgb(255,255,255)"/><path d=" M 18.222 10.667 L 18.583 10.475 L 18.239 10.256 L 18.222 10.667 Z " fill="rgb(255,255,255)"/><path d=" M 17.814 12.487 L 18.214 12.409 L 17.95 12.097 L 17.814 12.487 Z " fill="rgb(255,255,255)"/><path d=" M 17.966 12.047 L 18.36 11.939 L 18.074 11.649 L 17.966 12.047 Z " fill="rgb(255,255,255)"/><path d=" M 5.921 11.655 L 5.632 11.945 L 6.026 12.053 L 5.921 11.655 Z " fill="rgb(255,255,255)"/><path d=" M 8.456 5.104 L 8.081 4.944 L 8.127 5.35 L 8.456 5.104 Z " fill="rgb(255,255,255)"/><path d=" M 8.848 4.853 L 8.485 4.664 L 8.5 5.073 L 8.848 4.853 Z " fill="rgb(255,255,255)"/><path d=" M 7.733 5.689 L 7.338 5.587 L 7.443 5.981 L 7.733 5.689 Z " fill="rgb(255,255,255)"/><path d=" M 7.431 14.493 L 7.326 14.887 L 7.721 14.784 L 7.431 14.493 Z " fill="rgb(255,255,255)"/><path d=" M 8.91 4.418 L 8.894 4.825 L 9.256 4.632 L 8.91 4.418 Z " fill="rgb(255,255,255)"/><path d=" M 7.128 14.142 L 6.993 14.527 L 7.395 14.454 L 7.128 14.142 Z " fill="rgb(255,255,255)"/><path d=" M 7.76 14.821 L 7.685 15.223 L 8.071 15.089 L 7.76 14.821 Z " fill="rgb(255,255,255)"/><path d=" M 6.85 13.768 L 6.688 14.144 L 7.094 14.1 L 6.85 13.768 Z " fill="rgb(255,255,255)"/><path d=" M 9.352 4.202 L 9.305 4.608 L 9.682 4.441 L 9.352 4.202 Z " fill="rgb(255,255,255)"/><path d=" M 8.067 15.529 L 8.442 15.368 L 8.112 15.123 L 8.067 15.529 Z " fill="rgb(255,255,255)"/><path d=" M 6.383 12.967 L 6.167 13.314 L 6.576 13.33 L 6.383 12.967 Z " fill="rgb(255,255,255)"/><path d=" M 6.602 13.377 L 6.412 13.738 L 6.82 13.725 L 6.602 13.377 Z " fill="rgb(255,255,255)"/><path d=" M 5.78 10.737 L 5.452 10.981 L 5.826 11.146 L 5.78 10.737 Z " fill="rgb(255,255,255)"/><path d=" M 7.406 6.021 L 7.004 5.947 L 7.138 6.333 L 7.406 6.021 Z " fill="rgb(255,255,255)"/><path d=" M 5.776 9.805 L 5.417 9.998 L 5.761 10.217 L 5.776 9.805 Z " fill="rgb(255,255,255)"/><path d=" M 6.041 12.104 L 5.776 12.415 L 6.177 12.492 L 6.041 12.104 Z " fill="rgb(255,255,255)"/><path d=" M 5.834 11.199 L 5.525 11.467 L 5.908 11.602 L 5.834 11.199 Z " fill="rgb(255,255,255)"/><path d=" M 5.827 9.34 L 5.453 9.506 L 5.781 9.749 L 5.827 9.34 Z " fill="rgb(255,255,255)"/><path d=" M 6.196 12.542 L 5.956 12.871 L 6.36 12.918 L 6.196 12.542 Z " fill="rgb(255,255,255)"/><path d=" M 5.761 10.273 L 5.416 10.491 L 5.776 10.683 L 5.761 10.273 Z " fill="rgb(255,255,255)"/><path d=" M 6.83 6.752 L 6.422 6.738 L 6.61 7.1 L 6.83 6.752 Z " fill="rgb(255,255,255)"/><path d=" M 5.912 8.879 L 5.527 9.017 L 5.836 9.283 L 5.912 8.879 Z " fill="rgb(255,255,255)"/><path d=" M 7.104 6.375 L 6.699 6.332 L 6.86 6.707 L 7.104 6.375 Z " fill="rgb(255,255,255)"/><path d=" M 6.584 7.146 L 6.175 7.163 L 6.391 7.51 L 6.584 7.146 Z " fill="rgb(255,255,255)"/><path d=" M 6.368 7.56 L 5.963 7.606 L 6.203 7.936 L 6.368 7.56 Z " fill="rgb(255,255,255)"/><path d=" M 6.031 8.425 L 5.637 8.534 L 5.924 8.823 L 6.031 8.425 Z " fill="rgb(255,255,255)"/><path d=" M 6.182 7.986 L 5.782 8.064 L 6.047 8.374 L 6.182 7.986 Z " fill="rgb(255,255,255)"/><path d=" M 8.083 5.383 L 7.697 5.252 L 7.772 5.653 L 8.083 5.383 Z " fill="rgb(255,255,255)"/><path d=" M 11.731 3.647 L 11.538 4.008 L 11.95 3.991 L 11.731 3.647 Z " fill="rgb(255,255,255)"/><path d=" M 11.241 3.687 L 11.077 4.061 L 11.486 4.013 L 11.241 3.687 Z " fill="rgb(255,255,255)"/><path d=" M 9.336 16.268 L 9.666 16.027 L 9.29 15.862 L 9.336 16.268 Z " fill="rgb(255,255,255)"/><path d=" M 10.755 3.763 L 10.62 4.148 L 11.023 4.069 L 10.755 3.763 Z " fill="rgb(255,255,255)"/><path d=" M 10.276 3.874 L 10.171 4.267 L 10.568 4.159 L 10.276 3.874 Z " fill="rgb(255,255,255)"/><path d=" M 10.742 16.705 L 11.011 16.398 L 10.607 16.32 L 10.742 16.705 Z " fill="rgb(255,255,255)"/><path d=" M 11.231 16.779 L 11.476 16.452 L 11.068 16.405 L 11.231 16.779 Z " fill="rgb(255,255,255)"/><path d=" M 9.792 16.448 L 10.104 16.184 L 9.716 16.048 L 9.792 16.448 Z " fill="rgb(255,255,255)"/><path d=" M 10.26 16.594 L 10.551 16.307 L 10.155 16.199 L 10.26 16.594 Z " fill="rgb(255,255,255)"/><path d=" M 11.723 16.817 L 11.943 16.472 L 11.532 16.456 L 11.723 16.817 Z " fill="rgb(255,255,255)"/><path d=" M 9.808 4.02 L 9.732 4.422 L 10.119 4.283 L 9.808 4.02 Z " fill="rgb(255,255,255)"/><path d=" M 8.894 16.053 L 9.242 15.839 L 8.88 15.645 L 8.894 16.053 Z " fill="rgb(255,255,255)"/><path d=" M 8.471 15.806 L 8.832 15.618 L 8.485 15.397 L 8.471 15.806 Z " fill="rgb(255,255,255)"/><path d=" M 13.288 7.758 C 13.311 7.848 13.282 7.926 13.254 8.003 C 13.174 8.174 13.259 8.304 13.436 8.351 L 13.719 7.949 C 13.76 7.761 13.549 7.72 13.434 7.624 C 13.266 7.574 13.111 7.428 12.926 7.471 C 12.759 7.571 12.743 7.799 12.675 7.97 C 12.909 8.136 13.077 7.799 13.288 7.758 L 13.288 7.758 Z  M 13.537 7.957 C 13.523 8 13.497 7.983 13.466 7.985 C 13.436 7.974 13.44 7.946 13.431 7.925 C 13.449 7.841 13.591 7.896 13.537 7.957 L 13.537 7.957 Z  M 12.959 7.672 C 12.971 7.597 13.079 7.623 13.066 7.689 C 13.049 7.738 13.012 7.751 12.972 7.732 C 12.973 7.709 12.949 7.687 12.959 7.672 Z " fill="rgb(255,255,255)"/><path d=" M 13.577 8.442 C 13.711 8.656 13.946 8.408 14.118 8.371 L 14.155 8.395 C 14.144 8.595 13.778 8.803 14.041 8.982 C 14.189 8.855 14.498 8.869 14.494 8.614 C 14.386 8.381 14.181 8.218 13.994 8.039 C 13.766 8.023 13.661 8.29 13.577 8.442 L 13.577 8.442 Z  M 14.312 8.563 C 14.348 8.587 14.351 8.618 14.34 8.656 C 14.306 8.686 14.236 8.692 14.228 8.636 C 14.219 8.592 14.279 8.557 14.312 8.563 L 14.312 8.563 Z  M 14.003 8.275 C 13.992 8.304 13.967 8.318 13.937 8.32 C 13.911 8.303 13.882 8.278 13.897 8.243 C 13.908 8.205 13.951 8.196 13.975 8.204 C 13.981 8.229 14.03 8.246 14.003 8.275" fill="rgb(255,255,255)"/><path d=" M 12.161 7.496 L 12.226 7.478 C 12.23 7.563 12.304 7.655 12.268 7.743 C 12.24 7.924 12.418 7.921 12.528 7.925 C 12.552 7.727 12.804 7.511 12.615 7.323 C 12.361 7.247 12.099 7.218 11.824 7.254 C 11.636 7.408 11.701 7.672 11.745 7.901 C 11.986 7.938 12.011 7.605 12.161 7.496 Z  M 12.375 7.522 C 12.405 7.475 12.505 7.48 12.503 7.553 C 12.486 7.579 12.467 7.597 12.436 7.599 C 12.405 7.579 12.37 7.565 12.375 7.522 Z  M 11.997 7.455 C 11.972 7.492 11.942 7.494 11.904 7.484 C 11.885 7.479 11.888 7.452 11.884 7.434 C 11.892 7.343 12.003 7.4 11.997 7.455 Z " fill="rgb(255,255,255)"/><path d=" M 14.136 9.221 C 14.169 9.443 14.447 9.289 14.603 9.324 C 14.569 9.501 14.375 9.56 14.283 9.703 C 14.319 9.784 14.28 9.878 14.343 9.941 L 14.739 9.879 C 15.033 9.699 14.76 9.344 14.749 9.099 C 14.707 8.901 14.472 8.912 14.326 8.987 C 14.246 9.04 14.043 9.057 14.136 9.221 Z  M 14.656 9.676 C 14.64 9.711 14.607 9.749 14.568 9.73 C 14.563 9.705 14.543 9.677 14.54 9.661 C 14.554 9.626 14.592 9.614 14.622 9.625 C 14.649 9.628 14.646 9.656 14.656 9.676 L 14.656 9.676 Z  M 14.44 9.129 C 14.463 9.107 14.472 9.068 14.507 9.084 C 14.533 9.1 14.551 9.119 14.553 9.15 C 14.536 9.198 14.498 9.211 14.458 9.193 C 14.437 9.18 14.427 9.149 14.44 9.129" fill="rgb(255,255,255)"/><path d=" M 11.132 7.658 C 11.252 7.737 11.331 7.876 11.445 7.973 C 11.502 7.966 11.541 7.938 11.583 7.922 C 11.549 7.721 11.632 7.435 11.407 7.325 C 11.127 7.381 10.777 7.451 10.639 7.732 C 10.627 7.933 10.774 8.071 10.874 8.226 C 11.235 8.207 11.015 7.827 11.132 7.658 Z  M 11.279 7.547 C 11.305 7.482 11.418 7.526 11.377 7.587 C 11.352 7.594 11.338 7.615 11.307 7.616 C 11.258 7.601 11.275 7.574 11.279 7.547 L 11.279 7.547 Z  M 10.822 7.815 C 10.821 7.783 10.846 7.711 10.887 7.738 C 10.939 7.75 10.926 7.792 10.92 7.826 C 10.885 7.833 10.844 7.85 10.822 7.815 Z " fill="rgb(255,255,255)"/><path d=" M 14.334 10.1 C 14.366 10.165 14.324 10.219 14.337 10.279 C 14.465 10.355 14.632 10.404 14.722 10.507 C 14.571 10.557 14.432 10.623 14.268 10.657 C 14.253 10.759 14.177 10.865 14.217 10.965 C 14.392 11.004 14.546 11.119 14.736 11.087 C 14.9 10.994 14.895 10.797 14.935 10.646 C 14.945 10.481 14.945 10.288 14.912 10.133 C 14.775 9.934 14.51 10.08 14.334 10.1 Z  M 14.689 10.863 L 14.659 10.911 C 14.61 10.917 14.549 10.862 14.593 10.817 C 14.61 10.768 14.731 10.787 14.689 10.863 Z  M 14.797 10.289 C 14.782 10.346 14.737 10.324 14.703 10.317 C 14.665 10.285 14.675 10.202 14.742 10.201 C 14.773 10.221 14.815 10.249 14.797 10.289 Z " fill="rgb(255,255,255)"/><path d=" M 10.179 8.806 C 10.417 8.679 10.124 8.444 10.148 8.252 C 10.352 8.244 10.581 8.54 10.74 8.317 L 10.481 7.897 C 10.19 7.774 10.005 8.152 9.804 8.334 C 9.8 8.569 10.012 8.676 10.179 8.806 L 10.179 8.806 Z  M 10.418 8.108 C 10.394 8.144 10.363 8.147 10.324 8.136 C 10.306 8.132 10.309 8.105 10.305 8.087 C 10.334 8.031 10.42 8.035 10.418 8.108 Z  M 9.956 8.409 C 9.969 8.344 10.08 8.363 10.058 8.445 C 10.031 8.451 10.013 8.491 9.985 8.467 C 9.97 8.455 9.93 8.438 9.956 8.409 Z " fill="rgb(255,255,255)"/><path d=" M 14.173 11.108 C 14.122 11.164 14.113 11.232 14.087 11.296 C 14.172 11.404 14.306 11.484 14.361 11.615 C 14.168 11.675 13.889 11.487 13.792 11.751 C 13.871 11.868 14.044 11.922 14.144 12.031 C 14.251 12.07 14.387 12.01 14.44 11.904 C 14.503 11.692 14.803 11.493 14.631 11.279 L 14.173 11.108 Z  M 14.259 11.853 C 14.239 11.884 14.211 11.926 14.172 11.908 C 14.113 11.87 14.128 11.805 14.177 11.785 C 14.208 11.783 14.27 11.802 14.259 11.853 L 14.259 11.853 Z  M 14.535 11.484 C 14.499 11.527 14.47 11.492 14.434 11.469 C 14.404 11.435 14.445 11.373 14.492 11.38 C 14.538 11.388 14.542 11.451 14.535 11.484 Z " fill="rgb(255,255,255)"/><path d=" M 9.695 9.597 C 9.925 9.368 9.522 9.271 9.499 9.078 C 9.698 8.999 10.002 9.284 10.075 8.932 C 9.922 8.825 9.79 8.561 9.563 8.659 C 9.416 8.853 9.304 9.092 9.24 9.318 C 9.303 9.515 9.54 9.528 9.695 9.597 Z  M 9.705 8.817 C 9.726 8.854 9.727 8.863 9.723 8.904 L 9.64 8.917 C 9.609 8.874 9.654 8.807 9.705 8.817 L 9.705 8.817 Z  M 9.396 9.293 C 9.427 9.245 9.51 9.3 9.492 9.339 C 9.48 9.37 9.456 9.384 9.425 9.385 C 9.389 9.362 9.386 9.331 9.396 9.293 Z " fill="rgb(255,255,255)"/><path d=" M 13.667 11.877 C 13.474 12.003 13.674 12.244 13.69 12.388 C 13.534 12.39 13.402 12.216 13.241 12.238 C 13.202 12.263 13.151 12.32 13.17 12.37 C 13.29 12.514 13.275 12.846 13.548 12.778 C 13.729 12.636 13.908 12.499 14.05 12.303 C 14.065 12.096 13.836 11.993 13.667 11.877 L 13.667 11.877 Z  M 13.481 12.63 C 13.446 12.616 13.434 12.578 13.446 12.549 C 13.466 12.495 13.558 12.524 13.547 12.585 C 13.54 12.609 13.513 12.629 13.481 12.63 Z  M 13.923 12.257 C 13.908 12.292 13.87 12.304 13.842 12.293 C 13.803 12.261 13.835 12.2 13.878 12.191 C 13.895 12.21 13.947 12.221 13.923 12.257 Z " fill="rgb(255,255,255)"/><path d=" M 9.482 10.505 C 9.568 10.509 9.607 10.416 9.594 10.333 C 9.455 10.206 9.286 10.192 9.159 10.103 C 9.28 9.996 9.453 9.968 9.584 9.882 C 9.749 9.663 9.376 9.688 9.276 9.593 C 9.195 9.592 9.111 9.642 9.075 9.73 C 9.046 9.97 8.999 10.223 9.061 10.47 C 9.157 10.62 9.351 10.525 9.482 10.505 L 9.482 10.505 Z  M 9.277 9.749 C 9.304 9.767 9.32 9.786 9.323 9.816 C 9.291 9.832 9.27 9.908 9.225 9.864 C 9.197 9.817 9.22 9.749 9.277 9.749 Z  M 9.245 10.322 C 9.272 10.339 9.331 10.362 9.284 10.4 C 9.272 10.444 9.245 10.426 9.218 10.424 C 9.179 10.39 9.187 10.321 9.245 10.322" fill="rgb(255,255,255)"/><path d=" M 12.743 12.871 L 12.7 12.881 C 12.577 12.749 12.496 12.453 12.253 12.554 C 12.211 12.72 12.22 12.925 12.266 13.081 C 12.49 13.294 12.829 13.092 13.09 13.022 C 13.382 12.833 13.036 12.58 12.999 12.363 C 12.755 12.397 12.81 12.7 12.743 12.871 L 12.743 12.871 Z  M 12.48 12.968 C 12.455 12.96 12.403 12.985 12.4 12.932 C 12.395 12.884 12.451 12.854 12.492 12.871 C 12.519 12.898 12.51 12.944 12.48 12.968 Z  M 13.028 12.842 C 13.009 12.837 12.996 12.858 12.989 12.868 C 12.951 12.881 12.915 12.835 12.93 12.8 C 12.956 12.714 13.065 12.776 13.028 12.842" fill="rgb(255,255,255)"/><path d=" M 9.358 11.107 C 9.439 11.005 9.563 10.95 9.654 10.87 C 9.64 10.786 9.611 10.707 9.616 10.63 L 9.241 10.705 C 9.173 10.765 9.142 10.812 9.119 10.893 C 9.219 11.106 9.265 11.351 9.396 11.54 C 9.588 11.643 9.716 11.435 9.87 11.38 C 9.869 11.061 9.501 11.252 9.358 11.107 L 9.358 11.107 Z  M 9.287 10.861 C 9.299 10.788 9.408 10.813 9.395 10.879 C 9.383 10.909 9.365 10.926 9.333 10.928 C 9.304 10.917 9.29 10.893 9.287 10.861 Z  M 9.511 11.384 L 9.465 11.354 L 9.515 11.276 C 9.541 11.293 9.576 11.308 9.571 11.349 C 9.568 11.377 9.537 11.379 9.511 11.384 Z " fill="rgb(255,255,255)"/><path d=" M 11.707 12.927 C 11.605 12.809 11.656 12.515 11.427 12.515 C 11.376 12.683 11.238 12.83 11.284 13.009 C 11.46 13.182 11.758 13.168 11.992 13.15 C 12.149 12.999 12.097 12.749 12.064 12.572 C 11.853 12.555 11.877 12.837 11.707 12.927 L 11.707 12.927 Z  M 11.464 12.948 C 11.435 12.936 11.418 12.918 11.415 12.886 C 11.432 12.815 11.536 12.837 11.531 12.901 C 11.519 12.931 11.495 12.946 11.464 12.948 Z  M 11.908 13.006 C 11.871 12.996 11.857 12.959 11.869 12.928 C 11.889 12.875 11.984 12.899 11.974 12.96 C 11.956 12.976 11.942 13.035 11.908 13.006" fill="rgb(255,255,255)"/><path d=" M 9.931 12.047 C 9.903 12.036 9.844 12.058 9.854 11.997 L 10.02 11.66 C 9.981 11.539 9.877 11.493 9.782 11.595 C 9.683 11.679 9.53 11.72 9.563 11.875 C 9.718 12.057 9.876 12.271 10.07 12.404 C 10.246 12.362 10.307 12.165 10.43 12.044 C 10.307 11.824 10.089 12.046 9.931 12.047 L 9.931 12.047 Z  M 9.823 11.829 C 9.816 11.861 9.789 11.858 9.762 11.863 C 9.734 11.838 9.694 11.775 9.762 11.761 C 9.801 11.748 9.838 11.795 9.823 11.829 Z  M 10.166 12.177 C 10.163 12.205 10.127 12.204 10.107 12.213 C 10.08 12.195 10.062 12.177 10.061 12.146 C 10.071 12.071 10.205 12.106 10.166 12.177" fill="rgb(255,255,255)"/><path d=" M 10.69 12.658 C 10.639 12.543 10.718 12.41 10.736 12.28 L 10.522 12.141 L 10.308 12.448 C 10.262 12.736 10.674 12.818 10.859 12.968 L 10.966 12.964 C 11.195 12.919 11.177 12.662 11.268 12.498 C 11.052 12.329 10.89 12.624 10.69 12.658 L 10.69 12.658 Z  M 10.461 12.51 C 10.456 12.483 10.486 12.436 10.524 12.446 C 10.553 12.459 10.568 12.482 10.57 12.514 C 10.544 12.541 10.481 12.581 10.461 12.51 Z  M 10.987 12.747 C 10.974 12.768 10.954 12.8 10.928 12.781 C 10.902 12.765 10.885 12.747 10.882 12.716 C 10.911 12.66 11.009 12.68 10.987 12.747 Z " fill="rgb(255,255,255)"/><path d=" M 12.258 8.033 C 12.056 8.035 11.81 7.98 11.657 8.058 L 11.895 8.124 L 12.258 8.033" fill="rgb(255,255,255)"/><path d=" M 12.435 8.147 C 11.892 8.219 11.459 8.487 11.086 8.823 L 11.111 8.84 C 11.578 8.682 12.04 8.723 12.448 8.482 C 12.46 8.371 12.471 8.253 12.435 8.147" fill="rgb(255,255,255)"/><path d=" M 11.042 8.299 C 11.263 8.3 11.504 8.419 11.692 8.222 C 11.482 8.146 11.224 8.134 11.042 8.299 Z " fill="rgb(255,255,255)"/><path d=" M 11.695 10.99 C 11.893 11.082 12.406 11.226 12.575 11.172 C 12.575 11.172 12.584 10.619 12.608 10.359 C 12.928 10.344 12.989 10.355 13.295 10.294 C 13.383 10.283 13.434 10.224 13.398 10.114 C 13.208 9.71 12.958 9.478 12.649 9.266 C 12.366 9.156 12.468 8.874 12.431 8.701 L 12.229 8.762 L 12.254 8.78 C 12.375 8.844 12.381 9.04 12.366 9.156 C 12.364 9.318 12.107 9.337 12.214 9.502 C 12.195 9.542 12.16 9.564 12.115 9.564 C 11.734 9.318 11.308 9.234 10.919 9.034 C 10.721 9.225 10.56 9.528 10.528 9.796 C 10.535 10.402 10.591 11.091 10.995 11.561 C 11.334 12.055 11.961 12.401 12.548 12.375 C 12.59 11.875 12.516 11.838 12.577 11.343 C 12.108 11.292 11.905 11.281 11.556 11.071 C 11.53 11.031 11.494 11.001 11.544 10.958 C 11.582 10.923 11.661 10.975 11.695 10.99 L 11.695 10.99 Z  M 11.949 10.503 C 11.917 10.519 11.893 10.556 11.863 10.536 C 11.826 10.52 11.789 10.488 11.808 10.448 C 11.849 10.385 12.01 10.409 11.949 10.503 Z  M 12.052 10.307 C 12.019 10.323 11.996 10.359 11.965 10.338 C 11.93 10.324 11.892 10.291 11.911 10.251 C 11.951 10.189 12.113 10.212 12.052 10.307 L 12.052 10.307 Z  M 11.981 10.101 C 11.979 10.07 12.003 10.01 12.054 10.022 C 12.08 10.039 12.115 10.054 12.111 10.096 C 12.084 10.146 12.006 10.177 11.981 10.101 L 11.981 10.101 Z  M 12.103 9.913 C 12.093 9.95 12.055 9.964 12.026 9.952 C 11.988 9.942 11.988 9.883 11.997 9.859 C 12.028 9.79 12.144 9.85 12.103 9.913 Z  M 12.013 9.676 C 12.048 9.713 12.035 9.779 11.985 9.799 L 11.906 9.748 C 11.909 9.698 11.964 9.638 12.013 9.676 Z  M 11.809 9.58 C 11.818 9.542 11.855 9.53 11.885 9.542 C 11.923 9.551 11.925 9.605 11.917 9.629 C 11.908 9.667 11.849 9.666 11.825 9.658 C 11.819 9.632 11.769 9.606 11.809 9.58 L 11.809 9.58 Z  M 11.776 10.553 C 11.814 10.564 11.826 10.601 11.814 10.631 C 11.796 10.693 11.745 10.682 11.702 10.668 C 11.671 10.612 11.716 10.544 11.776 10.553 L 11.776 10.553 Z  M 11.678 9.474 C 11.726 9.491 11.746 9.539 11.733 9.583 C 11.706 9.634 11.623 9.602 11.61 9.556 C 11.59 9.507 11.657 9.504 11.678 9.474 Z  M 10.933 9.777 C 10.972 9.773 11.03 9.81 11.004 9.861 C 10.994 9.899 10.955 9.88 10.922 9.897 C 10.875 9.866 10.869 9.795 10.933 9.777 L 10.933 9.777 Z  M 10.814 9.982 C 10.87 9.885 10.985 10.026 10.879 10.077 C 10.846 10.047 10.768 10.041 10.814 9.982 Z  M 10.761 10.199 C 10.771 10.117 10.895 10.131 10.884 10.206 C 10.874 10.243 10.834 10.247 10.807 10.267 C 10.781 10.25 10.763 10.231 10.761 10.199 Z  M 10.844 10.483 C 10.805 10.473 10.804 10.42 10.815 10.391 L 10.861 10.354 L 10.927 10.412 C 10.919 10.458 10.897 10.482 10.844 10.483 L 10.844 10.483 Z  M 10.947 10.655 C 10.88 10.633 10.91 10.586 10.922 10.534 C 10.962 10.508 11.024 10.549 11.021 10.598 C 11.004 10.625 10.989 10.659 10.947 10.655 Z  M 11.057 9.746 C 11.028 9.742 11.032 9.715 11.023 9.695 C 11.042 9.596 11.172 9.636 11.134 9.706 C 11.123 9.745 11.086 9.758 11.057 9.746 L 11.057 9.746 Z  M 11.218 10.763 C 11.191 10.768 11.179 10.789 11.146 10.783 C 11.099 10.775 11.097 10.722 11.103 10.688 C 11.149 10.606 11.274 10.688 11.218 10.763 Z  M 11.207 9.651 C 11.186 9.637 11.193 9.605 11.184 9.584 C 11.198 9.504 11.37 9.526 11.3 9.622 C 11.29 9.66 11.231 9.659 11.207 9.651 Z  M 11.428 10.758 C 11.411 10.784 11.401 10.822 11.36 10.819 C 11.328 10.797 11.309 10.769 11.305 10.731 C 11.325 10.633 11.471 10.682 11.428 10.758 Z  M 11.452 9.468 C 11.498 9.476 11.518 9.503 11.523 9.552 C 11.51 9.595 11.469 9.59 11.436 9.607 C 11.371 9.571 11.398 9.493 11.452 9.468 L 11.452 9.468 Z  M 11.495 10.713 C 11.519 10.617 11.646 10.662 11.62 10.735 C 11.61 10.764 11.591 10.782 11.56 10.784 C 11.528 10.764 11.49 10.754 11.495 10.713" fill="rgb(255,255,255)"/><path d=" M 11.763 9.047 C 11.742 9.159 11.824 9.227 11.919 9.274 C 12.027 9.301 12.147 9.274 12.203 9.154 C 12.247 9.02 12.167 8.857 12.025 8.86 C 11.888 8.809 11.824 8.952 11.763 9.047" fill="rgb(255,255,255)"/><path d=" M 10.556 8.657 C 10.818 8.679 11.095 8.74 11.275 8.486 C 11.118 8.466 10.972 8.416 10.816 8.417 L 10.556 8.657 Z " fill="rgb(255,255,255)"/><path d=" M 11.16 8.983 L 11.628 9.174 C 11.585 9.058 11.631 8.954 11.709 8.856 L 11.16 8.983" fill="rgb(255,255,255)"/><path d=" M 10.164 9.102 L 10.657 9.131 C 10.714 9.02 10.8 8.942 10.875 8.85 C 10.729 8.815 10.572 8.816 10.422 8.786 C 10.335 8.885 10.19 8.984 10.164 9.102 Z " fill="rgb(255,255,255)"/><path d=" M 9.85 9.608 L 10.424 9.626 C 10.462 9.509 10.516 9.381 10.548 9.276 L 10.083 9.227 C 9.99 9.336 9.89 9.457 9.85 9.608" fill="rgb(255,255,255)"/><path d=" M 9.733 10.119 C 9.957 10.161 10.173 10.115 10.4 10.107 L 10.395 9.784 C 10.201 9.741 9.993 9.776 9.804 9.736 C 9.754 9.859 9.703 9.996 9.733 10.119 Z " fill="rgb(255,255,255)"/><path d=" M 9.739 10.658 C 9.95 10.698 10.227 10.647 10.451 10.621 L 10.418 10.297 C 10.191 10.246 9.938 10.282 9.714 10.285 L 9.739 10.658 Z " fill="rgb(255,255,255)"/><path d=" M 9.955 11.168 L 10.586 11.132 C 10.536 11.025 10.529 10.866 10.442 10.772 C 10.223 10.801 9.97 10.77 9.775 10.843 C 9.849 10.944 9.861 11.108 9.955 11.168" fill="rgb(255,255,255)"/><path d=" M 10.234 11.615 C 10.439 11.586 10.651 11.59 10.82 11.536 L 10.644 11.259 L 9.993 11.304 C 10.07 11.413 10.099 11.551 10.234 11.615 Z " fill="rgb(255,255,255)"/><path d=" M 11.069 11.891 C 11.033 11.526 10.581 11.722 10.335 11.756 C 10.503 12.079 10.821 11.863 11.069 11.891 Z " fill="rgb(255,255,255)"/><path d=" M 11.314 12.337 C 11.542 12.419 11.783 12.435 12.022 12.442 C 11.785 12.421 11.565 12.144 11.314 12.337 Z " fill="rgb(255,255,255)"/><path d=" M 11.402 12.166 C 11.263 11.867 10.947 12.057 10.729 12.063 L 10.875 12.158 C 11.024 12.337 11.211 12.197 11.402 12.166" fill="rgb(255,255,255)"/><path d=" M 13.06 8.288 C 12.967 8.24 12.872 8.198 12.776 8.161 C 12.717 8.156 12.658 8.159 12.598 8.168 C 12.6 8.216 12.601 8.266 12.6 8.316 C 12.746 8.349 12.907 8.294 13.06 8.288" fill="rgb(255,255,255)"/><path d=" M 12.592 8.477 C 12.587 8.508 12.582 8.538 12.575 8.568 C 12.59 8.609 12.593 8.652 12.591 8.696 C 12.823 8.713 13.407 8.662 13.582 8.647 C 13.486 8.56 13.381 8.48 13.27 8.409 C 13.119 8.418 12.824 8.45 12.592 8.477" fill="rgb(255,255,255)"/><path d=" M 12.579 8.819 C 12.565 8.934 12.557 9.045 12.657 9.119 L 13.947 9.089 C 13.88 8.977 13.8 8.872 13.712 8.777 C 13.55 8.797 12.946 8.804 12.579 8.819 Z " fill="rgb(255,255,255)"/><path d=" M 12.87 9.257 C 13.016 9.36 13.146 9.475 13.261 9.61 L 14.152 9.597 C 14.121 9.461 14.075 9.334 14.015 9.214 L 12.87 9.257 Z " fill="rgb(255,255,255)"/><path d=" M 14.194 9.938 C 14.192 9.867 14.185 9.8 14.176 9.734 C 14 9.746 13.672 9.747 13.368 9.749 C 13.43 9.84 13.488 9.939 13.539 10.049 C 13.546 10.071 13.552 10.096 13.557 10.122 C 13.793 10.127 14.026 10.127 14.185 10.121 L 14.194 9.938" fill="rgb(255,255,255)"/><path d=" M 14.169 10.479 L 14.178 10.271 C 14.023 10.268 13.793 10.263 13.556 10.261 C 13.543 10.316 13.512 10.361 13.455 10.374 C 13.133 10.514 13.069 10.451 12.73 10.484 C 12.731 10.532 12.733 10.579 12.733 10.625 C 13.044 10.646 13.771 10.671 14.13 10.659 C 14.145 10.599 14.158 10.539 14.169 10.479" fill="rgb(255,255,255)"/><path d=" M 14.091 10.804 C 13.738 10.774 13.031 10.785 12.734 10.774 C 12.733 10.902 12.73 11.02 12.725 11.133 L 13.958 11.157 C 14.01 11.042 14.054 10.924 14.091 10.804 Z " fill="rgb(255,255,255)"/><path d=" M 13.893 11.292 L 12.719 11.263 C 12.713 11.367 12.708 11.468 12.705 11.572 C 13.045 11.584 13.482 11.589 13.702 11.601 C 13.773 11.503 13.836 11.399 13.893 11.292" fill="rgb(255,255,255)"/><path d=" M 13.596 11.737 C 13.342 11.71 12.855 11.672 12.72 11.733 C 12.713 11.737 12.706 11.74 12.699 11.745 C 12.698 11.803 12.697 11.863 12.698 11.925 C 12.885 11.93 13.177 11.974 13.406 11.934 C 13.474 11.873 13.536 11.806 13.596 11.737" fill="rgb(255,255,255)"/><path d=" M 12.701 12.11 C 12.703 12.145 12.705 12.181 12.706 12.218 C 12.777 12.233 12.845 12.252 12.912 12.258 C 13.036 12.204 13.151 12.136 13.259 12.056 C 13.074 12.036 12.844 11.957 12.701 12.11 Z " fill="rgb(255,255,255)"/></g></g></g></svg>