<?xml version="1.0" encoding="UTF-8" standalone="no"?><!-- Generator: Gravit.io --><svg xmlns="http://www.w3.org/2000/svg" xmlns:xlink="http://www.w3.org/1999/xlink" style="isolation:isolate" viewBox="0 0 24 24" width="24pt" height="24pt"><defs><clipPath id="_clipPath_vId6zEYTtTjcsKqqKsVa7j6K9dkh9YZW"><rect width="24" height="24"/></clipPath></defs><g clip-path="url(#_clipPath_vId6zEYTtTjcsKqqKsVa7j6K9dkh9YZW)"><clipPath id="_clipPath_MvaPXHR926KnAPd6FYq1Ihx423whaifC"><rect x="2.769" y="0" width="18.462" height="24" transform="matrix(1,0,0,1,0,0)" fill="rgb(255,255,255)"/></clipPath><g clip-path="url(#_clipPath_MvaPXHR926KnAPd6FYq1Ihx423whaifC)"><g><g><g filter="url(#7Bhs6VsbBcJm0VgnW5bIn8hURS2BTEnG)"><ellipse vector-effect="non-scaling-stroke" cx="11.949859191712658" cy="22.707692307692305" rx="3" ry="0.9307692307692328" fill="rgb(162,162,162)" fill-opacity="0.7"/></g><defs><filter id="7Bhs6VsbBcJm0VgnW5bIn8hURS2BTEnG" x="-200%" y="-200%" width="400%" height="400%" filterUnits="objectBoundingBox" color-interpolation-filters="sRGB"><feGaussianBlur xmlns="http://www.w3.org/2000/svg" stdDeviation="4.293609062839028"/></filter></defs><g filter="url(#tvsNipmwfI2BZinMcs6IFslx4XD6MpDH)"><path d=" M 3.642 8.581 C 3.642 3.941 7.374 0.185 11.972 0.185 C 16.576 0.185 20.308 3.941 20.308 8.581 C 20.308 11.072 19.226 13.317 17.509 14.855 C 17.414 14.937 14.142 18.006 11.951 22.708 C 11.126 19.38 7.929 16.182 6.461 14.876 C 4.731 13.331 3.642 11.086 3.642 8.581 Z " fill="rgb(55,53,54)"/></g><defs><filter id="tvsNipmwfI2BZinMcs6IFslx4XD6MpDH" x="-200%" y="-200%" width="400%" height="400%" filterUnits="objectBoundingBox" color-interpolation-filters="sRGB"><feGaussianBlur xmlns="http://www.w3.org/2000/svg" stdDeviation="0"/></filter></defs></g><circle vector-effect="non-scaling-stroke" cx="11.953846153846154" cy="8.630769230769232" r="6.23076923076923" fill="rgb(239,65,56)"/><circle vector-effect="non-scaling-stroke" cx="11.976923076923075" cy="8.614229819435671" r="5.79230769230769" fill="rgb(255,255,255)"/><g><g><path d=" M 10.993 5.702 C 11.516 5.121 12.08 4.582 12.633 4.031 C 12.635 5.194 12.638 6.358 12.633 7.522 C 12.065 7.515 11.496 7.51 10.928 7.512 C 10.923 6.95 10.922 6.388 10.92 5.827 C 10.912 5.772 10.965 5.741 10.993 5.702 Z " fill="rgb(245,127,53)"/><path d=" M 13.006 7.862 C 14.148 7.875 15.289 7.871 16.431 7.876 C 15.949 8.362 15.468 8.848 14.985 9.334 C 14.883 9.429 14.773 9.55 14.62 9.542 C 14.074 9.554 13.528 9.547 12.982 9.543 C 12.977 8.982 12.964 8.421 13.006 7.862 Z " fill="rgb(245,127,53)"/></g><g><path d=" M 8.835 7.872 C 10.015 7.874 11.196 7.869 12.376 7.873 C 11.84 8.429 11.278 8.961 10.755 9.53 C 9.555 9.558 8.354 9.548 7.154 9.543 C 7.693 8.965 8.255 8.409 8.835 7.872 Z " fill="rgb(239,65,56)"/><path d=" M 10.913 9.836 C 11.474 9.248 12.053 8.677 12.628 8.103 C 12.638 9.291 12.635 10.478 12.642 11.666 C 12.074 12.243 11.507 12.821 10.927 13.386 C 10.921 12.203 10.93 11.02 10.913 9.836 Z " fill="rgb(239,65,56)"/></g></g></g></g></g></svg>