<?xml version="1.0" encoding="UTF-8" standalone="no"?><!-- Generator: Gravit.io --><svg xmlns="http://www.w3.org/2000/svg" xmlns:xlink="http://www.w3.org/1999/xlink" style="isolation:isolate" viewBox="0 0 400 520" width="400pt" height="520pt"><defs><clipPath id="_clipPath_BkoZWZjcS3pXZ5agPmkWd8aqh2cn19nk"><rect width="400" height="520"/></clipPath></defs><g clip-path="url(#_clipPath_BkoZWZjcS3pXZ5agPmkWd8aqh2cn19nk)"><g><defs><filter id="nyJIWckyI6mrkcAMd1yVp3r43uit935d" x="-200%" y="-200%" width="400%" height="400%" filterUnits="objectBoundingBox" color-interpolation-filters="sRGB"><feGaussianBlur xmlns="http://www.w3.org/2000/svg" stdDeviation="4.293609062839028"/></filter></defs><g filter="url(#nyJIWckyI6mrkcAMd1yVp3r43uit935d)"><ellipse vector-effect="non-scaling-stroke" cx="198.91361582044095" cy="491.99999999999994" rx="65" ry="20.166666666666686" fill="rgb(162,162,162)" fill-opacity="0.7"/></g><defs><filter id="ji6ChWOfSkEila209tumEVEkI8oi8SFc" x="-200%" y="-200%" width="400%" height="400%" filterUnits="objectBoundingBox" color-interpolation-filters="sRGB"><feGaussianBlur xmlns="http://www.w3.org/2000/svg" stdDeviation="0"/></filter></defs><g filter="url(#ji6ChWOfSkEila209tumEVEkI8oi8SFc)"><path d=" M 18.914 185.931 C 18.914 85.382 99.774 4 199.384 4 C 299.14 4 380 85.382 380 185.931 C 380 239.891 356.562 288.544 319.355 321.863 C 317.304 323.633 246.405 390.124 198.944 492 C 181.073 419.906 111.785 350.613 79.998 322.306 C 42.498 288.839 18.914 240.186 18.914 185.931 Z  M 311.005 185.931" fill="rgb(55,53,54)"/></g></g><circle vector-effect="non-scaling-stroke" cx="199" cy="186.99999999999997" r="135" fill="rgb(239,65,56)"/><circle vector-effect="non-scaling-stroke" cx="199.50000000000003" cy="186.64164608777287" r="125.49999999999997" fill="rgb(255,255,255)"/><g><g><path d=" M 178.176 123.539 C 189.505 110.965 201.734 99.266 213.725 87.337 C 213.76 112.546 213.822 137.764 213.725 162.973 C 201.407 162.822 189.081 162.725 176.763 162.752 C 176.675 150.576 176.64 138.408 176.596 126.241 C 176.428 125.066 177.576 124.378 178.176 123.539 Z " fill="rgb(245,127,53)"/><path d=" M 221.804 170.345 C 246.536 170.628 271.268 170.531 296 170.637 C 285.563 181.171 275.135 191.713 264.672 202.23 C 262.456 204.304 260.081 206.918 256.761 206.75 C 244.929 207.006 233.097 206.847 221.274 206.759 C 221.168 194.618 220.886 182.46 221.804 170.345 Z " fill="rgb(245,127,53)"/></g><g><path d=" M 131.423 170.566 C 157.002 170.593 182.573 170.504 208.153 170.584 C 196.533 182.636 184.366 194.15 173.02 206.477 C 147.016 207.086 121.004 206.865 95 206.768 C 106.673 194.247 118.849 182.186 131.423 170.566 Z " fill="rgb(239,65,56)"/><path d=" M 176.445 213.117 C 188.613 200.384 201.142 188.005 213.61 175.573 C 213.813 201.302 213.769 227.032 213.901 252.762 C 201.601 265.265 189.31 277.786 176.754 290.032 C 176.622 264.391 176.807 238.758 176.445 213.117 Z " fill="rgb(239,65,56)"/></g></g></g></svg>