<?xml version="1.0" encoding="UTF-8" standalone="no"?><!-- Generator: Gravit.io --><svg xmlns="http://www.w3.org/2000/svg" xmlns:xlink="http://www.w3.org/1999/xlink" style="isolation:isolate" viewBox="0 0 24 24" width="24pt" height="24pt"><defs><clipPath id="_clipPath_hfCrJWwjJl11RP4r2af7onEP2SCzqZ2M"><rect width="24" height="24"/></clipPath></defs><g clip-path="url(#_clipPath_hfCrJWwjJl11RP4r2af7onEP2SCzqZ2M)"><clipPath id="_clipPath_t1bV9scL3yDd2fFsokYFSL2cxRcfWSIQ"><rect x="2.98" y="1" width="18.04" height="22" transform="matrix(1,0,0,1,0,0)" fill="rgb(255,255,255)"/></clipPath><g clip-path="url(#_clipPath_t1bV9scL3yDd2fFsokYFSL2cxRcfWSIQ)"><g><path d=" M 18.219 16.551 C 19.896 14.836 21.02 12.588 21.02 10.02 C 21.02 5.042 16.978 1 12 1 C 7.022 1 2.98 5.042 2.98 10.02 C 2.98 12.62 4.007 14.787 5.844 16.61 L 5.844 16.61 L 11.633 23 L 18.23 16.551 L 18.219 16.551 Z " fill="rgb(0,0,0)"/></g></g><g clip-path="url(#_clipPath_DWoK7xuHx4X96D4FgtLxrcUHqwCM9sR5)"><text transform="matrix(1,0,0,1,5.652,10.253)" style="font-family:'Andika New Basic';font-weight:700;font-size:5px;font-style:normal;fill:#ffffff;stroke:none;">FACE</text></g><defs><clipPath id="_clipPath_DWoK7xuHx4X96D4FgtLxrcUHqwCM9sR5"><rect x="0" y="0" width="19" height="8.396" transform="matrix(1,0,0,1,3.6,4.149)"/></clipPath></defs><g clip-path="url(#_clipPath_g2MvzyTfaaBEdFi1AmiV42riIXxzKmhD)"><text transform="matrix(1,0,0,1,5.735,14.328)" style="font-family:'Be Vietnam';font-weight:700;font-size:5px;font-style:normal;fill:#ffffff;stroke:none;">GYM.</text></g><defs><clipPath id="_clipPath_g2MvzyTfaaBEdFi1AmiV42riIXxzKmhD"><rect x="0" y="0" width="16" height="7.305" transform="matrix(1,0,0,1,5,8.348)"/></clipPath></defs></g></svg>