<?xml version="1.0" encoding="UTF-8" standalone="no"?><!-- Generator: Gravit.io --><svg xmlns="http://www.w3.org/2000/svg" xmlns:xlink="http://www.w3.org/1999/xlink" style="isolation:isolate" viewBox="0 0 24 24" width="24pt" height="24pt"><defs><clipPath id="_clipPath_sPR4etzRvTP07qYDDvaTTSp93fb51hGP"><rect width="24" height="24"/></clipPath></defs><g clip-path="url(#_clipPath_sPR4etzRvTP07qYDDvaTTSp93fb51hGP)"><clipPath id="_clipPath_Q9GlmDXBwqtvjrvQ1gAQY9fFw6pd9vUI"><rect x="0" y="0" width="24" height="24" transform="matrix(1,0,0,1,0,0)" fill="rgb(255,255,255)"/></clipPath><g clip-path="url(#_clipPath_Q9GlmDXBwqtvjrvQ1gAQY9fFw6pd9vUI)"><g><clipPath id="_clipPath_yFmoiqV9VMLHQhZdBrrDvWmlKRJf6tKg"><rect x="0" y="0" width="24" height="24" transform="matrix(1,0,0,1,0,0)" fill="rgb(255,255,255)"/></clipPath><g clip-path="url(#_clipPath_yFmoiqV9VMLHQhZdBrrDvWmlKRJf6tKg)"><g><g><path d=" M 18.593 16.825 C 20.37 15.006 21.563 12.624 21.563 9.901 C 21.563 4.623 17.278 0.338 12 0.338 C 6.722 0.338 2.438 4.623 2.438 9.901 C 2.438 12.657 3.526 14.954 5.474 16.888 L 5.473 16.888 L 11.611 23.662 L 18.605 16.825 L 18.593 16.825 Z " fill="rgb(119,166,50)"/></g></g></g></g></g><g><g><path d=" M 5.736 10.951 C 5.323 10.951 4.971 10.637 4.971 10.178 C 4.971 9.733 5.326 9.402 5.755 9.402 C 5.927 9.402 6.055 9.452 6.158 9.557 C 6.215 9.468 6.295 9.418 6.398 9.418 C 6.57 9.418 6.647 9.521 6.647 9.736 L 6.647 10.617 C 6.647 10.831 6.567 10.937 6.398 10.937 C 6.286 10.937 6.212 10.89 6.158 10.784 C 6.055 10.893 5.908 10.951 5.736 10.951 Z  M 5.819 10.531 C 6.004 10.531 6.142 10.389 6.142 10.172 C 6.142 9.958 6.001 9.822 5.819 9.822 C 5.636 9.822 5.493 9.955 5.493 10.172 C 5.493 10.395 5.633 10.531 5.819 10.531 Z " fill="rgb(255,255,0)"/><path d=" M 13.516 10.512 C 13.708 10.512 13.848 10.367 13.848 10.139 C 13.848 9.917 13.701 9.772 13.516 9.772 C 13.33 9.772 13.183 9.911 13.183 10.139 C 13.183 10.37 13.324 10.512 13.516 10.512 Z  M 13.516 9.36 C 14.014 9.36 14.366 9.689 14.366 10.145 C 14.366 10.601 14.014 10.929 13.516 10.929 C 13.02 10.929 12.661 10.601 12.661 10.145 C 12.661 9.689 13.02 9.36 13.516 9.36 Z " fill="rgb(255,255,0)"/><path d=" M 15.67 10.512 C 15.862 10.512 16.003 10.367 16.003 10.139 C 16.003 9.917 15.855 9.772 15.67 9.772 C 15.484 9.772 15.337 9.911 15.337 10.139 C 15.337 10.37 15.478 10.512 15.67 10.512 Z  M 15.67 9.36 C 16.169 9.36 16.521 9.689 16.521 10.145 C 16.521 10.601 16.169 10.929 15.67 10.929 C 15.174 10.929 14.816 10.601 14.816 10.145 C 14.816 9.689 15.174 9.36 15.67 9.36 Z " fill="rgb(255,255,0)"/><path d=" M 17.826 10.503 C 18.014 10.503 18.155 10.362 18.155 10.136 C 18.155 9.905 18.014 9.764 17.826 9.764 C 17.637 9.764 17.493 9.908 17.493 10.136 C 17.493 10.359 17.637 10.503 17.826 10.503 Z  M 17.752 10.912 C 17.343 10.912 16.975 10.579 16.975 10.131 C 16.975 9.686 17.333 9.358 17.752 9.358 C 17.905 9.358 18.033 9.396 18.149 9.483 L 18.149 9.082 C 18.149 8.868 18.229 8.762 18.401 8.762 C 18.571 8.762 18.651 8.868 18.651 9.082 L 18.651 10.584 C 18.651 10.798 18.574 10.904 18.401 10.904 C 18.302 10.904 18.219 10.854 18.161 10.762 C 18.059 10.859 17.918 10.912 17.752 10.912" fill="rgb(255,255,0)"/><path d=" M 5.819 10.371 C 5.715 10.371 5.653 10.297 5.653 10.172 C 5.653 10.055 5.716 9.982 5.819 9.982 C 5.919 9.982 5.982 10.055 5.982 10.172 C 5.982 10.294 5.919 10.371 5.819 10.371 Z  M 5.819 9.661 C 5.537 9.661 5.332 9.876 5.332 10.172 C 5.332 10.473 5.537 10.691 5.819 10.691 C 6.099 10.691 6.302 10.473 6.302 10.172 C 6.302 9.876 6.099 9.661 5.819 9.661 Z " fill="rgb(255,255,0)"/><path d=" M 6.487 10.617 C 6.487 10.777 6.446 10.777 6.398 10.777 C 6.354 10.777 6.331 10.771 6.3 10.711 C 6.277 10.664 6.232 10.633 6.18 10.625 C 6.129 10.618 6.077 10.636 6.041 10.674 C 5.969 10.75 5.864 10.791 5.736 10.791 C 5.391 10.791 5.131 10.527 5.131 10.178 C 5.131 9.833 5.405 9.562 5.755 9.562 C 5.884 9.562 5.97 9.594 6.043 9.669 C 6.077 9.704 6.125 9.722 6.173 9.717 C 6.222 9.712 6.266 9.686 6.292 9.645 C 6.33 9.587 6.367 9.579 6.398 9.579 C 6.451 9.579 6.487 9.579 6.487 9.735 L 6.487 10.617 Z  M 6.398 9.258 C 6.303 9.258 6.218 9.29 6.144 9.344 C 6.035 9.277 5.907 9.241 5.755 9.241 C 5.4 9.241 5.098 9.427 4.936 9.706 C 4.94 9.685 4.941 9.666 4.941 9.652 C 4.941 9.523 4.862 9.379 4.657 9.323 C 4.888 9.244 4.89 9.076 4.89 9.015 C 4.89 8.826 4.737 8.635 4.397 8.635 C 3.989 8.635 3.74 8.89 3.716 9.317 C 3.446 9.379 3.411 9.565 3.411 9.652 C 3.411 9.796 3.508 9.94 3.715 9.985 L 3.715 10.617 C 3.715 11.051 4.004 11.097 4.128 11.097 C 4.251 11.097 4.538 11.051 4.538 10.617 L 4.538 9.999 C 4.711 9.985 4.81 9.926 4.866 9.859 C 4.831 9.958 4.811 10.065 4.811 10.178 C 4.811 10.701 5.217 11.111 5.736 11.111 C 5.884 11.111 6.02 11.072 6.134 11.004 C 6.206 11.063 6.293 11.097 6.398 11.097 C 6.521 11.097 6.807 11.051 6.807 10.617 L 6.807 9.735 C 6.807 9.305 6.521 9.258 6.398 9.258" fill="rgb(255,255,0)"/><path d=" M 10.351 9.219 C 10.152 9.219 9.995 9.269 9.848 9.375 C 9.712 9.272 9.542 9.219 9.34 9.219 C 9.191 9.219 9.065 9.252 8.956 9.314 C 8.882 9.257 8.795 9.225 8.697 9.225 C 8.607 9.225 8.432 9.25 8.341 9.427 C 8.267 9.321 8.137 9.25 7.989 9.25 C 7.876 9.25 7.767 9.284 7.664 9.346 C 7.59 9.29 7.505 9.258 7.407 9.258 C 7.283 9.258 6.994 9.305 6.994 9.735 L 6.994 10.617 C 6.994 11.051 7.283 11.097 7.407 11.097 C 7.531 11.097 7.82 11.051 7.82 10.617 L 7.82 10.161 C 7.82 10.102 7.823 10.082 7.825 10.075 C 7.83 10.071 7.843 10.062 7.878 10.048 L 8.015 10 C 8.102 9.973 8.205 9.94 8.284 9.878 L 8.284 10.584 C 8.284 11.018 8.573 11.064 8.697 11.064 C 8.821 11.064 9.11 11.018 9.11 10.584 L 9.11 10.084 C 9.11 9.916 9.147 9.916 9.202 9.916 C 9.234 9.916 9.269 9.916 9.269 10.089 L 9.269 10.584 C 9.269 11.018 9.558 11.064 9.682 11.064 C 9.806 11.064 10.095 11.018 10.095 10.584 L 10.095 10.084 C 10.095 9.916 10.132 9.916 10.187 9.916 C 10.22 9.916 10.257 9.916 10.257 10.089 L 10.257 10.584 C 10.257 11.018 10.544 11.064 10.667 11.064 C 10.791 11.064 11.08 11.018 11.08 10.584 L 11.08 9.956 C 11.08 9.501 10.801 9.219 10.351 9.219" fill="rgb(255,255,0)"/><path d=" M 12.589 9.619 C 12.589 9.49 12.509 9.346 12.305 9.29 C 12.536 9.211 12.538 9.043 12.538 8.982 C 12.538 8.793 12.385 8.602 12.045 8.602 C 11.637 8.602 11.388 8.857 11.364 9.284 C 11.094 9.346 11.059 9.532 11.059 9.619 C 11.059 9.763 11.156 9.907 11.363 9.952 L 11.363 10.584 C 11.363 11.018 11.652 11.064 11.776 11.064 C 11.899 11.064 12.186 11.018 12.186 10.584 L 12.186 9.965 C 12.558 9.936 12.589 9.696 12.589 9.619" fill="rgb(255,255,0)"/><path d=" M 13.516 10.769 C 13.107 10.769 12.822 10.512 12.822 10.145 C 12.822 9.777 13.107 9.521 13.516 9.521 C 13.922 9.521 14.206 9.777 14.206 10.145 C 14.206 10.512 13.922 10.769 13.516 10.769 Z  M 13.516 9.2 C 12.928 9.2 12.501 9.597 12.501 10.145 C 12.501 10.692 12.928 11.089 13.516 11.089 C 14.101 11.089 14.527 10.692 14.527 10.145 C 14.527 9.597 14.101 9.2 13.516 9.2" fill="rgb(255,255,0)"/><path d=" M 13.516 10.352 C 13.36 10.352 13.343 10.203 13.343 10.139 C 13.343 10.012 13.409 9.932 13.516 9.932 C 13.62 9.932 13.688 10.013 13.688 10.139 C 13.688 10.272 13.623 10.352 13.516 10.352 Z  M 13.516 9.612 C 13.23 9.612 13.023 9.833 13.023 10.139 C 13.023 10.453 13.225 10.672 13.516 10.672 C 13.801 10.672 14.008 10.448 14.008 10.139 C 14.008 9.838 13.797 9.612 13.516 9.612 Z " fill="rgb(255,255,0)"/><path d=" M 15.67 10.769 C 15.262 10.769 14.976 10.512 14.976 10.145 C 14.976 9.777 15.262 9.521 15.67 9.521 C 16.077 9.521 16.361 9.777 16.361 10.145 C 16.361 10.512 16.077 10.769 15.67 10.769 Z  M 15.67 9.2 C 15.082 9.2 14.656 9.597 14.656 10.145 C 14.656 10.692 15.082 11.089 15.67 11.089 C 16.256 11.089 16.681 10.692 16.681 10.145 C 16.681 9.597 16.256 9.2 15.67 9.2" fill="rgb(255,255,0)"/><path d=" M 15.67 10.352 C 15.514 10.352 15.498 10.203 15.498 10.139 C 15.498 10.012 15.564 9.932 15.67 9.932 C 15.775 9.932 15.842 10.013 15.842 10.139 C 15.842 10.272 15.778 10.352 15.67 10.352 Z  M 15.67 9.612 C 15.384 9.612 15.177 9.833 15.177 10.139 C 15.177 10.453 15.38 10.672 15.67 10.672 C 15.956 10.672 16.163 10.448 16.163 10.139 C 16.163 9.838 15.951 9.612 15.67 9.612 Z " fill="rgb(255,255,0)"/><path d=" M 18.49 10.584 C 18.49 10.744 18.453 10.744 18.401 10.744 C 18.375 10.744 18.335 10.737 18.297 10.677 C 18.272 10.636 18.229 10.609 18.181 10.603 C 18.134 10.597 18.086 10.613 18.051 10.646 C 17.978 10.715 17.875 10.752 17.752 10.752 C 17.412 10.752 17.135 10.473 17.135 10.131 C 17.135 9.787 17.406 9.518 17.752 9.518 C 17.874 9.518 17.967 9.547 18.052 9.611 C 18.101 9.647 18.166 9.653 18.22 9.626 C 18.275 9.599 18.309 9.543 18.309 9.483 L 18.309 9.082 C 18.309 8.923 18.35 8.923 18.401 8.923 C 18.449 8.923 18.49 8.923 18.49 9.082 L 18.49 10.584 Z  M 18.401 8.602 C 18.277 8.602 17.988 8.649 17.988 9.082 L 17.988 9.23 C 17.914 9.209 17.837 9.197 17.752 9.197 C 17.226 9.197 16.814 9.607 16.814 10.131 C 16.814 10.65 17.235 11.073 17.752 11.073 C 17.898 11.073 18.029 11.037 18.142 10.973 C 18.217 11.03 18.304 11.064 18.401 11.064 C 18.525 11.064 18.811 11.018 18.811 10.584 L 18.811 9.082 C 18.811 8.649 18.525 8.602 18.401 8.602" fill="rgb(255,255,0)"/><path d=" M 17.826 10.343 C 17.719 10.343 17.653 10.264 17.653 10.136 C 17.653 10.005 17.719 9.924 17.826 9.924 C 17.931 9.924 17.995 10.003 17.995 10.136 C 17.995 10.266 17.931 10.343 17.826 10.343 Z  M 17.826 9.603 C 17.54 9.603 17.332 9.827 17.332 10.136 C 17.332 10.442 17.54 10.664 17.826 10.664 C 18.109 10.664 18.315 10.442 18.315 10.136 C 18.315 9.827 18.109 9.603 17.826 9.603 Z " fill="rgb(255,255,0)"/><path d=" M 20.33 9.981 C 20.46 9.927 20.55 9.807 20.55 9.666 C 20.55 9.4 20.227 9.2 19.798 9.2 C 19.348 9.2 19.008 9.472 19.008 9.833 C 19.008 10.032 19.099 10.161 19.229 10.255 C 19.077 10.294 18.963 10.434 18.963 10.601 C 18.963 10.887 19.286 11.087 19.747 11.087 C 20.227 11.087 20.589 10.802 20.589 10.425 C 20.589 10.213 20.478 10.078 20.33 9.981" fill="rgb(255,255,0)"/><path d=" M 4.461 9.457 C 4.662 9.457 4.781 9.532 4.781 9.652 C 4.781 9.774 4.675 9.841 4.461 9.841 L 4.378 9.841 L 4.378 10.617 C 4.378 10.831 4.301 10.937 4.128 10.937 C 3.955 10.937 3.875 10.831 3.875 10.617 L 3.875 9.841 L 3.856 9.841 C 3.677 9.841 3.572 9.766 3.572 9.652 C 3.572 9.532 3.674 9.466 3.875 9.457 C 3.875 9.432 3.872 9.407 3.872 9.382 C 3.872 8.998 4.064 8.795 4.397 8.795 C 4.605 8.795 4.729 8.882 4.729 9.015 C 4.729 9.137 4.643 9.176 4.499 9.196 C 4.394 9.21 4.387 9.235 4.387 9.36 L 4.387 9.457" fill="rgb(255,0,0)"/><path d=" M 5.736 10.951 C 5.323 10.951 4.971 10.637 4.971 10.178 C 4.971 9.733 5.326 9.402 5.755 9.402 C 5.927 9.402 6.055 9.452 6.158 9.557 C 6.215 9.468 6.295 9.418 6.398 9.418 C 6.57 9.418 6.647 9.521 6.647 9.736 L 6.647 10.617 C 6.647 10.831 6.567 10.937 6.398 10.937 C 6.286 10.937 6.212 10.89 6.158 10.784 C 6.055 10.893 5.908 10.951 5.736 10.951 Z  M 5.819 10.531 C 6.004 10.531 6.142 10.389 6.142 10.172 C 6.142 9.958 6.001 9.822 5.819 9.822 C 5.636 9.822 5.493 9.955 5.493 10.172 C 5.493 10.395 5.633 10.531 5.819 10.531 Z " fill="rgb(255,0,0)"/><path d=" M 7.154 9.736 C 7.154 9.521 7.234 9.418 7.407 9.418 C 7.506 9.418 7.586 9.463 7.647 9.557 C 7.752 9.46 7.871 9.41 7.989 9.41 C 8.13 9.41 8.245 9.51 8.245 9.627 C 8.245 9.802 8.021 9.816 7.816 9.9 C 7.676 9.958 7.66 10.011 7.66 10.161 L 7.66 10.617 C 7.66 10.831 7.58 10.937 7.407 10.937 C 7.234 10.937 7.154 10.831 7.154 10.617" fill="rgb(255,0,0)"/><path d=" M 8.444 9.702 C 8.444 9.488 8.524 9.385 8.697 9.385 C 8.796 9.385 8.876 9.43 8.937 9.524 C 9.042 9.424 9.17 9.38 9.34 9.38 C 9.557 9.38 9.724 9.449 9.842 9.586 C 9.995 9.438 10.143 9.38 10.351 9.38 C 10.699 9.38 10.92 9.577 10.92 9.956 L 10.92 10.584 C 10.92 10.798 10.84 10.904 10.667 10.904 C 10.494 10.904 10.418 10.798 10.418 10.584 L 10.418 10.089 C 10.418 9.867 10.351 9.755 10.187 9.755 C 10.005 9.755 9.935 9.867 9.935 10.083 L 9.935 10.584 C 9.935 10.798 9.855 10.904 9.682 10.904 C 9.509 10.904 9.429 10.798 9.429 10.584 L 9.429 10.089 C 9.429 9.867 9.365 9.755 9.202 9.755 C 9.02 9.755 8.95 9.867 8.95 10.083 L 8.95 10.584 C 8.95 10.798 8.87 10.904 8.697 10.904 C 8.524 10.904 8.444 10.798 8.444 10.584" fill="rgb(255,0,0)"/><path d=" M 12.109 9.424 C 12.31 9.424 12.429 9.499 12.429 9.619 C 12.429 9.741 12.323 9.808 12.109 9.808 L 12.026 9.808 L 12.026 10.584 C 12.026 10.798 11.949 10.904 11.776 10.904 C 11.603 10.904 11.523 10.798 11.523 10.584 L 11.523 9.808 L 11.504 9.808 C 11.325 9.808 11.22 9.733 11.22 9.619 C 11.22 9.499 11.322 9.433 11.523 9.424 C 11.523 9.399 11.52 9.374 11.52 9.349 C 11.52 8.965 11.712 8.762 12.045 8.762 C 12.253 8.762 12.377 8.849 12.377 8.982 C 12.377 9.104 12.291 9.143 12.147 9.163 C 12.042 9.177 12.035 9.202 12.035 9.327 L 12.035 9.424" fill="rgb(255,0,0)"/><path d=" M 13.516 10.512 C 13.708 10.512 13.848 10.367 13.848 10.139 C 13.848 9.917 13.701 9.772 13.516 9.772 C 13.33 9.772 13.183 9.911 13.183 10.139 C 13.183 10.37 13.324 10.512 13.516 10.512 Z  M 13.516 9.36 C 14.014 9.36 14.366 9.689 14.366 10.145 C 14.366 10.601 14.014 10.929 13.516 10.929 C 13.02 10.929 12.661 10.601 12.661 10.145 C 12.661 9.689 13.02 9.36 13.516 9.36 Z " fill="rgb(255,0,0)"/><path d=" M 15.67 10.512 C 15.862 10.512 16.003 10.367 16.003 10.139 C 16.003 9.917 15.855 9.772 15.67 9.772 C 15.484 9.772 15.337 9.911 15.337 10.139 C 15.337 10.37 15.478 10.512 15.67 10.512 Z  M 15.67 9.36 C 16.169 9.36 16.521 9.689 16.521 10.145 C 16.521 10.601 16.169 10.929 15.67 10.929 C 15.174 10.929 14.816 10.601 14.816 10.145 C 14.816 9.689 15.174 9.36 15.67 9.36 Z " fill="rgb(255,0,0)"/><path d=" M 17.826 10.503 C 18.014 10.503 18.155 10.362 18.155 10.136 C 18.155 9.905 18.014 9.764 17.826 9.764 C 17.637 9.764 17.493 9.908 17.493 10.136 C 17.493 10.359 17.637 10.503 17.826 10.503 Z  M 17.752 10.912 C 17.343 10.912 16.975 10.579 16.975 10.131 C 16.975 9.686 17.333 9.358 17.752 9.358 C 17.905 9.358 18.033 9.396 18.149 9.483 L 18.149 9.082 C 18.149 8.868 18.229 8.762 18.401 8.762 C 18.571 8.762 18.651 8.868 18.651 9.082 L 18.651 10.584 C 18.651 10.798 18.574 10.904 18.401 10.904 C 18.302 10.904 18.219 10.854 18.161 10.762 C 18.059 10.859 17.918 10.912 17.752 10.912" fill="rgb(255,0,0)"/><path d=" M 19.123 10.601 C 19.123 10.49 19.21 10.403 19.315 10.403 C 19.472 10.403 19.626 10.531 19.782 10.531 C 19.869 10.531 19.923 10.49 19.923 10.442 C 19.923 10.373 19.83 10.345 19.648 10.281 C 19.338 10.17 19.168 10.067 19.168 9.833 C 19.168 9.572 19.424 9.36 19.798 9.36 C 20.15 9.36 20.39 9.513 20.39 9.666 C 20.39 9.769 20.297 9.85 20.182 9.85 C 20.061 9.85 19.914 9.744 19.776 9.744 C 19.702 9.744 19.661 9.777 19.661 9.819 C 19.661 9.903 19.798 9.919 20.009 10 C 20.288 10.109 20.428 10.225 20.428 10.425 C 20.428 10.704 20.15 10.926 19.747 10.926 C 19.373 10.926 19.123 10.779 19.123 10.601 Z " fill="rgb(255,0,0)"/></g></g></g></svg>