<?xml version="1.0" encoding="UTF-8" standalone="no"?><!-- Generator: Gravit.io --><svg xmlns="http://www.w3.org/2000/svg" xmlns:xlink="http://www.w3.org/1999/xlink" style="isolation:isolate" viewBox="0 0 24 24" width="24pt" height="24pt"><defs><clipPath id="_clipPath_rXNekPGdvi2SULjx4pOxJMgizgUncmV2"><rect width="24" height="24"/></clipPath></defs><g clip-path="url(#_clipPath_rXNekPGdvi2SULjx4pOxJMgizgUncmV2)"><clipPath id="_clipPath_kmmfyYLLYEDET6noVuhUmpEq0neDzBcA"><rect x="2.98" y="0.25" width="18.04" height="22" transform="matrix(1,0,0,1,0,0)" fill="rgb(255,255,255)"/></clipPath><g clip-path="url(#_clipPath_kmmfyYLLYEDET6noVuhUmpEq0neDzBcA)"><g><path d=" M 18.219 15.801 C 19.896 14.086 21.02 11.838 21.02 9.27 C 21.02 4.292 16.978 0.25 12 0.25 C 7.022 0.25 2.98 4.292 2.98 9.27 C 2.98 11.87 4.007 14.037 5.844 15.86 L 5.844 15.86 L 11.633 22.25 L 18.23 15.801 L 18.219 15.801 Z " fill="rgb(0,0,0)"/></g></g><path d=" M 6.834 9.08 L 6.975 9.313 C 6.827 9.494 6.618 9.599 6.356 9.644 L 6.282 9.75 L 6.268 9.923 L 6.45 10.637 L 6.76 11.284 C 6.847 11.442 7.318 11.878 8.173 12.608 L 8.543 13.051 L 8.812 13.081 C 9.021 12.886 9.202 12.773 9.377 12.75 L 9.411 11.825 L 9.222 10.442 L 9.283 8.057 L 9.471 7.764 C 9.418 8.17 9.418 8.479 9.458 8.667 L 9.458 13.081 L 9.626 13.375 L 9.727 11.269 C 9.781 10.148 9.788 9.426 9.768 9.11 L 9.727 8.584 L 9.788 8.193 L 10.07 7.779 L 9.963 8.96 L 9.788 13.698 L 9.673 14.653 L 10.037 14.653 L 10.198 11.795 C 10.245 10.238 10.292 9.231 10.34 8.787 C 10.36 8.524 10.434 8.14 10.541 7.644 L 10.609 7.539 L 10.642 7.644 L 10.649 7.945 L 10.467 12.946 L 10.366 13.728 L 10.393 14.653 L 10.763 14.653 L 11.248 7.915 L 11.551 7.779 L 11.147 14.653 L 11.692 14.653 L 12.082 7.915 L 12.244 7.681 L 12.412 7.877 L 12.129 14.653 L 12.587 14.653 L 12.688 11.359 L 13.018 11.517 L 12.944 14.653 L 13.415 14.653 L 13.415 12.51 L 13.542 11.562 C 13.61 11.562 13.684 11.509 13.751 11.389 L 13.583 14.653 L 13.886 14.653 L 14.202 9.223 C 14.215 8.674 14.148 8.133 13.993 7.614 L 14.242 7.854 L 14.417 9.396 L 14.061 14.653 L 14.336 14.653 L 14.35 14.435 L 14.754 14.315 C 15.003 14.074 15.985 13.42 17.721 12.344 L 18.609 11.337 L 18.535 10.968 L 17.876 9.915 L 17.062 9.133 L 16.846 8.832 L 15.851 8.042 L 14.585 7.403 C 14.37 7.283 14.067 7.17 13.677 7.042 L 13.576 6.967 L 13.152 6.794 C 12.836 6.696 12.87 6.606 13.246 6.493 C 13.448 6.418 13.549 6.335 13.563 6.23 C 13.563 6.147 13.529 6.057 13.468 5.974 L 13.482 5.839 L 13.616 5.583 C 13.576 5.433 13.563 5.29 13.563 5.147 L 13.738 5.042 L 13.791 4.914 L 13.751 4.794 L 13.489 4.545 C 13.495 4.387 13.482 4.199 13.421 4.004 L 13.341 3.703 C 13.327 3.628 13.388 3.447 13.516 3.154 L 13.374 2.688 L 13.267 2.575 L 12.876 2.59 C 12.755 2.47 12.553 2.402 12.257 2.372 L 11.712 2.5 L 11.248 2.545 L 10.985 2.786 L 10.636 2.996 C 10.514 3.274 10.4 3.432 10.265 3.477 L 10.091 4.019 L 10.461 5.531 L 10.79 6.057 L 10.959 6.23 L 10.959 6.553 L 10.878 6.553 L 10.461 6.922 L 9.222 7.117 L 7.708 7.982 L 5.515 9.577 L 5.32 9.945 L 5.306 10.562 L 5.697 11.412 L 6.356 12.164 C 7.224 12.765 8.092 13.352 8.96 13.931 L 9.155 14.179 L 9.014 14.623 L 9.498 14.623 C 9.572 14.42 9.606 14.209 9.599 13.991 C 9.599 13.826 9.559 13.668 9.471 13.518 L 8.879 13.518 L 8.509 13.322 C 8.294 13.134 8.025 12.946 7.722 12.75 C 7.433 12.562 7.143 12.337 6.84 12.096 C 6.302 11.622 5.925 11.171 5.717 10.742 L 5.643 10.411 L 5.656 10.035 L 5.75 9.832 L 6.12 9.434 L 6.74 9.043 L 6.834 9.08 Z  M 7.466 9.336 L 7.466 9.201 L 9.027 8.148 L 9.034 8.298 L 7.735 9.366 L 7.581 9.426 L 7.466 9.336 Z  M 7.264 8.734 L 7.231 8.614 L 9.115 7.486 L 9.021 7.681 L 7.762 8.501 L 7.264 8.734 Z  M 9.048 9.118 L 8.994 9.231 L 7.964 9.908 L 7.91 10.005 L 7.857 9.908 L 7.89 9.795 L 8.799 8.998 L 9.034 8.975 L 9.048 9.118 Z  M 8.9 9.795 C 8.92 10.141 8.947 10.472 8.987 10.795 L 9.182 12.54 L 9.034 12.585 L 8.832 12.6 C 8.529 12.314 8.247 11.998 7.984 11.645 C 7.769 11.329 7.574 10.998 7.412 10.637 L 7.46 10.547 C 7.722 10.351 7.998 10.178 8.274 10.005 C 8.455 9.908 8.651 9.81 8.852 9.727 L 8.9 9.795 Z  M 16.2 9.396 L 16.187 9.509 L 15.992 9.464 L 14.942 8.734 L 14.774 8.734 L 14.599 8.576 L 14.545 8.336 C 14.72 8.396 14.888 8.479 15.043 8.576 L 16.2 9.396 Z  M 16.47 9.05 L 16.2 8.952 L 15.077 8.08 C 14.747 7.922 14.572 7.847 14.538 7.847 L 14.518 7.666 L 14.875 7.719 L 16.557 8.99 L 16.47 9.05 Z  M 13.119 4.124 L 13.065 4.207 L 12.6 4.44 L 12.708 4.643 L 13.132 4.726 L 13.394 4.666 L 13.59 4.854 L 13.421 4.989 L 13.287 5.049 L 13.421 5.215 L 13.421 5.29 L 13.206 5.343 L 13.065 5.508 L 13.078 5.651 L 13.273 5.598 L 13.354 5.591 L 13.388 5.651 L 13.246 5.726 C 13.226 5.726 13.193 5.779 13.159 5.899 L 13.219 5.899 L 13.3 6.072 C 13.314 6.125 13.26 6.162 13.172 6.185 L 12.553 6.057 L 11.894 6.072 L 11.638 6.245 L 11.638 6.365 L 11.975 6.674 L 11.948 7.193 C 11.948 7.268 11.894 7.253 11.773 7.17 L 11.127 6.719 L 11.14 6.283 L 11.221 6.268 L 11.396 5.41 L 11.167 5.079 L 11.14 4.688 L 11.255 4.545 L 11.49 4.5 L 11.779 4.778 L 11.934 4.778 L 12.002 4.448 L 12.621 4.011 L 13.045 4.011 L 13.119 4.124 Z  M 11.705 8.035 C 11.705 7.982 11.732 7.952 11.786 7.952 C 11.833 7.952 11.86 7.982 11.86 8.035 C 11.86 8.103 11.84 8.125 11.786 8.125 C 11.732 8.125 11.705 8.103 11.705 8.035 Z  M 11.82 9.103 C 11.82 9.171 11.793 9.201 11.739 9.201 C 11.685 9.201 11.652 9.171 11.652 9.103 C 11.652 9.043 11.685 9.013 11.739 9.013 C 11.793 9.013 11.82 9.043 11.82 9.103 Z  M 12.89 7.885 L 12.944 7.869 L 13.159 8.373 L 13.172 8.719 L 13.132 9.501 L 12.775 9.501 L 12.89 7.885 Z  M 13.583 8.125 L 13.818 7.952 L 13.778 9.509 L 13.549 9.509 L 13.583 8.125 Z  M 15.83 9.862 L 15.911 10.028 L 15.77 10.141 L 15.056 9.735 L 14.68 9.058 L 15.83 9.862 Z  M 14.956 10.637 L 14.989 10.246 C 15.131 10.291 15.252 10.344 15.366 10.419 C 15.756 10.675 16.126 10.938 16.483 11.231 C 16.073 11.705 15.649 12.149 15.184 12.547 C 14.956 12.758 14.707 12.931 14.431 13.059 L 14.666 12.277 L 14.956 10.637 Z  M 14.633 10.223 L 14.626 9.659 C 14.626 9.562 14.659 9.539 14.727 9.607 C 14.754 9.659 14.781 9.772 14.787 9.96 L 14.686 11.006 L 14.532 11.735 L 14.633 10.223 Z  M 13.852 9.945 L 13.852 10.035 L 12.782 10.035 L 12.782 9.945 L 13.852 9.945 Z  M 13.852 9.682 L 13.852 9.795 L 12.782 9.795 L 12.782 9.682 L 13.852 9.682 L 14.431 13.781 L 14.437 13.239 L 14.962 13.172 L 16.84 11.261 L 16.221 10.554 L 16.624 9.908 L 16.786 9.923 L 17.58 11.073 L 17.533 11.306 C 17.116 11.743 16.678 12.149 16.2 12.517 C 15.622 12.976 15.043 13.405 14.431 13.781 L 13.852 9.682 Z  M 11.524 4.643 L 11.275 4.636 L 11.214 4.771 L 11.255 4.876 L 11.349 4.861 L 11.403 4.974 L 11.483 5.079 L 11.564 5.072 L 11.605 4.854 L 11.524 4.643 Z " fill="rgb(255,255,255)"/></g></svg>