<?xml version="1.0" encoding="UTF-8" standalone="no"?><!-- Generator: Gravit.io --><svg xmlns="http://www.w3.org/2000/svg" xmlns:xlink="http://www.w3.org/1999/xlink" style="isolation:isolate" viewBox="0 0 24 24" width="24pt" height="24pt"><defs><clipPath id="_clipPath_D7QS1awBBNaL00bCIr0JF9UbDYH1fC2o"><rect width="24" height="24"/></clipPath></defs><g clip-path="url(#_clipPath_D7QS1awBBNaL00bCIr0JF9UbDYH1fC2o)"><clipPath id="_clipPath_gZG72I3b9rWfDdRBTPDP1SG7zgANdebq"><rect x="2.98" y="1" width="18.04" height="22" transform="matrix(1,0,0,1,0,0)" fill="rgb(255,255,255)"/></clipPath><g clip-path="url(#_clipPath_gZG72I3b9rWfDdRBTPDP1SG7zgANdebq)"><g><path d=" M 18.219 16.551 C 19.896 14.836 21.02 12.588 21.02 10.02 C 21.02 5.042 16.978 1 12 1 C 7.022 1 2.98 5.042 2.98 10.02 C 2.98 12.62 4.007 14.787 5.844 16.61 L 5.844 16.61 L 11.633 23 L 18.23 16.551 L 18.219 16.551 Z " fill="rgb(184,21,34)"/></g></g><line x1="213" y1="229" x2="649" y2="229" vector-effect="non-scaling-stroke" stroke-width="10" stroke="rgb(0,0,0)" stroke-linejoin="miter" stroke-linecap="square" stroke-miterlimit="3"/><line x1="213" y1="92" x2="649" y2="92" vector-effect="non-scaling-stroke" stroke-width="10" stroke="rgb(0,0,0)" stroke-linejoin="miter" stroke-linecap="square" stroke-miterlimit="3"/><line x1="213" y1="367" x2="649" y2="367" vector-effect="non-scaling-stroke" stroke-width="10" stroke="rgb(0,0,0)" stroke-linejoin="miter" stroke-linecap="square" stroke-miterlimit="3"/><line x1="213" y1="511" x2="648" y2="511" vector-effect="non-scaling-stroke" stroke-width="10" stroke="rgb(0,0,0)" stroke-linejoin="miter" stroke-linecap="square" stroke-miterlimit="3"/><line x1="213" y1="92" x2="213" y2="511" vector-effect="non-scaling-stroke" stroke-width="10" stroke="rgb(0,0,0)" stroke-linejoin="miter" stroke-linecap="square" stroke-miterlimit="3"/><line x1="362" y1="91" x2="362" y2="511" vector-effect="non-scaling-stroke" stroke-width="10" stroke="rgb(0,0,0)" stroke-linejoin="miter" stroke-linecap="square" stroke-miterlimit="3"/><line x1="504" y1="91" x2="504" y2="511" vector-effect="non-scaling-stroke" stroke-width="10" stroke="rgb(0,0,0)" stroke-linejoin="miter" stroke-linecap="square" stroke-miterlimit="3"/><line x1="649" y1="90" x2="648" y2="507" vector-effect="non-scaling-stroke" stroke-width="10" stroke="rgb(0,0,0)" stroke-linejoin="miter" stroke-linecap="square" stroke-miterlimit="3"/><rect x="0" y="0" width="24" height="24" transform="matrix(1,0,0,1,0,0)" fill="none"/><path d=" M 19.563 10.258 C 19.512 10.141 19.403 10.034 19.272 10.034 C 19.144 10.034 19.008 10.138 19.008 10.277 C 19.008 10.477 19.253 10.553 19.504 10.66 C 19.755 10.766 20 10.922 20 11.287 C 20 11.702 19.672 12 19.277 12 C 18.917 12 18.635 11.79 18.523 11.446 L 18.845 11.307 C 18.936 11.511 19.04 11.656 19.283 11.656 C 19.477 11.656 19.629 11.522 19.629 11.32 C 19.629 10.832 18.664 10.998 18.664 10.31 C 18.664 9.942 18.955 9.69 19.301 9.69 C 19.547 9.69 19.773 9.868 19.869 10.095 L 19.563 10.258 Z  M 17.973 8.492 L 17.456 9.68 L 17.211 9.581 L 17.637 8.366 L 17.973 8.492 Z  M 15.371 11.577 L 16.947 11.577 L 16.947 11.94 L 14.989 11.94 L 14.989 8.427 L 15.371 8.427 L 15.371 11.577 Z  M 13.195 11.94 L 12.813 11.94 L 12.813 8.427 L 13.195 8.427 L 13.195 11.94 Z  M 9.352 10.578 L 9.939 9.172 L 10.512 10.578 L 9.352 10.578 Z  M 9.949 8.26 L 8.365 11.94 L 8.784 11.94 L 9.197 10.944 L 10.661 10.944 L 11.067 11.94 L 11.491 11.94 L 9.949 8.26 Z  M 7.389 10.174 C 7.397 10.649 7.349 11.039 7.035 11.413 C 6.72 11.787 6.243 12 5.765 12 C 4.8 12 4 11.181 4 10.193 C 4 9.188 4.8 8.366 5.787 8.366 C 6.387 8.366 6.875 8.642 7.237 9.125 L 6.96 9.39 C 6.675 8.975 6.285 8.73 5.781 8.73 C 5 8.73 4.381 9.404 4.381 10.196 C 4.381 10.57 4.528 10.922 4.781 11.186 C 5.032 11.443 5.395 11.634 5.755 11.634 C 6.349 11.634 6.979 11.186 6.979 10.534 L 5.747 10.534 L 5.747 10.171 L 7.389 10.171 L 7.389 10.174 Z " fill="rgb(255,255,255)" vector-effect="non-scaling-stroke" stroke-width="0.2" stroke="rgb(255,255,255)" stroke-linejoin="miter" stroke-linecap="butt" stroke-miterlimit="4"/></g></svg>