<?xml version="1.0" encoding="UTF-8" standalone="no"?>
<!-- Generator: Gravit.io -->

<svg
   style="isolation:isolate"
   viewBox="0 0 24 24"
   width="24pt"
   height="24pt"
   version="1.1"
   id="svg9415"
   xmlns="http://www.w3.org/2000/svg"
   xmlns:svg="http://www.w3.org/2000/svg">
  <defs
     id="defs9382">
    <clipPath
       id="_clipPath_D7QS1awBBNaL00bCIr0JF9UbDYH1fC2o">
      <rect
         width="24"
         height="24"
         id="rect9379" />
    </clipPath>
  </defs>
  <g
     clip-path="url(#_clipPath_D7QS1awBBNaL00bCIr0JF9UbDYH1fC2o)"
     id="g9413">
    <clipPath
       id="_clipPath_gZG72I3b9rWfDdRBTPDP1SG7zgANdebq">
      <rect
         x="2.98"
         y="1"
         width="18.04"
         height="22"
         transform="matrix(1,0,0,1,0,0)"
         fill="rgb(255,255,255)"
         id="rect9384" />
    </clipPath>
    <g
       clip-path="url(#_clipPath_gZG72I3b9rWfDdRBTPDP1SG7zgANdebq)"
       id="g9391">
      <g
         id="g9389"
         style="fill:#003d55;fill-opacity:1">
        <path
           d=" M 18.219 16.551 C 19.896 14.836 21.02 12.588 21.02 10.02 C 21.02 5.042 16.978 1 12 1 C 7.022 1 2.98 5.042 2.98 10.02 C 2.98 12.62 4.007 14.787 5.844 16.61 L 5.844 16.61 L 11.633 23 L 18.23 16.551 L 18.219 16.551 Z "
           fill="rgb(184,21,34)"
           id="path9387"
           style="fill:#003d55;fill-opacity:1" />
      </g>
    </g>
    <rect
       x="0"
       y="0"
       width="24"
       height="24"
       transform="matrix(1,0,0,1,0,0)"
       fill="none"
       id="rect9409" />
  </g>
  <path
     style="isolation:isolate;fill:#ffffff;fill-opacity:1;stroke-width:0.750545"
     id="path9955"
     d="M 20.368553,9.8402293 A 8.2965937,8.2845688 0 0 1 12.276422,18.177848 8.2965937,8.2845688 0 0 1 3.7830583,10.248125 8.2965937,8.2845688 0 0 1 11.570844,1.6263591 8.2965937,8.2845688 0 0 1 20.343269,9.2471368" />
  <path
     style="isolation:isolate;fill:#003d55;fill-opacity:1;stroke-width:0.71081"
     id="path9955-4"
     d="m 19.911648,9.854995 a 7.8276558,7.875751 0 0 1 -7.634749,7.926183 7.8276558,7.875751 0 0 1 -8.0133042,-7.538415 7.8276558,7.875751 0 0 1 7.3476072,-8.1963092 7.8276558,7.875751 0 0 1 8.276592,7.244716" />
  <text
     xml:space="preserve"
     style="font-weight:bold;font-size:6px;font-family:'Mark SC Offc';-inkscape-font-specification:'Mark SC Offc Bold';fill:#003d55;fill-opacity:1;stroke-width:0.75"
     x="5.5070138"
     y="12.048097"
     id="text9901"><tspan
       id="tspan9899"
       style="font-size:6px;fill:#ffffff;stroke-width:0.75"
       x="5.5070138"
       y="12.048097">GEO</tspan></text>
</svg>
