<?xml version="1.0" encoding="UTF-8" standalone="no"?><!-- Generator: Gravit.io --><svg xmlns="http://www.w3.org/2000/svg" xmlns:xlink="http://www.w3.org/1999/xlink" style="isolation:isolate" viewBox="0 0 24 24" width="24pt" height="24pt"><defs><clipPath id="_clipPath_MgjMDaU3sAueAd17xeZSVAJT8vCemaVz"><rect width="24" height="24"/></clipPath></defs><g clip-path="url(#_clipPath_MgjMDaU3sAueAd17xeZSVAJT8vCemaVz)"><clipPath id="_clipPath_QIxyRRfZm1pA0APcCypr1gBd8OPWLm1G"><rect x="0" y="0" width="24" height="24" transform="matrix(1,0,0,1,0,0)" fill="rgb(255,255,255)"/></clipPath><g clip-path="url(#_clipPath_QIxyRRfZm1pA0APcCypr1gBd8OPWLm1G)"><g><clipPath id="_clipPath_pSlu0U7p4NVeSRnYaNfaLWC53AnkfHTc"><rect x="0" y="0" width="24" height="24" transform="matrix(1,0,0,1,0,0)" fill="rgb(255,255,255)"/></clipPath><g clip-path="url(#_clipPath_pSlu0U7p4NVeSRnYaNfaLWC53AnkfHTc)"><g><g><path d=" M 18.219 16.551 C 19.896 14.836 21.02 12.588 21.02 10.02 C 21.02 5.042 16.978 1 12 1 C 7.022 1 2.98 5.042 2.98 10.02 C 2.98 12.62 4.007 14.787 5.844 16.61 L 5.844 16.61 L 11.633 23 L 18.23 16.551 L 18.219 16.551 L 18.219 16.551 L 18.219 16.551 Z " fill="rgb(224,30,109)"/></g></g></g><clipPath id="_clipPath_svkdbuPPQUcV27sIlNT6iLilvp2fZoAF"><rect x="5" y="2" width="18" height="18" transform="matrix(1,0,0,1,0,0)" fill="rgb(255,255,255)"/></clipPath><g clip-path="url(#_clipPath_svkdbuPPQUcV27sIlNT6iLilvp2fZoAF)"><g><g clip-path="url(#_clipPath_Y2SxDoqJi2HnNfyKkrKZ2swr0OgDnpOC)"><text transform="matrix(1,0,0,1,5,12.4)" style="font-family:'Bilbo Swash Caps';font-weight:400;font-size:9px;font-style:normal;font-variant-ligatures:none;fill:#FFFFFF;stroke:none;">GS</text></g><defs><clipPath id="_clipPath_Y2SxDoqJi2HnNfyKkrKZ2swr0OgDnpOC"><rect x="0" y="0" width="14" height="11.25" transform="matrix(1,0,0,1,5,4.75)"/></clipPath></defs></g></g></g></g></g></svg>