<?xml version="1.0" encoding="UTF-8" standalone="no"?><!-- Generator: Gravit.io --><svg xmlns="http://www.w3.org/2000/svg" xmlns:xlink="http://www.w3.org/1999/xlink" style="isolation:isolate" viewBox="0 0 24 24" width="24pt" height="24pt"><defs><clipPath id="_clipPath_nmyMrmLL1RqYEUTZrWk2mo4Gl6s4Z45f"><rect width="24" height="24"/></clipPath></defs><g clip-path="url(#_clipPath_nmyMrmLL1RqYEUTZrWk2mo4Gl6s4Z45f)"><clipPath id="_clipPath_YwSOAaflGURe5NIsvFPIDMPJrpQKNiFM"><rect x="0" y="0" width="24" height="24" transform="matrix(1,0,0,1,0,0)" fill="rgb(255,255,255)"/></clipPath><g clip-path="url(#_clipPath_YwSOAaflGURe5NIsvFPIDMPJrpQKNiFM)"><g><path d=" M 18.219 16.551 C 19.896 14.836 21.02 12.588 21.02 10.02 C 21.02 5.042 16.978 1 12 1 C 7.022 1 2.98 5.042 2.98 10.02 C 2.98 12.62 4.007 14.787 5.844 16.61 L 5.844 16.61 L 11.633 23 L 18.23 16.551 L 18.219 16.551 L 18.219 16.551 Z " fill="rgb(224,30,109)"/></g></g><g clip-path="url(#_clipPath_7iKblWnNhX6ZGRFUAjQ3JVQ24Djagr9L)"><text transform="matrix(1,0,0,1,5,12.8)" style="font-family:'MonteCarlo';font-weight:400;font-size:9px;font-style:normal;fill:#ffffff;stroke:none;">GS</text></g><defs><clipPath id="_clipPath_7iKblWnNhX6ZGRFUAjQ3JVQ24Djagr9L"><rect x="0" y="0" width="18" height="18" transform="matrix(1,0,0,1,5,2)"/></clipPath></defs></g></svg>