<?xml version="1.0" encoding="UTF-8" standalone="no"?><!-- Generator: Gravit.io --><svg xmlns="http://www.w3.org/2000/svg" xmlns:xlink="http://www.w3.org/1999/xlink" style="isolation:isolate" viewBox="0 0 24 24" width="24pt" height="24pt"><defs><clipPath id="_clipPath_DT5ZOuAnPasL8KWegfs5asMPBEqekhco"><rect width="24" height="24"/></clipPath></defs><g clip-path="url(#_clipPath_DT5ZOuAnPasL8KWegfs5asMPBEqekhco)"><clipPath id="_clipPath_KSn8MB9Rde4XJuNFL9U8klV71zG3igAx"><rect x="0" y="0" width="24" height="24" transform="matrix(1,0,0,1,0,0)" fill="rgb(255,255,255)"/></clipPath><g clip-path="url(#_clipPath_KSn8MB9Rde4XJuNFL9U8klV71zG3igAx)"><g><path d=" M 18.593 16.825 C 20.37 15.006 21.563 12.624 21.563 9.901 C 21.563 4.623 17.278 0.338 12 0.338 C 6.722 0.338 2.438 4.623 2.438 9.901 C 2.438 12.657 3.526 14.954 5.474 16.888 L 5.473 16.888 L 11.611 23.662 L 18.605 16.825 L 18.593 16.825 L 18.593 16.825 Z " fill="rgb(90,17,3)"/></g></g><clipPath id="_clipPath_kGknjQqF7OQjqYkcmKP1fQuT21LtfrOA"><rect x="2.98" y="0.5" width="18.04" height="22" transform="matrix(1,0,0,1,0,0)" fill="rgb(255,255,255)"/></clipPath><g clip-path="url(#_clipPath_kGknjQqF7OQjqYkcmKP1fQuT21LtfrOA)"><g><circle vector-effect="non-scaling-stroke" cx="12" cy="9.499999999999996" r="7.000000000000002" fill="rgb(255,255,255)"/></g></g><g><path d=" M 8.795 9.05 C 8.616 9.095 8.443 9.148 8.266 9.181 C 8.097 9.211 7.923 9.2 7.76 9.148 C 7.342 9.019 7.11 8.653 7.171 8.206 C 7.187 8.084 7.228 7.964 7.256 7.843 C 7.26 7.823 7.263 7.794 7.252 7.78 C 6.994 7.44 6.961 7.061 7.054 6.662 C 7.16 6.208 7.392 5.816 7.688 5.462 C 8.434 4.571 9.375 3.968 10.503 3.697 C 12.622 3.189 14.508 3.658 16.101 5.153 C 17.11 6.1 17.703 7.284 17.933 8.643 C 17.979 8.916 17.984 9.196 18 9.473 C 18.007 9.598 17.908 9.676 17.789 9.653 C 17.702 9.637 17.655 9.569 17.65 9.462 C 17.641 9.271 17.638 9.079 17.616 8.889 C 17.479 7.724 17.036 6.687 16.267 5.798 C 15.394 4.789 14.293 4.144 12.973 3.931 C 11.195 3.645 9.614 4.085 8.288 5.331 C 7.931 5.667 7.642 6.055 7.467 6.518 C 7.372 6.769 7.322 7.027 7.397 7.295 C 7.41 7.342 7.43 7.387 7.446 7.43 C 7.567 7.27 7.678 7.108 7.804 6.959 C 8.164 6.533 8.583 6.178 9.095 5.942 C 9.292 5.851 9.498 5.789 9.716 5.772 C 9.887 5.756 10.059 5.782 10.218 5.845 C 10.537 5.976 10.711 6.289 10.658 6.641 C 10.605 6.992 10.42 7.271 10.169 7.508 C 9.762 7.893 9.267 8.09 8.717 8.155 C 8.325 8.201 7.941 8.168 7.568 8.013 C 7.515 8.194 7.491 8.371 7.561 8.548 C 7.642 8.75 7.809 8.831 8.012 8.839 C 8.425 8.855 8.774 8.7 9.07 8.418 C 9.09 8.399 9.108 8.377 9.129 8.359 C 9.191 8.304 9.258 8.298 9.326 8.338 C 9.394 8.378 9.429 8.447 9.409 8.524 C 9.394 8.578 9.373 8.63 9.349 8.68 C 9.224 8.94 9.098 9.199 8.973 9.459 C 8.965 9.474 8.957 9.489 8.943 9.516 L 9.03 9.516 Q 12.655 9.516 16.28 9.515 C 16.368 9.514 16.457 9.52 16.544 9.534 C 16.825 9.585 16.965 9.796 16.901 10.074 C 16.863 10.236 16.786 10.381 16.662 10.495 C 16.556 10.591 16.41 10.559 16.367 10.433 C 16.341 10.357 16.372 10.297 16.418 10.238 C 16.464 10.181 16.512 10.123 16.542 10.058 C 16.597 9.939 16.558 9.874 16.427 9.869 C 16.23 9.861 16.034 9.863 15.837 9.863 Q 12.32 9.863 8.802 9.861 C 8.75 9.861 8.722 9.879 8.694 9.921 C 8.465 10.27 8.205 10.594 7.875 10.856 C 7.642 11.04 7.388 11.182 7.091 11.237 C 6.871 11.28 6.643 11.256 6.437 11.168 C 6.08 11.018 5.915 10.647 6.043 10.283 C 6.151 9.978 6.371 9.784 6.667 9.668 C 6.96 9.555 7.267 9.524 7.577 9.519 C 7.877 9.515 8.177 9.516 8.478 9.518 C 8.526 9.518 8.552 9.503 8.574 9.462 C 8.647 9.321 8.724 9.182 8.795 9.05 Z  M 7.706 7.694 C 7.712 7.699 7.717 7.704 7.724 7.707 C 7.741 7.715 7.76 7.723 7.778 7.729 C 8.039 7.821 8.308 7.845 8.582 7.819 C 9.067 7.774 9.508 7.615 9.882 7.298 C 10.073 7.137 10.225 6.944 10.293 6.699 C 10.384 6.376 10.195 6.125 9.859 6.112 C 9.676 6.105 9.504 6.154 9.339 6.225 C 8.842 6.441 8.436 6.777 8.078 7.176 C 7.934 7.334 7.809 7.508 7.705 7.694 L 7.706 7.694 Z  M 8.309 9.877 L 8.302 9.851 C 7.945 9.864 7.587 9.871 7.23 9.893 C 7.033 9.904 6.841 9.96 6.668 10.055 C 6.528 10.133 6.421 10.242 6.368 10.396 C 6.301 10.594 6.389 10.783 6.583 10.859 C 6.846 10.961 7.097 10.918 7.339 10.795 C 7.754 10.585 8.042 10.242 8.309 9.877 L 8.309 9.877 Z " fill="rgb(0,0,0)"/><path d=" M 14.17 11.645 C 14.129 11.673 14.078 11.714 14.022 11.744 C 13.834 11.845 13.672 11.78 13.603 11.579 C 13.601 11.571 13.597 11.563 13.592 11.552 C 13.54 11.597 13.493 11.642 13.442 11.682 C 13.303 11.788 13.151 11.861 12.972 11.86 C 12.736 11.858 12.542 11.706 12.454 11.459 C 12.445 11.434 12.437 11.408 12.427 11.38 C 12.347 11.448 12.272 11.516 12.192 11.578 C 12.007 11.718 11.804 11.819 11.569 11.844 C 11.381 11.864 11.201 11.833 11.037 11.74 C 10.792 11.6 10.697 11.377 10.719 11.103 C 10.751 10.705 11.107 10.283 11.494 10.178 C 11.681 10.128 11.862 10.141 12.032 10.241 C 12.274 10.383 12.325 10.643 12.15 10.863 C 11.997 11.055 11.784 11.137 11.547 11.166 C 11.383 11.186 11.224 11.169 11.073 11.097 C 11.014 11.22 11.106 11.417 11.251 11.477 C 11.403 11.539 11.556 11.529 11.708 11.481 C 11.958 11.402 12.156 11.245 12.342 11.068 C 12.404 11.009 12.454 10.938 12.486 10.859 C 12.592 10.598 12.759 10.385 13.019 10.259 C 13.37 10.09 13.691 10.153 13.947 10.44 C 13.974 10.428 14 10.411 14.028 10.406 C 14.082 10.394 14.138 10.411 14.177 10.45 C 14.215 10.489 14.232 10.544 14.22 10.598 C 14.207 10.654 14.183 10.708 14.161 10.761 C 14.089 10.934 14.015 11.106 13.943 11.279 C 13.927 11.312 13.917 11.347 13.911 11.383 C 13.909 11.408 13.916 11.442 13.933 11.458 C 13.944 11.468 13.984 11.461 14.002 11.449 C 14.061 11.409 14.116 11.364 14.167 11.314 C 14.319 11.156 14.435 10.971 14.527 10.773 C 14.597 10.622 14.659 10.469 14.723 10.316 C 14.752 10.249 14.793 10.195 14.869 10.184 C 14.923 10.175 14.977 10.194 15.014 10.233 C 15.051 10.272 15.066 10.328 15.054 10.38 C 15.043 10.432 15.02 10.481 15 10.541 C 15.048 10.495 15.085 10.451 15.131 10.418 C 15.229 10.348 15.326 10.273 15.432 10.22 C 15.594 10.139 15.759 10.145 15.908 10.26 C 16.052 10.373 16.076 10.53 16.053 10.698 C 16.041 10.783 16.02 10.866 15.988 10.947 C 15.891 11.192 15.788 11.436 15.686 11.681 C 15.66 11.743 15.622 11.794 15.548 11.803 C 15.408 11.819 15.322 11.703 15.376 11.566 C 15.452 11.374 15.535 11.185 15.612 10.993 C 15.651 10.898 15.685 10.8 15.713 10.701 C 15.73 10.64 15.745 10.564 15.687 10.52 C 15.628 10.477 15.562 10.52 15.505 10.55 C 15.321 10.647 15.173 10.788 15.034 10.94 C 14.824 11.169 14.649 11.428 14.514 11.707 C 14.458 11.82 14.338 11.858 14.253 11.784 C 14.215 11.75 14.198 11.693 14.17 11.645 Z  M 13.386 10.505 C 13.144 10.505 12.858 10.741 12.776 11.035 C 12.745 11.146 12.742 11.256 12.779 11.365 C 12.822 11.496 12.915 11.555 13.049 11.522 C 13.126 11.503 13.2 11.471 13.267 11.428 C 13.434 11.323 13.55 11.168 13.669 11.014 C 13.755 10.903 13.742 10.796 13.695 10.684 C 13.646 10.566 13.554 10.503 13.386 10.505 L 13.386 10.505 Z  M 11.172 10.826 C 11.415 10.893 11.625 10.849 11.819 10.722 C 11.873 10.688 11.93 10.646 11.914 10.569 C 11.903 10.515 11.835 10.485 11.739 10.491 C 11.501 10.507 11.324 10.63 11.172 10.826 Z " fill="rgb(0,0,0)"/><path d=" M 12.657 8.173 C 12.77 8.131 12.87 8.06 12.947 7.967 C 13.04 7.858 13.124 7.741 13.209 7.624 C 13.248 7.571 13.282 7.516 13.355 7.509 C 13.48 7.498 13.571 7.605 13.537 7.728 C 13.524 7.776 13.502 7.822 13.495 7.878 C 13.553 7.818 13.608 7.754 13.67 7.698 C 13.757 7.62 13.855 7.558 13.972 7.53 C 14.236 7.467 14.459 7.659 14.415 7.926 C 14.395 8.042 14.348 8.157 14.297 8.264 C 14.245 8.371 14.168 8.391 14.078 8.349 C 13.988 8.306 13.961 8.225 13.999 8.119 C 14.017 8.068 14.043 8.02 14.058 7.969 C 14.066 7.939 14.058 7.904 14.058 7.872 C 14.028 7.877 13.992 7.873 13.968 7.889 C 13.894 7.936 13.823 7.99 13.757 8.049 C 13.433 8.352 13.178 8.708 12.974 9.101 C 12.929 9.187 12.866 9.223 12.788 9.207 C 12.666 9.183 12.612 9.084 12.66 8.962 C 12.728 8.787 12.802 8.615 12.873 8.442 C 12.88 8.425 12.886 8.408 12.891 8.397 C 12.793 8.421 12.696 8.444 12.6 8.472 C 12.583 8.477 12.569 8.505 12.559 8.525 C 12.45 8.756 12.293 8.947 12.071 9.079 C 11.843 9.215 11.601 9.251 11.352 9.149 C 11.261 9.111 11.181 9.045 11.099 8.994 C 11.018 9.048 10.934 9.122 10.836 9.166 C 10.544 9.3 10.212 9.091 10.211 8.772 C 10.213 8.66 10.235 8.55 10.277 8.447 C 10.481 7.924 10.694 7.404 10.904 6.883 Q 11.088 6.428 11.272 5.974 C 11.28 5.954 11.289 5.934 11.299 5.915 C 11.338 5.846 11.396 5.815 11.463 5.825 C 11.541 5.835 11.587 5.882 11.608 5.954 C 11.634 6.037 11.614 6.115 11.582 6.192 Q 11.093 7.37 10.607 8.548 C 10.582 8.608 10.566 8.671 10.561 8.735 C 10.554 8.822 10.614 8.876 10.702 8.872 C 10.819 8.867 10.902 8.798 10.975 8.716 C 10.983 8.707 10.983 8.688 10.982 8.674 C 10.945 8.129 11.358 7.6 11.895 7.52 C 12.01 7.505 12.127 7.513 12.24 7.543 C 12.499 7.612 12.653 7.829 12.657 8.1 C 12.657 8.121 12.657 8.143 12.657 8.173 Z  M 12.135 7.866 C 12.105 7.862 12.082 7.857 12.059 7.856 C 11.641 7.846 11.332 8.252 11.333 8.574 C 11.333 8.718 11.406 8.817 11.525 8.847 C 11.633 8.874 11.736 8.854 11.833 8.806 C 12.017 8.715 12.145 8.57 12.236 8.391 C 12.243 8.373 12.241 8.352 12.231 8.336 C 12.104 8.202 12.072 8.05 12.135 7.866 Z " fill="rgb(0,0,0)"/><path d=" M 11.969 15.5 C 10.574 15.484 9.323 15.055 8.224 14.196 C 8.167 14.151 8.122 14.101 8.127 14.024 C 8.129 13.96 8.167 13.902 8.226 13.876 C 8.291 13.846 8.353 13.854 8.409 13.896 C 8.524 13.981 8.635 14.07 8.753 14.15 Q 9.966 14.98 11.431 15.123 C 13.579 15.334 15.68 14.29 16.813 12.45 C 16.821 12.437 16.829 12.424 16.837 12.411 C 16.896 12.321 16.998 12.293 17.083 12.346 C 17.169 12.398 17.191 12.502 17.135 12.595 C 17.085 12.678 17.034 12.76 16.979 12.84 Q 15.517 14.947 12.989 15.413 C 12.652 15.473 12.311 15.503 11.969 15.5 L 11.969 15.5 Z " fill="rgb(0,0,0)"/><path d=" M 10.173 10.458 C 10.013 10.458 9.86 10.458 9.707 10.458 C 9.539 10.458 9.37 10.461 9.202 10.46 C 9.165 10.46 9.129 10.453 9.094 10.44 C 9.033 10.418 8.993 10.36 8.994 10.295 C 8.991 10.225 9.02 10.166 9.086 10.138 C 9.129 10.12 9.176 10.111 9.223 10.11 C 9.56 10.107 9.898 10.107 10.235 10.107 C 10.454 10.107 10.558 10.223 10.528 10.439 C 10.519 10.516 10.502 10.592 10.475 10.665 C 10.259 11.228 10.022 11.782 9.689 12.289 C 9.487 12.597 9.259 12.882 8.961 13.106 C 8.749 13.265 8.518 13.38 8.248 13.405 C 7.52 13.471 7.026 12.874 7.224 12.173 C 7.386 11.599 7.963 11.075 8.685 11.127 C 8.851 11.138 9.014 11.179 9.166 11.247 C 9.289 11.302 9.332 11.404 9.279 11.501 C 9.243 11.566 9.18 11.601 9.106 11.587 C 9.06 11.576 9.015 11.562 8.971 11.544 C 8.254 11.283 7.691 11.787 7.561 12.265 C 7.424 12.772 7.808 13.169 8.321 13.047 C 8.556 12.991 8.745 12.858 8.918 12.697 C 9.176 12.456 9.374 12.169 9.548 11.865 C 9.792 11.439 9.976 10.986 10.15 10.53 C 10.159 10.508 10.164 10.486 10.173 10.458 Z " fill="rgb(0,0,0)"/><path d=" M 16.717 7.796 C 16.742 7.789 16.769 7.783 16.795 7.779 C 16.919 7.772 17.004 7.874 16.973 7.995 C 16.963 8.03 16.951 8.065 16.936 8.098 Q 16.82 8.378 16.703 8.658 Q 16.69 8.691 16.678 8.725 C 16.654 8.799 16.654 8.864 16.72 8.924 C 16.786 8.984 16.79 9.075 16.739 9.146 C 16.693 9.211 16.612 9.232 16.531 9.2 C 16.45 9.17 16.387 9.107 16.359 9.026 C 16.351 9.005 16.344 8.982 16.334 8.953 C 16.184 9.102 16.01 9.196 15.803 9.212 C 15.59 9.228 15.407 9.159 15.263 8.998 C 15.225 9.029 15.191 9.061 15.153 9.089 C 14.965 9.23 14.764 9.242 14.587 9.127 C 14.422 9.019 14.353 8.83 14.407 8.608 C 14.429 8.517 14.466 8.428 14.501 8.341 Q 14.643 7.991 14.789 7.643 C 14.844 7.515 14.956 7.479 15.061 7.553 C 15.13 7.601 15.147 7.678 15.107 7.779 C 15.034 7.958 14.958 8.137 14.885 8.316 C 14.842 8.419 14.798 8.522 14.76 8.627 C 14.734 8.699 14.715 8.778 14.785 8.836 C 14.854 8.895 14.935 8.871 15.009 8.835 C 15.031 8.825 15.049 8.809 15.07 8.797 C 15.122 8.768 15.128 8.728 15.124 8.668 C 15.118 8.573 15.114 8.471 15.141 8.381 C 15.252 7.994 15.47 7.688 15.872 7.557 C 16.14 7.47 16.397 7.494 16.618 7.691 C 16.653 7.722 16.683 7.759 16.717 7.796 Z  M 16.166 7.86 C 15.957 7.86 15.727 7.995 15.593 8.198 C 15.509 8.327 15.454 8.465 15.473 8.623 C 15.494 8.796 15.612 8.891 15.784 8.859 C 15.864 8.843 15.941 8.815 16.013 8.776 C 16.175 8.688 16.291 8.55 16.407 8.409 C 16.501 8.295 16.496 8.179 16.45 8.054 C 16.404 7.93 16.301 7.86 16.166 7.86 Z " fill="rgb(0,0,0)"/><path d=" M 16.514 11.242 C 16.532 11.174 16.544 11.103 16.57 11.039 C 16.604 10.958 16.696 10.926 16.778 10.957 C 16.862 10.986 16.907 11.076 16.88 11.16 C 16.847 11.281 16.882 11.389 16.973 11.452 C 17.061 11.512 17.193 11.508 17.284 11.443 C 17.375 11.378 17.413 11.28 17.37 11.177 C 17.336 11.091 17.282 11.015 17.242 10.931 C 17.193 10.829 17.132 10.728 17.108 10.619 C 17.053 10.368 17.305 10.124 17.56 10.169 C 17.662 10.187 17.719 10.258 17.709 10.354 C 17.699 10.447 17.63 10.504 17.529 10.502 C 17.443 10.501 17.412 10.543 17.45 10.619 C 17.489 10.696 17.538 10.768 17.582 10.841 C 17.649 10.95 17.706 11.064 17.719 11.193 C 17.75 11.499 17.543 11.762 17.227 11.822 C 16.867 11.891 16.526 11.61 16.514 11.242 Z " fill="rgb(0,0,0)"/><path d=" M 15.421 6.996 C 15.41 7.079 15.382 7.163 15.313 7.229 C 15.259 7.28 15.196 7.275 15.132 7.248 C 15.068 7.221 15.025 7.179 15.028 7.107 C 15.03 7.015 15.067 6.928 15.132 6.863 C 15.185 6.812 15.248 6.813 15.312 6.84 C 15.376 6.867 15.42 6.912 15.421 6.996 Z " fill="rgb(0,0,0)"/></g></g></svg>