<?xml version="1.0" encoding="UTF-8" standalone="no"?><!-- Generator: Gravit.io --><svg xmlns="http://www.w3.org/2000/svg" xmlns:xlink="http://www.w3.org/1999/xlink" style="isolation:isolate" viewBox="0 0 400 520" width="400pt" height="520pt"><defs><clipPath id="_clipPath_8WgpkxQVKbC7tpeu5e6VnEP5en5DicZh"><rect width="400" height="520"/></clipPath></defs><g clip-path="url(#_clipPath_8WgpkxQVKbC7tpeu5e6VnEP5en5DicZh)"><g><defs><filter id="rGYCxFCHV3tLgNBpWEH5ljDjKGwXTf0z" x="-200%" y="-200%" width="400%" height="400%" filterUnits="objectBoundingBox" color-interpolation-filters="sRGB"><feGaussianBlur xmlns="http://www.w3.org/2000/svg" stdDeviation="4.293609062839028"/></filter></defs><g filter="url(#rGYCxFCHV3tLgNBpWEH5ljDjKGwXTf0z)"><ellipse vector-effect="non-scaling-stroke" cx="198.91361582044095" cy="491.99999999999994" rx="65" ry="20.166666666666686" fill="rgb(162,162,162)" fill-opacity="0.7"/></g><defs><filter id="KA1khBvbt1ShtA9PJQ6rz2wE00mjXJJM" x="-200%" y="-200%" width="400%" height="400%" filterUnits="objectBoundingBox" color-interpolation-filters="sRGB"><feGaussianBlur xmlns="http://www.w3.org/2000/svg" stdDeviation="0"/></filter></defs><g filter="url(#KA1khBvbt1ShtA9PJQ6rz2wE00mjXJJM)"><path d=" M 18.914 185.931 C 18.914 85.382 99.774 4 199.384 4 C 299.14 4 380 85.382 380 185.931 C 380 239.891 356.562 288.544 319.355 321.863 C 317.304 323.633 246.405 390.124 198.944 492 C 181.073 419.906 111.785 350.613 79.998 322.306 C 42.498 288.839 18.914 240.186 18.914 185.931 Z  M 311.005 185.931" fill="rgb(109,76,65)"/></g></g><circle vector-effect="non-scaling-stroke" cx="199" cy="186.99999999999997" r="135" fill="rgb(255,255,255)"/><circle vector-effect="non-scaling-stroke" cx="199.4999999999999" cy="187.02360550594372" r="120.11804058182908" fill="rgb(96,125,139)"/><g><path d=" M 165.222 242.705 C 157.571 242.705 151.38 248.965 151.38 256.616 C 151.38 264.267 157.571 270.527 165.222 270.527 C 172.873 270.527 179.133 264.267 179.133 256.616 C 179.133 248.965 172.873 242.705 165.222 242.705 Z  M 123.488 131.415 L 123.488 145.327 L 137.4 145.327 L 162.44 198.12 L 153.05 215.161 C 151.937 217.108 151.311 219.404 151.311 221.838 C 151.311 229.489 157.571 235.749 165.222 235.749 L 248.689 235.749 L 248.689 221.838 L 168.143 221.838 C 167.17 221.838 166.404 221.073 166.404 220.099 L 166.613 219.265 L 172.873 207.927 L 224.692 207.927 C 229.909 207.927 234.5 205.075 236.865 200.763 L 261.766 155.621 C 262.322 154.647 262.6 153.465 262.6 152.282 C 262.6 148.457 259.47 145.327 255.645 145.327 L 152.772 145.327 L 146.233 131.415 L 123.488 131.415 Z  M 234.778 242.705 C 227.127 242.705 220.936 248.965 220.936 256.616 C 220.936 264.267 227.127 270.527 234.778 270.527 C 242.429 270.527 248.689 264.267 248.689 256.616 C 248.689 248.965 242.429 242.705 234.778 242.705 Z " fill="rgb(255,255,255)"/></g></g></svg>