<?xml version="1.0" encoding="UTF-8" standalone="no"?><!-- Generator: Gravit.io --><svg xmlns="http://www.w3.org/2000/svg" xmlns:xlink="http://www.w3.org/1999/xlink" style="isolation:isolate" viewBox="0 0 400 520" width="400pt" height="520pt"><defs><clipPath id="_clipPath_h6dJn7azuDnJxzJXIM2W8IFhybG7MPa0"><rect width="400" height="520"/></clipPath></defs><g clip-path="url(#_clipPath_h6dJn7azuDnJxzJXIM2W8IFhybG7MPa0)"><g><defs><filter id="1sUlZsbF3QVlmc8mg8J1mNRNg5vXe3zg" x="-200%" y="-200%" width="400%" height="400%" filterUnits="objectBoundingBox" color-interpolation-filters="sRGB"><feGaussianBlur xmlns="http://www.w3.org/2000/svg" stdDeviation="4.293609062839028"/></filter></defs><g filter="url(#1sUlZsbF3QVlmc8mg8J1mNRNg5vXe3zg)"><ellipse vector-effect="non-scaling-stroke" cx="198.91361582044095" cy="491.99999999999994" rx="65" ry="20.166666666666686" fill="rgb(162,162,162)" fill-opacity="0.7"/></g><defs><filter id="wXI1fi1hxEIZ9bMramfwMMgBXFHniLIz" x="-200%" y="-200%" width="400%" height="400%" filterUnits="objectBoundingBox" color-interpolation-filters="sRGB"><feGaussianBlur xmlns="http://www.w3.org/2000/svg" stdDeviation="0"/></filter></defs><g filter="url(#wXI1fi1hxEIZ9bMramfwMMgBXFHniLIz)"><path d=" M 18.914 185.931 C 18.914 85.382 99.774 4 199.384 4 C 299.14 4 380 85.382 380 185.931 C 380 239.891 356.562 288.544 319.355 321.863 C 317.304 323.633 246.405 390.124 198.944 492 C 181.073 419.906 111.785 350.613 79.998 322.306 C 42.498 288.839 18.914 240.186 18.914 185.931 Z  M 311.005 185.931" fill="rgb(0,40,118)"/></g></g><circle vector-effect="non-scaling-stroke" cx="199" cy="186.99999999999997" r="135" fill="rgb(0,40,118)"/><circle vector-effect="non-scaling-stroke" cx="199.50000000000003" cy="186.64164608777287" r="125.49999999999997" fill="rgb(255,255,255)"/><g><g><path d=" M 197.354 60.748 C 144.577 60.308 100.103 91.735 81.304 138.124 C 77.958 138.888 70.257 143.712 67.039 150.679 C 59.393 166.863 58.832 206.776 66.361 221.239 C 69.556 228.536 76.608 232.62 81.157 234.381 C 99.872 281.948 144.441 312.909 197.354 312.458 C 250.266 312.909 294.832 281.948 313.551 234.381 C 318.1 232.62 325.152 228.536 328.347 221.239 C 335.876 206.776 335.314 166.863 327.672 150.679 C 324.447 143.712 316.75 138.887 313.404 138.124 C 294.605 91.735 250.131 60.308 197.354 60.748 M 197.354 305.99 C 146.309 306.415 103.71 275.567 86.495 230.147 C 83.226 228.845 77.664 226.823 73.698 220.435 C 65.212 206.728 66.28 167.013 73.698 152.517 C 77.756 145.796 83.065 143.808 86.455 142.931 C 103.787 97.76 146.481 66.754 197.354 67.18 C 248.226 66.754 290.921 97.76 308.253 142.931 C 311.639 143.807 316.86 145.752 320.874 152.561 C 329.529 166.921 330.042 206.127 320.742 219.907 C 316.779 226.489 311.478 228.331 308.212 229.465 C 290.994 274.889 248.399 306.415 197.354 305.99" fill-rule="evenodd" fill="rgb(255,255,255)"/><path d=" M 197.369 299.763 C 147.993 300.178 106.528 269.572 90.906 225.068 C 85.278 223.78 82.698 222.709 80.167 218.879 C 71.501 205.792 71.501 167.379 80.167 154.292 C 82.698 150.462 85.278 149.39 90.906 148.103 C 106.528 103.599 147.993 72.997 197.369 73.408 C 246.744 72.997 288.214 103.599 303.836 148.103 C 309.46 149.39 312.039 150.462 314.575 154.292 C 323.24 167.379 323.24 205.796 314.575 218.879 C 312.039 222.709 309.46 223.78 303.836 225.068 C 288.214 269.572 246.744 300.177 197.369 299.763 Z " fill-rule="evenodd" fill="rgb(255,255,255)"/><path d=" M 149.231 172.386 L 149.176 160.132 C 78.539 129.354 65.739 230.428 132.831 214.589 L 132.835 216.548 L 153.322 216.548 L 153.322 182.186 L 124.129 182.259 L 124.129 193.9 L 132.736 193.896 L 132.736 203.153 C 96.128 214.915 102.761 147.646 149.231 172.386" fill-rule="evenodd" fill="rgb(0,40,118)"/><mask id="_mask_3p80tMTnqDchWpyc1UKb60pfSGobH94P" x="-200%" y="-200%" width="400%" height="400%"><rect x="-200%" y="-200%" width="400%" height="400%" style="fill:white;"/><path d=" M 149.231 172.386 L 149.176 160.132 C 78.539 129.354 65.739 230.428 132.831 214.589 L 132.835 216.548 L 153.322 216.548 L 153.322 182.186 L 124.129 182.259 L 124.129 193.9 L 132.736 193.896 L 132.736 203.153 C 96.128 214.915 102.761 147.646 149.231 172.386 L 149.231 172.386 Z " fill="black" stroke="none"/></mask><path d=" M 149.231 172.386 L 149.176 160.132 C 78.539 129.354 65.739 230.428 132.831 214.589 L 132.835 216.548 L 153.322 216.548 L 153.322 182.186 L 124.129 182.259 L 124.129 193.9 L 132.736 193.896 L 132.736 203.153 C 96.128 214.915 102.761 147.646 149.231 172.386 L 149.231 172.386 Z " fill="none" mask="url(#_mask_3p80tMTnqDchWpyc1UKb60pfSGobH94P)" vector-effect="non-scaling-stroke" stroke-width="0.576" stroke="rgb(46,49,146)" stroke-linejoin="miter" stroke-linecap="butt" stroke-miterlimit="2.61299992"/><path d=" M 149.231 172.386 L 149.176 160.132 C 78.539 129.354 65.739 230.428 132.831 214.589 L 132.835 216.548 L 153.322 216.548 L 153.322 182.186 L 124.129 182.259 L 124.129 193.9 L 132.736 193.896 L 132.736 203.153 C 96.128 214.915 102.761 147.646 149.231 172.386 L 149.231 172.386 Z " fill="none"/><mask id="_mask_nRywENcZhS5NqLp7eUnjJtMFPRYxSaTZ" x="-200%" y="-200%" width="400%" height="400%"><rect x="-200%" y="-200%" width="400%" height="400%" style="fill:white;"/><path d=" M 167.724 182.215 L 186.971 182.236 L 186.971 200.705 C 186.303 207.833 201.217 207.87 203.037 201.978 L 203.037 182.236 L 222.364 182.236 L 222.364 216.496 L 203.052 216.496 L 203.063 213.873 C 179.967 220.645 168.799 214.816 167.739 204.865 L 167.724 182.215 Z " fill-rule="evenodd" fill="black" stroke="none"/></mask><path d=" M 167.724 182.215 L 186.971 182.236 L 186.971 200.705 C 186.303 207.833 201.217 207.87 203.037 201.978 L 203.037 182.236 L 222.364 182.236 L 222.364 216.496 L 203.052 216.496 L 203.063 213.873 C 179.967 220.645 168.799 214.816 167.739 204.865 L 167.724 182.215 Z " fill-rule="evenodd" fill="rgb(0,40,118)" mask="url(#_mask_nRywENcZhS5NqLp7eUnjJtMFPRYxSaTZ)" vector-effect="non-scaling-stroke" stroke-width="0.576" stroke="rgb(46,49,146)" stroke-linejoin="miter" stroke-linecap="butt" stroke-miterlimit="2.61299992"/><path d=" M 167.724 182.215 L 186.971 182.236 L 186.971 200.705 C 186.303 207.833 201.217 207.87 203.037 201.978 L 203.037 182.236 L 222.364 182.236 L 222.364 216.496 L 203.052 216.496 L 203.063 213.873 C 179.967 220.645 168.799 214.816 167.739 204.865 L 167.724 182.215 Z " fill-rule="evenodd" fill="rgb(0,40,118)"/><path d=" M 234.321 161.58 L 254.06 161.58 L 254.06 216.426 L 234.321 216.426 L 234.321 161.58 Z " fill-rule="evenodd" fill="rgb(0,40,118)"/><mask id="_mask_zMGjFetrmjAkW7uH4zeO0btGBjjBMNZO" x="-200%" y="-200%" width="400%" height="400%"><rect x="-200%" y="-200%" width="400%" height="400%" style="fill:white;"/><path d=" M 234.322 161.58 L 254.061 161.58 L 254.061 216.425 L 234.322 216.425 L 234.322 161.58 Z " fill="black" stroke="none"/></mask><path d=" M 234.322 161.58 L 254.061 161.58 L 254.061 216.425 L 234.322 216.425 L 234.322 161.58 Z " fill="none" mask="url(#_mask_zMGjFetrmjAkW7uH4zeO0btGBjjBMNZO)" vector-effect="non-scaling-stroke" stroke-width="0.576" stroke="rgb(46,49,146)" stroke-linejoin="miter" stroke-linecap="butt" stroke-miterlimit="2.61299992"/><path d=" M 234.322 161.58 L 254.061 161.58 L 254.061 216.425 L 234.322 216.425 L 234.322 161.58 Z " fill="none"/><path d=" M 303.986 174.604 L 303.887 164.477 C 286.075 157.712 273.377 158.222 272.922 169.269 L 272.941 182.231 L 263.578 182.262 L 263.512 194.824 L 272.787 194.762 L 272.721 216.651 L 292.294 216.651 L 292.357 194.476 L 301.657 194.58 L 301.657 182.293 L 292.441 182.165 L 292.441 174.868 C 293.171 170.942 298.718 172.252 303.987 174.608" fill-rule="evenodd" fill="rgb(0,40,118)"/><mask id="_mask_TfoSAiitpsVvD19SqpAl0pSruHJkxfs5" x="-200%" y="-200%" width="400%" height="400%"><rect x="-200%" y="-200%" width="400%" height="400%" style="fill:white;"/><path d=" M 303.986 174.604 L 303.887 164.477 C 286.075 157.712 273.377 158.222 272.922 169.269 L 272.941 182.231 L 263.578 182.262 L 263.512 194.824 L 272.787 194.762 L 272.721 216.651 L 292.294 216.651 L 292.357 194.476 L 301.657 194.58 L 301.657 182.293 L 292.441 182.165 L 292.441 174.868 C 293.171 170.942 298.718 172.252 303.987 174.608 L 303.986 174.604 Z " fill="black" stroke="none"/></mask><path d=" M 303.986 174.604 L 303.887 164.477 C 286.075 157.712 273.377 158.222 272.922 169.269 L 272.941 182.231 L 263.578 182.262 L 263.512 194.824 L 272.787 194.762 L 272.721 216.651 L 292.294 216.651 L 292.357 194.476 L 301.657 194.58 L 301.657 182.293 L 292.441 182.165 L 292.441 174.868 C 293.171 170.942 298.718 172.252 303.987 174.608 L 303.986 174.604 Z " fill="none" mask="url(#_mask_TfoSAiitpsVvD19SqpAl0pSruHJkxfs5)" vector-effect="non-scaling-stroke" stroke-width="0.576" stroke="rgb(46,49,146)" stroke-linejoin="miter" stroke-linecap="butt" stroke-miterlimit="2.61299992"/><path d=" M 303.986 174.604 L 303.887 164.477 C 286.075 157.712 273.377 158.222 272.922 169.269 L 272.941 182.231 L 263.578 182.262 L 263.512 194.824 L 272.787 194.762 L 272.721 216.651 L 292.294 216.651 L 292.357 194.476 L 301.657 194.58 L 301.657 182.293 L 292.441 182.165 L 292.441 174.868 C 293.171 170.942 298.718 172.252 303.987 174.608 L 303.986 174.604 Z " fill="none"/><path d=" M 197.369 299.763 C 147.993 300.178 106.528 269.572 90.906 225.068 C 85.278 223.78 82.698 222.709 80.167 218.879 C 71.501 205.792 71.501 167.379 80.167 154.292 C 82.698 150.462 85.278 149.39 90.906 148.103 C 106.528 103.599 147.993 72.997 197.369 73.408 C 246.744 72.997 288.214 103.599 303.836 148.103 C 309.46 149.39 312.039 150.462 314.575 154.292 C 323.24 167.379 323.24 205.796 314.575 218.879 C 312.039 222.709 309.46 223.78 303.836 225.068 C 288.214 269.572 246.744 300.177 197.369 299.763 Z  M 73.849 152.553 C 77.734 146.433 80.226 145.058 86.54 142.757 C 103.857 97.637 146.551 66.885 197.369 67.311 C 248.186 66.885 290.885 97.637 308.198 142.757 C 314.512 145.058 317.003 146.433 320.889 152.553 C 329.918 167.562 329.811 204.42 320.889 219.433 C 317.003 225.688 314.512 227.093 308.198 229.445 C 290.885 275.548 248.186 306.326 197.369 305.893 C 146.551 306.326 103.857 276.19 86.54 230.087 C 80.226 227.735 77.092 225.688 73.207 219.433 C 65.48 205.726 65.976 167.889 73.849 152.553" fill-rule="evenodd" fill="rgb(0,40,118)"/><path d=" M 197.291 80.138 C 241.402 80.138 279.334 107.75 295.081 146.757 C 230.014 137.915 164.455 137.999 99.398 147.017 C 115.079 107.87 153.085 80.137 197.291 80.137 M 295.991 224.764 C 280.835 265 242.275 293.717 197.291 293.717 C 152.208 293.717 113.579 264.876 98.496 224.503 C 164.15 233.683 230.322 233.771 295.991 224.764" fill-rule="evenodd" fill="rgb(255,99,25)"/></g></g></g></svg>