<?xml version="1.0" encoding="UTF-8" standalone="no"?><!-- Generator: Gravit.io --><svg xmlns="http://www.w3.org/2000/svg" xmlns:xlink="http://www.w3.org/1999/xlink" style="isolation:isolate" viewBox="0 0 24 24" width="24pt" height="24pt"><defs><clipPath id="_clipPath_DafYmLjgfSqiH77T53IfBxK87tT03BWY"><rect width="24" height="24"/></clipPath></defs><g clip-path="url(#_clipPath_DafYmLjgfSqiH77T53IfBxK87tT03BWY)"><clipPath id="_clipPath_DD5Cy6yZFNbCp5rC8MVw1TNd6rMbxs7Y"><rect x="2.769" y="0" width="18.462" height="24" transform="matrix(1,0,0,1,0,0)" fill="rgb(255,255,255)"/></clipPath><g clip-path="url(#_clipPath_DD5Cy6yZFNbCp5rC8MVw1TNd6rMbxs7Y)"><g><g><g filter="url(#UhiCKAyZxNJRXKQGFHAIFmEa2scJIrro)"><ellipse vector-effect="non-scaling-stroke" cx="11.949859191712658" cy="22.707692307692305" rx="3" ry="0.9307692307692328" fill="rgb(162,162,162)" fill-opacity="0.7"/></g><defs><filter id="UhiCKAyZxNJRXKQGFHAIFmEa2scJIrro" x="-200%" y="-200%" width="400%" height="400%" filterUnits="objectBoundingBox" color-interpolation-filters="sRGB"><feGaussianBlur xmlns="http://www.w3.org/2000/svg" stdDeviation="4.293609062839028"/></filter></defs><g filter="url(#4HDgWu5MqKZZyrl17nVyZs9GvCzkEz3i)"><path d=" M 3.642 8.581 C 3.642 3.941 7.374 0.185 11.972 0.185 C 16.576 0.185 20.308 3.941 20.308 8.581 C 20.308 11.072 19.226 13.317 17.509 14.855 C 17.414 14.937 14.142 18.006 11.951 22.708 C 11.126 19.38 7.929 16.182 6.461 14.876 C 4.731 13.331 3.642 11.086 3.642 8.581 Z " fill="rgb(0,130,200)"/></g><defs><filter id="4HDgWu5MqKZZyrl17nVyZs9GvCzkEz3i" x="-200%" y="-200%" width="400%" height="400%" filterUnits="objectBoundingBox" color-interpolation-filters="sRGB"><feGaussianBlur xmlns="http://www.w3.org/2000/svg" stdDeviation="0"/></filter></defs></g><circle vector-effect="non-scaling-stroke" cx="11.953846153846154" cy="8.630769230769232" r="6.23076923076923" fill="rgb(80,185,72)"/><circle vector-effect="non-scaling-stroke" cx="11.976923076923075" cy="8.614229819435671" r="5.79230769230769" fill="rgb(255,255,255)"/><g><path d=" M 8.708 6.185 C 8.954 6.185 9.23 6.264 9.521 6.339 C 9.812 6.414 10.075 6.508 10.364 6.632 C 10.652 6.756 10.972 6.929 11.298 7.126 C 11.623 7.323 11.841 7.441 12.085 7.657 C 12.329 7.873 12.468 8.04 12.635 8.28 C 12.801 8.52 12.875 8.647 12.964 8.866 C 13.053 9.086 13.115 9.359 13.147 9.635 C 13.18 9.912 13.186 10.16 13.147 10.441 C 13.109 10.723 13.094 10.921 13.001 11.137 C 12.908 11.354 12.853 11.517 12.754 11.754 C 12.654 11.991 12.554 12.123 12.415 12.385 C 12.277 12.646 12.11 12.862 11.939 12.969 C 11.767 13.076 11.658 13.14 11.462 13.123 C 11.265 13.107 11.139 13.076 11.023 12.969 C 10.907 12.861 10.821 12.66 10.769 12.446 C 10.717 12.232 10.697 12 10.692 11.754 C 10.688 11.508 10.745 11.187 10.769 10.969 C 10.794 10.751 10.886 10.5 10.986 10.258 C 10.748 10.172 10.551 10.084 10.327 9.965 C 10.103 9.846 9.943 9.733 9.741 9.599 C 9.538 9.465 9.222 9.268 8.972 9.049 C 8.721 8.83 8.558 8.707 8.354 8.462 C 8.15 8.216 8.033 8.072 7.908 7.846 C 7.782 7.621 7.724 7.486 7.689 7.291 C 7.655 7.096 7.646 6.938 7.723 6.754 C 7.8 6.569 7.909 6.434 8.056 6.339 C 8.203 6.243 8.462 6.185 8.708 6.185 Z " fill="rgb(0,130,200)"/><path d=" M 11.353 7.254 C 11.375 6.842 11.4 6.569 11.492 6.123 C 11.585 5.677 11.662 5.431 11.815 5.031 C 11.969 4.631 12.145 4.298 12.415 4.141 C 12.685 3.984 12.786 3.979 13.001 3.994 C 13.216 4.01 13.46 4.121 13.646 4.308 C 13.832 4.494 13.907 4.696 14 4.938 C 14.093 5.18 14.192 5.573 14.231 5.877 C 14.27 6.181 14.295 6.516 14.301 6.705 C 14.308 6.894 14.308 7.095 14.292 7.492 C 14.29 7.546 14.22 8.004 14.155 8.225 C 14.089 8.446 14.038 8.575 13.953 8.756 Q 14.356 8.848 14.686 8.958 C 15 9.115 15.12 9.118 15.385 9.292 C 15.65 9.467 15.738 9.508 15.938 9.815 C 16.138 10.123 16.146 10.243 16.154 10.431 C 16.161 10.619 16.137 10.775 16.005 10.917 C 15.872 11.06 15.776 11.058 15.638 11.101 C 15.5 11.143 15.272 11.174 14.942 11.156 C 14.613 11.137 14.544 11.146 14.32 11.119 C 14.096 11.092 13.848 11.032 13.624 10.954 C 13.399 10.876 13.183 10.765 12.964 10.624 C 12.746 10.484 12.623 10.373 12.451 10.222 C 12.28 10.069 12.125 9.929 11.975 9.745 C 11.825 9.562 11.698 9.411 11.591 9.141 C 11.484 8.87 11.443 8.557 11.407 8.335 C 11.371 8.113 11.33 7.666 11.353 7.254 Z " fill="rgb(80,185,72)"/><g><path d=" M 11.67 7.351 L 11.346 7.531 C 11.347 7.586 11.348 7.642 11.35 7.696 L 11.808 7.442 C 11.763 7.411 11.717 7.381 11.67 7.351 L 11.67 7.351 Z  M 11.875 7.489 L 11.353 7.778 C 11.356 7.834 11.359 7.888 11.363 7.94 L 12.002 7.586 C 11.959 7.552 11.917 7.52 11.875 7.489 L 11.875 7.489 Z  M 11.454 7.22 L 11.351 7.277 C 11.349 7.333 11.347 7.39 11.346 7.447 L 11.598 7.307 C 11.552 7.279 11.504 7.25 11.454 7.22 L 11.454 7.22 Z  M 12.885 8.688 L 11.689 9.351 C 11.714 9.395 11.74 9.436 11.767 9.476 L 12.946 8.822 C 12.926 8.774 12.906 8.73 12.885 8.688 L 12.885 8.688 Z  M 12.388 7.958 L 11.432 8.488 C 11.44 8.537 11.448 8.589 11.458 8.642 L 12.483 8.073 C 12.452 8.034 12.421 7.996 12.388 7.958 L 12.388 7.958 Z  M 12.528 8.132 L 11.472 8.717 C 11.482 8.767 11.493 8.817 11.505 8.867 L 12.615 8.252 C 12.585 8.21 12.557 8.17 12.528 8.132 L 12.528 8.132 Z  M 12.232 7.794 L 11.396 8.257 C 11.4 8.285 11.404 8.311 11.407 8.335 C 11.411 8.359 11.415 8.385 11.42 8.411 L 12.338 7.903 C 12.304 7.867 12.269 7.83 12.232 7.794 L 12.232 7.794 Z  M 12.062 7.637 L 11.37 8.02 C 11.375 8.077 11.38 8.13 11.386 8.179 L 12.176 7.741 C 12.148 7.714 12.117 7.686 12.085 7.657 C 12.077 7.65 12.069 7.643 12.062 7.637 L 12.062 7.637 Z  M 12.974 8.89 L 11.809 9.536 C 11.838 9.576 11.869 9.614 11.9 9.653 L 13.023 9.031 C 13.008 8.982 12.991 8.935 12.974 8.89 L 12.974 8.89 Z  M 12.778 8.496 L 11.595 9.152 C 11.614 9.2 11.634 9.244 11.655 9.286 L 12.852 8.623 C 12.829 8.581 12.805 8.54 12.778 8.496 L 12.778 8.496 Z  M 12.657 8.312 L 11.524 8.94 C 11.537 8.988 11.552 9.036 11.569 9.083 L 12.739 8.434 C 12.714 8.396 12.687 8.356 12.657 8.312 L 12.657 8.312 Z  M 13.137 9.554 L 12.255 10.043 C 12.292 10.078 12.329 10.112 12.368 10.147 L 13.156 9.711 C 13.153 9.686 13.15 9.661 13.147 9.635 C 13.144 9.608 13.141 9.581 13.137 9.554 L 13.137 9.554 Z  M 13.163 9.79 L 12.426 10.199 C 12.434 10.206 12.443 10.214 12.451 10.222 C 12.483 10.25 12.513 10.276 12.542 10.302 L 13.172 9.953 C 13.171 9.899 13.168 9.845 13.163 9.79 L 13.163 9.79 Z  M 12.786 10.502 C 12.827 10.532 12.871 10.563 12.92 10.595 L 13.143 10.471 C 13.145 10.462 13.146 10.451 13.147 10.441 C 13.154 10.391 13.16 10.341 13.164 10.292 L 12.786 10.502 L 12.786 10.502 L 12.786 10.502 L 12.786 10.502 L 12.786 10.502 Z  M 12.989 10.64 C 13.028 10.665 13.066 10.688 13.104 10.709 C 13.113 10.663 13.121 10.615 13.13 10.563 L 12.989 10.64 L 12.989 10.64 L 12.989 10.64 L 12.989 10.64 L 12.989 10.64 Z  M 12.093 9.881 C 12.128 9.918 12.164 9.954 12.199 9.989 L 13.125 9.476 C 13.117 9.425 13.108 9.374 13.098 9.324 L 12.093 9.881 L 12.093 9.881 L 12.093 9.881 L 12.093 9.881 Z  M 11.947 9.711 C 11.956 9.722 11.966 9.734 11.975 9.745 C 11.998 9.773 12.02 9.799 12.043 9.825 L 13.081 9.249 C 13.07 9.199 13.058 9.15 13.044 9.102 L 11.947 9.711 L 11.947 9.711 L 11.947 9.711 Z  M 12.601 10.353 C 12.641 10.387 12.681 10.42 12.723 10.453 L 13.17 10.205 C 13.173 10.148 13.174 10.092 13.174 10.036 L 12.601 10.353 L 12.601 10.353 Z " fill-rule="evenodd" fill="rgb(0,130,200)"/></g></g></g></g></g></svg>