<?xml version="1.0" encoding="UTF-8" standalone="no"?><!-- Generator: Gravit.io --><svg xmlns="http://www.w3.org/2000/svg" xmlns:xlink="http://www.w3.org/1999/xlink" style="isolation:isolate" viewBox="0 0 24 24" width="24pt" height="24pt"><defs><clipPath id="_clipPath_uCtMR5w4tlihnVwcTr8GwvjsHuKgjK1a"><rect width="24" height="24"/></clipPath></defs><g clip-path="url(#_clipPath_uCtMR5w4tlihnVwcTr8GwvjsHuKgjK1a)"><path d=" M 18.593 16.825 C 20.37 15.006 21.563 12.624 21.563 9.901 C 21.563 4.623 17.278 0.338 12 0.338 C 6.722 0.338 2.438 4.623 2.438 9.901 C 2.438 12.657 3.526 14.954 5.474 16.888 L 5.473 16.888 L 11.611 23.662 L 18.605 16.825 L 18.593 16.825 Z " fill="rgb(0,113,206)"/><g><path d=" M 5.617 6.223 Q 9.598 6.223 15.817 6.223 L 15.288 8.29 Q 10.204 8.29 6.95 8.29 Q 6.356 7.664 5.429 6.684 Q 5.544 6.403 5.617 6.223 Z " fill="rgb(163,209,227)"/><path d=" M 15.125 8.854 L 14.608 10.904 Q 11.682 10.905 9.848 10.905 Q 9.204 10.264 8.197 9.264 Q 8.342 8.983 8.435 8.803 Q 11.046 8.823 15.125 8.854 Z " fill="rgb(163,209,227)"/><path d=" M 11.119 11.402 Q 12.412 11.402 14.433 11.402 L 13.904 13.366 Q 13.091 13.366 12.571 13.366 Q 11.971 12.76 11.033 11.812 Q 11.085 11.562 11.119 11.402 Z " fill="rgb(164,210,227)"/><path d=" M 16.202 6.231 L 17.364 6.231 L 16.851 8.299 L 15.706 8.299 L 16.202 6.231 Z " fill="rgb(195,195,196)"/><path d=" M 15.575 8.876 L 16.736 8.876 L 16.224 10.944 L 15.079 10.944 L 15.575 8.876 Z " fill="rgb(195,195,196)"/><path d=" M 14.905 11.403 L 16.067 11.403 L 15.554 13.47 L 14.409 13.47 L 14.905 11.403 Z " fill="rgb(195,195,196)"/></g></g></svg>