<?xml version="1.0" encoding="UTF-8" standalone="no"?><!-- Generator: Gravit.io --><svg xmlns="http://www.w3.org/2000/svg" xmlns:xlink="http://www.w3.org/1999/xlink" style="isolation:isolate" viewBox="0 0 400 520" width="400pt" height="520pt"><defs><clipPath id="_clipPath_OX6DTexcRUWlzunKgD5yraC2NFPT20pw"><rect width="400" height="520"/></clipPath></defs><g clip-path="url(#_clipPath_OX6DTexcRUWlzunKgD5yraC2NFPT20pw)"><g><defs><filter id="G54SUi3LIv4ngqQkSiWO0TFAC1yxxpeU" x="-200%" y="-200%" width="400%" height="400%" filterUnits="objectBoundingBox" color-interpolation-filters="sRGB"><feGaussianBlur xmlns="http://www.w3.org/2000/svg" stdDeviation="4.293609062839028"/></filter></defs><g filter="url(#G54SUi3LIv4ngqQkSiWO0TFAC1yxxpeU)"><ellipse vector-effect="non-scaling-stroke" cx="198.91361582044095" cy="490" rx="65" ry="20.166666666666686" fill="rgb(162,162,162)" fill-opacity="0.7"/></g><defs><filter id="2Zfkv8pDq3jkVOo8BbCLrafK2xGOfM1O" x="-200%" y="-200%" width="400%" height="400%" filterUnits="objectBoundingBox" color-interpolation-filters="sRGB"><feGaussianBlur xmlns="http://www.w3.org/2000/svg" stdDeviation="0"/></filter></defs><g filter="url(#2Zfkv8pDq3jkVOo8BbCLrafK2xGOfM1O)"><path d=" M 18.914 183.931 C 18.914 83.382 99.774 2 199.384 2 C 299.14 2 380 83.382 380 183.931 C 380 237.891 356.562 286.544 319.355 319.863 C 317.304 321.633 246.405 388.124 198.944 490 C 181.073 417.906 111.785 348.613 79.998 320.306 C 42.498 286.839 18.914 238.186 18.914 183.931 Z  M 311.005 183.931" fill="rgb(0,0,0)" vector-effect="non-scaling-stroke" stroke-width="2" stroke="rgb(0,0,0)" stroke-linejoin="miter" stroke-linecap="butt" stroke-miterlimit="4"/></g></g><circle vector-effect="non-scaling-stroke" cx="199" cy="184.99999999999997" r="135" fill="rgb(232,232,232)"/><circle vector-effect="non-scaling-stroke" cx="199.50000000000003" cy="184.64164608777287" r="125.49999999999997" fill="rgb(0,0,0)"/><g><g><path d=" M 268.294 118.647 L 268.294 122.651 L 255.958 122.651 L 255.958 132.533 L 265.646 132.533 L 265.646 136.344 L 255.958 136.344 L 255.958 146.549 L 268.294 146.549 L 268.294 150.554 L 251.63 150.554 L 251.63 118.647 L 268.294 118.647 Z " fill="rgb(255,255,255)"/><path d=" M 240.65 142.028 C 240.65 138.54 236.969 137.377 233.158 136.021 C 228.83 134.342 224.18 132.856 224.18 127.495 C 224.18 118.453 233.029 118.001 234.837 118.001 C 239.81 118.001 243.169 119.68 244.009 120.003 C 243.88 120.326 243.04 123.491 243.04 124.007 C 242.006 123.362 239.035 121.682 235.031 121.682 C 230.51 121.682 228.507 124.33 228.507 126.849 C 228.507 130.208 231.866 131.177 235.483 132.339 C 240.004 133.825 244.978 135.311 244.978 141.705 C 244.978 147.195 240.456 151.07 234.127 151.07 C 228.766 151.07 224.115 148.422 223.276 147.905 C 223.469 147.776 224.438 144.547 224.632 144.095 C 225.601 144.934 229.799 147.453 234.643 147.453 C 238.971 147.389 240.65 144.547 240.65 142.028 Z " fill="rgb(255,255,255)"/><path d=" M 217.075 118.647 L 217.075 137.313 C 217.075 143.965 213.716 150.812 204.545 150.812 C 195.373 150.812 192.015 143.965 192.015 137.313 L 192.015 118.647 L 196.148 118.647 L 196.148 137.313 C 196.148 143.32 199.313 147.001 204.674 147.001 C 206.999 147.001 212.812 146.161 212.812 137.313 L 212.812 118.647 L 217.075 118.647 Z " fill="rgb(255,255,255)"/><path d=" M 169.215 147.195 C 163.208 147.195 157.007 142.544 157.007 134.535 C 157.007 126.333 163.337 122.005 169.215 122.005 C 175.415 122.005 181.745 126.203 181.745 134.535 C 181.745 142.674 175.221 147.195 169.215 147.195 Z  M 169.215 118.001 C 158.364 118.001 152.551 126.526 152.551 134.535 C 152.551 142.738 158.687 151.199 169.215 151.199 C 180.195 151.199 186.072 142.544 186.072 134.535 C 186.072 126.526 180.195 118.001 169.215 118.001 Z " fill="rgb(255,255,255)"/><path d=" M 142.475 118.647 L 142.475 132.339 L 126.134 132.339 L 126.134 118.647 L 122 118.647 L 122 150.554 L 126.134 150.554 L 126.134 136.215 L 142.475 136.215 L 142.475 150.554 L 146.673 150.554 L 146.673 118.647 L 142.475 118.647 Z " fill="rgb(255,255,255)"/></g><g><path d=" M 268.147 230.342 L 264.013 230.148 L 263.69 230.148 L 263.69 218.522 L 264.013 218.522 L 268.534 218.522 C 273.056 218.522 275.51 220.718 275.51 224.722 C 275.51 226.854 274.477 230.342 268.147 230.342 Z  M 273.637 232.99 L 273.831 232.99 C 277.512 231.311 279.644 228.146 279.644 224.658 C 279.644 218.005 275.445 214.647 267.436 214.647 L 259.427 214.647 L 259.427 246.489 L 263.626 246.489 L 263.626 234.023 L 269.826 234.023 C 269.826 234.023 275.639 246.231 275.833 246.554 L 281 246.554 C 280.677 245.843 273.637 232.99 273.637 232.99 Z " fill="rgb(255,255,255)"/><path d=" M 252.581 214.647 L 252.581 218.651 L 240.244 218.651 L 240.244 228.533 L 249.933 228.533 L 249.933 232.344 L 240.244 232.344 L 240.244 242.678 L 252.581 242.678 L 252.581 246.554 L 236.046 246.554 L 236.046 214.647 L 252.581 214.647 Z " fill="rgb(255,255,255)"/><path d=" M 225.066 238.028 C 225.066 234.54 221.384 233.377 217.574 232.021 C 213.246 230.342 208.596 228.856 208.596 223.495 C 208.596 214.453 217.444 214.001 219.253 214.001 C 224.226 214.001 227.585 215.68 228.424 216.003 C 228.295 216.326 227.456 219.491 227.456 220.007 C 226.487 219.362 223.451 217.682 219.447 217.682 C 214.925 217.682 212.923 220.33 212.923 222.849 C 212.923 226.208 216.282 227.177 219.77 228.339 C 224.42 229.825 229.458 231.311 229.458 237.705 C 229.458 243.195 224.937 247.07 218.607 247.07 C 213.246 247.07 208.596 244.422 207.756 243.905 C 207.95 243.776 208.919 240.547 209.112 240.095 C 210.081 240.934 214.28 243.453 219.124 243.453 C 223.387 243.389 225.066 240.547 225.066 238.028 Z " fill="rgb(255,255,255)"/><path d=" M 184.698 235.38 L 190.188 219.555 L 190.511 218.909 L 196.001 235.444 L 184.698 235.444 L 184.698 235.38 Z  M 193.03 214.647 L 188.186 214.647 C 187.992 214.969 176.172 245.843 175.978 246.489 L 180.629 246.489 C 180.629 246.166 183.471 239.126 183.471 239.126 L 197.293 239.126 C 197.293 239.126 199.941 246.101 200.134 246.489 L 204.785 246.489 C 204.527 245.843 193.159 215.034 193.03 214.647 Z " fill="rgb(255,255,255)"/><path d=" M 158.604 230.212 L 154.405 230.212 L 154.083 230.212 L 154.083 218.328 L 154.405 218.328 L 158.927 218.328 C 163.448 218.328 165.967 220.653 165.967 224.658 C 165.967 228.21 163.319 230.212 158.604 230.212 Z  M 164.158 232.99 L 164.352 232.796 C 168.034 231.311 170.165 228.146 170.165 224.593 C 170.165 217.941 165.967 214.582 157.958 214.582 L 149.949 214.582 L 149.949 246.424 L 154.147 246.424 L 154.147 233.829 L 160.283 233.829 C 160.283 233.829 166.161 246.166 166.29 246.489 L 171.457 246.489 C 171.005 245.843 164.158 232.99 164.158 232.99 Z " fill="rgb(255,255,255)"/><path d=" M 143.102 214.647 L 143.102 218.651 L 129.409 218.651 L 129.409 228.533 L 140.131 228.533 L 140.131 232.344 L 129.409 232.344 L 129.409 246.554 L 125.276 246.554 L 125.276 214.647 L 143.102 214.647 Z " fill="rgb(255,255,255)"/></g><g><path d=" M 227.543 166.647 L 227.543 170.651 L 214.044 170.651 L 214.044 180.533 L 224.765 180.533 L 224.765 184.344 L 214.044 184.344 L 214.044 198.554 L 209.91 198.554 L 209.91 166.647 L 227.543 166.647 Z " fill="rgb(255,255,255)"/><path d=" M 186.206 195.195 C 180.199 195.195 173.869 190.544 173.869 182.535 C 173.869 174.333 180.199 170.005 186.206 170.005 C 192.406 170.005 198.542 174.333 198.542 182.535 C 198.542 190.867 192.213 195.195 186.206 195.195 Z  M 186.206 166.001 C 175.355 166.001 169.348 174.526 169.348 182.535 C 169.348 190.738 175.678 199.199 186.206 199.199 C 197.186 199.199 203.063 190.544 203.063 182.535 C 203.063 174.526 197.186 166.001 186.206 166.001 Z " fill="rgb(255,255,255)"/></g></g></g></svg>