<?xml version="1.0" encoding="UTF-8" standalone="no"?><!-- Generator: Gravit.io --><svg xmlns="http://www.w3.org/2000/svg" xmlns:xlink="http://www.w3.org/1999/xlink" style="isolation:isolate" viewBox="0 0 400 520" width="400pt" height="520pt"><defs><clipPath id="_clipPath_safxmX78HPtUqmfOt5dZtEzfOXkv4wMm"><rect width="400" height="520"/></clipPath></defs><g clip-path="url(#_clipPath_safxmX78HPtUqmfOt5dZtEzfOXkv4wMm)"><g><defs><filter id="1DG5wEZLK0aMdbLeKovR1wt2gr1RwnR4" x="-200%" y="-200%" width="400%" height="400%" filterUnits="objectBoundingBox" color-interpolation-filters="sRGB"><feGaussianBlur xmlns="http://www.w3.org/2000/svg" stdDeviation="4.293609062839028"/></filter></defs><g filter="url(#1DG5wEZLK0aMdbLeKovR1wt2gr1RwnR4)"><ellipse vector-effect="non-scaling-stroke" cx="198.91361582044095" cy="491.99999999999994" rx="65" ry="20.166666666666686" fill="rgb(162,162,162)" fill-opacity="0.7"/></g><defs><filter id="7WnRpW3f6XnP7eloxmyAXP5pGPLGzYNS" x="-200%" y="-200%" width="400%" height="400%" filterUnits="objectBoundingBox" color-interpolation-filters="sRGB"><feGaussianBlur xmlns="http://www.w3.org/2000/svg" stdDeviation="0"/></filter></defs><g filter="url(#7WnRpW3f6XnP7eloxmyAXP5pGPLGzYNS)"><path d=" M 18.914 185.931 C 18.914 85.382 99.774 4 199.384 4 C 299.14 4 380 85.382 380 185.931 C 380 239.891 356.562 288.544 319.355 321.863 C 317.304 323.633 246.405 390.124 198.944 492 C 181.073 419.906 111.785 350.613 79.998 322.306 C 42.498 288.839 18.914 240.186 18.914 185.931 Z  M 311.005 185.931" fill="rgb(247,140,40)" vector-effect="non-scaling-stroke" stroke-width="2" stroke="rgb(247,140,40)" stroke-linejoin="miter" stroke-linecap="butt" stroke-miterlimit="4"/></g></g><circle vector-effect="non-scaling-stroke" cx="199.18181818181824" cy="186.99999999999997" r="135" fill="rgb(238,33,45)"/><circle vector-effect="non-scaling-stroke" cx="199.18181818181824" cy="187" r="124.99999999999999" fill="rgb(255,255,255)"/><g><g><path d=" M 210.033 173.254 C 204.191 173.254 199.011 174.63 196.257 175.622 C 196.368 176.008 197.472 181.518 197.636 182.18 C 201.052 180.968 205.569 180.144 208.547 180.144 C 213.337 180.144 215.425 181.518 215.425 184.933 L 215.425 186.312 C 200.389 186.312 194.111 191.653 194.111 198.541 C 194.111 206.198 201.111 210.55 211.077 210.55 C 217.577 210.55 223.308 209.449 225.676 208.732 L 225.676 185.376 C 225.676 177.166 220.493 173.254 210.033 173.254 M 215.425 203.5 C 214.439 203.719 212.783 203.83 211.905 203.83 C 208.432 203.83 204.744 202.397 204.744 198.43 C 204.744 194.465 208.16 192.592 215.425 192.646 L 215.425 203.5 Z " fill="rgb(209,28,46)"/><path d=" M 128.701 173.254 C 118.017 173.254 109.975 181.298 109.975 192.757 C 109.975 203.389 117.356 210.55 128.429 210.55 C 131.296 210.55 135.153 209.724 137.189 208.897 L 135.592 202.729 C 133.664 203.389 131.513 203.665 129.972 203.665 C 124.024 203.665 120.331 199.312 120.331 192.152 C 120.331 184.933 124.464 180.144 130.415 180.144 C 131.844 180.144 133.388 180.525 134.599 180.968 L 136.364 174.63 C 134.268 173.752 131.296 173.254 128.701 173.254" fill="rgb(209,28,46)"/><path d=" M 294.266 163.45 L 294.266 173.751 C 293.109 173.53 291.458 173.255 289.09 173.255 C 280.327 173.255 270.911 179.259 270.911 192.151 C 270.911 203.664 278.401 210.551 290.905 210.551 C 296.194 210.551 302.09 209.723 304.569 209.006 L 304.569 163.45 L 294.266 163.45 Z  M 294.266 203.607 C 293.385 203.774 292.173 203.829 291.458 203.829 C 285.011 203.829 281.322 199.422 281.322 191.875 C 281.322 186.145 283.745 180.143 290.905 180.143 C 291.898 180.143 293.546 180.306 294.266 180.526 L 294.266 203.607 Z " fill="rgb(209,28,46)"/><path d=" M 161.496 203.829 C 153.399 203.829 150.863 200.357 150.2 197.111 L 172.178 192.427 C 172.125 176.341 162.54 173.256 156.316 173.256 C 148.218 173.256 139.459 179.151 139.459 192.152 C 139.459 203.664 147.171 210.551 159.951 210.551 C 163.81 210.551 168.051 209.724 170.252 208.896 L 168.878 202.729 C 166.838 203.388 163.919 203.829 161.496 203.829 M 156.316 180.143 C 159.678 180.143 161.936 182.564 162.323 187.247 L 149.706 189.945 C 149.598 183.723 152.187 180.143 156.316 180.143" fill="rgb(209,28,46)"/><path d=" M 178.023 209.834 L 188.27 209.834 L 188.27 163.449 L 178.023 163.449 L 178.023 209.834 Z " fill="rgb(209,28,46)"/><path d=" M 93.795 209.834 L 104.042 209.834 L 104.042 163.449 L 93.795 163.449 L 93.795 209.834 Z " fill="rgb(209,28,46)"/><path d=" M 243.199 180.583 C 244.684 180.249 246.999 179.973 248.817 179.973 C 252.62 179.973 255.096 181.079 255.096 186.036 L 255.096 209.835 L 265.345 209.835 L 265.345 185.484 C 265.345 177.167 260.274 173.255 249.041 173.255 C 242.701 173.255 235.485 174.523 232.896 175.071 L 232.896 209.835 L 243.199 209.835 L 243.199 180.583 Z " fill="rgb(209,28,46)"/></g></g></g></svg>