<?xml version="1.0" encoding="UTF-8" standalone="no"?><!-- Generator: Gravit.io --><svg xmlns="http://www.w3.org/2000/svg" xmlns:xlink="http://www.w3.org/1999/xlink" style="isolation:isolate" viewBox="0 0 24 24" width="24pt" height="24pt"><defs><clipPath id="_clipPath_dMuDDYvx9FA2qxQtFhMk6CqPGloA0h1X"><rect width="24" height="24"/></clipPath></defs><g clip-path="url(#_clipPath_dMuDDYvx9FA2qxQtFhMk6CqPGloA0h1X)"><clipPath id="_clipPath_8jM39DXO4f72abFbzoco4VxWQIKnhGyS"><rect x="0" y="0" width="24" height="24" transform="matrix(1,0,0,1,0,0)" fill="rgb(255,255,255)"/></clipPath><g clip-path="url(#_clipPath_8jM39DXO4f72abFbzoco4VxWQIKnhGyS)"><g><clipPath id="_clipPath_qZ9GBORkS1X2V5xD2U56tKLlhOxbKMSq"><rect x="0" y="0" width="24" height="24" transform="matrix(1,0,0,1,0,0)" fill="rgb(255,255,255)"/></clipPath><g clip-path="url(#_clipPath_qZ9GBORkS1X2V5xD2U56tKLlhOxbKMSq)"><g><g><clipPath id="_clipPath_huEjW1QJgbpn8O1D1thtCic5TVqssNOz"><rect x="0" y="0" width="24" height="24" transform="matrix(1,0,0,1,0,0)" fill="rgb(255,255,255)"/></clipPath><g clip-path="url(#_clipPath_huEjW1QJgbpn8O1D1thtCic5TVqssNOz)"><g><g><g><clipPath id="_clipPath_B4oVU95A5D8MzYHhXSYp7EVQwSyO67ds"><rect x="0" y="0" width="24" height="24" transform="matrix(1,0,0,1,0,0)" fill="rgb(255,255,255)"/></clipPath><g clip-path="url(#_clipPath_B4oVU95A5D8MzYHhXSYp7EVQwSyO67ds)"><g><g><g><g><clipPath id="_clipPath_AFSchIkQuyEJ2Qj70WdaFnQv8mpgRd3C"><rect x="0.23" y="0" width="24" height="24" transform="matrix(1,0,0,1,0,0)" fill="rgb(255,255,255)"/></clipPath><g clip-path="url(#_clipPath_AFSchIkQuyEJ2Qj70WdaFnQv8mpgRd3C)"><g><g><g><g><g><clipPath id="_clipPath_t9sF9Rlp1G7vhtlbIVy8CBWV8oJBSD3r"><rect x="0.23" y="0" width="24" height="24" transform="matrix(1,0,0,1,0,0)" fill="rgb(255,255,255)"/></clipPath><g clip-path="url(#_clipPath_t9sF9Rlp1G7vhtlbIVy8CBWV8oJBSD3r)"><g><g><g><g><g><g><path d=" M 18.449 16.551 C 20.126 14.836 21.25 12.588 21.25 10.02 C 21.25 5.042 17.208 1 12.23 1 C 7.252 1 3.21 5.042 3.21 10.02 C 3.21 12.62 4.237 14.787 6.074 16.61 L 6.074 16.61 L 11.863 23 L 18.46 16.551 L 18.449 16.551 L 18.449 16.551 L 18.449 16.551 L 18.449 16.551 Z " fill="rgb(0,88,163)"/><rect x="0.23" y="0" width="24" height="24" transform="matrix(1,0,0,1,0,0)" fill="none"/></g></g></g></g></g></g></g><clipPath id="_clipPath_3au62lCCCyCSgOjoiLn2j0NxPclBksAY"><rect x="3.21" y="1" width="18.04" height="22" transform="matrix(1,0,0,1,0,0)" fill="rgb(255,255,255)"/></clipPath><g clip-path="url(#_clipPath_3au62lCCCyCSgOjoiLn2j0NxPclBksAY)"><g><g><g><g><g><g><ellipse vector-effect="non-scaling-stroke" cx="12.250836120401338" cy="9.92307692307692" rx="7.655518394648828" ry="7.595317725752507" fill="rgb(255,219,0)"/></g></g></g></g></g></g></g></g></g></g></g></g></g></g></g></g></g></g></g></g></g></g></g></g></g></g></g><circle vector-effect="non-scaling-stroke" cx="12.22966507177033" cy="10" r="7" fill="rgb(0,88,163)" stroke-width="1" stroke="rgb(255,219,0)" stroke-linejoin="miter" stroke-linecap="butt" stroke-miterlimit="4"/><g><path d=" M 5.788 10 C 5.788 11.388 8.488 12.541 12.231 12.541 C 15.974 12.541 18.671 11.388 18.671 10 C 18.671 8.612 15.972 7.459 12.231 7.459 C 8.49 7.459 5.788 8.612 5.788 10 L 5.788 10 Z " fill="rgb(251,217,20)"/><path d=" M 11.753 10.848 C 11.795 10.911 11.841 10.97 11.895 11.024 L 10.443 11.024 C 10.443 10.964 10.387 10.844 10.326 10.749 C 10.264 10.654 9.932 10.135 9.932 10.135 L 9.932 10.848 C 9.932 10.907 9.932 10.964 9.96 11.024 L 8.751 11.024 C 8.779 10.964 8.779 10.907 8.779 10.848 L 8.779 9.153 C 8.779 9.094 8.779 9.036 8.751 8.977 L 9.96 8.977 C 9.932 9.036 9.932 9.094 9.932 9.153 L 9.932 9.894 C 9.932 9.894 10.318 9.376 10.407 9.256 C 10.474 9.165 10.557 9.036 10.557 8.977 L 11.818 8.977 C 11.732 9.036 11.636 9.143 11.557 9.242 C 11.488 9.329 11.095 9.821 11.095 9.821 C 11.095 9.821 11.676 10.731 11.753 10.848 L 11.753 10.848 Z  M 12.134 9.153 L 12.134 10.848 C 12.134 10.907 12.134 10.964 12.105 11.024 L 14.44 11.024 L 14.44 10.455 C 14.382 10.484 14.327 10.484 14.269 10.484 L 13.286 10.484 L 13.286 10.216 L 14.23 10.216 L 14.23 9.785 L 13.286 9.785 L 13.286 9.515 L 14.269 9.515 C 14.327 9.515 14.382 9.515 14.44 9.542 L 14.44 8.975 L 12.105 8.975 C 12.134 9.036 12.134 9.094 12.134 9.153 Z  M 17.675 10.848 C 17.694 10.913 17.727 10.972 17.769 11.024 L 16.504 11.024 C 16.51 10.964 16.488 10.907 16.465 10.848 C 16.465 10.848 16.446 10.8 16.419 10.731 L 16.408 10.701 L 15.679 10.701 L 15.667 10.733 C 15.667 10.733 15.646 10.79 15.627 10.85 C 15.608 10.909 15.586 10.966 15.594 11.025 L 14.596 11.025 C 14.636 10.974 14.667 10.915 14.686 10.85 L 15.284 9.155 C 15.305 9.096 15.327 9.038 15.319 8.979 L 17.006 8.979 C 16.99 9.038 17.021 9.096 17.042 9.155 C 17.092 9.283 17.633 10.733 17.675 10.848 Z  M 16.248 10.269 L 16.071 9.795 C 16.056 9.752 16.042 9.706 16.033 9.661 C 16.025 9.706 16.013 9.752 15.998 9.795 C 15.992 9.815 15.917 10.022 15.831 10.269 L 16.248 10.269 Z  M 8.177 8.977 L 6.862 8.977 C 6.891 9.036 6.891 9.094 6.891 9.153 L 6.891 10.848 C 6.891 10.907 6.891 10.964 6.862 11.024 L 8.177 11.024 C 8.149 10.964 8.149 10.907 8.149 10.848 L 8.149 9.153 C 8.149 9.094 8.149 9.036 8.177 8.977 Z  M 17.271 9.139 C 17.265 8.995 17.375 8.874 17.516 8.87 L 17.533 8.87 C 17.675 8.869 17.792 8.983 17.794 9.129 L 17.794 9.139 C 17.798 9.287 17.685 9.412 17.539 9.416 C 17.394 9.42 17.273 9.303 17.269 9.153 C 17.271 9.149 17.271 9.143 17.271 9.139 L 17.271 9.139 Z  M 17.323 9.139 C 17.323 9.258 17.417 9.354 17.533 9.354 C 17.648 9.354 17.742 9.258 17.742 9.139 C 17.742 9.021 17.648 8.924 17.533 8.924 C 17.421 8.92 17.327 9.009 17.323 9.123 L 17.323 9.139 Z  M 17.481 9.299 L 17.435 9.299 L 17.435 8.975 L 17.552 8.975 C 17.608 8.977 17.65 9.023 17.65 9.08 C 17.65 9.12 17.629 9.155 17.594 9.175 L 17.662 9.299 L 17.61 9.299 L 17.548 9.185 L 17.481 9.185 L 17.481 9.299 L 17.481 9.299 Z  M 17.481 9.139 L 17.544 9.139 C 17.575 9.141 17.602 9.117 17.602 9.086 C 17.602 9.054 17.581 9.026 17.55 9.026 L 17.481 9.026 L 17.481 9.139 L 17.481 9.139 Z " fill="rgb(0,88,163)"/></g></g></svg>