<?xml version="1.0" encoding="UTF-8" standalone="no"?><!-- Generator: Gravit.io --><svg xmlns="http://www.w3.org/2000/svg" xmlns:xlink="http://www.w3.org/1999/xlink" style="isolation:isolate" viewBox="0 0 24 24" width="24pt" height="24pt"><defs><clipPath id="_clipPath_3t4ShrAYU9cUwh24CWeL7KHf330czAcK"><rect width="24" height="24"/></clipPath></defs><g clip-path="url(#_clipPath_3t4ShrAYU9cUwh24CWeL7KHf330czAcK)"><clipPath id="_clipPath_lbOwB4SugZcDpEHUoX45VqpqYXnYoWj7"><rect x="2.769" y="0" width="18.462" height="24" transform="matrix(1,0,0,1,0,0)" fill="rgb(255,255,255)"/></clipPath><g clip-path="url(#_clipPath_lbOwB4SugZcDpEHUoX45VqpqYXnYoWj7)"><g><g><g filter="url(#xczdsY8K7Ir9iOhBSctm7O8HCMls3Oqr)"><ellipse vector-effect="non-scaling-stroke" cx="11.949859191712658" cy="22.707692307692305" rx="3" ry="0.9307692307692328" fill="rgb(162,162,162)" fill-opacity="0.7"/></g><defs><filter id="xczdsY8K7Ir9iOhBSctm7O8HCMls3Oqr" x="-200%" y="-200%" width="400%" height="400%" filterUnits="objectBoundingBox" color-interpolation-filters="sRGB"><feGaussianBlur xmlns="http://www.w3.org/2000/svg" stdDeviation="4.293609062839028"/></filter></defs><g filter="url(#0zb7XEUGDgvvcgM9NkEDKE0AQKvMMgK7)"><path d=" M 3.642 8.581 C 3.642 3.941 7.374 0.185 11.972 0.185 C 16.576 0.185 20.308 3.941 20.308 8.581 C 20.308 11.072 19.226 13.317 17.509 14.855 C 17.414 14.937 14.142 18.006 11.951 22.708 C 11.126 19.38 7.929 16.182 6.461 14.876 C 4.731 13.331 3.642 11.086 3.642 8.581 Z " fill="rgb(252,183,19)"/></g><defs><filter id="0zb7XEUGDgvvcgM9NkEDKE0AQKvMMgK7" x="-200%" y="-200%" width="400%" height="400%" filterUnits="objectBoundingBox" color-interpolation-filters="sRGB"><feGaussianBlur xmlns="http://www.w3.org/2000/svg" stdDeviation="0"/></filter></defs></g><circle vector-effect="non-scaling-stroke" cx="11.953846153846154" cy="8.630769230769232" r="6.23076923076923" fill="rgb(10,69,146)"/><path d=" M 7.154 7.177 L 9.785 6.162 L 13.731 5.838 L 16.777 6.392 L 16.823 10.131 L 14.769 11.031 L 12.485 11.377 L 11.169 11.4 Q 10.292 11.377 9.854 11.308 C 9.415 11.238 8.838 11.123 8.377 10.985 Q 7.915 10.846 7.108 10.5 L 7.154 7.177 Z " fill="rgb(252,183,19)"/><g><path d=" M 13.564 7.304 L 15.929 7.304 L 15.72 7.986 L 14.741 7.975 L 14.07 10.054 L 13.168 10.021 L 13.839 7.975 L 13.322 7.975 L 13.564 7.304 Z " fill="rgb(10,69,146)"/><path d=" M 11.242 7.293 L 10.351 10.01 L 12.497 9.999 L 12.75 9.328 L 11.44 9.328 L 11.584 8.943 L 12.618 8.932 L 12.86 8.294 L 11.815 8.283 L 11.903 7.975 L 13.113 7.953 L 13.366 7.271 L 11.242 7.293 Z " fill="rgb(10,69,146)"/><path d=" M 9.933 7.271 L 10.791 7.293 L 10.373 8.558 Q 10.02 9.511 9.955 9.603 C 9.89 9.695 9.839 9.771 9.757 9.845 C 9.676 9.919 9.637 9.951 9.559 9.988 C 9.481 10.025 9.361 10.038 9.251 10.054 C 9.141 10.07 8.995 10.079 8.855 10.076 Q 8.716 10.073 8.448 10.032 L 8.085 9.988 L 8.294 9.317 L 8.547 9.35 L 8.844 9.372 Q 9.006 9.353 9.086 9.317 C 9.166 9.281 9.217 9.244 9.273 9.185 C 9.329 9.126 9.36 9.024 9.416 8.921 Q 9.519 8.612 9.68 8.129 L 9.933 7.271 Z " fill="rgb(10,69,146)"/><path d=" M 7.133 6.665 C 7.747 6.391 8.446 6.156 8.932 6.022 C 9.418 5.888 9.92 5.787 10.335 5.725 C 10.75 5.662 11.071 5.629 11.523 5.609 C 11.975 5.589 12.355 5.595 12.81 5.626 C 13.265 5.657 13.649 5.706 14.097 5.791 C 14.546 5.876 14.984 5.985 15.451 6.137 C 15.016 6.106 14.751 6.105 14.213 6.071 C 13.675 6.038 13.103 6.048 12.678 6.055 C 12.253 6.062 11.944 6.084 11.473 6.154 C 11.003 6.223 10.534 6.34 10.153 6.451 C 9.772 6.561 9.382 6.709 9.097 6.847 C 8.812 6.985 8.602 7.128 8.305 7.276 C 8.008 7.425 7.723 7.628 7.513 7.804 C 7.303 7.98 7.249 8.032 7.117 8.167 L 7.133 6.665 Z " fill="rgb(10,69,146)"/><path d=" M 16.87 9.306 L 16.853 10.412 C 16.608 10.558 16.393 10.669 16.127 10.775 C 15.862 10.88 15.583 10.964 15.442 11.006 C 15.302 11.047 15.052 11.117 14.84 11.171 C 14.628 11.224 14.32 11.278 14.015 11.328 C 13.71 11.377 13.476 11.402 13.173 11.435 C 12.871 11.468 12.574 11.473 12.249 11.468 C 11.924 11.463 11.8 11.472 11.556 11.468 C 11.312 11.464 11.181 11.452 10.978 11.435 C 10.776 11.418 10.312 11.366 9.955 11.303 L 10.615 11.352 C 10.859 11.36 11.035 11.357 11.308 11.352 C 11.582 11.347 11.977 11.319 12.084 11.303 C 12.191 11.286 12.794 11.187 12.95 11.162 C 13.107 11.138 13.563 11.046 13.883 10.956 C 14.203 10.866 14.488 10.766 14.774 10.643 C 15.06 10.52 15.296 10.402 15.566 10.247 C 15.836 10.092 16.448 9.683 16.87 9.306 Z " fill="rgb(10,69,146)"/></g></g></g></g></svg>