<?xml version="1.0" encoding="UTF-8" standalone="no"?><!-- Generator: Gravit.io --><svg xmlns="http://www.w3.org/2000/svg" xmlns:xlink="http://www.w3.org/1999/xlink" style="isolation:isolate" viewBox="0 0 400 520" width="400pt" height="520pt"><defs><clipPath id="_clipPath_NIGZmuveOKso6VZXn5Bhrondf9uVRQvy"><rect width="400" height="520"/></clipPath></defs><g clip-path="url(#_clipPath_NIGZmuveOKso6VZXn5Bhrondf9uVRQvy)"><g><defs><filter id="B2XRhHqhQo0UBzHd3zaTxN8RUQDzfGfN" x="-200%" y="-200%" width="400%" height="400%" filterUnits="objectBoundingBox" color-interpolation-filters="sRGB"><feGaussianBlur xmlns="http://www.w3.org/2000/svg" stdDeviation="4.293609062839028"/></filter></defs><g filter="url(#B2XRhHqhQo0UBzHd3zaTxN8RUQDzfGfN)"><ellipse vector-effect="non-scaling-stroke" cx="198.91361582044095" cy="490" rx="65" ry="20.166666666666686" fill="rgb(162,162,162)" fill-opacity="0.7"/></g><defs><filter id="GlONyieFdNO76Dqj82HgbVU5BDU4Jk0B" x="-200%" y="-200%" width="400%" height="400%" filterUnits="objectBoundingBox" color-interpolation-filters="sRGB"><feGaussianBlur xmlns="http://www.w3.org/2000/svg" stdDeviation="0"/></filter></defs><g filter="url(#GlONyieFdNO76Dqj82HgbVU5BDU4Jk0B)"><path d=" M 18.914 183.931 C 18.914 83.382 99.774 2 199.384 2 C 299.14 2 380 83.382 380 183.931 C 380 237.891 356.562 286.544 319.355 319.863 C 317.304 321.633 246.405 388.124 198.944 490 C 181.073 417.906 111.785 348.613 79.998 320.306 C 42.498 286.839 18.914 238.186 18.914 183.931 Z  M 311.005 183.931" fill="rgb(0,0,0)" vector-effect="non-scaling-stroke" stroke-width="2" stroke="rgb(0,0,0)" stroke-linejoin="miter" stroke-linecap="butt" stroke-miterlimit="4"/></g></g><circle vector-effect="non-scaling-stroke" cx="199" cy="184.99999999999997" r="135" fill="rgb(232,232,232)"/><circle vector-effect="non-scaling-stroke" cx="199.50000000000003" cy="184.64164608777287" r="125.49999999999997" fill="rgb(0,0,0)"/><g><g><g><path d=" M 141.576 117.388 L 145.5 117.388 L 145.5 140.843 C 145.5 143.473 145.371 146.405 143.473 148.475 C 142.568 149.467 141.404 150.07 140.067 150.329 C 139.981 150.286 136.445 146.707 136.445 146.707 C 137.523 146.707 138.601 146.793 139.636 146.362 C 140.326 146.103 140.843 145.629 141.145 144.939 C 141.49 144.249 141.619 142.697 141.619 140.412 L 141.619 117.388 L 141.576 117.388 Z " fill="rgb(255,255,255)"/><path d=" M 171.801 120.708 C 168.653 120.708 166.109 121.7 164.083 123.64 C 162.056 125.623 161.065 128.124 161.065 131.142 C 161.065 134.117 162.1 136.575 164.083 138.515 C 166.109 140.455 168.653 141.447 171.671 141.447 C 174.733 141.447 177.277 140.455 179.303 138.429 C 181.329 136.445 182.364 133.945 182.364 130.97 C 182.364 128.081 181.329 125.623 179.303 123.64 C 177.32 121.7 174.776 120.708 171.801 120.708 Z  M 171.671 117 C 175.897 117 179.432 118.337 182.235 121.01 C 185.037 123.683 186.46 127.046 186.46 131.099 C 186.46 135.152 185.037 138.472 182.192 141.145 C 179.346 143.775 175.767 145.112 171.456 145.112 C 167.317 145.112 163.867 143.775 161.151 141.145 C 158.392 138.515 157.012 135.195 157.012 131.185 C 157.012 127.089 158.392 123.726 161.151 121.01 C 163.91 118.293 167.446 117 171.671 117 Z " fill="rgb(255,255,255)"/><path d=" M 217.892 117.388 L 221.816 117.388 L 221.816 144.767 L 217.892 144.767 L 217.892 132.867 L 201.853 132.867 L 201.853 144.767 L 197.929 144.767 L 197.929 117.388 L 201.853 117.388 L 201.853 129.331 L 217.892 129.331 L 217.892 117.388 Z " fill="rgb(255,255,255)"/><path d=" M 258.249 117.388 L 261.957 117.388 L 261.957 144.767 L 258.594 144.767 L 239.45 123.683 L 239.45 144.767 L 235.785 144.767 L 235.785 117.388 L 238.933 117.388 L 258.249 138.644 L 258.249 117.388 Z " fill="rgb(255,255,255)"/><path d=" M 125.494 176.155 L 125.494 203.707 L 142.395 203.707 L 142.395 200.171 L 129.461 200.171 L 129.461 176.155 L 125.494 176.155 Z " fill="rgb(255,255,255)"/><path d=" M 155.589 176.155 L 155.589 203.707 L 173.353 203.707 L 173.353 200.171 L 159.556 200.171 L 159.556 191.591 L 172.62 191.591 L 172.62 188.012 L 159.556 188.012 L 159.556 179.691 L 173.008 179.691 L 173.008 176.155 L 155.589 176.155 Z " fill="rgb(255,255,255)"/><path d=" M 222.807 176.155 L 215.305 195.127 L 207.63 176.155 L 203.879 176.155 L 196.248 195.127 L 188.616 176.155 L 184.693 176.155 L 195.816 203.965 L 196.593 203.965 L 205.733 181.416 L 214.788 203.965 L 215.564 203.965 L 226.731 176.155 L 222.807 176.155 Z " fill="rgb(255,255,255)"/><path d=" M 238.674 203.707 L 242.598 203.707 L 242.598 176.155 L 238.674 176.155 L 238.674 203.707 Z " fill="rgb(255,255,255)"/><path d=" M 264.889 192.238 L 261.871 190.427 C 259.973 189.263 258.809 188.142 257.947 187.064 C 257.042 185.943 256.61 184.606 256.61 183.14 C 256.61 180.984 257.343 179.217 258.852 177.837 C 260.361 176.457 262.345 175.811 264.759 175.811 C 267.303 175.811 269.157 176.457 271.097 177.751 L 271.097 182.235 C 269.114 180.338 266.958 179.389 264.673 179.389 C 263.38 179.389 262.345 179.691 261.482 180.295 C 260.663 180.898 260.232 181.674 260.232 182.623 C 260.232 183.442 260.448 184.132 261.051 184.865 C 261.655 185.598 262.733 186.417 264.113 187.236 L 267.217 189.004 C 270.58 191.031 272.132 193.574 272.132 196.679 C 272.132 198.878 271.356 200.732 269.89 202.068 C 268.424 203.448 266.527 204.181 264.156 204.138 C 261.439 204.095 259.025 203.319 256.74 201.594 L 256.74 196.593 C 258.852 199.309 261.353 200.602 264.113 200.602 C 265.363 200.602 266.398 200.301 267.217 199.611 C 268.036 198.921 268.467 198.058 268.467 197.024 C 268.554 195.299 267.303 193.747 264.889 192.238 Z " fill="rgb(255,255,255)"/><path d=" M 128.296 237.294 C 128.296 237.639 128.426 237.984 128.685 238.415 C 128.943 238.846 129.245 239.234 129.59 239.536 C 130.107 239.234 130.539 238.89 130.84 238.545 C 131.142 238.2 131.315 237.812 131.315 237.38 C 131.315 236.992 131.185 236.647 130.883 236.346 C 130.582 236.087 130.237 235.958 129.762 235.958 C 129.374 235.958 129.029 236.087 128.728 236.303 C 128.426 236.604 128.296 236.906 128.296 237.294 Z  M 126.529 245.012 C 126.529 245.486 126.701 245.874 127.089 246.219 C 127.477 246.564 127.908 246.694 128.383 246.694 C 129.245 246.694 130.15 246.262 131.099 245.443 L 128.555 242.554 C 127.908 242.942 127.434 243.331 127.089 243.719 C 126.701 244.15 126.529 244.538 126.529 245.012 Z  M 129.806 233.845 C 130.927 233.845 131.918 234.147 132.651 234.794 C 133.427 235.44 133.772 236.259 133.772 237.251 C 133.772 237.984 133.557 238.631 133.082 239.278 C 132.651 239.924 131.918 240.528 131.013 241.132 L 133.082 243.503 C 133.686 242.899 134.247 242.123 134.764 241.132 L 137.48 241.132 C 136.79 242.856 135.842 244.236 134.764 245.357 L 137.782 248.763 L 134.074 248.763 L 132.694 247.211 C 131.918 247.858 131.228 248.289 130.495 248.548 C 129.806 248.806 128.943 248.979 127.995 248.979 C 126.787 248.979 125.796 248.634 124.933 247.901 C 124.114 247.168 123.683 246.262 123.683 245.228 C 123.683 244.365 123.985 243.546 124.588 242.856 C 125.192 242.166 126.011 241.52 127.132 240.916 C 126.615 240.269 126.227 239.666 126.011 239.148 C 125.753 238.631 125.666 238.07 125.666 237.51 C 125.666 236.432 126.054 235.526 126.874 234.837 C 127.564 234.19 128.598 233.845 129.806 233.845 Z " fill="rgb(255,255,255)"/><path d=" M 152.83 240.226 C 153.606 240.226 154.209 240.054 154.64 239.709 C 155.072 239.364 155.287 238.846 155.287 238.157 C 155.287 236.777 154.425 236.087 152.657 236.087 L 150.674 236.087 L 150.674 240.226 L 152.83 240.226 Z  M 153.563 233.845 C 154.942 233.845 156.106 234.233 156.969 235.052 C 157.831 235.871 158.262 236.906 158.262 238.157 C 158.262 239.45 157.831 240.485 156.926 241.304 C 156.063 242.123 154.856 242.511 153.433 242.511 L 150.674 242.511 L 150.674 248.763 L 147.785 248.763 L 147.785 233.845 L 153.563 233.845 Z " fill="rgb(255,255,255)"/><path d=" M 165.549 242.942 L 170.378 242.942 L 167.877 237.036 L 165.549 242.942 Z  M 169.343 233.845 L 175.94 248.763 L 172.879 248.763 L 171.326 245.141 L 164.687 245.141 L 163.264 248.763 L 160.246 248.763 L 166.411 233.845 L 169.343 233.845 Z " fill="rgb(255,255,255)"/><path d=" M 184.477 240.183 C 185.253 240.183 185.814 240.011 186.245 239.623 C 186.676 239.234 186.891 238.717 186.891 238.07 C 186.891 237.38 186.676 236.863 186.245 236.518 C 185.814 236.173 185.21 236.001 184.434 236.001 L 182.623 236.001 L 182.623 240.14 L 184.477 240.14 L 184.477 240.183 Z  M 185.124 233.845 C 186.546 233.845 187.668 234.233 188.573 235.009 C 189.435 235.785 189.91 236.777 189.91 238.027 C 189.91 238.89 189.694 239.623 189.263 240.226 C 188.832 240.873 188.185 241.347 187.323 241.692 C 187.797 241.951 188.228 242.296 188.616 242.727 C 189.004 243.158 189.435 243.934 189.996 244.969 C 190.901 246.78 191.591 248.03 192.022 248.72 L 188.789 248.72 C 188.573 248.375 188.271 247.858 187.883 247.168 C 187.064 245.573 186.46 244.495 186.072 243.977 C 185.684 243.417 185.339 243.029 184.951 242.813 C 184.606 242.598 184.175 242.468 183.701 242.468 L 182.666 242.468 L 182.666 248.763 L 179.777 248.763 L 179.777 233.845 L 185.124 233.845 Z " fill="rgb(255,255,255)"/><path d=" M 207.717 233.845 L 207.717 236.087 L 202.413 236.087 L 202.413 248.763 L 199.524 248.763 L 199.524 236.087 L 194.221 236.087 L 194.221 233.845 L 207.717 233.845 Z " fill="rgb(255,255,255)"/><path d=" M 214.96 233.845 L 223.842 244.236 L 223.842 233.845 L 226.645 233.845 L 226.645 248.763 L 224.187 248.763 L 215.262 238.157 L 215.262 248.763 L 212.416 248.763 L 212.416 233.845 L 214.96 233.845 Z " fill="rgb(255,255,255)"/><path d=" M 242.339 233.845 L 242.339 236.087 L 235.57 236.087 L 235.57 240.011 L 242.037 240.011 L 242.037 242.253 L 235.57 242.253 L 235.57 246.521 L 242.468 246.521 L 242.468 248.763 L 232.681 248.763 L 232.681 233.845 L 242.339 233.845 Z " fill="rgb(255,255,255)"/><path d=" M 252.773 240.183 C 253.506 240.183 254.11 240.011 254.541 239.623 C 254.972 239.234 255.188 238.717 255.188 238.07 C 255.188 237.38 254.972 236.863 254.541 236.518 C 254.11 236.173 253.506 236.001 252.73 236.001 L 250.919 236.001 L 250.919 240.14 L 252.773 240.14 L 252.773 240.183 Z  M 253.42 233.845 C 254.843 233.845 255.964 234.233 256.869 235.009 C 257.731 235.785 258.206 236.777 258.206 238.027 C 258.206 238.89 257.99 239.623 257.559 240.226 C 257.128 240.873 256.481 241.347 255.619 241.692 C 256.093 241.951 256.524 242.296 256.869 242.727 C 257.257 243.158 257.688 243.934 258.249 244.969 C 259.154 246.78 259.844 248.03 260.275 248.72 L 257.042 248.72 C 256.826 248.375 256.524 247.858 256.136 247.168 C 255.317 245.573 254.713 244.495 254.325 243.977 C 253.937 243.417 253.549 243.029 253.204 242.813 C 252.859 242.598 252.428 242.468 251.997 242.468 L 250.962 242.468 L 250.962 248.763 L 248.03 248.763 L 248.03 233.845 L 253.42 233.845 Z " fill="rgb(255,255,255)"/><path d=" M 268.898 233.629 C 270.364 233.629 271.744 233.974 273.081 234.707 L 273.081 237.251 C 271.529 236.303 270.149 235.828 268.985 235.828 C 268.252 235.828 267.691 235.958 267.303 236.259 C 266.872 236.561 266.7 236.906 266.7 237.38 C 266.7 237.941 267.088 238.458 267.821 238.933 C 268.036 239.062 268.855 239.493 270.278 240.14 C 271.485 240.7 272.391 241.347 272.951 242.08 C 273.512 242.77 273.771 243.632 273.771 244.624 C 273.771 245.917 273.296 246.952 272.391 247.728 C 271.485 248.504 270.278 248.893 268.812 248.893 C 267.864 248.893 267.044 248.806 266.355 248.591 C 265.665 248.375 264.889 248.03 264.026 247.513 L 264.026 244.667 C 265.622 246.004 267.131 246.65 268.554 246.65 C 269.243 246.65 269.847 246.478 270.278 246.176 C 270.709 245.874 270.925 245.443 270.925 244.969 C 270.925 244.279 270.537 243.719 269.804 243.287 C 269.157 242.942 268.381 242.554 267.389 242.037 C 266.225 241.52 265.32 240.873 264.759 240.183 C 264.199 239.493 263.897 238.631 263.897 237.725 C 263.897 236.475 264.371 235.483 265.277 234.707 C 266.139 234.017 267.389 233.629 268.898 233.629 Z " fill="rgb(255,255,255)"/></g></g></g></g></svg>