<?xml version="1.0" encoding="UTF-8" standalone="no"?><!-- Generator: Gravit.io --><svg xmlns="http://www.w3.org/2000/svg" xmlns:xlink="http://www.w3.org/1999/xlink" style="isolation:isolate" viewBox="0 0 400 520" width="400pt" height="520pt"><defs><clipPath id="_clipPath_f6Kk3dwUcgkSZDia1ryBGQLZMSVtuPA6"><rect width="400" height="520"/></clipPath></defs><g clip-path="url(#_clipPath_f6Kk3dwUcgkSZDia1ryBGQLZMSVtuPA6)"><clipPath id="_clipPath_k72LdKEOsQnsVedpu0CYWytbO8EwyWdm"><rect x="0" y="0" width="400" height="520" transform="matrix(1,0,0,1,0,0)" fill="rgb(255,255,255)"/></clipPath><g clip-path="url(#_clipPath_k72LdKEOsQnsVedpu0CYWytbO8EwyWdm)"><g><g><g filter="url(#FKm3ZPPrA9LMZwFqGexTcdiL0fwqKVlo)"><ellipse vector-effect="non-scaling-stroke" cx="198.91361582044095" cy="491.99999999999994" rx="65" ry="20.166666666666686" fill="rgb(162,162,162)" fill-opacity="0.7"/></g><defs><filter id="FKm3ZPPrA9LMZwFqGexTcdiL0fwqKVlo" x="-200%" y="-200%" width="400%" height="400%" filterUnits="objectBoundingBox" color-interpolation-filters="sRGB"><feGaussianBlur xmlns="http://www.w3.org/2000/svg" stdDeviation="4.293609062839028"/></filter></defs><g filter="url(#7DDCUZ0IwRQ9Ya07INBiGXLVRNbvAHHD)"><path d=" M 18.914 185.931 C 18.914 85.382 99.774 4 199.384 4 C 299.14 4 380 85.382 380 185.931 C 380 239.891 356.562 288.544 319.355 321.863 C 317.304 323.633 246.405 390.124 198.944 492 C 181.073 419.906 111.785 350.613 79.998 322.306 C 42.498 288.839 18.914 240.186 18.914 185.931 Z " fill="rgb(7,128,7)"/></g><defs><filter id="7DDCUZ0IwRQ9Ya07INBiGXLVRNbvAHHD" x="-200%" y="-200%" width="400%" height="400%" filterUnits="objectBoundingBox" color-interpolation-filters="sRGB"><feGaussianBlur xmlns="http://www.w3.org/2000/svg" stdDeviation="0"/></filter></defs></g><circle vector-effect="non-scaling-stroke" cx="199" cy="186.99999999999997" r="135" fill="rgb(0,0,0)"/><circle vector-effect="non-scaling-stroke" cx="199.50000000000003" cy="186.64164608777287" r="125.49999999999997" fill="rgb(227,0,11)"/><g><path d=" M 87.26 134.39 L 88.955 241.74 L 311 240.61 L 309.305 134.39 L 87.26 134.39 L 87.26 134.39 Z  M 296.385 167.584 C 296.032 174.518 293.803 183.151 291.857 188.953 C 284.003 212.232 274.91 226.702 253.86 226.702 C 247.669 226.702 236.666 225.039 232.633 214.001 L 231.642 211.418 L 229.944 213.576 C 223.486 221.855 213.591 226.718 203.091 226.773 C 195.06 226.808 188.586 224.119 184.447 218.989 L 183.279 217.574 L 182.076 218.919 C 177.619 223.872 169.835 226.702 160.743 226.702 C 154.262 226.96 147.971 224.482 143.407 219.874 L 142.346 218.671 L 141.178 219.838 C 136.65 224.367 129.574 226.666 120.659 226.454 C 109.797 226.207 103.217 220.157 103.005 210.286 C 102.651 195.073 117.404 163.055 123.524 153.326 C 126.797 147.224 133.23 143.487 140.152 143.668 C 145.105 143.668 148.466 144.694 150.448 146.816 C 152.287 148.727 152.641 150.354 152.783 154.281 L 152.995 159.341 L 155.684 155.06 C 162.158 144.623 172.842 143.208 183.491 143.208 C 190.85 143.208 197.289 145.897 199.872 150.107 L 200.827 151.663 L 202.242 150.496 C 208.408 145.609 216.1 143.053 223.965 143.279 C 233.27 143.279 240.062 145.578 244.095 150.177 C 245.015 151.203 245.617 151.946 246.466 153.715 L 247.527 155.873 L 249.048 154.034 C 255.015 147 263.891 143.111 273.106 143.491 C 281.031 143.491 287.045 145.614 291.008 149.753 C 295.961 154.989 296.668 162.312 296.385 167.548 L 296.385 167.584 L 296.385 167.584 Z " fill="rgb(255,237,0)"/><path d=" M 87.26 132.695 L 88.39 244 L 311 242.305 L 311 131 L 87.26 132.695 L 87.26 132.695 Z  M 302.647 176.11 C 301.621 184.247 296.138 199.283 293.237 205.262 C 285.453 221.395 274.981 233.742 254.851 233.742 C 244.095 233.742 235.251 230.346 230.085 223.73 C 222.625 230.31 213.003 233.912 203.056 233.848 C 195.273 233.848 188.409 231.62 183.173 227.48 C 176.586 231.808 168.834 234.018 160.955 233.813 C 154.242 233.953 147.656 231.972 142.134 228.152 C 135.638 232.121 128.08 233.998 120.482 233.53 C 106.083 233.176 96.106 224.048 95.823 210.781 C 95.469 193.163 110.328 160.897 117.298 149.753 C 121.962 141.464 130.784 136.388 140.294 136.521 C 150.908 136.521 154.799 139.564 156.674 143.42 C 164.882 136.486 175.744 136.061 183.491 136.061 C 191.982 136.061 197.36 138.326 201.924 141.97 C 208.629 138.036 216.299 136.051 224.071 136.238 C 235.038 136.238 243.211 138.785 248.907 144.411 C 255.789 138.912 264.408 136.052 273.212 136.344 C 285.524 136.344 293.626 140.802 298.367 147.418 C 305.089 156.758 303.886 166.169 302.647 176.11 Z " fill="rgb(227,0,11)"/><path d=" M 273.071 141.934 C 263.402 141.565 254.101 145.661 247.846 153.043 C 247.204 151.613 246.332 150.298 245.263 149.151 C 240.77 144.092 233.588 141.722 223.93 141.722 C 214.519 141.722 206.665 144.658 201.216 149.293 C 198.386 144.694 191.593 141.651 183.456 141.651 C 172.842 141.651 161.238 143.172 154.339 154.246 C 154.198 150.248 153.809 148.125 151.58 145.755 C 148.856 142.889 144.433 142.111 140.152 142.111 C 132.679 141.91 125.728 145.932 122.18 152.512 C 116.024 162.312 101.094 194.649 101.448 210.321 C 101.66 220.44 108.453 227.728 120.588 228.011 C 130.069 228.259 137.534 225.711 142.275 220.935 C 147.127 225.865 153.831 228.524 160.743 228.259 C 169.411 228.259 178.079 225.641 183.208 219.98 C 187.56 225.287 194.353 228.4 203.091 228.365 C 214.061 228.297 224.396 223.214 231.147 214.567 C 234.755 224.367 243.883 228.259 253.86 228.259 C 275.724 228.259 285.347 213.223 293.343 189.448 C 295.112 184.106 297.553 175.155 297.942 167.655 C 298.579 155.166 293.307 141.934 273.071 141.934 Z " fill="rgb(0,0,0)"/><path d=" M 127.628 201.724 C 138.95 199.743 141.78 203.847 141.426 207.597 C 140.365 218.919 129.963 221.466 120.906 221.254 C 114.397 221.112 108.488 218.105 108.311 210.498 C 108.028 197.196 121.614 166.416 127.982 156.227 C 130.954 151.38 134.527 148.975 140.259 148.975 C 145.707 148.975 147.051 151.805 146.981 155.13 C 146.768 164.011 132.369 191.111 127.628 201.689 L 127.628 201.724 L 127.628 201.724 Z " fill="rgb(255,255,255)"/><path d=" M 164.458 191.252 C 163.189 194.783 162.091 198.372 161.167 202.007 C 164.821 200.951 168.616 200.462 172.418 200.557 C 177.831 200.698 181.333 202.927 181.333 207.42 C 181.333 218.317 169.305 221.501 160.92 221.537 C 151.757 221.537 143.69 216.301 143.69 206.288 C 143.69 194.507 150.058 176.676 156.073 164.824 C 163.396 150.213 170.932 148.302 183.845 148.302 C 189.506 148.302 196.051 150.708 196.051 156.086 C 196.051 163.515 189.754 166.346 183.527 166.699 C 180.838 166.876 176.734 167.018 174.293 166.841 C 174.293 166.841 172.206 170.025 170.012 175.65 C 181.581 174.023 186.463 176.641 184.517 183.327 C 181.864 192.349 174.045 192.95 164.458 191.252 Z " fill="rgb(255,255,255)"/><path d=" M 221.347 163.126 C 218.198 163.126 216.182 165.107 214.625 167.23 C 211.299 171.971 204.011 190.828 202.879 198.576 C 202.136 203.883 204.4 204.944 206.912 204.944 C 210.945 204.944 215.439 200.698 216.995 193.693 C 216.995 193.693 209.318 193.517 211.441 186.724 C 213.493 180.143 217.384 178.728 223.823 178.445 C 236.524 177.914 235.251 187.29 234.26 192.314 C 230.935 208.553 219.401 221.572 203.056 221.572 C 191.876 221.572 184.907 215.381 184.907 203.989 C 184.907 195.852 188.94 183.115 192.159 175.615 C 198.952 159.694 206.099 148.621 224.248 148.621 C 235.18 148.621 243.777 152.512 242.503 162.772 C 241.584 170.237 237.833 174.66 231.005 175.155 C 229.095 175.332 221.311 175.155 223.894 167.725 C 224.814 165.143 225.168 163.126 221.347 163.126 Z " fill="rgb(255,255,255)"/><path d=" M 289.982 176.57 C 288.071 186.122 283.755 197.444 279.05 205.864 C 271.408 219.661 262.103 221.572 253.966 221.466 C 245.864 221.36 236.701 218.388 236.631 205.864 C 236.595 196.878 240.487 184.177 243.777 175.862 C 249.508 160.756 255.381 148.479 273.92 148.692 C 295.501 148.939 291.68 168.15 289.982 176.535 L 289.982 176.57 L 289.982 176.57 Z " fill="rgb(255,255,255)"/><path d=" M 274.557 167.124 C 274.344 172.891 265.889 195.993 262.882 201.088 C 261.573 203.281 260.122 205.121 257.469 205.121 C 255.169 205.121 254.108 203.458 254.037 201.583 C 253.895 196.382 263.448 170.273 266.738 166.027 C 268.153 163.763 269.78 163.409 271.656 163.445 C 274.38 163.445 274.627 165.426 274.557 167.124 Z " fill="rgb(0,0,0)"/></g></g></g></g></svg>