<?xml version="1.0" encoding="UTF-8" standalone="no"?><!-- Generator: Gravit.io --><svg xmlns="http://www.w3.org/2000/svg" xmlns:xlink="http://www.w3.org/1999/xlink" style="isolation:isolate" viewBox="0 0 24 24" width="24pt" height="24pt"><defs><clipPath id="_clipPath_k9VXIDC9qf6Ped4ycFU1At9UNSfOCo4E"><rect width="24" height="24"/></clipPath></defs><g clip-path="url(#_clipPath_k9VXIDC9qf6Ped4ycFU1At9UNSfOCo4E)"><clipPath id="_clipPath_vEo0qNnj7VLv936m4vLPfqOyUCGnNXZn"><rect x="0" y="0" width="24" height="24" transform="matrix(1,0,0,1,0,0)" fill="rgb(255,255,255)"/></clipPath><g clip-path="url(#_clipPath_vEo0qNnj7VLv936m4vLPfqOyUCGnNXZn)"><g><clipPath id="_clipPath_m9VFciGGdFErxHZ9XPTz1pM9u0JFI9FR"><rect x="0" y="0" width="24" height="24" transform="matrix(1,0,0,1,0,0)" fill="rgb(255,255,255)"/></clipPath><g clip-path="url(#_clipPath_m9VFciGGdFErxHZ9XPTz1pM9u0JFI9FR)"><g><g><path d=" M 18.593 16.825 C 20.37 15.006 21.563 12.624 21.563 9.901 C 21.563 4.623 17.278 0.338 12 0.338 C 6.722 0.338 2.438 4.623 2.438 9.901 C 2.438 12.657 3.526 14.954 5.474 16.888 L 5.473 16.888 L 11.611 23.662 L 18.605 16.825 L 18.593 16.825 Z " fill="rgb(162,162,162)"/></g></g></g></g></g><g><path d=" M 18.475 9.277 C 18.041 9.277 17.697 9.664 17.697 10.199 C 17.697 10.733 18.038 11.17 18.475 11.17 C 18.903 11.17 19.203 10.725 19.203 10.199 C 19.203 9.672 18.903 9.277 18.475 9.277 Z  M 18.45 11.977 C 17.517 11.977 16.729 11.175 16.729 10.223 C 16.729 9.26 17.534 8.464 18.48 8.464 C 19.408 8.464 20.188 9.255 20.188 10.21 C 20.188 10.671 20.003 11.112 19.667 11.451 C 19.334 11.786 18.892 11.977 18.45 11.977 Z " fill="rgb(217,39,46)"/><path d=" M 7.956 11.958 C 7.634 11.958 7.487 11.647 7.487 11.426 L 7.487 9.809 C 7.487 9.768 7.498 9.405 7.067 9.405 C 6.704 9.405 6.603 9.522 6.598 9.819 L 6.598 11.483 C 6.598 11.513 6.581 11.688 6.467 11.814 C 6.39 11.898 6.281 11.939 6.142 11.939 C 5.804 11.939 5.648 11.683 5.648 11.522 L 5.648 9.789 C 5.648 9.669 5.588 9.399 5.206 9.399 C 4.846 9.399 4.759 9.601 4.759 9.789 L 4.759 10.081 L 4.759 11.584 L 4.759 11.595 C 4.743 11.724 4.571 11.964 4.257 11.964 C 3.981 11.964 3.812 11.729 3.812 11.511 L 3.812 9.064 C 3.812 9.026 3.801 8.884 3.897 8.772 C 3.973 8.682 4.091 8.638 4.243 8.638 C 4.246 8.638 4.254 8.638 4.262 8.638 C 4.32 8.638 4.489 8.652 4.614 8.816 C 4.729 8.704 4.969 8.515 5.381 8.507 C 5.916 8.496 6.18 8.679 6.352 8.856 C 6.475 8.734 6.758 8.507 7.181 8.507 C 7.713 8.507 7.989 8.761 8.147 8.952 C 8.281 9.113 8.423 9.438 8.423 9.776 L 8.423 11.443 C 8.425 11.62 8.324 11.958 7.956 11.958 Z " fill="rgb(217,39,46)"/><path d=" M 10.67 10.34 C 10.618 10.351 10.55 10.362 10.463 10.379 C 10.308 10.406 10.111 10.436 9.893 10.49 C 9.74 10.526 9.566 10.692 9.557 10.872 C 9.555 10.949 9.582 11.022 9.634 11.08 C 9.718 11.167 9.857 11.213 10.037 11.213 C 10.048 11.213 10.059 11.213 10.07 11.213 C 10.523 11.2 10.616 10.968 10.651 10.796 C 10.679 10.635 10.676 10.455 10.67 10.34 Z  M 9.846 11.958 C 9.511 11.958 9.216 11.844 8.965 11.617 L 8.963 11.614 C 8.946 11.598 8.553 11.216 8.693 10.613 L 8.693 10.611 C 8.81 10.155 9.263 9.882 10.111 9.748 L 10.127 9.746 C 10.373 9.694 10.588 9.648 10.646 9.514 C 10.698 9.378 10.689 9.279 10.49 9.189 C 10.138 9.077 9.868 9.159 9.691 9.429 C 9.601 9.566 9.418 9.661 9.244 9.661 C 9.061 9.661 8.924 9.558 8.881 9.388 C 8.834 9.206 8.867 9.034 8.979 8.889 C 9.186 8.622 9.658 8.455 10.215 8.455 C 11.017 8.455 11.535 8.796 11.535 9.323 C 11.535 9.759 11.568 11.388 11.571 11.462 C 11.573 11.492 11.581 11.68 11.467 11.808 C 11.396 11.887 11.298 11.928 11.175 11.931 C 11.167 11.931 11.161 11.931 11.153 11.931 L 11.153 11.931 C 10.886 11.931 10.758 11.816 10.7 11.729 C 10.55 11.811 10.226 11.958 9.846 11.958 Z " fill="rgb(217,39,46)"/><path d=" M 12.293 11.955 C 12.092 11.955 11.944 11.849 11.871 11.647 C 11.816 11.5 11.816 11.342 11.816 11.284 L 11.816 8.494 C 11.816 8.439 11.794 8.095 11.936 7.937 C 12.012 7.85 12.113 7.803 12.242 7.801 L 12.285 7.801 C 12.43 7.801 12.76 7.798 12.76 8.477 L 12.76 9.904 L 13.693 8.946 C 13.693 8.946 14.012 8.597 14.228 8.6 C 14.361 8.603 14.443 8.652 14.528 8.753 C 14.593 8.826 14.626 8.914 14.612 9.004 C 14.59 9.159 14.356 9.367 14.315 9.408 L 13.761 9.969 L 14.593 11.167 C 14.612 11.192 14.746 11.372 14.719 11.568 C 14.705 11.674 14.648 11.767 14.549 11.838 C 14.468 11.898 14.383 11.928 14.296 11.931 C 14.039 11.934 13.843 11.595 13.827 11.579 L 13.153 10.624 L 12.763 11.006 L 12.752 11.494 C 12.752 11.653 12.656 11.955 12.293 11.955 Z " fill="rgb(217,39,46)"/><path d=" M 15.455 11.953 C 15.439 11.953 15.289 11.947 15.177 11.835 C 15.054 11.715 15.005 11.497 15.005 11.082 L 15.005 9.094 C 15.002 9.058 14.994 8.818 15.139 8.66 C 15.218 8.573 15.33 8.529 15.463 8.529 C 15.671 8.529 15.799 8.663 15.867 8.766 C 15.924 8.706 16.009 8.636 16.115 8.581 C 16.23 8.524 16.342 8.494 16.445 8.494 C 16.579 8.494 16.765 8.545 16.887 8.788 L 16.89 8.796 C 16.934 8.911 16.925 9.023 16.871 9.121 C 16.816 9.217 16.691 9.339 16.396 9.394 C 15.935 9.473 15.93 9.953 15.93 9.972 C 15.93 10.133 15.938 11.134 15.938 11.183 C 15.941 11.222 15.957 11.617 15.761 11.824 C 15.682 11.909 15.578 11.953 15.455 11.953 L 15.455 11.953 Z " fill="rgb(217,39,46)"/></g></g></svg>