<?xml version="1.0" encoding="UTF-8" standalone="no"?><!-- Generator: Gravit.io --><svg xmlns="http://www.w3.org/2000/svg" xmlns:xlink="http://www.w3.org/1999/xlink" style="isolation:isolate" viewBox="0 0 24 24" width="24pt" height="24pt"><defs><clipPath id="_clipPath_MiQTH6dlrm4uchzcAXd3Syt8P6GEbwgO"><rect width="24" height="24"/></clipPath></defs><g clip-path="url(#_clipPath_MiQTH6dlrm4uchzcAXd3Syt8P6GEbwgO)"><clipPath id="_clipPath_P25Xx9vICS9BmEpWQxFFSvEOSC9OiIDX"><rect x="2.769" y="0" width="18.462" height="24" transform="matrix(1,0,0,1,0,0)" fill="rgb(255,255,255)"/></clipPath><g clip-path="url(#_clipPath_P25Xx9vICS9BmEpWQxFFSvEOSC9OiIDX)"><g><g><g filter="url(#4XInvd5BCskSMvRe1acb9pUYrZvKmnWS)"><ellipse vector-effect="non-scaling-stroke" cx="11.949859191712658" cy="22.707692307692305" rx="3" ry="0.9307692307692328" fill="rgb(162,162,162)" fill-opacity="0.7"/></g><defs><filter id="4XInvd5BCskSMvRe1acb9pUYrZvKmnWS" x="-200%" y="-200%" width="400%" height="400%" filterUnits="objectBoundingBox" color-interpolation-filters="sRGB"><feGaussianBlur xmlns="http://www.w3.org/2000/svg" stdDeviation="4.293609062839028"/></filter></defs><g filter="url(#6oji1ucG3EUhMoj03sBYu9ALGZkyEGrG)"><path d=" M 3.642 8.581 C 3.642 3.941 7.374 0.185 11.972 0.185 C 16.576 0.185 20.308 3.941 20.308 8.581 C 20.308 11.072 19.226 13.317 17.509 14.855 C 17.414 14.937 14.142 18.006 11.951 22.708 C 11.126 19.38 7.929 16.182 6.461 14.876 C 4.731 13.331 3.642 11.086 3.642 8.581 Z " fill="rgb(192,55,117)"/></g><defs><filter id="6oji1ucG3EUhMoj03sBYu9ALGZkyEGrG" x="-200%" y="-200%" width="400%" height="400%" filterUnits="objectBoundingBox" color-interpolation-filters="sRGB"><feGaussianBlur xmlns="http://www.w3.org/2000/svg" stdDeviation="0"/></filter></defs></g><circle vector-effect="non-scaling-stroke" cx="11.953846153846154" cy="8.630769230769232" r="6.23076923076923" fill="rgb(254,220,0)"/><circle vector-effect="non-scaling-stroke" cx="11.976923076923075" cy="8.614229819435671" r="5.79230769230769" fill="rgb(255,255,255)"/><g><path d=" M 7.868 7.674 C 8 7.079 8.237 6.592 8.661 6.156 C 9.085 5.719 9.252 5.582 9.707 5.396 C 10.163 5.211 10.628 5.173 11.175 5.194 C 11.722 5.215 12.191 5.401 12.66 5.7 C 12.375 5.33 11.852 4.998 11.614 4.907 C 11.375 4.816 11.046 4.753 10.755 4.727 Q 10.451 4.74 9.775 4.857 Q 10.418 4.53 10.804 4.452 C 11.259 4.384 11.706 4.397 12.187 4.519 C 12.668 4.641 12.913 4.722 13.267 4.958 C 13.621 5.194 13.85 5.479 14.06 5.801 C 14.269 6.123 14.318 6.338 14.363 6.695 C 14.409 7.053 14.448 7.37 14.38 7.691 C 14.313 8.011 14.254 8.315 14.178 8.467 C 14.102 8.619 14.024 8.804 13.959 8.922 C 13.893 9.04 13.638 9.361 13.402 9.547 Q 13.132 9.783 12.356 10.053 C 12.751 9.918 13.043 9.665 13.233 9.293 C 13.424 8.922 13.415 8.799 13.402 8.517 C 13.389 8.236 13.301 7.859 13.098 7.573 C 12.896 7.286 12.778 7.151 12.39 6.881 C 12.002 6.611 11.672 6.49 11.36 6.392 C 11.048 6.294 10.641 6.275 10.348 6.291 C 10.056 6.306 9.775 6.392 9.42 6.56 C 9.066 6.729 8.852 6.867 8.611 7.05 C 8.369 7.233 8.111 7.435 7.868 7.674 Z " fill="rgb(254,220,0)"/><path d=" M 12.558 9.935 L 13.132 9.631 C 13.316 9.471 13.448 9.325 13.621 9.142 C 13.794 8.958 13.943 8.764 14.095 8.498 C 14.247 8.232 14.287 8.131 14.347 7.843 C 14.388 7.614 14.429 7.579 14.414 7.185 C 14.399 6.79 14.345 6.649 14.297 6.385 C 14.25 6.121 14.141 5.823 13.994 5.6 C 13.846 5.378 13.602 4.993 13.412 4.829 L 12.913 4.452 Q 13.424 4.639 13.614 4.702 C 13.804 4.791 14.04 4.946 14.212 5.093 C 14.383 5.239 14.474 5.334 14.6 5.481 C 14.725 5.627 14.862 5.828 14.971 6.037 C 15.079 6.246 15.112 6.37 15.156 6.56 C 15.201 6.751 15.243 6.887 15.274 7.067 C 15.306 7.246 15.304 7.495 15.274 7.725 L 15.207 8.332 C 15.336 8.149 15.418 7.974 15.477 7.758 C 15.536 7.542 15.557 7.31 15.528 7.067 L 15.46 6.425 C 15.582 6.64 15.675 6.872 15.747 7.067 C 15.819 7.261 15.865 7.387 15.916 7.826 C 15.966 8.264 15.983 8.568 15.899 8.939 C 15.814 9.31 15.73 9.378 15.561 9.58 C 15.393 9.783 15.308 9.876 15.14 10.002 C 14.971 10.128 14.853 10.188 14.617 10.323 C 14.38 10.458 14.245 10.542 13.992 10.593 C 13.739 10.643 13.546 10.681 13.301 10.677 C 13.055 10.673 12.906 10.681 12.693 10.66 C 12.481 10.639 12.406 10.616 12.255 10.576 C 12.103 10.535 11.987 10.489 11.85 10.424 C 11.712 10.359 11.515 10.202 11.377 10.036 L 11.732 10.086 L 12.12 10.053 L 12.558 9.935 Z " fill="rgb(247,173,0)"/><path d=" M 15.865 9.175 C 15.793 9.492 15.69 9.786 15.578 10.053 C 15.466 10.32 15.384 10.486 15.224 10.727 C 15.064 10.969 14.955 11.085 14.785 11.267 C 14.615 11.45 14.469 11.583 14.296 11.689 C 14.123 11.796 13.942 11.919 13.722 11.976 C 13.533 12.025 13.394 12.043 13.17 12.018 C 12.946 11.993 12.787 11.981 12.613 11.93 C 12.439 11.878 12.216 11.791 12.002 11.706 C 11.787 11.621 11.688 11.555 11.529 11.453 C 11.371 11.351 11.254 11.248 11.124 11.116 C 10.994 10.983 10.804 10.795 10.618 10.508 C 10.433 10.221 10.366 10.029 10.315 9.816 C 10.263 9.604 10.234 9.525 10.209 9.348 C 10.184 9.171 10.16 9.029 10.211 8.625 C 10.261 8.22 10.28 8.484 10.331 8.416 C 10.31 8.62 10.352 8.851 10.386 8.994 C 10.42 9.137 10.652 9.517 10.804 9.652 Q 10.956 9.787 11.16 10.029 Q 11.489 10.257 11.792 10.371 C 12.096 10.484 12.2 10.526 12.387 10.573 C 12.574 10.62 12.564 10.624 12.88 10.649 C 13.197 10.674 13.209 10.653 13.462 10.636 C 13.715 10.619 13.817 10.601 14.044 10.535 C 14.272 10.469 14.388 10.396 14.601 10.295 C 14.814 10.194 15.173 9.951 15.308 9.829 C 15.443 9.707 15.703 9.431 15.865 9.175 Z " fill="rgb(232,86,13)"/><path d=" M 13.014 7.488 C 12.904 7.376 12.817 7.302 12.66 7.218 C 12.502 7.135 12.339 7.079 12.153 7.05 C 11.967 7.02 11.8 7.027 11.614 7.067 C 11.427 7.106 11.241 7.158 11.057 7.252 C 10.873 7.346 10.666 7.549 10.527 7.789 C 10.388 8.03 10.257 8.355 10.223 8.574 C 10.189 8.793 10.213 9.007 10.213 9.226 C 10.213 9.445 10.328 9.756 10.388 9.928 C 10.448 10.1 10.579 10.295 10.666 10.484 C 10.753 10.674 10.974 10.91 11.16 11.079 C 11.345 11.248 11.596 11.418 11.729 11.497 C 11.862 11.576 12.071 11.702 12.311 11.788 C 12.551 11.873 12.818 11.924 13.108 11.94 C 13.398 11.955 14.187 11.757 13.969 11.876 C 13.78 11.98 13.502 12.172 13.301 12.246 C 13.099 12.32 12.922 12.371 12.71 12.415 C 12.499 12.458 11.931 12.496 11.59 12.471 C 11.248 12.446 10.726 12.345 10.483 12.263 C 10.24 12.181 10.08 12.106 9.876 11.993 C 9.671 11.879 9.257 11.602 9.097 11.459 C 8.937 11.315 8.665 11.018 8.553 10.839 C 8.441 10.659 8.324 10.441 8.239 10.154 C 8.155 9.867 8.091 9.575 8.104 9.293 C 8.117 9.012 8.11 8.865 8.186 8.587 C 8.262 8.308 8.346 8.161 8.442 7.994 C 8.538 7.828 8.667 7.65 8.869 7.46 C 9.072 7.271 9.195 7.178 9.319 7.083 C 9.443 6.989 9.754 6.839 9.91 6.763 C 10.065 6.687 10.405 6.595 10.686 6.56 C 10.966 6.526 11.232 6.537 11.445 6.56 C 11.657 6.584 12.133 6.73 12.457 6.932 C 12.781 7.134 12.856 7.259 13.014 7.488 Z " fill="rgb(192,55,117)"/><circle vector-effect="non-scaling-stroke" cx="11.785110204438883" cy="8.666423284234813" r="1.7390336631671222" fill="rgb(255,255,255)"/></g></g></g></g></svg>