<?xml version="1.0" encoding="UTF-8" standalone="no"?><!-- Generator: Gravit.io --><svg xmlns="http://www.w3.org/2000/svg" xmlns:xlink="http://www.w3.org/1999/xlink" style="isolation:isolate" viewBox="0 0 400 520" width="400pt" height="520pt"><defs><clipPath id="_clipPath_9yhdAScrIaXHeFcc4Nwr836hkJhQjZJT"><rect width="400" height="520"/></clipPath></defs><g clip-path="url(#_clipPath_9yhdAScrIaXHeFcc4Nwr836hkJhQjZJT)"><g><defs><filter id="YAu2OydNFz3CYymRtR38xQQM6nHQKQi3" x="-200%" y="-200%" width="400%" height="400%" filterUnits="objectBoundingBox" color-interpolation-filters="sRGB"><feGaussianBlur xmlns="http://www.w3.org/2000/svg" stdDeviation="4.293609062839028"/></filter></defs><g filter="url(#YAu2OydNFz3CYymRtR38xQQM6nHQKQi3)"><ellipse vector-effect="non-scaling-stroke" cx="198.91361582044095" cy="491.99999999999994" rx="65" ry="20.166666666666686" fill="rgb(162,162,162)" fill-opacity="0.7"/></g><defs><filter id="KF1qGh5xFRNG6jf1NVjTGiOn8jZv04tA" x="-200%" y="-200%" width="400%" height="400%" filterUnits="objectBoundingBox" color-interpolation-filters="sRGB"><feGaussianBlur xmlns="http://www.w3.org/2000/svg" stdDeviation="0"/></filter></defs><g filter="url(#KF1qGh5xFRNG6jf1NVjTGiOn8jZv04tA)"><path d=" M 18.914 185.931 C 18.914 85.382 99.774 4 199.384 4 C 299.14 4 380 85.382 380 185.931 C 380 239.891 356.562 288.544 319.355 321.863 C 317.304 323.633 246.405 390.124 198.944 492 C 181.073 419.906 111.785 350.613 79.998 322.306 C 42.498 288.839 18.914 240.186 18.914 185.931 Z  M 311.005 185.931" fill="rgb(192,55,117)"/></g></g><circle vector-effect="non-scaling-stroke" cx="199" cy="186.99999999999997" r="135" fill="rgb(254,220,0)"/><circle vector-effect="non-scaling-stroke" cx="199.50000000000003" cy="186.64164608777287" r="125.49999999999997" fill="rgb(255,255,255)"/><g><path d=" M 110.479 166.268 C 113.327 153.387 118.475 142.819 127.659 133.37 C 136.843 123.922 140.453 120.942 150.322 116.922 C 160.191 112.901 170.269 112.083 182.123 112.535 C 193.977 112.988 204.128 117.015 214.29 123.501 C 208.12 115.491 196.803 108.296 191.627 106.321 C 186.45 104.346 179.323 102.975 173.017 102.427 Q 166.438 102.701 151.784 105.225 Q 165.73 98.143 174.081 96.452 C 183.951 94.99 193.64 95.264 204.055 97.914 C 214.469 100.564 219.773 102.3 227.449 107.418 C 235.125 112.535 240.094 118.72 244.629 125.694 C 249.164 132.669 250.226 137.313 251.208 145.067 C 252.19 152.822 253.036 159.689 251.574 166.634 C 250.112 173.579 248.832 180.158 247.187 183.448 C 245.543 186.738 243.852 190.759 242.436 193.317 C 241.019 195.876 235.49 202.821 230.373 206.842 Q 224.525 211.959 207.71 217.808 C 216.277 214.88 222.59 209.416 226.718 201.359 C 230.845 193.302 230.65 190.653 230.373 184.545 C 230.096 178.437 228.18 170.289 223.793 164.075 C 219.407 157.861 216.848 154.937 208.441 149.088 C 200.034 143.24 192.904 140.616 186.144 138.488 C 179.384 136.36 170.554 135.953 164.212 136.295 C 157.87 136.636 151.784 138.488 144.108 142.143 C 136.432 145.798 131.787 148.781 126.563 152.744 C 121.338 156.706 115.744 161.081 110.479 166.268 Z " fill="rgb(254,220,0)"/><path d=" M 212.097 215.249 L 224.525 208.67 C 228.504 205.212 231.378 202.044 235.125 198.069 C 238.872 194.094 242.102 189.88 245.392 184.123 C 248.682 178.366 249.554 176.166 250.843 169.923 C 251.748 164.965 252.638 164.222 252.305 155.668 C 251.972 147.113 250.811 144.052 249.779 138.34 C 248.746 132.629 246.398 126.157 243.199 121.343 C 240 116.53 234.7 108.184 230.588 104.62 L 219.773 96.452 Q 230.862 100.508 234.975 101.879 C 239.087 103.798 244.204 107.163 247.918 110.342 C 251.633 113.521 253.607 115.572 256.326 118.749 C 259.045 121.926 262.013 126.284 264.367 130.812 C 266.722 135.34 267.427 138.02 268.388 142.143 C 269.349 146.266 270.257 149.211 270.947 153.109 C 271.637 157.007 271.589 162.383 270.947 167.365 L 269.485 180.524 C 272.283 176.562 274.064 172.778 275.333 168.096 C 276.603 163.414 277.059 158.384 276.43 153.109 L 274.968 139.219 C 277.612 143.875 279.627 148.899 281.182 153.109 C 282.737 157.32 283.74 160.054 284.837 169.558 C 285.934 179.062 286.299 185.641 284.471 193.683 C 282.644 201.725 280.816 203.187 277.161 207.573 C 273.506 211.959 271.672 213.989 268.023 216.711 C 264.373 219.434 261.809 220.732 256.691 223.656 C 251.574 226.581 248.65 228.408 243.167 229.505 C 237.684 230.601 233.501 231.425 228.18 231.332 C 222.859 231.24 219.628 231.416 215.021 230.967 C 210.414 230.518 208.807 230.01 205.517 229.139 C 202.227 228.269 199.724 227.259 196.744 225.85 C 193.765 224.44 189.491 221.053 186.509 217.442 L 194.186 218.539 L 202.593 217.808 L 212.097 215.249 Z " fill="rgb(247,173,0)"/><path d=" M 283.74 198.8 C 282.176 205.66 279.949 212.022 277.526 217.808 C 275.104 223.594 273.318 227.202 269.85 232.429 C 266.382 237.656 264.024 240.169 260.346 244.126 C 256.669 248.083 253.493 250.955 249.746 253.264 C 245.999 255.574 242.076 258.235 237.318 259.478 C 233.215 260.551 230.208 260.926 225.347 260.392 C 220.486 259.858 217.06 259.581 213.285 258.473 C 209.509 257.365 204.679 255.478 200.034 253.63 C 195.389 251.782 193.233 250.357 189.799 248.147 C 186.365 245.936 183.84 243.706 181.026 240.836 C 178.213 237.966 174.081 233.891 170.061 227.677 C 166.04 221.463 164.6 217.297 163.481 212.69 C 162.362 208.084 161.745 206.385 161.197 202.547 C 160.648 198.709 160.132 195.637 161.229 186.865 C 162.325 178.092 162.728 183.81 163.847 182.351 C 163.377 186.775 164.304 191.764 165.035 194.871 C 165.766 197.978 170.792 206.202 174.081 209.127 Q 177.371 212.051 181.79 217.295 Q 188.918 222.23 195.497 224.697 C 202.077 227.164 204.325 228.059 208.382 229.083 C 212.439 230.107 212.22 230.18 219.074 230.728 C 225.928 231.276 226.202 230.819 231.685 230.454 C 237.168 230.088 239.364 229.697 244.296 228.261 C 249.227 226.825 251.736 225.237 256.358 223.052 C 260.98 220.867 268.754 215.615 271.678 212.965 C 274.602 210.314 280.24 204.347 283.74 198.8 Z " fill="rgb(232,86,13)"/><path d=" M 221.966 162.247 C 219.597 159.804 217.709 158.209 214.29 156.399 C 210.871 154.589 207.354 153.38 203.324 152.744 C 199.294 152.107 195.671 152.252 191.627 153.109 C 187.583 153.966 183.556 155.087 179.564 157.13 C 175.572 159.173 171.098 163.562 168.083 168.771 C 165.067 173.98 162.234 181.016 161.503 185.768 C 160.772 190.52 161.288 195.145 161.288 199.897 C 161.288 204.649 163.769 211.38 165.067 215.102 C 166.365 218.824 169.217 223.06 171.098 227.164 C 172.979 231.269 177.769 236.394 181.79 240.049 C 185.811 243.704 191.25 247.38 194.127 249.096 C 197.003 250.812 201.534 253.546 206.737 255.401 C 211.94 257.257 217.727 258.353 224.009 258.691 C 230.29 259.03 247.389 254.728 242.651 257.32 C 238.563 259.557 232.553 263.717 228.18 265.327 C 223.807 266.936 219.969 268.034 215.386 268.982 C 210.804 269.93 198.513 270.754 191.111 270.205 C 183.709 269.657 172.397 267.47 167.136 265.692 C 161.876 263.915 158.408 262.3 153.977 259.844 C 149.547 257.387 140.568 251.383 137.104 248.274 C 133.64 245.164 127.743 238.727 125.316 234.84 C 122.888 230.954 120.349 226.215 118.521 220.001 C 116.693 213.787 115.314 207.468 115.597 201.359 C 115.879 195.25 115.72 192.073 117.365 186.042 C 119.01 180.011 120.832 176.823 122.907 173.213 C 124.983 169.604 127.783 165.755 132.169 161.643 C 136.556 157.531 139.232 155.519 141.915 153.475 C 144.598 151.431 151.339 148.174 154.708 146.53 C 158.078 144.885 165.446 142.897 171.523 142.143 C 177.6 141.39 183.367 141.635 187.972 142.143 C 192.577 142.651 202.891 145.808 209.903 150.185 C 216.916 154.562 218.549 157.282 221.966 162.247 Z " fill="rgb(192,55,117)"/><circle vector-effect="non-scaling-stroke" cx="195.34405442950916" cy="187.77250449175426" r="37.67906270195431" fill="rgb(255,255,255)"/></g></g></svg>