<?xml version="1.0" encoding="UTF-8" standalone="no"?><!-- Generator: Gravit.io --><svg xmlns="http://www.w3.org/2000/svg" xmlns:xlink="http://www.w3.org/1999/xlink" style="isolation:isolate" viewBox="0 0 24 24" width="24pt" height="24pt"><defs><clipPath id="_clipPath_JvSwdbFdjKrUAUwdZrfHtBbmWZeqKeoj"><rect width="24" height="24"/></clipPath></defs><g clip-path="url(#_clipPath_JvSwdbFdjKrUAUwdZrfHtBbmWZeqKeoj)"><clipPath id="_clipPath_mJTWF6kZk6K1JYMyUqkOuupTFXwLeWLC"><rect x="0" y="0" width="24" height="24" transform="matrix(1,0,0,1,0,0)" fill="rgb(255,255,255)"/></clipPath><g clip-path="url(#_clipPath_mJTWF6kZk6K1JYMyUqkOuupTFXwLeWLC)"><g><path d=" M 18.219 16.551 C 19.896 14.836 21.02 12.588 21.02 10.02 C 21.02 5.042 16.978 1 12 1 C 7.022 1 2.98 5.042 2.98 10.02 C 2.98 12.62 4.007 14.787 5.844 16.61 L 5.844 16.61 L 11.633 23 L 18.23 16.551 L 18.219 16.551 L 18.219 16.551 Z " fill="rgb(52,52,52)"/></g></g><path d=" M 47 429 L 48 344 L 58 344 L 82 378 L 105 344 L 115 344 L 115 429 L 104 429 L 104 365 L 82 395 L 59 365 L 58 429 L 47 429 Z " fill="rgb(255,255,255)" vector-effect="non-scaling-stroke" stroke-width="1" stroke="rgb(0,0,0)" stroke-linejoin="miter" stroke-linecap="square" stroke-miterlimit="3"/><path d=" M 163 429 L 163 344 L 174 344 L 174 429 L 163 429 Z " fill="rgb(255,255,255)" vector-effect="non-scaling-stroke" stroke-width="1" stroke="rgb(0,0,0)" stroke-linejoin="miter" stroke-linecap="square" stroke-miterlimit="3"/><path d=" M 219 429 L 219 344 L 230 344 L 276 407 L 276 344 L 287 344 L 286 429 L 277 429 L 230 365 L 230 429 L 219 429 Z " fill="rgb(255,255,255)" vector-effect="non-scaling-stroke" stroke-width="1" stroke="rgb(0,0,0)" stroke-linejoin="miter" stroke-linecap="square" stroke-miterlimit="3"/><path d=" M 327 344 L 388 344 L 388 355 L 363 355 L 363 429 L 352 429 L 352 355 L 327 355 L 327 344 Z " fill="rgb(255,255,255)" vector-effect="non-scaling-stroke" stroke-width="1" stroke="rgb(0,0,0)" stroke-linejoin="miter" stroke-linecap="square" stroke-miterlimit="3"/><path d=" M 900 344 L 961 344 L 961 355 L 936 355 L 936 429 L 925 429 L 925 355 L 900 355 L 900 344 Z " fill="rgb(255,255,255)" vector-effect="non-scaling-stroke" stroke-width="1" stroke="rgb(0,0,0)" stroke-linejoin="miter" stroke-linecap="square" stroke-miterlimit="3"/><path d=" M 465 344 L 478 344 L 499 403 L 519 344 L 530 344 L 499 429 L 465 344 Z " fill="rgb(255,255,255)" vector-effect="non-scaling-stroke" stroke-width="1" stroke="rgb(0,0,0)" stroke-linejoin="miter" stroke-linecap="square" stroke-miterlimit="3"/><path d=" M 717 344 L 730 344 L 751 403 L 771 344 L 782 344 L 751 429 L 717 344 Z " fill="rgb(255,255,255)" vector-effect="non-scaling-stroke" stroke-width="1" stroke="rgb(0,0,0)" stroke-linejoin="miter" stroke-linecap="square" stroke-miterlimit="3"/><path d=" M 569 344 L 611 344 L 611 357 L 580 357 L 580 380 L 609 380 L 609 392 L 580 392 L 580 418 L 611 418 L 611 429 L 569 429 L 569 344 Z " fill="rgb(255,255,255)" vector-effect="non-scaling-stroke" stroke-width="1" stroke="rgb(0,0,0)" stroke-linejoin="miter" stroke-linecap="square" stroke-miterlimit="3"/><path d=" M 821 344 L 863 344 L 863 357 L 832 357 L 832 380 L 861 380 L 861 392 L 832 392 L 832 418 L 863 418 L 863 429 L 821 429 L 821 344 Z " fill="rgb(255,255,255)" vector-effect="non-scaling-stroke" stroke-width="1" stroke="rgb(0,0,0)" stroke-linejoin="miter" stroke-linecap="square" stroke-miterlimit="3"/><path d=" M 653 344 L 665 344 L 665 418 L 696 418 L 696 429 L 653 429 L 653 344 Z " fill="rgb(255,255,255)" vector-effect="non-scaling-stroke" stroke-width="1" stroke="rgb(0,0,0)" stroke-linejoin="miter" stroke-linecap="square" stroke-miterlimit="3"/><path d=" M 47 429 L 48 344 L 58 344 L 82 378 L 105 344 L 115 344 L 115 429 L 104 429 L 104 365 L 82 395 L 59 365 L 58 429 L 47 429 Z " fill="rgb(255,255,255)" vector-effect="non-scaling-stroke" stroke-width="1" stroke="rgb(0,0,0)" stroke-linejoin="miter" stroke-linecap="square" stroke-miterlimit="3"/><path d=" M 163 429 L 163 344 L 174 344 L 174 429 L 163 429 Z " fill="rgb(255,255,255)" vector-effect="non-scaling-stroke" stroke-width="1" stroke="rgb(0,0,0)" stroke-linejoin="miter" stroke-linecap="square" stroke-miterlimit="3"/><path d=" M 219 429 L 219 344 L 230 344 L 276 407 L 276 344 L 287 344 L 286 429 L 277 429 L 230 365 L 230 429 L 219 429 Z " fill="rgb(255,255,255)" vector-effect="non-scaling-stroke" stroke-width="1" stroke="rgb(0,0,0)" stroke-linejoin="miter" stroke-linecap="square" stroke-miterlimit="3"/><path d=" M 327 344 L 388 344 L 388 355 L 363 355 L 363 429 L 352 429 L 352 355 L 327 355 L 327 344 Z " fill="rgb(255,255,255)" vector-effect="non-scaling-stroke" stroke-width="1" stroke="rgb(0,0,0)" stroke-linejoin="miter" stroke-linecap="square" stroke-miterlimit="3"/><path d=" M 900 344 L 961 344 L 961 355 L 936 355 L 936 429 L 925 429 L 925 355 L 900 355 L 900 344 Z " fill="rgb(255,255,255)" vector-effect="non-scaling-stroke" stroke-width="1" stroke="rgb(0,0,0)" stroke-linejoin="miter" stroke-linecap="square" stroke-miterlimit="3"/><path d=" M 465 344 L 478 344 L 499 403 L 519 344 L 530 344 L 499 429 L 465 344 Z " fill="rgb(255,255,255)" vector-effect="non-scaling-stroke" stroke-width="1" stroke="rgb(0,0,0)" stroke-linejoin="miter" stroke-linecap="square" stroke-miterlimit="3"/><path d=" M 717 344 L 730 344 L 751 403 L 771 344 L 782 344 L 751 429 L 717 344 Z " fill="rgb(255,255,255)" vector-effect="non-scaling-stroke" stroke-width="1" stroke="rgb(0,0,0)" stroke-linejoin="miter" stroke-linecap="square" stroke-miterlimit="3"/><path d=" M 569 344 L 611 344 L 611 357 L 580 357 L 580 380 L 609 380 L 609 392 L 580 392 L 580 418 L 611 418 L 611 429 L 569 429 L 569 344 Z " fill="rgb(255,255,255)" vector-effect="non-scaling-stroke" stroke-width="1" stroke="rgb(0,0,0)" stroke-linejoin="miter" stroke-linecap="square" stroke-miterlimit="3"/><path d=" M 821 344 L 863 344 L 863 357 L 832 357 L 832 380 L 861 380 L 861 392 L 832 392 L 832 418 L 863 418 L 863 429 L 821 429 L 821 344 Z " fill="rgb(255,255,255)" vector-effect="non-scaling-stroke" stroke-width="1" stroke="rgb(0,0,0)" stroke-linejoin="miter" stroke-linecap="square" stroke-miterlimit="3"/><path d=" M 653 344 L 665 344 L 665 418 L 696 418 L 696 429 L 653 429 L 653 344 Z " fill="rgb(255,255,255)" vector-effect="non-scaling-stroke" stroke-width="1" stroke="rgb(0,0,0)" stroke-linejoin="miter" stroke-linecap="square" stroke-miterlimit="3"/><clipPath id="_clipPath_sA4VEicyLolkXiBQcoottdUdwleV0La8"><rect x="0" y="0" width="24" height="24" transform="matrix(1,0,0,1,0,0)" fill="rgb(255,255,255)"/></clipPath><g clip-path="url(#_clipPath_sA4VEicyLolkXiBQcoottdUdwleV0La8)"><g><mask id="_mask_4tZtNaBAsA9pC5OlbPmEIVXNyeMKJaA0" x="-200%" y="-200%" width="400%" height="400%"><rect x="-200%" y="-200%" width="400%" height="400%" style="fill:white;"/><path d=" M 17.25 10.5 L 18.952 10.5 L 18.952 10.888 L 18.254 10.888 L 18.254 13.5 L 17.947 13.5 L 17.947 10.888 L 17.25 10.888 L 17.25 10.5 Z " fill="black" stroke="none"/></mask><path d=" M 17.25 10.5 L 18.952 10.5 L 18.952 10.888 L 18.254 10.888 L 18.254 13.5 L 17.947 13.5 L 17.947 10.888 L 17.25 10.888 L 17.25 10.5 Z " fill="rgb(255,255,255)"/><path d=" M 17.25 10.5 L 18.952 10.5 L 18.952 10.888 L 18.254 10.888 L 18.254 13.5 L 17.947 13.5 L 17.947 10.888 L 17.25 10.888 L 17.25 10.5 Z " fill="rgb(255,255,255)" mask="url(#_mask_4tZtNaBAsA9pC5OlbPmEIVXNyeMKJaA0)" vector-effect="non-scaling-stroke" stroke-width="0.048" stroke="rgb(0,0,0)" stroke-opacity="100" stroke-linejoin="miter" stroke-linecap="square" stroke-miterlimit="3"/><mask id="_mask_HgrmhKH1Sqi67LNhJLYU5hsNODVFAWzo" x="-200%" y="-200%" width="400%" height="400%"><rect x="-200%" y="-200%" width="400%" height="400%" style="fill:white;"/><path d=" M 5.112 10.5 L 5.475 10.5 L 6.061 12.582 L 6.619 10.5 L 6.926 10.5 L 6.061 13.5 L 5.112 10.5 Z " fill="black" stroke="none"/></mask><path d=" M 5.112 10.5 L 5.475 10.5 L 6.061 12.582 L 6.619 10.5 L 6.926 10.5 L 6.061 13.5 L 5.112 10.5 Z " fill="rgb(255,255,255)"/><path d=" M 5.112 10.5 L 5.475 10.5 L 6.061 12.582 L 6.619 10.5 L 6.926 10.5 L 6.061 13.5 L 5.112 10.5 Z " fill="rgb(255,255,255)" mask="url(#_mask_HgrmhKH1Sqi67LNhJLYU5hsNODVFAWzo)" vector-effect="non-scaling-stroke" stroke-width="0.048" stroke="rgb(0,0,0)" stroke-opacity="100" stroke-linejoin="miter" stroke-linecap="square" stroke-miterlimit="3"/><mask id="_mask_GPiR6MZMjcAYKGva1B2Nkhy5YYTrpMn5" x="-200%" y="-200%" width="400%" height="400%"><rect x="-200%" y="-200%" width="400%" height="400%" style="fill:white;"/><path d=" M 12.144 10.5 L 12.506 10.5 L 13.092 12.582 L 13.65 10.5 L 13.957 10.5 L 13.092 13.5 L 12.144 10.5 Z " fill="black" stroke="none"/></mask><path d=" M 12.144 10.5 L 12.506 10.5 L 13.092 12.582 L 13.65 10.5 L 13.957 10.5 L 13.092 13.5 L 12.144 10.5 Z " fill="rgb(255,255,255)"/><path d=" M 12.144 10.5 L 12.506 10.5 L 13.092 12.582 L 13.65 10.5 L 13.957 10.5 L 13.092 13.5 L 12.144 10.5 Z " fill="rgb(255,255,255)" mask="url(#_mask_GPiR6MZMjcAYKGva1B2Nkhy5YYTrpMn5)" vector-effect="non-scaling-stroke" stroke-width="0.048" stroke="rgb(0,0,0)" stroke-opacity="100" stroke-linejoin="miter" stroke-linecap="square" stroke-miterlimit="3"/><mask id="_mask_1LARZT3vOAh46PqAbPQu6lgWsa9LYofW" x="-200%" y="-200%" width="400%" height="400%"><rect x="-200%" y="-200%" width="400%" height="400%" style="fill:white;"/><path d=" M 8.014 10.5 L 9.186 10.5 L 9.186 10.959 L 8.321 10.959 L 8.321 11.771 L 9.13 11.771 L 9.13 12.194 L 8.321 12.194 L 8.321 13.112 L 9.186 13.112 L 9.186 13.5 L 8.014 13.5 L 8.014 10.5 Z " fill="black" stroke="none"/></mask><path d=" M 8.014 10.5 L 9.186 10.5 L 9.186 10.959 L 8.321 10.959 L 8.321 11.771 L 9.13 11.771 L 9.13 12.194 L 8.321 12.194 L 8.321 13.112 L 9.186 13.112 L 9.186 13.5 L 8.014 13.5 L 8.014 10.5 Z " fill="rgb(255,255,255)"/><path d=" M 8.014 10.5 L 9.186 10.5 L 9.186 10.959 L 8.321 10.959 L 8.321 11.771 L 9.13 11.771 L 9.13 12.194 L 8.321 12.194 L 8.321 13.112 L 9.186 13.112 L 9.186 13.5 L 8.014 13.5 L 8.014 10.5 Z " fill="rgb(255,255,255)" mask="url(#_mask_1LARZT3vOAh46PqAbPQu6lgWsa9LYofW)" vector-effect="non-scaling-stroke" stroke-width="0.048" stroke="rgb(0,0,0)" stroke-opacity="100" stroke-linejoin="miter" stroke-linecap="square" stroke-miterlimit="3"/><mask id="_mask_liMQRqiqZXQXtAt5HeekMXikvMNACz0j" x="-200%" y="-200%" width="400%" height="400%"><rect x="-200%" y="-200%" width="400%" height="400%" style="fill:white;"/><path d=" M 15.046 10.5 L 16.217 10.5 L 16.217 10.959 L 15.352 10.959 L 15.352 11.771 L 16.162 11.771 L 16.162 12.194 L 15.352 12.194 L 15.352 13.112 L 16.217 13.112 L 16.217 13.5 L 15.046 13.5 L 15.046 10.5 Z " fill="black" stroke="none"/></mask><path d=" M 15.046 10.5 L 16.217 10.5 L 16.217 10.959 L 15.352 10.959 L 15.352 11.771 L 16.162 11.771 L 16.162 12.194 L 15.352 12.194 L 15.352 13.112 L 16.217 13.112 L 16.217 13.5 L 15.046 13.5 L 15.046 10.5 Z " fill="rgb(255,255,255)"/><path d=" M 15.046 10.5 L 16.217 10.5 L 16.217 10.959 L 15.352 10.959 L 15.352 11.771 L 16.162 11.771 L 16.162 12.194 L 15.352 12.194 L 15.352 13.112 L 16.217 13.112 L 16.217 13.5 L 15.046 13.5 L 15.046 10.5 Z " fill="rgb(255,255,255)" mask="url(#_mask_liMQRqiqZXQXtAt5HeekMXikvMNACz0j)" vector-effect="non-scaling-stroke" stroke-width="0.048" stroke="rgb(0,0,0)" stroke-opacity="100" stroke-linejoin="miter" stroke-linecap="square" stroke-miterlimit="3"/><mask id="_mask_QBGDwvDLCuQOpwAoNqpEBhUZoj5EesnT" x="-200%" y="-200%" width="400%" height="400%"><rect x="-200%" y="-200%" width="400%" height="400%" style="fill:white;"/><path d=" M 10.358 10.5 L 10.693 10.5 L 10.693 13.112 L 11.558 13.112 L 11.558 13.5 L 10.358 13.5 L 10.358 10.5 Z " fill="black" stroke="none"/></mask><path d=" M 10.358 10.5 L 10.693 10.5 L 10.693 13.112 L 11.558 13.112 L 11.558 13.5 L 10.358 13.5 L 10.358 10.5 Z " fill="rgb(255,255,255)"/><path d=" M 10.358 10.5 L 10.693 10.5 L 10.693 13.112 L 11.558 13.112 L 11.558 13.5 L 10.358 13.5 L 10.358 10.5 Z " fill="rgb(255,255,255)" mask="url(#_mask_QBGDwvDLCuQOpwAoNqpEBhUZoj5EesnT)" vector-effect="non-scaling-stroke" stroke-width="0.048" stroke="rgb(0,0,0)" stroke-opacity="100" stroke-linejoin="miter" stroke-linecap="square" stroke-miterlimit="3"/></g><g><mask id="_mask_L6cQ2rBcPn4ZwdwgMANTGYPVJ9M6S6lq" x="-200%" y="-200%" width="400%" height="400%"><rect x="-200%" y="-200%" width="400%" height="400%" style="fill:white;"/><path d=" M 6 9.296 L 6.035 6 L 6.389 6 L 7.238 7.318 L 8.052 6 L 8.406 6 L 8.406 9.296 L 8.017 9.296 L 8.017 6.814 L 7.238 7.978 L 6.425 6.814 L 6.389 9.296 L 6 9.296 Z " fill="black" stroke="none"/></mask><path d=" M 6 9.296 L 6.035 6 L 6.389 6 L 7.238 7.318 L 8.052 6 L 8.406 6 L 8.406 9.296 L 8.017 9.296 L 8.017 6.814 L 7.238 7.978 L 6.425 6.814 L 6.389 9.296 L 6 9.296 Z " fill="rgb(255,255,255)"/><path d=" M 6 9.296 L 6.035 6 L 6.389 6 L 7.238 7.318 L 8.052 6 L 8.406 6 L 8.406 9.296 L 8.017 9.296 L 8.017 6.814 L 7.238 7.978 L 6.425 6.814 L 6.389 9.296 L 6 9.296 Z " fill="rgb(255,255,255)" mask="url(#_mask_L6cQ2rBcPn4ZwdwgMANTGYPVJ9M6S6lq)" vector-effect="non-scaling-stroke" stroke-width="0.048" stroke="rgb(0,0,0)" stroke-opacity="100" stroke-linejoin="miter" stroke-linecap="square" stroke-miterlimit="3"/><mask id="_mask_KUN1Nsjjw5kQr3rmOe5EbAZkeG4jAmLo" x="-200%" y="-200%" width="400%" height="400%"><rect x="-200%" y="-200%" width="400%" height="400%" style="fill:white;"/><path d=" M 10.104 9.296 L 10.104 6 L 10.493 6 L 10.493 9.296 L 10.104 9.296 Z " fill="black" stroke="none"/></mask><path d=" M 10.104 9.296 L 10.104 6 L 10.493 6 L 10.493 9.296 L 10.104 9.296 Z " fill="rgb(255,255,255)"/><path d=" M 10.104 9.296 L 10.104 6 L 10.493 6 L 10.493 9.296 L 10.104 9.296 Z " fill="rgb(255,255,255)" mask="url(#_mask_KUN1Nsjjw5kQr3rmOe5EbAZkeG4jAmLo)" vector-effect="non-scaling-stroke" stroke-width="0.048" stroke="rgb(0,0,0)" stroke-opacity="100" stroke-linejoin="miter" stroke-linecap="square" stroke-miterlimit="3"/><mask id="_mask_Dd9OxIU3nGJXOJQvKGkBVAq5rS9LgIsN" x="-200%" y="-200%" width="400%" height="400%"><rect x="-200%" y="-200%" width="400%" height="400%" style="fill:white;"/><path d=" M 12.085 9.296 L 12.085 6 L 12.474 6 L 14.102 8.443 L 14.102 6 L 14.491 6 L 14.455 9.296 L 14.137 9.296 L 12.474 6.814 L 12.474 9.296 L 12.085 9.296 Z " fill="black" stroke="none"/></mask><path d=" M 12.085 9.296 L 12.085 6 L 12.474 6 L 14.102 8.443 L 14.102 6 L 14.491 6 L 14.455 9.296 L 14.137 9.296 L 12.474 6.814 L 12.474 9.296 L 12.085 9.296 Z " fill="rgb(255,255,255)"/><path d=" M 12.085 9.296 L 12.085 6 L 12.474 6 L 14.102 8.443 L 14.102 6 L 14.491 6 L 14.455 9.296 L 14.137 9.296 L 12.474 6.814 L 12.474 9.296 L 12.085 9.296 Z " fill="rgb(255,255,255)" mask="url(#_mask_Dd9OxIU3nGJXOJQvKGkBVAq5rS9LgIsN)" vector-effect="non-scaling-stroke" stroke-width="0.048" stroke="rgb(0,0,0)" stroke-opacity="100" stroke-linejoin="miter" stroke-linecap="square" stroke-miterlimit="3"/><mask id="_mask_HCLDICcgLg0Xo6ajPSigGwsT5DGICaFR" x="-200%" y="-200%" width="400%" height="400%"><rect x="-200%" y="-200%" width="400%" height="400%" style="fill:white;"/><path d=" M 15.906 6 L 18.064 6 L 18.064 6.427 L 17.18 6.427 L 17.18 9.296 L 16.79 9.296 L 16.79 6.427 L 15.906 6.427 L 15.906 6 Z " fill="black" stroke="none"/></mask><path d=" M 15.906 6 L 18.064 6 L 18.064 6.427 L 17.18 6.427 L 17.18 9.296 L 16.79 9.296 L 16.79 6.427 L 15.906 6.427 L 15.906 6 Z " fill="rgb(255,255,255)"/><path d=" M 15.906 6 L 18.064 6 L 18.064 6.427 L 17.18 6.427 L 17.18 9.296 L 16.79 9.296 L 16.79 6.427 L 15.906 6.427 L 15.906 6 Z " fill="rgb(255,255,255)" mask="url(#_mask_HCLDICcgLg0Xo6ajPSigGwsT5DGICaFR)" vector-effect="non-scaling-stroke" stroke-width="0.048" stroke="rgb(0,0,0)" stroke-opacity="100" stroke-linejoin="miter" stroke-linecap="square" stroke-miterlimit="3"/></g></g></g></svg>