<?xml version="1.0" encoding="UTF-8" standalone="no"?><!-- Generator: Gravit.io --><svg xmlns="http://www.w3.org/2000/svg" xmlns:xlink="http://www.w3.org/1999/xlink" style="isolation:isolate" viewBox="0 0 24 24" width="24pt" height="24pt"><defs><clipPath id="_clipPath_BHc8RkjM9YhWyiQhSXDhKmelWCqwWw7I"><rect width="24" height="24"/></clipPath></defs><g clip-path="url(#_clipPath_BHc8RkjM9YhWyiQhSXDhKmelWCqwWw7I)"><clipPath id="_clipPath_3BIpyPyUX4zWBSevuJIblYu2cMAu1IA9"><rect x="0" y="0" width="24" height="24" transform="matrix(1,0,0,1,0,0)" fill="rgb(255,255,255)"/></clipPath><g clip-path="url(#_clipPath_3BIpyPyUX4zWBSevuJIblYu2cMAu1IA9)"><g><clipPath id="_clipPath_tNjjQfmEM7Q5JKeYW0SSfKiHtKhdaVNV"><rect x="0" y="0" width="24" height="24" transform="matrix(1,0,0,1,0,0)" fill="rgb(255,255,255)"/></clipPath><g clip-path="url(#_clipPath_tNjjQfmEM7Q5JKeYW0SSfKiHtKhdaVNV)"><g><g><clipPath id="_clipPath_TZeYHbqDIajWhCGkTuKw6zAUQKYOPI0v"><rect x="2.062" y="-0.118" width="19.876" height="19.876" transform="matrix(1,0,0,1,0,0)" fill="rgb(255,255,255)"/></clipPath><g clip-path="url(#_clipPath_TZeYHbqDIajWhCGkTuKw6zAUQKYOPI0v)"><g><g><g><clipPath id="_clipPath_Dha0JXoBOTpVHa37SCtmh7rCHGDPEttX"><rect x="4.81" y="5.027" width="14.379" height="9.587" transform="matrix(1,0,0,1,0,0)" fill="rgb(255,255,255)"/></clipPath><g clip-path="url(#_clipPath_Dha0JXoBOTpVHa37SCtmh7rCHGDPEttX)"><g><g><g><g><clipPath id="_clipPath_JJ0wSgpQXOMws3ber5h8StMKV8ad5ChT"><path d=" M 4.81 5.027 L 19.19 5.027 L 19.19 14.613 L 4.81 14.613 L 4.81 5.027 L 4.81 5.027 Z " fill="rgb(255,255,255)"/></clipPath><g clip-path="url(#_clipPath_JJ0wSgpQXOMws3ber5h8StMKV8ad5ChT)"><g><g><g><g><path d=" M 17.347 7.369 L 17.026 7.485 C 16.899 7.082 16.54 6.823 16.054 6.823 C 15.524 6.823 15.176 7.088 15.176 7.536 C 15.176 8.497 17.374 7.989 17.374 9.341 C 17.374 9.987 16.855 10.441 16.081 10.441 C 15.364 10.441 14.932 10.098 14.634 9.552 L 14.932 9.369 C 15.131 9.788 15.496 10.116 16.049 10.116 C 16.689 10.116 17.021 9.822 17.021 9.336 C 17.021 8.369 14.822 8.844 14.822 7.53 C 14.822 6.751 15.524 6.498 16.043 6.498 C 16.629 6.498 17.159 6.762 17.347 7.369 Z  M 11.94 7.381 C 11.94 7.597 12.082 7.779 12.398 8.116 C 12.768 7.9 12.971 7.674 12.971 7.381 C 12.971 7.094 12.778 6.868 12.447 6.868 C 12.138 6.868 11.94 7.11 11.94 7.381 Z  M 12.31 8.524 C 11.807 8.801 11.586 9.022 11.586 9.364 C 11.586 9.756 11.94 10.082 12.392 10.082 C 12.8 10.082 13.01 9.894 13.237 9.529 L 12.31 8.524 L 12.31 8.524 Z  M 14.099 10.458 L 13.458 9.773 C 13.226 10.137 12.911 10.402 12.392 10.402 C 11.723 10.402 11.232 9.938 11.232 9.369 C 11.232 8.894 11.525 8.602 12.088 8.281 C 11.767 7.962 11.591 7.695 11.591 7.381 C 11.591 6.922 11.978 6.558 12.447 6.558 C 12.944 6.558 13.314 6.922 13.314 7.381 C 13.314 7.822 12.966 8.121 12.618 8.347 L 13.414 9.215 L 13.883 8.453 L 14.165 8.63 L 13.646 9.474 L 14.358 10.231 L 14.099 10.458 L 14.099 10.458 Z  M 10.349 6.547 L 10.349 10.402 L 9.995 10.402 L 9.995 7.254 L 8.725 9.718 L 8.476 9.718 L 7.206 7.258 L 7.206 10.402 L 6.852 10.402 L 6.852 6.547 L 7.222 6.547 L 8.603 9.21 L 9.984 6.547 L 10.349 6.547 L 10.349 6.547 Z " fill="rgb(255,255,255)"/><path d=" M 9.368 11.711 L 9.368 12.041 L 9.93 12.041 L 9.93 12.267 L 9.368 12.267 L 9.368 12.791 L 9.125 12.791 L 9.125 11.485 L 9.976 11.485 L 9.976 11.711 L 9.368 11.711 L 9.368 11.711 Z " fill="rgb(255,255,255)"/><path d=" M 6.852 12.041 L 8.403 12.041 L 8.403 12.267 L 6.852 12.267 L 6.852 12.041 L 6.852 12.041 Z " fill="rgb(255,255,255)"/><path d=" M 15.543 12.041 L 17.093 12.041 L 17.093 12.267 L 15.543 12.267 L 15.543 12.041 L 15.543 12.041 Z " fill="rgb(255,255,255)"/><path d=" M 10.754 11.747 C 10.691 11.787 10.641 11.841 10.605 11.909 C 10.569 11.977 10.551 12.053 10.551 12.135 C 10.551 12.219 10.569 12.296 10.605 12.365 C 10.641 12.434 10.691 12.489 10.756 12.53 C 10.821 12.569 10.893 12.59 10.972 12.59 C 11.051 12.59 11.121 12.57 11.185 12.531 C 11.248 12.491 11.298 12.436 11.334 12.368 C 11.37 12.299 11.388 12.224 11.388 12.14 C 11.388 12.057 11.37 11.981 11.334 11.911 C 11.298 11.841 11.248 11.787 11.184 11.747 C 11.12 11.706 11.048 11.687 10.968 11.687 C 10.889 11.687 10.817 11.706 10.754 11.747 Z  M 11.319 11.552 C 11.421 11.612 11.501 11.693 11.558 11.796 C 11.615 11.899 11.644 12.011 11.644 12.135 C 11.644 12.259 11.615 12.373 11.557 12.477 C 11.499 12.581 11.419 12.663 11.317 12.723 C 11.214 12.784 11.098 12.814 10.968 12.814 C 10.838 12.814 10.721 12.784 10.619 12.723 C 10.518 12.663 10.438 12.582 10.381 12.479 C 10.324 12.376 10.295 12.264 10.295 12.14 C 10.295 12.016 10.324 11.902 10.382 11.799 C 10.44 11.696 10.52 11.614 10.623 11.553 C 10.725 11.493 10.841 11.463 10.972 11.463 C 11.101 11.463 11.217 11.493 11.319 11.552 Z " fill="rgb(255,255,255)"/><path d=" M 12.448 11.747 C 12.384 11.787 12.335 11.841 12.299 11.909 C 12.263 11.977 12.244 12.053 12.244 12.135 C 12.244 12.219 12.263 12.296 12.299 12.365 C 12.335 12.434 12.385 12.489 12.45 12.53 C 12.514 12.569 12.586 12.59 12.666 12.59 C 12.745 12.59 12.816 12.57 12.879 12.531 C 12.942 12.491 12.992 12.436 13.028 12.368 C 13.064 12.299 13.082 12.224 13.082 12.14 C 13.082 12.057 13.064 11.981 13.028 11.911 C 12.992 11.841 12.942 11.787 12.878 11.747 C 12.814 11.706 12.742 11.687 12.663 11.687 C 12.583 11.687 12.512 11.706 12.448 11.747 Z  M 13.013 11.552 C 13.115 11.612 13.195 11.693 13.252 11.796 C 13.309 11.899 13.337 12.011 13.337 12.135 C 13.337 12.259 13.309 12.373 13.251 12.477 C 13.193 12.581 13.113 12.663 13.01 12.723 C 12.908 12.784 12.792 12.814 12.663 12.814 C 12.532 12.814 12.416 12.784 12.314 12.723 C 12.211 12.663 12.132 12.582 12.075 12.479 C 12.017 12.376 11.989 12.264 11.989 12.14 C 11.989 12.016 12.018 11.902 12.075 11.799 C 12.133 11.696 12.214 11.614 12.316 11.553 C 12.419 11.493 12.536 11.463 12.666 11.463 C 12.796 11.463 12.911 11.493 13.013 11.552 Z " fill="rgb(255,255,255)"/><path d=" M 14.467 12.511 C 14.537 12.474 14.591 12.424 14.629 12.358 C 14.666 12.294 14.685 12.221 14.685 12.139 C 14.685 12.055 14.666 11.981 14.629 11.917 C 14.591 11.851 14.537 11.802 14.466 11.765 C 14.396 11.73 14.312 11.711 14.216 11.711 L 13.993 11.711 L 13.993 12.565 L 14.216 12.565 C 14.314 12.565 14.397 12.547 14.467 12.511 Z  M 14.597 11.571 C 14.706 11.627 14.791 11.705 14.85 11.804 C 14.91 11.904 14.941 12.015 14.941 12.139 C 14.941 12.261 14.91 12.371 14.85 12.471 C 14.791 12.57 14.706 12.648 14.597 12.705 C 14.488 12.763 14.361 12.791 14.216 12.791 L 13.75 12.791 L 13.75 11.485 L 14.216 11.485 C 14.361 11.485 14.488 11.514 14.597 11.571 Z " fill="rgb(255,255,255)"/></g></g></g></g></g></g></g></g></g></g></g></g></g></g></g></g></g><clipPath id="_clipPath_TTDGj7QT24fIjmFDJNeJufBC05aZHILv"><rect x="2.98" y="1" width="18.04" height="22" transform="matrix(1,0,0,1,0,0)" fill="rgb(255,255,255)"/></clipPath><g clip-path="url(#_clipPath_TTDGj7QT24fIjmFDJNeJufBC05aZHILv)"><g><g><path d=" M 18.219 16.551 C 19.896 14.836 21.02 12.588 21.02 10.02 C 21.02 5.042 16.978 1 12 1 C 7.022 1 2.98 5.042 2.98 10.02 C 2.98 12.62 4.007 14.787 5.844 16.61 L 5.844 16.61 L 11.633 23 L 18.23 16.551 L 18.219 16.551 Z " fill="rgb(44,46,53)"/></g></g></g><clipPath id="_clipPath_6Ravi5ZoUgQeZ2pVeyoM6QGPm69sPU3N"><rect x="0" y="0" width="24" height="24" transform="matrix(1,0,0,1,0,0)" fill="rgb(255,255,255)"/></clipPath><g clip-path="url(#_clipPath_6Ravi5ZoUgQeZ2pVeyoM6QGPm69sPU3N)"><g><g><clipPath id="_clipPath_jxwG1wrfedkJuGphLqiWrpTVb29upq0G"><rect x="0" y="0" width="24" height="24" transform="matrix(1,0,0,1,0,0)" fill="rgb(255,255,255)"/></clipPath><g clip-path="url(#_clipPath_jxwG1wrfedkJuGphLqiWrpTVb29upq0G)"><g><g><g><clipPath id="_clipPath_TljEGbiLaDKOfIyfw5vzhgCJmOr3QDqO"><rect x="2.769" y="0" width="18.462" height="24" transform="matrix(1,0,0,1,0,0)" fill="rgb(255,255,255)"/></clipPath><g clip-path="url(#_clipPath_TljEGbiLaDKOfIyfw5vzhgCJmOr3QDqO)"><g><g><g><g><circle vector-effect="non-scaling-stroke" cx="12" cy="9.900000000000002" r="6.700000000000003" fill="rgb(209,209,209)"/><ellipse vector-effect="non-scaling-stroke" cx="12.011538461538457" cy="9.821922127127984" rx="6.25" ry="6.199999999999999" fill="rgb(255,255,255)"/><clipPath id="_clipPath_vwhCyjh9Kjq9Fw1LpwbsKBoMAJvDwwqu"><rect x="6.577" y="6.164" width="10.394" height="7.349" transform="matrix(1,0,0,1,0,0)" fill="rgb(255,255,255)"/></clipPath><g clip-path="url(#_clipPath_vwhCyjh9Kjq9Fw1LpwbsKBoMAJvDwwqu)"><g><g><g><g><path d=" M 6.773 6.506 L 17.167 6.506 L 17.167 13.855 L 6.773 13.855 L 6.773 6.506 L 6.773 6.506 Z " fill="none"/></g></g></g></g></g></g></g></g></g></g></g></g></g></g></g></g></g></g></g><clipPath id="_clipPath_5LDXsoQvzxORmPLQfMg8wHnMBJk1Z9rc"><rect x="0" y="0" width="24" height="24" transform="matrix(1,0,0,1,0,0)" fill="rgb(255,255,255)"/></clipPath><g clip-path="url(#_clipPath_5LDXsoQvzxORmPLQfMg8wHnMBJk1Z9rc)"><g><rect x="0" y="0" width="24" height="24" transform="matrix(1,0,0,1,0,0)" fill="none"/><rect x="2.769" y="0" width="18.462" height="24" transform="matrix(1,0,0,1,0,0)" fill="none"/></g></g><clipPath id="_clipPath_e5l2uWS8x7iC3I16p0f3BJxMHkGA7IJL"><rect x="0" y="0" width="24" height="24" transform="matrix(1,0,0,1,0,0)" fill="rgb(255,255,255)"/></clipPath><g clip-path="url(#_clipPath_e5l2uWS8x7iC3I16p0f3BJxMHkGA7IJL)"><g><rect x="0" y="0" width="24" height="24" transform="matrix(1,0,0,1,0,0)" fill="none"/><rect x="2.769" y="0" width="18.462" height="24" transform="matrix(1,0,0,1,0,0)" fill="none"/><clipPath id="_clipPath_4N77poPMLKD6QwmXdKayiCzboy02hPi3"><rect x="2.769" y="0" width="18.462" height="24" transform="matrix(1,0,0,1,0,0)" fill="rgb(255,255,255)"/></clipPath><g clip-path="url(#_clipPath_4N77poPMLKD6QwmXdKayiCzboy02hPi3)"><g><g><g><path d=" M 7.662 4.2 L 16.338 4.2 L 16.338 12.877 L 7.662 12.877 L 7.662 4.2 L 7.662 4.2 Z " fill="none"/></g></g></g></g><clipPath id="_clipPath_KlqgUREoc6EcTrrfE4CgnId1hNWQYAmc"><rect x="2.769" y="0" width="18.462" height="24" transform="matrix(1,0,0,1,0,0)" fill="rgb(255,255,255)"/></clipPath><g clip-path="url(#_clipPath_KlqgUREoc6EcTrrfE4CgnId1hNWQYAmc)"><g><g><g><path d=" M 7.8 4.477 L 16.108 4.477 L 16.108 12.785 L 7.8 12.785 L 7.8 4.477 L 7.8 4.477 Z " fill="none"/><path d=" M 10.604 10.095 L 11.583 9.115 L 9.153 6.688 C 8.613 7.228 8.613 8.104 9.153 8.648 L 10.604 10.095 L 10.604 10.095 Z  M 12.951 9.468 C 13.48 9.714 14.225 9.541 14.775 8.99 C 15.436 8.329 15.564 7.381 15.055 6.872 C 14.55 6.367 13.602 6.491 12.937 7.152 C 12.387 7.703 12.213 8.447 12.459 8.977 L 9.081 12.355 L 9.569 12.843 L 11.954 10.465 L 14.335 12.847 L 14.823 12.358 L 12.442 9.977 L 12.951 9.468 L 12.951 9.468 Z " fill="rgb(44,46,53)"/></g></g></g></g></g></g></g></svg>