<?xml version="1.0" encoding="UTF-8" standalone="no"?><!-- Generator: Gravit.io --><svg xmlns="http://www.w3.org/2000/svg" xmlns:xlink="http://www.w3.org/1999/xlink" style="isolation:isolate" viewBox="0 0 24 24" width="24pt" height="24pt"><defs><clipPath id="_clipPath_1im4Kg8Seg03XdnztqLmofr28XtTR7ZH"><rect width="24" height="24"/></clipPath></defs><g clip-path="url(#_clipPath_1im4Kg8Seg03XdnztqLmofr28XtTR7ZH)"><clipPath id="_clipPath_P1WehYUvMzYhn37vSoCX2jww8HqOObtH"><rect x="0" y="0" width="24" height="24" transform="matrix(1,0,0,1,0,0)" fill="rgb(255,255,255)"/></clipPath><g clip-path="url(#_clipPath_P1WehYUvMzYhn37vSoCX2jww8HqOObtH)"><g><path d=" M 18.593 16.825 C 20.37 15.006 21.563 12.624 21.563 9.901 C 21.563 4.623 17.278 0.338 12 0.338 C 6.722 0.338 2.438 4.623 2.438 9.901 C 2.438 12.657 3.526 14.954 5.474 16.888 L 5.473 16.888 L 11.611 23.662 L 18.605 16.825 L 18.593 16.825 L 18.593 16.825 Z " fill="rgb(44,46,53)"/></g></g><clipPath id="_clipPath_UQyYtS8j4LbInagQ2ADpF9MSFVvP1HAp"><rect x="2.769" y="0" width="18.462" height="24" transform="matrix(1,0,0,1,0,0)" fill="rgb(255,255,255)"/></clipPath><g clip-path="url(#_clipPath_UQyYtS8j4LbInagQ2ADpF9MSFVvP1HAp)"><g><circle vector-effect="non-scaling-stroke" cx="12.000000000000002" cy="9.7" r="7.500000000000002" fill="rgb(209,209,209)"/><ellipse vector-effect="non-scaling-stroke" cx="12.007692307692306" cy="9.703268755871683" rx="6.407692307692308" ry="6.203268755871683" fill="rgb(255,255,255)"/><g><path d=" M 15.681 10.644 L 15.681 9.858 L 12.581 7.895 L 12.581 5.735 C 12.581 5.409 12.322 5.146 12 5.146 C 11.678 5.146 11.419 5.409 11.419 5.735 L 11.419 7.895 L 8.319 9.858 L 8.319 10.644 L 11.419 9.662 L 11.419 11.822 L 10.644 12.411 L 10.644 13 L 12 12.607 L 13.356 13 L 13.356 12.411 L 12.581 11.822 L 12.581 9.662 L 15.681 10.644 Z " fill="rgb(44,46,53)"/></g></g></g></g></svg>