<?xml version="1.0" encoding="UTF-8" standalone="no"?>
<!-- Generator: Gravit.io -->

<svg
   style="isolation:isolate"
   viewBox="0 0 24 24"
   width="24pt"
   height="24pt"
   version="1.1"
   id="svg62"
   xmlns="http://www.w3.org/2000/svg"
   xmlns:svg="http://www.w3.org/2000/svg">
  <defs
     id="defs1">
    <clipPath
       id="_clipPath_c4ZwQPv97AjQZXC5mTnvkk2EhtRt4N2A">
      <rect
         width="24"
         height="24"
         id="rect1" />
    </clipPath>
    <clipPath
       id="_clipPath_lg5FURnXWe6nsGQWeh64R0jHXcBZU7El">
      <rect
         width="400"
         height="520"
         id="rect1-9"
         x="0"
         y="0" />
    </clipPath>
    <filter
       id="AWdrjOUhQIghLOfOTqjP62vBdwKKnBgU"
       x="-0.07926663"
       y="-0.25548749"
       width="1.1585333"
       height="1.510975"
       filterUnits="objectBoundingBox"
       color-interpolation-filters="sRGB">
      <feGaussianBlur
         stdDeviation="4.293609062839028"
         id="feGaussianBlur1" />
    </filter>
    <filter
       id="2WQS7zKGT6Py3z03j05NmvqEAPgdW5c8"
       x="-0.0027694234"
       y="-0.0020491803"
       width="1.0055388"
       height="1.0081743"
       filterUnits="objectBoundingBox"
       color-interpolation-filters="sRGB">
      <feGaussianBlur
         stdDeviation="0"
         id="feGaussianBlur2" />
    </filter>
    <filter
       id="filter3"
       x="-0.07926663"
       y="-0.2554875"
       width="1.1585333"
       height="1.510975"
       filterUnits="objectBoundingBox"
       color-interpolation-filters="sRGB">
      <feGaussianBlur
         stdDeviation="4.293609062839028"
         id="feGaussianBlur3" />
    </filter>
    <filter
       id="filter4"
       x="-0.0027694234"
       y="-0.0020491802"
       width="1.0055388"
       height="1.0081743"
       filterUnits="objectBoundingBox"
       color-interpolation-filters="sRGB">
      <feGaussianBlur
         stdDeviation="0"
         id="feGaussianBlur4" />
    </filter>
  </defs>
  <g
     clip-path="url(#_clipPath_lg5FURnXWe6nsGQWeh64R0jHXcBZU7El)"
     id="g7"
     transform="matrix(0.04642166,0,0,0.04642166,2.7408752,-0.13926409)"
     style="isolation:isolate">
    <g
       id="g4">
      <defs
         id="defs2">
        <filter
           id="filter62"
           x="-0.07926663"
           y="-0.2554875"
           width="1.1585333"
           height="1.510975"
           filterUnits="objectBoundingBox"
           color-interpolation-filters="sRGB">
          <feGaussianBlur
             stdDeviation="4.293609062839028"
             id="feGaussianBlur62" />
        </filter>
      </defs>
      <g
         filter="url(#AWdrjOUhQIghLOfOTqjP62vBdwKKnBgU)"
         id="g2">
        <ellipse
           vector-effect="non-scaling-stroke"
           cx="198.91362"
           cy="492"
           rx="65"
           ry="20.166666"
           fill="#a2a2a2"
           fill-opacity="0.7"
           id="ellipse2" />
      </g>
      <defs
         id="defs3">
        <filter
           id="filter63"
           x="-0.0027694234"
           y="-0.0020491802"
           width="1.0055388"
           height="1.0081743"
           filterUnits="objectBoundingBox"
           color-interpolation-filters="sRGB">
          <feGaussianBlur
             stdDeviation="0"
             id="feGaussianBlur63" />
        </filter>
      </defs>
      <g
         filter="url(#2WQS7zKGT6Py3z03j05NmvqEAPgdW5c8)"
         id="g3">
        <path
           d="M 18.914,185.931 C 18.914,85.382 99.774,4 199.384,4 299.14,4 380,85.382 380,185.931 c 0,53.96 -23.438,102.613 -60.645,135.932 -2.051,1.77 -72.95,68.261 -120.411,170.137 C 181.073,419.906 111.785,350.613 79.998,322.306 42.498,288.839 18.914,240.186 18.914,185.931 Z m 292.091,0"
           fill="#2c2e35"
           vector-effect="non-scaling-stroke"
           stroke-width="2"
           stroke="#2c2e35"
           stroke-linejoin="miter"
           stroke-linecap="butt"
           stroke-miterlimit="4"
           id="path3" />
      </g>
    </g>
    <circle
       vector-effect="non-scaling-stroke"
       cx="199"
       cy="187"
       r="135"
       fill="#d1d1d1"
       id="circle4" />
    <circle
       vector-effect="non-scaling-stroke"
       cx="199.5"
       cy="186.64165"
       r="125.5"
       fill="#ffffff"
       id="circle5" />
    <g
       style="fill:#2c2e35;fill-opacity:1"
       id="g8"
       transform="matrix(0.25393327,0,0,0.25393327,77.858097,306.21714)">
      <path
         d="m 841,-518 v 318 q 0,33 -23.5,56.5 Q 794,-120 761,-120 H 201 q -33,0 -56.5,-23.5 Q 121,-167 121,-200 V -518 Q 98,-539 85.5,-572 73,-605 85,-644 l 42,-136 q 8,-26 28.5,-43 20.5,-17 47.5,-17 h 556 q 27,0 47,16.5 20,16.5 29,43.5 l 42,136 q 12,39 -0.5,71 -12.5,32 -35.5,55 z m -272,-42 q 27,0 41,-18.5 14,-18.5 11,-41.5 l -22,-140 h -78 v 148 q 0,21 14,36.5 14,15.5 34,15.5 z m -180,0 q 23,0 37.5,-15.5 Q 441,-591 441,-612 v -148 h -78 l -22,140 q -4,24 10.5,42 14.5,18 37.5,18 z m -178,0 q 18,0 31.5,-13 13.5,-13 16.5,-33 l 22,-154 h -78 l -40,134 q -6,20 6.5,43 12.5,23 41.5,23 z m 540,0 q 29,0 42,-23 13,-23 6,-43 l -42,-134 h -76 l 22,154 q 3,20 16.5,33 13.5,13 31.5,13 z m -550,360 h 560 v -282 q -5,2 -6.5,2 H 751 q -27,0 -47.5,-9 -20.5,-9 -40.5,-29 -18,18 -41,28 -23,10 -49,10 -27,0 -50.5,-10 -23.5,-10 -41.5,-28 -17,18 -39.5,28 -22.5,10 -48.5,10 -29,0 -52.5,-10 -23.5,-10 -41.5,-28 -21,21 -41.5,29.5 -20.5,8.5 -46.5,8.5 h -4.5 q -2.5,0 -5.5,-2 z m 560,0 H 201 Z"
         id="path1"
         style="fill:#2c2e35;fill-opacity:1" />
    </g>
  </g>
</svg>
