<?xml version="1.0" encoding="UTF-8" standalone="no"?><!-- Generator: Gravit.io --><svg xmlns="http://www.w3.org/2000/svg" xmlns:xlink="http://www.w3.org/1999/xlink" style="isolation:isolate" viewBox="0 0 400 520" width="400pt" height="520pt"><defs><clipPath id="_clipPath_7h4UB5vp6WjtSHG3fne7DzzRrqcLhLE6"><rect width="400" height="520"/></clipPath></defs><g clip-path="url(#_clipPath_7h4UB5vp6WjtSHG3fne7DzzRrqcLhLE6)"><g><defs><filter id="uwZsRaKSFQ77W7aWH8N0WpSGSLJf0eD8" x="-200%" y="-200%" width="400%" height="400%" filterUnits="objectBoundingBox" color-interpolation-filters="sRGB"><feGaussianBlur xmlns="http://www.w3.org/2000/svg" stdDeviation="4.293609062839028"/></filter></defs><g filter="url(#uwZsRaKSFQ77W7aWH8N0WpSGSLJf0eD8)"><ellipse vector-effect="non-scaling-stroke" cx="198.91361582044095" cy="491.99999999999994" rx="65" ry="20.166666666666686" fill="rgb(162,162,162)" fill-opacity="0.7"/></g><defs><filter id="rSl8ZW0aAnIWhKMXb2OvJSH8f1z2v7uK" x="-200%" y="-200%" width="400%" height="400%" filterUnits="objectBoundingBox" color-interpolation-filters="sRGB"><feGaussianBlur xmlns="http://www.w3.org/2000/svg" stdDeviation="0"/></filter></defs><g filter="url(#rSl8ZW0aAnIWhKMXb2OvJSH8f1z2v7uK)"><path d=" M 18.914 185.931 C 18.914 85.382 99.774 4 199.384 4 C 299.14 4 380 85.382 380 185.931 C 380 239.891 356.562 288.544 319.355 321.863 C 317.304 323.633 246.405 390.124 198.944 492 C 181.073 419.906 111.785 350.613 79.998 322.306 C 42.498 288.839 18.914 240.186 18.914 185.931 Z  M 311.005 185.931" fill="rgb(0,0,0)" vector-effect="non-scaling-stroke" stroke-width="2" stroke="rgb(0,0,0)" stroke-linejoin="miter" stroke-linecap="butt" stroke-miterlimit="4"/></g></g><circle vector-effect="non-scaling-stroke" cx="199" cy="186.99999999999997" r="135" fill="rgb(255,255,255)"/><circle vector-effect="non-scaling-stroke" cx="199.50000000000003" cy="186.64164608777287" r="125.49999999999997" fill="rgb(223,210,29)"/><g><path d=" M 198.5 109 C 168 109 137.5 113 137.5 141 L 137.5 217 C 137.5 232.44 149.471 245 164.188 245 L 152.75 257 L 152.75 261 L 169.754 261 L 185.004 245 L 213.75 245 L 229 261 L 244.25 261 L 244.25 257 L 232.813 245 C 247.529 245 259.5 232.44 259.5 217 L 259.5 141 C 259.5 113 232.203 109 198.5 109 Z  M 164.188 229 C 157.859 229 152.75 223.64 152.75 217 C 152.75 210.36 157.859 205 164.188 205 C 170.516 205 175.625 210.36 175.625 217 C 175.625 223.64 170.516 229 164.188 229 Z  M 190.875 173 L 152.75 173 L 152.75 141 L 190.875 141 L 190.875 173 Z  M 206.125 173 L 206.125 141 L 244.25 141 L 244.25 173 L 206.125 173 Z  M 232.813 229 C 226.484 229 221.375 223.64 221.375 217 C 221.375 210.36 226.484 205 232.813 205 C 239.141 205 244.25 210.36 244.25 217 C 244.25 223.64 239.141 229 232.813 229 Z " fill="rgb(0,0,0)"/><path d=" M 107 93 L 290 93 L 290 285 L 107 285 L 107 93 Z " fill="none"/></g></g></svg>