<?xml version="1.0" encoding="UTF-8" standalone="no"?><!-- Generator: Gravit.io --><svg xmlns="http://www.w3.org/2000/svg" xmlns:xlink="http://www.w3.org/1999/xlink" style="isolation:isolate" viewBox="0 0 24 24" width="24pt" height="24pt"><defs><clipPath id="_clipPath_B92FEZS2AA4ZiFOCV0thY6yCTbbvn6Tt"><rect width="24" height="24"/></clipPath></defs><g clip-path="url(#_clipPath_B92FEZS2AA4ZiFOCV0thY6yCTbbvn6Tt)"><clipPath id="_clipPath_Vhnr5aAsjkK8ahgV8d7pgNWJLzNmr8I2"><rect x="0" y="0" width="24" height="24" transform="matrix(1,0,0,1,0,0)" fill="rgb(255,255,255)"/></clipPath><g clip-path="url(#_clipPath_Vhnr5aAsjkK8ahgV8d7pgNWJLzNmr8I2)"><g><path d=" M 18.593 16.825 C 20.37 15.006 21.563 12.624 21.563 9.901 C 21.563 4.623 17.278 0.338 12 0.338 C 6.722 0.338 2.438 4.623 2.438 9.901 C 2.438 12.657 3.526 14.954 5.474 16.888 L 5.473 16.888 L 11.611 23.662 L 18.605 16.825 L 18.593 16.825 L 18.593 16.825 Z " fill="rgb(44,46,53)"/></g></g><clipPath id="_clipPath_sq6JEWYxre1R8RczsRjxper2tSX9eFWp"><rect x="2.769" y="0" width="18.462" height="24" transform="matrix(1,0,0,1,0,0)" fill="rgb(255,255,255)"/></clipPath><g clip-path="url(#_clipPath_sq6JEWYxre1R8RczsRjxper2tSX9eFWp)"><g><circle vector-effect="non-scaling-stroke" cx="12.000000000000002" cy="9.7" r="7.500000000000002" fill="rgb(209,209,209)"/><ellipse vector-effect="non-scaling-stroke" cx="12.007692307692306" cy="9.703268755871683" rx="6.407692307692308" ry="6.203268755871683" fill="rgb(255,255,255)"/></g></g><clipPath id="_clipPath_vzFMTeeQDaPYIhTnYNMc47mj3i6FekJM"><rect x="2.769" y="0" width="18.462" height="24" transform="matrix(1,0,0,1,0,0)" fill="rgb(255,255,255)"/></clipPath><g clip-path="url(#_clipPath_vzFMTeeQDaPYIhTnYNMc47mj3i6FekJM)"><g><g><path d=" M 7.662 4.2 L 16.338 4.2 L 16.338 12.877 L 7.662 12.877 L 7.662 4.2 Z " fill="none"/></g></g></g><clipPath id="_clipPath_t3wtvgY5QFclW0dlf7jY5OcFAftk6yQg"><rect x="2.769" y="0" width="18.462" height="24" transform="matrix(1,0,0,1,0,0)" fill="rgb(255,255,255)"/></clipPath><g clip-path="url(#_clipPath_t3wtvgY5QFclW0dlf7jY5OcFAftk6yQg)"><g><g><path d=" M 7.8 4.477 L 16.108 4.477 L 16.108 12.785 L 7.8 12.785 L 7.8 4.477 Z " fill="none"/><path d=" M 10.604 10.095 L 11.583 9.115 L 9.153 6.688 C 8.613 7.228 8.613 8.104 9.153 8.648 L 10.604 10.095 Z  M 12.951 9.468 C 13.48 9.714 14.225 9.541 14.775 8.99 C 15.436 8.329 15.564 7.381 15.055 6.872 C 14.55 6.367 13.602 6.491 12.937 7.152 C 12.387 7.703 12.213 8.447 12.459 8.977 L 9.081 12.355 L 9.569 12.843 L 11.954 10.465 L 14.335 12.847 L 14.823 12.358 L 12.442 9.977 L 12.951 9.468 Z " fill="rgb(44,46,53)"/></g></g></g></g></svg>