<?xml version="1.0" encoding="UTF-8" standalone="no"?><!-- Generator: Gravit.io --><svg xmlns="http://www.w3.org/2000/svg" xmlns:xlink="http://www.w3.org/1999/xlink" style="isolation:isolate" viewBox="0 0 400 520" width="400pt" height="520pt"><defs><clipPath id="_clipPath_CEw6TkMu0f4swog5erpbMkwTndE06UPh"><rect width="400" height="520"/></clipPath></defs><g clip-path="url(#_clipPath_CEw6TkMu0f4swog5erpbMkwTndE06UPh)"><g><defs><filter id="DV2QqgzjtDMInRq4NzbltEZE9D3Ic68i" x="-200%" y="-200%" width="400%" height="400%" filterUnits="objectBoundingBox" color-interpolation-filters="sRGB"><feGaussianBlur xmlns="http://www.w3.org/2000/svg" stdDeviation="4.293609062839028"/></filter></defs><g filter="url(#DV2QqgzjtDMInRq4NzbltEZE9D3Ic68i)"><ellipse vector-effect="non-scaling-stroke" cx="198.91361582044095" cy="491.99999999999994" rx="65" ry="20.166666666666686" fill="rgb(162,162,162)" fill-opacity="0.7"/></g><defs><filter id="TSlgHwaIxQPVzDC2SMNalANnwhUi1l4H" x="-200%" y="-200%" width="400%" height="400%" filterUnits="objectBoundingBox" color-interpolation-filters="sRGB"><feGaussianBlur xmlns="http://www.w3.org/2000/svg" stdDeviation="0"/></filter></defs><g filter="url(#TSlgHwaIxQPVzDC2SMNalANnwhUi1l4H)"><path d=" M 18.914 185.931 C 18.914 85.382 99.774 4 199.384 4 C 299.14 4 380 85.382 380 185.931 C 380 239.891 356.562 288.544 319.355 321.863 C 317.304 323.633 246.405 390.124 198.944 492 C 181.073 419.906 111.785 350.613 79.998 322.306 C 42.498 288.839 18.914 240.186 18.914 185.931 Z  M 311.005 185.931" fill="rgb(0,97,75)" vector-effect="non-scaling-stroke" stroke-width="2" stroke="rgb(0,97,75)" stroke-linejoin="miter" stroke-linecap="butt" stroke-miterlimit="4"/></g></g><circle vector-effect="non-scaling-stroke" cx="199.50000000000003" cy="186.64164608777287" r="125.49999999999997" fill="rgb(254,225,51)"/><g><g><path d=" M 197.941 210.14 C 197.941 210.14 179.509 130.84 178.839 128.895 C 178.148 126.942 176.682 125.501 174.596 125.489 C 172.505 125.468 139.878 125.501 139.878 125.501 C 136.667 125.501 135.618 129.137 135.618 132.947 C 135.618 136.732 136.513 140.472 139.724 140.472 L 148.856 140.459 L 140.948 226.864 L 132.69 226.889 C 129.475 226.889 128.584 230.595 128.584 234.427 C 128.584 238.22 129.638 241.789 132.857 241.789 L 168.412 241.801 C 171.631 241.801 172.688 238.124 172.688 234.331 C 172.688 230.504 171.789 226.793 168.574 226.793 L 159.817 226.768 L 166.729 145.748 L 191.423 239.353 L 204.458 239.353 L 229.156 145.748 L 236.069 226.768 L 227.307 226.793 C 224.092 226.793 223.201 230.504 223.201 234.331 C 223.201 238.124 224.251 241.801 227.465 241.801 L 263.028 241.789 C 266.239 241.789 267.293 238.22 267.293 234.427 C 267.293 230.595 266.397 226.889 263.195 226.889 L 254.929 226.864 L 247.025 140.459 L 256.157 140.468 C 259.368 140.468 260.259 136.732 260.259 132.943 C 260.259 129.137 259.21 125.501 256.003 125.501 C 256.003 125.501 223.372 125.468 221.29 125.489 C 219.195 125.501 217.729 126.942 217.042 128.895 C 216.376 130.84 197.941 210.14 197.941 210.14 Z " fill="rgb(0,97,75)"/></g></g></g></svg>