<?xml version="1.0" encoding="UTF-8" standalone="no"?><!-- Generator: Gravit.io --><svg xmlns="http://www.w3.org/2000/svg" xmlns:xlink="http://www.w3.org/1999/xlink" style="isolation:isolate" viewBox="0 0 400 520" width="400pt" height="520pt"><defs><clipPath id="_clipPath_NgzsKdXnJ2xhJ20wgW30epLE6tslXzr7"><rect width="400" height="520"/></clipPath></defs><g clip-path="url(#_clipPath_NgzsKdXnJ2xhJ20wgW30epLE6tslXzr7)"><g><defs><filter id="ZEh61jC09jlU6Fo9LCkBraEla0GhVviH" x="-200%" y="-200%" width="400%" height="400%" filterUnits="objectBoundingBox" color-interpolation-filters="sRGB"><feGaussianBlur xmlns="http://www.w3.org/2000/svg" stdDeviation="4.293609062839028"/></filter></defs><g filter="url(#ZEh61jC09jlU6Fo9LCkBraEla0GhVviH)"><ellipse vector-effect="non-scaling-stroke" cx="198.91361582044095" cy="490" rx="65" ry="20.166666666666686" fill="rgb(162,162,162)" fill-opacity="0.7"/></g><defs><filter id="QYkB1aelbsF3oNDva2wjJMDsEFHprSQ1" x="-200%" y="-200%" width="400%" height="400%" filterUnits="objectBoundingBox" color-interpolation-filters="sRGB"><feGaussianBlur xmlns="http://www.w3.org/2000/svg" stdDeviation="0"/></filter></defs><g filter="url(#QYkB1aelbsF3oNDva2wjJMDsEFHprSQ1)"><path d=" M 18.914 183.931 C 18.914 83.382 99.774 2 199.384 2 C 299.14 2 380 83.382 380 183.931 C 380 237.891 356.562 286.544 319.355 319.863 C 317.304 321.633 246.405 388.124 198.944 490 C 181.073 417.906 111.785 348.613 79.998 320.306 C 42.498 286.839 18.914 238.186 18.914 183.931 Z  M 311.005 183.931" fill="rgb(0,97,75)" vector-effect="non-scaling-stroke" stroke-width="2" stroke="rgb(0,97,75)" stroke-linejoin="miter" stroke-linecap="butt" stroke-miterlimit="4"/></g></g><circle vector-effect="non-scaling-stroke" cx="199.50000000000003" cy="184.64164608777287" r="125.49999999999997" fill="rgb(254,225,51)"/><g><g><path d=" M 197.941 208.14 C 197.941 208.14 179.509 128.84 178.839 126.895 C 178.148 124.942 176.682 123.501 174.596 123.489 C 172.505 123.468 139.878 123.501 139.878 123.501 C 136.667 123.501 135.618 127.137 135.618 130.947 C 135.618 134.732 136.513 138.472 139.724 138.472 L 148.856 138.459 L 140.948 224.864 L 132.69 224.889 C 129.475 224.889 128.584 228.595 128.584 232.427 C 128.584 236.22 129.638 239.789 132.857 239.789 L 168.412 239.801 C 171.631 239.801 172.688 236.124 172.688 232.331 C 172.688 228.504 171.789 224.793 168.574 224.793 L 159.817 224.768 L 166.729 143.748 L 191.423 237.353 L 204.458 237.353 L 229.156 143.748 L 236.069 224.768 L 227.307 224.793 C 224.092 224.793 223.201 228.504 223.201 232.331 C 223.201 236.124 224.251 239.801 227.465 239.801 L 263.028 239.789 C 266.239 239.789 267.293 236.22 267.293 232.427 C 267.293 228.595 266.397 224.889 263.195 224.889 L 254.929 224.864 L 247.025 138.459 L 256.157 138.468 C 259.368 138.468 260.259 134.732 260.259 130.943 C 260.259 127.137 259.21 123.501 256.003 123.501 C 256.003 123.501 223.372 123.468 221.29 123.489 C 219.195 123.501 217.729 124.942 217.042 126.895 C 216.376 128.84 197.941 208.14 197.941 208.14 Z " fill="rgb(0,97,75)"/></g></g></g></svg>