<?xml version="1.0" encoding="UTF-8" standalone="no"?><!-- Generator: Gravit.io --><svg xmlns="http://www.w3.org/2000/svg" xmlns:xlink="http://www.w3.org/1999/xlink" style="isolation:isolate" viewBox="0 0 24 24" width="24pt" height="24pt"><defs><clipPath id="_clipPath_jDJYoex2rb4gr3xycLIKYK46BXRyMeL5"><rect width="24" height="24"/></clipPath></defs><g clip-path="url(#_clipPath_jDJYoex2rb4gr3xycLIKYK46BXRyMeL5)"><path d=" M 18.784 16.965 C 20.614 15.094 21.84 12.641 21.84 9.84 C 21.84 4.409 17.431 0 12 0 C 6.569 0 2.16 4.409 2.16 9.84 C 2.16 12.676 3.28 15.04 5.284 17.029 L 5.284 17.029 L 11.6 24 L 18.796 16.965 L 18.784 16.965 Z " fill="rgb(130,132,132)"/><path d=" M 7.585 7.578 C 6.71 8.48 5.871 9.599 5.863 10.435 C 5.859 10.749 5.974 11.024 6.248 11.232 C 6.643 11.531 7.079 11.637 7.512 11.637 C 8.145 11.638 8.773 11.414 9.265 11.241 C 10.094 10.951 19.256 7.459 19.256 7.459 C 19.344 7.421 19.328 7.372 19.217 7.396 C 19.172 7.406 9.243 9.767 9.243 9.767 C 9.055 9.814 8.861 9.838 8.665 9.84 C 7.902 9.844 7.223 9.472 7.229 8.689 C 7.231 8.382 7.338 8.013 7.585 7.578 L 7.585 7.578 Z " fill="rgb(255,255,255)"/></g></svg>