<?xml version="1.0" encoding="UTF-8" standalone="no"?><!-- Generator: Gravit.io --><svg xmlns="http://www.w3.org/2000/svg" xmlns:xlink="http://www.w3.org/1999/xlink" style="isolation:isolate" viewBox="0 0 24 24" width="24pt" height="24pt"><defs><clipPath id="_clipPath_zyMMGwqU7bmcWqgaiC3PakqdRN75v3jG"><rect width="24" height="24"/></clipPath></defs><g clip-path="url(#_clipPath_zyMMGwqU7bmcWqgaiC3PakqdRN75v3jG)"><clipPath id="_clipPath_ubEPBgNDxGHFNVrY67rB5n2LB1lklkIm"><rect x="0" y="0" width="24" height="24" transform="matrix(1,0,0,1,0,0)" fill="rgb(255,255,255)"/></clipPath><g clip-path="url(#_clipPath_ubEPBgNDxGHFNVrY67rB5n2LB1lklkIm)"><g><clipPath id="_clipPath_VN7VIkLgm8s3Ok6n9xZ0VC6Fv5ewrmGe"><rect x="0" y="0" width="24" height="24" transform="matrix(1,0,0,1,0,0)" fill="rgb(255,255,255)"/></clipPath><g clip-path="url(#_clipPath_VN7VIkLgm8s3Ok6n9xZ0VC6Fv5ewrmGe)"><g><g><clipPath id="_clipPath_kz1ct8dsQ2ZhsIqbcoK5JItBiTOiMdj7"><rect x="0" y="0" width="24" height="24" transform="matrix(1,0,0,1,0,0)" fill="rgb(255,255,255)"/></clipPath><g clip-path="url(#_clipPath_kz1ct8dsQ2ZhsIqbcoK5JItBiTOiMdj7)"><g><g><g><clipPath id="_clipPath_w4rD3JMlW0SjGP8BfUBA6eQxlz5EZ4mU"><rect x="0.23" y="0" width="24" height="24" transform="matrix(1,0,0,1,0,0)" fill="rgb(255,255,255)"/></clipPath><g clip-path="url(#_clipPath_w4rD3JMlW0SjGP8BfUBA6eQxlz5EZ4mU)"><g><g><g><g><clipPath id="_clipPath_KnhhZ9TG2uOmUrFjjkBVcQHykL7EDaRv"><rect x="0.23" y="0" width="24" height="24" transform="matrix(1,0,0,1,0,0)" fill="rgb(255,255,255)"/></clipPath><g clip-path="url(#_clipPath_KnhhZ9TG2uOmUrFjjkBVcQHykL7EDaRv)"><g><g><g><g><g><path d=" M 18.449 16.551 C 20.126 14.836 21.25 12.588 21.25 10.02 C 21.25 5.042 17.208 1 12.23 1 C 7.252 1 3.21 5.042 3.21 10.02 C 3.21 12.62 4.237 14.787 6.074 16.61 L 6.074 16.61 L 11.863 23 L 18.46 16.551 L 18.449 16.551 L 18.449 16.551 L 18.449 16.551 L 18.449 16.551 L 18.449 16.551 Z " fill="rgb(4,37,108)"/><rect x="0.23" y="0" width="24" height="24" transform="matrix(1,0,0,1,0,0)" fill="none"/></g></g></g></g></g></g><clipPath id="_clipPath_SRGhFu1TXoAhyx6mDwYEDcg6XzYbfANg"><rect x="3.21" y="1" width="18.04" height="22" transform="matrix(1,0,0,1,0,0)" fill="rgb(255,255,255)"/></clipPath><g clip-path="url(#_clipPath_SRGhFu1TXoAhyx6mDwYEDcg6XzYbfANg)"><g><g><g><g><g><circle vector-effect="non-scaling-stroke" cx="12.189531292506118" cy="10" r="7" fill="rgb(255,255,255)"/></g></g></g></g></g></g></g></g></g></g></g></g></g></g></g></g></g></g></g></g><g><g><g><g><path d=" M 6.181 8.847 C 6.181 11.315 7.912 13.361 10.426 13.361 C 12.927 13.361 14.659 11.315 14.659 8.847 C 14.659 6.226 12.959 4.332 10.426 4.332 C 7.88 4.332 6.181 6.226 6.181 8.847 M 7.815 8.847 C 7.815 7.206 8.779 5.617 10.426 5.617 C 12.061 5.617 13.024 7.206 13.024 8.847 C 13.024 10.385 12.225 12.076 10.426 12.076 C 8.614 12.076 7.815 10.385 7.815 8.847 Z " fill-rule="evenodd" fill="rgb(4,37,108)"/><path d=" M 16.957 15.05 L 16.957 14.448 L 15.451 14.448 C 16.054 13.836 16.839 13.092 16.839 12.282 C 16.839 11.532 16.385 11.166 15.683 11.166 C 15.309 11.166 14.923 11.265 14.589 11.44 L 14.647 12.074 C 14.889 11.91 15.187 11.768 15.498 11.768 C 15.799 11.768 16.101 11.932 16.101 12.282 C 16.101 12.982 14.848 14.065 14.505 14.41 L 14.505 15.05 L 16.957 15.05" fill="rgb(4,37,108)"/></g></g></g></g></g></svg>