<?xml version="1.0" encoding="UTF-8" standalone="no"?><!-- Generator: Gravit.io --><svg xmlns="http://www.w3.org/2000/svg" xmlns:xlink="http://www.w3.org/1999/xlink" style="isolation:isolate" viewBox="0 0 24 24" width="24pt" height="24pt"><defs><clipPath id="_clipPath_ZFCk6rmF5ErmkEh5IhcoWoPFSy1jUnZB"><rect width="24" height="24"/></clipPath></defs><g clip-path="url(#_clipPath_ZFCk6rmF5ErmkEh5IhcoWoPFSy1jUnZB)"><clipPath id="_clipPath_xCgN5PoogNs6mhjXMc5ZtHViev3YOFWn"><rect x="2.49" y="0.5" width="19.02" height="23" transform="matrix(1,0,0,1,0,0)" fill="rgb(255,255,255)"/></clipPath><g clip-path="url(#_clipPath_xCgN5PoogNs6mhjXMc5ZtHViev3YOFWn)"><g><path d=" M 18.557 16.758 C 20.325 14.965 21.51 12.615 21.51 9.93 C 21.51 4.726 17.248 0.5 12 0.5 C 6.752 0.5 2.49 4.726 2.49 9.93 C 2.49 12.648 3.573 14.914 5.51 16.82 L 5.51 16.82 L 11.613 23.5 L 18.568 16.758 L 18.557 16.758 Z " fill="rgb(0,0,0)"/></g></g><g><path d=" M 14.012 6.06 L 11.827 6.06 L 11.827 9.491 L 14.049 9.491 L 14.049 8.954 L 12.416 8.954 L 12.416 8.217 L 13.584 8.217 L 13.584 7.708 L 12.416 7.708 L 12.416 6.599 L 14.012 6.599 L 14.012 6.06 Z  M 9.402 6.06 L 8.813 6.06 L 8.813 9.491 L 10.97 9.491 L 10.97 8.973 L 9.402 8.973 L 9.402 6.06 Z  M 6.256 6.536 C 6.937 6.536 7.419 7.054 7.419 7.778 C 7.419 8.501 6.938 9.015 6.256 9.015 C 5.573 9.015 5.093 8.497 5.093 7.779 C 5.093 7.061 5.58 6.537 6.257 6.537 M 6.257 6 C 5.244 6 4.5 6.757 4.5 7.779 C 4.5 8.801 5.244 9.552 6.257 9.552 C 7.269 9.552 8.018 8.806 8.018 7.779 C 8.018 6.752 7.265 6 6.257 6 Z " fill="rgb(255,255,255)"/><path d=" M 17.456 9.043 C 17.136 9.043 16.9 8.856 16.9 8.543 C 16.9 8.254 17.065 8.1 17.357 7.904 C 17.375 7.92 17.391 7.937 17.406 7.955 L 18.093 8.727 C 17.924 8.904 17.722 9.044 17.458 9.044 M 17.561 6.463 C 17.769 6.463 17.915 6.589 17.915 6.801 C 17.915 7.02 17.769 7.132 17.491 7.305 C 17.331 7.146 17.199 6.992 17.199 6.81 C 17.199 6.59 17.35 6.464 17.561 6.464 M 19.5 9.491 L 18.798 8.716 L 19.48 7.839 L 18.819 7.839 L 18.437 8.315 L 17.801 7.615 C 18.131 7.4 18.447 7.195 18.447 6.775 C 18.447 6.322 18.093 6 17.557 6 C 17.02 6 16.666 6.322 16.666 6.784 C 16.666 7.093 16.841 7.344 17.052 7.578 C 16.581 7.876 16.322 8.108 16.322 8.581 C 16.322 9.193 16.831 9.538 17.424 9.538 C 17.862 9.543 18.178 9.365 18.441 9.118 L 18.776 9.491 L 19.5 9.491 Z " fill="rgb(255,255,255)"/><path d=" M 16.836 10.446 L 16.819 10.446 L 16.819 13.938 L 17.346 13.938 L 17.346 11.809 L 19.233 13.998 L 19.25 13.998 L 19.25 10.506 L 18.722 10.506 L 18.722 12.629 L 16.836 10.446 Z  M 15.914 10.506 L 13.959 10.506 L 13.959 13.938 L 15.947 13.938 L 15.947 13.401 L 14.486 13.401 L 14.486 12.664 L 15.53 12.664 L 15.53 12.155 L 14.486 12.155 L 14.486 11.045 L 15.914 11.045 L 15.914 10.506 Z  M 13.025 10.506 L 11.07 10.506 L 11.07 13.938 L 13.058 13.938 L 13.058 13.401 L 11.597 13.401 L 11.597 12.664 L 12.641 12.664 L 12.641 12.155 L 11.597 12.155 L 11.597 11.045 L 13.025 11.045 L 13.025 10.506 Z  M 10.302 10.506 L 7.678 10.506 L 7.678 11.025 L 8.727 11.025 L 8.727 13.938 L 9.254 13.938 L 9.254 11.024 L 10.302 11.024 L 10.302 10.506 Z  M 5.923 10.446 C 5.291 10.446 4.853 10.861 4.853 11.473 C 4.853 11.982 5.084 12.28 5.854 12.467 C 6.351 12.579 6.524 12.724 6.524 12.981 C 6.524 13.298 6.288 13.471 5.93 13.471 C 5.598 13.468 5.28 13.324 5.041 13.069 L 4.75 13.552 C 5.049 13.841 5.449 14 5.917 14 C 6.616 14 7.049 13.566 7.049 12.926 C 7.049 12.403 6.783 12.119 6.008 11.932 C 5.511 11.82 5.376 11.699 5.376 11.442 C 5.376 11.124 5.608 10.975 5.916 10.975 C 6.215 10.981 6.504 11.098 6.737 11.306 L 6.99 10.816 C 6.678 10.571 6.305 10.441 5.923 10.446" fill="rgb(255,255,255)"/></g></g></svg>