<?xml version="1.0" encoding="UTF-8" standalone="no"?><!-- Generator: Gravit.io --><svg xmlns="http://www.w3.org/2000/svg" xmlns:xlink="http://www.w3.org/1999/xlink" style="isolation:isolate" viewBox="0 0 24 24" width="24pt" height="24pt"><defs><clipPath id="_clipPath_SZfwst4roOnSyHW5mbx3DwbCeyCl1y6o"><rect width="24" height="24"/></clipPath></defs><g clip-path="url(#_clipPath_SZfwst4roOnSyHW5mbx3DwbCeyCl1y6o)"><clipPath id="_clipPath_leggDISuyx8WxRRzfOCGMjIYTGrk5tOd"><rect x="0" y="0" width="24" height="24" transform="matrix(1,0,0,1,0,0)" fill="rgb(255,255,255)"/></clipPath><g clip-path="url(#_clipPath_leggDISuyx8WxRRzfOCGMjIYTGrk5tOd)"><g><path d=" M 18.219 16.551 C 19.896 14.836 21.02 12.588 21.02 10.02 C 21.02 5.042 16.978 1 12 1 C 7.022 1 2.98 5.042 2.98 10.02 C 2.98 12.62 4.007 14.787 5.844 16.61 L 5.844 16.61 L 11.633 23 L 18.23 16.551 L 18.219 16.551 L 18.219 16.551 Z " fill="rgb(136,157,159)"/></g></g><g><g><g><path d=" M 12.093 6.052 L 12.756 8.157 L 13.428 6.052 L 13.824 6.052 L 12.747 9.317 L 11.692 6.052 L 12.093 6.052 Z  M 6.011 6 C 6.352 6 6.647 6.157 6.891 6.466 C 7.135 6.775 7.259 7.148 7.259 7.58 C 7.259 8.017 7.135 8.39 6.891 8.693 C 6.642 8.996 6.343 9.153 5.993 9.153 C 5.685 9.153 5.404 9.019 5.16 8.745 C 4.884 8.442 4.75 8.046 4.75 7.562 C 4.75 7.137 4.874 6.769 5.123 6.46 C 5.372 6.152 5.666 6 6.011 6 Z  M 8.714 6.052 L 8.714 8.658 L 9.418 8.658 L 9.418 9.089 L 8.35 9.089 L 8.35 6.052 L 8.714 6.052 Z  M 10.758 6.052 L 10.758 9.089 L 10.394 9.089 L 10.394 6.052 L 10.758 6.052 Z  M 16.089 6.052 L 16.089 6.484 L 15.122 6.484 L 15.122 7.212 L 16.057 7.212 L 16.057 7.644 L 15.122 7.644 L 15.122 8.658 L 16.084 8.658 L 16.084 9.089 L 14.763 9.089 L 14.763 6.052 L 16.089 6.052 Z  M 17.617 6.052 C 17.935 6.052 18.165 6.128 18.303 6.28 C 18.46 6.449 18.538 6.67 18.538 6.944 C 18.538 7.16 18.488 7.346 18.391 7.498 C 18.299 7.655 18.17 7.754 18.009 7.795 L 18.75 9.089 L 18.308 9.089 L 17.622 7.848 L 17.558 7.848 L 17.558 9.089 L 17.194 9.089 L 17.194 6.052 L 17.617 6.052 Z  M 5.998 6.42 C 5.749 6.42 5.537 6.53 5.367 6.752 C 5.201 6.973 5.114 7.247 5.114 7.562 C 5.114 7.9 5.201 8.174 5.381 8.39 C 5.556 8.605 5.763 8.716 5.993 8.716 C 6.246 8.716 6.458 8.605 6.628 8.384 C 6.803 8.162 6.886 7.889 6.886 7.568 C 6.886 7.242 6.799 6.973 6.628 6.752 C 6.458 6.53 6.246 6.42 5.998 6.42 Z  M 17.687 6.49 L 17.558 6.49 L 17.558 7.451 L 17.673 7.451 C 18.013 7.451 18.188 7.288 18.188 6.956 C 18.188 6.647 18.023 6.49 17.687 6.49 Z " fill="rgb(255,255,255)"/></g></g></g><g><g><g><path d=" M 11.097 10 L 12.88 12.245 L 12.88 10.197 L 13.251 10.197 L 13.251 13.317 L 11.467 11.077 L 11.467 13.136 L 11.097 13.136 L 11.097 10 Z  M 8.712 10.147 C 9.06 10.147 9.36 10.299 9.609 10.598 C 9.858 10.897 9.984 11.258 9.984 11.675 C 9.984 12.098 9.858 12.459 9.609 12.753 C 9.355 13.046 9.05 13.198 8.694 13.198 C 8.379 13.198 8.093 13.068 7.844 12.803 C 7.563 12.51 7.426 12.126 7.426 11.658 C 7.426 11.247 7.553 10.891 7.807 10.592 C 8.06 10.293 8.36 10.147 8.712 10.147 Z  M 18.282 10.141 C 18.559 10.141 18.779 10.305 18.939 10.637 L 18.639 10.852 C 18.582 10.733 18.531 10.66 18.479 10.62 C 18.427 10.581 18.357 10.558 18.273 10.558 C 18.169 10.558 18.085 10.592 18.019 10.666 C 17.953 10.733 17.916 10.818 17.916 10.925 C 17.916 11.066 18.005 11.184 18.183 11.269 L 18.427 11.388 C 18.625 11.483 18.77 11.602 18.864 11.743 C 18.958 11.884 19 12.053 19 12.256 C 19 12.527 18.925 12.753 18.775 12.927 C 18.625 13.108 18.437 13.192 18.212 13.192 C 18 13.192 17.822 13.119 17.686 12.967 C 17.55 12.815 17.465 12.6 17.432 12.329 L 17.808 12.228 C 17.827 12.403 17.855 12.521 17.897 12.583 C 17.972 12.707 18.085 12.775 18.23 12.775 C 18.348 12.775 18.442 12.73 18.517 12.634 C 18.592 12.538 18.629 12.425 18.629 12.284 C 18.629 12.228 18.625 12.177 18.61 12.126 C 18.596 12.081 18.578 12.036 18.549 11.997 C 18.521 11.957 18.484 11.918 18.442 11.884 C 18.399 11.85 18.343 11.816 18.282 11.782 L 18.047 11.664 C 17.714 11.495 17.545 11.247 17.545 10.919 C 17.545 10.699 17.615 10.513 17.756 10.367 C 17.897 10.214 18.071 10.141 18.282 10.141 Z  M 5.366 10.197 C 5.53 10.197 5.662 10.214 5.756 10.243 C 5.854 10.271 5.939 10.327 6.004 10.395 C 6.075 10.468 6.126 10.564 6.169 10.677 C 6.211 10.79 6.23 10.902 6.23 11.021 C 6.23 11.23 6.164 11.41 6.028 11.557 C 6.159 11.608 6.262 11.703 6.333 11.839 C 6.408 11.969 6.446 12.126 6.446 12.301 C 6.446 12.533 6.38 12.724 6.244 12.882 C 6.164 12.978 6.07 13.046 5.972 13.085 C 5.859 13.125 5.723 13.142 5.554 13.142 L 5 13.136 L 5 10.197 L 5.366 10.197 Z  M 15.433 10.017 L 16.602 13.142 L 16.193 13.142 L 15.94 12.425 L 14.893 12.425 L 14.621 13.142 L 14.222 13.142 L 15.433 10.017 Z  M 8.698 10.553 C 8.445 10.553 8.229 10.66 8.055 10.874 C 7.886 11.089 7.797 11.354 7.797 11.658 C 7.797 11.985 7.886 12.251 8.069 12.459 C 8.248 12.668 8.459 12.775 8.694 12.775 C 8.952 12.775 9.168 12.668 9.341 12.454 C 9.52 12.239 9.604 11.974 9.604 11.664 C 9.604 11.348 9.515 11.089 9.341 10.874 C 9.168 10.66 8.952 10.553 8.698 10.553 Z  M 5.554 11.833 L 5.366 11.833 L 5.366 12.724 L 5.596 12.724 C 5.765 12.724 5.887 12.685 5.962 12.606 C 6.047 12.521 6.084 12.414 6.084 12.284 C 6.084 12.16 6.047 12.053 5.967 11.963 C 5.892 11.878 5.751 11.833 5.554 11.833 Z  M 15.428 11.01 L 15.048 12.008 L 15.79 12.008 L 15.428 11.01 Z  M 5.493 10.609 L 5.361 10.609 L 5.361 11.461 L 5.483 11.461 C 5.62 11.461 5.723 11.427 5.784 11.354 C 5.849 11.28 5.878 11.173 5.878 11.032 C 5.878 10.891 5.845 10.79 5.779 10.716 C 5.713 10.643 5.62 10.609 5.493 10.609 Z " fill="rgb(255,255,255)"/></g></g></g></g></svg>