<?xml version="1.0" encoding="UTF-8" standalone="no"?>
<!-- Generator: Gravit.io -->

<svg
   style="isolation:isolate"
   viewBox="0 0 24 24"
   width="24pt"
   height="24pt"
   version="1.1"
   id="svg924"
   sodipodi:docname="other_tools.svg"
   xml:space="preserve"
   inkscape:version="1.2.2 (732a01da63, 2022-12-09)"
   inkscape:export-filename="other_tools.svg"
   inkscape:export-xdpi="96"
   inkscape:export-ydpi="96"
   xmlns:inkscape="http://www.inkscape.org/namespaces/inkscape"
   xmlns:sodipodi="http://sodipodi.sourceforge.net/DTD/sodipodi-0.dtd"
   xmlns="http://www.w3.org/2000/svg"
   xmlns:svg="http://www.w3.org/2000/svg"><sodipodi:namedview
     id="namedview926"
     pagecolor="#ffffff"
     bordercolor="#000000"
     borderopacity="0.25"
     inkscape:showpageshadow="2"
     inkscape:pageopacity="0.0"
     inkscape:pagecheckerboard="0"
     inkscape:deskcolor="#d1d1d1"
     inkscape:document-units="pt"
     showgrid="false"
     inkscape:zoom="8.5736697"
     inkscape:cx="-0.34990851"
     inkscape:cy="9.4475298"
     inkscape:window-width="1920"
     inkscape:window-height="974"
     inkscape:window-x="-11"
     inkscape:window-y="-11"
     inkscape:window-maximized="1"
     inkscape:current-layer="g922" /><defs
     id="defs725"><clipPath
       id="_clipPath_OQIqtg9hbvv6MQS3GA37G8007xq6wAre"><rect
         width="24"
         height="24"
         id="rect722" /></clipPath><clipPath
       clipPathUnits="userSpaceOnUse"
       id="cp1"><path
         d="m-68.17-3024.93h7574.78v7571.07h-7574.78z"
         id="path6177" /></clipPath><inkscape:perspective
       sodipodi:type="inkscape:persp3d"
       inkscape:vp_x="0 : 17 : 1"
       inkscape:vp_y="0 : 1000 : 0"
       inkscape:vp_z="34 : 17 : 1"
       inkscape:persp3d-origin="17 : 11.333333 : 1"
       id="perspective15" /><inkscape:perspective
       id="perspective2395"
       inkscape:persp3d-origin="372.04724 : 350.78739 : 1"
       inkscape:vp_z="744.09448 : 526.18109 : 1"
       inkscape:vp_y="0 : 1000 : 0"
       inkscape:vp_x="0 : 526.18109 : 1"
       sodipodi:type="inkscape:persp3d" /></defs><g
     clip-path="url(#_clipPath_OQIqtg9hbvv6MQS3GA37G8007xq6wAre)"
     id="g922"><path
       d=" M 18.219 16.551 C 19.896 14.836 21.02 12.588 21.02 10.02 C 21.02 5.042 16.978 1 12 1 C 7.022 1 2.98 5.042 2.98 10.02 C 2.98 12.62 4.007 14.787 5.844 16.61 L 5.844 16.61 L 11.633 23 L 18.23 16.551 L 18.219 16.551 Z "
       fill="rgb(1,109,83)"
       id="path727"
       style="fill:#d40000;fill-opacity:1" /><g
       transform="matrix(0.03573399,0,0,-0.03573399,106.66119,1.2669071)"
       fill="#000000"
       stroke="none"
       id="g1177"><path
         d="m 2213,1041 c -43,-11 -79,-35 -100,-68 -14,-22 -19,-54 -21,-160 -4,-118 -2,-137 17,-176 37,-77 55,-82 296,-82 227,0 250,4 286,55 10,14 19,47 21,75 l 3,50 -77,3 c -73,3 -77,2 -80,-20 -5,-39 -42,-49 -166,-46 -144,4 -152,11 -152,128 0,118 8,124 155,128 94,3 121,1 140,-12 14,-9 25,-23 25,-31 0,-12 16,-15 75,-15 h 75 v 35 c 0,54 -24,101 -62,122 -28,15 -62,18 -218,20 -102,1 -200,-2 -217,-6 z"
         id="path1115" /><path
         d="M 0,800 V 559 l 280,3 280,3 26,27 c 20,19 28,39 31,75 6,61 -9,99 -46,120 l -29,17 29,27 c 54,51 33,166 -36,195 -27,11 -91,14 -285,14 H 0 Z m 448,102 c 7,-47 -10,-52 -159,-52 H 150 v 40 41 l 148,-3 c 145,-3 147,-3 150,-26 z m 12,-172 c 8,-14 8,-26 0,-40 -10,-19 -21,-20 -160,-20 H 150 v 40 40 h 150 c 139,0 150,-1 160,-20 z"
         id="path1117" /><path
         d="M 710,800 V 560 h 270 270 v 55 55 H 1055 860 v 40 40 h 180 180 v 50 50 H 1040 860 v 40 40 h 190 190 v 55 55 H 975 710 Z"
         id="path1119" /><path
         d="M 1330,800 V 560 h 75 75 v 171 c 0,94 4,169 9,167 5,-1 70,-78 146,-170 l 138,-168 h 108 109 v 240 240 h -70 -70 l -2,-177 -3,-176 -143,176 -144,177 h -114 -114 z"
         id="path1121" /><path
         d="M 2800,800 V 560 h 75 75 v 95 96 l 153,-3 152,-3 3,-92 3,-93 h 69 70 v 240 240 h -70 -69 l -3,-87 -3,-88 -152,-3 -153,-3 v 91 90 h -75 -75 z"
         id="path1123" /><path
         d="M 3510,800 V 560 h 70 70 l 2,170 3,169 95,-167 96,-167 h 54 54 l 96,165 95,165 3,-167 2,-168 h 70 70 v 240 240 h -107 -108 l -83,-145 c -46,-80 -87,-145 -92,-145 -4,0 -45,65 -90,145 l -82,145 h -109 -109 z"
         id="path1125" /><path
         d="m 4483,803 -129,-238 80,-3 c 44,-2 82,1 83,5 2,4 12,23 23,41 l 20,32 h 147 148 l 23,-40 23,-40 h 80 c 44,0 79,4 77,8 -1,5 -59,113 -127,240 l -125,232 h -97 -97 z m 276,31 c 23,-41 41,-77 41,-80 0,-2 -40,-4 -90,-4 -49,0 -90,2 -90,5 0,18 82,165 89,160 5,-3 28,-39 50,-81 z"
         id="path1127" /><path
         d="M 5120,800 V 560 h 75 75 v 60 60 h 133 c 90,0 137,-4 145,-12 7,-7 12,-34 12,-60 v -48 h 75 75 v 54 c 0,69 -13,103 -45,118 l -25,11 32,28 c 33,26 33,28 33,112 0,71 -3,89 -20,107 -40,46 -69,50 -325,50 h -240 z m 428,108 c 17,-17 15,-74 -4,-92 -12,-13 -41,-16 -145,-16 h -129 v 60 60 h 133 c 90,0 137,-4 145,-12 z"
         id="path1129" /><path
         d="m 5822,1022 c 7,-11 55,-63 106,-118 l 93,-99 48,55 48,55 -56,62 -56,63 h -98 c -93,0 -98,-1 -85,-18 z"
         id="path1131" /><path
         d="M 6045,818 C 5930,698 5829,590 5821,579 c -13,-18 -10,-19 91,-19 h 104 l 175,187 c 95,102 196,210 222,240 l 49,53 -103,-1 -104,-1 z"
         id="path1133" /><path
         d="m 6192,727 -52,-53 58,-57 58,-58 102,3 102,3 -108,108 -108,107 z"
         id="path1135" /><path
         d="M 10,250 V 80 h 50 50 v 65 c 0,59 2,65 21,65 11,0 55,-29 97,-65 l 77,-65 h 68 c 37,0 67,2 67,4 0,2 -43,38 -95,81 -52,42 -95,80 -95,83 0,4 39,44 87,89 l 88,82 -67,1 h -68 l -69,-65 c -40,-38 -77,-65 -90,-65 -19,0 -21,5 -21,65 v 65 H 60 10 Z"
         id="path1137" /><path
         d="m 480,385 c 0,-34 1,-35 40,-35 39,0 40,1 40,35 0,34 -1,35 -40,35 -39,0 -40,-1 -40,-35 z"
         id="path1139" /><path
         d="m 1287,413 c -4,-3 -7,-80 -7,-170 V 80 h 45 45 v 69 c 0,84 12,101 75,101 55,0 65,-15 65,-104 V 80 h 40 40 v 91 c 0,50 -4,99 -10,109 -20,38 -126,53 -180,25 l -30,-16 v 66 65 h -38 c -21,0 -42,-3 -45,-7 z"
         id="path1141" /><path
         d="m 3887,414 c -4,-4 -7,-34 -7,-67 0,-46 -3,-57 -12,-49 -38,30 -165,25 -199,-9 -15,-15 -19,-33 -19,-89 0,-62 3,-74 25,-95 21,-22 33,-25 95,-25 39,0 80,5 91,10 13,7 19,7 19,0 0,-5 20,-10 45,-10 h 45 l -2,168 -3,167 -35,3 c -20,2 -39,0 -43,-4 z m -9,-207 c 4,-51 -11,-67 -63,-67 -66,0 -75,6 -75,54 0,24 3,46 7,50 4,4 34,6 68,4 l 60,-3 z"
         id="path1143" /><path
         d="m 4465,408 c -3,-7 -6,-65 -7,-128 l -3,-115 h -60 c -58,0 -59,1 -69,33 -8,30 -12,32 -52,32 h -44 v -49 c 0,-33 6,-56 19,-72 18,-22 27,-24 136,-27 174,-5 189,12 183,218 l -3,115 -48,3 c -32,2 -49,-1 -52,-10 z"
         id="path1145" /><path
         d="m 5007,414 c -4,-4 -7,-20 -7,-36 0,-27 2,-28 46,-28 45,0 45,0 42,33 -3,29 -7,32 -38,35 -20,2 -39,0 -43,-4 z"
         id="path1147" /><path
         d="m 650,346 c 0,-18 -6,-25 -22,-28 -17,-2 -24,-11 -26,-30 -3,-24 0,-28 21,-28 24,0 25,-3 29,-71 5,-92 22,-109 113,-109 79,0 115,24 115,76 0,32 -2,34 -33,34 -24,0 -35,-6 -42,-22 -7,-15 -19,-23 -35,-23 -23,0 -25,4 -28,58 l -3,57 h 66 65 v 30 30 h -65 c -63,0 -65,1 -65,25 0,23 -4,25 -45,25 -41,0 -45,-2 -45,-24 z"
         id="path1149" /><path
         d="M 480,200 V 80 h 40 40 v 120 120 h -40 -40 z"
         id="path1151" /><path
         d="m 963,310 c -32,-13 -43,-41 -43,-115 0,-57 3,-69 25,-90 23,-23 31,-25 130,-25 99,0 107,2 130,25 14,13 25,36 25,50 0,23 -4,25 -40,25 -29,0 -42,-5 -50,-20 -8,-15 -21,-20 -55,-20 -68,0 -75,6 -75,60 0,54 7,60 71,60 27,0 45,-6 56,-20 20,-23 93,-29 93,-7 -1,33 -15,59 -41,72 -31,17 -189,20 -226,5 z"
         id="path1153" /><path
         d="m 1695,308 c -37,-20 -45,-40 -45,-114 0,-66 2,-74 26,-93 23,-18 41,-21 123,-21 108,0 141,13 141,56 0,21 -5,24 -36,24 -19,0 -42,-7 -50,-15 -29,-29 -124,-13 -124,20 0,12 19,15 105,15 h 105 v 39 c 0,53 -8,69 -41,86 -33,18 -174,20 -204,3 z m 163,-65 c 3,-10 -14,-13 -62,-13 -61,0 -77,6 -59,24 12,12 116,2 121,-11 z"
         id="path1155" /><path
         d="M 2000,200 V 80 h 40 40 v 58 c 0,82 15,106 68,110 63,5 72,-7 72,-94 V 80 h 46 46 l -4,95 c -3,81 -6,98 -25,116 -29,30 -118,38 -164,15 -39,-20 -39,-20 -39,-1 0,11 -11,15 -40,15 h -40 z"
         id="path1157" /><path
         d="m 2395,309 c -11,-7 -23,-17 -27,-23 -10,-15 -10,-68 0,-84 13,-19 70,-32 144,-32 66,0 95,-13 67,-31 -22,-14 -103,-10 -125,6 -10,8 -36,15 -56,15 -34,0 -38,-3 -38,-24 0,-44 33,-56 155,-56 136,0 155,9 155,75 0,61 -22,75 -121,75 -82,0 -109,6 -109,22 0,7 36,9 110,4 118,-8 127,-4 96,40 -12,16 -29,19 -123,22 -70,1 -115,-2 -128,-9 z"
         id="path1159" /><path
         d="m 2980,309 c -26,-11 -40,-26 -40,-46 0,-16 86,-18 95,-3 7,11 74,14 99,4 9,-3 16,-14 16,-23 0,-14 -11,-16 -85,-12 -108,4 -135,-10 -135,-69 0,-61 25,-80 104,-80 36,0 76,4 90,10 17,6 26,6 26,0 0,-6 21,-10 46,-10 h 46 l -4,101 c -4,132 -11,139 -142,138 -50,0 -102,-5 -116,-10 z m 170,-149 c 0,-18 -7,-20 -64,-20 -36,0 -68,5 -71,10 -13,21 8,30 71,30 57,0 64,-2 64,-20 z"
         id="path1161" /><path
         d="M 3290,200 V 80 h 45 45 v 73 c 0,84 8,97 61,97 66,0 69,-4 69,-91 V 80 h 45 45 v 89 c 0,80 -3,93 -23,117 -19,22 -34,28 -79,32 -38,3 -66,-1 -86,-11 -26,-12 -32,-13 -36,-1 -3,9 -20,14 -46,14 h -40 z"
         id="path1163" /><path
         d="m 4663,309 c -32,-17 -46,-61 -41,-129 6,-87 17,-94 139,-98 165,-6 179,3 179,117 0,109 -8,115 -149,118 -62,2 -115,-2 -128,-8 z m 178,-59 c 14,-8 19,-21 19,-50 0,-29 -5,-42 -19,-50 -27,-14 -104,-13 -119,2 -19,19 -15,85 6,97 22,14 88,14 113,1 z"
         id="path1165" /><path
         d="M 5000,201 V 80 h 45 46 l -3,118 -3,117 -42,3 -43,3 z"
         id="path1167" /><path
         d="m 5157,313 c -4,-3 -7,-57 -7,-120 V 80 h 45 45 v 75 c 0,82 9,95 69,95 58,0 61,-5 61,-91 V 80 h 45 45 v 89 c 0,80 -3,93 -23,117 -19,22 -34,28 -79,32 -38,3 -66,-1 -86,-11 -26,-12 -32,-13 -36,-1 -5,14 -67,20 -79,7 z"
         id="path1169" /><path
         d="m 5560,307 c -33,-17 -50,-53 -50,-109 0,-97 28,-118 156,-118 105,0 143,17 144,63 0,22 -64,24 -86,2 -29,-29 -124,-13 -124,20 0,12 19,15 105,15 h 105 v 43 c -1,75 -35,97 -147,97 -43,0 -89,-6 -103,-13 z m 168,-64 c 3,-10 -14,-13 -62,-13 -61,0 -77,6 -59,24 12,12 116,2 121,-11 z"
         id="path1171" /><path
         d="M 5870,200 V 80 h 39 39 l 4,76 c 4,81 12,94 60,94 17,0 31,-7 38,-20 8,-14 21,-20 45,-20 33,0 35,2 35,35 0,49 -29,75 -84,75 -29,0 -52,-7 -70,-21 l -26,-20 v 20 c 0,18 -6,21 -40,21 h -40 z"
         id="path1173" /><path
         d="m 6143,308 c 32,-84 103,-218 114,-218 26,0 7,-25 -20,-28 -22,-3 -27,-8 -27,-33 0,-27 3,-29 36,-29 67,0 68,0 185,258 l 28,62 h -45 -45 l -36,-77 c -30,-66 -37,-75 -44,-58 -5,11 -20,46 -34,78 l -25,57 h -46 c -33,0 -45,-4 -41,-12 z"
         id="path1175" /></g><g
       style="fill:#ffffff"
       id="g20881"
       transform="matrix(0.01395034,0,0,0.01395034,4.9310431,2.9432767)"><g
         id="g20864"
         style="fill:#ffffff">
	<g
   id="g20862"
   style="fill:#ffffff">
		<path
   d="m 628.833,459.92 67.596,-67.596 c 48.836,19.389 103.95,18.183 152.007,-3.614 11.799,-5.353 14.622,-20.844 5.46,-30.006 L 733.52,238.329 c -14.625,-14.625 -14.625,-38.338 0,-52.963 L 853.771,65.114 c 9.221,-9.222 6.385,-24.827 -5.497,-30.203 C 776.762,2.554 689.668,15.763 630.885,74.545 575.672,129.757 560.806,210.52 586.267,279.503 l -68.926,68.926 z"
   id="path20846"
   style="fill:#ffffff" />
		<path
   d="m 499.665,366.106 -93.414,-93.414 -111.491,111.492 93.414,93.414 111.49,111.491 341.527,341.527 c 4.877,4.877 11.271,7.316 17.662,7.316 6.393,0 12.785,-2.439 17.662,-7.316 l 76.166,-76.166 c 9.755,-9.756 9.755,-25.57 0,-35.324 L 611.155,477.598 Z"
   id="path20848"
   style="fill:#ffffff" />
		<path
   d="m 904.345,127.995 -99.869,99.869 c -7.984,7.984 -7.984,20.93 0,28.914 l 76.972,76.972 c 8.594,8.593 22.826,7.907 30.371,-1.619 45.178,-57.037 53.729,-133.579 25.659,-198.004 -5.728,-13.146 -22.995,-16.272 -33.133,-6.132 z"
   id="path20850"
   style="fill:#ffffff" />
		<path
   d="M 139.613,601.295 259.988,721.67 c 14.625,14.625 14.625,38.338 0,52.963 L 139.737,894.885 c -9.221,9.221 -6.385,24.828 5.497,30.203 71.512,32.355 158.606,19.148 217.39,-39.635 55.014,-55.014 69.968,-135.395 44.888,-204.213 l 74.476,-74.475 -111.489,-111.49 -72.694,72.693 C 248.79,548.28 193.371,549.384 145.076,571.29 c -11.802,5.351 -14.624,20.845 -5.463,30.005 z"
   id="path20852"
   style="fill:#ffffff" />
		<path
   d="m 81.69,629.866 c -45.177,57.037 -53.728,133.58 -25.659,198.004 5.727,13.146 22.994,16.271 33.133,6.133 l 99.869,-99.869 c 7.984,-7.984 7.984,-20.93 0,-28.914 l -76.972,-76.971 c -8.593,-8.594 -22.826,-7.909 -30.371,1.617 z"
   id="path20854"
   style="fill:#ffffff" />
		<path
   d="m 138.849,461.443 c 11.956,11.956 31.339,11.956 43.295,0 l 5.772,-5.772 c 11.956,-11.955 11.956,-31.339 0,-43.294 l -11.545,-11.545 22.731,-22.73 -106.793,-106.794 -22.73,22.73 -11.545,-11.545 c -11.956,-11.955 -31.339,-11.955 -43.295,0 l -5.772,5.773 c -11.956,11.956 -11.956,31.339 0,43.294 z"
   id="path20856"
   style="fill:#ffffff" />
		<path
   d="M 304.036,65.967 409.493,171.424 C 531.076,90.415 599.039,158.365 505.571,64.898 440.93,0.256 359.305,30.842 304.036,65.967 Z"
   id="path20858"
   style="fill:#ffffff" />
		<path
   d="m 271.62,68.906 c -5.978,-5.978 -13.812,-8.967 -21.647,-8.967 -7.835,0 -15.67,2.989 -21.647,8.967 L 98.441,198.79 c -11.956,11.955 -11.956,31.339 0,43.295 l 11.545,11.545 106.793,106.793 11.545,11.545 c 5.978,5.978 13.812,8.967 21.647,8.967 1.894,0 3.788,-0.179 5.655,-0.528 4.374,-0.817 8.603,-2.592 12.352,-5.324 1.272,-0.929 2.491,-1.965 3.64,-3.113 l 5.462,-5.462 111.49,-111.491 8.838,-8.838 4.094,-4.093 c 1.631,-1.631 3.031,-3.405 4.218,-5.275 7.507,-11.836 6.105,-27.696 -4.218,-38.02 L 388.931,186.22 283.044,80.33 Z"
   id="path20860"
   style="fill:#ffffff" />
	</g>
</g></g></g><style
     id="style6182">
		.s0 { fill: #d7282f } 
	</style></svg>
