<?xml version="1.0" encoding="UTF-8" standalone="no"?><!-- Generator: Gravit.io --><svg xmlns="http://www.w3.org/2000/svg" xmlns:xlink="http://www.w3.org/1999/xlink" style="isolation:isolate" viewBox="0 0 24 24" width="24pt" height="24pt"><defs><clipPath id="_clipPath_AFU1Flw9YHXOVpFbNJnaNvIjm7F3PjQs"><rect width="24" height="24"/></clipPath></defs><g clip-path="url(#_clipPath_AFU1Flw9YHXOVpFbNJnaNvIjm7F3PjQs)"><path d=" M 18.593 16.825 C 20.37 15.006 21.563 12.624 21.563 9.901 C 21.563 4.623 17.278 0.338 12 0.338 C 6.722 0.338 2.438 4.623 2.438 9.901 C 2.438 12.657 3.526 14.954 5.474 16.888 L 5.473 16.888 L 11.611 23.662 L 18.605 16.825 L 18.593 16.825 Z " fill="rgb(239,212,10)"/><g><g><g><path d=" M 11.888 9.368 L 12.731 9.368 C 13.079 9.368 13.362 9.085 13.362 8.737 C 13.362 8.389 13.079 8.106 12.731 8.106 L 11.888 8.106 L 11.888 9.368 Z  M 11.888 17.27 L 8.09 15.459 L 8.09 4.308 L 12.731 4.308 C 15.173 4.308 17.16 6.295 17.16 8.737 C 17.16 11.179 15.173 13.165 12.731 13.165 L 11.888 13.165 L 11.888 17.27 Z " fill="rgb(42,38,82)"/><path d=" M 10.622 10.634 L 12.731 10.634 C 13.777 10.634 14.628 9.783 14.628 8.737 C 14.628 7.691 13.777 6.84 12.731 6.84 L 10.622 6.84 L 10.622 10.634 Z  M 10.622 15.114 L 9.356 14.509 L 9.356 5.574 L 12.731 5.574 C 14.475 5.574 15.894 6.993 15.894 8.737 C 15.894 10.481 14.475 11.899 12.731 11.899 L 10.622 11.899 L 10.622 15.114 Z " fill="rgb(239,212,10)"/><path d=" M 12.731 8.107 L 11.888 8.107 L 11.888 9.369 L 12.731 9.369 C 13.079 9.369 13.362 9.086 13.362 8.738 C 13.362 8.39 13.079 8.107 12.731 8.107 Z " fill="rgb(239,212,10)"/></g></g></g></g></svg>