<?xml version="1.0" encoding="UTF-8" standalone="no"?><!-- Generator: Gravit.io --><svg xmlns="http://www.w3.org/2000/svg" xmlns:xlink="http://www.w3.org/1999/xlink" style="isolation:isolate" viewBox="0 0 24 24" width="24pt" height="24pt"><defs><clipPath id="_clipPath_kjbLNHn85BNZ6WzZxALz57mK6HLuVUmx"><rect width="24" height="24"/></clipPath></defs><g clip-path="url(#_clipPath_kjbLNHn85BNZ6WzZxALz57mK6HLuVUmx)"><clipPath id="_clipPath_ZEt58T4xnxlA80Hun7QnxjUpH7sQkg2N"><rect x="2.98" y="1" width="18.04" height="22" transform="matrix(1,0,0,1,0,0)" fill="rgb(255,255,255)"/></clipPath><g clip-path="url(#_clipPath_ZEt58T4xnxlA80Hun7QnxjUpH7sQkg2N)"><g><path d=" M 18.219 16.551 C 19.896 14.836 21.02 12.588 21.02 10.02 C 21.02 5.042 16.978 1 12 1 C 7.022 1 2.98 5.042 2.98 10.02 C 2.98 12.62 4.007 14.787 5.844 16.61 L 5.844 16.61 L 11.633 23 L 18.23 16.551 L 18.219 16.551 Z " fill="rgb(0,0,0)"/></g></g><g><path d=" M 15.045 6.848 L 15.966 5.339 C 16.234 4.897 16.076 4.332 15.608 4.078 C 15.14 3.825 14.541 3.974 14.273 4.416 L 13.347 5.925 C 11.38 5.339 9.177 6.099 8.105 7.856 C 7.421 8.972 7.337 10.258 7.752 11.385 L 9.456 8.595 C 9.456 8.595 9.456 8.595 9.456 8.595 C 9.845 7.955 10.481 7.498 11.239 7.305 C 11.996 7.111 12.784 7.21 13.463 7.583 C 14.861 8.347 15.345 10.045 14.535 11.365 C 13.726 12.685 11.933 13.142 10.529 12.377 L 11.507 10.779 C 11.975 11.032 12.574 10.883 12.842 10.442 C 13.11 10 12.953 9.434 12.485 9.181 C 12.017 8.928 11.417 9.077 11.149 9.518 L 8.036 14.616 C 7.768 15.058 7.926 15.624 8.394 15.877 C 8.862 16.13 9.461 15.981 9.729 15.539 L 10.655 14.03 C 12.621 14.616 14.825 13.857 15.897 12.1 C 16.97 10.347 16.565 8.168 15.045 6.848 L 15.045 6.848 Z " fill="rgb(208,12,42)"/></g></g></svg>