<?xml version="1.0" encoding="UTF-8" standalone="no"?>
<!-- Generator: Gravit.io -->

<svg
   style="isolation:isolate"
   viewBox="0 0 24 24"
   width="24pt"
   height="24pt"
   version="1.1"
   id="svg1802"
   xmlns="http://www.w3.org/2000/svg"
   xmlns:svg="http://www.w3.org/2000/svg">
  <defs
     id="defs1603">
    <clipPath
       id="_clipPath_OQIqtg9hbvv6MQS3GA37G8007xq6wAre">
      <rect
         width="24"
         height="24"
         id="rect1600"
         x="0"
         y="0" />
    </clipPath>
  </defs>
  <g
     clip-path="url(#_clipPath_OQIqtg9hbvv6MQS3GA37G8007xq6wAre)"
     id="g1800">
    <path
       d="M 18.219,16.551 C 19.896,14.836 21.02,12.588 21.02,10.02 21.02,5.042 16.978,1 12,1 7.022,1 2.98,5.042 2.98,10.02 c 0,2.6 1.027,4.767 2.864,6.59 v 0 L 11.633,23 18.23,16.551 Z"
       fill="rgb(1,109,83)"
       id="path1605"
       style="fill:#aca793" />
    <path
       style="fill:#000000;stroke-width:0.0176205"
       d="m 9.115087,12.931349 c -0.08661,-0.09827 -0.08421,-0.0522 -0.07038,-1.350222 0.01599,-1.501337 0.01106,-2.459262 -0.01445,-2.806872 -0.02436,-0.331966 -0.01393,-0.414166 0.06415,-0.505634 0.116,-0.135878 0.147208,-0.142848 0.730036,-0.163051 0.28523,-0.0099 0.57641,-0.02283 0.647066,-0.02877 0.197521,-0.0166 0.706414,0.02089 0.85643,0.06309 0.365334,0.102762 0.589633,0.217082 0.839895,0.428074 0.204441,0.172362 0.403729,0.535666 0.457123,0.833345 0.03829,0.213475 0.04234,0.82523 0.0064,0.960603 -0.122633,0.461381 -0.316673,0.767724 -0.624852,0.986493 -0.270231,0.191831 -0.336946,0.22225 -0.628582,0.286608 -0.118441,0.02614 -0.217472,0.03101 -0.555238,0.02733 -0.468584,-0.0051 -0.549631,0.0075 -0.635962,0.09885 -0.0804,0.08509 -0.100134,0.206623 -0.07699,0.474314 0.03841,0.444372 0.04026,0.519544 0.01437,0.584321 -0.0567,0.141878 -0.128898,0.161369 -0.597686,0.161369 H 9.159019 Z m 2.128271,-2.363695 c 0.09788,-0.04919 0.148566,-0.08891 0.207492,-0.162608 0.133429,-0.16688 0.167516,-0.274335 0.173044,-0.545502 0.0035,-0.169628 -8.06e-4,-0.198712 -0.04728,-0.322397 C 11.500134,9.333613 11.337362,9.178516 11.12952,9.11114 11.08321,9.09613 10.926708,9.07496 10.781734,9.0641 10.54625,9.04646 10.507895,9.0477 10.422032,9.07578 c -0.13016,0.04257 -0.228616,0.149207 -0.260855,0.282539 -0.03175,0.131293 -0.03221,0.791888 -6.3e-4,0.894827 0.06257,0.203952 0.138525,0.300672 0.264637,0.336993 0.03961,0.01141 0.09129,0.02772 0.114846,0.03625 0.02355,0.0085 0.162293,0.01345 0.308315,0.01093 0.265387,-0.0046 0.265545,-0.0046 0.395014,-0.06967 z"
       id="path1874" />
    <path
       style="fill:#000000;stroke-width:0.0176205"
       d="m 14.932822,12.976069 c -0.04544,-0.02691 -0.07874,-0.123262 -0.08177,-0.236605 -0.0017,-0.06146 0.0035,-0.397233 0.01153,-0.74617 0.01992,-0.870842 -0.0034,-1.09373 -0.128103,-1.225728 -0.109842,-0.116242 -0.347099,-0.132281 -0.468003,-0.03164 -0.06634,0.05523 -0.137705,0.175248 -0.176381,0.296657 -0.06811,0.21381 -0.07591,0.334563 -0.07002,1.084964 0.0073,0.934246 0.04972,0.862964 -0.513369,0.863376 -0.392632,2.88e-4 -0.433238,-0.0077 -0.488017,-0.09619 -0.02456,-0.03966 -0.02668,-0.265706 -0.02187,-2.32566 0.0035,-1.498888 0.01134,-2.297276 0.02284,-2.327045 0.0096,-0.02492 0.03822,-0.06571 0.06353,-0.09063 l 0.04603,-0.04532 0.391936,0.002 c 0.333074,0.0017 0.398409,0.0065 0.435033,0.03189 0.08966,0.06217 0.09082,0.07431 0.0744,0.781558 -0.0083,0.358775 -0.01082,0.670544 -0.0056,0.692818 0.01924,0.08112 0.0694,0.08596 0.186246,0.01799 0.179754,-0.104561 0.304656,-0.130398 0.630721,-0.130465 l 0.285342,-5.6e-5 0.184906,0.0997 c 0.166609,0.08983 0.195562,0.11315 0.29258,0.235646 0.131341,0.165834 0.164734,0.229613 0.231376,0.44191 l 0.0519,0.16533 4.5e-5,0.525671 c 1.7e-5,0.289119 -8.42e-4,0.815649 -0.002,1.170068 l -0.002,0.644392 -0.04602,0.0751 c -0.07521,0.122751 -0.102344,0.129903 -0.515643,0.13592 -0.200573,0.0029 -0.375928,-0.0013 -0.389676,-0.0095 z"
       id="path1872" />
    <path
       style="fill:#000000;stroke-width:0.0176205"
       d="m 17.656968,13.025038 c -0.284793,-0.04308 -0.391031,-0.07531 -0.569302,-0.172686 -0.211948,-0.115776 -0.34006,-0.207735 -0.395456,-0.283856 -0.02521,-0.03464 -0.09796,-0.130861 -0.161665,-0.213829 -0.138704,-0.180633 -0.17791,-0.259883 -0.263966,-0.533575 l -0.06554,-0.208456 6.56e-4,-0.398785 6.56e-4,-0.398784 0.05423,-0.16205 c 0.08128,-0.242876 0.24027,-0.477508 0.478277,-0.705827 0.162288,-0.155681 0.223246,-0.200671 0.402523,-0.297081 0.116199,-0.06249 0.249811,-0.125698 0.296915,-0.140463 0.04711,-0.01477 0.216343,-0.03532 0.376085,-0.04566 0.43683,-0.0283 0.614627,0.0081 0.949584,0.194576 0.222579,0.123894 0.315808,0.205727 0.490812,0.430816 0.181294,0.233179 0.260641,0.395202 0.330979,0.675845 0.01062,0.04237 0.02761,0.107635 0.03777,0.14503 0.02127,0.07835 0.01152,0.538949 -0.01471,0.694192 -0.02798,0.165599 -0.186762,0.549245 -0.291182,0.703524 -0.154892,0.22885 -0.223026,0.305727 -0.360659,0.40694 -0.127726,0.09393 -0.403453,0.226479 -0.57661,0.277198 -0.08421,0.02466 -0.613796,0.04891 -0.719401,0.03294 z m 0.476049,-1.049246 c 0.115139,-0.05812 0.278446,-0.194831 0.321211,-0.268899 0.01842,-0.0319 0.0544,-0.115103 0.07996,-0.18489 0.06234,-0.170244 0.065,-0.41634 0.0062,-0.576313 -0.107684,-0.293085 -0.492408,-0.491981 -0.780312,-0.403409 -0.254674,0.07835 -0.392767,0.191107 -0.489983,0.400086 -0.160008,0.343959 -0.02367,0.84408 0.273909,1.004736 0.189281,0.102191 0.42103,0.113478 0.589004,0.02869 z"
       id="path1870" />
    <path
       style="fill:#ff0000;stroke-width:0.0176205"
       d="M 4.4764985,10.407219 V 7.670105 h 1.6000982 c 1.051177,0 1.6020563,0.0062 1.6058073,0.01812 0.0031,0.01 0.0037,1.241668 0.0013,2.737114 l -0.0044,2.718992 H 6.077914 4.476499 Z m 1.900182,2.200245 c 0.4769494,-0.124395 0.832939,-0.541203 0.8834019,-1.034325 0.00631,-0.0616 0.00638,-0.128953 1.599e-4,-0.14967 l -0.011297,-0.03767 -1.1592715,0.0047 -1.1592782,0.0047 -0.00534,0.07852 c -0.00632,0.09307 0.035478,0.299734 0.086582,0.428043 0.1300708,0.326579 0.4361925,0.602048 0.7770784,0.699267 0.1530698,0.04365 0.4336253,0.04676 0.5879491,0.0065 z m 0.8446787,-1.673919 c 0.028281,-6.08e-4 0.029975,-0.07893 0.029975,-1.3854 0,-1.245983 -0.00271,-1.385846 -0.027094,-1.395746 -0.035261,-0.01432 -0.4072804,-0.01432 -0.4425423,0 -0.024379,0.0099 -0.027094,0.149652 -0.027094,1.394486 v 1.383483 l 0.038539,0.0058 c 0.032492,0.0049 0.1062252,0.0044 0.4282161,-0.0026 z m -1.80696,-1.376279 c 0.0032,-0.994488 -8.756e-4,-1.373273 -0.014943,-1.391215 -0.014304,-0.01824 -0.071916,-0.02466 -0.2213801,-0.02466 -0.1111249,0 -0.2142374,0.005 -0.229139,0.011 -0.024376,0.0099 -0.027094,0.148698 -0.027094,1.383662 0,0.754963 0.00535,1.378318 0.01188,1.385233 0.00653,0.0069 0.1163719,0.01031 0.2440828,0.0076 l 0.2322021,-0.005 z m 0.9031971,1.357888 c 0.013746,-0.02354 0.014054,-2.731957 3.129e-4,-2.755485 -0.013826,-0.02367 -0.4483917,-0.0244 -0.4621905,-7.73e-4 -0.013163,0.02254 -0.012876,2.734451 2.923e-4,2.756999 0.013296,0.02277 0.4482638,0.02207 0.4615842,-7.3e-4 z"
       id="path1374" />
  </g>
</svg>
