<?xml version="1.0" encoding="utf-8"?>
<!-- Generator: Adobe Illustrator 16.0.0, SVG Export Plug-In . SVG Version: 6.00 Build 0)  -->
<!DOCTYPE svg PUBLIC "-//W3C//DTD SVG 1.1//EN" "http://www.w3.org/Graphics/SVG/1.1/DTD/svg11.dtd">
<svg version="1.1" id="Layer_1" xmlns="http://www.w3.org/2000/svg" xmlns:xlink="http://www.w3.org/1999/xlink" x="0px" y="0px"
	 width="24px" height="24px" viewBox="0 0 24 24" enable-background="new 0 0 24 24" xml:space="preserve">
<path fill="#F5F5F4" d="M18.467,16.301c1.678-1.715,2.801-3.963,2.801-6.531c0-4.978-4.041-9.02-9.02-9.02
	c-4.978,0-9.02,4.042-9.02,9.02c0,2.6,1.027,4.767,2.864,6.589l0,0l5.789,6.391l6.598-6.449H18.467L18.467,16.301z"/>
<g id="Page-1_1_">
	<g id="Artboard_1_" transform="translate(-146.000000, -128.000000)">
		<path id="Pickl-logo_1_" d="M164.605,138.196c0.236-0.459,0.473-0.917,0.656-1.345c0.17-0.43,0.274-0.799,0.234-1.088
			c-0.026-0.28-0.185-0.47-0.375-0.595c-0.176-0.13-0.409-0.19-0.569-0.208c-0.162-0.017-0.271,0.021-0.241,0.088
			c0.044,0.165-0.033,0.507-0.189,0.954c-0.14,0.442-0.354,0.959-0.57,1.493c-0.208,0.526-0.426,1.059-0.589,1.505
			c-0.155,0.44-0.257,0.786-0.231,0.971c0.008,0.15,0.135,0.289,0.307,0.387c0.177,0.114,0.4,0.189,0.618,0.192
			c0.063,0.002,0.103-0.048,0.068-0.186c-0.031-0.194,0.063-0.501,0.241-0.883C164.127,139.097,164.367,138.663,164.605,138.196z
			 M164.226,139.889c-0.324,0.432,0.128,0.765,0.619,0.833c0.419,0.056,0.864-0.08,0.876-0.518
			C165.749,139.203,164.708,139.25,164.226,139.889z M157.167,135.603c0.023-0.54-0.54-0.558-0.982-0.335
			c-0.377,0.19-0.667,0.556-0.43,0.922C156.3,137.032,157.132,136.404,157.167,135.603z M156.591,139.183
			c-0.081-0.193-0.176-0.385-0.192-0.598c-0.017-0.241,0.015-0.482,0.083-0.714c0.035-0.119,0.08-0.235,0.13-0.349
			c0.039-0.088,0.117-0.196,0.106-0.296c-0.041-0.405-0.779-0.485-1.083-0.392c-0.304,0.093-0.324,0.625-0.341,0.873
			c-0.02,0.294-0.009,0.589,0.007,0.883c0.017,0.322,0.071,0.646,0.188,0.948c0.095,0.243,0.25,0.559,0.505,0.663
			c0.399,0.164,0.924-0.038,0.903-0.467C156.888,139.556,156.655,139.336,156.591,139.183z M162.55,139.074
			c-0.229-0.159-0.427-0.43-0.552-0.754c-0.021-0.054-0.04-0.109-0.057-0.166l0.141-0.068c0.255-0.123,0.464-0.271,0.649-0.421
			c0.342-0.286,0.543-0.595,0.558-0.897c0.011-0.198-0.113-0.364-0.293-0.5c-0.172-0.136-0.393-0.218-0.577-0.259
			c-0.186-0.033-0.326-0.008-0.331,0.095c-0.037,0.285-0.192,0.596-0.432,0.863c-0.132,0.152-0.293,0.288-0.485,0.405
			c0.143-0.526,0.282-1.005,0.42-1.413c0.175-0.564,0.319-0.963,0.334-1.083c0.014-0.135-0.143-0.277-0.346-0.392
			c-0.205-0.105-0.456-0.189-0.619-0.198c-0.124-0.006-0.259,0.186-0.398,0.498c-0.139,0.304-0.27,0.743-0.387,1.216
			c-0.116,0.488-0.212,0.992-0.276,1.491c-0.02,0.168-0.037,0.324-0.054,0.469c-0.131,0.199-0.302,0.395-0.473,0.543
			c-0.211,0.192-0.505,0.428-0.811,0.363c-0.536-0.116-0.705-0.572-0.58-0.999c0.055-0.186,0.406-0.911,0.66-0.907
			c0.031,0.001,0.054,0.016,0.054,0.071c-0.001,0.054-0.025,0.131-0.065,0.216c-0.032,0.084-0.071,0.163-0.103,0.215
			c-0.008,0-0.008,0.008-0.008,0.016c-0.002,0.054,0.029,0.109,0.082,0.164c0.054,0.055,0.131,0.103,0.247,0.104
			c0.247,0.003,0.428-0.103,0.546-0.257c0.126-0.153,0.184-0.346,0.186-0.524c0.006-0.527-0.314-0.842-0.904-0.85
			c-0.333-0.004-0.638,0.147-0.912,0.383c-0.274,0.237-0.496,0.568-0.656,0.907c-0.16,0.354-0.257,0.709-0.261,1.036
			c-0.005,0.388,0.153,0.739,0.374,1.014c0.279,0.304,0.678,0.436,1.075,0.422c0.354-0.013,0.708-0.141,0.975-0.365
			c0.188-0.156,0.358-0.341,0.5-0.532c0,0.113,0.005,0.212,0.017,0.299c0.037,0.336,0.156,0.454,0.38,0.465
			c0.295,0.015,0.489-0.143,0.602-0.535c0.048-0.18,0.079-0.33,0.11-0.495c0.012,0.076,0.025,0.151,0.04,0.225
			c0.095,0.419,0.271,0.73,0.525,0.877c0.166,0.097,0.363,0.063,0.562-0.031c0.193-0.087,0.362-0.241,0.479-0.381
			C162.596,139.257,162.637,139.125,162.55,139.074z M154.736,134.567c0.412,0.411,0.561,0.985,0.535,1.557
			c-0.039,0.858-0.502,1.793-1.268,2.213c-0.151,0.083-0.31,0.137-0.479,0.165c0.102,0.602,0.203,1.103,0.275,1.439
			c0.084,0.187,0.194,0.362,0.337,0.511c0.061,0.061,0.068,0.141,0.033,0.217c-0.113,0.248-0.368,0.461-0.617,0.561
			c-0.244,0.096-0.495,0.037-0.67-0.158c-0.112-0.127-0.18-0.285-0.227-0.447c-0.075-0.254-0.104-0.52-0.125-0.783
			c-0.021-0.257-0.065-0.515-0.097-0.771c-0.104-0.825-0.2-1.652-0.338-2.473c-0.088-0.524,0.262-1.072,0.762-1.238
			c0.079-0.026,0.149-0.005,0.183,0.075c0.063,0.151,0.105,0.308,0.14,0.469c0.127,0.581,0.232,1.172,0.257,1.768
			c0.003,0.085,0.031,0.089,0.099,0.052c0.32-0.174,0.531-0.484,0.588-0.842c0.084-0.526,0.019-1.044-0.258-1.5
			c-0.23-0.381-0.67-0.465-1.074-0.315c-0.667,0.249-1.131,0.815-1.223,1.52c-0.027,0.211-0.035,0.427-0.029,0.639
			c0.002,0.081-0.042,0.134-0.123,0.146c-0.468,0.072-1.016-0.304-1.123-0.765c-0.037-0.162-0.008-0.329,0.058-0.479
			c0.133-0.303,0.352-0.56,0.605-0.768c0.646-0.53,1.38-0.939,2.196-1.134C153.713,134.092,154.316,134.149,154.736,134.567
			L154.736,134.567z"/>
	</g>
</g>
</svg>
