<svg width="78" height="77" xmlns="http://www.w3.org/2000/svg" xmlns:xlink="http://www.w3.org/1999/xlink" overflow="hidden"><defs><clipPath id="clip0"><rect x="118" y="58" width="78" height="77"/></clipPath></defs><g clip-path="url(#clip0)" transform="translate(-118 -58)"><path d="M60.0632 54.2802C65.877 48.332 69.7759 40.5405 69.7759 31.6345 69.7759 14.373 55.7616 0.358666 38.5 0.358666 21.2384 0.358666 7.22414 14.373 7.22414 31.6345 7.22414 40.6483 10.784 48.1624 17.1551 54.4864L17.153 54.4864 37.2286 76.6413 60.1019 54.2801 60.0632 54.2802Z" fill="#2E2E2E" transform="matrix(1.01299 0 0 1 118 58)"/><path d="M52.822 31.57C52.822 39.6499 46.2719 46.2 38.192 46.2 30.1121 46.2 23.562 39.6499 23.562 31.57 23.562 23.4901 30.1121 16.94 38.192 16.94 46.2719 16.94 52.822 23.4901 52.822 31.57Z" fill="#EBEBEB" transform="matrix(1.01299 0 0 1 118 58)"/><path d="M38.4821 11.8896C37.9821 11.9532 37.3729 12.0533 37.1183 12.1078 36.6637 12.1986 35.8909 12.3624 34.6634 12.6169 33.845 12.7806 32.0902 13.317 31.3901 13.6081 31.09 13.7262 30.7446 13.8626 30.6172 13.899 29.9262 14.1172 27.7804 15.1992 26.9348 15.7539 25.5709 16.6631 25.3709 16.8086 24.798 17.2996 22.1976 19.5272 20.4155 22.2368 19.5517 25.2646 19.1516 26.6739 19.0607 27.3921 19.0698 29.2198 19.0698 31.0837 19.1607 31.7656 19.4699 32.1748 20.0154 32.8841 20.4336 32.6112 20.4336 31.5474 20.4336 29.5652 20.8701 27.1467 21.5794 25.219 22.8887 21.6549 25.5073 18.7088 28.9078 16.9631 30.3172 16.2448 30.7355 16.0902 32.3448 15.672 32.854 15.5357 33.1813 15.5538 33.145 15.7175 33.1268 15.8084 32.4358 16.1631 31.372 16.6177 28.435 17.8906 27.544 18.4452 26.0437 19.9182 23.9525 21.9639 22.7523 23.9644 21.9703 26.7102 21.5976 28.0104 21.4884 29.5016 21.552 32.3566 21.6248 35.3753 21.7248 36.3209 22.0794 37.4029 22.3885 38.3395 23.1705 39.9852 23.6342 40.6672 24.1798 41.4491 26.1347 43.3949 26.9438 43.9496 27.053 44.0223 27.4622 44.3132 27.8531 44.5861 29.3442 45.6225 30.7718 46.3591 31.9356 46.6682 32.7903 46.9046 34.3633 47.2229 34.6634 47.2229 34.9543 47.2229 35.1362 47.4502 34.9816 47.632 34.8544 47.7865 34.036 47.8138 33.345 47.6866 31.3265 47.3137 29.8444 46.8319 28.2077 46.0317 26.3984 45.1406 24.4253 43.4131 22.8159 41.2945 21.6793 39.8035 21.3884 39.5397 21.1246 39.767 20.6155 40.1852 21.1156 41.8128 22.2431 43.404 23.2523 44.8225 25.3164 46.6682 26.7529 47.432 29.7534 49.0322 33.4631 49.6869 37.1183 49.2686 40.028 48.9232 42.5828 48.1503 45.2106 46.7955 45.7834 46.5045 46.0107 46.3591 46.9199 45.7499 47.0655 45.6498 47.3564 45.4499 47.5837 45.2952 48.2111 44.8679 49.9933 43.1222 50.5933 42.3401 52.8756 39.3487 54.103 36.6756 54.5394 33.766 54.785 32.1475 54.6304 28.2559 54.2485 26.1738 53.8393 24.0007 53.4757 23.0096 52.5028 21.4276 51.8481 20.3728 51.7207 20.2091 50.7934 19.2817 48.7476 17.236 45.538 15.4083 43.5195 15.1265 41.7556 14.881 41.5464 14.8354 41.3555 14.6628 40.9281 14.2627 41.2099 13.9991 42.001 14.0627 44.0013 14.2264 45.6016 14.7355 47.6656 15.8811 49.9296 17.1268 51.6935 18.4906 52.7664 19.8272 54.3577 21.8004 55.576 25.1464 55.9034 28.4015 56.0671 30.0107 55.9579 33.5751 55.7215 34.7207 55.2124 37.1393 54.8759 38.1758 54.0666 39.8035 52.5482 42.8494 50.3024 45.1225 46.3654 47.5774 45.8561 47.9048 45.6653 48.1503 45.7471 48.3776 45.7925 48.4958 45.9017 48.514 46.2835 48.4684 47.2019 48.3685 48.4556 47.697 49.9659 46.5955 50.9774 45.8578 50.9814 45.821 51.6026 45.2952 52.0974 44.8765 54.3395 42.713 55.0033 41.8583 56.3398 40.1216 57.0672 38.7487 57.6128 36.9301 58.3038 34.5842 58.5947 31.984 58.5038 28.9015 58.4675 27.9014 58.4037 26.9194 58.3583 26.7193 58.3129 26.5193 58.1946 25.9465 58.0856 25.4463 57.4763 22.5823 56.0124 19.5272 54.2122 17.3541 51.8208 14.4718 48.7749 12.8351 44.165 11.9713 43.2012 11.7986 39.637 11.744 38.4821 11.8896ZM42.6739 19.2908C42.8557 19.4091 42.9739 19.7182 43.083 20.3637 43.1376 20.7093 43.2649 21.1912 43.3467 21.4457L43.5013 21.9003 45.4015 22.5459C47.3655 23.2096 47.6384 23.3188 49.0385 24.0007 50.0569 24.4917 50.3024 24.7281 50.2115 25.1191 50.1387 25.4463 49.7114 25.7192 49.4114 25.6373 49.3113 25.61 47.6202 25.6282 45.6744 25.6827 42.3646 25.7647 38.5186 26.0011 37.0275 26.2193 36.6819 26.2738 35.9182 26.3739 35.3453 26.4466 34.2451 26.583 33.1722 26.7284 30.9809 27.0376 30.2536 27.1376 29.3533 27.2649 28.9806 27.3104 28.6078 27.3649 27.9168 27.465 27.4531 27.5467 26.6802 27.6741 26.5802 27.6741 26.3802 27.5377 26.1347 27.383 26.1438 27.383 26.2165 27.183 26.3893 26.7284 29.6716 24.8645 31.9812 23.9006 32.5539 23.6552 33.0814 23.4279 33.145 23.3733 33.2086 23.3279 33.6541 22.7005 34.1269 21.9821 34.7179 21.0911 35.0635 20.6637 35.1907 20.6365 35.2999 20.6183 36.1273 20.4455 37.0275 20.2636 37.9276 20.0819 38.7914 19.9182 38.9369 19.8909 39.0914 19.8637 39.746 19.7272 40.3916 19.5817 41.9919 19.2272 42.492 19.1635 42.6739 19.2908ZM36.691 27.1557C36.7091 27.2468 36.6274 27.4741 36.5091 27.6559 36.3819 27.8377 36.1637 28.1741 36.0181 28.4015 35.6362 28.9834 35.0998 29.4925 34.8725 29.4925 34.6089 29.4925 34.3451 29.238 34.3451 28.9743 34.3451 28.4015 34.9725 27.665 35.8453 27.2286 36.4364 26.9194 36.6455 26.9103 36.691 27.1557ZM48.0566 28.5105C48.2111 28.6651 48.1929 29.0198 47.9838 29.6199 47.8019 30.1199 47.8019 30.1563 47.9474 30.32 48.0292 30.4199 48.1929 30.4928 48.3021 30.4928 48.5748 30.4928 48.9386 30.7928 48.8476 30.9383 48.7294 31.1293 48.0566 31.402 47.6838 31.402 47.4837 31.402 47.1928 31.3384 47.0201 31.2565 46.7382 31.1202 46.7017 31.1202 46.4472 31.3019 45.8561 31.7292 45.0379 32.0476 44.6015 32.0203 44.3742 32.0112 44.1287 32.0476 44.0559 32.1021 43.4831 32.5658 42.6829 32.7658 41.31 32.7749 40.8008 32.7749 40.2006 32.8112 39.9642 32.8476 39.2278 32.9659 39.0641 32.6749 39.4915 32.0021 39.6915 31.6929 40.8553 30.62 41.71 29.9562 41.8373 29.8563 41.9191 29.7653 41.8918 29.738 41.8646 29.7108 41.5646 29.738 41.2099 29.7834 40.8644 29.829 40.4463 29.8472 40.2735 29.8107 39.9188 29.7471 39.6188 29.4744 39.6188 29.2289 39.6188 28.9015 39.8643 28.7652 40.4644 28.7652 40.7735 28.7652 41.31 28.7014 41.6645 28.6288 42.0101 28.5561 42.5465 28.4923 42.8376 28.4923 43.4922 28.4923 43.7104 28.6469 43.7104 29.1015 43.7104 29.3835 43.5831 29.5471 42.6103 30.5382 42.0101 31.1565 41.5464 31.6747 41.5919 31.702 41.7465 31.7839 43.1285 31.8475 43.4285 31.7839L43.7468 31.7111 43.7195 31.211C43.7013 30.7746 43.7377 30.6563 44.0104 30.2655 44.4105 29.6744 45.2471 29.0016 45.8926 28.747 46.1653 28.6378 46.7017 28.5197 47.0746 28.4923 47.4474 28.456 47.8019 28.4287 47.8566 28.4196 47.902 28.4105 47.9929 28.4469 48.0566 28.5105ZM31.6356 28.6833C32.1902 28.9015 32.6722 29.3198 32.854 29.738 32.9267 29.9017 32.9813 30.2746 32.9813 30.5655 32.9813 31.6202 32.172 32.6112 30.8992 33.1114 29.9353 33.4932 29.5806 33.5478 29.2897 33.3569 29.1625 33.2749 29.0442 33.2204 29.0352 33.2386 29.017 33.2568 28.926 33.4932 28.8169 33.766 27.5076 37.1211 27.1439 37.7485 26.6893 37.3393 26.5256 37.1939 26.5074 37.1029 26.553 36.4937 26.6529 35.139 27.5803 32.5022 28.5351 30.8745 28.7806 30.4655 28.9806 30.1108 28.9806 30.1018 28.9806 30.0836 28.8442 30.0927 28.6714 30.1108 28.4259 30.1381 28.3351 30.1108 28.2531 29.9562 28.1169 29.7017 28.1895 29.4925 28.5351 29.1653 29.1716 28.5561 30.6991 28.3106 31.6356 28.6833ZM39.3552 29.7744C39.5916 30.0107 39.5369 30.2927 39.1368 30.8473 38.8186 31.2837 38.6913 31.4292 37.7366 32.4111L37.082 33.0841 38.1004 33.0932C38.664 33.0932 39.6552 33.1205 40.3007 33.1386 41.1372 33.1659 41.61 33.1386 41.9191 33.0476 42.7193 32.8203 42.7102 33.3114 41.91 33.7023 41.2826 34.0206 40.6007 34.1205 38.664 34.1661 37.5275 34.2025 36.7182 34.2661 36.3 34.366 34.9634 34.6843 34.7088 34.6389 34.7088 34.0842 34.7088 33.7023 35.0817 33.2477 36.4727 31.9475 37.7457 30.7655 37.8367 30.6472 37.4094 30.7746 37.0002 30.8927 36.1273 30.8745 35.8453 30.7473 35.7181 30.6928 35.5908 30.5382 35.5544 30.4199 35.4545 30.0198 35.7454 29.8926 36.9092 29.8107 37.473 29.7744 38.1185 29.7108 38.3458 29.6744 39.0187 29.5652 39.1551 29.5743 39.3552 29.7744ZM34.9816 30.1835C35.1907 30.7292 35.0088 31.5019 34.3087 32.9749 34.0269 33.566 33.7996 34.1115 33.7996 34.2025 33.7996 34.6207 33.3087 34.7116 32.9722 34.3479 32.7812 34.1478 32.754 34.0297 32.754 33.4659 32.754 32.875 32.7903 32.7476 33.1086 32.1748 33.4904 31.4838 34.4088 30.129 34.5724 30.0198 34.7452 29.8926 34.8998 29.9471 34.9816 30.1835ZM45.438 33.766C45.438 33.9114 45.3652 34.1752 45.2834 34.3569 45.2015 34.5297 45.156 34.7025 45.1924 34.7298 45.2198 34.7661 45.5925 34.7025 46.0107 34.6026 47.0019 34.3479 47.7565 34.257 47.8384 34.3843 47.9565 34.5752 47.2655 34.9026 44.9378 35.7845 44.6106 35.9119 44.5651 35.9755 44.3923 36.5028 44.2832 36.8211 44.1287 37.2484 44.0377 37.4485 43.9468 37.6485 43.774 38.1304 43.6558 38.5214 43.1739 40.0308 42.9466 40.3308 42.7102 39.767 42.5465 39.3761 42.6466 38.2031 42.9193 37.1302 43.1557 36.221 43.1376 36.1301 42.7284 36.1301 42.4466 36.1301 42.0556 35.73 42.1373 35.5209 42.2556 35.1753 42.3646 35.1299 43.0193 35.1299L43.683 35.1299 44.1104 34.457C44.6378 33.6114 45.0107 33.2749 45.2652 33.4023 45.3743 33.4659 45.438 33.5933 45.438 33.766ZM37.3184 34.9116C37.3456 34.9934 37.2638 35.4936 37.1274 36.03 36.8365 37.1847 36.8274 37.3575 37.0547 37.2666 37.1365 37.2303 37.3093 37.1756 37.4185 37.1483 37.7548 37.0757 37.6458 37.4848 37.2548 37.7394 36.7 38.1122 36.6364 38.2031 36.5728 38.6486 36.5365 38.885 36.4546 39.3123 36.391 39.5852 36.3274 39.858 36.2454 40.1943 36.2182 40.3308 36.1182 40.7581 35.7363 41.1309 35.3817 41.1309 34.8634 41.1309 34.6816 40.5399 34.8907 39.4942 34.927 39.2669 34.9543 39.076 34.9361 39.0578 34.927 39.0487 34.5088 39.167 34.0178 39.3396L33.1177 39.6398 32.8357 40.7763C32.5176 42.0492 32.3629 42.3947 32.0175 42.6675 31.7083 42.913 31.4174 42.913 31.1992 42.6675 30.9809 42.4221 30.9809 41.3855 31.1992 40.7399 31.4446 40.0217 31.4083 39.8943 30.9628 39.8307 30.4718 39.767 30.1081 39.4034 30.2536 39.1305 30.3808 38.885 30.7446 38.7124 31.4174 38.5759 31.9083 38.4758 31.9994 38.4213 32.0448 38.2213 32.1175 37.9122 32.9994 36.221 33.345 35.7209 33.8632 34.9662 34.2633 34.7389 34.3907 35.1208 34.4634 35.3481 34.1543 36.621 33.8541 37.3938 33.7178 37.7212 33.6177 38.0212 33.6177 38.0668 33.6177 38.1577 34.0542 38.0941 34.818 37.8849 35.3271 37.7485 35.3271 37.7485 35.5363 37.1847 35.8726 36.2846 36.391 35.2845 36.6637 35.0116 36.9455 34.7389 37.2275 34.6934 37.3184 34.9116ZM41.91 35.8845C41.9373 36.0027 41.8918 36.5484 41.8282 37.0938 41.7556 37.6395 41.7191 38.3395 41.7465 38.6486 41.7828 39.1032 41.7646 39.2124 41.6464 39.2578 41.41 39.3487 40.9645 39.0214 40.7372 38.5941 40.6189 38.3668 40.5099 38.1758 40.4917 38.1577 40.4735 38.1304 40.2553 38.3304 40.0189 38.585 39.246 39.4124 38.3731 39.7034 37.8912 39.3033 37.7003 39.1396 37.6639 39.0396 37.673 38.5941 37.673 38.2941 37.7639 37.8486 37.8912 37.503L38.1095 36.921 37.9003 36.7575C37.6458 36.5484 37.7457 36.3665 38.1731 36.2755 38.5913 36.1937 38.8822 36.3027 39.0278 36.5938 39.1824 36.8847 39.2096 37.5575 39.0732 37.894 38.9551 38.2213 39.055 38.194 39.6461 37.7303 40.2006 37.303 40.6826 36.7666 41.0553 36.1755 41.3191 35.7573 41.41 35.6755 41.6736 35.6755 41.8101 35.6755 41.8828 35.7391 41.91 35.8845Z" fill="#EE3A43" transform="matrix(1.01299 0 0 1 118 58)"/><path d="M46.2108 29.6653C45.8561 29.8199 45.1651 30.4928 45.1651 30.6745 45.1651 30.82 45.3288 30.7837 45.9471 30.4928 46.4017 30.2836 46.5382 30.1745 46.5836 29.9744 46.62 29.8381 46.6836 29.6653 46.7382 29.6017 46.8654 29.438 46.6472 29.4653 46.2108 29.6653Z" fill="#EE3A43" transform="matrix(1.01299 0 0 1 118 58)"/><path d="M30.0263 29.929C29.9989 29.9562 29.9807 30.1018 29.9807 30.2471 29.9807 30.3927 29.7988 31.0564 29.5715 31.7292 29.1078 33.0932 29.0988 33.1659 29.3261 33.0476 29.408 33.0022 29.7443 32.8568 30.0626 32.7113 30.7809 32.3839 31.4719 31.7383 31.6083 31.2655 31.681 30.9837 31.6719 30.8654 31.5264 30.5927 31.4356 30.4018 31.2446 30.2017 31.0991 30.129 30.8082 29.9926 30.099 29.8654 30.0263 29.929Z" fill="#EE3A43" transform="matrix(1.01299 0 0 1 118 58)"/><path d="M18.8153 34.3843C18.506 34.7116 18.4152 35.2481 18.5242 36.03 18.697 37.2484 18.979 37.7848 19.6154 38.1031 20.1064 38.3577 20.4427 38.3668 20.6609 38.1304 20.8065 37.9758 20.8065 37.8758 20.7156 37.0211 20.6609 36.5028 20.5883 35.8572 20.561 35.5845 20.4609 34.6298 20.1609 34.2297 19.4881 34.157 19.1152 34.1115 19.0516 34.1296 18.8153 34.3843Z" fill="#EE3A43" transform="matrix(1.01299 0 0 1 118 58)"/><path d="M52.883 46.0873 52.883 45.3424 52.5975 45.3424 52.5975 45.2427 53.2842 45.2427 53.2842 45.3424 52.9976 45.3424 52.9976 46.0873 52.883 46.0873Z" fill="#EE3A43" transform="matrix(1.01299 0 0 1 118 58)"/><path d="M53.3989 46.0873 53.3989 45.2427 53.5714 45.2427 53.7765 45.8407C53.7953 45.8965 53.8091 45.938 53.8178 45.9658 53.8276 45.935 53.843 45.8898 53.864 45.8304L54.0712 45.2427 54.2256 45.2427 54.2256 46.0873 54.115 46.0873 54.115 45.3804 53.8633 46.0873 53.7599 46.0873 53.5093 45.3684 53.5093 46.0873 53.3989 46.0873Z" fill="#EE3A43" transform="matrix(1.01299 0 0 1 118 58)"/></g></svg>