<svg width="598" height="741" xmlns="http://www.w3.org/2000/svg" xmlns:xlink="http://www.w3.org/1999/xlink" overflow="hidden"><defs><clipPath id="clip0"><rect x="120" y="198" width="598" height="741"/></clipPath><clipPath id="clip1"><rect x="122" y="198" width="594" height="742"/></clipPath><clipPath id="clip2"><rect x="224" y="278" width="390" height="433"/></clipPath><clipPath id="clip3"><rect x="224" y="278" width="390" height="433"/></clipPath><clipPath id="clip4"><rect x="224" y="278" width="390" height="433"/></clipPath></defs><g clip-path="url(#clip0)" transform="translate(-120 -198)"><g clip-path="url(#clip1)"><path d="M500.52 510.768C555.601 454.439 592.518 380.604 592.518 296.259 592.518 132.758 459.76 0 296.259 0 132.758 0 0 132.758 0 296.259 0 381.655 33.7315 452.83 94.0672 512.706L94.0672 512.706 284.205 722.583 500.882 510.768 500.52 510.768Z" fill="#B9B9B9" transform="matrix(1 0 0 1.02549 122.741 198)"/></g><g clip-path="url(#clip2)"><g clip-path="url(#clip3)"><g clip-path="url(#clip4)"><path d="M213.369 407.804C137.065 399.608 73.1956 352.978 35.6087 277.804-18.9348 169 23.1739 44.3695 122.935 18.3696 205.174-2.82609 302.674 48.8913 348.739 138.478 365.695 170.978 373.043 198.391 375.022 234.565 379.826 331.782 324.717 399.891 234.565 407.804 227.5 408.369 218.174 408.369 213.369 407.804ZM282.043 340.261C310.587 330.935 336.869 304.087 348.174 272.152 361.739 233.717 356.935 189.63 334.609 144.13 312 98.6304 267.065 59.913 222.696 48.0435 201.217 42.3913 162.783 45.2174 143.565 54.2608 77.4347 85.0652 60.7608 178.891 107.391 257.174 130.283 295.609 165.326 325.282 202.63 338 226.087 346.195 260.848 347.043 282.043 340.261Z" transform="matrix(1 0 0 -1.02657 224 710.637)"/><path d="M219.022 252.935C200.652 233.435 186.239 216.761 186.804 216.196 189.63 213.369 252.087 178.043 253.782 178.326 254.913 178.326 267.63 191.891 282.043 208.282L308.326 238.522 282.043 263.109C267.63 276.956 254.913 287.978 254.065 288.261 252.935 288.261 237.391 272.435 219.022 252.935Z" transform="matrix(1 0 0 -1.02657 224 710.637)"/><path d="M294.761 212.804C285.435 202.065 273.848 189.065 269.043 183.413L260.282 173.522 282.891 160.522 305.217 147.239 326.695 172.956 348.456 198.391 331.782 215.065C322.739 224.109 314.543 231.739 313.413 231.739 312.565 231.739 304.087 223.261 294.761 212.804Z" transform="matrix(1 0 0 -1.02657 224 710.637)"/><path d="M169 200.935C167.022 198.109 150.913 180.869 133.391 162.5 110.217 138.478 102.304 128.587 105.13 126.891 107.109 125.761 126.609 120.109 148.369 114.456L187.935 104 203.478 120.674C225.239 143.848 247 169.565 245.587 170.696 240.5 174.652 179.174 206.304 176.348 206.304 174.369 206.304 170.978 204.043 169 200.935Z" transform="matrix(1 0 0 -1.02657 224 710.637)"/><path d="M226.369 134.804C210.826 117.283 198.956 102.304 200.087 101.456 201.217 100.609 213.652 96.6521 227.782 92.9782L253.5 86.4782 261.978 96.3695C266.782 101.739 277.239 113.891 285.152 123.5L299.848 141.022 286.282 148.652C278.935 152.891 268.478 158.543 263.674 161.369L254.348 166.456 226.369 134.804Z" transform="matrix(1 0 0 -1.02657 224 710.637)"/></g></g></g></g></svg>