<?xml version="1.0" encoding="UTF-8"?>
<svg xmlns="http://www.w3.org/2000/svg" xmlns:xlink="http://www.w3.org/1999/xlink" width="35px" height="35px" viewBox="0 0 35 35" version="1.1">
<g id="surface1">
<path style=" stroke:none;fill-rule:nonzero;fill:rgb(18.039216%,18.039216%,18.039216%);fill-opacity:1;" d="M 27.300781 24.671875 C 29.945312 21.96875 31.714844 18.425781 31.714844 14.378906 C 31.714844 6.53125 25.347656 0.164062 17.5 0.164062 C 9.652344 0.164062 3.285156 6.53125 3.285156 14.378906 C 3.285156 18.476562 4.902344 21.890625 7.796875 24.765625 L 16.921875 34.835938 L 27.320312 24.671875 Z M 27.300781 24.671875 "/>
<path style=" stroke:none;fill-rule:nonzero;fill:rgb(92.156863%,92.156863%,92.156863%);fill-opacity:1;" d="M 24.011719 14.351562 C 24.011719 18.023438 21.03125 21 17.359375 21 C 13.6875 21 10.710938 18.023438 10.710938 14.351562 C 10.710938 10.675781 13.6875 7.699219 17.359375 7.699219 C 21.03125 7.699219 24.011719 10.675781 24.011719 14.351562 Z M 24.011719 14.351562 "/>
<path style=" stroke:none;fill-rule:nonzero;fill:rgb(93.333333%,22.745098%,26.27451%);fill-opacity:1;" d="M 17.492188 5.40625 C 17.265625 5.433594 16.988281 5.480469 16.871094 5.503906 C 16.664062 5.542969 16.3125 5.621094 15.757812 5.734375 C 15.382812 5.808594 14.585938 6.054688 14.269531 6.183594 C 14.132812 6.238281 13.976562 6.300781 13.917969 6.316406 C 13.601562 6.417969 12.628906 6.910156 12.242188 7.160156 C 11.625 7.574219 11.53125 7.640625 11.273438 7.863281 C 10.089844 8.875 9.28125 10.109375 8.886719 11.484375 C 8.707031 12.125 8.664062 12.449219 8.667969 13.28125 C 8.667969 14.128906 8.710938 14.4375 8.851562 14.625 C 9.097656 14.949219 9.289062 14.824219 9.289062 14.339844 C 9.289062 13.4375 9.488281 12.339844 9.808594 11.464844 C 10.402344 9.84375 11.59375 8.503906 13.140625 7.710938 C 13.78125 7.382812 13.972656 7.3125 14.703125 7.125 C 14.933594 7.0625 15.082031 7.070312 15.066406 7.144531 C 15.058594 7.1875 14.742188 7.347656 14.261719 7.554688 C 12.925781 8.132812 12.519531 8.382812 11.839844 9.054688 C 10.886719 9.984375 10.34375 10.894531 9.988281 12.140625 C 9.816406 12.730469 9.765625 13.410156 9.796875 14.707031 C 9.828125 16.078125 9.875 16.507812 10.035156 17 C 10.175781 17.425781 10.53125 18.175781 10.742188 18.484375 C 10.992188 18.839844 11.878906 19.726562 12.246094 19.976562 C 12.296875 20.011719 12.484375 20.140625 12.660156 20.265625 C 13.339844 20.738281 13.988281 21.074219 14.515625 21.210938 C 14.90625 21.320312 15.621094 21.464844 15.757812 21.464844 C 15.886719 21.464844 15.972656 21.566406 15.902344 21.652344 C 15.84375 21.722656 15.472656 21.734375 15.15625 21.675781 C 14.238281 21.507812 13.566406 21.289062 12.820312 20.921875 C 12 20.519531 11.101562 19.734375 10.371094 18.769531 C 9.855469 18.09375 9.722656 17.972656 9.601562 18.074219 C 9.371094 18.265625 9.597656 19.003906 10.109375 19.730469 C 10.570312 20.375 11.507812 21.210938 12.160156 21.558594 C 13.523438 22.289062 15.210938 22.585938 16.871094 22.394531 C 18.195312 22.238281 19.355469 21.886719 20.550781 21.269531 C 20.8125 21.136719 20.914062 21.074219 21.328125 20.796875 C 21.394531 20.75 21.527344 20.660156 21.628906 20.589844 C 21.914062 20.394531 22.722656 19.601562 22.996094 19.246094 C 24.035156 17.886719 24.59375 16.671875 24.789062 15.347656 C 24.902344 14.613281 24.832031 12.84375 24.660156 11.898438 C 24.472656 10.910156 24.308594 10.457031 23.863281 9.738281 C 23.566406 9.261719 23.507812 9.1875 23.089844 8.765625 C 22.15625 7.835938 20.699219 7.003906 19.78125 6.875 C 18.980469 6.765625 18.886719 6.742188 18.796875 6.664062 C 18.605469 6.484375 18.730469 6.363281 19.089844 6.390625 C 20 6.464844 20.726562 6.699219 21.667969 7.21875 C 22.695312 7.785156 23.496094 8.40625 23.984375 9.011719 C 24.707031 9.910156 25.261719 11.429688 25.410156 12.910156 C 25.484375 13.640625 25.433594 15.261719 25.328125 15.78125 C 25.097656 16.882812 24.945312 17.351562 24.574219 18.09375 C 23.886719 19.476562 22.863281 20.511719 21.074219 21.625 C 20.84375 21.773438 20.757812 21.886719 20.792969 21.988281 C 20.816406 22.042969 20.863281 22.050781 21.039062 22.03125 C 21.457031 21.984375 22.023438 21.679688 22.710938 21.179688 C 23.171875 20.84375 23.171875 20.828125 23.457031 20.589844 C 23.679688 20.398438 24.699219 19.414062 25 19.027344 C 25.609375 18.238281 25.941406 17.613281 26.1875 16.785156 C 26.5 15.71875 26.632812 14.539062 26.59375 13.136719 C 26.578125 12.683594 26.546875 12.234375 26.527344 12.144531 C 26.507812 12.054688 26.453125 11.792969 26.402344 11.566406 C 26.125 10.265625 25.460938 8.875 24.640625 7.886719 C 23.554688 6.578125 22.171875 5.835938 20.074219 5.441406 C 19.636719 5.363281 18.015625 5.339844 17.492188 5.40625 Z M 19.398438 8.769531 C 19.480469 8.824219 19.535156 8.960938 19.582031 9.257812 C 19.609375 9.414062 19.664062 9.632812 19.703125 9.746094 L 19.773438 9.953125 L 20.636719 10.25 C 21.53125 10.550781 21.652344 10.597656 22.289062 10.910156 C 22.753906 11.132812 22.863281 11.238281 22.824219 11.417969 C 22.789062 11.566406 22.597656 11.691406 22.460938 11.652344 C 22.414062 11.640625 21.644531 11.648438 20.761719 11.675781 C 19.257812 11.710938 17.507812 11.820312 16.832031 11.917969 C 16.671875 11.941406 16.328125 11.988281 16.066406 12.019531 C 15.566406 12.082031 15.078125 12.148438 14.082031 12.289062 C 13.75 12.335938 13.34375 12.394531 13.171875 12.414062 C 13.003906 12.4375 12.691406 12.484375 12.480469 12.519531 C 12.128906 12.578125 12.082031 12.578125 11.992188 12.515625 C 11.878906 12.445312 11.882812 12.445312 11.917969 12.355469 C 11.996094 12.148438 13.488281 11.300781 14.535156 10.863281 C 14.796875 10.753906 15.035156 10.648438 15.066406 10.625 C 15.09375 10.605469 15.296875 10.320312 15.511719 9.992188 C 15.78125 9.585938 15.9375 9.394531 15.996094 9.378906 C 16.046875 9.371094 16.421875 9.292969 16.832031 9.210938 C 17.238281 9.128906 17.632812 9.054688 17.699219 9.042969 C 17.769531 9.027344 18.066406 8.96875 18.359375 8.902344 C 19.085938 8.738281 19.316406 8.710938 19.398438 8.769531 Z M 16.679688 12.34375 C 16.6875 12.386719 16.648438 12.488281 16.59375 12.570312 C 16.539062 12.652344 16.4375 12.804688 16.371094 12.910156 C 16.199219 13.175781 15.953125 13.40625 15.851562 13.40625 C 15.730469 13.40625 15.613281 13.289062 15.613281 13.171875 C 15.613281 12.910156 15.898438 12.574219 16.292969 12.375 C 16.5625 12.234375 16.65625 12.230469 16.679688 12.34375 Z M 21.84375 12.960938 C 21.914062 13.03125 21.90625 13.191406 21.8125 13.464844 C 21.726562 13.691406 21.726562 13.707031 21.792969 13.78125 C 21.832031 13.828125 21.90625 13.859375 21.957031 13.859375 C 22.078125 13.859375 22.246094 13.996094 22.203125 14.0625 C 22.148438 14.148438 21.84375 14.273438 21.675781 14.273438 C 21.582031 14.273438 21.453125 14.246094 21.371094 14.207031 C 21.246094 14.144531 21.226562 14.144531 21.113281 14.226562 C 20.84375 14.421875 20.472656 14.566406 20.273438 14.554688 C 20.171875 14.550781 20.058594 14.566406 20.027344 14.59375 C 19.765625 14.800781 19.402344 14.894531 18.777344 14.898438 C 18.546875 14.898438 18.273438 14.914062 18.164062 14.929688 C 17.832031 14.984375 17.757812 14.851562 17.949219 14.546875 C 18.042969 14.40625 18.570312 13.917969 18.960938 13.617188 C 19.015625 13.570312 19.054688 13.53125 19.042969 13.515625 C 19.03125 13.503906 18.894531 13.515625 18.730469 13.539062 C 18.574219 13.558594 18.382812 13.566406 18.304688 13.550781 C 18.144531 13.519531 18.007812 13.398438 18.007812 13.285156 C 18.007812 13.136719 18.121094 13.074219 18.394531 13.074219 C 18.535156 13.074219 18.777344 13.046875 18.9375 13.011719 C 19.09375 12.980469 19.339844 12.949219 19.472656 12.949219 C 19.769531 12.949219 19.867188 13.019531 19.867188 13.226562 C 19.867188 13.355469 19.8125 13.429688 19.367188 13.882812 C 19.09375 14.160156 18.886719 14.398438 18.90625 14.410156 C 18.976562 14.445312 19.605469 14.476562 19.742188 14.445312 L 19.886719 14.414062 L 19.871094 14.1875 C 19.863281 13.988281 19.878906 13.933594 20.003906 13.757812 C 20.1875 13.488281 20.566406 13.183594 20.859375 13.066406 C 20.984375 13.015625 21.226562 12.964844 21.398438 12.949219 C 21.566406 12.933594 21.726562 12.921875 21.753906 12.917969 C 21.773438 12.914062 21.816406 12.929688 21.84375 12.960938 Z M 14.378906 13.039062 C 14.632812 13.136719 14.851562 13.328125 14.933594 13.515625 C 14.964844 13.589844 14.992188 13.761719 14.992188 13.894531 C 14.992188 14.371094 14.625 14.824219 14.046875 15.050781 C 13.605469 15.222656 13.445312 15.25 13.3125 15.164062 C 13.253906 15.125 13.203125 15.101562 13.199219 15.109375 C 13.191406 15.117188 13.148438 15.222656 13.097656 15.347656 C 12.503906 16.875 12.339844 17.160156 12.132812 16.972656 C 12.058594 16.90625 12.050781 16.863281 12.070312 16.589844 C 12.113281 15.972656 12.535156 14.773438 12.96875 14.035156 C 13.082031 13.847656 13.171875 13.6875 13.171875 13.683594 C 13.171875 13.675781 13.109375 13.679688 13.03125 13.6875 C 12.921875 13.699219 12.878906 13.6875 12.84375 13.617188 C 12.78125 13.5 12.8125 13.40625 12.96875 13.257812 C 13.261719 12.980469 13.953125 12.867188 14.378906 13.039062 Z M 17.890625 13.535156 C 17.996094 13.640625 17.972656 13.769531 17.789062 14.023438 C 17.644531 14.21875 17.585938 14.285156 17.152344 14.730469 L 16.855469 15.039062 L 17.320312 15.042969 C 17.574219 15.042969 18.023438 15.054688 18.320312 15.0625 C 18.699219 15.074219 18.914062 15.0625 19.054688 15.023438 C 19.417969 14.917969 19.414062 15.140625 19.050781 15.320312 C 18.765625 15.464844 18.453125 15.507812 17.574219 15.53125 C 17.058594 15.546875 16.691406 15.574219 16.5 15.621094 C 15.890625 15.765625 15.777344 15.746094 15.777344 15.492188 C 15.777344 15.320312 15.945312 15.113281 16.578125 14.523438 C 17.15625 13.984375 17.199219 13.929688 17.003906 13.988281 C 16.816406 14.042969 16.421875 14.035156 16.292969 13.976562 C 16.234375 13.953125 16.175781 13.882812 16.160156 13.828125 C 16.117188 13.644531 16.246094 13.585938 16.777344 13.550781 C 17.035156 13.535156 17.328125 13.503906 17.429688 13.488281 C 17.734375 13.4375 17.796875 13.441406 17.890625 13.535156 Z M 15.902344 13.71875 C 15.996094 13.96875 15.914062 14.320312 15.59375 14.988281 C 15.46875 15.257812 15.363281 15.503906 15.363281 15.546875 C 15.363281 15.738281 15.140625 15.777344 14.988281 15.613281 C 14.902344 15.523438 14.886719 15.46875 14.886719 15.210938 C 14.886719 14.941406 14.90625 14.886719 15.050781 14.625 C 15.222656 14.3125 15.640625 13.695312 15.714844 13.644531 C 15.792969 13.585938 15.863281 13.613281 15.902344 13.71875 Z M 20.652344 15.347656 C 20.652344 15.414062 20.621094 15.535156 20.582031 15.617188 C 20.546875 15.695312 20.527344 15.773438 20.542969 15.785156 C 20.554688 15.804688 20.722656 15.773438 20.914062 15.726562 C 21.363281 15.613281 21.707031 15.570312 21.746094 15.628906 C 21.796875 15.714844 21.484375 15.863281 20.425781 16.265625 C 20.277344 16.324219 20.257812 16.351562 20.179688 16.59375 C 20.128906 16.738281 20.058594 16.929688 20.015625 17.023438 C 19.976562 17.113281 19.898438 17.332031 19.84375 17.507812 C 19.625 18.195312 19.519531 18.332031 19.414062 18.074219 C 19.339844 17.898438 19.386719 17.363281 19.507812 16.878906 C 19.617188 16.464844 19.609375 16.421875 19.421875 16.421875 C 19.292969 16.421875 19.117188 16.242188 19.152344 16.144531 C 19.207031 15.988281 19.257812 15.96875 19.554688 15.96875 L 19.855469 15.96875 L 20.050781 15.664062 C 20.289062 15.277344 20.460938 15.125 20.574219 15.183594 C 20.625 15.210938 20.652344 15.269531 20.652344 15.347656 Z M 16.964844 15.867188 C 16.976562 15.90625 16.9375 16.132812 16.875 16.378906 C 16.742188 16.902344 16.738281 16.980469 16.84375 16.9375 C 16.878906 16.921875 16.957031 16.898438 17.007812 16.886719 C 17.160156 16.851562 17.113281 17.039062 16.933594 17.152344 C 16.683594 17.324219 16.652344 17.363281 16.625 17.566406 C 16.609375 17.675781 16.570312 17.871094 16.542969 17.992188 C 16.511719 18.117188 16.476562 18.269531 16.460938 18.332031 C 16.417969 18.527344 16.242188 18.695312 16.082031 18.695312 C 15.847656 18.695312 15.765625 18.425781 15.859375 17.953125 C 15.875 17.847656 15.886719 17.761719 15.878906 17.753906 C 15.875 17.75 15.6875 17.804688 15.460938 17.882812 L 15.054688 18.019531 L 14.925781 18.535156 C 14.78125 19.113281 14.710938 19.269531 14.554688 19.394531 C 14.414062 19.507812 14.28125 19.507812 14.179688 19.394531 C 14.082031 19.28125 14.082031 18.8125 14.179688 18.519531 C 14.292969 18.191406 14.277344 18.132812 14.074219 18.105469 C 13.851562 18.074219 13.683594 17.910156 13.75 17.785156 C 13.808594 17.675781 13.976562 17.597656 14.28125 17.535156 C 14.503906 17.488281 14.546875 17.464844 14.566406 17.375 C 14.597656 17.234375 15 16.464844 15.15625 16.238281 C 15.390625 15.894531 15.574219 15.789062 15.632812 15.964844 C 15.664062 16.066406 15.523438 16.644531 15.386719 16.996094 C 15.328125 17.144531 15.28125 17.28125 15.28125 17.304688 C 15.28125 17.34375 15.480469 17.316406 15.828125 17.21875 C 16.058594 17.160156 16.058594 17.160156 16.152344 16.902344 C 16.304688 16.492188 16.542969 16.039062 16.664062 15.914062 C 16.792969 15.789062 16.921875 15.769531 16.964844 15.867188 Z M 19.050781 16.3125 C 19.0625 16.363281 19.042969 16.613281 19.011719 16.859375 C 18.980469 17.109375 18.964844 17.425781 18.976562 17.566406 C 18.992188 17.773438 18.984375 17.824219 18.929688 17.84375 C 18.824219 17.886719 18.621094 17.738281 18.515625 17.542969 C 18.464844 17.441406 18.414062 17.351562 18.40625 17.34375 C 18.398438 17.332031 18.296875 17.421875 18.191406 17.539062 C 17.839844 17.914062 17.441406 18.046875 17.222656 17.863281 C 17.136719 17.789062 17.121094 17.746094 17.125 17.542969 C 17.125 17.40625 17.164062 17.203125 17.222656 17.046875 L 17.324219 16.78125 L 17.226562 16.707031 C 17.113281 16.613281 17.15625 16.53125 17.351562 16.488281 C 17.542969 16.453125 17.671875 16.5 17.738281 16.632812 C 17.808594 16.765625 17.824219 17.070312 17.761719 17.222656 C 17.707031 17.375 17.753906 17.359375 18.019531 17.148438 C 18.273438 16.957031 18.492188 16.710938 18.660156 16.445312 C 18.78125 16.253906 18.824219 16.214844 18.941406 16.214844 C 19.003906 16.214844 19.039062 16.246094 19.050781 16.3125 Z M 19.050781 16.3125 "/>
<path style=" stroke:none;fill-rule:nonzero;fill:rgb(93.333333%,22.745098%,26.27451%);fill-opacity:1;" d="M 21.003906 13.484375 C 20.84375 13.554688 20.53125 13.859375 20.53125 13.941406 C 20.53125 14.007812 20.605469 13.992188 20.886719 13.859375 C 21.089844 13.765625 21.152344 13.714844 21.175781 13.625 C 21.191406 13.5625 21.21875 13.484375 21.246094 13.457031 C 21.300781 13.382812 21.203125 13.394531 21.003906 13.484375 Z M 21.003906 13.484375 "/>
<path style=" stroke:none;fill-rule:nonzero;fill:rgb(93.333333%,22.745098%,26.27451%);fill-opacity:1;" d="M 13.648438 13.605469 C 13.636719 13.617188 13.628906 13.683594 13.628906 13.75 C 13.628906 13.816406 13.546875 14.117188 13.441406 14.421875 C 13.230469 15.042969 13.226562 15.074219 13.332031 15.023438 C 13.367188 15 13.519531 14.933594 13.664062 14.867188 C 13.992188 14.71875 14.304688 14.425781 14.367188 14.210938 C 14.402344 14.082031 14.394531 14.03125 14.332031 13.90625 C 14.289062 13.820312 14.203125 13.726562 14.136719 13.695312 C 14.003906 13.632812 13.679688 13.574219 13.648438 13.605469 Z M 13.648438 13.605469 "/>
<path style=" stroke:none;fill-rule:nonzero;fill:rgb(93.333333%,22.745098%,26.27451%);fill-opacity:1;" d="M 8.550781 15.628906 C 8.410156 15.777344 8.371094 16.023438 8.421875 16.378906 C 8.5 16.929688 8.625 17.175781 8.917969 17.320312 C 9.140625 17.433594 9.292969 17.441406 9.390625 17.332031 C 9.457031 17.261719 9.457031 17.214844 9.417969 16.828125 C 9.390625 16.59375 9.359375 16.296875 9.347656 16.175781 C 9.300781 15.742188 9.164062 15.558594 8.859375 15.527344 C 8.6875 15.503906 8.660156 15.511719 8.550781 15.628906 Z M 8.550781 15.628906 "/>
<path style=" stroke:none;fill-rule:nonzero;fill:rgb(93.333333%,22.745098%,26.27451%);fill-opacity:1;" d="M 24.039062 20.949219 L 24.039062 20.609375 L 23.90625 20.609375 L 23.90625 20.566406 L 24.21875 20.566406 L 24.21875 20.609375 L 24.089844 20.609375 L 24.089844 20.949219 Z M 24.039062 20.949219 "/>
<path style=" stroke:none;fill-rule:nonzero;fill:rgb(93.333333%,22.745098%,26.27451%);fill-opacity:1;" d="M 24.273438 20.949219 L 24.273438 20.566406 L 24.351562 20.566406 L 24.445312 20.835938 C 24.453125 20.863281 24.457031 20.882812 24.460938 20.894531 C 24.46875 20.878906 24.472656 20.859375 24.484375 20.832031 L 24.578125 20.566406 L 24.648438 20.566406 L 24.648438 20.949219 L 24.597656 20.949219 L 24.597656 20.628906 L 24.484375 20.949219 L 24.4375 20.949219 L 24.324219 20.621094 L 24.324219 20.949219 Z M 24.273438 20.949219 "/>
</g>
</svg>
