<?xml version="1.0" encoding="UTF-8" standalone="no"?><!-- Generator: Gravit.io --><svg xmlns="http://www.w3.org/2000/svg" xmlns:xlink="http://www.w3.org/1999/xlink" style="isolation:isolate" viewBox="0 0 500 500" width="500pt" height="500pt"><defs><clipPath id="_clipPath_G28UzD0GJHCW8cgeRl2Ny7veMqTXy6Gj"><rect width="500" height="500"/></clipPath></defs><g clip-path="url(#_clipPath_G28UzD0GJHCW8cgeRl2Ny7veMqTXy6Gj)"><path d=" M 390.021 352.469 C 427.773 313.844 453.09 263.25 453.09 205.419 C 453.09 93.331 362.088 2.329 250 2.329 C 137.912 2.329 46.91 93.331 46.91 205.419 C 46.91 263.95 70.026 312.743 111.397 353.808 L 111.383 353.808 L 241.744 497.671 L 390.272 352.468 L 390.021 352.469 Z " fill="rgb(46,46,46)"/><circle vector-effect="non-scaling-stroke" cx="248" cy="205.00000000000003" r="95.00000000000001" fill="rgb(235,235,235)"/><g><g><path d=" M 249.884 77.205 C 246.637 77.618 242.681 78.268 241.028 78.622 C 238.076 79.212 233.058 80.275 225.087 81.928 C 219.773 82.991 208.378 86.474 203.832 88.364 C 201.883 89.131 199.64 90.017 198.813 90.253 C 194.326 91.67 180.392 98.696 174.901 102.298 C 166.045 108.202 164.746 109.147 161.026 112.335 C 144.14 126.8 132.568 144.395 126.959 164.056 C 124.361 173.207 123.771 177.871 123.83 189.739 C 123.83 201.842 124.42 206.27 126.428 208.927 C 129.97 213.533 132.686 211.761 132.686 204.853 C 132.686 191.982 135.52 176.277 140.126 163.76 C 148.628 140.616 165.632 121.486 187.713 110.15 C 196.865 105.486 199.581 104.482 210.031 101.766 C 213.338 100.881 215.463 100.999 215.227 102.062 C 215.109 102.652 210.622 104.955 203.714 107.907 C 184.643 116.173 178.857 119.774 169.115 129.339 C 155.536 142.623 147.742 155.613 142.664 173.443 C 140.244 181.886 139.535 191.569 139.948 210.108 C 140.421 229.71 141.07 235.85 143.373 242.876 C 145.38 248.958 150.458 259.644 153.469 264.073 C 157.012 269.15 169.706 281.785 174.96 285.387 C 175.669 285.859 178.326 287.748 180.864 289.52 C 190.547 296.25 199.817 301.033 207.374 303.04 C 212.924 304.575 223.138 306.642 225.087 306.642 C 226.976 306.642 228.157 308.118 227.153 309.299 C 226.327 310.302 221.013 310.479 216.526 309.653 C 203.419 307.232 193.795 304.103 183.167 298.907 C 171.418 293.121 158.606 281.903 148.155 268.146 C 140.775 258.464 138.886 256.751 137.173 258.227 C 133.867 260.943 137.114 271.512 144.436 281.844 C 150.989 291.055 164.392 303.04 173.72 308 C 193.204 318.391 217.293 322.642 241.028 319.926 C 259.922 317.683 276.512 312.664 293.575 303.867 C 297.295 301.977 298.771 301.033 304.675 297.077 C 305.62 296.427 307.509 295.129 308.985 294.125 C 313.059 291.35 324.632 280.014 328.528 274.936 C 343.348 255.511 351.318 238.153 354.152 219.26 C 355.747 208.75 354.743 183.48 352.263 169.96 C 349.606 155.849 347.245 149.413 340.927 139.14 C 336.676 132.291 335.849 131.228 329.827 125.206 C 316.543 111.922 295.701 100.054 282.594 98.224 C 271.14 96.63 269.782 96.334 268.542 95.213 C 265.767 92.615 267.597 90.903 272.734 91.316 C 285.723 92.379 296.114 95.685 309.517 103.124 C 324.218 111.213 335.672 120.069 342.639 128.748 C 352.972 141.561 360.883 163.288 363.009 184.425 C 364.072 194.875 363.363 218.02 361.828 225.459 C 358.522 241.164 356.337 247.895 351.082 258.464 C 341.222 278.243 326.639 293.003 301.074 308.944 C 297.767 311.07 296.528 312.664 297.059 314.14 C 297.354 314.908 298.063 315.026 300.542 314.73 C 306.506 314.081 314.647 309.721 324.454 302.568 C 331.022 297.778 331.048 297.539 335.082 294.125 C 338.295 291.406 352.854 277.357 357.164 271.807 C 365.843 260.53 370.566 251.615 374.109 239.806 C 378.596 224.573 380.485 207.688 379.895 187.672 C 379.659 181.178 379.245 174.801 378.95 173.502 C 378.655 172.203 377.887 168.484 377.179 165.236 C 373.223 146.638 363.717 126.8 352.027 112.689 C 336.499 93.973 316.72 83.345 286.786 77.736 C 280.527 76.614 257.383 76.26 249.884 77.205 Z  M 277.103 125.265 C 278.284 126.033 279.051 128.04 279.76 132.232 C 280.114 134.476 280.941 137.605 281.472 139.258 L 282.476 142.21 L 294.815 146.402 C 307.568 150.712 309.34 151.421 318.432 155.849 C 325.045 159.037 326.639 160.572 326.049 163.111 C 325.576 165.236 322.801 167.008 320.853 166.476 C 320.203 166.299 309.222 166.417 296.587 166.771 C 275.095 167.303 250.121 168.838 240.438 170.255 C 238.194 170.609 233.235 171.259 229.515 171.731 C 222.371 172.617 215.404 173.561 201.175 175.569 C 196.452 176.218 190.606 177.045 188.186 177.34 C 185.765 177.694 181.278 178.344 178.267 178.875 C 173.248 179.702 172.599 179.702 171.3 178.816 C 169.706 177.812 169.765 177.812 170.237 176.513 C 171.359 173.561 192.673 161.458 207.67 155.199 C 211.389 153.605 214.814 152.129 215.227 151.775 C 215.64 151.48 218.533 147.406 221.603 142.741 C 225.441 136.955 227.685 134.18 228.511 134.003 C 229.22 133.885 234.593 132.763 240.438 131.582 C 246.283 130.402 251.892 129.339 252.837 129.162 C 253.84 128.985 258.091 128.099 262.283 127.154 C 272.675 124.852 275.922 124.438 277.103 125.265 Z  M 238.253 176.336 C 238.371 176.927 237.84 178.403 237.072 179.584 C 236.246 180.764 234.829 182.949 233.884 184.425 C 231.404 188.204 227.921 191.51 226.445 191.51 C 224.733 191.51 223.02 189.857 223.02 188.145 C 223.02 184.425 227.094 179.643 232.762 176.809 C 236.6 174.801 237.958 174.742 238.253 176.336 Z  M 312.056 185.133 C 313.059 186.137 312.941 188.44 311.583 192.337 C 310.402 195.584 310.402 195.82 311.347 196.883 C 311.878 197.532 312.941 198.005 313.65 198.005 C 315.421 198.005 317.783 199.953 317.192 200.898 C 316.425 202.138 312.056 203.909 309.635 203.909 C 308.336 203.909 306.447 203.496 305.325 202.964 C 303.495 202.079 303.258 202.079 301.605 203.259 C 297.767 206.034 292.454 208.101 289.62 207.924 C 288.144 207.865 286.55 208.101 286.077 208.455 C 282.358 211.466 277.162 212.765 268.247 212.824 C 264.94 212.824 261.043 213.06 259.508 213.296 C 254.726 214.064 253.663 212.175 256.438 207.806 C 257.737 205.798 265.294 198.831 270.844 194.521 C 271.671 193.872 272.202 193.281 272.025 193.104 C 271.848 192.927 269.9 193.104 267.597 193.399 C 265.353 193.695 262.638 193.813 261.516 193.576 C 259.213 193.163 257.265 191.392 257.265 189.798 C 257.265 187.672 258.859 186.787 262.756 186.787 C 264.763 186.787 268.247 186.373 270.549 185.901 C 272.793 185.429 276.276 185.015 278.166 185.015 C 282.417 185.015 283.834 186.019 283.834 188.971 C 283.834 190.802 283.007 191.864 276.69 198.3 C 272.793 202.315 269.782 205.68 270.077 205.857 C 271.081 206.389 280.055 206.802 282.003 206.389 L 284.07 205.916 L 283.893 202.669 C 283.775 199.835 284.011 199.067 285.782 196.529 C 288.38 192.691 293.812 188.322 298.004 186.669 C 299.775 185.96 303.258 185.193 305.679 185.015 C 308.1 184.779 310.402 184.602 310.757 184.543 C 311.052 184.484 311.642 184.72 312.056 185.133 Z  M 205.426 186.255 C 209.027 187.672 212.157 190.388 213.338 193.104 C 213.81 194.167 214.164 196.588 214.164 198.477 C 214.164 205.326 208.909 211.761 200.644 215.009 C 194.385 217.488 192.082 217.843 190.193 216.603 C 189.367 216.071 188.599 215.717 188.54 215.835 C 188.422 215.953 187.831 217.488 187.123 219.26 C 178.621 241.046 176.259 245.12 173.307 242.463 C 172.244 241.519 172.126 240.928 172.422 236.972 C 173.071 228.175 179.093 211.053 185.293 200.484 C 186.887 197.828 188.186 195.525 188.186 195.466 C 188.186 195.348 187.3 195.407 186.178 195.525 C 184.584 195.702 183.994 195.525 183.462 194.521 C 182.577 192.868 183.049 191.51 185.293 189.385 C 189.426 185.429 199.345 183.835 205.426 186.255 Z  M 255.553 193.34 C 257.088 194.875 256.733 196.706 254.135 200.307 C 252.069 203.141 251.242 204.086 245.043 210.462 L 240.792 214.832 L 247.405 214.891 C 251.065 214.891 257.501 215.068 261.693 215.186 C 267.125 215.363 270.195 215.186 272.202 214.595 C 277.398 213.119 277.339 216.308 272.143 218.846 C 268.069 220.913 263.641 221.562 251.065 221.858 C 243.685 222.094 238.43 222.507 235.714 223.156 C 227.035 225.223 225.382 224.928 225.382 221.326 C 225.382 218.846 227.803 215.894 236.836 207.451 C 245.102 199.776 245.693 199.008 242.918 199.835 C 240.261 200.602 234.593 200.484 232.762 199.658 C 231.936 199.304 231.109 198.3 230.873 197.532 C 230.224 194.934 232.113 194.108 239.67 193.576 C 243.331 193.34 247.523 192.927 248.999 192.691 C 253.368 191.982 254.254 192.041 255.553 193.34 Z  M 227.153 195.997 C 228.511 199.54 227.33 204.558 222.784 214.123 C 220.954 217.961 219.478 221.503 219.478 222.094 C 219.478 224.81 216.29 225.4 214.105 223.038 C 212.865 221.739 212.688 220.972 212.688 217.311 C 212.688 213.474 212.924 212.647 214.991 208.927 C 217.47 204.44 223.434 195.643 224.496 194.934 C 225.618 194.108 226.622 194.462 227.153 195.997 Z  M 295.052 219.26 C 295.052 220.204 294.579 221.917 294.048 223.097 C 293.516 224.219 293.221 225.341 293.457 225.518 C 293.635 225.754 296.055 225.341 298.771 224.692 C 305.207 223.038 310.107 222.448 310.639 223.275 C 311.406 224.514 306.919 226.64 291.804 232.367 C 289.679 233.194 289.384 233.607 288.262 237.031 C 287.553 239.098 286.55 241.873 285.959 243.172 C 285.369 244.471 284.247 247.6 283.479 250.139 C 280.35 259.94 278.874 261.888 277.339 258.227 C 276.276 255.689 276.926 248.072 278.697 241.105 C 280.232 235.201 280.114 234.611 277.457 234.611 C 275.627 234.611 273.088 232.013 273.619 230.655 C 274.387 228.411 275.095 228.116 279.346 228.116 L 283.656 228.116 L 286.431 223.747 C 289.856 218.256 292.277 216.071 293.93 216.898 C 294.638 217.311 295.052 218.138 295.052 219.26 Z  M 242.327 226.699 C 242.504 227.23 241.973 230.478 241.087 233.961 C 239.198 241.459 239.139 242.581 240.615 241.991 C 241.146 241.755 242.268 241.4 242.977 241.223 C 245.161 240.751 244.453 243.408 241.914 245.061 C 238.312 247.482 237.899 248.072 237.486 250.965 C 237.25 252.5 236.718 255.275 236.305 257.047 C 235.892 258.818 235.36 261.002 235.183 261.888 C 234.534 264.663 232.054 267.084 229.751 267.084 C 226.386 267.084 225.205 263.246 226.563 256.456 C 226.799 254.98 226.976 253.74 226.858 253.622 C 226.799 253.563 224.083 254.331 220.895 255.452 L 215.05 257.401 L 213.219 264.781 C 211.153 273.047 210.149 275.29 207.906 277.062 C 205.898 278.656 204.009 278.656 202.592 277.062 C 201.175 275.468 201.175 268.737 202.592 264.545 C 204.186 259.881 203.95 259.054 201.057 258.641 C 197.869 258.227 195.507 255.866 196.452 254.094 C 197.278 252.5 199.64 251.379 204.009 250.493 C 207.197 249.843 207.788 249.489 208.083 248.19 C 208.555 246.183 214.282 235.201 216.526 231.954 C 219.891 227.053 222.489 225.577 223.316 228.057 C 223.788 229.533 221.781 237.799 219.832 242.817 C 218.947 244.943 218.297 246.891 218.297 247.187 C 218.297 247.777 221.131 247.364 226.091 246.006 C 229.397 245.12 229.397 245.12 230.755 241.459 C 232.939 235.614 236.305 229.12 238.076 227.348 C 239.906 225.577 241.737 225.282 242.327 226.699 Z  M 272.143 233.016 C 272.32 233.784 272.025 237.327 271.612 240.869 C 271.14 244.412 270.903 248.958 271.081 250.965 C 271.317 253.917 271.199 254.626 270.431 254.921 C 268.896 255.511 266.003 253.386 264.527 250.611 C 263.759 249.135 263.051 247.895 262.933 247.777 C 262.815 247.6 261.398 248.899 259.863 250.552 C 254.844 255.925 249.176 257.814 246.047 255.216 C 244.807 254.153 244.571 253.504 244.63 250.611 C 244.63 248.663 245.22 245.77 246.047 243.526 L 247.464 239.747 L 246.106 238.685 C 244.453 237.327 245.102 236.146 247.877 235.555 C 250.593 235.024 252.482 235.732 253.427 237.622 C 254.431 239.511 254.608 243.88 253.722 246.065 C 252.955 248.19 253.604 248.013 257.442 245.002 C 261.043 242.227 264.173 238.744 266.593 234.906 C 268.306 232.19 268.896 231.659 270.608 231.659 C 271.494 231.659 271.966 232.072 272.143 233.016 Z " fill="rgb(238,58,67)"/><path d=" M 300.07 192.632 C 297.767 193.636 293.28 198.005 293.28 199.185 C 293.28 200.13 294.343 199.894 298.358 198.005 C 301.31 196.647 302.196 195.938 302.491 194.639 C 302.727 193.754 303.14 192.632 303.495 192.219 C 304.321 191.156 302.904 191.333 300.07 192.632 Z " fill="rgb(238,58,67)"/><path d=" M 194.976 194.344 C 194.798 194.521 194.68 195.466 194.68 196.41 C 194.68 197.355 193.499 201.665 192.023 206.034 C 189.012 214.891 188.953 215.363 190.429 214.595 C 190.961 214.3 193.145 213.356 195.212 212.411 C 199.876 210.285 204.363 206.093 205.249 203.023 C 205.721 201.193 205.662 200.425 204.717 198.654 C 204.127 197.414 202.887 196.115 201.942 195.643 C 200.053 194.757 195.448 193.931 194.976 194.344 Z " fill="rgb(238,58,67)"/><path d=" M 122.177 223.275 C 120.169 225.4 119.579 228.884 120.287 233.961 C 121.409 241.873 123.24 245.356 127.373 247.423 C 130.561 249.076 132.745 249.135 134.162 247.6 C 135.107 246.596 135.107 245.947 134.517 240.397 C 134.162 237.031 133.69 232.839 133.513 231.068 C 132.863 224.869 130.915 222.271 126.546 221.799 C 124.125 221.503 123.712 221.621 122.177 223.275 Z " fill="rgb(238,58,67)"/></g><g><path d=" M 343.396 299.268 L 343.396 294.431 L 341.542 294.431 L 341.542 293.784 L 346.001 293.784 L 346.001 294.431 L 344.14 294.431 L 344.14 299.268 L 343.396 299.268 Z " fill="rgb(238,58,67)"/><path d=" M 346.746 299.268 L 346.746 293.784 L 347.866 293.784 L 349.198 297.667 C 349.32 298.029 349.41 298.299 349.466 298.479 C 349.53 298.279 349.63 297.986 349.766 297.6 L 351.112 293.784 L 352.114 293.784 L 352.114 299.268 L 351.396 299.268 L 351.396 294.678 L 349.762 299.268 L 349.09 299.268 L 347.463 294.6 L 347.463 299.268 L 346.746 299.268 Z " fill="rgb(238,58,67)"/></g></g></g></svg>