<?xml version="1.0" encoding="UTF-8" standalone="no"?><!-- Generator: Gravit.io --><svg xmlns="http://www.w3.org/2000/svg" xmlns:xlink="http://www.w3.org/1999/xlink" style="isolation:isolate" viewBox="0 0 24 24" width="24pt" height="24pt"><defs><clipPath id="_clipPath_ekTmtGBddgh5LT3c7dLR2oo9jTboJAHa"><rect width="24" height="24"/></clipPath></defs><g clip-path="url(#_clipPath_ekTmtGBddgh5LT3c7dLR2oo9jTboJAHa)"><g><defs><filter id="b51XOoTHNNMcxYgQfPJRRyGbcs2CqGaY" x="-200%" y="-200%" width="400%" height="400%" filterUnits="objectBoundingBox" color-interpolation-filters="sRGB"><feGaussianBlur xmlns="http://www.w3.org/2000/svg" stdDeviation="4.293609062839028"/></filter></defs><g filter="url(#b51XOoTHNNMcxYgQfPJRRyGbcs2CqGaY)"><ellipse vector-effect="non-scaling-stroke" cx="11.937653344309695" cy="22.712036298505467" rx="2.961238831121353" ry="0.918743329655598" fill="rgb(162,162,162)" fill-opacity="0.7"/></g><defs><filter id="p68Z8at1jswL7F6Q6mBVluEXkkxKzv8n" x="-200%" y="-200%" width="400%" height="400%" filterUnits="objectBoundingBox" color-interpolation-filters="sRGB"><feGaussianBlur xmlns="http://www.w3.org/2000/svg" stdDeviation="0"/></filter></defs><g filter="url(#p68Z8at1jswL7F6Q6mBVluEXkkxKzv8n)"><path d=" M 3.737 8.768 C 3.737 4.188 7.421 0.48 11.959 0.48 C 16.504 0.48 20.188 4.188 20.188 8.768 C 20.188 11.227 19.12 13.443 17.425 14.961 C 17.331 15.042 14.101 18.071 11.939 22.712 C 11.125 19.428 7.968 16.271 6.52 14.981 C 4.812 13.457 3.737 11.24 3.737 8.768 Z  M 17.044 8.768" fill="rgb(138, 6, 158)"/></g></g><circle vector-effect="non-scaling-stroke" cx="11.961769155480003" cy="8.899414853364274" r="6.375860938012465" fill="rgb(255,255,255)"/><circle vector-effect="non-scaling-stroke" cx="11.96239974000271" cy="8.87722186070302" r="5.717468820088149" fill="rgb(138, 6, 158)"/><g><g><path d=" M 13.199 9.691 C 13.2 9.089 13.659 8.636 14.247 8.635 C 14.481 8.635 14.691 8.681 14.863 8.808 L 14.863 9.095 C 14.73 8.997 14.541 8.911 14.247 8.912 C 13.798 8.915 13.507 9.229 13.51 9.691 C 13.513 10.143 13.819 10.469 14.247 10.469 C 14.513 10.469 14.668 10.421 14.863 10.287 L 14.863 10.574 C 14.692 10.7 14.481 10.746 14.247 10.746 C 13.624 10.746 13.198 10.278 13.199 9.691 Z " fill="rgb(255,255,255)"/><path d=" M 15.202 8.687 L 15.202 10.696 L 16.558 10.696 L 16.558 10.419 L 15.495 10.419 L 15.495 9.807 L 16.42 9.807 L 16.42 9.53 L 15.495 9.53 L 15.495 8.963 L 16.509 8.963 L 16.509 8.687 L 15.202 8.687 L 15.202 8.687 Z " fill="rgb(255,255,255)"/><path d=" M 12.568 10.696 L 12.861 10.696 L 12.861 8.686 L 12.568 8.686 L 12.568 10.696 Z " fill="rgb(255,255,255)"/><path d=" M 9.418 8.687 L 9.418 10.696 L 9.712 10.696 L 9.712 9.838 L 10.57 9.838 L 10.57 9.561 L 9.712 9.561 L 9.712 8.963 L 10.673 8.963 L 10.673 8.687 L 9.418 8.687 L 9.418 8.687 Z " fill="rgb(255,255,255)"/><path d=" M 7.344 9.691 C 7.344 9.24 7.654 8.912 8.081 8.912 C 8.508 8.912 8.816 9.24 8.816 9.691 C 8.816 10.143 8.508 10.469 8.081 10.469 C 7.654 10.469 7.344 10.143 7.344 9.691 Z  M 7.034 9.691 C 7.034 10.292 7.484 10.746 8.081 10.746 C 8.678 10.746 9.128 10.292 9.128 9.691 C 9.128 9.089 8.678 8.635 8.081 8.635 C 7.484 8.635 7.034 9.089 7.034 9.691 Z " fill="rgb(255,255,255)"/><path d=" M 10.985 8.687 L 10.985 10.696 L 11.279 10.696 L 11.279 9.838 L 12.137 9.838 L 12.137 9.561 L 11.279 9.561 L 11.279 8.963 L 12.241 8.963 L 12.241 8.687 L 10.985 8.687 L 10.985 8.687 Z " fill="rgb(255,255,255)"/><path d=" M 12.639 6.576 C 12.639 7.023 12.954 7.116 13.232 7.204 C 13.438 7.27 13.634 7.338 13.634 7.528 C 13.634 7.728 13.418 7.829 13.232 7.832 C 13.04 7.834 12.827 7.742 12.673 7.633 L 12.674 7.927 C 12.822 8.05 13.03 8.122 13.226 8.12 C 13.639 8.116 13.94 7.859 13.94 7.493 C 13.94 7.095 13.629 7.011 13.366 6.93 C 13.142 6.862 12.94 6.796 12.94 6.576 C 12.94 6.468 13.029 6.286 13.324 6.286 C 13.476 6.286 13.588 6.308 13.783 6.431 L 13.803 6.444 L 13.804 6.15 C 13.684 6.058 13.512 6.009 13.324 6.009 C 12.825 6.009 12.639 6.357 12.639 6.576 Z " fill="rgb(255,255,255)"/><path d=" M 14.05 6.06 L 14.05 6.337 L 14.689 6.337 L 14.689 8.069 L 14.983 8.069 L 14.983 6.337 L 15.622 6.337 L 15.622 6.06 L 14.05 6.06 Z " fill="rgb(255,255,255)"/><path d=" M 10.649 7.064 C 10.649 6.613 10.959 6.286 11.386 6.286 C 11.812 6.286 12.122 6.613 12.122 7.064 C 12.122 7.516 11.812 7.843 11.386 7.843 C 10.959 7.843 10.649 7.516 10.649 7.064 Z  M 10.338 7.064 C 10.338 7.667 10.789 8.12 11.386 8.12 C 11.982 8.12 12.432 7.667 12.432 7.064 C 12.432 6.463 11.982 6.009 11.386 6.009 C 10.789 6.009 10.338 6.463 10.338 7.064 Z " fill="rgb(255,255,255)"/><path d=" M 9.491 6.319 C 9.646 6.319 9.904 6.363 9.904 6.657 C 9.904 6.95 9.646 6.994 9.491 6.994 L 9.121 6.994 L 9.121 6.319 L 9.491 6.319 Z  M 8.827 6.06 L 8.827 8.069 L 9.121 8.069 L 9.121 7.254 L 9.537 7.254 C 10.14 7.254 10.187 6.797 10.187 6.657 C 10.187 6.517 10.14 6.06 9.537 6.06 L 8.827 6.06" fill="rgb(255,255,255)"/></g></g></g></svg>
