<?xml version="1.0" encoding="UTF-8" standalone="no"?><!-- Generator: Gravit.io --><svg xmlns="http://www.w3.org/2000/svg" xmlns:xlink="http://www.w3.org/1999/xlink" style="isolation:isolate" viewBox="0 0 24 24" width="24pt" height="24pt"><defs><clipPath id="_clipPath_9FTwaKGLdITBFEpMoZG9jz91ZsJbQqyE"><rect width="24" height="24"/></clipPath></defs><g clip-path="url(#_clipPath_9FTwaKGLdITBFEpMoZG9jz91ZsJbQqyE)"><clipPath id="_clipPath_zA8mGTDnqYigR1orqG9qmx6qNdt1GEbI"><rect x="2.98" y="1" width="18.04" height="22" transform="matrix(1,0,0,1,0,0)" fill="rgb(255,255,255)"/></clipPath><g clip-path="url(#_clipPath_zA8mGTDnqYigR1orqG9qmx6qNdt1GEbI)"><g><path d=" M 18.219 16.551 C 19.896 14.836 21.02 12.588 21.02 10.02 C 21.02 5.042 16.978 1 12 1 C 7.022 1 2.98 5.042 2.98 10.02 C 2.98 12.62 4.007 14.787 5.844 16.61 L 5.844 16.61 L 11.633 23 L 18.23 16.551 L 18.219 16.551 Z " fill="rgb(168,22,20)"/></g></g><clipPath id="_clipPath_FdEJvQBwyl1SpIm3La3XejhDiMpRkLK5"><rect x="2.98" y="1" width="18.04" height="22" transform="matrix(1,0,0,1,0,0)" fill="rgb(255,255,255)"/></clipPath><g clip-path="url(#_clipPath_FdEJvQBwyl1SpIm3La3XejhDiMpRkLK5)"><g><circle vector-effect="non-scaling-stroke" cx="12" cy="10.000000000000002" r="7" fill="rgb(255,255,255)"/></g></g><g><path d=" M 10.277 9.816 C 11.127 9.527 11.734 8.777 11.734 7.895 C 11.734 6.763 10.736 5.844 9.505 5.844 L 7.377 5.844 C 6.966 5.844 6.633 6.151 6.633 6.528 L 6.633 11.286 C 6.633 11.664 6.966 11.969 7.377 11.969 L 11.999 11.969 L 10.277 9.816 Z  M 9.11 8.726 C 8.686 8.726 8.342 8.409 8.342 8.019 C 8.342 7.629 8.686 7.313 9.11 7.313 C 9.534 7.313 9.878 7.629 9.878 8.019 C 9.878 8.409 9.534 8.726 9.11 8.726 Z  M 16.623 5.844 L 14.494 5.844 C 13.263 5.844 12.265 6.763 12.265 7.895 C 12.265 8.777 12.872 9.528 13.723 9.816 L 11.999 11.969 L 16.623 11.969 C 17.033 11.969 17.366 11.664 17.366 11.286 L 17.366 6.528 C 17.366 6.151 17.034 5.844 16.623 5.844 Z  M 14.889 8.726 C 14.465 8.726 14.121 8.409 14.121 8.019 C 14.121 7.629 14.465 7.313 14.889 7.313 C 15.313 7.313 15.657 7.629 15.657 8.019 C 15.657 8.409 15.313 8.726 14.889 8.726 Z  M 7.478 12.717 C 7.325 12.717 7.311 12.871 7.266 12.877 C 7.241 12.88 7.246 12.794 7.243 12.774 C 7.238 12.74 7.216 12.706 7.155 12.706 C 7.104 12.706 7.046 12.727 6.895 12.778 C 6.742 12.831 6.655 12.871 6.655 12.957 C 6.655 13.005 6.697 13.026 6.722 13.031 C 6.756 13.038 6.834 13.048 6.834 13.099 L 6.834 13.541 C 6.834 13.604 6.834 13.742 6.752 13.771 C 6.713 13.785 6.673 13.797 6.673 13.863 C 6.673 13.962 6.707 13.988 6.815 13.988 L 7.423 13.989 C 7.512 13.989 7.522 13.923 7.522 13.88 C 7.522 13.816 7.495 13.793 7.427 13.771 C 7.298 13.73 7.267 13.682 7.267 13.563 L 7.267 13.142 C 7.267 13.13 7.267 13.112 7.309 13.112 C 7.446 13.112 7.353 13.304 7.56 13.304 C 7.69 13.304 7.709 13.138 7.709 13.055 C 7.709 12.931 7.662 12.717 7.478 12.717 L 7.478 12.717 Z  M 16.967 13.112 C 17.103 13.112 17.011 13.304 17.218 13.304 C 17.347 13.304 17.367 13.138 17.367 13.055 C 17.367 12.931 17.319 12.717 17.135 12.717 C 16.983 12.717 16.969 12.871 16.923 12.877 C 16.899 12.88 16.904 12.794 16.901 12.775 C 16.896 12.74 16.874 12.706 16.813 12.706 C 16.761 12.706 16.704 12.727 16.553 12.778 C 16.4 12.831 16.312 12.871 16.312 12.957 C 16.312 13.005 16.354 13.026 16.38 13.031 C 16.414 13.038 16.491 13.048 16.491 13.099 L 16.491 13.541 C 16.491 13.604 16.491 13.742 16.41 13.771 C 16.371 13.785 16.33 13.797 16.33 13.863 C 16.33 13.962 16.365 13.988 16.472 13.988 L 17.081 13.989 C 17.17 13.989 17.18 13.922 17.18 13.88 C 17.18 13.816 17.153 13.793 17.085 13.771 C 16.956 13.73 16.924 13.682 16.924 13.563 L 16.924 13.142 C 16.924 13.13 16.925 13.112 16.967 13.112 L 16.967 13.112 Z " fill="rgb(168,22,20)"/><path d=" M 16.326 13.191 C 16.326 13.047 16.171 12.716 15.851 12.716 C 15.474 12.716 15.261 13.056 15.261 13.421 C 15.261 13.746 15.406 13.977 15.761 13.998 C 15.988 14.011 16.218 13.93 16.284 13.693 C 16.319 13.567 16.292 13.54 16.258 13.544 C 16.201 13.549 16.126 13.687 15.971 13.687 C 15.791 13.687 15.724 13.565 15.705 13.425 C 15.705 13.425 16.008 13.344 16.189 13.296 C 16.294 13.267 16.326 13.242 16.326 13.191 L 16.326 13.191 Z  M 15.74 13.18 C 15.684 13.196 15.665 13.167 15.665 13.1 C 15.665 13.035 15.708 12.961 15.77 12.952 C 15.848 12.942 15.9 13.019 15.9 13.062 C 15.9 13.155 15.817 13.159 15.74 13.18 Z  M 11.208 12.717 C 11.056 12.717 11.041 12.871 10.996 12.877 C 10.972 12.88 10.977 12.794 10.974 12.774 C 10.969 12.74 10.947 12.706 10.886 12.706 C 10.834 12.706 10.777 12.727 10.626 12.778 C 10.472 12.831 10.385 12.871 10.385 12.957 C 10.385 13.005 10.427 13.026 10.453 13.031 C 10.487 13.038 10.564 13.048 10.564 13.099 L 10.564 13.541 C 10.564 13.604 10.564 13.742 10.482 13.771 C 10.443 13.785 10.403 13.797 10.403 13.863 C 10.403 13.962 10.437 13.988 10.545 13.988 L 11.153 13.989 C 11.243 13.989 11.252 13.923 11.252 13.88 C 11.252 13.816 11.226 13.793 11.157 13.771 C 11.029 13.73 10.997 13.682 10.997 13.563 L 10.997 13.142 C 10.997 13.13 10.997 13.112 11.039 13.112 C 11.176 13.112 11.084 13.304 11.291 13.304 C 11.42 13.304 11.44 13.138 11.44 13.055 C 11.44 12.931 11.392 12.717 11.208 12.717 L 11.208 12.717 Z  M 10.026 13.714 C 9.927 13.685 9.93 13.589 9.93 13.369 C 9.93 13.369 9.931 12.49 9.931 12.324 C 9.931 12.249 9.85 12.257 9.804 12.267 C 9.508 12.334 9.315 12.369 9.315 12.457 C 9.315 12.495 9.352 12.513 9.394 12.525 C 9.432 12.535 9.494 12.541 9.494 12.663 C 9.494 12.765 9.478 12.785 9.438 12.768 C 9.412 12.756 9.401 12.717 9.279 12.717 C 8.944 12.717 8.801 13.059 8.801 13.403 C 8.801 13.75 8.947 14 9.223 14 C 9.419 14 9.494 13.881 9.494 13.881 C 9.494 13.943 9.511 14.017 9.608 13.997 C 9.689 13.979 9.936 13.936 10.025 13.895 C 10.124 13.85 10.09 13.732 10.026 13.714 Z  M 9.44 13.738 C 9.307 13.738 9.271 13.441 9.271 13.294 C 9.271 13.191 9.309 12.982 9.436 12.982 C 9.505 12.982 9.494 13.079 9.494 13.323 C 9.494 13.613 9.505 13.738 9.44 13.738 Z  M 8.775 13.191 C 8.775 13.047 8.619 12.716 8.299 12.716 C 7.922 12.716 7.709 13.056 7.709 13.421 C 7.709 13.746 7.855 13.977 8.209 13.998 C 8.436 14.011 8.666 13.93 8.732 13.693 C 8.767 13.567 8.74 13.54 8.706 13.544 C 8.649 13.549 8.575 13.687 8.42 13.687 C 8.239 13.687 8.172 13.565 8.153 13.425 C 8.153 13.425 8.456 13.344 8.637 13.296 C 8.742 13.267 8.775 13.242 8.775 13.191 L 8.775 13.191 Z  M 8.188 13.18 C 8.132 13.196 8.113 13.167 8.113 13.1 C 8.113 13.035 8.156 12.961 8.218 12.952 C 8.296 12.942 8.348 13.019 8.348 13.062 C 8.348 13.155 8.265 13.159 8.188 13.18 Z " fill="rgb(168,22,20)"/><path d=" M 15.13 13.725 C 15.068 13.725 15.026 13.662 15.026 13.505 L 15.026 13.016 L 15.112 13.016 C 15.221 13.016 15.264 13.025 15.264 12.969 L 15.264 12.84 C 15.264 12.805 15.266 12.771 15.211 12.771 L 15.051 12.771 C 15.022 12.771 15.026 12.734 15.026 12.611 C 15.026 12.465 14.94 12.54 14.694 12.708 C 14.559 12.8 14.46 12.855 14.46 12.923 C 14.46 13.008 14.565 12.993 14.565 13.064 L 14.565 13.658 C 14.565 13.924 14.753 13.999 14.912 13.999 C 15.005 13.999 15.29 13.968 15.29 13.78 C 15.29 13.681 15.179 13.725 15.13 13.725 L 15.13 13.725 Z  M 13.966 13.008 C 13.966 12.968 14.007 12.952 14.048 12.961 C 14.184 12.99 14.234 13.128 14.334 13.128 C 14.389 13.128 14.424 13.09 14.424 13.017 C 14.424 12.936 14.372 12.71 14.294 12.71 C 14.267 12.71 14.253 12.745 14.221 12.745 C 14.16 12.745 14.149 12.716 13.999 12.716 C 13.76 12.716 13.562 12.902 13.583 13.133 C 13.611 13.443 14.137 13.497 14.113 13.683 C 14.105 13.745 14.029 13.767 13.932 13.709 C 13.735 13.592 13.751 13.503 13.661 13.493 C 13.493 13.476 13.644 13.943 13.714 13.979 C 13.764 14.005 13.817 13.968 13.846 13.964 C 13.874 13.96 14.023 14.021 14.176 13.988 C 14.295 13.963 14.511 13.868 14.484 13.52 C 14.453 13.133 13.966 13.151 13.966 13.008 L 13.966 13.008 Z  M 13.001 12.716 C 12.739 12.716 12.581 12.847 12.505 13.041 C 12.43 12.847 12.271 12.716 12.009 12.716 C 11.62 12.716 11.459 13.004 11.459 13.358 C 11.459 13.712 11.62 13.999 12.009 13.999 C 12.271 13.999 12.43 13.869 12.505 13.675 C 12.581 13.869 12.739 13.999 13.001 13.999 C 13.39 13.999 13.551 13.712 13.551 13.358 C 13.551 13.004 13.39 12.716 13.001 12.716 L 13.001 12.716 Z  M 12.057 13.763 C 11.963 13.772 11.925 13.593 11.899 13.369 C 11.872 13.145 11.868 12.962 11.962 12.953 C 12.054 12.944 12.093 13.123 12.119 13.347 C 12.146 13.57 12.148 13.753 12.057 13.763 L 12.057 13.763 Z  M 13.049 13.763 C 12.956 13.772 12.917 13.593 12.891 13.369 C 12.864 13.145 12.86 12.962 12.954 12.953 C 13.046 12.944 13.085 13.123 13.112 13.347 C 13.138 13.57 13.141 13.753 13.049 13.763 L 13.049 13.763 Z " fill="rgb(168,22,20)"/></g></g></svg>