<?xml version="1.0" encoding="UTF-8" standalone="no"?><!-- Generator: Gravit.io --><svg xmlns="http://www.w3.org/2000/svg" xmlns:xlink="http://www.w3.org/1999/xlink" style="isolation:isolate" viewBox="0 0 400 520" width="400pt" height="520pt"><defs><clipPath id="_clipPath_2VGUSHYm6kPnl1US5FnCjrLilD9NEZ6S"><rect width="400" height="520"/></clipPath></defs><g clip-path="url(#_clipPath_2VGUSHYm6kPnl1US5FnCjrLilD9NEZ6S)"><g><defs><filter id="1JrGpE4ddQ7s7QvzokDYvlvcFtwfu3DV" x="-200%" y="-200%" width="400%" height="400%" filterUnits="objectBoundingBox" color-interpolation-filters="sRGB"><feGaussianBlur xmlns="http://www.w3.org/2000/svg" stdDeviation="4.293609062839028"/></filter></defs><g filter="url(#1JrGpE4ddQ7s7QvzokDYvlvcFtwfu3DV)"><ellipse vector-effect="non-scaling-stroke" cx="198.91361582044095" cy="490" rx="65" ry="20.166666666666686" fill="rgb(162,162,162)" fill-opacity="0.7"/></g><defs><filter id="6yWbhYaVvRdOyN9J3s4Uz6MI7wWSQTTj" x="-200%" y="-200%" width="400%" height="400%" filterUnits="objectBoundingBox" color-interpolation-filters="sRGB"><feGaussianBlur xmlns="http://www.w3.org/2000/svg" stdDeviation="0"/></filter></defs><g filter="url(#6yWbhYaVvRdOyN9J3s4Uz6MI7wWSQTTj)"><path d=" M 18.914 183.931 C 18.914 83.382 99.774 2 199.384 2 C 299.14 2 380 83.382 380 183.931 C 380 237.891 356.562 286.544 319.355 319.863 C 317.304 321.633 246.405 388.124 198.944 490 C 181.073 417.906 111.785 348.613 79.998 320.306 C 42.498 286.839 18.914 238.186 18.914 183.931 Z  M 311.005 183.931" fill="rgb(244,115,32)" vector-effect="non-scaling-stroke" stroke-width="2" stroke="rgb(244,115,32)" stroke-linejoin="miter" stroke-linecap="butt" stroke-miterlimit="4"/></g></g><circle vector-effect="non-scaling-stroke" cx="199" cy="184.99999999999997" r="135" fill="rgb(180,5,85)"/><circle vector-effect="non-scaling-stroke" cx="199.50000000000003" cy="184.64164608777287" r="125.49999999999997" fill="rgb(255,255,255)"/><path d=" M 192.779 229.722 C 179.656 229.722 166.018 226.827 153.924 221.038 C 151.576 219.43 151.126 218.465 151.126 216.213 L 151.126 204.409 C 151.126 202.254 151.866 200.131 155.854 200.131 C 157.977 200.131 159.392 201.256 162.416 203.444 C 174.542 211.903 186.089 215.345 195.867 215.345 C 212.335 215.345 223.528 205.374 223.528 193.022 C 223.657 160.761 150 170.636 150 123.032 C 150 100.999 166.983 81.733 198.344 81.733 C 213.943 81.733 228.096 84.724 236.073 87.844 C 238.228 88.809 238.646 89.902 238.646 92.09 L 238.646 105.76 C 238.646 107.85 238.003 109.491 235.429 109.491 C 233.339 109.491 231.666 108.204 229.061 106.274 C 219.637 99.52 210.63 95.338 198.826 95.338 C 185.638 95.338 175.281 102.414 175.281 113.35 C 175.281 140.369 250 137.474 250 180.896 C 250 213.704 222.66 229.143 192.747 229.143 M 1060.261 222.292" fill="rgb(244,115,32)"/><text transform="matrix(1,0,0,1,140,273.869)" style="font-family:'Sarala';font-weight:400;font-size:50px;font-style:normal;fill:#b40555;stroke:none;">Local</text></g></svg>