<?xml version="1.0" encoding="UTF-8" standalone="no"?><!-- Generator: Gravit.io --><svg xmlns="http://www.w3.org/2000/svg" xmlns:xlink="http://www.w3.org/1999/xlink" style="isolation:isolate" viewBox="0 0 400 520" width="400pt" height="520pt"><defs><clipPath id="_clipPath_FysqHZXdl7pGYssN3VCKSLSjiZkpPyfT"><rect width="400" height="520"/></clipPath></defs><g clip-path="url(#_clipPath_FysqHZXdl7pGYssN3VCKSLSjiZkpPyfT)"><g><defs><filter id="r6VBmup2npxZfvhr01PX75E7ego9S9QG" x="-200%" y="-200%" width="400%" height="400%" filterUnits="objectBoundingBox" color-interpolation-filters="sRGB"><feGaussianBlur xmlns="http://www.w3.org/2000/svg" stdDeviation="4.293609062839028"/></filter></defs><g filter="url(#r6VBmup2npxZfvhr01PX75E7ego9S9QG)"><ellipse vector-effect="non-scaling-stroke" cx="198.91361582044095" cy="491.99999999999994" rx="65" ry="20.166666666666686" fill="rgb(162,162,162)" fill-opacity="0.7"/></g><defs><filter id="BK4uPAZNwDTaLR2H9HNpxx0JlimmuvCI" x="-200%" y="-200%" width="400%" height="400%" filterUnits="objectBoundingBox" color-interpolation-filters="sRGB"><feGaussianBlur xmlns="http://www.w3.org/2000/svg" stdDeviation="0"/></filter></defs><g filter="url(#BK4uPAZNwDTaLR2H9HNpxx0JlimmuvCI)"><path d=" M 18.914 185.931 C 18.914 85.382 99.774 4 199.384 4 C 299.14 4 380 85.382 380 185.931 C 380 239.891 356.562 288.544 319.355 321.863 C 317.304 323.633 246.405 390.124 198.944 492 C 181.073 419.906 111.785 350.613 79.998 322.306 C 42.498 288.839 18.914 240.186 18.914 185.931 Z  M 311.005 185.931" fill="rgb(244,115,32)" vector-effect="non-scaling-stroke" stroke-width="2" stroke="rgb(244,115,32)" stroke-linejoin="miter" stroke-linecap="butt" stroke-miterlimit="4"/></g></g><circle vector-effect="non-scaling-stroke" cx="199" cy="186.99999999999997" r="135" fill="rgb(180,5,85)"/><circle vector-effect="non-scaling-stroke" cx="199.50000000000003" cy="186.64164608777287" r="125.49999999999997" fill="rgb(255,255,255)"/><path d=" M 192.779 231.722 C 179.656 231.722 166.018 228.827 153.924 223.038 C 151.576 221.43 151.126 220.465 151.126 218.213 L 151.126 206.409 C 151.126 204.254 151.866 202.131 155.854 202.131 C 157.977 202.131 159.392 203.256 162.416 205.444 C 174.542 213.903 186.089 217.345 195.867 217.345 C 212.335 217.345 223.528 207.374 223.528 195.022 C 223.657 162.761 150 172.636 150 125.032 C 150 102.999 166.983 83.733 198.344 83.733 C 213.943 83.733 228.096 86.724 236.073 89.844 C 238.228 90.809 238.646 91.902 238.646 94.09 L 238.646 107.76 C 238.646 109.85 238.003 111.491 235.429 111.491 C 233.339 111.491 231.666 110.204 229.061 108.274 C 219.637 101.52 210.63 97.338 198.826 97.338 C 185.638 97.338 175.281 104.414 175.281 115.35 C 175.281 142.369 250 139.474 250 182.896 C 250 215.704 222.66 231.143 192.747 231.143 M 1060.261 224.292" fill="rgb(244,115,32)"/><text transform="matrix(1,0,0,1,140,275.869)" style="font-family:'Sarala';font-weight:400;font-size:50px;font-style:normal;fill:#b40555;stroke:none;">Local</text></g></svg>