<?xml version="1.0" encoding="UTF-8" standalone="no"?><!-- Generator: Gravit.io --><svg xmlns="http://www.w3.org/2000/svg" xmlns:xlink="http://www.w3.org/1999/xlink" style="isolation:isolate" viewBox="0 0 400 520" width="400pt" height="520pt"><defs><clipPath id="_clipPath_3iY0HHngksUgSBWMs3x1cYQoyEyNwf7Y"><rect width="400" height="520"/></clipPath></defs><g clip-path="url(#_clipPath_3iY0HHngksUgSBWMs3x1cYQoyEyNwf7Y)"><g><defs><filter id="bieHMcAatn1OpqFlC7IA4kkaPDuJw6rS" x="-200%" y="-200%" width="400%" height="400%" filterUnits="objectBoundingBox" color-interpolation-filters="sRGB"><feGaussianBlur xmlns="http://www.w3.org/2000/svg" stdDeviation="4.293609062839028"/></filter></defs><g filter="url(#bieHMcAatn1OpqFlC7IA4kkaPDuJw6rS)"><ellipse vector-effect="non-scaling-stroke" cx="198.91361582044095" cy="491.99999999999994" rx="65" ry="20.166666666666686" fill="rgb(162,162,162)" fill-opacity="0.7"/></g><defs><filter id="GYE6p4jAJVAlCa62zUja2ijMw3LxVgfJ" x="-200%" y="-200%" width="400%" height="400%" filterUnits="objectBoundingBox" color-interpolation-filters="sRGB"><feGaussianBlur xmlns="http://www.w3.org/2000/svg" stdDeviation="0"/></filter></defs><g filter="url(#GYE6p4jAJVAlCa62zUja2ijMw3LxVgfJ)"><path d=" M 18.914 185.931 C 18.914 85.382 99.774 4 199.384 4 C 299.14 4 380 85.382 380 185.931 C 380 239.891 356.562 288.544 319.355 321.863 C 317.304 323.633 246.405 390.124 198.944 492 C 181.073 419.906 111.785 350.613 79.998 322.306 C 42.498 288.839 18.914 240.186 18.914 185.931 Z  M 311.005 185.931" fill="rgb(255,213,0)"/></g></g><circle vector-effect="non-scaling-stroke" cx="199" cy="186.99999999999997" r="135" fill="rgb(237,28,36)"/><circle vector-effect="non-scaling-stroke" cx="199.50000000000003" cy="186.64164608777287" r="125.49999999999997" fill="rgb(255,255,255)"/><g><g><g><path d=" M 199.352 268 C 192.815 268 189.456 263.737 189.456 263.737 C 184.084 263.504 142.099 263.621 142.099 263.621 L 138.012 229.119 C 138.012 229.119 112.153 210.892 110.051 208.79 C 97.638 152.479 142.504 98.796 199.353 98.796 C 256.203 98.796 301.069 152.479 288.656 208.79 C 286.554 210.892 260.695 229.119 260.695 229.119 L 256.608 263.621 C 256.608 263.621 214.623 263.504 209.251 263.737 C 209.251 263.737 205.892 268 199.352 268 Z " fill-rule="evenodd" fill="rgb(237,28,36)"/><path d=" M 199.413 215.53 L 195.446 115.939 C 190.661 114.963 178.457 116.135 171.915 121.016 L 190.954 215.921 C 190.954 215.921 164.983 124.922 164.983 124.922 C 158.756 124.846 146.193 135.373 145.26 138.494 L 183.143 219.24 C 183.143 219.24 140.573 145.426 140.573 145.426 C 136.375 146.988 127.197 163.88 128.661 165.842 C 128.661 165.842 176.113 223.927 176.113 223.927 L 127.294 174.327 C 127.294 174.327 120.948 183.993 125.086 200.366 L 152.662 220.279 L 156.114 247.486 L 189.922 247.486 C 189.922 247.486 195.453 252.728 199.378 252.728 C 203.303 252.728 208.834 247.486 208.834 247.486 L 242.642 247.486 L 246.094 220.279 L 273.67 200.366 C 277.808 183.993 271.462 174.327 271.462 174.327 L 222.643 223.927 C 222.643 223.927 270.095 165.842 270.095 165.842 C 271.559 163.88 262.381 146.988 258.183 145.426 C 258.183 145.426 215.613 219.24 215.613 219.24 L 253.496 138.494 C 252.563 135.373 240 124.846 233.773 124.922 Q 233.773 124.922 220.788 170.421 Q 207.802 215.921 207.802 215.921 L 226.841 121.016 C 220.299 116.135 208.095 114.963 203.31 115.939 L 199.413 215.53 Z " fill-rule="evenodd" fill="rgb(255,213,0)"/></g></g></g></g></svg>