<?xml version="1.0" encoding="UTF-8" standalone="no"?><!-- Generator: Gravit.io --><svg xmlns="http://www.w3.org/2000/svg" xmlns:xlink="http://www.w3.org/1999/xlink" style="isolation:isolate" viewBox="0 0 24 24" width="24pt" height="24pt"><defs><clipPath id="_clipPath_QGx9ZgVDFI85d8CPIUKDNiPtlYtNAkuf"><rect width="24" height="24"/></clipPath></defs><g clip-path="url(#_clipPath_QGx9ZgVDFI85d8CPIUKDNiPtlYtNAkuf)"><path d=" M 18.219 16.551 C 19.896 14.836 21.02 12.588 21.02 10.02 C 21.02 5.042 16.978 1 12 1 C 7.022 1 2.98 5.042 2.98 10.02 C 2.98 12.62 4.007 14.787 5.844 16.61 L 5.844 16.61 L 11.633 23 L 18.23 16.551 L 18.219 16.551 Z " fill="rgb(236,27,36)"/><g><path d=" M 5.889 9.891 C 5.889 12.09 6.996 14.058 8.946 15.021 C 10.779 15.927 13.221 15.927 15.06 15.021 C 16.872 14.128 18.111 12.09 18.111 9.891 C 18.111 6.528 15.421 3.78 12 3.78 C 8.563 3.78 5.889 6.507 5.889 9.891 Z " fill="rgb(21,121,70)"/><path d=" M 12.003 5.364 C 11.388 7.449 9.555 10.505 8.219 12.003 L 11.388 12.003 L 11.396 12.912 C 11.388 13.426 10.979 13.961 10.383 13.954 C 9.555 13.944 8.52 13.561 7.895 12.499 C 7.439 11.725 7.108 11.115 7.108 9.891 C 7.108 7.218 9.262 5.003 12 5.003 C 14.709 5.003 16.892 7.282 16.892 9.891 C 16.892 11.115 16.321 12.173 16.132 12.478 C 15.464 13.561 14.445 13.944 13.657 13.954 C 13.113 13.96 12.612 13.561 12.612 12.909 L 12.612 12.003 L 15.831 12.003 C 14.445 10.505 12.612 7.449 12.003 5.364 Z " fill="rgb(255,255,255)"/></g></g></svg>