<?xml version="1.0" encoding="UTF-8" standalone="no"?>
<svg
   xmlns:dc="http://purl.org/dc/elements/1.1/"
   xmlns:cc="http://creativecommons.org/ns#"
   xmlns:rdf="http://www.w3.org/1999/02/22-rdf-syntax-ns#"
   xmlns:svg="http://www.w3.org/2000/svg"
   xmlns="http://www.w3.org/2000/svg"
   xmlns:sodipodi="http://sodipodi.sourceforge.net/DTD/sodipodi-0.dtd"
   xmlns:inkscape="http://www.inkscape.org/namespaces/inkscape"
   style="isolation:isolate"
   viewBox="0 0 24 24"
   width="24pt"
   height="24pt"
   version="1.1"
   id="svg100"
   sodipodi:docname="tacobell_closed.svg"
   inkscape:version="1.0.2-2 (e86c870879, 2021-01-15)"
   inkscape:export-filename="C:\Users\neilf\Downloads\tacobell_open.png"
   inkscape:export-xdpi="300"
   inkscape:export-ydpi="300">
  <metadata
     id="metadata104">
    <rdf:RDF>
      <cc:Work
         rdf:about="">
        <dc:format>image/svg+xml</dc:format>
        <dc:type
           rdf:resource="http://purl.org/dc/dcmitype/StillImage" />
        <dc:title></dc:title>
      </cc:Work>
    </rdf:RDF>
  </metadata>
  <sodipodi:namedview
     pagecolor="#ffffff"
     bordercolor="#666666"
     borderopacity="1"
     objecttolerance="10"
     gridtolerance="10"
     guidetolerance="10"
     inkscape:pageopacity="0"
     inkscape:pageshadow="2"
     inkscape:window-width="1920"
     inkscape:window-height="991"
     id="namedview102"
     showgrid="false"
     inkscape:zoom="17.478796"
     inkscape:cx="12.440132"
     inkscape:cy="18.54656"
     inkscape:window-x="-9"
     inkscape:window-y="-9"
     inkscape:window-maximized="1"
     inkscape:current-layer="svg100"
     inkscape:document-rotation="0" />
  <defs
     id="defs61">
    <clipPath
       id="_clipPath_RbBOfLpEr7mVVSrNKOhckHulWDsbUAMr">
      <rect
         width="24"
         height="24"
         id="rect58" />
    </clipPath>
  </defs>
  <g
     clip-path="url(#_clipPath_RbBOfLpEr7mVVSrNKOhckHulWDsbUAMr)"
     id="g95"
     style="display:inline;fill:#280b0b">
    <clipPath
       id="_clipPath_PhHMuYorjz1JkZfmIYyYbJ0xddlGpRQL">
      <rect
         x="2.98"
         y="1"
         width="18.040001"
         height="22"
         fill="#ffffff"
         id="rect63" />
    </clipPath>
    <g
       clip-path="url(#_clipPath_PhHMuYorjz1JkZfmIYyYbJ0xddlGpRQL)"
       id="g70"
       style="display:inline;fill:#280b0b">
      <g
         id="g68"
         style="display:inline;fill:#280b0b">
        <path
           d="M 18.219,16.551 C 19.896,14.836 21.02,12.588 21.02,10.02 21.02,5.042 16.978,1 12,1 7.022,1 2.98,5.042 2.98,10.02 c 0,2.6 1.027,4.767 2.864,6.59 v 0 L 11.633,23 18.23,16.551 Z"
           fill="rgb(1,93,77)"
           id="path66"
           style="fill:#280b0b;fill-opacity:1" />
      </g>
    </g>
    <clipPath
       id="_clipPath_Qc4Nwjh65y3UyxcEOgA0G5Ksp36S6TzH">
      <path
         d="M 5.926,3.721 H 18.074 V 16.243 H 5.926 Z"
         fill="#ffffff"
         id="path72" />
    </clipPath>
  </g>
  <defs
     id="defs98" />
  <path
     id="path88"
     style="fill:#ffffff;stroke-width:0.0135"
     d="m 9.0911782,3.0820313 -0.06738,0.013183 -0.06885,0.014648 -0.109863,0.052734 -0.1098638,0.052734 h -0.011723 -0.011722 l -0.046875,0.039551 -0.048338,0.038086 -0.065917,0.038086 -0.06738,0.038086 -0.027833,0.013183 -0.02637,0.014648 -0.04248,0.030762 -0.04248,0.030762 h -0.013185 -0.013185 l -0.016118,0.019043 -0.014648,0.017578 -0.084961,0.041016 -0.083496,0.03955 -0.062993,0.04834 -0.064455,0.04834 -0.057127,0.036621 -0.058598,0.035156 -0.023437,0.029297 -0.023437,0.029297 v 0.033691 0.033692 l -0.027832,0.03955 -0.027832,0.041015 -0.04248,0.080566 -0.04248,0.082031 -0.00585,0.1494141 -0.00443,0.1508788 0.048338,0.1728516 0.048337,0.1743164 v 0.061523 0.060059 l -0.0249,0.0542 -0.0249,0.054199 -0.080527,0.1069349 -0.082031,0.1083985 -0.1596675,0.1831055 -0.1596682,0.1816406 -0.09375,0.1274414 -0.09375,0.1259765 -0.077637,0.1230469 -0.077637,0.1230469 -0.082031,0.1552734 -0.082031,0.1552735 -0.074707,0.1889648 -0.076172,0.1889649 -0.046875,0.1523438 -0.04541,0.1523437 -0.033691,0.1450195 -0.032227,0.1450195 -0.027832,0.1816406 -0.027832,0.1816403 -0.014648,0.2431642 -0.016113,0.2431643 0.00733,0.3310545 0.00879,0.3310545 0.020508,0.1889655 0.020508,0.1889648 0.027832,0.1948237 0.029297,0.1962892 0.038081,0.1962893 0.038086,0.1948246 0.041016,0.183105 0.041015,0.181641 0.080566,0.32373 0.080566,0.325196 0.060059,0.290039 0.061523,0.290039 0.027832,0.188965 0.029297,0.188965 0.00586,0.03076 0.00733,0.0293 h 0.026367 0.026367 l 0.4145506,-0.32959 0.4145513,-0.331056 0.2636715,-0.191894 0.2636722,-0.191894 0.2431635,-0.162598 0.2431643,-0.164062 0.3969727,-0.247559 0.3984375,-0.247558 0.2900393,-0.171387 0.2915044,-0.1713874 0.222656,-0.1215817 0.222656,-0.1230465 0.269532,-0.134766 0.270996,-0.134766 0.155273,-0.06738 0.155273,-0.06885 0.08789,-0.02637 0.08789,-0.02637 0.05273,-0.00879 0.0542,-0.00879 -0.0835,0.080566 -0.0835,0.080566 -0.0791,0.052732 -0.07764,0.052733 -0.418945,0.2548822 -0.417481,0.2534183 -0.304687,0.1948241 -0.303222,0.194824 -0.2153332,0.149414 -0.2167965,0.149415 -0.1684575,0.121581 -0.1684567,0.123048 -0.1889648,0.146484 -0.1889647,0.147949 -0.1743165,0.143555 -0.1743165,0.143554 -0.1904295,0.172852 -0.1904303,0.174316 -0.3369135,0.339844 -0.338379,0.338379 -0.1494142,0.175781 -0.150879,0.175782 -0.09668,0.121581 -0.09668,0.121582 -0.1171875,0.164063 -0.1171875,0.165528 -0.092285,0.145019 -0.092285,0.145019 -0.1201172,0.243165 -0.1186524,0.243164 -0.036621,0.108398 -0.035156,0.108398 -0.027832,0.106934 -0.027832,0.108399 -0.00586,0.250488 -0.00733,0.249023 0.021973,0.101075 0.021973,0.101074 0.041016,0.08643 0.042481,0.08496 0.082031,0.08789 0.082031,0.08789 0.082031,0.0586 0.082031,0.0586 0.1215821,0.06006 0.121582,0.06006 0.029297,0.0088 0.030762,0.01025 v 0.03077 0.03076 l 0.051269,0.0088 0.049805,0.0088 h 0.04834 0.046875 l 0.114258,0.03955 0.1142573,0.04102 h 0.082032 0.080566 l 0.108399,0.02783 0.1083983,0.02637 h 0.166992 0.1684575 l 0.086425,0.02197 0.08789,0.02198 0.098145,-0.01758 0.09668,-0.01611 0.019042,0.01172 0.01758,0.01172 0.2226563,0.0088 0.224121,0.0073 0.073245,-0.0029 0.074708,-0.0044 0.1684567,-0.02198 0.1684575,-0.02197 0.061523,-0.01904 0.06006,-0.01904 0.09375,-0.01465 0.092285,-0.01465 0.061523,-0.02783 0.062985,-0.02783 0.080566,-0.01172 0.082031,-0.01025 0.04687,-0.01025 0.04687,-0.01025 0.0088,-0.01172 0.0073,-0.01172 0.269531,-0.06006 0.268067,-0.06006 0.276855,-0.07471 0.276856,-0.07617 0.27539,-0.08789 0.276856,-0.08789 0.237304,-0.08496 0.23584,-0.08643 0.250489,-0.09961 0.249023,-0.101074 0.270996,-0.118652 0.269531,-0.120117 0.398438,-0.197754 0.398437,-0.199219 0.202148,-0.111328 0.202149,-0.109864 0.247559,-0.1333 0.247558,-0.134766 0.197754,-0.115723 0.197754,-0.115722 0.209473,-0.128907 0.209472,-0.128905 0.243164,-0.162598 0.243165,-0.161133 0.134765,-0.09522 0.134766,-0.09521 0.208008,-0.153809 0.206542,-0.153808 0.169923,-0.134766 0.168456,-0.134766 0.149415,-0.130371 0.150879,-0.128906 0.134765,-0.123046 0.134766,-0.121583 0.162598,-0.155273 0.161132,-0.153809 0.175781,-0.183105 0.175781,-0.183105 0.133302,-0.155274 0.1333,-0.155274 0.137696,-0.18164 0.137695,-0.183106 0.09521,-0.140625 0.09375,-0.142089 0.09082,-0.152344 0.08936,-0.1523441 0.0791,-0.1582035 0.0791,-0.1582027 0.04394,-0.104004 0.04541,-0.104004 0.0205,-0.00442 0.01904,-0.00442 0.01758,-0.06006 0.01611,-0.061523 0.03077,-0.1010738 0.02929,-0.1010745 0.01025,-0.228516 0.01025,-0.22998 -0.02344,-0.080566 -0.02344,-0.082031 -0.01465,-0.071775 -0.01465,-0.070312 -0.0015,-0.036623 V 8.2440907 L 19.77281,8.1810982 19.742045,8.1166432 19.635112,7.987737 19.528178,7.8588307 h -0.03076 -0.03077 l -0.07177,-0.04248 -0.07177,-0.041017 -0.114258,-0.058598 -0.114258,-0.05859 -0.09521,-0.03516 -0.09375,-0.035152 L 18.729836,7.5409582 18.554054,7.495548 18.331398,7.4559975 18.108742,7.4149822 17.906594,7.379826 17.702981,7.3446697 17.562356,7.3109782 17.420265,7.2787515 17.29136,7.2377362 17.163918,7.196721 16.974953,7.102971 16.785988,7.009221 16.66735,6.9228516 16.548697,6.8378906 16.365592,6.6694336 16.182487,6.5024414 15.943717,6.2519531 15.704947,6.0014648 15.378287,5.6557617 15.050162,5.3100586 14.84362,5.1210937 14.638541,4.9321289 14.470084,4.7871094 14.301627,4.6420898 14.125846,4.5117187 13.950064,4.3798828 13.775749,4.265625 13.599967,4.1513672 l -0.134766,-0.076172 -0.13623,-0.074707 -0.181641,-0.080566 -0.181641,-0.080566 -0.17871,-0.061523 -0.178711,-0.061523 -0.19336,-0.04834 -0.191894,-0.046875 -0.168457,-0.027832 -0.169922,-0.026367 -0.161133,-0.013184 -0.162598,-0.014648 h -0.215332 -0.216796 l -0.155274,0.014648 -0.155273,0.013184 -0.215332,0.035156 -0.216797,0.033692 -0.106934,-0.00733 -0.108398,-0.00733 -0.0542,-0.016113 -0.05419,-0.017578 -0.09375,-0.09668 L 9.8734042,3.3955078 9.7650059,3.28125 9.6580724,3.1669922 l -0.06738,-0.032227 -0.06738,-0.033692 -0.2167972,-0.00879 z m 8.4682608,6.2358397 0.124512,0.013185 0.124512,0.013185 0.09229,0.032227 0.09228,0.032228 0.06299,0.036623 0.06152,0.036623 0.03955,0.061522 0.03808,0.06006 0.01611,0.076172 0.01611,0.076171 -0.0073,0.155274 -0.0058,0.155274 -0.04394,0.128906 -0.04248,0.127442 -0.07471,0.147949 -0.07471,0.146484 -0.09815,0.150879 -0.09961,0.149414 -0.146484,0.181641 -0.146485,0.181641 -0.263672,0.263671 -0.263672,0.263672 -0.202148,0.171387 -0.202148,0.172851 -0.215333,0.168457 -0.216796,0.169922 -0.199219,0.14209 -0.199219,0.143555 -0.225586,0.150879 -0.225586,0.150879 -0.237305,0.146484 -0.235839,0.147949 -0.373536,0.218262 -0.373535,0.218261 -0.361816,0.183106 -0.361816,0.181641 -0.224122,0.09814 -0.222656,0.09815 -0.253418,0.09961 -0.253418,0.09961 -0.279785,0.09521 -0.279785,0.09522 -0.295899,0.08496 -0.297363,0.08643 -0.202149,0.04981 -0.203613,0.04834 -0.256347,0.05273 -0.256348,0.05127 -0.188965,0.02929 -0.1889646,0.02783 -0.1816402,0.0205 -0.1831058,0.01904 -0.2490232,0.0059 -0.2504888,0.0059 -0.13623,-0.01172 -0.134766,-0.01172 -0.1171875,-0.02783 -0.1171875,-0.02783 -0.058597,-0.0293 -0.057127,-0.02783 -0.04248,-0.03369 -0.04248,-0.03223 -0.021975,-0.04541 -0.020505,-0.04541 v -0.07471 -0.07617 l 0.027833,-0.08496 0.027832,-0.0835 0.071775,-0.128906 0.073245,-0.128907 0.089355,-0.120117 0.090821,-0.121581 0.1289063,-0.153809 0.1289062,-0.153808 0.1904295,-0.190431 0.1904295,-0.190429 0.2270513,-0.199219 0.2270505,-0.197754 0.197754,-0.159667 0.1977533,-0.161133 0.162598,-0.121583 0.161133,-0.121582 0.188965,-0.134765 0.188964,-0.134766 0.243165,-0.162598 0.243163,-0.161133 0.202149,-0.128906 0.203613,-0.127441 0.216797,-0.130371 0.216797,-0.128907 0.342773,-0.190429 0.344239,-0.191894 0.479004,-0.23877 0.479003,-0.240234 0.215333,-0.09814 0.216796,-0.09961 0.276856,-0.121582 0.276855,-0.121583 0.23584,-0.093751 0.23584,-0.09375 0.222656,-0.080566 0.222657,-0.080566 0.05127,-0.019042 0.05127,-0.020505 0.287109,-0.086426 0.285644,-0.086426 0.210937,-0.048338 0.209473,-0.048337 0.194825,-0.032228 0.194824,-0.03369 0.158203,-0.013185 z m -4.863281,2.145996 -0.161132,0.08936 -0.162598,0.08936 -0.276856,0.165527 -0.27832,0.166992 -0.227051,0.146484 -0.22705,0.146485 -0.251954,0.17871 -0.251952,0.177246 -0.205079,0.159669 -0.205078,0.159667 -0.213867,0.183106 -0.212403,0.183106 -0.1391598,0.131835 -0.1376948,0.130371 v 0.03808 0.03809 l 0.070312,0.06446 0.070312,0.06445 0.1083983,0.07031 0.1083983,0.07031 0.08057,0.04102 0.08203,0.04102 0.08643,0.03369 0.08496,0.03515 0.09814,0.02783 0.09814,0.02783 0.120118,0.01904 0.118652,0.01904 0.243164,-0.0044 0.243164,-0.0059 0.101074,-0.02197 0.101074,-0.02198 0.09961,-0.03369 0.101074,-0.03369 0.111328,-0.05273 0.111329,-0.05273 0.123046,-0.0835 0.123047,-0.08203 0.121582,-0.115723 0.123047,-0.115723 0.08496,-0.114257 0.08496,-0.112793 0.06885,-0.131836 0.06885,-0.130371 0.04687,-0.140625 0.04687,-0.142091 0.02344,-0.127441 0.02198,-0.128906 v -0.209472 -0.209473 l -0.02344,-0.134766 -0.02344,-0.134765 -0.04541,-0.134766 -0.04541,-0.134766 -0.01611,-0.04394 -0.01758,-0.04394 h -0.02637 z" />
</svg>
