<?xml version="1.0" encoding="UTF-8" standalone="no"?><!-- Generator: Gravit.io --><svg xmlns="http://www.w3.org/2000/svg" xmlns:xlink="http://www.w3.org/1999/xlink" style="isolation:isolate" viewBox="0 0 24 24" width="24pt" height="24pt"><defs><clipPath id="_clipPath_BymcSih0MtB81ayoUjPsRGvu4bc7qF1O"><rect width="24" height="24"/></clipPath></defs><g clip-path="url(#_clipPath_BymcSih0MtB81ayoUjPsRGvu4bc7qF1O)"><clipPath id="_clipPath_J7gxgU0vB3HIrX5UcrEpqBLhkZUDw51m"><rect x="0" y="0" width="24" height="24" transform="matrix(1,0,0,1,0,0)" fill="rgb(255,255,255)"/></clipPath><g clip-path="url(#_clipPath_J7gxgU0vB3HIrX5UcrEpqBLhkZUDw51m)"><g><path d=" M 18.593 16.825 C 20.37 15.006 21.563 12.624 21.563 9.901 C 21.563 4.623 17.278 0.338 12 0.338 C 6.722 0.338 2.438 4.623 2.438 9.901 C 2.438 12.657 3.526 14.954 5.474 16.888 L 5.473 16.888 L 11.611 23.662 L 18.605 16.825 L 18.593 16.825 Z " fill="rgb(0,84,164)"/></g></g><clipPath id="_clipPath_FzXFu76aJUkizfsnCtS1eoIrR2IeXatK"><rect x="2.769" y="0" width="18.462" height="24" transform="matrix(1,0,0,1,0,0)" fill="rgb(255,255,255)"/></clipPath><g clip-path="url(#_clipPath_FzXFu76aJUkizfsnCtS1eoIrR2IeXatK)"><g><circle vector-effect="non-scaling-stroke" cx="11.999999999999996" cy="9.883867467504874" r="6.667856670426157" fill="rgb(255,255,255)"/><g><path d=" M 8.588 10.709 L 8.588 10.709 L 8.588 10.709 Q 8.7 10.709 8.75 10.767 L 8.75 10.767 L 8.75 10.767 Q 8.799 10.825 8.799 10.908 L 8.799 10.908 L 8.799 10.908 Q 8.799 11.017 8.709 11.127 L 8.709 11.127 L 8.709 11.127 Q 8.618 11.237 8.493 11.313 L 8.493 11.313 L 8.493 11.313 Q 8.368 11.389 8.242 11.438 L 8.242 11.438 L 8.242 11.438 Q 8.116 11.486 8.039 11.486 L 8.039 11.486 L 8.039 11.486 Q 8.033 11.505 8.033 11.588 L 8.033 11.588 L 8.033 11.588 Q 8.033 11.745 8.087 11.84 L 8.087 11.84 L 8.087 11.84 Q 8.14 11.935 8.254 11.935 L 8.254 11.935 L 8.254 11.935 Q 8.28 11.935 8.309 11.925 L 8.309 11.925 L 8.309 11.925 Q 8.339 11.915 8.366 11.901 L 8.366 11.901 L 8.366 11.901 Q 8.392 11.887 8.42 11.866 L 8.42 11.866 L 8.42 11.866 Q 8.448 11.846 8.47 11.827 L 8.47 11.827 L 8.47 11.827 Q 8.491 11.808 8.514 11.787 L 8.514 11.787 L 8.514 11.787 Q 8.536 11.766 8.549 11.752 L 8.549 11.752 L 8.549 11.752 Q 8.562 11.739 8.573 11.726 L 8.573 11.726 L 8.585 11.713 L 8.585 11.713 Q 8.593 11.713 8.608 11.738 L 8.608 11.738 L 8.608 11.738 Q 8.623 11.763 8.623 11.778 L 8.623 11.778 L 8.623 11.778 Q 8.604 11.81 8.556 11.863 L 8.556 11.863 L 8.556 11.863 Q 8.508 11.915 8.44 11.976 L 8.44 11.976 L 8.44 11.976 Q 8.373 12.037 8.289 12.081 L 8.289 12.081 L 8.289 12.081 Q 8.206 12.124 8.135 12.124 L 8.135 12.124 L 8.135 12.124 Q 7.965 12.124 7.874 12.004 L 7.874 12.004 L 7.874 12.004 Q 7.783 11.883 7.783 11.659 L 7.783 11.659 L 7.783 11.659 Q 7.783 11.487 7.857 11.312 L 7.857 11.312 L 7.857 11.312 Q 7.932 11.136 8.046 11.005 L 8.046 11.005 L 8.046 11.005 Q 8.161 10.875 8.306 10.792 L 8.306 10.792 L 8.306 10.792 Q 8.451 10.709 8.588 10.709 Z  M 8.046 11.405 L 8.046 11.405 L 8.046 11.405 Q 8.095 11.405 8.18 11.369 L 8.18 11.369 L 8.18 11.369 Q 8.264 11.333 8.35 11.277 L 8.35 11.277 L 8.35 11.277 Q 8.437 11.221 8.5 11.137 L 8.5 11.137 L 8.5 11.137 Q 8.562 11.053 8.562 10.969 L 8.562 10.969 L 8.562 10.969 Q 8.562 10.908 8.52 10.875 L 8.52 10.875 L 8.52 10.875 Q 8.479 10.841 8.427 10.841 L 8.427 10.841 L 8.427 10.841 Q 8.349 10.841 8.277 10.905 L 8.277 10.905 L 8.277 10.905 Q 8.206 10.969 8.159 11.062 L 8.159 11.062 L 8.159 11.062 Q 8.111 11.155 8.082 11.247 L 8.082 11.247 L 8.082 11.247 Q 8.052 11.338 8.046 11.405 Z  M 9.718 11.322 L 9.819 11.819 L 9.819 11.819 Q 9.845 11.938 9.932 11.938 L 9.932 11.938 L 9.932 11.938 Q 9.968 11.938 10.05 11.871 L 10.05 11.871 L 10.05 11.871 Q 10.132 11.805 10.166 11.761 L 10.166 11.761 L 10.166 11.761 Q 10.172 11.761 10.185 11.786 L 10.185 11.786 L 10.185 11.786 Q 10.198 11.81 10.198 11.822 L 10.198 11.822 L 10.198 11.822 Q 10.164 11.882 10.031 12 L 10.031 12 L 10.031 12 Q 9.898 12.117 9.807 12.117 L 9.807 12.117 L 9.807 12.117 Q 9.731 12.117 9.671 12.043 L 9.671 12.043 L 9.671 12.043 Q 9.611 11.968 9.585 11.842 L 9.585 11.842 L 9.529 11.566 L 9.529 11.566 Q 9.505 11.614 9.466 11.693 L 9.466 11.693 L 9.466 11.693 Q 9.426 11.773 9.406 11.814 L 9.406 11.814 L 9.406 11.814 Q 9.385 11.854 9.353 11.914 L 9.353 11.914 L 9.353 11.914 Q 9.321 11.973 9.297 12.003 L 9.297 12.003 L 9.297 12.003 Q 9.272 12.032 9.241 12.064 L 9.241 12.064 L 9.241 12.064 Q 9.21 12.095 9.177 12.108 L 9.177 12.108 L 9.177 12.108 Q 9.144 12.121 9.107 12.121 L 9.107 12.121 L 9.107 12.121 Q 9.017 12.121 8.957 12.082 L 8.957 12.082 L 8.957 12.082 Q 8.921 12.036 8.921 11.973 L 8.921 11.973 L 8.921 11.973 Q 8.921 11.914 8.953 11.873 L 8.953 11.873 L 8.953 11.873 Q 8.985 11.832 9.04 11.832 L 9.04 11.832 L 9.04 11.832 Q 9.072 11.832 9.113 11.877 L 9.113 11.877 L 9.113 11.877 Q 9.154 11.922 9.187 11.925 L 9.187 11.925 L 9.187 11.925 Q 9.239 11.928 9.284 11.851 L 9.284 11.851 L 9.284 11.851 Q 9.398 11.66 9.505 11.449 L 9.505 11.449 L 9.415 11.008 L 9.415 11.008 Q 9.39 10.886 9.313 10.886 L 9.313 10.886 L 9.313 10.886 Q 9.269 10.886 9.187 10.952 L 9.187 10.952 L 9.187 10.952 Q 9.104 11.019 9.069 11.066 L 9.069 11.066 L 9.069 11.066 Q 9.062 11.066 9.05 11.041 L 9.05 11.041 L 9.05 11.041 Q 9.037 11.017 9.037 11.005 L 9.037 11.005 L 9.037 11.005 Q 9.07 10.945 9.204 10.827 L 9.204 10.827 L 9.204 10.827 Q 9.337 10.709 9.428 10.709 L 9.428 10.709 L 9.428 10.709 Q 9.503 10.709 9.564 10.783 L 9.564 10.783 L 9.564 10.783 Q 9.624 10.857 9.649 10.985 L 9.649 10.985 L 9.694 11.203 L 9.694 11.203 Q 9.707 11.178 9.731 11.128 L 9.731 11.128 L 9.731 11.128 Q 9.778 11.033 9.801 10.988 L 9.801 10.988 L 9.801 10.988 Q 9.824 10.942 9.863 10.877 L 9.863 10.877 L 9.863 10.877 Q 9.903 10.812 9.932 10.783 L 9.932 10.783 L 9.932 10.783 Q 9.96 10.754 10.001 10.732 L 10.001 10.732 L 10.001 10.732 Q 10.042 10.709 10.086 10.709 L 10.086 10.709 L 10.086 10.709 Q 10.175 10.709 10.236 10.748 L 10.236 10.748 L 10.236 10.748 Q 10.272 10.794 10.272 10.857 L 10.272 10.857 L 10.272 10.857 Q 10.272 10.916 10.239 10.957 L 10.239 10.957 L 10.239 10.957 Q 10.207 10.998 10.153 10.998 L 10.153 10.998 L 10.153 10.998 Q 10.121 10.998 10.08 10.953 L 10.08 10.953 L 10.08 10.953 Q 10.039 10.908 10.005 10.905 L 10.005 10.905 L 10.005 10.905 Q 9.954 10.902 9.909 10.979 L 9.909 10.979 L 9.909 10.979 Q 9.792 11.179 9.718 11.322 L 9.718 11.322 Z  M 11.319 10.886 L 11.319 10.886 L 11.319 10.886 Q 11.242 10.886 11.125 10.967 L 11.125 10.967 L 11.125 10.967 Q 11.008 11.048 10.94 11.142 L 10.94 11.142 L 10.834 11.685 L 10.834 11.685 Q 10.809 11.819 10.858 11.914 L 10.858 11.914 L 10.858 11.914 Q 10.908 12.008 10.985 12.008 L 10.985 12.008 L 10.985 12.008 Q 11.115 12.008 11.235 11.869 L 11.235 11.869 L 11.235 11.869 Q 11.354 11.729 11.421 11.527 L 11.421 11.527 L 11.421 11.527 Q 11.489 11.325 11.489 11.133 L 11.489 11.133 L 11.489 11.133 Q 11.489 10.886 11.319 10.886 Z  M 11.447 10.709 L 11.447 10.709 L 11.447 10.709 Q 11.726 10.709 11.726 11.098 L 11.726 11.098 L 11.726 11.098 Q 11.726 11.34 11.607 11.579 L 11.607 11.579 L 11.607 11.579 Q 11.487 11.819 11.298 11.97 L 11.298 11.97 L 11.298 11.97 Q 11.109 12.121 10.918 12.121 L 10.918 12.121 L 10.918 12.121 Q 10.796 12.121 10.77 12.079 L 10.77 12.079 L 10.65 12.833 Q 10.602 12.816 10.363 12.845 L 10.69 11.303 L 10.536 11.457 L 10.536 11.457 Q 10.517 11.433 10.517 11.393 L 10.517 11.393 L 10.517 11.393 Q 10.517 11.38 10.527 11.37 L 10.527 11.37 L 10.716 11.168 L 10.799 10.716 L 10.799 10.716 Q 10.846 10.703 10.921 10.703 L 10.921 10.703 L 10.921 10.703 Q 10.979 10.703 11.024 10.726 L 11.024 10.726 L 11.024 10.726 Q 10.984 10.915 10.972 10.995 L 10.972 10.995 L 10.972 10.995 Q 11.28 10.709 11.447 10.709 Z  M 12.841 10.709 L 12.841 10.709 L 12.841 10.709 Q 12.937 10.709 12.998 10.777 L 12.998 10.777 L 12.998 10.777 Q 13.027 10.812 13.027 10.867 L 13.027 10.867 L 13.027 10.867 Q 13.027 10.931 12.996 10.969 L 12.996 10.969 L 12.996 10.969 Q 12.966 11.008 12.911 11.008 L 12.911 11.008 L 12.911 11.008 Q 12.858 11.008 12.815 10.96 L 12.815 10.96 L 12.815 10.96 Q 12.794 10.934 12.751 10.934 L 12.751 10.934 L 12.751 10.934 Q 12.695 10.934 12.6 11.057 L 12.6 11.057 L 12.6 11.057 Q 12.505 11.181 12.42 11.367 L 12.42 11.367 L 12.42 11.367 Q 12.334 11.553 12.305 11.713 L 12.305 11.713 L 12.234 12.105 L 12.234 12.105 Q 12.181 12.114 12.125 12.114 L 12.125 12.114 L 12.125 12.114 Q 12.064 12.114 12.007 12.105 L 12.007 12.105 L 12.199 11.069 L 12.199 11.069 Q 12.212 10.992 12.212 10.966 L 12.212 10.966 L 12.212 10.966 Q 12.212 10.886 12.18 10.886 L 12.18 10.886 L 12.18 10.886 Q 12.164 10.886 12.141 10.9 L 12.141 10.9 L 12.141 10.9 Q 12.117 10.913 12.094 10.932 L 12.094 10.932 L 12.094 10.932 Q 12.071 10.952 12.046 10.976 L 12.046 10.976 L 12.046 10.976 Q 12.021 11 12.004 11.019 L 12.004 11.019 L 12.004 11.019 Q 11.987 11.04 11.971 11.056 L 11.971 11.056 L 11.955 11.072 L 11.955 11.072 Q 11.947 11.072 11.935 11.049 L 11.935 11.049 L 11.935 11.049 Q 11.923 11.025 11.923 11.011 L 11.923 11.011 L 11.923 11.011 Q 11.965 10.94 12.097 10.825 L 12.097 10.825 L 12.097 10.825 Q 12.23 10.709 12.327 10.709 L 12.327 10.709 L 12.327 10.709 Q 12.379 10.709 12.416 10.758 L 12.416 10.758 L 12.416 10.758 Q 12.453 10.806 12.453 10.876 L 12.453 10.876 L 12.453 10.876 Q 12.453 10.912 12.427 11.046 L 12.427 11.046 L 12.427 11.046 Q 12.411 11.133 12.372 11.316 L 12.372 11.316 L 12.372 11.316 Q 12.422 11.195 12.499 11.062 L 12.499 11.062 L 12.499 11.062 Q 12.576 10.929 12.673 10.819 L 12.673 10.819 L 12.673 10.819 Q 12.77 10.709 12.841 10.709 Z  M 13.864 10.709 L 13.864 10.709 L 13.864 10.709 Q 13.976 10.709 14.026 10.767 L 14.026 10.767 L 14.026 10.767 Q 14.075 10.825 14.075 10.908 L 14.075 10.908 L 14.075 10.908 Q 14.075 11.017 13.985 11.127 L 13.985 11.127 L 13.985 11.127 Q 13.894 11.237 13.769 11.313 L 13.769 11.313 L 13.769 11.313 Q 13.644 11.389 13.518 11.438 L 13.518 11.438 L 13.518 11.438 Q 13.392 11.486 13.315 11.486 L 13.315 11.486 L 13.315 11.486 Q 13.309 11.505 13.309 11.588 L 13.309 11.588 L 13.309 11.588 Q 13.309 11.745 13.363 11.84 L 13.363 11.84 L 13.363 11.84 Q 13.416 11.935 13.53 11.935 L 13.53 11.935 L 13.53 11.935 Q 13.556 11.935 13.586 11.925 L 13.586 11.925 L 13.586 11.925 Q 13.615 11.915 13.642 11.901 L 13.642 11.901 L 13.642 11.901 Q 13.668 11.887 13.696 11.866 L 13.696 11.866 L 13.696 11.866 Q 13.724 11.846 13.746 11.827 L 13.746 11.827 L 13.746 11.827 Q 13.768 11.808 13.79 11.787 L 13.79 11.787 L 13.79 11.787 Q 13.812 11.766 13.825 11.752 L 13.825 11.752 L 13.825 11.752 Q 13.838 11.739 13.849 11.726 L 13.849 11.726 L 13.861 11.713 L 13.861 11.713 Q 13.869 11.713 13.884 11.738 L 13.884 11.738 L 13.884 11.738 Q 13.899 11.763 13.899 11.778 L 13.899 11.778 L 13.899 11.778 Q 13.88 11.81 13.832 11.863 L 13.832 11.863 L 13.832 11.863 Q 13.784 11.915 13.716 11.976 L 13.716 11.976 L 13.716 11.976 Q 13.649 12.037 13.565 12.081 L 13.565 12.081 L 13.565 12.081 Q 13.482 12.124 13.412 12.124 L 13.412 12.124 L 13.412 12.124 Q 13.242 12.124 13.15 12.004 L 13.15 12.004 L 13.15 12.004 Q 13.059 11.883 13.059 11.659 L 13.059 11.659 L 13.059 11.659 Q 13.059 11.487 13.133 11.312 L 13.133 11.312 L 13.133 11.312 Q 13.208 11.136 13.323 11.005 L 13.323 11.005 L 13.323 11.005 Q 13.437 10.875 13.582 10.792 L 13.582 10.792 L 13.582 10.792 Q 13.727 10.709 13.864 10.709 Z  M 13.322 11.405 L 13.322 11.405 L 13.322 11.405 Q 13.371 11.405 13.456 11.369 L 13.456 11.369 L 13.456 11.369 Q 13.54 11.333 13.626 11.277 L 13.626 11.277 L 13.626 11.277 Q 13.713 11.221 13.776 11.137 L 13.776 11.137 L 13.776 11.137 Q 13.838 11.053 13.838 10.969 L 13.838 10.969 L 13.838 10.969 Q 13.838 10.908 13.796 10.875 L 13.796 10.875 L 13.796 10.875 Q 13.755 10.841 13.703 10.841 L 13.703 10.841 L 13.703 10.841 Q 13.625 10.841 13.553 10.905 L 13.553 10.905 L 13.553 10.905 Q 13.482 10.969 13.435 11.062 L 13.435 11.062 L 13.435 11.062 Q 13.387 11.155 13.358 11.247 L 13.358 11.247 L 13.358 11.247 Q 13.328 11.338 13.322 11.405 Z  M 14.787 10.7 L 14.787 10.7 L 14.787 10.7 Q 14.962 10.7 15.063 10.786 L 15.063 10.786 L 15.063 10.786 Q 15.074 10.803 15.085 10.837 L 15.085 10.837 L 15.085 10.837 Q 15.095 10.871 15.095 10.889 L 15.095 10.889 L 15.095 10.889 Q 15.095 10.945 15.065 10.983 L 15.065 10.983 L 15.065 10.983 Q 15.034 11.021 14.986 11.021 L 14.986 11.021 L 14.986 11.021 Q 14.917 11.021 14.836 10.908 L 14.836 10.908 L 14.836 10.908 Q 14.834 10.905 14.824 10.89 L 14.824 10.89 L 14.824 10.89 Q 14.813 10.875 14.81 10.871 L 14.81 10.871 L 14.81 10.871 Q 14.807 10.867 14.797 10.855 L 14.797 10.855 L 14.797 10.855 Q 14.787 10.843 14.782 10.839 L 14.782 10.839 L 14.782 10.839 Q 14.776 10.835 14.764 10.827 L 14.764 10.827 L 14.764 10.827 Q 14.752 10.82 14.742 10.817 L 14.742 10.817 L 14.742 10.817 Q 14.731 10.814 14.717 10.811 L 14.717 10.811 L 14.717 10.811 Q 14.702 10.809 14.685 10.809 L 14.685 10.809 L 14.685 10.809 Q 14.609 10.809 14.569 10.867 L 14.569 10.867 L 14.569 10.867 Q 14.528 10.926 14.528 10.989 L 14.528 10.989 L 14.528 10.989 Q 14.528 11.025 14.537 11.059 L 14.537 11.059 L 14.537 11.059 Q 14.547 11.093 14.576 11.134 L 14.576 11.134 L 14.576 11.134 Q 14.605 11.175 14.619 11.194 L 14.619 11.194 L 14.619 11.194 Q 14.634 11.213 14.682 11.265 L 14.682 11.265 L 14.682 11.265 Q 14.73 11.317 14.739 11.328 L 14.739 11.328 L 14.739 11.328 Q 14.832 11.438 14.884 11.53 L 14.884 11.53 L 14.884 11.53 Q 14.935 11.622 14.935 11.729 L 14.935 11.729 L 14.935 11.729 Q 14.935 11.906 14.804 12.015 L 14.804 12.015 L 14.804 12.015 Q 14.674 12.124 14.47 12.124 L 14.47 12.124 L 14.47 12.124 Q 14.302 12.124 14.188 12.028 L 14.188 12.028 L 14.188 12.028 Q 14.156 11.975 14.156 11.931 L 14.156 11.931 L 14.156 11.931 Q 14.156 11.864 14.19 11.824 L 14.19 11.824 L 14.19 11.824 Q 14.225 11.784 14.274 11.784 L 14.274 11.784 L 14.274 11.784 Q 14.297 11.784 14.317 11.798 L 14.317 11.798 L 14.317 11.798 Q 14.337 11.813 14.348 11.83 L 14.348 11.83 L 14.348 11.83 Q 14.359 11.846 14.38 11.879 L 14.38 11.879 L 14.38 11.879 Q 14.401 11.912 14.412 11.928 L 14.412 11.928 L 14.412 11.928 Q 14.481 12.021 14.582 12.021 L 14.582 12.021 L 14.582 12.021 Q 14.667 12.021 14.703 11.963 L 14.703 11.963 L 14.703 11.963 Q 14.739 11.904 14.739 11.835 L 14.739 11.835 L 14.739 11.835 Q 14.739 11.819 14.736 11.802 L 14.736 11.802 L 14.736 11.802 Q 14.733 11.786 14.731 11.772 L 14.731 11.772 L 14.731 11.772 Q 14.728 11.758 14.719 11.74 L 14.719 11.74 L 14.719 11.74 Q 14.71 11.721 14.706 11.711 L 14.706 11.711 L 14.706 11.711 Q 14.701 11.701 14.687 11.681 L 14.687 11.681 L 14.687 11.681 Q 14.674 11.662 14.668 11.654 L 14.668 11.654 L 14.668 11.654 Q 14.662 11.646 14.645 11.624 L 14.645 11.624 L 14.645 11.624 Q 14.627 11.603 14.622 11.597 L 14.622 11.597 L 14.622 11.597 Q 14.617 11.591 14.597 11.568 L 14.597 11.568 L 14.597 11.568 Q 14.576 11.545 14.573 11.54 L 14.573 11.54 L 14.573 11.54 Q 14.513 11.474 14.486 11.442 L 14.486 11.442 L 14.486 11.442 Q 14.459 11.409 14.418 11.348 L 14.418 11.348 L 14.418 11.348 Q 14.377 11.287 14.359 11.228 L 14.359 11.228 L 14.359 11.228 Q 14.342 11.17 14.342 11.104 L 14.342 11.104 L 14.342 11.104 Q 14.342 10.958 14.469 10.829 L 14.469 10.829 L 14.469 10.829 Q 14.597 10.7 14.787 10.7 Z  M 15.82 10.7 L 15.82 10.7 L 15.82 10.7 Q 15.995 10.7 16.096 10.786 L 16.096 10.786 L 16.096 10.786 Q 16.107 10.803 16.118 10.837 L 16.118 10.837 L 16.118 10.837 Q 16.128 10.871 16.128 10.889 L 16.128 10.889 L 16.128 10.889 Q 16.128 10.945 16.098 10.983 L 16.098 10.983 L 16.098 10.983 Q 16.067 11.021 16.019 11.021 L 16.019 11.021 L 16.019 11.021 Q 15.95 11.021 15.868 10.908 L 15.868 10.908 L 15.868 10.908 Q 15.867 10.905 15.856 10.89 L 15.856 10.89 L 15.856 10.89 Q 15.846 10.875 15.843 10.871 L 15.843 10.871 L 15.843 10.871 Q 15.839 10.867 15.83 10.855 L 15.83 10.855 L 15.83 10.855 Q 15.82 10.843 15.815 10.839 L 15.815 10.839 L 15.815 10.839 Q 15.809 10.835 15.797 10.827 L 15.797 10.827 L 15.797 10.827 Q 15.785 10.82 15.774 10.817 L 15.774 10.817 L 15.774 10.817 Q 15.764 10.814 15.75 10.811 L 15.75 10.811 L 15.75 10.811 Q 15.735 10.809 15.718 10.809 L 15.718 10.809 L 15.718 10.809 Q 15.642 10.809 15.601 10.867 L 15.601 10.867 L 15.601 10.867 Q 15.56 10.926 15.56 10.989 L 15.56 10.989 L 15.56 10.989 Q 15.56 11.025 15.57 11.059 L 15.57 11.059 L 15.57 11.059 Q 15.58 11.093 15.609 11.134 L 15.609 11.134 L 15.609 11.134 Q 15.637 11.175 15.652 11.194 L 15.652 11.194 L 15.652 11.194 Q 15.666 11.213 15.714 11.265 L 15.714 11.265 L 15.714 11.265 Q 15.762 11.317 15.772 11.328 L 15.772 11.328 L 15.772 11.328 Q 15.865 11.438 15.916 11.53 L 15.916 11.53 L 15.916 11.53 Q 15.968 11.622 15.968 11.729 L 15.968 11.729 L 15.968 11.729 Q 15.968 11.906 15.837 12.015 L 15.837 12.015 L 15.837 12.015 Q 15.706 12.124 15.503 12.124 L 15.503 12.124 L 15.503 12.124 Q 15.334 12.124 15.22 12.028 L 15.22 12.028 L 15.22 12.028 Q 15.188 11.975 15.188 11.931 L 15.188 11.931 L 15.188 11.931 Q 15.188 11.864 15.223 11.824 L 15.223 11.824 L 15.223 11.824 Q 15.257 11.784 15.307 11.784 L 15.307 11.784 L 15.307 11.784 Q 15.329 11.784 15.35 11.798 L 15.35 11.798 L 15.35 11.798 Q 15.37 11.813 15.381 11.83 L 15.381 11.83 L 15.381 11.83 Q 15.392 11.846 15.413 11.879 L 15.413 11.879 L 15.413 11.879 Q 15.434 11.912 15.445 11.928 L 15.445 11.928 L 15.445 11.928 Q 15.514 12.021 15.615 12.021 L 15.615 12.021 L 15.615 12.021 Q 15.7 12.021 15.736 11.963 L 15.736 11.963 L 15.736 11.963 Q 15.772 11.904 15.772 11.835 L 15.772 11.835 L 15.772 11.835 Q 15.772 11.819 15.769 11.802 L 15.769 11.802 L 15.769 11.802 Q 15.766 11.786 15.763 11.772 L 15.763 11.772 L 15.763 11.772 Q 15.761 11.758 15.752 11.74 L 15.752 11.74 L 15.752 11.74 Q 15.743 11.721 15.738 11.711 L 15.738 11.711 L 15.738 11.711 Q 15.734 11.701 15.72 11.681 L 15.72 11.681 L 15.72 11.681 Q 15.706 11.662 15.701 11.654 L 15.701 11.654 L 15.701 11.654 Q 15.695 11.646 15.677 11.624 L 15.677 11.624 L 15.677 11.624 Q 15.66 11.603 15.655 11.597 L 15.655 11.597 L 15.655 11.597 Q 15.65 11.591 15.629 11.568 L 15.629 11.568 L 15.629 11.568 Q 15.609 11.545 15.605 11.54 L 15.605 11.54 L 15.605 11.54 Q 15.546 11.474 15.519 11.442 L 15.519 11.442 L 15.519 11.442 Q 15.491 11.409 15.451 11.348 L 15.451 11.348 L 15.451 11.348 Q 15.41 11.287 15.392 11.228 L 15.392 11.228 L 15.392 11.228 Q 15.374 11.17 15.374 11.104 L 15.374 11.104 L 15.374 11.104 Q 15.374 10.958 15.502 10.829 L 15.502 10.829 L 15.502 10.829 Q 15.629 10.7 15.82 10.7 Z " fill="rgb(0,84,164)"/><path d=" M 7.723 9.514 C 7.521 9.514 7.358 9.63 7.279 9.712 C 7.279 9.712 7.087 9.902 6.957 9.968 C 6.951 9.971 6.951 9.978 6.959 9.978 L 8.135 9.978 C 8.367 9.978 8.476 9.899 8.614 9.775 C 8.614 9.775 8.815 9.589 8.953 9.528 C 8.967 9.523 8.963 9.514 8.953 9.514 L 7.723 9.514 Z  M 9.743 9.514 C 9.541 9.514 9.378 9.63 9.299 9.712 C 9.299 9.712 9.107 9.902 8.977 9.968 C 8.971 9.971 8.971 9.978 8.979 9.978 L 10.157 9.978 C 10.389 9.978 10.499 9.899 10.637 9.775 C 10.637 9.775 10.835 9.589 10.973 9.528 C 10.987 9.523 10.986 9.514 10.975 9.514 L 9.743 9.514 L 9.743 9.514 Z  M 11.765 9.514 C 11.563 9.514 11.4 9.63 11.321 9.712 C 11.321 9.712 11.129 9.902 10.999 9.968 C 10.993 9.971 10.993 9.978 11.001 9.978 L 12.179 9.978 C 12.412 9.978 12.518 9.899 12.656 9.775 C 12.656 9.775 12.857 9.589 12.995 9.528 C 13.009 9.523 13.008 9.514 12.997 9.514 L 11.765 9.514 Z  M 13.785 9.514 C 13.583 9.514 13.422 9.63 13.343 9.712 C 13.343 9.712 13.149 9.902 13.019 9.968 C 13.013 9.971 13.013 9.978 13.021 9.978 L 14.199 9.978 C 14.431 9.978 14.541 9.899 14.679 9.775 C 14.679 9.775 14.88 9.589 15.017 9.528 C 15.031 9.523 15.028 9.514 15.017 9.514 L 13.785 9.514 Z  M 15.807 9.514 C 15.605 9.514 15.442 9.63 15.363 9.712 C 15.363 9.712 15.171 9.902 15.041 9.968 C 15.035 9.971 15.035 9.978 15.043 9.978 L 16.221 9.978 C 16.453 9.978 16.563 9.899 16.701 9.775 C 16.701 9.775 16.899 9.589 17.037 9.528 C 17.051 9.523 17.05 9.514 17.039 9.514 L 15.807 9.514 L 15.807 9.514 Z " fill="rgb(0,84,164)" vector-effect="non-scaling-stroke" stroke-width="0.004" stroke="rgb(255,255,255)" stroke-opacity="100" stroke-linejoin="miter" stroke-linecap="butt" stroke-miterlimit="11.47399998"/><path d=" M 11.838 6.959 C 11.408 6.959 10.989 7.087 10.989 7.514 C 10.989 8.254 12.28 7.863 12.28 8.316 C 12.28 8.464 12.051 8.523 11.866 8.523 C 11.534 8.523 11.305 8.474 11.015 8.3 L 11.015 8.671 C 11.232 8.742 11.526 8.777 11.845 8.777 C 12.291 8.777 12.708 8.662 12.708 8.224 C 12.708 7.452 11.417 7.799 11.417 7.42 C 11.417 7.268 11.624 7.216 11.805 7.216 C 12.11 7.216 12.438 7.305 12.619 7.472 L 12.619 7.077 C 12.385 7.003 12.075 6.959 11.838 6.959 L 11.838 6.959 Z  M 14.119 6.964 C 13.344 6.964 12.83 7.337 12.83 7.905 C 12.83 8.426 13.302 8.775 14.006 8.775 C 14.234 8.775 14.438 8.745 14.676 8.687 L 14.676 8.248 C 14.508 8.426 14.308 8.497 14.093 8.497 C 13.677 8.497 13.392 8.238 13.392 7.864 C 13.392 7.496 13.687 7.227 14.1 7.227 C 14.325 7.227 14.505 7.309 14.65 7.451 L 14.65 7.011 C 14.499 6.98 14.31 6.964 14.119 6.964 L 14.119 6.964 Z  M 15.927 6.964 C 15.259 6.964 14.787 7.349 14.787 7.89 C 14.787 8.422 15.211 8.775 15.843 8.775 C 16.514 8.775 16.976 8.4 16.976 7.855 C 16.976 7.321 16.556 6.964 15.927 6.964 L 15.927 6.964 Z  M 7.023 7.018 L 7.023 7.434 C 7.168 7.322 7.471 7.279 7.803 7.277 L 7.803 8.412 C 7.803 8.578 7.789 8.625 7.719 8.711 L 8.375 8.711 C 8.301 8.625 8.29 8.578 8.29 8.412 L 8.29 7.267 C 8.577 7.27 8.921 7.322 9.066 7.434 L 9.066 7.018 L 7.023 7.018 L 7.023 7.018 Z  M 9.242 7.018 C 9.311 7.104 9.325 7.154 9.325 7.319 L 9.325 8.412 C 9.325 8.578 9.312 8.627 9.247 8.711 L 10.832 8.711 L 10.832 8.3 C 10.614 8.454 10.2 8.455 10.032 8.452 L 9.802 8.452 L 9.802 7.98 L 9.971 7.98 C 10.086 7.98 10.293 7.993 10.413 8.029 L 10.413 7.677 C 10.295 7.715 10.086 7.726 9.971 7.726 L 9.802 7.726 L 9.802 7.277 L 10.032 7.277 C 10.238 7.277 10.596 7.32 10.731 7.432 L 10.731 7.018 L 9.242 7.018 L 9.242 7.018 Z  M 15.883 7.22 C 16.233 7.22 16.463 7.51 16.463 7.867 C 16.463 8.224 16.233 8.514 15.883 8.514 C 15.527 8.514 15.299 8.224 15.299 7.867 C 15.299 7.51 15.527 7.22 15.883 7.22 Z " fill="rgb(240,46,37)" vector-effect="non-scaling-stroke" stroke-width="0.001" stroke="rgb(255,255,255)" stroke-opacity="100" stroke-linejoin="miter" stroke-linecap="butt" stroke-miterlimit="3.86400008"/></g></g></g></g></svg>