<?xml version="1.0" encoding="UTF-8" standalone="no"?><!-- Generator: Gravit.io --><svg xmlns="http://www.w3.org/2000/svg" xmlns:xlink="http://www.w3.org/1999/xlink" style="isolation:isolate" viewBox="0 0 24 24" width="24pt" height="24pt"><defs><clipPath id="_clipPath_5leqotIjHhG2vYAlL1QJKzaJbtjucfMW"><rect width="24" height="24"/></clipPath></defs><g clip-path="url(#_clipPath_5leqotIjHhG2vYAlL1QJKzaJbtjucfMW)"><clipPath id="_clipPath_UBECOeuo6Wae7eoCu7rGxdWMDJQJtJap"><rect x="0" y="0" width="24" height="24" transform="matrix(1,0,0,1,0,0)" fill="rgb(255,255,255)"/></clipPath><g clip-path="url(#_clipPath_UBECOeuo6Wae7eoCu7rGxdWMDJQJtJap)"><g><clipPath id="_clipPath_NYfJ5Q1yv5ACCk0uMipnEEmHPga3KV7v"><rect x="0" y="0" width="24" height="24" transform="matrix(1,0,0,1,0,0)" fill="rgb(255,255,255)"/></clipPath><g clip-path="url(#_clipPath_NYfJ5Q1yv5ACCk0uMipnEEmHPga3KV7v)"><g><g><clipPath id="_clipPath_0M8UKgseq7cmN6WDFS4eHqaBoEScgOis"><rect x="0" y="0" width="24" height="24" transform="matrix(1,0,0,1,0,0)" fill="rgb(255,255,255)"/></clipPath><g clip-path="url(#_clipPath_0M8UKgseq7cmN6WDFS4eHqaBoEScgOis)"><g><g><g><clipPath id="_clipPath_97VNVmHFbDvUUDdII65re3XWSGl6WGPJ"><rect x="0.23" y="0" width="24" height="24" transform="matrix(1,0,0,1,0,0)" fill="rgb(255,255,255)"/></clipPath><g clip-path="url(#_clipPath_97VNVmHFbDvUUDdII65re3XWSGl6WGPJ)"><g><g><g><g><clipPath id="_clipPath_630Ur2apyX6BVUhUapMCjKI43P1BmrJK"><rect x="0.23" y="0" width="24" height="24" transform="matrix(1,0,0,1,0,0)" fill="rgb(255,255,255)"/></clipPath><g clip-path="url(#_clipPath_630Ur2apyX6BVUhUapMCjKI43P1BmrJK)"><g><g><g><g><g><path d=" M 18.449 16.551 C 20.126 14.836 21.25 12.588 21.25 10.02 C 21.25 5.042 17.208 1 12.23 1 C 7.252 1 3.21 5.042 3.21 10.02 C 3.21 12.62 4.237 14.787 6.074 16.61 L 6.074 16.61 L 11.863 23 L 18.46 16.551 L 18.449 16.551 L 18.449 16.551 L 18.449 16.551 L 18.449 16.551 L 18.449 16.551 Z " fill="rgb(255,124,104)"/><rect x="0.23" y="0" width="24" height="24" transform="matrix(1,0,0,1,0,0)" fill="none"/></g></g></g></g></g></g><rect x="3.21" y="1" width="18.04" height="22" transform="matrix(1,0,0,1,0,0)" fill="none"/></g></g></g></g></g></g></g></g></g></g></g></g></g></g><g><path d=" M 7.664 6.421 C 7.605 6.384 7.567 6.345 7.567 6.286 C 7.567 6.123 7.715 5.865 7.991 5.58 C 8.815 4.724 10.723 3.628 12.7 3.628 C 13.698 3.628 14.512 3.883 15.053 4.358 C 15.52 4.769 15.786 5.373 15.779 6.007 C 15.779 7.012 15.324 7.699 15.046 8.116 C 14.905 8.326 14.82 8.446 14.819 8.592 C 14.824 8.706 14.873 8.812 14.955 8.887 C 15.065 8.993 15.183 9.091 15.307 9.179 C 15.883 9.625 16.827 10.346 16.827 11.833 C 16.827 13.525 15.964 14.552 15.235 15.121 C 14.287 15.837 13.144 16.222 11.972 16.22 C 9.017 16.22 7.498 14.524 7.498 12.862 C 7.5 12.354 7.681 11.864 8.006 11.484 C 8.357 11.069 8.866 10.835 9.398 10.844 C 9.779 10.838 10.153 10.946 10.476 11.154 C 10.807 11.385 11.056 11.758 11.057 12.363 L 11.057 12.416 C 11.023 12.342 10.979 12.274 10.928 12.211 C 10.786 12.026 10.567 11.92 10.338 11.925 C 10.02 11.923 9.758 12.185 9.748 12.515 C 9.749 12.552 9.744 12.589 9.734 12.625 C 9.732 12.629 9.73 12.634 9.727 12.638 C 9.626 12.625 9.536 12.564 9.484 12.473 C 9.395 12.328 9.351 12.159 9.357 11.987 C 9.357 11.944 9.359 11.9 9.363 11.857 L 9.373 11.759 L 9.31 11.833 C 9.012 12.176 8.904 12.493 8.904 12.753 C 8.904 13.193 9.189 13.504 9.357 13.667 C 9.388 13.696 9.426 13.733 9.457 13.765 L 9.493 13.807 L 9.504 13.834 C 9.504 13.85 9.47 13.891 9.392 13.925 C 9.259 13.974 9.119 13.996 8.978 13.991 C 8.904 13.993 8.829 13.989 8.755 13.98 L 8.681 13.972 L 8.729 14.032 C 9.293 14.728 9.916 14.919 10.455 14.918 C 10.797 14.908 11.137 14.849 11.463 14.742 C 11.559 14.706 11.658 14.679 11.759 14.664 C 11.788 14.664 11.8 14.67 11.805 14.679 C 11.813 14.695 11.818 14.714 11.817 14.732 C 11.802 14.866 11.76 14.995 11.694 15.111 C 11.616 15.269 11.513 15.411 11.39 15.533 L 11.318 15.602 L 11.415 15.588 C 13.062 15.369 13.612 14.379 13.883 13.87 C 13.921 13.795 13.963 13.721 14.009 13.65 C 14.045 13.592 14.082 13.565 14.092 13.568 C 14.12 13.578 14.144 13.598 14.16 13.624 C 14.241 13.748 14.308 14.064 14.308 14.385 C 14.309 14.525 14.296 14.665 14.268 14.802 L 14.248 14.901 L 14.319 14.832 C 14.941 14.235 15.113 13.609 15.113 13.086 C 15.106 12.759 15.049 12.434 14.943 12.126 C 14.91 12.037 14.887 11.945 14.874 11.851 C 14.871 11.824 14.876 11.797 14.89 11.775 C 14.902 11.761 14.919 11.752 14.937 11.748 C 15.202 11.748 15.512 11.846 15.892 12.031 L 15.965 12.067 L 15.933 11.99 C 15.417 10.756 14.287 10.225 13.186 9.936 C 12.634 9.792 12.09 9.708 11.631 9.626 C 11.348 9.583 11.069 9.517 10.797 9.428 L 10.691 9.383 C 11.321 9.3 12.08 8.841 12.754 8.393 C 12.966 8.249 13.169 8.09 13.361 7.918 C 13.442 7.848 13.519 7.782 13.584 7.736 C 13.624 7.7 13.673 7.674 13.726 7.662 C 13.75 7.663 13.773 7.675 13.788 7.695 C 13.851 7.765 13.888 7.956 13.887 8.164 C 13.887 8.329 13.867 8.493 13.826 8.653 L 13.804 8.733 L 13.872 8.688 C 14.403 8.331 14.666 7.791 14.666 7.283 C 14.666 6.775 14.394 6.461 14.218 6.255 C 14.192 6.224 14.16 6.187 14.135 6.155 C 14.12 6.136 14.106 6.116 14.094 6.094 C 14.104 6.069 14.121 6.047 14.143 6.033 C 14.301 5.93 14.487 5.881 14.673 5.892 C 14.792 5.892 14.911 5.907 15.027 5.935 L 15.115 5.955 L 15.062 5.885 C 14.598 5.271 14.068 5.095 13.596 5.095 C 13.27 5.106 12.948 5.17 12.641 5.287 C 12.527 5.33 12.408 5.36 12.288 5.378 L 12.269 5.378 C 12.292 5.23 12.355 5.091 12.45 4.978 C 12.597 4.785 12.777 4.622 12.981 4.497 L 13.064 4.445 L 12.967 4.438 C 12.925 4.438 12.878 4.438 12.837 4.438 C 11.891 4.433 10.672 5.149 9.765 5.63 C 9.201 5.93 8.019 6.642 7.664 6.421 Z  M 17.258 12.028 L 17.258 11.673 C 17.19 10.064 16.128 9.254 15.56 8.822 L 15.56 8.822 C 15.459 8.749 15.362 8.67 15.27 8.586 C 15.301 8.532 15.358 8.447 15.404 8.377 C 15.685 7.954 16.213 7.153 16.213 6.012 C 16.22 5.288 15.937 4.593 15.431 4.093 C 14.872 3.55 13.991 3.171 12.7 3.171 C 11.473 3.171 10.092 3.588 8.9 4.318 C 8.429 4.596 7.997 4.94 7.616 5.341 C 7.309 5.681 7.13 6 7.129 6.287 C 7.13 6.421 7.183 6.549 7.276 6.642 C 7.452 6.82 7.759 6.908 8.157 6.947 C 8.555 6.985 9.033 6.99 9.55 6.99 L 9.639 6.99 C 10.214 6.977 10.789 7.002 11.36 7.067 C 11.495 7.083 11.627 7.12 11.751 7.176 C 11.832 7.22 11.857 7.261 11.857 7.307 C 11.847 7.351 11.822 7.39 11.787 7.417 C 11.611 7.601 11.163 7.862 10.755 8.154 C 10.562 8.288 10.381 8.441 10.215 8.611 C 10.071 8.77 9.972 8.927 9.972 9.097 L 9.972 9.107 C 9.981 9.311 10.083 9.499 10.247 9.613 C 10.742 10.005 11.768 10.108 12.304 10.211 C 12.634 10.272 12.81 10.393 12.904 10.527 C 12.983 10.647 13.022 10.79 13.016 10.935 C 13.028 11.383 12.855 11.816 12.539 12.123 C 12.249 12.409 11.861 12.563 11.461 12.551 L 11.404 12.551 C 11.415 12.46 11.421 12.368 11.421 12.276 C 11.432 11.76 11.222 11.264 10.847 10.924 C 10.486 10.601 9.978 10.417 9.389 10.417 C 8.739 10.405 8.116 10.686 7.681 11.187 C 7.286 11.65 7.066 12.246 7.064 12.864 C 7.064 13.815 7.488 14.769 8.313 15.483 C 9.137 16.196 10.364 16.676 11.971 16.676 C 13.238 16.677 14.473 16.261 15.498 15.488 C 16.571 14.681 17.221 13.403 17.258 12.03 L 17.258 12.028 Z  M 11.421 12.98 C 11.939 12.997 12.444 12.808 12.832 12.451 C 13.234 12.056 13.458 11.505 13.45 10.932 C 13.458 10.674 13.371 10.423 13.208 10.228 C 14.057 10.439 14.938 10.888 15.428 11.575 C 15.257 11.514 15.078 11.483 14.897 11.484 C 14.739 11.484 14.614 11.657 14.613 11.849 C 14.624 11.974 14.651 12.097 14.696 12.215 C 14.795 12.491 14.849 12.783 14.857 13.078 C 14.853 13.468 14.743 13.849 14.539 14.177 C 14.545 13.915 14.474 13.657 14.334 13.439 C 14.244 13.298 14.061 13.26 13.925 13.352 C 13.894 13.374 13.866 13.402 13.845 13.434 C 13.773 13.53 13.71 13.634 13.657 13.743 C 13.423 14.175 13.06 14.867 11.906 15.224 C 12.001 15.065 12.055 14.883 12.064 14.696 C 12.065 14.64 12.056 14.585 12.036 14.533 C 12.008 14.445 11.929 14.385 11.839 14.384 C 11.689 14.399 11.541 14.431 11.399 14.48 C 11.095 14.583 10.779 14.64 10.459 14.652 C 10.033 14.653 9.618 14.505 9.283 14.231 C 9.414 14.214 9.539 14.161 9.643 14.076 C 9.716 14.017 9.76 13.929 9.765 13.834 C 9.765 13.694 9.659 13.599 9.537 13.484 C 9.361 13.313 9.152 13.111 9.152 12.77 C 9.154 12.657 9.173 12.546 9.21 12.44 C 9.247 12.545 9.302 12.643 9.373 12.728 C 9.463 12.841 9.594 12.91 9.735 12.921 C 9.837 12.929 9.933 12.869 9.973 12.771 C 10.002 12.689 10.013 12.602 10.007 12.515 C 10.01 12.431 10.045 12.352 10.105 12.295 C 10.164 12.229 10.246 12.19 10.332 12.185 C 10.518 12.189 10.688 12.295 10.778 12.464 C 10.88 12.646 10.932 12.854 10.927 13.064 C 10.93 13.185 10.909 13.306 10.867 13.418 L 10.823 13.528 L 10.911 13.455 C 11.068 13.326 11.195 13.161 11.282 12.974 C 11.329 12.983 11.376 12.987 11.424 12.986 L 11.421 12.98 Z  M 10.499 8.942 C 10.753 8.709 11.027 8.5 11.318 8.318 C 11.557 8.167 11.785 8 12.002 7.818 C 12.179 7.659 12.293 7.495 12.294 7.307 C 12.295 7.16 12.238 7.019 12.137 6.916 C 11.949 6.725 11.617 6.636 11.204 6.586 C 10.73 6.544 10.253 6.528 9.777 6.538 L 9.636 6.538 C 9.211 6.538 8.872 6.531 8.601 6.52 C 9.041 6.325 9.469 6.105 9.885 5.861 C 10.654 5.435 11.505 4.962 12.306 4.752 C 12.132 4.935 12.024 5.174 12.002 5.43 C 11.999 5.488 12.019 5.546 12.057 5.589 C 12.105 5.638 12.172 5.665 12.24 5.662 C 12.407 5.646 12.572 5.606 12.728 5.543 C 13.003 5.435 13.293 5.373 13.587 5.36 C 13.908 5.362 14.222 5.465 14.485 5.656 C 14.307 5.66 14.134 5.718 13.987 5.822 C 13.899 5.884 13.845 5.986 13.84 6.096 C 13.84 6.219 13.923 6.31 14.027 6.432 C 14.192 6.623 14.408 6.877 14.408 7.283 C 14.401 7.589 14.306 7.886 14.135 8.136 L 14.135 8.083 C 14.146 7.881 14.092 7.681 13.982 7.513 C 13.919 7.436 13.826 7.392 13.729 7.392 C 13.561 7.392 13.411 7.527 13.198 7.711 C 13.014 7.876 12.819 8.029 12.615 8.168 C 11.603 8.828 11.061 9.083 10.677 9.111 C 10.535 9.127 10.325 9.124 10.497 8.944 L 10.499 8.942 Z " fill="rgb(0,0,0)"/></g></g></svg>