<?xml version="1.0" encoding="UTF-8" standalone="no"?><!-- Generator: Gravit.io --><svg xmlns="http://www.w3.org/2000/svg" xmlns:xlink="http://www.w3.org/1999/xlink" style="isolation:isolate" viewBox="0 0 24 24" width="24pt" height="24pt"><defs><clipPath id="_clipPath_vdNMocO0hmC8kKaGQ4nGucsEunI6T2u2"><rect width="24" height="24"/></clipPath></defs><g clip-path="url(#_clipPath_vdNMocO0hmC8kKaGQ4nGucsEunI6T2u2)"><clipPath id="_clipPath_PYBV3SgsWPDUB7UykSrG5Gl5qsnMF20i"><rect x="0" y="0" width="24" height="24" transform="matrix(1,0,0,1,0,0)" fill="rgb(255,255,255)"/></clipPath><g clip-path="url(#_clipPath_PYBV3SgsWPDUB7UykSrG5Gl5qsnMF20i)"><g><path d=" M 18.219 16.551 C 19.896 14.836 21.02 12.588 21.02 10.02 C 21.02 5.042 16.978 1 12 1 C 7.022 1 2.98 5.042 2.98 10.02 C 2.98 12.62 4.007 14.787 5.844 16.61 L 5.844 16.61 L 11.633 23 L 18.23 16.551 L 18.219 16.551 L 18.219 16.551 Z " fill="rgb(0,0,0)"/><path d=" M 16.524 14.525 C 17.732 13.316 18.542 11.733 18.542 9.924 C 18.542 6.417 15.629 3.569 12.042 3.569 C 8.455 3.569 5.542 6.417 5.542 9.924 C 5.542 11.756 6.282 13.282 7.606 14.567 L 7.606 14.567 L 11.778 19.069 L 16.531 14.525 L 16.524 14.525 L 16.524 14.525 Z " fill="rgb(0,146,188)"/><g><path d=" M 9.881 11.546 L 10.344 8.905 L 11.314 8.905 L 11.424 8.278 L 10.454 8.278 L 10.642 7.193 L 9.826 7.305 L 9.418 8.256 L 8.669 8.502 L 8.603 8.905 L 9.33 8.905 L 8.867 11.546 C 8.845 11.647 8.845 11.748 8.845 11.837 C 8.845 12.442 9.209 12.699 9.749 12.699 C 10.025 12.699 10.377 12.632 10.719 12.509 C 10.719 12.251 10.719 12.072 10.719 11.815 C 10.587 11.848 10.388 11.904 10.234 11.904 C 10.025 11.904 9.87 11.848 9.87 11.636 C 9.87 11.602 9.87 11.58 9.881 11.546 Z " fill="rgb(255,255,255)"/><path d=" M 11.595 8.905 L 12.333 8.905 L 11.54 13.471 L 12.598 13.359 L 13.369 8.905 L 14.35 8.905 L 14.46 8.278 L 13.435 8.278 C 13.612 7.226 13.391 6.297 14.482 6.297 C 14.714 6.297 15.11 6.365 15.11 6.365 L 15.397 5.783 C 15.254 5.727 14.868 5.604 14.284 5.604 C 13.656 5.604 12.84 6.051 12.675 6.947 C 12.532 7.73 12.411 8.256 12.411 8.256 L 11.661 8.502 L 11.595 8.905 Z " fill="rgb(255,255,255)"/></g></g></g></g></svg>