<?xml version="1.0" encoding="utf-8"?>
<svg style="isolation:isolate" viewBox="0 0 400 520" width="400pt" height="520pt" xmlns="http://www.w3.org/2000/svg">
  <defs>
    <clipPath id="_clipPath_5Ew9bAr8XzmvYV4WFM8GHIPoA2IBnBYt">
      <rect width="400" height="520"/>
    </clipPath>
  </defs>
  <g clip-path="url(#_clipPath_5Ew9bAr8XzmvYV4WFM8GHIPoA2IBnBYt)">
    <g>
      <defs>
        <filter id="VMTm9Q5TuZfAOTI7eQBnKFEiCY8jfuLb" x="-200%" y="-200%" width="400%" height="400%" filterUnits="objectBoundingBox" color-interpolation-filters="sRGB">
          <feGaussianBlur xmlns="http://www.w3.org/2000/svg" stdDeviation="4.293609062839028"/>
        </filter>
      </defs>
      <g filter="url(#VMTm9Q5TuZfAOTI7eQBnKFEiCY8jfuLb)">
        <ellipse vector-effect="non-scaling-stroke" cx="198.91361582044095" cy="490" rx="65" ry="20.166666666666686" fill-opacity="0.7" style=""/>
      </g>
      <defs>
        <filter id="HTbRM7RB7fsHIG4xGbvzuuNZVXvKEPaB" x="-200%" y="-200%" width="400%" height="400%" filterUnits="objectBoundingBox" color-interpolation-filters="sRGB">
          <feGaussianBlur xmlns="http://www.w3.org/2000/svg" stdDeviation="0"/>
        </filter>
      </defs>
      <g filter="url(#HTbRM7RB7fsHIG4xGbvzuuNZVXvKEPaB)">
        <path d=" M 18.914 183.931 C 18.914 83.382 99.774 2 199.384 2 C 299.14 2 380 83.382 380 183.931 C 380 237.891 356.562 286.544 319.355 319.863 C 317.304 321.633 246.405 388.124 198.944 490 C 181.073 417.906 111.785 348.613 79.998 320.306 C 42.498 286.839 18.914 238.186 18.914 183.931 Z  M 311.005 183.931" style=""/>
      </g>
    </g>
    <circle vector-effect="non-scaling-stroke" cx="199.3950696443201" cy="180.06173631098662" r="143.0617363109866" style=""/>
    <circle vector-effect="non-scaling-stroke" cx="199.45680595530652" cy="180.00000000000003" r="129.99999999999997" style="fill: rgb(0, 146, 188);"/>
  </g>
  <path d="M 145.544 226.845 L 156.446 164.65 L 180.01 164.65 L 181.882 149.883 L 159.037 149.883 L 163.466 124.331 L 139.692 124.57 L 134.639 149.366 L 117.24 149.404 L 115.446 164.65 L 132.566 164.65 L 121.663 226.845 C 121.146 229.224 121.146 231.603 121.146 233.699 C 121.146 247.946 129.716 253.999 142.434 253.999 C 148.934 253.999 157.224 252.422 165.278 249.524 C 165.278 243.448 165.278 239.233 165.278 233.179 C 162.17 233.958 157.483 235.275 153.855 235.275 C 148.934 235.275 145.284 233.958 145.284 228.966 C 145.284 228.164 145.284 227.645 145.544 226.845 Z" fill="rgb(255,255,255)"/>
  <path d="M 185.908 164.41 L 203.288 164.65 L 188.449 256.594 L 212.168 256.114 L 227.686 164.65 L 263.497 165.13 L 266.327 149.643 L 229.24 149.883 C 233.409 125.11 231.397 107.155 253.898 103.95 C 259.033 103.219 272.044 105.552 272.044 105.552 L 274.966 90.167 C 271.599 88.848 262.989 86.911 249.234 86.911 C 234.445 86.911 215.229 97.437 211.342 118.538 C 207.974 136.979 205.124 149.366 205.124 149.366 L 187.462 149.884 L 185.908 164.41 Z" fill="rgb(255,255,255)"/>
</svg>