<?xml version="1.0" encoding="UTF-8" standalone="no"?><!-- Generator: Gravit.io --><svg xmlns="http://www.w3.org/2000/svg" xmlns:xlink="http://www.w3.org/1999/xlink" style="isolation:isolate" viewBox="0 0 24 24" width="24pt" height="24pt"><defs><clipPath id="_clipPath_HhSGXyDHmrSwCg2unFhHkmZWAWHzfbsA"><rect width="24" height="24"/></clipPath></defs><g clip-path="url(#_clipPath_HhSGXyDHmrSwCg2unFhHkmZWAWHzfbsA)"><clipPath id="_clipPath_lkAqgswxtnpgqufmvCdEO6J1Zi6s7DiP"><rect x="0" y="0" width="24" height="24" transform="matrix(1,0,0,1,0,0)" fill="rgb(255,255,255)"/></clipPath><g clip-path="url(#_clipPath_lkAqgswxtnpgqufmvCdEO6J1Zi6s7DiP)"><g><clipPath id="_clipPath_GKZOCyQpqF4OuVKzG9Muqe4N5m13dF0x"><rect x="0" y="0" width="24" height="24" transform="matrix(1,0,0,1,0,0)" fill="rgb(255,255,255)"/></clipPath><g clip-path="url(#_clipPath_GKZOCyQpqF4OuVKzG9Muqe4N5m13dF0x)"><g><g><clipPath id="_clipPath_t3xTTFFCtVRcEZitUFXO83hb0oen4oQb"><rect x="0" y="0" width="24" height="24" transform="matrix(1,0,0,1,0,0)" fill="rgb(255,255,255)"/></clipPath><g clip-path="url(#_clipPath_t3xTTFFCtVRcEZitUFXO83hb0oen4oQb)"><g><g><g><clipPath id="_clipPath_MNUI6szaHsw8oQD4GgzJv5OqD8huzrTs"><rect x="0.23" y="0" width="24" height="24" transform="matrix(1,0,0,1,0,0)" fill="rgb(255,255,255)"/></clipPath><g clip-path="url(#_clipPath_MNUI6szaHsw8oQD4GgzJv5OqD8huzrTs)"><g><g><g><g><clipPath id="_clipPath_uauawhGZzoTZ52ip7GtAvaDhJOm2lJya"><rect x="0.23" y="0" width="24" height="24" transform="matrix(1,0,0,1,0,0)" fill="rgb(255,255,255)"/></clipPath><g clip-path="url(#_clipPath_uauawhGZzoTZ52ip7GtAvaDhJOm2lJya)"><g><g><g><g><g><path d=" M 18.449 16.551 C 20.126 14.836 21.25 12.588 21.25 10.02 C 21.25 5.042 17.208 1 12.23 1 C 7.252 1 3.21 5.042 3.21 10.02 C 3.21 12.62 4.237 14.787 6.074 16.61 L 6.074 16.61 L 11.863 23 L 18.46 16.551 L 18.449 16.551 L 18.449 16.551 L 18.449 16.551 L 18.449 16.551 L 18.449 16.551 Z " fill="rgb(230,51,41)"/><rect x="0.23" y="0" width="24" height="24" transform="matrix(1,0,0,1,0,0)" fill="none"/></g></g></g></g></g></g><clipPath id="_clipPath_VCQoIMaCTEO8UAC7sxFdMwZekNpRk8h4"><rect x="3.21" y="1" width="18.04" height="22" transform="matrix(1,0,0,1,0,0)" fill="rgb(255,255,255)"/></clipPath><g clip-path="url(#_clipPath_VCQoIMaCTEO8UAC7sxFdMwZekNpRk8h4)"><g><g><g><g><g><circle vector-effect="non-scaling-stroke" cx="12.22966507177033" cy="10" r="7" fill="rgb(255,255,255)"/></g></g></g></g></g></g></g></g></g></g></g></g></g></g></g></g></g></g></g></g><g><path d=" M 18.953 9.987 C 18.953 13.668 15.939 16.656 12.221 16.656 C 8.786 16.656 5.952 14.108 5.538 10.817 L 5.538 9.156 C 5.948 5.89 8.743 3.356 12.143 3.318 L 12.297 3.318 C 15.981 3.359 18.953 6.329 18.953 9.987 L 18.953 9.987 Z " fill="rgb(230,51,41)"/><path d=" M 12.273 13.704 C 10.424 13.711 8.499 12.148 8.49 9.636 C 8.484 7.975 9.39 6.376 10.546 5.429 C 11.674 4.505 13.218 3.91 14.619 3.905 C 14.799 3.905 14.989 3.92 15.105 3.958 C 13.88 4.211 12.904 5.341 12.908 6.621 C 12.908 6.663 12.912 6.709 12.918 6.729 C 14.967 7.224 15.898 8.45 15.904 10.144 C 15.909 11.841 14.557 13.698 12.273 13.704 L 12.273 13.704 Z " fill="rgb(255,255,255)"/></g></g></svg>