<?xml version="1.0" encoding="UTF-8" standalone="no"?><!-- Generator: Gravit.io --><svg xmlns="http://www.w3.org/2000/svg" xmlns:xlink="http://www.w3.org/1999/xlink" style="isolation:isolate" viewBox="0 0 24 24" width="24pt" height="24pt"><defs><clipPath id="_clipPath_dPlM55J3P6HBT0P1pg4VGNm2OCT1l9o5"><rect width="24" height="24"/></clipPath></defs><g clip-path="url(#_clipPath_dPlM55J3P6HBT0P1pg4VGNm2OCT1l9o5)"><clipPath id="_clipPath_uA3SnIvIOySb5H0suN30qRKL5xF6FRle"><rect x="0" y="0" width="24" height="24" transform="matrix(1,0,0,1,0,0)" fill="rgb(255,255,255)"/></clipPath><g clip-path="url(#_clipPath_uA3SnIvIOySb5H0suN30qRKL5xF6FRle)"><g><path d=" M 18.593 16.825 C 20.37 15.006 21.563 12.624 21.563 9.901 C 21.563 4.623 17.278 0.338 12 0.338 C 6.722 0.338 2.438 4.623 2.438 9.901 C 2.438 12.657 3.526 14.954 5.474 16.888 L 5.473 16.888 L 11.611 23.662 L 18.605 16.825 L 18.593 16.825 Z " fill="rgb(123,177,52)"/></g></g><clipPath id="_clipPath_V6nvrUR7kjDuH2Uzn4wpdDPmqNp0risW"><rect x="2.769" y="0" width="18.462" height="24" transform="matrix(1,0,0,1,0,0)" fill="rgb(255,255,255)"/></clipPath><g clip-path="url(#_clipPath_V6nvrUR7kjDuH2Uzn4wpdDPmqNp0risW)"><g><circle vector-effect="non-scaling-stroke" cx="11.999999999999998" cy="9.742563943442729" r="6.651524726508006" fill="rgb(255,255,255)"/><g><path d=" M 13.666 13.386 L 11.998 9.376 L 10.33 13.386 L 7.852 7.371 L 8.857 7.371 L 10.346 11.251 L 11.998 7.197 L 13.644 11.251 L 15.138 7.371 L 16.144 7.371 L 13.666 13.386 Z " fill="rgb(123,177,52)"/></g></g></g></g></svg>