<?xml version="1.0" encoding="UTF-8" standalone="no"?><!-- Generator: Gravit.io --><svg xmlns="http://www.w3.org/2000/svg" xmlns:xlink="http://www.w3.org/1999/xlink" style="isolation:isolate" viewBox="0 0 24 24" width="24pt" height="24pt"><defs><clipPath id="_clipPath_Duzd0HTnQwwMVtqegkbXGspoMe9WkhjL"><rect width="24" height="24"/></clipPath></defs><g clip-path="url(#_clipPath_Duzd0HTnQwwMVtqegkbXGspoMe9WkhjL)"><path d=" M 47 429 L 48 344 L 58 344 L 82 378 L 105 344 L 115 344 L 115 429 L 104 429 L 104 365 L 82 395 L 59 365 L 58 429 L 47 429 Z " fill="rgb(255,255,255)" vector-effect="non-scaling-stroke" stroke-width="1" stroke="rgb(0,0,0)" stroke-linejoin="miter" stroke-linecap="square" stroke-miterlimit="3"/><path d=" M 163 429 L 163 344 L 174 344 L 174 429 L 163 429 Z " fill="rgb(255,255,255)" vector-effect="non-scaling-stroke" stroke-width="1" stroke="rgb(0,0,0)" stroke-linejoin="miter" stroke-linecap="square" stroke-miterlimit="3"/><path d=" M 219 429 L 219 344 L 230 344 L 276 407 L 276 344 L 287 344 L 286 429 L 277 429 L 230 365 L 230 429 L 219 429 Z " fill="rgb(255,255,255)" vector-effect="non-scaling-stroke" stroke-width="1" stroke="rgb(0,0,0)" stroke-linejoin="miter" stroke-linecap="square" stroke-miterlimit="3"/><path d=" M 327 344 L 388 344 L 388 355 L 363 355 L 363 429 L 352 429 L 352 355 L 327 355 L 327 344 Z " fill="rgb(255,255,255)" vector-effect="non-scaling-stroke" stroke-width="1" stroke="rgb(0,0,0)" stroke-linejoin="miter" stroke-linecap="square" stroke-miterlimit="3"/><path d=" M 900 344 L 961 344 L 961 355 L 936 355 L 936 429 L 925 429 L 925 355 L 900 355 L 900 344 Z " fill="rgb(255,255,255)" vector-effect="non-scaling-stroke" stroke-width="1" stroke="rgb(0,0,0)" stroke-linejoin="miter" stroke-linecap="square" stroke-miterlimit="3"/><path d=" M 465 344 L 478 344 L 499 403 L 519 344 L 530 344 L 499 429 L 465 344 Z " fill="rgb(255,255,255)" vector-effect="non-scaling-stroke" stroke-width="1" stroke="rgb(0,0,0)" stroke-linejoin="miter" stroke-linecap="square" stroke-miterlimit="3"/><path d=" M 717 344 L 730 344 L 751 403 L 771 344 L 782 344 L 751 429 L 717 344 Z " fill="rgb(255,255,255)" vector-effect="non-scaling-stroke" stroke-width="1" stroke="rgb(0,0,0)" stroke-linejoin="miter" stroke-linecap="square" stroke-miterlimit="3"/><path d=" M 569 344 L 611 344 L 611 357 L 580 357 L 580 380 L 609 380 L 609 392 L 580 392 L 580 418 L 611 418 L 611 429 L 569 429 L 569 344 Z " fill="rgb(255,255,255)" vector-effect="non-scaling-stroke" stroke-width="1" stroke="rgb(0,0,0)" stroke-linejoin="miter" stroke-linecap="square" stroke-miterlimit="3"/><path d=" M 821 344 L 863 344 L 863 357 L 832 357 L 832 380 L 861 380 L 861 392 L 832 392 L 832 418 L 863 418 L 863 429 L 821 429 L 821 344 Z " fill="rgb(255,255,255)" vector-effect="non-scaling-stroke" stroke-width="1" stroke="rgb(0,0,0)" stroke-linejoin="miter" stroke-linecap="square" stroke-miterlimit="3"/><path d=" M 653 344 L 665 344 L 665 418 L 696 418 L 696 429 L 653 429 L 653 344 Z " fill="rgb(255,255,255)" vector-effect="non-scaling-stroke" stroke-width="1" stroke="rgb(0,0,0)" stroke-linejoin="miter" stroke-linecap="square" stroke-miterlimit="3"/><path d=" M 47 429 L 48 344 L 58 344 L 82 378 L 105 344 L 115 344 L 115 429 L 104 429 L 104 365 L 82 395 L 59 365 L 58 429 L 47 429 Z " fill="rgb(255,255,255)" vector-effect="non-scaling-stroke" stroke-width="1" stroke="rgb(0,0,0)" stroke-linejoin="miter" stroke-linecap="square" stroke-miterlimit="3"/><path d=" M 163 429 L 163 344 L 174 344 L 174 429 L 163 429 Z " fill="rgb(255,255,255)" vector-effect="non-scaling-stroke" stroke-width="1" stroke="rgb(0,0,0)" stroke-linejoin="miter" stroke-linecap="square" stroke-miterlimit="3"/><path d=" M 219 429 L 219 344 L 230 344 L 276 407 L 276 344 L 287 344 L 286 429 L 277 429 L 230 365 L 230 429 L 219 429 Z " fill="rgb(255,255,255)" vector-effect="non-scaling-stroke" stroke-width="1" stroke="rgb(0,0,0)" stroke-linejoin="miter" stroke-linecap="square" stroke-miterlimit="3"/><path d=" M 327 344 L 388 344 L 388 355 L 363 355 L 363 429 L 352 429 L 352 355 L 327 355 L 327 344 Z " fill="rgb(255,255,255)" vector-effect="non-scaling-stroke" stroke-width="1" stroke="rgb(0,0,0)" stroke-linejoin="miter" stroke-linecap="square" stroke-miterlimit="3"/><path d=" M 900 344 L 961 344 L 961 355 L 936 355 L 936 429 L 925 429 L 925 355 L 900 355 L 900 344 Z " fill="rgb(255,255,255)" vector-effect="non-scaling-stroke" stroke-width="1" stroke="rgb(0,0,0)" stroke-linejoin="miter" stroke-linecap="square" stroke-miterlimit="3"/><path d=" M 465 344 L 478 344 L 499 403 L 519 344 L 530 344 L 499 429 L 465 344 Z " fill="rgb(255,255,255)" vector-effect="non-scaling-stroke" stroke-width="1" stroke="rgb(0,0,0)" stroke-linejoin="miter" stroke-linecap="square" stroke-miterlimit="3"/><path d=" M 717 344 L 730 344 L 751 403 L 771 344 L 782 344 L 751 429 L 717 344 Z " fill="rgb(255,255,255)" vector-effect="non-scaling-stroke" stroke-width="1" stroke="rgb(0,0,0)" stroke-linejoin="miter" stroke-linecap="square" stroke-miterlimit="3"/><path d=" M 569 344 L 611 344 L 611 357 L 580 357 L 580 380 L 609 380 L 609 392 L 580 392 L 580 418 L 611 418 L 611 429 L 569 429 L 569 344 Z " fill="rgb(255,255,255)" vector-effect="non-scaling-stroke" stroke-width="1" stroke="rgb(0,0,0)" stroke-linejoin="miter" stroke-linecap="square" stroke-miterlimit="3"/><path d=" M 821 344 L 863 344 L 863 357 L 832 357 L 832 380 L 861 380 L 861 392 L 832 392 L 832 418 L 863 418 L 863 429 L 821 429 L 821 344 Z " fill="rgb(255,255,255)" vector-effect="non-scaling-stroke" stroke-width="1" stroke="rgb(0,0,0)" stroke-linejoin="miter" stroke-linecap="square" stroke-miterlimit="3"/><path d=" M 653 344 L 665 344 L 665 418 L 696 418 L 696 429 L 653 429 L 653 344 Z " fill="rgb(255,255,255)" vector-effect="non-scaling-stroke" stroke-width="1" stroke="rgb(0,0,0)" stroke-linejoin="miter" stroke-linecap="square" stroke-miterlimit="3"/><clipPath id="_clipPath_QxOFtgPlNVsk2BnaPCKe9FtChJ1AJNpJ"><rect x="0" y="0" width="24" height="24" transform="matrix(1,0,0,1,0,0)" fill="rgb(255,255,255)"/></clipPath><g clip-path="url(#_clipPath_QxOFtgPlNVsk2BnaPCKe9FtChJ1AJNpJ)"><g><path d=" M 18.593 16.825 C 20.37 15.006 21.563 12.624 21.563 9.901 C 21.563 4.623 17.278 0.338 12 0.338 C 6.722 0.338 2.438 4.623 2.438 9.901 C 2.438 12.657 3.526 14.954 5.474 16.888 L 5.473 16.888 L 11.611 23.662 L 18.605 16.825 L 18.593 16.825 L 18.593 16.825 Z " fill="rgb(0,0,0)"/><clipPath id="_clipPath_NurmXKgOFO9GZnyoDDCrsxNNPZWC80AT"><rect x="4" y="-2" width="24" height="24" transform="matrix(1,0,0,1,0,0)" fill="rgb(255,255,255)"/></clipPath><g clip-path="url(#_clipPath_NurmXKgOFO9GZnyoDDCrsxNNPZWC80AT)"><g><mask id="_mask_wtgKIwaiYkP3DCT6mkopRzOLpAWel5jD" x="-200%" y="-200%" width="400%" height="400%"><rect x="-200%" y="-200%" width="400%" height="400%" style="fill:white;"/><path d=" M 53.68 490 L 54.775 392.31 L 65.724 392.31 L 92.004 431.386 L 117.189 392.31 L 128.139 392.31 L 128.139 490 L 116.094 490 L 116.094 416.445 L 92.004 450.924 L 66.819 416.445 L 65.724 490 L 53.68 490 Z " fill="black" stroke="none"/></mask><path d=" M 53.68 490 L 54.775 392.31 L 65.724 392.31 L 92.004 431.386 L 117.189 392.31 L 128.139 392.31 L 128.139 490 L 116.094 490 L 116.094 416.445 L 92.004 450.924 L 66.819 416.445 L 65.724 490 L 53.68 490 Z " fill="rgb(255,255,255)"/><path d=" M 53.68 490 L 54.775 392.31 L 65.724 392.31 L 92.004 431.386 L 117.189 392.31 L 128.139 392.31 L 128.139 490 L 116.094 490 L 116.094 416.445 L 92.004 450.924 L 66.819 416.445 L 65.724 490 L 53.68 490 Z " fill="rgb(255,255,255)" mask="url(#_mask_wtgKIwaiYkP3DCT6mkopRzOLpAWel5jD)" vector-effect="non-scaling-stroke" stroke-width="2" stroke="rgb(0,0,0)" stroke-opacity="100" stroke-linejoin="miter" stroke-linecap="square" stroke-miterlimit="3"/><mask id="_mask_r17fniIi7jc1iJIVBV625qqRSZyR5uwQ" x="-200%" y="-200%" width="400%" height="400%"><rect x="-200%" y="-200%" width="400%" height="400%" style="fill:white;"/><path d=" M 180.698 490 L 180.698 392.31 L 192.743 392.31 L 192.743 490 L 180.698 490 Z " fill="black" stroke="none"/></mask><path d=" M 180.698 490 L 180.698 392.31 L 192.743 392.31 L 192.743 490 L 180.698 490 Z " fill="rgb(255,255,255)"/><path d=" M 180.698 490 L 180.698 392.31 L 192.743 392.31 L 192.743 490 L 180.698 490 Z " fill="rgb(255,255,255)" mask="url(#_mask_r17fniIi7jc1iJIVBV625qqRSZyR5uwQ)" vector-effect="non-scaling-stroke" stroke-width="2" stroke="rgb(0,0,0)" stroke-opacity="100" stroke-linejoin="miter" stroke-linecap="square" stroke-miterlimit="3"/><mask id="_mask_CeblEozfw4lWeqLwAIHcxWWohrUJ9zwC" x="-200%" y="-200%" width="400%" height="400%"><rect x="-200%" y="-200%" width="400%" height="400%" style="fill:white;"/><path d=" M 242.018 490 L 242.018 392.31 L 254.063 392.31 L 304.432 464.716 L 304.432 392.31 L 316.477 392.31 L 315.382 490 L 305.527 490 L 254.063 416.445 L 254.063 490 L 242.018 490 Z " fill="black" stroke="none"/></mask><path d=" M 242.018 490 L 242.018 392.31 L 254.063 392.31 L 304.432 464.716 L 304.432 392.31 L 316.477 392.31 L 315.382 490 L 305.527 490 L 254.063 416.445 L 254.063 490 L 242.018 490 Z " fill="rgb(255,255,255)"/><path d=" M 242.018 490 L 242.018 392.31 L 254.063 392.31 L 304.432 464.716 L 304.432 392.31 L 316.477 392.31 L 315.382 490 L 305.527 490 L 254.063 416.445 L 254.063 490 L 242.018 490 Z " fill="rgb(255,255,255)" mask="url(#_mask_CeblEozfw4lWeqLwAIHcxWWohrUJ9zwC)" vector-effect="non-scaling-stroke" stroke-width="2" stroke="rgb(0,0,0)" stroke-opacity="100" stroke-linejoin="miter" stroke-linecap="square" stroke-miterlimit="3"/><mask id="_mask_3Z1eyLdQ98RXVk2UVGhCQkgeMMUplv9L" x="-200%" y="-200%" width="400%" height="400%"><rect x="-200%" y="-200%" width="400%" height="400%" style="fill:white;"/><path d=" M 360.277 392.31 L 427.071 392.31 L 427.071 404.953 L 399.696 404.953 L 399.696 490 L 387.651 490 L 387.651 404.953 L 360.277 404.953 L 360.277 392.31 Z " fill="black" stroke="none"/></mask><path d=" M 360.277 392.31 L 427.071 392.31 L 427.071 404.953 L 399.696 404.953 L 399.696 490 L 387.651 490 L 387.651 404.953 L 360.277 404.953 L 360.277 392.31 Z " fill="rgb(255,255,255)"/><path d=" M 360.277 392.31 L 427.071 392.31 L 427.071 404.953 L 399.696 404.953 L 399.696 490 L 387.651 490 L 387.651 404.953 L 360.277 404.953 L 360.277 392.31 Z " fill="rgb(255,255,255)" mask="url(#_mask_3Z1eyLdQ98RXVk2UVGhCQkgeMMUplv9L)" vector-effect="non-scaling-stroke" stroke-width="2" stroke="rgb(0,0,0)" stroke-opacity="100" stroke-linejoin="miter" stroke-linecap="square" stroke-miterlimit="3"/><mask id="_mask_BsfMh80tmHYFEUy3vqriwuLq7CIpNa4G" x="-200%" y="-200%" width="400%" height="400%"><rect x="-200%" y="-200%" width="400%" height="400%" style="fill:white;"/><path d=" M 987.706 392.31 L 1054.5 392.31 L 1054.5 404.953 L 1027.125 404.953 L 1027.125 490 L 1015.08 490 L 1015.08 404.953 L 987.706 404.953 L 987.706 392.31 Z " fill="black" stroke="none"/></mask><path d=" M 987.706 392.31 L 1054.5 392.31 L 1054.5 404.953 L 1027.125 404.953 L 1027.125 490 L 1015.08 490 L 1015.08 404.953 L 987.706 404.953 L 987.706 392.31 Z " fill="rgb(255,255,255)"/><path d=" M 987.706 392.31 L 1054.5 392.31 L 1054.5 404.953 L 1027.125 404.953 L 1027.125 490 L 1015.08 490 L 1015.08 404.953 L 987.706 404.953 L 987.706 392.31 Z " fill="rgb(255,255,255)" mask="url(#_mask_BsfMh80tmHYFEUy3vqriwuLq7CIpNa4G)" vector-effect="non-scaling-stroke" stroke-width="2" stroke="rgb(0,0,0)" stroke-opacity="100" stroke-linejoin="miter" stroke-linecap="square" stroke-miterlimit="3"/><mask id="_mask_s88qB40YtlLJYXUtiFEpms1bC58RNeTf" x="-200%" y="-200%" width="400%" height="400%"><rect x="-200%" y="-200%" width="400%" height="400%" style="fill:white;"/><path d=" M 511.385 392.31 L 525.62 392.31 L 548.615 460.118 L 570.515 392.31 L 582.559 392.31 L 548.615 490 L 511.385 392.31 Z " fill="black" stroke="none"/></mask><path d=" M 511.385 392.31 L 525.62 392.31 L 548.615 460.118 L 570.515 392.31 L 582.559 392.31 L 548.615 490 L 511.385 392.31 Z " fill="rgb(255,255,255)"/><path d=" M 511.385 392.31 L 525.62 392.31 L 548.615 460.118 L 570.515 392.31 L 582.559 392.31 L 548.615 490 L 511.385 392.31 Z " fill="rgb(255,255,255)" mask="url(#_mask_s88qB40YtlLJYXUtiFEpms1bC58RNeTf)" vector-effect="non-scaling-stroke" stroke-width="2" stroke="rgb(0,0,0)" stroke-opacity="100" stroke-linejoin="miter" stroke-linecap="square" stroke-miterlimit="3"/><mask id="_mask_0sw9OJ974t52gFyVuw0sGLDrRGKm9J85" x="-200%" y="-200%" width="400%" height="400%"><rect x="-200%" y="-200%" width="400%" height="400%" style="fill:white;"/><path d=" M 787.323 392.31 L 801.557 392.31 L 824.552 460.118 L 846.452 392.31 L 858.497 392.31 L 824.552 490 L 787.323 392.31 Z " fill="black" stroke="none"/></mask><path d=" M 787.323 392.31 L 801.557 392.31 L 824.552 460.118 L 846.452 392.31 L 858.497 392.31 L 824.552 490 L 787.323 392.31 Z " fill="rgb(255,255,255)"/><path d=" M 787.323 392.31 L 801.557 392.31 L 824.552 460.118 L 846.452 392.31 L 858.497 392.31 L 824.552 490 L 787.323 392.31 Z " fill="rgb(255,255,255)" mask="url(#_mask_0sw9OJ974t52gFyVuw0sGLDrRGKm9J85)" vector-effect="non-scaling-stroke" stroke-width="2" stroke="rgb(0,0,0)" stroke-opacity="100" stroke-linejoin="miter" stroke-linecap="square" stroke-miterlimit="3"/><mask id="_mask_RMl2TDzNVMMZ1wg8ErqL2Ztfxu9BdtW0" x="-200%" y="-200%" width="400%" height="400%"><rect x="-200%" y="-200%" width="400%" height="400%" style="fill:white;"/><path d=" M 625.264 392.31 L 671.254 392.31 L 671.254 407.251 L 637.309 407.251 L 637.309 433.685 L 669.064 433.685 L 669.064 447.476 L 637.309 447.476 L 637.309 477.358 L 671.254 477.358 L 671.254 490 L 625.264 490 L 625.264 392.31 Z " fill="black" stroke="none"/></mask><path d=" M 625.264 392.31 L 671.254 392.31 L 671.254 407.251 L 637.309 407.251 L 637.309 433.685 L 669.064 433.685 L 669.064 447.476 L 637.309 447.476 L 637.309 477.358 L 671.254 477.358 L 671.254 490 L 625.264 490 L 625.264 392.31 Z " fill="rgb(255,255,255)"/><path d=" M 625.264 392.31 L 671.254 392.31 L 671.254 407.251 L 637.309 407.251 L 637.309 433.685 L 669.064 433.685 L 669.064 447.476 L 637.309 447.476 L 637.309 477.358 L 671.254 477.358 L 671.254 490 L 625.264 490 L 625.264 392.31 Z " fill="rgb(255,255,255)" mask="url(#_mask_RMl2TDzNVMMZ1wg8ErqL2Ztfxu9BdtW0)" vector-effect="non-scaling-stroke" stroke-width="2" stroke="rgb(0,0,0)" stroke-opacity="100" stroke-linejoin="miter" stroke-linecap="square" stroke-miterlimit="3"/><mask id="_mask_XirZFEyJa8eqVjDzAQpEgDlR2Jdz6WV4" x="-200%" y="-200%" width="400%" height="400%"><rect x="-200%" y="-200%" width="400%" height="400%" style="fill:white;"/><path d=" M 901.201 392.31 L 947.191 392.31 L 947.191 407.251 L 913.246 407.251 L 913.246 433.685 L 945.001 433.685 L 945.001 447.476 L 913.246 447.476 L 913.246 477.358 L 947.191 477.358 L 947.191 490 L 901.201 490 L 901.201 392.31 Z " fill="black" stroke="none"/></mask><path d=" M 901.201 392.31 L 947.191 392.31 L 947.191 407.251 L 913.246 407.251 L 913.246 433.685 L 945.001 433.685 L 945.001 447.476 L 913.246 447.476 L 913.246 477.358 L 947.191 477.358 L 947.191 490 L 901.201 490 L 901.201 392.31 Z " fill="rgb(255,255,255)"/><path d=" M 901.201 392.31 L 947.191 392.31 L 947.191 407.251 L 913.246 407.251 L 913.246 433.685 L 945.001 433.685 L 945.001 447.476 L 913.246 447.476 L 913.246 477.358 L 947.191 477.358 L 947.191 490 L 901.201 490 L 901.201 392.31 Z " fill="rgb(255,255,255)" mask="url(#_mask_XirZFEyJa8eqVjDzAQpEgDlR2Jdz6WV4)" vector-effect="non-scaling-stroke" stroke-width="2" stroke="rgb(0,0,0)" stroke-opacity="100" stroke-linejoin="miter" stroke-linecap="square" stroke-miterlimit="3"/><mask id="_mask_y8bbxYAbqnMfmPRJJDutbzHJ6Tq5sPsi" x="-200%" y="-200%" width="400%" height="400%"><rect x="-200%" y="-200%" width="400%" height="400%" style="fill:white;"/><path d=" M 717.243 392.31 L 730.383 392.31 L 730.383 477.358 L 764.328 477.358 L 764.328 490 L 717.243 490 L 717.243 392.31 Z " fill="black" stroke="none"/></mask><path d=" M 717.243 392.31 L 730.383 392.31 L 730.383 477.358 L 764.328 477.358 L 764.328 490 L 717.243 490 L 717.243 392.31 Z " fill="rgb(255,255,255)"/><path d=" M 717.243 392.31 L 730.383 392.31 L 730.383 477.358 L 764.328 477.358 L 764.328 490 L 717.243 490 L 717.243 392.31 Z " fill="rgb(255,255,255)" mask="url(#_mask_y8bbxYAbqnMfmPRJJDutbzHJ6Tq5sPsi)" vector-effect="non-scaling-stroke" stroke-width="2" stroke="rgb(0,0,0)" stroke-opacity="100" stroke-linejoin="miter" stroke-linecap="square" stroke-miterlimit="3"/><mask id="_mask_GXLKjB6ffWV9n0xf42SEqQcsNwKYOxhx" x="-200%" y="-200%" width="400%" height="400%"><rect x="-200%" y="-200%" width="400%" height="400%" style="fill:white;"/><path d=" M 53.68 490 L 54.775 392.31 L 65.724 392.31 L 92.004 431.386 L 117.189 392.31 L 128.139 392.31 L 128.139 490 L 116.094 490 L 116.094 416.445 L 92.004 450.924 L 66.819 416.445 L 65.724 490 L 53.68 490 Z " fill="black" stroke="none"/></mask><path d=" M 53.68 490 L 54.775 392.31 L 65.724 392.31 L 92.004 431.386 L 117.189 392.31 L 128.139 392.31 L 128.139 490 L 116.094 490 L 116.094 416.445 L 92.004 450.924 L 66.819 416.445 L 65.724 490 L 53.68 490 Z " fill="rgb(255,255,255)"/><path d=" M 53.68 490 L 54.775 392.31 L 65.724 392.31 L 92.004 431.386 L 117.189 392.31 L 128.139 392.31 L 128.139 490 L 116.094 490 L 116.094 416.445 L 92.004 450.924 L 66.819 416.445 L 65.724 490 L 53.68 490 Z " fill="rgb(255,255,255)" mask="url(#_mask_GXLKjB6ffWV9n0xf42SEqQcsNwKYOxhx)" vector-effect="non-scaling-stroke" stroke-width="2" stroke="rgb(0,0,0)" stroke-opacity="100" stroke-linejoin="miter" stroke-linecap="square" stroke-miterlimit="3"/><mask id="_mask_QzvrJuYrncXL5VyJvIIyWbYmqlt97rzN" x="-200%" y="-200%" width="400%" height="400%"><rect x="-200%" y="-200%" width="400%" height="400%" style="fill:white;"/><path d=" M 180.698 490 L 180.698 392.31 L 192.743 392.31 L 192.743 490 L 180.698 490 Z " fill="black" stroke="none"/></mask><path d=" M 180.698 490 L 180.698 392.31 L 192.743 392.31 L 192.743 490 L 180.698 490 Z " fill="rgb(255,255,255)"/><path d=" M 180.698 490 L 180.698 392.31 L 192.743 392.31 L 192.743 490 L 180.698 490 Z " fill="rgb(255,255,255)" mask="url(#_mask_QzvrJuYrncXL5VyJvIIyWbYmqlt97rzN)" vector-effect="non-scaling-stroke" stroke-width="2" stroke="rgb(0,0,0)" stroke-opacity="100" stroke-linejoin="miter" stroke-linecap="square" stroke-miterlimit="3"/><mask id="_mask_q4j7xTGKBrL5BkKIFNq5qLN9hzRCLrPP" x="-200%" y="-200%" width="400%" height="400%"><rect x="-200%" y="-200%" width="400%" height="400%" style="fill:white;"/><path d=" M 242.018 490 L 242.018 392.31 L 254.063 392.31 L 304.432 464.716 L 304.432 392.31 L 316.477 392.31 L 315.382 490 L 305.527 490 L 254.063 416.445 L 254.063 490 L 242.018 490 Z " fill="black" stroke="none"/></mask><path d=" M 242.018 490 L 242.018 392.31 L 254.063 392.31 L 304.432 464.716 L 304.432 392.31 L 316.477 392.31 L 315.382 490 L 305.527 490 L 254.063 416.445 L 254.063 490 L 242.018 490 Z " fill="rgb(255,255,255)"/><path d=" M 242.018 490 L 242.018 392.31 L 254.063 392.31 L 304.432 464.716 L 304.432 392.31 L 316.477 392.31 L 315.382 490 L 305.527 490 L 254.063 416.445 L 254.063 490 L 242.018 490 Z " fill="rgb(255,255,255)" mask="url(#_mask_q4j7xTGKBrL5BkKIFNq5qLN9hzRCLrPP)" vector-effect="non-scaling-stroke" stroke-width="2" stroke="rgb(0,0,0)" stroke-opacity="100" stroke-linejoin="miter" stroke-linecap="square" stroke-miterlimit="3"/><mask id="_mask_NOoL9PF2CDJzhOtfiwaxpuOH1fNepTBO" x="-200%" y="-200%" width="400%" height="400%"><rect x="-200%" y="-200%" width="400%" height="400%" style="fill:white;"/><path d=" M 360.277 392.31 L 427.071 392.31 L 427.071 404.953 L 399.696 404.953 L 399.696 490 L 387.651 490 L 387.651 404.953 L 360.277 404.953 L 360.277 392.31 Z " fill="black" stroke="none"/></mask><path d=" M 360.277 392.31 L 427.071 392.31 L 427.071 404.953 L 399.696 404.953 L 399.696 490 L 387.651 490 L 387.651 404.953 L 360.277 404.953 L 360.277 392.31 Z " fill="rgb(255,255,255)"/><path d=" M 360.277 392.31 L 427.071 392.31 L 427.071 404.953 L 399.696 404.953 L 399.696 490 L 387.651 490 L 387.651 404.953 L 360.277 404.953 L 360.277 392.31 Z " fill="rgb(255,255,255)" mask="url(#_mask_NOoL9PF2CDJzhOtfiwaxpuOH1fNepTBO)" vector-effect="non-scaling-stroke" stroke-width="2" stroke="rgb(0,0,0)" stroke-opacity="100" stroke-linejoin="miter" stroke-linecap="square" stroke-miterlimit="3"/><mask id="_mask_ty9BXDdioiYKI11oxs3gR8ZwUCW72Dqh" x="-200%" y="-200%" width="400%" height="400%"><rect x="-200%" y="-200%" width="400%" height="400%" style="fill:white;"/><path d=" M 987.706 392.31 L 1054.5 392.31 L 1054.5 404.953 L 1027.125 404.953 L 1027.125 490 L 1015.08 490 L 1015.08 404.953 L 987.706 404.953 L 987.706 392.31 Z " fill="black" stroke="none"/></mask><path d=" M 987.706 392.31 L 1054.5 392.31 L 1054.5 404.953 L 1027.125 404.953 L 1027.125 490 L 1015.08 490 L 1015.08 404.953 L 987.706 404.953 L 987.706 392.31 Z " fill="rgb(255,255,255)"/><path d=" M 987.706 392.31 L 1054.5 392.31 L 1054.5 404.953 L 1027.125 404.953 L 1027.125 490 L 1015.08 490 L 1015.08 404.953 L 987.706 404.953 L 987.706 392.31 Z " fill="rgb(255,255,255)" mask="url(#_mask_ty9BXDdioiYKI11oxs3gR8ZwUCW72Dqh)" vector-effect="non-scaling-stroke" stroke-width="2" stroke="rgb(0,0,0)" stroke-opacity="100" stroke-linejoin="miter" stroke-linecap="square" stroke-miterlimit="3"/><mask id="_mask_PIrXRyd6051qoT8Owxe4eMBuuFvbxs9j" x="-200%" y="-200%" width="400%" height="400%"><rect x="-200%" y="-200%" width="400%" height="400%" style="fill:white;"/><path d=" M 511.385 392.31 L 525.62 392.31 L 548.615 460.118 L 570.515 392.31 L 582.559 392.31 L 548.615 490 L 511.385 392.31 Z " fill="black" stroke="none"/></mask><path d=" M 511.385 392.31 L 525.62 392.31 L 548.615 460.118 L 570.515 392.31 L 582.559 392.31 L 548.615 490 L 511.385 392.31 Z " fill="rgb(255,255,255)"/><path d=" M 511.385 392.31 L 525.62 392.31 L 548.615 460.118 L 570.515 392.31 L 582.559 392.31 L 548.615 490 L 511.385 392.31 Z " fill="rgb(255,255,255)" mask="url(#_mask_PIrXRyd6051qoT8Owxe4eMBuuFvbxs9j)" vector-effect="non-scaling-stroke" stroke-width="2" stroke="rgb(0,0,0)" stroke-opacity="100" stroke-linejoin="miter" stroke-linecap="square" stroke-miterlimit="3"/><mask id="_mask_NLidXHl70XS8Irt49jTUFJlq7ZakRjGP" x="-200%" y="-200%" width="400%" height="400%"><rect x="-200%" y="-200%" width="400%" height="400%" style="fill:white;"/><path d=" M 787.323 392.31 L 801.557 392.31 L 824.552 460.118 L 846.452 392.31 L 858.497 392.31 L 824.552 490 L 787.323 392.31 Z " fill="black" stroke="none"/></mask><path d=" M 787.323 392.31 L 801.557 392.31 L 824.552 460.118 L 846.452 392.31 L 858.497 392.31 L 824.552 490 L 787.323 392.31 Z " fill="rgb(255,255,255)"/><path d=" M 787.323 392.31 L 801.557 392.31 L 824.552 460.118 L 846.452 392.31 L 858.497 392.31 L 824.552 490 L 787.323 392.31 Z " fill="rgb(255,255,255)" mask="url(#_mask_NLidXHl70XS8Irt49jTUFJlq7ZakRjGP)" vector-effect="non-scaling-stroke" stroke-width="2" stroke="rgb(0,0,0)" stroke-opacity="100" stroke-linejoin="miter" stroke-linecap="square" stroke-miterlimit="3"/><mask id="_mask_DYoSiWU1Xz6LJQMoY7TDkky05wGYwawh" x="-200%" y="-200%" width="400%" height="400%"><rect x="-200%" y="-200%" width="400%" height="400%" style="fill:white;"/><path d=" M 625.264 392.31 L 671.254 392.31 L 671.254 407.251 L 637.309 407.251 L 637.309 433.685 L 669.064 433.685 L 669.064 447.476 L 637.309 447.476 L 637.309 477.358 L 671.254 477.358 L 671.254 490 L 625.264 490 L 625.264 392.31 Z " fill="black" stroke="none"/></mask><path d=" M 625.264 392.31 L 671.254 392.31 L 671.254 407.251 L 637.309 407.251 L 637.309 433.685 L 669.064 433.685 L 669.064 447.476 L 637.309 447.476 L 637.309 477.358 L 671.254 477.358 L 671.254 490 L 625.264 490 L 625.264 392.31 Z " fill="rgb(255,255,255)"/><path d=" M 625.264 392.31 L 671.254 392.31 L 671.254 407.251 L 637.309 407.251 L 637.309 433.685 L 669.064 433.685 L 669.064 447.476 L 637.309 447.476 L 637.309 477.358 L 671.254 477.358 L 671.254 490 L 625.264 490 L 625.264 392.31 Z " fill="rgb(255,255,255)" mask="url(#_mask_DYoSiWU1Xz6LJQMoY7TDkky05wGYwawh)" vector-effect="non-scaling-stroke" stroke-width="2" stroke="rgb(0,0,0)" stroke-opacity="100" stroke-linejoin="miter" stroke-linecap="square" stroke-miterlimit="3"/><mask id="_mask_MGqvemjiNICMyNUUJraUR38LUsZAVTtZ" x="-200%" y="-200%" width="400%" height="400%"><rect x="-200%" y="-200%" width="400%" height="400%" style="fill:white;"/><path d=" M 901.201 392.31 L 947.191 392.31 L 947.191 407.251 L 913.246 407.251 L 913.246 433.685 L 945.001 433.685 L 945.001 447.476 L 913.246 447.476 L 913.246 477.358 L 947.191 477.358 L 947.191 490 L 901.201 490 L 901.201 392.31 Z " fill="black" stroke="none"/></mask><path d=" M 901.201 392.31 L 947.191 392.31 L 947.191 407.251 L 913.246 407.251 L 913.246 433.685 L 945.001 433.685 L 945.001 447.476 L 913.246 447.476 L 913.246 477.358 L 947.191 477.358 L 947.191 490 L 901.201 490 L 901.201 392.31 Z " fill="rgb(255,255,255)"/><path d=" M 901.201 392.31 L 947.191 392.31 L 947.191 407.251 L 913.246 407.251 L 913.246 433.685 L 945.001 433.685 L 945.001 447.476 L 913.246 447.476 L 913.246 477.358 L 947.191 477.358 L 947.191 490 L 901.201 490 L 901.201 392.31 Z " fill="rgb(255,255,255)" mask="url(#_mask_MGqvemjiNICMyNUUJraUR38LUsZAVTtZ)" vector-effect="non-scaling-stroke" stroke-width="2" stroke="rgb(0,0,0)" stroke-opacity="100" stroke-linejoin="miter" stroke-linecap="square" stroke-miterlimit="3"/><mask id="_mask_sY382792uBybXKxbHQoCsqGQUDpkLHGc" x="-200%" y="-200%" width="400%" height="400%"><rect x="-200%" y="-200%" width="400%" height="400%" style="fill:white;"/><path d=" M 717.243 392.31 L 730.383 392.31 L 730.383 477.358 L 764.328 477.358 L 764.328 490 L 717.243 490 L 717.243 392.31 Z " fill="black" stroke="none"/></mask><path d=" M 717.243 392.31 L 730.383 392.31 L 730.383 477.358 L 764.328 477.358 L 764.328 490 L 717.243 490 L 717.243 392.31 Z " fill="rgb(255,255,255)"/><path d=" M 717.243 392.31 L 730.383 392.31 L 730.383 477.358 L 764.328 477.358 L 764.328 490 L 717.243 490 L 717.243 392.31 Z " fill="rgb(255,255,255)" mask="url(#_mask_sY382792uBybXKxbHQoCsqGQUDpkLHGc)" vector-effect="non-scaling-stroke" stroke-width="2" stroke="rgb(0,0,0)" stroke-opacity="100" stroke-linejoin="miter" stroke-linecap="square" stroke-miterlimit="3"/><g><rect x="5.7" y="5" width="12.592" height="9.194" transform="matrix(1,0,0,1,0,0)" fill="none" vector-effect="non-scaling-stroke" stroke-width="0.7" stroke="rgb(255,255,255)" stroke-linejoin="miter" stroke-linecap="butt" stroke-miterlimit="2"/><g><path d=" M 11.192 6.809 L 10.772 6.809 L 10.772 7.926 L 10.597 7.926 L 10.597 6.809 L 10.176 6.809 L 10.176 6.643 L 11.188 6.643 L 11.192 6.809 L 11.192 6.809 Z " fill="rgb(255,255,255)"/><path d=" M 12.616 7.931 L 12.441 7.931 L 12.441 7.374 L 11.762 7.374 L 11.762 7.931 L 11.587 7.931 L 11.587 6.648 L 11.762 6.648 L 11.762 7.204 L 12.445 7.204 L 12.445 6.648 L 12.62 6.648 L 12.62 7.931 L 12.616 7.931 Z " fill="rgb(255,255,255)"/><path d=" M 13.812 6.809 L 13.299 6.809 L 13.299 7.195 L 13.794 7.195 L 13.794 7.361 L 13.299 7.361 L 13.299 7.761 L 13.829 7.761 L 13.829 7.926 L 13.124 7.926 L 13.124 6.653 L 13.812 6.653 L 13.812 6.809 Z " fill="rgb(255,255,255)"/><path d=" M 9.808 10.243 L 9.773 10.243 L 9.375 9.195 L 8.972 10.243 L 8.937 10.243 L 8.446 8.951 L 8.621 8.951 L 8.954 9.834 L 9.292 8.951 L 9.454 8.951 L 9.791 9.834 L 10.124 8.951 L 10.299 8.951 L 9.808 10.243 Z " fill="rgb(255,255,255)"/><path d=" M 11.701 10.229 L 11.525 10.229 L 11.525 9.673 L 10.842 9.673 L 10.842 10.229 L 10.667 10.229 L 10.667 8.947 L 10.842 8.947 L 10.842 9.503 L 11.525 9.503 L 11.525 8.947 L 11.701 8.947 L 11.701 10.229 Z " fill="rgb(255,255,255)"/><path d=" M 12.379 10.229 L 12.204 10.229 L 12.204 8.947 L 12.379 8.947 L 12.379 10.229 Z " fill="rgb(255,255,255)"/><path d=" M 13.79 9.108 L 13.369 9.108 L 13.369 10.225 L 13.194 10.225 L 13.194 9.108 L 12.774 9.108 L 12.774 8.942 L 13.79 8.942 L 13.79 9.108 L 13.79 9.108 Z " fill="rgb(255,255,255)"/><path d=" M 14.885 9.108 L 14.372 9.108 L 14.372 9.494 L 14.867 9.494 L 14.867 9.659 L 14.372 9.659 L 14.372 10.059 L 14.902 10.059 L 14.902 10.225 L 14.197 10.225 L 14.197 8.951 L 14.885 8.951 L 14.885 9.108 Z " fill="rgb(255,255,255)"/><path d=" M 8.324 11.53 C 8.17 11.438 8.043 11.397 7.903 11.397 C 7.623 11.397 7.417 11.604 7.417 11.889 C 7.417 12.178 7.614 12.372 7.907 12.372 C 8.048 12.372 8.192 12.321 8.332 12.224 L 8.332 12.427 C 8.21 12.496 8.083 12.537 7.89 12.537 C 7.434 12.537 7.229 12.169 7.229 11.898 C 7.229 11.507 7.509 11.222 7.894 11.222 C 8.017 11.222 8.144 11.254 8.315 11.328 L 8.315 11.53 L 8.324 11.53 Z " fill="rgb(255,255,255)"/><path d=" M 8.911 11.893 C 8.911 11.613 9.116 11.402 9.384 11.402 C 9.659 11.402 9.857 11.608 9.857 11.893 C 9.857 12.178 9.651 12.385 9.384 12.385 C 9.112 12.372 8.911 12.169 8.911 11.893 Z  M 8.727 11.893 C 8.727 12.243 8.976 12.551 9.375 12.551 C 9.791 12.551 10.036 12.238 10.036 11.893 C 10.036 11.539 9.787 11.236 9.384 11.236 C 8.985 11.231 8.727 11.53 8.727 11.893 Z " fill="rgb(255,255,255)"/><path d=" M 11.613 12.528 L 11.438 12.528 L 11.438 11.53 L 11.433 11.53 L 11.061 12.027 L 11.03 12.027 L 10.658 11.53 L 10.654 11.53 L 10.654 12.528 L 10.479 12.528 L 10.479 11.245 L 10.641 11.245 L 11.044 11.774 L 11.447 11.245 L 11.609 11.245 L 11.613 12.528 L 11.613 12.528 Z " fill="rgb(255,255,255)"/><path d=" M 12.344 11.406 L 12.55 11.406 C 12.708 11.406 12.76 11.512 12.76 11.604 C 12.76 11.733 12.677 11.806 12.546 11.806 L 12.349 11.806 L 12.349 11.406 L 12.344 11.406 Z  M 12.169 11.25 L 12.169 12.532 L 12.344 12.532 L 12.344 11.981 L 12.524 11.981 C 12.804 11.981 12.931 11.82 12.931 11.618 C 12.931 11.415 12.809 11.25 12.546 11.25 L 12.169 11.25 Z " fill="rgb(255,255,255)"/><path d=" M 13.772 11.526 L 13.969 11.99 L 13.588 11.99 L 13.772 11.526 Z  M 13.834 11.241 L 13.711 11.241 L 13.185 12.528 L 13.365 12.528 L 13.518 12.155 L 14.039 12.155 L 14.201 12.528 L 14.381 12.528 L 13.834 11.241 Z " fill="rgb(255,255,255)"/><path d=" M 15.875 12.528 L 15.721 12.528 L 14.911 11.539 L 14.911 12.528 L 14.749 12.528 L 14.749 11.245 L 14.889 11.245 L 15.713 12.238 L 15.713 11.245 L 15.875 11.245 L 15.875 12.528 Z " fill="rgb(255,255,255)"/><path d=" M 17.101 11.25 L 17.311 11.25 L 16.86 11.857 L 16.86 12.532 L 16.685 12.532 L 16.685 11.857 L 16.234 11.254 L 16.444 11.254 L 16.773 11.696 L 17.101 11.25 Z " fill="rgb(255,255,255)"/></g></g></g></g></g></g></g></svg>