<?xml version="1.0" encoding="utf-8"?>
<!-- Generator: Adobe Illustrator 16.0.0, SVG Export Plug-In . SVG Version: 6.00 Build 0)  -->
<!DOCTYPE svg PUBLIC "-//W3C//DTD SVG 1.1//EN" "http://www.w3.org/Graphics/SVG/1.1/DTD/svg11.dtd">
<svg version="1.1" id="Layer_1" xmlns="http://www.w3.org/2000/svg" xmlns:xlink="http://www.w3.org/1999/xlink" x="0px" y="0px"
	 width="24px" height="24px" viewBox="0 0 24 24" enable-background="new 0 0 24 24" xml:space="preserve">
<path fill="#5172B4" d="M18.467,16.301c1.678-1.715,2.801-3.963,2.801-6.531c0-4.978-4.041-9.02-9.02-9.02
	c-4.978,0-9.02,4.042-9.02,9.02c0,2.6,1.027,4.767,2.864,6.589l0,0l5.789,6.391l6.598-6.449H18.467L18.467,16.301z"/>
<g>
	<g>
		<path fill="#FDFDFD" d="M10.482,9.258c0-0.088-0.004-0.176,0-0.264c0.006-0.088-0.005-0.166-0.082-0.223
			c-0.032-0.023-0.145-0.31-0.145-0.354c0-0.125,0.011-0.471,0.043-0.505c0.043-0.046,0.245-0.394,0.172-0.803
			c0.004-0.069-0.096-0.13-0.157-0.185c-0.042-0.037-0.059-0.076-0.059-0.131c0.002-0.143-0.021-0.289,0.008-0.426
			c0.025-0.129,0.083-0.255,0.178-0.36c0.068-0.076,0.718-0.597,0.838-0.601c0.044-0.001,0.093-0.134,0.042-0.156
			c-0.093-0.042-0.099-0.135-0.174-0.26c-0.006-0.141-0.1-0.141,0.035-0.743c0.01-0.06,0.728-0.623,0.874-0.72
			c0.099-0.064,0.429-0.209,0.493-0.211c0.119-0.004,0.455-0.238,1.122,0.087c0.016,0.023,1.299,1.121,1.422,1.334
			c0.075,0.07,0.132,0.165,0.196,0.247c0.205,0.269,0.126,0.802,0.071,0.813c-0.143,0.175-0.259,0.422-0.278,0.424
			c-0.112,0.008-0.272,0.267-0.345,0.257c-0.134-0.02-0.184,0.035-0.162,0.164c0.021,0.139-0.091,0.207-0.165,0.29
			c-0.035,0.04-0.044,0.081-0.066,0.12c-0.075,0.134-0.227,0.727-0.244,0.887c-0.006,0.052-0.104,0.219-0.103,0.271
			c0.001,0.018-0.095,0.291-0.215,0.363c-0.046,0.027-0.046,0.072-0.007,0.104c0.054,0.045,0.079,0.118,0.153,0.143
			c0.014,0.006,0.171,0.244,0.17,0.379c-0.002,0.162-0.015,0.327,0.004,0.488c0.017,0.15-0.051,0.254-0.135,0.357
			c-0.015,0.018-1.236,0.757-2.207,0.874c-0.063-0.02-0.175-0.48-0.403-0.281c-0.373,0.238-0.619-0.369-0.62-0.379
			c-0.193-0.298-0.255-0.662-0.255-0.729C10.481,9.442,10.482,9.349,10.482,9.258z"/>
		<path fill="#FCFCFC" d="M9.006,11.908c0.176-0.004,0.354-0.016,0.505,0.095c0.168,0.075,0.204,0.192,0.243,0.332
			c0,0,0.033,0.201,0,0.228c-0.013,0-0.027,0-0.025,0.016c0.022,0.311,0.005,0.623,0.009,0.936c0.001,0.051,0.011,0.109-0.033,0.152
			c-0.086,0.027-0.177-0.014-0.262,0.023c-0.033,0.006-0.06,0.047-0.1,0.018c-0.036-0.051-0.025-0.111-0.026-0.168
			c-0.002-0.361,0.004-0.723-0.002-1.084c-0.006-0.026-0.012-0.054-0.006-0.082c0.007-0.031-0.017,0.003-0.021-0.009
			c-0.07-0.069-0.08-0.182-0.171-0.237c-0.062-0.065-0.134-0.036-0.204-0.025c-0.042,0.013-0.077,0.034-0.095,0.078
			c-0.055,0.071-0.104,0.146-0.16,0.219c-0.068,0.165-0.046,0.336-0.048,0.506c0,0.227,0,0.453,0,0.678
			c-0.013,0.15-0.027,0.164-0.173,0.168c-0.06,0-0.117,0.002-0.175-0.008c-0.058-0.02-0.073-0.076-0.102-0.121
			c0-0.016,0.004-0.029,0.01-0.043c0.021-0.053,0.016-0.107,0.017-0.162c0-0.576,0-1.152,0-1.727c0-0.063,0.006-0.127-0.033-0.181
			c-0.018-0.08-0.035-0.16,0.017-0.234c0.15-0.005,0.302-0.025,0.452,0.011c-0.003,0.007-0.001,0.014,0.003,0.019
			c0.043,0.059,0.036,0.126,0.029,0.191c-0.012,0.142-0.003,0.282-0.005,0.424c-0.002,0.069,0.019,0.115,0.102,0.094
			c0.058-0.028,0.116-0.056,0.174-0.083C8.948,11.907,8.981,11.928,9.006,11.908z"/>
		<path fill="#FCFCFC" d="M14.376,12.385c0.078-0.205,0.223-0.337,0.434-0.399c0.007,0.002,0.346-0.13,0.525-0.1
			c0.065,0.011,0.132,0.021,0.195,0.044c0.036,0.013,0.075,0.019,0.11,0.001c0.163-0.076,0.327-0.013,0.49-0.003
			c0.006,0,0.01,0.013,0.013,0.021c0,0.586,0.003,1.17-0.002,1.754c-0.015,0.025-0.036,0.025-0.061,0.018
			c-0.05-0.074-0.035-0.16-0.035-0.242c-0.003-0.455-0.001-0.908-0.001-1.196c0.004,0.323-0.008,0.815,0.004,1.305
			c0,0.037,0.005,0.076-0.017,0.109c-0.012,0.018-0.027,0.029-0.049,0.031c-0.063-0.008-0.041-0.1-0.108-0.107
			c-0.082-0.008-0.138,0.029-0.182,0.09c-0.01,0.008-0.021,0.008-0.032,0.002c-0.037-0.049-0.072-0.023-0.105,0.004
			c-0.031,0.055-0.09,0.023-0.132,0.045h-0.011l-0.01,0.004c-0.041,0.023-0.091-0.002-0.133,0.021
			c-0.098-0.008-0.194-0.016-0.291-0.023c-0.048-0.023-0.15-0.051-0.15-0.051c-0.041-0.018-0.087-0.027-0.121-0.057
			c-0.243-0.121-0.265-0.234-0.289-0.258c-0.04-0.061-0.134-0.238-0.158-0.404c-0.013-0.059-0.03-0.186,0.002-0.246
			C14.248,12.631,14.366,12.402,14.376,12.385z"/>
		<path fill="#FCFCFC" d="M6.391,13.564L6.391,13.564c0.019,0.07,0.074,0.035,0.11,0.035c0.371,0.006,0.742-0.004,1.112,0.006
			c0.013,0.012,0.014,0.027,0.003,0.041c-0.049,0.035-0.104,0.027-0.157,0.027c-0.335-0.002-0.67,0.004-1.004-0.002
			c-0.018-0.002-0.034-0.004-0.045,0.014c-0.007,0.02-0.018,0.037-0.038,0.047c-0.169,0.016-0.339,0.004-0.508,0.006
			c-0.036,0-0.079,0.004-0.08-0.053c0.017-0.145,1.182-2.123,1.232-2.256c-0.001-0.017,0.003-0.031,0.011-0.046
			c0.007-0.01,0.015-0.018,0.023-0.024c0.026-0.021,0.047-0.052,0.085-0.059c0.119-0.012,0.239-0.005,0.358-0.005
			c0.051,0,0.1,0.007,0.128,0.058c0.021,0.056-0.193,0.388-0.202,0.404C7.405,11.784,6.451,13.521,6.391,13.564z"/>
		<path fill="#FCFCFC" d="M18.087,13.486c-0.05,0.043-0.099,0.086-0.147,0.127c-0.064,0.1-0.174,0.117-0.274,0.145
			c-0.086,0.023-0.159,0.027-0.25,0.021c-0.045-0.02-0.071-0.016-0.123-0.018c-0.027-0.002-0.103-0.023-0.101-0.063
			c0.001-0.033,0.037-0.043,0.063-0.051c0.072-0.023,0.221-0.029,0.308-0.057c0.06,0.016,0.14-0.082,0.206-0.139
			c0.106-0.078,0.138-0.199,0.084-0.33c-0.099-0.199-0.369-0.338-0.457-0.367c-0.077-0.016-0.696-0.359-0.742-0.416
			c-0.18-0.168-0.175-0.372-0.109-0.584c0.021-0.068,0.048-0.142,0.102-0.196c0.01-0.006,0.021-0.012,0.032-0.013
			c0.057,0.021,0.104,0.07,0.172,0.051c0.023,0.012,0.03,0.032,0.034,0.058c-0.004,0.064-0.021,0.128-0.008,0.194
			c0.011,0.061,0.192,0.188,0.235,0.229c0.168,0.101,0.341,0.192,0.527,0.253c0.063,0.026,0.338,0.177,0.461,0.279
			c0.066,0.055,0.169,0.186,0.162,0.326c-0.018,0.066-0.018,0.133,0.001,0.201C18.259,13.281,18.21,13.404,18.087,13.486z"/>
		<path fill="#FCFCFC" d="M10.599,13.635c-0.1-0.072-0.173-0.172-0.246-0.266c-0.136-0.141-0.15-0.293-0.17-0.457
			c-0.012-0.104,0-0.207,0.02-0.311c0.102-0.341,0.32-0.572,0.66-0.687c0.027-0.009,0.058-0.009,0.086-0.002
			c0.118,0.016,0.237,0.017,0.355-0.002c0.041-0.007,0.078-0.001,0.109,0.029c0.027,0.059,0.066,0.087,0.134,0.106
			c0.115,0.033,0.209,0.11,0.267,0.224c0.097,0.103,0.132,0.236,0.181,0.363l-0.002-0.002c0.017,0.039,0.004,0.064-0.039,0.072
			c-0.03,0.006-0.058-0.002-0.075-0.029c-0.021-0.033-0.019-0.072-0.028-0.113c-0.017,0.045-0.002,0.111-0.066,0.104
			c-0.054-0.004-0.05-0.061-0.051-0.102c-0.003-0.07-0.043-0.095-0.105-0.094c-0.095,0.002-0.129-0.044-0.156-0.138
			c-0.059-0.203-0.191-0.304-0.423-0.273c-0.185,0.025-0.325,0.207-0.316,0.399c0.006,0.116-0.031,0.219-0.081,0.321
			c0.007,0.041,0.033,0.049,0.07,0.045c0.036-0.004,0.074-0.004,0.075,0.049c-0.003,0.031-0.04,0.023-0.051,0.045
			c-0.001,0.01-0.007,0.016-0.016,0.018l0.002-0.002c-0.019,0.064-0.016,0.127-0.001,0.189c-0.01,0.117,0.027,0.229,0.059,0.34
			c-0.037,0.012-0.047,0.031-0.043,0.074c0.005,0.051,0.041,0.102,0.011,0.156C10.682,13.715,10.659,13.668,10.599,13.635z"/>
		<path fill="#FCFCFC" d="M13.971,13.666c-0.012,0.08-0.073,0.08-0.133,0.082c-0.133,0.004-0.266-0.002-0.398,0
			c-0.055,0.008-0.083-0.027-0.106-0.068c-0.076-0.133-0.175-0.25-0.261-0.377c-0.052-0.078-0.093-0.1-0.153-0.012
			c-0.017,0.025-0.038,0.057-0.078,0.051c-0.021-0.014-0.033-0.035-0.042-0.057c-0.051-0.143-0.049-0.137,0.09-0.188
			c0.113-0.039,0.227-0.092,0.235-0.24c-0.034,0.006-0.03,0.039-0.041,0.061c-0.013,0.025-0.018,0.055-0.035,0.078
			c-0.018,0.025-0.046,0.035-0.071,0.051c-0.05,0.025-0.104,0.053-0.141-0.012c-0.029-0.053-0.048-0.117,0.03-0.156
			c-0.014-0.143-0.008-0.283-0.009-0.426c0-0.321-0.001-0.643,0.001-0.965c0-0.056-0.017-0.118,0.04-0.161
			c0.058,0.026,0.029,0.078,0.03,0.117c0.002,0.401,0.004,0.802-0.001,1.203c-0.001,0.092,0.046,0.18,0.026,0.236
			c0.155-0.227,0.335-0.48,0.514-0.736c0.021-0.03,0.09-0.113,0.127-0.126c0.041-0.009,0.023,0.063,0.039,0.099
			c0.008,0.045-0.007,0.087-0.018,0.13c-0.049,0.102-0.104,0.123-0.194,0.27c-0.004,0.002-0.009,0.004-0.012,0.006
			c-0.135,0.23-0.135,0.232,0.107,0.514C13.638,13.182,13.962,13.563,13.971,13.666z"/>
		<path fill="#FCFCFC" d="M10.633,12.785c-0.019-0.01-0.047-0.029-0.028-0.043c0.111-0.09,0.097-0.207,0.085-0.328
			c-0.021-0.215,0.276-0.446,0.504-0.392c0.177,0.043,0.288,0.151,0.316,0.333c0.008,0.049,0.017,0.083,0.073,0.076
			c0.135-0.012,0.211,0.032,0.183,0.183c-0.001,0.008,0.005,0.016,0.009,0.021c0.002,0.004,0.008,0.004,0.021,0.01
			c0.041-0.049-0.001-0.121,0.035-0.177c0.066,0.037,0.057,0.095,0.06,0.15c0,0.025,0.002,0.053,0.032,0.061
			c0.042,0.01,0.07-0.031,0.078-0.07c0.007,0.01,0.021,0.137,0.014,0.172c0.012,0.107-0.042,0.141-0.141,0.127
			c-0.085-0.018-0.171-0.021-0.256-0.002c-0.044,0.006-0.087,0.006-0.13,0c-0.075-0.041,0.002-0.066,0.008-0.102
			c0.003-0.01,0.006-0.018,0.011-0.027s0.011-0.018,0.016-0.025c0.008-0.031,0.031-0.064-0.015-0.088
			c-0.008-0.01-0.013-0.018-0.018-0.029c-0.017-0.086-0.019-0.175-0.05-0.259c-0.013-0.025-0.025-0.053-0.036-0.08
			c-0.124-0.238-0.349-0.275-0.529-0.086c-0.116,0.133-0.104,0.302-0.132,0.46c-0.006,0.027-0.003,0.059-0.011,0.086
			c-0.005,0.014-0.013,0.023-0.022,0.033C10.682,12.805,10.657,12.807,10.633,12.785z"/>
		<path fill="#FCFCFC" d="M16.86,11.656c-0.001-0.021-0.005-0.04-0.025-0.051c-0.182-0.009-0.107-0.066-0.036-0.128
			c0.032-0.027,0.07-0.045,0.109-0.06c0.029-0.013,0.061-0.02,0.086-0.04c0.055-0.033,0.114-0.042,0.18-0.036
			c0.111,0.01,0.226,0.018,0.335,0c0.171-0.025,0.308,0.039,0.44,0.13c0.061,0.033,0.091,0.106,0.163,0.125
			c0.06,0.038,0.087,0.126,0.067,0.196c-0.016,0.051-0.038,0.072-0.112,0.06l0.002,0.001c-0.049-0.033-0.073-0.082-0.092-0.136
			c-0.002-0.035-0.021-0.056-0.055-0.066c-0.082-0.047-0.173-0.082-0.239-0.152c-0.032-0.062-0.086-0.062-0.145-0.051
			c-0.137-0.016-0.271-0.028-0.403,0.03c-0.028,0.041-0.068,0.057-0.114,0.065c-0.041,0.002-0.123,0.148-0.134,0.146
			C16.875,11.68,16.87,11.666,16.86,11.656z"/>
		<path fill="#FCFCFC" d="M10.757,13.691c-0.039-0.059-0.035-0.127-0.047-0.193c-0.018-0.098,0.037-0.057,0.079-0.037
			c0.007,0.008,0.015,0.016,0.021,0.021c0.109,0.141,0.253,0.174,0.421,0.135c0.189-0.051,0.356-0.135,0.488-0.287
			c0.035-0.043,0.069-0.104,0.144-0.068h-0.001c0.124,0.055,0.121,0.104-0.01,0.215c-0.093,0.063-0.179,0.135-0.269,0.203
			c-0.012,0.004-0.023,0.008-0.036,0.01c-0.087,0.002-0.162,0.094-0.258,0.029c-0.049-0.039-0.104-0.004-0.133-0.014
			c0.028-0.002,0.08-0.016,0.13,0.012c0.006,0.016,0.003,0.027-0.01,0.035c-0.081,0.037-0.167,0.018-0.251,0.02
			c-0.088-0.012-0.17-0.045-0.256-0.066C10.767,13.701,10.761,13.695,10.757,13.691z"/>
		<path fill="#FCFCFC" d="M7.041,11.404c-0.008,0.009-0.016,0.017-0.024,0.025c-0.382-0.001-0.765-0.006-1.147,0.001
			c-0.103,0.001-0.146-0.025-0.135-0.126c-0.006-0.026,0.006-0.034,0.028-0.029c0.033,0.024,0,0.062,0.018,0.091
			c-0.007,0.013,0.016-0.011-0.002-0.008c-0.01,0.001-0.009-0.001-0.002-0.012c0.035-0.059,0.109-0.041,0.155-0.08
			c0.308,0.002,0.616-0.003,0.924,0.003c0.025,0.012,0.033,0.033,0.034,0.058c-0.001,0.026-0.008,0.048-0.031,0.062
			c-0.326,0.006-0.652,0.001-0.913,0.003c0.282-0.015,0.631,0.026,0.979-0.018C6.967,11.368,7.007,11.373,7.041,11.404z"/>
		<path fill="#FCFCFC" d="M16.185,11.053c0.007-0.009,0.014-0.019,0.021-0.028c0.056-0.167,0.109-0.199,0.272-0.161
			c0.063,0.086-0.007,0.146-0.042,0.214c-0.045,0.084-0.141,0.132-0.166,0.23c0.006,0.068-0.034,0.111-0.088,0.144
			c-0.083,0.02-0.167,0.059-0.248-0.004c-0.019-0.023-0.014-0.05,0-0.071C16.011,11.264,16.069,11.137,16.185,11.053z"/>
		<path fill="#FCFCFC" d="M16.71,13.313c0.08,0.152,0.237,0.191,0.376,0.256c0.005,0.006,0.01,0.014,0.017,0.018
			c0.106,0.047,0.172,0.057,0.091,0.154c-0.353-0.09-0.598-0.262-0.631-0.359c0.002-0.008-0.002-0.014-0.009-0.018
			c-0.04-0.104-0.015-0.135,0.103-0.141C16.685,13.23,16.68,13.289,16.71,13.313z"/>
		<path fill="#FCFCFC" d="M7.62,13.639c0-0.006,0-0.014,0-0.021c0.034-0.02,0.037,0.01,0.046,0.031c0,0.072-0.014,0.115-0.11,0.115
			c-0.576-0.006-1.153-0.002-1.729-0.004c-0.031,0-0.081,0.023-0.091-0.035c-0.005-0.035,0.024-0.037,0.049-0.039
			c0.057,0.055,0.128,0.025,0.191,0.027c0.138,0.004,0.276,0,0.413,0c0.049-0.043,0.11-0.033,0.168-0.033
			c0.297-0.002,0.594,0,0.891,0c0.046-0.002,0.092,0.002,0.137-0.012C7.598,13.658,7.608,13.65,7.62,13.639z"/>
		<path fill="#FCFCFC" d="M9.798,13.764c-0.156,0-0.313,0-0.469,0c-0.004-0.008-0.005-0.012-0.008-0.02
			c0.008-0.012,0.018-0.018,0.031-0.02c0.049,0,0.086-0.035,0.134-0.041c0.017-0.002,0.034-0.004,0.051-0.004
			c0.192-0.006,0.191-0.006,0.192-0.203c0.001-0.266-0.003-0.529,0.001-0.791c0.003-0.051,0.024-0.098,0.039-0.145
			c0.01-0.014,0.021-0.014,0.031,0c0.003,0.021,0.004,0.045,0.006,0.068c0.028,0.076,0.023,0.156,0.023,0.234
			c0,0.252,0,0.502-0.001,0.752C9.829,13.652,9.835,13.711,9.798,13.764z"/>
		<path fill="#FCFCFC" d="M11.558,11.329c0.023,0.172,0.023,0.172-0.144,0.172c-0.196,0-0.392,0-0.588,0
			c-0.184,0-0.188-0.003-0.146-0.198c0.005,0.001,0.012,0.003,0.016,0.003c0.011,0.008,0.017,0.016,0.022,0.026
			c0.002,0.011,0.002,0.021,0.002,0.033c-0.004,0.023-0.017,0.048-0.008,0.071c0.01,0.03,0.016-0.013,0.026-0.005
			c0.031-0.011,0.062-0.011,0.092-0.012c0.213-0.005,0.427,0.011,0.638-0.009c0.021-0.011,0.034-0.029,0.042-0.052
			c0.004-0.011,0.01-0.02,0.017-0.028C11.538,11.323,11.547,11.322,11.558,11.329z"/>
		<path fill="#FCFCFC" d="M17.63,11.32c0.126,0.058,0.265,0.078,0.364,0.182c-0.009,0.015-0.02,0.016-0.03,0.003
			c-0.203-0.162-0.444-0.13-0.679-0.123c-0.1,0.002-0.206-0.06-0.299,0.023c-0.018-0.004-0.057-0.013-0.061-0.03
			c0.079-0.047,0.193-0.069,0.285-0.072c0.05,0.048,0.109,0.011,0.163,0.018c0.049,0.006,0.098,0.007,0.157,0.034
			c-0.03-0.02-0.072-0.023-0.055-0.056C17.459,11.293,17.566,11.292,17.63,11.32z"/>
		<path fill="#FCFCFC" d="M11.558,11.329c-0.006,0-0.013,0.001-0.02,0.001c-0.033,0.029-0.074,0.034-0.117,0.034
			c-0.188-0.002-0.374,0.006-0.563-0.005c-0.057-0.015-0.116-0.022-0.17-0.052l-0.008-0.005c0.261-0.036,0.523-0.008,0.785-0.015
			C11.496,11.288,11.557,11.251,11.558,11.329z"/>
		<path fill="#FCFCFC" d="M16.127,13.713c0,0.018-0.001,0.033-0.001,0.049c-0.049-0.01-0.096,0.039-0.145,0.004
			c-0.075,0.018-0.15,0.018-0.226,0c-0.019-0.041-0.115,0.061-0.095-0.053c0.007,0.002,0.013,0.002,0.019,0
			c0.093-0.051,0.185-0.057,0.277,0c0.016,0,0.032,0,0.05,0c0.024-0.02,0.05-0.02,0.074,0
			C16.098,13.713,16.113,13.713,16.127,13.713z"/>
		<path fill="#FCFCFC" d="M17.554,11.306c0.018,0.015-0.044,0.021-0.015,0.049c-0.112,0-0.208-0.002-0.303,0
			c-0.041,0-0.053-0.015-0.037-0.053C17.292,11.279,17.461,11.277,17.554,11.306z"/>
		<path fill="#FCFCFC" d="M16.505,10.997c-0.064,0.071-0.118,0.148-0.167,0.232c-0.018,0.026-0.036,0.052-0.055,0.077l-0.008,0.01
			l-0.014-0.001c-0.002-0.109,0.09-0.162,0.139-0.24c0.036-0.061,0.095-0.106,0.083-0.188c0.031,0.001,0.08-0.032,0.073,0.038
			C16.529,10.942,16.505,10.96,16.505,10.997z"/>
		<path fill="#FCFCFC" d="M11.813,12.211c0.017,0.018,0.174,0.224,0.179,0.306c0.002,0.031,0.005,0.063,0.009,0.092
			c-0.044-0.01-0.053-0.047-0.063-0.082c-0.027-0.1-0.076-0.189-0.145-0.267C11.778,12.236,11.772,12.215,11.813,12.211z"/>
		<path fill="#FCFCFC" d="M16.653,11.543c0.064-0.046,0.128-0.093,0.193-0.139c0.008-0.001,0.016,0,0.022,0.003
			c0.01,0.008,0.024,0.011,0.023,0.025c-0.026,0.019-0.052,0.042-0.082,0.054c-0.089,0.033-0.074,0.071-0.009,0.114
			C16.718,11.668,16.692,11.588,16.653,11.543z"/>
		<path fill="#FCFCFC" d="M13.606,11.978c0.009-0.001,0.015-0.004,0.021-0.008c0.034,0.004,0.074-0.032,0.103,0.003
			c0.031,0.038-0.015,0.064-0.028,0.095c-0.014,0.029-0.033,0.055-0.05,0.083c-0.019,0.009-0.035,0.009-0.05-0.007
			c-0.016-0.017-0.032-0.032-0.049-0.05c-0.012-0.031,0.024-0.047,0.024-0.074C13.588,12.005,13.598,11.992,13.606,11.978z"/>
		<path fill="#FCFCFC" d="M10.838,13.486c0.091,0.16,0.252,0.137,0.397,0.154c-0.151,0.063-0.281,0.016-0.401-0.08
			c-0.028-0.021-0.024-0.049-0.023-0.078C10.82,13.484,10.828,13.486,10.838,13.486z"/>
		<path fill="#FCFCFC" d="M16.916,11.906c0.015,0.028,0.028,0.056,0.042,0.083c-0.122-0.06-0.147-0.146-0.098-0.333
			c0.01,0.012,0.02,0.021,0.029,0.033c0.023,0.063-0.01,0.132,0.02,0.194C16.912,11.891,16.915,11.899,16.916,11.906z"/>
		<path fill="#FCFCFC" d="M16.18,11.428c-0.007,0.018-0.014,0.034-0.021,0.052c-0.092,0.035-0.183,0.03-0.275,0.005
			c0.018-0.019,0.034-0.037,0.051-0.055C16.017,11.476,16.099,11.453,16.18,11.428z"/>
		<path fill="#FCFCFC" d="M17.698,11.485c-0.015-0.001-0.027-0.001-0.042-0.002c-0.033-0.011-0.066-0.023-0.1-0.035
			C17.658,11.418,17.671,11.421,17.698,11.485z"/>
		<path fill="#FCFCFC" d="M16.882,11.43c-0.008-0.009-0.016-0.018-0.025-0.025c0.023-0.009,0.046-0.02,0.069-0.03
			c0.011,0.011,0.021,0.02,0.032,0.03C16.939,11.433,16.909,11.428,16.882,11.43z"/>
		<path fill="#FCFCFC" d="M13.771,13.389c0.009,0.016,0.019,0.033,0.026,0.049c-0.058,0.006-0.078-0.02-0.057-0.074
			C13.751,13.373,13.761,13.379,13.771,13.389z"/>
		<path fill="#141414" d="M12.846,7.303c-0.033-0.084-0.094-0.151-0.149-0.221c-0.104-0.107-0.184-0.234-0.272-0.353
			c-0.054-0.069-0.095-0.11-0.179-0.053c-0.021,0.014-0.049,0.008-0.074,0.005c-0.054-0.017-0.105,0-0.156,0.02
			c-0.025,0.009-0.052,0.018-0.078,0.025c-0.032,0.01-0.064,0.015-0.097,0.025c-0.028,0.01-0.057-0.011-0.084,0.003
			c-0.32,0.063-0.643,0.127-0.964,0.19c-0.008,0.001-0.018,0.004-0.021,0.01c-0.135,0.156-0.155-0.003-0.209-0.072
			c-0.032-0.032-0.036-0.074-0.045-0.114c0.001-0.036,0.044-0.063,0.023-0.104c0-0.017-0.018-0.002-0.002,0
			c0.007,0.001,0.007,0.014,0.006,0.022c-0.003,0.013-0.008,0.022-0.021,0.026c-0.03-0.012-0.032-0.031-0.018-0.056
			c-0.002-0.027-0.004-0.056-0.005-0.084c-0.053,0.008-0.024,0.066-0.07,0.088c-0.021-0.134,0.022-0.244,0.079-0.352
			c0.068-0.18,0.236-0.263,0.365-0.384c0.033-0.031,0.071-0.058,0.11-0.082c0.027-0.019,0.046-0.045,0.067-0.069
			c0.009-0.006,0.018-0.011,0.028-0.014c0.027-0.009,0.057-0.016,0.07-0.047c0.001-0.019,0.035-0.015,0.029-0.04
			c0.035-0.021,0.072-0.044,0.107-0.066c0.035-0.032,0.078-0.047,0.125-0.055c0.008,0,0.017,0,0.025,0
			c0.119,0.025,0.23-0.032,0.35-0.035c0.353-0.007,0.684,0.091,1.012,0.204c0.388,0.134,0.755,0.312,1.087,0.554
			c0.056,0.04,0.105,0.084,0.145,0.139c0.026,0.038,0.067,0.083,0.056,0.122c-0.029,0.1-0.008,0.178,0.063,0.249
			c-0.009,0.049-0.017,0.099-0.025,0.148c0.009,0.037-0.004,0.068-0.027,0.097c-0.062,0.164-0.129,0.328-0.146,0.506
			c0.009,0.016,0.012,0.031-0.007,0.043c-0.028,0.075-0.043,0.152-0.046,0.233c0.008,0.024-0.008,0.032-0.027,0.035
			c-0.07-0.025-0.052-0.089-0.055-0.139c-0.008-0.093-0.031-0.174-0.13-0.206c-0.097-0.031-0.159,0.025-0.215,0.091
			c-0.06,0.069-0.117,0.141-0.179,0.208c-0.084,0.088-0.089,0.088-0.149-0.014c-0.045-0.079-0.091-0.159-0.127-0.243
			c-0.021-0.05-0.046-0.099-0.101-0.122C12.872,7.396,12.857,7.351,12.846,7.303z"/>
		<path fill="#141414" d="M13.925,9.674c-0.07,0.132-0.159,0.244-0.295,0.317c-0.092,0.05-0.175,0.117-0.263,0.175
			c-0.024,0.034-0.062,0.045-0.098,0.057c-0.055,0.016-0.104,0.042-0.148,0.077c-0.015,0.015-0.032,0.019-0.053,0.015
			c-0.02-0.004-0.031-0.016-0.037-0.036c0.007-0.057,0.068-0.05,0.094-0.077c-0.091,0.035-0.166,0.111-0.27,0.131
			c-0.017,0.004,0-0.007-0.011,0.003c-0.014,0.011,0.008,0.002,0.009,0.007c0.024,0.012,0.049,0.023,0.045,0.057
			c-0.03,0.027-0.064,0.047-0.106,0.051c-0.046,0.008-0.091,0.021-0.13,0.049c-0.026,0.029-0.062,0.025-0.096,0.027
			c-0.06,0.007-0.118,0.023-0.172,0.051c-0.023,0.02-0.047,0.035-0.078,0.025c-0.11,0.032-0.22,0.064-0.328,0.096
			c-0.042-0.017-0.083,0.002-0.124,0.001c-0.031-0.089-0.112-0.153-0.131-0.248c-0.046-0.022-0.063-0.065-0.085-0.107
			c-0.015-0.019-0.025-0.041-0.037-0.063c-0.045-0.082-0.094-0.093-0.168-0.039c-0.037,0.027-0.062,0.067-0.103,0.09
			c-0.079-0.01-0.069-0.052-0.036-0.102c0.048-0.07,0.114-0.128,0.149-0.207c0.004-0.017,0.011-0.032,0.021-0.046
			c0.008-0.008,0.018-0.013,0.028-0.013c0.021,0.007,0.035,0.021,0.054,0.031c0.015,0.005,0.029,0.008,0.044,0.014
			c0.03,0.011,0.064,0.012,0.09,0.033c0.009,0.009,0.008,0.026,0.021,0.031c-0.011-0.017-0.003-0.029,0.01-0.041
			c0.157-0.067,0.329-0.083,0.495-0.122c0.209-0.051,0.398-0.139,0.568-0.271c0.061-0.049,0.123-0.063,0.195-0.046
			c0.034,0.008,0.059,0.03,0.086,0.046c0.02,0.012-0.044,0.058,0.016,0.029c0.104-0.051,0.211-0.097,0.316-0.148
			c0.084-0.06,0.182-0.105,0.224-0.211c0.014-0.043,0.029-0.085,0.052-0.124c0.021-0.035,0.03-0.069-0.017-0.093
			c-0.052-0.026-0.075,0-0.088,0.047c-0.007,0.024-0.019,0.046-0.042,0.061c-0.026,0.01-0.045-0.003-0.063-0.023
			c-0.001-0.005-0.003-0.012-0.005-0.017c0-0.007,0.001-0.012,0.002-0.018c0.004-0.012,0.009-0.022,0.016-0.032
			c0.035-0.066-0.026-0.163,0.067-0.209c0.025,0.006,0.05,0.012,0.076,0.018c0.021,0,0.037,0.006,0.052,0.024
			c0.061,0.027,0.108,0.071,0.149,0.125c0.018,0.012,0.024,0.031,0.024,0.051c0.035,0.147,0.07,0.295,0.106,0.441
			C13.964,9.604,13.965,9.644,13.925,9.674c-0.021-0.058-0.032-0.119-0.043-0.18C13.894,9.554,13.9,9.617,13.925,9.674z"/>
		<path fill="#BDBEC0" d="M11.688,10.052c-0.036-0.009-0.077,0.006-0.107-0.025c0.008-0.024,0.047-0.017,0.047-0.049
			c0.004-0.009,0.011-0.018,0.019-0.023c0.041-0.013,0.079-0.031,0.123-0.034c0.028-0.021,0.071-0.025,0.075-0.071
			c0.1-0.062,0.212-0.067,0.323-0.074c0.271-0.045,0.504-0.131,0.614-0.422c0.078-0.209,0.174-0.412,0.21-0.648
			c-0.117,0.052-0.197,0.138-0.292,0.2c-0.058,0.038-0.113,0.073-0.185,0.063c-0.011-0.04,0.025-0.044,0.046-0.06
			c0.037-0.031,0.073-0.064,0.107-0.1c0.007-0.014,0.015-0.027,0.023-0.039c0.062-0.035,0.094-0.096,0.127-0.153l-0.002,0.002
			c0.03-0.04,0.039-0.094,0.076-0.131c-0.008-0.109,0.063-0.196,0.106-0.282c0.122-0.243,0.07-0.467-0.031-0.692
			c-0.03-0.027-0.065-0.051-0.05-0.101c0.037-0.012,0.059-0.003,0.077,0.035c0.068,0.133,0.142,0.265,0.216,0.404
			c0.092-0.107,0.186-0.211,0.275-0.318c0.053-0.065,0.116-0.097,0.197-0.067s0.143,0.073,0.157,0.172
			c0.011,0.071-0.024,0.151,0.035,0.214c0.01,0.016,0.009,0.03,0.002,0.047C13.847,7.943,13.84,8,13.808,8.045
			c-0.003,0.046-0.043,0.077-0.049,0.123c0.002,0.017,0.004,0.033-0.004,0.05c-0.021,0.034-0.064,0.045-0.085,0.081
			c0.026,0.054-0.041,0.059-0.051,0.093c-0.036,0.025-0.074,0.049-0.099,0.089l0.002-0.003c-0.048,0.036-0.071,0.075-0.032,0.135
			c0.025,0.039,0.022,0.089,0.011,0.135C13.488,8.84,13.5,8.934,13.495,9.029c-0.002,0.039,0.007,0.081-0.027,0.114l0.003,0.001
			c-0.088,0.182-0.225,0.32-0.384,0.438c-0.025,0.027-0.064,0.024-0.095,0.039c-0.13-0.053-0.193,0.057-0.28,0.114
			c-0.258,0.173-0.558,0.225-0.852,0.287c-0.049,0.01-0.099,0.019-0.146,0.028C11.705,10.061,11.696,10.061,11.688,10.052z"/>
		<path fill="#363434" d="M14.149,6.787c-0.013-0.012-0.023-0.027-0.039-0.031c-0.091-0.025-0.177-0.046-0.054-0.151
			c0.035-0.029,0.003-0.071-0.012-0.104c-0.06-0.128-0.174-0.202-0.286-0.273c-0.532-0.344-1.112-0.567-1.737-0.667
			c-0.146-0.023-0.302-0.023-0.447,0.027c-0.058,0.021-0.104,0.029-0.137-0.032c0.057-0.056,0.089-0.127,0.128-0.194
			c-0.003-0.059,0.077-0.082,0.063-0.146c0.015-0.036,0.051-0.042,0.081-0.058c0.118-0.029,0.12-0.027,0.118,0.106
			c-0.004,0.011-0.011,0.021-0.02,0.027c-0.051,0.022-0.11,0.026-0.147,0.072c-0.018,0.022-0.025,0.043,0.013,0.05
			c0.072,0.012,0.145,0.004,0.216,0.008c0.711,0.104,1.374,0.341,1.981,0.729c0.038,0.024,0.076,0.051,0.11,0.081
			c0.088,0.08,0.183,0.154,0.212,0.279c0.012,0.042,0.005,0.084-0.007,0.124c0.001,0.013-0.009,0.039,0.02,0.026
			c0.024-0.011,0.027-0.039,0.035-0.063c0.042-0.1,0.052-0.101,0.128-0.013l0.008-0.003c0.011,0.027-0.004,0.04-0.025,0.052
			C14.3,6.706,14.233,6.758,14.149,6.787z"/>
		<path fill="#333338" d="M12.237,3.668c0.038,0.002,0.046-0.043,0.078-0.053c0.013-0.016,0.036-0.008,0.052-0.02
			c0.018-0.009,0.034-0.017,0.053-0.024c0.021-0.018,0.038-0.042,0.07-0.027c0.084-0.02,0.167-0.039,0.25-0.059
			c0.021-0.021,0.045-0.037,0.076-0.021c0.018,0.002,0.035,0.006,0.052,0.008c0.092,0.016,0.184,0.016,0.275,0
			c0.018-0.002,0.033-0.004,0.051-0.006c0.024-0.014,0.045-0.013,0.056,0.017c-0.002,0.021-0.023,0.019-0.034,0.027
			c0.03-0.001,0.053-0.022,0.08-0.03c0.018-0.002,0.033,0.001,0.047,0.015c0.021,0.02,0.049,0.026,0.077,0.025
			c0.051-0.013,0.083,0.035,0.129,0.042c0.104,0.04,0.214,0.075,0.273,0.184c0.014,0.033,0.048,0.037,0.074,0.053
			c0.052,0.026,0.087,0.069,0.121,0.114c0.018,0.04,0.04,0.076,0.085,0.092c0.01,0.003,0.02,0.008,0.027,0.015
			c0.03,0.029,0.063,0.057,0.065,0.104c0.01,0.017,0.021,0.032,0.031,0.048c0.039,0.021,0.023,0.068,0.048,0.097
			c0.146,0.048,0.212,0.194,0.332,0.274c0.009,0.007,0.022,0.007,0.033,0.011c0.05,0,0.066,0.039,0.085,0.074
			c0.007,0.042,0.067,0.03,0.071,0.073c-0.002,0.045-0.021,0.094,0.037,0.122c0.016,0.015,0.026,0.034,0.031,0.057
			c0.023,0.118,0.119,0.195,0.173,0.296c0.025,0.05,0.077,0.092,0.042,0.157c-0.011,0.006-0.021,0.008-0.035,0.006
			c-0.127-0.187-0.297-0.346-0.366-0.57c-0.019-0.061-0.06-0.108-0.119-0.119c-0.076-0.012-0.118-0.053-0.147-0.117
			c-0.009-0.019-0.022-0.039-0.04-0.047c-0.19-0.075-0.266-0.259-0.384-0.401c-0.243-0.294-0.55-0.485-0.933-0.498
			c-0.282-0.011-0.554,0.07-0.799,0.221c-0.096,0.059-0.178,0.139-0.286,0.179c-0.02-0.003-0.034-0.012-0.042-0.031
			C11.98,3.803,12.1,3.726,12.237,3.668z"/>
		<path fill="#141414" d="M10.708,9.571c0.001-0.029-0.001-0.058-0.022-0.08c-0.024-0.056-0.022-0.111-0.001-0.167
			c0.021-0.032,0.026-0.067,0.02-0.104c0.003-0.038,0-0.08,0.057-0.078c0.042,0.059,0.07,0.125,0.088,0.192
			c0.063,0.243,0.213,0.421,0.412,0.564c0.032,0.017,0.066,0.033,0.1,0.05c0.096,0.083,0.079,0.164-0.008,0.236
			c-0.092,0.074-0.111,0.217-0.243,0.249c-0.088-0.041-0.098-0.13-0.125-0.209c-0.009-0.017-0.019-0.033-0.026-0.05
			c-0.07-0.04-0.084-0.109-0.099-0.18c-0.039-0.108-0.081-0.217-0.122-0.324C10.711,9.642,10.699,9.61,10.708,9.571z"/>
		<path fill="#FAFAFA" d="M11.459,9.295c0.038,0,0.079-0.001,0.074,0.056c-0.006,0.047-0.043,0.044-0.076,0.044
			c-0.086,0-0.175,0.01-0.26-0.003c-0.113-0.016-0.148,0.03-0.14,0.134c0.001,0.023-0.015,0.047-0.023,0.07
			c-0.087-0.021-0.094-0.098-0.109-0.167c0.014-0.053,0.087-0.042,0.106-0.103c-0.061-0.001-0.065,0.069-0.111,0.075
			c-0.098-0.081-0.096-0.207-0.139-0.313c-0.006-0.024-0.011-0.048-0.019-0.07C10.758,9,10.756,8.983,10.753,8.964
			c0.015-0.093-0.032-0.172-0.052-0.258c0.003-0.005,0.006-0.011,0.009-0.016c0.068,0.008,0.101-0.028,0.11-0.091
			c0.009-0.057,0.027-0.115,0.019-0.168c-0.012-0.076,0.031-0.088,0.081-0.089c0.068,0,0.046,0.053,0.041,0.093
			c-0.037,0.053-0.022,0.096,0.023,0.133c0.02,0.049,0.073,0.063,0.102,0.102c0.064,0.029,0.137-0.012,0.2,0.023
			c0.021,0.092,0.058,0.162,0.174,0.125c0.047-0.014,0.076,0.021,0.104,0.056c-0.014,0.035-0.063,0.006-0.077,0.04
			c-0.046,0.041-0.096,0.012-0.14-0.002c-0.112-0.033-0.224-0.076-0.32-0.146c-0.009-0.002-0.011,0.001-0.005,0.012
			c0.003,0.006,0.004,0.01,0.005,0.011c0.05,0.113,0.035,0.233,0.048,0.351c0.014,0.027,0.013,0.065,0.054,0.069
			c0.022-0.01,0.038-0.03,0.065-0.028c0.038,0.007,0.069,0.028,0.106,0.038c0.021,0.008,0.042,0.019,0.043,0.047
			c-0.02,0.008-0.038,0.016-0.057,0.022c-0.001,0.025,0.02,0.031,0.035,0.042c0.04,0.007,0.081,0.021,0.12,0
			C11.445,9.318,11.449,9.306,11.459,9.295z"/>
		<path fill="#141414" d="M11.058,9.174c-0.032-0.135-0.013-0.278-0.069-0.408c0.01-0.015,0.001-0.038,0.021-0.049
			c0.142,0.108,0.306,0.165,0.478,0.197c0.121,0.037,0.241,0.075,0.369,0.068c0.061-0.003,0.02,0.041,0.031,0.061
			c-0.008,0.007-0.019,0.013-0.027,0.014c-0.026,0.007-0.056,0-0.082,0.007c-0.007-0.003-0.012,0-0.015,0.008
			c-0.019,0.052-0.06,0.077-0.107,0.094c-0.053,0.021-0.082,0.078-0.144,0.079c-0.075,0.003-0.15-0.009-0.226-0.004
			c-0.043,0.005-0.069-0.027-0.101-0.046c-0.027-0.035-0.055,0.025-0.082,0.001c-0.061-0.069-0.015-0.149-0.032-0.21
			C11.06,9.039,11.091,9.11,11.058,9.174z"/>
		<path fill="#161616" d="M12.341,7.637c-0.046,0.01-0.089,0.008-0.126-0.026c-0.125-0.02-0.251-0.017-0.377-0.001
			c-0.101,0.009-0.204,0.087-0.299-0.025c-0.044-0.054-0.044-0.096,0.019-0.123c0.064-0.027,0.133-0.052,0.206-0.048
			c0.084,0.019,0.166,0.002,0.25,0c0.04,0.009,0.081,0.017,0.121,0.024C12.239,7.468,12.322,7.52,12.341,7.637z"/>
		<path fill="#353435" d="M14.369,6.584c-0.045-0.018-0.1-0.08-0.1,0.037c0,0.053-0.047,0.094-0.099,0.089
			c-0.041-0.002-0.016-0.053-0.021-0.081c0.112-0.052,0.052-0.151,0.065-0.229c0.004-0.055-0.02-0.104-0.022-0.156
			c0.003-0.067-0.016-0.128-0.068-0.173c-0.012-0.016-0.019-0.033-0.02-0.052c0.008-0.06,0.051-0.066,0.1-0.064
			c0.023,0.002,0.047,0.011,0.062,0.029c0.057,0.069,0.052-0.005,0.07-0.027c0.011-0.021,0.021-0.05,0.046-0.051
			c0.036,0,0.039,0.034,0.046,0.062c0.004,0.023,0.004,0.048,0.004,0.072c0.001,0.023,0.001,0.047,0.007,0.069
			c0.019,0.061,0.106,0.037,0.12,0.103c-0.006,0.005-0.013,0.011-0.017,0.016c-0.013,0.019-0.023,0.021-0.034-0.001
			c-0.045-0.015-0.091-0.038-0.13,0.013c-0.035,0.08-0.02,0.161-0.006,0.243C14.371,6.516,14.369,6.549,14.369,6.584z"/>
		<path fill="#363436" d="M15.077,5.328c-0.039-0.133-0.133-0.233-0.208-0.344c-0.026-0.037-0.049-0.064-0.018-0.106
			c0.112,0.01,0.153,0.115,0.226,0.177c0.031,0.025,0.046,0.069,0.074,0.1c0.026,0.109,0.114,0.202,0.08,0.324
			c0.01,0.095-0.028,0.164-0.113,0.208c-0.046-0.019-0.044-0.062-0.049-0.1c-0.001-0.031,0-0.062,0.002-0.092
			C15.085,5.44,15.065,5.382,15.077,5.328z"/>
		<path fill="#F6F6F6" d="M10.984,10.224c0.043,0.066,0.087,0.133,0.13,0.2c0.013,0.01,0.028,0.013,0.04,0.021
			c0.07,0.018,0.065-0.061,0.105-0.081c0.02-0.02,0.046-0.029,0.069-0.042c0.003-0.003,0.007-0.005,0.01-0.008
			c0.056-0.068,0.102-0.155,0.206-0.146s0.083,0.12,0.128,0.178c-0.011,0.011-0.022,0.012-0.035,0.004
			c-0.009-0.001-0.018,0-0.025-0.004c-0.05-0.028-0.124-0.092-0.143-0.078c-0.072,0.053-0.126,0.129-0.162,0.214
			c-0.045,0.107-0.128,0.104-0.219,0.031C10.987,10.431,10.93,10.354,10.984,10.224z"/>
		<path fill="#FAFAFA" d="M10.595,8.617c-0.013-0.008-0.025-0.017-0.037-0.024c-0.018-0.04-0.026-0.082-0.048-0.12
			c0-0.036-0.022-0.069-0.026-0.105c0.002-0.069-0.024-0.141,0.004-0.208c0.003-0.032,0.026-0.066-0.01-0.094
			c-0.044-0.007-0.053-0.033-0.034-0.07c0.012-0.022,0.016-0.07,0.063-0.032c0.059,0.03,0.022-0.074,0.075-0.053
			c0.062,0.103,0.008,0.212,0.015,0.316c0.005,0.064,0.026,0.13,0.014,0.195c-0.002,0.015,0.008,0.035,0.018,0.045
			c0.069,0.064,0.087,0.107,0.083,0.225l-0.003,0.002C10.644,8.708,10.653,8.611,10.595,8.617z"/>
		<path fill="#34343B" d="M11.937,3.942c0.01,0.011,0.019,0.02,0.028,0.029c0.011,0.026-0.002,0.046-0.016,0.065
			c-0.054,0.057-0.098,0.129-0.195,0.121c-0.036-0.003-0.06,0.039-0.086,0.063c-0.007,0.009-0.016,0.016-0.023,0.023
			c-0.032,0.028-0.063,0.06-0.085,0.099c-0.005,0.009-0.012,0.019-0.019,0.026c-0.038,0.041-0.067,0.087-0.087,0.139
			c-0.019,0.045-0.033,0.095-0.048,0.142c-0.018,0.043-0.013,0.087,0,0.131c0.002,0.018,0.001,0.036-0.007,0.053
			c-0.009,0.017-0.021,0.03-0.044,0.019c-0.036-0.021-0.018-0.059-0.023-0.089c-0.014-0.067-0.014-0.136,0-0.203
			c0.001-0.028,0.003-0.058,0.004-0.086c0.051-0.19,0.189-0.308,0.34-0.417c0.04-0.011,0.075-0.029,0.106-0.058
			C11.83,3.973,11.868,3.916,11.937,3.942z"/>
		<path fill="#F5F5F5" d="M10.961,7.461c0.026-0.024,0.063-0.063,0.071,0.008c0.012,0.103,0.037,0.206,0.001,0.309
			c-0.01,0.025-0.023,0.01-0.036,0.003c-0.031-0.03-0.054-0.069-0.099-0.081c-0.042-0.019-0.088-0.022-0.13-0.039
			c-0.024-0.006-0.044-0.019-0.055-0.043c-0.012-0.041,0.002-0.084-0.014-0.126c-0.002-0.012-0.004-0.023-0.005-0.035
			c-0.01-0.047-0.033-0.09-0.021-0.14c0.116-0.018,0.146,0.096,0.215,0.148C10.92,7.489,10.938,7.516,10.961,7.461z"/>
		<path fill="#BCBCBC" d="M10.807,9.069c0.042,0.11,0.056,0.23,0.127,0.329c0.008,0.004,0.012,0.008,0.009,0.014
			c-0.001,0.005-0.004,0.008-0.006,0.008c0.026,0.063,0.048,0.127,0.098,0.177c0.076,0.101,0.15,0.201,0.227,0.302
			c-0.147-0.052-0.256-0.153-0.326-0.288c-0.08-0.147-0.147-0.301-0.177-0.47c-0.007-0.008-0.01-0.018-0.007-0.029
			C10.763,9.089,10.769,9.057,10.807,9.069z"/>
		<path fill="#BBBCBD" d="M12.166,6.67c0.02-0.004,0.047,0,0.06-0.011c0.122-0.111,0.172-0.019,0.236,0.07
			c0.083,0.114,0.176,0.222,0.234,0.353c-0.127-0.097-0.258-0.188-0.38-0.292c-0.055-0.044-0.111-0.067-0.177-0.081
			C12.131,6.686,12.143,6.674,12.166,6.67z"/>
		<path fill="#181818" d="M11.714,7.914c0.169-0.086,0.332-0.067,0.5,0.037c-0.086,0.017-0.113,0.114-0.2,0.116
			c-0.063,0.022-0.122,0.017-0.176-0.027c-0.034-0.029-0.073-0.036-0.117-0.034c-0.028,0-0.062,0-0.065-0.039
			C11.65,7.924,11.688,7.926,11.714,7.914z"/>
		<path fill="#F7F7F7" d="M11.009,5.853c-0.174,0.146-0.354,0.281-0.5,0.458c-0.063-0.157,0.092-0.2,0.163-0.265
			c0.039-0.034,0.037-0.048,0.037-0.083c-0.002-0.116,0.084-0.184,0.203-0.158c0.012,0.022,0.024,0.02,0.04,0.002
			c0.007,0,0.015-0.002,0.022-0.004C11.005,5.807,11.018,5.823,11.009,5.853z"/>
		<path fill="#F7F7F7" d="M11.714,7.914c-0.007,0.028-0.065,0.018-0.049,0.059c0.015,0.035,0.04,0.01,0.061,0.004
			c0.058-0.018,0.104-0.027,0.142,0.044c0.025,0.051,0.094,0.044,0.146,0.047c-0.08,0.072-0.168,0.017-0.253,0.021
			c-0.055,0.003-0.112-0.094-0.162,0.005c-0.022-0.021-0.068-0.012-0.063-0.062c0.009-0.053-0.016-0.124,0.07-0.132
			C11.643,7.896,11.681,7.888,11.714,7.914z"/>
		<path fill="#191919" d="M10.961,7.461c0.005,0.04,0.01,0.079,0.016,0.129c-0.119-0.082-0.174-0.213-0.294-0.277
			c-0.014-0.004-0.016-0.019-0.024-0.028c0.021-0.035-0.065-0.147,0.072-0.097c0.086,0.016,0.146,0.063,0.169,0.151
			C10.92,7.38,10.94,7.42,10.961,7.461z"/>
		<path fill="#F6F7F5" d="M15.123,5.678c0.037-0.066,0.072-0.134,0.108-0.2c0.069,0.056,0.084,0.112,0,0.166
			c-0.042,0.026-0.058,0.068-0.077,0.108c-0.03,0.056-0.005,0.154-0.115,0.147c-0.012,0-0.013,0.013-0.015,0.026
			c-0.012,0.085-0.013,0.085-0.106,0.051C14.91,5.825,15.033,5.762,15.123,5.678z"/>
		<path fill="#F8F7F7" d="M11.69,4.074c-0.148,0.106-0.263,0.243-0.354,0.4c-0.035-0.035,0.002-0.09-0.032-0.127
			c-0.014-0.015,0.001-0.039,0.019-0.032c0.1,0.034,0.072-0.063,0.081-0.092c0.017-0.065,0.037-0.104,0.111-0.104
			c0.082,0.003,0.1-0.13,0.197-0.099C11.729,4.049,11.688,4.052,11.69,4.074z"/>
		<path fill="#F6F7F5" d="M11.937,3.942c-0.05,0.025-0.1,0.05-0.149,0.075c-0.012-0.004-0.02-0.01-0.024-0.021
			c-0.003-0.058,0.021-0.086,0.08-0.104c0.088-0.028,0.182-0.065,0.165-0.191c-0.004-0.033,0.018-0.031,0.038-0.031
			c0.064-0.001,0.128-0.002,0.191-0.002C12.131,3.752,12.018,3.829,11.937,3.942z"/>
		<path fill="#333442" d="M11.355,4.852c0.012-0.011,0.022-0.021,0.034-0.033c0.088,0.054,0.161,0.134,0.283,0.118
			c0.059-0.006,0.049,0.039,0.021,0.076c-0.029,0.039-0.083,0.03-0.118,0.059c-0.006,0.054,0.062,0.051,0.067,0.095
			c-0.007,0.031-0.037,0.022-0.056,0.032c-0.098,0.015-0.108-0.073-0.15-0.124c-0.033-0.035-0.023-0.081-0.029-0.123
			C11.391,4.918,11.372,4.886,11.355,4.852z"/>
		<path fill="#151515" d="M11.133,10.451c-0.007-0.009-0.014-0.018-0.019-0.026c0.095-0.109,0.189-0.22,0.285-0.328
			c0.043-0.048,0.014-0.063-0.03-0.073c-0.071-0.018-0.031-0.048-0.009-0.075c0.059,0.001,0.116,0.002,0.174,0.004
			c0.003,0.021-0.001,0.033-0.025,0.021c-0.009,0.001-0.017,0.002-0.024,0.004c-0.018,0.014-0.038,0.01-0.057,0.008
			c-0.008-0.001-0.012-0.007-0.013-0.007c0.021,0.018,0.06,0.011,0.071,0.046c-0.024,0.089-0.103,0.143-0.154,0.215
			c-0.021,0.031-0.056,0.055-0.003,0.085c-0.011,0.021-0.018,0.042-0.044,0.046c-0.048-0.005-0.045,0.04-0.061,0.063
			C11.198,10.472,11.169,10.479,11.133,10.451z"/>
		<path fill="#F8F8F8" d="M15.151,5.154c-0.122-0.067-0.186-0.201-0.3-0.276c-0.009-0.018-0.018-0.035-0.026-0.052
			c-0.02-0.023-0.021-0.049-0.005-0.073c0.028-0.018,0.087-0.061,0.079-0.008c-0.02,0.152,0.124,0.164,0.183,0.246
			C15.118,5.043,15.156,5.086,15.151,5.154z"/>
		<path fill="#33353F" d="M15.123,5.678c-0.049,0.113-0.176,0.172-0.205,0.299c-0.021,0.028-0.043,0.057-0.063,0.084
			c-0.021-0.006-0.032-0.018-0.039-0.036c0.035-0.188,0.125-0.341,0.284-0.448C15.106,5.611,15.091,5.65,15.123,5.678z"/>
		<path fill="#F7F7F7" d="M12.341,7.637c-0.053-0.083-0.128-0.142-0.206-0.199c0.06-0.012,0.119-0.024,0.178-0.036
			c0.033-0.006,0.057,0.022,0.043,0.041c-0.055,0.076,0.015,0.073,0.049,0.109C12.442,7.594,12.413,7.646,12.341,7.637z"/>
		<path fill="#BDBDBD" d="M10.595,8.617c0.077-0.032,0.07,0.06,0.112,0.076c0.061,0.083,0.091,0.173,0.074,0.275
			c-0.018,0.018-0.005,0.063-0.05,0.056c-0.007-0.01-0.014-0.019-0.02-0.028c-0.018-0.044-0.035-0.088-0.041-0.134
			c-0.013-0.058-0.038-0.111-0.038-0.171C10.62,8.667,10.607,8.641,10.595,8.617z"/>
		<path fill="#2F313D" d="M14.82,6.028c0.012,0.012,0.022,0.022,0.035,0.033c0,0.007,0,0.014,0,0.02
			c-0.021,0.032-0.046,0.059-0.078,0.078c-0.066,0.044-0.14,0.06-0.218,0.053c-0.045-0.044-0.134-0.004-0.156-0.087
			c0.025-0.021,0.055-0.017,0.083-0.01c0.099,0.02,0.188,0.007,0.267-0.064C14.771,6.035,14.793,6.023,14.82,6.028z"/>
		<path fill="#F9F9F9" d="M12.167,9.775c-0.104,0.042-0.212,0.068-0.323,0.074c-0.078-0.021-0.026-0.069-0.004-0.067
			C11.95,9.789,12.058,9.71,12.167,9.775z"/>
		<path fill="#F4F5F5" d="M13.822,3.746c-0.094-0.059-0.187-0.116-0.28-0.175c0.004-0.015,0.021-0.017,0.028-0.026
			c0.113-0.002,0.181,0.089,0.268,0.137C13.886,3.708,13.825,3.723,13.822,3.746z"/>
		<path fill="#F4F4F4" d="M10.899,7.339c-0.057-0.051-0.114-0.101-0.169-0.151c0.072-0.053,0.14,0.032,0.235-0.003
			C10.938,7.25,10.92,7.294,10.899,7.339z"/>
		<path fill="#F3F3F3" d="M12.918,7.412c0.015,0.034,0.055,0.057,0.05,0.101c-0.161-0.001-0.161-0.001-0.122-0.209
			C12.87,7.339,12.895,7.375,12.918,7.412z"/>
		<path fill="#2F2F2F" d="M13.468,9.143c0.018-0.142-0.018-0.285,0.024-0.425c0.009-0.012,0.017-0.012,0.024-0.002
			c0,0.051,0,0.103,0,0.152c-0.021,0.091,0.007,0.186-0.022,0.276C13.486,9.144,13.477,9.143,13.468,9.143z"/>
		<path fill="#F2F2F2" d="M10.859,9.995c0.043,0.054,0.075,0.114,0.099,0.18c-0.034,0.044-0.073,0.042-0.084-0.013
			C10.863,10.109,10.803,10.055,10.859,9.995z"/>
		<path fill="#FDFDFD" d="M14.001,3.909c-0.035-0.037-0.07-0.074-0.104-0.11c0.121,0.032,0.173,0.144,0.252,0.222
			c-0.01,0.012-0.019,0.012-0.028,0.003C14.113,4.021,14.106,4.02,14.1,4.018C14.052,3.996,14.016,3.961,14.001,3.909z"/>
		<path fill="#151515" d="M13.043,10.274c0.012,0.01,0.024,0.02,0.037,0.03c-0.02,0.053-0.067,0.06-0.112,0.071
			c-0.021-0.001-0.04,0.004-0.054,0.023c-0.009,0.009-0.016,0.008-0.021-0.005c-0.016-0.015-0.033-0.029-0.051-0.044
			C12.904,10.313,12.959,10.253,13.043,10.274z"/>
		<path fill="#171717" d="M13.517,8.716c-0.007,0-0.016,0-0.024,0.002c-0.01-0.04-0.007-0.09-0.03-0.116
			c-0.091-0.101-0.016-0.109,0.061-0.124C13.468,8.556,13.543,8.638,13.517,8.716z"/>
		<path fill="#EFEFEF" d="M11.012,7.773c0.008,0.002,0.015,0.003,0.021,0.005c0.035,0.049,0.039,0.09-0.031,0.106
			c-0.001-0.046-0.073-0.017-0.068-0.066c-0.01-0.024-0.02-0.05,0.001-0.075C10.972,7.722,10.989,7.752,11.012,7.773z"/>
		<path fill="#545454" d="M10.503,8.14c-0.012,0.075-0.009,0.15,0,0.228c-0.015,0.015,0.001,0.045-0.025,0.057
			c-0.034-0.096-0.035-0.191,0-0.285C10.486,8.127,10.494,8.128,10.503,8.14z"/>
		<path fill="#202020" d="M11.838,7.61c0.126-0.035,0.252-0.041,0.377,0.001C12.089,7.611,11.964,7.611,11.838,7.61z"/>
		<path fill="#F6F5F3" d="M11.638,5.219c0.063,0.093-0.056,0.091-0.071,0.141c-0.052-0.067-0.014-0.104,0.046-0.133
			C11.618,5.217,11.627,5.213,11.638,5.219z"/>
		<path fill="#7C7C7C" d="M11.287,9.337c-0.01-0.017-0.04-0.031-0.001-0.049c0.057,0.003,0.114,0.006,0.173,0.007
			c-0.002,0.016-0.003,0.03-0.004,0.046C11.398,9.364,11.343,9.371,11.287,9.337z"/>
		<path fill="#040404" d="M11.286,9.241c0.076-0.031,0.151-0.038,0.226,0.004c-0.053,0.038-0.113,0.012-0.169,0.021
			C11.323,9.258,11.306,9.249,11.286,9.241z"/>
		<path fill="#FDFDFD" d="M10.505,6.659c0.009,0.019,0.017,0.037,0.024,0.055c0.02,0.013,0.016,0.027,0.007,0.045
			c0.009,0.041,0.018,0.082,0.025,0.125C10.49,6.821,10.458,6.75,10.505,6.659z"/>
		<path fill="#FDFDFD" d="M13.873,7.886c0.002-0.012,0.002-0.023,0.003-0.035c0.008-0.013,0.015-0.025,0.022-0.037
			c0.041,0.089,0.013,0.16-0.053,0.225C13.817,7.981,13.846,7.934,13.873,7.886z"/>
		<path fill="#5C5C5C" d="M10.781,7.642c0.047,0.004,0.093,0.012,0.13,0.044c-0.004,0.017-0.013,0.026-0.029,0.029
			c-0.061-0.009-0.122-0.012-0.173-0.054C10.729,7.637,10.76,7.661,10.781,7.642z"/>
		<path fill="#929292" d="M12.166,6.67c-0.01,0.013-0.017,0.026-0.026,0.039c-0.04-0.014-0.068,0.022-0.104,0.024
			c-0.004-0.004-0.008-0.007-0.013-0.011c-0.009-0.013-0.012-0.027-0.012-0.043C12.061,6.656,12.109,6.615,12.166,6.67z"/>
		<path fill="#FDFDFD" d="M13.139,3.438c-0.09,0-0.18,0-0.271,0c0-0.004,0-0.009,0-0.013c0.09,0,0.18,0,0.27,0
			C13.138,3.429,13.138,3.434,13.139,3.438z"/>
		<path fill="#040404" d="M12.014,7.414c-0.084,0.037-0.166,0.037-0.25,0C11.848,7.393,11.93,7.39,12.014,7.414z"/>
		<path fill="#FDFDFD" d="M12.968,10.375c0.037-0.024,0.074-0.048,0.112-0.071c0.014-0.001,0.027-0.003,0.041-0.004
			C13.091,10.369,13.044,10.401,12.968,10.375z"/>
		<path fill="#FDFDFD" d="M10.685,9.324c0.001,0.056,0.001,0.11,0.001,0.167c-0.007,0.008-0.017,0.052-0.023,0.011
			c-0.014-0.074-0.004-0.152-0.004-0.236c0.014,0.013,0.021,0.017,0.022,0.022C10.684,9.298,10.683,9.311,10.685,9.324z"/>
		<path fill="#FDFDFD" d="M10.752,9.122c-0.001,0.008,0.001,0.014,0.006,0.02c-0.038,0.011-0.033,0.054-0.054,0.078
			c-0.032-0.059-0.03-0.117-0.001-0.176c0.021,0.004,0.028,0.022,0.041,0.038C10.751,9.094,10.755,9.107,10.752,9.122z"/>
		<path fill="#F3F3F3" d="M11.638,10.35c0.011-0.001,0.023-0.004,0.035-0.004c0.025,0.032,0.054,0.062,0.061,0.104
			C11.645,10.47,11.641,10.411,11.638,10.35z"/>
		<path fill="#0A0A0A" d="M13.494,9.145c0.016-0.092-0.022-0.188,0.022-0.276c0.01,0.011,0.02,0.021,0.028,0.032
			C13.486,8.973,13.558,9.072,13.494,9.145z"/>
		<path fill="#F3F3F3" d="M14.274,4.268c-0.038-0.021-0.044-0.059-0.048-0.097c0.016-0.013,0.033-0.038,0.047-0.036
			c0.032,0.006,0.026,0.037,0.021,0.061C14.291,4.22,14.281,4.245,14.274,4.268z"/>
		<path fill="#FDFDFD" d="M13.252,3.49c-0.019-0.008-0.037-0.016-0.058-0.023c0.063-0.049,0.12-0.013,0.177,0.014
			c-0.001,0.003-0.003,0.008-0.005,0.009c-0.007,0.002-0.017,0.004-0.023,0.006c-0.018,0.001-0.032,0.002-0.05,0.003
			C13.278,3.506,13.263,3.511,13.252,3.49z"/>
		<path fill="#252427" d="M13.144,3.472c-0.092,0.035-0.184,0.035-0.275,0C12.96,3.459,13.052,3.458,13.144,3.472z"/>
		<path fill="#282929" d="M14.373,6.482c-0.044-0.081-0.023-0.166-0.015-0.249c0-0.002,0.007-0.003,0.011-0.002
			c0.004,0.002,0.007,0.006,0.01,0.008C14.376,6.319,14.374,6.401,14.373,6.482z"/>
		<path fill="#F2F2F2" d="M14.352,6.633c0.008-0.017,0.018-0.034,0.024-0.052c0.038-0.021,0.051,0.002,0.063,0.031
			c0.01,0.021,0.005,0.043-0.015,0.052C14.391,6.682,14.378,6.638,14.352,6.633z"/>
		<path fill="#F5F5F5" d="M11.655,9.166c0.028-0.04,0.059-0.077,0.107-0.094C11.799,9.186,11.713,9.161,11.655,9.166z"/>
		<path fill="#2B2B2C" d="M13.873,7.886c-0.009,0.051-0.02,0.102-0.027,0.152c-0.006,0.002-0.013,0.003-0.019,0.003
			c-0.01,0.014-0.02,0.014-0.027-0.001C13.824,7.988,13.794,7.911,13.873,7.886z"/>
		<path fill="#6F6F6F" d="M10.658,7.688c-0.021,0.055-0.043,0.111-0.063,0.168c-0.027-0.07,0.019-0.115,0.041-0.167
			C10.645,7.68,10.651,7.68,10.658,7.688z"/>
		<path fill="#F3F3F3" d="M14.12,4.023c0.01-0.001,0.019-0.002,0.028-0.003c0.061,0.015,0.106,0.036,0.045,0.104
			C14.17,4.09,14.146,4.056,14.12,4.023z"/>
		<path fill="#F5F5F5" d="M11.777,9.064c0.024-0.023,0.056-0.032,0.088-0.021c0.027,0.021,0.005,0.057,0.024,0.079
			C11.817,9.17,11.822,9.069,11.777,9.064z"/>
		<path fill="#FDFDFD" d="M12.893,10.394c0.007,0.002,0.016,0.002,0.021,0.005c-0.023,0.057-0.062,0.08-0.122,0.051
			C12.826,10.431,12.859,10.414,12.893,10.394z"/>
		<path fill="#363436" d="M14.82,4.752c0.002,0.023,0.004,0.049,0.005,0.073c-0.017-0.003-0.035,0.056-0.046,0.006
			c-0.009-0.04-0.019-0.091,0.017-0.131C14.805,4.717,14.813,4.735,14.82,4.752z"/>
		<path fill="#FDFDFD" d="M14.405,6.505c0-0.065,0-0.13,0-0.194C14.431,6.375,14.427,6.44,14.405,6.505z"/>
		<path fill="#FDFDFD" d="M11.408,4.952c0.041,0.033,0.025,0.081,0.029,0.123C11.371,5.047,11.373,5.003,11.408,4.952z"/>
		<path fill="#5B5B5B" d="M10.934,7.818c0.011,0.035,0.09-0.004,0.068,0.066c-0.045-0.011-0.089-0.021-0.135-0.031
			C10.871,7.799,10.909,7.825,10.934,7.818z"/>
		<path fill="#303030" d="M11.769,9.92c-0.036,0.037-0.081,0.05-0.133,0.046c-0.012-0.001-0.016-0.008-0.017-0.02
			C11.665,9.917,11.713,9.896,11.769,9.92z"/>
		<path fill="#6E6E6E" d="M10.633,8.691c0.02,0.058,0.053,0.112,0.047,0.177c-0.006,0.012-0.013,0.012-0.019,0
			C10.636,8.811,10.594,8.757,10.633,8.691z"/>
		<path fill="#EFEFEE" d="M12.367,3.596c-0.013,0.018-0.029,0.029-0.052,0.02c-0.023-0.014-0.046-0.028-0.099-0.063
			C12.294,3.563,12.344,3.523,12.367,3.596z"/>
		<path fill="#FDFDFD" d="M11.412,5.554c-0.036,0.031-0.078,0.047-0.125,0.055C11.314,5.559,11.346,5.519,11.412,5.554z"/>
		<path fill="#7A7A7A" d="M11.41,7.207c-0.049,0-0.096,0.002-0.145,0c-0.013-0.002-0.03-0.015-0.021-0.034
			c0.01-0.02,0.027-0.009,0.042-0.007C11.322,7.194,11.386,7.139,11.41,7.207z"/>
		<path fill="#222222" d="M10.882,7.715c0.01-0.01,0.021-0.019,0.029-0.029c0.049,0.011,0.085,0.038,0.101,0.087
			c-0.027-0.01-0.053-0.02-0.077-0.03C10.916,7.736,10.889,7.743,10.882,7.715z"/>
		<path fill="#808080" d="M11.41,7.207c-0.032-0.04-0.092-0.002-0.124-0.041c0.05,0.001,0.104-0.012,0.145,0.009
			C11.474,7.196,11.432,7.203,11.41,7.207z"/>
		<path fill="#727272" d="M10.661,8.868c0.006,0,0.013,0,0.019,0c0.017,0.044,0.031,0.086,0.047,0.129
			c-0.002,0.012-0.01,0.021-0.021,0.025C10.677,8.974,10.656,8.924,10.661,8.868z"/>
		<path fill="#A1A1A1" d="M10.658,7.285c0.009,0.01,0.017,0.019,0.024,0.028c0.007,0.051,0.016,0.101,0.021,0.151
			c-0.007,0.009-0.015,0.009-0.021-0.002C10.646,7.408,10.656,7.345,10.658,7.285z"/>
		<path fill="#5B5B5B" d="M11.286,8.694c-0.067-0.006-0.14,0.031-0.2-0.023c0.068-0.005,0.136-0.015,0.203,0.005
			c0.002,0.001,0.004,0.006,0.003,0.009C11.291,8.688,11.287,8.691,11.286,8.694z"/>
		<path fill="#818181" d="M10.984,8.569c-0.073-0.046-0.08-0.08-0.023-0.133C10.955,8.482,10.97,8.526,10.984,8.569z"/>
		<path fill="#414141" d="M10.478,8.424c0.009-0.02,0.018-0.039,0.025-0.057c0.009,0.033,0.017,0.067,0.024,0.101
			c-0.009,0.014-0.001,0.036-0.02,0.047C10.473,8.493,10.485,8.456,10.478,8.424z"/>
		<path fill="#242424" d="M13.8,8.041c0.008,0,0.019,0,0.027,0.001c-0.002,0.049-0.03,0.087-0.055,0.126
			c-0.008,0.009-0.018,0.011-0.026,0.002C13.752,8.122,13.773,8.08,13.8,8.041z"/>
		<path fill="#FDFDFD" d="M14.097,7.032c-0.001-0.035,0.007-0.068,0.027-0.097c0.05,0.043,0.007,0.085-0.009,0.12
			C14.107,7.074,14.103,7.042,14.097,7.032z"/>
		<path fill="#FDFDFD" d="M13.57,3.544c-0.009,0.009-0.019,0.018-0.028,0.026c-0.04-0.018-0.081-0.034-0.122-0.051
			C13.479,3.471,13.517,3.556,13.57,3.544z"/>
		<path fill="#535353" d="M11.619,9.947c0.006,0.007,0.012,0.014,0.017,0.02c-0.001,0.011-0.002,0.019-0.002,0.028
			c-0.024,0.032-0.067,0.001-0.094,0.025c-0.033,0-0.025-0.029-0.03-0.048c0.007-0.007,0.017-0.014,0.024-0.021
			C11.563,9.952,11.592,9.974,11.619,9.947z"/>
		<path fill="#FDFDFD" d="M12.566,10.526c0.026-0.03,0.063-0.022,0.096-0.027C12.644,10.554,12.612,10.564,12.566,10.526z"/>
		<path fill="#525252" d="M10.581,7.91c-0.012,0.025-0.022,0.05-0.034,0.074c-0.007,0.011-0.014,0.034-0.03,0.021
			C10.507,8,10.509,7.977,10.506,7.962C10.547,7.967,10.502,7.85,10.581,7.91z"/>
		<path fill="#F3F3F3" d="M11.756,6.755c0.021-0.024,0.051-0.021,0.08-0.023c0.019-0.013,0.027-0.002,0.033,0.015
			c0.004,0.024-0.039,0.016-0.031,0.044C11.789,6.83,11.787,6.759,11.756,6.755z"/>
		<path fill="#3E3F45" d="M11.332,4.56c0,0.067,0,0.136,0,0.203C11.303,4.696,11.301,4.627,11.332,4.56z"/>
		<path fill="#787776" d="M11.586,8.641c-0.012,0.078-0.065,0.05-0.115,0.029c0.039-0.009,0.078-0.019,0.117-0.027L11.586,8.641z"/>
		<path fill="#FDFDFD" d="M10.396,6.549c0.016,0.05,0.019,0.092-0.002,0.142C10.378,6.641,10.374,6.599,10.396,6.549z"/>
		<path fill="#FDFDFD" d="M14.777,6.159c0.025-0.026,0.052-0.052,0.078-0.078C14.855,6.133,14.832,6.163,14.777,6.159z"/>
		<path fill="#FDFDFD" d="M14.509,6.226c0.012,0,0.022,0.001,0.034,0.001c0.019,0.003,0.038,0.006,0.071,0.01
			c-0.051,0.03-0.099,0.03-0.124,0.015C14.454,6.231,14.502,6.237,14.509,6.226z"/>
		<path fill="#505050" d="M12.56,8.883c0.006,0.007,0.009,0.013,0.006,0.021c-0.017,0.021-0.033,0.041-0.051,0.063
			c-0.021,0.001-0.062,0.017-0.034-0.027C12.497,8.915,12.533,8.902,12.56,8.883z"/>
		<path fill="#1B1B1B" d="M10.781,7.642c-0.019,0.027-0.05,0.009-0.072,0.02c-0.009,0-0.017,0-0.026,0
			c-0.02-0.024-0.015-0.05-0.001-0.075l0.004,0.002c0.004-0.009,0.013-0.012,0.022-0.009c0.012,0.009,0.016,0.023,0.025,0.033
			C10.735,7.645,10.764,7.634,10.781,7.642z"/>
		<path fill="#0B0B0B" d="M10.508,8.515c0.008-0.016,0.014-0.031,0.02-0.047c0.021,0.039,0.041,0.077,0.03,0.124
			C10.519,8.581,10.533,8.535,10.508,8.515z"/>
		<path fill="#040404" d="M11.864,10.699c0.04-0.033,0.082-0.032,0.124-0.001c-0.021,0.008-0.039,0.017-0.06,0.024
			c-0.01,0.02-0.021,0.019-0.032,0C11.887,10.714,11.875,10.707,11.864,10.699z"/>
		<path fill="#FDFDFD" d="M11.763,3.997c0.008,0.007,0.017,0.014,0.024,0.021c-0.032,0.019-0.064,0.037-0.097,0.057
			c-0.031-0.035,0.026-0.03,0.021-0.053C11.729,4.013,11.746,4.005,11.763,3.997z"/>
		<path fill="#FDFDFD" d="M12.316,10.602c0.024-0.009,0.051-0.018,0.078-0.025c0.008,0.005,0.018,0.011,0.026,0.017
			C12.387,10.616,12.354,10.645,12.316,10.602z"/>
		<path fill="#EFF1EE" d="M14.725,4.627c-0.028-0.024-0.057-0.049-0.085-0.074c0.028-0.015,0.056-0.023,0.086-0.004l0,0
			C14.725,4.575,14.725,4.602,14.725,4.627z"/>
		<path fill="#FDFDFD" d="M13.746,8.169c0.009,0,0.018-0.001,0.026-0.002c0.024,0.061-0.001,0.097-0.056,0.121
			c-0.022-0.038,0.006-0.056,0.03-0.075C13.747,8.199,13.747,8.184,13.746,8.169z"/>
		<path fill="#626262" d="M11.839,6.791c-0.006-0.008-0.014-0.015-0.021-0.022c0.015-0.005,0.029-0.009,0.043-0.013
			c0.014-0.019,0.028-0.033,0.053-0.029c0.021,0.007,0.043,0.012,0.053,0.035C11.93,6.798,11.88,6.777,11.839,6.791z"/>
		<path fill="#484745" d="M11.588,8.643c0-0.109,0-0.109,0.053-0.08c0.012,0.029-0.014,0.039-0.026,0.057
			c-0.003,0.015-0.013,0.023-0.028,0.021L11.588,8.643z"/>
		<path fill="#1D1F26" d="M11.638,5.219c-0.009,0.003-0.017,0.006-0.025,0.008c-0.008-0.01-0.017-0.019-0.024-0.028
			c0.018-0.009,0.035-0.018,0.054-0.025c0.008-0.009,0.018-0.013,0.028-0.014c0.017-0.001,0.031,0.004,0.042,0.018
			C11.688,5.191,11.662,5.206,11.638,5.219z"/>
		<path fill="#FDFDFD" d="M11.896,10.722c0.011,0,0.021,0,0.032,0c0.012,0.004,0.022,0.009,0.033,0.014
			c-0.033,0.025-0.065,0.024-0.097,0C11.875,10.732,11.887,10.727,11.896,10.722z"/>
		<path fill="#8A8A8A" d="M10.682,7.586c0,0.025,0.001,0.051,0.001,0.075c-0.008,0.01-0.016,0.018-0.024,0.026
			c-0.007,0.001-0.014,0.001-0.022,0.001C10.627,7.644,10.657,7.616,10.682,7.586z"/>
		<path fill="#1F1F1F" d="M11.967,6.761c-0.017-0.006-0.034-0.013-0.051-0.018c-0.002-0.027,0.023-0.021,0.035-0.028
			c0.032-0.013,0.066-0.023,0.087,0.021l-0.003-0.002C12.023,6.771,11.988,6.749,11.967,6.761z"/>
		<path fill="#FDFDFD" d="M10.708,9.571c0.024,0.029,0.028,0.063,0.029,0.099C10.691,9.648,10.661,9.622,10.708,9.571z"/>
		<path fill="#404040" d="M13.747,8.213c-0.011,0.025-0.021,0.05-0.03,0.075c-0.016,0.004-0.03,0.007-0.047,0.01
			C13.685,8.26,13.677,8.202,13.747,8.213z"/>
		<path fill="#FDFDFD" d="M13.27,10.223c0.026-0.03,0.06-0.046,0.098-0.057C13.35,10.213,13.322,10.241,13.27,10.223z"/>
		<path fill="#FDFDFD" d="M11.087,5.708c-0.001,0.007-0.003,0.014-0.006,0.021c-0.025,0.008-0.05,0.017-0.074,0.025
			C11.007,5.692,11.042,5.693,11.087,5.708z"/>
		<path fill="#FDFDFD" d="M12.816,3.464c-0.024,0.008-0.051,0.014-0.076,0.021c-0.009-0.012-0.017-0.023-0.026-0.036
			C12.751,3.44,12.786,3.437,12.816,3.464z"/>
		<path fill="#1E1F20" d="M13.521,8.481c0.012-0.053,0.033-0.096,0.099-0.089C13.601,8.438,13.563,8.463,13.521,8.481z"/>
		<path fill="#8C8B89" d="M11.614,8.62c0.009-0.02,0.018-0.038,0.026-0.057c0.02,0.015,0.051,0.029,0.041,0.054
			C11.667,8.653,11.637,8.592,11.614,8.62z"/>
		<path fill="#FDFDFD" d="M13.673,8.943c-0.018-0.009-0.034-0.017-0.052-0.024c0.011-0.021,0.027-0.025,0.047-0.012
			C13.682,8.916,13.69,8.928,13.673,8.943z"/>
		<path fill="#FDFDFD" d="M13.847,9.119c-0.018-0.012-0.025-0.029-0.024-0.051c0.014-0.018,0.026-0.011,0.035,0.004
			C13.872,9.091,13.867,9.107,13.847,9.119z"/>
		<path fill="#414141" d="M10.503,8.14c-0.009-0.001-0.018-0.001-0.025-0.001c0-0.025,0-0.05,0-0.074
			c0.013-0.009,0.025-0.017,0.038-0.024C10.534,8.077,10.503,8.105,10.503,8.14z"/>
		<path fill="#EFF1EE" d="M14.726,4.549c0.013-0.021,0.022-0.046,0.054-0.039c0.004,0,0.011,0.013,0.009,0.017
			C14.777,4.558,14.748,4.545,14.726,4.549L14.726,4.549z"/>
		<path fill="#4C4C4C" d="M10.706,9.022c0.007-0.009,0.015-0.017,0.021-0.025c0.003,0.008,0.006,0.015,0.009,0.021
			c0.017,0.016,0.032,0.034,0.03,0.059c-0.004,0.019-0.014,0.03-0.035,0.024c-0.011-0.019-0.02-0.038-0.028-0.058
			C10.704,9.037,10.705,9.03,10.706,9.022z"/>
		<path fill="#FDFDFD" d="M12.49,3.544c-0.02,0.02-0.043,0.027-0.07,0.027C12.426,3.519,12.451,3.51,12.49,3.544z"/>
		<path fill="#686868" d="M11.89,9.122c-0.042-0.016-0.021-0.051-0.024-0.079c0.008-0.003,0.015-0.003,0.021,0.001
			C11.924,9.069,11.889,9.096,11.89,9.122z"/>
		<path fill="#4A4A4A" d="M10.705,7.588l-0.01,0.001l-0.01-0.001c0-0.041-0.001-0.084-0.002-0.126c0.008,0,0.015,0,0.021,0.002
			c0.004,0.008,0.007,0.016,0.01,0.023C10.72,7.523,10.731,7.557,10.705,7.588z"/>
		<path fill="#FDFDFD" d="M13.944,7.581c0.002-0.015,0.004-0.029,0.006-0.043c0.029,0.028,0.025,0.063,0.011,0.117
			C13.953,7.619,13.948,7.599,13.944,7.581z"/>
		<path fill="#FCFCFC" d="M8.173,11.504c0.062,0.01,0.049,0.058,0.049,0.098c0.001,0.631,0.001,1.263,0.001,1.894
			c0,0.047,0.002,0.094-0.05,0.117c-0.045-0.043-0.036-0.1-0.036-0.152c-0.001-0.602-0.001-1.203,0-1.803
			C8.137,11.605,8.128,11.547,8.173,11.504z"/>
		<path fill="#FCFCFC" d="M9.754,12.658c0,0.309-0.004,0.615,0.002,0.922c0.003,0.102-0.022,0.148-0.129,0.137
			c-0.059-0.008-0.117-0.002-0.175-0.002c-0.025,0.016-0.05,0.018-0.074-0.002c0.001-0.031,0.017-0.049,0.05-0.049
			c0.083,0,0.167,0,0.251,0c0.04-0.037,0.024-0.086,0.024-0.129c0.001-0.35,0.001-0.697,0.001-1.048
			c0.042,0.009,0.015,0.062,0.05,0.072C9.772,12.592,9.771,12.625,9.754,12.658z"/>
		<path fill="#FCFCFC" d="M8.173,11.504c0,0.703,0,1.406,0,2.109c0,0.008,0,0.018,0,0.025c0.021,0.025,0.025,0.055,0.015,0.086
			c-0.007,0.016-0.02,0.021-0.037,0.021c-0.014-0.01-0.021-0.021-0.025-0.039c-0.008-0.773-0.001-1.545-0.003-2.32
			c0-0.037-0.003-0.075,0.027-0.105c0.008-0.004,0.015-0.003,0.022,0.001C8.172,11.357,8.172,11.431,8.173,11.504z"/>
		<path fill="#FCFCFC" d="M9.378,13.713c0.024,0,0.049,0.002,0.074,0.002c-0.034,0.039-0.079,0.018-0.12,0.025
			c-0.039-0.031-0.03-0.076-0.03-0.115c0-0.383-0.002-0.764,0.002-1.147c0.003-0.023,0.01-0.046,0.023-0.067
			c0.041,0.037,0.024,0.085,0.024,0.128c0.001,0.35,0,0.697,0.001,1.047C9.354,13.629,9.336,13.678,9.378,13.713z"/>
		<path fill="#FCFCFC" d="M8.58,11.999c0-0.222,0-0.444,0-0.667c0.005,0,0.009,0,0.013,0c0,0.224,0,0.447,0,0.671
			C8.589,12.001,8.585,12,8.58,11.999z"/>
		<path fill="#FCFCFC" d="M8.573,13.59c0-0.236,0-0.471,0-0.703c0.018-0.01,0.03-0.004,0.039,0.012
			c0.018,0.227,0.018,0.451,0.001,0.676C8.604,13.592,8.591,13.596,8.573,13.59z"/>
		<path fill="#FCFCFC" d="M8.597,12.887c-0.007,0-0.016,0-0.023,0c0.002-0.145-0.007-0.289,0.023-0.43
			c0.01-0.043,0.009-0.082,0.059-0.097c-0.041,0.079-0.021,0.167-0.035,0.25C8.607,12.701,8.653,12.797,8.597,12.887z"/>
		<path fill="#FCFCFC" d="M8.573,13.59c0.008,0,0.016,0,0.023,0c0.051,0.137,0.034,0.162-0.104,0.162
			c-0.106-0.002-0.215,0.014-0.32-0.014c0-0.008,0.001-0.016,0.001-0.025c0.017-0.014,0.033-0.014,0.05,0
			c0.077,0,0.155-0.006,0.232,0.004C8.558,13.727,8.586,13.68,8.573,13.59z"/>
		<path fill="#FCFCFC" d="M9.679,13.664c-0.084,0.039-0.168,0.039-0.251,0C9.511,13.625,9.595,13.625,9.679,13.664z"/>
		<path fill="#FCFCFC" d="M9.126,12.107c-0.074-0.032-0.15-0.027-0.227-0.003c-0.008-0.005-0.011-0.01-0.008-0.014
			c0.003-0.006,0.005-0.008,0.008-0.008C8.979,12.057,9.06,12.008,9.126,12.107z"/>
		<path fill="#FCFCFC" d="M9.754,12.658c0-0.033,0-0.066,0-0.1c0.004-0.033-0.011-0.071,0.02-0.099
			c0.004,0.022,0.007,0.046,0.01,0.068C9.769,12.57,9.796,12.623,9.754,12.658z"/>
		<path fill="#FCFCFC" d="M8.223,13.713c-0.017,0-0.033,0-0.05,0c0-0.023,0-0.049,0-0.074C8.234,13.635,8.256,13.656,8.223,13.713z"
			/>
		<path fill="#FCFCFC" d="M8.899,12.083c0,0.008,0,0.014,0,0.021c-0.032,0.02-0.065,0.04-0.098,0.061
			C8.803,12.099,8.852,12.091,8.899,12.083z"/>
		<path fill="#FCFCFC" d="M9.328,12.411c-0.002,0.018-0.003,0.035-0.003,0.053c-0.011,0.006-0.02,0.004-0.028-0.002
			c-0.006-0.01-0.004-0.019,0.003-0.027c0-0.023,0-0.048,0-0.072c0.005-0.009,0.011-0.02,0.016-0.029
			C9.34,12.356,9.321,12.385,9.328,12.411z"/>
		<path fill="#5172B4" d="M15.032,13.611c-0.141-0.082-0.211-0.211-0.237-0.365c-0.042-0.236-0.02-0.475-0.021-0.713
			c-0.011-0.023-0.02-0.046,0.008-0.067c0.034-0.088,0.043-0.188,0.116-0.26c0.202-0.134,0.413-0.092,0.625-0.034
			c0.062,0.018,0.089,0.061,0.09,0.121c0.006,0.347,0.007,0.693-0.001,1.039c-0.003,0.086-0.06,0.145-0.121,0.197
			c-0.02,0.016-0.041,0.025-0.038,0.057c-0.026,0.014-0.036,0.053-0.074,0.057C15.26,13.656,15.144,13.668,15.032,13.611z"/>
		<path fill="#5172B4" d="M15.452,13.586c-0.012-0.029-0.067-0.012-0.063-0.049c0.004-0.066,0.057,0.002,0.07-0.02
			c0.045-0.061,0.12-0.107,0.121-0.195c0-0.34-0.002-0.682,0-1.024c0.001-0.062-0.021-0.083-0.081-0.098
			c-0.125-0.03-0.249-0.051-0.38-0.046c-0.078,0.004-0.135,0.09-0.222,0.052c0.055-0.112,0.157-0.14,0.271-0.147
			c0.166-0.013,0.318,0.039,0.462,0.12c0.074,0.033,0.059,0.102,0.06,0.16c0.002,0.336,0.002,0.672,0.001,1.008
			c-0.002,0.051-0.003,0.098-0.036,0.139C15.592,13.529,15.53,13.574,15.452,13.586z"/>
		<path fill="#FCFCFC" d="M16.081,13.713c-0.024,0-0.05,0-0.074,0c0.039-0.076-0.001-0.152-0.001-0.23
			c0.001-0.465,0.001-0.928,0.001-1.392c0-0.021,0-0.042,0.002-0.063c0.001-0.026,0.011-0.056,0.037-0.058
			c0.045-0.001,0.035,0.039,0.035,0.066c0.001,0.199,0,0.4,0,0.6C16.081,12.996,16.081,13.355,16.081,13.713z"/>
		<path fill="#FCFCFC" d="M15.705,12.208c0.062,0.01,0.049,0.058,0.049,0.098c0.002,0.326,0.003,0.652,0,0.978
			c0,0.074-0.02,0.146-0.074,0.205c-0.023-0.039-0.009-0.082-0.01-0.123c0.005-0.014,0.008-0.027,0.01-0.043
			c0.002-0.324,0-0.648,0-0.971C15.68,12.303,15.67,12.25,15.705,12.208z"/>
		<path fill="#FCFCFC" d="M14.649,13.111c-0.042-0.006-0.049-0.035-0.049-0.07c0-0.18,0-0.357,0-0.535
			c-0.001-0.038,0.007-0.067,0.051-0.072c0.027,0.029,0.023,0.068,0.023,0.105c0,0.053,0,0.105,0,0.158
			C14.662,12.836,14.703,12.977,14.649,13.111z"/>
		<path fill="#FCFCFC" d="M15.957,13.713c-0.093,0-0.185,0-0.277,0c0.019-0.131,0.117-0.129,0.212-0.123
			C15.977,13.596,15.972,13.652,15.957,13.713z"/>
		<path fill="#FCFCFC" d="M14.651,12.535c0-0.035,0-0.068,0-0.101c0.023,0.005,0.058-0.012,0.056,0.04
			c-0.004,0.198-0.004,0.397-0.008,0.596c0,0.023,0.012,0.08-0.05,0.041c0-0.143,0.002-0.283,0.002-0.426
			C14.671,12.635,14.671,12.584,14.651,12.535z"/>
		<path fill="#FCFCFC" d="M15.656,13.363c-0.001-0.352-0.002-0.701-0.005-1.052c0-0.044,0.014-0.093-0.021-0.132
			c0.043-0.034,0.045-0.001,0.05,0.028c0.026,0.165,0.012,0.332,0.012,0.498c-0.002,0.219,0.015,0.438-0.012,0.656v0.002
			C15.673,13.373,15.665,13.375,15.656,13.363z"/>
		<path fill="#FCFCFC" d="M15.68,13.361c0-0.383,0-0.77,0-1.154c0.008,0,0.018,0,0.025,0c0,0.341,0.001,0.683,0,1.025
			C15.705,13.277,15.722,13.326,15.68,13.361z"/>
		<path fill="#FCFCFC" d="M15.032,13.611c0.114,0.01,0.23,0.021,0.346,0.031c-0.119,0.039-0.236,0.033-0.352-0.012
			c-0.003,0-0.003-0.006-0.002-0.01S15.029,13.613,15.032,13.611z"/>
		<path fill="#FCFCFC" d="M14.725,13.643c-0.066-0.029-0.128-0.066-0.167-0.129C14.646,13.516,14.685,13.58,14.725,13.643z"/>
		<path fill="#FCFCFC" d="M14.276,12.936c-0.013-0.059-0.012-0.117-0.001-0.176C14.313,12.818,14.313,12.877,14.276,12.936z"/>
		<path fill="#FCFCFC" d="M15.656,13.363c0.009,0,0.017,0,0.023,0c0,0.041,0,0.084,0,0.125c-0.011,0.02-0.019,0.014-0.025-0.002
			C15.654,13.445,15.656,13.404,15.656,13.363z"/>
		<path fill="#FCFCFC" d="M14.524,13.465c-0.04-0.01-0.062-0.039-0.075-0.074C14.513,13.377,14.516,13.422,14.524,13.465z"/>
		<path fill="#FCFCFC" d="M14.781,12.466c-0.003,0.022-0.006,0.045-0.008,0.067c-0.026-0.02-0.023-0.048-0.021-0.076
			c0.001-0.008,0.009-0.016,0.015-0.022C14.771,12.446,14.774,12.456,14.781,12.466z"/>
		<path fill="#FCFCFC" d="M7.618,13.664c-0.016,0.078-0.078,0.049-0.121,0.049c-0.369,0.002-0.738,0-1.108,0
			c0-0.016,0-0.033,0-0.049c0.203-0.027,0.406-0.012,0.61-0.012C7.205,13.652,7.412,13.637,7.618,13.664z"/>
		<path fill="#FCFCFC" d="M6.866,11.284c0.235-0.002,0.471-0.004,0.708-0.003c0.028,0,0.073-0.021,0.088,0.016
			c0.014,0.034-0.032,0.052-0.045,0.082c-0.032-0.047-0.078-0.052-0.131-0.052c-0.131,0.004-0.263,0.002-0.394,0.002
			c-0.076,0.041-0.151,0.053-0.227,0C6.866,11.314,6.866,11.298,6.866,11.284z"/>
		<path fill="#FCFCFC" d="M7.618,13.664c-0.41,0-0.818,0-1.229,0c0.023-0.049,0.068-0.023,0.102-0.023
			c0.376-0.002,0.753-0.002,1.13-0.002C7.618,13.648,7.618,13.656,7.618,13.664z"/>
		<path fill="#FCFCFC" d="M7.041,11.404c-0.4,0-0.799,0-1.198,0c-0.002-0.009-0.002-0.017-0.002-0.024c0.343,0,0.684,0,1.025,0
			c0.058-0.034,0.118-0.038,0.176,0C7.042,11.387,7.042,11.395,7.041,11.404z"/>
		<path fill="#FCFCFC" d="M7.042,11.379c-0.058,0-0.118,0-0.176-0.001c0-0.017,0-0.033,0-0.05c0.075,0,0.15,0,0.227,0
			C7.12,11.391,7.073,11.376,7.042,11.379z"/>
		<path fill="#FCFCFC" d="M6.663,12.104c-0.003-0.045,0.034-0.065,0.055-0.097C6.746,12.066,6.732,12.101,6.663,12.104z"/>
		<path fill="#FCFCFC" d="M6.847,12.736c-0.003,0.016-0.007,0.031-0.009,0.047c-0.022,0.029-0.045,0.059-0.067,0.09
			C6.758,12.805,6.783,12.76,6.847,12.736z"/>
		<path fill="#FCFCFC" d="M17.386,13.754c-0.088,0.018-0.172,0.002-0.25-0.037c0.055-0.074-0.009-0.107-0.05-0.148
			c0.158,0.037,0.316,0.053,0.477,0.023c0.034,0.092,0.008,0.1-0.082,0.078c-0.085-0.02-0.181-0.021-0.276,0.033
			C17.268,13.73,17.345,13.688,17.386,13.754z"/>
		<path fill="#FCFCFC" d="M17.843,13.365c0.043-0.07,0.018-0.146,0.019-0.221c0.003-0.002,0.006-0.006,0.009-0.01
			c0.09,0.084,0.04,0.309-0.08,0.352c0.007-0.016,0.014-0.033,0.02-0.049C17.808,13.406,17.825,13.385,17.843,13.365z"/>
		<path fill="#FCFCFC" d="M18.257,12.947c0.013,0.055,0.015,0.117,0,0.199C18.223,13.08,18.221,13.012,18.257,12.947z"/>
		<path fill="#FCFCFC" d="M16.754,12.412c-0.034-0.017-0.062-0.04-0.08-0.075C16.721,12.341,16.774,12.337,16.754,12.412z"/>
		<path fill="#FCFCFC" d="M10.633,12.785c0.025,0,0.051,0,0.076-0.002c0.008,0,0.016-0.002,0.022-0.004
			c0.221-0.01,0.442-0.002,0.664-0.004c0.041,0,0.083,0.004,0.116,0.035c0.015,0.045-0.054,0.037-0.05,0.074
			c-0.227,0.02-0.453,0.021-0.679,0c-0.008-0.068-0.051-0.029-0.083-0.027C10.651,12.861,10.603,12.859,10.633,12.785z"/>
		<path fill="#FCFCFC" d="M10.783,12.885c0.227,0,0.452,0,0.679,0c0.05,0,0.1,0,0.15,0c0.083-0.02,0.167-0.02,0.251,0
			c0.164,0.039,0.104-0.109,0.146-0.174c0.027,0.207,0.027,0.207-0.172,0.207c-0.366-0.002-0.733-0.004-1.102-0.006
			C10.725,12.857,10.771,12.898,10.783,12.885z"/>
		<path fill="#FCFCFC" d="M11.812,12.208c-0.007,0.018-0.014,0.033-0.021,0.05c-0.077-0.108-0.155-0.21-0.311-0.212
			c-0.062,0-0.07-0.058-0.065-0.11c0.114,0.022,0.204,0.093,0.298,0.155C11.745,12.129,11.777,12.168,11.812,12.208z"/>
		<path fill="#FCFCFC" d="M10.935,11.907c0.125-0.033,0.251-0.036,0.376-0.001C11.186,11.946,11.061,11.943,10.935,11.907z"/>
		<path fill="#FCFCFC" d="M11.56,12.157c-0.01,0.02-0.017,0.037-0.036,0.029c-0.006-0.003-0.009-0.022-0.007-0.032
			c0.004-0.016,0.015-0.032,0.033-0.024C11.557,12.131,11.557,12.149,11.56,12.157z"/>
		<path fill="#FCFCFC" d="M12.842,13.338c-0.039,0.098-0.119,0.166-0.174,0.254c-0.05,0.021-0.063,0.076-0.099,0.109
			c-0.022,0.021-0.048,0.033-0.079,0.027c-0.036-0.012-0.036-0.041-0.036-0.072c0-0.023-0.001-0.049-0.001-0.074
			c0.001-0.73-0.001-1.459,0.001-2.189c0.069-0.055,0.14-0.023,0.211-0.007c0.017,0.004,0.038,0.026,0.031,0.033
			c-0.067,0.077,0.046,0.117,0.035,0.188c-0.013,0.076-0.003,0.157-0.003,0.237c0.001,0.216,0,0.433,0,0.648
			c0,0.276,0.024,0.549,0.037,0.823c-0.001,0.006-0.002,0.014-0.006,0.021c-0.007,0.01-0.009,0.012,0,0.004
			c0.016-0.023,0.012-0.066,0.058-0.055C12.838,13.299,12.842,13.316,12.842,13.338z"/>
		<path fill="#FCFCFC" d="M12.817,13.287c-0.032,0.018-0.021,0.08-0.075,0.076c0-0.055,0.004-0.107-0.034-0.156
			c-0.016-0.02-0.021-0.057-0.016-0.082c0.053-0.242-0.019-0.482-0.004-0.725c0.016-0.245-0.001-0.492,0.005-0.738
			c0.004-0.107-0.011-0.181-0.143-0.157c-0.012,0-0.024-0.007-0.036-0.011c-0.003-0.001-0.003-0.006-0.011-0.016
			c0.048-0.052,0.121,0,0.178-0.045c-0.063-0.06-0.156-0.002-0.216-0.054c-0.015-0.024-0.015-0.046,0.01-0.063
			c0.107-0.026,0.217-0.007,0.324-0.014c0.046-0.004,0.081,0.018,0.08,0.072c-0.008,0.503,0.015,1.008-0.013,1.512
			c-0.036,0.057-0.051,0.137,0.016,0.156c0.048,0.014,0.144-0.014,0.158-0.102c0.014-0.074,0.051-0.127,0.117-0.172
			c0.002,0.205-0.061,0.328-0.24,0.354C12.778,13.145,12.8,13.201,12.817,13.287z"/>
		<path fill="#FCFCFC" d="M12.867,12.887c0-0.481-0.001-0.961,0.001-1.443c0.001-0.096-0.019-0.138-0.127-0.119
			c-0.09,0.016-0.184,0.004-0.275,0.005c-0.015-0.003-0.016-0.02-0.026-0.026c0.156-0.055,0.316-0.01,0.474-0.022
			c0,0.017,0,0.033-0.001,0.05c-0.033,0.04-0.019,0.089-0.019,0.133c-0.001,0.498-0.001,0.996-0.001,1.498
			C12.851,12.943,12.875,12.908,12.867,12.887z"/>
		<path fill="#FCFCFC" d="M13.945,13.646c0.039,0.021,0.056,0.057,0.09,0.119c-0.199,0-0.382,0-0.564,0
			c-0.018-0.008-0.046,0.006-0.051-0.025c0.004-0.033,0.021-0.033,0.051-0.031c0.129,0.004,0.257,0.004,0.385,0.004
			C13.903,13.715,13.953,13.717,13.945,13.646z"/>
		<path fill="#FCFCFC" d="M13.163,13.295c-0.046-0.072-0.145-0.143,0.005-0.246C13.14,13.148,13.173,13.219,13.163,13.295z"/>
		<path fill="#FCFCFC" d="M13.621,12.132c0.017,0,0.033,0.001,0.05,0.001c0.006,0.004,0.009,0.011,0.007,0.015
			c-0.002,0.006-0.005,0.009-0.007,0.009c-0.02,0.037-0.035,0.076-0.075,0.098C13.593,12.211,13.599,12.169,13.621,12.132z"/>
		<path fill="#FCFCFC" d="M8.148,13.762c-0.002-0.008-0.001-0.016,0-0.023c0.008,0.002,0.016,0.002,0.023,0
			c0.095,0,0.19-0.006,0.283,0.004c0.125,0.012,0.166-0.037,0.142-0.152c0-0.236,0-0.469,0-0.703
			c0.015-0.094-0.021-0.189,0.023-0.277c0.004,0.008,0.006,0.018,0.009,0.027c0.015,0.365,0.004,0.729,0.007,1.096
			c0,0.014-0.011,0.02-0.018,0.031C8.462,13.764,8.306,13.762,8.148,13.762z"/>
		<path fill="#FCFCFC" d="M11.508,12.734c0.003-0.025,0.006-0.051,0.009-0.076c0.006,0,0.014,0.002,0.019,0.002
			c0.018,0.041,0.026,0.084-0.003,0.125c-0.008-0.002-0.016,0-0.021,0.004c-0.268,0.012-0.534,0.018-0.803-0.004l0.001-0.002
			c0.001-0.008,0.002-0.018,0.002-0.027c0.25,0.002,0.5,0.006,0.749,0.006C11.481,12.762,11.503,12.762,11.508,12.734z"/>
		<path fill="#FCFCFC" d="M10.709,12.785c0.268,0.002,0.534,0.002,0.802,0.004c0.001,0.006,0.001,0.014,0.001,0.021
			c-0.229,0-0.457,0-0.687,0C10.785,12.809,10.742,12.824,10.709,12.785z"/>
		<path fill="#FCFCFC" d="M11.863,12.885c-0.084,0-0.168,0-0.251,0C11.695,12.848,11.779,12.848,11.863,12.885z"/>
		<path fill="#FCFCFC" d="M11.532,12.785c0.002-0.041,0.002-0.084,0.003-0.125C11.581,12.703,11.571,12.744,11.532,12.785z"/>
		<path fill="#FCFCFC" d="M12.439,11.303c0.008,0.009,0.018,0.017,0.026,0.026c0,0.016,0,0.032,0,0.05c0,0.734-0.001,1.468,0,2.203
			c0.001,0.043-0.025,0.104,0.03,0.123c0.052,0.018,0.074-0.037,0.101-0.074c0.016-0.023,0.024-0.066,0.071-0.039
			c-0.008,0.014-0.014,0.029-0.023,0.043c-0.046,0.059-0.074,0.16-0.175,0.121c-0.08-0.031-0.034-0.117-0.034-0.178
			c-0.003-0.721-0.002-1.442-0.002-2.163C12.434,11.377,12.437,11.341,12.439,11.303z"/>
		<path fill="#FCFCFC" d="M17.978,11.514c0.011-0.001,0.021-0.002,0.031-0.003c0.042,0.024,0.075,0.058,0.098,0.101
			C18.032,11.621,18.017,11.551,17.978,11.514z"/>
		<path fill="#FCFCFC" d="M17.01,11.524c-0.026,0.026-0.053,0.054-0.079,0.08C16.916,11.536,16.94,11.508,17.01,11.524z"/>
		<path fill="#FCFCFC" d="M17.996,11.705c-0.021-0.024-0.043-0.048-0.064-0.072C17.973,11.639,18.026,11.633,17.996,11.705z"/>
		<path fill="#FCFCFC" d="M11.561,13.668c-0.02,0.014-0.04,0.029-0.06,0.045c-0.076,0.012-0.144,0.059-0.226,0.051
			c-0.008-0.006-0.011-0.012-0.008-0.018c0.002-0.004,0.005-0.006,0.008-0.006c0-0.01,0-0.018,0-0.027l0,0
			C11.378,13.738,11.46,13.645,11.561,13.668z"/>
		<path fill="#FCFCFC" d="M11.733,13.578c-0.048,0.027-0.097,0.055-0.146,0.082c0.061-0.092,0.154-0.143,0.245-0.197
			C11.817,13.518,11.761,13.535,11.733,13.578z"/>
		<path fill="#FCFCFC" d="M11.258,13.744c0,0.008,0,0.016,0,0.023c-0.093,0.023-0.184,0.023-0.275,0.002
			c-0.008-0.006-0.012-0.012-0.009-0.018s0.006-0.008,0.008-0.008C11.074,13.744,11.165,13.744,11.258,13.744z"/>
		<path fill="#FCFCFC" d="M10.977,13.744c0.001,0.008,0.001,0.016,0.001,0.023c-0.092,0-0.175-0.029-0.254-0.072
			C10.813,13.678,10.894,13.729,10.977,13.744z"/>
		<path fill="#FCFCFC" d="M11.286,13.713c-0.058,0-0.114,0-0.171,0C11.173,13.695,11.231,13.668,11.286,13.713L11.286,13.713z"/>
		<path fill="#FCFCFC" d="M5.761,11.285c0.043,0,0.085-0.001,0.127-0.001c-0.001,0.016,0.058,0.031,0.003,0.043
			c-0.043,0.011-0.1-0.012-0.13,0.054C5.761,11.348,5.761,11.316,5.761,11.285z"/>
		<path fill="#FCFCFC" d="M13.671,12.157c0-0.008,0-0.017,0-0.023c0.001-0.061,0.049-0.1,0.069-0.149
			c-0.023-0.046-0.073,0.02-0.094-0.026c0.046-0.059,0.107-0.014,0.173-0.032C13.784,12.023,13.726,12.088,13.671,12.157z"/>
		<path fill="#FCFCFC" d="M11.536,11.353c0,0.025,0,0.052,0.001,0.077c-0.223,0.025-0.447,0.006-0.67,0.01
			c-0.023,0.001-0.038-0.014-0.047-0.034c-0.005-0.041,0.012-0.064,0.055-0.063C11.096,11.348,11.316,11.327,11.536,11.353z"/>
		<path fill="#FCFCFC" d="M11.536,11.353c-0.198,0.001-0.396,0-0.595,0.002c-0.041,0-0.096-0.02-0.108,0.05
			c-0.014,0.015-0.032,0.021-0.052,0.022c-0.028,0.001-0.055,0.002-0.076-0.019c-0.01-0.018-0.012-0.037,0.003-0.054
			c0-0.009,0.001-0.017,0.001-0.024c0.041-0.023,0.082-0.019,0.124-0.003c0.235,0.001,0.471,0.002,0.705,0.002
			C11.538,11.337,11.537,11.345,11.536,11.353z"/>
		<path fill="#FCFCFC" d="M10.783,11.405c0.017,0,0.034,0,0.05,0c0.068,0.05,0.146,0.021,0.218,0.022
			c0.161,0.005,0.323,0.003,0.485,0.003c-0.058,0.048-0.128,0.021-0.191,0.023c-0.179,0.004-0.357,0.001-0.536,0.001
			C10.796,11.44,10.768,11.433,10.783,11.405z"/>
		<path fill="#FCFCFC" d="M10.783,11.405c0.009,0.016,0.018,0.032,0.025,0.05c-0.033,0-0.066,0-0.101,0
			c-0.014-0.018-0.015-0.034,0-0.05C10.733,11.405,10.758,11.405,10.783,11.405z"/>
		<path fill="#FCFCFC" d="M10.833,11.328c-0.041,0.002-0.082,0.003-0.124,0.003c-0.006-0.008-0.014-0.015-0.021-0.023
			C10.737,11.309,10.789,11.286,10.833,11.328z"/>
		<path fill="#FCFCFC" d="M10.708,11.405c0,0.016,0,0.032,0,0.05c-0.049-0.034-0.025-0.067,0-0.1
			C10.708,11.37,10.708,11.387,10.708,11.405z"/>
		<path fill="#CDCDCD" d="M11.963,6.727c-0.017,0.006-0.031,0.011-0.047,0.017c-0.018,0.004-0.037,0.008-0.055,0.012
			c-0.009-0.008-0.018-0.016-0.025-0.023c0.027-0.023,0.061-0.026,0.095-0.026C11.954,6.694,11.964,6.703,11.963,6.727z"/>
		<path fill="#C8C8C8" d="M11.963,6.727c-0.012-0.007-0.021-0.014-0.032-0.021c0.022-0.021,0.051-0.024,0.08-0.025
			c0.023,0.011,0.029,0.031,0.027,0.056C12.014,6.73,11.99,6.709,11.963,6.727z"/>
		<path fill="#070707" d="M10.536,6.758c-0.003-0.015-0.004-0.029-0.007-0.045c0.004-0.019,0.007-0.038,0.014-0.067
			C10.564,6.692,10.564,6.726,10.536,6.758z"/>
		<path fill="#141414" d="M13.064,9.57c0.163-0.115,0.271-0.283,0.406-0.426c0,0.008,0,0.017,0,0.024
			c0.012,0.017,0.021,0.034,0.03,0.053c0.067,0.131,0.055,0.177-0.069,0.252c-0.021,0.013-0.042,0.023-0.064,0.034
			c-0.055,0.024-0.108,0.051-0.162,0.078c-0.012,0.005-0.023,0.008-0.036,0.011C13.131,9.6,13.094,9.604,13.064,9.57z"/>
		<path fill="#131313" d="M13.521,9.195c0.008-0.023,0.02-0.046,0.024-0.07c0.007-0.036,0.011-0.09,0.047-0.089
			c0.044,0,0.095,0.025,0.13,0.055c0.045,0.035-0.002,0.073-0.018,0.107c-0.021,0.041-0.038,0.081-0.059,0.121
			c-0.022,0.026-0.042,0.079-0.081,0.046C13.515,9.324,13.484,9.264,13.521,9.195z"/>
		<path fill="#1E1E1E" d="M13.193,9.571c0.043-0.042,0.094-0.064,0.151-0.074c0.033,0.005,0.078-0.01,0.075,0.049
			c-0.135,0.061-0.263,0.136-0.425,0.162c0.045-0.041,0.066-0.071-0.003-0.086c0.017-0.028,0.042-0.043,0.072-0.052
			C13.108,9.57,13.15,9.571,13.193,9.571c0.004,0.008,0.005,0.015,0.011,0.02c0.003,0.004,0.007,0.004,0.007,0.003
			C13.216,9.579,13.197,9.581,13.193,9.571z"/>
		<path fill="#1D1D1D" d="M13.42,9.545c-0.025-0.017-0.05-0.033-0.075-0.049c0.162-0.063,0.191-0.178,0.126-0.328
			c0.017,0.009,0.032,0.018,0.05,0.026c0.011,0.153,0.03,0.174,0.125,0.124C13.615,9.439,13.499,9.473,13.42,9.545z"/>
		<path fill="#1E1E1E" d="M13.043,10.274c-0.066,0.025-0.134,0.051-0.201,0.076c-0.025,0.004-0.046,0.038-0.087,0.005
			c0.15-0.069,0.296-0.137,0.466-0.215C13.165,10.223,13.084,10.221,13.043,10.274z"/>
		<path fill="#1E1E1E" d="M12.614,10.431c-0.086,0.056-0.16,0.088-0.28,0.095C12.439,10.477,12.508,10.432,12.614,10.431z"/>
		<path fill="#1F1F1F" d="M13.42,10.023c0.058-0.042,0.114-0.082,0.172-0.124c-0.026,0.072-0.08,0.106-0.146,0.124
			C13.437,10.034,13.428,10.034,13.42,10.023z"/>
		<path fill="#1F1F1F" d="M13.925,9.674c-0.049-0.058-0.059-0.124-0.048-0.214C13.918,9.538,13.925,9.605,13.925,9.674L13.925,9.674
			z"/>
		<path fill="#212121" d="M12.742,9.792c0.037-0.054,0.098-0.045,0.147-0.064C12.853,9.779,12.793,9.775,12.742,9.792z"/>
		<path fill="#1E1E1E" d="M11.817,10.442c0.044,0.033,0.048,0.068,0.042,0.117C11.815,10.525,11.811,10.49,11.817,10.442z"/>
		<path fill="#202020" d="M13.42,10.023c0.008,0,0.017,0,0.025,0c-0.021,0.047-0.063,0.055-0.112,0.078
			C13.35,10.042,13.393,10.042,13.42,10.023z"/>
		<path fill="#0A0A0A" d="M11.486,10.023c-0.024-0.012-0.051-0.022-0.078-0.035c0.024-0.024,0.052-0.009,0.076-0.012
			C11.484,9.991,11.484,10.007,11.486,10.023z"/>
		<path fill="#1F1F1F" d="M11.688,10.052c0.008-0.001,0.017-0.001,0.025-0.001c0.019,0.013,0.036,0.025,0.057,0.039
			C11.727,10.102,11.694,10.101,11.688,10.052z"/>
		<path fill="#060606" d="M11.592,10.137c-0.03,0.014-0.057,0.016-0.085-0.003C11.536,10.12,11.563,10.117,11.592,10.137z"/>
		<path fill="#CFCFCF" d="M11.54,10.02c0.022-0.037,0.062-0.017,0.094-0.025c0.009,0.057-0.04,0.015-0.054,0.032
			C11.566,10.024,11.553,10.023,11.54,10.02z"/>
		<path fill="#2B2B2C" d="M13.529,7.688c-0.032,0.041-0.063,0.083-0.095,0.122c-0.003,0.004-0.03-0.009-0.03-0.012
			C13.411,7.733,13.468,7.708,13.529,7.688z"/>
		<path fill="#5F5F5F" d="M13.321,7.99c0.043,0.044,0.063,0.093,0.025,0.15c-0.009,0.012-0.018,0.012-0.025,0l-0.011-0.001
			C13.311,8.088,13.296,8.038,13.321,7.99z"/>
		<path fill="#212121" d="M13.321,8.14c0.008,0,0.017,0,0.025,0c0.006,0.03,0.014,0.062,0.021,0.099
			C13.28,8.237,13.293,8.193,13.321,8.14z"/>
		<path fill="#C9C9C9" d="M13.321,7.99c-0.004,0.05-0.007,0.1-0.011,0.149C13.289,8.087,13.276,8.036,13.321,7.99z"/>
		<path fill="#363637" d="M13.604,7.622c0.046-0.045,0.074-0.04,0.106-0.025C13.686,7.621,13.656,7.622,13.604,7.622z"/>
		<path fill="#636466" d="M12.909,9.563c0.004-0.03,0.035-0.061,0.046-0.05c0.025,0.021-0.011,0.038-0.023,0.054
			C12.93,9.569,12.918,9.564,12.909,9.563z"/>
		<path fill="#5172B4" d="M14.123,6.031c0.005,0.01,0.012,0.019,0.019,0.027c0.02,0.009,0.023,0.029,0.029,0.048
			c0.022,0.103,0.049,0.203,0.064,0.308c0,0.028,0.002,0.058,0,0.086c-0.001,0.021,0.008,0.058-0.026,0.057
			c-0.03,0-0.018-0.042-0.033-0.06c-0.036-0.106-0.094-0.195-0.203-0.24c-0.63-0.437-1.332-0.687-2.085-0.805
			c-0.029-0.021-0.063-0.01-0.096-0.012c-0.106-0.005-0.108-0.007-0.061-0.116c0.02-0.029,0.056-0.028,0.083-0.045l0,0
			c0.021-0.028,0.054-0.038,0.086-0.048c0.006-0.002,0.014-0.002,0.021-0.003c-0.004-0.003-0.009-0.001-0.015-0.002
			c-0.073-0.005-0.105-0.037-0.056-0.104c0.066-0.09,0.133-0.176,0.138-0.297c0.001-0.069,0.061-0.083,0.12-0.073
			c0.115,0.021,0.231,0.011,0.348,0.012c0.074-0.003,0.146-0.029,0.221-0.023c0.033,0.001,0.065-0.006,0.098-0.015
			c0.059-0.012,0.118-0.011,0.178-0.007c0.013,0.001,0.025,0.004,0.038,0.007c0.066,0.02,0.135,0.028,0.202,0.047
			c0.346,0.122,0.65,0.313,0.92,0.562c0.092,0.089,0.163,0.191,0.213,0.31c0.04,0.109,0.069,0.22,0.025,0.335
			c-0.006,0.032-0.018,0.063-0.042,0.086c-0.03-0.028-0.06-0.056-0.089-0.084c-0.056-0.021-0.104-0.05-0.151-0.083
			c-0.008-0.003-0.015-0.009-0.021-0.013c0,0.014,0.011,0.021,0.018,0.032C14.102,5.948,14.105,5.993,14.123,6.031z"/>
		<path fill="#323339" d="M11.914,5.251c-0.034,0.009-0.066,0.019-0.1,0.027c-0.021-0.048,0.021-0.157-0.103-0.102
			c-0.019-0.002-0.036-0.003-0.054-0.004c0.034-0.078,0.134-0.075,0.177-0.143c0.007-0.009,0.013-0.018,0.021-0.025
			c0.029-0.033,0.049-0.072,0.063-0.112c0.018-0.047,0.02-0.093,0.007-0.141c-0.004-0.01-0.008-0.02-0.014-0.029
			c-0.016-0.03-0.046-0.054-0.03-0.094c0.012-0.016,0.029-0.023,0.049-0.025c0.172,0.068,0.354,0.099,0.534,0.138
			c0.015,0.018,0.016,0.036,0.001,0.055c-0.124,0.007-0.249,0.023-0.372-0.015C12.05,4.768,12.017,4.78,12.02,4.833
			c0.009,0.148-0.084,0.244-0.178,0.347c0.038,0.032,0.083,0.014,0.121,0.024C11.979,5.252,11.924,5.229,11.914,5.251z"/>
		<path fill="#5371A9" d="M13.973,6.256c0.101,0.008,0.187,0.104,0.201,0.227c0.008,0.007,0.01,0.014,0.007,0.021
			c-0.003,0.005-0.007,0.008-0.009,0.008C14.131,6.407,14.049,6.333,13.973,6.256z"/>
		<path fill="#323339" d="M11.814,5.279c-0.018,0.014-0.035,0.027-0.054,0.042c-0.045,0.031-0.069,0.087-0.123,0.107
			c-0.038,0.026-0.054,0.018-0.036-0.026C11.641,5.308,11.715,5.269,11.814,5.279z"/>
		<path fill="#5670B2" d="M14.172,6.511c0.001-0.009,0.002-0.019,0.002-0.028c0.012,0.017,0.023,0.032,0.05,0.069
			c0-0.062,0-0.103,0-0.146c0.009-0.012,0.018-0.011,0.024,0c-0.001,0.058,0.004,0.115-0.007,0.171
			c-0.007,0.043-0.027,0.095-0.091,0.052C14.157,6.589,14.164,6.55,14.172,6.511z"/>
		<path fill="#59719C" d="M11.638,5.428c0.026-0.052,0.065-0.09,0.123-0.107c-0.056,0.078-0.046,0.119,0.06,0.107
			c0.025-0.003,0.051,0,0.067,0.023C11.804,5.445,11.717,5.476,11.638,5.428z"/>
		<path fill="#5172B4" d="M12.466,4.751c-0.194,0.004-0.376-0.042-0.548-0.132c-0.021-0.004-0.038-0.017-0.053-0.03
			c-0.018-0.011-0.03-0.004-0.038,0.013c-0.01,0.02,0.007,0.025,0.022,0.032c0.01,0.004,0.018,0.012,0.022,0.022
			c0.001,0.045,0.046,0.043,0.069,0.065L11.94,4.723c0.026,0.074,0.008,0.139-0.039,0.199c-0.061,0.026-0.054-0.027-0.066-0.056
			c-0.012,0.058,0.079,0.096,0.031,0.162l-0.001-0.001c-0.078,0.063-0.103-0.008-0.124-0.056c-0.022-0.051-0.051-0.065-0.104-0.067
			c-0.213-0.007-0.278-0.098-0.222-0.305c0.009-0.031,0.021-0.063,0.029-0.095c0.017-0.06,0.068-0.102,0.089-0.159l0,0
			c0.049-0.03,0.073-0.08,0.102-0.126h-0.001c0.049-0.022,0.087-0.053,0.155-0.047c0.084,0.008,0.104-0.096,0.146-0.155
			c0.01-0.016,0.019-0.031,0.028-0.047c0.271-0.22,0.57-0.37,0.925-0.409c0.278-0.031,0.53,0.038,0.762,0.183
			c0.211,0.132,0.379,0.313,0.512,0.524c0.04,0.064,0.099,0.103,0.159,0.147c0.116,0.091,0.221,0.198,0.353,0.27
			c0.01,0.006,0.02,0.019,0.021,0.03c0.045,0.246,0.263,0.393,0.354,0.611c0.051,0.04,0.029,0.104,0.05,0.154
			c0,0.031,0,0.063,0,0.095c-0.038,0.06-0.039,0.147-0.145,0.156c-0.021,0.003-0.033,0.086-0.054,0.131
			c-0.025,0.056-0.055,0.109-0.082,0.164c-0.114,0.141-0.257,0.156-0.417,0.097c-0.001-0.022-0.002-0.044-0.002-0.065
			c0.021-0.07,0.009-0.135-0.018-0.203c-0.047-0.126-0.015-0.198,0.088-0.232c-0.024,0.003-0.047-0.009-0.07-0.017
			c-0.043-0.023-0.078-0.057-0.113-0.091c-0.057-0.076-0.11-0.153-0.164-0.232c-0.112-0.18-0.292-0.272-0.469-0.368
			c-0.1-0.055-0.202-0.102-0.26-0.208c-0.021-0.041-0.058-0.037-0.098-0.034C13.206,4.68,13.12,4.72,13.029,4.73
			c-0.088-0.013-0.173,0.016-0.259,0.008c-0.053,0.021-0.11,0.004-0.163,0.022C12.561,4.755,12.512,4.789,12.466,4.751z"/>
		<path fill="#33353F" d="M15.101,5.482c-0.016-0.052-0.032-0.104-0.05-0.154c0.01,0,0.018,0,0.026,0
			C15.126,5.374,15.104,5.428,15.101,5.482z"/>
		<path fill="#312B28" d="M14.001,3.909c0.041,0.03,0.076,0.063,0.099,0.109C14.021,4.024,14.005,3.971,14.001,3.909z"/>
		<path fill="#242424" d="M13.252,3.49c0.014,0.002,0.028,0.005,0.041,0.008c-0.028,0.029-0.061,0.025-0.114,0.009
			C13.215,3.499,13.233,3.495,13.252,3.49z"/>
		<path fill="#FDFDFD" d="M10.937,9.419c-0.002-0.007-0.004-0.015-0.003-0.021c0.005-0.02,0.009-0.041,0.018-0.059
			c0.016-0.037,0.034-0.077,0.088-0.063c0.03,0.007,0.03,0.03,0.032,0.057c0.006,0.059-0.038,0.064-0.077,0.075
			C10.977,9.414,10.955,9.416,10.937,9.419z"/>
		<path fill="#101010" d="M11.058,9.174c0-0.077,0-0.153,0-0.258c0.058,0.105-0.021,0.212,0.073,0.278
			c0.02,0.014,0.016,0.031,0.01,0.05C11.077,9.263,11.065,9.221,11.058,9.174z"/>
		<path fill="#FDFDFD" d="M11.287,9.337c0.056,0.001,0.112,0.003,0.168,0.004C11.397,9.387,11.342,9.387,11.287,9.337z"/>
		<path fill="#D9D9D9" d="M11.141,9.245c-0.003-0.017-0.007-0.034-0.01-0.05c0.006-0.027-0.003-0.063,0.038-0.066
			c0.003,0,0.011,0.043,0.017,0.066C11.17,9.21,11.155,9.227,11.141,9.245z"/>
		<path fill="#BDBDBD" d="M10.731,9.101c0.008-0.01,0.017-0.02,0.025-0.029c-0.015-0.031,0.01-0.043,0.028-0.058
			c0.019,0.015,0.022,0.034,0.021,0.055c-0.018,0.019-0.036,0.036-0.055,0.053C10.745,9.116,10.738,9.109,10.731,9.101z"/>
		<path fill="#060606" d="M11.009,8.717c-0.007,0.017-0.013,0.033-0.021,0.049c-0.012-0.023-0.044-0.045-0.023-0.07
			C10.979,8.678,10.998,8.702,11.009,8.717z"/>
		<path fill="#BCBCBC" d="M10.785,9.014c-0.009,0.02-0.019,0.038-0.028,0.058c-0.007-0.019-0.013-0.036-0.021-0.054
			c0.016-0.017,0.03-0.033,0.045-0.05C10.783,8.984,10.785,9,10.785,9.014z"/>
		<path fill="#303441" d="M14.399,5.578c0.062,0.016,0.122,0.03,0.189,0.047c-0.016,0.018-0.02,0.026-0.024,0.027
			c-0.184,0.017-0.182,0.017-0.151,0.202c0.011,0.069,0.024,0.138-0.012,0.205c0-0.043,0-0.084,0-0.127
			c-0.039-0.002-0.025,0.042-0.05,0.047c0.008-0.12-0.035-0.232-0.055-0.349c0.004-0.005,0.008-0.009,0.012-0.014
			C14.331,5.586,14.389,5.636,14.399,5.578z"/>
		<path fill="#333544" d="M14.075,5.877c0.061,0.018,0.102,0.063,0.146,0.104c-0.04,0.003-0.091-0.015-0.098,0.05
			c-0.025-0.034-0.05-0.068-0.075-0.103C14.031,5.896,14.03,5.875,14.075,5.877z"/>
		<path fill="#5371A9" d="M14.248,6.407c-0.008,0-0.016,0-0.024,0C14.2,6.305,14.152,6.208,14.15,6.102
			c0.073,0.016,0.045,0.089,0.073,0.13C14.231,6.291,14.24,6.349,14.248,6.407z"/>
		<path fill="#333544" d="M14.224,6.232c-0.025-0.043-0.05-0.086-0.073-0.13c-0.004-0.015-0.006-0.029-0.009-0.044
			C14.223,6.091,14.224,6.162,14.224,6.232z"/>
		<path fill="#141414" d="M11.133,10.451c0.06,0.007,0.086-0.029,0.1-0.08c0.017-0.053,0.035-0.025,0.053-0.002
			c-0.021,0.034-0.038,0.07-0.063,0.102C11.184,10.522,11.151,10.509,11.133,10.451z"/>
		<path fill="#5370AD" d="M11.462,4.5c-0.012,0.052-0.021,0.104-0.031,0.158c-0.031,0.164,0.036,0.23,0.218,0.217
			c0.056-0.004,0.126-0.047,0.111,0.071c-0.004,0.027,0.023,0.115,0.105,0.082c-0.039,0.092-0.132,0.105-0.207,0.146l-0.009-0.002
			l-0.008,0.002c-0.022-0.01-0.046-0.02-0.067-0.031c-0.033-0.019-0.064-0.046-0.058-0.087c0.009-0.047,0.052-0.03,0.082-0.033
			C11.641,5.02,11.68,5.015,11.7,4.958c-0.141,0.028-0.245-0.015-0.311-0.14c-0.001-0.015-0.004-0.029-0.004-0.044
			c-0.019-0.042-0.016-0.083-0.003-0.125c0.011-0.053,0.017-0.107,0.053-0.151C11.444,4.486,11.453,4.487,11.462,4.5z"/>
		<path fill="#536FA6" d="M11.937,4.018c0.015,0.091-0.078,0.129-0.101,0.202c-0.006,0.017-0.031,0.027-0.039,0.014
			c-0.05-0.082-0.108-0.011-0.162-0.014c0.049-0.048,0.079-0.118,0.178-0.1C11.847,4.127,11.896,4.054,11.937,4.018z"/>
		<path fill="#566FA2" d="M11.462,4.5c-0.009-0.001-0.018-0.001-0.026-0.001c0.014-0.063,0.042-0.117,0.099-0.152
			C11.553,4.417,11.484,4.448,11.462,4.5z"/>
		<path fill="#566FA2" d="M11.636,4.22c-0.018,0.055-0.003,0.135-0.102,0.126C11.546,4.287,11.589,4.251,11.636,4.22z"/>
		<path fill="#3E3F45" d="M11.383,4.65c0.001,0.042,0.002,0.083,0.003,0.125C11.35,4.734,11.352,4.692,11.383,4.65z"/>
		<path fill="#EFEFEF" d="M10.705,7.588c0.003-0.034,0.006-0.066,0.009-0.101c0.034,0.037,0.015,0.083,0.02,0.125
			C10.725,7.604,10.714,7.596,10.705,7.588z"/>
		<path fill="#FCFCFC" d="M14.651,12.535c0.037,0.049,0.037,0.1,0,0.15C14.651,12.635,14.651,12.584,14.651,12.535z"/>
		<path fill="#FCFCFC" d="M12.746,13.391c-0.009,0.012-0.015,0.031-0.026,0.033c-0.021,0.006-0.024-0.014-0.023-0.029
			c0.003-0.02,0.018-0.027,0.034-0.029C12.757,13.359,12.734,13.381,12.746,13.391z"/>
		<path fill="#121212" d="M13.193,9.571c0.018,0.003,0.041-0.002,0.047,0.008c0.018,0.021-0.012,0.022-0.022,0.029
			c-0.016,0.01-0.036,0.023-0.051,0C13.164,9.604,13.185,9.583,13.193,9.571L13.193,9.571z"/>
		<path fill="#363334" d="M13.043,4.701c0.064-0.017,0.127-0.039,0.191-0.051c0.086-0.015,0.176-0.063,0.218,0.085
			c0.025,0.086,0.148,0.113,0.231,0.16c0.177,0.1,0.367,0.184,0.465,0.381c0.021,0.053,0.006,0.08-0.052,0.078
			c-0.27-0.237-0.566-0.428-0.903-0.553c-0.061-0.046-0.136-0.031-0.205-0.049l-0.011,0.001l-0.012-0.001
			C12.958,4.684,13.026,4.731,13.043,4.701z"/>
		<path fill="#323442" d="M14.097,5.354c0.033-0.015,0.052-0.041,0.052-0.078c0.052,0.073,0.103,0.147,0.153,0.22
			c0.008,0.044,0.029,0.087,0,0.131L14.297,5.63C14.238,5.532,14.174,5.438,14.097,5.354z"/>
		<path fill="#506FBC" d="M12.462,4.906C12.35,4.945,12.245,4.918,12.139,4.9c-0.028-0.005-0.053-0.017-0.041-0.047
			c0.012-0.034,0.041-0.013,0.063-0.007C12.261,4.873,12.358,4.912,12.462,4.906z"/>
		<path fill="#2E3447" d="M13.043,4.701c-0.025,0.018-0.052,0.034-0.077,0.052c-0.066,0-0.132,0-0.198,0
			c-0.006-0.006-0.008-0.011-0.006-0.017c0.002-0.005,0.004-0.008,0.006-0.008C12.859,4.718,12.952,4.709,13.043,4.701z"/>
		<path fill="#263B3A" d="M12.466,4.751c0.049-0.002,0.099-0.003,0.147-0.004c0.029-0.004,0.065-0.035,0.076,0.022
			c-0.075,0.01-0.149,0.018-0.224,0.026C12.466,4.781,12.466,4.766,12.466,4.751z"/>
		<path fill="#506FBC" d="M12.456,4.909c0.039-0.075,0.078-0.063,0.127-0.041C12.552,4.919,12.503,4.89,12.456,4.909z"/>
		<path fill="#323E56" d="M12.689,4.77c-0.021-0.025-0.051-0.018-0.076-0.022c0.048-0.033,0.102-0.021,0.154-0.02
			c0,0.008,0,0.017,0,0.024C12.746,4.777,12.717,4.773,12.689,4.77z"/>
		<path fill="#2E3447" d="M12.988,4.752c0.073-0.001,0.149-0.02,0.205,0.049C13.126,4.784,13.058,4.769,12.988,4.752z"/>
		<path fill="#2B3758" d="M14.075,5.877c-0.02,0.011-0.026,0.029-0.027,0.051c-0.026-0.025-0.052-0.051-0.062-0.089
			C14.026,5.833,14.051,5.855,14.075,5.877z"/>
		<path fill="#39446A" d="M11.914,5.251c0.015-0.016,0.031-0.032,0.049-0.048c0.016-0.001,0.041,0.002,0.033,0.018
			C11.982,5.257,11.945,5.252,11.914,5.251z"/>
		<path fill="#5172AE" d="M11.866,5.029c0.002-0.073-0.095-0.124-0.04-0.208c0.061,0.009,0.017,0.085,0.063,0.105
			c0.014-0.016,0.022-0.042,0.052-0.025C11.933,4.953,11.916,5,11.866,5.029z"/>
		<path fill="#5270B2" d="M11.94,4.901c-0.018,0.008-0.035,0.017-0.052,0.025c0.021-0.067,0.065-0.128,0.052-0.203
			C11.986,4.783,11.972,4.841,11.94,4.901z"/>
		<path fill="#5172AE" d="M11.941,4.722c-0.047-0.004-0.128,0.028-0.076-0.076c0.009-0.006,0.017-0.005,0.024,0.002
			C11.904,4.675,11.94,4.686,11.941,4.722z"/>
		<path fill="#343C61" d="M11.89,4.648c-0.009-0.001-0.016-0.001-0.024-0.002v0.001c-0.02-0.02-0.042-0.04-0.025-0.068
			c0.009-0.019,0.03-0.021,0.047-0.001c0.01,0.014,0.021,0.027,0.031,0.042C11.907,4.628,11.898,4.638,11.89,4.648z"/>
		<path fill="#33372F" d="M14.302,5.626c0.001-0.044-0.028-0.087,0-0.131c0.032,0.027,0.065,0.055,0.098,0.082
			C14.407,5.675,14.333,5.608,14.302,5.626z"/>
		<path fill="#5172AE" d="M11.887,4.578c-0.081,0.001-0.008,0.049-0.021,0.069c-0.032-0.009-0.079,0.052-0.093-0.004
			c-0.007-0.03,0.032-0.083,0.063-0.107C11.866,4.51,11.886,4.542,11.887,4.578z"/>
		<path fill="#222222" d="M12.473,8.97c0,0,0.25-0.109,0.42-0.483"/>
	</g>
</g>
</svg>
