<?xml version="1.0" encoding="UTF-8" standalone="no"?>
<svg
   viewBox="0 0 30 30"
   width="30pt"
   height="30pt"
   version="1.1"
   id="svg133"
   xml:space="preserve"
   xmlns="http://www.w3.org/2000/svg"
   xmlns:svg="http://www.w3.org/2000/svg"><defs
     id="defs137"><clipPath
       id="clipPath18"
       clipPathUnits="userSpaceOnUse"><path
         id="path16"
         d="M 0,538 H 538 V 0 H 0 Z" /></clipPath></defs><g
     clip-path="url(#clipPath18)"
     id="g14"
     transform="matrix(0.03830877,0,0,-0.03830877,4.6949411,22.477625)"><g
       transform="translate(401.0371,254.0791)"
       id="g20"><path
         id="path22"
         style="fill:#050606;fill-opacity:1;fill-rule:evenodd;stroke:none"
         d="m 0,0 c 6.684,8.297 13.152,16.317 19.609,24.346 3.888,4.835 7.755,9.687 11.64,14.524 0.264,0.328 0.526,0.619 1.065,0.615 4.149,-0.031 8.297,-0.017 12.676,-0.017 -1.59,-2.001 -3.061,-3.855 -4.536,-5.707 -5.997,-7.527 -11.99,-15.057 -18.007,-22.57 -0.37,-0.462 -0.319,-0.794 -0.078,-1.25 2.418,-4.566 4.819,-9.141 7.234,-13.71 2.86,-5.413 5.729,-10.821 8.589,-16.235 3.047,-5.765 6.066,-11.545 9.149,-17.29 0.56,-1.045 0.311,-1.171 -0.738,-1.155 -3.519,0.053 -7.04,0.037 -10.56,0.011 -0.641,-0.005 -0.979,0.186 -1.285,0.778 -6.502,12.527 -13.032,25.041 -19.556,37.558 -0.22,0.422 -0.423,0.854 -0.676,1.366 -1.623,-1.429 -2.88,-3.157 -4.287,-4.74 -3.324,-3.739 -6.591,-7.53 -9.915,-11.27 -0.388,-0.438 -0.318,-0.872 -0.319,-1.329 -0.009,-7.039 -0.026,-14.079 0.016,-21.118 0.005,-0.968 -0.181,-1.292 -1.219,-1.263 -2.878,0.081 -5.759,0.06 -8.638,0.011 -0.803,-0.014 -0.983,0.227 -0.982,1.003 0.019,35.437 0.019,70.874 -0.001,106.312 0,0.785 0.193,1.006 0.988,0.993 2.879,-0.05 5.761,-0.072 8.638,0.009 1.045,0.029 1.214,-0.31 1.213,-1.269 C -0.008,46.365 -0.001,24.126 0,1.889 Z" /></g><g
       transform="translate(318.4766,282.9321)"
       id="g24"><path
         id="path26"
         style="fill:#050606;fill-opacity:1;fill-rule:evenodd;stroke:none"
         d="m 0,0 c 1.47,1.376 2.699,2.548 3.95,3.695 3.364,3.082 7.012,5.739 11.436,7.08 6.805,2.065 13.504,1.865 19.952,-1.34 5,-2.486 7.971,-6.65 9.539,-11.914 0.641,-2.151 0.962,-4.341 0.962,-6.584 -10e-4,-18.956 -0.01,-37.912 0.023,-56.868 0.002,-1.065 -0.22,-1.422 -1.345,-1.385 -2.757,0.091 -5.52,0.093 -8.277,0.01 -1.037,-0.031 -1.224,0.277 -1.223,1.251 0.03,19.036 0.087,38.073 -0.024,57.109 C 34.967,-4.305 33.126,-0.355 28.574,1.63 25.672,2.896 22.535,3.103 19.412,2.594 12.724,1.506 7.416,-2.1 2.497,-6.557 c -1.999,-1.811 -2.571,-3.72 -2.556,-6.333 0.11,-17.715 0.049,-35.433 0.079,-53.15 0.001,-0.955 -0.162,-1.3 -1.209,-1.27 -2.798,0.084 -5.6,0.079 -8.398,0.004 -1.007,-0.027 -1.239,0.244 -1.237,1.242 0.028,34.073 0.023,68.147 0.023,102.22 0,1.281 0.04,2.562 -0.015,3.839 -0.033,0.749 0.128,1.033 0.964,1.017 2.919,-0.057 5.84,-0.061 8.758,0.002 C -0.187,41.033 0.022,40.79 0.02,39.893 -0.012,27.135 -0.001,14.377 0,1.619 Z" /></g><g
       transform="translate(263.0781,214.0781)"
       id="g28"><path
         id="path30"
         style="fill:#050606;fill-opacity:1;fill-rule:evenodd;stroke:none"
         d="m 0,0 c -8.467,-0.011 -15.415,1.624 -21.783,5.491 -3.755,2.28 -6.835,5.283 -9.56,8.691 -0.408,0.51 -0.288,0.806 0.212,1.173 2.442,1.791 4.874,3.592 7.268,5.445 0.58,0.449 0.744,0.205 1.086,-0.239 2.371,-3.066 5.047,-5.821 8.422,-7.79 5.201,-3.037 10.818,-3.93 16.767,-3.267 3.318,0.37 6.401,1.293 8.988,3.43 4.131,3.409 5.7,8.19 3.66,13.1 -1.065,2.562 -3.106,4.25 -5.415,5.71 -3.841,2.428 -8.223,3.457 -12.415,4.967 -4.948,1.782 -10.071,3.129 -14.896,5.185 -6.511,2.772 -11.229,7.721 -11.659,15.892 -0.23,4.365 0.432,8.548 2.635,12.379 1.275,2.217 2.893,4.147 5.007,5.667 4.744,3.411 10.081,4.866 15.841,5.078 6.762,0.25 13.004,-1.454 18.901,-4.725 3.322,-1.842 6.154,-4.217 8.654,-7.033 0.42,-0.473 0.778,-0.999 1.183,-1.487 0.362,-0.434 -0.007,-0.669 -0.255,-0.885 -2.092,-1.822 -4.223,-3.601 -6.285,-5.457 -0.572,-0.516 -0.794,-0.499 -1.346,0.058 -2.073,2.095 -4.005,4.331 -6.49,6.009 -4.841,3.268 -10.127,4.779 -15.934,4.131 -4.293,-0.48 -8.329,-1.736 -10.142,-6.174 -1.869,-4.573 -1.458,-8.652 2.575,-11.916 2.909,-2.356 6.351,-3.52 9.811,-4.703 5.58,-1.906 11.107,-3.973 16.725,-5.762 4.476,-1.426 8.192,-3.886 11.046,-7.533 C 25.846,31.286 26.98,26.48 26.64,21.221 26.402,17.554 25.446,14.19 23.477,11.111 21.321,7.74 18.324,5.304 14.835,3.425 10.551,1.118 4.804,-0.131 0,0" /></g><g
       transform="translate(199.166,278.0308)"
       id="g32"><path
         id="path34"
         style="fill:#050606;fill-opacity:1;fill-rule:evenodd;stroke:none"
         d="m 0,0 c 0.746,1.183 1.434,2.316 2.164,3.422 2.095,3.169 4.409,6.139 7.461,8.475 3.477,2.665 7.448,4.024 11.736,4.566 1.143,0.144 2.289,0.308 3.455,0.269 0.534,-0.017 0.668,-0.17 0.664,-0.685 C 25.459,12.888 25.458,9.728 25.481,6.567 25.485,6.042 25.322,5.938 24.812,5.896 23.156,5.759 21.502,5.587 19.878,5.181 15.204,4.012 11.38,1.554 8.375,-2.219 4.324,-7.304 1.861,-13.172 -0.129,-19.279 c -0.119,-0.364 -0.079,-0.787 -0.079,-1.182 -0.004,-13.56 -0.013,-27.119 0.019,-40.678 0.002,-0.951 -0.15,-1.298 -1.208,-1.267 -2.877,0.085 -5.759,0.049 -8.638,0.004 -0.779,-0.012 -0.994,0.203 -0.993,0.999 0.022,25.319 0.022,50.637 0.001,75.956 0,0.776 0.186,0.996 0.976,0.983 2.959,-0.05 5.92,-0.049 8.879,0 0.78,0.013 0.986,-0.19 0.981,-0.974 -0.04,-4.44 -0.024,-8.88 -0.011,-13.32 C -0.201,0.872 -0.343,0.466 0,0" /></g><g
       transform="translate(78.2422,237.0078)"
       id="g36"><path
         id="path38"
         style="fill:#050606;fill-opacity:1;fill-rule:evenodd;stroke:none"
         d="m 0,0 c -1.788,-4.27 -5.09,-6.957 -9.211,-8.697 -4.266,-1.801 -8.779,-2.368 -13.392,-2.462 -7.873,-0.16 -15.745,-0.004 -23.617,-0.103 -0.934,-0.011 -1.195,0.228 -1.188,1.18 0.044,6.516 0.023,13.031 0.023,19.548 h -0.006 c 0,6.555 0.013,13.111 -0.016,19.668 -0.004,0.755 0.143,1.027 0.964,1.022 6.875,-0.032 13.755,0.117 20.626,-0.062 5.128,-0.135 10.219,-0.771 14.963,-3.022 4.437,-2.105 8.061,-5.095 10.375,-9.487 C 1.193,14.411 1.586,10.947 1.525,7.415 1.48,4.851 0.996,2.378 0,0 m -47.385,58.55 c -0.001,5.68 0.017,11.36 -0.019,17.038 -0.006,0.848 0.135,1.141 1.085,1.136 8.358,-0.046 16.719,0.068 25.076,-0.069 3.563,-0.059 7.128,-0.495 10.513,-1.848 4.792,-1.915 7.745,-5.362 8.89,-10.374 0.81,-3.544 0.979,-7.084 -0.047,-10.627 -1.31,-4.526 -4.384,-7.601 -8.303,-9.884 -4.626,-2.693 -9.747,-3.541 -15.029,-3.559 -6.999,-0.025 -13.998,0.01 -20.997,-0.027 -0.919,-0.004 -1.202,0.207 -1.194,1.177 0.052,5.679 0.025,11.359 0.025,17.037 M 12.902,13.858 c -1.377,6.875 -4.988,12.34 -10.554,16.509 -2.719,2.037 -5.72,3.586 -9.073,4.348 -0.237,0.054 -0.517,0.109 -0.541,0.377 -0.028,0.332 0.318,0.283 0.521,0.367 1.756,0.731 3.521,1.425 5.194,2.354 3.584,1.989 6.589,4.59 8.762,8.085 2.828,4.548 3.736,9.569 3.584,14.847 -0.311,10.838 -5.695,18.37 -15.212,23.091 -5.105,2.534 -10.688,3.033 -16.284,3.061 -12.479,0.063 -24.957,0.004 -37.435,0.044 -1.067,0.003 -1.315,-0.27 -1.313,-1.323 0.036,-17.638 0.025,-35.276 0.025,-52.913 h -0.004 v -52.312 c 0,-1.854 0,-1.854 1.905,-1.854 10.959,0 21.917,-0.036 32.875,0.019 4.019,0.019 8.044,0.195 12.01,0.949 5.611,1.065 11.064,2.538 15.826,5.905 4.024,2.845 6.966,6.504 8.581,11.174 1.952,5.648 2.307,11.411 1.133,17.272" /></g><g
       transform="translate(506.6348,246.8682)"
       id="g40"><path
         id="path42"
         style="fill:#050606;fill-opacity:1;fill-rule:evenodd;stroke:none"
         d="m 0,0 c -0.001,-3.278 -0.001,-6.558 0,-9.836 0,-0.474 -0.002,-0.892 -0.385,-1.31 -4.625,-5.061 -10.121,-8.84 -16.582,-11.129 -3.215,-1.14 -6.589,-1.805 -9.954,-0.871 -4.194,1.163 -7.683,3.5 -9.235,7.739 -1.368,3.739 -0.846,7.472 1.375,10.845 3.046,4.624 7.681,7.13 12.583,9.237 6.854,2.944 14.046,4.691 21.374,5.953 0.803,0.139 0.837,-0.171 0.833,-0.791 C -0.011,6.559 0,3.279 0,0 m 12.433,-30.179 c -1.242,5.512 -1.632,11.106 -1.632,16.739 -10e-4,13.318 0.012,26.636 -0.01,39.955 -0.006,3.572 -0.978,6.94 -2.754,10.009 -3.637,6.29 -9.454,9.494 -16.333,10.886 -4.712,0.954 -9.494,0.992 -14.278,0.257 -9.963,-1.531 -17.401,-6.701 -22.459,-15.376 -0.271,-0.466 -0.448,-0.705 0.228,-1.037 2.675,-1.312 5.323,-2.683 7.946,-4.096 0.758,-0.408 1.018,-0.282 1.37,0.498 1.765,3.918 4.439,7.086 8.369,8.919 5.781,2.698 11.867,2.986 17.968,1.405 4.551,-1.18 7.564,-4.098 8.7,-8.842 0.665,-2.777 0.328,-5.562 0.461,-8.343 0.028,-0.57 -0.34,-0.496 -0.678,-0.562 -1.99,-0.38 -3.983,-0.747 -5.966,-1.162 -9.648,-2.021 -19.179,-4.44 -27.934,-9.151 -3.852,-2.072 -7.228,-4.795 -9.595,-8.558 -3.1,-4.925 -3.859,-10.325 -3.266,-16.043 0.609,-5.852 3.287,-10.489 7.918,-13.985 3.352,-2.529 7.235,-3.738 11.422,-4.014 4.862,-0.32 9.585,0.202 14.17,1.962 5.16,1.982 9.468,5.151 13.258,9.106 0.304,0.317 0.514,0.824 1.09,0.825 0.361,-3.228 0.713,-6.432 1.087,-9.632 0.043,-0.369 -0.162,-0.917 0.595,-0.911 3.474,0.022 6.947,0.01 10.462,0.01 -0.051,0.442 -0.062,0.799 -0.139,1.141" /></g><g
       transform="translate(119.8975,262.834)"
       id="g44"><path
         id="path46"
         style="fill:#050606;fill-opacity:1;fill-rule:evenodd;stroke:none"
         d="m 0,0 c 0.557,5.475 1.878,10.688 5.116,15.264 2.977,4.206 7.007,6.604 12.124,7.318 3.126,0.436 6.182,0.351 9.212,-0.499 2.921,-0.819 5.244,-2.537 7.248,-4.782 3.846,-4.308 5.197,-9.522 5.621,-15.091 0.058,-0.754 0.051,-1.516 0.148,-2.264 0.111,-0.861 -0.231,-1.036 -1.05,-1.031 -6.233,0.036 -12.467,0.02 -18.701,0.02 -6.234,0 -12.467,0.017 -18.701,-0.02 C 0.146,-1.091 -0.083,-0.821 0,0 m 52.034,-30.251 c -1.596,0.805 -3.189,1.614 -4.79,2.409 -0.955,0.475 -2.063,1.451 -2.843,1.24 -0.783,-0.211 -1.234,-1.622 -1.843,-2.499 -5.777,-8.304 -13.745,-11.264 -22.953,-10.167 -6.115,0.729 -10.712,4.236 -14.261,9.147 -4.036,5.588 -5.583,11.947 -5.751,18.739 -0.024,0.946 0.274,1.078 1.12,1.074 8.039,-0.032 16.079,-0.019 24.118,-0.019 H 36.95 c 4.079,0 8.159,0.033 12.238,-0.027 0.923,-0.012 1.112,0.246 1.092,1.12 -0.061,2.718 0.053,5.442 -0.038,8.158 -0.22,6.525 -1.19,12.905 -4.329,18.748 -3.014,5.612 -7.348,9.87 -13.302,12.297 -4.765,1.943 -9.753,2.478 -14.869,2.091 C 10.945,31.545 4.997,29.09 0.113,24.307 -4.356,19.93 -7.327,14.624 -9.021,8.619 c -1.312,-4.649 -1.972,-9.395 -2.09,-14.238 -0.126,-5.152 0.048,-10.255 1.143,-15.311 1.485,-6.853 4.239,-13.046 9.166,-18.158 3.475,-3.603 7.496,-6.358 12.261,-7.962 6.112,-2.056 12.356,-2.102 18.644,-1.091 4.783,0.771 9.248,2.442 13.017,5.53 3.859,3.16 6.845,7.094 9.326,11.417 0.358,0.621 -0.017,0.744 -0.412,0.943" /></g></g></svg>
