<?xml version="1.0" encoding="UTF-8" standalone="no"?>
<svg
   viewBox="0 0 24 24"
   width="24pt"
   height="24pt"
   version="1.1"
   id="svg3432"
   sodipodi:docname="clarel.svg"
   xml:space="preserve"
   inkscape:version="1.2.2 (732a01da63, 2022-12-09)"
   inkscape:export-filename="clarel.svg"
   inkscape:export-xdpi="96"
   inkscape:export-ydpi="96"
   xmlns:inkscape="http://www.inkscape.org/namespaces/inkscape"
   xmlns:sodipodi="http://sodipodi.sourceforge.net/DTD/sodipodi-0.dtd"
   xmlns="http://www.w3.org/2000/svg"
   xmlns:svg="http://www.w3.org/2000/svg"><defs
     id="defs3436" /><sodipodi:namedview
     id="namedview3434"
     pagecolor="#ffffff"
     bordercolor="#000000"
     borderopacity="0.25"
     inkscape:showpageshadow="2"
     inkscape:pageopacity="0.0"
     inkscape:pagecheckerboard="0"
     inkscape:deskcolor="#d1d1d1"
     inkscape:document-units="pt"
     showgrid="false"
     inkscape:zoom="12.125"
     inkscape:cx="0.82474227"
     inkscape:cy="29.360825"
     inkscape:window-width="1920"
     inkscape:window-height="974"
     inkscape:window-x="-11"
     inkscape:window-y="-11"
     inkscape:window-maximized="1"
     inkscape:current-layer="svg3432" /><g
     transform="matrix(0.0033807,0,0,-0.0033807,3.5827359,12.601955)"
     fill="#000000"
     stroke="none"
     id="g3604"
     style="fill:#ffffff"><path
       d="m 4708,1247 c -25,-51 -80,-149 -121,-219 -118,-196 -132,-233 -132,-353 0,-89 3,-106 28,-157 58,-118 163,-176 303,-165 106,8 183,53 230,133 30,51 54,139 54,199 0,68 -52,193 -147,355 -50,85 -107,188 -127,228 -20,39 -37,72 -39,72 -1,0 -23,-42 -49,-93 z m 147,-224 c 47,-79 97,-171 111,-205 87,-206 -13,-400 -205,-400 -134,0 -218,76 -241,218 -15,94 19,186 153,407 36,59 69,118 73,130 6,18 8,19 16,7 5,-8 47,-79 93,-157 z"
       id="path3588"
       style="fill:#ffffff" /><path
       d="m 4580,660 c 0,-33 25,-83 56,-112 98,-91 248,-49 292,81 17,49 16,51 -23,51 -29,0 -35,-4 -35,-21 0,-12 -15,-36 -34,-55 -28,-28 -42,-34 -75,-34 -54,0 -85,21 -105,71 -14,33 -20,39 -46,39 -23,0 -30,-4 -30,-20 z"
       id="path3590"
       style="fill:#ffffff" /><path
       d="m 820,778 c 0,-589 0,-589 84,-673 61,-61 131,-87 239,-89 l 72,-1 3,123 c 2,80 -1,121 -7,117 -6,-3 -26,1 -45,9 -27,11 -37,23 -45,53 -7,24 -11,205 -11,501 v 462 H 965 820 Z"
       id="path3592"
       style="fill:#ffffff" /><path
       d="m 3937,1274 c -11,-11 -8,-877 3,-972 15,-135 60,-206 158,-252 53,-26 177,-46 216,-36 l 26,6 v 120 c 0,66 -3,119 -7,118 -23,-6 -74,14 -85,34 -10,18 -14,134 -18,503 l -5,480 -141,3 c -77,1 -143,-1 -147,-4 z"
       id="path3594"
       style="fill:#ffffff" /><path
       d="M 368,934 C 197,893 61,758 24,593 3,499 9,388 40,309 86,190 204,81 330,42 406,19 565,19 643,43 l 57,18 v 129 c 0,119 -7,150 -25,120 -16,-26 -81,-42 -152,-37 -92,5 -141,36 -178,110 -98,197 100,389 299,288 l 57,-28 -3,131 -3,131 -65,22 c -76,26 -175,29 -262,7 z"
       id="path3596"
       style="fill:#ffffff" /><path
       d="m 2786,936 c -51,-19 -101,-56 -131,-97 l -25,-33 v 57 57 H 2485 2340 V 480 39 l 143,3 142,3 5,250 c 5,239 6,252 28,291 43,74 135,114 233,101 l 40,-5 -3,131 -3,132 -50,2 c -27,2 -67,-4 -89,-11 z"
       id="path3598"
       style="fill:#ffffff" /><path
       d="m 3280,932 c -204,-53 -326,-226 -323,-457 2,-243 164,-420 415,-455 110,-16 226,7 322,64 54,32 123,103 111,114 -6,5 -47,37 -93,72 l -83,63 -27,-25 c -46,-44 -92,-61 -162,-62 -81,0 -132,23 -178,84 -33,43 -37,64 -11,66 8,1 148,2 312,3 l 297,1 v 54 c 0,80 -26,203 -57,266 -31,64 -112,149 -171,179 -101,51 -233,64 -352,33 z m 237,-218 c 19,-15 41,-42 49,-60 28,-66 32,-64 -161,-64 -114,0 -175,4 -175,10 0,18 37,84 57,102 60,55 166,61 230,12 z"
       id="path3600"
       style="fill:#ffffff" /><path
       d="m 1550,921 c -94,-29 -195,-114 -239,-199 -46,-90 -63,-236 -41,-353 27,-143 137,-283 259,-329 122,-45 258,-25 345,51 l 46,41 V 86 39 l 143,3 142,3 3,438 2,437 h -145 -145 v -57 -57 l -37,36 c -63,61 -134,88 -228,87 -44,0 -91,-4 -105,-8 z m 294,-264 c 52,-40 78,-98 79,-172 2,-150 -111,-240 -249,-200 -135,39 -180,229 -81,342 44,50 80,64 153,60 49,-2 69,-8 98,-30 z"
       id="path3602"
       style="fill:#ffffff" /></g></svg>
