<?xml version="1.0" encoding="UTF-8" standalone="no"?>
<svg
   viewBox="0 0 24 24"
   width="24pt"
   height="24pt"
   version="1.1"
   id="svg1328"
   sodipodi:docname="kiabi.svg"
   xml:space="preserve"
   inkscape:version="1.2.2 (732a01da63, 2022-12-09)"
   inkscape:export-filename="kiabi.svg"
   inkscape:export-xdpi="96"
   inkscape:export-ydpi="96"
   xmlns:inkscape="http://www.inkscape.org/namespaces/inkscape"
   xmlns:sodipodi="http://sodipodi.sourceforge.net/DTD/sodipodi-0.dtd"
   xmlns="http://www.w3.org/2000/svg"
   xmlns:svg="http://www.w3.org/2000/svg"><defs
     id="defs1332" /><sodipodi:namedview
     id="namedview1330"
     pagecolor="#ffffff"
     bordercolor="#000000"
     borderopacity="0.25"
     inkscape:showpageshadow="2"
     inkscape:pageopacity="0.0"
     inkscape:pagecheckerboard="0"
     inkscape:deskcolor="#d1d1d1"
     inkscape:document-units="pt"
     showgrid="false"
     inkscape:zoom="12.125"
     inkscape:cx="-2.7216495"
     inkscape:cy="24.824742"
     inkscape:window-width="1920"
     inkscape:window-height="974"
     inkscape:window-x="-11"
     inkscape:window-y="-11"
     inkscape:window-maximized="1"
     inkscape:current-layer="svg1328" /><style
     type="text/css"
     id="style1502">
	.st0{fill:#000038;}
</style><g
     id="g1576"
     transform="matrix(0.02712677,0,0,0.02712677,3.2513832,2.1163798)"
     style="fill:#ffffff"><rect
       x="21.5"
       y="363.79999"
       class="st0"
       width="4.5"
       height="45"
       id="rect1504"
       style="fill:#ffffff" /><path
       class="st0"
       d="m 67.6,408.7 h -4.3 v -6.3 c -2.5,4.7 -7.6,7 -12.9,7 -5,0 -10.4,-2.2 -14.7,-7 -1.2,-1.4 -3.3,-5.5 -3.3,-10.6 0,-4.4 2.3,-9 3.5,-10.1 5,-5.4 9.7,-7.1 14.3,-7.1 5.2,0 10.5,2.3 13,7.1 v -6.3 h 4.3 v 33.3 z M 36.9,392.2 c 0,7.3 6.3,12.9 13.5,12.9 6.9,0 12.9,-6 12.9,-12.9 0,-7.4 -5.6,-13.3 -13,-13.3 -7.4,0.1 -13.4,6 -13.4,13.3"
       id="path1506"
       style="fill:#ffffff" /><path
       class="st0"
       d="m 92.1,375.4 h 4.2 v 4.3 c 1.6,-3.4 5.2,-5 8.9,-5 4.4,0 8.1,1.8 10.8,5 0.3,0.4 0.5,0.9 0.9,1.3 0.2,-0.4 0.4,-0.8 0.7,-1.3 2.3,-3.2 6.6,-5 10.5,-5 3.6,0 7,1.8 10.3,5 2.7,2.7 3.1,6.1 3.1,10 v 19 H 137 v -18.6 c 0,-2.4 -0.2,-5.1 -1.7,-7.2 -1.8,-2.6 -4.4,-4 -7.5,-4 -2.9,0 -5.7,1.5 -7.4,3.8 -1.5,2.1 -1.4,4.9 -1.4,7.4 v 18.6 h -4.5 v -19.1 c 0,-2.5 -0.1,-4.4 -1.6,-6.6 -1.7,-2.4 -4.5,-4 -7.5,-4 -2.8,0 -5.6,1.2 -7.3,3.5 -1.5,2.2 -1.6,4.6 -1.6,7.1 v 19.1 H 92 v -33.3 z"
       id="path1508"
       style="fill:#ffffff" /><path
       class="st0"
       d="m 182.6,391.9 c 0,9.5 -7.7,17.6 -17.3,17.6 -9.4,0 -17.5,-7.7 -17.5,-17.2 0,-9.7 7.7,-17.6 17.5,-17.6 9.3,0 17.3,7.9 17.3,17.2 m -30.2,0.4 c 0,7.1 5.8,12.9 13,12.9 7.4,0 12.8,-6.1 12.8,-13.3 0,-3.7 -1.2,-6.6 -3.9,-9.2 -2.4,-2.3 -5.6,-3.7 -8.9,-3.7 -7.4,0 -13,6.1 -13,13.3"
       id="path1510"
       style="fill:#ffffff" /><path
       class="st0"
       d="m 223,408.7 h -4.3 v -6.1 c -3.4,4.7 -7.7,6.9 -13.5,6.9 -4.8,0 -9.3,-1.9 -13.9,-6.9 -1.6,-1.4 -3.7,-5.8 -3.7,-10.6 0,-9.9 8.2,-17.3 17.9,-17.3 5,0 10.2,2.2 12.9,6.5 v -17.5 h 4.5 v 45 z M 205.3,379 c -7.1,0 -13.1,5.7 -13.1,12.9 0,7.3 5.9,13.3 13.2,13.3 7.3,0 13.2,-6 13.2,-13.3 0.1,-7.3 -6.1,-12.9 -13.3,-12.9"
       id="path1512"
       style="fill:#ffffff" /><path
       class="st0"
       d="m 233.9,393.7 c 0.2,6.3 6.4,11.5 12.5,11.5 4.9,0 9.9,-2.7 11.9,-7.3 h 4.7 c -2.3,6.7 -9.1,11.6 -16.2,11.6 -9.7,0 -17.4,-7.7 -17.4,-17.4 0,-9.7 7.7,-17.4 17.3,-17.4 5.2,0 10.1,2.4 13.4,6.5 3.1,3.8 3.8,7.7 3.9,12.5 z m 25.6,-4.1 c -1.2,-5.9 -6.6,-10.6 -12.7,-10.6 -6.3,0 -11.8,4.4 -12.9,10.6 z"
       id="path1514"
       style="fill:#ffffff" /><path
       class="st0"
       d="m 312.2,367.9 -2,3.5 -12,-6.4 1.9,-3.7 z m 9.9,40.8 h -4.3 v -6.3 c -2.6,4.7 -7.7,7.1 -12.9,7.1 -5,0 -10.4,-2.2 -14.7,-7.1 -1.2,-1.3 -3.3,-5.5 -3.3,-10.6 0,-4.4 2.2,-9 3.5,-10.1 5,-5.4 9.7,-7.1 14.3,-7.1 5.2,0 10.5,2.3 13,7.1 v -6.3 h 4.3 v 33.3 z m -30.7,-16.5 c 0,7.3 6.3,13 13.4,13 7,0 12.9,-5.9 12.9,-12.9 0,-7.4 -5.6,-13.2 -13,-13.2 -7.3,-0.1 -13.3,5.7 -13.3,13.1"
       id="path1516"
       style="fill:#ffffff" /><path
       class="st0"
       d="m 353.2,375.5 v 5.7 c 2.6,-4.3 8.4,-6.4 13.3,-6.4 4.9,0 9.4,1.9 13.6,6.4 2,1.8 4,6.2 4,11.1 0,9.9 -8.3,17.3 -18,17.3 -4.9,0 -10.4,-2.4 -12.6,-7 v 17.8 H 349 v -44.9 z m 26.4,16.7 c 0,-7.2 -5.8,-13.1 -13.1,-13.1 -7.3,0 -13.3,5.4 -13.3,12.8 0,3.6 0.9,6.7 3.5,9.3 2.5,2.6 5.9,4.1 9.5,4.1 7.4,-0.1 13.4,-5.6 13.4,-13.1"
       id="path1518"
       style="fill:#ffffff" /><path
       class="st0"
       d="m 393.7,393.7 c 0.3,6.3 6.4,11.5 12.6,11.5 4.9,0 9.9,-2.7 11.9,-7.3 h 4.7 c -2.3,6.7 -9.1,11.6 -16.2,11.6 -9.7,0 -17.4,-7.7 -17.4,-17.4 0,-9.7 7.6,-17.4 17.3,-17.4 5.2,0 10,2.4 13.4,6.4 3.1,3.8 3.8,7.7 3.9,12.5 h -30.2 z m 25.6,-4 c -1.2,-5.9 -6.6,-10.6 -12.7,-10.6 -6.3,0 -11.8,4.4 -12.9,10.6 z"
       id="path1520"
       style="fill:#ffffff" /><polygon
       class="st0"
       points="433.8,375.5 433.8,363.8 438.3,363.8 438.3,375.5 446,375.5 446,379.6 438.3,379.6 438.3,408.8 433.8,408.8 433.8,379.6 426.9,379.6 426.9,375.5 "
       id="polygon1522"
       style="fill:#ffffff" /><path
       class="st0"
       d="m 450.6,363.8 h 4.5 v 7.7 h -4.5 z m 0,11.7 h 4.5 v 33.3 h -4.5 z"
       id="path1524"
       style="fill:#ffffff" /><polygon
       class="st0"
       points="466.6,375.5 466.6,363.8 471.1,363.8 471.1,375.5 478.8,375.5 478.8,379.6 471.1,379.6 471.1,408.8 466.6,408.8 466.6,379.6 459.7,379.6 459.7,375.5 "
       id="polygon1526"
       style="fill:#ffffff" /><path
       class="st0"
       d="m 485.2,398.9 c -0.1,3.4 2.6,6.3 6,6.3 3.2,0 5.8,-2.2 5.8,-5.5 0,-4 -3.2,-5.5 -6.4,-6.4 -2.1,-0.7 -4.4,-1.3 -6,-2.9 -1.8,-1.6 -2.7,-4 -2.7,-6.3 0,-5.4 4.4,-9.3 9.6,-9.3 5,0 9.2,4.1 9.2,9 h -4.5 c 0,-2.9 -2.2,-4.7 -5.2,-4.7 -2.6,0 -4.6,2.1 -4.6,4.6 0,3.7 2.9,4.6 5.8,5.5 5,1.6 9.3,3.7 9.3,9.7 0,6.3 -4.6,10.6 -10.8,10.6 -5.6,0 -10.4,-4.9 -10.1,-10.6 z"
       id="path1528"
       style="fill:#ffffff" /><path
       class="st0"
       d="m 528.1,375.5 v 5.7 c 2.6,-4.3 8.5,-6.4 13.3,-6.4 4.8,0 9.3,1.9 13.6,6.4 2,1.8 4,6.2 4,11.1 0,9.9 -8.4,17.3 -18,17.3 -4.9,0 -10.4,-2.4 -12.6,-7 v 17.8 h -4.5 v -44.9 z m 26.4,16.7 c 0,-7.2 -5.8,-13.1 -13.1,-13.1 -7.3,0 -13.3,5.4 -13.3,12.8 0,3.7 0.9,6.7 3.5,9.3 2.5,2.6 5.9,4.1 9.5,4.1 7.4,-0.1 13.4,-5.6 13.4,-13.1"
       id="path1530"
       style="fill:#ffffff" /><path
       class="st0"
       d="m 565.4,375.5 h 4.2 v 4.8 c 1.7,-4 5.6,-5.4 9.7,-5.5 v 4.4 c -2.4,0.2 -4.1,0.7 -6,2.3 -3.1,2.6 -3.4,4.9 -3.4,8.7 v 18.6 h -4.5 z"
       id="path1532"
       style="fill:#ffffff" /><path
       class="st0"
       d="m 583.6,363.8 h 4.5 v 7.7 h -4.5 z m 0,11.7 h 4.5 v 33.3 h -4.5 z"
       id="path1534"
       style="fill:#ffffff" /><polygon
       class="st0"
       points="606.6,388.3 615.4,375.5 620.7,375.5 609.3,391.8 620.7,408.8 615.4,408.8 606.6,395.4 597.8,408.8 592.5,408.8 603.9,391.8 592.5,375.5 597.8,375.5 "
       id="polygon1536"
       style="fill:#ffffff" /><path
       class="st0"
       d="m 348.7,226.8 c -2.4,-4.5 -5.1,-4 -7.5,-4 h -31.8 c -2.7,0 -3.8,-0.2 -2.2,3 1,2 5.8,10.9 5.8,10.9 1.1,2.2 0.6,2.3 -0.3,3.8 -0.7,1.1 -55,92.3 -59.7,99.9 -3.8,6 -5,7.2 1,7.2 h 7.4 c 3.5,0 4,0.1 7.9,-6.5 2.1,-3.5 18.1,-29.6 18.1,-29.6 h 62.9 c 1.7,0 2.8,1.5 3.1,2.1 3.9,7.3 9.8,18.6 14,26.5 2.5,4.8 4.4,7.5 7.8,7.5 h 31.5 c 6,0 5.8,-0.1 1.2,-8.4 -6,-11 -50.9,-96.8 -59.2,-112.4 m -55.3,72.2 25.4,-43.6 c 2.3,-4.3 2,-3.4 3.8,0 0.9,1.7 23.2,43.6 23.2,43.6 z"
       id="path1538"
       style="fill:#ffffff" /><path
       class="st0"
       d="m 163.6,222.9 h -22.4 c -17.3,13.4 -17.9,13.7 -80.5,61.3 v -57.9 c 0,-1.9 -1.5,-3.5 -3.5,-3.5 H 24.8 c -1.9,0 -3.5,1.5 -3.5,3.5 V 344 c 0,1.9 1.6,3.5 3.5,3.5 h 32.5 c 1.9,0 3.5,-1.6 3.5,-3.5 v -50.8 c 9.5,9.4 61.2,54.3 61.2,54.3 h 42.5 c 3.2,0 3.2,-1.7 0.5,-4 -38.2,-32.4 -58.9,-50.3 -67,-57.5 -3.7,-3.2 -5.5,-4.1 -2.7,-6.4 3.9,-3.1 67.1,-52.6 68.8,-54.4 1.6,-1.7 -0.5,-2.3 -0.5,-2.3"
       id="path1540"
       style="fill:#ffffff" /><path
       class="st0"
       d="m 224,222.8 h -32.2 c -2,0 -3.6,1.5 -3.6,3.5 V 344 c 0,1.9 1.6,3.5 3.6,3.5 H 224 c 2,0 3.6,-1.6 3.6,-3.5 V 226.2 c 0,-1.9 -1.6,-3.4 -3.6,-3.4"
       id="path1542"
       style="fill:#ffffff" /><path
       class="st0"
       d="m 617.7,222.8 h -32.2 c -2,0 -3.6,1.5 -3.6,3.5 V 344 c 0,1.9 1.6,3.5 3.6,3.5 h 32.2 c 2,0 3.6,-1.6 3.6,-3.5 V 226.2 c 0,-1.9 -1.6,-3.4 -3.6,-3.4"
       id="path1544"
       style="fill:#ffffff" /><path
       class="st0"
       d="m 527,281.2 c 5.5,-2.4 28,-4.4 28,-29.3 0,-28.7 -31.3,-28.5 -38.6,-29.2 h -78.5 c -1.9,0 -3.4,1.7 -3.4,3.6 v 117.9 c 0,1.9 1.5,3.3 3.4,3.3 h 70.3 c 11.4,0 50.9,-4 51.9,-33.4 1,-26.6 -27.6,-30.8 -33.1,-32.9 m -50,-45.1 h 15.6 v 0.1 c 15.7,-0.1 22.6,9.9 22.6,21 0,11 -8.3,21.1 -22.6,21 v 0.1 H 477 Z M 495.2,338 v 0 l -18.2,0.1 v -49 h 18.2 v 0.1 c 18.7,-0.1 27,11.6 27,24.4 -0.1,12.8 -10,24.5 -27,24.4"
       id="path1546"
       style="fill:#ffffff" /></g></svg>
