<?xml version="1.0" encoding="UTF-8" standalone="no"?>
<svg
   viewBox="0 0 24 24"
   width="24pt"
   height="24pt"
   version="1.1"
   id="svg1756"
   sodipodi:docname="lefties.svg"
   xml:space="preserve"
   inkscape:version="1.2.2 (732a01da63, 2022-12-09)"
   xmlns:inkscape="http://www.inkscape.org/namespaces/inkscape"
   xmlns:sodipodi="http://sodipodi.sourceforge.net/DTD/sodipodi-0.dtd"
   xmlns="http://www.w3.org/2000/svg"
   xmlns:svg="http://www.w3.org/2000/svg"><defs
     id="defs1760" /><sodipodi:namedview
     id="namedview1758"
     pagecolor="#ffffff"
     bordercolor="#000000"
     borderopacity="0.25"
     inkscape:showpageshadow="2"
     inkscape:pageopacity="0.0"
     inkscape:pagecheckerboard="0"
     inkscape:deskcolor="#d1d1d1"
     inkscape:document-units="pt"
     showgrid="false"
     inkscape:zoom="12.125"
     inkscape:cx="-4.1237113"
     inkscape:cy="28.783505"
     inkscape:window-width="1920"
     inkscape:window-height="974"
     inkscape:window-x="-11"
     inkscape:window-y="-11"
     inkscape:window-maximized="1"
     inkscape:current-layer="svg1756" /><g
     transform="matrix(0.00539357,0,0,-0.00539357,2.5556536,16.358938)"
     fill="#000000"
     stroke="none"
     id="g1915"
     style="fill:#ffffff"><path
       d="m 217,1593 c -4,-3 -7,-14 -7,-24 0,-12 12,-18 45,-23 l 45,-7 -2,-397 -3,-397 -52,-3 c -49,-3 -53,-5 -53,-28 v -24 h 135 135 v 24 c 0,23 -5,25 -47,28 l -48,3 -3,428 -2,427 h -68 c -38,0 -72,-3 -75,-7 z"
       id="path1901"
       style="fill:#ffffff" /><path
       d="m 1314,1589 c -35,-10 -89,-66 -106,-108 -5,-14 -13,-57 -16,-96 l -7,-70 -42,-3 c -38,-3 -43,-6 -43,-27 0,-21 5,-24 43,-27 l 42,-3 V 1000 745 l -52,-3 c -49,-3 -53,-5 -53,-28 v -24 h 136 c 135,0 135,0 132,23 -3,19 -10,22 -50,25 l -48,3 v 260 259 h 159 158 l 5,-203 c 4,-198 5,-205 32,-261 36,-74 82,-106 153,-106 65,0 99,13 141,53 37,36 40,53 12,62 -15,5 -31,-2 -55,-24 -73,-64 -159,-48 -198,37 -20,43 -22,63 -22,242 v 195 l 138,3 137,3 v 24 24 l -137,3 -138,3 -3,86 c -3,85 -3,86 -27,81 -24,-4 -25,-7 -25,-83 0,-96 10,-91 -190,-87 l -145,3 4,55 c 7,109 50,170 121,170 49,0 78,-25 88,-75 5,-27 14,-41 27,-44 62,-12 43,112 -24,152 -34,20 -108,28 -147,16 z"
       id="path1903"
       style="fill:#ffffff" /><path
       d="m 2010,1525 c -16,-20 -5,-62 19,-70 42,-13 72,25 51,65 -13,24 -52,27 -70,5 z"
       id="path1905"
       style="fill:#ffffff" /><path
       d="m 705,1321 c -90,-24 -159,-84 -200,-174 -24,-52 -27,-67 -23,-155 3,-109 22,-159 85,-224 59,-60 120,-81 227,-76 109,5 154,25 215,94 47,54 49,64 19,83 -19,12 -23,12 -27,0 -2,-8 -22,-33 -45,-55 -64,-65 -168,-89 -260,-62 -58,17 -129,90 -144,148 -24,94 -51,84 243,90 l 260,5 3,38 c 8,98 -60,217 -150,261 -57,28 -152,41 -203,27 z m 160,-70 c 73,-33 124,-100 128,-168 l 2,-37 -224,2 c -124,1 -227,4 -229,7 -3,2 1,26 9,52 16,57 86,133 139,150 54,17 130,15 175,-6 z"
       id="path1907"
       style="fill:#ffffff" /><path
       d="m 2408,1317 c -141,-40 -227,-174 -215,-337 8,-123 65,-217 159,-264 43,-22 66,-26 134,-26 124,0 196,32 255,113 35,49 35,51 5,65 -22,10 -27,8 -45,-23 -26,-45 -85,-83 -152,-97 -147,-31 -271,53 -295,200 l -7,42 h 261 c 219,0 261,2 265,15 9,23 -10,123 -33,171 -24,49 -87,110 -136,130 -50,21 -142,26 -196,11 z m 155,-58 c 73,-20 153,-121 145,-185 l -3,-26 h -225 l -225,1 3,28 c 8,69 66,142 137,174 45,21 111,24 168,8 z"
       id="path1909"
       style="fill:#ffffff" /><path
       d="m 2969,1317 c -86,-24 -139,-84 -139,-155 0,-64 53,-101 220,-152 127,-39 191,-72 213,-110 32,-54 15,-95 -56,-132 -34,-18 -59,-22 -132,-23 -81,0 -95,3 -137,28 -56,33 -76,59 -85,110 -5,31 -10,37 -29,37 -23,0 -24,-3 -24,-77 -1,-43 -3,-95 -6,-115 -5,-37 -5,-38 25,-38 29,0 31,2 31,37 0,34 1,35 18,20 40,-37 110,-58 191,-59 125,0 195,23 244,82 39,46 44,90 16,147 -33,66 -80,94 -248,149 -79,25 -152,55 -162,65 -59,59 25,139 146,139 98,0 171,-45 181,-112 8,-45 27,-66 48,-49 10,9 12,33 9,104 -3,50 -6,97 -8,104 -7,21 -45,2 -45,-22 v -22 l -48,24 c -59,29 -159,38 -223,20 z"
       id="path1911"
       style="fill:#ffffff" /><path
       d="m 1970,1286 c 0,-21 6,-25 33,-28 l 32,-3 3,-257 2,-257 -52,-3 c -46,-3 -53,-6 -56,-25 -3,-23 -3,-23 138,-23 126,0 141,2 136,16 -3,9 -6,20 -6,25 0,5 -22,9 -50,9 h -50 v 285 285 h -65 c -62,0 -65,-1 -65,-24 z"
       id="path1913"
       style="fill:#ffffff" /></g></svg>
