<?xml version="1.0" encoding="UTF-8" standalone="no"?>
<svg
   viewBox="0 0 30 30"
   width="30pt"
   height="30pt"
   version="1.1"
   id="svg133"
   xml:space="preserve"
   xmlns="http://www.w3.org/2000/svg"
   xmlns:svg="http://www.w3.org/2000/svg"><defs
     id="defs137" /><g
     fill-rule="evenodd"
     clip-rule="evenodd"
     id="g311"
     transform="matrix(9.7273237,0,0,9.7273237,541.72516,-939.18862)"><path
       d="m -53.832656,97.898571 c -0.0062,0 -0.0165,-0.0062 -0.0165,-0.01741 0,0 0.0058,-0.148465 0.0058,-0.185121 0,-0.0096 -0.0024,-0.0083 -0.007,-0.0083 -0.0047,0 -0.02962,0.0083 -0.03956,0.0083 -0.0067,0 -0.0072,-0.0044 -0.0072,-0.0072 0,-0.0087 0.03437,-0.01937 0.05142,-0.02318 0.0073,-0.0017 -0.0011,-0.02429 0.01794,-0.02429 0.01583,0 0.01213,0.01477 0.01717,0.01477 0.0084,0 0.03413,-0.0047 0.07402,-0.0013 0.02877,0.0024 0.133511,0.0302 0.133511,0.142834 0,0.04554 -0.03551,0.142173 -0.187103,0.142173 -0.04095,0 -0.103453,-0.01943 -0.09888,-0.03316 0.0013,-0.004 0.0058,-0.0091 0.01287,-0.0056 0.02293,0.01116 0.06327,0.01493 0.09239,0.01493 0.03651,0 0.140553,-0.02227 0.140553,-0.131334 0,-0.07502 -0.0867,-0.111028 -0.161632,-0.101497 -2.44e-4,2.88e-4 -0.0062,8.31e-4 -0.0062,0.0078 0,0.0031 -9.58e-4,0.134123 -9.58e-4,0.169182 -1.1e-5,0.0015 5.03e-4,0.03838 -0.02064,0.03838 z m 0.586334,-0.133637 a 0.01588183,0.01588183 0 1 1 0.03176,2.2e-5 0.01588183,0.01588183 0 0 1 -0.03176,-2.2e-5 z m -1.167722,-0.0049 a 0.0146459,0.0146459 0 1 1 0.02929,0 0.0146459,0.0146459 0 0 1 -0.02929,0 z m -0.724372,0.11733 0.04833,-0.198441 c 0,0 0.0029,-0.01524 0.0084,-0.01896 0.0081,-0.0056 0.01761,-0.0052 0.01761,-0.0052 0,0 0.0153,9.75e-4 0.02156,0.0057 0.0056,0.0042 0.009,0.01802 0.009,0.01802 l 0.02409,0.147397 c 0,0 0.0024,0.02048 0.0096,0.02048 0.0072,0 0.01163,-0.01569 0.01163,-0.01569 l 0.06047,-0.160774 c 0,0 0.0043,-0.01248 0.0099,-0.01841 0.0051,-0.0054 0.01356,-0.0055 0.01356,-0.0055 h 0.01853 c 0,0 0.0081,7.03e-4 0.01344,0.0067 0.0058,0.0064 0.0051,0.02142 0.0051,0.02142 l 0.01225,0.23562 c 0,0 0.0025,0.02753 -0.01731,0.02791 -0.0208,4.31e-4 -0.02092,-0.01789 -0.02092,-0.01789 l -0.0043,-0.204221 c 0,0 -0.0021,-0.0098 -0.0078,-0.0098 -0.0025,0 -0.0064,0.01028 -0.0064,0.01028 l -0.06154,0.15546 c 0,0 -0.01009,0.0305 -0.03475,0.0297 -0.02289,-7.03e-4 -0.02839,-0.0297 -0.02839,-0.0297 l -0.02384,-0.12575 c 0,0 -0.0029,-0.01188 -0.0077,-0.01188 -0.0044,0 -0.0072,0.01188 -0.0072,0.01188 l -0.03024,0.131574 c 0,0 5.3e-4,0.02228 -0.0196,0.02174 -0.02065,-5.75e-4 -0.0133,-0.02174 -0.0133,-0.02174 z"
       id="path307"
       style="stroke-width:0.0115823" /><path
       d="m -53.364451,97.874028 c -0.0057,0 -0.01642,-0.002 -0.01642,-0.01584 0,-0.01379 2.14e-4,-0.057 2.14e-4,-0.06814 0,-0.01114 0.0036,-0.01077 0.0079,-0.01077 h 0.03266 c 0.0081,0 0.0091,-1.44e-4 0.0091,0.0097 0,0.0098 -0.0028,0.05304 -0.0072,0.06229 -0.0059,0.01255 -0.01188,0.02283 -0.02625,0.02283 z m -0.226713,-0.0085 c 0,-0.01044 0.01285,-0.01175 0.02013,-0.02011 0.0105,-0.01209 0.0069,-0.03356 0.02369,-0.03356 0.01931,0 0.0076,0.03815 0.01042,0.05821 8.31e-4,0.0061 0.0043,0.01123 0.01122,0.01123 0.01496,0 0.02583,-0.01406 0.03226,-0.02997 0.0057,-0.01412 0.0075,-0.02969 0.01168,-0.03827 0.0021,-0.0043 0.006,-0.0048 0.0084,-0.0051 0.01242,-0.0012 0.01319,0.01453 0.01326,0.03025 4.7e-5,0.01065 7.66e-4,0.0213 7.66e-4,0.02666 0,7.03e-4 0.0044,0.01327 0.01498,0.01327 0.0083,0 0.04273,-0.0046 0.03838,-0.09333 -3.59e-4,-0.0074 -7.66e-4,-0.0066 -0.0048,-0.0071 -0.0033,-4.31e-4 -0.01937,2.88e-4 -0.03154,-0.0016 -0.0033,-5.75e-4 -0.01134,-0.0059 -0.01168,-0.01197 -2.45e-4,-0.0048 0.0058,-0.01038 0.0094,-0.01166 0.0065,-0.0023 0.03102,-9.75e-4 0.03356,-9.75e-4 0.0015,0 0.0055,7.03e-4 0.0066,-0.0016 0.0023,-0.01096 0.0044,-0.04174 0.0044,-0.05262 0,-0.0033 0.0028,-0.01044 0.01218,-0.01044 0.01249,0 0.01273,0.0082 0.01273,0.01272 v 0.04651 c 0,0.0036 5.17e-4,0.0054 0.002,0.0054 h 0.04097 c 0.0032,0 0.006,-0.0033 0.006,-0.0054 0,-0.0031 0.002,-0.02845 0.002,-0.03525 0,-0.0068 0.0011,-0.02437 0.0131,-0.02437 0.01199,0 0.01059,0.01084 0.01059,0.0147 v 0.04968 h 0.02141 c 0.01461,0 0.02061,0.01084 0.02061,0.01592 0,0.01057 -0.0078,0.01221 -0.01072,0.01221 h -0.02929 c -0.0034,0 -0.0046,0.01124 -0.0046,0.0148 0,0.0036 -0.0032,0.0512 -0.0032,0.05724 0,0.0146 0.0068,0.02569 0.0197,0.02569 0.01289,0 0.02822,-0.01869 0.03041,-0.02713 0.0023,-0.0091 0.0051,-0.02223 0.0087,-0.03114 0.0036,-0.0089 0.0075,-0.0097 0.01296,-0.0097 0.0055,0 0.0122,0.0018 0.01054,0.01987 -0.0018,0.01972 -0.002,0.02059 -0.002,0.03004 0,0.0095 0.0094,0.03021 0.02604,0.03021 0.0049,0 0.01583,0.0012 0.02985,-0.0036 0.01294,-0.0044 0.01145,-0.0023 0.01145,0.0038 0,0.0055 -0.01615,0.01218 -0.02929,0.01601 -0.01292,0.0037 -0.02741,0.003 -0.03441,-7.03e-4 -0.01346,-0.0073 -0.01732,-0.01182 -0.02005,-0.01455 -0.0027,-0.0027 -0.0047,-0.0025 -0.0062,-0.0025 -0.01455,0 -0.01472,0.0189 -0.03857,0.0189 -0.02389,0 -0.02419,-0.01854 -0.04078,-0.01854 -0.01367,0 -0.01823,0.0198 -0.03536,0.0198 -0.01946,0 -0.0209,-0.0189 -0.04004,-0.0189 -0.01913,0 -0.01728,0.0189 -0.04261,0.0189 -0.01896,0 -0.02586,-0.02199 -0.03918,-0.02199 -0.01635,0 -0.01581,0.02581 -0.04512,0.02581 -0.03693,0 -0.02823,-0.04094 -0.0404,-0.04094 -0.0068,0 -0.0022,0.0034 -0.01315,0.0034 -0.0069,0 -0.0074,-0.0047 -0.0074,-0.0084 z m -1.135882,-0.0414 c 0,0 0.0057,0.0021 0.0059,0.0076 1.71e-4,0.0042 0,0.02663 0,0.02663 0,0 3.4e-5,0.0085 -0.0194,0.01634 -0.01943,0.0078 -0.02484,0.0048 -0.03273,0.003 -0.0079,-0.0018 -0.01617,-0.01374 -0.01617,-0.02028 0,-0.0065 0.0028,-0.01659 0.01003,-0.02335 0.0072,-0.0067 0.0131,-0.0083 0.01879,-0.0096 0.0057,-0.0013 0.01966,-0.0012 0.02314,-0.0012 0.0035,1.2e-5 0.01046,7.03e-4 0.01046,7.03e-4 z m 0.246322,0.04064 c 0,0 -0.01776,0.0034 -0.01615,0.01327 0,0 -0.0019,0.0053 0.0086,0.0061 0,0 0.01138,0.0023 0.013,-0.004 0,0 0.0024,-0.0012 -0.0027,-0.01164 z m -0.101798,0.0021 c 0,0 -0.01776,0.0034 -0.01614,0.01327 0,0 -0.002,0.0053 0.0086,0.0061 0,0 0.01138,0.0023 0.01302,-0.004 0,0 0.0024,-0.0012 -0.0027,-0.01164 z m 0.276483,0.03429 c -0.02067,0 -0.0074,-0.03727 -0.02629,-0.03727 -0.01886,0 -0.02201,0.03257 -0.05189,0.03257 -0.02874,0 -0.02228,-0.05371 -0.03549,-0.05257 -0.01683,0.0014 -0.02853,0.0052 -0.02853,0.0117 0,0.0065 0.004,0.0059 0.004,0.01907 0,0.01327 -0.0069,0.02966 -0.04693,0.02966 -0.0292,0 -0.03999,-0.01573 -0.03999,-0.02404 0,-0.02243 0.03462,-0.02493 0.03462,-0.03121 0,-0.0036 -0.01094,-0.01915 -0.01687,-0.01974 -0.0076,-7.02e-4 -0.04199,0.02448 -0.04199,0.02942 0,0.0049 0.0088,0.01192 0.0088,0.02829 0,0.02058 -0.01934,0.02224 -0.03753,0.02224 -0.01818,0 -0.04536,-0.0106 -0.04536,-0.02235 0,-0.0032 -3.89e-4,-0.0085 0.003,-0.01308 0.0075,-0.01022 0.01773,-0.01484 0.02493,-0.01857 0.0038,-0.0019 0.0034,-5.74e-4 0.0034,-0.0028 0,-0.0023 -0.0097,-0.01084 -0.0123,-0.01084 -0.0014,0 -0.004,-0.0022 -0.0082,0.002 -0.0149,0.01489 -0.0176,0.05494 -0.05736,0.05494 -0.02643,0 -0.02747,-0.01742 -0.04011,-0.01742 -0.01079,0 -0.02832,0.01758 -0.06529,0.01758 -0.03721,0 -0.04396,-0.0338 -0.04396,-0.0464 0,-0.0097 0.0031,-0.04681 0.06799,-0.04681 0.02972,0 0.03512,0.01018 0.04053,0.01018 0.002,0 0.0053,4.3e-4 0.0065,-7.03e-4 0.002,-0.0019 0.0024,-0.0028 0.0053,-0.0028 0.0028,0 0.01094,-7.03e-4 0.01183,1.4e-4 8.94e-4,8.3e-4 0.0053,0.0021 0.0053,0.007 0,0.0049 -0.0058,0.01908 -0.0058,0.02328 0,0.0022 -7.67e-4,0.0082 -8.95e-4,0.01326 -1.04e-4,0.0044 4.46e-4,0.0082 4.46e-4,0.0084 0,0.0031 0.0011,0.01199 0.01728,0.01199 0.01903,0 0.03648,-0.02452 0.03977,-0.04501 0.002,-0.01264 7.66e-4,-0.03166 7.66e-4,-0.03421 0,-0.0025 -9.75e-4,-0.0053 0.0025,-0.0071 6.04e-4,-2.87e-4 0.0047,-0.0024 0.0063,-0.0024 0.0015,0 0.0034,9.75e-4 0.0054,0.003 0.0011,0.0012 0.01139,0.01472 0.02463,0.02718 0.011,0.01036 0.02135,0.01532 0.03032,0.02162 0.0016,0.0012 0.03661,-0.02567 0.03661,-0.02836 v -0.01573 c 0,-0.0066 0.0068,-0.01175 0.01114,-0.01175 0.01214,0 0.04141,0.05285 0.0554,0.05285 0.0087,0 0.03744,-0.01211 0.04171,-0.01394 0.0036,-0.0016 0.01544,-0.01668 0.01544,-0.01802 0,-0.0013 0.02045,0.0016 0.02045,0.01182 0,0.01024 -6.39e-4,0.04836 0.008,0.04836 0.03622,0 0.03121,-0.06154 0.05689,-0.06154 0.02148,0 0.009,0.04125 0.02508,0.04125 0.01609,0 0.01703,-0.04441 0.04566,-0.04441 0.01123,0 0.01123,0.03437 0.02472,0.03437 0.02013,0 0.02213,-0.03332 0.04311,-0.03332 0.03601,0 0.0028,0.07908 0.03377,0.07908 0.03451,0 0.03062,-0.06752 0.04786,-0.06752 0.0249,0 -0.01934,0.06874 0.04355,0.06874 0.03766,0 0.05896,-0.04727 0.01873,-0.05939 -0.01713,-0.0052 -0.02964,0.0077 -0.03746,-1.15e-4 -0.0021,-0.0021 0.005,-0.011 0.0095,-0.01281 0.0029,-0.0012 0.0097,-0.0034 0.02565,-0.0034 0.01597,0 0.05549,0.0027 0.05549,0.0454 0,0.03289 -0.04133,0.05612 -0.06741,0.05612 -0.04662,0 -0.03816,-0.02308 -0.05762,-0.02308 -0.01661,0 -0.02157,0.02608 -0.04571,0.02608 -0.03983,0 -0.02248,-0.06696 -0.04042,-0.06696 -0.02293,0 -0.01962,0.05702 -0.04587,0.05702 -0.0196,0 -0.006,-0.05506 -0.02126,-0.05506 -0.01524,-5.8e-5 -0.02594,0.05635 -0.04165,0.05635 z"
       id="path309"
       style="stroke-width:0.0115823" /></g></svg>
