<?xml version="1.0" encoding="UTF-8" standalone="no"?>
<svg
   viewBox="0 0 15.340205 5.0618558"
   width="15.340205pt"
   height="5.0618558pt"
   version="1.1"
   id="svg1313"
   xmlns="http://www.w3.org/2000/svg"
   xmlns:svg="http://www.w3.org/2000/svg">
  <defs
     id="defs1317" />
  <g
     id="g84"
     transform="matrix(0.07519709,0,0,0.08573714,-7.4445119,-13.299374)"
     style="isolation:isolate;fill:#ffffff">
    <path
       d="m 265.999,155.118 h 5.658 v 4.939 c 9.699,0.27 19.848,0.045 29.726,0.135 v 5.209 c -9.654,0.269 -19.802,0.045 -29.636,0.135 -0.225,5.658 -0.135,11.675 -0.135,17.602 0,5.972 -0.494,11.855 0.943,16.66 1.392,4.67 4.85,7.319 9.34,8.397 5.793,1.392 13.875,0.224 17.692,-3.054 1.258,1.257 2.38,2.649 3.413,4.131 -4.85,3.727 -11.989,5.613 -20.072,4.625 -7.275,-0.898 -12.394,-4.131 -15.088,-10.013 -2.784,-6.107 -2.021,-14.639 -2.021,-23.126 v -25.146 c 0.045,-0.315 0.045,-0.494 0.18,-0.494 z"
       fill="#000000"
       id="path76"
       style="fill:#ffffff" />
    <path
       d="m 145.97,212.954 h -5.793 v -21.823 c 0,-9.25 0.764,-18.725 -4.131,-23.126 -5.119,-4.58 -15.761,-4.445 -22.183,-1.302 -4.984,2.425 -8.576,6.781 -9.07,13.92 -0.719,10.598 0.538,21.554 0,32.331 H 99 v -51.46 h 5.793 v 5.883 c 3.861,-4.446 9.474,-7.859 17.467,-8.353 13.202,-0.853 21.42,4.446 23.261,15.582 0.943,5.748 0.449,12.304 0.449,18.995 z"
       fill="#000000"
       id="path78"
       style="fill:#ffffff" />
    <path
       d="M 206.411,188.976 H 159.89 c 0.764,10.238 6.242,17.647 16.031,19.353 11.72,2.066 19.937,-3.412 23.485,-11.316 h 5.882 c -3.502,9.116 -9.923,14.954 -20.162,16.66 -17.288,2.874 -29.457,-8.083 -31.163,-23.35 -0.629,-5.793 0.224,-11.451 2.11,-16.031 3.368,-8.218 11.137,-14.549 21.958,-15.223 9.61,-0.628 16.75,3.099 21.24,7.904 4.85,5.119 7.454,12.034 7.14,22.003 z m -12.394,-19.444 c -3.457,-3.233 -8.801,-5.613 -15.357,-5.209 -11.54,0.719 -17.288,8.218 -18.77,19.354 h 40.459 c -0.539,-6.062 -2.694,-10.732 -6.332,-14.145 z"
       fill="#000000"
       id="path80"
       style="fill:#ffffff" />
    <path
       d="m 208.746,160.327 c 2.2,-0.27 4.895,-0.045 7.319,-0.135 5.344,6.107 10.732,12.528 16.031,18.994 0.404,0.494 1.976,2.695 2.245,2.695 0.36,0 1.931,-2.201 2.38,-2.695 5.119,-6.286 10.508,-12.842 15.672,-18.994 h 6.736 c 0.179,0.494 -0.584,0.988 -1.078,1.527 -6.691,7.858 -13.471,16.39 -20.162,24.293 7.364,8.981 15.357,18.007 22.407,26.898 -2.066,-0.494 -4.895,0.628 -7.095,0 -0.628,-0.18 -1.886,-1.886 -2.604,-2.695 -5.434,-6.466 -11.316,-13.561 -16.525,-19.847 -6.601,7.319 -12.663,15.177 -19.219,22.542 h -6.825 c -0.135,-0.449 0.583,-1.123 1.077,-1.662 7.005,-8.172 14.325,-16.839 21.375,-25.012 -7.14,-8.756 -14.46,-17.333 -21.734,-25.909 z"
       fill="#000000"
       id="path82"
       style="fill:#ffffff" />
  </g>
</svg>
