<?xml version="1.0" encoding="UTF-8" standalone="no"?><!-- Generator: Gravit.io --><svg xmlns="http://www.w3.org/2000/svg" xmlns:xlink="http://www.w3.org/1999/xlink" style="isolation:isolate" viewBox="0 0 24 24" width="24pt" height="24pt"><defs><clipPath id="_clipPath_yrh6honkrev2cjDyWJoOxxb7Q4t1cPoz"><rect width="24" height="24"/></clipPath></defs><g clip-path="url(#_clipPath_yrh6honkrev2cjDyWJoOxxb7Q4t1cPoz)"><g><path d=" M 16.587 7.123 L 16.986 7.123 L 16.986 7.521 C 17.671 7.542 18.387 7.524 19.084 7.531 L 19.084 7.951 C 18.403 7.972 17.687 7.954 16.993 7.961 C 16.977 8.417 16.983 8.901 16.983 9.378 C 16.983 9.858 16.948 10.332 17.05 10.718 C 17.148 11.094 17.392 11.307 17.709 11.394 C 18.118 11.506 18.688 11.412 18.957 11.148 C 19.046 11.249 19.125 11.361 19.198 11.481 C 18.856 11.78 18.352 11.932 17.782 11.853 C 17.268 11.78 16.907 11.52 16.717 11.047 C 16.521 10.556 16.574 9.869 16.574 9.186 L 16.574 7.163 C 16.578 7.138 16.578 7.123 16.587 7.123 L 16.587 7.123 Z " fill="rgb(255,255,255)"/><path d=" M 8.116 11.777 L 7.708 11.777 L 7.708 10.021 C 7.708 9.277 7.762 8.514 7.416 8.16 C 7.055 7.792 6.304 7.802 5.851 8.055 C 5.499 8.25 5.245 8.601 5.211 9.175 C 5.16 10.028 5.249 10.91 5.211 11.777 L 4.802 11.777 L 4.802 7.636 L 5.211 7.636 L 5.211 8.11 C 5.483 7.752 5.879 7.477 6.443 7.437 C 7.375 7.369 7.955 7.795 8.085 8.691 C 8.151 9.154 8.116 9.681 8.116 10.22 L 8.116 11.777 Z " fill="rgb(255,255,255)"/><path d=" M 12.382 9.848 L 9.099 9.848 C 9.153 10.671 9.539 11.267 10.23 11.405 C 11.057 11.571 11.637 11.13 11.888 10.494 L 12.303 10.494 C 12.055 11.228 11.602 11.697 10.88 11.835 C 9.66 12.066 8.801 11.184 8.681 9.956 C 8.636 9.49 8.696 9.035 8.829 8.666 C 9.067 8.005 9.615 7.495 10.379 7.441 C 11.057 7.391 11.561 7.69 11.878 8.077 C 12.22 8.489 12.404 9.045 12.382 9.848 Z  M 11.507 8.283 C 11.263 8.023 10.886 7.831 10.423 7.864 C 9.609 7.922 9.203 8.525 9.099 9.421 L 11.954 9.421 C 11.916 8.933 11.764 8.558 11.507 8.283 Z " fill="rgb(255,255,255)"/><path d=" M 12.547 7.542 C 12.702 7.521 12.892 7.539 13.063 7.531 C 13.44 8.023 13.821 8.54 14.194 9.06 C 14.223 9.1 14.334 9.277 14.353 9.277 C 14.378 9.277 14.489 9.1 14.521 9.06 C 14.882 8.554 15.262 8.026 15.627 7.531 L 16.102 7.531 C 16.115 7.571 16.061 7.611 16.026 7.654 C 15.554 8.287 15.075 8.973 14.603 9.609 C 15.123 10.332 15.687 11.058 16.185 11.773 C 16.039 11.734 15.839 11.824 15.684 11.773 C 15.64 11.759 15.551 11.622 15.5 11.556 C 15.117 11.036 14.702 10.465 14.334 9.96 C 13.868 10.548 13.44 11.181 12.978 11.773 L 12.496 11.773 C 12.486 11.737 12.537 11.683 12.572 11.64 C 13.066 10.982 13.583 10.285 14.08 9.627 C 13.577 8.923 13.06 8.232 12.547 7.542 L 12.547 7.542 Z " fill="rgb(255,255,255)"/></g></g></svg>