<?xml version="1.0" encoding="UTF-8" standalone="no"?>
<svg
   viewBox="0 0 18.040001 21.999998"
   width="18.040001pt"
   height="21.999998pt"
   version="1.1"
   id="svg1245"
   xmlns="http://www.w3.org/2000/svg"
   xmlns:svg="http://www.w3.org/2000/svg">
  <defs
     id="defs1249">
    <clipPath
       clipPathUnits="userSpaceOnUse"
       id="clipPath186-4">
      <path
         d="M 0,0 H 595.276 V 841.89 H 0 Z"
         id="path188-2" />
    </clipPath>
    <clipPath
       clipPathUnits="userSpaceOnUse"
       id="clipPath202-3">
      <path
         d="M 0,0 H 595.276 V 841.89 H 0 Z"
         id="path204-4" />
    </clipPath>
  </defs>
  <g
     transform="matrix(0.1154542,0,0,-0.12700206,-47.025426,18.654656)"
     id="g184"
     clip-path="url(#clipPath186-4)">
    <g
       id="g190"
       transform="translate(469.4675,68.162)">
      <path
         d="m 0,0 v 24.526 h -4.791 c 0.001,0.001 -10e-4,-0.89 0,-1.491 0.001,-0.602 0.105,-1.724 0.105,-1.724 h -0.249 c -1.776,2.086 -4.157,4.001 -7.951,4.001 -7.336,0 -13.101,-5.66 -13.101,-13.049 0,-7.386 5.765,-13.049 13.101,-13.049 3.794,0 6.175,2.011 7.951,4.004 h 0.249 c 0,0 -0.106,-1.186 -0.105,-1.727 0.002,-0.95 0,-1.491 0,-1.491 z m -4.502,12.274 v -0.011 -0.01 c -0.006,-4.607 -3.724,-8.717 -8.384,-8.717 -4.665,0 -8.385,4.116 -8.385,8.727 0,4.665 3.72,8.729 8.385,8.729 4.66,0 8.378,-4.059 8.384,-8.718"
         style="fill:#a8052c;fill-opacity:1;fill-rule:nonzero;stroke:none"
         id="path192" />
    </g>
  </g>
  <path
     d="M 2.9158214,7.4554238 H 3.8058579 L 3.8702814,6.8831526 H 1.3289035 V 7.4554238 H 2.3470941 V 9.997878 h 0.5687273 z"
     style="fill:#a8052c;fill-opacity:1;fill-rule:nonzero;stroke:none;stroke-width:0.0160279"
     id="path196" />
  <g
     transform="matrix(0.1154542,0,0,-0.12700206,-47.025426,18.654656)"
     id="g200"
     clip-path="url(#clipPath202-3)">
    <g
       id="g206"
       transform="translate(482.0448,92.6878)">
      <path
         d="M 0,0 H -4.716 V -24.526 H 0 v 9.725 l 1.624,1.624 9.312,-11.349 h 6.131 L 4.978,-10.165 15.271,0 H 9.221 L 0,-9.222 h -0.181 c 0,0 0.181,0.389 0.181,1.298 z"
         style="fill:#a8052c;fill-opacity:1;fill-rule:nonzero;stroke:none"
         id="path208" />
    </g>
    <g
       id="g210"
       transform="translate(552.0503,80.4255)">
      <path
         d="m 0,0 c 0,7.389 -5.766,13.049 -13.101,13.049 -7.335,0 -13.102,-5.66 -13.102,-13.049 0,-7.386 5.767,-13.05 13.102,-13.05 C -5.766,-13.05 0,-7.386 0,0 m -4.718,0 c 0,-4.612 -3.721,-8.727 -8.383,-8.727 -4.667,0 -8.384,4.115 -8.384,8.727 0,4.664 3.717,8.728 8.384,8.728 4.662,0 8.383,-4.064 8.383,-8.728"
         style="fill:#a8052c;fill-opacity:1;fill-rule:nonzero;stroke:none"
         id="path212" />
    </g>
    <g
       id="g214"
       transform="translate(508.1529,92.6878)">
      <path
         d="M 0,0 H -4.718 V -24.526 H 0 v 9.725 l 1.624,1.624 9.312,-11.349 h 6.131 L 4.976,-10.165 15.271,0 H 9.221 L 0,-9.222 h -0.18 c 0,0 0.18,0.389 0.18,1.298 z"
         style="fill:#a8052c;fill-opacity:1;fill-rule:nonzero;stroke:none"
         id="path216" />
    </g>
    <g
       id="g218"
       transform="translate(439.7243,50.2094)">
      <path
         d="m 0,0 h 1.728 v 4.086 h 4.28 v 1.453 h -4.28 v 2.664 h 4.54 V 9.711 H 0 Z m 11.376,0 h 1.934 l 0.877,2.221 h 4.211 L 19.304,0 h 1.974 L 17.095,9.711 H 15.6 Z m 3.401,3.704 1.522,3.949 1.496,-3.949 z m 19.27,5.212 c -0.741,0.696 -1.852,1.04 -2.826,1.04 -1.756,0 -3.552,-0.876 -3.552,-2.853 0,-1.809 1.275,-2.385 2.455,-2.755 1.221,-0.386 2.236,-0.674 2.236,-1.688 0,-1.044 -0.946,-1.44 -1.756,-1.44 -0.768,0 -1.646,0.413 -2.126,1.07 L 27.244,1.139 c 0.768,-0.907 2.071,-1.388 3.333,-1.388 1.907,0 3.538,1.018 3.538,3.102 0,1.904 -1.591,2.454 -2.839,2.84 -1.098,0.34 -1.852,0.602 -1.852,1.491 0,0.95 0.92,1.333 1.715,1.333 0.686,0 1.412,-0.357 1.783,-0.838 z M 41.644,0 h 1.728 v 4.305 h 4.54 V 0 h 1.73 v 9.711 h -1.73 V 5.788 h -4.54 v 3.923 h -1.728 z m 15.793,0 h 1.727 v 9.711 h -1.727 z m 8.534,4.881 c 0,-3.029 2.208,-5.13 5.199,-5.13 3.029,0 5.238,2.101 5.238,5.13 0,3.115 -2.209,5.075 -5.238,5.075 -2.991,0 -5.199,-1.96 -5.199,-5.075 m 1.878,0 c 0,2.003 1.332,3.554 3.334,3.554 2.015,0 3.347,-1.551 3.347,-3.554 0,-2.071 -1.358,-3.579 -3.347,-3.579 -1.977,0 -3.334,1.508 -3.334,3.579 M 82.862,0 h 1.727 v 7.502 h 0.026 L 89.226,0 h 2.195 V 9.711 H 89.69 v -7.27 h -0.026 l -4.512,7.27 h -2.29 z"
         style="fill:#a8052c;fill-opacity:1;fill-rule:nonzero;stroke:none"
         id="path220" />
    </g>
  </g>
</svg>
