<svg width="96" height="96" xmlns="http://www.w3.org/2000/svg" xmlns:xlink="http://www.w3.org/1999/xlink" xml:space="preserve" overflow="hidden"><g transform="translate(-303 -216)"><path d="M384.707 229.207C385.091 228.81 385.08 228.177 384.682 227.793 384.295 227.419 383.68 227.419 383.293 227.793L372 239.086 372 242.5 343 242.5 343.005 246.6 344.332 259.948C345.031 260.055 345.712 260.181 346.376 260.326L345 246.5 345 244.5 377.931 244.5 377.931 246.422 374.005 296.5 359.92 296.5C359.485 297.251 358.931 297.927 358.279 298.5L375.854 298.5 379.93 246.5 379.93 242.5 374 242.5 374 239.914Z" stroke="#0E2841" fill="#0E2841"/><path d="M359 286.528C360.254 285.612 360.996 284.153 361 282.6L361 282.4C360.996 280.847 360.254 279.388 359 278.472L359 274.5C359 266.967 350.379 261.5 338.5 261.5 326.621 261.5 318 266.967 318 274.5L318 278.472C316.746 279.388 316.004 280.847 316 282.4L316 282.6C316.004 284.153 316.746 285.612 318 286.528L318 292.5C318.003 295.812 320.688 298.497 324 298.5L353 298.5C356.312 298.497 358.997 295.812 359 292.5ZM320 277.5 320 274.5C320 268.126 327.78 263.5 338.5 263.5 349.22 263.5 357 268.126 357 274.5L357 277.5 320 277.5ZM318 282.4C318 280.798 319.298 279.5 320.9 279.5L356.1 279.5C357.702 279.5 359 280.798 359 282.4L359 282.6C359 284.202 357.702 285.5 356.1 285.5L320.9 285.5C319.298 285.5 318 284.202 318 282.6ZM348.086 287.5 343.5 292.086 338.914 287.5ZM357 292.5C357 294.709 355.209 296.5 353 296.5L324 296.5C321.791 296.5 320 294.709 320 292.5L320 287.5 336.086 287.5 343.5 294.914 350.914 287.5 357 287.5Z" stroke="#0E2841" fill="#0E2841"/></g></svg>