<svg width="96" height="96" xmlns="http://www.w3.org/2000/svg" xmlns:xlink="http://www.w3.org/1999/xlink" xml:space="preserve" overflow="hidden"><g transform="translate(-294 -117)"><path d="M371.764 131 312.236 131 306.036 153.737 306 160C306.003 162.54 307.605 164.803 310 165.65L310 199 374 199 374 165.65C376.395 164.803 377.997 162.54 378 160L378 154ZM350 153.91 348.1 133 357.2 133 362 154.112 362 158.1C361.997 161.357 359.357 163.997 356.1 164L355.9 164C352.643 163.997 350.003 161.357 350 158.1L350 154ZM348 158.1C347.997 161.357 345.357 163.997 342.1 164L341.9 164C338.643 163.997 336.003 161.357 336 158.1L336 154.047 337.913 133 346.087 133 348 154ZM335.905 133 334 154 334 158.1C333.997 161.357 331.357 163.997 328.1 164L327.9 164C324.643 163.997 322.003 161.357 322 158.1L322 154.112 326.8 133ZM320 154 320 158.1C319.997 161.357 317.357 163.997 314.1 164L312 164C309.791 164 308 162.209 308 160L308 154.134 313.764 133 324.747 133 320.025 153.778ZM346 197 346 174 363 174 363 197ZM372 197 365 197 365 172 344 172 344 197 312 197 312 166 314.1 166C316.967 165.998 319.608 164.443 321 161.937 322.392 164.443 325.033 165.998 327.9 166L328.1 166C330.967 165.998 333.608 164.443 335 161.937 336.392 164.443 339.033 165.998 341.9 166L342.1 166C344.967 165.998 347.608 164.443 349 161.937 350.392 164.443 353.033 165.998 355.9 166L356.1 166C358.967 165.998 361.608 164.443 363 161.937 364.392 164.443 367.033 165.998 369.9 166L372 166ZM376 160C376 162.209 374.209 164 372 164L369.9 164C366.643 163.997 364.003 161.357 364 158.1L364 154 359.253 133 370.236 133 376 154.134Z" stroke="#0E2841" fill="#0E2841"/><path d="M319 189 336 189 336 172 319 172ZM321 174 334 174 334 187 321 187Z" stroke="#0E2841" fill="#0E2841"/></g></svg>