<svg width="96" height="96" xmlns="http://www.w3.org/2000/svg" xmlns:xlink="http://www.w3.org/1999/xlink" xml:space="preserve" overflow="hidden"><g transform="translate(-509 -276)"><path d="M518.985 351 521.01 351 522.153 343 540 343 540 351 542 351 542 331 545 331C545.552 331 546 330.552 546 330 546 329.448 545.552 329 545 329L523.905 329 521 299.9C520.945 299.35 520.455 298.95 519.905 299.005 519.356 299.06 518.955 299.551 519.01 300.1L521.998 329.979ZM523.868 331 540 331 540 341 522.439 341Z" stroke="#0E2841" fill="#0E2841"/><path d="M534 318 556 318 556 349 548 349C547.448 349 547 349.448 547 350 547 350.552 547.448 351 548 351L566 351C566.552 351 567 350.552 567 350 567 349.448 566.552 349 566 349L558 349 558 318 580 318C580.552 318 581 317.552 581 317 581 316.448 580.552 316 580 316L534 316C533.448 316 533 316.448 533 317 533 317.552 533.448 318 534 318Z" stroke="#0E2841" fill="#0E2841"/><path d="M568 330C568 330.552 568.448 331 569 331L572 331 572 351 574 351 574 343 591.847 343 592.99 351 595.009 351 592.009 329.979 595 300.1C595.055 299.551 594.654 299.06 594.105 299.005 593.555 298.95 593.065 299.35 593.01 299.9L590.1 329 569 329C568.448 329 568 329.448 568 330ZM574 331 590.133 331 591.561 341 574 341Z" stroke="#0E2841" fill="#0E2841"/></g></svg>