<svg width="96" height="96" xmlns="http://www.w3.org/2000/svg" xmlns:xlink="http://www.w3.org/1999/xlink" xml:space="preserve" overflow="hidden"><g transform="translate(-592 -312)"><path d="M671 376.981C670.95 374.339 669.714 371.859 667.633 370.229 664.006 367.261 659.696 365.412 655.164 363.792L650.245 361.773C649.493 361.467 649.003 360.735 649.005 359.923L649.005 356.976C652.781 354.152 655.006 349.715 655.01 345L655.01 344.342 657.2 341.528C658.071 340.404 658.47 338.985 658.311 337.572 657.734 331.223 653.885 325.634 648.159 322.831 647.396 322.467 646.497 322.544 645.807 323.031L645.807 323.031 645.683 323.117 645.236 322.506C644.769 321.853 644.065 321.409 643.275 321.268 633.498 319.575 624.176 326.054 622.356 335.808L622.319 336.008C621.902 338.257 621.031 340.398 619.76 342.3 619.454 342.76 619.579 343.381 620.039 343.686 620.203 343.796 620.395 343.854 620.592 343.854L625.009 343.854 625.009 345C625.012 349.71 627.232 354.144 631 356.969L631 359.923C631.002 360.735 630.511 361.466 629.759 361.773L624.812 363.8C620.293 365.421 616 367.266 612.394 370.215 610.301 371.851 609.058 374.344 609.011 377L609.011 394.038 609.456 394.338C614.133 397.456 627.284 399.013 640.329 399.013 653.429 399.013 666.423 397.442 670.602 394.306L671 394ZM624.285 336.371 624.321 336.171C625.941 327.493 634.237 321.729 642.935 323.237 643.212 323.293 643.457 323.453 643.62 323.684L644.643 325.084C644.964 325.523 645.576 325.626 646.022 325.315L646.947 324.671C647.044 324.599 647.172 324.583 647.284 324.629 652.381 327.123 655.807 332.095 656.323 337.746 656.439 338.659 656.187 339.58 655.623 340.306L654.91 341.221C654.682 339.842 654.075 338.553 653.156 337.5L649.761 333.605C649.512 333.32 649.123 333.2 648.756 333.295 646.904 333.775 645.741 335.232 644.509 336.774 642.609 339.152 640.456 341.847 635.009 341.847L622.357 341.847C623.279 340.133 623.93 338.285 624.285 336.371ZM627.009 345 627.009 343.849 635.009 343.849C641.42 343.849 644.109 340.483 646.073 338.024 646.763 336.99 647.66 336.11 648.707 335.439L651.65 338.816C652.526 339.821 653.009 341.109 653.01 342.443L653.01 344.001 653.01 345.001C653.002 352.177 647.187 357.993 640.01 358.001L640.01 358.001C632.833 357.994 627.016 352.177 627.009 345ZM630.52 363.623C632.023 363.01 633.004 361.546 633 359.923L633 358.255C637.379 360.581 642.627 360.581 647.006 358.255L647.006 359.918C647.002 361.541 647.983 363.005 649.486 363.618L651.297 364.361 646.707 396.93C644.945 396.999 643.153 397.037 641.352 397.047L644.879 393.377 643.636 372.577 645.842 365 634.178 365 636.361 372.508 635.144 393.378 638.663 397.041C636.863 397.021 635.063 396.974 633.296 396.895L628.71 364.366ZM642.014 371 638.006 371 636.842 367 643.178 367ZM638.335 373 641.658 373 642.83 392.623 640.011 395.557 637.191 392.622ZM626.81 365.221 631.262 396.792C622.403 396.276 614.567 394.992 611.012 392.946L611.012 377.024C611.053 374.967 612.02 373.039 613.644 371.776 617 369.028 621.078 367.27 625.386 365.724ZM654.624 365.721C658.934 367.268 663.012 369.027 666.387 371.788 667.996 373.045 668.956 374.958 669 377L669 392.978C665.709 395.072 657.783 396.355 648.736 396.835L653.2 365.219Z" stroke="#0E2841" fill="#0E2841"/><path d="M655.005 380 664.004 380 664.004 382 655.005 382Z" stroke="#0E2841" fill="#0E2841"/></g></svg>