<?xml version="1.0" encoding="UTF-8" standalone="no"?><!-- Generator: Gravit.io --><svg xmlns="http://www.w3.org/2000/svg" xmlns:xlink="http://www.w3.org/1999/xlink" style="isolation:isolate" viewBox="0 0 24 24" width="24pt" height="24pt"><defs><clipPath id="_clipPath_WmUGvQNidBsBFVYo6MycfZvrQarybTTO"><rect width="24" height="24"/></clipPath></defs><g clip-path="url(#_clipPath_WmUGvQNidBsBFVYo6MycfZvrQarybTTO)"><clipPath id="_clipPath_7rDDJrzLPjNWn4qqPZ5Uozdxc498bgnZ"><rect x="0" y="0" width="24" height="24" transform="matrix(1,0,0,1,0,0)" fill="rgb(255,255,255)"/></clipPath><g clip-path="url(#_clipPath_7rDDJrzLPjNWn4qqPZ5Uozdxc498bgnZ)"><g><path d=" M 18.593 16.825 C 20.37 15.006 21.563 12.624 21.563 9.901 C 21.563 4.623 17.278 0.338 12 0.338 C 6.722 0.338 2.438 4.623 2.438 9.901 C 2.438 12.657 3.526 14.954 5.474 16.888 L 5.473 16.888 L 11.611 23.662 L 18.605 16.825 L 18.593 16.825 L 18.593 16.825 Z " fill="rgb(0,113,206)"/></g></g><clipPath id="_clipPath_fcXJznF14Od01vrSiQVBEB4ZB53Iozk9"><rect x="-12.164" y="-1.152" width="38.25" height="31.359" transform="matrix(1,0,0,1,0,0)" fill="rgb(255,255,255)"/></clipPath><g clip-path="url(#_clipPath_fcXJznF14Od01vrSiQVBEB4ZB53Iozk9)"><g><path d=" M 13.427 7.611 L 14.506 6.566 L 15.542 7.383 L 15.177 5.885 L 15.929 5.136 L 14.789 4.817 L 14.464 3.388 L 13.977 4.636 L 12.512 4.545 L 13.691 5.817 L 13.427 7.611 Z  M 18.267 8.587 L 17.473 8.633 L 17.088 7.429 L 16.884 8.677 L 15.948 8.927 L 16.64 9.541 L 16.396 10.675 L 17.209 9.926 L 17.88 10.312 L 17.657 9.291 L 18.267 8.587 Z  M 16.498 12.106 L 16.273 11.471 L 15.888 12.379 L 14.931 12.81 L 15.684 12.878 L 15.583 13.377 L 16.294 12.856 L 16.904 12.878 L 16.782 12.447 L 17.311 11.742 L 16.498 12.106 Z  M 15.014 10.018 L 13.733 10.289 L 13.143 8.791 L 12.899 10.563 L 11.353 11.084 L 12.716 11.652 L 12.635 12.856 L 13.468 11.834 L 14.566 12.038 L 14.118 11.107 L 15.014 10.018 Z  M 13.143 13.786 L 12.635 13.468 L 12.553 14.059 L 11.516 14.626 L 12.593 14.535 L 12.756 14.672 L 13.143 14.399 L 14.16 14.127 L 13.754 13.99 L 14.241 13.423 L 13.143 13.786 Z  M 9.584 9.381 L 8.507 10.812 C 8.386 10.97 8.263 11.152 8.121 11.333 L 8.1 11.333 L 8.792 7.27 L 7.571 7.27 L 6.454 14.081 L 7.673 14.081 L 7.938 12.583 L 8.406 12.083 L 9.138 14.081 L 10.52 14.081 L 9.361 11.333 L 11.151 9.404 L 9.584 9.381 Z " fill="rgb(255,255,255)"/></g></g></g></svg>