<?xml version="1.0" encoding="UTF-8" standalone="no"?><!-- Generator: Gravit.io --><svg xmlns="http://www.w3.org/2000/svg" xmlns:xlink="http://www.w3.org/1999/xlink" style="isolation:isolate" viewBox="0 0 24 24" width="24pt" height="24pt"><defs><clipPath id="_clipPath_EU3mw7bdPDkFcdSwGwcJU1Fsu6VfLtVt"><rect width="24" height="24"/></clipPath></defs><g clip-path="url(#_clipPath_EU3mw7bdPDkFcdSwGwcJU1Fsu6VfLtVt)"><clipPath id="_clipPath_z1iTMKR9hdVe8b7Vo80SUn8jeFwoTVOm"><rect x="2.98" y="1" width="18.04" height="22" transform="matrix(1,0,0,1,0,0)" fill="rgb(255,255,255)"/></clipPath><g clip-path="url(#_clipPath_z1iTMKR9hdVe8b7Vo80SUn8jeFwoTVOm)"><g><path d=" M 18.219 16.551 C 19.896 14.836 21.02 12.588 21.02 10.02 C 21.02 5.042 16.978 1 12 1 C 7.022 1 2.98 5.042 2.98 10.02 C 2.98 12.62 4.007 14.787 5.844 16.61 L 5.844 16.61 L 11.633 23 L 18.23 16.551 L 18.219 16.551 Z " fill="rgb(0,0,0)"/></g></g><g><path d=" M 19.143 9.805 C 19.143 13.585 15.973 16.648 12.061 16.648 C 8.15 16.648 4.983 13.585 4.983 9.805 C 4.983 6.026 8.153 2.966 12.065 2.966 C 15.976 2.966 19.143 6.029 19.143 9.805 Z " fill="rgb(255,236,0)"/><path d=" M 15.764 9.749 C 15.76 9.487 15.646 9.25 15.453 9.093 L 15.457 9.096 L 11.301 5.619 C 11.039 5.398 10.671 5.357 10.36 5.515 C 10.073 5.657 9.89 5.947 9.89 6.275 L 9.89 9.752 L 9.89 13.225 C 9.89 13.55 10.073 13.843 10.36 13.985 C 10.671 14.143 11.039 14.102 11.301 13.878 L 15.457 10.402 L 15.453 10.405 C 15.646 10.244 15.757 10.007 15.764 9.749 Z " fill="rgb(0,0,0)"/><path d=" M 19.143 9.809 C 19.143 13.588 15.973 16.651 12.061 16.651 C 8.15 16.651 4.983 13.588 4.983 9.809 C 4.983 6.029 8.15 2.966 12.061 2.966 C 15.976 2.966 19.143 6.029 19.143 9.809 Z " fill="rgb(255,236,0)"/><mask id="_mask_WBOC4uOYDHvo1T3zGQ1hJ0aPCU3ekrKe" x="-200%" y="-200%" width="400%" height="400%"><rect x="-200%" y="-200%" width="400%" height="400%" style="fill:white;"/><path d=" M 19.143 9.809 C 19.143 13.588 15.973 16.651 12.061 16.651 C 8.15 16.651 4.983 13.588 4.983 9.809 C 4.983 6.029 8.15 2.966 12.061 2.966 C 15.976 2.966 19.143 6.029 19.143 9.809 Z " fill="black" stroke="none"/></mask><path d=" M 19.143 9.809 C 19.143 13.588 15.973 16.651 12.061 16.651 C 8.15 16.651 4.983 13.588 4.983 9.809 C 4.983 6.029 8.15 2.966 12.061 2.966 C 15.976 2.966 19.143 6.029 19.143 9.809 Z " fill="rgb(255,236,0)"/><path d=" M 19.143 9.809 C 19.143 13.588 15.973 16.651 12.061 16.651 C 8.15 16.651 4.983 13.588 4.983 9.809 C 4.983 6.029 8.15 2.966 12.061 2.966 C 15.976 2.966 19.143 6.029 19.143 9.809 Z " fill="rgb(255,236,0)" mask="url(#_mask_WBOC4uOYDHvo1T3zGQ1hJ0aPCU3ekrKe)" vector-effect="non-scaling-stroke" stroke-width="0.004" stroke="rgb(43,36,34)" stroke-linejoin="miter" stroke-linecap="butt" stroke-miterlimit="10"/><g><clipPath id="_clipPath_pEKvtGQY1kpkpVtcivhEkdQf0cVTO5Eq"><path d=" M 5.718 9.758 C 5.718 13.137 8.562 15.884 12.061 15.884 C 15.558 15.884 18.405 13.137 18.405 9.758 C 18.405 6.38 15.561 3.629 12.061 3.629 C 8.565 3.629 5.718 6.38 5.718 9.758 Z " fill="rgb(255,255,255)"/></clipPath><g clip-path="url(#_clipPath_pEKvtGQY1kpkpVtcivhEkdQf0cVTO5Eq)"><radialGradient id="_rgradient_0" fx="0.30992237323037486" fy="0.0788193997425985" cx="0.30992237323037486" cy="0.0788193997425985" r="1" gradientTransform="matrix(12.684,0,0,12.256,5.718,3.629)" gradientUnits="userSpaceOnUse"><stop offset="0%" stop-opacity="1" style="stop-color:rgb(255,251,228)"/><stop offset="8%" stop-opacity="1" style="stop-color:rgb(255,251,228)"/><stop offset="26%" stop-opacity="1" style="stop-color:rgb(255,243,137)"/><stop offset="40%" stop-opacity="1" style="stop-color:rgb(255,236,0)"/><stop offset="78%" stop-opacity="1" style="stop-color:rgb(252,192,0)"/><stop offset="100%" stop-opacity="1" style="stop-color:rgb(241,139,0)"/></radialGradient><rect x="5.718" y="3.629" width="12.684" height="12.256" transform="matrix(1,0,0,1,0,0)" fill="url(#_rgradient_0)"/></g></g><path d=" M 15.764 9.749 C 15.76 9.49 15.649 9.25 15.453 9.093 L 15.457 9.096 L 11.297 5.619 C 11.036 5.398 10.664 5.357 10.357 5.515 C 10.07 5.657 9.887 5.947 9.887 6.275 L 9.887 9.752 L 9.887 13.225 C 9.887 13.55 10.07 13.843 10.357 13.985 C 10.667 14.143 11.036 14.099 11.297 13.878 L 15.457 10.402 L 15.453 10.405 C 15.646 10.244 15.76 10.01 15.764 9.749 Z " fill="rgb(0,0,0)"/></g></g></svg>